<?xml version="1.0" encoding="utf-8"?>
<svg xmlns="http://www.w3.org/2000/svg"
     xmlns:xlink="http://www.w3.org/1999/xlink" width="1920" height="1440" >

            <defs>
            <style type="text/css"><![CDATA[
circle {stroke: none;}
.c0 {fill: #000000;}
]]></style>
            </defs>
<rect x="0" y="0" width="1920" height="1440" fill="white"/>
<circle cx="1036" cy="980" r="12" class="c0"/>
<circle cx="706" cy="664" r="12" class="c0"/>
<circle cx="952" cy="742" r="12" class="c0"/>
<circle cx="786" cy="912" r="12" class="c0"/>
<circle cx="870" cy="956" r="12" class="c0"/>
<circle cx="1036" cy="836" r="12" class="c0"/>
<circle cx="912" cy="874" r="12" class="c0"/>
<circle cx="764" cy="668" r="12" class="c0"/>
<circle cx="998" cy="740" r="12" class="c0"/>
<circle cx="846" cy="656" r="12" class="c0"/>
<circle cx="1082" cy="874" r="12" class="c0"/>
<circle cx="1186" cy="642" r="12" class="c0"/>
<circle cx="778" cy="952" r="12" class="c0"/>
<circle cx="974" cy="958" r="12" class="c0"/>
<circle cx="986" cy="910" r="12" class="c0"/>
<circle cx="964" cy="1012" r="12" class="c0"/>
<circle cx="762" cy="810" r="12" class="c0"/>
<circle cx="1094" cy="728" r="12" class="c0"/>
<circle cx="856" cy="820" r="12" class="c0"/>
<circle cx="846" cy="1024" r="12" class="c0"/>
<circle cx="938" cy="958" r="12" class="c0"/>
<circle cx="902" cy="972" r="12" class="c0"/>
<circle cx="1014" cy="714" r="12" class="c0"/>
<circle cx="822" cy="928" r="12" class="c0"/>
<circle cx="1130" cy="684" r="12" class="c0"/>
<circle cx="792" cy="752" r="12" class="c0"/>
<circle cx="756" cy="614" r="12" class="c0"/>
<circle cx="926" cy="1034" r="12" class="c0"/>
<circle cx="1136" cy="740" r="12" class="c0"/>
<circle cx="900" cy="1024" r="12" class="c0"/>
<circle cx="980" cy="830" r="12" class="c0"/>
<circle cx="1108" cy="664" r="12" class="c0"/>
<circle cx="846" cy="796" r="12" class="c0"/>
<circle cx="830" cy="638" r="12" class="c0"/>
<circle cx="846" cy="994" r="12" class="c0"/>
<circle cx="1058" cy="768" r="10" class="c0"/>
<circle cx="964" cy="604" r="10" class="c0"/>
<circle cx="756" cy="860" r="10" class="c0"/>
<circle cx="1146" cy="612" r="10" class="c0"/>
<circle cx="854" cy="604" r="10" class="c0"/>
<circle cx="860" cy="682" r="10" class="c0"/>
<circle cx="1040" cy="868" r="10" class="c0"/>
<circle cx="922" cy="780" r="10" class="c0"/>
<circle cx="1020" cy="650" r="10" class="c0"/>
<circle cx="964" cy="852" r="10" class="c0"/>
<circle cx="920" cy="706" r="10" class="c0"/>
<circle cx="1016" cy="826" r="10" class="c0"/>
<circle cx="888" cy="638" r="10" class="c0"/>
<circle cx="786" cy="822" r="10" class="c0"/>
<circle cx="786" cy="708" r="10" class="c0"/>
<circle cx="850" cy="734" r="10" class="c0"/>
<circle cx="870" cy="776" r="10" class="c0"/>
<circle cx="766" cy="890" r="10" class="c0"/>
<circle cx="878" cy="600" r="10" class="c0"/>
<circle cx="1196" cy="744" r="10" class="c0"/>
<circle cx="1064" cy="802" r="10" class="c0"/>
<circle cx="1062" cy="836" r="10" class="c0"/>
<circle cx="878" cy="796" r="10" class="c0"/>
<circle cx="990" cy="1016" r="10" class="c0"/>
<circle cx="1176" cy="608" r="10" class="c0"/>
<circle cx="792" cy="638" r="10" class="c0"/>
<circle cx="1154" cy="788" r="10" class="c0"/>
<circle cx="746" cy="654" r="10" class="c0"/>
<circle cx="1038" cy="742" r="10" class="c0"/>
<circle cx="1052" cy="944" r="10" class="c0"/>
<circle cx="914" cy="922" r="10" class="c0"/>
<circle cx="988" cy="980" r="10" class="c0"/>
<circle cx="890" cy="832" r="10" class="c0"/>
<circle cx="888" cy="860" r="10" class="c0"/>
<circle cx="1068" cy="664" r="10" class="c0"/>
<circle cx="1132" cy="782" r="10" class="c0"/>
<circle cx="946" cy="824" r="10" class="c0"/>
<circle cx="810" cy="766" r="10" class="c0"/>
<circle cx="994" cy="616" r="10" class="c0"/>
<circle cx="1078" cy="818" r="10" class="c0"/>
<circle cx="640" cy="674" r="10" class="c0"/>
<circle cx="1208" cy="696" r="10" class="c0"/>
<circle cx="958" cy="1040" r="10" class="c0"/>
<circle cx="676" cy="736" r="10" class="c0"/>
<circle cx="768" cy="640" r="10" class="c0"/>
<circle cx="796" cy="976" r="10" class="c0"/>
<circle cx="658" cy="684" r="10" class="c0"/>
<circle cx="786" cy="1018" r="10" class="c0"/>
<circle cx="990" cy="660" r="10" class="c0"/>
<circle cx="926" cy="596" r="10" class="c0"/>
<circle cx="990" cy="800" r="10" class="c0"/>
<circle cx="1014" cy="1022" r="10" class="c0"/>
<circle cx="892" cy="724" r="10" class="c0"/>
<circle cx="660" cy="796" r="10" class="c0"/>
<circle cx="1100" cy="808" r="10" class="c0"/>
<circle cx="874" cy="712" r="10" class="c0"/>
<circle cx="818" cy="1036" r="10" class="c0"/>
<circle cx="912" cy="654" r="10" class="c0"/>
<circle cx="1048" cy="704" r="10" class="c0"/>
<circle cx="710" cy="776" r="10" class="c0"/>
<circle cx="952" cy="918" r="10" class="c0"/>
<circle cx="914" cy="838" r="10" class="c0"/>
<circle cx="920" cy="678" r="10" class="c0"/>
<circle cx="1040" cy="1034" r="10" class="c0"/>
<circle cx="1036" cy="798" r="10" class="c0"/>
<circle cx="940" cy="998" r="10" class="c0"/>
<circle cx="1202" cy="624" r="10" class="c0"/>
<circle cx="1128" cy="650" r="10" class="c0"/>
<circle cx="994" cy="940" r="10" class="c0"/>
<circle cx="1086" cy="650" r="10" class="c0"/>
<circle cx="1114" cy="796" r="10" class="c0"/>
<circle cx="988" cy="1038" r="10" class="c0"/>
<circle cx="982" cy="592" r="10" class="c0"/>
<circle cx="1034" cy="692" r="10" class="c0"/>
<circle cx="662" cy="652" r="10" class="c0"/>
<circle cx="834" cy="860" r="10" class="c0"/>
<circle cx="930" cy="936" r="10" class="c0"/>
<circle cx="772" cy="740" r="10" class="c0"/>
<circle cx="714" cy="822" r="10" class="c0"/>
<circle cx="722" cy="684" r="10" class="c0"/>
<circle cx="1070" cy="744" r="10" class="c0"/>
<circle cx="928" cy="622" r="10" class="c0"/>
<circle cx="638" cy="764" r="10" class="c0"/>
<circle cx="952" cy="784" r="10" class="c0"/>
<circle cx="978" cy="640" r="10" class="c0"/>
<circle cx="678" cy="816" r="10" class="c0"/>
<circle cx="1016" cy="868" r="10" class="c0"/>
<circle cx="642" cy="728" r="10" class="c0"/>
<circle cx="752" cy="786" r="10" class="c0"/>
<circle cx="902" cy="810" r="10" class="c0"/>
<circle cx="874" cy="1014" r="10" class="c0"/>
<circle cx="728" cy="792" r="10" class="c0"/>
<circle cx="876" cy="622" r="10" class="c0"/>
<circle cx="894" cy="930" r="10" class="c0"/>
<circle cx="656" cy="712" r="10" class="c0"/>
<circle cx="1090" cy="776" r="10" class="c0"/>
<circle cx="696" cy="696" r="10" class="c0"/>
<circle cx="782" cy="994" r="10" class="c0"/>
<circle cx="798" cy="726" r="10" class="c0"/>
<circle cx="1178" cy="678" r="10" class="c0"/>
<circle cx="746" cy="718" r="10" class="c0"/>
<circle cx="926" cy="732" r="10" class="c0"/>
<circle cx="1190" cy="784" r="8" class="c0"/>
<circle cx="722" cy="736" r="8" class="c0"/>
<circle cx="1158" cy="672" r="8" class="c0"/>
<circle cx="808" cy="838" r="8" class="c0"/>
<circle cx="934" cy="860" r="8" class="c0"/>
<circle cx="844" cy="964" r="8" class="c0"/>
<circle cx="926" cy="642" r="8" class="c0"/>
<circle cx="934" cy="694" r="8" class="c0"/>
<circle cx="704" cy="734" r="8" class="c0"/>
<circle cx="960" cy="716" r="8" class="c0"/>
<circle cx="818" cy="690" r="8" class="c0"/>
<circle cx="970" cy="810" r="8" class="c0"/>
<circle cx="998" cy="778" r="8" class="c0"/>
<circle cx="946" cy="876" r="8" class="c0"/>
<circle cx="792" cy="864" r="8" class="c0"/>
<circle cx="836" cy="682" r="8" class="c0"/>
<circle cx="1134" cy="834" r="8" class="c0"/>
<circle cx="744" cy="828" r="8" class="c0"/>
<circle cx="1056" cy="900" r="8" class="c0"/>
<circle cx="846" cy="944" r="8" class="c0"/>
<circle cx="872" cy="1040" r="8" class="c0"/>
<circle cx="1028" cy="918" r="8" class="c0"/>
<circle cx="904" cy="588" r="8" class="c0"/>
<circle cx="810" cy="952" r="8" class="c0"/>
<circle cx="850" cy="890" r="8" class="c0"/>
<circle cx="1154" cy="728" r="8" class="c0"/>
<circle cx="660" cy="628" r="8" class="c0"/>
<circle cx="744" cy="746" r="8" class="c0"/>
<circle cx="830" cy="902" r="8" class="c0"/>
<circle cx="880" cy="758" r="8" class="c0"/>
<circle cx="1140" cy="800" r="8" class="c0"/>
<circle cx="1078" cy="912" r="8" class="c0"/>
<circle cx="928" cy="910" r="8" class="c0"/>
<circle cx="1176" cy="796" r="8" class="c0"/>
<circle cx="1014" cy="596" r="8" class="c0"/>
<circle cx="1102" cy="858" r="8" class="c0"/>
<circle cx="1098" cy="830" r="8" class="c0"/>
<circle cx="874" cy="876" r="8" class="c0"/>
<circle cx="1022" cy="954" r="8" class="c0"/>
<circle cx="810" cy="816" r="8" class="c0"/>
<circle cx="800" cy="788" r="8" class="c0"/>
<circle cx="900" cy="994" r="8" class="c0"/>
<circle cx="728" cy="856" r="8" class="c0"/>
<circle cx="986" cy="860" r="8" class="c0"/>
<circle cx="686" cy="752" r="8" class="c0"/>
<circle cx="1204" cy="594" r="8" class="c0"/>
<circle cx="898" cy="678" r="8" class="c0"/>
<circle cx="994" cy="702" r="8" class="c0"/>
<circle cx="1150" cy="822" r="8" class="c0"/>
<circle cx="648" cy="748" r="8" class="c0"/>
<circle cx="1056" cy="646" r="8" class="c0"/>
<circle cx="1082" cy="758" r="8" class="c0"/>
<circle cx="1116" cy="726" r="8" class="c0"/>
<circle cx="1014" cy="930" r="8" class="c0"/>
<circle cx="1008" cy="850" r="8" class="c0"/>
<circle cx="1178" cy="762" r="8" class="c0"/>
<circle cx="790" cy="618" r="8" class="c0"/>
<circle cx="782" cy="842" r="8" class="c0"/>
<circle cx="958" cy="942" r="8" class="c0"/>
<circle cx="1078" cy="632" r="8" class="c0"/>
<circle cx="916" cy="756" r="8" class="c0"/>
<circle cx="1168" cy="816" r="8" class="c0"/>
<circle cx="902" cy="894" r="8" class="c0"/>
<circle cx="1210" cy="644" r="8" class="c0"/>
<circle cx="1100" cy="638" r="8" class="c0"/>
<circle cx="790" cy="670" r="8" class="c0"/>
<circle cx="680" cy="770" r="8" class="c0"/>
<circle cx="948" cy="640" r="8" class="c0"/>
<circle cx="820" cy="984" r="8" class="c0"/>
<circle cx="858" cy="860" r="8" class="c0"/>
<circle cx="974" cy="934" r="8" class="c0"/>
<circle cx="900" cy="612" r="8" class="c0"/>
<circle cx="1010" cy="1000" r="8" class="c0"/>
<circle cx="754" cy="766" r="8" class="c0"/>
<circle cx="1010" cy="670" r="8" class="c0"/>
<circle cx="1010" cy="628" r="8" class="c0"/>
<circle cx="956" cy="686" r="8" class="c0"/>
<circle cx="702" cy="614" r="8" class="c0"/>
<circle cx="1144" cy="706" r="8" class="c0"/>
<circle cx="1036" cy="764" r="8" class="c0"/>
<circle cx="798" cy="1048" r="8" class="c0"/>
<circle cx="724" cy="622" r="8" class="c0"/>
<circle cx="1022" cy="680" r="8" class="c0"/>
<circle cx="760" cy="934" r="8" class="c0"/>
<circle cx="806" cy="900" r="8" class="c0"/>
<circle cx="830" cy="708" r="8" class="c0"/>
<circle cx="1066" cy="606" r="8" class="c0"/>
<circle cx="744" cy="884" r="8" class="c0"/>
<circle cx="964" cy="904" r="8" class="c0"/>
<circle cx="996" cy="892" r="8" class="c0"/>
<circle cx="888" cy="666" r="8" class="c0"/>
<circle cx="1098" cy="616" r="8" class="c0"/>
<circle cx="902" cy="698" r="8" class="c0"/>
<circle cx="814" cy="614" r="8" class="c0"/>
<circle cx="928" cy="976" r="8" class="c0"/>
<circle cx="880" cy="980" r="8" class="c0"/>
<circle cx="896" cy="1048" r="8" class="c0"/>
<circle cx="890" cy="748" r="8" class="c0"/>
<circle cx="730" cy="664" r="8" class="c0"/>
<circle cx="632" cy="696" r="8" class="c0"/>
<circle cx="1102" cy="882" r="8" class="c0"/>
<circle cx="926" cy="1058" r="8" class="c0"/>
<circle cx="1098" cy="698" r="8" class="c0"/>
<circle cx="1022" cy="900" r="8" class="c0"/>
<circle cx="688" cy="654" r="8" class="c0"/>
<circle cx="1010" cy="1048" r="8" class="c0"/>
<circle cx="940" cy="896" r="8" class="c0"/>
<circle cx="866" cy="838" r="8" class="c0"/>
<circle cx="806" cy="1020" r="8" class="c0"/>
<circle cx="862" cy="916" r="8" class="c0"/>
<circle cx="1222" cy="654" r="8" class="c0"/>
<circle cx="822" cy="664" r="8" class="c0"/>
<circle cx="972" cy="1062" r="8" class="c0"/>
<circle cx="1162" cy="770" r="8" class="c0"/>
<circle cx="1122" cy="754" r="8" class="c0"/>
<circle cx="1040" cy="1010" r="8" class="c0"/>
<circle cx="1080" cy="712" r="8" class="c0"/>
<circle cx="962" cy="978" r="8" class="c0"/>
<circle cx="1082" cy="684" r="8" class="c0"/>
<circle cx="1198" cy="664" r="8" class="c0"/>
<circle cx="1058" cy="880" r="8" class="c0"/>
<circle cx="980" cy="676" r="8" class="c0"/>
<circle cx="970" cy="770" r="8" class="c0"/>
<circle cx="1038" cy="636" r="8" class="c0"/>
<circle cx="824" cy="782" r="8" class="c0"/>
<circle cx="1010" cy="764" r="8" class="c0"/>
<circle cx="752" cy="688" r="8" class="c0"/>
<circle cx="816" cy="1068" r="8" class="c0"/>
<circle cx="936" cy="668" r="8" class="c0"/>
<circle cx="828" cy="730" r="8" class="c0"/>
<circle cx="726" cy="762" r="8" class="c0"/>
<circle cx="786" cy="884" r="8" class="c0"/>
<circle cx="1176" cy="716" r="8" class="c0"/>
<circle cx="1060" cy="858" r="8" class="c0"/>
<circle cx="768" cy="1006" r="8" class="c0"/>
<circle cx="708" cy="708" r="8" class="c0"/>
<circle cx="1144" cy="662" r="8" class="c0"/>
<circle cx="1050" cy="618" r="8" class="c0"/>
<circle cx="1194" cy="708" r="8" class="c0"/>
<circle cx="848" cy="626" r="8" class="c0"/>
<circle cx="800" cy="594" r="8" class="c0"/>
<circle cx="1146" cy="760" r="8" class="c0"/>
<circle cx="834" cy="590" r="8" class="c0"/>
<circle cx="1132" cy="816" r="8" class="c0"/>
<circle cx="936" cy="754" r="8" class="c0"/>
<circle cx="690" cy="780" r="8" class="c0"/>
<circle cx="980" cy="714" r="8" class="c0"/>
<circle cx="688" cy="718" r="8" class="c0"/>
<circle cx="918" cy="998" r="8" class="c0"/>
<circle cx="948" cy="590" r="8" class="c0"/>
<circle cx="742" cy="628" r="8" class="c0"/>
<circle cx="1080" cy="846" r="8" class="c0"/>
<circle cx="826" cy="748" r="8" class="c0"/>
<circle cx="774" cy="786" r="8" class="c0"/>
<circle cx="1220" cy="616" r="8" class="c0"/>
<circle cx="1116" cy="706" r="8" class="c0"/>
<circle cx="942" cy="1050" r="8" class="c0"/>
<circle cx="818" cy="872" r="8" class="c0"/>
<circle cx="898" cy="1066" r="8" class="c0"/>
<circle cx="678" cy="632" r="8" class="c0"/>
<circle cx="846" cy="766" r="8" class="c0"/>
<circle cx="844" cy="698" r="8" class="c0"/>
<circle cx="976" cy="734" r="8" class="c0"/>
<circle cx="896" cy="778" r="8" class="c0"/>
<circle cx="946" cy="1026" r="8" class="c0"/>
<circle cx="1108" cy="766" r="8" class="c0"/>
<circle cx="1158" cy="694" r="8" class="c0"/>
<circle cx="866" cy="640" r="8" class="c0"/>
<circle cx="950" cy="704" r="8" class="c0"/>
<circle cx="972" cy="698" r="8" class="c0"/>
<circle cx="952" cy="618" r="8" class="c0"/>
<circle cx="698" cy="800" r="8" class="c0"/>
<circle cx="766" cy="596" r="8" class="c0"/>
<circle cx="994" cy="1064" r="8" class="c0"/>
<circle cx="1132" cy="860" r="8" class="c0"/>
<circle cx="1168" cy="752" r="8" class="c0"/>
<circle cx="808" cy="700" r="8" class="c0"/>
<circle cx="1050" cy="814" r="8" class="c0"/>
<circle cx="1168" cy="662" r="8" class="c0"/>
<circle cx="1106" cy="744" r="8" class="c0"/>
<circle cx="954" cy="666" r="8" class="c0"/>
<circle cx="1146" cy="844" r="8" class="c0"/>
<circle cx="676" cy="708" r="8" class="c0"/>
<circle cx="1002" cy="686" r="8" class="c0"/>
<circle cx="1032" cy="612" r="8" class="c0"/>
<circle cx="858" cy="752" r="8" class="c0"/>
<circle cx="1092" cy="900" r="8" class="c0"/>
<circle cx="1130" cy="628" r="8" class="c0"/>
<circle cx="882" cy="900" r="8" class="c0"/>
<circle cx="834" cy="1050" r="8" class="c0"/>
<circle cx="822" cy="964" r="8" class="c0"/>
<circle cx="734" cy="700" r="8" class="c0"/>
<circle cx="988" cy="764" r="8" class="c0"/>
<circle cx="802" cy="682" r="8" class="c0"/>
<circle cx="978" cy="788" r="8" class="c0"/>
<circle cx="1186" cy="590" r="8" class="c0"/>
<circle cx="826" cy="834" r="8" class="c0"/>
<circle cx="820" cy="804" r="8" class="c0"/>
<circle cx="1150" cy="638" r="8" class="c0"/>
<circle cx="706" cy="856" r="8" class="c0"/>
<circle cx="758" cy="908" r="8" class="c0"/>
<circle cx="1012" cy="980" r="8" class="c0"/>
<circle cx="974" cy="880" r="8" class="c0"/>
<circle cx="1044" cy="780" r="8" class="c0"/>
<circle cx="692" cy="842" r="8" class="c0"/>
<circle cx="726" cy="646" r="8" class="c0"/>
<circle cx="884" cy="688" r="8" class="c0"/>
<circle cx="1160" cy="628" r="8" class="c0"/>
<circle cx="1012" cy="798" r="8" class="c0"/>
<circle cx="798" cy="940" r="8" class="c0"/>
<circle cx="1072" cy="784" r="8" class="c0"/>
<circle cx="1028" cy="882" r="8" class="c0"/>
<circle cx="1018" cy="748" r="8" class="c0"/>
<circle cx="688" cy="674" r="8" class="c0"/>
<circle cx="1178" cy="734" r="8" class="c0"/>
<circle cx="1214" cy="674" r="8" class="c0"/>
<circle cx="764" cy="966" r="8" class="c0"/>
<circle cx="780" cy="682" r="8" class="c0"/>
<circle cx="870" cy="664" r="8" class="c0"/>
<circle cx="938" cy="842" r="8" class="c0"/>
<circle cx="806" cy="656" r="8" class="c0"/>
<circle cx="1046" cy="674" r="8" class="c0"/>
<circle cx="628" cy="716" r="8" class="c0"/>
<circle cx="902" cy="948" r="8" class="c0"/>
<circle cx="736" cy="774" r="8" class="c0"/>
<circle cx="712" cy="876" r="8" class="c0"/>
<circle cx="1060" cy="724" r="8" class="c0"/>
<circle cx="1118" cy="846" r="8" class="c0"/>
<circle cx="648" cy="638" r="8" class="c0"/>
<circle cx="1070" cy="696" r="8" class="c0"/>
<circle cx="700" cy="640" r="8" class="c0"/>
<circle cx="832" cy="954" r="8" class="c0"/>
<circle cx="1004" cy="966" r="6" class="c0"/>
<circle cx="808" cy="742" r="6" class="c0"/>
<circle cx="816" cy="854" r="6" class="c0"/>
<circle cx="670" cy="780" r="6" class="c0"/>
<circle cx="926" cy="802" r="6" class="c0"/>
<circle cx="1082" cy="800" r="6" class="c0"/>
<circle cx="872" cy="732" r="6" class="c0"/>
<circle cx="968" cy="658" r="6" class="c0"/>
<circle cx="784" cy="592" r="6" class="c0"/>
<circle cx="996" cy="820" r="6" class="c0"/>
<circle cx="916" cy="956" r="6" class="c0"/>
<circle cx="856" cy="1060" r="6" class="c0"/>
<circle cx="762" cy="704" r="6" class="c0"/>
<circle cx="976" cy="994" r="6" class="c0"/>
<circle cx="774" cy="864" r="6" class="c0"/>
<circle cx="1056" cy="1012" r="6" class="c0"/>
<circle cx="1114" cy="612" r="6" class="c0"/>
<circle cx="1016" cy="780" r="6" class="c0"/>
<circle cx="1206" cy="728" r="6" class="c0"/>
<circle cx="906" cy="740" r="6" class="c0"/>
<circle cx="1050" cy="964" r="6" class="c0"/>
<circle cx="1088" cy="668" r="6" class="c0"/>
<circle cx="1118" cy="868" r="6" class="c0"/>
<circle cx="1040" cy="896" r="6" class="c0"/>
<circle cx="1042" cy="722" r="6" class="c0"/>
<circle cx="804" cy="880" r="6" class="c0"/>
<circle cx="1002" cy="644" r="6" class="c0"/>
<circle cx="850" cy="928" r="6" class="c0"/>
<circle cx="724" cy="712" r="6" class="c0"/>
<circle cx="734" cy="810" r="6" class="c0"/>
<circle cx="940" cy="720" r="6" class="c0"/>
<circle cx="1028" cy="856" r="6" class="c0"/>
<circle cx="768" cy="834" r="6" class="c0"/>
<circle cx="864" cy="586" r="6" class="c0"/>
<circle cx="1192" cy="688" r="6" class="c0"/>
<circle cx="846" cy="908" r="6" class="c0"/>
<circle cx="1006" cy="952" r="6" class="c0"/>
<circle cx="926" cy="826" r="6" class="c0"/>
<circle cx="736" cy="602" r="6" class="c0"/>
<circle cx="1176" cy="696" r="6" class="c0"/>
<circle cx="1044" cy="658" r="6" class="c0"/>
<circle cx="1076" cy="896" r="6" class="c0"/>
<circle cx="970" cy="750" r="6" class="c0"/>
<circle cx="790" cy="804" r="6" class="c0"/>
<circle cx="886" cy="1002" r="6" class="c0"/>
<circle cx="830" cy="1010" r="6" class="c0"/>
<circle cx="1044" cy="602" r="6" class="c0"/>
<circle cx="846" cy="836" r="6" class="c0"/>
<circle cx="1086" cy="606" r="6" class="c0"/>
<circle cx="972" cy="620" r="6" class="c0"/>
<circle cx="780" cy="652" r="6" class="c0"/>
<circle cx="1046" cy="916" r="6" class="c0"/>
<circle cx="652" cy="774" r="6" class="c0"/>
<circle cx="658" cy="758" r="6" class="c0"/>
<circle cx="1224" cy="632" r="6" class="c0"/>
<circle cx="910" cy="630" r="6" class="c0"/>
<circle cx="838" cy="616" r="6" class="c0"/>
<circle cx="704" cy="758" r="6" class="c0"/>
<circle cx="770" cy="718" r="6" class="c0"/>
<circle cx="866" cy="998" r="6" class="c0"/>
<circle cx="738" cy="846" r="6" class="c0"/>
<circle cx="742" cy="900" r="6" class="c0"/>
<circle cx="942" cy="806" r="6" class="c0"/>
<circle cx="854" cy="714" r="6" class="c0"/>
<circle cx="956" cy="886" r="6" class="c0"/>
<circle cx="862" cy="974" r="6" class="c0"/>
<circle cx="832" cy="814" r="6" class="c0"/>
<circle cx="720" cy="842" r="6" class="c0"/>
<circle cx="754" cy="842" r="6" class="c0"/>
<circle cx="908" cy="790" r="6" class="c0"/>
<circle cx="804" cy="1002" r="6" class="c0"/>
<circle cx="816" cy="596" r="6" class="c0"/>
<circle cx="1192" cy="724" r="6" class="c0"/>
<circle cx="712" cy="748" r="6" class="c0"/>
<circle cx="804" cy="626" r="6" class="c0"/>
<circle cx="1050" cy="996" r="6" class="c0"/>
<circle cx="780" cy="768" r="6" class="c0"/>
<circle cx="852" cy="1076" r="6" class="c0"/>
<circle cx="854" cy="1042" r="6" class="c0"/>
<circle cx="874" cy="930" r="6" class="c0"/>
<circle cx="744" cy="672" r="6" class="c0"/>
<circle cx="876" cy="1056" r="6" class="c0"/>
<circle cx="1134" cy="718" r="6" class="c0"/>
<circle cx="890" cy="958" r="6" class="c0"/>
<circle cx="1024" cy="730" r="6" class="c0"/>
<circle cx="774" cy="978" r="6" class="c0"/>
<circle cx="942" cy="770" r="6" class="c0"/>
<circle cx="1068" cy="928" r="6" class="c0"/>
<circle cx="922" cy="890" r="6" class="c0"/>
<circle cx="1012" cy="612" r="6" class="c0"/>
<circle cx="818" cy="718" r="6" class="c0"/>
<circle cx="1114" cy="824" r="6" class="c0"/>
<circle cx="890" cy="882" r="6" class="c0"/>
<circle cx="748" cy="596" r="6" class="c0"/>
<circle cx="866" cy="898" r="6" class="c0"/>
<circle cx="640" cy="652" r="6" class="c0"/>
<circle cx="694" cy="826" r="6" class="c0"/>
<circle cx="678" cy="790" r="6" class="c0"/>
<circle cx="1010" cy="912" r="6" class="c0"/>
<circle cx="1194" cy="764" r="6" class="c0"/>
<circle cx="886" cy="584" r="6" class="c0"/>
<circle cx="664" cy="826" r="6" class="c0"/>
<circle cx="1022" cy="1058" r="6" class="c0"/>
<circle cx="678" cy="686" r="6" class="c0"/>
<circle cx="928" cy="1010" r="6" class="c0"/>
<circle cx="1032" cy="942" r="6" class="c0"/>
<circle cx="1160" cy="710" r="6" class="c0"/>
<circle cx="938" cy="652" r="6" class="c0"/>
<circle cx="1024" cy="1008" r="6" class="c0"/>
<circle cx="964" cy="628" r="6" class="c0"/>
<circle cx="1030" cy="664" r="6" class="c0"/>
<circle cx="1034" cy="594" r="6" class="c0"/>
<circle cx="974" cy="1028" r="6" class="c0"/>
<circle cx="792" cy="774" r="6" class="c0"/>
<circle cx="772" cy="1030" r="6" class="c0"/>
<circle cx="716" cy="636" r="6" class="c0"/>
<circle cx="834" cy="882" r="6" class="c0"/>
<circle cx="782" cy="1038" r="6" class="c0"/>
<circle cx="736" cy="870" r="6" class="c0"/>
<circle cx="668" cy="670" r="6" class="c0"/>
<circle cx="770" cy="694" r="6" class="c0"/>
<circle cx="912" cy="1050" r="6" class="c0"/>
<circle cx="1060" cy="918" r="6" class="c0"/>
<circle cx="860" cy="936" r="6" class="c0"/>
<circle cx="1164" cy="646" r="6" class="c0"/>
<circle cx="904" cy="852" r="6" class="c0"/>
<circle cx="830" cy="764" r="6" class="c0"/>
<circle cx="954" cy="764" r="6" class="c0"/>
<circle cx="920" cy="814" r="6" class="c0"/>
<circle cx="744" cy="802" r="6" class="c0"/>
<circle cx="712" cy="604" r="6" class="c0"/>
<circle cx="862" cy="700" r="6" class="c0"/>
<circle cx="1058" cy="686" r="6" class="c0"/>
<circle cx="1160" cy="598" r="6" class="c0"/>
<circle cx="1000" cy="834" r="6" class="c0"/>
<circle cx="912" cy="722" r="6" class="c0"/>
<circle cx="836" cy="978" r="6" class="c0"/>
<circle cx="772" cy="760" r="6" class="c0"/>
<circle cx="960" cy="800" r="6" class="c0"/>
<circle cx="934" cy="792" r="6" class="c0"/>
<circle cx="776" cy="606" r="6" class="c0"/>
<circle cx="1038" cy="958" r="6" class="c0"/>
<circle cx="1100" cy="682" r="6" class="c0"/>
<circle cx="898" cy="762" r="6" class="c0"/>
<circle cx="1062" cy="630" r="6" class="c0"/>
<circle cx="778" cy="930" r="6" class="c0"/>
<circle cx="992" cy="998" r="6" class="c0"/>
<circle cx="770" cy="922" r="6" class="c0"/>
<circle cx="1026" cy="1044" r="6" class="c0"/>
<circle cx="686" cy="616" r="6" class="c0"/>
<circle cx="1042" cy="930" r="6" class="c0"/>
<circle cx="816" cy="1008" r="6" class="c0"/>
<circle cx="1000" cy="922" r="6" class="c0"/>
<circle cx="838" cy="916" r="6" class="c0"/>
<circle cx="822" cy="888" r="6" class="c0"/>
<circle cx="754" cy="734" r="6" class="c0"/>
<circle cx="876" cy="816" r="6" class="c0"/>
<circle cx="770" cy="1054" r="6" class="c0"/>
<circle cx="944" cy="1078" r="6" class="c0"/>
<circle cx="1038" cy="1052" r="6" class="c0"/>
<circle cx="804" cy="920" r="6" class="c0"/>
<circle cx="722" cy="900" r="6" class="c0"/>
<circle cx="1012" cy="886" r="6" class="c0"/>
<circle cx="1158" cy="806" r="6" class="c0"/>
<circle cx="840" cy="720" r="6" class="c0"/>
<circle cx="1022" cy="808" r="6" class="c0"/>
<circle cx="892" cy="910" r="6" class="c0"/>
<circle cx="1172" cy="780" r="6" class="c0"/>
<circle cx="630" cy="742" r="6" class="c0"/>
<circle cx="992" cy="876" r="6" class="c0"/>
<circle cx="866" cy="1070" r="6" class="c0"/>
<circle cx="962" cy="870" r="6" class="c0"/>
<circle cx="942" cy="608" r="6" class="c0"/>
<circle cx="642" cy="782" r="6" class="c0"/>
<circle cx="728" cy="832" r="6" class="c0"/>
<circle cx="848" cy="870" r="6" class="c0"/>
<circle cx="958" cy="650" r="6" class="c0"/>
<circle cx="658" cy="738" r="6" class="c0"/>
<circle cx="848" cy="850" r="6" class="c0"/>
<circle cx="1004" cy="812" r="6" class="c0"/>
<circle cx="766" cy="986" r="6" class="c0"/>
<circle cx="946" cy="980" r="6" class="c0"/>
<circle cx="1160" cy="836" r="6" class="c0"/>
<circle cx="676" cy="836" r="6" class="c0"/>
<circle cx="826" cy="604" r="6" class="c0"/>
<circle cx="1110" cy="626" r="6" class="c0"/>
<circle cx="1170" cy="586" r="6" class="c0"/>
<circle cx="808" cy="862" r="6" class="c0"/>
<circle cx="992" cy="844" r="6" class="c0"/>
<circle cx="1194" cy="606" r="6" class="c0"/>
<circle cx="882" cy="918" r="6" class="c0"/>
<circle cx="714" cy="802" r="6" class="c0"/>
<circle cx="728" cy="880" r="6" class="c0"/>
<circle cx="954" cy="1062" r="6" class="c0"/>
<circle cx="916" cy="610" r="6" class="c0"/>
<circle cx="1032" cy="816" r="6" class="c0"/>
<circle cx="912" cy="904" r="6" class="c0"/>
<circle cx="798" cy="848" r="6" class="c0"/>
<circle cx="666" cy="750" r="6" class="c0"/>
</svg>
