<?xml version="1.0" encoding="utf-8"?>
<svg xmlns="http://www.w3.org/2000/svg"
     xmlns:xlink="http://www.w3.org/1999/xlink" width="1920" height="1440" >

            <defs>
            <style type="text/css"><![CDATA[
circle {stroke: none;}
.c0 {fill: #000000;}
]]></style>
            </defs>
<rect x="0" y="0" width="1920" height="1440" fill="white"/>
<circle cx="838" cy="954" r="12" class="c0"/>
<circle cx="974" cy="954" r="12" class="c0"/>
<circle cx="796" cy="630" r="12" class="c0"/>
<circle cx="1108" cy="566" r="12" class="c0"/>
<circle cx="920" cy="790" r="12" class="c0"/>
<circle cx="804" cy="692" r="12" class="c0"/>
<circle cx="896" cy="624" r="12" class="c0"/>
<circle cx="1000" cy="814" r="12" class="c0"/>
<circle cx="814" cy="788" r="12" class="c0"/>
<circle cx="944" cy="512" r="12" class="c0"/>
<circle cx="1180" cy="558" r="12" class="c0"/>
<circle cx="736" cy="662" r="12" class="c0"/>
<circle cx="1052" cy="690" r="12" class="c0"/>
<circle cx="1122" cy="730" r="12" class="c0"/>
<circle cx="812" cy="894" r="12" class="c0"/>
<circle cx="996" cy="852" r="12" class="c0"/>
<circle cx="760" cy="522" r="12" class="c0"/>
<circle cx="1182" cy="594" r="12" class="c0"/>
<circle cx="962" cy="894" r="12" class="c0"/>
<circle cx="656" cy="562" r="12" class="c0"/>
<circle cx="1082" cy="644" r="12" class="c0"/>
<circle cx="900" cy="882" r="12" class="c0"/>
<circle cx="838" cy="750" r="12" class="c0"/>
<circle cx="804" cy="842" r="12" class="c0"/>
<circle cx="692" cy="666" r="12" class="c0"/>
<circle cx="1028" cy="600" r="12" class="c0"/>
<circle cx="864" cy="822" r="12" class="c0"/>
<circle cx="944" cy="568" r="12" class="c0"/>
<circle cx="830" cy="810" r="12" class="c0"/>
<circle cx="992" cy="530" r="12" class="c0"/>
<circle cx="1022" cy="570" r="10" class="c0"/>
<circle cx="786" cy="794" r="10" class="c0"/>
<circle cx="882" cy="810" r="10" class="c0"/>
<circle cx="1038" cy="810" r="10" class="c0"/>
<circle cx="956" cy="612" r="10" class="c0"/>
<circle cx="868" cy="934" r="10" class="c0"/>
<circle cx="954" cy="826" r="10" class="c0"/>
<circle cx="976" cy="778" r="10" class="c0"/>
<circle cx="864" cy="678" r="10" class="c0"/>
<circle cx="876" cy="960" r="10" class="c0"/>
<circle cx="664" cy="668" r="10" class="c0"/>
<circle cx="952" cy="698" r="10" class="c0"/>
<circle cx="696" cy="636" r="10" class="c0"/>
<circle cx="1172" cy="530" r="10" class="c0"/>
<circle cx="790" cy="540" r="10" class="c0"/>
<circle cx="928" cy="762" r="10" class="c0"/>
<circle cx="788" cy="608" r="10" class="c0"/>
<circle cx="1222" cy="528" r="10" class="c0"/>
<circle cx="768" cy="814" r="10" class="c0"/>
<circle cx="846" cy="528" r="10" class="c0"/>
<circle cx="1000" cy="924" r="10" class="c0"/>
<circle cx="1006" cy="640" r="10" class="c0"/>
<circle cx="934" cy="726" r="10" class="c0"/>
<circle cx="1222" cy="636" r="10" class="c0"/>
<circle cx="708" cy="610" r="10" class="c0"/>
<circle cx="756" cy="728" r="10" class="c0"/>
<circle cx="1040" cy="966" r="10" class="c0"/>
<circle cx="858" cy="506" r="10" class="c0"/>
<circle cx="1060" cy="722" r="10" class="c0"/>
<circle cx="1054" cy="568" r="10" class="c0"/>
<circle cx="918" cy="922" r="10" class="c0"/>
<circle cx="860" cy="790" r="10" class="c0"/>
<circle cx="990" cy="748" r="10" class="c0"/>
<circle cx="884" cy="528" r="10" class="c0"/>
<circle cx="862" cy="644" r="10" class="c0"/>
<circle cx="826" cy="594" r="10" class="c0"/>
<circle cx="1068" cy="556" r="10" class="c0"/>
<circle cx="914" cy="944" r="10" class="c0"/>
<circle cx="1098" cy="670" r="10" class="c0"/>
<circle cx="1020" cy="950" r="10" class="c0"/>
<circle cx="1044" cy="928" r="10" class="c0"/>
<circle cx="942" cy="864" r="10" class="c0"/>
<circle cx="734" cy="754" r="10" class="c0"/>
<circle cx="1150" cy="720" r="10" class="c0"/>
<circle cx="1028" cy="834" r="10" class="c0"/>
<circle cx="794" cy="670" r="10" class="c0"/>
<circle cx="1144" cy="612" r="10" class="c0"/>
<circle cx="984" cy="688" r="10" class="c0"/>
<circle cx="898" cy="686" r="10" class="c0"/>
<circle cx="1180" cy="658" r="10" class="c0"/>
<circle cx="1106" cy="762" r="10" class="c0"/>
<circle cx="744" cy="696" r="10" class="c0"/>
<circle cx="1050" cy="762" r="10" class="c0"/>
<circle cx="714" cy="680" r="10" class="c0"/>
<circle cx="996" cy="708" r="10" class="c0"/>
<circle cx="950" cy="794" r="10" class="c0"/>
<circle cx="1028" cy="896" r="10" class="c0"/>
<circle cx="1112" cy="596" r="10" class="c0"/>
<circle cx="708" cy="542" r="10" class="c0"/>
<circle cx="884" cy="504" r="10" class="c0"/>
<circle cx="860" cy="594" r="10" class="c0"/>
<circle cx="714" cy="712" r="10" class="c0"/>
<circle cx="974" cy="834" r="10" class="c0"/>
<circle cx="1024" cy="874" r="10" class="c0"/>
<circle cx="704" cy="576" r="10" class="c0"/>
<circle cx="760" cy="664" r="10" class="c0"/>
<circle cx="1190" cy="512" r="10" class="c0"/>
<circle cx="788" cy="918" r="10" class="c0"/>
<circle cx="1208" cy="614" r="10" class="c0"/>
<circle cx="1234" cy="550" r="10" class="c0"/>
<circle cx="1148" cy="672" r="10" class="c0"/>
<circle cx="1046" cy="518" r="10" class="c0"/>
<circle cx="914" cy="698" r="10" class="c0"/>
<circle cx="884" cy="584" r="10" class="c0"/>
<circle cx="864" cy="768" r="10" class="c0"/>
<circle cx="724" cy="644" r="10" class="c0"/>
<circle cx="980" cy="512" r="10" class="c0"/>
<circle cx="918" cy="642" r="10" class="c0"/>
<circle cx="760" cy="586" r="10" class="c0"/>
<circle cx="838" cy="668" r="10" class="c0"/>
<circle cx="1188" cy="712" r="10" class="c0"/>
<circle cx="924" cy="536" r="10" class="c0"/>
<circle cx="930" cy="838" r="10" class="c0"/>
<circle cx="966" cy="592" r="10" class="c0"/>
<circle cx="1084" cy="790" r="10" class="c0"/>
<circle cx="1062" cy="530" r="10" class="c0"/>
<circle cx="932" cy="664" r="10" class="c0"/>
<circle cx="1048" cy="642" r="10" class="c0"/>
<circle cx="802" cy="866" r="10" class="c0"/>
<circle cx="1128" cy="628" r="10" class="c0"/>
<circle cx="1014" cy="796" r="10" class="c0"/>
<circle cx="1172" cy="622" r="10" class="c0"/>
<circle cx="788" cy="878" r="10" class="c0"/>
<circle cx="674" cy="606" r="10" class="c0"/>
<circle cx="1062" cy="852" r="10" class="c0"/>
<circle cx="908" cy="580" r="10" class="c0"/>
<circle cx="1118" cy="532" r="10" class="c0"/>
<circle cx="1062" cy="594" r="10" class="c0"/>
<circle cx="764" cy="762" r="10" class="c0"/>
<circle cx="932" cy="900" r="10" class="c0"/>
<circle cx="838" cy="860" r="10" class="c0"/>
<circle cx="1190" cy="684" r="10" class="c0"/>
<circle cx="762" cy="554" r="10" class="c0"/>
<circle cx="1122" cy="700" r="10" class="c0"/>
<circle cx="852" cy="574" r="10" class="c0"/>
<circle cx="882" cy="910" r="10" class="c0"/>
<circle cx="672" cy="648" r="10" class="c0"/>
<circle cx="654" cy="600" r="8" class="c0"/>
<circle cx="1026" cy="524" r="8" class="c0"/>
<circle cx="798" cy="764" r="8" class="c0"/>
<circle cx="722" cy="594" r="8" class="c0"/>
<circle cx="910" cy="846" r="8" class="c0"/>
<circle cx="816" cy="650" r="8" class="c0"/>
<circle cx="824" cy="540" r="8" class="c0"/>
<circle cx="728" cy="534" r="8" class="c0"/>
<circle cx="1072" cy="810" r="8" class="c0"/>
<circle cx="910" cy="968" r="8" class="c0"/>
<circle cx="796" cy="568" r="8" class="c0"/>
<circle cx="940" cy="646" r="8" class="c0"/>
<circle cx="848" cy="928" r="8" class="c0"/>
<circle cx="1176" cy="742" r="8" class="c0"/>
<circle cx="1032" cy="662" r="8" class="c0"/>
<circle cx="834" cy="772" r="8" class="c0"/>
<circle cx="1084" cy="578" r="8" class="c0"/>
<circle cx="1146" cy="762" r="8" class="c0"/>
<circle cx="1134" cy="578" r="8" class="c0"/>
<circle cx="930" cy="608" r="8" class="c0"/>
<circle cx="1078" cy="732" r="8" class="c0"/>
<circle cx="826" cy="512" r="8" class="c0"/>
<circle cx="1052" cy="876" r="8" class="c0"/>
<circle cx="1140" cy="652" r="8" class="c0"/>
<circle cx="978" cy="578" r="8" class="c0"/>
<circle cx="1172" cy="692" r="8" class="c0"/>
<circle cx="1060" cy="800" r="8" class="c0"/>
<circle cx="1074" cy="772" r="8" class="c0"/>
<circle cx="880" cy="732" r="8" class="c0"/>
<circle cx="968" cy="810" r="8" class="c0"/>
<circle cx="912" cy="818" r="8" class="c0"/>
<circle cx="1050" cy="608" r="8" class="c0"/>
<circle cx="1114" cy="788" r="8" class="c0"/>
<circle cx="782" cy="690" r="8" class="c0"/>
<circle cx="836" cy="564" r="8" class="c0"/>
<circle cx="1090" cy="598" r="8" class="c0"/>
<circle cx="1002" cy="964" r="8" class="c0"/>
<circle cx="894" cy="720" r="8" class="c0"/>
<circle cx="1212" cy="654" r="8" class="c0"/>
<circle cx="1002" cy="876" r="8" class="c0"/>
<circle cx="812" cy="526" r="8" class="c0"/>
<circle cx="1044" cy="738" r="8" class="c0"/>
<circle cx="812" cy="822" r="8" class="c0"/>
<circle cx="986" cy="900" r="8" class="c0"/>
<circle cx="994" cy="618" r="8" class="c0"/>
<circle cx="744" cy="606" r="8" class="c0"/>
<circle cx="1014" cy="620" r="8" class="c0"/>
<circle cx="1032" cy="706" r="8" class="c0"/>
<circle cx="952" cy="942" r="8" class="c0"/>
<circle cx="914" cy="744" r="8" class="c0"/>
<circle cx="702" cy="730" r="8" class="c0"/>
<circle cx="1020" cy="674" r="8" class="c0"/>
<circle cx="1036" cy="554" r="8" class="c0"/>
<circle cx="880" cy="708" r="8" class="c0"/>
<circle cx="822" cy="630" r="8" class="c0"/>
<circle cx="726" cy="574" r="8" class="c0"/>
<circle cx="648" cy="638" r="8" class="c0"/>
<circle cx="794" cy="514" r="8" class="c0"/>
<circle cx="998" cy="776" r="8" class="c0"/>
<circle cx="896" cy="928" r="8" class="c0"/>
<circle cx="1004" cy="660" r="8" class="c0"/>
<circle cx="1104" cy="710" r="8" class="c0"/>
<circle cx="978" cy="638" r="8" class="c0"/>
<circle cx="1012" cy="552" r="8" class="c0"/>
<circle cx="848" cy="690" r="8" class="c0"/>
<circle cx="744" cy="772" r="8" class="c0"/>
<circle cx="780" cy="590" r="8" class="c0"/>
<circle cx="954" cy="748" r="8" class="c0"/>
<circle cx="1244" cy="580" r="8" class="c0"/>
<circle cx="858" cy="916" r="8" class="c0"/>
<circle cx="882" cy="848" r="8" class="c0"/>
<circle cx="804" cy="738" r="8" class="c0"/>
<circle cx="976" cy="924" r="8" class="c0"/>
<circle cx="930" cy="960" r="8" class="c0"/>
<circle cx="758" cy="616" r="8" class="c0"/>
<circle cx="1084" cy="534" r="8" class="c0"/>
<circle cx="906" cy="668" r="8" class="c0"/>
<circle cx="946" cy="916" r="8" class="c0"/>
<circle cx="1026" cy="632" r="8" class="c0"/>
<circle cx="1154" cy="542" r="8" class="c0"/>
<circle cx="858" cy="546" r="8" class="c0"/>
<circle cx="970" cy="864" r="8" class="c0"/>
<circle cx="950" cy="672" r="8" class="c0"/>
<circle cx="930" cy="684" r="8" class="c0"/>
<circle cx="1112" cy="638" r="8" class="c0"/>
<circle cx="818" cy="946" r="8" class="c0"/>
<circle cx="1006" cy="512" r="8" class="c0"/>
<circle cx="866" cy="868" r="8" class="c0"/>
<circle cx="1024" cy="920" r="8" class="c0"/>
<circle cx="1234" cy="596" r="8" class="c0"/>
<circle cx="1070" cy="828" r="8" class="c0"/>
<circle cx="892" cy="560" r="8" class="c0"/>
<circle cx="960" cy="852" r="8" class="c0"/>
<circle cx="828" cy="712" r="8" class="c0"/>
<circle cx="808" cy="606" r="8" class="c0"/>
<circle cx="1066" cy="748" r="8" class="c0"/>
<circle cx="880" cy="668" r="8" class="c0"/>
<circle cx="956" cy="728" r="8" class="c0"/>
<circle cx="978" cy="722" r="8" class="c0"/>
<circle cx="952" cy="976" r="8" class="c0"/>
<circle cx="1128" cy="756" r="8" class="c0"/>
<circle cx="1006" cy="592" r="8" class="c0"/>
<circle cx="970" cy="660" r="8" class="c0"/>
<circle cx="686" cy="542" r="8" class="c0"/>
<circle cx="1118" cy="656" r="8" class="c0"/>
<circle cx="832" cy="834" r="8" class="c0"/>
<circle cx="854" cy="888" r="8" class="c0"/>
<circle cx="776" cy="712" r="8" class="c0"/>
<circle cx="736" cy="624" r="8" class="c0"/>
<circle cx="1196" cy="634" r="8" class="c0"/>
<circle cx="676" cy="690" r="8" class="c0"/>
<circle cx="982" cy="798" r="8" class="c0"/>
<circle cx="902" cy="762" r="8" class="c0"/>
<circle cx="926" cy="498" r="8" class="c0"/>
<circle cx="888" cy="648" r="8" class="c0"/>
<circle cx="950" cy="772" r="8" class="c0"/>
<circle cx="892" cy="780" r="8" class="c0"/>
<circle cx="778" cy="854" r="8" class="c0"/>
<circle cx="880" cy="758" r="8" class="c0"/>
<circle cx="682" cy="708" r="8" class="c0"/>
<circle cx="814" cy="672" r="8" class="c0"/>
<circle cx="970" cy="550" r="8" class="c0"/>
<circle cx="982" cy="606" r="8" class="c0"/>
<circle cx="1026" cy="748" r="8" class="c0"/>
<circle cx="784" cy="748" r="8" class="c0"/>
<circle cx="770" cy="646" r="8" class="c0"/>
<circle cx="786" cy="944" r="8" class="c0"/>
<circle cx="710" cy="752" r="8" class="c0"/>
<circle cx="786" cy="822" r="8" class="c0"/>
<circle cx="858" cy="720" r="8" class="c0"/>
<circle cx="904" cy="530" r="8" class="c0"/>
<circle cx="736" cy="734" r="8" class="c0"/>
<circle cx="766" cy="790" r="8" class="c0"/>
<circle cx="674" cy="552" r="8" class="c0"/>
<circle cx="1092" cy="700" r="8" class="c0"/>
<circle cx="1016" cy="770" r="8" class="c0"/>
<circle cx="1072" cy="616" r="8" class="c0"/>
<circle cx="748" cy="802" r="8" class="c0"/>
<circle cx="830" cy="880" r="8" class="c0"/>
<circle cx="982" cy="980" r="8" class="c0"/>
<circle cx="1074" cy="694" r="8" class="c0"/>
<circle cx="808" cy="966" r="8" class="c0"/>
<circle cx="1156" cy="596" r="8" class="c0"/>
<circle cx="1170" cy="576" r="8" class="c0"/>
<circle cx="828" cy="930" r="8" class="c0"/>
<circle cx="738" cy="558" r="8" class="c0"/>
<circle cx="680" cy="730" r="8" class="c0"/>
<circle cx="680" cy="582" r="8" class="c0"/>
<circle cx="1154" cy="568" r="8" class="c0"/>
<circle cx="764" cy="684" r="8" class="c0"/>
<circle cx="956" cy="528" r="8" class="c0"/>
<circle cx="1192" cy="574" r="8" class="c0"/>
<circle cx="706" cy="778" r="8" class="c0"/>
<circle cx="1038" cy="580" r="8" class="c0"/>
<circle cx="860" cy="744" r="8" class="c0"/>
<circle cx="1168" cy="646" r="8" class="c0"/>
<circle cx="876" cy="890" r="8" class="c0"/>
<circle cx="778" cy="776" r="8" class="c0"/>
<circle cx="1128" cy="666" r="8" class="c0"/>
<circle cx="1014" cy="694" r="8" class="c0"/>
<circle cx="1090" cy="618" r="8" class="c0"/>
<circle cx="652" cy="684" r="8" class="c0"/>
<circle cx="836" cy="902" r="8" class="c0"/>
<circle cx="800" cy="932" r="8" class="c0"/>
<circle cx="740" cy="588" r="8" class="c0"/>
<circle cx="904" cy="550" r="8" class="c0"/>
<circle cx="938" cy="932" r="8" class="c0"/>
<circle cx="1036" cy="774" r="8" class="c0"/>
<circle cx="1102" cy="544" r="8" class="c0"/>
<circle cx="904" cy="734" r="8" class="c0"/>
<circle cx="918" cy="872" r="8" class="c0"/>
<circle cx="1220" cy="578" r="8" class="c0"/>
<circle cx="1034" cy="858" r="8" class="c0"/>
<circle cx="1086" cy="820" r="8" class="c0"/>
<circle cx="1112" cy="684" r="8" class="c0"/>
<circle cx="878" cy="550" r="8" class="c0"/>
<circle cx="908" cy="496" r="8" class="c0"/>
<circle cx="688" cy="562" r="8" class="c0"/>
<circle cx="940" cy="598" r="8" class="c0"/>
<circle cx="986" cy="562" r="8" class="c0"/>
<circle cx="1056" cy="666" r="8" class="c0"/>
<circle cx="646" cy="580" r="8" class="c0"/>
<circle cx="1080" cy="842" r="8" class="c0"/>
<circle cx="722" cy="768" r="8" class="c0"/>
<circle cx="840" cy="610" r="8" class="c0"/>
<circle cx="1084" cy="684" r="8" class="c0"/>
<circle cx="872" cy="618" r="8" class="c0"/>
<circle cx="1206" cy="588" r="8" class="c0"/>
<circle cx="644" cy="616" r="8" class="c0"/>
<circle cx="1092" cy="750" r="8" class="c0"/>
<circle cx="734" cy="784" r="8" class="c0"/>
<circle cx="798" cy="954" r="8" class="c0"/>
<circle cx="852" cy="838" r="8" class="c0"/>
<circle cx="1052" cy="832" r="8" class="c0"/>
<circle cx="812" cy="550" r="8" class="c0"/>
<circle cx="840" cy="644" r="8" class="c0"/>
<circle cx="906" cy="910" r="8" class="c0"/>
<circle cx="706" cy="652" r="8" class="c0"/>
<circle cx="690" cy="594" r="8" class="c0"/>
<circle cx="1146" cy="698" r="8" class="c0"/>
<circle cx="1052" cy="900" r="8" class="c0"/>
<circle cx="964" cy="712" r="8" class="c0"/>
<circle cx="1136" cy="688" r="8" class="c0"/>
<circle cx="800" cy="806" r="8" class="c0"/>
<circle cx="1094" cy="720" r="8" class="c0"/>
<circle cx="922" cy="562" r="8" class="c0"/>
<circle cx="1022" cy="726" r="8" class="c0"/>
<circle cx="1124" cy="778" r="8" class="c0"/>
<circle cx="1162" cy="732" r="8" class="c0"/>
<circle cx="780" cy="730" r="8" class="c0"/>
<circle cx="1130" cy="558" r="8" class="c0"/>
<circle cx="892" cy="834" r="8" class="c0"/>
<circle cx="892" cy="860" r="8" class="c0"/>
<circle cx="960" cy="500" r="8" class="c0"/>
<circle cx="938" cy="810" r="8" class="c0"/>
<circle cx="664" cy="628" r="8" class="c0"/>
<circle cx="814" cy="918" r="8" class="c0"/>
<circle cx="702" cy="694" r="8" class="c0"/>
<circle cx="1152" cy="632" r="8" class="c0"/>
<circle cx="1046" cy="540" r="8" class="c0"/>
<circle cx="822" cy="762" r="8" class="c0"/>
<circle cx="1056" cy="954" r="8" class="c0"/>
<circle cx="816" cy="574" r="8" class="c0"/>
<circle cx="692" cy="740" r="8" class="c0"/>
<circle cx="906" cy="600" r="8" class="c0"/>
<circle cx="1012" cy="738" r="8" class="c0"/>
<circle cx="776" cy="932" r="8" class="c0"/>
<circle cx="1020" cy="972" r="8" class="c0"/>
<circle cx="1110" cy="620" r="8" class="c0"/>
<circle cx="664" cy="712" r="8" class="c0"/>
<circle cx="1040" cy="618" r="8" class="c0"/>
<circle cx="808" cy="502" r="8" class="c0"/>
<circle cx="1214" cy="508" r="8" class="c0"/>
<circle cx="854" cy="620" r="8" class="c0"/>
<circle cx="1162" cy="708" r="8" class="c0"/>
<circle cx="748" cy="638" r="8" class="c0"/>
<circle cx="1132" cy="600" r="8" class="c0"/>
<circle cx="1098" cy="522" r="8" class="c0"/>
<circle cx="860" cy="700" r="8" class="c0"/>
<circle cx="1090" cy="556" r="8" class="c0"/>
<circle cx="914" cy="514" r="6" class="c0"/>
<circle cx="798" cy="594" r="6" class="c0"/>
<circle cx="736" cy="520" r="6" class="c0"/>
<circle cx="890" cy="604" r="6" class="c0"/>
<circle cx="834" cy="496" r="6" class="c0"/>
<circle cx="894" cy="950" r="6" class="c0"/>
<circle cx="768" cy="630" r="6" class="c0"/>
<circle cx="854" cy="944" r="6" class="c0"/>
<circle cx="858" cy="854" r="6" class="c0"/>
<circle cx="766" cy="744" r="6" class="c0"/>
<circle cx="646" cy="656" r="6" class="c0"/>
<circle cx="1198" cy="668" r="6" class="c0"/>
<circle cx="842" cy="792" r="6" class="c0"/>
<circle cx="1218" cy="600" r="6" class="c0"/>
<circle cx="830" cy="696" r="6" class="c0"/>
<circle cx="1204" cy="700" r="6" class="c0"/>
<circle cx="944" cy="884" r="6" class="c0"/>
<circle cx="872" cy="572" r="6" class="c0"/>
<circle cx="962" cy="646" r="6" class="c0"/>
<circle cx="998" cy="676" r="6" class="c0"/>
<circle cx="864" cy="526" r="6" class="c0"/>
<circle cx="1036" cy="680" r="6" class="c0"/>
<circle cx="972" cy="622" r="6" class="c0"/>
<circle cx="720" cy="558" r="6" class="c0"/>
<circle cx="1024" cy="540" r="6" class="c0"/>
<circle cx="1058" cy="782" r="6" class="c0"/>
<circle cx="1140" cy="740" r="6" class="c0"/>
<circle cx="1038" cy="790" r="6" class="c0"/>
<circle cx="1074" cy="712" r="6" class="c0"/>
<circle cx="796" cy="722" r="6" class="c0"/>
<circle cx="1008" cy="894" r="6" class="c0"/>
<circle cx="1110" cy="744" r="6" class="c0"/>
<circle cx="1234" cy="620" r="6" class="c0"/>
<circle cx="1234" cy="516" r="6" class="c0"/>
<circle cx="786" cy="898" r="6" class="c0"/>
<circle cx="1134" cy="542" r="6" class="c0"/>
<circle cx="1066" cy="656" r="6" class="c0"/>
<circle cx="964" cy="680" r="6" class="c0"/>
<circle cx="858" cy="964" r="6" class="c0"/>
<circle cx="720" cy="622" r="6" class="c0"/>
<circle cx="1080" cy="664" r="6" class="c0"/>
<circle cx="956" cy="632" r="6" class="c0"/>
<circle cx="900" cy="512" r="6" class="c0"/>
<circle cx="1158" cy="750" r="6" class="c0"/>
<circle cx="726" cy="694" r="6" class="c0"/>
<circle cx="818" cy="746" r="6" class="c0"/>
<circle cx="820" cy="868" r="6" class="c0"/>
<circle cx="998" cy="942" r="6" class="c0"/>
<circle cx="778" cy="510" r="6" class="c0"/>
<circle cx="892" cy="748" r="6" class="c0"/>
<circle cx="852" cy="808" r="6" class="c0"/>
<circle cx="738" cy="718" r="6" class="c0"/>
<circle cx="1012" cy="716" r="6" class="c0"/>
<circle cx="718" cy="732" r="6" class="c0"/>
<circle cx="1244" cy="530" r="6" class="c0"/>
<circle cx="916" cy="720" r="6" class="c0"/>
<circle cx="898" cy="798" r="6" class="c0"/>
<circle cx="1072" cy="514" r="6" class="c0"/>
<circle cx="1100" cy="584" r="6" class="c0"/>
<circle cx="806" cy="712" r="6" class="c0"/>
<circle cx="924" cy="624" r="6" class="c0"/>
<circle cx="1094" cy="776" r="6" class="c0"/>
<circle cx="814" cy="728" r="6" class="c0"/>
<circle cx="942" cy="548" r="6" class="c0"/>
<circle cx="746" cy="510" r="6" class="c0"/>
<circle cx="1022" cy="650" r="6" class="c0"/>
<circle cx="990" cy="652" r="6" class="c0"/>
<circle cx="774" cy="834" r="6" class="c0"/>
<circle cx="884" cy="984" r="6" class="c0"/>
<circle cx="990" cy="590" r="6" class="c0"/>
<circle cx="894" cy="970" r="6" class="c0"/>
<circle cx="780" cy="560" r="6" class="c0"/>
<circle cx="932" cy="632" r="6" class="c0"/>
<circle cx="896" cy="704" r="6" class="c0"/>
<circle cx="1040" cy="720" r="6" class="c0"/>
<circle cx="780" cy="658" r="6" class="c0"/>
<circle cx="704" cy="522" r="6" class="c0"/>
<circle cx="744" cy="536" r="6" class="c0"/>
<circle cx="774" cy="618" r="6" class="c0"/>
<circle cx="838" cy="724" r="6" class="c0"/>
<circle cx="968" cy="568" r="6" class="c0"/>
<circle cx="976" cy="758" r="6" class="c0"/>
<circle cx="828" cy="682" r="6" class="c0"/>
<circle cx="774" cy="904" r="6" class="c0"/>
<circle cx="930" cy="882" r="6" class="c0"/>
<circle cx="958" cy="874" r="6" class="c0"/>
<circle cx="1000" cy="728" r="6" class="c0"/>
<circle cx="866" cy="902" r="6" class="c0"/>
<circle cx="788" cy="650" r="6" class="c0"/>
<circle cx="1032" cy="508" r="6" class="c0"/>
<circle cx="840" cy="548" r="6" class="c0"/>
<circle cx="1004" cy="566" r="6" class="c0"/>
<circle cx="916" cy="984" r="6" class="c0"/>
<circle cx="924" cy="856" r="6" class="c0"/>
<circle cx="850" cy="656" r="6" class="c0"/>
<circle cx="686" cy="618" r="6" class="c0"/>
<circle cx="960" cy="926" r="6" class="c0"/>
<circle cx="1002" cy="982" r="6" class="c0"/>
<circle cx="928" cy="586" r="6" class="c0"/>
<circle cx="988" cy="668" r="6" class="c0"/>
<circle cx="974" cy="880" r="6" class="c0"/>
<circle cx="754" cy="710" r="6" class="c0"/>
<circle cx="872" cy="516" r="6" class="c0"/>
<circle cx="1196" cy="530" r="6" class="c0"/>
<circle cx="848" cy="710" r="6" class="c0"/>
<circle cx="850" cy="734" r="6" class="c0"/>
<circle cx="984" cy="938" r="6" class="c0"/>
<circle cx="1094" cy="806" r="6" class="c0"/>
<circle cx="878" cy="788" r="6" class="c0"/>
<circle cx="944" cy="626" r="6" class="c0"/>
<circle cx="1198" cy="550" r="6" class="c0"/>
<circle cx="1056" cy="816" r="6" class="c0"/>
<circle cx="952" cy="656" r="6" class="c0"/>
<circle cx="876" cy="692" r="6" class="c0"/>
<circle cx="886" cy="940" r="6" class="c0"/>
<circle cx="772" cy="536" r="6" class="c0"/>
<circle cx="732" cy="682" r="6" class="c0"/>
<circle cx="1008" cy="832" r="6" class="c0"/>
<circle cx="1100" cy="736" r="6" class="c0"/>
<circle cx="936" cy="744" r="6" class="c0"/>
<circle cx="1066" cy="634" r="6" class="c0"/>
<circle cx="796" cy="986" r="6" class="c0"/>
<circle cx="748" cy="574" r="6" class="c0"/>
<circle cx="840" cy="978" r="6" class="c0"/>
<circle cx="808" cy="754" r="6" class="c0"/>
<circle cx="822" cy="850" r="6" class="c0"/>
<circle cx="1214" cy="670" r="6" class="c0"/>
<circle cx="792" cy="708" r="6" class="c0"/>
<circle cx="692" cy="718" r="6" class="c0"/>
<circle cx="1226" cy="610" r="6" class="c0"/>
<circle cx="1038" cy="948" r="6" class="c0"/>
<circle cx="1232" cy="568" r="6" class="c0"/>
<circle cx="998" cy="578" r="6" class="c0"/>
<circle cx="696" cy="530" r="6" class="c0"/>
<circle cx="1214" cy="562" r="6" class="c0"/>
<circle cx="1060" cy="936" r="6" class="c0"/>
<circle cx="850" cy="872" r="6" class="c0"/>
<circle cx="968" cy="740" r="6" class="c0"/>
<circle cx="664" cy="590" r="6" class="c0"/>
<circle cx="966" cy="914" r="6" class="c0"/>
<circle cx="862" cy="984" r="6" class="c0"/>
<circle cx="770" cy="600" r="6" class="c0"/>
<circle cx="1168" cy="672" r="6" class="c0"/>
<circle cx="1156" cy="656" r="6" class="c0"/>
<circle cx="882" cy="872" r="6" class="c0"/>
<circle cx="932" cy="706" r="6" class="c0"/>
<circle cx="720" cy="518" r="6" class="c0"/>
<circle cx="914" cy="894" r="6" class="c0"/>
<circle cx="1020" cy="850" r="6" class="c0"/>
<circle cx="942" cy="986" r="6" class="c0"/>
<circle cx="962" cy="762" r="6" class="c0"/>
<circle cx="930" cy="980" r="6" class="c0"/>
<circle cx="1174" cy="722" r="6" class="c0"/>
<circle cx="866" cy="560" r="6" class="c0"/>
<circle cx="1008" cy="756" r="6" class="c0"/>
<circle cx="752" cy="746" r="6" class="c0"/>
<circle cx="1070" cy="674" r="6" class="c0"/>
<circle cx="842" cy="824" r="6" class="c0"/>
<circle cx="766" cy="700" r="6" class="c0"/>
<circle cx="1026" cy="784" r="6" class="c0"/>
<circle cx="1014" cy="908" r="6" class="c0"/>
<circle cx="698" cy="762" r="6" class="c0"/>
<circle cx="1112" cy="812" r="6" class="c0"/>
<circle cx="824" cy="614" r="6" class="c0"/>
<circle cx="780" cy="966" r="6" class="c0"/>
<circle cx="746" cy="678" r="6" class="c0"/>
<circle cx="1102" cy="652" r="6" class="c0"/>
<circle cx="826" cy="734" r="6" class="c0"/>
<circle cx="1058" cy="624" r="6" class="c0"/>
<circle cx="1136" cy="710" r="6" class="c0"/>
<circle cx="1156" cy="688" r="6" class="c0"/>
<circle cx="984" cy="872" r="6" class="c0"/>
<circle cx="946" cy="958" r="6" class="c0"/>
<circle cx="936" cy="780" r="6" class="c0"/>
<circle cx="1122" cy="610" r="6" class="c0"/>
<circle cx="780" cy="524" r="6" class="c0"/>
<circle cx="838" cy="918" r="6" class="c0"/>
<circle cx="992" cy="500" r="6" class="c0"/>
<circle cx="770" cy="572" r="6" class="c0"/>
<circle cx="1170" cy="758" r="6" class="c0"/>
<circle cx="1020" cy="818" r="6" class="c0"/>
<circle cx="876" cy="634" r="6" class="c0"/>
<circle cx="776" cy="672" r="6" class="c0"/>
<circle cx="996" cy="550" r="6" class="c0"/>
<circle cx="1044" cy="846" r="6" class="c0"/>
<circle cx="822" cy="974" r="6" class="c0"/>
<circle cx="768" cy="868" r="6" class="c0"/>
<circle cx="1020" cy="990" r="6" class="c0"/>
<circle cx="992" cy="832" r="6" class="c0"/>
<circle cx="1060" cy="916" r="6" class="c0"/>
<circle cx="904" cy="652" r="6" class="c0"/>
<circle cx="1016" cy="502" r="6" class="c0"/>
<circle cx="914" cy="614" r="6" class="c0"/>
<circle cx="1188" cy="614" r="6" class="c0"/>
</svg>
