<?xml version="1.0" encoding="utf-8"?>
<svg xmlns="http://www.w3.org/2000/svg"
     xmlns:xlink="http://www.w3.org/1999/xlink" width="1920" height="1440" >

            <defs>
            <style type="text/css"><![CDATA[
circle {stroke: none;}
.c0 {fill: #000000;}
]]></style>
            </defs>
<rect x="0" y="0" width="1920" height="1440" fill="white"/>
<circle cx="1034" cy="492" r="12" class="c0"/>
<circle cx="952" cy="564" r="12" class="c0"/>
<circle cx="946" cy="224" r="12" class="c0"/>
<circle cx="898" cy="146" r="12" class="c0"/>
<circle cx="864" cy="378" r="12" class="c0"/>
<circle cx="954" cy="300" r="12" class="c0"/>
<circle cx="1062" cy="334" r="12" class="c0"/>
<circle cx="936" cy="406" r="12" class="c0"/>
<circle cx="952" cy="358" r="12" class="c0"/>
<circle cx="1040" cy="568" r="12" class="c0"/>
<circle cx="1002" cy="284" r="12" class="c0"/>
<circle cx="838" cy="172" r="12" class="c0"/>
<circle cx="872" cy="286" r="12" class="c0"/>
<circle cx="768" cy="170" r="12" class="c0"/>
<circle cx="990" cy="262" r="12" class="c0"/>
<circle cx="878" cy="404" r="12" class="c0"/>
<circle cx="1180" cy="298" r="12" class="c0"/>
<circle cx="858" cy="552" r="12" class="c0"/>
<circle cx="1030" cy="322" r="12" class="c0"/>
<circle cx="882" cy="260" r="12" class="c0"/>
<circle cx="972" cy="184" r="12" class="c0"/>
<circle cx="1086" cy="164" r="12" class="c0"/>
<circle cx="1142" cy="356" r="12" class="c0"/>
<circle cx="710" cy="326" r="12" class="c0"/>
<circle cx="788" cy="406" r="12" class="c0"/>
<circle cx="906" cy="234" r="12" class="c0"/>
<circle cx="890" cy="198" r="12" class="c0"/>
<circle cx="920" cy="352" r="12" class="c0"/>
<circle cx="1118" cy="312" r="12" class="c0"/>
<circle cx="830" cy="366" r="12" class="c0"/>
<circle cx="970" cy="460" r="12" class="c0"/>
<circle cx="1164" cy="328" r="12" class="c0"/>
<circle cx="742" cy="286" r="12" class="c0"/>
<circle cx="1084" cy="288" r="12" class="c0"/>
<circle cx="780" cy="378" r="12" class="c0"/>
<circle cx="916" cy="578" r="12" class="c0"/>
<circle cx="1220" cy="300" r="12" class="c0"/>
<circle cx="898" cy="368" r="12" class="c0"/>
<circle cx="888" cy="326" r="12" class="c0"/>
<circle cx="1024" cy="208" r="10" class="c0"/>
<circle cx="860" cy="114" r="10" class="c0"/>
<circle cx="880" cy="460" r="10" class="c0"/>
<circle cx="998" cy="468" r="10" class="c0"/>
<circle cx="1144" cy="162" r="10" class="c0"/>
<circle cx="1100" cy="182" r="10" class="c0"/>
<circle cx="966" cy="532" r="10" class="c0"/>
<circle cx="806" cy="552" r="10" class="c0"/>
<circle cx="1016" cy="356" r="10" class="c0"/>
<circle cx="726" cy="150" r="10" class="c0"/>
<circle cx="958" cy="126" r="10" class="c0"/>
<circle cx="1214" cy="248" r="10" class="c0"/>
<circle cx="906" cy="522" r="10" class="c0"/>
<circle cx="804" cy="112" r="10" class="c0"/>
<circle cx="692" cy="304" r="10" class="c0"/>
<circle cx="712" cy="224" r="10" class="c0"/>
<circle cx="816" cy="434" r="10" class="c0"/>
<circle cx="814" cy="488" r="10" class="c0"/>
<circle cx="1054" cy="146" r="10" class="c0"/>
<circle cx="988" cy="324" r="10" class="c0"/>
<circle cx="1200" cy="324" r="10" class="c0"/>
<circle cx="938" cy="494" r="10" class="c0"/>
<circle cx="1184" cy="344" r="10" class="c0"/>
<circle cx="1184" cy="216" r="10" class="c0"/>
<circle cx="1226" cy="224" r="10" class="c0"/>
<circle cx="1194" cy="270" r="10" class="c0"/>
<circle cx="942" cy="184" r="10" class="c0"/>
<circle cx="828" cy="216" r="10" class="c0"/>
<circle cx="1058" cy="236" r="10" class="c0"/>
<circle cx="942" cy="462" r="10" class="c0"/>
<circle cx="718" cy="170" r="10" class="c0"/>
<circle cx="864" cy="242" r="10" class="c0"/>
<circle cx="742" cy="324" r="10" class="c0"/>
<circle cx="1066" cy="306" r="10" class="c0"/>
<circle cx="1334" cy="228" r="10" class="c0"/>
<circle cx="1030" cy="372" r="10" class="c0"/>
<circle cx="1076" cy="206" r="10" class="c0"/>
<circle cx="842" cy="472" r="10" class="c0"/>
<circle cx="750" cy="356" r="10" class="c0"/>
<circle cx="1008" cy="410" r="10" class="c0"/>
<circle cx="1106" cy="424" r="10" class="c0"/>
<circle cx="1046" cy="522" r="10" class="c0"/>
<circle cx="926" cy="534" r="10" class="c0"/>
<circle cx="782" cy="252" r="10" class="c0"/>
<circle cx="1022" cy="448" r="10" class="c0"/>
<circle cx="796" cy="198" r="10" class="c0"/>
<circle cx="954" cy="148" r="10" class="c0"/>
<circle cx="858" cy="144" r="10" class="c0"/>
<circle cx="964" cy="252" r="10" class="c0"/>
<circle cx="816" cy="282" r="10" class="c0"/>
<circle cx="1068" cy="380" r="10" class="c0"/>
<circle cx="978" cy="518" r="10" class="c0"/>
<circle cx="780" cy="428" r="10" class="c0"/>
<circle cx="784" cy="336" r="10" class="c0"/>
<circle cx="1008" cy="332" r="10" class="c0"/>
<circle cx="1044" cy="360" r="10" class="c0"/>
<circle cx="1112" cy="148" r="10" class="c0"/>
<circle cx="1098" cy="354" r="10" class="c0"/>
<circle cx="996" cy="370" r="10" class="c0"/>
<circle cx="934" cy="288" r="10" class="c0"/>
<circle cx="1138" cy="266" r="10" class="c0"/>
<circle cx="922" cy="434" r="10" class="c0"/>
<circle cx="774" cy="294" r="10" class="c0"/>
<circle cx="940" cy="516" r="10" class="c0"/>
<circle cx="752" cy="250" r="10" class="c0"/>
<circle cx="1010" cy="560" r="10" class="c0"/>
<circle cx="956" cy="438" r="10" class="c0"/>
<circle cx="1200" cy="234" r="10" class="c0"/>
<circle cx="744" cy="182" r="10" class="c0"/>
<circle cx="1072" cy="132" r="10" class="c0"/>
<circle cx="810" cy="156" r="10" class="c0"/>
<circle cx="1082" cy="428" r="10" class="c0"/>
<circle cx="1310" cy="286" r="10" class="c0"/>
<circle cx="1104" cy="258" r="10" class="c0"/>
<circle cx="802" cy="454" r="10" class="c0"/>
<circle cx="918" cy="264" r="10" class="c0"/>
<circle cx="1044" cy="432" r="10" class="c0"/>
<circle cx="874" cy="586" r="10" class="c0"/>
<circle cx="808" cy="260" r="10" class="c0"/>
<circle cx="786" cy="156" r="10" class="c0"/>
<circle cx="1046" cy="284" r="10" class="c0"/>
<circle cx="828" cy="316" r="10" class="c0"/>
<circle cx="908" cy="122" r="10" class="c0"/>
<circle cx="690" cy="188" r="10" class="c0"/>
<circle cx="1120" cy="284" r="10" class="c0"/>
<circle cx="1264" cy="336" r="10" class="c0"/>
<circle cx="1322" cy="254" r="10" class="c0"/>
<circle cx="1112" cy="388" r="10" class="c0"/>
<circle cx="1010" cy="512" r="10" class="c0"/>
<circle cx="1130" cy="402" r="10" class="c0"/>
<circle cx="1172" cy="192" r="10" class="c0"/>
<circle cx="814" cy="228" r="10" class="c0"/>
<circle cx="768" cy="232" r="10" class="c0"/>
<circle cx="1180" cy="378" r="10" class="c0"/>
<circle cx="910" cy="388" r="10" class="c0"/>
<circle cx="1160" cy="246" r="10" class="c0"/>
<circle cx="1054" cy="476" r="10" class="c0"/>
<circle cx="1112" cy="198" r="10" class="c0"/>
<circle cx="1094" cy="236" r="10" class="c0"/>
<circle cx="774" cy="318" r="10" class="c0"/>
<circle cx="920" cy="302" r="10" class="c0"/>
<circle cx="808" cy="346" r="10" class="c0"/>
<circle cx="990" cy="218" r="10" class="c0"/>
<circle cx="1020" cy="398" r="10" class="c0"/>
<circle cx="972" cy="388" r="10" class="c0"/>
<circle cx="842" cy="448" r="10" class="c0"/>
<circle cx="994" cy="542" r="10" class="c0"/>
<circle cx="978" cy="116" r="10" class="c0"/>
<circle cx="840" cy="278" r="10" class="c0"/>
<circle cx="1080" cy="456" r="10" class="c0"/>
<circle cx="976" cy="292" r="10" class="c0"/>
<circle cx="1004" cy="142" r="8" class="c0"/>
<circle cx="838" cy="300" r="8" class="c0"/>
<circle cx="966" cy="328" r="8" class="c0"/>
<circle cx="846" cy="568" r="8" class="c0"/>
<circle cx="1308" cy="308" r="8" class="c0"/>
<circle cx="918" cy="210" r="8" class="c0"/>
<circle cx="1064" cy="492" r="8" class="c0"/>
<circle cx="908" cy="468" r="8" class="c0"/>
<circle cx="1024" cy="272" r="8" class="c0"/>
<circle cx="808" cy="322" r="8" class="c0"/>
<circle cx="1020" cy="476" r="8" class="c0"/>
<circle cx="890" cy="490" r="8" class="c0"/>
<circle cx="978" cy="490" r="8" class="c0"/>
<circle cx="846" cy="412" r="8" class="c0"/>
<circle cx="1146" cy="204" r="8" class="c0"/>
<circle cx="978" cy="552" r="8" class="c0"/>
<circle cx="1120" cy="180" r="8" class="c0"/>
<circle cx="692" cy="238" r="8" class="c0"/>
<circle cx="936" cy="372" r="8" class="c0"/>
<circle cx="1224" cy="266" r="8" class="c0"/>
<circle cx="904" cy="276" r="8" class="c0"/>
<circle cx="970" cy="414" r="8" class="c0"/>
<circle cx="1154" cy="418" r="8" class="c0"/>
<circle cx="1248" cy="218" r="8" class="c0"/>
<circle cx="928" cy="556" r="8" class="c0"/>
<circle cx="1298" cy="194" r="8" class="c0"/>
<circle cx="856" cy="430" r="8" class="c0"/>
<circle cx="1036" cy="248" r="8" class="c0"/>
<circle cx="1148" cy="282" r="8" class="c0"/>
<circle cx="864" cy="192" r="8" class="c0"/>
<circle cx="1048" cy="126" r="8" class="c0"/>
<circle cx="680" cy="222" r="8" class="c0"/>
<circle cx="702" cy="268" r="8" class="c0"/>
<circle cx="704" cy="136" r="8" class="c0"/>
<circle cx="838" cy="332" r="8" class="c0"/>
<circle cx="780" cy="524" r="8" class="c0"/>
<circle cx="1074" cy="404" r="8" class="c0"/>
<circle cx="956" cy="198" r="8" class="c0"/>
<circle cx="1004" cy="114" r="8" class="c0"/>
<circle cx="986" cy="578" r="8" class="c0"/>
<circle cx="824" cy="462" r="8" class="c0"/>
<circle cx="950" cy="336" r="8" class="c0"/>
<circle cx="908" cy="176" r="8" class="c0"/>
<circle cx="838" cy="120" r="8" class="c0"/>
<circle cx="864" cy="524" r="8" class="c0"/>
<circle cx="940" cy="266" r="8" class="c0"/>
<circle cx="1204" cy="214" r="8" class="c0"/>
<circle cx="918" cy="104" r="8" class="c0"/>
<circle cx="728" cy="236" r="8" class="c0"/>
<circle cx="1092" cy="328" r="8" class="c0"/>
<circle cx="1080" cy="252" r="8" class="c0"/>
<circle cx="1138" cy="304" r="8" class="c0"/>
<circle cx="892" cy="112" r="8" class="c0"/>
<circle cx="1034" cy="144" r="8" class="c0"/>
<circle cx="1126" cy="222" r="8" class="c0"/>
<circle cx="704" cy="292" r="8" class="c0"/>
<circle cx="1050" cy="454" r="8" class="c0"/>
<circle cx="1048" cy="172" r="8" class="c0"/>
<circle cx="840" cy="236" r="8" class="c0"/>
<circle cx="1022" cy="122" r="8" class="c0"/>
<circle cx="944" cy="110" r="8" class="c0"/>
<circle cx="1014" cy="154" r="8" class="c0"/>
<circle cx="836" cy="144" r="8" class="c0"/>
<circle cx="1214" cy="364" r="8" class="c0"/>
<circle cx="884" cy="548" r="8" class="c0"/>
<circle cx="792" cy="498" r="8" class="c0"/>
<circle cx="1120" cy="364" r="8" class="c0"/>
<circle cx="1040" cy="396" r="8" class="c0"/>
<circle cx="890" cy="168" r="8" class="c0"/>
<circle cx="864" cy="314" r="8" class="c0"/>
<circle cx="998" cy="188" r="8" class="c0"/>
<circle cx="1064" cy="270" r="8" class="c0"/>
<circle cx="1096" cy="406" r="8" class="c0"/>
<circle cx="770" cy="272" r="8" class="c0"/>
<circle cx="994" cy="168" r="8" class="c0"/>
<circle cx="934" cy="240" r="8" class="c0"/>
<circle cx="872" cy="440" r="8" class="c0"/>
<circle cx="814" cy="304" r="8" class="c0"/>
<circle cx="942" cy="160" r="8" class="c0"/>
<circle cx="1062" cy="442" r="8" class="c0"/>
<circle cx="1014" cy="232" r="8" class="c0"/>
<circle cx="792" cy="276" r="8" class="c0"/>
<circle cx="722" cy="294" r="8" class="c0"/>
<circle cx="1052" cy="190" r="8" class="c0"/>
<circle cx="1176" cy="236" r="8" class="c0"/>
<circle cx="852" cy="494" r="8" class="c0"/>
<circle cx="1308" cy="220" r="8" class="c0"/>
<circle cx="904" cy="312" r="8" class="c0"/>
<circle cx="968" cy="208" r="8" class="c0"/>
<circle cx="720" cy="344" r="8" class="c0"/>
<circle cx="1236" cy="254" r="8" class="c0"/>
<circle cx="736" cy="220" r="8" class="c0"/>
<circle cx="820" cy="512" r="8" class="c0"/>
<circle cx="1288" cy="330" r="8" class="c0"/>
<circle cx="812" cy="184" r="8" class="c0"/>
<circle cx="796" cy="360" r="8" class="c0"/>
<circle cx="908" cy="500" r="8" class="c0"/>
<circle cx="1078" cy="184" r="8" class="c0"/>
<circle cx="1020" cy="186" r="8" class="c0"/>
<circle cx="1116" cy="240" r="8" class="c0"/>
<circle cx="984" cy="426" r="8" class="c0"/>
<circle cx="1106" cy="218" r="8" class="c0"/>
<circle cx="1024" cy="526" r="8" class="c0"/>
<circle cx="756" cy="200" r="8" class="c0"/>
<circle cx="732" cy="198" r="8" class="c0"/>
<circle cx="678" cy="200" r="8" class="c0"/>
<circle cx="1196" cy="368" r="8" class="c0"/>
<circle cx="1058" cy="418" r="8" class="c0"/>
<circle cx="926" cy="472" r="8" class="c0"/>
<circle cx="840" cy="510" r="8" class="c0"/>
<circle cx="1280" cy="202" r="8" class="c0"/>
<circle cx="962" cy="276" r="8" class="c0"/>
<circle cx="860" cy="336" r="8" class="c0"/>
<circle cx="1250" cy="350" r="8" class="c0"/>
<circle cx="878" cy="514" r="8" class="c0"/>
<circle cx="1100" cy="450" r="8" class="c0"/>
<circle cx="820" cy="130" r="8" class="c0"/>
<circle cx="708" cy="202" r="8" class="c0"/>
<circle cx="1022" cy="548" r="8" class="c0"/>
<circle cx="748" cy="376" r="8" class="c0"/>
<circle cx="1156" cy="226" r="8" class="c0"/>
<circle cx="812" cy="410" r="8" class="c0"/>
<circle cx="1132" cy="426" r="8" class="c0"/>
<circle cx="1002" cy="594" r="8" class="c0"/>
<circle cx="778" cy="128" r="8" class="c0"/>
<circle cx="758" cy="116" r="8" class="c0"/>
<circle cx="934" cy="138" r="8" class="c0"/>
<circle cx="1038" cy="464" r="8" class="c0"/>
<circle cx="1092" cy="140" r="8" class="c0"/>
<circle cx="1006" cy="430" r="8" class="c0"/>
<circle cx="998" cy="498" r="8" class="c0"/>
<circle cx="994" cy="348" r="8" class="c0"/>
<circle cx="878" cy="124" r="8" class="c0"/>
<circle cx="998" cy="308" r="8" class="c0"/>
<circle cx="806" cy="378" r="8" class="c0"/>
<circle cx="730" cy="270" r="8" class="c0"/>
<circle cx="1126" cy="332" r="8" class="c0"/>
<circle cx="734" cy="132" r="8" class="c0"/>
<circle cx="880" cy="346" r="8" class="c0"/>
<circle cx="822" cy="394" r="8" class="c0"/>
<circle cx="778" cy="190" r="8" class="c0"/>
<circle cx="684" cy="166" r="8" class="c0"/>
<circle cx="896" cy="418" r="8" class="c0"/>
<circle cx="1054" cy="504" r="8" class="c0"/>
<circle cx="1056" cy="212" r="8" class="c0"/>
<circle cx="1214" cy="200" r="8" class="c0"/>
<circle cx="1154" cy="398" r="8" class="c0"/>
<circle cx="1030" cy="418" r="8" class="c0"/>
<circle cx="1162" cy="366" r="8" class="c0"/>
<circle cx="884" cy="228" r="8" class="c0"/>
<circle cx="986" cy="150" r="8" class="c0"/>
<circle cx="892" cy="302" r="8" class="c0"/>
<circle cx="830" cy="248" r="8" class="c0"/>
<circle cx="1014" cy="258" r="8" class="c0"/>
<circle cx="1026" cy="294" r="8" class="c0"/>
<circle cx="974" cy="594" r="8" class="c0"/>
<circle cx="828" cy="342" r="8" class="c0"/>
<circle cx="858" cy="222" r="8" class="c0"/>
<circle cx="1140" cy="238" r="8" class="c0"/>
<circle cx="1192" cy="194" r="8" class="c0"/>
<circle cx="822" cy="194" r="8" class="c0"/>
<circle cx="1146" cy="182" r="8" class="c0"/>
<circle cx="820" cy="538" r="8" class="c0"/>
<circle cx="922" cy="164" r="8" class="c0"/>
<circle cx="918" cy="490" r="8" class="c0"/>
<circle cx="696" cy="156" r="8" class="c0"/>
<circle cx="746" cy="162" r="8" class="c0"/>
<circle cx="846" cy="530" r="8" class="c0"/>
<circle cx="1204" cy="288" r="8" class="c0"/>
<circle cx="1018" cy="578" r="8" class="c0"/>
<circle cx="980" cy="240" r="8" class="c0"/>
<circle cx="752" cy="308" r="8" class="c0"/>
<circle cx="718" cy="254" r="8" class="c0"/>
<circle cx="826" cy="110" r="8" class="c0"/>
<circle cx="1094" cy="308" r="8" class="c0"/>
<circle cx="942" cy="586" r="8" class="c0"/>
<circle cx="850" cy="204" r="8" class="c0"/>
<circle cx="686" cy="260" r="8" class="c0"/>
<circle cx="1224" cy="326" r="8" class="c0"/>
<circle cx="976" cy="354" r="8" class="c0"/>
<circle cx="936" cy="318" r="8" class="c0"/>
<circle cx="916" cy="192" r="8" class="c0"/>
<circle cx="852" cy="254" r="8" class="c0"/>
<circle cx="994" cy="132" r="8" class="c0"/>
<circle cx="1316" cy="198" r="8" class="c0"/>
<circle cx="756" cy="144" r="8" class="c0"/>
<circle cx="858" cy="356" r="8" class="c0"/>
<circle cx="892" cy="436" r="8" class="c0"/>
<circle cx="902" cy="552" r="8" class="c0"/>
<circle cx="914" cy="408" r="8" class="c0"/>
<circle cx="954" cy="172" r="8" class="c0"/>
<circle cx="974" cy="140" r="8" class="c0"/>
<circle cx="790" cy="542" r="8" class="c0"/>
<circle cx="846" cy="392" r="8" class="c0"/>
<circle cx="874" cy="180" r="8" class="c0"/>
<circle cx="1232" cy="360" r="8" class="c0"/>
<circle cx="1326" cy="276" r="8" class="c0"/>
<circle cx="864" cy="474" r="8" class="c0"/>
<circle cx="758" cy="336" r="8" class="c0"/>
<circle cx="800" cy="138" r="8" class="c0"/>
<circle cx="866" cy="164" r="8" class="c0"/>
<circle cx="1212" cy="382" r="8" class="c0"/>
<circle cx="1258" cy="204" r="8" class="c0"/>
<circle cx="1148" cy="316" r="8" class="c0"/>
<circle cx="1004" cy="244" r="8" class="c0"/>
<circle cx="848" cy="346" r="8" class="c0"/>
<circle cx="1152" cy="378" r="8" class="c0"/>
<circle cx="1008" cy="384" r="8" class="c0"/>
<circle cx="802" cy="522" r="8" class="c0"/>
<circle cx="690" cy="212" r="8" class="c0"/>
<circle cx="1110" cy="340" r="8" class="c0"/>
<circle cx="1028" cy="590" r="8" class="c0"/>
<circle cx="1132" cy="380" r="8" class="c0"/>
<circle cx="966" cy="502" r="8" class="c0"/>
<circle cx="992" cy="400" r="8" class="c0"/>
<circle cx="784" cy="218" r="8" class="c0"/>
<circle cx="1028" cy="168" r="8" class="c0"/>
<circle cx="960" cy="404" r="8" class="c0"/>
<circle cx="1132" cy="192" r="8" class="c0"/>
<circle cx="894" cy="574" r="8" class="c0"/>
<circle cx="690" cy="282" r="8" class="c0"/>
<circle cx="1090" cy="378" r="8" class="c0"/>
<circle cx="828" cy="564" r="8" class="c0"/>
<circle cx="918" cy="456" r="8" class="c0"/>
<circle cx="1068" cy="356" r="8" class="c0"/>
<circle cx="894" cy="536" r="8" class="c0"/>
<circle cx="922" cy="328" r="8" class="c0"/>
<circle cx="766" cy="396" r="8" class="c0"/>
<circle cx="1234" cy="286" r="8" class="c0"/>
<circle cx="774" cy="208" r="6" class="c0"/>
<circle cx="1072" cy="224" r="6" class="c0"/>
<circle cx="900" cy="342" r="6" class="c0"/>
<circle cx="952" cy="418" r="6" class="c0"/>
<circle cx="1166" cy="264" r="6" class="c0"/>
<circle cx="742" cy="118" r="6" class="c0"/>
<circle cx="1126" cy="160" r="6" class="c0"/>
<circle cx="946" cy="386" r="6" class="c0"/>
<circle cx="1042" cy="204" r="6" class="c0"/>
<circle cx="794" cy="230" r="6" class="c0"/>
<circle cx="882" cy="564" r="6" class="c0"/>
<circle cx="846" cy="318" r="6" class="c0"/>
<circle cx="1042" cy="228" r="6" class="c0"/>
<circle cx="856" cy="270" r="6" class="c0"/>
<circle cx="1166" cy="166" r="6" class="c0"/>
<circle cx="794" cy="292" r="6" class="c0"/>
<circle cx="1050" cy="316" r="6" class="c0"/>
<circle cx="1172" cy="396" r="6" class="c0"/>
<circle cx="938" cy="442" r="6" class="c0"/>
<circle cx="1008" cy="486" r="6" class="c0"/>
<circle cx="904" cy="446" r="6" class="c0"/>
<circle cx="828" cy="416" r="6" class="c0"/>
<circle cx="964" cy="104" r="6" class="c0"/>
<circle cx="932" cy="200" r="6" class="c0"/>
<circle cx="862" cy="508" r="6" class="c0"/>
<circle cx="1080" cy="316" r="6" class="c0"/>
<circle cx="866" cy="208" r="6" class="c0"/>
<circle cx="1088" cy="268" r="6" class="c0"/>
<circle cx="708" cy="244" r="6" class="c0"/>
<circle cx="898" cy="400" r="6" class="c0"/>
<circle cx="972" cy="312" r="6" class="c0"/>
<circle cx="1004" cy="450" r="6" class="c0"/>
<circle cx="714" cy="280" r="6" class="c0"/>
<circle cx="1042" cy="342" r="6" class="c0"/>
<circle cx="1160" cy="292" r="6" class="c0"/>
<circle cx="750" cy="268" r="6" class="c0"/>
<circle cx="874" cy="488" r="6" class="c0"/>
<circle cx="1082" cy="344" r="6" class="c0"/>
<circle cx="966" cy="230" r="6" class="c0"/>
<circle cx="954" cy="476" r="6" class="c0"/>
<circle cx="944" cy="538" r="6" class="c0"/>
<circle cx="1130" cy="250" r="6" class="c0"/>
<circle cx="788" cy="174" r="6" class="c0"/>
<circle cx="986" cy="442" r="6" class="c0"/>
<circle cx="1182" cy="174" r="6" class="c0"/>
<circle cx="1044" cy="546" r="6" class="c0"/>
<circle cx="786" cy="470" r="6" class="c0"/>
<circle cx="836" cy="544" r="6" class="c0"/>
<circle cx="730" cy="368" r="6" class="c0"/>
<circle cx="1068" cy="156" r="6" class="c0"/>
<circle cx="1062" cy="180" r="6" class="c0"/>
<circle cx="1116" cy="438" r="6" class="c0"/>
<circle cx="844" cy="104" r="6" class="c0"/>
<circle cx="894" cy="594" r="6" class="c0"/>
<circle cx="1206" cy="342" r="6" class="c0"/>
<circle cx="832" cy="486" r="6" class="c0"/>
<circle cx="1162" cy="208" r="6" class="c0"/>
<circle cx="834" cy="580" r="6" class="c0"/>
<circle cx="744" cy="234" r="6" class="c0"/>
<circle cx="794" cy="308" r="6" class="c0"/>
<circle cx="866" cy="570" r="6" class="c0"/>
<circle cx="876" cy="140" r="6" class="c0"/>
<circle cx="928" cy="596" r="6" class="c0"/>
<circle cx="800" cy="476" r="6" class="c0"/>
<circle cx="974" cy="162" r="6" class="c0"/>
<circle cx="720" cy="310" r="6" class="c0"/>
<circle cx="676" cy="250" r="6" class="c0"/>
<circle cx="776" cy="108" r="6" class="c0"/>
<circle cx="700" cy="252" r="6" class="c0"/>
<circle cx="1050" cy="258" r="6" class="c0"/>
<circle cx="988" cy="198" r="6" class="c0"/>
<circle cx="838" cy="428" r="6" class="c0"/>
<circle cx="1178" cy="254" r="6" class="c0"/>
<circle cx="772" cy="350" r="6" class="c0"/>
<circle cx="750" cy="392" r="6" class="c0"/>
<circle cx="964" cy="578" r="6" class="c0"/>
<circle cx="708" cy="184" r="6" class="c0"/>
<circle cx="738" cy="344" r="6" class="c0"/>
<circle cx="1088" cy="218" r="6" class="c0"/>
<circle cx="1288" cy="312" r="6" class="c0"/>
<circle cx="1032" cy="512" r="6" class="c0"/>
<circle cx="1108" cy="296" r="6" class="c0"/>
<circle cx="830" cy="524" r="6" class="c0"/>
<circle cx="782" cy="508" r="6" class="c0"/>
<circle cx="860" cy="458" r="6" class="c0"/>
<circle cx="752" cy="218" r="6" class="c0"/>
<circle cx="920" cy="148" r="6" class="c0"/>
<circle cx="1016" cy="306" r="6" class="c0"/>
<circle cx="1194" cy="388" r="6" class="c0"/>
<circle cx="934" cy="340" r="6" class="c0"/>
<circle cx="798" cy="430" r="6" class="c0"/>
<circle cx="934" cy="100" r="6" class="c0"/>
<circle cx="826" cy="266" r="6" class="c0"/>
<circle cx="1012" cy="536" r="6" class="c0"/>
<circle cx="808" cy="570" r="6" class="c0"/>
<circle cx="854" cy="304" r="6" class="c0"/>
<circle cx="734" cy="304" r="6" class="c0"/>
<circle cx="876" cy="424" r="6" class="c0"/>
<circle cx="1158" cy="272" r="6" class="c0"/>
<circle cx="858" cy="578" r="6" class="c0"/>
<circle cx="1094" cy="204" r="6" class="c0"/>
<circle cx="1036" cy="536" r="6" class="c0"/>
<circle cx="944" cy="250" r="6" class="c0"/>
<circle cx="1164" cy="350" r="6" class="c0"/>
<circle cx="940" cy="426" r="6" class="c0"/>
<circle cx="856" cy="402" r="6" class="c0"/>
<circle cx="1274" cy="350" r="6" class="c0"/>
<circle cx="1080" cy="366" r="6" class="c0"/>
<circle cx="928" cy="118" r="6" class="c0"/>
<circle cx="894" cy="218" r="6" class="c0"/>
<circle cx="782" cy="454" r="6" class="c0"/>
<circle cx="1044" cy="588" r="6" class="c0"/>
<circle cx="1172" cy="280" r="6" class="c0"/>
<circle cx="1244" cy="274" r="6" class="c0"/>
<circle cx="1042" cy="302" r="6" class="c0"/>
<circle cx="1006" cy="204" r="6" class="c0"/>
<circle cx="874" cy="100" r="6" class="c0"/>
<circle cx="714" cy="126" r="6" class="c0"/>
<circle cx="1108" cy="166" r="6" class="c0"/>
<circle cx="962" cy="484" r="6" class="c0"/>
<circle cx="978" cy="338" r="6" class="c0"/>
<circle cx="1298" cy="298" r="6" class="c0"/>
<circle cx="1182" cy="320" r="6" class="c0"/>
<circle cx="902" cy="254" r="6" class="c0"/>
<circle cx="1100" cy="278" r="6" class="c0"/>
<circle cx="956" cy="594" r="6" class="c0"/>
<circle cx="1130" cy="146" r="6" class="c0"/>
<circle cx="1214" cy="278" r="6" class="c0"/>
<circle cx="1192" cy="252" r="6" class="c0"/>
<circle cx="956" cy="378" r="6" class="c0"/>
<circle cx="1028" cy="344" r="6" class="c0"/>
<circle cx="884" cy="382" r="6" class="c0"/>
<circle cx="876" cy="534" r="6" class="c0"/>
<circle cx="790" cy="442" r="6" class="c0"/>
<circle cx="908" cy="596" r="6" class="c0"/>
<circle cx="810" cy="210" r="6" class="c0"/>
<circle cx="1012" cy="172" r="6" class="c0"/>
<circle cx="816" cy="100" r="6" class="c0"/>
<circle cx="1050" cy="378" r="6" class="c0"/>
<circle cx="1058" cy="400" r="6" class="c0"/>
<circle cx="996" cy="522" r="6" class="c0"/>
<circle cx="1086" cy="394" r="6" class="c0"/>
<circle cx="1162" cy="308" r="6" class="c0"/>
<circle cx="902" cy="98" r="6" class="c0"/>
<circle cx="924" cy="508" r="6" class="c0"/>
<circle cx="1324" cy="214" r="6" class="c0"/>
<circle cx="768" cy="364" r="6" class="c0"/>
<circle cx="1236" cy="208" r="6" class="c0"/>
<circle cx="1274" cy="322" r="6" class="c0"/>
<circle cx="974" cy="436" r="6" class="c0"/>
<circle cx="784" cy="558" r="6" class="c0"/>
<circle cx="1228" cy="378" r="6" class="c0"/>
<circle cx="906" cy="292" r="6" class="c0"/>
<circle cx="974" cy="568" r="6" class="c0"/>
<circle cx="1270" cy="190" r="6" class="c0"/>
<circle cx="830" cy="500" r="6" class="c0"/>
<circle cx="1072" cy="478" r="6" class="c0"/>
<circle cx="894" cy="510" r="6" class="c0"/>
<circle cx="800" cy="242" r="6" class="c0"/>
<circle cx="1054" cy="556" r="6" class="c0"/>
<circle cx="864" cy="416" r="6" class="c0"/>
<circle cx="1144" cy="332" r="6" class="c0"/>
<circle cx="768" cy="414" r="6" class="c0"/>
<circle cx="878" cy="154" r="6" class="c0"/>
<circle cx="1238" cy="238" r="6" class="c0"/>
<circle cx="946" cy="602" r="6" class="c0"/>
<circle cx="1298" cy="320" r="6" class="c0"/>
<circle cx="772" cy="146" r="6" class="c0"/>
<circle cx="840" cy="194" r="6" class="c0"/>
<circle cx="1042" cy="266" r="6" class="c0"/>
<circle cx="774" cy="544" r="6" class="c0"/>
<circle cx="992" cy="562" r="6" class="c0"/>
<circle cx="1002" cy="576" r="6" class="c0"/>
<circle cx="878" cy="362" r="6" class="c0"/>
<circle cx="968" cy="368" r="6" class="c0"/>
<circle cx="852" cy="290" r="6" class="c0"/>
<circle cx="874" cy="218" r="6" class="c0"/>
<circle cx="918" cy="372" r="6" class="c0"/>
<circle cx="1036" cy="192" r="6" class="c0"/>
<circle cx="964" cy="344" r="6" class="c0"/>
<circle cx="1218" cy="348" r="6" class="c0"/>
<circle cx="1164" cy="408" r="6" class="c0"/>
<circle cx="926" cy="226" r="6" class="c0"/>
<circle cx="722" cy="360" r="6" class="c0"/>
<circle cx="988" cy="602" r="6" class="c0"/>
<circle cx="898" cy="458" r="6" class="c0"/>
<circle cx="1200" cy="304" r="6" class="c0"/>
<circle cx="854" cy="182" r="6" class="c0"/>
<circle cx="700" cy="174" r="6" class="c0"/>
<circle cx="722" cy="210" r="6" class="c0"/>
</svg>
