<?xml version="1.0" encoding="utf-8"?>
<svg xmlns="http://www.w3.org/2000/svg"
     xmlns:xlink="http://www.w3.org/1999/xlink" width="1920" height="1440" >

            <defs>
            <style type="text/css"><![CDATA[
circle {stroke: none;}
.c0 {fill: #000000;}
]]></style>
            </defs>
<rect x="0" y="0" width="1920" height="1440" fill="white"/>
<circle cx="1156" cy="272" r="12" class="c0"/>
<circle cx="982" cy="406" r="12" class="c0"/>
<circle cx="842" cy="142" r="12" class="c0"/>
<circle cx="1060" cy="86" r="12" class="c0"/>
<circle cx="1080" cy="182" r="12" class="c0"/>
<circle cx="692" cy="126" r="12" class="c0"/>
<circle cx="998" cy="316" r="12" class="c0"/>
<circle cx="760" cy="272" r="12" class="c0"/>
<circle cx="1166" cy="306" r="12" class="c0"/>
<circle cx="1118" cy="238" r="12" class="c0"/>
<circle cx="1352" cy="202" r="12" class="c0"/>
<circle cx="1162" cy="152" r="12" class="c0"/>
<circle cx="1004" cy="418" r="12" class="c0"/>
<circle cx="790" cy="286" r="12" class="c0"/>
<circle cx="1334" cy="162" r="12" class="c0"/>
<circle cx="884" cy="258" r="12" class="c0"/>
<circle cx="1012" cy="54" r="12" class="c0"/>
<circle cx="892" cy="214" r="12" class="c0"/>
<circle cx="1050" cy="146" r="12" class="c0"/>
<circle cx="840" cy="74" r="12" class="c0"/>
<circle cx="1140" cy="256" r="12" class="c0"/>
<circle cx="972" cy="190" r="12" class="c0"/>
<circle cx="764" cy="174" r="12" class="c0"/>
<circle cx="1038" cy="430" r="12" class="c0"/>
<circle cx="882" cy="98" r="12" class="c0"/>
<circle cx="1178" cy="136" r="12" class="c0"/>
<circle cx="1270" cy="300" r="12" class="c0"/>
<circle cx="906" cy="350" r="12" class="c0"/>
<circle cx="1034" cy="400" r="12" class="c0"/>
<circle cx="776" cy="340" r="12" class="c0"/>
<circle cx="1038" cy="270" r="12" class="c0"/>
<circle cx="926" cy="116" r="12" class="c0"/>
<circle cx="752" cy="30" r="12" class="c0"/>
<circle cx="898" cy="394" r="12" class="c0"/>
<circle cx="918" cy="184" r="12" class="c0"/>
<circle cx="712" cy="66" r="12" class="c0"/>
<circle cx="970" cy="378" r="12" class="c0"/>
<circle cx="1108" cy="118" r="12" class="c0"/>
<circle cx="936" cy="466" r="12" class="c0"/>
<circle cx="1122" cy="180" r="12" class="c0"/>
<circle cx="1104" cy="162" r="10" class="c0"/>
<circle cx="958" cy="350" r="10" class="c0"/>
<circle cx="788" cy="28" r="10" class="c0"/>
<circle cx="716" cy="244" r="10" class="c0"/>
<circle cx="856" cy="374" r="10" class="c0"/>
<circle cx="802" cy="332" r="10" class="c0"/>
<circle cx="1098" cy="58" r="10" class="c0"/>
<circle cx="900" cy="314" r="10" class="c0"/>
<circle cx="1200" cy="108" r="10" class="c0"/>
<circle cx="962" cy="440" r="10" class="c0"/>
<circle cx="984" cy="472" r="10" class="c0"/>
<circle cx="772" cy="140" r="10" class="c0"/>
<circle cx="1086" cy="370" r="10" class="c0"/>
<circle cx="970" cy="160" r="10" class="c0"/>
<circle cx="1062" cy="276" r="10" class="c0"/>
<circle cx="770" cy="70" r="10" class="c0"/>
<circle cx="864" cy="224" r="10" class="c0"/>
<circle cx="680" cy="92" r="10" class="c0"/>
<circle cx="796" cy="422" r="10" class="c0"/>
<circle cx="824" cy="196" r="10" class="c0"/>
<circle cx="996" cy="248" r="10" class="c0"/>
<circle cx="802" cy="246" r="10" class="c0"/>
<circle cx="1128" cy="94" r="10" class="c0"/>
<circle cx="936" cy="354" r="10" class="c0"/>
<circle cx="1060" cy="236" r="10" class="c0"/>
<circle cx="910" cy="76" r="10" class="c0"/>
<circle cx="810" cy="438" r="10" class="c0"/>
<circle cx="924" cy="438" r="10" class="c0"/>
<circle cx="1030" cy="102" r="10" class="c0"/>
<circle cx="1048" cy="198" r="10" class="c0"/>
<circle cx="886" cy="364" r="10" class="c0"/>
<circle cx="1030" cy="348" r="10" class="c0"/>
<circle cx="1040" cy="366" r="10" class="c0"/>
<circle cx="904" cy="452" r="10" class="c0"/>
<circle cx="872" cy="318" r="10" class="c0"/>
<circle cx="742" cy="240" r="10" class="c0"/>
<circle cx="886" cy="164" r="10" class="c0"/>
<circle cx="978" cy="274" r="10" class="c0"/>
<circle cx="928" cy="64" r="10" class="c0"/>
<circle cx="1136" cy="310" r="10" class="c0"/>
<circle cx="1062" cy="52" r="10" class="c0"/>
<circle cx="924" cy="10" r="10" class="c0"/>
<circle cx="694" cy="164" r="10" class="c0"/>
<circle cx="1240" cy="216" r="10" class="c0"/>
<circle cx="768" cy="298" r="10" class="c0"/>
<circle cx="1076" cy="224" r="10" class="c0"/>
<circle cx="1056" cy="174" r="10" class="c0"/>
<circle cx="836" cy="24" r="10" class="c0"/>
<circle cx="1020" cy="306" r="10" class="c0"/>
<circle cx="932" cy="492" r="10" class="c0"/>
<circle cx="1216" cy="320" r="10" class="c0"/>
<circle cx="710" cy="194" r="10" class="c0"/>
<circle cx="858" cy="92" r="10" class="c0"/>
<circle cx="768" cy="104" r="10" class="c0"/>
<circle cx="784" cy="366" r="10" class="c0"/>
<circle cx="880" cy="290" r="10" class="c0"/>
<circle cx="826" cy="284" r="10" class="c0"/>
<circle cx="678" cy="146" r="10" class="c0"/>
<circle cx="922" cy="140" r="10" class="c0"/>
<circle cx="1106" cy="262" r="10" class="c0"/>
<circle cx="1042" cy="332" r="10" class="c0"/>
<circle cx="734" cy="186" r="10" class="c0"/>
<circle cx="1168" cy="108" r="10" class="c0"/>
<circle cx="1148" cy="232" r="10" class="c0"/>
<circle cx="1206" cy="200" r="10" class="c0"/>
<circle cx="722" cy="116" r="10" class="c0"/>
<circle cx="800" cy="84" r="10" class="c0"/>
<circle cx="1010" cy="442" r="10" class="c0"/>
<circle cx="928" cy="394" r="10" class="c0"/>
<circle cx="856" cy="450" r="10" class="c0"/>
<circle cx="1238" cy="182" r="10" class="c0"/>
<circle cx="1296" cy="292" r="10" class="c0"/>
<circle cx="978" cy="64" r="10" class="c0"/>
<circle cx="968" cy="26" r="10" class="c0"/>
<circle cx="936" cy="290" r="10" class="c0"/>
<circle cx="768" cy="210" r="10" class="c0"/>
<circle cx="826" cy="256" r="10" class="c0"/>
<circle cx="864" cy="64" r="10" class="c0"/>
<circle cx="1088" cy="148" r="10" class="c0"/>
<circle cx="996" cy="174" r="10" class="c0"/>
<circle cx="808" cy="150" r="10" class="c0"/>
<circle cx="838" cy="208" r="10" class="c0"/>
<circle cx="1064" cy="372" r="10" class="c0"/>
<circle cx="1080" cy="292" r="10" class="c0"/>
<circle cx="880" cy="124" r="10" class="c0"/>
<circle cx="958" cy="72" r="10" class="c0"/>
<circle cx="1148" cy="194" r="10" class="c0"/>
<circle cx="844" cy="390" r="10" class="c0"/>
<circle cx="1242" cy="160" r="10" class="c0"/>
<circle cx="1008" cy="338" r="10" class="c0"/>
<circle cx="952" cy="316" r="10" class="c0"/>
<circle cx="1000" cy="198" r="10" class="c0"/>
<circle cx="774" cy="444" r="10" class="c0"/>
<circle cx="952" cy="242" r="10" class="c0"/>
<circle cx="900" cy="56" r="10" class="c0"/>
<circle cx="786" cy="398" r="10" class="c0"/>
<circle cx="744" cy="110" r="10" class="c0"/>
<circle cx="958" cy="208" r="10" class="c0"/>
<circle cx="916" cy="412" r="10" class="c0"/>
<circle cx="860" cy="246" r="10" class="c0"/>
<circle cx="738" cy="82" r="10" class="c0"/>
<circle cx="980" cy="298" r="10" class="c0"/>
<circle cx="1216" cy="150" r="10" class="c0"/>
<circle cx="1196" cy="284" r="10" class="c0"/>
<circle cx="792" cy="210" r="10" class="c0"/>
<circle cx="894" cy="424" r="10" class="c0"/>
<circle cx="792" cy="58" r="10" class="c0"/>
<circle cx="996" cy="488" r="10" class="c0"/>
<circle cx="1188" cy="262" r="10" class="c0"/>
<circle cx="1114" cy="142" r="10" class="c0"/>
<circle cx="906" cy="478" r="8" class="c0"/>
<circle cx="1060" cy="212" r="8" class="c0"/>
<circle cx="1356" cy="176" r="8" class="c0"/>
<circle cx="1316" cy="146" r="8" class="c0"/>
<circle cx="982" cy="444" r="8" class="c0"/>
<circle cx="832" cy="338" r="8" class="c0"/>
<circle cx="1078" cy="248" r="8" class="c0"/>
<circle cx="858" cy="270" r="8" class="c0"/>
<circle cx="988" cy="100" r="8" class="c0"/>
<circle cx="878" cy="184" r="8" class="c0"/>
<circle cx="994" cy="120" r="8" class="c0"/>
<circle cx="780" cy="186" r="8" class="c0"/>
<circle cx="872" cy="46" r="8" class="c0"/>
<circle cx="942" cy="382" r="8" class="c0"/>
<circle cx="1124" cy="294" r="8" class="c0"/>
<circle cx="862" cy="172" r="8" class="c0"/>
<circle cx="704" cy="222" r="8" class="c0"/>
<circle cx="814" cy="458" r="8" class="c0"/>
<circle cx="1188" cy="182" r="8" class="c0"/>
<circle cx="998" cy="460" r="8" class="c0"/>
<circle cx="1156" cy="326" r="8" class="c0"/>
<circle cx="984" cy="228" r="8" class="c0"/>
<circle cx="912" cy="28" r="8" class="c0"/>
<circle cx="720" cy="16" r="8" class="c0"/>
<circle cx="944" cy="150" r="8" class="c0"/>
<circle cx="1136" cy="74" r="8" class="c0"/>
<circle cx="1106" cy="306" r="8" class="c0"/>
<circle cx="954" cy="420" r="8" class="c0"/>
<circle cx="910" cy="262" r="8" class="c0"/>
<circle cx="860" cy="336" r="8" class="c0"/>
<circle cx="1170" cy="254" r="8" class="c0"/>
<circle cx="1214" cy="252" r="8" class="c0"/>
<circle cx="676" cy="68" r="8" class="c0"/>
<circle cx="782" cy="124" r="8" class="c0"/>
<circle cx="1030" cy="242" r="8" class="c0"/>
<circle cx="1014" cy="258" r="8" class="c0"/>
<circle cx="718" cy="166" r="8" class="c0"/>
<circle cx="1064" cy="124" r="8" class="c0"/>
<circle cx="710" cy="32" r="8" class="c0"/>
<circle cx="1040" cy="304" r="8" class="c0"/>
<circle cx="806" cy="312" r="8" class="c0"/>
<circle cx="848" cy="354" r="8" class="c0"/>
<circle cx="840" cy="186" r="8" class="c0"/>
<circle cx="1024" cy="182" r="8" class="c0"/>
<circle cx="808" cy="268" r="8" class="c0"/>
<circle cx="1094" cy="234" r="8" class="c0"/>
<circle cx="916" cy="382" r="8" class="c0"/>
<circle cx="848" cy="426" r="8" class="c0"/>
<circle cx="1250" cy="308" r="8" class="c0"/>
<circle cx="1096" cy="80" r="8" class="c0"/>
<circle cx="736" cy="8" r="8" class="c0"/>
<circle cx="1008" cy="150" r="8" class="c0"/>
<circle cx="730" cy="256" r="8" class="c0"/>
<circle cx="830" cy="318" r="8" class="c0"/>
<circle cx="890" cy="18" r="8" class="c0"/>
<circle cx="818" cy="380" r="8" class="c0"/>
<circle cx="1082" cy="70" r="8" class="c0"/>
<circle cx="844" cy="464" r="8" class="c0"/>
<circle cx="986" cy="42" r="8" class="c0"/>
<circle cx="1016" cy="360" r="8" class="c0"/>
<circle cx="956" cy="96" r="8" class="c0"/>
<circle cx="886" cy="484" r="8" class="c0"/>
<circle cx="994" cy="350" r="8" class="c0"/>
<circle cx="804" cy="42" r="8" class="c0"/>
<circle cx="940" cy="178" r="8" class="c0"/>
<circle cx="858" cy="480" r="8" class="c0"/>
<circle cx="924" cy="94" r="8" class="c0"/>
<circle cx="866" cy="28" r="8" class="c0"/>
<circle cx="1192" cy="224" r="8" class="c0"/>
<circle cx="816" cy="404" r="8" class="c0"/>
<circle cx="776" cy="12" r="8" class="c0"/>
<circle cx="1004" cy="132" r="8" class="c0"/>
<circle cx="956" cy="294" r="8" class="c0"/>
<circle cx="1080" cy="318" r="8" class="c0"/>
<circle cx="926" cy="246" r="8" class="c0"/>
<circle cx="1102" cy="336" r="8" class="c0"/>
<circle cx="1104" cy="210" r="8" class="c0"/>
<circle cx="1090" cy="102" r="8" class="c0"/>
<circle cx="1132" cy="276" r="8" class="c0"/>
<circle cx="830" cy="232" r="8" class="c0"/>
<circle cx="740" cy="134" r="8" class="c0"/>
<circle cx="1128" cy="344" r="8" class="c0"/>
<circle cx="1002" cy="292" r="8" class="c0"/>
<circle cx="1002" cy="268" r="8" class="c0"/>
<circle cx="972" cy="250" r="8" class="c0"/>
<circle cx="1148" cy="134" r="8" class="c0"/>
<circle cx="872" cy="440" r="8" class="c0"/>
<circle cx="804" cy="370" r="8" class="c0"/>
<circle cx="922" cy="328" r="8" class="c0"/>
<circle cx="952" cy="124" r="8" class="c0"/>
<circle cx="850" cy="314" r="8" class="c0"/>
<circle cx="812" cy="18" r="8" class="c0"/>
<circle cx="886" cy="330" r="8" class="c0"/>
<circle cx="874" cy="410" r="8" class="c0"/>
<circle cx="794" cy="8" r="8" class="c0"/>
<circle cx="804" cy="104" r="8" class="c0"/>
<circle cx="1020" cy="386" r="8" class="c0"/>
<circle cx="792" cy="456" r="8" class="c0"/>
<circle cx="692" cy="184" r="8" class="c0"/>
<circle cx="908" cy="232" r="8" class="c0"/>
<circle cx="1030" cy="456" r="8" class="c0"/>
<circle cx="968" cy="114" r="8" class="c0"/>
<circle cx="862" cy="112" r="8" class="c0"/>
<circle cx="958" cy="270" r="8" class="c0"/>
<circle cx="882" cy="466" r="8" class="c0"/>
<circle cx="778" cy="256" r="8" class="c0"/>
<circle cx="998" cy="24" r="8" class="c0"/>
<circle cx="1054" cy="352" r="8" class="c0"/>
<circle cx="914" cy="288" r="8" class="c0"/>
<circle cx="978" cy="334" r="8" class="c0"/>
<circle cx="740" cy="154" r="8" class="c0"/>
<circle cx="970" cy="494" r="8" class="c0"/>
<circle cx="1134" cy="158" r="8" class="c0"/>
<circle cx="948" cy="30" r="8" class="c0"/>
<circle cx="1220" cy="230" r="8" class="c0"/>
<circle cx="1000" cy="392" r="8" class="c0"/>
<circle cx="1022" cy="136" r="8" class="c0"/>
<circle cx="932" cy="202" r="8" class="c0"/>
<circle cx="818" cy="218" r="8" class="c0"/>
<circle cx="1092" cy="278" r="8" class="c0"/>
<circle cx="1014" cy="80" r="8" class="c0"/>
<circle cx="862" cy="152" r="8" class="c0"/>
<circle cx="1048" cy="114" r="8" class="c0"/>
<circle cx="1048" cy="288" r="8" class="c0"/>
<circle cx="1162" cy="82" r="8" class="c0"/>
<circle cx="1206" cy="134" r="8" class="c0"/>
<circle cx="1174" cy="194" r="8" class="c0"/>
<circle cx="714" cy="134" r="8" class="c0"/>
<circle cx="774" cy="418" r="8" class="c0"/>
<circle cx="906" cy="128" r="8" class="c0"/>
<circle cx="824" cy="106" r="8" class="c0"/>
<circle cx="738" cy="52" r="8" class="c0"/>
<circle cx="1070" cy="156" r="8" class="c0"/>
<circle cx="986" cy="82" r="8" class="c0"/>
<circle cx="1142" cy="108" r="8" class="c0"/>
<circle cx="828" cy="56" r="8" class="c0"/>
<circle cx="1264" cy="172" r="8" class="c0"/>
<circle cx="764" cy="240" r="8" class="c0"/>
<circle cx="848" cy="284" r="8" class="c0"/>
<circle cx="1294" cy="152" r="8" class="c0"/>
<circle cx="780" cy="222" r="8" class="c0"/>
<circle cx="938" cy="266" r="8" class="c0"/>
<circle cx="804" cy="190" r="8" class="c0"/>
<circle cx="828" cy="168" r="8" class="c0"/>
<circle cx="904" cy="150" r="8" class="c0"/>
<circle cx="1132" cy="120" r="8" class="c0"/>
<circle cx="952" cy="482" r="8" class="c0"/>
<circle cx="974" cy="132" r="8" class="c0"/>
<circle cx="1162" cy="218" r="8" class="c0"/>
<circle cx="1216" cy="120" r="8" class="c0"/>
<circle cx="1036" cy="34" r="8" class="c0"/>
<circle cx="860" cy="400" r="8" class="c0"/>
<circle cx="1316" cy="276" r="8" class="c0"/>
<circle cx="824" cy="132" r="8" class="c0"/>
<circle cx="880" cy="8" r="8" class="c0"/>
<circle cx="760" cy="430" r="8" class="c0"/>
<circle cx="1010" cy="98" r="8" class="c0"/>
<circle cx="748" cy="216" r="8" class="c0"/>
<circle cx="1014" cy="226" r="8" class="c0"/>
<circle cx="812" cy="64" r="8" class="c0"/>
<circle cx="1146" cy="170" r="8" class="c0"/>
<circle cx="794" cy="164" r="8" class="c0"/>
<circle cx="760" cy="86" r="8" class="c0"/>
<circle cx="1036" cy="62" r="8" class="c0"/>
<circle cx="1018" cy="474" r="8" class="c0"/>
<circle cx="758" cy="58" r="8" class="c0"/>
<circle cx="768" cy="46" r="8" class="c0"/>
<circle cx="1184" cy="98" r="8" class="c0"/>
<circle cx="846" cy="44" r="8" class="c0"/>
<circle cx="1344" cy="242" r="8" class="c0"/>
<circle cx="958" cy="42" r="8" class="c0"/>
<circle cx="928" cy="164" r="8" class="c0"/>
<circle cx="892" cy="278" r="8" class="c0"/>
<circle cx="1186" cy="322" r="8" class="c0"/>
<circle cx="930" cy="226" r="8" class="c0"/>
<circle cx="900" cy="110" r="8" class="c0"/>
<circle cx="926" cy="44" r="8" class="c0"/>
<circle cx="1220" cy="170" r="8" class="c0"/>
<circle cx="1136" cy="208" r="8" class="c0"/>
<circle cx="1090" cy="128" r="8" class="c0"/>
<circle cx="1114" cy="74" r="8" class="c0"/>
<circle cx="1024" cy="162" r="8" class="c0"/>
<circle cx="862" cy="194" r="8" class="c0"/>
<circle cx="776" cy="316" r="8" class="c0"/>
<circle cx="1012" cy="282" r="8" class="c0"/>
<circle cx="714" cy="88" r="8" class="c0"/>
<circle cx="962" cy="142" r="8" class="c0"/>
<circle cx="878" cy="76" r="8" class="c0"/>
<circle cx="1092" cy="198" r="8" class="c0"/>
<circle cx="728" cy="208" r="8" class="c0"/>
<circle cx="1068" cy="342" r="8" class="c0"/>
<circle cx="1114" cy="322" r="8" class="c0"/>
<circle cx="1036" cy="216" r="8" class="c0"/>
<circle cx="1166" cy="174" r="8" class="c0"/>
<circle cx="838" cy="302" r="8" class="c0"/>
<circle cx="838" cy="414" r="8" class="c0"/>
<circle cx="1204" cy="240" r="8" class="c0"/>
<circle cx="684" cy="48" r="8" class="c0"/>
<circle cx="822" cy="360" r="8" class="c0"/>
<circle cx="950" cy="400" r="8" class="c0"/>
<circle cx="1180" cy="240" r="8" class="c0"/>
<circle cx="1002" cy="372" r="8" class="c0"/>
<circle cx="840" cy="118" r="8" class="c0"/>
<circle cx="724" cy="144" r="8" class="c0"/>
<circle cx="1262" cy="218" r="8" class="c0"/>
<circle cx="1036" cy="126" r="8" class="c0"/>
<circle cx="1172" cy="284" r="8" class="c0"/>
<circle cx="1052" cy="316" r="8" class="c0"/>
<circle cx="974" cy="426" r="8" class="c0"/>
<circle cx="1344" cy="222" r="8" class="c0"/>
<circle cx="854" cy="14" r="8" class="c0"/>
<circle cx="834" cy="438" r="8" class="c0"/>
<circle cx="1030" cy="290" r="8" class="c0"/>
<circle cx="916" cy="210" r="8" class="c0"/>
<circle cx="1018" cy="206" r="8" class="c0"/>
<circle cx="1086" cy="344" r="8" class="c0"/>
<circle cx="1062" cy="304" r="8" class="c0"/>
<circle cx="1108" cy="354" r="8" class="c0"/>
<circle cx="802" cy="124" r="8" class="c0"/>
<circle cx="1146" cy="338" r="8" class="c0"/>
<circle cx="1228" cy="198" r="8" class="c0"/>
<circle cx="1038" cy="80" r="8" class="c0"/>
<circle cx="1172" cy="336" r="8" class="c0"/>
<circle cx="846" cy="164" r="6" class="c0"/>
<circle cx="1196" cy="164" r="6" class="c0"/>
<circle cx="1328" cy="264" r="6" class="c0"/>
<circle cx="1102" cy="288" r="6" class="c0"/>
<circle cx="974" cy="318" r="6" class="c0"/>
<circle cx="874" cy="204" r="6" class="c0"/>
<circle cx="960" cy="332" r="6" class="c0"/>
<circle cx="932" cy="26" r="6" class="c0"/>
<circle cx="1010" cy="502" r="6" class="c0"/>
<circle cx="1236" cy="316" r="6" class="c0"/>
<circle cx="962" cy="228" r="6" class="c0"/>
<circle cx="1150" cy="94" r="6" class="c0"/>
<circle cx="920" cy="306" r="6" class="c0"/>
<circle cx="768" cy="358" r="6" class="c0"/>
<circle cx="1034" cy="490" r="6" class="c0"/>
<circle cx="900" cy="374" r="6" class="c0"/>
<circle cx="950" cy="12" r="6" class="c0"/>
<circle cx="700" cy="44" r="6" class="c0"/>
<circle cx="754" cy="124" r="6" class="c0"/>
<circle cx="1066" cy="390" r="6" class="c0"/>
<circle cx="674" cy="116" r="6" class="c0"/>
<circle cx="764" cy="406" r="6" class="c0"/>
<circle cx="1210" cy="268" r="6" class="c0"/>
<circle cx="864" cy="356" r="6" class="c0"/>
<circle cx="694" cy="74" r="6" class="c0"/>
<circle cx="1218" cy="212" r="6" class="c0"/>
<circle cx="894" cy="38" r="6" class="c0"/>
<circle cx="888" cy="194" r="6" class="c0"/>
<circle cx="702" cy="108" r="6" class="c0"/>
<circle cx="1240" cy="140" r="6" class="c0"/>
<circle cx="956" cy="176" r="6" class="c0"/>
<circle cx="1186" cy="208" r="6" class="c0"/>
<circle cx="810" cy="292" r="6" class="c0"/>
<circle cx="1178" cy="162" r="6" class="c0"/>
<circle cx="784" cy="92" r="6" class="c0"/>
<circle cx="914" cy="494" r="6" class="c0"/>
<circle cx="1018" cy="34" r="6" class="c0"/>
<circle cx="984" cy="366" r="6" class="c0"/>
<circle cx="864" cy="136" r="6" class="c0"/>
<circle cx="802" cy="388" r="6" class="c0"/>
<circle cx="990" cy="430" r="6" class="c0"/>
<circle cx="1114" cy="278" r="6" class="c0"/>
<circle cx="944" cy="448" r="6" class="c0"/>
<circle cx="992" cy="146" r="6" class="c0"/>
<circle cx="832" cy="92" r="6" class="c0"/>
<circle cx="888" cy="146" r="6" class="c0"/>
<circle cx="1002" cy="216" r="6" class="c0"/>
<circle cx="822" cy="6" r="6" class="c0"/>
<circle cx="1080" cy="88" r="6" class="c0"/>
<circle cx="898" cy="242" r="6" class="c0"/>
<circle cx="876" cy="386" r="6" class="c0"/>
<circle cx="1046" cy="248" r="6" class="c0"/>
<circle cx="1270" cy="154" r="6" class="c0"/>
<circle cx="740" cy="270" r="6" class="c0"/>
<circle cx="728" cy="36" r="6" class="c0"/>
<circle cx="944" cy="86" r="6" class="c0"/>
<circle cx="796" cy="228" r="6" class="c0"/>
<circle cx="836" cy="482" r="6" class="c0"/>
<circle cx="1096" cy="316" r="6" class="c0"/>
<circle cx="940" cy="328" r="6" class="c0"/>
<circle cx="834" cy="370" r="6" class="c0"/>
<circle cx="1022" cy="118" r="6" class="c0"/>
<circle cx="1150" cy="296" r="6" class="c0"/>
<circle cx="1022" cy="326" r="6" class="c0"/>
<circle cx="1340" cy="258" r="6" class="c0"/>
<circle cx="790" cy="142" r="6" class="c0"/>
<circle cx="944" cy="108" r="6" class="c0"/>
<circle cx="972" cy="458" r="6" class="c0"/>
<circle cx="1052" cy="388" r="6" class="c0"/>
<circle cx="1210" cy="220" r="6" class="c0"/>
<circle cx="894" cy="180" r="6" class="c0"/>
<circle cx="922" cy="272" r="6" class="c0"/>
<circle cx="810" cy="350" r="6" class="c0"/>
<circle cx="754" cy="10" r="6" class="c0"/>
<circle cx="690" cy="28" r="6" class="c0"/>
<circle cx="704" cy="150" r="6" class="c0"/>
<circle cx="1014" cy="402" r="6" class="c0"/>
<circle cx="694" cy="202" r="6" class="c0"/>
<circle cx="1194" cy="150" r="6" class="c0"/>
<circle cx="864" cy="422" r="6" class="c0"/>
<circle cx="910" cy="166" r="6" class="c0"/>
<circle cx="1074" cy="112" r="6" class="c0"/>
<circle cx="998" cy="72" r="6" class="c0"/>
<circle cx="820" cy="304" r="6" class="c0"/>
<circle cx="808" cy="174" r="6" class="c0"/>
<circle cx="900" cy="8" r="6" class="c0"/>
<circle cx="840" cy="266" r="6" class="c0"/>
<circle cx="1208" cy="180" r="6" class="c0"/>
<circle cx="882" cy="230" r="6" class="c0"/>
<circle cx="818" cy="88" r="6" class="c0"/>
<circle cx="718" cy="46" r="6" class="c0"/>
<circle cx="726" cy="226" r="6" class="c0"/>
<circle cx="948" cy="52" r="6" class="c0"/>
<circle cx="794" cy="348" r="6" class="c0"/>
<circle cx="828" cy="470" r="6" class="c0"/>
<circle cx="932" cy="420" r="6" class="c0"/>
<circle cx="1080" cy="388" r="6" class="c0"/>
<circle cx="856" cy="128" r="6" class="c0"/>
<circle cx="748" cy="68" r="6" class="c0"/>
<circle cx="1080" cy="268" r="6" class="c0"/>
<circle cx="1162" cy="126" r="6" class="c0"/>
<circle cx="760" cy="154" r="6" class="c0"/>
<circle cx="902" cy="198" r="6" class="c0"/>
<circle cx="1066" cy="196" r="6" class="c0"/>
<circle cx="1198" cy="334" r="6" class="c0"/>
<circle cx="1084" cy="48" r="6" class="c0"/>
<circle cx="1122" cy="216" r="6" class="c0"/>
<circle cx="956" cy="458" r="6" class="c0"/>
<circle cx="840" cy="100" r="6" class="c0"/>
<circle cx="1100" cy="180" r="6" class="c0"/>
<circle cx="948" cy="500" r="6" class="c0"/>
<circle cx="920" cy="362" r="6" class="c0"/>
<circle cx="876" cy="344" r="6" class="c0"/>
<circle cx="862" cy="296" r="6" class="c0"/>
<circle cx="962" cy="472" r="6" class="c0"/>
<circle cx="1120" cy="202" r="6" class="c0"/>
<circle cx="842" cy="242" r="6" class="c0"/>
<circle cx="982" cy="206" r="6" class="c0"/>
<circle cx="842" cy="328" r="6" class="c0"/>
<circle cx="946" cy="220" r="6" class="c0"/>
<circle cx="776" cy="384" r="6" class="c0"/>
<circle cx="760" cy="194" r="6" class="c0"/>
<circle cx="1066" cy="258" r="6" class="c0"/>
<circle cx="1142" cy="286" r="6" class="c0"/>
<circle cx="1232" cy="130" r="6" class="c0"/>
<circle cx="1020" cy="494" r="6" class="c0"/>
<circle cx="946" cy="194" r="6" class="c0"/>
<circle cx="974" cy="358" r="6" class="c0"/>
<circle cx="1074" cy="134" r="6" class="c0"/>
<circle cx="754" cy="142" r="6" class="c0"/>
<circle cx="840" cy="6" r="6" class="c0"/>
<circle cx="824" cy="40" r="6" class="c0"/>
<circle cx="1108" cy="90" r="6" class="c0"/>
<circle cx="782" cy="240" r="6" class="c0"/>
<circle cx="1254" cy="204" r="6" class="c0"/>
<circle cx="1040" cy="164" r="6" class="c0"/>
<circle cx="728" cy="96" r="6" class="c0"/>
<circle cx="780" cy="156" r="6" class="c0"/>
<circle cx="1130" cy="328" r="6" class="c0"/>
<circle cx="848" cy="258" r="6" class="c0"/>
<circle cx="1184" cy="296" r="6" class="c0"/>
<circle cx="788" cy="266" r="6" class="c0"/>
<circle cx="748" cy="258" r="6" class="c0"/>
<circle cx="1108" cy="192" r="6" class="c0"/>
<circle cx="764" cy="326" r="6" class="c0"/>
<circle cx="1278" cy="146" r="6" class="c0"/>
<circle cx="1320" cy="256" r="6" class="c0"/>
<circle cx="1052" cy="412" r="6" class="c0"/>
<circle cx="1328" cy="248" r="6" class="c0"/>
<circle cx="972" cy="94" r="6" class="c0"/>
<circle cx="1088" cy="258" r="6" class="c0"/>
<circle cx="1076" cy="204" r="6" class="c0"/>
<circle cx="756" cy="414" r="6" class="c0"/>
<circle cx="886" cy="450" r="6" class="c0"/>
<circle cx="746" cy="198" r="6" class="c0"/>
<circle cx="694" cy="58" r="6" class="c0"/>
<circle cx="742" cy="170" r="6" class="c0"/>
<circle cx="814" cy="420" r="6" class="c0"/>
<circle cx="1126" cy="64" r="6" class="c0"/>
<circle cx="932" cy="316" r="6" class="c0"/>
<circle cx="974" cy="218" r="6" class="c0"/>
<circle cx="830" cy="456" r="6" class="c0"/>
<circle cx="932" cy="372" r="6" class="c0"/>
<circle cx="1152" cy="118" r="6" class="c0"/>
<circle cx="1076" cy="356" r="6" class="c0"/>
<circle cx="1064" cy="326" r="6" class="c0"/>
<circle cx="1046" cy="44" r="6" class="c0"/>
<circle cx="1354" cy="232" r="6" class="c0"/>
<circle cx="824" cy="428" r="6" class="c0"/>
<circle cx="1034" cy="472" r="6" class="c0"/>
<circle cx="1186" cy="118" r="6" class="c0"/>
<circle cx="904" cy="94" r="6" class="c0"/>
<circle cx="882" cy="58" r="6" class="c0"/>
<circle cx="698" cy="94" r="6" class="c0"/>
<circle cx="950" cy="368" r="6" class="c0"/>
<circle cx="752" cy="290" r="6" class="c0"/>
<circle cx="1062" cy="106" r="6" class="c0"/>
<circle cx="1300" cy="274" r="6" class="c0"/>
<circle cx="1052" cy="66" r="6" class="c0"/>
<circle cx="940" cy="430" r="6" class="c0"/>
<circle cx="792" cy="114" r="6" class="c0"/>
<circle cx="1278" cy="162" r="6" class="c0"/>
<circle cx="820" cy="328" r="6" class="c0"/>
<circle cx="1132" cy="140" r="6" class="c0"/>
<circle cx="916" cy="464" r="6" class="c0"/>
<circle cx="794" cy="380" r="6" class="c0"/>
<circle cx="1132" cy="224" r="6" class="c0"/>
<circle cx="826" cy="394" r="6" class="c0"/>
<circle cx="1042" cy="232" r="6" class="c0"/>
<circle cx="786" cy="306" r="6" class="c0"/>
<circle cx="1014" cy="172" r="6" class="c0"/>
<circle cx="1032" cy="318" r="6" class="c0"/>
<circle cx="986" cy="502" r="6" class="c0"/>
<circle cx="1178" cy="216" r="6" class="c0"/>
<circle cx="940" cy="412" r="6" class="c0"/>
<circle cx="802" cy="468" r="6" class="c0"/>
<circle cx="942" cy="134" r="6" class="c0"/>
</svg>
