<?xml version="1.0" encoding="utf-8"?>
<svg xmlns="http://www.w3.org/2000/svg"
     xmlns:xlink="http://www.w3.org/1999/xlink" width="1920" height="1440" >

            <defs>
            <style type="text/css"><![CDATA[
circle {stroke: none;}
.c0 {fill: #000000;}
]]></style>
            </defs>
<rect x="0" y="0" width="1920" height="1440" fill="white"/>
<circle cx="714" cy="90" r="14" class="c0"/>
<circle cx="914" cy="188" r="14" class="c0"/>
<circle cx="840" cy="84" r="12" class="c0"/>
<circle cx="1036" cy="256" r="12" class="c0"/>
<circle cx="780" cy="388" r="12" class="c0"/>
<circle cx="1038" cy="214" r="12" class="c0"/>
<circle cx="864" cy="262" r="12" class="c0"/>
<circle cx="1052" cy="320" r="12" class="c0"/>
<circle cx="1004" cy="298" r="12" class="c0"/>
<circle cx="858" cy="136" r="12" class="c0"/>
<circle cx="1120" cy="460" r="12" class="c0"/>
<circle cx="978" cy="360" r="12" class="c0"/>
<circle cx="1032" cy="374" r="12" class="c0"/>
<circle cx="814" cy="402" r="12" class="c0"/>
<circle cx="1092" cy="450" r="12" class="c0"/>
<circle cx="1218" cy="320" r="12" class="c0"/>
<circle cx="1172" cy="318" r="12" class="c0"/>
<circle cx="1164" cy="230" r="12" class="c0"/>
<circle cx="820" cy="460" r="12" class="c0"/>
<circle cx="1042" cy="478" r="12" class="c0"/>
<circle cx="1118" cy="156" r="12" class="c0"/>
<circle cx="688" cy="232" r="12" class="c0"/>
<circle cx="1092" cy="262" r="12" class="c0"/>
<circle cx="956" cy="184" r="12" class="c0"/>
<circle cx="914" cy="422" r="12" class="c0"/>
<circle cx="942" cy="208" r="12" class="c0"/>
<circle cx="732" cy="112" r="12" class="c0"/>
<circle cx="782" cy="238" r="12" class="c0"/>
<circle cx="1158" cy="334" r="12" class="c0"/>
<circle cx="992" cy="536" r="12" class="c0"/>
<circle cx="836" cy="200" r="12" class="c0"/>
<circle cx="1262" cy="292" r="12" class="c0"/>
<circle cx="1134" cy="294" r="12" class="c0"/>
<circle cx="872" cy="438" r="12" class="c0"/>
<circle cx="996" cy="498" r="12" class="c0"/>
<circle cx="810" cy="164" r="12" class="c0"/>
<circle cx="1046" cy="406" r="12" class="c0"/>
<circle cx="888" cy="162" r="12" class="c0"/>
<circle cx="742" cy="482" r="12" class="c0"/>
<circle cx="1182" cy="270" r="12" class="c0"/>
<circle cx="716" cy="160" r="12" class="c0"/>
<circle cx="826" cy="248" r="12" class="c0"/>
<circle cx="966" cy="540" r="12" class="c0"/>
<circle cx="754" cy="336" r="12" class="c0"/>
<circle cx="988" cy="468" r="12" class="c0"/>
<circle cx="1146" cy="210" r="10" class="c0"/>
<circle cx="982" cy="190" r="10" class="c0"/>
<circle cx="892" cy="294" r="10" class="c0"/>
<circle cx="1252" cy="444" r="10" class="c0"/>
<circle cx="752" cy="102" r="10" class="c0"/>
<circle cx="988" cy="226" r="10" class="c0"/>
<circle cx="846" cy="454" r="10" class="c0"/>
<circle cx="1010" cy="338" r="10" class="c0"/>
<circle cx="878" cy="212" r="10" class="c0"/>
<circle cx="804" cy="314" r="10" class="c0"/>
<circle cx="930" cy="346" r="10" class="c0"/>
<circle cx="840" cy="294" r="10" class="c0"/>
<circle cx="772" cy="518" r="10" class="c0"/>
<circle cx="754" cy="208" r="10" class="c0"/>
<circle cx="1084" cy="236" r="10" class="c0"/>
<circle cx="828" cy="282" r="10" class="c0"/>
<circle cx="926" cy="118" r="10" class="c0"/>
<circle cx="902" cy="348" r="10" class="c0"/>
<circle cx="914" cy="286" r="10" class="c0"/>
<circle cx="1158" cy="392" r="10" class="c0"/>
<circle cx="946" cy="494" r="10" class="c0"/>
<circle cx="1300" cy="422" r="10" class="c0"/>
<circle cx="1006" cy="174" r="10" class="c0"/>
<circle cx="1122" cy="190" r="10" class="c0"/>
<circle cx="1206" cy="242" r="10" class="c0"/>
<circle cx="938" cy="552" r="10" class="c0"/>
<circle cx="814" cy="530" r="10" class="c0"/>
<circle cx="1088" cy="332" r="10" class="c0"/>
<circle cx="1356" cy="294" r="10" class="c0"/>
<circle cx="1174" cy="408" r="10" class="c0"/>
<circle cx="1122" cy="364" r="10" class="c0"/>
<circle cx="864" cy="548" r="10" class="c0"/>
<circle cx="692" cy="206" r="10" class="c0"/>
<circle cx="1196" cy="208" r="10" class="c0"/>
<circle cx="932" cy="250" r="10" class="c0"/>
<circle cx="828" cy="340" r="10" class="c0"/>
<circle cx="902" cy="448" r="10" class="c0"/>
<circle cx="794" cy="188" r="10" class="c0"/>
<circle cx="986" cy="564" r="10" class="c0"/>
<circle cx="728" cy="280" r="10" class="c0"/>
<circle cx="954" cy="452" r="10" class="c0"/>
<circle cx="1032" cy="284" r="10" class="c0"/>
<circle cx="708" cy="132" r="10" class="c0"/>
<circle cx="912" cy="314" r="10" class="c0"/>
<circle cx="952" cy="356" r="10" class="c0"/>
<circle cx="818" cy="124" r="10" class="c0"/>
<circle cx="1312" cy="266" r="10" class="c0"/>
<circle cx="836" cy="504" r="10" class="c0"/>
<circle cx="1028" cy="182" r="10" class="c0"/>
<circle cx="752" cy="238" r="10" class="c0"/>
<circle cx="874" cy="512" r="10" class="c0"/>
<circle cx="1150" cy="252" r="10" class="c0"/>
<circle cx="1010" cy="252" r="10" class="c0"/>
<circle cx="670" cy="200" r="10" class="c0"/>
<circle cx="946" cy="232" r="10" class="c0"/>
<circle cx="1242" cy="242" r="10" class="c0"/>
<circle cx="712" cy="222" r="10" class="c0"/>
<circle cx="966" cy="142" r="10" class="c0"/>
<circle cx="674" cy="178" r="10" class="c0"/>
<circle cx="1068" cy="272" r="10" class="c0"/>
<circle cx="836" cy="424" r="10" class="c0"/>
<circle cx="800" cy="102" r="10" class="c0"/>
<circle cx="860" cy="326" r="10" class="c0"/>
<circle cx="1194" cy="302" r="10" class="c0"/>
<circle cx="970" cy="312" r="10" class="c0"/>
<circle cx="1332" cy="410" r="10" class="c0"/>
<circle cx="906" cy="372" r="10" class="c0"/>
<circle cx="918" cy="236" r="10" class="c0"/>
<circle cx="946" cy="428" r="10" class="c0"/>
<circle cx="1240" cy="276" r="10" class="c0"/>
<circle cx="1276" cy="336" r="10" class="c0"/>
<circle cx="992" cy="410" r="10" class="c0"/>
<circle cx="1222" cy="448" r="10" class="c0"/>
<circle cx="938" cy="514" r="10" class="c0"/>
<circle cx="1224" cy="218" r="10" class="c0"/>
<circle cx="788" cy="154" r="10" class="c0"/>
<circle cx="1108" cy="352" r="10" class="c0"/>
<circle cx="854" cy="372" r="10" class="c0"/>
<circle cx="1030" cy="308" r="10" class="c0"/>
<circle cx="870" cy="96" r="10" class="c0"/>
<circle cx="974" cy="506" r="10" class="c0"/>
<circle cx="690" cy="112" r="10" class="c0"/>
<circle cx="930" cy="142" r="10" class="c0"/>
<circle cx="1168" cy="290" r="10" class="c0"/>
<circle cx="926" cy="526" r="10" class="c0"/>
<circle cx="968" cy="206" r="10" class="c0"/>
<circle cx="956" cy="404" r="10" class="c0"/>
<circle cx="1100" cy="200" r="10" class="c0"/>
<circle cx="722" cy="190" r="10" class="c0"/>
<circle cx="940" cy="368" r="10" class="c0"/>
<circle cx="1188" cy="372" r="10" class="c0"/>
<circle cx="764" cy="154" r="10" class="c0"/>
<circle cx="1170" cy="440" r="10" class="c0"/>
<circle cx="828" cy="482" r="10" class="c0"/>
<circle cx="774" cy="430" r="10" class="c0"/>
<circle cx="796" cy="346" r="10" class="c0"/>
<circle cx="828" cy="178" r="10" class="c0"/>
<circle cx="1274" cy="432" r="10" class="c0"/>
<circle cx="798" cy="418" r="10" class="c0"/>
<circle cx="1062" cy="300" r="10" class="c0"/>
<circle cx="892" cy="230" r="10" class="c0"/>
<circle cx="762" cy="310" r="10" class="c0"/>
<circle cx="976" cy="162" r="10" class="c0"/>
<circle cx="1380" cy="366" r="10" class="c0"/>
<circle cx="1054" cy="364" r="10" class="c0"/>
<circle cx="1006" cy="438" r="10" class="c0"/>
<circle cx="1124" cy="422" r="10" class="c0"/>
<circle cx="906" cy="96" r="10" class="c0"/>
<circle cx="1158" cy="452" r="10" class="c0"/>
<circle cx="906" cy="476" r="10" class="c0"/>
<circle cx="972" cy="576" r="10" class="c0"/>
<circle cx="1004" cy="588" r="10" class="c0"/>
<circle cx="1378" cy="302" r="10" class="c0"/>
<circle cx="858" cy="176" r="10" class="c0"/>
<circle cx="818" cy="374" r="10" class="c0"/>
<circle cx="952" cy="324" r="10" class="c0"/>
<circle cx="750" cy="124" r="10" class="c0"/>
<circle cx="788" cy="490" r="10" class="c0"/>
<circle cx="1038" cy="446" r="10" class="c0"/>
<circle cx="782" cy="264" r="10" class="c0"/>
<circle cx="1106" cy="434" r="10" class="c0"/>
<circle cx="788" cy="458" r="10" class="c0"/>
<circle cx="886" cy="188" r="10" class="c0"/>
<circle cx="958" cy="298" r="10" class="c0"/>
<circle cx="1136" cy="394" r="10" class="c0"/>
<circle cx="1102" cy="398" r="10" class="c0"/>
<circle cx="1050" cy="168" r="10" class="c0"/>
<circle cx="1088" cy="174" r="10" class="c0"/>
<circle cx="804" cy="230" r="10" class="c0"/>
<circle cx="1054" cy="434" r="8" class="c0"/>
<circle cx="766" cy="254" r="8" class="c0"/>
<circle cx="1186" cy="344" r="8" class="c0"/>
<circle cx="850" cy="482" r="8" class="c0"/>
<circle cx="764" cy="364" r="8" class="c0"/>
<circle cx="1048" cy="238" r="8" class="c0"/>
<circle cx="842" cy="400" r="8" class="c0"/>
<circle cx="1028" cy="428" r="8" class="c0"/>
<circle cx="744" cy="356" r="8" class="c0"/>
<circle cx="1074" cy="384" r="8" class="c0"/>
<circle cx="848" cy="220" r="8" class="c0"/>
<circle cx="1160" cy="184" r="8" class="c0"/>
<circle cx="932" cy="326" r="8" class="c0"/>
<circle cx="678" cy="136" r="8" class="c0"/>
<circle cx="1300" cy="292" r="8" class="c0"/>
<circle cx="1018" cy="160" r="8" class="c0"/>
<circle cx="908" cy="152" r="8" class="c0"/>
<circle cx="1092" cy="380" r="8" class="c0"/>
<circle cx="1150" cy="432" r="8" class="c0"/>
<circle cx="778" cy="290" r="8" class="c0"/>
<circle cx="1082" cy="356" r="8" class="c0"/>
<circle cx="782" cy="130" r="8" class="c0"/>
<circle cx="1110" cy="326" r="8" class="c0"/>
<circle cx="946" cy="274" r="8" class="c0"/>
<circle cx="682" cy="258" r="8" class="c0"/>
<circle cx="1106" cy="308" r="8" class="c0"/>
<circle cx="822" cy="304" r="8" class="c0"/>
<circle cx="1076" cy="492" r="8" class="c0"/>
<circle cx="754" cy="280" r="8" class="c0"/>
<circle cx="1024" cy="530" r="8" class="c0"/>
<circle cx="1004" cy="274" r="8" class="c0"/>
<circle cx="906" cy="214" r="8" class="c0"/>
<circle cx="998" cy="142" r="8" class="c0"/>
<circle cx="982" cy="250" r="8" class="c0"/>
<circle cx="924" cy="270" r="8" class="c0"/>
<circle cx="1190" cy="396" r="8" class="c0"/>
<circle cx="884" cy="364" r="8" class="c0"/>
<circle cx="916" cy="334" r="8" class="c0"/>
<circle cx="702" cy="262" r="8" class="c0"/>
<circle cx="852" cy="524" r="8" class="c0"/>
<circle cx="862" cy="420" r="8" class="c0"/>
<circle cx="1366" cy="394" r="8" class="c0"/>
<circle cx="890" cy="462" r="8" class="c0"/>
<circle cx="906" cy="562" r="8" class="c0"/>
<circle cx="1106" cy="226" r="8" class="c0"/>
<circle cx="1070" cy="460" r="8" class="c0"/>
<circle cx="1070" cy="190" r="8" class="c0"/>
<circle cx="916" cy="504" r="8" class="c0"/>
<circle cx="922" cy="446" r="8" class="c0"/>
<circle cx="1022" cy="226" r="8" class="c0"/>
<circle cx="1204" cy="354" r="8" class="c0"/>
<circle cx="1194" cy="448" r="8" class="c0"/>
<circle cx="1126" cy="266" r="8" class="c0"/>
<circle cx="1140" cy="230" r="8" class="c0"/>
<circle cx="874" cy="286" r="8" class="c0"/>
<circle cx="978" cy="336" r="8" class="c0"/>
<circle cx="1128" cy="342" r="8" class="c0"/>
<circle cx="714" cy="300" r="8" class="c0"/>
<circle cx="1258" cy="314" r="8" class="c0"/>
<circle cx="1144" cy="414" r="8" class="c0"/>
<circle cx="822" cy="94" r="8" class="c0"/>
<circle cx="878" cy="482" r="8" class="c0"/>
<circle cx="978" cy="276" r="8" class="c0"/>
<circle cx="1228" cy="300" r="8" class="c0"/>
<circle cx="978" cy="442" r="8" class="c0"/>
<circle cx="810" cy="272" r="8" class="c0"/>
<circle cx="1038" cy="142" r="8" class="c0"/>
<circle cx="752" cy="456" r="8" class="c0"/>
<circle cx="908" cy="256" r="8" class="c0"/>
<circle cx="884" cy="120" r="8" class="c0"/>
<circle cx="838" cy="162" r="8" class="c0"/>
<circle cx="914" cy="390" r="8" class="c0"/>
<circle cx="968" cy="386" r="8" class="c0"/>
<circle cx="968" cy="266" r="8" class="c0"/>
<circle cx="834" cy="142" r="8" class="c0"/>
<circle cx="786" cy="530" r="8" class="c0"/>
<circle cx="1376" cy="344" r="8" class="c0"/>
<circle cx="1138" cy="444" r="8" class="c0"/>
<circle cx="1014" cy="404" r="8" class="c0"/>
<circle cx="728" cy="238" r="8" class="c0"/>
<circle cx="926" cy="482" r="8" class="c0"/>
<circle cx="1068" cy="412" r="8" class="c0"/>
<circle cx="806" cy="482" r="8" class="c0"/>
<circle cx="796" cy="508" r="8" class="c0"/>
<circle cx="1284" cy="304" r="8" class="c0"/>
<circle cx="726" cy="324" r="8" class="c0"/>
<circle cx="768" cy="220" r="8" class="c0"/>
<circle cx="804" cy="138" r="8" class="c0"/>
<circle cx="844" cy="354" r="8" class="c0"/>
<circle cx="876" cy="410" r="8" class="c0"/>
<circle cx="834" cy="316" r="8" class="c0"/>
<circle cx="940" cy="308" r="8" class="c0"/>
<circle cx="1008" cy="564" r="8" class="c0"/>
<circle cx="780" cy="208" r="8" class="c0"/>
<circle cx="900" cy="516" r="8" class="c0"/>
<circle cx="1210" cy="432" r="8" class="c0"/>
<circle cx="1058" cy="204" r="8" class="c0"/>
<circle cx="1008" cy="358" r="8" class="c0"/>
<circle cx="934" cy="406" r="8" class="c0"/>
<circle cx="810" cy="440" r="8" class="c0"/>
<circle cx="1018" cy="550" r="8" class="c0"/>
<circle cx="896" cy="400" r="8" class="c0"/>
<circle cx="858" cy="238" r="8" class="c0"/>
<circle cx="1118" cy="248" r="8" class="c0"/>
<circle cx="1186" cy="248" r="8" class="c0"/>
<circle cx="1008" cy="196" r="8" class="c0"/>
<circle cx="1092" cy="474" r="8" class="c0"/>
<circle cx="872" cy="312" r="8" class="c0"/>
<circle cx="752" cy="392" r="8" class="c0"/>
<circle cx="766" cy="482" r="8" class="c0"/>
<circle cx="762" cy="182" r="8" class="c0"/>
<circle cx="1004" cy="520" r="8" class="c0"/>
<circle cx="706" cy="280" r="8" class="c0"/>
<circle cx="936" cy="164" r="8" class="c0"/>
<circle cx="1362" cy="274" r="8" class="c0"/>
<circle cx="1000" cy="392" r="8" class="c0"/>
<circle cx="1258" cy="258" r="8" class="c0"/>
<circle cx="936" cy="290" r="8" class="c0"/>
<circle cx="884" cy="340" r="8" class="c0"/>
<circle cx="744" cy="192" r="8" class="c0"/>
<circle cx="948" cy="126" r="8" class="c0"/>
<circle cx="1182" cy="458" r="8" class="c0"/>
<circle cx="1022" cy="512" r="8" class="c0"/>
<circle cx="1218" cy="372" r="8" class="c0"/>
<circle cx="788" cy="302" r="8" class="c0"/>
<circle cx="1088" cy="302" r="8" class="c0"/>
<circle cx="698" cy="174" r="8" class="c0"/>
<circle cx="842" cy="268" r="8" class="c0"/>
<circle cx="1056" cy="148" r="8" class="c0"/>
<circle cx="1040" cy="510" r="8" class="c0"/>
<circle cx="1150" cy="354" r="8" class="c0"/>
<circle cx="1210" cy="276" r="8" class="c0"/>
<circle cx="832" cy="550" r="8" class="c0"/>
<circle cx="1360" cy="356" r="8" class="c0"/>
<circle cx="738" cy="516" r="8" class="c0"/>
<circle cx="918" cy="546" r="8" class="c0"/>
<circle cx="888" cy="530" r="8" class="c0"/>
<circle cx="730" cy="134" r="8" class="c0"/>
<circle cx="814" cy="194" r="8" class="c0"/>
<circle cx="784" cy="320" r="8" class="c0"/>
<circle cx="754" cy="422" r="8" class="c0"/>
<circle cx="846" cy="112" r="8" class="c0"/>
<circle cx="1106" cy="284" r="8" class="c0"/>
<circle cx="812" cy="212" r="8" class="c0"/>
<circle cx="1074" cy="252" r="8" class="c0"/>
<circle cx="978" cy="422" r="8" class="c0"/>
<circle cx="1206" cy="388" r="8" class="c0"/>
<circle cx="894" cy="272" r="8" class="c0"/>
<circle cx="958" cy="376" r="8" class="c0"/>
<circle cx="1076" cy="436" r="8" class="c0"/>
<circle cx="1202" cy="334" r="8" class="c0"/>
<circle cx="956" cy="564" r="8" class="c0"/>
<circle cx="854" cy="306" r="8" class="c0"/>
<circle cx="1112" cy="380" r="8" class="c0"/>
<circle cx="1026" cy="348" r="8" class="c0"/>
<circle cx="962" cy="480" r="8" class="c0"/>
<circle cx="784" cy="86" r="8" class="c0"/>
<circle cx="1204" cy="460" r="8" class="c0"/>
<circle cx="1322" cy="284" r="8" class="c0"/>
<circle cx="974" cy="122" r="8" class="c0"/>
<circle cx="1148" cy="376" r="8" class="c0"/>
<circle cx="1086" cy="408" r="8" class="c0"/>
<circle cx="774" cy="96" r="8" class="c0"/>
<circle cx="968" cy="240" r="8" class="c0"/>
<circle cx="764" cy="406" r="8" class="c0"/>
<circle cx="1226" cy="260" r="8" class="c0"/>
<circle cx="796" cy="282" r="8" class="c0"/>
<circle cx="886" cy="500" r="8" class="c0"/>
<circle cx="894" cy="330" r="8" class="c0"/>
<circle cx="1374" cy="322" r="8" class="c0"/>
<circle cx="1048" cy="190" r="8" class="c0"/>
<circle cx="744" cy="76" r="8" class="c0"/>
<circle cx="740" cy="158" r="8" class="c0"/>
<circle cx="668" cy="148" r="8" class="c0"/>
<circle cx="1240" cy="334" r="8" class="c0"/>
<circle cx="742" cy="268" r="8" class="c0"/>
<circle cx="934" cy="456" r="8" class="c0"/>
<circle cx="1170" cy="194" r="8" class="c0"/>
<circle cx="686" cy="90" r="8" class="c0"/>
<circle cx="1020" cy="458" r="8" class="c0"/>
<circle cx="882" cy="564" r="8" class="c0"/>
<circle cx="1082" cy="150" r="8" class="c0"/>
<circle cx="1050" cy="342" r="8" class="c0"/>
<circle cx="766" cy="80" r="8" class="c0"/>
<circle cx="1012" cy="476" r="8" class="c0"/>
<circle cx="786" cy="366" r="8" class="c0"/>
<circle cx="1222" cy="352" r="8" class="c0"/>
<circle cx="886" cy="140" r="8" class="c0"/>
<circle cx="1068" cy="216" r="8" class="c0"/>
<circle cx="1288" cy="270" r="8" class="c0"/>
<circle cx="1144" cy="316" r="8" class="c0"/>
<circle cx="1180" cy="218" r="8" class="c0"/>
<circle cx="740" cy="312" r="8" class="c0"/>
<circle cx="802" cy="250" r="8" class="c0"/>
<circle cx="1068" cy="340" r="8" class="c0"/>
<circle cx="728" cy="68" r="8" class="c0"/>
<circle cx="1346" cy="398" r="8" class="c0"/>
<circle cx="1164" cy="366" r="8" class="c0"/>
<circle cx="748" cy="506" r="8" class="c0"/>
<circle cx="992" cy="322" r="8" class="c0"/>
<circle cx="932" cy="386" r="8" class="c0"/>
<circle cx="1088" cy="216" r="8" class="c0"/>
<circle cx="1010" cy="378" r="8" class="c0"/>
<circle cx="688" cy="152" r="8" class="c0"/>
<circle cx="840" cy="534" r="8" class="c0"/>
<circle cx="952" cy="108" r="8" class="c0"/>
<circle cx="882" cy="250" r="8" class="c0"/>
<circle cx="728" cy="210" r="8" class="c0"/>
<circle cx="878" cy="390" r="8" class="c0"/>
<circle cx="1078" cy="290" r="8" class="c0"/>
<circle cx="948" cy="154" r="8" class="c0"/>
<circle cx="724" cy="258" r="8" class="c0"/>
<circle cx="1132" cy="174" r="8" class="c0"/>
<circle cx="776" cy="166" r="8" class="c0"/>
<circle cx="1026" cy="328" r="8" class="c0"/>
<circle cx="982" cy="294" r="8" class="c0"/>
<circle cx="738" cy="224" r="8" class="c0"/>
<circle cx="1334" cy="274" r="8" class="c0"/>
<circle cx="860" cy="198" r="8" class="c0"/>
<circle cx="956" cy="254" r="8" class="c0"/>
<circle cx="898" cy="130" r="8" class="c0"/>
<circle cx="1190" cy="230" r="8" class="c0"/>
<circle cx="754" cy="526" r="8" class="c0"/>
<circle cx="1010" cy="120" r="8" class="c0"/>
<circle cx="1002" cy="214" r="8" class="c0"/>
<circle cx="672" cy="104" r="8" class="c0"/>
<circle cx="918" cy="162" r="8" class="c0"/>
<circle cx="1386" cy="332" r="8" class="c0"/>
<circle cx="750" cy="170" r="8" class="c0"/>
<circle cx="1154" cy="304" r="8" class="c0"/>
<circle cx="1360" cy="376" r="8" class="c0"/>
<circle cx="808" cy="82" r="8" class="c0"/>
<circle cx="1122" cy="316" r="8" class="c0"/>
<circle cx="860" cy="494" r="8" class="c0"/>
<circle cx="1240" cy="310" r="8" class="c0"/>
<circle cx="1150" cy="276" r="8" class="c0"/>
<circle cx="1074" cy="316" r="8" class="c0"/>
<circle cx="826" cy="224" r="8" class="c0"/>
<circle cx="1020" cy="132" r="8" class="c0"/>
<circle cx="944" cy="474" r="8" class="c0"/>
<circle cx="734" cy="344" r="8" class="c0"/>
<circle cx="866" cy="468" r="8" class="c0"/>
<circle cx="712" cy="246" r="8" class="c0"/>
<circle cx="918" cy="358" r="8" class="c0"/>
<circle cx="928" cy="572" r="8" class="c0"/>
<circle cx="772" cy="116" r="8" class="c0"/>
<circle cx="832" cy="390" r="8" class="c0"/>
<circle cx="750" cy="298" r="8" class="c0"/>
<circle cx="1066" cy="482" r="8" class="c0"/>
<circle cx="1184" cy="184" r="8" class="c0"/>
<circle cx="1320" cy="424" r="8" class="c0"/>
<circle cx="774" cy="344" r="8" class="c0"/>
<circle cx="896" cy="548" r="8" class="c0"/>
<circle cx="1292" cy="442" r="8" class="c0"/>
<circle cx="1122" cy="216" r="8" class="c0"/>
<circle cx="1274" cy="316" r="6" class="c0"/>
<circle cx="1066" cy="234" r="6" class="c0"/>
<circle cx="868" cy="160" r="6" class="c0"/>
<circle cx="990" cy="346" r="6" class="c0"/>
<circle cx="1070" cy="164" r="6" class="c0"/>
<circle cx="862" cy="394" r="6" class="c0"/>
<circle cx="670" cy="122" r="6" class="c0"/>
<circle cx="1196" cy="284" r="6" class="c0"/>
<circle cx="1052" cy="286" r="6" class="c0"/>
<circle cx="892" cy="416" r="6" class="c0"/>
<circle cx="976" cy="488" r="6" class="c0"/>
<circle cx="692" cy="272" r="6" class="c0"/>
<circle cx="988" cy="266" r="6" class="c0"/>
<circle cx="1028" cy="494" r="6" class="c0"/>
<circle cx="748" cy="142" r="6" class="c0"/>
<circle cx="944" cy="576" r="6" class="c0"/>
<circle cx="994" cy="372" r="6" class="c0"/>
<circle cx="942" cy="534" r="6" class="c0"/>
<circle cx="816" cy="502" r="6" class="c0"/>
<circle cx="1008" cy="318" r="6" class="c0"/>
<circle cx="890" cy="314" r="6" class="c0"/>
<circle cx="806" cy="296" r="6" class="c0"/>
<circle cx="930" cy="222" r="6" class="c0"/>
<circle cx="1098" cy="154" r="6" class="c0"/>
<circle cx="796" cy="120" r="6" class="c0"/>
<circle cx="862" cy="352" r="6" class="c0"/>
<circle cx="986" cy="592" r="6" class="c0"/>
<circle cx="1272" cy="452" r="6" class="c0"/>
<circle cx="1018" cy="208" r="6" class="c0"/>
<circle cx="1034" cy="158" r="6" class="c0"/>
<circle cx="976" cy="524" r="6" class="c0"/>
<circle cx="1104" cy="182" r="6" class="c0"/>
<circle cx="1176" cy="384" r="6" class="c0"/>
<circle cx="868" cy="114" r="6" class="c0"/>
<circle cx="1010" cy="420" r="6" class="c0"/>
<circle cx="1224" cy="240" r="6" class="c0"/>
<circle cx="1054" cy="454" r="6" class="c0"/>
<circle cx="806" cy="546" r="6" class="c0"/>
<circle cx="986" cy="380" r="6" class="c0"/>
<circle cx="906" cy="116" r="6" class="c0"/>
<circle cx="778" cy="472" r="6" class="c0"/>
<circle cx="796" cy="376" r="6" class="c0"/>
<circle cx="914" cy="132" r="6" class="c0"/>
<circle cx="696" cy="72" r="6" class="c0"/>
<circle cx="1174" cy="356" r="6" class="c0"/>
<circle cx="956" cy="522" r="6" class="c0"/>
<circle cx="908" cy="534" r="6" class="c0"/>
<circle cx="768" cy="498" r="6" class="c0"/>
<circle cx="1238" cy="458" r="6" class="c0"/>
<circle cx="814" cy="328" r="6" class="c0"/>
<circle cx="1258" cy="340" r="6" class="c0"/>
<circle cx="748" cy="374" r="6" class="c0"/>
<circle cx="1266" cy="272" r="6" class="c0"/>
<circle cx="1046" cy="274" r="6" class="c0"/>
<circle cx="932" cy="100" r="6" class="c0"/>
<circle cx="1054" cy="494" r="6" class="c0"/>
<circle cx="1232" cy="430" r="6" class="c0"/>
<circle cx="1192" cy="320" r="6" class="c0"/>
<circle cx="688" cy="188" r="6" class="c0"/>
<circle cx="1032" cy="236" r="6" class="c0"/>
<circle cx="1026" cy="200" r="6" class="c0"/>
<circle cx="1056" cy="382" r="6" class="c0"/>
<circle cx="816" cy="356" r="6" class="c0"/>
<circle cx="892" cy="434" r="6" class="c0"/>
<circle cx="870" cy="530" r="6" class="c0"/>
<circle cx="816" cy="424" r="6" class="c0"/>
<circle cx="1268" cy="352" r="6" class="c0"/>
<circle cx="1096" cy="364" r="6" class="c0"/>
<circle cx="710" cy="114" r="6" class="c0"/>
<circle cx="962" cy="342" r="6" class="c0"/>
<circle cx="762" cy="446" r="6" class="c0"/>
<circle cx="1058" cy="256" r="6" class="c0"/>
<circle cx="1212" cy="294" r="6" class="c0"/>
<circle cx="730" cy="174" r="6" class="c0"/>
<circle cx="1000" cy="238" r="6" class="c0"/>
<circle cx="712" cy="316" r="6" class="c0"/>
<circle cx="848" cy="250" r="6" class="c0"/>
<circle cx="702" cy="190" r="6" class="c0"/>
<circle cx="728" cy="504" r="6" class="c0"/>
<circle cx="1350" cy="414" r="6" class="c0"/>
<circle cx="1202" cy="260" r="6" class="c0"/>
<circle cx="770" cy="460" r="6" class="c0"/>
<circle cx="1260" cy="420" r="6" class="c0"/>
<circle cx="994" cy="160" r="6" class="c0"/>
<circle cx="1090" cy="426" r="6" class="c0"/>
<circle cx="1224" cy="284" r="6" class="c0"/>
<circle cx="1044" cy="298" r="6" class="c0"/>
<circle cx="960" cy="588" r="6" class="c0"/>
<circle cx="674" cy="218" r="6" class="c0"/>
<circle cx="888" cy="90" r="6" class="c0"/>
<circle cx="1284" cy="286" r="6" class="c0"/>
<circle cx="780" cy="412" r="6" class="c0"/>
<circle cx="824" cy="152" r="6" class="c0"/>
<circle cx="730" cy="298" r="6" class="c0"/>
<circle cx="852" cy="410" r="6" class="c0"/>
<circle cx="982" cy="396" r="6" class="c0"/>
<circle cx="858" cy="290" r="6" class="c0"/>
<circle cx="1330" cy="258" r="6" class="c0"/>
<circle cx="766" cy="134" r="6" class="c0"/>
<circle cx="1122" cy="404" r="6" class="c0"/>
<circle cx="1004" cy="456" r="6" class="c0"/>
<circle cx="1100" cy="416" r="6" class="c0"/>
<circle cx="920" cy="464" r="6" class="c0"/>
<circle cx="794" cy="400" r="6" class="c0"/>
<circle cx="772" cy="192" r="6" class="c0"/>
<circle cx="850" cy="434" r="6" class="c0"/>
<circle cx="1142" cy="190" r="6" class="c0"/>
<circle cx="974" cy="406" r="6" class="c0"/>
<circle cx="1020" cy="578" r="6" class="c0"/>
<circle cx="804" cy="364" r="6" class="c0"/>
<circle cx="1022" cy="390" r="6" class="c0"/>
<circle cx="866" cy="224" r="6" class="c0"/>
<circle cx="830" cy="444" r="6" class="c0"/>
<circle cx="1262" cy="240" r="6" class="c0"/>
<circle cx="794" cy="72" r="6" class="c0"/>
<circle cx="902" cy="494" r="6" class="c0"/>
<circle cx="796" cy="210" r="6" class="c0"/>
<circle cx="874" cy="236" r="6" class="c0"/>
<circle cx="890" cy="380" r="6" class="c0"/>
<circle cx="836" cy="122" r="6" class="c0"/>
<circle cx="1206" cy="222" r="6" class="c0"/>
<circle cx="1078" cy="206" r="6" class="c0"/>
<circle cx="988" cy="516" r="6" class="c0"/>
<circle cx="992" cy="116" r="6" class="c0"/>
<circle cx="1192" cy="432" r="6" class="c0"/>
<circle cx="838" cy="234" r="6" class="c0"/>
<circle cx="830" cy="110" r="6" class="c0"/>
<circle cx="964" cy="432" r="6" class="c0"/>
<circle cx="804" cy="384" r="6" class="c0"/>
<circle cx="828" cy="520" r="6" class="c0"/>
<circle cx="1248" cy="426" r="6" class="c0"/>
<circle cx="762" cy="380" r="6" class="c0"/>
<circle cx="1170" cy="256" r="6" class="c0"/>
<circle cx="1312" cy="438" r="6" class="c0"/>
<circle cx="792" cy="436" r="6" class="c0"/>
<circle cx="1064" cy="394" r="6" class="c0"/>
<circle cx="854" cy="344" r="6" class="c0"/>
<circle cx="970" cy="224" r="6" class="c0"/>
<circle cx="922" cy="212" r="6" class="c0"/>
<circle cx="764" cy="270" r="6" class="c0"/>
<circle cx="992" cy="284" r="6" class="c0"/>
<circle cx="1348" cy="262" r="6" class="c0"/>
<circle cx="874" cy="374" r="6" class="c0"/>
<circle cx="854" cy="156" r="6" class="c0"/>
<circle cx="936" cy="186" r="6" class="c0"/>
<circle cx="696" cy="290" r="6" class="c0"/>
<circle cx="834" cy="366" r="6" class="c0"/>
<circle cx="740" cy="252" r="6" class="c0"/>
<circle cx="710" cy="204" r="6" class="c0"/>
<circle cx="1102" cy="242" r="6" class="c0"/>
<circle cx="736" cy="92" r="6" class="c0"/>
<circle cx="924" cy="302" r="6" class="c0"/>
<circle cx="966" cy="464" r="6" class="c0"/>
<circle cx="1372" cy="284" r="6" class="c0"/>
<circle cx="1162" cy="422" r="6" class="c0"/>
<circle cx="826" cy="72" r="6" class="c0"/>
<circle cx="1020" cy="266" r="6" class="c0"/>
<circle cx="892" cy="106" r="6" class="c0"/>
<circle cx="1142" cy="464" r="6" class="c0"/>
<circle cx="986" cy="132" r="6" class="c0"/>
<circle cx="884" cy="424" r="6" class="c0"/>
<circle cx="958" cy="164" r="6" class="c0"/>
<circle cx="1312" cy="406" r="6" class="c0"/>
<circle cx="848" cy="556" r="6" class="c0"/>
<circle cx="1148" cy="170" r="6" class="c0"/>
<circle cx="1364" cy="312" r="6" class="c0"/>
<circle cx="842" cy="330" r="6" class="c0"/>
<circle cx="1162" cy="264" r="6" class="c0"/>
<circle cx="852" cy="278" r="6" class="c0"/>
<circle cx="988" cy="432" r="6" class="c0"/>
<circle cx="1238" cy="350" r="6" class="c0"/>
<circle cx="1138" cy="332" r="6" class="c0"/>
<circle cx="948" cy="388" r="6" class="c0"/>
<circle cx="1072" cy="368" r="6" class="c0"/>
<circle cx="752" cy="438" r="6" class="c0"/>
<circle cx="992" cy="204" r="6" class="c0"/>
<circle cx="896" cy="204" r="6" class="c0"/>
<circle cx="776" cy="70" r="6" class="c0"/>
<circle cx="1124" cy="232" r="6" class="c0"/>
<circle cx="1166" cy="210" r="6" class="c0"/>
<circle cx="1058" cy="226" r="6" class="c0"/>
</svg>
