<?xml version="1.0" encoding="utf-8"?>
<svg xmlns="http://www.w3.org/2000/svg"
     xmlns:xlink="http://www.w3.org/1999/xlink" width="1920" height="1440" >

            <defs>
            <style type="text/css"><![CDATA[
circle {stroke: none;}
.c0 {fill: #FFFFFF;}
]]></style>
            </defs>
<rect x="0" y="0" width="1920" height="1440" fill="black"/>
<circle cx="1444" cy="1394" r="14" class="c0"/>
<circle cx="520" cy="324" r="12" class="c0"/>
<circle cx="1574" cy="1408" r="12" class="c0"/>
<circle cx="1600" cy="1420" r="12" class="c0"/>
<circle cx="1546" cy="1412" r="12" class="c0"/>
<circle cx="496" cy="304" r="12" class="c0"/>
<circle cx="438" cy="300" r="12" class="c0"/>
<circle cx="960" cy="1418" r="12" class="c0"/>
<circle cx="740" cy="1420" r="12" class="c0"/>
<circle cx="676" cy="1346" r="12" class="c0"/>
<circle cx="722" cy="1384" r="12" class="c0"/>
<circle cx="944" cy="1390" r="12" class="c0"/>
<circle cx="918" cy="1398" r="12" class="c0"/>
<circle cx="714" cy="1410" r="12" class="c0"/>
<circle cx="1500" cy="1408" r="12" class="c0"/>
<circle cx="346" cy="304" r="12" class="c0"/>
<circle cx="1004" cy="1420" r="12" class="c0"/>
<circle cx="1492" cy="1066" r="12" class="c0"/>
<circle cx="904" cy="1380" r="12" class="c0"/>
<circle cx="466" cy="296" r="12" class="c0"/>
<circle cx="564" cy="398" r="12" class="c0"/>
<circle cx="920" cy="1366" r="12" class="c0"/>
<circle cx="860" cy="1336" r="10" class="c0"/>
<circle cx="1032" cy="1422" r="10" class="c0"/>
<circle cx="1560" cy="1110" r="10" class="c0"/>
<circle cx="1516" cy="1080" r="10" class="c0"/>
<circle cx="1442" cy="1424" r="10" class="c0"/>
<circle cx="798" cy="1280" r="10" class="c0"/>
<circle cx="462" cy="262" r="10" class="c0"/>
<circle cx="418" cy="278" r="10" class="c0"/>
<circle cx="1472" cy="1418" r="10" class="c0"/>
<circle cx="1584" cy="1114" r="10" class="c0"/>
<circle cx="994" cy="1384" r="10" class="c0"/>
<circle cx="1070" cy="1428" r="10" class="c0"/>
<circle cx="1438" cy="1358" r="10" class="c0"/>
<circle cx="684" cy="1406" r="10" class="c0"/>
<circle cx="766" cy="1424" r="10" class="c0"/>
<circle cx="534" cy="356" r="10" class="c0"/>
<circle cx="1610" cy="1122" r="10" class="c0"/>
<circle cx="834" cy="1318" r="10" class="c0"/>
<circle cx="498" cy="332" r="10" class="c0"/>
<circle cx="400" cy="314" r="10" class="c0"/>
<circle cx="452" cy="322" r="10" class="c0"/>
<circle cx="374" cy="298" r="10" class="c0"/>
<circle cx="366" cy="272" r="10" class="c0"/>
<circle cx="1420" cy="1416" r="10" class="c0"/>
<circle cx="1660" cy="1150" r="10" class="c0"/>
<circle cx="544" cy="332" r="10" class="c0"/>
<circle cx="960" cy="1372" r="10" class="c0"/>
<circle cx="508" cy="360" r="10" class="c0"/>
<circle cx="472" cy="342" r="10" class="c0"/>
<circle cx="1660" cy="1426" r="10" class="c0"/>
<circle cx="826" cy="1426" r="10" class="c0"/>
<circle cx="1452" cy="1018" r="10" class="c0"/>
<circle cx="424" cy="246" r="10" class="c0"/>
<circle cx="552" cy="366" r="10" class="c0"/>
<circle cx="408" cy="336" r="10" class="c0"/>
<circle cx="1506" cy="1380" r="10" class="c0"/>
<circle cx="852" cy="1428" r="10" class="c0"/>
<circle cx="1624" cy="1148" r="10" class="c0"/>
<circle cx="1634" cy="1130" r="10" class="c0"/>
<circle cx="1394" cy="1424" r="10" class="c0"/>
<circle cx="1552" cy="1082" r="10" class="c0"/>
<circle cx="880" cy="1350" r="10" class="c0"/>
<circle cx="1898" cy="1428" r="10" class="c0"/>
<circle cx="1470" cy="1380" r="10" class="c0"/>
<circle cx="400" cy="268" r="10" class="c0"/>
<circle cx="764" cy="1386" r="10" class="c0"/>
<circle cx="1592" cy="1150" r="10" class="c0"/>
<circle cx="1636" cy="1428" r="10" class="c0"/>
<circle cx="686" cy="1322" r="10" class="c0"/>
<circle cx="1574" cy="1134" r="10" class="c0"/>
<circle cx="1424" cy="1378" r="10" class="c0"/>
<circle cx="836" cy="1408" r="10" class="c0"/>
<circle cx="670" cy="1288" r="10" class="c0"/>
<circle cx="692" cy="1374" r="10" class="c0"/>
<circle cx="1640" cy="1160" r="10" class="c0"/>
<circle cx="444" cy="272" r="10" class="c0"/>
<circle cx="366" cy="328" r="10" class="c0"/>
<circle cx="648" cy="1316" r="10" class="c0"/>
<circle cx="1532" cy="1388" r="10" class="c0"/>
<circle cx="420" cy="322" r="10" class="c0"/>
<circle cx="528" cy="384" r="10" class="c0"/>
<circle cx="1470" cy="1052" r="8" class="c0"/>
<circle cx="1398" cy="1378" r="8" class="c0"/>
<circle cx="1458" cy="1038" r="8" class="c0"/>
<circle cx="1480" cy="1400" r="8" class="c0"/>
<circle cx="1552" cy="1134" r="8" class="c0"/>
<circle cx="406" cy="292" r="8" class="c0"/>
<circle cx="1040" cy="1404" r="8" class="c0"/>
<circle cx="1530" cy="1104" r="8" class="c0"/>
<circle cx="660" cy="1304" r="8" class="c0"/>
<circle cx="902" cy="1430" r="8" class="c0"/>
<circle cx="944" cy="1362" r="8" class="c0"/>
<circle cx="800" cy="1426" r="8" class="c0"/>
<circle cx="1656" cy="1394" r="8" class="c0"/>
<circle cx="486" cy="272" r="8" class="c0"/>
<circle cx="716" cy="1350" r="8" class="c0"/>
<circle cx="1522" cy="1412" r="8" class="c0"/>
<circle cx="570" cy="358" r="8" class="c0"/>
<circle cx="814" cy="1296" r="8" class="c0"/>
<circle cx="892" cy="1416" r="8" class="c0"/>
<circle cx="1410" cy="1392" r="8" class="c0"/>
<circle cx="1856" cy="1428" r="8" class="c0"/>
<circle cx="1540" cy="1118" r="8" class="c0"/>
<circle cx="1394" cy="1402" r="8" class="c0"/>
<circle cx="874" cy="1426" r="8" class="c0"/>
<circle cx="938" cy="1420" r="8" class="c0"/>
<circle cx="1488" cy="1372" r="8" class="c0"/>
<circle cx="1616" cy="1404" r="8" class="c0"/>
<circle cx="984" cy="1410" r="8" class="c0"/>
<circle cx="1684" cy="1176" r="8" class="c0"/>
<circle cx="900" cy="1346" r="8" class="c0"/>
<circle cx="578" cy="380" r="8" class="c0"/>
<circle cx="1412" cy="1360" r="8" class="c0"/>
<circle cx="402" cy="242" r="8" class="c0"/>
<circle cx="744" cy="1398" r="8" class="c0"/>
<circle cx="320" cy="318" r="8" class="c0"/>
<circle cx="1558" cy="1428" r="8" class="c0"/>
<circle cx="1506" cy="1098" r="8" class="c0"/>
<circle cx="666" cy="1372" r="8" class="c0"/>
<circle cx="476" cy="314" r="8" class="c0"/>
<circle cx="446" cy="342" r="8" class="c0"/>
<circle cx="1360" cy="1414" r="8" class="c0"/>
<circle cx="778" cy="1408" r="8" class="c0"/>
<circle cx="1486" cy="1430" r="8" class="c0"/>
<circle cx="974" cy="1388" r="8" class="c0"/>
<circle cx="982" cy="1370" r="8" class="c0"/>
<circle cx="1524" cy="1430" r="8" class="c0"/>
<circle cx="1454" cy="1368" r="8" class="c0"/>
<circle cx="696" cy="1338" r="8" class="c0"/>
<circle cx="1052" cy="1420" r="8" class="c0"/>
<circle cx="810" cy="1398" r="8" class="c0"/>
<circle cx="696" cy="1422" r="8" class="c0"/>
<circle cx="1100" cy="1422" r="8" class="c0"/>
<circle cx="1380" cy="1370" r="8" class="c0"/>
<circle cx="536" cy="414" r="8" class="c0"/>
<circle cx="1572" cy="1086" r="8" class="c0"/>
<circle cx="722" cy="1430" r="8" class="c0"/>
<circle cx="558" cy="344" r="8" class="c0"/>
<circle cx="1018" cy="1390" r="8" class="c0"/>
<circle cx="522" cy="302" r="8" class="c0"/>
<circle cx="656" cy="1336" r="8" class="c0"/>
<circle cx="1674" cy="1164" r="8" class="c0"/>
<circle cx="646" cy="1284" r="8" class="c0"/>
<circle cx="674" cy="1388" r="8" class="c0"/>
<circle cx="378" cy="256" r="8" class="c0"/>
<circle cx="1552" cy="1386" r="8" class="c0"/>
<circle cx="388" cy="328" r="8" class="c0"/>
<circle cx="1368" cy="1384" r="8" class="c0"/>
<circle cx="706" cy="1360" r="8" class="c0"/>
<circle cx="346" cy="270" r="8" class="c0"/>
<circle cx="1072" cy="1404" r="8" class="c0"/>
<circle cx="770" cy="1264" r="8" class="c0"/>
<circle cx="1822" cy="1430" r="8" class="c0"/>
<circle cx="984" cy="1430" r="8" class="c0"/>
<circle cx="488" cy="356" r="8" class="c0"/>
<circle cx="574" cy="418" r="8" class="c0"/>
<circle cx="922" cy="1430" r="8" class="c0"/>
<circle cx="1516" cy="1054" r="8" class="c0"/>
<circle cx="1626" cy="1388" r="8" class="c0"/>
<circle cx="1466" cy="1356" r="8" class="c0"/>
<circle cx="682" cy="1302" r="8" class="c0"/>
<circle cx="1494" cy="1088" r="8" class="c0"/>
<circle cx="702" cy="1392" r="8" class="c0"/>
<circle cx="1648" cy="1414" r="8" class="c0"/>
<circle cx="416" cy="302" r="8" class="c0"/>
<circle cx="1432" cy="1014" r="8" class="c0"/>
<circle cx="632" cy="1262" r="8" class="c0"/>
<circle cx="1656" cy="1170" r="8" class="c0"/>
<circle cx="1874" cy="1410" r="8" class="c0"/>
<circle cx="880" cy="1372" r="8" class="c0"/>
<circle cx="1410" cy="1342" r="8" class="c0"/>
<circle cx="328" cy="276" r="8" class="c0"/>
<circle cx="548" cy="386" r="8" class="c0"/>
<circle cx="386" cy="284" r="8" class="c0"/>
<circle cx="444" cy="250" r="8" class="c0"/>
<circle cx="666" cy="1326" r="8" class="c0"/>
<circle cx="498" cy="282" r="8" class="c0"/>
<circle cx="732" cy="1366" r="8" class="c0"/>
<circle cx="654" cy="1358" r="8" class="c0"/>
<circle cx="828" cy="1384" r="8" class="c0"/>
<circle cx="638" cy="1300" r="8" class="c0"/>
<circle cx="862" cy="1410" r="8" class="c0"/>
<circle cx="1020" cy="1408" r="8" class="c0"/>
<circle cx="1596" cy="1392" r="8" class="c0"/>
<circle cx="1580" cy="1430" r="8" class="c0"/>
<circle cx="706" cy="1432" r="6" class="c0"/>
<circle cx="798" cy="1408" r="6" class="c0"/>
<circle cx="1508" cy="1426" r="6" class="c0"/>
<circle cx="1492" cy="1390" r="6" class="c0"/>
<circle cx="1534" cy="1072" r="6" class="c0"/>
<circle cx="430" cy="340" r="6" class="c0"/>
<circle cx="1650" cy="1368" r="6" class="c0"/>
<circle cx="760" cy="1406" r="6" class="c0"/>
<circle cx="1410" cy="1432" r="6" class="c0"/>
<circle cx="1084" cy="1418" r="6" class="c0"/>
<circle cx="1004" cy="1398" r="6" class="c0"/>
<circle cx="1586" cy="1094" r="6" class="c0"/>
<circle cx="538" cy="314" r="6" class="c0"/>
<circle cx="1118" cy="1432" r="6" class="c0"/>
<circle cx="1596" cy="1132" r="6" class="c0"/>
<circle cx="512" cy="292" r="6" class="c0"/>
<circle cx="742" cy="1378" r="6" class="c0"/>
<circle cx="812" cy="1312" r="6" class="c0"/>
<circle cx="338" cy="322" r="6" class="c0"/>
<circle cx="620" cy="1242" r="6" class="c0"/>
<circle cx="1614" cy="1162" r="6" class="c0"/>
<circle cx="840" cy="1338" r="6" class="c0"/>
<circle cx="516" cy="344" r="6" class="c0"/>
<circle cx="848" cy="1396" r="6" class="c0"/>
<circle cx="858" cy="1356" r="6" class="c0"/>
<circle cx="782" cy="1432" r="6" class="c0"/>
<circle cx="846" cy="1306" r="6" class="c0"/>
<circle cx="1874" cy="1428" r="6" class="c0"/>
<circle cx="1376" cy="1430" r="6" class="c0"/>
<circle cx="1396" cy="1356" r="6" class="c0"/>
<circle cx="858" cy="1316" r="6" class="c0"/>
<circle cx="788" cy="1266" r="6" class="c0"/>
<circle cx="1088" cy="1432" r="6" class="c0"/>
<circle cx="378" cy="316" r="6" class="c0"/>
<circle cx="628" cy="1310" r="6" class="c0"/>
<circle cx="1834" cy="1416" r="6" class="c0"/>
<circle cx="356" cy="286" r="6" class="c0"/>
<circle cx="1460" cy="1430" r="6" class="c0"/>
<circle cx="1018" cy="1432" r="6" class="c0"/>
<circle cx="1658" cy="1378" r="6" class="c0"/>
<circle cx="1514" cy="1396" r="6" class="c0"/>
<circle cx="1608" cy="1140" r="6" class="c0"/>
<circle cx="964" cy="1398" r="6" class="c0"/>
<circle cx="1666" cy="1406" r="6" class="c0"/>
<circle cx="1458" cy="1408" r="6" class="c0"/>
<circle cx="812" cy="1416" r="6" class="c0"/>
<circle cx="894" cy="1362" r="6" class="c0"/>
<circle cx="1526" cy="1064" r="6" class="c0"/>
<circle cx="912" cy="1420" r="6" class="c0"/>
<circle cx="1378" cy="1398" r="6" class="c0"/>
<circle cx="948" cy="1432" r="6" class="c0"/>
<circle cx="428" cy="264" r="6" class="c0"/>
<circle cx="1416" cy="1000" r="6" class="c0"/>
<circle cx="1540" cy="1094" r="6" class="c0"/>
<circle cx="1576" cy="1382" r="6" class="c0"/>
<circle cx="1442" cy="1032" r="6" class="c0"/>
<circle cx="1384" cy="1348" r="6" class="c0"/>
<circle cx="348" cy="330" r="6" class="c0"/>
<circle cx="584" cy="396" r="6" class="c0"/>
<circle cx="648" cy="1264" r="6" class="c0"/>
<circle cx="1542" cy="1432" r="6" class="c0"/>
<circle cx="788" cy="1398" r="6" class="c0"/>
<circle cx="1426" cy="1346" r="6" class="c0"/>
<circle cx="1430" cy="996" r="6" class="c0"/>
<circle cx="1608" cy="1368" r="6" class="c0"/>
<circle cx="1472" cy="1068" r="6" class="c0"/>
<circle cx="890" cy="1336" r="6" class="c0"/>
</svg>
