<?xml version="1.0" encoding="utf-8"?>
<svg xmlns="http://www.w3.org/2000/svg"
     xmlns:xlink="http://www.w3.org/1999/xlink" width="1920" height="1440" >

            <defs>
            <style type="text/css"><![CDATA[
circle {stroke: none;}
.c0 {fill: #FFFFFF;}
]]></style>
            </defs>
<rect x="0" y="0" width="1920" height="1440" fill="black"/>
<circle cx="1702" cy="1248" r="14" class="c0"/>
<circle cx="492" cy="464" r="14" class="c0"/>
<circle cx="674" cy="410" r="12" class="c0"/>
<circle cx="572" cy="320" r="12" class="c0"/>
<circle cx="706" cy="400" r="12" class="c0"/>
<circle cx="576" cy="282" r="12" class="c0"/>
<circle cx="502" cy="394" r="12" class="c0"/>
<circle cx="598" cy="426" r="12" class="c0"/>
<circle cx="1804" cy="1296" r="12" class="c0"/>
<circle cx="1768" cy="1264" r="12" class="c0"/>
<circle cx="626" cy="376" r="12" class="c0"/>
<circle cx="568" cy="420" r="12" class="c0"/>
<circle cx="520" cy="366" r="12" class="c0"/>
<circle cx="508" cy="334" r="12" class="c0"/>
<circle cx="1834" cy="1326" r="10" class="c0"/>
<circle cx="1716" cy="1266" r="10" class="c0"/>
<circle cx="602" cy="342" r="10" class="c0"/>
<circle cx="1648" cy="1208" r="10" class="c0"/>
<circle cx="692" cy="382" r="10" class="c0"/>
<circle cx="552" cy="360" r="10" class="c0"/>
<circle cx="544" cy="392" r="10" class="c0"/>
<circle cx="662" cy="314" r="10" class="c0"/>
<circle cx="522" cy="310" r="10" class="c0"/>
<circle cx="640" cy="312" r="10" class="c0"/>
<circle cx="630" cy="350" r="10" class="c0"/>
<circle cx="662" cy="374" r="10" class="c0"/>
<circle cx="644" cy="336" r="10" class="c0"/>
<circle cx="592" cy="368" r="10" class="c0"/>
<circle cx="516" cy="410" r="10" class="c0"/>
<circle cx="520" cy="470" r="10" class="c0"/>
<circle cx="708" cy="368" r="10" class="c0"/>
<circle cx="622" cy="400" r="10" class="c0"/>
<circle cx="686" cy="336" r="10" class="c0"/>
<circle cx="548" cy="302" r="10" class="c0"/>
<circle cx="500" cy="422" r="10" class="c0"/>
<circle cx="1728" cy="1280" r="10" class="c0"/>
<circle cx="618" cy="306" r="10" class="c0"/>
<circle cx="544" cy="332" r="10" class="c0"/>
<circle cx="542" cy="436" r="10" class="c0"/>
<circle cx="484" cy="438" r="10" class="c0"/>
<circle cx="464" cy="510" r="10" class="c0"/>
<circle cx="574" cy="392" r="10" class="c0"/>
<circle cx="1764" cy="1294" r="10" class="c0"/>
<circle cx="596" cy="300" r="10" class="c0"/>
<circle cx="1812" cy="1322" r="10" class="c0"/>
<circle cx="1620" cy="1174" r="8" class="c0"/>
<circle cx="1750" cy="1280" r="8" class="c0"/>
<circle cx="500" cy="492" r="8" class="c0"/>
<circle cx="546" cy="468" r="8" class="c0"/>
<circle cx="572" cy="350" r="8" class="c0"/>
<circle cx="682" cy="360" r="8" class="c0"/>
<circle cx="1786" cy="1276" r="8" class="c0"/>
<circle cx="586" cy="408" r="8" class="c0"/>
<circle cx="610" cy="282" r="8" class="c0"/>
<circle cx="620" cy="328" r="8" class="c0"/>
<circle cx="600" cy="322" r="8" class="c0"/>
<circle cx="664" cy="340" r="8" class="c0"/>
<circle cx="652" cy="422" r="8" class="c0"/>
<circle cx="1844" cy="1310" r="8" class="c0"/>
<circle cx="610" cy="388" r="8" class="c0"/>
<circle cx="1722" cy="1236" r="8" class="c0"/>
<circle cx="534" cy="350" r="8" class="c0"/>
<circle cx="468" cy="476" r="8" class="c0"/>
<circle cx="492" cy="348" r="8" class="c0"/>
<circle cx="496" cy="304" r="8" class="c0"/>
<circle cx="626" cy="428" r="8" class="c0"/>
<circle cx="482" cy="404" r="8" class="c0"/>
<circle cx="520" cy="432" r="8" class="c0"/>
<circle cx="630" cy="290" r="8" class="c0"/>
<circle cx="582" cy="338" r="8" class="c0"/>
<circle cx="556" cy="454" r="8" class="c0"/>
<circle cx="1630" cy="1194" r="8" class="c0"/>
<circle cx="460" cy="404" r="8" class="c0"/>
<circle cx="1678" cy="1252" r="8" class="c0"/>
<circle cx="638" cy="412" r="8" class="c0"/>
<circle cx="538" cy="286" r="8" class="c0"/>
<circle cx="648" cy="400" r="8" class="c0"/>
<circle cx="1858" cy="1332" r="8" class="c0"/>
<circle cx="504" cy="442" r="8" class="c0"/>
<circle cx="444" cy="458" r="8" class="c0"/>
<circle cx="524" cy="388" r="8" class="c0"/>
<circle cx="658" cy="290" r="8" class="c0"/>
<circle cx="460" cy="424" r="8" class="c0"/>
<circle cx="536" cy="458" r="8" class="c0"/>
<circle cx="498" cy="368" r="8" class="c0"/>
<circle cx="562" cy="340" r="8" class="c0"/>
<circle cx="1754" cy="1250" r="8" class="c0"/>
<circle cx="1672" cy="1234" r="8" class="c0"/>
<circle cx="480" cy="490" r="8" class="c0"/>
<circle cx="478" cy="360" r="8" class="c0"/>
<circle cx="574" cy="448" r="8" class="c0"/>
<circle cx="1604" cy="1162" r="8" class="c0"/>
<circle cx="654" cy="352" r="8" class="c0"/>
<circle cx="1780" cy="1310" r="8" class="c0"/>
<circle cx="520" cy="280" r="8" class="c0"/>
<circle cx="614" cy="360" r="8" class="c0"/>
<circle cx="1738" cy="1262" r="8" class="c0"/>
<circle cx="1592" cy="1142" r="6" class="c0"/>
<circle cx="548" cy="410" r="6" class="c0"/>
<circle cx="596" cy="396" r="6" class="c0"/>
<circle cx="474" cy="386" r="6" class="c0"/>
<circle cx="470" cy="456" r="6" class="c0"/>
<circle cx="1746" cy="1300" r="6" class="c0"/>
<circle cx="480" cy="420" r="6" class="c0"/>
<circle cx="458" cy="440" r="6" class="c0"/>
<circle cx="1736" cy="1246" r="6" class="c0"/>
<circle cx="1794" cy="1318" r="6" class="c0"/>
<circle cx="1870" cy="1342" r="6" class="c0"/>
<circle cx="696" cy="350" r="6" class="c0"/>
<circle cx="536" cy="418" r="6" class="c0"/>
<circle cx="1820" cy="1306" r="6" class="c0"/>
<circle cx="616" cy="418" r="6" class="c0"/>
<circle cx="482" cy="506" r="6" class="c0"/>
<circle cx="516" cy="452" r="6" class="c0"/>
<circle cx="554" cy="282" r="6" class="c0"/>
<circle cx="590" cy="444" r="6" class="c0"/>
<circle cx="504" cy="290" r="6" class="c0"/>
<circle cx="454" cy="494" r="6" class="c0"/>
<circle cx="680" cy="306" r="6" class="c0"/>
<circle cx="670" cy="390" r="6" class="c0"/>
<circle cx="644" cy="368" r="6" class="c0"/>
<circle cx="568" cy="300" r="6" class="c0"/>
<circle cx="1830" cy="1294" r="6" class="c0"/>
<circle cx="1742" cy="1234" r="6" class="c0"/>
<circle cx="1662" cy="1224" r="6" class="c0"/>
<circle cx="720" cy="412" r="6" class="c0"/>
<circle cx="696" cy="416" r="6" class="c0"/>
<circle cx="566" cy="376" r="6" class="c0"/>
<circle cx="608" cy="410" r="6" class="c0"/>
<circle cx="1688" cy="1262" r="6" class="c0"/>
<circle cx="638" cy="390" r="6" class="c0"/>
<circle cx="536" cy="376" r="6" class="c0"/>
<circle cx="486" cy="380" r="6" class="c0"/>
<circle cx="574" cy="366" r="6" class="c0"/>
<circle cx="448" cy="518" r="6" class="c0"/>
<circle cx="1684" cy="1222" r="6" class="c0"/>
<circle cx="688" cy="316" r="6" class="c0"/>
<circle cx="716" cy="384" r="6" class="c0"/>
<circle cx="452" cy="474" r="6" class="c0"/>
<circle cx="560" cy="438" r="6" class="c0"/>
<circle cx="1654" cy="1234" r="6" class="c0"/>
<circle cx="492" cy="324" r="6" class="c0"/>
</svg>
