<?xml version="1.0" encoding="utf-8"?>
<svg xmlns="http://www.w3.org/2000/svg"
     xmlns:xlink="http://www.w3.org/1999/xlink" width="1920" height="1440" >

            <defs>
            <style type="text/css"><![CDATA[
circle {stroke: none;}
.c0 {fill: #FFFFFF;}
]]></style>
            </defs>
<rect x="0" y="0" width="1920" height="1440" fill="black"/>
<circle cx="704" cy="324" r="12" class="c0"/>
<circle cx="648" cy="596" r="12" class="c0"/>
<circle cx="668" cy="288" r="12" class="c0"/>
<circle cx="628" cy="382" r="12" class="c0"/>
<circle cx="688" cy="496" r="12" class="c0"/>
<circle cx="616" cy="410" r="12" class="c0"/>
<circle cx="642" cy="436" r="12" class="c0"/>
<circle cx="630" cy="462" r="12" class="c0"/>
<circle cx="650" cy="548" r="12" class="c0"/>
<circle cx="694" cy="426" r="12" class="c0"/>
<circle cx="638" cy="576" r="10" class="c0"/>
<circle cx="712" cy="528" r="10" class="c0"/>
<circle cx="702" cy="382" r="10" class="c0"/>
<circle cx="636" cy="528" r="10" class="c0"/>
<circle cx="760" cy="422" r="10" class="c0"/>
<circle cx="658" cy="640" r="10" class="c0"/>
<circle cx="596" cy="372" r="10" class="c0"/>
<circle cx="750" cy="362" r="10" class="c0"/>
<circle cx="738" cy="406" r="10" class="c0"/>
<circle cx="720" cy="438" r="10" class="c0"/>
<circle cx="648" cy="326" r="10" class="c0"/>
<circle cx="696" cy="588" r="10" class="c0"/>
<circle cx="656" cy="472" r="10" class="c0"/>
<circle cx="742" cy="384" r="10" class="c0"/>
<circle cx="668" cy="434" r="10" class="c0"/>
<circle cx="606" cy="390" r="10" class="c0"/>
<circle cx="664" cy="412" r="10" class="c0"/>
<circle cx="684" cy="612" r="10" class="c0"/>
<circle cx="682" cy="450" r="10" class="c0"/>
<circle cx="664" cy="566" r="10" class="c0"/>
<circle cx="748" cy="438" r="10" class="c0"/>
<circle cx="684" cy="342" r="10" class="c0"/>
<circle cx="1816" cy="1350" r="10" class="c0"/>
<circle cx="1838" cy="1380" r="10" class="c0"/>
<circle cx="750" cy="468" r="10" class="c0"/>
<circle cx="720" cy="498" r="10" class="c0"/>
<circle cx="622" cy="486" r="10" class="c0"/>
<circle cx="672" cy="628" r="10" class="c0"/>
<circle cx="672" cy="326" r="10" class="c0"/>
<circle cx="770" cy="376" r="10" class="c0"/>
<circle cx="802" cy="416" r="10" class="c0"/>
<circle cx="604" cy="554" r="10" class="c0"/>
<circle cx="640" cy="358" r="10" class="c0"/>
<circle cx="1872" cy="1422" r="10" class="c0"/>
<circle cx="654" cy="516" r="10" class="c0"/>
<circle cx="664" cy="354" r="8" class="c0"/>
<circle cx="724" cy="366" r="8" class="c0"/>
<circle cx="620" cy="352" r="8" class="c0"/>
<circle cx="606" cy="450" r="8" class="c0"/>
<circle cx="658" cy="496" r="8" class="c0"/>
<circle cx="732" cy="480" r="8" class="c0"/>
<circle cx="716" cy="472" r="8" class="c0"/>
<circle cx="1892" cy="1418" r="8" class="c0"/>
<circle cx="706" cy="360" r="8" class="c0"/>
<circle cx="674" cy="540" r="8" class="c0"/>
<circle cx="704" cy="458" r="8" class="c0"/>
<circle cx="656" cy="618" r="8" class="c0"/>
<circle cx="692" cy="400" r="8" class="c0"/>
<circle cx="690" cy="304" r="8" class="c0"/>
<circle cx="730" cy="518" r="8" class="c0"/>
<circle cx="654" cy="384" r="8" class="c0"/>
<circle cx="744" cy="496" r="8" class="c0"/>
<circle cx="776" cy="436" r="8" class="c0"/>
<circle cx="1858" cy="1386" r="8" class="c0"/>
<circle cx="706" cy="556" r="8" class="c0"/>
<circle cx="608" cy="328" r="8" class="c0"/>
<circle cx="614" cy="522" r="8" class="c0"/>
<circle cx="754" cy="396" r="8" class="c0"/>
<circle cx="684" cy="572" r="8" class="c0"/>
<circle cx="1800" cy="1336" r="8" class="c0"/>
<circle cx="712" cy="412" r="8" class="c0"/>
<circle cx="636" cy="338" r="8" class="c0"/>
<circle cx="1874" cy="1400" r="8" class="c0"/>
<circle cx="612" cy="502" r="8" class="c0"/>
<circle cx="618" cy="432" r="8" class="c0"/>
<circle cx="716" cy="346" r="8" class="c0"/>
<circle cx="672" cy="508" r="8" class="c0"/>
<circle cx="642" cy="504" r="8" class="c0"/>
<circle cx="674" cy="382" r="8" class="c0"/>
<circle cx="766" cy="446" r="8" class="c0"/>
<circle cx="732" cy="456" r="8" class="c0"/>
<circle cx="792" cy="394" r="8" class="c0"/>
<circle cx="638" cy="408" r="8" class="c0"/>
<circle cx="592" cy="460" r="8" class="c0"/>
<circle cx="590" cy="408" r="8" class="c0"/>
<circle cx="684" cy="366" r="8" class="c0"/>
<circle cx="672" cy="594" r="8" class="c0"/>
<circle cx="682" cy="522" r="8" class="c0"/>
<circle cx="668" cy="666" r="8" class="c0"/>
<circle cx="738" cy="348" r="8" class="c0"/>
<circle cx="620" cy="542" r="8" class="c0"/>
<circle cx="626" cy="512" r="8" class="c0"/>
<circle cx="1844" cy="1402" r="8" class="c0"/>
<circle cx="1856" cy="1412" r="8" class="c0"/>
<circle cx="670" cy="486" r="8" class="c0"/>
<circle cx="652" cy="302" r="8" class="c0"/>
<circle cx="596" cy="346" r="8" class="c0"/>
<circle cx="688" cy="470" r="8" class="c0"/>
<circle cx="782" cy="404" r="8" class="c0"/>
<circle cx="620" cy="620" r="8" class="c0"/>
<circle cx="620" cy="600" r="8" class="c0"/>
<circle cx="702" cy="482" r="8" class="c0"/>
<circle cx="1908" cy="1432" r="6" class="c0"/>
<circle cx="720" cy="388" r="6" class="c0"/>
<circle cx="1912" cy="1414" r="6" class="c0"/>
<circle cx="622" cy="562" r="6" class="c0"/>
<circle cx="780" cy="420" r="6" class="c0"/>
<circle cx="702" cy="512" r="6" class="c0"/>
<circle cx="690" cy="548" r="6" class="c0"/>
<circle cx="602" cy="422" r="6" class="c0"/>
<circle cx="660" cy="450" r="6" class="c0"/>
<circle cx="584" cy="432" r="6" class="c0"/>
<circle cx="732" cy="326" r="6" class="c0"/>
<circle cx="634" cy="610" r="6" class="c0"/>
<circle cx="642" cy="482" r="6" class="c0"/>
<circle cx="630" cy="554" r="6" class="c0"/>
<circle cx="602" cy="484" r="6" class="c0"/>
<circle cx="624" cy="314" r="6" class="c0"/>
<circle cx="634" cy="302" r="6" class="c0"/>
<circle cx="1790" cy="1322" r="6" class="c0"/>
<circle cx="1824" cy="1370" r="6" class="c0"/>
<circle cx="722" cy="546" r="6" class="c0"/>
<circle cx="1912" cy="1396" r="6" class="c0"/>
<circle cx="674" cy="650" r="6" class="c0"/>
<circle cx="708" cy="572" r="6" class="c0"/>
<circle cx="620" cy="582" r="6" class="c0"/>
<circle cx="608" cy="472" r="6" class="c0"/>
<circle cx="640" cy="634" r="6" class="c0"/>
<circle cx="792" cy="432" r="6" class="c0"/>
<circle cx="1832" cy="1362" r="6" class="c0"/>
<circle cx="598" cy="578" r="6" class="c0"/>
<circle cx="776" cy="458" r="6" class="c0"/>
<circle cx="754" cy="486" r="6" class="c0"/>
<circle cx="726" cy="420" r="6" class="c0"/>
<circle cx="654" cy="658" r="6" class="c0"/>
<circle cx="660" cy="682" r="6" class="c0"/>
<circle cx="724" cy="318" r="6" class="c0"/>
<circle cx="662" cy="312" r="6" class="c0"/>
<circle cx="656" cy="368" r="6" class="c0"/>
<circle cx="630" cy="422" r="6" class="c0"/>
<circle cx="694" cy="532" r="6" class="c0"/>
<circle cx="1798" cy="1352" r="6" class="c0"/>
</svg>
