<?xml version="1.0" encoding="utf-8"?>
<svg xmlns="http://www.w3.org/2000/svg"
     xmlns:xlink="http://www.w3.org/1999/xlink" width="1920" height="1440" >

            <defs>
            <style type="text/css"><![CDATA[
circle {stroke: none;}
.c0 {fill: #FFFFFF;}
]]></style>
            </defs>
<rect x="0" y="0" width="1920" height="1440" fill="black"/>
<circle cx="754" cy="544" r="12" class="c0"/>
<circle cx="716" cy="482" r="12" class="c0"/>
<circle cx="654" cy="452" r="12" class="c0"/>
<circle cx="716" cy="386" r="12" class="c0"/>
<circle cx="768" cy="674" r="12" class="c0"/>
<circle cx="706" cy="350" r="12" class="c0"/>
<circle cx="694" cy="534" r="12" class="c0"/>
<circle cx="752" cy="650" r="12" class="c0"/>
<circle cx="702" cy="580" r="12" class="c0"/>
<circle cx="636" cy="382" r="12" class="c0"/>
<circle cx="688" cy="500" r="12" class="c0"/>
<circle cx="748" cy="606" r="12" class="c0"/>
<circle cx="760" cy="424" r="12" class="c0"/>
<circle cx="758" cy="518" r="10" class="c0"/>
<circle cx="720" cy="534" r="10" class="c0"/>
<circle cx="692" cy="414" r="10" class="c0"/>
<circle cx="784" cy="688" r="10" class="c0"/>
<circle cx="818" cy="446" r="10" class="c0"/>
<circle cx="732" cy="422" r="10" class="c0"/>
<circle cx="762" cy="384" r="10" class="c0"/>
<circle cx="732" cy="580" r="10" class="c0"/>
<circle cx="658" cy="422" r="10" class="c0"/>
<circle cx="784" cy="482" r="10" class="c0"/>
<circle cx="672" cy="478" r="10" class="c0"/>
<circle cx="676" cy="340" r="10" class="c0"/>
<circle cx="742" cy="396" r="10" class="c0"/>
<circle cx="750" cy="448" r="10" class="c0"/>
<circle cx="806" cy="426" r="10" class="c0"/>
<circle cx="774" cy="560" r="10" class="c0"/>
<circle cx="694" cy="474" r="10" class="c0"/>
<circle cx="664" cy="386" r="10" class="c0"/>
<circle cx="788" cy="410" r="10" class="c0"/>
<circle cx="726" cy="618" r="10" class="c0"/>
<circle cx="760" cy="586" r="10" class="c0"/>
<circle cx="786" cy="622" r="10" class="c0"/>
<circle cx="726" cy="464" r="8" class="c0"/>
<circle cx="678" cy="562" r="8" class="c0"/>
<circle cx="696" cy="368" r="8" class="c0"/>
<circle cx="780" cy="584" r="8" class="c0"/>
<circle cx="688" cy="440" r="8" class="c0"/>
<circle cx="738" cy="366" r="8" class="c0"/>
<circle cx="720" cy="512" r="8" class="c0"/>
<circle cx="730" cy="550" r="8" class="c0"/>
<circle cx="774" cy="446" r="8" class="c0"/>
<circle cx="784" cy="432" r="8" class="c0"/>
<circle cx="798" cy="496" r="8" class="c0"/>
<circle cx="742" cy="668" r="8" class="c0"/>
<circle cx="642" cy="434" r="8" class="c0"/>
<circle cx="714" cy="598" r="8" class="c0"/>
<circle cx="790" cy="540" r="8" class="c0"/>
<circle cx="624" cy="446" r="8" class="c0"/>
<circle cx="1882" cy="1422" r="8" class="c0"/>
<circle cx="764" cy="708" r="8" class="c0"/>
<circle cx="696" cy="616" r="8" class="c0"/>
<circle cx="788" cy="666" r="8" class="c0"/>
<circle cx="736" cy="496" r="8" class="c0"/>
<circle cx="1878" cy="1402" r="8" class="c0"/>
<circle cx="720" cy="444" r="8" class="c0"/>
<circle cx="672" cy="544" r="8" class="c0"/>
<circle cx="654" cy="350" r="8" class="c0"/>
<circle cx="758" cy="466" r="8" class="c0"/>
<circle cx="770" cy="402" r="8" class="c0"/>
<circle cx="774" cy="646" r="8" class="c0"/>
<circle cx="714" cy="634" r="8" class="c0"/>
<circle cx="1902" cy="1424" r="8" class="c0"/>
<circle cx="782" cy="508" r="8" class="c0"/>
<circle cx="662" cy="508" r="8" class="c0"/>
<circle cx="678" cy="370" r="8" class="c0"/>
<circle cx="796" cy="454" r="8" class="c0"/>
<circle cx="620" cy="414" r="8" class="c0"/>
<circle cx="758" cy="496" r="8" class="c0"/>
<circle cx="632" cy="474" r="8" class="c0"/>
<circle cx="646" cy="410" r="8" class="c0"/>
<circle cx="746" cy="696" r="8" class="c0"/>
<circle cx="698" cy="454" r="8" class="c0"/>
<circle cx="810" cy="474" r="8" class="c0"/>
<circle cx="760" cy="622" r="8" class="c0"/>
<circle cx="682" cy="394" r="8" class="c0"/>
<circle cx="750" cy="566" r="8" class="c0"/>
<circle cx="720" cy="364" r="8" class="c0"/>
<circle cx="656" cy="368" r="8" class="c0"/>
<circle cx="708" cy="434" r="8" class="c0"/>
<circle cx="672" cy="404" r="8" class="c0"/>
<circle cx="664" cy="324" r="8" class="c0"/>
<circle cx="722" cy="652" r="8" class="c0"/>
<circle cx="786" cy="710" r="8" class="c0"/>
<circle cx="662" cy="528" r="8" class="c0"/>
<circle cx="648" cy="486" r="8" class="c0"/>
<circle cx="748" cy="478" r="8" class="c0"/>
<circle cx="734" cy="522" r="8" class="c0"/>
<circle cx="776" cy="606" r="8" class="c0"/>
<circle cx="686" cy="602" r="8" class="c0"/>
<circle cx="720" cy="564" r="6" class="c0"/>
<circle cx="622" cy="430" r="6" class="c0"/>
<circle cx="776" cy="464" r="6" class="c0"/>
<circle cx="700" cy="396" r="6" class="c0"/>
<circle cx="714" cy="416" r="6" class="c0"/>
<circle cx="790" cy="568" r="6" class="c0"/>
<circle cx="642" cy="502" r="6" class="c0"/>
<circle cx="690" cy="330" r="6" class="c0"/>
<circle cx="698" cy="558" r="6" class="c0"/>
<circle cx="680" cy="460" r="6" class="c0"/>
<circle cx="704" cy="514" r="6" class="c0"/>
<circle cx="1894" cy="1406" r="6" class="c0"/>
<circle cx="740" cy="632" r="6" class="c0"/>
<circle cx="1856" cy="1388" r="6" class="c0"/>
<circle cx="770" cy="530" r="6" class="c0"/>
<circle cx="792" cy="524" r="6" class="c0"/>
<circle cx="802" cy="516" r="6" class="c0"/>
<circle cx="678" cy="428" r="6" class="c0"/>
<circle cx="708" cy="546" r="6" class="c0"/>
<circle cx="670" cy="442" r="6" class="c0"/>
<circle cx="682" cy="520" r="6" class="c0"/>
<circle cx="662" cy="554" r="6" class="c0"/>
<circle cx="790" cy="640" r="6" class="c0"/>
<circle cx="682" cy="578" r="6" class="c0"/>
<circle cx="708" cy="404" r="6" class="c0"/>
<circle cx="724" cy="406" r="6" class="c0"/>
<circle cx="648" cy="516" r="6" class="c0"/>
<circle cx="786" cy="732" r="6" class="c0"/>
<circle cx="776" cy="720" r="6" class="c0"/>
<circle cx="638" cy="360" r="6" class="c0"/>
<circle cx="624" cy="396" r="6" class="c0"/>
<circle cx="710" cy="502" r="6" class="c0"/>
<circle cx="634" cy="456" r="6" class="c0"/>
<circle cx="766" cy="480" r="6" class="c0"/>
<circle cx="682" cy="322" r="6" class="c0"/>
<circle cx="732" cy="640" r="6" class="c0"/>
<circle cx="1850" cy="1374" r="6" class="c0"/>
<circle cx="724" cy="700" r="6" class="c0"/>
<circle cx="668" cy="358" r="6" class="c0"/>
<circle cx="732" cy="678" r="6" class="c0"/>
<circle cx="692" cy="384" r="6" class="c0"/>
<circle cx="746" cy="506" r="6" class="c0"/>
<circle cx="782" cy="392" r="6" class="c0"/>
<circle cx="824" cy="428" r="6" class="c0"/>
</svg>
