<?xml version="1.0" encoding="utf-8"?>
<svg xmlns="http://www.w3.org/2000/svg"
     xmlns:xlink="http://www.w3.org/1999/xlink" width="1920" height="1440" >

            <defs>
            <style type="text/css"><![CDATA[
circle {stroke: none;}
.c0 {fill: #FFFFFF;}
]]></style>
            </defs>
<rect x="0" y="0" width="1920" height="1440" fill="black"/>
<circle cx="908" cy="678" r="12" class="c0"/>
<circle cx="832" cy="626" r="12" class="c0"/>
<circle cx="730" cy="624" r="12" class="c0"/>
<circle cx="968" cy="708" r="12" class="c0"/>
<circle cx="864" cy="682" r="10" class="c0"/>
<circle cx="1026" cy="708" r="10" class="c0"/>
<circle cx="794" cy="608" r="10" class="c0"/>
<circle cx="874" cy="702" r="10" class="c0"/>
<circle cx="724" cy="600" r="10" class="c0"/>
<circle cx="800" cy="650" r="10" class="c0"/>
<circle cx="940" cy="688" r="10" class="c0"/>
<circle cx="830" cy="656" r="10" class="c0"/>
<circle cx="1068" cy="712" r="10" class="c0"/>
<circle cx="842" cy="594" r="10" class="c0"/>
<circle cx="878" cy="658" r="10" class="c0"/>
<circle cx="736" cy="586" r="10" class="c0"/>
<circle cx="802" cy="678" r="8" class="c0"/>
<circle cx="758" cy="616" r="8" class="c0"/>
<circle cx="860" cy="626" r="8" class="c0"/>
<circle cx="790" cy="668" r="8" class="c0"/>
<circle cx="768" cy="592" r="8" class="c0"/>
<circle cx="924" cy="702" r="8" class="c0"/>
<circle cx="1012" cy="724" r="8" class="c0"/>
<circle cx="756" cy="642" r="8" class="c0"/>
<circle cx="774" cy="648" r="8" class="c0"/>
<circle cx="702" cy="582" r="8" class="c0"/>
<circle cx="846" cy="640" r="8" class="c0"/>
<circle cx="854" cy="664" r="8" class="c0"/>
<circle cx="902" cy="648" r="8" class="c0"/>
<circle cx="968" cy="682" r="8" class="c0"/>
<circle cx="996" cy="692" r="8" class="c0"/>
<circle cx="920" cy="660" r="8" class="c0"/>
<circle cx="758" cy="660" r="8" class="c0"/>
<circle cx="848" cy="698" r="8" class="c0"/>
<circle cx="896" cy="698" r="8" class="c0"/>
<circle cx="988" cy="716" r="8" class="c0"/>
<circle cx="1042" cy="694" r="8" class="c0"/>
<circle cx="886" cy="688" r="8" class="c0"/>
<circle cx="1046" cy="718" r="8" class="c0"/>
<circle cx="818" cy="612" r="8" class="c0"/>
<circle cx="684" cy="556" r="8" class="c0"/>
<circle cx="834" cy="688" r="8" class="c0"/>
<circle cx="742" cy="608" r="8" class="c0"/>
<circle cx="820" cy="680" r="6" class="c0"/>
<circle cx="942" cy="712" r="6" class="c0"/>
<circle cx="1024" cy="690" r="6" class="c0"/>
<circle cx="820" cy="642" r="6" class="c0"/>
<circle cx="788" cy="636" r="6" class="c0"/>
<circle cx="778" cy="618" r="6" class="c0"/>
<circle cx="818" cy="590" r="6" class="c0"/>
<circle cx="724" cy="574" r="6" class="c0"/>
<circle cx="780" cy="678" r="6" class="c0"/>
<circle cx="848" cy="614" r="6" class="c0"/>
<circle cx="952" cy="676" r="6" class="c0"/>
<circle cx="860" cy="604" r="6" class="c0"/>
<circle cx="888" cy="672" r="6" class="c0"/>
<circle cx="886" cy="642" r="6" class="c0"/>
<circle cx="1012" cy="696" r="6" class="c0"/>
<circle cx="786" cy="588" r="6" class="c0"/>
<circle cx="810" cy="630" r="6" class="c0"/>
<circle cx="760" cy="576" r="6" class="c0"/>
<circle cx="708" cy="544" r="6" class="c0"/>
<circle cx="1086" cy="714" r="6" class="c0"/>
<circle cx="820" cy="574" r="6" class="c0"/>
<circle cx="692" cy="572" r="6" class="c0"/>
<circle cx="812" cy="662" r="6" class="c0"/>
<circle cx="736" cy="560" r="6" class="c0"/>
<circle cx="876" cy="618" r="6" class="c0"/>
<circle cx="872" cy="636" r="6" class="c0"/>
<circle cx="804" cy="594" r="6" class="c0"/>
<circle cx="1030" cy="726" r="6" class="c0"/>
</svg>
