<?xml version="1.0" encoding="utf-8"?>
<svg xmlns="http://www.w3.org/2000/svg"
     xmlns:xlink="http://www.w3.org/1999/xlink" width="1920" height="1440" >

            <defs>
            <style type="text/css"><![CDATA[
circle {stroke: none;}
.c0 {fill: #FFFFFF;}
]]></style>
            </defs>
<rect x="0" y="0" width="1920" height="1440" fill="black"/>
<circle cx="838" cy="830" r="12" class="c0"/>
<circle cx="870" cy="824" r="10" class="c0"/>
<circle cx="882" cy="840" r="10" class="c0"/>
<circle cx="1048" cy="602" r="10" class="c0"/>
<circle cx="894" cy="860" r="10" class="c0"/>
<circle cx="950" cy="814" r="10" class="c0"/>
<circle cx="1032" cy="676" r="10" class="c0"/>
<circle cx="900" cy="790" r="10" class="c0"/>
<circle cx="868" cy="866" r="10" class="c0"/>
<circle cx="1066" cy="572" r="10" class="c0"/>
<circle cx="906" cy="762" r="10" class="c0"/>
<circle cx="980" cy="756" r="8" class="c0"/>
<circle cx="862" cy="806" r="8" class="c0"/>
<circle cx="918" cy="838" r="8" class="c0"/>
<circle cx="960" cy="758" r="8" class="c0"/>
<circle cx="834" cy="854" r="8" class="c0"/>
<circle cx="928" cy="818" r="8" class="c0"/>
<circle cx="986" cy="774" r="8" class="c0"/>
<circle cx="1032" cy="654" r="8" class="c0"/>
<circle cx="958" cy="796" r="8" class="c0"/>
<circle cx="938" cy="774" r="8" class="c0"/>
<circle cx="1044" cy="624" r="8" class="c0"/>
<circle cx="1008" cy="710" r="8" class="c0"/>
<circle cx="938" cy="794" r="8" class="c0"/>
<circle cx="874" cy="786" r="8" class="c0"/>
<circle cx="890" cy="816" r="8" class="c0"/>
<circle cx="1014" cy="730" r="8" class="c0"/>
<circle cx="854" cy="848" r="8" class="c0"/>
<circle cx="888" cy="772" r="8" class="c0"/>
<circle cx="988" cy="736" r="8" class="c0"/>
<circle cx="1060" cy="632" r="8" class="c0"/>
<circle cx="810" cy="836" r="8" class="c0"/>
<circle cx="840" cy="804" r="8" class="c0"/>
<circle cx="924" cy="784" r="8" class="c0"/>
<circle cx="854" cy="774" r="8" class="c0"/>
<circle cx="1080" cy="590" r="8" class="c0"/>
<circle cx="1014" cy="692" r="8" class="c0"/>
<circle cx="914" cy="802" r="8" class="c0"/>
<circle cx="844" cy="870" r="8" class="c0"/>
<circle cx="970" cy="808" r="8" class="c0"/>
<circle cx="1000" cy="746" r="8" class="c0"/>
<circle cx="908" cy="826" r="8" class="c0"/>
<circle cx="982" cy="792" r="8" class="c0"/>
<circle cx="926" cy="760" r="8" class="c0"/>
<circle cx="960" cy="780" r="6" class="c0"/>
<circle cx="1042" cy="642" r="6" class="c0"/>
<circle cx="1030" cy="696" r="6" class="c0"/>
<circle cx="1072" cy="614" r="6" class="c0"/>
<circle cx="908" cy="848" r="6" class="c0"/>
<circle cx="940" cy="828" r="6" class="c0"/>
<circle cx="878" cy="802" r="6" class="c0"/>
<circle cx="822" cy="820" r="6" class="c0"/>
<circle cx="1004" cy="762" r="6" class="c0"/>
<circle cx="818" cy="852" r="6" class="c0"/>
<circle cx="934" cy="840" r="6" class="c0"/>
<circle cx="852" cy="794" r="6" class="c0"/>
<circle cx="1054" cy="652" r="6" class="c0"/>
<circle cx="1024" cy="712" r="6" class="c0"/>
<circle cx="970" cy="746" r="6" class="c0"/>
<circle cx="1034" cy="634" r="6" class="c0"/>
<circle cx="998" cy="720" r="6" class="c0"/>
<circle cx="1054" cy="584" r="6" class="c0"/>
<circle cx="1068" cy="600" r="6" class="c0"/>
<circle cx="850" cy="816" r="6" class="c0"/>
<circle cx="818" cy="798" r="6" class="c0"/>
<circle cx="808" cy="818" r="6" class="c0"/>
<circle cx="970" cy="770" r="6" class="c0"/>
<circle cx="944" cy="756" r="6" class="c0"/>
<circle cx="1020" cy="664" r="6" class="c0"/>
<circle cx="1046" cy="666" r="6" class="c0"/>
<circle cx="1058" cy="616" r="6" class="c0"/>
</svg>
