<?xml version="1.0" encoding="utf-8"?>
<svg xmlns="http://www.w3.org/2000/svg"
     xmlns:xlink="http://www.w3.org/1999/xlink" width="1920" height="1440" >

            <defs>
            <style type="text/css"><![CDATA[
circle {stroke: none;}
.c0 {fill: #FFFFFF;}
]]></style>
            </defs>
<rect x="0" y="0" width="1920" height="1440" fill="black"/>
<circle cx="930" cy="808" r="12" class="c0"/>
<circle cx="906" cy="790" r="12" class="c0"/>
<circle cx="1008" cy="674" r="12" class="c0"/>
<circle cx="1132" cy="660" r="12" class="c0"/>
<circle cx="896" cy="870" r="12" class="c0"/>
<circle cx="922" cy="862" r="12" class="c0"/>
<circle cx="938" cy="530" r="12" class="c0"/>
<circle cx="1102" cy="670" r="12" class="c0"/>
<circle cx="1018" cy="518" r="12" class="c0"/>
<circle cx="958" cy="634" r="12" class="c0"/>
<circle cx="1028" cy="756" r="12" class="c0"/>
<circle cx="1020" cy="556" r="12" class="c0"/>
<circle cx="960" cy="714" r="12" class="c0"/>
<circle cx="934" cy="712" r="12" class="c0"/>
<circle cx="1056" cy="610" r="10" class="c0"/>
<circle cx="998" cy="726" r="10" class="c0"/>
<circle cx="1082" cy="686" r="10" class="c0"/>
<circle cx="924" cy="764" r="10" class="c0"/>
<circle cx="1090" cy="650" r="10" class="c0"/>
<circle cx="1024" cy="590" r="10" class="c0"/>
<circle cx="1104" cy="588" r="10" class="c0"/>
<circle cx="1046" cy="570" r="10" class="c0"/>
<circle cx="1106" cy="554" r="10" class="c0"/>
<circle cx="934" cy="744" r="10" class="c0"/>
<circle cx="970" cy="736" r="10" class="c0"/>
<circle cx="1008" cy="622" r="10" class="c0"/>
<circle cx="994" cy="644" r="10" class="c0"/>
<circle cx="1060" cy="658" r="10" class="c0"/>
<circle cx="1046" cy="688" r="10" class="c0"/>
<circle cx="1002" cy="748" r="10" class="c0"/>
<circle cx="930" cy="600" r="10" class="c0"/>
<circle cx="964" cy="806" r="10" class="c0"/>
<circle cx="900" cy="762" r="10" class="c0"/>
<circle cx="1044" cy="542" r="10" class="c0"/>
<circle cx="976" cy="612" r="10" class="c0"/>
<circle cx="1076" cy="588" r="10" class="c0"/>
<circle cx="1078" cy="560" r="10" class="c0"/>
<circle cx="956" cy="664" r="10" class="c0"/>
<circle cx="1034" cy="496" r="10" class="c0"/>
<circle cx="1060" cy="522" r="10" class="c0"/>
<circle cx="888" cy="708" r="10" class="c0"/>
<circle cx="882" cy="820" r="10" class="c0"/>
<circle cx="1016" cy="646" r="10" class="c0"/>
<circle cx="912" cy="648" r="10" class="c0"/>
<circle cx="904" cy="612" r="10" class="c0"/>
<circle cx="1060" cy="496" r="10" class="c0"/>
<circle cx="866" cy="908" r="10" class="c0"/>
<circle cx="904" cy="828" r="10" class="c0"/>
<circle cx="956" cy="592" r="10" class="c0"/>
<circle cx="1048" cy="728" r="10" class="c0"/>
<circle cx="1082" cy="710" r="10" class="c0"/>
<circle cx="1074" cy="624" r="8" class="c0"/>
<circle cx="920" cy="566" r="8" class="c0"/>
<circle cx="904" cy="674" r="8" class="c0"/>
<circle cx="1072" cy="510" r="8" class="c0"/>
<circle cx="1022" cy="480" r="8" class="c0"/>
<circle cx="1028" cy="732" r="8" class="c0"/>
<circle cx="952" cy="764" r="8" class="c0"/>
<circle cx="1006" cy="490" r="8" class="c0"/>
<circle cx="952" cy="548" r="8" class="c0"/>
<circle cx="938" cy="846" r="8" class="c0"/>
<circle cx="992" cy="510" r="8" class="c0"/>
<circle cx="1116" cy="606" r="8" class="c0"/>
<circle cx="882" cy="924" r="8" class="c0"/>
<circle cx="974" cy="540" r="8" class="c0"/>
<circle cx="1088" cy="612" r="8" class="c0"/>
<circle cx="988" cy="588" r="8" class="c0"/>
<circle cx="866" cy="870" r="8" class="c0"/>
<circle cx="892" cy="840" r="8" class="c0"/>
<circle cx="1036" cy="668" r="8" class="c0"/>
<circle cx="914" cy="904" r="8" class="c0"/>
<circle cx="978" cy="786" r="8" class="c0"/>
<circle cx="936" cy="646" r="8" class="c0"/>
<circle cx="922" cy="676" r="8" class="c0"/>
<circle cx="950" cy="696" r="8" class="c0"/>
<circle cx="984" cy="568" r="8" class="c0"/>
<circle cx="964" cy="568" r="8" class="c0"/>
<circle cx="864" cy="934" r="8" class="c0"/>
<circle cx="908" cy="578" r="8" class="c0"/>
<circle cx="890" cy="684" r="8" class="c0"/>
<circle cx="1116" cy="706" r="8" class="c0"/>
<circle cx="980" cy="690" r="8" class="c0"/>
<circle cx="946" cy="574" r="8" class="c0"/>
<circle cx="1028" cy="708" r="8" class="c0"/>
<circle cx="1112" cy="650" r="8" class="c0"/>
<circle cx="954" cy="838" r="8" class="c0"/>
<circle cx="978" cy="660" r="8" class="c0"/>
<circle cx="1090" cy="538" r="8" class="c0"/>
<circle cx="924" cy="888" r="8" class="c0"/>
<circle cx="1134" cy="684" r="8" class="c0"/>
<circle cx="1106" cy="692" r="8" class="c0"/>
<circle cx="998" cy="768" r="8" class="c0"/>
<circle cx="962" cy="518" r="8" class="c0"/>
<circle cx="896" cy="912" r="8" class="c0"/>
<circle cx="1060" cy="712" r="8" class="c0"/>
<circle cx="904" cy="722" r="8" class="c0"/>
<circle cx="988" cy="796" r="8" class="c0"/>
<circle cx="1000" cy="704" r="8" class="c0"/>
<circle cx="868" cy="850" r="8" class="c0"/>
<circle cx="998" cy="552" r="8" class="c0"/>
<circle cx="1022" cy="690" r="8" class="c0"/>
<circle cx="1034" cy="636" r="8" class="c0"/>
<circle cx="1048" cy="472" r="8" class="c0"/>
<circle cx="952" cy="612" r="8" class="c0"/>
<circle cx="1108" cy="624" r="8" class="c0"/>
<circle cx="874" cy="890" r="8" class="c0"/>
<circle cx="918" cy="700" r="8" class="c0"/>
<circle cx="1034" cy="608" r="8" class="c0"/>
<circle cx="930" cy="550" r="8" class="c0"/>
<circle cx="898" cy="892" r="8" class="c0"/>
<circle cx="1062" cy="636" r="8" class="c0"/>
<circle cx="876" cy="770" r="8" class="c0"/>
<circle cx="1082" cy="520" r="8" class="c0"/>
<circle cx="884" cy="748" r="8" class="c0"/>
<circle cx="938" cy="626" r="8" class="c0"/>
<circle cx="922" cy="730" r="8" class="c0"/>
<circle cx="888" cy="780" r="8" class="c0"/>
<circle cx="996" cy="604" r="8" class="c0"/>
<circle cx="962" cy="754" r="8" class="c0"/>
<circle cx="1128" cy="632" r="8" class="c0"/>
<circle cx="954" cy="782" r="8" class="c0"/>
<circle cx="912" cy="740" r="8" class="c0"/>
<circle cx="876" cy="792" r="8" class="c0"/>
<circle cx="936" cy="780" r="8" class="c0"/>
<circle cx="1094" cy="572" r="8" class="c0"/>
<circle cx="942" cy="826" r="8" class="c0"/>
<circle cx="1002" cy="532" r="8" class="c0"/>
<circle cx="874" cy="946" r="8" class="c0"/>
<circle cx="982" cy="752" r="8" class="c0"/>
<circle cx="972" cy="768" r="8" class="c0"/>
<circle cx="1054" cy="590" r="8" class="c0"/>
<circle cx="1010" cy="574" r="8" class="c0"/>
<circle cx="1068" cy="540" r="8" class="c0"/>
<circle cx="966" cy="678" r="6" class="c0"/>
<circle cx="908" cy="848" r="6" class="c0"/>
<circle cx="1072" cy="724" r="6" class="c0"/>
<circle cx="898" cy="808" r="6" class="c0"/>
<circle cx="998" cy="786" r="6" class="c0"/>
<circle cx="942" cy="866" r="6" class="c0"/>
<circle cx="966" cy="824" r="6" class="c0"/>
<circle cx="938" cy="672" r="6" class="c0"/>
<circle cx="894" cy="632" r="6" class="c0"/>
<circle cx="890" cy="800" r="6" class="c0"/>
<circle cx="888" cy="732" r="6" class="c0"/>
<circle cx="898" cy="928" r="6" class="c0"/>
<circle cx="1094" cy="632" r="6" class="c0"/>
<circle cx="916" cy="630" r="6" class="c0"/>
<circle cx="1072" cy="484" r="6" class="c0"/>
<circle cx="892" cy="664" r="6" class="c0"/>
<circle cx="868" cy="806" r="6" class="c0"/>
<circle cx="948" cy="730" r="6" class="c0"/>
<circle cx="996" cy="688" r="6" class="c0"/>
<circle cx="1048" cy="508" r="6" class="c0"/>
<circle cx="946" cy="680" r="6" class="c0"/>
<circle cx="1076" cy="666" r="6" class="c0"/>
<circle cx="1014" cy="718" r="6" class="c0"/>
<circle cx="922" cy="830" r="6" class="c0"/>
<circle cx="982" cy="714" r="6" class="c0"/>
<circle cx="990" cy="626" r="6" class="c0"/>
<circle cx="884" cy="900" r="6" class="c0"/>
<circle cx="902" cy="696" r="6" class="c0"/>
<circle cx="1068" cy="696" r="6" class="c0"/>
<circle cx="978" cy="498" r="6" class="c0"/>
<circle cx="1004" cy="590" r="6" class="c0"/>
<circle cx="1064" cy="680" r="6" class="c0"/>
<circle cx="880" cy="860" r="6" class="c0"/>
<circle cx="1058" cy="558" r="6" class="c0"/>
<circle cx="1062" cy="738" r="6" class="c0"/>
<circle cx="1144" cy="694" r="6" class="c0"/>
<circle cx="978" cy="524" r="6" class="c0"/>
<circle cx="868" cy="830" r="6" class="c0"/>
<circle cx="974" cy="558" r="6" class="c0"/>
<circle cx="1126" cy="616" r="6" class="c0"/>
<circle cx="986" cy="674" r="6" class="c0"/>
<circle cx="976" cy="642" r="6" class="c0"/>
<circle cx="1044" cy="622" r="6" class="c0"/>
<circle cx="1048" cy="644" r="6" class="c0"/>
<circle cx="1082" cy="500" r="6" class="c0"/>
<circle cx="1066" cy="572" r="6" class="c0"/>
<circle cx="1036" cy="526" r="6" class="c0"/>
<circle cx="924" cy="660" r="6" class="c0"/>
<circle cx="1044" cy="746" r="6" class="c0"/>
<circle cx="972" cy="584" r="6" class="c0"/>
<circle cx="1016" cy="606" r="6" class="c0"/>
<circle cx="1026" cy="536" r="6" class="c0"/>
<circle cx="1014" cy="772" r="6" class="c0"/>
<circle cx="1102" cy="714" r="6" class="c0"/>
<circle cx="1044" cy="710" r="6" class="c0"/>
<circle cx="894" cy="650" r="6" class="c0"/>
<circle cx="934" cy="688" r="6" class="c0"/>
<circle cx="1040" cy="652" r="6" class="c0"/>
<circle cx="1134" cy="702" r="6" class="c0"/>
<circle cx="926" cy="582" r="6" class="c0"/>
<circle cx="946" cy="798" r="6" class="c0"/>
<circle cx="968" cy="650" r="6" class="c0"/>
<circle cx="912" cy="594" r="6" class="c0"/>
<circle cx="936" cy="878" r="6" class="c0"/>
<circle cx="880" cy="724" r="6" class="c0"/>
<circle cx="922" cy="616" r="6" class="c0"/>
<circle cx="950" cy="856" r="6" class="c0"/>
<circle cx="890" cy="938" r="6" class="c0"/>
<circle cx="1118" cy="680" r="6" class="c0"/>
<circle cx="856" cy="886" r="6" class="c0"/>
<circle cx="1072" cy="646" r="6" class="c0"/>
<circle cx="1144" cy="674" r="6" class="c0"/>
</svg>
