<?xml version="1.0" encoding="utf-8"?>
<svg xmlns="http://www.w3.org/2000/svg"
     xmlns:xlink="http://www.w3.org/1999/xlink" width="1920" height="1440" >

            <defs>
            <style type="text/css"><![CDATA[
circle {stroke: none;}
.c0 {fill: #FFFFFF;}
]]></style>
            </defs>
<rect x="0" y="0" width="1920" height="1440" fill="black"/>
<circle cx="902" cy="518" r="14" class="c0"/>
<circle cx="962" cy="832" r="12" class="c0"/>
<circle cx="910" cy="480" r="12" class="c0"/>
<circle cx="936" cy="808" r="12" class="c0"/>
<circle cx="838" cy="644" r="12" class="c0"/>
<circle cx="992" cy="612" r="12" class="c0"/>
<circle cx="996" cy="660" r="12" class="c0"/>
<circle cx="920" cy="612" r="12" class="c0"/>
<circle cx="884" cy="540" r="12" class="c0"/>
<circle cx="880" cy="646" r="12" class="c0"/>
<circle cx="968" cy="666" r="12" class="c0"/>
<circle cx="890" cy="588" r="12" class="c0"/>
<circle cx="910" cy="796" r="12" class="c0"/>
<circle cx="980" cy="858" r="10" class="c0"/>
<circle cx="996" cy="748" r="10" class="c0"/>
<circle cx="1024" cy="880" r="10" class="c0"/>
<circle cx="1010" cy="548" r="10" class="c0"/>
<circle cx="1034" cy="702" r="10" class="c0"/>
<circle cx="1034" cy="594" r="10" class="c0"/>
<circle cx="1032" cy="634" r="10" class="c0"/>
<circle cx="896" cy="772" r="10" class="c0"/>
<circle cx="1054" cy="642" r="10" class="c0"/>
<circle cx="954" cy="524" r="10" class="c0"/>
<circle cx="902" cy="554" r="10" class="c0"/>
<circle cx="924" cy="570" r="10" class="c0"/>
<circle cx="962" cy="794" r="10" class="c0"/>
<circle cx="968" cy="550" r="10" class="c0"/>
<circle cx="906" cy="654" r="10" class="c0"/>
<circle cx="856" cy="606" r="10" class="c0"/>
<circle cx="886" cy="744" r="10" class="c0"/>
<circle cx="858" cy="542" r="10" class="c0"/>
<circle cx="946" cy="696" r="10" class="c0"/>
<circle cx="864" cy="698" r="10" class="c0"/>
<circle cx="984" cy="918" r="10" class="c0"/>
<circle cx="952" cy="728" r="10" class="c0"/>
<circle cx="876" cy="564" r="10" class="c0"/>
<circle cx="946" cy="556" r="10" class="c0"/>
<circle cx="988" cy="706" r="10" class="c0"/>
<circle cx="1006" cy="592" r="10" class="c0"/>
<circle cx="1018" cy="848" r="10" class="c0"/>
<circle cx="842" cy="594" r="10" class="c0"/>
<circle cx="918" cy="536" r="10" class="c0"/>
<circle cx="1020" cy="932" r="10" class="c0"/>
<circle cx="998" cy="814" r="10" class="c0"/>
<circle cx="1004" cy="724" r="10" class="c0"/>
<circle cx="904" cy="710" r="10" class="c0"/>
<circle cx="908" cy="678" r="10" class="c0"/>
<circle cx="944" cy="494" r="10" class="c0"/>
<circle cx="858" cy="656" r="10" class="c0"/>
<circle cx="1030" cy="614" r="8" class="c0"/>
<circle cx="948" cy="576" r="8" class="c0"/>
<circle cx="1014" cy="698" r="8" class="c0"/>
<circle cx="956" cy="748" r="8" class="c0"/>
<circle cx="942" cy="640" r="8" class="c0"/>
<circle cx="968" cy="574" r="8" class="c0"/>
<circle cx="928" cy="650" r="8" class="c0"/>
<circle cx="1068" cy="586" r="8" class="c0"/>
<circle cx="988" cy="836" r="8" class="c0"/>
<circle cx="894" cy="454" r="8" class="c0"/>
<circle cx="1004" cy="634" r="8" class="c0"/>
<circle cx="988" cy="778" r="8" class="c0"/>
<circle cx="848" cy="560" r="8" class="c0"/>
<circle cx="1064" cy="624" r="8" class="c0"/>
<circle cx="988" cy="568" r="8" class="c0"/>
<circle cx="888" cy="700" r="8" class="c0"/>
<circle cx="1032" cy="730" r="8" class="c0"/>
<circle cx="928" cy="760" r="8" class="c0"/>
<circle cx="974" cy="640" r="8" class="c0"/>
<circle cx="994" cy="888" r="8" class="c0"/>
<circle cx="946" cy="600" r="8" class="c0"/>
<circle cx="1024" cy="670" r="8" class="c0"/>
<circle cx="1020" cy="974" r="8" class="c0"/>
<circle cx="936" cy="672" r="8" class="c0"/>
<circle cx="990" cy="942" r="8" class="c0"/>
<circle cx="874" cy="492" r="8" class="c0"/>
<circle cx="950" cy="766" r="8" class="c0"/>
<circle cx="1032" cy="754" r="8" class="c0"/>
<circle cx="920" cy="740" r="8" class="c0"/>
<circle cx="926" cy="706" r="8" class="c0"/>
<circle cx="1022" cy="568" r="8" class="c0"/>
<circle cx="868" cy="520" r="8" class="c0"/>
<circle cx="988" cy="798" r="8" class="c0"/>
<circle cx="902" cy="732" r="8" class="c0"/>
<circle cx="968" cy="500" r="8" class="c0"/>
<circle cx="966" cy="698" r="8" class="c0"/>
<circle cx="916" cy="458" r="8" class="c0"/>
<circle cx="858" cy="632" r="8" class="c0"/>
<circle cx="934" cy="836" r="8" class="c0"/>
<circle cx="886" cy="478" r="8" class="c0"/>
<circle cx="1010" cy="792" r="8" class="c0"/>
<circle cx="840" cy="670" r="8" class="c0"/>
<circle cx="1002" cy="526" r="8" class="c0"/>
<circle cx="862" cy="580" r="8" class="c0"/>
<circle cx="832" cy="616" r="8" class="c0"/>
<circle cx="1020" cy="764" r="8" class="c0"/>
<circle cx="1040" cy="680" r="8" class="c0"/>
<circle cx="942" cy="620" r="8" class="c0"/>
<circle cx="1036" cy="546" r="8" class="c0"/>
<circle cx="878" cy="606" r="8" class="c0"/>
<circle cx="940" cy="470" r="8" class="c0"/>
<circle cx="898" cy="632" r="8" class="c0"/>
<circle cx="936" cy="514" r="8" class="c0"/>
<circle cx="976" cy="600" r="8" class="c0"/>
<circle cx="918" cy="772" r="8" class="c0"/>
<circle cx="1022" cy="912" r="8" class="c0"/>
<circle cx="966" cy="876" r="8" class="c0"/>
<circle cx="1024" cy="952" r="8" class="c0"/>
<circle cx="946" cy="872" r="8" class="c0"/>
<circle cx="884" cy="504" r="8" class="c0"/>
<circle cx="876" cy="728" r="8" class="c0"/>
<circle cx="1072" cy="606" r="8" class="c0"/>
<circle cx="1016" cy="738" r="8" class="c0"/>
<circle cx="978" cy="688" r="8" class="c0"/>
<circle cx="1024" cy="804" r="8" class="c0"/>
<circle cx="1010" cy="830" r="8" class="c0"/>
<circle cx="880" cy="674" r="8" class="c0"/>
<circle cx="938" cy="746" r="8" class="c0"/>
<circle cx="990" cy="544" r="8" class="c0"/>
<circle cx="974" cy="718" r="8" class="c0"/>
<circle cx="974" cy="814" r="8" class="c0"/>
<circle cx="906" cy="756" r="8" class="c0"/>
<circle cx="1006" cy="678" r="8" class="c0"/>
<circle cx="968" cy="618" r="8" class="c0"/>
<circle cx="1044" cy="578" r="8" class="c0"/>
<circle cx="982" cy="736" r="8" class="c0"/>
<circle cx="1004" cy="908" r="8" class="c0"/>
<circle cx="1014" cy="648" r="8" class="c0"/>
<circle cx="1036" cy="660" r="8" class="c0"/>
<circle cx="1056" cy="564" r="8" class="c0"/>
<circle cx="992" cy="962" r="8" class="c0"/>
<circle cx="1022" cy="714" r="8" class="c0"/>
<circle cx="970" cy="902" r="8" class="c0"/>
<circle cx="858" cy="678" r="8" class="c0"/>
<circle cx="974" cy="518" r="8" class="c0"/>
<circle cx="916" cy="636" r="8" class="c0"/>
<circle cx="1058" cy="668" r="6" class="c0"/>
<circle cx="940" cy="536" r="6" class="c0"/>
<circle cx="932" cy="588" r="6" class="c0"/>
<circle cx="932" cy="782" r="6" class="c0"/>
<circle cx="1028" cy="832" r="6" class="c0"/>
<circle cx="954" cy="854" r="6" class="c0"/>
<circle cx="934" cy="722" r="6" class="c0"/>
<circle cx="914" cy="696" r="6" class="c0"/>
<circle cx="872" cy="624" r="6" class="c0"/>
<circle cx="972" cy="756" r="6" class="c0"/>
<circle cx="1000" cy="852" r="6" class="c0"/>
<circle cx="892" cy="616" r="6" class="c0"/>
<circle cx="972" cy="774" r="6" class="c0"/>
<circle cx="916" cy="500" r="6" class="c0"/>
<circle cx="1046" cy="714" r="6" class="c0"/>
<circle cx="928" cy="688" r="6" class="c0"/>
<circle cx="1054" cy="608" r="6" class="c0"/>
<circle cx="1026" cy="788" r="6" class="c0"/>
<circle cx="832" cy="578" r="6" class="c0"/>
<circle cx="1054" cy="694" r="6" class="c0"/>
<circle cx="1008" cy="866" r="6" class="c0"/>
<circle cx="878" cy="712" r="6" class="c0"/>
<circle cx="990" cy="516" r="6" class="c0"/>
<circle cx="1006" cy="944" r="6" class="c0"/>
<circle cx="948" cy="782" r="6" class="c0"/>
<circle cx="1000" cy="926" r="6" class="c0"/>
<circle cx="986" cy="588" r="6" class="c0"/>
<circle cx="912" cy="586" r="6" class="c0"/>
<circle cx="984" cy="876" r="6" class="c0"/>
<circle cx="980" cy="764" r="6" class="c0"/>
<circle cx="866" cy="718" r="6" class="c0"/>
<circle cx="1012" cy="616" r="6" class="c0"/>
<circle cx="1046" cy="624" r="6" class="c0"/>
<circle cx="900" cy="604" r="6" class="c0"/>
<circle cx="1090" cy="604" r="6" class="c0"/>
<circle cx="1028" cy="862" r="6" class="c0"/>
<circle cx="954" cy="892" r="6" class="c0"/>
<circle cx="954" cy="650" r="6" class="c0"/>
<circle cx="958" cy="682" r="6" class="c0"/>
<circle cx="914" cy="816" r="6" class="c0"/>
<circle cx="998" cy="768" r="6" class="c0"/>
<circle cx="994" cy="868" r="6" class="c0"/>
<circle cx="848" cy="622" r="6" class="c0"/>
<circle cx="1014" cy="896" r="6" class="c0"/>
<circle cx="894" cy="666" r="6" class="c0"/>
<circle cx="958" cy="812" r="6" class="c0"/>
<circle cx="1084" cy="578" r="6" class="c0"/>
<circle cx="844" cy="686" r="6" class="c0"/>
<circle cx="894" cy="492" r="6" class="c0"/>
<circle cx="984" cy="528" r="6" class="c0"/>
<circle cx="1040" cy="562" r="6" class="c0"/>
<circle cx="906" cy="572" r="6" class="c0"/>
<circle cx="946" cy="660" r="6" class="c0"/>
<circle cx="864" cy="504" r="6" class="c0"/>
<circle cx="942" cy="714" r="6" class="c0"/>
<circle cx="918" cy="720" r="6" class="c0"/>
<circle cx="958" cy="478" r="6" class="c0"/>
<circle cx="1036" cy="904" r="6" class="c0"/>
<circle cx="952" cy="630" r="6" class="c0"/>
<circle cx="1008" cy="964" r="6" class="c0"/>
<circle cx="976" cy="886" r="6" class="c0"/>
<circle cx="1018" cy="604" r="6" class="c0"/>
<circle cx="932" cy="546" r="6" class="c0"/>
<circle cx="940" cy="856" r="6" class="c0"/>
<circle cx="1072" cy="652" r="6" class="c0"/>
<circle cx="1004" cy="570" r="6" class="c0"/>
<circle cx="892" cy="722" r="6" class="c0"/>
<circle cx="922" cy="826" r="6" class="c0"/>
<circle cx="890" cy="684" r="6" class="c0"/>
<circle cx="964" cy="590" r="6" class="c0"/>
<circle cx="1020" cy="820" r="6" class="c0"/>
<circle cx="1030" cy="774" r="6" class="c0"/>
<circle cx="1006" cy="776" r="6" class="c0"/>
<circle cx="942" cy="454" r="6" class="c0"/>
<circle cx="926" cy="492" r="6" class="c0"/>
<circle cx="984" cy="502" r="6" class="c0"/>
<circle cx="1022" cy="532" r="6" class="c0"/>
<circle cx="920" cy="664" r="6" class="c0"/>
<circle cx="846" cy="576" r="6" class="c0"/>
</svg>
