<?xml version="1.0" encoding="utf-8"?>
<svg xmlns="http://www.w3.org/2000/svg"
     xmlns:xlink="http://www.w3.org/1999/xlink" width="1920" height="1440" >

            <defs>
            <style type="text/css"><![CDATA[
circle {stroke: none;}
.c0 {fill: #FFFFFF;}
]]></style>
            </defs>
<rect x="0" y="0" width="1920" height="1440" fill="black"/>
<circle cx="992" cy="854" r="14" class="c0"/>
<circle cx="842" cy="718" r="12" class="c0"/>
<circle cx="924" cy="770" r="12" class="c0"/>
<circle cx="952" cy="768" r="12" class="c0"/>
<circle cx="1022" cy="642" r="12" class="c0"/>
<circle cx="1040" cy="832" r="12" class="c0"/>
<circle cx="952" cy="556" r="12" class="c0"/>
<circle cx="868" cy="624" r="12" class="c0"/>
<circle cx="940" cy="734" r="12" class="c0"/>
<circle cx="824" cy="494" r="12" class="c0"/>
<circle cx="990" cy="590" r="12" class="c0"/>
<circle cx="962" cy="668" r="12" class="c0"/>
<circle cx="976" cy="814" r="12" class="c0"/>
<circle cx="884" cy="678" r="12" class="c0"/>
<circle cx="886" cy="764" r="12" class="c0"/>
<circle cx="1030" cy="568" r="12" class="c0"/>
<circle cx="966" cy="540" r="12" class="c0"/>
<circle cx="894" cy="500" r="12" class="c0"/>
<circle cx="858" cy="540" r="10" class="c0"/>
<circle cx="1042" cy="800" r="10" class="c0"/>
<circle cx="1022" cy="592" r="10" class="c0"/>
<circle cx="1010" cy="880" r="10" class="c0"/>
<circle cx="822" cy="578" r="10" class="c0"/>
<circle cx="962" cy="830" r="10" class="c0"/>
<circle cx="1024" cy="728" r="10" class="c0"/>
<circle cx="884" cy="718" r="10" class="c0"/>
<circle cx="840" cy="628" r="10" class="c0"/>
<circle cx="916" cy="572" r="10" class="c0"/>
<circle cx="968" cy="626" r="10" class="c0"/>
<circle cx="1082" cy="920" r="10" class="c0"/>
<circle cx="1006" cy="702" r="10" class="c0"/>
<circle cx="912" cy="610" r="10" class="c0"/>
<circle cx="824" cy="552" r="10" class="c0"/>
<circle cx="960" cy="602" r="10" class="c0"/>
<circle cx="942" cy="808" r="10" class="c0"/>
<circle cx="906" cy="664" r="10" class="c0"/>
<circle cx="904" cy="688" r="10" class="c0"/>
<circle cx="1014" cy="674" r="10" class="c0"/>
<circle cx="890" cy="644" r="10" class="c0"/>
<circle cx="1014" cy="830" r="10" class="c0"/>
<circle cx="880" cy="530" r="10" class="c0"/>
<circle cx="946" cy="636" r="10" class="c0"/>
<circle cx="1008" cy="750" r="10" class="c0"/>
<circle cx="836" cy="598" r="10" class="c0"/>
<circle cx="868" cy="736" r="10" class="c0"/>
<circle cx="828" cy="524" r="10" class="c0"/>
<circle cx="922" cy="794" r="10" class="c0"/>
<circle cx="868" cy="506" r="10" class="c0"/>
<circle cx="838" cy="680" r="10" class="c0"/>
<circle cx="1038" cy="688" r="10" class="c0"/>
<circle cx="834" cy="472" r="10" class="c0"/>
<circle cx="1004" cy="654" r="10" class="c0"/>
<circle cx="874" cy="700" r="10" class="c0"/>
<circle cx="932" cy="614" r="8" class="c0"/>
<circle cx="934" cy="700" r="8" class="c0"/>
<circle cx="930" cy="646" r="8" class="c0"/>
<circle cx="848" cy="660" r="8" class="c0"/>
<circle cx="898" cy="738" r="8" class="c0"/>
<circle cx="882" cy="584" r="8" class="c0"/>
<circle cx="984" cy="792" r="8" class="c0"/>
<circle cx="1010" cy="780" r="8" class="c0"/>
<circle cx="812" cy="674" r="8" class="c0"/>
<circle cx="964" cy="714" r="8" class="c0"/>
<circle cx="1058" cy="882" r="8" class="c0"/>
<circle cx="802" cy="624" r="8" class="c0"/>
<circle cx="984" cy="662" r="8" class="c0"/>
<circle cx="870" cy="652" r="8" class="c0"/>
<circle cx="1034" cy="864" r="8" class="c0"/>
<circle cx="826" cy="662" r="8" class="c0"/>
<circle cx="958" cy="792" r="8" class="c0"/>
<circle cx="1084" cy="882" r="8" class="c0"/>
<circle cx="992" cy="630" r="8" class="c0"/>
<circle cx="854" cy="562" r="8" class="c0"/>
<circle cx="844" cy="512" r="8" class="c0"/>
<circle cx="970" cy="692" r="8" class="c0"/>
<circle cx="818" cy="640" r="8" class="c0"/>
<circle cx="1020" cy="770" r="8" class="c0"/>
<circle cx="918" cy="744" r="8" class="c0"/>
<circle cx="982" cy="560" r="8" class="c0"/>
<circle cx="1086" cy="900" r="8" class="c0"/>
<circle cx="886" cy="566" r="8" class="c0"/>
<circle cx="1076" cy="862" r="8" class="c0"/>
<circle cx="1042" cy="744" r="8" class="c0"/>
<circle cx="896" cy="554" r="8" class="c0"/>
<circle cx="1064" cy="900" r="8" class="c0"/>
<circle cx="858" cy="682" r="8" class="c0"/>
<circle cx="1036" cy="882" r="8" class="c0"/>
<circle cx="914" cy="706" r="8" class="c0"/>
<circle cx="872" cy="596" r="8" class="c0"/>
<circle cx="856" cy="490" r="8" class="c0"/>
<circle cx="982" cy="708" r="8" class="c0"/>
<circle cx="810" cy="538" r="8" class="c0"/>
<circle cx="1002" cy="574" r="8" class="c0"/>
<circle cx="980" cy="774" r="8" class="c0"/>
<circle cx="818" cy="692" r="8" class="c0"/>
<circle cx="922" cy="550" r="8" class="c0"/>
<circle cx="1002" cy="550" r="8" class="c0"/>
<circle cx="1048" cy="920" r="8" class="c0"/>
<circle cx="904" cy="524" r="8" class="c0"/>
<circle cx="824" cy="614" r="8" class="c0"/>
<circle cx="1094" cy="938" r="8" class="c0"/>
<circle cx="994" cy="718" r="8" class="c0"/>
<circle cx="964" cy="742" r="8" class="c0"/>
<circle cx="1034" cy="782" r="8" class="c0"/>
<circle cx="900" cy="778" r="8" class="c0"/>
<circle cx="944" cy="528" r="8" class="c0"/>
<circle cx="930" cy="508" r="8" class="c0"/>
<circle cx="848" cy="610" r="8" class="c0"/>
<circle cx="888" cy="616" r="8" class="c0"/>
<circle cx="954" cy="578" r="8" class="c0"/>
<circle cx="1056" cy="844" r="8" class="c0"/>
<circle cx="1030" cy="612" r="8" class="c0"/>
<circle cx="1012" cy="624" r="8" class="c0"/>
<circle cx="922" cy="680" r="8" class="c0"/>
<circle cx="902" cy="628" r="8" class="c0"/>
<circle cx="1020" cy="548" r="8" class="c0"/>
<circle cx="938" cy="672" r="8" class="c0"/>
<circle cx="862" cy="578" r="8" class="c0"/>
<circle cx="1058" cy="946" r="8" class="c0"/>
<circle cx="852" cy="640" r="8" class="c0"/>
<circle cx="876" cy="552" r="8" class="c0"/>
<circle cx="1016" cy="858" r="8" class="c0"/>
<circle cx="1044" cy="656" r="8" class="c0"/>
<circle cx="1012" cy="800" r="8" class="c0"/>
<circle cx="804" cy="556" r="8" class="c0"/>
<circle cx="974" cy="726" r="8" class="c0"/>
<circle cx="856" cy="470" r="8" class="c0"/>
<circle cx="1056" cy="864" r="8" class="c0"/>
<circle cx="984" cy="736" r="8" class="c0"/>
<circle cx="926" cy="588" r="8" class="c0"/>
<circle cx="814" cy="600" r="8" class="c0"/>
<circle cx="914" cy="726" r="8" class="c0"/>
<circle cx="1034" cy="760" r="8" class="c0"/>
<circle cx="1030" cy="812" r="8" class="c0"/>
<circle cx="836" cy="564" r="8" class="c0"/>
<circle cx="990" cy="762" r="8" class="c0"/>
<circle cx="972" cy="572" r="8" class="c0"/>
<circle cx="994" cy="686" r="8" class="c0"/>
<circle cx="1040" cy="624" r="8" class="c0"/>
<circle cx="1002" cy="814" r="6" class="c0"/>
<circle cx="1036" cy="900" r="6" class="c0"/>
<circle cx="908" cy="588" r="6" class="c0"/>
<circle cx="972" cy="648" r="6" class="c0"/>
<circle cx="866" cy="480" r="6" class="c0"/>
<circle cx="948" cy="682" r="6" class="c0"/>
<circle cx="890" cy="598" r="6" class="c0"/>
<circle cx="950" cy="698" r="6" class="c0"/>
<circle cx="1064" cy="918" r="6" class="c0"/>
<circle cx="810" cy="514" r="6" class="c0"/>
<circle cx="926" cy="524" r="6" class="c0"/>
<circle cx="980" cy="752" r="6" class="c0"/>
<circle cx="832" cy="702" r="6" class="c0"/>
<circle cx="932" cy="716" r="6" class="c0"/>
<circle cx="1098" cy="910" r="6" class="c0"/>
<circle cx="864" cy="716" r="6" class="c0"/>
<circle cx="1052" cy="818" r="6" class="c0"/>
<circle cx="994" cy="612" r="6" class="c0"/>
<circle cx="1044" cy="770" r="6" class="c0"/>
<circle cx="936" cy="566" r="6" class="c0"/>
<circle cx="1052" cy="604" r="6" class="c0"/>
<circle cx="946" cy="592" r="6" class="c0"/>
<circle cx="1028" cy="706" r="6" class="c0"/>
<circle cx="800" cy="642" r="6" class="c0"/>
<circle cx="1024" cy="844" r="6" class="c0"/>
<circle cx="1060" cy="826" r="6" class="c0"/>
<circle cx="942" cy="788" r="6" class="c0"/>
<circle cx="1008" cy="604" r="6" class="c0"/>
<circle cx="986" cy="536" r="6" class="c0"/>
<circle cx="986" cy="830" r="6" class="c0"/>
<circle cx="976" cy="610" r="6" class="c0"/>
<circle cx="920" cy="628" r="6" class="c0"/>
<circle cx="938" cy="754" r="6" class="c0"/>
<circle cx="1048" cy="708" r="6" class="c0"/>
<circle cx="840" cy="542" r="6" class="c0"/>
<circle cx="1030" cy="666" r="6" class="c0"/>
<circle cx="806" cy="658" r="6" class="c0"/>
<circle cx="1042" cy="596" r="6" class="c0"/>
<circle cx="1000" cy="790" r="6" class="c0"/>
<circle cx="856" cy="522" r="6" class="c0"/>
<circle cx="986" cy="646" r="6" class="c0"/>
<circle cx="846" cy="696" r="6" class="c0"/>
<circle cx="912" cy="540" r="6" class="c0"/>
<circle cx="968" cy="758" r="6" class="c0"/>
<circle cx="914" cy="640" r="6" class="c0"/>
<circle cx="1044" cy="722" r="6" class="c0"/>
<circle cx="846" cy="580" r="6" class="c0"/>
<circle cx="1046" cy="892" r="6" class="c0"/>
<circle cx="880" cy="482" r="6" class="c0"/>
<circle cx="1066" cy="932" r="6" class="c0"/>
<circle cx="914" cy="504" r="6" class="c0"/>
<circle cx="1006" cy="732" r="6" class="c0"/>
<circle cx="948" cy="618" r="6" class="c0"/>
<circle cx="896" cy="706" r="6" class="c0"/>
<circle cx="948" cy="712" r="6" class="c0"/>
<circle cx="944" cy="828" r="6" class="c0"/>
<circle cx="908" cy="760" r="6" class="c0"/>
<circle cx="804" cy="580" r="6" class="c0"/>
<circle cx="942" cy="656" r="6" class="c0"/>
<circle cx="1022" cy="892" r="6" class="c0"/>
<circle cx="1104" cy="922" r="6" class="c0"/>
<circle cx="838" cy="650" r="6" class="c0"/>
<circle cx="934" cy="540" r="6" class="c0"/>
<circle cx="924" cy="662" r="6" class="c0"/>
<circle cx="978" cy="678" r="6" class="c0"/>
<circle cx="868" cy="668" r="6" class="c0"/>
<circle cx="970" cy="588" r="6" class="c0"/>
<circle cx="1078" cy="940" r="6" class="c0"/>
<circle cx="1074" cy="846" r="6" class="c0"/>
<circle cx="812" cy="480" r="6" class="c0"/>
<circle cx="972" cy="846" r="6" class="c0"/>
<circle cx="1052" cy="760" r="6" class="c0"/>
<circle cx="1026" cy="746" r="6" class="c0"/>
<circle cx="900" cy="580" r="6" class="c0"/>
<circle cx="802" cy="522" r="6" class="c0"/>
</svg>
