<?xml version="1.0" encoding="utf-8"?>
<svg xmlns="http://www.w3.org/2000/svg"
     xmlns:xlink="http://www.w3.org/1999/xlink" width="1920" height="1440" >

            <defs>
            <style type="text/css"><![CDATA[
circle {stroke: none;}
.c0 {fill: #FFFFFF;}
]]></style>
            </defs>
<rect x="0" y="0" width="1920" height="1440" fill="black"/>
<circle cx="1214" cy="654" r="12" class="c0"/>
<circle cx="988" cy="712" r="12" class="c0"/>
<circle cx="838" cy="808" r="12" class="c0"/>
<circle cx="1136" cy="680" r="12" class="c0"/>
<circle cx="1088" cy="732" r="12" class="c0"/>
<circle cx="806" cy="814" r="12" class="c0"/>
<circle cx="906" cy="690" r="12" class="c0"/>
<circle cx="824" cy="742" r="12" class="c0"/>
<circle cx="1196" cy="676" r="12" class="c0"/>
<circle cx="842" cy="630" r="12" class="c0"/>
<circle cx="788" cy="716" r="12" class="c0"/>
<circle cx="844" cy="726" r="12" class="c0"/>
<circle cx="970" cy="802" r="12" class="c0"/>
<circle cx="1024" cy="656" r="10" class="c0"/>
<circle cx="916" cy="720" r="10" class="c0"/>
<circle cx="804" cy="692" r="10" class="c0"/>
<circle cx="888" cy="626" r="10" class="c0"/>
<circle cx="890" cy="732" r="10" class="c0"/>
<circle cx="958" cy="682" r="10" class="c0"/>
<circle cx="884" cy="792" r="10" class="c0"/>
<circle cx="906" cy="778" r="10" class="c0"/>
<circle cx="1076" cy="672" r="10" class="c0"/>
<circle cx="1056" cy="776" r="10" class="c0"/>
<circle cx="976" cy="750" r="10" class="c0"/>
<circle cx="800" cy="740" r="10" class="c0"/>
<circle cx="994" cy="638" r="10" class="c0"/>
<circle cx="874" cy="774" r="10" class="c0"/>
<circle cx="922" cy="766" r="10" class="c0"/>
<circle cx="980" cy="680" r="10" class="c0"/>
<circle cx="966" cy="776" r="10" class="c0"/>
<circle cx="1108" cy="710" r="10" class="c0"/>
<circle cx="848" cy="674" r="10" class="c0"/>
<circle cx="1012" cy="748" r="10" class="c0"/>
<circle cx="790" cy="672" r="10" class="c0"/>
<circle cx="802" cy="790" r="10" class="c0"/>
<circle cx="1066" cy="698" r="10" class="c0"/>
<circle cx="1044" cy="750" r="10" class="c0"/>
<circle cx="696" cy="738" r="10" class="c0"/>
<circle cx="1026" cy="732" r="10" class="c0"/>
<circle cx="812" cy="660" r="10" class="c0"/>
<circle cx="940" cy="710" r="10" class="c0"/>
<circle cx="918" cy="618" r="10" class="c0"/>
<circle cx="1162" cy="670" r="10" class="c0"/>
<circle cx="1100" cy="672" r="10" class="c0"/>
<circle cx="1050" cy="672" r="10" class="c0"/>
<circle cx="784" cy="772" r="10" class="c0"/>
<circle cx="706" cy="760" r="10" class="c0"/>
<circle cx="1040" cy="714" r="10" class="c0"/>
<circle cx="874" cy="750" r="10" class="c0"/>
<circle cx="904" cy="840" r="10" class="c0"/>
<circle cx="1032" cy="780" r="10" class="c0"/>
<circle cx="666" cy="718" r="8" class="c0"/>
<circle cx="946" cy="638" r="8" class="c0"/>
<circle cx="934" cy="658" r="8" class="c0"/>
<circle cx="960" cy="826" r="8" class="c0"/>
<circle cx="676" cy="728" r="8" class="c0"/>
<circle cx="1012" cy="706" r="8" class="c0"/>
<circle cx="744" cy="706" r="8" class="c0"/>
<circle cx="874" cy="638" r="8" class="c0"/>
<circle cx="874" cy="660" r="8" class="c0"/>
<circle cx="1124" cy="724" r="8" class="c0"/>
<circle cx="998" cy="780" r="8" class="c0"/>
<circle cx="960" cy="732" r="8" class="c0"/>
<circle cx="892" cy="668" r="8" class="c0"/>
<circle cx="922" cy="820" r="8" class="c0"/>
<circle cx="732" cy="782" r="8" class="c0"/>
<circle cx="1028" cy="676" r="8" class="c0"/>
<circle cx="844" cy="766" r="8" class="c0"/>
<circle cx="1240" cy="674" r="8" class="c0"/>
<circle cx="1060" cy="734" r="8" class="c0"/>
<circle cx="734" cy="724" r="8" class="c0"/>
<circle cx="828" cy="780" r="8" class="c0"/>
<circle cx="1182" cy="662" r="8" class="c0"/>
<circle cx="868" cy="700" r="8" class="c0"/>
<circle cx="750" cy="776" r="8" class="c0"/>
<circle cx="1148" cy="710" r="8" class="c0"/>
<circle cx="820" cy="638" r="8" class="c0"/>
<circle cx="890" cy="602" r="8" class="c0"/>
<circle cx="924" cy="842" r="8" class="c0"/>
<circle cx="670" cy="748" r="8" class="c0"/>
<circle cx="934" cy="740" r="8" class="c0"/>
<circle cx="962" cy="618" r="8" class="c0"/>
<circle cx="1180" cy="688" r="8" class="c0"/>
<circle cx="940" cy="792" r="8" class="c0"/>
<circle cx="822" cy="680" r="8" class="c0"/>
<circle cx="852" cy="830" r="8" class="c0"/>
<circle cx="822" cy="718" r="8" class="c0"/>
<circle cx="1206" cy="694" r="8" class="c0"/>
<circle cx="942" cy="816" r="8" class="c0"/>
<circle cx="704" cy="702" r="8" class="c0"/>
<circle cx="812" cy="766" r="8" class="c0"/>
<circle cx="922" cy="796" r="8" class="c0"/>
<circle cx="966" cy="640" r="8" class="c0"/>
<circle cx="766" cy="698" r="8" class="c0"/>
<circle cx="900" cy="644" r="8" class="c0"/>
<circle cx="854" cy="610" r="8" class="c0"/>
<circle cx="876" cy="820" r="8" class="c0"/>
<circle cx="758" cy="724" r="8" class="c0"/>
<circle cx="870" cy="730" r="8" class="c0"/>
<circle cx="1228" cy="690" r="8" class="c0"/>
<circle cx="946" cy="752" r="8" class="c0"/>
<circle cx="1008" cy="806" r="8" class="c0"/>
<circle cx="1002" cy="678" r="8" class="c0"/>
<circle cx="686" cy="718" r="8" class="c0"/>
<circle cx="946" cy="774" r="8" class="c0"/>
<circle cx="860" cy="798" r="8" class="c0"/>
<circle cx="744" cy="742" r="8" class="c0"/>
<circle cx="724" cy="736" r="8" class="c0"/>
<circle cx="990" cy="822" r="8" class="c0"/>
<circle cx="1014" cy="788" r="8" class="c0"/>
<circle cx="730" cy="760" r="8" class="c0"/>
<circle cx="756" cy="756" r="8" class="c0"/>
<circle cx="1004" cy="726" r="8" class="c0"/>
<circle cx="986" cy="660" r="8" class="c0"/>
<circle cx="1156" cy="690" r="8" class="c0"/>
<circle cx="768" cy="736" r="8" class="c0"/>
<circle cx="880" cy="684" r="8" class="c0"/>
<circle cx="1084" cy="710" r="8" class="c0"/>
<circle cx="848" cy="704" r="8" class="c0"/>
<circle cx="902" cy="820" r="8" class="c0"/>
<circle cx="1110" cy="690" r="8" class="c0"/>
<circle cx="988" cy="792" r="8" class="c0"/>
<circle cx="1076" cy="762" r="8" class="c0"/>
<circle cx="830" cy="652" r="8" class="c0"/>
<circle cx="688" cy="776" r="8" class="c0"/>
<circle cx="920" cy="668" r="8" class="c0"/>
<circle cx="1166" cy="706" r="8" class="c0"/>
<circle cx="954" cy="660" r="8" class="c0"/>
<circle cx="950" cy="838" r="8" class="c0"/>
<circle cx="876" cy="852" r="8" class="c0"/>
<circle cx="998" cy="760" r="8" class="c0"/>
<circle cx="1240" cy="644" r="8" class="c0"/>
<circle cx="846" cy="748" r="8" class="c0"/>
<circle cx="866" cy="840" r="8" class="c0"/>
<circle cx="966" cy="706" r="8" class="c0"/>
<circle cx="888" cy="712" r="8" class="c0"/>
<circle cx="946" cy="616" r="6" class="c0"/>
<circle cx="1250" cy="654" r="6" class="c0"/>
<circle cx="866" cy="596" r="6" class="c0"/>
<circle cx="1130" cy="704" r="6" class="c0"/>
<circle cx="830" cy="616" r="6" class="c0"/>
<circle cx="854" cy="646" r="6" class="c0"/>
<circle cx="764" cy="792" r="6" class="c0"/>
<circle cx="1042" cy="688" r="6" class="c0"/>
<circle cx="1020" cy="764" r="6" class="c0"/>
<circle cx="902" cy="800" r="6" class="c0"/>
<circle cx="912" cy="746" r="6" class="c0"/>
<circle cx="1022" cy="692" r="6" class="c0"/>
<circle cx="864" cy="628" r="6" class="c0"/>
<circle cx="1070" cy="718" r="6" class="c0"/>
<circle cx="794" cy="758" r="6" class="c0"/>
<circle cx="658" cy="760" r="6" class="c0"/>
<circle cx="1148" cy="660" r="6" class="c0"/>
<circle cx="798" cy="644" r="6" class="c0"/>
<circle cx="1096" cy="754" r="6" class="c0"/>
<circle cx="1070" cy="746" r="6" class="c0"/>
<circle cx="938" cy="676" r="6" class="c0"/>
<circle cx="850" cy="786" r="6" class="c0"/>
<circle cx="994" cy="692" r="6" class="c0"/>
<circle cx="688" cy="758" r="6" class="c0"/>
<circle cx="996" cy="620" r="6" class="c0"/>
<circle cx="828" cy="762" r="6" class="c0"/>
<circle cx="780" cy="754" r="6" class="c0"/>
<circle cx="726" cy="694" r="6" class="c0"/>
<circle cx="836" cy="832" r="6" class="c0"/>
<circle cx="980" cy="628" r="6" class="c0"/>
<circle cx="658" cy="736" r="6" class="c0"/>
<circle cx="936" cy="628" r="6" class="c0"/>
<circle cx="1002" cy="658" r="6" class="c0"/>
<circle cx="748" cy="690" r="6" class="c0"/>
<circle cx="706" cy="780" r="6" class="c0"/>
<circle cx="1222" cy="672" r="6" class="c0"/>
<circle cx="840" cy="690" r="6" class="c0"/>
<circle cx="1094" cy="698" r="6" class="c0"/>
<circle cx="970" cy="662" r="6" class="c0"/>
<circle cx="976" cy="728" r="6" class="c0"/>
<circle cx="712" cy="720" r="6" class="c0"/>
<circle cx="928" cy="688" r="6" class="c0"/>
<circle cx="888" cy="830" r="6" class="c0"/>
<circle cx="892" cy="754" r="6" class="c0"/>
<circle cx="926" cy="636" r="6" class="c0"/>
<circle cx="874" cy="612" r="6" class="c0"/>
<circle cx="1046" cy="792" r="6" class="c0"/>
<circle cx="1258" cy="646" r="6" class="c0"/>
<circle cx="818" cy="828" r="6" class="c0"/>
<circle cx="1028" cy="804" r="6" class="c0"/>
<circle cx="1088" cy="684" r="6" class="c0"/>
<circle cx="918" cy="648" r="6" class="c0"/>
<circle cx="1060" cy="758" r="6" class="c0"/>
<circle cx="994" cy="740" r="6" class="c0"/>
<circle cx="888" cy="810" r="6" class="c0"/>
<circle cx="754" cy="674" r="6" class="c0"/>
<circle cx="832" cy="706" r="6" class="c0"/>
<circle cx="1044" cy="654" r="6" class="c0"/>
<circle cx="1120" cy="666" r="6" class="c0"/>
<circle cx="818" cy="800" r="6" class="c0"/>
<circle cx="984" cy="768" r="6" class="c0"/>
<circle cx="786" cy="694" r="6" class="c0"/>
<circle cx="1108" cy="734" r="6" class="c0"/>
<circle cx="976" cy="650" r="6" class="c0"/>
<circle cx="1220" cy="716" r="6" class="c0"/>
<circle cx="784" cy="798" r="6" class="c0"/>
<circle cx="812" cy="708" r="6" class="c0"/>
<circle cx="1194" cy="652" r="6" class="c0"/>
<circle cx="934" cy="832" r="6" class="c0"/>
<circle cx="786" cy="650" r="6" class="c0"/>
<circle cx="676" cy="766" r="6" class="c0"/>
<circle cx="956" cy="790" r="6" class="c0"/>
<circle cx="912" cy="808" r="6" class="c0"/>
<circle cx="860" cy="764" r="6" class="c0"/>
<circle cx="982" cy="614" r="6" class="c0"/>
<circle cx="1014" cy="630" r="6" class="c0"/>
<circle cx="1180" cy="724" r="6" class="c0"/>
<circle cx="770" cy="674" r="6" class="c0"/>
</svg>
