<?xml version="1.0" encoding="utf-8"?>
<svg xmlns="http://www.w3.org/2000/svg"
     xmlns:xlink="http://www.w3.org/1999/xlink" width="1920" height="1440" >

            <defs>
            <style type="text/css"><![CDATA[
circle {stroke: none;}
.c0 {fill: #FFFFFF;}
]]></style>
            </defs>
<rect x="0" y="0" width="1920" height="1440" fill="black"/>
<circle cx="1008" cy="610" r="12" class="c0"/>
<circle cx="1104" cy="664" r="12" class="c0"/>
<circle cx="888" cy="582" r="12" class="c0"/>
<circle cx="1036" cy="574" r="12" class="c0"/>
<circle cx="922" cy="568" r="12" class="c0"/>
<circle cx="828" cy="700" r="12" class="c0"/>
<circle cx="1070" cy="626" r="12" class="c0"/>
<circle cx="1088" cy="720" r="12" class="c0"/>
<circle cx="1022" cy="758" r="12" class="c0"/>
<circle cx="912" cy="784" r="12" class="c0"/>
<circle cx="922" cy="756" r="12" class="c0"/>
<circle cx="1048" cy="656" r="12" class="c0"/>
<circle cx="1014" cy="724" r="12" class="c0"/>
<circle cx="938" cy="544" r="12" class="c0"/>
<circle cx="744" cy="888" r="12" class="c0"/>
<circle cx="860" cy="592" r="12" class="c0"/>
<circle cx="878" cy="730" r="12" class="c0"/>
<circle cx="1052" cy="608" r="12" class="c0"/>
<circle cx="926" cy="620" r="12" class="c0"/>
<circle cx="702" cy="934" r="12" class="c0"/>
<circle cx="958" cy="850" r="10" class="c0"/>
<circle cx="1046" cy="738" r="10" class="c0"/>
<circle cx="924" cy="672" r="10" class="c0"/>
<circle cx="1088" cy="640" r="10" class="c0"/>
<circle cx="990" cy="562" r="10" class="c0"/>
<circle cx="1010" cy="654" r="10" class="c0"/>
<circle cx="842" cy="608" r="10" class="c0"/>
<circle cx="980" cy="672" r="10" class="c0"/>
<circle cx="952" cy="686" r="10" class="c0"/>
<circle cx="954" cy="638" r="10" class="c0"/>
<circle cx="1020" cy="552" r="10" class="c0"/>
<circle cx="1222" cy="598" r="10" class="c0"/>
<circle cx="998" cy="746" r="10" class="c0"/>
<circle cx="840" cy="648" r="10" class="c0"/>
<circle cx="1292" cy="570" r="10" class="c0"/>
<circle cx="890" cy="770" r="10" class="c0"/>
<circle cx="856" cy="708" r="10" class="c0"/>
<circle cx="1254" cy="598" r="10" class="c0"/>
<circle cx="1074" cy="696" r="10" class="c0"/>
<circle cx="942" cy="778" r="10" class="c0"/>
<circle cx="968" cy="774" r="10" class="c0"/>
<circle cx="910" cy="722" r="10" class="c0"/>
<circle cx="1046" cy="688" r="10" class="c0"/>
<circle cx="984" cy="720" r="10" class="c0"/>
<circle cx="928" cy="854" r="10" class="c0"/>
<circle cx="1088" cy="604" r="10" class="c0"/>
<circle cx="894" cy="666" r="10" class="c0"/>
<circle cx="804" cy="732" r="10" class="c0"/>
<circle cx="902" cy="810" r="10" class="c0"/>
<circle cx="848" cy="770" r="10" class="c0"/>
<circle cx="1028" cy="668" r="10" class="c0"/>
<circle cx="958" cy="574" r="10" class="c0"/>
<circle cx="1290" cy="602" r="10" class="c0"/>
<circle cx="924" cy="710" r="10" class="c0"/>
<circle cx="966" cy="656" r="10" class="c0"/>
<circle cx="890" cy="690" r="10" class="c0"/>
<circle cx="864" cy="662" r="10" class="c0"/>
<circle cx="998" cy="630" r="10" class="c0"/>
<circle cx="826" cy="810" r="10" class="c0"/>
<circle cx="820" cy="768" r="10" class="c0"/>
<circle cx="804" cy="702" r="10" class="c0"/>
<circle cx="852" cy="808" r="10" class="c0"/>
<circle cx="944" cy="718" r="10" class="c0"/>
<circle cx="972" cy="616" r="10" class="c0"/>
<circle cx="788" cy="848" r="10" class="c0"/>
<circle cx="980" cy="696" r="10" class="c0"/>
<circle cx="1008" cy="778" r="10" class="c0"/>
<circle cx="822" cy="634" r="10" class="c0"/>
<circle cx="882" cy="646" r="10" class="c0"/>
<circle cx="1082" cy="676" r="10" class="c0"/>
<circle cx="890" cy="624" r="10" class="c0"/>
<circle cx="1194" cy="622" r="10" class="c0"/>
<circle cx="986" cy="790" r="8" class="c0"/>
<circle cx="1114" cy="622" r="8" class="c0"/>
<circle cx="846" cy="690" r="8" class="c0"/>
<circle cx="864" cy="760" r="8" class="c0"/>
<circle cx="1022" cy="692" r="8" class="c0"/>
<circle cx="726" cy="872" r="8" class="c0"/>
<circle cx="872" cy="682" r="8" class="c0"/>
<circle cx="962" cy="798" r="8" class="c0"/>
<circle cx="1076" cy="752" r="8" class="c0"/>
<circle cx="1032" cy="712" r="8" class="c0"/>
<circle cx="1264" cy="582" r="8" class="c0"/>
<circle cx="936" cy="736" r="8" class="c0"/>
<circle cx="976" cy="542" r="8" class="c0"/>
<circle cx="1056" cy="708" r="8" class="c0"/>
<circle cx="988" cy="814" r="8" class="c0"/>
<circle cx="908" cy="742" r="8" class="c0"/>
<circle cx="660" cy="916" r="8" class="c0"/>
<circle cx="1070" cy="590" r="8" class="c0"/>
<circle cx="818" cy="682" r="8" class="c0"/>
<circle cx="1164" cy="604" r="8" class="c0"/>
<circle cx="1264" cy="620" r="8" class="c0"/>
<circle cx="962" cy="744" r="8" class="c0"/>
<circle cx="766" cy="868" r="8" class="c0"/>
<circle cx="1100" cy="702" r="8" class="c0"/>
<circle cx="938" cy="660" r="8" class="c0"/>
<circle cx="938" cy="822" r="8" class="c0"/>
<circle cx="1062" cy="568" r="8" class="c0"/>
<circle cx="1008" cy="582" r="8" class="c0"/>
<circle cx="910" cy="686" r="8" class="c0"/>
<circle cx="1318" cy="584" r="8" class="c0"/>
<circle cx="932" cy="798" r="8" class="c0"/>
<circle cx="972" cy="834" r="8" class="c0"/>
<circle cx="954" cy="872" r="8" class="c0"/>
<circle cx="818" cy="744" r="8" class="c0"/>
<circle cx="784" cy="812" r="8" class="c0"/>
<circle cx="1120" cy="640" r="8" class="c0"/>
<circle cx="1020" cy="630" r="8" class="c0"/>
<circle cx="970" cy="560" r="8" class="c0"/>
<circle cx="1058" cy="676" r="8" class="c0"/>
<circle cx="712" cy="908" r="8" class="c0"/>
<circle cx="984" cy="762" r="8" class="c0"/>
<circle cx="892" cy="750" r="8" class="c0"/>
<circle cx="842" cy="722" r="8" class="c0"/>
<circle cx="776" cy="828" r="8" class="c0"/>
<circle cx="986" cy="596" r="8" class="c0"/>
<circle cx="1058" cy="764" r="8" class="c0"/>
<circle cx="708" cy="874" r="8" class="c0"/>
<circle cx="1174" cy="616" r="8" class="c0"/>
<circle cx="800" cy="836" r="8" class="c0"/>
<circle cx="864" cy="632" r="8" class="c0"/>
<circle cx="948" cy="604" r="8" class="c0"/>
<circle cx="962" cy="820" r="8" class="c0"/>
<circle cx="812" cy="826" r="8" class="c0"/>
<circle cx="884" cy="798" r="8" class="c0"/>
<circle cx="786" cy="720" r="8" class="c0"/>
<circle cx="838" cy="742" r="8" class="c0"/>
<circle cx="676" cy="926" r="8" class="c0"/>
<circle cx="1260" cy="560" r="8" class="c0"/>
<circle cx="676" cy="946" r="8" class="c0"/>
<circle cx="1006" cy="674" r="8" class="c0"/>
<circle cx="900" cy="556" r="8" class="c0"/>
<circle cx="748" cy="860" r="8" class="c0"/>
<circle cx="1042" cy="772" r="8" class="c0"/>
<circle cx="832" cy="672" r="8" class="c0"/>
<circle cx="730" cy="904" r="8" class="c0"/>
<circle cx="860" cy="784" r="8" class="c0"/>
<circle cx="934" cy="874" r="8" class="c0"/>
<circle cx="1032" cy="600" r="8" class="c0"/>
<circle cx="914" cy="602" r="8" class="c0"/>
<circle cx="980" cy="578" r="8" class="c0"/>
<circle cx="906" cy="648" r="8" class="c0"/>
<circle cx="986" cy="644" r="8" class="c0"/>
<circle cx="790" cy="678" r="8" class="c0"/>
<circle cx="1144" cy="620" r="8" class="c0"/>
<circle cx="1242" cy="620" r="8" class="c0"/>
<circle cx="1138" cy="642" r="8" class="c0"/>
<circle cx="934" cy="590" r="8" class="c0"/>
<circle cx="996" cy="686" r="8" class="c0"/>
<circle cx="914" cy="822" r="8" class="c0"/>
<circle cx="804" cy="668" r="8" class="c0"/>
<circle cx="876" cy="702" r="8" class="c0"/>
<circle cx="968" cy="592" r="8" class="c0"/>
<circle cx="1274" cy="592" r="8" class="c0"/>
<circle cx="1010" cy="702" r="8" class="c0"/>
<circle cx="1060" cy="726" r="8" class="c0"/>
<circle cx="862" cy="742" r="8" class="c0"/>
<circle cx="1212" cy="632" r="8" class="c0"/>
<circle cx="694" cy="914" r="8" class="c0"/>
<circle cx="944" cy="752" r="8" class="c0"/>
<circle cx="882" cy="606" r="8" class="c0"/>
<circle cx="998" cy="542" r="8" class="c0"/>
<circle cx="1188" cy="602" r="8" class="c0"/>
<circle cx="910" cy="542" r="8" class="c0"/>
<circle cx="998" cy="800" r="8" class="c0"/>
<circle cx="700" cy="956" r="8" class="c0"/>
<circle cx="940" cy="698" r="8" class="c0"/>
<circle cx="1300" cy="628" r="8" class="c0"/>
<circle cx="766" cy="838" r="8" class="c0"/>
<circle cx="804" cy="796" r="8" class="c0"/>
<circle cx="1070" cy="660" r="8" class="c0"/>
<circle cx="1128" cy="656" r="8" class="c0"/>
<circle cx="1236" cy="580" r="8" class="c0"/>
<circle cx="894" cy="712" r="8" class="c0"/>
<circle cx="1038" cy="628" r="8" class="c0"/>
<circle cx="1146" cy="658" r="8" class="c0"/>
<circle cx="1020" cy="792" r="8" class="c0"/>
<circle cx="694" cy="888" r="8" class="c0"/>
<circle cx="642" cy="934" r="8" class="c0"/>
<circle cx="1158" cy="630" r="8" class="c0"/>
<circle cx="812" cy="650" r="8" class="c0"/>
<circle cx="832" cy="780" r="8" class="c0"/>
<circle cx="872" cy="618" r="6" class="c0"/>
<circle cx="1080" cy="580" r="6" class="c0"/>
<circle cx="962" cy="534" r="6" class="c0"/>
<circle cx="870" cy="572" r="6" class="c0"/>
<circle cx="682" cy="974" r="6" class="c0"/>
<circle cx="954" cy="764" r="6" class="c0"/>
<circle cx="1312" cy="560" r="6" class="c0"/>
<circle cx="1212" cy="584" r="6" class="c0"/>
<circle cx="926" cy="642" r="6" class="c0"/>
<circle cx="974" cy="734" r="6" class="c0"/>
<circle cx="1224" cy="620" r="6" class="c0"/>
<circle cx="844" cy="792" r="6" class="c0"/>
<circle cx="720" cy="894" r="6" class="c0"/>
<circle cx="1104" cy="612" r="6" class="c0"/>
<circle cx="1200" cy="592" r="6" class="c0"/>
<circle cx="908" cy="586" r="6" class="c0"/>
<circle cx="820" cy="792" r="6" class="c0"/>
<circle cx="966" cy="714" r="6" class="c0"/>
<circle cx="946" cy="806" r="6" class="c0"/>
<circle cx="1110" cy="690" r="6" class="c0"/>
<circle cx="1044" cy="554" r="6" class="c0"/>
<circle cx="824" cy="722" r="6" class="c0"/>
<circle cx="1074" cy="734" r="6" class="c0"/>
<circle cx="1274" cy="572" r="6" class="c0"/>
<circle cx="978" cy="804" r="6" class="c0"/>
<circle cx="956" cy="552" r="6" class="c0"/>
<circle cx="786" cy="700" r="6" class="c0"/>
<circle cx="1182" cy="636" r="6" class="c0"/>
<circle cx="678" cy="906" r="6" class="c0"/>
<circle cx="1116" cy="678" r="6" class="c0"/>
<circle cx="850" cy="672" r="6" class="c0"/>
<circle cx="1156" cy="646" r="6" class="c0"/>
<circle cx="958" cy="728" r="6" class="c0"/>
<circle cx="822" cy="660" r="6" class="c0"/>
<circle cx="744" cy="844" r="6" class="c0"/>
<circle cx="912" cy="632" r="6" class="c0"/>
<circle cx="660" cy="966" r="6" class="c0"/>
<circle cx="764" cy="884" r="6" class="c0"/>
<circle cx="838" cy="822" r="6" class="c0"/>
<circle cx="872" cy="812" r="6" class="c0"/>
<circle cx="1052" cy="636" r="6" class="c0"/>
<circle cx="1280" cy="618" r="6" class="c0"/>
<circle cx="722" cy="924" r="6" class="c0"/>
<circle cx="906" cy="616" r="6" class="c0"/>
<circle cx="940" cy="842" r="6" class="c0"/>
<circle cx="884" cy="558" r="6" class="c0"/>
<circle cx="876" cy="782" r="6" class="c0"/>
<circle cx="846" cy="626" r="6" class="c0"/>
<circle cx="1090" cy="622" r="6" class="c0"/>
<circle cx="1022" cy="590" r="6" class="c0"/>
<circle cx="850" cy="752" r="6" class="c0"/>
<circle cx="852" cy="732" r="6" class="c0"/>
<circle cx="858" cy="616" r="6" class="c0"/>
<circle cx="1032" cy="646" r="6" class="c0"/>
<circle cx="992" cy="660" r="6" class="c0"/>
<circle cx="1008" cy="564" r="6" class="c0"/>
<circle cx="1318" cy="608" r="6" class="c0"/>
<circle cx="952" cy="620" r="6" class="c0"/>
<circle cx="804" cy="760" r="6" class="c0"/>
<circle cx="1204" cy="608" r="6" class="c0"/>
<circle cx="816" cy="714" r="6" class="c0"/>
<circle cx="1060" cy="748" r="6" class="c0"/>
<circle cx="1054" cy="584" r="6" class="c0"/>
<circle cx="836" cy="758" r="6" class="c0"/>
<circle cx="976" cy="634" r="6" class="c0"/>
<circle cx="922" cy="808" r="6" class="c0"/>
<circle cx="802" cy="816" r="6" class="c0"/>
<circle cx="942" cy="564" r="6" class="c0"/>
<circle cx="952" cy="830" r="6" class="c0"/>
<circle cx="788" cy="742" r="6" class="c0"/>
<circle cx="1250" cy="570" r="6" class="c0"/>
<circle cx="678" cy="886" r="6" class="c0"/>
<circle cx="660" cy="896" r="6" class="c0"/>
<circle cx="796" cy="752" r="6" class="c0"/>
<circle cx="782" cy="866" r="6" class="c0"/>
<circle cx="954" cy="668" r="6" class="c0"/>
<circle cx="1300" cy="588" r="6" class="c0"/>
<circle cx="1026" cy="738" r="6" class="c0"/>
<circle cx="1096" cy="686" r="6" class="c0"/>
<circle cx="956" cy="704" r="6" class="c0"/>
<circle cx="1028" cy="616" r="6" class="c0"/>
<circle cx="1104" cy="632" r="6" class="c0"/>
<circle cx="1130" cy="628" r="6" class="c0"/>
<circle cx="1176" cy="648" r="6" class="c0"/>
<circle cx="720" cy="852" r="6" class="c0"/>
<circle cx="1222" cy="648" r="6" class="c0"/>
<circle cx="994" cy="706" r="6" class="c0"/>
<circle cx="914" cy="864" r="6" class="c0"/>
<circle cx="764" cy="816" r="6" class="c0"/>
<circle cx="688" cy="866" r="6" class="c0"/>
<circle cx="1308" cy="598" r="6" class="c0"/>
<circle cx="976" cy="854" r="6" class="c0"/>
<circle cx="1062" cy="644" r="6" class="c0"/>
<circle cx="944" cy="862" r="6" class="c0"/>
<circle cx="898" cy="608" r="6" class="c0"/>
<circle cx="1232" cy="630" r="6" class="c0"/>
<circle cx="1322" cy="568" r="6" class="c0"/>
<circle cx="1030" cy="782" r="6" class="c0"/>
<circle cx="1044" cy="756" r="6" class="c0"/>
<circle cx="904" cy="702" r="6" class="c0"/>
</svg>
