<?xml version="1.0" encoding="utf-8"?>
<svg xmlns="http://www.w3.org/2000/svg"
     xmlns:xlink="http://www.w3.org/1999/xlink" width="1920" height="1440" >

            <defs>
            <style type="text/css"><![CDATA[
circle {stroke: none;}
.c0 {fill: #FFFFFF;}
]]></style>
            </defs>
<rect x="0" y="0" width="1920" height="1440" fill="black"/>
<circle cx="868" cy="630" r="12" class="c0"/>
<circle cx="958" cy="634" r="12" class="c0"/>
<circle cx="818" cy="714" r="12" class="c0"/>
<circle cx="894" cy="754" r="12" class="c0"/>
<circle cx="858" cy="776" r="12" class="c0"/>
<circle cx="938" cy="780" r="12" class="c0"/>
<circle cx="946" cy="574" r="12" class="c0"/>
<circle cx="898" cy="826" r="12" class="c0"/>
<circle cx="922" cy="798" r="12" class="c0"/>
<circle cx="902" cy="558" r="12" class="c0"/>
<circle cx="936" cy="364" r="12" class="c0"/>
<circle cx="850" cy="566" r="12" class="c0"/>
<circle cx="922" cy="702" r="12" class="c0"/>
<circle cx="842" cy="654" r="12" class="c0"/>
<circle cx="988" cy="806" r="12" class="c0"/>
<circle cx="942" cy="656" r="12" class="c0"/>
<circle cx="790" cy="728" r="12" class="c0"/>
<circle cx="892" cy="860" r="12" class="c0"/>
<circle cx="830" cy="758" r="12" class="c0"/>
<circle cx="1038" cy="802" r="10" class="c0"/>
<circle cx="804" cy="784" r="10" class="c0"/>
<circle cx="866" cy="662" r="10" class="c0"/>
<circle cx="1088" cy="764" r="10" class="c0"/>
<circle cx="1008" cy="820" r="10" class="c0"/>
<circle cx="968" cy="740" r="10" class="c0"/>
<circle cx="926" cy="836" r="10" class="c0"/>
<circle cx="884" cy="592" r="10" class="c0"/>
<circle cx="1010" cy="682" r="10" class="c0"/>
<circle cx="1018" cy="610" r="10" class="c0"/>
<circle cx="900" cy="714" r="10" class="c0"/>
<circle cx="934" cy="482" r="10" class="c0"/>
<circle cx="1004" cy="712" r="10" class="c0"/>
<circle cx="1052" cy="774" r="10" class="c0"/>
<circle cx="906" cy="594" r="10" class="c0"/>
<circle cx="854" cy="742" r="10" class="c0"/>
<circle cx="972" cy="708" r="10" class="c0"/>
<circle cx="1070" cy="1020" r="10" class="c0"/>
<circle cx="782" cy="660" r="10" class="c0"/>
<circle cx="1056" cy="692" r="10" class="c0"/>
<circle cx="1008" cy="754" r="10" class="c0"/>
<circle cx="920" cy="740" r="10" class="c0"/>
<circle cx="1016" cy="858" r="10" class="c0"/>
<circle cx="1030" cy="720" r="10" class="c0"/>
<circle cx="1074" cy="988" r="10" class="c0"/>
<circle cx="946" cy="432" r="10" class="c0"/>
<circle cx="968" cy="562" r="10" class="c0"/>
<circle cx="884" cy="546" r="10" class="c0"/>
<circle cx="862" cy="822" r="10" class="c0"/>
<circle cx="964" cy="668" r="10" class="c0"/>
<circle cx="948" cy="724" r="10" class="c0"/>
<circle cx="1028" cy="884" r="10" class="c0"/>
<circle cx="978" cy="378" r="10" class="c0"/>
<circle cx="1110" cy="1068" r="10" class="c0"/>
<circle cx="940" cy="406" r="10" class="c0"/>
<circle cx="930" cy="552" r="10" class="c0"/>
<circle cx="912" cy="676" r="10" class="c0"/>
<circle cx="772" cy="686" r="10" class="c0"/>
<circle cx="960" cy="518" r="10" class="c0"/>
<circle cx="820" cy="590" r="10" class="c0"/>
<circle cx="944" cy="694" r="10" class="c0"/>
<circle cx="918" cy="624" r="10" class="c0"/>
<circle cx="1068" cy="734" r="10" class="c0"/>
<circle cx="1040" cy="912" r="10" class="c0"/>
<circle cx="834" cy="814" r="10" class="c0"/>
<circle cx="990" cy="868" r="10" class="c0"/>
<circle cx="818" cy="628" r="10" class="c0"/>
<circle cx="950" cy="466" r="10" class="c0"/>
<circle cx="1026" cy="830" r="8" class="c0"/>
<circle cx="896" cy="614" r="8" class="c0"/>
<circle cx="934" cy="606" r="8" class="c0"/>
<circle cx="1038" cy="650" r="8" class="c0"/>
<circle cx="954" cy="334" r="8" class="c0"/>
<circle cx="840" cy="630" r="8" class="c0"/>
<circle cx="960" cy="778" r="8" class="c0"/>
<circle cx="942" cy="846" r="8" class="c0"/>
<circle cx="922" cy="346" r="8" class="c0"/>
<circle cx="1042" cy="976" r="8" class="c0"/>
<circle cx="1116" cy="782" r="8" class="c0"/>
<circle cx="1040" cy="934" r="8" class="c0"/>
<circle cx="904" cy="776" r="8" class="c0"/>
<circle cx="844" cy="722" r="8" class="c0"/>
<circle cx="886" cy="680" r="8" class="c0"/>
<circle cx="994" cy="778" r="8" class="c0"/>
<circle cx="1000" cy="840" r="8" class="c0"/>
<circle cx="858" cy="684" r="8" class="c0"/>
<circle cx="1022" cy="630" r="8" class="c0"/>
<circle cx="884" cy="886" r="8" class="c0"/>
<circle cx="954" cy="550" r="8" class="c0"/>
<circle cx="850" cy="590" r="8" class="c0"/>
<circle cx="824" cy="686" r="8" class="c0"/>
<circle cx="914" cy="882" r="8" class="c0"/>
<circle cx="978" cy="766" r="8" class="c0"/>
<circle cx="796" cy="690" r="8" class="c0"/>
<circle cx="802" cy="616" r="8" class="c0"/>
<circle cx="928" cy="440" r="8" class="c0"/>
<circle cx="930" cy="324" r="8" class="c0"/>
<circle cx="984" cy="632" r="8" class="c0"/>
<circle cx="926" cy="420" r="8" class="c0"/>
<circle cx="906" cy="644" r="8" class="c0"/>
<circle cx="1056" cy="1006" r="8" class="c0"/>
<circle cx="1004" cy="792" r="8" class="c0"/>
<circle cx="1014" cy="782" r="8" class="c0"/>
<circle cx="1036" cy="744" r="8" class="c0"/>
<circle cx="840" cy="604" r="8" class="c0"/>
<circle cx="1102" cy="1036" r="8" class="c0"/>
<circle cx="916" cy="654" r="8" class="c0"/>
<circle cx="868" cy="606" r="8" class="c0"/>
<circle cx="960" cy="872" r="8" class="c0"/>
<circle cx="992" cy="584" r="8" class="c0"/>
<circle cx="1082" cy="1064" r="8" class="c0"/>
<circle cx="972" cy="620" r="8" class="c0"/>
<circle cx="926" cy="868" r="8" class="c0"/>
<circle cx="1034" cy="960" r="8" class="c0"/>
<circle cx="1066" cy="964" r="8" class="c0"/>
<circle cx="796" cy="636" r="8" class="c0"/>
<circle cx="828" cy="668" r="8" class="c0"/>
<circle cx="936" cy="878" r="8" class="c0"/>
<circle cx="964" cy="586" r="8" class="c0"/>
<circle cx="868" cy="696" r="8" class="c0"/>
<circle cx="1100" cy="794" r="8" class="c0"/>
<circle cx="988" cy="726" r="8" class="c0"/>
<circle cx="1000" cy="644" r="8" class="c0"/>
<circle cx="894" cy="804" r="8" class="c0"/>
<circle cx="810" cy="646" r="8" class="c0"/>
<circle cx="832" cy="788" r="8" class="c0"/>
<circle cx="888" cy="702" r="8" class="c0"/>
<circle cx="880" cy="570" r="8" class="c0"/>
<circle cx="836" cy="702" r="8" class="c0"/>
<circle cx="970" cy="848" r="8" class="c0"/>
<circle cx="972" cy="430" r="8" class="c0"/>
<circle cx="862" cy="868" r="8" class="c0"/>
<circle cx="886" cy="782" r="8" class="c0"/>
<circle cx="970" cy="820" r="8" class="c0"/>
<circle cx="938" cy="298" r="8" class="c0"/>
<circle cx="806" cy="670" r="8" class="c0"/>
<circle cx="1014" cy="730" r="8" class="c0"/>
<circle cx="958" cy="374" r="8" class="c0"/>
<circle cx="852" cy="806" r="8" class="c0"/>
<circle cx="1030" cy="668" r="8" class="c0"/>
<circle cx="982" cy="338" r="8" class="c0"/>
<circle cx="986" cy="602" r="8" class="c0"/>
<circle cx="836" cy="580" r="8" class="c0"/>
<circle cx="776" cy="708" r="8" class="c0"/>
<circle cx="910" cy="850" r="8" class="c0"/>
<circle cx="836" cy="842" r="8" class="c0"/>
<circle cx="864" cy="842" r="8" class="c0"/>
<circle cx="940" cy="508" r="8" class="c0"/>
<circle cx="1044" cy="708" r="8" class="c0"/>
<circle cx="946" cy="748" r="8" class="c0"/>
<circle cx="944" cy="534" r="8" class="c0"/>
<circle cx="950" cy="862" r="8" class="c0"/>
<circle cx="1018" cy="942" r="8" class="c0"/>
<circle cx="888" cy="640" r="8" class="c0"/>
<circle cx="954" cy="800" r="8" class="c0"/>
<circle cx="954" cy="834" r="8" class="c0"/>
<circle cx="790" cy="754" r="8" class="c0"/>
<circle cx="1000" cy="568" r="8" class="c0"/>
<circle cx="1006" cy="896" r="8" class="c0"/>
<circle cx="812" cy="748" r="8" class="c0"/>
<circle cx="964" cy="454" r="8" class="c0"/>
<circle cx="862" cy="714" r="8" class="c0"/>
<circle cx="1024" cy="764" r="8" class="c0"/>
<circle cx="1062" cy="1054" r="8" class="c0"/>
<circle cx="1020" cy="920" r="8" class="c0"/>
<circle cx="916" cy="540" r="8" class="c0"/>
<circle cx="922" cy="570" r="8" class="c0"/>
<circle cx="996" cy="620" r="8" class="c0"/>
<circle cx="944" cy="814" r="8" class="c0"/>
<circle cx="944" cy="620" r="8" class="c0"/>
<circle cx="990" cy="698" r="8" class="c0"/>
<circle cx="916" cy="760" r="8" class="c0"/>
<circle cx="1056" cy="718" r="8" class="c0"/>
<circle cx="870" cy="756" r="8" class="c0"/>
<circle cx="1078" cy="1044" r="8" class="c0"/>
<circle cx="1052" cy="672" r="8" class="c0"/>
<circle cx="1094" cy="1078" r="8" class="c0"/>
<circle cx="1014" cy="654" r="8" class="c0"/>
<circle cx="830" cy="614" r="8" class="c0"/>
<circle cx="980" cy="678" r="8" class="c0"/>
<circle cx="854" cy="852" r="8" class="c0"/>
<circle cx="966" cy="312" r="8" class="c0"/>
<circle cx="932" cy="388" r="8" class="c0"/>
<circle cx="832" cy="732" r="8" class="c0"/>
<circle cx="872" cy="800" r="8" class="c0"/>
<circle cx="1034" cy="1016" r="8" class="c0"/>
<circle cx="1124" cy="1096" r="8" class="c0"/>
<circle cx="1116" cy="1048" r="8" class="c0"/>
<circle cx="884" cy="732" r="8" class="c0"/>
<circle cx="1090" cy="1014" r="8" class="c0"/>
<circle cx="1048" cy="1080" r="8" class="c0"/>
<circle cx="936" cy="634" r="6" class="c0"/>
<circle cx="998" cy="660" r="6" class="c0"/>
<circle cx="990" cy="924" r="6" class="c0"/>
<circle cx="1032" cy="988" r="6" class="c0"/>
<circle cx="974" cy="410" r="6" class="c0"/>
<circle cx="982" cy="572" r="6" class="c0"/>
<circle cx="1010" cy="592" r="6" class="c0"/>
<circle cx="1066" cy="708" r="6" class="c0"/>
<circle cx="1034" cy="782" r="6" class="c0"/>
<circle cx="892" cy="662" r="6" class="c0"/>
<circle cx="992" cy="746" r="6" class="c0"/>
<circle cx="816" cy="804" r="6" class="c0"/>
<circle cx="968" cy="354" r="6" class="c0"/>
<circle cx="946" cy="348" r="6" class="c0"/>
<circle cx="1024" cy="698" r="6" class="c0"/>
<circle cx="954" cy="494" r="6" class="c0"/>
<circle cx="924" cy="818" r="6" class="c0"/>
<circle cx="956" cy="758" r="6" class="c0"/>
<circle cx="1054" cy="926" r="6" class="c0"/>
<circle cx="930" cy="672" r="6" class="c0"/>
<circle cx="944" cy="314" r="6" class="c0"/>
<circle cx="980" cy="830" r="6" class="c0"/>
<circle cx="830" cy="640" r="6" class="c0"/>
<circle cx="982" cy="662" r="6" class="c0"/>
<circle cx="862" cy="550" r="6" class="c0"/>
<circle cx="880" cy="716" r="6" class="c0"/>
<circle cx="1046" cy="754" r="6" class="c0"/>
<circle cx="932" cy="590" r="6" class="c0"/>
<circle cx="962" cy="692" r="6" class="c0"/>
<circle cx="1050" cy="736" r="6" class="c0"/>
<circle cx="940" cy="452" r="6" class="c0"/>
<circle cx="930" cy="462" r="6" class="c0"/>
<circle cx="1054" cy="942" r="6" class="c0"/>
<circle cx="1086" cy="744" r="6" class="c0"/>
<circle cx="1024" cy="792" r="6" class="c0"/>
<circle cx="952" cy="886" r="6" class="c0"/>
<circle cx="848" cy="832" r="6" class="c0"/>
<circle cx="880" cy="840" r="6" class="c0"/>
<circle cx="1072" cy="756" r="6" class="c0"/>
<circle cx="844" cy="674" r="6" class="c0"/>
<circle cx="976" cy="880" r="6" class="c0"/>
<circle cx="1100" cy="752" r="6" class="c0"/>
<circle cx="974" cy="654" r="6" class="c0"/>
<circle cx="1068" cy="1080" r="6" class="c0"/>
<circle cx="972" cy="788" r="6" class="c0"/>
<circle cx="776" cy="744" r="6" class="c0"/>
<circle cx="930" cy="520" r="6" class="c0"/>
<circle cx="882" cy="814" r="6" class="c0"/>
<circle cx="1000" cy="738" r="6" class="c0"/>
<circle cx="960" cy="608" r="6" class="c0"/>
<circle cx="900" cy="692" r="6" class="c0"/>
<circle cx="864" cy="578" r="6" class="c0"/>
<circle cx="770" cy="724" r="6" class="c0"/>
<circle cx="1050" cy="990" r="6" class="c0"/>
<circle cx="1128" cy="1060" r="6" class="c0"/>
<circle cx="926" cy="894" r="6" class="c0"/>
<circle cx="822" cy="776" r="6" class="c0"/>
<circle cx="902" cy="734" r="6" class="c0"/>
<circle cx="926" cy="644" r="6" class="c0"/>
<circle cx="962" cy="536" r="6" class="c0"/>
<circle cx="1038" cy="686" r="6" class="c0"/>
<circle cx="916" cy="370" r="6" class="c0"/>
<circle cx="1078" cy="778" r="6" class="c0"/>
<circle cx="922" cy="402" r="6" class="c0"/>
<circle cx="946" cy="676" r="6" class="c0"/>
<circle cx="936" cy="758" r="6" class="c0"/>
<circle cx="1054" cy="1038" r="6" class="c0"/>
<circle cx="1108" cy="1092" r="6" class="c0"/>
<circle cx="1110" cy="764" r="6" class="c0"/>
<circle cx="898" cy="630" r="6" class="c0"/>
<circle cx="1032" cy="620" r="6" class="c0"/>
<circle cx="800" cy="764" r="6" class="c0"/>
<circle cx="1008" cy="878" r="6" class="c0"/>
<circle cx="948" cy="384" r="6" class="c0"/>
<circle cx="970" cy="476" r="6" class="c0"/>
<circle cx="990" cy="894" r="6" class="c0"/>
<circle cx="1048" cy="1062" r="6" class="c0"/>
<circle cx="930" cy="726" r="6" class="c0"/>
<circle cx="1058" cy="978" r="6" class="c0"/>
<circle cx="938" cy="338" r="6" class="c0"/>
<circle cx="792" cy="772" r="6" class="c0"/>
<circle cx="1028" cy="1060" r="6" class="c0"/>
<circle cx="1040" cy="1046" r="6" class="c0"/>
<circle cx="1058" cy="748" r="6" class="c0"/>
<circle cx="850" cy="620" r="6" class="c0"/>
<circle cx="826" cy="832" r="6" class="c0"/>
<circle cx="1014" cy="802" r="6" class="c0"/>
<circle cx="1030" cy="848" r="6" class="c0"/>
<circle cx="948" cy="596" r="6" class="c0"/>
<circle cx="1024" cy="812" r="6" class="c0"/>
<circle cx="792" cy="706" r="6" class="c0"/>
<circle cx="1050" cy="956" r="6" class="c0"/>
<circle cx="902" cy="894" r="6" class="c0"/>
<circle cx="1032" cy="866" r="6" class="c0"/>
<circle cx="916" cy="722" r="6" class="c0"/>
</svg>
