<?xml version="1.0" encoding="utf-8"?>
<svg xmlns="http://www.w3.org/2000/svg"
     xmlns:xlink="http://www.w3.org/1999/xlink" width="1920" height="1440" >

            <defs>
            <style type="text/css"><![CDATA[
circle {stroke: none;}
.c0 {fill: #FFFFFF;}
]]></style>
            </defs>
<rect x="0" y="0" width="1920" height="1440" fill="black"/>
<circle cx="880" cy="810" r="14" class="c0"/>
<circle cx="782" cy="788" r="12" class="c0"/>
<circle cx="982" cy="710" r="12" class="c0"/>
<circle cx="890" cy="622" r="12" class="c0"/>
<circle cx="958" cy="834" r="12" class="c0"/>
<circle cx="1146" cy="920" r="12" class="c0"/>
<circle cx="828" cy="650" r="12" class="c0"/>
<circle cx="1028" cy="696" r="12" class="c0"/>
<circle cx="838" cy="392" r="12" class="c0"/>
<circle cx="900" cy="832" r="12" class="c0"/>
<circle cx="874" cy="728" r="12" class="c0"/>
<circle cx="908" cy="648" r="12" class="c0"/>
<circle cx="944" cy="900" r="12" class="c0"/>
<circle cx="808" cy="366" r="12" class="c0"/>
<circle cx="872" cy="448" r="12" class="c0"/>
<circle cx="1104" cy="736" r="12" class="c0"/>
<circle cx="900" cy="744" r="12" class="c0"/>
<circle cx="1058" cy="754" r="12" class="c0"/>
<circle cx="870" cy="512" r="12" class="c0"/>
<circle cx="858" cy="830" r="12" class="c0"/>
<circle cx="1048" cy="812" r="12" class="c0"/>
<circle cx="854" cy="772" r="12" class="c0"/>
<circle cx="920" cy="734" r="10" class="c0"/>
<circle cx="854" cy="564" r="10" class="c0"/>
<circle cx="918" cy="698" r="10" class="c0"/>
<circle cx="916" cy="784" r="10" class="c0"/>
<circle cx="1064" cy="718" r="10" class="c0"/>
<circle cx="1016" cy="810" r="10" class="c0"/>
<circle cx="850" cy="478" r="10" class="c0"/>
<circle cx="842" cy="668" r="10" class="c0"/>
<circle cx="850" cy="800" r="10" class="c0"/>
<circle cx="974" cy="638" r="10" class="c0"/>
<circle cx="884" cy="530" r="10" class="c0"/>
<circle cx="916" cy="578" r="10" class="c0"/>
<circle cx="876" cy="666" r="10" class="c0"/>
<circle cx="1162" cy="960" r="10" class="c0"/>
<circle cx="810" cy="764" r="10" class="c0"/>
<circle cx="950" cy="776" r="10" class="c0"/>
<circle cx="874" cy="862" r="10" class="c0"/>
<circle cx="1078" cy="880" r="10" class="c0"/>
<circle cx="1184" cy="964" r="10" class="c0"/>
<circle cx="806" cy="694" r="10" class="c0"/>
<circle cx="1028" cy="722" r="10" class="c0"/>
<circle cx="1000" cy="852" r="10" class="c0"/>
<circle cx="1006" cy="658" r="10" class="c0"/>
<circle cx="818" cy="722" r="10" class="c0"/>
<circle cx="884" cy="778" r="10" class="c0"/>
<circle cx="930" cy="668" r="10" class="c0"/>
<circle cx="848" cy="426" r="10" class="c0"/>
<circle cx="974" cy="780" r="10" class="c0"/>
<circle cx="1002" cy="618" r="10" class="c0"/>
<circle cx="1120" cy="908" r="10" class="c0"/>
<circle cx="824" cy="430" r="10" class="c0"/>
<circle cx="894" cy="576" r="10" class="c0"/>
<circle cx="1018" cy="778" r="10" class="c0"/>
<circle cx="804" cy="610" r="10" class="c0"/>
<circle cx="934" cy="808" r="10" class="c0"/>
<circle cx="1062" cy="788" r="10" class="c0"/>
<circle cx="878" cy="564" r="10" class="c0"/>
<circle cx="984" cy="598" r="10" class="c0"/>
<circle cx="1094" cy="910" r="10" class="c0"/>
<circle cx="828" cy="578" r="10" class="c0"/>
<circle cx="950" cy="698" r="10" class="c0"/>
<circle cx="934" cy="608" r="10" class="c0"/>
<circle cx="998" cy="878" r="10" class="c0"/>
<circle cx="968" cy="616" r="10" class="c0"/>
<circle cx="780" cy="666" r="10" class="c0"/>
<circle cx="788" cy="734" r="10" class="c0"/>
<circle cx="950" cy="734" r="10" class="c0"/>
<circle cx="864" cy="626" r="10" class="c0"/>
<circle cx="986" cy="838" r="10" class="c0"/>
<circle cx="1224" cy="1014" r="10" class="c0"/>
<circle cx="820" cy="746" r="10" class="c0"/>
<circle cx="836" cy="606" r="10" class="c0"/>
<circle cx="934" cy="866" r="10" class="c0"/>
<circle cx="858" cy="696" r="10" class="c0"/>
<circle cx="1030" cy="744" r="10" class="c0"/>
<circle cx="976" cy="748" r="10" class="c0"/>
<circle cx="824" cy="794" r="10" class="c0"/>
<circle cx="818" cy="596" r="10" class="c0"/>
<circle cx="1182" cy="990" r="10" class="c0"/>
<circle cx="842" cy="726" r="10" class="c0"/>
<circle cx="920" cy="622" r="10" class="c0"/>
<circle cx="1050" cy="662" r="10" class="c0"/>
<circle cx="1112" cy="878" r="10" class="c0"/>
<circle cx="778" cy="756" r="10" class="c0"/>
<circle cx="1000" cy="700" r="8" class="c0"/>
<circle cx="1072" cy="830" r="8" class="c0"/>
<circle cx="966" cy="874" r="8" class="c0"/>
<circle cx="1036" cy="650" r="8" class="c0"/>
<circle cx="890" cy="708" r="8" class="c0"/>
<circle cx="968" cy="684" r="8" class="c0"/>
<circle cx="1170" cy="978" r="8" class="c0"/>
<circle cx="834" cy="762" r="8" class="c0"/>
<circle cx="1022" cy="858" r="8" class="c0"/>
<circle cx="776" cy="690" r="8" class="c0"/>
<circle cx="936" cy="760" r="8" class="c0"/>
<circle cx="806" cy="648" r="8" class="c0"/>
<circle cx="868" cy="754" r="8" class="c0"/>
<circle cx="954" cy="602" r="8" class="c0"/>
<circle cx="1124" cy="746" r="8" class="c0"/>
<circle cx="844" cy="338" r="8" class="c0"/>
<circle cx="946" cy="658" r="8" class="c0"/>
<circle cx="1092" cy="862" r="8" class="c0"/>
<circle cx="1202" cy="986" r="8" class="c0"/>
<circle cx="894" cy="476" r="8" class="c0"/>
<circle cx="894" cy="794" r="8" class="c0"/>
<circle cx="860" cy="606" r="8" class="c0"/>
<circle cx="824" cy="336" r="8" class="c0"/>
<circle cx="918" cy="854" r="8" class="c0"/>
<circle cx="894" cy="684" r="8" class="c0"/>
<circle cx="994" cy="738" r="8" class="c0"/>
<circle cx="912" cy="878" r="8" class="c0"/>
<circle cx="982" cy="864" r="8" class="c0"/>
<circle cx="830" cy="834" r="8" class="c0"/>
<circle cx="826" cy="354" r="8" class="c0"/>
<circle cx="998" cy="766" r="8" class="c0"/>
<circle cx="992" cy="790" r="8" class="c0"/>
<circle cx="942" cy="590" r="8" class="c0"/>
<circle cx="1216" cy="974" r="8" class="c0"/>
<circle cx="1042" cy="844" r="8" class="c0"/>
<circle cx="954" cy="634" r="8" class="c0"/>
<circle cx="970" cy="658" r="8" class="c0"/>
<circle cx="894" cy="554" r="8" class="c0"/>
<circle cx="1240" cy="986" r="8" class="c0"/>
<circle cx="1012" cy="840" r="8" class="c0"/>
<circle cx="788" cy="644" r="8" class="c0"/>
<circle cx="966" cy="810" r="8" class="c0"/>
<circle cx="840" cy="370" r="8" class="c0"/>
<circle cx="1068" cy="690" r="8" class="c0"/>
<circle cx="1018" cy="756" r="8" class="c0"/>
<circle cx="808" cy="806" r="8" class="c0"/>
<circle cx="1074" cy="854" r="8" class="c0"/>
<circle cx="858" cy="654" r="8" class="c0"/>
<circle cx="1086" cy="710" r="8" class="c0"/>
<circle cx="1042" cy="632" r="8" class="c0"/>
<circle cx="1134" cy="938" r="8" class="c0"/>
<circle cx="1044" cy="778" r="8" class="c0"/>
<circle cx="938" cy="842" r="8" class="c0"/>
<circle cx="1176" cy="1024" r="8" class="c0"/>
<circle cx="1010" cy="714" r="8" class="c0"/>
<circle cx="836" cy="444" r="8" class="c0"/>
<circle cx="1174" cy="946" r="8" class="c0"/>
<circle cx="916" cy="816" r="8" class="c0"/>
<circle cx="862" cy="588" r="8" class="c0"/>
<circle cx="980" cy="674" r="8" class="c0"/>
<circle cx="808" cy="322" r="8" class="c0"/>
<circle cx="780" cy="710" r="8" class="c0"/>
<circle cx="940" cy="714" r="8" class="c0"/>
<circle cx="1052" cy="704" r="8" class="c0"/>
<circle cx="912" cy="548" r="8" class="c0"/>
<circle cx="1044" cy="682" r="8" class="c0"/>
<circle cx="938" cy="572" r="8" class="c0"/>
<circle cx="816" cy="824" r="8" class="c0"/>
<circle cx="768" cy="738" r="8" class="c0"/>
<circle cx="1026" cy="830" r="8" class="c0"/>
<circle cx="866" cy="790" r="8" class="c0"/>
<circle cx="1062" cy="842" r="8" class="c0"/>
<circle cx="1028" cy="672" r="8" class="c0"/>
<circle cx="996" cy="638" r="8" class="c0"/>
<circle cx="818" cy="676" r="8" class="c0"/>
<circle cx="1110" cy="762" r="8" class="c0"/>
<circle cx="966" cy="894" r="8" class="c0"/>
<circle cx="1000" cy="678" r="8" class="c0"/>
<circle cx="986" cy="808" r="8" class="c0"/>
<circle cx="928" cy="832" r="8" class="c0"/>
<circle cx="1114" cy="710" r="8" class="c0"/>
<circle cx="1096" cy="936" r="8" class="c0"/>
<circle cx="1004" cy="822" r="8" class="c0"/>
<circle cx="894" cy="886" r="8" class="c0"/>
<circle cx="1028" cy="796" r="8" class="c0"/>
<circle cx="1164" cy="1008" r="8" class="c0"/>
<circle cx="830" cy="700" r="8" class="c0"/>
<circle cx="902" cy="538" r="8" class="c0"/>
<circle cx="948" cy="878" r="8" class="c0"/>
<circle cx="1244" cy="1008" r="8" class="c0"/>
<circle cx="798" cy="750" r="8" class="c0"/>
<circle cx="874" cy="642" r="8" class="c0"/>
<circle cx="886" cy="498" r="8" class="c0"/>
<circle cx="874" cy="474" r="8" class="c0"/>
<circle cx="908" cy="716" r="8" class="c0"/>
<circle cx="1118" cy="928" r="8" class="c0"/>
<circle cx="886" cy="594" r="8" class="c0"/>
<circle cx="798" cy="676" r="8" class="c0"/>
<circle cx="822" cy="408" r="8" class="c0"/>
<circle cx="902" cy="766" r="8" class="c0"/>
<circle cx="962" cy="792" r="8" class="c0"/>
<circle cx="904" cy="806" r="8" class="c0"/>
<circle cx="840" cy="628" r="8" class="c0"/>
<circle cx="1148" cy="986" r="8" class="c0"/>
<circle cx="896" cy="856" r="8" class="c0"/>
<circle cx="1056" cy="860" r="8" class="c0"/>
<circle cx="978" cy="884" r="8" class="c0"/>
<circle cx="1046" cy="734" r="8" class="c0"/>
<circle cx="960" cy="758" r="8" class="c0"/>
<circle cx="936" cy="646" r="8" class="c0"/>
<circle cx="850" cy="854" r="8" class="c0"/>
<circle cx="928" cy="562" r="8" class="c0"/>
<circle cx="964" cy="592" r="8" class="c0"/>
<circle cx="942" cy="680" r="8" class="c0"/>
<circle cx="814" cy="628" r="8" class="c0"/>
<circle cx="862" cy="334" r="8" class="c0"/>
<circle cx="904" cy="606" r="8" class="c0"/>
<circle cx="1202" cy="1006" r="8" class="c0"/>
<circle cx="852" cy="456" r="8" class="c0"/>
<circle cx="1024" cy="620" r="8" class="c0"/>
<circle cx="948" cy="852" r="8" class="c0"/>
<circle cx="798" cy="712" r="8" class="c0"/>
<circle cx="794" cy="380" r="8" class="c0"/>
<circle cx="924" cy="890" r="8" class="c0"/>
<circle cx="798" cy="336" r="8" class="c0"/>
<circle cx="868" cy="384" r="8" class="c0"/>
<circle cx="854" cy="742" r="8" class="c0"/>
<circle cx="1020" cy="638" r="8" class="c0"/>
<circle cx="970" cy="728" r="8" class="c0"/>
<circle cx="880" cy="840" r="8" class="c0"/>
<circle cx="792" cy="624" r="8" class="c0"/>
<circle cx="1126" cy="962" r="8" class="c0"/>
<circle cx="838" cy="814" r="8" class="c0"/>
<circle cx="1098" cy="890" r="8" class="c0"/>
<circle cx="806" cy="786" r="8" class="c0"/>
<circle cx="910" cy="670" r="8" class="c0"/>
<circle cx="960" cy="716" r="8" class="c0"/>
<circle cx="876" cy="424" r="8" class="c0"/>
<circle cx="958" cy="672" r="8" class="c0"/>
<circle cx="806" cy="396" r="8" class="c0"/>
<circle cx="1158" cy="936" r="8" class="c0"/>
<circle cx="862" cy="410" r="8" class="c0"/>
<circle cx="1034" cy="768" r="8" class="c0"/>
<circle cx="1220" cy="994" r="8" class="c0"/>
<circle cx="918" cy="756" r="8" class="c0"/>
<circle cx="844" cy="708" r="6" class="c0"/>
<circle cx="794" cy="774" r="6" class="c0"/>
<circle cx="970" cy="850" r="6" class="c0"/>
<circle cx="1148" cy="950" r="6" class="c0"/>
<circle cx="866" cy="490" r="6" class="c0"/>
<circle cx="1128" cy="718" r="6" class="c0"/>
<circle cx="878" cy="686" r="6" class="c0"/>
<circle cx="946" cy="796" r="6" class="c0"/>
<circle cx="764" cy="706" r="6" class="c0"/>
<circle cx="870" cy="544" r="6" class="c0"/>
<circle cx="1074" cy="898" r="6" class="c0"/>
<circle cx="808" cy="664" r="6" class="c0"/>
<circle cx="832" cy="684" r="6" class="c0"/>
<circle cx="1086" cy="838" r="6" class="c0"/>
<circle cx="914" cy="596" r="6" class="c0"/>
<circle cx="1052" cy="644" r="6" class="c0"/>
<circle cx="858" cy="676" r="6" class="c0"/>
<circle cx="898" cy="520" r="6" class="c0"/>
<circle cx="1052" cy="832" r="6" class="c0"/>
<circle cx="938" cy="788" r="6" class="c0"/>
<circle cx="770" cy="720" r="6" class="c0"/>
<circle cx="1126" cy="888" r="6" class="c0"/>
<circle cx="832" cy="322" r="6" class="c0"/>
<circle cx="1134" cy="898" r="6" class="c0"/>
<circle cx="950" cy="618" r="6" class="c0"/>
<circle cx="840" cy="784" r="6" class="c0"/>
<circle cx="894" cy="724" r="6" class="c0"/>
<circle cx="818" cy="384" r="6" class="c0"/>
<circle cx="858" cy="354" r="6" class="c0"/>
<circle cx="792" cy="318" r="6" class="c0"/>
<circle cx="1142" cy="964" r="6" class="c0"/>
<circle cx="958" cy="572" r="6" class="c0"/>
<circle cx="854" cy="496" r="6" class="c0"/>
<circle cx="988" cy="654" r="6" class="c0"/>
<circle cx="886" cy="652" r="6" class="c0"/>
<circle cx="1184" cy="1010" r="6" class="c0"/>
<circle cx="1014" cy="734" r="6" class="c0"/>
<circle cx="1236" cy="1026" r="6" class="c0"/>
<circle cx="1090" cy="694" r="6" class="c0"/>
<circle cx="874" cy="706" r="6" class="c0"/>
<circle cx="846" cy="584" r="6" class="c0"/>
<circle cx="972" cy="576" r="6" class="c0"/>
<circle cx="858" cy="716" r="6" class="c0"/>
<circle cx="886" cy="758" r="6" class="c0"/>
<circle cx="1072" cy="810" r="6" class="c0"/>
<circle cx="1194" cy="1028" r="6" class="c0"/>
<circle cx="986" cy="626" r="6" class="c0"/>
<circle cx="824" cy="774" r="6" class="c0"/>
<circle cx="864" cy="532" r="6" class="c0"/>
<circle cx="876" cy="608" r="6" class="c0"/>
<circle cx="850" cy="638" r="6" class="c0"/>
<circle cx="1072" cy="734" r="6" class="c0"/>
<circle cx="1016" cy="682" r="6" class="c0"/>
<circle cx="792" cy="804" r="6" class="c0"/>
<circle cx="770" cy="772" r="6" class="c0"/>
<circle cx="990" cy="896" r="6" class="c0"/>
<circle cx="884" cy="464" r="6" class="c0"/>
<circle cx="1202" cy="966" r="6" class="c0"/>
<circle cx="986" cy="690" r="6" class="c0"/>
<circle cx="996" cy="722" r="6" class="c0"/>
<circle cx="944" cy="822" r="6" class="c0"/>
<circle cx="838" cy="744" r="6" class="c0"/>
<circle cx="912" cy="900" r="6" class="c0"/>
<circle cx="1100" cy="702" r="6" class="c0"/>
<circle cx="938" cy="626" r="6" class="c0"/>
<circle cx="1062" cy="674" r="6" class="c0"/>
<circle cx="978" cy="822" r="6" class="c0"/>
<circle cx="836" cy="464" r="6" class="c0"/>
<circle cx="824" cy="618" r="6" class="c0"/>
<circle cx="896" cy="662" r="6" class="c0"/>
<circle cx="1150" cy="1036" r="6" class="c0"/>
<circle cx="1002" cy="800" r="6" class="c0"/>
<circle cx="852" cy="324" r="6" class="c0"/>
<circle cx="1112" cy="946" r="6" class="c0"/>
<circle cx="1120" cy="726" r="6" class="c0"/>
<circle cx="1004" cy="748" r="6" class="c0"/>
<circle cx="850" cy="616" r="6" class="c0"/>
<circle cx="906" cy="564" r="6" class="c0"/>
<circle cx="1086" cy="728" r="6" class="c0"/>
<circle cx="878" cy="880" r="6" class="c0"/>
<circle cx="806" cy="736" r="6" class="c0"/>
<circle cx="888" cy="434" r="6" class="c0"/>
<circle cx="796" cy="658" r="6" class="c0"/>
<circle cx="840" cy="844" r="6" class="c0"/>
<circle cx="812" cy="346" r="6" class="c0"/>
<circle cx="934" cy="744" r="6" class="c0"/>
<circle cx="1068" cy="770" r="6" class="c0"/>
<circle cx="856" cy="368" r="6" class="c0"/>
<circle cx="1040" cy="862" r="6" class="c0"/>
<circle cx="926" cy="770" r="6" class="c0"/>
<circle cx="1012" cy="868" r="6" class="c0"/>
</svg>
