<?xml version="1.0" encoding="utf-8"?>
<svg xmlns="http://www.w3.org/2000/svg"
     xmlns:xlink="http://www.w3.org/1999/xlink" width="1920" height="1440" >

            <defs>
            <style type="text/css"><![CDATA[
circle {stroke: none;}
.c0 {fill: #FFFFFF;}
]]></style>
            </defs>
<rect x="0" y="0" width="1920" height="1440" fill="black"/>
<circle cx="734" cy="468" r="12" class="c0"/>
<circle cx="780" cy="468" r="12" class="c0"/>
<circle cx="892" cy="710" r="12" class="c0"/>
<circle cx="804" cy="638" r="12" class="c0"/>
<circle cx="804" cy="816" r="12" class="c0"/>
<circle cx="1068" cy="734" r="12" class="c0"/>
<circle cx="1094" cy="666" r="12" class="c0"/>
<circle cx="922" cy="762" r="12" class="c0"/>
<circle cx="1112" cy="808" r="12" class="c0"/>
<circle cx="942" cy="864" r="12" class="c0"/>
<circle cx="918" cy="886" r="12" class="c0"/>
<circle cx="988" cy="718" r="12" class="c0"/>
<circle cx="1046" cy="748" r="12" class="c0"/>
<circle cx="1046" cy="720" r="12" class="c0"/>
<circle cx="864" cy="622" r="12" class="c0"/>
<circle cx="1012" cy="824" r="12" class="c0"/>
<circle cx="850" cy="764" r="12" class="c0"/>
<circle cx="824" cy="582" r="12" class="c0"/>
<circle cx="966" cy="822" r="12" class="c0"/>
<circle cx="1136" cy="832" r="12" class="c0"/>
<circle cx="810" cy="760" r="12" class="c0"/>
<circle cx="988" cy="758" r="12" class="c0"/>
<circle cx="994" cy="846" r="12" class="c0"/>
<circle cx="1062" cy="666" r="12" class="c0"/>
<circle cx="956" cy="620" r="12" class="c0"/>
<circle cx="870" cy="700" r="12" class="c0"/>
<circle cx="892" cy="828" r="10" class="c0"/>
<circle cx="808" cy="732" r="10" class="c0"/>
<circle cx="1186" cy="860" r="10" class="c0"/>
<circle cx="718" cy="406" r="10" class="c0"/>
<circle cx="908" cy="792" r="10" class="c0"/>
<circle cx="876" cy="668" r="10" class="c0"/>
<circle cx="908" cy="592" r="10" class="c0"/>
<circle cx="964" cy="670" r="10" class="c0"/>
<circle cx="1052" cy="784" r="10" class="c0"/>
<circle cx="796" cy="784" r="10" class="c0"/>
<circle cx="1040" cy="862" r="10" class="c0"/>
<circle cx="988" cy="614" r="10" class="c0"/>
<circle cx="944" cy="706" r="10" class="c0"/>
<circle cx="1096" cy="774" r="10" class="c0"/>
<circle cx="890" cy="582" r="10" class="c0"/>
<circle cx="866" cy="734" r="10" class="c0"/>
<circle cx="910" cy="614" r="10" class="c0"/>
<circle cx="1028" cy="706" r="10" class="c0"/>
<circle cx="1306" cy="898" r="10" class="c0"/>
<circle cx="846" cy="684" r="10" class="c0"/>
<circle cx="1030" cy="778" r="10" class="c0"/>
<circle cx="1008" cy="800" r="10" class="c0"/>
<circle cx="854" cy="660" r="10" class="c0"/>
<circle cx="1046" cy="686" r="10" class="c0"/>
<circle cx="934" cy="684" r="10" class="c0"/>
<circle cx="736" cy="436" r="10" class="c0"/>
<circle cx="1028" cy="664" r="10" class="c0"/>
<circle cx="834" cy="786" r="10" class="c0"/>
<circle cx="756" cy="488" r="10" class="c0"/>
<circle cx="1066" cy="764" r="10" class="c0"/>
<circle cx="1244" cy="908" r="10" class="c0"/>
<circle cx="936" cy="744" r="10" class="c0"/>
<circle cx="892" cy="644" r="10" class="c0"/>
<circle cx="952" cy="780" r="10" class="c0"/>
<circle cx="790" cy="544" r="10" class="c0"/>
<circle cx="1164" cy="858" r="10" class="c0"/>
<circle cx="924" cy="724" r="10" class="c0"/>
<circle cx="828" cy="636" r="10" class="c0"/>
<circle cx="1014" cy="638" r="10" class="c0"/>
<circle cx="1040" cy="832" r="10" class="c0"/>
<circle cx="870" cy="646" r="10" class="c0"/>
<circle cx="852" cy="580" r="10" class="c0"/>
<circle cx="1218" cy="862" r="10" class="c0"/>
<circle cx="790" cy="512" r="10" class="c0"/>
<circle cx="1272" cy="874" r="10" class="c0"/>
<circle cx="888" cy="802" r="10" class="c0"/>
<circle cx="990" cy="884" r="10" class="c0"/>
<circle cx="914" cy="654" r="10" class="c0"/>
<circle cx="844" cy="730" r="10" class="c0"/>
<circle cx="1074" cy="694" r="10" class="c0"/>
<circle cx="782" cy="746" r="10" class="c0"/>
<circle cx="862" cy="784" r="10" class="c0"/>
<circle cx="906" cy="860" r="10" class="c0"/>
<circle cx="852" cy="802" r="10" class="c0"/>
<circle cx="808" cy="678" r="10" class="c0"/>
<circle cx="708" cy="432" r="10" class="c0"/>
<circle cx="784" cy="700" r="10" class="c0"/>
<circle cx="780" cy="772" r="10" class="c0"/>
<circle cx="894" cy="770" r="10" class="c0"/>
<circle cx="1042" cy="802" r="10" class="c0"/>
<circle cx="806" cy="608" r="10" class="c0"/>
<circle cx="1284" cy="928" r="10" class="c0"/>
<circle cx="1014" cy="680" r="10" class="c0"/>
<circle cx="1052" cy="646" r="10" class="c0"/>
<circle cx="1140" cy="808" r="8" class="c0"/>
<circle cx="814" cy="536" r="8" class="c0"/>
<circle cx="990" cy="784" r="8" class="c0"/>
<circle cx="842" cy="860" r="8" class="c0"/>
<circle cx="886" cy="732" r="8" class="c0"/>
<circle cx="1056" cy="816" r="8" class="c0"/>
<circle cx="1164" cy="836" r="8" class="c0"/>
<circle cx="1202" cy="838" r="8" class="c0"/>
<circle cx="1340" cy="912" r="8" class="c0"/>
<circle cx="962" cy="692" r="8" class="c0"/>
<circle cx="892" cy="678" r="8" class="c0"/>
<circle cx="958" cy="882" r="8" class="c0"/>
<circle cx="928" cy="604" r="8" class="c0"/>
<circle cx="1246" cy="864" r="8" class="c0"/>
<circle cx="868" cy="834" r="8" class="c0"/>
<circle cx="940" cy="658" r="8" class="c0"/>
<circle cx="948" cy="642" r="8" class="c0"/>
<circle cx="958" cy="726" r="8" class="c0"/>
<circle cx="962" cy="900" r="8" class="c0"/>
<circle cx="946" cy="830" r="8" class="c0"/>
<circle cx="718" cy="456" r="8" class="c0"/>
<circle cx="978" cy="650" r="8" class="c0"/>
<circle cx="1024" cy="878" r="8" class="c0"/>
<circle cx="956" cy="800" r="8" class="c0"/>
<circle cx="960" cy="844" r="8" class="c0"/>
<circle cx="944" cy="896" r="8" class="c0"/>
<circle cx="830" cy="832" r="8" class="c0"/>
<circle cx="1008" cy="742" r="8" class="c0"/>
<circle cx="828" cy="670" r="8" class="c0"/>
<circle cx="1022" cy="848" r="8" class="c0"/>
<circle cx="818" cy="654" r="8" class="c0"/>
<circle cx="874" cy="594" r="8" class="c0"/>
<circle cx="990" cy="634" r="8" class="c0"/>
<circle cx="920" cy="696" r="8" class="c0"/>
<circle cx="848" cy="826" r="8" class="c0"/>
<circle cx="932" cy="804" r="8" class="c0"/>
<circle cx="974" cy="704" r="8" class="c0"/>
<circle cx="956" cy="758" r="8" class="c0"/>
<circle cx="842" cy="618" r="8" class="c0"/>
<circle cx="882" cy="864" r="8" class="c0"/>
<circle cx="816" cy="700" r="8" class="c0"/>
<circle cx="1202" cy="910" r="8" class="c0"/>
<circle cx="1112" cy="692" r="8" class="c0"/>
<circle cx="1014" cy="892" r="8" class="c0"/>
<circle cx="788" cy="722" r="8" class="c0"/>
<circle cx="990" cy="670" r="8" class="c0"/>
<circle cx="910" cy="818" r="8" class="c0"/>
<circle cx="1004" cy="654" r="8" class="c0"/>
<circle cx="776" cy="670" r="8" class="c0"/>
<circle cx="974" cy="740" r="8" class="c0"/>
<circle cx="820" cy="560" r="8" class="c0"/>
<circle cx="1084" cy="752" r="8" class="c0"/>
<circle cx="1010" cy="770" r="8" class="c0"/>
<circle cx="880" cy="750" r="8" class="c0"/>
<circle cx="834" cy="810" r="8" class="c0"/>
<circle cx="1032" cy="616" r="8" class="c0"/>
<circle cx="1270" cy="894" r="8" class="c0"/>
<circle cx="1024" cy="752" r="8" class="c0"/>
<circle cx="828" cy="720" r="8" class="c0"/>
<circle cx="842" cy="598" r="8" class="c0"/>
<circle cx="780" cy="642" r="8" class="c0"/>
<circle cx="688" cy="416" r="8" class="c0"/>
<circle cx="768" cy="730" r="8" class="c0"/>
<circle cx="848" cy="710" r="8" class="c0"/>
<circle cx="882" cy="610" r="8" class="c0"/>
<circle cx="864" cy="866" r="8" class="c0"/>
<circle cx="1014" cy="864" r="8" class="c0"/>
<circle cx="1070" cy="800" r="8" class="c0"/>
<circle cx="806" cy="840" r="8" class="c0"/>
<circle cx="692" cy="382" r="8" class="c0"/>
<circle cx="1012" cy="724" r="8" class="c0"/>
<circle cx="780" cy="806" r="8" class="c0"/>
<circle cx="922" cy="840" r="8" class="c0"/>
<circle cx="1052" cy="846" r="8" class="c0"/>
<circle cx="902" cy="748" r="8" class="c0"/>
<circle cx="1252" cy="888" r="8" class="c0"/>
<circle cx="764" cy="708" r="8" class="c0"/>
<circle cx="910" cy="676" r="8" class="c0"/>
<circle cx="1080" cy="788" r="8" class="c0"/>
<circle cx="758" cy="438" r="8" class="c0"/>
<circle cx="974" cy="798" r="8" class="c0"/>
<circle cx="1076" cy="826" r="8" class="c0"/>
<circle cx="970" cy="602" r="8" class="c0"/>
<circle cx="976" cy="872" r="8" class="c0"/>
<circle cx="994" cy="812" r="8" class="c0"/>
<circle cx="778" cy="528" r="8" class="c0"/>
<circle cx="894" cy="880" r="8" class="c0"/>
<circle cx="930" cy="640" r="8" class="c0"/>
<circle cx="1262" cy="932" r="8" class="c0"/>
<circle cx="770" cy="502" r="8" class="c0"/>
<circle cx="1120" cy="672" r="8" class="c0"/>
<circle cx="840" cy="566" r="8" class="c0"/>
<circle cx="834" cy="548" r="8" class="c0"/>
<circle cx="792" cy="662" r="8" class="c0"/>
<circle cx="804" cy="524" r="8" class="c0"/>
<circle cx="1030" cy="814" r="8" class="c0"/>
<circle cx="1006" cy="700" r="8" class="c0"/>
<circle cx="1010" cy="604" r="8" class="c0"/>
<circle cx="1282" cy="908" r="8" class="c0"/>
<circle cx="1094" cy="828" r="8" class="c0"/>
<circle cx="1330" cy="894" r="8" class="c0"/>
<circle cx="1224" cy="894" r="8" class="c0"/>
<circle cx="1184" cy="828" r="8" class="c0"/>
<circle cx="932" cy="586" r="8" class="c0"/>
<circle cx="794" cy="620" r="8" class="c0"/>
<circle cx="1114" cy="786" r="8" class="c0"/>
<circle cx="824" cy="744" r="8" class="c0"/>
<circle cx="856" cy="558" r="8" class="c0"/>
<circle cx="1034" cy="888" r="8" class="c0"/>
<circle cx="884" cy="846" r="8" class="c0"/>
<circle cx="982" cy="686" r="8" class="c0"/>
<circle cx="1292" cy="882" r="8" class="c0"/>
<circle cx="826" cy="606" r="8" class="c0"/>
<circle cx="818" cy="800" r="8" class="c0"/>
<circle cx="738" cy="382" r="8" class="c0"/>
<circle cx="1318" cy="914" r="8" class="c0"/>
<circle cx="968" cy="636" r="8" class="c0"/>
<circle cx="856" cy="846" r="8" class="c0"/>
<circle cx="1234" cy="878" r="8" class="c0"/>
<circle cx="1110" cy="712" r="8" class="c0"/>
<circle cx="974" cy="776" r="8" class="c0"/>
<circle cx="1128" cy="796" r="8" class="c0"/>
<circle cx="872" cy="574" r="8" class="c0"/>
<circle cx="1088" cy="804" r="8" class="c0"/>
<circle cx="946" cy="600" r="8" class="c0"/>
<circle cx="758" cy="466" r="8" class="c0"/>
<circle cx="1202" cy="872" r="8" class="c0"/>
<circle cx="876" cy="816" r="8" class="c0"/>
<circle cx="932" cy="784" r="8" class="c0"/>
<circle cx="982" cy="904" r="8" class="c0"/>
<circle cx="700" cy="452" r="8" class="c0"/>
<circle cx="768" cy="758" r="8" class="c0"/>
<circle cx="1064" cy="710" r="8" class="c0"/>
<circle cx="788" cy="492" r="8" class="c0"/>
<circle cx="822" cy="848" r="8" class="c0"/>
<circle cx="1062" cy="836" r="6" class="c0"/>
<circle cx="906" cy="728" r="6" class="c0"/>
<circle cx="786" cy="680" r="6" class="c0"/>
<circle cx="846" cy="642" r="6" class="c0"/>
<circle cx="1316" cy="884" r="6" class="c0"/>
<circle cx="1158" cy="820" r="6" class="c0"/>
<circle cx="806" cy="712" r="6" class="c0"/>
<circle cx="808" cy="570" r="6" class="c0"/>
<circle cx="1302" cy="938" r="6" class="c0"/>
<circle cx="1026" cy="734" r="6" class="c0"/>
<circle cx="998" cy="900" r="6" class="c0"/>
<circle cx="764" cy="680" r="6" class="c0"/>
<circle cx="748" cy="448" r="6" class="c0"/>
<circle cx="732" cy="418" r="6" class="c0"/>
<circle cx="930" cy="620" r="6" class="c0"/>
<circle cx="894" cy="622" r="6" class="c0"/>
<circle cx="864" cy="680" r="6" class="c0"/>
<circle cx="962" cy="860" r="6" class="c0"/>
<circle cx="834" cy="702" r="6" class="c0"/>
<circle cx="770" cy="652" r="6" class="c0"/>
<circle cx="990" cy="738" r="6" class="c0"/>
<circle cx="1034" cy="636" r="6" class="c0"/>
<circle cx="1100" cy="794" r="6" class="c0"/>
<circle cx="858" cy="602" r="6" class="c0"/>
<circle cx="830" cy="768" r="6" class="c0"/>
<circle cx="1264" cy="916" r="6" class="c0"/>
<circle cx="816" cy="622" r="6" class="c0"/>
<circle cx="708" cy="390" r="6" class="c0"/>
<circle cx="1076" cy="654" r="6" class="c0"/>
<circle cx="740" cy="400" r="6" class="c0"/>
<circle cx="1002" cy="624" r="6" class="c0"/>
<circle cx="1128" cy="696" r="6" class="c0"/>
<circle cx="752" cy="416" r="6" class="c0"/>
<circle cx="788" cy="826" r="6" class="c0"/>
<circle cx="1094" cy="688" r="6" class="c0"/>
<circle cx="894" cy="662" r="6" class="c0"/>
<circle cx="960" cy="652" r="6" class="c0"/>
<circle cx="800" cy="558" r="6" class="c0"/>
<circle cx="906" cy="632" r="6" class="c0"/>
<circle cx="998" cy="868" r="6" class="c0"/>
<circle cx="1144" cy="860" r="6" class="c0"/>
<circle cx="928" cy="822" r="6" class="c0"/>
<circle cx="752" cy="506" r="6" class="c0"/>
<circle cx="816" cy="782" r="6" class="c0"/>
<circle cx="880" cy="780" r="6" class="c0"/>
<circle cx="1274" cy="942" r="6" class="c0"/>
<circle cx="904" cy="692" r="6" class="c0"/>
<circle cx="1184" cy="880" r="6" class="c0"/>
<circle cx="872" cy="770" r="6" class="c0"/>
<circle cx="688" cy="442" r="6" class="c0"/>
<circle cx="914" cy="738" r="6" class="c0"/>
<circle cx="876" cy="720" r="6" class="c0"/>
<circle cx="954" cy="742" r="6" class="c0"/>
<circle cx="1114" cy="838" r="6" class="c0"/>
<circle cx="1044" cy="628" r="6" class="c0"/>
<circle cx="920" cy="628" r="6" class="c0"/>
<circle cx="1234" cy="854" r="6" class="c0"/>
<circle cx="1016" cy="620" r="6" class="c0"/>
<circle cx="1062" cy="856" r="6" class="c0"/>
<circle cx="924" cy="856" r="6" class="c0"/>
<circle cx="926" cy="668" r="6" class="c0"/>
<circle cx="1214" cy="882" r="6" class="c0"/>
<circle cx="1238" cy="944" r="6" class="c0"/>
<circle cx="1150" cy="848" r="6" class="c0"/>
<circle cx="736" cy="488" r="6" class="c0"/>
<circle cx="828" cy="688" r="6" class="c0"/>
<circle cx="904" cy="842" r="6" class="c0"/>
<circle cx="978" cy="856" r="6" class="c0"/>
<circle cx="1122" cy="848" r="6" class="c0"/>
<circle cx="836" cy="656" r="6" class="c0"/>
<circle cx="1154" cy="872" r="6" class="c0"/>
<circle cx="1078" cy="676" r="6" class="c0"/>
<circle cx="774" cy="790" r="6" class="c0"/>
<circle cx="808" cy="498" r="6" class="c0"/>
<circle cx="938" cy="844" r="6" class="c0"/>
<circle cx="772" cy="688" r="6" class="c0"/>
<circle cx="986" cy="826" r="6" class="c0"/>
<circle cx="746" cy="348" r="6" class="c0"/>
<circle cx="1228" cy="918" r="6" class="c0"/>
<circle cx="880" cy="632" r="6" class="c0"/>
<circle cx="768" cy="518" r="6" class="c0"/>
<circle cx="1100" cy="844" r="6" class="c0"/>
<circle cx="944" cy="814" r="6" class="c0"/>
<circle cx="692" cy="400" r="6" class="c0"/>
<circle cx="1044" cy="768" r="6" class="c0"/>
<circle cx="976" cy="838" r="6" class="c0"/>
<circle cx="1260" cy="948" r="6" class="c0"/>
<circle cx="714" cy="376" r="6" class="c0"/>
<circle cx="972" cy="890" r="6" class="c0"/>
<circle cx="892" cy="600" r="6" class="c0"/>
<circle cx="1180" cy="900" r="6" class="c0"/>
<circle cx="1164" cy="882" r="6" class="c0"/>
<circle cx="840" cy="844" r="6" class="c0"/>
<circle cx="834" cy="754" r="6" class="c0"/>
<circle cx="774" cy="448" r="6" class="c0"/>
<circle cx="1302" cy="918" r="6" class="c0"/>
<circle cx="864" cy="752" r="6" class="c0"/>
<circle cx="1196" cy="888" r="6" class="c0"/>
<circle cx="1174" cy="818" r="6" class="c0"/>
<circle cx="674" cy="398" r="6" class="c0"/>
<circle cx="942" cy="766" r="6" class="c0"/>
<circle cx="870" cy="800" r="6" class="c0"/>
<circle cx="828" cy="528" r="6" class="c0"/>
<circle cx="734" cy="356" r="6" class="c0"/>
<circle cx="1128" cy="718" r="6" class="c0"/>
<circle cx="1242" cy="930" r="6" class="c0"/>
<circle cx="814" cy="512" r="6" class="c0"/>
<circle cx="1178" cy="844" r="6" class="c0"/>
<circle cx="952" cy="682" r="6" class="c0"/>
</svg>
