<?xml version="1.0" encoding="utf-8"?>
<svg xmlns="http://www.w3.org/2000/svg"
     xmlns:xlink="http://www.w3.org/1999/xlink" width="1920" height="1440" >

            <defs>
            <style type="text/css"><![CDATA[
circle {stroke: none;}
.c0 {fill: #FFFFFF;}
]]></style>
            </defs>
<rect x="0" y="0" width="1920" height="1440" fill="black"/>
<circle cx="718" cy="734" r="12" class="c0"/>
<circle cx="852" cy="724" r="12" class="c0"/>
<circle cx="1050" cy="758" r="12" class="c0"/>
<circle cx="556" cy="750" r="12" class="c0"/>
<circle cx="1000" cy="904" r="12" class="c0"/>
<circle cx="822" cy="708" r="12" class="c0"/>
<circle cx="802" cy="826" r="12" class="c0"/>
<circle cx="684" cy="762" r="12" class="c0"/>
<circle cx="814" cy="800" r="12" class="c0"/>
<circle cx="930" cy="816" r="12" class="c0"/>
<circle cx="856" cy="860" r="12" class="c0"/>
<circle cx="1084" cy="694" r="12" class="c0"/>
<circle cx="1110" cy="632" r="12" class="c0"/>
<circle cx="884" cy="770" r="12" class="c0"/>
<circle cx="1086" cy="790" r="12" class="c0"/>
<circle cx="864" cy="828" r="12" class="c0"/>
<circle cx="1088" cy="828" r="12" class="c0"/>
<circle cx="800" cy="784" r="12" class="c0"/>
<circle cx="816" cy="756" r="12" class="c0"/>
<circle cx="976" cy="578" r="10" class="c0"/>
<circle cx="912" cy="910" r="10" class="c0"/>
<circle cx="984" cy="878" r="10" class="c0"/>
<circle cx="882" cy="660" r="10" class="c0"/>
<circle cx="1008" cy="756" r="10" class="c0"/>
<circle cx="1148" cy="606" r="10" class="c0"/>
<circle cx="912" cy="650" r="10" class="c0"/>
<circle cx="994" cy="780" r="10" class="c0"/>
<circle cx="972" cy="866" r="10" class="c0"/>
<circle cx="1062" cy="840" r="10" class="c0"/>
<circle cx="660" cy="744" r="10" class="c0"/>
<circle cx="1128" cy="764" r="10" class="c0"/>
<circle cx="1092" cy="726" r="10" class="c0"/>
<circle cx="968" cy="704" r="10" class="c0"/>
<circle cx="888" cy="822" r="10" class="c0"/>
<circle cx="884" cy="862" r="10" class="c0"/>
<circle cx="1004" cy="592" r="10" class="c0"/>
<circle cx="1076" cy="646" r="10" class="c0"/>
<circle cx="590" cy="786" r="10" class="c0"/>
<circle cx="1336" cy="550" r="10" class="c0"/>
<circle cx="934" cy="714" r="10" class="c0"/>
<circle cx="968" cy="626" r="10" class="c0"/>
<circle cx="1014" cy="660" r="10" class="c0"/>
<circle cx="848" cy="768" r="10" class="c0"/>
<circle cx="872" cy="794" r="10" class="c0"/>
<circle cx="910" cy="606" r="10" class="c0"/>
<circle cx="1268" cy="538" r="10" class="c0"/>
<circle cx="902" cy="724" r="10" class="c0"/>
<circle cx="784" cy="814" r="10" class="c0"/>
<circle cx="992" cy="814" r="10" class="c0"/>
<circle cx="1056" cy="720" r="10" class="c0"/>
<circle cx="1008" cy="826" r="10" class="c0"/>
<circle cx="1010" cy="724" r="10" class="c0"/>
<circle cx="1030" cy="624" r="10" class="c0"/>
<circle cx="1084" cy="758" r="10" class="c0"/>
<circle cx="772" cy="740" r="10" class="c0"/>
<circle cx="888" cy="632" r="10" class="c0"/>
<circle cx="648" cy="756" r="10" class="c0"/>
<circle cx="1060" cy="788" r="10" class="c0"/>
<circle cx="1034" cy="724" r="10" class="c0"/>
<circle cx="1044" cy="686" r="10" class="c0"/>
<circle cx="1126" cy="796" r="10" class="c0"/>
<circle cx="976" cy="914" r="10" class="c0"/>
<circle cx="796" cy="746" r="10" class="c0"/>
<circle cx="952" cy="642" r="10" class="c0"/>
<circle cx="960" cy="744" r="10" class="c0"/>
<circle cx="942" cy="692" r="10" class="c0"/>
<circle cx="1056" cy="814" r="10" class="c0"/>
<circle cx="940" cy="844" r="10" class="c0"/>
<circle cx="1054" cy="860" r="10" class="c0"/>
<circle cx="956" cy="824" r="10" class="c0"/>
<circle cx="892" cy="702" r="10" class="c0"/>
<circle cx="950" cy="600" r="10" class="c0"/>
<circle cx="1100" cy="672" r="10" class="c0"/>
<circle cx="1264" cy="584" r="10" class="c0"/>
<circle cx="928" cy="754" r="10" class="c0"/>
<circle cx="738" cy="752" r="10" class="c0"/>
<circle cx="916" cy="800" r="10" class="c0"/>
<circle cx="1246" cy="574" r="10" class="c0"/>
<circle cx="1202" cy="602" r="10" class="c0"/>
<circle cx="962" cy="664" r="10" class="c0"/>
<circle cx="1056" cy="670" r="10" class="c0"/>
<circle cx="966" cy="844" r="10" class="c0"/>
<circle cx="1004" cy="690" r="10" class="c0"/>
<circle cx="966" cy="770" r="10" class="c0"/>
<circle cx="1054" cy="632" r="8" class="c0"/>
<circle cx="1044" cy="878" r="8" class="c0"/>
<circle cx="954" cy="724" r="8" class="c0"/>
<circle cx="776" cy="770" r="8" class="c0"/>
<circle cx="812" cy="676" r="8" class="c0"/>
<circle cx="836" cy="694" r="8" class="c0"/>
<circle cx="1044" cy="708" r="8" class="c0"/>
<circle cx="998" cy="556" r="8" class="c0"/>
<circle cx="1118" cy="718" r="8" class="c0"/>
<circle cx="840" cy="824" r="8" class="c0"/>
<circle cx="930" cy="664" r="8" class="c0"/>
<circle cx="786" cy="724" r="8" class="c0"/>
<circle cx="930" cy="616" r="8" class="c0"/>
<circle cx="1026" cy="574" r="8" class="c0"/>
<circle cx="1036" cy="744" r="8" class="c0"/>
<circle cx="1186" cy="586" r="8" class="c0"/>
<circle cx="612" cy="766" r="8" class="c0"/>
<circle cx="1164" cy="620" r="8" class="c0"/>
<circle cx="1082" cy="622" r="8" class="c0"/>
<circle cx="1066" cy="740" r="8" class="c0"/>
<circle cx="834" cy="852" r="8" class="c0"/>
<circle cx="1030" cy="766" r="8" class="c0"/>
<circle cx="1004" cy="848" r="8" class="c0"/>
<circle cx="1298" cy="532" r="8" class="c0"/>
<circle cx="1300" cy="580" r="8" class="c0"/>
<circle cx="1012" cy="614" r="8" class="c0"/>
<circle cx="834" cy="880" r="8" class="c0"/>
<circle cx="580" cy="758" r="8" class="c0"/>
<circle cx="966" cy="894" r="8" class="c0"/>
<circle cx="1106" cy="798" r="8" class="c0"/>
<circle cx="880" cy="740" r="8" class="c0"/>
<circle cx="990" cy="674" r="8" class="c0"/>
<circle cx="1136" cy="726" r="8" class="c0"/>
<circle cx="1100" cy="650" r="8" class="c0"/>
<circle cx="910" cy="674" r="8" class="c0"/>
<circle cx="704" cy="752" r="8" class="c0"/>
<circle cx="936" cy="898" r="8" class="c0"/>
<circle cx="1002" cy="798" r="8" class="c0"/>
<circle cx="940" cy="866" r="8" class="c0"/>
<circle cx="1078" cy="670" r="8" class="c0"/>
<circle cx="1042" cy="800" r="8" class="c0"/>
<circle cx="938" cy="922" r="8" class="c0"/>
<circle cx="858" cy="684" r="8" class="c0"/>
<circle cx="888" cy="890" r="8" class="c0"/>
<circle cx="1146" cy="630" r="8" class="c0"/>
<circle cx="1308" cy="550" r="8" class="c0"/>
<circle cx="990" cy="702" r="8" class="c0"/>
<circle cx="694" cy="724" r="8" class="c0"/>
<circle cx="634" cy="742" r="8" class="c0"/>
<circle cx="1034" cy="854" r="8" class="c0"/>
<circle cx="976" cy="600" r="8" class="c0"/>
<circle cx="916" cy="866" r="8" class="c0"/>
<circle cx="1024" cy="692" r="8" class="c0"/>
<circle cx="754" cy="724" r="8" class="c0"/>
<circle cx="842" cy="744" r="8" class="c0"/>
<circle cx="926" cy="636" r="8" class="c0"/>
<circle cx="936" cy="586" r="8" class="c0"/>
<circle cx="1296" cy="510" r="8" class="c0"/>
<circle cx="1106" cy="764" r="8" class="c0"/>
<circle cx="906" cy="838" r="8" class="c0"/>
<circle cx="950" cy="878" r="8" class="c0"/>
<circle cx="1190" cy="616" r="8" class="c0"/>
<circle cx="1116" cy="750" r="8" class="c0"/>
<circle cx="854" cy="658" r="8" class="c0"/>
<circle cx="982" cy="740" r="8" class="c0"/>
<circle cx="930" cy="774" r="8" class="c0"/>
<circle cx="826" cy="736" r="8" class="c0"/>
<circle cx="1206" cy="574" r="8" class="c0"/>
<circle cx="1324" cy="502" r="8" class="c0"/>
<circle cx="1004" cy="640" r="8" class="c0"/>
<circle cx="1020" cy="874" r="8" class="c0"/>
<circle cx="1022" cy="712" r="8" class="c0"/>
<circle cx="838" cy="804" r="8" class="c0"/>
<circle cx="908" cy="746" r="8" class="c0"/>
<circle cx="872" cy="704" r="8" class="c0"/>
<circle cx="804" cy="698" r="8" class="c0"/>
<circle cx="818" cy="862" r="8" class="c0"/>
<circle cx="990" cy="614" r="8" class="c0"/>
<circle cx="1036" cy="648" r="8" class="c0"/>
<circle cx="916" cy="694" r="8" class="c0"/>
<circle cx="1328" cy="520" r="8" class="c0"/>
<circle cx="1034" cy="666" r="8" class="c0"/>
<circle cx="978" cy="794" r="8" class="c0"/>
<circle cx="1024" cy="808" r="8" class="c0"/>
<circle cx="978" cy="650" r="8" class="c0"/>
<circle cx="1272" cy="562" r="8" class="c0"/>
<circle cx="1122" cy="658" r="8" class="c0"/>
<circle cx="1034" cy="828" r="8" class="c0"/>
<circle cx="1332" cy="570" r="8" class="c0"/>
<circle cx="854" cy="884" r="8" class="c0"/>
<circle cx="882" cy="720" r="8" class="c0"/>
<circle cx="810" cy="724" r="8" class="c0"/>
<circle cx="970" cy="684" r="8" class="c0"/>
<circle cx="868" cy="894" r="8" class="c0"/>
<circle cx="558" cy="772" r="8" class="c0"/>
<circle cx="982" cy="760" r="8" class="c0"/>
<circle cx="1256" cy="554" r="8" class="c0"/>
<circle cx="528" cy="766" r="8" class="c0"/>
<circle cx="1076" cy="810" r="8" class="c0"/>
<circle cx="1116" cy="690" r="8" class="c0"/>
<circle cx="948" cy="778" r="8" class="c0"/>
<circle cx="1288" cy="544" r="8" class="c0"/>
<circle cx="1176" cy="638" r="8" class="c0"/>
<circle cx="908" cy="630" r="8" class="c0"/>
<circle cx="1020" cy="780" r="8" class="c0"/>
<circle cx="600" cy="726" r="8" class="c0"/>
<circle cx="856" cy="806" r="8" class="c0"/>
<circle cx="920" cy="888" r="8" class="c0"/>
<circle cx="1228" cy="594" r="8" class="c0"/>
<circle cx="898" cy="756" r="8" class="c0"/>
<circle cx="1122" cy="818" r="8" class="c0"/>
<circle cx="776" cy="792" r="8" class="c0"/>
<circle cx="840" cy="672" r="8" class="c0"/>
<circle cx="954" cy="910" r="8" class="c0"/>
<circle cx="1132" cy="646" r="8" class="c0"/>
<circle cx="910" cy="776" r="8" class="c0"/>
<circle cx="972" cy="726" r="8" class="c0"/>
<circle cx="820" cy="838" r="8" class="c0"/>
<circle cx="1212" cy="620" r="8" class="c0"/>
<circle cx="622" cy="756" r="8" class="c0"/>
<circle cx="1124" cy="618" r="8" class="c0"/>
<circle cx="540" cy="734" r="8" class="c0"/>
<circle cx="1262" cy="604" r="8" class="c0"/>
<circle cx="738" cy="712" r="8" class="c0"/>
<circle cx="1016" cy="564" r="8" class="c0"/>
<circle cx="682" cy="736" r="8" class="c0"/>
<circle cx="828" cy="782" r="8" class="c0"/>
<circle cx="640" cy="774" r="8" class="c0"/>
<circle cx="808" cy="850" r="8" class="c0"/>
<circle cx="870" cy="874" r="8" class="c0"/>
<circle cx="1062" cy="700" r="8" class="c0"/>
<circle cx="576" cy="728" r="8" class="c0"/>
<circle cx="1314" cy="492" r="8" class="c0"/>
<circle cx="1144" cy="656" r="8" class="c0"/>
<circle cx="1140" cy="778" r="8" class="c0"/>
<circle cx="1236" cy="558" r="8" class="c0"/>
<circle cx="948" cy="620" r="8" class="c0"/>
<circle cx="908" cy="820" r="8" class="c0"/>
<circle cx="1346" cy="510" r="8" class="c0"/>
<circle cx="900" cy="788" r="8" class="c0"/>
<circle cx="994" cy="838" r="8" class="c0"/>
<circle cx="1144" cy="752" r="8" class="c0"/>
<circle cx="866" cy="760" r="8" class="c0"/>
<circle cx="1116" cy="780" r="8" class="c0"/>
<circle cx="904" cy="878" r="8" class="c0"/>
<circle cx="874" cy="686" r="6" class="c0"/>
<circle cx="978" cy="832" r="6" class="c0"/>
<circle cx="936" cy="792" r="6" class="c0"/>
<circle cx="894" cy="672" r="6" class="c0"/>
<circle cx="1130" cy="708" r="6" class="c0"/>
<circle cx="1018" cy="742" r="6" class="c0"/>
<circle cx="740" cy="734" r="6" class="c0"/>
<circle cx="1096" cy="744" r="6" class="c0"/>
<circle cx="1278" cy="524" r="6" class="c0"/>
<circle cx="1066" cy="684" r="6" class="c0"/>
<circle cx="1246" cy="544" r="6" class="c0"/>
<circle cx="998" cy="742" r="6" class="c0"/>
<circle cx="576" cy="796" r="6" class="c0"/>
<circle cx="760" cy="752" r="6" class="c0"/>
<circle cx="1056" cy="648" r="6" class="c0"/>
<circle cx="844" cy="786" r="6" class="c0"/>
<circle cx="1170" cy="598" r="6" class="c0"/>
<circle cx="1294" cy="562" r="6" class="c0"/>
<circle cx="1004" cy="872" r="6" class="c0"/>
<circle cx="598" cy="746" r="6" class="c0"/>
<circle cx="1010" cy="884" r="6" class="c0"/>
<circle cx="1104" cy="704" r="6" class="c0"/>
<circle cx="1064" cy="614" r="6" class="c0"/>
<circle cx="1112" cy="734" r="6" class="c0"/>
<circle cx="870" cy="848" r="6" class="c0"/>
<circle cx="930" cy="734" r="6" class="c0"/>
<circle cx="954" cy="798" r="6" class="c0"/>
<circle cx="872" cy="644" r="6" class="c0"/>
<circle cx="962" cy="790" r="6" class="c0"/>
<circle cx="1356" cy="494" r="6" class="c0"/>
<circle cx="1076" cy="856" r="6" class="c0"/>
<circle cx="1160" cy="642" r="6" class="c0"/>
<circle cx="574" cy="776" r="6" class="c0"/>
<circle cx="1072" cy="772" r="6" class="c0"/>
<circle cx="850" cy="704" r="6" class="c0"/>
<circle cx="992" cy="720" r="6" class="c0"/>
<circle cx="1224" cy="576" r="6" class="c0"/>
<circle cx="992" cy="860" r="6" class="c0"/>
<circle cx="796" cy="714" r="6" class="c0"/>
<circle cx="954" cy="858" r="6" class="c0"/>
<circle cx="864" cy="778" r="6" class="c0"/>
<circle cx="1018" cy="856" r="6" class="c0"/>
<circle cx="540" cy="778" r="6" class="c0"/>
<circle cx="918" cy="850" r="6" class="c0"/>
<circle cx="886" cy="844" r="6" class="c0"/>
<circle cx="1038" cy="784" r="6" class="c0"/>
<circle cx="1002" cy="572" r="6" class="c0"/>
<circle cx="1086" cy="848" r="6" class="c0"/>
<circle cx="888" cy="684" r="6" class="c0"/>
<circle cx="822" cy="818" r="6" class="c0"/>
<circle cx="534" cy="706" r="6" class="c0"/>
<circle cx="1316" cy="584" r="6" class="c0"/>
<circle cx="530" cy="750" r="6" class="c0"/>
<circle cx="1108" cy="826" r="6" class="c0"/>
<circle cx="902" cy="856" r="6" class="c0"/>
<circle cx="724" cy="766" r="6" class="c0"/>
<circle cx="792" cy="764" r="6" class="c0"/>
<circle cx="922" cy="726" r="6" class="c0"/>
<circle cx="638" cy="718" r="6" class="c0"/>
<circle cx="956" cy="926" r="6" class="c0"/>
<circle cx="1088" cy="660" r="6" class="c0"/>
<circle cx="1096" cy="808" r="6" class="c0"/>
<circle cx="956" cy="582" r="6" class="c0"/>
<circle cx="954" cy="680" r="6" class="c0"/>
<circle cx="882" cy="908" r="6" class="c0"/>
<circle cx="970" cy="814" r="6" class="c0"/>
<circle cx="890" cy="804" r="6" class="c0"/>
<circle cx="1282" cy="608" r="6" class="c0"/>
<circle cx="622" cy="780" r="6" class="c0"/>
<circle cx="848" cy="842" r="6" class="c0"/>
<circle cx="1322" cy="536" r="6" class="c0"/>
<circle cx="1020" cy="896" r="6" class="c0"/>
<circle cx="988" cy="632" r="6" class="c0"/>
<circle cx="952" cy="760" r="6" class="c0"/>
<circle cx="784" cy="708" r="6" class="c0"/>
<circle cx="1102" cy="614" r="6" class="c0"/>
<circle cx="566" cy="786" r="6" class="c0"/>
<circle cx="992" cy="658" r="6" class="c0"/>
<circle cx="1038" cy="564" r="6" class="c0"/>
<circle cx="1312" cy="512" r="6" class="c0"/>
<circle cx="1076" cy="712" r="6" class="c0"/>
<circle cx="964" cy="590" r="6" class="c0"/>
<circle cx="1228" cy="612" r="6" class="c0"/>
<circle cx="670" cy="724" r="6" class="c0"/>
<circle cx="586" cy="740" r="6" class="c0"/>
<circle cx="568" cy="712" r="6" class="c0"/>
<circle cx="1030" cy="888" r="6" class="c0"/>
<circle cx="610" cy="738" r="6" class="c0"/>
<circle cx="896" cy="616" r="6" class="c0"/>
<circle cx="962" cy="806" r="6" class="c0"/>
<circle cx="1000" cy="624" r="6" class="c0"/>
<circle cx="770" cy="714" r="6" class="c0"/>
<circle cx="710" cy="716" r="6" class="c0"/>
<circle cx="860" cy="742" r="6" class="c0"/>
<circle cx="870" cy="672" r="6" class="c0"/>
<circle cx="622" cy="722" r="6" class="c0"/>
<circle cx="596" cy="760" r="6" class="c0"/>
<circle cx="662" cy="766" r="6" class="c0"/>
<circle cx="982" cy="896" r="6" class="c0"/>
<circle cx="924" cy="836" r="6" class="c0"/>
<circle cx="930" cy="876" r="6" class="c0"/>
<circle cx="826" cy="684" r="6" class="c0"/>
<circle cx="1126" cy="738" r="6" class="c0"/>
<circle cx="1180" cy="606" r="6" class="c0"/>
<circle cx="924" cy="596" r="6" class="c0"/>
<circle cx="916" cy="712" r="6" class="c0"/>
<circle cx="560" cy="724" r="6" class="c0"/>
<circle cx="752" cy="742" r="6" class="c0"/>
<circle cx="942" cy="742" r="6" class="c0"/>
<circle cx="1024" cy="842" r="6" class="c0"/>
<circle cx="512" cy="762" r="6" class="c0"/>
<circle cx="1020" cy="642" r="6" class="c0"/>
<circle cx="1044" cy="844" r="6" class="c0"/>
<circle cx="1314" cy="528" r="6" class="c0"/>
<circle cx="792" cy="842" r="6" class="c0"/>
<circle cx="926" cy="684" r="6" class="c0"/>
<circle cx="1016" cy="678" r="6" class="c0"/>
<circle cx="1218" cy="564" r="6" class="c0"/>
<circle cx="1248" cy="620" r="6" class="c0"/>
<circle cx="1358" cy="540" r="6" class="c0"/>
<circle cx="1090" cy="636" r="6" class="c0"/>
<circle cx="1318" cy="560" r="6" class="c0"/>
<circle cx="988" cy="566" r="6" class="c0"/>
<circle cx="984" cy="852" r="6" class="c0"/>
<circle cx="1246" cy="598" r="6" class="c0"/>
<circle cx="1198" cy="630" r="6" class="c0"/>
<circle cx="940" cy="654" r="6" class="c0"/>
</svg>
