<?xml version="1.0" encoding="utf-8"?>
<svg xmlns="http://www.w3.org/2000/svg"
     xmlns:xlink="http://www.w3.org/1999/xlink" width="1920" height="1440" >

            <defs>
            <style type="text/css"><![CDATA[
circle {stroke: none;}
.c0 {fill: #FFFFFF;}
]]></style>
            </defs>
<rect x="0" y="0" width="1920" height="1440" fill="black"/>
<circle cx="926" cy="762" r="12" class="c0"/>
<circle cx="1026" cy="900" r="12" class="c0"/>
<circle cx="1056" cy="732" r="12" class="c0"/>
<circle cx="1064" cy="624" r="12" class="c0"/>
<circle cx="998" cy="390" r="12" class="c0"/>
<circle cx="1080" cy="592" r="12" class="c0"/>
<circle cx="884" cy="912" r="12" class="c0"/>
<circle cx="1012" cy="330" r="12" class="c0"/>
<circle cx="994" cy="726" r="12" class="c0"/>
<circle cx="1102" cy="762" r="12" class="c0"/>
<circle cx="1034" cy="868" r="12" class="c0"/>
<circle cx="982" cy="910" r="12" class="c0"/>
<circle cx="906" cy="818" r="12" class="c0"/>
<circle cx="972" cy="576" r="12" class="c0"/>
<circle cx="1064" cy="670" r="12" class="c0"/>
<circle cx="1060" cy="872" r="12" class="c0"/>
<circle cx="964" cy="870" r="12" class="c0"/>
<circle cx="950" cy="842" r="12" class="c0"/>
<circle cx="1084" cy="654" r="12" class="c0"/>
<circle cx="1004" cy="304" r="12" class="c0"/>
<circle cx="1002" cy="458" r="12" class="c0"/>
<circle cx="1022" cy="778" r="12" class="c0"/>
<circle cx="968" cy="694" r="12" class="c0"/>
<circle cx="960" cy="664" r="12" class="c0"/>
<circle cx="858" cy="728" r="12" class="c0"/>
<circle cx="952" cy="770" r="12" class="c0"/>
<circle cx="1012" cy="672" r="12" class="c0"/>
<circle cx="836" cy="966" r="12" class="c0"/>
<circle cx="1044" cy="832" r="12" class="c0"/>
<circle cx="990" cy="664" r="10" class="c0"/>
<circle cx="1122" cy="800" r="10" class="c0"/>
<circle cx="1132" cy="692" r="10" class="c0"/>
<circle cx="960" cy="622" r="10" class="c0"/>
<circle cx="846" cy="944" r="10" class="c0"/>
<circle cx="928" cy="866" r="10" class="c0"/>
<circle cx="982" cy="832" r="10" class="c0"/>
<circle cx="1002" cy="526" r="10" class="c0"/>
<circle cx="1010" cy="552" r="10" class="c0"/>
<circle cx="1116" cy="622" r="10" class="c0"/>
<circle cx="998" cy="808" r="10" class="c0"/>
<circle cx="952" cy="718" r="10" class="c0"/>
<circle cx="814" cy="1018" r="10" class="c0"/>
<circle cx="888" cy="648" r="10" class="c0"/>
<circle cx="886" cy="828" r="10" class="c0"/>
<circle cx="900" cy="702" r="10" class="c0"/>
<circle cx="1060" cy="810" r="10" class="c0"/>
<circle cx="914" cy="730" r="10" class="c0"/>
<circle cx="1026" cy="628" r="10" class="c0"/>
<circle cx="930" cy="658" r="10" class="c0"/>
<circle cx="1016" cy="704" r="10" class="c0"/>
<circle cx="1100" cy="808" r="10" class="c0"/>
<circle cx="882" cy="776" r="10" class="c0"/>
<circle cx="858" cy="602" r="10" class="c0"/>
<circle cx="988" cy="514" r="10" class="c0"/>
<circle cx="1054" cy="782" r="10" class="c0"/>
<circle cx="1092" cy="864" r="10" class="c0"/>
<circle cx="910" cy="876" r="10" class="c0"/>
<circle cx="1018" cy="488" r="10" class="c0"/>
<circle cx="1002" cy="876" r="10" class="c0"/>
<circle cx="1132" cy="738" r="10" class="c0"/>
<circle cx="862" cy="626" r="10" class="c0"/>
<circle cx="1030" cy="750" r="10" class="c0"/>
<circle cx="748" cy="1082" r="10" class="c0"/>
<circle cx="1102" cy="690" r="10" class="c0"/>
<circle cx="1030" cy="812" r="10" class="c0"/>
<circle cx="1042" cy="578" r="10" class="c0"/>
<circle cx="858" cy="930" r="10" class="c0"/>
<circle cx="996" cy="592" r="10" class="c0"/>
<circle cx="1072" cy="794" r="10" class="c0"/>
<circle cx="1014" cy="640" r="10" class="c0"/>
<circle cx="1020" cy="728" r="10" class="c0"/>
<circle cx="932" cy="918" r="10" class="c0"/>
<circle cx="888" cy="736" r="10" class="c0"/>
<circle cx="772" cy="1060" r="10" class="c0"/>
<circle cx="996" cy="750" r="10" class="c0"/>
<circle cx="924" cy="694" r="10" class="c0"/>
<circle cx="850" cy="814" r="10" class="c0"/>
<circle cx="900" cy="750" r="10" class="c0"/>
<circle cx="1114" cy="852" r="10" class="c0"/>
<circle cx="858" cy="700" r="10" class="c0"/>
<circle cx="982" cy="486" r="10" class="c0"/>
<circle cx="856" cy="580" r="10" class="c0"/>
<circle cx="940" cy="804" r="10" class="c0"/>
<circle cx="1136" cy="772" r="10" class="c0"/>
<circle cx="948" cy="892" r="10" class="c0"/>
<circle cx="996" cy="282" r="10" class="c0"/>
<circle cx="994" cy="342" r="10" class="c0"/>
<circle cx="1050" cy="404" r="10" class="c0"/>
<circle cx="796" cy="1028" r="10" class="c0"/>
<circle cx="934" cy="828" r="10" class="c0"/>
<circle cx="1130" cy="830" r="8" class="c0"/>
<circle cx="854" cy="678" r="8" class="c0"/>
<circle cx="908" cy="780" r="8" class="c0"/>
<circle cx="944" cy="680" r="8" class="c0"/>
<circle cx="794" cy="1066" r="8" class="c0"/>
<circle cx="780" cy="1092" r="8" class="c0"/>
<circle cx="872" cy="868" r="8" class="c0"/>
<circle cx="960" cy="592" r="8" class="c0"/>
<circle cx="964" cy="820" r="8" class="c0"/>
<circle cx="936" cy="604" r="8" class="c0"/>
<circle cx="878" cy="886" r="8" class="c0"/>
<circle cx="886" cy="626" r="8" class="c0"/>
<circle cx="996" cy="684" r="8" class="c0"/>
<circle cx="1126" cy="654" r="8" class="c0"/>
<circle cx="1080" cy="716" r="8" class="c0"/>
<circle cx="908" cy="908" r="8" class="c0"/>
<circle cx="1090" cy="784" r="8" class="c0"/>
<circle cx="1014" cy="262" r="8" class="c0"/>
<circle cx="856" cy="852" r="8" class="c0"/>
<circle cx="976" cy="550" r="8" class="c0"/>
<circle cx="1068" cy="838" r="8" class="c0"/>
<circle cx="986" cy="704" r="8" class="c0"/>
<circle cx="848" cy="750" r="8" class="c0"/>
<circle cx="1004" cy="624" r="8" class="c0"/>
<circle cx="812" cy="992" r="8" class="c0"/>
<circle cx="918" cy="622" r="8" class="c0"/>
<circle cx="1012" cy="760" r="8" class="c0"/>
<circle cx="842" cy="618" r="8" class="c0"/>
<circle cx="948" cy="566" r="8" class="c0"/>
<circle cx="1108" cy="650" r="8" class="c0"/>
<circle cx="1036" cy="602" r="8" class="c0"/>
<circle cx="1078" cy="768" r="8" class="c0"/>
<circle cx="906" cy="610" r="8" class="c0"/>
<circle cx="806" cy="1054" r="8" class="c0"/>
<circle cx="950" cy="746" r="8" class="c0"/>
<circle cx="1050" cy="638" r="8" class="c0"/>
<circle cx="1108" cy="670" r="8" class="c0"/>
<circle cx="1002" cy="500" r="8" class="c0"/>
<circle cx="842" cy="988" r="8" class="c0"/>
<circle cx="846" cy="792" r="8" class="c0"/>
<circle cx="1036" cy="706" r="8" class="c0"/>
<circle cx="1002" cy="786" r="8" class="c0"/>
<circle cx="858" cy="878" r="8" class="c0"/>
<circle cx="1138" cy="814" r="8" class="c0"/>
<circle cx="836" cy="588" r="8" class="c0"/>
<circle cx="1034" cy="328" r="8" class="c0"/>
<circle cx="922" cy="892" r="8" class="c0"/>
<circle cx="1062" cy="304" r="8" class="c0"/>
<circle cx="1018" cy="360" r="8" class="c0"/>
<circle cx="1108" cy="786" r="8" class="c0"/>
<circle cx="964" cy="734" r="8" class="c0"/>
<circle cx="910" cy="680" r="8" class="c0"/>
<circle cx="958" cy="920" r="8" class="c0"/>
<circle cx="1046" cy="892" r="8" class="c0"/>
<circle cx="1032" cy="430" r="8" class="c0"/>
<circle cx="1090" cy="730" r="8" class="c0"/>
<circle cx="984" cy="886" r="8" class="c0"/>
<circle cx="972" cy="524" r="8" class="c0"/>
<circle cx="858" cy="782" r="8" class="c0"/>
<circle cx="876" cy="806" r="8" class="c0"/>
<circle cx="1008" cy="572" r="8" class="c0"/>
<circle cx="866" cy="652" r="8" class="c0"/>
<circle cx="1138" cy="666" r="8" class="c0"/>
<circle cx="858" cy="762" r="8" class="c0"/>
<circle cx="978" cy="758" r="8" class="c0"/>
<circle cx="906" cy="844" r="8" class="c0"/>
<circle cx="830" cy="1030" r="8" class="c0"/>
<circle cx="1082" cy="680" r="8" class="c0"/>
<circle cx="780" cy="992" r="8" class="c0"/>
<circle cx="856" cy="902" r="8" class="c0"/>
<circle cx="1116" cy="706" r="8" class="c0"/>
<circle cx="932" cy="714" r="8" class="c0"/>
<circle cx="880" cy="708" r="8" class="c0"/>
<circle cx="992" cy="774" r="8" class="c0"/>
<circle cx="958" cy="792" r="8" class="c0"/>
<circle cx="980" cy="786" r="8" class="c0"/>
<circle cx="1124" cy="758" r="8" class="c0"/>
<circle cx="978" cy="602" r="8" class="c0"/>
<circle cx="1094" cy="832" r="8" class="c0"/>
<circle cx="1132" cy="716" r="8" class="c0"/>
<circle cx="1020" cy="584" r="8" class="c0"/>
<circle cx="862" cy="962" r="8" class="c0"/>
<circle cx="874" cy="672" r="8" class="c0"/>
<circle cx="992" cy="856" r="8" class="c0"/>
<circle cx="1014" cy="436" r="8" class="c0"/>
<circle cx="836" cy="1010" r="8" class="c0"/>
<circle cx="726" cy="1068" r="8" class="c0"/>
<circle cx="1030" cy="464" r="8" class="c0"/>
<circle cx="1048" cy="762" r="8" class="c0"/>
<circle cx="1076" cy="888" r="8" class="c0"/>
<circle cx="888" cy="848" r="8" class="c0"/>
<circle cx="1054" cy="696" r="8" class="c0"/>
<circle cx="990" cy="566" r="8" class="c0"/>
<circle cx="1072" cy="750" r="8" class="c0"/>
<circle cx="1102" cy="604" r="8" class="c0"/>
<circle cx="1028" cy="656" r="8" class="c0"/>
<circle cx="898" cy="790" r="8" class="c0"/>
<circle cx="1052" cy="286" r="8" class="c0"/>
<circle cx="1072" cy="572" r="8" class="c0"/>
<circle cx="1026" cy="296" r="8" class="c0"/>
<circle cx="802" cy="1004" r="8" class="c0"/>
<circle cx="1012" cy="244" r="8" class="c0"/>
<circle cx="1018" cy="418" r="8" class="c0"/>
<circle cx="918" cy="794" r="8" class="c0"/>
<circle cx="986" cy="636" r="8" class="c0"/>
<circle cx="974" cy="716" r="8" class="c0"/>
<circle cx="1002" cy="922" r="8" class="c0"/>
<circle cx="876" cy="690" r="8" class="c0"/>
<circle cx="1106" cy="718" r="8" class="c0"/>
<circle cx="1042" cy="682" r="8" class="c0"/>
<circle cx="798" cy="1084" r="8" class="c0"/>
<circle cx="1022" cy="830" r="8" class="c0"/>
<circle cx="992" cy="412" r="8" class="c0"/>
<circle cx="1090" cy="626" r="8" class="c0"/>
<circle cx="1046" cy="382" r="8" class="c0"/>
<circle cx="868" cy="750" r="8" class="c0"/>
<circle cx="768" cy="1036" r="8" class="c0"/>
<circle cx="870" cy="838" r="8" class="c0"/>
<circle cx="976" cy="810" r="8" class="c0"/>
<circle cx="942" cy="634" r="8" class="c0"/>
<circle cx="994" cy="438" r="8" class="c0"/>
<circle cx="844" cy="772" r="8" class="c0"/>
<circle cx="1060" cy="600" r="8" class="c0"/>
<circle cx="956" cy="546" r="8" class="c0"/>
<circle cx="766" cy="1012" r="8" class="c0"/>
<circle cx="806" cy="958" r="8" class="c0"/>
<circle cx="1026" cy="564" r="8" class="c0"/>
<circle cx="1112" cy="820" r="8" class="c0"/>
<circle cx="1016" cy="852" r="8" class="c0"/>
<circle cx="1072" cy="700" r="8" class="c0"/>
<circle cx="958" cy="642" r="8" class="c0"/>
<circle cx="988" cy="616" r="8" class="c0"/>
<circle cx="908" cy="652" r="8" class="c0"/>
<circle cx="1058" cy="848" r="8" class="c0"/>
<circle cx="786" cy="1046" r="8" class="c0"/>
<circle cx="1022" cy="400" r="8" class="c0"/>
<circle cx="1026" cy="380" r="8" class="c0"/>
<circle cx="984" cy="368" r="8" class="c0"/>
<circle cx="850" cy="638" r="8" class="c0"/>
<circle cx="1040" cy="796" r="8" class="c0"/>
<circle cx="732" cy="1036" r="8" class="c0"/>
<circle cx="1014" cy="602" r="8" class="c0"/>
<circle cx="894" cy="672" r="8" class="c0"/>
<circle cx="1012" cy="796" r="8" class="c0"/>
<circle cx="1022" cy="538" r="8" class="c0"/>
<circle cx="762" cy="1096" r="8" class="c0"/>
<circle cx="896" cy="896" r="8" class="c0"/>
<circle cx="1140" cy="792" r="8" class="c0"/>
<circle cx="946" cy="698" r="8" class="c0"/>
<circle cx="916" cy="598" r="8" class="c0"/>
<circle cx="922" cy="640" r="8" class="c0"/>
<circle cx="1004" cy="370" r="6" class="c0"/>
<circle cx="772" cy="1108" r="6" class="c0"/>
<circle cx="1048" cy="656" r="6" class="c0"/>
<circle cx="1102" cy="740" r="6" class="c0"/>
<circle cx="976" cy="652" r="6" class="c0"/>
<circle cx="1008" cy="838" r="6" class="c0"/>
<circle cx="932" cy="786" r="6" class="c0"/>
<circle cx="936" cy="738" r="6" class="c0"/>
<circle cx="1024" cy="688" r="6" class="c0"/>
<circle cx="872" cy="946" r="6" class="c0"/>
<circle cx="854" cy="978" r="6" class="c0"/>
<circle cx="1066" cy="644" r="6" class="c0"/>
<circle cx="1078" cy="850" r="6" class="c0"/>
<circle cx="1050" cy="612" r="6" class="c0"/>
<circle cx="946" cy="582" r="6" class="c0"/>
<circle cx="844" cy="912" r="6" class="c0"/>
<circle cx="1088" cy="748" r="6" class="c0"/>
<circle cx="984" cy="468" r="6" class="c0"/>
<circle cx="1042" cy="306" r="6" class="c0"/>
<circle cx="1020" cy="278" r="6" class="c0"/>
<circle cx="838" cy="926" r="6" class="c0"/>
<circle cx="922" cy="840" r="6" class="c0"/>
<circle cx="1006" cy="894" r="6" class="c0"/>
<circle cx="1078" cy="612" r="6" class="c0"/>
<circle cx="870" cy="570" r="6" class="c0"/>
<circle cx="1080" cy="816" r="6" class="c0"/>
<circle cx="876" cy="600" r="6" class="c0"/>
<circle cx="818" cy="1078" r="6" class="c0"/>
<circle cx="890" cy="606" r="6" class="c0"/>
<circle cx="982" cy="534" r="6" class="c0"/>
<circle cx="846" cy="658" r="6" class="c0"/>
<circle cx="1000" cy="482" r="6" class="c0"/>
<circle cx="1060" cy="324" r="6" class="c0"/>
<circle cx="1052" cy="314" r="6" class="c0"/>
<circle cx="746" cy="1100" r="6" class="c0"/>
<circle cx="974" cy="848" r="6" class="c0"/>
<circle cx="822" cy="1002" r="6" class="c0"/>
<circle cx="908" cy="632" r="6" class="c0"/>
<circle cx="1118" cy="728" r="6" class="c0"/>
<circle cx="962" cy="902" r="6" class="c0"/>
<circle cx="1092" cy="704" r="6" class="c0"/>
<circle cx="990" cy="542" r="6" class="c0"/>
<circle cx="842" cy="836" r="6" class="c0"/>
<circle cx="816" cy="968" r="6" class="c0"/>
<circle cx="1124" cy="604" r="6" class="c0"/>
<circle cx="896" cy="862" r="6" class="c0"/>
<circle cx="876" cy="582" r="6" class="c0"/>
<circle cx="866" cy="796" r="6" class="c0"/>
<circle cx="1016" cy="512" r="6" class="c0"/>
<circle cx="1060" cy="582" r="6" class="c0"/>
<circle cx="810" cy="1070" r="6" class="c0"/>
<circle cx="766" cy="1080" r="6" class="c0"/>
<circle cx="868" cy="822" r="6" class="c0"/>
<circle cx="1042" cy="620" r="6" class="c0"/>
<circle cx="1082" cy="300" r="6" class="c0"/>
<circle cx="986" cy="296" r="6" class="c0"/>
<circle cx="844" cy="888" r="6" class="c0"/>
<circle cx="844" cy="690" r="6" class="c0"/>
<circle cx="816" cy="1042" r="6" class="c0"/>
<circle cx="822" cy="922" r="6" class="c0"/>
<circle cx="782" cy="1076" r="6" class="c0"/>
<circle cx="982" cy="448" r="6" class="c0"/>
<circle cx="826" cy="984" r="6" class="c0"/>
<circle cx="1074" cy="340" r="6" class="c0"/>
<circle cx="1056" cy="902" r="6" class="c0"/>
<circle cx="778" cy="1022" r="6" class="c0"/>
<circle cx="1136" cy="642" r="6" class="c0"/>
<circle cx="1098" cy="582" r="6" class="c0"/>
<circle cx="898" cy="768" r="6" class="c0"/>
<circle cx="898" cy="720" r="6" class="c0"/>
<circle cx="1028" cy="348" r="6" class="c0"/>
<circle cx="1118" cy="774" r="6" class="c0"/>
<circle cx="754" cy="1058" r="6" class="c0"/>
<circle cx="1032" cy="848" r="6" class="c0"/>
<circle cx="1000" cy="830" r="6" class="c0"/>
<circle cx="1012" cy="820" r="6" class="c0"/>
<circle cx="888" cy="874" r="6" class="c0"/>
<circle cx="916" cy="712" r="6" class="c0"/>
<circle cx="990" cy="320" r="6" class="c0"/>
<circle cx="1002" cy="652" r="6" class="c0"/>
<circle cx="756" cy="1026" r="6" class="c0"/>
<circle cx="970" cy="930" r="6" class="c0"/>
<circle cx="824" cy="948" r="6" class="c0"/>
<circle cx="1048" cy="340" r="6" class="c0"/>
<circle cx="830" cy="936" r="6" class="c0"/>
<circle cx="1024" cy="448" r="6" class="c0"/>
<circle cx="1018" cy="920" r="6" class="c0"/>
<circle cx="880" cy="934" r="6" class="c0"/>
<circle cx="756" cy="1112" r="6" class="c0"/>
<circle cx="976" cy="676" r="6" class="c0"/>
<circle cx="876" cy="616" r="6" class="c0"/>
<circle cx="1030" cy="312" r="6" class="c0"/>
<circle cx="1038" cy="914" r="6" class="c0"/>
<circle cx="916" cy="854" r="6" class="c0"/>
<circle cx="984" cy="262" r="6" class="c0"/>
<circle cx="1140" cy="754" r="6" class="c0"/>
<circle cx="1124" cy="676" r="6" class="c0"/>
<circle cx="874" cy="638" r="6" class="c0"/>
<circle cx="1128" cy="634" r="6" class="c0"/>
<circle cx="928" cy="676" r="6" class="c0"/>
<circle cx="820" cy="1062" r="6" class="c0"/>
<circle cx="1062" cy="712" r="6" class="c0"/>
<circle cx="970" cy="894" r="6" class="c0"/>
<circle cx="1034" cy="364" r="6" class="c0"/>
<circle cx="1002" cy="422" r="6" class="c0"/>
<circle cx="720" cy="1048" r="6" class="c0"/>
<circle cx="1114" cy="748" r="6" class="c0"/>
<circle cx="764" cy="982" r="6" class="c0"/>
<circle cx="1046" cy="716" r="6" class="c0"/>
<circle cx="1088" cy="574" r="6" class="c0"/>
<circle cx="1100" cy="636" r="6" class="c0"/>
<circle cx="836" cy="802" r="6" class="c0"/>
<circle cx="742" cy="1048" r="6" class="c0"/>
<circle cx="1112" cy="592" r="6" class="c0"/>
<circle cx="934" cy="620" r="6" class="c0"/>
<circle cx="1008" cy="408" r="6" class="c0"/>
</svg>
