<?xml version="1.0" encoding="utf-8"?>
<svg xmlns="http://www.w3.org/2000/svg"
     xmlns:xlink="http://www.w3.org/1999/xlink" width="1920" height="1440" >

            <defs>
            <style type="text/css"><![CDATA[
circle {stroke: none;}
.c0 {fill: #FFFFFF;}
]]></style>
            </defs>
<rect x="0" y="0" width="1920" height="1440" fill="black"/>
<circle cx="1074" cy="826" r="12" class="c0"/>
<circle cx="1002" cy="782" r="12" class="c0"/>
<circle cx="1034" cy="610" r="12" class="c0"/>
<circle cx="1096" cy="608" r="12" class="c0"/>
<circle cx="1024" cy="794" r="12" class="c0"/>
<circle cx="1100" cy="770" r="12" class="c0"/>
<circle cx="938" cy="636" r="12" class="c0"/>
<circle cx="888" cy="820" r="12" class="c0"/>
<circle cx="918" cy="470" r="12" class="c0"/>
<circle cx="1098" cy="710" r="12" class="c0"/>
<circle cx="958" cy="652" r="12" class="c0"/>
<circle cx="1038" cy="670" r="12" class="c0"/>
<circle cx="912" cy="384" r="12" class="c0"/>
<circle cx="984" cy="594" r="12" class="c0"/>
<circle cx="1058" cy="812" r="12" class="c0"/>
<circle cx="1038" cy="640" r="12" class="c0"/>
<circle cx="892" cy="750" r="12" class="c0"/>
<circle cx="866" cy="290" r="12" class="c0"/>
<circle cx="930" cy="1084" r="12" class="c0"/>
<circle cx="926" cy="886" r="12" class="c0"/>
<circle cx="902" cy="632" r="12" class="c0"/>
<circle cx="1140" cy="778" r="12" class="c0"/>
<circle cx="920" cy="818" r="12" class="c0"/>
<circle cx="812" cy="630" r="10" class="c0"/>
<circle cx="948" cy="564" r="10" class="c0"/>
<circle cx="982" cy="562" r="10" class="c0"/>
<circle cx="1050" cy="594" r="10" class="c0"/>
<circle cx="870" cy="720" r="10" class="c0"/>
<circle cx="900" cy="1116" r="10" class="c0"/>
<circle cx="940" cy="860" r="10" class="c0"/>
<circle cx="932" cy="508" r="10" class="c0"/>
<circle cx="1158" cy="754" r="10" class="c0"/>
<circle cx="1030" cy="850" r="10" class="c0"/>
<circle cx="1066" cy="710" r="10" class="c0"/>
<circle cx="880" cy="680" r="10" class="c0"/>
<circle cx="922" cy="314" r="10" class="c0"/>
<circle cx="972" cy="884" r="10" class="c0"/>
<circle cx="976" cy="780" r="10" class="c0"/>
<circle cx="1082" cy="682" r="10" class="c0"/>
<circle cx="946" cy="750" r="10" class="c0"/>
<circle cx="938" cy="1032" r="10" class="c0"/>
<circle cx="916" cy="1056" r="10" class="c0"/>
<circle cx="910" cy="596" r="10" class="c0"/>
<circle cx="994" cy="910" r="10" class="c0"/>
<circle cx="1056" cy="770" r="10" class="c0"/>
<circle cx="974" cy="700" r="10" class="c0"/>
<circle cx="1106" cy="806" r="10" class="c0"/>
<circle cx="960" cy="794" r="10" class="c0"/>
<circle cx="902" cy="720" r="10" class="c0"/>
<circle cx="1106" cy="854" r="10" class="c0"/>
<circle cx="938" cy="998" r="10" class="c0"/>
<circle cx="1050" cy="738" r="10" class="c0"/>
<circle cx="992" cy="678" r="10" class="c0"/>
<circle cx="1026" cy="742" r="10" class="c0"/>
<circle cx="984" cy="832" r="10" class="c0"/>
<circle cx="954" cy="682" r="10" class="c0"/>
<circle cx="1032" cy="908" r="10" class="c0"/>
<circle cx="884" cy="356" r="10" class="c0"/>
<circle cx="1012" cy="670" r="10" class="c0"/>
<circle cx="956" cy="900" r="10" class="c0"/>
<circle cx="938" cy="932" r="10" class="c0"/>
<circle cx="956" cy="824" r="10" class="c0"/>
<circle cx="860" cy="658" r="10" class="c0"/>
<circle cx="1004" cy="546" r="10" class="c0"/>
<circle cx="970" cy="622" r="10" class="c0"/>
<circle cx="888" cy="616" r="10" class="c0"/>
<circle cx="992" cy="636" r="10" class="c0"/>
<circle cx="942" cy="960" r="10" class="c0"/>
<circle cx="1002" cy="716" r="10" class="c0"/>
<circle cx="938" cy="480" r="10" class="c0"/>
<circle cx="980" cy="660" r="10" class="c0"/>
<circle cx="1130" cy="732" r="10" class="c0"/>
<circle cx="1054" cy="860" r="10" class="c0"/>
<circle cx="910" cy="764" r="10" class="c0"/>
<circle cx="1074" cy="582" r="10" class="c0"/>
<circle cx="1074" cy="644" r="10" class="c0"/>
<circle cx="854" cy="690" r="10" class="c0"/>
<circle cx="908" cy="838" r="10" class="c0"/>
<circle cx="1028" cy="874" r="8" class="c0"/>
<circle cx="914" cy="864" r="8" class="c0"/>
<circle cx="866" cy="748" r="8" class="c0"/>
<circle cx="940" cy="838" r="8" class="c0"/>
<circle cx="918" cy="650" r="8" class="c0"/>
<circle cx="904" cy="800" r="8" class="c0"/>
<circle cx="1090" cy="738" r="8" class="c0"/>
<circle cx="1052" cy="550" r="8" class="c0"/>
<circle cx="1056" cy="684" r="8" class="c0"/>
<circle cx="1122" cy="708" r="8" class="c0"/>
<circle cx="918" cy="420" r="8" class="c0"/>
<circle cx="1126" cy="812" r="8" class="c0"/>
<circle cx="990" cy="734" r="8" class="c0"/>
<circle cx="924" cy="782" r="8" class="c0"/>
<circle cx="1034" cy="548" r="8" class="c0"/>
<circle cx="946" cy="612" r="8" class="c0"/>
<circle cx="1152" cy="734" r="8" class="c0"/>
<circle cx="950" cy="528" r="8" class="c0"/>
<circle cx="1120" cy="758" r="8" class="c0"/>
<circle cx="1044" cy="718" r="8" class="c0"/>
<circle cx="1042" cy="888" r="8" class="c0"/>
<circle cx="896" cy="850" r="8" class="c0"/>
<circle cx="830" cy="660" r="8" class="c0"/>
<circle cx="972" cy="854" r="8" class="c0"/>
<circle cx="862" cy="800" r="8" class="c0"/>
<circle cx="1124" cy="846" r="8" class="c0"/>
<circle cx="1014" cy="650" r="8" class="c0"/>
<circle cx="990" cy="862" r="8" class="c0"/>
<circle cx="1032" cy="768" r="8" class="c0"/>
<circle cx="918" cy="738" r="8" class="c0"/>
<circle cx="1054" cy="572" r="8" class="c0"/>
<circle cx="872" cy="642" r="8" class="c0"/>
<circle cx="1114" cy="692" r="8" class="c0"/>
<circle cx="914" cy="444" r="8" class="c0"/>
<circle cx="902" cy="876" r="8" class="c0"/>
<circle cx="1086" cy="864" r="8" class="c0"/>
<circle cx="912" cy="964" r="8" class="c0"/>
<circle cx="890" cy="700" r="8" class="c0"/>
<circle cx="1118" cy="674" r="8" class="c0"/>
<circle cx="1062" cy="842" r="8" class="c0"/>
<circle cx="1012" cy="696" r="8" class="c0"/>
<circle cx="1056" cy="660" r="8" class="c0"/>
<circle cx="994" cy="880" r="8" class="c0"/>
<circle cx="912" cy="672" r="8" class="c0"/>
<circle cx="912" cy="570" r="8" class="c0"/>
<circle cx="1120" cy="636" r="8" class="c0"/>
<circle cx="974" cy="752" r="8" class="c0"/>
<circle cx="920" cy="700" r="8" class="c0"/>
<circle cx="842" cy="710" r="8" class="c0"/>
<circle cx="1100" cy="584" r="8" class="c0"/>
<circle cx="926" cy="912" r="8" class="c0"/>
<circle cx="1046" cy="700" r="8" class="c0"/>
<circle cx="936" cy="708" r="8" class="c0"/>
<circle cx="958" cy="506" r="8" class="c0"/>
<circle cx="1104" cy="830" r="8" class="c0"/>
<circle cx="1018" cy="838" r="8" class="c0"/>
<circle cx="940" cy="806" r="8" class="c0"/>
<circle cx="908" cy="358" r="8" class="c0"/>
<circle cx="898" cy="1088" r="8" class="c0"/>
<circle cx="892" cy="318" r="8" class="c0"/>
<circle cx="840" cy="288" r="8" class="c0"/>
<circle cx="914" cy="548" r="8" class="c0"/>
<circle cx="874" cy="1128" r="8" class="c0"/>
<circle cx="1140" cy="686" r="8" class="c0"/>
<circle cx="880" cy="1060" r="8" class="c0"/>
<circle cx="858" cy="310" r="8" class="c0"/>
<circle cx="826" cy="680" r="8" class="c0"/>
<circle cx="940" cy="774" r="8" class="c0"/>
<circle cx="904" cy="896" r="8" class="c0"/>
<circle cx="912" cy="990" r="8" class="c0"/>
<circle cx="930" cy="532" r="8" class="c0"/>
<circle cx="1060" cy="632" r="8" class="c0"/>
<circle cx="1010" cy="600" r="8" class="c0"/>
<circle cx="1082" cy="792" r="8" class="c0"/>
<circle cx="1014" cy="898" r="8" class="c0"/>
<circle cx="880" cy="1104" r="8" class="c0"/>
<circle cx="914" cy="332" r="8" class="c0"/>
<circle cx="1024" cy="710" r="8" class="c0"/>
<circle cx="1106" cy="730" r="8" class="c0"/>
<circle cx="1010" cy="754" r="8" class="c0"/>
<circle cx="1124" cy="656" r="8" class="c0"/>
<circle cx="952" cy="730" r="8" class="c0"/>
<circle cx="922" cy="582" r="8" class="c0"/>
<circle cx="1010" cy="566" r="8" class="c0"/>
<circle cx="960" cy="596" r="8" class="c0"/>
<circle cx="886" cy="378" r="8" class="c0"/>
<circle cx="926" cy="1014" r="8" class="c0"/>
<circle cx="914" cy="928" r="8" class="c0"/>
<circle cx="900" cy="296" r="8" class="c0"/>
<circle cx="906" cy="1022" r="8" class="c0"/>
<circle cx="856" cy="256" r="8" class="c0"/>
<circle cx="906" cy="1146" r="8" class="c0"/>
<circle cx="966" cy="578" r="8" class="c0"/>
<circle cx="1004" cy="852" r="8" class="c0"/>
<circle cx="844" cy="638" r="8" class="c0"/>
<circle cx="890" cy="774" r="8" class="c0"/>
<circle cx="1008" cy="806" r="8" class="c0"/>
<circle cx="1056" cy="904" r="8" class="c0"/>
<circle cx="858" cy="774" r="8" class="c0"/>
<circle cx="926" cy="610" r="8" class="c0"/>
<circle cx="924" cy="974" r="8" class="c0"/>
<circle cx="888" cy="652" r="8" class="c0"/>
<circle cx="996" cy="614" r="8" class="c0"/>
<circle cx="810" cy="654" r="8" class="c0"/>
<circle cx="1142" cy="710" r="8" class="c0"/>
<circle cx="1096" cy="650" r="8" class="c0"/>
<circle cx="900" cy="432" r="8" class="c0"/>
<circle cx="916" cy="496" r="8" class="c0"/>
<circle cx="1070" cy="604" r="8" class="c0"/>
<circle cx="1012" cy="920" r="8" class="c0"/>
<circle cx="1098" cy="668" r="8" class="c0"/>
<circle cx="860" cy="1116" r="8" class="c0"/>
<circle cx="1024" cy="818" r="8" class="c0"/>
<circle cx="924" cy="944" r="8" class="c0"/>
<circle cx="960" cy="544" r="8" class="c0"/>
<circle cx="1018" cy="864" r="8" class="c0"/>
<circle cx="942" cy="666" r="8" class="c0"/>
<circle cx="822" cy="608" r="8" class="c0"/>
<circle cx="874" cy="324" r="8" class="c0"/>
<circle cx="956" cy="710" r="8" class="c0"/>
<circle cx="1152" cy="804" r="8" class="c0"/>
<circle cx="980" cy="806" r="8" class="c0"/>
<circle cx="942" cy="594" r="8" class="c0"/>
<circle cx="1038" cy="832" r="8" class="c0"/>
<circle cx="1066" cy="884" r="8" class="c0"/>
<circle cx="872" cy="832" r="8" class="c0"/>
<circle cx="968" cy="920" r="8" class="c0"/>
<circle cx="1084" cy="566" r="8" class="c0"/>
<circle cx="1030" cy="588" r="8" class="c0"/>
<circle cx="1108" cy="626" r="8" class="c0"/>
<circle cx="926" cy="682" r="8" class="c0"/>
<circle cx="888" cy="280" r="8" class="c0"/>
<circle cx="902" cy="1070" r="8" class="c0"/>
<circle cx="1072" cy="782" r="8" class="c0"/>
<circle cx="884" cy="792" r="8" class="c0"/>
<circle cx="854" cy="732" r="8" class="c0"/>
<circle cx="1076" cy="894" r="8" class="c0"/>
<circle cx="1028" cy="570" r="8" class="c0"/>
<circle cx="852" cy="1098" r="8" class="c0"/>
<circle cx="984" cy="540" r="8" class="c0"/>
<circle cx="826" cy="1104" r="8" class="c0"/>
<circle cx="1000" cy="580" r="8" class="c0"/>
<circle cx="894" cy="406" r="8" class="c0"/>
<circle cx="1070" cy="556" r="8" class="c0"/>
<circle cx="912" cy="1102" r="8" class="c0"/>
<circle cx="932" cy="408" r="8" class="c0"/>
<circle cx="918" cy="292" r="8" class="c0"/>
<circle cx="934" cy="390" r="8" class="c0"/>
<circle cx="948" cy="878" r="8" class="c0"/>
<circle cx="880" cy="304" r="8" class="c0"/>
<circle cx="956" cy="766" r="8" class="c0"/>
<circle cx="914" cy="1128" r="8" class="c0"/>
<circle cx="1020" cy="626" r="8" class="c0"/>
<circle cx="948" cy="984" r="6" class="c0"/>
<circle cx="872" cy="1088" r="6" class="c0"/>
<circle cx="1092" cy="632" r="6" class="c0"/>
<circle cx="932" cy="450" r="6" class="c0"/>
<circle cx="972" cy="728" r="6" class="c0"/>
<circle cx="1080" cy="760" r="6" class="c0"/>
<circle cx="1080" cy="722" r="6" class="c0"/>
<circle cx="868" cy="764" r="6" class="c0"/>
<circle cx="962" cy="868" r="6" class="c0"/>
<circle cx="910" cy="404" r="6" class="c0"/>
<circle cx="1066" cy="730" r="6" class="c0"/>
<circle cx="944" cy="1108" r="6" class="c0"/>
<circle cx="898" cy="338" r="6" class="c0"/>
<circle cx="1012" cy="730" r="6" class="c0"/>
<circle cx="844" cy="668" r="6" class="c0"/>
<circle cx="832" cy="628" r="6" class="c0"/>
<circle cx="924" cy="720" r="6" class="c0"/>
<circle cx="1008" cy="824" r="6" class="c0"/>
<circle cx="968" cy="672" r="6" class="c0"/>
<circle cx="902" cy="1000" r="6" class="c0"/>
<circle cx="1092" cy="880" r="6" class="c0"/>
<circle cx="1074" cy="744" r="6" class="c0"/>
<circle cx="1000" cy="658" r="6" class="c0"/>
<circle cx="888" cy="1140" r="6" class="c0"/>
<circle cx="912" cy="526" r="6" class="c0"/>
<circle cx="1054" cy="612" r="6" class="c0"/>
<circle cx="950" cy="440" r="6" class="c0"/>
<circle cx="1048" cy="786" r="6" class="c0"/>
<circle cx="1128" cy="830" r="6" class="c0"/>
<circle cx="956" cy="848" r="6" class="c0"/>
<circle cx="936" cy="728" r="6" class="c0"/>
<circle cx="898" cy="578" r="6" class="c0"/>
<circle cx="828" cy="642" r="6" class="c0"/>
<circle cx="916" cy="1036" r="6" class="c0"/>
<circle cx="928" cy="560" r="6" class="c0"/>
<circle cx="882" cy="1076" r="6" class="c0"/>
<circle cx="942" cy="418" r="6" class="c0"/>
<circle cx="934" cy="366" r="6" class="c0"/>
<circle cx="1074" cy="622" r="6" class="c0"/>
<circle cx="1160" cy="780" r="6" class="c0"/>
<circle cx="984" cy="718" r="6" class="c0"/>
<circle cx="1028" cy="692" r="6" class="c0"/>
<circle cx="874" cy="626" r="6" class="c0"/>
<circle cx="892" cy="1012" r="6" class="c0"/>
<circle cx="946" cy="454" r="6" class="c0"/>
<circle cx="892" cy="1042" r="6" class="c0"/>
<circle cx="994" cy="752" r="6" class="c0"/>
<circle cx="902" cy="682" r="6" class="c0"/>
<circle cx="1086" cy="846" r="6" class="c0"/>
<circle cx="1114" cy="790" r="6" class="c0"/>
<circle cx="838" cy="614" r="6" class="c0"/>
<circle cx="888" cy="864" r="6" class="c0"/>
<circle cx="926" cy="846" r="6" class="c0"/>
<circle cx="1010" cy="882" r="6" class="c0"/>
<circle cx="922" cy="1114" r="6" class="c0"/>
<circle cx="900" cy="456" r="6" class="c0"/>
<circle cx="934" cy="1064" r="6" class="c0"/>
<circle cx="950" cy="944" r="6" class="c0"/>
<circle cx="868" cy="816" r="6" class="c0"/>
<circle cx="948" cy="916" r="6" class="c0"/>
<circle cx="992" cy="702" r="6" class="c0"/>
<circle cx="880" cy="852" r="6" class="c0"/>
<circle cx="1140" cy="822" r="6" class="c0"/>
<circle cx="994" cy="816" r="6" class="c0"/>
<circle cx="868" cy="266" r="6" class="c0"/>
<circle cx="886" cy="728" r="6" class="c0"/>
<circle cx="922" cy="798" r="6" class="c0"/>
<circle cx="984" cy="896" r="6" class="c0"/>
<circle cx="1094" cy="818" r="6" class="c0"/>
<circle cx="1136" cy="798" r="6" class="c0"/>
<circle cx="866" cy="1142" r="6" class="c0"/>
<circle cx="1060" cy="752" r="6" class="c0"/>
<circle cx="956" cy="930" r="6" class="c0"/>
<circle cx="938" cy="550" r="6" class="c0"/>
<circle cx="940" cy="1052" r="6" class="c0"/>
<circle cx="990" cy="766" r="6" class="c0"/>
<circle cx="916" cy="1162" r="6" class="c0"/>
<circle cx="1072" cy="856" r="6" class="c0"/>
<circle cx="964" cy="840" r="6" class="c0"/>
<circle cx="874" cy="342" r="6" class="c0"/>
<circle cx="964" cy="742" r="6" class="c0"/>
<circle cx="938" cy="578" r="6" class="c0"/>
<circle cx="924" cy="754" r="6" class="c0"/>
<circle cx="938" cy="790" r="6" class="c0"/>
<circle cx="862" cy="632" r="6" class="c0"/>
<circle cx="880" cy="966" r="6" class="c0"/>
<circle cx="872" cy="702" r="6" class="c0"/>
<circle cx="904" cy="782" r="6" class="c0"/>
<circle cx="922" cy="626" r="6" class="c0"/>
<circle cx="972" cy="640" r="6" class="c0"/>
<circle cx="1042" cy="756" r="6" class="c0"/>
<circle cx="1104" cy="746" r="6" class="c0"/>
<circle cx="878" cy="662" r="6" class="c0"/>
<circle cx="874" cy="780" r="6" class="c0"/>
<circle cx="860" cy="344" r="6" class="c0"/>
<circle cx="910" cy="278" r="6" class="c0"/>
<circle cx="906" cy="484" r="6" class="c0"/>
<circle cx="930" cy="1106" r="6" class="c0"/>
<circle cx="1138" cy="756" r="6" class="c0"/>
<circle cx="886" cy="840" r="6" class="c0"/>
<circle cx="904" cy="658" r="6" class="c0"/>
<circle cx="852" cy="756" r="6" class="c0"/>
<circle cx="1042" cy="562" r="6" class="c0"/>
<circle cx="858" cy="708" r="6" class="c0"/>
<circle cx="928" cy="432" r="6" class="c0"/>
<circle cx="946" cy="496" r="6" class="c0"/>
<circle cx="1070" cy="668" r="6" class="c0"/>
<circle cx="878" cy="736" r="6" class="c0"/>
<circle cx="896" cy="1160" r="6" class="c0"/>
<circle cx="902" cy="560" r="6" class="c0"/>
<circle cx="1082" cy="662" r="6" class="c0"/>
<circle cx="958" cy="476" r="6" class="c0"/>
<circle cx="850" cy="1136" r="6" class="c0"/>
<circle cx="942" cy="300" r="6" class="c0"/>
<circle cx="1038" cy="808" r="6" class="c0"/>
<circle cx="880" cy="1156" r="6" class="c0"/>
<circle cx="842" cy="272" r="6" class="c0"/>
<circle cx="936" cy="902" r="6" class="c0"/>
<circle cx="940" cy="692" r="6" class="c0"/>
<circle cx="990" cy="796" r="6" class="c0"/>
<circle cx="1136" cy="666" r="6" class="c0"/>
<circle cx="890" cy="1026" r="6" class="c0"/>
<circle cx="1084" cy="810" r="6" class="c0"/>
<circle cx="1098" cy="790" r="6" class="c0"/>
<circle cx="1002" cy="836" r="6" class="c0"/>
<circle cx="896" cy="666" r="6" class="c0"/>
</svg>
