<?xml version="1.0" encoding="utf-8"?>
<svg xmlns="http://www.w3.org/2000/svg"
     xmlns:xlink="http://www.w3.org/1999/xlink" width="1920" height="1440" >

            <defs>
            <style type="text/css"><![CDATA[
circle {stroke: none;}
.c0 {fill: #FFFFFF;}
]]></style>
            </defs>
<rect x="0" y="0" width="1920" height="1440" fill="black"/>
<circle cx="1022" cy="1014" r="14" class="c0"/>
<circle cx="1038" cy="444" r="12" class="c0"/>
<circle cx="876" cy="1138" r="12" class="c0"/>
<circle cx="970" cy="1350" r="12" class="c0"/>
<circle cx="1172" cy="1160" r="12" class="c0"/>
<circle cx="1216" cy="1252" r="12" class="c0"/>
<circle cx="950" cy="942" r="12" class="c0"/>
<circle cx="834" cy="838" r="12" class="c0"/>
<circle cx="788" cy="1250" r="12" class="c0"/>
<circle cx="1034" cy="1088" r="12" class="c0"/>
<circle cx="962" cy="558" r="12" class="c0"/>
<circle cx="924" cy="1306" r="12" class="c0"/>
<circle cx="924" cy="798" r="12" class="c0"/>
<circle cx="992" cy="1084" r="12" class="c0"/>
<circle cx="926" cy="1258" r="12" class="c0"/>
<circle cx="838" cy="1094" r="12" class="c0"/>
<circle cx="890" cy="830" r="12" class="c0"/>
<circle cx="890" cy="424" r="12" class="c0"/>
<circle cx="864" cy="450" r="12" class="c0"/>
<circle cx="896" cy="452" r="12" class="c0"/>
<circle cx="1008" cy="412" r="12" class="c0"/>
<circle cx="910" cy="1020" r="12" class="c0"/>
<circle cx="854" cy="680" r="12" class="c0"/>
<circle cx="1028" cy="1204" r="12" class="c0"/>
<circle cx="1052" cy="1196" r="12" class="c0"/>
<circle cx="954" cy="1400" r="12" class="c0"/>
<circle cx="1038" cy="514" r="12" class="c0"/>
<circle cx="998" cy="1336" r="12" class="c0"/>
<circle cx="856" cy="1390" r="12" class="c0"/>
<circle cx="816" cy="1178" r="12" class="c0"/>
<circle cx="916" cy="774" r="12" class="c0"/>
<circle cx="950" cy="528" r="12" class="c0"/>
<circle cx="730" cy="1360" r="12" class="c0"/>
<circle cx="876" cy="1194" r="12" class="c0"/>
<circle cx="822" cy="392" r="12" class="c0"/>
<circle cx="814" cy="498" r="12" class="c0"/>
<circle cx="802" cy="1164" r="12" class="c0"/>
<circle cx="800" cy="1220" r="12" class="c0"/>
<circle cx="948" cy="756" r="12" class="c0"/>
<circle cx="922" cy="576" r="10" class="c0"/>
<circle cx="952" cy="1120" r="10" class="c0"/>
<circle cx="1078" cy="1170" r="10" class="c0"/>
<circle cx="892" cy="1358" r="10" class="c0"/>
<circle cx="832" cy="1292" r="10" class="c0"/>
<circle cx="912" cy="858" r="10" class="c0"/>
<circle cx="758" cy="1332" r="10" class="c0"/>
<circle cx="990" cy="398" r="10" class="c0"/>
<circle cx="1064" cy="1052" r="10" class="c0"/>
<circle cx="1240" cy="1274" r="10" class="c0"/>
<circle cx="924" cy="940" r="10" class="c0"/>
<circle cx="1024" cy="592" r="10" class="c0"/>
<circle cx="1018" cy="1400" r="10" class="c0"/>
<circle cx="1000" cy="1362" r="10" class="c0"/>
<circle cx="864" cy="1254" r="10" class="c0"/>
<circle cx="1044" cy="1060" r="10" class="c0"/>
<circle cx="1016" cy="814" r="10" class="c0"/>
<circle cx="850" cy="800" r="10" class="c0"/>
<circle cx="1006" cy="758" r="10" class="c0"/>
<circle cx="1066" cy="840" r="10" class="c0"/>
<circle cx="916" cy="1212" r="10" class="c0"/>
<circle cx="988" cy="980" r="10" class="c0"/>
<circle cx="978" cy="1142" r="10" class="c0"/>
<circle cx="904" cy="612" r="10" class="c0"/>
<circle cx="1068" cy="1014" r="10" class="c0"/>
<circle cx="902" cy="692" r="10" class="c0"/>
<circle cx="1100" cy="922" r="10" class="c0"/>
<circle cx="884" cy="1336" r="10" class="c0"/>
<circle cx="872" cy="1222" r="10" class="c0"/>
<circle cx="1106" cy="1292" r="10" class="c0"/>
<circle cx="882" cy="588" r="10" class="c0"/>
<circle cx="982" cy="886" r="10" class="c0"/>
<circle cx="868" cy="960" r="10" class="c0"/>
<circle cx="1038" cy="1278" r="10" class="c0"/>
<circle cx="844" cy="1128" r="10" class="c0"/>
<circle cx="1044" cy="950" r="10" class="c0"/>
<circle cx="866" cy="848" r="10" class="c0"/>
<circle cx="908" cy="350" r="10" class="c0"/>
<circle cx="912" cy="982" r="10" class="c0"/>
<circle cx="1158" cy="1178" r="10" class="c0"/>
<circle cx="712" cy="1406" r="10" class="c0"/>
<circle cx="1094" cy="1364" r="10" class="c0"/>
<circle cx="1062" cy="930" r="10" class="c0"/>
<circle cx="1064" cy="862" r="10" class="c0"/>
<circle cx="1048" cy="544" r="10" class="c0"/>
<circle cx="888" cy="1168" r="10" class="c0"/>
<circle cx="980" cy="1036" r="10" class="c0"/>
<circle cx="996" cy="686" r="10" class="c0"/>
<circle cx="992" cy="928" r="10" class="c0"/>
<circle cx="1002" cy="610" r="10" class="c0"/>
<circle cx="1028" cy="562" r="10" class="c0"/>
<circle cx="1040" cy="862" r="10" class="c0"/>
<circle cx="1066" cy="1406" r="10" class="c0"/>
<circle cx="1020" cy="1326" r="10" class="c0"/>
<circle cx="816" cy="1144" r="10" class="c0"/>
<circle cx="790" cy="440" r="10" class="c0"/>
<circle cx="870" cy="1356" r="10" class="c0"/>
<circle cx="956" cy="806" r="10" class="c0"/>
<circle cx="918" cy="1164" r="10" class="c0"/>
<circle cx="1028" cy="494" r="10" class="c0"/>
<circle cx="1140" cy="1100" r="10" class="c0"/>
<circle cx="896" cy="1320" r="10" class="c0"/>
<circle cx="1182" cy="1212" r="10" class="c0"/>
<circle cx="1062" cy="1298" r="10" class="c0"/>
<circle cx="1096" cy="1252" r="10" class="c0"/>
<circle cx="956" cy="872" r="10" class="c0"/>
<circle cx="1204" cy="1150" r="10" class="c0"/>
<circle cx="894" cy="660" r="10" class="c0"/>
<circle cx="972" cy="586" r="10" class="c0"/>
<circle cx="980" cy="1428" r="10" class="c0"/>
<circle cx="888" cy="538" r="10" class="c0"/>
<circle cx="862" cy="504" r="10" class="c0"/>
<circle cx="970" cy="1294" r="10" class="c0"/>
<circle cx="784" cy="606" r="10" class="c0"/>
<circle cx="1022" cy="394" r="10" class="c0"/>
<circle cx="996" cy="476" r="10" class="c0"/>
<circle cx="1028" cy="1120" r="10" class="c0"/>
<circle cx="782" cy="644" r="10" class="c0"/>
<circle cx="938" cy="980" r="10" class="c0"/>
<circle cx="940" cy="428" r="10" class="c0"/>
<circle cx="862" cy="572" r="10" class="c0"/>
<circle cx="944" cy="1220" r="10" class="c0"/>
<circle cx="880" cy="1300" r="10" class="c0"/>
<circle cx="1210" cy="1302" r="10" class="c0"/>
<circle cx="932" cy="1354" r="10" class="c0"/>
<circle cx="938" cy="830" r="10" class="c0"/>
<circle cx="862" cy="740" r="10" class="c0"/>
<circle cx="882" cy="676" r="10" class="c0"/>
<circle cx="900" cy="550" r="10" class="c0"/>
<circle cx="798" cy="580" r="10" class="c0"/>
<circle cx="1062" cy="970" r="10" class="c0"/>
<circle cx="992" cy="772" r="10" class="c0"/>
<circle cx="812" cy="652" r="10" class="c0"/>
<circle cx="982" cy="1220" r="10" class="c0"/>
<circle cx="1004" cy="548" r="10" class="c0"/>
<circle cx="854" cy="1074" r="10" class="c0"/>
<circle cx="884" cy="984" r="10" class="c0"/>
<circle cx="826" cy="908" r="10" class="c0"/>
<circle cx="1008" cy="856" r="10" class="c0"/>
<circle cx="1010" cy="884" r="10" class="c0"/>
<circle cx="844" cy="1318" r="10" class="c0"/>
<circle cx="1104" cy="974" r="10" class="c0"/>
<circle cx="926" cy="1086" r="10" class="c0"/>
<circle cx="972" cy="494" r="10" class="c0"/>
<circle cx="914" cy="504" r="10" class="c0"/>
<circle cx="980" cy="422" r="10" class="c0"/>
<circle cx="992" cy="1054" r="10" class="c0"/>
<circle cx="940" cy="664" r="10" class="c0"/>
<circle cx="794" cy="540" r="10" class="c0"/>
<circle cx="1042" cy="640" r="10" class="c0"/>
<circle cx="984" cy="1406" r="10" class="c0"/>
<circle cx="1050" cy="1266" r="10" class="c0"/>
<circle cx="1200" cy="1190" r="10" class="c0"/>
<circle cx="956" cy="782" r="10" class="c0"/>
<circle cx="960" cy="1000" r="10" class="c0"/>
<circle cx="1214" cy="1220" r="10" class="c0"/>
<circle cx="960" cy="1172" r="10" class="c0"/>
<circle cx="1066" cy="1350" r="10" class="c0"/>
<circle cx="922" cy="628" r="10" class="c0"/>
<circle cx="952" cy="896" r="10" class="c0"/>
<circle cx="686" cy="1410" r="10" class="c0"/>
<circle cx="980" cy="1270" r="10" class="c0"/>
<circle cx="850" cy="476" r="10" class="c0"/>
<circle cx="846" cy="716" r="10" class="c0"/>
<circle cx="894" cy="884" r="10" class="c0"/>
<circle cx="808" cy="1110" r="10" class="c0"/>
<circle cx="1072" cy="1380" r="10" class="c0"/>
<circle cx="1246" cy="1234" r="10" class="c0"/>
<circle cx="974" cy="658" r="10" class="c0"/>
<circle cx="1006" cy="1428" r="10" class="c0"/>
<circle cx="832" cy="422" r="10" class="c0"/>
<circle cx="908" cy="642" r="10" class="c0"/>
<circle cx="840" cy="574" r="10" class="c0"/>
<circle cx="1040" cy="604" r="10" class="c0"/>
<circle cx="812" cy="854" r="10" class="c0"/>
<circle cx="900" cy="930" r="10" class="c0"/>
<circle cx="956" cy="408" r="10" class="c0"/>
<circle cx="1202" cy="1280" r="10" class="c0"/>
<circle cx="914" cy="420" r="10" class="c0"/>
<circle cx="870" cy="1100" r="10" class="c0"/>
<circle cx="1002" cy="708" r="10" class="c0"/>
<circle cx="920" cy="376" r="10" class="c0"/>
<circle cx="1052" cy="1158" r="10" class="c0"/>
<circle cx="1110" cy="1106" r="10" class="c0"/>
<circle cx="950" cy="604" r="10" class="c0"/>
<circle cx="1018" cy="524" r="10" class="c0"/>
<circle cx="786" cy="462" r="10" class="c0"/>
<circle cx="768" cy="1290" r="10" class="c0"/>
<circle cx="946" cy="1298" r="10" class="c0"/>
<circle cx="1072" cy="1244" r="10" class="c0"/>
<circle cx="910" cy="732" r="10" class="c0"/>
<circle cx="944" cy="718" r="10" class="c0"/>
<circle cx="848" cy="394" r="10" class="c0"/>
<circle cx="966" cy="962" r="10" class="c0"/>
<circle cx="844" cy="1220" r="10" class="c0"/>
<circle cx="850" cy="984" r="10" class="c0"/>
<circle cx="1004" cy="1208" r="10" class="c0"/>
<circle cx="946" cy="470" r="10" class="c0"/>
<circle cx="918" cy="1282" r="10" class="c0"/>
<circle cx="838" cy="1192" r="10" class="c0"/>
<circle cx="956" cy="1094" r="10" class="c0"/>
<circle cx="1168" cy="1126" r="10" class="c0"/>
<circle cx="1020" cy="1174" r="10" class="c0"/>
<circle cx="908" cy="1184" r="10" class="c0"/>
<circle cx="1042" cy="790" r="10" class="c0"/>
<circle cx="1230" cy="1166" r="10" class="c0"/>
<circle cx="878" cy="864" r="10" class="c0"/>
<circle cx="1014" cy="792" r="10" class="c0"/>
<circle cx="908" cy="1096" r="10" class="c0"/>
<circle cx="1000" cy="662" r="10" class="c0"/>
<circle cx="950" cy="1062" r="10" class="c0"/>
<circle cx="1068" cy="1092" r="10" class="c0"/>
<circle cx="838" cy="764" r="10" class="c0"/>
<circle cx="794" cy="632" r="10" class="c0"/>
<circle cx="1046" cy="1372" r="10" class="c0"/>
<circle cx="1056" cy="890" r="10" class="c0"/>
<circle cx="1032" cy="1426" r="10" class="c0"/>
<circle cx="1020" cy="624" r="10" class="c0"/>
<circle cx="976" cy="696" r="8" class="c0"/>
<circle cx="900" cy="580" r="8" class="c0"/>
<circle cx="1058" cy="814" r="8" class="c0"/>
<circle cx="928" cy="1408" r="8" class="c0"/>
<circle cx="1000" cy="586" r="8" class="c0"/>
<circle cx="868" cy="540" r="8" class="c0"/>
<circle cx="888" cy="564" r="8" class="c0"/>
<circle cx="1012" cy="836" r="8" class="c0"/>
<circle cx="930" cy="1232" r="8" class="c0"/>
<circle cx="888" cy="1406" r="8" class="c0"/>
<circle cx="808" cy="828" r="8" class="c0"/>
<circle cx="922" cy="896" r="8" class="c0"/>
<circle cx="1014" cy="1068" r="8" class="c0"/>
<circle cx="994" cy="378" r="8" class="c0"/>
<circle cx="960" cy="1318" r="8" class="c0"/>
<circle cx="822" cy="882" r="8" class="c0"/>
<circle cx="894" cy="786" r="8" class="c0"/>
<circle cx="978" cy="622" r="8" class="c0"/>
<circle cx="1040" cy="1248" r="8" class="c0"/>
<circle cx="1100" cy="1068" r="8" class="c0"/>
<circle cx="912" cy="1416" r="8" class="c0"/>
<circle cx="828" cy="484" r="8" class="c0"/>
<circle cx="1092" cy="1020" r="8" class="c0"/>
<circle cx="856" cy="894" r="8" class="c0"/>
<circle cx="1084" cy="1332" r="8" class="c0"/>
<circle cx="974" cy="532" r="8" class="c0"/>
<circle cx="712" cy="1370" r="8" class="c0"/>
<circle cx="844" cy="1246" r="8" class="c0"/>
<circle cx="948" cy="1150" r="8" class="c0"/>
<circle cx="860" cy="920" r="8" class="c0"/>
<circle cx="790" cy="512" r="8" class="c0"/>
<circle cx="1032" cy="892" r="8" class="c0"/>
<circle cx="988" cy="738" r="8" class="c0"/>
<circle cx="788" cy="1196" r="8" class="c0"/>
<circle cx="930" cy="1380" r="8" class="c0"/>
<circle cx="994" cy="830" r="8" class="c0"/>
<circle cx="974" cy="1066" r="8" class="c0"/>
<circle cx="1052" cy="1226" r="8" class="c0"/>
<circle cx="1008" cy="910" r="8" class="c0"/>
<circle cx="1040" cy="986" r="8" class="c0"/>
<circle cx="1074" cy="1198" r="8" class="c0"/>
<circle cx="928" cy="448" r="8" class="c0"/>
<circle cx="1082" cy="942" r="8" class="c0"/>
<circle cx="822" cy="800" r="8" class="c0"/>
<circle cx="844" cy="598" r="8" class="c0"/>
<circle cx="922" cy="720" r="8" class="c0"/>
<circle cx="1048" cy="474" r="8" class="c0"/>
<circle cx="1220" cy="1126" r="8" class="c0"/>
<circle cx="1122" cy="1132" r="8" class="c0"/>
<circle cx="1048" cy="1018" r="8" class="c0"/>
<circle cx="932" cy="644" r="8" class="c0"/>
<circle cx="832" cy="528" r="8" class="c0"/>
<circle cx="842" cy="866" r="8" class="c0"/>
<circle cx="834" cy="656" r="8" class="c0"/>
<circle cx="646" cy="1430" r="8" class="c0"/>
<circle cx="922" cy="680" r="8" class="c0"/>
<circle cx="1040" cy="410" r="8" class="c0"/>
<circle cx="990" cy="1120" r="8" class="c0"/>
<circle cx="968" cy="826" r="8" class="c0"/>
<circle cx="904" cy="962" r="8" class="c0"/>
<circle cx="1018" cy="1140" r="8" class="c0"/>
<circle cx="1004" cy="1030" r="8" class="c0"/>
<circle cx="862" cy="1170" r="8" class="c0"/>
<circle cx="838" cy="1360" r="8" class="c0"/>
<circle cx="956" cy="1022" r="8" class="c0"/>
<circle cx="854" cy="1430" r="8" class="c0"/>
<circle cx="868" cy="768" r="8" class="c0"/>
<circle cx="900" cy="392" r="8" class="c0"/>
<circle cx="948" cy="494" r="8" class="c0"/>
<circle cx="1002" cy="444" r="8" class="c0"/>
<circle cx="1120" cy="1090" r="8" class="c0"/>
<circle cx="862" cy="650" r="8" class="c0"/>
<circle cx="928" cy="606" r="8" class="c0"/>
<circle cx="990" cy="576" r="8" class="c0"/>
<circle cx="848" cy="1264" r="8" class="c0"/>
<circle cx="920" cy="1124" r="8" class="c0"/>
<circle cx="838" cy="1402" r="8" class="c0"/>
<circle cx="846" cy="620" r="8" class="c0"/>
<circle cx="1148" cy="1158" r="8" class="c0"/>
<circle cx="958" cy="684" r="8" class="c0"/>
<circle cx="856" cy="608" r="8" class="c0"/>
<circle cx="786" cy="1178" r="8" class="c0"/>
<circle cx="898" cy="1394" r="8" class="c0"/>
<circle cx="986" cy="802" r="8" class="c0"/>
<circle cx="822" cy="444" r="8" class="c0"/>
<circle cx="916" cy="466" r="8" class="c0"/>
<circle cx="922" cy="402" r="8" class="c0"/>
<circle cx="1024" cy="1368" r="8" class="c0"/>
<circle cx="934" cy="1334" r="8" class="c0"/>
<circle cx="1006" cy="640" r="8" class="c0"/>
<circle cx="1016" cy="1262" r="8" class="c0"/>
<circle cx="840" cy="450" r="8" class="c0"/>
<circle cx="994" cy="1314" r="8" class="c0"/>
<circle cx="990" cy="1004" r="8" class="c0"/>
<circle cx="964" cy="636" r="8" class="c0"/>
<circle cx="902" cy="1060" r="8" class="c0"/>
<circle cx="944" cy="694" r="8" class="c0"/>
<circle cx="874" cy="1418" r="8" class="c0"/>
<circle cx="1028" cy="926" r="8" class="c0"/>
<circle cx="1080" cy="888" r="8" class="c0"/>
<circle cx="880" cy="520" r="8" class="c0"/>
<circle cx="888" cy="912" r="8" class="c0"/>
<circle cx="1048" cy="1342" r="8" class="c0"/>
<circle cx="958" cy="1200" r="8" class="c0"/>
<circle cx="914" cy="1046" r="8" class="c0"/>
<circle cx="862" cy="1118" r="8" class="c0"/>
<circle cx="908" cy="1238" r="8" class="c0"/>
<circle cx="802" cy="410" r="8" class="c0"/>
<circle cx="886" cy="716" r="8" class="c0"/>
<circle cx="966" cy="718" r="8" class="c0"/>
<circle cx="882" cy="1078" r="8" class="c0"/>
<circle cx="994" cy="522" r="8" class="c0"/>
<circle cx="684" cy="1388" r="8" class="c0"/>
<circle cx="1086" cy="848" r="8" class="c0"/>
<circle cx="666" cy="1420" r="8" class="c0"/>
<circle cx="1088" cy="1058" r="8" class="c0"/>
<circle cx="1010" cy="942" r="8" class="c0"/>
<circle cx="1002" cy="1282" r="8" class="c0"/>
<circle cx="932" cy="1024" r="8" class="c0"/>
<circle cx="1014" cy="458" r="8" class="c0"/>
<circle cx="992" cy="1174" r="8" class="c0"/>
<circle cx="844" cy="496" r="8" class="c0"/>
<circle cx="1002" cy="1382" r="8" class="c0"/>
<circle cx="1062" cy="1126" r="8" class="c0"/>
<circle cx="862" cy="1308" r="8" class="c0"/>
<circle cx="996" cy="1232" r="8" class="c0"/>
<circle cx="872" cy="818" r="8" class="c0"/>
<circle cx="1090" cy="996" r="8" class="c0"/>
<circle cx="988" cy="954" r="8" class="c0"/>
<circle cx="892" cy="742" r="8" class="c0"/>
<circle cx="1018" cy="650" r="8" class="c0"/>
<circle cx="952" cy="1360" r="8" class="c0"/>
<circle cx="768" cy="478" r="8" class="c0"/>
<circle cx="1070" cy="1320" r="8" class="c0"/>
<circle cx="982" cy="1370" r="8" class="c0"/>
<circle cx="990" cy="1250" r="8" class="c0"/>
<circle cx="882" cy="1238" r="8" class="c0"/>
<circle cx="942" cy="1420" r="8" class="c0"/>
<circle cx="1012" cy="978" r="8" class="c0"/>
<circle cx="1070" cy="1222" r="8" class="c0"/>
<circle cx="934" cy="912" r="8" class="c0"/>
<circle cx="982" cy="854" r="8" class="c0"/>
<circle cx="868" cy="938" r="8" class="c0"/>
<circle cx="900" cy="480" r="8" class="c0"/>
<circle cx="1158" cy="1200" r="8" class="c0"/>
<circle cx="968" cy="390" r="8" class="c0"/>
<circle cx="890" cy="372" r="8" class="c0"/>
<circle cx="992" cy="868" r="8" class="c0"/>
<circle cx="1094" cy="1272" r="8" class="c0"/>
<circle cx="1088" cy="1408" r="8" class="c0"/>
<circle cx="890" cy="950" r="8" class="c0"/>
<circle cx="1102" cy="1188" r="8" class="c0"/>
<circle cx="856" cy="1152" r="8" class="c0"/>
<circle cx="1048" cy="394" r="8" class="c0"/>
<circle cx="1224" cy="1200" r="8" class="c0"/>
<circle cx="1000" cy="1142" r="8" class="c0"/>
<circle cx="1040" cy="812" r="8" class="c0"/>
<circle cx="1036" cy="1314" r="8" class="c0"/>
<circle cx="946" cy="1266" r="8" class="c0"/>
<circle cx="904" cy="814" r="8" class="c0"/>
<circle cx="926" cy="516" r="8" class="c0"/>
<circle cx="1032" cy="1046" r="8" class="c0"/>
<circle cx="914" cy="664" r="8" class="c0"/>
<circle cx="838" cy="788" r="8" class="c0"/>
<circle cx="1062" cy="642" r="8" class="c0"/>
<circle cx="878" cy="402" r="8" class="c0"/>
<circle cx="878" cy="1010" r="8" class="c0"/>
<circle cx="816" cy="474" r="8" class="c0"/>
<circle cx="862" cy="1000" r="8" class="c0"/>
<circle cx="908" cy="1370" r="8" class="c0"/>
<circle cx="990" cy="1296" r="8" class="c0"/>
<circle cx="1040" cy="840" r="8" class="c0"/>
<circle cx="826" cy="604" r="8" class="c0"/>
<circle cx="892" cy="1030" r="8" class="c0"/>
<circle cx="984" cy="602" r="8" class="c0"/>
<circle cx="976" cy="756" r="8" class="c0"/>
<circle cx="1030" cy="1154" r="8" class="c0"/>
<circle cx="986" cy="452" r="8" class="c0"/>
<circle cx="1094" cy="952" r="8" class="c0"/>
<circle cx="830" cy="1384" r="8" class="c0"/>
<circle cx="1156" cy="1110" r="8" class="c0"/>
<circle cx="1106" cy="1148" r="8" class="c0"/>
<circle cx="1104" cy="1050" r="8" class="c0"/>
<circle cx="896" cy="1112" r="8" class="c0"/>
<circle cx="860" cy="1328" r="8" class="c0"/>
<circle cx="1040" cy="1178" r="8" class="c0"/>
<circle cx="884" cy="610" r="8" class="c0"/>
<circle cx="892" cy="1250" r="8" class="c0"/>
<circle cx="1020" cy="476" r="8" class="c0"/>
<circle cx="1034" cy="1358" r="8" class="c0"/>
<circle cx="1018" cy="1294" r="8" class="c0"/>
<circle cx="898" cy="1000" r="8" class="c0"/>
<circle cx="884" cy="634" r="8" class="c0"/>
<circle cx="962" cy="1050" r="8" class="c0"/>
<circle cx="806" cy="808" r="8" class="c0"/>
<circle cx="816" cy="632" r="8" class="c0"/>
<circle cx="1122" cy="1160" r="8" class="c0"/>
<circle cx="850" cy="536" r="8" class="c0"/>
<circle cx="1080" cy="908" r="8" class="c0"/>
<circle cx="984" cy="1190" r="8" class="c0"/>
<circle cx="756" cy="1308" r="8" class="c0"/>
<circle cx="940" cy="1008" r="8" class="c0"/>
<circle cx="1040" cy="576" r="8" class="c0"/>
<circle cx="926" cy="702" r="8" class="c0"/>
<circle cx="944" cy="390" r="8" class="c0"/>
<circle cx="894" cy="766" r="8" class="c0"/>
<circle cx="812" cy="526" r="8" class="c0"/>
<circle cx="928" cy="874" r="8" class="c0"/>
<circle cx="1090" cy="1430" r="8" class="c0"/>
<circle cx="980" cy="910" r="8" class="c0"/>
<circle cx="956" cy="918" r="8" class="c0"/>
<circle cx="1052" cy="910" r="8" class="c0"/>
<circle cx="1226" cy="1292" r="8" class="c0"/>
<circle cx="904" cy="902" r="8" class="c0"/>
<circle cx="824" cy="666" r="8" class="c0"/>
<circle cx="840" cy="1166" r="8" class="c0"/>
<circle cx="922" cy="540" r="8" class="c0"/>
<circle cx="956" cy="1336" r="8" class="c0"/>
<circle cx="892" cy="1216" r="8" class="c0"/>
<circle cx="950" cy="448" r="8" class="c0"/>
<circle cx="854" cy="828" r="8" class="c0"/>
<circle cx="880" cy="802" r="8" class="c0"/>
<circle cx="818" cy="544" r="8" class="c0"/>
<circle cx="980" cy="1162" r="8" class="c0"/>
<circle cx="938" cy="862" r="8" class="c0"/>
<circle cx="882" cy="484" r="8" class="c0"/>
<circle cx="1234" cy="1216" r="8" class="c0"/>
<circle cx="704" cy="1424" r="8" class="c0"/>
<circle cx="956" cy="372" r="8" class="c0"/>
<circle cx="812" cy="780" r="8" class="c0"/>
<circle cx="902" cy="1260" r="8" class="c0"/>
<circle cx="778" cy="1210" r="8" class="c0"/>
<circle cx="860" cy="414" r="8" class="c0"/>
<circle cx="1048" cy="1392" r="8" class="c0"/>
<circle cx="874" cy="898" r="8" class="c0"/>
<circle cx="966" cy="360" r="8" class="c0"/>
<circle cx="1018" cy="770" r="8" class="c0"/>
<circle cx="1008" cy="492" r="8" class="c0"/>
<circle cx="836" cy="550" r="8" class="c0"/>
<circle cx="1184" cy="1144" r="8" class="c0"/>
<circle cx="1008" cy="1112" r="8" class="c0"/>
<circle cx="972" cy="470" r="8" class="c0"/>
<circle cx="928" cy="1064" r="8" class="c0"/>
<circle cx="938" cy="1074" r="8" class="c0"/>
<circle cx="936" cy="358" r="8" class="c0"/>
<circle cx="828" cy="1342" r="8" class="c0"/>
<circle cx="1074" cy="1068" r="8" class="c0"/>
<circle cx="842" cy="926" r="8" class="c0"/>
<circle cx="930" cy="1196" r="8" class="c0"/>
<circle cx="1006" cy="510" r="8" class="c0"/>
<circle cx="1088" cy="1212" r="8" class="c0"/>
<circle cx="972" cy="1012" r="8" class="c0"/>
<circle cx="962" cy="1254" r="8" class="c0"/>
<circle cx="1046" cy="1108" r="8" class="c0"/>
<circle cx="1054" cy="624" r="8" class="c0"/>
<circle cx="1040" cy="1142" r="8" class="c0"/>
<circle cx="952" cy="1244" r="8" class="c0"/>
<circle cx="942" cy="574" r="8" class="c0"/>
<circle cx="806" cy="556" r="8" class="c0"/>
<circle cx="876" cy="1380" r="8" class="c0"/>
<circle cx="1084" cy="1124" r="8" class="c0"/>
<circle cx="1020" cy="1102" r="8" class="c0"/>
<circle cx="920" cy="752" r="8" class="c0"/>
<circle cx="866" cy="624" r="8" class="c0"/>
<circle cx="1028" cy="426" r="8" class="c0"/>
<circle cx="1158" cy="1144" r="8" class="c0"/>
<circle cx="884" cy="1058" r="8" class="c0"/>
<circle cx="1194" cy="1262" r="8" class="c0"/>
<circle cx="826" cy="1414" r="8" class="c0"/>
<circle cx="1092" cy="1384" r="8" class="c0"/>
<circle cx="1098" cy="892" r="8" class="c0"/>
<circle cx="868" cy="708" r="8" class="c0"/>
<circle cx="940" cy="1134" r="8" class="c0"/>
<circle cx="636" cy="1416" r="8" class="c0"/>
<circle cx="902" cy="1146" r="8" class="c0"/>
<circle cx="880" cy="752" r="8" class="c0"/>
<circle cx="1138" cy="1148" r="8" class="c0"/>
<circle cx="1012" cy="1240" r="8" class="c0"/>
<circle cx="880" cy="1278" r="8" class="c0"/>
<circle cx="776" cy="1272" r="8" class="c0"/>
<circle cx="956" cy="1430" r="8" class="c0"/>
<circle cx="1044" cy="1414" r="8" class="c0"/>
<circle cx="1094" cy="1088" r="8" class="c0"/>
<circle cx="802" cy="880" r="8" class="c0"/>
<circle cx="1102" cy="1328" r="8" class="c0"/>
<circle cx="938" cy="1044" r="8" class="c0"/>
<circle cx="922" cy="1000" r="8" class="c0"/>
<circle cx="820" cy="818" r="8" class="c0"/>
<circle cx="806" cy="608" r="8" class="c0"/>
<circle cx="1072" cy="1144" r="8" class="c0"/>
<circle cx="976" cy="514" r="8" class="c0"/>
<circle cx="828" cy="1272" r="8" class="c0"/>
<circle cx="1028" cy="1228" r="8" class="c0"/>
<circle cx="1030" cy="1388" r="8" class="c0"/>
<circle cx="788" cy="564" r="8" class="c0"/>
<circle cx="1018" cy="958" r="8" class="c0"/>
<circle cx="954" cy="852" r="8" class="c0"/>
<circle cx="824" cy="1122" r="8" class="c0"/>
<circle cx="794" cy="488" r="8" class="c0"/>
<circle cx="1090" cy="1302" r="8" class="c0"/>
<circle cx="878" cy="922" r="8" class="c0"/>
<circle cx="1076" cy="1036" r="8" class="c0"/>
<circle cx="1080" cy="1104" r="8" class="c0"/>
<circle cx="1092" cy="870" r="8" class="c0"/>
<circle cx="1062" cy="1426" r="8" class="c0"/>
<circle cx="858" cy="778" r="8" class="c0"/>
<circle cx="1138" cy="1176" r="8" class="c0"/>
<circle cx="832" cy="696" r="8" class="c0"/>
<circle cx="1210" cy="1172" r="8" class="c0"/>
<circle cx="964" cy="436" r="8" class="c0"/>
<circle cx="818" cy="1074" r="8" class="c0"/>
<circle cx="916" cy="832" r="8" class="c0"/>
<circle cx="936" cy="1108" r="8" class="c0"/>
<circle cx="1012" cy="1048" r="8" class="c0"/>
<circle cx="1102" cy="1006" r="8" class="c0"/>
<circle cx="856" cy="1286" r="8" class="c0"/>
<circle cx="850" cy="1348" r="8" class="c0"/>
<circle cx="878" cy="698" r="8" class="c0"/>
<circle cx="810" cy="456" r="8" class="c0"/>
<circle cx="964" cy="1076" r="8" class="c0"/>
<circle cx="960" cy="458" r="8" class="c0"/>
<circle cx="940" cy="884" r="8" class="c0"/>
<circle cx="1112" cy="1172" r="8" class="c0"/>
<circle cx="876" cy="784" r="8" class="c0"/>
<circle cx="864" cy="878" r="8" class="c0"/>
<circle cx="990" cy="632" r="8" class="c0"/>
<circle cx="818" cy="1208" r="8" class="c0"/>
<circle cx="822" cy="564" r="8" class="c0"/>
<circle cx="1022" cy="1348" r="8" class="c0"/>
<circle cx="1052" cy="1324" r="8" class="c0"/>
<circle cx="1102" cy="1226" r="8" class="c0"/>
<circle cx="830" cy="370" r="8" class="c0"/>
<circle cx="930" cy="492" r="8" class="c0"/>
<circle cx="724" cy="1388" r="8" class="c0"/>
<circle cx="976" cy="728" r="8" class="c0"/>
<circle cx="1086" cy="1154" r="6" class="c0"/>
<circle cx="1184" cy="1178" r="6" class="c0"/>
<circle cx="838" cy="1150" r="6" class="c0"/>
<circle cx="838" cy="638" r="6" class="c0"/>
<circle cx="1030" cy="378" r="6" class="c0"/>
<circle cx="906" cy="1346" r="6" class="c0"/>
<circle cx="928" cy="848" r="6" class="c0"/>
<circle cx="702" cy="1388" r="6" class="c0"/>
<circle cx="1238" cy="1254" r="6" class="c0"/>
<circle cx="920" cy="1326" r="6" class="c0"/>
<circle cx="978" cy="1310" r="6" class="c0"/>
<circle cx="800" cy="1134" r="6" class="c0"/>
<circle cx="932" cy="1154" r="6" class="c0"/>
<circle cx="982" cy="556" r="6" class="c0"/>
<circle cx="1000" cy="964" r="6" class="c0"/>
<circle cx="854" cy="1236" r="6" class="c0"/>
<circle cx="910" cy="708" r="6" class="c0"/>
<circle cx="902" cy="1302" r="6" class="c0"/>
<circle cx="936" cy="550" r="6" class="c0"/>
<circle cx="1076" cy="1262" r="6" class="c0"/>
<circle cx="740" cy="1338" r="6" class="c0"/>
<circle cx="850" cy="1180" r="6" class="c0"/>
<circle cx="920" cy="482" r="6" class="c0"/>
<circle cx="1050" cy="998" r="6" class="c0"/>
<circle cx="1256" cy="1258" r="6" class="c0"/>
<circle cx="966" cy="842" r="6" class="c0"/>
<circle cx="972" cy="932" r="6" class="c0"/>
<circle cx="974" cy="1238" r="6" class="c0"/>
<circle cx="840" cy="892" r="6" class="c0"/>
<circle cx="940" cy="1176" r="6" class="c0"/>
<circle cx="1008" cy="994" r="6" class="c0"/>
<circle cx="838" cy="1424" r="6" class="c0"/>
<circle cx="858" cy="1370" r="6" class="c0"/>
<circle cx="1192" cy="1130" r="6" class="c0"/>
<circle cx="972" cy="1122" r="6" class="c0"/>
<circle cx="958" cy="510" r="6" class="c0"/>
<circle cx="654" cy="1406" r="6" class="c0"/>
<circle cx="948" cy="1186" r="6" class="c0"/>
<circle cx="1148" cy="1132" r="6" class="c0"/>
<circle cx="1078" cy="1418" r="6" class="c0"/>
<circle cx="842" cy="816" r="6" class="c0"/>
<circle cx="856" cy="1202" r="6" class="c0"/>
<circle cx="888" cy="1098" r="6" class="c0"/>
<circle cx="1222" cy="1276" r="6" class="c0"/>
<circle cx="782" cy="1160" r="6" class="c0"/>
<circle cx="846" cy="906" r="6" class="c0"/>
<circle cx="938" cy="374" r="6" class="c0"/>
<circle cx="1064" cy="1182" r="6" class="c0"/>
<circle cx="878" cy="652" r="6" class="c0"/>
<circle cx="812" cy="420" r="6" class="c0"/>
<circle cx="1094" cy="1138" r="6" class="c0"/>
<circle cx="914" cy="1072" r="6" class="c0"/>
<circle cx="962" cy="740" r="6" class="c0"/>
<circle cx="902" cy="1428" r="6" class="c0"/>
<circle cx="874" cy="1398" r="6" class="c0"/>
<circle cx="818" cy="584" r="6" class="c0"/>
<circle cx="992" cy="494" r="6" class="c0"/>
<circle cx="1028" cy="830" r="6" class="c0"/>
<circle cx="954" cy="650" r="6" class="c0"/>
<circle cx="964" cy="1152" r="6" class="c0"/>
<circle cx="914" cy="916" r="6" class="c0"/>
<circle cx="816" cy="1090" r="6" class="c0"/>
<circle cx="898" cy="1076" r="6" class="c0"/>
<circle cx="624" cy="1428" r="6" class="c0"/>
<circle cx="894" cy="500" r="6" class="c0"/>
<circle cx="1026" cy="944" r="6" class="c0"/>
<circle cx="828" cy="620" r="6" class="c0"/>
<circle cx="996" cy="790" r="6" class="c0"/>
<circle cx="780" cy="1226" r="6" class="c0"/>
<circle cx="934" cy="588" r="6" class="c0"/>
<circle cx="1034" cy="466" r="6" class="c0"/>
<circle cx="872" cy="432" r="6" class="c0"/>
<circle cx="1066" cy="992" r="6" class="c0"/>
<circle cx="912" cy="530" r="6" class="c0"/>
<circle cx="1106" cy="1312" r="6" class="c0"/>
<circle cx="788" cy="1142" r="6" class="c0"/>
<circle cx="904" cy="674" r="6" class="c0"/>
<circle cx="1062" cy="558" r="6" class="c0"/>
<circle cx="1174" cy="1192" r="6" class="c0"/>
<circle cx="1064" cy="1110" r="6" class="c0"/>
<circle cx="980" cy="1386" r="6" class="c0"/>
<circle cx="824" cy="1312" r="6" class="c0"/>
<circle cx="936" cy="1276" r="6" class="c0"/>
<circle cx="926" cy="1142" r="6" class="c0"/>
<circle cx="854" cy="520" r="6" class="c0"/>
<circle cx="1104" cy="1344" r="6" class="c0"/>
<circle cx="1056" cy="1034" r="6" class="c0"/>
<circle cx="946" cy="634" r="6" class="c0"/>
<circle cx="900" cy="1128" r="6" class="c0"/>
<circle cx="978" cy="376" r="6" class="c0"/>
<circle cx="976" cy="786" r="6" class="c0"/>
<circle cx="1194" cy="1166" r="6" class="c0"/>
<circle cx="1072" cy="1282" r="6" class="c0"/>
<circle cx="936" cy="736" r="6" class="c0"/>
<circle cx="980" cy="676" r="6" class="c0"/>
<circle cx="1056" cy="1074" r="6" class="c0"/>
<circle cx="1228" cy="1238" r="6" class="c0"/>
<circle cx="1024" cy="990" r="6" class="c0"/>
<circle cx="958" cy="1140" r="6" class="c0"/>
<circle cx="806" cy="1196" r="6" class="c0"/>
<circle cx="978" cy="1098" r="6" class="c0"/>
<circle cx="860" cy="380" r="6" class="c0"/>
<circle cx="882" cy="464" r="6" class="c0"/>
<circle cx="864" cy="592" r="6" class="c0"/>
<circle cx="892" cy="852" r="6" class="c0"/>
<circle cx="970" cy="772" r="6" class="c0"/>
<circle cx="836" cy="510" r="6" class="c0"/>
<circle cx="1050" cy="500" r="6" class="c0"/>
<circle cx="966" cy="1230" r="6" class="c0"/>
<circle cx="1024" cy="872" r="6" class="c0"/>
<circle cx="936" cy="956" r="6" class="c0"/>
<circle cx="1026" cy="542" r="6" class="c0"/>
<circle cx="844" cy="736" r="6" class="c0"/>
<circle cx="1136" cy="1200" r="6" class="c0"/>
<circle cx="806" cy="898" r="6" class="c0"/>
<circle cx="968" cy="612" r="6" class="c0"/>
<circle cx="1006" cy="1186" r="6" class="c0"/>
<circle cx="1200" cy="1122" r="6" class="c0"/>
<circle cx="830" cy="1236" r="6" class="c0"/>
<circle cx="1006" cy="566" r="6" class="c0"/>
<circle cx="1052" cy="526" r="6" class="c0"/>
<circle cx="854" cy="1016" r="6" class="c0"/>
<circle cx="966" cy="982" r="6" class="c0"/>
<circle cx="1112" cy="1240" r="6" class="c0"/>
<circle cx="1050" cy="828" r="6" class="c0"/>
<circle cx="926" cy="348" r="6" class="c0"/>
<circle cx="918" cy="596" r="6" class="c0"/>
<circle cx="1010" cy="1092" r="6" class="c0"/>
<circle cx="948" cy="1376" r="6" class="c0"/>
<circle cx="848" cy="1110" r="6" class="c0"/>
<circle cx="828" cy="464" r="6" class="c0"/>
<circle cx="940" cy="774" r="6" class="c0"/>
<circle cx="1078" cy="982" r="6" class="c0"/>
<circle cx="958" cy="484" r="6" class="c0"/>
<circle cx="1098" cy="1162" r="6" class="c0"/>
<circle cx="1108" cy="1208" r="6" class="c0"/>
<circle cx="1136" cy="1082" r="6" class="c0"/>
<circle cx="836" cy="1068" r="6" class="c0"/>
<circle cx="922" cy="1430" r="6" class="c0"/>
<circle cx="870" cy="1066" r="6" class="c0"/>
<circle cx="956" cy="1282" r="6" class="c0"/>
<circle cx="878" cy="382" r="6" class="c0"/>
<circle cx="982" cy="1326" r="6" class="c0"/>
<circle cx="1044" cy="1296" r="6" class="c0"/>
<circle cx="908" cy="438" r="6" class="c0"/>
<circle cx="846" cy="432" r="6" class="c0"/>
<circle cx="1194" cy="1226" r="6" class="c0"/>
<circle cx="798" cy="844" r="6" class="c0"/>
<circle cx="1140" cy="1120" r="6" class="c0"/>
<circle cx="876" cy="554" r="6" class="c0"/>
<circle cx="1016" cy="676" r="6" class="c0"/>
<circle cx="1030" cy="910" r="6" class="c0"/>
<circle cx="898" cy="520" r="6" class="c0"/>
<circle cx="898" cy="1276" r="6" class="c0"/>
<circle cx="1050" cy="586" r="6" class="c0"/>
<circle cx="984" cy="542" r="6" class="c0"/>
<circle cx="1086" cy="1232" r="6" class="c0"/>
<circle cx="882" cy="1262" r="6" class="c0"/>
<circle cx="1012" cy="1156" r="6" class="c0"/>
<circle cx="848" cy="1414" r="6" class="c0"/>
<circle cx="1018" cy="438" r="6" class="c0"/>
<circle cx="1104" cy="1032" r="6" class="c0"/>
<circle cx="846" cy="646" r="6" class="c0"/>
<circle cx="1106" cy="1124" r="6" class="c0"/>
<circle cx="770" cy="440" r="6" class="c0"/>
<circle cx="1106" cy="940" r="6" class="c0"/>
<circle cx="984" cy="356" r="6" class="c0"/>
<circle cx="996" cy="898" r="6" class="c0"/>
<circle cx="1092" cy="1038" r="6" class="c0"/>
<circle cx="962" cy="1382" r="6" class="c0"/>
<circle cx="796" cy="862" r="6" class="c0"/>
<circle cx="1190" cy="1300" r="6" class="c0"/>
<circle cx="1010" cy="1310" r="6" class="c0"/>
<circle cx="850" cy="560" r="6" class="c0"/>
<circle cx="924" cy="968" r="6" class="c0"/>
<circle cx="944" cy="794" r="6" class="c0"/>
<circle cx="1014" cy="578" r="6" class="c0"/>
<circle cx="938" cy="406" r="6" class="c0"/>
<circle cx="1050" cy="564" r="6" class="c0"/>
<circle cx="682" cy="1430" r="6" class="c0"/>
<circle cx="1002" cy="1410" r="6" class="c0"/>
<circle cx="980" cy="940" r="6" class="c0"/>
<circle cx="834" cy="678" r="6" class="c0"/>
<circle cx="880" cy="1116" r="6" class="c0"/>
<circle cx="830" cy="1256" r="6" class="c0"/>
<circle cx="914" cy="1400" r="6" class="c0"/>
<circle cx="966" cy="1110" r="6" class="c0"/>
<circle cx="774" cy="624" r="6" class="c0"/>
<circle cx="810" cy="592" r="6" class="c0"/>
<circle cx="870" cy="1024" r="6" class="c0"/>
<circle cx="938" cy="810" r="6" class="c0"/>
<circle cx="924" cy="556" r="6" class="c0"/>
<circle cx="1110" cy="1270" r="6" class="c0"/>
<circle cx="854" cy="756" r="6" class="c0"/>
<circle cx="1030" cy="968" r="6" class="c0"/>
<circle cx="1052" cy="458" r="6" class="c0"/>
<circle cx="926" cy="1180" r="6" class="c0"/>
<circle cx="870" cy="474" r="6" class="c0"/>
<circle cx="1024" cy="846" r="6" class="c0"/>
<circle cx="982" cy="818" r="6" class="c0"/>
<circle cx="1204" cy="1238" r="6" class="c0"/>
<circle cx="1042" cy="880" r="6" class="c0"/>
<circle cx="1220" cy="1184" r="6" class="c0"/>
<circle cx="1068" cy="952" r="6" class="c0"/>
<circle cx="878" cy="730" r="6" class="c0"/>
<circle cx="998" cy="726" r="6" class="c0"/>
<circle cx="978" cy="836" r="6" class="c0"/>
<circle cx="844" cy="1060" r="6" class="c0"/>
<circle cx="1080" cy="968" r="6" class="c0"/>
<circle cx="948" cy="964" r="6" class="c0"/>
<circle cx="1200" cy="1210" r="6" class="c0"/>
<circle cx="912" cy="1386" r="6" class="c0"/>
<circle cx="974" cy="870" r="6" class="c0"/>
<circle cx="956" cy="706" r="6" class="c0"/>
<circle cx="822" cy="516" r="6" class="c0"/>
<circle cx="938" cy="618" r="6" class="c0"/>
<circle cx="988" cy="1020" r="6" class="c0"/>
<circle cx="896" cy="1198" r="6" class="c0"/>
<circle cx="1038" cy="658" r="6" class="c0"/>
<circle cx="1080" cy="1292" r="6" class="c0"/>
<circle cx="892" cy="1288" r="6" class="c0"/>
<circle cx="964" cy="1216" r="6" class="c0"/>
<circle cx="902" cy="752" r="6" class="c0"/>
<circle cx="806" cy="432" r="6" class="c0"/>
<circle cx="940" cy="508" r="6" class="c0"/>
<circle cx="782" cy="528" r="6" class="c0"/>
<circle cx="886" cy="1428" r="6" class="c0"/>
<circle cx="954" cy="624" r="6" class="c0"/>
<circle cx="1036" cy="1028" r="6" class="c0"/>
<circle cx="1050" cy="430" r="6" class="c0"/>
<circle cx="998" cy="428" r="6" class="c0"/>
<circle cx="824" cy="1432" r="6" class="c0"/>
<circle cx="858" cy="550" r="6" class="c0"/>
<circle cx="826" cy="1326" r="6" class="c0"/>
<circle cx="848" cy="374" r="6" class="c0"/>
<circle cx="1146" cy="1190" r="6" class="c0"/>
<circle cx="800" cy="472" r="6" class="c0"/>
<circle cx="912" cy="880" r="6" class="c0"/>
<circle cx="1062" cy="466" r="6" class="c0"/>
<circle cx="670" cy="1398" r="6" class="c0"/>
<circle cx="936" cy="928" r="6" class="c0"/>
<circle cx="944" cy="1320" r="6" class="c0"/>
<circle cx="876" cy="1318" r="6" class="c0"/>
<circle cx="886" cy="966" r="6" class="c0"/>
<circle cx="766" cy="460" r="6" class="c0"/>
<circle cx="966" cy="1414" r="6" class="c0"/>
<circle cx="750" cy="1352" r="6" class="c0"/>
<circle cx="870" cy="372" r="6" class="c0"/>
<circle cx="1128" cy="1114" r="6" class="c0"/>
<circle cx="1002" cy="1164" r="6" class="c0"/>
<circle cx="1002" cy="804" r="6" class="c0"/>
<circle cx="974" cy="990" r="6" class="c0"/>
<circle cx="820" cy="1224" r="6" class="c0"/>
<circle cx="1000" cy="1260" r="6" class="c0"/>
<circle cx="866" cy="392" r="6" class="c0"/>
<circle cx="918" cy="1340" r="6" class="c0"/>
<circle cx="826" cy="864" r="6" class="c0"/>
<circle cx="848" cy="850" r="6" class="c0"/>
<circle cx="824" cy="1160" r="6" class="c0"/>
<circle cx="984" cy="714" r="6" class="c0"/>
<circle cx="1092" cy="1318" r="6" class="c0"/>
<circle cx="1012" cy="380" r="6" class="c0"/>
<circle cx="844" cy="1376" r="6" class="c0"/>
<circle cx="806" cy="1242" r="6" class="c0"/>
<circle cx="974" cy="1204" r="6" class="c0"/>
<circle cx="952" cy="584" r="6" class="c0"/>
<circle cx="1018" cy="900" r="6" class="c0"/>
<circle cx="870" cy="664" r="6" class="c0"/>
<circle cx="696" cy="1376" r="6" class="c0"/>
<circle cx="886" cy="352" r="6" class="c0"/>
<circle cx="1032" cy="1338" r="6" class="c0"/>
<circle cx="1084" cy="1188" r="6" class="c0"/>
<circle cx="880" cy="440" r="6" class="c0"/>
<circle cx="854" cy="946" r="6" class="c0"/>
<circle cx="894" cy="1378" r="6" class="c0"/>
<circle cx="774" cy="1308" r="6" class="c0"/>
<circle cx="1110" cy="1080" r="6" class="c0"/>
<circle cx="970" cy="900" r="6" class="c0"/>
<circle cx="778" cy="490" r="6" class="c0"/>
<circle cx="1100" cy="1398" r="6" class="c0"/>
<circle cx="958" cy="666" r="6" class="c0"/>
<circle cx="1076" cy="826" r="6" class="c0"/>
<circle cx="874" cy="1158" r="6" class="c0"/>
<circle cx="1004" cy="388" r="6" class="c0"/>
<circle cx="864" cy="1408" r="6" class="c0"/>
<circle cx="848" cy="1300" r="6" class="c0"/>
<circle cx="856" cy="634" r="6" class="c0"/>
<circle cx="968" cy="794" r="6" class="c0"/>
<circle cx="1082" cy="924" r="6" class="c0"/>
<circle cx="988" cy="648" r="6" class="c0"/>
<circle cx="954" cy="732" r="6" class="c0"/>
<circle cx="824" cy="1368" r="6" class="c0"/>
<circle cx="1084" cy="1078" r="6" class="c0"/>
<circle cx="828" cy="778" r="6" class="c0"/>
<circle cx="1052" cy="850" r="6" class="c0"/>
<circle cx="1042" cy="1216" r="6" class="c0"/>
<circle cx="910" cy="564" r="6" class="c0"/>
<circle cx="908" cy="1332" r="6" class="c0"/>
<circle cx="926" cy="818" r="6" class="c0"/>
</svg>
