<?xml version="1.0" encoding="utf-8"?>
<svg xmlns="http://www.w3.org/2000/svg"
     xmlns:xlink="http://www.w3.org/1999/xlink" width="1920" height="1440" >

            <defs>
            <style type="text/css"><![CDATA[
circle {stroke: none;}
.c0 {fill: #FFFFFF;}
]]></style>
            </defs>
<rect x="0" y="0" width="1920" height="1440" fill="black"/>
<circle cx="856" cy="750" r="14" class="c0"/>
<circle cx="730" cy="736" r="12" class="c0"/>
<circle cx="1064" cy="1084" r="12" class="c0"/>
<circle cx="828" cy="840" r="12" class="c0"/>
<circle cx="936" cy="876" r="12" class="c0"/>
<circle cx="978" cy="1088" r="12" class="c0"/>
<circle cx="1080" cy="560" r="12" class="c0"/>
<circle cx="902" cy="1424" r="12" class="c0"/>
<circle cx="740" cy="1390" r="12" class="c0"/>
<circle cx="1032" cy="1174" r="12" class="c0"/>
<circle cx="786" cy="1336" r="12" class="c0"/>
<circle cx="886" cy="638" r="12" class="c0"/>
<circle cx="578" cy="732" r="12" class="c0"/>
<circle cx="814" cy="1130" r="12" class="c0"/>
<circle cx="964" cy="1204" r="12" class="c0"/>
<circle cx="822" cy="954" r="12" class="c0"/>
<circle cx="688" cy="746" r="12" class="c0"/>
<circle cx="1008" cy="1154" r="12" class="c0"/>
<circle cx="928" cy="984" r="12" class="c0"/>
<circle cx="918" cy="460" r="12" class="c0"/>
<circle cx="960" cy="296" r="12" class="c0"/>
<circle cx="624" cy="728" r="12" class="c0"/>
<circle cx="1100" cy="582" r="12" class="c0"/>
<circle cx="978" cy="714" r="12" class="c0"/>
<circle cx="1040" cy="1408" r="12" class="c0"/>
<circle cx="650" cy="724" r="12" class="c0"/>
<circle cx="798" cy="642" r="12" class="c0"/>
<circle cx="868" cy="1380" r="12" class="c0"/>
<circle cx="872" cy="992" r="12" class="c0"/>
<circle cx="804" cy="1198" r="12" class="c0"/>
<circle cx="660" cy="698" r="12" class="c0"/>
<circle cx="1036" cy="300" r="12" class="c0"/>
<circle cx="1096" cy="456" r="12" class="c0"/>
<circle cx="976" cy="1364" r="12" class="c0"/>
<circle cx="1024" cy="998" r="12" class="c0"/>
<circle cx="994" cy="1288" r="12" class="c0"/>
<circle cx="880" cy="712" r="12" class="c0"/>
<circle cx="980" cy="1116" r="12" class="c0"/>
<circle cx="878" cy="1240" r="12" class="c0"/>
<circle cx="844" cy="906" r="12" class="c0"/>
<circle cx="1044" cy="1334" r="12" class="c0"/>
<circle cx="1008" cy="1204" r="12" class="c0"/>
<circle cx="940" cy="952" r="12" class="c0"/>
<circle cx="868" cy="1274" r="12" class="c0"/>
<circle cx="888" cy="1090" r="12" class="c0"/>
<circle cx="914" cy="962" r="12" class="c0"/>
<circle cx="808" cy="866" r="12" class="c0"/>
<circle cx="974" cy="496" r="12" class="c0"/>
<circle cx="1008" cy="1410" r="12" class="c0"/>
<circle cx="830" cy="1082" r="12" class="c0"/>
<circle cx="934" cy="512" r="12" class="c0"/>
<circle cx="594" cy="668" r="12" class="c0"/>
<circle cx="1100" cy="1216" r="12" class="c0"/>
<circle cx="992" cy="658" r="12" class="c0"/>
<circle cx="770" cy="1162" r="12" class="c0"/>
<circle cx="914" cy="732" r="12" class="c0"/>
<circle cx="976" cy="910" r="12" class="c0"/>
<circle cx="844" cy="1164" r="12" class="c0"/>
<circle cx="904" cy="1170" r="12" class="c0"/>
<circle cx="722" cy="760" r="12" class="c0"/>
<circle cx="1062" cy="538" r="10" class="c0"/>
<circle cx="862" cy="1428" r="10" class="c0"/>
<circle cx="1002" cy="678" r="10" class="c0"/>
<circle cx="920" cy="1242" r="10" class="c0"/>
<circle cx="796" cy="722" r="10" class="c0"/>
<circle cx="1002" cy="398" r="10" class="c0"/>
<circle cx="946" cy="1258" r="10" class="c0"/>
<circle cx="916" cy="1206" r="10" class="c0"/>
<circle cx="854" cy="800" r="10" class="c0"/>
<circle cx="940" cy="754" r="10" class="c0"/>
<circle cx="1002" cy="422" r="10" class="c0"/>
<circle cx="850" cy="1046" r="10" class="c0"/>
<circle cx="1060" cy="1118" r="10" class="c0"/>
<circle cx="954" cy="864" r="10" class="c0"/>
<circle cx="980" cy="1302" r="10" class="c0"/>
<circle cx="636" cy="678" r="10" class="c0"/>
<circle cx="866" cy="884" r="10" class="c0"/>
<circle cx="916" cy="316" r="10" class="c0"/>
<circle cx="910" cy="908" r="10" class="c0"/>
<circle cx="1114" cy="1106" r="10" class="c0"/>
<circle cx="946" cy="1172" r="10" class="c0"/>
<circle cx="804" cy="1320" r="10" class="c0"/>
<circle cx="996" cy="468" r="10" class="c0"/>
<circle cx="942" cy="412" r="10" class="c0"/>
<circle cx="896" cy="510" r="10" class="c0"/>
<circle cx="1130" cy="1088" r="10" class="c0"/>
<circle cx="1096" cy="1320" r="10" class="c0"/>
<circle cx="1082" cy="526" r="10" class="c0"/>
<circle cx="1084" cy="1398" r="10" class="c0"/>
<circle cx="682" cy="666" r="10" class="c0"/>
<circle cx="968" cy="740" r="10" class="c0"/>
<circle cx="1084" cy="378" r="10" class="c0"/>
<circle cx="810" cy="1240" r="10" class="c0"/>
<circle cx="1040" cy="342" r="10" class="c0"/>
<circle cx="832" cy="736" r="10" class="c0"/>
<circle cx="960" cy="668" r="10" class="c0"/>
<circle cx="1002" cy="706" r="10" class="c0"/>
<circle cx="650" cy="664" r="10" class="c0"/>
<circle cx="770" cy="1216" r="10" class="c0"/>
<circle cx="1042" cy="634" r="10" class="c0"/>
<circle cx="744" cy="1334" r="10" class="c0"/>
<circle cx="994" cy="814" r="10" class="c0"/>
<circle cx="948" cy="820" r="10" class="c0"/>
<circle cx="1056" cy="1148" r="10" class="c0"/>
<circle cx="926" cy="816" r="10" class="c0"/>
<circle cx="886" cy="1012" r="10" class="c0"/>
<circle cx="958" cy="1010" r="10" class="c0"/>
<circle cx="906" cy="1066" r="10" class="c0"/>
<circle cx="744" cy="786" r="10" class="c0"/>
<circle cx="1150" cy="1110" r="10" class="c0"/>
<circle cx="870" cy="1154" r="10" class="c0"/>
<circle cx="798" cy="844" r="10" class="c0"/>
<circle cx="1034" cy="1060" r="10" class="c0"/>
<circle cx="1112" cy="378" r="10" class="c0"/>
<circle cx="970" cy="444" r="10" class="c0"/>
<circle cx="1006" cy="834" r="10" class="c0"/>
<circle cx="1052" cy="408" r="10" class="c0"/>
<circle cx="780" cy="662" r="10" class="c0"/>
<circle cx="1030" cy="518" r="10" class="c0"/>
<circle cx="982" cy="352" r="10" class="c0"/>
<circle cx="1108" cy="1134" r="10" class="c0"/>
<circle cx="1144" cy="1158" r="10" class="c0"/>
<circle cx="824" cy="922" r="10" class="c0"/>
<circle cx="1024" cy="1084" r="10" class="c0"/>
<circle cx="1024" cy="818" r="10" class="c0"/>
<circle cx="996" cy="792" r="10" class="c0"/>
<circle cx="970" cy="266" r="10" class="c0"/>
<circle cx="1064" cy="686" r="10" class="c0"/>
<circle cx="1054" cy="1186" r="10" class="c0"/>
<circle cx="846" cy="694" r="10" class="c0"/>
<circle cx="740" cy="1300" r="10" class="c0"/>
<circle cx="882" cy="746" r="10" class="c0"/>
<circle cx="918" cy="340" r="10" class="c0"/>
<circle cx="786" cy="1148" r="10" class="c0"/>
<circle cx="1006" cy="552" r="10" class="c0"/>
<circle cx="1028" cy="714" r="10" class="c0"/>
<circle cx="886" cy="816" r="10" class="c0"/>
<circle cx="788" cy="742" r="10" class="c0"/>
<circle cx="946" cy="1088" r="10" class="c0"/>
<circle cx="1062" cy="620" r="10" class="c0"/>
<circle cx="964" cy="398" r="10" class="c0"/>
<circle cx="826" cy="802" r="10" class="c0"/>
<circle cx="914" cy="376" r="10" class="c0"/>
<circle cx="890" cy="408" r="10" class="c0"/>
<circle cx="1130" cy="406" r="10" class="c0"/>
<circle cx="444" cy="728" r="10" class="c0"/>
<circle cx="932" cy="846" r="10" class="c0"/>
<circle cx="950" cy="1126" r="10" class="c0"/>
<circle cx="1122" cy="1194" r="10" class="c0"/>
<circle cx="918" cy="560" r="10" class="c0"/>
<circle cx="746" cy="1222" r="10" class="c0"/>
<circle cx="776" cy="1398" r="10" class="c0"/>
<circle cx="926" cy="1412" r="10" class="c0"/>
<circle cx="848" cy="982" r="10" class="c0"/>
<circle cx="1086" cy="1122" r="10" class="c0"/>
<circle cx="1010" cy="1316" r="10" class="c0"/>
<circle cx="970" cy="1064" r="10" class="c0"/>
<circle cx="1070" cy="476" r="10" class="c0"/>
<circle cx="1090" cy="496" r="10" class="c0"/>
<circle cx="806" cy="1376" r="10" class="c0"/>
<circle cx="956" cy="792" r="10" class="c0"/>
<circle cx="872" cy="1042" r="10" class="c0"/>
<circle cx="826" cy="672" r="10" class="c0"/>
<circle cx="972" cy="1150" r="10" class="c0"/>
<circle cx="532" cy="686" r="10" class="c0"/>
<circle cx="1030" cy="788" r="10" class="c0"/>
<circle cx="912" cy="858" r="10" class="c0"/>
<circle cx="1014" cy="874" r="10" class="c0"/>
<circle cx="1124" cy="472" r="10" class="c0"/>
<circle cx="846" cy="1210" r="10" class="c0"/>
<circle cx="942" cy="908" r="10" class="c0"/>
<circle cx="1046" cy="1024" r="10" class="c0"/>
<circle cx="706" cy="1358" r="10" class="c0"/>
<circle cx="868" cy="460" r="10" class="c0"/>
<circle cx="858" cy="1230" r="10" class="c0"/>
<circle cx="1022" cy="572" r="10" class="c0"/>
<circle cx="992" cy="1264" r="10" class="c0"/>
<circle cx="1004" cy="586" r="10" class="c0"/>
<circle cx="1084" cy="322" r="10" class="c0"/>
<circle cx="962" cy="976" r="10" class="c0"/>
<circle cx="978" cy="958" r="10" class="c0"/>
<circle cx="944" cy="1022" r="10" class="c0"/>
<circle cx="794" cy="688" r="10" class="c0"/>
<circle cx="834" cy="1372" r="10" class="c0"/>
<circle cx="884" cy="860" r="10" class="c0"/>
<circle cx="762" cy="1376" r="10" class="c0"/>
<circle cx="878" cy="686" r="10" class="c0"/>
<circle cx="1076" cy="1342" r="10" class="c0"/>
<circle cx="854" cy="674" r="10" class="c0"/>
<circle cx="1110" cy="1378" r="10" class="c0"/>
<circle cx="1072" cy="1042" r="10" class="c0"/>
<circle cx="962" cy="1272" r="10" class="c0"/>
<circle cx="1014" cy="478" r="10" class="c0"/>
<circle cx="814" cy="1030" r="10" class="c0"/>
<circle cx="616" cy="644" r="10" class="c0"/>
<circle cx="990" cy="1238" r="10" class="c0"/>
<circle cx="758" cy="724" r="10" class="c0"/>
<circle cx="1024" cy="1124" r="10" class="c0"/>
<circle cx="994" cy="1052" r="10" class="c0"/>
<circle cx="810" cy="780" r="10" class="c0"/>
<circle cx="866" cy="924" r="10" class="c0"/>
<circle cx="984" cy="604" r="10" class="c0"/>
<circle cx="922" cy="1140" r="10" class="c0"/>
<circle cx="1026" cy="846" r="10" class="c0"/>
<circle cx="1124" cy="544" r="10" class="c0"/>
<circle cx="832" cy="886" r="10" class="c0"/>
<circle cx="1016" cy="602" r="10" class="c0"/>
<circle cx="1142" cy="424" r="10" class="c0"/>
<circle cx="1042" cy="476" r="10" class="c0"/>
<circle cx="954" cy="546" r="10" class="c0"/>
<circle cx="1040" cy="434" r="10" class="c0"/>
<circle cx="988" cy="528" r="10" class="c0"/>
<circle cx="846" cy="1286" r="10" class="c0"/>
<circle cx="996" cy="1380" r="10" class="c0"/>
<circle cx="492" cy="706" r="10" class="c0"/>
<circle cx="904" cy="662" r="10" class="c0"/>
<circle cx="842" cy="1026" r="10" class="c0"/>
<circle cx="966" cy="642" r="10" class="c0"/>
<circle cx="894" cy="458" r="10" class="c0"/>
<circle cx="1140" cy="446" r="10" class="c0"/>
<circle cx="870" cy="1112" r="10" class="c0"/>
<circle cx="956" cy="330" r="10" class="c0"/>
<circle cx="990" cy="376" r="10" class="c0"/>
<circle cx="748" cy="1428" r="10" class="c0"/>
<circle cx="972" cy="852" r="10" class="c0"/>
<circle cx="570" cy="650" r="10" class="c0"/>
<circle cx="1066" cy="1306" r="10" class="c0"/>
<circle cx="832" cy="1306" r="10" class="c0"/>
<circle cx="992" cy="1134" r="10" class="c0"/>
<circle cx="900" cy="550" r="10" class="c0"/>
<circle cx="998" cy="920" r="10" class="c0"/>
<circle cx="1026" cy="1250" r="10" class="c0"/>
<circle cx="1038" cy="1380" r="10" class="c0"/>
<circle cx="904" cy="1348" r="10" class="c0"/>
<circle cx="758" cy="1288" r="10" class="c0"/>
<circle cx="1088" cy="428" r="10" class="c0"/>
<circle cx="922" cy="1050" r="10" class="c0"/>
<circle cx="806" cy="814" r="10" class="c0"/>
<circle cx="888" cy="888" r="10" class="c0"/>
<circle cx="824" cy="1402" r="10" class="c0"/>
<circle cx="732" cy="1322" r="10" class="c0"/>
<circle cx="1010" cy="1110" r="10" class="c0"/>
<circle cx="1110" cy="1426" r="10" class="c0"/>
<circle cx="770" cy="1308" r="10" class="c0"/>
<circle cx="752" cy="884" r="10" class="c0"/>
<circle cx="958" cy="926" r="10" class="c0"/>
<circle cx="1020" cy="1340" r="10" class="c0"/>
<circle cx="836" cy="1106" r="10" class="c0"/>
<circle cx="870" cy="660" r="10" class="c0"/>
<circle cx="952" cy="366" r="10" class="c0"/>
<circle cx="952" cy="700" r="10" class="c0"/>
<circle cx="1104" cy="510" r="10" class="c0"/>
<circle cx="1028" cy="376" r="10" class="c0"/>
<circle cx="1096" cy="1290" r="10" class="c0"/>
<circle cx="1044" cy="1222" r="10" class="c0"/>
<circle cx="1122" cy="1172" r="8" class="c0"/>
<circle cx="1090" cy="1368" r="8" class="c0"/>
<circle cx="776" cy="808" r="8" class="c0"/>
<circle cx="710" cy="728" r="8" class="c0"/>
<circle cx="860" cy="720" r="8" class="c0"/>
<circle cx="992" cy="892" r="8" class="c0"/>
<circle cx="764" cy="852" r="8" class="c0"/>
<circle cx="854" cy="1130" r="8" class="c0"/>
<circle cx="1070" cy="1228" r="8" class="c0"/>
<circle cx="1102" cy="1068" r="8" class="c0"/>
<circle cx="1056" cy="498" r="8" class="c0"/>
<circle cx="892" cy="770" r="8" class="c0"/>
<circle cx="834" cy="776" r="8" class="c0"/>
<circle cx="938" cy="1398" r="8" class="c0"/>
<circle cx="828" cy="1200" r="8" class="c0"/>
<circle cx="838" cy="1236" r="8" class="c0"/>
<circle cx="856" cy="942" r="8" class="c0"/>
<circle cx="768" cy="1354" r="8" class="c0"/>
<circle cx="946" cy="650" r="8" class="c0"/>
<circle cx="896" cy="1216" r="8" class="c0"/>
<circle cx="552" cy="638" r="8" class="c0"/>
<circle cx="1084" cy="1156" r="8" class="c0"/>
<circle cx="686" cy="692" r="8" class="c0"/>
<circle cx="774" cy="1196" r="8" class="c0"/>
<circle cx="1128" cy="1120" r="8" class="c0"/>
<circle cx="992" cy="632" r="8" class="c0"/>
<circle cx="794" cy="764" r="8" class="c0"/>
<circle cx="910" cy="1398" r="8" class="c0"/>
<circle cx="972" cy="780" r="8" class="c0"/>
<circle cx="904" cy="834" r="8" class="c0"/>
<circle cx="950" cy="772" r="8" class="c0"/>
<circle cx="758" cy="1266" r="8" class="c0"/>
<circle cx="838" cy="1186" r="8" class="c0"/>
<circle cx="1090" cy="608" r="8" class="c0"/>
<circle cx="898" cy="482" r="8" class="c0"/>
<circle cx="1116" cy="420" r="8" class="c0"/>
<circle cx="1086" cy="350" r="8" class="c0"/>
<circle cx="944" cy="1370" r="8" class="c0"/>
<circle cx="912" cy="1330" r="8" class="c0"/>
<circle cx="1000" cy="734" r="8" class="c0"/>
<circle cx="888" cy="1312" r="8" class="c0"/>
<circle cx="784" cy="1244" r="8" class="c0"/>
<circle cx="998" cy="1004" r="8" class="c0"/>
<circle cx="1058" cy="378" r="8" class="c0"/>
<circle cx="960" cy="1400" r="8" class="c0"/>
<circle cx="964" cy="600" r="8" class="c0"/>
<circle cx="990" cy="280" r="8" class="c0"/>
<circle cx="922" cy="1100" r="8" class="c0"/>
<circle cx="1022" cy="402" r="8" class="c0"/>
<circle cx="922" cy="530" r="8" class="c0"/>
<circle cx="918" cy="296" r="8" class="c0"/>
<circle cx="920" cy="396" r="8" class="c0"/>
<circle cx="906" cy="932" r="8" class="c0"/>
<circle cx="804" cy="1056" r="8" class="c0"/>
<circle cx="1138" cy="522" r="8" class="c0"/>
<circle cx="1126" cy="506" r="8" class="c0"/>
<circle cx="1058" cy="736" r="8" class="c0"/>
<circle cx="1068" cy="444" r="8" class="c0"/>
<circle cx="1100" cy="410" r="8" class="c0"/>
<circle cx="882" cy="1342" r="8" class="c0"/>
<circle cx="918" cy="1380" r="8" class="c0"/>
<circle cx="938" cy="1288" r="8" class="c0"/>
<circle cx="936" cy="326" r="8" class="c0"/>
<circle cx="758" cy="768" r="8" class="c0"/>
<circle cx="1050" cy="670" r="8" class="c0"/>
<circle cx="900" cy="390" r="8" class="c0"/>
<circle cx="740" cy="860" r="8" class="c0"/>
<circle cx="1134" cy="1422" r="8" class="c0"/>
<circle cx="978" cy="572" r="8" class="c0"/>
<circle cx="874" cy="424" r="8" class="c0"/>
<circle cx="852" cy="648" r="8" class="c0"/>
<circle cx="1040" cy="1136" r="8" class="c0"/>
<circle cx="800" cy="1008" r="8" class="c0"/>
<circle cx="1036" cy="680" r="8" class="c0"/>
<circle cx="990" cy="1400" r="8" class="c0"/>
<circle cx="1056" cy="576" r="8" class="c0"/>
<circle cx="978" cy="1414" r="8" class="c0"/>
<circle cx="930" cy="684" r="8" class="c0"/>
<circle cx="842" cy="1430" r="8" class="c0"/>
<circle cx="1002" cy="446" r="8" class="c0"/>
<circle cx="810" cy="978" r="8" class="c0"/>
<circle cx="558" cy="692" r="8" class="c0"/>
<circle cx="914" cy="778" r="8" class="c0"/>
<circle cx="718" cy="1372" r="8" class="c0"/>
<circle cx="782" cy="780" r="8" class="c0"/>
<circle cx="780" cy="1086" r="8" class="c0"/>
<circle cx="1042" cy="274" r="8" class="c0"/>
<circle cx="956" cy="842" r="8" class="c0"/>
<circle cx="904" cy="284" r="8" class="c0"/>
<circle cx="896" cy="1368" r="8" class="c0"/>
<circle cx="892" cy="922" r="8" class="c0"/>
<circle cx="1050" cy="550" r="8" class="c0"/>
<circle cx="926" cy="1358" r="8" class="c0"/>
<circle cx="934" cy="638" r="8" class="c0"/>
<circle cx="968" cy="1334" r="8" class="c0"/>
<circle cx="984" cy="1168" r="8" class="c0"/>
<circle cx="1094" cy="1260" r="8" class="c0"/>
<circle cx="882" cy="936" r="8" class="c0"/>
<circle cx="926" cy="274" r="8" class="c0"/>
<circle cx="972" cy="420" r="8" class="c0"/>
<circle cx="1104" cy="306" r="8" class="c0"/>
<circle cx="772" cy="1424" r="8" class="c0"/>
<circle cx="944" cy="580" r="8" class="c0"/>
<circle cx="844" cy="1258" r="8" class="c0"/>
<circle cx="844" cy="1356" r="8" class="c0"/>
<circle cx="946" cy="460" r="8" class="c0"/>
<circle cx="928" cy="1218" r="8" class="c0"/>
<circle cx="868" cy="1308" r="8" class="c0"/>
<circle cx="902" cy="1002" r="8" class="c0"/>
<circle cx="578" cy="632" r="8" class="c0"/>
<circle cx="732" cy="1262" r="8" class="c0"/>
<circle cx="814" cy="1420" r="8" class="c0"/>
<circle cx="1116" cy="1054" r="8" class="c0"/>
<circle cx="752" cy="806" r="8" class="c0"/>
<circle cx="1024" cy="1032" r="8" class="c0"/>
<circle cx="978" cy="874" r="8" class="c0"/>
<circle cx="420" cy="714" r="8" class="c0"/>
<circle cx="792" cy="1214" r="8" class="c0"/>
<circle cx="1102" cy="1190" r="8" class="c0"/>
<circle cx="864" cy="1326" r="8" class="c0"/>
<circle cx="1070" cy="1202" r="8" class="c0"/>
<circle cx="1116" cy="1328" r="8" class="c0"/>
<circle cx="1018" cy="1384" r="8" class="c0"/>
<circle cx="1020" cy="630" r="8" class="c0"/>
<circle cx="1002" cy="1034" r="8" class="c0"/>
<circle cx="784" cy="878" r="8" class="c0"/>
<circle cx="1048" cy="604" r="8" class="c0"/>
<circle cx="580" cy="706" r="8" class="c0"/>
<circle cx="1110" cy="1302" r="8" class="c0"/>
<circle cx="1042" cy="1266" r="8" class="c0"/>
<circle cx="652" cy="766" r="8" class="c0"/>
<circle cx="610" cy="702" r="8" class="c0"/>
<circle cx="516" cy="710" r="8" class="c0"/>
<circle cx="696" cy="682" r="8" class="c0"/>
<circle cx="936" cy="304" r="8" class="c0"/>
<circle cx="968" cy="472" r="8" class="c0"/>
<circle cx="1088" cy="1240" r="8" class="c0"/>
<circle cx="1014" cy="504" r="8" class="c0"/>
<circle cx="974" cy="686" r="8" class="c0"/>
<circle cx="1018" cy="1276" r="8" class="c0"/>
<circle cx="938" cy="1230" r="8" class="c0"/>
<circle cx="474" cy="688" r="8" class="c0"/>
<circle cx="856" cy="964" r="8" class="c0"/>
<circle cx="934" cy="1316" r="8" class="c0"/>
<circle cx="914" cy="1118" r="8" class="c0"/>
<circle cx="1008" cy="312" r="8" class="c0"/>
<circle cx="938" cy="344" r="8" class="c0"/>
<circle cx="1062" cy="1262" r="8" class="c0"/>
<circle cx="882" cy="1414" r="8" class="c0"/>
<circle cx="1042" cy="800" r="8" class="c0"/>
<circle cx="1144" cy="466" r="8" class="c0"/>
<circle cx="1114" cy="336" r="8" class="c0"/>
<circle cx="840" cy="1006" r="8" class="c0"/>
<circle cx="940" cy="284" r="8" class="c0"/>
<circle cx="880" cy="1360" r="8" class="c0"/>
<circle cx="936" cy="724" r="8" class="c0"/>
<circle cx="1030" cy="1206" r="8" class="c0"/>
<circle cx="906" cy="712" r="8" class="c0"/>
<circle cx="1058" cy="648" r="8" class="c0"/>
<circle cx="1012" cy="1060" r="8" class="c0"/>
<circle cx="910" cy="1024" r="8" class="c0"/>
<circle cx="1060" cy="1424" r="8" class="c0"/>
<circle cx="938" cy="1192" r="8" class="c0"/>
<circle cx="862" cy="1404" r="8" class="c0"/>
<circle cx="1024" cy="650" r="8" class="c0"/>
<circle cx="760" cy="688" r="8" class="c0"/>
<circle cx="800" cy="1262" r="8" class="c0"/>
<circle cx="1028" cy="1358" r="8" class="c0"/>
<circle cx="976" cy="1254" r="8" class="c0"/>
<circle cx="1142" cy="1132" r="8" class="c0"/>
<circle cx="932" cy="664" r="8" class="c0"/>
<circle cx="1046" cy="770" r="8" class="c0"/>
<circle cx="886" cy="966" r="8" class="c0"/>
<circle cx="1126" cy="572" r="8" class="c0"/>
<circle cx="1066" cy="588" r="8" class="c0"/>
<circle cx="746" cy="832" r="8" class="c0"/>
<circle cx="970" cy="760" r="8" class="c0"/>
<circle cx="1090" cy="1090" r="8" class="c0"/>
<circle cx="832" cy="1270" r="8" class="c0"/>
<circle cx="1046" cy="704" r="8" class="c0"/>
<circle cx="940" cy="378" r="8" class="c0"/>
<circle cx="958" cy="514" r="8" class="c0"/>
<circle cx="712" cy="704" r="8" class="c0"/>
<circle cx="866" cy="1082" r="8" class="c0"/>
<circle cx="686" cy="720" r="8" class="c0"/>
<circle cx="478" cy="718" r="8" class="c0"/>
<circle cx="834" cy="1336" r="8" class="c0"/>
<circle cx="780" cy="1112" r="8" class="c0"/>
<circle cx="972" cy="312" r="8" class="c0"/>
<circle cx="994" cy="1184" r="8" class="c0"/>
<circle cx="808" cy="750" r="8" class="c0"/>
<circle cx="912" cy="496" r="8" class="c0"/>
<circle cx="858" cy="1298" r="8" class="c0"/>
<circle cx="932" cy="1068" r="8" class="c0"/>
<circle cx="1146" cy="1078" r="8" class="c0"/>
<circle cx="994" cy="1428" r="8" class="c0"/>
<circle cx="1104" cy="1350" r="8" class="c0"/>
<circle cx="876" cy="796" r="8" class="c0"/>
<circle cx="920" cy="892" r="8" class="c0"/>
<circle cx="970" cy="826" r="8" class="c0"/>
<circle cx="1104" cy="358" r="8" class="c0"/>
<circle cx="1116" cy="318" r="8" class="c0"/>
<circle cx="636" cy="702" r="8" class="c0"/>
<circle cx="880" cy="558" r="8" class="c0"/>
<circle cx="1026" cy="1296" r="8" class="c0"/>
<circle cx="892" cy="1040" r="8" class="c0"/>
<circle cx="970" cy="556" r="8" class="c0"/>
<circle cx="786" cy="1382" r="8" class="c0"/>
<circle cx="748" cy="754" r="8" class="c0"/>
<circle cx="840" cy="816" r="8" class="c0"/>
<circle cx="1050" cy="452" r="8" class="c0"/>
<circle cx="754" cy="1318" r="8" class="c0"/>
<circle cx="1020" cy="356" r="8" class="c0"/>
<circle cx="1032" cy="416" r="8" class="c0"/>
<circle cx="722" cy="1282" r="8" class="c0"/>
<circle cx="762" cy="1182" r="8" class="c0"/>
<circle cx="780" cy="836" r="8" class="c0"/>
<circle cx="600" cy="726" r="8" class="c0"/>
<circle cx="1046" cy="1296" r="8" class="c0"/>
<circle cx="894" cy="1254" r="8" class="c0"/>
<circle cx="736" cy="1360" r="8" class="c0"/>
<circle cx="842" cy="1066" r="8" class="c0"/>
<circle cx="984" cy="326" r="8" class="c0"/>
<circle cx="1046" cy="1248" r="8" class="c0"/>
<circle cx="872" cy="836" r="8" class="c0"/>
<circle cx="1058" cy="1374" r="8" class="c0"/>
<circle cx="922" cy="438" r="8" class="c0"/>
<circle cx="1080" cy="1272" r="8" class="c0"/>
<circle cx="898" cy="1196" r="8" class="c0"/>
<circle cx="830" cy="704" r="8" class="c0"/>
<circle cx="848" cy="850" r="8" class="c0"/>
<circle cx="814" cy="660" r="8" class="c0"/>
<circle cx="864" cy="1186" r="8" class="c0"/>
<circle cx="548" cy="668" r="8" class="c0"/>
<circle cx="1018" cy="748" r="8" class="c0"/>
<circle cx="826" cy="648" r="8" class="c0"/>
<circle cx="506" cy="690" r="8" class="c0"/>
<circle cx="456" cy="700" r="8" class="c0"/>
<circle cx="994" cy="1076" r="8" class="c0"/>
<circle cx="558" cy="718" r="8" class="c0"/>
<circle cx="898" cy="790" r="8" class="c0"/>
<circle cx="994" cy="968" r="8" class="c0"/>
<circle cx="900" cy="1276" r="8" class="c0"/>
<circle cx="1116" cy="562" r="8" class="c0"/>
<circle cx="1060" cy="344" r="8" class="c0"/>
<circle cx="996" cy="862" r="8" class="c0"/>
<circle cx="1108" cy="1270" r="8" class="c0"/>
<circle cx="830" cy="1056" r="8" class="c0"/>
<circle cx="814" cy="1160" r="8" class="c0"/>
<circle cx="1002" cy="492" r="8" class="c0"/>
<circle cx="880" cy="378" r="8" class="c0"/>
<circle cx="866" cy="1020" r="8" class="c0"/>
<circle cx="966" cy="1230" r="8" class="c0"/>
<circle cx="808" cy="940" r="8" class="c0"/>
<circle cx="606" cy="628" r="8" class="c0"/>
<circle cx="1078" cy="400" r="8" class="c0"/>
<circle cx="842" cy="716" r="8" class="c0"/>
<circle cx="822" cy="1012" r="8" class="c0"/>
<circle cx="1060" cy="310" r="8" class="c0"/>
<circle cx="1002" cy="758" r="8" class="c0"/>
<circle cx="814" cy="1098" r="8" class="c0"/>
<circle cx="1140" cy="558" r="8" class="c0"/>
<circle cx="882" cy="1062" r="8" class="c0"/>
<circle cx="892" cy="1134" r="8" class="c0"/>
<circle cx="922" cy="1078" r="8" class="c0"/>
<circle cx="1062" cy="1392" r="8" class="c0"/>
<circle cx="984" cy="410" r="8" class="c0"/>
<circle cx="832" cy="1148" r="8" class="c0"/>
<circle cx="518" cy="662" r="8" class="c0"/>
<circle cx="872" cy="1212" r="8" class="c0"/>
<circle cx="908" cy="424" r="8" class="c0"/>
<circle cx="986" cy="1202" r="8" class="c0"/>
<circle cx="1018" cy="538" r="8" class="c0"/>
<circle cx="896" cy="976" r="8" class="c0"/>
<circle cx="1154" cy="502" r="8" class="c0"/>
<circle cx="1034" cy="322" r="8" class="c0"/>
<circle cx="722" cy="1408" r="8" class="c0"/>
<circle cx="1082" cy="1180" r="8" class="c0"/>
<circle cx="1002" cy="1092" r="8" class="c0"/>
<circle cx="858" cy="862" r="8" class="c0"/>
<circle cx="866" cy="698" r="8" class="c0"/>
<circle cx="1024" cy="444" r="8" class="c0"/>
<circle cx="898" cy="364" r="8" class="c0"/>
<circle cx="1030" cy="734" r="8" class="c0"/>
<circle cx="948" cy="480" r="8" class="c0"/>
<circle cx="882" cy="1168" r="8" class="c0"/>
<circle cx="860" cy="436" r="8" class="c0"/>
<circle cx="954" cy="1358" r="8" class="c0"/>
<circle cx="1118" cy="1154" r="8" class="c0"/>
<circle cx="936" cy="1348" r="8" class="c0"/>
<circle cx="928" cy="1272" r="8" class="c0"/>
<circle cx="992" cy="1344" r="8" class="c0"/>
<circle cx="862" cy="1060" r="8" class="c0"/>
<circle cx="1052" cy="1052" r="8" class="c0"/>
<circle cx="774" cy="714" r="8" class="c0"/>
<circle cx="1100" cy="618" r="8" class="c0"/>
<circle cx="1074" cy="1140" r="8" class="c0"/>
<circle cx="666" cy="744" r="8" class="c0"/>
<circle cx="1140" cy="582" r="8" class="c0"/>
<circle cx="816" cy="726" r="8" class="c0"/>
<circle cx="1004" cy="948" r="8" class="c0"/>
<circle cx="1008" cy="986" r="8" class="c0"/>
<circle cx="886" cy="1292" r="8" class="c0"/>
<circle cx="926" cy="484" r="8" class="c0"/>
<circle cx="934" cy="540" r="8" class="c0"/>
<circle cx="954" cy="428" r="8" class="c0"/>
<circle cx="968" cy="534" r="8" class="c0"/>
<circle cx="824" cy="1352" r="8" class="c0"/>
<circle cx="1066" cy="420" r="8" class="c0"/>
<circle cx="1018" cy="1228" r="8" class="c0"/>
<circle cx="780" cy="1268" r="8" class="c0"/>
<circle cx="786" cy="1294" r="8" class="c0"/>
<circle cx="812" cy="1340" r="8" class="c0"/>
<circle cx="954" cy="1298" r="8" class="c0"/>
<circle cx="968" cy="1182" r="8" class="c0"/>
<circle cx="994" cy="302" r="8" class="c0"/>
<circle cx="1060" cy="718" r="8" class="c0"/>
<circle cx="850" cy="1414" r="8" class="c0"/>
<circle cx="728" cy="690" r="8" class="c0"/>
<circle cx="1006" cy="292" r="8" class="c0"/>
<circle cx="978" cy="1014" r="8" class="c0"/>
<circle cx="826" cy="992" r="8" class="c0"/>
<circle cx="842" cy="870" r="8" class="c0"/>
<circle cx="924" cy="708" r="8" class="c0"/>
<circle cx="968" cy="1038" r="8" class="c0"/>
<circle cx="1016" cy="776" r="8" class="c0"/>
<circle cx="582" cy="688" r="8" class="c0"/>
<circle cx="934" cy="1156" r="8" class="c0"/>
<circle cx="1002" cy="358" r="8" class="c0"/>
<circle cx="572" cy="676" r="8" class="c0"/>
<circle cx="894" cy="346" r="8" class="c0"/>
<circle cx="792" cy="1420" r="8" class="c0"/>
<circle cx="1014" cy="694" r="8" class="c0"/>
<circle cx="738" cy="1244" r="8" class="c0"/>
<circle cx="852" cy="1094" r="8" class="c0"/>
<circle cx="804" cy="1398" r="8" class="c0"/>
<circle cx="886" cy="438" r="8" class="c0"/>
<circle cx="932" cy="1006" r="8" class="c0"/>
<circle cx="984" cy="934" r="8" class="c0"/>
<circle cx="1004" cy="338" r="8" class="c0"/>
<circle cx="982" cy="988" r="8" class="c0"/>
<circle cx="708" cy="1382" r="8" class="c0"/>
<circle cx="730" cy="870" r="8" class="c0"/>
<circle cx="908" cy="1304" r="8" class="c0"/>
<circle cx="866" cy="776" r="8" class="c0"/>
<circle cx="1010" cy="1018" r="8" class="c0"/>
<circle cx="828" cy="1226" r="8" class="c0"/>
<circle cx="742" cy="704" r="8" class="c0"/>
<circle cx="504" cy="728" r="8" class="c0"/>
<circle cx="956" cy="720" r="8" class="c0"/>
<circle cx="968" cy="1314" r="8" class="c0"/>
<circle cx="872" cy="398" r="8" class="c0"/>
<circle cx="844" cy="932" r="8" class="c0"/>
<circle cx="744" cy="1202" r="8" class="c0"/>
<circle cx="1092" cy="1418" r="8" class="c0"/>
<circle cx="944" cy="1420" r="8" class="c0"/>
<circle cx="1070" cy="1410" r="8" class="c0"/>
<circle cx="1088" cy="1056" r="8" class="c0"/>
<circle cx="892" cy="1390" r="8" class="c0"/>
<circle cx="1040" cy="1106" r="8" class="c0"/>
<circle cx="854" cy="828" r="8" class="c0"/>
<circle cx="766" cy="1236" r="8" class="c0"/>
<circle cx="900" cy="1236" r="8" class="c0"/>
<circle cx="1158" cy="412" r="8" class="c0"/>
<circle cx="792" cy="1128" r="8" class="c0"/>
<circle cx="962" cy="1428" r="8" class="c0"/>
<circle cx="1028" cy="1428" r="8" class="c0"/>
<circle cx="1142" cy="486" r="8" class="c0"/>
<circle cx="748" cy="1254" r="8" class="c0"/>
<circle cx="1096" cy="542" r="8" class="c0"/>
<circle cx="956" cy="1324" r="8" class="c0"/>
<circle cx="538" cy="706" r="8" class="c0"/>
<circle cx="812" cy="696" r="8" class="c0"/>
<circle cx="952" cy="1048" r="8" class="c0"/>
<circle cx="906" cy="682" r="8" class="c0"/>
<circle cx="812" cy="1294" r="8" class="c0"/>
<circle cx="1068" cy="510" r="8" class="c0"/>
<circle cx="734" cy="822" r="8" class="c0"/>
<circle cx="916" cy="754" r="8" class="c0"/>
<circle cx="956" cy="1104" r="8" class="c0"/>
<circle cx="1054" cy="1278" r="8" class="c0"/>
<circle cx="1052" cy="360" r="8" class="c0"/>
<circle cx="1124" cy="1392" r="8" class="c0"/>
<circle cx="846" cy="1324" r="8" class="c0"/>
<circle cx="820" cy="1182" r="8" class="c0"/>
<circle cx="822" cy="1252" r="8" class="c0"/>
<circle cx="842" cy="658" r="8" class="c0"/>
<circle cx="934" cy="798" r="8" class="c0"/>
<circle cx="962" cy="946" r="8" class="c0"/>
<circle cx="1044" cy="748" r="8" class="c0"/>
<circle cx="822" cy="762" r="8" class="c0"/>
<circle cx="976" cy="798" r="8" class="c0"/>
<circle cx="904" cy="1102" r="8" class="c0"/>
<circle cx="768" cy="746" r="8" class="c0"/>
<circle cx="1000" cy="614" r="8" class="c0"/>
<circle cx="768" cy="826" r="8" class="c0"/>
<circle cx="1022" cy="894" r="8" class="c0"/>
<circle cx="784" cy="1362" r="8" class="c0"/>
<circle cx="1034" cy="590" r="8" class="c0"/>
<circle cx="768" cy="1132" r="8" class="c0"/>
<circle cx="930" cy="922" r="8" class="c0"/>
<circle cx="922" cy="414" r="8" class="c0"/>
<circle cx="726" cy="1350" r="8" class="c0"/>
<circle cx="946" cy="994" r="8" class="c0"/>
<circle cx="928" cy="358" r="8" class="c0"/>
<circle cx="784" cy="1186" r="8" class="c0"/>
<circle cx="926" cy="1174" r="8" class="c0"/>
<circle cx="814" cy="900" r="8" class="c0"/>
<circle cx="1026" cy="462" r="8" class="c0"/>
<circle cx="968" cy="618" r="8" class="c0"/>
<circle cx="1102" cy="1162" r="8" class="c0"/>
<circle cx="1048" cy="1358" r="8" class="c0"/>
<circle cx="942" cy="442" r="8" class="c0"/>
<circle cx="494" cy="680" r="8" class="c0"/>
<circle cx="612" cy="680" r="8" class="c0"/>
<circle cx="1130" cy="348" r="8" class="c0"/>
<circle cx="1030" cy="1320" r="8" class="c0"/>
<circle cx="898" cy="948" r="8" class="c0"/>
<circle cx="796" cy="1170" r="8" class="c0"/>
<circle cx="766" cy="792" r="8" class="c0"/>
<circle cx="1040" cy="660" r="8" class="c0"/>
<circle cx="1008" cy="522" r="8" class="c0"/>
<circle cx="846" cy="952" r="6" class="c0"/>
<circle cx="1036" cy="498" r="6" class="c0"/>
<circle cx="986" cy="1032" r="6" class="c0"/>
<circle cx="944" cy="1212" r="6" class="c0"/>
<circle cx="858" cy="1364" r="6" class="c0"/>
<circle cx="986" cy="830" r="6" class="c0"/>
<circle cx="678" cy="646" r="6" class="c0"/>
<circle cx="1024" cy="554" r="6" class="c0"/>
<circle cx="1156" cy="434" r="6" class="c0"/>
<circle cx="1004" cy="1174" r="6" class="c0"/>
<circle cx="910" cy="1260" r="6" class="c0"/>
<circle cx="1016" cy="912" r="6" class="c0"/>
<circle cx="954" cy="1144" r="6" class="c0"/>
<circle cx="932" cy="770" r="6" class="c0"/>
<circle cx="798" cy="664" r="6" class="c0"/>
<circle cx="1018" cy="668" r="6" class="c0"/>
<circle cx="1056" cy="1210" r="6" class="c0"/>
<circle cx="664" cy="676" r="6" class="c0"/>
<circle cx="866" cy="1254" r="6" class="c0"/>
<circle cx="982" cy="1326" r="6" class="c0"/>
<circle cx="1048" cy="388" r="6" class="c0"/>
<circle cx="758" cy="1404" r="6" class="c0"/>
<circle cx="882" cy="1186" r="6" class="c0"/>
<circle cx="948" cy="1388" r="6" class="c0"/>
<circle cx="1158" cy="1090" r="6" class="c0"/>
<circle cx="1112" cy="490" r="6" class="c0"/>
<circle cx="1116" cy="594" r="6" class="c0"/>
<circle cx="696" cy="710" r="6" class="c0"/>
<circle cx="638" cy="742" r="6" class="c0"/>
<circle cx="588" cy="646" r="6" class="c0"/>
<circle cx="980" cy="390" r="6" class="c0"/>
<circle cx="730" cy="846" r="6" class="c0"/>
<circle cx="774" cy="762" r="6" class="c0"/>
<circle cx="796" cy="1096" r="6" class="c0"/>
<circle cx="986" cy="546" r="6" class="c0"/>
<circle cx="1074" cy="1376" r="6" class="c0"/>
<circle cx="802" cy="1280" r="6" class="c0"/>
<circle cx="912" cy="1188" r="6" class="c0"/>
<circle cx="896" cy="1118" r="6" class="c0"/>
<circle cx="1138" cy="598" r="6" class="c0"/>
<circle cx="806" cy="1076" r="6" class="c0"/>
<circle cx="1108" cy="530" r="6" class="c0"/>
<circle cx="1112" cy="438" r="6" class="c0"/>
<circle cx="1092" cy="476" r="6" class="c0"/>
<circle cx="712" cy="686" r="6" class="c0"/>
<circle cx="1036" cy="542" r="6" class="c0"/>
<circle cx="1056" cy="294" r="6" class="c0"/>
<circle cx="824" cy="1432" r="6" class="c0"/>
<circle cx="850" cy="1392" r="6" class="c0"/>
<circle cx="1064" cy="1166" r="6" class="c0"/>
<circle cx="928" cy="1032" r="6" class="c0"/>
<circle cx="894" cy="728" r="6" class="c0"/>
<circle cx="1076" cy="1106" r="6" class="c0"/>
<circle cx="530" cy="722" r="6" class="c0"/>
<circle cx="1004" cy="1358" r="6" class="c0"/>
<circle cx="974" cy="284" r="6" class="c0"/>
<circle cx="1070" cy="1324" r="6" class="c0"/>
<circle cx="1012" cy="724" r="6" class="c0"/>
<circle cx="1122" cy="1364" r="6" class="c0"/>
<circle cx="1138" cy="1178" r="6" class="c0"/>
<circle cx="1108" cy="396" r="6" class="c0"/>
<circle cx="616" cy="664" r="6" class="c0"/>
<circle cx="1050" cy="1096" r="6" class="c0"/>
<circle cx="952" cy="1220" r="6" class="c0"/>
<circle cx="920" cy="1292" r="6" class="c0"/>
<circle cx="936" cy="1112" r="6" class="c0"/>
<circle cx="850" cy="780" r="6" class="c0"/>
<circle cx="1102" cy="1404" r="6" class="c0"/>
<circle cx="972" cy="378" r="6" class="c0"/>
<circle cx="1000" cy="270" r="6" class="c0"/>
<circle cx="960" cy="882" r="6" class="c0"/>
<circle cx="900" cy="752" r="6" class="c0"/>
<circle cx="1046" cy="1162" r="6" class="c0"/>
<circle cx="914" cy="796" r="6" class="c0"/>
<circle cx="816" cy="1268" r="6" class="c0"/>
<circle cx="788" cy="858" r="6" class="c0"/>
<circle cx="946" cy="734" r="6" class="c0"/>
<circle cx="632" cy="658" r="6" class="c0"/>
<circle cx="1094" cy="1040" r="6" class="c0"/>
<circle cx="884" cy="540" r="6" class="c0"/>
<circle cx="990" cy="746" r="6" class="c0"/>
<circle cx="970" cy="890" r="6" class="c0"/>
<circle cx="1134" cy="384" r="6" class="c0"/>
<circle cx="954" cy="630" r="6" class="c0"/>
<circle cx="1048" cy="1314" r="6" class="c0"/>
<circle cx="1106" cy="602" r="6" class="c0"/>
<circle cx="936" cy="470" r="6" class="c0"/>
<circle cx="832" cy="1420" r="6" class="c0"/>
<circle cx="770" cy="676" r="6" class="c0"/>
<circle cx="1006" cy="1252" r="6" class="c0"/>
<circle cx="1156" cy="476" r="6" class="c0"/>
<circle cx="954" cy="1242" r="6" class="c0"/>
<circle cx="1044" cy="1082" r="6" class="c0"/>
<circle cx="758" cy="1344" r="6" class="c0"/>
<circle cx="1050" cy="516" r="6" class="c0"/>
<circle cx="974" cy="336" r="6" class="c0"/>
<circle cx="968" cy="582" r="6" class="c0"/>
<circle cx="874" cy="902" r="6" class="c0"/>
<circle cx="810" cy="1220" r="6" class="c0"/>
<circle cx="984" cy="676" r="6" class="c0"/>
<circle cx="1068" cy="364" r="6" class="c0"/>
<circle cx="424" cy="734" r="6" class="c0"/>
<circle cx="988" cy="1220" r="6" class="c0"/>
<circle cx="1126" cy="368" r="6" class="c0"/>
<circle cx="802" cy="992" r="6" class="c0"/>
<circle cx="1068" cy="1246" r="6" class="c0"/>
<circle cx="888" cy="840" r="6" class="c0"/>
<circle cx="784" cy="702" r="6" class="c0"/>
<circle cx="866" cy="818" r="6" class="c0"/>
<circle cx="974" cy="1392" r="6" class="c0"/>
<circle cx="1038" cy="834" r="6" class="c0"/>
<circle cx="770" cy="698" r="6" class="c0"/>
<circle cx="670" cy="714" r="6" class="c0"/>
<circle cx="856" cy="1342" r="6" class="c0"/>
<circle cx="930" cy="1332" r="6" class="c0"/>
<circle cx="830" cy="1038" r="6" class="c0"/>
<circle cx="712" cy="1338" r="6" class="c0"/>
<circle cx="1022" cy="428" r="6" class="c0"/>
<circle cx="932" cy="592" r="6" class="c0"/>
<circle cx="776" cy="1284" r="6" class="c0"/>
<circle cx="982" cy="432" r="6" class="c0"/>
<circle cx="738" cy="1280" r="6" class="c0"/>
<circle cx="958" cy="568" r="6" class="c0"/>
<circle cx="986" cy="764" r="6" class="c0"/>
<circle cx="720" cy="1426" r="6" class="c0"/>
<circle cx="862" cy="412" r="6" class="c0"/>
<circle cx="1132" cy="1070" r="6" class="c0"/>
<circle cx="1010" cy="1370" r="6" class="c0"/>
<circle cx="944" cy="974" r="6" class="c0"/>
<circle cx="874" cy="1130" r="6" class="c0"/>
<circle cx="1010" cy="372" r="6" class="c0"/>
<circle cx="854" cy="1248" r="6" class="c0"/>
<circle cx="962" cy="348" r="6" class="c0"/>
<circle cx="768" cy="1328" r="6" class="c0"/>
<circle cx="1104" cy="1242" r="6" class="c0"/>
<circle cx="944" cy="528" r="6" class="c0"/>
<circle cx="906" cy="806" r="6" class="c0"/>
<circle cx="1028" cy="760" r="6" class="c0"/>
<circle cx="990" cy="562" r="6" class="c0"/>
<circle cx="1028" cy="488" r="6" class="c0"/>
<circle cx="564" cy="624" r="6" class="c0"/>
<circle cx="1008" cy="852" r="6" class="c0"/>
<circle cx="938" cy="560" r="6" class="c0"/>
<circle cx="740" cy="1412" r="6" class="c0"/>
<circle cx="994" cy="772" r="6" class="c0"/>
<circle cx="1148" cy="532" r="6" class="c0"/>
<circle cx="1064" cy="1288" r="6" class="c0"/>
<circle cx="1056" cy="1238" r="6" class="c0"/>
<circle cx="950" cy="890" r="6" class="c0"/>
<circle cx="1094" cy="392" r="6" class="c0"/>
<circle cx="1118" cy="1408" r="6" class="c0"/>
<circle cx="992" cy="846" r="6" class="c0"/>
<circle cx="1012" cy="934" r="6" class="c0"/>
<circle cx="538" cy="656" r="6" class="c0"/>
<circle cx="624" cy="690" r="6" class="c0"/>
<circle cx="952" cy="496" r="6" class="c0"/>
<circle cx="794" cy="790" r="6" class="c0"/>
<circle cx="1078" cy="598" r="6" class="c0"/>
<circle cx="600" cy="690" r="6" class="c0"/>
<circle cx="636" cy="756" r="6" class="c0"/>
<circle cx="902" cy="304" r="6" class="c0"/>
<circle cx="1158" cy="450" r="6" class="c0"/>
<circle cx="1086" cy="1196" r="6" class="c0"/>
<circle cx="836" cy="1126" r="6" class="c0"/>
<circle cx="462" cy="716" r="6" class="c0"/>
<circle cx="828" cy="976" r="6" class="c0"/>
<circle cx="896" cy="1332" r="6" class="c0"/>
<circle cx="1118" cy="450" r="6" class="c0"/>
<circle cx="792" cy="804" r="6" class="c0"/>
<circle cx="912" cy="520" r="6" class="c0"/>
<circle cx="796" cy="1230" r="6" class="c0"/>
<circle cx="1020" cy="1190" r="6" class="c0"/>
<circle cx="1002" cy="1224" r="6" class="c0"/>
<circle cx="1058" cy="1348" r="6" class="c0"/>
<circle cx="1096" cy="336" r="6" class="c0"/>
<circle cx="896" cy="530" r="6" class="c0"/>
<circle cx="1040" cy="562" r="6" class="c0"/>
<circle cx="734" cy="888" r="6" class="c0"/>
<circle cx="938" cy="1040" r="6" class="c0"/>
<circle cx="872" cy="952" r="6" class="c0"/>
<circle cx="1078" cy="1256" r="6" class="c0"/>
<circle cx="1020" cy="332" r="6" class="c0"/>
<circle cx="922" cy="942" r="6" class="c0"/>
<circle cx="432" cy="742" r="6" class="c0"/>
<circle cx="820" cy="1066" r="6" class="c0"/>
<circle cx="762" cy="870" r="6" class="c0"/>
<circle cx="918" cy="1158" r="6" class="c0"/>
<circle cx="882" cy="1432" r="6" class="c0"/>
<circle cx="1144" cy="396" r="6" class="c0"/>
<circle cx="666" cy="654" r="6" class="c0"/>
<circle cx="954" cy="1072" r="6" class="c0"/>
<circle cx="898" cy="568" r="6" class="c0"/>
<circle cx="1116" cy="1076" r="6" class="c0"/>
<circle cx="1060" cy="752" r="6" class="c0"/>
<circle cx="1050" cy="786" r="6" class="c0"/>
<circle cx="1076" cy="340" r="6" class="c0"/>
<circle cx="776" cy="730" r="6" class="c0"/>
<circle cx="902" cy="1150" r="6" class="c0"/>
<circle cx="1138" cy="1400" r="6" class="c0"/>
<circle cx="1068" cy="1360" r="6" class="c0"/>
<circle cx="852" cy="1114" r="6" class="c0"/>
<circle cx="1014" cy="796" r="6" class="c0"/>
<circle cx="992" cy="262" r="6" class="c0"/>
<circle cx="650" cy="750" r="6" class="c0"/>
<circle cx="800" cy="1110" r="6" class="c0"/>
<circle cx="906" cy="876" r="6" class="c0"/>
<circle cx="976" cy="516" r="6" class="c0"/>
<circle cx="468" cy="728" r="6" class="c0"/>
<circle cx="874" cy="1196" r="6" class="c0"/>
<circle cx="948" cy="682" r="6" class="c0"/>
<circle cx="934" cy="1430" r="6" class="c0"/>
<circle cx="1004" cy="642" r="6" class="c0"/>
<circle cx="962" cy="1164" r="6" class="c0"/>
<circle cx="1132" cy="1144" r="6" class="c0"/>
<circle cx="926" cy="578" r="6" class="c0"/>
<circle cx="896" cy="696" r="6" class="c0"/>
<circle cx="1052" cy="1070" r="6" class="c0"/>
<circle cx="970" cy="364" r="6" class="c0"/>
<circle cx="1044" cy="1432" r="6" class="c0"/>
<circle cx="966" cy="1380" r="6" class="c0"/>
<circle cx="1030" cy="1152" r="6" class="c0"/>
<circle cx="804" cy="1432" r="6" class="c0"/>
<circle cx="998" cy="508" r="6" class="c0"/>
<circle cx="1036" cy="1286" r="6" class="c0"/>
<circle cx="986" cy="452" r="6" class="c0"/>
<circle cx="1064" cy="1026" r="6" class="c0"/>
<circle cx="1028" cy="282" r="6" class="c0"/>
<circle cx="880" cy="472" r="6" class="c0"/>
<circle cx="1118" cy="520" r="6" class="c0"/>
<circle cx="922" cy="648" r="6" class="c0"/>
<circle cx="964" cy="810" r="6" class="c0"/>
<circle cx="910" cy="1224" r="6" class="c0"/>
<circle cx="1006" cy="902" r="6" class="c0"/>
<circle cx="916" cy="694" r="6" class="c0"/>
<circle cx="672" cy="728" r="6" class="c0"/>
<circle cx="792" cy="1022" r="6" class="c0"/>
<circle cx="1034" cy="612" r="6" class="c0"/>
<circle cx="882" cy="910" r="6" class="c0"/>
<circle cx="922" cy="1340" r="6" class="c0"/>
<circle cx="806" cy="1356" r="6" class="c0"/>
<circle cx="1052" cy="330" r="6" class="c0"/>
<circle cx="992" cy="1102" r="6" class="c0"/>
<circle cx="722" cy="1302" r="6" class="c0"/>
<circle cx="1044" cy="816" r="6" class="c0"/>
<circle cx="968" cy="996" r="6" class="c0"/>
<circle cx="1106" cy="1086" r="6" class="c0"/>
<circle cx="722" cy="716" r="6" class="c0"/>
<circle cx="1038" cy="1042" r="6" class="c0"/>
<circle cx="1042" cy="1006" r="6" class="c0"/>
<circle cx="1074" cy="1066" r="6" class="c0"/>
<circle cx="1076" cy="306" r="6" class="c0"/>
<circle cx="832" cy="860" r="6" class="c0"/>
<circle cx="770" cy="1252" r="6" class="c0"/>
<circle cx="906" cy="442" r="6" class="c0"/>
<circle cx="950" cy="388" r="6" class="c0"/>
<circle cx="888" cy="672" r="6" class="c0"/>
<circle cx="588" cy="622" r="6" class="c0"/>
<circle cx="710" cy="746" r="6" class="c0"/>
<circle cx="908" cy="354" r="6" class="c0"/>
<circle cx="868" cy="1350" r="6" class="c0"/>
<circle cx="928" cy="1300" r="6" class="c0"/>
<circle cx="946" cy="314" r="6" class="c0"/>
<circle cx="908" cy="644" r="6" class="c0"/>
<circle cx="870" cy="972" r="6" class="c0"/>
<circle cx="786" cy="1068" r="6" class="c0"/>
<circle cx="700" cy="760" r="6" class="c0"/>
<circle cx="794" cy="826" r="6" class="c0"/>
<circle cx="1068" cy="390" r="6" class="c0"/>
<circle cx="1082" cy="1428" r="6" class="c0"/>
<circle cx="1014" cy="1044" r="6" class="c0"/>
<circle cx="972" cy="1286" r="6" class="c0"/>
<circle cx="1094" cy="1106" r="6" class="c0"/>
<circle cx="790" cy="1310" r="6" class="c0"/>
<circle cx="1094" cy="1340" r="6" class="c0"/>
<circle cx="672" cy="684" r="6" class="c0"/>
<circle cx="664" cy="776" r="6" class="c0"/>
<circle cx="750" cy="1352" r="6" class="c0"/>
<circle cx="1144" cy="1412" r="6" class="c0"/>
<circle cx="870" cy="730" r="6" class="c0"/>
<circle cx="978" cy="462" r="6" class="c0"/>
<circle cx="774" cy="888" r="6" class="c0"/>
<circle cx="706" cy="1400" r="6" class="c0"/>
<circle cx="948" cy="1338" r="6" class="c0"/>
<circle cx="994" cy="1020" r="6" class="c0"/>
<circle cx="1156" cy="1142" r="6" class="c0"/>
<circle cx="1040" cy="1196" r="6" class="c0"/>
<circle cx="938" cy="782" r="6" class="c0"/>
<circle cx="864" cy="636" r="6" class="c0"/>
<circle cx="990" cy="690" r="6" class="c0"/>
<circle cx="798" cy="1040" r="6" class="c0"/>
<circle cx="884" cy="492" r="6" class="c0"/>
<circle cx="958" cy="900" r="6" class="c0"/>
<circle cx="718" cy="1392" r="6" class="c0"/>
<circle cx="760" cy="706" r="6" class="c0"/>
<circle cx="808" cy="678" r="6" class="c0"/>
<circle cx="1010" cy="1430" r="6" class="c0"/>
<circle cx="826" cy="1286" r="6" class="c0"/>
<circle cx="1082" cy="1074" r="6" class="c0"/>
<circle cx="1100" cy="558" r="6" class="c0"/>
<circle cx="932" cy="428" r="6" class="c0"/>
<circle cx="882" cy="780" r="6" class="c0"/>
<circle cx="1044" cy="534" r="6" class="c0"/>
<circle cx="804" cy="1150" r="6" class="c0"/>
<circle cx="882" cy="362" r="6" class="c0"/>
<circle cx="1032" cy="696" r="6" class="c0"/>
<circle cx="1148" cy="1432" r="6" class="c0"/>
<circle cx="1044" cy="726" r="6" class="c0"/>
<circle cx="836" cy="968" r="6" class="c0"/>
<circle cx="1022" cy="1142" r="6" class="c0"/>
<circle cx="888" cy="1152" r="6" class="c0"/>
<circle cx="824" cy="1322" r="6" class="c0"/>
<circle cx="1068" cy="330" r="6" class="c0"/>
<circle cx="1128" cy="1376" r="6" class="c0"/>
<circle cx="668" cy="760" r="6" class="c0"/>
<circle cx="878" cy="1398" r="6" class="c0"/>
<circle cx="810" cy="832" r="6" class="c0"/>
<circle cx="696" cy="656" r="6" class="c0"/>
<circle cx="906" cy="986" r="6" class="c0"/>
<circle cx="896" cy="848" r="6" class="c0"/>
<circle cx="696" cy="1372" r="6" class="c0"/>
<circle cx="888" cy="614" r="6" class="c0"/>
<circle cx="1092" cy="1142" r="6" class="c0"/>
<circle cx="842" cy="1400" r="6" class="c0"/>
<circle cx="852" cy="1146" r="6" class="c0"/>
<circle cx="992" cy="1318" r="6" class="c0"/>
<circle cx="596" cy="638" r="6" class="c0"/>
<circle cx="1030" cy="864" r="6" class="c0"/>
<circle cx="824" cy="820" r="6" class="c0"/>
<circle cx="918" cy="1314" r="6" class="c0"/>
<circle cx="732" cy="1420" r="6" class="c0"/>
<circle cx="1126" cy="436" r="6" class="c0"/>
<circle cx="786" cy="818" r="6" class="c0"/>
<circle cx="504" cy="670" r="6" class="c0"/>
<circle cx="818" cy="1212" r="6" class="c0"/>
<circle cx="1078" cy="1292" r="6" class="c0"/>
<circle cx="942" cy="1058" r="6" class="c0"/>
<circle cx="880" cy="526" r="6" class="c0"/>
<circle cx="856" cy="1010" r="6" class="c0"/>
<circle cx="892" cy="584" r="6" class="c0"/>
<circle cx="1084" cy="1308" r="6" class="c0"/>
<circle cx="984" cy="480" r="6" class="c0"/>
<circle cx="1080" cy="1212" r="6" class="c0"/>
<circle cx="736" cy="802" r="6" class="c0"/>
<circle cx="876" cy="764" r="6" class="c0"/>
<circle cx="516" cy="678" r="6" class="c0"/>
<circle cx="912" cy="1088" r="6" class="c0"/>
<circle cx="822" cy="1384" r="6" class="c0"/>
<circle cx="1002" cy="1334" r="6" class="c0"/>
<circle cx="1038" cy="396" r="6" class="c0"/>
<circle cx="640" cy="650" r="6" class="c0"/>
<circle cx="938" cy="394" r="6" class="c0"/>
<circle cx="1076" cy="458" r="6" class="c0"/>
<circle cx="596" cy="710" r="6" class="c0"/>
<circle cx="1120" cy="1344" r="6" class="c0"/>
<circle cx="1106" cy="474" r="6" class="c0"/>
<circle cx="948" cy="596" r="6" class="c0"/>
<circle cx="930" cy="1124" r="6" class="c0"/>
<circle cx="774" cy="864" r="6" class="c0"/>
<circle cx="1060" cy="462" r="6" class="c0"/>
<circle cx="446" cy="710" r="6" class="c0"/>
<circle cx="1010" cy="970" r="6" class="c0"/>
<circle cx="968" cy="1132" r="6" class="c0"/>
<circle cx="918" cy="672" r="6" class="c0"/>
<circle cx="746" cy="1186" r="6" class="c0"/>
<circle cx="908" cy="406" r="6" class="c0"/>
<circle cx="760" cy="1146" r="6" class="c0"/>
<circle cx="1066" cy="668" r="6" class="c0"/>
<circle cx="486" cy="732" r="6" class="c0"/>
<circle cx="978" cy="1432" r="6" class="c0"/>
<circle cx="706" cy="672" r="6" class="c0"/>
<circle cx="1072" cy="494" r="6" class="c0"/>
<circle cx="1014" cy="386" r="6" class="c0"/>
<circle cx="678" cy="706" r="6" class="c0"/>
<circle cx="740" cy="768" r="6" class="c0"/>
<circle cx="924" cy="788" r="6" class="c0"/>
</svg>
