<?xml version="1.0" encoding="utf-8"?>
<svg xmlns="http://www.w3.org/2000/svg"
     xmlns:xlink="http://www.w3.org/1999/xlink" width="1920" height="1440" >

            <defs>
            <style type="text/css"><![CDATA[
circle {stroke: none;}
.c0 {fill: #FFFFFF;}
]]></style>
            </defs>
<rect x="0" y="0" width="1920" height="1440" fill="black"/>
<circle cx="980" cy="366" r="14" class="c0"/>
<circle cx="940" cy="492" r="12" class="c0"/>
<circle cx="1002" cy="636" r="12" class="c0"/>
<circle cx="898" cy="458" r="12" class="c0"/>
<circle cx="832" cy="1136" r="12" class="c0"/>
<circle cx="966" cy="394" r="12" class="c0"/>
<circle cx="1028" cy="1256" r="12" class="c0"/>
<circle cx="912" cy="978" r="12" class="c0"/>
<circle cx="554" cy="510" r="12" class="c0"/>
<circle cx="590" cy="566" r="12" class="c0"/>
<circle cx="1014" cy="332" r="12" class="c0"/>
<circle cx="1004" cy="1296" r="12" class="c0"/>
<circle cx="1032" cy="820" r="12" class="c0"/>
<circle cx="1056" cy="746" r="12" class="c0"/>
<circle cx="1062" cy="1056" r="12" class="c0"/>
<circle cx="828" cy="1252" r="12" class="c0"/>
<circle cx="980" cy="724" r="12" class="c0"/>
<circle cx="1034" cy="1378" r="12" class="c0"/>
<circle cx="1034" cy="1062" r="12" class="c0"/>
<circle cx="844" cy="1370" r="12" class="c0"/>
<circle cx="1118" cy="506" r="12" class="c0"/>
<circle cx="1070" cy="398" r="12" class="c0"/>
<circle cx="882" cy="1266" r="12" class="c0"/>
<circle cx="704" cy="580" r="12" class="c0"/>
<circle cx="1106" cy="1138" r="12" class="c0"/>
<circle cx="934" cy="806" r="12" class="c0"/>
<circle cx="794" cy="786" r="12" class="c0"/>
<circle cx="1028" cy="994" r="12" class="c0"/>
<circle cx="856" cy="820" r="12" class="c0"/>
<circle cx="960" cy="420" r="12" class="c0"/>
<circle cx="882" cy="1394" r="12" class="c0"/>
<circle cx="1086" cy="452" r="12" class="c0"/>
<circle cx="838" cy="928" r="12" class="c0"/>
<circle cx="872" cy="1098" r="12" class="c0"/>
<circle cx="1074" cy="1306" r="12" class="c0"/>
<circle cx="946" cy="330" r="12" class="c0"/>
<circle cx="792" cy="1276" r="12" class="c0"/>
<circle cx="1126" cy="460" r="12" class="c0"/>
<circle cx="898" cy="1352" r="12" class="c0"/>
<circle cx="1062" cy="618" r="12" class="c0"/>
<circle cx="906" cy="1214" r="12" class="c0"/>
<circle cx="782" cy="730" r="12" class="c0"/>
<circle cx="824" cy="1202" r="12" class="c0"/>
<circle cx="914" cy="1316" r="12" class="c0"/>
<circle cx="1046" cy="710" r="12" class="c0"/>
<circle cx="718" cy="626" r="12" class="c0"/>
<circle cx="996" cy="1082" r="12" class="c0"/>
<circle cx="920" cy="1342" r="12" class="c0"/>
<circle cx="1066" cy="520" r="12" class="c0"/>
<circle cx="1100" cy="562" r="12" class="c0"/>
<circle cx="942" cy="1112" r="12" class="c0"/>
<circle cx="446" cy="546" r="12" class="c0"/>
<circle cx="1018" cy="502" r="12" class="c0"/>
<circle cx="840" cy="844" r="12" class="c0"/>
<circle cx="746" cy="1394" r="12" class="c0"/>
<circle cx="766" cy="820" r="12" class="c0"/>
<circle cx="966" cy="1226" r="12" class="c0"/>
<circle cx="1008" cy="1406" r="12" class="c0"/>
<circle cx="1010" cy="406" r="12" class="c0"/>
<circle cx="934" cy="568" r="12" class="c0"/>
<circle cx="990" cy="482" r="12" class="c0"/>
<circle cx="858" cy="712" r="12" class="c0"/>
<circle cx="800" cy="1078" r="12" class="c0"/>
<circle cx="880" cy="624" r="12" class="c0"/>
<circle cx="840" cy="1408" r="12" class="c0"/>
<circle cx="1032" cy="370" r="12" class="c0"/>
<circle cx="740" cy="582" r="12" class="c0"/>
<circle cx="858" cy="1028" r="12" class="c0"/>
<circle cx="1044" cy="1226" r="12" class="c0"/>
<circle cx="962" cy="924" r="12" class="c0"/>
<circle cx="1002" cy="1042" r="12" class="c0"/>
<circle cx="996" cy="752" r="12" class="c0"/>
<circle cx="664" cy="560" r="12" class="c0"/>
<circle cx="974" cy="672" r="12" class="c0"/>
<circle cx="1040" cy="1300" r="12" class="c0"/>
<circle cx="896" cy="370" r="12" class="c0"/>
<circle cx="972" cy="1356" r="12" class="c0"/>
<circle cx="902" cy="810" r="12" class="c0"/>
<circle cx="778" cy="1416" r="10" class="c0"/>
<circle cx="932" cy="1010" r="10" class="c0"/>
<circle cx="902" cy="1014" r="10" class="c0"/>
<circle cx="918" cy="428" r="10" class="c0"/>
<circle cx="730" cy="824" r="10" class="c0"/>
<circle cx="930" cy="1224" r="10" class="c0"/>
<circle cx="798" cy="1318" r="10" class="c0"/>
<circle cx="950" cy="512" r="10" class="c0"/>
<circle cx="988" cy="1384" r="10" class="c0"/>
<circle cx="878" cy="1072" r="10" class="c0"/>
<circle cx="892" cy="842" r="10" class="c0"/>
<circle cx="808" cy="728" r="10" class="c0"/>
<circle cx="914" cy="606" r="10" class="c0"/>
<circle cx="862" cy="984" r="10" class="c0"/>
<circle cx="898" cy="1170" r="10" class="c0"/>
<circle cx="1164" cy="458" r="10" class="c0"/>
<circle cx="830" cy="1098" r="10" class="c0"/>
<circle cx="1016" cy="592" r="10" class="c0"/>
<circle cx="762" cy="760" r="10" class="c0"/>
<circle cx="988" cy="850" r="10" class="c0"/>
<circle cx="930" cy="1388" r="10" class="c0"/>
<circle cx="814" cy="962" r="10" class="c0"/>
<circle cx="1032" cy="1412" r="10" class="c0"/>
<circle cx="826" cy="644" r="10" class="c0"/>
<circle cx="1062" cy="1352" r="10" class="c0"/>
<circle cx="878" cy="1182" r="10" class="c0"/>
<circle cx="974" cy="896" r="10" class="c0"/>
<circle cx="764" cy="1318" r="10" class="c0"/>
<circle cx="1028" cy="576" r="10" class="c0"/>
<circle cx="984" cy="578" r="10" class="c0"/>
<circle cx="1020" cy="776" r="10" class="c0"/>
<circle cx="920" cy="364" r="10" class="c0"/>
<circle cx="868" cy="1156" r="10" class="c0"/>
<circle cx="1060" cy="1374" r="10" class="c0"/>
<circle cx="942" cy="892" r="10" class="c0"/>
<circle cx="886" cy="972" r="10" class="c0"/>
<circle cx="1102" cy="632" r="10" class="c0"/>
<circle cx="938" cy="704" r="10" class="c0"/>
<circle cx="1000" cy="878" r="10" class="c0"/>
<circle cx="958" cy="746" r="10" class="c0"/>
<circle cx="886" cy="1314" r="10" class="c0"/>
<circle cx="972" cy="1202" r="10" class="c0"/>
<circle cx="946" cy="1236" r="10" class="c0"/>
<circle cx="586" cy="594" r="10" class="c0"/>
<circle cx="848" cy="1060" r="10" class="c0"/>
<circle cx="948" cy="644" r="10" class="c0"/>
<circle cx="886" cy="650" r="10" class="c0"/>
<circle cx="794" cy="1380" r="10" class="c0"/>
<circle cx="780" cy="1232" r="10" class="c0"/>
<circle cx="964" cy="1396" r="10" class="c0"/>
<circle cx="1148" cy="508" r="10" class="c0"/>
<circle cx="806" cy="610" r="10" class="c0"/>
<circle cx="504" cy="506" r="10" class="c0"/>
<circle cx="1032" cy="628" r="10" class="c0"/>
<circle cx="1008" cy="1134" r="10" class="c0"/>
<circle cx="850" cy="1200" r="10" class="c0"/>
<circle cx="1046" cy="314" r="10" class="c0"/>
<circle cx="450" cy="492" r="10" class="c0"/>
<circle cx="798" cy="640" r="10" class="c0"/>
<circle cx="742" cy="806" r="10" class="c0"/>
<circle cx="812" cy="920" r="10" class="c0"/>
<circle cx="1018" cy="470" r="10" class="c0"/>
<circle cx="1142" cy="586" r="10" class="c0"/>
<circle cx="916" cy="1420" r="10" class="c0"/>
<circle cx="614" cy="538" r="10" class="c0"/>
<circle cx="1034" cy="1330" r="10" class="c0"/>
<circle cx="1150" cy="428" r="10" class="c0"/>
<circle cx="936" cy="1162" r="10" class="c0"/>
<circle cx="1012" cy="1164" r="10" class="c0"/>
<circle cx="810" cy="1414" r="10" class="c0"/>
<circle cx="1004" cy="530" r="10" class="c0"/>
<circle cx="506" cy="578" r="10" class="c0"/>
<circle cx="936" cy="764" r="10" class="c0"/>
<circle cx="824" cy="780" r="10" class="c0"/>
<circle cx="972" cy="1016" r="10" class="c0"/>
<circle cx="898" cy="928" r="10" class="c0"/>
<circle cx="978" cy="308" r="10" class="c0"/>
<circle cx="1140" cy="1126" r="10" class="c0"/>
<circle cx="862" cy="908" r="10" class="c0"/>
<circle cx="834" cy="746" r="10" class="c0"/>
<circle cx="868" cy="886" r="10" class="c0"/>
<circle cx="1038" cy="656" r="10" class="c0"/>
<circle cx="964" cy="448" r="10" class="c0"/>
<circle cx="786" cy="1138" r="10" class="c0"/>
<circle cx="1142" cy="394" r="10" class="c0"/>
<circle cx="798" cy="676" r="10" class="c0"/>
<circle cx="1002" cy="704" r="10" class="c0"/>
<circle cx="1104" cy="1324" r="10" class="c0"/>
<circle cx="684" cy="616" r="10" class="c0"/>
<circle cx="1072" cy="1204" r="10" class="c0"/>
<circle cx="1120" cy="408" r="10" class="c0"/>
<circle cx="750" cy="1238" r="10" class="c0"/>
<circle cx="534" cy="574" r="10" class="c0"/>
<circle cx="764" cy="1282" r="10" class="c0"/>
<circle cx="922" cy="668" r="10" class="c0"/>
<circle cx="904" cy="506" r="10" class="c0"/>
<circle cx="1066" cy="1080" r="10" class="c0"/>
<circle cx="488" cy="530" r="10" class="c0"/>
<circle cx="1084" cy="1380" r="10" class="c0"/>
<circle cx="752" cy="1354" r="10" class="c0"/>
<circle cx="922" cy="882" r="10" class="c0"/>
<circle cx="850" cy="866" r="10" class="c0"/>
<circle cx="948" cy="280" r="10" class="c0"/>
<circle cx="896" cy="882" r="10" class="c0"/>
<circle cx="1028" cy="424" r="10" class="c0"/>
<circle cx="1002" cy="384" r="10" class="c0"/>
<circle cx="932" cy="1050" r="10" class="c0"/>
<circle cx="406" cy="488" r="10" class="c0"/>
<circle cx="912" cy="480" r="10" class="c0"/>
<circle cx="802" cy="1190" r="10" class="c0"/>
<circle cx="428" cy="508" r="10" class="c0"/>
<circle cx="814" cy="862" r="10" class="c0"/>
<circle cx="816" cy="834" r="10" class="c0"/>
<circle cx="868" cy="842" r="10" class="c0"/>
<circle cx="786" cy="664" r="10" class="c0"/>
<circle cx="1000" cy="1222" r="10" class="c0"/>
<circle cx="1088" cy="512" r="10" class="c0"/>
<circle cx="1060" cy="1322" r="10" class="c0"/>
<circle cx="1068" cy="370" r="10" class="c0"/>
<circle cx="954" cy="1080" r="10" class="c0"/>
<circle cx="816" cy="708" r="10" class="c0"/>
<circle cx="784" cy="590" r="10" class="c0"/>
<circle cx="920" cy="1368" r="10" class="c0"/>
<circle cx="1112" cy="1356" r="10" class="c0"/>
<circle cx="1148" cy="542" r="10" class="c0"/>
<circle cx="766" cy="656" r="10" class="c0"/>
<circle cx="994" cy="968" r="10" class="c0"/>
<circle cx="898" cy="1094" r="10" class="c0"/>
<circle cx="1132" cy="1072" r="10" class="c0"/>
<circle cx="810" cy="1334" r="10" class="c0"/>
<circle cx="1090" cy="352" r="10" class="c0"/>
<circle cx="960" cy="782" r="10" class="c0"/>
<circle cx="750" cy="840" r="10" class="c0"/>
<circle cx="1026" cy="738" r="10" class="c0"/>
<circle cx="802" cy="1052" r="10" class="c0"/>
<circle cx="922" cy="1288" r="10" class="c0"/>
<circle cx="1068" cy="1248" r="10" class="c0"/>
<circle cx="966" cy="1318" r="10" class="c0"/>
<circle cx="956" cy="1370" r="10" class="c0"/>
<circle cx="734" cy="852" r="10" class="c0"/>
<circle cx="1056" cy="1426" r="10" class="c0"/>
<circle cx="830" cy="1022" r="10" class="c0"/>
<circle cx="996" cy="296" r="10" class="c0"/>
<circle cx="656" cy="612" r="10" class="c0"/>
<circle cx="384" cy="486" r="10" class="c0"/>
<circle cx="518" cy="526" r="10" class="c0"/>
<circle cx="824" cy="808" r="10" class="c0"/>
<circle cx="1086" cy="590" r="10" class="c0"/>
<circle cx="1056" cy="454" r="10" class="c0"/>
<circle cx="1012" cy="264" r="10" class="c0"/>
<circle cx="1114" cy="1380" r="10" class="c0"/>
<circle cx="1102" cy="1080" r="10" class="c0"/>
<circle cx="850" cy="952" r="10" class="c0"/>
<circle cx="752" cy="630" r="10" class="c0"/>
<circle cx="990" cy="1244" r="10" class="c0"/>
<circle cx="906" cy="1272" r="10" class="c0"/>
<circle cx="1114" cy="312" r="10" class="c0"/>
<circle cx="1148" cy="1414" r="10" class="c0"/>
<circle cx="1116" cy="386" r="10" class="c0"/>
<circle cx="942" cy="302" r="10" class="c0"/>
<circle cx="842" cy="1238" r="10" class="c0"/>
<circle cx="778" cy="694" r="10" class="c0"/>
<circle cx="1036" cy="760" r="10" class="c0"/>
<circle cx="634" cy="588" r="10" class="c0"/>
<circle cx="1116" cy="432" r="10" class="c0"/>
<circle cx="926" cy="910" r="10" class="c0"/>
<circle cx="896" cy="1052" r="10" class="c0"/>
<circle cx="964" cy="1160" r="10" class="c0"/>
<circle cx="1000" cy="442" r="10" class="c0"/>
<circle cx="388" cy="518" r="10" class="c0"/>
<circle cx="1130" cy="528" r="10" class="c0"/>
<circle cx="988" cy="944" r="10" class="c0"/>
<circle cx="1094" cy="1412" r="10" class="c0"/>
<circle cx="646" cy="532" r="10" class="c0"/>
<circle cx="758" cy="732" r="10" class="c0"/>
<circle cx="976" cy="1054" r="10" class="c0"/>
<circle cx="964" cy="550" r="10" class="c0"/>
<circle cx="1056" cy="1104" r="10" class="c0"/>
<circle cx="1120" cy="1302" r="10" class="c0"/>
<circle cx="950" cy="980" r="10" class="c0"/>
<circle cx="920" cy="1196" r="10" class="c0"/>
<circle cx="722" cy="794" r="10" class="c0"/>
<circle cx="758" cy="570" r="10" class="c0"/>
<circle cx="844" cy="662" r="10" class="c0"/>
<circle cx="894" cy="718" r="10" class="c0"/>
<circle cx="1130" cy="488" r="10" class="c0"/>
<circle cx="776" cy="1350" r="10" class="c0"/>
<circle cx="942" cy="616" r="10" class="c0"/>
<circle cx="1136" cy="1148" r="10" class="c0"/>
<circle cx="518" cy="554" r="10" class="c0"/>
<circle cx="1020" cy="1110" r="10" class="c0"/>
<circle cx="824" cy="1158" r="10" class="c0"/>
<circle cx="820" cy="1392" r="10" class="c0"/>
<circle cx="920" cy="1256" r="10" class="c0"/>
<circle cx="922" cy="746" r="10" class="c0"/>
<circle cx="1072" cy="488" r="10" class="c0"/>
<circle cx="962" cy="828" r="10" class="c0"/>
<circle cx="942" cy="1420" r="10" class="c0"/>
<circle cx="920" cy="1084" r="10" class="c0"/>
<circle cx="918" cy="1122" r="10" class="c0"/>
<circle cx="814" cy="1298" r="10" class="c0"/>
<circle cx="1008" cy="802" r="10" class="c0"/>
<circle cx="796" cy="1020" r="10" class="c0"/>
<circle cx="1050" cy="352" r="10" class="c0"/>
<circle cx="984" cy="798" r="10" class="c0"/>
<circle cx="904" cy="636" r="8" class="c0"/>
<circle cx="988" cy="778" r="8" class="c0"/>
<circle cx="866" cy="1302" r="8" class="c0"/>
<circle cx="984" cy="528" r="8" class="c0"/>
<circle cx="666" cy="586" r="8" class="c0"/>
<circle cx="1138" cy="608" r="8" class="c0"/>
<circle cx="758" cy="700" r="8" class="c0"/>
<circle cx="868" cy="734" r="8" class="c0"/>
<circle cx="1140" cy="360" r="8" class="c0"/>
<circle cx="1156" cy="480" r="8" class="c0"/>
<circle cx="828" cy="900" r="8" class="c0"/>
<circle cx="612" cy="562" r="8" class="c0"/>
<circle cx="958" cy="1182" r="8" class="c0"/>
<circle cx="800" cy="1108" r="8" class="c0"/>
<circle cx="1028" cy="678" r="8" class="c0"/>
<circle cx="760" cy="1428" r="8" class="c0"/>
<circle cx="1058" cy="1160" r="8" class="c0"/>
<circle cx="1106" cy="1258" r="8" class="c0"/>
<circle cx="1058" cy="690" r="8" class="c0"/>
<circle cx="890" cy="748" r="8" class="c0"/>
<circle cx="838" cy="722" r="8" class="c0"/>
<circle cx="918" cy="398" r="8" class="c0"/>
<circle cx="978" cy="984" r="8" class="c0"/>
<circle cx="1008" cy="1002" r="8" class="c0"/>
<circle cx="1090" cy="1050" r="8" class="c0"/>
<circle cx="864" cy="1384" r="8" class="c0"/>
<circle cx="826" cy="1058" r="8" class="c0"/>
<circle cx="558" cy="562" r="8" class="c0"/>
<circle cx="1060" cy="332" r="8" class="c0"/>
<circle cx="1012" cy="858" r="8" class="c0"/>
<circle cx="1086" cy="332" r="8" class="c0"/>
<circle cx="994" cy="1340" r="8" class="c0"/>
<circle cx="864" cy="1352" r="8" class="c0"/>
<circle cx="926" cy="962" r="8" class="c0"/>
<circle cx="814" cy="750" r="8" class="c0"/>
<circle cx="980" cy="1100" r="8" class="c0"/>
<circle cx="818" cy="884" r="8" class="c0"/>
<circle cx="1040" cy="1150" r="8" class="c0"/>
<circle cx="1076" cy="1166" r="8" class="c0"/>
<circle cx="1048" cy="418" r="8" class="c0"/>
<circle cx="750" cy="1306" r="8" class="c0"/>
<circle cx="900" cy="546" r="8" class="c0"/>
<circle cx="1042" cy="802" r="8" class="c0"/>
<circle cx="622" cy="614" r="8" class="c0"/>
<circle cx="1038" cy="488" r="8" class="c0"/>
<circle cx="780" cy="626" r="8" class="c0"/>
<circle cx="1042" cy="610" r="8" class="c0"/>
<circle cx="968" cy="590" r="8" class="c0"/>
<circle cx="1038" cy="1036" r="8" class="c0"/>
<circle cx="1056" cy="1016" r="8" class="c0"/>
<circle cx="884" cy="414" r="8" class="c0"/>
<circle cx="1046" cy="532" r="8" class="c0"/>
<circle cx="930" cy="852" r="8" class="c0"/>
<circle cx="1140" cy="1394" r="8" class="c0"/>
<circle cx="892" cy="1418" r="8" class="c0"/>
<circle cx="994" cy="276" r="8" class="c0"/>
<circle cx="1170" cy="438" r="8" class="c0"/>
<circle cx="818" cy="1000" r="8" class="c0"/>
<circle cx="960" cy="712" r="8" class="c0"/>
<circle cx="796" cy="760" r="8" class="c0"/>
<circle cx="894" cy="522" r="8" class="c0"/>
<circle cx="1004" cy="924" r="8" class="c0"/>
<circle cx="420" cy="534" r="8" class="c0"/>
<circle cx="960" cy="954" r="8" class="c0"/>
<circle cx="878" cy="940" r="8" class="c0"/>
<circle cx="610" cy="604" r="8" class="c0"/>
<circle cx="796" cy="1400" r="8" class="c0"/>
<circle cx="1118" cy="1162" r="8" class="c0"/>
<circle cx="1068" cy="1140" r="8" class="c0"/>
<circle cx="986" cy="1004" r="8" class="c0"/>
<circle cx="1118" cy="1428" r="8" class="c0"/>
<circle cx="978" cy="1148" r="8" class="c0"/>
<circle cx="864" cy="1276" r="8" class="c0"/>
<circle cx="978" cy="432" r="8" class="c0"/>
<circle cx="550" cy="536" r="8" class="c0"/>
<circle cx="1102" cy="1392" r="8" class="c0"/>
<circle cx="1000" cy="832" r="8" class="c0"/>
<circle cx="774" cy="1172" r="8" class="c0"/>
<circle cx="1026" cy="842" r="8" class="c0"/>
<circle cx="912" cy="828" r="8" class="c0"/>
<circle cx="1070" cy="564" r="8" class="c0"/>
<circle cx="1008" cy="310" r="8" class="c0"/>
<circle cx="1044" cy="1188" r="8" class="c0"/>
<circle cx="1138" cy="340" r="8" class="c0"/>
<circle cx="940" cy="866" r="8" class="c0"/>
<circle cx="1092" cy="1098" r="8" class="c0"/>
<circle cx="1002" cy="670" r="8" class="c0"/>
<circle cx="946" cy="438" r="8" class="c0"/>
<circle cx="806" cy="1228" r="8" class="c0"/>
<circle cx="764" cy="1200" r="8" class="c0"/>
<circle cx="958" cy="1034" r="8" class="c0"/>
<circle cx="472" cy="512" r="8" class="c0"/>
<circle cx="1110" cy="1056" r="8" class="c0"/>
<circle cx="880" cy="790" r="8" class="c0"/>
<circle cx="972" cy="492" r="8" class="c0"/>
<circle cx="820" cy="1430" r="8" class="c0"/>
<circle cx="850" cy="1426" r="8" class="c0"/>
<circle cx="1014" cy="360" r="8" class="c0"/>
<circle cx="982" cy="1412" r="8" class="c0"/>
<circle cx="824" cy="680" r="8" class="c0"/>
<circle cx="732" cy="1358" r="8" class="c0"/>
<circle cx="1106" cy="1196" r="8" class="c0"/>
<circle cx="554" cy="590" r="8" class="c0"/>
<circle cx="980" cy="460" r="8" class="c0"/>
<circle cx="714" cy="598" r="8" class="c0"/>
<circle cx="914" cy="1234" r="8" class="c0"/>
<circle cx="958" cy="686" r="8" class="c0"/>
<circle cx="970" cy="642" r="8" class="c0"/>
<circle cx="960" cy="1250" r="8" class="c0"/>
<circle cx="784" cy="1300" r="8" class="c0"/>
<circle cx="732" cy="608" r="8" class="c0"/>
<circle cx="518" cy="596" r="8" class="c0"/>
<circle cx="822" cy="1118" r="8" class="c0"/>
<circle cx="1040" cy="780" r="8" class="c0"/>
<circle cx="1016" cy="550" r="8" class="c0"/>
<circle cx="1054" cy="1272" r="8" class="c0"/>
<circle cx="912" cy="686" r="8" class="c0"/>
<circle cx="476" cy="558" r="8" class="c0"/>
<circle cx="844" cy="1270" r="8" class="c0"/>
<circle cx="840" cy="1294" r="8" class="c0"/>
<circle cx="866" cy="1410" r="8" class="c0"/>
<circle cx="934" cy="1136" r="8" class="c0"/>
<circle cx="1022" cy="1312" r="8" class="c0"/>
<circle cx="1108" cy="1106" r="8" class="c0"/>
<circle cx="1088" cy="1288" r="8" class="c0"/>
<circle cx="566" cy="544" r="8" class="c0"/>
<circle cx="896" cy="436" r="8" class="c0"/>
<circle cx="948" cy="726" r="8" class="c0"/>
<circle cx="1018" cy="1084" r="8" class="c0"/>
<circle cx="976" cy="870" r="8" class="c0"/>
<circle cx="996" cy="1318" r="8" class="c0"/>
<circle cx="854" cy="1114" r="8" class="c0"/>
<circle cx="1036" cy="402" r="8" class="c0"/>
<circle cx="1000" cy="906" r="8" class="c0"/>
<circle cx="904" cy="1144" r="8" class="c0"/>
<circle cx="1126" cy="370" r="8" class="c0"/>
<circle cx="1038" cy="1088" r="8" class="c0"/>
<circle cx="710" cy="832" r="8" class="c0"/>
<circle cx="1020" cy="1208" r="8" class="c0"/>
<circle cx="838" cy="1042" r="8" class="c0"/>
<circle cx="1022" cy="390" r="8" class="c0"/>
<circle cx="856" cy="784" r="8" class="c0"/>
<circle cx="740" cy="1334" r="8" class="c0"/>
<circle cx="988" cy="548" r="8" class="c0"/>
<circle cx="414" cy="554" r="8" class="c0"/>
<circle cx="794" cy="1212" r="8" class="c0"/>
<circle cx="350" cy="508" r="8" class="c0"/>
<circle cx="770" cy="794" r="8" class="c0"/>
<circle cx="832" cy="1314" r="8" class="c0"/>
<circle cx="932" cy="598" r="8" class="c0"/>
<circle cx="988" cy="326" r="8" class="c0"/>
<circle cx="734" cy="644" r="8" class="c0"/>
<circle cx="1032" cy="1126" r="8" class="c0"/>
<circle cx="1056" cy="1126" r="8" class="c0"/>
<circle cx="784" cy="1182" r="8" class="c0"/>
<circle cx="1084" cy="306" r="8" class="c0"/>
<circle cx="1074" cy="1400" r="8" class="c0"/>
<circle cx="970" cy="1272" r="8" class="c0"/>
<circle cx="890" cy="696" r="8" class="c0"/>
<circle cx="814" cy="660" r="8" class="c0"/>
<circle cx="844" cy="800" r="8" class="c0"/>
<circle cx="1062" cy="646" r="8" class="c0"/>
<circle cx="868" cy="1212" r="8" class="c0"/>
<circle cx="1116" cy="596" r="8" class="c0"/>
<circle cx="792" cy="1166" r="8" class="c0"/>
<circle cx="454" cy="522" r="8" class="c0"/>
<circle cx="878" cy="1134" r="8" class="c0"/>
<circle cx="998" cy="558" r="8" class="c0"/>
<circle cx="980" cy="628" r="8" class="c0"/>
<circle cx="852" cy="688" r="8" class="c0"/>
<circle cx="944" cy="1264" r="8" class="c0"/>
<circle cx="890" cy="592" r="8" class="c0"/>
<circle cx="516" cy="490" r="8" class="c0"/>
<circle cx="1050" cy="570" r="8" class="c0"/>
<circle cx="910" cy="762" r="8" class="c0"/>
<circle cx="806" cy="944" r="8" class="c0"/>
<circle cx="948" cy="382" r="8" class="c0"/>
<circle cx="880" cy="1224" r="8" class="c0"/>
<circle cx="1090" cy="1360" r="8" class="c0"/>
<circle cx="930" cy="522" r="8" class="c0"/>
<circle cx="888" cy="904" r="8" class="c0"/>
<circle cx="922" cy="458" r="8" class="c0"/>
<circle cx="768" cy="1382" r="8" class="c0"/>
<circle cx="864" cy="758" r="8" class="c0"/>
<circle cx="846" cy="1082" r="8" class="c0"/>
<circle cx="1008" cy="1066" r="8" class="c0"/>
<circle cx="1168" cy="416" r="8" class="c0"/>
<circle cx="1122" cy="1118" r="8" class="c0"/>
<circle cx="814" cy="1354" r="8" class="c0"/>
<circle cx="834" cy="1340" r="8" class="c0"/>
<circle cx="1110" cy="480" r="8" class="c0"/>
<circle cx="1014" cy="1368" r="8" class="c0"/>
<circle cx="1068" cy="1184" r="8" class="c0"/>
<circle cx="1080" cy="1270" r="8" class="c0"/>
<circle cx="760" cy="856" r="8" class="c0"/>
<circle cx="986" cy="508" r="8" class="c0"/>
<circle cx="856" cy="630" r="8" class="c0"/>
<circle cx="1096" cy="1116" r="8" class="c0"/>
<circle cx="860" cy="606" r="8" class="c0"/>
<circle cx="1112" cy="542" r="8" class="c0"/>
<circle cx="1018" cy="1344" r="8" class="c0"/>
<circle cx="1096" cy="1242" r="8" class="c0"/>
<circle cx="992" cy="658" r="8" class="c0"/>
<circle cx="830" cy="622" r="8" class="c0"/>
<circle cx="926" cy="540" r="8" class="c0"/>
<circle cx="1098" cy="1172" r="8" class="c0"/>
<circle cx="942" cy="1298" r="8" class="c0"/>
<circle cx="1064" cy="434" r="8" class="c0"/>
<circle cx="948" cy="588" r="8" class="c0"/>
<circle cx="960" cy="292" r="8" class="c0"/>
<circle cx="944" cy="548" r="8" class="c0"/>
<circle cx="1098" cy="470" r="8" class="c0"/>
<circle cx="738" cy="750" r="8" class="c0"/>
<circle cx="890" cy="1026" r="8" class="c0"/>
<circle cx="962" cy="346" r="8" class="c0"/>
<circle cx="1146" cy="470" r="8" class="c0"/>
<circle cx="790" cy="1254" r="8" class="c0"/>
<circle cx="856" cy="1334" r="8" class="c0"/>
<circle cx="958" cy="604" r="8" class="c0"/>
<circle cx="800" cy="980" r="8" class="c0"/>
<circle cx="578" cy="498" r="8" class="c0"/>
<circle cx="1010" cy="1186" r="8" class="c0"/>
<circle cx="758" cy="608" r="8" class="c0"/>
<circle cx="1046" cy="284" r="8" class="c0"/>
<circle cx="998" cy="1104" r="8" class="c0"/>
<circle cx="1046" cy="504" r="8" class="c0"/>
<circle cx="1010" cy="896" r="8" class="c0"/>
<circle cx="1018" cy="720" r="8" class="c0"/>
<circle cx="682" cy="574" r="8" class="c0"/>
<circle cx="868" cy="1234" r="8" class="c0"/>
<circle cx="822" cy="594" r="8" class="c0"/>
<circle cx="1124" cy="1338" r="8" class="c0"/>
<circle cx="902" cy="862" r="8" class="c0"/>
<circle cx="880" cy="766" r="8" class="c0"/>
<circle cx="1118" cy="338" r="8" class="c0"/>
<circle cx="990" cy="1178" r="8" class="c0"/>
<circle cx="1084" cy="1216" r="8" class="c0"/>
<circle cx="860" cy="1136" r="8" class="c0"/>
<circle cx="826" cy="980" r="8" class="c0"/>
<circle cx="1002" cy="610" r="8" class="c0"/>
<circle cx="994" cy="1430" r="8" class="c0"/>
<circle cx="992" cy="1160" r="8" class="c0"/>
<circle cx="994" cy="248" r="8" class="c0"/>
<circle cx="1060" cy="294" r="8" class="c0"/>
<circle cx="1076" cy="542" r="8" class="c0"/>
<circle cx="1096" cy="382" r="8" class="c0"/>
<circle cx="496" cy="548" r="8" class="c0"/>
<circle cx="990" cy="420" r="8" class="c0"/>
<circle cx="946" cy="670" r="8" class="c0"/>
<circle cx="1010" cy="1240" r="8" class="c0"/>
<circle cx="938" cy="928" r="8" class="c0"/>
<circle cx="950" cy="1332" r="8" class="c0"/>
<circle cx="854" cy="1256" r="8" class="c0"/>
<circle cx="912" cy="1042" r="8" class="c0"/>
<circle cx="918" cy="786" r="8" class="c0"/>
<circle cx="860" cy="1006" r="8" class="c0"/>
<circle cx="1038" cy="1352" r="8" class="c0"/>
<circle cx="966" cy="860" r="8" class="c0"/>
<circle cx="1156" cy="406" r="8" class="c0"/>
<circle cx="964" cy="1128" r="8" class="c0"/>
<circle cx="876" cy="1430" r="8" class="c0"/>
<circle cx="1104" cy="366" r="8" class="c0"/>
<circle cx="744" cy="1272" r="8" class="c0"/>
<circle cx="948" cy="1146" r="8" class="c0"/>
<circle cx="734" cy="772" r="8" class="c0"/>
<circle cx="892" cy="1240" r="8" class="c0"/>
<circle cx="908" cy="902" r="8" class="c0"/>
<circle cx="894" cy="1294" r="8" class="c0"/>
<circle cx="930" cy="832" r="8" class="c0"/>
<circle cx="760" cy="1262" r="8" class="c0"/>
<circle cx="1070" cy="1034" r="8" class="c0"/>
<circle cx="356" cy="482" r="8" class="c0"/>
<circle cx="1040" cy="558" r="8" class="c0"/>
<circle cx="878" cy="438" r="8" class="c0"/>
<circle cx="956" cy="468" r="8" class="c0"/>
<circle cx="1072" cy="322" r="8" class="c0"/>
<circle cx="640" cy="558" r="8" class="c0"/>
<circle cx="918" cy="710" r="8" class="c0"/>
<circle cx="1082" cy="1128" r="8" class="c0"/>
<circle cx="922" cy="942" r="8" class="c0"/>
<circle cx="998" cy="1264" r="8" class="c0"/>
<circle cx="980" cy="1294" r="8" class="c0"/>
<circle cx="990" cy="398" r="8" class="c0"/>
<circle cx="802" cy="898" r="8" class="c0"/>
<circle cx="850" cy="1148" r="8" class="c0"/>
<circle cx="578" cy="530" r="8" class="c0"/>
<circle cx="992" cy="684" r="8" class="c0"/>
<circle cx="886" cy="388" r="8" class="c0"/>
<circle cx="762" cy="590" r="8" class="c0"/>
<circle cx="400" cy="532" r="8" class="c0"/>
<circle cx="1100" cy="420" r="8" class="c0"/>
<circle cx="786" cy="806" r="8" class="c0"/>
<circle cx="1066" cy="1286" r="8" class="c0"/>
<circle cx="890" cy="1000" r="8" class="c0"/>
<circle cx="870" cy="666" r="8" class="c0"/>
<circle cx="1054" cy="1396" r="8" class="c0"/>
<circle cx="1134" cy="560" r="8" class="c0"/>
<circle cx="926" cy="1030" r="8" class="c0"/>
<circle cx="862" cy="930" r="8" class="c0"/>
<circle cx="846" cy="1180" r="8" class="c0"/>
<circle cx="1018" cy="1276" r="8" class="c0"/>
<circle cx="572" cy="578" r="8" class="c0"/>
<circle cx="1060" cy="582" r="8" class="c0"/>
<circle cx="912" cy="730" r="8" class="c0"/>
<circle cx="888" cy="672" r="8" class="c0"/>
<circle cx="760" cy="678" r="8" class="c0"/>
<circle cx="970" cy="330" r="8" class="c0"/>
<circle cx="896" cy="778" r="8" class="c0"/>
<circle cx="848" cy="766" r="8" class="c0"/>
<circle cx="458" cy="564" r="8" class="c0"/>
<circle cx="874" cy="1338" r="8" class="c0"/>
<circle cx="1118" cy="1404" r="8" class="c0"/>
<circle cx="946" cy="358" r="8" class="c0"/>
<circle cx="972" cy="518" r="8" class="c0"/>
<circle cx="846" cy="996" r="8" class="c0"/>
<circle cx="978" cy="700" r="8" class="c0"/>
<circle cx="766" cy="1402" r="8" class="c0"/>
<circle cx="552" cy="484" r="8" class="c0"/>
<circle cx="834" cy="876" r="8" class="c0"/>
<circle cx="996" cy="814" r="8" class="c0"/>
<circle cx="940" cy="784" r="8" class="c0"/>
<circle cx="982" cy="604" r="8" class="c0"/>
<circle cx="834" cy="696" r="8" class="c0"/>
<circle cx="716" cy="562" r="8" class="c0"/>
<circle cx="882" cy="862" r="8" class="c0"/>
<circle cx="620" cy="636" r="8" class="c0"/>
<circle cx="962" cy="1288" r="8" class="c0"/>
<circle cx="888" cy="1204" r="8" class="c0"/>
<circle cx="910" cy="530" r="8" class="c0"/>
<circle cx="902" cy="952" r="8" class="c0"/>
<circle cx="912" cy="1062" r="8" class="c0"/>
<circle cx="850" cy="594" r="8" class="c0"/>
<circle cx="1140" cy="1096" r="8" class="c0"/>
<circle cx="368" cy="504" r="8" class="c0"/>
<circle cx="528" cy="506" r="8" class="c0"/>
<circle cx="684" cy="592" r="8" class="c0"/>
<circle cx="924" cy="344" r="8" class="c0"/>
<circle cx="1098" cy="322" r="8" class="c0"/>
<circle cx="822" cy="1280" r="8" class="c0"/>
<circle cx="958" cy="1004" r="8" class="c0"/>
<circle cx="1024" cy="1024" r="8" class="c0"/>
<circle cx="1130" cy="324" r="8" class="c0"/>
<circle cx="802" cy="1128" r="8" class="c0"/>
<circle cx="804" cy="1146" r="8" class="c0"/>
<circle cx="972" cy="1428" r="8" class="c0"/>
<circle cx="776" cy="774" r="8" class="c0"/>
<circle cx="1104" cy="1224" r="8" class="c0"/>
<circle cx="626" cy="526" r="8" class="c0"/>
<circle cx="594" cy="544" r="8" class="c0"/>
<circle cx="744" cy="1372" r="8" class="c0"/>
<circle cx="874" cy="1374" r="8" class="c0"/>
<circle cx="934" cy="412" r="8" class="c0"/>
<circle cx="1082" cy="1428" r="8" class="c0"/>
<circle cx="800" cy="816" r="8" class="c0"/>
<circle cx="708" cy="810" r="8" class="c0"/>
<circle cx="1002" cy="350" r="8" class="c0"/>
<circle cx="608" cy="586" r="8" class="c0"/>
<circle cx="1012" cy="660" r="8" class="c0"/>
<circle cx="926" cy="640" r="8" class="c0"/>
<circle cx="540" cy="494" r="8" class="c0"/>
<circle cx="798" cy="998" r="8" class="c0"/>
<circle cx="648" cy="576" r="8" class="c0"/>
<circle cx="776" cy="1210" r="8" class="c0"/>
<circle cx="1120" cy="1186" r="8" class="c0"/>
<circle cx="1110" cy="1282" r="8" class="c0"/>
<circle cx="1036" cy="442" r="8" class="c0"/>
<circle cx="1016" cy="284" r="8" class="c0"/>
<circle cx="848" cy="892" r="8" class="c0"/>
<circle cx="950" cy="1202" r="8" class="c0"/>
<circle cx="888" cy="480" r="8" class="c0"/>
<circle cx="990" cy="1122" r="8" class="c0"/>
<circle cx="906" cy="1388" r="8" class="c0"/>
<circle cx="822" cy="1076" r="8" class="c0"/>
<circle cx="1102" cy="526" r="8" class="c0"/>
<circle cx="826" cy="948" r="8" class="c0"/>
<circle cx="1032" cy="518" r="8" class="c0"/>
<circle cx="950" cy="850" r="8" class="c0"/>
<circle cx="898" cy="1328" r="8" class="c0"/>
<circle cx="816" cy="1176" r="8" class="c0"/>
<circle cx="710" cy="854" r="8" class="c0"/>
<circle cx="744" cy="1416" r="8" class="c0"/>
<circle cx="974" cy="1074" r="8" class="c0"/>
<circle cx="1044" cy="1006" r="8" class="c0"/>
<circle cx="1120" cy="572" r="8" class="c0"/>
<circle cx="1088" cy="1190" r="8" class="c0"/>
<circle cx="1028" cy="296" r="8" class="c0"/>
<circle cx="468" cy="534" r="8" class="c0"/>
<circle cx="796" cy="706" r="8" class="c0"/>
<circle cx="866" cy="1048" r="8" class="c0"/>
<circle cx="812" cy="1372" r="8" class="c0"/>
<circle cx="1046" cy="388" r="8" class="c0"/>
<circle cx="1086" cy="1146" r="8" class="c0"/>
<circle cx="868" cy="802" r="8" class="c0"/>
<circle cx="780" cy="1116" r="8" class="c0"/>
<circle cx="830" cy="1224" r="8" class="c0"/>
<circle cx="996" cy="1202" r="8" class="c0"/>
<circle cx="890" cy="1118" r="8" class="c0"/>
<circle cx="926" cy="290" r="8" class="c0"/>
<circle cx="1030" cy="696" r="8" class="c0"/>
<circle cx="1106" cy="584" r="8" class="c0"/>
<circle cx="856" cy="1168" r="8" class="c0"/>
<circle cx="1084" cy="1070" r="8" class="c0"/>
<circle cx="854" cy="1224" r="8" class="c0"/>
<circle cx="930" cy="728" r="8" class="c0"/>
<circle cx="1082" cy="1340" r="8" class="c0"/>
<circle cx="1014" cy="688" r="8" class="c0"/>
<circle cx="788" cy="828" r="8" class="c0"/>
<circle cx="1060" cy="672" r="8" class="c0"/>
<circle cx="974" cy="760" r="8" class="c0"/>
<circle cx="1090" cy="410" r="8" class="c0"/>
<circle cx="956" cy="878" r="8" class="c0"/>
<circle cx="1090" cy="616" r="8" class="c0"/>
<circle cx="786" cy="1092" r="8" class="c0"/>
<circle cx="690" cy="554" r="6" class="c0"/>
<circle cx="1038" cy="466" r="6" class="c0"/>
<circle cx="842" cy="612" r="6" class="c0"/>
<circle cx="608" cy="624" r="6" class="c0"/>
<circle cx="1100" cy="400" r="6" class="c0"/>
<circle cx="408" cy="506" r="6" class="c0"/>
<circle cx="986" cy="824" r="6" class="c0"/>
<circle cx="870" cy="396" r="6" class="c0"/>
<circle cx="1052" cy="1208" r="6" class="c0"/>
<circle cx="1094" cy="494" r="6" class="c0"/>
<circle cx="666" cy="540" r="6" class="c0"/>
<circle cx="966" cy="276" r="6" class="c0"/>
<circle cx="1038" cy="1430" r="6" class="c0"/>
<circle cx="1122" cy="1088" r="6" class="c0"/>
<circle cx="912" cy="846" r="6" class="c0"/>
<circle cx="936" cy="1074" r="6" class="c0"/>
<circle cx="910" cy="652" r="6" class="c0"/>
<circle cx="1070" cy="282" r="6" class="c0"/>
<circle cx="1068" cy="418" r="6" class="c0"/>
<circle cx="540" cy="522" r="6" class="c0"/>
<circle cx="1076" cy="1100" r="6" class="c0"/>
<circle cx="660" cy="522" r="6" class="c0"/>
<circle cx="998" cy="732" r="6" class="c0"/>
<circle cx="670" cy="602" r="6" class="c0"/>
<circle cx="594" cy="522" r="6" class="c0"/>
<circle cx="1132" cy="1366" r="6" class="c0"/>
<circle cx="700" cy="634" r="6" class="c0"/>
<circle cx="770" cy="1248" r="6" class="c0"/>
<circle cx="1024" cy="452" r="6" class="c0"/>
<circle cx="922" cy="996" r="6" class="c0"/>
<circle cx="1146" cy="446" r="6" class="c0"/>
<circle cx="838" cy="966" r="6" class="c0"/>
<circle cx="960" cy="576" r="6" class="c0"/>
<circle cx="682" cy="546" r="6" class="c0"/>
<circle cx="954" cy="532" r="6" class="c0"/>
<circle cx="890" cy="1154" r="6" class="c0"/>
<circle cx="856" cy="1398" r="6" class="c0"/>
<circle cx="986" cy="1276" r="6" class="c0"/>
<circle cx="936" cy="1314" r="6" class="c0"/>
<circle cx="538" cy="592" r="6" class="c0"/>
<circle cx="1038" cy="1108" r="6" class="c0"/>
<circle cx="878" cy="468" r="6" class="c0"/>
<circle cx="1062" cy="722" r="6" class="c0"/>
<circle cx="1026" cy="1178" r="6" class="c0"/>
<circle cx="1134" cy="1328" r="6" class="c0"/>
<circle cx="746" cy="720" r="6" class="c0"/>
<circle cx="898" cy="566" r="6" class="c0"/>
<circle cx="802" cy="588" r="6" class="c0"/>
<circle cx="1140" cy="1376" r="6" class="c0"/>
<circle cx="494" cy="566" r="6" class="c0"/>
<circle cx="934" cy="1356" r="6" class="c0"/>
<circle cx="956" cy="1050" r="6" class="c0"/>
<circle cx="1056" cy="768" r="6" class="c0"/>
<circle cx="1100" cy="602" r="6" class="c0"/>
<circle cx="1134" cy="1350" r="6" class="c0"/>
<circle cx="936" cy="680" r="6" class="c0"/>
<circle cx="474" cy="492" r="6" class="c0"/>
<circle cx="938" cy="1188" r="6" class="c0"/>
<circle cx="808" cy="1260" r="6" class="c0"/>
<circle cx="1040" cy="336" r="6" class="c0"/>
<circle cx="850" cy="1312" r="6" class="c0"/>
<circle cx="884" cy="824" r="6" class="c0"/>
<circle cx="1048" cy="1248" r="6" class="c0"/>
<circle cx="1140" cy="412" r="6" class="c0"/>
<circle cx="574" cy="514" r="6" class="c0"/>
<circle cx="942" cy="1026" r="6" class="c0"/>
<circle cx="744" cy="682" r="6" class="c0"/>
<circle cx="864" cy="962" r="6" class="c0"/>
<circle cx="796" cy="742" r="6" class="c0"/>
<circle cx="1016" cy="1388" r="6" class="c0"/>
<circle cx="1172" cy="486" r="6" class="c0"/>
<circle cx="1106" cy="450" r="6" class="c0"/>
<circle cx="758" cy="780" r="6" class="c0"/>
<circle cx="844" cy="642" r="6" class="c0"/>
<circle cx="880" cy="1016" r="6" class="c0"/>
<circle cx="794" cy="1348" r="6" class="c0"/>
<circle cx="786" cy="1198" r="6" class="c0"/>
<circle cx="900" cy="1194" r="6" class="c0"/>
<circle cx="802" cy="1432" r="6" class="c0"/>
<circle cx="900" cy="616" r="6" class="c0"/>
<circle cx="1156" cy="526" r="6" class="c0"/>
<circle cx="1080" cy="1234" r="6" class="c0"/>
<circle cx="770" cy="712" r="6" class="c0"/>
<circle cx="870" cy="776" r="6" class="c0"/>
<circle cx="944" cy="948" r="6" class="c0"/>
<circle cx="702" cy="610" r="6" class="c0"/>
<circle cx="930" cy="386" r="6" class="c0"/>
<circle cx="986" cy="1030" r="6" class="c0"/>
<circle cx="1096" cy="1304" r="6" class="c0"/>
<circle cx="956" cy="314" r="6" class="c0"/>
<circle cx="976" cy="1332" r="6" class="c0"/>
<circle cx="962" cy="804" r="6" class="c0"/>
<circle cx="742" cy="562" r="6" class="c0"/>
<circle cx="854" cy="748" r="6" class="c0"/>
<circle cx="934" cy="468" r="6" class="c0"/>
<circle cx="1022" cy="872" r="6" class="c0"/>
<circle cx="966" cy="618" r="6" class="c0"/>
<circle cx="1056" cy="542" r="6" class="c0"/>
<circle cx="1018" cy="1432" r="6" class="c0"/>
<circle cx="974" cy="1118" r="6" class="c0"/>
<circle cx="1032" cy="324" r="6" class="c0"/>
<circle cx="1044" cy="1170" r="6" class="c0"/>
<circle cx="974" cy="284" r="6" class="c0"/>
<circle cx="872" cy="692" r="6" class="c0"/>
<circle cx="920" cy="1154" r="6" class="c0"/>
<circle cx="946" cy="820" r="6" class="c0"/>
<circle cx="924" cy="620" r="6" class="c0"/>
<circle cx="740" cy="1288" r="6" class="c0"/>
<circle cx="928" cy="1432" r="6" class="c0"/>
<circle cx="1062" cy="272" r="6" class="c0"/>
<circle cx="1070" cy="346" r="6" class="c0"/>
<circle cx="912" cy="576" r="6" class="c0"/>
<circle cx="816" cy="1316" r="6" class="c0"/>
<circle cx="772" cy="1152" r="6" class="c0"/>
<circle cx="858" cy="646" r="6" class="c0"/>
<circle cx="876" cy="956" r="6" class="c0"/>
<circle cx="1000" cy="1356" r="6" class="c0"/>
<circle cx="966" cy="1110" r="6" class="c0"/>
<circle cx="960" cy="1414" r="6" class="c0"/>
<circle cx="1050" cy="594" r="6" class="c0"/>
<circle cx="812" cy="1030" r="6" class="c0"/>
<circle cx="920" cy="1176" r="6" class="c0"/>
<circle cx="780" cy="752" r="6" class="c0"/>
<circle cx="784" cy="1334" r="6" class="c0"/>
<circle cx="878" cy="706" r="6" class="c0"/>
<circle cx="764" cy="1366" r="6" class="c0"/>
<circle cx="1026" cy="1236" r="6" class="c0"/>
<circle cx="1038" cy="1204" r="6" class="c0"/>
<circle cx="892" cy="1374" r="6" class="c0"/>
<circle cx="1026" cy="350" r="6" class="c0"/>
<circle cx="432" cy="558" r="6" class="c0"/>
<circle cx="956" cy="626" r="6" class="c0"/>
<circle cx="1030" cy="790" r="6" class="c0"/>
<circle cx="898" cy="406" r="6" class="c0"/>
<circle cx="1012" cy="984" r="6" class="c0"/>
<circle cx="762" cy="1338" r="6" class="c0"/>
<circle cx="1134" cy="1432" r="6" class="c0"/>
<circle cx="926" cy="506" r="6" class="c0"/>
<circle cx="538" cy="548" r="6" class="c0"/>
<circle cx="1070" cy="468" r="6" class="c0"/>
<circle cx="762" cy="1184" r="6" class="c0"/>
<circle cx="994" cy="1144" r="6" class="c0"/>
<circle cx="978" cy="410" r="6" class="c0"/>
<circle cx="984" cy="920" r="6" class="c0"/>
<circle cx="1008" cy="576" r="6" class="c0"/>
<circle cx="812" cy="630" r="6" class="c0"/>
<circle cx="738" cy="1318" r="6" class="c0"/>
<circle cx="900" cy="420" r="6" class="c0"/>
<circle cx="1096" cy="1274" r="6" class="c0"/>
<circle cx="908" cy="388" r="6" class="c0"/>
<circle cx="528" cy="540" r="6" class="c0"/>
<circle cx="1038" cy="1278" r="6" class="c0"/>
<circle cx="806" cy="800" r="6" class="c0"/>
<circle cx="918" cy="1402" r="6" class="c0"/>
<circle cx="482" cy="500" r="6" class="c0"/>
<circle cx="700" cy="844" r="6" class="c0"/>
<circle cx="1098" cy="436" r="6" class="c0"/>
<circle cx="832" cy="764" r="6" class="c0"/>
<circle cx="1006" cy="1018" r="6" class="c0"/>
<circle cx="886" cy="556" r="6" class="c0"/>
<circle cx="1150" cy="1432" r="6" class="c0"/>
<circle cx="532" cy="480" r="6" class="c0"/>
<circle cx="770" cy="844" r="6" class="c0"/>
<circle cx="780" cy="608" r="6" class="c0"/>
<circle cx="962" cy="656" r="6" class="c0"/>
<circle cx="936" cy="1092" r="6" class="c0"/>
<circle cx="982" cy="1260" r="6" class="c0"/>
<circle cx="1080" cy="432" r="6" class="c0"/>
<circle cx="730" cy="1384" r="6" class="c0"/>
<circle cx="822" cy="1040" r="6" class="c0"/>
<circle cx="934" cy="1276" r="6" class="c0"/>
<circle cx="770" cy="638" r="6" class="c0"/>
<circle cx="976" cy="962" r="6" class="c0"/>
<circle cx="1010" cy="1328" r="6" class="c0"/>
<circle cx="778" cy="1372" r="6" class="c0"/>
<circle cx="984" cy="1214" r="6" class="c0"/>
<circle cx="962" cy="1064" r="6" class="c0"/>
<circle cx="1076" cy="604" r="6" class="c0"/>
<circle cx="908" cy="350" r="6" class="c0"/>
<circle cx="866" cy="1322" r="6" class="c0"/>
<circle cx="1132" cy="1176" r="6" class="c0"/>
<circle cx="766" cy="1300" r="6" class="c0"/>
<circle cx="956" cy="1100" r="6" class="c0"/>
<circle cx="1102" cy="1342" r="6" class="c0"/>
<circle cx="836" cy="824" r="6" class="c0"/>
<circle cx="744" cy="784" r="6" class="c0"/>
<circle cx="956" cy="368" r="6" class="c0"/>
<circle cx="958" cy="904" r="6" class="c0"/>
<circle cx="1024" cy="1148" r="6" class="c0"/>
<circle cx="1060" cy="1216" r="6" class="c0"/>
<circle cx="1058" cy="478" r="6" class="c0"/>
<circle cx="936" cy="372" r="6" class="c0"/>
<circle cx="808" cy="1244" r="6" class="c0"/>
<circle cx="878" cy="1292" r="6" class="c0"/>
<circle cx="938" cy="1372" r="6" class="c0"/>
<circle cx="968" cy="972" r="6" class="c0"/>
<circle cx="808" cy="770" r="6" class="c0"/>
<circle cx="868" cy="422" r="6" class="c0"/>
<circle cx="842" cy="908" r="6" class="c0"/>
<circle cx="844" cy="1012" r="6" class="c0"/>
<circle cx="1166" cy="506" r="6" class="c0"/>
<circle cx="718" cy="776" r="6" class="c0"/>
<circle cx="868" cy="1122" r="6" class="c0"/>
<circle cx="946" cy="914" r="6" class="c0"/>
<circle cx="1008" cy="426" r="6" class="c0"/>
<circle cx="1128" cy="1418" r="6" class="c0"/>
<circle cx="946" cy="402" r="6" class="c0"/>
<circle cx="1024" cy="534" r="6" class="c0"/>
<circle cx="934" cy="656" r="6" class="c0"/>
<circle cx="882" cy="920" r="6" class="c0"/>
<circle cx="836" cy="1170" r="6" class="c0"/>
<circle cx="630" cy="570" r="6" class="c0"/>
<circle cx="812" cy="690" r="6" class="c0"/>
<circle cx="872" cy="594" r="6" class="c0"/>
<circle cx="812" cy="1096" r="6" class="c0"/>
<circle cx="896" cy="1074" r="6" class="c0"/>
<circle cx="1004" cy="784" r="6" class="c0"/>
<circle cx="1090" cy="1260" r="6" class="c0"/>
<circle cx="944" cy="1062" r="6" class="c0"/>
<circle cx="982" cy="342" r="6" class="c0"/>
<circle cx="766" cy="1220" r="6" class="c0"/>
<circle cx="736" cy="692" r="6" class="c0"/>
<circle cx="1072" cy="634" r="6" class="c0"/>
<circle cx="846" cy="976" r="6" class="c0"/>
<circle cx="752" cy="1216" r="6" class="c0"/>
<circle cx="1018" cy="754" r="6" class="c0"/>
<circle cx="842" cy="1324" r="6" class="c0"/>
<circle cx="704" cy="552" r="6" class="c0"/>
<circle cx="976" cy="562" r="6" class="c0"/>
<circle cx="1036" cy="592" r="6" class="c0"/>
<circle cx="944" cy="1348" r="6" class="c0"/>
<circle cx="834" cy="604" r="6" class="c0"/>
<circle cx="1086" cy="1320" r="6" class="c0"/>
<circle cx="982" cy="1310" r="6" class="c0"/>
<circle cx="1064" cy="1410" r="6" class="c0"/>
<circle cx="1118" cy="356" r="6" class="c0"/>
<circle cx="848" cy="1390" r="6" class="c0"/>
<circle cx="1044" cy="680" r="6" class="c0"/>
<circle cx="1022" cy="612" r="6" class="c0"/>
<circle cx="914" cy="1104" r="6" class="c0"/>
<circle cx="392" cy="548" r="6" class="c0"/>
<circle cx="830" cy="1356" r="6" class="c0"/>
<circle cx="1032" cy="544" r="6" class="c0"/>
<circle cx="1094" cy="1206" r="6" class="c0"/>
<circle cx="738" cy="732" r="6" class="c0"/>
<circle cx="942" cy="964" r="6" class="c0"/>
<circle cx="776" cy="574" r="6" class="c0"/>
<circle cx="1110" cy="614" r="6" class="c0"/>
<circle cx="938" cy="452" r="6" class="c0"/>
<circle cx="628" cy="548" r="6" class="c0"/>
<circle cx="972" cy="842" r="6" class="c0"/>
<circle cx="932" cy="982" r="6" class="c0"/>
<circle cx="980" cy="1132" r="6" class="c0"/>
<circle cx="1022" cy="1048" r="6" class="c0"/>
<circle cx="1048" cy="1074" r="6" class="c0"/>
<circle cx="748" cy="654" r="6" class="c0"/>
<circle cx="930" cy="442" r="6" class="c0"/>
<circle cx="1064" cy="598" r="6" class="c0"/>
<circle cx="594" cy="612" r="6" class="c0"/>
<circle cx="638" cy="618" r="6" class="c0"/>
<circle cx="1092" cy="544" r="6" class="c0"/>
<circle cx="996" cy="590" r="6" class="c0"/>
<circle cx="410" cy="520" r="6" class="c0"/>
<circle cx="796" cy="958" r="6" class="c0"/>
<circle cx="1072" cy="1418" r="6" class="c0"/>
<circle cx="902" cy="660" r="6" class="c0"/>
<circle cx="900" cy="1254" r="6" class="c0"/>
<circle cx="1072" cy="1114" r="6" class="c0"/>
<circle cx="790" cy="1362" r="6" class="c0"/>
<circle cx="878" cy="1038" r="6" class="c0"/>
<circle cx="1080" cy="626" r="6" class="c0"/>
<circle cx="1098" cy="298" r="6" class="c0"/>
<circle cx="914" cy="556" r="6" class="c0"/>
<circle cx="1100" cy="1430" r="6" class="c0"/>
<circle cx="884" cy="542" r="6" class="c0"/>
<circle cx="972" cy="814" r="6" class="c0"/>
<circle cx="1020" cy="644" r="6" class="c0"/>
<circle cx="848" cy="732" r="6" class="c0"/>
<circle cx="434" cy="526" r="6" class="c0"/>
<circle cx="424" cy="490" r="6" class="c0"/>
<circle cx="998" cy="990" r="6" class="c0"/>
<circle cx="1018" cy="1226" r="6" class="c0"/>
<circle cx="934" cy="1328" r="6" class="c0"/>
<circle cx="954" cy="564" r="6" class="c0"/>
<circle cx="780" cy="1394" r="6" class="c0"/>
<circle cx="884" cy="732" r="6" class="c0"/>
<circle cx="1082" cy="1088" r="6" class="c0"/>
<circle cx="480" cy="574" r="6" class="c0"/>
<circle cx="850" cy="1098" r="6" class="c0"/>
<circle cx="1048" cy="1342" r="6" class="c0"/>
<circle cx="976" cy="744" r="6" class="c0"/>
<circle cx="974" cy="1184" r="6" class="c0"/>
<circle cx="1136" cy="438" r="6" class="c0"/>
<circle cx="1016" cy="830" r="6" class="c0"/>
<circle cx="802" cy="880" r="6" class="c0"/>
<circle cx="916" cy="924" r="6" class="c0"/>
<circle cx="1070" cy="1224" r="6" class="c0"/>
<circle cx="998" cy="464" r="6" class="c0"/>
<circle cx="960" cy="1342" r="6" class="c0"/>
<circle cx="992" cy="1366" r="6" class="c0"/>
<circle cx="642" cy="514" r="6" class="c0"/>
<circle cx="442" cy="568" r="6" class="c0"/>
<circle cx="948" cy="1218" r="6" class="c0"/>
<circle cx="920" cy="864" r="6" class="c0"/>
<circle cx="900" cy="1128" r="6" class="c0"/>
<circle cx="1030" cy="1162" r="6" class="c0"/>
<circle cx="944" cy="1402" r="6" class="c0"/>
<circle cx="1044" cy="730" r="6" class="c0"/>
<circle cx="1086" cy="530" r="6" class="c0"/>
<circle cx="506" cy="538" r="6" class="c0"/>
<circle cx="954" cy="1432" r="6" class="c0"/>
<circle cx="892" cy="608" r="6" class="c0"/>
<circle cx="1140" cy="1168" r="6" class="c0"/>
<circle cx="950" cy="796" r="6" class="c0"/>
<circle cx="848" cy="1348" r="6" class="c0"/>
<circle cx="742" cy="1254" r="6" class="c0"/>
<circle cx="984" cy="266" r="6" class="c0"/>
<circle cx="530" cy="606" r="6" class="c0"/>
<circle cx="1024" cy="312" r="6" class="c0"/>
<circle cx="954" cy="812" r="6" class="c0"/>
<circle cx="930" cy="320" r="6" class="c0"/>
<circle cx="1030" cy="274" r="6" class="c0"/>
<circle cx="1118" cy="1268" r="6" class="c0"/>
<circle cx="1144" cy="376" r="6" class="c0"/>
<circle cx="880" cy="990" r="6" class="c0"/>
<circle cx="1088" cy="1034" r="6" class="c0"/>
<circle cx="1052" cy="634" r="6" class="c0"/>
<circle cx="862" cy="1080" r="6" class="c0"/>
<circle cx="588" cy="510" r="6" class="c0"/>
<circle cx="652" cy="594" r="6" class="c0"/>
<circle cx="778" cy="1264" r="6" class="c0"/>
<circle cx="970" cy="942" r="6" class="c0"/>
<circle cx="1018" cy="438" r="6" class="c0"/>
<circle cx="876" cy="816" r="6" class="c0"/>
<circle cx="870" cy="1250" r="6" class="c0"/>
<circle cx="720" cy="842" r="6" class="c0"/>
<circle cx="948" cy="1386" r="6" class="c0"/>
<circle cx="1086" cy="372" r="6" class="c0"/>
<circle cx="1122" cy="1322" r="6" class="c0"/>
<circle cx="934" cy="1206" r="6" class="c0"/>
<circle cx="396" cy="474" r="6" class="c0"/>
<circle cx="902" cy="1408" r="6" class="c0"/>
<circle cx="856" cy="1290" r="6" class="c0"/>
<circle cx="928" cy="688" r="6" class="c0"/>
<circle cx="1132" cy="422" r="6" class="c0"/>
<circle cx="972" cy="474" r="6" class="c0"/>
<circle cx="1074" cy="1364" r="6" class="c0"/>
<circle cx="950" cy="1018" r="6" class="c0"/>
<circle cx="1124" cy="1102" r="6" class="c0"/>
<circle cx="930" cy="1408" r="6" class="c0"/>
<circle cx="1102" cy="340" r="6" class="c0"/>
<circle cx="952" cy="1308" r="6" class="c0"/>
<circle cx="1012" cy="620" r="6" class="c0"/>
<circle cx="952" cy="940" r="6" class="c0"/>
<circle cx="1082" cy="474" r="6" class="c0"/>
<circle cx="840" cy="1214" r="6" class="c0"/>
<circle cx="910" cy="444" r="6" class="c0"/>
<circle cx="668" cy="624" r="6" class="c0"/>
<circle cx="1174" cy="472" r="6" class="c0"/>
<circle cx="1002" cy="512" r="6" class="c0"/>
<circle cx="1028" cy="1192" r="6" class="c0"/>
<circle cx="804" cy="848" r="6" class="c0"/>
<circle cx="938" cy="394" r="6" class="c0"/>
<circle cx="752" cy="792" r="6" class="c0"/>
<circle cx="1048" cy="1362" r="6" class="c0"/>
<circle cx="904" cy="1432" r="6" class="c0"/>
<circle cx="1100" cy="1370" r="6" class="c0"/>
<circle cx="1054" cy="1032" r="6" class="c0"/>
<circle cx="576" cy="554" r="6" class="c0"/>
<circle cx="770" cy="744" r="6" class="c0"/>
<circle cx="786" cy="1432" r="6" class="c0"/>
<circle cx="908" cy="1184" r="6" class="c0"/>
</svg>
