<?xml version="1.0" encoding="utf-8"?>
<svg xmlns="http://www.w3.org/2000/svg"
     xmlns:xlink="http://www.w3.org/1999/xlink" width="1920" height="1440" >

            <defs>
            <style type="text/css"><![CDATA[
circle {stroke: none;}
.c0 {fill: #FFFFFF;}
]]></style>
            </defs>
<rect x="0" y="0" width="1920" height="1440" fill="black"/>
<circle cx="1178" cy="540" r="14" class="c0"/>
<circle cx="924" cy="1082" r="12" class="c0"/>
<circle cx="1086" cy="490" r="12" class="c0"/>
<circle cx="1002" cy="440" r="12" class="c0"/>
<circle cx="802" cy="754" r="12" class="c0"/>
<circle cx="968" cy="1314" r="12" class="c0"/>
<circle cx="1038" cy="334" r="12" class="c0"/>
<circle cx="780" cy="1346" r="12" class="c0"/>
<circle cx="1020" cy="1408" r="12" class="c0"/>
<circle cx="810" cy="1238" r="12" class="c0"/>
<circle cx="1078" cy="1226" r="12" class="c0"/>
<circle cx="994" cy="1392" r="12" class="c0"/>
<circle cx="868" cy="1102" r="12" class="c0"/>
<circle cx="874" cy="680" r="12" class="c0"/>
<circle cx="918" cy="1042" r="12" class="c0"/>
<circle cx="720" cy="824" r="12" class="c0"/>
<circle cx="1016" cy="1148" r="12" class="c0"/>
<circle cx="882" cy="940" r="12" class="c0"/>
<circle cx="910" cy="1314" r="12" class="c0"/>
<circle cx="902" cy="658" r="12" class="c0"/>
<circle cx="942" cy="682" r="12" class="c0"/>
<circle cx="872" cy="1328" r="12" class="c0"/>
<circle cx="726" cy="582" r="12" class="c0"/>
<circle cx="978" cy="1162" r="12" class="c0"/>
<circle cx="798" cy="1302" r="12" class="c0"/>
<circle cx="1042" cy="822" r="12" class="c0"/>
<circle cx="930" cy="588" r="12" class="c0"/>
<circle cx="820" cy="1138" r="12" class="c0"/>
<circle cx="890" cy="1342" r="12" class="c0"/>
<circle cx="978" cy="1066" r="12" class="c0"/>
<circle cx="968" cy="952" r="12" class="c0"/>
<circle cx="1144" cy="606" r="12" class="c0"/>
<circle cx="1094" cy="1154" r="12" class="c0"/>
<circle cx="542" cy="418" r="12" class="c0"/>
<circle cx="900" cy="1028" r="12" class="c0"/>
<circle cx="914" cy="900" r="12" class="c0"/>
<circle cx="492" cy="352" r="12" class="c0"/>
<circle cx="960" cy="768" r="12" class="c0"/>
<circle cx="866" cy="1002" r="12" class="c0"/>
<circle cx="874" cy="782" r="12" class="c0"/>
<circle cx="836" cy="1388" r="12" class="c0"/>
<circle cx="486" cy="308" r="12" class="c0"/>
<circle cx="614" cy="478" r="12" class="c0"/>
<circle cx="1068" cy="428" r="12" class="c0"/>
<circle cx="832" cy="678" r="12" class="c0"/>
<circle cx="872" cy="808" r="12" class="c0"/>
<circle cx="906" cy="412" r="12" class="c0"/>
<circle cx="926" cy="970" r="12" class="c0"/>
<circle cx="974" cy="816" r="12" class="c0"/>
<circle cx="1114" cy="398" r="12" class="c0"/>
<circle cx="1012" cy="1226" r="12" class="c0"/>
<circle cx="1014" cy="398" r="12" class="c0"/>
<circle cx="1004" cy="652" r="12" class="c0"/>
<circle cx="646" cy="528" r="12" class="c0"/>
<circle cx="1116" cy="1142" r="12" class="c0"/>
<circle cx="950" cy="534" r="12" class="c0"/>
<circle cx="806" cy="662" r="12" class="c0"/>
<circle cx="1110" cy="632" r="12" class="c0"/>
<circle cx="1018" cy="1256" r="12" class="c0"/>
<circle cx="870" cy="1374" r="12" class="c0"/>
<circle cx="998" cy="1360" r="12" class="c0"/>
<circle cx="826" cy="1024" r="12" class="c0"/>
<circle cx="924" cy="462" r="10" class="c0"/>
<circle cx="1042" cy="534" r="10" class="c0"/>
<circle cx="706" cy="780" r="10" class="c0"/>
<circle cx="978" cy="862" r="10" class="c0"/>
<circle cx="940" cy="404" r="10" class="c0"/>
<circle cx="852" cy="1346" r="10" class="c0"/>
<circle cx="840" cy="1186" r="10" class="c0"/>
<circle cx="1150" cy="490" r="10" class="c0"/>
<circle cx="510" cy="380" r="10" class="c0"/>
<circle cx="1048" cy="1322" r="10" class="c0"/>
<circle cx="1014" cy="1032" r="10" class="c0"/>
<circle cx="1042" cy="1064" r="10" class="c0"/>
<circle cx="818" cy="1316" r="10" class="c0"/>
<circle cx="1060" cy="376" r="10" class="c0"/>
<circle cx="976" cy="632" r="10" class="c0"/>
<circle cx="766" cy="766" r="10" class="c0"/>
<circle cx="930" cy="1246" r="10" class="c0"/>
<circle cx="992" cy="1240" r="10" class="c0"/>
<circle cx="1100" cy="1330" r="10" class="c0"/>
<circle cx="834" cy="628" r="10" class="c0"/>
<circle cx="960" cy="992" r="10" class="c0"/>
<circle cx="862" cy="634" r="10" class="c0"/>
<circle cx="858" cy="1260" r="10" class="c0"/>
<circle cx="840" cy="912" r="10" class="c0"/>
<circle cx="1154" cy="1414" r="10" class="c0"/>
<circle cx="578" cy="418" r="10" class="c0"/>
<circle cx="598" cy="462" r="10" class="c0"/>
<circle cx="754" cy="722" r="10" class="c0"/>
<circle cx="610" cy="432" r="10" class="c0"/>
<circle cx="1108" cy="1092" r="10" class="c0"/>
<circle cx="1108" cy="1384" r="10" class="c0"/>
<circle cx="1054" cy="1244" r="10" class="c0"/>
<circle cx="794" cy="1002" r="10" class="c0"/>
<circle cx="890" cy="1284" r="10" class="c0"/>
<circle cx="1138" cy="1398" r="10" class="c0"/>
<circle cx="1072" cy="572" r="10" class="c0"/>
<circle cx="966" cy="1136" r="10" class="c0"/>
<circle cx="836" cy="940" r="10" class="c0"/>
<circle cx="1082" cy="1402" r="10" class="c0"/>
<circle cx="1116" cy="1422" r="10" class="c0"/>
<circle cx="1068" cy="706" r="10" class="c0"/>
<circle cx="1068" cy="1336" r="10" class="c0"/>
<circle cx="1082" cy="1364" r="10" class="c0"/>
<circle cx="1092" cy="1262" r="10" class="c0"/>
<circle cx="826" cy="886" r="10" class="c0"/>
<circle cx="962" cy="1080" r="10" class="c0"/>
<circle cx="932" cy="836" r="10" class="c0"/>
<circle cx="1032" cy="506" r="10" class="c0"/>
<circle cx="968" cy="492" r="10" class="c0"/>
<circle cx="822" cy="820" r="10" class="c0"/>
<circle cx="1000" cy="1048" r="10" class="c0"/>
<circle cx="916" cy="1196" r="10" class="c0"/>
<circle cx="940" cy="916" r="10" class="c0"/>
<circle cx="764" cy="744" r="10" class="c0"/>
<circle cx="1074" cy="630" r="10" class="c0"/>
<circle cx="840" cy="1090" r="10" class="c0"/>
<circle cx="872" cy="1172" r="10" class="c0"/>
<circle cx="1010" cy="610" r="10" class="c0"/>
<circle cx="730" cy="730" r="10" class="c0"/>
<circle cx="1118" cy="1192" r="10" class="c0"/>
<circle cx="1058" cy="1216" r="10" class="c0"/>
<circle cx="554" cy="494" r="10" class="c0"/>
<circle cx="928" cy="1400" r="10" class="c0"/>
<circle cx="1162" cy="588" r="10" class="c0"/>
<circle cx="568" cy="470" r="10" class="c0"/>
<circle cx="920" cy="426" r="10" class="c0"/>
<circle cx="1088" cy="528" r="10" class="c0"/>
<circle cx="1084" cy="600" r="10" class="c0"/>
<circle cx="1004" cy="1108" r="10" class="c0"/>
<circle cx="816" cy="1096" r="10" class="c0"/>
<circle cx="1000" cy="696" r="10" class="c0"/>
<circle cx="1088" cy="334" r="10" class="c0"/>
<circle cx="798" cy="1212" r="10" class="c0"/>
<circle cx="770" cy="624" r="10" class="c0"/>
<circle cx="874" cy="850" r="10" class="c0"/>
<circle cx="910" cy="824" r="10" class="c0"/>
<circle cx="934" cy="1318" r="10" class="c0"/>
<circle cx="940" cy="788" r="10" class="c0"/>
<circle cx="1048" cy="476" r="10" class="c0"/>
<circle cx="842" cy="650" r="10" class="c0"/>
<circle cx="698" cy="528" r="10" class="c0"/>
<circle cx="910" cy="1140" r="10" class="c0"/>
<circle cx="834" cy="1230" r="10" class="c0"/>
<circle cx="962" cy="732" r="10" class="c0"/>
<circle cx="842" cy="846" r="10" class="c0"/>
<circle cx="1018" cy="1290" r="10" class="c0"/>
<circle cx="956" cy="928" r="10" class="c0"/>
<circle cx="922" cy="748" r="10" class="c0"/>
<circle cx="968" cy="1356" r="10" class="c0"/>
<circle cx="642" cy="494" r="10" class="c0"/>
<circle cx="790" cy="614" r="10" class="c0"/>
<circle cx="788" cy="1272" r="10" class="c0"/>
<circle cx="844" cy="780" r="10" class="c0"/>
<circle cx="978" cy="784" r="10" class="c0"/>
<circle cx="1146" cy="512" r="10" class="c0"/>
<circle cx="534" cy="448" r="10" class="c0"/>
<circle cx="1114" cy="520" r="10" class="c0"/>
<circle cx="804" cy="912" r="10" class="c0"/>
<circle cx="968" cy="554" r="10" class="c0"/>
<circle cx="890" cy="1064" r="10" class="c0"/>
<circle cx="1114" cy="560" r="10" class="c0"/>
<circle cx="982" cy="1202" r="10" class="c0"/>
<circle cx="1048" cy="794" r="10" class="c0"/>
<circle cx="956" cy="698" r="10" class="c0"/>
<circle cx="886" cy="990" r="10" class="c0"/>
<circle cx="1054" cy="502" r="10" class="c0"/>
<circle cx="1046" cy="676" r="10" class="c0"/>
<circle cx="1084" cy="1094" r="10" class="c0"/>
<circle cx="1014" cy="1090" r="10" class="c0"/>
<circle cx="976" cy="1004" r="10" class="c0"/>
<circle cx="890" cy="698" r="10" class="c0"/>
<circle cx="998" cy="368" r="10" class="c0"/>
<circle cx="938" cy="1152" r="10" class="c0"/>
<circle cx="1034" cy="736" r="10" class="c0"/>
<circle cx="982" cy="720" r="10" class="c0"/>
<circle cx="954" cy="1186" r="10" class="c0"/>
<circle cx="592" cy="502" r="10" class="c0"/>
<circle cx="824" cy="1288" r="10" class="c0"/>
<circle cx="916" cy="704" r="10" class="c0"/>
<circle cx="906" cy="1214" r="10" class="c0"/>
<circle cx="1174" cy="478" r="10" class="c0"/>
<circle cx="910" cy="1424" r="10" class="c0"/>
<circle cx="1130" cy="1332" r="10" class="c0"/>
<circle cx="1008" cy="804" r="10" class="c0"/>
<circle cx="900" cy="720" r="10" class="c0"/>
<circle cx="814" cy="1050" r="10" class="c0"/>
<circle cx="768" cy="592" r="10" class="c0"/>
<circle cx="1146" cy="458" r="10" class="c0"/>
<circle cx="1028" cy="620" r="10" class="c0"/>
<circle cx="1014" cy="496" r="10" class="c0"/>
<circle cx="1120" cy="346" r="10" class="c0"/>
<circle cx="1024" cy="1320" r="10" class="c0"/>
<circle cx="704" cy="742" r="10" class="c0"/>
<circle cx="776" cy="1388" r="10" class="c0"/>
<circle cx="862" cy="1216" r="10" class="c0"/>
<circle cx="1104" cy="1274" r="10" class="c0"/>
<circle cx="1028" cy="1108" r="10" class="c0"/>
<circle cx="1024" cy="298" r="10" class="c0"/>
<circle cx="830" cy="1108" r="10" class="c0"/>
<circle cx="670" cy="814" r="10" class="c0"/>
<circle cx="852" cy="694" r="10" class="c0"/>
<circle cx="876" cy="910" r="10" class="c0"/>
<circle cx="840" cy="1048" r="10" class="c0"/>
<circle cx="1056" cy="1120" r="10" class="c0"/>
<circle cx="876" cy="1426" r="10" class="c0"/>
<circle cx="972" cy="678" r="10" class="c0"/>
<circle cx="1122" cy="1286" r="10" class="c0"/>
<circle cx="816" cy="778" r="10" class="c0"/>
<circle cx="994" cy="1314" r="10" class="c0"/>
<circle cx="846" cy="738" r="10" class="c0"/>
<circle cx="906" cy="628" r="10" class="c0"/>
<circle cx="918" cy="1366" r="10" class="c0"/>
<circle cx="672" cy="550" r="10" class="c0"/>
<circle cx="948" cy="1382" r="10" class="c0"/>
<circle cx="992" cy="482" r="10" class="c0"/>
<circle cx="936" cy="946" r="10" class="c0"/>
<circle cx="952" cy="442" r="10" class="c0"/>
<circle cx="762" cy="796" r="10" class="c0"/>
<circle cx="568" cy="508" r="10" class="c0"/>
<circle cx="886" cy="1232" r="10" class="c0"/>
<circle cx="1072" cy="662" r="10" class="c0"/>
<circle cx="970" cy="456" r="10" class="c0"/>
<circle cx="1088" cy="1120" r="10" class="c0"/>
<circle cx="814" cy="1268" r="10" class="c0"/>
<circle cx="1174" cy="444" r="10" class="c0"/>
<circle cx="1068" cy="1278" r="10" class="c0"/>
<circle cx="976" cy="412" r="10" class="c0"/>
<circle cx="1034" cy="1198" r="10" class="c0"/>
<circle cx="890" cy="754" r="10" class="c0"/>
<circle cx="926" cy="996" r="10" class="c0"/>
<circle cx="680" cy="508" r="10" class="c0"/>
<circle cx="808" cy="626" r="10" class="c0"/>
<circle cx="992" cy="892" r="10" class="c0"/>
<circle cx="1116" cy="456" r="10" class="c0"/>
<circle cx="506" cy="336" r="10" class="c0"/>
<circle cx="668" cy="492" r="10" class="c0"/>
<circle cx="814" cy="1424" r="10" class="c0"/>
<circle cx="1018" cy="772" r="10" class="c0"/>
<circle cx="986" cy="836" r="10" class="c0"/>
<circle cx="862" cy="836" r="10" class="c0"/>
<circle cx="950" cy="894" r="10" class="c0"/>
<circle cx="956" cy="1406" r="10" class="c0"/>
<circle cx="738" cy="676" r="10" class="c0"/>
<circle cx="1056" cy="1362" r="10" class="c0"/>
<circle cx="1036" cy="378" r="10" class="c0"/>
<circle cx="1050" cy="588" r="10" class="c0"/>
<circle cx="820" cy="604" r="10" class="c0"/>
<circle cx="954" cy="1014" r="10" class="c0"/>
<circle cx="1022" cy="688" r="10" class="c0"/>
<circle cx="1016" cy="868" r="10" class="c0"/>
<circle cx="920" cy="874" r="10" class="c0"/>
<circle cx="818" cy="738" r="10" class="c0"/>
<circle cx="1088" cy="1294" r="10" class="c0"/>
<circle cx="776" cy="676" r="10" class="c0"/>
<circle cx="1028" cy="1368" r="10" class="c0"/>
<circle cx="1042" cy="412" r="10" class="c0"/>
<circle cx="784" cy="640" r="10" class="c0"/>
<circle cx="704" cy="810" r="10" class="c0"/>
<circle cx="734" cy="784" r="10" class="c0"/>
<circle cx="872" cy="974" r="10" class="c0"/>
<circle cx="776" cy="1318" r="10" class="c0"/>
<circle cx="892" cy="1382" r="10" class="c0"/>
<circle cx="1080" cy="392" r="10" class="c0"/>
<circle cx="704" cy="570" r="10" class="c0"/>
<circle cx="712" cy="546" r="8" class="c0"/>
<circle cx="944" cy="556" r="8" class="c0"/>
<circle cx="950" cy="1282" r="8" class="c0"/>
<circle cx="812" cy="1200" r="8" class="c0"/>
<circle cx="524" cy="406" r="8" class="c0"/>
<circle cx="1004" cy="854" r="8" class="c0"/>
<circle cx="974" cy="1262" r="8" class="c0"/>
<circle cx="1070" cy="1106" r="8" class="c0"/>
<circle cx="710" cy="608" r="8" class="c0"/>
<circle cx="808" cy="1388" r="8" class="c0"/>
<circle cx="984" cy="342" r="8" class="c0"/>
<circle cx="800" cy="810" r="8" class="c0"/>
<circle cx="850" cy="1120" r="8" class="c0"/>
<circle cx="946" cy="814" r="8" class="c0"/>
<circle cx="796" cy="944" r="8" class="c0"/>
<circle cx="956" cy="650" r="8" class="c0"/>
<circle cx="1176" cy="508" r="8" class="c0"/>
<circle cx="1160" cy="420" r="8" class="c0"/>
<circle cx="894" cy="1262" r="8" class="c0"/>
<circle cx="862" cy="1078" r="8" class="c0"/>
<circle cx="952" cy="586" r="8" class="c0"/>
<circle cx="902" cy="438" r="8" class="c0"/>
<circle cx="870" cy="710" r="8" class="c0"/>
<circle cx="994" cy="980" r="8" class="c0"/>
<circle cx="1018" cy="326" r="8" class="c0"/>
<circle cx="998" cy="740" r="8" class="c0"/>
<circle cx="730" cy="656" r="8" class="c0"/>
<circle cx="1112" cy="668" r="8" class="c0"/>
<circle cx="820" cy="706" r="8" class="c0"/>
<circle cx="914" cy="576" r="8" class="c0"/>
<circle cx="1058" cy="774" r="8" class="c0"/>
<circle cx="1008" cy="344" r="8" class="c0"/>
<circle cx="952" cy="1040" r="8" class="c0"/>
<circle cx="814" cy="848" r="8" class="c0"/>
<circle cx="932" cy="546" r="8" class="c0"/>
<circle cx="872" cy="1050" r="8" class="c0"/>
<circle cx="796" cy="1028" r="8" class="c0"/>
<circle cx="1094" cy="1184" r="8" class="c0"/>
<circle cx="910" cy="852" r="8" class="c0"/>
<circle cx="1054" cy="1390" r="8" class="c0"/>
<circle cx="982" cy="1294" r="8" class="c0"/>
<circle cx="838" cy="1310" r="8" class="c0"/>
<circle cx="1118" cy="376" r="8" class="c0"/>
<circle cx="974" cy="320" r="8" class="c0"/>
<circle cx="842" cy="988" r="8" class="c0"/>
<circle cx="926" cy="564" r="8" class="c0"/>
<circle cx="1062" cy="1186" r="8" class="c0"/>
<circle cx="1068" cy="322" r="8" class="c0"/>
<circle cx="844" cy="868" r="8" class="c0"/>
<circle cx="978" cy="746" r="8" class="c0"/>
<circle cx="800" cy="1186" r="8" class="c0"/>
<circle cx="984" cy="1090" r="8" class="c0"/>
<circle cx="892" cy="860" r="8" class="c0"/>
<circle cx="1092" cy="364" r="8" class="c0"/>
<circle cx="1088" cy="676" r="8" class="c0"/>
<circle cx="1028" cy="566" r="8" class="c0"/>
<circle cx="900" cy="782" r="8" class="c0"/>
<circle cx="848" cy="1014" r="8" class="c0"/>
<circle cx="790" cy="572" r="8" class="c0"/>
<circle cx="1030" cy="442" r="8" class="c0"/>
<circle cx="900" cy="1172" r="8" class="c0"/>
<circle cx="1060" cy="742" r="8" class="c0"/>
<circle cx="830" cy="750" r="8" class="c0"/>
<circle cx="926" cy="1176" r="8" class="c0"/>
<circle cx="1160" cy="554" r="8" class="c0"/>
<circle cx="752" cy="608" r="8" class="c0"/>
<circle cx="1018" cy="544" r="8" class="c0"/>
<circle cx="926" cy="1226" r="8" class="c0"/>
<circle cx="862" cy="612" r="8" class="c0"/>
<circle cx="868" cy="872" r="8" class="c0"/>
<circle cx="940" cy="506" r="8" class="c0"/>
<circle cx="996" cy="1422" r="8" class="c0"/>
<circle cx="856" cy="670" r="8" class="c0"/>
<circle cx="1050" cy="614" r="8" class="c0"/>
<circle cx="1118" cy="432" r="8" class="c0"/>
<circle cx="846" cy="1422" r="8" class="c0"/>
<circle cx="1000" cy="416" r="8" class="c0"/>
<circle cx="948" cy="1060" r="8" class="c0"/>
<circle cx="926" cy="720" r="8" class="c0"/>
<circle cx="980" cy="1406" r="8" class="c0"/>
<circle cx="1030" cy="654" r="8" class="c0"/>
<circle cx="780" cy="1252" r="8" class="c0"/>
<circle cx="918" cy="508" r="8" class="c0"/>
<circle cx="1004" cy="584" r="8" class="c0"/>
<circle cx="1094" cy="574" r="8" class="c0"/>
<circle cx="794" cy="1360" r="8" class="c0"/>
<circle cx="800" cy="862" r="8" class="c0"/>
<circle cx="950" cy="1230" r="8" class="c0"/>
<circle cx="1106" cy="422" r="8" class="c0"/>
<circle cx="1094" cy="434" r="8" class="c0"/>
<circle cx="896" cy="916" r="8" class="c0"/>
<circle cx="1008" cy="1010" r="8" class="c0"/>
<circle cx="1044" cy="1402" r="8" class="c0"/>
<circle cx="976" cy="516" r="8" class="c0"/>
<circle cx="984" cy="590" r="8" class="c0"/>
<circle cx="958" cy="1118" r="8" class="c0"/>
<circle cx="922" cy="390" r="8" class="c0"/>
<circle cx="762" cy="698" r="8" class="c0"/>
<circle cx="970" cy="354" r="8" class="c0"/>
<circle cx="1036" cy="1386" r="8" class="c0"/>
<circle cx="728" cy="532" r="8" class="c0"/>
<circle cx="1126" cy="656" r="8" class="c0"/>
<circle cx="992" cy="934" r="8" class="c0"/>
<circle cx="1072" cy="1156" r="8" class="c0"/>
<circle cx="904" cy="950" r="8" class="c0"/>
<circle cx="814" cy="972" r="8" class="c0"/>
<circle cx="734" cy="626" r="8" class="c0"/>
<circle cx="954" cy="378" r="8" class="c0"/>
<circle cx="972" cy="890" r="8" class="c0"/>
<circle cx="504" cy="400" r="8" class="c0"/>
<circle cx="1150" cy="394" r="8" class="c0"/>
<circle cx="976" cy="654" r="8" class="c0"/>
<circle cx="1082" cy="1202" r="8" class="c0"/>
<circle cx="942" cy="1106" r="8" class="c0"/>
<circle cx="674" cy="570" r="8" class="c0"/>
<circle cx="720" cy="708" r="8" class="c0"/>
<circle cx="918" cy="1288" r="8" class="c0"/>
<circle cx="1110" cy="1298" r="8" class="c0"/>
<circle cx="898" cy="882" r="8" class="c0"/>
<circle cx="876" cy="652" r="8" class="c0"/>
<circle cx="982" cy="1224" r="8" class="c0"/>
<circle cx="948" cy="486" r="8" class="c0"/>
<circle cx="922" cy="1018" r="8" class="c0"/>
<circle cx="1014" cy="724" r="8" class="c0"/>
<circle cx="1022" cy="424" r="8" class="c0"/>
<circle cx="1136" cy="1184" r="8" class="c0"/>
<circle cx="920" cy="1270" r="8" class="c0"/>
<circle cx="1128" cy="472" r="8" class="c0"/>
<circle cx="986" cy="536" r="8" class="c0"/>
<circle cx="864" cy="1282" r="8" class="c0"/>
<circle cx="976" cy="1028" r="8" class="c0"/>
<circle cx="886" cy="1312" r="8" class="c0"/>
<circle cx="1140" cy="1370" r="8" class="c0"/>
<circle cx="1142" cy="548" r="8" class="c0"/>
<circle cx="864" cy="1196" r="8" class="c0"/>
<circle cx="1158" cy="644" r="8" class="c0"/>
<circle cx="1048" cy="304" r="8" class="c0"/>
<circle cx="1042" cy="1266" r="8" class="c0"/>
<circle cx="848" cy="1242" r="8" class="c0"/>
<circle cx="990" cy="618" r="8" class="c0"/>
<circle cx="688" cy="486" r="8" class="c0"/>
<circle cx="1022" cy="1056" r="8" class="c0"/>
<circle cx="954" cy="1248" r="8" class="c0"/>
<circle cx="622" cy="528" r="8" class="c0"/>
<circle cx="890" cy="1184" r="8" class="c0"/>
<circle cx="830" cy="718" r="8" class="c0"/>
<circle cx="566" cy="442" r="8" class="c0"/>
<circle cx="964" cy="1272" r="8" class="c0"/>
<circle cx="750" cy="578" r="8" class="c0"/>
<circle cx="988" cy="1274" r="8" class="c0"/>
<circle cx="1106" cy="1234" r="8" class="c0"/>
<circle cx="908" cy="1244" r="8" class="c0"/>
<circle cx="1024" cy="470" r="8" class="c0"/>
<circle cx="948" cy="746" r="8" class="c0"/>
<circle cx="1064" cy="602" r="8" class="c0"/>
<circle cx="972" cy="576" r="8" class="c0"/>
<circle cx="798" cy="888" r="8" class="c0"/>
<circle cx="948" cy="1210" r="8" class="c0"/>
<circle cx="960" cy="1294" r="8" class="c0"/>
<circle cx="994" cy="570" r="8" class="c0"/>
<circle cx="984" cy="964" r="8" class="c0"/>
<circle cx="1020" cy="1344" r="8" class="c0"/>
<circle cx="686" cy="584" r="8" class="c0"/>
<circle cx="740" cy="708" r="8" class="c0"/>
<circle cx="990" cy="766" r="8" class="c0"/>
<circle cx="820" cy="1368" r="8" class="c0"/>
<circle cx="844" cy="1366" r="8" class="c0"/>
<circle cx="1014" cy="1172" r="8" class="c0"/>
<circle cx="754" cy="638" r="8" class="c0"/>
<circle cx="916" cy="772" r="8" class="c0"/>
<circle cx="1128" cy="500" r="8" class="c0"/>
<circle cx="1184" cy="462" r="8" class="c0"/>
<circle cx="644" cy="576" r="8" class="c0"/>
<circle cx="986" cy="1120" r="8" class="c0"/>
<circle cx="932" cy="636" r="8" class="c0"/>
<circle cx="958" cy="870" r="8" class="c0"/>
<circle cx="798" cy="1254" r="8" class="c0"/>
<circle cx="906" cy="1402" r="8" class="c0"/>
<circle cx="804" cy="1114" r="8" class="c0"/>
<circle cx="984" cy="916" r="8" class="c0"/>
<circle cx="1044" cy="642" r="8" class="c0"/>
<circle cx="676" cy="780" r="8" class="c0"/>
<circle cx="950" cy="468" r="8" class="c0"/>
<circle cx="998" cy="524" r="8" class="c0"/>
<circle cx="802" cy="1062" r="8" class="c0"/>
<circle cx="958" cy="836" r="8" class="c0"/>
<circle cx="1112" cy="1116" r="8" class="c0"/>
<circle cx="894" cy="814" r="8" class="c0"/>
<circle cx="1078" cy="1422" r="8" class="c0"/>
<circle cx="1116" cy="584" r="8" class="c0"/>
<circle cx="1002" cy="1130" r="8" class="c0"/>
<circle cx="1154" cy="438" r="8" class="c0"/>
<circle cx="1056" cy="1080" r="8" class="c0"/>
<circle cx="808" cy="878" r="8" class="c0"/>
<circle cx="1046" cy="1090" r="8" class="c0"/>
<circle cx="1002" cy="1184" r="8" class="c0"/>
<circle cx="1106" cy="482" r="8" class="c0"/>
<circle cx="812" cy="1340" r="8" class="c0"/>
<circle cx="1114" cy="1344" r="8" class="c0"/>
<circle cx="636" cy="554" r="8" class="c0"/>
<circle cx="1036" cy="1024" r="8" class="c0"/>
<circle cx="1096" cy="1080" r="8" class="c0"/>
<circle cx="688" cy="826" r="8" class="c0"/>
<circle cx="786" cy="784" r="8" class="c0"/>
<circle cx="1050" cy="452" r="8" class="c0"/>
<circle cx="1186" cy="494" r="8" class="c0"/>
<circle cx="1032" cy="596" r="8" class="c0"/>
<circle cx="900" cy="1094" r="8" class="c0"/>
<circle cx="1014" cy="844" r="8" class="c0"/>
<circle cx="940" cy="1416" r="8" class="c0"/>
<circle cx="850" cy="1154" r="8" class="c0"/>
<circle cx="1040" cy="704" r="8" class="c0"/>
<circle cx="802" cy="686" r="8" class="c0"/>
<circle cx="1048" cy="764" r="8" class="c0"/>
<circle cx="1116" cy="1320" r="8" class="c0"/>
<circle cx="1140" cy="582" r="8" class="c0"/>
<circle cx="1092" cy="1348" r="8" class="c0"/>
<circle cx="516" cy="426" r="8" class="c0"/>
<circle cx="1074" cy="354" r="8" class="c0"/>
<circle cx="788" cy="702" r="8" class="c0"/>
<circle cx="876" cy="1124" r="8" class="c0"/>
<circle cx="1092" cy="410" r="8" class="c0"/>
<circle cx="1112" cy="1166" r="8" class="c0"/>
<circle cx="880" cy="1252" r="8" class="c0"/>
<circle cx="798" cy="1140" r="8" class="c0"/>
<circle cx="1134" cy="440" r="8" class="c0"/>
<circle cx="886" cy="1148" r="8" class="c0"/>
<circle cx="914" cy="1118" r="8" class="c0"/>
<circle cx="984" cy="380" r="8" class="c0"/>
<circle cx="850" cy="814" r="8" class="c0"/>
<circle cx="1066" cy="514" r="8" class="c0"/>
<circle cx="848" cy="1290" r="8" class="c0"/>
<circle cx="1034" cy="1128" r="8" class="c0"/>
<circle cx="928" cy="668" r="8" class="c0"/>
<circle cx="996" cy="674" r="8" class="c0"/>
<circle cx="824" cy="862" r="8" class="c0"/>
<circle cx="968" cy="604" r="8" class="c0"/>
<circle cx="1126" cy="536" r="8" class="c0"/>
<circle cx="932" cy="1338" r="8" class="c0"/>
<circle cx="794" cy="1428" r="8" class="c0"/>
<circle cx="920" cy="648" r="8" class="c0"/>
<circle cx="928" cy="806" r="8" class="c0"/>
<circle cx="810" cy="800" r="8" class="c0"/>
<circle cx="754" cy="818" r="8" class="c0"/>
<circle cx="880" cy="622" r="8" class="c0"/>
<circle cx="736" cy="764" r="8" class="c0"/>
<circle cx="1088" cy="454" r="8" class="c0"/>
<circle cx="770" cy="654" r="8" class="c0"/>
<circle cx="902" cy="1000" r="8" class="c0"/>
<circle cx="894" cy="838" r="8" class="c0"/>
<circle cx="952" cy="624" r="8" class="c0"/>
<circle cx="848" cy="886" r="8" class="c0"/>
<circle cx="1038" cy="1296" r="8" class="c0"/>
<circle cx="1136" cy="410" r="8" class="c0"/>
<circle cx="884" cy="604" r="8" class="c0"/>
<circle cx="944" cy="1260" r="8" class="c0"/>
<circle cx="972" cy="436" r="8" class="c0"/>
<circle cx="974" cy="390" r="8" class="c0"/>
<circle cx="788" cy="978" r="8" class="c0"/>
<circle cx="740" cy="804" r="8" class="c0"/>
<circle cx="872" cy="1404" r="8" class="c0"/>
<circle cx="928" cy="1130" r="8" class="c0"/>
<circle cx="730" cy="696" r="8" class="c0"/>
<circle cx="894" cy="474" r="8" class="c0"/>
<circle cx="1074" cy="1058" r="8" class="c0"/>
<circle cx="880" cy="890" r="8" class="c0"/>
<circle cx="832" cy="1204" r="8" class="c0"/>
<circle cx="1030" cy="716" r="8" class="c0"/>
<circle cx="1000" cy="1336" r="8" class="c0"/>
<circle cx="862" cy="1310" r="8" class="c0"/>
<circle cx="818" cy="1182" r="8" class="c0"/>
<circle cx="1020" cy="362" r="8" class="c0"/>
<circle cx="1120" cy="1362" r="8" class="c0"/>
<circle cx="1054" cy="350" r="8" class="c0"/>
<circle cx="1008" cy="554" r="8" class="c0"/>
<circle cx="1050" cy="1040" r="8" class="c0"/>
<circle cx="944" cy="1302" r="8" class="c0"/>
<circle cx="936" cy="732" r="8" class="c0"/>
<circle cx="916" cy="940" r="8" class="c0"/>
<circle cx="932" cy="612" r="8" class="c0"/>
<circle cx="1044" cy="432" r="8" class="c0"/>
<circle cx="1002" cy="1162" r="8" class="c0"/>
<circle cx="1042" cy="1228" r="8" class="c0"/>
<circle cx="970" cy="1380" r="8" class="c0"/>
<circle cx="686" cy="764" r="8" class="c0"/>
<circle cx="1022" cy="522" r="8" class="c0"/>
<circle cx="826" cy="1160" r="8" class="c0"/>
<circle cx="654" cy="480" r="8" class="c0"/>
<circle cx="954" cy="1344" r="8" class="c0"/>
<circle cx="1132" cy="1308" r="8" class="c0"/>
<circle cx="850" cy="1324" r="8" class="c0"/>
<circle cx="880" cy="726" r="8" class="c0"/>
<circle cx="1032" cy="1044" r="8" class="c0"/>
<circle cx="858" cy="952" r="8" class="c0"/>
<circle cx="800" cy="594" r="8" class="c0"/>
<circle cx="876" cy="1020" r="8" class="c0"/>
<circle cx="1130" cy="364" r="8" class="c0"/>
<circle cx="824" cy="994" r="8" class="c0"/>
<circle cx="780" cy="728" r="8" class="c0"/>
<circle cx="956" cy="416" r="8" class="c0"/>
<circle cx="794" cy="1332" r="8" class="c0"/>
<circle cx="1056" cy="652" r="8" class="c0"/>
<circle cx="1062" cy="554" r="8" class="c0"/>
<circle cx="854" cy="928" r="8" class="c0"/>
<circle cx="684" cy="802" r="8" class="c0"/>
<circle cx="942" cy="984" r="8" class="c0"/>
<circle cx="926" cy="930" r="8" class="c0"/>
<circle cx="894" cy="1120" r="8" class="c0"/>
<circle cx="1034" cy="1430" r="8" class="c0"/>
<circle cx="1078" cy="1316" r="8" class="c0"/>
<circle cx="954" cy="966" r="8" class="c0"/>
<circle cx="820" cy="930" r="8" class="c0"/>
<circle cx="1042" cy="1162" r="8" class="c0"/>
<circle cx="930" cy="442" r="8" class="c0"/>
<circle cx="842" cy="760" r="8" class="c0"/>
<circle cx="996" cy="504" r="8" class="c0"/>
<circle cx="908" cy="682" r="8" class="c0"/>
<circle cx="1050" cy="1286" r="8" class="c0"/>
<circle cx="1076" cy="1248" r="8" class="c0"/>
<circle cx="1036" cy="846" r="8" class="c0"/>
<circle cx="1096" cy="660" r="8" class="c0"/>
<circle cx="1160" cy="1392" r="8" class="c0"/>
<circle cx="780" cy="1414" r="8" class="c0"/>
<circle cx="1072" cy="462" r="8" class="c0"/>
<circle cx="774" cy="562" r="8" class="c0"/>
<circle cx="738" cy="542" r="8" class="c0"/>
<circle cx="1144" cy="1350" r="8" class="c0"/>
<circle cx="1066" cy="1300" r="8" class="c0"/>
<circle cx="592" cy="440" r="8" class="c0"/>
<circle cx="860" cy="724" r="8" class="c0"/>
<circle cx="890" cy="450" r="8" class="c0"/>
<circle cx="980" cy="1340" r="8" class="c0"/>
<circle cx="834" cy="966" r="8" class="c0"/>
<circle cx="912" cy="1340" r="8" class="c0"/>
<circle cx="1140" cy="350" r="8" class="c0"/>
<circle cx="670" cy="528" r="8" class="c0"/>
<circle cx="534" cy="382" r="8" class="c0"/>
<circle cx="1012" cy="458" r="8" class="c0"/>
<circle cx="780" cy="1292" r="8" class="c0"/>
<circle cx="1108" cy="1252" r="8" class="c0"/>
<circle cx="830" cy="1256" r="8" class="c0"/>
<circle cx="974" cy="1106" r="8" class="c0"/>
<circle cx="756" cy="558" r="8" class="c0"/>
<circle cx="1014" cy="1382" r="8" class="c0"/>
<circle cx="1052" cy="396" r="8" class="c0"/>
<circle cx="842" cy="1272" r="8" class="c0"/>
<circle cx="862" cy="756" r="8" class="c0"/>
<circle cx="1020" cy="638" r="8" class="c0"/>
<circle cx="1106" cy="540" r="8" class="c0"/>
<circle cx="720" cy="752" r="8" class="c0"/>
<circle cx="994" cy="1020" r="8" class="c0"/>
<circle cx="1056" cy="720" r="8" class="c0"/>
<circle cx="744" cy="746" r="8" class="c0"/>
<circle cx="1000" cy="786" r="8" class="c0"/>
<circle cx="966" cy="1212" r="8" class="c0"/>
<circle cx="626" cy="510" r="8" class="c0"/>
<circle cx="792" cy="1378" r="8" class="c0"/>
<circle cx="1136" cy="632" r="8" class="c0"/>
<circle cx="1016" cy="824" r="8" class="c0"/>
<circle cx="918" cy="534" r="8" class="c0"/>
<circle cx="970" cy="1424" r="8" class="c0"/>
<circle cx="1126" cy="1256" r="8" class="c0"/>
<circle cx="1096" cy="1428" r="8" class="c0"/>
<circle cx="888" cy="1202" r="8" class="c0"/>
<circle cx="896" cy="974" r="8" class="c0"/>
<circle cx="618" cy="454" r="8" class="c0"/>
<circle cx="1102" cy="1406" r="8" class="c0"/>
<circle cx="1070" cy="1378" r="8" class="c0"/>
<circle cx="490" cy="384" r="8" class="c0"/>
<circle cx="840" cy="708" r="8" class="c0"/>
<circle cx="998" cy="1286" r="8" class="c0"/>
<circle cx="654" cy="562" r="8" class="c0"/>
<circle cx="862" cy="1040" r="8" class="c0"/>
<circle cx="1136" cy="1158" r="8" class="c0"/>
<circle cx="1112" cy="608" r="8" class="c0"/>
<circle cx="906" cy="602" r="8" class="c0"/>
<circle cx="1078" cy="690" r="8" class="c0"/>
<circle cx="964" cy="330" r="8" class="c0"/>
<circle cx="874" cy="1270" r="8" class="c0"/>
<circle cx="1016" cy="748" r="8" class="c0"/>
<circle cx="1032" cy="1278" r="8" class="c0"/>
<circle cx="920" cy="490" r="8" class="c0"/>
<circle cx="1082" cy="556" r="8" class="c0"/>
<circle cx="858" cy="1392" r="8" class="c0"/>
<circle cx="1102" cy="354" r="8" class="c0"/>
<circle cx="804" cy="1160" r="8" class="c0"/>
<circle cx="996" cy="998" r="8" class="c0"/>
<circle cx="1050" cy="1144" r="8" class="c0"/>
<circle cx="940" cy="1358" r="8" class="c0"/>
<circle cx="958" cy="1154" r="8" class="c0"/>
<circle cx="948" cy="716" r="8" class="c0"/>
<circle cx="1144" cy="1430" r="8" class="c0"/>
<circle cx="1166" cy="520" r="8" class="c0"/>
<circle cx="820" cy="954" r="8" class="c0"/>
<circle cx="814" cy="1004" r="8" class="c0"/>
<circle cx="870" cy="738" r="8" class="c0"/>
<circle cx="1052" cy="1426" r="8" class="c0"/>
<circle cx="826" cy="1410" r="8" class="c0"/>
<circle cx="580" cy="482" r="8" class="c0"/>
<circle cx="882" cy="828" r="8" class="c0"/>
<circle cx="1104" cy="500" r="8" class="c0"/>
<circle cx="556" cy="452" r="8" class="c0"/>
<circle cx="992" cy="1146" r="8" class="c0"/>
<circle cx="968" cy="846" r="8" class="c0"/>
<circle cx="1036" cy="780" r="8" class="c0"/>
<circle cx="1100" cy="1208" r="8" class="c0"/>
<circle cx="946" cy="660" r="8" class="c0"/>
<circle cx="1156" cy="376" r="8" class="c0"/>
<circle cx="850" cy="1068" r="8" class="c0"/>
<circle cx="750" cy="664" r="8" class="c0"/>
<circle cx="1062" cy="1414" r="8" class="c0"/>
<circle cx="1090" cy="640" r="8" class="c0"/>
<circle cx="972" cy="980" r="8" class="c0"/>
<circle cx="862" cy="1138" r="8" class="c0"/>
<circle cx="1038" cy="554" r="8" class="c0"/>
<circle cx="696" cy="596" r="8" class="c0"/>
<circle cx="1004" cy="1204" r="8" class="c0"/>
<circle cx="1074" cy="1078" r="8" class="c0"/>
<circle cx="862" cy="1414" r="8" class="c0"/>
<circle cx="820" cy="1074" r="8" class="c0"/>
<circle cx="946" cy="1134" r="8" class="c0"/>
<circle cx="886" cy="1084" r="8" class="c0"/>
<circle cx="730" cy="558" r="8" class="c0"/>
<circle cx="740" cy="598" r="8" class="c0"/>
<circle cx="830" cy="1354" r="8" class="c0"/>
<circle cx="828" cy="790" r="8" class="c0"/>
<circle cx="1176" cy="566" r="8" class="c0"/>
<circle cx="1008" cy="906" r="8" class="c0"/>
<circle cx="638" cy="470" r="6" class="c0"/>
<circle cx="602" cy="516" r="6" class="c0"/>
<circle cx="1026" cy="1010" r="6" class="c0"/>
<circle cx="930" cy="856" r="6" class="c0"/>
<circle cx="934" cy="380" r="6" class="c0"/>
<circle cx="1150" cy="360" r="6" class="c0"/>
<circle cx="1064" cy="338" r="6" class="c0"/>
<circle cx="824" cy="648" r="6" class="c0"/>
<circle cx="956" cy="362" r="6" class="c0"/>
<circle cx="1036" cy="1346" r="6" class="c0"/>
<circle cx="1140" cy="380" r="6" class="c0"/>
<circle cx="888" cy="1406" r="6" class="c0"/>
<circle cx="1150" cy="564" r="6" class="c0"/>
<circle cx="1080" cy="1170" r="6" class="c0"/>
<circle cx="1192" cy="524" r="6" class="c0"/>
<circle cx="818" cy="1216" r="6" class="c0"/>
<circle cx="918" cy="1162" r="6" class="c0"/>
<circle cx="1126" cy="1212" r="6" class="c0"/>
<circle cx="782" cy="808" r="6" class="c0"/>
<circle cx="798" cy="724" r="6" class="c0"/>
<circle cx="1036" cy="1248" r="6" class="c0"/>
<circle cx="892" cy="428" r="6" class="c0"/>
<circle cx="786" cy="1226" r="6" class="c0"/>
<circle cx="1006" cy="1270" r="6" class="c0"/>
<circle cx="832" cy="1330" r="6" class="c0"/>
<circle cx="1060" cy="1170" r="6" class="c0"/>
<circle cx="1162" cy="1430" r="6" class="c0"/>
<circle cx="932" cy="892" r="6" class="c0"/>
<circle cx="956" cy="1098" r="6" class="c0"/>
<circle cx="1018" cy="1428" r="6" class="c0"/>
<circle cx="990" cy="460" r="6" class="c0"/>
<circle cx="1028" cy="798" r="6" class="c0"/>
<circle cx="1016" cy="1194" r="6" class="c0"/>
<circle cx="1010" cy="1070" r="6" class="c0"/>
<circle cx="1018" cy="886" r="6" class="c0"/>
<circle cx="850" cy="974" r="6" class="c0"/>
<circle cx="962" cy="908" r="6" class="c0"/>
<circle cx="986" cy="664" r="6" class="c0"/>
<circle cx="916" cy="554" r="6" class="c0"/>
<circle cx="1004" cy="630" r="6" class="c0"/>
<circle cx="546" cy="464" r="6" class="c0"/>
<circle cx="616" cy="548" r="6" class="c0"/>
<circle cx="904" cy="496" r="6" class="c0"/>
<circle cx="938" cy="424" r="6" class="c0"/>
<circle cx="810" cy="584" r="6" class="c0"/>
<circle cx="794" cy="960" r="6" class="c0"/>
<circle cx="978" cy="698" r="6" class="c0"/>
<circle cx="840" cy="1144" r="6" class="c0"/>
<circle cx="832" cy="1432" r="6" class="c0"/>
<circle cx="996" cy="324" r="6" class="c0"/>
<circle cx="1098" cy="1312" r="6" class="c0"/>
<circle cx="908" cy="800" r="6" class="c0"/>
<circle cx="790" cy="740" r="6" class="c0"/>
<circle cx="872" cy="1298" r="6" class="c0"/>
<circle cx="1044" cy="1184" r="6" class="c0"/>
<circle cx="968" cy="1236" r="6" class="c0"/>
<circle cx="916" cy="1064" r="6" class="c0"/>
<circle cx="516" cy="444" r="6" class="c0"/>
<circle cx="1070" cy="530" r="6" class="c0"/>
<circle cx="924" cy="1106" r="6" class="c0"/>
<circle cx="752" cy="686" r="6" class="c0"/>
<circle cx="1156" cy="1372" r="6" class="c0"/>
<circle cx="1008" cy="514" r="6" class="c0"/>
<circle cx="1024" cy="670" r="6" class="c0"/>
<circle cx="792" cy="1046" r="6" class="c0"/>
<circle cx="1096" cy="472" r="6" class="c0"/>
<circle cx="938" cy="878" r="6" class="c0"/>
<circle cx="1038" cy="358" r="6" class="c0"/>
<circle cx="990" cy="402" r="6" class="c0"/>
<circle cx="1086" cy="618" r="6" class="c0"/>
<circle cx="576" cy="454" r="6" class="c0"/>
<circle cx="696" cy="548" r="6" class="c0"/>
<circle cx="1088" cy="312" r="6" class="c0"/>
<circle cx="802" cy="1086" r="6" class="c0"/>
<circle cx="1078" cy="1136" r="6" class="c0"/>
<circle cx="910" cy="1384" r="6" class="c0"/>
<circle cx="850" cy="1204" r="6" class="c0"/>
<circle cx="984" cy="1372" r="6" class="c0"/>
<circle cx="932" cy="1054" r="6" class="c0"/>
<circle cx="954" cy="340" r="6" class="c0"/>
<circle cx="780" cy="1368" r="6" class="c0"/>
<circle cx="898" cy="1360" r="6" class="c0"/>
<circle cx="1044" cy="570" r="6" class="c0"/>
<circle cx="610" cy="500" r="6" class="c0"/>
<circle cx="824" cy="904" r="6" class="c0"/>
<circle cx="944" cy="850" r="6" class="c0"/>
<circle cx="934" cy="768" r="6" class="c0"/>
<circle cx="624" cy="564" r="6" class="c0"/>
<circle cx="1120" cy="1402" r="6" class="c0"/>
<circle cx="888" cy="798" r="6" class="c0"/>
<circle cx="720" cy="618" r="6" class="c0"/>
<circle cx="1032" cy="756" r="6" class="c0"/>
<circle cx="890" cy="1012" r="6" class="c0"/>
<circle cx="972" cy="1044" r="6" class="c0"/>
<circle cx="994" cy="1078" r="6" class="c0"/>
<circle cx="1066" cy="478" r="6" class="c0"/>
<circle cx="904" cy="742" r="6" class="c0"/>
<circle cx="1148" cy="530" r="6" class="c0"/>
<circle cx="656" cy="510" r="6" class="c0"/>
<circle cx="1122" cy="1238" r="6" class="c0"/>
<circle cx="856" cy="900" r="6" class="c0"/>
<circle cx="708" cy="720" r="6" class="c0"/>
<circle cx="868" cy="1236" r="6" class="c0"/>
<circle cx="870" cy="1152" r="6" class="c0"/>
<circle cx="1166" cy="462" r="6" class="c0"/>
<circle cx="958" cy="794" r="6" class="c0"/>
<circle cx="950" cy="604" r="6" class="c0"/>
<circle cx="508" cy="300" r="6" class="c0"/>
<circle cx="1094" cy="510" r="6" class="c0"/>
<circle cx="840" cy="802" r="6" class="c0"/>
<circle cx="1004" cy="922" r="6" class="c0"/>
<circle cx="1102" cy="596" r="6" class="c0"/>
<circle cx="1016" cy="1120" r="6" class="c0"/>
<circle cx="940" cy="1024" r="6" class="c0"/>
<circle cx="934" cy="1192" r="6" class="c0"/>
<circle cx="786" cy="934" r="6" class="c0"/>
<circle cx="1010" cy="1306" r="6" class="c0"/>
<circle cx="1156" cy="538" r="6" class="c0"/>
<circle cx="552" cy="434" r="6" class="c0"/>
<circle cx="1102" cy="1366" r="6" class="c0"/>
<circle cx="1004" cy="714" r="6" class="c0"/>
<circle cx="1002" cy="468" r="6" class="c0"/>
<circle cx="728" cy="608" r="6" class="c0"/>
<circle cx="916" cy="614" r="6" class="c0"/>
<circle cx="1132" cy="558" r="6" class="c0"/>
<circle cx="1068" cy="680" r="6" class="c0"/>
<circle cx="910" cy="982" r="6" class="c0"/>
<circle cx="956" cy="670" r="6" class="c0"/>
<circle cx="1026" cy="1182" r="6" class="c0"/>
<circle cx="788" cy="1400" r="6" class="c0"/>
<circle cx="808" cy="988" r="6" class="c0"/>
<circle cx="906" cy="464" r="6" class="c0"/>
<circle cx="994" cy="872" r="6" class="c0"/>
<circle cx="488" cy="332" r="6" class="c0"/>
<circle cx="1064" cy="406" r="6" class="c0"/>
<circle cx="952" cy="1426" r="6" class="c0"/>
<circle cx="858" cy="1432" r="6" class="c0"/>
<circle cx="1082" cy="374" r="6" class="c0"/>
<circle cx="842" cy="1214" r="6" class="c0"/>
<circle cx="1126" cy="574" r="6" class="c0"/>
<circle cx="1128" cy="1380" r="6" class="c0"/>
<circle cx="1054" cy="694" r="6" class="c0"/>
<circle cx="496" cy="422" r="6" class="c0"/>
<circle cx="772" cy="712" r="6" class="c0"/>
<circle cx="1040" cy="290" r="6" class="c0"/>
<circle cx="1102" cy="1130" r="6" class="c0"/>
<circle cx="802" cy="710" r="6" class="c0"/>
<circle cx="798" cy="1412" r="6" class="c0"/>
<circle cx="1050" cy="320" r="6" class="c0"/>
<circle cx="916" cy="792" r="6" class="c0"/>
<circle cx="956" cy="570" r="6" class="c0"/>
<circle cx="982" cy="1182" r="6" class="c0"/>
<circle cx="896" cy="592" r="6" class="c0"/>
<circle cx="784" cy="762" r="6" class="c0"/>
<circle cx="996" cy="816" r="6" class="c0"/>
<circle cx="860" cy="654" r="6" class="c0"/>
<circle cx="1016" cy="378" r="6" class="c0"/>
<circle cx="752" cy="778" r="6" class="c0"/>
<circle cx="1026" cy="1074" r="6" class="c0"/>
<circle cx="1098" cy="384" r="6" class="c0"/>
<circle cx="890" cy="642" r="6" class="c0"/>
<circle cx="1024" cy="1212" r="6" class="c0"/>
<circle cx="722" cy="802" r="6" class="c0"/>
<circle cx="664" cy="792" r="6" class="c0"/>
<circle cx="792" cy="1170" r="6" class="c0"/>
<circle cx="904" cy="1074" r="6" class="c0"/>
<circle cx="1126" cy="596" r="6" class="c0"/>
<circle cx="998" cy="1260" r="6" class="c0"/>
<circle cx="884" cy="962" r="6" class="c0"/>
<circle cx="714" cy="520" r="6" class="c0"/>
<circle cx="810" cy="1404" r="6" class="c0"/>
<circle cx="996" cy="600" r="6" class="c0"/>
<circle cx="804" cy="836" r="6" class="c0"/>
<circle cx="894" cy="614" r="6" class="c0"/>
<circle cx="944" cy="1172" r="6" class="c0"/>
<circle cx="788" cy="900" r="6" class="c0"/>
<circle cx="928" cy="1430" r="6" class="c0"/>
<circle cx="1000" cy="386" r="6" class="c0"/>
<circle cx="1144" cy="658" r="6" class="c0"/>
<circle cx="1154" cy="624" r="6" class="c0"/>
<circle cx="850" cy="1172" r="6" class="c0"/>
<circle cx="1004" cy="834" r="6" class="c0"/>
<circle cx="936" cy="476" r="6" class="c0"/>
<circle cx="952" cy="1326" r="6" class="c0"/>
<circle cx="980" cy="364" r="6" class="c0"/>
<circle cx="990" cy="554" r="6" class="c0"/>
<circle cx="894" cy="1432" r="6" class="c0"/>
<circle cx="490" cy="408" r="6" class="c0"/>
<circle cx="914" cy="732" r="6" class="c0"/>
<circle cx="826" cy="838" r="6" class="c0"/>
<circle cx="840" cy="826" r="6" class="c0"/>
<circle cx="898" cy="1048" r="6" class="c0"/>
<circle cx="1028" cy="1238" r="6" class="c0"/>
<circle cx="846" cy="608" r="6" class="c0"/>
<circle cx="986" cy="802" r="6" class="c0"/>
<circle cx="934" cy="1292" r="6" class="c0"/>
<circle cx="854" cy="794" r="6" class="c0"/>
<circle cx="942" cy="574" r="6" class="c0"/>
<circle cx="1006" cy="758" r="6" class="c0"/>
<circle cx="906" cy="926" r="6" class="c0"/>
<circle cx="1132" cy="1272" r="6" class="c0"/>
<circle cx="794" cy="926" r="6" class="c0"/>
<circle cx="944" cy="1090" r="6" class="c0"/>
<circle cx="704" cy="762" r="6" class="c0"/>
<circle cx="1118" cy="688" r="6" class="c0"/>
<circle cx="936" cy="1274" r="6" class="c0"/>
<circle cx="902" cy="1296" r="6" class="c0"/>
<circle cx="790" cy="1240" r="6" class="c0"/>
<circle cx="1036" cy="460" r="6" class="c0"/>
<circle cx="1062" cy="1260" r="6" class="c0"/>
<circle cx="1054" cy="630" r="6" class="c0"/>
<circle cx="1128" cy="618" r="6" class="c0"/>
<circle cx="930" cy="520" r="6" class="c0"/>
<circle cx="928" cy="1208" r="6" class="c0"/>
<circle cx="942" cy="864" r="6" class="c0"/>
<circle cx="1064" cy="758" r="6" class="c0"/>
<circle cx="928" cy="1380" r="6" class="c0"/>
<circle cx="986" cy="1432" r="6" class="c0"/>
<circle cx="912" cy="476" r="6" class="c0"/>
<circle cx="954" cy="320" r="6" class="c0"/>
<circle cx="902" cy="510" r="6" class="c0"/>
<circle cx="1090" cy="1382" r="6" class="c0"/>
<circle cx="796" cy="774" r="6" class="c0"/>
<circle cx="1088" cy="1066" r="6" class="c0"/>
<circle cx="934" cy="700" r="6" class="c0"/>
<circle cx="958" cy="512" r="6" class="c0"/>
<circle cx="1130" cy="1130" r="6" class="c0"/>
<circle cx="896" cy="1414" r="6" class="c0"/>
<circle cx="688" cy="560" r="6" class="c0"/>
<circle cx="864" cy="888" r="6" class="c0"/>
<circle cx="1012" cy="994" r="6" class="c0"/>
<circle cx="870" cy="1352" r="6" class="c0"/>
<circle cx="974" cy="926" r="6" class="c0"/>
<circle cx="964" cy="1054" r="6" class="c0"/>
<circle cx="958" cy="396" r="6" class="c0"/>
<circle cx="718" cy="768" r="6" class="c0"/>
<circle cx="1060" cy="1050" r="6" class="c0"/>
<circle cx="1030" cy="488" r="6" class="c0"/>
<circle cx="508" cy="362" r="6" class="c0"/>
<circle cx="986" cy="426" r="6" class="c0"/>
<circle cx="562" cy="426" r="6" class="c0"/>
<circle cx="858" cy="1024" r="6" class="c0"/>
<circle cx="832" cy="1064" r="6" class="c0"/>
<circle cx="522" cy="368" r="6" class="c0"/>
<circle cx="904" cy="1272" r="6" class="c0"/>
<circle cx="834" cy="1004" r="6" class="c0"/>
<circle cx="974" cy="474" r="6" class="c0"/>
<circle cx="844" cy="1406" r="6" class="c0"/>
<circle cx="964" cy="1334" r="6" class="c0"/>
<circle cx="834" cy="1126" r="6" class="c0"/>
<circle cx="706" cy="512" r="6" class="c0"/>
<circle cx="1144" cy="424" r="6" class="c0"/>
<circle cx="1134" cy="392" r="6" class="c0"/>
<circle cx="994" cy="1214" r="6" class="c0"/>
<circle cx="1144" cy="1318" r="6" class="c0"/>
<circle cx="526" cy="326" r="6" class="c0"/>
<circle cx="846" cy="1030" r="6" class="c0"/>
<circle cx="1092" cy="1242" r="6" class="c0"/>
<circle cx="1012" cy="310" r="6" class="c0"/>
<circle cx="884" cy="1362" r="6" class="c0"/>
<circle cx="1010" cy="478" r="6" class="c0"/>
<circle cx="886" cy="1042" r="6" class="c0"/>
<circle cx="1014" cy="706" r="6" class="c0"/>
<circle cx="698" cy="496" r="6" class="c0"/>
<circle cx="892" cy="900" r="6" class="c0"/>
<circle cx="1020" cy="580" r="6" class="c0"/>
<circle cx="744" cy="648" r="6" class="c0"/>
<circle cx="1056" cy="524" r="6" class="c0"/>
<circle cx="926" cy="1302" r="6" class="c0"/>
<circle cx="906" cy="762" r="6" class="c0"/>
<circle cx="1118" cy="1222" r="6" class="c0"/>
<circle cx="970" cy="532" r="6" class="c0"/>
<circle cx="778" cy="1430" r="6" class="c0"/>
<circle cx="802" cy="1282" r="6" class="c0"/>
<circle cx="872" cy="1068" r="6" class="c0"/>
<circle cx="686" cy="540" r="6" class="c0"/>
<circle cx="938" cy="1070" r="6" class="c0"/>
<circle cx="1134" cy="1418" r="6" class="c0"/>
<circle cx="994" cy="950" r="6" class="c0"/>
<circle cx="1126" cy="1174" r="6" class="c0"/>
<circle cx="964" cy="714" r="6" class="c0"/>
<circle cx="858" cy="984" r="6" class="c0"/>
<circle cx="888" cy="1104" r="6" class="c0"/>
<circle cx="1148" cy="1334" r="6" class="c0"/>
<circle cx="786" cy="660" r="6" class="c0"/>
<circle cx="790" cy="800" r="6" class="c0"/>
<circle cx="1170" cy="1422" r="6" class="c0"/>
<circle cx="986" cy="1038" r="6" class="c0"/>
<circle cx="858" cy="858" r="6" class="c0"/>
<circle cx="1166" cy="498" r="6" class="c0"/>
<circle cx="992" cy="1174" r="6" class="c0"/>
<circle cx="812" cy="720" r="6" class="c0"/>
<circle cx="628" cy="578" r="6" class="c0"/>
<circle cx="902" cy="1156" r="6" class="c0"/>
<circle cx="596" cy="420" r="6" class="c0"/>
<circle cx="1030" cy="316" r="6" class="c0"/>
<circle cx="1072" cy="544" r="6" class="c0"/>
<circle cx="770" cy="814" r="6" class="c0"/>
<circle cx="740" cy="568" r="6" class="c0"/>
<circle cx="818" cy="690" r="6" class="c0"/>
<circle cx="968" cy="370" r="6" class="c0"/>
<circle cx="1052" cy="1196" r="6" class="c0"/>
<circle cx="1012" cy="570" r="6" class="c0"/>
<circle cx="694" cy="792" r="6" class="c0"/>
<circle cx="940" cy="454" r="6" class="c0"/>
<circle cx="1068" cy="1432" r="6" class="c0"/>
<circle cx="1104" cy="444" r="6" class="c0"/>
<circle cx="626" cy="440" r="6" class="c0"/>
<circle cx="1156" cy="472" r="6" class="c0"/>
<circle cx="912" cy="450" r="6" class="c0"/>
<circle cx="1024" cy="346" r="6" class="c0"/>
<circle cx="806" cy="1018" r="6" class="c0"/>
<circle cx="506" cy="436" r="6" class="c0"/>
<circle cx="910" cy="1260" r="6" class="c0"/>
<circle cx="1020" cy="790" r="6" class="c0"/>
<circle cx="884" cy="874" r="6" class="c0"/>
<circle cx="1098" cy="1106" r="6" class="c0"/>
<circle cx="1026" cy="812" r="6" class="c0"/>
<circle cx="1078" cy="444" r="6" class="c0"/>
<circle cx="810" cy="1356" r="6" class="c0"/>
<circle cx="944" cy="1000" r="6" class="c0"/>
<circle cx="584" cy="518" r="6" class="c0"/>
<circle cx="1004" cy="880" r="6" class="c0"/>
<circle cx="1134" cy="1202" r="6" class="c0"/>
<circle cx="788" cy="1196" r="6" class="c0"/>
<circle cx="1046" cy="1376" r="6" class="c0"/>
<circle cx="812" cy="896" r="6" class="c0"/>
<circle cx="1060" cy="538" r="6" class="c0"/>
<circle cx="1008" cy="534" r="6" class="c0"/>
<circle cx="906" cy="1056" r="6" class="c0"/>
<circle cx="1034" cy="396" r="6" class="c0"/>
<circle cx="782" cy="748" r="6" class="c0"/>
<circle cx="906" cy="562" r="6" class="c0"/>
<circle cx="936" cy="1010" r="6" class="c0"/>
<circle cx="1050" cy="1342" r="6" class="c0"/>
<circle cx="892" cy="736" r="6" class="c0"/>
<circle cx="1138" cy="1142" r="6" class="c0"/>
</svg>
