<?xml version="1.0" encoding="utf-8"?>
<svg xmlns="http://www.w3.org/2000/svg"
     xmlns:xlink="http://www.w3.org/1999/xlink" width="1920" height="1440" >

            <defs>
            <style type="text/css"><![CDATA[
circle {stroke: none;}
.c0 {fill: #FFFFFF;}
]]></style>
            </defs>
<rect x="0" y="0" width="1920" height="1440" fill="black"/>
<circle cx="1778" cy="1024" r="14" class="c0"/>
<circle cx="1742" cy="1186" r="12" class="c0"/>
<circle cx="1588" cy="540" r="12" class="c0"/>
<circle cx="1720" cy="1216" r="12" class="c0"/>
<circle cx="1578" cy="572" r="12" class="c0"/>
<circle cx="1884" cy="538" r="12" class="c0"/>
<circle cx="1516" cy="796" r="12" class="c0"/>
<circle cx="1842" cy="426" r="12" class="c0"/>
<circle cx="1602" cy="600" r="12" class="c0"/>
<circle cx="1892" cy="1136" r="12" class="c0"/>
<circle cx="1722" cy="422" r="12" class="c0"/>
<circle cx="1832" cy="1178" r="12" class="c0"/>
<circle cx="1792" cy="1052" r="12" class="c0"/>
<circle cx="1714" cy="836" r="12" class="c0"/>
<circle cx="1722" cy="608" r="12" class="c0"/>
<circle cx="1612" cy="730" r="12" class="c0"/>
<circle cx="1860" cy="558" r="12" class="c0"/>
<circle cx="1906" cy="1412" r="12" class="c0"/>
<circle cx="1880" cy="674" r="12" class="c0"/>
<circle cx="1690" cy="668" r="12" class="c0"/>
<circle cx="1584" cy="768" r="12" class="c0"/>
<circle cx="1592" cy="384" r="12" class="c0"/>
<circle cx="1514" cy="552" r="12" class="c0"/>
<circle cx="1524" cy="396" r="12" class="c0"/>
<circle cx="1708" cy="746" r="12" class="c0"/>
<circle cx="1462" cy="682" r="12" class="c0"/>
<circle cx="1856" cy="918" r="12" class="c0"/>
<circle cx="1688" cy="436" r="12" class="c0"/>
<circle cx="1866" cy="988" r="12" class="c0"/>
<circle cx="1776" cy="980" r="12" class="c0"/>
<circle cx="1870" cy="730" r="12" class="c0"/>
<circle cx="1556" cy="420" r="12" class="c0"/>
<circle cx="1558" cy="646" r="12" class="c0"/>
<circle cx="1506" cy="764" r="12" class="c0"/>
<circle cx="1820" cy="1078" r="12" class="c0"/>
<circle cx="1754" cy="1048" r="12" class="c0"/>
<circle cx="1892" cy="1082" r="12" class="c0"/>
<circle cx="1618" cy="786" r="12" class="c0"/>
<circle cx="1868" cy="1092" r="12" class="c0"/>
<circle cx="1420" cy="686" r="12" class="c0"/>
<circle cx="1558" cy="484" r="12" class="c0"/>
<circle cx="1546" cy="602" r="12" class="c0"/>
<circle cx="1722" cy="504" r="12" class="c0"/>
<circle cx="1506" cy="446" r="12" class="c0"/>
<circle cx="1760" cy="1124" r="12" class="c0"/>
<circle cx="1830" cy="1100" r="12" class="c0"/>
<circle cx="1680" cy="496" r="12" class="c0"/>
<circle cx="1886" cy="744" r="12" class="c0"/>
<circle cx="1850" cy="1210" r="12" class="c0"/>
<circle cx="1782" cy="440" r="12" class="c0"/>
<circle cx="1774" cy="656" r="12" class="c0"/>
<circle cx="1768" cy="472" r="12" class="c0"/>
<circle cx="1852" cy="600" r="12" class="c0"/>
<circle cx="1748" cy="524" r="12" class="c0"/>
<circle cx="1636" cy="638" r="12" class="c0"/>
<circle cx="1458" cy="492" r="12" class="c0"/>
<circle cx="1882" cy="1202" r="12" class="c0"/>
<circle cx="1736" cy="756" r="12" class="c0"/>
<circle cx="1902" cy="626" r="12" class="c0"/>
<circle cx="1640" cy="830" r="12" class="c0"/>
<circle cx="1700" cy="1066" r="10" class="c0"/>
<circle cx="1812" cy="896" r="10" class="c0"/>
<circle cx="1852" cy="1122" r="10" class="c0"/>
<circle cx="1878" cy="806" r="10" class="c0"/>
<circle cx="1814" cy="472" r="10" class="c0"/>
<circle cx="1710" cy="884" r="10" class="c0"/>
<circle cx="1420" cy="552" r="10" class="c0"/>
<circle cx="1660" cy="730" r="10" class="c0"/>
<circle cx="1834" cy="716" r="10" class="c0"/>
<circle cx="1502" cy="724" r="10" class="c0"/>
<circle cx="1842" cy="888" r="10" class="c0"/>
<circle cx="1858" cy="1328" r="10" class="c0"/>
<circle cx="1718" cy="940" r="10" class="c0"/>
<circle cx="1904" cy="1364" r="10" class="c0"/>
<circle cx="1480" cy="714" r="10" class="c0"/>
<circle cx="1596" cy="672" r="10" class="c0"/>
<circle cx="1812" cy="1012" r="10" class="c0"/>
<circle cx="1762" cy="584" r="10" class="c0"/>
<circle cx="1796" cy="1094" r="10" class="c0"/>
<circle cx="1810" cy="596" r="10" class="c0"/>
<circle cx="1668" cy="420" r="10" class="c0"/>
<circle cx="1780" cy="956" r="10" class="c0"/>
<circle cx="1540" cy="468" r="10" class="c0"/>
<circle cx="1856" cy="858" r="10" class="c0"/>
<circle cx="1794" cy="760" r="10" class="c0"/>
<circle cx="1854" cy="624" r="10" class="c0"/>
<circle cx="1808" cy="740" r="10" class="c0"/>
<circle cx="1504" cy="582" r="10" class="c0"/>
<circle cx="1498" cy="472" r="10" class="c0"/>
<circle cx="1870" cy="762" r="10" class="c0"/>
<circle cx="1696" cy="862" r="10" class="c0"/>
<circle cx="1860" cy="492" r="10" class="c0"/>
<circle cx="1760" cy="898" r="10" class="c0"/>
<circle cx="1904" cy="1270" r="10" class="c0"/>
<circle cx="1586" cy="626" r="10" class="c0"/>
<circle cx="1806" cy="710" r="10" class="c0"/>
<circle cx="1740" cy="624" r="10" class="c0"/>
<circle cx="1454" cy="542" r="10" class="c0"/>
<circle cx="1788" cy="784" r="10" class="c0"/>
<circle cx="1714" cy="554" r="10" class="c0"/>
<circle cx="1886" cy="1300" r="10" class="c0"/>
<circle cx="1648" cy="854" r="10" class="c0"/>
<circle cx="1752" cy="798" r="10" class="c0"/>
<circle cx="1366" cy="678" r="10" class="c0"/>
<circle cx="1632" cy="744" r="10" class="c0"/>
<circle cx="1834" cy="1314" r="10" class="c0"/>
<circle cx="1742" cy="410" r="10" class="c0"/>
<circle cx="1886" cy="954" r="10" class="c0"/>
<circle cx="1796" cy="546" r="10" class="c0"/>
<circle cx="1680" cy="710" r="10" class="c0"/>
<circle cx="1746" cy="964" r="10" class="c0"/>
<circle cx="1570" cy="506" r="10" class="c0"/>
<circle cx="1548" cy="544" r="10" class="c0"/>
<circle cx="1792" cy="522" r="10" class="c0"/>
<circle cx="1660" cy="842" r="10" class="c0"/>
<circle cx="1438" cy="664" r="10" class="c0"/>
<circle cx="1908" cy="960" r="10" class="c0"/>
<circle cx="1828" cy="1224" r="10" class="c0"/>
<circle cx="1746" cy="552" r="10" class="c0"/>
<circle cx="1726" cy="914" r="10" class="c0"/>
<circle cx="1846" cy="810" r="10" class="c0"/>
<circle cx="1638" cy="482" r="10" class="c0"/>
<circle cx="1566" cy="814" r="10" class="c0"/>
<circle cx="1706" cy="388" r="10" class="c0"/>
<circle cx="1690" cy="780" r="10" class="c0"/>
<circle cx="1764" cy="764" r="10" class="c0"/>
<circle cx="1822" cy="956" r="10" class="c0"/>
<circle cx="1572" cy="678" r="10" class="c0"/>
<circle cx="1906" cy="562" r="10" class="c0"/>
<circle cx="1406" cy="600" r="10" class="c0"/>
<circle cx="1820" cy="784" r="10" class="c0"/>
<circle cx="1790" cy="620" r="10" class="c0"/>
<circle cx="1670" cy="560" r="10" class="c0"/>
<circle cx="1854" cy="656" r="10" class="c0"/>
<circle cx="1590" cy="740" r="10" class="c0"/>
<circle cx="1728" cy="650" r="10" class="c0"/>
<circle cx="1718" cy="700" r="10" class="c0"/>
<circle cx="1828" cy="456" r="10" class="c0"/>
<circle cx="1792" cy="1156" r="10" class="c0"/>
<circle cx="1606" cy="896" r="10" class="c0"/>
<circle cx="1534" cy="676" r="10" class="c0"/>
<circle cx="1696" cy="474" r="10" class="c0"/>
<circle cx="1668" cy="448" r="10" class="c0"/>
<circle cx="1788" cy="870" r="10" class="c0"/>
<circle cx="1520" cy="884" r="10" class="c0"/>
<circle cx="1690" cy="824" r="10" class="c0"/>
<circle cx="1880" cy="1244" r="10" class="c0"/>
<circle cx="1612" cy="502" r="10" class="c0"/>
<circle cx="1414" cy="644" r="10" class="c0"/>
<circle cx="1676" cy="652" r="10" class="c0"/>
<circle cx="1546" cy="568" r="10" class="c0"/>
<circle cx="1592" cy="428" r="10" class="c0"/>
<circle cx="1556" cy="704" r="10" class="c0"/>
<circle cx="1614" cy="394" r="10" class="c0"/>
<circle cx="1634" cy="514" r="10" class="c0"/>
<circle cx="1836" cy="1292" r="10" class="c0"/>
<circle cx="1480" cy="832" r="10" class="c0"/>
<circle cx="1862" cy="1050" r="10" class="c0"/>
<circle cx="1442" cy="506" r="10" class="c0"/>
<circle cx="1762" cy="1210" r="10" class="c0"/>
<circle cx="1592" cy="856" r="10" class="c0"/>
<circle cx="1682" cy="614" r="10" class="c0"/>
<circle cx="1506" cy="670" r="10" class="c0"/>
<circle cx="1748" cy="686" r="10" class="c0"/>
<circle cx="1540" cy="790" r="10" class="c0"/>
<circle cx="1894" cy="852" r="10" class="c0"/>
<circle cx="1526" cy="630" r="10" class="c0"/>
<circle cx="1882" cy="1032" r="10" class="c0"/>
<circle cx="1752" cy="1014" r="10" class="c0"/>
<circle cx="1804" cy="502" r="10" class="c0"/>
<circle cx="1762" cy="1076" r="10" class="c0"/>
<circle cx="1880" cy="710" r="10" class="c0"/>
<circle cx="1526" cy="494" r="10" class="c0"/>
<circle cx="1738" cy="1156" r="10" class="c0"/>
<circle cx="1858" cy="1362" r="10" class="c0"/>
<circle cx="1802" cy="1274" r="10" class="c0"/>
<circle cx="1808" cy="824" r="10" class="c0"/>
<circle cx="1718" cy="806" r="10" class="c0"/>
<circle cx="1648" cy="712" r="10" class="c0"/>
<circle cx="1900" cy="884" r="10" class="c0"/>
<circle cx="1598" cy="804" r="10" class="c0"/>
<circle cx="1638" cy="408" r="10" class="c0"/>
<circle cx="1806" cy="928" r="10" class="c0"/>
<circle cx="1790" cy="398" r="10" class="c0"/>
<circle cx="1570" cy="596" r="10" class="c0"/>
<circle cx="1766" cy="714" r="10" class="c0"/>
<circle cx="1470" cy="512" r="10" class="c0"/>
<circle cx="1472" cy="564" r="10" class="c0"/>
<circle cx="1862" cy="514" r="10" class="c0"/>
<circle cx="1466" cy="422" r="10" class="c0"/>
<circle cx="1878" cy="882" r="10" class="c0"/>
<circle cx="1740" cy="662" r="10" class="c0"/>
<circle cx="1894" cy="480" r="10" class="c0"/>
<circle cx="1848" cy="536" r="10" class="c0"/>
<circle cx="1792" cy="468" r="10" class="c0"/>
<circle cx="1646" cy="598" r="10" class="c0"/>
<circle cx="1788" cy="894" r="10" class="c0"/>
<circle cx="1690" cy="916" r="10" class="c0"/>
<circle cx="1590" cy="496" r="10" class="c0"/>
<circle cx="1810" cy="1344" r="10" class="c0"/>
<circle cx="1904" cy="1334" r="10" class="c0"/>
<circle cx="1726" cy="720" r="10" class="c0"/>
<circle cx="1734" cy="468" r="10" class="c0"/>
<circle cx="1626" cy="438" r="10" class="c0"/>
<circle cx="1894" cy="924" r="10" class="c0"/>
<circle cx="1764" cy="1170" r="10" class="c0"/>
<circle cx="1646" cy="876" r="10" class="c0"/>
<circle cx="1848" cy="1154" r="10" class="c0"/>
<circle cx="1906" cy="656" r="10" class="c0"/>
<circle cx="1718" cy="970" r="10" class="c0"/>
<circle cx="1754" cy="1244" r="10" class="c0"/>
<circle cx="1616" cy="870" r="10" class="c0"/>
<circle cx="1836" cy="990" r="10" class="c0"/>
<circle cx="1422" cy="622" r="10" class="c0"/>
<circle cx="1588" cy="906" r="10" class="c0"/>
<circle cx="1802" cy="982" r="10" class="c0"/>
<circle cx="1606" cy="640" r="10" class="c0"/>
<circle cx="1616" cy="550" r="10" class="c0"/>
<circle cx="1588" cy="716" r="10" class="c0"/>
<circle cx="1664" cy="806" r="10" class="c0"/>
<circle cx="1812" cy="1168" r="10" class="c0"/>
<circle cx="1394" cy="630" r="10" class="c0"/>
<circle cx="1900" cy="1114" r="10" class="c0"/>
<circle cx="1790" cy="1218" r="10" class="c0"/>
<circle cx="1844" cy="1076" r="10" class="c0"/>
<circle cx="1750" cy="454" r="10" class="c0"/>
<circle cx="1396" cy="574" r="10" class="c0"/>
<circle cx="1634" cy="566" r="10" class="c0"/>
<circle cx="1878" cy="644" r="10" class="c0"/>
<circle cx="1884" cy="1160" r="10" class="c0"/>
<circle cx="1438" cy="788" r="10" class="c0"/>
<circle cx="1466" cy="648" r="10" class="c0"/>
<circle cx="1878" cy="1354" r="10" class="c0"/>
<circle cx="1736" cy="1002" r="10" class="c0"/>
<circle cx="1742" cy="1332" r="10" class="c0"/>
<circle cx="1622" cy="810" r="10" class="c0"/>
<circle cx="1824" cy="638" r="10" class="c0"/>
<circle cx="1668" cy="886" r="10" class="c0"/>
<circle cx="1548" cy="742" r="10" class="c0"/>
<circle cx="1514" cy="510" r="10" class="c0"/>
<circle cx="1790" cy="582" r="10" class="c0"/>
<circle cx="1840" cy="1046" r="10" class="c0"/>
<circle cx="1908" cy="1198" r="10" class="c0"/>
<circle cx="1868" cy="456" r="10" class="c0"/>
<circle cx="1540" cy="436" r="10" class="c0"/>
<circle cx="1894" cy="696" r="8" class="c0"/>
<circle cx="1528" cy="586" r="8" class="c0"/>
<circle cx="1666" cy="774" r="8" class="c0"/>
<circle cx="1870" cy="694" r="8" class="c0"/>
<circle cx="1796" cy="1130" r="8" class="c0"/>
<circle cx="1858" cy="684" r="8" class="c0"/>
<circle cx="1448" cy="804" r="8" class="c0"/>
<circle cx="1740" cy="592" r="8" class="c0"/>
<circle cx="1766" cy="1190" r="8" class="c0"/>
<circle cx="1718" cy="526" r="8" class="c0"/>
<circle cx="1730" cy="394" r="8" class="c0"/>
<circle cx="1770" cy="834" r="8" class="c0"/>
<circle cx="1482" cy="582" r="8" class="c0"/>
<circle cx="1806" cy="1244" r="8" class="c0"/>
<circle cx="1492" cy="506" r="8" class="c0"/>
<circle cx="1854" cy="1024" r="8" class="c0"/>
<circle cx="1710" cy="450" r="8" class="c0"/>
<circle cx="1812" cy="1034" r="8" class="c0"/>
<circle cx="1682" cy="976" r="8" class="c0"/>
<circle cx="1886" cy="828" r="8" class="c0"/>
<circle cx="1826" cy="406" r="8" class="c0"/>
<circle cx="1760" cy="436" r="8" class="c0"/>
<circle cx="1878" cy="904" r="8" class="c0"/>
<circle cx="1554" cy="844" r="8" class="c0"/>
<circle cx="1740" cy="1092" r="8" class="c0"/>
<circle cx="1900" cy="1056" r="8" class="c0"/>
<circle cx="1756" cy="1288" r="8" class="c0"/>
<circle cx="1566" cy="788" r="8" class="c0"/>
<circle cx="1840" cy="474" r="8" class="c0"/>
<circle cx="1782" cy="1106" r="8" class="c0"/>
<circle cx="1482" cy="630" r="8" class="c0"/>
<circle cx="1564" cy="898" r="8" class="c0"/>
<circle cx="1730" cy="790" r="8" class="c0"/>
<circle cx="1830" cy="1266" r="8" class="c0"/>
<circle cx="1642" cy="382" r="8" class="c0"/>
<circle cx="1488" cy="530" r="8" class="c0"/>
<circle cx="1442" cy="430" r="8" class="c0"/>
<circle cx="1696" cy="634" r="8" class="c0"/>
<circle cx="1828" cy="510" r="8" class="c0"/>
<circle cx="1698" cy="698" r="8" class="c0"/>
<circle cx="1844" cy="1384" r="8" class="c0"/>
<circle cx="1692" cy="524" r="8" class="c0"/>
<circle cx="1758" cy="940" r="8" class="c0"/>
<circle cx="1898" cy="774" r="8" class="c0"/>
<circle cx="1684" cy="874" r="8" class="c0"/>
<circle cx="1740" cy="704" r="8" class="c0"/>
<circle cx="1630" cy="688" r="8" class="c0"/>
<circle cx="1488" cy="688" r="8" class="c0"/>
<circle cx="1668" cy="522" r="8" class="c0"/>
<circle cx="1518" cy="604" r="8" class="c0"/>
<circle cx="1510" cy="484" r="8" class="c0"/>
<circle cx="1796" cy="846" r="8" class="c0"/>
<circle cx="1460" cy="748" r="8" class="c0"/>
<circle cx="1808" cy="1364" r="8" class="c0"/>
<circle cx="1486" cy="788" r="8" class="c0"/>
<circle cx="1770" cy="416" r="8" class="c0"/>
<circle cx="1776" cy="1286" r="8" class="c0"/>
<circle cx="1446" cy="614" r="8" class="c0"/>
<circle cx="1802" cy="428" r="8" class="c0"/>
<circle cx="1876" cy="602" r="8" class="c0"/>
<circle cx="1488" cy="746" r="8" class="c0"/>
<circle cx="1906" cy="1172" r="8" class="c0"/>
<circle cx="1822" cy="1198" r="8" class="c0"/>
<circle cx="1834" cy="748" r="8" class="c0"/>
<circle cx="1888" cy="982" r="8" class="c0"/>
<circle cx="1834" cy="686" r="8" class="c0"/>
<circle cx="1422" cy="508" r="8" class="c0"/>
<circle cx="1616" cy="754" r="8" class="c0"/>
<circle cx="1722" cy="680" r="8" class="c0"/>
<circle cx="1910" cy="832" r="8" class="c0"/>
<circle cx="1614" cy="842" r="8" class="c0"/>
<circle cx="1784" cy="1078" r="8" class="c0"/>
<circle cx="1634" cy="542" r="8" class="c0"/>
<circle cx="1740" cy="942" r="8" class="c0"/>
<circle cx="1444" cy="714" r="8" class="c0"/>
<circle cx="1706" cy="582" r="8" class="c0"/>
<circle cx="1594" cy="456" r="8" class="c0"/>
<circle cx="1770" cy="630" r="8" class="c0"/>
<circle cx="1832" cy="620" r="8" class="c0"/>
<circle cx="1682" cy="1104" r="8" class="c0"/>
<circle cx="1828" cy="1336" r="8" class="c0"/>
<circle cx="1840" cy="1134" r="8" class="c0"/>
<circle cx="1902" cy="1238" r="8" class="c0"/>
<circle cx="1650" cy="664" r="8" class="c0"/>
<circle cx="1734" cy="884" r="8" class="c0"/>
<circle cx="1910" cy="1296" r="8" class="c0"/>
<circle cx="1386" cy="648" r="8" class="c0"/>
<circle cx="1764" cy="508" r="8" class="c0"/>
<circle cx="1564" cy="752" r="8" class="c0"/>
<circle cx="1424" cy="434" r="8" class="c0"/>
<circle cx="1830" cy="938" r="8" class="c0"/>
<circle cx="1836" cy="772" r="8" class="c0"/>
<circle cx="1474" cy="480" r="8" class="c0"/>
<circle cx="1892" cy="582" r="8" class="c0"/>
<circle cx="1656" cy="542" r="8" class="c0"/>
<circle cx="1830" cy="868" r="8" class="c0"/>
<circle cx="1872" cy="1184" r="8" class="c0"/>
<circle cx="1682" cy="998" r="8" class="c0"/>
<circle cx="1430" cy="594" r="8" class="c0"/>
<circle cx="1734" cy="1250" r="8" class="c0"/>
<circle cx="1670" cy="688" r="8" class="c0"/>
<circle cx="1816" cy="540" r="8" class="c0"/>
<circle cx="1534" cy="720" r="8" class="c0"/>
<circle cx="1660" cy="628" r="8" class="c0"/>
<circle cx="1776" cy="800" r="8" class="c0"/>
<circle cx="1766" cy="784" r="8" class="c0"/>
<circle cx="1506" cy="858" r="8" class="c0"/>
<circle cx="1846" cy="578" r="8" class="c0"/>
<circle cx="1684" cy="844" r="8" class="c0"/>
<circle cx="1754" cy="1270" r="8" class="c0"/>
<circle cx="1766" cy="1232" r="8" class="c0"/>
<circle cx="1896" cy="1004" r="8" class="c0"/>
<circle cx="1458" cy="600" r="8" class="c0"/>
<circle cx="1716" cy="766" r="8" class="c0"/>
<circle cx="1850" cy="1238" r="8" class="c0"/>
<circle cx="1778" cy="918" r="8" class="c0"/>
<circle cx="1726" cy="1078" r="8" class="c0"/>
<circle cx="1668" cy="380" r="8" class="c0"/>
<circle cx="1856" cy="1174" r="8" class="c0"/>
<circle cx="1446" cy="564" r="8" class="c0"/>
<circle cx="1380" cy="586" r="8" class="c0"/>
<circle cx="1806" cy="630" r="8" class="c0"/>
<circle cx="1892" cy="722" r="8" class="c0"/>
<circle cx="1630" cy="908" r="8" class="c0"/>
<circle cx="1852" cy="838" r="8" class="c0"/>
<circle cx="1808" cy="560" r="8" class="c0"/>
<circle cx="1600" cy="514" r="8" class="c0"/>
<circle cx="1608" cy="696" r="8" class="c0"/>
<circle cx="1746" cy="910" r="8" class="c0"/>
<circle cx="1864" cy="1070" r="8" class="c0"/>
<circle cx="1754" cy="730" r="8" class="c0"/>
<circle cx="1686" cy="744" r="8" class="c0"/>
<circle cx="1852" cy="1276" r="8" class="c0"/>
<circle cx="1882" cy="1420" r="8" class="c0"/>
<circle cx="1874" cy="1008" r="8" class="c0"/>
<circle cx="1762" cy="1100" r="8" class="c0"/>
<circle cx="1826" cy="816" r="8" class="c0"/>
<circle cx="1880" cy="1394" r="8" class="c0"/>
<circle cx="1500" cy="876" r="8" class="c0"/>
<circle cx="1512" cy="840" r="8" class="c0"/>
<circle cx="1852" cy="444" r="8" class="c0"/>
<circle cx="1536" cy="760" r="8" class="c0"/>
<circle cx="1574" cy="456" r="8" class="c0"/>
<circle cx="1698" cy="1040" r="8" class="c0"/>
<circle cx="1868" cy="1380" r="8" class="c0"/>
<circle cx="1810" cy="1322" r="8" class="c0"/>
<circle cx="1576" cy="402" r="8" class="c0"/>
<circle cx="1876" cy="624" r="8" class="c0"/>
<circle cx="1804" cy="1384" r="8" class="c0"/>
<circle cx="1686" cy="386" r="8" class="c0"/>
<circle cx="1796" cy="1188" r="8" class="c0"/>
<circle cx="1734" cy="1112" r="8" class="c0"/>
<circle cx="1816" cy="848" r="8" class="c0"/>
<circle cx="1402" cy="542" r="8" class="c0"/>
<circle cx="1548" cy="508" r="8" class="c0"/>
<circle cx="1480" cy="602" r="8" class="c0"/>
<circle cx="1554" cy="766" r="8" class="c0"/>
<circle cx="1910" cy="900" r="8" class="c0"/>
<circle cx="1744" cy="870" r="8" class="c0"/>
<circle cx="1706" cy="624" r="8" class="c0"/>
<circle cx="1514" cy="708" r="8" class="c0"/>
<circle cx="1850" cy="700" r="8" class="c0"/>
<circle cx="1822" cy="762" r="8" class="c0"/>
<circle cx="1842" cy="962" r="8" class="c0"/>
<circle cx="1732" cy="564" r="8" class="c0"/>
<circle cx="1824" cy="914" r="8" class="c0"/>
<circle cx="1534" cy="530" r="8" class="c0"/>
<circle cx="1664" cy="1062" r="8" class="c0"/>
<circle cx="1900" cy="502" r="8" class="c0"/>
<circle cx="1652" cy="898" r="8" class="c0"/>
<circle cx="1708" cy="1178" r="8" class="c0"/>
<circle cx="1678" cy="956" r="8" class="c0"/>
<circle cx="1562" cy="390" r="8" class="c0"/>
<circle cx="1790" cy="488" r="8" class="c0"/>
<circle cx="1574" cy="832" r="8" class="c0"/>
<circle cx="1566" cy="880" r="8" class="c0"/>
<circle cx="1808" cy="1210" r="8" class="c0"/>
<circle cx="1496" cy="648" r="8" class="c0"/>
<circle cx="1646" cy="462" r="8" class="c0"/>
<circle cx="1758" cy="848" r="8" class="c0"/>
<circle cx="1698" cy="602" r="8" class="c0"/>
<circle cx="1872" cy="844" r="8" class="c0"/>
<circle cx="1692" cy="550" r="8" class="c0"/>
<circle cx="1522" cy="744" r="8" class="c0"/>
<circle cx="1678" cy="590" r="8" class="c0"/>
<circle cx="1480" cy="456" r="8" class="c0"/>
<circle cx="1540" cy="854" r="8" class="c0"/>
<circle cx="1778" cy="498" r="8" class="c0"/>
<circle cx="1368" cy="540" r="8" class="c0"/>
<circle cx="1872" cy="1312" r="8" class="c0"/>
<circle cx="1472" cy="798" r="8" class="c0"/>
<circle cx="1620" cy="610" r="8" class="c0"/>
<circle cx="1750" cy="822" r="8" class="c0"/>
<circle cx="1762" cy="400" r="8" class="c0"/>
<circle cx="1752" cy="646" r="8" class="c0"/>
<circle cx="1822" cy="490" r="8" class="c0"/>
<circle cx="1788" cy="936" r="8" class="c0"/>
<circle cx="1824" cy="664" r="8" class="c0"/>
<circle cx="1770" cy="682" r="8" class="c0"/>
<circle cx="1580" cy="654" r="8" class="c0"/>
<circle cx="1416" cy="528" r="8" class="c0"/>
<circle cx="1894" cy="604" r="8" class="c0"/>
<circle cx="1798" cy="1296" r="8" class="c0"/>
<circle cx="1910" cy="936" r="8" class="c0"/>
<circle cx="1720" cy="1024" r="8" class="c0"/>
<circle cx="1478" cy="766" r="8" class="c0"/>
<circle cx="1774" cy="566" r="8" class="c0"/>
<circle cx="1770" cy="604" r="8" class="c0"/>
<circle cx="1766" cy="1150" r="8" class="c0"/>
<circle cx="1870" cy="580" r="8" class="c0"/>
<circle cx="1910" cy="744" r="8" class="c0"/>
<circle cx="1866" cy="962" r="8" class="c0"/>
<circle cx="1782" cy="1310" r="8" class="c0"/>
<circle cx="1680" cy="406" r="8" class="c0"/>
<circle cx="1482" cy="812" r="8" class="c0"/>
<circle cx="1562" cy="620" r="8" class="c0"/>
<circle cx="1440" cy="470" r="8" class="c0"/>
<circle cx="1736" cy="846" r="8" class="c0"/>
<circle cx="1804" cy="648" r="8" class="c0"/>
<circle cx="1598" cy="562" r="8" class="c0"/>
<circle cx="1542" cy="818" r="8" class="c0"/>
<circle cx="1860" cy="1300" r="8" class="c0"/>
<circle cx="1872" cy="1276" r="8" class="c0"/>
<circle cx="1674" cy="540" r="8" class="c0"/>
<circle cx="1796" cy="804" r="8" class="c0"/>
<circle cx="1730" cy="820" r="8" class="c0"/>
<circle cx="1522" cy="460" r="8" class="c0"/>
<circle cx="1814" cy="674" r="8" class="c0"/>
<circle cx="1740" cy="1030" r="8" class="c0"/>
<circle cx="1746" cy="376" r="8" class="c0"/>
<circle cx="1534" cy="654" r="8" class="c0"/>
<circle cx="1908" cy="1148" r="8" class="c0"/>
<circle cx="1840" cy="1254" r="8" class="c0"/>
<circle cx="1454" cy="636" r="8" class="c0"/>
<circle cx="1418" cy="582" r="8" class="c0"/>
<circle cx="1848" cy="790" r="8" class="c0"/>
<circle cx="1662" cy="482" r="8" class="c0"/>
<circle cx="1616" cy="674" r="8" class="c0"/>
<circle cx="1624" cy="592" r="8" class="c0"/>
<circle cx="1402" cy="656" r="8" class="c0"/>
<circle cx="1880" cy="468" r="8" class="c0"/>
<circle cx="1694" cy="1220" r="8" class="c0"/>
<circle cx="1496" cy="610" r="8" class="c0"/>
<circle cx="1892" cy="1256" r="8" class="c0"/>
<circle cx="1398" cy="524" r="8" class="c0"/>
<circle cx="1632" cy="888" r="8" class="c0"/>
<circle cx="1726" cy="860" r="8" class="c0"/>
<circle cx="1824" cy="584" r="8" class="c0"/>
<circle cx="1628" cy="466" r="8" class="c0"/>
<circle cx="1666" cy="864" r="8" class="c0"/>
<circle cx="1560" cy="532" r="8" class="c0"/>
<circle cx="1872" cy="936" r="8" class="c0"/>
<circle cx="1692" cy="1090" r="8" class="c0"/>
<circle cx="1786" cy="704" r="8" class="c0"/>
<circle cx="1820" cy="1254" r="8" class="c0"/>
<circle cx="1386" cy="606" r="8" class="c0"/>
<circle cx="1500" cy="822" r="8" class="c0"/>
<circle cx="1894" cy="1382" r="8" class="c0"/>
<circle cx="1408" cy="704" r="8" class="c0"/>
<circle cx="1880" cy="496" r="8" class="c0"/>
<circle cx="1756" cy="1308" r="8" class="c0"/>
<circle cx="1598" cy="828" r="8" class="c0"/>
<circle cx="1822" cy="1054" r="8" class="c0"/>
<circle cx="1684" cy="1122" r="8" class="c0"/>
<circle cx="1602" cy="480" r="8" class="c0"/>
<circle cx="1718" cy="1162" r="8" class="c0"/>
<circle cx="1904" cy="676" r="8" class="c0"/>
<circle cx="1750" cy="1222" r="8" class="c0"/>
<circle cx="1648" cy="766" r="8" class="c0"/>
<circle cx="1870" cy="1114" r="8" class="c0"/>
<circle cx="1794" cy="672" r="8" class="c0"/>
<circle cx="1690" cy="1024" r="8" class="c0"/>
<circle cx="1628" cy="708" r="8" class="c0"/>
<circle cx="1558" cy="444" r="8" class="c0"/>
<circle cx="1738" cy="1130" r="8" class="c0"/>
<circle cx="1606" cy="412" r="8" class="c0"/>
<circle cx="1732" cy="540" r="8" class="c0"/>
<circle cx="1778" cy="1260" r="8" class="c0"/>
<circle cx="1388" cy="484" r="8" class="c0"/>
<circle cx="1842" cy="1012" r="8" class="c0"/>
<circle cx="1532" cy="696" r="8" class="c0"/>
<circle cx="1784" cy="818" r="8" class="c0"/>
<circle cx="1860" cy="1422" r="8" class="c0"/>
<circle cx="1658" cy="502" r="8" class="c0"/>
<circle cx="1458" cy="770" r="8" class="c0"/>
<circle cx="1756" cy="920" r="8" class="c0"/>
<circle cx="1674" cy="1088" r="8" class="c0"/>
<circle cx="1762" cy="872" r="8" class="c0"/>
<circle cx="1368" cy="636" r="8" class="c0"/>
<circle cx="1676" cy="760" r="8" class="c0"/>
<circle cx="1444" cy="450" r="8" class="c0"/>
<circle cx="1436" cy="634" r="8" class="c0"/>
<circle cx="1816" cy="520" r="8" class="c0"/>
<circle cx="1706" cy="654" r="8" class="c0"/>
<circle cx="1842" cy="668" r="8" class="c0"/>
<circle cx="1614" cy="580" r="8" class="c0"/>
<circle cx="1506" cy="532" r="8" class="c0"/>
<circle cx="1552" cy="802" r="8" class="c0"/>
<circle cx="1872" cy="782" r="8" class="c0"/>
<circle cx="1644" cy="792" r="8" class="c0"/>
<circle cx="1890" cy="1180" r="8" class="c0"/>
<circle cx="1780" cy="1200" r="8" class="c0"/>
<circle cx="1730" cy="1056" r="8" class="c0"/>
<circle cx="1356" cy="650" r="8" class="c0"/>
<circle cx="1750" cy="1142" r="8" class="c0"/>
<circle cx="1868" cy="1136" r="8" class="c0"/>
<circle cx="1346" cy="630" r="8" class="c0"/>
<circle cx="1656" cy="400" r="8" class="c0"/>
<circle cx="1754" cy="990" r="8" class="c0"/>
<circle cx="1908" cy="706" r="8" class="c0"/>
<circle cx="1558" cy="726" r="8" class="c0"/>
<circle cx="1442" cy="528" r="8" class="c0"/>
<circle cx="1824" cy="1148" r="8" class="c0"/>
<circle cx="1740" cy="438" r="8" class="c0"/>
<circle cx="1838" cy="1350" r="8" class="c0"/>
<circle cx="1794" cy="1002" r="8" class="c0"/>
<circle cx="1814" cy="1288" r="8" class="c0"/>
<circle cx="1896" cy="1316" r="8" class="c0"/>
<circle cx="1662" cy="610" r="8" class="c0"/>
<circle cx="1818" cy="1128" r="8" class="c0"/>
<circle cx="1650" cy="688" r="8" class="c0"/>
<circle cx="1506" cy="632" r="8" class="c0"/>
<circle cx="1906" cy="992" r="8" class="c0"/>
<circle cx="1858" cy="1400" r="8" class="c0"/>
<circle cx="1826" cy="836" r="8" class="c0"/>
<circle cx="1446" cy="586" r="8" class="c0"/>
<circle cx="1708" cy="490" r="8" class="c0"/>
<circle cx="1480" cy="856" r="8" class="c0"/>
<circle cx="1552" cy="864" r="8" class="c0"/>
<circle cx="1716" cy="1004" r="8" class="c0"/>
<circle cx="1664" cy="580" r="8" class="c0"/>
<circle cx="1492" cy="426" r="8" class="c0"/>
<circle cx="1770" cy="738" r="8" class="c0"/>
<circle cx="1860" cy="822" r="8" class="c0"/>
<circle cx="1516" cy="416" r="8" class="c0"/>
<circle cx="1578" cy="802" r="8" class="c0"/>
<circle cx="1896" cy="798" r="8" class="c0"/>
<circle cx="1492" cy="554" r="8" class="c0"/>
<circle cx="1866" cy="1224" r="8" class="c0"/>
<circle cx="1578" cy="474" r="8" class="c0"/>
<circle cx="1434" cy="704" r="8" class="c0"/>
<circle cx="1832" cy="1410" r="8" class="c0"/>
<circle cx="1882" cy="1332" r="8" class="c0"/>
<circle cx="1860" cy="1248" r="8" class="c0"/>
<circle cx="1356" cy="564" r="8" class="c0"/>
<circle cx="1478" cy="436" r="8" class="c0"/>
<circle cx="1534" cy="900" r="8" class="c0"/>
<circle cx="1908" cy="542" r="8" class="c0"/>
<circle cx="1376" cy="522" r="8" class="c0"/>
<circle cx="1604" cy="442" r="8" class="c0"/>
<circle cx="1420" cy="488" r="8" class="c0"/>
<circle cx="1700" cy="952" r="8" class="c0"/>
<circle cx="1904" cy="1020" r="8" class="c0"/>
<circle cx="1910" cy="784" r="8" class="c0"/>
<circle cx="1796" cy="912" r="8" class="c0"/>
<circle cx="1856" cy="774" r="8" class="c0"/>
<circle cx="1374" cy="616" r="8" class="c0"/>
<circle cx="1376" cy="568" r="8" class="c0"/>
<circle cx="1688" cy="1166" r="8" class="c0"/>
<circle cx="1822" cy="436" r="8" class="c0"/>
<circle cx="1660" cy="914" r="8" class="c0"/>
<circle cx="1704" cy="722" r="8" class="c0"/>
<circle cx="1484" cy="670" r="8" class="c0"/>
<circle cx="1770" cy="540" r="8" class="c0"/>
<circle cx="1444" cy="846" r="8" class="c0"/>
<circle cx="1396" cy="686" r="8" class="c0"/>
<circle cx="1464" cy="448" r="8" class="c0"/>
<circle cx="1836" cy="560" r="8" class="c0"/>
<circle cx="1820" cy="696" r="8" class="c0"/>
<circle cx="1890" cy="512" r="8" class="c0"/>
<circle cx="1770" cy="1002" r="8" class="c0"/>
<circle cx="1752" cy="612" r="8" class="c0"/>
<circle cx="1576" cy="868" r="8" class="c0"/>
<circle cx="1646" cy="428" r="8" class="c0"/>
<circle cx="1736" cy="488" r="8" class="c0"/>
<circle cx="1898" cy="818" r="8" class="c0"/>
<circle cx="1756" cy="488" r="8" class="c0"/>
<circle cx="1466" cy="844" r="8" class="c0"/>
<circle cx="1514" cy="688" r="8" class="c0"/>
<circle cx="1766" cy="1328" r="8" class="c0"/>
<circle cx="1880" cy="570" r="8" class="c0"/>
<circle cx="1384" cy="552" r="8" class="c0"/>
<circle cx="1786" cy="730" r="8" class="c0"/>
<circle cx="1632" cy="662" r="8" class="c0"/>
<circle cx="1808" cy="446" r="8" class="c0"/>
<circle cx="1464" cy="816" r="8" class="c0"/>
<circle cx="1796" cy="1254" r="8" class="c0"/>
<circle cx="1706" cy="1144" r="8" class="c0"/>
<circle cx="1684" cy="462" r="8" class="c0"/>
<circle cx="1470" cy="614" r="8" class="c0"/>
<circle cx="1896" cy="1216" r="8" class="c0"/>
<circle cx="1830" cy="602" r="8" class="c0"/>
<circle cx="1538" cy="410" r="8" class="c0"/>
<circle cx="1804" cy="1114" r="8" class="c0"/>
<circle cx="1458" cy="728" r="8" class="c0"/>
<circle cx="1636" cy="944" r="8" class="c0"/>
<circle cx="1710" cy="1110" r="8" class="c0"/>
<circle cx="1718" cy="1192" r="8" class="c0"/>
<circle cx="1464" cy="468" r="8" class="c0"/>
<circle cx="1754" cy="1358" r="8" class="c0"/>
<circle cx="1906" cy="1038" r="8" class="c0"/>
<circle cx="1660" cy="674" r="8" class="c0"/>
<circle cx="1828" cy="1376" r="8" class="c0"/>
<circle cx="1910" cy="596" r="8" class="c0"/>
<circle cx="1422" cy="714" r="6" class="c0"/>
<circle cx="1844" cy="946" r="6" class="c0"/>
<circle cx="1664" cy="466" r="6" class="c0"/>
<circle cx="1700" cy="794" r="6" class="c0"/>
<circle cx="1906" cy="520" r="6" class="c0"/>
<circle cx="1690" cy="942" r="6" class="c0"/>
<circle cx="1682" cy="1062" r="6" class="c0"/>
<circle cx="1662" cy="932" r="6" class="c0"/>
<circle cx="1864" cy="892" r="6" class="c0"/>
<circle cx="1858" cy="470" r="6" class="c0"/>
<circle cx="1716" cy="472" r="6" class="c0"/>
<circle cx="1548" cy="884" r="6" class="c0"/>
<circle cx="1698" cy="568" r="6" class="c0"/>
<circle cx="1842" cy="732" r="6" class="c0"/>
<circle cx="1536" cy="836" r="6" class="c0"/>
<circle cx="1818" cy="724" r="6" class="c0"/>
<circle cx="1520" cy="824" r="6" class="c0"/>
<circle cx="1534" cy="380" r="6" class="c0"/>
<circle cx="1836" cy="850" r="6" class="c0"/>
<circle cx="1556" cy="828" r="6" class="c0"/>
<circle cx="1800" cy="1076" r="6" class="c0"/>
<circle cx="1678" cy="796" r="6" class="c0"/>
<circle cx="1774" cy="1064" r="6" class="c0"/>
<circle cx="1680" cy="632" r="6" class="c0"/>
<circle cx="1478" cy="540" r="6" class="c0"/>
<circle cx="1672" cy="830" r="6" class="c0"/>
<circle cx="1460" cy="704" r="6" class="c0"/>
<circle cx="1904" cy="866" r="6" class="c0"/>
<circle cx="1830" cy="1028" r="6" class="c0"/>
<circle cx="1552" cy="678" r="6" class="c0"/>
<circle cx="1574" cy="728" r="6" class="c0"/>
<circle cx="1786" cy="686" r="6" class="c0"/>
<circle cx="1568" cy="716" r="6" class="c0"/>
<circle cx="1804" cy="880" r="6" class="c0"/>
<circle cx="1778" cy="1132" r="6" class="c0"/>
<circle cx="1884" cy="1062" r="6" class="c0"/>
<circle cx="1724" cy="588" r="6" class="c0"/>
<circle cx="1852" cy="758" r="6" class="c0"/>
<circle cx="1386" cy="666" r="6" class="c0"/>
<circle cx="1736" cy="1230" r="6" class="c0"/>
<circle cx="1768" cy="816" r="6" class="c0"/>
<circle cx="1442" cy="686" r="6" class="c0"/>
<circle cx="1816" cy="992" r="6" class="c0"/>
<circle cx="1482" cy="414" r="6" class="c0"/>
<circle cx="1706" cy="678" r="6" class="c0"/>
<circle cx="1592" cy="584" r="6" class="c0"/>
<circle cx="1828" cy="530" r="6" class="c0"/>
<circle cx="1668" cy="1036" r="6" class="c0"/>
<circle cx="1514" cy="654" r="6" class="c0"/>
<circle cx="1592" cy="692" r="6" class="c0"/>
<circle cx="1524" cy="776" r="6" class="c0"/>
<circle cx="1570" cy="550" r="6" class="c0"/>
<circle cx="1630" cy="770" r="6" class="c0"/>
<circle cx="1428" cy="732" r="6" class="c0"/>
<circle cx="1484" cy="490" r="6" class="c0"/>
<circle cx="1800" cy="960" r="6" class="c0"/>
<circle cx="1454" cy="830" r="6" class="c0"/>
<circle cx="1546" cy="664" r="6" class="c0"/>
<circle cx="1624" cy="380" r="6" class="c0"/>
<circle cx="1730" cy="984" r="6" class="c0"/>
<circle cx="1576" cy="848" r="6" class="c0"/>
<circle cx="1722" cy="380" r="6" class="c0"/>
<circle cx="1656" cy="958" r="6" class="c0"/>
<circle cx="1778" cy="382" r="6" class="c0"/>
<circle cx="1718" cy="1360" r="6" class="c0"/>
<circle cx="1404" cy="470" r="6" class="c0"/>
<circle cx="1888" cy="1278" r="6" class="c0"/>
<circle cx="1788" cy="600" r="6" class="c0"/>
<circle cx="1754" cy="748" r="6" class="c0"/>
<circle cx="1644" cy="580" r="6" class="c0"/>
<circle cx="1572" cy="434" r="6" class="c0"/>
<circle cx="1882" cy="1372" r="6" class="c0"/>
<circle cx="1782" cy="1338" r="6" class="c0"/>
<circle cx="1618" cy="476" r="6" class="c0"/>
<circle cx="1850" cy="978" r="6" class="c0"/>
<circle cx="1646" cy="528" r="6" class="c0"/>
<circle cx="1718" cy="664" r="6" class="c0"/>
<circle cx="1910" cy="1090" r="6" class="c0"/>
<circle cx="1776" cy="1242" r="6" class="c0"/>
<circle cx="1894" cy="458" r="6" class="c0"/>
<circle cx="1636" cy="726" r="6" class="c0"/>
<circle cx="1562" cy="560" r="6" class="c0"/>
<circle cx="1912" cy="808" r="6" class="c0"/>
<circle cx="1672" cy="924" r="6" class="c0"/>
<circle cx="1910" cy="762" r="6" class="c0"/>
<circle cx="1720" cy="632" r="6" class="c0"/>
<circle cx="1708" cy="1252" r="6" class="c0"/>
<circle cx="1584" cy="608" r="6" class="c0"/>
<circle cx="1622" cy="420" r="6" class="c0"/>
<circle cx="1856" cy="744" r="6" class="c0"/>
<circle cx="1862" cy="434" r="6" class="c0"/>
<circle cx="1808" cy="396" r="6" class="c0"/>
<circle cx="1746" cy="576" r="6" class="c0"/>
<circle cx="1830" cy="798" r="6" class="c0"/>
<circle cx="1784" cy="1172" r="6" class="c0"/>
<circle cx="1710" cy="786" r="6" class="c0"/>
<circle cx="1492" cy="398" r="6" class="c0"/>
<circle cx="1574" cy="696" r="6" class="c0"/>
<circle cx="1690" cy="1150" r="6" class="c0"/>
<circle cx="1714" cy="1048" r="6" class="c0"/>
<circle cx="1794" cy="1328" r="6" class="c0"/>
<circle cx="1306" cy="652" r="6" class="c0"/>
<circle cx="1698" cy="420" r="6" class="c0"/>
<circle cx="1780" cy="844" r="6" class="c0"/>
<circle cx="1708" cy="434" r="6" class="c0"/>
<circle cx="1628" cy="854" r="6" class="c0"/>
<circle cx="1792" cy="564" r="6" class="c0"/>
<circle cx="1598" cy="756" r="6" class="c0"/>
<circle cx="1706" cy="536" r="6" class="c0"/>
<circle cx="1612" cy="524" r="6" class="c0"/>
<circle cx="1730" cy="448" r="6" class="c0"/>
<circle cx="1724" cy="1096" r="6" class="c0"/>
<circle cx="1776" cy="882" r="6" class="c0"/>
<circle cx="1756" cy="566" r="6" class="c0"/>
<circle cx="1908" cy="726" r="6" class="c0"/>
<circle cx="1482" cy="872" r="6" class="c0"/>
<circle cx="1616" cy="454" r="6" class="c0"/>
<circle cx="1672" cy="1010" r="6" class="c0"/>
<circle cx="1658" cy="748" r="6" class="c0"/>
<circle cx="1860" cy="876" r="6" class="c0"/>
<circle cx="1436" cy="764" r="6" class="c0"/>
<circle cx="1638" cy="618" r="6" class="c0"/>
<circle cx="1812" cy="870" r="6" class="c0"/>
<circle cx="1816" cy="1304" r="6" class="c0"/>
<circle cx="1702" cy="1012" r="6" class="c0"/>
<circle cx="1356" cy="606" r="6" class="c0"/>
<circle cx="1742" cy="1070" r="6" class="c0"/>
<circle cx="1772" cy="858" r="6" class="c0"/>
<circle cx="1842" cy="644" r="6" class="c0"/>
<circle cx="1376" cy="698" r="6" class="c0"/>
<circle cx="1598" cy="784" r="6" class="c0"/>
<circle cx="1616" cy="626" r="6" class="c0"/>
<circle cx="1532" cy="870" r="6" class="c0"/>
<circle cx="1746" cy="780" r="6" class="c0"/>
<circle cx="1644" cy="444" r="6" class="c0"/>
<circle cx="1858" cy="716" r="6" class="c0"/>
<circle cx="1504" cy="744" r="6" class="c0"/>
<circle cx="1532" cy="512" r="6" class="c0"/>
<circle cx="1790" cy="1350" r="6" class="c0"/>
<circle cx="1842" cy="500" r="6" class="c0"/>
<circle cx="1848" cy="1190" r="6" class="c0"/>
<circle cx="1582" cy="442" r="6" class="c0"/>
<circle cx="1500" cy="390" r="6" class="c0"/>
<circle cx="1500" cy="408" r="6" class="c0"/>
<circle cx="1702" cy="406" r="6" class="c0"/>
<circle cx="1492" cy="844" r="6" class="c0"/>
<circle cx="1832" cy="544" r="6" class="c0"/>
<circle cx="1646" cy="552" r="6" class="c0"/>
<circle cx="1730" cy="952" r="6" class="c0"/>
<circle cx="1406" cy="674" r="6" class="c0"/>
<circle cx="1760" cy="668" r="6" class="c0"/>
<circle cx="1912" cy="1226" r="6" class="c0"/>
<circle cx="1874" cy="860" r="6" class="c0"/>
<circle cx="1824" cy="978" r="6" class="c0"/>
<circle cx="1526" cy="570" r="6" class="c0"/>
<circle cx="1688" cy="726" r="6" class="c0"/>
<circle cx="1866" cy="1156" r="6" class="c0"/>
<circle cx="1362" cy="706" r="6" class="c0"/>
<circle cx="1912" cy="854" r="6" class="c0"/>
<circle cx="1690" cy="576" r="6" class="c0"/>
<circle cx="1834" cy="652" r="6" class="c0"/>
<circle cx="1698" cy="762" r="6" class="c0"/>
<circle cx="1708" cy="984" r="6" class="c0"/>
<circle cx="1814" cy="804" r="6" class="c0"/>
<circle cx="1616" cy="654" r="6" class="c0"/>
<circle cx="1694" cy="1132" r="6" class="c0"/>
<circle cx="1430" cy="538" r="6" class="c0"/>
<circle cx="1912" cy="492" r="6" class="c0"/>
<circle cx="1818" cy="420" r="6" class="c0"/>
<circle cx="1640" cy="676" r="6" class="c0"/>
<circle cx="1718" cy="1266" r="6" class="c0"/>
<circle cx="1634" cy="1102" r="6" class="c0"/>
<circle cx="1544" cy="390" r="6" class="c0"/>
<circle cx="1708" cy="906" r="6" class="c0"/>
<circle cx="1882" cy="1266" r="6" class="c0"/>
<circle cx="1790" cy="1238" r="6" class="c0"/>
<circle cx="1672" cy="1134" r="6" class="c0"/>
<circle cx="1338" cy="564" r="6" class="c0"/>
<circle cx="1520" cy="434" r="6" class="c0"/>
<circle cx="1704" cy="1202" r="6" class="c0"/>
<circle cx="1506" cy="896" r="6" class="c0"/>
<circle cx="1414" cy="666" r="6" class="c0"/>
<circle cx="1658" cy="1102" r="6" class="c0"/>
<circle cx="1738" cy="1206" r="6" class="c0"/>
<circle cx="1622" cy="532" r="6" class="c0"/>
<circle cx="1534" cy="556" r="6" class="c0"/>
<circle cx="1804" cy="684" r="6" class="c0"/>
<circle cx="1558" cy="580" r="6" class="c0"/>
<circle cx="1826" cy="732" r="6" class="c0"/>
<circle cx="1866" cy="612" r="6" class="c0"/>
<circle cx="1882" cy="446" r="6" class="c0"/>
<circle cx="1544" cy="626" r="6" class="c0"/>
<circle cx="1654" cy="1024" r="6" class="c0"/>
<circle cx="1330" cy="596" r="6" class="c0"/>
<circle cx="1860" cy="800" r="6" class="c0"/>
<circle cx="1612" cy="428" r="6" class="c0"/>
<circle cx="1680" cy="934" r="6" class="c0"/>
<circle cx="1808" cy="1144" r="6" class="c0"/>
<circle cx="1674" cy="1156" r="6" class="c0"/>
<circle cx="1660" cy="700" r="6" class="c0"/>
<circle cx="1578" cy="522" r="6" class="c0"/>
<circle cx="1610" cy="466" r="6" class="c0"/>
<circle cx="1708" cy="924" r="6" class="c0"/>
<circle cx="1870" cy="1410" r="6" class="c0"/>
<circle cx="1442" cy="408" r="6" class="c0"/>
<circle cx="1842" cy="1426" r="6" class="c0"/>
<circle cx="1466" cy="530" r="6" class="c0"/>
<circle cx="1838" cy="906" r="6" class="c0"/>
<circle cx="1748" cy="392" r="6" class="c0"/>
<circle cx="1792" cy="968" r="6" class="c0"/>
<circle cx="1736" cy="1298" r="6" class="c0"/>
<circle cx="1678" cy="1202" r="6" class="c0"/>
<circle cx="1652" cy="648" r="6" class="c0"/>
<circle cx="1912" cy="690" r="6" class="c0"/>
<circle cx="1740" cy="810" r="6" class="c0"/>
<circle cx="1772" cy="1348" r="6" class="c0"/>
<circle cx="1652" cy="564" r="6" class="c0"/>
<circle cx="1792" cy="638" r="6" class="c0"/>
<circle cx="1910" cy="1392" r="6" class="c0"/>
<circle cx="1904" cy="466" r="6" class="c0"/>
<circle cx="1912" cy="1132" r="6" class="c0"/>
<circle cx="1598" cy="876" r="6" class="c0"/>
<circle cx="1784" cy="746" r="6" class="c0"/>
<circle cx="1810" cy="1226" r="6" class="c0"/>
<circle cx="1862" cy="1194" r="6" class="c0"/>
<circle cx="1912" cy="476" r="6" class="c0"/>
<circle cx="1746" cy="498" r="6" class="c0"/>
<circle cx="1498" cy="806" r="6" class="c0"/>
<circle cx="1888" cy="784" r="6" class="c0"/>
<circle cx="1380" cy="464" r="6" class="c0"/>
<circle cx="1450" cy="696" r="6" class="c0"/>
<circle cx="1784" cy="1390" r="6" class="c0"/>
<circle cx="1708" cy="1094" r="6" class="c0"/>
<circle cx="1816" cy="618" r="6" class="c0"/>
<circle cx="1800" cy="1312" r="6" class="c0"/>
<circle cx="1870" cy="1258" r="6" class="c0"/>
<circle cx="1426" cy="408" r="6" class="c0"/>
<circle cx="1418" cy="456" r="6" class="c0"/>
<circle cx="1498" cy="698" r="6" class="c0"/>
<circle cx="1796" cy="694" r="6" class="c0"/>
<circle cx="1808" cy="770" r="6" class="c0"/>
<circle cx="1806" cy="794" r="6" class="c0"/>
<circle cx="1774" cy="518" r="6" class="c0"/>
<circle cx="1736" cy="900" r="6" class="c0"/>
<circle cx="1850" cy="724" r="6" class="c0"/>
<circle cx="1698" cy="508" r="6" class="c0"/>
<circle cx="1586" cy="886" r="6" class="c0"/>
<circle cx="1738" cy="1312" r="6" class="c0"/>
<circle cx="1666" cy="978" r="6" class="c0"/>
<circle cx="1820" cy="880" r="6" class="c0"/>
<circle cx="1696" cy="896" r="6" class="c0"/>
<circle cx="1344" cy="660" r="6" class="c0"/>
<circle cx="1472" cy="736" r="6" class="c0"/>
<circle cx="1804" cy="862" r="6" class="c0"/>
<circle cx="1586" cy="816" r="6" class="c0"/>
<circle cx="1462" cy="578" r="6" class="c0"/>
<circle cx="1842" cy="518" r="6" class="c0"/>
<circle cx="1716" cy="572" r="6" class="c0"/>
<circle cx="1714" cy="1282" r="6" class="c0"/>
<circle cx="1700" cy="976" r="6" class="c0"/>
<circle cx="1862" cy="946" r="6" class="c0"/>
<circle cx="1698" cy="932" r="6" class="c0"/>
<circle cx="1472" cy="698" r="6" class="c0"/>
<circle cx="1722" cy="1134" r="6" class="c0"/>
<circle cx="1810" cy="410" r="6" class="c0"/>
<circle cx="1774" cy="1090" r="6" class="c0"/>
<circle cx="1832" cy="1064" r="6" class="c0"/>
<circle cx="1862" cy="1266" r="6" class="c0"/>
<circle cx="1810" cy="576" r="6" class="c0"/>
<circle cx="1808" cy="1062" r="6" class="c0"/>
<circle cx="1620" cy="982" r="6" class="c0"/>
<circle cx="1700" cy="810" r="6" class="c0"/>
<circle cx="1556" cy="460" r="6" class="c0"/>
<circle cx="1528" cy="844" r="6" class="c0"/>
<circle cx="1692" cy="802" r="6" class="c0"/>
<circle cx="1692" cy="988" r="6" class="c0"/>
<circle cx="1910" cy="1070" r="6" class="c0"/>
<circle cx="1646" cy="970" r="6" class="c0"/>
<circle cx="1884" cy="1106" r="6" class="c0"/>
<circle cx="1910" cy="1432" r="6" class="c0"/>
<circle cx="1716" cy="402" r="6" class="c0"/>
<circle cx="1802" cy="1414" r="6" class="c0"/>
<circle cx="1738" cy="732" r="6" class="c0"/>
<circle cx="1912" cy="1248" r="6" class="c0"/>
<circle cx="1792" cy="416" r="6" class="c0"/>
<circle cx="1678" cy="1186" r="6" class="c0"/>
<circle cx="1838" cy="826" r="6" class="c0"/>
<circle cx="1832" cy="1120" r="6" class="c0"/>
<circle cx="1606" cy="770" r="6" class="c0"/>
<circle cx="1416" cy="818" r="6" class="c0"/>
<circle cx="1476" cy="402" r="6" class="c0"/>
<circle cx="1428" cy="572" r="6" class="c0"/>
<circle cx="1840" cy="928" r="6" class="c0"/>
<circle cx="1640" cy="1156" r="6" class="c0"/>
<circle cx="1624" cy="1110" r="6" class="c0"/>
<circle cx="1458" cy="790" r="6" class="c0"/>
<circle cx="1764" cy="966" r="6" class="c0"/>
<circle cx="1706" cy="1230" r="6" class="c0"/>
<circle cx="1636" cy="452" r="6" class="c0"/>
<circle cx="1394" cy="450" r="6" class="c0"/>
<circle cx="1632" cy="1072" r="6" class="c0"/>
<circle cx="1314" cy="660" r="6" class="c0"/>
<circle cx="1652" cy="1072" r="6" class="c0"/>
<circle cx="1882" cy="1226" r="6" class="c0"/>
<circle cx="1912" cy="1318" r="6" class="c0"/>
<circle cx="1756" cy="1342" r="6" class="c0"/>
<circle cx="1604" cy="1070" r="6" class="c0"/>
<circle cx="1348" cy="676" r="6" class="c0"/>
<circle cx="1342" cy="608" r="6" class="c0"/>
<circle cx="1840" cy="1366" r="6" class="c0"/>
<circle cx="1908" cy="580" r="6" class="c0"/>
<circle cx="1896" cy="1286" r="6" class="c0"/>
<circle cx="1446" cy="738" r="6" class="c0"/>
<circle cx="1762" cy="696" r="6" class="c0"/>
<circle cx="1700" cy="998" r="6" class="c0"/>
<circle cx="1870" cy="1432" r="6" class="c0"/>
<circle cx="1530" cy="808" r="6" class="c0"/>
<circle cx="1706" cy="1126" r="6" class="c0"/>
<circle cx="1524" cy="476" r="6" class="c0"/>
<circle cx="1464" cy="872" r="6" class="c0"/>
<circle cx="1668" cy="1116" r="6" class="c0"/>
<circle cx="1368" cy="660" r="6" class="c0"/>
<circle cx="1648" cy="1212" r="6" class="c0"/>
<circle cx="1564" cy="854" r="6" class="c0"/>
<circle cx="1892" cy="1430" r="6" class="c0"/>
<circle cx="1912" cy="920" r="6" class="c0"/>
<circle cx="1420" cy="388" r="6" class="c0"/>
<circle cx="1830" cy="1242" r="6" class="c0"/>
<circle cx="1674" cy="1278" r="6" class="c0"/>
<circle cx="1848" cy="460" r="6" class="c0"/>
<circle cx="1688" cy="688" r="6" class="c0"/>
<circle cx="1468" cy="590" r="6" class="c0"/>
<circle cx="1358" cy="588" r="6" class="c0"/>
<circle cx="1590" cy="410" r="6" class="c0"/>
<circle cx="1726" cy="1290" r="6" class="c0"/>
<circle cx="1826" cy="1360" r="6" class="c0"/>
<circle cx="1386" cy="536" r="6" class="c0"/>
<circle cx="1816" cy="1408" r="6" class="c0"/>
<circle cx="1612" cy="1050" r="6" class="c0"/>
<circle cx="1438" cy="550" r="6" class="c0"/>
<circle cx="1804" cy="946" r="6" class="c0"/>
<circle cx="1444" cy="870" r="6" class="c0"/>
<circle cx="1642" cy="808" r="6" class="c0"/>
<circle cx="1760" cy="384" r="6" class="c0"/>
<circle cx="1346" cy="690" r="6" class="c0"/>
<circle cx="1764" cy="556" r="6" class="c0"/>
<circle cx="1604" cy="620" r="6" class="c0"/>
<circle cx="1456" cy="662" r="6" class="c0"/>
<circle cx="1402" cy="504" r="6" class="c0"/>
</svg>
