<?xml version="1.0" encoding="utf-8"?>
<svg xmlns="http://www.w3.org/2000/svg"
     xmlns:xlink="http://www.w3.org/1999/xlink" width="1920" height="1440" >

            <defs>
            <style type="text/css"><![CDATA[
circle {stroke: none;}
.c0 {fill: #FFFFFF;}
]]></style>
            </defs>
<rect x="0" y="0" width="1920" height="1440" fill="black"/>
<circle cx="660" cy="804" r="12" class="c0"/>
<circle cx="918" cy="800" r="12" class="c0"/>
<circle cx="556" cy="818" r="12" class="c0"/>
<circle cx="716" cy="806" r="12" class="c0"/>
<circle cx="576" cy="802" r="12" class="c0"/>
<circle cx="526" cy="804" r="12" class="c0"/>
<circle cx="872" cy="802" r="10" class="c0"/>
<circle cx="636" cy="816" r="10" class="c0"/>
<circle cx="768" cy="860" r="10" class="c0"/>
<circle cx="820" cy="808" r="10" class="c0"/>
<circle cx="468" cy="812" r="10" class="c0"/>
<circle cx="502" cy="812" r="10" class="c0"/>
<circle cx="764" cy="818" r="10" class="c0"/>
<circle cx="782" cy="794" r="10" class="c0"/>
<circle cx="844" cy="804" r="10" class="c0"/>
<circle cx="756" cy="788" r="10" class="c0"/>
<circle cx="600" cy="816" r="10" class="c0"/>
<circle cx="744" cy="750" r="10" class="c0"/>
<circle cx="740" cy="812" r="10" class="c0"/>
<circle cx="796" cy="810" r="10" class="c0"/>
<circle cx="688" cy="814" r="8" class="c0"/>
<circle cx="890" cy="792" r="8" class="c0"/>
<circle cx="860" cy="820" r="8" class="c0"/>
<circle cx="734" cy="786" r="8" class="c0"/>
<circle cx="772" cy="752" r="8" class="c0"/>
<circle cx="752" cy="838" r="8" class="c0"/>
<circle cx="882" cy="820" r="8" class="c0"/>
<circle cx="488" cy="800" r="8" class="c0"/>
<circle cx="422" cy="802" r="8" class="c0"/>
<circle cx="910" cy="828" r="8" class="c0"/>
<circle cx="770" cy="774" r="8" class="c0"/>
<circle cx="774" cy="840" r="8" class="c0"/>
<circle cx="608" cy="798" r="8" class="c0"/>
<circle cx="696" cy="796" r="8" class="c0"/>
<circle cx="760" cy="762" r="8" class="c0"/>
<circle cx="724" cy="830" r="8" class="c0"/>
<circle cx="446" cy="802" r="8" class="c0"/>
<circle cx="634" cy="796" r="8" class="c0"/>
<circle cx="898" cy="810" r="8" class="c0"/>
<circle cx="784" cy="828" r="8" class="c0"/>
<circle cx="742" cy="866" r="8" class="c0"/>
<circle cx="724" cy="764" r="8" class="c0"/>
<circle cx="432" cy="814" r="8" class="c0"/>
<circle cx="618" cy="808" r="8" class="c0"/>
<circle cx="404" cy="804" r="8" class="c0"/>
<circle cx="738" cy="848" r="8" class="c0"/>
<circle cx="536" cy="822" r="6" class="c0"/>
<circle cx="546" cy="800" r="6" class="c0"/>
<circle cx="514" cy="826" r="6" class="c0"/>
<circle cx="486" cy="820" r="6" class="c0"/>
<circle cx="832" cy="820" r="6" class="c0"/>
<circle cx="672" cy="820" r="6" class="c0"/>
<circle cx="744" cy="776" r="6" class="c0"/>
<circle cx="806" cy="796" r="6" class="c0"/>
<circle cx="452" cy="820" r="6" class="c0"/>
<circle cx="578" cy="822" r="6" class="c0"/>
<circle cx="760" cy="742" r="6" class="c0"/>
<circle cx="616" cy="824" r="6" class="c0"/>
<circle cx="808" cy="822" r="6" class="c0"/>
<circle cx="708" cy="824" r="6" class="c0"/>
<circle cx="678" cy="796" r="6" class="c0"/>
<circle cx="924" cy="820" r="6" class="c0"/>
<circle cx="658" cy="824" r="6" class="c0"/>
</svg>
