<?xml version="1.0" encoding="utf-8"?>
<svg xmlns="http://www.w3.org/2000/svg"
     xmlns:xlink="http://www.w3.org/1999/xlink" width="1920" height="1440" >

            <defs>
            <style type="text/css"><![CDATA[
circle {stroke: none;}
.c0 {fill: #FFFFFF;}
]]></style>
            </defs>
<rect x="0" y="0" width="1920" height="1440" fill="black"/>
<circle cx="1096" cy="810" r="12" class="c0"/>
<circle cx="1146" cy="810" r="12" class="c0"/>
<circle cx="1028" cy="834" r="12" class="c0"/>
<circle cx="1184" cy="820" r="12" class="c0"/>
<circle cx="914" cy="806" r="10" class="c0"/>
<circle cx="1034" cy="738" r="10" class="c0"/>
<circle cx="776" cy="808" r="10" class="c0"/>
<circle cx="1042" cy="762" r="10" class="c0"/>
<circle cx="1054" cy="844" r="10" class="c0"/>
<circle cx="978" cy="812" r="10" class="c0"/>
<circle cx="1000" cy="826" r="10" class="c0"/>
<circle cx="1200" cy="806" r="10" class="c0"/>
<circle cx="706" cy="812" r="10" class="c0"/>
<circle cx="648" cy="806" r="10" class="c0"/>
<circle cx="1038" cy="880" r="10" class="c0"/>
<circle cx="740" cy="802" r="10" class="c0"/>
<circle cx="860" cy="816" r="10" class="c0"/>
<circle cx="1228" cy="828" r="8" class="c0"/>
<circle cx="952" cy="806" r="8" class="c0"/>
<circle cx="694" cy="800" r="8" class="c0"/>
<circle cx="1060" cy="736" r="8" class="c0"/>
<circle cx="1234" cy="802" r="8" class="c0"/>
<circle cx="894" cy="810" r="8" class="c0"/>
<circle cx="1076" cy="824" r="8" class="c0"/>
<circle cx="1118" cy="820" r="8" class="c0"/>
<circle cx="1054" cy="814" r="8" class="c0"/>
<circle cx="672" cy="800" r="8" class="c0"/>
<circle cx="1028" cy="792" r="8" class="c0"/>
<circle cx="808" cy="818" r="8" class="c0"/>
<circle cx="818" cy="806" r="8" class="c0"/>
<circle cx="754" cy="814" r="8" class="c0"/>
<circle cx="1204" cy="830" r="8" class="c0"/>
<circle cx="882" cy="796" r="8" class="c0"/>
<circle cx="832" cy="796" r="8" class="c0"/>
<circle cx="726" cy="816" r="8" class="c0"/>
<circle cx="682" cy="812" r="8" class="c0"/>
<circle cx="1036" cy="860" r="8" class="c0"/>
<circle cx="1060" cy="794" r="8" class="c0"/>
<circle cx="824" cy="826" r="8" class="c0"/>
<circle cx="934" cy="816" r="8" class="c0"/>
<circle cx="1060" cy="884" r="8" class="c0"/>
<circle cx="996" cy="804" r="8" class="c0"/>
<circle cx="1044" cy="782" r="8" class="c0"/>
<circle cx="1062" cy="774" r="8" class="c0"/>
<circle cx="1166" cy="798" r="8" class="c0"/>
<circle cx="786" cy="826" r="8" class="c0"/>
<circle cx="1064" cy="866" r="8" class="c0"/>
<circle cx="880" cy="820" r="8" class="c0"/>
<circle cx="904" cy="822" r="8" class="c0"/>
<circle cx="922" cy="826" r="8" class="c0"/>
<circle cx="630" cy="802" r="6" class="c0"/>
<circle cx="852" cy="800" r="6" class="c0"/>
<circle cx="1070" cy="806" r="6" class="c0"/>
<circle cx="768" cy="826" r="6" class="c0"/>
<circle cx="928" cy="796" r="6" class="c0"/>
<circle cx="1012" cy="796" r="6" class="c0"/>
<circle cx="842" cy="826" r="6" class="c0"/>
<circle cx="1112" cy="796" r="6" class="c0"/>
<circle cx="744" cy="824" r="6" class="c0"/>
<circle cx="1126" cy="806" r="6" class="c0"/>
<circle cx="840" cy="812" r="6" class="c0"/>
<circle cx="1218" cy="792" r="6" class="c0"/>
<circle cx="794" cy="798" r="6" class="c0"/>
<circle cx="1190" cy="792" r="6" class="c0"/>
<circle cx="1030" cy="814" r="6" class="c0"/>
<circle cx="962" cy="828" r="6" class="c0"/>
<circle cx="942" cy="830" r="6" class="c0"/>
<circle cx="1042" cy="804" r="6" class="c0"/>
<circle cx="1092" cy="830" r="6" class="c0"/>
<circle cx="866" cy="798" r="6" class="c0"/>
<circle cx="1214" cy="816" r="6" class="c0"/>
</svg>
