<?xml version="1.0" encoding="utf-8"?>
<svg xmlns="http://www.w3.org/2000/svg"
     xmlns:xlink="http://www.w3.org/1999/xlink" width="1920" height="1440" >

            <defs>
            <style type="text/css"><![CDATA[
circle {stroke: none;}
.c0 {fill: #FFFFFF;}
]]></style>
            </defs>
<rect x="0" y="0" width="1920" height="1440" fill="black"/>
<circle cx="1048" cy="824" r="12" class="c0"/>
<circle cx="994" cy="818" r="12" class="c0"/>
<circle cx="722" cy="816" r="12" class="c0"/>
<circle cx="822" cy="822" r="12" class="c0"/>
<circle cx="962" cy="804" r="12" class="c0"/>
<circle cx="1274" cy="812" r="10" class="c0"/>
<circle cx="1188" cy="806" r="10" class="c0"/>
<circle cx="1088" cy="794" r="10" class="c0"/>
<circle cx="860" cy="802" r="10" class="c0"/>
<circle cx="1246" cy="810" r="10" class="c0"/>
<circle cx="784" cy="824" r="10" class="c0"/>
<circle cx="1162" cy="822" r="10" class="c0"/>
<circle cx="1114" cy="788" r="10" class="c0"/>
<circle cx="1272" cy="790" r="10" class="c0"/>
<circle cx="970" cy="826" r="10" class="c0"/>
<circle cx="1202" cy="822" r="10" class="c0"/>
<circle cx="1100" cy="866" r="10" class="c0"/>
<circle cx="674" cy="804" r="10" class="c0"/>
<circle cx="1060" cy="796" r="10" class="c0"/>
<circle cx="1084" cy="754" r="10" class="c0"/>
<circle cx="870" cy="820" r="10" class="c0"/>
<circle cx="1106" cy="818" r="10" class="c0"/>
<circle cx="910" cy="800" r="10" class="c0"/>
<circle cx="1228" cy="824" r="10" class="c0"/>
<circle cx="1088" cy="840" r="10" class="c0"/>
<circle cx="882" cy="804" r="10" class="c0"/>
<circle cx="910" cy="826" r="10" class="c0"/>
<circle cx="934" cy="820" r="8" class="c0"/>
<circle cx="1088" cy="732" r="8" class="c0"/>
<circle cx="1140" cy="814" r="8" class="c0"/>
<circle cx="770" cy="804" r="8" class="c0"/>
<circle cx="1094" cy="770" r="8" class="c0"/>
<circle cx="744" cy="802" r="8" class="c0"/>
<circle cx="1258" cy="824" r="8" class="c0"/>
<circle cx="984" cy="796" r="8" class="c0"/>
<circle cx="708" cy="800" r="8" class="c0"/>
<circle cx="1128" cy="830" r="8" class="c0"/>
<circle cx="1076" cy="864" r="8" class="c0"/>
<circle cx="1224" cy="798" r="8" class="c0"/>
<circle cx="1020" cy="818" r="8" class="c0"/>
<circle cx="1072" cy="814" r="8" class="c0"/>
<circle cx="1084" cy="886" r="8" class="c0"/>
<circle cx="1008" cy="802" r="8" class="c0"/>
<circle cx="1032" cy="800" r="8" class="c0"/>
<circle cx="834" cy="806" r="8" class="c0"/>
<circle cx="1134" cy="796" r="8" class="c0"/>
<circle cx="940" cy="798" r="8" class="c0"/>
<circle cx="1292" cy="822" r="8" class="c0"/>
<circle cx="746" cy="824" r="8" class="c0"/>
<circle cx="796" cy="812" r="8" class="c0"/>
<circle cx="694" cy="812" r="8" class="c0"/>
<circle cx="950" cy="832" r="6" class="c0"/>
<circle cx="890" cy="828" r="6" class="c0"/>
<circle cx="1102" cy="886" r="6" class="c0"/>
<circle cx="1062" cy="836" r="6" class="c0"/>
<circle cx="1156" cy="802" r="6" class="c0"/>
<circle cx="844" cy="832" r="6" class="c0"/>
<circle cx="1282" cy="836" r="6" class="c0"/>
<circle cx="1110" cy="758" r="6" class="c0"/>
<circle cx="1124" cy="806" r="6" class="c0"/>
<circle cx="1168" cy="796" r="6" class="c0"/>
<circle cx="1086" cy="822" r="6" class="c0"/>
<circle cx="1114" cy="838" r="6" class="c0"/>
<circle cx="1288" cy="802" r="6" class="c0"/>
<circle cx="1244" cy="790" r="6" class="c0"/>
<circle cx="1108" cy="736" r="6" class="c0"/>
<circle cx="806" cy="802" r="6" class="c0"/>
<circle cx="764" cy="828" r="6" class="c0"/>
<circle cx="1066" cy="776" r="6" class="c0"/>
<circle cx="1206" cy="798" r="6" class="c0"/>
<circle cx="654" cy="804" r="6" class="c0"/>
</svg>
