<?xml version="1.0" encoding="utf-8"?>
<svg xmlns="http://www.w3.org/2000/svg"
     xmlns:xlink="http://www.w3.org/1999/xlink" width="1920" height="1440" >

            <defs>
            <style type="text/css"><![CDATA[
circle {stroke: none;}
.c0 {fill: #FFFFFF;}
]]></style>
            </defs>
<rect x="0" y="0" width="1920" height="1440" fill="black"/>
<circle cx="1488" cy="760" r="12" class="c0"/>
<circle cx="1382" cy="768" r="12" class="c0"/>
<circle cx="900" cy="796" r="12" class="c0"/>
<circle cx="1160" cy="792" r="12" class="c0"/>
<circle cx="1472" cy="808" r="12" class="c0"/>
<circle cx="1428" cy="762" r="12" class="c0"/>
<circle cx="1248" cy="750" r="12" class="c0"/>
<circle cx="918" cy="764" r="12" class="c0"/>
<circle cx="1332" cy="778" r="12" class="c0"/>
<circle cx="1298" cy="780" r="12" class="c0"/>
<circle cx="1232" cy="866" r="12" class="c0"/>
<circle cx="880" cy="784" r="12" class="c0"/>
<circle cx="1014" cy="794" r="12" class="c0"/>
<circle cx="1054" cy="778" r="10" class="c0"/>
<circle cx="850" cy="780" r="10" class="c0"/>
<circle cx="1274" cy="764" r="10" class="c0"/>
<circle cx="1268" cy="816" r="10" class="c0"/>
<circle cx="1196" cy="792" r="10" class="c0"/>
<circle cx="960" cy="790" r="10" class="c0"/>
<circle cx="1076" cy="774" r="10" class="c0"/>
<circle cx="794" cy="788" r="10" class="c0"/>
<circle cx="1460" cy="788" r="10" class="c0"/>
<circle cx="1144" cy="776" r="10" class="c0"/>
<circle cx="1346" cy="762" r="10" class="c0"/>
<circle cx="998" cy="776" r="10" class="c0"/>
<circle cx="1040" cy="764" r="10" class="c0"/>
<circle cx="1204" cy="764" r="10" class="c0"/>
<circle cx="1132" cy="758" r="10" class="c0"/>
<circle cx="938" cy="774" r="10" class="c0"/>
<circle cx="1232" cy="734" r="10" class="c0"/>
<circle cx="1256" cy="846" r="10" class="c0"/>
<circle cx="1078" cy="796" r="10" class="c0"/>
<circle cx="1260" cy="708" r="10" class="c0"/>
<circle cx="1492" cy="784" r="10" class="c0"/>
<circle cx="1262" cy="776" r="10" class="c0"/>
<circle cx="1246" cy="800" r="10" class="c0"/>
<circle cx="1180" cy="766" r="10" class="c0"/>
<circle cx="812" cy="764" r="10" class="c0"/>
<circle cx="1248" cy="692" r="10" class="c0"/>
<circle cx="1464" cy="754" r="10" class="c0"/>
<circle cx="926" cy="788" r="10" class="c0"/>
<circle cx="984" cy="796" r="10" class="c0"/>
<circle cx="854" cy="760" r="8" class="c0"/>
<circle cx="1266" cy="678" r="8" class="c0"/>
<circle cx="762" cy="766" r="8" class="c0"/>
<circle cx="1222" cy="772" r="8" class="c0"/>
<circle cx="1268" cy="862" r="8" class="c0"/>
<circle cx="770" cy="786" r="8" class="c0"/>
<circle cx="964" cy="764" r="8" class="c0"/>
<circle cx="1114" cy="788" r="8" class="c0"/>
<circle cx="1090" cy="760" r="8" class="c0"/>
<circle cx="832" cy="762" r="8" class="c0"/>
<circle cx="736" cy="776" r="8" class="c0"/>
<circle cx="1220" cy="800" r="8" class="c0"/>
<circle cx="940" cy="800" r="8" class="c0"/>
<circle cx="1402" cy="780" r="8" class="c0"/>
<circle cx="1316" cy="796" r="8" class="c0"/>
<circle cx="790" cy="766" r="8" class="c0"/>
<circle cx="1422" cy="798" r="8" class="c0"/>
<circle cx="862" cy="794" r="8" class="c0"/>
<circle cx="1450" cy="768" r="8" class="c0"/>
<circle cx="824" cy="784" r="8" class="c0"/>
<circle cx="1108" cy="770" r="8" class="c0"/>
<circle cx="1360" cy="794" r="8" class="c0"/>
<circle cx="1044" cy="796" r="8" class="c0"/>
<circle cx="1016" cy="762" r="8" class="c0"/>
<circle cx="1242" cy="822" r="8" class="c0"/>
<circle cx="986" cy="764" r="8" class="c0"/>
<circle cx="1034" cy="784" r="8" class="c0"/>
<circle cx="1242" cy="780" r="8" class="c0"/>
<circle cx="974" cy="778" r="8" class="c0"/>
<circle cx="892" cy="760" r="8" class="c0"/>
<circle cx="1280" cy="804" r="8" class="c0"/>
<circle cx="1158" cy="756" r="8" class="c0"/>
<circle cx="1062" cy="760" r="8" class="c0"/>
<circle cx="718" cy="766" r="8" class="c0"/>
<circle cx="838" cy="798" r="8" class="c0"/>
<circle cx="1226" cy="840" r="8" class="c0"/>
<circle cx="1132" cy="798" r="8" class="c0"/>
<circle cx="1472" cy="776" r="8" class="c0"/>
<circle cx="1224" cy="820" r="8" class="c0"/>
<circle cx="1384" cy="792" r="8" class="c0"/>
<circle cx="1296" cy="758" r="8" class="c0"/>
<circle cx="1318" cy="762" r="8" class="c0"/>
<circle cx="1268" cy="726" r="8" class="c0"/>
<circle cx="1440" cy="778" r="8" class="c0"/>
<circle cx="1100" cy="800" r="8" class="c0"/>
<circle cx="1248" cy="724" r="8" class="c0"/>
<circle cx="1232" cy="684" r="6" class="c0"/>
<circle cx="1224" cy="756" r="6" class="c0"/>
<circle cx="1358" cy="774" r="6" class="c0"/>
<circle cx="1278" cy="784" r="6" class="c0"/>
<circle cx="1490" cy="740" r="6" class="c0"/>
<circle cx="820" cy="800" r="6" class="c0"/>
<circle cx="1270" cy="694" r="6" class="c0"/>
<circle cx="1268" cy="746" r="6" class="c0"/>
<circle cx="1446" cy="806" r="6" class="c0"/>
<circle cx="1092" cy="784" r="6" class="c0"/>
<circle cx="1178" cy="784" r="6" class="c0"/>
<circle cx="1406" cy="796" r="6" class="c0"/>
<circle cx="1340" cy="796" r="6" class="c0"/>
<circle cx="1400" cy="760" r="6" class="c0"/>
<circle cx="872" cy="760" r="6" class="c0"/>
<circle cx="1258" cy="878" r="6" class="c0"/>
<circle cx="1236" cy="764" r="6" class="c0"/>
<circle cx="1296" cy="802" r="6" class="c0"/>
<circle cx="1216" cy="746" r="6" class="c0"/>
<circle cx="1240" cy="708" r="6" class="c0"/>
<circle cx="1492" cy="812" r="6" class="c0"/>
<circle cx="1272" cy="838" r="6" class="c0"/>
<circle cx="1226" cy="698" r="6" class="c0"/>
<circle cx="942" cy="756" r="6" class="c0"/>
<circle cx="1230" cy="716" r="6" class="c0"/>
<circle cx="1178" cy="802" r="6" class="c0"/>
<circle cx="1270" cy="794" r="6" class="c0"/>
<circle cx="1418" cy="778" r="6" class="c0"/>
<circle cx="752" cy="778" r="6" class="c0"/>
<circle cx="866" cy="772" r="6" class="c0"/>
<circle cx="1438" cy="796" r="6" class="c0"/>
<circle cx="744" cy="762" r="6" class="c0"/>
<circle cx="1058" cy="806" r="6" class="c0"/>
<circle cx="902" cy="774" r="6" class="c0"/>
<circle cx="1000" cy="756" r="6" class="c0"/>
<circle cx="1364" cy="760" r="6" class="c0"/>
<circle cx="1444" cy="750" r="6" class="c0"/>
<circle cx="1246" cy="674" r="6" class="c0"/>
<circle cx="1124" cy="774" r="6" class="c0"/>
<circle cx="1162" cy="772" r="6" class="c0"/>
<circle cx="1282" cy="748" r="6" class="c0"/>
<circle cx="1252" cy="864" r="6" class="c0"/>
<circle cx="1230" cy="790" r="6" class="c0"/>
<circle cx="1370" cy="784" r="6" class="c0"/>
<circle cx="872" cy="804" r="6" class="c0"/>
<circle cx="1212" cy="782" r="6" class="c0"/>
<circle cx="1476" cy="742" r="6" class="c0"/>
<circle cx="780" cy="776" r="6" class="c0"/>
</svg>
