<?xml version="1.0" encoding="utf-8"?>
<svg xmlns="http://www.w3.org/2000/svg"
     xmlns:xlink="http://www.w3.org/1999/xlink" width="1920" height="1440" >

            <defs>
            <style type="text/css"><![CDATA[
circle {stroke: none;}
.c0 {fill: #FFFFFF;}
]]></style>
            </defs>
<rect x="0" y="0" width="1920" height="1440" fill="black"/>
<circle cx="1276" cy="852" r="12" class="c0"/>
<circle cx="1092" cy="772" r="12" class="c0"/>
<circle cx="1298" cy="766" r="12" class="c0"/>
<circle cx="1334" cy="784" r="12" class="c0"/>
<circle cx="1364" cy="772" r="12" class="c0"/>
<circle cx="1262" cy="782" r="12" class="c0"/>
<circle cx="1134" cy="748" r="12" class="c0"/>
<circle cx="830" cy="772" r="12" class="c0"/>
<circle cx="1294" cy="824" r="12" class="c0"/>
<circle cx="1498" cy="758" r="12" class="c0"/>
<circle cx="896" cy="784" r="10" class="c0"/>
<circle cx="978" cy="768" r="10" class="c0"/>
<circle cx="1164" cy="768" r="10" class="c0"/>
<circle cx="800" cy="776" r="10" class="c0"/>
<circle cx="884" cy="772" r="10" class="c0"/>
<circle cx="1306" cy="864" r="10" class="c0"/>
<circle cx="954" cy="778" r="10" class="c0"/>
<circle cx="1402" cy="780" r="10" class="c0"/>
<circle cx="1460" cy="758" r="10" class="c0"/>
<circle cx="1218" cy="752" r="10" class="c0"/>
<circle cx="1324" cy="742" r="10" class="c0"/>
<circle cx="1478" cy="746" r="10" class="c0"/>
<circle cx="1272" cy="808" r="10" class="c0"/>
<circle cx="1282" cy="686" r="10" class="c0"/>
<circle cx="1292" cy="798" r="10" class="c0"/>
<circle cx="1520" cy="780" r="10" class="c0"/>
<circle cx="924" cy="782" r="10" class="c0"/>
<circle cx="1028" cy="762" r="10" class="c0"/>
<circle cx="1004" cy="788" r="10" class="c0"/>
<circle cx="1300" cy="674" r="10" class="c0"/>
<circle cx="1242" cy="762" r="10" class="c0"/>
<circle cx="1434" cy="758" r="10" class="c0"/>
<circle cx="1298" cy="724" r="10" class="c0"/>
<circle cx="1254" cy="734" r="10" class="c0"/>
<circle cx="1392" cy="750" r="10" class="c0"/>
<circle cx="1194" cy="762" r="10" class="c0"/>
<circle cx="1046" cy="784" r="10" class="c0"/>
<circle cx="1312" cy="694" r="10" class="c0"/>
<circle cx="1134" cy="778" r="10" class="c0"/>
<circle cx="782" cy="766" r="10" class="c0"/>
<circle cx="924" cy="752" r="10" class="c0"/>
<circle cx="852" cy="768" r="8" class="c0"/>
<circle cx="1108" cy="788" r="8" class="c0"/>
<circle cx="1068" cy="778" r="8" class="c0"/>
<circle cx="1550" cy="784" r="8" class="c0"/>
<circle cx="1520" cy="738" r="8" class="c0"/>
<circle cx="1310" cy="842" r="8" class="c0"/>
<circle cx="1548" cy="762" r="8" class="c0"/>
<circle cx="1080" cy="754" r="8" class="c0"/>
<circle cx="860" cy="788" r="8" class="c0"/>
<circle cx="1184" cy="786" r="8" class="c0"/>
<circle cx="990" cy="754" r="8" class="c0"/>
<circle cx="736" cy="762" r="8" class="c0"/>
<circle cx="902" cy="758" r="8" class="c0"/>
<circle cx="804" cy="756" r="8" class="c0"/>
<circle cx="1538" cy="800" r="8" class="c0"/>
<circle cx="1080" cy="790" r="8" class="c0"/>
<circle cx="1162" cy="746" r="8" class="c0"/>
<circle cx="1056" cy="752" r="8" class="c0"/>
<circle cx="1284" cy="660" r="8" class="c0"/>
<circle cx="1430" cy="782" r="8" class="c0"/>
<circle cx="982" cy="790" r="8" class="c0"/>
<circle cx="1504" cy="792" r="8" class="c0"/>
<circle cx="1222" cy="782" r="8" class="c0"/>
<circle cx="760" cy="760" r="8" class="c0"/>
<circle cx="1380" cy="788" r="8" class="c0"/>
<circle cx="1310" cy="782" r="8" class="c0"/>
<circle cx="862" cy="756" r="8" class="c0"/>
<circle cx="1008" cy="760" r="8" class="c0"/>
<circle cx="1336" cy="758" r="8" class="c0"/>
<circle cx="1550" cy="734" r="8" class="c0"/>
<circle cx="882" cy="752" r="8" class="c0"/>
<circle cx="1240" cy="788" r="8" class="c0"/>
<circle cx="1460" cy="784" r="8" class="c0"/>
<circle cx="1180" cy="748" r="8" class="c0"/>
<circle cx="1166" cy="792" r="8" class="c0"/>
<circle cx="1520" cy="802" r="8" class="c0"/>
<circle cx="1282" cy="714" r="8" class="c0"/>
<circle cx="1206" cy="790" r="8" class="c0"/>
<circle cx="1276" cy="742" r="8" class="c0"/>
<circle cx="1530" cy="756" r="8" class="c0"/>
<circle cx="1266" cy="702" r="8" class="c0"/>
<circle cx="960" cy="756" r="8" class="c0"/>
<circle cx="1106" cy="746" r="8" class="c0"/>
<circle cx="1414" cy="764" r="8" class="c0"/>
<circle cx="1490" cy="782" r="8" class="c0"/>
<circle cx="1026" cy="788" r="8" class="c0"/>
<circle cx="1318" cy="800" r="8" class="c0"/>
<circle cx="838" cy="748" r="8" class="c0"/>
<circle cx="1346" cy="746" r="8" class="c0"/>
<circle cx="1116" cy="762" r="8" class="c0"/>
<circle cx="1474" cy="770" r="8" class="c0"/>
<circle cx="1276" cy="764" r="8" class="c0"/>
<circle cx="1038" cy="744" r="6" class="c0"/>
<circle cx="1314" cy="756" r="6" class="c0"/>
<circle cx="1446" cy="772" r="6" class="c0"/>
<circle cx="1494" cy="738" r="6" class="c0"/>
<circle cx="1260" cy="760" r="6" class="c0"/>
<circle cx="1010" cy="744" r="6" class="c0"/>
<circle cx="1304" cy="656" r="6" class="c0"/>
<circle cx="774" cy="748" r="6" class="c0"/>
<circle cx="1378" cy="760" r="6" class="c0"/>
<circle cx="1368" cy="752" r="6" class="c0"/>
<circle cx="1288" cy="870" r="6" class="c0"/>
<circle cx="1016" cy="776" r="6" class="c0"/>
<circle cx="1152" cy="780" r="6" class="c0"/>
<circle cx="1448" cy="746" r="6" class="c0"/>
<circle cx="1144" cy="792" r="6" class="c0"/>
<circle cx="1312" cy="816" r="6" class="c0"/>
<circle cx="718" cy="754" r="6" class="c0"/>
<circle cx="1296" cy="850" r="6" class="c0"/>
<circle cx="938" cy="770" r="6" class="c0"/>
<circle cx="1268" cy="722" r="6" class="c0"/>
<circle cx="1386" cy="768" r="6" class="c0"/>
<circle cx="940" cy="790" r="6" class="c0"/>
<circle cx="1200" cy="744" r="6" class="c0"/>
<circle cx="746" cy="750" r="6" class="c0"/>
<circle cx="1478" cy="792" r="6" class="c0"/>
<circle cx="1294" cy="698" r="6" class="c0"/>
<circle cx="1210" cy="772" r="6" class="c0"/>
<circle cx="1538" cy="774" r="6" class="c0"/>
<circle cx="1320" cy="676" r="6" class="c0"/>
<circle cx="950" cy="744" r="6" class="c0"/>
<circle cx="842" cy="788" r="6" class="c0"/>
<circle cx="1062" cy="794" r="6" class="c0"/>
<circle cx="1090" cy="744" r="6" class="c0"/>
<circle cx="1354" cy="790" r="6" class="c0"/>
<circle cx="1316" cy="716" r="6" class="c0"/>
<circle cx="1300" cy="746" r="6" class="c0"/>
<circle cx="822" cy="752" r="6" class="c0"/>
<circle cx="1240" cy="744" r="6" class="c0"/>
<circle cx="966" cy="792" r="6" class="c0"/>
<circle cx="1270" cy="830" r="6" class="c0"/>
<circle cx="1414" cy="744" r="6" class="c0"/>
<circle cx="1322" cy="768" r="6" class="c0"/>
<circle cx="1286" cy="752" r="6" class="c0"/>
<circle cx="1146" cy="766" r="6" class="c0"/>
<circle cx="814" cy="786" r="6" class="c0"/>
<circle cx="912" cy="794" r="6" class="c0"/>
<circle cx="880" cy="792" r="6" class="c0"/>
<circle cx="1046" cy="764" r="6" class="c0"/>
<circle cx="790" cy="748" r="6" class="c0"/>
</svg>
