<?xml version="1.0" encoding="utf-8"?>
<svg xmlns="http://www.w3.org/2000/svg"
     xmlns:xlink="http://www.w3.org/1999/xlink" width="1920" height="1440" >

            <defs>
            <style type="text/css"><![CDATA[
circle {stroke: none;}
.c0 {fill: #FFFFFF;}
]]></style>
            </defs>
<rect x="0" y="0" width="1920" height="1440" fill="black"/>
<circle cx="1066" cy="748" r="12" class="c0"/>
<circle cx="1398" cy="770" r="12" class="c0"/>
<circle cx="1574" cy="744" r="12" class="c0"/>
<circle cx="1506" cy="754" r="12" class="c0"/>
<circle cx="1394" cy="822" r="12" class="c0"/>
<circle cx="1424" cy="748" r="12" class="c0"/>
<circle cx="1180" cy="768" r="12" class="c0"/>
<circle cx="1634" cy="774" r="10" class="c0"/>
<circle cx="882" cy="746" r="10" class="c0"/>
<circle cx="746" cy="742" r="10" class="c0"/>
<circle cx="1392" cy="726" r="10" class="c0"/>
<circle cx="1314" cy="784" r="10" class="c0"/>
<circle cx="1414" cy="670" r="10" class="c0"/>
<circle cx="1380" cy="758" r="10" class="c0"/>
<circle cx="1378" cy="848" r="10" class="c0"/>
<circle cx="1142" cy="738" r="10" class="c0"/>
<circle cx="1678" cy="788" r="10" class="c0"/>
<circle cx="1110" cy="756" r="10" class="c0"/>
<circle cx="962" cy="756" r="10" class="c0"/>
<circle cx="1016" cy="782" r="10" class="c0"/>
<circle cx="952" cy="738" r="10" class="c0"/>
<circle cx="1648" cy="762" r="10" class="c0"/>
<circle cx="1382" cy="674" r="10" class="c0"/>
<circle cx="1140" cy="778" r="10" class="c0"/>
<circle cx="1212" cy="776" r="10" class="c0"/>
<circle cx="1370" cy="698" r="10" class="c0"/>
<circle cx="1342" cy="758" r="10" class="c0"/>
<circle cx="1222" cy="750" r="10" class="c0"/>
<circle cx="864" cy="782" r="10" class="c0"/>
<circle cx="1430" cy="774" r="10" class="c0"/>
<circle cx="1104" cy="778" r="10" class="c0"/>
<circle cx="1644" cy="796" r="10" class="c0"/>
<circle cx="1552" cy="768" r="10" class="c0"/>
<circle cx="850" cy="744" r="10" class="c0"/>
<circle cx="1680" cy="758" r="10" class="c0"/>
<circle cx="1192" cy="734" r="10" class="c0"/>
<circle cx="1612" cy="760" r="10" class="c0"/>
<circle cx="1256" cy="732" r="10" class="c0"/>
<circle cx="1360" cy="746" r="10" class="c0"/>
<circle cx="1088" cy="758" r="10" class="c0"/>
<circle cx="1288" cy="784" r="10" class="c0"/>
<circle cx="1314" cy="756" r="10" class="c0"/>
<circle cx="768" cy="746" r="8" class="c0"/>
<circle cx="1268" cy="782" r="8" class="c0"/>
<circle cx="1332" cy="774" r="8" class="c0"/>
<circle cx="938" cy="760" r="8" class="c0"/>
<circle cx="1368" cy="776" r="8" class="c0"/>
<circle cx="1042" cy="738" r="8" class="c0"/>
<circle cx="1364" cy="814" r="8" class="c0"/>
<circle cx="1096" cy="740" r="8" class="c0"/>
<circle cx="1440" cy="736" r="8" class="c0"/>
<circle cx="1484" cy="732" r="8" class="c0"/>
<circle cx="1392" cy="876" r="8" class="c0"/>
<circle cx="1388" cy="642" r="8" class="c0"/>
<circle cx="1152" cy="754" r="8" class="c0"/>
<circle cx="1266" cy="760" r="8" class="c0"/>
<circle cx="1296" cy="732" r="8" class="c0"/>
<circle cx="1356" cy="724" r="8" class="c0"/>
<circle cx="1416" cy="798" r="8" class="c0"/>
<circle cx="1012" cy="760" r="8" class="c0"/>
<circle cx="1406" cy="700" r="8" class="c0"/>
<circle cx="996" cy="736" r="8" class="c0"/>
<circle cx="838" cy="778" r="8" class="c0"/>
<circle cx="810" cy="746" r="8" class="c0"/>
<circle cx="932" cy="778" r="8" class="c0"/>
<circle cx="1452" cy="780" r="8" class="c0"/>
<circle cx="980" cy="784" r="8" class="c0"/>
<circle cx="1534" cy="780" r="8" class="c0"/>
<circle cx="1032" cy="748" r="8" class="c0"/>
<circle cx="986" cy="748" r="8" class="c0"/>
<circle cx="958" cy="790" r="8" class="c0"/>
<circle cx="1414" cy="838" r="8" class="c0"/>
<circle cx="1656" cy="722" r="8" class="c0"/>
<circle cx="1576" cy="778" r="8" class="c0"/>
<circle cx="1042" cy="766" r="8" class="c0"/>
<circle cx="1132" cy="760" r="8" class="c0"/>
<circle cx="1278" cy="738" r="8" class="c0"/>
<circle cx="1508" cy="780" r="8" class="c0"/>
<circle cx="1246" cy="782" r="8" class="c0"/>
<circle cx="932" cy="740" r="8" class="c0"/>
<circle cx="1458" cy="744" r="8" class="c0"/>
<circle cx="1396" cy="794" r="8" class="c0"/>
<circle cx="792" cy="758" r="8" class="c0"/>
<circle cx="1402" cy="852" r="8" class="c0"/>
<circle cx="1602" cy="740" r="8" class="c0"/>
<circle cx="1396" cy="662" r="8" class="c0"/>
<circle cx="902" cy="762" r="8" class="c0"/>
<circle cx="1472" cy="754" r="8" class="c0"/>
<circle cx="1380" cy="806" r="8" class="c0"/>
<circle cx="1054" cy="788" r="8" class="c0"/>
<circle cx="1666" cy="738" r="8" class="c0"/>
<circle cx="1626" cy="744" r="8" class="c0"/>
<circle cx="1248" cy="762" r="8" class="c0"/>
<circle cx="1492" cy="772" r="8" class="c0"/>
<circle cx="868" cy="762" r="8" class="c0"/>
<circle cx="1332" cy="730" r="8" class="c0"/>
<circle cx="1080" cy="790" r="8" class="c0"/>
<circle cx="822" cy="758" r="8" class="c0"/>
<circle cx="1530" cy="748" r="8" class="c0"/>
<circle cx="1604" cy="784" r="8" class="c0"/>
<circle cx="1588" cy="730" r="8" class="c0"/>
<circle cx="1190" cy="788" r="8" class="c0"/>
<circle cx="1284" cy="758" r="8" class="c0"/>
<circle cx="1236" cy="734" r="8" class="c0"/>
<circle cx="1354" cy="676" r="8" class="c0"/>
<circle cx="1394" cy="686" r="8" class="c0"/>
<circle cx="1350" cy="788" r="8" class="c0"/>
<circle cx="1410" cy="636" r="8" class="c0"/>
<circle cx="1616" cy="724" r="8" class="c0"/>
<circle cx="1540" cy="738" r="8" class="c0"/>
<circle cx="910" cy="786" r="8" class="c0"/>
<circle cx="1418" cy="712" r="8" class="c0"/>
<circle cx="1368" cy="870" r="8" class="c0"/>
<circle cx="1656" cy="780" r="8" class="c0"/>
<circle cx="910" cy="734" r="8" class="c0"/>
<circle cx="784" cy="738" r="8" class="c0"/>
<circle cx="1166" cy="740" r="8" class="c0"/>
<circle cx="1368" cy="638" r="8" class="c0"/>
<circle cx="1478" cy="782" r="8" class="c0"/>
<circle cx="1016" cy="736" r="8" class="c0"/>
<circle cx="1064" cy="772" r="8" class="c0"/>
<circle cx="1116" cy="732" r="8" class="c0"/>
<circle cx="1444" cy="762" r="8" class="c0"/>
<circle cx="1590" cy="756" r="8" class="c0"/>
<circle cx="1640" cy="732" r="8" class="c0"/>
<circle cx="1374" cy="656" r="8" class="c0"/>
<circle cx="882" cy="774" r="8" class="c0"/>
<circle cx="1678" cy="728" r="8" class="c0"/>
<circle cx="994" cy="772" r="8" class="c0"/>
<circle cx="1170" cy="786" r="8" class="c0"/>
<circle cx="1400" cy="744" r="8" class="c0"/>
<circle cx="1194" cy="754" r="8" class="c0"/>
<circle cx="1524" cy="768" r="8" class="c0"/>
<circle cx="830" cy="742" r="8" class="c0"/>
<circle cx="808" cy="768" r="8" class="c0"/>
<circle cx="1410" cy="872" r="8" class="c0"/>
<circle cx="1388" cy="706" r="8" class="c0"/>
<circle cx="970" cy="774" r="8" class="c0"/>
<circle cx="1122" cy="786" r="8" class="c0"/>
<circle cx="1666" cy="802" r="8" class="c0"/>
<circle cx="1366" cy="836" r="8" class="c0"/>
<circle cx="1622" cy="786" r="8" class="c0"/>
<circle cx="920" cy="758" r="8" class="c0"/>
<circle cx="1438" cy="790" r="6" class="c0"/>
<circle cx="870" cy="734" r="6" class="c0"/>
<circle cx="1426" cy="728" r="6" class="c0"/>
<circle cx="1374" cy="734" r="6" class="c0"/>
<circle cx="1566" cy="788" r="6" class="c0"/>
<circle cx="1382" cy="784" r="6" class="c0"/>
<circle cx="1314" cy="734" r="6" class="c0"/>
<circle cx="1406" cy="808" r="6" class="c0"/>
<circle cx="1372" cy="720" r="6" class="c0"/>
<circle cx="1076" cy="732" r="6" class="c0"/>
<circle cx="1518" cy="734" r="6" class="c0"/>
<circle cx="1462" cy="764" r="6" class="c0"/>
<circle cx="1036" cy="784" r="6" class="c0"/>
<circle cx="1226" cy="786" r="6" class="c0"/>
<circle cx="1366" cy="798" r="6" class="c0"/>
<circle cx="1500" cy="734" r="6" class="c0"/>
<circle cx="948" cy="772" r="6" class="c0"/>
<circle cx="1230" cy="768" r="6" class="c0"/>
<circle cx="1408" cy="652" r="6" class="c0"/>
<circle cx="1416" cy="822" r="6" class="c0"/>
<circle cx="996" cy="790" r="6" class="c0"/>
<circle cx="1216" cy="732" r="6" class="c0"/>
<circle cx="894" cy="788" r="6" class="c0"/>
<circle cx="1688" cy="742" r="6" class="c0"/>
<circle cx="1630" cy="716" r="6" class="c0"/>
<circle cx="970" cy="740" r="6" class="c0"/>
<circle cx="726" cy="742" r="6" class="c0"/>
<circle cx="1358" cy="850" r="6" class="c0"/>
<circle cx="850" cy="768" r="6" class="c0"/>
<circle cx="1328" cy="746" r="6" class="c0"/>
<circle cx="1358" cy="766" r="6" class="c0"/>
<circle cx="1154" cy="788" r="6" class="c0"/>
<circle cx="1462" cy="726" r="6" class="c0"/>
<circle cx="1412" cy="734" r="6" class="c0"/>
<circle cx="1334" cy="792" r="6" class="c0"/>
<circle cx="840" cy="758" r="6" class="c0"/>
<circle cx="776" cy="760" r="6" class="c0"/>
<circle cx="1594" cy="774" r="6" class="c0"/>
<circle cx="1158" cy="774" r="6" class="c0"/>
<circle cx="1588" cy="788" r="6" class="c0"/>
<circle cx="1680" cy="712" r="6" class="c0"/>
<circle cx="756" cy="756" r="6" class="c0"/>
<circle cx="1554" cy="748" r="6" class="c0"/>
<circle cx="1120" cy="770" r="6" class="c0"/>
<circle cx="1558" cy="734" r="6" class="c0"/>
<circle cx="1668" cy="770" r="6" class="c0"/>
<circle cx="1690" cy="774" r="6" class="c0"/>
<circle cx="900" cy="744" r="6" class="c0"/>
<circle cx="1026" cy="768" r="6" class="c0"/>
<circle cx="1298" cy="748" r="6" class="c0"/>
<circle cx="1302" cy="768" r="6" class="c0"/>
<circle cx="800" cy="736" r="6" class="c0"/>
<circle cx="1056" cy="730" r="6" class="c0"/>
<circle cx="980" cy="764" r="6" class="c0"/>
<circle cx="894" cy="732" r="6" class="c0"/>
<circle cx="980" cy="732" r="6" class="c0"/>
<circle cx="1354" cy="648" r="6" class="c0"/>
<circle cx="1246" cy="746" r="6" class="c0"/>
<circle cx="1416" cy="688" r="6" class="c0"/>
<circle cx="822" cy="776" r="6" class="c0"/>
<circle cx="1650" cy="742" r="6" class="c0"/>
<circle cx="942" cy="788" r="6" class="c0"/>
<circle cx="1364" cy="666" r="6" class="c0"/>
<circle cx="1412" cy="782" r="6" class="c0"/>
</svg>
