<?xml version="1.0" encoding="utf-8"?>
<svg xmlns="http://www.w3.org/2000/svg"
     xmlns:xlink="http://www.w3.org/1999/xlink" width="1920" height="1440" >

            <defs>
            <style type="text/css"><![CDATA[
circle {stroke: none;}
.c0 {fill: #FFFFFF;}
]]></style>
            </defs>
<rect x="0" y="0" width="1920" height="1440" fill="black"/>
<circle cx="1558" cy="726" r="12" class="c0"/>
<circle cx="1902" cy="676" r="12" class="c0"/>
<circle cx="1244" cy="688" r="12" class="c0"/>
<circle cx="1784" cy="670" r="12" class="c0"/>
<circle cx="1298" cy="700" r="12" class="c0"/>
<circle cx="1628" cy="726" r="12" class="c0"/>
<circle cx="1628" cy="682" r="12" class="c0"/>
<circle cx="1900" cy="760" r="12" class="c0"/>
<circle cx="1676" cy="692" r="12" class="c0"/>
<circle cx="1536" cy="760" r="12" class="c0"/>
<circle cx="1324" cy="728" r="12" class="c0"/>
<circle cx="1612" cy="744" r="12" class="c0"/>
<circle cx="1712" cy="696" r="12" class="c0"/>
<circle cx="1856" cy="694" r="12" class="c0"/>
<circle cx="1176" cy="736" r="10" class="c0"/>
<circle cx="1712" cy="724" r="10" class="c0"/>
<circle cx="1724" cy="754" r="10" class="c0"/>
<circle cx="1316" cy="754" r="10" class="c0"/>
<circle cx="1828" cy="742" r="10" class="c0"/>
<circle cx="1652" cy="704" r="10" class="c0"/>
<circle cx="1512" cy="670" r="10" class="c0"/>
<circle cx="1264" cy="716" r="10" class="c0"/>
<circle cx="1602" cy="720" r="10" class="c0"/>
<circle cx="1890" cy="704" r="10" class="c0"/>
<circle cx="1362" cy="718" r="10" class="c0"/>
<circle cx="1822" cy="698" r="10" class="c0"/>
<circle cx="1424" cy="708" r="10" class="c0"/>
<circle cx="1752" cy="666" r="10" class="c0"/>
<circle cx="1438" cy="680" r="10" class="c0"/>
<circle cx="1582" cy="696" r="10" class="c0"/>
<circle cx="1354" cy="674" r="10" class="c0"/>
<circle cx="1896" cy="730" r="10" class="c0"/>
<circle cx="1182" cy="700" r="10" class="c0"/>
<circle cx="1866" cy="728" r="10" class="c0"/>
<circle cx="1480" cy="704" r="10" class="c0"/>
<circle cx="1228" cy="740" r="10" class="c0"/>
<circle cx="1534" cy="680" r="10" class="c0"/>
<circle cx="1796" cy="756" r="10" class="c0"/>
<circle cx="1772" cy="734" r="10" class="c0"/>
<circle cx="1564" cy="670" r="10" class="c0"/>
<circle cx="1838" cy="712" r="10" class="c0"/>
<circle cx="1846" cy="664" r="10" class="c0"/>
<circle cx="1804" cy="684" r="10" class="c0"/>
<circle cx="1766" cy="766" r="10" class="c0"/>
<circle cx="1316" cy="676" r="10" class="c0"/>
<circle cx="1844" cy="772" r="10" class="c0"/>
<circle cx="1810" cy="722" r="10" class="c0"/>
<circle cx="1698" cy="682" r="10" class="c0"/>
<circle cx="1146" cy="706" r="10" class="c0"/>
<circle cx="1110" cy="716" r="10" class="c0"/>
<circle cx="1676" cy="736" r="8" class="c0"/>
<circle cx="1696" cy="710" r="8" class="c0"/>
<circle cx="1386" cy="720" r="8" class="c0"/>
<circle cx="1486" cy="670" r="8" class="c0"/>
<circle cx="1508" cy="756" r="8" class="c0"/>
<circle cx="1748" cy="698" r="8" class="c0"/>
<circle cx="1870" cy="772" r="8" class="c0"/>
<circle cx="1396" cy="758" r="8" class="c0"/>
<circle cx="1794" cy="736" r="8" class="c0"/>
<circle cx="1882" cy="744" r="8" class="c0"/>
<circle cx="1544" cy="706" r="8" class="c0"/>
<circle cx="1602" cy="768" r="8" class="c0"/>
<circle cx="1752" cy="716" r="8" class="c0"/>
<circle cx="1340" cy="716" r="8" class="c0"/>
<circle cx="1374" cy="758" r="8" class="c0"/>
<circle cx="1530" cy="718" r="8" class="c0"/>
<circle cx="1088" cy="716" r="8" class="c0"/>
<circle cx="1678" cy="668" r="8" class="c0"/>
<circle cx="1662" cy="678" r="8" class="c0"/>
<circle cx="1580" cy="724" r="8" class="c0"/>
<circle cx="1498" cy="714" r="8" class="c0"/>
<circle cx="1458" cy="682" r="8" class="c0"/>
<circle cx="1448" cy="742" r="8" class="c0"/>
<circle cx="1282" cy="676" r="8" class="c0"/>
<circle cx="1590" cy="748" r="8" class="c0"/>
<circle cx="1414" cy="692" r="8" class="c0"/>
<circle cx="1794" cy="708" r="8" class="c0"/>
<circle cx="1210" cy="724" r="8" class="c0"/>
<circle cx="1660" cy="756" r="8" class="c0"/>
<circle cx="1162" cy="722" r="8" class="c0"/>
<circle cx="1266" cy="750" r="8" class="c0"/>
<circle cx="1464" cy="716" r="8" class="c0"/>
<circle cx="1640" cy="752" r="8" class="c0"/>
<circle cx="1826" cy="676" r="8" class="c0"/>
<circle cx="1568" cy="762" r="8" class="c0"/>
<circle cx="1366" cy="740" r="8" class="c0"/>
<circle cx="1878" cy="686" r="8" class="c0"/>
<circle cx="1698" cy="758" r="8" class="c0"/>
<circle cx="1434" cy="728" r="8" class="c0"/>
<circle cx="1280" cy="734" r="8" class="c0"/>
<circle cx="1452" cy="706" r="8" class="c0"/>
<circle cx="1230" cy="712" r="8" class="c0"/>
<circle cx="1622" cy="762" r="8" class="c0"/>
<circle cx="1688" cy="726" r="8" class="c0"/>
<circle cx="1862" cy="750" r="8" class="c0"/>
<circle cx="1334" cy="698" r="8" class="c0"/>
<circle cx="1478" cy="728" r="8" class="c0"/>
<circle cx="1676" cy="716" r="8" class="c0"/>
<circle cx="1352" cy="750" r="8" class="c0"/>
<circle cx="1442" cy="760" r="8" class="c0"/>
<circle cx="1756" cy="744" r="8" class="c0"/>
<circle cx="1112" cy="696" r="8" class="c0"/>
<circle cx="1360" cy="698" r="8" class="c0"/>
<circle cx="1870" cy="666" r="8" class="c0"/>
<circle cx="1726" cy="676" r="8" class="c0"/>
<circle cx="1424" cy="758" r="8" class="c0"/>
<circle cx="1646" cy="670" r="8" class="c0"/>
<circle cx="1736" cy="730" r="8" class="c0"/>
<circle cx="1592" cy="674" r="8" class="c0"/>
<circle cx="1220" cy="680" r="8" class="c0"/>
<circle cx="1604" cy="700" r="8" class="c0"/>
<circle cx="1494" cy="738" r="8" class="c0"/>
<circle cx="1242" cy="728" r="8" class="c0"/>
<circle cx="1384" cy="700" r="8" class="c0"/>
<circle cx="1892" cy="654" r="8" class="c0"/>
<circle cx="1484" cy="762" r="8" class="c0"/>
<circle cx="1674" cy="768" r="8" class="c0"/>
<circle cx="1166" cy="684" r="8" class="c0"/>
<circle cx="1516" cy="728" r="8" class="c0"/>
<circle cx="1778" cy="692" r="8" class="c0"/>
<circle cx="1806" cy="774" r="8" class="c0"/>
<circle cx="1066" cy="706" r="8" class="c0"/>
<circle cx="1336" cy="760" r="8" class="c0"/>
<circle cx="1518" cy="704" r="8" class="c0"/>
<circle cx="1298" cy="738" r="8" class="c0"/>
<circle cx="1408" cy="734" r="8" class="c0"/>
<circle cx="1804" cy="658" r="8" class="c0"/>
<circle cx="1132" cy="692" r="8" class="c0"/>
<circle cx="1618" cy="660" r="8" class="c0"/>
<circle cx="1650" cy="732" r="8" class="c0"/>
<circle cx="1192" cy="722" r="8" class="c0"/>
<circle cx="1386" cy="748" r="8" class="c0"/>
<circle cx="1404" cy="716" r="8" class="c0"/>
<circle cx="1820" cy="764" r="8" class="c0"/>
<circle cx="1568" cy="708" r="8" class="c0"/>
<circle cx="1502" cy="688" r="8" class="c0"/>
<circle cx="1696" cy="660" r="8" class="c0"/>
<circle cx="1210" cy="700" r="8" class="c0"/>
<circle cx="1134" cy="724" r="8" class="c0"/>
<circle cx="1078" cy="694" r="8" class="c0"/>
<circle cx="1466" cy="666" r="8" class="c0"/>
<circle cx="1382" cy="670" r="8" class="c0"/>
<circle cx="1734" cy="712" r="8" class="c0"/>
<circle cx="1472" cy="752" r="8" class="c0"/>
<circle cx="1524" cy="744" r="6" class="c0"/>
<circle cx="1416" cy="676" r="6" class="c0"/>
<circle cx="1566" cy="688" r="6" class="c0"/>
<circle cx="1848" cy="736" r="6" class="c0"/>
<circle cx="1912" cy="742" r="6" class="c0"/>
<circle cx="1632" cy="704" r="6" class="c0"/>
<circle cx="1910" cy="648" r="6" class="c0"/>
<circle cx="1890" cy="776" r="6" class="c0"/>
<circle cx="1310" cy="716" r="6" class="c0"/>
<circle cx="1268" cy="688" r="6" class="c0"/>
<circle cx="1202" cy="742" r="6" class="c0"/>
<circle cx="1660" cy="658" r="6" class="c0"/>
<circle cx="1728" cy="772" r="6" class="c0"/>
<circle cx="1186" cy="680" r="6" class="c0"/>
<circle cx="1478" cy="686" r="6" class="c0"/>
<circle cx="1734" cy="656" r="6" class="c0"/>
<circle cx="1776" cy="710" r="6" class="c0"/>
<circle cx="1766" cy="702" r="6" class="c0"/>
<circle cx="1712" cy="774" r="6" class="c0"/>
<circle cx="1908" cy="710" r="6" class="c0"/>
<circle cx="1532" cy="736" r="6" class="c0"/>
<circle cx="1548" cy="746" r="6" class="c0"/>
<circle cx="1708" cy="744" r="6" class="c0"/>
<circle cx="1350" cy="732" r="6" class="c0"/>
<circle cx="1298" cy="672" r="6" class="c0"/>
<circle cx="1250" cy="746" r="6" class="c0"/>
<circle cx="1374" cy="686" r="6" class="c0"/>
<circle cx="1750" cy="776" r="6" class="c0"/>
<circle cx="1636" cy="658" r="6" class="c0"/>
<circle cx="1746" cy="754" r="6" class="c0"/>
<circle cx="1200" cy="682" r="6" class="c0"/>
<circle cx="1682" cy="754" r="6" class="c0"/>
<circle cx="1286" cy="714" r="6" class="c0"/>
<circle cx="1644" cy="774" r="6" class="c0"/>
<circle cx="1052" cy="698" r="6" class="c0"/>
<circle cx="1398" cy="684" r="6" class="c0"/>
<circle cx="1282" cy="752" r="6" class="c0"/>
<circle cx="1094" cy="698" r="6" class="c0"/>
<circle cx="1536" cy="662" r="6" class="c0"/>
<circle cx="1404" cy="666" r="6" class="c0"/>
<circle cx="1148" cy="688" r="6" class="c0"/>
<circle cx="1260" cy="734" r="6" class="c0"/>
<circle cx="1596" cy="658" r="6" class="c0"/>
<circle cx="1788" cy="774" r="6" class="c0"/>
<circle cx="1826" cy="652" r="6" class="c0"/>
<circle cx="1618" cy="710" r="6" class="c0"/>
<circle cx="1714" cy="658" r="6" class="c0"/>
<circle cx="1448" cy="666" r="6" class="c0"/>
<circle cx="1344" cy="688" r="6" class="c0"/>
<circle cx="1460" cy="766" r="6" class="c0"/>
<circle cx="1126" cy="708" r="6" class="c0"/>
<circle cx="1336" cy="742" r="6" class="c0"/>
<circle cx="1572" cy="744" r="6" class="c0"/>
<circle cx="1764" cy="684" r="6" class="c0"/>
<circle cx="1842" cy="682" r="6" class="c0"/>
<circle cx="1266" cy="674" r="6" class="c0"/>
<circle cx="1906" cy="780" r="6" class="c0"/>
<circle cx="1278" cy="696" r="6" class="c0"/>
<circle cx="1550" cy="660" r="6" class="c0"/>
<circle cx="1318" cy="702" r="6" class="c0"/>
<circle cx="1458" cy="732" r="6" class="c0"/>
<circle cx="1842" cy="752" r="6" class="c0"/>
<circle cx="1736" cy="688" r="6" class="c0"/>
<circle cx="1226" cy="696" r="6" class="c0"/>
<circle cx="1554" cy="696" r="6" class="c0"/>
<circle cx="1910" cy="694" r="6" class="c0"/>
<circle cx="1772" cy="656" r="6" class="c0"/>
<circle cx="1610" cy="674" r="6" class="c0"/>
<circle cx="1690" cy="744" r="6" class="c0"/>
<circle cx="1660" cy="722" r="6" class="c0"/>
</svg>
