<?xml version="1.0" encoding="utf-8"?>
<svg xmlns="http://www.w3.org/2000/svg"
     xmlns:xlink="http://www.w3.org/1999/xlink" width="1920" height="1440" >

            <defs>
            <style type="text/css"><![CDATA[
circle {stroke: none;}
.c0 {fill: #FFFFFF;}
]]></style>
            </defs>
<rect x="0" y="0" width="1920" height="1440" fill="black"/>
<circle cx="648" cy="850" r="14" class="c0"/>
<circle cx="146" cy="768" r="14" class="c0"/>
<circle cx="688" cy="840" r="14" class="c0"/>
<circle cx="1830" cy="776" r="12" class="c0"/>
<circle cx="146" cy="826" r="12" class="c0"/>
<circle cx="452" cy="800" r="12" class="c0"/>
<circle cx="980" cy="838" r="12" class="c0"/>
<circle cx="1494" cy="814" r="12" class="c0"/>
<circle cx="330" cy="828" r="12" class="c0"/>
<circle cx="1886" cy="768" r="12" class="c0"/>
<circle cx="830" cy="794" r="12" class="c0"/>
<circle cx="1590" cy="778" r="12" class="c0"/>
<circle cx="1560" cy="824" r="12" class="c0"/>
<circle cx="254" cy="798" r="12" class="c0"/>
<circle cx="56" cy="834" r="12" class="c0"/>
<circle cx="326" cy="796" r="12" class="c0"/>
<circle cx="596" cy="796" r="12" class="c0"/>
<circle cx="1512" cy="830" r="12" class="c0"/>
<circle cx="1460" cy="734" r="12" class="c0"/>
<circle cx="356" cy="794" r="12" class="c0"/>
<circle cx="1104" cy="758" r="12" class="c0"/>
<circle cx="1378" cy="780" r="12" class="c0"/>
<circle cx="34" cy="872" r="12" class="c0"/>
<circle cx="782" cy="820" r="12" class="c0"/>
<circle cx="1048" cy="750" r="12" class="c0"/>
<circle cx="1330" cy="756" r="12" class="c0"/>
<circle cx="1794" cy="736" r="12" class="c0"/>
<circle cx="18" cy="832" r="12" class="c0"/>
<circle cx="1484" cy="858" r="12" class="c0"/>
<circle cx="520" cy="764" r="12" class="c0"/>
<circle cx="632" cy="768" r="12" class="c0"/>
<circle cx="1660" cy="754" r="12" class="c0"/>
<circle cx="1206" cy="848" r="12" class="c0"/>
<circle cx="1148" cy="792" r="12" class="c0"/>
<circle cx="1802" cy="788" r="12" class="c0"/>
<circle cx="1584" cy="834" r="12" class="c0"/>
<circle cx="1422" cy="834" r="12" class="c0"/>
<circle cx="1766" cy="754" r="12" class="c0"/>
<circle cx="940" cy="820" r="12" class="c0"/>
<circle cx="1906" cy="782" r="12" class="c0"/>
<circle cx="246" cy="836" r="12" class="c0"/>
<circle cx="974" cy="788" r="12" class="c0"/>
<circle cx="446" cy="846" r="12" class="c0"/>
<circle cx="376" cy="824" r="12" class="c0"/>
<circle cx="352" cy="852" r="12" class="c0"/>
<circle cx="1174" cy="804" r="12" class="c0"/>
<circle cx="80" cy="870" r="12" class="c0"/>
<circle cx="1436" cy="788" r="12" class="c0"/>
<circle cx="808" cy="784" r="12" class="c0"/>
<circle cx="1548" cy="782" r="12" class="c0"/>
<circle cx="64" cy="802" r="12" class="c0"/>
<circle cx="396" cy="848" r="12" class="c0"/>
<circle cx="1584" cy="730" r="12" class="c0"/>
<circle cx="372" cy="760" r="12" class="c0"/>
<circle cx="482" cy="782" r="12" class="c0"/>
<circle cx="894" cy="792" r="10" class="c0"/>
<circle cx="1660" cy="846" r="10" class="c0"/>
<circle cx="1354" cy="818" r="10" class="c0"/>
<circle cx="812" cy="814" r="10" class="c0"/>
<circle cx="1412" cy="802" r="10" class="c0"/>
<circle cx="418" cy="814" r="10" class="c0"/>
<circle cx="204" cy="1428" r="10" class="c0"/>
<circle cx="1734" cy="798" r="10" class="c0"/>
<circle cx="674" cy="782" r="10" class="c0"/>
<circle cx="1122" cy="820" r="10" class="c0"/>
<circle cx="1418" cy="742" r="10" class="c0"/>
<circle cx="710" cy="784" r="10" class="c0"/>
<circle cx="672" cy="806" r="10" class="c0"/>
<circle cx="866" cy="744" r="10" class="c0"/>
<circle cx="1740" cy="740" r="10" class="c0"/>
<circle cx="270" cy="856" r="10" class="c0"/>
<circle cx="1722" cy="828" r="10" class="c0"/>
<circle cx="234" cy="778" r="10" class="c0"/>
<circle cx="524" cy="852" r="10" class="c0"/>
<circle cx="338" cy="756" r="10" class="c0"/>
<circle cx="1692" cy="1412" r="10" class="c0"/>
<circle cx="440" cy="748" r="10" class="c0"/>
<circle cx="130" cy="800" r="10" class="c0"/>
<circle cx="1638" cy="840" r="10" class="c0"/>
<circle cx="550" cy="788" r="10" class="c0"/>
<circle cx="204" cy="1340" r="10" class="c0"/>
<circle cx="1600" cy="752" r="10" class="c0"/>
<circle cx="300" cy="786" r="10" class="c0"/>
<circle cx="1664" cy="816" r="10" class="c0"/>
<circle cx="490" cy="806" r="10" class="c0"/>
<circle cx="1104" cy="796" r="10" class="c0"/>
<circle cx="788" cy="752" r="10" class="c0"/>
<circle cx="1042" cy="778" r="10" class="c0"/>
<circle cx="312" cy="840" r="10" class="c0"/>
<circle cx="588" cy="832" r="10" class="c0"/>
<circle cx="484" cy="742" r="10" class="c0"/>
<circle cx="298" cy="854" r="10" class="c0"/>
<circle cx="1200" cy="784" r="10" class="c0"/>
<circle cx="1856" cy="776" r="10" class="c0"/>
<circle cx="722" cy="828" r="10" class="c0"/>
<circle cx="1368" cy="736" r="10" class="c0"/>
<circle cx="1212" cy="738" r="10" class="c0"/>
<circle cx="986" cy="770" r="10" class="c0"/>
<circle cx="566" cy="806" r="10" class="c0"/>
<circle cx="328" cy="860" r="10" class="c0"/>
<circle cx="296" cy="808" r="10" class="c0"/>
<circle cx="504" cy="830" r="10" class="c0"/>
<circle cx="1354" cy="748" r="10" class="c0"/>
<circle cx="730" cy="794" r="10" class="c0"/>
<circle cx="90" cy="824" r="10" class="c0"/>
<circle cx="1684" cy="758" r="10" class="c0"/>
<circle cx="422" cy="844" r="10" class="c0"/>
<circle cx="1292" cy="754" r="10" class="c0"/>
<circle cx="564" cy="776" r="10" class="c0"/>
<circle cx="212" cy="1362" r="10" class="c0"/>
<circle cx="836" cy="754" r="10" class="c0"/>
<circle cx="1504" cy="740" r="10" class="c0"/>
<circle cx="1708" cy="754" r="10" class="c0"/>
<circle cx="1208" cy="820" r="10" class="c0"/>
<circle cx="196" cy="784" r="10" class="c0"/>
<circle cx="430" cy="776" r="10" class="c0"/>
<circle cx="1108" cy="734" r="10" class="c0"/>
<circle cx="900" cy="738" r="10" class="c0"/>
<circle cx="908" cy="814" r="10" class="c0"/>
<circle cx="1262" cy="768" r="10" class="c0"/>
<circle cx="174" cy="1384" r="10" class="c0"/>
<circle cx="776" cy="774" r="10" class="c0"/>
<circle cx="202" cy="864" r="10" class="c0"/>
<circle cx="860" cy="780" r="10" class="c0"/>
<circle cx="1898" cy="700" r="10" class="c0"/>
<circle cx="1876" cy="798" r="10" class="c0"/>
<circle cx="40" cy="820" r="10" class="c0"/>
<circle cx="1862" cy="840" r="10" class="c0"/>
<circle cx="736" cy="766" r="10" class="c0"/>
<circle cx="860" cy="820" r="10" class="c0"/>
<circle cx="1016" cy="818" r="10" class="c0"/>
<circle cx="1712" cy="726" r="10" class="c0"/>
<circle cx="476" cy="856" r="10" class="c0"/>
<circle cx="714" cy="806" r="10" class="c0"/>
<circle cx="996" cy="740" r="10" class="c0"/>
<circle cx="1078" cy="794" r="10" class="c0"/>
<circle cx="1796" cy="838" r="10" class="c0"/>
<circle cx="1700" cy="784" r="10" class="c0"/>
<circle cx="190" cy="1412" r="10" class="c0"/>
<circle cx="768" cy="796" r="10" class="c0"/>
<circle cx="1832" cy="816" r="10" class="c0"/>
<circle cx="224" cy="826" r="10" class="c0"/>
<circle cx="1782" cy="826" r="10" class="c0"/>
<circle cx="1754" cy="838" r="10" class="c0"/>
<circle cx="1630" cy="814" r="10" class="c0"/>
<circle cx="180" cy="822" r="10" class="c0"/>
<circle cx="1232" cy="844" r="10" class="c0"/>
<circle cx="860" cy="844" r="10" class="c0"/>
<circle cx="1890" cy="740" r="10" class="c0"/>
<circle cx="1166" cy="738" r="10" class="c0"/>
<circle cx="1756" cy="808" r="10" class="c0"/>
<circle cx="46" cy="766" r="10" class="c0"/>
<circle cx="624" cy="792" r="10" class="c0"/>
<circle cx="974" cy="732" r="10" class="c0"/>
<circle cx="22" cy="802" r="10" class="c0"/>
<circle cx="282" cy="842" r="10" class="c0"/>
<circle cx="1062" cy="826" r="10" class="c0"/>
<circle cx="1852" cy="740" r="10" class="c0"/>
<circle cx="894" cy="764" r="10" class="c0"/>
<circle cx="1382" cy="804" r="10" class="c0"/>
<circle cx="1226" cy="796" r="10" class="c0"/>
<circle cx="628" cy="816" r="10" class="c0"/>
<circle cx="648" cy="738" r="10" class="c0"/>
<circle cx="1628" cy="760" r="10" class="c0"/>
<circle cx="1604" cy="818" r="10" class="c0"/>
<circle cx="618" cy="848" r="10" class="c0"/>
<circle cx="146" cy="856" r="10" class="c0"/>
<circle cx="1080" cy="754" r="10" class="c0"/>
<circle cx="1282" cy="830" r="10" class="c0"/>
<circle cx="298" cy="764" r="10" class="c0"/>
<circle cx="178" cy="876" r="10" class="c0"/>
<circle cx="946" cy="790" r="10" class="c0"/>
<circle cx="1188" cy="772" r="10" class="c0"/>
<circle cx="1394" cy="764" r="10" class="c0"/>
<circle cx="1064" cy="774" r="10" class="c0"/>
<circle cx="596" cy="758" r="10" class="c0"/>
<circle cx="1468" cy="782" r="10" class="c0"/>
<circle cx="870" cy="802" r="10" class="c0"/>
<circle cx="406" cy="770" r="10" class="c0"/>
<circle cx="1728" cy="770" r="10" class="c0"/>
<circle cx="1902" cy="630" r="10" class="c0"/>
<circle cx="1326" cy="800" r="10" class="c0"/>
<circle cx="1480" cy="750" r="10" class="c0"/>
<circle cx="318" cy="772" r="10" class="c0"/>
<circle cx="536" cy="812" r="10" class="c0"/>
<circle cx="1544" cy="842" r="10" class="c0"/>
<circle cx="1240" cy="816" r="10" class="c0"/>
<circle cx="932" cy="774" r="10" class="c0"/>
<circle cx="716" cy="734" r="10" class="c0"/>
<circle cx="1810" cy="762" r="10" class="c0"/>
<circle cx="1026" cy="762" r="10" class="c0"/>
<circle cx="1160" cy="764" r="8" class="c0"/>
<circle cx="80" cy="770" r="8" class="c0"/>
<circle cx="1042" cy="842" r="8" class="c0"/>
<circle cx="1314" cy="722" r="8" class="c0"/>
<circle cx="1522" cy="790" r="8" class="c0"/>
<circle cx="1040" cy="806" r="8" class="c0"/>
<circle cx="746" cy="822" r="8" class="c0"/>
<circle cx="1140" cy="748" r="8" class="c0"/>
<circle cx="1358" cy="792" r="8" class="c0"/>
<circle cx="694" cy="744" r="8" class="c0"/>
<circle cx="1472" cy="836" r="8" class="c0"/>
<circle cx="10" cy="876" r="8" class="c0"/>
<circle cx="520" cy="788" r="8" class="c0"/>
<circle cx="114" cy="818" r="8" class="c0"/>
<circle cx="1186" cy="832" r="8" class="c0"/>
<circle cx="1744" cy="26" r="8" class="c0"/>
<circle cx="964" cy="750" r="8" class="c0"/>
<circle cx="960" cy="830" r="8" class="c0"/>
<circle cx="1024" cy="840" r="8" class="c0"/>
<circle cx="560" cy="848" r="8" class="c0"/>
<circle cx="1624" cy="738" r="8" class="c0"/>
<circle cx="104" cy="778" r="8" class="c0"/>
<circle cx="166" cy="834" r="8" class="c0"/>
<circle cx="1552" cy="758" r="8" class="c0"/>
<circle cx="1014" cy="726" r="8" class="c0"/>
<circle cx="768" cy="834" r="8" class="c0"/>
<circle cx="1250" cy="756" r="8" class="c0"/>
<circle cx="786" cy="844" r="8" class="c0"/>
<circle cx="404" cy="750" r="8" class="c0"/>
<circle cx="1560" cy="742" r="8" class="c0"/>
<circle cx="1440" cy="752" r="8" class="c0"/>
<circle cx="1906" cy="654" r="8" class="c0"/>
<circle cx="734" cy="850" r="8" class="c0"/>
<circle cx="1678" cy="794" r="8" class="c0"/>
<circle cx="1294" cy="732" r="8" class="c0"/>
<circle cx="554" cy="824" r="8" class="c0"/>
<circle cx="1526" cy="760" r="8" class="c0"/>
<circle cx="1618" cy="842" r="8" class="c0"/>
<circle cx="658" cy="768" r="8" class="c0"/>
<circle cx="544" cy="766" r="8" class="c0"/>
<circle cx="54" cy="860" r="8" class="c0"/>
<circle cx="754" cy="852" r="8" class="c0"/>
<circle cx="1360" cy="848" r="8" class="c0"/>
<circle cx="606" cy="824" r="8" class="c0"/>
<circle cx="822" cy="846" r="8" class="c0"/>
<circle cx="1448" cy="822" r="8" class="c0"/>
<circle cx="946" cy="850" r="8" class="c0"/>
<circle cx="470" cy="834" r="8" class="c0"/>
<circle cx="926" cy="744" r="8" class="c0"/>
<circle cx="1504" cy="762" r="8" class="c0"/>
<circle cx="1128" cy="758" r="8" class="c0"/>
<circle cx="1258" cy="838" r="8" class="c0"/>
<circle cx="978" cy="814" r="8" class="c0"/>
<circle cx="1752" cy="50" r="8" class="c0"/>
<circle cx="652" cy="794" r="8" class="c0"/>
<circle cx="1334" cy="730" r="8" class="c0"/>
<circle cx="1508" cy="780" r="8" class="c0"/>
<circle cx="916" cy="784" r="8" class="c0"/>
<circle cx="1068" cy="736" r="8" class="c0"/>
<circle cx="1812" cy="824" r="8" class="c0"/>
<circle cx="162" cy="788" r="8" class="c0"/>
<circle cx="450" cy="770" r="8" class="c0"/>
<circle cx="380" cy="784" r="8" class="c0"/>
<circle cx="1144" cy="824" r="8" class="c0"/>
<circle cx="1002" cy="842" r="8" class="c0"/>
<circle cx="1398" cy="846" r="8" class="c0"/>
<circle cx="216" cy="1284" r="8" class="c0"/>
<circle cx="1698" cy="1390" r="8" class="c0"/>
<circle cx="512" cy="804" r="8" class="c0"/>
<circle cx="928" cy="802" r="8" class="c0"/>
<circle cx="1898" cy="846" r="8" class="c0"/>
<circle cx="162" cy="66" r="8" class="c0"/>
<circle cx="690" cy="766" r="8" class="c0"/>
<circle cx="174" cy="50" r="8" class="c0"/>
<circle cx="396" cy="800" r="8" class="c0"/>
<circle cx="138" cy="878" r="8" class="c0"/>
<circle cx="1230" cy="776" r="8" class="c0"/>
<circle cx="762" cy="758" r="8" class="c0"/>
<circle cx="672" cy="752" r="8" class="c0"/>
<circle cx="212" cy="1396" r="8" class="c0"/>
<circle cx="1772" cy="792" r="8" class="c0"/>
<circle cx="218" cy="1414" r="8" class="c0"/>
<circle cx="846" cy="808" r="8" class="c0"/>
<circle cx="808" cy="754" r="8" class="c0"/>
<circle cx="1158" cy="836" r="8" class="c0"/>
<circle cx="1304" cy="772" r="8" class="c0"/>
<circle cx="1000" cy="792" r="8" class="c0"/>
<circle cx="124" cy="832" r="8" class="c0"/>
<circle cx="490" cy="762" r="8" class="c0"/>
<circle cx="162" cy="1418" r="8" class="c0"/>
<circle cx="272" cy="820" r="8" class="c0"/>
<circle cx="172" cy="776" r="8" class="c0"/>
<circle cx="1648" cy="806" r="8" class="c0"/>
<circle cx="466" cy="816" r="8" class="c0"/>
<circle cx="1632" cy="792" r="8" class="c0"/>
<circle cx="48" cy="788" r="8" class="c0"/>
<circle cx="104" cy="844" r="8" class="c0"/>
<circle cx="446" cy="870" r="8" class="c0"/>
<circle cx="194" cy="834" r="8" class="c0"/>
<circle cx="1086" cy="828" r="8" class="c0"/>
<circle cx="1298" cy="810" r="8" class="c0"/>
<circle cx="1328" cy="822" r="8" class="c0"/>
<circle cx="254" cy="770" r="8" class="c0"/>
<circle cx="956" cy="770" r="8" class="c0"/>
<circle cx="558" cy="750" r="8" class="c0"/>
<circle cx="1818" cy="744" r="8" class="c0"/>
<circle cx="716" cy="756" r="8" class="c0"/>
<circle cx="284" cy="750" r="8" class="c0"/>
<circle cx="464" cy="760" r="8" class="c0"/>
<circle cx="620" cy="750" r="8" class="c0"/>
<circle cx="1308" cy="824" r="8" class="c0"/>
<circle cx="1678" cy="734" r="8" class="c0"/>
<circle cx="920" cy="830" r="8" class="c0"/>
<circle cx="1060" cy="802" r="8" class="c0"/>
<circle cx="1696" cy="820" r="8" class="c0"/>
<circle cx="218" cy="760" r="8" class="c0"/>
<circle cx="1688" cy="1380" r="8" class="c0"/>
<circle cx="108" cy="798" r="8" class="c0"/>
<circle cx="886" cy="826" r="8" class="c0"/>
<circle cx="1890" cy="822" r="8" class="c0"/>
<circle cx="1268" cy="802" r="8" class="c0"/>
<circle cx="1540" cy="748" r="8" class="c0"/>
<circle cx="882" cy="780" r="8" class="c0"/>
<circle cx="492" cy="866" r="8" class="c0"/>
<circle cx="1790" cy="770" r="8" class="c0"/>
<circle cx="180" cy="86" r="8" class="c0"/>
<circle cx="1558" cy="854" r="8" class="c0"/>
<circle cx="768" cy="736" r="8" class="c0"/>
<circle cx="1202" cy="756" r="8" class="c0"/>
<circle cx="1862" cy="756" r="8" class="c0"/>
<circle cx="8" cy="814" r="8" class="c0"/>
<circle cx="1382" cy="748" r="8" class="c0"/>
<circle cx="1608" cy="726" r="8" class="c0"/>
<circle cx="1282" cy="780" r="8" class="c0"/>
<circle cx="1582" cy="804" r="8" class="c0"/>
<circle cx="670" cy="862" r="8" class="c0"/>
<circle cx="1536" cy="822" r="8" class="c0"/>
<circle cx="736" cy="728" r="8" class="c0"/>
<circle cx="194" cy="74" r="8" class="c0"/>
<circle cx="1248" cy="788" r="8" class="c0"/>
<circle cx="1024" cy="740" r="8" class="c0"/>
<circle cx="1700" cy="846" r="8" class="c0"/>
<circle cx="1848" cy="826" r="8" class="c0"/>
<circle cx="1384" cy="830" r="8" class="c0"/>
<circle cx="808" cy="728" r="8" class="c0"/>
<circle cx="1866" cy="818" r="8" class="c0"/>
<circle cx="14" cy="780" r="8" class="c0"/>
<circle cx="1310" cy="842" r="8" class="c0"/>
<circle cx="278" cy="776" r="8" class="c0"/>
<circle cx="1122" cy="778" r="8" class="c0"/>
<circle cx="1658" cy="790" r="8" class="c0"/>
<circle cx="1292" cy="792" r="8" class="c0"/>
<circle cx="412" cy="790" r="8" class="c0"/>
<circle cx="1826" cy="842" r="8" class="c0"/>
<circle cx="1108" cy="844" r="8" class="c0"/>
<circle cx="1572" cy="768" r="8" class="c0"/>
<circle cx="870" cy="764" r="8" class="c0"/>
<circle cx="1250" cy="736" r="8" class="c0"/>
<circle cx="430" cy="826" r="8" class="c0"/>
<circle cx="1548" cy="806" r="8" class="c0"/>
<circle cx="490" cy="844" r="8" class="c0"/>
<circle cx="644" cy="826" r="8" class="c0"/>
<circle cx="88" cy="792" r="8" class="c0"/>
<circle cx="914" cy="754" r="8" class="c0"/>
<circle cx="176" cy="846" r="8" class="c0"/>
<circle cx="1416" cy="766" r="8" class="c0"/>
<circle cx="1648" cy="738" r="8" class="c0"/>
<circle cx="182" cy="1360" r="8" class="c0"/>
<circle cx="186" cy="760" r="8" class="c0"/>
<circle cx="1494" cy="724" r="8" class="c0"/>
<circle cx="1476" cy="802" r="8" class="c0"/>
<circle cx="1594" cy="854" r="8" class="c0"/>
<circle cx="80" cy="846" r="8" class="c0"/>
<circle cx="242" cy="858" r="8" class="c0"/>
<circle cx="1522" cy="810" r="8" class="c0"/>
<circle cx="1348" cy="838" r="8" class="c0"/>
<circle cx="1270" cy="742" r="8" class="c0"/>
<circle cx="1136" cy="844" r="8" class="c0"/>
<circle cx="1132" cy="722" r="8" class="c0"/>
<circle cx="1572" cy="790" r="8" class="c0"/>
<circle cx="944" cy="760" r="8" class="c0"/>
<circle cx="834" cy="818" r="8" class="c0"/>
<circle cx="1730" cy="36" r="8" class="c0"/>
<circle cx="1310" cy="744" r="8" class="c0"/>
<circle cx="1908" cy="834" r="8" class="c0"/>
<circle cx="406" cy="826" r="8" class="c0"/>
<circle cx="668" cy="826" r="8" class="c0"/>
<circle cx="1222" cy="760" r="8" class="c0"/>
<circle cx="116" cy="862" r="8" class="c0"/>
<circle cx="1366" cy="762" r="8" class="c0"/>
<circle cx="284" cy="796" r="8" class="c0"/>
<circle cx="836" cy="836" r="8" class="c0"/>
<circle cx="898" cy="842" r="8" class="c0"/>
<circle cx="798" cy="832" r="8" class="c0"/>
<circle cx="258" cy="868" r="8" class="c0"/>
<circle cx="1898" cy="678" r="8" class="c0"/>
<circle cx="1138" cy="866" r="8" class="c0"/>
<circle cx="1022" cy="788" r="8" class="c0"/>
<circle cx="1490" cy="778" r="8" class="c0"/>
<circle cx="1748" cy="780" r="8" class="c0"/>
<circle cx="1330" cy="780" r="8" class="c0"/>
<circle cx="212" cy="1318" r="8" class="c0"/>
<circle cx="204" cy="820" r="8" class="c0"/>
<circle cx="922" cy="848" r="8" class="c0"/>
<circle cx="1398" cy="730" r="8" class="c0"/>
<circle cx="1396" cy="818" r="8" class="c0"/>
<circle cx="1784" cy="806" r="8" class="c0"/>
<circle cx="220" cy="798" r="8" class="c0"/>
<circle cx="14" cy="20" r="8" class="c0"/>
<circle cx="654" cy="814" r="8" class="c0"/>
<circle cx="1844" cy="720" r="8" class="c0"/>
<circle cx="886" cy="856" r="8" class="c0"/>
<circle cx="536" cy="748" r="8" class="c0"/>
<circle cx="1740" cy="818" r="8" class="c0"/>
<circle cx="1006" cy="764" r="8" class="c0"/>
<circle cx="1776" cy="850" r="8" class="c0"/>
<circle cx="1684" cy="832" r="8" class="c0"/>
<circle cx="58" cy="882" r="8" class="c0"/>
<circle cx="1612" cy="796" r="8" class="c0"/>
<circle cx="1230" cy="726" r="8" class="c0"/>
<circle cx="1844" cy="800" r="8" class="c0"/>
<circle cx="68" cy="760" r="8" class="c0"/>
<circle cx="380" cy="860" r="8" class="c0"/>
<circle cx="1838" cy="756" r="8" class="c0"/>
<circle cx="642" cy="804" r="8" class="c0"/>
<circle cx="10" cy="632" r="8" class="c0"/>
<circle cx="1910" cy="688" r="8" class="c0"/>
<circle cx="166" cy="858" r="8" class="c0"/>
<circle cx="1090" cy="776" r="8" class="c0"/>
<circle cx="756" cy="778" r="8" class="c0"/>
<circle cx="1620" cy="780" r="8" class="c0"/>
<circle cx="454" cy="826" r="8" class="c0"/>
<circle cx="1394" cy="792" r="8" class="c0"/>
<circle cx="1814" cy="806" r="8" class="c0"/>
<circle cx="1536" cy="726" r="8" class="c0"/>
<circle cx="1166" cy="782" r="8" class="c0"/>
<circle cx="390" cy="872" r="8" class="c0"/>
<circle cx="692" cy="804" r="8" class="c0"/>
<circle cx="184" cy="800" r="8" class="c0"/>
<circle cx="198" cy="1382" r="8" class="c0"/>
<circle cx="1460" cy="812" r="8" class="c0"/>
<circle cx="1438" cy="846" r="8" class="c0"/>
<circle cx="1436" cy="812" r="8" class="c0"/>
<circle cx="1902" cy="808" r="8" class="c0"/>
<circle cx="1908" cy="732" r="8" class="c0"/>
<circle cx="1902" cy="756" r="8" class="c0"/>
<circle cx="1908" cy="8" r="8" class="c0"/>
<circle cx="1456" cy="768" r="8" class="c0"/>
<circle cx="712" cy="856" r="8" class="c0"/>
<circle cx="1186" cy="732" r="8" class="c0"/>
<circle cx="220" cy="848" r="8" class="c0"/>
<circle cx="222" cy="870" r="8" class="c0"/>
<circle cx="1512" cy="722" r="8" class="c0"/>
<circle cx="1034" cy="826" r="8" class="c0"/>
<circle cx="1356" cy="772" r="8" class="c0"/>
<circle cx="112" cy="882" r="8" class="c0"/>
<circle cx="534" cy="832" r="8" class="c0"/>
<circle cx="1074" cy="838" r="8" class="c0"/>
<circle cx="300" cy="828" r="8" class="c0"/>
<circle cx="822" cy="766" r="8" class="c0"/>
<circle cx="994" cy="824" r="8" class="c0"/>
<circle cx="1132" cy="804" r="8" class="c0"/>
<circle cx="500" cy="772" r="8" class="c0"/>
<circle cx="8" cy="850" r="8" class="c0"/>
<circle cx="162" cy="814" r="8" class="c0"/>
<circle cx="1064" cy="854" r="8" class="c0"/>
<circle cx="168" cy="756" r="8" class="c0"/>
<circle cx="1404" cy="780" r="8" class="c0"/>
<circle cx="1052" cy="724" r="8" class="c0"/>
<circle cx="740" cy="746" r="8" class="c0"/>
<circle cx="238" cy="812" r="8" class="c0"/>
<circle cx="284" cy="868" r="8" class="c0"/>
<circle cx="158" cy="874" r="8" class="c0"/>
<circle cx="584" cy="742" r="8" class="c0"/>
<circle cx="1864" cy="82" r="8" class="c0"/>
<circle cx="1668" cy="776" r="8" class="c0"/>
<circle cx="100" cy="754" r="8" class="c0"/>
<circle cx="1740" cy="856" r="8" class="c0"/>
<circle cx="612" cy="776" r="8" class="c0"/>
<circle cx="1150" cy="728" r="8" class="c0"/>
<circle cx="1196" cy="808" r="8" class="c0"/>
<circle cx="116" cy="766" r="8" class="c0"/>
<circle cx="602" cy="738" r="8" class="c0"/>
<circle cx="1696" cy="742" r="8" class="c0"/>
<circle cx="834" cy="734" r="8" class="c0"/>
<circle cx="1524" cy="736" r="8" class="c0"/>
<circle cx="102" cy="872" r="8" class="c0"/>
<circle cx="1830" cy="730" r="8" class="c0"/>
<circle cx="1232" cy="744" r="8" class="c0"/>
<circle cx="1722" cy="850" r="8" class="c0"/>
<circle cx="1650" cy="828" r="8" class="c0"/>
<circle cx="1708" cy="1426" r="8" class="c0"/>
<circle cx="1648" cy="778" r="8" class="c0"/>
<circle cx="1872" cy="732" r="8" class="c0"/>
<circle cx="918" cy="724" r="8" class="c0"/>
<circle cx="562" cy="866" r="8" class="c0"/>
<circle cx="756" cy="812" r="8" class="c0"/>
<circle cx="1850" cy="852" r="8" class="c0"/>
<circle cx="1686" cy="810" r="8" class="c0"/>
<circle cx="944" cy="718" r="8" class="c0"/>
<circle cx="1910" cy="712" r="8" class="c0"/>
<circle cx="424" cy="864" r="8" class="c0"/>
<circle cx="342" cy="776" r="8" class="c0"/>
<circle cx="1092" cy="808" r="8" class="c0"/>
<circle cx="1500" cy="846" r="8" class="c0"/>
<circle cx="152" cy="800" r="8" class="c0"/>
<circle cx="1330" cy="854" r="8" class="c0"/>
<circle cx="680" cy="732" r="8" class="c0"/>
<circle cx="420" cy="758" r="8" class="c0"/>
<circle cx="958" cy="806" r="8" class="c0"/>
<circle cx="838" cy="774" r="8" class="c0"/>
<circle cx="878" cy="732" r="8" class="c0"/>
<circle cx="1176" cy="842" r="8" class="c0"/>
<circle cx="586" cy="778" r="8" class="c0"/>
<circle cx="1712" cy="802" r="8" class="c0"/>
<circle cx="354" cy="828" r="8" class="c0"/>
<circle cx="1508" cy="800" r="8" class="c0"/>
<circle cx="94" cy="856" r="8" class="c0"/>
<circle cx="946" cy="740" r="8" class="c0"/>
<circle cx="1184" cy="752" r="8" class="c0"/>
<circle cx="32" cy="848" r="8" class="c0"/>
<circle cx="582" cy="852" r="8" class="c0"/>
<circle cx="1312" cy="788" r="8" class="c0"/>
<circle cx="152" cy="52" r="8" class="c0"/>
<circle cx="178" cy="1430" r="8" class="c0"/>
<circle cx="794" cy="798" r="8" class="c0"/>
<circle cx="1746" cy="762" r="8" class="c0"/>
<circle cx="240" cy="758" r="8" class="c0"/>
<circle cx="1220" cy="832" r="8" class="c0"/>
<circle cx="1454" cy="712" r="8" class="c0"/>
<circle cx="792" cy="708" r="8" class="c0"/>
<circle cx="1414" cy="720" r="8" class="c0"/>
<circle cx="1142" cy="768" r="8" class="c0"/>
<circle cx="512" cy="744" r="8" class="c0"/>
<circle cx="264" cy="760" r="8" class="c0"/>
<circle cx="1764" cy="728" r="8" class="c0"/>
<circle cx="574" cy="758" r="8" class="c0"/>
<circle cx="1128" cy="738" r="6" class="c0"/>
<circle cx="1278" cy="848" r="6" class="c0"/>
<circle cx="364" cy="868" r="6" class="c0"/>
<circle cx="1610" cy="770" r="6" class="c0"/>
<circle cx="1158" cy="816" r="6" class="c0"/>
<circle cx="428" cy="794" r="6" class="c0"/>
<circle cx="346" cy="812" r="6" class="c0"/>
<circle cx="1734" cy="840" r="6" class="c0"/>
<circle cx="988" cy="802" r="6" class="c0"/>
<circle cx="314" cy="810" r="6" class="c0"/>
<circle cx="820" cy="830" r="6" class="c0"/>
<circle cx="1262" cy="820" r="6" class="c0"/>
<circle cx="192" cy="56" r="6" class="c0"/>
<circle cx="770" cy="850" r="6" class="c0"/>
<circle cx="202" cy="764" r="6" class="c0"/>
<circle cx="150" cy="1432" r="6" class="c0"/>
<circle cx="1076" cy="816" r="6" class="c0"/>
<circle cx="1278" cy="812" r="6" class="c0"/>
<circle cx="34" cy="780" r="6" class="c0"/>
<circle cx="220" cy="1332" r="6" class="c0"/>
<circle cx="1456" cy="848" r="6" class="c0"/>
<circle cx="6" cy="652" r="6" class="c0"/>
<circle cx="1378" cy="848" r="6" class="c0"/>
<circle cx="1088" cy="738" r="6" class="c0"/>
<circle cx="310" cy="866" r="6" class="c0"/>
<circle cx="500" cy="792" r="6" class="c0"/>
<circle cx="196" cy="888" r="6" class="c0"/>
<circle cx="842" cy="852" r="6" class="c0"/>
<circle cx="542" cy="850" r="6" class="c0"/>
<circle cx="854" cy="758" r="6" class="c0"/>
<circle cx="536" cy="864" r="6" class="c0"/>
<circle cx="574" cy="822" r="6" class="c0"/>
<circle cx="160" cy="84" r="6" class="c0"/>
<circle cx="128" cy="782" r="6" class="c0"/>
<circle cx="1680" cy="848" r="6" class="c0"/>
<circle cx="316" cy="754" r="6" class="c0"/>
<circle cx="804" cy="852" r="6" class="c0"/>
<circle cx="1170" cy="860" r="6" class="c0"/>
<circle cx="886" cy="748" r="6" class="c0"/>
<circle cx="1088" cy="848" r="6" class="c0"/>
<circle cx="632" cy="836" r="6" class="c0"/>
<circle cx="8" cy="36" r="6" class="c0"/>
<circle cx="1582" cy="750" r="6" class="c0"/>
<circle cx="1278" cy="726" r="6" class="c0"/>
<circle cx="160" cy="32" r="6" class="c0"/>
<circle cx="1880" cy="832" r="6" class="c0"/>
<circle cx="1524" cy="846" r="6" class="c0"/>
<circle cx="732" cy="814" r="6" class="c0"/>
<circle cx="210" cy="1300" r="6" class="c0"/>
<circle cx="1886" cy="668" r="6" class="c0"/>
<circle cx="648" cy="758" r="6" class="c0"/>
<circle cx="1102" cy="822" r="6" class="c0"/>
<circle cx="166" cy="1400" r="6" class="c0"/>
<circle cx="750" cy="794" r="6" class="c0"/>
<circle cx="854" cy="732" r="6" class="c0"/>
<circle cx="750" cy="736" r="6" class="c0"/>
<circle cx="372" cy="846" r="6" class="c0"/>
<circle cx="394" cy="816" r="6" class="c0"/>
<circle cx="1294" cy="848" r="6" class="c0"/>
<circle cx="934" cy="728" r="6" class="c0"/>
<circle cx="60" cy="776" r="6" class="c0"/>
<circle cx="796" cy="768" r="6" class="c0"/>
<circle cx="598" cy="854" r="6" class="c0"/>
<circle cx="1758" cy="858" r="6" class="c0"/>
<circle cx="520" cy="820" r="6" class="c0"/>
<circle cx="504" cy="852" r="6" class="c0"/>
<circle cx="378" cy="802" r="6" class="c0"/>
<circle cx="214" cy="780" r="6" class="c0"/>
<circle cx="1350" cy="728" r="6" class="c0"/>
<circle cx="534" cy="776" r="6" class="c0"/>
<circle cx="182" cy="64" r="6" class="c0"/>
<circle cx="820" cy="866" r="6" class="c0"/>
<circle cx="358" cy="772" r="6" class="c0"/>
<circle cx="1366" cy="830" r="6" class="c0"/>
<circle cx="936" cy="840" r="6" class="c0"/>
<circle cx="28" cy="768" r="6" class="c0"/>
<circle cx="1912" cy="856" r="6" class="c0"/>
<circle cx="586" cy="812" r="6" class="c0"/>
<circle cx="1374" cy="820" r="6" class="c0"/>
<circle cx="1574" cy="850" r="6" class="c0"/>
<circle cx="1796" cy="816" r="6" class="c0"/>
<circle cx="222" cy="1380" r="6" class="c0"/>
<circle cx="1432" cy="728" r="6" class="c0"/>
<circle cx="484" cy="826" r="6" class="c0"/>
<circle cx="1346" cy="782" r="6" class="c0"/>
<circle cx="1772" cy="48" r="6" class="c0"/>
<circle cx="460" cy="782" r="6" class="c0"/>
<circle cx="146" cy="72" r="6" class="c0"/>
<circle cx="1032" cy="726" r="6" class="c0"/>
<circle cx="612" cy="806" r="6" class="c0"/>
<circle cx="700" cy="818" r="6" class="c0"/>
<circle cx="608" cy="866" r="6" class="c0"/>
<circle cx="20" cy="860" r="6" class="c0"/>
<circle cx="1762" cy="28" r="6" class="c0"/>
<circle cx="1682" cy="1396" r="6" class="c0"/>
<circle cx="470" cy="876" r="6" class="c0"/>
<circle cx="1766" cy="776" r="6" class="c0"/>
<circle cx="1814" cy="728" r="6" class="c0"/>
<circle cx="684" cy="818" r="6" class="c0"/>
<circle cx="1658" cy="726" r="6" class="c0"/>
<circle cx="744" cy="838" r="6" class="c0"/>
<circle cx="458" cy="860" r="6" class="c0"/>
<circle cx="134" cy="844" r="6" class="c0"/>
<circle cx="876" cy="836" r="6" class="c0"/>
<circle cx="1626" cy="858" r="6" class="c0"/>
<circle cx="340" cy="730" r="6" class="c0"/>
<circle cx="462" cy="742" r="6" class="c0"/>
<circle cx="792" cy="730" r="6" class="c0"/>
<circle cx="984" cy="752" r="6" class="c0"/>
<circle cx="442" cy="816" r="6" class="c0"/>
<circle cx="1688" cy="860" r="6" class="c0"/>
<circle cx="1684" cy="1430" r="6" class="c0"/>
<circle cx="204" cy="800" r="6" class="c0"/>
<circle cx="1432" cy="768" r="6" class="c0"/>
<circle cx="1610" cy="860" r="6" class="c0"/>
<circle cx="1192" cy="706" r="6" class="c0"/>
<circle cx="864" cy="864" r="6" class="c0"/>
<circle cx="1814" cy="864" r="6" class="c0"/>
<circle cx="1420" cy="858" r="6" class="c0"/>
<circle cx="1512" cy="856" r="6" class="c0"/>
<circle cx="1478" cy="726" r="6" class="c0"/>
<circle cx="1288" cy="862" r="6" class="c0"/>
<circle cx="1750" cy="8" r="6" class="c0"/>
<circle cx="1344" cy="804" r="6" class="c0"/>
<circle cx="1788" cy="864" r="6" class="c0"/>
<circle cx="822" cy="744" r="6" class="c0"/>
<circle cx="76" cy="892" r="6" class="c0"/>
<circle cx="224" cy="1430" r="6" class="c0"/>
<circle cx="186" cy="856" r="6" class="c0"/>
<circle cx="1638" cy="726" r="6" class="c0"/>
<circle cx="1478" cy="768" r="6" class="c0"/>
<circle cx="356" cy="748" r="6" class="c0"/>
<circle cx="1722" cy="742" r="6" class="c0"/>
<circle cx="120" cy="750" r="6" class="c0"/>
<circle cx="408" cy="868" r="6" class="c0"/>
<circle cx="1168" cy="826" r="6" class="c0"/>
<circle cx="570" cy="836" r="6" class="c0"/>
<circle cx="1212" cy="772" r="6" class="c0"/>
<circle cx="1250" cy="714" r="6" class="c0"/>
<circle cx="1780" cy="718" r="6" class="c0"/>
<circle cx="1452" cy="798" r="6" class="c0"/>
<circle cx="1912" cy="670" r="6" class="c0"/>
<circle cx="1488" cy="834" r="6" class="c0"/>
<circle cx="472" cy="798" r="6" class="c0"/>
<circle cx="1834" cy="152" r="6" class="c0"/>
<circle cx="772" cy="864" r="6" class="c0"/>
<circle cx="886" cy="718" r="6" class="c0"/>
<circle cx="72" cy="820" r="6" class="c0"/>
<circle cx="210" cy="838" r="6" class="c0"/>
<circle cx="1558" cy="726" r="6" class="c0"/>
<circle cx="1642" cy="862" r="6" class="c0"/>
<circle cx="1712" cy="860" r="6" class="c0"/>
<circle cx="1812" cy="850" r="6" class="c0"/>
<circle cx="1764" cy="824" r="6" class="c0"/>
<circle cx="1264" cy="786" r="6" class="c0"/>
<circle cx="1688" cy="702" r="6" class="c0"/>
<circle cx="6" cy="794" r="6" class="c0"/>
<circle cx="268" cy="786" r="6" class="c0"/>
<circle cx="1400" cy="746" r="6" class="c0"/>
<circle cx="126" cy="852" r="6" class="c0"/>
<circle cx="574" cy="790" r="6" class="c0"/>
<circle cx="1024" cy="858" r="6" class="c0"/>
<circle cx="1584" cy="864" r="6" class="c0"/>
<circle cx="1532" cy="800" r="6" class="c0"/>
<circle cx="1002" cy="808" r="6" class="c0"/>
<circle cx="228" cy="744" r="6" class="c0"/>
<circle cx="1040" cy="858" r="6" class="c0"/>
<circle cx="888" cy="810" r="6" class="c0"/>
<circle cx="1310" cy="860" r="6" class="c0"/>
<circle cx="202" cy="1308" r="6" class="c0"/>
<circle cx="1828" cy="796" r="6" class="c0"/>
<circle cx="194" cy="1326" r="6" class="c0"/>
<circle cx="1528" cy="860" r="6" class="c0"/>
<circle cx="1492" cy="794" r="6" class="c0"/>
<circle cx="1474" cy="820" r="6" class="c0"/>
<circle cx="508" cy="874" r="6" class="c0"/>
<circle cx="578" cy="872" r="6" class="c0"/>
<circle cx="1326" cy="838" r="6" class="c0"/>
<circle cx="1402" cy="862" r="6" class="c0"/>
<circle cx="194" cy="810" r="6" class="c0"/>
<circle cx="692" cy="786" r="6" class="c0"/>
<circle cx="1880" cy="860" r="6" class="c0"/>
<circle cx="1692" cy="724" r="6" class="c0"/>
<circle cx="1464" cy="862" r="6" class="c0"/>
<circle cx="1564" cy="804" r="6" class="c0"/>
<circle cx="1014" cy="750" r="6" class="c0"/>
<circle cx="234" cy="726" r="6" class="c0"/>
<circle cx="1384" cy="862" r="6" class="c0"/>
<circle cx="1912" cy="616" r="6" class="c0"/>
<circle cx="1686" cy="1364" r="6" class="c0"/>
<circle cx="1240" cy="766" r="6" class="c0"/>
<circle cx="962" cy="848" r="6" class="c0"/>
<circle cx="364" cy="838" r="6" class="c0"/>
<circle cx="188" cy="1394" r="6" class="c0"/>
<circle cx="1348" cy="862" r="6" class="c0"/>
<circle cx="1720" cy="788" r="6" class="c0"/>
<circle cx="798" cy="868" r="6" class="c0"/>
<circle cx="388" cy="748" r="6" class="c0"/>
<circle cx="696" cy="860" r="6" class="c0"/>
<circle cx="642" cy="784" r="6" class="c0"/>
<circle cx="256" cy="818" r="6" class="c0"/>
<circle cx="72" cy="784" r="6" class="c0"/>
<circle cx="1912" cy="818" r="6" class="c0"/>
<circle cx="630" cy="736" r="6" class="c0"/>
<circle cx="1252" cy="804" r="6" class="c0"/>
<circle cx="530" cy="730" r="6" class="c0"/>
</svg>
