<?xml version="1.0" encoding="utf-8"?>
<svg xmlns="http://www.w3.org/2000/svg"
     xmlns:xlink="http://www.w3.org/1999/xlink" width="1920" height="1440" >

            <defs>
            <style type="text/css"><![CDATA[
circle {stroke: none;}
.c0 {fill: #FFFFFF;}
]]></style>
            </defs>
<rect x="0" y="0" width="1920" height="1440" fill="black"/>
<circle cx="66" cy="744" r="14" class="c0"/>
<circle cx="1300" cy="700" r="14" class="c0"/>
<circle cx="288" cy="722" r="14" class="c0"/>
<circle cx="1616" cy="732" r="12" class="c0"/>
<circle cx="68" cy="776" r="12" class="c0"/>
<circle cx="1720" cy="698" r="12" class="c0"/>
<circle cx="974" cy="712" r="12" class="c0"/>
<circle cx="676" cy="756" r="12" class="c0"/>
<circle cx="1348" cy="688" r="12" class="c0"/>
<circle cx="832" cy="772" r="12" class="c0"/>
<circle cx="1884" cy="754" r="12" class="c0"/>
<circle cx="220" cy="748" r="12" class="c0"/>
<circle cx="1676" cy="716" r="12" class="c0"/>
<circle cx="1796" cy="682" r="12" class="c0"/>
<circle cx="952" cy="722" r="12" class="c0"/>
<circle cx="268" cy="778" r="12" class="c0"/>
<circle cx="1030" cy="732" r="12" class="c0"/>
<circle cx="522" cy="736" r="12" class="c0"/>
<circle cx="1614" cy="760" r="12" class="c0"/>
<circle cx="1736" cy="650" r="12" class="c0"/>
<circle cx="776" cy="718" r="12" class="c0"/>
<circle cx="582" cy="738" r="12" class="c0"/>
<circle cx="752" cy="754" r="12" class="c0"/>
<circle cx="1104" cy="734" r="12" class="c0"/>
<circle cx="1682" cy="746" r="12" class="c0"/>
<circle cx="1846" cy="712" r="12" class="c0"/>
<circle cx="706" cy="694" r="12" class="c0"/>
<circle cx="1196" cy="706" r="12" class="c0"/>
<circle cx="1284" cy="734" r="12" class="c0"/>
<circle cx="924" cy="756" r="12" class="c0"/>
<circle cx="604" cy="752" r="12" class="c0"/>
<circle cx="1892" cy="822" r="12" class="c0"/>
<circle cx="1138" cy="748" r="12" class="c0"/>
<circle cx="1132" cy="708" r="12" class="c0"/>
<circle cx="1740" cy="806" r="12" class="c0"/>
<circle cx="1356" cy="726" r="12" class="c0"/>
<circle cx="626" cy="724" r="12" class="c0"/>
<circle cx="1698" cy="762" r="10" class="c0"/>
<circle cx="1576" cy="738" r="10" class="c0"/>
<circle cx="744" cy="690" r="10" class="c0"/>
<circle cx="412" cy="770" r="10" class="c0"/>
<circle cx="1026" cy="690" r="10" class="c0"/>
<circle cx="592" cy="718" r="10" class="c0"/>
<circle cx="1694" cy="704" r="10" class="c0"/>
<circle cx="1654" cy="708" r="10" class="c0"/>
<circle cx="948" cy="760" r="10" class="c0"/>
<circle cx="1904" cy="718" r="10" class="c0"/>
<circle cx="260" cy="746" r="10" class="c0"/>
<circle cx="136" cy="732" r="10" class="c0"/>
<circle cx="226" cy="772" r="10" class="c0"/>
<circle cx="1160" cy="728" r="10" class="c0"/>
<circle cx="938" cy="698" r="10" class="c0"/>
<circle cx="792" cy="750" r="10" class="c0"/>
<circle cx="1382" cy="742" r="10" class="c0"/>
<circle cx="1188" cy="766" r="10" class="c0"/>
<circle cx="1232" cy="740" r="10" class="c0"/>
<circle cx="24" cy="744" r="10" class="c0"/>
<circle cx="660" cy="708" r="10" class="c0"/>
<circle cx="162" cy="762" r="10" class="c0"/>
<circle cx="174" cy="734" r="10" class="c0"/>
<circle cx="1064" cy="698" r="10" class="c0"/>
<circle cx="332" cy="768" r="10" class="c0"/>
<circle cx="1634" cy="694" r="10" class="c0"/>
<circle cx="1462" cy="728" r="10" class="c0"/>
<circle cx="1420" cy="740" r="10" class="c0"/>
<circle cx="1396" cy="698" r="10" class="c0"/>
<circle cx="1598" cy="712" r="10" class="c0"/>
<circle cx="474" cy="736" r="10" class="c0"/>
<circle cx="308" cy="756" r="10" class="c0"/>
<circle cx="722" cy="750" r="10" class="c0"/>
<circle cx="430" cy="758" r="10" class="c0"/>
<circle cx="1744" cy="628" r="10" class="c0"/>
<circle cx="1216" cy="762" r="10" class="c0"/>
<circle cx="1710" cy="776" r="10" class="c0"/>
<circle cx="720" cy="724" r="10" class="c0"/>
<circle cx="1482" cy="760" r="10" class="c0"/>
<circle cx="1330" cy="742" r="10" class="c0"/>
<circle cx="1406" cy="724" r="10" class="c0"/>
<circle cx="1706" cy="680" r="10" class="c0"/>
<circle cx="1180" cy="720" r="10" class="c0"/>
<circle cx="364" cy="730" r="10" class="c0"/>
<circle cx="1006" cy="708" r="10" class="c0"/>
<circle cx="1876" cy="692" r="10" class="c0"/>
<circle cx="426" cy="716" r="10" class="c0"/>
<circle cx="1756" cy="828" r="10" class="c0"/>
<circle cx="1784" cy="740" r="10" class="c0"/>
<circle cx="1712" cy="726" r="10" class="c0"/>
<circle cx="850" cy="702" r="10" class="c0"/>
<circle cx="1750" cy="688" r="10" class="c0"/>
<circle cx="1812" cy="738" r="10" class="c0"/>
<circle cx="1262" cy="698" r="10" class="c0"/>
<circle cx="1888" cy="778" r="10" class="c0"/>
<circle cx="1574" cy="704" r="10" class="c0"/>
<circle cx="648" cy="748" r="10" class="c0"/>
<circle cx="850" cy="746" r="10" class="c0"/>
<circle cx="866" cy="728" r="10" class="c0"/>
<circle cx="1006" cy="736" r="10" class="c0"/>
<circle cx="1846" cy="674" r="10" class="c0"/>
<circle cx="538" cy="712" r="10" class="c0"/>
<circle cx="194" cy="712" r="10" class="c0"/>
<circle cx="1904" cy="692" r="10" class="c0"/>
<circle cx="240" cy="720" r="10" class="c0"/>
<circle cx="556" cy="724" r="10" class="c0"/>
<circle cx="804" cy="736" r="10" class="c0"/>
<circle cx="1748" cy="726" r="10" class="c0"/>
<circle cx="1884" cy="662" r="10" class="c0"/>
<circle cx="1404" cy="772" r="10" class="c0"/>
<circle cx="440" cy="696" r="10" class="c0"/>
<circle cx="1736" cy="760" r="10" class="c0"/>
<circle cx="1508" cy="728" r="10" class="c0"/>
<circle cx="1256" cy="760" r="10" class="c0"/>
<circle cx="1202" cy="732" r="10" class="c0"/>
<circle cx="1818" cy="670" r="10" class="c0"/>
<circle cx="38" cy="798" r="10" class="c0"/>
<circle cx="1764" cy="782" r="10" class="c0"/>
<circle cx="1818" cy="776" r="10" class="c0"/>
<circle cx="1558" cy="760" r="10" class="c0"/>
<circle cx="1872" cy="732" r="10" class="c0"/>
<circle cx="1090" cy="702" r="10" class="c0"/>
<circle cx="1022" cy="760" r="10" class="c0"/>
<circle cx="1856" cy="828" r="10" class="c0"/>
<circle cx="324" cy="714" r="10" class="c0"/>
<circle cx="1238" cy="698" r="10" class="c0"/>
<circle cx="560" cy="690" r="10" class="c0"/>
<circle cx="502" cy="692" r="10" class="c0"/>
<circle cx="1372" cy="708" r="10" class="c0"/>
<circle cx="1838" cy="766" r="10" class="c0"/>
<circle cx="1438" cy="712" r="10" class="c0"/>
<circle cx="560" cy="760" r="10" class="c0"/>
<circle cx="1836" cy="806" r="10" class="c0"/>
<circle cx="1100" cy="758" r="10" class="c0"/>
<circle cx="1652" cy="768" r="10" class="c0"/>
<circle cx="1830" cy="688" r="10" class="c0"/>
<circle cx="1710" cy="638" r="10" class="c0"/>
<circle cx="484" cy="716" r="10" class="c0"/>
<circle cx="906" cy="736" r="10" class="c0"/>
<circle cx="1270" cy="720" r="10" class="c0"/>
<circle cx="838" cy="686" r="10" class="c0"/>
<circle cx="96" cy="736" r="10" class="c0"/>
<circle cx="750" cy="722" r="10" class="c0"/>
<circle cx="338" cy="732" r="10" class="c0"/>
<circle cx="1448" cy="750" r="10" class="c0"/>
<circle cx="1794" cy="762" r="10" class="c0"/>
<circle cx="688" cy="706" r="10" class="c0"/>
<circle cx="1520" cy="706" r="10" class="c0"/>
<circle cx="418" cy="740" r="10" class="c0"/>
<circle cx="1740" cy="708" r="8" class="c0"/>
<circle cx="1812" cy="802" r="8" class="c0"/>
<circle cx="1570" cy="684" r="8" class="c0"/>
<circle cx="1048" cy="680" r="8" class="c0"/>
<circle cx="150" cy="786" r="8" class="c0"/>
<circle cx="1538" cy="698" r="8" class="c0"/>
<circle cx="142" cy="758" r="8" class="c0"/>
<circle cx="1162" cy="754" r="8" class="c0"/>
<circle cx="1168" cy="708" r="8" class="c0"/>
<circle cx="890" cy="716" r="8" class="c0"/>
<circle cx="380" cy="776" r="8" class="c0"/>
<circle cx="352" cy="752" r="8" class="c0"/>
<circle cx="1524" cy="740" r="8" class="c0"/>
<circle cx="1072" cy="750" r="8" class="c0"/>
<circle cx="1782" cy="702" r="8" class="c0"/>
<circle cx="654" cy="682" r="8" class="c0"/>
<circle cx="1436" cy="762" r="8" class="c0"/>
<circle cx="898" cy="760" r="8" class="c0"/>
<circle cx="1318" cy="758" r="8" class="c0"/>
<circle cx="1858" cy="772" r="8" class="c0"/>
<circle cx="350" cy="780" r="8" class="c0"/>
<circle cx="796" cy="696" r="8" class="c0"/>
<circle cx="1714" cy="612" r="8" class="c0"/>
<circle cx="1776" cy="664" r="8" class="c0"/>
<circle cx="10" cy="768" r="8" class="c0"/>
<circle cx="842" cy="720" r="8" class="c0"/>
<circle cx="1548" cy="730" r="8" class="c0"/>
<circle cx="450" cy="750" r="8" class="c0"/>
<circle cx="386" cy="710" r="8" class="c0"/>
<circle cx="812" cy="714" r="8" class="c0"/>
<circle cx="1326" cy="716" r="8" class="c0"/>
<circle cx="358" cy="708" r="8" class="c0"/>
<circle cx="402" cy="754" r="8" class="c0"/>
<circle cx="1858" cy="792" r="8" class="c0"/>
<circle cx="180" cy="754" r="8" class="c0"/>
<circle cx="1248" cy="714" r="8" class="c0"/>
<circle cx="1882" cy="848" r="8" class="c0"/>
<circle cx="170" cy="784" r="8" class="c0"/>
<circle cx="1484" cy="720" r="8" class="c0"/>
<circle cx="122" cy="774" r="8" class="c0"/>
<circle cx="1506" cy="766" r="8" class="c0"/>
<circle cx="126" cy="794" r="8" class="c0"/>
<circle cx="1516" cy="680" r="8" class="c0"/>
<circle cx="614" cy="704" r="8" class="c0"/>
<circle cx="1720" cy="748" r="8" class="c0"/>
<circle cx="1796" cy="722" r="8" class="c0"/>
<circle cx="1486" cy="738" r="8" class="c0"/>
<circle cx="1910" cy="770" r="8" class="c0"/>
<circle cx="1812" cy="710" r="8" class="c0"/>
<circle cx="1892" cy="706" r="8" class="c0"/>
<circle cx="114" cy="758" r="8" class="c0"/>
<circle cx="1572" cy="778" r="8" class="c0"/>
<circle cx="498" cy="738" r="8" class="c0"/>
<circle cx="766" cy="740" r="8" class="c0"/>
<circle cx="1384" cy="762" r="8" class="c0"/>
<circle cx="214" cy="726" r="8" class="c0"/>
<circle cx="1074" cy="718" r="8" class="c0"/>
<circle cx="774" cy="770" r="8" class="c0"/>
<circle cx="1872" cy="802" r="8" class="c0"/>
<circle cx="974" cy="740" r="8" class="c0"/>
<circle cx="694" cy="766" r="8" class="c0"/>
<circle cx="876" cy="688" r="8" class="c0"/>
<circle cx="912" cy="702" r="8" class="c0"/>
<circle cx="1212" cy="694" r="8" class="c0"/>
<circle cx="192" cy="766" r="8" class="c0"/>
<circle cx="886" cy="698" r="8" class="c0"/>
<circle cx="862" cy="760" r="8" class="c0"/>
<circle cx="1072" cy="774" r="8" class="c0"/>
<circle cx="1734" cy="840" r="8" class="c0"/>
<circle cx="656" cy="770" r="8" class="c0"/>
<circle cx="1466" cy="700" r="8" class="c0"/>
<circle cx="1724" cy="820" r="8" class="c0"/>
<circle cx="1666" cy="688" r="8" class="c0"/>
<circle cx="1904" cy="800" r="8" class="c0"/>
<circle cx="462" cy="770" r="8" class="c0"/>
<circle cx="700" cy="744" r="8" class="c0"/>
<circle cx="494" cy="762" r="8" class="c0"/>
<circle cx="1124" cy="688" r="8" class="c0"/>
<circle cx="986" cy="680" r="8" class="c0"/>
<circle cx="482" cy="772" r="8" class="c0"/>
<circle cx="324" cy="744" r="8" class="c0"/>
<circle cx="378" cy="752" r="8" class="c0"/>
<circle cx="214" cy="706" r="8" class="c0"/>
<circle cx="40" cy="730" r="8" class="c0"/>
<circle cx="462" cy="710" r="8" class="c0"/>
<circle cx="258" cy="706" r="8" class="c0"/>
<circle cx="1366" cy="764" r="8" class="c0"/>
<circle cx="398" cy="736" r="8" class="c0"/>
<circle cx="1190" cy="678" r="8" class="c0"/>
<circle cx="1008" cy="678" r="8" class="c0"/>
<circle cx="66" cy="716" r="8" class="c0"/>
<circle cx="1342" cy="760" r="8" class="c0"/>
<circle cx="604" cy="690" r="8" class="c0"/>
<circle cx="1262" cy="740" r="8" class="c0"/>
<circle cx="1302" cy="724" r="8" class="c0"/>
<circle cx="1772" cy="752" r="8" class="c0"/>
<circle cx="1050" cy="756" r="8" class="c0"/>
<circle cx="536" cy="752" r="8" class="c0"/>
<circle cx="1414" cy="706" r="8" class="c0"/>
<circle cx="28" cy="772" r="8" class="c0"/>
<circle cx="1492" cy="698" r="8" class="c0"/>
<circle cx="1772" cy="726" r="8" class="c0"/>
<circle cx="1592" cy="748" r="8" class="c0"/>
<circle cx="1766" cy="802" r="8" class="c0"/>
<circle cx="1060" cy="728" r="8" class="c0"/>
<circle cx="522" cy="780" r="8" class="c0"/>
<circle cx="1632" cy="716" r="8" class="c0"/>
<circle cx="826" cy="728" r="8" class="c0"/>
<circle cx="576" cy="770" r="8" class="c0"/>
<circle cx="290" cy="746" r="8" class="c0"/>
<circle cx="664" cy="734" r="8" class="c0"/>
<circle cx="1312" cy="678" r="8" class="c0"/>
<circle cx="630" cy="764" r="8" class="c0"/>
<circle cx="1832" cy="730" r="8" class="c0"/>
<circle cx="994" cy="752" r="8" class="c0"/>
<circle cx="1384" cy="686" r="8" class="c0"/>
<circle cx="1864" cy="664" r="8" class="c0"/>
<circle cx="914" cy="684" r="8" class="c0"/>
<circle cx="1294" cy="766" r="8" class="c0"/>
<circle cx="1904" cy="746" r="8" class="c0"/>
<circle cx="286" cy="764" r="8" class="c0"/>
<circle cx="1104" cy="686" r="8" class="c0"/>
<circle cx="448" cy="722" r="8" class="c0"/>
<circle cx="1044" cy="714" r="8" class="c0"/>
<circle cx="1600" cy="682" r="8" class="c0"/>
<circle cx="200" cy="784" r="8" class="c0"/>
<circle cx="46" cy="778" r="8" class="c0"/>
<circle cx="1760" cy="640" r="8" class="c0"/>
<circle cx="8" cy="788" r="8" class="c0"/>
<circle cx="1476" cy="684" r="8" class="c0"/>
<circle cx="80" cy="794" r="8" class="c0"/>
<circle cx="582" cy="694" r="8" class="c0"/>
<circle cx="112" cy="710" r="8" class="c0"/>
<circle cx="1150" cy="774" r="8" class="c0"/>
<circle cx="1752" cy="664" r="8" class="c0"/>
<circle cx="926" cy="716" r="8" class="c0"/>
<circle cx="638" cy="692" r="8" class="c0"/>
<circle cx="1544" cy="772" r="8" class="c0"/>
<circle cx="1700" cy="658" r="8" class="c0"/>
<circle cx="1852" cy="742" r="8" class="c0"/>
<circle cx="1744" cy="780" r="8" class="c0"/>
<circle cx="1642" cy="750" r="8" class="c0"/>
<circle cx="1644" cy="732" r="8" class="c0"/>
<circle cx="1734" cy="604" r="8" class="c0"/>
<circle cx="1752" cy="854" r="8" class="c0"/>
<circle cx="958" cy="692" r="8" class="c0"/>
<circle cx="682" cy="682" r="8" class="c0"/>
<circle cx="682" cy="726" r="8" class="c0"/>
<circle cx="776" cy="694" r="8" class="c0"/>
<circle cx="1904" cy="848" r="8" class="c0"/>
<circle cx="522" cy="700" r="8" class="c0"/>
<circle cx="306" cy="784" r="8" class="c0"/>
<circle cx="512" cy="760" r="8" class="c0"/>
<circle cx="738" cy="734" r="8" class="c0"/>
<circle cx="368" cy="764" r="8" class="c0"/>
<circle cx="1770" cy="682" r="8" class="c0"/>
<circle cx="100" cy="780" r="8" class="c0"/>
<circle cx="1718" cy="800" r="8" class="c0"/>
<circle cx="474" cy="690" r="8" class="c0"/>
<circle cx="1722" cy="666" r="8" class="c0"/>
<circle cx="322" cy="792" r="8" class="c0"/>
<circle cx="726" cy="704" r="8" class="c0"/>
<circle cx="1756" cy="762" r="8" class="c0"/>
<circle cx="88" cy="762" r="8" class="c0"/>
<circle cx="1872" cy="838" r="8" class="c0"/>
<circle cx="1114" cy="698" r="8" class="c0"/>
<circle cx="1660" cy="740" r="8" class="c0"/>
<circle cx="814" cy="692" r="8" class="c0"/>
<circle cx="1910" cy="670" r="8" class="c0"/>
<circle cx="976" cy="766" r="8" class="c0"/>
<circle cx="758" cy="702" r="8" class="c0"/>
<circle cx="508" cy="714" r="8" class="c0"/>
<circle cx="998" cy="690" r="8" class="c0"/>
<circle cx="1830" cy="748" r="8" class="c0"/>
<circle cx="1154" cy="690" r="8" class="c0"/>
<circle cx="410" cy="700" r="8" class="c0"/>
<circle cx="810" cy="764" r="8" class="c0"/>
<circle cx="552" cy="778" r="8" class="c0"/>
<circle cx="28" cy="720" r="8" class="c0"/>
<circle cx="1612" cy="698" r="8" class="c0"/>
<circle cx="1468" cy="772" r="8" class="c0"/>
<circle cx="936" cy="738" r="8" class="c0"/>
<circle cx="1762" cy="710" r="8" class="c0"/>
<circle cx="1420" cy="684" r="8" class="c0"/>
<circle cx="1504" cy="748" r="8" class="c0"/>
<circle cx="298" cy="700" r="8" class="c0"/>
<circle cx="404" cy="718" r="8" class="c0"/>
<circle cx="438" cy="736" r="8" class="c0"/>
<circle cx="1186" cy="742" r="8" class="c0"/>
<circle cx="570" cy="708" r="8" class="c0"/>
<circle cx="1308" cy="742" r="8" class="c0"/>
<circle cx="1228" cy="714" r="8" class="c0"/>
<circle cx="1446" cy="776" r="8" class="c0"/>
<circle cx="540" cy="688" r="8" class="c0"/>
<circle cx="1710" cy="836" r="8" class="c0"/>
<circle cx="1554" cy="706" r="8" class="c0"/>
<circle cx="84" cy="722" r="8" class="c0"/>
<circle cx="990" cy="724" r="8" class="c0"/>
<circle cx="1452" cy="678" r="8" class="c0"/>
<circle cx="160" cy="722" r="8" class="c0"/>
<circle cx="1330" cy="698" r="8" class="c0"/>
<circle cx="1578" cy="758" r="8" class="c0"/>
<circle cx="1470" cy="748" r="8" class="c0"/>
<circle cx="1662" cy="784" r="8" class="c0"/>
<circle cx="246" cy="782" r="8" class="c0"/>
<circle cx="1800" cy="784" r="8" class="c0"/>
<circle cx="472" cy="756" r="8" class="c0"/>
<circle cx="440" cy="788" r="8" class="c0"/>
<circle cx="1534" cy="750" r="8" class="c0"/>
<circle cx="1274" cy="752" r="8" class="c0"/>
<circle cx="608" cy="780" r="8" class="c0"/>
<circle cx="244" cy="758" r="8" class="c0"/>
<circle cx="960" cy="776" r="8" class="c0"/>
<circle cx="1732" cy="678" r="8" class="c0"/>
<circle cx="1226" cy="778" r="8" class="c0"/>
<circle cx="898" cy="674" r="8" class="c0"/>
<circle cx="1274" cy="680" r="8" class="c0"/>
<circle cx="1222" cy="684" r="8" class="c0"/>
<circle cx="1124" cy="762" r="8" class="c0"/>
<circle cx="534" cy="770" r="8" class="c0"/>
<circle cx="240" cy="798" r="6" class="c0"/>
<circle cx="1524" cy="768" r="6" class="c0"/>
<circle cx="1680" cy="772" r="6" class="c0"/>
<circle cx="1736" cy="738" r="6" class="c0"/>
<circle cx="1854" cy="652" r="6" class="c0"/>
<circle cx="1128" cy="728" r="6" class="c0"/>
<circle cx="50" cy="762" r="6" class="c0"/>
<circle cx="208" cy="762" r="6" class="c0"/>
<circle cx="192" cy="742" r="6" class="c0"/>
<circle cx="1890" cy="730" r="6" class="c0"/>
<circle cx="716" cy="772" r="6" class="c0"/>
<circle cx="1448" cy="698" r="6" class="c0"/>
<circle cx="592" cy="774" r="6" class="c0"/>
<circle cx="1862" cy="702" r="6" class="c0"/>
<circle cx="648" cy="728" r="6" class="c0"/>
<circle cx="1862" cy="752" r="6" class="c0"/>
<circle cx="1858" cy="688" r="6" class="c0"/>
<circle cx="1724" cy="624" r="6" class="c0"/>
<circle cx="1750" cy="606" r="6" class="c0"/>
<circle cx="338" cy="704" r="6" class="c0"/>
<circle cx="1588" cy="726" r="6" class="c0"/>
<circle cx="150" cy="708" r="6" class="c0"/>
<circle cx="1776" cy="628" r="6" class="c0"/>
<circle cx="878" cy="746" r="6" class="c0"/>
<circle cx="288" cy="780" r="6" class="c0"/>
<circle cx="1696" cy="788" r="6" class="c0"/>
<circle cx="882" cy="770" r="6" class="c0"/>
<circle cx="1912" cy="654" r="6" class="c0"/>
<circle cx="1182" cy="694" r="6" class="c0"/>
<circle cx="1758" cy="614" r="6" class="c0"/>
<circle cx="114" cy="732" r="6" class="c0"/>
<circle cx="310" cy="732" r="6" class="c0"/>
<circle cx="1086" cy="682" r="6" class="c0"/>
<circle cx="1750" cy="746" r="6" class="c0"/>
<circle cx="1870" cy="712" r="6" class="c0"/>
<circle cx="44" cy="748" r="6" class="c0"/>
<circle cx="1554" cy="688" r="6" class="c0"/>
<circle cx="630" cy="744" r="6" class="c0"/>
<circle cx="176" cy="698" r="6" class="c0"/>
<circle cx="1234" cy="760" r="6" class="c0"/>
<circle cx="444" cy="772" r="6" class="c0"/>
<circle cx="1028" cy="710" r="6" class="c0"/>
<circle cx="1082" cy="738" r="6" class="c0"/>
<circle cx="1720" cy="850" r="6" class="c0"/>
<circle cx="1004" cy="768" r="6" class="c0"/>
<circle cx="956" cy="742" r="6" class="c0"/>
<circle cx="736" cy="766" r="6" class="c0"/>
<circle cx="1858" cy="810" r="6" class="c0"/>
<circle cx="558" cy="742" r="6" class="c0"/>
<circle cx="574" cy="680" r="6" class="c0"/>
<circle cx="1082" cy="762" r="6" class="c0"/>
<circle cx="888" cy="734" r="6" class="c0"/>
<circle cx="698" cy="728" r="6" class="c0"/>
<circle cx="260" cy="722" r="6" class="c0"/>
<circle cx="220" cy="790" r="6" class="c0"/>
<circle cx="1440" cy="732" r="6" class="c0"/>
<circle cx="128" cy="748" r="6" class="c0"/>
<circle cx="138" cy="776" r="6" class="c0"/>
<circle cx="382" cy="732" r="6" class="c0"/>
<circle cx="1840" cy="786" r="6" class="c0"/>
<circle cx="96" cy="800" r="6" class="c0"/>
<circle cx="486" cy="748" r="6" class="c0"/>
<circle cx="6" cy="742" r="6" class="c0"/>
<circle cx="912" cy="770" r="6" class="c0"/>
<circle cx="860" cy="670" r="6" class="c0"/>
<circle cx="1488" cy="786" r="6" class="c0"/>
<circle cx="818" cy="750" r="6" class="c0"/>
<circle cx="1532" cy="718" r="6" class="c0"/>
<circle cx="1118" cy="746" r="6" class="c0"/>
<circle cx="1782" cy="822" r="6" class="c0"/>
<circle cx="1566" cy="722" r="6" class="c0"/>
<circle cx="870" cy="710" r="6" class="c0"/>
<circle cx="1364" cy="748" r="6" class="c0"/>
<circle cx="1518" cy="756" r="6" class="c0"/>
<circle cx="1672" cy="764" r="6" class="c0"/>
<circle cx="464" cy="788" r="6" class="c0"/>
<circle cx="724" cy="686" r="6" class="c0"/>
<circle cx="1430" cy="694" r="6" class="c0"/>
<circle cx="1346" cy="708" r="6" class="c0"/>
<circle cx="1220" cy="728" r="6" class="c0"/>
<circle cx="1258" cy="778" r="6" class="c0"/>
<circle cx="1912" cy="830" r="6" class="c0"/>
<circle cx="242" cy="742" r="6" class="c0"/>
<circle cx="354" cy="676" r="6" class="c0"/>
<circle cx="1812" cy="758" r="6" class="c0"/>
<circle cx="502" cy="778" r="6" class="c0"/>
<circle cx="1624" cy="776" r="6" class="c0"/>
<circle cx="1106" cy="714" r="6" class="c0"/>
<circle cx="1784" cy="796" r="6" class="c0"/>
<circle cx="606" cy="730" r="6" class="c0"/>
<circle cx="1730" cy="858" r="6" class="c0"/>
<circle cx="152" cy="744" r="6" class="c0"/>
<circle cx="1414" cy="758" r="6" class="c0"/>
<circle cx="1868" cy="782" r="6" class="c0"/>
<circle cx="1398" cy="754" r="6" class="c0"/>
<circle cx="1590" cy="768" r="6" class="c0"/>
<circle cx="56" cy="806" r="6" class="c0"/>
<circle cx="976" cy="690" r="6" class="c0"/>
<circle cx="1212" cy="718" r="6" class="c0"/>
<circle cx="1252" cy="684" r="6" class="c0"/>
<circle cx="1502" cy="710" r="6" class="c0"/>
<circle cx="1702" cy="742" r="6" class="c0"/>
<circle cx="946" cy="682" r="6" class="c0"/>
<circle cx="678" cy="776" r="6" class="c0"/>
<circle cx="638" cy="710" r="6" class="c0"/>
<circle cx="1090" cy="722" r="6" class="c0"/>
<circle cx="122" cy="720" r="6" class="c0"/>
<circle cx="1390" cy="716" r="6" class="c0"/>
<circle cx="392" cy="766" r="6" class="c0"/>
<circle cx="586" cy="760" r="6" class="c0"/>
<circle cx="856" cy="684" r="6" class="c0"/>
<circle cx="56" cy="790" r="6" class="c0"/>
<circle cx="12" cy="724" r="6" class="c0"/>
<circle cx="1774" cy="834" r="6" class="c0"/>
<circle cx="1278" cy="768" r="6" class="c0"/>
<circle cx="1042" cy="698" r="6" class="c0"/>
<circle cx="832" cy="748" r="6" class="c0"/>
<circle cx="1910" cy="864" r="6" class="c0"/>
<circle cx="1706" cy="818" r="6" class="c0"/>
<circle cx="1892" cy="680" r="6" class="c0"/>
<circle cx="374" cy="700" r="6" class="c0"/>
<circle cx="1202" cy="752" r="6" class="c0"/>
<circle cx="1834" cy="660" r="6" class="c0"/>
<circle cx="1632" cy="768" r="6" class="c0"/>
<circle cx="176" cy="714" r="6" class="c0"/>
<circle cx="1784" cy="778" r="6" class="c0"/>
<circle cx="1386" cy="778" r="6" class="c0"/>
<circle cx="830" cy="710" r="6" class="c0"/>
<circle cx="626" cy="678" r="6" class="c0"/>
<circle cx="1702" cy="802" r="6" class="c0"/>
<circle cx="1898" cy="652" r="6" class="c0"/>
<circle cx="1786" cy="620" r="6" class="c0"/>
<circle cx="1868" cy="648" r="6" class="c0"/>
<circle cx="1730" cy="720" r="6" class="c0"/>
<circle cx="260" cy="796" r="6" class="c0"/>
<circle cx="234" cy="698" r="6" class="c0"/>
<circle cx="1586" cy="692" r="6" class="c0"/>
<circle cx="424" cy="790" r="6" class="c0"/>
<circle cx="200" cy="752" r="6" class="c0"/>
<circle cx="1214" cy="744" r="6" class="c0"/>
<circle cx="1888" cy="798" r="6" class="c0"/>
<circle cx="134" cy="712" r="6" class="c0"/>
<circle cx="700" cy="782" r="6" class="c0"/>
<circle cx="1348" cy="744" r="6" class="c0"/>
<circle cx="868" cy="782" r="6" class="c0"/>
<circle cx="1664" cy="756" r="6" class="c0"/>
<circle cx="1248" cy="732" r="6" class="c0"/>
<circle cx="670" cy="694" r="6" class="c0"/>
<circle cx="910" cy="718" r="6" class="c0"/>
<circle cx="852" cy="770" r="6" class="c0"/>
<circle cx="1170" cy="768" r="6" class="c0"/>
<circle cx="1152" cy="706" r="6" class="c0"/>
<circle cx="1040" cy="768" r="6" class="c0"/>
<circle cx="1352" cy="784" r="6" class="c0"/>
<circle cx="390" cy="792" r="6" class="c0"/>
<circle cx="1776" cy="768" r="6" class="c0"/>
<circle cx="398" cy="782" r="6" class="c0"/>
<circle cx="1762" cy="736" r="6" class="c0"/>
<circle cx="1694" cy="732" r="6" class="c0"/>
<circle cx="1368" cy="690" r="6" class="c0"/>
<circle cx="724" cy="782" r="6" class="c0"/>
<circle cx="1682" cy="690" r="6" class="c0"/>
<circle cx="936" cy="772" r="6" class="c0"/>
<circle cx="274" cy="736" r="6" class="c0"/>
<circle cx="1728" cy="788" r="6" class="c0"/>
<circle cx="342" cy="794" r="6" class="c0"/>
<circle cx="184" cy="792" r="6" class="c0"/>
<circle cx="1048" cy="740" r="6" class="c0"/>
<circle cx="1508" cy="694" r="6" class="c0"/>
<circle cx="966" cy="754" r="6" class="c0"/>
<circle cx="36" cy="758" r="6" class="c0"/>
<circle cx="1426" cy="772" r="6" class="c0"/>
<circle cx="1834" cy="824" r="6" class="c0"/>
<circle cx="1810" cy="694" r="6" class="c0"/>
<circle cx="1870" cy="818" r="6" class="c0"/>
<circle cx="1318" cy="730" r="6" class="c0"/>
<circle cx="1028" cy="780" r="6" class="c0"/>
<circle cx="794" cy="768" r="6" class="c0"/>
<circle cx="1102" cy="652" r="6" class="c0"/>
<circle cx="640" cy="774" r="6" class="c0"/>
<circle cx="1790" cy="656" r="6" class="c0"/>
<circle cx="704" cy="716" r="6" class="c0"/>
<circle cx="20" cy="800" r="6" class="c0"/>
<circle cx="1172" cy="686" r="6" class="c0"/>
<circle cx="1142" cy="726" r="6" class="c0"/>
<circle cx="1424" cy="722" r="6" class="c0"/>
<circle cx="1056" cy="772" r="6" class="c0"/>
<circle cx="348" cy="718" r="6" class="c0"/>
<circle cx="538" cy="786" r="6" class="c0"/>
<circle cx="988" cy="700" r="6" class="c0"/>
<circle cx="932" cy="680" r="6" class="c0"/>
<circle cx="1328" cy="768" r="6" class="c0"/>
<circle cx="198" cy="730" r="6" class="c0"/>
<circle cx="1558" cy="740" r="6" class="c0"/>
<circle cx="1912" cy="814" r="6" class="c0"/>
<circle cx="1822" cy="720" r="6" class="c0"/>
<circle cx="1768" cy="846" r="6" class="c0"/>
<circle cx="786" cy="784" r="6" class="c0"/>
<circle cx="568" cy="784" r="6" class="c0"/>
<circle cx="110" cy="790" r="6" class="c0"/>
<circle cx="1118" cy="720" r="6" class="c0"/>
<circle cx="544" cy="738" r="6" class="c0"/>
<circle cx="276" cy="754" r="6" class="c0"/>
<circle cx="112" cy="804" r="6" class="c0"/>
<circle cx="1912" cy="786" r="6" class="c0"/>
</svg>
