<?xml version="1.0" encoding="utf-8"?>
<svg xmlns="http://www.w3.org/2000/svg"
     xmlns:xlink="http://www.w3.org/1999/xlink" width="1920" height="1440" >

            <defs>
            <style type="text/css"><![CDATA[
circle {stroke: none;}
.c0 {fill: #FFFFFF;}
]]></style>
            </defs>
<rect x="0" y="0" width="1920" height="1440" fill="black"/>
<circle cx="1888" cy="818" r="14" class="c0"/>
<circle cx="1894" cy="920" r="12" class="c0"/>
<circle cx="636" cy="706" r="12" class="c0"/>
<circle cx="370" cy="702" r="12" class="c0"/>
<circle cx="1888" cy="786" r="12" class="c0"/>
<circle cx="1432" cy="714" r="12" class="c0"/>
<circle cx="1882" cy="850" r="12" class="c0"/>
<circle cx="1642" cy="708" r="12" class="c0"/>
<circle cx="1102" cy="698" r="12" class="c0"/>
<circle cx="860" cy="670" r="12" class="c0"/>
<circle cx="86" cy="698" r="12" class="c0"/>
<circle cx="788" cy="708" r="12" class="c0"/>
<circle cx="1824" cy="708" r="12" class="c0"/>
<circle cx="180" cy="710" r="12" class="c0"/>
<circle cx="1850" cy="770" r="12" class="c0"/>
<circle cx="1770" cy="792" r="12" class="c0"/>
<circle cx="1464" cy="708" r="12" class="c0"/>
<circle cx="1702" cy="766" r="12" class="c0"/>
<circle cx="1848" cy="812" r="12" class="c0"/>
<circle cx="132" cy="714" r="12" class="c0"/>
<circle cx="1446" cy="670" r="12" class="c0"/>
<circle cx="1206" cy="684" r="12" class="c0"/>
<circle cx="1734" cy="822" r="12" class="c0"/>
<circle cx="1626" cy="780" r="12" class="c0"/>
<circle cx="1730" cy="796" r="12" class="c0"/>
<circle cx="1140" cy="672" r="12" class="c0"/>
<circle cx="1872" cy="608" r="12" class="c0"/>
<circle cx="560" cy="674" r="12" class="c0"/>
<circle cx="968" cy="668" r="12" class="c0"/>
<circle cx="1522" cy="716" r="12" class="c0"/>
<circle cx="1258" cy="720" r="12" class="c0"/>
<circle cx="838" cy="714" r="12" class="c0"/>
<circle cx="1698" cy="702" r="12" class="c0"/>
<circle cx="1798" cy="876" r="12" class="c0"/>
<circle cx="552" cy="708" r="12" class="c0"/>
<circle cx="1904" cy="1002" r="10" class="c0"/>
<circle cx="476" cy="678" r="10" class="c0"/>
<circle cx="1786" cy="850" r="10" class="c0"/>
<circle cx="1802" cy="696" r="10" class="c0"/>
<circle cx="1704" cy="790" r="10" class="c0"/>
<circle cx="1388" cy="726" r="10" class="c0"/>
<circle cx="1770" cy="718" r="10" class="c0"/>
<circle cx="1858" cy="844" r="10" class="c0"/>
<circle cx="1186" cy="672" r="10" class="c0"/>
<circle cx="160" cy="726" r="10" class="c0"/>
<circle cx="1228" cy="722" r="10" class="c0"/>
<circle cx="1304" cy="708" r="10" class="c0"/>
<circle cx="1908" cy="946" r="10" class="c0"/>
<circle cx="1848" cy="744" r="10" class="c0"/>
<circle cx="1212" cy="708" r="10" class="c0"/>
<circle cx="938" cy="700" r="10" class="c0"/>
<circle cx="1622" cy="754" r="10" class="c0"/>
<circle cx="1830" cy="824" r="10" class="c0"/>
<circle cx="1546" cy="678" r="10" class="c0"/>
<circle cx="730" cy="702" r="10" class="c0"/>
<circle cx="1496" cy="652" r="10" class="c0"/>
<circle cx="1804" cy="780" r="10" class="c0"/>
<circle cx="1908" cy="602" r="10" class="c0"/>
<circle cx="1844" cy="682" r="10" class="c0"/>
<circle cx="14" cy="734" r="10" class="c0"/>
<circle cx="1578" cy="718" r="10" class="c0"/>
<circle cx="1890" cy="698" r="10" class="c0"/>
<circle cx="1574" cy="764" r="10" class="c0"/>
<circle cx="1750" cy="806" r="10" class="c0"/>
<circle cx="1854" cy="654" r="10" class="c0"/>
<circle cx="1332" cy="688" r="10" class="c0"/>
<circle cx="1676" cy="686" r="10" class="c0"/>
<circle cx="1860" cy="902" r="10" class="c0"/>
<circle cx="1672" cy="788" r="10" class="c0"/>
<circle cx="1072" cy="684" r="10" class="c0"/>
<circle cx="1692" cy="816" r="10" class="c0"/>
<circle cx="1752" cy="698" r="10" class="c0"/>
<circle cx="1774" cy="826" r="10" class="c0"/>
<circle cx="800" cy="670" r="10" class="c0"/>
<circle cx="1236" cy="702" r="10" class="c0"/>
<circle cx="1640" cy="808" r="10" class="c0"/>
<circle cx="1460" cy="650" r="10" class="c0"/>
<circle cx="1366" cy="702" r="10" class="c0"/>
<circle cx="890" cy="686" r="10" class="c0"/>
<circle cx="404" cy="700" r="10" class="c0"/>
<circle cx="318" cy="700" r="10" class="c0"/>
<circle cx="1554" cy="754" r="10" class="c0"/>
<circle cx="1538" cy="648" r="10" class="c0"/>
<circle cx="282" cy="710" r="10" class="c0"/>
<circle cx="1888" cy="1064" r="10" class="c0"/>
<circle cx="1826" cy="748" r="10" class="c0"/>
<circle cx="1148" cy="696" r="10" class="c0"/>
<circle cx="984" cy="718" r="10" class="c0"/>
<circle cx="326" cy="680" r="10" class="c0"/>
<circle cx="1660" cy="816" r="10" class="c0"/>
<circle cx="814" cy="684" r="10" class="c0"/>
<circle cx="1048" cy="690" r="10" class="c0"/>
<circle cx="246" cy="724" r="10" class="c0"/>
<circle cx="1536" cy="766" r="10" class="c0"/>
<circle cx="1904" cy="874" r="10" class="c0"/>
<circle cx="1394" cy="700" r="10" class="c0"/>
<circle cx="498" cy="728" r="10" class="c0"/>
<circle cx="220" cy="692" r="10" class="c0"/>
<circle cx="44" cy="720" r="10" class="c0"/>
<circle cx="632" cy="668" r="10" class="c0"/>
<circle cx="418" cy="718" r="10" class="c0"/>
<circle cx="1604" cy="738" r="10" class="c0"/>
<circle cx="460" cy="696" r="10" class="c0"/>
<circle cx="916" cy="710" r="10" class="c0"/>
<circle cx="528" cy="698" r="10" class="c0"/>
<circle cx="1652" cy="688" r="10" class="c0"/>
<circle cx="910" cy="670" r="10" class="c0"/>
<circle cx="1426" cy="688" r="10" class="c0"/>
<circle cx="1404" cy="622" r="10" class="c0"/>
<circle cx="1612" cy="794" r="10" class="c0"/>
<circle cx="486" cy="708" r="10" class="c0"/>
<circle cx="1900" cy="1030" r="10" class="c0"/>
<circle cx="1732" cy="854" r="10" class="c0"/>
<circle cx="1802" cy="832" r="10" class="c0"/>
<circle cx="744" cy="674" r="10" class="c0"/>
<circle cx="1508" cy="666" r="10" class="c0"/>
<circle cx="1314" cy="668" r="10" class="c0"/>
<circle cx="1514" cy="642" r="10" class="c0"/>
<circle cx="1802" cy="720" r="10" class="c0"/>
<circle cx="660" cy="680" r="10" class="c0"/>
<circle cx="1402" cy="758" r="10" class="c0"/>
<circle cx="1592" cy="778" r="10" class="c0"/>
<circle cx="868" cy="708" r="10" class="c0"/>
<circle cx="704" cy="710" r="8" class="c0"/>
<circle cx="1608" cy="692" r="8" class="c0"/>
<circle cx="1568" cy="678" r="8" class="c0"/>
<circle cx="192" cy="692" r="8" class="c0"/>
<circle cx="1330" cy="716" r="8" class="c0"/>
<circle cx="334" cy="714" r="8" class="c0"/>
<circle cx="618" cy="694" r="8" class="c0"/>
<circle cx="354" cy="718" r="8" class="c0"/>
<circle cx="508" cy="710" r="8" class="c0"/>
<circle cx="1880" cy="636" r="8" class="c0"/>
<circle cx="1758" cy="840" r="8" class="c0"/>
<circle cx="454" cy="720" r="8" class="c0"/>
<circle cx="120" cy="690" r="8" class="c0"/>
<circle cx="1816" cy="848" r="8" class="c0"/>
<circle cx="1722" cy="686" r="8" class="c0"/>
<circle cx="1614" cy="716" r="8" class="c0"/>
<circle cx="986" cy="696" r="8" class="c0"/>
<circle cx="1270" cy="704" r="8" class="c0"/>
<circle cx="308" cy="716" r="8" class="c0"/>
<circle cx="428" cy="674" r="8" class="c0"/>
<circle cx="440" cy="704" r="8" class="c0"/>
<circle cx="1866" cy="794" r="8" class="c0"/>
<circle cx="1486" cy="756" r="8" class="c0"/>
<circle cx="1634" cy="728" r="8" class="c0"/>
<circle cx="1878" cy="752" r="8" class="c0"/>
<circle cx="1838" cy="890" r="8" class="c0"/>
<circle cx="446" cy="668" r="8" class="c0"/>
<circle cx="592" cy="720" r="8" class="c0"/>
<circle cx="1910" cy="680" r="8" class="c0"/>
<circle cx="1908" cy="1104" r="8" class="c0"/>
<circle cx="1910" cy="976" r="8" class="c0"/>
<circle cx="670" cy="700" r="8" class="c0"/>
<circle cx="1826" cy="878" r="8" class="c0"/>
<circle cx="1560" cy="698" r="8" class="c0"/>
<circle cx="110" cy="736" r="8" class="c0"/>
<circle cx="696" cy="678" r="8" class="c0"/>
<circle cx="1488" cy="672" r="8" class="c0"/>
<circle cx="1042" cy="670" r="8" class="c0"/>
<circle cx="1492" cy="736" r="8" class="c0"/>
<circle cx="1714" cy="812" r="8" class="c0"/>
<circle cx="96" cy="720" r="8" class="c0"/>
<circle cx="342" cy="698" r="8" class="c0"/>
<circle cx="1412" cy="670" r="8" class="c0"/>
<circle cx="1580" cy="638" r="8" class="c0"/>
<circle cx="1830" cy="668" r="8" class="c0"/>
<circle cx="1252" cy="666" r="8" class="c0"/>
<circle cx="936" cy="666" r="8" class="c0"/>
<circle cx="1882" cy="880" r="8" class="c0"/>
<circle cx="302" cy="690" r="8" class="c0"/>
<circle cx="1164" cy="668" r="8" class="c0"/>
<circle cx="1506" cy="696" r="8" class="c0"/>
<circle cx="82" cy="734" r="8" class="c0"/>
<circle cx="1120" cy="658" r="8" class="c0"/>
<circle cx="1720" cy="718" r="8" class="c0"/>
<circle cx="1754" cy="864" r="8" class="c0"/>
<circle cx="1564" cy="658" r="8" class="c0"/>
<circle cx="1876" cy="726" r="8" class="c0"/>
<circle cx="1288" cy="674" r="8" class="c0"/>
<circle cx="584" cy="658" r="8" class="c0"/>
<circle cx="1904" cy="718" r="8" class="c0"/>
<circle cx="1226" cy="670" r="8" class="c0"/>
<circle cx="1836" cy="844" r="8" class="c0"/>
<circle cx="390" cy="720" r="8" class="c0"/>
<circle cx="1236" cy="680" r="8" class="c0"/>
<circle cx="292" cy="730" r="8" class="c0"/>
<circle cx="1066" cy="710" r="8" class="c0"/>
<circle cx="1858" cy="874" r="8" class="c0"/>
<circle cx="1874" cy="682" r="8" class="c0"/>
<circle cx="1350" cy="714" r="8" class="c0"/>
<circle cx="1774" cy="870" r="8" class="c0"/>
<circle cx="1896" cy="758" r="8" class="c0"/>
<circle cx="1368" cy="670" r="8" class="c0"/>
<circle cx="1008" cy="654" r="8" class="c0"/>
<circle cx="1610" cy="668" r="8" class="c0"/>
<circle cx="1506" cy="758" r="8" class="c0"/>
<circle cx="1908" cy="854" r="8" class="c0"/>
<circle cx="778" cy="686" r="8" class="c0"/>
<circle cx="1826" cy="802" r="8" class="c0"/>
<circle cx="764" cy="662" r="8" class="c0"/>
<circle cx="1120" cy="680" r="8" class="c0"/>
<circle cx="1562" cy="634" r="8" class="c0"/>
<circle cx="780" cy="728" r="8" class="c0"/>
<circle cx="1900" cy="652" r="8" class="c0"/>
<circle cx="608" cy="674" r="8" class="c0"/>
<circle cx="1522" cy="780" r="8" class="c0"/>
<circle cx="1850" cy="722" r="8" class="c0"/>
<circle cx="1252" cy="692" r="8" class="c0"/>
<circle cx="606" cy="708" r="8" class="c0"/>
<circle cx="1906" cy="1086" r="8" class="c0"/>
<circle cx="1434" cy="650" r="8" class="c0"/>
<circle cx="108" cy="710" r="8" class="c0"/>
<circle cx="1528" cy="694" r="8" class="c0"/>
<circle cx="1130" cy="704" r="8" class="c0"/>
<circle cx="384" cy="674" r="8" class="c0"/>
<circle cx="446" cy="648" r="8" class="c0"/>
<circle cx="1032" cy="646" r="8" class="c0"/>
<circle cx="1278" cy="686" r="8" class="c0"/>
<circle cx="258" cy="680" r="8" class="c0"/>
<circle cx="950" cy="652" r="8" class="c0"/>
<circle cx="1014" cy="694" r="8" class="c0"/>
<circle cx="1172" cy="700" r="8" class="c0"/>
<circle cx="1274" cy="664" r="8" class="c0"/>
<circle cx="1134" cy="722" r="8" class="c0"/>
<circle cx="1640" cy="764" r="8" class="c0"/>
<circle cx="1526" cy="742" r="8" class="c0"/>
<circle cx="720" cy="678" r="8" class="c0"/>
<circle cx="1680" cy="712" r="8" class="c0"/>
<circle cx="590" cy="686" r="8" class="c0"/>
<circle cx="504" cy="676" r="8" class="c0"/>
<circle cx="1000" cy="682" r="8" class="c0"/>
<circle cx="912" cy="690" r="8" class="c0"/>
<circle cx="1630" cy="684" r="8" class="c0"/>
<circle cx="1394" cy="660" r="8" class="c0"/>
<circle cx="1024" cy="714" r="8" class="c0"/>
<circle cx="836" cy="690" r="8" class="c0"/>
<circle cx="1450" cy="692" r="8" class="c0"/>
<circle cx="952" cy="680" r="8" class="c0"/>
<circle cx="1862" cy="698" r="8" class="c0"/>
<circle cx="1598" cy="682" r="8" class="c0"/>
<circle cx="762" cy="704" r="8" class="c0"/>
<circle cx="966" cy="704" r="8" class="c0"/>
<circle cx="1890" cy="666" r="8" class="c0"/>
<circle cx="1422" cy="746" r="8" class="c0"/>
<circle cx="1650" cy="754" r="8" class="c0"/>
<circle cx="60" cy="732" r="8" class="c0"/>
<circle cx="678" cy="666" r="8" class="c0"/>
<circle cx="688" cy="718" r="8" class="c0"/>
<circle cx="660" cy="712" r="8" class="c0"/>
<circle cx="882" cy="664" r="8" class="c0"/>
<circle cx="1594" cy="706" r="8" class="c0"/>
<circle cx="1188" cy="710" r="8" class="c0"/>
<circle cx="1834" cy="648" r="8" class="c0"/>
<circle cx="1496" cy="712" r="8" class="c0"/>
<circle cx="1732" cy="696" r="8" class="c0"/>
<circle cx="198" cy="732" r="8" class="c0"/>
<circle cx="282" cy="672" r="8" class="c0"/>
<circle cx="710" cy="668" r="8" class="c0"/>
<circle cx="1408" cy="778" r="8" class="c0"/>
<circle cx="1406" cy="734" r="8" class="c0"/>
<circle cx="1858" cy="630" r="8" class="c0"/>
<circle cx="1054" cy="660" r="8" class="c0"/>
<circle cx="1788" cy="814" r="8" class="c0"/>
<circle cx="1808" cy="758" r="8" class="c0"/>
<circle cx="358" cy="678" r="8" class="c0"/>
<circle cx="1896" cy="898" r="8" class="c0"/>
<circle cx="1288" cy="726" r="8" class="c0"/>
<circle cx="1476" cy="690" r="8" class="c0"/>
<circle cx="840" cy="660" r="8" class="c0"/>
<circle cx="892" cy="710" r="8" class="c0"/>
<circle cx="1778" cy="700" r="8" class="c0"/>
<circle cx="154" cy="704" r="8" class="c0"/>
<circle cx="1588" cy="664" r="8" class="c0"/>
<circle cx="1664" cy="766" r="8" class="c0"/>
<circle cx="1472" cy="734" r="8" class="c0"/>
<circle cx="542" cy="686" r="8" class="c0"/>
<circle cx="570" cy="698" r="8" class="c0"/>
<circle cx="1846" cy="864" r="8" class="c0"/>
<circle cx="1378" cy="686" r="8" class="c0"/>
<circle cx="1682" cy="758" r="8" class="c0"/>
<circle cx="1890" cy="626" r="8" class="c0"/>
<circle cx="1566" cy="734" r="8" class="c0"/>
<circle cx="1838" cy="786" r="8" class="c0"/>
<circle cx="1108" cy="668" r="8" class="c0"/>
<circle cx="1906" cy="736" r="8" class="c0"/>
<circle cx="1888" cy="590" r="8" class="c0"/>
<circle cx="1044" cy="712" r="8" class="c0"/>
<circle cx="64" cy="706" r="8" class="c0"/>
<circle cx="1564" cy="786" r="8" class="c0"/>
<circle cx="172" cy="684" r="8" class="c0"/>
<circle cx="1696" cy="838" r="8" class="c0"/>
<circle cx="1086" cy="660" r="8" class="c0"/>
<circle cx="1872" cy="772" r="8" class="c0"/>
<circle cx="1546" cy="728" r="8" class="c0"/>
<circle cx="234" cy="736" r="8" class="c0"/>
<circle cx="1016" cy="670" r="8" class="c0"/>
<circle cx="1678" cy="830" r="8" class="c0"/>
<circle cx="1006" cy="712" r="8" class="c0"/>
<circle cx="1392" cy="634" r="8" class="c0"/>
<circle cx="1414" cy="704" r="8" class="c0"/>
<circle cx="40" cy="742" r="8" class="c0"/>
<circle cx="1350" cy="678" r="8" class="c0"/>
<circle cx="956" cy="714" r="8" class="c0"/>
<circle cx="996" cy="664" r="8" class="c0"/>
<circle cx="1336" cy="666" r="8" class="c0"/>
<circle cx="318" cy="738" r="8" class="c0"/>
<circle cx="1910" cy="802" r="8" class="c0"/>
<circle cx="1414" cy="652" r="8" class="c0"/>
<circle cx="1528" cy="670" r="8" class="c0"/>
<circle cx="1650" cy="780" r="8" class="c0"/>
<circle cx="226" cy="716" r="8" class="c0"/>
<circle cx="1296" cy="690" r="8" class="c0"/>
<circle cx="246" cy="692" r="8" class="c0"/>
<circle cx="1384" cy="750" r="8" class="c0"/>
<circle cx="692" cy="696" r="8" class="c0"/>
<circle cx="1908" cy="774" r="8" class="c0"/>
<circle cx="940" cy="722" r="8" class="c0"/>
<circle cx="616" cy="720" r="8" class="c0"/>
<circle cx="1888" cy="1042" r="8" class="c0"/>
<circle cx="1684" cy="776" r="8" class="c0"/>
<circle cx="256" cy="708" r="8" class="c0"/>
<circle cx="828" cy="670" r="8" class="c0"/>
<circle cx="1406" cy="600" r="8" class="c0"/>
<circle cx="1596" cy="804" r="8" class="c0"/>
<circle cx="1904" cy="1054" r="8" class="c0"/>
<circle cx="526" cy="724" r="8" class="c0"/>
<circle cx="1748" cy="784" r="8" class="c0"/>
<circle cx="1548" cy="708" r="8" class="c0"/>
<circle cx="236" cy="682" r="8" class="c0"/>
<circle cx="810" cy="726" r="8" class="c0"/>
<circle cx="566" cy="724" r="8" class="c0"/>
<circle cx="422" cy="692" r="8" class="c0"/>
<circle cx="1820" cy="678" r="8" class="c0"/>
<circle cx="748" cy="694" r="8" class="c0"/>
<circle cx="1714" cy="840" r="8" class="c0"/>
<circle cx="726" cy="726" r="8" class="c0"/>
<circle cx="206" cy="704" r="8" class="c0"/>
<circle cx="224" cy="746" r="8" class="c0"/>
<circle cx="280" cy="690" r="8" class="c0"/>
<circle cx="1872" cy="890" r="8" class="c0"/>
<circle cx="1064" cy="744" r="8" class="c0"/>
<circle cx="144" cy="736" r="8" class="c0"/>
<circle cx="1600" cy="760" r="8" class="c0"/>
<circle cx="1084" cy="708" r="8" class="c0"/>
<circle cx="146" cy="680" r="8" class="c0"/>
<circle cx="1880" cy="906" r="8" class="c0"/>
<circle cx="810" cy="706" r="8" class="c0"/>
<circle cx="236" cy="702" r="8" class="c0"/>
<circle cx="1470" cy="668" r="8" class="c0"/>
<circle cx="1818" cy="894" r="8" class="c0"/>
<circle cx="904" cy="650" r="8" class="c0"/>
<circle cx="494" cy="690" r="8" class="c0"/>
<circle cx="1872" cy="708" r="8" class="c0"/>
<circle cx="1886" cy="738" r="6" class="c0"/>
<circle cx="1860" cy="732" r="6" class="c0"/>
<circle cx="1096" cy="720" r="6" class="c0"/>
<circle cx="1316" cy="696" r="6" class="c0"/>
<circle cx="1742" cy="720" r="6" class="c0"/>
<circle cx="1888" cy="1016" r="6" class="c0"/>
<circle cx="1582" cy="696" r="6" class="c0"/>
<circle cx="1032" cy="682" r="6" class="c0"/>
<circle cx="28" cy="710" r="6" class="c0"/>
<circle cx="1912" cy="628" r="6" class="c0"/>
<circle cx="1508" cy="742" r="6" class="c0"/>
<circle cx="1312" cy="724" r="6" class="c0"/>
<circle cx="410" cy="674" r="6" class="c0"/>
<circle cx="1848" cy="706" r="6" class="c0"/>
<circle cx="874" cy="730" r="6" class="c0"/>
<circle cx="1262" cy="678" r="6" class="c0"/>
<circle cx="270" cy="734" r="6" class="c0"/>
<circle cx="1820" cy="770" r="6" class="c0"/>
<circle cx="1404" cy="684" r="6" class="c0"/>
<circle cx="1538" cy="786" r="6" class="c0"/>
<circle cx="1822" cy="784" r="6" class="c0"/>
<circle cx="1418" cy="610" r="6" class="c0"/>
<circle cx="1806" cy="808" r="6" class="c0"/>
<circle cx="534" cy="672" r="6" class="c0"/>
<circle cx="1098" cy="678" r="6" class="c0"/>
<circle cx="1584" cy="748" r="6" class="c0"/>
<circle cx="436" cy="726" r="6" class="c0"/>
<circle cx="1792" cy="792" r="6" class="c0"/>
<circle cx="468" cy="712" r="6" class="c0"/>
<circle cx="1880" cy="656" r="6" class="c0"/>
<circle cx="1620" cy="810" r="6" class="c0"/>
<circle cx="1868" cy="864" r="6" class="c0"/>
<circle cx="858" cy="692" r="6" class="c0"/>
<circle cx="1112" cy="716" r="6" class="c0"/>
<circle cx="306" cy="674" r="6" class="c0"/>
<circle cx="1912" cy="1070" r="6" class="c0"/>
<circle cx="1910" cy="826" r="6" class="c0"/>
<circle cx="1902" cy="834" r="6" class="c0"/>
<circle cx="1164" cy="686" r="6" class="c0"/>
<circle cx="728" cy="662" r="6" class="c0"/>
<circle cx="780" cy="660" r="6" class="c0"/>
<circle cx="1770" cy="686" r="6" class="c0"/>
<circle cx="652" cy="664" r="6" class="c0"/>
<circle cx="812" cy="658" r="6" class="c0"/>
<circle cx="176" cy="740" r="6" class="c0"/>
<circle cx="1802" cy="742" r="6" class="c0"/>
<circle cx="604" cy="736" r="6" class="c0"/>
<circle cx="1820" cy="730" r="6" class="c0"/>
<circle cx="1550" cy="796" r="6" class="c0"/>
<circle cx="464" cy="664" r="6" class="c0"/>
<circle cx="74" cy="718" r="6" class="c0"/>
<circle cx="1866" cy="666" r="6" class="c0"/>
<circle cx="1728" cy="774" r="6" class="c0"/>
<circle cx="638" cy="686" r="6" class="c0"/>
<circle cx="1032" cy="698" r="6" class="c0"/>
<circle cx="1216" cy="658" r="6" class="c0"/>
<circle cx="1552" cy="774" r="6" class="c0"/>
<circle cx="520" cy="680" r="6" class="c0"/>
<circle cx="1910" cy="906" r="6" class="c0"/>
<circle cx="758" cy="684" r="6" class="c0"/>
<circle cx="1706" cy="826" r="6" class="c0"/>
<circle cx="1910" cy="580" r="6" class="c0"/>
<circle cx="1706" cy="680" r="6" class="c0"/>
<circle cx="514" cy="662" r="6" class="c0"/>
<circle cx="796" cy="690" r="6" class="c0"/>
<circle cx="1814" cy="864" r="6" class="c0"/>
<circle cx="1496" cy="686" r="6" class="c0"/>
<circle cx="1154" cy="720" r="6" class="c0"/>
<circle cx="1574" cy="796" r="6" class="c0"/>
<circle cx="1170" cy="716" r="6" class="c0"/>
<circle cx="1662" cy="710" r="6" class="c0"/>
<circle cx="1890" cy="1084" r="6" class="c0"/>
<circle cx="396" cy="684" r="6" class="c0"/>
<circle cx="1370" cy="720" r="6" class="c0"/>
<circle cx="1114" cy="730" r="6" class="c0"/>
<circle cx="1238" cy="656" r="6" class="c0"/>
<circle cx="1346" cy="698" r="6" class="c0"/>
<circle cx="1382" cy="646" r="6" class="c0"/>
<circle cx="344" cy="728" r="6" class="c0"/>
<circle cx="926" cy="682" r="6" class="c0"/>
<circle cx="404" cy="744" r="6" class="c0"/>
<circle cx="212" cy="724" r="6" class="c0"/>
<circle cx="360" cy="658" r="6" class="c0"/>
<circle cx="1756" cy="824" r="6" class="c0"/>
<circle cx="368" cy="728" r="6" class="c0"/>
<circle cx="1478" cy="642" r="6" class="c0"/>
<circle cx="1404" cy="716" r="6" class="c0"/>
<circle cx="742" cy="714" r="6" class="c0"/>
<circle cx="1188" cy="692" r="6" class="c0"/>
<circle cx="882" cy="720" r="6" class="c0"/>
<circle cx="1766" cy="854" r="6" class="c0"/>
<circle cx="1656" cy="212" r="6" class="c0"/>
<circle cx="1070" cy="666" r="6" class="c0"/>
<circle cx="1870" cy="830" r="6" class="c0"/>
<circle cx="1610" cy="770" r="6" class="c0"/>
<circle cx="1904" cy="636" r="6" class="c0"/>
<circle cx="638" cy="726" r="6" class="c0"/>
<circle cx="448" cy="684" r="6" class="c0"/>
<circle cx="590" cy="704" r="6" class="c0"/>
<circle cx="538" cy="734" r="6" class="c0"/>
<circle cx="58" cy="760" r="6" class="c0"/>
<circle cx="16" cy="752" r="6" class="c0"/>
<circle cx="1356" cy="658" r="6" class="c0"/>
<circle cx="1470" cy="750" r="6" class="c0"/>
<circle cx="1204" cy="664" r="6" class="c0"/>
<circle cx="1910" cy="698" r="6" class="c0"/>
<circle cx="984" cy="678" r="6" class="c0"/>
<circle cx="12" cy="712" r="6" class="c0"/>
<circle cx="970" cy="730" r="6" class="c0"/>
<circle cx="652" cy="696" r="6" class="c0"/>
<circle cx="138" cy="694" r="6" class="c0"/>
<circle cx="108" cy="756" r="6" class="c0"/>
<circle cx="1504" cy="726" r="6" class="c0"/>
<circle cx="1828" cy="858" r="6" class="c0"/>
<circle cx="1480" cy="720" r="6" class="c0"/>
<circle cx="1462" cy="682" r="6" class="c0"/>
<circle cx="424" cy="736" r="6" class="c0"/>
<circle cx="402" cy="666" r="6" class="c0"/>
<circle cx="1500" cy="774" r="6" class="c0"/>
<circle cx="1338" cy="732" r="6" class="c0"/>
<circle cx="1420" cy="768" r="6" class="c0"/>
<circle cx="1912" cy="892" r="6" class="c0"/>
<circle cx="1742" cy="684" r="6" class="c0"/>
<circle cx="1638" cy="744" r="6" class="c0"/>
<circle cx="680" cy="684" r="6" class="c0"/>
<circle cx="752" cy="724" r="6" class="c0"/>
<circle cx="50" cy="694" r="6" class="c0"/>
<circle cx="702" cy="728" r="6" class="c0"/>
<circle cx="1662" cy="742" r="6" class="c0"/>
<circle cx="714" cy="694" r="6" class="c0"/>
<circle cx="1418" cy="632" r="6" class="c0"/>
<circle cx="478" cy="726" r="6" class="c0"/>
<circle cx="1870" cy="646" r="6" class="c0"/>
<circle cx="126" cy="734" r="6" class="c0"/>
<circle cx="826" cy="700" r="6" class="c0"/>
<circle cx="1154" cy="658" r="6" class="c0"/>
<circle cx="1676" cy="806" r="6" class="c0"/>
<circle cx="908" cy="734" r="6" class="c0"/>
<circle cx="264" cy="722" r="6" class="c0"/>
<circle cx="1912" cy="756" r="6" class="c0"/>
<circle cx="1836" cy="730" r="6" class="c0"/>
<circle cx="242" cy="750" r="6" class="c0"/>
<circle cx="1286" cy="710" r="6" class="c0"/>
<circle cx="1392" cy="608" r="6" class="c0"/>
<circle cx="96" cy="744" r="6" class="c0"/>
<circle cx="1516" cy="682" r="6" class="c0"/>
<circle cx="510" cy="692" r="6" class="c0"/>
<circle cx="204" cy="680" r="6" class="c0"/>
<circle cx="1912" cy="664" r="6" class="c0"/>
<circle cx="1392" cy="678" r="6" class="c0"/>
<circle cx="1624" cy="700" r="6" class="c0"/>
<circle cx="1868" cy="810" r="6" class="c0"/>
<circle cx="426" cy="656" r="6" class="c0"/>
<circle cx="1198" cy="722" r="6" class="c0"/>
<circle cx="1586" cy="734" r="6" class="c0"/>
<circle cx="1544" cy="628" r="6" class="c0"/>
<circle cx="490" cy="668" r="6" class="c0"/>
<circle cx="1788" cy="710" r="6" class="c0"/>
<circle cx="1842" cy="632" r="6" class="c0"/>
<circle cx="1300" cy="658" r="6" class="c0"/>
<circle cx="610" cy="658" r="6" class="c0"/>
<circle cx="1656" cy="798" r="6" class="c0"/>
<circle cx="1888" cy="716" r="6" class="c0"/>
<circle cx="360" cy="740" r="6" class="c0"/>
<circle cx="922" cy="658" r="6" class="c0"/>
<circle cx="558" cy="654" r="6" class="c0"/>
<circle cx="1870" cy="918" r="6" class="c0"/>
<circle cx="664" cy="732" r="6" class="c0"/>
<circle cx="1604" cy="652" r="6" class="c0"/>
<circle cx="1416" cy="724" r="6" class="c0"/>
<circle cx="190" cy="662" r="6" class="c0"/>
<circle cx="872" cy="690" r="6" class="c0"/>
<circle cx="74" cy="748" r="6" class="c0"/>
<circle cx="1452" cy="724" r="6" class="c0"/>
<circle cx="1868" cy="740" r="6" class="c0"/>
<circle cx="746" cy="656" r="6" class="c0"/>
<circle cx="388" cy="692" r="6" class="c0"/>
<circle cx="1686" cy="798" r="6" class="c0"/>
<circle cx="1862" cy="754" r="6" class="c0"/>
<circle cx="646" cy="736" r="6" class="c0"/>
<circle cx="692" cy="736" r="6" class="c0"/>
<circle cx="266" cy="698" r="6" class="c0"/>
<circle cx="700" cy="658" r="6" class="c0"/>
<circle cx="850" cy="732" r="6" class="c0"/>
<circle cx="576" cy="714" r="6" class="c0"/>
<circle cx="382" cy="738" r="6" class="c0"/>
<circle cx="1842" cy="906" r="6" class="c0"/>
<circle cx="770" cy="718" r="6" class="c0"/>
<circle cx="1432" cy="756" r="6" class="c0"/>
<circle cx="972" cy="688" r="6" class="c0"/>
<circle cx="1814" cy="816" r="6" class="c0"/>
<circle cx="1786" cy="686" r="6" class="c0"/>
<circle cx="1912" cy="1018" r="6" class="c0"/>
<circle cx="1392" cy="774" r="6" class="c0"/>
<circle cx="850" cy="700" r="6" class="c0"/>
<circle cx="902" cy="700" r="6" class="c0"/>
<circle cx="1892" cy="610" r="6" class="c0"/>
<circle cx="982" cy="656" r="6" class="c0"/>
<circle cx="1190" cy="650" r="6" class="c0"/>
<circle cx="1486" cy="700" r="6" class="c0"/>
<circle cx="1242" cy="734" r="6" class="c0"/>
<circle cx="1912" cy="928" r="6" class="c0"/>
<circle cx="1846" cy="832" r="6" class="c0"/>
<circle cx="544" cy="664" r="6" class="c0"/>
<circle cx="168" cy="750" r="6" class="c0"/>
</svg>
