<?xml version="1.0" encoding="utf-8"?>
<svg xmlns="http://www.w3.org/2000/svg"
     xmlns:xlink="http://www.w3.org/1999/xlink" width="1920" height="1440" >

            <defs>
            <style type="text/css"><![CDATA[
circle {stroke: none;}
.c0 {fill: #FFFFFF;}
]]></style>
            </defs>
<rect x="0" y="0" width="1920" height="1440" fill="black"/>
<circle cx="1240" cy="700" r="12" class="c0"/>
<circle cx="1344" cy="672" r="12" class="c0"/>
<circle cx="1766" cy="850" r="12" class="c0"/>
<circle cx="1148" cy="664" r="12" class="c0"/>
<circle cx="1904" cy="1020" r="12" class="c0"/>
<circle cx="1880" cy="630" r="12" class="c0"/>
<circle cx="1866" cy="600" r="12" class="c0"/>
<circle cx="1824" cy="614" r="12" class="c0"/>
<circle cx="1848" cy="1090" r="12" class="c0"/>
<circle cx="1418" cy="708" r="12" class="c0"/>
<circle cx="1704" cy="820" r="12" class="c0"/>
<circle cx="1604" cy="680" r="12" class="c0"/>
<circle cx="926" cy="666" r="12" class="c0"/>
<circle cx="324" cy="714" r="12" class="c0"/>
<circle cx="1564" cy="700" r="12" class="c0"/>
<circle cx="1654" cy="824" r="12" class="c0"/>
<circle cx="802" cy="702" r="12" class="c0"/>
<circle cx="1844" cy="814" r="12" class="c0"/>
<circle cx="1876" cy="558" r="12" class="c0"/>
<circle cx="894" cy="676" r="12" class="c0"/>
<circle cx="646" cy="656" r="12" class="c0"/>
<circle cx="1886" cy="862" r="12" class="c0"/>
<circle cx="1866" cy="786" r="12" class="c0"/>
<circle cx="1530" cy="720" r="12" class="c0"/>
<circle cx="1736" cy="700" r="12" class="c0"/>
<circle cx="1860" cy="974" r="12" class="c0"/>
<circle cx="696" cy="688" r="12" class="c0"/>
<circle cx="1850" cy="900" r="12" class="c0"/>
<circle cx="1898" cy="1094" r="12" class="c0"/>
<circle cx="866" cy="684" r="12" class="c0"/>
<circle cx="1536" cy="778" r="12" class="c0"/>
<circle cx="1568" cy="730" r="12" class="c0"/>
<circle cx="1054" cy="714" r="12" class="c0"/>
<circle cx="594" cy="710" r="12" class="c0"/>
<circle cx="1214" cy="658" r="12" class="c0"/>
<circle cx="1888" cy="658" r="12" class="c0"/>
<circle cx="1370" cy="752" r="10" class="c0"/>
<circle cx="1580" cy="766" r="10" class="c0"/>
<circle cx="424" cy="698" r="10" class="c0"/>
<circle cx="410" cy="676" r="10" class="c0"/>
<circle cx="672" cy="664" r="10" class="c0"/>
<circle cx="1332" cy="706" r="10" class="c0"/>
<circle cx="652" cy="702" r="10" class="c0"/>
<circle cx="1806" cy="844" r="10" class="c0"/>
<circle cx="150" cy="718" r="10" class="c0"/>
<circle cx="1746" cy="872" r="10" class="c0"/>
<circle cx="580" cy="672" r="10" class="c0"/>
<circle cx="1378" cy="672" r="10" class="c0"/>
<circle cx="336" cy="686" r="10" class="c0"/>
<circle cx="1612" cy="768" r="10" class="c0"/>
<circle cx="1906" cy="640" r="10" class="c0"/>
<circle cx="1848" cy="620" r="10" class="c0"/>
<circle cx="1896" cy="890" r="10" class="c0"/>
<circle cx="1878" cy="1004" r="10" class="c0"/>
<circle cx="852" cy="704" r="10" class="c0"/>
<circle cx="1836" cy="592" r="10" class="c0"/>
<circle cx="1188" cy="652" r="10" class="c0"/>
<circle cx="476" cy="720" r="10" class="c0"/>
<circle cx="1862" cy="668" r="10" class="c0"/>
<circle cx="1358" cy="766" r="10" class="c0"/>
<circle cx="524" cy="666" r="10" class="c0"/>
<circle cx="1480" cy="734" r="10" class="c0"/>
<circle cx="282" cy="686" r="10" class="c0"/>
<circle cx="202" cy="730" r="10" class="c0"/>
<circle cx="1502" cy="642" r="10" class="c0"/>
<circle cx="1090" cy="674" r="10" class="c0"/>
<circle cx="124" cy="690" r="10" class="c0"/>
<circle cx="1874" cy="1076" r="10" class="c0"/>
<circle cx="570" cy="706" r="10" class="c0"/>
<circle cx="1800" cy="750" r="10" class="c0"/>
<circle cx="1442" cy="654" r="10" class="c0"/>
<circle cx="1848" cy="728" r="10" class="c0"/>
<circle cx="1548" cy="672" r="10" class="c0"/>
<circle cx="1890" cy="746" r="10" class="c0"/>
<circle cx="730" cy="654" r="10" class="c0"/>
<circle cx="1252" cy="662" r="10" class="c0"/>
<circle cx="100" cy="726" r="10" class="c0"/>
<circle cx="56" cy="722" r="10" class="c0"/>
<circle cx="1588" cy="696" r="10" class="c0"/>
<circle cx="1788" cy="704" r="10" class="c0"/>
<circle cx="1290" cy="684" r="10" class="c0"/>
<circle cx="1012" cy="680" r="10" class="c0"/>
<circle cx="1892" cy="960" r="10" class="c0"/>
<circle cx="264" cy="722" r="10" class="c0"/>
<circle cx="1276" cy="672" r="10" class="c0"/>
<circle cx="1728" cy="802" r="10" class="c0"/>
<circle cx="1884" cy="982" r="10" class="c0"/>
<circle cx="768" cy="678" r="10" class="c0"/>
<circle cx="1066" cy="692" r="10" class="c0"/>
<circle cx="1892" cy="718" r="10" class="c0"/>
<circle cx="1680" cy="710" r="10" class="c0"/>
<circle cx="832" cy="688" r="10" class="c0"/>
<circle cx="304" cy="674" r="10" class="c0"/>
<circle cx="1374" cy="702" r="10" class="c0"/>
<circle cx="906" cy="656" r="10" class="c0"/>
<circle cx="368" cy="708" r="10" class="c0"/>
<circle cx="1688" cy="790" r="10" class="c0"/>
<circle cx="498" cy="666" r="10" class="c0"/>
<circle cx="1788" cy="824" r="10" class="c0"/>
<circle cx="734" cy="678" r="10" class="c0"/>
<circle cx="1464" cy="768" r="10" class="c0"/>
<circle cx="628" cy="706" r="10" class="c0"/>
<circle cx="1794" cy="868" r="10" class="c0"/>
<circle cx="1682" cy="836" r="10" class="c0"/>
<circle cx="1770" cy="728" r="10" class="c0"/>
<circle cx="1038" cy="700" r="10" class="c0"/>
<circle cx="290" cy="708" r="10" class="c0"/>
<circle cx="1878" cy="934" r="10" class="c0"/>
<circle cx="1818" cy="808" r="10" class="c0"/>
<circle cx="1528" cy="656" r="10" class="c0"/>
<circle cx="1444" cy="708" r="10" class="c0"/>
<circle cx="1592" cy="738" r="10" class="c0"/>
<circle cx="1654" cy="782" r="10" class="c0"/>
<circle cx="1110" cy="694" r="10" class="c0"/>
<circle cx="1880" cy="706" r="10" class="c0"/>
<circle cx="382" cy="674" r="10" class="c0"/>
<circle cx="1726" cy="864" r="10" class="c0"/>
<circle cx="618" cy="684" r="10" class="c0"/>
<circle cx="1908" cy="770" r="10" class="c0"/>
<circle cx="976" cy="676" r="10" class="c0"/>
<circle cx="1466" cy="698" r="10" class="c0"/>
<circle cx="526" cy="716" r="10" class="c0"/>
<circle cx="32" cy="720" r="10" class="c0"/>
<circle cx="1308" cy="670" r="10" class="c0"/>
<circle cx="1176" cy="704" r="10" class="c0"/>
<circle cx="1806" cy="650" r="10" class="c0"/>
<circle cx="984" cy="698" r="10" class="c0"/>
<circle cx="1784" cy="620" r="10" class="c0"/>
<circle cx="1154" cy="700" r="10" class="c0"/>
<circle cx="1832" cy="864" r="10" class="c0"/>
<circle cx="1736" cy="846" r="10" class="c0"/>
<circle cx="1534" cy="684" r="10" class="c0"/>
<circle cx="1354" cy="620" r="10" class="c0"/>
<circle cx="810" cy="670" r="10" class="c0"/>
<circle cx="1130" cy="708" r="10" class="c0"/>
<circle cx="1844" cy="658" r="10" class="c0"/>
<circle cx="1688" cy="690" r="10" class="c0"/>
<circle cx="1806" cy="682" r="10" class="c0"/>
<circle cx="1906" cy="544" r="10" class="c0"/>
<circle cx="1856" cy="748" r="10" class="c0"/>
<circle cx="1830" cy="638" r="10" class="c0"/>
<circle cx="1630" cy="696" r="10" class="c0"/>
<circle cx="442" cy="658" r="8" class="c0"/>
<circle cx="1752" cy="836" r="8" class="c0"/>
<circle cx="1864" cy="834" r="8" class="c0"/>
<circle cx="1016" cy="704" r="8" class="c0"/>
<circle cx="206" cy="688" r="8" class="c0"/>
<circle cx="1902" cy="920" r="8" class="c0"/>
<circle cx="68" cy="736" r="8" class="c0"/>
<circle cx="1462" cy="664" r="8" class="c0"/>
<circle cx="1868" cy="1054" r="8" class="c0"/>
<circle cx="704" cy="662" r="8" class="c0"/>
<circle cx="1634" cy="806" r="8" class="c0"/>
<circle cx="1408" cy="688" r="8" class="c0"/>
<circle cx="738" cy="708" r="8" class="c0"/>
<circle cx="592" cy="684" r="8" class="c0"/>
<circle cx="1364" cy="654" r="8" class="c0"/>
<circle cx="1738" cy="748" r="8" class="c0"/>
<circle cx="1746" cy="812" r="8" class="c0"/>
<circle cx="1850" cy="686" r="8" class="c0"/>
<circle cx="1756" cy="668" r="8" class="c0"/>
<circle cx="1836" cy="1018" r="8" class="c0"/>
<circle cx="1838" cy="996" r="8" class="c0"/>
<circle cx="1810" cy="598" r="8" class="c0"/>
<circle cx="456" cy="680" r="8" class="c0"/>
<circle cx="1816" cy="732" r="8" class="c0"/>
<circle cx="910" cy="692" r="8" class="c0"/>
<circle cx="1608" cy="810" r="8" class="c0"/>
<circle cx="1168" cy="682" r="8" class="c0"/>
<circle cx="1222" cy="690" r="8" class="c0"/>
<circle cx="1854" cy="1028" r="8" class="c0"/>
<circle cx="648" cy="682" r="8" class="c0"/>
<circle cx="1774" cy="870" r="8" class="c0"/>
<circle cx="1506" cy="672" r="8" class="c0"/>
<circle cx="408" cy="714" r="8" class="c0"/>
<circle cx="1652" cy="704" r="8" class="c0"/>
<circle cx="1486" cy="660" r="8" class="c0"/>
<circle cx="1048" cy="668" r="8" class="c0"/>
<circle cx="1510" cy="736" r="8" class="c0"/>
<circle cx="954" cy="670" r="8" class="c0"/>
<circle cx="1352" cy="714" r="8" class="c0"/>
<circle cx="1900" cy="1068" r="8" class="c0"/>
<circle cx="1896" cy="832" r="8" class="c0"/>
<circle cx="1836" cy="978" r="8" class="c0"/>
<circle cx="1902" cy="686" r="8" class="c0"/>
<circle cx="524" cy="690" r="8" class="c0"/>
<circle cx="1904" cy="586" r="8" class="c0"/>
<circle cx="1484" cy="682" r="8" class="c0"/>
<circle cx="558" cy="678" r="8" class="c0"/>
<circle cx="1846" cy="704" r="8" class="c0"/>
<circle cx="1772" cy="780" r="8" class="c0"/>
<circle cx="760" cy="656" r="8" class="c0"/>
<circle cx="1770" cy="804" r="8" class="c0"/>
<circle cx="1396" cy="654" r="8" class="c0"/>
<circle cx="1906" cy="810" r="8" class="c0"/>
<circle cx="344" cy="704" r="8" class="c0"/>
<circle cx="1780" cy="762" r="8" class="c0"/>
<circle cx="1874" cy="682" r="8" class="c0"/>
<circle cx="1868" cy="1106" r="8" class="c0"/>
<circle cx="1822" cy="666" r="8" class="c0"/>
<circle cx="1450" cy="756" r="8" class="c0"/>
<circle cx="1196" cy="708" r="8" class="c0"/>
<circle cx="214" cy="714" r="8" class="c0"/>
<circle cx="1830" cy="888" r="8" class="c0"/>
<circle cx="1884" cy="1038" r="8" class="c0"/>
<circle cx="888" cy="708" r="8" class="c0"/>
<circle cx="722" cy="696" r="8" class="c0"/>
<circle cx="1908" cy="1044" r="8" class="c0"/>
<circle cx="1454" cy="642" r="8" class="c0"/>
<circle cx="1854" cy="642" r="8" class="c0"/>
<circle cx="772" cy="722" r="8" class="c0"/>
<circle cx="1778" cy="670" r="8" class="c0"/>
<circle cx="1354" cy="738" r="8" class="c0"/>
<circle cx="1490" cy="770" r="8" class="c0"/>
<circle cx="1412" cy="666" r="8" class="c0"/>
<circle cx="1832" cy="684" r="8" class="c0"/>
<circle cx="1492" cy="718" r="8" class="c0"/>
<circle cx="1438" cy="742" r="8" class="c0"/>
<circle cx="1668" cy="688" r="8" class="c0"/>
<circle cx="1234" cy="674" r="8" class="c0"/>
<circle cx="696" cy="718" r="8" class="c0"/>
<circle cx="444" cy="712" r="8" class="c0"/>
<circle cx="1844" cy="952" r="8" class="c0"/>
<circle cx="1664" cy="802" r="8" class="c0"/>
<circle cx="460" cy="702" r="8" class="c0"/>
<circle cx="864" cy="660" r="8" class="c0"/>
<circle cx="358" cy="692" r="8" class="c0"/>
<circle cx="470" cy="666" r="8" class="c0"/>
<circle cx="784" cy="666" r="8" class="c0"/>
<circle cx="1264" cy="692" r="8" class="c0"/>
<circle cx="1816" cy="828" r="8" class="c0"/>
<circle cx="1852" cy="772" r="8" class="c0"/>
<circle cx="1852" cy="868" r="8" class="c0"/>
<circle cx="1790" cy="798" r="8" class="c0"/>
<circle cx="1814" cy="780" r="8" class="c0"/>
<circle cx="546" cy="712" r="8" class="c0"/>
<circle cx="80" cy="696" r="8" class="c0"/>
<circle cx="174" cy="696" r="8" class="c0"/>
<circle cx="1826" cy="1036" r="8" class="c0"/>
<circle cx="1874" cy="726" r="8" class="c0"/>
<circle cx="1768" cy="826" r="8" class="c0"/>
<circle cx="1908" cy="974" r="8" class="c0"/>
<circle cx="1518" cy="628" r="8" class="c0"/>
<circle cx="380" cy="694" r="8" class="c0"/>
<circle cx="496" cy="694" r="8" class="c0"/>
<circle cx="1878" cy="806" r="8" class="c0"/>
<circle cx="232" cy="700" r="8" class="c0"/>
<circle cx="1848" cy="562" r="8" class="c0"/>
<circle cx="1570" cy="782" r="8" class="c0"/>
<circle cx="144" cy="698" r="8" class="c0"/>
<circle cx="1370" cy="630" r="8" class="c0"/>
<circle cx="1542" cy="756" r="8" class="c0"/>
<circle cx="1866" cy="952" r="8" class="c0"/>
<circle cx="1756" cy="710" r="8" class="c0"/>
<circle cx="960" cy="704" r="8" class="c0"/>
<circle cx="1836" cy="1046" r="8" class="c0"/>
<circle cx="1430" cy="670" r="8" class="c0"/>
<circle cx="1436" cy="688" r="8" class="c0"/>
<circle cx="1428" cy="728" r="8" class="c0"/>
<circle cx="1894" cy="792" r="8" class="c0"/>
<circle cx="1768" cy="644" r="8" class="c0"/>
<circle cx="714" cy="676" r="8" class="c0"/>
<circle cx="884" cy="648" r="8" class="c0"/>
<circle cx="1816" cy="698" r="8" class="c0"/>
<circle cx="550" cy="654" r="8" class="c0"/>
<circle cx="1706" cy="856" r="8" class="c0"/>
<circle cx="1460" cy="732" r="8" class="c0"/>
<circle cx="1760" cy="690" r="8" class="c0"/>
<circle cx="1312" cy="700" r="8" class="c0"/>
<circle cx="776" cy="646" r="8" class="c0"/>
<circle cx="1034" cy="678" r="8" class="c0"/>
<circle cx="1130" cy="654" r="8" class="c0"/>
<circle cx="342" cy="726" r="8" class="c0"/>
<circle cx="1126" cy="684" r="8" class="c0"/>
<circle cx="1086" cy="706" r="8" class="c0"/>
<circle cx="1590" cy="788" r="8" class="c0"/>
<circle cx="1358" cy="600" r="8" class="c0"/>
<circle cx="20" cy="732" r="8" class="c0"/>
<circle cx="672" cy="690" r="8" class="c0"/>
<circle cx="142" cy="678" r="8" class="c0"/>
<circle cx="1480" cy="634" r="8" class="c0"/>
<circle cx="936" cy="702" r="8" class="c0"/>
<circle cx="260" cy="674" r="8" class="c0"/>
<circle cx="1748" cy="778" r="8" class="c0"/>
<circle cx="314" cy="690" r="8" class="c0"/>
<circle cx="1764" cy="752" r="8" class="c0"/>
<circle cx="1910" cy="852" r="8" class="c0"/>
<circle cx="828" cy="708" r="8" class="c0"/>
<circle cx="1510" cy="694" r="8" class="c0"/>
<circle cx="1714" cy="696" r="8" class="c0"/>
<circle cx="1850" cy="930" r="8" class="c0"/>
<circle cx="786" cy="690" r="8" class="c0"/>
<circle cx="1820" cy="752" r="8" class="c0"/>
<circle cx="1428" cy="640" r="8" class="c0"/>
<circle cx="710" cy="708" r="8" class="c0"/>
<circle cx="1630" cy="760" r="8" class="c0"/>
<circle cx="1834" cy="920" r="8" class="c0"/>
<circle cx="1202" cy="680" r="8" class="c0"/>
<circle cx="1222" cy="712" r="8" class="c0"/>
<circle cx="1252" cy="716" r="8" class="c0"/>
<circle cx="1908" cy="734" r="8" class="c0"/>
<circle cx="1708" cy="780" r="8" class="c0"/>
<circle cx="1826" cy="790" r="8" class="c0"/>
<circle cx="1888" cy="596" r="8" class="c0"/>
<circle cx="1884" cy="908" r="8" class="c0"/>
<circle cx="1790" cy="888" r="8" class="c0"/>
<circle cx="178" cy="724" r="8" class="c0"/>
<circle cx="952" cy="720" r="8" class="c0"/>
<circle cx="1620" cy="788" r="8" class="c0"/>
<circle cx="1554" cy="744" r="8" class="c0"/>
<circle cx="1814" cy="898" r="8" class="c0"/>
<circle cx="1820" cy="998" r="8" class="c0"/>
<circle cx="1804" cy="622" r="8" class="c0"/>
<circle cx="1842" cy="1064" r="8" class="c0"/>
<circle cx="1866" cy="916" r="8" class="c0"/>
<circle cx="100" cy="704" r="8" class="c0"/>
<circle cx="1568" cy="674" r="8" class="c0"/>
<circle cx="1286" cy="708" r="8" class="c0"/>
<circle cx="1908" cy="606" r="8" class="c0"/>
<circle cx="602" cy="656" r="8" class="c0"/>
<circle cx="1398" cy="678" r="8" class="c0"/>
<circle cx="1510" cy="788" r="8" class="c0"/>
<circle cx="752" cy="690" r="8" class="c0"/>
<circle cx="1640" cy="770" r="8" class="c0"/>
<circle cx="1076" cy="662" r="8" class="c0"/>
<circle cx="828" cy="658" r="8" class="c0"/>
<circle cx="52" cy="702" r="8" class="c0"/>
<circle cx="842" cy="668" r="8" class="c0"/>
<circle cx="234" cy="724" r="8" class="c0"/>
<circle cx="1870" cy="878" r="8" class="c0"/>
<circle cx="1172" cy="662" r="8" class="c0"/>
<circle cx="476" cy="688" r="8" class="c0"/>
<circle cx="624" cy="654" r="8" class="c0"/>
<circle cx="196" cy="702" r="8" class="c0"/>
<circle cx="1830" cy="1074" r="8" class="c0"/>
<circle cx="254" cy="692" r="8" class="c0"/>
<circle cx="390" cy="710" r="8" class="c0"/>
<circle cx="244" cy="710" r="8" class="c0"/>
<circle cx="1786" cy="646" r="8" class="c0"/>
<circle cx="1344" cy="752" r="8" class="c0"/>
<circle cx="1728" cy="774" r="8" class="c0"/>
<circle cx="1562" cy="800" r="8" class="c0"/>
<circle cx="1910" cy="876" r="8" class="c0"/>
<circle cx="1784" cy="740" r="8" class="c0"/>
<circle cx="1746" cy="720" r="8" class="c0"/>
<circle cx="774" cy="702" r="8" class="c0"/>
<circle cx="1360" cy="684" r="8" class="c0"/>
<circle cx="1834" cy="842" r="8" class="c0"/>
<circle cx="1514" cy="762" r="8" class="c0"/>
<circle cx="128" cy="716" r="8" class="c0"/>
<circle cx="1334" cy="650" r="8" class="c0"/>
<circle cx="1832" cy="766" r="8" class="c0"/>
<circle cx="1718" cy="834" r="8" class="c0"/>
<circle cx="1676" cy="816" r="8" class="c0"/>
<circle cx="1872" cy="1024" r="8" class="c0"/>
<circle cx="1814" cy="872" r="8" class="c0"/>
<circle cx="446" cy="692" r="8" class="c0"/>
<circle cx="1806" cy="720" r="8" class="c0"/>
<circle cx="1732" cy="822" r="8" class="c0"/>
<circle cx="44" cy="734" r="8" class="c0"/>
<circle cx="1796" cy="774" r="8" class="c0"/>
<circle cx="1110" cy="672" r="8" class="c0"/>
<circle cx="402" cy="696" r="8" class="c0"/>
<circle cx="996" cy="668" r="8" class="c0"/>
<circle cx="514" cy="704" r="8" class="c0"/>
<circle cx="1374" cy="724" r="8" class="c0"/>
<circle cx="1734" cy="730" r="8" class="c0"/>
<circle cx="1876" cy="824" r="8" class="c0"/>
<circle cx="1650" cy="686" r="8" class="c0"/>
<circle cx="1908" cy="1124" r="8" class="c0"/>
<circle cx="1324" cy="680" r="8" class="c0"/>
<circle cx="1910" cy="944" r="8" class="c0"/>
<circle cx="1612" cy="744" r="8" class="c0"/>
<circle cx="1908" cy="568" r="8" class="c0"/>
<circle cx="224" cy="676" r="8" class="c0"/>
<circle cx="1498" cy="752" r="8" class="c0"/>
<circle cx="944" cy="650" r="8" class="c0"/>
<circle cx="1858" cy="1002" r="8" class="c0"/>
<circle cx="1862" cy="696" r="8" class="c0"/>
<circle cx="1874" cy="898" r="8" class="c0"/>
<circle cx="750" cy="720" r="8" class="c0"/>
<circle cx="1758" cy="794" r="8" class="c0"/>
<circle cx="690" cy="650" r="8" class="c0"/>
<circle cx="1676" cy="776" r="8" class="c0"/>
<circle cx="1902" cy="998" r="8" class="c0"/>
<circle cx="1858" cy="580" r="8" class="c0"/>
<circle cx="1034" cy="656" r="8" class="c0"/>
<circle cx="1372" cy="612" r="8" class="c0"/>
<circle cx="1448" cy="678" r="8" class="c0"/>
<circle cx="1340" cy="726" r="8" class="c0"/>
<circle cx="184" cy="680" r="8" class="c0"/>
<circle cx="1408" cy="644" r="8" class="c0"/>
<circle cx="1878" cy="584" r="8" class="c0"/>
<circle cx="76" cy="720" r="8" class="c0"/>
<circle cx="1862" cy="716" r="8" class="c0"/>
<circle cx="1298" cy="718" r="8" class="c0"/>
<circle cx="244" cy="682" r="8" class="c0"/>
<circle cx="1590" cy="808" r="8" class="c0"/>
<circle cx="1886" cy="770" r="8" class="c0"/>
<circle cx="1704" cy="706" r="8" class="c0"/>
<circle cx="1814" cy="1016" r="8" class="c0"/>
<circle cx="1886" cy="540" r="8" class="c0"/>
<circle cx="316" cy="662" r="8" class="c0"/>
<circle cx="800" cy="648" r="8" class="c0"/>
<circle cx="346" cy="670" r="8" class="c0"/>
<circle cx="1894" cy="616" r="8" class="c0"/>
<circle cx="1604" cy="706" r="8" class="c0"/>
<circle cx="924" cy="712" r="8" class="c0"/>
<circle cx="1910" cy="704" r="8" class="c0"/>
<circle cx="1886" cy="1058" r="8" class="c0"/>
<circle cx="1886" cy="1112" r="8" class="c0"/>
<circle cx="362" cy="736" r="8" class="c0"/>
<circle cx="1724" cy="718" r="8" class="c0"/>
<circle cx="1620" cy="710" r="6" class="c0"/>
<circle cx="536" cy="678" r="6" class="c0"/>
<circle cx="1852" cy="1050" r="6" class="c0"/>
<circle cx="608" cy="698" r="6" class="c0"/>
<circle cx="1520" cy="746" r="6" class="c0"/>
<circle cx="628" cy="670" r="6" class="c0"/>
<circle cx="1912" cy="790" r="6" class="c0"/>
<circle cx="858" cy="724" r="6" class="c0"/>
<circle cx="1910" cy="750" r="6" class="c0"/>
<circle cx="1048" cy="686" r="6" class="c0"/>
<circle cx="1824" cy="578" r="6" class="c0"/>
<circle cx="1598" cy="756" r="6" class="c0"/>
<circle cx="1890" cy="816" r="6" class="c0"/>
<circle cx="1186" cy="670" r="6" class="c0"/>
<circle cx="1664" cy="764" r="6" class="c0"/>
<circle cx="678" cy="708" r="6" class="c0"/>
<circle cx="1058" cy="654" r="6" class="c0"/>
<circle cx="1492" cy="698" r="6" class="c0"/>
<circle cx="1824" cy="910" r="6" class="c0"/>
<circle cx="1762" cy="882" r="6" class="c0"/>
<circle cx="428" cy="716" r="6" class="c0"/>
<circle cx="1752" cy="762" r="6" class="c0"/>
<circle cx="1272" cy="730" r="6" class="c0"/>
<circle cx="1552" cy="768" r="6" class="c0"/>
<circle cx="1392" cy="706" r="6" class="c0"/>
<circle cx="670" cy="724" r="6" class="c0"/>
<circle cx="1786" cy="684" r="6" class="c0"/>
<circle cx="1630" cy="822" r="6" class="c0"/>
<circle cx="1472" cy="752" r="6" class="c0"/>
<circle cx="18" cy="706" r="6" class="c0"/>
<circle cx="1868" cy="760" r="6" class="c0"/>
<circle cx="508" cy="682" r="6" class="c0"/>
<circle cx="1742" cy="676" r="6" class="c0"/>
<circle cx="964" cy="688" r="6" class="c0"/>
<circle cx="1530" cy="638" r="6" class="c0"/>
<circle cx="488" cy="708" r="6" class="c0"/>
<circle cx="118" cy="736" r="6" class="c0"/>
<circle cx="440" cy="676" r="6" class="c0"/>
<circle cx="642" cy="718" r="6" class="c0"/>
<circle cx="36" cy="694" r="6" class="c0"/>
<circle cx="566" cy="658" r="6" class="c0"/>
<circle cx="1816" cy="1048" r="6" class="c0"/>
<circle cx="1552" cy="714" r="6" class="c0"/>
<circle cx="950" cy="692" r="6" class="c0"/>
<circle cx="1854" cy="846" r="6" class="c0"/>
<circle cx="156" cy="688" r="6" class="c0"/>
<circle cx="1270" cy="710" r="6" class="c0"/>
<circle cx="1864" cy="854" r="6" class="c0"/>
<circle cx="542" cy="696" r="6" class="c0"/>
<circle cx="1350" cy="640" r="6" class="c0"/>
<circle cx="1836" cy="744" r="6" class="c0"/>
<circle cx="1324" cy="662" r="6" class="c0"/>
<circle cx="1250" cy="680" r="6" class="c0"/>
<circle cx="1774" cy="890" r="6" class="c0"/>
<circle cx="420" cy="736" r="6" class="c0"/>
<circle cx="870" cy="710" r="6" class="c0"/>
<circle cx="6" cy="750" r="6" class="c0"/>
<circle cx="1912" cy="910" r="6" class="c0"/>
<circle cx="1912" cy="662" r="6" class="c0"/>
<circle cx="1692" cy="770" r="6" class="c0"/>
<circle cx="966" cy="658" r="6" class="c0"/>
<circle cx="1708" cy="798" r="6" class="c0"/>
<circle cx="362" cy="672" r="6" class="c0"/>
<circle cx="1470" cy="646" r="6" class="c0"/>
<circle cx="1788" cy="724" r="6" class="c0"/>
<circle cx="1480" cy="760" r="6" class="c0"/>
<circle cx="1116" cy="724" r="6" class="c0"/>
<circle cx="1888" cy="574" r="6" class="c0"/>
<circle cx="1718" cy="680" r="6" class="c0"/>
<circle cx="1018" cy="662" r="6" class="c0"/>
<circle cx="1828" cy="718" r="6" class="c0"/>
<circle cx="1510" cy="716" r="6" class="c0"/>
<circle cx="1544" cy="706" r="6" class="c0"/>
<circle cx="1186" cy="686" r="6" class="c0"/>
<circle cx="1384" cy="644" r="6" class="c0"/>
<circle cx="1534" cy="740" r="6" class="c0"/>
<circle cx="1146" cy="684" r="6" class="c0"/>
<circle cx="994" cy="684" r="6" class="c0"/>
<circle cx="1700" cy="840" r="6" class="c0"/>
<circle cx="1546" cy="794" r="6" class="c0"/>
<circle cx="160" cy="704" r="6" class="c0"/>
<circle cx="1844" cy="788" r="6" class="c0"/>
<circle cx="84" cy="738" r="6" class="c0"/>
<circle cx="1102" cy="658" r="6" class="c0"/>
<circle cx="1464" cy="680" r="6" class="c0"/>
<circle cx="532" cy="650" r="6" class="c0"/>
<circle cx="502" cy="714" r="6" class="c0"/>
<circle cx="1464" cy="716" r="6" class="c0"/>
<circle cx="1858" cy="1068" r="6" class="c0"/>
<circle cx="1206" cy="696" r="6" class="c0"/>
<circle cx="1388" cy="690" r="6" class="c0"/>
<circle cx="1166" cy="642" r="6" class="c0"/>
<circle cx="1690" cy="852" r="6" class="c0"/>
<circle cx="1770" cy="702" r="6" class="c0"/>
<circle cx="10" cy="722" r="6" class="c0"/>
<circle cx="1570" cy="752" r="6" class="c0"/>
<circle cx="1320" cy="718" r="6" class="c0"/>
<circle cx="1106" cy="714" r="6" class="c0"/>
<circle cx="1788" cy="850" r="6" class="c0"/>
<circle cx="1794" cy="664" r="6" class="c0"/>
<circle cx="930" cy="686" r="6" class="c0"/>
<circle cx="268" cy="704" r="6" class="c0"/>
<circle cx="1704" cy="682" r="6" class="c0"/>
<circle cx="138" cy="744" r="6" class="c0"/>
<circle cx="1824" cy="1056" r="6" class="c0"/>
<circle cx="614" cy="728" r="6" class="c0"/>
<circle cx="1648" cy="756" r="6" class="c0"/>
<circle cx="1482" cy="706" r="6" class="c0"/>
<circle cx="300" cy="722" r="6" class="c0"/>
<circle cx="1274" cy="654" r="6" class="c0"/>
<circle cx="1006" cy="654" r="6" class="c0"/>
<circle cx="1344" cy="694" r="6" class="c0"/>
<circle cx="1002" cy="694" r="6" class="c0"/>
<circle cx="884" cy="692" r="6" class="c0"/>
<circle cx="808" cy="724" r="6" class="c0"/>
<circle cx="992" cy="714" r="6" class="c0"/>
<circle cx="26" cy="752" r="6" class="c0"/>
<circle cx="1912" cy="1108" r="6" class="c0"/>
<circle cx="1560" cy="760" r="6" class="c0"/>
<circle cx="1806" cy="796" r="6" class="c0"/>
<circle cx="112" cy="714" r="6" class="c0"/>
<circle cx="778" cy="622" r="6" class="c0"/>
<circle cx="168" cy="712" r="6" class="c0"/>
<circle cx="748" cy="668" r="6" class="c0"/>
<circle cx="1882" cy="842" r="6" class="c0"/>
<circle cx="1578" cy="798" r="6" class="c0"/>
<circle cx="980" cy="656" r="6" class="c0"/>
<circle cx="1290" cy="656" r="6" class="c0"/>
<circle cx="426" cy="664" r="6" class="c0"/>
<circle cx="166" cy="734" r="6" class="c0"/>
<circle cx="1644" cy="796" r="6" class="c0"/>
<circle cx="722" cy="718" r="6" class="c0"/>
<circle cx="1870" cy="650" r="6" class="c0"/>
<circle cx="846" cy="652" r="6" class="c0"/>
<circle cx="284" cy="736" r="6" class="c0"/>
<circle cx="398" cy="656" r="6" class="c0"/>
<circle cx="1800" cy="812" r="6" class="c0"/>
<circle cx="444" cy="734" r="6" class="c0"/>
<circle cx="904" cy="712" r="6" class="c0"/>
<circle cx="1626" cy="674" r="6" class="c0"/>
<circle cx="1794" cy="604" r="6" class="c0"/>
<circle cx="1838" cy="572" r="6" class="c0"/>
<circle cx="1750" cy="738" r="6" class="c0"/>
<circle cx="44" cy="752" r="6" class="c0"/>
<circle cx="1544" cy="732" r="6" class="c0"/>
<circle cx="1554" cy="786" r="6" class="c0"/>
<circle cx="1878" cy="1096" r="6" class="c0"/>
<circle cx="1380" cy="766" r="6" class="c0"/>
<circle cx="1910" cy="622" r="6" class="c0"/>
<circle cx="546" cy="730" r="6" class="c0"/>
<circle cx="556" cy="694" r="6" class="c0"/>
<circle cx="786" cy="714" r="6" class="c0"/>
<circle cx="1520" cy="704" r="6" class="c0"/>
<circle cx="1064" cy="674" r="6" class="c0"/>
<circle cx="944" cy="680" r="6" class="c0"/>
<circle cx="1586" cy="672" r="6" class="c0"/>
<circle cx="1498" cy="624" r="6" class="c0"/>
<circle cx="880" cy="664" r="6" class="c0"/>
<circle cx="1640" cy="222" r="6" class="c0"/>
<circle cx="796" cy="680" r="6" class="c0"/>
<circle cx="102" cy="688" r="6" class="c0"/>
<circle cx="380" cy="724" r="6" class="c0"/>
<circle cx="604" cy="674" r="6" class="c0"/>
<circle cx="936" cy="724" r="6" class="c0"/>
<circle cx="1580" cy="712" r="6" class="c0"/>
<circle cx="972" cy="714" r="6" class="c0"/>
<circle cx="1894" cy="942" r="6" class="c0"/>
<circle cx="1912" cy="828" r="6" class="c0"/>
<circle cx="686" cy="728" r="6" class="c0"/>
<circle cx="1834" cy="938" r="6" class="c0"/>
<circle cx="758" cy="706" r="6" class="c0"/>
<circle cx="1796" cy="636" r="6" class="c0"/>
<circle cx="1912" cy="526" r="6" class="c0"/>
<circle cx="1142" cy="720" r="6" class="c0"/>
<circle cx="1912" cy="1080" r="6" class="c0"/>
<circle cx="582" cy="694" r="6" class="c0"/>
<circle cx="568" cy="688" r="6" class="c0"/>
<circle cx="1754" cy="652" r="6" class="c0"/>
<circle cx="614" cy="666" r="6" class="c0"/>
<circle cx="216" cy="698" r="6" class="c0"/>
<circle cx="34" cy="744" r="6" class="c0"/>
<circle cx="1762" cy="770" r="6" class="c0"/>
<circle cx="1738" cy="788" r="6" class="c0"/>
<circle cx="364" cy="654" r="6" class="c0"/>
<circle cx="544" cy="670" r="6" class="c0"/>
<circle cx="1166" cy="724" r="6" class="c0"/>
<circle cx="54" cy="744" r="6" class="c0"/>
<circle cx="1842" cy="878" r="6" class="c0"/>
<circle cx="68" cy="706" r="6" class="c0"/>
<circle cx="1074" cy="720" r="6" class="c0"/>
<circle cx="1544" cy="644" r="6" class="c0"/>
<circle cx="132" cy="732" r="6" class="c0"/>
<circle cx="1810" cy="764" r="6" class="c0"/>
<circle cx="1464" cy="632" r="6" class="c0"/>
<circle cx="1864" cy="1038" r="6" class="c0"/>
<circle cx="326" cy="672" r="6" class="c0"/>
<circle cx="1026" cy="714" r="6" class="c0"/>
<circle cx="1640" cy="676" r="6" class="c0"/>
<circle cx="1904" cy="670" r="6" class="c0"/>
<circle cx="148" cy="736" r="6" class="c0"/>
<circle cx="1236" cy="654" r="6" class="c0"/>
<circle cx="1636" cy="786" r="6" class="c0"/>
<circle cx="662" cy="646" r="6" class="c0"/>
<circle cx="1382" cy="738" r="6" class="c0"/>
<circle cx="486" cy="678" r="6" class="c0"/>
<circle cx="1132" cy="728" r="6" class="c0"/>
<circle cx="1422" cy="656" r="6" class="c0"/>
</svg>
