<?xml version="1.0" encoding="utf-8"?>
<svg xmlns="http://www.w3.org/2000/svg"
     xmlns:xlink="http://www.w3.org/1999/xlink" width="1920" height="1440" >

            <defs>
            <style type="text/css"><![CDATA[
circle {stroke: none;}
.c0 {fill: #FFFFFF;}
]]></style>
            </defs>
<rect x="0" y="0" width="1920" height="1440" fill="black"/>
<circle cx="114" cy="852" r="14" class="c0"/>
<circle cx="238" cy="1034" r="12" class="c0"/>
<circle cx="296" cy="718" r="12" class="c0"/>
<circle cx="144" cy="906" r="12" class="c0"/>
<circle cx="94" cy="510" r="12" class="c0"/>
<circle cx="198" cy="458" r="12" class="c0"/>
<circle cx="110" cy="550" r="12" class="c0"/>
<circle cx="234" cy="1088" r="12" class="c0"/>
<circle cx="290" cy="464" r="12" class="c0"/>
<circle cx="160" cy="1052" r="12" class="c0"/>
<circle cx="14" cy="434" r="12" class="c0"/>
<circle cx="108" cy="988" r="12" class="c0"/>
<circle cx="22" cy="1122" r="12" class="c0"/>
<circle cx="382" cy="524" r="12" class="c0"/>
<circle cx="270" cy="804" r="12" class="c0"/>
<circle cx="196" cy="844" r="12" class="c0"/>
<circle cx="136" cy="712" r="12" class="c0"/>
<circle cx="46" cy="652" r="12" class="c0"/>
<circle cx="198" cy="948" r="12" class="c0"/>
<circle cx="228" cy="606" r="12" class="c0"/>
<circle cx="34" cy="1238" r="12" class="c0"/>
<circle cx="14" cy="372" r="12" class="c0"/>
<circle cx="36" cy="930" r="12" class="c0"/>
<circle cx="210" cy="762" r="12" class="c0"/>
<circle cx="150" cy="844" r="12" class="c0"/>
<circle cx="22" cy="252" r="12" class="c0"/>
<circle cx="286" cy="582" r="12" class="c0"/>
<circle cx="96" cy="622" r="12" class="c0"/>
<circle cx="236" cy="508" r="12" class="c0"/>
<circle cx="168" cy="1118" r="12" class="c0"/>
<circle cx="156" cy="580" r="12" class="c0"/>
<circle cx="166" cy="610" r="12" class="c0"/>
<circle cx="194" cy="1166" r="12" class="c0"/>
<circle cx="20" cy="1258" r="12" class="c0"/>
<circle cx="80" cy="1108" r="12" class="c0"/>
<circle cx="60" cy="384" r="12" class="c0"/>
<circle cx="94" cy="942" r="12" class="c0"/>
<circle cx="16" cy="1356" r="12" class="c0"/>
<circle cx="54" cy="758" r="12" class="c0"/>
<circle cx="102" cy="426" r="12" class="c0"/>
<circle cx="974" cy="598" r="12" class="c0"/>
<circle cx="68" cy="936" r="12" class="c0"/>
<circle cx="34" cy="902" r="12" class="c0"/>
<circle cx="118" cy="1150" r="12" class="c0"/>
<circle cx="136" cy="1214" r="12" class="c0"/>
<circle cx="176" cy="1218" r="12" class="c0"/>
<circle cx="66" cy="1412" r="12" class="c0"/>
<circle cx="344" cy="756" r="12" class="c0"/>
<circle cx="48" cy="562" r="12" class="c0"/>
<circle cx="206" cy="1136" r="12" class="c0"/>
<circle cx="904" cy="540" r="12" class="c0"/>
<circle cx="194" cy="1426" r="12" class="c0"/>
<circle cx="144" cy="538" r="12" class="c0"/>
<circle cx="108" cy="1230" r="12" class="c0"/>
<circle cx="246" cy="620" r="12" class="c0"/>
<circle cx="332" cy="1082" r="12" class="c0"/>
<circle cx="368" cy="464" r="12" class="c0"/>
<circle cx="146" cy="802" r="12" class="c0"/>
<circle cx="218" cy="1112" r="10" class="c0"/>
<circle cx="282" cy="746" r="10" class="c0"/>
<circle cx="110" cy="1096" r="10" class="c0"/>
<circle cx="44" cy="780" r="10" class="c0"/>
<circle cx="46" cy="294" r="10" class="c0"/>
<circle cx="42" cy="588" r="10" class="c0"/>
<circle cx="114" cy="1036" r="10" class="c0"/>
<circle cx="138" cy="866" r="10" class="c0"/>
<circle cx="140" cy="650" r="10" class="c0"/>
<circle cx="290" cy="520" r="10" class="c0"/>
<circle cx="70" cy="1216" r="10" class="c0"/>
<circle cx="334" cy="800" r="10" class="c0"/>
<circle cx="382" cy="644" r="10" class="c0"/>
<circle cx="150" cy="696" r="10" class="c0"/>
<circle cx="136" cy="492" r="10" class="c0"/>
<circle cx="42" cy="468" r="10" class="c0"/>
<circle cx="128" cy="566" r="10" class="c0"/>
<circle cx="42" cy="1266" r="10" class="c0"/>
<circle cx="344" cy="520" r="10" class="c0"/>
<circle cx="290" cy="958" r="10" class="c0"/>
<circle cx="106" cy="746" r="10" class="c0"/>
<circle cx="66" cy="902" r="10" class="c0"/>
<circle cx="48" cy="960" r="10" class="c0"/>
<circle cx="420" cy="526" r="10" class="c0"/>
<circle cx="100" cy="786" r="10" class="c0"/>
<circle cx="248" cy="1062" r="10" class="c0"/>
<circle cx="110" cy="902" r="10" class="c0"/>
<circle cx="58" cy="532" r="10" class="c0"/>
<circle cx="184" cy="922" r="10" class="c0"/>
<circle cx="186" cy="712" r="10" class="c0"/>
<circle cx="362" cy="602" r="10" class="c0"/>
<circle cx="68" cy="780" r="10" class="c0"/>
<circle cx="36" cy="722" r="10" class="c0"/>
<circle cx="48" cy="1144" r="10" class="c0"/>
<circle cx="30" cy="1284" r="10" class="c0"/>
<circle cx="304" cy="1030" r="10" class="c0"/>
<circle cx="60" cy="686" r="10" class="c0"/>
<circle cx="34" cy="1344" r="10" class="c0"/>
<circle cx="276" cy="630" r="10" class="c0"/>
<circle cx="192" cy="584" r="10" class="c0"/>
<circle cx="30" cy="336" r="10" class="c0"/>
<circle cx="204" cy="636" r="10" class="c0"/>
<circle cx="234" cy="832" r="10" class="c0"/>
<circle cx="56" cy="1338" r="10" class="c0"/>
<circle cx="142" cy="606" r="10" class="c0"/>
<circle cx="238" cy="698" r="10" class="c0"/>
<circle cx="938" cy="532" r="10" class="c0"/>
<circle cx="126" cy="1024" r="10" class="c0"/>
<circle cx="170" cy="898" r="10" class="c0"/>
<circle cx="282" cy="664" r="10" class="c0"/>
<circle cx="62" cy="870" r="10" class="c0"/>
<circle cx="166" cy="954" r="10" class="c0"/>
<circle cx="118" cy="442" r="10" class="c0"/>
<circle cx="366" cy="674" r="10" class="c0"/>
<circle cx="342" cy="694" r="10" class="c0"/>
<circle cx="46" cy="1078" r="10" class="c0"/>
<circle cx="280" cy="774" r="10" class="c0"/>
<circle cx="214" cy="490" r="10" class="c0"/>
<circle cx="80" cy="1038" r="10" class="c0"/>
<circle cx="388" cy="560" r="10" class="c0"/>
<circle cx="78" cy="756" r="10" class="c0"/>
<circle cx="76" cy="304" r="10" class="c0"/>
<circle cx="100" cy="354" r="10" class="c0"/>
<circle cx="130" cy="944" r="10" class="c0"/>
<circle cx="174" cy="738" r="10" class="c0"/>
<circle cx="110" cy="1422" r="10" class="c0"/>
<circle cx="316" cy="526" r="10" class="c0"/>
<circle cx="158" cy="452" r="10" class="c0"/>
<circle cx="74" cy="982" r="10" class="c0"/>
<circle cx="232" cy="744" r="10" class="c0"/>
<circle cx="36" cy="1106" r="10" class="c0"/>
<circle cx="112" cy="378" r="10" class="c0"/>
<circle cx="234" cy="644" r="10" class="c0"/>
<circle cx="10" cy="294" r="10" class="c0"/>
<circle cx="48" cy="1210" r="10" class="c0"/>
<circle cx="198" cy="1258" r="10" class="c0"/>
<circle cx="26" cy="528" r="10" class="c0"/>
<circle cx="240" cy="1300" r="10" class="c0"/>
<circle cx="22" cy="1060" r="10" class="c0"/>
<circle cx="16" cy="860" r="10" class="c0"/>
<circle cx="202" cy="516" r="10" class="c0"/>
<circle cx="88" cy="644" r="10" class="c0"/>
<circle cx="254" cy="672" r="10" class="c0"/>
<circle cx="62" cy="616" r="10" class="c0"/>
<circle cx="398" cy="586" r="10" class="c0"/>
<circle cx="106" cy="474" r="10" class="c0"/>
<circle cx="194" cy="1196" r="10" class="c0"/>
<circle cx="248" cy="1144" r="10" class="c0"/>
<circle cx="112" cy="676" r="10" class="c0"/>
<circle cx="318" cy="844" r="10" class="c0"/>
<circle cx="66" cy="480" r="10" class="c0"/>
<circle cx="162" cy="720" r="10" class="c0"/>
<circle cx="74" cy="566" r="10" class="c0"/>
<circle cx="102" cy="706" r="10" class="c0"/>
<circle cx="146" cy="1036" r="10" class="c0"/>
<circle cx="172" cy="1154" r="10" class="c0"/>
<circle cx="264" cy="906" r="10" class="c0"/>
<circle cx="224" cy="1000" r="10" class="c0"/>
<circle cx="238" cy="1212" r="10" class="c0"/>
<circle cx="212" cy="700" r="10" class="c0"/>
<circle cx="208" cy="726" r="10" class="c0"/>
<circle cx="98" cy="1192" r="10" class="c0"/>
<circle cx="172" cy="1182" r="10" class="c0"/>
<circle cx="290" cy="1006" r="10" class="c0"/>
<circle cx="378" cy="578" r="10" class="c0"/>
<circle cx="208" cy="908" r="10" class="c0"/>
<circle cx="246" cy="546" r="10" class="c0"/>
<circle cx="162" cy="772" r="10" class="c0"/>
<circle cx="266" cy="598" r="10" class="c0"/>
<circle cx="258" cy="1168" r="10" class="c0"/>
<circle cx="28" cy="314" r="10" class="c0"/>
<circle cx="24" cy="1428" r="10" class="c0"/>
<circle cx="14" cy="1226" r="10" class="c0"/>
<circle cx="64" cy="720" r="10" class="c0"/>
<circle cx="88" cy="814" r="10" class="c0"/>
<circle cx="64" cy="446" r="10" class="c0"/>
<circle cx="112" cy="1264" r="10" class="c0"/>
<circle cx="336" cy="568" r="10" class="c0"/>
<circle cx="118" cy="804" r="10" class="c0"/>
<circle cx="136" cy="1272" r="10" class="c0"/>
<circle cx="340" cy="724" r="10" class="c0"/>
<circle cx="244" cy="940" r="10" class="c0"/>
<circle cx="172" cy="998" r="10" class="c0"/>
<circle cx="22" cy="660" r="10" class="c0"/>
<circle cx="72" cy="362" r="10" class="c0"/>
<circle cx="84" cy="1014" r="10" class="c0"/>
<circle cx="70" cy="544" r="10" class="c0"/>
<circle cx="126" cy="526" r="10" class="c0"/>
<circle cx="246" cy="858" r="10" class="c0"/>
<circle cx="196" cy="614" r="10" class="c0"/>
<circle cx="318" cy="1010" r="10" class="c0"/>
<circle cx="284" cy="610" r="10" class="c0"/>
<circle cx="256" cy="1010" r="10" class="c0"/>
<circle cx="94" cy="734" r="10" class="c0"/>
<circle cx="120" cy="618" r="10" class="c0"/>
<circle cx="318" cy="554" r="10" class="c0"/>
<circle cx="178" cy="856" r="10" class="c0"/>
<circle cx="110" cy="584" r="10" class="c0"/>
<circle cx="62" cy="1294" r="10" class="c0"/>
<circle cx="308" cy="750" r="10" class="c0"/>
<circle cx="50" cy="326" r="10" class="c0"/>
<circle cx="216" cy="814" r="10" class="c0"/>
<circle cx="40" cy="620" r="10" class="c0"/>
<circle cx="270" cy="532" r="10" class="c0"/>
<circle cx="206" cy="544" r="10" class="c0"/>
<circle cx="94" cy="1160" r="10" class="c0"/>
<circle cx="310" cy="670" r="10" class="c0"/>
<circle cx="244" cy="914" r="10" class="c0"/>
<circle cx="154" cy="1084" r="10" class="c0"/>
<circle cx="210" cy="1068" r="10" class="c0"/>
<circle cx="78" cy="1138" r="10" class="c0"/>
<circle cx="116" cy="1316" r="10" class="c0"/>
<circle cx="128" cy="1002" r="10" class="c0"/>
<circle cx="192" cy="662" r="10" class="c0"/>
<circle cx="188" cy="1020" r="10" class="c0"/>
<circle cx="256" cy="1102" r="10" class="c0"/>
<circle cx="28" cy="1166" r="10" class="c0"/>
<circle cx="154" cy="502" r="10" class="c0"/>
<circle cx="26" cy="968" r="10" class="c0"/>
<circle cx="52" cy="1042" r="10" class="c0"/>
<circle cx="242" cy="1182" r="10" class="c0"/>
<circle cx="10" cy="1332" r="10" class="c0"/>
<circle cx="210" cy="1226" r="10" class="c0"/>
<circle cx="204" cy="880" r="10" class="c0"/>
<circle cx="322" cy="736" r="10" class="c0"/>
<circle cx="178" cy="554" r="10" class="c0"/>
<circle cx="240" cy="778" r="10" class="c0"/>
<circle cx="36" cy="1382" r="10" class="c0"/>
<circle cx="74" cy="1180" r="10" class="c0"/>
<circle cx="80" cy="1258" r="10" class="c0"/>
<circle cx="176" cy="1080" r="10" class="c0"/>
<circle cx="42" cy="502" r="10" class="c0"/>
<circle cx="48" cy="410" r="10" class="c0"/>
<circle cx="290" cy="494" r="10" class="c0"/>
<circle cx="136" cy="752" r="10" class="c0"/>
<circle cx="332" cy="612" r="10" class="c0"/>
<circle cx="232" cy="534" r="10" class="c0"/>
<circle cx="224" cy="924" r="10" class="c0"/>
<circle cx="38" cy="816" r="10" class="c0"/>
<circle cx="160" cy="750" r="10" class="c0"/>
<circle cx="274" cy="872" r="10" class="c0"/>
<circle cx="42" cy="348" r="10" class="c0"/>
<circle cx="218" cy="1428" r="8" class="c0"/>
<circle cx="28" cy="284" r="8" class="c0"/>
<circle cx="262" cy="930" r="8" class="c0"/>
<circle cx="116" cy="772" r="8" class="c0"/>
<circle cx="140" cy="1182" r="8" class="c0"/>
<circle cx="14" cy="400" r="8" class="c0"/>
<circle cx="166" cy="870" r="8" class="c0"/>
<circle cx="26" cy="1080" r="8" class="c0"/>
<circle cx="144" cy="432" r="8" class="c0"/>
<circle cx="42" cy="1304" r="8" class="c0"/>
<circle cx="22" cy="508" r="8" class="c0"/>
<circle cx="178" cy="482" r="8" class="c0"/>
<circle cx="134" cy="1100" r="8" class="c0"/>
<circle cx="90" cy="592" r="8" class="c0"/>
<circle cx="84" cy="1308" r="8" class="c0"/>
<circle cx="300" cy="1194" r="8" class="c0"/>
<circle cx="150" cy="880" r="8" class="c0"/>
<circle cx="306" cy="542" r="8" class="c0"/>
<circle cx="58" cy="1252" r="8" class="c0"/>
<circle cx="404" cy="516" r="8" class="c0"/>
<circle cx="16" cy="1410" r="8" class="c0"/>
<circle cx="58" cy="992" r="8" class="c0"/>
<circle cx="184" cy="1292" r="8" class="c0"/>
<circle cx="226" cy="954" r="8" class="c0"/>
<circle cx="144" cy="1304" r="8" class="c0"/>
<circle cx="338" cy="1108" r="8" class="c0"/>
<circle cx="344" cy="626" r="8" class="c0"/>
<circle cx="200" cy="1098" r="8" class="c0"/>
<circle cx="76" cy="332" r="8" class="c0"/>
<circle cx="42" cy="272" r="8" class="c0"/>
<circle cx="162" cy="1256" r="8" class="c0"/>
<circle cx="340" cy="482" r="8" class="c0"/>
<circle cx="42" cy="438" r="8" class="c0"/>
<circle cx="282" cy="1054" r="8" class="c0"/>
<circle cx="150" cy="992" r="8" class="c0"/>
<circle cx="106" cy="924" r="8" class="c0"/>
<circle cx="188" cy="822" r="8" class="c0"/>
<circle cx="234" cy="892" r="8" class="c0"/>
<circle cx="176" cy="684" r="8" class="c0"/>
<circle cx="138" cy="966" r="8" class="c0"/>
<circle cx="262" cy="1036" r="8" class="c0"/>
<circle cx="418" cy="548" r="8" class="c0"/>
<circle cx="74" cy="398" r="8" class="c0"/>
<circle cx="192" cy="1118" r="8" class="c0"/>
<circle cx="172" cy="646" r="8" class="c0"/>
<circle cx="98" cy="1046" r="8" class="c0"/>
<circle cx="128" cy="782" r="8" class="c0"/>
<circle cx="274" cy="690" r="8" class="c0"/>
<circle cx="232" cy="1124" r="8" class="c0"/>
<circle cx="56" cy="1098" r="8" class="c0"/>
<circle cx="184" cy="1056" r="8" class="c0"/>
<circle cx="264" cy="952" r="8" class="c0"/>
<circle cx="40" cy="374" r="8" class="c0"/>
<circle cx="222" cy="1192" r="8" class="c0"/>
<circle cx="362" cy="628" r="8" class="c0"/>
<circle cx="14" cy="1182" r="8" class="c0"/>
<circle cx="30" cy="1196" r="8" class="c0"/>
<circle cx="968" cy="548" r="8" class="c0"/>
<circle cx="160" cy="932" r="8" class="c0"/>
<circle cx="258" cy="486" r="8" class="c0"/>
<circle cx="232" cy="568" r="8" class="c0"/>
<circle cx="106" cy="958" r="8" class="c0"/>
<circle cx="18" cy="478" r="8" class="c0"/>
<circle cx="326" cy="656" r="8" class="c0"/>
<circle cx="110" cy="1204" r="8" class="c0"/>
<circle cx="240" cy="476" r="8" class="c0"/>
<circle cx="252" cy="766" r="8" class="c0"/>
<circle cx="112" cy="826" r="8" class="c0"/>
<circle cx="166" cy="1302" r="8" class="c0"/>
<circle cx="76" cy="1236" r="8" class="c0"/>
<circle cx="210" cy="1044" r="8" class="c0"/>
<circle cx="336" cy="824" r="8" class="c0"/>
<circle cx="440" cy="454" r="8" class="c0"/>
<circle cx="356" cy="706" r="8" class="c0"/>
<circle cx="30" cy="422" r="8" class="c0"/>
<circle cx="100" cy="532" r="8" class="c0"/>
<circle cx="308" cy="606" r="8" class="c0"/>
<circle cx="420" cy="566" r="8" class="c0"/>
<circle cx="380" cy="696" r="8" class="c0"/>
<circle cx="28" cy="634" r="8" class="c0"/>
<circle cx="258" cy="726" r="8" class="c0"/>
<circle cx="292" cy="688" r="8" class="c0"/>
<circle cx="312" cy="776" r="8" class="c0"/>
<circle cx="226" cy="1248" r="8" class="c0"/>
<circle cx="30" cy="692" r="8" class="c0"/>
<circle cx="18" cy="1146" r="8" class="c0"/>
<circle cx="270" cy="1144" r="8" class="c0"/>
<circle cx="182" cy="528" r="8" class="c0"/>
<circle cx="8" cy="634" r="8" class="c0"/>
<circle cx="68" cy="638" r="8" class="c0"/>
<circle cx="280" cy="928" r="8" class="c0"/>
<circle cx="70" cy="510" r="8" class="c0"/>
<circle cx="932" cy="568" r="8" class="c0"/>
<circle cx="198" cy="984" r="8" class="c0"/>
<circle cx="62" cy="666" r="8" class="c0"/>
<circle cx="172" cy="510" r="8" class="c0"/>
<circle cx="64" cy="1164" r="8" class="c0"/>
<circle cx="22" cy="456" r="8" class="c0"/>
<circle cx="44" cy="878" r="8" class="c0"/>
<circle cx="76" cy="834" r="8" class="c0"/>
<circle cx="192" cy="794" r="8" class="c0"/>
<circle cx="236" cy="968" r="8" class="c0"/>
<circle cx="138" cy="408" r="8" class="c0"/>
<circle cx="88" cy="914" r="8" class="c0"/>
<circle cx="132" cy="682" r="8" class="c0"/>
<circle cx="130" cy="892" r="8" class="c0"/>
<circle cx="174" cy="1032" r="8" class="c0"/>
<circle cx="58" cy="1378" r="8" class="c0"/>
<circle cx="92" cy="488" r="8" class="c0"/>
<circle cx="148" cy="1158" r="8" class="c0"/>
<circle cx="298" cy="558" r="8" class="c0"/>
<circle cx="294" cy="646" r="8" class="c0"/>
<circle cx="154" cy="1140" r="8" class="c0"/>
<circle cx="112" cy="406" r="8" class="c0"/>
<circle cx="24" cy="764" r="8" class="c0"/>
<circle cx="316" cy="1056" r="8" class="c0"/>
<circle cx="68" cy="1002" r="8" class="c0"/>
<circle cx="118" cy="508" r="8" class="c0"/>
<circle cx="384" cy="494" r="8" class="c0"/>
<circle cx="18" cy="576" r="8" class="c0"/>
<circle cx="92" cy="1360" r="8" class="c0"/>
<circle cx="246" cy="880" r="8" class="c0"/>
<circle cx="352" cy="492" r="8" class="c0"/>
<circle cx="12" cy="1200" r="8" class="c0"/>
<circle cx="134" cy="1124" r="8" class="c0"/>
<circle cx="288" cy="984" r="8" class="c0"/>
<circle cx="180" cy="782" r="8" class="c0"/>
<circle cx="14" cy="1100" r="8" class="c0"/>
<circle cx="80" cy="884" r="8" class="c0"/>
<circle cx="414" cy="440" r="8" class="c0"/>
<circle cx="34" cy="1408" r="8" class="c0"/>
<circle cx="30" cy="990" r="8" class="c0"/>
<circle cx="262" cy="1078" r="8" class="c0"/>
<circle cx="922" cy="558" r="8" class="c0"/>
<circle cx="146" cy="1112" r="8" class="c0"/>
<circle cx="260" cy="834" r="8" class="c0"/>
<circle cx="218" cy="1266" r="8" class="c0"/>
<circle cx="314" cy="498" r="8" class="c0"/>
<circle cx="22" cy="604" r="8" class="c0"/>
<circle cx="112" cy="1076" r="8" class="c0"/>
<circle cx="258" cy="506" r="8" class="c0"/>
<circle cx="140" cy="928" r="8" class="c0"/>
<circle cx="8" cy="996" r="8" class="c0"/>
<circle cx="248" cy="590" r="8" class="c0"/>
<circle cx="120" cy="1288" r="8" class="c0"/>
<circle cx="130" cy="1416" r="8" class="c0"/>
<circle cx="46" cy="704" r="8" class="c0"/>
<circle cx="310" cy="588" r="8" class="c0"/>
<circle cx="228" cy="718" r="8" class="c0"/>
<circle cx="424" cy="468" r="8" class="c0"/>
<circle cx="20" cy="1302" r="8" class="c0"/>
<circle cx="22" cy="1020" r="8" class="c0"/>
<circle cx="236" cy="806" r="8" class="c0"/>
<circle cx="122" cy="1064" r="8" class="c0"/>
<circle cx="956" cy="588" r="8" class="c0"/>
<circle cx="68" cy="1088" r="8" class="c0"/>
<circle cx="392" cy="452" r="8" class="c0"/>
<circle cx="92" cy="1334" r="8" class="c0"/>
<circle cx="12" cy="916" r="8" class="c0"/>
<circle cx="312" cy="874" r="8" class="c0"/>
<circle cx="988" cy="556" r="8" class="c0"/>
<circle cx="228" cy="678" r="8" class="c0"/>
<circle cx="90" cy="374" r="8" class="c0"/>
<circle cx="218" cy="864" r="8" class="c0"/>
<circle cx="258" cy="984" r="8" class="c0"/>
<circle cx="308" cy="804" r="8" class="c0"/>
<circle cx="68" cy="806" r="8" class="c0"/>
<circle cx="138" cy="828" r="8" class="c0"/>
<circle cx="198" cy="1280" r="8" class="c0"/>
<circle cx="228" cy="1148" r="8" class="c0"/>
<circle cx="338" cy="592" r="8" class="c0"/>
<circle cx="354" cy="552" r="8" class="c0"/>
<circle cx="78" cy="420" r="8" class="c0"/>
<circle cx="56" cy="1022" r="8" class="c0"/>
<circle cx="14" cy="1390" r="8" class="c0"/>
<circle cx="320" cy="700" r="8" class="c0"/>
<circle cx="268" cy="570" r="8" class="c0"/>
<circle cx="150" cy="1236" r="8" class="c0"/>
<circle cx="156" cy="1014" r="8" class="c0"/>
<circle cx="174" cy="1244" r="8" class="c0"/>
<circle cx="296" cy="1074" r="8" class="c0"/>
<circle cx="74" cy="602" r="8" class="c0"/>
<circle cx="58" cy="836" r="8" class="c0"/>
<circle cx="332" cy="540" r="8" class="c0"/>
<circle cx="340" cy="668" r="8" class="c0"/>
<circle cx="98" cy="1126" r="8" class="c0"/>
<circle cx="142" cy="1072" r="8" class="c0"/>
<circle cx="20" cy="786" r="8" class="c0"/>
<circle cx="218" cy="624" r="8" class="c0"/>
<circle cx="28" cy="840" r="8" class="c0"/>
<circle cx="90" cy="1290" r="8" class="c0"/>
<circle cx="410" cy="490" r="8" class="c0"/>
<circle cx="954" cy="570" r="8" class="c0"/>
<circle cx="394" cy="618" r="8" class="c0"/>
<circle cx="110" cy="876" r="8" class="c0"/>
<circle cx="72" cy="1056" r="8" class="c0"/>
<circle cx="166" cy="1096" r="8" class="c0"/>
<circle cx="128" cy="594" r="8" class="c0"/>
<circle cx="268" cy="716" r="8" class="c0"/>
<circle cx="46" cy="1364" r="8" class="c0"/>
<circle cx="180" cy="1274" r="8" class="c0"/>
<circle cx="12" cy="716" r="8" class="c0"/>
<circle cx="12" cy="950" r="8" class="c0"/>
<circle cx="216" cy="660" r="8" class="c0"/>
<circle cx="994" cy="610" r="8" class="c0"/>
<circle cx="116" cy="726" r="8" class="c0"/>
<circle cx="36" cy="1322" r="8" class="c0"/>
<circle cx="170" cy="826" r="8" class="c0"/>
<circle cx="80" cy="796" r="8" class="c0"/>
<circle cx="262" cy="464" r="8" class="c0"/>
<circle cx="316" cy="478" r="8" class="c0"/>
<circle cx="194" cy="492" r="8" class="c0"/>
<circle cx="228" cy="790" r="8" class="c0"/>
<circle cx="8" cy="816" r="8" class="c0"/>
<circle cx="314" cy="634" r="8" class="c0"/>
<circle cx="218" cy="558" r="8" class="c0"/>
<circle cx="154" cy="634" r="8" class="c0"/>
<circle cx="148" cy="1420" r="8" class="c0"/>
<circle cx="154" cy="662" r="8" class="c0"/>
<circle cx="14" cy="348" r="8" class="c0"/>
<circle cx="124" cy="1172" r="8" class="c0"/>
<circle cx="16" cy="556" r="8" class="c0"/>
<circle cx="82" cy="856" r="8" class="c0"/>
<circle cx="178" cy="966" r="8" class="c0"/>
<circle cx="42" cy="1058" r="8" class="c0"/>
<circle cx="186" cy="758" r="8" class="c0"/>
<circle cx="144" cy="732" r="8" class="c0"/>
<circle cx="374" cy="716" r="8" class="c0"/>
<circle cx="226" cy="1282" r="8" class="c0"/>
<circle cx="290" cy="824" r="8" class="c0"/>
<circle cx="50" cy="858" r="8" class="c0"/>
<circle cx="80" cy="710" r="8" class="c0"/>
<circle cx="370" cy="540" r="8" class="c0"/>
<circle cx="942" cy="556" r="8" class="c0"/>
<circle cx="308" cy="1086" r="8" class="c0"/>
<circle cx="146" cy="476" r="8" class="c0"/>
<circle cx="90" cy="972" r="8" class="c0"/>
<circle cx="126" cy="1196" r="8" class="c0"/>
<circle cx="158" cy="1274" r="8" class="c0"/>
<circle cx="352" cy="780" r="8" class="c0"/>
<circle cx="164" cy="674" r="8" class="c0"/>
<circle cx="124" cy="390" r="8" class="c0"/>
<circle cx="370" cy="506" r="8" class="c0"/>
<circle cx="226" cy="454" r="8" class="c0"/>
<circle cx="106" cy="652" r="8" class="c0"/>
<circle cx="206" cy="1008" r="8" class="c0"/>
<circle cx="358" cy="572" r="8" class="c0"/>
<circle cx="150" cy="1196" r="8" class="c0"/>
<circle cx="366" cy="1130" r="8" class="c0"/>
<circle cx="28" cy="490" r="8" class="c0"/>
<circle cx="78" cy="466" r="8" class="c0"/>
<circle cx="48" cy="1398" r="8" class="c0"/>
<circle cx="184" cy="632" r="8" class="c0"/>
<circle cx="272" cy="852" r="8" class="c0"/>
<circle cx="980" cy="574" r="8" class="c0"/>
<circle cx="110" cy="1014" r="8" class="c0"/>
<circle cx="290" cy="1172" r="8" class="c0"/>
<circle cx="162" cy="528" r="8" class="c0"/>
<circle cx="54" cy="1428" r="8" class="c0"/>
<circle cx="272" cy="474" r="8" class="c0"/>
<circle cx="96" cy="1410" r="8" class="c0"/>
<circle cx="320" cy="1100" r="8" class="c0"/>
<circle cx="132" cy="1244" r="8" class="c0"/>
<circle cx="86" cy="668" r="8" class="c0"/>
<circle cx="22" cy="804" r="8" class="c0"/>
<circle cx="100" cy="568" r="8" class="c0"/>
<circle cx="162" cy="418" r="8" class="c0"/>
<circle cx="86" cy="1206" r="8" class="c0"/>
<circle cx="208" cy="1180" r="8" class="c0"/>
<circle cx="244" cy="458" r="8" class="c0"/>
<circle cx="10" cy="1042" r="8" class="c0"/>
<circle cx="248" cy="714" r="8" class="c0"/>
<circle cx="74" cy="1352" r="8" class="c0"/>
<circle cx="30" cy="384" r="8" class="c0"/>
<circle cx="122" cy="694" r="8" class="c0"/>
<circle cx="58" cy="1318" r="8" class="c0"/>
<circle cx="90" cy="320" r="8" class="c0"/>
<circle cx="102" cy="1392" r="8" class="c0"/>
<circle cx="404" cy="538" r="8" class="c0"/>
<circle cx="46" cy="1176" r="8" class="c0"/>
<circle cx="194" cy="1238" r="8" class="c0"/>
<circle cx="88" cy="1078" r="8" class="c0"/>
<circle cx="64" cy="1124" r="8" class="c0"/>
<circle cx="62" cy="1068" r="8" class="c0"/>
<circle cx="264" cy="652" r="8" class="c0"/>
<circle cx="42" cy="1008" r="8" class="c0"/>
<circle cx="958" cy="530" r="8" class="c0"/>
<circle cx="172" cy="1430" r="8" class="c0"/>
<circle cx="220" cy="1020" r="8" class="c0"/>
<circle cx="86" cy="442" r="8" class="c0"/>
<circle cx="192" cy="898" r="8" class="c0"/>
<circle cx="288" cy="544" r="8" class="c0"/>
<circle cx="154" cy="1292" r="8" class="c0"/>
<circle cx="8" cy="330" r="8" class="c0"/>
<circle cx="8" cy="890" r="8" class="c0"/>
<circle cx="386" cy="476" r="8" class="c0"/>
<circle cx="274" cy="994" r="8" class="c0"/>
<circle cx="8" cy="490" r="8" class="c0"/>
<circle cx="100" cy="392" r="8" class="c0"/>
<circle cx="266" cy="756" r="8" class="c0"/>
<circle cx="208" cy="574" r="8" class="c0"/>
<circle cx="304" cy="856" r="8" class="c0"/>
<circle cx="120" cy="972" r="8" class="c0"/>
<circle cx="252" cy="818" r="8" class="c0"/>
<circle cx="8" cy="738" r="8" class="c0"/>
<circle cx="96" cy="454" r="8" class="c0"/>
<circle cx="302" cy="786" r="8" class="c0"/>
<circle cx="202" cy="784" r="8" class="c0"/>
<circle cx="154" cy="1314" r="8" class="c0"/>
<circle cx="250" cy="1122" r="8" class="c0"/>
<circle cx="124" cy="640" r="8" class="c0"/>
<circle cx="222" cy="1166" r="8" class="c0"/>
<circle cx="8" cy="520" r="8" class="c0"/>
<circle cx="134" cy="466" r="8" class="c0"/>
<circle cx="72" cy="958" r="8" class="c0"/>
<circle cx="176" cy="444" r="8" class="c0"/>
<circle cx="362" cy="728" r="8" class="c0"/>
<circle cx="8" cy="776" r="8" class="c0"/>
<circle cx="244" cy="1430" r="8" class="c0"/>
<circle cx="196" cy="748" r="8" class="c0"/>
<circle cx="326" cy="464" r="8" class="c0"/>
<circle cx="284" cy="888" r="8" class="c0"/>
<circle cx="36" cy="674" r="8" class="c0"/>
<circle cx="96" cy="1248" r="8" class="c0"/>
<circle cx="212" cy="968" r="8" class="c0"/>
<circle cx="124" cy="422" r="8" class="c0"/>
<circle cx="78" cy="1430" r="8" class="c0"/>
<circle cx="356" cy="656" r="8" class="c0"/>
<circle cx="34" cy="744" r="8" class="c0"/>
<circle cx="82" cy="692" r="8" class="c0"/>
<circle cx="374" cy="614" r="8" class="c0"/>
<circle cx="168" cy="794" r="8" class="c0"/>
<circle cx="94" cy="866" r="8" class="c0"/>
<circle cx="10" cy="268" r="8" class="c0"/>
<circle cx="352" cy="1118" r="8" class="c0"/>
<circle cx="10" cy="1286" r="8" class="c0"/>
<circle cx="254" cy="746" r="8" class="c0"/>
<circle cx="8" cy="678" r="8" class="c0"/>
<circle cx="80" cy="1280" r="8" class="c0"/>
<circle cx="162" cy="976" r="8" class="c0"/>
<circle cx="100" cy="836" r="8" class="c0"/>
<circle cx="332" cy="778" r="8" class="c0"/>
<circle cx="318" cy="818" r="8" class="c0"/>
<circle cx="332" cy="508" r="8" class="c0"/>
<circle cx="208" cy="594" r="8" class="c0"/>
<circle cx="282" cy="1028" r="8" class="c0"/>
<circle cx="218" cy="842" r="8" class="c0"/>
<circle cx="254" cy="1202" r="8" class="c0"/>
<circle cx="262" cy="784" r="8" class="c0"/>
<circle cx="100" cy="886" r="8" class="c0"/>
<circle cx="282" cy="1156" r="8" class="c0"/>
<circle cx="248" cy="524" r="8" class="c0"/>
<circle cx="90" cy="408" r="8" class="c0"/>
<circle cx="54" cy="918" r="8" class="c0"/>
<circle cx="100" cy="1300" r="8" class="c0"/>
<circle cx="278" cy="972" r="8" class="c0"/>
<circle cx="258" cy="704" r="8" class="c0"/>
<circle cx="198" cy="686" r="8" class="c0"/>
<circle cx="124" cy="918" r="8" class="c0"/>
<circle cx="238" cy="1264" r="8" class="c0"/>
<circle cx="54" cy="890" r="8" class="c0"/>
<circle cx="250" cy="794" r="8" class="c0"/>
<circle cx="24" cy="882" r="8" class="c0"/>
<circle cx="132" cy="1048" r="8" class="c0"/>
<circle cx="322" cy="766" r="8" class="c0"/>
<circle cx="338" cy="646" r="8" class="c0"/>
<circle cx="80" cy="528" r="8" class="c0"/>
<circle cx="58" cy="1230" r="8" class="c0"/>
<circle cx="136" cy="628" r="8" class="c0"/>
<circle cx="184" cy="1134" r="8" class="c0"/>
<circle cx="122" cy="1112" r="8" class="c0"/>
<circle cx="292" cy="796" r="8" class="c0"/>
<circle cx="74" cy="1330" r="8" class="c0"/>
<circle cx="272" cy="552" r="8" class="c0"/>
<circle cx="266" cy="1060" r="6" class="c0"/>
<circle cx="60" cy="1198" r="6" class="c0"/>
<circle cx="404" cy="470" r="6" class="c0"/>
<circle cx="56" cy="818" r="6" class="c0"/>
<circle cx="10" cy="838" r="6" class="c0"/>
<circle cx="306" cy="996" r="6" class="c0"/>
<circle cx="298" cy="620" r="6" class="c0"/>
<circle cx="360" cy="530" r="6" class="c0"/>
<circle cx="368" cy="486" r="6" class="c0"/>
<circle cx="108" cy="498" r="6" class="c0"/>
<circle cx="36" cy="548" r="6" class="c0"/>
<circle cx="142" cy="514" r="6" class="c0"/>
<circle cx="390" cy="664" r="6" class="c0"/>
<circle cx="60" cy="586" r="6" class="c0"/>
<circle cx="60" cy="738" r="6" class="c0"/>
<circle cx="30" cy="360" r="6" class="c0"/>
<circle cx="8" cy="1162" r="6" class="c0"/>
<circle cx="242" cy="990" r="6" class="c0"/>
<circle cx="386" cy="678" r="6" class="c0"/>
<circle cx="220" cy="522" r="6" class="c0"/>
<circle cx="196" cy="562" r="6" class="c0"/>
<circle cx="276" cy="1116" r="6" class="c0"/>
<circle cx="268" cy="1128" r="6" class="c0"/>
<circle cx="290" cy="938" r="6" class="c0"/>
<circle cx="184" cy="884" r="6" class="c0"/>
<circle cx="146" cy="1252" r="6" class="c0"/>
<circle cx="96" cy="1026" r="6" class="c0"/>
<circle cx="62" cy="428" r="6" class="c0"/>
<circle cx="8" cy="700" r="6" class="c0"/>
<circle cx="160" cy="556" r="6" class="c0"/>
<circle cx="144" cy="768" r="6" class="c0"/>
<circle cx="380" cy="598" r="6" class="c0"/>
<circle cx="444" cy="470" r="6" class="c0"/>
<circle cx="194" cy="1042" r="6" class="c0"/>
<circle cx="12" cy="538" r="6" class="c0"/>
<circle cx="10" cy="590" r="6" class="c0"/>
<circle cx="206" cy="1028" r="6" class="c0"/>
<circle cx="160" cy="1206" r="6" class="c0"/>
<circle cx="178" cy="940" r="6" class="c0"/>
<circle cx="90" cy="898" r="6" class="c0"/>
<circle cx="238" cy="1012" r="6" class="c0"/>
<circle cx="198" cy="810" r="6" class="c0"/>
<circle cx="346" cy="458" r="6" class="c0"/>
<circle cx="168" cy="702" r="6" class="c0"/>
<circle cx="166" cy="916" r="6" class="c0"/>
<circle cx="6" cy="610" r="6" class="c0"/>
<circle cx="182" cy="806" r="6" class="c0"/>
<circle cx="222" cy="1054" r="6" class="c0"/>
<circle cx="124" cy="366" r="6" class="c0"/>
<circle cx="262" cy="884" r="6" class="c0"/>
<circle cx="86" cy="552" r="6" class="c0"/>
<circle cx="984" cy="620" r="6" class="c0"/>
<circle cx="96" cy="764" r="6" class="c0"/>
<circle cx="180" cy="1104" r="6" class="c0"/>
<circle cx="418" cy="508" r="6" class="c0"/>
<circle cx="40" cy="1026" r="6" class="c0"/>
<circle cx="166" cy="468" r="6" class="c0"/>
<circle cx="18" cy="620" r="6" class="c0"/>
<circle cx="30" cy="1034" r="6" class="c0"/>
<circle cx="218" cy="472" r="6" class="c0"/>
<circle cx="310" cy="690" r="6" class="c0"/>
<circle cx="226" cy="586" r="6" class="c0"/>
<circle cx="330" cy="682" r="6" class="c0"/>
<circle cx="100" cy="1064" r="6" class="c0"/>
<circle cx="6" cy="1024" r="6" class="c0"/>
<circle cx="226" cy="982" r="6" class="c0"/>
<circle cx="320" cy="790" r="6" class="c0"/>
<circle cx="6" cy="934" r="6" class="c0"/>
<circle cx="298" cy="764" r="6" class="c0"/>
<circle cx="304" cy="982" r="6" class="c0"/>
<circle cx="230" cy="1230" r="6" class="c0"/>
<circle cx="282" cy="904" r="6" class="c0"/>
<circle cx="132" cy="1084" r="6" class="c0"/>
<circle cx="162" cy="1168" r="6" class="c0"/>
<circle cx="56" cy="1276" r="6" class="c0"/>
<circle cx="72" cy="656" r="6" class="c0"/>
<circle cx="276" cy="506" r="6" class="c0"/>
<circle cx="8" cy="1312" r="6" class="c0"/>
<circle cx="96" cy="1002" r="6" class="c0"/>
<circle cx="284" cy="702" r="6" class="c0"/>
<circle cx="326" cy="582" r="6" class="c0"/>
<circle cx="130" cy="664" r="6" class="c0"/>
<circle cx="278" cy="834" r="6" class="c0"/>
<circle cx="98" cy="336" r="6" class="c0"/>
<circle cx="384" cy="1144" r="6" class="c0"/>
<circle cx="128" cy="838" r="6" class="c0"/>
<circle cx="6" cy="1084" r="6" class="c0"/>
<circle cx="192" cy="1000" r="6" class="c0"/>
<circle cx="198" cy="1082" r="6" class="c0"/>
<circle cx="256" cy="638" r="6" class="c0"/>
<circle cx="94" cy="1272" r="6" class="c0"/>
<circle cx="146" cy="564" r="6" class="c0"/>
<circle cx="180" cy="572" r="6" class="c0"/>
<circle cx="8" cy="232" r="6" class="c0"/>
<circle cx="308" cy="830" r="6" class="c0"/>
<circle cx="86" cy="1378" r="6" class="c0"/>
<circle cx="46" cy="1126" r="6" class="c0"/>
<circle cx="6" cy="1244" r="6" class="c0"/>
<circle cx="336" cy="1012" r="6" class="c0"/>
<circle cx="148" cy="946" r="6" class="c0"/>
<circle cx="238" cy="1162" r="6" class="c0"/>
<circle cx="60" cy="280" r="6" class="c0"/>
<circle cx="410" cy="456" r="6" class="c0"/>
<circle cx="300" cy="1048" r="6" class="c0"/>
<circle cx="6" cy="980" r="6" class="c0"/>
<circle cx="278" cy="728" r="6" class="c0"/>
<circle cx="136" cy="450" r="6" class="c0"/>
<circle cx="210" cy="676" r="6" class="c0"/>
<circle cx="32" cy="402" r="6" class="c0"/>
<circle cx="8" cy="468" r="6" class="c0"/>
<circle cx="212" cy="1086" r="6" class="c0"/>
<circle cx="166" cy="810" r="6" class="c0"/>
<circle cx="162" cy="484" r="6" class="c0"/>
<circle cx="32" cy="868" r="6" class="c0"/>
<circle cx="184" cy="602" r="6" class="c0"/>
<circle cx="232" cy="662" r="6" class="c0"/>
<circle cx="46" cy="982" r="6" class="c0"/>
<circle cx="210" cy="1246" r="6" class="c0"/>
<circle cx="190" cy="730" r="6" class="c0"/>
<circle cx="196" cy="1216" r="6" class="c0"/>
<circle cx="142" cy="672" r="6" class="c0"/>
<circle cx="194" cy="866" r="6" class="c0"/>
<circle cx="132" cy="982" r="6" class="c0"/>
<circle cx="302" cy="698" r="6" class="c0"/>
<circle cx="108" cy="1174" r="6" class="c0"/>
<circle cx="6" cy="1422" r="6" class="c0"/>
<circle cx="250" cy="568" r="6" class="c0"/>
<circle cx="226" cy="878" r="6" class="c0"/>
<circle cx="138" cy="1430" r="6" class="c0"/>
<circle cx="280" cy="1070" r="6" class="c0"/>
<circle cx="322" cy="1040" r="6" class="c0"/>
<circle cx="10" cy="756" r="6" class="c0"/>
<circle cx="114" cy="1130" r="6" class="c0"/>
<circle cx="114" cy="1404" r="6" class="c0"/>
<circle cx="134" cy="1320" r="6" class="c0"/>
<circle cx="918" cy="528" r="6" class="c0"/>
<circle cx="360" cy="746" r="6" class="c0"/>
<circle cx="240" cy="728" r="6" class="c0"/>
<circle cx="306" cy="572" r="6" class="c0"/>
<circle cx="350" cy="1098" r="6" class="c0"/>
<circle cx="100" cy="1110" r="6" class="c0"/>
<circle cx="320" cy="718" r="6" class="c0"/>
<circle cx="32" cy="950" r="6" class="c0"/>
<circle cx="86" cy="772" r="6" class="c0"/>
<circle cx="44" cy="522" r="6" class="c0"/>
<circle cx="28" cy="1214" r="6" class="c0"/>
<circle cx="58" cy="310" r="6" class="c0"/>
<circle cx="206" cy="828" r="6" class="c0"/>
<circle cx="50" cy="604" r="6" class="c0"/>
<circle cx="74" cy="736" r="6" class="c0"/>
<circle cx="96" cy="684" r="6" class="c0"/>
<circle cx="6" cy="1270" r="6" class="c0"/>
<circle cx="260" cy="1432" r="6" class="c0"/>
<circle cx="24" cy="734" r="6" class="c0"/>
<circle cx="400" cy="500" r="6" class="c0"/>
<circle cx="46" cy="798" r="6" class="c0"/>
<circle cx="108" cy="636" r="6" class="c0"/>
<circle cx="212" cy="796" r="6" class="c0"/>
<circle cx="204" cy="926" r="6" class="c0"/>
<circle cx="164" cy="1416" r="6" class="c0"/>
<circle cx="96" cy="1432" r="6" class="c0"/>
<circle cx="330" cy="710" r="6" class="c0"/>
<circle cx="54" cy="514" r="6" class="c0"/>
<circle cx="262" cy="968" r="6" class="c0"/>
<circle cx="216" cy="1294" r="6" class="c0"/>
<circle cx="214" cy="1208" r="6" class="c0"/>
<circle cx="52" cy="632" r="6" class="c0"/>
<circle cx="230" cy="1066" r="6" class="c0"/>
<circle cx="6" cy="312" r="6" class="c0"/>
<circle cx="368" cy="562" r="6" class="c0"/>
<circle cx="102" cy="1280" r="6" class="c0"/>
<circle cx="22" cy="824" r="6" class="c0"/>
<circle cx="6" cy="454" r="6" class="c0"/>
<circle cx="118" cy="488" r="6" class="c0"/>
<circle cx="274" cy="1098" r="6" class="c0"/>
<circle cx="136" cy="1140" r="6" class="c0"/>
<circle cx="60" cy="342" r="6" class="c0"/>
<circle cx="218" cy="890" r="6" class="c0"/>
<circle cx="294" cy="872" r="6" class="c0"/>
<circle cx="50" cy="364" r="6" class="c0"/>
<circle cx="228" cy="854" r="6" class="c0"/>
<circle cx="100" cy="1376" r="6" class="c0"/>
<circle cx="86" cy="1224" r="6" class="c0"/>
<circle cx="250" cy="960" r="6" class="c0"/>
<circle cx="168" cy="1284" r="6" class="c0"/>
<circle cx="174" cy="590" r="6" class="c0"/>
<circle cx="102" cy="602" r="6" class="c0"/>
<circle cx="126" cy="736" r="6" class="c0"/>
<circle cx="302" cy="508" r="6" class="c0"/>
<circle cx="952" cy="546" r="6" class="c0"/>
<circle cx="194" cy="968" r="6" class="c0"/>
<circle cx="322" cy="598" r="6" class="c0"/>
<circle cx="64" cy="1362" r="6" class="c0"/>
<circle cx="246" cy="656" r="6" class="c0"/>
<circle cx="434" cy="544" r="6" class="c0"/>
<circle cx="52" cy="1114" r="6" class="c0"/>
<circle cx="424" cy="450" r="6" class="c0"/>
<circle cx="6" cy="1376" r="6" class="c0"/>
<circle cx="148" cy="782" r="6" class="c0"/>
<circle cx="88" cy="1058" r="6" class="c0"/>
<circle cx="212" cy="1156" r="6" class="c0"/>
<circle cx="96" cy="1142" r="6" class="c0"/>
<circle cx="156" cy="818" r="6" class="c0"/>
<circle cx="66" cy="850" r="6" class="c0"/>
<circle cx="6" cy="794" r="6" class="c0"/>
<circle cx="240" cy="1110" r="6" class="c0"/>
<circle cx="40" cy="394" r="6" class="c0"/>
<circle cx="1804" cy="1004" r="6" class="c0"/>
<circle cx="406" cy="558" r="6" class="c0"/>
<circle cx="124" cy="476" r="6" class="c0"/>
<circle cx="8" cy="1136" r="6" class="c0"/>
<circle cx="18" cy="748" r="6" class="c0"/>
<circle cx="268" cy="736" r="6" class="c0"/>
<circle cx="116" cy="460" r="6" class="c0"/>
<circle cx="60" cy="972" r="6" class="c0"/>
<circle cx="272" cy="1018" r="6" class="c0"/>
<circle cx="140" cy="392" r="6" class="c0"/>
<circle cx="200" cy="1054" r="6" class="c0"/>
<circle cx="182" cy="982" r="6" class="c0"/>
<circle cx="6" cy="650" r="6" class="c0"/>
<circle cx="310" cy="1206" r="6" class="c0"/>
<circle cx="96" cy="1216" r="6" class="c0"/>
<circle cx="250" cy="896" r="6" class="c0"/>
<circle cx="116" cy="1186" r="6" class="c0"/>
<circle cx="454" cy="462" r="6" class="c0"/>
<circle cx="68" cy="288" r="6" class="c0"/>
<circle cx="258" cy="560" r="6" class="c0"/>
<circle cx="268" cy="496" r="6" class="c0"/>
<circle cx="84" cy="346" r="6" class="c0"/>
<circle cx="8" cy="966" r="6" class="c0"/>
<circle cx="212" cy="446" r="6" class="c0"/>
<circle cx="310" cy="650" r="6" class="c0"/>
<circle cx="6" cy="566" r="6" class="c0"/>
<circle cx="92" cy="1094" r="6" class="c0"/>
<circle cx="924" cy="542" r="6" class="c0"/>
<circle cx="160" cy="434" r="6" class="c0"/>
<circle cx="280" cy="1134" r="6" class="c0"/>
<circle cx="156" cy="1220" r="6" class="c0"/>
<circle cx="6" cy="416" r="6" class="c0"/>
<circle cx="26" cy="708" r="6" class="c0"/>
<circle cx="310" cy="462" r="6" class="c0"/>
<circle cx="282" cy="562" r="6" class="c0"/>
<circle cx="402" cy="604" r="6" class="c0"/>
<circle cx="128" cy="818" r="6" class="c0"/>
<circle cx="432" cy="440" r="6" class="c0"/>
<circle cx="278" cy="944" r="6" class="c0"/>
<circle cx="68" cy="1270" r="6" class="c0"/>
<circle cx="98" cy="1318" r="6" class="c0"/>
<circle cx="78" cy="496" r="6" class="c0"/>
<circle cx="364" cy="692" r="6" class="c0"/>
<circle cx="352" cy="738" r="6" class="c0"/>
<circle cx="178" cy="460" r="6" class="c0"/>
<circle cx="970" cy="564" r="6" class="c0"/>
<circle cx="6" cy="874" r="6" class="c0"/>
<circle cx="244" cy="1282" r="6" class="c0"/>
<circle cx="942" cy="580" r="6" class="c0"/>
<circle cx="128" cy="1302" r="6" class="c0"/>
<circle cx="124" cy="1432" r="6" class="c0"/>
<circle cx="216" cy="940" r="6" class="c0"/>
<circle cx="348" cy="812" r="6" class="c0"/>
<circle cx="348" cy="582" r="6" class="c0"/>
<circle cx="230" cy="764" r="6" class="c0"/>
<circle cx="28" cy="566" r="6" class="c0"/>
<circle cx="66" cy="318" r="6" class="c0"/>
<circle cx="88" cy="994" r="6" class="c0"/>
<circle cx="192" cy="1070" r="6" class="c0"/>
<circle cx="8" cy="1070" r="6" class="c0"/>
<circle cx="330" cy="492" r="6" class="c0"/>
<circle cx="202" cy="478" r="6" class="c0"/>
<circle cx="112" cy="1054" r="6" class="c0"/>
<circle cx="978" cy="538" r="6" class="c0"/>
<circle cx="278" cy="1084" r="6" class="c0"/>
<circle cx="174" cy="664" r="6" class="c0"/>
<circle cx="350" cy="472" r="6" class="c0"/>
<circle cx="226" cy="906" r="6" class="c0"/>
<circle cx="44" cy="1418" r="6" class="c0"/>
<circle cx="60" cy="500" r="6" class="c0"/>
<circle cx="258" cy="580" r="6" class="c0"/>
<circle cx="122" cy="656" r="6" class="c0"/>
<circle cx="218" cy="780" r="6" class="c0"/>
<circle cx="300" cy="480" r="6" class="c0"/>
<circle cx="76" cy="584" r="6" class="c0"/>
<circle cx="234" cy="870" r="6" class="c0"/>
<circle cx="290" cy="914" r="6" class="c0"/>
</svg>
