<?xml version="1.0" encoding="utf-8"?>
<svg xmlns="http://www.w3.org/2000/svg"
     xmlns:xlink="http://www.w3.org/1999/xlink" width="1920" height="1440" >

            <defs>
            <style type="text/css"><![CDATA[
circle {stroke: none;}
.c0 {fill: #FFFFFF;}
]]></style>
            </defs>
<rect x="0" y="0" width="1920" height="1440" fill="black"/>
<circle cx="52" cy="424" r="14" class="c0"/>
<circle cx="218" cy="1200" r="14" class="c0"/>
<circle cx="60" cy="818" r="14" class="c0"/>
<circle cx="220" cy="804" r="14" class="c0"/>
<circle cx="300" cy="704" r="12" class="c0"/>
<circle cx="86" cy="574" r="12" class="c0"/>
<circle cx="48" cy="1330" r="12" class="c0"/>
<circle cx="240" cy="426" r="12" class="c0"/>
<circle cx="218" cy="770" r="12" class="c0"/>
<circle cx="18" cy="1184" r="12" class="c0"/>
<circle cx="70" cy="1410" r="12" class="c0"/>
<circle cx="160" cy="890" r="12" class="c0"/>
<circle cx="100" cy="486" r="12" class="c0"/>
<circle cx="48" cy="1288" r="12" class="c0"/>
<circle cx="114" cy="1098" r="12" class="c0"/>
<circle cx="46" cy="1156" r="12" class="c0"/>
<circle cx="180" cy="832" r="12" class="c0"/>
<circle cx="186" cy="724" r="12" class="c0"/>
<circle cx="334" cy="408" r="12" class="c0"/>
<circle cx="184" cy="782" r="12" class="c0"/>
<circle cx="320" cy="578" r="12" class="c0"/>
<circle cx="272" cy="512" r="12" class="c0"/>
<circle cx="112" cy="972" r="12" class="c0"/>
<circle cx="904" cy="620" r="12" class="c0"/>
<circle cx="80" cy="718" r="12" class="c0"/>
<circle cx="50" cy="940" r="12" class="c0"/>
<circle cx="30" cy="538" r="12" class="c0"/>
<circle cx="322" cy="512" r="12" class="c0"/>
<circle cx="230" cy="1286" r="12" class="c0"/>
<circle cx="72" cy="1246" r="12" class="c0"/>
<circle cx="102" cy="1334" r="12" class="c0"/>
<circle cx="276" cy="402" r="12" class="c0"/>
<circle cx="78" cy="942" r="12" class="c0"/>
<circle cx="38" cy="836" r="12" class="c0"/>
<circle cx="108" cy="772" r="12" class="c0"/>
<circle cx="252" cy="674" r="12" class="c0"/>
<circle cx="118" cy="546" r="12" class="c0"/>
<circle cx="140" cy="1356" r="12" class="c0"/>
<circle cx="220" cy="536" r="12" class="c0"/>
<circle cx="208" cy="832" r="12" class="c0"/>
<circle cx="32" cy="1224" r="12" class="c0"/>
<circle cx="156" cy="984" r="12" class="c0"/>
<circle cx="120" cy="688" r="12" class="c0"/>
<circle cx="196" cy="886" r="12" class="c0"/>
<circle cx="14" cy="650" r="12" class="c0"/>
<circle cx="148" cy="864" r="10" class="c0"/>
<circle cx="216" cy="490" r="10" class="c0"/>
<circle cx="12" cy="588" r="10" class="c0"/>
<circle cx="40" cy="774" r="10" class="c0"/>
<circle cx="132" cy="1244" r="10" class="c0"/>
<circle cx="288" cy="816" r="10" class="c0"/>
<circle cx="60" cy="622" r="10" class="c0"/>
<circle cx="124" cy="1222" r="10" class="c0"/>
<circle cx="350" cy="622" r="10" class="c0"/>
<circle cx="140" cy="562" r="10" class="c0"/>
<circle cx="260" cy="1342" r="10" class="c0"/>
<circle cx="56" cy="852" r="10" class="c0"/>
<circle cx="278" cy="740" r="10" class="c0"/>
<circle cx="14" cy="920" r="10" class="c0"/>
<circle cx="68" cy="1306" r="10" class="c0"/>
<circle cx="252" cy="858" r="10" class="c0"/>
<circle cx="40" cy="694" r="10" class="c0"/>
<circle cx="202" cy="518" r="10" class="c0"/>
<circle cx="30" cy="628" r="10" class="c0"/>
<circle cx="84" cy="796" r="10" class="c0"/>
<circle cx="98" cy="518" r="10" class="c0"/>
<circle cx="42" cy="1014" r="10" class="c0"/>
<circle cx="102" cy="448" r="10" class="c0"/>
<circle cx="290" cy="630" r="10" class="c0"/>
<circle cx="20" cy="490" r="10" class="c0"/>
<circle cx="162" cy="1212" r="10" class="c0"/>
<circle cx="144" cy="746" r="10" class="c0"/>
<circle cx="26" cy="1116" r="10" class="c0"/>
<circle cx="64" cy="1212" r="10" class="c0"/>
<circle cx="300" cy="648" r="10" class="c0"/>
<circle cx="176" cy="534" r="10" class="c0"/>
<circle cx="170" cy="766" r="10" class="c0"/>
<circle cx="126" cy="1050" r="10" class="c0"/>
<circle cx="142" cy="446" r="10" class="c0"/>
<circle cx="18" cy="438" r="10" class="c0"/>
<circle cx="320" cy="446" r="10" class="c0"/>
<circle cx="146" cy="1100" r="10" class="c0"/>
<circle cx="138" cy="1210" r="10" class="c0"/>
<circle cx="180" cy="910" r="10" class="c0"/>
<circle cx="128" cy="462" r="10" class="c0"/>
<circle cx="248" cy="484" r="10" class="c0"/>
<circle cx="938" cy="692" r="10" class="c0"/>
<circle cx="164" cy="474" r="10" class="c0"/>
<circle cx="264" cy="606" r="10" class="c0"/>
<circle cx="258" cy="762" r="10" class="c0"/>
<circle cx="308" cy="406" r="10" class="c0"/>
<circle cx="28" cy="470" r="10" class="c0"/>
<circle cx="208" cy="606" r="10" class="c0"/>
<circle cx="14" cy="1054" r="10" class="c0"/>
<circle cx="54" cy="906" r="10" class="c0"/>
<circle cx="178" cy="596" r="10" class="c0"/>
<circle cx="110" cy="740" r="10" class="c0"/>
<circle cx="246" cy="786" r="10" class="c0"/>
<circle cx="74" cy="770" r="10" class="c0"/>
<circle cx="74" cy="1174" r="10" class="c0"/>
<circle cx="256" cy="814" r="10" class="c0"/>
<circle cx="144" cy="1008" r="10" class="c0"/>
<circle cx="170" cy="858" r="10" class="c0"/>
<circle cx="40" cy="1362" r="10" class="c0"/>
<circle cx="184" cy="1196" r="10" class="c0"/>
<circle cx="120" cy="1290" r="10" class="c0"/>
<circle cx="196" cy="574" r="10" class="c0"/>
<circle cx="64" cy="1052" r="10" class="c0"/>
<circle cx="282" cy="774" r="10" class="c0"/>
<circle cx="36" cy="514" r="10" class="c0"/>
<circle cx="94" cy="928" r="10" class="c0"/>
<circle cx="310" cy="600" r="10" class="c0"/>
<circle cx="156" cy="830" r="10" class="c0"/>
<circle cx="230" cy="842" r="10" class="c0"/>
<circle cx="234" cy="1310" r="10" class="c0"/>
<circle cx="158" cy="1026" r="10" class="c0"/>
<circle cx="152" cy="788" r="10" class="c0"/>
<circle cx="278" cy="440" r="10" class="c0"/>
<circle cx="132" cy="820" r="10" class="c0"/>
<circle cx="296" cy="474" r="10" class="c0"/>
<circle cx="134" cy="514" r="10" class="c0"/>
<circle cx="130" cy="598" r="10" class="c0"/>
<circle cx="20" cy="862" r="10" class="c0"/>
<circle cx="122" cy="1176" r="10" class="c0"/>
<circle cx="118" cy="858" r="10" class="c0"/>
<circle cx="86" cy="1034" r="10" class="c0"/>
<circle cx="886" cy="572" r="10" class="c0"/>
<circle cx="162" cy="582" r="10" class="c0"/>
<circle cx="146" cy="540" r="10" class="c0"/>
<circle cx="94" cy="664" r="10" class="c0"/>
<circle cx="84" cy="642" r="10" class="c0"/>
<circle cx="30" cy="1264" r="10" class="c0"/>
<circle cx="102" cy="1202" r="10" class="c0"/>
<circle cx="162" cy="936" r="10" class="c0"/>
<circle cx="192" cy="1170" r="10" class="c0"/>
<circle cx="312" cy="626" r="10" class="c0"/>
<circle cx="86" cy="1114" r="10" class="c0"/>
<circle cx="144" cy="1150" r="10" class="c0"/>
<circle cx="150" cy="1176" r="10" class="c0"/>
<circle cx="56" cy="990" r="10" class="c0"/>
<circle cx="28" cy="1144" r="10" class="c0"/>
<circle cx="124" cy="950" r="10" class="c0"/>
<circle cx="224" cy="868" r="10" class="c0"/>
<circle cx="152" cy="610" r="10" class="c0"/>
<circle cx="302" cy="766" r="10" class="c0"/>
<circle cx="232" cy="722" r="10" class="c0"/>
<circle cx="188" cy="1014" r="10" class="c0"/>
<circle cx="226" cy="892" r="10" class="c0"/>
<circle cx="116" cy="908" r="10" class="c0"/>
<circle cx="62" cy="580" r="10" class="c0"/>
<circle cx="182" cy="618" r="10" class="c0"/>
<circle cx="116" cy="1024" r="10" class="c0"/>
<circle cx="182" cy="1250" r="10" class="c0"/>
<circle cx="144" cy="924" r="10" class="c0"/>
<circle cx="304" cy="728" r="10" class="c0"/>
<circle cx="262" cy="552" r="10" class="c0"/>
<circle cx="284" cy="576" r="10" class="c0"/>
<circle cx="218" cy="632" r="10" class="c0"/>
<circle cx="140" cy="1036" r="10" class="c0"/>
<circle cx="98" cy="696" r="10" class="c0"/>
<circle cx="194" cy="1232" r="10" class="c0"/>
<circle cx="56" cy="480" r="10" class="c0"/>
<circle cx="140" cy="1278" r="10" class="c0"/>
<circle cx="56" cy="1376" r="10" class="c0"/>
<circle cx="306" cy="526" r="10" class="c0"/>
<circle cx="236" cy="688" r="10" class="c0"/>
<circle cx="64" cy="1270" r="10" class="c0"/>
<circle cx="78" cy="1282" r="10" class="c0"/>
<circle cx="66" cy="508" r="10" class="c0"/>
<circle cx="10" cy="1274" r="8" class="c0"/>
<circle cx="270" cy="800" r="8" class="c0"/>
<circle cx="224" cy="508" r="8" class="c0"/>
<circle cx="172" cy="1066" r="8" class="c0"/>
<circle cx="904" cy="562" r="8" class="c0"/>
<circle cx="294" cy="790" r="8" class="c0"/>
<circle cx="16" cy="978" r="8" class="c0"/>
<circle cx="114" cy="1260" r="8" class="c0"/>
<circle cx="104" cy="1144" r="8" class="c0"/>
<circle cx="214" cy="446" r="8" class="c0"/>
<circle cx="110" cy="1240" r="8" class="c0"/>
<circle cx="208" cy="746" r="8" class="c0"/>
<circle cx="8" cy="1328" r="8" class="c0"/>
<circle cx="98" cy="1076" r="8" class="c0"/>
<circle cx="212" cy="1276" r="8" class="c0"/>
<circle cx="114" cy="806" r="8" class="c0"/>
<circle cx="40" cy="878" r="8" class="c0"/>
<circle cx="342" cy="576" r="8" class="c0"/>
<circle cx="110" cy="644" r="8" class="c0"/>
<circle cx="26" cy="600" r="8" class="c0"/>
<circle cx="98" cy="994" r="8" class="c0"/>
<circle cx="72" cy="878" r="8" class="c0"/>
<circle cx="206" cy="950" r="8" class="c0"/>
<circle cx="128" cy="640" r="8" class="c0"/>
<circle cx="268" cy="706" r="8" class="c0"/>
<circle cx="36" cy="964" r="8" class="c0"/>
<circle cx="28" cy="994" r="8" class="c0"/>
<circle cx="24" cy="940" r="8" class="c0"/>
<circle cx="252" cy="536" r="8" class="c0"/>
<circle cx="162" cy="1254" r="8" class="c0"/>
<circle cx="186" cy="994" r="8" class="c0"/>
<circle cx="88" cy="834" r="8" class="c0"/>
<circle cx="134" cy="622" r="8" class="c0"/>
<circle cx="28" cy="576" r="8" class="c0"/>
<circle cx="60" cy="756" r="8" class="c0"/>
<circle cx="318" cy="488" r="8" class="c0"/>
<circle cx="106" cy="562" r="8" class="c0"/>
<circle cx="44" cy="724" r="8" class="c0"/>
<circle cx="94" cy="1398" r="8" class="c0"/>
<circle cx="220" cy="562" r="8" class="c0"/>
<circle cx="886" cy="604" r="8" class="c0"/>
<circle cx="114" cy="930" r="8" class="c0"/>
<circle cx="72" cy="680" r="8" class="c0"/>
<circle cx="86" cy="1314" r="8" class="c0"/>
<circle cx="222" cy="1260" r="8" class="c0"/>
<circle cx="100" cy="894" r="8" class="c0"/>
<circle cx="196" cy="1300" r="8" class="c0"/>
<circle cx="154" cy="494" r="8" class="c0"/>
<circle cx="122" cy="492" r="8" class="c0"/>
<circle cx="174" cy="1112" r="8" class="c0"/>
<circle cx="146" cy="662" r="8" class="c0"/>
<circle cx="168" cy="1408" r="8" class="c0"/>
<circle cx="144" cy="698" r="8" class="c0"/>
<circle cx="260" cy="836" r="8" class="c0"/>
<circle cx="208" cy="918" r="8" class="c0"/>
<circle cx="184" cy="750" r="8" class="c0"/>
<circle cx="176" cy="508" r="8" class="c0"/>
<circle cx="312" cy="664" r="8" class="c0"/>
<circle cx="134" cy="726" r="8" class="c0"/>
<circle cx="108" cy="1412" r="8" class="c0"/>
<circle cx="44" cy="1414" r="8" class="c0"/>
<circle cx="8" cy="1166" r="8" class="c0"/>
<circle cx="78" cy="1368" r="8" class="c0"/>
<circle cx="8" cy="1018" r="8" class="c0"/>
<circle cx="920" cy="670" r="8" class="c0"/>
<circle cx="44" cy="1126" r="8" class="c0"/>
<circle cx="40" cy="658" r="8" class="c0"/>
<circle cx="90" cy="1356" r="8" class="c0"/>
<circle cx="322" cy="542" r="8" class="c0"/>
<circle cx="150" cy="1374" r="8" class="c0"/>
<circle cx="72" cy="1020" r="8" class="c0"/>
<circle cx="278" cy="694" r="8" class="c0"/>
<circle cx="12" cy="1400" r="8" class="c0"/>
<circle cx="80" cy="1092" r="8" class="c0"/>
<circle cx="106" cy="1120" r="8" class="c0"/>
<circle cx="160" cy="672" r="8" class="c0"/>
<circle cx="358" cy="456" r="8" class="c0"/>
<circle cx="342" cy="504" r="8" class="c0"/>
<circle cx="78" cy="974" r="8" class="c0"/>
<circle cx="240" cy="652" r="8" class="c0"/>
<circle cx="100" cy="1162" r="8" class="c0"/>
<circle cx="184" cy="694" r="8" class="c0"/>
<circle cx="346" cy="594" r="8" class="c0"/>
<circle cx="96" cy="852" r="8" class="c0"/>
<circle cx="336" cy="648" r="8" class="c0"/>
<circle cx="58" cy="1184" r="8" class="c0"/>
<circle cx="8" cy="764" r="8" class="c0"/>
<circle cx="118" cy="880" r="8" class="c0"/>
<circle cx="104" cy="716" r="8" class="c0"/>
<circle cx="76" cy="490" r="8" class="c0"/>
<circle cx="14" cy="1422" r="8" class="c0"/>
<circle cx="94" cy="756" r="8" class="c0"/>
<circle cx="20" cy="732" r="8" class="c0"/>
<circle cx="96" cy="1266" r="8" class="c0"/>
<circle cx="124" cy="1382" r="8" class="c0"/>
<circle cx="124" cy="574" r="8" class="c0"/>
<circle cx="174" cy="444" r="8" class="c0"/>
<circle cx="20" cy="1374" r="8" class="c0"/>
<circle cx="268" cy="646" r="8" class="c0"/>
<circle cx="60" cy="656" r="8" class="c0"/>
<circle cx="170" cy="1270" r="8" class="c0"/>
<circle cx="188" cy="434" r="8" class="c0"/>
<circle cx="22" cy="890" r="8" class="c0"/>
<circle cx="294" cy="514" r="8" class="c0"/>
<circle cx="74" cy="538" r="8" class="c0"/>
<circle cx="190" cy="498" r="8" class="c0"/>
<circle cx="50" cy="1258" r="8" class="c0"/>
<circle cx="88" cy="436" r="8" class="c0"/>
<circle cx="254" cy="920" r="8" class="c0"/>
<circle cx="134" cy="1118" r="8" class="c0"/>
<circle cx="132" cy="1320" r="8" class="c0"/>
<circle cx="230" cy="584" r="8" class="c0"/>
<circle cx="16" cy="398" r="8" class="c0"/>
<circle cx="166" cy="558" r="8" class="c0"/>
<circle cx="230" cy="934" r="8" class="c0"/>
<circle cx="72" cy="466" r="8" class="c0"/>
<circle cx="208" cy="686" r="8" class="c0"/>
<circle cx="160" cy="1080" r="8" class="c0"/>
<circle cx="86" cy="1188" r="8" class="c0"/>
<circle cx="66" cy="702" r="8" class="c0"/>
<circle cx="48" cy="1238" r="8" class="c0"/>
<circle cx="226" cy="956" r="8" class="c0"/>
<circle cx="250" cy="632" r="8" class="c0"/>
<circle cx="44" cy="1054" r="8" class="c0"/>
<circle cx="78" cy="1142" r="8" class="c0"/>
<circle cx="160" cy="1056" r="8" class="c0"/>
<circle cx="62" cy="1082" r="8" class="c0"/>
<circle cx="106" cy="586" r="8" class="c0"/>
<circle cx="16" cy="1292" r="8" class="c0"/>
<circle cx="904" cy="652" r="8" class="c0"/>
<circle cx="120" cy="1130" r="8" class="c0"/>
<circle cx="112" cy="832" r="8" class="c0"/>
<circle cx="132" cy="1076" r="8" class="c0"/>
<circle cx="258" cy="720" r="8" class="c0"/>
<circle cx="362" cy="490" r="8" class="c0"/>
<circle cx="26" cy="1070" r="8" class="c0"/>
<circle cx="166" cy="734" r="8" class="c0"/>
<circle cx="198" cy="670" r="8" class="c0"/>
<circle cx="160" cy="956" r="8" class="c0"/>
<circle cx="46" cy="496" r="8" class="c0"/>
<circle cx="898" cy="586" r="8" class="c0"/>
<circle cx="16" cy="694" r="8" class="c0"/>
<circle cx="250" cy="894" r="8" class="c0"/>
<circle cx="192" cy="638" r="8" class="c0"/>
<circle cx="146" cy="904" r="8" class="c0"/>
<circle cx="8" cy="832" r="8" class="c0"/>
<circle cx="100" cy="1056" r="8" class="c0"/>
<circle cx="340" cy="436" r="8" class="c0"/>
<circle cx="256" cy="578" r="8" class="c0"/>
<circle cx="36" cy="752" r="8" class="c0"/>
<circle cx="80" cy="1072" r="8" class="c0"/>
<circle cx="10" cy="792" r="8" class="c0"/>
<circle cx="332" cy="610" r="8" class="c0"/>
<circle cx="70" cy="916" r="8" class="c0"/>
<circle cx="96" cy="1426" r="8" class="c0"/>
<circle cx="166" cy="1128" r="8" class="c0"/>
<circle cx="100" cy="1294" r="8" class="c0"/>
<circle cx="964" cy="716" r="8" class="c0"/>
<circle cx="250" cy="446" r="8" class="c0"/>
<circle cx="26" cy="676" r="8" class="c0"/>
<circle cx="54" cy="460" r="8" class="c0"/>
<circle cx="8" cy="1108" r="8" class="c0"/>
<circle cx="354" cy="642" r="8" class="c0"/>
<circle cx="96" cy="618" r="8" class="c0"/>
<circle cx="136" cy="894" r="8" class="c0"/>
<circle cx="282" cy="536" r="8" class="c0"/>
<circle cx="200" cy="704" r="8" class="c0"/>
<circle cx="72" cy="1332" r="8" class="c0"/>
<circle cx="916" cy="638" r="8" class="c0"/>
<circle cx="26" cy="418" r="8" class="c0"/>
<circle cx="232" cy="620" r="8" class="c0"/>
<circle cx="34" cy="1094" r="8" class="c0"/>
<circle cx="10" cy="458" r="8" class="c0"/>
<circle cx="68" cy="1132" r="8" class="c0"/>
<circle cx="78" cy="604" r="8" class="c0"/>
<circle cx="66" cy="960" r="8" class="c0"/>
<circle cx="272" cy="486" r="8" class="c0"/>
<circle cx="186" cy="462" r="8" class="c0"/>
<circle cx="234" cy="916" r="8" class="c0"/>
<circle cx="348" cy="472" r="8" class="c0"/>
<circle cx="88" cy="1222" r="8" class="c0"/>
<circle cx="210" cy="652" r="8" class="c0"/>
<circle cx="202" cy="854" r="8" class="c0"/>
<circle cx="124" cy="426" r="8" class="c0"/>
<circle cx="290" cy="684" r="8" class="c0"/>
<circle cx="78" cy="1388" r="8" class="c0"/>
<circle cx="236" cy="746" r="8" class="c0"/>
<circle cx="94" cy="1012" r="8" class="c0"/>
<circle cx="104" cy="1386" r="8" class="c0"/>
<circle cx="26" cy="1322" r="8" class="c0"/>
<circle cx="178" cy="1286" r="8" class="c0"/>
<circle cx="326" cy="702" r="8" class="c0"/>
<circle cx="370" cy="434" r="8" class="c0"/>
<circle cx="82" cy="868" r="8" class="c0"/>
<circle cx="218" cy="696" r="8" class="c0"/>
<circle cx="118" cy="1350" r="8" class="c0"/>
<circle cx="8" cy="742" r="8" class="c0"/>
<circle cx="196" cy="538" r="8" class="c0"/>
<circle cx="46" cy="592" r="8" class="c0"/>
<circle cx="170" cy="1162" r="8" class="c0"/>
<circle cx="128" cy="666" r="8" class="c0"/>
<circle cx="18" cy="714" r="8" class="c0"/>
<circle cx="176" cy="654" r="8" class="c0"/>
<circle cx="84" cy="744" r="8" class="c0"/>
<circle cx="264" cy="422" r="8" class="c0"/>
<circle cx="10" cy="508" r="8" class="c0"/>
<circle cx="166" cy="1002" r="8" class="c0"/>
<circle cx="172" cy="1046" r="8" class="c0"/>
<circle cx="156" cy="724" r="8" class="c0"/>
<circle cx="166" cy="698" r="8" class="c0"/>
<circle cx="228" cy="668" r="8" class="c0"/>
<circle cx="144" cy="1334" r="8" class="c0"/>
<circle cx="236" cy="472" r="8" class="c0"/>
<circle cx="54" cy="530" r="8" class="c0"/>
<circle cx="34" cy="1430" r="8" class="c0"/>
<circle cx="338" cy="484" r="8" class="c0"/>
<circle cx="192" cy="928" r="8" class="c0"/>
<circle cx="14" cy="554" r="8" class="c0"/>
<circle cx="206" cy="552" r="8" class="c0"/>
<circle cx="328" cy="466" r="8" class="c0"/>
<circle cx="36" cy="1038" r="8" class="c0"/>
<circle cx="308" cy="460" r="8" class="c0"/>
<circle cx="196" cy="766" r="8" class="c0"/>
<circle cx="248" cy="732" r="8" class="c0"/>
<circle cx="312" cy="788" r="8" class="c0"/>
<circle cx="80" cy="992" r="8" class="c0"/>
<circle cx="320" cy="424" r="8" class="c0"/>
<circle cx="152" cy="1242" r="8" class="c0"/>
<circle cx="76" cy="844" r="8" class="c0"/>
<circle cx="44" cy="802" r="8" class="c0"/>
<circle cx="68" cy="442" r="8" class="c0"/>
<circle cx="146" cy="946" r="8" class="c0"/>
<circle cx="906" cy="524" r="8" class="c0"/>
<circle cx="264" cy="458" r="8" class="c0"/>
<circle cx="250" cy="508" r="8" class="c0"/>
<circle cx="12" cy="880" r="8" class="c0"/>
<circle cx="174" cy="800" r="8" class="c0"/>
<circle cx="212" cy="720" r="8" class="c0"/>
<circle cx="16" cy="1354" r="8" class="c0"/>
<circle cx="170" cy="632" r="8" class="c0"/>
<circle cx="160" cy="432" r="8" class="c0"/>
<circle cx="150" cy="1224" r="8" class="c0"/>
<circle cx="20" cy="814" r="8" class="c0"/>
<circle cx="172" cy="1090" r="8" class="c0"/>
<circle cx="110" cy="506" r="8" class="c0"/>
<circle cx="338" cy="534" r="8" class="c0"/>
<circle cx="232" cy="454" r="8" class="c0"/>
<circle cx="368" cy="472" r="8" class="c0"/>
<circle cx="336" cy="556" r="8" class="c0"/>
<circle cx="204" cy="986" r="8" class="c0"/>
<circle cx="58" cy="1102" r="8" class="c0"/>
<circle cx="334" cy="668" r="8" class="c0"/>
<circle cx="32" cy="1200" r="8" class="c0"/>
<circle cx="36" cy="1312" r="8" class="c0"/>
<circle cx="12" cy="526" r="8" class="c0"/>
<circle cx="310" cy="830" r="8" class="c0"/>
<circle cx="150" cy="638" r="8" class="c0"/>
<circle cx="180" cy="1148" r="8" class="c0"/>
<circle cx="240" cy="522" r="8" class="c0"/>
<circle cx="62" cy="730" r="8" class="c0"/>
<circle cx="184" cy="870" r="8" class="c0"/>
<circle cx="150" cy="1070" r="8" class="c0"/>
<circle cx="156" cy="1116" r="8" class="c0"/>
<circle cx="204" cy="1252" r="8" class="c0"/>
<circle cx="122" cy="1154" r="8" class="c0"/>
<circle cx="40" cy="1396" r="8" class="c0"/>
<circle cx="302" cy="434" r="8" class="c0"/>
<circle cx="136" cy="778" r="8" class="c0"/>
<circle cx="246" cy="564" r="8" class="c0"/>
<circle cx="56" cy="788" r="8" class="c0"/>
<circle cx="288" cy="610" r="8" class="c0"/>
<circle cx="196" cy="1268" r="8" class="c0"/>
<circle cx="76" cy="556" r="8" class="c0"/>
<circle cx="118" cy="614" r="8" class="c0"/>
<circle cx="310" cy="558" r="8" class="c0"/>
<circle cx="116" cy="1312" r="8" class="c0"/>
<circle cx="94" cy="956" r="8" class="c0"/>
<circle cx="278" cy="668" r="8" class="c0"/>
<circle cx="44" cy="1076" r="8" class="c0"/>
<circle cx="166" cy="1232" r="8" class="c0"/>
<circle cx="172" cy="1180" r="8" class="c0"/>
<circle cx="128" cy="760" r="8" class="c0"/>
<circle cx="56" cy="712" r="8" class="c0"/>
<circle cx="120" cy="1002" r="8" class="c0"/>
<circle cx="82" cy="454" r="8" class="c0"/>
<circle cx="30" cy="1384" r="8" class="c0"/>
<circle cx="210" cy="464" r="8" class="c0"/>
<circle cx="238" cy="546" r="8" class="c0"/>
<circle cx="908" cy="544" r="8" class="c0"/>
<circle cx="38" cy="982" r="8" class="c0"/>
<circle cx="34" cy="902" r="8" class="c0"/>
<circle cx="282" cy="716" r="6" class="c0"/>
<circle cx="50" cy="742" r="6" class="c0"/>
<circle cx="40" cy="442" r="6" class="c0"/>
<circle cx="88" cy="500" r="6" class="c0"/>
<circle cx="100" cy="874" r="6" class="c0"/>
<circle cx="348" cy="420" r="6" class="c0"/>
<circle cx="320" cy="686" r="6" class="c0"/>
<circle cx="6" cy="994" r="6" class="c0"/>
<circle cx="302" cy="494" r="6" class="c0"/>
<circle cx="16" cy="1080" r="6" class="c0"/>
<circle cx="932" cy="660" r="6" class="c0"/>
<circle cx="294" cy="420" r="6" class="c0"/>
<circle cx="120" cy="1194" r="6" class="c0"/>
<circle cx="10" cy="570" r="6" class="c0"/>
<circle cx="100" cy="814" r="6" class="c0"/>
<circle cx="28" cy="1408" r="6" class="c0"/>
<circle cx="174" cy="488" r="6" class="c0"/>
<circle cx="54" cy="886" r="6" class="c0"/>
<circle cx="952" cy="702" r="6" class="c0"/>
<circle cx="252" cy="700" r="6" class="c0"/>
<circle cx="152" cy="768" r="6" class="c0"/>
<circle cx="286" cy="494" r="6" class="c0"/>
<circle cx="138" cy="974" r="6" class="c0"/>
<circle cx="60" cy="1344" r="6" class="c0"/>
<circle cx="124" cy="716" r="6" class="c0"/>
<circle cx="50" cy="670" r="6" class="c0"/>
<circle cx="262" cy="690" r="6" class="c0"/>
<circle cx="82" cy="888" r="6" class="c0"/>
<circle cx="316" cy="744" r="6" class="c0"/>
<circle cx="142" cy="1398" r="6" class="c0"/>
<circle cx="912" cy="602" r="6" class="c0"/>
<circle cx="54" cy="1432" r="6" class="c0"/>
<circle cx="206" cy="588" r="6" class="c0"/>
<circle cx="288" cy="754" r="6" class="c0"/>
<circle cx="276" cy="1354" r="6" class="c0"/>
<circle cx="116" cy="1070" r="6" class="c0"/>
<circle cx="240" cy="602" r="6" class="c0"/>
<circle cx="118" cy="790" r="6" class="c0"/>
<circle cx="330" cy="628" r="6" class="c0"/>
<circle cx="188" cy="814" r="6" class="c0"/>
<circle cx="146" cy="476" r="6" class="c0"/>
<circle cx="254" cy="1324" r="6" class="c0"/>
<circle cx="18" cy="1006" r="6" class="c0"/>
<circle cx="64" cy="1360" r="6" class="c0"/>
<circle cx="30" cy="1346" r="6" class="c0"/>
<circle cx="134" cy="1164" r="6" class="c0"/>
<circle cx="8" cy="478" r="6" class="c0"/>
<circle cx="246" cy="1206" r="6" class="c0"/>
<circle cx="260" cy="742" r="6" class="c0"/>
<circle cx="164" cy="1392" r="6" class="c0"/>
<circle cx="142" cy="678" r="6" class="c0"/>
<circle cx="14" cy="1250" r="6" class="c0"/>
<circle cx="72" cy="1196" r="6" class="c0"/>
<circle cx="262" cy="474" r="6" class="c0"/>
<circle cx="164" cy="810" r="6" class="c0"/>
<circle cx="182" cy="480" r="6" class="c0"/>
<circle cx="104" cy="1224" r="6" class="c0"/>
<circle cx="64" cy="640" r="6" class="c0"/>
<circle cx="894" cy="552" r="6" class="c0"/>
<circle cx="128" cy="982" r="6" class="c0"/>
<circle cx="12" cy="614" r="6" class="c0"/>
<circle cx="106" cy="1040" r="6" class="c0"/>
<circle cx="894" cy="638" r="6" class="c0"/>
<circle cx="12" cy="1236" r="6" class="c0"/>
<circle cx="364" cy="632" r="6" class="c0"/>
<circle cx="20" cy="778" r="6" class="c0"/>
<circle cx="8" cy="900" r="6" class="c0"/>
<circle cx="102" cy="1178" r="6" class="c0"/>
<circle cx="282" cy="594" r="6" class="c0"/>
<circle cx="246" cy="590" r="6" class="c0"/>
<circle cx="174" cy="1426" r="6" class="c0"/>
<circle cx="282" cy="464" r="6" class="c0"/>
<circle cx="192" cy="800" r="6" class="c0"/>
<circle cx="54" cy="684" r="6" class="c0"/>
<circle cx="110" cy="1368" r="6" class="c0"/>
<circle cx="292" cy="556" r="6" class="c0"/>
<circle cx="250" cy="876" r="6" class="c0"/>
<circle cx="38" cy="926" r="6" class="c0"/>
<circle cx="52" cy="566" r="6" class="c0"/>
<circle cx="22" cy="1028" r="6" class="c0"/>
<circle cx="54" cy="870" r="6" class="c0"/>
<circle cx="6" cy="376" r="6" class="c0"/>
<circle cx="10" cy="630" r="6" class="c0"/>
<circle cx="88" cy="1132" r="6" class="c0"/>
<circle cx="12" cy="1312" r="6" class="c0"/>
<circle cx="6" cy="1142" r="6" class="c0"/>
<circle cx="150" cy="806" r="6" class="c0"/>
<circle cx="86" cy="474" r="6" class="c0"/>
<circle cx="380" cy="486" r="6" class="c0"/>
<circle cx="66" cy="1004" r="6" class="c0"/>
<circle cx="188" cy="974" r="6" class="c0"/>
<circle cx="154" cy="688" r="6" class="c0"/>
<circle cx="314" cy="808" r="6" class="c0"/>
<circle cx="136" cy="1302" r="6" class="c0"/>
<circle cx="40" cy="1186" r="6" class="c0"/>
<circle cx="94" cy="552" r="6" class="c0"/>
<circle cx="10" cy="416" r="6" class="c0"/>
<circle cx="6" cy="1258" r="6" class="c0"/>
<circle cx="298" cy="392" r="6" class="c0"/>
<circle cx="238" cy="816" r="6" class="c0"/>
<circle cx="62" cy="1034" r="6" class="c0"/>
<circle cx="158" cy="914" r="6" class="c0"/>
<circle cx="94" cy="1246" r="6" class="c0"/>
<circle cx="80" cy="1432" r="6" class="c0"/>
<circle cx="80" cy="624" r="6" class="c0"/>
<circle cx="144" cy="1260" r="6" class="c0"/>
<circle cx="138" cy="842" r="6" class="c0"/>
<circle cx="378" cy="454" r="6" class="c0"/>
<circle cx="214" cy="1308" r="6" class="c0"/>
<circle cx="68" cy="1112" r="6" class="c0"/>
<circle cx="182" cy="674" r="6" class="c0"/>
<circle cx="10" cy="1128" r="6" class="c0"/>
<circle cx="290" cy="456" r="6" class="c0"/>
<circle cx="158" cy="454" r="6" class="c0"/>
<circle cx="60" cy="552" r="6" class="c0"/>
<circle cx="198" cy="452" r="6" class="c0"/>
<circle cx="26" cy="1244" r="6" class="c0"/>
<circle cx="12" cy="1220" r="6" class="c0"/>
<circle cx="98" cy="602" r="6" class="c0"/>
<circle cx="152" cy="518" r="6" class="c0"/>
<circle cx="52" cy="970" r="6" class="c0"/>
<circle cx="92" cy="536" r="6" class="c0"/>
<circle cx="34" cy="558" r="6" class="c0"/>
<circle cx="266" cy="628" r="6" class="c0"/>
<circle cx="180" cy="1220" r="6" class="c0"/>
<circle cx="8" cy="950" r="6" class="c0"/>
<circle cx="6" cy="1202" r="6" class="c0"/>
<circle cx="320" cy="390" r="6" class="c0"/>
<circle cx="50" cy="636" r="6" class="c0"/>
<circle cx="116" cy="526" r="6" class="c0"/>
<circle cx="6" cy="1070" r="6" class="c0"/>
<circle cx="74" cy="898" r="6" class="c0"/>
<circle cx="182" cy="554" r="6" class="c0"/>
<circle cx="78" cy="426" r="6" class="c0"/>
<circle cx="104" cy="794" r="6" class="c0"/>
<circle cx="98" cy="424" r="6" class="c0"/>
<circle cx="36" cy="1172" r="6" class="c0"/>
<circle cx="218" cy="908" r="6" class="c0"/>
<circle cx="70" cy="1156" r="6" class="c0"/>
<circle cx="176" cy="570" r="6" class="c0"/>
<circle cx="196" cy="1214" r="6" class="c0"/>
<circle cx="114" cy="472" r="6" class="c0"/>
<circle cx="24" cy="1164" r="6" class="c0"/>
<circle cx="136" cy="1186" r="6" class="c0"/>
<circle cx="264" cy="784" r="6" class="c0"/>
<circle cx="10" cy="1034" r="6" class="c0"/>
<circle cx="42" cy="862" r="6" class="c0"/>
<circle cx="912" cy="578" r="6" class="c0"/>
<circle cx="246" cy="828" r="6" class="c0"/>
<circle cx="240" cy="706" r="6" class="c0"/>
<circle cx="120" cy="444" r="6" class="c0"/>
<circle cx="204" cy="436" r="6" class="c0"/>
<circle cx="204" cy="790" r="6" class="c0"/>
<circle cx="8" cy="1088" r="6" class="c0"/>
<circle cx="42" cy="616" r="6" class="c0"/>
<circle cx="44" cy="550" r="6" class="c0"/>
<circle cx="154" cy="1196" r="6" class="c0"/>
<circle cx="8" cy="670" r="6" class="c0"/>
<circle cx="162" cy="750" r="6" class="c0"/>
<circle cx="144" cy="428" r="6" class="c0"/>
<circle cx="208" cy="1220" r="6" class="c0"/>
<circle cx="322" cy="726" r="6" class="c0"/>
<circle cx="104" cy="946" r="6" class="c0"/>
<circle cx="150" cy="1132" r="6" class="c0"/>
<circle cx="28" cy="788" r="6" class="c0"/>
<circle cx="112" cy="670" r="6" class="c0"/>
<circle cx="134" cy="708" r="6" class="c0"/>
<circle cx="260" cy="496" r="6" class="c0"/>
<circle cx="124" cy="1334" r="6" class="c0"/>
<circle cx="192" cy="960" r="6" class="c0"/>
<circle cx="198" cy="482" r="6" class="c0"/>
<circle cx="202" cy="1186" r="6" class="c0"/>
<circle cx="58" cy="1396" r="6" class="c0"/>
<circle cx="80" cy="694" r="6" class="c0"/>
<circle cx="274" cy="620" r="6" class="c0"/>
<circle cx="142" cy="580" r="6" class="c0"/>
<circle cx="6" cy="704" r="6" class="c0"/>
<circle cx="214" cy="578" r="6" class="c0"/>
<circle cx="298" cy="586" r="6" class="c0"/>
<circle cx="58" cy="604" r="6" class="c0"/>
<circle cx="18" cy="1208" r="6" class="c0"/>
<circle cx="8" cy="850" r="6" class="c0"/>
<circle cx="320" cy="758" r="6" class="c0"/>
<circle cx="54" cy="1026" r="6" class="c0"/>
<circle cx="208" cy="900" r="6" class="c0"/>
<circle cx="300" cy="544" r="6" class="c0"/>
<circle cx="214" cy="1240" r="6" class="c0"/>
<circle cx="194" cy="1284" r="6" class="c0"/>
<circle cx="96" cy="730" r="6" class="c0"/>
<circle cx="32" cy="452" r="6" class="c0"/>
<circle cx="238" cy="768" r="6" class="c0"/>
<circle cx="214" cy="970" r="6" class="c0"/>
<circle cx="362" cy="610" r="6" class="c0"/>
<circle cx="114" cy="1432" r="6" class="c0"/>
<circle cx="82" cy="906" r="6" class="c0"/>
<circle cx="20" cy="956" r="6" class="c0"/>
<circle cx="18" cy="752" r="6" class="c0"/>
<circle cx="340" cy="456" r="6" class="c0"/>
<circle cx="48" cy="1202" r="6" class="c0"/>
<circle cx="96" cy="466" r="6" class="c0"/>
<circle cx="100" cy="634" r="6" class="c0"/>
<circle cx="72" cy="1350" r="6" class="c0"/>
<circle cx="228" cy="824" r="6" class="c0"/>
<circle cx="34" cy="712" r="6" class="c0"/>
<circle cx="190" cy="944" r="6" class="c0"/>
<circle cx="132" cy="800" r="6" class="c0"/>
<circle cx="268" cy="588" r="6" class="c0"/>
<circle cx="80" cy="522" r="6" class="c0"/>
<circle cx="108" cy="1278" r="6" class="c0"/>
<circle cx="96" cy="1372" r="6" class="c0"/>
<circle cx="6" cy="968" r="6" class="c0"/>
<circle cx="84" cy="1206" r="6" class="c0"/>
<circle cx="174" cy="684" r="6" class="c0"/>
<circle cx="974" cy="730" r="6" class="c0"/>
<circle cx="6" cy="1384" r="6" class="c0"/>
<circle cx="248" cy="614" r="6" class="c0"/>
<circle cx="168" cy="714" r="6" class="c0"/>
<circle cx="320" cy="774" r="6" class="c0"/>
<circle cx="254" cy="412" r="6" class="c0"/>
<circle cx="186" cy="1132" r="6" class="c0"/>
<circle cx="82" cy="816" r="6" class="c0"/>
<circle cx="308" cy="680" r="6" class="c0"/>
<circle cx="130" cy="532" r="6" class="c0"/>
<circle cx="6" cy="936" r="6" class="c0"/>
<circle cx="162" cy="1146" r="6" class="c0"/>
<circle cx="136" cy="1134" r="6" class="c0"/>
<circle cx="26" cy="1282" r="6" class="c0"/>
<circle cx="138" cy="490" r="6" class="c0"/>
<circle cx="20" cy="1338" r="6" class="c0"/>
<circle cx="84" cy="1054" r="6" class="c0"/>
<circle cx="182" cy="1034" r="6" class="c0"/>
<circle cx="876" cy="588" r="6" class="c0"/>
<circle cx="298" cy="746" r="6" class="c0"/>
<circle cx="346" cy="658" r="6" class="c0"/>
<circle cx="76" cy="658" r="6" class="c0"/>
<circle cx="18" cy="1098" r="6" class="c0"/>
<circle cx="84" cy="1158" r="6" class="c0"/>
<circle cx="272" cy="824" r="6" class="c0"/>
<circle cx="944" cy="710" r="6" class="c0"/>
<circle cx="224" cy="436" r="6" class="c0"/>
<circle cx="334" cy="688" r="6" class="c0"/>
<circle cx="242" cy="1330" r="6" class="c0"/>
<circle cx="202" cy="1002" r="6" class="c0"/>
<circle cx="140" cy="1384" r="6" class="c0"/>
<circle cx="124" cy="1270" r="6" class="c0"/>
<circle cx="6" cy="684" r="6" class="c0"/>
<circle cx="318" cy="644" r="6" class="c0"/>
<circle cx="146" cy="966" r="6" class="c0"/>
<circle cx="18" cy="842" r="6" class="c0"/>
<circle cx="206" cy="870" r="6" class="c0"/>
<circle cx="140" cy="1060" r="6" class="c0"/>
<circle cx="300" cy="568" r="6" class="c0"/>
<circle cx="210" cy="934" r="6" class="c0"/>
<circle cx="26" cy="1302" r="6" class="c0"/>
</svg>
