<?xml version="1.0" encoding="utf-8"?>
<svg xmlns="http://www.w3.org/2000/svg"
     xmlns:xlink="http://www.w3.org/1999/xlink" width="1920" height="1440" >

            <defs>
            <style type="text/css"><![CDATA[
circle {stroke: none;}
.c0 {fill: #FFFFFF;}
]]></style>
            </defs>
<rect x="0" y="0" width="1920" height="1440" fill="black"/>
<circle cx="76" cy="870" r="14" class="c0"/>
<circle cx="62" cy="1034" r="12" class="c0"/>
<circle cx="78" cy="950" r="12" class="c0"/>
<circle cx="86" cy="826" r="12" class="c0"/>
<circle cx="138" cy="700" r="12" class="c0"/>
<circle cx="932" cy="670" r="12" class="c0"/>
<circle cx="142" cy="904" r="12" class="c0"/>
<circle cx="46" cy="704" r="12" class="c0"/>
<circle cx="32" cy="1224" r="12" class="c0"/>
<circle cx="858" cy="626" r="12" class="c0"/>
<circle cx="882" cy="574" r="12" class="c0"/>
<circle cx="56" cy="840" r="12" class="c0"/>
<circle cx="52" cy="988" r="12" class="c0"/>
<circle cx="88" cy="680" r="12" class="c0"/>
<circle cx="70" cy="916" r="12" class="c0"/>
<circle cx="60" cy="1158" r="12" class="c0"/>
<circle cx="22" cy="812" r="12" class="c0"/>
<circle cx="18" cy="1040" r="12" class="c0"/>
<circle cx="14" cy="710" r="12" class="c0"/>
<circle cx="110" cy="804" r="10" class="c0"/>
<circle cx="924" cy="600" r="10" class="c0"/>
<circle cx="56" cy="1068" r="10" class="c0"/>
<circle cx="26" cy="1158" r="10" class="c0"/>
<circle cx="96" cy="928" r="10" class="c0"/>
<circle cx="834" cy="614" r="10" class="c0"/>
<circle cx="102" cy="1056" r="10" class="c0"/>
<circle cx="46" cy="804" r="10" class="c0"/>
<circle cx="56" cy="1208" r="10" class="c0"/>
<circle cx="44" cy="1086" r="10" class="c0"/>
<circle cx="870" cy="668" r="10" class="c0"/>
<circle cx="98" cy="902" r="10" class="c0"/>
<circle cx="82" cy="1072" r="10" class="c0"/>
<circle cx="932" cy="708" r="10" class="c0"/>
<circle cx="926" cy="730" r="10" class="c0"/>
<circle cx="98" cy="656" r="10" class="c0"/>
<circle cx="984" cy="804" r="10" class="c0"/>
<circle cx="118" cy="718" r="10" class="c0"/>
<circle cx="914" cy="694" r="10" class="c0"/>
<circle cx="12" cy="758" r="10" class="c0"/>
<circle cx="112" cy="836" r="10" class="c0"/>
<circle cx="118" cy="912" r="10" class="c0"/>
<circle cx="58" cy="768" r="10" class="c0"/>
<circle cx="46" cy="1134" r="10" class="c0"/>
<circle cx="16" cy="1202" r="10" class="c0"/>
<circle cx="18" cy="1108" r="10" class="c0"/>
<circle cx="958" cy="780" r="10" class="c0"/>
<circle cx="128" cy="1006" r="10" class="c0"/>
<circle cx="56" cy="680" r="10" class="c0"/>
<circle cx="102" cy="878" r="10" class="c0"/>
<circle cx="874" cy="544" r="10" class="c0"/>
<circle cx="108" cy="1018" r="10" class="c0"/>
<circle cx="48" cy="728" r="10" class="c0"/>
<circle cx="82" cy="1012" r="10" class="c0"/>
<circle cx="130" cy="676" r="10" class="c0"/>
<circle cx="22" cy="990" r="10" class="c0"/>
<circle cx="850" cy="580" r="10" class="c0"/>
<circle cx="900" cy="594" r="10" class="c0"/>
<circle cx="34" cy="764" r="10" class="c0"/>
<circle cx="152" cy="730" r="10" class="c0"/>
<circle cx="124" cy="1052" r="10" class="c0"/>
<circle cx="38" cy="868" r="10" class="c0"/>
<circle cx="102" cy="964" r="10" class="c0"/>
<circle cx="894" cy="666" r="10" class="c0"/>
<circle cx="110" cy="750" r="10" class="c0"/>
<circle cx="100" cy="854" r="10" class="c0"/>
<circle cx="106" cy="782" r="8" class="c0"/>
<circle cx="8" cy="894" r="8" class="c0"/>
<circle cx="74" cy="976" r="8" class="c0"/>
<circle cx="26" cy="920" r="8" class="c0"/>
<circle cx="8" cy="930" r="8" class="c0"/>
<circle cx="112" cy="942" r="8" class="c0"/>
<circle cx="72" cy="738" r="8" class="c0"/>
<circle cx="146" cy="932" r="8" class="c0"/>
<circle cx="56" cy="1100" r="8" class="c0"/>
<circle cx="16" cy="1254" r="8" class="c0"/>
<circle cx="22" cy="942" r="8" class="c0"/>
<circle cx="138" cy="870" r="8" class="c0"/>
<circle cx="42" cy="964" r="8" class="c0"/>
<circle cx="110" cy="684" r="8" class="c0"/>
<circle cx="814" cy="612" r="8" class="c0"/>
<circle cx="944" cy="754" r="8" class="c0"/>
<circle cx="910" cy="568" r="8" class="c0"/>
<circle cx="900" cy="708" r="8" class="c0"/>
<circle cx="954" cy="724" r="8" class="c0"/>
<circle cx="32" cy="1266" r="8" class="c0"/>
<circle cx="100" cy="706" r="8" class="c0"/>
<circle cx="68" cy="796" r="8" class="c0"/>
<circle cx="120" cy="1114" r="8" class="c0"/>
<circle cx="114" cy="976" r="8" class="c0"/>
<circle cx="820" cy="586" r="8" class="c0"/>
<circle cx="10" cy="1006" r="8" class="c0"/>
<circle cx="46" cy="1248" r="8" class="c0"/>
<circle cx="70" cy="1130" r="8" class="c0"/>
<circle cx="34" cy="1008" r="8" class="c0"/>
<circle cx="42" cy="1110" r="8" class="c0"/>
<circle cx="84" cy="770" r="8" class="c0"/>
<circle cx="58" cy="938" r="8" class="c0"/>
<circle cx="38" cy="1192" r="8" class="c0"/>
<circle cx="96" cy="1096" r="8" class="c0"/>
<circle cx="890" cy="632" r="8" class="c0"/>
<circle cx="130" cy="956" r="8" class="c0"/>
<circle cx="16" cy="1298" r="8" class="c0"/>
<circle cx="132" cy="736" r="8" class="c0"/>
<circle cx="912" cy="652" r="8" class="c0"/>
<circle cx="18" cy="864" r="8" class="c0"/>
<circle cx="160" cy="706" r="8" class="c0"/>
<circle cx="110" cy="1082" r="8" class="c0"/>
<circle cx="32" cy="1058" r="8" class="c0"/>
<circle cx="902" cy="552" r="8" class="c0"/>
<circle cx="88" cy="746" r="8" class="c0"/>
<circle cx="882" cy="648" r="8" class="c0"/>
<circle cx="12" cy="1176" r="8" class="c0"/>
<circle cx="10" cy="1078" r="8" class="c0"/>
<circle cx="126" cy="818" r="8" class="c0"/>
<circle cx="22" cy="1132" r="8" class="c0"/>
<circle cx="140" cy="760" r="8" class="c0"/>
<circle cx="76" cy="1094" r="8" class="c0"/>
<circle cx="90" cy="986" r="8" class="c0"/>
<circle cx="72" cy="712" r="8" class="c0"/>
<circle cx="824" cy="566" r="8" class="c0"/>
<circle cx="858" cy="650" r="8" class="c0"/>
<circle cx="44" cy="890" r="8" class="c0"/>
<circle cx="82" cy="1048" r="8" class="c0"/>
<circle cx="922" cy="632" r="8" class="c0"/>
<circle cx="834" cy="640" r="8" class="c0"/>
<circle cx="888" cy="606" r="8" class="c0"/>
<circle cx="862" cy="556" r="8" class="c0"/>
<circle cx="888" cy="698" r="8" class="c0"/>
<circle cx="124" cy="888" r="8" class="c0"/>
<circle cx="22" cy="968" r="8" class="c0"/>
<circle cx="934" cy="620" r="8" class="c0"/>
<circle cx="170" cy="716" r="8" class="c0"/>
<circle cx="908" cy="614" r="8" class="c0"/>
<circle cx="24" cy="780" r="8" class="c0"/>
<circle cx="808" cy="576" r="8" class="c0"/>
<circle cx="124" cy="848" r="8" class="c0"/>
<circle cx="12" cy="832" r="8" class="c0"/>
<circle cx="28" cy="692" r="8" class="c0"/>
<circle cx="8" cy="788" r="8" class="c0"/>
<circle cx="102" cy="732" r="8" class="c0"/>
<circle cx="84" cy="724" r="8" class="c0"/>
<circle cx="948" cy="694" r="8" class="c0"/>
<circle cx="878" cy="596" r="8" class="c0"/>
<circle cx="964" cy="742" r="8" class="c0"/>
<circle cx="42" cy="824" r="8" class="c0"/>
<circle cx="866" cy="606" r="8" class="c0"/>
<circle cx="66" cy="1224" r="8" class="c0"/>
<circle cx="96" cy="1032" r="8" class="c0"/>
<circle cx="46" cy="752" r="8" class="c0"/>
<circle cx="166" cy="742" r="8" class="c0"/>
<circle cx="76" cy="660" r="8" class="c0"/>
<circle cx="970" cy="760" r="8" class="c0"/>
<circle cx="934" cy="642" r="8" class="c0"/>
<circle cx="74" cy="758" r="8" class="c0"/>
<circle cx="904" cy="726" r="8" class="c0"/>
<circle cx="54" cy="1180" r="8" class="c0"/>
<circle cx="70" cy="814" r="8" class="c0"/>
<circle cx="36" cy="1174" r="8" class="c0"/>
<circle cx="872" cy="690" r="8" class="c0"/>
<circle cx="88" cy="798" r="8" class="c0"/>
<circle cx="124" cy="1028" r="8" class="c0"/>
<circle cx="18" cy="1278" r="8" class="c0"/>
<circle cx="34" cy="790" r="8" class="c0"/>
<circle cx="22" cy="738" r="8" class="c0"/>
<circle cx="24" cy="844" r="8" class="c0"/>
<circle cx="946" cy="652" r="8" class="c0"/>
<circle cx="838" cy="594" r="8" class="c0"/>
<circle cx="62" cy="886" r="8" class="c0"/>
<circle cx="26" cy="896" r="8" class="c0"/>
<circle cx="128" cy="796" r="8" class="c0"/>
<circle cx="124" cy="774" r="8" class="c0"/>
<circle cx="48" cy="914" r="8" class="c0"/>
<circle cx="126" cy="1074" r="8" class="c0"/>
<circle cx="116" cy="864" r="8" class="c0"/>
<circle cx="46" cy="780" r="8" class="c0"/>
<circle cx="52" cy="1012" r="8" class="c0"/>
<circle cx="796" cy="560" r="8" class="c0"/>
<circle cx="872" cy="524" r="8" class="c0"/>
<circle cx="890" cy="534" r="8" class="c0"/>
<circle cx="16" cy="910" r="8" class="c0"/>
<circle cx="112" cy="996" r="8" class="c0"/>
<circle cx="152" cy="682" r="8" class="c0"/>
<circle cx="120" cy="1092" r="8" class="c0"/>
<circle cx="62" cy="966" r="8" class="c0"/>
<circle cx="8" cy="956" r="8" class="c0"/>
<circle cx="8" cy="1148" r="8" class="c0"/>
<circle cx="12" cy="1234" r="6" class="c0"/>
<circle cx="924" cy="750" r="6" class="c0"/>
<circle cx="130" cy="934" r="6" class="c0"/>
<circle cx="38" cy="1024" r="6" class="c0"/>
<circle cx="30" cy="1246" r="6" class="c0"/>
<circle cx="78" cy="1234" r="6" class="c0"/>
<circle cx="906" cy="678" r="6" class="c0"/>
<circle cx="30" cy="1076" r="6" class="c0"/>
<circle cx="8" cy="850" r="6" class="c0"/>
<circle cx="66" cy="1190" r="6" class="c0"/>
<circle cx="68" cy="1000" r="6" class="c0"/>
<circle cx="134" cy="978" r="6" class="c0"/>
<circle cx="36" cy="674" r="6" class="c0"/>
<circle cx="82" cy="702" r="6" class="c0"/>
<circle cx="982" cy="786" r="6" class="c0"/>
<circle cx="854" cy="540" r="6" class="c0"/>
<circle cx="64" cy="1114" r="6" class="c0"/>
<circle cx="98" cy="762" r="6" class="c0"/>
<circle cx="842" cy="660" r="6" class="c0"/>
<circle cx="20" cy="1020" r="6" class="c0"/>
<circle cx="6" cy="1058" r="6" class="c0"/>
<circle cx="952" cy="676" r="6" class="c0"/>
<circle cx="1006" cy="826" r="6" class="c0"/>
<circle cx="126" cy="988" r="6" class="c0"/>
<circle cx="38" cy="940" r="6" class="c0"/>
<circle cx="70" cy="694" r="6" class="c0"/>
<circle cx="886" cy="682" r="6" class="c0"/>
<circle cx="70" cy="1174" r="6" class="c0"/>
<circle cx="8" cy="876" r="6" class="c0"/>
<circle cx="118" cy="658" r="6" class="c0"/>
<circle cx="46" cy="1050" r="6" class="c0"/>
<circle cx="22" cy="1068" r="6" class="c0"/>
<circle cx="58" cy="902" r="6" class="c0"/>
<circle cx="78" cy="896" r="6" class="c0"/>
<circle cx="46" cy="948" r="6" class="c0"/>
<circle cx="28" cy="1094" r="6" class="c0"/>
<circle cx="822" cy="628" r="6" class="c0"/>
<circle cx="46" cy="666" r="6" class="c0"/>
<circle cx="72" cy="780" r="6" class="c0"/>
<circle cx="852" cy="672" r="6" class="c0"/>
<circle cx="76" cy="844" r="6" class="c0"/>
<circle cx="32" cy="720" r="6" class="c0"/>
<circle cx="958" cy="704" r="6" class="c0"/>
<circle cx="914" cy="716" r="6" class="c0"/>
<circle cx="6" cy="1216" r="6" class="c0"/>
<circle cx="998" cy="816" r="6" class="c0"/>
<circle cx="926" cy="582" r="6" class="c0"/>
<circle cx="810" cy="596" r="6" class="c0"/>
<circle cx="8" cy="1314" r="6" class="c0"/>
<circle cx="878" cy="616" r="6" class="c0"/>
<circle cx="60" cy="658" r="6" class="c0"/>
<circle cx="6" cy="730" r="6" class="c0"/>
<circle cx="24" cy="880" r="6" class="c0"/>
<circle cx="6" cy="1022" r="6" class="c0"/>
<circle cx="6" cy="1120" r="6" class="c0"/>
<circle cx="6" cy="976" r="6" class="c0"/>
<circle cx="6" cy="1096" r="6" class="c0"/>
<circle cx="156" cy="756" r="6" class="c0"/>
<circle cx="66" cy="1054" r="6" class="c0"/>
<circle cx="850" cy="604" r="6" class="c0"/>
<circle cx="944" cy="734" r="6" class="c0"/>
<circle cx="150" cy="886" r="6" class="c0"/>
<circle cx="32" cy="1120" r="6" class="c0"/>
<circle cx="114" cy="1038" r="6" class="c0"/>
<circle cx="78" cy="1110" r="6" class="c0"/>
<circle cx="54" cy="860" r="6" class="c0"/>
<circle cx="844" cy="562" r="6" class="c0"/>
<circle cx="98" cy="1004" r="6" class="c0"/>
<circle cx="116" cy="700" r="6" class="c0"/>
<circle cx="38" cy="1042" r="6" class="c0"/>
<circle cx="900" cy="642" r="6" class="c0"/>
<circle cx="64" cy="1084" r="6" class="c0"/>
<circle cx="970" cy="792" r="6" class="c0"/>
<circle cx="872" cy="638" r="6" class="c0"/>
<circle cx="106" cy="1106" r="6" class="c0"/>
<circle cx="136" cy="720" r="6" class="c0"/>
<circle cx="32" cy="952" r="6" class="c0"/>
<circle cx="134" cy="834" r="6" class="c0"/>
<circle cx="54" cy="1234" r="6" class="c0"/>
<circle cx="160" cy="894" r="6" class="c0"/>
<circle cx="868" cy="586" r="6" class="c0"/>
<circle cx="88" cy="888" r="6" class="c0"/>
<circle cx="906" cy="630" r="6" class="c0"/>
<circle cx="88" cy="1256" r="6" class="c0"/>
<circle cx="62" cy="748" r="6" class="c0"/>
<circle cx="40" cy="850" r="6" class="c0"/>
<circle cx="34" cy="978" r="6" class="c0"/>
</svg>
