<?xml version="1.0" encoding="utf-8"?>
<svg xmlns="http://www.w3.org/2000/svg"
     xmlns:xlink="http://www.w3.org/1999/xlink" width="1920" height="1440" >

            <defs>
            <style type="text/css"><![CDATA[
circle {stroke: none;}
.c0 {fill: #FFFFFF;}
]]></style>
            </defs>
<rect x="0" y="0" width="1920" height="1440" fill="black"/>
<circle cx="838" cy="548" r="12" class="c0"/>
<circle cx="872" cy="632" r="12" class="c0"/>
<circle cx="896" cy="650" r="12" class="c0"/>
<circle cx="14" cy="978" r="12" class="c0"/>
<circle cx="30" cy="776" r="12" class="c0"/>
<circle cx="16" cy="736" r="12" class="c0"/>
<circle cx="840" cy="648" r="12" class="c0"/>
<circle cx="838" cy="602" r="12" class="c0"/>
<circle cx="806" cy="604" r="12" class="c0"/>
<circle cx="888" cy="680" r="12" class="c0"/>
<circle cx="868" cy="600" r="12" class="c0"/>
<circle cx="852" cy="584" r="10" class="c0"/>
<circle cx="918" cy="702" r="10" class="c0"/>
<circle cx="916" cy="672" r="10" class="c0"/>
<circle cx="22" cy="912" r="10" class="c0"/>
<circle cx="948" cy="720" r="10" class="c0"/>
<circle cx="14" cy="1018" r="10" class="c0"/>
<circle cx="932" cy="738" r="10" class="c0"/>
<circle cx="952" cy="770" r="10" class="c0"/>
<circle cx="10" cy="900" r="10" class="c0"/>
<circle cx="34" cy="934" r="10" class="c0"/>
<circle cx="910" cy="724" r="8" class="c0"/>
<circle cx="8" cy="1054" r="8" class="c0"/>
<circle cx="888" cy="616" r="8" class="c0"/>
<circle cx="36" cy="752" r="8" class="c0"/>
<circle cx="10" cy="872" r="8" class="c0"/>
<circle cx="858" cy="664" r="8" class="c0"/>
<circle cx="828" cy="566" r="8" class="c0"/>
<circle cx="10" cy="1082" r="8" class="c0"/>
<circle cx="10" cy="1128" r="8" class="c0"/>
<circle cx="12" cy="944" r="8" class="c0"/>
<circle cx="890" cy="706" r="8" class="c0"/>
<circle cx="10" cy="760" r="8" class="c0"/>
<circle cx="40" cy="734" r="8" class="c0"/>
<circle cx="816" cy="626" r="8" class="c0"/>
<circle cx="876" cy="568" r="8" class="c0"/>
<circle cx="954" cy="742" r="8" class="c0"/>
<circle cx="920" cy="650" r="8" class="c0"/>
<circle cx="856" cy="564" r="8" class="c0"/>
<circle cx="8" cy="1110" r="8" class="c0"/>
<circle cx="884" cy="588" r="8" class="c0"/>
<circle cx="914" cy="626" r="8" class="c0"/>
<circle cx="970" cy="780" r="8" class="c0"/>
<circle cx="6" cy="856" r="6" class="c0"/>
<circle cx="6" cy="778" r="6" class="c0"/>
<circle cx="942" cy="754" r="6" class="c0"/>
<circle cx="46" cy="762" r="6" class="c0"/>
<circle cx="874" cy="652" r="6" class="c0"/>
<circle cx="866" cy="684" r="6" class="c0"/>
<circle cx="818" cy="586" r="6" class="c0"/>
<circle cx="6" cy="816" r="6" class="c0"/>
<circle cx="786" cy="590" r="6" class="c0"/>
<circle cx="848" cy="628" r="6" class="c0"/>
<circle cx="990" cy="806" r="6" class="c0"/>
<circle cx="1004" cy="822" r="6" class="c0"/>
<circle cx="910" cy="610" r="6" class="c0"/>
<circle cx="794" cy="580" r="6" class="c0"/>
<circle cx="6" cy="1036" r="6" class="c0"/>
<circle cx="866" cy="548" r="6" class="c0"/>
<circle cx="930" cy="718" r="6" class="c0"/>
<circle cx="820" cy="642" r="6" class="c0"/>
<circle cx="28" cy="718" r="6" class="c0"/>
<circle cx="854" cy="536" r="6" class="c0"/>
<circle cx="6" cy="710" r="6" class="c0"/>
<circle cx="908" cy="688" r="6" class="c0"/>
<circle cx="14" cy="788" r="6" class="c0"/>
<circle cx="942" cy="696" r="6" class="c0"/>
<circle cx="836" cy="622" r="6" class="c0"/>
<circle cx="6" cy="924" r="6" class="c0"/>
<circle cx="8" cy="830" r="6" class="c0"/>
<circle cx="24" cy="960" r="6" class="c0"/>
</svg>
