<?xml version="1.0" encoding="utf-8"?>
<svg xmlns="http://www.w3.org/2000/svg"
     xmlns:xlink="http://www.w3.org/1999/xlink" width="1920" height="1440" >

            <defs>
            <style type="text/css"><![CDATA[
circle {stroke: none;}
.c0 {fill: #FFFFFF;}
]]></style>
            </defs>
<rect x="0" y="0" width="1920" height="1440" fill="black"/>
<circle cx="1000" cy="830" r="12" class="c0"/>
<circle cx="818" cy="614" r="12" class="c0"/>
<circle cx="846" cy="594" r="12" class="c0"/>
<circle cx="814" cy="588" r="12" class="c0"/>
<circle cx="818" cy="550" r="12" class="c0"/>
<circle cx="958" cy="780" r="12" class="c0"/>
<circle cx="838" cy="644" r="12" class="c0"/>
<circle cx="876" cy="680" r="12" class="c0"/>
<circle cx="912" cy="736" r="10" class="c0"/>
<circle cx="862" cy="656" r="10" class="c0"/>
<circle cx="854" cy="620" r="10" class="c0"/>
<circle cx="830" cy="568" r="10" class="c0"/>
<circle cx="1026" cy="850" r="10" class="c0"/>
<circle cx="910" cy="710" r="10" class="c0"/>
<circle cx="982" cy="806" r="10" class="c0"/>
<circle cx="890" cy="696" r="10" class="c0"/>
<circle cx="934" cy="766" r="10" class="c0"/>
<circle cx="874" cy="644" r="10" class="c0"/>
<circle cx="924" cy="748" r="10" class="c0"/>
<circle cx="888" cy="658" r="10" class="c0"/>
<circle cx="1046" cy="866" r="8" class="c0"/>
<circle cx="898" cy="722" r="8" class="c0"/>
<circle cx="962" cy="802" r="8" class="c0"/>
<circle cx="790" cy="584" r="8" class="c0"/>
<circle cx="866" cy="606" r="8" class="c0"/>
<circle cx="974" cy="790" r="6" class="c0"/>
<circle cx="836" cy="624" r="6" class="c0"/>
<circle cx="980" cy="824" r="6" class="c0"/>
<circle cx="802" cy="604" r="6" class="c0"/>
<circle cx="856" cy="674" r="6" class="c0"/>
</svg>
