<?xml version="1.0" encoding="utf-8"?>
<svg xmlns="http://www.w3.org/2000/svg"
     xmlns:xlink="http://www.w3.org/1999/xlink" width="1920" height="1440" >

            <defs>
            <style type="text/css"><![CDATA[
circle {stroke: none;}
.c0 {fill: #FFFFFF;}
]]></style>
            </defs>
<rect x="0" y="0" width="1920" height="1440" fill="black"/>
<circle cx="936" cy="774" r="12" class="c0"/>
<circle cx="910" cy="974" r="12" class="c0"/>
<circle cx="1100" cy="502" r="12" class="c0"/>
<circle cx="1076" cy="452" r="12" class="c0"/>
<circle cx="1102" cy="580" r="12" class="c0"/>
<circle cx="1108" cy="540" r="12" class="c0"/>
<circle cx="966" cy="590" r="12" class="c0"/>
<circle cx="932" cy="832" r="12" class="c0"/>
<circle cx="956" cy="672" r="12" class="c0"/>
<circle cx="946" cy="520" r="12" class="c0"/>
<circle cx="1022" cy="758" r="12" class="c0"/>
<circle cx="906" cy="674" r="12" class="c0"/>
<circle cx="1048" cy="654" r="12" class="c0"/>
<circle cx="936" cy="556" r="12" class="c0"/>
<circle cx="838" cy="948" r="12" class="c0"/>
<circle cx="858" cy="750" r="12" class="c0"/>
<circle cx="882" cy="764" r="12" class="c0"/>
<circle cx="836" cy="862" r="12" class="c0"/>
<circle cx="820" cy="746" r="10" class="c0"/>
<circle cx="786" cy="974" r="10" class="c0"/>
<circle cx="986" cy="752" r="10" class="c0"/>
<circle cx="856" cy="834" r="10" class="c0"/>
<circle cx="1068" cy="498" r="10" class="c0"/>
<circle cx="1042" cy="582" r="10" class="c0"/>
<circle cx="862" cy="662" r="10" class="c0"/>
<circle cx="1010" cy="606" r="10" class="c0"/>
<circle cx="884" cy="652" r="10" class="c0"/>
<circle cx="974" cy="822" r="10" class="c0"/>
<circle cx="1014" cy="532" r="10" class="c0"/>
<circle cx="832" cy="712" r="10" class="c0"/>
<circle cx="1004" cy="794" r="10" class="c0"/>
<circle cx="928" cy="856" r="10" class="c0"/>
<circle cx="984" cy="914" r="10" class="c0"/>
<circle cx="782" cy="1006" r="10" class="c0"/>
<circle cx="848" cy="972" r="10" class="c0"/>
<circle cx="974" cy="532" r="10" class="c0"/>
<circle cx="940" cy="590" r="10" class="c0"/>
<circle cx="790" cy="906" r="10" class="c0"/>
<circle cx="1094" cy="464" r="10" class="c0"/>
<circle cx="1054" cy="678" r="10" class="c0"/>
<circle cx="804" cy="858" r="10" class="c0"/>
<circle cx="828" cy="806" r="10" class="c0"/>
<circle cx="958" cy="714" r="10" class="c0"/>
<circle cx="938" cy="1012" r="10" class="c0"/>
<circle cx="990" cy="478" r="10" class="c0"/>
<circle cx="808" cy="970" r="10" class="c0"/>
<circle cx="868" cy="796" r="10" class="c0"/>
<circle cx="954" cy="938" r="10" class="c0"/>
<circle cx="1050" cy="604" r="10" class="c0"/>
<circle cx="1046" cy="482" r="10" class="c0"/>
<circle cx="1068" cy="644" r="10" class="c0"/>
<circle cx="976" cy="560" r="10" class="c0"/>
<circle cx="1074" cy="686" r="10" class="c0"/>
<circle cx="980" cy="852" r="10" class="c0"/>
<circle cx="858" cy="908" r="10" class="c0"/>
<circle cx="1056" cy="744" r="10" class="c0"/>
<circle cx="788" cy="944" r="10" class="c0"/>
<circle cx="934" cy="912" r="10" class="c0"/>
<circle cx="1012" cy="730" r="10" class="c0"/>
<circle cx="952" cy="878" r="10" class="c0"/>
<circle cx="920" cy="608" r="10" class="c0"/>
<circle cx="1030" cy="840" r="10" class="c0"/>
<circle cx="896" cy="740" r="10" class="c0"/>
<circle cx="846" cy="1014" r="10" class="c0"/>
<circle cx="1086" cy="566" r="10" class="c0"/>
<circle cx="868" cy="1002" r="10" class="c0"/>
<circle cx="990" cy="888" r="10" class="c0"/>
<circle cx="1046" cy="524" r="10" class="c0"/>
<circle cx="886" cy="812" r="10" class="c0"/>
<circle cx="886" cy="900" r="10" class="c0"/>
<circle cx="1096" cy="628" r="10" class="c0"/>
<circle cx="1016" cy="566" r="10" class="c0"/>
<circle cx="992" cy="866" r="10" class="c0"/>
<circle cx="806" cy="994" r="10" class="c0"/>
<circle cx="968" cy="506" r="10" class="c0"/>
<circle cx="1046" cy="626" r="10" class="c0"/>
<circle cx="1046" cy="718" r="10" class="c0"/>
<circle cx="960" cy="648" r="10" class="c0"/>
<circle cx="1040" cy="452" r="10" class="c0"/>
<circle cx="1028" cy="876" r="10" class="c0"/>
<circle cx="862" cy="714" r="10" class="c0"/>
<circle cx="1058" cy="426" r="10" class="c0"/>
<circle cx="902" cy="1016" r="10" class="c0"/>
<circle cx="890" cy="840" r="10" class="c0"/>
<circle cx="1022" cy="634" r="10" class="c0"/>
<circle cx="1016" cy="704" r="10" class="c0"/>
<circle cx="1100" cy="438" r="10" class="c0"/>
<circle cx="812" cy="832" r="10" class="c0"/>
<circle cx="898" cy="584" r="10" class="c0"/>
<circle cx="1076" cy="522" r="10" class="c0"/>
<circle cx="1012" cy="898" r="10" class="c0"/>
<circle cx="996" cy="708" r="8" class="c0"/>
<circle cx="1008" cy="676" r="8" class="c0"/>
<circle cx="784" cy="886" r="8" class="c0"/>
<circle cx="1070" cy="582" r="8" class="c0"/>
<circle cx="988" cy="676" r="8" class="c0"/>
<circle cx="966" cy="902" r="8" class="c0"/>
<circle cx="926" cy="740" r="8" class="c0"/>
<circle cx="938" cy="726" r="8" class="c0"/>
<circle cx="854" cy="778" r="8" class="c0"/>
<circle cx="766" cy="926" r="8" class="c0"/>
<circle cx="1114" cy="478" r="8" class="c0"/>
<circle cx="968" cy="786" r="8" class="c0"/>
<circle cx="1048" cy="768" r="8" class="c0"/>
<circle cx="888" cy="622" r="8" class="c0"/>
<circle cx="966" cy="960" r="8" class="c0"/>
<circle cx="942" cy="990" r="8" class="c0"/>
<circle cx="1026" cy="500" r="8" class="c0"/>
<circle cx="1082" cy="542" r="8" class="c0"/>
<circle cx="870" cy="970" r="8" class="c0"/>
<circle cx="976" cy="630" r="8" class="c0"/>
<circle cx="866" cy="878" r="8" class="c0"/>
<circle cx="870" cy="1038" r="8" class="c0"/>
<circle cx="878" cy="950" r="8" class="c0"/>
<circle cx="920" cy="926" r="8" class="c0"/>
<circle cx="910" cy="1042" r="8" class="c0"/>
<circle cx="896" cy="938" r="8" class="c0"/>
<circle cx="938" cy="652" r="8" class="c0"/>
<circle cx="774" cy="870" r="8" class="c0"/>
<circle cx="936" cy="620" r="8" class="c0"/>
<circle cx="978" cy="970" r="8" class="c0"/>
<circle cx="970" cy="726" r="8" class="c0"/>
<circle cx="958" cy="918" r="8" class="c0"/>
<circle cx="832" cy="996" r="8" class="c0"/>
<circle cx="966" cy="756" r="8" class="c0"/>
<circle cx="798" cy="796" r="8" class="c0"/>
<circle cx="936" cy="964" r="8" class="c0"/>
<circle cx="894" cy="860" r="8" class="c0"/>
<circle cx="898" cy="920" r="8" class="c0"/>
<circle cx="876" cy="686" r="8" class="c0"/>
<circle cx="950" cy="850" r="8" class="c0"/>
<circle cx="834" cy="776" r="8" class="c0"/>
<circle cx="1070" cy="554" r="8" class="c0"/>
<circle cx="894" cy="704" r="8" class="c0"/>
<circle cx="1002" cy="582" r="8" class="c0"/>
<circle cx="874" cy="854" r="8" class="c0"/>
<circle cx="922" cy="890" r="8" class="c0"/>
<circle cx="1074" cy="600" r="8" class="c0"/>
<circle cx="816" cy="912" r="8" class="c0"/>
<circle cx="820" cy="874" r="8" class="c0"/>
<circle cx="916" cy="812" r="8" class="c0"/>
<circle cx="1050" cy="808" r="8" class="c0"/>
<circle cx="850" cy="888" r="8" class="c0"/>
<circle cx="896" cy="996" r="8" class="c0"/>
<circle cx="906" cy="642" r="8" class="c0"/>
<circle cx="1080" cy="482" r="8" class="c0"/>
<circle cx="1034" cy="696" r="8" class="c0"/>
<circle cx="956" cy="570" r="8" class="c0"/>
<circle cx="820" cy="1014" r="8" class="c0"/>
<circle cx="824" cy="844" r="8" class="c0"/>
<circle cx="996" cy="512" r="8" class="c0"/>
<circle cx="892" cy="1050" r="8" class="c0"/>
<circle cx="1006" cy="456" r="8" class="c0"/>
<circle cx="1036" cy="796" r="8" class="c0"/>
<circle cx="1058" cy="566" r="8" class="c0"/>
<circle cx="924" cy="700" r="8" class="c0"/>
<circle cx="812" cy="782" r="8" class="c0"/>
<circle cx="900" cy="790" r="8" class="c0"/>
<circle cx="978" cy="770" r="8" class="c0"/>
<circle cx="956" cy="812" r="8" class="c0"/>
<circle cx="1080" cy="656" r="8" class="c0"/>
<circle cx="872" cy="630" r="8" class="c0"/>
<circle cx="988" cy="592" r="8" class="c0"/>
<circle cx="930" cy="946" r="8" class="c0"/>
<circle cx="918" cy="998" r="8" class="c0"/>
<circle cx="1082" cy="704" r="8" class="c0"/>
<circle cx="984" cy="946" r="8" class="c0"/>
<circle cx="1096" cy="414" r="8" class="c0"/>
<circle cx="970" cy="692" r="8" class="c0"/>
<circle cx="838" cy="758" r="8" class="c0"/>
<circle cx="928" cy="578" r="8" class="c0"/>
<circle cx="982" cy="804" r="8" class="c0"/>
<circle cx="972" cy="486" r="8" class="c0"/>
<circle cx="806" cy="934" r="8" class="c0"/>
<circle cx="886" cy="876" r="8" class="c0"/>
<circle cx="990" cy="836" r="8" class="c0"/>
<circle cx="1004" cy="846" r="8" class="c0"/>
<circle cx="900" cy="612" r="8" class="c0"/>
<circle cx="950" cy="606" r="8" class="c0"/>
<circle cx="942" cy="894" r="8" class="c0"/>
<circle cx="800" cy="818" r="8" class="c0"/>
<circle cx="878" cy="920" r="8" class="c0"/>
<circle cx="980" cy="716" r="8" class="c0"/>
<circle cx="782" cy="846" r="8" class="c0"/>
<circle cx="922" cy="660" r="8" class="c0"/>
<circle cx="788" cy="828" r="8" class="c0"/>
<circle cx="772" cy="990" r="8" class="c0"/>
<circle cx="1012" cy="490" r="8" class="c0"/>
<circle cx="772" cy="954" r="8" class="c0"/>
<circle cx="1000" cy="630" r="8" class="c0"/>
<circle cx="962" cy="996" r="8" class="c0"/>
<circle cx="992" cy="652" r="8" class="c0"/>
<circle cx="1008" cy="878" r="8" class="c0"/>
<circle cx="910" cy="910" r="8" class="c0"/>
<circle cx="826" cy="928" r="8" class="c0"/>
<circle cx="842" cy="692" r="8" class="c0"/>
<circle cx="988" cy="572" r="8" class="c0"/>
<circle cx="954" cy="734" r="8" class="c0"/>
<circle cx="1100" cy="656" r="8" class="c0"/>
<circle cx="882" cy="1018" r="8" class="c0"/>
<circle cx="934" cy="690" r="8" class="c0"/>
<circle cx="904" cy="760" r="8" class="c0"/>
<circle cx="1032" cy="554" r="8" class="c0"/>
<circle cx="1066" cy="726" r="8" class="c0"/>
<circle cx="1114" cy="458" r="8" class="c0"/>
<circle cx="1028" cy="812" r="8" class="c0"/>
<circle cx="944" cy="744" r="8" class="c0"/>
<circle cx="946" cy="636" r="8" class="c0"/>
<circle cx="960" cy="860" r="8" class="c0"/>
<circle cx="858" cy="812" r="8" class="c0"/>
<circle cx="914" cy="726" r="8" class="c0"/>
<circle cx="884" cy="714" r="8" class="c0"/>
<circle cx="1000" cy="814" r="8" class="c0"/>
<circle cx="912" cy="568" r="8" class="c0"/>
<circle cx="1018" cy="472" r="8" class="c0"/>
<circle cx="1014" cy="920" r="8" class="c0"/>
<circle cx="1010" cy="658" r="8" class="c0"/>
<circle cx="886" cy="596" r="8" class="c0"/>
<circle cx="972" cy="872" r="8" class="c0"/>
<circle cx="1006" cy="772" r="8" class="c0"/>
<circle cx="1082" cy="424" r="8" class="c0"/>
<circle cx="958" cy="552" r="8" class="c0"/>
<circle cx="848" cy="930" r="8" class="c0"/>
<circle cx="990" cy="782" r="8" class="c0"/>
<circle cx="806" cy="758" r="8" class="c0"/>
<circle cx="986" cy="616" r="8" class="c0"/>
<circle cx="936" cy="810" r="8" class="c0"/>
<circle cx="1000" cy="556" r="8" class="c0"/>
<circle cx="1068" cy="770" r="8" class="c0"/>
<circle cx="798" cy="1018" r="8" class="c0"/>
<circle cx="1034" cy="740" r="8" class="c0"/>
<circle cx="910" cy="836" r="8" class="c0"/>
<circle cx="1122" cy="518" r="8" class="c0"/>
<circle cx="922" cy="628" r="6" class="c0"/>
<circle cx="822" cy="894" r="6" class="c0"/>
<circle cx="888" cy="964" r="6" class="c0"/>
<circle cx="1058" cy="786" r="6" class="c0"/>
<circle cx="1082" cy="746" r="6" class="c0"/>
<circle cx="858" cy="952" r="6" class="c0"/>
<circle cx="884" cy="984" r="6" class="c0"/>
<circle cx="1028" cy="652" r="6" class="c0"/>
<circle cx="754" cy="970" r="6" class="c0"/>
<circle cx="920" cy="794" r="6" class="c0"/>
<circle cx="1006" cy="830" r="6" class="c0"/>
<circle cx="850" cy="992" r="6" class="c0"/>
<circle cx="858" cy="640" r="6" class="c0"/>
<circle cx="1054" cy="466" r="6" class="c0"/>
<circle cx="1084" cy="720" r="6" class="c0"/>
<circle cx="860" cy="1026" r="6" class="c0"/>
<circle cx="1050" cy="832" r="6" class="c0"/>
<circle cx="924" cy="874" r="6" class="c0"/>
<circle cx="924" cy="536" r="6" class="c0"/>
<circle cx="804" cy="888" r="6" class="c0"/>
<circle cx="1030" cy="616" r="6" class="c0"/>
<circle cx="960" cy="978" r="6" class="c0"/>
<circle cx="910" cy="946" r="6" class="c0"/>
<circle cx="912" cy="710" r="6" class="c0"/>
<circle cx="962" cy="838" r="6" class="c0"/>
<circle cx="996" cy="928" r="6" class="c0"/>
<circle cx="1048" cy="504" r="6" class="c0"/>
<circle cx="1066" cy="622" r="6" class="c0"/>
<circle cx="988" cy="734" r="6" class="c0"/>
<circle cx="1058" cy="542" r="6" class="c0"/>
<circle cx="928" cy="756" r="6" class="c0"/>
<circle cx="1036" cy="858" r="6" class="c0"/>
<circle cx="1056" cy="704" r="6" class="c0"/>
<circle cx="832" cy="826" r="6" class="c0"/>
<circle cx="924" cy="1032" r="6" class="c0"/>
<circle cx="804" cy="952" r="6" class="c0"/>
<circle cx="960" cy="622" r="6" class="c0"/>
<circle cx="770" cy="906" r="6" class="c0"/>
<circle cx="1024" cy="782" r="6" class="c0"/>
<circle cx="1098" cy="608" r="6" class="c0"/>
<circle cx="1086" cy="674" r="6" class="c0"/>
<circle cx="948" cy="798" r="6" class="c0"/>
<circle cx="1024" cy="588" r="6" class="c0"/>
<circle cx="1084" cy="616" r="6" class="c0"/>
<circle cx="948" cy="540" r="6" class="c0"/>
<circle cx="830" cy="966" r="6" class="c0"/>
<circle cx="912" cy="780" r="6" class="c0"/>
<circle cx="1038" cy="434" r="6" class="c0"/>
<circle cx="1016" cy="858" r="6" class="c0"/>
<circle cx="994" cy="528" r="6" class="c0"/>
<circle cx="1018" cy="440" r="6" class="c0"/>
<circle cx="842" cy="790" r="6" class="c0"/>
<circle cx="854" cy="680" r="6" class="c0"/>
<circle cx="952" cy="828" r="6" class="c0"/>
<circle cx="1024" cy="666" r="6" class="c0"/>
<circle cx="874" cy="736" r="6" class="c0"/>
<circle cx="840" cy="898" r="6" class="c0"/>
<circle cx="842" cy="736" r="6" class="c0"/>
<circle cx="790" cy="926" r="6" class="c0"/>
<circle cx="866" cy="696" r="6" class="c0"/>
<circle cx="916" cy="550" r="6" class="c0"/>
<circle cx="1032" cy="678" r="6" class="c0"/>
<circle cx="952" cy="784" r="6" class="c0"/>
<circle cx="850" cy="726" r="6" class="c0"/>
<circle cx="944" cy="700" r="6" class="c0"/>
<circle cx="1104" cy="560" r="6" class="c0"/>
<circle cx="1092" cy="596" r="6" class="c0"/>
<circle cx="920" cy="1014" r="6" class="c0"/>
<circle cx="756" cy="916" r="6" class="c0"/>
<circle cx="950" cy="956" r="6" class="c0"/>
<circle cx="760" cy="1002" r="6" class="c0"/>
<circle cx="910" cy="868" r="6" class="c0"/>
<circle cx="824" cy="978" r="6" class="c0"/>
<circle cx="986" cy="496" r="6" class="c0"/>
<circle cx="1002" cy="692" r="6" class="c0"/>
<circle cx="950" cy="762" r="6" class="c0"/>
<circle cx="902" cy="892" r="6" class="c0"/>
<circle cx="966" cy="802" r="6" class="c0"/>
<circle cx="882" cy="786" r="6" class="c0"/>
<circle cx="832" cy="884" r="6" class="c0"/>
<circle cx="1024" cy="516" r="6" class="c0"/>
<circle cx="858" cy="864" r="6" class="c0"/>
<circle cx="974" cy="660" r="6" class="c0"/>
<circle cx="874" cy="608" r="6" class="c0"/>
<circle cx="868" cy="940" r="6" class="c0"/>
<circle cx="958" cy="770" r="6" class="c0"/>
<circle cx="898" cy="824" r="6" class="c0"/>
<circle cx="970" cy="928" r="6" class="c0"/>
<circle cx="890" cy="1032" r="6" class="c0"/>
<circle cx="916" cy="588" r="6" class="c0"/>
<circle cx="930" cy="674" r="6" class="c0"/>
<circle cx="908" cy="696" r="6" class="c0"/>
<circle cx="862" cy="984" r="6" class="c0"/>
<circle cx="832" cy="906" r="6" class="c0"/>
<circle cx="1066" cy="796" r="6" class="c0"/>
<circle cx="868" cy="894" r="6" class="c0"/>
<circle cx="1028" cy="602" r="6" class="c0"/>
<circle cx="1070" cy="668" r="6" class="c0"/>
<circle cx="1066" cy="474" r="6" class="c0"/>
<circle cx="768" cy="972" r="6" class="c0"/>
<circle cx="794" cy="872" r="6" class="c0"/>
<circle cx="920" cy="956" r="6" class="c0"/>
<circle cx="818" cy="956" r="6" class="c0"/>
<circle cx="1006" cy="748" r="6" class="c0"/>
<circle cx="878" cy="828" r="6" class="c0"/>
<circle cx="1094" cy="524" r="6" class="c0"/>
<circle cx="1020" cy="826" r="6" class="c0"/>
<circle cx="1034" cy="536" r="6" class="c0"/>
<circle cx="986" cy="696" r="6" class="c0"/>
<circle cx="986" cy="544" r="6" class="c0"/>
<circle cx="970" cy="610" r="6" class="c0"/>
<circle cx="840" cy="842" r="6" class="c0"/>
<circle cx="796" cy="772" r="6" class="c0"/>
<circle cx="828" cy="730" r="6" class="c0"/>
<circle cx="1004" cy="938" r="6" class="c0"/>
<circle cx="838" cy="918" r="6" class="c0"/>
<circle cx="1034" cy="470" r="6" class="c0"/>
<circle cx="946" cy="974" r="6" class="c0"/>
<circle cx="1122" cy="500" r="6" class="c0"/>
<circle cx="916" cy="750" r="6" class="c0"/>
<circle cx="842" cy="672" r="6" class="c0"/>
<circle cx="902" cy="956" r="6" class="c0"/>
<circle cx="1018" cy="686" r="6" class="c0"/>
<circle cx="766" cy="886" r="6" class="c0"/>
</svg>
