<?xml version="1.0" encoding="utf-8"?>
<svg xmlns="http://www.w3.org/2000/svg"
     xmlns:xlink="http://www.w3.org/1999/xlink" width="1920" height="1440" >

            <defs>
            <style type="text/css"><![CDATA[
circle {stroke: none;}
.c0 {fill: #FFFFFF;}
]]></style>
            </defs>
<rect x="0" y="0" width="1920" height="1440" fill="black"/>
<circle cx="1058" cy="524" r="12" class="c0"/>
<circle cx="870" cy="946" r="12" class="c0"/>
<circle cx="982" cy="744" r="12" class="c0"/>
<circle cx="984" cy="874" r="12" class="c0"/>
<circle cx="1010" cy="516" r="12" class="c0"/>
<circle cx="902" cy="1032" r="12" class="c0"/>
<circle cx="1014" cy="880" r="12" class="c0"/>
<circle cx="906" cy="574" r="12" class="c0"/>
<circle cx="858" cy="990" r="12" class="c0"/>
<circle cx="1028" cy="828" r="12" class="c0"/>
<circle cx="920" cy="878" r="12" class="c0"/>
<circle cx="928" cy="1024" r="12" class="c0"/>
<circle cx="994" cy="698" r="12" class="c0"/>
<circle cx="980" cy="436" r="12" class="c0"/>
<circle cx="1038" cy="798" r="12" class="c0"/>
<circle cx="872" cy="856" r="12" class="c0"/>
<circle cx="968" cy="688" r="12" class="c0"/>
<circle cx="858" cy="644" r="12" class="c0"/>
<circle cx="902" cy="804" r="12" class="c0"/>
<circle cx="926" cy="846" r="12" class="c0"/>
<circle cx="1034" cy="686" r="12" class="c0"/>
<circle cx="1006" cy="778" r="12" class="c0"/>
<circle cx="980" cy="598" r="12" class="c0"/>
<circle cx="1018" cy="456" r="12" class="c0"/>
<circle cx="1044" cy="712" r="12" class="c0"/>
<circle cx="966" cy="638" r="12" class="c0"/>
<circle cx="926" cy="720" r="12" class="c0"/>
<circle cx="1024" cy="606" r="12" class="c0"/>
<circle cx="878" cy="612" r="12" class="c0"/>
<circle cx="1046" cy="414" r="12" class="c0"/>
<circle cx="960" cy="486" r="12" class="c0"/>
<circle cx="1020" cy="736" r="10" class="c0"/>
<circle cx="948" cy="854" r="10" class="c0"/>
<circle cx="806" cy="1022" r="10" class="c0"/>
<circle cx="852" cy="888" r="10" class="c0"/>
<circle cx="988" cy="940" r="10" class="c0"/>
<circle cx="910" cy="988" r="10" class="c0"/>
<circle cx="1012" cy="486" r="10" class="c0"/>
<circle cx="876" cy="922" r="10" class="c0"/>
<circle cx="1008" cy="422" r="10" class="c0"/>
<circle cx="870" cy="1024" r="10" class="c0"/>
<circle cx="950" cy="574" r="10" class="c0"/>
<circle cx="920" cy="676" r="10" class="c0"/>
<circle cx="960" cy="978" r="10" class="c0"/>
<circle cx="962" cy="910" r="10" class="c0"/>
<circle cx="986" cy="826" r="10" class="c0"/>
<circle cx="930" cy="648" r="10" class="c0"/>
<circle cx="920" cy="904" r="10" class="c0"/>
<circle cx="842" cy="954" r="10" class="c0"/>
<circle cx="946" cy="1060" r="10" class="c0"/>
<circle cx="1056" cy="610" r="10" class="c0"/>
<circle cx="934" cy="540" r="10" class="c0"/>
<circle cx="1072" cy="648" r="10" class="c0"/>
<circle cx="822" cy="780" r="10" class="c0"/>
<circle cx="984" cy="504" r="10" class="c0"/>
<circle cx="850" cy="750" r="10" class="c0"/>
<circle cx="1040" cy="858" r="10" class="c0"/>
<circle cx="954" cy="948" r="10" class="c0"/>
<circle cx="996" cy="624" r="10" class="c0"/>
<circle cx="940" cy="596" r="10" class="c0"/>
<circle cx="912" cy="598" r="10" class="c0"/>
<circle cx="1044" cy="542" r="10" class="c0"/>
<circle cx="1076" cy="432" r="10" class="c0"/>
<circle cx="884" cy="736" r="10" class="c0"/>
<circle cx="1096" cy="448" r="10" class="c0"/>
<circle cx="900" cy="640" r="10" class="c0"/>
<circle cx="1018" cy="848" r="10" class="c0"/>
<circle cx="1038" cy="632" r="10" class="c0"/>
<circle cx="854" cy="698" r="10" class="c0"/>
<circle cx="932" cy="922" r="10" class="c0"/>
<circle cx="962" cy="814" r="10" class="c0"/>
<circle cx="820" cy="876" r="10" class="c0"/>
<circle cx="828" cy="1040" r="10" class="c0"/>
<circle cx="968" cy="1016" r="10" class="c0"/>
<circle cx="1032" cy="926" r="10" class="c0"/>
<circle cx="1064" cy="782" r="10" class="c0"/>
<circle cx="1042" cy="664" r="10" class="c0"/>
<circle cx="1086" cy="552" r="10" class="c0"/>
<circle cx="994" cy="668" r="10" class="c0"/>
<circle cx="906" cy="710" r="10" class="c0"/>
<circle cx="1018" cy="566" r="10" class="c0"/>
<circle cx="940" cy="994" r="10" class="c0"/>
<circle cx="820" cy="988" r="10" class="c0"/>
<circle cx="854" cy="782" r="10" class="c0"/>
<circle cx="918" cy="760" r="10" class="c0"/>
<circle cx="984" cy="474" r="10" class="c0"/>
<circle cx="954" cy="1032" r="10" class="c0"/>
<circle cx="952" cy="736" r="10" class="c0"/>
<circle cx="890" cy="956" r="10" class="c0"/>
<circle cx="1000" cy="810" r="10" class="c0"/>
<circle cx="864" cy="716" r="10" class="c0"/>
<circle cx="898" cy="920" r="10" class="c0"/>
<circle cx="894" cy="830" r="10" class="c0"/>
<circle cx="1026" cy="644" r="10" class="c0"/>
<circle cx="1030" cy="476" r="10" class="c0"/>
<circle cx="970" cy="842" r="10" class="c0"/>
<circle cx="1022" cy="758" r="10" class="c0"/>
<circle cx="876" cy="678" r="10" class="c0"/>
<circle cx="852" cy="1042" r="10" class="c0"/>
<circle cx="904" cy="944" r="10" class="c0"/>
<circle cx="836" cy="1016" r="10" class="c0"/>
<circle cx="926" cy="560" r="10" class="c0"/>
<circle cx="986" cy="910" r="10" class="c0"/>
<circle cx="1082" cy="618" r="10" class="c0"/>
<circle cx="1070" cy="576" r="10" class="c0"/>
<circle cx="1040" cy="514" r="8" class="c0"/>
<circle cx="894" cy="754" r="8" class="c0"/>
<circle cx="928" cy="520" r="8" class="c0"/>
<circle cx="920" cy="618" r="8" class="c0"/>
<circle cx="944" cy="762" r="8" class="c0"/>
<circle cx="878" cy="892" r="8" class="c0"/>
<circle cx="872" cy="976" r="8" class="c0"/>
<circle cx="964" cy="774" r="8" class="c0"/>
<circle cx="826" cy="846" r="8" class="c0"/>
<circle cx="968" cy="720" r="8" class="c0"/>
<circle cx="914" cy="964" r="8" class="c0"/>
<circle cx="826" cy="802" r="8" class="c0"/>
<circle cx="1074" cy="490" r="8" class="c0"/>
<circle cx="882" cy="992" r="8" class="c0"/>
<circle cx="1008" cy="952" r="8" class="c0"/>
<circle cx="982" cy="962" r="8" class="c0"/>
<circle cx="968" cy="794" r="8" class="c0"/>
<circle cx="1050" cy="570" r="8" class="c0"/>
<circle cx="834" cy="918" r="8" class="c0"/>
<circle cx="1010" cy="920" r="8" class="c0"/>
<circle cx="1074" cy="462" r="8" class="c0"/>
<circle cx="894" cy="782" r="8" class="c0"/>
<circle cx="1074" cy="706" r="8" class="c0"/>
<circle cx="904" cy="544" r="8" class="c0"/>
<circle cx="866" cy="802" r="8" class="c0"/>
<circle cx="960" cy="606" r="8" class="c0"/>
<circle cx="932" cy="1048" r="8" class="c0"/>
<circle cx="892" cy="1008" r="8" class="c0"/>
<circle cx="992" cy="568" r="8" class="c0"/>
<circle cx="982" cy="526" r="8" class="c0"/>
<circle cx="852" cy="816" r="8" class="c0"/>
<circle cx="814" cy="926" r="8" class="c0"/>
<circle cx="1080" cy="526" r="8" class="c0"/>
<circle cx="812" cy="956" r="8" class="c0"/>
<circle cx="1012" cy="588" r="8" class="c0"/>
<circle cx="1028" cy="896" r="8" class="c0"/>
<circle cx="822" cy="822" r="8" class="c0"/>
<circle cx="1058" cy="834" r="8" class="c0"/>
<circle cx="900" cy="690" r="8" class="c0"/>
<circle cx="1052" cy="742" r="8" class="c0"/>
<circle cx="1026" cy="502" r="8" class="c0"/>
<circle cx="962" cy="544" r="8" class="c0"/>
<circle cx="1090" cy="480" r="8" class="c0"/>
<circle cx="876" cy="700" r="8" class="c0"/>
<circle cx="986" cy="1028" r="8" class="c0"/>
<circle cx="834" cy="760" r="8" class="c0"/>
<circle cx="936" cy="824" r="8" class="c0"/>
<circle cx="980" cy="992" r="8" class="c0"/>
<circle cx="992" cy="1004" r="8" class="c0"/>
<circle cx="898" cy="874" r="8" class="c0"/>
<circle cx="912" cy="1008" r="8" class="c0"/>
<circle cx="996" cy="726" r="8" class="c0"/>
<circle cx="966" cy="456" r="8" class="c0"/>
<circle cx="848" cy="844" r="8" class="c0"/>
<circle cx="804" cy="896" r="8" class="c0"/>
<circle cx="1020" cy="398" r="8" class="c0"/>
<circle cx="946" cy="524" r="8" class="c0"/>
<circle cx="958" cy="1072" r="8" class="c0"/>
<circle cx="850" cy="672" r="8" class="c0"/>
<circle cx="1052" cy="442" r="8" class="c0"/>
<circle cx="946" cy="890" r="8" class="c0"/>
<circle cx="808" cy="842" r="8" class="c0"/>
<circle cx="932" cy="962" r="8" class="c0"/>
<circle cx="944" cy="468" r="8" class="c0"/>
<circle cx="942" cy="636" r="8" class="c0"/>
<circle cx="940" cy="506" r="8" class="c0"/>
<circle cx="856" cy="914" r="8" class="c0"/>
<circle cx="966" cy="1054" r="8" class="c0"/>
<circle cx="854" cy="932" r="8" class="c0"/>
<circle cx="1092" cy="582" r="8" class="c0"/>
<circle cx="844" cy="862" r="8" class="c0"/>
<circle cx="1010" cy="656" r="8" class="c0"/>
<circle cx="916" cy="828" r="8" class="c0"/>
<circle cx="1026" cy="948" r="8" class="c0"/>
<circle cx="870" cy="828" r="8" class="c0"/>
<circle cx="940" cy="664" r="8" class="c0"/>
<circle cx="874" cy="774" r="8" class="c0"/>
<circle cx="1080" cy="688" r="8" class="c0"/>
<circle cx="942" cy="800" r="8" class="c0"/>
<circle cx="1058" cy="810" r="8" class="c0"/>
<circle cx="1076" cy="758" r="8" class="c0"/>
<circle cx="1012" cy="544" r="8" class="c0"/>
<circle cx="1050" cy="462" r="8" class="c0"/>
<circle cx="1046" cy="762" r="8" class="c0"/>
<circle cx="1002" cy="836" r="8" class="c0"/>
<circle cx="896" cy="660" r="8" class="c0"/>
<circle cx="1016" cy="626" r="8" class="c0"/>
<circle cx="974" cy="562" r="8" class="c0"/>
<circle cx="880" cy="1044" r="8" class="c0"/>
<circle cx="826" cy="968" r="8" class="c0"/>
<circle cx="958" cy="660" r="8" class="c0"/>
<circle cx="1050" cy="490" r="8" class="c0"/>
<circle cx="934" cy="692" r="8" class="c0"/>
<circle cx="986" cy="544" r="8" class="c0"/>
<circle cx="1000" cy="974" r="8" class="c0"/>
<circle cx="910" cy="526" r="8" class="c0"/>
<circle cx="998" cy="448" r="8" class="c0"/>
<circle cx="952" cy="700" r="8" class="c0"/>
<circle cx="1062" cy="674" r="8" class="c0"/>
<circle cx="1000" cy="894" r="8" class="c0"/>
<circle cx="920" cy="794" r="8" class="c0"/>
<circle cx="820" cy="904" r="8" class="c0"/>
<circle cx="938" cy="616" r="8" class="c0"/>
<circle cx="838" cy="730" r="8" class="c0"/>
<circle cx="988" cy="852" r="8" class="c0"/>
<circle cx="960" cy="876" r="8" class="c0"/>
<circle cx="910" cy="738" r="8" class="c0"/>
<circle cx="974" cy="924" r="8" class="c0"/>
<circle cx="1042" cy="878" r="8" class="c0"/>
<circle cx="1066" cy="722" r="8" class="c0"/>
<circle cx="834" cy="702" r="8" class="c0"/>
<circle cx="904" cy="856" r="8" class="c0"/>
<circle cx="842" cy="978" r="8" class="c0"/>
<circle cx="1010" cy="678" r="8" class="c0"/>
<circle cx="856" cy="966" r="8" class="c0"/>
<circle cx="1022" cy="532" r="8" class="c0"/>
<circle cx="894" cy="590" r="8" class="c0"/>
<circle cx="872" cy="748" r="8" class="c0"/>
<circle cx="1020" cy="700" r="8" class="c0"/>
<circle cx="1080" cy="594" r="8" class="c0"/>
<circle cx="842" cy="794" r="8" class="c0"/>
<circle cx="1032" cy="436" r="8" class="c0"/>
<circle cx="984" cy="766" r="8" class="c0"/>
<circle cx="1050" cy="644" r="8" class="c0"/>
<circle cx="996" cy="646" r="8" class="c0"/>
<circle cx="914" cy="1056" r="8" class="c0"/>
<circle cx="1056" cy="392" r="8" class="c0"/>
<circle cx="866" cy="904" r="8" class="c0"/>
<circle cx="962" cy="586" r="8" class="c0"/>
<circle cx="840" cy="826" r="8" class="c0"/>
<circle cx="978" cy="658" r="8" class="c0"/>
<circle cx="900" cy="618" r="8" class="c0"/>
<circle cx="1082" cy="668" r="8" class="c0"/>
<circle cx="822" cy="744" r="8" class="c0"/>
<circle cx="902" cy="894" r="8" class="c0"/>
<circle cx="918" cy="508" r="8" class="c0"/>
<circle cx="884" cy="794" r="8" class="c0"/>
<circle cx="1088" cy="638" r="8" class="c0"/>
<circle cx="944" cy="682" r="8" class="c0"/>
<circle cx="1094" cy="516" r="8" class="c0"/>
<circle cx="888" cy="564" r="8" class="c0"/>
<circle cx="928" cy="582" r="8" class="c0"/>
<circle cx="1006" cy="860" r="8" class="c0"/>
<circle cx="894" cy="1060" r="8" class="c0"/>
<circle cx="1032" cy="580" r="8" class="c0"/>
<circle cx="966" cy="512" r="8" class="c0"/>
<circle cx="992" cy="408" r="8" class="c0"/>
<circle cx="1064" cy="554" r="8" class="c0"/>
<circle cx="956" cy="1004" r="8" class="c0"/>
<circle cx="974" cy="896" r="8" class="c0"/>
<circle cx="1062" cy="452" r="8" class="c0"/>
<circle cx="800" cy="978" r="8" class="c0"/>
<circle cx="798" cy="878" r="8" class="c0"/>
<circle cx="1044" cy="594" r="8" class="c0"/>
<circle cx="830" cy="938" r="8" class="c0"/>
<circle cx="930" cy="742" r="8" class="c0"/>
<circle cx="886" cy="712" r="8" class="c0"/>
<circle cx="1060" cy="478" r="8" class="c0"/>
<circle cx="876" cy="634" r="8" class="c0"/>
<circle cx="804" cy="940" r="8" class="c0"/>
<circle cx="1002" cy="578" r="8" class="c0"/>
<circle cx="1070" cy="508" r="8" class="c0"/>
<circle cx="948" cy="782" r="8" class="c0"/>
<circle cx="1058" cy="692" r="8" class="c0"/>
<circle cx="880" cy="818" r="8" class="c0"/>
<circle cx="980" cy="784" r="8" class="c0"/>
<circle cx="952" cy="928" r="8" class="c0"/>
<circle cx="998" cy="756" r="8" class="c0"/>
<circle cx="1016" cy="716" r="6" class="c0"/>
<circle cx="1016" cy="800" r="6" class="c0"/>
<circle cx="1062" cy="630" r="6" class="c0"/>
<circle cx="1072" cy="404" r="6" class="c0"/>
<circle cx="960" cy="758" r="6" class="c0"/>
<circle cx="882" cy="652" r="6" class="c0"/>
<circle cx="1000" cy="554" r="6" class="c0"/>
<circle cx="806" cy="1042" r="6" class="c0"/>
<circle cx="946" cy="556" r="6" class="c0"/>
<circle cx="1084" cy="730" r="6" class="c0"/>
<circle cx="928" cy="780" r="6" class="c0"/>
<circle cx="888" cy="904" r="6" class="c0"/>
<circle cx="894" cy="974" r="6" class="c0"/>
<circle cx="924" cy="976" r="6" class="c0"/>
<circle cx="926" cy="942" r="6" class="c0"/>
<circle cx="874" cy="660" r="6" class="c0"/>
<circle cx="856" cy="732" r="6" class="c0"/>
<circle cx="1002" cy="990" r="6" class="c0"/>
<circle cx="952" cy="832" r="6" class="c0"/>
<circle cx="1070" cy="740" r="6" class="c0"/>
<circle cx="1090" cy="500" r="6" class="c0"/>
<circle cx="942" cy="1012" r="6" class="c0"/>
<circle cx="806" cy="1000" r="6" class="c0"/>
<circle cx="876" cy="588" r="6" class="c0"/>
<circle cx="1016" cy="938" r="6" class="c0"/>
<circle cx="912" cy="780" r="6" class="c0"/>
<circle cx="1038" cy="392" r="6" class="c0"/>
<circle cx="880" cy="874" r="6" class="c0"/>
<circle cx="914" cy="658" r="6" class="c0"/>
<circle cx="936" cy="486" r="6" class="c0"/>
<circle cx="838" cy="900" r="6" class="c0"/>
<circle cx="796" cy="912" r="6" class="c0"/>
<circle cx="862" cy="764" r="6" class="c0"/>
<circle cx="942" cy="974" r="6" class="c0"/>
<circle cx="1048" cy="894" r="6" class="c0"/>
<circle cx="954" cy="622" r="6" class="c0"/>
<circle cx="1004" cy="604" r="6" class="c0"/>
<circle cx="810" cy="806" r="6" class="c0"/>
<circle cx="806" cy="826" r="6" class="c0"/>
<circle cx="926" cy="814" r="6" class="c0"/>
<circle cx="1056" cy="870" r="6" class="c0"/>
<circle cx="1020" cy="910" r="6" class="c0"/>
<circle cx="984" cy="800" r="6" class="c0"/>
<circle cx="1004" cy="468" r="6" class="c0"/>
<circle cx="956" cy="434" r="6" class="c0"/>
<circle cx="984" cy="716" r="6" class="c0"/>
<circle cx="998" cy="530" r="6" class="c0"/>
<circle cx="810" cy="858" r="6" class="c0"/>
<circle cx="918" cy="636" r="6" class="c0"/>
<circle cx="1060" cy="592" r="6" class="c0"/>
<circle cx="836" cy="996" r="6" class="c0"/>
<circle cx="1060" cy="850" r="6" class="c0"/>
<circle cx="1020" cy="668" r="6" class="c0"/>
<circle cx="1036" cy="776" r="6" class="c0"/>
<circle cx="940" cy="872" r="6" class="c0"/>
<circle cx="948" cy="716" r="6" class="c0"/>
<circle cx="900" cy="728" r="6" class="c0"/>
<circle cx="1044" cy="818" r="6" class="c0"/>
<circle cx="816" cy="760" r="6" class="c0"/>
<circle cx="1066" cy="418" r="6" class="c0"/>
<circle cx="982" cy="578" r="6" class="c0"/>
<circle cx="1094" cy="606" r="6" class="c0"/>
<circle cx="1036" cy="744" r="6" class="c0"/>
<circle cx="1068" cy="820" r="6" class="c0"/>
<circle cx="978" cy="620" r="6" class="c0"/>
<circle cx="1038" cy="452" r="6" class="c0"/>
<circle cx="830" cy="890" r="6" class="c0"/>
<circle cx="840" cy="686" r="6" class="c0"/>
<circle cx="972" cy="950" r="6" class="c0"/>
<circle cx="796" cy="960" r="6" class="c0"/>
<circle cx="940" cy="906" r="6" class="c0"/>
<circle cx="1068" cy="800" r="6" class="c0"/>
<circle cx="916" cy="694" r="6" class="c0"/>
<circle cx="976" cy="414" r="6" class="c0"/>
<circle cx="966" cy="860" r="6" class="c0"/>
<circle cx="838" cy="878" r="6" class="c0"/>
<circle cx="1042" cy="906" r="6" class="c0"/>
<circle cx="1090" cy="420" r="6" class="c0"/>
<circle cx="1026" cy="420" r="6" class="c0"/>
<circle cx="818" cy="1006" r="6" class="c0"/>
<circle cx="870" cy="1004" r="6" class="c0"/>
<circle cx="1028" cy="550" r="6" class="c0"/>
<circle cx="886" cy="936" r="6" class="c0"/>
<circle cx="994" cy="488" r="6" class="c0"/>
<circle cx="866" cy="878" r="6" class="c0"/>
<circle cx="928" cy="1066" r="6" class="c0"/>
<circle cx="846" cy="714" r="6" class="c0"/>
<circle cx="964" cy="528" r="6" class="c0"/>
<circle cx="862" cy="624" r="6" class="c0"/>
<circle cx="856" cy="1012" r="6" class="c0"/>
<circle cx="1096" cy="534" r="6" class="c0"/>
<circle cx="916" cy="932" r="6" class="c0"/>
<circle cx="858" cy="870" r="6" class="c0"/>
<circle cx="904" cy="772" r="6" class="c0"/>
<circle cx="1040" cy="560" r="6" class="c0"/>
<circle cx="1016" cy="968" r="6" class="c0"/>
<circle cx="862" cy="1056" r="6" class="c0"/>
<circle cx="1072" cy="540" r="6" class="c0"/>
<circle cx="948" cy="452" r="6" class="c0"/>
<circle cx="794" cy="928" r="6" class="c0"/>
<circle cx="1042" cy="840" r="6" class="c0"/>
<circle cx="1060" cy="374" r="6" class="c0"/>
<circle cx="928" cy="494" r="6" class="c0"/>
<circle cx="1024" cy="786" r="6" class="c0"/>
<circle cx="994" cy="792" r="6" class="c0"/>
<circle cx="884" cy="580" r="6" class="c0"/>
<circle cx="1042" cy="732" r="6" class="c0"/>
<circle cx="884" cy="764" r="6" class="c0"/>
<circle cx="788" cy="888" r="6" class="c0"/>
<circle cx="890" cy="848" r="6" class="c0"/>
<circle cx="828" cy="718" r="6" class="c0"/>
<circle cx="1092" cy="654" r="6" class="c0"/>
<circle cx="976" cy="706" r="6" class="c0"/>
<circle cx="972" cy="1038" r="6" class="c0"/>
<circle cx="940" cy="938" r="6" class="c0"/>
</svg>
