<?xml version="1.0" encoding="utf-8"?>
<svg xmlns="http://www.w3.org/2000/svg"
     xmlns:xlink="http://www.w3.org/1999/xlink" width="1920" height="1440" >

            <defs>
            <style type="text/css"><![CDATA[
circle {stroke: none;}
.c0 {fill: #FFFFFF;}
]]></style>
            </defs>
<rect x="0" y="0" width="1920" height="1440" fill="black"/>
<circle cx="1048" cy="852" r="12" class="c0"/>
<circle cx="754" cy="588" r="12" class="c0"/>
<circle cx="986" cy="572" r="12" class="c0"/>
<circle cx="1168" cy="800" r="12" class="c0"/>
<circle cx="1046" cy="900" r="12" class="c0"/>
<circle cx="1244" cy="908" r="12" class="c0"/>
<circle cx="1106" cy="986" r="12" class="c0"/>
<circle cx="1160" cy="954" r="12" class="c0"/>
<circle cx="864" cy="768" r="12" class="c0"/>
<circle cx="882" cy="586" r="12" class="c0"/>
<circle cx="1216" cy="1022" r="12" class="c0"/>
<circle cx="904" cy="666" r="12" class="c0"/>
<circle cx="1024" cy="772" r="12" class="c0"/>
<circle cx="944" cy="572" r="12" class="c0"/>
<circle cx="1210" cy="902" r="12" class="c0"/>
<circle cx="1178" cy="970" r="12" class="c0"/>
<circle cx="1068" cy="832" r="12" class="c0"/>
<circle cx="988" cy="682" r="12" class="c0"/>
<circle cx="1146" cy="932" r="12" class="c0"/>
<circle cx="848" cy="460" r="12" class="c0"/>
<circle cx="1036" cy="670" r="12" class="c0"/>
<circle cx="864" cy="704" r="12" class="c0"/>
<circle cx="738" cy="512" r="12" class="c0"/>
<circle cx="836" cy="682" r="12" class="c0"/>
<circle cx="952" cy="634" r="12" class="c0"/>
<circle cx="1038" cy="640" r="12" class="c0"/>
<circle cx="1046" cy="968" r="12" class="c0"/>
<circle cx="1196" cy="956" r="12" class="c0"/>
<circle cx="1010" cy="758" r="12" class="c0"/>
<circle cx="980" cy="876" r="12" class="c0"/>
<circle cx="960" cy="684" r="12" class="c0"/>
<circle cx="1002" cy="958" r="12" class="c0"/>
<circle cx="1180" cy="934" r="10" class="c0"/>
<circle cx="1242" cy="970" r="10" class="c0"/>
<circle cx="820" cy="446" r="10" class="c0"/>
<circle cx="886" cy="812" r="10" class="c0"/>
<circle cx="1118" cy="834" r="10" class="c0"/>
<circle cx="1014" cy="734" r="10" class="c0"/>
<circle cx="742" cy="384" r="10" class="c0"/>
<circle cx="1046" cy="996" r="10" class="c0"/>
<circle cx="832" cy="734" r="10" class="c0"/>
<circle cx="900" cy="732" r="10" class="c0"/>
<circle cx="1068" cy="714" r="10" class="c0"/>
<circle cx="1018" cy="912" r="10" class="c0"/>
<circle cx="764" cy="528" r="10" class="c0"/>
<circle cx="926" cy="688" r="10" class="c0"/>
<circle cx="960" cy="746" r="10" class="c0"/>
<circle cx="1036" cy="822" r="10" class="c0"/>
<circle cx="932" cy="654" r="10" class="c0"/>
<circle cx="986" cy="766" r="10" class="c0"/>
<circle cx="886" cy="614" r="10" class="c0"/>
<circle cx="1106" cy="884" r="10" class="c0"/>
<circle cx="886" cy="528" r="10" class="c0"/>
<circle cx="1100" cy="696" r="10" class="c0"/>
<circle cx="996" cy="704" r="10" class="c0"/>
<circle cx="1136" cy="858" r="10" class="c0"/>
<circle cx="1012" cy="646" r="10" class="c0"/>
<circle cx="730" cy="454" r="10" class="c0"/>
<circle cx="1080" cy="918" r="10" class="c0"/>
<circle cx="720" cy="498" r="10" class="c0"/>
<circle cx="930" cy="718" r="10" class="c0"/>
<circle cx="858" cy="430" r="10" class="c0"/>
<circle cx="1200" cy="980" r="10" class="c0"/>
<circle cx="1044" cy="734" r="10" class="c0"/>
<circle cx="938" cy="860" r="10" class="c0"/>
<circle cx="1184" cy="1010" r="10" class="c0"/>
<circle cx="1244" cy="1000" r="10" class="c0"/>
<circle cx="978" cy="826" r="10" class="c0"/>
<circle cx="988" cy="920" r="10" class="c0"/>
<circle cx="980" cy="624" r="10" class="c0"/>
<circle cx="780" cy="492" r="10" class="c0"/>
<circle cx="1082" cy="890" r="10" class="c0"/>
<circle cx="1266" cy="974" r="10" class="c0"/>
<circle cx="1004" cy="804" r="10" class="c0"/>
<circle cx="1178" cy="874" r="10" class="c0"/>
<circle cx="1146" cy="772" r="10" class="c0"/>
<circle cx="838" cy="650" r="10" class="c0"/>
<circle cx="1160" cy="1076" r="10" class="c0"/>
<circle cx="864" cy="502" r="10" class="c0"/>
<circle cx="830" cy="402" r="10" class="c0"/>
<circle cx="1044" cy="616" r="10" class="c0"/>
<circle cx="822" cy="582" r="10" class="c0"/>
<circle cx="992" cy="856" r="10" class="c0"/>
<circle cx="970" cy="904" r="10" class="c0"/>
<circle cx="1078" cy="966" r="10" class="c0"/>
<circle cx="1204" cy="838" r="10" class="c0"/>
<circle cx="788" cy="416" r="10" class="c0"/>
<circle cx="906" cy="498" r="10" class="c0"/>
<circle cx="794" cy="644" r="10" class="c0"/>
<circle cx="1074" cy="792" r="10" class="c0"/>
<circle cx="1166" cy="1052" r="10" class="c0"/>
<circle cx="862" cy="642" r="10" class="c0"/>
<circle cx="1086" cy="728" r="10" class="c0"/>
<circle cx="1202" cy="1038" r="10" class="c0"/>
<circle cx="1168" cy="844" r="10" class="c0"/>
<circle cx="988" cy="726" r="10" class="c0"/>
<circle cx="1150" cy="880" r="10" class="c0"/>
<circle cx="778" cy="596" r="10" class="c0"/>
<circle cx="952" cy="608" r="10" class="c0"/>
<circle cx="1138" cy="1070" r="10" class="c0"/>
<circle cx="1034" cy="752" r="10" class="c0"/>
<circle cx="838" cy="518" r="10" class="c0"/>
<circle cx="916" cy="848" r="10" class="c0"/>
<circle cx="1074" cy="676" r="10" class="c0"/>
<circle cx="782" cy="386" r="10" class="c0"/>
<circle cx="1124" cy="1048" r="10" class="c0"/>
<circle cx="1024" cy="944" r="10" class="c0"/>
<circle cx="962" cy="724" r="10" class="c0"/>
<circle cx="1220" cy="940" r="10" class="c0"/>
<circle cx="1058" cy="876" r="10" class="c0"/>
<circle cx="1082" cy="860" r="10" class="c0"/>
<circle cx="1144" cy="818" r="10" class="c0"/>
<circle cx="1226" cy="874" r="10" class="c0"/>
<circle cx="934" cy="890" r="10" class="c0"/>
<circle cx="1070" cy="766" r="10" class="c0"/>
<circle cx="938" cy="536" r="10" class="c0"/>
<circle cx="736" cy="408" r="10" class="c0"/>
<circle cx="946" cy="516" r="10" class="c0"/>
<circle cx="840" cy="758" r="8" class="c0"/>
<circle cx="1112" cy="770" r="8" class="c0"/>
<circle cx="930" cy="760" r="8" class="c0"/>
<circle cx="1014" cy="880" r="8" class="c0"/>
<circle cx="954" cy="768" r="8" class="c0"/>
<circle cx="1174" cy="908" r="8" class="c0"/>
<circle cx="908" cy="796" r="8" class="c0"/>
<circle cx="878" cy="668" r="8" class="c0"/>
<circle cx="794" cy="694" r="8" class="c0"/>
<circle cx="852" cy="568" r="8" class="c0"/>
<circle cx="784" cy="552" r="8" class="c0"/>
<circle cx="1016" cy="624" r="8" class="c0"/>
<circle cx="914" cy="518" r="8" class="c0"/>
<circle cx="1130" cy="954" r="8" class="c0"/>
<circle cx="1048" cy="944" r="8" class="c0"/>
<circle cx="798" cy="478" r="8" class="c0"/>
<circle cx="932" cy="802" r="8" class="c0"/>
<circle cx="1130" cy="982" r="8" class="c0"/>
<circle cx="916" cy="590" r="8" class="c0"/>
<circle cx="772" cy="404" r="8" class="c0"/>
<circle cx="808" cy="566" r="8" class="c0"/>
<circle cx="1110" cy="808" r="8" class="c0"/>
<circle cx="884" cy="492" r="8" class="c0"/>
<circle cx="1082" cy="1008" r="8" class="c0"/>
<circle cx="1218" cy="1050" r="8" class="c0"/>
<circle cx="864" cy="680" r="8" class="c0"/>
<circle cx="1202" cy="1000" r="8" class="c0"/>
<circle cx="1060" cy="984" r="8" class="c0"/>
<circle cx="852" cy="746" r="8" class="c0"/>
<circle cx="1016" cy="680" r="8" class="c0"/>
<circle cx="836" cy="430" r="8" class="c0"/>
<circle cx="946" cy="840" r="8" class="c0"/>
<circle cx="1016" cy="862" r="8" class="c0"/>
<circle cx="802" cy="436" r="8" class="c0"/>
<circle cx="822" cy="666" r="8" class="c0"/>
<circle cx="1110" cy="788" r="8" class="c0"/>
<circle cx="968" cy="784" r="8" class="c0"/>
<circle cx="1070" cy="1026" r="8" class="c0"/>
<circle cx="918" cy="632" r="8" class="c0"/>
<circle cx="824" cy="602" r="8" class="c0"/>
<circle cx="778" cy="472" r="8" class="c0"/>
<circle cx="1128" cy="886" r="8" class="c0"/>
<circle cx="812" cy="496" r="8" class="c0"/>
<circle cx="716" cy="422" r="8" class="c0"/>
<circle cx="770" cy="452" r="8" class="c0"/>
<circle cx="904" cy="564" r="8" class="c0"/>
<circle cx="896" cy="698" r="8" class="c0"/>
<circle cx="896" cy="476" r="8" class="c0"/>
<circle cx="1086" cy="780" r="8" class="c0"/>
<circle cx="810" cy="400" r="8" class="c0"/>
<circle cx="930" cy="828" r="8" class="c0"/>
<circle cx="748" cy="472" r="8" class="c0"/>
<circle cx="996" cy="892" r="8" class="c0"/>
<circle cx="978" cy="544" r="8" class="c0"/>
<circle cx="792" cy="610" r="8" class="c0"/>
<circle cx="822" cy="716" r="8" class="c0"/>
<circle cx="1032" cy="872" r="8" class="c0"/>
<circle cx="852" cy="662" r="8" class="c0"/>
<circle cx="1112" cy="1026" r="8" class="c0"/>
<circle cx="1184" cy="834" r="8" class="c0"/>
<circle cx="1112" cy="708" r="8" class="c0"/>
<circle cx="974" cy="806" r="8" class="c0"/>
<circle cx="982" cy="648" r="8" class="c0"/>
<circle cx="968" cy="660" r="8" class="c0"/>
<circle cx="756" cy="416" r="8" class="c0"/>
<circle cx="1016" cy="714" r="8" class="c0"/>
<circle cx="1122" cy="726" r="8" class="c0"/>
<circle cx="1124" cy="904" r="8" class="c0"/>
<circle cx="1134" cy="1028" r="8" class="c0"/>
<circle cx="1018" cy="980" r="8" class="c0"/>
<circle cx="1192" cy="912" r="8" class="c0"/>
<circle cx="1192" cy="892" r="8" class="c0"/>
<circle cx="868" cy="804" r="8" class="c0"/>
<circle cx="1196" cy="1062" r="8" class="c0"/>
<circle cx="1202" cy="882" r="8" class="c0"/>
<circle cx="746" cy="428" r="8" class="c0"/>
<circle cx="872" cy="444" r="8" class="c0"/>
<circle cx="1168" cy="992" r="8" class="c0"/>
<circle cx="1012" cy="828" r="8" class="c0"/>
<circle cx="1140" cy="748" r="8" class="c0"/>
<circle cx="810" cy="548" r="8" class="c0"/>
<circle cx="1058" cy="746" r="8" class="c0"/>
<circle cx="1114" cy="914" r="8" class="c0"/>
<circle cx="876" cy="748" r="8" class="c0"/>
<circle cx="842" cy="620" r="8" class="c0"/>
<circle cx="1094" cy="756" r="8" class="c0"/>
<circle cx="1152" cy="976" r="8" class="c0"/>
<circle cx="1048" cy="712" r="8" class="c0"/>
<circle cx="764" cy="432" r="8" class="c0"/>
<circle cx="826" cy="476" r="8" class="c0"/>
<circle cx="1156" cy="912" r="8" class="c0"/>
<circle cx="852" cy="604" r="8" class="c0"/>
<circle cx="888" cy="638" r="8" class="c0"/>
<circle cx="840" cy="594" r="8" class="c0"/>
<circle cx="1158" cy="1028" r="8" class="c0"/>
<circle cx="952" cy="876" r="8" class="c0"/>
<circle cx="766" cy="608" r="8" class="c0"/>
<circle cx="998" cy="594" r="8" class="c0"/>
<circle cx="810" cy="626" r="8" class="c0"/>
<circle cx="1028" cy="796" r="8" class="c0"/>
<circle cx="1152" cy="1000" r="8" class="c0"/>
<circle cx="784" cy="530" r="8" class="c0"/>
<circle cx="820" cy="532" r="8" class="c0"/>
<circle cx="972" cy="932" r="8" class="c0"/>
<circle cx="1010" cy="932" r="8" class="c0"/>
<circle cx="1022" cy="588" r="8" class="c0"/>
<circle cx="904" cy="864" r="8" class="c0"/>
<circle cx="932" cy="496" r="8" class="c0"/>
<circle cx="1092" cy="946" r="8" class="c0"/>
<circle cx="1072" cy="996" r="8" class="c0"/>
<circle cx="752" cy="552" r="8" class="c0"/>
<circle cx="1120" cy="746" r="8" class="c0"/>
<circle cx="1210" cy="858" r="8" class="c0"/>
<circle cx="712" cy="468" r="8" class="c0"/>
<circle cx="1118" cy="868" r="8" class="c0"/>
<circle cx="742" cy="566" r="8" class="c0"/>
<circle cx="698" cy="434" r="8" class="c0"/>
<circle cx="940" cy="738" r="8" class="c0"/>
<circle cx="846" cy="716" r="8" class="c0"/>
<circle cx="1114" cy="946" r="8" class="c0"/>
<circle cx="882" cy="782" r="8" class="c0"/>
<circle cx="1234" cy="1034" r="8" class="c0"/>
<circle cx="1094" cy="832" r="8" class="c0"/>
<circle cx="884" cy="712" r="8" class="c0"/>
<circle cx="862" cy="556" r="8" class="c0"/>
<circle cx="1026" cy="690" r="8" class="c0"/>
<circle cx="900" cy="598" r="8" class="c0"/>
<circle cx="874" cy="468" r="8" class="c0"/>
<circle cx="1170" cy="776" r="8" class="c0"/>
<circle cx="1140" cy="964" r="8" class="c0"/>
<circle cx="900" cy="544" r="8" class="c0"/>
<circle cx="1092" cy="1022" r="8" class="c0"/>
<circle cx="1188" cy="808" r="8" class="c0"/>
<circle cx="1230" cy="986" r="8" class="c0"/>
<circle cx="1034" cy="928" r="8" class="c0"/>
<circle cx="1228" cy="920" r="8" class="c0"/>
<circle cx="958" cy="818" r="8" class="c0"/>
<circle cx="1102" cy="926" r="8" class="c0"/>
<circle cx="802" cy="674" r="8" class="c0"/>
<circle cx="936" cy="594" r="8" class="c0"/>
<circle cx="806" cy="594" r="8" class="c0"/>
<circle cx="862" cy="534" r="8" class="c0"/>
<circle cx="1238" cy="930" r="8" class="c0"/>
<circle cx="872" cy="566" r="8" class="c0"/>
<circle cx="918" cy="746" r="8" class="c0"/>
<circle cx="798" cy="458" r="8" class="c0"/>
<circle cx="968" cy="854" r="8" class="c0"/>
<circle cx="866" cy="734" r="8" class="c0"/>
<circle cx="1128" cy="802" r="8" class="c0"/>
<circle cx="1126" cy="1012" r="8" class="c0"/>
<circle cx="996" cy="784" r="8" class="c0"/>
<circle cx="1004" cy="670" r="8" class="c0"/>
<circle cx="914" cy="554" r="8" class="c0"/>
<circle cx="802" cy="514" r="8" class="c0"/>
<circle cx="918" cy="612" r="8" class="c0"/>
<circle cx="774" cy="512" r="8" class="c0"/>
<circle cx="1254" cy="956" r="8" class="c0"/>
<circle cx="842" cy="538" r="8" class="c0"/>
<circle cx="1250" cy="1020" r="8" class="c0"/>
<circle cx="920" cy="572" r="8" class="c0"/>
<circle cx="1066" cy="810" r="8" class="c0"/>
<circle cx="1028" cy="842" r="8" class="c0"/>
<circle cx="1054" cy="684" r="8" class="c0"/>
<circle cx="816" cy="690" r="8" class="c0"/>
<circle cx="890" cy="840" r="8" class="c0"/>
<circle cx="770" cy="650" r="8" class="c0"/>
<circle cx="802" cy="384" r="8" class="c0"/>
<circle cx="852" cy="490" r="8" class="c0"/>
<circle cx="906" cy="768" r="8" class="c0"/>
<circle cx="966" cy="554" r="8" class="c0"/>
<circle cx="864" cy="618" r="8" class="c0"/>
<circle cx="1054" cy="654" r="8" class="c0"/>
<circle cx="796" cy="582" r="8" class="c0"/>
<circle cx="748" cy="494" r="8" class="c0"/>
<circle cx="762" cy="392" r="8" class="c0"/>
<circle cx="864" cy="478" r="8" class="c0"/>
<circle cx="820" cy="420" r="6" class="c0"/>
<circle cx="1158" cy="830" r="6" class="c0"/>
<circle cx="974" cy="706" r="6" class="c0"/>
<circle cx="1140" cy="836" r="6" class="c0"/>
<circle cx="1066" cy="930" r="6" class="c0"/>
<circle cx="848" cy="782" r="6" class="c0"/>
<circle cx="1090" cy="668" r="6" class="c0"/>
<circle cx="730" cy="430" r="6" class="c0"/>
<circle cx="934" cy="624" r="6" class="c0"/>
<circle cx="1046" cy="786" r="6" class="c0"/>
<circle cx="1190" cy="860" r="6" class="c0"/>
<circle cx="1080" cy="818" r="6" class="c0"/>
<circle cx="1044" cy="770" r="6" class="c0"/>
<circle cx="1180" cy="1032" r="6" class="c0"/>
<circle cx="884" cy="458" r="6" class="c0"/>
<circle cx="1220" cy="976" r="6" class="c0"/>
<circle cx="826" cy="638" r="6" class="c0"/>
<circle cx="874" cy="546" r="6" class="c0"/>
<circle cx="944" cy="702" r="6" class="c0"/>
<circle cx="954" cy="912" r="6" class="c0"/>
<circle cx="1046" cy="804" r="6" class="c0"/>
<circle cx="812" cy="650" r="6" class="c0"/>
<circle cx="1104" cy="1046" r="6" class="c0"/>
<circle cx="728" cy="374" r="6" class="c0"/>
<circle cx="1030" cy="706" r="6" class="c0"/>
<circle cx="850" cy="584" r="6" class="c0"/>
<circle cx="754" cy="456" r="6" class="c0"/>
<circle cx="908" cy="816" r="6" class="c0"/>
<circle cx="728" cy="474" r="6" class="c0"/>
<circle cx="1148" cy="1044" r="6" class="c0"/>
<circle cx="1070" cy="736" r="6" class="c0"/>
<circle cx="1132" cy="918" r="6" class="c0"/>
<circle cx="922" cy="812" r="6" class="c0"/>
<circle cx="974" cy="596" r="6" class="c0"/>
<circle cx="1050" cy="926" r="6" class="c0"/>
<circle cx="762" cy="630" r="6" class="c0"/>
<circle cx="1162" cy="862" r="6" class="c0"/>
<circle cx="768" cy="560" r="6" class="c0"/>
<circle cx="1100" cy="862" r="6" class="c0"/>
<circle cx="1162" cy="1094" r="6" class="c0"/>
<circle cx="828" cy="558" r="6" class="c0"/>
<circle cx="942" cy="788" r="6" class="c0"/>
<circle cx="808" cy="706" r="6" class="c0"/>
<circle cx="732" cy="552" r="6" class="c0"/>
<circle cx="1184" cy="1050" r="6" class="c0"/>
<circle cx="774" cy="576" r="6" class="c0"/>
<circle cx="782" cy="674" r="6" class="c0"/>
<circle cx="992" cy="816" r="6" class="c0"/>
<circle cx="1118" cy="968" r="6" class="c0"/>
<circle cx="1164" cy="1010" r="6" class="c0"/>
<circle cx="986" cy="744" r="6" class="c0"/>
<circle cx="760" cy="482" r="6" class="c0"/>
<circle cx="1098" cy="902" r="6" class="c0"/>
<circle cx="1084" cy="984" r="6" class="c0"/>
<circle cx="942" cy="672" r="6" class="c0"/>
<circle cx="1096" cy="1038" r="6" class="c0"/>
<circle cx="1064" cy="644" r="6" class="c0"/>
<circle cx="898" cy="750" r="6" class="c0"/>
<circle cx="1184" cy="1074" r="6" class="c0"/>
<circle cx="1210" cy="926" r="6" class="c0"/>
<circle cx="982" cy="946" r="6" class="c0"/>
<circle cx="1054" cy="820" r="6" class="c0"/>
<circle cx="1104" cy="962" r="6" class="c0"/>
<circle cx="764" cy="368" r="6" class="c0"/>
<circle cx="932" cy="780" r="6" class="c0"/>
<circle cx="1078" cy="936" r="6" class="c0"/>
<circle cx="1020" cy="608" r="6" class="c0"/>
<circle cx="794" cy="540" r="6" class="c0"/>
<circle cx="1078" cy="744" r="6" class="c0"/>
<circle cx="1104" cy="726" r="6" class="c0"/>
<circle cx="884" cy="762" r="6" class="c0"/>
<circle cx="828" cy="502" r="6" class="c0"/>
<circle cx="1058" cy="700" r="6" class="c0"/>
<circle cx="1078" cy="654" r="6" class="c0"/>
<circle cx="1096" cy="796" r="6" class="c0"/>
<circle cx="992" cy="612" r="6" class="c0"/>
<circle cx="1132" cy="762" r="6" class="c0"/>
<circle cx="714" cy="402" r="6" class="c0"/>
<circle cx="1216" cy="962" r="6" class="c0"/>
<circle cx="1230" cy="956" r="6" class="c0"/>
<circle cx="1100" cy="1006" r="6" class="c0"/>
<circle cx="1056" cy="1014" r="6" class="c0"/>
<circle cx="1176" cy="1088" r="6" class="c0"/>
<circle cx="1268" cy="1004" r="6" class="c0"/>
<circle cx="1080" cy="696" r="6" class="c0"/>
<circle cx="1148" cy="796" r="6" class="c0"/>
<circle cx="914" cy="472" r="6" class="c0"/>
<circle cx="906" cy="830" r="6" class="c0"/>
<circle cx="962" cy="838" r="6" class="c0"/>
<circle cx="722" cy="394" r="6" class="c0"/>
<circle cx="902" cy="580" r="6" class="c0"/>
<circle cx="920" cy="870" r="6" class="c0"/>
<circle cx="1068" cy="950" r="6" class="c0"/>
<circle cx="1090" cy="1050" r="6" class="c0"/>
<circle cx="1102" cy="846" r="6" class="c0"/>
<circle cx="882" cy="730" r="6" class="c0"/>
<circle cx="776" cy="620" r="6" class="c0"/>
<circle cx="954" cy="802" r="6" class="c0"/>
<circle cx="934" cy="556" r="6" class="c0"/>
<circle cx="724" cy="534" r="6" class="c0"/>
<circle cx="1138" cy="732" r="6" class="c0"/>
<circle cx="1224" cy="1002" r="6" class="c0"/>
<circle cx="786" cy="440" r="6" class="c0"/>
<circle cx="844" cy="700" r="6" class="c0"/>
<circle cx="884" cy="686" r="6" class="c0"/>
<circle cx="994" cy="638" r="6" class="c0"/>
<circle cx="880" cy="830" r="6" class="c0"/>
<circle cx="1026" cy="962" r="6" class="c0"/>
<circle cx="958" cy="536" r="6" class="c0"/>
<circle cx="788" cy="662" r="6" class="c0"/>
<circle cx="1282" cy="990" r="6" class="c0"/>
<circle cx="1008" cy="574" r="6" class="c0"/>
<circle cx="888" cy="562" r="6" class="c0"/>
<circle cx="1032" cy="722" r="6" class="c0"/>
<circle cx="718" cy="516" r="6" class="c0"/>
<circle cx="918" cy="778" r="6" class="c0"/>
<circle cx="1170" cy="820" r="6" class="c0"/>
<circle cx="966" cy="578" r="6" class="c0"/>
<circle cx="912" cy="648" r="6" class="c0"/>
<circle cx="1166" cy="922" r="6" class="c0"/>
<circle cx="862" cy="594" r="6" class="c0"/>
<circle cx="716" cy="442" r="6" class="c0"/>
<circle cx="906" cy="686" r="6" class="c0"/>
<circle cx="1120" cy="930" r="6" class="c0"/>
<circle cx="1142" cy="896" r="6" class="c0"/>
<circle cx="738" cy="484" r="6" class="c0"/>
<circle cx="898" cy="452" r="6" class="c0"/>
<circle cx="816" cy="464" r="6" class="c0"/>
<circle cx="956" cy="894" r="6" class="c0"/>
<circle cx="880" cy="510" r="6" class="c0"/>
<circle cx="950" cy="662" r="6" class="c0"/>
<circle cx="984" cy="604" r="6" class="c0"/>
<circle cx="958" cy="704" r="6" class="c0"/>
<circle cx="1058" cy="918" r="6" class="c0"/>
<circle cx="1010" cy="844" r="6" class="c0"/>
<circle cx="1270" cy="952" r="6" class="c0"/>
<circle cx="1110" cy="854" r="6" class="c0"/>
<circle cx="758" cy="506" r="6" class="c0"/>
<circle cx="898" cy="516" r="6" class="c0"/>
<circle cx="1132" cy="786" r="6" class="c0"/>
<circle cx="1256" cy="938" r="6" class="c0"/>
<circle cx="704" cy="452" r="6" class="c0"/>
<circle cx="1120" cy="1066" r="6" class="c0"/>
<circle cx="1232" cy="892" r="6" class="c0"/>
<circle cx="744" cy="538" r="6" class="c0"/>
<circle cx="986" cy="794" r="6" class="c0"/>
<circle cx="1102" cy="740" r="6" class="c0"/>
<circle cx="1156" cy="786" r="6" class="c0"/>
<circle cx="942" cy="812" r="6" class="c0"/>
<circle cx="1166" cy="890" r="6" class="c0"/>
<circle cx="1000" cy="978" r="6" class="c0"/>
<circle cx="846" cy="410" r="6" class="c0"/>
<circle cx="1000" cy="908" r="6" class="c0"/>
<circle cx="704" cy="410" r="6" class="c0"/>
<circle cx="1200" cy="936" r="6" class="c0"/>
<circle cx="788" cy="568" r="6" class="c0"/>
<circle cx="904" cy="640" r="6" class="c0"/>
<circle cx="906" cy="708" r="6" class="c0"/>
<circle cx="1026" cy="998" r="6" class="c0"/>
<circle cx="888" cy="656" r="6" class="c0"/>
<circle cx="1262" cy="992" r="6" class="c0"/>
<circle cx="1084" cy="842" r="6" class="c0"/>
<circle cx="902" cy="622" r="6" class="c0"/>
<circle cx="1032" cy="600" r="6" class="c0"/>
<circle cx="1234" cy="1014" r="6" class="c0"/>
<circle cx="1142" cy="1010" r="6" class="c0"/>
<circle cx="720" cy="362" r="6" class="c0"/>
<circle cx="1028" cy="892" r="6" class="c0"/>
<circle cx="1110" cy="1058" r="6" class="c0"/>
<circle cx="1096" cy="816" r="6" class="c0"/>
<circle cx="1116" cy="1002" r="6" class="c0"/>
<circle cx="820" cy="512" r="6" class="c0"/>
<circle cx="946" cy="902" r="6" class="c0"/>
<circle cx="1012" cy="786" r="6" class="c0"/>
<circle cx="962" cy="922" r="6" class="c0"/>
<circle cx="1088" cy="808" r="6" class="c0"/>
<circle cx="756" cy="618" r="6" class="c0"/>
<circle cx="1034" cy="984" r="6" class="c0"/>
<circle cx="1150" cy="846" r="6" class="c0"/>
<circle cx="1000" cy="872" r="6" class="c0"/>
<circle cx="1044" cy="694" r="6" class="c0"/>
<circle cx="1058" cy="780" r="6" class="c0"/>
<circle cx="1134" cy="998" r="6" class="c0"/>
<circle cx="1000" cy="622" r="6" class="c0"/>
<circle cx="994" cy="838" r="6" class="c0"/>
<circle cx="872" cy="518" r="6" class="c0"/>
<circle cx="874" cy="630" r="6" class="c0"/>
<circle cx="950" cy="552" r="6" class="c0"/>
<circle cx="992" cy="660" r="6" class="c0"/>
<circle cx="1046" cy="1022" r="6" class="c0"/>
<circle cx="958" cy="586" r="6" class="c0"/>
<circle cx="1186" cy="792" r="6" class="c0"/>
<circle cx="890" cy="444" r="6" class="c0"/>
<circle cx="1022" cy="812" r="6" class="c0"/>
<circle cx="826" cy="700" r="6" class="c0"/>
<circle cx="856" cy="792" r="6" class="c0"/>
<circle cx="780" cy="366" r="6" class="c0"/>
<circle cx="836" cy="566" r="6" class="c0"/>
<circle cx="1238" cy="948" r="6" class="c0"/>
<circle cx="806" cy="418" r="6" class="c0"/>
<circle cx="804" cy="530" r="6" class="c0"/>
<circle cx="892" cy="794" r="6" class="c0"/>
<circle cx="1162" cy="762" r="6" class="c0"/>
<circle cx="1090" cy="710" r="6" class="c0"/>
<circle cx="920" cy="534" r="6" class="c0"/>
<circle cx="994" cy="940" r="6" class="c0"/>
</svg>
