<?xml version="1.0" encoding="utf-8"?>
<svg xmlns="http://www.w3.org/2000/svg"
     xmlns:xlink="http://www.w3.org/1999/xlink" width="1920" height="1440" >

            <defs>
            <style type="text/css"><![CDATA[
circle {stroke: none;}
.c0 {fill: #FFFFFF;}
]]></style>
            </defs>
<rect x="0" y="0" width="1920" height="1440" fill="black"/>
<circle cx="940" cy="556" r="14" class="c0"/>
<circle cx="914" cy="792" r="12" class="c0"/>
<circle cx="1198" cy="838" r="12" class="c0"/>
<circle cx="674" cy="492" r="12" class="c0"/>
<circle cx="956" cy="860" r="12" class="c0"/>
<circle cx="910" cy="752" r="12" class="c0"/>
<circle cx="794" cy="522" r="12" class="c0"/>
<circle cx="1062" cy="678" r="12" class="c0"/>
<circle cx="1046" cy="822" r="12" class="c0"/>
<circle cx="940" cy="672" r="12" class="c0"/>
<circle cx="1130" cy="802" r="12" class="c0"/>
<circle cx="906" cy="608" r="12" class="c0"/>
<circle cx="982" cy="674" r="12" class="c0"/>
<circle cx="1152" cy="998" r="12" class="c0"/>
<circle cx="796" cy="688" r="12" class="c0"/>
<circle cx="1168" cy="740" r="12" class="c0"/>
<circle cx="1276" cy="1006" r="12" class="c0"/>
<circle cx="954" cy="646" r="12" class="c0"/>
<circle cx="664" cy="538" r="12" class="c0"/>
<circle cx="740" cy="664" r="12" class="c0"/>
<circle cx="786" cy="614" r="12" class="c0"/>
<circle cx="956" cy="776" r="12" class="c0"/>
<circle cx="958" cy="744" r="12" class="c0"/>
<circle cx="1218" cy="934" r="12" class="c0"/>
<circle cx="1116" cy="690" r="12" class="c0"/>
<circle cx="1132" cy="862" r="12" class="c0"/>
<circle cx="1204" cy="992" r="12" class="c0"/>
<circle cx="1176" cy="1018" r="12" class="c0"/>
<circle cx="1112" cy="874" r="12" class="c0"/>
<circle cx="1044" cy="722" r="12" class="c0"/>
<circle cx="1104" cy="816" r="12" class="c0"/>
<circle cx="1062" cy="770" r="12" class="c0"/>
<circle cx="1162" cy="862" r="12" class="c0"/>
<circle cx="1038" cy="886" r="12" class="c0"/>
<circle cx="888" cy="568" r="12" class="c0"/>
<circle cx="1104" cy="848" r="12" class="c0"/>
<circle cx="834" cy="512" r="12" class="c0"/>
<circle cx="810" cy="672" r="12" class="c0"/>
<circle cx="1140" cy="890" r="12" class="c0"/>
<circle cx="918" cy="856" r="12" class="c0"/>
<circle cx="1010" cy="714" r="12" class="c0"/>
<circle cx="988" cy="852" r="12" class="c0"/>
<circle cx="1020" cy="834" r="12" class="c0"/>
<circle cx="754" cy="452" r="12" class="c0"/>
<circle cx="866" cy="808" r="12" class="c0"/>
<circle cx="1078" cy="960" r="10" class="c0"/>
<circle cx="1170" cy="890" r="10" class="c0"/>
<circle cx="672" cy="466" r="10" class="c0"/>
<circle cx="814" cy="502" r="10" class="c0"/>
<circle cx="1012" cy="856" r="10" class="c0"/>
<circle cx="826" cy="558" r="10" class="c0"/>
<circle cx="714" cy="434" r="10" class="c0"/>
<circle cx="988" cy="730" r="10" class="c0"/>
<circle cx="834" cy="620" r="10" class="c0"/>
<circle cx="782" cy="458" r="10" class="c0"/>
<circle cx="746" cy="418" r="10" class="c0"/>
<circle cx="1124" cy="920" r="10" class="c0"/>
<circle cx="1180" cy="920" r="10" class="c0"/>
<circle cx="696" cy="464" r="10" class="c0"/>
<circle cx="1066" cy="850" r="10" class="c0"/>
<circle cx="1116" cy="900" r="10" class="c0"/>
<circle cx="910" cy="700" r="10" class="c0"/>
<circle cx="914" cy="826" r="10" class="c0"/>
<circle cx="738" cy="602" r="10" class="c0"/>
<circle cx="708" cy="548" r="10" class="c0"/>
<circle cx="1030" cy="620" r="10" class="c0"/>
<circle cx="1264" cy="868" r="10" class="c0"/>
<circle cx="1102" cy="758" r="10" class="c0"/>
<circle cx="1028" cy="934" r="10" class="c0"/>
<circle cx="886" cy="658" r="10" class="c0"/>
<circle cx="966" cy="568" r="10" class="c0"/>
<circle cx="986" cy="888" r="10" class="c0"/>
<circle cx="884" cy="772" r="10" class="c0"/>
<circle cx="1056" cy="640" r="10" class="c0"/>
<circle cx="1236" cy="806" r="10" class="c0"/>
<circle cx="662" cy="418" r="10" class="c0"/>
<circle cx="952" cy="606" r="10" class="c0"/>
<circle cx="854" cy="646" r="10" class="c0"/>
<circle cx="958" cy="832" r="10" class="c0"/>
<circle cx="1290" cy="878" r="10" class="c0"/>
<circle cx="782" cy="662" r="10" class="c0"/>
<circle cx="1118" cy="960" r="10" class="c0"/>
<circle cx="1288" cy="916" r="10" class="c0"/>
<circle cx="1124" cy="774" r="10" class="c0"/>
<circle cx="848" cy="786" r="10" class="c0"/>
<circle cx="776" cy="698" r="10" class="c0"/>
<circle cx="720" cy="614" r="10" class="c0"/>
<circle cx="1164" cy="946" r="10" class="c0"/>
<circle cx="912" cy="672" r="10" class="c0"/>
<circle cx="1324" cy="914" r="10" class="c0"/>
<circle cx="818" cy="644" r="10" class="c0"/>
<circle cx="1310" cy="972" r="10" class="c0"/>
<circle cx="1270" cy="976" r="10" class="c0"/>
<circle cx="688" cy="564" r="10" class="c0"/>
<circle cx="852" cy="682" r="10" class="c0"/>
<circle cx="680" cy="436" r="10" class="c0"/>
<circle cx="1284" cy="950" r="10" class="c0"/>
<circle cx="748" cy="560" r="10" class="c0"/>
<circle cx="1162" cy="974" r="10" class="c0"/>
<circle cx="890" cy="796" r="10" class="c0"/>
<circle cx="720" cy="476" r="10" class="c0"/>
<circle cx="1070" cy="708" r="10" class="c0"/>
<circle cx="924" cy="642" r="10" class="c0"/>
<circle cx="1002" cy="780" r="10" class="c0"/>
<circle cx="868" cy="558" r="10" class="c0"/>
<circle cx="1152" cy="760" r="10" class="c0"/>
<circle cx="1064" cy="898" r="10" class="c0"/>
<circle cx="816" cy="708" r="10" class="c0"/>
<circle cx="982" cy="586" r="10" class="c0"/>
<circle cx="1248" cy="988" r="10" class="c0"/>
<circle cx="990" cy="702" r="10" class="c0"/>
<circle cx="740" cy="498" r="10" class="c0"/>
<circle cx="1180" cy="816" r="10" class="c0"/>
<circle cx="1034" cy="672" r="10" class="c0"/>
<circle cx="720" cy="638" r="10" class="c0"/>
<circle cx="842" cy="754" r="10" class="c0"/>
<circle cx="878" cy="698" r="10" class="c0"/>
<circle cx="1158" cy="904" r="10" class="c0"/>
<circle cx="1242" cy="1054" r="10" class="c0"/>
<circle cx="1098" cy="932" r="10" class="c0"/>
<circle cx="1218" cy="778" r="10" class="c0"/>
<circle cx="776" cy="552" r="10" class="c0"/>
<circle cx="836" cy="470" r="10" class="c0"/>
<circle cx="1322" cy="936" r="10" class="c0"/>
<circle cx="1184" cy="980" r="10" class="c0"/>
<circle cx="1236" cy="950" r="10" class="c0"/>
<circle cx="1026" cy="738" r="10" class="c0"/>
<circle cx="806" cy="626" r="10" class="c0"/>
<circle cx="706" cy="414" r="10" class="c0"/>
<circle cx="1058" cy="746" r="10" class="c0"/>
<circle cx="1086" cy="776" r="10" class="c0"/>
<circle cx="1268" cy="836" r="10" class="c0"/>
<circle cx="898" cy="634" r="10" class="c0"/>
<circle cx="810" cy="570" r="10" class="c0"/>
<circle cx="862" cy="592" r="10" class="c0"/>
<circle cx="764" cy="518" r="10" class="c0"/>
<circle cx="928" cy="534" r="10" class="c0"/>
<circle cx="1202" cy="798" r="10" class="c0"/>
<circle cx="906" cy="526" r="10" class="c0"/>
<circle cx="1216" cy="1032" r="10" class="c0"/>
<circle cx="1100" cy="718" r="10" class="c0"/>
<circle cx="1088" cy="798" r="10" class="c0"/>
<circle cx="1202" cy="1016" r="10" class="c0"/>
<circle cx="1144" cy="932" r="10" class="c0"/>
<circle cx="1208" cy="880" r="10" class="c0"/>
<circle cx="860" cy="732" r="10" class="c0"/>
<circle cx="1124" cy="742" r="10" class="c0"/>
<circle cx="1250" cy="934" r="10" class="c0"/>
<circle cx="772" cy="490" r="10" class="c0"/>
<circle cx="752" cy="536" r="10" class="c0"/>
<circle cx="1056" cy="968" r="10" class="c0"/>
<circle cx="1234" cy="878" r="10" class="c0"/>
<circle cx="980" cy="770" r="8" class="c0"/>
<circle cx="944" cy="880" r="8" class="c0"/>
<circle cx="738" cy="624" r="8" class="c0"/>
<circle cx="700" cy="530" r="8" class="c0"/>
<circle cx="814" cy="738" r="8" class="c0"/>
<circle cx="1192" cy="892" r="8" class="c0"/>
<circle cx="658" cy="440" r="8" class="c0"/>
<circle cx="992" cy="636" r="8" class="c0"/>
<circle cx="1264" cy="908" r="8" class="c0"/>
<circle cx="1126" cy="718" r="8" class="c0"/>
<circle cx="872" cy="534" r="8" class="c0"/>
<circle cx="942" cy="812" r="8" class="c0"/>
<circle cx="860" cy="762" r="8" class="c0"/>
<circle cx="1010" cy="816" r="8" class="c0"/>
<circle cx="1300" cy="940" r="8" class="c0"/>
<circle cx="880" cy="512" r="8" class="c0"/>
<circle cx="1008" cy="610" r="8" class="c0"/>
<circle cx="930" cy="584" r="8" class="c0"/>
<circle cx="830" cy="660" r="8" class="c0"/>
<circle cx="1142" cy="844" r="8" class="c0"/>
<circle cx="772" cy="576" r="8" class="c0"/>
<circle cx="916" cy="564" r="8" class="c0"/>
<circle cx="1078" cy="740" r="8" class="c0"/>
<circle cx="1080" cy="866" r="8" class="c0"/>
<circle cx="876" cy="604" r="8" class="c0"/>
<circle cx="1076" cy="824" r="8" class="c0"/>
<circle cx="864" cy="620" r="8" class="c0"/>
<circle cx="1156" cy="798" r="8" class="c0"/>
<circle cx="1230" cy="1000" r="8" class="c0"/>
<circle cx="932" cy="708" r="8" class="c0"/>
<circle cx="1044" cy="692" r="8" class="c0"/>
<circle cx="1136" cy="968" r="8" class="c0"/>
<circle cx="1012" cy="634" r="8" class="c0"/>
<circle cx="1208" cy="906" r="8" class="c0"/>
<circle cx="1200" cy="756" r="8" class="c0"/>
<circle cx="750" cy="638" r="8" class="c0"/>
<circle cx="818" cy="538" r="8" class="c0"/>
<circle cx="698" cy="510" r="8" class="c0"/>
<circle cx="966" cy="896" r="8" class="c0"/>
<circle cx="1048" cy="940" r="8" class="c0"/>
<circle cx="890" cy="536" r="8" class="c0"/>
<circle cx="1320" cy="888" r="8" class="c0"/>
<circle cx="996" cy="826" r="8" class="c0"/>
<circle cx="1098" cy="986" r="8" class="c0"/>
<circle cx="1016" cy="794" r="8" class="c0"/>
<circle cx="726" cy="396" r="8" class="c0"/>
<circle cx="1008" cy="926" r="8" class="c0"/>
<circle cx="696" cy="486" r="8" class="c0"/>
<circle cx="1094" cy="680" r="8" class="c0"/>
<circle cx="776" cy="434" r="8" class="c0"/>
<circle cx="1040" cy="756" r="8" class="c0"/>
<circle cx="1270" cy="936" r="8" class="c0"/>
<circle cx="716" cy="454" r="8" class="c0"/>
<circle cx="834" cy="592" r="8" class="c0"/>
<circle cx="646" cy="496" r="8" class="c0"/>
<circle cx="716" cy="582" r="8" class="c0"/>
<circle cx="1248" cy="818" r="8" class="c0"/>
<circle cx="758" cy="610" r="8" class="c0"/>
<circle cx="808" cy="478" r="8" class="c0"/>
<circle cx="934" cy="784" r="8" class="c0"/>
<circle cx="1186" cy="862" r="8" class="c0"/>
<circle cx="984" cy="806" r="8" class="c0"/>
<circle cx="840" cy="720" r="8" class="c0"/>
<circle cx="1012" cy="900" r="8" class="c0"/>
<circle cx="928" cy="766" r="8" class="c0"/>
<circle cx="1062" cy="920" r="8" class="c0"/>
<circle cx="874" cy="750" r="8" class="c0"/>
<circle cx="970" cy="790" r="8" class="c0"/>
<circle cx="934" cy="740" r="8" class="c0"/>
<circle cx="1248" cy="1032" r="8" class="c0"/>
<circle cx="762" cy="670" r="8" class="c0"/>
<circle cx="736" cy="464" r="8" class="c0"/>
<circle cx="890" cy="682" r="8" class="c0"/>
<circle cx="1042" cy="862" r="8" class="c0"/>
<circle cx="820" cy="756" r="8" class="c0"/>
<circle cx="1076" cy="938" r="8" class="c0"/>
<circle cx="1214" cy="972" r="8" class="c0"/>
<circle cx="1146" cy="704" r="8" class="c0"/>
<circle cx="1288" cy="984" r="8" class="c0"/>
<circle cx="970" cy="628" r="8" class="c0"/>
<circle cx="934" cy="620" r="8" class="c0"/>
<circle cx="1074" cy="654" r="8" class="c0"/>
<circle cx="1104" cy="912" r="8" class="c0"/>
<circle cx="1084" cy="694" r="8" class="c0"/>
<circle cx="1174" cy="776" r="8" class="c0"/>
<circle cx="1200" cy="954" r="8" class="c0"/>
<circle cx="794" cy="594" r="8" class="c0"/>
<circle cx="882" cy="622" r="8" class="c0"/>
<circle cx="860" cy="490" r="8" class="c0"/>
<circle cx="830" cy="694" r="8" class="c0"/>
<circle cx="828" cy="488" r="8" class="c0"/>
<circle cx="912" cy="586" r="8" class="c0"/>
<circle cx="1174" cy="844" r="8" class="c0"/>
<circle cx="1086" cy="910" r="8" class="c0"/>
<circle cx="1224" cy="838" r="8" class="c0"/>
<circle cx="1266" cy="1026" r="8" class="c0"/>
<circle cx="1020" cy="690" r="8" class="c0"/>
<circle cx="682" cy="408" r="8" class="c0"/>
<circle cx="818" cy="462" r="8" class="c0"/>
<circle cx="786" cy="720" r="8" class="c0"/>
<circle cx="728" cy="562" r="8" class="c0"/>
<circle cx="852" cy="548" r="8" class="c0"/>
<circle cx="1042" cy="788" r="8" class="c0"/>
<circle cx="1246" cy="900" r="8" class="c0"/>
<circle cx="652" cy="472" r="8" class="c0"/>
<circle cx="1278" cy="898" r="8" class="c0"/>
<circle cx="954" cy="586" r="8" class="c0"/>
<circle cx="650" cy="404" r="8" class="c0"/>
<circle cx="778" cy="642" r="8" class="c0"/>
<circle cx="902" cy="724" r="8" class="c0"/>
<circle cx="958" cy="716" r="8" class="c0"/>
<circle cx="986" cy="920" r="8" class="c0"/>
<circle cx="1106" cy="788" r="8" class="c0"/>
<circle cx="1280" cy="850" r="8" class="c0"/>
<circle cx="1258" cy="956" r="8" class="c0"/>
<circle cx="700" cy="390" r="8" class="c0"/>
<circle cx="1186" cy="1040" r="8" class="c0"/>
<circle cx="980" cy="750" r="8" class="c0"/>
<circle cx="760" cy="476" r="8" class="c0"/>
<circle cx="1154" cy="826" r="8" class="c0"/>
<circle cx="998" cy="660" r="8" class="c0"/>
<circle cx="1144" cy="788" r="8" class="c0"/>
<circle cx="894" cy="840" r="8" class="c0"/>
<circle cx="1120" cy="984" r="8" class="c0"/>
<circle cx="1036" cy="912" r="8" class="c0"/>
<circle cx="938" cy="830" r="8" class="c0"/>
<circle cx="1242" cy="850" r="8" class="c0"/>
<circle cx="864" cy="662" r="8" class="c0"/>
<circle cx="1092" cy="662" r="8" class="c0"/>
<circle cx="1158" cy="714" r="8" class="c0"/>
<circle cx="996" cy="908" r="8" class="c0"/>
<circle cx="1016" cy="658" r="8" class="c0"/>
<circle cx="814" cy="594" r="8" class="c0"/>
<circle cx="790" cy="482" r="8" class="c0"/>
<circle cx="860" cy="524" r="8" class="c0"/>
<circle cx="1050" cy="618" r="8" class="c0"/>
<circle cx="964" cy="698" r="8" class="c0"/>
<circle cx="1026" cy="600" r="8" class="c0"/>
<circle cx="976" cy="872" r="8" class="c0"/>
<circle cx="1256" cy="888" r="8" class="c0"/>
<circle cx="976" cy="608" r="8" class="c0"/>
<circle cx="848" cy="576" r="8" class="c0"/>
<circle cx="1032" cy="772" r="8" class="c0"/>
<circle cx="852" cy="610" r="8" class="c0"/>
<circle cx="922" cy="724" r="8" class="c0"/>
<circle cx="1030" cy="804" r="8" class="c0"/>
<circle cx="884" cy="828" r="8" class="c0"/>
<circle cx="932" cy="602" r="8" class="c0"/>
<circle cx="1130" cy="832" r="8" class="c0"/>
<circle cx="860" cy="710" r="8" class="c0"/>
<circle cx="834" cy="772" r="8" class="c0"/>
<circle cx="1008" cy="676" r="8" class="c0"/>
<circle cx="692" cy="592" r="8" class="c0"/>
<circle cx="1230" cy="918" r="8" class="c0"/>
<circle cx="704" cy="602" r="8" class="c0"/>
<circle cx="878" cy="720" r="8" class="c0"/>
<circle cx="794" cy="440" r="8" class="c0"/>
<circle cx="1066" cy="800" r="8" class="c0"/>
<circle cx="1008" cy="588" r="8" class="c0"/>
<circle cx="1206" cy="818" r="8" class="c0"/>
<circle cx="900" cy="546" r="8" class="c0"/>
<circle cx="1232" cy="970" r="8" class="c0"/>
<circle cx="990" cy="760" r="8" class="c0"/>
<circle cx="768" cy="594" r="8" class="c0"/>
<circle cx="1322" cy="960" r="8" class="c0"/>
<circle cx="958" cy="800" r="8" class="c0"/>
<circle cx="800" cy="544" r="8" class="c0"/>
<circle cx="732" cy="444" r="8" class="c0"/>
<circle cx="740" cy="524" r="8" class="c0"/>
<circle cx="1082" cy="886" r="8" class="c0"/>
<circle cx="974" cy="820" r="8" class="c0"/>
<circle cx="888" cy="740" r="8" class="c0"/>
<circle cx="944" cy="698" r="8" class="c0"/>
<circle cx="768" cy="632" r="8" class="c0"/>
<circle cx="1012" cy="754" r="8" class="c0"/>
<circle cx="842" cy="532" r="8" class="c0"/>
<circle cx="1220" cy="866" r="8" class="c0"/>
<circle cx="662" cy="512" r="8" class="c0"/>
<circle cx="1004" cy="876" r="8" class="c0"/>
<circle cx="1298" cy="994" r="8" class="c0"/>
<circle cx="738" cy="576" r="8" class="c0"/>
<circle cx="1340" cy="928" r="8" class="c0"/>
<circle cx="1038" cy="956" r="8" class="c0"/>
<circle cx="648" cy="452" r="8" class="c0"/>
<circle cx="796" cy="730" r="8" class="c0"/>
<circle cx="850" cy="500" r="8" class="c0"/>
<circle cx="1178" cy="758" r="8" class="c0"/>
<circle cx="718" cy="508" r="8" class="c0"/>
<circle cx="724" cy="538" r="8" class="c0"/>
<circle cx="1176" cy="960" r="8" class="c0"/>
<circle cx="632" cy="470" r="8" class="c0"/>
<circle cx="1110" cy="1002" r="8" class="c0"/>
<circle cx="1132" cy="946" r="8" class="c0"/>
<circle cx="1034" cy="702" r="8" class="c0"/>
<circle cx="976" cy="906" r="8" class="c0"/>
<circle cx="874" cy="644" r="8" class="c0"/>
<circle cx="636" cy="390" r="8" class="c0"/>
<circle cx="706" cy="572" r="8" class="c0"/>
<circle cx="1140" cy="1020" r="8" class="c0"/>
<circle cx="934" cy="870" r="8" class="c0"/>
<circle cx="1074" cy="980" r="8" class="c0"/>
<circle cx="1174" cy="796" r="8" class="c0"/>
<circle cx="1148" cy="730" r="8" class="c0"/>
<circle cx="760" cy="652" r="8" class="c0"/>
<circle cx="1224" cy="898" r="8" class="c0"/>
<circle cx="752" cy="688" r="8" class="c0"/>
<circle cx="806" cy="452" r="8" class="c0"/>
<circle cx="954" cy="686" r="8" class="c0"/>
<circle cx="944" cy="728" r="8" class="c0"/>
<circle cx="1190" cy="936" r="8" class="c0"/>
<circle cx="1308" cy="900" r="8" class="c0"/>
<circle cx="1028" cy="644" r="8" class="c0"/>
<circle cx="1222" cy="1052" r="8" class="c0"/>
<circle cx="924" cy="810" r="8" class="c0"/>
<circle cx="904" cy="774" r="8" class="c0"/>
<circle cx="1194" cy="780" r="8" class="c0"/>
<circle cx="1040" cy="844" r="8" class="c0"/>
<circle cx="1098" cy="958" r="8" class="c0"/>
<circle cx="1046" cy="658" r="8" class="c0"/>
<circle cx="1060" cy="874" r="8" class="c0"/>
<circle cx="926" cy="688" r="8" class="c0"/>
<circle cx="788" cy="500" r="8" class="c0"/>
<circle cx="1128" cy="1004" r="8" class="c0"/>
<circle cx="898" cy="816" r="8" class="c0"/>
<circle cx="766" cy="424" r="8" class="c0"/>
<circle cx="690" cy="540" r="8" class="c0"/>
<circle cx="902" cy="506" r="8" class="c0"/>
<circle cx="950" cy="624" r="6" class="c0"/>
<circle cx="1158" cy="1026" r="6" class="c0"/>
<circle cx="1302" cy="956" r="6" class="c0"/>
<circle cx="870" cy="678" r="6" class="c0"/>
<circle cx="1242" cy="1016" r="6" class="c0"/>
<circle cx="892" cy="596" r="6" class="c0"/>
<circle cx="826" cy="578" r="6" class="c0"/>
<circle cx="1092" cy="834" r="6" class="c0"/>
<circle cx="1258" cy="1046" r="6" class="c0"/>
<circle cx="1234" cy="826" r="6" class="c0"/>
<circle cx="644" cy="432" r="6" class="c0"/>
<circle cx="774" cy="534" r="6" class="c0"/>
<circle cx="978" cy="644" r="6" class="c0"/>
<circle cx="934" cy="846" r="6" class="c0"/>
<circle cx="668" cy="400" r="6" class="c0"/>
<circle cx="1136" cy="988" r="6" class="c0"/>
<circle cx="906" cy="654" r="6" class="c0"/>
<circle cx="1068" cy="730" r="6" class="c0"/>
<circle cx="976" cy="712" r="6" class="c0"/>
<circle cx="798" cy="642" r="6" class="c0"/>
<circle cx="1224" cy="818" r="6" class="c0"/>
<circle cx="724" cy="416" r="6" class="c0"/>
<circle cx="1018" cy="950" r="6" class="c0"/>
<circle cx="1202" cy="922" r="6" class="c0"/>
<circle cx="1176" cy="996" r="6" class="c0"/>
<circle cx="792" cy="562" r="6" class="c0"/>
<circle cx="992" cy="600" r="6" class="c0"/>
<circle cx="1166" cy="1036" r="6" class="c0"/>
<circle cx="1080" cy="758" r="6" class="c0"/>
<circle cx="968" cy="662" r="6" class="c0"/>
<circle cx="1192" cy="742" r="6" class="c0"/>
<circle cx="880" cy="588" r="6" class="c0"/>
<circle cx="846" cy="662" r="6" class="c0"/>
<circle cx="756" cy="578" r="6" class="c0"/>
<circle cx="1026" cy="866" r="6" class="c0"/>
<circle cx="1308" cy="924" r="6" class="c0"/>
<circle cx="926" cy="660" r="6" class="c0"/>
<circle cx="684" cy="522" r="6" class="c0"/>
<circle cx="1006" cy="734" r="6" class="c0"/>
<circle cx="792" cy="578" r="6" class="c0"/>
<circle cx="946" cy="758" r="6" class="c0"/>
<circle cx="832" cy="678" r="6" class="c0"/>
<circle cx="876" cy="488" r="6" class="c0"/>
<circle cx="1136" cy="692" r="6" class="c0"/>
<circle cx="1232" cy="1040" r="6" class="c0"/>
<circle cx="1138" cy="910" r="6" class="c0"/>
<circle cx="1250" cy="1008" r="6" class="c0"/>
<circle cx="870" cy="500" r="6" class="c0"/>
<circle cx="1000" cy="804" r="6" class="c0"/>
<circle cx="1220" cy="796" r="6" class="c0"/>
<circle cx="1292" cy="860" r="6" class="c0"/>
<circle cx="866" cy="782" r="6" class="c0"/>
<circle cx="1152" cy="958" r="6" class="c0"/>
<circle cx="1058" cy="950" r="6" class="c0"/>
<circle cx="1162" cy="922" r="6" class="c0"/>
<circle cx="1114" cy="942" r="6" class="c0"/>
<circle cx="674" cy="574" r="6" class="c0"/>
<circle cx="970" cy="844" r="6" class="c0"/>
<circle cx="1084" cy="842" r="6" class="c0"/>
<circle cx="832" cy="740" r="6" class="c0"/>
<circle cx="738" cy="480" r="6" class="c0"/>
<circle cx="1286" cy="968" r="6" class="c0"/>
<circle cx="1204" cy="860" r="6" class="c0"/>
<circle cx="670" cy="558" r="6" class="c0"/>
<circle cx="1098" cy="896" r="6" class="c0"/>
<circle cx="1212" cy="850" r="6" class="c0"/>
<circle cx="996" cy="576" r="6" class="c0"/>
<circle cx="1140" cy="818" r="6" class="c0"/>
<circle cx="1050" cy="802" r="6" class="c0"/>
<circle cx="1106" cy="670" r="6" class="c0"/>
<circle cx="842" cy="704" r="6" class="c0"/>
<circle cx="1102" cy="738" r="6" class="c0"/>
<circle cx="778" cy="680" r="6" class="c0"/>
<circle cx="698" cy="442" r="6" class="c0"/>
<circle cx="682" cy="582" r="6" class="c0"/>
<circle cx="696" cy="622" r="6" class="c0"/>
<circle cx="640" cy="418" r="6" class="c0"/>
<circle cx="798" cy="710" r="6" class="c0"/>
<circle cx="870" cy="576" r="6" class="c0"/>
<circle cx="1080" cy="722" r="6" class="c0"/>
<circle cx="994" cy="618" r="6" class="c0"/>
<circle cx="800" cy="656" r="6" class="c0"/>
<circle cx="998" cy="686" r="6" class="c0"/>
<circle cx="804" cy="606" r="6" class="c0"/>
<circle cx="1204" cy="1044" r="6" class="c0"/>
<circle cx="802" cy="750" r="6" class="c0"/>
<circle cx="856" cy="470" r="6" class="c0"/>
<circle cx="1226" cy="1018" r="6" class="c0"/>
<circle cx="1142" cy="746" r="6" class="c0"/>
<circle cx="1046" cy="922" r="6" class="c0"/>
<circle cx="884" cy="496" r="6" class="c0"/>
<circle cx="916" cy="626" r="6" class="c0"/>
<circle cx="918" cy="548" r="6" class="c0"/>
<circle cx="966" cy="596" r="6" class="c0"/>
<circle cx="1134" cy="756" r="6" class="c0"/>
<circle cx="710" cy="494" r="6" class="c0"/>
<circle cx="1018" cy="916" r="6" class="c0"/>
<circle cx="652" cy="524" r="6" class="c0"/>
<circle cx="836" cy="638" r="6" class="c0"/>
<circle cx="894" cy="708" r="6" class="c0"/>
<circle cx="678" cy="550" r="6" class="c0"/>
<circle cx="1084" cy="644" r="6" class="c0"/>
<circle cx="632" cy="450" r="6" class="c0"/>
<circle cx="970" cy="726" r="6" class="c0"/>
<circle cx="736" cy="548" r="6" class="c0"/>
<circle cx="964" cy="548" r="6" class="c0"/>
<circle cx="824" cy="724" r="6" class="c0"/>
<circle cx="1020" cy="878" r="6" class="c0"/>
<circle cx="1016" cy="770" r="6" class="c0"/>
<circle cx="970" cy="760" r="6" class="c0"/>
<circle cx="1090" cy="972" r="6" class="c0"/>
<circle cx="1234" cy="788" r="6" class="c0"/>
<circle cx="682" cy="390" r="6" class="c0"/>
<circle cx="986" cy="568" r="6" class="c0"/>
<circle cx="1244" cy="834" r="6" class="c0"/>
<circle cx="798" cy="468" r="6" class="c0"/>
<circle cx="962" cy="880" r="6" class="c0"/>
<circle cx="752" cy="592" r="6" class="c0"/>
<circle cx="1248" cy="968" r="6" class="c0"/>
<circle cx="998" cy="744" r="6" class="c0"/>
<circle cx="1158" cy="842" r="6" class="c0"/>
<circle cx="822" cy="608" r="6" class="c0"/>
<circle cx="1158" cy="778" r="6" class="c0"/>
<circle cx="1052" cy="910" r="6" class="c0"/>
<circle cx="920" cy="516" r="6" class="c0"/>
<circle cx="978" cy="836" r="6" class="c0"/>
<circle cx="988" cy="790" r="6" class="c0"/>
<circle cx="1224" cy="984" r="6" class="c0"/>
<circle cx="1106" cy="972" r="6" class="c0"/>
<circle cx="1074" cy="636" r="6" class="c0"/>
<circle cx="1190" cy="1004" r="6" class="c0"/>
<circle cx="1114" cy="728" r="6" class="c0"/>
<circle cx="1198" cy="970" r="6" class="c0"/>
<circle cx="690" cy="422" r="6" class="c0"/>
<circle cx="850" cy="628" r="6" class="c0"/>
<circle cx="1182" cy="878" r="6" class="c0"/>
<circle cx="1092" cy="876" r="6" class="c0"/>
<circle cx="816" cy="520" r="6" class="c0"/>
<circle cx="716" cy="524" r="6" class="c0"/>
<circle cx="1248" cy="916" r="6" class="c0"/>
<circle cx="1246" cy="866" r="6" class="c0"/>
<circle cx="1088" cy="730" r="6" class="c0"/>
<circle cx="758" cy="500" r="6" class="c0"/>
<circle cx="1216" cy="956" r="6" class="c0"/>
<circle cx="1062" cy="832" r="6" class="c0"/>
<circle cx="1182" cy="902" r="6" class="c0"/>
<circle cx="960" cy="670" r="6" class="c0"/>
</svg>
