<?xml version="1.0" encoding="utf-8"?>
<svg xmlns="http://www.w3.org/2000/svg"
     xmlns:xlink="http://www.w3.org/1999/xlink" width="1920" height="1440" >

            <defs>
            <style type="text/css"><![CDATA[
circle {stroke: none;}
.c0 {fill: #FFFFFF;}
]]></style>
            </defs>
<rect x="0" y="0" width="1920" height="1440" fill="black"/>
<circle cx="1042" cy="758" r="12" class="c0"/>
<circle cx="922" cy="798" r="12" class="c0"/>
<circle cx="1304" cy="840" r="12" class="c0"/>
<circle cx="884" cy="782" r="12" class="c0"/>
<circle cx="1342" cy="920" r="12" class="c0"/>
<circle cx="1258" cy="818" r="12" class="c0"/>
<circle cx="660" cy="526" r="12" class="c0"/>
<circle cx="908" cy="564" r="12" class="c0"/>
<circle cx="1100" cy="738" r="12" class="c0"/>
<circle cx="998" cy="770" r="12" class="c0"/>
<circle cx="1194" cy="734" r="12" class="c0"/>
<circle cx="1142" cy="746" r="12" class="c0"/>
<circle cx="1218" cy="794" r="12" class="c0"/>
<circle cx="736" cy="544" r="12" class="c0"/>
<circle cx="848" cy="632" r="12" class="c0"/>
<circle cx="874" cy="716" r="12" class="c0"/>
<circle cx="1064" cy="804" r="12" class="c0"/>
<circle cx="714" cy="562" r="12" class="c0"/>
<circle cx="1308" cy="966" r="12" class="c0"/>
<circle cx="868" cy="574" r="12" class="c0"/>
<circle cx="778" cy="616" r="12" class="c0"/>
<circle cx="1260" cy="894" r="12" class="c0"/>
<circle cx="1216" cy="974" r="12" class="c0"/>
<circle cx="1260" cy="992" r="12" class="c0"/>
<circle cx="1224" cy="936" r="12" class="c0"/>
<circle cx="768" cy="652" r="12" class="c0"/>
<circle cx="1128" cy="808" r="12" class="c0"/>
<circle cx="1316" cy="906" r="12" class="c0"/>
<circle cx="742" cy="612" r="12" class="c0"/>
<circle cx="1186" cy="990" r="12" class="c0"/>
<circle cx="1142" cy="884" r="12" class="c0"/>
<circle cx="1000" cy="672" r="12" class="c0"/>
<circle cx="764" cy="704" r="12" class="c0"/>
<circle cx="1114" cy="756" r="12" class="c0"/>
<circle cx="820" cy="698" r="12" class="c0"/>
<circle cx="902" cy="622" r="12" class="c0"/>
<circle cx="1062" cy="704" r="12" class="c0"/>
<circle cx="666" cy="468" r="12" class="c0"/>
<circle cx="1154" cy="822" r="12" class="c0"/>
<circle cx="852" cy="530" r="12" class="c0"/>
<circle cx="900" cy="690" r="12" class="c0"/>
<circle cx="1076" cy="724" r="10" class="c0"/>
<circle cx="902" cy="838" r="10" class="c0"/>
<circle cx="1068" cy="844" r="10" class="c0"/>
<circle cx="926" cy="710" r="10" class="c0"/>
<circle cx="994" cy="608" r="10" class="c0"/>
<circle cx="846" cy="604" r="10" class="c0"/>
<circle cx="716" cy="618" r="10" class="c0"/>
<circle cx="752" cy="472" r="10" class="c0"/>
<circle cx="970" cy="656" r="10" class="c0"/>
<circle cx="934" cy="594" r="10" class="c0"/>
<circle cx="1070" cy="922" r="10" class="c0"/>
<circle cx="1036" cy="716" r="10" class="c0"/>
<circle cx="724" cy="658" r="10" class="c0"/>
<circle cx="756" cy="526" r="10" class="c0"/>
<circle cx="1076" cy="762" r="10" class="c0"/>
<circle cx="1194" cy="848" r="10" class="c0"/>
<circle cx="1282" cy="912" r="10" class="c0"/>
<circle cx="1038" cy="642" r="10" class="c0"/>
<circle cx="1332" cy="940" r="10" class="c0"/>
<circle cx="1172" cy="806" r="10" class="c0"/>
<circle cx="1030" cy="912" r="10" class="c0"/>
<circle cx="776" cy="548" r="10" class="c0"/>
<circle cx="1032" cy="840" r="10" class="c0"/>
<circle cx="812" cy="552" r="10" class="c0"/>
<circle cx="1058" cy="736" r="10" class="c0"/>
<circle cx="1048" cy="886" r="10" class="c0"/>
<circle cx="1000" cy="714" r="10" class="c0"/>
<circle cx="1092" cy="678" r="10" class="c0"/>
<circle cx="944" cy="782" r="10" class="c0"/>
<circle cx="1164" cy="944" r="10" class="c0"/>
<circle cx="1004" cy="798" r="10" class="c0"/>
<circle cx="1070" cy="898" r="10" class="c0"/>
<circle cx="1182" cy="764" r="10" class="c0"/>
<circle cx="924" cy="830" r="10" class="c0"/>
<circle cx="1288" cy="948" r="10" class="c0"/>
<circle cx="972" cy="852" r="10" class="c0"/>
<circle cx="854" cy="502" r="10" class="c0"/>
<circle cx="926" cy="854" r="10" class="c0"/>
<circle cx="952" cy="616" r="10" class="c0"/>
<circle cx="1002" cy="850" r="10" class="c0"/>
<circle cx="1234" cy="988" r="10" class="c0"/>
<circle cx="918" cy="650" r="10" class="c0"/>
<circle cx="1094" cy="650" r="10" class="c0"/>
<circle cx="638" cy="434" r="10" class="c0"/>
<circle cx="714" cy="504" r="10" class="c0"/>
<circle cx="1244" cy="780" r="10" class="c0"/>
<circle cx="772" cy="454" r="10" class="c0"/>
<circle cx="1276" cy="1008" r="10" class="c0"/>
<circle cx="840" cy="562" r="10" class="c0"/>
<circle cx="1238" cy="872" r="10" class="c0"/>
<circle cx="1158" cy="720" r="10" class="c0"/>
<circle cx="692" cy="484" r="10" class="c0"/>
<circle cx="886" cy="608" r="10" class="c0"/>
<circle cx="690" cy="618" r="10" class="c0"/>
<circle cx="858" cy="756" r="10" class="c0"/>
<circle cx="982" cy="620" r="10" class="c0"/>
<circle cx="978" cy="688" r="10" class="c0"/>
<circle cx="672" cy="598" r="10" class="c0"/>
<circle cx="1224" cy="820" r="10" class="c0"/>
<circle cx="852" cy="782" r="10" class="c0"/>
<circle cx="656" cy="556" r="10" class="c0"/>
<circle cx="928" cy="742" r="10" class="c0"/>
<circle cx="908" cy="780" r="10" class="c0"/>
<circle cx="1178" cy="904" r="10" class="c0"/>
<circle cx="972" cy="736" r="10" class="c0"/>
<circle cx="1160" cy="864" r="10" class="c0"/>
<circle cx="1084" cy="936" r="10" class="c0"/>
<circle cx="858" cy="686" r="10" class="c0"/>
<circle cx="690" cy="534" r="10" class="c0"/>
<circle cx="1014" cy="894" r="10" class="c0"/>
<circle cx="1118" cy="874" r="10" class="c0"/>
<circle cx="1242" cy="844" r="10" class="c0"/>
<circle cx="1252" cy="968" r="10" class="c0"/>
<circle cx="1226" cy="910" r="10" class="c0"/>
<circle cx="858" cy="810" r="10" class="c0"/>
<circle cx="654" cy="492" r="10" class="c0"/>
<circle cx="684" cy="454" r="10" class="c0"/>
<circle cx="1056" cy="944" r="10" class="c0"/>
<circle cx="1296" cy="884" r="10" class="c0"/>
<circle cx="664" cy="416" r="10" class="c0"/>
<circle cx="638" cy="540" r="10" class="c0"/>
<circle cx="1036" cy="618" r="10" class="c0"/>
<circle cx="868" cy="546" r="10" class="c0"/>
<circle cx="792" cy="684" r="10" class="c0"/>
<circle cx="1132" cy="674" r="10" class="c0"/>
<circle cx="1310" cy="1000" r="10" class="c0"/>
<circle cx="878" cy="656" r="10" class="c0"/>
<circle cx="960" cy="562" r="10" class="c0"/>
<circle cx="972" cy="812" r="10" class="c0"/>
<circle cx="1022" cy="814" r="10" class="c0"/>
<circle cx="826" cy="518" r="10" class="c0"/>
<circle cx="1158" cy="790" r="10" class="c0"/>
<circle cx="1214" cy="1008" r="10" class="c0"/>
<circle cx="636" cy="476" r="10" class="c0"/>
<circle cx="1018" cy="782" r="10" class="c0"/>
<circle cx="830" cy="732" r="10" class="c0"/>
<circle cx="980" cy="784" r="10" class="c0"/>
<circle cx="1030" cy="672" r="10" class="c0"/>
<circle cx="726" cy="522" r="10" class="c0"/>
<circle cx="1094" cy="886" r="10" class="c0"/>
<circle cx="762" cy="584" r="8" class="c0"/>
<circle cx="754" cy="634" r="8" class="c0"/>
<circle cx="728" cy="460" r="8" class="c0"/>
<circle cx="1044" cy="790" r="8" class="c0"/>
<circle cx="1142" cy="962" r="8" class="c0"/>
<circle cx="1002" cy="636" r="8" class="c0"/>
<circle cx="804" cy="586" r="8" class="c0"/>
<circle cx="1036" cy="864" r="8" class="c0"/>
<circle cx="824" cy="766" r="8" class="c0"/>
<circle cx="714" cy="674" r="8" class="c0"/>
<circle cx="944" cy="818" r="8" class="c0"/>
<circle cx="806" cy="476" r="8" class="c0"/>
<circle cx="910" cy="540" r="8" class="c0"/>
<circle cx="766" cy="492" r="8" class="c0"/>
<circle cx="1130" cy="776" r="8" class="c0"/>
<circle cx="928" cy="620" r="8" class="c0"/>
<circle cx="718" cy="586" r="8" class="c0"/>
<circle cx="1146" cy="692" r="8" class="c0"/>
<circle cx="706" cy="444" r="8" class="c0"/>
<circle cx="812" cy="724" r="8" class="c0"/>
<circle cx="1332" cy="878" r="8" class="c0"/>
<circle cx="1228" cy="748" r="8" class="c0"/>
<circle cx="762" cy="674" r="8" class="c0"/>
<circle cx="1094" cy="966" r="8" class="c0"/>
<circle cx="1258" cy="1018" r="8" class="c0"/>
<circle cx="1284" cy="796" r="8" class="c0"/>
<circle cx="972" cy="714" r="8" class="c0"/>
<circle cx="742" cy="498" r="8" class="c0"/>
<circle cx="1104" cy="782" r="8" class="c0"/>
<circle cx="1046" cy="826" r="8" class="c0"/>
<circle cx="1062" cy="776" r="8" class="c0"/>
<circle cx="884" cy="560" r="8" class="c0"/>
<circle cx="1164" cy="916" r="8" class="c0"/>
<circle cx="1034" cy="936" r="8" class="c0"/>
<circle cx="1074" cy="870" r="8" class="c0"/>
<circle cx="880" cy="816" r="8" class="c0"/>
<circle cx="782" cy="736" r="8" class="c0"/>
<circle cx="620" cy="506" r="8" class="c0"/>
<circle cx="1068" cy="958" r="8" class="c0"/>
<circle cx="808" cy="744" r="8" class="c0"/>
<circle cx="1284" cy="862" r="8" class="c0"/>
<circle cx="1104" cy="826" r="8" class="c0"/>
<circle cx="1114" cy="896" r="8" class="c0"/>
<circle cx="818" cy="654" r="8" class="c0"/>
<circle cx="936" cy="572" r="8" class="c0"/>
<circle cx="1126" cy="838" r="8" class="c0"/>
<circle cx="886" cy="738" r="8" class="c0"/>
<circle cx="756" cy="564" r="8" class="c0"/>
<circle cx="990" cy="836" r="8" class="c0"/>
<circle cx="1210" cy="834" r="8" class="c0"/>
<circle cx="798" cy="534" r="8" class="c0"/>
<circle cx="1072" cy="642" r="8" class="c0"/>
<circle cx="1118" cy="982" r="8" class="c0"/>
<circle cx="1268" cy="938" r="8" class="c0"/>
<circle cx="968" cy="592" r="8" class="c0"/>
<circle cx="950" cy="650" r="8" class="c0"/>
<circle cx="1190" cy="932" r="8" class="c0"/>
<circle cx="824" cy="494" r="8" class="c0"/>
<circle cx="1222" cy="854" r="8" class="c0"/>
<circle cx="1132" cy="862" r="8" class="c0"/>
<circle cx="796" cy="630" r="8" class="c0"/>
<circle cx="1110" cy="938" r="8" class="c0"/>
<circle cx="1136" cy="722" r="8" class="c0"/>
<circle cx="1356" cy="898" r="8" class="c0"/>
<circle cx="1262" cy="858" r="8" class="c0"/>
<circle cx="992" cy="884" r="8" class="c0"/>
<circle cx="734" cy="632" r="8" class="c0"/>
<circle cx="1294" cy="986" r="8" class="c0"/>
<circle cx="950" cy="744" r="8" class="c0"/>
<circle cx="1002" cy="822" r="8" class="c0"/>
<circle cx="770" cy="726" r="8" class="c0"/>
<circle cx="1014" cy="602" r="8" class="c0"/>
<circle cx="1016" cy="732" r="8" class="c0"/>
<circle cx="856" cy="652" r="8" class="c0"/>
<circle cx="1012" cy="834" r="8" class="c0"/>
<circle cx="852" cy="720" r="8" class="c0"/>
<circle cx="1138" cy="940" r="8" class="c0"/>
<circle cx="1048" cy="686" r="8" class="c0"/>
<circle cx="1152" cy="996" r="8" class="c0"/>
<circle cx="942" cy="840" r="8" class="c0"/>
<circle cx="788" cy="466" r="8" class="c0"/>
<circle cx="794" cy="720" r="8" class="c0"/>
<circle cx="886" cy="528" r="8" class="c0"/>
<circle cx="914" cy="674" r="8" class="c0"/>
<circle cx="708" cy="648" r="8" class="c0"/>
<circle cx="1140" cy="916" r="8" class="c0"/>
<circle cx="894" cy="586" r="8" class="c0"/>
<circle cx="732" cy="694" r="8" class="c0"/>
<circle cx="1182" cy="788" r="8" class="c0"/>
<circle cx="946" cy="672" r="8" class="c0"/>
<circle cx="1026" cy="874" r="8" class="c0"/>
<circle cx="984" cy="868" r="8" class="c0"/>
<circle cx="684" cy="564" r="8" class="c0"/>
<circle cx="824" cy="608" r="8" class="c0"/>
<circle cx="1110" cy="720" r="8" class="c0"/>
<circle cx="1214" cy="892" r="8" class="c0"/>
<circle cx="690" cy="644" r="8" class="c0"/>
<circle cx="896" cy="668" r="8" class="c0"/>
<circle cx="846" cy="702" r="8" class="c0"/>
<circle cx="1170" cy="976" r="8" class="c0"/>
<circle cx="678" cy="428" r="8" class="c0"/>
<circle cx="968" cy="764" r="8" class="c0"/>
<circle cx="938" cy="698" r="8" class="c0"/>
<circle cx="1174" cy="834" r="8" class="c0"/>
<circle cx="1186" cy="870" r="8" class="c0"/>
<circle cx="1046" cy="852" r="8" class="c0"/>
<circle cx="1148" cy="774" r="8" class="c0"/>
<circle cx="808" cy="618" r="8" class="c0"/>
<circle cx="1206" cy="918" r="8" class="c0"/>
<circle cx="962" cy="888" r="8" class="c0"/>
<circle cx="1088" cy="710" r="8" class="c0"/>
<circle cx="1050" cy="660" r="8" class="c0"/>
<circle cx="1282" cy="838" r="8" class="c0"/>
<circle cx="626" cy="454" r="8" class="c0"/>
<circle cx="696" cy="580" r="8" class="c0"/>
<circle cx="1276" cy="1036" r="8" class="c0"/>
<circle cx="1060" cy="672" r="8" class="c0"/>
<circle cx="960" cy="836" r="8" class="c0"/>
<circle cx="796" cy="504" r="8" class="c0"/>
<circle cx="1050" cy="924" r="8" class="c0"/>
<circle cx="818" cy="576" r="8" class="c0"/>
<circle cx="948" cy="858" r="8" class="c0"/>
<circle cx="916" cy="754" r="8" class="c0"/>
<circle cx="1254" cy="922" r="8" class="c0"/>
<circle cx="718" cy="484" r="8" class="c0"/>
<circle cx="866" cy="600" r="8" class="c0"/>
<circle cx="992" cy="584" r="8" class="c0"/>
<circle cx="1156" cy="844" r="8" class="c0"/>
<circle cx="1246" cy="1006" r="8" class="c0"/>
<circle cx="1088" cy="816" r="8" class="c0"/>
<circle cx="798" cy="564" r="8" class="c0"/>
<circle cx="1022" cy="698" r="8" class="c0"/>
<circle cx="896" cy="726" r="8" class="c0"/>
<circle cx="1102" cy="846" r="8" class="c0"/>
<circle cx="836" cy="792" r="8" class="c0"/>
<circle cx="1098" cy="698" r="8" class="c0"/>
<circle cx="1022" cy="652" r="8" class="c0"/>
<circle cx="780" cy="526" r="8" class="c0"/>
<circle cx="936" cy="872" r="8" class="c0"/>
<circle cx="1248" cy="940" r="8" class="c0"/>
<circle cx="1122" cy="696" r="8" class="c0"/>
<circle cx="672" cy="576" r="8" class="c0"/>
<circle cx="1212" cy="864" r="8" class="c0"/>
<circle cx="804" cy="762" r="8" class="c0"/>
<circle cx="942" cy="720" r="8" class="c0"/>
<circle cx="1220" cy="772" r="8" class="c0"/>
<circle cx="1166" cy="1010" r="8" class="c0"/>
<circle cx="750" cy="686" r="8" class="c0"/>
<circle cx="976" cy="898" r="8" class="c0"/>
<circle cx="1140" cy="984" r="8" class="c0"/>
<circle cx="926" cy="764" r="8" class="c0"/>
<circle cx="834" cy="646" r="8" class="c0"/>
<circle cx="1242" cy="804" r="8" class="c0"/>
<circle cx="684" cy="514" r="8" class="c0"/>
<circle cx="794" cy="660" r="8" class="c0"/>
<circle cx="648" cy="458" r="8" class="c0"/>
<circle cx="780" cy="670" r="8" class="c0"/>
<circle cx="822" cy="674" r="8" class="c0"/>
<circle cx="612" cy="478" r="8" class="c0"/>
<circle cx="1084" cy="792" r="8" class="c0"/>
<circle cx="1294" cy="1018" r="8" class="c0"/>
<circle cx="904" cy="600" r="8" class="c0"/>
<circle cx="1114" cy="660" r="8" class="c0"/>
<circle cx="1272" cy="976" r="8" class="c0"/>
<circle cx="1196" cy="894" r="8" class="c0"/>
<circle cx="826" cy="628" r="8" class="c0"/>
<circle cx="1060" cy="632" r="8" class="c0"/>
<circle cx="1318" cy="860" r="8" class="c0"/>
<circle cx="874" cy="624" r="8" class="c0"/>
<circle cx="1308" cy="926" r="8" class="c0"/>
<circle cx="1006" cy="874" r="8" class="c0"/>
<circle cx="1188" cy="950" r="8" class="c0"/>
<circle cx="994" cy="906" r="8" class="c0"/>
<circle cx="1122" cy="928" r="8" class="c0"/>
<circle cx="1000" cy="742" r="8" class="c0"/>
<circle cx="888" cy="756" r="8" class="c0"/>
<circle cx="618" cy="422" r="8" class="c0"/>
<circle cx="932" cy="548" r="8" class="c0"/>
<circle cx="892" cy="642" r="8" class="c0"/>
<circle cx="788" cy="596" r="8" class="c0"/>
<circle cx="668" cy="442" r="8" class="c0"/>
<circle cx="1034" cy="800" r="8" class="c0"/>
<circle cx="956" cy="582" r="8" class="c0"/>
<circle cx="738" cy="574" r="8" class="c0"/>
<circle cx="1100" cy="910" r="8" class="c0"/>
<circle cx="844" cy="582" r="8" class="c0"/>
<circle cx="624" cy="524" r="8" class="c0"/>
<circle cx="702" cy="520" r="8" class="c0"/>
<circle cx="920" cy="580" r="8" class="c0"/>
<circle cx="1150" cy="906" r="8" class="c0"/>
<circle cx="844" cy="670" r="8" class="c0"/>
<circle cx="1018" cy="752" r="8" class="c0"/>
<circle cx="1344" cy="868" r="8" class="c0"/>
<circle cx="1114" cy="960" r="8" class="c0"/>
<circle cx="896" cy="804" r="8" class="c0"/>
<circle cx="696" cy="422" r="8" class="c0"/>
<circle cx="1006" cy="916" r="8" class="c0"/>
<circle cx="774" cy="570" r="8" class="c0"/>
<circle cx="1164" cy="750" r="8" class="c0"/>
<circle cx="746" cy="448" r="8" class="c0"/>
<circle cx="1284" cy="818" r="8" class="c0"/>
<circle cx="830" cy="540" r="8" class="c0"/>
<circle cx="960" cy="640" r="8" class="c0"/>
<circle cx="636" cy="560" r="8" class="c0"/>
<circle cx="956" cy="798" r="8" class="c0"/>
<circle cx="798" cy="608" r="8" class="c0"/>
<circle cx="730" cy="436" r="8" class="c0"/>
<circle cx="746" cy="662" r="8" class="c0"/>
<circle cx="1236" cy="956" r="8" class="c0"/>
<circle cx="1270" cy="958" r="8" class="c0"/>
<circle cx="1206" cy="750" r="8" class="c0"/>
<circle cx="1202" cy="770" r="8" class="c0"/>
<circle cx="844" cy="744" r="8" class="c0"/>
<circle cx="862" cy="732" r="8" class="c0"/>
<circle cx="786" cy="488" r="8" class="c0"/>
<circle cx="1100" cy="804" r="8" class="c0"/>
<circle cx="702" cy="604" r="8" class="c0"/>
<circle cx="1172" cy="884" r="8" class="c0"/>
<circle cx="906" cy="740" r="8" class="c0"/>
<circle cx="652" cy="584" r="8" class="c0"/>
<circle cx="1070" cy="660" r="8" class="c0"/>
<circle cx="942" cy="632" r="8" class="c0"/>
<circle cx="734" cy="674" r="8" class="c0"/>
<circle cx="914" cy="724" r="8" class="c0"/>
<circle cx="1232" cy="1026" r="8" class="c0"/>
<circle cx="762" cy="604" r="8" class="c0"/>
<circle cx="608" cy="438" r="8" class="c0"/>
<circle cx="728" cy="598" r="8" class="c0"/>
<circle cx="1274" cy="876" r="8" class="c0"/>
<circle cx="768" cy="512" r="8" class="c0"/>
<circle cx="1090" cy="858" r="8" class="c0"/>
<circle cx="878" cy="692" r="8" class="c0"/>
<circle cx="1308" cy="872" r="8" class="c0"/>
<circle cx="1092" cy="772" r="8" class="c0"/>
<circle cx="1324" cy="978" r="8" class="c0"/>
<circle cx="606" cy="460" r="8" class="c0"/>
<circle cx="704" cy="630" r="8" class="c0"/>
<circle cx="908" cy="816" r="8" class="c0"/>
<circle cx="954" cy="690" r="8" class="c0"/>
<circle cx="980" cy="754" r="8" class="c0"/>
<circle cx="708" cy="472" r="8" class="c0"/>
<circle cx="1012" cy="622" r="8" class="c0"/>
<circle cx="642" cy="510" r="8" class="c0"/>
<circle cx="1310" cy="944" r="8" class="c0"/>
<circle cx="988" cy="648" r="8" class="c0"/>
<circle cx="1180" cy="710" r="8" class="c0"/>
<circle cx="1184" cy="820" r="6" class="c0"/>
<circle cx="1034" cy="734" r="6" class="c0"/>
<circle cx="702" cy="546" r="6" class="c0"/>
<circle cx="1112" cy="682" r="6" class="c0"/>
<circle cx="1150" cy="928" r="6" class="c0"/>
<circle cx="1234" cy="892" r="6" class="c0"/>
<circle cx="960" cy="872" r="6" class="c0"/>
<circle cx="1194" cy="806" r="6" class="c0"/>
<circle cx="1208" cy="810" r="6" class="c0"/>
<circle cx="978" cy="568" r="6" class="c0"/>
<circle cx="1204" cy="942" r="6" class="c0"/>
<circle cx="870" cy="516" r="6" class="c0"/>
<circle cx="1192" cy="966" r="6" class="c0"/>
<circle cx="1014" cy="684" r="6" class="c0"/>
<circle cx="630" cy="494" r="6" class="c0"/>
<circle cx="1128" cy="970" r="6" class="c0"/>
<circle cx="1064" cy="826" r="6" class="c0"/>
<circle cx="1160" cy="896" r="6" class="c0"/>
<circle cx="838" cy="686" r="6" class="c0"/>
<circle cx="746" cy="592" r="6" class="c0"/>
<circle cx="842" cy="766" r="6" class="c0"/>
<circle cx="1166" cy="700" r="6" class="c0"/>
<circle cx="898" cy="766" r="6" class="c0"/>
<circle cx="1200" cy="786" r="6" class="c0"/>
<circle cx="1176" cy="726" r="6" class="c0"/>
<circle cx="1330" cy="958" r="6" class="c0"/>
<circle cx="598" cy="408" r="6" class="c0"/>
<circle cx="760" cy="436" r="6" class="c0"/>
<circle cx="1120" cy="734" r="6" class="c0"/>
<circle cx="714" cy="534" r="6" class="c0"/>
<circle cx="932" cy="660" r="6" class="c0"/>
<circle cx="1202" cy="958" r="6" class="c0"/>
<circle cx="1002" cy="692" r="6" class="c0"/>
<circle cx="1270" cy="804" r="6" class="c0"/>
<circle cx="870" cy="674" r="6" class="c0"/>
<circle cx="1116" cy="794" r="6" class="c0"/>
<circle cx="814" cy="596" r="6" class="c0"/>
<circle cx="1098" cy="950" r="6" class="c0"/>
<circle cx="1080" cy="742" r="6" class="c0"/>
<circle cx="1242" cy="902" r="6" class="c0"/>
<circle cx="930" cy="680" r="6" class="c0"/>
<circle cx="1020" cy="928" r="6" class="c0"/>
<circle cx="1262" cy="786" r="6" class="c0"/>
<circle cx="644" cy="412" r="6" class="c0"/>
<circle cx="1016" cy="864" r="6" class="c0"/>
<circle cx="954" cy="710" r="6" class="c0"/>
<circle cx="664" cy="506" r="6" class="c0"/>
<circle cx="986" cy="726" r="6" class="c0"/>
<circle cx="860" cy="616" r="6" class="c0"/>
<circle cx="1152" cy="974" r="6" class="c0"/>
<circle cx="778" cy="502" r="6" class="c0"/>
<circle cx="780" cy="638" r="6" class="c0"/>
<circle cx="830" cy="474" r="6" class="c0"/>
<circle cx="798" cy="704" r="6" class="c0"/>
<circle cx="1070" cy="682" r="6" class="c0"/>
<circle cx="672" cy="620" r="6" class="c0"/>
<circle cx="1256" cy="1046" r="6" class="c0"/>
<circle cx="814" cy="530" r="6" class="c0"/>
<circle cx="904" cy="710" r="6" class="c0"/>
<circle cx="1136" cy="704" r="6" class="c0"/>
<circle cx="1184" cy="1010" r="6" class="c0"/>
<circle cx="970" cy="608" r="6" class="c0"/>
<circle cx="1060" cy="860" r="6" class="c0"/>
<circle cx="1052" cy="908" r="6" class="c0"/>
<circle cx="1132" cy="900" r="6" class="c0"/>
<circle cx="1290" cy="928" r="6" class="c0"/>
<circle cx="716" cy="428" r="6" class="c0"/>
<circle cx="674" cy="496" r="6" class="c0"/>
<circle cx="792" cy="450" r="6" class="c0"/>
<circle cx="990" cy="700" r="6" class="c0"/>
<circle cx="1160" cy="964" r="6" class="c0"/>
<circle cx="1302" cy="820" r="6" class="c0"/>
<circle cx="1140" cy="788" r="6" class="c0"/>
<circle cx="776" cy="476" r="6" class="c0"/>
<circle cx="804" cy="672" r="6" class="c0"/>
<circle cx="1180" cy="746" r="6" class="c0"/>
<circle cx="1172" cy="852" r="6" class="c0"/>
<circle cx="832" cy="712" r="6" class="c0"/>
<circle cx="1044" cy="810" r="6" class="c0"/>
<circle cx="1256" cy="874" r="6" class="c0"/>
<circle cx="1240" cy="760" r="6" class="c0"/>
<circle cx="790" cy="754" r="6" class="c0"/>
<circle cx="1176" cy="960" r="6" class="c0"/>
<circle cx="1214" cy="952" r="6" class="c0"/>
<circle cx="604" cy="494" r="6" class="c0"/>
<circle cx="1352" cy="882" r="6" class="c0"/>
<circle cx="738" cy="482" r="6" class="c0"/>
<circle cx="1080" cy="696" r="6" class="c0"/>
<circle cx="1162" cy="766" r="6" class="c0"/>
<circle cx="1248" cy="1028" r="6" class="c0"/>
<circle cx="672" cy="546" r="6" class="c0"/>
<circle cx="832" cy="592" r="6" class="c0"/>
<circle cx="1200" cy="818" r="6" class="c0"/>
<circle cx="758" cy="546" r="6" class="c0"/>
<circle cx="966" cy="674" r="6" class="c0"/>
<circle cx="882" cy="510" r="6" class="c0"/>
<circle cx="896" cy="550" r="6" class="c0"/>
<circle cx="918" cy="608" r="6" class="c0"/>
<circle cx="816" cy="638" r="6" class="c0"/>
<circle cx="786" cy="580" r="6" class="c0"/>
<circle cx="940" cy="756" r="6" class="c0"/>
<circle cx="902" cy="522" r="6" class="c0"/>
<circle cx="1022" cy="634" r="6" class="c0"/>
<circle cx="878" cy="590" r="6" class="c0"/>
<circle cx="1112" cy="856" r="6" class="c0"/>
<circle cx="1202" cy="878" r="6" class="c0"/>
<circle cx="946" cy="882" r="6" class="c0"/>
<circle cx="964" cy="700" r="6" class="c0"/>
<circle cx="974" cy="878" r="6" class="c0"/>
<circle cx="1080" cy="832" r="6" class="c0"/>
<circle cx="1142" cy="836" r="6" class="c0"/>
<circle cx="1260" cy="842" r="6" class="c0"/>
<circle cx="874" cy="748" r="6" class="c0"/>
<circle cx="814" cy="506" r="6" class="c0"/>
<circle cx="834" cy="756" r="6" class="c0"/>
<circle cx="1342" cy="890" r="6" class="c0"/>
<circle cx="874" cy="800" r="6" class="c0"/>
<circle cx="962" cy="780" r="6" class="c0"/>
<circle cx="808" cy="492" r="6" class="c0"/>
<circle cx="956" cy="728" r="6" class="c0"/>
<circle cx="868" cy="772" r="6" class="c0"/>
<circle cx="990" cy="808" r="6" class="c0"/>
<circle cx="948" cy="546" r="6" class="c0"/>
<circle cx="884" cy="832" r="6" class="c0"/>
<circle cx="742" cy="706" r="6" class="c0"/>
<circle cx="1216" cy="738" r="6" class="c0"/>
<circle cx="1206" cy="992" r="6" class="c0"/>
<circle cx="686" cy="412" r="6" class="c0"/>
<circle cx="1272" cy="848" r="6" class="c0"/>
<circle cx="772" cy="686" r="6" class="c0"/>
<circle cx="1128" cy="950" r="6" class="c0"/>
<circle cx="840" cy="484" r="6" class="c0"/>
<circle cx="1286" cy="966" r="6" class="c0"/>
<circle cx="1120" cy="912" r="6" class="c0"/>
<circle cx="752" cy="508" r="6" class="c0"/>
<circle cx="1328" cy="848" r="6" class="c0"/>
<circle cx="784" cy="708" r="6" class="c0"/>
<circle cx="1174" cy="930" r="6" class="c0"/>
<circle cx="1298" cy="1034" r="6" class="c0"/>
<circle cx="1168" cy="734" r="6" class="c0"/>
<circle cx="1202" cy="1020" r="6" class="c0"/>
<circle cx="804" cy="644" r="6" class="c0"/>
<circle cx="976" cy="638" r="6" class="c0"/>
<circle cx="718" cy="638" r="6" class="c0"/>
<circle cx="868" cy="640" r="6" class="c0"/>
<circle cx="694" cy="502" r="6" class="c0"/>
<circle cx="1192" cy="830" r="6" class="c0"/>
<circle cx="744" cy="646" r="6" class="c0"/>
<circle cx="922" cy="692" r="6" class="c0"/>
<circle cx="822" cy="782" r="6" class="c0"/>
<circle cx="1098" cy="926" r="6" class="c0"/>
<circle cx="836" cy="618" r="6" class="c0"/>
<circle cx="836" cy="504" r="6" class="c0"/>
<circle cx="656" cy="432" r="6" class="c0"/>
<circle cx="806" cy="518" r="6" class="c0"/>
<circle cx="1126" cy="712" r="6" class="c0"/>
<circle cx="980" cy="670" r="6" class="c0"/>
<circle cx="888" cy="704" r="6" class="c0"/>
<circle cx="694" cy="554" r="6" class="c0"/>
<circle cx="1100" cy="868" r="6" class="c0"/>
<circle cx="1038" cy="696" r="6" class="c0"/>
<circle cx="1318" cy="886" r="6" class="c0"/>
<circle cx="698" cy="658" r="6" class="c0"/>
<circle cx="596" cy="484" r="6" class="c0"/>
<circle cx="1082" cy="910" r="6" class="c0"/>
<circle cx="1054" cy="616" r="6" class="c0"/>
<circle cx="1238" cy="924" r="6" class="c0"/>
<circle cx="1010" cy="586" r="6" class="c0"/>
<circle cx="1146" cy="854" r="6" class="c0"/>
<circle cx="1170" cy="776" r="6" class="c0"/>
<circle cx="886" cy="678" r="6" class="c0"/>
<circle cx="772" cy="594" r="6" class="c0"/>
<circle cx="834" cy="776" r="6" class="c0"/>
<circle cx="1280" cy="892" r="6" class="c0"/>
<circle cx="1102" cy="980" r="6" class="c0"/>
<circle cx="1254" cy="794" r="6" class="c0"/>
<circle cx="952" cy="766" r="6" class="c0"/>
<circle cx="1052" cy="868" r="6" class="c0"/>
<circle cx="866" cy="792" r="6" class="c0"/>
<circle cx="768" cy="420" r="6" class="c0"/>
</svg>
