<?xml version="1.0" encoding="utf-8"?>
<svg xmlns="http://www.w3.org/2000/svg"
     xmlns:xlink="http://www.w3.org/1999/xlink" width="1920" height="1440" >

            <defs>
            <style type="text/css"><![CDATA[
circle {stroke: none;}
.c0 {fill: #FFFFFF;}
]]></style>
            </defs>
<rect x="0" y="0" width="1920" height="1440" fill="black"/>
<circle cx="516" cy="848" r="14" class="c0"/>
<circle cx="688" cy="850" r="12" class="c0"/>
<circle cx="908" cy="642" r="12" class="c0"/>
<circle cx="838" cy="804" r="12" class="c0"/>
<circle cx="1176" cy="748" r="12" class="c0"/>
<circle cx="818" cy="674" r="12" class="c0"/>
<circle cx="614" cy="870" r="12" class="c0"/>
<circle cx="1098" cy="610" r="12" class="c0"/>
<circle cx="858" cy="520" r="12" class="c0"/>
<circle cx="1028" cy="688" r="12" class="c0"/>
<circle cx="738" cy="940" r="12" class="c0"/>
<circle cx="1264" cy="714" r="12" class="c0"/>
<circle cx="638" cy="738" r="12" class="c0"/>
<circle cx="680" cy="760" r="12" class="c0"/>
<circle cx="982" cy="758" r="12" class="c0"/>
<circle cx="1166" cy="684" r="12" class="c0"/>
<circle cx="934" cy="828" r="12" class="c0"/>
<circle cx="1134" cy="654" r="12" class="c0"/>
<circle cx="1124" cy="692" r="12" class="c0"/>
<circle cx="818" cy="858" r="12" class="c0"/>
<circle cx="1404" cy="606" r="12" class="c0"/>
<circle cx="1262" cy="562" r="12" class="c0"/>
<circle cx="586" cy="786" r="12" class="c0"/>
<circle cx="1200" cy="704" r="12" class="c0"/>
<circle cx="964" cy="836" r="12" class="c0"/>
<circle cx="1062" cy="674" r="12" class="c0"/>
<circle cx="730" cy="772" r="12" class="c0"/>
<circle cx="748" cy="688" r="12" class="c0"/>
<circle cx="900" cy="760" r="12" class="c0"/>
<circle cx="550" cy="764" r="12" class="c0"/>
<circle cx="732" cy="912" r="12" class="c0"/>
<circle cx="1146" cy="716" r="12" class="c0"/>
<circle cx="1202" cy="594" r="12" class="c0"/>
<circle cx="1120" cy="598" r="12" class="c0"/>
<circle cx="668" cy="882" r="12" class="c0"/>
<circle cx="956" cy="860" r="12" class="c0"/>
<circle cx="976" cy="886" r="12" class="c0"/>
<circle cx="1316" cy="612" r="12" class="c0"/>
<circle cx="952" cy="718" r="12" class="c0"/>
<circle cx="610" cy="754" r="10" class="c0"/>
<circle cx="870" cy="704" r="10" class="c0"/>
<circle cx="736" cy="538" r="10" class="c0"/>
<circle cx="784" cy="872" r="10" class="c0"/>
<circle cx="608" cy="816" r="10" class="c0"/>
<circle cx="872" cy="870" r="10" class="c0"/>
<circle cx="1062" cy="814" r="10" class="c0"/>
<circle cx="866" cy="798" r="10" class="c0"/>
<circle cx="966" cy="614" r="10" class="c0"/>
<circle cx="656" cy="788" r="10" class="c0"/>
<circle cx="634" cy="882" r="10" class="c0"/>
<circle cx="1122" cy="818" r="10" class="c0"/>
<circle cx="706" cy="638" r="10" class="c0"/>
<circle cx="714" cy="808" r="10" class="c0"/>
<circle cx="1170" cy="794" r="10" class="c0"/>
<circle cx="1156" cy="628" r="10" class="c0"/>
<circle cx="1260" cy="638" r="10" class="c0"/>
<circle cx="820" cy="910" r="10" class="c0"/>
<circle cx="580" cy="870" r="10" class="c0"/>
<circle cx="1176" cy="614" r="10" class="c0"/>
<circle cx="1184" cy="550" r="10" class="c0"/>
<circle cx="898" cy="784" r="10" class="c0"/>
<circle cx="1290" cy="716" r="10" class="c0"/>
<circle cx="1244" cy="536" r="10" class="c0"/>
<circle cx="1300" cy="650" r="10" class="c0"/>
<circle cx="892" cy="700" r="10" class="c0"/>
<circle cx="946" cy="782" r="10" class="c0"/>
<circle cx="506" cy="794" r="10" class="c0"/>
<circle cx="862" cy="836" r="10" class="c0"/>
<circle cx="714" cy="558" r="10" class="c0"/>
<circle cx="664" cy="734" r="10" class="c0"/>
<circle cx="702" cy="592" r="10" class="c0"/>
<circle cx="742" cy="724" r="10" class="c0"/>
<circle cx="770" cy="858" r="10" class="c0"/>
<circle cx="604" cy="890" r="10" class="c0"/>
<circle cx="472" cy="802" r="10" class="c0"/>
<circle cx="1296" cy="580" r="10" class="c0"/>
<circle cx="710" cy="712" r="10" class="c0"/>
<circle cx="740" cy="880" r="10" class="c0"/>
<circle cx="590" cy="848" r="10" class="c0"/>
<circle cx="1080" cy="836" r="10" class="c0"/>
<circle cx="684" cy="900" r="10" class="c0"/>
<circle cx="1094" cy="640" r="10" class="c0"/>
<circle cx="1124" cy="778" r="10" class="c0"/>
<circle cx="1072" cy="636" r="10" class="c0"/>
<circle cx="1002" cy="824" r="10" class="c0"/>
<circle cx="1242" cy="696" r="10" class="c0"/>
<circle cx="1030" cy="778" r="10" class="c0"/>
<circle cx="524" cy="818" r="10" class="c0"/>
<circle cx="1056" cy="738" r="10" class="c0"/>
<circle cx="1244" cy="578" r="10" class="c0"/>
<circle cx="684" cy="824" r="10" class="c0"/>
<circle cx="1346" cy="572" r="10" class="c0"/>
<circle cx="1240" cy="602" r="10" class="c0"/>
<circle cx="1368" cy="632" r="10" class="c0"/>
<circle cx="650" cy="934" r="10" class="c0"/>
<circle cx="488" cy="816" r="10" class="c0"/>
<circle cx="842" cy="772" r="10" class="c0"/>
<circle cx="1110" cy="574" r="10" class="c0"/>
<circle cx="1266" cy="608" r="10" class="c0"/>
<circle cx="720" cy="960" r="10" class="c0"/>
<circle cx="824" cy="724" r="10" class="c0"/>
<circle cx="1002" cy="710" r="10" class="c0"/>
<circle cx="872" cy="738" r="10" class="c0"/>
<circle cx="936" cy="804" r="10" class="c0"/>
<circle cx="1340" cy="606" r="10" class="c0"/>
<circle cx="820" cy="766" r="10" class="c0"/>
<circle cx="802" cy="732" r="10" class="c0"/>
<circle cx="758" cy="896" r="10" class="c0"/>
<circle cx="1036" cy="720" r="10" class="c0"/>
<circle cx="786" cy="904" r="10" class="c0"/>
<circle cx="886" cy="894" r="10" class="c0"/>
<circle cx="498" cy="876" r="10" class="c0"/>
<circle cx="708" cy="888" r="10" class="c0"/>
<circle cx="570" cy="894" r="10" class="c0"/>
<circle cx="1280" cy="740" r="10" class="c0"/>
<circle cx="858" cy="564" r="10" class="c0"/>
<circle cx="806" cy="886" r="10" class="c0"/>
<circle cx="650" cy="760" r="10" class="c0"/>
<circle cx="686" cy="712" r="10" class="c0"/>
<circle cx="924" cy="778" r="10" class="c0"/>
<circle cx="584" cy="810" r="10" class="c0"/>
<circle cx="1374" cy="598" r="10" class="c0"/>
<circle cx="1108" cy="718" r="10" class="c0"/>
<circle cx="1008" cy="670" r="10" class="c0"/>
<circle cx="732" cy="706" r="10" class="c0"/>
<circle cx="1148" cy="760" r="10" class="c0"/>
<circle cx="1200" cy="662" r="10" class="c0"/>
<circle cx="828" cy="516" r="10" class="c0"/>
<circle cx="1174" cy="710" r="10" class="c0"/>
<circle cx="1124" cy="736" r="10" class="c0"/>
<circle cx="898" cy="730" r="10" class="c0"/>
<circle cx="678" cy="688" r="10" class="c0"/>
<circle cx="1240" cy="760" r="10" class="c0"/>
<circle cx="874" cy="682" r="10" class="c0"/>
<circle cx="1090" cy="758" r="10" class="c0"/>
<circle cx="974" cy="658" r="10" class="c0"/>
<circle cx="900" cy="872" r="10" class="c0"/>
<circle cx="612" cy="928" r="10" class="c0"/>
<circle cx="1100" cy="810" r="10" class="c0"/>
<circle cx="558" cy="798" r="10" class="c0"/>
<circle cx="926" cy="728" r="10" class="c0"/>
<circle cx="1082" cy="732" r="10" class="c0"/>
<circle cx="678" cy="798" r="10" class="c0"/>
<circle cx="1302" cy="678" r="10" class="c0"/>
<circle cx="810" cy="788" r="10" class="c0"/>
<circle cx="1036" cy="624" r="10" class="c0"/>
<circle cx="546" cy="898" r="10" class="c0"/>
<circle cx="770" cy="792" r="10" class="c0"/>
<circle cx="1326" cy="706" r="10" class="c0"/>
<circle cx="1162" cy="566" r="10" class="c0"/>
<circle cx="1092" cy="784" r="10" class="c0"/>
<circle cx="982" cy="698" r="10" class="c0"/>
<circle cx="834" cy="696" r="10" class="c0"/>
<circle cx="1408" cy="630" r="10" class="c0"/>
<circle cx="708" cy="938" r="10" class="c0"/>
<circle cx="630" cy="960" r="10" class="c0"/>
<circle cx="834" cy="834" r="10" class="c0"/>
<circle cx="534" cy="778" r="10" class="c0"/>
<circle cx="1208" cy="764" r="10" class="c0"/>
<circle cx="598" cy="914" r="10" class="c0"/>
<circle cx="806" cy="824" r="10" class="c0"/>
<circle cx="1010" cy="752" r="10" class="c0"/>
<circle cx="436" cy="812" r="10" class="c0"/>
<circle cx="560" cy="844" r="10" class="c0"/>
<circle cx="1022" cy="592" r="10" class="c0"/>
<circle cx="728" cy="836" r="10" class="c0"/>
<circle cx="580" cy="936" r="10" class="c0"/>
<circle cx="1274" cy="676" r="10" class="c0"/>
<circle cx="1244" cy="670" r="10" class="c0"/>
<circle cx="1012" cy="870" r="10" class="c0"/>
<circle cx="1204" cy="740" r="10" class="c0"/>
<circle cx="914" cy="690" r="10" class="c0"/>
<circle cx="1036" cy="838" r="10" class="c0"/>
<circle cx="930" cy="662" r="10" class="c0"/>
<circle cx="1062" cy="772" r="10" class="c0"/>
<circle cx="1146" cy="822" r="10" class="c0"/>
<circle cx="1142" cy="610" r="10" class="c0"/>
<circle cx="1266" cy="756" r="10" class="c0"/>
<circle cx="908" cy="892" r="10" class="c0"/>
<circle cx="1146" cy="552" r="10" class="c0"/>
<circle cx="1092" cy="702" r="10" class="c0"/>
<circle cx="666" cy="956" r="10" class="c0"/>
<circle cx="850" cy="744" r="10" class="c0"/>
<circle cx="798" cy="800" r="8" class="c0"/>
<circle cx="1304" cy="540" r="8" class="c0"/>
<circle cx="798" cy="700" r="8" class="c0"/>
<circle cx="464" cy="824" r="8" class="c0"/>
<circle cx="794" cy="848" r="8" class="c0"/>
<circle cx="602" cy="836" r="8" class="c0"/>
<circle cx="1042" cy="802" r="8" class="c0"/>
<circle cx="856" cy="892" r="8" class="c0"/>
<circle cx="1204" cy="636" r="8" class="c0"/>
<circle cx="850" cy="584" r="8" class="c0"/>
<circle cx="1106" cy="668" r="8" class="c0"/>
<circle cx="596" cy="742" r="8" class="c0"/>
<circle cx="768" cy="922" r="8" class="c0"/>
<circle cx="1082" cy="682" r="8" class="c0"/>
<circle cx="704" cy="918" r="8" class="c0"/>
<circle cx="526" cy="894" r="8" class="c0"/>
<circle cx="968" cy="806" r="8" class="c0"/>
<circle cx="760" cy="828" r="8" class="c0"/>
<circle cx="1056" cy="584" r="8" class="c0"/>
<circle cx="686" cy="560" r="8" class="c0"/>
<circle cx="782" cy="722" r="8" class="c0"/>
<circle cx="754" cy="632" r="8" class="c0"/>
<circle cx="650" cy="834" r="8" class="c0"/>
<circle cx="782" cy="680" r="8" class="c0"/>
<circle cx="1340" cy="682" r="8" class="c0"/>
<circle cx="640" cy="822" r="8" class="c0"/>
<circle cx="840" cy="606" r="8" class="c0"/>
<circle cx="740" cy="754" r="8" class="c0"/>
<circle cx="678" cy="942" r="8" class="c0"/>
<circle cx="1178" cy="588" r="8" class="c0"/>
<circle cx="528" cy="868" r="8" class="c0"/>
<circle cx="758" cy="706" r="8" class="c0"/>
<circle cx="1018" cy="798" r="8" class="c0"/>
<circle cx="1274" cy="542" r="8" class="c0"/>
<circle cx="992" cy="636" r="8" class="c0"/>
<circle cx="472" cy="850" r="8" class="c0"/>
<circle cx="786" cy="770" r="8" class="c0"/>
<circle cx="948" cy="684" r="8" class="c0"/>
<circle cx="628" cy="798" r="8" class="c0"/>
<circle cx="682" cy="664" r="8" class="c0"/>
<circle cx="702" cy="534" r="8" class="c0"/>
<circle cx="774" cy="744" r="8" class="c0"/>
<circle cx="1286" cy="622" r="8" class="c0"/>
<circle cx="628" cy="916" r="8" class="c0"/>
<circle cx="874" cy="650" r="8" class="c0"/>
<circle cx="704" cy="774" r="8" class="c0"/>
<circle cx="910" cy="822" r="8" class="c0"/>
<circle cx="850" cy="714" r="8" class="c0"/>
<circle cx="720" cy="626" r="8" class="c0"/>
<circle cx="964" cy="774" r="8" class="c0"/>
<circle cx="1044" cy="600" r="8" class="c0"/>
<circle cx="824" cy="648" r="8" class="c0"/>
<circle cx="1314" cy="552" r="8" class="c0"/>
<circle cx="940" cy="744" r="8" class="c0"/>
<circle cx="910" cy="842" r="8" class="c0"/>
<circle cx="1054" cy="702" r="8" class="c0"/>
<circle cx="1014" cy="626" r="8" class="c0"/>
<circle cx="846" cy="868" r="8" class="c0"/>
<circle cx="1374" cy="654" r="8" class="c0"/>
<circle cx="864" cy="772" r="8" class="c0"/>
<circle cx="678" cy="616" r="8" class="c0"/>
<circle cx="1216" cy="674" r="8" class="c0"/>
<circle cx="1118" cy="638" r="8" class="c0"/>
<circle cx="562" cy="818" r="8" class="c0"/>
<circle cx="840" cy="636" r="8" class="c0"/>
<circle cx="1040" cy="748" r="8" class="c0"/>
<circle cx="928" cy="854" r="8" class="c0"/>
<circle cx="744" cy="558" r="8" class="c0"/>
<circle cx="1286" cy="556" r="8" class="c0"/>
<circle cx="748" cy="792" r="8" class="c0"/>
<circle cx="744" cy="618" r="8" class="c0"/>
<circle cx="980" cy="626" r="8" class="c0"/>
<circle cx="1024" cy="736" r="8" class="c0"/>
<circle cx="1188" cy="724" r="8" class="c0"/>
<circle cx="926" cy="874" r="8" class="c0"/>
<circle cx="672" cy="582" r="8" class="c0"/>
<circle cx="952" cy="758" r="8" class="c0"/>
<circle cx="1230" cy="562" r="8" class="c0"/>
<circle cx="668" cy="602" r="8" class="c0"/>
<circle cx="1178" cy="634" r="8" class="c0"/>
<circle cx="728" cy="674" r="8" class="c0"/>
<circle cx="1232" cy="644" r="8" class="c0"/>
<circle cx="978" cy="818" r="8" class="c0"/>
<circle cx="978" cy="862" r="8" class="c0"/>
<circle cx="1198" cy="572" r="8" class="c0"/>
<circle cx="1328" cy="662" r="8" class="c0"/>
<circle cx="1226" cy="722" r="8" class="c0"/>
<circle cx="1048" cy="636" r="8" class="c0"/>
<circle cx="946" cy="878" r="8" class="c0"/>
<circle cx="740" cy="816" r="8" class="c0"/>
<circle cx="1340" cy="638" r="8" class="c0"/>
<circle cx="700" cy="962" r="8" class="c0"/>
<circle cx="844" cy="504" r="8" class="c0"/>
<circle cx="844" cy="534" r="8" class="c0"/>
<circle cx="1002" cy="854" r="8" class="c0"/>
<circle cx="598" cy="950" r="8" class="c0"/>
<circle cx="658" cy="852" r="8" class="c0"/>
<circle cx="1074" cy="606" r="8" class="c0"/>
<circle cx="1212" cy="616" r="8" class="c0"/>
<circle cx="1024" cy="646" r="8" class="c0"/>
<circle cx="988" cy="838" r="8" class="c0"/>
<circle cx="954" cy="656" r="8" class="c0"/>
<circle cx="976" cy="724" r="8" class="c0"/>
<circle cx="880" cy="818" r="8" class="c0"/>
<circle cx="714" cy="684" r="8" class="c0"/>
<circle cx="730" cy="572" r="8" class="c0"/>
<circle cx="636" cy="862" r="8" class="c0"/>
<circle cx="540" cy="854" r="8" class="c0"/>
<circle cx="872" cy="544" r="8" class="c0"/>
<circle cx="1052" cy="792" r="8" class="c0"/>
<circle cx="732" cy="590" r="8" class="c0"/>
<circle cx="1176" cy="656" r="8" class="c0"/>
<circle cx="840" cy="908" r="8" class="c0"/>
<circle cx="1004" cy="730" r="8" class="c0"/>
<circle cx="754" cy="848" r="8" class="c0"/>
<circle cx="1052" cy="654" r="8" class="c0"/>
<circle cx="698" cy="620" r="8" class="c0"/>
<circle cx="946" cy="618" r="8" class="c0"/>
<circle cx="1156" cy="738" r="8" class="c0"/>
<circle cx="1218" cy="780" r="8" class="c0"/>
<circle cx="1192" cy="796" r="8" class="c0"/>
<circle cx="1110" cy="832" r="8" class="c0"/>
<circle cx="1354" cy="666" r="8" class="c0"/>
<circle cx="526" cy="798" r="8" class="c0"/>
<circle cx="994" cy="802" r="8" class="c0"/>
<circle cx="1220" cy="694" r="8" class="c0"/>
<circle cx="910" cy="718" r="8" class="c0"/>
<circle cx="960" cy="674" r="8" class="c0"/>
<circle cx="992" cy="616" r="8" class="c0"/>
<circle cx="618" cy="780" r="8" class="c0"/>
<circle cx="1252" cy="730" r="8" class="c0"/>
<circle cx="874" cy="760" r="8" class="c0"/>
<circle cx="758" cy="768" r="8" class="c0"/>
<circle cx="1396" cy="648" r="8" class="c0"/>
<circle cx="716" cy="848" r="8" class="c0"/>
<circle cx="668" cy="916" r="8" class="c0"/>
<circle cx="698" cy="796" r="8" class="c0"/>
<circle cx="662" cy="822" r="8" class="c0"/>
<circle cx="702" cy="744" r="8" class="c0"/>
<circle cx="1274" cy="654" r="8" class="c0"/>
<circle cx="664" cy="700" r="8" class="c0"/>
<circle cx="1016" cy="840" r="8" class="c0"/>
<circle cx="490" cy="852" r="8" class="c0"/>
<circle cx="1148" cy="582" r="8" class="c0"/>
<circle cx="888" cy="836" r="8" class="c0"/>
<circle cx="858" cy="692" r="8" class="c0"/>
<circle cx="1260" cy="588" r="8" class="c0"/>
<circle cx="1236" cy="622" r="8" class="c0"/>
<circle cx="1352" cy="620" r="8" class="c0"/>
<circle cx="1300" cy="700" r="8" class="c0"/>
<circle cx="914" cy="742" r="8" class="c0"/>
<circle cx="1124" cy="556" r="8" class="c0"/>
<circle cx="1264" cy="532" r="8" class="c0"/>
<circle cx="616" cy="846" r="8" class="c0"/>
<circle cx="958" cy="636" r="8" class="c0"/>
<circle cx="878" cy="848" r="8" class="c0"/>
<circle cx="1128" cy="798" r="8" class="c0"/>
<circle cx="1088" cy="586" r="8" class="c0"/>
<circle cx="694" cy="650" r="8" class="c0"/>
<circle cx="452" cy="834" r="8" class="c0"/>
<circle cx="850" cy="662" r="8" class="c0"/>
<circle cx="734" cy="608" r="8" class="c0"/>
<circle cx="1008" cy="604" r="8" class="c0"/>
<circle cx="1220" cy="540" r="8" class="c0"/>
<circle cx="1368" cy="576" r="8" class="c0"/>
<circle cx="1112" cy="790" r="8" class="c0"/>
<circle cx="1314" cy="726" r="8" class="c0"/>
<circle cx="1110" cy="760" r="8" class="c0"/>
<circle cx="770" cy="696" r="8" class="c0"/>
<circle cx="1232" cy="740" r="8" class="c0"/>
<circle cx="634" cy="772" r="8" class="c0"/>
<circle cx="900" cy="664" r="8" class="c0"/>
<circle cx="936" cy="638" r="8" class="c0"/>
<circle cx="1210" cy="558" r="8" class="c0"/>
<circle cx="784" cy="930" r="8" class="c0"/>
<circle cx="644" cy="904" r="8" class="c0"/>
<circle cx="1060" cy="852" r="8" class="c0"/>
<circle cx="484" cy="784" r="8" class="c0"/>
<circle cx="606" cy="796" r="8" class="c0"/>
<circle cx="1164" cy="772" r="8" class="c0"/>
<circle cx="1002" cy="778" r="8" class="c0"/>
<circle cx="748" cy="650" r="8" class="c0"/>
<circle cx="1148" cy="796" r="8" class="c0"/>
<circle cx="958" cy="696" r="8" class="c0"/>
<circle cx="936" cy="694" r="8" class="c0"/>
<circle cx="572" cy="754" r="8" class="c0"/>
<circle cx="1182" cy="780" r="8" class="c0"/>
<circle cx="720" cy="870" r="8" class="c0"/>
<circle cx="684" cy="736" r="8" class="c0"/>
<circle cx="930" cy="754" r="8" class="c0"/>
<circle cx="1042" cy="864" r="8" class="c0"/>
<circle cx="578" cy="834" r="8" class="c0"/>
<circle cx="712" cy="658" r="8" class="c0"/>
<circle cx="760" cy="734" r="8" class="c0"/>
<circle cx="730" cy="738" r="8" class="c0"/>
<circle cx="570" cy="920" r="8" class="c0"/>
<circle cx="988" cy="596" r="8" class="c0"/>
<circle cx="806" cy="928" r="8" class="c0"/>
<circle cx="818" cy="812" r="8" class="c0"/>
<circle cx="630" cy="836" r="8" class="c0"/>
<circle cx="954" cy="816" r="8" class="c0"/>
<circle cx="890" cy="630" r="8" class="c0"/>
<circle cx="680" cy="968" r="8" class="c0"/>
<circle cx="544" cy="820" r="8" class="c0"/>
<circle cx="1328" cy="592" r="8" class="c0"/>
<circle cx="548" cy="918" r="8" class="c0"/>
<circle cx="922" cy="708" r="8" class="c0"/>
<circle cx="1188" cy="682" r="8" class="c0"/>
<circle cx="1286" cy="526" r="8" class="c0"/>
<circle cx="612" cy="606" r="8" class="c0"/>
<circle cx="732" cy="860" r="8" class="c0"/>
<circle cx="1324" cy="572" r="8" class="c0"/>
<circle cx="784" cy="836" r="8" class="c0"/>
<circle cx="1294" cy="600" r="8" class="c0"/>
<circle cx="760" cy="938" r="8" class="c0"/>
<circle cx="1076" cy="660" r="8" class="c0"/>
<circle cx="620" cy="900" r="8" class="c0"/>
<circle cx="768" cy="812" r="8" class="c0"/>
<circle cx="692" cy="876" r="8" class="c0"/>
<circle cx="690" cy="930" r="8" class="c0"/>
<circle cx="1198" cy="534" r="8" class="c0"/>
<circle cx="940" cy="896" r="8" class="c0"/>
<circle cx="794" cy="752" r="8" class="c0"/>
<circle cx="702" cy="832" r="8" class="c0"/>
<circle cx="698" cy="726" r="8" class="c0"/>
<circle cx="870" cy="904" r="8" class="c0"/>
<circle cx="714" cy="754" r="8" class="c0"/>
<circle cx="996" cy="682" r="8" class="c0"/>
<circle cx="862" cy="498" r="8" class="c0"/>
<circle cx="1030" cy="812" r="8" class="c0"/>
<circle cx="1152" cy="666" r="8" class="c0"/>
<circle cx="694" cy="674" r="8" class="c0"/>
<circle cx="1098" cy="846" r="8" class="c0"/>
<circle cx="1262" cy="692" r="8" class="c0"/>
<circle cx="1378" cy="672" r="8" class="c0"/>
<circle cx="1080" cy="800" r="8" class="c0"/>
<circle cx="698" cy="692" r="8" class="c0"/>
<circle cx="534" cy="834" r="8" class="c0"/>
<circle cx="712" cy="524" r="8" class="c0"/>
<circle cx="976" cy="786" r="8" class="c0"/>
<circle cx="848" cy="848" r="8" class="c0"/>
<circle cx="1026" cy="854" r="8" class="c0"/>
<circle cx="830" cy="894" r="8" class="c0"/>
<circle cx="1314" cy="634" r="8" class="c0"/>
<circle cx="1084" cy="566" r="8" class="c0"/>
<circle cx="914" cy="798" r="8" class="c0"/>
<circle cx="964" cy="738" r="8" class="c0"/>
<circle cx="646" cy="804" r="8" class="c0"/>
<circle cx="610" cy="962" r="8" class="c0"/>
<circle cx="1222" cy="578" r="8" class="c0"/>
<circle cx="1362" cy="610" r="8" class="c0"/>
<circle cx="1066" cy="712" r="8" class="c0"/>
<circle cx="1388" cy="620" r="8" class="c0"/>
<circle cx="832" cy="754" r="8" class="c0"/>
<circle cx="1304" cy="738" r="8" class="c0"/>
<circle cx="858" cy="858" r="8" class="c0"/>
<circle cx="1056" cy="618" r="8" class="c0"/>
<circle cx="994" cy="742" r="8" class="c0"/>
<circle cx="1392" cy="590" r="8" class="c0"/>
<circle cx="786" cy="810" r="8" class="c0"/>
<circle cx="1368" cy="682" r="8" class="c0"/>
<circle cx="452" cy="800" r="8" class="c0"/>
<circle cx="648" cy="720" r="8" class="c0"/>
<circle cx="1358" cy="692" r="8" class="c0"/>
<circle cx="496" cy="834" r="8" class="c0"/>
<circle cx="1140" cy="676" r="8" class="c0"/>
<circle cx="1104" cy="742" r="8" class="c0"/>
<circle cx="696" cy="572" r="8" class="c0"/>
<circle cx="570" cy="772" r="8" class="c0"/>
<circle cx="594" cy="766" r="8" class="c0"/>
<circle cx="848" cy="682" r="8" class="c0"/>
<circle cx="792" cy="670" r="8" class="c0"/>
<circle cx="1276" cy="576" r="8" class="c0"/>
<circle cx="1304" cy="562" r="8" class="c0"/>
<circle cx="1288" cy="664" r="8" class="c0"/>
<circle cx="1194" cy="622" r="8" class="c0"/>
<circle cx="756" cy="870" r="8" class="c0"/>
<circle cx="684" cy="634" r="8" class="c0"/>
<circle cx="718" cy="788" r="8" class="c0"/>
<circle cx="1164" cy="602" r="8" class="c0"/>
<circle cx="860" cy="598" r="8" class="c0"/>
<circle cx="634" cy="942" r="6" class="c0"/>
<circle cx="544" cy="880" r="6" class="c0"/>
<circle cx="1134" cy="570" r="6" class="c0"/>
<circle cx="506" cy="824" r="6" class="c0"/>
<circle cx="626" cy="616" r="6" class="c0"/>
<circle cx="670" cy="776" r="6" class="c0"/>
<circle cx="1074" cy="696" r="6" class="c0"/>
<circle cx="1226" cy="662" r="6" class="c0"/>
<circle cx="722" cy="724" r="6" class="c0"/>
<circle cx="1278" cy="592" r="6" class="c0"/>
<circle cx="562" cy="866" r="6" class="c0"/>
<circle cx="702" cy="866" r="6" class="c0"/>
<circle cx="1262" cy="664" r="6" class="c0"/>
<circle cx="1352" cy="594" r="6" class="c0"/>
<circle cx="842" cy="884" r="6" class="c0"/>
<circle cx="1330" cy="624" r="6" class="c0"/>
<circle cx="1034" cy="660" r="6" class="c0"/>
<circle cx="860" cy="726" r="6" class="c0"/>
<circle cx="722" cy="646" r="6" class="c0"/>
<circle cx="1070" cy="754" r="6" class="c0"/>
<circle cx="560" cy="908" r="6" class="c0"/>
<circle cx="714" cy="580" r="6" class="c0"/>
<circle cx="1166" cy="546" r="6" class="c0"/>
<circle cx="1352" cy="650" r="6" class="c0"/>
<circle cx="1152" cy="646" r="6" class="c0"/>
<circle cx="880" cy="720" r="6" class="c0"/>
<circle cx="1338" cy="556" r="6" class="c0"/>
<circle cx="856" cy="644" r="6" class="c0"/>
<circle cx="1308" cy="592" r="6" class="c0"/>
<circle cx="750" cy="922" r="6" class="c0"/>
<circle cx="980" cy="678" r="6" class="c0"/>
<circle cx="1284" cy="694" r="6" class="c0"/>
<circle cx="816" cy="706" r="6" class="c0"/>
<circle cx="1190" cy="760" r="6" class="c0"/>
<circle cx="478" cy="834" r="6" class="c0"/>
<circle cx="852" cy="786" r="6" class="c0"/>
<circle cx="628" cy="756" r="6" class="c0"/>
<circle cx="662" cy="676" r="6" class="c0"/>
<circle cx="1008" cy="648" r="6" class="c0"/>
<circle cx="814" cy="746" r="6" class="c0"/>
<circle cx="994" cy="660" r="6" class="c0"/>
<circle cx="714" cy="734" r="6" class="c0"/>
<circle cx="926" cy="616" r="6" class="c0"/>
<circle cx="516" cy="880" r="6" class="c0"/>
<circle cx="796" cy="918" r="6" class="c0"/>
<circle cx="654" cy="868" r="6" class="c0"/>
<circle cx="914" cy="622" r="6" class="c0"/>
<circle cx="850" cy="622" r="6" class="c0"/>
<circle cx="716" cy="604" r="6" class="c0"/>
<circle cx="1046" cy="822" r="6" class="c0"/>
<circle cx="878" cy="780" r="6" class="c0"/>
<circle cx="640" cy="612" r="6" class="c0"/>
<circle cx="922" cy="630" r="6" class="c0"/>
<circle cx="496" cy="774" r="6" class="c0"/>
<circle cx="528" cy="910" r="6" class="c0"/>
<circle cx="884" cy="800" r="6" class="c0"/>
<circle cx="1216" cy="646" r="6" class="c0"/>
<circle cx="1030" cy="758" r="6" class="c0"/>
<circle cx="1126" cy="754" r="6" class="c0"/>
<circle cx="886" cy="748" r="6" class="c0"/>
<circle cx="1130" cy="622" r="6" class="c0"/>
<circle cx="1114" cy="620" r="6" class="c0"/>
<circle cx="1058" cy="832" r="6" class="c0"/>
<circle cx="1318" cy="688" r="6" class="c0"/>
<circle cx="668" cy="840" r="6" class="c0"/>
<circle cx="1000" cy="888" r="6" class="c0"/>
<circle cx="1126" cy="714" r="6" class="c0"/>
<circle cx="1218" cy="750" r="6" class="c0"/>
<circle cx="832" cy="922" r="6" class="c0"/>
<circle cx="1248" cy="652" r="6" class="c0"/>
<circle cx="928" cy="680" r="6" class="c0"/>
<circle cx="684" cy="594" r="6" class="c0"/>
<circle cx="828" cy="874" r="6" class="c0"/>
<circle cx="1424" cy="616" r="6" class="c0"/>
<circle cx="686" cy="532" r="6" class="c0"/>
<circle cx="1162" cy="810" r="6" class="c0"/>
<circle cx="890" cy="652" r="6" class="c0"/>
<circle cx="1202" cy="784" r="6" class="c0"/>
<circle cx="896" cy="680" r="6" class="c0"/>
<circle cx="1008" cy="692" r="6" class="c0"/>
<circle cx="1132" cy="832" r="6" class="c0"/>
<circle cx="524" cy="634" r="6" class="c0"/>
<circle cx="900" cy="852" r="6" class="c0"/>
<circle cx="480" cy="866" r="6" class="c0"/>
<circle cx="676" cy="864" r="6" class="c0"/>
<circle cx="1166" cy="644" r="6" class="c0"/>
<circle cx="1278" cy="636" r="6" class="c0"/>
<circle cx="790" cy="786" r="6" class="c0"/>
<circle cx="1172" cy="728" r="6" class="c0"/>
<circle cx="560" cy="930" r="6" class="c0"/>
<circle cx="1072" cy="578" r="6" class="c0"/>
<circle cx="1180" cy="572" r="6" class="c0"/>
<circle cx="806" cy="714" r="6" class="c0"/>
<circle cx="994" cy="872" r="6" class="c0"/>
<circle cx="1242" cy="720" r="6" class="c0"/>
<circle cx="1084" cy="624" r="6" class="c0"/>
<circle cx="1144" cy="778" r="6" class="c0"/>
<circle cx="508" cy="892" r="6" class="c0"/>
<circle cx="1020" cy="822" r="6" class="c0"/>
<circle cx="898" cy="808" r="6" class="c0"/>
<circle cx="1040" cy="578" r="6" class="c0"/>
<circle cx="1042" cy="676" r="6" class="c0"/>
<circle cx="944" cy="846" r="6" class="c0"/>
<circle cx="1146" cy="692" r="6" class="c0"/>
<circle cx="658" cy="612" r="6" class="c0"/>
<circle cx="1054" cy="756" r="6" class="c0"/>
<circle cx="1110" cy="652" r="6" class="c0"/>
<circle cx="1022" cy="612" r="6" class="c0"/>
<circle cx="1254" cy="620" r="6" class="c0"/>
<circle cx="848" cy="822" r="6" class="c0"/>
<circle cx="582" cy="906" r="6" class="c0"/>
<circle cx="770" cy="882" r="6" class="c0"/>
<circle cx="856" cy="814" r="6" class="c0"/>
<circle cx="846" cy="550" r="6" class="c0"/>
<circle cx="466" cy="784" r="6" class="c0"/>
<circle cx="1302" cy="624" r="6" class="c0"/>
<circle cx="1188" cy="644" r="6" class="c0"/>
<circle cx="842" cy="728" r="6" class="c0"/>
<circle cx="676" cy="550" r="6" class="c0"/>
<circle cx="802" cy="684" r="6" class="c0"/>
<circle cx="756" cy="954" r="6" class="c0"/>
<circle cx="554" cy="622" r="6" class="c0"/>
<circle cx="612" cy="734" r="6" class="c0"/>
<circle cx="640" cy="846" r="6" class="c0"/>
<circle cx="772" cy="760" r="6" class="c0"/>
<circle cx="1098" cy="684" r="6" class="c0"/>
<circle cx="560" cy="880" r="6" class="c0"/>
<circle cx="514" cy="776" r="6" class="c0"/>
<circle cx="834" cy="664" r="6" class="c0"/>
<circle cx="866" cy="580" r="6" class="c0"/>
<circle cx="1020" cy="712" r="6" class="c0"/>
<circle cx="1106" cy="628" r="6" class="c0"/>
<circle cx="522" cy="766" r="6" class="c0"/>
<circle cx="1388" cy="662" r="6" class="c0"/>
<circle cx="1344" cy="700" r="6" class="c0"/>
<circle cx="726" cy="892" r="6" class="c0"/>
<circle cx="746" cy="578" r="6" class="c0"/>
<circle cx="650" cy="966" r="6" class="c0"/>
<circle cx="912" cy="860" r="6" class="c0"/>
<circle cx="718" cy="540" r="6" class="c0"/>
<circle cx="756" cy="750" r="6" class="c0"/>
<circle cx="958" cy="896" r="6" class="c0"/>
<circle cx="666" cy="716" r="6" class="c0"/>
<circle cx="728" cy="798" r="6" class="c0"/>
<circle cx="648" cy="952" r="6" class="c0"/>
<circle cx="736" cy="660" r="6" class="c0"/>
<circle cx="1092" cy="658" r="6" class="c0"/>
<circle cx="592" cy="826" r="6" class="c0"/>
<circle cx="856" cy="916" r="6" class="c0"/>
<circle cx="1234" cy="778" r="6" class="c0"/>
<circle cx="954" cy="798" r="6" class="c0"/>
<circle cx="688" cy="780" r="6" class="c0"/>
<circle cx="866" cy="664" r="6" class="c0"/>
<circle cx="828" cy="782" r="6" class="c0"/>
<circle cx="1232" cy="682" r="6" class="c0"/>
<circle cx="1138" cy="746" r="6" class="c0"/>
<circle cx="698" cy="516" r="6" class="c0"/>
<circle cx="766" cy="678" r="6" class="c0"/>
<circle cx="1208" cy="722" r="6" class="c0"/>
<circle cx="802" cy="868" r="6" class="c0"/>
<circle cx="1082" cy="818" r="6" class="c0"/>
<circle cx="1078" cy="856" r="6" class="c0"/>
<circle cx="1136" cy="634" r="6" class="c0"/>
<circle cx="888" cy="860" r="6" class="c0"/>
<circle cx="1044" cy="766" r="6" class="c0"/>
<circle cx="690" cy="952" r="6" class="c0"/>
<circle cx="1064" cy="570" r="6" class="c0"/>
<circle cx="740" cy="960" r="6" class="c0"/>
<circle cx="970" cy="686" r="6" class="c0"/>
<circle cx="1252" cy="520" r="6" class="c0"/>
<circle cx="626" cy="814" r="6" class="c0"/>
<circle cx="882" cy="666" r="6" class="c0"/>
<circle cx="830" cy="624" r="6" class="c0"/>
<circle cx="1222" cy="604" r="6" class="c0"/>
<circle cx="922" cy="902" r="6" class="c0"/>
<circle cx="1328" cy="544" r="6" class="c0"/>
<circle cx="1026" cy="668" r="6" class="c0"/>
<circle cx="620" cy="944" r="6" class="c0"/>
<circle cx="1250" cy="746" r="6" class="c0"/>
<circle cx="1312" cy="664" r="6" class="c0"/>
<circle cx="1220" cy="632" r="6" class="c0"/>
<circle cx="1156" cy="700" r="6" class="c0"/>
<circle cx="656" cy="592" r="6" class="c0"/>
<circle cx="660" cy="900" r="6" class="c0"/>
<circle cx="650" cy="622" r="6" class="c0"/>
<circle cx="722" cy="928" r="6" class="c0"/>
<circle cx="698" cy="550" r="6" class="c0"/>
<circle cx="916" cy="672" r="6" class="c0"/>
<circle cx="1230" cy="524" r="6" class="c0"/>
<circle cx="1324" cy="646" r="6" class="c0"/>
<circle cx="1032" cy="876" r="6" class="c0"/>
<circle cx="1132" cy="584" r="6" class="c0"/>
<circle cx="1070" cy="788" r="6" class="c0"/>
<circle cx="1106" cy="556" r="6" class="c0"/>
<circle cx="696" cy="812" r="6" class="c0"/>
<circle cx="804" cy="660" r="6" class="c0"/>
<circle cx="1122" cy="672" r="6" class="c0"/>
<circle cx="1206" cy="684" r="6" class="c0"/>
<circle cx="690" cy="606" r="6" class="c0"/>
<circle cx="574" cy="616" r="6" class="c0"/>
<circle cx="594" cy="608" r="6" class="c0"/>
<circle cx="968" cy="708" r="6" class="c0"/>
<circle cx="802" cy="772" r="6" class="c0"/>
<circle cx="1386" cy="636" r="6" class="c0"/>
<circle cx="816" cy="838" r="6" class="c0"/>
<circle cx="886" cy="772" r="6" class="c0"/>
<circle cx="780" cy="706" r="6" class="c0"/>
</svg>
