<?xml version="1.0" encoding="utf-8"?>
<svg xmlns="http://www.w3.org/2000/svg"
     xmlns:xlink="http://www.w3.org/1999/xlink" width="1920" height="1440" >

            <defs>
            <style type="text/css"><![CDATA[
circle {stroke: none;}
.c0 {fill: #FFFFFF;}
]]></style>
            </defs>
<rect x="0" y="0" width="1920" height="1440" fill="black"/>
<circle cx="922" cy="954" r="14" class="c0"/>
<circle cx="1146" cy="650" r="12" class="c0"/>
<circle cx="1002" cy="958" r="12" class="c0"/>
<circle cx="824" cy="884" r="12" class="c0"/>
<circle cx="994" cy="1052" r="12" class="c0"/>
<circle cx="854" cy="870" r="12" class="c0"/>
<circle cx="746" cy="780" r="12" class="c0"/>
<circle cx="1014" cy="1010" r="12" class="c0"/>
<circle cx="1110" cy="724" r="12" class="c0"/>
<circle cx="990" cy="928" r="12" class="c0"/>
<circle cx="838" cy="848" r="12" class="c0"/>
<circle cx="1008" cy="764" r="12" class="c0"/>
<circle cx="858" cy="944" r="12" class="c0"/>
<circle cx="844" cy="1004" r="12" class="c0"/>
<circle cx="922" cy="676" r="12" class="c0"/>
<circle cx="1114" cy="916" r="12" class="c0"/>
<circle cx="1008" cy="712" r="12" class="c0"/>
<circle cx="950" cy="690" r="12" class="c0"/>
<circle cx="1184" cy="790" r="12" class="c0"/>
<circle cx="826" cy="662" r="12" class="c0"/>
<circle cx="786" cy="918" r="12" class="c0"/>
<circle cx="926" cy="524" r="12" class="c0"/>
<circle cx="772" cy="884" r="12" class="c0"/>
<circle cx="1048" cy="910" r="12" class="c0"/>
<circle cx="920" cy="798" r="12" class="c0"/>
<circle cx="880" cy="768" r="12" class="c0"/>
<circle cx="1084" cy="800" r="12" class="c0"/>
<circle cx="974" cy="894" r="12" class="c0"/>
<circle cx="762" cy="794" r="12" class="c0"/>
<circle cx="928" cy="744" r="12" class="c0"/>
<circle cx="1064" cy="624" r="12" class="c0"/>
<circle cx="854" cy="766" r="12" class="c0"/>
<circle cx="1034" cy="634" r="12" class="c0"/>
<circle cx="948" cy="642" r="12" class="c0"/>
<circle cx="922" cy="1028" r="12" class="c0"/>
<circle cx="866" cy="706" r="12" class="c0"/>
<circle cx="944" cy="1082" r="12" class="c0"/>
<circle cx="918" cy="558" r="12" class="c0"/>
<circle cx="912" cy="1060" r="12" class="c0"/>
<circle cx="1012" cy="798" r="12" class="c0"/>
<circle cx="850" cy="734" r="10" class="c0"/>
<circle cx="1072" cy="952" r="10" class="c0"/>
<circle cx="898" cy="650" r="10" class="c0"/>
<circle cx="1038" cy="1020" r="10" class="c0"/>
<circle cx="1058" cy="698" r="10" class="c0"/>
<circle cx="804" cy="804" r="10" class="c0"/>
<circle cx="1052" cy="720" r="10" class="c0"/>
<circle cx="868" cy="998" r="10" class="c0"/>
<circle cx="866" cy="666" r="10" class="c0"/>
<circle cx="964" cy="464" r="10" class="c0"/>
<circle cx="796" cy="682" r="10" class="c0"/>
<circle cx="888" cy="672" r="10" class="c0"/>
<circle cx="1000" cy="686" r="10" class="c0"/>
<circle cx="1084" cy="728" r="10" class="c0"/>
<circle cx="800" cy="758" r="10" class="c0"/>
<circle cx="952" cy="726" r="10" class="c0"/>
<circle cx="870" cy="920" r="10" class="c0"/>
<circle cx="856" cy="1054" r="10" class="c0"/>
<circle cx="1118" cy="662" r="10" class="c0"/>
<circle cx="1046" cy="946" r="10" class="c0"/>
<circle cx="964" cy="870" r="10" class="c0"/>
<circle cx="952" cy="514" r="10" class="c0"/>
<circle cx="1026" cy="664" r="10" class="c0"/>
<circle cx="1076" cy="896" r="10" class="c0"/>
<circle cx="1138" cy="758" r="10" class="c0"/>
<circle cx="1010" cy="626" r="10" class="c0"/>
<circle cx="876" cy="958" r="10" class="c0"/>
<circle cx="900" cy="576" r="10" class="c0"/>
<circle cx="978" cy="962" r="10" class="c0"/>
<circle cx="752" cy="902" r="10" class="c0"/>
<circle cx="884" cy="726" r="10" class="c0"/>
<circle cx="1030" cy="778" r="10" class="c0"/>
<circle cx="1082" cy="662" r="10" class="c0"/>
<circle cx="930" cy="894" r="10" class="c0"/>
<circle cx="756" cy="846" r="10" class="c0"/>
<circle cx="1082" cy="852" r="10" class="c0"/>
<circle cx="1046" cy="796" r="10" class="c0"/>
<circle cx="946" cy="790" r="10" class="c0"/>
<circle cx="1088" cy="916" r="10" class="c0"/>
<circle cx="1102" cy="938" r="10" class="c0"/>
<circle cx="958" cy="1100" r="10" class="c0"/>
<circle cx="918" cy="914" r="10" class="c0"/>
<circle cx="1164" cy="764" r="10" class="c0"/>
<circle cx="818" cy="944" r="10" class="c0"/>
<circle cx="1054" cy="596" r="10" class="c0"/>
<circle cx="844" cy="928" r="10" class="c0"/>
<circle cx="846" cy="964" r="10" class="c0"/>
<circle cx="964" cy="610" r="10" class="c0"/>
<circle cx="928" cy="620" r="10" class="c0"/>
<circle cx="1092" cy="772" r="10" class="c0"/>
<circle cx="894" cy="1034" r="10" class="c0"/>
<circle cx="1024" cy="740" r="10" class="c0"/>
<circle cx="980" cy="774" r="10" class="c0"/>
<circle cx="772" cy="760" r="10" class="c0"/>
<circle cx="1024" cy="826" r="10" class="c0"/>
<circle cx="834" cy="708" r="10" class="c0"/>
<circle cx="930" cy="596" r="10" class="c0"/>
<circle cx="962" cy="746" r="10" class="c0"/>
<circle cx="988" cy="994" r="10" class="c0"/>
<circle cx="878" cy="896" r="10" class="c0"/>
<circle cx="858" cy="796" r="10" class="c0"/>
<circle cx="908" cy="1084" r="10" class="c0"/>
<circle cx="846" cy="648" r="10" class="c0"/>
<circle cx="898" cy="944" r="10" class="c0"/>
<circle cx="966" cy="1058" r="10" class="c0"/>
<circle cx="1182" cy="722" r="10" class="c0"/>
<circle cx="1106" cy="748" r="10" class="c0"/>
<circle cx="1158" cy="728" r="10" class="c0"/>
<circle cx="962" cy="804" r="10" class="c0"/>
<circle cx="1136" cy="900" r="10" class="c0"/>
<circle cx="1030" cy="990" r="10" class="c0"/>
<circle cx="812" cy="976" r="10" class="c0"/>
<circle cx="950" cy="996" r="10" class="c0"/>
<circle cx="1060" cy="1000" r="10" class="c0"/>
<circle cx="1094" cy="636" r="10" class="c0"/>
<circle cx="800" cy="878" r="10" class="c0"/>
<circle cx="1014" cy="1038" r="10" class="c0"/>
<circle cx="1060" cy="772" r="10" class="c0"/>
<circle cx="998" cy="646" r="10" class="c0"/>
<circle cx="890" cy="1072" r="10" class="c0"/>
<circle cx="726" cy="858" r="10" class="c0"/>
<circle cx="1146" cy="802" r="10" class="c0"/>
<circle cx="1154" cy="862" r="10" class="c0"/>
<circle cx="982" cy="838" r="10" class="c0"/>
<circle cx="1106" cy="884" r="10" class="c0"/>
<circle cx="944" cy="832" r="10" class="c0"/>
<circle cx="926" cy="848" r="10" class="c0"/>
<circle cx="974" cy="590" r="10" class="c0"/>
<circle cx="1012" cy="1070" r="10" class="c0"/>
<circle cx="1038" cy="688" r="10" class="c0"/>
<circle cx="902" cy="496" r="10" class="c0"/>
<circle cx="950" cy="1022" r="10" class="c0"/>
<circle cx="1130" cy="878" r="10" class="c0"/>
<circle cx="906" cy="884" r="10" class="c0"/>
<circle cx="766" cy="932" r="10" class="c0"/>
<circle cx="854" cy="678" r="10" class="c0"/>
<circle cx="894" cy="624" r="10" class="c0"/>
<circle cx="984" cy="702" r="10" class="c0"/>
<circle cx="1094" cy="596" r="10" class="c0"/>
<circle cx="1174" cy="836" r="10" class="c0"/>
<circle cx="1018" cy="594" r="10" class="c0"/>
<circle cx="822" cy="686" r="10" class="c0"/>
<circle cx="1072" cy="974" r="8" class="c0"/>
<circle cx="996" cy="854" r="8" class="c0"/>
<circle cx="862" cy="634" r="8" class="c0"/>
<circle cx="1140" cy="836" r="8" class="c0"/>
<circle cx="814" cy="854" r="8" class="c0"/>
<circle cx="926" cy="700" r="8" class="c0"/>
<circle cx="874" cy="836" r="8" class="c0"/>
<circle cx="1166" cy="670" r="8" class="c0"/>
<circle cx="1106" cy="610" r="8" class="c0"/>
<circle cx="1028" cy="1058" r="8" class="c0"/>
<circle cx="986" cy="804" r="8" class="c0"/>
<circle cx="1094" cy="872" r="8" class="c0"/>
<circle cx="972" cy="1018" r="8" class="c0"/>
<circle cx="796" cy="946" r="8" class="c0"/>
<circle cx="902" cy="704" r="8" class="c0"/>
<circle cx="958" cy="770" r="8" class="c0"/>
<circle cx="968" cy="920" r="8" class="c0"/>
<circle cx="738" cy="832" r="8" class="c0"/>
<circle cx="976" cy="1074" r="8" class="c0"/>
<circle cx="816" cy="1022" r="8" class="c0"/>
<circle cx="996" cy="596" r="8" class="c0"/>
<circle cx="932" cy="1106" r="8" class="c0"/>
<circle cx="784" cy="796" r="8" class="c0"/>
<circle cx="988" cy="752" r="8" class="c0"/>
<circle cx="1054" cy="882" r="8" class="c0"/>
<circle cx="782" cy="700" r="8" class="c0"/>
<circle cx="1112" cy="784" r="8" class="c0"/>
<circle cx="1016" cy="856" r="8" class="c0"/>
<circle cx="940" cy="710" r="8" class="c0"/>
<circle cx="972" cy="652" r="8" class="c0"/>
<circle cx="1132" cy="694" r="8" class="c0"/>
<circle cx="982" cy="620" r="8" class="c0"/>
<circle cx="1126" cy="630" r="8" class="c0"/>
<circle cx="1122" cy="770" r="8" class="c0"/>
<circle cx="808" cy="826" r="8" class="c0"/>
<circle cx="956" cy="844" r="8" class="c0"/>
<circle cx="986" cy="1028" r="8" class="c0"/>
<circle cx="952" cy="476" r="8" class="c0"/>
<circle cx="784" cy="748" r="8" class="c0"/>
<circle cx="1184" cy="818" r="8" class="c0"/>
<circle cx="898" cy="918" r="8" class="c0"/>
<circle cx="968" cy="486" r="8" class="c0"/>
<circle cx="996" cy="786" r="8" class="c0"/>
<circle cx="1034" cy="1040" r="8" class="c0"/>
<circle cx="776" cy="960" r="8" class="c0"/>
<circle cx="778" cy="846" r="8" class="c0"/>
<circle cx="898" cy="1002" r="8" class="c0"/>
<circle cx="1064" cy="1022" r="8" class="c0"/>
<circle cx="892" cy="556" r="8" class="c0"/>
<circle cx="810" cy="648" r="8" class="c0"/>
<circle cx="904" cy="602" r="8" class="c0"/>
<circle cx="916" cy="1006" r="8" class="c0"/>
<circle cx="994" cy="726" r="8" class="c0"/>
<circle cx="964" cy="540" r="8" class="c0"/>
<circle cx="854" cy="898" r="8" class="c0"/>
<circle cx="1162" cy="884" r="8" class="c0"/>
<circle cx="1134" cy="676" r="8" class="c0"/>
<circle cx="888" cy="860" r="8" class="c0"/>
<circle cx="822" cy="1054" r="8" class="c0"/>
<circle cx="1068" cy="750" r="8" class="c0"/>
<circle cx="940" cy="502" r="8" class="c0"/>
<circle cx="1058" cy="828" r="8" class="c0"/>
<circle cx="844" cy="1066" r="8" class="c0"/>
<circle cx="906" cy="762" r="8" class="c0"/>
<circle cx="870" cy="738" r="8" class="c0"/>
<circle cx="932" cy="656" r="8" class="c0"/>
<circle cx="864" cy="1032" r="8" class="c0"/>
<circle cx="970" cy="564" r="8" class="c0"/>
<circle cx="824" cy="786" r="8" class="c0"/>
<circle cx="936" cy="766" r="8" class="c0"/>
<circle cx="958" cy="930" r="8" class="c0"/>
<circle cx="968" cy="940" r="8" class="c0"/>
<circle cx="898" cy="532" r="8" class="c0"/>
<circle cx="798" cy="708" r="8" class="c0"/>
<circle cx="1158" cy="700" r="8" class="c0"/>
<circle cx="888" cy="508" r="8" class="c0"/>
<circle cx="892" cy="978" r="8" class="c0"/>
<circle cx="1084" cy="988" r="8" class="c0"/>
<circle cx="1116" cy="682" r="8" class="c0"/>
<circle cx="950" cy="964" r="8" class="c0"/>
<circle cx="784" cy="824" r="8" class="c0"/>
<circle cx="950" cy="664" r="8" class="c0"/>
<circle cx="936" cy="980" r="8" class="c0"/>
<circle cx="1036" cy="852" r="8" class="c0"/>
<circle cx="910" cy="838" r="8" class="c0"/>
<circle cx="1104" cy="822" r="8" class="c0"/>
<circle cx="1116" cy="838" r="8" class="c0"/>
<circle cx="876" cy="586" r="8" class="c0"/>
<circle cx="1140" cy="736" r="8" class="c0"/>
<circle cx="1050" cy="664" r="8" class="c0"/>
<circle cx="866" cy="974" r="8" class="c0"/>
<circle cx="868" cy="1076" r="8" class="c0"/>
<circle cx="810" cy="922" r="8" class="c0"/>
<circle cx="760" cy="722" r="8" class="c0"/>
<circle cx="942" cy="1050" r="8" class="c0"/>
<circle cx="886" cy="1014" r="8" class="c0"/>
<circle cx="960" cy="576" r="8" class="c0"/>
<circle cx="896" cy="792" r="8" class="c0"/>
<circle cx="802" cy="1002" r="8" class="c0"/>
<circle cx="948" cy="882" r="8" class="c0"/>
<circle cx="912" cy="724" r="8" class="c0"/>
<circle cx="1134" cy="858" r="8" class="c0"/>
<circle cx="810" cy="898" r="8" class="c0"/>
<circle cx="882" cy="1054" r="8" class="c0"/>
<circle cx="788" cy="778" r="8" class="c0"/>
<circle cx="1004" cy="900" r="8" class="c0"/>
<circle cx="890" cy="818" r="8" class="c0"/>
<circle cx="1022" cy="912" r="8" class="c0"/>
<circle cx="1002" cy="826" r="8" class="c0"/>
<circle cx="836" cy="756" r="8" class="c0"/>
<circle cx="1180" cy="746" r="8" class="c0"/>
<circle cx="992" cy="878" r="8" class="c0"/>
<circle cx="834" cy="776" r="8" class="c0"/>
<circle cx="964" cy="982" r="8" class="c0"/>
<circle cx="748" cy="754" r="8" class="c0"/>
<circle cx="1034" cy="964" r="8" class="c0"/>
<circle cx="1034" cy="878" r="8" class="c0"/>
<circle cx="1040" cy="816" r="8" class="c0"/>
<circle cx="764" cy="828" r="8" class="c0"/>
<circle cx="744" cy="804" r="8" class="c0"/>
<circle cx="1070" cy="710" r="8" class="c0"/>
<circle cx="732" cy="884" r="8" class="c0"/>
<circle cx="818" cy="722" r="8" class="c0"/>
<circle cx="890" cy="484" r="8" class="c0"/>
<circle cx="942" cy="580" r="8" class="c0"/>
<circle cx="854" cy="824" r="8" class="c0"/>
<circle cx="1090" cy="708" r="8" class="c0"/>
<circle cx="884" cy="606" r="8" class="c0"/>
<circle cx="850" cy="608" r="8" class="c0"/>
<circle cx="1092" cy="954" r="8" class="c0"/>
<circle cx="1052" cy="1032" r="8" class="c0"/>
<circle cx="826" cy="626" r="8" class="c0"/>
<circle cx="740" cy="916" r="8" class="c0"/>
<circle cx="976" cy="672" r="8" class="c0"/>
<circle cx="792" cy="726" r="8" class="c0"/>
<circle cx="902" cy="738" r="8" class="c0"/>
<circle cx="1028" cy="610" r="8" class="c0"/>
<circle cx="1074" cy="688" r="8" class="c0"/>
<circle cx="1104" cy="698" r="8" class="c0"/>
<circle cx="832" cy="822" r="8" class="c0"/>
<circle cx="952" cy="554" r="8" class="c0"/>
<circle cx="1078" cy="760" r="8" class="c0"/>
<circle cx="1066" cy="652" r="8" class="c0"/>
<circle cx="946" cy="534" r="8" class="c0"/>
<circle cx="944" cy="910" r="8" class="c0"/>
<circle cx="950" cy="598" r="8" class="c0"/>
<circle cx="1064" cy="868" r="8" class="c0"/>
<circle cx="1154" cy="780" r="8" class="c0"/>
<circle cx="928" cy="490" r="8" class="c0"/>
<circle cx="1058" cy="928" r="8" class="c0"/>
<circle cx="910" cy="780" r="8" class="c0"/>
<circle cx="844" cy="812" r="8" class="c0"/>
<circle cx="976" cy="724" r="8" class="c0"/>
<circle cx="1110" cy="858" r="8" class="c0"/>
<circle cx="1122" cy="794" r="8" class="c0"/>
<circle cx="1064" cy="678" r="8" class="c0"/>
<circle cx="1170" cy="710" r="8" class="c0"/>
<circle cx="1130" cy="822" r="8" class="c0"/>
<circle cx="844" cy="1028" r="8" class="c0"/>
<circle cx="838" cy="906" r="8" class="c0"/>
<circle cx="1086" cy="614" r="8" class="c0"/>
<circle cx="1016" cy="890" r="8" class="c0"/>
<circle cx="1020" cy="940" r="8" class="c0"/>
<circle cx="1052" cy="970" r="8" class="c0"/>
<circle cx="1004" cy="984" r="8" class="c0"/>
<circle cx="930" cy="932" r="8" class="c0"/>
<circle cx="1186" cy="764" r="8" class="c0"/>
<circle cx="876" cy="644" r="8" class="c0"/>
<circle cx="900" cy="828" r="8" class="c0"/>
<circle cx="928" cy="822" r="8" class="c0"/>
<circle cx="752" cy="870" r="8" class="c0"/>
<circle cx="910" cy="818" r="8" class="c0"/>
<circle cx="916" cy="864" r="8" class="c0"/>
<circle cx="882" cy="568" r="8" class="c0"/>
<circle cx="1162" cy="822" r="8" class="c0"/>
<circle cx="972" cy="510" r="8" class="c0"/>
<circle cx="1098" cy="674" r="8" class="c0"/>
<circle cx="1168" cy="804" r="8" class="c0"/>
<circle cx="790" cy="992" r="8" class="c0"/>
<circle cx="938" cy="810" r="8" class="c0"/>
<circle cx="762" cy="740" r="8" class="c0"/>
<circle cx="838" cy="982" r="8" class="c0"/>
<circle cx="1050" cy="752" r="8" class="c0"/>
<circle cx="832" cy="1040" r="8" class="c0"/>
<circle cx="822" cy="1002" r="8" class="c0"/>
<circle cx="946" cy="946" r="8" class="c0"/>
<circle cx="1128" cy="612" r="8" class="c0"/>
<circle cx="1102" cy="970" r="8" class="c0"/>
<circle cx="1140" cy="714" r="8" class="c0"/>
<circle cx="888" cy="694" r="8" class="c0"/>
<circle cx="974" cy="528" r="8" class="c0"/>
<circle cx="1082" cy="1006" r="8" class="c0"/>
<circle cx="976" cy="448" r="8" class="c0"/>
<circle cx="974" cy="1038" r="8" class="c0"/>
<circle cx="846" cy="626" r="8" class="c0"/>
<circle cx="1006" cy="868" r="8" class="c0"/>
<circle cx="936" cy="1008" r="8" class="c0"/>
<circle cx="976" cy="858" r="8" class="c0"/>
<circle cx="826" cy="744" r="8" class="c0"/>
<circle cx="910" cy="636" r="8" class="c0"/>
<circle cx="798" cy="1020" r="8" class="c0"/>
<circle cx="912" cy="976" r="8" class="c0"/>
<circle cx="880" cy="876" r="8" class="c0"/>
<circle cx="864" cy="598" r="8" class="c0"/>
<circle cx="842" cy="690" r="8" class="c0"/>
<circle cx="774" cy="810" r="8" class="c0"/>
<circle cx="868" cy="812" r="8" class="c0"/>
<circle cx="1068" cy="838" r="8" class="c0"/>
<circle cx="994" cy="1080" r="8" class="c0"/>
<circle cx="1086" cy="824" r="8" class="c0"/>
<circle cx="1126" cy="746" r="8" class="c0"/>
<circle cx="806" cy="738" r="8" class="c0"/>
<circle cx="946" cy="756" r="8" class="c0"/>
<circle cx="818" cy="836" r="8" class="c0"/>
<circle cx="794" cy="968" r="8" class="c0"/>
<circle cx="868" cy="854" r="8" class="c0"/>
<circle cx="962" cy="706" r="8" class="c0"/>
<circle cx="926" cy="874" r="8" class="c0"/>
<circle cx="796" cy="842" r="8" class="c0"/>
<circle cx="942" cy="860" r="8" class="c0"/>
<circle cx="1034" cy="710" r="8" class="c0"/>
<circle cx="790" cy="860" r="8" class="c0"/>
<circle cx="1070" cy="814" r="8" class="c0"/>
<circle cx="1068" cy="918" r="8" class="c0"/>
<circle cx="1120" cy="812" r="8" class="c0"/>
<circle cx="728" cy="812" r="8" class="c0"/>
<circle cx="1018" cy="694" r="8" class="c0"/>
<circle cx="876" cy="684" r="8" class="c0"/>
<circle cx="924" cy="1092" r="6" class="c0"/>
<circle cx="1028" cy="760" r="6" class="c0"/>
<circle cx="728" cy="900" r="6" class="c0"/>
<circle cx="966" cy="830" r="6" class="c0"/>
<circle cx="928" cy="1072" r="6" class="c0"/>
<circle cx="1076" cy="934" r="6" class="c0"/>
<circle cx="794" cy="662" r="6" class="c0"/>
<circle cx="1180" cy="698" r="6" class="c0"/>
<circle cx="1052" cy="844" r="6" class="c0"/>
<circle cx="906" cy="518" r="6" class="c0"/>
<circle cx="936" cy="544" r="6" class="c0"/>
<circle cx="1042" cy="766" r="6" class="c0"/>
<circle cx="880" cy="794" r="6" class="c0"/>
<circle cx="858" cy="1016" r="6" class="c0"/>
<circle cx="1008" cy="668" r="6" class="c0"/>
<circle cx="914" cy="1104" r="6" class="c0"/>
<circle cx="1098" cy="844" r="6" class="c0"/>
<circle cx="1118" cy="896" r="6" class="c0"/>
<circle cx="1076" cy="590" r="6" class="c0"/>
<circle cx="1006" cy="608" r="6" class="c0"/>
<circle cx="908" cy="542" r="6" class="c0"/>
<circle cx="904" cy="688" r="6" class="c0"/>
<circle cx="818" cy="768" r="6" class="c0"/>
<circle cx="1020" cy="646" r="6" class="c0"/>
<circle cx="1036" cy="926" r="6" class="c0"/>
<circle cx="888" cy="748" r="6" class="c0"/>
<circle cx="988" cy="660" r="6" class="c0"/>
<circle cx="810" cy="776" r="6" class="c0"/>
<circle cx="830" cy="804" r="6" class="c0"/>
<circle cx="904" cy="902" r="6" class="c0"/>
<circle cx="1044" cy="1056" r="6" class="c0"/>
<circle cx="1112" cy="640" r="6" class="c0"/>
<circle cx="958" cy="496" r="6" class="c0"/>
<circle cx="902" cy="852" r="6" class="c0"/>
<circle cx="902" cy="962" r="6" class="c0"/>
<circle cx="968" cy="632" r="6" class="c0"/>
<circle cx="914" cy="588" r="6" class="c0"/>
<circle cx="814" cy="1040" r="6" class="c0"/>
<circle cx="1172" cy="688" r="6" class="c0"/>
<circle cx="820" cy="812" r="6" class="c0"/>
<circle cx="958" cy="822" r="6" class="c0"/>
<circle cx="968" cy="1000" r="6" class="c0"/>
<circle cx="1134" cy="784" r="6" class="c0"/>
<circle cx="820" cy="912" r="6" class="c0"/>
<circle cx="778" cy="976" r="6" class="c0"/>
<circle cx="770" cy="906" r="6" class="c0"/>
<circle cx="1046" cy="862" r="6" class="c0"/>
<circle cx="912" cy="660" r="6" class="c0"/>
<circle cx="1048" cy="986" r="6" class="c0"/>
<circle cx="994" cy="1012" r="6" class="c0"/>
<circle cx="874" cy="618" r="6" class="c0"/>
<circle cx="1150" cy="686" r="6" class="c0"/>
<circle cx="918" cy="504" r="6" class="c0"/>
<circle cx="1054" cy="1048" r="6" class="c0"/>
<circle cx="1036" cy="592" r="6" class="c0"/>
<circle cx="1064" cy="798" r="6" class="c0"/>
<circle cx="1032" cy="898" r="6" class="c0"/>
<circle cx="754" cy="818" r="6" class="c0"/>
<circle cx="722" cy="840" r="6" class="c0"/>
<circle cx="1156" cy="838" r="6" class="c0"/>
<circle cx="1006" cy="844" r="6" class="c0"/>
<circle cx="1040" cy="836" r="6" class="c0"/>
<circle cx="878" cy="936" r="6" class="c0"/>
<circle cx="896" cy="1098" r="6" class="c0"/>
<circle cx="816" cy="706" r="6" class="c0"/>
<circle cx="1110" cy="954" r="6" class="c0"/>
<circle cx="1002" cy="742" r="6" class="c0"/>
<circle cx="928" cy="994" r="6" class="c0"/>
<circle cx="1050" cy="646" r="6" class="c0"/>
<circle cx="832" cy="1018" r="6" class="c0"/>
<circle cx="1060" cy="736" r="6" class="c0"/>
<circle cx="976" cy="794" r="6" class="c0"/>
<circle cx="1134" cy="920" r="6" class="c0"/>
<circle cx="856" cy="984" r="6" class="c0"/>
<circle cx="808" cy="696" r="6" class="c0"/>
<circle cx="1036" cy="728" r="6" class="c0"/>
<circle cx="1020" cy="976" r="6" class="c0"/>
<circle cx="870" cy="784" r="6" class="c0"/>
<circle cx="1172" cy="870" r="6" class="c0"/>
<circle cx="1110" cy="626" r="6" class="c0"/>
<circle cx="1178" cy="856" r="6" class="c0"/>
<circle cx="920" cy="770" r="6" class="c0"/>
<circle cx="828" cy="968" r="6" class="c0"/>
<circle cx="900" cy="808" r="6" class="c0"/>
<circle cx="808" cy="670" r="6" class="c0"/>
<circle cx="1008" cy="920" r="6" class="c0"/>
<circle cx="1146" cy="886" r="6" class="c0"/>
<circle cx="808" cy="958" r="6" class="c0"/>
<circle cx="958" cy="1040" r="6" class="c0"/>
<circle cx="838" cy="796" r="6" class="c0"/>
<circle cx="828" cy="642" r="6" class="c0"/>
<circle cx="1108" cy="802" r="6" class="c0"/>
<circle cx="926" cy="1048" r="6" class="c0"/>
<circle cx="1122" cy="710" r="6" class="c0"/>
<circle cx="1160" cy="746" r="6" class="c0"/>
<circle cx="984" cy="432" r="6" class="c0"/>
<circle cx="1086" cy="746" r="6" class="c0"/>
<circle cx="930" cy="724" r="6" class="c0"/>
<circle cx="914" cy="482" r="6" class="c0"/>
<circle cx="978" cy="818" r="6" class="c0"/>
<circle cx="972" cy="690" r="6" class="c0"/>
<circle cx="902" cy="1018" r="6" class="c0"/>
<circle cx="932" cy="570" r="6" class="c0"/>
<circle cx="946" cy="616" r="6" class="c0"/>
<circle cx="890" cy="838" r="6" class="c0"/>
<circle cx="910" cy="932" r="6" class="c0"/>
<circle cx="980" cy="472" r="6" class="c0"/>
<circle cx="930" cy="782" r="6" class="c0"/>
<circle cx="770" cy="864" r="6" class="c0"/>
<circle cx="1094" cy="898" r="6" class="c0"/>
<circle cx="1100" cy="658" r="6" class="c0"/>
<circle cx="1070" cy="786" r="6" class="c0"/>
<circle cx="888" cy="1090" r="6" class="c0"/>
<circle cx="892" cy="592" r="6" class="c0"/>
<circle cx="858" cy="840" r="6" class="c0"/>
<circle cx="1142" cy="626" r="6" class="c0"/>
<circle cx="1074" cy="604" r="6" class="c0"/>
<circle cx="836" cy="946" r="6" class="c0"/>
<circle cx="1076" cy="640" r="6" class="c0"/>
<circle cx="776" cy="720" r="6" class="c0"/>
<circle cx="1046" cy="612" r="6" class="c0"/>
<circle cx="826" cy="926" r="6" class="c0"/>
<circle cx="908" cy="992" r="6" class="c0"/>
<circle cx="786" cy="896" r="6" class="c0"/>
<circle cx="980" cy="638" r="6" class="c0"/>
<circle cx="828" cy="864" r="6" class="c0"/>
<circle cx="732" cy="792" r="6" class="c0"/>
<circle cx="1116" cy="600" r="6" class="c0"/>
<circle cx="954" cy="900" r="6" class="c0"/>
<circle cx="880" cy="494" r="6" class="c0"/>
<circle cx="1120" cy="936" r="6" class="c0"/>
<circle cx="922" cy="580" r="6" class="c0"/>
<circle cx="964" cy="786" r="6" class="c0"/>
<circle cx="1030" cy="806" r="6" class="c0"/>
<circle cx="960" cy="954" r="6" class="c0"/>
<circle cx="802" cy="786" r="6" class="c0"/>
<circle cx="1060" cy="852" r="6" class="c0"/>
<circle cx="1074" cy="878" r="6" class="c0"/>
<circle cx="762" cy="952" r="6" class="c0"/>
<circle cx="1002" cy="1024" r="6" class="c0"/>
<circle cx="1090" cy="690" r="6" class="c0"/>
<circle cx="1180" cy="680" r="6" class="c0"/>
<circle cx="986" cy="908" r="6" class="c0"/>
<circle cx="966" cy="1084" r="6" class="c0"/>
<circle cx="1044" cy="736" r="6" class="c0"/>
<circle cx="844" cy="888" r="6" class="c0"/>
<circle cx="800" cy="1036" r="6" class="c0"/>
<circle cx="768" cy="708" r="6" class="c0"/>
<circle cx="1040" cy="654" r="6" class="c0"/>
<circle cx="882" cy="988" r="6" class="c0"/>
<circle cx="788" cy="1010" r="6" class="c0"/>
<circle cx="1130" cy="726" r="6" class="c0"/>
<circle cx="920" cy="646" r="6" class="c0"/>
<circle cx="990" cy="974" r="6" class="c0"/>
<circle cx="780" cy="944" r="6" class="c0"/>
<circle cx="1154" cy="902" r="6" class="c0"/>
<circle cx="778" cy="680" r="6" class="c0"/>
<circle cx="864" cy="886" r="6" class="c0"/>
<circle cx="960" cy="674" r="6" class="c0"/>
<circle cx="888" cy="928" r="6" class="c0"/>
<circle cx="868" cy="754" r="6" class="c0"/>
<circle cx="1042" cy="1002" r="6" class="c0"/>
<circle cx="980" cy="496" r="6" class="c0"/>
</svg>
