<?xml version="1.0" encoding="utf-8"?>
<svg xmlns="http://www.w3.org/2000/svg"
     xmlns:xlink="http://www.w3.org/1999/xlink" width="1920" height="1440" >

            <defs>
            <style type="text/css"><![CDATA[
circle {stroke: none;}
.c0 {fill: #FFFFFF;}
]]></style>
            </defs>
<rect x="0" y="0" width="1920" height="1440" fill="black"/>
<circle cx="1042" cy="980" r="12" class="c0"/>
<circle cx="1012" cy="1052" r="12" class="c0"/>
<circle cx="810" cy="768" r="12" class="c0"/>
<circle cx="914" cy="1080" r="12" class="c0"/>
<circle cx="994" cy="1020" r="12" class="c0"/>
<circle cx="974" cy="560" r="12" class="c0"/>
<circle cx="892" cy="860" r="12" class="c0"/>
<circle cx="744" cy="802" r="12" class="c0"/>
<circle cx="898" cy="786" r="12" class="c0"/>
<circle cx="986" cy="844" r="12" class="c0"/>
<circle cx="828" cy="916" r="12" class="c0"/>
<circle cx="1080" cy="1028" r="12" class="c0"/>
<circle cx="1158" cy="852" r="12" class="c0"/>
<circle cx="782" cy="906" r="12" class="c0"/>
<circle cx="944" cy="682" r="12" class="c0"/>
<circle cx="888" cy="1052" r="12" class="c0"/>
<circle cx="972" cy="796" r="12" class="c0"/>
<circle cx="1018" cy="1004" r="12" class="c0"/>
<circle cx="982" cy="608" r="12" class="c0"/>
<circle cx="920" cy="1016" r="12" class="c0"/>
<circle cx="1174" cy="866" r="12" class="c0"/>
<circle cx="898" cy="980" r="12" class="c0"/>
<circle cx="994" cy="894" r="12" class="c0"/>
<circle cx="860" cy="668" r="12" class="c0"/>
<circle cx="982" cy="664" r="12" class="c0"/>
<circle cx="834" cy="822" r="12" class="c0"/>
<circle cx="978" cy="942" r="12" class="c0"/>
<circle cx="740" cy="766" r="12" class="c0"/>
<circle cx="1100" cy="724" r="12" class="c0"/>
<circle cx="1148" cy="706" r="12" class="c0"/>
<circle cx="796" cy="814" r="12" class="c0"/>
<circle cx="1024" cy="938" r="12" class="c0"/>
<circle cx="846" cy="1006" r="12" class="c0"/>
<circle cx="834" cy="694" r="12" class="c0"/>
<circle cx="1082" cy="964" r="12" class="c0"/>
<circle cx="780" cy="762" r="12" class="c0"/>
<circle cx="1048" cy="896" r="12" class="c0"/>
<circle cx="1118" cy="914" r="12" class="c0"/>
<circle cx="844" cy="890" r="12" class="c0"/>
<circle cx="946" cy="998" r="12" class="c0"/>
<circle cx="1042" cy="816" r="12" class="c0"/>
<circle cx="956" cy="616" r="12" class="c0"/>
<circle cx="1048" cy="1020" r="12" class="c0"/>
<circle cx="932" cy="706" r="12" class="c0"/>
<circle cx="958" cy="1056" r="10" class="c0"/>
<circle cx="864" cy="634" r="10" class="c0"/>
<circle cx="1100" cy="810" r="10" class="c0"/>
<circle cx="766" cy="738" r="10" class="c0"/>
<circle cx="1106" cy="966" r="10" class="c0"/>
<circle cx="930" cy="542" r="10" class="c0"/>
<circle cx="942" cy="506" r="10" class="c0"/>
<circle cx="850" cy="966" r="10" class="c0"/>
<circle cx="1132" cy="742" r="10" class="c0"/>
<circle cx="944" cy="574" r="10" class="c0"/>
<circle cx="916" cy="556" r="10" class="c0"/>
<circle cx="782" cy="832" r="10" class="c0"/>
<circle cx="798" cy="724" r="10" class="c0"/>
<circle cx="1128" cy="870" r="10" class="c0"/>
<circle cx="1100" cy="772" r="10" class="c0"/>
<circle cx="828" cy="858" r="10" class="c0"/>
<circle cx="896" cy="706" r="10" class="c0"/>
<circle cx="936" cy="788" r="10" class="c0"/>
<circle cx="976" cy="1076" r="10" class="c0"/>
<circle cx="818" cy="950" r="10" class="c0"/>
<circle cx="1184" cy="816" r="10" class="c0"/>
<circle cx="1130" cy="772" r="10" class="c0"/>
<circle cx="998" cy="622" r="10" class="c0"/>
<circle cx="878" cy="1032" r="10" class="c0"/>
<circle cx="990" cy="816" r="10" class="c0"/>
<circle cx="804" cy="844" r="10" class="c0"/>
<circle cx="946" cy="1068" r="10" class="c0"/>
<circle cx="874" cy="758" r="10" class="c0"/>
<circle cx="1100" cy="932" r="10" class="c0"/>
<circle cx="780" cy="798" r="10" class="c0"/>
<circle cx="906" cy="808" r="10" class="c0"/>
<circle cx="1010" cy="790" r="10" class="c0"/>
<circle cx="926" cy="584" r="10" class="c0"/>
<circle cx="1012" cy="960" r="10" class="c0"/>
<circle cx="1012" cy="740" r="10" class="c0"/>
<circle cx="878" cy="798" r="10" class="c0"/>
<circle cx="1058" cy="732" r="10" class="c0"/>
<circle cx="812" cy="676" r="10" class="c0"/>
<circle cx="822" cy="730" r="10" class="c0"/>
<circle cx="1144" cy="896" r="10" class="c0"/>
<circle cx="930" cy="960" r="10" class="c0"/>
<circle cx="1022" cy="804" r="10" class="c0"/>
<circle cx="1038" cy="748" r="10" class="c0"/>
<circle cx="938" cy="910" r="10" class="c0"/>
<circle cx="1060" cy="918" r="10" class="c0"/>
<circle cx="984" cy="536" r="10" class="c0"/>
<circle cx="936" cy="818" r="10" class="c0"/>
<circle cx="814" cy="902" r="10" class="c0"/>
<circle cx="830" cy="778" r="10" class="c0"/>
<circle cx="824" cy="630" r="10" class="c0"/>
<circle cx="988" cy="734" r="10" class="c0"/>
<circle cx="766" cy="886" r="10" class="c0"/>
<circle cx="1096" cy="864" r="10" class="c0"/>
<circle cx="976" cy="720" r="10" class="c0"/>
<circle cx="1088" cy="636" r="10" class="c0"/>
<circle cx="1156" cy="880" r="10" class="c0"/>
<circle cx="1164" cy="720" r="10" class="c0"/>
<circle cx="1068" cy="988" r="10" class="c0"/>
<circle cx="976" cy="982" r="10" class="c0"/>
<circle cx="996" cy="684" r="10" class="c0"/>
<circle cx="898" cy="906" r="10" class="c0"/>
<circle cx="890" cy="650" r="10" class="c0"/>
<circle cx="1072" cy="672" r="10" class="c0"/>
<circle cx="868" cy="910" r="10" class="c0"/>
<circle cx="980" cy="484" r="10" class="c0"/>
<circle cx="982" cy="918" r="10" class="c0"/>
<circle cx="922" cy="1042" r="10" class="c0"/>
<circle cx="910" cy="638" r="10" class="c0"/>
<circle cx="740" cy="868" r="10" class="c0"/>
<circle cx="938" cy="730" r="10" class="c0"/>
<circle cx="910" cy="728" r="10" class="c0"/>
<circle cx="1098" cy="902" r="10" class="c0"/>
<circle cx="1086" cy="784" r="10" class="c0"/>
<circle cx="1114" cy="890" r="10" class="c0"/>
<circle cx="782" cy="700" r="10" class="c0"/>
<circle cx="844" cy="1042" r="10" class="c0"/>
<circle cx="874" cy="992" r="10" class="c0"/>
<circle cx="1078" cy="708" r="10" class="c0"/>
<circle cx="876" cy="942" r="10" class="c0"/>
<circle cx="958" cy="858" r="10" class="c0"/>
<circle cx="1070" cy="604" r="10" class="c0"/>
<circle cx="1040" cy="680" r="10" class="c0"/>
<circle cx="998" cy="768" r="10" class="c0"/>
<circle cx="1064" cy="1058" r="10" class="c0"/>
<circle cx="880" cy="728" r="10" class="c0"/>
<circle cx="1022" cy="862" r="10" class="c0"/>
<circle cx="1058" cy="788" r="10" class="c0"/>
<circle cx="1056" cy="870" r="10" class="c0"/>
<circle cx="886" cy="686" r="10" class="c0"/>
<circle cx="1166" cy="784" r="10" class="c0"/>
<circle cx="1026" cy="650" r="10" class="c0"/>
<circle cx="850" cy="736" r="10" class="c0"/>
<circle cx="876" cy="1074" r="10" class="c0"/>
<circle cx="1074" cy="840" r="10" class="c0"/>
<circle cx="820" cy="1004" r="10" class="c0"/>
<circle cx="860" cy="698" r="10" class="c0"/>
<circle cx="894" cy="592" r="10" class="c0"/>
<circle cx="1120" cy="682" r="10" class="c0"/>
<circle cx="778" cy="934" r="10" class="c0"/>
<circle cx="860" cy="812" r="10" class="c0"/>
<circle cx="986" cy="1058" r="10" class="c0"/>
<circle cx="1074" cy="938" r="10" class="c0"/>
<circle cx="908" cy="844" r="8" class="c0"/>
<circle cx="934" cy="628" r="8" class="c0"/>
<circle cx="934" cy="868" r="8" class="c0"/>
<circle cx="1110" cy="996" r="8" class="c0"/>
<circle cx="964" cy="838" r="8" class="c0"/>
<circle cx="776" cy="862" r="8" class="c0"/>
<circle cx="1008" cy="846" r="8" class="c0"/>
<circle cx="958" cy="590" r="8" class="c0"/>
<circle cx="946" cy="1102" r="8" class="c0"/>
<circle cx="786" cy="674" r="8" class="c0"/>
<circle cx="898" cy="928" r="8" class="c0"/>
<circle cx="806" cy="654" r="8" class="c0"/>
<circle cx="1002" cy="930" r="8" class="c0"/>
<circle cx="1146" cy="928" r="8" class="c0"/>
<circle cx="760" cy="844" r="8" class="c0"/>
<circle cx="798" cy="874" r="8" class="c0"/>
<circle cx="1104" cy="692" r="8" class="c0"/>
<circle cx="1054" cy="706" r="8" class="c0"/>
<circle cx="1024" cy="770" r="8" class="c0"/>
<circle cx="1000" cy="986" r="8" class="c0"/>
<circle cx="758" cy="914" r="8" class="c0"/>
<circle cx="904" cy="946" r="8" class="c0"/>
<circle cx="910" cy="766" r="8" class="c0"/>
<circle cx="848" cy="786" r="8" class="c0"/>
<circle cx="964" cy="736" r="8" class="c0"/>
<circle cx="956" cy="956" r="8" class="c0"/>
<circle cx="942" cy="974" r="8" class="c0"/>
<circle cx="946" cy="842" r="8" class="c0"/>
<circle cx="1116" cy="842" r="8" class="c0"/>
<circle cx="1178" cy="736" r="8" class="c0"/>
<circle cx="850" cy="646" r="8" class="c0"/>
<circle cx="986" cy="1092" r="8" class="c0"/>
<circle cx="950" cy="1028" r="8" class="c0"/>
<circle cx="1048" cy="624" r="8" class="c0"/>
<circle cx="866" cy="840" r="8" class="c0"/>
<circle cx="878" cy="602" r="8" class="c0"/>
<circle cx="826" cy="654" r="8" class="c0"/>
<circle cx="1112" cy="642" r="8" class="c0"/>
<circle cx="972" cy="464" r="8" class="c0"/>
<circle cx="952" cy="890" r="8" class="c0"/>
<circle cx="848" cy="866" r="8" class="c0"/>
<circle cx="1138" cy="826" r="8" class="c0"/>
<circle cx="1002" cy="584" r="8" class="c0"/>
<circle cx="1096" cy="842" r="8" class="c0"/>
<circle cx="830" cy="980" r="8" class="c0"/>
<circle cx="1136" cy="796" r="8" class="c0"/>
<circle cx="906" cy="576" r="8" class="c0"/>
<circle cx="798" cy="948" r="8" class="c0"/>
<circle cx="950" cy="930" r="8" class="c0"/>
<circle cx="1114" cy="760" r="8" class="c0"/>
<circle cx="908" cy="662" r="8" class="c0"/>
<circle cx="1070" cy="626" r="8" class="c0"/>
<circle cx="1040" cy="722" r="8" class="c0"/>
<circle cx="926" cy="936" r="8" class="c0"/>
<circle cx="916" cy="480" r="8" class="c0"/>
<circle cx="964" cy="648" r="8" class="c0"/>
<circle cx="1094" cy="664" r="8" class="c0"/>
<circle cx="952" cy="488" r="8" class="c0"/>
<circle cx="892" cy="624" r="8" class="c0"/>
<circle cx="846" cy="846" r="8" class="c0"/>
<circle cx="984" cy="450" r="8" class="c0"/>
<circle cx="1096" cy="1016" r="8" class="c0"/>
<circle cx="1046" cy="1044" r="8" class="c0"/>
<circle cx="754" cy="780" r="8" class="c0"/>
<circle cx="922" cy="684" r="8" class="c0"/>
<circle cx="1014" cy="884" r="8" class="c0"/>
<circle cx="840" cy="948" r="8" class="c0"/>
<circle cx="930" cy="652" r="8" class="c0"/>
<circle cx="768" cy="684" r="8" class="c0"/>
<circle cx="836" cy="610" r="8" class="c0"/>
<circle cx="1120" cy="658" r="8" class="c0"/>
<circle cx="840" cy="760" r="8" class="c0"/>
<circle cx="928" cy="986" r="8" class="c0"/>
<circle cx="998" cy="650" r="8" class="c0"/>
<circle cx="1138" cy="666" r="8" class="c0"/>
<circle cx="906" cy="878" r="8" class="c0"/>
<circle cx="808" cy="932" r="8" class="c0"/>
<circle cx="1078" cy="808" r="8" class="c0"/>
<circle cx="1068" cy="756" r="8" class="c0"/>
<circle cx="852" cy="926" r="8" class="c0"/>
<circle cx="888" cy="834" r="8" class="c0"/>
<circle cx="1148" cy="680" r="8" class="c0"/>
<circle cx="1184" cy="762" r="8" class="c0"/>
<circle cx="864" cy="876" r="8" class="c0"/>
<circle cx="818" cy="804" r="8" class="c0"/>
<circle cx="972" cy="1010" r="8" class="c0"/>
<circle cx="1180" cy="796" r="8" class="c0"/>
<circle cx="964" cy="706" r="8" class="c0"/>
<circle cx="730" cy="784" r="8" class="c0"/>
<circle cx="808" cy="792" r="8" class="c0"/>
<circle cx="962" cy="900" r="8" class="c0"/>
<circle cx="922" cy="606" r="8" class="c0"/>
<circle cx="798" cy="972" r="8" class="c0"/>
<circle cx="942" cy="530" r="8" class="c0"/>
<circle cx="742" cy="836" r="8" class="c0"/>
<circle cx="1126" cy="940" r="8" class="c0"/>
<circle cx="922" cy="754" r="8" class="c0"/>
<circle cx="864" cy="954" r="8" class="c0"/>
<circle cx="1038" cy="1062" r="8" class="c0"/>
<circle cx="932" cy="768" r="8" class="c0"/>
<circle cx="1050" cy="648" r="8" class="c0"/>
<circle cx="1072" cy="884" r="8" class="c0"/>
<circle cx="1154" cy="808" r="8" class="c0"/>
<circle cx="1026" cy="602" r="8" class="c0"/>
<circle cx="976" cy="638" r="8" class="c0"/>
<circle cx="1020" cy="692" r="8" class="c0"/>
<circle cx="1088" cy="758" r="8" class="c0"/>
<circle cx="1054" cy="940" r="8" class="c0"/>
<circle cx="1174" cy="890" r="8" class="c0"/>
<circle cx="960" cy="760" r="8" class="c0"/>
<circle cx="1012" cy="710" r="8" class="c0"/>
<circle cx="904" cy="1028" r="8" class="c0"/>
<circle cx="952" cy="540" r="8" class="c0"/>
<circle cx="1090" cy="988" r="8" class="c0"/>
<circle cx="1154" cy="752" r="8" class="c0"/>
<circle cx="770" cy="820" r="8" class="c0"/>
<circle cx="1024" cy="1030" r="8" class="c0"/>
<circle cx="806" cy="696" r="8" class="c0"/>
<circle cx="962" cy="1094" r="8" class="c0"/>
<circle cx="960" cy="818" r="8" class="c0"/>
<circle cx="1180" cy="838" r="8" class="c0"/>
<circle cx="1012" cy="1080" r="8" class="c0"/>
<circle cx="914" cy="530" r="8" class="c0"/>
<circle cx="812" cy="982" r="8" class="c0"/>
<circle cx="940" cy="604" r="8" class="c0"/>
<circle cx="1020" cy="832" r="8" class="c0"/>
<circle cx="750" cy="716" r="8" class="c0"/>
<circle cx="930" cy="492" r="8" class="c0"/>
<circle cx="1064" cy="694" r="8" class="c0"/>
<circle cx="916" cy="888" r="8" class="c0"/>
<circle cx="1126" cy="814" r="8" class="c0"/>
<circle cx="794" cy="782" r="8" class="c0"/>
<circle cx="748" cy="898" r="8" class="c0"/>
<circle cx="762" cy="704" r="8" class="c0"/>
<circle cx="1010" cy="640" r="8" class="c0"/>
<circle cx="964" cy="530" r="8" class="c0"/>
<circle cx="970" cy="770" r="8" class="c0"/>
<circle cx="828" cy="750" r="8" class="c0"/>
<circle cx="926" cy="838" r="8" class="c0"/>
<circle cx="1122" cy="708" r="8" class="c0"/>
<circle cx="880" cy="962" r="8" class="c0"/>
<circle cx="1046" cy="606" r="8" class="c0"/>
<circle cx="952" cy="718" r="8" class="c0"/>
<circle cx="908" cy="616" r="8" class="c0"/>
<circle cx="1042" cy="850" r="8" class="c0"/>
<circle cx="1044" cy="772" r="8" class="c0"/>
<circle cx="1164" cy="818" r="8" class="c0"/>
<circle cx="1082" cy="734" r="8" class="c0"/>
<circle cx="900" cy="1002" r="8" class="c0"/>
<circle cx="1080" cy="1004" r="8" class="c0"/>
<circle cx="968" cy="504" r="8" class="c0"/>
<circle cx="984" cy="582" r="8" class="c0"/>
<circle cx="920" cy="778" r="8" class="c0"/>
<circle cx="892" cy="740" r="8" class="c0"/>
<circle cx="858" cy="1022" r="8" class="c0"/>
<circle cx="1068" cy="820" r="8" class="c0"/>
<circle cx="1130" cy="958" r="8" class="c0"/>
<circle cx="994" cy="864" r="8" class="c0"/>
<circle cx="1060" cy="960" r="8" class="c0"/>
<circle cx="848" cy="624" r="8" class="c0"/>
<circle cx="806" cy="746" r="8" class="c0"/>
<circle cx="802" cy="914" r="8" class="c0"/>
<circle cx="882" cy="894" r="8" class="c0"/>
<circle cx="1158" cy="916" r="8" class="c0"/>
<circle cx="954" cy="638" r="8" class="c0"/>
<circle cx="1028" cy="620" r="8" class="c0"/>
<circle cx="840" cy="718" r="8" class="c0"/>
<circle cx="858" cy="774" r="8" class="c0"/>
<circle cx="1038" cy="878" r="8" class="c0"/>
<circle cx="1036" cy="958" r="8" class="c0"/>
<circle cx="974" cy="886" r="8" class="c0"/>
<circle cx="982" cy="1036" r="8" class="c0"/>
<circle cx="1028" cy="910" r="8" class="c0"/>
<circle cx="1084" cy="1052" r="8" class="c0"/>
<circle cx="990" cy="506" r="8" class="c0"/>
<circle cx="956" cy="666" r="8" class="c0"/>
<circle cx="1082" cy="916" r="8" class="c0"/>
<circle cx="978" cy="516" r="8" class="c0"/>
<circle cx="944" cy="750" r="8" class="c0"/>
<circle cx="1112" cy="824" r="8" class="c0"/>
<circle cx="1038" cy="794" r="8" class="c0"/>
<circle cx="992" cy="704" r="8" class="c0"/>
<circle cx="910" cy="498" r="8" class="c0"/>
<circle cx="934" cy="1054" r="8" class="c0"/>
<circle cx="744" cy="742" r="8" class="c0"/>
<circle cx="738" cy="888" r="8" class="c0"/>
<circle cx="952" cy="776" r="8" class="c0"/>
<circle cx="854" cy="604" r="8" class="c0"/>
<circle cx="1040" cy="920" r="8" class="c0"/>
<circle cx="930" cy="1094" r="8" class="c0"/>
<circle cx="912" cy="918" r="8" class="c0"/>
<circle cx="856" cy="1054" r="8" class="c0"/>
<circle cx="888" cy="1014" r="8" class="c0"/>
<circle cx="816" cy="882" r="8" class="c0"/>
<circle cx="950" cy="802" r="8" class="c0"/>
<circle cx="1008" cy="662" r="8" class="c0"/>
<circle cx="824" cy="1030" r="8" class="c0"/>
<circle cx="974" cy="746" r="8" class="c0"/>
<circle cx="728" cy="820" r="8" class="c0"/>
<circle cx="1010" cy="906" r="8" class="c0"/>
<circle cx="910" cy="1054" r="8" class="c0"/>
<circle cx="732" cy="846" r="8" class="c0"/>
<circle cx="1076" cy="652" r="8" class="c0"/>
<circle cx="778" cy="726" r="8" class="c0"/>
<circle cx="1088" cy="682" r="8" class="c0"/>
<circle cx="1086" cy="828" r="8" class="c0"/>
<circle cx="1118" cy="792" r="8" class="c0"/>
<circle cx="1018" cy="674" r="8" class="c0"/>
<circle cx="1122" cy="976" r="8" class="c0"/>
<circle cx="940" cy="472" r="8" class="c0"/>
<circle cx="960" cy="918" r="8" class="c0"/>
<circle cx="912" cy="694" r="8" class="c0"/>
<circle cx="838" cy="670" r="8" class="c0"/>
<circle cx="986" cy="756" r="8" class="c0"/>
<circle cx="818" cy="710" r="8" class="c0"/>
<circle cx="954" cy="518" r="8" class="c0"/>
<circle cx="924" cy="800" r="8" class="c0"/>
<circle cx="1040" cy="1080" r="8" class="c0"/>
<circle cx="870" cy="972" r="8" class="c0"/>
<circle cx="992" cy="468" r="8" class="c0"/>
<circle cx="972" cy="684" r="8" class="c0"/>
<circle cx="788" cy="740" r="8" class="c0"/>
<circle cx="1002" cy="828" r="8" class="c0"/>
<circle cx="1076" cy="866" r="8" class="c0"/>
<circle cx="1036" cy="700" r="8" class="c0"/>
<circle cx="796" cy="686" r="8" class="c0"/>
<circle cx="1102" cy="624" r="8" class="c0"/>
<circle cx="1064" cy="1038" r="6" class="c0"/>
<circle cx="1146" cy="730" r="6" class="c0"/>
<circle cx="1130" cy="722" r="6" class="c0"/>
<circle cx="832" cy="796" r="6" class="c0"/>
<circle cx="920" cy="858" r="6" class="c0"/>
<circle cx="1020" cy="724" r="6" class="c0"/>
<circle cx="1008" cy="1032" r="6" class="c0"/>
<circle cx="918" cy="972" r="6" class="c0"/>
<circle cx="906" cy="750" r="6" class="c0"/>
<circle cx="940" cy="1038" r="6" class="c0"/>
<circle cx="990" cy="972" r="6" class="c0"/>
<circle cx="904" cy="678" r="6" class="c0"/>
<circle cx="1050" cy="836" r="6" class="c0"/>
<circle cx="1048" cy="664" r="6" class="c0"/>
<circle cx="878" cy="820" r="6" class="c0"/>
<circle cx="886" cy="918" r="6" class="c0"/>
<circle cx="878" cy="704" r="6" class="c0"/>
<circle cx="986" cy="1002" r="6" class="c0"/>
<circle cx="1114" cy="738" r="6" class="c0"/>
<circle cx="752" cy="822" r="6" class="c0"/>
<circle cx="868" cy="714" r="6" class="c0"/>
<circle cx="1060" cy="806" r="6" class="c0"/>
<circle cx="1142" cy="842" r="6" class="c0"/>
<circle cx="872" cy="1010" r="6" class="c0"/>
<circle cx="894" cy="1078" r="6" class="c0"/>
<circle cx="1150" cy="774" r="6" class="c0"/>
<circle cx="972" cy="1046" r="6" class="c0"/>
<circle cx="1136" cy="692" r="6" class="c0"/>
<circle cx="918" cy="822" r="6" class="c0"/>
<circle cx="1008" cy="608" r="6" class="c0"/>
<circle cx="994" cy="522" r="6" class="c0"/>
<circle cx="1078" cy="900" r="6" class="c0"/>
<circle cx="942" cy="946" r="6" class="c0"/>
<circle cx="850" cy="684" r="6" class="c0"/>
<circle cx="1058" cy="1004" r="6" class="c0"/>
<circle cx="976" cy="870" r="6" class="c0"/>
<circle cx="1190" cy="786" r="6" class="c0"/>
<circle cx="1068" cy="774" r="6" class="c0"/>
<circle cx="890" cy="766" r="6" class="c0"/>
<circle cx="1020" cy="980" r="6" class="c0"/>
<circle cx="1188" cy="852" r="6" class="c0"/>
<circle cx="1066" cy="1012" r="6" class="c0"/>
<circle cx="872" cy="858" r="6" class="c0"/>
<circle cx="878" cy="778" r="6" class="c0"/>
<circle cx="1002" cy="722" r="6" class="c0"/>
<circle cx="904" cy="826" r="6" class="c0"/>
<circle cx="994" cy="430" r="6" class="c0"/>
<circle cx="758" cy="754" r="6" class="c0"/>
<circle cx="924" cy="512" r="6" class="c0"/>
<circle cx="1168" cy="764" r="6" class="c0"/>
<circle cx="796" cy="894" r="6" class="c0"/>
<circle cx="848" cy="984" r="6" class="c0"/>
<circle cx="1142" cy="948" r="6" class="c0"/>
<circle cx="1036" cy="634" r="6" class="c0"/>
<circle cx="966" cy="1026" r="6" class="c0"/>
<circle cx="1052" cy="758" r="6" class="c0"/>
<circle cx="996" cy="562" r="6" class="c0"/>
<circle cx="874" cy="620" r="6" class="c0"/>
<circle cx="786" cy="886" r="6" class="c0"/>
<circle cx="1056" cy="1076" r="6" class="c0"/>
<circle cx="896" cy="960" r="6" class="c0"/>
<circle cx="818" cy="832" r="6" class="c0"/>
<circle cx="760" cy="866" r="6" class="c0"/>
<circle cx="936" cy="892" r="6" class="c0"/>
<circle cx="1094" cy="1040" r="6" class="c0"/>
<circle cx="956" cy="470" r="6" class="c0"/>
<circle cx="830" cy="962" r="6" class="c0"/>
<circle cx="996" cy="952" r="6" class="c0"/>
<circle cx="992" cy="798" r="6" class="c0"/>
<circle cx="966" cy="966" r="6" class="c0"/>
<circle cx="764" cy="790" r="6" class="c0"/>
<circle cx="1102" cy="746" r="6" class="c0"/>
<circle cx="830" cy="938" r="6" class="c0"/>
<circle cx="1026" cy="1072" r="6" class="c0"/>
<circle cx="1162" cy="694" r="6" class="c0"/>
<circle cx="1066" cy="642" r="6" class="c0"/>
<circle cx="990" cy="784" r="6" class="c0"/>
<circle cx="1084" cy="618" r="6" class="c0"/>
<circle cx="958" cy="978" r="6" class="c0"/>
<circle cx="974" cy="828" r="6" class="c0"/>
<circle cx="858" cy="1070" r="6" class="c0"/>
<circle cx="1060" cy="852" r="6" class="c0"/>
<circle cx="1104" cy="674" r="6" class="c0"/>
<circle cx="1028" cy="892" r="6" class="c0"/>
<circle cx="996" cy="1074" r="6" class="c0"/>
<circle cx="942" cy="556" r="6" class="c0"/>
<circle cx="1144" cy="762" r="6" class="c0"/>
<circle cx="1174" cy="908" r="6" class="c0"/>
<circle cx="856" cy="830" r="6" class="c0"/>
<circle cx="976" cy="1102" r="6" class="c0"/>
<circle cx="806" cy="636" r="6" class="c0"/>
<circle cx="1164" cy="900" r="6" class="c0"/>
<circle cx="792" cy="858" r="6" class="c0"/>
<circle cx="1094" cy="950" r="6" class="c0"/>
<circle cx="900" cy="1066" r="6" class="c0"/>
<circle cx="770" cy="778" r="6" class="c0"/>
<circle cx="1196" cy="798" r="6" class="c0"/>
<circle cx="1188" cy="880" r="6" class="c0"/>
<circle cx="912" cy="992" r="6" class="c0"/>
<circle cx="1028" cy="732" r="6" class="c0"/>
<circle cx="790" cy="652" r="6" class="c0"/>
<circle cx="1088" cy="882" r="6" class="c0"/>
<circle cx="884" cy="668" r="6" class="c0"/>
<circle cx="1040" cy="1002" r="6" class="c0"/>
<circle cx="930" cy="670" r="6" class="c0"/>
<circle cx="1138" cy="856" r="6" class="c0"/>
<circle cx="1196" cy="844" r="6" class="c0"/>
<circle cx="834" cy="1020" r="6" class="c0"/>
<circle cx="1174" cy="752" r="6" class="c0"/>
<circle cx="880" cy="874" r="6" class="c0"/>
<circle cx="1108" cy="948" r="6" class="c0"/>
<circle cx="1002" cy="1090" r="6" class="c0"/>
<circle cx="982" cy="964" r="6" class="c0"/>
<circle cx="750" cy="854" r="6" class="c0"/>
<circle cx="872" cy="654" r="6" class="c0"/>
<circle cx="948" cy="1086" r="6" class="c0"/>
<circle cx="1014" cy="758" r="6" class="c0"/>
<circle cx="1154" cy="832" r="6" class="c0"/>
<circle cx="858" cy="856" r="6" class="c0"/>
<circle cx="792" cy="924" r="6" class="c0"/>
<circle cx="802" cy="992" r="6" class="c0"/>
<circle cx="860" cy="722" r="6" class="c0"/>
<circle cx="786" cy="960" r="6" class="c0"/>
<circle cx="910" cy="964" r="6" class="c0"/>
<circle cx="950" cy="874" r="6" class="c0"/>
<circle cx="842" cy="804" r="6" class="c0"/>
<circle cx="856" cy="756" r="6" class="c0"/>
<circle cx="1146" cy="866" r="6" class="c0"/>
<circle cx="998" cy="1040" r="6" class="c0"/>
<circle cx="1000" cy="600" r="6" class="c0"/>
<circle cx="920" cy="904" r="6" class="c0"/>
<circle cx="796" cy="664" r="6" class="c0"/>
<circle cx="810" cy="862" r="6" class="c0"/>
<circle cx="936" cy="852" r="6" class="c0"/>
<circle cx="912" cy="594" r="6" class="c0"/>
<circle cx="998" cy="488" r="6" class="c0"/>
<circle cx="868" cy="740" r="6" class="c0"/>
<circle cx="848" cy="910" r="6" class="c0"/>
<circle cx="946" cy="656" r="6" class="c0"/>
<circle cx="1060" cy="658" r="6" class="c0"/>
<circle cx="932" cy="520" r="6" class="c0"/>
<circle cx="1114" cy="860" r="6" class="c0"/>
<circle cx="940" cy="1018" r="6" class="c0"/>
<circle cx="866" cy="892" r="6" class="c0"/>
<circle cx="832" cy="876" r="6" class="c0"/>
<circle cx="968" cy="580" r="6" class="c0"/>
<circle cx="1194" cy="830" r="6" class="c0"/>
<circle cx="960" cy="1038" r="6" class="c0"/>
<circle cx="924" cy="1064" r="6" class="c0"/>
<circle cx="1162" cy="738" r="6" class="c0"/>
<circle cx="866" cy="1044" r="6" class="c0"/>
<circle cx="1004" cy="874" r="6" class="c0"/>
<circle cx="964" cy="876" r="6" class="c0"/>
<circle cx="982" cy="694" r="6" class="c0"/>
<circle cx="1012" cy="818" r="6" class="c0"/>
<circle cx="892" cy="818" r="6" class="c0"/>
<circle cx="826" cy="840" r="6" class="c0"/>
</svg>
