<?xml version="1.0" encoding="utf-8"?>
<svg xmlns="http://www.w3.org/2000/svg"
     xmlns:xlink="http://www.w3.org/1999/xlink" width="1920" height="1440" >

            <defs>
            <style type="text/css"><![CDATA[
circle {stroke: none;}
.c0 {fill: #FFFFFF;}
]]></style>
            </defs>
<rect x="0" y="0" width="1920" height="1440" fill="black"/>
<circle cx="1066" cy="680" r="12" class="c0"/>
<circle cx="976" cy="722" r="12" class="c0"/>
<circle cx="1106" cy="930" r="12" class="c0"/>
<circle cx="982" cy="806" r="12" class="c0"/>
<circle cx="904" cy="716" r="12" class="c0"/>
<circle cx="968" cy="558" r="12" class="c0"/>
<circle cx="850" cy="984" r="12" class="c0"/>
<circle cx="914" cy="848" r="12" class="c0"/>
<circle cx="876" cy="898" r="12" class="c0"/>
<circle cx="1068" cy="808" r="12" class="c0"/>
<circle cx="1092" cy="864" r="12" class="c0"/>
<circle cx="990" cy="920" r="12" class="c0"/>
<circle cx="908" cy="1048" r="12" class="c0"/>
<circle cx="990" cy="638" r="12" class="c0"/>
<circle cx="978" cy="1070" r="12" class="c0"/>
<circle cx="954" cy="776" r="12" class="c0"/>
<circle cx="998" cy="544" r="12" class="c0"/>
<circle cx="1050" cy="760" r="12" class="c0"/>
<circle cx="826" cy="728" r="12" class="c0"/>
<circle cx="936" cy="974" r="12" class="c0"/>
<circle cx="1044" cy="918" r="12" class="c0"/>
<circle cx="830" cy="656" r="12" class="c0"/>
<circle cx="1198" cy="878" r="12" class="c0"/>
<circle cx="1088" cy="768" r="12" class="c0"/>
<circle cx="1116" cy="772" r="12" class="c0"/>
<circle cx="858" cy="678" r="12" class="c0"/>
<circle cx="1034" cy="778" r="12" class="c0"/>
<circle cx="980" cy="1006" r="12" class="c0"/>
<circle cx="900" cy="782" r="12" class="c0"/>
<circle cx="1188" cy="902" r="12" class="c0"/>
<circle cx="966" cy="672" r="12" class="c0"/>
<circle cx="1104" cy="830" r="12" class="c0"/>
<circle cx="782" cy="748" r="12" class="c0"/>
<circle cx="1088" cy="970" r="12" class="c0"/>
<circle cx="1068" cy="722" r="10" class="c0"/>
<circle cx="892" cy="1068" r="10" class="c0"/>
<circle cx="860" cy="864" r="10" class="c0"/>
<circle cx="768" cy="776" r="10" class="c0"/>
<circle cx="1008" cy="1010" r="10" class="c0"/>
<circle cx="1012" cy="564" r="10" class="c0"/>
<circle cx="738" cy="770" r="10" class="c0"/>
<circle cx="808" cy="882" r="10" class="c0"/>
<circle cx="1004" cy="952" r="10" class="c0"/>
<circle cx="1116" cy="738" r="10" class="c0"/>
<circle cx="882" cy="1008" r="10" class="c0"/>
<circle cx="1000" cy="892" r="10" class="c0"/>
<circle cx="992" cy="608" r="10" class="c0"/>
<circle cx="866" cy="804" r="10" class="c0"/>
<circle cx="948" cy="702" r="10" class="c0"/>
<circle cx="1086" cy="1002" r="10" class="c0"/>
<circle cx="1026" cy="604" r="10" class="c0"/>
<circle cx="1100" cy="794" r="10" class="c0"/>
<circle cx="1076" cy="890" r="10" class="c0"/>
<circle cx="916" cy="910" r="10" class="c0"/>
<circle cx="1046" cy="952" r="10" class="c0"/>
<circle cx="914" cy="644" r="10" class="c0"/>
<circle cx="798" cy="734" r="10" class="c0"/>
<circle cx="978" cy="762" r="10" class="c0"/>
<circle cx="1174" cy="806" r="10" class="c0"/>
<circle cx="804" cy="934" r="10" class="c0"/>
<circle cx="880" cy="702" r="10" class="c0"/>
<circle cx="950" cy="804" r="10" class="c0"/>
<circle cx="1028" cy="1082" r="10" class="c0"/>
<circle cx="866" cy="622" r="10" class="c0"/>
<circle cx="918" cy="762" r="10" class="c0"/>
<circle cx="806" cy="910" r="10" class="c0"/>
<circle cx="762" cy="738" r="10" class="c0"/>
<circle cx="1054" cy="826" r="10" class="c0"/>
<circle cx="936" cy="928" r="10" class="c0"/>
<circle cx="740" cy="820" r="10" class="c0"/>
<circle cx="860" cy="1022" r="10" class="c0"/>
<circle cx="968" cy="1090" r="10" class="c0"/>
<circle cx="798" cy="664" r="10" class="c0"/>
<circle cx="970" cy="934" r="10" class="c0"/>
<circle cx="1022" cy="938" r="10" class="c0"/>
<circle cx="1156" cy="762" r="10" class="c0"/>
<circle cx="840" cy="750" r="10" class="c0"/>
<circle cx="1104" cy="900" r="10" class="c0"/>
<circle cx="812" cy="842" r="10" class="c0"/>
<circle cx="924" cy="818" r="10" class="c0"/>
<circle cx="920" cy="696" r="10" class="c0"/>
<circle cx="834" cy="858" r="10" class="c0"/>
<circle cx="1064" cy="774" r="10" class="c0"/>
<circle cx="1040" cy="710" r="10" class="c0"/>
<circle cx="886" cy="850" r="10" class="c0"/>
<circle cx="926" cy="564" r="10" class="c0"/>
<circle cx="840" cy="914" r="10" class="c0"/>
<circle cx="950" cy="1076" r="10" class="c0"/>
<circle cx="840" cy="882" r="10" class="c0"/>
<circle cx="912" cy="888" r="10" class="c0"/>
<circle cx="1040" cy="1016" r="10" class="c0"/>
<circle cx="832" cy="778" r="10" class="c0"/>
<circle cx="950" cy="848" r="10" class="c0"/>
<circle cx="930" cy="748" r="10" class="c0"/>
<circle cx="916" cy="736" r="10" class="c0"/>
<circle cx="1126" cy="850" r="10" class="c0"/>
<circle cx="776" cy="916" r="10" class="c0"/>
<circle cx="820" cy="894" r="10" class="c0"/>
<circle cx="992" cy="832" r="10" class="c0"/>
<circle cx="1118" cy="996" r="10" class="c0"/>
<circle cx="986" cy="488" r="10" class="c0"/>
<circle cx="1148" cy="908" r="10" class="c0"/>
<circle cx="944" cy="1026" r="10" class="c0"/>
<circle cx="1142" cy="864" r="10" class="c0"/>
<circle cx="1124" cy="956" r="10" class="c0"/>
<circle cx="1144" cy="830" r="10" class="c0"/>
<circle cx="1074" cy="932" r="10" class="c0"/>
<circle cx="974" cy="1042" r="10" class="c0"/>
<circle cx="1000" cy="712" r="10" class="c0"/>
<circle cx="960" cy="536" r="10" class="c0"/>
<circle cx="1138" cy="968" r="10" class="c0"/>
<circle cx="940" cy="526" r="10" class="c0"/>
<circle cx="914" cy="1020" r="10" class="c0"/>
<circle cx="976" cy="862" r="10" class="c0"/>
<circle cx="972" cy="584" r="10" class="c0"/>
<circle cx="1106" cy="676" r="10" class="c0"/>
<circle cx="1000" cy="1058" r="10" class="c0"/>
<circle cx="876" cy="640" r="10" class="c0"/>
<circle cx="768" cy="838" r="10" class="c0"/>
<circle cx="966" cy="746" r="10" class="c0"/>
<circle cx="1104" cy="720" r="10" class="c0"/>
<circle cx="978" cy="512" r="10" class="c0"/>
<circle cx="1110" cy="1044" r="10" class="c0"/>
<circle cx="1030" cy="652" r="10" class="c0"/>
<circle cx="748" cy="690" r="10" class="c0"/>
<circle cx="1046" cy="1070" r="10" class="c0"/>
<circle cx="882" cy="820" r="10" class="c0"/>
<circle cx="828" cy="972" r="10" class="c0"/>
<circle cx="1020" cy="762" r="10" class="c0"/>
<circle cx="1010" cy="856" r="10" class="c0"/>
<circle cx="786" cy="878" r="10" class="c0"/>
<circle cx="944" cy="732" r="10" class="c0"/>
<circle cx="920" cy="946" r="10" class="c0"/>
<circle cx="1004" cy="1036" r="10" class="c0"/>
<circle cx="846" cy="714" r="10" class="c0"/>
<circle cx="998" cy="458" r="10" class="c0"/>
<circle cx="1132" cy="788" r="10" class="c0"/>
<circle cx="784" cy="808" r="10" class="c0"/>
<circle cx="1032" cy="1058" r="10" class="c0"/>
<circle cx="1064" cy="988" r="10" class="c0"/>
<circle cx="1024" cy="990" r="10" class="c0"/>
<circle cx="904" cy="924" r="10" class="c0"/>
<circle cx="920" cy="1086" r="8" class="c0"/>
<circle cx="1064" cy="658" r="8" class="c0"/>
<circle cx="1038" cy="976" r="8" class="c0"/>
<circle cx="1032" cy="818" r="8" class="c0"/>
<circle cx="1056" cy="1032" r="8" class="c0"/>
<circle cx="1148" cy="944" r="8" class="c0"/>
<circle cx="844" cy="934" r="8" class="c0"/>
<circle cx="912" cy="666" r="8" class="c0"/>
<circle cx="828" cy="1008" r="8" class="c0"/>
<circle cx="924" cy="600" r="8" class="c0"/>
<circle cx="874" cy="1044" r="8" class="c0"/>
<circle cx="848" cy="634" r="8" class="c0"/>
<circle cx="882" cy="926" r="8" class="c0"/>
<circle cx="1012" cy="1072" r="8" class="c0"/>
<circle cx="932" cy="1052" r="8" class="c0"/>
<circle cx="880" cy="766" r="8" class="c0"/>
<circle cx="1156" cy="798" r="8" class="c0"/>
<circle cx="1178" cy="782" r="8" class="c0"/>
<circle cx="864" cy="734" r="8" class="c0"/>
<circle cx="1012" cy="674" r="8" class="c0"/>
<circle cx="1186" cy="824" r="8" class="c0"/>
<circle cx="1064" cy="744" r="8" class="c0"/>
<circle cx="1016" cy="918" r="8" class="c0"/>
<circle cx="930" cy="1010" r="8" class="c0"/>
<circle cx="992" cy="782" r="8" class="c0"/>
<circle cx="836" cy="810" r="8" class="c0"/>
<circle cx="764" cy="818" r="8" class="c0"/>
<circle cx="932" cy="478" r="8" class="c0"/>
<circle cx="1056" cy="874" r="8" class="c0"/>
<circle cx="902" cy="752" r="8" class="c0"/>
<circle cx="800" cy="776" r="8" class="c0"/>
<circle cx="730" cy="842" r="8" class="c0"/>
<circle cx="1120" cy="702" r="8" class="c0"/>
<circle cx="1036" cy="868" r="8" class="c0"/>
<circle cx="954" cy="626" r="8" class="c0"/>
<circle cx="746" cy="866" r="8" class="c0"/>
<circle cx="1044" cy="732" r="8" class="c0"/>
<circle cx="766" cy="704" r="8" class="c0"/>
<circle cx="922" cy="626" r="8" class="c0"/>
<circle cx="794" cy="638" r="8" class="c0"/>
<circle cx="1028" cy="692" r="8" class="c0"/>
<circle cx="1052" cy="1000" r="8" class="c0"/>
<circle cx="800" cy="692" r="8" class="c0"/>
<circle cx="1140" cy="748" r="8" class="c0"/>
<circle cx="998" cy="984" r="8" class="c0"/>
<circle cx="1010" cy="482" r="8" class="c0"/>
<circle cx="976" cy="964" r="8" class="c0"/>
<circle cx="1012" cy="822" r="8" class="c0"/>
<circle cx="1020" cy="734" r="8" class="c0"/>
<circle cx="1074" cy="646" r="8" class="c0"/>
<circle cx="1086" cy="730" r="8" class="c0"/>
<circle cx="798" cy="830" r="8" class="c0"/>
<circle cx="890" cy="680" r="8" class="c0"/>
<circle cx="770" cy="686" r="8" class="c0"/>
<circle cx="960" cy="886" r="8" class="c0"/>
<circle cx="864" cy="934" r="8" class="c0"/>
<circle cx="1134" cy="932" r="8" class="c0"/>
<circle cx="1074" cy="848" r="8" class="c0"/>
<circle cx="894" cy="964" r="8" class="c0"/>
<circle cx="838" cy="618" r="8" class="c0"/>
<circle cx="958" cy="608" r="8" class="c0"/>
<circle cx="846" cy="798" r="8" class="c0"/>
<circle cx="816" cy="812" r="8" class="c0"/>
<circle cx="812" cy="628" r="8" class="c0"/>
<circle cx="742" cy="742" r="8" class="c0"/>
<circle cx="1168" cy="876" r="8" class="c0"/>
<circle cx="1082" cy="710" r="8" class="c0"/>
<circle cx="920" cy="992" r="8" class="c0"/>
<circle cx="1166" cy="856" r="8" class="c0"/>
<circle cx="1040" cy="1040" r="8" class="c0"/>
<circle cx="872" cy="838" r="8" class="c0"/>
<circle cx="1130" cy="1024" r="8" class="c0"/>
<circle cx="922" cy="786" r="8" class="c0"/>
<circle cx="826" cy="824" r="8" class="c0"/>
<circle cx="1030" cy="626" r="8" class="c0"/>
<circle cx="1142" cy="726" r="8" class="c0"/>
<circle cx="758" cy="892" r="8" class="c0"/>
<circle cx="840" cy="1020" r="8" class="c0"/>
<circle cx="1050" cy="796" r="8" class="c0"/>
<circle cx="1192" cy="798" r="8" class="c0"/>
<circle cx="996" cy="746" r="8" class="c0"/>
<circle cx="964" cy="488" r="8" class="c0"/>
<circle cx="884" cy="662" r="8" class="c0"/>
<circle cx="950" cy="468" r="8" class="c0"/>
<circle cx="994" cy="678" r="8" class="c0"/>
<circle cx="994" cy="588" r="8" class="c0"/>
<circle cx="1078" cy="1032" r="8" class="c0"/>
<circle cx="788" cy="786" r="8" class="c0"/>
<circle cx="844" cy="962" r="8" class="c0"/>
<circle cx="1066" cy="1080" r="8" class="c0"/>
<circle cx="884" cy="748" r="8" class="c0"/>
<circle cx="964" cy="822" r="8" class="c0"/>
<circle cx="810" cy="746" r="8" class="c0"/>
<circle cx="778" cy="662" r="8" class="c0"/>
<circle cx="948" cy="872" r="8" class="c0"/>
<circle cx="922" cy="872" r="8" class="c0"/>
<circle cx="1136" cy="894" r="8" class="c0"/>
<circle cx="828" cy="696" r="8" class="c0"/>
<circle cx="876" cy="874" r="8" class="c0"/>
<circle cx="876" cy="946" r="8" class="c0"/>
<circle cx="856" cy="764" r="8" class="c0"/>
<circle cx="960" cy="952" r="8" class="c0"/>
<circle cx="982" cy="660" r="8" class="c0"/>
<circle cx="1004" cy="518" r="8" class="c0"/>
<circle cx="782" cy="714" r="8" class="c0"/>
<circle cx="892" cy="622" r="8" class="c0"/>
<circle cx="842" cy="840" r="8" class="c0"/>
<circle cx="824" cy="940" r="8" class="c0"/>
<circle cx="1162" cy="924" r="8" class="c0"/>
<circle cx="968" cy="640" r="8" class="c0"/>
<circle cx="940" cy="612" r="8" class="c0"/>
<circle cx="788" cy="852" r="8" class="c0"/>
<circle cx="946" cy="642" r="8" class="c0"/>
<circle cx="974" cy="908" r="8" class="c0"/>
<circle cx="886" cy="1032" r="8" class="c0"/>
<circle cx="1140" cy="808" r="8" class="c0"/>
<circle cx="966" cy="794" r="8" class="c0"/>
<circle cx="1142" cy="996" r="8" class="c0"/>
<circle cx="1024" cy="1030" r="8" class="c0"/>
<circle cx="1090" cy="1062" r="8" class="c0"/>
<circle cx="1038" cy="678" r="8" class="c0"/>
<circle cx="1056" cy="852" r="8" class="c0"/>
<circle cx="950" cy="504" r="8" class="c0"/>
<circle cx="730" cy="728" r="8" class="c0"/>
<circle cx="894" cy="994" r="8" class="c0"/>
<circle cx="1016" cy="972" r="8" class="c0"/>
<circle cx="958" cy="922" r="8" class="c0"/>
<circle cx="1026" cy="842" r="8" class="c0"/>
<circle cx="1116" cy="974" r="8" class="c0"/>
<circle cx="772" cy="796" r="8" class="c0"/>
<circle cx="936" cy="654" r="8" class="c0"/>
<circle cx="812" cy="960" r="8" class="c0"/>
<circle cx="1196" cy="834" r="8" class="c0"/>
<circle cx="1120" cy="882" r="8" class="c0"/>
<circle cx="946" cy="992" r="8" class="c0"/>
<circle cx="1096" cy="654" r="8" class="c0"/>
<circle cx="930" cy="680" r="8" class="c0"/>
<circle cx="1040" cy="890" r="8" class="c0"/>
<circle cx="864" cy="914" r="8" class="c0"/>
<circle cx="806" cy="794" r="8" class="c0"/>
<circle cx="846" cy="820" r="8" class="c0"/>
<circle cx="1170" cy="838" r="8" class="c0"/>
<circle cx="1064" cy="962" r="8" class="c0"/>
<circle cx="1058" cy="1056" r="8" class="c0"/>
<circle cx="866" cy="1062" r="8" class="c0"/>
<circle cx="1022" cy="580" r="8" class="c0"/>
<circle cx="964" cy="1022" r="8" class="c0"/>
<circle cx="726" cy="808" r="8" class="c0"/>
<circle cx="1104" cy="756" r="8" class="c0"/>
<circle cx="866" cy="780" r="8" class="c0"/>
<circle cx="1088" cy="912" r="8" class="c0"/>
<circle cx="1012" cy="788" r="8" class="c0"/>
<circle cx="988" cy="696" r="8" class="c0"/>
<circle cx="1052" cy="646" r="8" class="c0"/>
<circle cx="1162" cy="742" r="8" class="c0"/>
<circle cx="984" cy="946" r="8" class="c0"/>
<circle cx="990" cy="874" r="8" class="c0"/>
<circle cx="934" cy="588" r="8" class="c0"/>
<circle cx="980" cy="534" r="8" class="c0"/>
<circle cx="822" cy="870" r="8" class="c0"/>
<circle cx="1118" cy="814" r="8" class="c0"/>
<circle cx="938" cy="888" r="8" class="c0"/>
<circle cx="968" cy="840" r="8" class="c0"/>
<circle cx="856" cy="656" r="8" class="c0"/>
<circle cx="1096" cy="696" r="8" class="c0"/>
<circle cx="1014" cy="640" r="8" class="c0"/>
<circle cx="802" cy="712" r="8" class="c0"/>
<circle cx="1080" cy="828" r="8" class="c0"/>
<circle cx="932" cy="720" r="8" class="c0"/>
<circle cx="892" cy="882" r="8" class="c0"/>
<circle cx="986" cy="568" r="8" class="c0"/>
<circle cx="998" cy="1086" r="8" class="c0"/>
<circle cx="904" cy="980" r="8" class="c0"/>
<circle cx="882" cy="980" r="8" class="c0"/>
<circle cx="730" cy="752" r="8" class="c0"/>
<circle cx="1052" cy="626" r="8" class="c0"/>
<circle cx="974" cy="474" r="8" class="c0"/>
<circle cx="916" cy="1068" r="8" class="c0"/>
<circle cx="1104" cy="984" r="8" class="c0"/>
<circle cx="884" cy="796" r="8" class="c0"/>
<circle cx="942" cy="906" r="8" class="c0"/>
<circle cx="1006" cy="500" r="8" class="c0"/>
<circle cx="824" cy="796" r="8" class="c0"/>
<circle cx="770" cy="864" r="8" class="c0"/>
<circle cx="906" cy="584" r="8" class="c0"/>
<circle cx="1064" cy="906" r="8" class="c0"/>
<circle cx="1006" cy="622" r="8" class="c0"/>
<circle cx="724" cy="786" r="8" class="c0"/>
<circle cx="736" cy="798" r="8" class="c0"/>
<circle cx="878" cy="724" r="8" class="c0"/>
<circle cx="946" cy="574" r="8" class="c0"/>
<circle cx="1014" cy="880" r="8" class="c0"/>
<circle cx="788" cy="900" r="8" class="c0"/>
<circle cx="1068" cy="1046" r="8" class="c0"/>
<circle cx="940" cy="828" r="8" class="c0"/>
<circle cx="1096" cy="1024" r="8" class="c0"/>
<circle cx="894" cy="832" r="8" class="c0"/>
<circle cx="816" cy="766" r="8" class="c0"/>
<circle cx="900" cy="606" r="8" class="c0"/>
<circle cx="1186" cy="850" r="8" class="c0"/>
<circle cx="816" cy="682" r="8" class="c0"/>
<circle cx="1006" cy="656" r="8" class="c0"/>
<circle cx="1160" cy="896" r="8" class="c0"/>
<circle cx="964" cy="990" r="8" class="c0"/>
<circle cx="1172" cy="752" r="8" class="c0"/>
<circle cx="1098" cy="952" r="8" class="c0"/>
<circle cx="1066" cy="1016" r="8" class="c0"/>
<circle cx="1118" cy="914" r="8" class="c0"/>
<circle cx="1160" cy="954" r="8" class="c0"/>
<circle cx="1154" cy="714" r="8" class="c0"/>
<circle cx="738" cy="712" r="8" class="c0"/>
<circle cx="1144" cy="776" r="8" class="c0"/>
<circle cx="996" cy="436" r="8" class="c0"/>
<circle cx="760" cy="758" r="8" class="c0"/>
<circle cx="938" cy="1090" r="8" class="c0"/>
<circle cx="860" cy="954" r="8" class="c0"/>
<circle cx="954" cy="1008" r="8" class="c0"/>
<circle cx="1078" cy="788" r="8" class="c0"/>
<circle cx="938" cy="546" r="8" class="c0"/>
<circle cx="1150" cy="882" r="8" class="c0"/>
<circle cx="910" cy="802" r="8" class="c0"/>
<circle cx="1000" cy="798" r="6" class="c0"/>
<circle cx="868" cy="750" r="6" class="c0"/>
<circle cx="1084" cy="748" r="6" class="c0"/>
<circle cx="1016" cy="900" r="6" class="c0"/>
<circle cx="854" cy="904" r="6" class="c0"/>
<circle cx="1056" cy="700" r="6" class="c0"/>
<circle cx="1074" cy="1066" r="6" class="c0"/>
<circle cx="986" cy="974" r="6" class="c0"/>
<circle cx="870" cy="996" r="6" class="c0"/>
<circle cx="1204" cy="852" r="6" class="c0"/>
<circle cx="952" cy="1044" r="6" class="c0"/>
<circle cx="1138" cy="710" r="6" class="c0"/>
<circle cx="1022" cy="806" r="6" class="c0"/>
<circle cx="956" cy="652" r="6" class="c0"/>
<circle cx="790" cy="682" r="6" class="c0"/>
<circle cx="1124" cy="722" r="6" class="c0"/>
<circle cx="1018" cy="702" r="6" class="c0"/>
<circle cx="824" cy="922" r="6" class="c0"/>
<circle cx="966" cy="706" r="6" class="c0"/>
<circle cx="958" cy="902" r="6" class="c0"/>
<circle cx="1020" cy="548" r="6" class="c0"/>
<circle cx="754" cy="790" r="6" class="c0"/>
<circle cx="748" cy="882" r="6" class="c0"/>
<circle cx="940" cy="494" r="6" class="c0"/>
<circle cx="1082" cy="666" r="6" class="c0"/>
<circle cx="898" cy="942" r="6" class="c0"/>
<circle cx="834" cy="950" r="6" class="c0"/>
<circle cx="936" cy="794" r="6" class="c0"/>
<circle cx="1004" cy="932" r="6" class="c0"/>
<circle cx="812" cy="648" r="6" class="c0"/>
<circle cx="960" cy="1052" r="6" class="c0"/>
<circle cx="1024" cy="892" r="6" class="c0"/>
<circle cx="720" cy="824" r="6" class="c0"/>
<circle cx="902" cy="1082" r="6" class="c0"/>
<circle cx="850" cy="696" r="6" class="c0"/>
<circle cx="910" cy="960" r="6" class="c0"/>
<circle cx="986" cy="1096" r="6" class="c0"/>
<circle cx="870" cy="968" r="6" class="c0"/>
<circle cx="760" cy="876" r="6" class="c0"/>
<circle cx="900" cy="690" r="6" class="c0"/>
<circle cx="820" cy="994" r="6" class="c0"/>
<circle cx="1090" cy="842" r="6" class="c0"/>
<circle cx="1044" cy="842" r="6" class="c0"/>
<circle cx="1020" cy="470" r="6" class="c0"/>
<circle cx="866" cy="712" r="6" class="c0"/>
<circle cx="954" cy="592" r="6" class="c0"/>
<circle cx="1116" cy="866" r="6" class="c0"/>
<circle cx="1072" cy="700" r="6" class="c0"/>
<circle cx="896" cy="734" r="6" class="c0"/>
<circle cx="940" cy="950" r="6" class="c0"/>
<circle cx="1002" cy="772" r="6" class="c0"/>
<circle cx="900" cy="864" r="6" class="c0"/>
<circle cx="974" cy="618" r="6" class="c0"/>
<circle cx="894" cy="808" r="6" class="c0"/>
<circle cx="936" cy="858" r="6" class="c0"/>
<circle cx="1048" cy="662" r="6" class="c0"/>
<circle cx="946" cy="758" r="6" class="c0"/>
<circle cx="1094" cy="884" r="6" class="c0"/>
<circle cx="962" cy="974" r="6" class="c0"/>
<circle cx="986" cy="1030" r="6" class="c0"/>
<circle cx="902" cy="632" r="6" class="c0"/>
<circle cx="752" cy="808" r="6" class="c0"/>
<circle cx="1096" cy="742" r="6" class="c0"/>
<circle cx="782" cy="826" r="6" class="c0"/>
<circle cx="746" cy="844" r="6" class="c0"/>
<circle cx="1160" cy="820" r="6" class="c0"/>
<circle cx="828" cy="630" r="6" class="c0"/>
<circle cx="1012" cy="592" r="6" class="c0"/>
<circle cx="1126" cy="828" r="6" class="c0"/>
<circle cx="962" cy="692" r="6" class="c0"/>
<circle cx="904" cy="820" r="6" class="c0"/>
<circle cx="1034" cy="746" r="6" class="c0"/>
<circle cx="896" cy="900" r="6" class="c0"/>
<circle cx="1122" cy="684" r="6" class="c0"/>
<circle cx="1172" cy="934" r="6" class="c0"/>
<circle cx="808" cy="860" r="6" class="c0"/>
<circle cx="896" cy="1022" r="6" class="c0"/>
<circle cx="1088" cy="942" r="6" class="c0"/>
<circle cx="850" cy="1042" r="6" class="c0"/>
<circle cx="936" cy="766" r="6" class="c0"/>
<circle cx="858" cy="884" r="6" class="c0"/>
<circle cx="880" cy="612" r="6" class="c0"/>
<circle cx="978" cy="982" r="6" class="c0"/>
<circle cx="1112" cy="1020" r="6" class="c0"/>
<circle cx="894" cy="648" r="6" class="c0"/>
<circle cx="904" cy="1006" r="6" class="c0"/>
<circle cx="786" cy="768" r="6" class="c0"/>
<circle cx="1150" cy="848" r="6" class="c0"/>
<circle cx="782" cy="696" r="6" class="c0"/>
<circle cx="1022" cy="716" r="6" class="c0"/>
<circle cx="764" cy="670" r="6" class="c0"/>
<circle cx="758" cy="718" r="6" class="c0"/>
<circle cx="758" cy="852" r="6" class="c0"/>
<circle cx="1006" cy="692" r="6" class="c0"/>
<circle cx="1158" cy="972" r="6" class="c0"/>
<circle cx="1124" cy="754" r="6" class="c0"/>
<circle cx="1072" cy="758" r="6" class="c0"/>
<circle cx="834" cy="678" r="6" class="c0"/>
<circle cx="1034" cy="800" r="6" class="c0"/>
<circle cx="1090" cy="810" r="6" class="c0"/>
<circle cx="980" cy="890" r="6" class="c0"/>
<circle cx="1174" cy="914" r="6" class="c0"/>
<circle cx="1028" cy="960" r="6" class="c0"/>
<circle cx="750" cy="726" r="6" class="c0"/>
<circle cx="810" cy="976" r="6" class="c0"/>
<circle cx="1092" cy="1042" r="6" class="c0"/>
<circle cx="966" cy="460" r="6" class="c0"/>
<circle cx="858" cy="846" r="6" class="c0"/>
<circle cx="1048" cy="688" r="6" class="c0"/>
<circle cx="976" cy="780" r="6" class="c0"/>
<circle cx="856" cy="832" r="6" class="c0"/>
<circle cx="948" cy="682" r="6" class="c0"/>
<circle cx="1106" cy="1008" r="6" class="c0"/>
<circle cx="776" cy="646" r="6" class="c0"/>
<circle cx="1012" cy="1096" r="6" class="c0"/>
<circle cx="948" cy="556" r="6" class="c0"/>
<circle cx="946" cy="664" r="6" class="c0"/>
<circle cx="1052" cy="1090" r="6" class="c0"/>
<circle cx="1062" cy="636" r="6" class="c0"/>
<circle cx="924" cy="1036" r="6" class="c0"/>
<circle cx="1020" cy="1046" r="6" class="c0"/>
<circle cx="978" cy="686" r="6" class="c0"/>
<circle cx="960" cy="514" r="6" class="c0"/>
<circle cx="998" cy="730" r="6" class="c0"/>
<circle cx="1106" cy="850" r="6" class="c0"/>
<circle cx="948" cy="942" r="6" class="c0"/>
<circle cx="718" cy="768" r="6" class="c0"/>
<circle cx="988" cy="850" r="6" class="c0"/>
<circle cx="786" cy="930" r="6" class="c0"/>
<circle cx="1198" cy="814" r="6" class="c0"/>
<circle cx="1134" cy="692" r="6" class="c0"/>
<circle cx="852" cy="1004" r="6" class="c0"/>
<circle cx="1070" cy="864" r="6" class="c0"/>
<circle cx="838" cy="998" r="6" class="c0"/>
<circle cx="1150" cy="982" r="6" class="c0"/>
<circle cx="1042" cy="614" r="6" class="c0"/>
<circle cx="730" cy="860" r="6" class="c0"/>
<circle cx="1130" cy="984" r="6" class="c0"/>
<circle cx="994" cy="966" r="6" class="c0"/>
<circle cx="818" cy="708" r="6" class="c0"/>
<circle cx="1080" cy="952" r="6" class="c0"/>
<circle cx="908" cy="682" r="6" class="c0"/>
<circle cx="938" cy="628" r="6" class="c0"/>
<circle cx="1014" cy="528" r="6" class="c0"/>
<circle cx="1042" cy="636" r="6" class="c0"/>
<circle cx="1030" cy="904" r="6" class="c0"/>
<circle cx="1134" cy="764" r="6" class="c0"/>
<circle cx="800" cy="758" r="6" class="c0"/>
<circle cx="932" cy="1074" r="6" class="c0"/>
<circle cx="1178" cy="886" r="6" class="c0"/>
<circle cx="864" cy="824" r="6" class="c0"/>
<circle cx="974" cy="602" r="6" class="c0"/>
<circle cx="1180" cy="766" r="6" class="c0"/>
<circle cx="1030" cy="724" r="6" class="c0"/>
<circle cx="1082" cy="1076" r="6" class="c0"/>
<circle cx="1018" cy="510" r="6" class="c0"/>
<circle cx="1054" cy="934" r="6" class="c0"/>
<circle cx="842" cy="688" r="6" class="c0"/>
<circle cx="948" cy="486" r="6" class="c0"/>
<circle cx="1086" cy="686" r="6" class="c0"/>
<circle cx="956" cy="720" r="6" class="c0"/>
<circle cx="848" cy="732" r="6" class="c0"/>
<circle cx="1132" cy="1008" r="6" class="c0"/>
<circle cx="1002" cy="812" r="6" class="c0"/>
<circle cx="1108" cy="1062" r="6" class="c0"/>
<circle cx="928" cy="898" r="6" class="c0"/>
<circle cx="1054" cy="972" r="6" class="c0"/>
<circle cx="852" cy="610" r="6" class="c0"/>
<circle cx="822" cy="614" r="6" class="c0"/>
<circle cx="794" cy="948" r="6" class="c0"/>
<circle cx="1184" cy="866" r="6" class="c0"/>
<circle cx="1056" cy="892" r="6" class="c0"/>
<circle cx="994" cy="1022" r="6" class="c0"/>
<circle cx="850" cy="782" r="6" class="c0"/>
<circle cx="772" cy="724" r="6" class="c0"/>
<circle cx="1160" cy="780" r="6" class="c0"/>
<circle cx="902" cy="656" r="6" class="c0"/>
<circle cx="1006" cy="422" r="6" class="c0"/>
<circle cx="930" cy="838" r="6" class="c0"/>
<circle cx="854" cy="924" r="6" class="c0"/>
<circle cx="910" cy="616" r="6" class="c0"/>
<circle cx="950" cy="962" r="6" class="c0"/>
<circle cx="774" cy="890" r="6" class="c0"/>
<circle cx="890" cy="912" r="6" class="c0"/>
</svg>
