<?xml version="1.0" encoding="utf-8"?>
<svg xmlns="http://www.w3.org/2000/svg"
     xmlns:xlink="http://www.w3.org/1999/xlink" width="1920" height="1440" >

            <defs>
            <style type="text/css"><![CDATA[
circle {stroke: none;}
.c0 {fill: #FFFFFF;}
]]></style>
            </defs>
<rect x="0" y="0" width="1920" height="1440" fill="black"/>
<circle cx="770" cy="826" r="14" class="c0"/>
<circle cx="976" cy="850" r="14" class="c0"/>
<circle cx="1226" cy="1030" r="12" class="c0"/>
<circle cx="1090" cy="418" r="12" class="c0"/>
<circle cx="904" cy="866" r="12" class="c0"/>
<circle cx="774" cy="748" r="12" class="c0"/>
<circle cx="1026" cy="894" r="12" class="c0"/>
<circle cx="756" cy="722" r="12" class="c0"/>
<circle cx="1124" cy="682" r="12" class="c0"/>
<circle cx="1278" cy="822" r="12" class="c0"/>
<circle cx="814" cy="906" r="12" class="c0"/>
<circle cx="936" cy="846" r="12" class="c0"/>
<circle cx="994" cy="1018" r="12" class="c0"/>
<circle cx="1262" cy="912" r="12" class="c0"/>
<circle cx="816" cy="954" r="12" class="c0"/>
<circle cx="872" cy="784" r="12" class="c0"/>
<circle cx="992" cy="976" r="12" class="c0"/>
<circle cx="808" cy="784" r="12" class="c0"/>
<circle cx="918" cy="916" r="12" class="c0"/>
<circle cx="956" cy="956" r="12" class="c0"/>
<circle cx="846" cy="868" r="12" class="c0"/>
<circle cx="712" cy="730" r="12" class="c0"/>
<circle cx="616" cy="778" r="12" class="c0"/>
<circle cx="1096" cy="626" r="12" class="c0"/>
<circle cx="894" cy="902" r="12" class="c0"/>
<circle cx="1158" cy="928" r="12" class="c0"/>
<circle cx="1198" cy="1016" r="12" class="c0"/>
<circle cx="936" cy="752" r="12" class="c0"/>
<circle cx="1048" cy="1018" r="12" class="c0"/>
<circle cx="1136" cy="958" r="12" class="c0"/>
<circle cx="1110" cy="648" r="12" class="c0"/>
<circle cx="696" cy="752" r="12" class="c0"/>
<circle cx="1054" cy="868" r="12" class="c0"/>
<circle cx="1198" cy="896" r="12" class="c0"/>
<circle cx="1138" cy="912" r="12" class="c0"/>
<circle cx="1138" cy="768" r="12" class="c0"/>
<circle cx="1158" cy="868" r="12" class="c0"/>
<circle cx="740" cy="788" r="12" class="c0"/>
<circle cx="1308" cy="980" r="12" class="c0"/>
<circle cx="712" cy="884" r="12" class="c0"/>
<circle cx="634" cy="740" r="12" class="c0"/>
<circle cx="1250" cy="1008" r="12" class="c0"/>
<circle cx="704" cy="850" r="12" class="c0"/>
<circle cx="1062" cy="696" r="12" class="c0"/>
<circle cx="1308" cy="778" r="12" class="c0"/>
<circle cx="1010" cy="916" r="12" class="c0"/>
<circle cx="1386" cy="824" r="10" class="c0"/>
<circle cx="1236" cy="930" r="10" class="c0"/>
<circle cx="1086" cy="1016" r="10" class="c0"/>
<circle cx="1026" cy="1032" r="10" class="c0"/>
<circle cx="1110" cy="790" r="10" class="c0"/>
<circle cx="1182" cy="828" r="10" class="c0"/>
<circle cx="1008" cy="838" r="10" class="c0"/>
<circle cx="1336" cy="898" r="10" class="c0"/>
<circle cx="878" cy="996" r="10" class="c0"/>
<circle cx="1236" cy="850" r="10" class="c0"/>
<circle cx="1080" cy="812" r="10" class="c0"/>
<circle cx="1122" cy="448" r="10" class="c0"/>
<circle cx="1152" cy="754" r="10" class="c0"/>
<circle cx="1162" cy="976" r="10" class="c0"/>
<circle cx="614" cy="726" r="10" class="c0"/>
<circle cx="1294" cy="868" r="10" class="c0"/>
<circle cx="840" cy="728" r="10" class="c0"/>
<circle cx="1098" cy="922" r="10" class="c0"/>
<circle cx="668" cy="830" r="10" class="c0"/>
<circle cx="840" cy="822" r="10" class="c0"/>
<circle cx="1056" cy="738" r="10" class="c0"/>
<circle cx="1174" cy="958" r="10" class="c0"/>
<circle cx="1128" cy="568" r="10" class="c0"/>
<circle cx="966" cy="756" r="10" class="c0"/>
<circle cx="1100" cy="700" r="10" class="c0"/>
<circle cx="824" cy="702" r="10" class="c0"/>
<circle cx="1164" cy="724" r="10" class="c0"/>
<circle cx="1326" cy="808" r="10" class="c0"/>
<circle cx="806" cy="822" r="10" class="c0"/>
<circle cx="910" cy="792" r="10" class="c0"/>
<circle cx="1070" cy="546" r="10" class="c0"/>
<circle cx="1088" cy="738" r="10" class="c0"/>
<circle cx="756" cy="772" r="10" class="c0"/>
<circle cx="948" cy="772" r="10" class="c0"/>
<circle cx="984" cy="948" r="10" class="c0"/>
<circle cx="1176" cy="770" r="10" class="c0"/>
<circle cx="920" cy="962" r="10" class="c0"/>
<circle cx="1150" cy="698" r="10" class="c0"/>
<circle cx="1182" cy="794" r="10" class="c0"/>
<circle cx="1008" cy="796" r="10" class="c0"/>
<circle cx="880" cy="954" r="10" class="c0"/>
<circle cx="1128" cy="498" r="10" class="c0"/>
<circle cx="662" cy="728" r="10" class="c0"/>
<circle cx="1112" cy="872" r="10" class="c0"/>
<circle cx="1028" cy="856" r="10" class="c0"/>
<circle cx="1084" cy="846" r="10" class="c0"/>
<circle cx="824" cy="852" r="10" class="c0"/>
<circle cx="1088" cy="988" r="10" class="c0"/>
<circle cx="1120" cy="470" r="10" class="c0"/>
<circle cx="1296" cy="938" r="10" class="c0"/>
<circle cx="936" cy="1038" r="10" class="c0"/>
<circle cx="732" cy="870" r="10" class="c0"/>
<circle cx="938" cy="1016" r="10" class="c0"/>
<circle cx="986" cy="810" r="10" class="c0"/>
<circle cx="1032" cy="724" r="10" class="c0"/>
<circle cx="954" cy="908" r="10" class="c0"/>
<circle cx="688" cy="710" r="10" class="c0"/>
<circle cx="1374" cy="836" r="10" class="c0"/>
<circle cx="836" cy="932" r="10" class="c0"/>
<circle cx="1080" cy="468" r="10" class="c0"/>
<circle cx="1136" cy="826" r="10" class="c0"/>
<circle cx="628" cy="810" r="10" class="c0"/>
<circle cx="588" cy="724" r="10" class="c0"/>
<circle cx="910" cy="980" r="10" class="c0"/>
<circle cx="980" cy="996" r="10" class="c0"/>
<circle cx="1142" cy="988" r="10" class="c0"/>
<circle cx="974" cy="1042" r="10" class="c0"/>
<circle cx="974" cy="796" r="10" class="c0"/>
<circle cx="1210" cy="818" r="10" class="c0"/>
<circle cx="1162" cy="844" r="10" class="c0"/>
<circle cx="708" cy="798" r="10" class="c0"/>
<circle cx="1346" cy="778" r="10" class="c0"/>
<circle cx="802" cy="878" r="10" class="c0"/>
<circle cx="848" cy="774" r="10" class="c0"/>
<circle cx="664" cy="770" r="10" class="c0"/>
<circle cx="1064" cy="660" r="10" class="c0"/>
<circle cx="854" cy="978" r="10" class="c0"/>
<circle cx="1138" cy="418" r="10" class="c0"/>
<circle cx="812" cy="748" r="10" class="c0"/>
<circle cx="1104" cy="488" r="10" class="c0"/>
<circle cx="890" cy="730" r="10" class="c0"/>
<circle cx="686" cy="792" r="10" class="c0"/>
<circle cx="1220" cy="868" r="10" class="c0"/>
<circle cx="736" cy="704" r="10" class="c0"/>
<circle cx="1098" cy="834" r="10" class="c0"/>
<circle cx="860" cy="1006" r="10" class="c0"/>
<circle cx="1046" cy="830" r="10" class="c0"/>
<circle cx="994" cy="778" r="10" class="c0"/>
<circle cx="1140" cy="656" r="10" class="c0"/>
<circle cx="1152" cy="620" r="10" class="c0"/>
<circle cx="598" cy="824" r="10" class="c0"/>
<circle cx="1130" cy="634" r="10" class="c0"/>
<circle cx="1094" cy="564" r="10" class="c0"/>
<circle cx="850" cy="798" r="10" class="c0"/>
<circle cx="1154" cy="1012" r="10" class="c0"/>
<circle cx="1122" cy="604" r="10" class="c0"/>
<circle cx="1030" cy="764" r="10" class="c0"/>
<circle cx="1282" cy="954" r="10" class="c0"/>
<circle cx="974" cy="926" r="10" class="c0"/>
<circle cx="1036" cy="934" r="10" class="c0"/>
<circle cx="780" cy="936" r="10" class="c0"/>
<circle cx="1194" cy="930" r="10" class="c0"/>
<circle cx="1300" cy="802" r="10" class="c0"/>
<circle cx="1100" cy="532" r="10" class="c0"/>
<circle cx="864" cy="716" r="10" class="c0"/>
<circle cx="856" cy="920" r="10" class="c0"/>
<circle cx="1222" cy="960" r="10" class="c0"/>
<circle cx="586" cy="768" r="10" class="c0"/>
<circle cx="836" cy="786" r="10" class="c0"/>
<circle cx="766" cy="796" r="8" class="c0"/>
<circle cx="1322" cy="954" r="8" class="c0"/>
<circle cx="822" cy="770" r="8" class="c0"/>
<circle cx="1070" cy="724" r="8" class="c0"/>
<circle cx="868" cy="900" r="8" class="c0"/>
<circle cx="996" cy="874" r="8" class="c0"/>
<circle cx="1106" cy="670" r="8" class="c0"/>
<circle cx="796" cy="848" r="8" class="c0"/>
<circle cx="1290" cy="896" r="8" class="c0"/>
<circle cx="858" cy="832" r="8" class="c0"/>
<circle cx="1056" cy="788" r="8" class="c0"/>
<circle cx="908" cy="942" r="8" class="c0"/>
<circle cx="786" cy="798" r="8" class="c0"/>
<circle cx="1166" cy="680" r="8" class="c0"/>
<circle cx="1378" cy="802" r="8" class="c0"/>
<circle cx="1036" cy="788" r="8" class="c0"/>
<circle cx="730" cy="754" r="8" class="c0"/>
<circle cx="1076" cy="874" r="8" class="c0"/>
<circle cx="1022" cy="826" r="8" class="c0"/>
<circle cx="1128" cy="522" r="8" class="c0"/>
<circle cx="646" cy="822" r="8" class="c0"/>
<circle cx="618" cy="834" r="8" class="c0"/>
<circle cx="1266" cy="978" r="8" class="c0"/>
<circle cx="1338" cy="742" r="8" class="c0"/>
<circle cx="736" cy="810" r="8" class="c0"/>
<circle cx="1114" cy="814" r="8" class="c0"/>
<circle cx="774" cy="882" r="8" class="c0"/>
<circle cx="1268" cy="854" r="8" class="c0"/>
<circle cx="1136" cy="870" r="8" class="c0"/>
<circle cx="800" cy="720" r="8" class="c0"/>
<circle cx="1350" cy="836" r="8" class="c0"/>
<circle cx="1056" cy="984" r="8" class="c0"/>
<circle cx="898" cy="1038" r="8" class="c0"/>
<circle cx="1058" cy="958" r="8" class="c0"/>
<circle cx="1078" cy="1036" r="8" class="c0"/>
<circle cx="1134" cy="730" r="8" class="c0"/>
<circle cx="634" cy="850" r="8" class="c0"/>
<circle cx="898" cy="778" r="8" class="c0"/>
<circle cx="1112" cy="956" r="8" class="c0"/>
<circle cx="694" cy="810" r="8" class="c0"/>
<circle cx="704" cy="772" r="8" class="c0"/>
<circle cx="744" cy="826" r="8" class="c0"/>
<circle cx="650" cy="784" r="8" class="c0"/>
<circle cx="1192" cy="750" r="8" class="c0"/>
<circle cx="1066" cy="482" r="8" class="c0"/>
<circle cx="776" cy="904" r="8" class="c0"/>
<circle cx="1208" cy="990" r="8" class="c0"/>
<circle cx="1050" cy="714" r="8" class="c0"/>
<circle cx="1182" cy="698" r="8" class="c0"/>
<circle cx="738" cy="918" r="8" class="c0"/>
<circle cx="876" cy="928" r="8" class="c0"/>
<circle cx="1126" cy="842" r="8" class="c0"/>
<circle cx="690" cy="886" r="8" class="c0"/>
<circle cx="1096" cy="768" r="8" class="c0"/>
<circle cx="1012" cy="996" r="8" class="c0"/>
<circle cx="1354" cy="818" r="8" class="c0"/>
<circle cx="1098" cy="900" r="8" class="c0"/>
<circle cx="1170" cy="654" r="8" class="c0"/>
<circle cx="1150" cy="786" r="8" class="c0"/>
<circle cx="1076" cy="434" r="8" class="c0"/>
<circle cx="892" cy="1008" r="8" class="c0"/>
<circle cx="1312" cy="916" r="8" class="c0"/>
<circle cx="1122" cy="928" r="8" class="c0"/>
<circle cx="1252" cy="864" r="8" class="c0"/>
<circle cx="1120" cy="996" r="8" class="c0"/>
<circle cx="670" cy="866" r="8" class="c0"/>
<circle cx="1026" cy="952" r="8" class="c0"/>
<circle cx="876" cy="884" r="8" class="c0"/>
<circle cx="1054" cy="394" r="8" class="c0"/>
<circle cx="998" cy="758" r="8" class="c0"/>
<circle cx="1106" cy="438" r="8" class="c0"/>
<circle cx="1194" cy="846" r="8" class="c0"/>
<circle cx="1232" cy="998" r="8" class="c0"/>
<circle cx="1084" cy="654" r="8" class="c0"/>
<circle cx="1088" cy="512" r="8" class="c0"/>
<circle cx="756" cy="856" r="8" class="c0"/>
<circle cx="1066" cy="518" r="8" class="c0"/>
<circle cx="1330" cy="852" r="8" class="c0"/>
<circle cx="884" cy="828" r="8" class="c0"/>
<circle cx="868" cy="738" r="8" class="c0"/>
<circle cx="1136" cy="1038" r="8" class="c0"/>
<circle cx="1084" cy="682" r="8" class="c0"/>
<circle cx="1184" cy="1040" r="8" class="c0"/>
<circle cx="764" cy="702" r="8" class="c0"/>
<circle cx="1230" cy="980" r="8" class="c0"/>
<circle cx="940" cy="884" r="8" class="c0"/>
<circle cx="1090" cy="788" r="8" class="c0"/>
<circle cx="1030" cy="698" r="8" class="c0"/>
<circle cx="1086" cy="934" r="8" class="c0"/>
<circle cx="1326" cy="762" r="8" class="c0"/>
<circle cx="1112" cy="544" r="8" class="c0"/>
<circle cx="992" cy="894" r="8" class="c0"/>
<circle cx="1316" cy="894" r="8" class="c0"/>
<circle cx="1176" cy="894" r="8" class="c0"/>
<circle cx="940" cy="994" r="8" class="c0"/>
<circle cx="1056" cy="910" r="8" class="c0"/>
<circle cx="1144" cy="550" r="8" class="c0"/>
<circle cx="802" cy="970" r="8" class="c0"/>
<circle cx="1194" cy="728" r="8" class="c0"/>
<circle cx="792" cy="760" r="8" class="c0"/>
<circle cx="786" cy="706" r="8" class="c0"/>
<circle cx="1064" cy="894" r="8" class="c0"/>
<circle cx="1042" cy="686" r="8" class="c0"/>
<circle cx="1064" cy="838" r="8" class="c0"/>
<circle cx="580" cy="802" r="8" class="c0"/>
<circle cx="1222" cy="1008" r="8" class="c0"/>
<circle cx="804" cy="934" r="8" class="c0"/>
<circle cx="938" cy="976" r="8" class="c0"/>
<circle cx="682" cy="734" r="8" class="c0"/>
<circle cx="1260" cy="956" r="8" class="c0"/>
<circle cx="1242" cy="898" r="8" class="c0"/>
<circle cx="1200" cy="864" r="8" class="c0"/>
<circle cx="918" cy="822" r="8" class="c0"/>
<circle cx="826" cy="802" r="8" class="c0"/>
<circle cx="1272" cy="1000" r="8" class="c0"/>
<circle cx="792" cy="736" r="8" class="c0"/>
<circle cx="1228" cy="830" r="8" class="c0"/>
<circle cx="820" cy="730" r="8" class="c0"/>
<circle cx="1238" cy="812" r="8" class="c0"/>
<circle cx="898" cy="962" r="8" class="c0"/>
<circle cx="668" cy="802" r="8" class="c0"/>
<circle cx="918" cy="1022" r="8" class="c0"/>
<circle cx="1262" cy="936" r="8" class="c0"/>
<circle cx="1006" cy="950" r="8" class="c0"/>
<circle cx="876" cy="858" r="8" class="c0"/>
<circle cx="1096" cy="596" r="8" class="c0"/>
<circle cx="1064" cy="454" r="8" class="c0"/>
<circle cx="1324" cy="930" r="8" class="c0"/>
<circle cx="1320" cy="834" r="8" class="c0"/>
<circle cx="1026" cy="978" r="8" class="c0"/>
<circle cx="844" cy="996" r="8" class="c0"/>
<circle cx="1152" cy="522" r="8" class="c0"/>
<circle cx="1250" cy="970" r="8" class="c0"/>
<circle cx="620" cy="756" r="8" class="c0"/>
<circle cx="746" cy="884" r="8" class="c0"/>
<circle cx="1162" cy="810" r="8" class="c0"/>
<circle cx="964" cy="1024" r="8" class="c0"/>
<circle cx="918" cy="764" r="8" class="c0"/>
<circle cx="1112" cy="416" r="8" class="c0"/>
<circle cx="1160" cy="902" r="8" class="c0"/>
<circle cx="1360" cy="852" r="8" class="c0"/>
<circle cx="1034" cy="998" r="8" class="c0"/>
<circle cx="1286" cy="922" r="8" class="c0"/>
<circle cx="1102" cy="460" r="8" class="c0"/>
<circle cx="1084" cy="960" r="8" class="c0"/>
<circle cx="1284" cy="990" r="8" class="c0"/>
<circle cx="1196" cy="952" r="8" class="c0"/>
<circle cx="838" cy="752" r="8" class="c0"/>
<circle cx="1072" cy="626" r="8" class="c0"/>
<circle cx="1212" cy="840" r="8" class="c0"/>
<circle cx="732" cy="838" r="8" class="c0"/>
<circle cx="958" cy="822" r="8" class="c0"/>
<circle cx="1248" cy="826" r="8" class="c0"/>
<circle cx="1180" cy="862" r="8" class="c0"/>
<circle cx="894" cy="932" r="8" class="c0"/>
<circle cx="1156" cy="540" r="8" class="c0"/>
<circle cx="846" cy="904" r="8" class="c0"/>
<circle cx="1226" cy="910" r="8" class="c0"/>
<circle cx="924" cy="892" r="8" class="c0"/>
<circle cx="1106" cy="1012" r="8" class="c0"/>
<circle cx="1126" cy="708" r="8" class="c0"/>
<circle cx="908" cy="752" r="8" class="c0"/>
<circle cx="1056" cy="812" r="8" class="c0"/>
<circle cx="954" cy="1050" r="8" class="c0"/>
<circle cx="1074" cy="752" r="8" class="c0"/>
<circle cx="714" cy="822" r="8" class="c0"/>
<circle cx="1084" cy="582" r="8" class="c0"/>
<circle cx="856" cy="850" r="8" class="c0"/>
<circle cx="1338" cy="796" r="8" class="c0"/>
<circle cx="1164" cy="634" r="8" class="c0"/>
<circle cx="1038" cy="810" r="8" class="c0"/>
<circle cx="914" cy="840" r="8" class="c0"/>
<circle cx="882" cy="1028" r="8" class="c0"/>
<circle cx="884" cy="760" r="8" class="c0"/>
<circle cx="650" cy="708" r="8" class="c0"/>
<circle cx="700" cy="900" r="8" class="c0"/>
<circle cx="1144" cy="582" r="8" class="c0"/>
<circle cx="854" cy="942" r="8" class="c0"/>
<circle cx="756" cy="898" r="8" class="c0"/>
<circle cx="996" cy="1042" r="8" class="c0"/>
<circle cx="1140" cy="796" r="8" class="c0"/>
<circle cx="1050" cy="444" r="8" class="c0"/>
<circle cx="1318" cy="866" r="8" class="c0"/>
<circle cx="934" cy="940" r="8" class="c0"/>
<circle cx="1120" cy="756" r="8" class="c0"/>
<circle cx="940" cy="790" r="8" class="c0"/>
<circle cx="730" cy="902" r="8" class="c0"/>
<circle cx="610" cy="802" r="8" class="c0"/>
<circle cx="1074" cy="948" r="8" class="c0"/>
<circle cx="658" cy="848" r="8" class="c0"/>
<circle cx="724" cy="772" r="8" class="c0"/>
<circle cx="1134" cy="1016" r="8" class="c0"/>
<circle cx="1052" cy="768" r="8" class="c0"/>
<circle cx="950" cy="864" r="8" class="c0"/>
<circle cx="578" cy="742" r="8" class="c0"/>
<circle cx="658" cy="884" r="8" class="c0"/>
<circle cx="1020" cy="748" r="8" class="c0"/>
<circle cx="1302" cy="822" r="8" class="c0"/>
<circle cx="1070" cy="402" r="8" class="c0"/>
<circle cx="1328" cy="786" r="8" class="c0"/>
<circle cx="1182" cy="918" r="8" class="c0"/>
<circle cx="838" cy="958" r="8" class="c0"/>
<circle cx="648" cy="874" r="8" class="c0"/>
<circle cx="966" cy="878" r="8" class="c0"/>
<circle cx="1358" cy="790" r="8" class="c0"/>
<circle cx="1062" cy="420" r="8" class="c0"/>
<circle cx="692" cy="866" r="8" class="c0"/>
<circle cx="954" cy="1006" r="8" class="c0"/>
<circle cx="1112" cy="740" r="8" class="c0"/>
<circle cx="1104" cy="978" r="8" class="c0"/>
<circle cx="1076" cy="912" r="8" class="c0"/>
<circle cx="1270" cy="876" r="8" class="c0"/>
<circle cx="1102" cy="402" r="8" class="c0"/>
<circle cx="1340" cy="862" r="8" class="c0"/>
<circle cx="1106" cy="508" r="8" class="c0"/>
<circle cx="1056" cy="1040" r="8" class="c0"/>
<circle cx="638" cy="770" r="8" class="c0"/>
<circle cx="830" cy="980" r="8" class="c0"/>
<circle cx="1136" cy="460" r="8" class="c0"/>
<circle cx="764" cy="922" r="8" class="c0"/>
<circle cx="1170" cy="1000" r="8" class="c0"/>
<circle cx="830" cy="882" r="8" class="c0"/>
<circle cx="1350" cy="872" r="8" class="c0"/>
<circle cx="1120" cy="892" r="8" class="c0"/>
<circle cx="610" cy="746" r="8" class="c0"/>
<circle cx="948" cy="812" r="8" class="c0"/>
<circle cx="1190" cy="994" r="8" class="c0"/>
<circle cx="846" cy="700" r="8" class="c0"/>
<circle cx="886" cy="978" r="8" class="c0"/>
<circle cx="1190" cy="972" r="8" class="c0"/>
<circle cx="1056" cy="566" r="8" class="c0"/>
<circle cx="1068" cy="928" r="8" class="c0"/>
<circle cx="1072" cy="772" r="8" class="c0"/>
<circle cx="1204" cy="1040" r="8" class="c0"/>
<circle cx="1296" cy="1002" r="8" class="c0"/>
<circle cx="794" cy="922" r="8" class="c0"/>
<circle cx="1144" cy="720" r="8" class="c0"/>
<circle cx="1106" cy="1032" r="8" class="c0"/>
<circle cx="780" cy="770" r="8" class="c0"/>
<circle cx="1172" cy="744" r="8" class="c0"/>
<circle cx="720" cy="916" r="8" class="c0"/>
<circle cx="1040" cy="962" r="8" class="c0"/>
<circle cx="922" cy="738" r="8" class="c0"/>
<circle cx="872" cy="1018" r="8" class="c0"/>
<circle cx="1344" cy="724" r="8" class="c0"/>
<circle cx="804" cy="696" r="8" class="c0"/>
<circle cx="598" cy="790" r="8" class="c0"/>
<circle cx="1102" cy="750" r="8" class="c0"/>
<circle cx="648" cy="804" r="8" class="c0"/>
<circle cx="682" cy="848" r="8" class="c0"/>
<circle cx="868" cy="966" r="8" class="c0"/>
<circle cx="1334" cy="920" r="8" class="c0"/>
<circle cx="576" cy="784" r="8" class="c0"/>
<circle cx="1200" cy="780" r="8" class="c0"/>
<circle cx="740" cy="740" r="8" class="c0"/>
<circle cx="882" cy="806" r="8" class="c0"/>
<circle cx="660" cy="748" r="8" class="c0"/>
<circle cx="940" cy="920" r="6" class="c0"/>
<circle cx="1056" cy="676" r="6" class="c0"/>
<circle cx="972" cy="974" r="6" class="c0"/>
<circle cx="1080" cy="492" r="6" class="c0"/>
<circle cx="788" cy="958" r="6" class="c0"/>
<circle cx="1126" cy="980" r="6" class="c0"/>
<circle cx="1146" cy="890" r="6" class="c0"/>
<circle cx="868" cy="756" r="6" class="c0"/>
<circle cx="1000" cy="820" r="6" class="c0"/>
<circle cx="1302" cy="958" r="6" class="c0"/>
<circle cx="916" cy="1040" r="6" class="c0"/>
<circle cx="990" cy="836" r="6" class="c0"/>
<circle cx="706" cy="704" r="6" class="c0"/>
<circle cx="946" cy="734" r="6" class="c0"/>
<circle cx="682" cy="764" r="6" class="c0"/>
<circle cx="1066" cy="854" r="6" class="c0"/>
<circle cx="1010" cy="862" r="6" class="c0"/>
<circle cx="1250" cy="946" r="6" class="c0"/>
<circle cx="962" cy="986" r="6" class="c0"/>
<circle cx="1122" cy="404" r="6" class="c0"/>
<circle cx="1036" cy="742" r="6" class="c0"/>
<circle cx="1108" cy="582" r="6" class="c0"/>
<circle cx="570" cy="760" r="6" class="c0"/>
<circle cx="750" cy="754" r="6" class="c0"/>
<circle cx="1178" cy="1022" r="6" class="c0"/>
<circle cx="1170" cy="1032" r="6" class="c0"/>
<circle cx="1152" cy="948" r="6" class="c0"/>
<circle cx="1212" cy="926" r="6" class="c0"/>
<circle cx="1072" cy="790" r="6" class="c0"/>
<circle cx="1218" cy="888" r="6" class="c0"/>
<circle cx="1110" cy="852" r="6" class="c0"/>
<circle cx="1244" cy="882" r="6" class="c0"/>
<circle cx="916" cy="1002" r="6" class="c0"/>
<circle cx="926" cy="876" r="6" class="c0"/>
<circle cx="782" cy="722" r="6" class="c0"/>
<circle cx="1146" cy="434" r="6" class="c0"/>
<circle cx="1182" cy="676" r="6" class="c0"/>
<circle cx="1098" cy="810" r="6" class="c0"/>
<circle cx="1138" cy="482" r="6" class="c0"/>
<circle cx="808" cy="860" r="6" class="c0"/>
<circle cx="990" cy="918" r="6" class="c0"/>
<circle cx="1256" cy="808" r="6" class="c0"/>
<circle cx="1130" cy="540" r="6" class="c0"/>
<circle cx="676" cy="750" r="6" class="c0"/>
<circle cx="1252" cy="1036" r="6" class="c0"/>
<circle cx="692" cy="828" r="6" class="c0"/>
<circle cx="982" cy="766" r="6" class="c0"/>
<circle cx="896" cy="840" r="6" class="c0"/>
<circle cx="1082" cy="702" r="6" class="c0"/>
<circle cx="1042" cy="466" r="6" class="c0"/>
<circle cx="674" cy="890" r="6" class="c0"/>
<circle cx="890" cy="792" r="6" class="c0"/>
<circle cx="1140" cy="606" r="6" class="c0"/>
<circle cx="1126" cy="586" r="6" class="c0"/>
<circle cx="1312" cy="748" r="6" class="c0"/>
<circle cx="772" cy="860" r="6" class="c0"/>
<circle cx="638" cy="720" r="6" class="c0"/>
<circle cx="1204" cy="796" r="6" class="c0"/>
<circle cx="1356" cy="754" r="6" class="c0"/>
<circle cx="1014" cy="936" r="6" class="c0"/>
<circle cx="1112" cy="910" r="6" class="c0"/>
<circle cx="1326" cy="884" r="6" class="c0"/>
<circle cx="1270" cy="1016" r="6" class="c0"/>
<circle cx="1096" cy="880" r="6" class="c0"/>
<circle cx="1080" cy="526" r="6" class="c0"/>
<circle cx="1038" cy="880" r="6" class="c0"/>
<circle cx="1256" cy="890" r="6" class="c0"/>
<circle cx="1064" cy="1000" r="6" class="c0"/>
<circle cx="1292" cy="844" r="6" class="c0"/>
<circle cx="998" cy="932" r="6" class="c0"/>
<circle cx="1022" cy="1008" r="6" class="c0"/>
<circle cx="1150" cy="676" r="6" class="c0"/>
<circle cx="1098" cy="722" r="6" class="c0"/>
<circle cx="908" cy="810" r="6" class="c0"/>
<circle cx="1206" cy="740" r="6" class="c0"/>
<circle cx="1014" cy="776" r="6" class="c0"/>
<circle cx="956" cy="794" r="6" class="c0"/>
<circle cx="1218" cy="940" r="6" class="c0"/>
<circle cx="822" cy="832" r="6" class="c0"/>
<circle cx="626" cy="714" r="6" class="c0"/>
<circle cx="1012" cy="968" r="6" class="c0"/>
<circle cx="1122" cy="1030" r="6" class="c0"/>
<circle cx="956" cy="888" r="6" class="c0"/>
<circle cx="1014" cy="1016" r="6" class="c0"/>
<circle cx="1326" cy="728" r="6" class="c0"/>
<circle cx="1082" cy="896" r="6" class="c0"/>
<circle cx="1034" cy="550" r="6" class="c0"/>
<circle cx="790" cy="896" r="6" class="c0"/>
<circle cx="1136" cy="746" r="6" class="c0"/>
<circle cx="850" cy="888" r="6" class="c0"/>
<circle cx="1312" cy="848" r="6" class="c0"/>
<circle cx="1262" cy="836" r="6" class="c0"/>
<circle cx="896" cy="990" r="6" class="c0"/>
<circle cx="1142" cy="532" r="6" class="c0"/>
<circle cx="924" cy="862" r="6" class="c0"/>
<circle cx="820" cy="872" r="6" class="c0"/>
<circle cx="1320" cy="740" r="6" class="c0"/>
<circle cx="956" cy="842" r="6" class="c0"/>
<circle cx="1154" cy="1036" r="6" class="c0"/>
<circle cx="1334" cy="824" r="6" class="c0"/>
<circle cx="726" cy="718" r="6" class="c0"/>
<circle cx="594" cy="752" r="6" class="c0"/>
<circle cx="1154" cy="600" r="6" class="c0"/>
<circle cx="784" cy="866" r="6" class="c0"/>
<circle cx="928" cy="810" r="6" class="c0"/>
<circle cx="1098" cy="948" r="6" class="c0"/>
<circle cx="1056" cy="938" r="6" class="c0"/>
<circle cx="854" cy="750" r="6" class="c0"/>
<circle cx="928" cy="774" r="6" class="c0"/>
<circle cx="1158" cy="664" r="6" class="c0"/>
<circle cx="776" cy="786" r="6" class="c0"/>
<circle cx="1244" cy="988" r="6" class="c0"/>
<circle cx="958" cy="936" r="6" class="c0"/>
<circle cx="742" cy="848" r="6" class="c0"/>
<circle cx="1184" cy="880" r="6" class="c0"/>
<circle cx="1082" cy="610" r="6" class="c0"/>
<circle cx="1086" cy="444" r="6" class="c0"/>
<circle cx="1342" cy="758" r="6" class="c0"/>
<circle cx="1176" cy="938" r="6" class="c0"/>
<circle cx="934" cy="728" r="6" class="c0"/>
<circle cx="1014" cy="878" r="6" class="c0"/>
<circle cx="940" cy="826" r="6" class="c0"/>
<circle cx="812" cy="982" r="6" class="c0"/>
<circle cx="976" cy="888" r="6" class="c0"/>
<circle cx="1052" cy="410" r="6" class="c0"/>
<circle cx="1074" cy="976" r="6" class="c0"/>
<circle cx="886" cy="712" r="6" class="c0"/>
<circle cx="1142" cy="508" r="6" class="c0"/>
<circle cx="898" cy="818" r="6" class="c0"/>
<circle cx="938" cy="900" r="6" class="c0"/>
<circle cx="602" cy="712" r="6" class="c0"/>
<circle cx="986" cy="746" r="6" class="c0"/>
<circle cx="1014" cy="1046" r="6" class="c0"/>
<circle cx="602" cy="760" r="6" class="c0"/>
<circle cx="1208" cy="880" r="6" class="c0"/>
<circle cx="1006" cy="1032" r="6" class="c0"/>
<circle cx="1044" cy="750" r="6" class="c0"/>
<circle cx="998" cy="852" r="6" class="c0"/>
<circle cx="912" cy="726" r="6" class="c0"/>
<circle cx="1274" cy="892" r="6" class="c0"/>
<circle cx="1394" cy="804" r="6" class="c0"/>
<circle cx="972" cy="778" r="6" class="c0"/>
<circle cx="1294" cy="968" r="6" class="c0"/>
<circle cx="922" cy="1052" r="6" class="c0"/>
<circle cx="864" cy="808" r="6" class="c0"/>
<circle cx="1236" cy="950" r="6" class="c0"/>
<circle cx="1114" cy="392" r="6" class="c0"/>
<circle cx="962" cy="736" r="6" class="c0"/>
<circle cx="1122" cy="426" r="6" class="c0"/>
<circle cx="668" cy="710" r="6" class="c0"/>
<circle cx="634" cy="790" r="6" class="c0"/>
<circle cx="1282" cy="974" r="6" class="c0"/>
<circle cx="1022" cy="808" r="6" class="c0"/>
<circle cx="1208" cy="970" r="6" class="c0"/>
<circle cx="1094" cy="866" r="6" class="c0"/>
<circle cx="1126" cy="804" r="6" class="c0"/>
<circle cx="1192" cy="812" r="6" class="c0"/>
<circle cx="756" cy="874" r="6" class="c0"/>
<circle cx="1012" cy="734" r="6" class="c0"/>
<circle cx="636" cy="832" r="6" class="c0"/>
<circle cx="1116" cy="718" r="6" class="c0"/>
<circle cx="1180" cy="716" r="6" class="c0"/>
<circle cx="1064" cy="640" r="6" class="c0"/>
<circle cx="1112" cy="938" r="6" class="c0"/>
<circle cx="968" cy="898" r="6" class="c0"/>
<circle cx="1034" cy="916" r="6" class="c0"/>
<circle cx="1044" cy="848" r="6" class="c0"/>
<circle cx="1148" cy="640" r="6" class="c0"/>
<circle cx="980" cy="906" r="6" class="c0"/>
<circle cx="718" cy="710" r="6" class="c0"/>
<circle cx="872" cy="816" r="6" class="c0"/>
<circle cx="950" cy="928" r="6" class="c0"/>
<circle cx="1354" cy="738" r="6" class="c0"/>
<circle cx="924" cy="992" r="6" class="c0"/>
<circle cx="908" cy="888" r="6" class="c0"/>
<circle cx="678" cy="812" r="6" class="c0"/>
<circle cx="1048" cy="892" r="6" class="c0"/>
<circle cx="1124" cy="944" r="6" class="c0"/>
<circle cx="1146" cy="1028" r="6" class="c0"/>
<circle cx="1142" cy="854" r="6" class="c0"/>
<circle cx="1302" cy="906" r="6" class="c0"/>
<circle cx="1066" cy="1026" r="6" class="c0"/>
<circle cx="874" cy="838" r="6" class="c0"/>
<circle cx="778" cy="848" r="6" class="c0"/>
<circle cx="796" cy="950" r="6" class="c0"/>
<circle cx="1154" cy="824" r="6" class="c0"/>
<circle cx="892" cy="880" r="6" class="c0"/>
<circle cx="900" cy="1022" r="6" class="c0"/>
<circle cx="1148" cy="490" r="6" class="c0"/>
<circle cx="756" cy="806" r="6" class="c0"/>
<circle cx="904" cy="718" r="6" class="c0"/>
<circle cx="740" cy="764" r="6" class="c0"/>
<circle cx="1124" cy="860" r="6" class="c0"/>
<circle cx="1072" cy="502" r="6" class="c0"/>
<circle cx="1038" cy="1044" r="6" class="c0"/>
<circle cx="1140" cy="400" r="6" class="c0"/>
<circle cx="866" cy="872" r="6" class="c0"/>
<circle cx="1020" cy="710" r="6" class="c0"/>
<circle cx="938" cy="1056" r="6" class="c0"/>
<circle cx="1300" cy="886" r="6" class="c0"/>
<circle cx="1168" cy="706" r="6" class="c0"/>
<circle cx="1082" cy="638" r="6" class="c0"/>
<circle cx="1208" cy="912" r="6" class="c0"/>
<circle cx="1048" cy="668" r="6" class="c0"/>
<circle cx="1314" cy="940" r="6" class="c0"/>
<circle cx="1116" cy="1042" r="6" class="c0"/>
<circle cx="1118" cy="772" r="6" class="c0"/>
<circle cx="982" cy="828" r="6" class="c0"/>
<circle cx="726" cy="800" r="6" class="c0"/>
<circle cx="1088" cy="714" r="6" class="c0"/>
<circle cx="812" cy="840" r="6" class="c0"/>
<circle cx="1116" cy="622" r="6" class="c0"/>
<circle cx="648" cy="760" r="6" class="c0"/>
<circle cx="1192" cy="708" r="6" class="c0"/>
<circle cx="1066" cy="802" r="6" class="c0"/>
<circle cx="810" cy="804" r="6" class="c0"/>
<circle cx="1334" cy="942" r="6" class="c0"/>
<circle cx="838" cy="840" r="6" class="c0"/>
<circle cx="1254" cy="846" r="6" class="c0"/>
<circle cx="1048" cy="428" r="6" class="c0"/>
<circle cx="1140" cy="936" r="6" class="c0"/>
<circle cx="1048" cy="948" r="6" class="c0"/>
<circle cx="1284" cy="852" r="6" class="c0"/>
<circle cx="832" cy="914" r="6" class="c0"/>
<circle cx="1146" cy="812" r="6" class="c0"/>
<circle cx="1260" cy="1026" r="6" class="c0"/>
<circle cx="818" cy="926" r="6" class="c0"/>
<circle cx="1066" cy="822" r="6" class="c0"/>
<circle cx="1122" cy="662" r="6" class="c0"/>
<circle cx="796" cy="808" r="6" class="c0"/>
</svg>
