<?xml version="1.0" encoding="utf-8"?>
<svg xmlns="http://www.w3.org/2000/svg"
     xmlns:xlink="http://www.w3.org/1999/xlink" width="1920" height="1440" >

            <defs>
            <style type="text/css"><![CDATA[
circle {stroke: none;}
.c0 {fill: #FFFFFF;}
]]></style>
            </defs>
<rect x="0" y="0" width="1920" height="1440" fill="black"/>
<circle cx="600" cy="806" r="14" class="c0"/>
<circle cx="590" cy="906" r="12" class="c0"/>
<circle cx="902" cy="870" r="12" class="c0"/>
<circle cx="1388" cy="820" r="12" class="c0"/>
<circle cx="1010" cy="862" r="12" class="c0"/>
<circle cx="1168" cy="802" r="12" class="c0"/>
<circle cx="520" cy="884" r="12" class="c0"/>
<circle cx="1060" cy="718" r="12" class="c0"/>
<circle cx="708" cy="960" r="12" class="c0"/>
<circle cx="744" cy="968" r="12" class="c0"/>
<circle cx="954" cy="1012" r="12" class="c0"/>
<circle cx="774" cy="958" r="12" class="c0"/>
<circle cx="1144" cy="766" r="12" class="c0"/>
<circle cx="986" cy="998" r="12" class="c0"/>
<circle cx="1406" cy="944" r="12" class="c0"/>
<circle cx="718" cy="828" r="12" class="c0"/>
<circle cx="1148" cy="508" r="12" class="c0"/>
<circle cx="1150" cy="432" r="12" class="c0"/>
<circle cx="1148" cy="470" r="12" class="c0"/>
<circle cx="1026" cy="962" r="12" class="c0"/>
<circle cx="1180" cy="590" r="12" class="c0"/>
<circle cx="1078" cy="746" r="12" class="c0"/>
<circle cx="540" cy="822" r="12" class="c0"/>
<circle cx="1358" cy="952" r="12" class="c0"/>
<circle cx="1122" cy="650" r="12" class="c0"/>
<circle cx="890" cy="1030" r="12" class="c0"/>
<circle cx="1058" cy="846" r="12" class="c0"/>
<circle cx="1064" cy="904" r="12" class="c0"/>
<circle cx="618" cy="928" r="12" class="c0"/>
<circle cx="1172" cy="482" r="12" class="c0"/>
<circle cx="1318" cy="882" r="12" class="c0"/>
<circle cx="796" cy="940" r="12" class="c0"/>
<circle cx="1138" cy="634" r="12" class="c0"/>
<circle cx="778" cy="906" r="12" class="c0"/>
<circle cx="852" cy="984" r="12" class="c0"/>
<circle cx="1202" cy="994" r="12" class="c0"/>
<circle cx="806" cy="810" r="12" class="c0"/>
<circle cx="1124" cy="970" r="12" class="c0"/>
<circle cx="626" cy="778" r="12" class="c0"/>
<circle cx="1232" cy="960" r="12" class="c0"/>
<circle cx="478" cy="792" r="12" class="c0"/>
<circle cx="1186" cy="956" r="12" class="c0"/>
<circle cx="548" cy="776" r="12" class="c0"/>
<circle cx="1144" cy="1034" r="12" class="c0"/>
<circle cx="1274" cy="892" r="12" class="c0"/>
<circle cx="1118" cy="998" r="12" class="c0"/>
<circle cx="1132" cy="390" r="12" class="c0"/>
<circle cx="694" cy="808" r="12" class="c0"/>
<circle cx="1290" cy="952" r="12" class="c0"/>
<circle cx="1436" cy="856" r="12" class="c0"/>
<circle cx="1018" cy="930" r="12" class="c0"/>
<circle cx="1058" cy="1006" r="12" class="c0"/>
<circle cx="1194" cy="692" r="12" class="c0"/>
<circle cx="1288" cy="822" r="12" class="c0"/>
<circle cx="1086" cy="928" r="12" class="c0"/>
<circle cx="432" cy="838" r="12" class="c0"/>
<circle cx="660" cy="932" r="12" class="c0"/>
<circle cx="1114" cy="860" r="12" class="c0"/>
<circle cx="1398" cy="852" r="12" class="c0"/>
<circle cx="876" cy="846" r="12" class="c0"/>
<circle cx="846" cy="930" r="12" class="c0"/>
<circle cx="1380" cy="880" r="12" class="c0"/>
<circle cx="756" cy="794" r="12" class="c0"/>
<circle cx="770" cy="858" r="12" class="c0"/>
<circle cx="1228" cy="778" r="12" class="c0"/>
<circle cx="1196" cy="822" r="12" class="c0"/>
<circle cx="714" cy="882" r="12" class="c0"/>
<circle cx="740" cy="890" r="12" class="c0"/>
<circle cx="1156" cy="958" r="12" class="c0"/>
<circle cx="1034" cy="826" r="12" class="c0"/>
<circle cx="1082" cy="888" r="12" class="c0"/>
<circle cx="1086" cy="690" r="12" class="c0"/>
<circle cx="1292" cy="986" r="12" class="c0"/>
<circle cx="1212" cy="648" r="10" class="c0"/>
<circle cx="848" cy="1040" r="10" class="c0"/>
<circle cx="818" cy="1006" r="10" class="c0"/>
<circle cx="1514" cy="768" r="10" class="c0"/>
<circle cx="1356" cy="920" r="10" class="c0"/>
<circle cx="678" cy="760" r="10" class="c0"/>
<circle cx="1120" cy="726" r="10" class="c0"/>
<circle cx="868" cy="900" r="10" class="c0"/>
<circle cx="1374" cy="854" r="10" class="c0"/>
<circle cx="1106" cy="412" r="10" class="c0"/>
<circle cx="1228" cy="880" r="10" class="c0"/>
<circle cx="686" cy="876" r="10" class="c0"/>
<circle cx="998" cy="880" r="10" class="c0"/>
<circle cx="780" cy="986" r="10" class="c0"/>
<circle cx="910" cy="918" r="10" class="c0"/>
<circle cx="1192" cy="524" r="10" class="c0"/>
<circle cx="1090" cy="1018" r="10" class="c0"/>
<circle cx="468" cy="874" r="10" class="c0"/>
<circle cx="846" cy="888" r="10" class="c0"/>
<circle cx="1242" cy="1004" r="10" class="c0"/>
<circle cx="1346" cy="848" r="10" class="c0"/>
<circle cx="930" cy="812" r="10" class="c0"/>
<circle cx="566" cy="908" r="10" class="c0"/>
<circle cx="960" cy="806" r="10" class="c0"/>
<circle cx="934" cy="990" r="10" class="c0"/>
<circle cx="698" cy="934" r="10" class="c0"/>
<circle cx="1104" cy="778" r="10" class="c0"/>
<circle cx="678" cy="792" r="10" class="c0"/>
<circle cx="1116" cy="686" r="10" class="c0"/>
<circle cx="536" cy="860" r="10" class="c0"/>
<circle cx="1080" cy="772" r="10" class="c0"/>
<circle cx="1494" cy="718" r="10" class="c0"/>
<circle cx="528" cy="804" r="10" class="c0"/>
<circle cx="910" cy="1006" r="10" class="c0"/>
<circle cx="740" cy="846" r="10" class="c0"/>
<circle cx="902" cy="972" r="10" class="c0"/>
<circle cx="1514" cy="692" r="10" class="c0"/>
<circle cx="1300" cy="842" r="10" class="c0"/>
<circle cx="1146" cy="568" r="10" class="c0"/>
<circle cx="650" cy="832" r="10" class="c0"/>
<circle cx="828" cy="966" r="10" class="c0"/>
<circle cx="948" cy="840" r="10" class="c0"/>
<circle cx="1148" cy="362" r="10" class="c0"/>
<circle cx="976" cy="870" r="10" class="c0"/>
<circle cx="504" cy="772" r="10" class="c0"/>
<circle cx="994" cy="952" r="10" class="c0"/>
<circle cx="1416" cy="812" r="10" class="c0"/>
<circle cx="1164" cy="652" r="10" class="c0"/>
<circle cx="602" cy="758" r="10" class="c0"/>
<circle cx="792" cy="788" r="10" class="c0"/>
<circle cx="1124" cy="896" r="10" class="c0"/>
<circle cx="982" cy="938" r="10" class="c0"/>
<circle cx="548" cy="844" r="10" class="c0"/>
<circle cx="1180" cy="1018" r="10" class="c0"/>
<circle cx="1006" cy="1024" r="10" class="c0"/>
<circle cx="1454" cy="780" r="10" class="c0"/>
<circle cx="1164" cy="704" r="10" class="c0"/>
<circle cx="1288" cy="914" r="10" class="c0"/>
<circle cx="1168" cy="984" r="10" class="c0"/>
<circle cx="1200" cy="748" r="10" class="c0"/>
<circle cx="1220" cy="840" r="10" class="c0"/>
<circle cx="682" cy="850" r="10" class="c0"/>
<circle cx="1158" cy="906" r="10" class="c0"/>
<circle cx="1092" cy="952" r="10" class="c0"/>
<circle cx="1326" cy="942" r="10" class="c0"/>
<circle cx="566" cy="762" r="10" class="c0"/>
<circle cx="1260" cy="812" r="10" class="c0"/>
<circle cx="936" cy="860" r="10" class="c0"/>
<circle cx="866" cy="966" r="10" class="c0"/>
<circle cx="1150" cy="716" r="10" class="c0"/>
<circle cx="1434" cy="906" r="10" class="c0"/>
<circle cx="1406" cy="792" r="10" class="c0"/>
<circle cx="1498" cy="756" r="10" class="c0"/>
<circle cx="410" cy="782" r="10" class="c0"/>
<circle cx="948" cy="916" r="10" class="c0"/>
<circle cx="1496" cy="670" r="10" class="c0"/>
<circle cx="1194" cy="782" r="10" class="c0"/>
<circle cx="902" cy="944" r="10" class="c0"/>
<circle cx="1126" cy="452" r="10" class="c0"/>
<circle cx="1322" cy="986" r="10" class="c0"/>
<circle cx="560" cy="868" r="10" class="c0"/>
<circle cx="1360" cy="994" r="10" class="c0"/>
<circle cx="1194" cy="664" r="10" class="c0"/>
<circle cx="826" cy="852" r="10" class="c0"/>
<circle cx="970" cy="912" r="10" class="c0"/>
<circle cx="602" cy="860" r="10" class="c0"/>
<circle cx="864" cy="802" r="10" class="c0"/>
<circle cx="1152" cy="834" r="10" class="c0"/>
<circle cx="1200" cy="1040" r="10" class="c0"/>
<circle cx="556" cy="890" r="10" class="c0"/>
<circle cx="1262" cy="956" r="10" class="c0"/>
<circle cx="1342" cy="774" r="10" class="c0"/>
<circle cx="1214" cy="606" r="10" class="c0"/>
<circle cx="734" cy="936" r="10" class="c0"/>
<circle cx="1142" cy="676" r="10" class="c0"/>
<circle cx="1076" cy="1032" r="10" class="c0"/>
<circle cx="1138" cy="800" r="10" class="c0"/>
<circle cx="1326" cy="904" r="10" class="c0"/>
<circle cx="588" cy="780" r="10" class="c0"/>
<circle cx="862" cy="866" r="10" class="c0"/>
<circle cx="1470" cy="714" r="10" class="c0"/>
<circle cx="636" cy="896" r="10" class="c0"/>
<circle cx="460" cy="842" r="10" class="c0"/>
<circle cx="810" cy="910" r="10" class="c0"/>
<circle cx="1222" cy="984" r="10" class="c0"/>
<circle cx="1084" cy="714" r="10" class="c0"/>
<circle cx="808" cy="958" r="10" class="c0"/>
<circle cx="1210" cy="728" r="10" class="c0"/>
<circle cx="1124" cy="512" r="10" class="c0"/>
<circle cx="1382" cy="932" r="10" class="c0"/>
<circle cx="832" cy="810" r="10" class="c0"/>
<circle cx="1086" cy="840" r="10" class="c0"/>
<circle cx="1472" cy="810" r="10" class="c0"/>
<circle cx="1154" cy="400" r="10" class="c0"/>
<circle cx="774" cy="820" r="10" class="c0"/>
<circle cx="1168" cy="846" r="10" class="c0"/>
<circle cx="936" cy="1036" r="10" class="c0"/>
<circle cx="604" cy="884" r="10" class="c0"/>
<circle cx="1160" cy="604" r="10" class="c0"/>
<circle cx="436" cy="808" r="10" class="c0"/>
<circle cx="1030" cy="888" r="10" class="c0"/>
<circle cx="1228" cy="676" r="10" class="c0"/>
<circle cx="1282" cy="1016" r="10" class="c0"/>
<circle cx="1366" cy="896" r="10" class="c0"/>
<circle cx="1318" cy="812" r="10" class="c0"/>
<circle cx="658" cy="784" r="10" class="c0"/>
<circle cx="1184" cy="386" r="10" class="c0"/>
<circle cx="638" cy="804" r="10" class="c0"/>
<circle cx="936" cy="966" r="10" class="c0"/>
<circle cx="1086" cy="984" r="10" class="c0"/>
<circle cx="1480" cy="786" r="10" class="c0"/>
<circle cx="752" cy="832" r="10" class="c0"/>
<circle cx="1058" cy="970" r="10" class="c0"/>
<circle cx="676" cy="900" r="10" class="c0"/>
<circle cx="730" cy="982" r="10" class="c0"/>
<circle cx="1126" cy="608" r="10" class="c0"/>
<circle cx="660" cy="884" r="10" class="c0"/>
<circle cx="804" cy="856" r="10" class="c0"/>
<circle cx="1492" cy="696" r="10" class="c0"/>
<circle cx="790" cy="1024" r="10" class="c0"/>
<circle cx="1240" cy="820" r="10" class="c0"/>
<circle cx="810" cy="886" r="10" class="c0"/>
<circle cx="440" cy="784" r="10" class="c0"/>
<circle cx="724" cy="782" r="10" class="c0"/>
<circle cx="1188" cy="906" r="10" class="c0"/>
<circle cx="1264" cy="850" r="10" class="c0"/>
<circle cx="626" cy="864" r="10" class="c0"/>
<circle cx="1334" cy="862" r="8" class="c0"/>
<circle cx="1200" cy="928" r="8" class="c0"/>
<circle cx="1148" cy="880" r="8" class="c0"/>
<circle cx="544" cy="908" r="8" class="c0"/>
<circle cx="746" cy="768" r="8" class="c0"/>
<circle cx="1340" cy="962" r="8" class="c0"/>
<circle cx="1290" cy="880" r="8" class="c0"/>
<circle cx="868" cy="1010" r="8" class="c0"/>
<circle cx="1116" cy="930" r="8" class="c0"/>
<circle cx="1516" cy="672" r="8" class="c0"/>
<circle cx="916" cy="1038" r="8" class="c0"/>
<circle cx="820" cy="1030" r="8" class="c0"/>
<circle cx="954" cy="938" r="8" class="c0"/>
<circle cx="508" cy="816" r="8" class="c0"/>
<circle cx="1298" cy="1028" r="8" class="c0"/>
<circle cx="1172" cy="452" r="8" class="c0"/>
<circle cx="878" cy="996" r="8" class="c0"/>
<circle cx="1038" cy="774" r="8" class="c0"/>
<circle cx="1304" cy="902" r="8" class="c0"/>
<circle cx="706" cy="910" r="8" class="c0"/>
<circle cx="958" cy="894" r="8" class="c0"/>
<circle cx="1130" cy="842" r="8" class="c0"/>
<circle cx="1184" cy="874" r="8" class="c0"/>
<circle cx="490" cy="878" r="8" class="c0"/>
<circle cx="998" cy="910" r="8" class="c0"/>
<circle cx="1196" cy="860" r="8" class="c0"/>
<circle cx="1126" cy="420" r="8" class="c0"/>
<circle cx="1196" cy="888" r="8" class="c0"/>
<circle cx="658" cy="808" r="8" class="c0"/>
<circle cx="728" cy="862" r="8" class="c0"/>
<circle cx="1150" cy="924" r="8" class="c0"/>
<circle cx="1124" cy="816" r="8" class="c0"/>
<circle cx="1212" cy="952" r="8" class="c0"/>
<circle cx="788" cy="846" r="8" class="c0"/>
<circle cx="926" cy="844" r="8" class="c0"/>
<circle cx="1176" cy="562" r="8" class="c0"/>
<circle cx="1342" cy="878" r="8" class="c0"/>
<circle cx="966" cy="968" r="8" class="c0"/>
<circle cx="1174" cy="504" r="8" class="c0"/>
<circle cx="1372" cy="792" r="8" class="c0"/>
<circle cx="1112" cy="1044" r="8" class="c0"/>
<circle cx="674" cy="948" r="8" class="c0"/>
<circle cx="836" cy="788" r="8" class="c0"/>
<circle cx="1378" cy="968" r="8" class="c0"/>
<circle cx="972" cy="1034" r="8" class="c0"/>
<circle cx="884" cy="810" r="8" class="c0"/>
<circle cx="1428" cy="800" r="8" class="c0"/>
<circle cx="1366" cy="836" r="8" class="c0"/>
<circle cx="1026" cy="574" r="8" class="c0"/>
<circle cx="812" cy="786" r="8" class="c0"/>
<circle cx="764" cy="1000" r="8" class="c0"/>
<circle cx="1166" cy="530" r="8" class="c0"/>
<circle cx="728" cy="910" r="8" class="c0"/>
<circle cx="1160" cy="1006" r="8" class="c0"/>
<circle cx="1096" cy="872" r="8" class="c0"/>
<circle cx="620" cy="842" r="8" class="c0"/>
<circle cx="984" cy="848" r="8" class="c0"/>
<circle cx="1262" cy="1008" r="8" class="c0"/>
<circle cx="1164" cy="870" r="8" class="c0"/>
<circle cx="850" cy="852" r="8" class="c0"/>
<circle cx="1458" cy="844" r="8" class="c0"/>
<circle cx="1176" cy="632" r="8" class="c0"/>
<circle cx="1462" cy="736" r="8" class="c0"/>
<circle cx="506" cy="834" r="8" class="c0"/>
<circle cx="1210" cy="706" r="8" class="c0"/>
<circle cx="918" cy="954" r="8" class="c0"/>
<circle cx="1262" cy="988" r="8" class="c0"/>
<circle cx="1238" cy="928" r="8" class="c0"/>
<circle cx="1250" cy="1022" r="8" class="c0"/>
<circle cx="888" cy="1052" r="8" class="c0"/>
<circle cx="882" cy="888" r="8" class="c0"/>
<circle cx="1056" cy="876" r="8" class="c0"/>
<circle cx="562" cy="812" r="8" class="c0"/>
<circle cx="1108" cy="754" r="8" class="c0"/>
<circle cx="1308" cy="864" r="8" class="c0"/>
<circle cx="1156" cy="548" r="8" class="c0"/>
<circle cx="754" cy="908" r="8" class="c0"/>
<circle cx="1222" cy="916" r="8" class="c0"/>
<circle cx="1314" cy="792" r="8" class="c0"/>
<circle cx="1010" cy="986" r="8" class="c0"/>
<circle cx="1174" cy="760" r="8" class="c0"/>
<circle cx="1158" cy="584" r="8" class="c0"/>
<circle cx="1210" cy="1014" r="8" class="c0"/>
<circle cx="1056" cy="750" r="8" class="c0"/>
<circle cx="618" cy="822" r="8" class="c0"/>
<circle cx="1026" cy="536" r="8" class="c0"/>
<circle cx="916" cy="892" r="8" class="c0"/>
<circle cx="1096" cy="796" r="8" class="c0"/>
<circle cx="1282" cy="794" r="8" class="c0"/>
<circle cx="1210" cy="900" r="8" class="c0"/>
<circle cx="1214" cy="864" r="8" class="c0"/>
<circle cx="1444" cy="882" r="8" class="c0"/>
<circle cx="1202" cy="394" r="8" class="c0"/>
<circle cx="838" cy="1018" r="8" class="c0"/>
<circle cx="878" cy="918" r="8" class="c0"/>
<circle cx="890" cy="984" r="8" class="c0"/>
<circle cx="446" cy="824" r="8" class="c0"/>
<circle cx="1258" cy="914" r="8" class="c0"/>
<circle cx="1454" cy="826" r="8" class="c0"/>
<circle cx="702" cy="782" r="8" class="c0"/>
<circle cx="828" cy="1050" r="8" class="c0"/>
<circle cx="876" cy="948" r="8" class="c0"/>
<circle cx="776" cy="884" r="8" class="c0"/>
<circle cx="1236" cy="1034" r="8" class="c0"/>
<circle cx="486" cy="896" r="8" class="c0"/>
<circle cx="1054" cy="384" r="8" class="c0"/>
<circle cx="1114" cy="380" r="8" class="c0"/>
<circle cx="822" cy="898" r="8" class="c0"/>
<circle cx="514" cy="850" r="8" class="c0"/>
<circle cx="968" cy="836" r="8" class="c0"/>
<circle cx="1094" cy="656" r="8" class="c0"/>
<circle cx="1428" cy="828" r="8" class="c0"/>
<circle cx="1408" cy="900" r="8" class="c0"/>
<circle cx="710" cy="848" r="8" class="c0"/>
<circle cx="1190" cy="610" r="8" class="c0"/>
<circle cx="1466" cy="764" r="8" class="c0"/>
<circle cx="1140" cy="936" r="8" class="c0"/>
<circle cx="490" cy="814" r="8" class="c0"/>
<circle cx="1042" cy="942" r="8" class="c0"/>
<circle cx="1038" cy="466" r="8" class="c0"/>
<circle cx="1278" cy="936" r="8" class="c0"/>
<circle cx="856" cy="1058" r="8" class="c0"/>
<circle cx="1092" cy="1042" r="8" class="c0"/>
<circle cx="1348" cy="1014" r="8" class="c0"/>
<circle cx="1182" cy="416" r="8" class="c0"/>
<circle cx="1034" cy="500" r="8" class="c0"/>
<circle cx="1170" cy="734" r="8" class="c0"/>
<circle cx="1198" cy="488" r="8" class="c0"/>
<circle cx="820" cy="946" r="8" class="c0"/>
<circle cx="858" cy="826" r="8" class="c0"/>
<circle cx="1392" cy="958" r="8" class="c0"/>
<circle cx="1156" cy="750" r="8" class="c0"/>
<circle cx="1158" cy="782" r="8" class="c0"/>
<circle cx="510" cy="796" r="8" class="c0"/>
<circle cx="1322" cy="848" r="8" class="c0"/>
<circle cx="990" cy="816" r="8" class="c0"/>
<circle cx="1102" cy="630" r="8" class="c0"/>
<circle cx="1212" cy="522" r="8" class="c0"/>
<circle cx="1236" cy="714" r="8" class="c0"/>
<circle cx="1328" cy="1018" r="8" class="c0"/>
<circle cx="1190" cy="732" r="8" class="c0"/>
<circle cx="892" cy="928" r="8" class="c0"/>
<circle cx="1122" cy="1024" r="8" class="c0"/>
<circle cx="1420" cy="760" r="8" class="c0"/>
<circle cx="1116" cy="358" r="8" class="c0"/>
<circle cx="1390" cy="780" r="8" class="c0"/>
<circle cx="1142" cy="984" r="8" class="c0"/>
<circle cx="736" cy="814" r="8" class="c0"/>
<circle cx="1200" cy="636" r="8" class="c0"/>
<circle cx="792" cy="970" r="8" class="c0"/>
<circle cx="1260" cy="932" r="8" class="c0"/>
<circle cx="1254" cy="868" r="8" class="c0"/>
<circle cx="1310" cy="968" r="8" class="c0"/>
<circle cx="698" cy="758" r="8" class="c0"/>
<circle cx="770" cy="1018" r="8" class="c0"/>
<circle cx="1018" cy="840" r="8" class="c0"/>
<circle cx="1128" cy="484" r="8" class="c0"/>
<circle cx="450" cy="858" r="8" class="c0"/>
<circle cx="1358" cy="816" r="8" class="c0"/>
<circle cx="1122" cy="770" r="8" class="c0"/>
<circle cx="778" cy="800" r="8" class="c0"/>
<circle cx="824" cy="874" r="8" class="c0"/>
<circle cx="1228" cy="698" r="8" class="c0"/>
<circle cx="1448" cy="804" r="8" class="c0"/>
<circle cx="1250" cy="970" r="8" class="c0"/>
<circle cx="586" cy="850" r="8" class="c0"/>
<circle cx="904" cy="834" r="8" class="c0"/>
<circle cx="930" cy="924" r="8" class="c0"/>
<circle cx="664" cy="860" r="8" class="c0"/>
<circle cx="510" cy="904" r="8" class="c0"/>
<circle cx="1344" cy="826" r="8" class="c0"/>
<circle cx="492" cy="852" r="8" class="c0"/>
<circle cx="1218" cy="1032" r="8" class="c0"/>
<circle cx="674" cy="818" r="8" class="c0"/>
<circle cx="1136" cy="914" r="8" class="c0"/>
<circle cx="1136" cy="738" r="8" class="c0"/>
<circle cx="552" cy="798" r="8" class="c0"/>
<circle cx="1062" cy="822" r="8" class="c0"/>
<circle cx="426" cy="772" r="8" class="c0"/>
<circle cx="1010" cy="822" r="8" class="c0"/>
<circle cx="588" cy="928" r="8" class="c0"/>
<circle cx="476" cy="824" r="8" class="c0"/>
<circle cx="1162" cy="682" r="8" class="c0"/>
<circle cx="892" cy="906" r="8" class="c0"/>
<circle cx="1054" cy="922" r="8" class="c0"/>
<circle cx="1118" cy="706" r="8" class="c0"/>
<circle cx="1440" cy="764" r="8" class="c0"/>
<circle cx="1032" cy="912" r="8" class="c0"/>
<circle cx="414" cy="806" r="8" class="c0"/>
<circle cx="952" cy="978" r="8" class="c0"/>
<circle cx="1058" cy="692" r="8" class="c0"/>
<circle cx="1224" cy="810" r="8" class="c0"/>
<circle cx="1314" cy="922" r="8" class="c0"/>
<circle cx="1128" cy="946" r="8" class="c0"/>
<circle cx="936" cy="882" r="8" class="c0"/>
<circle cx="1108" cy="832" r="8" class="c0"/>
<circle cx="618" cy="904" r="8" class="c0"/>
<circle cx="788" cy="872" r="8" class="c0"/>
<circle cx="818" cy="928" r="8" class="c0"/>
<circle cx="982" cy="896" r="8" class="c0"/>
<circle cx="452" cy="796" r="8" class="c0"/>
<circle cx="1420" cy="890" r="8" class="c0"/>
<circle cx="1042" cy="404" r="8" class="c0"/>
<circle cx="1128" cy="874" r="8" class="c0"/>
<circle cx="600" cy="836" r="8" class="c0"/>
<circle cx="798" cy="996" r="8" class="c0"/>
<circle cx="1418" cy="866" r="8" class="c0"/>
<circle cx="976" cy="978" r="8" class="c0"/>
<circle cx="768" cy="778" r="8" class="c0"/>
<circle cx="582" cy="884" r="8" class="c0"/>
<circle cx="928" cy="944" r="8" class="c0"/>
<circle cx="1226" cy="744" r="8" class="c0"/>
<circle cx="640" cy="754" r="8" class="c0"/>
<circle cx="984" cy="1022" r="8" class="c0"/>
<circle cx="800" cy="834" r="8" class="c0"/>
<circle cx="924" cy="1022" r="8" class="c0"/>
<circle cx="808" cy="986" r="8" class="c0"/>
<circle cx="1196" cy="546" r="8" class="c0"/>
<circle cx="1174" cy="886" r="8" class="c0"/>
<circle cx="1452" cy="754" r="8" class="c0"/>
<circle cx="1066" cy="940" r="8" class="c0"/>
<circle cx="1104" cy="906" r="8" class="c0"/>
<circle cx="1136" cy="532" r="8" class="c0"/>
<circle cx="866" cy="1032" r="8" class="c0"/>
<circle cx="858" cy="946" r="8" class="c0"/>
<circle cx="1378" cy="910" r="8" class="c0"/>
<circle cx="1290" cy="860" r="8" class="c0"/>
<circle cx="1346" cy="898" r="8" class="c0"/>
<circle cx="1136" cy="696" r="8" class="c0"/>
<circle cx="1040" cy="1024" r="8" class="c0"/>
<circle cx="1338" cy="930" r="8" class="c0"/>
<circle cx="1098" cy="822" r="8" class="c0"/>
<circle cx="822" cy="832" r="8" class="c0"/>
<circle cx="1104" cy="436" r="8" class="c0"/>
<circle cx="1202" cy="970" r="8" class="c0"/>
<circle cx="1064" cy="784" r="8" class="c0"/>
<circle cx="1192" cy="466" r="8" class="c0"/>
<circle cx="1342" cy="796" r="8" class="c0"/>
<circle cx="956" cy="958" r="8" class="c0"/>
<circle cx="1240" cy="844" r="8" class="c0"/>
<circle cx="496" cy="914" r="8" class="c0"/>
<circle cx="762" cy="940" r="8" class="c0"/>
<circle cx="1214" cy="796" r="8" class="c0"/>
<circle cx="1176" cy="934" r="8" class="c0"/>
<circle cx="1136" cy="1014" r="8" class="c0"/>
<circle cx="1176" cy="360" r="8" class="c0"/>
<circle cx="1340" cy="996" r="8" class="c0"/>
<circle cx="1402" cy="770" r="8" class="c0"/>
<circle cx="1042" cy="424" r="8" class="c0"/>
<circle cx="736" cy="1002" r="8" class="c0"/>
<circle cx="906" cy="796" r="8" class="c0"/>
<circle cx="836" cy="910" r="8" class="c0"/>
<circle cx="1302" cy="780" r="8" class="c0"/>
<circle cx="848" cy="1006" r="8" class="c0"/>
<circle cx="952" cy="874" r="8" class="c0"/>
<circle cx="1028" cy="1000" r="8" class="c0"/>
<circle cx="1092" cy="400" r="8" class="c0"/>
<circle cx="1242" cy="902" r="8" class="c0"/>
<circle cx="1140" cy="588" r="8" class="c0"/>
<circle cx="654" cy="764" r="8" class="c0"/>
<circle cx="1276" cy="838" r="8" class="c0"/>
<circle cx="1438" cy="814" r="8" class="c0"/>
<circle cx="848" cy="956" r="8" class="c0"/>
<circle cx="1356" cy="866" r="8" class="c0"/>
<circle cx="686" cy="968" r="8" class="c0"/>
<circle cx="704" cy="984" r="8" class="c0"/>
<circle cx="1324" cy="782" r="8" class="c0"/>
<circle cx="722" cy="802" r="8" class="c0"/>
<circle cx="654" cy="906" r="8" class="c0"/>
<circle cx="928" cy="904" r="8" class="c0"/>
<circle cx="1242" cy="792" r="8" class="c0"/>
<circle cx="1402" cy="876" r="8" class="c0"/>
<circle cx="570" cy="830" r="8" class="c0"/>
<circle cx="838" cy="864" r="8" class="c0"/>
<circle cx="1398" cy="914" r="8" class="c0"/>
<circle cx="1180" cy="1046" r="8" class="c0"/>
<circle cx="1042" cy="866" r="8" class="c0"/>
<circle cx="644" cy="920" r="8" class="c0"/>
<circle cx="1298" cy="802" r="8" class="c0"/>
<circle cx="1104" cy="672" r="8" class="c0"/>
<circle cx="1216" cy="688" r="8" class="c0"/>
<circle cx="802" cy="1042" r="8" class="c0"/>
<circle cx="464" cy="770" r="8" class="c0"/>
<circle cx="1222" cy="936" r="8" class="c0"/>
<circle cx="1476" cy="746" r="8" class="c0"/>
<circle cx="536" cy="760" r="8" class="c0"/>
<circle cx="700" cy="862" r="8" class="c0"/>
<circle cx="998" cy="976" r="8" class="c0"/>
<circle cx="1018" cy="900" r="8" class="c0"/>
<circle cx="748" cy="868" r="8" class="c0"/>
<circle cx="1168" cy="376" r="8" class="c0"/>
<circle cx="1272" cy="998" r="8" class="c0"/>
<circle cx="1036" cy="756" r="8" class="c0"/>
<circle cx="1272" cy="974" r="8" class="c0"/>
<circle cx="1150" cy="860" r="8" class="c0"/>
<circle cx="1198" cy="578" r="8" class="c0"/>
<circle cx="690" cy="830" r="8" class="c0"/>
<circle cx="1188" cy="844" r="8" class="c0"/>
<circle cx="572" cy="798" r="8" class="c0"/>
<circle cx="996" cy="836" r="8" class="c0"/>
<circle cx="1378" cy="764" r="8" class="c0"/>
<circle cx="1310" cy="1002" r="8" class="c0"/>
<circle cx="524" cy="776" r="8" class="c0"/>
<circle cx="1076" cy="672" r="8" class="c0"/>
<circle cx="644" cy="872" r="8" class="c0"/>
<circle cx="1076" cy="866" r="8" class="c0"/>
<circle cx="1070" cy="958" r="8" class="c0"/>
<circle cx="798" cy="898" r="8" class="c0"/>
<circle cx="640" cy="852" r="8" class="c0"/>
<circle cx="1326" cy="830" r="8" class="c0"/>
<circle cx="718" cy="762" r="8" class="c0"/>
<circle cx="1252" cy="832" r="8" class="c0"/>
<circle cx="764" cy="920" r="8" class="c0"/>
<circle cx="1038" cy="442" r="8" class="c0"/>
<circle cx="1178" cy="674" r="8" class="c0"/>
<circle cx="500" cy="868" r="8" class="c0"/>
<circle cx="888" cy="1008" r="8" class="c0"/>
<circle cx="1148" cy="616" r="8" class="c0"/>
<circle cx="1116" cy="794" r="8" class="c0"/>
<circle cx="1186" cy="714" r="8" class="c0"/>
<circle cx="524" cy="840" r="8" class="c0"/>
<circle cx="484" cy="768" r="8" class="c0"/>
<circle cx="1250" cy="942" r="8" class="c0"/>
<circle cx="1028" cy="598" r="8" class="c0"/>
<circle cx="1422" cy="778" r="8" class="c0"/>
<circle cx="424" cy="794" r="8" class="c0"/>
<circle cx="1416" cy="920" r="8" class="c0"/>
<circle cx="1228" cy="638" r="8" class="c0"/>
<circle cx="778" cy="930" r="8" class="c0"/>
<circle cx="1092" cy="732" r="8" class="c0"/>
<circle cx="472" cy="854" r="8" class="c0"/>
<circle cx="1028" cy="554" r="8" class="c0"/>
<circle cx="1112" cy="954" r="8" class="c0"/>
<circle cx="716" cy="926" r="6" class="c0"/>
<circle cx="1226" cy="1016" r="6" class="c0"/>
<circle cx="1158" cy="1022" r="6" class="c0"/>
<circle cx="1184" cy="976" r="6" class="c0"/>
<circle cx="1216" cy="624" r="6" class="c0"/>
<circle cx="852" cy="786" r="6" class="c0"/>
<circle cx="1386" cy="982" r="6" class="c0"/>
<circle cx="772" cy="838" r="6" class="c0"/>
<circle cx="1460" cy="860" r="6" class="c0"/>
<circle cx="1238" cy="866" r="6" class="c0"/>
<circle cx="836" cy="996" r="6" class="c0"/>
<circle cx="1410" cy="834" r="6" class="c0"/>
<circle cx="686" cy="914" r="6" class="c0"/>
<circle cx="1028" cy="982" r="6" class="c0"/>
<circle cx="1136" cy="550" r="6" class="c0"/>
<circle cx="1184" cy="650" r="6" class="c0"/>
<circle cx="1114" cy="882" r="6" class="c0"/>
<circle cx="754" cy="990" r="6" class="c0"/>
<circle cx="1008" cy="1002" r="6" class="c0"/>
<circle cx="902" cy="814" r="6" class="c0"/>
<circle cx="1310" cy="828" r="6" class="c0"/>
<circle cx="620" cy="798" r="6" class="c0"/>
<circle cx="1506" cy="730" r="6" class="c0"/>
<circle cx="586" cy="826" r="6" class="c0"/>
<circle cx="1162" cy="1046" r="6" class="c0"/>
<circle cx="1016" cy="1010" r="6" class="c0"/>
<circle cx="1048" cy="988" r="6" class="c0"/>
<circle cx="1108" cy="1014" r="6" class="c0"/>
<circle cx="1054" cy="770" r="6" class="c0"/>
<circle cx="1182" cy="998" r="6" class="c0"/>
<circle cx="888" cy="960" r="6" class="c0"/>
<circle cx="1386" cy="800" r="6" class="c0"/>
<circle cx="784" cy="1006" r="6" class="c0"/>
<circle cx="838" cy="828" r="6" class="c0"/>
<circle cx="882" cy="866" r="6" class="c0"/>
<circle cx="1070" cy="702" r="6" class="c0"/>
<circle cx="1248" cy="726" r="6" class="c0"/>
<circle cx="1104" cy="968" r="6" class="c0"/>
<circle cx="764" cy="974" r="6" class="c0"/>
<circle cx="1194" cy="506" r="6" class="c0"/>
<circle cx="1176" cy="828" r="6" class="c0"/>
<circle cx="518" cy="760" r="6" class="c0"/>
<circle cx="890" cy="792" r="6" class="c0"/>
<circle cx="1078" cy="818" r="6" class="c0"/>
<circle cx="1360" cy="772" r="6" class="c0"/>
<circle cx="690" cy="772" r="6" class="c0"/>
<circle cx="620" cy="752" r="6" class="c0"/>
<circle cx="668" cy="838" r="6" class="c0"/>
<circle cx="528" cy="906" r="6" class="c0"/>
<circle cx="1120" cy="534" r="6" class="c0"/>
<circle cx="1210" cy="504" r="6" class="c0"/>
<circle cx="934" cy="1010" r="6" class="c0"/>
<circle cx="1358" cy="976" r="6" class="c0"/>
<circle cx="1148" cy="816" r="6" class="c0"/>
<circle cx="1190" cy="762" r="6" class="c0"/>
<circle cx="1170" cy="430" r="6" class="c0"/>
<circle cx="1218" cy="762" r="6" class="c0"/>
<circle cx="1102" cy="1032" r="6" class="c0"/>
<circle cx="1168" cy="1030" r="6" class="c0"/>
<circle cx="656" cy="748" r="6" class="c0"/>
<circle cx="1140" cy="658" r="6" class="c0"/>
<circle cx="1128" cy="752" r="6" class="c0"/>
<circle cx="1494" cy="776" r="6" class="c0"/>
<circle cx="1056" cy="1032" r="6" class="c0"/>
<circle cx="1024" cy="1020" r="6" class="c0"/>
<circle cx="1158" cy="628" r="6" class="c0"/>
<circle cx="1030" cy="616" r="6" class="c0"/>
<circle cx="1260" cy="1032" r="6" class="c0"/>
<circle cx="1508" cy="658" r="6" class="c0"/>
<circle cx="1130" cy="366" r="6" class="c0"/>
<circle cx="1304" cy="940" r="6" class="c0"/>
<circle cx="1300" cy="1012" r="6" class="c0"/>
<circle cx="1354" cy="786" r="6" class="c0"/>
<circle cx="888" cy="828" r="6" class="c0"/>
<circle cx="1246" cy="986" r="6" class="c0"/>
<circle cx="540" cy="878" r="6" class="c0"/>
<circle cx="566" cy="846" r="6" class="c0"/>
<circle cx="1074" cy="396" r="6" class="c0"/>
<circle cx="1142" cy="412" r="6" class="c0"/>
<circle cx="1516" cy="710" r="6" class="c0"/>
<circle cx="896" cy="850" r="6" class="c0"/>
<circle cx="958" cy="856" r="6" class="c0"/>
<circle cx="570" cy="782" r="6" class="c0"/>
<circle cx="950" cy="822" r="6" class="c0"/>
<circle cx="746" cy="1012" r="6" class="c0"/>
<circle cx="1034" cy="852" r="6" class="c0"/>
<circle cx="866" cy="932" r="6" class="c0"/>
<circle cx="1022" cy="682" r="6" class="c0"/>
<circle cx="1068" cy="990" r="6" class="c0"/>
<circle cx="584" cy="760" r="6" class="c0"/>
<circle cx="1188" cy="804" r="6" class="c0"/>
<circle cx="1274" cy="864" r="6" class="c0"/>
<circle cx="1294" cy="932" r="6" class="c0"/>
<circle cx="456" cy="812" r="6" class="c0"/>
<circle cx="1040" cy="974" r="6" class="c0"/>
<circle cx="964" cy="988" r="6" class="c0"/>
<circle cx="1022" cy="648" r="6" class="c0"/>
<circle cx="1204" cy="768" r="6" class="c0"/>
<circle cx="912" cy="854" r="6" class="c0"/>
<circle cx="536" cy="894" r="6" class="c0"/>
<circle cx="1472" cy="832" r="6" class="c0"/>
<circle cx="490" cy="836" r="6" class="c0"/>
<circle cx="1176" cy="542" r="6" class="c0"/>
<circle cx="1102" cy="716" r="6" class="c0"/>
<circle cx="1176" cy="780" r="6" class="c0"/>
<circle cx="994" cy="926" r="6" class="c0"/>
<circle cx="578" cy="814" r="6" class="c0"/>
<circle cx="1392" cy="896" r="6" class="c0"/>
<circle cx="916" cy="988" r="6" class="c0"/>
<circle cx="978" cy="826" r="6" class="c0"/>
<circle cx="722" cy="948" r="6" class="c0"/>
<circle cx="414" cy="824" r="6" class="c0"/>
<circle cx="956" cy="1036" r="6" class="c0"/>
<circle cx="1174" cy="616" r="6" class="c0"/>
<circle cx="1254" cy="890" r="6" class="c0"/>
<circle cx="1030" cy="482" r="6" class="c0"/>
<circle cx="1056" cy="950" r="6" class="c0"/>
<circle cx="976" cy="956" r="6" class="c0"/>
<circle cx="744" cy="918" r="6" class="c0"/>
<circle cx="1480" cy="728" r="6" class="c0"/>
<circle cx="1112" cy="620" r="6" class="c0"/>
<circle cx="872" cy="1056" r="6" class="c0"/>
<circle cx="1172" cy="404" r="6" class="c0"/>
<circle cx="1418" cy="844" r="6" class="c0"/>
<circle cx="966" cy="948" r="6" class="c0"/>
<circle cx="794" cy="920" r="6" class="c0"/>
<circle cx="448" cy="768" r="6" class="c0"/>
<circle cx="1220" cy="1002" r="6" class="c0"/>
<circle cx="1502" cy="784" r="6" class="c0"/>
<circle cx="1482" cy="682" r="6" class="c0"/>
<circle cx="1048" cy="358" r="6" class="c0"/>
<circle cx="760" cy="878" r="6" class="c0"/>
<circle cx="1044" cy="740" r="6" class="c0"/>
<circle cx="1102" cy="390" r="6" class="c0"/>
<circle cx="1206" cy="676" r="6" class="c0"/>
<circle cx="1188" cy="448" r="6" class="c0"/>
<circle cx="1078" cy="1002" r="6" class="c0"/>
<circle cx="942" cy="800" r="6" class="c0"/>
<circle cx="1192" cy="404" r="6" class="c0"/>
<circle cx="1024" cy="810" r="6" class="c0"/>
<circle cx="1044" cy="902" r="6" class="c0"/>
<circle cx="1084" cy="908" r="6" class="c0"/>
<circle cx="1266" cy="790" r="6" class="c0"/>
<circle cx="854" cy="910" r="6" class="c0"/>
<circle cx="1232" cy="658" r="6" class="c0"/>
<circle cx="1344" cy="978" r="6" class="c0"/>
<circle cx="622" cy="882" r="6" class="c0"/>
<circle cx="690" cy="950" r="6" class="c0"/>
<circle cx="914" cy="820" r="6" class="c0"/>
<circle cx="1094" cy="1000" r="6" class="c0"/>
<circle cx="1106" cy="806" r="6" class="c0"/>
<circle cx="568" cy="926" r="6" class="c0"/>
<circle cx="680" cy="926" r="6" class="c0"/>
<circle cx="874" cy="822" r="6" class="c0"/>
<circle cx="630" cy="832" r="6" class="c0"/>
<circle cx="1230" cy="856" r="6" class="c0"/>
<circle cx="1132" cy="1048" r="6" class="c0"/>
<circle cx="762" cy="892" r="6" class="c0"/>
<circle cx="1102" cy="700" r="6" class="c0"/>
<circle cx="1124" cy="670" r="6" class="c0"/>
<circle cx="824" cy="988" r="6" class="c0"/>
<circle cx="730" cy="956" r="6" class="c0"/>
<circle cx="1118" cy="744" r="6" class="c0"/>
<circle cx="1132" cy="714" r="6" class="c0"/>
<circle cx="1214" cy="666" r="6" class="c0"/>
<circle cx="922" cy="872" r="6" class="c0"/>
<circle cx="1454" cy="872" r="6" class="c0"/>
<circle cx="1066" cy="762" r="6" class="c0"/>
<circle cx="718" cy="996" r="6" class="c0"/>
<circle cx="696" cy="896" r="6" class="c0"/>
<circle cx="1162" cy="416" r="6" class="c0"/>
<circle cx="754" cy="814" r="6" class="c0"/>
<circle cx="1202" cy="594" r="6" class="c0"/>
<circle cx="1488" cy="736" r="6" class="c0"/>
<circle cx="822" cy="796" r="6" class="c0"/>
<circle cx="1378" cy="950" r="6" class="c0"/>
<circle cx="898" cy="890" r="6" class="c0"/>
<circle cx="1108" cy="982" r="6" class="c0"/>
<circle cx="1174" cy="916" r="6" class="c0"/>
<circle cx="1484" cy="766" r="6" class="c0"/>
<circle cx="1152" cy="692" r="6" class="c0"/>
<circle cx="1104" cy="370" r="6" class="c0"/>
<circle cx="1316" cy="1030" r="6" class="c0"/>
<circle cx="1028" cy="516" r="6" class="c0"/>
<circle cx="1436" cy="786" r="6" class="c0"/>
<circle cx="1324" cy="960" r="6" class="c0"/>
<circle cx="1190" cy="368" r="6" class="c0"/>
<circle cx="1092" cy="758" r="6" class="c0"/>
<circle cx="748" cy="948" r="6" class="c0"/>
<circle cx="1180" cy="858" r="6" class="c0"/>
<circle cx="1026" cy="634" r="6" class="c0"/>
<circle cx="752" cy="930" r="6" class="c0"/>
<circle cx="782" cy="770" r="6" class="c0"/>
<circle cx="1046" cy="958" r="6" class="c0"/>
<circle cx="554" cy="920" r="6" class="c0"/>
<circle cx="1206" cy="878" r="6" class="c0"/>
<circle cx="840" cy="842" r="6" class="c0"/>
<circle cx="580" cy="866" r="6" class="c0"/>
<circle cx="918" cy="934" r="6" class="c0"/>
<circle cx="1130" cy="784" r="6" class="c0"/>
<circle cx="500" cy="888" r="6" class="c0"/>
<circle cx="1056" cy="368" r="6" class="c0"/>
<circle cx="922" cy="828" r="6" class="c0"/>
<circle cx="856" cy="1020" r="6" class="c0"/>
<circle cx="904" cy="1050" r="6" class="c0"/>
<circle cx="1442" cy="836" r="6" class="c0"/>
<circle cx="672" cy="918" r="6" class="c0"/>
<circle cx="520" cy="914" r="6" class="c0"/>
<circle cx="1022" cy="698" r="6" class="c0"/>
<circle cx="846" cy="800" r="6" class="c0"/>
<circle cx="1046" cy="812" r="6" class="c0"/>
<circle cx="1102" cy="938" r="6" class="c0"/>
<circle cx="1116" cy="494" r="6" class="c0"/>
<circle cx="1144" cy="896" r="6" class="c0"/>
<circle cx="802" cy="774" r="6" class="c0"/>
<circle cx="876" cy="790" r="6" class="c0"/>
<circle cx="1138" cy="824" r="6" class="c0"/>
<circle cx="1384" cy="840" r="6" class="c0"/>
<circle cx="1234" cy="758" r="6" class="c0"/>
<circle cx="640" cy="938" r="6" class="c0"/>
<circle cx="482" cy="864" r="6" class="c0"/>
<circle cx="606" cy="776" r="6" class="c0"/>
<circle cx="1080" cy="792" r="6" class="c0"/>
<circle cx="978" cy="804" r="6" class="c0"/>
<circle cx="1428" cy="876" r="6" class="c0"/>
<circle cx="1374" cy="808" r="6" class="c0"/>
<circle cx="1102" cy="890" r="6" class="c0"/>
<circle cx="920" cy="974" r="6" class="c0"/>
<circle cx="1152" cy="382" r="6" class="c0"/>
<circle cx="1464" cy="794" r="6" class="c0"/>
<circle cx="1160" cy="936" r="6" class="c0"/>
<circle cx="1118" cy="914" r="6" class="c0"/>
<circle cx="808" cy="1020" r="6" class="c0"/>
<circle cx="1240" cy="688" r="6" class="c0"/>
<circle cx="1130" cy="578" r="6" class="c0"/>
<circle cx="1194" cy="562" r="6" class="c0"/>
<circle cx="1202" cy="620" r="6" class="c0"/>
<circle cx="1206" cy="850" r="6" class="c0"/>
<circle cx="840" cy="1060" r="6" class="c0"/>
<circle cx="1134" cy="858" r="6" class="c0"/>
<circle cx="1164" cy="822" r="6" class="c0"/>
<circle cx="1152" cy="734" r="6" class="c0"/>
<circle cx="1226" cy="898" r="6" class="c0"/>
<circle cx="1378" cy="990" r="6" class="c0"/>
<circle cx="1364" cy="1012" r="6" class="c0"/>
<circle cx="944" cy="948" r="6" class="c0"/>
<circle cx="1182" cy="746" r="6" class="c0"/>
<circle cx="1012" cy="950" r="6" class="c0"/>
<circle cx="1144" cy="1000" r="6" class="c0"/>
<circle cx="1312" cy="952" r="6" class="c0"/>
<circle cx="876" cy="1042" r="6" class="c0"/>
<circle cx="1094" cy="856" r="6" class="c0"/>
<circle cx="1246" cy="882" r="6" class="c0"/>
</svg>
