<?xml version="1.0" encoding="utf-8"?>
<svg xmlns="http://www.w3.org/2000/svg"
     xmlns:xlink="http://www.w3.org/1999/xlink" width="1920" height="1440" >

            <defs>
            <style type="text/css"><![CDATA[
circle {stroke: none;}
.c0 {fill: #FFFFFF;}
]]></style>
            </defs>
<rect x="0" y="0" width="1920" height="1440" fill="black"/>
<circle cx="1070" cy="848" r="14" class="c0"/>
<circle cx="930" cy="900" r="14" class="c0"/>
<circle cx="876" cy="1000" r="12" class="c0"/>
<circle cx="1024" cy="852" r="12" class="c0"/>
<circle cx="772" cy="1008" r="12" class="c0"/>
<circle cx="448" cy="848" r="12" class="c0"/>
<circle cx="1102" cy="992" r="12" class="c0"/>
<circle cx="1216" cy="1030" r="12" class="c0"/>
<circle cx="1328" cy="846" r="12" class="c0"/>
<circle cx="766" cy="784" r="12" class="c0"/>
<circle cx="1004" cy="954" r="12" class="c0"/>
<circle cx="1198" cy="866" r="12" class="c0"/>
<circle cx="524" cy="860" r="12" class="c0"/>
<circle cx="616" cy="774" r="12" class="c0"/>
<circle cx="992" cy="926" r="12" class="c0"/>
<circle cx="1266" cy="876" r="12" class="c0"/>
<circle cx="466" cy="878" r="12" class="c0"/>
<circle cx="760" cy="898" r="12" class="c0"/>
<circle cx="696" cy="932" r="12" class="c0"/>
<circle cx="1008" cy="886" r="12" class="c0"/>
<circle cx="814" cy="876" r="12" class="c0"/>
<circle cx="916" cy="966" r="12" class="c0"/>
<circle cx="904" cy="806" r="12" class="c0"/>
<circle cx="674" cy="944" r="12" class="c0"/>
<circle cx="1144" cy="892" r="12" class="c0"/>
<circle cx="572" cy="812" r="12" class="c0"/>
<circle cx="1216" cy="788" r="12" class="c0"/>
<circle cx="1048" cy="910" r="12" class="c0"/>
<circle cx="1124" cy="402" r="12" class="c0"/>
<circle cx="1224" cy="732" r="12" class="c0"/>
<circle cx="822" cy="796" r="12" class="c0"/>
<circle cx="1152" cy="864" r="12" class="c0"/>
<circle cx="700" cy="856" r="12" class="c0"/>
<circle cx="1470" cy="804" r="12" class="c0"/>
<circle cx="1218" cy="892" r="12" class="c0"/>
<circle cx="994" cy="1022" r="12" class="c0"/>
<circle cx="1158" cy="438" r="12" class="c0"/>
<circle cx="1252" cy="902" r="12" class="c0"/>
<circle cx="460" cy="806" r="12" class="c0"/>
<circle cx="1426" cy="784" r="12" class="c0"/>
<circle cx="1324" cy="778" r="12" class="c0"/>
<circle cx="898" cy="1032" r="12" class="c0"/>
<circle cx="1424" cy="900" r="12" class="c0"/>
<circle cx="700" cy="902" r="12" class="c0"/>
<circle cx="1104" cy="852" r="12" class="c0"/>
<circle cx="870" cy="832" r="12" class="c0"/>
<circle cx="800" cy="1024" r="12" class="c0"/>
<circle cx="824" cy="924" r="12" class="c0"/>
<circle cx="1236" cy="976" r="12" class="c0"/>
<circle cx="906" cy="944" r="12" class="c0"/>
<circle cx="554" cy="910" r="12" class="c0"/>
<circle cx="862" cy="982" r="12" class="c0"/>
<circle cx="608" cy="822" r="12" class="c0"/>
<circle cx="1324" cy="820" r="12" class="c0"/>
<circle cx="736" cy="942" r="12" class="c0"/>
<circle cx="1144" cy="936" r="12" class="c0"/>
<circle cx="548" cy="796" r="12" class="c0"/>
<circle cx="650" cy="816" r="12" class="c0"/>
<circle cx="1148" cy="366" r="12" class="c0"/>
<circle cx="1212" cy="946" r="10" class="c0"/>
<circle cx="778" cy="846" r="10" class="c0"/>
<circle cx="1356" cy="874" r="10" class="c0"/>
<circle cx="724" cy="846" r="10" class="c0"/>
<circle cx="422" cy="840" r="10" class="c0"/>
<circle cx="756" cy="814" r="10" class="c0"/>
<circle cx="848" cy="882" r="10" class="c0"/>
<circle cx="1248" cy="936" r="10" class="c0"/>
<circle cx="806" cy="988" r="10" class="c0"/>
<circle cx="1504" cy="746" r="10" class="c0"/>
<circle cx="1134" cy="984" r="10" class="c0"/>
<circle cx="1292" cy="792" r="10" class="c0"/>
<circle cx="960" cy="972" r="10" class="c0"/>
<circle cx="1192" cy="488" r="10" class="c0"/>
<circle cx="1180" cy="802" r="10" class="c0"/>
<circle cx="844" cy="1032" r="10" class="c0"/>
<circle cx="1324" cy="988" r="10" class="c0"/>
<circle cx="482" cy="910" r="10" class="c0"/>
<circle cx="1330" cy="1016" r="10" class="c0"/>
<circle cx="518" cy="790" r="10" class="c0"/>
<circle cx="1232" cy="1006" r="10" class="c0"/>
<circle cx="1400" cy="912" r="10" class="c0"/>
<circle cx="1160" cy="628" r="10" class="c0"/>
<circle cx="1184" cy="986" r="10" class="c0"/>
<circle cx="1306" cy="920" r="10" class="c0"/>
<circle cx="1160" cy="922" r="10" class="c0"/>
<circle cx="1056" cy="940" r="10" class="c0"/>
<circle cx="812" cy="946" r="10" class="c0"/>
<circle cx="658" cy="770" r="10" class="c0"/>
<circle cx="1254" cy="806" r="10" class="c0"/>
<circle cx="554" cy="870" r="10" class="c0"/>
<circle cx="874" cy="890" r="10" class="c0"/>
<circle cx="1212" cy="978" r="10" class="c0"/>
<circle cx="1174" cy="658" r="10" class="c0"/>
<circle cx="1276" cy="898" r="10" class="c0"/>
<circle cx="1404" cy="802" r="10" class="c0"/>
<circle cx="1104" cy="756" r="10" class="c0"/>
<circle cx="1106" cy="640" r="10" class="c0"/>
<circle cx="786" cy="824" r="10" class="c0"/>
<circle cx="924" cy="824" r="10" class="c0"/>
<circle cx="1098" cy="942" r="10" class="c0"/>
<circle cx="1128" cy="648" r="10" class="c0"/>
<circle cx="486" cy="800" r="10" class="c0"/>
<circle cx="1144" cy="672" r="10" class="c0"/>
<circle cx="1380" cy="928" r="10" class="c0"/>
<circle cx="584" cy="902" r="10" class="c0"/>
<circle cx="1228" cy="664" r="10" class="c0"/>
<circle cx="1078" cy="1000" r="10" class="c0"/>
<circle cx="1044" cy="980" r="10" class="c0"/>
<circle cx="1488" cy="792" r="10" class="c0"/>
<circle cx="1256" cy="834" r="10" class="c0"/>
<circle cx="1098" cy="682" r="10" class="c0"/>
<circle cx="688" cy="968" r="10" class="c0"/>
<circle cx="1158" cy="966" r="10" class="c0"/>
<circle cx="888" cy="864" r="10" class="c0"/>
<circle cx="1290" cy="956" r="10" class="c0"/>
<circle cx="1322" cy="902" r="10" class="c0"/>
<circle cx="922" cy="876" r="10" class="c0"/>
<circle cx="1276" cy="1000" r="10" class="c0"/>
<circle cx="1122" cy="1044" r="10" class="c0"/>
<circle cx="972" cy="904" r="10" class="c0"/>
<circle cx="1166" cy="568" r="10" class="c0"/>
<circle cx="1198" cy="648" r="10" class="c0"/>
<circle cx="1366" cy="1010" r="10" class="c0"/>
<circle cx="1118" cy="668" r="10" class="c0"/>
<circle cx="1158" cy="746" r="10" class="c0"/>
<circle cx="1188" cy="566" r="10" class="c0"/>
<circle cx="1190" cy="964" r="10" class="c0"/>
<circle cx="974" cy="876" r="10" class="c0"/>
<circle cx="864" cy="1042" r="10" class="c0"/>
<circle cx="1356" cy="836" r="10" class="c0"/>
<circle cx="622" cy="884" r="10" class="c0"/>
<circle cx="1134" cy="510" r="10" class="c0"/>
<circle cx="1370" cy="888" r="10" class="c0"/>
<circle cx="660" cy="906" r="10" class="c0"/>
<circle cx="1146" cy="464" r="10" class="c0"/>
<circle cx="1084" cy="872" r="10" class="c0"/>
<circle cx="1046" cy="868" r="10" class="c0"/>
<circle cx="1150" cy="712" r="10" class="c0"/>
<circle cx="1170" cy="732" r="10" class="c0"/>
<circle cx="946" cy="832" r="10" class="c0"/>
<circle cx="898" cy="842" r="10" class="c0"/>
<circle cx="1192" cy="826" r="10" class="c0"/>
<circle cx="556" cy="832" r="10" class="c0"/>
<circle cx="988" cy="994" r="10" class="c0"/>
<circle cx="1186" cy="380" r="10" class="c0"/>
<circle cx="1092" cy="894" r="10" class="c0"/>
<circle cx="1072" cy="714" r="10" class="c0"/>
<circle cx="1120" cy="894" r="10" class="c0"/>
<circle cx="574" cy="842" r="10" class="c0"/>
<circle cx="1504" cy="772" r="10" class="c0"/>
<circle cx="526" cy="764" r="10" class="c0"/>
<circle cx="980" cy="816" r="10" class="c0"/>
<circle cx="1092" cy="656" r="10" class="c0"/>
<circle cx="862" cy="956" r="10" class="c0"/>
<circle cx="674" cy="844" r="10" class="c0"/>
<circle cx="864" cy="922" r="10" class="c0"/>
<circle cx="1244" cy="1026" r="10" class="c0"/>
<circle cx="1354" cy="908" r="10" class="c0"/>
<circle cx="834" cy="1052" r="10" class="c0"/>
<circle cx="1450" cy="780" r="10" class="c0"/>
<circle cx="624" cy="906" r="10" class="c0"/>
<circle cx="824" cy="966" r="10" class="c0"/>
<circle cx="758" cy="1024" r="10" class="c0"/>
<circle cx="1282" cy="854" r="10" class="c0"/>
<circle cx="1208" cy="672" r="10" class="c0"/>
<circle cx="576" cy="772" r="10" class="c0"/>
<circle cx="940" cy="1024" r="10" class="c0"/>
<circle cx="1082" cy="752" r="10" class="c0"/>
<circle cx="1358" cy="790" r="10" class="c0"/>
<circle cx="936" cy="986" r="10" class="c0"/>
<circle cx="678" cy="790" r="10" class="c0"/>
<circle cx="706" cy="994" r="10" class="c0"/>
<circle cx="838" cy="978" r="10" class="c0"/>
<circle cx="956" cy="932" r="10" class="c0"/>
<circle cx="412" cy="818" r="10" class="c0"/>
<circle cx="1130" cy="622" r="10" class="c0"/>
<circle cx="1174" cy="940" r="10" class="c0"/>
<circle cx="1138" cy="592" r="10" class="c0"/>
<circle cx="934" cy="864" r="10" class="c0"/>
<circle cx="1076" cy="1022" r="10" class="c0"/>
<circle cx="1178" cy="450" r="10" class="c0"/>
<circle cx="860" cy="866" r="10" class="c0"/>
<circle cx="824" cy="1016" r="10" class="c0"/>
<circle cx="1164" cy="1030" r="10" class="c0"/>
<circle cx="1142" cy="564" r="10" class="c0"/>
<circle cx="1112" cy="366" r="10" class="c0"/>
<circle cx="1202" cy="584" r="10" class="c0"/>
<circle cx="1016" cy="986" r="10" class="c0"/>
<circle cx="1140" cy="810" r="10" class="c0"/>
<circle cx="1292" cy="982" r="10" class="c0"/>
<circle cx="734" cy="890" r="10" class="c0"/>
<circle cx="1182" cy="606" r="10" class="c0"/>
<circle cx="1186" cy="674" r="10" class="c0"/>
<circle cx="1132" cy="760" r="10" class="c0"/>
<circle cx="1124" cy="476" r="10" class="c0"/>
<circle cx="1084" cy="962" r="10" class="c0"/>
<circle cx="1396" cy="960" r="10" class="c0"/>
<circle cx="1128" cy="454" r="10" class="c0"/>
<circle cx="738" cy="974" r="10" class="c0"/>
<circle cx="1178" cy="896" r="10" class="c0"/>
<circle cx="1228" cy="702" r="10" class="c0"/>
<circle cx="1382" cy="790" r="10" class="c0"/>
<circle cx="1128" cy="378" r="10" class="c0"/>
<circle cx="1130" cy="960" r="10" class="c0"/>
<circle cx="1518" cy="678" r="8" class="c0"/>
<circle cx="1142" cy="414" r="8" class="c0"/>
<circle cx="1446" cy="868" r="8" class="c0"/>
<circle cx="760" cy="982" r="8" class="c0"/>
<circle cx="474" cy="852" r="8" class="c0"/>
<circle cx="1082" cy="776" r="8" class="c0"/>
<circle cx="1402" cy="772" r="8" class="c0"/>
<circle cx="1464" cy="764" r="8" class="c0"/>
<circle cx="1428" cy="756" r="8" class="c0"/>
<circle cx="1028" cy="470" r="8" class="c0"/>
<circle cx="1370" cy="818" r="8" class="c0"/>
<circle cx="1488" cy="720" r="8" class="c0"/>
<circle cx="532" cy="826" r="8" class="c0"/>
<circle cx="786" cy="792" r="8" class="c0"/>
<circle cx="1426" cy="814" r="8" class="c0"/>
<circle cx="1450" cy="818" r="8" class="c0"/>
<circle cx="850" cy="910" r="8" class="c0"/>
<circle cx="1048" cy="738" r="8" class="c0"/>
<circle cx="1394" cy="842" r="8" class="c0"/>
<circle cx="590" cy="832" r="8" class="c0"/>
<circle cx="1046" cy="372" r="8" class="c0"/>
<circle cx="936" cy="926" r="8" class="c0"/>
<circle cx="406" cy="798" r="8" class="c0"/>
<circle cx="1342" cy="970" r="8" class="c0"/>
<circle cx="1030" cy="962" r="8" class="c0"/>
<circle cx="1072" cy="916" r="8" class="c0"/>
<circle cx="680" cy="766" r="8" class="c0"/>
<circle cx="1156" cy="552" r="8" class="c0"/>
<circle cx="1096" cy="1016" r="8" class="c0"/>
<circle cx="1222" cy="766" r="8" class="c0"/>
<circle cx="730" cy="866" r="8" class="c0"/>
<circle cx="634" cy="864" r="8" class="c0"/>
<circle cx="430" cy="778" r="8" class="c0"/>
<circle cx="1130" cy="706" r="8" class="c0"/>
<circle cx="840" cy="1000" r="8" class="c0"/>
<circle cx="1118" cy="834" r="8" class="c0"/>
<circle cx="1062" cy="776" r="8" class="c0"/>
<circle cx="680" cy="892" r="8" class="c0"/>
<circle cx="1168" cy="828" r="8" class="c0"/>
<circle cx="1138" cy="530" r="8" class="c0"/>
<circle cx="1098" cy="716" r="8" class="c0"/>
<circle cx="522" cy="884" r="8" class="c0"/>
<circle cx="1306" cy="1012" r="8" class="c0"/>
<circle cx="638" cy="926" r="8" class="c0"/>
<circle cx="1208" cy="754" r="8" class="c0"/>
<circle cx="648" cy="946" r="8" class="c0"/>
<circle cx="1142" cy="788" r="8" class="c0"/>
<circle cx="1122" cy="938" r="8" class="c0"/>
<circle cx="474" cy="768" r="8" class="c0"/>
<circle cx="1184" cy="506" r="8" class="c0"/>
<circle cx="810" cy="838" r="8" class="c0"/>
<circle cx="730" cy="814" r="8" class="c0"/>
<circle cx="582" cy="872" r="8" class="c0"/>
<circle cx="838" cy="848" r="8" class="c0"/>
<circle cx="778" cy="878" r="8" class="c0"/>
<circle cx="1292" cy="888" r="8" class="c0"/>
<circle cx="1164" cy="494" r="8" class="c0"/>
<circle cx="1278" cy="934" r="8" class="c0"/>
<circle cx="1026" cy="1004" r="8" class="c0"/>
<circle cx="1124" cy="434" r="8" class="c0"/>
<circle cx="1286" cy="818" r="8" class="c0"/>
<circle cx="504" cy="776" r="8" class="c0"/>
<circle cx="790" cy="972" r="8" class="c0"/>
<circle cx="1382" cy="870" r="8" class="c0"/>
<circle cx="716" cy="774" r="8" class="c0"/>
<circle cx="550" cy="768" r="8" class="c0"/>
<circle cx="1414" cy="946" r="8" class="c0"/>
<circle cx="1110" cy="728" r="8" class="c0"/>
<circle cx="1116" cy="870" r="8" class="c0"/>
<circle cx="858" cy="814" r="8" class="c0"/>
<circle cx="1376" cy="972" r="8" class="c0"/>
<circle cx="704" cy="834" r="8" class="c0"/>
<circle cx="1150" cy="612" r="8" class="c0"/>
<circle cx="1040" cy="824" r="8" class="c0"/>
<circle cx="746" cy="858" r="8" class="c0"/>
<circle cx="608" cy="926" r="8" class="c0"/>
<circle cx="608" cy="870" r="8" class="c0"/>
<circle cx="704" cy="784" r="8" class="c0"/>
<circle cx="1200" cy="1002" r="8" class="c0"/>
<circle cx="724" cy="908" r="8" class="c0"/>
<circle cx="674" cy="820" r="8" class="c0"/>
<circle cx="1294" cy="868" r="8" class="c0"/>
<circle cx="1138" cy="1020" r="8" class="c0"/>
<circle cx="1408" cy="828" r="8" class="c0"/>
<circle cx="664" cy="968" r="8" class="c0"/>
<circle cx="1110" cy="700" r="8" class="c0"/>
<circle cx="1042" cy="402" r="8" class="c0"/>
<circle cx="644" cy="890" r="8" class="c0"/>
<circle cx="1220" cy="820" r="8" class="c0"/>
<circle cx="1048" cy="760" r="8" class="c0"/>
<circle cx="1348" cy="810" r="8" class="c0"/>
<circle cx="1490" cy="702" r="8" class="c0"/>
<circle cx="1520" cy="708" r="8" class="c0"/>
<circle cx="846" cy="828" r="8" class="c0"/>
<circle cx="1194" cy="764" r="8" class="c0"/>
<circle cx="1430" cy="928" r="8" class="c0"/>
<circle cx="746" cy="798" r="8" class="c0"/>
<circle cx="660" cy="870" r="8" class="c0"/>
<circle cx="628" cy="844" r="8" class="c0"/>
<circle cx="1034" cy="938" r="8" class="c0"/>
<circle cx="748" cy="1006" r="8" class="c0"/>
<circle cx="1408" cy="880" r="8" class="c0"/>
<circle cx="1206" cy="806" r="8" class="c0"/>
<circle cx="1036" cy="1030" r="8" class="c0"/>
<circle cx="638" cy="784" r="8" class="c0"/>
<circle cx="1160" cy="602" r="8" class="c0"/>
<circle cx="622" cy="800" r="8" class="c0"/>
<circle cx="1168" cy="700" r="8" class="c0"/>
<circle cx="1356" cy="994" r="8" class="c0"/>
<circle cx="812" cy="816" r="8" class="c0"/>
<circle cx="1164" cy="352" r="8" class="c0"/>
<circle cx="1050" cy="1000" r="8" class="c0"/>
<circle cx="986" cy="862" r="8" class="c0"/>
<circle cx="1232" cy="952" r="8" class="c0"/>
<circle cx="1204" cy="908" r="8" class="c0"/>
<circle cx="1184" cy="918" r="8" class="c0"/>
<circle cx="762" cy="926" r="8" class="c0"/>
<circle cx="1102" cy="822" r="8" class="c0"/>
<circle cx="1342" cy="942" r="8" class="c0"/>
<circle cx="1024" cy="508" r="8" class="c0"/>
<circle cx="1224" cy="868" r="8" class="c0"/>
<circle cx="788" cy="902" r="8" class="c0"/>
<circle cx="960" cy="1004" r="8" class="c0"/>
<circle cx="1086" cy="728" r="8" class="c0"/>
<circle cx="1152" cy="646" r="8" class="c0"/>
<circle cx="708" cy="972" r="8" class="c0"/>
<circle cx="1288" cy="1014" r="8" class="c0"/>
<circle cx="1154" cy="482" r="8" class="c0"/>
<circle cx="1374" cy="852" r="8" class="c0"/>
<circle cx="1196" cy="722" r="8" class="c0"/>
<circle cx="1466" cy="858" r="8" class="c0"/>
<circle cx="1190" cy="464" r="8" class="c0"/>
<circle cx="894" cy="972" r="8" class="c0"/>
<circle cx="1076" cy="936" r="8" class="c0"/>
<circle cx="1276" cy="808" r="8" class="c0"/>
<circle cx="778" cy="912" r="8" class="c0"/>
<circle cx="842" cy="954" r="8" class="c0"/>
<circle cx="1156" cy="532" r="8" class="c0"/>
<circle cx="1056" cy="888" r="8" class="c0"/>
<circle cx="870" cy="804" r="8" class="c0"/>
<circle cx="796" cy="926" r="8" class="c0"/>
<circle cx="952" cy="878" r="8" class="c0"/>
<circle cx="1096" cy="796" r="8" class="c0"/>
<circle cx="434" cy="804" r="8" class="c0"/>
<circle cx="514" cy="836" r="8" class="c0"/>
<circle cx="1468" cy="744" r="8" class="c0"/>
<circle cx="1384" cy="828" r="8" class="c0"/>
<circle cx="918" cy="1008" r="8" class="c0"/>
<circle cx="1190" cy="1034" r="8" class="c0"/>
<circle cx="758" cy="946" r="8" class="c0"/>
<circle cx="1258" cy="962" r="8" class="c0"/>
<circle cx="1198" cy="532" r="8" class="c0"/>
<circle cx="1064" cy="968" r="8" class="c0"/>
<circle cx="1316" cy="950" r="8" class="c0"/>
<circle cx="1228" cy="910" r="8" class="c0"/>
<circle cx="770" cy="972" r="8" class="c0"/>
<circle cx="1244" cy="712" r="8" class="c0"/>
<circle cx="494" cy="824" r="8" class="c0"/>
<circle cx="1172" cy="776" r="8" class="c0"/>
<circle cx="1070" cy="822" r="8" class="c0"/>
<circle cx="1150" cy="770" r="8" class="c0"/>
<circle cx="1330" cy="928" r="8" class="c0"/>
<circle cx="1450" cy="848" r="8" class="c0"/>
<circle cx="962" cy="1024" r="8" class="c0"/>
<circle cx="822" cy="896" r="8" class="c0"/>
<circle cx="594" cy="852" r="8" class="c0"/>
<circle cx="1252" cy="1008" r="8" class="c0"/>
<circle cx="940" cy="952" r="8" class="c0"/>
<circle cx="1358" cy="958" r="8" class="c0"/>
<circle cx="1268" cy="920" r="8" class="c0"/>
<circle cx="446" cy="824" r="8" class="c0"/>
<circle cx="1102" cy="776" r="8" class="c0"/>
<circle cx="904" cy="984" r="8" class="c0"/>
<circle cx="1030" cy="920" r="8" class="c0"/>
<circle cx="976" cy="840" r="8" class="c0"/>
<circle cx="1156" cy="998" r="8" class="c0"/>
<circle cx="1204" cy="624" r="8" class="c0"/>
<circle cx="784" cy="1036" r="8" class="c0"/>
<circle cx="1138" cy="850" r="8" class="c0"/>
<circle cx="890" cy="928" r="8" class="c0"/>
<circle cx="496" cy="896" r="8" class="c0"/>
<circle cx="1128" cy="918" r="8" class="c0"/>
<circle cx="1372" cy="768" r="8" class="c0"/>
<circle cx="1048" cy="718" r="8" class="c0"/>
<circle cx="996" cy="976" r="8" class="c0"/>
<circle cx="1030" cy="888" r="8" class="c0"/>
<circle cx="1166" cy="384" r="8" class="c0"/>
<circle cx="1100" cy="920" r="8" class="c0"/>
<circle cx="750" cy="838" r="8" class="c0"/>
<circle cx="920" cy="1034" r="8" class="c0"/>
<circle cx="402" cy="842" r="8" class="c0"/>
<circle cx="1312" cy="870" r="8" class="c0"/>
<circle cx="812" cy="1054" r="8" class="c0"/>
<circle cx="1348" cy="856" r="8" class="c0"/>
<circle cx="1436" cy="804" r="8" class="c0"/>
<circle cx="996" cy="848" r="8" class="c0"/>
<circle cx="1482" cy="772" r="8" class="c0"/>
<circle cx="1016" cy="1020" r="8" class="c0"/>
<circle cx="736" cy="918" r="8" class="c0"/>
<circle cx="542" cy="894" r="8" class="c0"/>
<circle cx="590" cy="924" r="8" class="c0"/>
<circle cx="1142" cy="392" r="8" class="c0"/>
<circle cx="938" cy="810" r="8" class="c0"/>
<circle cx="452" cy="780" r="8" class="c0"/>
<circle cx="1162" cy="512" r="8" class="c0"/>
<circle cx="1412" cy="852" r="8" class="c0"/>
<circle cx="1250" cy="858" r="8" class="c0"/>
<circle cx="1240" cy="818" r="8" class="c0"/>
<circle cx="1208" cy="710" r="8" class="c0"/>
<circle cx="1040" cy="420" r="8" class="c0"/>
<circle cx="1178" cy="636" r="8" class="c0"/>
<circle cx="928" cy="942" r="8" class="c0"/>
<circle cx="904" cy="884" r="8" class="c0"/>
<circle cx="704" cy="954" r="8" class="c0"/>
<circle cx="1124" cy="742" r="8" class="c0"/>
<circle cx="506" cy="812" r="8" class="c0"/>
<circle cx="1216" cy="848" r="8" class="c0"/>
<circle cx="1026" cy="528" r="8" class="c0"/>
<circle cx="1168" cy="402" r="8" class="c0"/>
<circle cx="1128" cy="822" r="8" class="c0"/>
<circle cx="914" cy="922" r="8" class="c0"/>
<circle cx="680" cy="916" r="8" class="c0"/>
<circle cx="1204" cy="512" r="8" class="c0"/>
<circle cx="1086" cy="830" r="8" class="c0"/>
<circle cx="974" cy="1014" r="8" class="c0"/>
<circle cx="1036" cy="444" r="8" class="c0"/>
<circle cx="1004" cy="826" r="8" class="c0"/>
<circle cx="1060" cy="990" r="8" class="c0"/>
<circle cx="840" cy="936" r="8" class="c0"/>
<circle cx="1230" cy="632" r="8" class="c0"/>
<circle cx="1108" cy="960" r="8" class="c0"/>
<circle cx="648" cy="852" r="8" class="c0"/>
<circle cx="1272" cy="978" r="8" class="c0"/>
<circle cx="1110" cy="418" r="8" class="c0"/>
<circle cx="992" cy="902" r="8" class="c0"/>
<circle cx="1192" cy="782" r="8" class="c0"/>
<circle cx="688" cy="808" r="8" class="c0"/>
<circle cx="390" cy="808" r="8" class="c0"/>
<circle cx="682" cy="866" r="8" class="c0"/>
<circle cx="1240" cy="886" r="8" class="c0"/>
<circle cx="544" cy="850" r="8" class="c0"/>
<circle cx="1182" cy="426" r="8" class="c0"/>
<circle cx="1378" cy="952" r="8" class="c0"/>
<circle cx="1360" cy="938" r="8" class="c0"/>
<circle cx="1074" cy="1042" r="8" class="c0"/>
<circle cx="600" cy="792" r="8" class="c0"/>
<circle cx="1274" cy="1026" r="8" class="c0"/>
<circle cx="1006" cy="1004" r="8" class="c0"/>
<circle cx="778" cy="946" r="8" class="c0"/>
<circle cx="1468" cy="838" r="8" class="c0"/>
<circle cx="1176" cy="1012" r="8" class="c0"/>
<circle cx="1116" cy="808" r="8" class="c0"/>
<circle cx="878" cy="946" r="8" class="c0"/>
<circle cx="586" cy="756" r="8" class="c0"/>
<circle cx="734" cy="780" r="8" class="c0"/>
<circle cx="1446" cy="760" r="8" class="c0"/>
<circle cx="1124" cy="1010" r="8" class="c0"/>
<circle cx="496" cy="866" r="8" class="c0"/>
<circle cx="1426" cy="840" r="8" class="c0"/>
<circle cx="1178" cy="534" r="8" class="c0"/>
<circle cx="1066" cy="898" r="8" class="c0"/>
<circle cx="1350" cy="770" r="8" class="c0"/>
<circle cx="1520" cy="762" r="8" class="c0"/>
<circle cx="1520" cy="658" r="8" class="c0"/>
<circle cx="794" cy="864" r="8" class="c0"/>
<circle cx="878" cy="1024" r="8" class="c0"/>
<circle cx="608" cy="754" r="8" class="c0"/>
<circle cx="982" cy="964" r="8" class="c0"/>
<circle cx="1276" cy="828" r="8" class="c0"/>
<circle cx="408" cy="780" r="8" class="c0"/>
<circle cx="1072" cy="682" r="8" class="c0"/>
<circle cx="1216" cy="926" r="8" class="c0"/>
<circle cx="1104" cy="392" r="8" class="c0"/>
<circle cx="1174" cy="850" r="8" class="c0"/>
<circle cx="1200" cy="398" r="8" class="c0"/>
<circle cx="910" cy="858" r="8" class="c0"/>
<circle cx="1096" cy="1040" r="8" class="c0"/>
<circle cx="708" cy="882" r="8" class="c0"/>
<circle cx="1506" cy="688" r="8" class="c0"/>
<circle cx="1206" cy="604" r="8" class="c0"/>
<circle cx="1010" cy="908" r="8" class="c0"/>
<circle cx="1404" cy="936" r="8" class="c0"/>
<circle cx="960" cy="862" r="8" class="c0"/>
<circle cx="822" cy="856" r="8" class="c0"/>
<circle cx="726" cy="1006" r="8" class="c0"/>
<circle cx="596" cy="884" r="8" class="c0"/>
<circle cx="606" cy="894" r="8" class="c0"/>
<circle cx="1136" cy="724" r="8" class="c0"/>
<circle cx="956" cy="808" r="8" class="c0"/>
<circle cx="380" cy="782" r="8" class="c0"/>
<circle cx="1198" cy="928" r="8" class="c0"/>
<circle cx="424" cy="862" r="8" class="c0"/>
<circle cx="1180" cy="876" r="8" class="c0"/>
<circle cx="1296" cy="840" r="8" class="c0"/>
<circle cx="794" cy="1046" r="8" class="c0"/>
<circle cx="1266" cy="792" r="8" class="c0"/>
<circle cx="1154" cy="1048" r="8" class="c0"/>
<circle cx="1398" cy="892" r="8" class="c0"/>
<circle cx="1014" cy="932" r="8" class="c0"/>
<circle cx="1268" cy="946" r="8" class="c0"/>
<circle cx="1334" cy="890" r="8" class="c0"/>
<circle cx="670" cy="880" r="8" class="c0"/>
<circle cx="1092" cy="408" r="8" class="c0"/>
<circle cx="570" cy="930" r="8" class="c0"/>
<circle cx="834" cy="814" r="8" class="c0"/>
<circle cx="1030" cy="490" r="8" class="c0"/>
<circle cx="1234" cy="776" r="8" class="c0"/>
<circle cx="474" cy="824" r="8" class="c0"/>
<circle cx="526" cy="914" r="8" class="c0"/>
<circle cx="1120" cy="774" r="8" class="c0"/>
<circle cx="922" cy="846" r="8" class="c0"/>
<circle cx="796" cy="808" r="8" class="c0"/>
<circle cx="1154" cy="840" r="8" class="c0"/>
<circle cx="1446" cy="890" r="8" class="c0"/>
<circle cx="1194" cy="698" r="8" class="c0"/>
<circle cx="570" cy="884" r="8" class="c0"/>
<circle cx="1296" cy="1030" r="8" class="c0"/>
<circle cx="862" cy="1016" r="8" class="c0"/>
<circle cx="900" cy="910" r="8" class="c0"/>
<circle cx="1192" cy="744" r="8" class="c0"/>
<circle cx="1076" cy="980" r="8" class="c0"/>
<circle cx="1180" cy="1044" r="8" class="c0"/>
<circle cx="722" cy="928" r="8" class="c0"/>
<circle cx="1062" cy="692" r="8" class="c0"/>
<circle cx="712" cy="918" r="8" class="c0"/>
<circle cx="1382" cy="904" r="8" class="c0"/>
<circle cx="1314" cy="1028" r="8" class="c0"/>
<circle cx="1172" cy="588" r="8" class="c0"/>
<circle cx="748" cy="958" r="8" class="c0"/>
<circle cx="760" cy="870" r="8" class="c0"/>
<circle cx="636" cy="762" r="8" class="c0"/>
<circle cx="462" cy="902" r="8" class="c0"/>
<circle cx="1338" cy="800" r="8" class="c0"/>
<circle cx="1232" cy="754" r="8" class="c0"/>
<circle cx="1118" cy="974" r="8" class="c0"/>
<circle cx="878" cy="910" r="8" class="c0"/>
<circle cx="1068" cy="734" r="8" class="c0"/>
<circle cx="506" cy="908" r="8" class="c0"/>
<circle cx="800" cy="890" r="8" class="c0"/>
<circle cx="1440" cy="912" r="8" class="c0"/>
<circle cx="1128" cy="798" r="8" class="c0"/>
<circle cx="1182" cy="354" r="8" class="c0"/>
<circle cx="790" cy="998" r="8" class="c0"/>
<circle cx="1428" cy="864" r="8" class="c0"/>
<circle cx="1378" cy="998" r="8" class="c0"/>
<circle cx="970" cy="946" r="8" class="c0"/>
<circle cx="1478" cy="826" r="8" class="c0"/>
<circle cx="1046" cy="846" r="8" class="c0"/>
<circle cx="1224" cy="516" r="8" class="c0"/>
<circle cx="1006" cy="862" r="8" class="c0"/>
<circle cx="1314" cy="800" r="8" class="c0"/>
<circle cx="1534" cy="670" r="8" class="c0"/>
<circle cx="780" cy="988" r="8" class="c0"/>
<circle cx="1228" cy="804" r="8" class="c0"/>
<circle cx="1056" cy="832" r="8" class="c0"/>
<circle cx="1294" cy="908" r="6" class="c0"/>
<circle cx="1520" cy="780" r="6" class="c0"/>
<circle cx="1232" cy="854" r="6" class="c0"/>
<circle cx="1020" cy="554" r="6" class="c0"/>
<circle cx="1160" cy="416" r="6" class="c0"/>
<circle cx="618" cy="858" r="6" class="c0"/>
<circle cx="826" cy="1034" r="6" class="c0"/>
<circle cx="574" cy="790" r="6" class="c0"/>
<circle cx="1332" cy="866" r="6" class="c0"/>
<circle cx="1132" cy="356" r="6" class="c0"/>
<circle cx="448" cy="892" r="6" class="c0"/>
<circle cx="1174" cy="760" r="6" class="c0"/>
<circle cx="530" cy="808" r="6" class="c0"/>
<circle cx="872" cy="1058" r="6" class="c0"/>
<circle cx="1146" cy="912" r="6" class="c0"/>
<circle cx="834" cy="908" r="6" class="c0"/>
<circle cx="714" cy="796" r="6" class="c0"/>
<circle cx="1106" cy="884" r="6" class="c0"/>
<circle cx="1400" cy="866" r="6" class="c0"/>
<circle cx="978" cy="980" r="6" class="c0"/>
<circle cx="560" cy="758" r="6" class="c0"/>
<circle cx="1062" cy="378" r="6" class="c0"/>
<circle cx="1028" cy="546" r="6" class="c0"/>
<circle cx="1018" cy="682" r="6" class="c0"/>
<circle cx="1504" cy="712" r="6" class="c0"/>
<circle cx="874" cy="852" r="6" class="c0"/>
<circle cx="688" cy="830" r="6" class="c0"/>
<circle cx="1218" cy="616" r="6" class="c0"/>
<circle cx="1486" cy="748" r="6" class="c0"/>
<circle cx="1026" cy="592" r="6" class="c0"/>
<circle cx="722" cy="964" r="6" class="c0"/>
<circle cx="1536" cy="688" r="6" class="c0"/>
<circle cx="1304" cy="826" r="6" class="c0"/>
<circle cx="630" cy="826" r="6" class="c0"/>
<circle cx="952" cy="902" r="6" class="c0"/>
<circle cx="718" cy="826" r="6" class="c0"/>
<circle cx="1392" cy="858" r="6" class="c0"/>
<circle cx="1064" cy="750" r="6" class="c0"/>
<circle cx="1348" cy="1022" r="6" class="c0"/>
<circle cx="1264" cy="850" r="6" class="c0"/>
<circle cx="1308" cy="854" r="6" class="c0"/>
<circle cx="1138" cy="692" r="6" class="c0"/>
<circle cx="1216" cy="998" r="6" class="c0"/>
<circle cx="1202" cy="1046" r="6" class="c0"/>
<circle cx="1164" cy="472" r="6" class="c0"/>
<circle cx="724" cy="988" r="6" class="c0"/>
<circle cx="844" cy="804" r="6" class="c0"/>
<circle cx="1054" cy="1028" r="6" class="c0"/>
<circle cx="562" cy="782" r="6" class="c0"/>
<circle cx="860" cy="792" r="6" class="c0"/>
<circle cx="1294" cy="936" r="6" class="c0"/>
<circle cx="1186" cy="548" r="6" class="c0"/>
<circle cx="540" cy="924" r="6" class="c0"/>
<circle cx="1456" cy="878" r="6" class="c0"/>
<circle cx="1160" cy="680" r="6" class="c0"/>
<circle cx="480" cy="892" r="6" class="c0"/>
<circle cx="1440" cy="828" r="6" class="c0"/>
<circle cx="1024" cy="640" r="6" class="c0"/>
<circle cx="654" cy="924" r="6" class="c0"/>
<circle cx="750" cy="882" r="6" class="c0"/>
<circle cx="1502" cy="668" r="6" class="c0"/>
<circle cx="710" cy="810" r="6" class="c0"/>
<circle cx="1016" cy="814" r="6" class="c0"/>
<circle cx="1024" cy="620" r="6" class="c0"/>
<circle cx="1260" cy="992" r="6" class="c0"/>
<circle cx="1196" cy="886" r="6" class="c0"/>
<circle cx="1226" cy="682" r="6" class="c0"/>
<circle cx="910" cy="1046" r="6" class="c0"/>
<circle cx="488" cy="782" r="6" class="c0"/>
<circle cx="486" cy="880" r="6" class="c0"/>
<circle cx="1490" cy="810" r="6" class="c0"/>
<circle cx="666" cy="802" r="6" class="c0"/>
<circle cx="392" cy="826" r="6" class="c0"/>
<circle cx="826" cy="830" r="6" class="c0"/>
<circle cx="596" cy="776" r="6" class="c0"/>
<circle cx="956" cy="954" r="6" class="c0"/>
<circle cx="1020" cy="578" r="6" class="c0"/>
<circle cx="856" cy="844" r="6" class="c0"/>
<circle cx="422" cy="792" r="6" class="c0"/>
<circle cx="1190" cy="408" r="6" class="c0"/>
<circle cx="896" cy="1052" r="6" class="c0"/>
<circle cx="1140" cy="744" r="6" class="c0"/>
<circle cx="486" cy="842" r="6" class="c0"/>
<circle cx="1234" cy="1042" r="6" class="c0"/>
<circle cx="1312" cy="836" r="6" class="c0"/>
<circle cx="1314" cy="966" r="6" class="c0"/>
<circle cx="504" cy="846" r="6" class="c0"/>
<circle cx="1166" cy="988" r="6" class="c0"/>
<circle cx="752" cy="772" r="6" class="c0"/>
<circle cx="1034" cy="750" r="6" class="c0"/>
<circle cx="900" cy="1000" r="6" class="c0"/>
<circle cx="806" cy="786" r="6" class="c0"/>
<circle cx="624" cy="938" r="6" class="c0"/>
<circle cx="1084" cy="694" r="6" class="c0"/>
<circle cx="1520" cy="728" r="6" class="c0"/>
<circle cx="654" cy="794" r="6" class="c0"/>
<circle cx="806" cy="854" r="6" class="c0"/>
<circle cx="546" cy="816" r="6" class="c0"/>
<circle cx="1042" cy="354" r="6" class="c0"/>
<circle cx="1132" cy="492" r="6" class="c0"/>
<circle cx="892" cy="894" r="6" class="c0"/>
<circle cx="806" cy="968" r="6" class="c0"/>
<circle cx="440" cy="876" r="6" class="c0"/>
<circle cx="1392" cy="982" r="6" class="c0"/>
<circle cx="1322" cy="880" r="6" class="c0"/>
<circle cx="1434" cy="880" r="6" class="c0"/>
<circle cx="1140" cy="430" r="6" class="c0"/>
<circle cx="1468" cy="782" r="6" class="c0"/>
<circle cx="1100" cy="738" r="6" class="c0"/>
<circle cx="464" cy="834" r="6" class="c0"/>
<circle cx="552" cy="930" r="6" class="c0"/>
<circle cx="1110" cy="614" r="6" class="c0"/>
<circle cx="1142" cy="1038" r="6" class="c0"/>
<circle cx="1080" cy="792" r="6" class="c0"/>
<circle cx="1244" cy="692" r="6" class="c0"/>
<circle cx="1084" cy="672" r="6" class="c0"/>
<circle cx="1302" cy="898" r="6" class="c0"/>
<circle cx="1206" cy="836" r="6" class="c0"/>
<circle cx="608" cy="844" r="6" class="c0"/>
<circle cx="1140" cy="1002" r="6" class="c0"/>
<circle cx="1172" cy="368" r="6" class="c0"/>
<circle cx="1036" cy="770" r="6" class="c0"/>
<circle cx="946" cy="916" r="6" class="c0"/>
<circle cx="794" cy="954" r="6" class="c0"/>
<circle cx="1240" cy="678" r="6" class="c0"/>
<circle cx="472" cy="784" r="6" class="c0"/>
<circle cx="974" cy="1034" r="6" class="c0"/>
<circle cx="970" cy="922" r="6" class="c0"/>
<circle cx="964" cy="828" r="6" class="c0"/>
<circle cx="1164" cy="886" r="6" class="c0"/>
<circle cx="1020" cy="872" r="6" class="c0"/>
<circle cx="1120" cy="690" r="6" class="c0"/>
<circle cx="952" cy="1040" r="6" class="c0"/>
<circle cx="1400" cy="756" r="6" class="c0"/>
<circle cx="1152" cy="578" r="6" class="c0"/>
<circle cx="1198" cy="368" r="6" class="c0"/>
<circle cx="808" cy="910" r="6" class="c0"/>
<circle cx="1046" cy="958" r="6" class="c0"/>
<circle cx="1202" cy="454" r="6" class="c0"/>
<circle cx="1202" cy="1018" r="6" class="c0"/>
<circle cx="854" cy="1060" r="6" class="c0"/>
<circle cx="836" cy="866" r="6" class="c0"/>
<circle cx="1214" cy="692" r="6" class="c0"/>
<circle cx="936" cy="1042" r="6" class="c0"/>
<circle cx="642" cy="910" r="6" class="c0"/>
<circle cx="774" cy="812" r="6" class="c0"/>
<circle cx="766" cy="832" r="6" class="c0"/>
<circle cx="640" cy="834" r="6" class="c0"/>
<circle cx="884" cy="814" r="6" class="c0"/>
<circle cx="492" cy="766" r="6" class="c0"/>
<circle cx="1214" cy="500" r="6" class="c0"/>
<circle cx="1176" cy="478" r="6" class="c0"/>
<circle cx="1162" cy="800" r="6" class="c0"/>
<circle cx="378" cy="798" r="6" class="c0"/>
<circle cx="536" cy="874" r="6" class="c0"/>
<circle cx="1302" cy="996" r="6" class="c0"/>
<circle cx="1132" cy="868" r="6" class="c0"/>
<circle cx="1302" cy="778" r="6" class="c0"/>
<circle cx="1266" cy="818" r="6" class="c0"/>
<circle cx="878" cy="968" r="6" class="c0"/>
<circle cx="1154" cy="692" r="6" class="c0"/>
<circle cx="924" cy="802" r="6" class="c0"/>
<circle cx="886" cy="796" r="6" class="c0"/>
<circle cx="1120" cy="602" r="6" class="c0"/>
<circle cx="626" cy="750" r="6" class="c0"/>
<circle cx="1190" cy="844" r="6" class="c0"/>
<circle cx="1300" cy="808" r="6" class="c0"/>
<circle cx="738" cy="1020" r="6" class="c0"/>
<circle cx="1184" cy="708" r="6" class="c0"/>
<circle cx="1478" cy="734" r="6" class="c0"/>
<circle cx="1112" cy="792" r="6" class="c0"/>
<circle cx="540" cy="778" r="6" class="c0"/>
<circle cx="738" cy="996" r="6" class="c0"/>
<circle cx="1050" cy="702" r="6" class="c0"/>
<circle cx="660" cy="832" r="6" class="c0"/>
<circle cx="592" cy="806" r="6" class="c0"/>
<circle cx="1214" cy="638" r="6" class="c0"/>
<circle cx="700" cy="768" r="6" class="c0"/>
<circle cx="1140" cy="546" r="6" class="c0"/>
<circle cx="946" cy="852" r="6" class="c0"/>
<circle cx="768" cy="956" r="6" class="c0"/>
<circle cx="1232" cy="928" r="6" class="c0"/>
<circle cx="958" cy="844" r="6" class="c0"/>
<circle cx="1228" cy="836" r="6" class="c0"/>
<circle cx="1074" cy="392" r="6" class="c0"/>
<circle cx="1108" cy="1026" r="6" class="c0"/>
<circle cx="824" cy="996" r="6" class="c0"/>
<circle cx="1044" cy="778" r="6" class="c0"/>
<circle cx="942" cy="1006" r="6" class="c0"/>
<circle cx="1148" cy="498" r="6" class="c0"/>
<circle cx="1178" cy="690" r="6" class="c0"/>
<circle cx="1064" cy="870" r="6" class="c0"/>
<circle cx="1328" cy="962" r="6" class="c0"/>
<circle cx="1064" cy="1010" r="6" class="c0"/>
<circle cx="1152" cy="824" r="6" class="c0"/>
<circle cx="1158" cy="784" r="6" class="c0"/>
<circle cx="1388" cy="764" r="6" class="c0"/>
<circle cx="882" cy="1046" r="6" class="c0"/>
<circle cx="1162" cy="904" r="6" class="c0"/>
<circle cx="1346" cy="1008" r="6" class="c0"/>
<circle cx="690" cy="776" r="6" class="c0"/>
<circle cx="890" cy="1014" r="6" class="c0"/>
<circle cx="1346" cy="926" r="6" class="c0"/>
<circle cx="1052" cy="390" r="6" class="c0"/>
<circle cx="602" cy="910" r="6" class="c0"/>
<circle cx="1220" cy="962" r="6" class="c0"/>
<circle cx="1188" cy="626" r="6" class="c0"/>
<circle cx="1024" cy="828" r="6" class="c0"/>
<circle cx="510" cy="874" r="6" class="c0"/>
<circle cx="686" cy="986" r="6" class="c0"/>
<circle cx="564" cy="856" r="6" class="c0"/>
<circle cx="1360" cy="976" r="6" class="c0"/>
<circle cx="968" cy="990" r="6" class="c0"/>
<circle cx="1018" cy="664" r="6" class="c0"/>
<circle cx="1414" cy="924" r="6" class="c0"/>
<circle cx="692" cy="876" r="6" class="c0"/>
<circle cx="842" cy="790" r="6" class="c0"/>
<circle cx="1478" cy="756" r="6" class="c0"/>
<circle cx="1412" cy="762" r="6" class="c0"/>
<circle cx="1264" cy="1036" r="6" class="c0"/>
<circle cx="702" cy="818" r="6" class="c0"/>
<circle cx="780" cy="930" r="6" class="c0"/>
<circle cx="1192" cy="944" r="6" class="c0"/>
<circle cx="1040" cy="1012" r="6" class="c0"/>
<circle cx="960" cy="892" r="6" class="c0"/>
<circle cx="1038" cy="386" r="6" class="c0"/>
<circle cx="1386" cy="808" r="6" class="c0"/>
<circle cx="670" cy="756" r="6" class="c0"/>
<circle cx="738" cy="828" r="6" class="c0"/>
<circle cx="890" cy="956" r="6" class="c0"/>
<circle cx="1244" cy="788" r="6" class="c0"/>
<circle cx="1506" cy="726" r="6" class="c0"/>
<circle cx="938" cy="968" r="6" class="c0"/>
<circle cx="1310" cy="888" r="6" class="c0"/>
<circle cx="1288" cy="922" r="6" class="c0"/>
<circle cx="1216" cy="594" r="6" class="c0"/>
<circle cx="1188" cy="522" r="6" class="c0"/>
<circle cx="1026" cy="904" r="6" class="c0"/>
<circle cx="1068" cy="952" r="6" class="c0"/>
<circle cx="762" cy="854" r="6" class="c0"/>
<circle cx="1140" cy="832" r="6" class="c0"/>
<circle cx="1056" cy="362" r="6" class="c0"/>
<circle cx="430" cy="822" r="6" class="c0"/>
<circle cx="1026" cy="566" r="6" class="c0"/>
<circle cx="1244" cy="994" r="6" class="c0"/>
<circle cx="1204" cy="382" r="6" class="c0"/>
<circle cx="714" cy="942" r="6" class="c0"/>
<circle cx="1394" cy="818" r="6" class="c0"/>
<circle cx="1106" cy="434" r="6" class="c0"/>
<circle cx="1106" cy="904" r="6" class="c0"/>
<circle cx="1240" cy="842" r="6" class="c0"/>
<circle cx="892" cy="822" r="6" class="c0"/>
<circle cx="508" cy="760" r="6" class="c0"/>
<circle cx="1120" cy="350" r="6" class="c0"/>
<circle cx="1240" cy="920" r="6" class="c0"/>
<circle cx="1224" cy="990" r="6" class="c0"/>
<circle cx="1338" cy="998" r="6" class="c0"/>
<circle cx="728" cy="798" r="6" class="c0"/>
<circle cx="1152" cy="404" r="6" class="c0"/>
<circle cx="906" cy="826" r="6" class="c0"/>
<circle cx="1492" cy="760" r="6" class="c0"/>
<circle cx="1142" cy="634" r="6" class="c0"/>
<circle cx="1154" cy="1014" r="6" class="c0"/>
<circle cx="1200" cy="552" r="6" class="c0"/>
<circle cx="1524" cy="746" r="6" class="c0"/>
<circle cx="884" cy="982" r="6" class="c0"/>
<circle cx="442" cy="768" r="6" class="c0"/>
<circle cx="1138" cy="1052" r="6" class="c0"/>
<circle cx="856" cy="938" r="6" class="c0"/>
<circle cx="1098" cy="972" r="6" class="c0"/>
<circle cx="1130" cy="682" r="6" class="c0"/>
<circle cx="648" cy="752" r="6" class="c0"/>
<circle cx="522" cy="816" r="6" class="c0"/>
<circle cx="450" cy="868" r="6" class="c0"/>
<circle cx="674" cy="978" r="6" class="c0"/>
<circle cx="584" cy="798" r="6" class="c0"/>
<circle cx="996" cy="872" r="6" class="c0"/>
<circle cx="1014" cy="836" r="6" class="c0"/>
<circle cx="1120" cy="716" r="6" class="c0"/>
<circle cx="1054" cy="816" r="6" class="c0"/>
<circle cx="1336" cy="912" r="6" class="c0"/>
<circle cx="1076" cy="664" r="6" class="c0"/>
<circle cx="1222" cy="646" r="6" class="c0"/>
<circle cx="640" cy="800" r="6" class="c0"/>
<circle cx="444" cy="794" r="6" class="c0"/>
</svg>
