<?xml version="1.0" encoding="utf-8"?>
<svg xmlns="http://www.w3.org/2000/svg"
     xmlns:xlink="http://www.w3.org/1999/xlink" width="1920" height="1440" >

            <defs>
            <style type="text/css"><![CDATA[
circle {stroke: none;}
.c0 {fill: #FFFFFF;}
]]></style>
            </defs>
<rect x="0" y="0" width="1920" height="1440" fill="black"/>
<circle cx="564" cy="770" r="14" class="c0"/>
<circle cx="1204" cy="766" r="14" class="c0"/>
<circle cx="1256" cy="846" r="14" class="c0"/>
<circle cx="766" cy="1000" r="14" class="c0"/>
<circle cx="1214" cy="798" r="14" class="c0"/>
<circle cx="1120" cy="706" r="12" class="c0"/>
<circle cx="952" cy="1016" r="12" class="c0"/>
<circle cx="1360" cy="938" r="12" class="c0"/>
<circle cx="982" cy="854" r="12" class="c0"/>
<circle cx="632" cy="970" r="12" class="c0"/>
<circle cx="830" cy="1028" r="12" class="c0"/>
<circle cx="788" cy="914" r="12" class="c0"/>
<circle cx="926" cy="934" r="12" class="c0"/>
<circle cx="518" cy="832" r="12" class="c0"/>
<circle cx="580" cy="844" r="12" class="c0"/>
<circle cx="1020" cy="930" r="12" class="c0"/>
<circle cx="378" cy="796" r="12" class="c0"/>
<circle cx="1200" cy="846" r="12" class="c0"/>
<circle cx="916" cy="974" r="12" class="c0"/>
<circle cx="1212" cy="938" r="12" class="c0"/>
<circle cx="1430" cy="870" r="12" class="c0"/>
<circle cx="828" cy="980" r="12" class="c0"/>
<circle cx="1032" cy="830" r="12" class="c0"/>
<circle cx="1420" cy="806" r="12" class="c0"/>
<circle cx="856" cy="822" r="12" class="c0"/>
<circle cx="694" cy="1016" r="12" class="c0"/>
<circle cx="1450" cy="766" r="12" class="c0"/>
<circle cx="732" cy="798" r="12" class="c0"/>
<circle cx="1242" cy="942" r="12" class="c0"/>
<circle cx="1304" cy="838" r="12" class="c0"/>
<circle cx="1272" cy="862" r="12" class="c0"/>
<circle cx="1462" cy="888" r="12" class="c0"/>
<circle cx="1132" cy="884" r="12" class="c0"/>
<circle cx="902" cy="1024" r="12" class="c0"/>
<circle cx="1340" cy="786" r="12" class="c0"/>
<circle cx="1078" cy="1016" r="12" class="c0"/>
<circle cx="1266" cy="1026" r="12" class="c0"/>
<circle cx="640" cy="872" r="12" class="c0"/>
<circle cx="1526" cy="706" r="12" class="c0"/>
<circle cx="616" cy="864" r="12" class="c0"/>
<circle cx="1070" cy="980" r="12" class="c0"/>
<circle cx="484" cy="914" r="12" class="c0"/>
<circle cx="976" cy="822" r="12" class="c0"/>
<circle cx="592" cy="814" r="12" class="c0"/>
<circle cx="1180" cy="502" r="12" class="c0"/>
<circle cx="1308" cy="894" r="12" class="c0"/>
<circle cx="1374" cy="834" r="12" class="c0"/>
<circle cx="1202" cy="708" r="12" class="c0"/>
<circle cx="872" cy="930" r="12" class="c0"/>
<circle cx="516" cy="894" r="12" class="c0"/>
<circle cx="1100" cy="400" r="12" class="c0"/>
<circle cx="1342" cy="848" r="12" class="c0"/>
<circle cx="1158" cy="686" r="12" class="c0"/>
<circle cx="1178" cy="902" r="12" class="c0"/>
<circle cx="1012" cy="878" r="12" class="c0"/>
<circle cx="1426" cy="928" r="12" class="c0"/>
<circle cx="1138" cy="934" r="12" class="c0"/>
<circle cx="1198" cy="820" r="12" class="c0"/>
<circle cx="1222" cy="734" r="12" class="c0"/>
<circle cx="1204" cy="514" r="12" class="c0"/>
<circle cx="1378" cy="954" r="12" class="c0"/>
<circle cx="906" cy="888" r="12" class="c0"/>
<circle cx="1532" cy="762" r="12" class="c0"/>
<circle cx="1124" cy="910" r="12" class="c0"/>
<circle cx="1372" cy="892" r="12" class="c0"/>
<circle cx="584" cy="918" r="10" class="c0"/>
<circle cx="1114" cy="958" r="10" class="c0"/>
<circle cx="720" cy="824" r="10" class="c0"/>
<circle cx="1150" cy="358" r="10" class="c0"/>
<circle cx="1044" cy="858" r="10" class="c0"/>
<circle cx="556" cy="826" r="10" class="c0"/>
<circle cx="416" cy="890" r="10" class="c0"/>
<circle cx="1048" cy="366" r="10" class="c0"/>
<circle cx="1362" cy="992" r="10" class="c0"/>
<circle cx="1050" cy="1020" r="10" class="c0"/>
<circle cx="1000" cy="824" r="10" class="c0"/>
<circle cx="1142" cy="386" r="10" class="c0"/>
<circle cx="1056" cy="840" r="10" class="c0"/>
<circle cx="1076" cy="726" r="10" class="c0"/>
<circle cx="1292" cy="1014" r="10" class="c0"/>
<circle cx="1294" cy="954" r="10" class="c0"/>
<circle cx="682" cy="936" r="10" class="c0"/>
<circle cx="516" cy="924" r="10" class="c0"/>
<circle cx="1186" cy="990" r="10" class="c0"/>
<circle cx="348" cy="808" r="10" class="c0"/>
<circle cx="1312" cy="998" r="10" class="c0"/>
<circle cx="1408" cy="780" r="10" class="c0"/>
<circle cx="1284" cy="802" r="10" class="c0"/>
<circle cx="1082" cy="784" r="10" class="c0"/>
<circle cx="874" cy="1006" r="10" class="c0"/>
<circle cx="658" cy="920" r="10" class="c0"/>
<circle cx="1546" cy="672" r="10" class="c0"/>
<circle cx="1222" cy="1042" r="10" class="c0"/>
<circle cx="1140" cy="1032" r="10" class="c0"/>
<circle cx="1098" cy="992" r="10" class="c0"/>
<circle cx="1040" cy="904" r="10" class="c0"/>
<circle cx="1188" cy="1014" r="10" class="c0"/>
<circle cx="1130" cy="408" r="10" class="c0"/>
<circle cx="1128" cy="810" r="10" class="c0"/>
<circle cx="758" cy="858" r="10" class="c0"/>
<circle cx="1472" cy="844" r="10" class="c0"/>
<circle cx="714" cy="852" r="10" class="c0"/>
<circle cx="968" cy="906" r="10" class="c0"/>
<circle cx="1110" cy="770" r="10" class="c0"/>
<circle cx="610" cy="782" r="10" class="c0"/>
<circle cx="418" cy="812" r="10" class="c0"/>
<circle cx="658" cy="896" r="10" class="c0"/>
<circle cx="1026" cy="996" r="10" class="c0"/>
<circle cx="378" cy="822" r="10" class="c0"/>
<circle cx="794" cy="816" r="10" class="c0"/>
<circle cx="1290" cy="992" r="10" class="c0"/>
<circle cx="1450" cy="842" r="10" class="c0"/>
<circle cx="630" cy="828" r="10" class="c0"/>
<circle cx="1340" cy="1010" r="10" class="c0"/>
<circle cx="1208" cy="374" r="10" class="c0"/>
<circle cx="698" cy="878" r="10" class="c0"/>
<circle cx="1230" cy="1022" r="10" class="c0"/>
<circle cx="474" cy="832" r="10" class="c0"/>
<circle cx="444" cy="876" r="10" class="c0"/>
<circle cx="668" cy="792" r="10" class="c0"/>
<circle cx="1178" cy="642" r="10" class="c0"/>
<circle cx="1036" cy="880" r="10" class="c0"/>
<circle cx="506" cy="810" r="10" class="c0"/>
<circle cx="1142" cy="442" r="10" class="c0"/>
<circle cx="1152" cy="614" r="10" class="c0"/>
<circle cx="908" cy="852" r="10" class="c0"/>
<circle cx="1090" cy="912" r="10" class="c0"/>
<circle cx="1146" cy="514" r="10" class="c0"/>
<circle cx="1024" cy="1036" r="10" class="c0"/>
<circle cx="680" cy="778" r="10" class="c0"/>
<circle cx="944" cy="976" r="10" class="c0"/>
<circle cx="1234" cy="508" r="10" class="c0"/>
<circle cx="1416" cy="956" r="10" class="c0"/>
<circle cx="1238" cy="714" r="10" class="c0"/>
<circle cx="1368" cy="1022" r="10" class="c0"/>
<circle cx="850" cy="902" r="10" class="c0"/>
<circle cx="1330" cy="984" r="10" class="c0"/>
<circle cx="742" cy="1026" r="10" class="c0"/>
<circle cx="1038" cy="740" r="10" class="c0"/>
<circle cx="954" cy="878" r="10" class="c0"/>
<circle cx="680" cy="850" r="10" class="c0"/>
<circle cx="1304" cy="918" r="10" class="c0"/>
<circle cx="1108" cy="864" r="10" class="c0"/>
<circle cx="658" cy="822" r="10" class="c0"/>
<circle cx="862" cy="952" r="10" class="c0"/>
<circle cx="1444" cy="798" r="10" class="c0"/>
<circle cx="1158" cy="544" r="10" class="c0"/>
<circle cx="496" cy="780" r="10" class="c0"/>
<circle cx="1342" cy="884" r="10" class="c0"/>
<circle cx="506" cy="874" r="10" class="c0"/>
<circle cx="1200" cy="1032" r="10" class="c0"/>
<circle cx="546" cy="868" r="10" class="c0"/>
<circle cx="1088" cy="692" r="10" class="c0"/>
<circle cx="674" cy="996" r="10" class="c0"/>
<circle cx="1106" cy="374" r="10" class="c0"/>
<circle cx="1376" cy="770" r="10" class="c0"/>
<circle cx="748" cy="832" r="10" class="c0"/>
<circle cx="884" cy="840" r="10" class="c0"/>
<circle cx="696" cy="914" r="10" class="c0"/>
<circle cx="600" cy="900" r="10" class="c0"/>
<circle cx="956" cy="932" r="10" class="c0"/>
<circle cx="1170" cy="880" r="10" class="c0"/>
<circle cx="566" cy="800" r="10" class="c0"/>
<circle cx="1160" cy="406" r="10" class="c0"/>
<circle cx="930" cy="904" r="10" class="c0"/>
<circle cx="1060" cy="696" r="10" class="c0"/>
<circle cx="1070" cy="864" r="10" class="c0"/>
<circle cx="1018" cy="974" r="10" class="c0"/>
<circle cx="1142" cy="778" r="10" class="c0"/>
<circle cx="388" cy="840" r="10" class="c0"/>
<circle cx="1122" cy="604" r="10" class="c0"/>
<circle cx="820" cy="894" r="10" class="c0"/>
<circle cx="1004" cy="1018" r="10" class="c0"/>
<circle cx="546" cy="894" r="10" class="c0"/>
<circle cx="884" cy="968" r="10" class="c0"/>
<circle cx="1216" cy="980" r="10" class="c0"/>
<circle cx="432" cy="834" r="10" class="c0"/>
<circle cx="1096" cy="844" r="10" class="c0"/>
<circle cx="1134" cy="664" r="10" class="c0"/>
<circle cx="864" cy="1046" r="10" class="c0"/>
<circle cx="1400" cy="834" r="10" class="c0"/>
<circle cx="1180" cy="372" r="10" class="c0"/>
<circle cx="810" cy="1004" r="10" class="c0"/>
<circle cx="1486" cy="782" r="10" class="c0"/>
<circle cx="494" cy="822" r="10" class="c0"/>
<circle cx="794" cy="950" r="10" class="c0"/>
<circle cx="1222" cy="834" r="10" class="c0"/>
<circle cx="1102" cy="642" r="10" class="c0"/>
<circle cx="358" cy="780" r="10" class="c0"/>
<circle cx="1414" cy="904" r="10" class="c0"/>
<circle cx="790" cy="838" r="10" class="c0"/>
<circle cx="568" cy="904" r="10" class="c0"/>
<circle cx="1186" cy="924" r="10" class="c0"/>
<circle cx="1094" cy="950" r="10" class="c0"/>
<circle cx="616" cy="922" r="10" class="c0"/>
<circle cx="1126" cy="1018" r="10" class="c0"/>
<circle cx="744" cy="898" r="10" class="c0"/>
<circle cx="1380" cy="916" r="10" class="c0"/>
<circle cx="1022" cy="466" r="10" class="c0"/>
<circle cx="1158" cy="868" r="10" class="c0"/>
<circle cx="1160" cy="968" r="10" class="c0"/>
<circle cx="1132" cy="640" r="10" class="c0"/>
<circle cx="1124" cy="732" r="10" class="c0"/>
<circle cx="1146" cy="490" r="10" class="c0"/>
<circle cx="1160" cy="470" r="10" class="c0"/>
<circle cx="628" cy="944" r="10" class="c0"/>
<circle cx="724" cy="950" r="10" class="c0"/>
<circle cx="1162" cy="1018" r="10" class="c0"/>
<circle cx="1406" cy="876" r="10" class="c0"/>
<circle cx="720" cy="920" r="10" class="c0"/>
<circle cx="1062" cy="744" r="10" class="c0"/>
<circle cx="1184" cy="598" r="10" class="c0"/>
<circle cx="1048" cy="924" r="10" class="c0"/>
<circle cx="1158" cy="732" r="10" class="c0"/>
<circle cx="1196" cy="626" r="10" class="c0"/>
<circle cx="1192" cy="958" r="10" class="c0"/>
<circle cx="1186" cy="452" r="10" class="c0"/>
<circle cx="1046" cy="972" r="10" class="c0"/>
<circle cx="584" cy="884" r="10" class="c0"/>
<circle cx="1106" cy="678" r="10" class="c0"/>
<circle cx="1334" cy="1040" r="10" class="c0"/>
<circle cx="970" cy="970" r="10" class="c0"/>
<circle cx="652" cy="774" r="10" class="c0"/>
<circle cx="776" cy="892" r="10" class="c0"/>
<circle cx="1474" cy="764" r="10" class="c0"/>
<circle cx="828" cy="806" r="10" class="c0"/>
<circle cx="518" cy="794" r="10" class="c0"/>
<circle cx="1102" cy="926" r="10" class="c0"/>
<circle cx="1416" cy="756" r="10" class="c0"/>
<circle cx="1134" cy="974" r="10" class="c0"/>
<circle cx="1180" cy="578" r="8" class="c0"/>
<circle cx="1366" cy="796" r="8" class="c0"/>
<circle cx="852" cy="1000" r="8" class="c0"/>
<circle cx="524" cy="858" r="8" class="c0"/>
<circle cx="846" cy="882" r="8" class="c0"/>
<circle cx="1100" cy="722" r="8" class="c0"/>
<circle cx="738" cy="852" r="8" class="c0"/>
<circle cx="1318" cy="930" r="8" class="c0"/>
<circle cx="1166" cy="1048" r="8" class="c0"/>
<circle cx="834" cy="914" r="8" class="c0"/>
<circle cx="728" cy="980" r="8" class="c0"/>
<circle cx="648" cy="794" r="8" class="c0"/>
<circle cx="864" cy="864" r="8" class="c0"/>
<circle cx="472" cy="798" r="8" class="c0"/>
<circle cx="816" cy="1042" r="8" class="c0"/>
<circle cx="796" cy="1034" r="8" class="c0"/>
<circle cx="674" cy="910" r="8" class="c0"/>
<circle cx="1176" cy="744" r="8" class="c0"/>
<circle cx="1322" cy="866" r="8" class="c0"/>
<circle cx="1268" cy="1004" r="8" class="c0"/>
<circle cx="1486" cy="806" r="8" class="c0"/>
<circle cx="1400" cy="982" r="8" class="c0"/>
<circle cx="1202" cy="488" r="8" class="c0"/>
<circle cx="494" cy="888" r="8" class="c0"/>
<circle cx="1208" cy="652" r="8" class="c0"/>
<circle cx="1168" cy="386" r="8" class="c0"/>
<circle cx="456" cy="894" r="8" class="c0"/>
<circle cx="448" cy="802" r="8" class="c0"/>
<circle cx="1114" cy="1040" r="8" class="c0"/>
<circle cx="544" cy="924" r="8" class="c0"/>
<circle cx="568" cy="934" r="8" class="c0"/>
<circle cx="1170" cy="528" r="8" class="c0"/>
<circle cx="1238" cy="692" r="8" class="c0"/>
<circle cx="588" cy="768" r="8" class="c0"/>
<circle cx="700" cy="792" r="8" class="c0"/>
<circle cx="762" cy="812" r="8" class="c0"/>
<circle cx="732" cy="882" r="8" class="c0"/>
<circle cx="1224" cy="676" r="8" class="c0"/>
<circle cx="1182" cy="554" r="8" class="c0"/>
<circle cx="1108" cy="618" r="8" class="c0"/>
<circle cx="1166" cy="918" r="8" class="c0"/>
<circle cx="1152" cy="846" r="8" class="c0"/>
<circle cx="654" cy="940" r="8" class="c0"/>
<circle cx="1050" cy="948" r="8" class="c0"/>
<circle cx="1244" cy="976" r="8" class="c0"/>
<circle cx="676" cy="872" r="8" class="c0"/>
<circle cx="1488" cy="738" r="8" class="c0"/>
<circle cx="542" cy="798" r="8" class="c0"/>
<circle cx="1006" cy="988" r="8" class="c0"/>
<circle cx="456" cy="840" r="8" class="c0"/>
<circle cx="1168" cy="350" r="8" class="c0"/>
<circle cx="768" cy="934" r="8" class="c0"/>
<circle cx="1234" cy="998" r="8" class="c0"/>
<circle cx="864" cy="984" r="8" class="c0"/>
<circle cx="1164" cy="798" r="8" class="c0"/>
<circle cx="1202" cy="566" r="8" class="c0"/>
<circle cx="922" cy="828" r="8" class="c0"/>
<circle cx="1176" cy="808" r="8" class="c0"/>
<circle cx="686" cy="802" r="8" class="c0"/>
<circle cx="1248" cy="876" r="8" class="c0"/>
<circle cx="1276" cy="890" r="8" class="c0"/>
<circle cx="402" cy="876" r="8" class="c0"/>
<circle cx="942" cy="1040" r="8" class="c0"/>
<circle cx="1464" cy="792" r="8" class="c0"/>
<circle cx="466" cy="860" r="8" class="c0"/>
<circle cx="994" cy="944" r="8" class="c0"/>
<circle cx="1080" cy="1038" r="8" class="c0"/>
<circle cx="1320" cy="964" r="8" class="c0"/>
<circle cx="1114" cy="344" r="8" class="c0"/>
<circle cx="678" cy="830" r="8" class="c0"/>
<circle cx="902" cy="826" r="8" class="c0"/>
<circle cx="1330" cy="950" r="8" class="c0"/>
<circle cx="1310" cy="792" r="8" class="c0"/>
<circle cx="1232" cy="658" r="8" class="c0"/>
<circle cx="1126" cy="856" r="8" class="c0"/>
<circle cx="408" cy="790" r="8" class="c0"/>
<circle cx="1244" cy="912" r="8" class="c0"/>
<circle cx="1400" cy="936" r="8" class="c0"/>
<circle cx="1330" cy="810" r="8" class="c0"/>
<circle cx="838" cy="950" r="8" class="c0"/>
<circle cx="742" cy="968" r="8" class="c0"/>
<circle cx="586" cy="940" r="8" class="c0"/>
<circle cx="1166" cy="562" r="8" class="c0"/>
<circle cx="1514" cy="786" r="8" class="c0"/>
<circle cx="760" cy="1046" r="8" class="c0"/>
<circle cx="472" cy="778" r="8" class="c0"/>
<circle cx="572" cy="872" r="8" class="c0"/>
<circle cx="602" cy="848" r="8" class="c0"/>
<circle cx="1470" cy="868" r="8" class="c0"/>
<circle cx="1080" cy="936" r="8" class="c0"/>
<circle cx="710" cy="894" r="8" class="c0"/>
<circle cx="688" cy="974" r="8" class="c0"/>
<circle cx="1106" cy="888" r="8" class="c0"/>
<circle cx="722" cy="1016" r="8" class="c0"/>
<circle cx="1070" cy="918" r="8" class="c0"/>
<circle cx="1146" cy="712" r="8" class="c0"/>
<circle cx="1342" cy="970" r="8" class="c0"/>
<circle cx="750" cy="948" r="8" class="c0"/>
<circle cx="780" cy="1022" r="8" class="c0"/>
<circle cx="1502" cy="772" r="8" class="c0"/>
<circle cx="1330" cy="914" r="8" class="c0"/>
<circle cx="526" cy="812" r="8" class="c0"/>
<circle cx="1178" cy="856" r="8" class="c0"/>
<circle cx="1282" cy="934" r="8" class="c0"/>
<circle cx="1270" cy="948" r="8" class="c0"/>
<circle cx="1080" cy="764" r="8" class="c0"/>
<circle cx="834" cy="1054" r="8" class="c0"/>
<circle cx="968" cy="1002" r="8" class="c0"/>
<circle cx="1188" cy="536" r="8" class="c0"/>
<circle cx="1292" cy="854" r="8" class="c0"/>
<circle cx="1156" cy="996" r="8" class="c0"/>
<circle cx="1548" cy="702" r="8" class="c0"/>
<circle cx="666" cy="974" r="8" class="c0"/>
<circle cx="982" cy="892" r="8" class="c0"/>
<circle cx="730" cy="1000" r="8" class="c0"/>
<circle cx="408" cy="834" r="8" class="c0"/>
<circle cx="1288" cy="880" r="8" class="c0"/>
<circle cx="806" cy="1068" r="8" class="c0"/>
<circle cx="1254" cy="812" r="8" class="c0"/>
<circle cx="918" cy="1038" r="8" class="c0"/>
<circle cx="1184" cy="670" r="8" class="c0"/>
<circle cx="968" cy="1032" r="8" class="c0"/>
<circle cx="398" cy="806" r="8" class="c0"/>
<circle cx="1162" cy="828" r="8" class="c0"/>
<circle cx="638" cy="906" r="8" class="c0"/>
<circle cx="808" cy="906" r="8" class="c0"/>
<circle cx="1130" cy="474" r="8" class="c0"/>
<circle cx="1180" cy="764" r="8" class="c0"/>
<circle cx="1234" cy="778" r="8" class="c0"/>
<circle cx="942" cy="852" r="8" class="c0"/>
<circle cx="500" cy="854" r="8" class="c0"/>
<circle cx="1134" cy="1000" r="8" class="c0"/>
<circle cx="1156" cy="658" r="8" class="c0"/>
<circle cx="1388" cy="858" r="8" class="c0"/>
<circle cx="536" cy="770" r="8" class="c0"/>
<circle cx="1084" cy="664" r="8" class="c0"/>
<circle cx="1214" cy="588" r="8" class="c0"/>
<circle cx="1138" cy="1052" r="8" class="c0"/>
<circle cx="996" cy="922" r="8" class="c0"/>
<circle cx="710" cy="936" r="8" class="c0"/>
<circle cx="1434" cy="778" r="8" class="c0"/>
<circle cx="808" cy="852" r="8" class="c0"/>
<circle cx="484" cy="868" r="8" class="c0"/>
<circle cx="1070" cy="674" r="8" class="c0"/>
<circle cx="794" cy="870" r="8" class="c0"/>
<circle cx="1354" cy="766" r="8" class="c0"/>
<circle cx="1154" cy="426" r="8" class="c0"/>
<circle cx="1222" cy="898" r="8" class="c0"/>
<circle cx="1434" cy="906" r="8" class="c0"/>
<circle cx="790" cy="984" r="8" class="c0"/>
<circle cx="946" cy="914" r="8" class="c0"/>
<circle cx="912" cy="816" r="8" class="c0"/>
<circle cx="618" cy="892" r="8" class="c0"/>
<circle cx="1064" cy="892" r="8" class="c0"/>
<circle cx="882" cy="860" r="8" class="c0"/>
<circle cx="1198" cy="468" r="8" class="c0"/>
<circle cx="1540" cy="726" r="8" class="c0"/>
<circle cx="946" cy="950" r="8" class="c0"/>
<circle cx="1156" cy="766" r="8" class="c0"/>
<circle cx="768" cy="830" r="8" class="c0"/>
<circle cx="1030" cy="960" r="8" class="c0"/>
<circle cx="818" cy="836" r="8" class="c0"/>
<circle cx="1020" cy="856" r="8" class="c0"/>
<circle cx="1178" cy="704" r="8" class="c0"/>
<circle cx="374" cy="856" r="8" class="c0"/>
<circle cx="990" cy="874" r="8" class="c0"/>
<circle cx="1220" cy="634" r="8" class="c0"/>
<circle cx="818" cy="952" r="8" class="c0"/>
<circle cx="1094" cy="876" r="8" class="c0"/>
<circle cx="1188" cy="690" r="8" class="c0"/>
<circle cx="1276" cy="966" r="8" class="c0"/>
<circle cx="886" cy="908" r="8" class="c0"/>
<circle cx="1518" cy="730" r="8" class="c0"/>
<circle cx="878" cy="888" r="8" class="c0"/>
<circle cx="1292" cy="820" r="8" class="c0"/>
<circle cx="836" cy="854" r="8" class="c0"/>
<circle cx="664" cy="952" r="8" class="c0"/>
<circle cx="1238" cy="640" r="8" class="c0"/>
<circle cx="1046" cy="762" r="8" class="c0"/>
<circle cx="1152" cy="902" r="8" class="c0"/>
<circle cx="902" cy="930" r="8" class="c0"/>
<circle cx="700" cy="946" r="8" class="c0"/>
<circle cx="1074" cy="954" r="8" class="c0"/>
<circle cx="1382" cy="980" r="8" class="c0"/>
<circle cx="752" cy="980" r="8" class="c0"/>
<circle cx="994" cy="972" r="8" class="c0"/>
<circle cx="1506" cy="752" r="8" class="c0"/>
<circle cx="1184" cy="394" r="8" class="c0"/>
<circle cx="1420" cy="850" r="8" class="c0"/>
<circle cx="986" cy="998" r="8" class="c0"/>
<circle cx="428" cy="782" r="8" class="c0"/>
<circle cx="756" cy="920" r="8" class="c0"/>
<circle cx="1042" cy="388" r="8" class="c0"/>
<circle cx="1176" cy="434" r="8" class="c0"/>
<circle cx="1242" cy="830" r="8" class="c0"/>
<circle cx="850" cy="970" r="8" class="c0"/>
<circle cx="1136" cy="584" r="8" class="c0"/>
<circle cx="940" cy="814" r="8" class="c0"/>
<circle cx="1448" cy="918" r="8" class="c0"/>
<circle cx="1096" cy="1046" r="8" class="c0"/>
<circle cx="658" cy="844" r="8" class="c0"/>
<circle cx="1524" cy="676" r="8" class="c0"/>
<circle cx="1052" cy="718" r="8" class="c0"/>
<circle cx="1010" cy="840" r="8" class="c0"/>
<circle cx="1554" cy="646" r="8" class="c0"/>
<circle cx="636" cy="806" r="8" class="c0"/>
<circle cx="610" cy="956" r="8" class="c0"/>
<circle cx="1016" cy="544" r="8" class="c0"/>
<circle cx="1502" cy="814" r="8" class="c0"/>
<circle cx="834" cy="826" r="8" class="c0"/>
<circle cx="1214" cy="870" r="8" class="c0"/>
<circle cx="1028" cy="756" r="8" class="c0"/>
<circle cx="984" cy="1020" r="8" class="c0"/>
<circle cx="1062" cy="1032" r="8" class="c0"/>
<circle cx="450" cy="772" r="8" class="c0"/>
<circle cx="1012" cy="522" r="8" class="c0"/>
<circle cx="1306" cy="810" r="8" class="c0"/>
<circle cx="960" cy="986" r="8" class="c0"/>
<circle cx="428" cy="856" r="8" class="c0"/>
<circle cx="614" cy="810" r="8" class="c0"/>
<circle cx="1460" cy="816" r="8" class="c0"/>
<circle cx="1018" cy="502" r="8" class="c0"/>
<circle cx="1430" cy="830" r="8" class="c0"/>
<circle cx="1060" cy="938" r="8" class="c0"/>
<circle cx="1234" cy="854" r="8" class="c0"/>
<circle cx="1204" cy="670" r="8" class="c0"/>
<circle cx="1390" cy="814" r="8" class="c0"/>
<circle cx="1484" cy="830" r="8" class="c0"/>
<circle cx="816" cy="934" r="8" class="c0"/>
<circle cx="1012" cy="654" r="8" class="c0"/>
<circle cx="1210" cy="612" r="8" class="c0"/>
<circle cx="1238" cy="760" r="8" class="c0"/>
<circle cx="1182" cy="788" r="8" class="c0"/>
<circle cx="782" cy="1044" r="8" class="c0"/>
<circle cx="534" cy="908" r="8" class="c0"/>
<circle cx="1016" cy="610" r="8" class="c0"/>
<circle cx="1154" cy="580" r="8" class="c0"/>
<circle cx="428" cy="910" r="8" class="c0"/>
<circle cx="806" cy="804" r="8" class="c0"/>
<circle cx="1188" cy="866" r="8" class="c0"/>
<circle cx="1134" cy="692" r="8" class="c0"/>
<circle cx="1212" cy="1014" r="8" class="c0"/>
<circle cx="1032" cy="424" r="8" class="c0"/>
<circle cx="918" cy="870" r="8" class="c0"/>
<circle cx="1194" cy="346" r="8" class="c0"/>
<circle cx="790" cy="1010" r="8" class="c0"/>
<circle cx="700" cy="994" r="8" class="c0"/>
<circle cx="1184" cy="722" r="8" class="c0"/>
<circle cx="1384" cy="1000" r="8" class="c0"/>
<circle cx="1014" cy="578" r="8" class="c0"/>
<circle cx="1206" cy="912" r="8" class="c0"/>
<circle cx="1260" cy="920" r="8" class="c0"/>
<circle cx="1002" cy="898" r="8" class="c0"/>
<circle cx="362" cy="838" r="8" class="c0"/>
<circle cx="1026" cy="402" r="8" class="c0"/>
<circle cx="1376" cy="870" r="8" class="c0"/>
<circle cx="698" cy="964" r="8" class="c0"/>
<circle cx="1140" cy="822" r="8" class="c0"/>
<circle cx="830" cy="874" r="8" class="c0"/>
<circle cx="904" cy="996" r="8" class="c0"/>
<circle cx="1102" cy="972" r="8" class="c0"/>
<circle cx="940" cy="834" r="8" class="c0"/>
<circle cx="1122" cy="388" r="8" class="c0"/>
<circle cx="1350" cy="812" r="8" class="c0"/>
<circle cx="404" cy="852" r="8" class="c0"/>
<circle cx="1314" cy="1032" r="8" class="c0"/>
<circle cx="860" cy="846" r="8" class="c0"/>
<circle cx="1164" cy="594" r="8" class="c0"/>
<circle cx="1226" cy="702" r="8" class="c0"/>
<circle cx="860" cy="1022" r="8" class="c0"/>
<circle cx="1138" cy="756" r="8" class="c0"/>
<circle cx="654" cy="990" r="8" class="c0"/>
<circle cx="760" cy="958" r="8" class="c0"/>
<circle cx="458" cy="818" r="8" class="c0"/>
<circle cx="604" cy="760" r="8" class="c0"/>
<circle cx="1270" cy="830" r="8" class="c0"/>
<circle cx="892" cy="816" r="8" class="c0"/>
<circle cx="1220" cy="494" r="8" class="c0"/>
<circle cx="806" cy="976" r="8" class="c0"/>
<circle cx="774" cy="792" r="8" class="c0"/>
<circle cx="796" cy="890" r="8" class="c0"/>
<circle cx="1140" cy="342" r="8" class="c0"/>
<circle cx="1076" cy="838" r="8" class="c0"/>
<circle cx="468" cy="878" r="8" class="c0"/>
<circle cx="1180" cy="1034" r="8" class="c0"/>
<circle cx="1088" cy="824" r="8" class="c0"/>
<circle cx="1254" cy="960" r="8" class="c0"/>
<circle cx="710" cy="974" r="8" class="c0"/>
<circle cx="1354" cy="906" r="8" class="c0"/>
<circle cx="894" cy="950" r="8" class="c0"/>
<circle cx="1106" cy="422" r="8" class="c0"/>
<circle cx="1098" cy="746" r="8" class="c0"/>
<circle cx="922" cy="1008" r="8" class="c0"/>
<circle cx="780" cy="972" r="8" class="c0"/>
<circle cx="540" cy="838" r="8" class="c0"/>
<circle cx="624" cy="796" r="8" class="c0"/>
<circle cx="328" cy="794" r="8" class="c0"/>
<circle cx="1560" cy="692" r="8" class="c0"/>
<circle cx="1178" cy="946" r="8" class="c0"/>
<circle cx="1352" cy="830" r="8" class="c0"/>
<circle cx="934" cy="882" r="8" class="c0"/>
<circle cx="894" cy="986" r="8" class="c0"/>
<circle cx="1392" cy="758" r="8" class="c0"/>
<circle cx="972" cy="948" r="8" class="c0"/>
<circle cx="1386" cy="786" r="8" class="c0"/>
<circle cx="1132" cy="370" r="8" class="c0"/>
<circle cx="1506" cy="714" r="8" class="c0"/>
<circle cx="1116" cy="826" r="8" class="c0"/>
<circle cx="488" cy="844" r="8" class="c0"/>
<circle cx="868" cy="806" r="8" class="c0"/>
<circle cx="1200" cy="546" r="8" class="c0"/>
<circle cx="848" cy="936" r="8" class="c0"/>
<circle cx="1356" cy="862" r="8" class="c0"/>
<circle cx="514" cy="762" r="8" class="c0"/>
<circle cx="1286" cy="902" r="8" class="c0"/>
<circle cx="482" cy="766" r="8" class="c0"/>
<circle cx="1196" cy="892" r="8" class="c0"/>
<circle cx="398" cy="774" r="8" class="c0"/>
<circle cx="888" cy="1046" r="8" class="c0"/>
<circle cx="596" cy="872" r="8" class="c0"/>
<circle cx="632" cy="850" r="8" class="c0"/>
<circle cx="1008" cy="954" r="8" class="c0"/>
<circle cx="1236" cy="810" r="8" class="c0"/>
<circle cx="1226" cy="880" r="8" class="c0"/>
<circle cx="1182" cy="836" r="8" class="c0"/>
<circle cx="934" cy="992" r="8" class="c0"/>
<circle cx="1022" cy="438" r="8" class="c0"/>
<circle cx="1146" cy="564" r="8" class="c0"/>
<circle cx="878" cy="1028" r="8" class="c0"/>
<circle cx="1332" cy="828" r="8" class="c0"/>
<circle cx="762" cy="880" r="8" class="c0"/>
<circle cx="1360" cy="966" r="8" class="c0"/>
<circle cx="1270" cy="910" r="8" class="c0"/>
<circle cx="786" cy="1064" r="8" class="c0"/>
<circle cx="772" cy="870" r="8" class="c0"/>
<circle cx="840" cy="1010" r="8" class="c0"/>
<circle cx="962" cy="844" r="8" class="c0"/>
<circle cx="1036" cy="340" r="8" class="c0"/>
<circle cx="1120" cy="652" r="8" class="c0"/>
<circle cx="1360" cy="1040" r="8" class="c0"/>
<circle cx="622" cy="768" r="8" class="c0"/>
<circle cx="1270" cy="986" r="8" class="c0"/>
<circle cx="554" cy="850" r="8" class="c0"/>
<circle cx="1226" cy="958" r="8" class="c0"/>
<circle cx="698" cy="836" r="8" class="c0"/>
<circle cx="892" cy="872" r="8" class="c0"/>
<circle cx="392" cy="866" r="8" class="c0"/>
<circle cx="1536" cy="654" r="8" class="c0"/>
<circle cx="1122" cy="434" r="8" class="c0"/>
<circle cx="1196" cy="734" r="8" class="c0"/>
<circle cx="678" cy="964" r="8" class="c0"/>
<circle cx="1168" cy="936" r="8" class="c0"/>
<circle cx="848" cy="802" r="8" class="c0"/>
<circle cx="1156" cy="636" r="8" class="c0"/>
<circle cx="1340" cy="928" r="8" class="c0"/>
<circle cx="746" cy="872" r="8" class="c0"/>
<circle cx="1126" cy="790" r="8" class="c0"/>
<circle cx="680" cy="892" r="8" class="c0"/>
<circle cx="1134" cy="840" r="8" class="c0"/>
<circle cx="416" cy="866" r="8" class="c0"/>
<circle cx="700" cy="814" r="8" class="c0"/>
<circle cx="1178" cy="478" r="8" class="c0"/>
<circle cx="1228" cy="924" r="8" class="c0"/>
<circle cx="722" cy="1036" r="8" class="c0"/>
<circle cx="928" cy="1028" r="8" class="c0"/>
<circle cx="1058" cy="996" r="8" class="c0"/>
<circle cx="1224" cy="598" r="8" class="c0"/>
<circle cx="1200" cy="1002" r="8" class="c0"/>
<circle cx="1114" cy="1004" r="8" class="c0"/>
<circle cx="1566" cy="658" r="8" class="c0"/>
<circle cx="1452" cy="864" r="8" class="c0"/>
<circle cx="1304" cy="870" r="8" class="c0"/>
<circle cx="464" cy="912" r="6" class="c0"/>
<circle cx="1180" cy="410" r="6" class="c0"/>
<circle cx="774" cy="850" r="6" class="c0"/>
<circle cx="1300" cy="974" r="6" class="c0"/>
<circle cx="1052" cy="1044" r="6" class="c0"/>
<circle cx="748" cy="784" r="6" class="c0"/>
<circle cx="820" cy="864" r="6" class="c0"/>
<circle cx="976" cy="930" r="6" class="c0"/>
<circle cx="1402" cy="920" r="6" class="c0"/>
<circle cx="1032" cy="374" r="6" class="c0"/>
<circle cx="1320" cy="780" r="6" class="c0"/>
<circle cx="1124" cy="990" r="6" class="c0"/>
<circle cx="584" cy="792" r="6" class="c0"/>
<circle cx="1180" cy="618" r="6" class="c0"/>
<circle cx="738" cy="938" r="6" class="c0"/>
<circle cx="1248" cy="1018" r="6" class="c0"/>
<circle cx="1148" cy="950" r="6" class="c0"/>
<circle cx="770" cy="1056" r="6" class="c0"/>
<circle cx="850" cy="1032" r="6" class="c0"/>
<circle cx="1080" cy="708" r="6" class="c0"/>
<circle cx="1168" cy="780" r="6" class="c0"/>
<circle cx="562" cy="884" r="6" class="c0"/>
<circle cx="444" cy="906" r="6" class="c0"/>
<circle cx="908" cy="908" r="6" class="c0"/>
<circle cx="672" cy="810" r="6" class="c0"/>
<circle cx="1164" cy="512" r="6" class="c0"/>
<circle cx="1140" cy="534" r="6" class="c0"/>
<circle cx="1390" cy="900" r="6" class="c0"/>
<circle cx="1254" cy="706" r="6" class="c0"/>
<circle cx="1498" cy="728" r="6" class="c0"/>
<circle cx="704" cy="776" r="6" class="c0"/>
<circle cx="1210" cy="960" r="6" class="c0"/>
<circle cx="1164" cy="446" r="6" class="c0"/>
<circle cx="532" cy="878" r="6" class="c0"/>
<circle cx="634" cy="926" r="6" class="c0"/>
<circle cx="1044" cy="704" r="6" class="c0"/>
<circle cx="710" cy="802" r="6" class="c0"/>
<circle cx="652" cy="962" r="6" class="c0"/>
<circle cx="1346" cy="952" r="6" class="c0"/>
<circle cx="790" cy="794" r="6" class="c0"/>
<circle cx="1216" cy="690" r="6" class="c0"/>
<circle cx="744" cy="812" r="6" class="c0"/>
<circle cx="1172" cy="660" r="6" class="c0"/>
<circle cx="1020" cy="902" r="6" class="c0"/>
<circle cx="1032" cy="944" r="6" class="c0"/>
<circle cx="894" cy="1006" r="6" class="c0"/>
<circle cx="1434" cy="748" r="6" class="c0"/>
<circle cx="596" cy="930" r="6" class="c0"/>
<circle cx="440" cy="818" r="6" class="c0"/>
<circle cx="1142" cy="860" r="6" class="c0"/>
<circle cx="1106" cy="1022" r="6" class="c0"/>
<circle cx="1330" cy="896" r="6" class="c0"/>
<circle cx="1282" cy="840" r="6" class="c0"/>
<circle cx="852" cy="1058" r="6" class="c0"/>
<circle cx="1242" cy="1040" r="6" class="c0"/>
<circle cx="1132" cy="458" r="6" class="c0"/>
<circle cx="1260" cy="892" r="6" class="c0"/>
<circle cx="1274" cy="786" r="6" class="c0"/>
<circle cx="1060" cy="776" r="6" class="c0"/>
<circle cx="658" cy="862" r="6" class="c0"/>
<circle cx="340" cy="782" r="6" class="c0"/>
<circle cx="1196" cy="438" r="6" class="c0"/>
<circle cx="1530" cy="740" r="6" class="c0"/>
<circle cx="984" cy="960" r="6" class="c0"/>
<circle cx="1230" cy="622" r="6" class="c0"/>
<circle cx="1246" cy="798" r="6" class="c0"/>
<circle cx="784" cy="860" r="6" class="c0"/>
<circle cx="1052" cy="822" r="6" class="c0"/>
<circle cx="1314" cy="948" r="6" class="c0"/>
<circle cx="1500" cy="798" r="6" class="c0"/>
<circle cx="1106" cy="1058" r="6" class="c0"/>
<circle cx="1422" cy="888" r="6" class="c0"/>
<circle cx="1184" cy="1052" r="6" class="c0"/>
<circle cx="632" cy="780" r="6" class="c0"/>
<circle cx="1116" cy="936" r="6" class="c0"/>
<circle cx="1328" cy="770" r="6" class="c0"/>
<circle cx="810" cy="1024" r="6" class="c0"/>
<circle cx="832" cy="930" r="6" class="c0"/>
<circle cx="1242" cy="674" r="6" class="c0"/>
<circle cx="1392" cy="968" r="6" class="c0"/>
<circle cx="478" cy="890" r="6" class="c0"/>
<circle cx="1366" cy="814" r="6" class="c0"/>
<circle cx="1064" cy="376" r="6" class="c0"/>
<circle cx="926" cy="844" r="6" class="c0"/>
<circle cx="774" cy="950" r="6" class="c0"/>
<circle cx="814" cy="876" r="6" class="c0"/>
<circle cx="744" cy="1044" r="6" class="c0"/>
<circle cx="928" cy="960" r="6" class="c0"/>
<circle cx="486" cy="806" r="6" class="c0"/>
<circle cx="538" cy="822" r="6" class="c0"/>
<circle cx="550" cy="940" r="6" class="c0"/>
<circle cx="528" cy="936" r="6" class="c0"/>
<circle cx="1438" cy="816" r="6" class="c0"/>
<circle cx="418" cy="770" r="6" class="c0"/>
<circle cx="612" cy="832" r="6" class="c0"/>
<circle cx="1312" cy="856" r="6" class="c0"/>
<circle cx="770" cy="1034" r="6" class="c0"/>
<circle cx="1012" cy="482" r="6" class="c0"/>
<circle cx="1104" cy="792" r="6" class="c0"/>
<circle cx="1054" cy="874" r="6" class="c0"/>
<circle cx="1198" cy="978" r="6" class="c0"/>
<circle cx="1170" cy="982" r="6" class="c0"/>
<circle cx="1078" cy="388" r="6" class="c0"/>
<circle cx="446" cy="852" r="6" class="c0"/>
<circle cx="1170" cy="610" r="6" class="c0"/>
<circle cx="1442" cy="890" r="6" class="c0"/>
<circle cx="504" cy="908" r="6" class="c0"/>
<circle cx="1316" cy="820" r="6" class="c0"/>
<circle cx="1084" cy="890" r="6" class="c0"/>
<circle cx="1140" cy="602" r="6" class="c0"/>
<circle cx="1198" cy="1050" r="6" class="c0"/>
<circle cx="358" cy="822" r="6" class="c0"/>
<circle cx="1468" cy="746" r="6" class="c0"/>
<circle cx="346" cy="828" r="6" class="c0"/>
<circle cx="1030" cy="1018" r="6" class="c0"/>
<circle cx="1068" cy="1048" r="6" class="c0"/>
<circle cx="1122" cy="758" r="6" class="c0"/>
<circle cx="740" cy="916" r="6" class="c0"/>
<circle cx="816" cy="820" r="6" class="c0"/>
<circle cx="928" cy="860" r="6" class="c0"/>
<circle cx="1080" cy="746" r="6" class="c0"/>
<circle cx="638" cy="764" r="6" class="c0"/>
<circle cx="786" cy="934" r="6" class="c0"/>
<circle cx="1252" cy="994" r="6" class="c0"/>
<circle cx="730" cy="866" r="6" class="c0"/>
<circle cx="716" cy="870" r="6" class="c0"/>
<circle cx="1168" cy="714" r="6" class="c0"/>
<circle cx="818" cy="916" r="6" class="c0"/>
<circle cx="1546" cy="750" r="6" class="c0"/>
<circle cx="824" cy="1066" r="6" class="c0"/>
<circle cx="718" cy="786" r="6" class="c0"/>
<circle cx="448" cy="920" r="6" class="c0"/>
<circle cx="800" cy="1050" r="6" class="c0"/>
<circle cx="1536" cy="690" r="6" class="c0"/>
<circle cx="1178" cy="340" r="6" class="c0"/>
<circle cx="1180" cy="972" r="6" class="c0"/>
<circle cx="1400" cy="804" r="6" class="c0"/>
<circle cx="766" cy="910" r="6" class="c0"/>
<circle cx="1264" cy="794" r="6" class="c0"/>
<circle cx="910" cy="952" r="6" class="c0"/>
<circle cx="1088" cy="860" r="6" class="c0"/>
<circle cx="1238" cy="890" r="6" class="c0"/>
<circle cx="870" cy="902" r="6" class="c0"/>
<circle cx="1116" cy="844" r="6" class="c0"/>
<circle cx="1386" cy="1016" r="6" class="c0"/>
<circle cx="1134" cy="502" r="6" class="c0"/>
<circle cx="964" cy="862" r="6" class="c0"/>
<circle cx="1294" cy="782" r="6" class="c0"/>
<circle cx="434" cy="892" r="6" class="c0"/>
<circle cx="1174" cy="1004" r="6" class="c0"/>
<circle cx="592" cy="784" r="6" class="c0"/>
<circle cx="606" cy="882" r="6" class="c0"/>
<circle cx="1160" cy="372" r="6" class="c0"/>
<circle cx="1168" cy="844" r="6" class="c0"/>
<circle cx="1458" cy="908" r="6" class="c0"/>
<circle cx="1490" cy="848" r="6" class="c0"/>
<circle cx="956" cy="824" r="6" class="c0"/>
<circle cx="1150" cy="920" r="6" class="c0"/>
<circle cx="1014" cy="638" r="6" class="c0"/>
<circle cx="1002" cy="1036" r="6" class="c0"/>
<circle cx="554" cy="914" r="6" class="c0"/>
<circle cx="1010" cy="688" r="6" class="c0"/>
<circle cx="950" cy="996" r="6" class="c0"/>
<circle cx="432" cy="800" r="6" class="c0"/>
<circle cx="876" cy="820" r="6" class="c0"/>
<circle cx="1212" cy="478" r="6" class="c0"/>
<circle cx="1348" cy="1030" r="6" class="c0"/>
<circle cx="1196" cy="582" r="6" class="c0"/>
<circle cx="1084" cy="964" r="6" class="c0"/>
<circle cx="744" cy="1008" r="6" class="c0"/>
<circle cx="1144" cy="1012" r="6" class="c0"/>
<circle cx="1512" cy="694" r="6" class="c0"/>
<circle cx="1132" cy="524" r="6" class="c0"/>
<circle cx="604" cy="800" r="6" class="c0"/>
<circle cx="952" cy="898" r="6" class="c0"/>
<circle cx="1322" cy="1018" r="6" class="c0"/>
<circle cx="1414" cy="974" r="6" class="c0"/>
<circle cx="752" cy="800" r="6" class="c0"/>
<circle cx="604" cy="940" r="6" class="c0"/>
<circle cx="1132" cy="618" r="6" class="c0"/>
<circle cx="1568" cy="674" r="6" class="c0"/>
<circle cx="464" cy="764" r="6" class="c0"/>
<circle cx="1116" cy="980" r="6" class="c0"/>
<circle cx="1144" cy="800" r="6" class="c0"/>
<circle cx="1158" cy="336" r="6" class="c0"/>
<circle cx="1304" cy="938" r="6" class="c0"/>
<circle cx="726" cy="902" r="6" class="c0"/>
<circle cx="1082" cy="646" r="6" class="c0"/>
<circle cx="1198" cy="876" r="6" class="c0"/>
<circle cx="846" cy="838" r="6" class="c0"/>
<circle cx="1018" cy="562" r="6" class="c0"/>
<circle cx="852" cy="920" r="6" class="c0"/>
<circle cx="1492" cy="762" r="6" class="c0"/>
<circle cx="740" cy="990" r="6" class="c0"/>
<circle cx="644" cy="954" r="6" class="c0"/>
<circle cx="830" cy="1000" r="6" class="c0"/>
<circle cx="1124" cy="356" r="6" class="c0"/>
<circle cx="458" cy="786" r="6" class="c0"/>
<circle cx="862" cy="884" r="6" class="c0"/>
<circle cx="1154" cy="1058" r="6" class="c0"/>
<circle cx="916" cy="916" r="6" class="c0"/>
<circle cx="1166" cy="490" r="6" class="c0"/>
<circle cx="1002" cy="856" r="6" class="c0"/>
<circle cx="1118" cy="628" r="6" class="c0"/>
<circle cx="1212" cy="888" r="6" class="c0"/>
<circle cx="1122" cy="1056" r="6" class="c0"/>
<circle cx="546" cy="782" r="6" class="c0"/>
<circle cx="1042" cy="1004" r="6" class="c0"/>
<circle cx="1372" cy="854" r="6" class="c0"/>
<circle cx="972" cy="872" r="6" class="c0"/>
<circle cx="1322" cy="846" r="6" class="c0"/>
<circle cx="1196" cy="362" r="6" class="c0"/>
<circle cx="578" cy="756" r="6" class="c0"/>
<circle cx="1166" cy="624" r="6" class="c0"/>
<circle cx="986" cy="912" r="6" class="c0"/>
<circle cx="844" cy="1044" r="6" class="c0"/>
<circle cx="660" cy="878" r="6" class="c0"/>
<circle cx="956" cy="960" r="6" class="c0"/>
<circle cx="1136" cy="956" r="6" class="c0"/>
<circle cx="1112" cy="800" r="6" class="c0"/>
<circle cx="1398" cy="952" r="6" class="c0"/>
<circle cx="800" cy="932" r="6" class="c0"/>
<circle cx="380" cy="776" r="6" class="c0"/>
<circle cx="1124" cy="682" r="6" class="c0"/>
<circle cx="1446" cy="824" r="6" class="c0"/>
<circle cx="1154" cy="750" r="6" class="c0"/>
<circle cx="494" cy="798" r="6" class="c0"/>
<circle cx="576" cy="824" r="6" class="c0"/>
<circle cx="1388" cy="882" r="6" class="c0"/>
<circle cx="902" cy="806" r="6" class="c0"/>
<circle cx="1204" cy="448" r="6" class="c0"/>
<circle cx="982" cy="982" r="6" class="c0"/>
<circle cx="1068" cy="824" r="6" class="c0"/>
<circle cx="694" cy="860" r="6" class="c0"/>
<circle cx="760" cy="1022" r="6" class="c0"/>
<circle cx="642" cy="840" r="6" class="c0"/>
<circle cx="816" cy="794" r="6" class="c0"/>
<circle cx="746" cy="930" r="6" class="c0"/>
<circle cx="1142" cy="740" r="6" class="c0"/>
<circle cx="1010" cy="912" r="6" class="c0"/>
<circle cx="478" cy="814" r="6" class="c0"/>
<circle cx="728" cy="840" r="6" class="c0"/>
<circle cx="848" cy="866" r="6" class="c0"/>
<circle cx="1146" cy="986" r="6" class="c0"/>
<circle cx="1094" cy="1028" r="6" class="c0"/>
<circle cx="1380" cy="804" r="6" class="c0"/>
<circle cx="1098" cy="1014" r="6" class="c0"/>
<circle cx="712" cy="1004" r="6" class="c0"/>
<circle cx="1074" cy="902" r="6" class="c0"/>
<circle cx="778" cy="808" r="6" class="c0"/>
<circle cx="1256" cy="1042" r="6" class="c0"/>
<circle cx="496" cy="928" r="6" class="c0"/>
<circle cx="1432" cy="948" r="6" class="c0"/>
<circle cx="1452" cy="746" r="6" class="c0"/>
<circle cx="1404" cy="854" r="6" class="c0"/>
<circle cx="708" cy="1028" r="6" class="c0"/>
<circle cx="1038" cy="1046" r="6" class="c0"/>
<circle cx="1076" cy="882" r="6" class="c0"/>
<circle cx="1138" cy="424" r="6" class="c0"/>
<circle cx="1398" cy="892" r="6" class="c0"/>
<circle cx="1018" cy="594" r="6" class="c0"/>
<circle cx="718" cy="990" r="6" class="c0"/>
<circle cx="1484" cy="860" r="6" class="c0"/>
<circle cx="1206" cy="744" r="6" class="c0"/>
<circle cx="1384" cy="934" r="6" class="c0"/>
<circle cx="398" cy="824" r="6" class="c0"/>
<circle cx="1104" cy="660" r="6" class="c0"/>
<circle cx="366" cy="810" r="6" class="c0"/>
<circle cx="1480" cy="878" r="6" class="c0"/>
<circle cx="1324" cy="882" r="6" class="c0"/>
<circle cx="1060" cy="908" r="6" class="c0"/>
<circle cx="1284" cy="1034" r="6" class="c0"/>
<circle cx="1082" cy="1054" r="6" class="c0"/>
<circle cx="1272" cy="814" r="6" class="c0"/>
<circle cx="1362" cy="780" r="6" class="c0"/>
<circle cx="1114" cy="748" r="6" class="c0"/>
<circle cx="1012" cy="702" r="6" class="c0"/>
<circle cx="1064" cy="762" r="6" class="c0"/>
<circle cx="1100" cy="704" r="6" class="c0"/>
<circle cx="648" cy="854" r="6" class="c0"/>
<circle cx="418" cy="844" r="6" class="c0"/>
<circle cx="1360" cy="878" r="6" class="c0"/>
<circle cx="1512" cy="804" r="6" class="c0"/>
<circle cx="412" cy="908" r="6" class="c0"/>
<circle cx="1192" cy="654" r="6" class="c0"/>
<circle cx="1192" cy="800" r="6" class="c0"/>
<circle cx="1172" cy="418" r="6" class="c0"/>
<circle cx="1190" cy="752" r="6" class="c0"/>
<circle cx="1080" cy="996" r="6" class="c0"/>
<circle cx="1306" cy="776" r="6" class="c0"/>
<circle cx="336" cy="820" r="6" class="c0"/>
<circle cx="1194" cy="384" r="6" class="c0"/>
<circle cx="1146" cy="460" r="6" class="c0"/>
<circle cx="1284" cy="918" r="6" class="c0"/>
</svg>
