<?xml version="1.0" encoding="utf-8"?>
<svg xmlns="http://www.w3.org/2000/svg"
     xmlns:xlink="http://www.w3.org/1999/xlink" width="1920" height="1440" >

            <defs>
            <style type="text/css"><![CDATA[
circle {stroke: none;}
.c0 {fill: #FFFFFF;}
]]></style>
            </defs>
<rect x="0" y="0" width="1920" height="1440" fill="black"/>
<circle cx="458" cy="790" r="14" class="c0"/>
<circle cx="1138" cy="450" r="12" class="c0"/>
<circle cx="602" cy="810" r="12" class="c0"/>
<circle cx="608" cy="934" r="12" class="c0"/>
<circle cx="844" cy="904" r="12" class="c0"/>
<circle cx="1540" cy="704" r="12" class="c0"/>
<circle cx="1116" cy="370" r="12" class="c0"/>
<circle cx="1152" cy="974" r="12" class="c0"/>
<circle cx="1186" cy="580" r="12" class="c0"/>
<circle cx="1446" cy="808" r="12" class="c0"/>
<circle cx="1060" cy="1000" r="12" class="c0"/>
<circle cx="1178" cy="972" r="12" class="c0"/>
<circle cx="1204" cy="510" r="12" class="c0"/>
<circle cx="1388" cy="840" r="12" class="c0"/>
<circle cx="1148" cy="544" r="12" class="c0"/>
<circle cx="1140" cy="822" r="12" class="c0"/>
<circle cx="1336" cy="926" r="12" class="c0"/>
<circle cx="1024" cy="1000" r="12" class="c0"/>
<circle cx="642" cy="982" r="12" class="c0"/>
<circle cx="756" cy="896" r="12" class="c0"/>
<circle cx="1130" cy="862" r="12" class="c0"/>
<circle cx="1220" cy="656" r="12" class="c0"/>
<circle cx="1162" cy="338" r="12" class="c0"/>
<circle cx="802" cy="1034" r="12" class="c0"/>
<circle cx="486" cy="902" r="12" class="c0"/>
<circle cx="1236" cy="690" r="12" class="c0"/>
<circle cx="1352" cy="1016" r="12" class="c0"/>
<circle cx="1042" cy="364" r="12" class="c0"/>
<circle cx="648" cy="900" r="12" class="c0"/>
<circle cx="672" cy="836" r="12" class="c0"/>
<circle cx="1440" cy="886" r="12" class="c0"/>
<circle cx="1084" cy="1026" r="12" class="c0"/>
<circle cx="1106" cy="780" r="12" class="c0"/>
<circle cx="668" cy="970" r="12" class="c0"/>
<circle cx="1360" cy="960" r="12" class="c0"/>
<circle cx="674" cy="922" r="12" class="c0"/>
<circle cx="392" cy="862" r="12" class="c0"/>
<circle cx="952" cy="830" r="12" class="c0"/>
<circle cx="1116" cy="736" r="12" class="c0"/>
<circle cx="962" cy="950" r="12" class="c0"/>
<circle cx="1214" cy="626" r="12" class="c0"/>
<circle cx="1286" cy="908" r="12" class="c0"/>
<circle cx="1094" cy="896" r="12" class="c0"/>
<circle cx="1022" cy="844" r="12" class="c0"/>
<circle cx="1474" cy="830" r="12" class="c0"/>
<circle cx="942" cy="930" r="12" class="c0"/>
<circle cx="1410" cy="790" r="12" class="c0"/>
<circle cx="742" cy="1030" r="12" class="c0"/>
<circle cx="1254" cy="922" r="12" class="c0"/>
<circle cx="472" cy="858" r="12" class="c0"/>
<circle cx="880" cy="940" r="10" class="c0"/>
<circle cx="528" cy="932" r="10" class="c0"/>
<circle cx="544" cy="844" r="10" class="c0"/>
<circle cx="882" cy="864" r="10" class="c0"/>
<circle cx="332" cy="836" r="10" class="c0"/>
<circle cx="1174" cy="392" r="10" class="c0"/>
<circle cx="1270" cy="820" r="10" class="c0"/>
<circle cx="1208" cy="888" r="10" class="c0"/>
<circle cx="822" cy="820" r="10" class="c0"/>
<circle cx="586" cy="780" r="10" class="c0"/>
<circle cx="1004" cy="1036" r="10" class="c0"/>
<circle cx="1194" cy="920" r="10" class="c0"/>
<circle cx="1046" cy="1044" r="10" class="c0"/>
<circle cx="1152" cy="780" r="10" class="c0"/>
<circle cx="1304" cy="988" r="10" class="c0"/>
<circle cx="1128" cy="698" r="10" class="c0"/>
<circle cx="1210" cy="740" r="10" class="c0"/>
<circle cx="1206" cy="824" r="10" class="c0"/>
<circle cx="1056" cy="900" r="10" class="c0"/>
<circle cx="1182" cy="362" r="10" class="c0"/>
<circle cx="1218" cy="774" r="10" class="c0"/>
<circle cx="762" cy="810" r="10" class="c0"/>
<circle cx="1144" cy="1050" r="10" class="c0"/>
<circle cx="972" cy="994" r="10" class="c0"/>
<circle cx="1086" cy="840" r="10" class="c0"/>
<circle cx="940" cy="972" r="10" class="c0"/>
<circle cx="712" cy="1026" r="10" class="c0"/>
<circle cx="500" cy="918" r="10" class="c0"/>
<circle cx="1310" cy="1042" r="10" class="c0"/>
<circle cx="1422" cy="942" r="10" class="c0"/>
<circle cx="1376" cy="1002" r="10" class="c0"/>
<circle cx="652" cy="802" r="10" class="c0"/>
<circle cx="506" cy="788" r="10" class="c0"/>
<circle cx="1370" cy="796" r="10" class="c0"/>
<circle cx="882" cy="1032" r="10" class="c0"/>
<circle cx="1206" cy="1038" r="10" class="c0"/>
<circle cx="364" cy="834" r="10" class="c0"/>
<circle cx="1214" cy="588" r="10" class="c0"/>
<circle cx="900" cy="914" r="10" class="c0"/>
<circle cx="456" cy="904" r="10" class="c0"/>
<circle cx="790" cy="856" r="10" class="c0"/>
<circle cx="668" cy="1012" r="10" class="c0"/>
<circle cx="1188" cy="734" r="10" class="c0"/>
<circle cx="1216" cy="952" r="10" class="c0"/>
<circle cx="1176" cy="850" r="10" class="c0"/>
<circle cx="834" cy="934" r="10" class="c0"/>
<circle cx="444" cy="812" r="10" class="c0"/>
<circle cx="768" cy="1026" r="10" class="c0"/>
<circle cx="1188" cy="456" r="10" class="c0"/>
<circle cx="1174" cy="602" r="10" class="c0"/>
<circle cx="640" cy="848" r="10" class="c0"/>
<circle cx="538" cy="822" r="10" class="c0"/>
<circle cx="1440" cy="924" r="10" class="c0"/>
<circle cx="1296" cy="830" r="10" class="c0"/>
<circle cx="872" cy="816" r="10" class="c0"/>
<circle cx="744" cy="922" r="10" class="c0"/>
<circle cx="688" cy="800" r="10" class="c0"/>
<circle cx="1202" cy="852" r="10" class="c0"/>
<circle cx="1132" cy="994" r="10" class="c0"/>
<circle cx="1322" cy="1024" r="10" class="c0"/>
<circle cx="1318" cy="850" r="10" class="c0"/>
<circle cx="1030" cy="396" r="10" class="c0"/>
<circle cx="904" cy="1016" r="10" class="c0"/>
<circle cx="1184" cy="1034" r="10" class="c0"/>
<circle cx="1168" cy="766" r="10" class="c0"/>
<circle cx="482" cy="818" r="10" class="c0"/>
<circle cx="1242" cy="884" r="10" class="c0"/>
<circle cx="1408" cy="852" r="10" class="c0"/>
<circle cx="1382" cy="760" r="10" class="c0"/>
<circle cx="1330" cy="958" r="10" class="c0"/>
<circle cx="774" cy="946" r="10" class="c0"/>
<circle cx="1082" cy="670" r="10" class="c0"/>
<circle cx="1074" cy="972" r="10" class="c0"/>
<circle cx="1162" cy="638" r="10" class="c0"/>
<circle cx="380" cy="792" r="10" class="c0"/>
<circle cx="854" cy="866" r="10" class="c0"/>
<circle cx="1278" cy="1000" r="10" class="c0"/>
<circle cx="1188" cy="654" r="10" class="c0"/>
<circle cx="1468" cy="796" r="10" class="c0"/>
<circle cx="1072" cy="870" r="10" class="c0"/>
<circle cx="1392" cy="970" r="10" class="c0"/>
<circle cx="978" cy="904" r="10" class="c0"/>
<circle cx="922" cy="956" r="10" class="c0"/>
<circle cx="1368" cy="982" r="10" class="c0"/>
<circle cx="1210" cy="694" r="10" class="c0"/>
<circle cx="690" cy="892" r="10" class="c0"/>
<circle cx="1392" cy="932" r="10" class="c0"/>
<circle cx="1418" cy="908" r="10" class="c0"/>
<circle cx="1014" cy="908" r="10" class="c0"/>
<circle cx="1204" cy="940" r="10" class="c0"/>
<circle cx="1176" cy="696" r="10" class="c0"/>
<circle cx="1196" cy="558" r="10" class="c0"/>
<circle cx="766" cy="974" r="10" class="c0"/>
<circle cx="564" cy="830" r="10" class="c0"/>
<circle cx="838" cy="994" r="10" class="c0"/>
<circle cx="1360" cy="934" r="10" class="c0"/>
<circle cx="792" cy="936" r="10" class="c0"/>
<circle cx="1524" cy="740" r="10" class="c0"/>
<circle cx="1234" cy="860" r="10" class="c0"/>
<circle cx="1268" cy="1020" r="10" class="c0"/>
<circle cx="1012" cy="976" r="10" class="c0"/>
<circle cx="806" cy="976" r="10" class="c0"/>
<circle cx="1144" cy="608" r="10" class="c0"/>
<circle cx="880" cy="964" r="10" class="c0"/>
<circle cx="1196" cy="606" r="10" class="c0"/>
<circle cx="864" cy="998" r="10" class="c0"/>
<circle cx="1158" cy="494" r="10" class="c0"/>
<circle cx="996" cy="846" r="10" class="c0"/>
<circle cx="1206" cy="762" r="10" class="c0"/>
<circle cx="1394" cy="816" r="10" class="c0"/>
<circle cx="856" cy="960" r="10" class="c0"/>
<circle cx="924" cy="902" r="10" class="c0"/>
<circle cx="1042" cy="728" r="10" class="c0"/>
<circle cx="432" cy="782" r="10" class="c0"/>
<circle cx="398" cy="820" r="10" class="c0"/>
<circle cx="412" cy="838" r="10" class="c0"/>
<circle cx="868" cy="910" r="10" class="c0"/>
<circle cx="1246" cy="950" r="10" class="c0"/>
<circle cx="1132" cy="946" r="10" class="c0"/>
<circle cx="570" cy="872" r="10" class="c0"/>
<circle cx="696" cy="946" r="10" class="c0"/>
<circle cx="1270" cy="966" r="10" class="c0"/>
<circle cx="438" cy="890" r="10" class="c0"/>
<circle cx="1558" cy="676" r="10" class="c0"/>
<circle cx="1160" cy="570" r="10" class="c0"/>
<circle cx="360" cy="868" r="10" class="c0"/>
<circle cx="1018" cy="884" r="10" class="c0"/>
<circle cx="1394" cy="904" r="10" class="c0"/>
<circle cx="1308" cy="936" r="10" class="c0"/>
<circle cx="844" cy="1030" r="10" class="c0"/>
<circle cx="326" cy="806" r="10" class="c0"/>
<circle cx="1500" cy="792" r="10" class="c0"/>
<circle cx="1322" cy="910" r="10" class="c0"/>
<circle cx="442" cy="844" r="10" class="c0"/>
<circle cx="702" cy="876" r="10" class="c0"/>
<circle cx="568" cy="926" r="10" class="c0"/>
<circle cx="1338" cy="784" r="10" class="c0"/>
<circle cx="1256" cy="980" r="10" class="c0"/>
<circle cx="1042" cy="1020" r="10" class="c0"/>
<circle cx="1290" cy="808" r="10" class="c0"/>
<circle cx="510" cy="898" r="10" class="c0"/>
<circle cx="1436" cy="766" r="10" class="c0"/>
<circle cx="1120" cy="668" r="10" class="c0"/>
<circle cx="314" cy="786" r="10" class="c0"/>
<circle cx="1370" cy="904" r="10" class="c0"/>
<circle cx="738" cy="986" r="10" class="c0"/>
<circle cx="696" cy="852" r="10" class="c0"/>
<circle cx="1118" cy="418" r="10" class="c0"/>
<circle cx="750" cy="952" r="10" class="c0"/>
<circle cx="1338" cy="812" r="10" class="c0"/>
<circle cx="1146" cy="906" r="10" class="c0"/>
<circle cx="624" cy="916" r="10" class="c0"/>
<circle cx="1198" cy="986" r="10" class="c0"/>
<circle cx="1100" cy="974" r="10" class="c0"/>
<circle cx="862" cy="1044" r="10" class="c0"/>
<circle cx="756" cy="1002" r="10" class="c0"/>
<circle cx="1126" cy="390" r="10" class="c0"/>
<circle cx="1550" cy="746" r="8" class="c0"/>
<circle cx="554" cy="906" r="8" class="c0"/>
<circle cx="1220" cy="806" r="8" class="c0"/>
<circle cx="408" cy="880" r="8" class="c0"/>
<circle cx="932" cy="838" r="8" class="c0"/>
<circle cx="538" cy="792" r="8" class="c0"/>
<circle cx="684" cy="864" r="8" class="c0"/>
<circle cx="698" cy="918" r="8" class="c0"/>
<circle cx="892" cy="848" r="8" class="c0"/>
<circle cx="494" cy="800" r="8" class="c0"/>
<circle cx="1238" cy="498" r="8" class="c0"/>
<circle cx="618" cy="798" r="8" class="c0"/>
<circle cx="932" cy="864" r="8" class="c0"/>
<circle cx="1352" cy="992" r="8" class="c0"/>
<circle cx="992" cy="1018" r="8" class="c0"/>
<circle cx="1184" cy="894" r="8" class="c0"/>
<circle cx="1164" cy="1054" r="8" class="c0"/>
<circle cx="688" cy="978" r="8" class="c0"/>
<circle cx="978" cy="868" r="8" class="c0"/>
<circle cx="1490" cy="774" r="8" class="c0"/>
<circle cx="490" cy="766" r="8" class="c0"/>
<circle cx="1530" cy="784" r="8" class="c0"/>
<circle cx="350" cy="818" r="8" class="c0"/>
<circle cx="800" cy="1002" r="8" class="c0"/>
<circle cx="600" cy="908" r="8" class="c0"/>
<circle cx="1060" cy="752" r="8" class="c0"/>
<circle cx="1344" cy="854" r="8" class="c0"/>
<circle cx="1168" cy="458" r="8" class="c0"/>
<circle cx="1554" cy="726" r="8" class="c0"/>
<circle cx="880" cy="892" r="8" class="c0"/>
<circle cx="1078" cy="704" r="8" class="c0"/>
<circle cx="928" cy="990" r="8" class="c0"/>
<circle cx="1034" cy="922" r="8" class="c0"/>
<circle cx="790" cy="804" r="8" class="c0"/>
<circle cx="1110" cy="686" r="8" class="c0"/>
<circle cx="1062" cy="676" r="8" class="c0"/>
<circle cx="764" cy="856" r="8" class="c0"/>
<circle cx="836" cy="858" r="8" class="c0"/>
<circle cx="944" cy="906" r="8" class="c0"/>
<circle cx="1578" cy="656" r="8" class="c0"/>
<circle cx="970" cy="846" r="8" class="c0"/>
<circle cx="394" cy="900" r="8" class="c0"/>
<circle cx="564" cy="894" r="8" class="c0"/>
<circle cx="578" cy="810" r="8" class="c0"/>
<circle cx="742" cy="880" r="8" class="c0"/>
<circle cx="784" cy="1044" r="8" class="c0"/>
<circle cx="1488" cy="808" r="8" class="c0"/>
<circle cx="782" cy="918" r="8" class="c0"/>
<circle cx="1046" cy="876" r="8" class="c0"/>
<circle cx="948" cy="1026" r="8" class="c0"/>
<circle cx="1014" cy="488" r="8" class="c0"/>
<circle cx="1144" cy="930" r="8" class="c0"/>
<circle cx="516" cy="870" r="8" class="c0"/>
<circle cx="1100" cy="996" r="8" class="c0"/>
<circle cx="996" cy="824" r="8" class="c0"/>
<circle cx="804" cy="894" r="8" class="c0"/>
<circle cx="1108" cy="926" r="8" class="c0"/>
<circle cx="944" cy="852" r="8" class="c0"/>
<circle cx="1478" cy="762" r="8" class="c0"/>
<circle cx="1106" cy="1028" r="8" class="c0"/>
<circle cx="806" cy="924" r="8" class="c0"/>
<circle cx="756" cy="834" r="8" class="c0"/>
<circle cx="594" cy="856" r="8" class="c0"/>
<circle cx="606" cy="882" r="8" class="c0"/>
<circle cx="1190" cy="496" r="8" class="c0"/>
<circle cx="722" cy="798" r="8" class="c0"/>
<circle cx="1150" cy="432" r="8" class="c0"/>
<circle cx="882" cy="990" r="8" class="c0"/>
<circle cx="1094" cy="942" r="8" class="c0"/>
<circle cx="1512" cy="726" r="8" class="c0"/>
<circle cx="1308" cy="778" r="8" class="c0"/>
<circle cx="1332" cy="1046" r="8" class="c0"/>
<circle cx="548" cy="804" r="8" class="c0"/>
<circle cx="1252" cy="848" r="8" class="c0"/>
<circle cx="1316" cy="976" r="8" class="c0"/>
<circle cx="1130" cy="760" r="8" class="c0"/>
<circle cx="540" cy="772" r="8" class="c0"/>
<circle cx="368" cy="806" r="8" class="c0"/>
<circle cx="736" cy="840" r="8" class="c0"/>
<circle cx="872" cy="840" r="8" class="c0"/>
<circle cx="588" cy="962" r="8" class="c0"/>
<circle cx="1312" cy="894" r="8" class="c0"/>
<circle cx="1164" cy="376" r="8" class="c0"/>
<circle cx="938" cy="1016" r="8" class="c0"/>
<circle cx="1276" cy="792" r="8" class="c0"/>
<circle cx="1474" cy="862" r="8" class="c0"/>
<circle cx="1286" cy="934" r="8" class="c0"/>
<circle cx="1164" cy="1024" r="8" class="c0"/>
<circle cx="722" cy="932" r="8" class="c0"/>
<circle cx="1076" cy="912" r="8" class="c0"/>
<circle cx="916" cy="924" r="8" class="c0"/>
<circle cx="1162" cy="724" r="8" class="c0"/>
<circle cx="908" cy="990" r="8" class="c0"/>
<circle cx="624" cy="960" r="8" class="c0"/>
<circle cx="698" cy="968" r="8" class="c0"/>
<circle cx="668" cy="872" r="8" class="c0"/>
<circle cx="728" cy="1012" r="8" class="c0"/>
<circle cx="536" cy="880" r="8" class="c0"/>
<circle cx="1424" cy="862" r="8" class="c0"/>
<circle cx="658" cy="942" r="8" class="c0"/>
<circle cx="1132" cy="338" r="8" class="c0"/>
<circle cx="1148" cy="664" r="8" class="c0"/>
<circle cx="640" cy="874" r="8" class="c0"/>
<circle cx="812" cy="1060" r="8" class="c0"/>
<circle cx="1382" cy="784" r="8" class="c0"/>
<circle cx="1064" cy="826" r="8" class="c0"/>
<circle cx="1158" cy="996" r="8" class="c0"/>
<circle cx="562" cy="770" r="8" class="c0"/>
<circle cx="1130" cy="646" r="8" class="c0"/>
<circle cx="1074" cy="942" r="8" class="c0"/>
<circle cx="1396" cy="866" r="8" class="c0"/>
<circle cx="1180" cy="820" r="8" class="c0"/>
<circle cx="1366" cy="854" r="8" class="c0"/>
<circle cx="1326" cy="870" r="8" class="c0"/>
<circle cx="722" cy="880" r="8" class="c0"/>
<circle cx="1354" cy="826" r="8" class="c0"/>
<circle cx="508" cy="834" r="8" class="c0"/>
<circle cx="1288" cy="862" r="8" class="c0"/>
<circle cx="1456" cy="782" r="8" class="c0"/>
<circle cx="1166" cy="678" r="8" class="c0"/>
<circle cx="1048" cy="976" r="8" class="c0"/>
<circle cx="1116" cy="1054" r="8" class="c0"/>
<circle cx="852" cy="846" r="8" class="c0"/>
<circle cx="1218" cy="1020" r="8" class="c0"/>
<circle cx="738" cy="808" r="8" class="c0"/>
<circle cx="1556" cy="652" r="8" class="c0"/>
<circle cx="1122" cy="976" r="8" class="c0"/>
<circle cx="1352" cy="888" r="8" class="c0"/>
<circle cx="728" cy="952" r="8" class="c0"/>
<circle cx="1192" cy="382" r="8" class="c0"/>
<circle cx="972" cy="972" r="8" class="c0"/>
<circle cx="710" cy="1004" r="8" class="c0"/>
<circle cx="1148" cy="406" r="8" class="c0"/>
<circle cx="1198" cy="350" r="8" class="c0"/>
<circle cx="980" cy="1030" r="8" class="c0"/>
<circle cx="630" cy="770" r="8" class="c0"/>
<circle cx="976" cy="824" r="8" class="c0"/>
<circle cx="808" cy="800" r="8" class="c0"/>
<circle cx="1118" cy="1012" r="8" class="c0"/>
<circle cx="1278" cy="852" r="8" class="c0"/>
<circle cx="1298" cy="1020" r="8" class="c0"/>
<circle cx="1164" cy="864" r="8" class="c0"/>
<circle cx="758" cy="1046" r="8" class="c0"/>
<circle cx="1228" cy="972" r="8" class="c0"/>
<circle cx="1156" cy="754" r="8" class="c0"/>
<circle cx="1216" cy="1000" r="8" class="c0"/>
<circle cx="1214" cy="488" r="8" class="c0"/>
<circle cx="1106" cy="862" r="8" class="c0"/>
<circle cx="1036" cy="958" r="8" class="c0"/>
<circle cx="1436" cy="832" r="8" class="c0"/>
<circle cx="950" cy="886" r="8" class="c0"/>
<circle cx="1044" cy="704" r="8" class="c0"/>
<circle cx="336" cy="786" r="8" class="c0"/>
<circle cx="1034" cy="898" r="8" class="c0"/>
<circle cx="1074" cy="736" r="8" class="c0"/>
<circle cx="1448" cy="750" r="8" class="c0"/>
<circle cx="1192" cy="476" r="8" class="c0"/>
<circle cx="1138" cy="680" r="8" class="c0"/>
<circle cx="1054" cy="860" r="8" class="c0"/>
<circle cx="696" cy="830" r="8" class="c0"/>
<circle cx="1186" cy="754" r="8" class="c0"/>
<circle cx="1136" cy="510" r="8" class="c0"/>
<circle cx="460" cy="834" r="8" class="c0"/>
<circle cx="956" cy="864" r="8" class="c0"/>
<circle cx="782" cy="832" r="8" class="c0"/>
<circle cx="1190" cy="798" r="8" class="c0"/>
<circle cx="1168" cy="438" r="8" class="c0"/>
<circle cx="364" cy="780" r="8" class="c0"/>
<circle cx="820" cy="1018" r="8" class="c0"/>
<circle cx="1368" cy="1028" r="8" class="c0"/>
<circle cx="1256" cy="802" r="8" class="c0"/>
<circle cx="1238" cy="712" r="8" class="c0"/>
<circle cx="814" cy="872" r="8" class="c0"/>
<circle cx="1190" cy="528" r="8" class="c0"/>
<circle cx="496" cy="846" r="8" class="c0"/>
<circle cx="590" cy="944" r="8" class="c0"/>
<circle cx="718" cy="828" r="8" class="c0"/>
<circle cx="598" cy="838" r="8" class="c0"/>
<circle cx="1174" cy="946" r="8" class="c0"/>
<circle cx="346" cy="856" r="8" class="c0"/>
<circle cx="820" cy="956" r="8" class="c0"/>
<circle cx="914" cy="854" r="8" class="c0"/>
<circle cx="964" cy="918" r="8" class="c0"/>
<circle cx="1122" cy="800" r="8" class="c0"/>
<circle cx="1092" cy="690" r="8" class="c0"/>
<circle cx="676" cy="812" r="8" class="c0"/>
<circle cx="798" cy="956" r="8" class="c0"/>
<circle cx="1162" cy="416" r="8" class="c0"/>
<circle cx="902" cy="1038" r="8" class="c0"/>
<circle cx="448" cy="864" r="8" class="c0"/>
<circle cx="1330" cy="992" r="8" class="c0"/>
<circle cx="772" cy="876" r="8" class="c0"/>
<circle cx="1472" cy="890" r="8" class="c0"/>
<circle cx="1158" cy="890" r="8" class="c0"/>
<circle cx="1378" cy="944" r="8" class="c0"/>
<circle cx="788" cy="966" r="8" class="c0"/>
<circle cx="1238" cy="772" r="8" class="c0"/>
<circle cx="1106" cy="656" r="8" class="c0"/>
<circle cx="1016" cy="516" r="8" class="c0"/>
<circle cx="710" cy="896" r="8" class="c0"/>
<circle cx="858" cy="938" r="8" class="c0"/>
<circle cx="1492" cy="752" r="8" class="c0"/>
<circle cx="1116" cy="890" r="8" class="c0"/>
<circle cx="1414" cy="974" r="8" class="c0"/>
<circle cx="1186" cy="338" r="8" class="c0"/>
<circle cx="1228" cy="926" r="8" class="c0"/>
<circle cx="580" cy="844" r="8" class="c0"/>
<circle cx="676" cy="948" r="8" class="c0"/>
<circle cx="1080" cy="758" r="8" class="c0"/>
<circle cx="1184" cy="624" r="8" class="c0"/>
<circle cx="990" cy="924" r="8" class="c0"/>
<circle cx="1468" cy="742" r="8" class="c0"/>
<circle cx="832" cy="1042" r="8" class="c0"/>
<circle cx="996" cy="1000" r="8" class="c0"/>
<circle cx="1232" cy="638" r="8" class="c0"/>
<circle cx="1460" cy="904" r="8" class="c0"/>
<circle cx="1298" cy="880" r="8" class="c0"/>
<circle cx="1200" cy="718" r="8" class="c0"/>
<circle cx="1316" cy="794" r="8" class="c0"/>
<circle cx="1190" cy="836" r="8" class="c0"/>
<circle cx="1274" cy="880" r="8" class="c0"/>
<circle cx="1384" cy="886" r="8" class="c0"/>
<circle cx="778" cy="1064" r="8" class="c0"/>
<circle cx="1404" cy="994" r="8" class="c0"/>
<circle cx="1218" cy="872" r="8" class="c0"/>
<circle cx="1140" cy="480" r="8" class="c0"/>
<circle cx="640" cy="818" r="8" class="c0"/>
<circle cx="1200" cy="786" r="8" class="c0"/>
<circle cx="428" cy="874" r="8" class="c0"/>
<circle cx="724" cy="856" r="8" class="c0"/>
<circle cx="954" cy="1008" r="8" class="c0"/>
<circle cx="742" cy="1056" r="8" class="c0"/>
<circle cx="1226" cy="828" r="8" class="c0"/>
<circle cx="1174" cy="542" r="8" class="c0"/>
<circle cx="1194" cy="874" r="8" class="c0"/>
<circle cx="1244" cy="1026" r="8" class="c0"/>
<circle cx="914" cy="816" r="8" class="c0"/>
<circle cx="1022" cy="1028" r="8" class="c0"/>
<circle cx="784" cy="892" r="8" class="c0"/>
<circle cx="1308" cy="960" r="8" class="c0"/>
<circle cx="1332" cy="888" r="8" class="c0"/>
<circle cx="1172" cy="910" r="8" class="c0"/>
<circle cx="430" cy="828" r="8" class="c0"/>
<circle cx="1002" cy="956" r="8" class="c0"/>
<circle cx="732" cy="910" r="8" class="c0"/>
<circle cx="1190" cy="434" r="8" class="c0"/>
<circle cx="1014" cy="598" r="8" class="c0"/>
<circle cx="1012" cy="574" r="8" class="c0"/>
<circle cx="1340" cy="836" r="8" class="c0"/>
<circle cx="1484" cy="850" r="8" class="c0"/>
<circle cx="606" cy="964" r="8" class="c0"/>
<circle cx="1314" cy="818" r="8" class="c0"/>
<circle cx="354" cy="794" r="8" class="c0"/>
<circle cx="1120" cy="614" r="8" class="c0"/>
<circle cx="516" cy="814" r="8" class="c0"/>
<circle cx="1024" cy="938" r="8" class="c0"/>
<circle cx="1112" cy="630" r="8" class="c0"/>
<circle cx="1350" cy="766" r="8" class="c0"/>
<circle cx="628" cy="832" r="8" class="c0"/>
<circle cx="916" cy="1028" r="8" class="c0"/>
<circle cx="1230" cy="738" r="8" class="c0"/>
<circle cx="910" cy="884" r="8" class="c0"/>
<circle cx="1236" cy="994" r="8" class="c0"/>
<circle cx="848" cy="804" r="8" class="c0"/>
<circle cx="1314" cy="1006" r="8" class="c0"/>
<circle cx="624" cy="894" r="8" class="c0"/>
<circle cx="1562" cy="710" r="8" class="c0"/>
<circle cx="1268" cy="946" r="8" class="c0"/>
<circle cx="1094" cy="634" r="8" class="c0"/>
<circle cx="1240" cy="838" r="8" class="c0"/>
<circle cx="828" cy="842" r="8" class="c0"/>
<circle cx="1280" cy="1032" r="8" class="c0"/>
<circle cx="1420" cy="816" r="8" class="c0"/>
<circle cx="418" cy="794" r="8" class="c0"/>
<circle cx="740" cy="790" r="8" class="c0"/>
<circle cx="510" cy="768" r="8" class="c0"/>
<circle cx="602" cy="766" r="8" class="c0"/>
<circle cx="696" cy="994" r="8" class="c0"/>
<circle cx="422" cy="916" r="8" class="c0"/>
<circle cx="834" cy="968" r="8" class="c0"/>
<circle cx="1342" cy="982" r="8" class="c0"/>
<circle cx="824" cy="882" r="8" class="c0"/>
<circle cx="1076" cy="1050" r="8" class="c0"/>
<circle cx="1006" cy="868" r="8" class="c0"/>
<circle cx="700" cy="784" r="8" class="c0"/>
<circle cx="1136" cy="728" r="8" class="c0"/>
<circle cx="850" cy="1010" r="8" class="c0"/>
<circle cx="1144" cy="368" r="8" class="c0"/>
<circle cx="646" cy="1006" r="8" class="c0"/>
<circle cx="400" cy="798" r="8" class="c0"/>
<circle cx="1024" cy="438" r="8" class="c0"/>
<circle cx="1112" cy="344" r="8" class="c0"/>
<circle cx="1010" cy="548" r="8" class="c0"/>
<circle cx="1182" cy="1010" r="8" class="c0"/>
<circle cx="670" cy="992" r="8" class="c0"/>
<circle cx="644" cy="924" r="8" class="c0"/>
<circle cx="1372" cy="874" r="8" class="c0"/>
<circle cx="1158" cy="524" r="8" class="c0"/>
<circle cx="868" cy="1018" r="8" class="c0"/>
<circle cx="1144" cy="1016" r="8" class="c0"/>
<circle cx="640" cy="944" r="8" class="c0"/>
<circle cx="1236" cy="620" r="8" class="c0"/>
<circle cx="908" cy="834" r="8" class="c0"/>
<circle cx="1416" cy="888" r="8" class="c0"/>
<circle cx="1134" cy="1030" r="8" class="c0"/>
<circle cx="1362" cy="1046" r="8" class="c0"/>
<circle cx="1286" cy="954" r="8" class="c0"/>
<circle cx="1054" cy="932" r="8" class="c0"/>
<circle cx="1104" cy="716" r="8" class="c0"/>
<circle cx="970" cy="1016" r="8" class="c0"/>
<circle cx="776" cy="1004" r="8" class="c0"/>
<circle cx="1222" cy="848" r="8" class="c0"/>
<circle cx="1400" cy="772" r="8" class="c0"/>
<circle cx="1190" cy="678" r="8" class="c0"/>
<circle cx="1232" cy="1040" r="8" class="c0"/>
<circle cx="464" cy="884" r="8" class="c0"/>
<circle cx="620" cy="864" r="8" class="c0"/>
<circle cx="1208" cy="368" r="8" class="c0"/>
<circle cx="1110" cy="908" r="8" class="c0"/>
<circle cx="1148" cy="852" r="8" class="c0"/>
<circle cx="496" cy="872" r="8" class="c0"/>
<circle cx="722" cy="1042" r="8" class="c0"/>
<circle cx="1400" cy="950" r="8" class="c0"/>
<circle cx="898" cy="974" r="8" class="c0"/>
<circle cx="1126" cy="920" r="8" class="c0"/>
<circle cx="1236" cy="818" r="8" class="c0"/>
<circle cx="1248" cy="664" r="8" class="c0"/>
<circle cx="1208" cy="674" r="8" class="c0"/>
<circle cx="396" cy="772" r="8" class="c0"/>
<circle cx="388" cy="836" r="8" class="c0"/>
<circle cx="1130" cy="582" r="8" class="c0"/>
<circle cx="992" cy="888" r="8" class="c0"/>
<circle cx="658" cy="858" r="8" class="c0"/>
<circle cx="1164" cy="932" r="8" class="c0"/>
<circle cx="1244" cy="904" r="8" class="c0"/>
<circle cx="1194" cy="634" r="8" class="c0"/>
<circle cx="636" cy="792" r="8" class="c0"/>
<circle cx="1048" cy="834" r="8" class="c0"/>
<circle cx="1016" cy="418" r="8" class="c0"/>
<circle cx="888" cy="826" r="8" class="c0"/>
<circle cx="534" cy="904" r="8" class="c0"/>
<circle cx="1522" cy="716" r="8" class="c0"/>
<circle cx="764" cy="916" r="8" class="c0"/>
<circle cx="1254" cy="1040" r="8" class="c0"/>
<circle cx="1012" cy="466" r="8" class="c0"/>
<circle cx="1446" cy="846" r="8" class="c0"/>
<circle cx="1060" cy="952" r="8" class="c0"/>
<circle cx="1090" cy="728" r="8" class="c0"/>
<circle cx="1200" cy="964" r="8" class="c0"/>
<circle cx="708" cy="982" r="8" class="c0"/>
<circle cx="1196" cy="1022" r="8" class="c0"/>
<circle cx="670" cy="776" r="8" class="c0"/>
<circle cx="1120" cy="830" r="8" class="c0"/>
<circle cx="1094" cy="746" r="8" class="c0"/>
<circle cx="1508" cy="820" r="8" class="c0"/>
<circle cx="772" cy="794" r="8" class="c0"/>
<circle cx="850" cy="824" r="8" class="c0"/>
<circle cx="1248" cy="1006" r="8" class="c0"/>
<circle cx="1206" cy="1010" r="8" class="c0"/>
<circle cx="810" cy="854" r="8" class="c0"/>
<circle cx="1536" cy="674" r="8" class="c0"/>
<circle cx="696" cy="1014" r="8" class="c0"/>
<circle cx="1098" cy="388" r="8" class="c0"/>
<circle cx="800" cy="830" r="8" class="c0"/>
<circle cx="1514" cy="760" r="8" class="c0"/>
<circle cx="1172" cy="790" r="8" class="c0"/>
<circle cx="1148" cy="872" r="8" class="c0"/>
<circle cx="528" cy="802" r="8" class="c0"/>
<circle cx="798" cy="1070" r="8" class="c0"/>
<circle cx="1174" cy="506" r="8" class="c0"/>
<circle cx="990" cy="968" r="6" class="c0"/>
<circle cx="1006" cy="636" r="6" class="c0"/>
<circle cx="554" cy="784" r="6" class="c0"/>
<circle cx="1164" cy="740" r="6" class="c0"/>
<circle cx="1324" cy="832" r="6" class="c0"/>
<circle cx="828" cy="916" r="6" class="c0"/>
<circle cx="1024" cy="374" r="6" class="c0"/>
<circle cx="1342" cy="876" r="6" class="c0"/>
<circle cx="476" cy="928" r="6" class="c0"/>
<circle cx="1456" cy="866" r="6" class="c0"/>
<circle cx="1146" cy="628" r="6" class="c0"/>
<circle cx="1094" cy="1052" r="6" class="c0"/>
<circle cx="1060" cy="714" r="6" class="c0"/>
<circle cx="1424" cy="960" r="6" class="c0"/>
<circle cx="1366" cy="816" r="6" class="c0"/>
<circle cx="568" cy="948" r="6" class="c0"/>
<circle cx="588" cy="880" r="6" class="c0"/>
<circle cx="422" cy="856" r="6" class="c0"/>
<circle cx="1438" cy="906" r="6" class="c0"/>
<circle cx="918" cy="976" r="6" class="c0"/>
<circle cx="618" cy="844" r="6" class="c0"/>
<circle cx="700" cy="1038" r="6" class="c0"/>
<circle cx="452" cy="768" r="6" class="c0"/>
<circle cx="786" cy="1022" r="6" class="c0"/>
<circle cx="546" cy="920" r="6" class="c0"/>
<circle cx="1166" cy="656" r="6" class="c0"/>
<circle cx="914" cy="940" r="6" class="c0"/>
<circle cx="1140" cy="570" r="6" class="c0"/>
<circle cx="1150" cy="952" r="6" class="c0"/>
<circle cx="1254" cy="868" r="6" class="c0"/>
<circle cx="898" cy="814" r="6" class="c0"/>
<circle cx="484" cy="782" r="6" class="c0"/>
<circle cx="1354" cy="914" r="6" class="c0"/>
<circle cx="1128" cy="778" r="6" class="c0"/>
<circle cx="752" cy="870" r="6" class="c0"/>
<circle cx="1212" cy="914" r="6" class="c0"/>
<circle cx="1014" cy="450" r="6" class="c0"/>
<circle cx="824" cy="984" r="6" class="c0"/>
<circle cx="1004" cy="668" r="6" class="c0"/>
<circle cx="1030" cy="338" r="6" class="c0"/>
<circle cx="892" cy="1000" r="6" class="c0"/>
<circle cx="1206" cy="466" r="6" class="c0"/>
<circle cx="1040" cy="990" r="6" class="c0"/>
<circle cx="616" cy="988" r="6" class="c0"/>
<circle cx="1078" cy="774" r="6" class="c0"/>
<circle cx="852" cy="980" r="6" class="c0"/>
<circle cx="984" cy="946" r="6" class="c0"/>
<circle cx="1006" cy="934" r="6" class="c0"/>
<circle cx="1136" cy="892" r="6" class="c0"/>
<circle cx="1112" cy="942" r="6" class="c0"/>
<circle cx="1112" cy="960" r="6" class="c0"/>
<circle cx="976" cy="936" r="6" class="c0"/>
<circle cx="1364" cy="836" r="6" class="c0"/>
<circle cx="480" cy="840" r="6" class="c0"/>
<circle cx="740" cy="862" r="6" class="c0"/>
<circle cx="1410" cy="762" r="6" class="c0"/>
<circle cx="1034" cy="864" r="6" class="c0"/>
<circle cx="1544" cy="772" r="6" class="c0"/>
<circle cx="824" cy="802" r="6" class="c0"/>
<circle cx="652" cy="776" r="6" class="c0"/>
<circle cx="1182" cy="776" r="6" class="c0"/>
<circle cx="1346" cy="946" r="6" class="c0"/>
<circle cx="1188" cy="402" r="6" class="c0"/>
<circle cx="572" cy="790" r="6" class="c0"/>
<circle cx="1074" cy="654" r="6" class="c0"/>
<circle cx="1154" cy="470" r="6" class="c0"/>
<circle cx="896" cy="948" r="6" class="c0"/>
<circle cx="920" cy="1008" r="6" class="c0"/>
<circle cx="1462" cy="844" r="6" class="c0"/>
<circle cx="784" cy="990" r="6" class="c0"/>
<circle cx="466" cy="764" r="6" class="c0"/>
<circle cx="960" cy="902" r="6" class="c0"/>
<circle cx="712" cy="960" r="6" class="c0"/>
<circle cx="1064" cy="692" r="6" class="c0"/>
<circle cx="576" cy="906" r="6" class="c0"/>
<circle cx="524" cy="856" r="6" class="c0"/>
<circle cx="930" cy="822" r="6" class="c0"/>
<circle cx="990" cy="984" r="6" class="c0"/>
<circle cx="412" cy="906" r="6" class="c0"/>
<circle cx="856" cy="888" r="6" class="c0"/>
<circle cx="1566" cy="694" r="6" class="c0"/>
<circle cx="1104" cy="406" r="6" class="c0"/>
<circle cx="612" cy="830" r="6" class="c0"/>
<circle cx="1256" cy="708" r="6" class="c0"/>
<circle cx="678" cy="1028" r="6" class="c0"/>
<circle cx="1082" cy="1004" r="6" class="c0"/>
<circle cx="1154" cy="588" r="6" class="c0"/>
<circle cx="1222" cy="724" r="6" class="c0"/>
<circle cx="1024" cy="760" r="6" class="c0"/>
<circle cx="722" cy="970" r="6" class="c0"/>
<circle cx="1356" cy="782" r="6" class="c0"/>
<circle cx="1220" cy="708" r="6" class="c0"/>
<circle cx="1386" cy="1024" r="6" class="c0"/>
<circle cx="1356" cy="866" r="6" class="c0"/>
<circle cx="1092" cy="916" r="6" class="c0"/>
<circle cx="1062" cy="842" r="6" class="c0"/>
<circle cx="1074" cy="890" r="6" class="c0"/>
<circle cx="1110" cy="846" r="6" class="c0"/>
<circle cx="1178" cy="560" r="6" class="c0"/>
<circle cx="1404" cy="918" r="6" class="c0"/>
<circle cx="796" cy="876" r="6" class="c0"/>
<circle cx="1170" cy="482" r="6" class="c0"/>
<circle cx="1410" cy="828" r="6" class="c0"/>
<circle cx="974" cy="884" r="6" class="c0"/>
<circle cx="1034" cy="744" r="6" class="c0"/>
<circle cx="534" cy="864" r="6" class="c0"/>
<circle cx="662" cy="820" r="6" class="c0"/>
<circle cx="556" cy="856" r="6" class="c0"/>
<circle cx="734" cy="824" r="6" class="c0"/>
<circle cx="1062" cy="1034" r="6" class="c0"/>
<circle cx="1062" cy="780" r="6" class="c0"/>
<circle cx="1342" cy="902" r="6" class="c0"/>
<circle cx="1164" cy="830" r="6" class="c0"/>
<circle cx="738" cy="966" r="6" class="c0"/>
<circle cx="1382" cy="916" r="6" class="c0"/>
<circle cx="896" cy="876" r="6" class="c0"/>
<circle cx="920" cy="874" r="6" class="c0"/>
<circle cx="1364" cy="774" r="6" class="c0"/>
<circle cx="646" cy="962" r="6" class="c0"/>
<circle cx="1352" cy="798" r="6" class="c0"/>
<circle cx="374" cy="852" r="6" class="c0"/>
<circle cx="1498" cy="840" r="6" class="c0"/>
<circle cx="1180" cy="716" r="6" class="c0"/>
<circle cx="1184" cy="1054" r="6" class="c0"/>
<circle cx="868" cy="876" r="6" class="c0"/>
<circle cx="1138" cy="802" r="6" class="c0"/>
<circle cx="1160" cy="616" r="6" class="c0"/>
<circle cx="1436" cy="786" r="6" class="c0"/>
<circle cx="468" cy="918" r="6" class="c0"/>
<circle cx="380" cy="890" r="6" class="c0"/>
<circle cx="1074" cy="380" r="6" class="c0"/>
<circle cx="1264" cy="904" r="6" class="c0"/>
<circle cx="1458" cy="920" r="6" class="c0"/>
<circle cx="666" cy="888" r="6" class="c0"/>
<circle cx="822" cy="902" r="6" class="c0"/>
<circle cx="1104" cy="616" r="6" class="c0"/>
<circle cx="1580" cy="674" r="6" class="c0"/>
<circle cx="704" cy="812" r="6" class="c0"/>
<circle cx="1004" cy="506" r="6" class="c0"/>
<circle cx="1172" cy="880" r="6" class="c0"/>
<circle cx="1102" cy="672" r="6" class="c0"/>
<circle cx="610" cy="780" r="6" class="c0"/>
<circle cx="1044" cy="754" r="6" class="c0"/>
<circle cx="1004" cy="652" r="6" class="c0"/>
<circle cx="856" cy="922" r="6" class="c0"/>
<circle cx="1520" cy="798" r="6" class="c0"/>
<circle cx="418" cy="890" r="6" class="c0"/>
<circle cx="1326" cy="772" r="6" class="c0"/>
<circle cx="1226" cy="756" r="6" class="c0"/>
<circle cx="1064" cy="922" r="6" class="c0"/>
<circle cx="952" cy="986" r="6" class="c0"/>
<circle cx="414" cy="774" r="6" class="c0"/>
<circle cx="586" cy="760" r="6" class="c0"/>
<circle cx="1240" cy="750" r="6" class="c0"/>
<circle cx="758" cy="936" r="6" class="c0"/>
<circle cx="1114" cy="758" r="6" class="c0"/>
<circle cx="1132" cy="430" r="6" class="c0"/>
<circle cx="1044" cy="942" r="6" class="c0"/>
<circle cx="558" cy="940" r="6" class="c0"/>
<circle cx="416" cy="812" r="6" class="c0"/>
<circle cx="1422" cy="776" r="6" class="c0"/>
<circle cx="396" cy="916" r="6" class="c0"/>
<circle cx="1294" cy="788" r="6" class="c0"/>
<circle cx="1054" cy="770" r="6" class="c0"/>
<circle cx="816" cy="992" r="6" class="c0"/>
<circle cx="1306" cy="918" r="6" class="c0"/>
<circle cx="1252" cy="822" r="6" class="c0"/>
<circle cx="522" cy="780" r="6" class="c0"/>
<circle cx="1212" cy="976" r="6" class="c0"/>
<circle cx="1298" cy="852" r="6" class="c0"/>
<circle cx="1086" cy="928" r="6" class="c0"/>
<circle cx="388" cy="882" r="6" class="c0"/>
<circle cx="1032" cy="824" r="6" class="c0"/>
<circle cx="1532" cy="762" r="6" class="c0"/>
<circle cx="1376" cy="826" r="6" class="c0"/>
<circle cx="932" cy="882" r="6" class="c0"/>
<circle cx="1228" cy="898" r="6" class="c0"/>
<circle cx="1120" cy="594" r="6" class="c0"/>
<circle cx="1570" cy="638" r="6" class="c0"/>
<circle cx="1238" cy="802" r="6" class="c0"/>
<circle cx="1290" cy="976" r="6" class="c0"/>
<circle cx="1090" cy="864" r="6" class="c0"/>
<circle cx="548" cy="866" r="6" class="c0"/>
<circle cx="584" cy="918" r="6" class="c0"/>
<circle cx="1174" cy="664" r="6" class="c0"/>
<circle cx="1018" cy="820" r="6" class="c0"/>
<circle cx="1190" cy="954" r="6" class="c0"/>
<circle cx="1188" cy="708" r="6" class="c0"/>
<circle cx="886" cy="1012" r="6" class="c0"/>
<circle cx="1154" cy="692" r="6" class="c0"/>
<circle cx="812" cy="942" r="6" class="c0"/>
<circle cx="1214" cy="568" r="6" class="c0"/>
<circle cx="1014" cy="620" r="6" class="c0"/>
<circle cx="732" cy="890" r="6" class="c0"/>
<circle cx="838" cy="1062" r="6" class="c0"/>
<circle cx="1422" cy="750" r="6" class="c0"/>
<circle cx="1536" cy="724" r="6" class="c0"/>
<circle cx="1140" cy="748" r="6" class="c0"/>
<circle cx="506" cy="936" r="6" class="c0"/>
<circle cx="1406" cy="876" r="6" class="c0"/>
<circle cx="934" cy="1036" r="6" class="c0"/>
<circle cx="1132" cy="358" r="6" class="c0"/>
<circle cx="376" cy="876" r="6" class="c0"/>
<circle cx="716" cy="782" r="6" class="c0"/>
<circle cx="1134" cy="842" r="6" class="c0"/>
<circle cx="670" cy="796" r="6" class="c0"/>
<circle cx="1084" cy="990" r="6" class="c0"/>
<circle cx="526" cy="840" r="6" class="c0"/>
<circle cx="1224" cy="606" r="6" class="c0"/>
<circle cx="1084" cy="956" r="6" class="c0"/>
<circle cx="1020" cy="1044" r="6" class="c0"/>
<circle cx="530" cy="760" r="6" class="c0"/>
<circle cx="1364" cy="758" r="6" class="c0"/>
<circle cx="1102" cy="1044" r="6" class="c0"/>
<circle cx="316" cy="820" r="6" class="c0"/>
<circle cx="1186" cy="936" r="6" class="c0"/>
<circle cx="1102" cy="830" r="6" class="c0"/>
<circle cx="1412" cy="928" r="6" class="c0"/>
<circle cx="796" cy="1054" r="6" class="c0"/>
<circle cx="674" cy="900" r="6" class="c0"/>
<circle cx="1118" cy="1038" r="6" class="c0"/>
<circle cx="1178" cy="422" r="6" class="c0"/>
<circle cx="1158" cy="842" r="6" class="c0"/>
<circle cx="722" cy="994" r="6" class="c0"/>
<circle cx="480" cy="876" r="6" class="c0"/>
<circle cx="1332" cy="1008" r="6" class="c0"/>
<circle cx="472" cy="804" r="6" class="c0"/>
<circle cx="630" cy="934" r="6" class="c0"/>
<circle cx="306" cy="804" r="6" class="c0"/>
<circle cx="1132" cy="966" r="6" class="c0"/>
<circle cx="1126" cy="464" r="6" class="c0"/>
<circle cx="716" cy="912" r="6" class="c0"/>
<circle cx="1510" cy="778" r="6" class="c0"/>
<circle cx="1204" cy="542" r="6" class="c0"/>
<circle cx="796" cy="908" r="6" class="c0"/>
<circle cx="1150" cy="712" r="6" class="c0"/>
<circle cx="1460" cy="762" r="6" class="c0"/>
<circle cx="1150" cy="388" r="6" class="c0"/>
<circle cx="1150" cy="736" r="6" class="c0"/>
<circle cx="1076" cy="720" r="6" class="c0"/>
<circle cx="1252" cy="680" r="6" class="c0"/>
<circle cx="878" cy="1052" r="6" class="c0"/>
<circle cx="1038" cy="768" r="6" class="c0"/>
<circle cx="1008" cy="1016" r="6" class="c0"/>
<circle cx="746" cy="850" r="6" class="c0"/>
<circle cx="492" cy="934" r="6" class="c0"/>
<circle cx="1154" cy="356" r="6" class="c0"/>
<circle cx="846" cy="1052" r="6" class="c0"/>
<circle cx="1030" cy="978" r="6" class="c0"/>
<circle cx="442" cy="914" r="6" class="c0"/>
<circle cx="1274" cy="924" r="6" class="c0"/>
<circle cx="1098" cy="1012" r="6" class="c0"/>
<circle cx="1482" cy="878" r="6" class="c0"/>
<circle cx="600" cy="790" r="6" class="c0"/>
<circle cx="1556" cy="766" r="6" class="c0"/>
<circle cx="1230" cy="942" r="6" class="c0"/>
<circle cx="1252" cy="506" r="6" class="c0"/>
<circle cx="1164" cy="804" r="6" class="c0"/>
<circle cx="506" cy="860" r="6" class="c0"/>
<circle cx="898" cy="896" r="6" class="c0"/>
<circle cx="1050" cy="688" r="6" class="c0"/>
<circle cx="1308" cy="866" r="6" class="c0"/>
<circle cx="590" cy="824" r="6" class="c0"/>
<circle cx="1130" cy="626" r="6" class="c0"/>
<circle cx="1424" cy="842" r="6" class="c0"/>
<circle cx="1040" cy="852" r="6" class="c0"/>
<circle cx="774" cy="904" r="6" class="c0"/>
<circle cx="1244" cy="968" r="6" class="c0"/>
<circle cx="1388" cy="990" r="6" class="c0"/>
<circle cx="1154" cy="1036" r="6" class="c0"/>
<circle cx="462" cy="814" r="6" class="c0"/>
<circle cx="1006" cy="684" r="6" class="c0"/>
<circle cx="756" cy="788" r="6" class="c0"/>
<circle cx="1060" cy="1054" r="6" class="c0"/>
<circle cx="1074" cy="852" r="6" class="c0"/>
<circle cx="1394" cy="1006" r="6" class="c0"/>
<circle cx="624" cy="814" r="6" class="c0"/>
<circle cx="1428" cy="800" r="6" class="c0"/>
<circle cx="552" cy="760" r="6" class="c0"/>
<circle cx="520" cy="914" r="6" class="c0"/>
<circle cx="1232" cy="1010" r="6" class="c0"/>
<circle cx="1090" cy="650" r="6" class="c0"/>
<circle cx="1242" cy="728" r="6" class="c0"/>
<circle cx="814" cy="910" r="6" class="c0"/>
<circle cx="762" cy="1062" r="6" class="c0"/>
<circle cx="546" cy="890" r="6" class="c0"/>
<circle cx="732" cy="870" r="6" class="c0"/>
<circle cx="1400" cy="752" r="6" class="c0"/>
<circle cx="1174" cy="994" r="6" class="c0"/>
<circle cx="1524" cy="692" r="6" class="c0"/>
<circle cx="1462" cy="880" r="6" class="c0"/>
<circle cx="1104" cy="878" r="6" class="c0"/>
<circle cx="906" cy="868" r="6" class="c0"/>
<circle cx="868" cy="976" r="6" class="c0"/>
<circle cx="474" cy="772" r="6" class="c0"/>
<circle cx="1204" cy="446" r="6" class="c0"/>
<circle cx="1266" cy="862" r="6" class="c0"/>
<circle cx="554" cy="880" r="6" class="c0"/>
<circle cx="1008" cy="532" r="6" class="c0"/>
<circle cx="406" cy="782" r="6" class="c0"/>
<circle cx="842" cy="884" r="6" class="c0"/>
<circle cx="712" cy="844" r="6" class="c0"/>
<circle cx="942" cy="998" r="6" class="c0"/>
<circle cx="1546" cy="662" r="6" class="c0"/>
<circle cx="1018" cy="958" r="6" class="c0"/>
<circle cx="1096" cy="762" r="6" class="c0"/>
<circle cx="1198" cy="902" r="6" class="c0"/>
<circle cx="630" cy="996" r="6" class="c0"/>
<circle cx="596" cy="872" r="6" class="c0"/>
<circle cx="1502" cy="740" r="6" class="c0"/>
<circle cx="378" cy="772" r="6" class="c0"/>
<circle cx="584" cy="894" r="6" class="c0"/>
<circle cx="562" cy="812" r="6" class="c0"/>
<circle cx="1064" cy="1020" r="6" class="c0"/>
<circle cx="1348" cy="1036" r="6" class="c0"/>
<circle cx="1164" cy="960" r="6" class="c0"/>
<circle cx="1320" cy="1056" r="6" class="c0"/>
<circle cx="1138" cy="418" r="6" class="c0"/>
<circle cx="1244" cy="648" r="6" class="c0"/>
<circle cx="1468" cy="772" r="6" class="c0"/>
<circle cx="376" cy="822" r="6" class="c0"/>
<circle cx="622" cy="976" r="6" class="c0"/>
<circle cx="682" cy="1002" r="6" class="c0"/>
<circle cx="1266" cy="840" r="6" class="c0"/>
<circle cx="1120" cy="714" r="6" class="c0"/>
<circle cx="1480" cy="784" r="6" class="c0"/>
<circle cx="346" cy="776" r="6" class="c0"/>
<circle cx="1128" cy="904" r="6" class="c0"/>
<circle cx="940" cy="950" r="6" class="c0"/>
<circle cx="1046" cy="344" r="6" class="c0"/>
<circle cx="1296" cy="1004" r="6" class="c0"/>
<circle cx="1086" cy="782" r="6" class="c0"/>
<circle cx="1452" cy="828" r="6" class="c0"/>
<circle cx="898" cy="934" r="6" class="c0"/>
<circle cx="1204" cy="644" r="6" class="c0"/>
<circle cx="652" cy="834" r="6" class="c0"/>
<circle cx="1440" cy="944" r="6" class="c0"/>
<circle cx="842" cy="950" r="6" class="c0"/>
<circle cx="942" cy="814" r="6" class="c0"/>
<circle cx="608" cy="980" r="6" class="c0"/>
<circle cx="780" cy="814" r="6" class="c0"/>
<circle cx="1492" cy="864" r="6" class="c0"/>
<circle cx="1220" cy="1050" r="6" class="c0"/>
<circle cx="1142" cy="348" r="6" class="c0"/>
<circle cx="1574" cy="686" r="6" class="c0"/>
<circle cx="1164" cy="708" r="6" class="c0"/>
<circle cx="1112" cy="986" r="6" class="c0"/>
<circle cx="1176" cy="326" r="6" class="c0"/>
<circle cx="1110" cy="820" r="6" class="c0"/>
<circle cx="1354" cy="844" r="6" class="c0"/>
<circle cx="1032" cy="414" r="6" class="c0"/>
</svg>
