<?xml version="1.0" encoding="utf-8"?>
<svg xmlns="http://www.w3.org/2000/svg"
     xmlns:xlink="http://www.w3.org/1999/xlink" width="1920" height="1440" >

            <defs>
            <style type="text/css"><![CDATA[
circle {stroke: none;}
.c0 {fill: #FFFFFF;}
]]></style>
            </defs>
<rect x="0" y="0" width="1920" height="1440" fill="black"/>
<circle cx="630" cy="924" r="14" class="c0"/>
<circle cx="1068" cy="968" r="14" class="c0"/>
<circle cx="836" cy="828" r="14" class="c0"/>
<circle cx="1022" cy="962" r="12" class="c0"/>
<circle cx="322" cy="852" r="12" class="c0"/>
<circle cx="1198" cy="906" r="12" class="c0"/>
<circle cx="1046" cy="836" r="12" class="c0"/>
<circle cx="912" cy="976" r="12" class="c0"/>
<circle cx="1178" cy="574" r="12" class="c0"/>
<circle cx="1190" cy="456" r="12" class="c0"/>
<circle cx="776" cy="930" r="12" class="c0"/>
<circle cx="1216" cy="734" r="12" class="c0"/>
<circle cx="840" cy="966" r="12" class="c0"/>
<circle cx="1174" cy="676" r="12" class="c0"/>
<circle cx="730" cy="930" r="12" class="c0"/>
<circle cx="1502" cy="752" r="12" class="c0"/>
<circle cx="654" cy="896" r="12" class="c0"/>
<circle cx="876" cy="816" r="12" class="c0"/>
<circle cx="836" cy="1032" r="12" class="c0"/>
<circle cx="1044" cy="946" r="12" class="c0"/>
<circle cx="1106" cy="1026" r="12" class="c0"/>
<circle cx="790" cy="976" r="12" class="c0"/>
<circle cx="1210" cy="560" r="12" class="c0"/>
<circle cx="714" cy="1008" r="12" class="c0"/>
<circle cx="934" cy="954" r="12" class="c0"/>
<circle cx="1156" cy="534" r="12" class="c0"/>
<circle cx="562" cy="812" r="12" class="c0"/>
<circle cx="1224" cy="1016" r="12" class="c0"/>
<circle cx="782" cy="844" r="12" class="c0"/>
<circle cx="604" cy="1002" r="12" class="c0"/>
<circle cx="1126" cy="898" r="12" class="c0"/>
<circle cx="1154" cy="690" r="12" class="c0"/>
<circle cx="1210" cy="776" r="12" class="c0"/>
<circle cx="604" cy="940" r="12" class="c0"/>
<circle cx="732" cy="1064" r="12" class="c0"/>
<circle cx="1198" cy="608" r="12" class="c0"/>
<circle cx="530" cy="828" r="12" class="c0"/>
<circle cx="1542" cy="774" r="12" class="c0"/>
<circle cx="1100" cy="980" r="12" class="c0"/>
<circle cx="764" cy="802" r="12" class="c0"/>
<circle cx="1424" cy="888" r="12" class="c0"/>
<circle cx="696" cy="794" r="12" class="c0"/>
<circle cx="564" cy="908" r="12" class="c0"/>
<circle cx="1412" cy="762" r="12" class="c0"/>
<circle cx="978" cy="984" r="12" class="c0"/>
<circle cx="1154" cy="834" r="12" class="c0"/>
<circle cx="1380" cy="786" r="12" class="c0"/>
<circle cx="1080" cy="1028" r="12" class="c0"/>
<circle cx="1176" cy="354" r="12" class="c0"/>
<circle cx="1194" cy="430" r="12" class="c0"/>
<circle cx="1160" cy="902" r="12" class="c0"/>
<circle cx="1168" cy="974" r="12" class="c0"/>
<circle cx="1536" cy="716" r="12" class="c0"/>
<circle cx="1242" cy="648" r="12" class="c0"/>
<circle cx="1348" cy="922" r="12" class="c0"/>
<circle cx="900" cy="996" r="12" class="c0"/>
<circle cx="1182" cy="954" r="12" class="c0"/>
<circle cx="1454" cy="930" r="12" class="c0"/>
<circle cx="1120" cy="1052" r="12" class="c0"/>
<circle cx="758" cy="950" r="12" class="c0"/>
<circle cx="1500" cy="814" r="12" class="c0"/>
<circle cx="710" cy="906" r="12" class="c0"/>
<circle cx="378" cy="884" r="12" class="c0"/>
<circle cx="750" cy="876" r="10" class="c0"/>
<circle cx="1362" cy="828" r="10" class="c0"/>
<circle cx="842" cy="906" r="10" class="c0"/>
<circle cx="1202" cy="882" r="10" class="c0"/>
<circle cx="902" cy="1028" r="10" class="c0"/>
<circle cx="612" cy="860" r="10" class="c0"/>
<circle cx="1326" cy="818" r="10" class="c0"/>
<circle cx="996" cy="928" r="10" class="c0"/>
<circle cx="360" cy="852" r="10" class="c0"/>
<circle cx="1114" cy="616" r="10" class="c0"/>
<circle cx="950" cy="986" r="10" class="c0"/>
<circle cx="1216" cy="632" r="10" class="c0"/>
<circle cx="1178" cy="504" r="10" class="c0"/>
<circle cx="402" cy="806" r="10" class="c0"/>
<circle cx="1236" cy="676" r="10" class="c0"/>
<circle cx="1374" cy="1038" r="10" class="c0"/>
<circle cx="1278" cy="914" r="10" class="c0"/>
<circle cx="666" cy="1014" r="10" class="c0"/>
<circle cx="714" cy="860" r="10" class="c0"/>
<circle cx="996" cy="848" r="10" class="c0"/>
<circle cx="1408" cy="906" r="10" class="c0"/>
<circle cx="1326" cy="1046" r="10" class="c0"/>
<circle cx="1388" cy="1002" r="10" class="c0"/>
<circle cx="968" cy="894" r="10" class="c0"/>
<circle cx="338" cy="812" r="10" class="c0"/>
<circle cx="1152" cy="566" r="10" class="c0"/>
<circle cx="1040" cy="758" r="10" class="c0"/>
<circle cx="1188" cy="1044" r="10" class="c0"/>
<circle cx="1144" cy="742" r="10" class="c0"/>
<circle cx="1344" cy="782" r="10" class="c0"/>
<circle cx="1194" cy="826" r="10" class="c0"/>
<circle cx="1164" cy="784" r="10" class="c0"/>
<circle cx="1168" cy="622" r="10" class="c0"/>
<circle cx="1142" cy="378" r="10" class="c0"/>
<circle cx="312" cy="810" r="10" class="c0"/>
<circle cx="1170" cy="410" r="10" class="c0"/>
<circle cx="992" cy="882" r="10" class="c0"/>
<circle cx="930" cy="928" r="10" class="c0"/>
<circle cx="1208" cy="584" r="10" class="c0"/>
<circle cx="602" cy="780" r="10" class="c0"/>
<circle cx="1262" cy="834" r="10" class="c0"/>
<circle cx="736" cy="968" r="10" class="c0"/>
<circle cx="1134" cy="704" r="10" class="c0"/>
<circle cx="1166" cy="934" r="10" class="c0"/>
<circle cx="1290" cy="1000" r="10" class="c0"/>
<circle cx="1304" cy="1022" r="10" class="c0"/>
<circle cx="1282" cy="800" r="10" class="c0"/>
<circle cx="1024" cy="1024" r="10" class="c0"/>
<circle cx="1564" cy="672" r="10" class="c0"/>
<circle cx="502" cy="914" r="10" class="c0"/>
<circle cx="1514" cy="788" r="10" class="c0"/>
<circle cx="598" cy="806" r="10" class="c0"/>
<circle cx="1472" cy="750" r="10" class="c0"/>
<circle cx="1396" cy="834" r="10" class="c0"/>
<circle cx="1186" cy="1004" r="10" class="c0"/>
<circle cx="1092" cy="752" r="10" class="c0"/>
<circle cx="1056" cy="700" r="10" class="c0"/>
<circle cx="1374" cy="922" r="10" class="c0"/>
<circle cx="816" cy="896" r="10" class="c0"/>
<circle cx="1108" cy="712" r="10" class="c0"/>
<circle cx="804" cy="884" r="10" class="c0"/>
<circle cx="1464" cy="806" r="10" class="c0"/>
<circle cx="1486" cy="794" r="10" class="c0"/>
<circle cx="922" cy="890" r="10" class="c0"/>
<circle cx="1170" cy="706" r="10" class="c0"/>
<circle cx="668" cy="810" r="10" class="c0"/>
<circle cx="1302" cy="952" r="10" class="c0"/>
<circle cx="1158" cy="754" r="10" class="c0"/>
<circle cx="1082" cy="904" r="10" class="c0"/>
<circle cx="1334" cy="1014" r="10" class="c0"/>
<circle cx="686" cy="856" r="10" class="c0"/>
<circle cx="674" cy="914" r="10" class="c0"/>
<circle cx="1292" cy="858" r="10" class="c0"/>
<circle cx="1446" cy="766" r="10" class="c0"/>
<circle cx="1176" cy="860" r="10" class="c0"/>
<circle cx="1016" cy="392" r="10" class="c0"/>
<circle cx="1294" cy="898" r="10" class="c0"/>
<circle cx="702" cy="884" r="10" class="c0"/>
<circle cx="476" cy="768" r="10" class="c0"/>
<circle cx="830" cy="880" r="10" class="c0"/>
<circle cx="712" cy="1044" r="10" class="c0"/>
<circle cx="1182" cy="330" r="10" class="c0"/>
<circle cx="1366" cy="864" r="10" class="c0"/>
<circle cx="1222" cy="692" r="10" class="c0"/>
<circle cx="1152" cy="496" r="10" class="c0"/>
<circle cx="1122" cy="320" r="10" class="c0"/>
<circle cx="1120" cy="640" r="10" class="c0"/>
<circle cx="674" cy="978" r="10" class="c0"/>
<circle cx="546" cy="944" r="10" class="c0"/>
<circle cx="276" cy="816" r="10" class="c0"/>
<circle cx="664" cy="952" r="10" class="c0"/>
<circle cx="872" cy="956" r="10" class="c0"/>
<circle cx="848" cy="854" r="10" class="c0"/>
<circle cx="1144" cy="954" r="10" class="c0"/>
<circle cx="1112" cy="784" r="10" class="c0"/>
<circle cx="782" cy="882" r="10" class="c0"/>
<circle cx="896" cy="916" r="10" class="c0"/>
<circle cx="960" cy="928" r="10" class="c0"/>
<circle cx="814" cy="1024" r="10" class="c0"/>
<circle cx="576" cy="940" r="10" class="c0"/>
<circle cx="1204" cy="980" r="10" class="c0"/>
<circle cx="1120" cy="678" r="10" class="c0"/>
<circle cx="1134" cy="658" r="10" class="c0"/>
<circle cx="1104" cy="942" r="10" class="c0"/>
<circle cx="1372" cy="974" r="10" class="c0"/>
<circle cx="922" cy="852" r="10" class="c0"/>
<circle cx="1192" cy="756" r="10" class="c0"/>
<circle cx="826" cy="856" r="10" class="c0"/>
<circle cx="1458" cy="900" r="10" class="c0"/>
<circle cx="1322" cy="844" r="10" class="c0"/>
<circle cx="684" cy="1046" r="10" class="c0"/>
<circle cx="802" cy="810" r="10" class="c0"/>
<circle cx="1494" cy="854" r="10" class="c0"/>
<circle cx="1252" cy="810" r="10" class="c0"/>
<circle cx="836" cy="998" r="10" class="c0"/>
<circle cx="988" cy="1044" r="10" class="c0"/>
<circle cx="554" cy="848" r="10" class="c0"/>
<circle cx="898" cy="834" r="10" class="c0"/>
<circle cx="1408" cy="984" r="10" class="c0"/>
<circle cx="506" cy="814" r="10" class="c0"/>
<circle cx="468" cy="854" r="10" class="c0"/>
<circle cx="622" cy="962" r="10" class="c0"/>
<circle cx="1042" cy="1002" r="10" class="c0"/>
<circle cx="510" cy="890" r="10" class="c0"/>
<circle cx="1382" cy="880" r="10" class="c0"/>
<circle cx="532" cy="802" r="10" class="c0"/>
<circle cx="1462" cy="856" r="10" class="c0"/>
<circle cx="494" cy="826" r="10" class="c0"/>
<circle cx="454" cy="812" r="10" class="c0"/>
<circle cx="1156" cy="364" r="10" class="c0"/>
<circle cx="302" cy="790" r="10" class="c0"/>
<circle cx="1058" cy="922" r="10" class="c0"/>
<circle cx="1248" cy="762" r="10" class="c0"/>
<circle cx="1240" cy="874" r="10" class="c0"/>
<circle cx="1414" cy="862" r="10" class="c0"/>
<circle cx="858" cy="994" r="10" class="c0"/>
<circle cx="1168" cy="1052" r="10" class="c0"/>
<circle cx="382" cy="842" r="10" class="c0"/>
<circle cx="1584" cy="644" r="10" class="c0"/>
<circle cx="1394" cy="806" r="10" class="c0"/>
<circle cx="526" cy="770" r="10" class="c0"/>
<circle cx="1072" cy="996" r="10" class="c0"/>
<circle cx="612" cy="902" r="10" class="c0"/>
<circle cx="1112" cy="386" r="10" class="c0"/>
<circle cx="926" cy="1028" r="10" class="c0"/>
<circle cx="620" cy="816" r="10" class="c0"/>
<circle cx="1254" cy="992" r="10" class="c0"/>
<circle cx="630" cy="886" r="10" class="c0"/>
<circle cx="998" cy="520" r="10" class="c0"/>
<circle cx="1126" cy="352" r="10" class="c0"/>
<circle cx="1066" cy="888" r="10" class="c0"/>
<circle cx="422" cy="824" r="10" class="c0"/>
<circle cx="634" cy="986" r="10" class="c0"/>
<circle cx="412" cy="918" r="10" class="c0"/>
<circle cx="1308" cy="796" r="10" class="c0"/>
<circle cx="1270" cy="894" r="10" class="c0"/>
<circle cx="588" cy="866" r="10" class="c0"/>
<circle cx="1290" cy="964" r="10" class="c0"/>
<circle cx="1164" cy="444" r="10" class="c0"/>
<circle cx="1018" cy="1048" r="10" class="c0"/>
<circle cx="1026" cy="328" r="10" class="c0"/>
<circle cx="466" cy="906" r="10" class="c0"/>
<circle cx="748" cy="818" r="10" class="c0"/>
<circle cx="1244" cy="486" r="10" class="c0"/>
<circle cx="966" cy="822" r="10" class="c0"/>
<circle cx="1384" cy="940" r="10" class="c0"/>
<circle cx="1434" cy="852" r="10" class="c0"/>
<circle cx="756" cy="850" r="10" class="c0"/>
<circle cx="778" cy="1014" r="10" class="c0"/>
<circle cx="1444" cy="816" r="10" class="c0"/>
<circle cx="1132" cy="1008" r="10" class="c0"/>
<circle cx="1070" cy="842" r="10" class="c0"/>
<circle cx="438" cy="896" r="10" class="c0"/>
<circle cx="388" cy="904" r="10" class="c0"/>
<circle cx="1002" cy="462" r="10" class="c0"/>
<circle cx="406" cy="842" r="10" class="c0"/>
<circle cx="1194" cy="730" r="8" class="c0"/>
<circle cx="818" cy="984" r="8" class="c0"/>
<circle cx="1166" cy="316" r="8" class="c0"/>
<circle cx="810" cy="1058" r="8" class="c0"/>
<circle cx="896" cy="958" r="8" class="c0"/>
<circle cx="926" cy="826" r="8" class="c0"/>
<circle cx="584" cy="790" r="8" class="c0"/>
<circle cx="1174" cy="388" r="8" class="c0"/>
<circle cx="722" cy="814" r="8" class="c0"/>
<circle cx="1168" cy="552" r="8" class="c0"/>
<circle cx="1150" cy="590" r="8" class="c0"/>
<circle cx="1210" cy="934" r="8" class="c0"/>
<circle cx="1258" cy="1044" r="8" class="c0"/>
<circle cx="1196" cy="710" r="8" class="c0"/>
<circle cx="780" cy="1038" r="8" class="c0"/>
<circle cx="594" cy="978" r="8" class="c0"/>
<circle cx="1200" cy="646" r="8" class="c0"/>
<circle cx="582" cy="990" r="8" class="c0"/>
<circle cx="1102" cy="668" r="8" class="c0"/>
<circle cx="870" cy="926" r="8" class="c0"/>
<circle cx="484" cy="936" r="8" class="c0"/>
<circle cx="758" cy="998" r="8" class="c0"/>
<circle cx="948" cy="904" r="8" class="c0"/>
<circle cx="1478" cy="818" r="8" class="c0"/>
<circle cx="1102" cy="366" r="8" class="c0"/>
<circle cx="1216" cy="656" r="8" class="c0"/>
<circle cx="1136" cy="432" r="8" class="c0"/>
<circle cx="1252" cy="938" r="8" class="c0"/>
<circle cx="670" cy="784" r="8" class="c0"/>
<circle cx="956" cy="956" r="8" class="c0"/>
<circle cx="732" cy="1022" r="8" class="c0"/>
<circle cx="1000" cy="970" r="8" class="c0"/>
<circle cx="426" cy="884" r="8" class="c0"/>
<circle cx="1200" cy="674" r="8" class="c0"/>
<circle cx="518" cy="788" r="8" class="c0"/>
<circle cx="1118" cy="922" r="8" class="c0"/>
<circle cx="1146" cy="1028" r="8" class="c0"/>
<circle cx="908" cy="864" r="8" class="c0"/>
<circle cx="1474" cy="776" r="8" class="c0"/>
<circle cx="1076" cy="650" r="8" class="c0"/>
<circle cx="1460" cy="878" r="8" class="c0"/>
<circle cx="882" cy="1012" r="8" class="c0"/>
<circle cx="1128" cy="816" r="8" class="c0"/>
<circle cx="1084" cy="374" r="8" class="c0"/>
<circle cx="394" cy="788" r="8" class="c0"/>
<circle cx="1188" cy="372" r="8" class="c0"/>
<circle cx="1254" cy="858" r="8" class="c0"/>
<circle cx="1432" cy="786" r="8" class="c0"/>
<circle cx="350" cy="900" r="8" class="c0"/>
<circle cx="986" cy="832" r="8" class="c0"/>
<circle cx="434" cy="856" r="8" class="c0"/>
<circle cx="1224" cy="922" r="8" class="c0"/>
<circle cx="1028" cy="848" r="8" class="c0"/>
<circle cx="646" cy="870" r="8" class="c0"/>
<circle cx="1200" cy="358" r="8" class="c0"/>
<circle cx="1328" cy="932" r="8" class="c0"/>
<circle cx="1412" cy="790" r="8" class="c0"/>
<circle cx="1008" cy="416" r="8" class="c0"/>
<circle cx="1132" cy="410" r="8" class="c0"/>
<circle cx="1050" cy="902" r="8" class="c0"/>
<circle cx="1518" cy="768" r="8" class="c0"/>
<circle cx="480" cy="840" r="8" class="c0"/>
<circle cx="758" cy="918" r="8" class="c0"/>
<circle cx="1260" cy="970" r="8" class="c0"/>
<circle cx="1304" cy="1066" r="8" class="c0"/>
<circle cx="1262" cy="1014" r="8" class="c0"/>
<circle cx="1574" cy="688" r="8" class="c0"/>
<circle cx="886" cy="1040" r="8" class="c0"/>
<circle cx="636" cy="806" r="8" class="c0"/>
<circle cx="1440" cy="908" r="8" class="c0"/>
<circle cx="1086" cy="660" r="8" class="c0"/>
<circle cx="490" cy="798" r="8" class="c0"/>
<circle cx="1012" cy="372" r="8" class="c0"/>
<circle cx="1354" cy="886" r="8" class="c0"/>
<circle cx="650" cy="1024" r="8" class="c0"/>
<circle cx="1156" cy="610" r="8" class="c0"/>
<circle cx="862" cy="840" r="8" class="c0"/>
<circle cx="1342" cy="974" r="8" class="c0"/>
<circle cx="520" cy="868" r="8" class="c0"/>
<circle cx="860" cy="1018" r="8" class="c0"/>
<circle cx="560" cy="958" r="8" class="c0"/>
<circle cx="698" cy="940" r="8" class="c0"/>
<circle cx="1192" cy="524" r="8" class="c0"/>
<circle cx="624" cy="786" r="8" class="c0"/>
<circle cx="1184" cy="798" r="8" class="c0"/>
<circle cx="1132" cy="864" r="8" class="c0"/>
<circle cx="1004" cy="602" r="8" class="c0"/>
<circle cx="1084" cy="680" r="8" class="c0"/>
<circle cx="1522" cy="820" r="8" class="c0"/>
<circle cx="1220" cy="482" r="8" class="c0"/>
<circle cx="1432" cy="976" r="8" class="c0"/>
<circle cx="720" cy="792" r="8" class="c0"/>
<circle cx="1224" cy="1048" r="8" class="c0"/>
<circle cx="1100" cy="1060" r="8" class="c0"/>
<circle cx="1206" cy="840" r="8" class="c0"/>
<circle cx="446" cy="914" r="8" class="c0"/>
<circle cx="1358" cy="800" r="8" class="c0"/>
<circle cx="586" cy="962" r="8" class="c0"/>
<circle cx="1422" cy="960" r="8" class="c0"/>
<circle cx="378" cy="774" r="8" class="c0"/>
<circle cx="1012" cy="892" r="8" class="c0"/>
<circle cx="1070" cy="940" r="8" class="c0"/>
<circle cx="1232" cy="604" r="8" class="c0"/>
<circle cx="1136" cy="576" r="8" class="c0"/>
<circle cx="1062" cy="676" r="8" class="c0"/>
<circle cx="1156" cy="658" r="8" class="c0"/>
<circle cx="852" cy="948" r="8" class="c0"/>
<circle cx="1106" cy="880" r="8" class="c0"/>
<circle cx="404" cy="874" r="8" class="c0"/>
<circle cx="434" cy="796" r="8" class="c0"/>
<circle cx="500" cy="866" r="8" class="c0"/>
<circle cx="686" cy="950" r="8" class="c0"/>
<circle cx="816" cy="930" r="8" class="c0"/>
<circle cx="1048" cy="730" r="8" class="c0"/>
<circle cx="1210" cy="960" r="8" class="c0"/>
<circle cx="1286" cy="1048" r="8" class="c0"/>
<circle cx="1088" cy="710" r="8" class="c0"/>
<circle cx="326" cy="778" r="8" class="c0"/>
<circle cx="338" cy="834" r="8" class="c0"/>
<circle cx="1554" cy="728" r="8" class="c0"/>
<circle cx="524" cy="926" r="8" class="c0"/>
<circle cx="876" cy="860" r="8" class="c0"/>
<circle cx="1512" cy="846" r="8" class="c0"/>
<circle cx="768" cy="1066" r="8" class="c0"/>
<circle cx="352" cy="788" r="8" class="c0"/>
<circle cx="604" cy="826" r="8" class="c0"/>
<circle cx="1028" cy="870" r="8" class="c0"/>
<circle cx="294" cy="842" r="8" class="c0"/>
<circle cx="1102" cy="906" r="8" class="c0"/>
<circle cx="1218" cy="810" r="8" class="c0"/>
<circle cx="932" cy="998" r="8" class="c0"/>
<circle cx="1038" cy="978" r="8" class="c0"/>
<circle cx="1230" cy="748" r="8" class="c0"/>
<circle cx="1124" cy="960" r="8" class="c0"/>
<circle cx="1198" cy="480" r="8" class="c0"/>
<circle cx="1342" cy="1072" r="8" class="c0"/>
<circle cx="1258" cy="920" r="8" class="c0"/>
<circle cx="956" cy="872" r="8" class="c0"/>
<circle cx="1052" cy="1058" r="8" class="c0"/>
<circle cx="652" cy="932" r="8" class="c0"/>
<circle cx="1020" cy="352" r="8" class="c0"/>
<circle cx="1140" cy="328" r="8" class="c0"/>
<circle cx="1174" cy="484" r="8" class="c0"/>
<circle cx="1352" cy="996" r="8" class="c0"/>
<circle cx="1044" cy="1026" r="8" class="c0"/>
<circle cx="538" cy="904" r="8" class="c0"/>
<circle cx="1384" cy="904" r="8" class="c0"/>
<circle cx="364" cy="798" r="8" class="c0"/>
<circle cx="1272" cy="856" r="8" class="c0"/>
<circle cx="1052" cy="872" r="8" class="c0"/>
<circle cx="988" cy="906" r="8" class="c0"/>
<circle cx="934" cy="876" r="8" class="c0"/>
<circle cx="1334" cy="872" r="8" class="c0"/>
<circle cx="662" cy="850" r="8" class="c0"/>
<circle cx="1410" cy="934" r="8" class="c0"/>
<circle cx="1150" cy="862" r="8" class="c0"/>
<circle cx="1086" cy="880" r="8" class="c0"/>
<circle cx="1248" cy="906" r="8" class="c0"/>
<circle cx="1542" cy="738" r="8" class="c0"/>
<circle cx="574" cy="852" r="8" class="c0"/>
<circle cx="1246" cy="1022" r="8" class="c0"/>
<circle cx="1510" cy="732" r="8" class="c0"/>
<circle cx="354" cy="824" r="8" class="c0"/>
<circle cx="1238" cy="730" r="8" class="c0"/>
<circle cx="1022" cy="910" r="8" class="c0"/>
<circle cx="1388" cy="858" r="8" class="c0"/>
<circle cx="1146" cy="468" r="8" class="c0"/>
<circle cx="366" cy="908" r="8" class="c0"/>
<circle cx="622" cy="1016" r="8" class="c0"/>
<circle cx="1340" cy="900" r="8" class="c0"/>
<circle cx="874" cy="904" r="8" class="c0"/>
<circle cx="732" cy="892" r="8" class="c0"/>
<circle cx="1598" cy="628" r="8" class="c0"/>
<circle cx="1478" cy="884" r="8" class="c0"/>
<circle cx="1300" cy="814" r="8" class="c0"/>
<circle cx="1010" cy="1008" r="8" class="c0"/>
<circle cx="338" cy="874" r="8" class="c0"/>
<circle cx="1196" cy="862" r="8" class="c0"/>
<circle cx="1424" cy="918" r="8" class="c0"/>
<circle cx="970" cy="944" r="8" class="c0"/>
<circle cx="1232" cy="772" r="8" class="c0"/>
<circle cx="556" cy="778" r="8" class="c0"/>
<circle cx="1360" cy="1058" r="8" class="c0"/>
<circle cx="1206" cy="338" r="8" class="c0"/>
<circle cx="266" cy="788" r="8" class="c0"/>
<circle cx="356" cy="878" r="8" class="c0"/>
<circle cx="700" cy="1024" r="8" class="c0"/>
<circle cx="974" cy="862" r="8" class="c0"/>
<circle cx="1334" cy="958" r="8" class="c0"/>
<circle cx="1004" cy="1026" r="8" class="c0"/>
<circle cx="1210" cy="1038" r="8" class="c0"/>
<circle cx="1342" cy="854" r="8" class="c0"/>
<circle cx="1316" cy="868" r="8" class="c0"/>
<circle cx="450" cy="772" r="8" class="c0"/>
<circle cx="796" cy="860" r="8" class="c0"/>
<circle cx="1568" cy="710" r="8" class="c0"/>
<circle cx="1388" cy="754" r="8" class="c0"/>
<circle cx="684" cy="896" r="8" class="c0"/>
<circle cx="1282" cy="880" r="8" class="c0"/>
<circle cx="1446" cy="840" r="8" class="c0"/>
<circle cx="1240" cy="710" r="8" class="c0"/>
<circle cx="674" cy="878" r="8" class="c0"/>
<circle cx="1136" cy="616" r="8" class="c0"/>
<circle cx="740" cy="1044" r="8" class="c0"/>
<circle cx="1154" cy="1012" r="8" class="c0"/>
<circle cx="1118" cy="848" r="8" class="c0"/>
<circle cx="476" cy="882" r="8" class="c0"/>
<circle cx="1280" cy="982" r="8" class="c0"/>
<circle cx="686" cy="824" r="8" class="c0"/>
<circle cx="1278" cy="1026" r="8" class="c0"/>
<circle cx="510" cy="846" r="8" class="c0"/>
<circle cx="1368" cy="896" r="8" class="c0"/>
<circle cx="738" cy="994" r="8" class="c0"/>
<circle cx="394" cy="830" r="8" class="c0"/>
<circle cx="1228" cy="956" r="8" class="c0"/>
<circle cx="638" cy="844" r="8" class="c0"/>
<circle cx="1114" cy="406" r="8" class="c0"/>
<circle cx="856" cy="874" r="8" class="c0"/>
<circle cx="960" cy="1002" r="8" class="c0"/>
<circle cx="1128" cy="592" r="8" class="c0"/>
<circle cx="940" cy="836" r="8" class="c0"/>
<circle cx="1158" cy="398" r="8" class="c0"/>
<circle cx="506" cy="762" r="8" class="c0"/>
<circle cx="1000" cy="540" r="8" class="c0"/>
<circle cx="764" cy="1046" r="8" class="c0"/>
<circle cx="1128" cy="456" r="8" class="c0"/>
<circle cx="1170" cy="728" r="8" class="c0"/>
<circle cx="1070" cy="764" r="8" class="c0"/>
<circle cx="812" cy="950" r="8" class="c0"/>
<circle cx="802" cy="996" r="8" class="c0"/>
<circle cx="710" cy="978" r="8" class="c0"/>
<circle cx="1000" cy="488" r="8" class="c0"/>
<circle cx="1268" cy="788" r="8" class="c0"/>
<circle cx="458" cy="928" r="8" class="c0"/>
<circle cx="1600" cy="666" r="8" class="c0"/>
<circle cx="666" cy="832" r="8" class="c0"/>
<circle cx="790" cy="1052" r="8" class="c0"/>
<circle cx="1456" cy="828" r="8" class="c0"/>
<circle cx="1228" cy="822" r="8" class="c0"/>
<circle cx="826" cy="916" r="8" class="c0"/>
<circle cx="712" cy="830" r="8" class="c0"/>
<circle cx="1436" cy="942" r="8" class="c0"/>
<circle cx="1570" cy="740" r="8" class="c0"/>
<circle cx="1282" cy="838" r="8" class="c0"/>
<circle cx="868" cy="976" r="8" class="c0"/>
<circle cx="586" cy="768" r="8" class="c0"/>
<circle cx="698" cy="960" r="8" class="c0"/>
<circle cx="792" cy="950" r="8" class="c0"/>
<circle cx="550" cy="888" r="8" class="c0"/>
<circle cx="1092" cy="836" r="8" class="c0"/>
<circle cx="804" cy="916" r="8" class="c0"/>
<circle cx="1366" cy="950" r="8" class="c0"/>
<circle cx="1260" cy="692" r="8" class="c0"/>
<circle cx="380" cy="862" r="8" class="c0"/>
<circle cx="648" cy="780" r="8" class="c0"/>
<circle cx="1132" cy="980" r="8" class="c0"/>
<circle cx="1304" cy="924" r="8" class="c0"/>
<circle cx="1178" cy="1022" r="8" class="c0"/>
<circle cx="654" cy="992" r="8" class="c0"/>
<circle cx="1322" cy="1074" r="8" class="c0"/>
<circle cx="1318" cy="896" r="8" class="c0"/>
<circle cx="764" cy="1026" r="8" class="c0"/>
<circle cx="1176" cy="918" r="8" class="c0"/>
<circle cx="524" cy="952" r="8" class="c0"/>
<circle cx="1002" cy="568" r="8" class="c0"/>
<circle cx="1398" cy="954" r="8" class="c0"/>
<circle cx="1596" cy="690" r="8" class="c0"/>
<circle cx="1428" cy="804" r="8" class="c0"/>
<circle cx="1112" cy="736" r="8" class="c0"/>
<circle cx="1140" cy="548" r="8" class="c0"/>
<circle cx="1118" cy="764" r="8" class="c0"/>
<circle cx="1182" cy="656" r="8" class="c0"/>
<circle cx="1328" cy="912" r="8" class="c0"/>
<circle cx="1148" cy="1060" r="8" class="c0"/>
<circle cx="968" cy="1042" r="8" class="c0"/>
<circle cx="590" cy="918" r="8" class="c0"/>
<circle cx="1098" cy="862" r="8" class="c0"/>
<circle cx="586" cy="830" r="8" class="c0"/>
<circle cx="1114" cy="998" r="8" class="c0"/>
<circle cx="1226" cy="900" r="8" class="c0"/>
<circle cx="374" cy="820" r="8" class="c0"/>
<circle cx="1140" cy="770" r="8" class="c0"/>
<circle cx="1244" cy="846" r="8" class="c0"/>
<circle cx="430" cy="766" r="8" class="c0"/>
<circle cx="1150" cy="338" r="8" class="c0"/>
<circle cx="568" cy="834" r="8" class="c0"/>
<circle cx="592" cy="886" r="8" class="c0"/>
<circle cx="1176" cy="768" r="8" class="c0"/>
<circle cx="512" cy="942" r="8" class="c0"/>
<circle cx="1328" cy="984" r="8" class="c0"/>
<circle cx="1152" cy="882" r="8" class="c0"/>
<circle cx="1222" cy="792" r="8" class="c0"/>
<circle cx="1164" cy="642" r="8" class="c0"/>
<circle cx="454" cy="868" r="8" class="c0"/>
<circle cx="1358" cy="1026" r="8" class="c0"/>
<circle cx="992" cy="954" r="8" class="c0"/>
<circle cx="836" cy="932" r="8" class="c0"/>
<circle cx="774" cy="988" r="8" class="c0"/>
<circle cx="1040" cy="882" r="8" class="c0"/>
<circle cx="750" cy="902" r="8" class="c0"/>
<circle cx="1202" cy="506" r="8" class="c0"/>
<circle cx="652" cy="970" r="8" class="c0"/>
<circle cx="1060" cy="1012" r="8" class="c0"/>
<circle cx="1270" cy="936" r="8" class="c0"/>
<circle cx="1178" cy="744" r="8" class="c0"/>
<circle cx="1136" cy="482" r="8" class="c0"/>
<circle cx="978" cy="1022" r="8" class="c0"/>
<circle cx="1354" cy="766" r="8" class="c0"/>
<circle cx="1392" cy="1030" r="8" class="c0"/>
<circle cx="1032" cy="930" r="8" class="c0"/>
<circle cx="1222" cy="854" r="8" class="c0"/>
<circle cx="1174" cy="808" r="8" class="c0"/>
<circle cx="1292" cy="782" r="8" class="c0"/>
<circle cx="1452" cy="790" r="8" class="c0"/>
<circle cx="558" cy="930" r="8" class="c0"/>
<circle cx="1340" cy="836" r="8" class="c0"/>
<circle cx="1076" cy="736" r="8" class="c0"/>
<circle cx="1010" cy="942" r="8" class="c0"/>
<circle cx="1150" cy="714" r="8" class="c0"/>
<circle cx="738" cy="862" r="8" class="c0"/>
<circle cx="770" cy="862" r="8" class="c0"/>
<circle cx="942" cy="818" r="8" class="c0"/>
<circle cx="404" cy="778" r="8" class="c0"/>
<circle cx="910" cy="818" r="8" class="c0"/>
<circle cx="766" cy="894" r="8" class="c0"/>
<circle cx="1008" cy="442" r="8" class="c0"/>
<circle cx="1128" cy="1030" r="8" class="c0"/>
<circle cx="1212" cy="1000" r="8" class="c0"/>
<circle cx="1088" cy="638" r="8" class="c0"/>
<circle cx="564" cy="874" r="8" class="c0"/>
<circle cx="1146" cy="930" r="8" class="c0"/>
<circle cx="948" cy="1018" r="8" class="c0"/>
<circle cx="1238" cy="626" r="8" class="c0"/>
<circle cx="1420" cy="830" r="8" class="c0"/>
<circle cx="482" cy="918" r="8" class="c0"/>
<circle cx="1066" cy="1048" r="8" class="c0"/>
<circle cx="1318" cy="994" r="8" class="c0"/>
<circle cx="458" cy="832" r="8" class="c0"/>
<circle cx="1530" cy="756" r="8" class="c0"/>
<circle cx="1144" cy="802" r="8" class="c0"/>
<circle cx="290" cy="778" r="8" class="c0"/>
<circle cx="664" cy="1042" r="8" class="c0"/>
<circle cx="1078" cy="860" r="8" class="c0"/>
<circle cx="1080" cy="928" r="8" class="c0"/>
<circle cx="766" cy="832" r="8" class="c0"/>
<circle cx="1140" cy="634" r="8" class="c0"/>
<circle cx="1028" cy="826" r="8" class="c0"/>
<circle cx="1148" cy="422" r="8" class="c0"/>
<circle cx="1092" cy="1008" r="8" class="c0"/>
<circle cx="298" cy="822" r="8" class="c0"/>
<circle cx="888" cy="870" r="8" class="c0"/>
<circle cx="438" cy="836" r="8" class="c0"/>
<circle cx="1190" cy="928" r="8" class="c0"/>
<circle cx="1202" cy="1018" r="8" class="c0"/>
<circle cx="1130" cy="942" r="8" class="c0"/>
<circle cx="1104" cy="688" r="8" class="c0"/>
<circle cx="1394" cy="924" r="8" class="c0"/>
<circle cx="806" cy="834" r="8" class="c0"/>
<circle cx="1564" cy="762" r="8" class="c0"/>
<circle cx="1240" cy="1040" r="8" class="c0"/>
<circle cx="868" cy="886" r="8" class="c0"/>
<circle cx="1404" cy="1016" r="8" class="c0"/>
<circle cx="686" cy="926" r="8" class="c0"/>
<circle cx="1266" cy="496" r="8" class="c0"/>
<circle cx="1092" cy="728" r="8" class="c0"/>
<circle cx="1232" cy="978" r="8" class="c0"/>
<circle cx="1450" cy="742" r="8" class="c0"/>
<circle cx="1042" cy="346" r="8" class="c0"/>
<circle cx="958" cy="1028" r="8" class="c0"/>
<circle cx="1072" cy="690" r="8" class="c0"/>
<circle cx="634" cy="948" r="8" class="c0"/>
<circle cx="968" cy="842" r="8" class="c0"/>
<circle cx="750" cy="1014" r="8" class="c0"/>
<circle cx="500" cy="780" r="8" class="c0"/>
<circle cx="1548" cy="688" r="8" class="c0"/>
<circle cx="708" cy="950" r="8" class="c0"/>
<circle cx="1174" cy="882" r="8" class="c0"/>
<circle cx="730" cy="836" r="8" class="c0"/>
<circle cx="544" cy="968" r="8" class="c0"/>
<circle cx="1092" cy="1044" r="8" class="c0"/>
<circle cx="948" cy="1038" r="8" class="c0"/>
<circle cx="1122" cy="724" r="8" class="c0"/>
<circle cx="1008" cy="872" r="8" class="c0"/>
<circle cx="618" cy="840" r="8" class="c0"/>
<circle cx="1040" cy="1046" r="8" class="c0"/>
<circle cx="1104" cy="348" r="8" class="c0"/>
<circle cx="1470" cy="916" r="8" class="c0"/>
<circle cx="1496" cy="774" r="8" class="c0"/>
<circle cx="1444" cy="958" r="8" class="c0"/>
<circle cx="598" cy="848" r="8" class="c0"/>
<circle cx="1340" cy="1034" r="8" class="c0"/>
<circle cx="478" cy="808" r="8" class="c0"/>
<circle cx="1240" cy="1004" r="8" class="c0"/>
<circle cx="1012" cy="986" r="8" class="c0"/>
<circle cx="1264" cy="872" r="8" class="c0"/>
<circle cx="894" cy="892" r="8" class="c0"/>
<circle cx="1138" cy="844" r="6" class="c0"/>
<circle cx="404" cy="896" r="6" class="c0"/>
<circle cx="448" cy="846" r="6" class="c0"/>
<circle cx="1128" cy="834" r="6" class="c0"/>
<circle cx="1298" cy="982" r="6" class="c0"/>
<circle cx="798" cy="1032" r="6" class="c0"/>
<circle cx="914" cy="936" r="6" class="c0"/>
<circle cx="526" cy="852" r="6" class="c0"/>
<circle cx="776" cy="958" r="6" class="c0"/>
<circle cx="1150" cy="318" r="6" class="c0"/>
<circle cx="602" cy="964" r="6" class="c0"/>
<circle cx="984" cy="1006" r="6" class="c0"/>
<circle cx="1308" cy="972" r="6" class="c0"/>
<circle cx="1200" cy="944" r="6" class="c0"/>
<circle cx="826" cy="808" r="6" class="c0"/>
<circle cx="1304" cy="1046" r="6" class="c0"/>
<circle cx="616" cy="980" r="6" class="c0"/>
<circle cx="1368" cy="992" r="6" class="c0"/>
<circle cx="1248" cy="1054" r="6" class="c0"/>
<circle cx="1280" cy="950" r="6" class="c0"/>
<circle cx="1284" cy="818" r="6" class="c0"/>
<circle cx="1060" cy="754" r="6" class="c0"/>
<circle cx="254" cy="802" r="6" class="c0"/>
<circle cx="1304" cy="832" r="6" class="c0"/>
<circle cx="1186" cy="696" r="6" class="c0"/>
<circle cx="1118" cy="696" r="6" class="c0"/>
<circle cx="1414" cy="814" r="6" class="c0"/>
<circle cx="1166" cy="994" r="6" class="c0"/>
<circle cx="892" cy="938" r="6" class="c0"/>
<circle cx="1172" cy="602" r="6" class="c0"/>
<circle cx="976" cy="964" r="6" class="c0"/>
<circle cx="1144" cy="914" r="6" class="c0"/>
<circle cx="318" cy="830" r="6" class="c0"/>
<circle cx="424" cy="782" r="6" class="c0"/>
<circle cx="758" cy="978" r="6" class="c0"/>
<circle cx="734" cy="908" r="6" class="c0"/>
<circle cx="1350" cy="954" r="6" class="c0"/>
<circle cx="646" cy="1006" r="6" class="c0"/>
<circle cx="1046" cy="684" r="6" class="c0"/>
<circle cx="944" cy="886" r="6" class="c0"/>
<circle cx="1228" cy="994" r="6" class="c0"/>
<circle cx="1496" cy="874" r="6" class="c0"/>
<circle cx="646" cy="816" r="6" class="c0"/>
<circle cx="1072" cy="824" r="6" class="c0"/>
<circle cx="1370" cy="1006" r="6" class="c0"/>
<circle cx="456" cy="790" r="6" class="c0"/>
<circle cx="1122" cy="874" r="6" class="c0"/>
<circle cx="1128" cy="752" r="6" class="c0"/>
<circle cx="1300" cy="880" r="6" class="c0"/>
<circle cx="1378" cy="840" r="6" class="c0"/>
<circle cx="1532" cy="810" r="6" class="c0"/>
<circle cx="1092" cy="954" r="6" class="c0"/>
<circle cx="1212" cy="462" r="6" class="c0"/>
<circle cx="1052" cy="988" r="6" class="c0"/>
<circle cx="726" cy="874" r="6" class="c0"/>
<circle cx="1476" cy="836" r="6" class="c0"/>
<circle cx="1534" cy="792" r="6" class="c0"/>
<circle cx="1424" cy="746" r="6" class="c0"/>
<circle cx="320" cy="872" r="6" class="c0"/>
<circle cx="1014" cy="856" r="6" class="c0"/>
<circle cx="634" cy="1028" r="6" class="c0"/>
<circle cx="1204" cy="802" r="6" class="c0"/>
<circle cx="1112" cy="598" r="6" class="c0"/>
<circle cx="610" cy="878" r="6" class="c0"/>
<circle cx="1222" cy="594" r="6" class="c0"/>
<circle cx="1376" cy="808" r="6" class="c0"/>
<circle cx="1186" cy="544" r="6" class="c0"/>
<circle cx="424" cy="930" r="6" class="c0"/>
<circle cx="1480" cy="868" r="6" class="c0"/>
<circle cx="656" cy="798" r="6" class="c0"/>
<circle cx="808" cy="1042" r="6" class="c0"/>
<circle cx="916" cy="1006" r="6" class="c0"/>
<circle cx="1484" cy="762" r="6" class="c0"/>
<circle cx="862" cy="1042" r="6" class="c0"/>
<circle cx="538" cy="862" r="6" class="c0"/>
<circle cx="546" cy="792" r="6" class="c0"/>
<circle cx="692" cy="990" r="6" class="c0"/>
<circle cx="638" cy="1014" r="6" class="c0"/>
<circle cx="782" cy="902" r="6" class="c0"/>
<circle cx="854" cy="812" r="6" class="c0"/>
<circle cx="948" cy="852" r="6" class="c0"/>
<circle cx="1012" cy="822" r="6" class="c0"/>
<circle cx="818" cy="966" r="6" class="c0"/>
<circle cx="1012" cy="478" r="6" class="c0"/>
<circle cx="1320" cy="776" r="6" class="c0"/>
<circle cx="1092" cy="776" r="6" class="c0"/>
<circle cx="796" cy="934" r="6" class="c0"/>
<circle cx="1338" cy="942" r="6" class="c0"/>
<circle cx="1164" cy="516" r="6" class="c0"/>
<circle cx="1348" cy="818" r="6" class="c0"/>
<circle cx="532" cy="880" r="6" class="c0"/>
<circle cx="342" cy="850" r="6" class="c0"/>
<circle cx="890" cy="852" r="6" class="c0"/>
<circle cx="1244" cy="828" r="6" class="c0"/>
<circle cx="464" cy="782" r="6" class="c0"/>
<circle cx="326" cy="886" r="6" class="c0"/>
<circle cx="284" cy="794" r="6" class="c0"/>
<circle cx="870" cy="1030" r="6" class="c0"/>
<circle cx="1150" cy="996" r="6" class="c0"/>
<circle cx="566" cy="790" r="6" class="c0"/>
<circle cx="576" cy="972" r="6" class="c0"/>
<circle cx="846" cy="1050" r="6" class="c0"/>
<circle cx="1178" cy="840" r="6" class="c0"/>
<circle cx="354" cy="770" r="6" class="c0"/>
<circle cx="1248" cy="742" r="6" class="c0"/>
<circle cx="1122" cy="370" r="6" class="c0"/>
<circle cx="1218" cy="714" r="6" class="c0"/>
<circle cx="1038" cy="860" r="6" class="c0"/>
<circle cx="726" cy="950" r="6" class="c0"/>
<circle cx="702" cy="820" r="6" class="c0"/>
<circle cx="574" cy="884" r="6" class="c0"/>
<circle cx="706" cy="1062" r="6" class="c0"/>
<circle cx="970" cy="912" r="6" class="c0"/>
<circle cx="1144" cy="516" r="6" class="c0"/>
<circle cx="854" cy="930" r="6" class="c0"/>
<circle cx="1604" cy="644" r="6" class="c0"/>
<circle cx="1208" cy="534" r="6" class="c0"/>
<circle cx="1272" cy="996" r="6" class="c0"/>
<circle cx="702" cy="842" r="6" class="c0"/>
<circle cx="1484" cy="900" r="6" class="c0"/>
<circle cx="888" cy="972" r="6" class="c0"/>
<circle cx="1382" cy="958" r="6" class="c0"/>
<circle cx="858" cy="896" r="6" class="c0"/>
<circle cx="1384" cy="820" r="6" class="c0"/>
<circle cx="1212" cy="868" r="6" class="c0"/>
<circle cx="444" cy="936" r="6" class="c0"/>
<circle cx="1018" cy="838" r="6" class="c0"/>
<circle cx="568" cy="980" r="6" class="c0"/>
<circle cx="1062" cy="862" r="6" class="c0"/>
<circle cx="1340" cy="804" r="6" class="c0"/>
<circle cx="816" cy="1004" r="6" class="c0"/>
<circle cx="1378" cy="1016" r="6" class="c0"/>
<circle cx="1244" cy="954" r="6" class="c0"/>
<circle cx="750" cy="932" r="6" class="c0"/>
<circle cx="784" cy="812" r="6" class="c0"/>
<circle cx="1000" cy="630" r="6" class="c0"/>
<circle cx="1132" cy="790" r="6" class="c0"/>
<circle cx="1186" cy="778" r="6" class="c0"/>
<circle cx="1168" cy="464" r="6" class="c0"/>
<circle cx="1432" cy="754" r="6" class="c0"/>
<circle cx="668" cy="934" r="6" class="c0"/>
<circle cx="998" cy="994" r="6" class="c0"/>
<circle cx="1444" cy="886" r="6" class="c0"/>
<circle cx="1368" cy="758" r="6" class="c0"/>
<circle cx="708" cy="928" r="6" class="c0"/>
<circle cx="1146" cy="442" r="6" class="c0"/>
<circle cx="1070" cy="716" r="6" class="c0"/>
<circle cx="1234" cy="806" r="6" class="c0"/>
<circle cx="1154" cy="1042" r="6" class="c0"/>
<circle cx="880" cy="994" r="6" class="c0"/>
<circle cx="746" cy="1076" r="6" class="c0"/>
<circle cx="1270" cy="812" r="6" class="c0"/>
<circle cx="878" cy="838" r="6" class="c0"/>
<circle cx="1292" cy="936" r="6" class="c0"/>
<circle cx="1112" cy="822" r="6" class="c0"/>
<circle cx="1024" cy="738" r="6" class="c0"/>
<circle cx="724" cy="986" r="6" class="c0"/>
<circle cx="1390" cy="968" r="6" class="c0"/>
<circle cx="1566" cy="654" r="6" class="c0"/>
<circle cx="1402" cy="886" r="6" class="c0"/>
<circle cx="1222" cy="614" r="6" class="c0"/>
<circle cx="540" cy="924" r="6" class="c0"/>
<circle cx="630" cy="830" r="6" class="c0"/>
<circle cx="486" cy="898" r="6" class="c0"/>
<circle cx="1190" cy="626" r="6" class="c0"/>
<circle cx="1272" cy="960" r="6" class="c0"/>
<circle cx="304" cy="862" r="6" class="c0"/>
<circle cx="1080" cy="1062" r="6" class="c0"/>
<circle cx="912" cy="906" r="6" class="c0"/>
<circle cx="1060" cy="358" r="6" class="c0"/>
<circle cx="1490" cy="736" r="6" class="c0"/>
<circle cx="770" cy="972" r="6" class="c0"/>
<circle cx="416" cy="792" r="6" class="c0"/>
<circle cx="912" cy="954" r="6" class="c0"/>
<circle cx="1174" cy="826" r="6" class="c0"/>
<circle cx="566" cy="764" r="6" class="c0"/>
<circle cx="614" cy="798" r="6" class="c0"/>
<circle cx="456" cy="886" r="6" class="c0"/>
<circle cx="688" cy="1010" r="6" class="c0"/>
<circle cx="1142" cy="400" r="6" class="c0"/>
<circle cx="1344" cy="1050" r="6" class="c0"/>
<circle cx="1030" cy="364" r="6" class="c0"/>
<circle cx="1326" cy="788" r="6" class="c0"/>
<circle cx="1222" cy="884" r="6" class="c0"/>
<circle cx="1038" cy="914" r="6" class="c0"/>
<circle cx="1168" cy="1032" r="6" class="c0"/>
<circle cx="1488" cy="828" r="6" class="c0"/>
<circle cx="1576" cy="724" r="6" class="c0"/>
<circle cx="1202" cy="692" r="6" class="c0"/>
<circle cx="492" cy="886" r="6" class="c0"/>
<circle cx="1230" cy="586" r="6" class="c0"/>
<circle cx="1020" cy="752" r="6" class="c0"/>
<circle cx="1238" cy="788" r="6" class="c0"/>
<circle cx="1446" cy="868" r="6" class="c0"/>
<circle cx="470" cy="822" r="6" class="c0"/>
<circle cx="1332" cy="770" r="6" class="c0"/>
<circle cx="1134" cy="880" r="6" class="c0"/>
<circle cx="1318" cy="962" r="6" class="c0"/>
<circle cx="812" cy="868" r="6" class="c0"/>
<circle cx="1582" cy="668" r="6" class="c0"/>
<circle cx="680" cy="1026" r="6" class="c0"/>
<circle cx="490" cy="854" r="6" class="c0"/>
<circle cx="538" cy="784" r="6" class="c0"/>
<circle cx="1130" cy="390" r="6" class="c0"/>
<circle cx="1584" cy="706" r="6" class="c0"/>
<circle cx="1188" cy="592" r="6" class="c0"/>
<circle cx="1392" cy="772" r="6" class="c0"/>
<circle cx="860" cy="914" r="6" class="c0"/>
<circle cx="1176" cy="536" r="6" class="c0"/>
<circle cx="820" cy="1048" r="6" class="c0"/>
<circle cx="1320" cy="948" r="6" class="c0"/>
<circle cx="1104" cy="650" r="6" class="c0"/>
<circle cx="1258" cy="668" r="6" class="c0"/>
<circle cx="1412" cy="1002" r="6" class="c0"/>
<circle cx="548" cy="764" r="6" class="c0"/>
<circle cx="1308" cy="1004" r="6" class="c0"/>
<circle cx="1186" cy="892" r="6" class="c0"/>
<circle cx="1100" cy="398" r="6" class="c0"/>
<circle cx="632" cy="862" r="6" class="c0"/>
<circle cx="804" cy="964" r="6" class="c0"/>
<circle cx="1098" cy="628" r="6" class="c0"/>
<circle cx="1180" cy="638" r="6" class="c0"/>
<circle cx="1036" cy="696" r="6" class="c0"/>
<circle cx="478" cy="788" r="6" class="c0"/>
<circle cx="1254" cy="884" r="6" class="c0"/>
<circle cx="1432" cy="870" r="6" class="c0"/>
<circle cx="1140" cy="1044" r="6" class="c0"/>
<circle cx="1204" cy="1054" r="6" class="c0"/>
<circle cx="582" cy="898" r="6" class="c0"/>
<circle cx="1064" cy="660" r="6" class="c0"/>
<circle cx="738" cy="796" r="6" class="c0"/>
<circle cx="1200" cy="542" r="6" class="c0"/>
<circle cx="1044" cy="714" r="6" class="c0"/>
<circle cx="1242" cy="694" r="6" class="c0"/>
<circle cx="906" cy="880" r="6" class="c0"/>
<circle cx="292" cy="804" r="6" class="c0"/>
<circle cx="378" cy="918" r="6" class="c0"/>
<circle cx="1140" cy="724" r="6" class="c0"/>
<circle cx="1160" cy="476" r="6" class="c0"/>
<circle cx="664" cy="868" r="6" class="c0"/>
<circle cx="552" cy="830" r="6" class="c0"/>
<circle cx="750" cy="1054" r="6" class="c0"/>
<circle cx="1164" cy="872" r="6" class="c0"/>
<circle cx="1358" cy="906" r="6" class="c0"/>
<circle cx="1236" cy="934" r="6" class="c0"/>
<circle cx="366" cy="834" r="6" class="c0"/>
<circle cx="1520" cy="742" r="6" class="c0"/>
<circle cx="1210" cy="754" r="6" class="c0"/>
<circle cx="718" cy="962" r="6" class="c0"/>
<circle cx="946" cy="938" r="6" class="c0"/>
<circle cx="416" cy="858" r="6" class="c0"/>
<circle cx="1004" cy="908" r="6" class="c0"/>
<circle cx="274" cy="834" r="6" class="c0"/>
<circle cx="1000" cy="584" r="6" class="c0"/>
<circle cx="1188" cy="558" r="6" class="c0"/>
<circle cx="1146" cy="672" r="6" class="c0"/>
<circle cx="1184" cy="312" r="6" class="c0"/>
<circle cx="1364" cy="846" r="6" class="c0"/>
<circle cx="1222" cy="574" r="6" class="c0"/>
<circle cx="1194" cy="786" r="6" class="c0"/>
<circle cx="1014" cy="924" r="6" class="c0"/>
<circle cx="1364" cy="776" r="6" class="c0"/>
<circle cx="1114" cy="866" r="6" class="c0"/>
<circle cx="1218" cy="672" r="6" class="c0"/>
<circle cx="1028" cy="990" r="6" class="c0"/>
<circle cx="828" cy="952" r="6" class="c0"/>
<circle cx="384" cy="800" r="6" class="c0"/>
<circle cx="1148" cy="982" r="6" class="c0"/>
<circle cx="996" cy="652" r="6" class="c0"/>
<circle cx="932" cy="980" r="6" class="c0"/>
<circle cx="1058" cy="740" r="6" class="c0"/>
<circle cx="796" cy="1018" r="6" class="c0"/>
<circle cx="1188" cy="398" r="6" class="c0"/>
<circle cx="904" cy="944" r="6" class="c0"/>
<circle cx="468" cy="798" r="6" class="c0"/>
<circle cx="326" cy="800" r="6" class="c0"/>
<circle cx="1388" cy="982" r="6" class="c0"/>
<circle cx="1078" cy="778" r="6" class="c0"/>
<circle cx="1102" cy="766" r="6" class="c0"/>
<circle cx="742" cy="916" r="6" class="c0"/>
<circle cx="1552" cy="704" r="6" class="c0"/>
<circle cx="426" cy="908" r="6" class="c0"/>
<circle cx="342" cy="776" r="6" class="c0"/>
<circle cx="1198" cy="322" r="6" class="c0"/>
<circle cx="1060" cy="1030" r="6" class="c0"/>
<circle cx="996" cy="822" r="6" class="c0"/>
<circle cx="394" cy="854" r="6" class="c0"/>
<circle cx="676" cy="996" r="6" class="c0"/>
<circle cx="1054" cy="772" r="6" class="c0"/>
<circle cx="1362" cy="934" r="6" class="c0"/>
<circle cx="1030" cy="894" r="6" class="c0"/>
<circle cx="520" cy="910" r="6" class="c0"/>
<circle cx="1114" cy="338" r="6" class="c0"/>
<circle cx="650" cy="916" r="6" class="c0"/>
<circle cx="1032" cy="728" r="6" class="c0"/>
<circle cx="1118" cy="802" r="6" class="c0"/>
<circle cx="334" cy="894" r="6" class="c0"/>
<circle cx="978" cy="922" r="6" class="c0"/>
<circle cx="1554" cy="750" r="6" class="c0"/>
<circle cx="932" cy="910" r="6" class="c0"/>
<circle cx="394" cy="768" r="6" class="c0"/>
<circle cx="438" cy="874" r="6" class="c0"/>
<circle cx="1004" cy="830" r="6" class="c0"/>
<circle cx="1260" cy="952" r="6" class="c0"/>
<circle cx="774" cy="910" r="6" class="c0"/>
<circle cx="1106" cy="960" r="6" class="c0"/>
<circle cx="786" cy="798" r="6" class="c0"/>
<circle cx="796" cy="900" r="6" class="c0"/>
<circle cx="750" cy="1034" r="6" class="c0"/>
<circle cx="1502" cy="836" r="6" class="c0"/>
<circle cx="1222" cy="762" r="6" class="c0"/>
<circle cx="1206" cy="446" r="6" class="c0"/>
<circle cx="1322" cy="1026" r="6" class="c0"/>
<circle cx="348" cy="916" r="6" class="c0"/>
<circle cx="1094" cy="920" r="6" class="c0"/>
<circle cx="1398" cy="872" r="6" class="c0"/>
<circle cx="650" cy="830" r="6" class="c0"/>
<circle cx="336" cy="792" r="6" class="c0"/>
<circle cx="1182" cy="986" r="6" class="c0"/>
<circle cx="1038" cy="740" r="6" class="c0"/>
<circle cx="998" cy="688" r="6" class="c0"/>
<circle cx="964" cy="972" r="6" class="c0"/>
<circle cx="830" cy="1056" r="6" class="c0"/>
<circle cx="842" cy="806" r="6" class="c0"/>
<circle cx="414" cy="768" r="6" class="c0"/>
<circle cx="484" cy="868" r="6" class="c0"/>
<circle cx="1296" cy="1038" r="6" class="c0"/>
<circle cx="1230" cy="472" r="6" class="c0"/>
<circle cx="784" cy="1070" r="6" class="c0"/>
<circle cx="1402" cy="780" r="6" class="c0"/>
<circle cx="1054" cy="854" r="6" class="c0"/>
<circle cx="1420" cy="944" r="6" class="c0"/>
<circle cx="1164" cy="818" r="6" class="c0"/>
<circle cx="816" cy="820" r="6" class="c0"/>
<circle cx="548" cy="872" r="6" class="c0"/>
<circle cx="468" cy="940" r="6" class="c0"/>
<circle cx="1136" cy="504" r="6" class="c0"/>
<circle cx="1162" cy="952" r="6" class="c0"/>
<circle cx="998" cy="430" r="6" class="c0"/>
<circle cx="1058" cy="822" r="6" class="c0"/>
<circle cx="1166" cy="588" r="6" class="c0"/>
<circle cx="1242" cy="968" r="6" class="c0"/>
<circle cx="1138" cy="680" r="6" class="c0"/>
<circle cx="1114" cy="658" r="6" class="c0"/>
<circle cx="424" cy="846" r="6" class="c0"/>
<circle cx="938" cy="860" r="6" class="c0"/>
<circle cx="1188" cy="848" r="6" class="c0"/>
<circle cx="1094" cy="384" r="6" class="c0"/>
<circle cx="1358" cy="964" r="6" class="c0"/>
<circle cx="572" cy="776" r="6" class="c0"/>
<circle cx="996" cy="674" r="6" class="c0"/>
<circle cx="1102" cy="846" r="6" class="c0"/>
<circle cx="432" cy="922" r="6" class="c0"/>
<circle cx="418" cy="898" r="6" class="c0"/>
<circle cx="1006" cy="504" r="6" class="c0"/>
<circle cx="844" cy="1014" r="6" class="c0"/>
<circle cx="826" cy="1012" r="6" class="c0"/>
<circle cx="500" cy="932" r="6" class="c0"/>
<circle cx="790" cy="824" r="6" class="c0"/>
<circle cx="1210" cy="492" r="6" class="c0"/>
<circle cx="1354" cy="1042" r="6" class="c0"/>
<circle cx="808" cy="850" r="6" class="c0"/>
<circle cx="348" cy="864" r="6" class="c0"/>
<circle cx="776" cy="822" r="6" class="c0"/>
<circle cx="1172" cy="428" r="6" class="c0"/>
</svg>
