<?xml version="1.0" encoding="utf-8"?>
<svg xmlns="http://www.w3.org/2000/svg"
     xmlns:xlink="http://www.w3.org/1999/xlink" width="1920" height="1440" >

            <defs>
            <style type="text/css"><![CDATA[
circle {stroke: none;}
.c0 {fill: #FFFFFF;}
]]></style>
            </defs>
<rect x="0" y="0" width="1920" height="1440" fill="black"/>
<circle cx="1268" cy="644" r="12" class="c0"/>
<circle cx="1612" cy="674" r="12" class="c0"/>
<circle cx="1772" cy="660" r="12" class="c0"/>
<circle cx="1290" cy="618" r="12" class="c0"/>
<circle cx="1412" cy="674" r="12" class="c0"/>
<circle cx="1666" cy="650" r="10" class="c0"/>
<circle cx="1224" cy="648" r="10" class="c0"/>
<circle cx="1782" cy="640" r="10" class="c0"/>
<circle cx="1636" cy="650" r="10" class="c0"/>
<circle cx="1408" cy="614" r="10" class="c0"/>
<circle cx="1752" cy="588" r="10" class="c0"/>
<circle cx="1714" cy="638" r="10" class="c0"/>
<circle cx="1512" cy="636" r="10" class="c0"/>
<circle cx="1394" cy="644" r="10" class="c0"/>
<circle cx="1742" cy="630" r="10" class="c0"/>
<circle cx="1798" cy="612" r="10" class="c0"/>
<circle cx="1876" cy="578" r="10" class="c0"/>
<circle cx="1832" cy="640" r="10" class="c0"/>
<circle cx="1460" cy="640" r="10" class="c0"/>
<circle cx="1854" cy="576" r="10" class="c0"/>
<circle cx="1740" cy="660" r="10" class="c0"/>
<circle cx="1370" cy="666" r="10" class="c0"/>
<circle cx="1364" cy="624" r="10" class="c0"/>
<circle cx="1348" cy="672" r="10" class="c0"/>
<circle cx="1460" cy="614" r="10" class="c0"/>
<circle cx="1560" cy="640" r="10" class="c0"/>
<circle cx="1732" cy="606" r="10" class="c0"/>
<circle cx="1674" cy="678" r="10" class="c0"/>
<circle cx="1682" cy="622" r="10" class="c0"/>
<circle cx="1808" cy="584" r="10" class="c0"/>
<circle cx="1438" cy="660" r="10" class="c0"/>
<circle cx="1580" cy="630" r="10" class="c0"/>
<circle cx="1482" cy="648" r="8" class="c0"/>
<circle cx="1318" cy="622" r="8" class="c0"/>
<circle cx="1896" cy="612" r="8" class="c0"/>
<circle cx="1358" cy="646" r="8" class="c0"/>
<circle cx="1720" cy="684" r="8" class="c0"/>
<circle cx="1310" cy="604" r="8" class="c0"/>
<circle cx="1690" cy="646" r="8" class="c0"/>
<circle cx="1762" cy="626" r="8" class="c0"/>
<circle cx="1318" cy="678" r="8" class="c0"/>
<circle cx="1636" cy="678" r="8" class="c0"/>
<circle cx="1498" cy="662" r="8" class="c0"/>
<circle cx="1326" cy="660" r="8" class="c0"/>
<circle cx="1806" cy="662" r="8" class="c0"/>
<circle cx="1846" cy="608" r="8" class="c0"/>
<circle cx="1708" cy="610" r="8" class="c0"/>
<circle cx="1882" cy="622" r="8" class="c0"/>
<circle cx="1818" cy="628" r="8" class="c0"/>
<circle cx="1342" cy="632" r="8" class="c0"/>
<circle cx="1298" cy="658" r="8" class="c0"/>
<circle cx="1606" cy="626" r="8" class="c0"/>
<circle cx="1542" cy="664" r="8" class="c0"/>
<circle cx="1700" cy="664" r="8" class="c0"/>
<circle cx="1466" cy="672" r="8" class="c0"/>
<circle cx="1856" cy="626" r="8" class="c0"/>
<circle cx="1626" cy="632" r="8" class="c0"/>
<circle cx="1674" cy="602" r="8" class="c0"/>
<circle cx="1896" cy="580" r="8" class="c0"/>
<circle cx="1388" cy="616" r="8" class="c0"/>
<circle cx="1438" cy="628" r="8" class="c0"/>
<circle cx="1532" cy="630" r="8" class="c0"/>
<circle cx="1428" cy="644" r="8" class="c0"/>
<circle cx="1604" cy="650" r="8" class="c0"/>
<circle cx="1478" cy="624" r="8" class="c0"/>
<circle cx="1876" cy="600" r="8" class="c0"/>
<circle cx="1838" cy="588" r="8" class="c0"/>
<circle cx="1390" cy="668" r="8" class="c0"/>
<circle cx="1336" cy="650" r="8" class="c0"/>
<circle cx="1332" cy="606" r="8" class="c0"/>
<circle cx="1254" cy="626" r="8" class="c0"/>
<circle cx="1778" cy="616" r="8" class="c0"/>
<circle cx="1824" cy="600" r="8" class="c0"/>
<circle cx="1278" cy="662" r="8" class="c0"/>
<circle cx="1906" cy="622" r="8" class="c0"/>
<circle cx="1786" cy="574" r="8" class="c0"/>
<circle cx="1752" cy="646" r="8" class="c0"/>
<circle cx="1376" cy="606" r="8" class="c0"/>
<circle cx="1720" cy="592" r="8" class="c0"/>
<circle cx="1858" cy="596" r="8" class="c0"/>
<circle cx="1314" cy="646" r="8" class="c0"/>
<circle cx="1564" cy="662" r="8" class="c0"/>
<circle cx="1650" cy="664" r="8" class="c0"/>
<circle cx="1770" cy="596" r="8" class="c0"/>
<circle cx="1760" cy="608" r="6" class="c0"/>
<circle cx="1522" cy="670" r="6" class="c0"/>
<circle cx="1542" cy="644" r="6" class="c0"/>
<circle cx="1302" cy="632" r="6" class="c0"/>
<circle cx="1590" cy="672" r="6" class="c0"/>
<circle cx="1832" cy="618" r="6" class="c0"/>
<circle cx="1494" cy="616" r="6" class="c0"/>
<circle cx="1240" cy="634" r="6" class="c0"/>
<circle cx="1268" cy="614" r="6" class="c0"/>
<circle cx="1480" cy="664" r="6" class="c0"/>
<circle cx="1792" cy="594" r="6" class="c0"/>
<circle cx="1890" cy="638" r="6" class="c0"/>
<circle cx="1800" cy="638" r="6" class="c0"/>
<circle cx="1288" cy="676" r="6" class="c0"/>
<circle cx="1906" cy="596" r="6" class="c0"/>
<circle cx="1256" cy="658" r="6" class="c0"/>
<circle cx="1816" cy="674" r="6" class="c0"/>
<circle cx="1422" cy="624" r="6" class="c0"/>
<circle cx="1788" cy="670" r="6" class="c0"/>
<circle cx="1576" cy="650" r="6" class="c0"/>
<circle cx="1290" cy="640" r="6" class="c0"/>
<circle cx="1280" cy="602" r="6" class="c0"/>
<circle cx="1556" cy="676" r="6" class="c0"/>
<circle cx="1698" cy="594" r="6" class="c0"/>
<circle cx="1834" cy="666" r="6" class="c0"/>
<circle cx="1426" cy="610" r="6" class="c0"/>
<circle cx="1514" cy="616" r="6" class="c0"/>
<circle cx="1822" cy="656" r="6" class="c0"/>
<circle cx="1264" cy="670" r="6" class="c0"/>
<circle cx="1346" cy="616" r="6" class="c0"/>
<circle cx="1866" cy="636" r="6" class="c0"/>
<circle cx="1650" cy="636" r="6" class="c0"/>
<circle cx="1754" cy="670" r="6" class="c0"/>
<circle cx="1542" cy="620" r="6" class="c0"/>
<circle cx="1662" cy="626" r="6" class="c0"/>
<circle cx="1642" cy="628" r="6" class="c0"/>
<circle cx="1356" cy="604" r="6" class="c0"/>
<circle cx="1730" cy="674" r="6" class="c0"/>
<circle cx="1686" cy="586" r="6" class="c0"/>
<circle cx="1446" cy="678" r="6" class="c0"/>
<circle cx="1412" cy="646" r="6" class="c0"/>
<circle cx="1588" cy="656" r="6" class="c0"/>
<circle cx="1406" cy="632" r="6" class="c0"/>
<circle cx="1514" cy="660" r="6" class="c0"/>
<circle cx="1744" cy="678" r="6" class="c0"/>
<circle cx="1826" cy="578" r="6" class="c0"/>
<circle cx="1458" cy="658" r="6" class="c0"/>
<circle cx="1524" cy="650" r="6" class="c0"/>
<circle cx="1742" cy="574" r="6" class="c0"/>
<circle cx="1558" cy="622" r="6" class="c0"/>
<circle cx="1680" cy="660" r="6" class="c0"/>
<circle cx="1732" cy="644" r="6" class="c0"/>
<circle cx="1710" cy="578" r="6" class="c0"/>
<circle cx="1702" cy="682" r="6" class="c0"/>
<circle cx="1722" cy="622" r="6" class="c0"/>
<circle cx="1700" cy="628" r="6" class="c0"/>
<circle cx="1904" cy="640" r="6" class="c0"/>
<circle cx="1720" cy="662" r="6" class="c0"/>
</svg>
