<?xml version="1.0" encoding="utf-8"?>
<svg xmlns="http://www.w3.org/2000/svg"
     xmlns:xlink="http://www.w3.org/1999/xlink" width="1920" height="1440" >

            <defs>
            <style type="text/css"><![CDATA[
circle {stroke: none;}
.c0 {fill: #FFFFFF;}
]]></style>
            </defs>
<rect x="0" y="0" width="1920" height="1440" fill="black"/>
<circle cx="1754" cy="654" r="14" class="c0"/>
<circle cx="1664" cy="652" r="12" class="c0"/>
<circle cx="1618" cy="658" r="12" class="c0"/>
<circle cx="1628" cy="620" r="12" class="c0"/>
<circle cx="1776" cy="690" r="12" class="c0"/>
<circle cx="1612" cy="684" r="12" class="c0"/>
<circle cx="1718" cy="662" r="10" class="c0"/>
<circle cx="1900" cy="664" r="10" class="c0"/>
<circle cx="1588" cy="656" r="10" class="c0"/>
<circle cx="1776" cy="636" r="10" class="c0"/>
<circle cx="1796" cy="670" r="10" class="c0"/>
<circle cx="1842" cy="692" r="10" class="c0"/>
<circle cx="1862" cy="662" r="10" class="c0"/>
<circle cx="1576" cy="636" r="10" class="c0"/>
<circle cx="1656" cy="682" r="10" class="c0"/>
<circle cx="1836" cy="654" r="10" class="c0"/>
<circle cx="1694" cy="626" r="10" class="c0"/>
<circle cx="1692" cy="662" r="10" class="c0"/>
<circle cx="1748" cy="692" r="10" class="c0"/>
<circle cx="1668" cy="618" r="8" class="c0"/>
<circle cx="1832" cy="674" r="8" class="c0"/>
<circle cx="1566" cy="652" r="8" class="c0"/>
<circle cx="1892" cy="688" r="8" class="c0"/>
<circle cx="1708" cy="638" r="8" class="c0"/>
<circle cx="1678" cy="682" r="8" class="c0"/>
<circle cx="1876" cy="644" r="8" class="c0"/>
<circle cx="1734" cy="674" r="8" class="c0"/>
<circle cx="1652" cy="628" r="8" class="c0"/>
<circle cx="1732" cy="630" r="8" class="c0"/>
<circle cx="1648" cy="664" r="8" class="c0"/>
<circle cx="1716" cy="688" r="8" class="c0"/>
<circle cx="1640" cy="638" r="8" class="c0"/>
<circle cx="1608" cy="640" r="8" class="c0"/>
<circle cx="1700" cy="680" r="8" class="c0"/>
<circle cx="1896" cy="644" r="8" class="c0"/>
<circle cx="1882" cy="678" r="8" class="c0"/>
<circle cx="1554" cy="662" r="8" class="c0"/>
<circle cx="1682" cy="638" r="8" class="c0"/>
<circle cx="1856" cy="640" r="8" class="c0"/>
<circle cx="1808" cy="686" r="8" class="c0"/>
<circle cx="1604" cy="618" r="8" class="c0"/>
<circle cx="1854" cy="680" r="8" class="c0"/>
<circle cx="1630" cy="674" r="8" class="c0"/>
<circle cx="1866" cy="698" r="8" class="c0"/>
<circle cx="1690" cy="696" r="8" class="c0"/>
<circle cx="1794" cy="644" r="8" class="c0"/>
<circle cx="1588" cy="678" r="8" class="c0"/>
<circle cx="1776" cy="668" r="6" class="c0"/>
<circle cx="1726" cy="700" r="6" class="c0"/>
<circle cx="1816" cy="654" r="6" class="c0"/>
<circle cx="1912" cy="690" r="6" class="c0"/>
<circle cx="1822" cy="642" r="6" class="c0"/>
<circle cx="1552" cy="644" r="6" class="c0"/>
<circle cx="1784" cy="658" r="6" class="c0"/>
<circle cx="1670" cy="696" r="6" class="c0"/>
<circle cx="1902" cy="700" r="6" class="c0"/>
<circle cx="1716" cy="622" r="6" class="c0"/>
<circle cx="1588" cy="620" r="6" class="c0"/>
<circle cx="1822" cy="696" r="6" class="c0"/>
<circle cx="1750" cy="628" r="6" class="c0"/>
<circle cx="1638" cy="698" r="6" class="c0"/>
<circle cx="1542" cy="652" r="6" class="c0"/>
<circle cx="1762" cy="678" r="6" class="c0"/>
<circle cx="1566" cy="672" r="6" class="c0"/>
<circle cx="1706" cy="700" r="6" class="c0"/>
<circle cx="1800" cy="700" r="6" class="c0"/>
<circle cx="1724" cy="644" r="6" class="c0"/>
<circle cx="1732" cy="652" r="6" class="c0"/>
<circle cx="1912" cy="650" r="6" class="c0"/>
<circle cx="1838" cy="636" r="6" class="c0"/>
<circle cx="1596" cy="696" r="6" class="c0"/>
</svg>
