<?xml version="1.0" encoding="utf-8"?>
<svg xmlns="http://www.w3.org/2000/svg"
     xmlns:xlink="http://www.w3.org/1999/xlink" width="1920" height="1440" >

            <defs>
            <style type="text/css"><![CDATA[
circle {stroke: none;}
.c0 {fill: #FFFFFF;}
]]></style>
            </defs>
<rect x="0" y="0" width="1920" height="1440" fill="black"/>
<circle cx="1770" cy="786" r="12" class="c0"/>
<circle cx="1598" cy="692" r="12" class="c0"/>
<circle cx="1626" cy="732" r="12" class="c0"/>
<circle cx="1656" cy="770" r="12" class="c0"/>
<circle cx="1840" cy="798" r="12" class="c0"/>
<circle cx="1712" cy="786" r="12" class="c0"/>
<circle cx="1816" cy="810" r="12" class="c0"/>
<circle cx="1746" cy="808" r="12" class="c0"/>
<circle cx="1818" cy="760" r="12" class="c0"/>
<circle cx="1526" cy="722" r="12" class="c0"/>
<circle cx="1686" cy="712" r="12" class="c0"/>
<circle cx="1764" cy="746" r="12" class="c0"/>
<circle cx="1570" cy="722" r="10" class="c0"/>
<circle cx="1560" cy="744" r="10" class="c0"/>
<circle cx="1844" cy="744" r="10" class="c0"/>
<circle cx="1746" cy="762" r="10" class="c0"/>
<circle cx="1648" cy="704" r="10" class="c0"/>
<circle cx="1638" cy="752" r="10" class="c0"/>
<circle cx="1616" cy="776" r="10" class="c0"/>
<circle cx="1874" cy="802" r="10" class="c0"/>
<circle cx="1798" cy="778" r="10" class="c0"/>
<circle cx="1708" cy="752" r="10" class="c0"/>
<circle cx="1732" cy="722" r="10" class="c0"/>
<circle cx="1680" cy="744" r="10" class="c0"/>
<circle cx="1590" cy="776" r="10" class="c0"/>
<circle cx="1878" cy="766" r="10" class="c0"/>
<circle cx="1836" cy="824" r="10" class="c0"/>
<circle cx="1836" cy="774" r="10" class="c0"/>
<circle cx="1622" cy="700" r="10" class="c0"/>
<circle cx="1546" cy="758" r="10" class="c0"/>
<circle cx="1890" cy="780" r="10" class="c0"/>
<circle cx="1668" cy="788" r="10" class="c0"/>
<circle cx="1690" cy="772" r="10" class="c0"/>
<circle cx="1904" cy="820" r="10" class="c0"/>
<circle cx="1690" cy="798" r="10" class="c0"/>
<circle cx="1668" cy="726" r="10" class="c0"/>
<circle cx="1860" cy="784" r="8" class="c0"/>
<circle cx="1604" cy="722" r="8" class="c0"/>
<circle cx="1774" cy="810" r="8" class="c0"/>
<circle cx="1906" cy="764" r="8" class="c0"/>
<circle cx="1818" cy="788" r="8" class="c0"/>
<circle cx="1796" cy="802" r="8" class="c0"/>
<circle cx="1600" cy="758" r="8" class="c0"/>
<circle cx="1604" cy="790" r="8" class="c0"/>
<circle cx="1734" cy="790" r="8" class="c0"/>
<circle cx="1890" cy="832" r="8" class="c0"/>
<circle cx="1562" cy="774" r="8" class="c0"/>
<circle cx="1562" cy="702" r="8" class="c0"/>
<circle cx="1582" cy="710" r="8" class="c0"/>
<circle cx="1750" cy="730" r="8" class="c0"/>
<circle cx="1550" cy="716" r="8" class="c0"/>
<circle cx="1654" cy="742" r="8" class="c0"/>
<circle cx="1796" cy="740" r="8" class="c0"/>
<circle cx="1718" cy="710" r="8" class="c0"/>
<circle cx="1778" cy="730" r="8" class="c0"/>
<circle cx="1632" cy="794" r="8" class="c0"/>
<circle cx="1858" cy="822" r="8" class="c0"/>
<circle cx="1910" cy="786" r="8" class="c0"/>
<circle cx="1710" cy="730" r="8" class="c0"/>
<circle cx="1596" cy="738" r="8" class="c0"/>
<circle cx="1722" cy="768" r="8" class="c0"/>
<circle cx="1894" cy="804" r="8" class="c0"/>
<circle cx="1740" cy="742" r="8" class="c0"/>
<circle cx="1534" cy="742" r="8" class="c0"/>
<circle cx="1788" cy="760" r="8" class="c0"/>
<circle cx="1852" cy="764" r="8" class="c0"/>
<circle cx="1724" cy="804" r="8" class="c0"/>
<circle cx="1576" cy="690" r="8" class="c0"/>
<circle cx="1572" cy="760" r="8" class="c0"/>
<circle cx="1582" cy="748" r="8" class="c0"/>
<circle cx="1540" cy="704" r="8" class="c0"/>
<circle cx="1656" cy="800" r="8" class="c0"/>
<circle cx="1866" cy="754" r="8" class="c0"/>
<circle cx="1614" cy="748" r="8" class="c0"/>
<circle cx="1670" cy="700" r="8" class="c0"/>
<circle cx="1894" cy="752" r="8" class="c0"/>
<circle cx="1642" cy="784" r="8" class="c0"/>
<circle cx="1822" cy="736" r="8" class="c0"/>
<circle cx="1880" cy="822" r="8" class="c0"/>
<circle cx="1646" cy="724" r="8" class="c0"/>
<circle cx="1720" cy="740" r="8" class="c0"/>
<circle cx="1730" cy="752" r="8" class="c0"/>
<circle cx="1748" cy="780" r="6" class="c0"/>
<circle cx="1708" cy="806" r="6" class="c0"/>
<circle cx="1792" cy="820" r="6" class="c0"/>
<circle cx="1546" cy="732" r="6" class="c0"/>
<circle cx="1868" cy="832" r="6" class="c0"/>
<circle cx="1576" cy="786" r="6" class="c0"/>
<circle cx="1912" cy="804" r="6" class="c0"/>
<circle cx="1692" cy="732" r="6" class="c0"/>
<circle cx="1672" cy="760" r="6" class="c0"/>
<circle cx="1772" cy="766" r="6" class="c0"/>
<circle cx="1906" cy="838" r="6" class="c0"/>
<circle cx="1636" cy="690" r="6" class="c0"/>
<circle cx="1634" cy="714" r="6" class="c0"/>
<circle cx="1634" cy="770" r="6" class="c0"/>
<circle cx="1664" cy="752" r="6" class="c0"/>
<circle cx="1760" cy="720" r="6" class="c0"/>
</svg>
