<?xml version="1.0" encoding="utf-8"?>
<svg xmlns="http://www.w3.org/2000/svg"
     xmlns:xlink="http://www.w3.org/1999/xlink" width="1920" height="1440" >

            <defs>
            <style type="text/css"><![CDATA[
circle {stroke: none;}
.c0 {fill: #FFFFFF;}
]]></style>
            </defs>
<rect x="0" y="0" width="1920" height="1440" fill="black"/>
<circle cx="1852" cy="1002" r="14" class="c0"/>
<circle cx="1582" cy="772" r="12" class="c0"/>
<circle cx="1706" cy="922" r="12" class="c0"/>
<circle cx="1414" cy="734" r="12" class="c0"/>
<circle cx="1824" cy="1020" r="12" class="c0"/>
<circle cx="1760" cy="860" r="12" class="c0"/>
<circle cx="1852" cy="944" r="12" class="c0"/>
<circle cx="1482" cy="848" r="12" class="c0"/>
<circle cx="1486" cy="766" r="12" class="c0"/>
<circle cx="1594" cy="878" r="12" class="c0"/>
<circle cx="1892" cy="1034" r="12" class="c0"/>
<circle cx="1560" cy="862" r="12" class="c0"/>
<circle cx="1504" cy="782" r="12" class="c0"/>
<circle cx="1542" cy="844" r="12" class="c0"/>
<circle cx="1712" cy="842" r="12" class="c0"/>
<circle cx="1524" cy="796" r="12" class="c0"/>
<circle cx="1602" cy="848" r="12" class="c0"/>
<circle cx="1680" cy="808" r="12" class="c0"/>
<circle cx="1644" cy="854" r="12" class="c0"/>
<circle cx="1656" cy="916" r="12" class="c0"/>
<circle cx="1664" cy="826" r="12" class="c0"/>
<circle cx="1488" cy="804" r="12" class="c0"/>
<circle cx="1906" cy="1068" r="12" class="c0"/>
<circle cx="1430" cy="752" r="12" class="c0"/>
<circle cx="1690" cy="896" r="10" class="c0"/>
<circle cx="1776" cy="956" r="10" class="c0"/>
<circle cx="1784" cy="1014" r="10" class="c0"/>
<circle cx="1532" cy="886" r="10" class="c0"/>
<circle cx="1616" cy="772" r="10" class="c0"/>
<circle cx="1682" cy="972" r="10" class="c0"/>
<circle cx="1798" cy="998" r="10" class="c0"/>
<circle cx="1440" cy="822" r="10" class="c0"/>
<circle cx="1812" cy="944" r="10" class="c0"/>
<circle cx="1478" cy="726" r="10" class="c0"/>
<circle cx="1908" cy="922" r="10" class="c0"/>
<circle cx="1874" cy="1070" r="10" class="c0"/>
<circle cx="1524" cy="832" r="10" class="c0"/>
<circle cx="1618" cy="930" r="10" class="c0"/>
<circle cx="1682" cy="934" r="10" class="c0"/>
<circle cx="1624" cy="868" r="10" class="c0"/>
<circle cx="1852" cy="974" r="10" class="c0"/>
<circle cx="1562" cy="742" r="10" class="c0"/>
<circle cx="1774" cy="876" r="10" class="c0"/>
<circle cx="1860" cy="1030" r="10" class="c0"/>
<circle cx="1746" cy="918" r="10" class="c0"/>
<circle cx="1650" cy="804" r="10" class="c0"/>
<circle cx="1634" cy="902" r="10" class="c0"/>
<circle cx="1554" cy="816" r="10" class="c0"/>
<circle cx="1460" cy="772" r="10" class="c0"/>
<circle cx="1814" cy="908" r="10" class="c0"/>
<circle cx="1730" cy="886" r="10" class="c0"/>
<circle cx="1468" cy="794" r="10" class="c0"/>
<circle cx="1716" cy="976" r="10" class="c0"/>
<circle cx="1838" cy="924" r="10" class="c0"/>
<circle cx="1776" cy="842" r="10" class="c0"/>
<circle cx="1862" cy="906" r="10" class="c0"/>
<circle cx="1550" cy="778" r="10" class="c0"/>
<circle cx="1642" cy="782" r="10" class="c0"/>
<circle cx="1800" cy="852" r="10" class="c0"/>
<circle cx="1750" cy="980" r="10" class="c0"/>
<circle cx="1718" cy="808" r="10" class="c0"/>
<circle cx="1656" cy="960" r="10" class="c0"/>
<circle cx="1850" cy="886" r="10" class="c0"/>
<circle cx="1690" cy="830" r="10" class="c0"/>
<circle cx="1734" cy="962" r="10" class="c0"/>
<circle cx="1792" cy="920" r="10" class="c0"/>
<circle cx="1824" cy="978" r="10" class="c0"/>
<circle cx="1502" cy="740" r="10" class="c0"/>
<circle cx="1592" cy="812" r="10" class="c0"/>
<circle cx="1468" cy="870" r="10" class="c0"/>
<circle cx="1880" cy="968" r="10" class="c0"/>
<circle cx="1756" cy="944" r="10" class="c0"/>
<circle cx="1442" cy="798" r="10" class="c0"/>
<circle cx="1448" cy="854" r="10" class="c0"/>
<circle cx="1752" cy="1006" r="10" class="c0"/>
<circle cx="1834" cy="900" r="10" class="c0"/>
<circle cx="1902" cy="962" r="10" class="c0"/>
<circle cx="1520" cy="862" r="10" class="c0"/>
<circle cx="1566" cy="834" r="10" class="c0"/>
<circle cx="1530" cy="730" r="10" class="c0"/>
<circle cx="1702" cy="962" r="10" class="c0"/>
<circle cx="1588" cy="918" r="10" class="c0"/>
<circle cx="1696" cy="860" r="10" class="c0"/>
<circle cx="1438" cy="724" r="10" class="c0"/>
<circle cx="1550" cy="908" r="10" class="c0"/>
<circle cx="1734" cy="862" r="10" class="c0"/>
<circle cx="1880" cy="1014" r="10" class="c0"/>
<circle cx="1656" cy="886" r="10" class="c0"/>
<circle cx="1506" cy="880" r="10" class="c0"/>
<circle cx="1772" cy="896" r="8" class="c0"/>
<circle cx="1730" cy="996" r="8" class="c0"/>
<circle cx="1616" cy="806" r="8" class="c0"/>
<circle cx="1718" cy="948" r="8" class="c0"/>
<circle cx="1584" cy="736" r="8" class="c0"/>
<circle cx="1838" cy="1064" r="8" class="c0"/>
<circle cx="1510" cy="760" r="8" class="c0"/>
<circle cx="1714" cy="874" r="8" class="c0"/>
<circle cx="1422" cy="808" r="8" class="c0"/>
<circle cx="1882" cy="932" r="8" class="c0"/>
<circle cx="1570" cy="794" r="8" class="c0"/>
<circle cx="1740" cy="836" r="8" class="c0"/>
<circle cx="1764" cy="968" r="8" class="c0"/>
<circle cx="1606" cy="896" r="8" class="c0"/>
<circle cx="1888" cy="996" r="8" class="c0"/>
<circle cx="1416" cy="786" r="8" class="c0"/>
<circle cx="1410" cy="764" r="8" class="c0"/>
<circle cx="1762" cy="830" r="8" class="c0"/>
<circle cx="1764" cy="1018" r="8" class="c0"/>
<circle cx="1556" cy="720" r="8" class="c0"/>
<circle cx="1654" cy="762" r="8" class="c0"/>
<circle cx="1636" cy="938" r="8" class="c0"/>
<circle cx="1910" cy="1012" r="8" class="c0"/>
<circle cx="1802" cy="878" r="8" class="c0"/>
<circle cx="1796" cy="898" r="8" class="c0"/>
<circle cx="1780" cy="984" r="8" class="c0"/>
<circle cx="1434" cy="780" r="8" class="c0"/>
<circle cx="1488" cy="872" r="8" class="c0"/>
<circle cx="1564" cy="922" r="8" class="c0"/>
<circle cx="1668" cy="776" r="8" class="c0"/>
<circle cx="1476" cy="746" r="8" class="c0"/>
<circle cx="1664" cy="866" r="8" class="c0"/>
<circle cx="1624" cy="844" r="8" class="c0"/>
<circle cx="1806" cy="1030" r="8" class="c0"/>
<circle cx="1578" cy="936" r="8" class="c0"/>
<circle cx="1616" cy="952" r="8" class="c0"/>
<circle cx="1466" cy="820" r="8" class="c0"/>
<circle cx="1822" cy="886" r="8" class="c0"/>
<circle cx="1634" cy="818" r="8" class="c0"/>
<circle cx="1580" cy="846" r="8" class="c0"/>
<circle cx="1732" cy="936" r="8" class="c0"/>
<circle cx="1664" cy="942" r="8" class="c0"/>
<circle cx="1524" cy="772" r="8" class="c0"/>
<circle cx="1692" cy="790" r="8" class="c0"/>
<circle cx="1710" cy="898" r="8" class="c0"/>
<circle cx="1838" cy="1036" r="8" class="c0"/>
<circle cx="1608" cy="826" r="8" class="c0"/>
<circle cx="1598" cy="786" r="8" class="c0"/>
<circle cx="1576" cy="900" r="8" class="c0"/>
<circle cx="1772" cy="916" r="8" class="c0"/>
<circle cx="1644" cy="972" r="8" class="c0"/>
<circle cx="1888" cy="950" r="8" class="c0"/>
<circle cx="1880" cy="1050" r="8" class="c0"/>
<circle cx="1596" cy="750" r="8" class="c0"/>
<circle cx="1488" cy="892" r="8" class="c0"/>
<circle cx="1804" cy="962" r="8" class="c0"/>
<circle cx="1822" cy="858" r="8" class="c0"/>
<circle cx="1724" cy="912" r="8" class="c0"/>
<circle cx="1558" cy="888" r="8" class="c0"/>
<circle cx="1512" cy="906" r="8" class="c0"/>
<circle cx="1532" cy="752" r="8" class="c0"/>
<circle cx="1454" cy="734" r="8" class="c0"/>
<circle cx="1500" cy="720" r="8" class="c0"/>
<circle cx="1636" cy="882" r="8" class="c0"/>
<circle cx="1710" cy="996" r="8" class="c0"/>
<circle cx="1392" cy="746" r="8" class="c0"/>
<circle cx="1508" cy="844" r="8" class="c0"/>
<circle cx="1872" cy="986" r="8" class="c0"/>
<circle cx="1894" cy="1088" r="8" class="c0"/>
<circle cx="1618" cy="750" r="8" class="c0"/>
<circle cx="1774" cy="934" r="8" class="c0"/>
<circle cx="1672" cy="850" r="8" class="c0"/>
<circle cx="1836" cy="962" r="8" class="c0"/>
<circle cx="1890" cy="906" r="8" class="c0"/>
<circle cx="1638" cy="754" r="8" class="c0"/>
<circle cx="1496" cy="828" r="8" class="c0"/>
<circle cx="1788" cy="1036" r="8" class="c0"/>
<circle cx="1836" cy="874" r="8" class="c0"/>
<circle cx="1756" cy="884" r="8" class="c0"/>
<circle cx="1676" cy="878" r="8" class="c0"/>
<circle cx="1518" cy="718" r="8" class="c0"/>
<circle cx="1698" cy="984" r="8" class="c0"/>
<circle cx="1678" cy="914" r="8" class="c0"/>
<circle cx="1854" cy="1052" r="8" class="c0"/>
<circle cx="1624" cy="790" r="8" class="c0"/>
<circle cx="1790" cy="942" r="8" class="c0"/>
<circle cx="1508" cy="816" r="8" class="c0"/>
<circle cx="1906" cy="990" r="8" class="c0"/>
<circle cx="1664" cy="984" r="8" class="c0"/>
<circle cx="1730" cy="826" r="8" class="c0"/>
<circle cx="1598" cy="940" r="8" class="c0"/>
<circle cx="1668" cy="900" r="8" class="c0"/>
<circle cx="1878" cy="894" r="8" class="c0"/>
<circle cx="1904" cy="942" r="8" class="c0"/>
<circle cx="1742" cy="898" r="8" class="c0"/>
<circle cx="1554" cy="932" r="8" class="c0"/>
<circle cx="1746" cy="818" r="8" class="c0"/>
<circle cx="1456" cy="836" r="8" class="c0"/>
<circle cx="1768" cy="996" r="8" class="c0"/>
<circle cx="1634" cy="956" r="8" class="c0"/>
<circle cx="1498" cy="860" r="8" class="c0"/>
<circle cx="1536" cy="814" r="6" class="c0"/>
<circle cx="1698" cy="942" r="6" class="c0"/>
<circle cx="1820" cy="926" r="6" class="c0"/>
<circle cx="1600" cy="734" r="6" class="c0"/>
<circle cx="1792" cy="972" r="6" class="c0"/>
<circle cx="1910" cy="1046" r="6" class="c0"/>
<circle cx="1820" cy="1000" r="6" class="c0"/>
<circle cx="1586" cy="830" r="6" class="c0"/>
<circle cx="1574" cy="726" r="6" class="c0"/>
<circle cx="1676" cy="952" r="6" class="c0"/>
<circle cx="1398" cy="778" r="6" class="c0"/>
<circle cx="1864" cy="930" r="6" class="c0"/>
<circle cx="1702" cy="818" r="6" class="c0"/>
<circle cx="1822" cy="1052" r="6" class="c0"/>
<circle cx="1868" cy="956" r="6" class="c0"/>
<circle cx="1558" cy="762" r="6" class="c0"/>
<circle cx="1806" cy="982" r="6" class="c0"/>
<circle cx="1680" cy="992" r="6" class="c0"/>
<circle cx="1528" cy="910" r="6" class="c0"/>
<circle cx="1736" cy="1016" r="6" class="c0"/>
<circle cx="1756" cy="1038" r="6" class="c0"/>
<circle cx="1616" cy="912" r="6" class="c0"/>
<circle cx="1394" cy="728" r="6" class="c0"/>
<circle cx="1546" cy="876" r="6" class="c0"/>
<circle cx="1460" cy="750" r="6" class="c0"/>
<circle cx="1542" cy="742" r="6" class="c0"/>
<circle cx="1788" cy="864" r="6" class="c0"/>
<circle cx="1820" cy="960" r="6" class="c0"/>
<circle cx="1642" cy="834" r="6" class="c0"/>
<circle cx="1456" cy="718" r="6" class="c0"/>
<circle cx="1550" cy="798" r="6" class="c0"/>
<circle cx="1632" cy="920" r="6" class="c0"/>
<circle cx="1872" cy="922" r="6" class="c0"/>
<circle cx="1912" cy="1030" r="6" class="c0"/>
<circle cx="1538" cy="864" r="6" class="c0"/>
<circle cx="1662" cy="792" r="6" class="c0"/>
<circle cx="1910" cy="1090" r="6" class="c0"/>
<circle cx="1894" cy="978" r="6" class="c0"/>
<circle cx="1574" cy="818" r="6" class="c0"/>
<circle cx="1702" cy="800" r="6" class="c0"/>
<circle cx="1550" cy="754" r="6" class="c0"/>
<circle cx="1690" cy="950" r="6" class="c0"/>
<circle cx="1574" cy="876" r="6" class="c0"/>
<circle cx="1762" cy="906" r="6" class="c0"/>
<circle cx="1456" cy="808" r="6" class="c0"/>
<circle cx="1830" cy="940" r="6" class="c0"/>
<circle cx="1838" cy="988" r="6" class="c0"/>
<circle cx="1574" cy="754" r="6" class="c0"/>
<circle cx="1746" cy="874" r="6" class="c0"/>
<circle cx="1698" cy="880" r="6" class="c0"/>
<circle cx="1622" cy="890" r="6" class="c0"/>
<circle cx="1540" cy="716" r="6" class="c0"/>
<circle cx="1542" cy="762" r="6" class="c0"/>
<circle cx="1582" cy="864" r="6" class="c0"/>
<circle cx="1442" cy="766" r="6" class="c0"/>
<circle cx="1872" cy="942" r="6" class="c0"/>
<circle cx="1536" cy="932" r="6" class="c0"/>
<circle cx="1786" cy="888" r="6" class="c0"/>
<circle cx="1522" cy="922" r="6" class="c0"/>
<circle cx="1614" cy="882" r="6" class="c0"/>
<circle cx="1406" cy="798" r="6" class="c0"/>
<circle cx="1812" cy="868" r="6" class="c0"/>
<circle cx="1450" cy="758" r="6" class="c0"/>
<circle cx="1394" cy="762" r="6" class="c0"/>
<circle cx="1782" cy="906" r="6" class="c0"/>
<circle cx="1862" cy="1086" r="6" class="c0"/>
</svg>
