<?xml version="1.0" encoding="utf-8"?>
<svg xmlns="http://www.w3.org/2000/svg"
     xmlns:xlink="http://www.w3.org/1999/xlink" width="1920" height="1440" >

            <defs>
            <style type="text/css"><![CDATA[
circle {stroke: none;}
.c0 {fill: #FFFFFF;}
]]></style>
            </defs>
<rect x="0" y="0" width="1920" height="1440" fill="black"/>
<circle cx="1898" cy="1142" r="14" class="c0"/>
<circle cx="1738" cy="916" r="12" class="c0"/>
<circle cx="1544" cy="934" r="12" class="c0"/>
<circle cx="1766" cy="1028" r="12" class="c0"/>
<circle cx="1608" cy="1006" r="12" class="c0"/>
<circle cx="1708" cy="1112" r="12" class="c0"/>
<circle cx="1680" cy="892" r="12" class="c0"/>
<circle cx="1426" cy="740" r="12" class="c0"/>
<circle cx="1440" cy="834" r="12" class="c0"/>
<circle cx="1886" cy="998" r="12" class="c0"/>
<circle cx="1618" cy="982" r="12" class="c0"/>
<circle cx="1732" cy="998" r="12" class="c0"/>
<circle cx="1658" cy="994" r="12" class="c0"/>
<circle cx="1822" cy="1116" r="12" class="c0"/>
<circle cx="1560" cy="796" r="12" class="c0"/>
<circle cx="1870" cy="972" r="12" class="c0"/>
<circle cx="1804" cy="996" r="12" class="c0"/>
<circle cx="1328" cy="732" r="12" class="c0"/>
<circle cx="1586" cy="862" r="12" class="c0"/>
<circle cx="1624" cy="882" r="12" class="c0"/>
<circle cx="1790" cy="1062" r="12" class="c0"/>
<circle cx="1882" cy="1166" r="12" class="c0"/>
<circle cx="1502" cy="770" r="12" class="c0"/>
<circle cx="1518" cy="724" r="12" class="c0"/>
<circle cx="1852" cy="1148" r="10" class="c0"/>
<circle cx="1758" cy="1112" r="10" class="c0"/>
<circle cx="1834" cy="950" r="10" class="c0"/>
<circle cx="1472" cy="950" r="10" class="c0"/>
<circle cx="1412" cy="902" r="10" class="c0"/>
<circle cx="1644" cy="1056" r="10" class="c0"/>
<circle cx="1780" cy="970" r="10" class="c0"/>
<circle cx="1776" cy="918" r="10" class="c0"/>
<circle cx="1478" cy="806" r="10" class="c0"/>
<circle cx="1646" cy="1034" r="10" class="c0"/>
<circle cx="1562" cy="996" r="10" class="c0"/>
<circle cx="1834" cy="1060" r="10" class="c0"/>
<circle cx="1646" cy="830" r="10" class="c0"/>
<circle cx="1708" cy="928" r="10" class="c0"/>
<circle cx="1572" cy="956" r="10" class="c0"/>
<circle cx="1662" cy="868" r="10" class="c0"/>
<circle cx="1414" cy="792" r="10" class="c0"/>
<circle cx="1502" cy="906" r="10" class="c0"/>
<circle cx="1850" cy="992" r="10" class="c0"/>
<circle cx="1406" cy="828" r="10" class="c0"/>
<circle cx="1602" cy="1030" r="10" class="c0"/>
<circle cx="1540" cy="854" r="10" class="c0"/>
<circle cx="1478" cy="718" r="10" class="c0"/>
<circle cx="1540" cy="814" r="10" class="c0"/>
<circle cx="1596" cy="806" r="10" class="c0"/>
<circle cx="1464" cy="904" r="10" class="c0"/>
<circle cx="1860" cy="1174" r="10" class="c0"/>
<circle cx="1722" cy="1068" r="10" class="c0"/>
<circle cx="1512" cy="886" r="10" class="c0"/>
<circle cx="1370" cy="822" r="10" class="c0"/>
<circle cx="1740" cy="952" r="10" class="c0"/>
<circle cx="1560" cy="872" r="10" class="c0"/>
<circle cx="1676" cy="1044" r="10" class="c0"/>
<circle cx="1642" cy="960" r="10" class="c0"/>
<circle cx="1852" cy="1020" r="10" class="c0"/>
<circle cx="1712" cy="1034" r="10" class="c0"/>
<circle cx="1838" cy="1036" r="10" class="c0"/>
<circle cx="1684" cy="846" r="10" class="c0"/>
<circle cx="1440" cy="890" r="10" class="c0"/>
<circle cx="1466" cy="844" r="10" class="c0"/>
<circle cx="1350" cy="718" r="10" class="c0"/>
<circle cx="1756" cy="1088" r="10" class="c0"/>
<circle cx="1370" cy="728" r="10" class="c0"/>
<circle cx="1698" cy="866" r="10" class="c0"/>
<circle cx="1602" cy="936" r="10" class="c0"/>
<circle cx="1660" cy="928" r="10" class="c0"/>
<circle cx="1574" cy="752" r="10" class="c0"/>
<circle cx="1894" cy="1116" r="10" class="c0"/>
<circle cx="1810" cy="1148" r="10" class="c0"/>
<circle cx="1770" cy="1072" r="10" class="c0"/>
<circle cx="1902" cy="1022" r="10" class="c0"/>
<circle cx="1794" cy="946" r="10" class="c0"/>
<circle cx="1546" cy="732" r="10" class="c0"/>
<circle cx="1858" cy="1044" r="10" class="c0"/>
<circle cx="1588" cy="890" r="10" class="c0"/>
<circle cx="1862" cy="1070" r="10" class="c0"/>
<circle cx="1532" cy="764" r="10" class="c0"/>
<circle cx="1520" cy="968" r="10" class="c0"/>
<circle cx="1646" cy="892" r="10" class="c0"/>
<circle cx="1714" cy="970" r="10" class="c0"/>
<circle cx="1710" cy="896" r="10" class="c0"/>
<circle cx="1732" cy="892" r="10" class="c0"/>
<circle cx="1780" cy="1120" r="10" class="c0"/>
<circle cx="1496" cy="822" r="10" class="c0"/>
<circle cx="1516" cy="860" r="10" class="c0"/>
<circle cx="1456" cy="780" r="10" class="c0"/>
<circle cx="1526" cy="792" r="10" class="c0"/>
<circle cx="1734" cy="1026" r="10" class="c0"/>
<circle cx="1540" cy="900" r="10" class="c0"/>
<circle cx="1888" cy="1212" r="10" class="c0"/>
<circle cx="1430" cy="708" r="10" class="c0"/>
<circle cx="1822" cy="1162" r="10" class="c0"/>
<circle cx="1888" cy="1054" r="10" class="c0"/>
<circle cx="1444" cy="862" r="10" class="c0"/>
<circle cx="1546" cy="964" r="10" class="c0"/>
<circle cx="1810" cy="958" r="10" class="c0"/>
<circle cx="1712" cy="1008" r="10" class="c0"/>
<circle cx="1790" cy="1142" r="8" class="c0"/>
<circle cx="1906" cy="1182" r="8" class="c0"/>
<circle cx="1354" cy="744" r="8" class="c0"/>
<circle cx="1796" cy="1164" r="8" class="c0"/>
<circle cx="1562" cy="852" r="8" class="c0"/>
<circle cx="1882" cy="1086" r="8" class="c0"/>
<circle cx="1628" cy="940" r="8" class="c0"/>
<circle cx="1732" cy="1096" r="8" class="c0"/>
<circle cx="1482" cy="760" r="8" class="c0"/>
<circle cx="1492" cy="936" r="8" class="c0"/>
<circle cx="1414" cy="722" r="8" class="c0"/>
<circle cx="1434" cy="910" r="8" class="c0"/>
<circle cx="1456" cy="758" r="8" class="c0"/>
<circle cx="1694" cy="958" r="8" class="c0"/>
<circle cx="1470" cy="736" r="8" class="c0"/>
<circle cx="1696" cy="1050" r="8" class="c0"/>
<circle cx="1750" cy="974" r="8" class="c0"/>
<circle cx="1872" cy="1194" r="8" class="c0"/>
<circle cx="1908" cy="1084" r="8" class="c0"/>
<circle cx="1454" cy="940" r="8" class="c0"/>
<circle cx="1360" cy="764" r="8" class="c0"/>
<circle cx="1608" cy="788" r="8" class="c0"/>
<circle cx="1540" cy="1000" r="8" class="c0"/>
<circle cx="1516" cy="936" r="8" class="c0"/>
<circle cx="1364" cy="862" r="8" class="c0"/>
<circle cx="1896" cy="1192" r="8" class="c0"/>
<circle cx="1394" cy="744" r="8" class="c0"/>
<circle cx="1752" cy="1010" r="8" class="c0"/>
<circle cx="1848" cy="964" r="8" class="c0"/>
<circle cx="1582" cy="794" r="8" class="c0"/>
<circle cx="1910" cy="1224" r="8" class="c0"/>
<circle cx="1582" cy="928" r="8" class="c0"/>
<circle cx="1762" cy="932" r="8" class="c0"/>
<circle cx="1578" cy="776" r="8" class="c0"/>
<circle cx="1670" cy="826" r="8" class="c0"/>
<circle cx="1506" cy="980" r="8" class="c0"/>
<circle cx="1562" cy="898" r="8" class="c0"/>
<circle cx="1678" cy="1004" r="8" class="c0"/>
<circle cx="1774" cy="1004" r="8" class="c0"/>
<circle cx="1574" cy="1014" r="8" class="c0"/>
<circle cx="1700" cy="1078" r="8" class="c0"/>
<circle cx="1422" cy="874" r="8" class="c0"/>
<circle cx="1630" cy="920" r="8" class="c0"/>
<circle cx="1762" cy="1148" r="8" class="c0"/>
<circle cx="1512" cy="810" r="8" class="c0"/>
<circle cx="1868" cy="1116" r="8" class="c0"/>
<circle cx="1526" cy="744" r="8" class="c0"/>
<circle cx="1424" cy="814" r="8" class="c0"/>
<circle cx="1742" cy="1046" r="8" class="c0"/>
<circle cx="1390" cy="784" r="8" class="c0"/>
<circle cx="1712" cy="848" r="8" class="c0"/>
<circle cx="1406" cy="764" r="8" class="c0"/>
<circle cx="1598" cy="838" r="8" class="c0"/>
<circle cx="1846" cy="1108" r="8" class="c0"/>
<circle cx="1740" cy="1122" r="8" class="c0"/>
<circle cx="1390" cy="858" r="8" class="c0"/>
<circle cx="1692" cy="988" r="8" class="c0"/>
<circle cx="1490" cy="886" r="8" class="c0"/>
<circle cx="1824" cy="970" r="8" class="c0"/>
<circle cx="1562" cy="830" r="8" class="c0"/>
<circle cx="1396" cy="708" r="8" class="c0"/>
<circle cx="1872" cy="1030" r="8" class="c0"/>
<circle cx="1758" cy="904" r="8" class="c0"/>
<circle cx="1692" cy="1014" r="8" class="c0"/>
<circle cx="1494" cy="744" r="8" class="c0"/>
<circle cx="1764" cy="984" r="8" class="c0"/>
<circle cx="1612" cy="908" r="8" class="c0"/>
<circle cx="1382" cy="808" r="8" class="c0"/>
<circle cx="1446" cy="730" r="8" class="c0"/>
<circle cx="1840" cy="1178" r="8" class="c0"/>
<circle cx="1642" cy="1012" r="8" class="c0"/>
<circle cx="1792" cy="1038" r="8" class="c0"/>
<circle cx="1844" cy="1090" r="8" class="c0"/>
<circle cx="1726" cy="1132" r="8" class="c0"/>
<circle cx="1556" cy="1018" r="8" class="c0"/>
<circle cx="1496" cy="868" r="8" class="c0"/>
<circle cx="1446" cy="810" r="8" class="c0"/>
<circle cx="1862" cy="1092" r="8" class="c0"/>
<circle cx="1462" cy="876" r="8" class="c0"/>
<circle cx="1618" cy="956" r="8" class="c0"/>
<circle cx="1598" cy="970" r="8" class="c0"/>
<circle cx="1548" cy="754" r="8" class="c0"/>
<circle cx="1608" cy="868" r="8" class="c0"/>
<circle cx="1380" cy="768" r="8" class="c0"/>
<circle cx="1374" cy="792" r="8" class="c0"/>
<circle cx="1724" cy="870" r="8" class="c0"/>
<circle cx="1832" cy="1012" r="8" class="c0"/>
<circle cx="1808" cy="1018" r="8" class="c0"/>
<circle cx="1782" cy="1088" r="8" class="c0"/>
<circle cx="1584" cy="822" r="8" class="c0"/>
<circle cx="1532" cy="882" r="8" class="c0"/>
<circle cx="1622" cy="1022" r="8" class="c0"/>
<circle cx="1784" cy="1016" r="8" class="c0"/>
<circle cx="1438" cy="760" r="8" class="c0"/>
<circle cx="1582" cy="980" r="8" class="c0"/>
<circle cx="1486" cy="858" r="8" class="c0"/>
<circle cx="1390" cy="882" r="8" class="c0"/>
<circle cx="1878" cy="1130" r="8" class="c0"/>
<circle cx="1486" cy="918" r="8" class="c0"/>
<circle cx="1812" cy="1040" r="8" class="c0"/>
<circle cx="1636" cy="792" r="8" class="c0"/>
<circle cx="1492" cy="960" r="8" class="c0"/>
<circle cx="1834" cy="1138" r="8" class="c0"/>
<circle cx="1402" cy="804" r="8" class="c0"/>
<circle cx="1684" cy="1100" r="8" class="c0"/>
<circle cx="1688" cy="922" r="8" class="c0"/>
<circle cx="1726" cy="938" r="8" class="c0"/>
<circle cx="1428" cy="776" r="8" class="c0"/>
<circle cx="1794" cy="1106" r="8" class="c0"/>
<circle cx="1614" cy="1044" r="8" class="c0"/>
<circle cx="1670" cy="956" r="8" class="c0"/>
<circle cx="1628" cy="854" r="8" class="c0"/>
<circle cx="1806" cy="1090" r="8" class="c0"/>
<circle cx="1322" cy="760" r="8" class="c0"/>
<circle cx="1800" cy="1126" r="8" class="c0"/>
<circle cx="1616" cy="818" r="8" class="c0"/>
<circle cx="1418" cy="850" r="8" class="c0"/>
<circle cx="1338" cy="798" r="8" class="c0"/>
<circle cx="1348" cy="780" r="8" class="c0"/>
<circle cx="1674" cy="1086" r="8" class="c0"/>
<circle cx="1684" cy="946" r="8" class="c0"/>
<circle cx="1378" cy="842" r="8" class="c0"/>
<circle cx="1672" cy="912" r="8" class="c0"/>
<circle cx="1342" cy="758" r="8" class="c0"/>
<circle cx="1664" cy="1016" r="8" class="c0"/>
<circle cx="1626" cy="782" r="8" class="c0"/>
<circle cx="1574" cy="812" r="8" class="c0"/>
<circle cx="1564" cy="916" r="8" class="c0"/>
<circle cx="1768" cy="950" r="8" class="c0"/>
<circle cx="1846" cy="1128" r="8" class="c0"/>
<circle cx="1478" cy="782" r="8" class="c0"/>
<circle cx="1634" cy="1074" r="8" class="c0"/>
<circle cx="1762" cy="1054" r="8" class="c0"/>
<circle cx="1834" cy="982" r="8" class="c0"/>
<circle cx="1740" cy="1144" r="8" class="c0"/>
<circle cx="1520" cy="834" r="8" class="c0"/>
<circle cx="1746" cy="1070" r="8" class="c0"/>
<circle cx="1354" cy="812" r="8" class="c0"/>
<circle cx="1444" cy="926" r="8" class="c0"/>
<circle cx="1660" cy="842" r="8" class="c0"/>
<circle cx="1574" cy="1036" r="8" class="c0"/>
<circle cx="1498" cy="796" r="8" class="c0"/>
<circle cx="1858" cy="1214" r="8" class="c0"/>
<circle cx="1634" cy="812" r="8" class="c0"/>
<circle cx="1800" cy="974" r="8" class="c0"/>
<circle cx="1372" cy="706" r="8" class="c0"/>
<circle cx="1536" cy="982" r="8" class="c0"/>
<circle cx="1438" cy="794" r="8" class="c0"/>
<circle cx="1470" cy="824" r="8" class="c0"/>
<circle cx="1688" cy="1066" r="8" class="c0"/>
<circle cx="1842" cy="1196" r="8" class="c0"/>
<circle cx="1826" cy="1082" r="8" class="c0"/>
<circle cx="1676" cy="976" r="8" class="c0"/>
<circle cx="1330" cy="710" r="8" class="c0"/>
<circle cx="1524" cy="914" r="8" class="c0"/>
<circle cx="1908" cy="1046" r="8" class="c0"/>
<circle cx="1640" cy="930" r="8" class="c0"/>
<circle cx="1632" cy="996" r="8" class="c0"/>
<circle cx="1596" cy="778" r="8" class="c0"/>
<circle cx="1776" cy="896" r="8" class="c0"/>
<circle cx="1562" cy="766" r="8" class="c0"/>
<circle cx="1458" cy="712" r="8" class="c0"/>
<circle cx="1426" cy="936" r="8" class="c0"/>
<circle cx="1910" cy="1102" r="8" class="c0"/>
<circle cx="1610" cy="848" r="8" class="c0"/>
<circle cx="1658" cy="810" r="8" class="c0"/>
<circle cx="1398" cy="918" r="8" class="c0"/>
<circle cx="1594" cy="990" r="8" class="c0"/>
<circle cx="1656" cy="1068" r="8" class="c0"/>
<circle cx="1506" cy="926" r="8" class="c0"/>
<circle cx="1908" cy="1202" r="8" class="c0"/>
<circle cx="1408" cy="864" r="8" class="c0"/>
<circle cx="1494" cy="842" r="8" class="c0"/>
<circle cx="1326" cy="782" r="8" class="c0"/>
<circle cx="1900" cy="1240" r="8" class="c0"/>
<circle cx="1524" cy="992" r="8" class="c0"/>
<circle cx="1712" cy="950" r="8" class="c0"/>
<circle cx="1870" cy="1010" r="8" class="c0"/>
<circle cx="1478" cy="972" r="8" class="c0"/>
<circle cx="1896" cy="1074" r="8" class="c0"/>
<circle cx="1408" cy="882" r="6" class="c0"/>
<circle cx="1770" cy="1134" r="6" class="c0"/>
<circle cx="1660" cy="968" r="6" class="c0"/>
<circle cx="1628" cy="902" r="6" class="c0"/>
<circle cx="1692" cy="1034" r="6" class="c0"/>
<circle cx="1454" cy="960" r="6" class="c0"/>
<circle cx="1786" cy="988" r="6" class="c0"/>
<circle cx="1596" cy="910" r="6" class="c0"/>
<circle cx="1502" cy="714" r="6" class="c0"/>
<circle cx="1810" cy="938" r="6" class="c0"/>
<circle cx="1468" cy="792" r="6" class="c0"/>
<circle cx="1622" cy="1060" r="6" class="c0"/>
<circle cx="1872" cy="1146" r="6" class="c0"/>
<circle cx="1546" cy="836" r="6" class="c0"/>
<circle cx="1540" cy="780" r="6" class="c0"/>
<circle cx="1772" cy="1100" r="6" class="c0"/>
<circle cx="1700" cy="910" r="6" class="c0"/>
<circle cx="1476" cy="928" r="6" class="c0"/>
<circle cx="1758" cy="886" r="6" class="c0"/>
<circle cx="1878" cy="1102" r="6" class="c0"/>
<circle cx="1594" cy="760" r="6" class="c0"/>
<circle cx="1398" cy="724" r="6" class="c0"/>
<circle cx="1400" cy="848" r="6" class="c0"/>
<circle cx="1648" cy="914" r="6" class="c0"/>
<circle cx="1814" cy="1072" r="6" class="c0"/>
<circle cx="1512" cy="952" r="6" class="c0"/>
<circle cx="1646" cy="856" r="6" class="c0"/>
<circle cx="1510" cy="748" r="6" class="c0"/>
<circle cx="1802" cy="920" r="6" class="c0"/>
<circle cx="1576" cy="838" r="6" class="c0"/>
<circle cx="1726" cy="1050" r="6" class="c0"/>
<circle cx="1460" cy="922" r="6" class="c0"/>
<circle cx="1890" cy="1036" r="6" class="c0"/>
<circle cx="1558" cy="976" r="6" class="c0"/>
<circle cx="1632" cy="1044" r="6" class="c0"/>
<circle cx="1716" cy="1092" r="6" class="c0"/>
<circle cx="1628" cy="832" r="6" class="c0"/>
<circle cx="1590" cy="948" r="6" class="c0"/>
<circle cx="1712" cy="1054" r="6" class="c0"/>
<circle cx="1612" cy="772" r="6" class="c0"/>
<circle cx="1642" cy="872" r="6" class="c0"/>
<circle cx="1532" cy="952" r="6" class="c0"/>
<circle cx="1358" cy="790" r="6" class="c0"/>
<circle cx="1370" cy="754" r="6" class="c0"/>
<circle cx="1824" cy="998" r="6" class="c0"/>
<circle cx="1904" cy="1164" r="6" class="c0"/>
<circle cx="1608" cy="892" r="6" class="c0"/>
<circle cx="1732" cy="968" r="6" class="c0"/>
<circle cx="1380" cy="868" r="6" class="c0"/>
<circle cx="1388" cy="830" r="6" class="c0"/>
<circle cx="1418" cy="922" r="6" class="c0"/>
<circle cx="1882" cy="1020" r="6" class="c0"/>
<circle cx="1584" cy="1024" r="6" class="c0"/>
<circle cx="1812" cy="1058" r="6" class="c0"/>
<circle cx="1358" cy="838" r="6" class="c0"/>
<circle cx="1438" cy="946" r="6" class="c0"/>
<circle cx="1816" cy="1182" r="6" class="c0"/>
<circle cx="1910" cy="1062" r="6" class="c0"/>
<circle cx="1842" cy="1162" r="6" class="c0"/>
<circle cx="1580" cy="912" r="6" class="c0"/>
<circle cx="1564" cy="738" r="6" class="c0"/>
<circle cx="1566" cy="932" r="6" class="c0"/>
<circle cx="1910" cy="1124" r="6" class="c0"/>
<circle cx="1474" cy="888" r="6" class="c0"/>
<circle cx="1744" cy="870" r="6" class="c0"/>
<circle cx="1910" cy="1002" r="6" class="c0"/>
<circle cx="1658" cy="904" r="6" class="c0"/>
<circle cx="1460" cy="800" r="6" class="c0"/>
<circle cx="1650" cy="976" r="6" class="c0"/>
<circle cx="1560" cy="944" r="6" class="c0"/>
<circle cx="1752" cy="1132" r="6" class="c0"/>
<circle cx="1364" cy="802" r="6" class="c0"/>
<circle cx="1846" cy="1224" r="6" class="c0"/>
<circle cx="1390" cy="902" r="6" class="c0"/>
<circle cx="1822" cy="1028" r="6" class="c0"/>
<circle cx="1688" cy="828" r="6" class="c0"/>
<circle cx="1862" cy="1132" r="6" class="c0"/>
<circle cx="1312" cy="714" r="6" class="c0"/>
<circle cx="1714" cy="990" r="6" class="c0"/>
<circle cx="1584" cy="1000" r="6" class="c0"/>
<circle cx="1856" cy="950" r="6" class="c0"/>
<circle cx="1672" cy="1070" r="6" class="c0"/>
<circle cx="1718" cy="912" r="6" class="c0"/>
<circle cx="1620" cy="802" r="6" class="c0"/>
<circle cx="1776" cy="1160" r="6" class="c0"/>
<circle cx="1382" cy="716" r="6" class="c0"/>
<circle cx="1776" cy="1046" r="6" class="c0"/>
<circle cx="1664" cy="1098" r="6" class="c0"/>
<circle cx="1792" cy="928" r="6" class="c0"/>
<circle cx="1478" cy="874" r="6" class="c0"/>
<circle cx="1824" cy="936" r="6" class="c0"/>
<circle cx="1868" cy="1224" r="6" class="c0"/>
<circle cx="1412" cy="704" r="6" class="c0"/>
<circle cx="1680" cy="864" r="6" class="c0"/>
<circle cx="1790" cy="906" r="6" class="c0"/>
<circle cx="1808" cy="1174" r="6" class="c0"/>
<circle cx="1824" cy="1210" r="6" class="c0"/>
<circle cx="1682" cy="1026" r="6" class="c0"/>
<circle cx="1652" cy="944" r="6" class="c0"/>
<circle cx="1700" cy="838" r="6" class="c0"/>
<circle cx="1734" cy="1080" r="6" class="c0"/>
<circle cx="1496" cy="728" r="6" class="c0"/>
<circle cx="1736" cy="858" r="6" class="c0"/>
<circle cx="1758" cy="960" r="6" class="c0"/>
<circle cx="1666" cy="1058" r="6" class="c0"/>
<circle cx="1350" cy="828" r="6" class="c0"/>
<circle cx="1378" cy="746" r="6" class="c0"/>
<circle cx="1658" cy="1046" r="6" class="c0"/>
<circle cx="1746" cy="934" r="6" class="c0"/>
<circle cx="1482" cy="900" r="6" class="c0"/>
<circle cx="1730" cy="1112" r="6" class="c0"/>
<circle cx="1894" cy="1096" r="6" class="c0"/>
<circle cx="1832" cy="1100" r="6" class="c0"/>
<circle cx="1642" cy="984" r="6" class="c0"/>
<circle cx="1550" cy="886" r="6" class="c0"/>
<circle cx="1592" cy="1044" r="6" class="c0"/>
<circle cx="1778" cy="938" r="6" class="c0"/>
<circle cx="1912" cy="1156" r="6" class="c0"/>
<circle cx="1682" cy="1120" r="6" class="c0"/>
<circle cx="1470" cy="862" r="6" class="c0"/>
<circle cx="1754" cy="994" r="6" class="c0"/>
<circle cx="1480" cy="834" r="6" class="c0"/>
<circle cx="1592" cy="1016" r="6" class="c0"/>
<circle cx="1614" cy="924" r="6" class="c0"/>
<circle cx="1492" cy="988" r="6" class="c0"/>
</svg>
