<?xml version="1.0" encoding="utf-8"?>
<svg xmlns="http://www.w3.org/2000/svg"
     xmlns:xlink="http://www.w3.org/1999/xlink" width="1920" height="1440" >

            <defs>
            <style type="text/css"><![CDATA[
circle {stroke: none;}
.c0 {fill: #FFFFFF;}
]]></style>
            </defs>
<rect x="0" y="0" width="1920" height="1440" fill="black"/>
<circle cx="1872" cy="1338" r="14" class="c0"/>
<circle cx="1310" cy="724" r="14" class="c0"/>
<circle cx="1266" cy="896" r="12" class="c0"/>
<circle cx="1648" cy="1096" r="12" class="c0"/>
<circle cx="1552" cy="1142" r="12" class="c0"/>
<circle cx="1464" cy="724" r="12" class="c0"/>
<circle cx="1778" cy="1116" r="12" class="c0"/>
<circle cx="1862" cy="1176" r="12" class="c0"/>
<circle cx="1410" cy="956" r="12" class="c0"/>
<circle cx="1334" cy="934" r="12" class="c0"/>
<circle cx="1744" cy="994" r="12" class="c0"/>
<circle cx="1240" cy="746" r="12" class="c0"/>
<circle cx="1524" cy="830" r="12" class="c0"/>
<circle cx="1828" cy="1202" r="12" class="c0"/>
<circle cx="1566" cy="1038" r="12" class="c0"/>
<circle cx="1820" cy="1396" r="12" class="c0"/>
<circle cx="1692" cy="1078" r="12" class="c0"/>
<circle cx="1824" cy="1238" r="12" class="c0"/>
<circle cx="1590" cy="1132" r="12" class="c0"/>
<circle cx="1466" cy="1076" r="12" class="c0"/>
<circle cx="1234" cy="714" r="12" class="c0"/>
<circle cx="1480" cy="956" r="12" class="c0"/>
<circle cx="1466" cy="816" r="12" class="c0"/>
<circle cx="1506" cy="918" r="12" class="c0"/>
<circle cx="1618" cy="946" r="12" class="c0"/>
<circle cx="1718" cy="1190" r="12" class="c0"/>
<circle cx="1404" cy="828" r="12" class="c0"/>
<circle cx="1738" cy="1220" r="12" class="c0"/>
<circle cx="1436" cy="746" r="12" class="c0"/>
<circle cx="1508" cy="892" r="12" class="c0"/>
<circle cx="1314" cy="828" r="12" class="c0"/>
<circle cx="1328" cy="802" r="12" class="c0"/>
<circle cx="1748" cy="1354" r="12" class="c0"/>
<circle cx="1314" cy="874" r="12" class="c0"/>
<circle cx="1570" cy="1182" r="12" class="c0"/>
<circle cx="1410" cy="778" r="12" class="c0"/>
<circle cx="1586" cy="964" r="12" class="c0"/>
<circle cx="1648" cy="1028" r="12" class="c0"/>
<circle cx="1348" cy="864" r="12" class="c0"/>
<circle cx="1660" cy="936" r="12" class="c0"/>
<circle cx="1462" cy="782" r="12" class="c0"/>
<circle cx="1362" cy="826" r="12" class="c0"/>
<circle cx="1860" cy="1260" r="12" class="c0"/>
<circle cx="1336" cy="986" r="12" class="c0"/>
<circle cx="1254" cy="840" r="12" class="c0"/>
<circle cx="1676" cy="1012" r="12" class="c0"/>
<circle cx="1854" cy="1132" r="12" class="c0"/>
<circle cx="1662" cy="1216" r="12" class="c0"/>
<circle cx="1294" cy="804" r="12" class="c0"/>
<circle cx="1556" cy="1204" r="12" class="c0"/>
<circle cx="1906" cy="1284" r="12" class="c0"/>
<circle cx="1646" cy="922" r="12" class="c0"/>
<circle cx="1712" cy="1256" r="12" class="c0"/>
<circle cx="1640" cy="996" r="12" class="c0"/>
<circle cx="1326" cy="904" r="10" class="c0"/>
<circle cx="1866" cy="1392" r="10" class="c0"/>
<circle cx="1276" cy="816" r="10" class="c0"/>
<circle cx="1762" cy="1134" r="10" class="c0"/>
<circle cx="1314" cy="770" r="10" class="c0"/>
<circle cx="1416" cy="930" r="10" class="c0"/>
<circle cx="1624" cy="1116" r="10" class="c0"/>
<circle cx="1802" cy="1180" r="10" class="c0"/>
<circle cx="1396" cy="878" r="10" class="c0"/>
<circle cx="1684" cy="1234" r="10" class="c0"/>
<circle cx="1450" cy="960" r="10" class="c0"/>
<circle cx="1528" cy="1078" r="10" class="c0"/>
<circle cx="1904" cy="1404" r="10" class="c0"/>
<circle cx="1502" cy="1064" r="10" class="c0"/>
<circle cx="1458" cy="902" r="10" class="c0"/>
<circle cx="1700" cy="1214" r="10" class="c0"/>
<circle cx="1584" cy="888" r="10" class="c0"/>
<circle cx="1610" cy="1088" r="10" class="c0"/>
<circle cx="1658" cy="1290" r="10" class="c0"/>
<circle cx="1618" cy="896" r="10" class="c0"/>
<circle cx="1784" cy="1072" r="10" class="c0"/>
<circle cx="1442" cy="844" r="10" class="c0"/>
<circle cx="1516" cy="798" r="10" class="c0"/>
<circle cx="1372" cy="806" r="10" class="c0"/>
<circle cx="1480" cy="880" r="10" class="c0"/>
<circle cx="1274" cy="654" r="10" class="c0"/>
<circle cx="1350" cy="750" r="10" class="c0"/>
<circle cx="1532" cy="894" r="10" class="c0"/>
<circle cx="1288" cy="762" r="10" class="c0"/>
<circle cx="1282" cy="860" r="10" class="c0"/>
<circle cx="1800" cy="1264" r="10" class="c0"/>
<circle cx="1846" cy="1328" r="10" class="c0"/>
<circle cx="1724" cy="1098" r="10" class="c0"/>
<circle cx="1302" cy="920" r="10" class="c0"/>
<circle cx="1620" cy="1256" r="10" class="c0"/>
<circle cx="1798" cy="1336" r="10" class="c0"/>
<circle cx="1416" cy="1070" r="10" class="c0"/>
<circle cx="1722" cy="1040" r="10" class="c0"/>
<circle cx="1668" cy="1266" r="10" class="c0"/>
<circle cx="1568" cy="1064" r="10" class="c0"/>
<circle cx="1778" cy="1234" r="10" class="c0"/>
<circle cx="1654" cy="962" r="10" class="c0"/>
<circle cx="1396" cy="1022" r="10" class="c0"/>
<circle cx="1254" cy="794" r="10" class="c0"/>
<circle cx="1494" cy="752" r="10" class="c0"/>
<circle cx="1354" cy="708" r="10" class="c0"/>
<circle cx="1452" cy="982" r="10" class="c0"/>
<circle cx="1748" cy="1168" r="10" class="c0"/>
<circle cx="1228" cy="780" r="10" class="c0"/>
<circle cx="1602" cy="1022" r="10" class="c0"/>
<circle cx="1466" cy="1050" r="10" class="c0"/>
<circle cx="1892" cy="1208" r="10" class="c0"/>
<circle cx="1354" cy="902" r="10" class="c0"/>
<circle cx="1538" cy="760" r="10" class="c0"/>
<circle cx="1590" cy="820" r="10" class="c0"/>
<circle cx="1702" cy="1308" r="10" class="c0"/>
<circle cx="1350" cy="956" r="10" class="c0"/>
<circle cx="1574" cy="856" r="10" class="c0"/>
<circle cx="1258" cy="730" r="10" class="c0"/>
<circle cx="1514" cy="958" r="10" class="c0"/>
<circle cx="1502" cy="1136" r="10" class="c0"/>
<circle cx="1570" cy="1098" r="10" class="c0"/>
<circle cx="1448" cy="798" r="10" class="c0"/>
<circle cx="1706" cy="984" r="10" class="c0"/>
<circle cx="1714" cy="1330" r="10" class="c0"/>
<circle cx="1254" cy="676" r="10" class="c0"/>
<circle cx="1774" cy="1338" r="10" class="c0"/>
<circle cx="1692" cy="1164" r="10" class="c0"/>
<circle cx="1758" cy="1206" r="10" class="c0"/>
<circle cx="1696" cy="1110" r="10" class="c0"/>
<circle cx="1824" cy="1170" r="10" class="c0"/>
<circle cx="1640" cy="1142" r="10" class="c0"/>
<circle cx="1456" cy="698" r="10" class="c0"/>
<circle cx="1868" cy="1200" r="10" class="c0"/>
<circle cx="1900" cy="1258" r="10" class="c0"/>
<circle cx="1376" cy="676" r="10" class="c0"/>
<circle cx="1856" cy="1290" r="10" class="c0"/>
<circle cx="1644" cy="870" r="10" class="c0"/>
<circle cx="1884" cy="1424" r="10" class="c0"/>
<circle cx="1248" cy="772" r="10" class="c0"/>
<circle cx="1838" cy="1408" r="10" class="c0"/>
<circle cx="1902" cy="1336" r="10" class="c0"/>
<circle cx="1604" cy="1046" r="10" class="c0"/>
<circle cx="1790" cy="1294" r="10" class="c0"/>
<circle cx="1540" cy="1026" r="10" class="c0"/>
<circle cx="1466" cy="1020" r="10" class="c0"/>
<circle cx="1762" cy="1302" r="10" class="c0"/>
<circle cx="1568" cy="800" r="10" class="c0"/>
<circle cx="1502" cy="844" r="10" class="c0"/>
<circle cx="1622" cy="1206" r="10" class="c0"/>
<circle cx="1734" cy="1146" r="10" class="c0"/>
<circle cx="1684" cy="1198" r="10" class="c0"/>
<circle cx="1386" cy="784" r="10" class="c0"/>
<circle cx="1484" cy="1116" r="10" class="c0"/>
<circle cx="1778" cy="1394" r="10" class="c0"/>
<circle cx="1796" cy="1146" r="10" class="c0"/>
<circle cx="1520" cy="744" r="10" class="c0"/>
<circle cx="1546" cy="990" r="10" class="c0"/>
<circle cx="1456" cy="876" r="10" class="c0"/>
<circle cx="1824" cy="1134" r="10" class="c0"/>
<circle cx="1680" cy="1278" r="10" class="c0"/>
<circle cx="1498" cy="868" r="10" class="c0"/>
<circle cx="1354" cy="998" r="10" class="c0"/>
<circle cx="1716" cy="1156" r="10" class="c0"/>
<circle cx="1562" cy="976" r="10" class="c0"/>
<circle cx="1314" cy="948" r="10" class="c0"/>
<circle cx="1844" cy="1386" r="10" class="c0"/>
<circle cx="1392" cy="944" r="10" class="c0"/>
<circle cx="1720" cy="1070" r="10" class="c0"/>
<circle cx="1830" cy="1362" r="10" class="c0"/>
<circle cx="1800" cy="1312" r="10" class="c0"/>
<circle cx="1718" cy="1002" r="10" class="c0"/>
<circle cx="1796" cy="1098" r="10" class="c0"/>
<circle cx="1340" cy="680" r="10" class="c0"/>
<circle cx="1614" cy="1144" r="10" class="c0"/>
<circle cx="1770" cy="1046" r="10" class="c0"/>
<circle cx="1790" cy="1364" r="10" class="c0"/>
<circle cx="1422" cy="1040" r="10" class="c0"/>
<circle cx="1594" cy="928" r="10" class="c0"/>
<circle cx="1580" cy="1012" r="10" class="c0"/>
<circle cx="1382" cy="890" r="10" class="c0"/>
<circle cx="1606" cy="982" r="10" class="c0"/>
<circle cx="1596" cy="1190" r="10" class="c0"/>
<circle cx="1490" cy="802" r="10" class="c0"/>
<circle cx="1492" cy="728" r="10" class="c0"/>
<circle cx="1606" cy="914" r="10" class="c0"/>
<circle cx="1592" cy="1108" r="10" class="c0"/>
<circle cx="1582" cy="990" r="10" class="c0"/>
<circle cx="1452" cy="1096" r="10" class="c0"/>
<circle cx="1310" cy="694" r="10" class="c0"/>
<circle cx="1374" cy="742" r="10" class="c0"/>
<circle cx="1734" cy="1056" r="10" class="c0"/>
<circle cx="1706" cy="960" r="8" class="c0"/>
<circle cx="1424" cy="816" r="8" class="c0"/>
<circle cx="1798" cy="1230" r="8" class="c0"/>
<circle cx="1690" cy="1038" r="8" class="c0"/>
<circle cx="1708" cy="1122" r="8" class="c0"/>
<circle cx="1542" cy="804" r="8" class="c0"/>
<circle cx="1388" cy="706" r="8" class="c0"/>
<circle cx="1552" cy="922" r="8" class="c0"/>
<circle cx="1728" cy="1124" r="8" class="c0"/>
<circle cx="1216" cy="726" r="8" class="c0"/>
<circle cx="1904" cy="1378" r="8" class="c0"/>
<circle cx="1720" cy="1286" r="8" class="c0"/>
<circle cx="1422" cy="904" r="8" class="c0"/>
<circle cx="1372" cy="772" r="8" class="c0"/>
<circle cx="1240" cy="654" r="8" class="c0"/>
<circle cx="1344" cy="790" r="8" class="c0"/>
<circle cx="1432" cy="968" r="8" class="c0"/>
<circle cx="1352" cy="772" r="8" class="c0"/>
<circle cx="1492" cy="1026" r="8" class="c0"/>
<circle cx="1548" cy="944" r="8" class="c0"/>
<circle cx="1336" cy="726" r="8" class="c0"/>
<circle cx="1528" cy="1106" r="8" class="c0"/>
<circle cx="1320" cy="850" r="8" class="c0"/>
<circle cx="1404" cy="694" r="8" class="c0"/>
<circle cx="1674" cy="1064" r="8" class="c0"/>
<circle cx="1636" cy="1170" r="8" class="c0"/>
<circle cx="1300" cy="664" r="8" class="c0"/>
<circle cx="1650" cy="1258" r="8" class="c0"/>
<circle cx="1758" cy="1096" r="8" class="c0"/>
<circle cx="1860" cy="1234" r="8" class="c0"/>
<circle cx="1734" cy="1018" r="8" class="c0"/>
<circle cx="1322" cy="746" r="8" class="c0"/>
<circle cx="1544" cy="864" r="8" class="c0"/>
<circle cx="1390" cy="848" r="8" class="c0"/>
<circle cx="1818" cy="1106" r="8" class="c0"/>
<circle cx="1422" cy="868" r="8" class="c0"/>
<circle cx="1400" cy="988" r="8" class="c0"/>
<circle cx="1796" cy="1202" r="8" class="c0"/>
<circle cx="1616" cy="836" r="8" class="c0"/>
<circle cx="1652" cy="894" r="8" class="c0"/>
<circle cx="1730" cy="1242" r="8" class="c0"/>
<circle cx="1372" cy="862" r="8" class="c0"/>
<circle cx="1382" cy="984" r="8" class="c0"/>
<circle cx="1678" cy="1100" r="8" class="c0"/>
<circle cx="1782" cy="1176" r="8" class="c0"/>
<circle cx="1530" cy="1160" r="8" class="c0"/>
<circle cx="1416" cy="708" r="8" class="c0"/>
<circle cx="1676" cy="1146" r="8" class="c0"/>
<circle cx="1472" cy="988" r="8" class="c0"/>
<circle cx="1358" cy="932" r="8" class="c0"/>
<circle cx="1854" cy="1360" r="8" class="c0"/>
<circle cx="1758" cy="1262" r="8" class="c0"/>
<circle cx="1496" cy="972" r="8" class="c0"/>
<circle cx="1358" cy="978" r="8" class="c0"/>
<circle cx="1886" cy="1384" r="8" class="c0"/>
<circle cx="1440" cy="1078" r="8" class="c0"/>
<circle cx="1464" cy="936" r="8" class="c0"/>
<circle cx="1530" cy="920" r="8" class="c0"/>
<circle cx="1508" cy="996" r="8" class="c0"/>
<circle cx="1632" cy="1082" r="8" class="c0"/>
<circle cx="1606" cy="884" r="8" class="c0"/>
<circle cx="1528" cy="978" r="8" class="c0"/>
<circle cx="1550" cy="1010" r="8" class="c0"/>
<circle cx="1268" cy="764" r="8" class="c0"/>
<circle cx="1464" cy="1112" r="8" class="c0"/>
<circle cx="1776" cy="1270" r="8" class="c0"/>
<circle cx="1728" cy="1270" r="8" class="c0"/>
<circle cx="1278" cy="734" r="8" class="c0"/>
<circle cx="1884" cy="1164" r="8" class="c0"/>
<circle cx="1624" cy="1014" r="8" class="c0"/>
<circle cx="1280" cy="782" r="8" class="c0"/>
<circle cx="1576" cy="920" r="8" class="c0"/>
<circle cx="1558" cy="1166" r="8" class="c0"/>
<circle cx="1606" cy="1228" r="8" class="c0"/>
<circle cx="1400" cy="716" r="8" class="c0"/>
<circle cx="1446" cy="1058" r="8" class="c0"/>
<circle cx="1686" cy="940" r="8" class="c0"/>
<circle cx="1594" cy="1156" r="8" class="c0"/>
<circle cx="1562" cy="838" r="8" class="c0"/>
<circle cx="1816" cy="1298" r="8" class="c0"/>
<circle cx="1402" cy="802" r="8" class="c0"/>
<circle cx="1552" cy="814" r="8" class="c0"/>
<circle cx="1408" cy="742" r="8" class="c0"/>
<circle cx="1774" cy="1154" r="8" class="c0"/>
<circle cx="1498" cy="820" r="8" class="c0"/>
<circle cx="1288" cy="884" r="8" class="c0"/>
<circle cx="1704" cy="1140" r="8" class="c0"/>
<circle cx="1374" cy="966" r="8" class="c0"/>
<circle cx="1404" cy="910" r="8" class="c0"/>
<circle cx="1436" cy="1018" r="8" class="c0"/>
<circle cx="1304" cy="894" r="8" class="c0"/>
<circle cx="1600" cy="1002" r="8" class="c0"/>
<circle cx="1644" cy="1194" r="8" class="c0"/>
<circle cx="1602" cy="856" r="8" class="c0"/>
<circle cx="1874" cy="1368" r="8" class="c0"/>
<circle cx="1882" cy="1246" r="8" class="c0"/>
<circle cx="1436" cy="924" r="8" class="c0"/>
<circle cx="1498" cy="1104" r="8" class="c0"/>
<circle cx="1468" cy="856" r="8" class="c0"/>
<circle cx="1846" cy="1152" r="8" class="c0"/>
<circle cx="1426" cy="1002" r="8" class="c0"/>
<circle cx="1650" cy="1126" r="8" class="c0"/>
<circle cx="1522" cy="858" r="8" class="c0"/>
<circle cx="1376" cy="720" r="8" class="c0"/>
<circle cx="1884" cy="1186" r="8" class="c0"/>
<circle cx="1682" cy="960" r="8" class="c0"/>
<circle cx="1542" cy="1174" r="8" class="c0"/>
<circle cx="1780" cy="1194" r="8" class="c0"/>
<circle cx="1628" cy="1062" r="8" class="c0"/>
<circle cx="1660" cy="1052" r="8" class="c0"/>
<circle cx="1572" cy="942" r="8" class="c0"/>
<circle cx="1810" cy="1078" r="8" class="c0"/>
<circle cx="1684" cy="990" r="8" class="c0"/>
<circle cx="1640" cy="1248" r="8" class="c0"/>
<circle cx="1738" cy="1328" r="8" class="c0"/>
<circle cx="1424" cy="792" r="8" class="c0"/>
<circle cx="1884" cy="1292" r="8" class="c0"/>
<circle cx="1616" cy="1170" r="8" class="c0"/>
<circle cx="1426" cy="766" r="8" class="c0"/>
<circle cx="1532" cy="1008" r="8" class="c0"/>
<circle cx="1762" cy="1380" r="8" class="c0"/>
<circle cx="1800" cy="1124" r="8" class="c0"/>
<circle cx="1368" cy="694" r="8" class="c0"/>
<circle cx="1406" cy="1006" r="8" class="c0"/>
<circle cx="1218" cy="698" r="8" class="c0"/>
<circle cx="1390" cy="1054" r="8" class="c0"/>
<circle cx="1246" cy="816" r="8" class="c0"/>
<circle cx="1664" cy="1178" r="8" class="c0"/>
<circle cx="1322" cy="668" r="8" class="c0"/>
<circle cx="1508" cy="778" r="8" class="c0"/>
<circle cx="1810" cy="1378" r="8" class="c0"/>
<circle cx="1512" cy="1036" r="8" class="c0"/>
<circle cx="1844" cy="1246" r="8" class="c0"/>
<circle cx="1286" cy="716" r="8" class="c0"/>
<circle cx="1726" cy="1316" r="8" class="c0"/>
<circle cx="1476" cy="926" r="8" class="c0"/>
<circle cx="1650" cy="1074" r="8" class="c0"/>
<circle cx="1750" cy="1122" r="8" class="c0"/>
<circle cx="1292" cy="942" r="8" class="c0"/>
<circle cx="1858" cy="1430" r="8" class="c0"/>
<circle cx="1548" cy="882" r="8" class="c0"/>
<circle cx="1478" cy="846" r="8" class="c0"/>
<circle cx="1454" cy="1034" r="8" class="c0"/>
<circle cx="1654" cy="1160" r="8" class="c0"/>
<circle cx="1698" cy="1286" r="8" class="c0"/>
<circle cx="1376" cy="914" r="8" class="c0"/>
<circle cx="1836" cy="1266" r="8" class="c0"/>
<circle cx="1450" cy="764" r="8" class="c0"/>
<circle cx="1786" cy="1216" r="8" class="c0"/>
<circle cx="1806" cy="1354" r="8" class="c0"/>
<circle cx="1628" cy="856" r="8" class="c0"/>
<circle cx="1666" cy="1134" r="8" class="c0"/>
<circle cx="1520" cy="1052" r="8" class="c0"/>
<circle cx="1388" cy="1004" r="8" class="c0"/>
<circle cx="1898" cy="1306" r="8" class="c0"/>
<circle cx="1334" cy="836" r="8" class="c0"/>
<circle cx="1356" cy="670" r="8" class="c0"/>
<circle cx="1432" cy="692" r="8" class="c0"/>
<circle cx="1820" cy="1276" r="8" class="c0"/>
<circle cx="1666" cy="906" r="8" class="c0"/>
<circle cx="1708" cy="1026" r="8" class="c0"/>
<circle cx="1794" cy="1414" r="8" class="c0"/>
<circle cx="1546" cy="1066" r="8" class="c0"/>
<circle cx="1590" cy="846" r="8" class="c0"/>
<circle cx="1282" cy="676" r="8" class="c0"/>
<circle cx="1436" cy="776" r="8" class="c0"/>
<circle cx="1734" cy="1298" r="8" class="c0"/>
<circle cx="1524" cy="1126" r="8" class="c0"/>
<circle cx="1754" cy="1066" r="8" class="c0"/>
<circle cx="1450" cy="1002" r="8" class="c0"/>
<circle cx="1386" cy="730" r="8" class="c0"/>
<circle cx="1254" cy="706" r="8" class="c0"/>
<circle cx="1572" cy="1218" r="8" class="c0"/>
<circle cx="1908" cy="1430" r="8" class="c0"/>
<circle cx="1236" cy="802" r="8" class="c0"/>
<circle cx="1728" cy="972" r="8" class="c0"/>
<circle cx="1436" cy="992" r="8" class="c0"/>
<circle cx="1480" cy="1062" r="8" class="c0"/>
<circle cx="1224" cy="646" r="8" class="c0"/>
<circle cx="1744" cy="1378" r="8" class="c0"/>
<circle cx="1242" cy="694" r="8" class="c0"/>
<circle cx="1626" cy="968" r="8" class="c0"/>
<circle cx="1390" cy="758" r="8" class="c0"/>
<circle cx="1374" cy="1018" r="8" class="c0"/>
<circle cx="1838" cy="1110" r="8" class="c0"/>
<circle cx="1380" cy="1036" r="8" class="c0"/>
<circle cx="1478" cy="764" r="8" class="c0"/>
<circle cx="1380" cy="836" r="8" class="c0"/>
<circle cx="1326" cy="706" r="8" class="c0"/>
<circle cx="1328" cy="966" r="8" class="c0"/>
<circle cx="1680" cy="916" r="8" class="c0"/>
<circle cx="1538" cy="786" r="8" class="c0"/>
<circle cx="1844" cy="1214" r="8" class="c0"/>
<circle cx="1586" cy="1208" r="8" class="c0"/>
<circle cx="1222" cy="676" r="8" class="c0"/>
<circle cx="1792" cy="1054" r="8" class="c0"/>
<circle cx="1728" cy="1364" r="8" class="c0"/>
<circle cx="1488" cy="1044" r="8" class="c0"/>
<circle cx="1622" cy="1032" r="8" class="c0"/>
<circle cx="1902" cy="1190" r="8" class="c0"/>
<circle cx="1764" cy="1024" r="8" class="c0"/>
<circle cx="1676" cy="1124" r="8" class="c0"/>
<circle cx="1756" cy="1398" r="8" class="c0"/>
<circle cx="1710" cy="1232" r="8" class="c0"/>
<circle cx="1340" cy="818" r="8" class="c0"/>
<circle cx="1662" cy="986" r="8" class="c0"/>
<circle cx="1518" cy="768" r="8" class="c0"/>
<circle cx="1548" cy="1104" r="8" class="c0"/>
<circle cx="1588" cy="1060" r="8" class="c0"/>
<circle cx="1640" cy="1052" r="8" class="c0"/>
<circle cx="1554" cy="770" r="8" class="c0"/>
<circle cx="1442" cy="892" r="8" class="c0"/>
<circle cx="1768" cy="1084" r="8" class="c0"/>
<circle cx="1266" cy="692" r="8" class="c0"/>
<circle cx="1510" cy="1184" r="8" class="c0"/>
<circle cx="1576" cy="1152" r="8" class="c0"/>
<circle cx="1782" cy="1320" r="8" class="c0"/>
<circle cx="1840" cy="1182" r="8" class="c0"/>
<circle cx="1478" cy="710" r="8" class="c0"/>
<circle cx="1484" cy="1002" r="8" class="c0"/>
<circle cx="1652" cy="1236" r="8" class="c0"/>
<circle cx="1736" cy="1180" r="8" class="c0"/>
<circle cx="1538" cy="958" r="8" class="c0"/>
<circle cx="1486" cy="780" r="8" class="c0"/>
<circle cx="1874" cy="1280" r="8" class="c0"/>
<circle cx="1528" cy="944" r="8" class="c0"/>
<circle cx="1262" cy="874" r="8" class="c0"/>
<circle cx="1708" cy="1374" r="8" class="c0"/>
<circle cx="1410" cy="858" r="8" class="c0"/>
<circle cx="1910" cy="1218" r="8" class="c0"/>
<circle cx="1396" cy="970" r="8" class="c0"/>
<circle cx="1886" cy="1318" r="8" class="c0"/>
<circle cx="1276" cy="914" r="8" class="c0"/>
<circle cx="1902" cy="1234" r="8" class="c0"/>
<circle cx="1894" cy="1174" r="8" class="c0"/>
<circle cx="1674" cy="976" r="8" class="c0"/>
<circle cx="1822" cy="1342" r="8" class="c0"/>
<circle cx="1682" cy="1326" r="8" class="c0"/>
<circle cx="1766" cy="1246" r="8" class="c0"/>
<circle cx="1682" cy="1254" r="8" class="c0"/>
<circle cx="1440" cy="708" r="8" class="c0"/>
<circle cx="1834" cy="1286" r="8" class="c0"/>
<circle cx="1430" cy="718" r="8" class="c0"/>
<circle cx="1474" cy="742" r="8" class="c0"/>
<circle cx="1570" cy="876" r="8" class="c0"/>
<circle cx="1664" cy="1114" r="8" class="c0"/>
<circle cx="1814" cy="1220" r="8" class="c0"/>
<circle cx="1642" cy="1276" r="8" class="c0"/>
<circle cx="1894" cy="1358" r="8" class="c0"/>
<circle cx="1496" cy="938" r="8" class="c0"/>
<circle cx="1300" cy="842" r="8" class="c0"/>
<circle cx="1428" cy="944" r="8" class="c0"/>
<circle cx="1338" cy="882" r="8" class="c0"/>
<circle cx="1308" cy="980" r="8" class="c0"/>
<circle cx="1488" cy="830" r="8" class="c0"/>
<circle cx="1530" cy="1186" r="8" class="c0"/>
<circle cx="1556" cy="1076" r="8" class="c0"/>
<circle cx="1876" cy="1144" r="8" class="c0"/>
<circle cx="1418" cy="980" r="8" class="c0"/>
<circle cx="1568" cy="1128" r="8" class="c0"/>
<circle cx="1882" cy="1402" r="8" class="c0"/>
<circle cx="1564" cy="780" r="8" class="c0"/>
<circle cx="1742" cy="1076" r="8" class="c0"/>
<circle cx="1748" cy="1238" r="8" class="c0"/>
<circle cx="1284" cy="696" r="8" class="c0"/>
<circle cx="1438" cy="1108" r="8" class="c0"/>
<circle cx="1748" cy="1034" r="8" class="c0"/>
<circle cx="1502" cy="1016" r="8" class="c0"/>
<circle cx="1538" cy="844" r="8" class="c0"/>
<circle cx="1708" cy="1052" r="8" class="c0"/>
<circle cx="1582" cy="1078" r="8" class="c0"/>
<circle cx="1352" cy="842" r="6" class="c0"/>
<circle cx="1482" cy="1092" r="6" class="c0"/>
<circle cx="1406" cy="674" r="6" class="c0"/>
<circle cx="1624" cy="1184" r="6" class="c0"/>
<circle cx="1540" cy="1128" r="6" class="c0"/>
<circle cx="1510" cy="1118" r="6" class="c0"/>
<circle cx="1520" cy="1018" r="6" class="c0"/>
<circle cx="1550" cy="900" r="6" class="c0"/>
<circle cx="1668" cy="1082" r="6" class="c0"/>
<circle cx="1292" cy="904" r="6" class="c0"/>
<circle cx="1388" cy="924" r="6" class="c0"/>
<circle cx="1304" cy="788" r="6" class="c0"/>
<circle cx="1750" cy="1276" r="6" class="c0"/>
<circle cx="1750" cy="1316" r="6" class="c0"/>
<circle cx="1742" cy="1260" r="6" class="c0"/>
<circle cx="1784" cy="1254" r="6" class="c0"/>
<circle cx="1846" cy="1306" r="6" class="c0"/>
<circle cx="1838" cy="1428" r="6" class="c0"/>
<circle cx="1242" cy="858" r="6" class="c0"/>
<circle cx="1600" cy="1072" r="6" class="c0"/>
<circle cx="1406" cy="894" r="6" class="c0"/>
<circle cx="1562" cy="932" r="6" class="c0"/>
<circle cx="1826" cy="1316" r="6" class="c0"/>
<circle cx="1336" cy="760" r="6" class="c0"/>
<circle cx="1642" cy="944" r="6" class="c0"/>
<circle cx="1288" cy="830" r="6" class="c0"/>
<circle cx="1740" cy="1110" r="6" class="c0"/>
<circle cx="1464" cy="970" r="6" class="c0"/>
<circle cx="1276" cy="836" r="6" class="c0"/>
<circle cx="1874" cy="1226" r="6" class="c0"/>
<circle cx="1568" cy="820" r="6" class="c0"/>
<circle cx="1722" cy="1210" r="6" class="c0"/>
<circle cx="1768" cy="1184" r="6" class="c0"/>
<circle cx="1540" cy="1048" r="6" class="c0"/>
<circle cx="1492" cy="1082" r="6" class="c0"/>
<circle cx="1372" cy="994" r="6" class="c0"/>
<circle cx="1624" cy="916" r="6" class="c0"/>
<circle cx="1696" cy="922" r="6" class="c0"/>
<circle cx="1634" cy="884" r="6" class="c0"/>
<circle cx="1586" cy="1170" r="6" class="c0"/>
<circle cx="1390" cy="814" r="6" class="c0"/>
<circle cx="1628" cy="1234" r="6" class="c0"/>
<circle cx="1298" cy="742" r="6" class="c0"/>
<circle cx="1622" cy="874" r="6" class="c0"/>
<circle cx="1680" cy="1298" r="6" class="c0"/>
<circle cx="1910" cy="1356" r="6" class="c0"/>
<circle cx="1632" cy="908" r="6" class="c0"/>
<circle cx="1700" cy="1242" r="6" class="c0"/>
<circle cx="1394" cy="682" r="6" class="c0"/>
<circle cx="1558" cy="954" r="6" class="c0"/>
<circle cx="1320" cy="922" r="6" class="c0"/>
<circle cx="1356" cy="726" r="6" class="c0"/>
<circle cx="1458" cy="744" r="6" class="c0"/>
<circle cx="1796" cy="1398" r="6" class="c0"/>
<circle cx="1446" cy="862" r="6" class="c0"/>
<circle cx="1494" cy="904" r="6" class="c0"/>
<circle cx="1304" cy="754" r="6" class="c0"/>
<circle cx="1724" cy="1344" r="6" class="c0"/>
<circle cx="1812" cy="1418" r="6" class="c0"/>
<circle cx="1270" cy="748" r="6" class="c0"/>
<circle cx="1350" cy="808" r="6" class="c0"/>
<circle cx="1446" cy="914" r="6" class="c0"/>
<circle cx="1358" cy="882" r="6" class="c0"/>
<circle cx="1860" cy="1316" r="6" class="c0"/>
<circle cx="1780" cy="1138" r="6" class="c0"/>
<circle cx="1692" cy="970" r="6" class="c0"/>
<circle cx="1680" cy="1176" r="6" class="c0"/>
<circle cx="1838" cy="1346" r="6" class="c0"/>
<circle cx="1460" cy="838" r="6" class="c0"/>
<circle cx="1510" cy="1080" r="6" class="c0"/>
<circle cx="1812" cy="1252" r="6" class="c0"/>
<circle cx="1250" cy="906" r="6" class="c0"/>
<circle cx="1694" cy="1182" r="6" class="c0"/>
<circle cx="1518" cy="1146" r="6" class="c0"/>
<circle cx="1712" cy="1086" r="6" class="c0"/>
<circle cx="1784" cy="1036" r="6" class="c0"/>
<circle cx="1414" cy="1020" r="6" class="c0"/>
<circle cx="1768" cy="1356" r="6" class="c0"/>
<circle cx="1482" cy="910" r="6" class="c0"/>
<circle cx="1290" cy="958" r="6" class="c0"/>
<circle cx="1452" cy="828" r="6" class="c0"/>
<circle cx="1564" cy="1000" r="6" class="c0"/>
<circle cx="1828" cy="1088" r="6" class="c0"/>
<circle cx="1740" cy="1196" r="6" class="c0"/>
<circle cx="1668" cy="1038" r="6" class="c0"/>
<circle cx="1588" cy="870" r="6" class="c0"/>
<circle cx="1406" cy="1050" r="6" class="c0"/>
<circle cx="1380" cy="932" r="6" class="c0"/>
<circle cx="1606" cy="962" r="6" class="c0"/>
<circle cx="1578" cy="1118" r="6" class="c0"/>
<circle cx="1360" cy="850" r="6" class="c0"/>
<circle cx="1524" cy="994" r="6" class="c0"/>
<circle cx="1334" cy="778" r="6" class="c0"/>
<circle cx="1454" cy="924" r="6" class="c0"/>
<circle cx="1692" cy="1022" r="6" class="c0"/>
<circle cx="1672" cy="950" r="6" class="c0"/>
<circle cx="1368" cy="942" r="6" class="c0"/>
<circle cx="1420" cy="842" r="6" class="c0"/>
<circle cx="1724" cy="1388" r="6" class="c0"/>
<circle cx="1770" cy="1218" r="6" class="c0"/>
<circle cx="1870" cy="1114" r="6" class="c0"/>
<circle cx="1868" cy="1410" r="6" class="c0"/>
<circle cx="1814" cy="1154" r="6" class="c0"/>
<circle cx="1222" cy="760" r="6" class="c0"/>
<circle cx="1234" cy="830" r="6" class="c0"/>
<circle cx="1662" cy="1246" r="6" class="c0"/>
<circle cx="1278" cy="932" r="6" class="c0"/>
<circle cx="1862" cy="1154" r="6" class="c0"/>
<circle cx="1912" cy="1320" r="6" class="c0"/>
<circle cx="1752" cy="1050" r="6" class="c0"/>
<circle cx="1566" cy="898" r="6" class="c0"/>
<circle cx="1428" cy="832" r="6" class="c0"/>
<circle cx="1432" cy="880" r="6" class="c0"/>
<circle cx="1870" cy="1306" r="6" class="c0"/>
<circle cx="1792" cy="1246" r="6" class="c0"/>
<circle cx="1862" cy="1218" r="6" class="c0"/>
<circle cx="1564" cy="1234" r="6" class="c0"/>
<circle cx="1688" cy="1054" r="6" class="c0"/>
<circle cx="1544" cy="1086" r="6" class="c0"/>
<circle cx="1758" cy="1284" r="6" class="c0"/>
<circle cx="1360" cy="786" r="6" class="c0"/>
<circle cx="1448" cy="938" r="6" class="c0"/>
<circle cx="1334" cy="656" r="6" class="c0"/>
<circle cx="1762" cy="1226" r="6" class="c0"/>
<circle cx="1688" cy="1136" r="6" class="c0"/>
<circle cx="1664" cy="1196" r="6" class="c0"/>
<circle cx="1512" cy="976" r="6" class="c0"/>
<circle cx="1754" cy="1012" r="6" class="c0"/>
<circle cx="1262" cy="922" r="6" class="c0"/>
<circle cx="1642" cy="976" r="6" class="c0"/>
<circle cx="1696" cy="1358" r="6" class="c0"/>
<circle cx="1584" cy="1228" r="6" class="c0"/>
<circle cx="1772" cy="1286" r="6" class="c0"/>
<circle cx="1604" cy="1120" r="6" class="c0"/>
<circle cx="1898" cy="1156" r="6" class="c0"/>
<circle cx="1268" cy="714" r="6" class="c0"/>
<circle cx="1586" cy="906" r="6" class="c0"/>
<circle cx="1218" cy="746" r="6" class="c0"/>
<circle cx="1558" cy="1118" r="6" class="c0"/>
<circle cx="1598" cy="898" r="6" class="c0"/>
<circle cx="1604" cy="1210" r="6" class="c0"/>
<circle cx="1738" cy="1282" r="6" class="c0"/>
<circle cx="1346" cy="1014" r="6" class="c0"/>
<circle cx="1888" cy="1272" r="6" class="c0"/>
<circle cx="1412" cy="758" r="6" class="c0"/>
<circle cx="1612" cy="1066" r="6" class="c0"/>
<circle cx="1578" cy="834" r="6" class="c0"/>
<circle cx="1420" cy="732" r="6" class="c0"/>
<circle cx="1340" cy="914" r="6" class="c0"/>
<circle cx="1804" cy="1282" r="6" class="c0"/>
<circle cx="1532" cy="874" r="6" class="c0"/>
<circle cx="1824" cy="1430" r="6" class="c0"/>
<circle cx="1716" cy="950" r="6" class="c0"/>
<circle cx="1512" cy="728" r="6" class="c0"/>
<circle cx="1540" cy="910" r="6" class="c0"/>
<circle cx="1656" cy="1008" r="6" class="c0"/>
<circle cx="1792" cy="1432" r="6" class="c0"/>
<circle cx="1618" cy="994" r="6" class="c0"/>
<circle cx="1414" cy="682" r="6" class="c0"/>
<circle cx="1504" cy="1156" r="6" class="c0"/>
<circle cx="1634" cy="1220" r="6" class="c0"/>
<circle cx="1704" cy="944" r="6" class="c0"/>
<circle cx="1440" cy="1042" r="6" class="c0"/>
<circle cx="1754" cy="1334" r="6" class="c0"/>
<circle cx="1596" cy="1218" r="6" class="c0"/>
<circle cx="1588" cy="1038" r="6" class="c0"/>
<circle cx="1694" cy="1004" r="6" class="c0"/>
<circle cx="1766" cy="1322" r="6" class="c0"/>
<circle cx="1626" cy="1158" r="6" class="c0"/>
<circle cx="1704" cy="1346" r="6" class="c0"/>
<circle cx="1766" cy="1170" r="6" class="c0"/>
<circle cx="1628" cy="1098" r="6" class="c0"/>
<circle cx="1828" cy="1152" r="6" class="c0"/>
<circle cx="1508" cy="1094" r="6" class="c0"/>
<circle cx="1598" cy="1248" r="6" class="c0"/>
<circle cx="1666" cy="1308" r="6" class="c0"/>
<circle cx="1726" cy="1170" r="6" class="c0"/>
<circle cx="1530" cy="1040" r="6" class="c0"/>
<circle cx="1700" cy="1270" r="6" class="c0"/>
<circle cx="1482" cy="1134" r="6" class="c0"/>
<circle cx="1254" cy="646" r="6" class="c0"/>
<circle cx="1488" cy="986" r="6" class="c0"/>
<circle cx="1386" cy="690" r="6" class="c0"/>
<circle cx="1520" cy="906" r="6" class="c0"/>
<circle cx="1504" cy="716" r="6" class="c0"/>
<circle cx="1474" cy="1102" r="6" class="c0"/>
<circle cx="1518" cy="876" r="6" class="c0"/>
<circle cx="1302" cy="860" r="6" class="c0"/>
<circle cx="1812" cy="1324" r="6" class="c0"/>
<circle cx="1296" cy="780" r="6" class="c0"/>
<circle cx="1442" cy="816" r="6" class="c0"/>
<circle cx="1538" cy="934" r="6" class="c0"/>
<circle cx="1598" cy="948" r="6" class="c0"/>
<circle cx="1416" cy="886" r="6" class="c0"/>
<circle cx="1294" cy="686" r="6" class="c0"/>
<circle cx="1554" cy="854" r="6" class="c0"/>
<circle cx="1850" cy="1192" r="6" class="c0"/>
<circle cx="1206" cy="684" r="6" class="c0"/>
<circle cx="1612" cy="866" r="6" class="c0"/>
<circle cx="1476" cy="1034" r="6" class="c0"/>
<circle cx="1670" cy="1162" r="6" class="c0"/>
<circle cx="1292" cy="648" r="6" class="c0"/>
<circle cx="1806" cy="1162" r="6" class="c0"/>
<circle cx="1912" cy="1244" r="6" class="c0"/>
<circle cx="1754" cy="1188" r="6" class="c0"/>
<circle cx="1272" cy="796" r="6" class="c0"/>
<circle cx="1738" cy="1398" r="6" class="c0"/>
<circle cx="1302" cy="964" r="6" class="c0"/>
<circle cx="1600" cy="834" r="6" class="c0"/>
<circle cx="1264" cy="780" r="6" class="c0"/>
<circle cx="1636" cy="958" r="6" class="c0"/>
<circle cx="1634" cy="936" r="6" class="c0"/>
<circle cx="1512" cy="1164" r="6" class="c0"/>
<circle cx="1810" cy="1432" r="6" class="c0"/>
<circle cx="1560" cy="866" r="6" class="c0"/>
<circle cx="1428" cy="1058" r="6" class="c0"/>
<circle cx="1704" cy="1094" r="6" class="c0"/>
<circle cx="1562" cy="912" r="6" class="c0"/>
<circle cx="1808" cy="1060" r="6" class="c0"/>
<circle cx="1758" cy="1152" r="6" class="c0"/>
<circle cx="1464" cy="756" r="6" class="c0"/>
<circle cx="1912" cy="1200" r="6" class="c0"/>
<circle cx="1348" cy="922" r="6" class="c0"/>
<circle cx="1676" cy="1048" r="6" class="c0"/>
<circle cx="1544" cy="828" r="6" class="c0"/>
<circle cx="1642" cy="1212" r="6" class="c0"/>
<circle cx="1212" cy="658" r="6" class="c0"/>
<circle cx="1586" cy="1256" r="6" class="c0"/>
<circle cx="1792" cy="1164" r="6" class="c0"/>
<circle cx="1832" cy="1302" r="6" class="c0"/>
<circle cx="1858" cy="1376" r="6" class="c0"/>
<circle cx="1312" cy="654" r="6" class="c0"/>
<circle cx="1880" cy="1262" r="6" class="c0"/>
<circle cx="1518" cy="932" r="6" class="c0"/>
<circle cx="1776" cy="1414" r="6" class="c0"/>
<circle cx="1554" cy="790" r="6" class="c0"/>
<circle cx="1792" cy="1382" r="6" class="c0"/>
<circle cx="1258" cy="754" r="6" class="c0"/>
<circle cx="1398" cy="1040" r="6" class="c0"/>
<circle cx="1444" cy="726" r="6" class="c0"/>
<circle cx="1708" cy="1174" r="6" class="c0"/>
<circle cx="1772" cy="1370" r="6" class="c0"/>
<circle cx="1532" cy="1144" r="6" class="c0"/>
<circle cx="1476" cy="898" r="6" class="c0"/>
<circle cx="1338" cy="1006" r="6" class="c0"/>
<circle cx="1774" cy="1014" r="6" class="c0"/>
<circle cx="1600" cy="1172" r="6" class="c0"/>
<circle cx="1264" cy="856" r="6" class="c0"/>
<circle cx="1766" cy="994" r="6" class="c0"/>
<circle cx="1842" cy="1230" r="6" class="c0"/>
<circle cx="1362" cy="1028" r="6" class="c0"/>
</svg>
