<?xml version="1.0" encoding="utf-8"?>
<svg xmlns="http://www.w3.org/2000/svg"
     xmlns:xlink="http://www.w3.org/1999/xlink" width="1920" height="1440" >

            <defs>
            <style type="text/css"><![CDATA[
circle {stroke: none;}
.c0 {fill: #FFFFFF;}
]]></style>
            </defs>
<rect x="0" y="0" width="1920" height="1440" fill="black"/>
<circle cx="864" cy="274" r="12" class="c0"/>
<circle cx="922" cy="1362" r="12" class="c0"/>
<circle cx="984" cy="634" r="12" class="c0"/>
<circle cx="962" cy="266" r="12" class="c0"/>
<circle cx="1096" cy="686" r="12" class="c0"/>
<circle cx="998" cy="550" r="12" class="c0"/>
<circle cx="998" cy="468" r="12" class="c0"/>
<circle cx="1106" cy="652" r="12" class="c0"/>
<circle cx="988" cy="338" r="12" class="c0"/>
<circle cx="1040" cy="1394" r="12" class="c0"/>
<circle cx="894" cy="872" r="12" class="c0"/>
<circle cx="850" cy="346" r="12" class="c0"/>
<circle cx="1014" cy="1374" r="12" class="c0"/>
<circle cx="922" cy="234" r="12" class="c0"/>
<circle cx="914" cy="698" r="12" class="c0"/>
<circle cx="898" cy="1396" r="12" class="c0"/>
<circle cx="980" cy="386" r="12" class="c0"/>
<circle cx="1046" cy="1100" r="12" class="c0"/>
<circle cx="1040" cy="668" r="12" class="c0"/>
<circle cx="868" cy="1244" r="12" class="c0"/>
<circle cx="876" cy="1274" r="12" class="c0"/>
<circle cx="954" cy="1274" r="12" class="c0"/>
<circle cx="984" cy="1328" r="12" class="c0"/>
<circle cx="1048" cy="1052" r="12" class="c0"/>
<circle cx="1018" cy="1170" r="12" class="c0"/>
<circle cx="892" cy="992" r="12" class="c0"/>
<circle cx="894" cy="612" r="12" class="c0"/>
<circle cx="1078" cy="1236" r="12" class="c0"/>
<circle cx="932" cy="304" r="12" class="c0"/>
<circle cx="1140" cy="670" r="12" class="c0"/>
<circle cx="1100" cy="766" r="12" class="c0"/>
<circle cx="932" cy="350" r="12" class="c0"/>
<circle cx="944" cy="992" r="12" class="c0"/>
<circle cx="1036" cy="342" r="12" class="c0"/>
<circle cx="1008" cy="800" r="12" class="c0"/>
<circle cx="874" cy="1412" r="12" class="c0"/>
<circle cx="1016" cy="252" r="12" class="c0"/>
<circle cx="930" cy="736" r="12" class="c0"/>
<circle cx="804" cy="326" r="12" class="c0"/>
<circle cx="1064" cy="1210" r="12" class="c0"/>
<circle cx="914" cy="1312" r="12" class="c0"/>
<circle cx="868" cy="530" r="12" class="c0"/>
<circle cx="1150" cy="632" r="12" class="c0"/>
<circle cx="840" cy="1310" r="12" class="c0"/>
<circle cx="908" cy="770" r="12" class="c0"/>
<circle cx="826" cy="1360" r="12" class="c0"/>
<circle cx="1126" cy="624" r="12" class="c0"/>
<circle cx="1136" cy="712" r="12" class="c0"/>
<circle cx="960" cy="216" r="12" class="c0"/>
<circle cx="1044" cy="436" r="12" class="c0"/>
<circle cx="1184" cy="760" r="12" class="c0"/>
<circle cx="1176" cy="606" r="10" class="c0"/>
<circle cx="1014" cy="1032" r="10" class="c0"/>
<circle cx="890" cy="1316" r="10" class="c0"/>
<circle cx="864" cy="824" r="10" class="c0"/>
<circle cx="1020" cy="824" r="10" class="c0"/>
<circle cx="974" cy="1168" r="10" class="c0"/>
<circle cx="1046" cy="392" r="10" class="c0"/>
<circle cx="986" cy="302" r="10" class="c0"/>
<circle cx="908" cy="384" r="10" class="c0"/>
<circle cx="1090" cy="518" r="10" class="c0"/>
<circle cx="832" cy="1136" r="10" class="c0"/>
<circle cx="978" cy="1092" r="10" class="c0"/>
<circle cx="1056" cy="746" r="10" class="c0"/>
<circle cx="1060" cy="930" r="10" class="c0"/>
<circle cx="1070" cy="1346" r="10" class="c0"/>
<circle cx="828" cy="1216" r="10" class="c0"/>
<circle cx="1172" cy="740" r="10" class="c0"/>
<circle cx="924" cy="840" r="10" class="c0"/>
<circle cx="916" cy="1144" r="10" class="c0"/>
<circle cx="1126" cy="554" r="10" class="c0"/>
<circle cx="1036" cy="720" r="10" class="c0"/>
<circle cx="1036" cy="790" r="10" class="c0"/>
<circle cx="956" cy="742" r="10" class="c0"/>
<circle cx="938" cy="1338" r="10" class="c0"/>
<circle cx="900" cy="324" r="10" class="c0"/>
<circle cx="954" cy="828" r="10" class="c0"/>
<circle cx="1088" cy="1114" r="10" class="c0"/>
<circle cx="1056" cy="908" r="10" class="c0"/>
<circle cx="1178" cy="810" r="10" class="c0"/>
<circle cx="936" cy="398" r="10" class="c0"/>
<circle cx="854" cy="224" r="10" class="c0"/>
<circle cx="930" cy="812" r="10" class="c0"/>
<circle cx="898" cy="476" r="10" class="c0"/>
<circle cx="956" cy="628" r="10" class="c0"/>
<circle cx="960" cy="938" r="10" class="c0"/>
<circle cx="1044" cy="572" r="10" class="c0"/>
<circle cx="876" cy="1068" r="10" class="c0"/>
<circle cx="904" cy="850" r="10" class="c0"/>
<circle cx="1018" cy="744" r="10" class="c0"/>
<circle cx="940" cy="544" r="10" class="c0"/>
<circle cx="840" cy="1084" r="10" class="c0"/>
<circle cx="962" cy="696" r="10" class="c0"/>
<circle cx="884" cy="942" r="10" class="c0"/>
<circle cx="1018" cy="878" r="10" class="c0"/>
<circle cx="1108" cy="576" r="10" class="c0"/>
<circle cx="810" cy="284" r="10" class="c0"/>
<circle cx="1002" cy="358" r="10" class="c0"/>
<circle cx="876" cy="340" r="10" class="c0"/>
<circle cx="876" cy="220" r="10" class="c0"/>
<circle cx="1156" cy="698" r="10" class="c0"/>
<circle cx="778" cy="276" r="10" class="c0"/>
<circle cx="958" cy="420" r="10" class="c0"/>
<circle cx="1122" cy="730" r="10" class="c0"/>
<circle cx="1084" cy="1048" r="10" class="c0"/>
<circle cx="1080" cy="640" r="10" class="c0"/>
<circle cx="890" cy="208" r="10" class="c0"/>
<circle cx="862" cy="934" r="10" class="c0"/>
<circle cx="1076" cy="1422" r="10" class="c0"/>
<circle cx="918" cy="608" r="10" class="c0"/>
<circle cx="896" cy="516" r="10" class="c0"/>
<circle cx="1122" cy="590" r="10" class="c0"/>
<circle cx="990" cy="818" r="10" class="c0"/>
<circle cx="866" cy="988" r="10" class="c0"/>
<circle cx="902" cy="258" r="10" class="c0"/>
<circle cx="1056" cy="1312" r="10" class="c0"/>
<circle cx="906" cy="1086" r="10" class="c0"/>
<circle cx="902" cy="1032" r="10" class="c0"/>
<circle cx="932" cy="678" r="10" class="c0"/>
<circle cx="824" cy="214" r="10" class="c0"/>
<circle cx="854" cy="300" r="10" class="c0"/>
<circle cx="966" cy="346" r="10" class="c0"/>
<circle cx="1004" cy="1244" r="10" class="c0"/>
<circle cx="966" cy="1038" r="10" class="c0"/>
<circle cx="924" cy="944" r="10" class="c0"/>
<circle cx="900" cy="644" r="10" class="c0"/>
<circle cx="1070" cy="798" r="10" class="c0"/>
<circle cx="1032" cy="506" r="10" class="c0"/>
<circle cx="838" cy="286" r="10" class="c0"/>
<circle cx="868" cy="1158" r="10" class="c0"/>
<circle cx="850" cy="1368" r="10" class="c0"/>
<circle cx="970" cy="860" r="10" class="c0"/>
<circle cx="854" cy="1182" r="10" class="c0"/>
<circle cx="1004" cy="232" r="10" class="c0"/>
<circle cx="1146" cy="570" r="10" class="c0"/>
<circle cx="850" cy="636" r="10" class="c0"/>
<circle cx="916" cy="796" r="10" class="c0"/>
<circle cx="920" cy="480" r="10" class="c0"/>
<circle cx="818" cy="1290" r="10" class="c0"/>
<circle cx="1018" cy="1074" r="10" class="c0"/>
<circle cx="1002" cy="588" r="10" class="c0"/>
<circle cx="950" cy="1224" r="10" class="c0"/>
<circle cx="1030" cy="890" r="10" class="c0"/>
<circle cx="1062" cy="772" r="10" class="c0"/>
<circle cx="934" cy="432" r="10" class="c0"/>
<circle cx="1004" cy="654" r="10" class="c0"/>
<circle cx="950" cy="1200" r="10" class="c0"/>
<circle cx="1000" cy="442" r="10" class="c0"/>
<circle cx="914" cy="1118" r="10" class="c0"/>
<circle cx="1038" cy="314" r="10" class="c0"/>
<circle cx="1040" cy="938" r="10" class="c0"/>
<circle cx="852" cy="548" r="10" class="c0"/>
<circle cx="1052" cy="1176" r="10" class="c0"/>
<circle cx="1074" cy="474" r="10" class="c0"/>
<circle cx="1018" cy="1198" r="10" class="c0"/>
<circle cx="1068" cy="520" r="10" class="c0"/>
<circle cx="946" cy="1310" r="10" class="c0"/>
<circle cx="1036" cy="1272" r="10" class="c0"/>
<circle cx="956" cy="1138" r="10" class="c0"/>
<circle cx="934" cy="902" r="10" class="c0"/>
<circle cx="880" cy="406" r="10" class="c0"/>
<circle cx="922" cy="1256" r="10" class="c0"/>
<circle cx="988" cy="1140" r="10" class="c0"/>
<circle cx="1010" cy="496" r="10" class="c0"/>
<circle cx="1000" cy="1086" r="10" class="c0"/>
<circle cx="884" cy="916" r="10" class="c0"/>
<circle cx="916" cy="200" r="10" class="c0"/>
<circle cx="998" cy="956" r="10" class="c0"/>
<circle cx="1048" cy="1150" r="10" class="c0"/>
<circle cx="1090" cy="1144" r="10" class="c0"/>
<circle cx="968" cy="758" r="10" class="c0"/>
<circle cx="1052" cy="828" r="10" class="c0"/>
<circle cx="1020" cy="1132" r="10" class="c0"/>
<circle cx="950" cy="1366" r="10" class="c0"/>
<circle cx="1034" cy="620" r="10" class="c0"/>
<circle cx="1022" cy="538" r="10" class="c0"/>
<circle cx="802" cy="258" r="10" class="c0"/>
<circle cx="888" cy="1356" r="10" class="c0"/>
<circle cx="912" cy="824" r="10" class="c0"/>
<circle cx="1018" cy="458" r="10" class="c0"/>
<circle cx="1080" cy="448" r="10" class="c0"/>
<circle cx="918" cy="1232" r="10" class="c0"/>
<circle cx="1004" cy="890" r="10" class="c0"/>
<circle cx="912" cy="968" r="10" class="c0"/>
<circle cx="1062" cy="1260" r="10" class="c0"/>
<circle cx="950" cy="332" r="10" class="c0"/>
<circle cx="896" cy="1260" r="10" class="c0"/>
<circle cx="1074" cy="1276" r="10" class="c0"/>
<circle cx="902" cy="284" r="10" class="c0"/>
<circle cx="900" cy="1166" r="10" class="c0"/>
<circle cx="862" cy="248" r="10" class="c0"/>
<circle cx="862" cy="662" r="10" class="c0"/>
<circle cx="864" cy="1042" r="10" class="c0"/>
<circle cx="882" cy="306" r="10" class="c0"/>
<circle cx="928" cy="1066" r="10" class="c0"/>
<circle cx="970" cy="1066" r="10" class="c0"/>
<circle cx="1008" cy="1006" r="10" class="c0"/>
<circle cx="1136" cy="764" r="10" class="c0"/>
<circle cx="1030" cy="698" r="10" class="c0"/>
<circle cx="874" cy="1304" r="10" class="c0"/>
<circle cx="1052" cy="882" r="10" class="c0"/>
<circle cx="902" cy="1420" r="10" class="c0"/>
<circle cx="1038" cy="1026" r="10" class="c0"/>
<circle cx="936" cy="872" r="10" class="c0"/>
<circle cx="988" cy="982" r="10" class="c0"/>
<circle cx="982" cy="492" r="10" class="c0"/>
<circle cx="990" cy="422" r="10" class="c0"/>
<circle cx="884" cy="778" r="10" class="c0"/>
<circle cx="1164" cy="718" r="10" class="c0"/>
<circle cx="976" cy="656" r="10" class="c0"/>
<circle cx="1004" cy="1152" r="10" class="c0"/>
<circle cx="822" cy="1260" r="10" class="c0"/>
<circle cx="974" cy="324" r="10" class="c0"/>
<circle cx="962" cy="1240" r="10" class="c0"/>
<circle cx="1072" cy="1158" r="10" class="c0"/>
<circle cx="950" cy="1058" r="10" class="c0"/>
<circle cx="980" cy="1396" r="10" class="c0"/>
<circle cx="816" cy="350" r="10" class="c0"/>
<circle cx="1014" cy="1326" r="10" class="c0"/>
<circle cx="874" cy="562" r="10" class="c0"/>
<circle cx="894" cy="686" r="10" class="c0"/>
<circle cx="852" cy="812" r="10" class="c0"/>
<circle cx="1046" cy="1348" r="10" class="c0"/>
<circle cx="978" cy="572" r="10" class="c0"/>
<circle cx="946" cy="778" r="10" class="c0"/>
<circle cx="956" cy="374" r="10" class="c0"/>
<circle cx="872" cy="730" r="10" class="c0"/>
<circle cx="1034" cy="994" r="8" class="c0"/>
<circle cx="852" cy="1066" r="8" class="c0"/>
<circle cx="1056" cy="988" r="8" class="c0"/>
<circle cx="832" cy="1170" r="8" class="c0"/>
<circle cx="1060" cy="692" r="8" class="c0"/>
<circle cx="1008" cy="1110" r="8" class="c0"/>
<circle cx="986" cy="882" r="8" class="c0"/>
<circle cx="1042" cy="760" r="8" class="c0"/>
<circle cx="1164" cy="768" r="8" class="c0"/>
<circle cx="868" cy="602" r="8" class="c0"/>
<circle cx="882" cy="706" r="8" class="c0"/>
<circle cx="862" cy="1092" r="8" class="c0"/>
<circle cx="994" cy="916" r="8" class="c0"/>
<circle cx="1048" cy="526" r="8" class="c0"/>
<circle cx="972" cy="1192" r="8" class="c0"/>
<circle cx="848" cy="1030" r="8" class="c0"/>
<circle cx="1076" cy="740" r="8" class="c0"/>
<circle cx="936" cy="376" r="8" class="c0"/>
<circle cx="944" cy="968" r="8" class="c0"/>
<circle cx="856" cy="510" r="8" class="c0"/>
<circle cx="874" cy="1014" r="8" class="c0"/>
<circle cx="1014" cy="566" r="8" class="c0"/>
<circle cx="852" cy="368" r="8" class="c0"/>
<circle cx="832" cy="678" r="8" class="c0"/>
<circle cx="1124" cy="692" r="8" class="c0"/>
<circle cx="956" cy="592" r="8" class="c0"/>
<circle cx="1066" cy="562" r="8" class="c0"/>
<circle cx="1074" cy="412" r="8" class="c0"/>
<circle cx="980" cy="1222" r="8" class="c0"/>
<circle cx="886" cy="1378" r="8" class="c0"/>
<circle cx="1088" cy="1080" r="8" class="c0"/>
<circle cx="1068" cy="628" r="8" class="c0"/>
<circle cx="978" cy="1358" r="8" class="c0"/>
<circle cx="1082" cy="672" r="8" class="c0"/>
<circle cx="908" cy="672" r="8" class="c0"/>
<circle cx="898" cy="1280" r="8" class="c0"/>
<circle cx="848" cy="1416" r="8" class="c0"/>
<circle cx="996" cy="526" r="8" class="c0"/>
<circle cx="894" cy="1196" r="8" class="c0"/>
<circle cx="828" cy="162" r="8" class="c0"/>
<circle cx="996" cy="1192" r="8" class="c0"/>
<circle cx="850" cy="400" r="8" class="c0"/>
<circle cx="842" cy="696" r="8" class="c0"/>
<circle cx="836" cy="588" r="8" class="c0"/>
<circle cx="802" cy="370" r="8" class="c0"/>
<circle cx="1032" cy="1364" r="8" class="c0"/>
<circle cx="852" cy="1134" r="8" class="c0"/>
<circle cx="1050" cy="638" r="8" class="c0"/>
<circle cx="888" cy="166" r="8" class="c0"/>
<circle cx="770" cy="300" r="8" class="c0"/>
<circle cx="938" cy="596" r="8" class="c0"/>
<circle cx="976" cy="548" r="8" class="c0"/>
<circle cx="1076" cy="1320" r="8" class="c0"/>
<circle cx="976" cy="950" r="8" class="c0"/>
<circle cx="1004" cy="848" r="8" class="c0"/>
<circle cx="862" cy="146" r="8" class="c0"/>
<circle cx="818" cy="148" r="8" class="c0"/>
<circle cx="920" cy="416" r="8" class="c0"/>
<circle cx="1090" cy="554" r="8" class="c0"/>
<circle cx="928" cy="712" r="8" class="c0"/>
<circle cx="818" cy="182" r="8" class="c0"/>
<circle cx="1032" cy="912" r="8" class="c0"/>
<circle cx="886" cy="1048" r="8" class="c0"/>
<circle cx="1030" cy="852" r="8" class="c0"/>
<circle cx="958" cy="902" r="8" class="c0"/>
<circle cx="1002" cy="1286" r="8" class="c0"/>
<circle cx="950" cy="574" r="8" class="c0"/>
<circle cx="980" cy="1000" r="8" class="c0"/>
<circle cx="856" cy="956" r="8" class="c0"/>
<circle cx="842" cy="266" r="8" class="c0"/>
<circle cx="1028" cy="970" r="8" class="c0"/>
<circle cx="1178" cy="642" r="8" class="c0"/>
<circle cx="924" cy="176" r="8" class="c0"/>
<circle cx="812" cy="1338" r="8" class="c0"/>
<circle cx="1070" cy="682" r="8" class="c0"/>
<circle cx="1020" cy="438" r="8" class="c0"/>
<circle cx="868" cy="876" r="8" class="c0"/>
<circle cx="780" cy="352" r="8" class="c0"/>
<circle cx="886" cy="808" r="8" class="c0"/>
<circle cx="930" cy="656" r="8" class="c0"/>
<circle cx="1074" cy="980" r="8" class="c0"/>
<circle cx="1006" cy="1218" r="8" class="c0"/>
<circle cx="1082" cy="1368" r="8" class="c0"/>
<circle cx="1002" cy="700" r="8" class="c0"/>
<circle cx="868" cy="1348" r="8" class="c0"/>
<circle cx="1094" cy="1388" r="8" class="c0"/>
<circle cx="836" cy="564" r="8" class="c0"/>
<circle cx="834" cy="1390" r="8" class="c0"/>
<circle cx="902" cy="716" r="8" class="c0"/>
<circle cx="1086" cy="1184" r="8" class="c0"/>
<circle cx="906" cy="1186" r="8" class="c0"/>
<circle cx="1022" cy="1098" r="8" class="c0"/>
<circle cx="1064" cy="1010" r="8" class="c0"/>
<circle cx="942" cy="1290" r="8" class="c0"/>
<circle cx="986" cy="1020" r="8" class="c0"/>
<circle cx="982" cy="722" r="8" class="c0"/>
<circle cx="1014" cy="1426" r="8" class="c0"/>
<circle cx="866" cy="1122" r="8" class="c0"/>
<circle cx="1046" cy="544" r="8" class="c0"/>
<circle cx="996" cy="776" r="8" class="c0"/>
<circle cx="1092" cy="1254" r="8" class="c0"/>
<circle cx="950" cy="1080" r="8" class="c0"/>
<circle cx="842" cy="1228" r="8" class="c0"/>
<circle cx="906" cy="348" r="8" class="c0"/>
<circle cx="936" cy="626" r="8" class="c0"/>
<circle cx="1116" cy="514" r="8" class="c0"/>
<circle cx="1190" cy="732" r="8" class="c0"/>
<circle cx="1072" cy="544" r="8" class="c0"/>
<circle cx="982" cy="608" r="8" class="c0"/>
<circle cx="928" cy="1210" r="8" class="c0"/>
<circle cx="872" cy="850" r="8" class="c0"/>
<circle cx="1004" cy="1406" r="8" class="c0"/>
<circle cx="1054" cy="600" r="8" class="c0"/>
<circle cx="1026" cy="484" r="8" class="c0"/>
<circle cx="858" cy="708" r="8" class="c0"/>
<circle cx="1016" cy="288" r="8" class="c0"/>
<circle cx="896" cy="1218" r="8" class="c0"/>
<circle cx="988" cy="752" r="8" class="c0"/>
<circle cx="896" cy="418" r="8" class="c0"/>
<circle cx="962" cy="1182" r="8" class="c0"/>
<circle cx="904" cy="590" r="8" class="c0"/>
<circle cx="838" cy="1246" r="8" class="c0"/>
<circle cx="844" cy="1336" r="8" class="c0"/>
<circle cx="994" cy="402" r="8" class="c0"/>
<circle cx="984" cy="1268" r="8" class="c0"/>
<circle cx="998" cy="1308" r="8" class="c0"/>
<circle cx="1054" cy="1412" r="8" class="c0"/>
<circle cx="906" cy="404" r="8" class="c0"/>
<circle cx="910" cy="1336" r="8" class="c0"/>
<circle cx="942" cy="500" r="8" class="c0"/>
<circle cx="848" cy="1160" r="8" class="c0"/>
<circle cx="942" cy="1098" r="8" class="c0"/>
<circle cx="1188" cy="654" r="8" class="c0"/>
<circle cx="952" cy="1414" r="8" class="c0"/>
<circle cx="850" cy="1000" r="8" class="c0"/>
<circle cx="958" cy="466" r="8" class="c0"/>
<circle cx="1070" cy="1106" r="8" class="c0"/>
<circle cx="806" cy="204" r="8" class="c0"/>
<circle cx="854" cy="586" r="8" class="c0"/>
<circle cx="828" cy="324" r="8" class="c0"/>
<circle cx="1050" cy="962" r="8" class="c0"/>
<circle cx="998" cy="1046" r="8" class="c0"/>
<circle cx="840" cy="192" r="8" class="c0"/>
<circle cx="958" cy="308" r="8" class="c0"/>
<circle cx="954" cy="1010" r="8" class="c0"/>
<circle cx="1106" cy="474" r="8" class="c0"/>
<circle cx="918" cy="506" r="8" class="c0"/>
<circle cx="1154" cy="604" r="8" class="c0"/>
<circle cx="1132" cy="648" r="8" class="c0"/>
<circle cx="904" cy="742" r="8" class="c0"/>
<circle cx="934" cy="1120" r="8" class="c0"/>
<circle cx="1022" cy="1054" r="8" class="c0"/>
<circle cx="976" cy="1122" r="8" class="c0"/>
<circle cx="1028" cy="772" r="8" class="c0"/>
<circle cx="1066" cy="366" r="8" class="c0"/>
<circle cx="1190" cy="798" r="8" class="c0"/>
<circle cx="1024" cy="598" r="8" class="c0"/>
<circle cx="1040" cy="1230" r="8" class="c0"/>
<circle cx="880" cy="130" r="8" class="c0"/>
<circle cx="986" cy="846" r="8" class="c0"/>
<circle cx="904" cy="1372" r="8" class="c0"/>
<circle cx="956" cy="1346" r="8" class="c0"/>
<circle cx="1100" cy="498" r="8" class="c0"/>
<circle cx="970" cy="1290" r="8" class="c0"/>
<circle cx="990" cy="668" r="8" class="c0"/>
<circle cx="1114" cy="542" r="8" class="c0"/>
<circle cx="810" cy="1374" r="8" class="c0"/>
<circle cx="894" cy="960" r="8" class="c0"/>
<circle cx="830" cy="642" r="8" class="c0"/>
<circle cx="974" cy="236" r="8" class="c0"/>
<circle cx="1124" cy="530" r="8" class="c0"/>
<circle cx="1016" cy="1302" r="8" class="c0"/>
<circle cx="1020" cy="638" r="8" class="c0"/>
<circle cx="880" cy="366" r="8" class="c0"/>
<circle cx="890" cy="544" r="8" class="c0"/>
<circle cx="1064" cy="1064" r="8" class="c0"/>
<circle cx="900" cy="238" r="8" class="c0"/>
<circle cx="866" cy="164" r="8" class="c0"/>
<circle cx="1176" cy="686" r="8" class="c0"/>
<circle cx="922" cy="638" r="8" class="c0"/>
<circle cx="1004" cy="382" r="8" class="c0"/>
<circle cx="1084" cy="944" r="8" class="c0"/>
<circle cx="866" cy="318" r="8" class="c0"/>
<circle cx="960" cy="510" r="8" class="c0"/>
<circle cx="1042" cy="1130" r="8" class="c0"/>
<circle cx="988" cy="282" r="8" class="c0"/>
<circle cx="1080" cy="502" r="8" class="c0"/>
<circle cx="978" cy="902" r="8" class="c0"/>
<circle cx="878" cy="194" r="8" class="c0"/>
<circle cx="840" cy="136" r="8" class="c0"/>
<circle cx="1012" cy="322" r="8" class="c0"/>
<circle cx="1062" cy="1380" r="8" class="c0"/>
<circle cx="916" cy="1010" r="8" class="c0"/>
<circle cx="834" cy="1278" r="8" class="c0"/>
<circle cx="836" cy="248" r="8" class="c0"/>
<circle cx="880" cy="466" r="8" class="c0"/>
<circle cx="962" cy="804" r="8" class="c0"/>
<circle cx="966" cy="440" r="8" class="c0"/>
<circle cx="884" cy="1230" r="8" class="c0"/>
<circle cx="1024" cy="400" r="8" class="c0"/>
<circle cx="874" cy="1184" r="8" class="c0"/>
<circle cx="874" cy="1204" r="8" class="c0"/>
<circle cx="994" cy="1418" r="8" class="c0"/>
<circle cx="1116" cy="754" r="8" class="c0"/>
<circle cx="1012" cy="908" r="8" class="c0"/>
<circle cx="1062" cy="1036" r="8" class="c0"/>
<circle cx="936" cy="1426" r="8" class="c0"/>
<circle cx="822" cy="1420" r="8" class="c0"/>
<circle cx="1106" cy="710" r="8" class="c0"/>
<circle cx="1104" cy="630" r="8" class="c0"/>
<circle cx="916" cy="540" r="8" class="c0"/>
<circle cx="1040" cy="868" r="8" class="c0"/>
<circle cx="902" cy="904" r="8" class="c0"/>
<circle cx="858" cy="184" r="8" class="c0"/>
<circle cx="924" cy="1096" r="8" class="c0"/>
<circle cx="910" cy="1050" r="8" class="c0"/>
<circle cx="862" cy="1380" r="8" class="c0"/>
<circle cx="822" cy="1322" r="8" class="c0"/>
<circle cx="1006" cy="722" r="8" class="c0"/>
<circle cx="906" cy="932" r="8" class="c0"/>
<circle cx="942" cy="702" r="8" class="c0"/>
<circle cx="782" cy="252" r="8" class="c0"/>
<circle cx="936" cy="1156" r="8" class="c0"/>
<circle cx="1116" cy="484" r="8" class="c0"/>
<circle cx="854" cy="118" r="8" class="c0"/>
<circle cx="1176" cy="788" r="8" class="c0"/>
<circle cx="1030" cy="1312" r="8" class="c0"/>
<circle cx="1002" cy="618" r="8" class="c0"/>
<circle cx="918" cy="562" r="8" class="c0"/>
<circle cx="904" cy="496" r="8" class="c0"/>
<circle cx="848" cy="1206" r="8" class="c0"/>
<circle cx="944" cy="1250" r="8" class="c0"/>
<circle cx="906" cy="454" r="8" class="c0"/>
<circle cx="852" cy="1398" r="8" class="c0"/>
<circle cx="916" cy="1278" r="8" class="c0"/>
<circle cx="936" cy="194" r="8" class="c0"/>
<circle cx="844" cy="612" r="8" class="c0"/>
<circle cx="990" cy="246" r="8" class="c0"/>
<circle cx="986" cy="1056" r="8" class="c0"/>
<circle cx="1036" cy="468" r="8" class="c0"/>
<circle cx="1086" cy="716" r="8" class="c0"/>
<circle cx="1192" cy="828" r="8" class="c0"/>
<circle cx="950" cy="1166" r="8" class="c0"/>
<circle cx="966" cy="192" r="8" class="c0"/>
<circle cx="974" cy="474" r="8" class="c0"/>
<circle cx="884" cy="1140" r="8" class="c0"/>
<circle cx="1020" cy="946" r="8" class="c0"/>
<circle cx="1062" cy="498" r="8" class="c0"/>
<circle cx="1150" cy="544" r="8" class="c0"/>
<circle cx="1026" cy="1220" r="8" class="c0"/>
<circle cx="1084" cy="1024" r="8" class="c0"/>
<circle cx="872" cy="686" r="8" class="c0"/>
<circle cx="1070" cy="1136" r="8" class="c0"/>
<circle cx="1186" cy="708" r="8" class="c0"/>
<circle cx="854" cy="1272" r="8" class="c0"/>
<circle cx="868" cy="394" r="8" class="c0"/>
<circle cx="1032" cy="1252" r="8" class="c0"/>
<circle cx="1012" cy="1346" r="8" class="c0"/>
<circle cx="1018" cy="982" r="8" class="c0"/>
<circle cx="822" cy="1238" r="8" class="c0"/>
<circle cx="930" cy="1406" r="8" class="c0"/>
<circle cx="788" cy="294" r="8" class="c0"/>
<circle cx="882" cy="630" r="8" class="c0"/>
<circle cx="886" cy="1120" r="8" class="c0"/>
<circle cx="982" cy="364" r="8" class="c0"/>
<circle cx="840" cy="1106" r="8" class="c0"/>
<circle cx="1094" cy="1414" r="8" class="c0"/>
<circle cx="1008" cy="764" r="8" class="c0"/>
<circle cx="1038" cy="412" r="8" class="c0"/>
<circle cx="822" cy="260" r="8" class="c0"/>
<circle cx="916" cy="440" r="8" class="c0"/>
<circle cx="1142" cy="738" r="8" class="c0"/>
<circle cx="840" cy="658" r="8" class="c0"/>
<circle cx="1056" cy="722" r="8" class="c0"/>
<circle cx="878" cy="592" r="8" class="c0"/>
<circle cx="806" cy="304" r="8" class="c0"/>
<circle cx="900" cy="152" r="8" class="c0"/>
<circle cx="884" cy="496" r="8" class="c0"/>
<circle cx="980" cy="682" r="8" class="c0"/>
<circle cx="966" cy="1314" r="8" class="c0"/>
<circle cx="1168" cy="666" r="8" class="c0"/>
<circle cx="918" cy="268" r="8" class="c0"/>
<circle cx="896" cy="562" r="8" class="c0"/>
<circle cx="984" cy="218" r="8" class="c0"/>
<circle cx="1078" cy="602" r="8" class="c0"/>
<circle cx="1096" cy="1338" r="8" class="c0"/>
<circle cx="1034" cy="812" r="8" class="c0"/>
<circle cx="882" cy="242" r="8" class="c0"/>
<circle cx="1022" cy="376" r="8" class="c0"/>
<circle cx="960" cy="716" r="8" class="c0"/>
<circle cx="1056" cy="420" r="8" class="c0"/>
<circle cx="866" cy="204" r="8" class="c0"/>
<circle cx="944" cy="852" r="8" class="c0"/>
<circle cx="960" cy="876" r="8" class="c0"/>
<circle cx="876" cy="754" r="8" class="c0"/>
<circle cx="1102" cy="604" r="8" class="c0"/>
<circle cx="1132" cy="792" r="8" class="c0"/>
<circle cx="920" cy="1394" r="8" class="c0"/>
<circle cx="828" cy="1190" r="8" class="c0"/>
<circle cx="812" cy="226" r="8" class="c0"/>
<circle cx="936" cy="266" r="8" class="c0"/>
<circle cx="942" cy="1034" r="8" class="c0"/>
<circle cx="1042" cy="1192" r="8" class="c0"/>
<circle cx="926" cy="528" r="8" class="c0"/>
<circle cx="1062" cy="648" r="8" class="c0"/>
<circle cx="1198" cy="774" r="8" class="c0"/>
<circle cx="934" cy="1178" r="8" class="c0"/>
<circle cx="902" cy="186" r="8" class="c0"/>
<circle cx="1012" cy="1276" r="8" class="c0"/>
<circle cx="766" cy="324" r="8" class="c0"/>
<circle cx="1010" cy="414" r="8" class="c0"/>
<circle cx="1048" cy="358" r="8" class="c0"/>
<circle cx="920" cy="582" r="8" class="c0"/>
<circle cx="994" cy="508" r="8" class="c0"/>
<circle cx="986" cy="792" r="8" class="c0"/>
<circle cx="1152" cy="752" r="8" class="c0"/>
<circle cx="938" cy="758" r="8" class="c0"/>
<circle cx="860" cy="1224" r="8" class="c0"/>
<circle cx="854" cy="1326" r="8" class="c0"/>
<circle cx="1030" cy="648" r="8" class="c0"/>
<circle cx="932" cy="926" r="8" class="c0"/>
<circle cx="1166" cy="798" r="8" class="c0"/>
<circle cx="1108" cy="810" r="8" class="c0"/>
<circle cx="942" cy="242" r="8" class="c0"/>
<circle cx="1060" cy="1288" r="8" class="c0"/>
<circle cx="880" cy="1094" r="8" class="c0"/>
<circle cx="888" cy="832" r="8" class="c0"/>
<circle cx="1048" cy="1076" r="8" class="c0"/>
<circle cx="854" cy="914" r="8" class="c0"/>
<circle cx="996" cy="1172" r="8" class="c0"/>
<circle cx="956" cy="1116" r="8" class="c0"/>
<circle cx="970" cy="1420" r="8" class="c0"/>
<circle cx="1092" cy="1216" r="8" class="c0"/>
<circle cx="1018" cy="1396" r="8" class="c0"/>
<circle cx="936" cy="1014" r="8" class="c0"/>
<circle cx="1014" cy="672" r="8" class="c0"/>
<circle cx="964" cy="670" r="8" class="c0"/>
<circle cx="1130" cy="504" r="8" class="c0"/>
<circle cx="914" cy="894" r="8" class="c0"/>
<circle cx="1084" cy="424" r="8" class="c0"/>
<circle cx="832" cy="370" r="8" class="c0"/>
<circle cx="1098" cy="1294" r="8" class="c0"/>
<circle cx="934" cy="212" r="8" class="c0"/>
<circle cx="960" cy="556" r="8" class="c0"/>
<circle cx="1162" cy="560" r="8" class="c0"/>
<circle cx="974" cy="922" r="8" class="c0"/>
<circle cx="846" cy="724" r="8" class="c0"/>
<circle cx="1062" cy="460" r="8" class="c0"/>
<circle cx="838" cy="102" r="6" class="c0"/>
<circle cx="964" cy="986" r="6" class="c0"/>
<circle cx="1008" cy="924" r="6" class="c0"/>
<circle cx="948" cy="1388" r="6" class="c0"/>
<circle cx="866" cy="904" r="6" class="c0"/>
<circle cx="886" cy="1338" r="6" class="c0"/>
<circle cx="916" cy="1198" r="6" class="c0"/>
<circle cx="950" cy="480" r="6" class="c0"/>
<circle cx="1070" cy="890" r="6" class="c0"/>
<circle cx="1078" cy="756" r="6" class="c0"/>
<circle cx="850" cy="678" r="6" class="c0"/>
<circle cx="962" cy="958" r="6" class="c0"/>
<circle cx="930" cy="1046" r="6" class="c0"/>
<circle cx="944" cy="950" r="6" class="c0"/>
<circle cx="874" cy="486" r="6" class="c0"/>
<circle cx="822" cy="298" r="6" class="c0"/>
<circle cx="1004" cy="974" r="6" class="c0"/>
<circle cx="1052" cy="808" r="6" class="c0"/>
<circle cx="952" cy="610" r="6" class="c0"/>
<circle cx="794" cy="190" r="6" class="c0"/>
<circle cx="994" cy="318" r="6" class="c0"/>
<circle cx="1084" cy="700" r="6" class="c0"/>
<circle cx="864" cy="620" r="6" class="c0"/>
<circle cx="1032" cy="552" r="6" class="c0"/>
<circle cx="1162" cy="618" r="6" class="c0"/>
<circle cx="876" cy="892" r="6" class="c0"/>
<circle cx="836" cy="308" r="6" class="c0"/>
<circle cx="996" cy="1350" r="6" class="c0"/>
<circle cx="960" cy="492" r="6" class="c0"/>
<circle cx="944" cy="456" r="6" class="c0"/>
<circle cx="962" cy="292" r="6" class="c0"/>
<circle cx="1048" cy="490" r="6" class="c0"/>
<circle cx="1028" cy="1152" r="6" class="c0"/>
<circle cx="1068" cy="592" r="6" class="c0"/>
<circle cx="1034" cy="1414" r="6" class="c0"/>
<circle cx="910" cy="162" r="6" class="c0"/>
<circle cx="1078" cy="1090" r="6" class="c0"/>
<circle cx="1096" cy="464" r="6" class="c0"/>
<circle cx="968" cy="1378" r="6" class="c0"/>
<circle cx="1060" cy="582" r="6" class="c0"/>
<circle cx="920" cy="752" r="6" class="c0"/>
<circle cx="1106" cy="528" r="6" class="c0"/>
<circle cx="936" cy="792" r="6" class="c0"/>
<circle cx="900" cy="1296" r="6" class="c0"/>
<circle cx="952" cy="656" r="6" class="c0"/>
<circle cx="1000" cy="292" r="6" class="c0"/>
<circle cx="982" cy="262" r="6" class="c0"/>
<circle cx="1002" cy="310" r="6" class="c0"/>
<circle cx="1000" cy="1128" r="6" class="c0"/>
<circle cx="1024" cy="1238" r="6" class="c0"/>
<circle cx="892" cy="666" r="6" class="c0"/>
<circle cx="990" cy="862" r="6" class="c0"/>
<circle cx="1036" cy="288" r="6" class="c0"/>
<circle cx="1034" cy="1064" r="6" class="c0"/>
<circle cx="852" cy="570" r="6" class="c0"/>
<circle cx="920" cy="988" r="6" class="c0"/>
<circle cx="1044" cy="1326" r="6" class="c0"/>
<circle cx="1072" cy="1394" r="6" class="c0"/>
<circle cx="1094" cy="1312" r="6" class="c0"/>
<circle cx="994" cy="1384" r="6" class="c0"/>
<circle cx="890" cy="352" r="6" class="c0"/>
<circle cx="930" cy="330" r="6" class="c0"/>
<circle cx="1042" cy="1430" r="6" class="c0"/>
<circle cx="982" cy="590" r="6" class="c0"/>
<circle cx="842" cy="1046" r="6" class="c0"/>
<circle cx="976" cy="516" r="6" class="c0"/>
<circle cx="868" cy="642" r="6" class="c0"/>
<circle cx="1094" cy="1164" r="6" class="c0"/>
<circle cx="958" cy="526" r="6" class="c0"/>
<circle cx="984" cy="454" r="6" class="c0"/>
<circle cx="1078" cy="918" r="6" class="c0"/>
<circle cx="832" cy="624" r="6" class="c0"/>
<circle cx="816" cy="1398" r="6" class="c0"/>
<circle cx="856" cy="1430" r="6" class="c0"/>
<circle cx="1042" cy="980" r="6" class="c0"/>
<circle cx="1062" cy="668" r="6" class="c0"/>
<circle cx="1050" cy="850" r="6" class="c0"/>
<circle cx="934" cy="468" r="6" class="c0"/>
<circle cx="1092" cy="748" r="6" class="c0"/>
<circle cx="1096" cy="1196" r="6" class="c0"/>
<circle cx="1062" cy="1086" r="6" class="c0"/>
<circle cx="1096" cy="1358" r="6" class="c0"/>
<circle cx="944" cy="518" r="6" class="c0"/>
<circle cx="1028" cy="1288" r="6" class="c0"/>
<circle cx="866" cy="968" r="6" class="c0"/>
<circle cx="1058" cy="342" r="6" class="c0"/>
<circle cx="884" cy="288" r="6" class="c0"/>
<circle cx="1084" cy="580" r="6" class="c0"/>
<circle cx="1116" cy="778" r="6" class="c0"/>
<circle cx="972" cy="618" r="6" class="c0"/>
<circle cx="906" cy="552" r="6" class="c0"/>
<circle cx="956" cy="920" r="6" class="c0"/>
<circle cx="898" cy="1106" r="6" class="c0"/>
<circle cx="1052" cy="476" r="6" class="c0"/>
<circle cx="1000" cy="272" r="6" class="c0"/>
<circle cx="856" cy="1294" r="6" class="c0"/>
<circle cx="1116" cy="668" r="6" class="c0"/>
<circle cx="1094" cy="536" r="6" class="c0"/>
<circle cx="798" cy="346" r="6" class="c0"/>
<circle cx="1106" cy="742" r="6" class="c0"/>
<circle cx="1164" cy="586" r="6" class="c0"/>
<circle cx="1080" cy="996" r="6" class="c0"/>
<circle cx="1038" cy="368" r="6" class="c0"/>
<circle cx="828" cy="1340" r="6" class="c0"/>
<circle cx="1068" cy="392" r="6" class="c0"/>
<circle cx="848" cy="384" r="6" class="c0"/>
<circle cx="986" cy="938" r="6" class="c0"/>
<circle cx="970" cy="782" r="6" class="c0"/>
<circle cx="1118" cy="820" r="6" class="c0"/>
<circle cx="916" cy="878" r="6" class="c0"/>
<circle cx="918" cy="362" r="6" class="c0"/>
<circle cx="1016" cy="782" r="6" class="c0"/>
<circle cx="944" cy="280" r="6" class="c0"/>
<circle cx="972" cy="284" r="6" class="c0"/>
<circle cx="1144" cy="590" r="6" class="c0"/>
<circle cx="1084" cy="968" r="6" class="c0"/>
<circle cx="922" cy="1028" r="6" class="c0"/>
<circle cx="950" cy="684" r="6" class="c0"/>
<circle cx="1026" cy="576" r="6" class="c0"/>
<circle cx="868" cy="420" r="6" class="c0"/>
<circle cx="1104" cy="456" r="6" class="c0"/>
<circle cx="1046" cy="1004" r="6" class="c0"/>
<circle cx="992" cy="732" r="6" class="c0"/>
<circle cx="934" cy="564" r="6" class="c0"/>
<circle cx="886" cy="1430" r="6" class="c0"/>
<circle cx="976" cy="968" r="6" class="c0"/>
<circle cx="828" cy="604" r="6" class="c0"/>
<circle cx="886" cy="274" r="6" class="c0"/>
<circle cx="810" cy="242" r="6" class="c0"/>
<circle cx="832" cy="230" r="6" class="c0"/>
<circle cx="1060" cy="1432" r="6" class="c0"/>
<circle cx="812" cy="132" r="6" class="c0"/>
<circle cx="1152" cy="778" r="6" class="c0"/>
<circle cx="938" cy="1380" r="6" class="c0"/>
<circle cx="1064" cy="868" r="6" class="c0"/>
<circle cx="860" cy="410" r="6" class="c0"/>
<circle cx="926" cy="456" r="6" class="c0"/>
<circle cx="976" cy="412" r="6" class="c0"/>
<circle cx="850" cy="972" r="6" class="c0"/>
<circle cx="1080" cy="618" r="6" class="c0"/>
<circle cx="882" cy="1168" r="6" class="c0"/>
<circle cx="928" cy="980" r="6" class="c0"/>
<circle cx="768" cy="340" r="6" class="c0"/>
<circle cx="918" cy="1176" r="6" class="c0"/>
<circle cx="1062" cy="1362" r="6" class="c0"/>
<circle cx="1144" cy="522" r="6" class="c0"/>
<circle cx="1040" cy="842" r="6" class="c0"/>
<circle cx="870" cy="1366" r="6" class="c0"/>
<circle cx="1088" cy="988" r="6" class="c0"/>
<circle cx="1136" cy="814" r="6" class="c0"/>
<circle cx="858" cy="858" r="6" class="c0"/>
<circle cx="1072" cy="724" r="6" class="c0"/>
<circle cx="890" cy="380" r="6" class="c0"/>
<circle cx="1002" cy="1062" r="6" class="c0"/>
<circle cx="858" cy="1108" r="6" class="c0"/>
<circle cx="1014" cy="340" r="6" class="c0"/>
<circle cx="1088" cy="802" r="6" class="c0"/>
<circle cx="876" cy="176" r="6" class="c0"/>
<circle cx="1032" cy="1084" r="6" class="c0"/>
<circle cx="988" cy="1236" r="6" class="c0"/>
<circle cx="810" cy="1308" r="6" class="c0"/>
<circle cx="890" cy="140" r="6" class="c0"/>
<circle cx="882" cy="656" r="6" class="c0"/>
<circle cx="1190" cy="858" r="6" class="c0"/>
<circle cx="1000" cy="682" r="6" class="c0"/>
<circle cx="846" cy="174" r="6" class="c0"/>
<circle cx="918" cy="860" r="6" class="c0"/>
<circle cx="966" cy="534" r="6" class="c0"/>
<circle cx="1066" cy="436" r="6" class="c0"/>
<circle cx="1048" cy="1248" r="6" class="c0"/>
<circle cx="952" cy="356" r="6" class="c0"/>
<circle cx="794" cy="238" r="6" class="c0"/>
<circle cx="942" cy="722" r="6" class="c0"/>
<circle cx="1026" cy="268" r="6" class="c0"/>
<circle cx="854" cy="894" r="6" class="c0"/>
<circle cx="920" cy="1432" r="6" class="c0"/>
<circle cx="1026" cy="1008" r="6" class="c0"/>
<circle cx="982" cy="1206" r="6" class="c0"/>
<circle cx="1044" cy="1290" r="6" class="c0"/>
<circle cx="1058" cy="1120" r="6" class="c0"/>
<circle cx="896" cy="1068" r="6" class="c0"/>
<circle cx="1068" cy="954" r="6" class="c0"/>
<circle cx="1096" cy="1274" r="6" class="c0"/>
<circle cx="988" cy="1110" r="6" class="c0"/>
<circle cx="876" cy="1388" r="6" class="c0"/>
<circle cx="836" cy="1432" r="6" class="c0"/>
<circle cx="976" cy="832" r="6" class="c0"/>
<circle cx="1060" cy="404" r="6" class="c0"/>
<circle cx="1102" cy="728" r="6" class="c0"/>
<circle cx="930" cy="1194" r="6" class="c0"/>
<circle cx="928" cy="280" r="6" class="c0"/>
<circle cx="1070" cy="1300" r="6" class="c0"/>
<circle cx="974" cy="1254" r="6" class="c0"/>
<circle cx="1058" cy="1240" r="6" class="c0"/>
<circle cx="880" cy="430" r="6" class="c0"/>
<circle cx="884" cy="1024" r="6" class="c0"/>
<circle cx="986" cy="1298" r="6" class="c0"/>
<circle cx="980" cy="702" r="6" class="c0"/>
<circle cx="894" cy="732" r="6" class="c0"/>
<circle cx="836" cy="1060" r="6" class="c0"/>
<circle cx="1056" cy="1332" r="6" class="c0"/>
<circle cx="894" cy="440" r="6" class="c0"/>
<circle cx="892" cy="1014" r="6" class="c0"/>
<circle cx="844" cy="208" r="6" class="c0"/>
<circle cx="966" cy="1210" r="6" class="c0"/>
<circle cx="902" cy="304" r="6" class="c0"/>
<circle cx="1012" cy="516" r="6" class="c0"/>
<circle cx="918" cy="318" r="6" class="c0"/>
<circle cx="934" cy="1276" r="6" class="c0"/>
<circle cx="1102" cy="1432" r="6" class="c0"/>
<circle cx="826" cy="1154" r="6" class="c0"/>
<circle cx="1070" cy="1190" r="6" class="c0"/>
<circle cx="984" cy="1430" r="6" class="c0"/>
<circle cx="938" cy="1136" r="6" class="c0"/>
<circle cx="934" cy="1084" r="6" class="c0"/>
<circle cx="1076" cy="572" r="6" class="c0"/>
<circle cx="990" cy="1370" r="6" class="c0"/>
<circle cx="784" cy="310" r="6" class="c0"/>
<circle cx="902" cy="1134" r="6" class="c0"/>
<circle cx="848" cy="1256" r="6" class="c0"/>
<circle cx="1052" cy="1370" r="6" class="c0"/>
<circle cx="908" cy="1206" r="6" class="c0"/>
<circle cx="960" cy="1100" r="6" class="c0"/>
<circle cx="934" cy="1240" r="6" class="c0"/>
<circle cx="944" cy="800" r="6" class="c0"/>
<circle cx="1106" cy="792" r="6" class="c0"/>
<circle cx="1056" cy="376" r="6" class="c0"/>
<circle cx="918" cy="292" r="6" class="c0"/>
<circle cx="1002" cy="870" r="6" class="c0"/>
<circle cx="1092" cy="786" r="6" class="c0"/>
<circle cx="1182" cy="838" r="6" class="c0"/>
<circle cx="962" cy="844" r="6" class="c0"/>
<circle cx="916" cy="918" r="6" class="c0"/>
<circle cx="898" cy="792" r="6" class="c0"/>
<circle cx="962" cy="398" r="6" class="c0"/>
<circle cx="1190" cy="672" r="6" class="c0"/>
<circle cx="982" cy="438" r="6" class="c0"/>
<circle cx="968" cy="1020" r="6" class="c0"/>
<circle cx="906" cy="626" r="6" class="c0"/>
<circle cx="900" cy="1234" r="6" class="c0"/>
<circle cx="942" cy="642" r="6" class="c0"/>
<circle cx="1018" cy="1260" r="6" class="c0"/>
<circle cx="1134" cy="602" r="6" class="c0"/>
<circle cx="944" cy="888" r="6" class="c0"/>
<circle cx="926" cy="778" r="6" class="c0"/>
<circle cx="1020" cy="304" r="6" class="c0"/>
<circle cx="984" cy="200" r="6" class="c0"/>
<circle cx="1014" cy="860" r="6" class="c0"/>
<circle cx="966" cy="606" r="6" class="c0"/>
<circle cx="876" cy="258" r="6" class="c0"/>
<circle cx="876" cy="512" r="6" class="c0"/>
<circle cx="1038" cy="1208" r="6" class="c0"/>
<circle cx="1030" cy="1336" r="6" class="c0"/>
<circle cx="1016" cy="708" r="6" class="c0"/>
<circle cx="944" cy="226" r="6" class="c0"/>
<circle cx="952" cy="184" r="6" class="c0"/>
<circle cx="984" cy="1036" r="6" class="c0"/>
<circle cx="904" cy="218" r="6" class="c0"/>
<circle cx="898" cy="370" r="6" class="c0"/>
<circle cx="848" cy="322" r="6" class="c0"/>
<circle cx="1090" cy="484" r="6" class="c0"/>
<circle cx="960" cy="648" r="6" class="c0"/>
<circle cx="1192" cy="690" r="6" class="c0"/>
<circle cx="926" cy="1288" r="6" class="c0"/>
<circle cx="878" cy="154" r="6" class="c0"/>
<circle cx="962" cy="1402" r="6" class="c0"/>
<circle cx="1074" cy="658" r="6" class="c0"/>
<circle cx="978" cy="774" r="6" class="c0"/>
<circle cx="958" cy="238" r="6" class="c0"/>
<circle cx="972" cy="1148" r="6" class="c0"/>
<circle cx="868" cy="356" r="6" class="c0"/>
<circle cx="1030" cy="1118" r="6" class="c0"/>
<circle cx="886" cy="742" r="6" class="c0"/>
<circle cx="1160" cy="650" r="6" class="c0"/>
<circle cx="1050" cy="326" r="6" class="c0"/>
<circle cx="846" cy="156" r="6" class="c0"/>
<circle cx="880" cy="970" r="6" class="c0"/>
<circle cx="894" cy="752" r="6" class="c0"/>
<circle cx="1082" cy="1404" r="6" class="c0"/>
<circle cx="870" cy="788" r="6" class="c0"/>
<circle cx="964" cy="1332" r="6" class="c0"/>
<circle cx="874" cy="1332" r="6" class="c0"/>
<circle cx="988" cy="1074" r="6" class="c0"/>
<circle cx="1022" cy="922" r="6" class="c0"/>
<circle cx="1084" cy="1202" r="6" class="c0"/>
<circle cx="920" cy="1416" r="6" class="c0"/>
<circle cx="1098" cy="444" r="6" class="c0"/>
<circle cx="986" cy="536" r="6" class="c0"/>
<circle cx="1048" cy="708" r="6" class="c0"/>
<circle cx="1186" cy="626" r="6" class="c0"/>
<circle cx="782" cy="336" r="6" class="c0"/>
<circle cx="970" cy="456" r="6" class="c0"/>
<circle cx="906" cy="572" r="6" class="c0"/>
<circle cx="1064" cy="610" r="6" class="c0"/>
<circle cx="968" cy="730" r="6" class="c0"/>
<circle cx="930" cy="1322" r="6" class="c0"/>
<circle cx="1026" cy="422" r="6" class="c0"/>
<circle cx="1064" cy="970" r="6" class="c0"/>
<circle cx="972" cy="814" r="6" class="c0"/>
<circle cx="1002" cy="1266" r="6" class="c0"/>
<circle cx="1068" cy="708" r="6" class="c0"/>
<circle cx="926" cy="254" r="6" class="c0"/>
<circle cx="950" cy="444" r="6" class="c0"/>
<circle cx="858" cy="1016" r="6" class="c0"/>
<circle cx="1012" cy="966" r="6" class="c0"/>
<circle cx="972" cy="1342" r="6" class="c0"/>
<circle cx="894" cy="578" r="6" class="c0"/>
<circle cx="960" cy="1156" r="6" class="c0"/>
<circle cx="870" cy="376" r="6" class="c0"/>
<circle cx="930" cy="1302" r="6" class="c0"/>
<circle cx="1036" cy="1162" r="6" class="c0"/>
<circle cx="968" cy="892" r="6" class="c0"/>
<circle cx="1170" cy="574" r="6" class="c0"/>
<circle cx="1158" cy="680" r="6" class="c0"/>
<circle cx="1002" cy="832" r="6" class="c0"/>
<circle cx="1020" cy="356" r="6" class="c0"/>
<circle cx="1078" cy="902" r="6" class="c0"/>
<circle cx="1098" cy="1238" r="6" class="c0"/>
<circle cx="822" cy="658" r="6" class="c0"/>
<circle cx="1198" cy="812" r="6" class="c0"/>
<circle cx="874" cy="956" r="6" class="c0"/>
<circle cx="958" cy="1430" r="6" class="c0"/>
<circle cx="984" cy="1182" r="6" class="c0"/>
<circle cx="1100" cy="1372" r="6" class="c0"/>
<circle cx="872" cy="1432" r="6" class="c0"/>
<circle cx="1012" cy="608" r="6" class="c0"/>
<circle cx="1084" cy="1304" r="6" class="c0"/>
<circle cx="1036" cy="588" r="6" class="c0"/>
<circle cx="828" cy="1116" r="6" class="c0"/>
<circle cx="1000" cy="936" r="6" class="c0"/>
<circle cx="1054" cy="620" r="6" class="c0"/>
<circle cx="864" cy="494" r="6" class="c0"/>
<circle cx="824" cy="238" r="6" class="c0"/>
<circle cx="838" cy="120" r="6" class="c0"/>
<circle cx="856" cy="842" r="6" class="c0"/>
<circle cx="868" cy="1138" r="6" class="c0"/>
<circle cx="906" cy="950" r="6" class="c0"/>
<circle cx="1198" cy="748" r="6" class="c0"/>
<circle cx="1116" cy="834" r="6" class="c0"/>
<circle cx="1044" cy="688" r="6" class="c0"/>
<circle cx="894" cy="394" r="6" class="c0"/>
<circle cx="1090" cy="592" r="6" class="c0"/>
<circle cx="1052" cy="508" r="6" class="c0"/>
<circle cx="830" cy="1406" r="6" class="c0"/>
<circle cx="1012" cy="688" r="6" class="c0"/>
<circle cx="1088" cy="1008" r="6" class="c0"/>
<circle cx="1072" cy="816" r="6" class="c0"/>
<circle cx="890" cy="894" r="6" class="c0"/>
<circle cx="912" cy="726" r="6" class="c0"/>
<circle cx="842" cy="1014" r="6" class="c0"/>
<circle cx="834" cy="402" r="6" class="c0"/>
<circle cx="992" cy="710" r="6" class="c0"/>
<circle cx="844" cy="530" r="6" class="c0"/>
</svg>
