<?xml version="1.0" encoding="utf-8"?>
<svg xmlns="http://www.w3.org/2000/svg"
     xmlns:xlink="http://www.w3.org/1999/xlink" width="1920" height="1440" >

            <defs>
            <style type="text/css"><![CDATA[
circle {stroke: none;}
.c0 {fill: #FFFFFF;}
]]></style>
            </defs>
<rect x="0" y="0" width="1920" height="1440" fill="black"/>
<circle cx="818" cy="660" r="14" class="c0"/>
<circle cx="1084" cy="536" r="14" class="c0"/>
<circle cx="920" cy="1416" r="12" class="c0"/>
<circle cx="968" cy="1092" r="12" class="c0"/>
<circle cx="952" cy="422" r="12" class="c0"/>
<circle cx="1086" cy="1412" r="12" class="c0"/>
<circle cx="1092" cy="782" r="12" class="c0"/>
<circle cx="982" cy="1184" r="12" class="c0"/>
<circle cx="1052" cy="1080" r="12" class="c0"/>
<circle cx="1028" cy="1146" r="12" class="c0"/>
<circle cx="848" cy="404" r="12" class="c0"/>
<circle cx="872" cy="890" r="12" class="c0"/>
<circle cx="1084" cy="1028" r="12" class="c0"/>
<circle cx="874" cy="1232" r="12" class="c0"/>
<circle cx="870" cy="1386" r="12" class="c0"/>
<circle cx="874" cy="1330" r="12" class="c0"/>
<circle cx="992" cy="700" r="12" class="c0"/>
<circle cx="864" cy="1356" r="12" class="c0"/>
<circle cx="822" cy="354" r="12" class="c0"/>
<circle cx="956" cy="288" r="12" class="c0"/>
<circle cx="914" cy="1124" r="12" class="c0"/>
<circle cx="1068" cy="610" r="12" class="c0"/>
<circle cx="1026" cy="1096" r="12" class="c0"/>
<circle cx="910" cy="1282" r="12" class="c0"/>
<circle cx="824" cy="1402" r="12" class="c0"/>
<circle cx="972" cy="752" r="12" class="c0"/>
<circle cx="1116" cy="654" r="12" class="c0"/>
<circle cx="1032" cy="1396" r="12" class="c0"/>
<circle cx="1000" cy="1418" r="12" class="c0"/>
<circle cx="940" cy="472" r="12" class="c0"/>
<circle cx="1000" cy="1338" r="12" class="c0"/>
<circle cx="798" cy="342" r="12" class="c0"/>
<circle cx="824" cy="274" r="12" class="c0"/>
<circle cx="1022" cy="1290" r="12" class="c0"/>
<circle cx="1022" cy="318" r="12" class="c0"/>
<circle cx="1046" cy="568" r="12" class="c0"/>
<circle cx="912" cy="802" r="12" class="c0"/>
<circle cx="1026" cy="718" r="12" class="c0"/>
<circle cx="1022" cy="648" r="12" class="c0"/>
<circle cx="894" cy="1014" r="12" class="c0"/>
<circle cx="916" cy="234" r="12" class="c0"/>
<circle cx="864" cy="1006" r="12" class="c0"/>
<circle cx="1064" cy="848" r="12" class="c0"/>
<circle cx="1022" cy="1322" r="12" class="c0"/>
<circle cx="978" cy="374" r="12" class="c0"/>
<circle cx="924" cy="1004" r="12" class="c0"/>
<circle cx="1034" cy="1042" r="12" class="c0"/>
<circle cx="1052" cy="796" r="12" class="c0"/>
<circle cx="794" cy="374" r="12" class="c0"/>
<circle cx="1122" cy="818" r="12" class="c0"/>
<circle cx="848" cy="114" r="12" class="c0"/>
<circle cx="890" cy="554" r="12" class="c0"/>
<circle cx="858" cy="1138" r="12" class="c0"/>
<circle cx="860" cy="1048" r="12" class="c0"/>
<circle cx="984" cy="1028" r="12" class="c0"/>
<circle cx="954" cy="1184" r="12" class="c0"/>
<circle cx="808" cy="1372" r="12" class="c0"/>
<circle cx="1076" cy="510" r="12" class="c0"/>
<circle cx="972" cy="1308" r="12" class="c0"/>
<circle cx="1106" cy="708" r="12" class="c0"/>
<circle cx="942" cy="794" r="10" class="c0"/>
<circle cx="956" cy="850" r="10" class="c0"/>
<circle cx="856" cy="268" r="10" class="c0"/>
<circle cx="916" cy="1184" r="10" class="c0"/>
<circle cx="950" cy="984" r="10" class="c0"/>
<circle cx="1002" cy="530" r="10" class="c0"/>
<circle cx="924" cy="308" r="10" class="c0"/>
<circle cx="898" cy="636" r="10" class="c0"/>
<circle cx="836" cy="304" r="10" class="c0"/>
<circle cx="938" cy="1252" r="10" class="c0"/>
<circle cx="960" cy="804" r="10" class="c0"/>
<circle cx="972" cy="882" r="10" class="c0"/>
<circle cx="950" cy="220" r="10" class="c0"/>
<circle cx="896" cy="1206" r="10" class="c0"/>
<circle cx="1154" cy="802" r="10" class="c0"/>
<circle cx="948" cy="600" r="10" class="c0"/>
<circle cx="1088" cy="1360" r="10" class="c0"/>
<circle cx="810" cy="306" r="10" class="c0"/>
<circle cx="878" cy="746" r="10" class="c0"/>
<circle cx="936" cy="836" r="10" class="c0"/>
<circle cx="878" cy="156" r="10" class="c0"/>
<circle cx="1076" cy="424" r="10" class="c0"/>
<circle cx="982" cy="676" r="10" class="c0"/>
<circle cx="890" cy="940" r="10" class="c0"/>
<circle cx="1112" cy="592" r="10" class="c0"/>
<circle cx="1030" cy="974" r="10" class="c0"/>
<circle cx="830" cy="734" r="10" class="c0"/>
<circle cx="970" cy="494" r="10" class="c0"/>
<circle cx="982" cy="306" r="10" class="c0"/>
<circle cx="880" cy="620" r="10" class="c0"/>
<circle cx="1046" cy="342" r="10" class="c0"/>
<circle cx="840" cy="646" r="10" class="c0"/>
<circle cx="896" cy="1362" r="10" class="c0"/>
<circle cx="938" cy="324" r="10" class="c0"/>
<circle cx="1018" cy="754" r="10" class="c0"/>
<circle cx="976" cy="938" r="10" class="c0"/>
<circle cx="982" cy="340" r="10" class="c0"/>
<circle cx="876" cy="374" r="10" class="c0"/>
<circle cx="920" cy="922" r="10" class="c0"/>
<circle cx="1112" cy="738" r="10" class="c0"/>
<circle cx="1156" cy="748" r="10" class="c0"/>
<circle cx="1024" cy="1266" r="10" class="c0"/>
<circle cx="1064" cy="1404" r="10" class="c0"/>
<circle cx="940" cy="564" r="10" class="c0"/>
<circle cx="960" cy="664" r="10" class="c0"/>
<circle cx="1062" cy="740" r="10" class="c0"/>
<circle cx="906" cy="408" r="10" class="c0"/>
<circle cx="1066" cy="984" r="10" class="c0"/>
<circle cx="986" cy="822" r="10" class="c0"/>
<circle cx="918" cy="892" r="10" class="c0"/>
<circle cx="966" cy="436" r="10" class="c0"/>
<circle cx="858" cy="782" r="10" class="c0"/>
<circle cx="792" cy="234" r="10" class="c0"/>
<circle cx="864" cy="306" r="10" class="c0"/>
<circle cx="966" cy="354" r="10" class="c0"/>
<circle cx="852" cy="152" r="10" class="c0"/>
<circle cx="886" cy="786" r="10" class="c0"/>
<circle cx="852" cy="348" r="10" class="c0"/>
<circle cx="880" cy="244" r="10" class="c0"/>
<circle cx="916" cy="1392" r="10" class="c0"/>
<circle cx="1046" cy="1018" r="10" class="c0"/>
<circle cx="996" cy="1286" r="10" class="c0"/>
<circle cx="916" cy="198" r="10" class="c0"/>
<circle cx="956" cy="626" r="10" class="c0"/>
<circle cx="1058" cy="634" r="10" class="c0"/>
<circle cx="872" cy="212" r="10" class="c0"/>
<circle cx="1014" cy="430" r="10" class="c0"/>
<circle cx="970" cy="994" r="10" class="c0"/>
<circle cx="898" cy="590" r="10" class="c0"/>
<circle cx="960" cy="576" r="10" class="c0"/>
<circle cx="938" cy="732" r="10" class="c0"/>
<circle cx="990" cy="612" r="10" class="c0"/>
<circle cx="982" cy="1242" r="10" class="c0"/>
<circle cx="1034" cy="1202" r="10" class="c0"/>
<circle cx="874" cy="400" r="10" class="c0"/>
<circle cx="902" cy="214" r="10" class="c0"/>
<circle cx="1112" cy="860" r="10" class="c0"/>
<circle cx="1050" cy="1350" r="10" class="c0"/>
<circle cx="930" cy="634" r="10" class="c0"/>
<circle cx="1160" cy="832" r="10" class="c0"/>
<circle cx="820" cy="148" r="10" class="c0"/>
<circle cx="1024" cy="688" r="10" class="c0"/>
<circle cx="826" cy="1272" r="10" class="c0"/>
<circle cx="1012" cy="840" r="10" class="c0"/>
<circle cx="918" cy="1354" r="10" class="c0"/>
<circle cx="1086" cy="876" r="10" class="c0"/>
<circle cx="826" cy="710" r="10" class="c0"/>
<circle cx="1074" cy="1108" r="10" class="c0"/>
<circle cx="946" cy="648" r="10" class="c0"/>
<circle cx="886" cy="298" r="10" class="c0"/>
<circle cx="924" cy="456" r="10" class="c0"/>
<circle cx="854" cy="444" r="10" class="c0"/>
<circle cx="792" cy="202" r="10" class="c0"/>
<circle cx="954" cy="506" r="10" class="c0"/>
<circle cx="1056" cy="438" r="10" class="c0"/>
<circle cx="1076" cy="1142" r="10" class="c0"/>
<circle cx="1154" cy="654" r="10" class="c0"/>
<circle cx="814" cy="238" r="10" class="c0"/>
<circle cx="1010" cy="484" r="10" class="c0"/>
<circle cx="1020" cy="810" r="10" class="c0"/>
<circle cx="824" cy="1194" r="10" class="c0"/>
<circle cx="822" cy="214" r="10" class="c0"/>
<circle cx="1054" cy="696" r="10" class="c0"/>
<circle cx="1006" cy="1132" r="10" class="c0"/>
<circle cx="874" cy="1154" r="10" class="c0"/>
<circle cx="842" cy="254" r="10" class="c0"/>
<circle cx="1014" cy="366" r="10" class="c0"/>
<circle cx="930" cy="1210" r="10" class="c0"/>
<circle cx="1036" cy="1000" r="10" class="c0"/>
<circle cx="1076" cy="468" r="10" class="c0"/>
<circle cx="902" cy="178" r="10" class="c0"/>
<circle cx="1158" cy="632" r="10" class="c0"/>
<circle cx="1098" cy="1286" r="10" class="c0"/>
<circle cx="934" cy="1096" r="10" class="c0"/>
<circle cx="972" cy="268" r="10" class="c0"/>
<circle cx="832" cy="188" r="10" class="c0"/>
<circle cx="912" cy="732" r="10" class="c0"/>
<circle cx="964" cy="1046" r="10" class="c0"/>
<circle cx="1052" cy="518" r="10" class="c0"/>
<circle cx="880" cy="990" r="10" class="c0"/>
<circle cx="866" cy="1184" r="10" class="c0"/>
<circle cx="994" cy="230" r="10" class="c0"/>
<circle cx="928" cy="370" r="10" class="c0"/>
<circle cx="1002" cy="786" r="10" class="c0"/>
<circle cx="864" cy="536" r="10" class="c0"/>
<circle cx="922" cy="554" r="10" class="c0"/>
<circle cx="988" cy="400" r="10" class="c0"/>
<circle cx="1076" cy="1180" r="10" class="c0"/>
<circle cx="920" cy="852" r="10" class="c0"/>
<circle cx="880" cy="914" r="10" class="c0"/>
<circle cx="1000" cy="588" r="10" class="c0"/>
<circle cx="1014" cy="906" r="10" class="c0"/>
<circle cx="894" cy="1114" r="10" class="c0"/>
<circle cx="950" cy="1398" r="10" class="c0"/>
<circle cx="964" cy="908" r="10" class="c0"/>
<circle cx="1096" cy="610" r="10" class="c0"/>
<circle cx="846" cy="678" r="10" class="c0"/>
<circle cx="924" cy="674" r="10" class="c0"/>
<circle cx="848" cy="1284" r="10" class="c0"/>
<circle cx="872" cy="592" r="10" class="c0"/>
<circle cx="844" cy="756" r="10" class="c0"/>
<circle cx="1148" cy="714" r="10" class="c0"/>
<circle cx="836" cy="1230" r="10" class="c0"/>
<circle cx="778" cy="324" r="10" class="c0"/>
<circle cx="904" cy="276" r="10" class="c0"/>
<circle cx="904" cy="694" r="10" class="c0"/>
<circle cx="968" cy="640" r="10" class="c0"/>
<circle cx="900" cy="748" r="10" class="c0"/>
<circle cx="772" cy="214" r="10" class="c0"/>
<circle cx="846" cy="1020" r="10" class="c0"/>
<circle cx="864" cy="632" r="10" class="c0"/>
<circle cx="846" cy="604" r="10" class="c0"/>
<circle cx="908" cy="1232" r="10" class="c0"/>
<circle cx="984" cy="776" r="10" class="c0"/>
<circle cx="906" cy="1152" r="10" class="c0"/>
<circle cx="978" cy="1214" r="10" class="c0"/>
<circle cx="770" cy="260" r="10" class="c0"/>
<circle cx="896" cy="346" r="10" class="c0"/>
<circle cx="836" cy="1368" r="10" class="c0"/>
<circle cx="852" cy="1258" r="10" class="c0"/>
<circle cx="852" cy="374" r="10" class="c0"/>
<circle cx="1072" cy="1054" r="10" class="c0"/>
<circle cx="864" cy="698" r="10" class="c0"/>
<circle cx="876" cy="848" r="10" class="c0"/>
<circle cx="942" cy="1230" r="10" class="c0"/>
<circle cx="960" cy="328" r="10" class="c0"/>
<circle cx="878" cy="1080" r="10" class="c0"/>
<circle cx="990" cy="738" r="10" class="c0"/>
<circle cx="1054" cy="936" r="10" class="c0"/>
<circle cx="1080" cy="1300" r="10" class="c0"/>
<circle cx="1016" cy="272" r="10" class="c0"/>
<circle cx="988" cy="546" r="10" class="c0"/>
<circle cx="888" cy="480" r="10" class="c0"/>
<circle cx="1000" cy="414" r="10" class="c0"/>
<circle cx="852" cy="968" r="10" class="c0"/>
<circle cx="920" cy="1058" r="10" class="c0"/>
<circle cx="1108" cy="518" r="10" class="c0"/>
<circle cx="1054" cy="542" r="10" class="c0"/>
<circle cx="812" cy="1324" r="10" class="c0"/>
<circle cx="898" cy="836" r="10" class="c0"/>
<circle cx="918" cy="650" r="10" class="c0"/>
<circle cx="1000" cy="1076" r="8" class="c0"/>
<circle cx="1004" cy="1308" r="8" class="c0"/>
<circle cx="1042" cy="1182" r="8" class="c0"/>
<circle cx="872" cy="420" r="8" class="c0"/>
<circle cx="826" cy="1174" r="8" class="c0"/>
<circle cx="1048" cy="1138" r="8" class="c0"/>
<circle cx="1094" cy="822" r="8" class="c0"/>
<circle cx="760" cy="370" r="8" class="c0"/>
<circle cx="1046" cy="754" r="8" class="c0"/>
<circle cx="870" cy="828" r="8" class="c0"/>
<circle cx="934" cy="508" r="8" class="c0"/>
<circle cx="1084" cy="1270" r="8" class="c0"/>
<circle cx="950" cy="1134" r="8" class="c0"/>
<circle cx="794" cy="280" r="8" class="c0"/>
<circle cx="910" cy="380" r="8" class="c0"/>
<circle cx="1076" cy="1382" r="8" class="c0"/>
<circle cx="986" cy="896" r="8" class="c0"/>
<circle cx="940" cy="1294" r="8" class="c0"/>
<circle cx="1004" cy="930" r="8" class="c0"/>
<circle cx="1016" cy="1114" r="8" class="c0"/>
<circle cx="936" cy="396" r="8" class="c0"/>
<circle cx="1084" cy="570" r="8" class="c0"/>
<circle cx="1016" cy="600" r="8" class="c0"/>
<circle cx="992" cy="440" r="8" class="c0"/>
<circle cx="968" cy="1338" r="8" class="c0"/>
<circle cx="1046" cy="1160" r="8" class="c0"/>
<circle cx="928" cy="256" r="8" class="c0"/>
<circle cx="770" cy="352" r="8" class="c0"/>
<circle cx="1122" cy="764" r="8" class="c0"/>
<circle cx="936" cy="1030" r="8" class="c0"/>
<circle cx="932" cy="1154" r="8" class="c0"/>
<circle cx="1138" cy="684" r="8" class="c0"/>
<circle cx="928" cy="592" r="8" class="c0"/>
<circle cx="892" cy="386" r="8" class="c0"/>
<circle cx="846" cy="1308" r="8" class="c0"/>
<circle cx="1006" cy="1370" r="8" class="c0"/>
<circle cx="828" cy="1132" r="8" class="c0"/>
<circle cx="1046" cy="1108" r="8" class="c0"/>
<circle cx="1044" cy="1324" r="8" class="c0"/>
<circle cx="890" cy="322" r="8" class="c0"/>
<circle cx="1012" cy="294" r="8" class="c0"/>
<circle cx="956" cy="554" r="8" class="c0"/>
<circle cx="902" cy="1046" r="8" class="c0"/>
<circle cx="900" cy="520" r="8" class="c0"/>
<circle cx="992" cy="852" r="8" class="c0"/>
<circle cx="944" cy="1350" r="8" class="c0"/>
<circle cx="1064" cy="1194" r="8" class="c0"/>
<circle cx="1094" cy="1162" r="8" class="c0"/>
<circle cx="972" cy="1376" r="8" class="c0"/>
<circle cx="1142" cy="874" r="8" class="c0"/>
<circle cx="1132" cy="888" r="8" class="c0"/>
<circle cx="940" cy="756" r="8" class="c0"/>
<circle cx="880" cy="682" r="8" class="c0"/>
<circle cx="850" cy="908" r="8" class="c0"/>
<circle cx="1130" cy="582" r="8" class="c0"/>
<circle cx="1074" cy="900" r="8" class="c0"/>
<circle cx="894" cy="454" r="8" class="c0"/>
<circle cx="1050" cy="464" r="8" class="c0"/>
<circle cx="1026" cy="780" r="8" class="c0"/>
<circle cx="992" cy="1112" r="8" class="c0"/>
<circle cx="1032" cy="1066" r="8" class="c0"/>
<circle cx="960" cy="1418" r="8" class="c0"/>
<circle cx="932" cy="344" r="8" class="c0"/>
<circle cx="1132" cy="836" r="8" class="c0"/>
<circle cx="1044" cy="418" r="8" class="c0"/>
<circle cx="954" cy="376" r="8" class="c0"/>
<circle cx="856" cy="232" r="8" class="c0"/>
<circle cx="948" cy="956" r="8" class="c0"/>
<circle cx="914" cy="338" r="8" class="c0"/>
<circle cx="834" cy="1298" r="8" class="c0"/>
<circle cx="1050" cy="386" r="8" class="c0"/>
<circle cx="750" cy="348" r="8" class="c0"/>
<circle cx="928" cy="966" r="8" class="c0"/>
<circle cx="854" cy="194" r="8" class="c0"/>
<circle cx="942" cy="1332" r="8" class="c0"/>
<circle cx="866" cy="172" r="8" class="c0"/>
<circle cx="996" cy="878" r="8" class="c0"/>
<circle cx="848" cy="316" r="8" class="c0"/>
<circle cx="1038" cy="920" r="8" class="c0"/>
<circle cx="840" cy="1092" r="8" class="c0"/>
<circle cx="1082" cy="1220" r="8" class="c0"/>
<circle cx="876" cy="726" r="8" class="c0"/>
<circle cx="1126" cy="610" r="8" class="c0"/>
<circle cx="972" cy="594" r="8" class="c0"/>
<circle cx="966" cy="722" r="8" class="c0"/>
<circle cx="1084" cy="654" r="8" class="c0"/>
<circle cx="834" cy="226" r="8" class="c0"/>
<circle cx="996" cy="656" r="8" class="c0"/>
<circle cx="954" cy="1374" r="8" class="c0"/>
<circle cx="954" cy="696" r="8" class="c0"/>
<circle cx="1078" cy="698" r="8" class="c0"/>
<circle cx="910" cy="978" r="8" class="c0"/>
<circle cx="932" cy="1312" r="8" class="c0"/>
<circle cx="1084" cy="966" r="8" class="c0"/>
<circle cx="950" cy="528" r="8" class="c0"/>
<circle cx="1092" cy="1238" r="8" class="c0"/>
<circle cx="988" cy="568" r="8" class="c0"/>
<circle cx="1006" cy="454" r="8" class="c0"/>
<circle cx="978" cy="1066" r="8" class="c0"/>
<circle cx="932" cy="1072" r="8" class="c0"/>
<circle cx="948" cy="1084" r="8" class="c0"/>
<circle cx="1004" cy="964" r="8" class="c0"/>
<circle cx="1082" cy="926" r="8" class="c0"/>
<circle cx="972" cy="1138" r="8" class="c0"/>
<circle cx="1032" cy="504" r="8" class="c0"/>
<circle cx="988" cy="282" r="8" class="c0"/>
<circle cx="892" cy="974" r="8" class="c0"/>
<circle cx="1096" cy="688" r="8" class="c0"/>
<circle cx="922" cy="768" r="8" class="c0"/>
<circle cx="956" cy="940" r="8" class="c0"/>
<circle cx="820" cy="1240" r="8" class="c0"/>
<circle cx="812" cy="1346" r="8" class="c0"/>
<circle cx="962" cy="1286" r="8" class="c0"/>
<circle cx="876" cy="1028" r="8" class="c0"/>
<circle cx="794" cy="254" r="8" class="c0"/>
<circle cx="1046" cy="896" r="8" class="c0"/>
<circle cx="1156" cy="864" r="8" class="c0"/>
<circle cx="1044" cy="1244" r="8" class="c0"/>
<circle cx="930" cy="938" r="8" class="c0"/>
<circle cx="782" cy="296" r="8" class="c0"/>
<circle cx="1006" cy="1170" r="8" class="c0"/>
<circle cx="1038" cy="370" r="8" class="c0"/>
<circle cx="858" cy="1214" r="8" class="c0"/>
<circle cx="944" cy="194" r="8" class="c0"/>
<circle cx="966" cy="470" r="8" class="c0"/>
<circle cx="1116" cy="622" r="8" class="c0"/>
<circle cx="870" cy="804" r="8" class="c0"/>
<circle cx="1166" cy="676" r="8" class="c0"/>
<circle cx="996" cy="1392" r="8" class="c0"/>
<circle cx="1120" cy="900" r="8" class="c0"/>
<circle cx="898" cy="658" r="8" class="c0"/>
<circle cx="902" cy="1334" r="8" class="c0"/>
<circle cx="948" cy="1058" r="8" class="c0"/>
<circle cx="996" cy="508" r="8" class="c0"/>
<circle cx="906" cy="1070" r="8" class="c0"/>
<circle cx="1012" cy="564" r="8" class="c0"/>
<circle cx="834" cy="692" r="8" class="c0"/>
<circle cx="886" cy="1264" r="8" class="c0"/>
<circle cx="876" cy="660" r="8" class="c0"/>
<circle cx="862" cy="1426" r="8" class="c0"/>
<circle cx="1034" cy="938" r="8" class="c0"/>
<circle cx="942" cy="880" r="8" class="c0"/>
<circle cx="976" cy="1394" r="8" class="c0"/>
<circle cx="852" cy="932" r="8" class="c0"/>
<circle cx="910" cy="358" r="8" class="c0"/>
<circle cx="934" cy="540" r="8" class="c0"/>
<circle cx="1126" cy="674" r="8" class="c0"/>
<circle cx="922" cy="486" r="8" class="c0"/>
<circle cx="1068" cy="674" r="8" class="c0"/>
<circle cx="1034" cy="874" r="8" class="c0"/>
<circle cx="1068" cy="1330" r="8" class="c0"/>
<circle cx="858" cy="666" r="8" class="c0"/>
<circle cx="970" cy="1120" r="8" class="c0"/>
<circle cx="1036" cy="622" r="8" class="c0"/>
<circle cx="1010" cy="1238" r="8" class="c0"/>
<circle cx="954" cy="828" r="8" class="c0"/>
<circle cx="886" cy="866" r="8" class="c0"/>
<circle cx="888" cy="140" r="8" class="c0"/>
<circle cx="1102" cy="1384" r="8" class="c0"/>
<circle cx="930" cy="1172" r="8" class="c0"/>
<circle cx="1056" cy="828" r="8" class="c0"/>
<circle cx="986" cy="1364" r="8" class="c0"/>
<circle cx="832" cy="166" r="8" class="c0"/>
<circle cx="1090" cy="854" r="8" class="c0"/>
<circle cx="776" cy="182" r="8" class="c0"/>
<circle cx="972" cy="528" r="8" class="c0"/>
<circle cx="1082" cy="996" r="8" class="c0"/>
<circle cx="1030" cy="452" r="8" class="c0"/>
<circle cx="846" cy="708" r="8" class="c0"/>
<circle cx="1054" cy="1262" r="8" class="c0"/>
<circle cx="1080" cy="1072" r="8" class="c0"/>
<circle cx="866" cy="500" r="8" class="c0"/>
<circle cx="954" cy="892" r="8" class="c0"/>
<circle cx="1098" cy="1142" r="8" class="c0"/>
<circle cx="1034" cy="666" r="8" class="c0"/>
<circle cx="1084" cy="594" r="8" class="c0"/>
<circle cx="804" cy="1420" r="8" class="c0"/>
<circle cx="834" cy="1320" r="8" class="c0"/>
<circle cx="1060" cy="1310" r="8" class="c0"/>
<circle cx="966" cy="236" r="8" class="c0"/>
<circle cx="890" cy="1186" r="8" class="c0"/>
<circle cx="956" cy="772" r="8" class="c0"/>
<circle cx="1064" cy="1242" r="8" class="c0"/>
<circle cx="850" cy="580" r="8" class="c0"/>
<circle cx="1032" cy="406" r="8" class="c0"/>
<circle cx="1024" cy="526" r="8" class="c0"/>
<circle cx="1100" cy="488" r="8" class="c0"/>
<circle cx="998" cy="1252" r="8" class="c0"/>
<circle cx="982" cy="1160" r="8" class="c0"/>
<circle cx="1142" cy="642" r="8" class="c0"/>
<circle cx="1034" cy="740" r="8" class="c0"/>
<circle cx="812" cy="1300" r="8" class="c0"/>
<circle cx="1014" cy="948" r="8" class="c0"/>
<circle cx="980" cy="454" r="8" class="c0"/>
<circle cx="968" cy="614" r="8" class="c0"/>
<circle cx="908" cy="540" r="8" class="c0"/>
<circle cx="1066" cy="404" r="8" class="c0"/>
<circle cx="914" cy="604" r="8" class="c0"/>
<circle cx="938" cy="436" r="8" class="c0"/>
<circle cx="892" cy="1390" r="8" class="c0"/>
<circle cx="1000" cy="332" r="8" class="c0"/>
<circle cx="886" cy="704" r="8" class="c0"/>
<circle cx="836" cy="430" r="8" class="c0"/>
<circle cx="1088" cy="750" r="8" class="c0"/>
<circle cx="930" cy="704" r="8" class="c0"/>
<circle cx="896" cy="1304" r="8" class="c0"/>
<circle cx="842" cy="1158" r="8" class="c0"/>
<circle cx="992" cy="1092" r="8" class="c0"/>
<circle cx="1106" cy="1338" r="8" class="c0"/>
<circle cx="1104" cy="550" r="8" class="c0"/>
<circle cx="918" cy="1262" r="8" class="c0"/>
<circle cx="932" cy="1370" r="8" class="c0"/>
<circle cx="874" cy="968" r="8" class="c0"/>
<circle cx="860" cy="874" r="8" class="c0"/>
<circle cx="848" cy="1064" r="8" class="c0"/>
<circle cx="988" cy="800" r="8" class="c0"/>
<circle cx="1018" cy="1186" r="8" class="c0"/>
<circle cx="832" cy="622" r="8" class="c0"/>
<circle cx="1000" cy="1054" r="8" class="c0"/>
<circle cx="840" cy="1340" r="8" class="c0"/>
<circle cx="940" cy="924" r="8" class="c0"/>
<circle cx="1006" cy="1202" r="8" class="c0"/>
<circle cx="982" cy="1270" r="8" class="c0"/>
<circle cx="1064" cy="1280" r="8" class="c0"/>
<circle cx="980" cy="628" r="8" class="c0"/>
<circle cx="1116" cy="564" r="8" class="c0"/>
<circle cx="1096" cy="804" r="8" class="c0"/>
<circle cx="1142" cy="784" r="8" class="c0"/>
<circle cx="1166" cy="728" r="8" class="c0"/>
<circle cx="1008" cy="866" r="8" class="c0"/>
<circle cx="842" cy="136" r="8" class="c0"/>
<circle cx="1082" cy="630" r="8" class="c0"/>
<circle cx="1048" cy="966" r="8" class="c0"/>
<circle cx="850" cy="1394" r="8" class="c0"/>
<circle cx="1060" cy="356" r="8" class="c0"/>
<circle cx="952" cy="1266" r="8" class="c0"/>
<circle cx="1108" cy="834" r="8" class="c0"/>
<circle cx="982" cy="424" r="8" class="c0"/>
<circle cx="1102" cy="1310" r="8" class="c0"/>
<circle cx="1066" cy="1368" r="8" class="c0"/>
<circle cx="948" cy="262" r="8" class="c0"/>
<circle cx="842" cy="1414" r="8" class="c0"/>
<circle cx="894" cy="1414" r="8" class="c0"/>
<circle cx="930" cy="416" r="8" class="c0"/>
<circle cx="986" cy="480" r="8" class="c0"/>
<circle cx="1108" cy="676" r="8" class="c0"/>
<circle cx="880" cy="1056" r="8" class="c0"/>
<circle cx="1048" cy="1218" r="8" class="c0"/>
<circle cx="874" cy="354" r="8" class="c0"/>
<circle cx="990" cy="1000" r="8" class="c0"/>
<circle cx="866" cy="1114" r="8" class="c0"/>
<circle cx="1040" cy="1280" r="8" class="c0"/>
<circle cx="1086" cy="1096" r="8" class="c0"/>
<circle cx="1092" cy="1062" r="8" class="c0"/>
<circle cx="890" cy="1140" r="8" class="c0"/>
<circle cx="772" cy="282" r="8" class="c0"/>
<circle cx="892" cy="1168" r="8" class="c0"/>
<circle cx="1054" cy="594" r="8" class="c0"/>
<circle cx="948" cy="1010" r="8" class="c0"/>
<circle cx="976" cy="558" r="8" class="c0"/>
<circle cx="950" cy="310" r="8" class="c0"/>
<circle cx="1144" cy="918" r="8" class="c0"/>
<circle cx="906" cy="438" r="8" class="c0"/>
<circle cx="1002" cy="1012" r="8" class="c0"/>
<circle cx="1060" cy="772" r="8" class="c0"/>
<circle cx="840" cy="332" r="8" class="c0"/>
<circle cx="860" cy="718" r="8" class="c0"/>
<circle cx="930" cy="214" r="8" class="c0"/>
<circle cx="1078" cy="444" r="8" class="c0"/>
<circle cx="760" cy="300" r="8" class="c0"/>
<circle cx="1044" cy="1430" r="8" class="c0"/>
<circle cx="882" cy="1286" r="8" class="c0"/>
<circle cx="840" cy="558" r="8" class="c0"/>
<circle cx="1098" cy="1256" r="8" class="c0"/>
<circle cx="1040" cy="478" r="8" class="c0"/>
<circle cx="1012" cy="390" r="8" class="c0"/>
<circle cx="908" cy="866" r="8" class="c0"/>
<circle cx="944" cy="1112" r="8" class="c0"/>
<circle cx="926" cy="614" r="8" class="c0"/>
<circle cx="1010" cy="618" r="8" class="c0"/>
<circle cx="858" cy="744" r="8" class="c0"/>
<circle cx="908" cy="256" r="8" class="c0"/>
<circle cx="1162" cy="770" r="8" class="c0"/>
<circle cx="976" cy="1426" r="8" class="c0"/>
<circle cx="870" cy="1300" r="8" class="c0"/>
<circle cx="1024" cy="1364" r="8" class="c0"/>
<circle cx="958" cy="394" r="8" class="c0"/>
<circle cx="990" cy="358" r="8" class="c0"/>
<circle cx="1056" cy="1040" r="8" class="c0"/>
<circle cx="1136" cy="732" r="8" class="c0"/>
<circle cx="756" cy="322" r="8" class="c0"/>
<circle cx="1066" cy="1014" r="8" class="c0"/>
<circle cx="1028" cy="554" r="8" class="c0"/>
<circle cx="1130" cy="552" r="8" class="c0"/>
<circle cx="1116" cy="538" r="8" class="c0"/>
<circle cx="1036" cy="586" r="8" class="c0"/>
<circle cx="1110" cy="886" r="8" class="c0"/>
<circle cx="1128" cy="794" r="8" class="c0"/>
<circle cx="1044" cy="604" r="8" class="c0"/>
<circle cx="940" cy="902" r="8" class="c0"/>
<circle cx="956" cy="1212" r="8" class="c0"/>
<circle cx="962" cy="1160" r="8" class="c0"/>
<circle cx="890" cy="1246" r="8" class="c0"/>
<circle cx="980" cy="862" r="8" class="c0"/>
<circle cx="866" cy="134" r="8" class="c0"/>
<circle cx="882" cy="440" r="8" class="c0"/>
<circle cx="914" cy="1036" r="8" class="c0"/>
<circle cx="868" cy="334" r="8" class="c0"/>
<circle cx="1038" cy="826" r="8" class="c0"/>
<circle cx="844" cy="864" r="8" class="c0"/>
<circle cx="972" cy="216" r="8" class="c0"/>
<circle cx="954" cy="1320" r="8" class="c0"/>
<circle cx="1086" cy="1124" r="8" class="c0"/>
<circle cx="1006" cy="668" r="8" class="c0"/>
<circle cx="1038" cy="1128" r="8" class="c0"/>
<circle cx="1064" cy="1428" r="8" class="c0"/>
<circle cx="924" cy="522" r="8" class="c0"/>
<circle cx="992" cy="1226" r="8" class="c0"/>
<circle cx="1074" cy="820" r="8" class="c0"/>
<circle cx="898" cy="772" r="8" class="c0"/>
<circle cx="1028" cy="854" r="8" class="c0"/>
<circle cx="1062" cy="716" r="8" class="c0"/>
<circle cx="1062" cy="888" r="8" class="c0"/>
<circle cx="904" cy="908" r="8" class="c0"/>
<circle cx="1092" cy="1326" r="8" class="c0"/>
<circle cx="1096" cy="1192" r="8" class="c0"/>
<circle cx="1072" cy="580" r="8" class="c0"/>
<circle cx="1082" cy="1340" r="8" class="c0"/>
<circle cx="876" cy="768" r="8" class="c0"/>
<circle cx="998" cy="252" r="8" class="c0"/>
<circle cx="904" cy="502" r="8" class="c0"/>
<circle cx="950" cy="452" r="8" class="c0"/>
<circle cx="904" cy="996" r="8" class="c0"/>
<circle cx="1152" cy="694" r="8" class="c0"/>
<circle cx="932" cy="1276" r="8" class="c0"/>
<circle cx="1086" cy="732" r="8" class="c0"/>
<circle cx="824" cy="320" r="8" class="c0"/>
<circle cx="1054" cy="870" r="8" class="c0"/>
<circle cx="808" cy="134" r="8" class="c0"/>
<circle cx="890" cy="198" r="8" class="c0"/>
<circle cx="760" cy="194" r="8" class="c0"/>
<circle cx="1122" cy="876" r="8" class="c0"/>
<circle cx="1022" cy="1226" r="8" class="c0"/>
<circle cx="1136" cy="624" r="8" class="c0"/>
<circle cx="1014" cy="984" r="8" class="c0"/>
<circle cx="884" cy="510" r="8" class="c0"/>
<circle cx="1024" cy="1426" r="8" class="c0"/>
<circle cx="920" cy="576" r="8" class="c0"/>
<circle cx="1058" cy="660" r="8" class="c0"/>
<circle cx="1038" cy="300" r="8" class="c0"/>
<circle cx="822" cy="1424" r="8" class="c0"/>
<circle cx="938" cy="244" r="8" class="c0"/>
<circle cx="1066" cy="556" r="8" class="c0"/>
<circle cx="846" cy="992" r="8" class="c0"/>
<circle cx="972" cy="1258" r="8" class="c0"/>
<circle cx="900" cy="312" r="8" class="c0"/>
<circle cx="772" cy="388" r="8" class="c0"/>
<circle cx="900" cy="714" r="8" class="c0"/>
<circle cx="914" cy="1092" r="8" class="c0"/>
<circle cx="912" cy="956" r="8" class="c0"/>
<circle cx="850" cy="1330" r="8" class="c0"/>
<circle cx="838" cy="1208" r="8" class="c0"/>
<circle cx="920" cy="1330" r="8" class="c0"/>
<circle cx="1066" cy="1126" r="8" class="c0"/>
<circle cx="1132" cy="864" r="8" class="c0"/>
<circle cx="990" cy="918" r="8" class="c0"/>
<circle cx="980" cy="246" r="8" class="c0"/>
<circle cx="836" cy="1114" r="8" class="c0"/>
<circle cx="876" cy="270" r="8" class="c0"/>
<circle cx="854" cy="1104" r="8" class="c0"/>
<circle cx="1078" cy="760" r="8" class="c0"/>
<circle cx="1048" cy="322" r="8" class="c0"/>
<circle cx="946" cy="680" r="8" class="c0"/>
<circle cx="844" cy="1186" r="8" class="c0"/>
<circle cx="814" cy="1258" r="8" class="c0"/>
<circle cx="1056" cy="486" r="8" class="c0"/>
<circle cx="1028" cy="1172" r="8" class="c0"/>
<circle cx="992" cy="948" r="8" class="c0"/>
<circle cx="830" cy="390" r="8" class="c0"/>
<circle cx="860" cy="1404" r="8" class="c0"/>
<circle cx="972" cy="972" r="8" class="c0"/>
<circle cx="866" cy="1094" r="8" class="c0"/>
<circle cx="966" cy="686" r="8" class="c0"/>
<circle cx="850" cy="548" r="8" class="c0"/>
<circle cx="1072" cy="1258" r="8" class="c0"/>
<circle cx="1106" cy="1428" r="8" class="c0"/>
<circle cx="1150" cy="896" r="8" class="c0"/>
<circle cx="924" cy="746" r="8" class="c0"/>
<circle cx="850" cy="886" r="8" class="c0"/>
<circle cx="1016" cy="882" r="8" class="c0"/>
<circle cx="812" cy="684" r="8" class="c0"/>
<circle cx="892" cy="428" r="8" class="c0"/>
<circle cx="812" cy="190" r="8" class="c0"/>
<circle cx="960" cy="1246" r="8" class="c0"/>
<circle cx="940" cy="1424" r="8" class="c0"/>
<circle cx="1142" cy="850" r="8" class="c0"/>
<circle cx="972" cy="838" r="8" class="c0"/>
<circle cx="912" cy="296" r="8" class="c0"/>
<circle cx="1004" cy="636" r="8" class="c0"/>
<circle cx="1050" cy="1376" r="8" class="c0"/>
<circle cx="902" cy="616" r="8" class="c0"/>
<circle cx="818" cy="1214" r="8" class="c0"/>
<circle cx="932" cy="810" r="8" class="c0"/>
<circle cx="1122" cy="722" r="8" class="c0"/>
<circle cx="1064" cy="1168" r="8" class="c0"/>
<circle cx="1006" cy="1032" r="8" class="c0"/>
<circle cx="1064" cy="376" r="8" class="c0"/>
<circle cx="874" cy="188" r="8" class="c0"/>
<circle cx="930" cy="284" r="8" class="c0"/>
<circle cx="880" cy="1196" r="8" class="c0"/>
<circle cx="1118" cy="782" r="8" class="c0"/>
<circle cx="856" cy="1168" r="8" class="c0"/>
<circle cx="850" cy="212" r="8" class="c0"/>
<circle cx="896" cy="880" r="8" class="c0"/>
<circle cx="828" cy="584" r="8" class="c0"/>
<circle cx="914" cy="162" r="8" class="c0"/>
<circle cx="872" cy="932" r="8" class="c0"/>
<circle cx="1092" cy="1210" r="8" class="c0"/>
<circle cx="894" cy="366" r="8" class="c0"/>
<circle cx="862" cy="568" r="8" class="c0"/>
<circle cx="1012" cy="1064" r="8" class="c0"/>
<circle cx="822" cy="636" r="8" class="c0"/>
<circle cx="958" cy="870" r="8" class="c0"/>
<circle cx="962" cy="1022" r="8" class="c0"/>
<circle cx="994" cy="1150" r="8" class="c0"/>
<circle cx="876" cy="1128" r="8" class="c0"/>
<circle cx="864" cy="954" r="8" class="c0"/>
<circle cx="1142" cy="764" r="8" class="c0"/>
<circle cx="1100" cy="578" r="6" class="c0"/>
<circle cx="832" cy="374" r="6" class="c0"/>
<circle cx="824" cy="608" r="6" class="c0"/>
<circle cx="1050" cy="1294" r="6" class="c0"/>
<circle cx="1024" cy="1012" r="6" class="c0"/>
<circle cx="1130" cy="700" r="6" class="c0"/>
<circle cx="1110" cy="1410" r="6" class="c0"/>
<circle cx="1048" cy="724" r="6" class="c0"/>
<circle cx="1140" cy="566" r="6" class="c0"/>
<circle cx="900" cy="818" r="6" class="c0"/>
<circle cx="1146" cy="608" r="6" class="c0"/>
<circle cx="898" cy="1084" r="6" class="c0"/>
<circle cx="1106" cy="768" r="6" class="c0"/>
<circle cx="1022" cy="578" r="6" class="c0"/>
<circle cx="874" cy="1414" r="6" class="c0"/>
<circle cx="890" cy="258" r="6" class="c0"/>
<circle cx="1014" cy="516" r="6" class="c0"/>
<circle cx="842" cy="1432" r="6" class="c0"/>
<circle cx="900" cy="1432" r="6" class="c0"/>
<circle cx="846" cy="530" r="6" class="c0"/>
<circle cx="870" cy="1254" r="6" class="c0"/>
<circle cx="946" cy="1162" r="6" class="c0"/>
<circle cx="942" cy="860" r="6" class="c0"/>
<circle cx="800" cy="1400" r="6" class="c0"/>
<circle cx="868" cy="288" r="6" class="c0"/>
<circle cx="982" cy="716" r="6" class="c0"/>
<circle cx="1042" cy="494" r="6" class="c0"/>
<circle cx="950" cy="342" r="6" class="c0"/>
<circle cx="1014" cy="1404" r="6" class="c0"/>
<circle cx="942" cy="494" r="6" class="c0"/>
<circle cx="852" cy="1082" r="6" class="c0"/>
<circle cx="1100" cy="628" r="6" class="c0"/>
<circle cx="842" cy="282" r="6" class="c0"/>
<circle cx="1040" cy="1366" r="6" class="c0"/>
<circle cx="964" cy="202" r="6" class="c0"/>
<circle cx="792" cy="310" r="6" class="c0"/>
<circle cx="814" cy="332" r="6" class="c0"/>
<circle cx="1078" cy="796" r="6" class="c0"/>
<circle cx="1058" cy="914" r="6" class="c0"/>
<circle cx="920" cy="426" r="6" class="c0"/>
<circle cx="1032" cy="1346" r="6" class="c0"/>
<circle cx="892" cy="730" r="6" class="c0"/>
<circle cx="834" cy="1248" r="6" class="c0"/>
<circle cx="1002" cy="808" r="6" class="c0"/>
<circle cx="1038" cy="1308" r="6" class="c0"/>
<circle cx="1028" cy="290" r="6" class="c0"/>
<circle cx="970" cy="790" r="6" class="c0"/>
<circle cx="900" cy="674" r="6" class="c0"/>
<circle cx="1036" cy="954" r="6" class="c0"/>
<circle cx="920" cy="180" r="6" class="c0"/>
<circle cx="994" cy="980" r="6" class="c0"/>
<circle cx="954" cy="742" r="6" class="c0"/>
<circle cx="1050" cy="674" r="6" class="c0"/>
<circle cx="832" cy="124" r="6" class="c0"/>
<circle cx="862" cy="650" r="6" class="c0"/>
<circle cx="828" cy="406" r="6" class="c0"/>
<circle cx="1044" cy="1410" r="6" class="c0"/>
<circle cx="892" cy="1344" r="6" class="c0"/>
<circle cx="826" cy="1152" r="6" class="c0"/>
<circle cx="964" cy="1360" r="6" class="c0"/>
<circle cx="1058" cy="1150" r="6" class="c0"/>
<circle cx="904" cy="472" r="6" class="c0"/>
<circle cx="854" cy="1374" r="6" class="c0"/>
<circle cx="1074" cy="490" r="6" class="c0"/>
<circle cx="1092" cy="672" r="6" class="c0"/>
<circle cx="1028" cy="340" r="6" class="c0"/>
<circle cx="988" cy="968" r="6" class="c0"/>
<circle cx="908" cy="566" r="6" class="c0"/>
<circle cx="982" cy="1346" r="6" class="c0"/>
<circle cx="926" cy="1240" r="6" class="c0"/>
<circle cx="872" cy="456" r="6" class="c0"/>
<circle cx="852" cy="426" r="6" class="c0"/>
<circle cx="968" cy="1230" r="6" class="c0"/>
<circle cx="1108" cy="1368" r="6" class="c0"/>
<circle cx="970" cy="410" r="6" class="c0"/>
<circle cx="934" cy="660" r="6" class="c0"/>
<circle cx="864" cy="610" r="6" class="c0"/>
<circle cx="1002" cy="314" r="6" class="c0"/>
<circle cx="1074" cy="644" r="6" class="c0"/>
<circle cx="1098" cy="644" r="6" class="c0"/>
<circle cx="890" cy="530" r="6" class="c0"/>
<circle cx="968" cy="704" r="6" class="c0"/>
<circle cx="866" cy="1280" r="6" class="c0"/>
<circle cx="1062" cy="956" r="6" class="c0"/>
<circle cx="1042" cy="684" r="6" class="c0"/>
<circle cx="984" cy="518" r="6" class="c0"/>
<circle cx="884" cy="1426" r="6" class="c0"/>
<circle cx="936" cy="1048" r="6" class="c0"/>
<circle cx="974" cy="956" r="6" class="c0"/>
<circle cx="1062" cy="1210" r="6" class="c0"/>
<circle cx="890" cy="228" r="6" class="c0"/>
<circle cx="1096" cy="1084" r="6" class="c0"/>
<circle cx="1008" cy="548" r="6" class="c0"/>
<circle cx="896" cy="922" r="6" class="c0"/>
<circle cx="938" cy="582" r="6" class="c0"/>
<circle cx="892" cy="898" r="6" class="c0"/>
<circle cx="1082" cy="714" r="6" class="c0"/>
<circle cx="756" cy="272" r="6" class="c0"/>
<circle cx="1020" cy="1380" r="6" class="c0"/>
<circle cx="916" cy="828" r="6" class="c0"/>
<circle cx="1014" cy="734" r="6" class="c0"/>
<circle cx="834" cy="102" r="6" class="c0"/>
<circle cx="886" cy="812" r="6" class="c0"/>
<circle cx="836" cy="1076" r="6" class="c0"/>
<circle cx="956" cy="246" r="6" class="c0"/>
<circle cx="1070" cy="784" r="6" class="c0"/>
<circle cx="926" cy="784" r="6" class="c0"/>
<circle cx="814" cy="392" r="6" class="c0"/>
<circle cx="888" cy="1318" r="6" class="c0"/>
<circle cx="822" cy="294" r="6" class="c0"/>
<circle cx="860" cy="1074" r="6" class="c0"/>
<circle cx="762" cy="338" r="6" class="c0"/>
<circle cx="1064" cy="454" r="6" class="c0"/>
<circle cx="1034" cy="536" r="6" class="c0"/>
<circle cx="1018" cy="466" r="6" class="c0"/>
<circle cx="1054" cy="1056" r="6" class="c0"/>
<circle cx="872" cy="520" r="6" class="c0"/>
<circle cx="986" cy="1404" r="6" class="c0"/>
<circle cx="1170" cy="702" r="6" class="c0"/>
<circle cx="1092" cy="912" r="6" class="c0"/>
<circle cx="844" cy="952" r="6" class="c0"/>
<circle cx="810" cy="258" r="6" class="c0"/>
<circle cx="1096" cy="1112" r="6" class="c0"/>
<circle cx="1122" cy="692" r="6" class="c0"/>
<circle cx="854" cy="1240" r="6" class="c0"/>
<circle cx="944" cy="712" r="6" class="c0"/>
<circle cx="822" cy="1310" r="6" class="c0"/>
<circle cx="936" cy="1386" r="6" class="c0"/>
<circle cx="840" cy="362" r="6" class="c0"/>
<circle cx="1094" cy="1046" r="6" class="c0"/>
<circle cx="916" cy="1310" r="6" class="c0"/>
<circle cx="908" cy="938" r="6" class="c0"/>
<circle cx="1034" cy="390" r="6" class="c0"/>
<circle cx="1006" cy="766" r="6" class="c0"/>
<circle cx="890" cy="1036" r="6" class="c0"/>
<circle cx="880" cy="576" r="6" class="c0"/>
<circle cx="1098" cy="504" r="6" class="c0"/>
<circle cx="1078" cy="948" r="6" class="c0"/>
<circle cx="812" cy="1282" r="6" class="c0"/>
<circle cx="932" cy="870" r="6" class="c0"/>
<circle cx="948" cy="356" r="6" class="c0"/>
<circle cx="1006" cy="1268" r="6" class="c0"/>
<circle cx="1126" cy="924" r="6" class="c0"/>
<circle cx="1032" cy="436" r="6" class="c0"/>
<circle cx="1088" cy="456" r="6" class="c0"/>
<circle cx="1138" cy="596" r="6" class="c0"/>
<circle cx="1032" cy="354" r="6" class="c0"/>
<circle cx="1034" cy="766" r="6" class="c0"/>
<circle cx="1036" cy="700" r="6" class="c0"/>
<circle cx="902" cy="1380" r="6" class="c0"/>
<circle cx="846" cy="1124" r="6" class="c0"/>
<circle cx="1078" cy="1160" r="6" class="c0"/>
<circle cx="1122" cy="846" r="6" class="c0"/>
<circle cx="1110" cy="920" r="6" class="c0"/>
<circle cx="974" cy="1410" r="6" class="c0"/>
<circle cx="1136" cy="660" r="6" class="c0"/>
<circle cx="952" cy="1150" r="6" class="c0"/>
<circle cx="1046" cy="982" r="6" class="c0"/>
<circle cx="1148" cy="588" r="6" class="c0"/>
<circle cx="824" cy="252" r="6" class="c0"/>
<circle cx="1010" cy="342" r="6" class="c0"/>
<circle cx="1048" cy="648" r="6" class="c0"/>
<circle cx="998" cy="378" r="6" class="c0"/>
<circle cx="940" cy="298" r="6" class="c0"/>
<circle cx="880" cy="1370" r="6" class="c0"/>
<circle cx="1044" cy="858" r="6" class="c0"/>
<circle cx="1126" cy="748" r="6" class="c0"/>
<circle cx="932" cy="1132" r="6" class="c0"/>
<circle cx="846" cy="726" r="6" class="c0"/>
<circle cx="938" cy="772" r="6" class="c0"/>
<circle cx="818" cy="174" r="6" class="c0"/>
<circle cx="1144" cy="816" r="6" class="c0"/>
<circle cx="1010" cy="708" r="6" class="c0"/>
<circle cx="1078" cy="836" r="6" class="c0"/>
<circle cx="890" cy="1096" r="6" class="c0"/>
<circle cx="1002" cy="1102" r="6" class="c0"/>
<circle cx="1070" cy="1088" r="6" class="c0"/>
<circle cx="884" cy="1404" r="6" class="c0"/>
<circle cx="780" cy="246" r="6" class="c0"/>
<circle cx="980" cy="1326" r="6" class="c0"/>
<circle cx="860" cy="764" r="6" class="c0"/>
<circle cx="816" cy="376" r="6" class="c0"/>
<circle cx="1110" cy="796" r="6" class="c0"/>
<circle cx="1018" cy="254" r="6" class="c0"/>
<circle cx="1012" cy="1388" r="6" class="c0"/>
<circle cx="1012" cy="502" r="6" class="c0"/>
<circle cx="992" cy="1318" r="6" class="c0"/>
<circle cx="930" cy="984" r="6" class="c0"/>
<circle cx="1164" cy="850" r="6" class="c0"/>
<circle cx="1012" cy="1002" r="6" class="c0"/>
<circle cx="902" cy="1256" r="6" class="c0"/>
<circle cx="988" cy="1128" r="6" class="c0"/>
<circle cx="826" cy="420" r="6" class="c0"/>
<circle cx="938" cy="1194" r="6" class="c0"/>
<circle cx="996" cy="268" r="6" class="c0"/>
<circle cx="1062" cy="1226" r="6" class="c0"/>
<circle cx="1010" cy="1354" r="6" class="c0"/>
<circle cx="822" cy="1358" r="6" class="c0"/>
<circle cx="786" cy="356" r="6" class="c0"/>
<circle cx="918" cy="714" r="6" class="c0"/>
<circle cx="972" cy="1012" r="6" class="c0"/>
<circle cx="996" cy="758" r="6" class="c0"/>
<circle cx="862" cy="248" r="6" class="c0"/>
<circle cx="850" cy="294" r="6" class="c0"/>
<circle cx="1092" cy="982" r="6" class="c0"/>
<circle cx="1028" cy="894" r="6" class="c0"/>
<circle cx="1096" cy="898" r="6" class="c0"/>
<circle cx="788" cy="396" r="6" class="c0"/>
<circle cx="884" cy="174" r="6" class="c0"/>
<circle cx="1022" cy="1248" r="6" class="c0"/>
<circle cx="980" cy="658" r="6" class="c0"/>
<circle cx="958" cy="1070" r="6" class="c0"/>
<circle cx="1022" cy="926" r="6" class="c0"/>
<circle cx="1002" cy="720" r="6" class="c0"/>
<circle cx="1072" cy="1350" r="6" class="c0"/>
<circle cx="860" cy="390" r="6" class="c0"/>
<circle cx="1042" cy="778" r="6" class="c0"/>
<circle cx="800" cy="320" r="6" class="c0"/>
<circle cx="918" cy="394" r="6" class="c0"/>
<circle cx="898" cy="150" r="6" class="c0"/>
<circle cx="1134" cy="908" r="6" class="c0"/>
<circle cx="982" cy="1050" r="6" class="c0"/>
<circle cx="924" cy="1140" r="6" class="c0"/>
<circle cx="1150" cy="672" r="6" class="c0"/>
<circle cx="916" cy="1372" r="6" class="c0"/>
<circle cx="914" cy="512" r="6" class="c0"/>
<circle cx="1054" cy="998" r="6" class="c0"/>
<circle cx="898" cy="246" r="6" class="c0"/>
<circle cx="1022" cy="1028" r="6" class="c0"/>
<circle cx="1076" cy="862" r="6" class="c0"/>
<circle cx="1096" cy="1014" r="6" class="c0"/>
<circle cx="886" cy="648" r="6" class="c0"/>
<circle cx="856" cy="520" r="6" class="c0"/>
<circle cx="886" cy="602" r="6" class="c0"/>
<circle cx="954" cy="484" r="6" class="c0"/>
<circle cx="962" cy="538" r="6" class="c0"/>
<circle cx="842" cy="1038" r="6" class="c0"/>
<circle cx="1072" cy="916" r="6" class="c0"/>
<circle cx="1024" cy="380" r="6" class="c0"/>
<circle cx="804" cy="220" r="6" class="c0"/>
<circle cx="952" cy="1032" r="6" class="c0"/>
<circle cx="862" cy="982" r="6" class="c0"/>
<circle cx="1106" cy="1270" r="6" class="c0"/>
<circle cx="912" cy="780" r="6" class="c0"/>
<circle cx="888" cy="958" r="6" class="c0"/>
<circle cx="904" cy="1318" r="6" class="c0"/>
<circle cx="978" cy="1288" r="6" class="c0"/>
<circle cx="1030" cy="796" r="6" class="c0"/>
<circle cx="1102" cy="1220" r="6" class="c0"/>
<circle cx="860" cy="1318" r="6" class="c0"/>
<circle cx="850" cy="622" r="6" class="c0"/>
<circle cx="1010" cy="1154" r="6" class="c0"/>
<circle cx="1108" cy="636" r="6" class="c0"/>
<circle cx="1044" cy="842" r="6" class="c0"/>
<circle cx="750" cy="290" r="6" class="c0"/>
<circle cx="904" cy="1404" r="6" class="c0"/>
<circle cx="1082" cy="1200" r="6" class="c0"/>
<circle cx="998" cy="468" r="6" class="c0"/>
<circle cx="968" cy="1200" r="6" class="c0"/>
<circle cx="850" cy="170" r="6" class="c0"/>
<circle cx="1102" cy="1402" r="6" class="c0"/>
<circle cx="1160" cy="882" r="6" class="c0"/>
<circle cx="804" cy="270" r="6" class="c0"/>
<circle cx="1092" cy="838" r="6" class="c0"/>
<circle cx="808" cy="288" r="6" class="c0"/>
<circle cx="830" cy="1350" r="6" class="c0"/>
<circle cx="1006" cy="822" r="6" class="c0"/>
<circle cx="1070" cy="804" r="6" class="c0"/>
<circle cx="914" cy="1202" r="6" class="c0"/>
<circle cx="952" cy="1304" r="6" class="c0"/>
<circle cx="1060" cy="1098" r="6" class="c0"/>
<circle cx="880" cy="464" r="6" class="c0"/>
<circle cx="792" cy="180" r="6" class="c0"/>
<circle cx="1082" cy="1248" r="6" class="c0"/>
<circle cx="1040" cy="640" r="6" class="c0"/>
<circle cx="838" cy="1142" r="6" class="c0"/>
<circle cx="1008" cy="1218" r="6" class="c0"/>
<circle cx="856" cy="1198" r="6" class="c0"/>
<circle cx="1020" cy="628" r="6" class="c0"/>
<circle cx="878" cy="1104" r="6" class="c0"/>
<circle cx="1026" cy="612" r="6" class="c0"/>
<circle cx="1022" cy="1076" r="6" class="c0"/>
<circle cx="868" cy="1066" r="6" class="c0"/>
<circle cx="1124" cy="636" r="6" class="c0"/>
<circle cx="1094" cy="470" r="6" class="c0"/>
<circle cx="930" cy="1342" r="6" class="c0"/>
<circle cx="924" cy="1298" r="6" class="c0"/>
<circle cx="1078" cy="1318" r="6" class="c0"/>
<circle cx="1088" cy="1392" r="6" class="c0"/>
<circle cx="932" cy="1400" r="6" class="c0"/>
<circle cx="888" cy="412" r="6" class="c0"/>
<circle cx="1164" cy="786" r="6" class="c0"/>
<circle cx="890" cy="1066" r="6" class="c0"/>
<circle cx="898" cy="856" r="6" class="c0"/>
<circle cx="1094" cy="560" r="6" class="c0"/>
<circle cx="824" cy="1336" r="6" class="c0"/>
<circle cx="1038" cy="1228" r="6" class="c0"/>
<circle cx="1002" cy="684" r="6" class="c0"/>
<circle cx="1052" cy="1392" r="6" class="c0"/>
<circle cx="862" cy="922" r="6" class="c0"/>
<circle cx="986" cy="646" r="6" class="c0"/>
<circle cx="1098" cy="760" r="6" class="c0"/>
<circle cx="996" cy="296" r="6" class="c0"/>
<circle cx="968" cy="820" r="6" class="c0"/>
<circle cx="946" cy="1202" r="6" class="c0"/>
<circle cx="1028" cy="488" r="6" class="c0"/>
<circle cx="916" cy="624" r="6" class="c0"/>
<circle cx="1002" cy="894" r="6" class="c0"/>
<circle cx="1080" cy="1432" r="6" class="c0"/>
<circle cx="978" cy="578" r="6" class="c0"/>
<circle cx="910" cy="322" r="6" class="c0"/>
<circle cx="1102" cy="1176" r="6" class="c0"/>
<circle cx="960" cy="1110" r="6" class="c0"/>
<circle cx="1008" cy="242" r="6" class="c0"/>
<circle cx="918" cy="266" r="6" class="c0"/>
<circle cx="1048" cy="402" r="6" class="c0"/>
<circle cx="836" cy="772" r="6" class="c0"/>
<circle cx="1040" cy="810" r="6" class="c0"/>
<circle cx="892" cy="1224" r="6" class="c0"/>
<circle cx="1010" cy="1086" r="6" class="c0"/>
</svg>
