<?xml version="1.0" encoding="utf-8"?>
<svg xmlns="http://www.w3.org/2000/svg"
     xmlns:xlink="http://www.w3.org/1999/xlink" width="1920" height="1440" >

            <defs>
            <style type="text/css"><![CDATA[
circle {stroke: none;}
.c0 {fill: #FFFFFF;}
]]></style>
            </defs>
<rect x="0" y="0" width="1920" height="1440" fill="black"/>
<circle cx="848" cy="708" r="12" class="c0"/>
<circle cx="772" cy="238" r="12" class="c0"/>
<circle cx="864" cy="788" r="12" class="c0"/>
<circle cx="896" cy="432" r="12" class="c0"/>
<circle cx="772" cy="420" r="12" class="c0"/>
<circle cx="1134" cy="730" r="12" class="c0"/>
<circle cx="878" cy="160" r="12" class="c0"/>
<circle cx="890" cy="1360" r="12" class="c0"/>
<circle cx="832" cy="1098" r="12" class="c0"/>
<circle cx="920" cy="876" r="12" class="c0"/>
<circle cx="1104" cy="1330" r="12" class="c0"/>
<circle cx="978" cy="896" r="12" class="c0"/>
<circle cx="894" cy="622" r="12" class="c0"/>
<circle cx="952" cy="934" r="12" class="c0"/>
<circle cx="1060" cy="496" r="12" class="c0"/>
<circle cx="1072" cy="536" r="12" class="c0"/>
<circle cx="1112" cy="596" r="12" class="c0"/>
<circle cx="988" cy="872" r="12" class="c0"/>
<circle cx="872" cy="1226" r="12" class="c0"/>
<circle cx="882" cy="1108" r="12" class="c0"/>
<circle cx="916" cy="800" r="12" class="c0"/>
<circle cx="838" cy="366" r="12" class="c0"/>
<circle cx="806" cy="218" r="12" class="c0"/>
<circle cx="1046" cy="568" r="12" class="c0"/>
<circle cx="894" cy="1180" r="12" class="c0"/>
<circle cx="1078" cy="902" r="12" class="c0"/>
<circle cx="1086" cy="1188" r="12" class="c0"/>
<circle cx="958" cy="262" r="12" class="c0"/>
<circle cx="1054" cy="1006" r="12" class="c0"/>
<circle cx="880" cy="280" r="12" class="c0"/>
<circle cx="788" cy="256" r="12" class="c0"/>
<circle cx="824" cy="320" r="12" class="c0"/>
<circle cx="1074" cy="814" r="12" class="c0"/>
<circle cx="812" cy="674" r="12" class="c0"/>
<circle cx="878" cy="190" r="12" class="c0"/>
<circle cx="780" cy="204" r="12" class="c0"/>
<circle cx="844" cy="654" r="12" class="c0"/>
<circle cx="892" cy="532" r="12" class="c0"/>
<circle cx="1130" cy="944" r="12" class="c0"/>
<circle cx="1050" cy="444" r="12" class="c0"/>
<circle cx="922" cy="642" r="12" class="c0"/>
<circle cx="1068" cy="1278" r="12" class="c0"/>
<circle cx="940" cy="1006" r="12" class="c0"/>
<circle cx="966" cy="1328" r="12" class="c0"/>
<circle cx="986" cy="646" r="12" class="c0"/>
<circle cx="868" cy="836" r="12" class="c0"/>
<circle cx="1050" cy="1346" r="12" class="c0"/>
<circle cx="970" cy="1400" r="12" class="c0"/>
<circle cx="936" cy="362" r="12" class="c0"/>
<circle cx="1026" cy="342" r="12" class="c0"/>
<circle cx="1088" cy="1154" r="12" class="c0"/>
<circle cx="1046" cy="784" r="12" class="c0"/>
<circle cx="1090" cy="996" r="12" class="c0"/>
<circle cx="1064" cy="724" r="12" class="c0"/>
<circle cx="1082" cy="962" r="12" class="c0"/>
<circle cx="822" cy="174" r="12" class="c0"/>
<circle cx="1068" cy="842" r="12" class="c0"/>
<circle cx="1052" cy="976" r="12" class="c0"/>
<circle cx="886" cy="1020" r="12" class="c0"/>
<circle cx="990" cy="844" r="12" class="c0"/>
<circle cx="736" cy="352" r="12" class="c0"/>
<circle cx="968" cy="828" r="12" class="c0"/>
<circle cx="1014" cy="1150" r="12" class="c0"/>
<circle cx="850" cy="1314" r="12" class="c0"/>
<circle cx="1090" cy="700" r="12" class="c0"/>
<circle cx="890" cy="1320" r="12" class="c0"/>
<circle cx="900" cy="928" r="12" class="c0"/>
<circle cx="1020" cy="658" r="12" class="c0"/>
<circle cx="1148" cy="664" r="12" class="c0"/>
<circle cx="1014" cy="860" r="12" class="c0"/>
<circle cx="922" cy="480" r="12" class="c0"/>
<circle cx="970" cy="222" r="12" class="c0"/>
<circle cx="842" cy="1204" r="12" class="c0"/>
<circle cx="944" cy="546" r="12" class="c0"/>
<circle cx="836" cy="146" r="12" class="c0"/>
<circle cx="826" cy="1296" r="12" class="c0"/>
<circle cx="802" cy="744" r="12" class="c0"/>
<circle cx="908" cy="382" r="12" class="c0"/>
<circle cx="1096" cy="774" r="12" class="c0"/>
<circle cx="870" cy="1380" r="12" class="c0"/>
<circle cx="978" cy="592" r="12" class="c0"/>
<circle cx="918" cy="208" r="12" class="c0"/>
<circle cx="1052" cy="896" r="10" class="c0"/>
<circle cx="858" cy="996" r="10" class="c0"/>
<circle cx="756" cy="280" r="10" class="c0"/>
<circle cx="1068" cy="1166" r="10" class="c0"/>
<circle cx="1016" cy="1296" r="10" class="c0"/>
<circle cx="938" cy="1118" r="10" class="c0"/>
<circle cx="810" cy="390" r="10" class="c0"/>
<circle cx="1002" cy="1318" r="10" class="c0"/>
<circle cx="852" cy="418" r="10" class="c0"/>
<circle cx="922" cy="692" r="10" class="c0"/>
<circle cx="894" cy="584" r="10" class="c0"/>
<circle cx="1108" cy="836" r="10" class="c0"/>
<circle cx="1008" cy="1180" r="10" class="c0"/>
<circle cx="964" cy="352" r="10" class="c0"/>
<circle cx="890" cy="364" r="10" class="c0"/>
<circle cx="1016" cy="384" r="10" class="c0"/>
<circle cx="906" cy="546" r="10" class="c0"/>
<circle cx="968" cy="406" r="10" class="c0"/>
<circle cx="988" cy="384" r="10" class="c0"/>
<circle cx="914" cy="954" r="10" class="c0"/>
<circle cx="966" cy="658" r="10" class="c0"/>
<circle cx="844" cy="1140" r="10" class="c0"/>
<circle cx="938" cy="272" r="10" class="c0"/>
<circle cx="1138" cy="828" r="10" class="c0"/>
<circle cx="962" cy="310" r="10" class="c0"/>
<circle cx="952" cy="982" r="10" class="c0"/>
<circle cx="902" cy="1124" r="10" class="c0"/>
<circle cx="842" cy="476" r="10" class="c0"/>
<circle cx="1038" cy="948" r="10" class="c0"/>
<circle cx="1098" cy="1264" r="10" class="c0"/>
<circle cx="882" cy="748" r="10" class="c0"/>
<circle cx="882" cy="866" r="10" class="c0"/>
<circle cx="880" cy="660" r="10" class="c0"/>
<circle cx="892" cy="340" r="10" class="c0"/>
<circle cx="1036" cy="824" r="10" class="c0"/>
<circle cx="1040" cy="1108" r="10" class="c0"/>
<circle cx="998" cy="1014" r="10" class="c0"/>
<circle cx="946" cy="492" r="10" class="c0"/>
<circle cx="984" cy="976" r="10" class="c0"/>
<circle cx="1128" cy="988" r="10" class="c0"/>
<circle cx="866" cy="936" r="10" class="c0"/>
<circle cx="884" cy="904" r="10" class="c0"/>
<circle cx="868" cy="1194" r="10" class="c0"/>
<circle cx="862" cy="726" r="10" class="c0"/>
<circle cx="858" cy="1126" r="10" class="c0"/>
<circle cx="1070" cy="626" r="10" class="c0"/>
<circle cx="974" cy="1032" r="10" class="c0"/>
<circle cx="938" cy="1206" r="10" class="c0"/>
<circle cx="894" cy="648" r="10" class="c0"/>
<circle cx="998" cy="622" r="10" class="c0"/>
<circle cx="950" cy="642" r="10" class="c0"/>
<circle cx="952" cy="752" r="10" class="c0"/>
<circle cx="914" cy="444" r="10" class="c0"/>
<circle cx="1054" cy="1252" r="10" class="c0"/>
<circle cx="1092" cy="928" r="10" class="c0"/>
<circle cx="1032" cy="366" r="10" class="c0"/>
<circle cx="1056" cy="376" r="10" class="c0"/>
<circle cx="1078" cy="592" r="10" class="c0"/>
<circle cx="996" cy="936" r="10" class="c0"/>
<circle cx="996" cy="744" r="10" class="c0"/>
<circle cx="908" cy="272" r="10" class="c0"/>
<circle cx="942" cy="1164" r="10" class="c0"/>
<circle cx="1024" cy="1054" r="10" class="c0"/>
<circle cx="816" cy="1350" r="10" class="c0"/>
<circle cx="1000" cy="294" r="10" class="c0"/>
<circle cx="1006" cy="546" r="10" class="c0"/>
<circle cx="808" cy="1400" r="10" class="c0"/>
<circle cx="884" cy="1278" r="10" class="c0"/>
<circle cx="1014" cy="694" r="10" class="c0"/>
<circle cx="1024" cy="304" r="10" class="c0"/>
<circle cx="870" cy="312" r="10" class="c0"/>
<circle cx="930" cy="846" r="10" class="c0"/>
<circle cx="1058" cy="936" r="10" class="c0"/>
<circle cx="976" cy="1062" r="10" class="c0"/>
<circle cx="1142" cy="878" r="10" class="c0"/>
<circle cx="880" cy="406" r="10" class="c0"/>
<circle cx="868" cy="558" r="10" class="c0"/>
<circle cx="1106" cy="1396" r="10" class="c0"/>
<circle cx="1066" cy="1318" r="10" class="c0"/>
<circle cx="962" cy="1050" r="10" class="c0"/>
<circle cx="1086" cy="668" r="10" class="c0"/>
<circle cx="1000" cy="438" r="10" class="c0"/>
<circle cx="942" cy="780" r="10" class="c0"/>
<circle cx="1156" cy="906" r="10" class="c0"/>
<circle cx="814" cy="1140" r="10" class="c0"/>
<circle cx="858" cy="894" r="10" class="c0"/>
<circle cx="1154" cy="934" r="10" class="c0"/>
<circle cx="1098" cy="1420" r="10" class="c0"/>
<circle cx="1078" cy="1220" r="10" class="c0"/>
<circle cx="1104" cy="860" r="10" class="c0"/>
<circle cx="926" cy="734" r="10" class="c0"/>
<circle cx="942" cy="392" r="10" class="c0"/>
<circle cx="954" cy="1362" r="10" class="c0"/>
<circle cx="984" cy="800" r="10" class="c0"/>
<circle cx="1114" cy="554" r="10" class="c0"/>
<circle cx="864" cy="612" r="10" class="c0"/>
<circle cx="1088" cy="1094" r="10" class="c0"/>
<circle cx="984" cy="264" r="10" class="c0"/>
<circle cx="1054" cy="1402" r="10" class="c0"/>
<circle cx="1002" cy="320" r="10" class="c0"/>
<circle cx="964" cy="964" r="10" class="c0"/>
<circle cx="840" cy="1420" r="10" class="c0"/>
<circle cx="1116" cy="886" r="10" class="c0"/>
<circle cx="852" cy="624" r="10" class="c0"/>
<circle cx="1002" cy="1422" r="10" class="c0"/>
<circle cx="950" cy="1194" r="10" class="c0"/>
<circle cx="986" cy="1208" r="10" class="c0"/>
<circle cx="916" cy="1364" r="10" class="c0"/>
<circle cx="942" cy="1066" r="10" class="c0"/>
<circle cx="1116" cy="1020" r="10" class="c0"/>
<circle cx="922" cy="568" r="10" class="c0"/>
<circle cx="918" cy="1146" r="10" class="c0"/>
<circle cx="920" cy="756" r="10" class="c0"/>
<circle cx="1130" cy="608" r="10" class="c0"/>
<circle cx="1050" cy="1192" r="10" class="c0"/>
<circle cx="874" cy="956" r="10" class="c0"/>
<circle cx="988" cy="526" r="10" class="c0"/>
<circle cx="946" cy="672" r="10" class="c0"/>
<circle cx="902" cy="498" r="10" class="c0"/>
<circle cx="1028" cy="414" r="10" class="c0"/>
<circle cx="760" cy="326" r="10" class="c0"/>
<circle cx="1028" cy="496" r="10" class="c0"/>
<circle cx="984" cy="1142" r="10" class="c0"/>
<circle cx="1126" cy="776" r="10" class="c0"/>
<circle cx="940" cy="1420" r="10" class="c0"/>
<circle cx="912" cy="834" r="10" class="c0"/>
<circle cx="852" cy="1040" r="10" class="c0"/>
<circle cx="1004" cy="494" r="10" class="c0"/>
<circle cx="830" cy="788" r="10" class="c0"/>
<circle cx="1036" cy="1328" r="10" class="c0"/>
<circle cx="962" cy="1212" r="10" class="c0"/>
<circle cx="898" cy="760" r="10" class="c0"/>
<circle cx="748" cy="216" r="10" class="c0"/>
<circle cx="1106" cy="634" r="10" class="c0"/>
<circle cx="850" cy="336" r="10" class="c0"/>
<circle cx="1150" cy="714" r="10" class="c0"/>
<circle cx="888" cy="1426" r="10" class="c0"/>
<circle cx="848" cy="232" r="10" class="c0"/>
<circle cx="788" cy="398" r="10" class="c0"/>
<circle cx="968" cy="738" r="10" class="c0"/>
<circle cx="1042" cy="396" r="10" class="c0"/>
<circle cx="854" cy="820" r="10" class="c0"/>
<circle cx="1108" cy="1290" r="10" class="c0"/>
<circle cx="1052" cy="652" r="10" class="c0"/>
<circle cx="1084" cy="1406" r="10" class="c0"/>
<circle cx="984" cy="1266" r="10" class="c0"/>
<circle cx="1022" cy="1394" r="10" class="c0"/>
<circle cx="1064" cy="878" r="10" class="c0"/>
<circle cx="870" cy="1088" r="10" class="c0"/>
<circle cx="976" cy="298" r="10" class="c0"/>
<circle cx="906" cy="1202" r="10" class="c0"/>
<circle cx="964" cy="682" r="10" class="c0"/>
<circle cx="840" cy="1060" r="10" class="c0"/>
<circle cx="932" cy="294" r="10" class="c0"/>
<circle cx="904" cy="1092" r="10" class="c0"/>
<circle cx="846" cy="264" r="10" class="c0"/>
<circle cx="964" cy="1170" r="10" class="c0"/>
<circle cx="906" cy="724" r="10" class="c0"/>
<circle cx="832" cy="454" r="10" class="c0"/>
<circle cx="778" cy="376" r="10" class="c0"/>
<circle cx="1122" cy="808" r="10" class="c0"/>
<circle cx="924" cy="986" r="10" class="c0"/>
<circle cx="982" cy="338" r="10" class="c0"/>
<circle cx="890" cy="996" r="10" class="c0"/>
<circle cx="824" cy="404" r="10" class="c0"/>
<circle cx="932" cy="1228" r="10" class="c0"/>
<circle cx="1014" cy="1374" r="10" class="c0"/>
<circle cx="1016" cy="916" r="10" class="c0"/>
<circle cx="1042" cy="598" r="10" class="c0"/>
<circle cx="738" cy="392" r="10" class="c0"/>
<circle cx="878" cy="1052" r="10" class="c0"/>
<circle cx="974" cy="1428" r="10" class="c0"/>
<circle cx="1050" cy="862" r="10" class="c0"/>
<circle cx="912" cy="1280" r="10" class="c0"/>
<circle cx="1004" cy="1070" r="10" class="c0"/>
<circle cx="838" cy="586" r="10" class="c0"/>
<circle cx="976" cy="712" r="10" class="c0"/>
<circle cx="876" cy="484" r="10" class="c0"/>
<circle cx="1022" cy="1090" r="10" class="c0"/>
<circle cx="930" cy="526" r="10" class="c0"/>
<circle cx="1116" cy="668" r="10" class="c0"/>
<circle cx="860" cy="394" r="10" class="c0"/>
<circle cx="960" cy="1282" r="10" class="c0"/>
<circle cx="894" cy="228" r="10" class="c0"/>
<circle cx="842" cy="1364" r="10" class="c0"/>
<circle cx="970" cy="446" r="10" class="c0"/>
<circle cx="1014" cy="1032" r="10" class="c0"/>
<circle cx="1090" cy="876" r="10" class="c0"/>
<circle cx="1090" cy="746" r="10" class="c0"/>
<circle cx="996" cy="564" r="10" class="c0"/>
<circle cx="1058" cy="766" r="10" class="c0"/>
<circle cx="1094" cy="1382" r="10" class="c0"/>
<circle cx="1112" cy="960" r="10" class="c0"/>
<circle cx="802" cy="360" r="10" class="c0"/>
<circle cx="890" cy="818" r="10" class="c0"/>
<circle cx="1082" cy="1350" r="8" class="c0"/>
<circle cx="922" cy="1188" r="8" class="c0"/>
<circle cx="958" cy="1078" r="8" class="c0"/>
<circle cx="896" cy="692" r="8" class="c0"/>
<circle cx="816" cy="1328" r="8" class="c0"/>
<circle cx="1078" cy="1068" r="8" class="c0"/>
<circle cx="994" cy="240" r="8" class="c0"/>
<circle cx="1040" cy="1214" r="8" class="c0"/>
<circle cx="1028" cy="1164" r="8" class="c0"/>
<circle cx="830" cy="224" r="8" class="c0"/>
<circle cx="1100" cy="576" r="8" class="c0"/>
<circle cx="974" cy="1008" r="8" class="c0"/>
<circle cx="1040" cy="314" r="8" class="c0"/>
<circle cx="922" cy="1052" r="8" class="c0"/>
<circle cx="1154" cy="762" r="8" class="c0"/>
<circle cx="878" cy="704" r="8" class="c0"/>
<circle cx="784" cy="334" r="8" class="c0"/>
<circle cx="1010" cy="816" r="8" class="c0"/>
<circle cx="822" cy="1272" r="8" class="c0"/>
<circle cx="984" cy="486" r="8" class="c0"/>
<circle cx="918" cy="184" r="8" class="c0"/>
<circle cx="1054" cy="612" r="8" class="c0"/>
<circle cx="904" cy="856" r="8" class="c0"/>
<circle cx="998" cy="1104" r="8" class="c0"/>
<circle cx="912" cy="248" r="8" class="c0"/>
<circle cx="1108" cy="1170" r="8" class="c0"/>
<circle cx="860" cy="140" r="8" class="c0"/>
<circle cx="1014" cy="1204" r="8" class="c0"/>
<circle cx="862" cy="860" r="8" class="c0"/>
<circle cx="942" cy="816" r="8" class="c0"/>
<circle cx="1094" cy="802" r="8" class="c0"/>
<circle cx="1076" cy="432" r="8" class="c0"/>
<circle cx="1062" cy="1134" r="8" class="c0"/>
<circle cx="786" cy="302" r="8" class="c0"/>
<circle cx="940" cy="316" r="8" class="c0"/>
<circle cx="1128" cy="638" r="8" class="c0"/>
<circle cx="1176" cy="778" r="8" class="c0"/>
<circle cx="1006" cy="518" r="8" class="c0"/>
<circle cx="822" cy="242" r="8" class="c0"/>
<circle cx="974" cy="1370" r="8" class="c0"/>
<circle cx="846" cy="982" r="8" class="c0"/>
<circle cx="930" cy="1344" r="8" class="c0"/>
<circle cx="1020" cy="800" r="8" class="c0"/>
<circle cx="868" cy="1252" r="8" class="c0"/>
<circle cx="828" cy="732" r="8" class="c0"/>
<circle cx="1008" cy="898" r="8" class="c0"/>
<circle cx="898" cy="178" r="8" class="c0"/>
<circle cx="896" cy="1390" r="8" class="c0"/>
<circle cx="1044" cy="1024" r="8" class="c0"/>
<circle cx="978" cy="1232" r="8" class="c0"/>
<circle cx="912" cy="1416" r="8" class="c0"/>
<circle cx="890" cy="260" r="8" class="c0"/>
<circle cx="862" cy="1358" r="8" class="c0"/>
<circle cx="1078" cy="508" r="8" class="c0"/>
<circle cx="826" cy="266" r="8" class="c0"/>
<circle cx="1012" cy="1264" r="8" class="c0"/>
<circle cx="1108" cy="1140" r="8" class="c0"/>
<circle cx="864" cy="1284" r="8" class="c0"/>
<circle cx="744" cy="412" r="8" class="c0"/>
<circle cx="950" cy="912" r="8" class="c0"/>
<circle cx="1148" cy="812" r="8" class="c0"/>
<circle cx="1054" cy="1086" r="8" class="c0"/>
<circle cx="1072" cy="1244" r="8" class="c0"/>
<circle cx="968" cy="522" r="8" class="c0"/>
<circle cx="950" cy="472" r="8" class="c0"/>
<circle cx="822" cy="292" r="8" class="c0"/>
<circle cx="990" cy="1298" r="8" class="c0"/>
<circle cx="1042" cy="1304" r="8" class="c0"/>
<circle cx="932" cy="618" r="8" class="c0"/>
<circle cx="996" cy="1226" r="8" class="c0"/>
<circle cx="1102" cy="1036" r="8" class="c0"/>
<circle cx="990" cy="418" r="8" class="c0"/>
<circle cx="940" cy="1086" r="8" class="c0"/>
<circle cx="836" cy="756" r="8" class="c0"/>
<circle cx="904" cy="906" r="8" class="c0"/>
<circle cx="1002" cy="1362" r="8" class="c0"/>
<circle cx="858" cy="1242" r="8" class="c0"/>
<circle cx="940" cy="426" r="8" class="c0"/>
<circle cx="964" cy="876" r="8" class="c0"/>
<circle cx="924" cy="912" r="8" class="c0"/>
<circle cx="1052" cy="1226" r="8" class="c0"/>
<circle cx="900" cy="968" r="8" class="c0"/>
<circle cx="830" cy="688" r="8" class="c0"/>
<circle cx="908" cy="1066" r="8" class="c0"/>
<circle cx="928" cy="458" r="8" class="c0"/>
<circle cx="990" cy="1044" r="8" class="c0"/>
<circle cx="996" cy="468" r="8" class="c0"/>
<circle cx="912" cy="1324" r="8" class="c0"/>
<circle cx="1062" cy="404" r="8" class="c0"/>
<circle cx="1080" cy="1112" r="8" class="c0"/>
<circle cx="1064" cy="1426" r="8" class="c0"/>
<circle cx="1092" cy="470" r="8" class="c0"/>
<circle cx="960" cy="1140" r="8" class="c0"/>
<circle cx="858" cy="448" r="8" class="c0"/>
<circle cx="1140" cy="796" r="8" class="c0"/>
<circle cx="1052" cy="704" r="8" class="c0"/>
<circle cx="1052" cy="1122" r="8" class="c0"/>
<circle cx="854" cy="494" r="8" class="c0"/>
<circle cx="1070" cy="1032" r="8" class="c0"/>
<circle cx="872" cy="334" r="8" class="c0"/>
<circle cx="896" cy="1040" r="8" class="c0"/>
<circle cx="1070" cy="778" r="8" class="c0"/>
<circle cx="844" cy="190" r="8" class="c0"/>
<circle cx="1036" cy="750" r="8" class="c0"/>
<circle cx="800" cy="1114" r="8" class="c0"/>
<circle cx="1086" cy="1316" r="8" class="c0"/>
<circle cx="1138" cy="626" r="8" class="c0"/>
<circle cx="906" cy="682" r="8" class="c0"/>
<circle cx="822" cy="344" r="8" class="c0"/>
<circle cx="930" cy="594" r="8" class="c0"/>
<circle cx="840" cy="1174" r="8" class="c0"/>
<circle cx="914" cy="662" r="8" class="c0"/>
<circle cx="886" cy="466" r="8" class="c0"/>
<circle cx="842" cy="208" r="8" class="c0"/>
<circle cx="808" cy="1166" r="8" class="c0"/>
<circle cx="1054" cy="680" r="8" class="c0"/>
<circle cx="854" cy="758" r="8" class="c0"/>
<circle cx="858" cy="300" r="8" class="c0"/>
<circle cx="948" cy="224" r="8" class="c0"/>
<circle cx="768" cy="308" r="8" class="c0"/>
<circle cx="926" cy="1100" r="8" class="c0"/>
<circle cx="984" cy="688" r="8" class="c0"/>
<circle cx="764" cy="360" r="8" class="c0"/>
<circle cx="878" cy="1146" r="8" class="c0"/>
<circle cx="1092" cy="1240" r="8" class="c0"/>
<circle cx="1152" cy="740" r="8" class="c0"/>
<circle cx="834" cy="808" r="8" class="c0"/>
<circle cx="1092" cy="1046" r="8" class="c0"/>
<circle cx="946" cy="1036" r="8" class="c0"/>
<circle cx="1112" cy="696" r="8" class="c0"/>
<circle cx="962" cy="1096" r="8" class="c0"/>
<circle cx="834" cy="852" r="8" class="c0"/>
<circle cx="914" cy="1112" r="8" class="c0"/>
<circle cx="992" cy="354" r="8" class="c0"/>
<circle cx="1142" cy="694" r="8" class="c0"/>
<circle cx="1004" cy="670" r="8" class="c0"/>
<circle cx="946" cy="872" r="8" class="c0"/>
<circle cx="1028" cy="462" r="8" class="c0"/>
<circle cx="796" cy="424" r="8" class="c0"/>
<circle cx="1096" cy="1302" r="8" class="c0"/>
<circle cx="994" cy="1346" r="8" class="c0"/>
<circle cx="862" cy="642" r="8" class="c0"/>
<circle cx="932" cy="1254" r="8" class="c0"/>
<circle cx="1042" cy="1386" r="8" class="c0"/>
<circle cx="1004" cy="764" r="8" class="c0"/>
<circle cx="878" cy="574" r="8" class="c0"/>
<circle cx="834" cy="956" r="8" class="c0"/>
<circle cx="1024" cy="762" r="8" class="c0"/>
<circle cx="866" cy="694" r="8" class="c0"/>
<circle cx="1118" cy="916" r="8" class="c0"/>
<circle cx="756" cy="198" r="8" class="c0"/>
<circle cx="864" cy="242" r="8" class="c0"/>
<circle cx="866" cy="430" r="8" class="c0"/>
<circle cx="1040" cy="694" r="8" class="c0"/>
<circle cx="1022" cy="282" r="8" class="c0"/>
<circle cx="828" cy="610" r="8" class="c0"/>
<circle cx="922" cy="258" r="8" class="c0"/>
<circle cx="1016" cy="976" r="8" class="c0"/>
<circle cx="974" cy="1086" r="8" class="c0"/>
<circle cx="1070" cy="1392" r="8" class="c0"/>
<circle cx="1036" cy="1134" r="8" class="c0"/>
<circle cx="1020" cy="1346" r="8" class="c0"/>
<circle cx="946" cy="340" r="8" class="c0"/>
<circle cx="1022" cy="562" r="8" class="c0"/>
<circle cx="1114" cy="714" r="8" class="c0"/>
<circle cx="1072" cy="478" r="8" class="c0"/>
<circle cx="1076" cy="1374" r="8" class="c0"/>
<circle cx="930" cy="1290" r="8" class="c0"/>
<circle cx="1162" cy="796" r="8" class="c0"/>
<circle cx="984" cy="952" r="8" class="c0"/>
<circle cx="1032" cy="546" r="8" class="c0"/>
<circle cx="858" cy="200" r="8" class="c0"/>
<circle cx="802" cy="276" r="8" class="c0"/>
<circle cx="964" cy="856" r="8" class="c0"/>
<circle cx="932" cy="506" r="8" class="c0"/>
<circle cx="814" cy="194" r="8" class="c0"/>
<circle cx="830" cy="1250" r="8" class="c0"/>
<circle cx="924" cy="328" r="8" class="c0"/>
<circle cx="1038" cy="474" r="8" class="c0"/>
<circle cx="924" cy="230" r="8" class="c0"/>
<circle cx="810" cy="724" r="8" class="c0"/>
<circle cx="958" cy="808" r="8" class="c0"/>
<circle cx="806" cy="336" r="8" class="c0"/>
<circle cx="830" cy="1158" r="8" class="c0"/>
<circle cx="1040" cy="630" r="8" class="c0"/>
<circle cx="866" cy="1430" r="8" class="c0"/>
<circle cx="812" cy="702" r="8" class="c0"/>
<circle cx="820" cy="768" r="8" class="c0"/>
<circle cx="970" cy="1126" r="8" class="c0"/>
<circle cx="840" cy="1264" r="8" class="c0"/>
<circle cx="912" cy="1014" r="8" class="c0"/>
<circle cx="936" cy="972" r="8" class="c0"/>
<circle cx="882" cy="1164" r="8" class="c0"/>
<circle cx="1160" cy="690" r="8" class="c0"/>
<circle cx="910" cy="294" r="8" class="c0"/>
<circle cx="764" cy="394" r="8" class="c0"/>
<circle cx="960" cy="462" r="8" class="c0"/>
<circle cx="876" cy="978" r="8" class="c0"/>
<circle cx="850" cy="284" r="8" class="c0"/>
<circle cx="1026" cy="882" r="8" class="c0"/>
<circle cx="976" cy="1310" r="8" class="c0"/>
<circle cx="866" cy="504" r="8" class="c0"/>
<circle cx="1016" cy="596" r="8" class="c0"/>
<circle cx="736" cy="312" r="8" class="c0"/>
<circle cx="958" cy="618" r="8" class="c0"/>
<circle cx="950" cy="1308" r="8" class="c0"/>
<circle cx="838" cy="1330" r="8" class="c0"/>
<circle cx="1032" cy="1280" r="8" class="c0"/>
<circle cx="1020" cy="534" r="8" class="c0"/>
<circle cx="1040" cy="718" r="8" class="c0"/>
<circle cx="1118" cy="622" r="8" class="c0"/>
<circle cx="950" cy="1246" r="8" class="c0"/>
<circle cx="950" cy="1266" r="8" class="c0"/>
<circle cx="890" cy="558" r="8" class="c0"/>
<circle cx="972" cy="1352" r="8" class="c0"/>
<circle cx="992" cy="782" r="8" class="c0"/>
<circle cx="960" cy="564" r="8" class="c0"/>
<circle cx="812" cy="1190" r="8" class="c0"/>
<circle cx="852" cy="124" r="8" class="c0"/>
<circle cx="1068" cy="988" r="8" class="c0"/>
<circle cx="1006" cy="584" r="8" class="c0"/>
<circle cx="872" cy="630" r="8" class="c0"/>
<circle cx="908" cy="1252" r="8" class="c0"/>
<circle cx="1046" cy="1064" r="8" class="c0"/>
<circle cx="1032" cy="968" r="8" class="c0"/>
<circle cx="1066" cy="1362" r="8" class="c0"/>
<circle cx="728" cy="376" r="8" class="c0"/>
<circle cx="1030" cy="1014" r="8" class="c0"/>
<circle cx="1066" cy="746" r="8" class="c0"/>
<circle cx="840" cy="432" r="8" class="c0"/>
<circle cx="864" cy="538" r="8" class="c0"/>
<circle cx="1032" cy="1356" r="8" class="c0"/>
<circle cx="856" cy="1166" r="8" class="c0"/>
<circle cx="1000" cy="1248" r="8" class="c0"/>
<circle cx="946" cy="728" r="8" class="c0"/>
<circle cx="872" cy="1302" r="8" class="c0"/>
<circle cx="982" cy="764" r="8" class="c0"/>
<circle cx="1114" cy="1376" r="8" class="c0"/>
<circle cx="880" cy="684" r="8" class="c0"/>
<circle cx="1034" cy="520" r="8" class="c0"/>
<circle cx="1102" cy="1106" r="8" class="c0"/>
<circle cx="854" cy="958" r="8" class="c0"/>
<circle cx="922" cy="778" r="8" class="c0"/>
<circle cx="838" cy="304" r="8" class="c0"/>
<circle cx="982" cy="670" r="8" class="c0"/>
<circle cx="1108" cy="1204" r="8" class="c0"/>
<circle cx="1064" cy="1208" r="8" class="c0"/>
<circle cx="1002" cy="718" r="8" class="c0"/>
<circle cx="926" cy="1396" r="8" class="c0"/>
<circle cx="1060" cy="1298" r="8" class="c0"/>
<circle cx="942" cy="1326" r="8" class="c0"/>
<circle cx="834" cy="1386" r="8" class="c0"/>
<circle cx="896" cy="788" r="8" class="c0"/>
<circle cx="1172" cy="736" r="8" class="c0"/>
<circle cx="1140" cy="854" r="8" class="c0"/>
<circle cx="1104" cy="898" r="8" class="c0"/>
<circle cx="906" cy="462" r="8" class="c0"/>
<circle cx="1074" cy="1050" r="8" class="c0"/>
<circle cx="1092" cy="490" r="8" class="c0"/>
<circle cx="922" cy="1168" r="8" class="c0"/>
<circle cx="842" cy="1284" r="8" class="c0"/>
<circle cx="1006" cy="994" r="8" class="c0"/>
<circle cx="1110" cy="752" r="8" class="c0"/>
<circle cx="956" cy="594" r="8" class="c0"/>
<circle cx="972" cy="1254" r="8" class="c0"/>
<circle cx="974" cy="1192" r="8" class="c0"/>
<circle cx="828" cy="1076" r="8" class="c0"/>
<circle cx="1094" cy="516" r="8" class="c0"/>
<circle cx="1066" cy="576" r="8" class="c0"/>
<circle cx="854" cy="168" r="8" class="c0"/>
<circle cx="894" cy="1216" r="8" class="c0"/>
<circle cx="1000" cy="396" r="8" class="c0"/>
<circle cx="906" cy="598" r="8" class="c0"/>
<circle cx="816" cy="650" r="8" class="c0"/>
<circle cx="928" cy="1024" r="8" class="c0"/>
<circle cx="996" cy="1388" r="8" class="c0"/>
<circle cx="874" cy="808" r="8" class="c0"/>
<circle cx="1078" cy="646" r="8" class="c0"/>
<circle cx="1040" cy="922" r="8" class="c0"/>
<circle cx="1054" cy="1372" r="8" class="c0"/>
<circle cx="1106" cy="1082" r="8" class="c0"/>
<circle cx="1056" cy="346" r="8" class="c0"/>
<circle cx="874" cy="218" r="8" class="c0"/>
<circle cx="1016" cy="630" r="8" class="c0"/>
<circle cx="914" cy="350" r="8" class="c0"/>
<circle cx="996" cy="1162" r="8" class="c0"/>
<circle cx="1110" cy="1352" r="8" class="c0"/>
<circle cx="894" cy="880" r="8" class="c0"/>
<circle cx="1108" cy="940" r="8" class="c0"/>
<circle cx="1142" cy="750" r="8" class="c0"/>
<circle cx="1076" cy="566" r="8" class="c0"/>
<circle cx="804" cy="1426" r="8" class="c0"/>
<circle cx="1020" cy="1122" r="8" class="c0"/>
<circle cx="940" cy="902" r="8" class="c0"/>
<circle cx="1012" cy="730" r="8" class="c0"/>
<circle cx="1082" cy="452" r="8" class="c0"/>
<circle cx="856" cy="1072" r="8" class="c0"/>
<circle cx="1106" cy="984" r="8" class="c0"/>
<circle cx="1030" cy="1426" r="8" class="c0"/>
<circle cx="1092" cy="554" r="8" class="c0"/>
<circle cx="996" cy="962" r="8" class="c0"/>
<circle cx="942" cy="698" r="8" class="c0"/>
<circle cx="950" cy="892" r="8" class="c0"/>
<circle cx="852" cy="1348" r="8" class="c0"/>
<circle cx="978" cy="554" r="8" class="c0"/>
<circle cx="1056" cy="1052" r="8" class="c0"/>
<circle cx="1130" cy="706" r="8" class="c0"/>
<circle cx="1092" cy="848" r="8" class="c0"/>
<circle cx="1034" cy="672" r="8" class="c0"/>
<circle cx="864" cy="1336" r="8" class="c0"/>
<circle cx="926" cy="932" r="8" class="c0"/>
<circle cx="940" cy="1386" r="8" class="c0"/>
<circle cx="866" cy="372" r="8" class="c0"/>
<circle cx="956" cy="1024" r="8" class="c0"/>
<circle cx="974" cy="628" r="8" class="c0"/>
<circle cx="956" cy="714" r="8" class="c0"/>
<circle cx="922" cy="406" r="8" class="c0"/>
<circle cx="1104" cy="1064" r="8" class="c0"/>
<circle cx="1094" cy="1020" r="8" class="c0"/>
<circle cx="1034" cy="852" r="8" class="c0"/>
<circle cx="940" cy="248" r="8" class="c0"/>
<circle cx="924" cy="714" r="8" class="c0"/>
<circle cx="750" cy="300" r="8" class="c0"/>
<circle cx="832" cy="832" r="8" class="c0"/>
<circle cx="1030" cy="1246" r="8" class="c0"/>
<circle cx="1004" cy="792" r="8" class="c0"/>
<circle cx="858" cy="676" r="8" class="c0"/>
<circle cx="846" cy="742" r="8" class="c0"/>
<circle cx="850" cy="1394" r="8" class="c0"/>
<circle cx="1132" cy="682" r="8" class="c0"/>
<circle cx="958" cy="1114" r="8" class="c0"/>
<circle cx="960" cy="288" r="8" class="c0"/>
<circle cx="958" cy="422" r="8" class="c0"/>
<circle cx="896" cy="1242" r="8" class="c0"/>
<circle cx="1006" cy="258" r="8" class="c0"/>
<circle cx="824" cy="634" r="8" class="c0"/>
<circle cx="754" cy="372" r="8" class="c0"/>
<circle cx="1092" cy="1124" r="8" class="c0"/>
<circle cx="948" cy="1402" r="8" class="c0"/>
<circle cx="1120" cy="850" r="8" class="c0"/>
<circle cx="1000" cy="1124" r="8" class="c0"/>
<circle cx="816" cy="814" r="8" class="c0"/>
<circle cx="970" cy="918" r="8" class="c0"/>
<circle cx="1018" cy="944" r="8" class="c0"/>
<circle cx="802" cy="164" r="8" class="c0"/>
<circle cx="880" cy="448" r="8" class="c0"/>
<circle cx="830" cy="1228" r="8" class="c0"/>
<circle cx="768" cy="266" r="8" class="c0"/>
<circle cx="836" cy="1122" r="8" class="c0"/>
<circle cx="846" cy="566" r="8" class="c0"/>
<circle cx="820" cy="468" r="8" class="c0"/>
<circle cx="1106" cy="528" r="8" class="c0"/>
<circle cx="962" cy="384" r="8" class="c0"/>
<circle cx="890" cy="306" r="8" class="c0"/>
<circle cx="804" cy="298" r="8" class="c0"/>
<circle cx="810" cy="258" r="8" class="c0"/>
<circle cx="1026" cy="992" r="8" class="c0"/>
<circle cx="850" cy="1014" r="8" class="c0"/>
<circle cx="988" cy="1410" r="8" class="c0"/>
<circle cx="1022" cy="438" r="8" class="c0"/>
<circle cx="1138" cy="914" r="8" class="c0"/>
<circle cx="902" cy="1338" r="8" class="c0"/>
<circle cx="1012" cy="364" r="8" class="c0"/>
<circle cx="932" cy="1316" r="8" class="c0"/>
<circle cx="902" cy="406" r="8" class="c0"/>
<circle cx="942" cy="584" r="8" class="c0"/>
<circle cx="1062" cy="1110" r="8" class="c0"/>
<circle cx="892" cy="840" r="8" class="c0"/>
<circle cx="1022" cy="1228" r="8" class="c0"/>
<circle cx="828" cy="1408" r="8" class="c0"/>
<circle cx="1004" cy="1280" r="8" class="c0"/>
<circle cx="1030" cy="704" r="8" class="c0"/>
<circle cx="1054" cy="1154" r="8" class="c0"/>
<circle cx="980" cy="1106" r="8" class="c0"/>
<circle cx="894" cy="1294" r="8" class="c0"/>
<circle cx="1056" cy="826" r="8" class="c0"/>
<circle cx="962" cy="482" r="8" class="c0"/>
<circle cx="1124" cy="572" r="8" class="c0"/>
<circle cx="818" cy="1370" r="8" class="c0"/>
<circle cx="994" cy="698" r="8" class="c0"/>
<circle cx="832" cy="118" r="8" class="c0"/>
<circle cx="996" cy="908" r="8" class="c0"/>
<circle cx="886" cy="1074" r="8" class="c0"/>
<circle cx="924" cy="1078" r="8" class="c0"/>
<circle cx="882" cy="384" r="8" class="c0"/>
<circle cx="866" cy="914" r="8" class="c0"/>
<circle cx="800" cy="780" r="8" class="c0"/>
<circle cx="824" cy="206" r="8" class="c0"/>
<circle cx="1072" cy="682" r="8" class="c0"/>
<circle cx="1022" cy="720" r="8" class="c0"/>
<circle cx="1154" cy="864" r="8" class="c0"/>
<circle cx="1090" cy="614" r="8" class="c0"/>
<circle cx="856" cy="356" r="8" class="c0"/>
<circle cx="1094" cy="1360" r="8" class="c0"/>
<circle cx="822" cy="434" r="8" class="c0"/>
<circle cx="1036" cy="1042" r="8" class="c0"/>
<circle cx="1176" cy="758" r="8" class="c0"/>
<circle cx="1010" cy="458" r="8" class="c0"/>
<circle cx="1106" cy="732" r="8" class="c0"/>
<circle cx="916" cy="610" r="8" class="c0"/>
<circle cx="1138" cy="972" r="8" class="c0"/>
<circle cx="880" cy="1400" r="8" class="c0"/>
<circle cx="1118" cy="1410" r="8" class="c0"/>
<circle cx="1110" cy="1250" r="8" class="c0"/>
<circle cx="1014" cy="774" r="8" class="c0"/>
<circle cx="1018" cy="836" r="8" class="c0"/>
<circle cx="898" cy="1264" r="8" class="c0"/>
<circle cx="794" cy="322" r="8" class="c0"/>
<circle cx="928" cy="1376" r="8" class="c0"/>
<circle cx="904" cy="1304" r="8" class="c0"/>
<circle cx="968" cy="244" r="8" class="c0"/>
<circle cx="984" cy="458" r="8" class="c0"/>
<circle cx="916" cy="312" r="8" class="c0"/>
<circle cx="1108" cy="1224" r="8" class="c0"/>
<circle cx="1060" cy="798" r="8" class="c0"/>
<circle cx="944" cy="444" r="8" class="c0"/>
<circle cx="798" cy="714" r="8" class="c0"/>
<circle cx="808" cy="1310" r="8" class="c0"/>
<circle cx="810" cy="1102" r="8" class="c0"/>
<circle cx="1052" cy="418" r="8" class="c0"/>
<circle cx="912" cy="418" r="8" class="c0"/>
<circle cx="1032" cy="906" r="8" class="c0"/>
<circle cx="966" cy="782" r="8" class="c0"/>
<circle cx="846" cy="1082" r="8" class="c0"/>
<circle cx="984" cy="506" r="8" class="c0"/>
<circle cx="1046" cy="534" r="8" class="c0"/>
<circle cx="836" cy="672" r="6" class="c0"/>
<circle cx="916" cy="508" r="6" class="c0"/>
<circle cx="844" cy="778" r="6" class="c0"/>
<circle cx="1058" cy="522" r="6" class="c0"/>
<circle cx="782" cy="358" r="6" class="c0"/>
<circle cx="1030" cy="1180" r="6" class="c0"/>
<circle cx="730" cy="206" r="6" class="c0"/>
<circle cx="874" cy="770" r="6" class="c0"/>
<circle cx="810" cy="792" r="6" class="c0"/>
<circle cx="876" cy="1130" r="6" class="c0"/>
<circle cx="1028" cy="1262" r="6" class="c0"/>
<circle cx="938" cy="762" r="6" class="c0"/>
<circle cx="870" cy="1176" r="6" class="c0"/>
<circle cx="1116" cy="1046" r="6" class="c0"/>
<circle cx="754" cy="250" r="6" class="c0"/>
<circle cx="1074" cy="1334" r="6" class="c0"/>
<circle cx="1136" cy="898" r="6" class="c0"/>
<circle cx="822" cy="1114" r="6" class="c0"/>
<circle cx="938" cy="1276" r="6" class="c0"/>
<circle cx="870" cy="1268" r="6" class="c0"/>
<circle cx="792" cy="1130" r="6" class="c0"/>
<circle cx="908" cy="1232" r="6" class="c0"/>
<circle cx="884" cy="510" r="6" class="c0"/>
<circle cx="1020" cy="478" r="6" class="c0"/>
<circle cx="812" cy="1262" r="6" class="c0"/>
<circle cx="972" cy="374" r="6" class="c0"/>
<circle cx="964" cy="1380" r="6" class="c0"/>
<circle cx="1066" cy="918" r="6" class="c0"/>
<circle cx="1030" cy="618" r="6" class="c0"/>
<circle cx="1038" cy="802" r="6" class="c0"/>
<circle cx="862" cy="584" r="6" class="c0"/>
<circle cx="866" cy="260" r="6" class="c0"/>
<circle cx="938" cy="1144" r="6" class="c0"/>
<circle cx="1148" cy="782" r="6" class="c0"/>
<circle cx="880" cy="1344" r="6" class="c0"/>
<circle cx="814" cy="1242" r="6" class="c0"/>
<circle cx="994" cy="1088" r="6" class="c0"/>
<circle cx="1112" cy="1432" r="6" class="c0"/>
<circle cx="818" cy="1418" r="6" class="c0"/>
<circle cx="852" cy="1186" r="6" class="c0"/>
<circle cx="908" cy="998" r="6" class="c0"/>
<circle cx="828" cy="384" r="6" class="c0"/>
<circle cx="1152" cy="840" r="6" class="c0"/>
<circle cx="890" cy="206" r="6" class="c0"/>
<circle cx="976" cy="320" r="6" class="c0"/>
<circle cx="946" cy="208" r="6" class="c0"/>
<circle cx="984" cy="996" r="6" class="c0"/>
<circle cx="1046" cy="1430" r="6" class="c0"/>
<circle cx="812" cy="422" r="6" class="c0"/>
<circle cx="1148" cy="636" r="6" class="c0"/>
<circle cx="1024" cy="580" r="6" class="c0"/>
<circle cx="1032" cy="734" r="6" class="c0"/>
<circle cx="1076" cy="396" r="6" class="c0"/>
<circle cx="922" cy="1430" r="6" class="c0"/>
<circle cx="1082" cy="1292" r="6" class="c0"/>
<circle cx="816" cy="154" r="6" class="c0"/>
<circle cx="1110" cy="796" r="6" class="c0"/>
<circle cx="790" cy="1144" r="6" class="c0"/>
<circle cx="986" cy="922" r="6" class="c0"/>
<circle cx="994" cy="604" r="6" class="c0"/>
<circle cx="972" cy="472" r="6" class="c0"/>
<circle cx="1012" cy="426" r="6" class="c0"/>
<circle cx="1056" cy="552" r="6" class="c0"/>
<circle cx="820" cy="1216" r="6" class="c0"/>
<circle cx="946" cy="1342" r="6" class="c0"/>
<circle cx="884" cy="242" r="6" class="c0"/>
<circle cx="962" cy="334" r="6" class="c0"/>
<circle cx="922" cy="1242" r="6" class="c0"/>
<circle cx="1126" cy="754" r="6" class="c0"/>
<circle cx="892" cy="672" r="6" class="c0"/>
<circle cx="802" cy="1376" r="6" class="c0"/>
<circle cx="902" cy="158" r="6" class="c0"/>
<circle cx="954" cy="512" r="6" class="c0"/>
<circle cx="916" cy="1220" r="6" class="c0"/>
<circle cx="794" cy="234" r="6" class="c0"/>
<circle cx="838" cy="1028" r="6" class="c0"/>
<circle cx="938" cy="1182" r="6" class="c0"/>
<circle cx="1064" cy="664" r="6" class="c0"/>
<circle cx="1170" cy="720" r="6" class="c0"/>
<circle cx="1060" cy="956" r="6" class="c0"/>
<circle cx="1000" cy="828" r="6" class="c0"/>
<circle cx="980" cy="366" r="6" class="c0"/>
<circle cx="936" cy="948" r="6" class="c0"/>
<circle cx="864" cy="1412" r="6" class="c0"/>
<circle cx="848" cy="872" r="6" class="c0"/>
<circle cx="1078" cy="862" r="6" class="c0"/>
<circle cx="850" cy="1108" r="6" class="c0"/>
<circle cx="1110" cy="1310" r="6" class="c0"/>
<circle cx="908" cy="706" r="6" class="c0"/>
<circle cx="1008" cy="880" r="6" class="c0"/>
<circle cx="824" cy="908" r="6" class="c0"/>
<circle cx="1094" cy="824" r="6" class="c0"/>
<circle cx="860" cy="974" r="6" class="c0"/>
<circle cx="1164" cy="882" r="6" class="c0"/>
<circle cx="876" cy="600" r="6" class="c0"/>
<circle cx="1096" cy="974" r="6" class="c0"/>
<circle cx="982" cy="612" r="6" class="c0"/>
<circle cx="980" cy="432" r="6" class="c0"/>
<circle cx="978" cy="1160" r="6" class="c0"/>
<circle cx="882" cy="1204" r="6" class="c0"/>
<circle cx="986" cy="1326" r="6" class="c0"/>
<circle cx="1044" cy="840" r="6" class="c0"/>
<circle cx="832" cy="1044" r="6" class="c0"/>
<circle cx="912" cy="528" r="6" class="c0"/>
<circle cx="1036" cy="1080" r="6" class="c0"/>
<circle cx="952" cy="842" r="6" class="c0"/>
<circle cx="1050" cy="326" r="6" class="c0"/>
<circle cx="924" cy="544" r="6" class="c0"/>
<circle cx="912" cy="1382" r="6" class="c0"/>
<circle cx="838" cy="248" r="6" class="c0"/>
<circle cx="978" cy="934" r="6" class="c0"/>
<circle cx="1170" cy="702" r="6" class="c0"/>
<circle cx="780" cy="276" r="6" class="c0"/>
<circle cx="864" cy="466" r="6" class="c0"/>
<circle cx="898" cy="476" r="6" class="c0"/>
<circle cx="1048" cy="1288" r="6" class="c0"/>
<circle cx="912" cy="1036" r="6" class="c0"/>
<circle cx="886" cy="942" r="6" class="c0"/>
<circle cx="1022" cy="742" r="6" class="c0"/>
<circle cx="1068" cy="462" r="6" class="c0"/>
<circle cx="774" cy="350" r="6" class="c0"/>
<circle cx="968" cy="502" r="6" class="c0"/>
<circle cx="1048" cy="510" r="6" class="c0"/>
<circle cx="846" cy="840" r="6" class="c0"/>
<circle cx="1090" cy="1280" r="6" class="c0"/>
<circle cx="1074" cy="926" r="6" class="c0"/>
<circle cx="882" cy="722" r="6" class="c0"/>
<circle cx="986" cy="730" r="6" class="c0"/>
<circle cx="860" cy="1212" r="6" class="c0"/>
<circle cx="1100" cy="652" r="6" class="c0"/>
<circle cx="948" cy="956" r="6" class="c0"/>
<circle cx="798" cy="144" r="6" class="c0"/>
<circle cx="1078" cy="1262" r="6" class="c0"/>
<circle cx="1122" cy="868" r="6" class="c0"/>
<circle cx="978" cy="1284" r="6" class="c0"/>
<circle cx="986" cy="1172" r="6" class="c0"/>
<circle cx="822" cy="1178" r="6" class="c0"/>
<circle cx="854" cy="1272" r="6" class="c0"/>
<circle cx="808" cy="1284" r="6" class="c0"/>
<circle cx="818" cy="1086" r="6" class="c0"/>
<circle cx="916" cy="896" r="6" class="c0"/>
<circle cx="870" cy="880" r="6" class="c0"/>
<circle cx="930" cy="892" r="6" class="c0"/>
<circle cx="1014" cy="960" r="6" class="c0"/>
<circle cx="1044" cy="1174" r="6" class="c0"/>
<circle cx="1102" cy="686" r="6" class="c0"/>
<circle cx="950" cy="408" r="6" class="c0"/>
<circle cx="1042" cy="1270" r="6" class="c0"/>
<circle cx="1084" cy="726" r="6" class="c0"/>
<circle cx="1070" cy="948" r="6" class="c0"/>
<circle cx="872" cy="1034" r="6" class="c0"/>
<circle cx="1034" cy="646" r="6" class="c0"/>
<circle cx="1054" cy="466" r="6" class="c0"/>
<circle cx="894" cy="1142" r="6" class="c0"/>
<circle cx="906" cy="194" r="6" class="c0"/>
<circle cx="820" cy="376" r="6" class="c0"/>
<circle cx="1048" cy="736" r="6" class="c0"/>
<circle cx="1032" cy="1196" r="6" class="c0"/>
<circle cx="848" cy="1224" r="6" class="c0"/>
<circle cx="738" cy="330" r="6" class="c0"/>
<circle cx="942" cy="566" r="6" class="c0"/>
<circle cx="910" cy="742" r="6" class="c0"/>
<circle cx="1054" cy="1034" r="6" class="c0"/>
<circle cx="804" cy="410" r="6" class="c0"/>
<circle cx="1046" cy="810" r="6" class="c0"/>
<circle cx="992" cy="820" r="6" class="c0"/>
<circle cx="848" cy="686" r="6" class="c0"/>
<circle cx="938" cy="656" r="6" class="c0"/>
<circle cx="828" cy="1192" r="6" class="c0"/>
<circle cx="906" cy="984" r="6" class="c0"/>
<circle cx="1028" cy="932" r="6" class="c0"/>
<circle cx="1166" cy="814" r="6" class="c0"/>
<circle cx="1080" cy="1428" r="6" class="c0"/>
<circle cx="926" cy="820" r="6" class="c0"/>
<circle cx="920" cy="1306" r="6" class="c0"/>
<circle cx="1068" cy="702" r="6" class="c0"/>
<circle cx="1106" cy="816" r="6" class="c0"/>
<circle cx="906" cy="326" r="6" class="c0"/>
<circle cx="830" cy="940" r="6" class="c0"/>
<circle cx="1014" cy="1330" r="6" class="c0"/>
<circle cx="1096" cy="950" r="6" class="c0"/>
<circle cx="738" cy="288" r="6" class="c0"/>
<circle cx="872" cy="1006" r="6" class="c0"/>
<circle cx="900" cy="1154" r="6" class="c0"/>
<circle cx="968" cy="990" r="6" class="c0"/>
<circle cx="874" cy="354" r="6" class="c0"/>
<circle cx="994" cy="1192" r="6" class="c0"/>
<circle cx="828" cy="714" r="6" class="c0"/>
<circle cx="912" cy="582" r="6" class="c0"/>
<circle cx="998" cy="888" r="6" class="c0"/>
<circle cx="1014" cy="1410" r="6" class="c0"/>
<circle cx="1040" cy="1416" r="6" class="c0"/>
<circle cx="952" cy="528" r="6" class="c0"/>
<circle cx="860" cy="274" r="6" class="c0"/>
<circle cx="852" cy="802" r="6" class="c0"/>
<circle cx="836" cy="1002" r="6" class="c0"/>
<circle cx="1078" cy="794" r="6" class="c0"/>
<circle cx="976" cy="570" r="6" class="c0"/>
<circle cx="968" cy="944" r="6" class="c0"/>
<circle cx="824" cy="870" r="6" class="c0"/>
<circle cx="1068" cy="1094" r="6" class="c0"/>
<circle cx="1096" cy="538" r="6" class="c0"/>
<circle cx="876" cy="252" r="6" class="c0"/>
<circle cx="826" cy="1318" r="6" class="c0"/>
<circle cx="1082" cy="1134" r="6" class="c0"/>
<circle cx="976" cy="538" r="6" class="c0"/>
<circle cx="944" cy="834" r="6" class="c0"/>
<circle cx="964" cy="1300" r="6" class="c0"/>
<circle cx="1038" cy="1152" r="6" class="c0"/>
<circle cx="892" cy="954" r="6" class="c0"/>
<circle cx="944" cy="800" r="6" class="c0"/>
<circle cx="1096" cy="1214" r="6" class="c0"/>
<circle cx="826" cy="1430" r="6" class="c0"/>
<circle cx="1078" cy="1014" r="6" class="c0"/>
<circle cx="1000" cy="340" r="6" class="c0"/>
<circle cx="798" cy="378" r="6" class="c0"/>
<circle cx="920" cy="1264" r="6" class="c0"/>
<circle cx="1064" cy="1076" r="6" class="c0"/>
<circle cx="1078" cy="764" r="6" class="c0"/>
<circle cx="1046" cy="356" r="6" class="c0"/>
<circle cx="962" cy="1236" r="6" class="c0"/>
<circle cx="1006" cy="1402" r="6" class="c0"/>
<circle cx="868" cy="1156" r="6" class="c0"/>
<circle cx="776" cy="292" r="6" class="c0"/>
<circle cx="1038" cy="428" r="6" class="c0"/>
<circle cx="1078" cy="412" r="6" class="c0"/>
<circle cx="938" cy="922" r="6" class="c0"/>
<circle cx="908" cy="1432" r="6" class="c0"/>
<circle cx="902" cy="1406" r="6" class="c0"/>
<circle cx="844" cy="608" r="6" class="c0"/>
<circle cx="828" cy="664" r="6" class="c0"/>
<circle cx="1132" cy="590" r="6" class="c0"/>
<circle cx="802" cy="242" r="6" class="c0"/>
<circle cx="836" cy="972" r="6" class="c0"/>
<circle cx="802" cy="1360" r="6" class="c0"/>
<circle cx="846" cy="318" r="6" class="c0"/>
<circle cx="800" cy="180" r="6" class="c0"/>
<circle cx="864" cy="1024" r="6" class="c0"/>
<circle cx="1042" cy="880" r="6" class="c0"/>
<circle cx="812" cy="448" r="6" class="c0"/>
<circle cx="792" cy="760" r="6" class="c0"/>
<circle cx="788" cy="284" r="6" class="c0"/>
<circle cx="1036" cy="290" r="6" class="c0"/>
<circle cx="928" cy="380" r="6" class="c0"/>
<circle cx="842" cy="390" r="6" class="c0"/>
<circle cx="960" cy="536" r="6" class="c0"/>
<circle cx="1008" cy="644" r="6" class="c0"/>
<circle cx="1028" cy="1312" r="6" class="c0"/>
<circle cx="952" cy="1226" r="6" class="c0"/>
<circle cx="974" cy="278" r="6" class="c0"/>
<circle cx="1042" cy="1236" r="6" class="c0"/>
<circle cx="746" cy="236" r="6" class="c0"/>
<circle cx="1160" cy="830" r="6" class="c0"/>
<circle cx="882" cy="780" r="6" class="c0"/>
<circle cx="752" cy="426" r="6" class="c0"/>
<circle cx="1032" cy="1408" r="6" class="c0"/>
<circle cx="954" cy="370" r="6" class="c0"/>
<circle cx="822" cy="842" r="6" class="c0"/>
<circle cx="824" cy="132" r="6" class="c0"/>
<circle cx="836" cy="1346" r="6" class="c0"/>
<circle cx="906" cy="1050" r="6" class="c0"/>
<circle cx="1014" cy="612" r="6" class="c0"/>
<circle cx="880" cy="926" r="6" class="c0"/>
<circle cx="864" cy="178" r="6" class="c0"/>
<circle cx="886" cy="1254" r="6" class="c0"/>
<circle cx="852" cy="598" r="6" class="c0"/>
<circle cx="798" cy="1152" r="6" class="c0"/>
<circle cx="1146" cy="956" r="6" class="c0"/>
<circle cx="822" cy="748" r="6" class="c0"/>
<circle cx="1110" cy="1002" r="6" class="c0"/>
<circle cx="944" cy="604" r="6" class="c0"/>
<circle cx="1110" cy="1120" r="6" class="c0"/>
<circle cx="1076" cy="1304" r="6" class="c0"/>
<circle cx="862" cy="1144" r="6" class="c0"/>
<circle cx="1072" cy="1144" r="6" class="c0"/>
<circle cx="892" cy="712" r="6" class="c0"/>
<circle cx="960" cy="1000" r="6" class="c0"/>
<circle cx="910" cy="168" r="6" class="c0"/>
<circle cx="954" cy="326" r="6" class="c0"/>
<circle cx="854" cy="1294" r="6" class="c0"/>
<circle cx="762" cy="344" r="6" class="c0"/>
<circle cx="748" cy="338" r="6" class="c0"/>
<circle cx="946" cy="1292" r="6" class="c0"/>
<circle cx="958" cy="1418" r="6" class="c0"/>
<circle cx="964" cy="580" r="6" class="c0"/>
<circle cx="1010" cy="408" r="6" class="c0"/>
<circle cx="904" cy="518" r="6" class="c0"/>
<circle cx="964" cy="766" r="6" class="c0"/>
<circle cx="870" cy="1318" r="6" class="c0"/>
<circle cx="926" cy="674" r="6" class="c0"/>
<circle cx="842" cy="1240" r="6" class="c0"/>
<circle cx="922" cy="428" r="6" class="c0"/>
<circle cx="910" cy="1398" r="6" class="c0"/>
<circle cx="766" cy="218" r="6" class="c0"/>
<circle cx="886" cy="322" r="6" class="c0"/>
<circle cx="1058" cy="590" r="6" class="c0"/>
<circle cx="948" cy="1104" r="6" class="c0"/>
<circle cx="986" cy="312" r="6" class="c0"/>
<circle cx="926" cy="1130" r="6" class="c0"/>
<circle cx="906" cy="1166" r="6" class="c0"/>
<circle cx="1006" cy="1050" r="6" class="c0"/>
<circle cx="950" cy="298" r="6" class="c0"/>
<circle cx="1118" cy="648" r="6" class="c0"/>
<circle cx="904" cy="566" r="6" class="c0"/>
<circle cx="798" cy="196" r="6" class="c0"/>
<circle cx="1014" cy="750" r="6" class="c0"/>
<circle cx="854" cy="924" r="6" class="c0"/>
<circle cx="996" cy="276" r="6" class="c0"/>
<circle cx="850" cy="380" r="6" class="c0"/>
<circle cx="1128" cy="656" r="6" class="c0"/>
<circle cx="986" cy="1076" r="6" class="c0"/>
<circle cx="956" cy="1432" r="6" class="c0"/>
<circle cx="1028" cy="1072" r="6" class="c0"/>
<circle cx="906" cy="776" r="6" class="c0"/>
<circle cx="1034" cy="1372" r="6" class="c0"/>
<circle cx="1016" cy="1004" r="6" class="c0"/>
<circle cx="968" cy="608" r="6" class="c0"/>
<circle cx="956" cy="792" r="6" class="c0"/>
<circle cx="1066" cy="356" r="6" class="c0"/>
<circle cx="934" cy="1360" r="6" class="c0"/>
<circle cx="1002" cy="374" r="6" class="c0"/>
<circle cx="832" cy="282" r="6" class="c0"/>
<circle cx="1128" cy="1008" r="6" class="c0"/>
<circle cx="880" cy="546" r="6" class="c0"/>
<circle cx="890" cy="732" r="6" class="c0"/>
<circle cx="930" cy="436" r="6" class="c0"/>
<circle cx="784" cy="224" r="6" class="c0"/>
<circle cx="1106" cy="1186" r="6" class="c0"/>
<circle cx="802" cy="1340" r="6" class="c0"/>
<circle cx="1098" cy="718" r="6" class="c0"/>
<circle cx="1016" cy="508" r="6" class="c0"/>
<circle cx="1010" cy="1238" r="6" class="c0"/>
<circle cx="1084" cy="832" r="6" class="c0"/>
<circle cx="890" cy="602" r="6" class="c0"/>
<circle cx="1078" cy="940" r="6" class="c0"/>
<circle cx="1088" cy="632" r="6" class="c0"/>
<circle cx="950" cy="1130" r="6" class="c0"/>
<circle cx="824" cy="924" r="6" class="c0"/>
<circle cx="860" cy="1056" r="6" class="c0"/>
<circle cx="846" cy="944" r="6" class="c0"/>
<circle cx="892" cy="394" r="6" class="c0"/>
<circle cx="986" cy="284" r="6" class="c0"/>
<circle cx="990" cy="1372" r="6" class="c0"/>
<circle cx="856" cy="216" r="6" class="c0"/>
<circle cx="1064" cy="602" r="6" class="c0"/>
<circle cx="1120" cy="742" r="6" class="c0"/>
<circle cx="956" cy="1388" r="6" class="c0"/>
<circle cx="726" cy="322" r="6" class="c0"/>
<circle cx="878" cy="138" r="6" class="c0"/>
<circle cx="1020" cy="322" r="6" class="c0"/>
<circle cx="778" cy="318" r="6" class="c0"/>
<circle cx="852" cy="550" r="6" class="c0"/>
<circle cx="946" cy="854" r="6" class="c0"/>
<circle cx="884" cy="798" r="6" class="c0"/>
<circle cx="1024" cy="784" r="6" class="c0"/>
<circle cx="864" cy="744" r="6" class="c0"/>
</svg>
