<?xml version="1.0" encoding="utf-8"?>
<svg xmlns="http://www.w3.org/2000/svg"
     xmlns:xlink="http://www.w3.org/1999/xlink" width="1920" height="1440" >

            <defs>
            <style type="text/css"><![CDATA[
circle {stroke: none;}
.c0 {fill: #000000;}
]]></style>
            </defs>
<rect x="0" y="0" width="1920" height="1440" fill="white"/>
<circle cx="298" cy="1374" r="12" class="c0"/>
<circle cx="188" cy="1310" r="12" class="c0"/>
<circle cx="238" cy="1400" r="12" class="c0"/>
<circle cx="154" cy="1388" r="12" class="c0"/>
<circle cx="20" cy="62" r="12" class="c0"/>
<circle cx="44" cy="1380" r="12" class="c0"/>
<circle cx="16" cy="1262" r="12" class="c0"/>
<circle cx="1874" cy="1342" r="12" class="c0"/>
<circle cx="70" cy="1258" r="12" class="c0"/>
<circle cx="54" cy="1352" r="12" class="c0"/>
<circle cx="1826" cy="1386" r="12" class="c0"/>
<circle cx="1076" cy="146" r="12" class="c0"/>
<circle cx="504" cy="1380" r="12" class="c0"/>
<circle cx="82" cy="1200" r="12" class="c0"/>
<circle cx="994" cy="1062" r="12" class="c0"/>
<circle cx="86" cy="1410" r="12" class="c0"/>
<circle cx="1748" cy="1370" r="12" class="c0"/>
<circle cx="462" cy="1422" r="12" class="c0"/>
<circle cx="644" cy="1424" r="12" class="c0"/>
<circle cx="1888" cy="1356" r="12" class="c0"/>
<circle cx="96" cy="1372" r="12" class="c0"/>
<circle cx="968" cy="970" r="12" class="c0"/>
<circle cx="1858" cy="1318" r="12" class="c0"/>
<circle cx="30" cy="1244" r="12" class="c0"/>
<circle cx="594" cy="1426" r="12" class="c0"/>
<circle cx="308" cy="1398" r="12" class="c0"/>
<circle cx="202" cy="36" r="12" class="c0"/>
<circle cx="266" cy="1422" r="12" class="c0"/>
<circle cx="1858" cy="1406" r="12" class="c0"/>
<circle cx="1002" cy="946" r="12" class="c0"/>
<circle cx="26" cy="1414" r="12" class="c0"/>
<circle cx="124" cy="1372" r="12" class="c0"/>
<circle cx="32" cy="1130" r="12" class="c0"/>
<circle cx="86" cy="1130" r="12" class="c0"/>
<circle cx="188" cy="1376" r="12" class="c0"/>
<circle cx="1860" cy="1356" r="12" class="c0"/>
<circle cx="988" cy="1016" r="12" class="c0"/>
<circle cx="1724" cy="1402" r="12" class="c0"/>
<circle cx="126" cy="1060" r="12" class="c0"/>
<circle cx="1066" cy="58" r="12" class="c0"/>
<circle cx="1794" cy="1396" r="12" class="c0"/>
<circle cx="48" cy="1152" r="10" class="c0"/>
<circle cx="96" cy="1274" r="10" class="c0"/>
<circle cx="386" cy="1366" r="10" class="c0"/>
<circle cx="30" cy="1324" r="10" class="c0"/>
<circle cx="246" cy="1360" r="10" class="c0"/>
<circle cx="14" cy="1352" r="10" class="c0"/>
<circle cx="288" cy="1410" r="10" class="c0"/>
<circle cx="54" cy="1066" r="10" class="c0"/>
<circle cx="1858" cy="1256" r="10" class="c0"/>
<circle cx="1906" cy="1276" r="10" class="c0"/>
<circle cx="1826" cy="1358" r="10" class="c0"/>
<circle cx="14" cy="954" r="10" class="c0"/>
<circle cx="1020" cy="1050" r="10" class="c0"/>
<circle cx="98" cy="1098" r="10" class="c0"/>
<circle cx="954" cy="1012" r="10" class="c0"/>
<circle cx="36" cy="968" r="10" class="c0"/>
<circle cx="228" cy="1420" r="10" class="c0"/>
<circle cx="1292" cy="1426" r="10" class="c0"/>
<circle cx="258" cy="1338" r="10" class="c0"/>
<circle cx="68" cy="1078" r="10" class="c0"/>
<circle cx="278" cy="1384" r="10" class="c0"/>
<circle cx="1054" cy="108" r="10" class="c0"/>
<circle cx="1100" cy="88" r="10" class="c0"/>
<circle cx="1902" cy="1298" r="10" class="c0"/>
<circle cx="1042" cy="134" r="10" class="c0"/>
<circle cx="30" cy="1000" r="10" class="c0"/>
<circle cx="120" cy="1168" r="10" class="c0"/>
<circle cx="124" cy="1086" r="10" class="c0"/>
<circle cx="498" cy="1404" r="10" class="c0"/>
<circle cx="114" cy="1220" r="10" class="c0"/>
<circle cx="158" cy="1358" r="10" class="c0"/>
<circle cx="158" cy="1306" r="10" class="c0"/>
<circle cx="1878" cy="1382" r="10" class="c0"/>
<circle cx="1906" cy="1398" r="10" class="c0"/>
<circle cx="1820" cy="1270" r="10" class="c0"/>
<circle cx="1758" cy="1428" r="10" class="c0"/>
<circle cx="960" cy="1054" r="10" class="c0"/>
<circle cx="1882" cy="1422" r="10" class="c0"/>
<circle cx="1032" cy="260" r="10" class="c0"/>
<circle cx="30" cy="1044" r="10" class="c0"/>
<circle cx="68" cy="1230" r="10" class="c0"/>
<circle cx="1904" cy="1336" r="10" class="c0"/>
<circle cx="64" cy="1420" r="10" class="c0"/>
<circle cx="172" cy="1272" r="10" class="c0"/>
<circle cx="128" cy="1250" r="10" class="c0"/>
<circle cx="46" cy="1270" r="10" class="c0"/>
<circle cx="82" cy="1322" r="10" class="c0"/>
<circle cx="958" cy="1088" r="10" class="c0"/>
<circle cx="554" cy="1412" r="10" class="c0"/>
<circle cx="142" cy="1414" r="10" class="c0"/>
<circle cx="1834" cy="70" r="10" class="c0"/>
<circle cx="64" cy="1390" r="10" class="c0"/>
<circle cx="1032" cy="1068" r="10" class="c0"/>
<circle cx="984" cy="1082" r="10" class="c0"/>
<circle cx="110" cy="1406" r="10" class="c0"/>
<circle cx="234" cy="116" r="10" class="c0"/>
<circle cx="1848" cy="1376" r="10" class="c0"/>
<circle cx="932" cy="1056" r="10" class="c0"/>
<circle cx="1126" cy="118" r="10" class="c0"/>
<circle cx="514" cy="1416" r="10" class="c0"/>
<circle cx="56" cy="1304" r="10" class="c0"/>
<circle cx="76" cy="1038" r="10" class="c0"/>
<circle cx="10" cy="1228" r="10" class="c0"/>
<circle cx="214" cy="1310" r="10" class="c0"/>
<circle cx="190" cy="1402" r="10" class="c0"/>
<circle cx="1096" cy="62" r="10" class="c0"/>
<circle cx="1804" cy="1326" r="10" class="c0"/>
<circle cx="106" cy="52" r="10" class="c0"/>
<circle cx="572" cy="1394" r="10" class="c0"/>
<circle cx="172" cy="96" r="10" class="c0"/>
<circle cx="1828" cy="1336" r="10" class="c0"/>
<circle cx="10" cy="1394" r="10" class="c0"/>
<circle cx="30" cy="1290" r="10" class="c0"/>
<circle cx="1586" cy="1408" r="10" class="c0"/>
<circle cx="1056" cy="1080" r="10" class="c0"/>
<circle cx="1010" cy="1078" r="10" class="c0"/>
<circle cx="50" cy="1008" r="10" class="c0"/>
<circle cx="1048" cy="84" r="10" class="c0"/>
<circle cx="156" cy="1144" r="10" class="c0"/>
<circle cx="148" cy="1260" r="10" class="c0"/>
<circle cx="378" cy="1386" r="10" class="c0"/>
<circle cx="130" cy="1314" r="10" class="c0"/>
<circle cx="318" cy="1426" r="10" class="c0"/>
<circle cx="100" cy="1310" r="10" class="c0"/>
<circle cx="10" cy="1070" r="10" class="c0"/>
<circle cx="46" cy="1226" r="10" class="c0"/>
<circle cx="1758" cy="1350" r="10" class="c0"/>
<circle cx="270" cy="1316" r="10" class="c0"/>
<circle cx="372" cy="1410" r="10" class="c0"/>
<circle cx="90" cy="1154" r="10" class="c0"/>
<circle cx="32" cy="1186" r="10" class="c0"/>
<circle cx="226" cy="1370" r="10" class="c0"/>
<circle cx="1012" cy="52" r="10" class="c0"/>
<circle cx="20" cy="1204" r="10" class="c0"/>
<circle cx="1784" cy="1416" r="10" class="c0"/>
<circle cx="1884" cy="1278" r="10" class="c0"/>
<circle cx="1812" cy="1418" r="10" class="c0"/>
<circle cx="214" cy="1334" r="10" class="c0"/>
<circle cx="1908" cy="1368" r="10" class="c0"/>
<circle cx="1696" cy="1428" r="10" class="c0"/>
<circle cx="1372" cy="1402" r="10" class="c0"/>
<circle cx="1046" cy="1046" r="10" class="c0"/>
<circle cx="158" cy="1220" r="10" class="c0"/>
<circle cx="108" cy="1118" r="10" class="c0"/>
<circle cx="18" cy="1112" r="10" class="c0"/>
<circle cx="1838" cy="1426" r="10" class="c0"/>
<circle cx="300" cy="1324" r="10" class="c0"/>
<circle cx="1650" cy="1422" r="10" class="c0"/>
<circle cx="1236" cy="1422" r="10" class="c0"/>
<circle cx="176" cy="1346" r="10" class="c0"/>
<circle cx="1398" cy="1412" r="10" class="c0"/>
<circle cx="200" cy="126" r="10" class="c0"/>
<circle cx="442" cy="1390" r="10" class="c0"/>
<circle cx="592" cy="1384" r="10" class="c0"/>
<circle cx="98" cy="1074" r="10" class="c0"/>
<circle cx="134" cy="1288" r="10" class="c0"/>
<circle cx="402" cy="1424" r="10" class="c0"/>
<circle cx="1160" cy="148" r="10" class="c0"/>
<circle cx="216" cy="1390" r="10" class="c0"/>
<circle cx="52" cy="1096" r="10" class="c0"/>
<circle cx="164" cy="1410" r="10" class="c0"/>
<circle cx="1008" cy="1100" r="10" class="c0"/>
<circle cx="1830" cy="1312" r="10" class="c0"/>
<circle cx="428" cy="1424" r="10" class="c0"/>
<circle cx="204" cy="1428" r="10" class="c0"/>
<circle cx="10" cy="310" r="10" class="c0"/>
<circle cx="1004" cy="998" r="10" class="c0"/>
<circle cx="70" cy="1174" r="10" class="c0"/>
<circle cx="1014" cy="142" r="10" class="c0"/>
<circle cx="1038" cy="186" r="10" class="c0"/>
<circle cx="122" cy="1424" r="10" class="c0"/>
<circle cx="94" cy="1048" r="10" class="c0"/>
<circle cx="162" cy="1330" r="10" class="c0"/>
<circle cx="1422" cy="1418" r="10" class="c0"/>
<circle cx="1014" cy="106" r="10" class="c0"/>
<circle cx="70" cy="1112" r="10" class="c0"/>
<circle cx="1066" cy="96" r="10" class="c0"/>
<circle cx="18" cy="162" r="10" class="c0"/>
<circle cx="350" cy="1374" r="10" class="c0"/>
<circle cx="332" cy="1412" r="8" class="c0"/>
<circle cx="1844" cy="1282" r="8" class="c0"/>
<circle cx="1442" cy="1414" r="8" class="c0"/>
<circle cx="1788" cy="1352" r="8" class="c0"/>
<circle cx="62" cy="232" r="8" class="c0"/>
<circle cx="1010" cy="304" r="8" class="c0"/>
<circle cx="170" cy="1180" r="8" class="c0"/>
<circle cx="8" cy="1314" r="8" class="c0"/>
<circle cx="924" cy="1004" r="8" class="c0"/>
<circle cx="554" cy="1376" r="8" class="c0"/>
<circle cx="1660" cy="1402" r="8" class="c0"/>
<circle cx="1362" cy="1386" r="8" class="c0"/>
<circle cx="994" cy="260" r="8" class="c0"/>
<circle cx="86" cy="1344" r="8" class="c0"/>
<circle cx="50" cy="1196" r="8" class="c0"/>
<circle cx="1806" cy="1296" r="8" class="c0"/>
<circle cx="108" cy="1292" r="8" class="c0"/>
<circle cx="108" cy="1246" r="8" class="c0"/>
<circle cx="1248" cy="1382" r="8" class="c0"/>
<circle cx="10" cy="1428" r="8" class="c0"/>
<circle cx="1624" cy="1420" r="8" class="c0"/>
<circle cx="1766" cy="1394" r="8" class="c0"/>
<circle cx="234" cy="1338" r="8" class="c0"/>
<circle cx="1250" cy="1402" r="8" class="c0"/>
<circle cx="22" cy="232" r="8" class="c0"/>
<circle cx="908" cy="1050" r="8" class="c0"/>
<circle cx="42" cy="188" r="8" class="c0"/>
<circle cx="408" cy="1402" r="8" class="c0"/>
<circle cx="16" cy="30" r="8" class="c0"/>
<circle cx="16" cy="1166" r="8" class="c0"/>
<circle cx="10" cy="1016" r="8" class="c0"/>
<circle cx="904" cy="1100" r="8" class="c0"/>
<circle cx="1040" cy="284" r="8" class="c0"/>
<circle cx="1048" cy="984" r="8" class="c0"/>
<circle cx="42" cy="1030" r="8" class="c0"/>
<circle cx="1038" cy="156" r="8" class="c0"/>
<circle cx="140" cy="152" r="8" class="c0"/>
<circle cx="1064" cy="36" r="8" class="c0"/>
<circle cx="98" cy="170" r="8" class="c0"/>
<circle cx="1530" cy="1422" r="8" class="c0"/>
<circle cx="28" cy="398" r="8" class="c0"/>
<circle cx="326" cy="1364" r="8" class="c0"/>
<circle cx="190" cy="62" r="8" class="c0"/>
<circle cx="16" cy="1142" r="8" class="c0"/>
<circle cx="1064" cy="126" r="8" class="c0"/>
<circle cx="624" cy="1374" r="8" class="c0"/>
<circle cx="156" cy="60" r="8" class="c0"/>
<circle cx="228" cy="12" r="8" class="c0"/>
<circle cx="72" cy="1014" r="8" class="c0"/>
<circle cx="208" cy="1356" r="8" class="c0"/>
<circle cx="98" cy="1426" r="8" class="c0"/>
<circle cx="1260" cy="1416" r="8" class="c0"/>
<circle cx="896" cy="1010" r="8" class="c0"/>
<circle cx="56" cy="1126" r="8" class="c0"/>
<circle cx="1092" cy="186" r="8" class="c0"/>
<circle cx="24" cy="262" r="8" class="c0"/>
<circle cx="106" cy="1198" r="8" class="c0"/>
<circle cx="108" cy="1334" r="8" class="c0"/>
<circle cx="1000" cy="8" r="8" class="c0"/>
<circle cx="1106" cy="1060" r="8" class="c0"/>
<circle cx="32" cy="1360" r="8" class="c0"/>
<circle cx="1176" cy="178" r="8" class="c0"/>
<circle cx="1104" cy="162" r="8" class="c0"/>
<circle cx="1320" cy="1408" r="8" class="c0"/>
<circle cx="96" cy="1010" r="8" class="c0"/>
<circle cx="134" cy="1126" r="8" class="c0"/>
<circle cx="1000" cy="1038" r="8" class="c0"/>
<circle cx="8" cy="398" r="8" class="c0"/>
<circle cx="1048" cy="1012" r="8" class="c0"/>
<circle cx="440" cy="1362" r="8" class="c0"/>
<circle cx="1316" cy="1380" r="8" class="c0"/>
<circle cx="1014" cy="168" r="8" class="c0"/>
<circle cx="1888" cy="1226" r="8" class="c0"/>
<circle cx="1452" cy="1424" r="8" class="c0"/>
<circle cx="942" cy="1104" r="8" class="c0"/>
<circle cx="1804" cy="1366" r="8" class="c0"/>
<circle cx="1020" cy="70" r="8" class="c0"/>
<circle cx="1558" cy="1428" r="8" class="c0"/>
<circle cx="78" cy="1296" r="8" class="c0"/>
<circle cx="116" cy="1040" r="8" class="c0"/>
<circle cx="356" cy="1428" r="8" class="c0"/>
<circle cx="916" cy="1078" r="8" class="c0"/>
<circle cx="122" cy="1138" r="8" class="c0"/>
<circle cx="1120" cy="148" r="8" class="c0"/>
<circle cx="982" cy="1046" r="8" class="c0"/>
<circle cx="466" cy="1372" r="8" class="c0"/>
<circle cx="1036" cy="1104" r="8" class="c0"/>
<circle cx="130" cy="1398" r="8" class="c0"/>
<circle cx="330" cy="1320" r="8" class="c0"/>
<circle cx="138" cy="1350" r="8" class="c0"/>
<circle cx="1086" cy="210" r="8" class="c0"/>
<circle cx="30" cy="1094" r="8" class="c0"/>
<circle cx="114" cy="142" r="8" class="c0"/>
<circle cx="1626" cy="1398" r="8" class="c0"/>
<circle cx="258" cy="1372" r="8" class="c0"/>
<circle cx="1740" cy="1418" r="8" class="c0"/>
<circle cx="238" cy="54" r="8" class="c0"/>
<circle cx="48" cy="1410" r="8" class="c0"/>
<circle cx="1348" cy="1422" r="8" class="c0"/>
<circle cx="1110" cy="136" r="8" class="c0"/>
<circle cx="8" cy="1288" r="8" class="c0"/>
<circle cx="128" cy="114" r="8" class="c0"/>
<circle cx="226" cy="80" r="8" class="c0"/>
<circle cx="1020" cy="220" r="8" class="c0"/>
<circle cx="138" cy="1234" r="8" class="c0"/>
<circle cx="1022" cy="14" r="8" class="c0"/>
<circle cx="44" cy="150" r="8" class="c0"/>
<circle cx="52" cy="212" r="8" class="c0"/>
<circle cx="54" cy="1244" r="8" class="c0"/>
<circle cx="22" cy="1374" r="8" class="c0"/>
<circle cx="68" cy="1284" r="8" class="c0"/>
<circle cx="1854" cy="14" r="8" class="c0"/>
<circle cx="566" cy="1426" r="8" class="c0"/>
<circle cx="418" cy="1380" r="8" class="c0"/>
<circle cx="8" cy="206" r="8" class="c0"/>
<circle cx="32" cy="1068" r="8" class="c0"/>
<circle cx="1674" cy="1430" r="8" class="c0"/>
<circle cx="1904" cy="1418" r="8" class="c0"/>
<circle cx="916" cy="1026" r="8" class="c0"/>
<circle cx="148" cy="122" r="8" class="c0"/>
<circle cx="604" cy="1404" r="8" class="c0"/>
<circle cx="1006" cy="280" r="8" class="c0"/>
<circle cx="54" cy="252" r="8" class="c0"/>
<circle cx="1722" cy="1342" r="8" class="c0"/>
<circle cx="110" cy="84" r="8" class="c0"/>
<circle cx="98" cy="1230" r="8" class="c0"/>
<circle cx="1770" cy="1286" r="8" class="c0"/>
<circle cx="94" cy="1180" r="8" class="c0"/>
<circle cx="494" cy="1424" r="8" class="c0"/>
<circle cx="296" cy="1430" r="8" class="c0"/>
<circle cx="30" cy="434" r="8" class="c0"/>
<circle cx="36" cy="302" r="8" class="c0"/>
<circle cx="1672" cy="1412" r="8" class="c0"/>
<circle cx="10" cy="974" r="8" class="c0"/>
<circle cx="1870" cy="1292" r="8" class="c0"/>
<circle cx="1782" cy="1380" r="8" class="c0"/>
<circle cx="46" cy="936" r="8" class="c0"/>
<circle cx="50" cy="1172" r="8" class="c0"/>
<circle cx="28" cy="82" r="8" class="c0"/>
<circle cx="242" cy="92" r="8" class="c0"/>
<circle cx="1886" cy="1402" r="8" class="c0"/>
<circle cx="290" cy="1348" r="8" class="c0"/>
<circle cx="10" cy="920" r="8" class="c0"/>
<circle cx="1392" cy="1382" r="8" class="c0"/>
<circle cx="170" cy="1430" r="8" class="c0"/>
<circle cx="78" cy="122" r="8" class="c0"/>
<circle cx="1148" cy="40" r="8" class="c0"/>
<circle cx="990" cy="100" r="8" class="c0"/>
<circle cx="976" cy="996" r="8" class="c0"/>
<circle cx="186" cy="10" r="8" class="c0"/>
<circle cx="994" cy="176" r="8" class="c0"/>
<circle cx="1784" cy="1320" r="8" class="c0"/>
<circle cx="1606" cy="1424" r="8" class="c0"/>
<circle cx="1904" cy="1218" r="8" class="c0"/>
<circle cx="1012" cy="970" r="8" class="c0"/>
<circle cx="510" cy="16" r="8" class="c0"/>
<circle cx="410" cy="1360" r="8" class="c0"/>
<circle cx="66" cy="1054" r="8" class="c0"/>
<circle cx="1270" cy="1426" r="8" class="c0"/>
<circle cx="90" cy="1248" r="8" class="c0"/>
<circle cx="156" cy="1104" r="8" class="c0"/>
<circle cx="28" cy="336" r="8" class="c0"/>
<circle cx="1280" cy="1394" r="8" class="c0"/>
<circle cx="1800" cy="1430" r="8" class="c0"/>
<circle cx="128" cy="1334" r="8" class="c0"/>
<circle cx="1016" cy="270" r="8" class="c0"/>
<circle cx="204" cy="1284" r="8" class="c0"/>
<circle cx="28" cy="1020" r="8" class="c0"/>
<circle cx="622" cy="1426" r="8" class="c0"/>
<circle cx="638" cy="1362" r="8" class="c0"/>
<circle cx="48" cy="270" r="8" class="c0"/>
<circle cx="1082" cy="44" r="8" class="c0"/>
<circle cx="1074" cy="114" r="8" class="c0"/>
<circle cx="12" cy="418" r="8" class="c0"/>
<circle cx="446" cy="1410" r="8" class="c0"/>
<circle cx="1092" cy="110" r="8" class="c0"/>
<circle cx="1094" cy="1008" r="8" class="c0"/>
<circle cx="18" cy="362" r="8" class="c0"/>
<circle cx="64" cy="154" r="8" class="c0"/>
<circle cx="1058" cy="158" r="8" class="c0"/>
<circle cx="66" cy="190" r="8" class="c0"/>
<circle cx="232" cy="34" r="8" class="c0"/>
<circle cx="68" cy="1148" r="8" class="c0"/>
<circle cx="1054" cy="964" r="8" class="c0"/>
<circle cx="898" cy="1060" r="8" class="c0"/>
<circle cx="190" cy="1334" r="8" class="c0"/>
<circle cx="1774" cy="1362" r="8" class="c0"/>
<circle cx="168" cy="1252" r="8" class="c0"/>
<circle cx="182" cy="1420" r="8" class="c0"/>
<circle cx="1044" cy="326" r="8" class="c0"/>
<circle cx="918" cy="972" r="8" class="c0"/>
<circle cx="122" cy="176" r="8" class="c0"/>
<circle cx="104" cy="102" r="8" class="c0"/>
<circle cx="38" cy="284" r="8" class="c0"/>
<circle cx="1132" cy="1052" r="8" class="c0"/>
<circle cx="184" cy="1238" r="8" class="c0"/>
<circle cx="78" cy="206" r="8" class="c0"/>
<circle cx="1062" cy="238" r="8" class="c0"/>
<circle cx="940" cy="992" r="8" class="c0"/>
<circle cx="100" cy="128" r="8" class="c0"/>
<circle cx="128" cy="1206" r="8" class="c0"/>
<circle cx="1228" cy="1366" r="8" class="c0"/>
<circle cx="84" cy="994" r="8" class="c0"/>
<circle cx="8" cy="1048" r="8" class="c0"/>
<circle cx="934" cy="1028" r="8" class="c0"/>
<circle cx="336" cy="1386" r="8" class="c0"/>
<circle cx="138" cy="1182" r="8" class="c0"/>
<circle cx="74" cy="248" r="8" class="c0"/>
<circle cx="1004" cy="202" r="8" class="c0"/>
<circle cx="1086" cy="1050" r="8" class="c0"/>
<circle cx="1280" cy="1370" r="8" class="c0"/>
<circle cx="24" cy="462" r="8" class="c0"/>
<circle cx="90" cy="190" r="8" class="c0"/>
<circle cx="76" cy="1360" r="8" class="c0"/>
<circle cx="180" cy="1190" r="8" class="c0"/>
<circle cx="1858" cy="1430" r="8" class="c0"/>
<circle cx="1230" cy="1384" r="8" class="c0"/>
<circle cx="8" cy="82" r="8" class="c0"/>
<circle cx="8" cy="1092" r="8" class="c0"/>
<circle cx="334" cy="1346" r="8" class="c0"/>
<circle cx="252" cy="1290" r="8" class="c0"/>
<circle cx="8" cy="1184" r="8" class="c0"/>
<circle cx="310" cy="1354" r="8" class="c0"/>
<circle cx="1884" cy="1306" r="8" class="c0"/>
<circle cx="146" cy="1166" r="8" class="c0"/>
<circle cx="526" cy="34" r="8" class="c0"/>
<circle cx="236" cy="1306" r="8" class="c0"/>
<circle cx="1020" cy="316" r="8" class="c0"/>
<circle cx="198" cy="174" r="8" class="c0"/>
<circle cx="18" cy="388" r="8" class="c0"/>
<circle cx="1078" cy="14" r="8" class="c0"/>
<circle cx="662" cy="1368" r="8" class="c0"/>
<circle cx="1372" cy="1430" r="8" class="c0"/>
<circle cx="146" cy="1068" r="8" class="c0"/>
<circle cx="246" cy="1324" r="8" class="c0"/>
<circle cx="56" cy="1328" r="8" class="c0"/>
<circle cx="1140" cy="96" r="8" class="c0"/>
<circle cx="534" cy="1372" r="8" class="c0"/>
<circle cx="36" cy="926" r="8" class="c0"/>
<circle cx="118" cy="1270" r="8" class="c0"/>
<circle cx="1038" cy="1026" r="8" class="c0"/>
<circle cx="54" cy="366" r="8" class="c0"/>
<circle cx="542" cy="1430" r="8" class="c0"/>
<circle cx="560" cy="24" r="8" class="c0"/>
<circle cx="172" cy="1294" r="8" class="c0"/>
<circle cx="1872" cy="1240" r="8" class="c0"/>
<circle cx="656" cy="1404" r="8" class="c0"/>
<circle cx="66" cy="996" r="8" class="c0"/>
<circle cx="348" cy="1404" r="8" class="c0"/>
<circle cx="118" cy="1344" r="8" class="c0"/>
<circle cx="998" cy="76" r="8" class="c0"/>
<circle cx="1314" cy="1428" r="8" class="c0"/>
<circle cx="1046" cy="46" r="8" class="c0"/>
<circle cx="544" cy="52" r="8" class="c0"/>
<circle cx="1160" cy="122" r="8" class="c0"/>
<circle cx="1904" cy="132" r="8" class="c0"/>
<circle cx="1722" cy="1376" r="8" class="c0"/>
<circle cx="26" cy="40" r="8" class="c0"/>
<circle cx="44" cy="236" r="8" class="c0"/>
<circle cx="508" cy="48" r="8" class="c0"/>
<circle cx="1124" cy="170" r="8" class="c0"/>
<circle cx="46" cy="1430" r="8" class="c0"/>
<circle cx="1042" cy="22" r="8" class="c0"/>
<circle cx="1004" cy="158" r="8" class="c0"/>
<circle cx="1558" cy="1402" r="8" class="c0"/>
<circle cx="1808" cy="1348" r="8" class="c0"/>
<circle cx="160" cy="160" r="8" class="c0"/>
<circle cx="1892" cy="1322" r="8" class="c0"/>
<circle cx="50" cy="1046" r="8" class="c0"/>
<circle cx="1074" cy="1092" r="8" class="c0"/>
<circle cx="32" cy="218" r="8" class="c0"/>
<circle cx="242" cy="22" r="8" class="c0"/>
<circle cx="996" cy="1116" r="8" class="c0"/>
<circle cx="272" cy="1354" r="8" class="c0"/>
<circle cx="1040" cy="66" r="8" class="c0"/>
<circle cx="354" cy="1326" r="8" class="c0"/>
<circle cx="170" cy="1126" r="8" class="c0"/>
<circle cx="898" cy="1032" r="8" class="c0"/>
<circle cx="198" cy="148" r="8" class="c0"/>
<circle cx="18" cy="132" r="8" class="c0"/>
<circle cx="1028" cy="120" r="8" class="c0"/>
<circle cx="518" cy="110" r="8" class="c0"/>
<circle cx="172" cy="68" r="8" class="c0"/>
<circle cx="1044" cy="232" r="8" class="c0"/>
<circle cx="210" cy="72" r="8" class="c0"/>
<circle cx="198" cy="106" r="8" class="c0"/>
<circle cx="168" cy="124" r="8" class="c0"/>
<circle cx="266" cy="1396" r="8" class="c0"/>
<circle cx="1010" cy="246" r="8" class="c0"/>
<circle cx="58" cy="976" r="8" class="c0"/>
<circle cx="62" cy="1026" r="8" class="c0"/>
<circle cx="582" cy="1410" r="8" class="c0"/>
<circle cx="986" cy="54" r="8" class="c0"/>
<circle cx="78" cy="1094" r="8" class="c0"/>
<circle cx="1128" cy="44" r="8" class="c0"/>
<circle cx="112" cy="1020" r="8" class="c0"/>
<circle cx="10" cy="442" r="8" class="c0"/>
<circle cx="158" cy="108" r="8" class="c0"/>
<circle cx="248" cy="66" r="8" class="c0"/>
<circle cx="546" cy="34" r="8" class="c0"/>
<circle cx="56" cy="120" r="8" class="c0"/>
<circle cx="38" cy="388" r="8" class="c0"/>
<circle cx="952" cy="814" r="8" class="c0"/>
<circle cx="1336" cy="1376" r="8" class="c0"/>
<circle cx="12" cy="812" r="8" class="c0"/>
<circle cx="1024" cy="1090" r="8" class="c0"/>
<circle cx="1872" cy="50" r="8" class="c0"/>
<circle cx="1894" cy="1260" r="8" class="c0"/>
<circle cx="612" cy="1360" r="8" class="c0"/>
<circle cx="156" cy="142" r="8" class="c0"/>
<circle cx="1210" cy="1336" r="8" class="c0"/>
<circle cx="1338" cy="1398" r="8" class="c0"/>
<circle cx="486" cy="1364" r="8" class="c0"/>
<circle cx="1472" cy="1428" r="8" class="c0"/>
<circle cx="590" cy="1364" r="8" class="c0"/>
<circle cx="80" cy="102" r="8" class="c0"/>
<circle cx="252" cy="108" r="8" class="c0"/>
<circle cx="1070" cy="220" r="8" class="c0"/>
<circle cx="1032" cy="336" r="8" class="c0"/>
<circle cx="1058" cy="1058" r="8" class="c0"/>
<circle cx="40" cy="1112" r="6" class="c0"/>
<circle cx="78" cy="1432" r="6" class="c0"/>
<circle cx="1298" cy="1392" r="6" class="c0"/>
<circle cx="106" cy="1354" r="6" class="c0"/>
<circle cx="1252" cy="1432" r="6" class="c0"/>
<circle cx="6" cy="1246" r="6" class="c0"/>
<circle cx="70" cy="1340" r="6" class="c0"/>
<circle cx="1836" cy="1402" r="6" class="c0"/>
<circle cx="970" cy="1024" r="6" class="c0"/>
<circle cx="1096" cy="1024" r="6" class="c0"/>
<circle cx="984" cy="130" r="6" class="c0"/>
<circle cx="10" cy="188" r="6" class="c0"/>
<circle cx="1026" cy="982" r="6" class="c0"/>
<circle cx="1786" cy="1296" r="6" class="c0"/>
<circle cx="1080" cy="1066" r="6" class="c0"/>
<circle cx="1072" cy="78" r="6" class="c0"/>
<circle cx="1060" cy="204" r="6" class="c0"/>
<circle cx="378" cy="1432" r="6" class="c0"/>
<circle cx="58" cy="1212" r="6" class="c0"/>
<circle cx="1262" cy="1390" r="6" class="c0"/>
<circle cx="1850" cy="1340" r="6" class="c0"/>
<circle cx="934" cy="1078" r="6" class="c0"/>
<circle cx="534" cy="1416" r="6" class="c0"/>
<circle cx="44" cy="510" r="6" class="c0"/>
<circle cx="1592" cy="1388" r="6" class="c0"/>
<circle cx="98" cy="1392" r="6" class="c0"/>
<circle cx="38" cy="1400" r="6" class="c0"/>
<circle cx="610" cy="1388" r="6" class="c0"/>
<circle cx="60" cy="294" r="6" class="c0"/>
<circle cx="1072" cy="176" r="6" class="c0"/>
<circle cx="424" cy="1406" r="6" class="c0"/>
<circle cx="88" cy="1220" r="6" class="c0"/>
<circle cx="526" cy="14" r="6" class="c0"/>
<circle cx="1336" cy="1432" r="6" class="c0"/>
<circle cx="1234" cy="1404" r="6" class="c0"/>
<circle cx="1906" cy="70" r="6" class="c0"/>
<circle cx="110" cy="1386" r="6" class="c0"/>
<circle cx="524" cy="1430" r="6" class="c0"/>
<circle cx="1388" cy="1432" r="6" class="c0"/>
<circle cx="1010" cy="1028" r="6" class="c0"/>
<circle cx="220" cy="106" r="6" class="c0"/>
<circle cx="994" cy="326" r="6" class="c0"/>
<circle cx="176" cy="1392" r="6" class="c0"/>
<circle cx="52" cy="330" r="6" class="c0"/>
<circle cx="1752" cy="1404" r="6" class="c0"/>
<circle cx="208" cy="1408" r="6" class="c0"/>
<circle cx="190" cy="90" r="6" class="c0"/>
<circle cx="1066" cy="192" r="6" class="c0"/>
<circle cx="6" cy="1330" r="6" class="c0"/>
<circle cx="158" cy="1240" r="6" class="c0"/>
<circle cx="8" cy="892" r="6" class="c0"/>
<circle cx="1298" cy="1408" r="6" class="c0"/>
<circle cx="1864" cy="1274" r="6" class="c0"/>
<circle cx="990" cy="966" r="6" class="c0"/>
<circle cx="244" cy="190" r="6" class="c0"/>
<circle cx="82" cy="42" r="6" class="c0"/>
<circle cx="1038" cy="208" r="6" class="c0"/>
<circle cx="114" cy="8" r="6" class="c0"/>
<circle cx="28" cy="1392" r="6" class="c0"/>
<circle cx="46" cy="48" r="6" class="c0"/>
<circle cx="1156" cy="98" r="6" class="c0"/>
<circle cx="926" cy="818" r="6" class="c0"/>
<circle cx="1292" cy="1352" r="6" class="c0"/>
<circle cx="974" cy="110" r="6" class="c0"/>
<circle cx="108" cy="230" r="6" class="c0"/>
<circle cx="572" cy="54" r="6" class="c0"/>
<circle cx="1004" cy="128" r="6" class="c0"/>
<circle cx="1908" cy="98" r="6" class="c0"/>
<circle cx="218" cy="1292" r="6" class="c0"/>
<circle cx="1898" cy="1382" r="6" class="c0"/>
<circle cx="48" cy="1288" r="6" class="c0"/>
<circle cx="982" cy="888" r="6" class="c0"/>
<circle cx="242" cy="1432" r="6" class="c0"/>
<circle cx="526" cy="1390" r="6" class="c0"/>
<circle cx="370" cy="1334" r="6" class="c0"/>
<circle cx="360" cy="1354" r="6" class="c0"/>
<circle cx="966" cy="1104" r="6" class="c0"/>
<circle cx="620" cy="1402" r="6" class="c0"/>
<circle cx="634" cy="1388" r="6" class="c0"/>
<circle cx="6" cy="1368" r="6" class="c0"/>
<circle cx="214" cy="56" r="6" class="c0"/>
<circle cx="1030" cy="888" r="6" class="c0"/>
<circle cx="102" cy="1032" r="6" class="c0"/>
<circle cx="1036" cy="106" r="6" class="c0"/>
<circle cx="1214" cy="1358" r="6" class="c0"/>
<circle cx="8" cy="506" r="6" class="c0"/>
<circle cx="1302" cy="1364" r="6" class="c0"/>
<circle cx="82" cy="1062" r="6" class="c0"/>
<circle cx="942" cy="1042" r="6" class="c0"/>
<circle cx="46" cy="438" r="6" class="c0"/>
<circle cx="1776" cy="1270" r="6" class="c0"/>
<circle cx="1028" cy="1002" r="6" class="c0"/>
<circle cx="1282" cy="1410" r="6" class="c0"/>
<circle cx="1138" cy="190" r="6" class="c0"/>
<circle cx="60" cy="428" r="6" class="c0"/>
<circle cx="1828" cy="1410" r="6" class="c0"/>
<circle cx="966" cy="850" r="6" class="c0"/>
<circle cx="90" cy="1026" r="6" class="c0"/>
<circle cx="1102" cy="1080" r="6" class="c0"/>
<circle cx="368" cy="1362" r="6" class="c0"/>
<circle cx="138" cy="1102" r="6" class="c0"/>
<circle cx="640" cy="1402" r="6" class="c0"/>
<circle cx="1830" cy="1228" r="6" class="c0"/>
<circle cx="960" cy="912" r="6" class="c0"/>
<circle cx="664" cy="1422" r="6" class="c0"/>
<circle cx="990" cy="856" r="6" class="c0"/>
<circle cx="124" cy="202" r="6" class="c0"/>
<circle cx="1642" cy="1376" r="6" class="c0"/>
<circle cx="132" cy="40" r="6" class="c0"/>
<circle cx="1072" cy="298" r="6" class="c0"/>
<circle cx="1854" cy="1296" r="6" class="c0"/>
<circle cx="68" cy="70" r="6" class="c0"/>
<circle cx="460" cy="1388" r="6" class="c0"/>
<circle cx="40" cy="1084" r="6" class="c0"/>
<circle cx="1020" cy="1012" r="6" class="c0"/>
<circle cx="1660" cy="1378" r="6" class="c0"/>
<circle cx="176" cy="48" r="6" class="c0"/>
<circle cx="148" cy="1202" r="6" class="c0"/>
<circle cx="400" cy="1388" r="6" class="c0"/>
<circle cx="168" cy="1372" r="6" class="c0"/>
<circle cx="1742" cy="1394" r="6" class="c0"/>
<circle cx="202" cy="1322" r="6" class="c0"/>
<circle cx="870" cy="1088" r="6" class="c0"/>
<circle cx="1020" cy="190" r="6" class="c0"/>
<circle cx="1086" cy="130" r="6" class="c0"/>
<circle cx="242" cy="1378" r="6" class="c0"/>
<circle cx="392" cy="1406" r="6" class="c0"/>
<circle cx="1000" cy="826" r="6" class="c0"/>
<circle cx="1582" cy="1430" r="6" class="c0"/>
<circle cx="128" cy="134" r="6" class="c0"/>
<circle cx="1354" cy="1406" r="6" class="c0"/>
<circle cx="78" cy="1380" r="6" class="c0"/>
<circle cx="1026" cy="94" r="6" class="c0"/>
<circle cx="138" cy="72" r="6" class="c0"/>
<circle cx="970" cy="1068" r="6" class="c0"/>
<circle cx="1776" cy="1432" r="6" class="c0"/>
<circle cx="1768" cy="1326" r="6" class="c0"/>
<circle cx="24" cy="502" r="6" class="c0"/>
<circle cx="132" cy="1156" r="6" class="c0"/>
<circle cx="482" cy="1388" r="6" class="c0"/>
<circle cx="1720" cy="1432" r="6" class="c0"/>
<circle cx="40" cy="486" r="6" class="c0"/>
<circle cx="1058" cy="1026" r="6" class="c0"/>
<circle cx="972" cy="1120" r="6" class="c0"/>
<circle cx="1406" cy="1432" r="6" class="c0"/>
<circle cx="184" cy="140" r="6" class="c0"/>
<circle cx="200" cy="198" r="6" class="c0"/>
<circle cx="318" cy="1340" r="6" class="c0"/>
<circle cx="52" cy="450" r="6" class="c0"/>
<circle cx="108" cy="1146" r="6" class="c0"/>
<circle cx="154" cy="1278" r="6" class="c0"/>
<circle cx="528" cy="1404" r="6" class="c0"/>
<circle cx="150" cy="1430" r="6" class="c0"/>
<circle cx="1542" cy="1432" r="6" class="c0"/>
<circle cx="76" cy="354" r="6" class="c0"/>
<circle cx="24" cy="198" r="6" class="c0"/>
<circle cx="8" cy="990" r="6" class="c0"/>
<circle cx="1046" cy="250" r="6" class="c0"/>
<circle cx="1872" cy="1266" r="6" class="c0"/>
<circle cx="1100" cy="146" r="6" class="c0"/>
<circle cx="184" cy="208" r="6" class="c0"/>
<circle cx="1068" cy="1040" r="6" class="c0"/>
<circle cx="250" cy="1386" r="6" class="c0"/>
<circle cx="934" cy="848" r="6" class="c0"/>
<circle cx="208" cy="12" r="6" class="c0"/>
<circle cx="1052" cy="10" r="6" class="c0"/>
<circle cx="6" cy="1132" r="6" class="c0"/>
<circle cx="10" cy="338" r="6" class="c0"/>
<circle cx="974" cy="44" r="6" class="c0"/>
<circle cx="38" cy="1340" r="6" class="c0"/>
<circle cx="1642" cy="1402" r="6" class="c0"/>
<circle cx="890" cy="992" r="6" class="c0"/>
<circle cx="1036" cy="924" r="6" class="c0"/>
<circle cx="952" cy="1034" r="6" class="c0"/>
<circle cx="1906" cy="194" r="6" class="c0"/>
<circle cx="192" cy="1354" r="6" class="c0"/>
<circle cx="1786" cy="1336" r="6" class="c0"/>
<circle cx="540" cy="1392" r="6" class="c0"/>
<circle cx="930" cy="1094" r="6" class="c0"/>
<circle cx="480" cy="1432" r="6" class="c0"/>
<circle cx="982" cy="1102" r="6" class="c0"/>
<circle cx="1912" cy="1248" r="6" class="c0"/>
<circle cx="858" cy="1060" r="6" class="c0"/>
<circle cx="1488" cy="1410" r="6" class="c0"/>
<circle cx="1026" cy="296" r="6" class="c0"/>
<circle cx="1570" cy="1388" r="6" class="c0"/>
<circle cx="1150" cy="60" r="6" class="c0"/>
<circle cx="62" cy="1370" r="6" class="c0"/>
<circle cx="578" cy="1374" r="6" class="c0"/>
<circle cx="950" cy="1070" r="6" class="c0"/>
<circle cx="656" cy="1384" r="6" class="c0"/>
<circle cx="40" cy="1208" r="6" class="c0"/>
<circle cx="1026" cy="202" r="6" class="c0"/>
<circle cx="212" cy="1222" r="6" class="c0"/>
<circle cx="280" cy="1336" r="6" class="c0"/>
<circle cx="1156" cy="166" r="6" class="c0"/>
<circle cx="204" cy="88" r="6" class="c0"/>
<circle cx="1898" cy="1244" r="6" class="c0"/>
<circle cx="220" cy="128" r="6" class="c0"/>
<circle cx="146" cy="1370" r="6" class="c0"/>
<circle cx="48" cy="412" r="6" class="c0"/>
<circle cx="474" cy="1408" r="6" class="c0"/>
<circle cx="1706" cy="1386" r="6" class="c0"/>
<circle cx="1056" cy="178" r="6" class="c0"/>
<circle cx="1014" cy="880" r="6" class="c0"/>
<circle cx="36" cy="170" r="6" class="c0"/>
<circle cx="1030" cy="170" r="6" class="c0"/>
<circle cx="20" cy="1304" r="6" class="c0"/>
<circle cx="1146" cy="180" r="6" class="c0"/>
<circle cx="1574" cy="1420" r="6" class="c0"/>
<circle cx="224" cy="1348" r="6" class="c0"/>
<circle cx="1886" cy="18" r="6" class="c0"/>
<circle cx="564" cy="72" r="6" class="c0"/>
<circle cx="110" cy="210" r="6" class="c0"/>
<circle cx="60" cy="84" r="6" class="c0"/>
<circle cx="140" cy="1218" r="6" class="c0"/>
<circle cx="130" cy="1024" r="6" class="c0"/>
<circle cx="12" cy="1032" r="6" class="c0"/>
<circle cx="140" cy="194" r="6" class="c0"/>
<circle cx="1840" cy="1298" r="6" class="c0"/>
<circle cx="1260" cy="1372" r="6" class="c0"/>
<circle cx="6" cy="1154" r="6" class="c0"/>
<circle cx="264" cy="18" r="6" class="c0"/>
<circle cx="216" cy="144" r="6" class="c0"/>
<circle cx="444" cy="1432" r="6" class="c0"/>
<circle cx="1106" cy="44" r="6" class="c0"/>
<circle cx="38" cy="1308" r="6" class="c0"/>
<circle cx="226" cy="200" r="6" class="c0"/>
<circle cx="1080" cy="70" r="6" class="c0"/>
<circle cx="128" cy="1110" r="6" class="c0"/>
<circle cx="144" cy="1324" r="6" class="c0"/>
<circle cx="876" cy="1062" r="6" class="c0"/>
<circle cx="26" cy="488" r="6" class="c0"/>
<circle cx="1796" cy="1308" r="6" class="c0"/>
<circle cx="1814" cy="1400" r="6" class="c0"/>
<circle cx="194" cy="1272" r="6" class="c0"/>
<circle cx="24" cy="890" r="6" class="c0"/>
<circle cx="6" cy="1412" r="6" class="c0"/>
<circle cx="1046" cy="1094" r="6" class="c0"/>
<circle cx="680" cy="1342" r="6" class="c0"/>
<circle cx="48" cy="990" r="6" class="c0"/>
<circle cx="628" cy="1410" r="6" class="c0"/>
<circle cx="96" cy="144" r="6" class="c0"/>
<circle cx="212" cy="96" r="6" class="c0"/>
<circle cx="1608" cy="1396" r="6" class="c0"/>
<circle cx="1118" cy="94" r="6" class="c0"/>
<circle cx="1844" cy="1394" r="6" class="c0"/>
<circle cx="1170" cy="106" r="6" class="c0"/>
<circle cx="1122" cy="1064" r="6" class="c0"/>
<circle cx="1824" cy="1294" r="6" class="c0"/>
<circle cx="514" cy="1396" r="6" class="c0"/>
<circle cx="1710" cy="1416" r="6" class="c0"/>
<circle cx="1038" cy="904" r="6" class="c0"/>
<circle cx="24" cy="982" r="6" class="c0"/>
<circle cx="120" cy="1188" r="6" class="c0"/>
<circle cx="152" cy="1050" r="6" class="c0"/>
<circle cx="1052" cy="214" r="6" class="c0"/>
<circle cx="1002" cy="980" r="6" class="c0"/>
<circle cx="336" cy="1430" r="6" class="c0"/>
<circle cx="118" cy="1302" r="6" class="c0"/>
<circle cx="1544" cy="1388" r="6" class="c0"/>
<circle cx="222" cy="180" r="6" class="c0"/>
<circle cx="1910" cy="1314" r="6" class="c0"/>
<circle cx="46" cy="80" r="6" class="c0"/>
<circle cx="932" cy="806" r="6" class="c0"/>
<circle cx="1310" cy="1354" r="6" class="c0"/>
<circle cx="538" cy="90" r="6" class="c0"/>
<circle cx="98" cy="984" r="6" class="c0"/>
<circle cx="582" cy="1350" r="6" class="c0"/>
<circle cx="180" cy="34" r="6" class="c0"/>
<circle cx="1102" cy="120" r="6" class="c0"/>
<circle cx="1094" cy="1070" r="6" class="c0"/>
<circle cx="1634" cy="1430" r="6" class="c0"/>
<circle cx="968" cy="156" r="6" class="c0"/>
<circle cx="32" cy="948" r="6" class="c0"/>
<circle cx="1052" cy="196" r="6" class="c0"/>
<circle cx="984" cy="274" r="6" class="c0"/>
</svg>
