<?xml version="1.0" encoding="utf-8"?>
<svg xmlns="http://www.w3.org/2000/svg"
     xmlns:xlink="http://www.w3.org/1999/xlink" width="1920" height="1440" >

            <defs>
            <style type="text/css"><![CDATA[
circle {stroke: none;}
.c0 {fill: #000000;}
]]></style>
            </defs>
<rect x="0" y="0" width="1920" height="1440" fill="white"/>
<circle cx="574" cy="1014" r="12" class="c0"/>
<circle cx="586" cy="804" r="12" class="c0"/>
<circle cx="606" cy="906" r="12" class="c0"/>
<circle cx="572" cy="932" r="12" class="c0"/>
<circle cx="538" cy="802" r="12" class="c0"/>
<circle cx="746" cy="1332" r="12" class="c0"/>
<circle cx="614" cy="750" r="12" class="c0"/>
<circle cx="660" cy="1018" r="12" class="c0"/>
<circle cx="816" cy="1304" r="12" class="c0"/>
<circle cx="546" cy="896" r="12" class="c0"/>
<circle cx="790" cy="1318" r="10" class="c0"/>
<circle cx="556" cy="876" r="10" class="c0"/>
<circle cx="542" cy="848" r="10" class="c0"/>
<circle cx="598" cy="980" r="10" class="c0"/>
<circle cx="574" cy="708" r="10" class="c0"/>
<circle cx="558" cy="828" r="10" class="c0"/>
<circle cx="94" cy="1420" r="10" class="c0"/>
<circle cx="74" cy="1412" r="10" class="c0"/>
<circle cx="814" cy="1332" r="10" class="c0"/>
<circle cx="530" cy="834" r="10" class="c0"/>
<circle cx="568" cy="906" r="10" class="c0"/>
<circle cx="550" cy="784" r="10" class="c0"/>
<circle cx="96" cy="1394" r="10" class="c0"/>
<circle cx="228" cy="1424" r="10" class="c0"/>
<circle cx="574" cy="980" r="10" class="c0"/>
<circle cx="556" cy="952" r="10" class="c0"/>
<circle cx="592" cy="854" r="10" class="c0"/>
<circle cx="740" cy="1240" r="10" class="c0"/>
<circle cx="610" cy="798" r="10" class="c0"/>
<circle cx="204" cy="1418" r="10" class="c0"/>
<circle cx="562" cy="796" r="10" class="c0"/>
<circle cx="640" cy="788" r="10" class="c0"/>
<circle cx="532" cy="772" r="10" class="c0"/>
<circle cx="784" cy="1236" r="10" class="c0"/>
<circle cx="634" cy="918" r="10" class="c0"/>
<circle cx="566" cy="852" r="10" class="c0"/>
<circle cx="560" cy="730" r="8" class="c0"/>
<circle cx="594" cy="952" r="8" class="c0"/>
<circle cx="786" cy="1350" r="8" class="c0"/>
<circle cx="624" cy="938" r="8" class="c0"/>
<circle cx="46" cy="1386" r="8" class="c0"/>
<circle cx="562" cy="764" r="8" class="c0"/>
<circle cx="722" cy="1302" r="8" class="c0"/>
<circle cx="596" cy="878" r="8" class="c0"/>
<circle cx="762" cy="1206" r="8" class="c0"/>
<circle cx="804" cy="1278" r="8" class="c0"/>
<circle cx="848" cy="1248" r="8" class="c0"/>
<circle cx="688" cy="972" r="8" class="c0"/>
<circle cx="726" cy="1320" r="8" class="c0"/>
<circle cx="602" cy="830" r="8" class="c0"/>
<circle cx="704" cy="1216" r="8" class="c0"/>
<circle cx="514" cy="802" r="8" class="c0"/>
<circle cx="528" cy="860" r="8" class="c0"/>
<circle cx="798" cy="1248" r="8" class="c0"/>
<circle cx="678" cy="880" r="8" class="c0"/>
<circle cx="118" cy="1426" r="8" class="c0"/>
<circle cx="666" cy="802" r="8" class="c0"/>
<circle cx="688" cy="1012" r="8" class="c0"/>
<circle cx="628" cy="896" r="8" class="c0"/>
<circle cx="610" cy="702" r="8" class="c0"/>
<circle cx="600" cy="776" r="8" class="c0"/>
<circle cx="782" cy="1298" r="8" class="c0"/>
<circle cx="688" cy="1148" r="8" class="c0"/>
<circle cx="604" cy="732" r="8" class="c0"/>
<circle cx="606" cy="932" r="8" class="c0"/>
<circle cx="612" cy="992" r="8" class="c0"/>
<circle cx="680" cy="1208" r="8" class="c0"/>
<circle cx="556" cy="920" r="8" class="c0"/>
<circle cx="142" cy="1386" r="8" class="c0"/>
<circle cx="516" cy="784" r="8" class="c0"/>
<circle cx="56" cy="1328" r="8" class="c0"/>
<circle cx="586" cy="898" r="8" class="c0"/>
<circle cx="614" cy="862" r="8" class="c0"/>
<circle cx="578" cy="830" r="8" class="c0"/>
<circle cx="172" cy="1406" r="8" class="c0"/>
<circle cx="742" cy="1210" r="8" class="c0"/>
<circle cx="834" cy="1222" r="8" class="c0"/>
<circle cx="580" cy="778" r="8" class="c0"/>
<circle cx="748" cy="1402" r="8" class="c0"/>
<circle cx="674" cy="1160" r="8" class="c0"/>
<circle cx="534" cy="746" r="8" class="c0"/>
<circle cx="130" cy="1412" r="8" class="c0"/>
<circle cx="776" cy="1396" r="8" class="c0"/>
<circle cx="576" cy="954" r="8" class="c0"/>
<circle cx="684" cy="1284" r="8" class="c0"/>
<circle cx="140" cy="1424" r="6" class="c0"/>
<circle cx="768" cy="1286" r="6" class="c0"/>
<circle cx="672" cy="976" r="6" class="c0"/>
<circle cx="772" cy="1260" r="6" class="c0"/>
<circle cx="722" cy="1266" r="6" class="c0"/>
<circle cx="540" cy="720" r="6" class="c0"/>
<circle cx="550" cy="698" r="6" class="c0"/>
<circle cx="638" cy="980" r="6" class="c0"/>
<circle cx="68" cy="1432" r="6" class="c0"/>
<circle cx="670" cy="998" r="6" class="c0"/>
<circle cx="126" cy="1364" r="6" class="c0"/>
<circle cx="570" cy="886" r="6" class="c0"/>
<circle cx="578" cy="868" r="6" class="c0"/>
<circle cx="640" cy="878" r="6" class="c0"/>
<circle cx="656" cy="872" r="6" class="c0"/>
<circle cx="766" cy="1302" r="6" class="c0"/>
<circle cx="646" cy="766" r="6" class="c0"/>
<circle cx="748" cy="1260" r="6" class="c0"/>
<circle cx="650" cy="826" r="6" class="c0"/>
<circle cx="106" cy="1408" r="6" class="c0"/>
<circle cx="732" cy="1276" r="6" class="c0"/>
<circle cx="816" cy="1262" r="6" class="c0"/>
<circle cx="720" cy="1250" r="6" class="c0"/>
<circle cx="630" cy="842" r="6" class="c0"/>
<circle cx="160" cy="1422" r="6" class="c0"/>
<circle cx="662" cy="932" r="6" class="c0"/>
<circle cx="520" cy="820" r="6" class="c0"/>
<circle cx="30" cy="1084" r="6" class="c0"/>
<circle cx="756" cy="1274" r="6" class="c0"/>
<circle cx="586" cy="658" r="6" class="c0"/>
<circle cx="834" cy="1390" r="6" class="c0"/>
<circle cx="642" cy="944" r="6" class="c0"/>
<circle cx="612" cy="952" r="6" class="c0"/>
</svg>
