<?xml version="1.0" encoding="utf-8"?>
<svg xmlns="http://www.w3.org/2000/svg"
     xmlns:xlink="http://www.w3.org/1999/xlink" width="1920" height="1440" >

            <defs>
            <style type="text/css"><![CDATA[
circle {stroke: none;}
.c0 {fill: #000000;}
]]></style>
            </defs>
<rect x="0" y="0" width="1920" height="1440" fill="white"/>
<circle cx="112" cy="1324" r="12" class="c0"/>
<circle cx="56" cy="1318" r="12" class="c0"/>
<circle cx="614" cy="806" r="12" class="c0"/>
<circle cx="590" cy="930" r="12" class="c0"/>
<circle cx="184" cy="1406" r="12" class="c0"/>
<circle cx="630" cy="856" r="12" class="c0"/>
<circle cx="170" cy="1380" r="12" class="c0"/>
<circle cx="118" cy="1424" r="12" class="c0"/>
<circle cx="168" cy="1420" r="10" class="c0"/>
<circle cx="574" cy="770" r="10" class="c0"/>
<circle cx="642" cy="798" r="10" class="c0"/>
<circle cx="86" cy="1414" r="10" class="c0"/>
<circle cx="604" cy="870" r="10" class="c0"/>
<circle cx="786" cy="1210" r="10" class="c0"/>
<circle cx="556" cy="846" r="10" class="c0"/>
<circle cx="84" cy="1116" r="10" class="c0"/>
<circle cx="224" cy="1420" r="10" class="c0"/>
<circle cx="42" cy="1356" r="10" class="c0"/>
<circle cx="28" cy="1416" r="10" class="c0"/>
<circle cx="142" cy="1410" r="10" class="c0"/>
<circle cx="540" cy="776" r="10" class="c0"/>
<circle cx="114" cy="1378" r="10" class="c0"/>
<circle cx="74" cy="1398" r="10" class="c0"/>
<circle cx="38" cy="1226" r="10" class="c0"/>
<circle cx="546" cy="732" r="10" class="c0"/>
<circle cx="90" cy="1378" r="10" class="c0"/>
<circle cx="648" cy="830" r="10" class="c0"/>
<circle cx="78" cy="1350" r="10" class="c0"/>
<circle cx="632" cy="756" r="10" class="c0"/>
<circle cx="598" cy="986" r="10" class="c0"/>
<circle cx="610" cy="940" r="10" class="c0"/>
<circle cx="132" cy="1368" r="10" class="c0"/>
<circle cx="614" cy="842" r="10" class="c0"/>
<circle cx="554" cy="818" r="10" class="c0"/>
<circle cx="598" cy="772" r="10" class="c0"/>
<circle cx="16" cy="1162" r="10" class="c0"/>
<circle cx="110" cy="1354" r="10" class="c0"/>
<circle cx="568" cy="800" r="10" class="c0"/>
<circle cx="50" cy="1116" r="10" class="c0"/>
<circle cx="586" cy="840" r="10" class="c0"/>
<circle cx="636" cy="900" r="10" class="c0"/>
<circle cx="58" cy="1370" r="10" class="c0"/>
<circle cx="754" cy="1264" r="10" class="c0"/>
<circle cx="640" cy="966" r="10" class="c0"/>
<circle cx="674" cy="872" r="10" class="c0"/>
<circle cx="590" cy="796" r="10" class="c0"/>
<circle cx="16" cy="1134" r="10" class="c0"/>
<circle cx="54" cy="1188" r="10" class="c0"/>
<circle cx="578" cy="868" r="10" class="c0"/>
<circle cx="590" cy="894" r="10" class="c0"/>
<circle cx="48" cy="1428" r="10" class="c0"/>
<circle cx="96" cy="1302" r="8" class="c0"/>
<circle cx="652" cy="866" r="8" class="c0"/>
<circle cx="16" cy="1220" r="8" class="c0"/>
<circle cx="218" cy="1384" r="8" class="c0"/>
<circle cx="672" cy="832" r="8" class="c0"/>
<circle cx="638" cy="880" r="8" class="c0"/>
<circle cx="562" cy="710" r="8" class="c0"/>
<circle cx="60" cy="1150" r="8" class="c0"/>
<circle cx="660" cy="702" r="8" class="c0"/>
<circle cx="558" cy="900" r="8" class="c0"/>
<circle cx="24" cy="1182" r="8" class="c0"/>
<circle cx="584" cy="628" r="8" class="c0"/>
<circle cx="42" cy="1266" r="8" class="c0"/>
<circle cx="276" cy="1416" r="8" class="c0"/>
<circle cx="622" cy="780" r="8" class="c0"/>
<circle cx="570" cy="740" r="8" class="c0"/>
<circle cx="602" cy="912" r="8" class="c0"/>
<circle cx="142" cy="1330" r="8" class="c0"/>
<circle cx="154" cy="1342" r="8" class="c0"/>
<circle cx="262" cy="1426" r="8" class="c0"/>
<circle cx="160" cy="1400" r="8" class="c0"/>
<circle cx="74" cy="1300" r="8" class="c0"/>
<circle cx="562" cy="882" r="8" class="c0"/>
<circle cx="632" cy="820" r="8" class="c0"/>
<circle cx="778" cy="1298" r="8" class="c0"/>
<circle cx="538" cy="806" r="8" class="c0"/>
<circle cx="656" cy="950" r="8" class="c0"/>
<circle cx="200" cy="1394" r="8" class="c0"/>
<circle cx="34" cy="1374" r="8" class="c0"/>
<circle cx="32" cy="1304" r="8" class="c0"/>
<circle cx="624" cy="928" r="8" class="c0"/>
<circle cx="14" cy="1328" r="8" class="c0"/>
<circle cx="80" cy="1322" r="8" class="c0"/>
<circle cx="830" cy="1430" r="8" class="c0"/>
<circle cx="576" cy="944" r="8" class="c0"/>
<circle cx="34" cy="1328" r="8" class="c0"/>
<circle cx="98" cy="1072" r="8" class="c0"/>
<circle cx="702" cy="992" r="8" class="c0"/>
<circle cx="636" cy="726" r="8" class="c0"/>
<circle cx="128" cy="1340" r="8" class="c0"/>
<circle cx="10" cy="1404" r="8" class="c0"/>
<circle cx="742" cy="1224" r="8" class="c0"/>
<circle cx="24" cy="1244" r="8" class="c0"/>
<circle cx="528" cy="796" r="8" class="c0"/>
<circle cx="800" cy="1356" r="8" class="c0"/>
<circle cx="128" cy="1394" r="8" class="c0"/>
<circle cx="572" cy="918" r="8" class="c0"/>
<circle cx="532" cy="834" r="8" class="c0"/>
<circle cx="672" cy="746" r="8" class="c0"/>
<circle cx="146" cy="1306" r="8" class="c0"/>
<circle cx="662" cy="856" r="8" class="c0"/>
<circle cx="576" cy="994" r="8" class="c0"/>
<circle cx="22" cy="1108" r="8" class="c0"/>
<circle cx="654" cy="744" r="8" class="c0"/>
<circle cx="48" cy="1394" r="8" class="c0"/>
<circle cx="658" cy="784" r="8" class="c0"/>
<circle cx="790" cy="1338" r="8" class="c0"/>
<circle cx="758" cy="1172" r="8" class="c0"/>
<circle cx="122" cy="1294" r="8" class="c0"/>
<circle cx="554" cy="760" r="8" class="c0"/>
<circle cx="214" cy="1366" r="8" class="c0"/>
<circle cx="110" cy="1402" r="8" class="c0"/>
<circle cx="826" cy="1332" r="8" class="c0"/>
<circle cx="46" cy="1026" r="8" class="c0"/>
<circle cx="588" cy="956" r="8" class="c0"/>
<circle cx="618" cy="892" r="8" class="c0"/>
<circle cx="544" cy="868" r="8" class="c0"/>
<circle cx="588" cy="726" r="8" class="c0"/>
<circle cx="774" cy="1422" r="8" class="c0"/>
<circle cx="654" cy="892" r="8" class="c0"/>
<circle cx="814" cy="1368" r="8" class="c0"/>
<circle cx="722" cy="1034" r="8" class="c0"/>
<circle cx="616" cy="726" r="8" class="c0"/>
<circle cx="742" cy="1186" r="8" class="c0"/>
<circle cx="92" cy="1332" r="8" class="c0"/>
<circle cx="582" cy="818" r="8" class="c0"/>
<circle cx="58" cy="1340" r="8" class="c0"/>
<circle cx="196" cy="1426" r="8" class="c0"/>
<circle cx="674" cy="922" r="8" class="c0"/>
<circle cx="644" cy="938" r="8" class="c0"/>
<circle cx="240" cy="1394" r="8" class="c0"/>
<circle cx="556" cy="928" r="8" class="c0"/>
<circle cx="146" cy="1390" r="8" class="c0"/>
<circle cx="76" cy="1430" r="8" class="c0"/>
<circle cx="772" cy="1318" r="8" class="c0"/>
<circle cx="682" cy="758" r="8" class="c0"/>
<circle cx="150" cy="1360" r="8" class="c0"/>
<circle cx="604" cy="716" r="8" class="c0"/>
<circle cx="144" cy="1430" r="8" class="c0"/>
<circle cx="292" cy="1402" r="8" class="c0"/>
<circle cx="8" cy="1264" r="6" class="c0"/>
<circle cx="666" cy="722" r="6" class="c0"/>
<circle cx="538" cy="752" r="6" class="c0"/>
<circle cx="572" cy="656" r="6" class="c0"/>
<circle cx="64" cy="1412" r="6" class="c0"/>
<circle cx="594" cy="694" r="6" class="c0"/>
<circle cx="778" cy="1192" r="6" class="c0"/>
<circle cx="100" cy="1432" r="6" class="c0"/>
<circle cx="8" cy="1054" r="6" class="c0"/>
<circle cx="752" cy="1210" r="6" class="c0"/>
<circle cx="44" cy="1068" r="6" class="c0"/>
<circle cx="644" cy="712" r="6" class="c0"/>
<circle cx="24" cy="1066" r="6" class="c0"/>
<circle cx="610" cy="974" r="6" class="c0"/>
<circle cx="36" cy="1060" r="6" class="c0"/>
<circle cx="668" cy="966" r="6" class="c0"/>
<circle cx="662" cy="984" r="6" class="c0"/>
<circle cx="748" cy="1336" r="6" class="c0"/>
<circle cx="30" cy="1048" r="6" class="c0"/>
<circle cx="602" cy="822" r="6" class="c0"/>
<circle cx="636" cy="986" r="6" class="c0"/>
<circle cx="634" cy="696" r="6" class="c0"/>
<circle cx="618" cy="708" r="6" class="c0"/>
<circle cx="568" cy="830" r="6" class="c0"/>
<circle cx="608" cy="756" r="6" class="c0"/>
<circle cx="554" cy="670" r="6" class="c0"/>
<circle cx="6" cy="1082" r="6" class="c0"/>
<circle cx="722" cy="994" r="6" class="c0"/>
<circle cx="558" cy="784" r="6" class="c0"/>
<circle cx="700" cy="820" r="6" class="c0"/>
<circle cx="676" cy="948" r="6" class="c0"/>
<circle cx="248" cy="1362" r="6" class="c0"/>
<circle cx="202" cy="1350" r="6" class="c0"/>
<circle cx="38" cy="1100" r="6" class="c0"/>
<circle cx="230" cy="1364" r="6" class="c0"/>
<circle cx="56" cy="1094" r="6" class="c0"/>
<circle cx="74" cy="1136" r="6" class="c0"/>
<circle cx="12" cy="1424" r="6" class="c0"/>
<circle cx="22" cy="1080" r="6" class="c0"/>
<circle cx="612" cy="690" r="6" class="c0"/>
<circle cx="530" cy="760" r="6" class="c0"/>
<circle cx="246" cy="1432" r="6" class="c0"/>
<circle cx="10" cy="1068" r="6" class="c0"/>
<circle cx="78" cy="1080" r="6" class="c0"/>
<circle cx="72" cy="1100" r="6" class="c0"/>
<circle cx="684" cy="900" r="6" class="c0"/>
<circle cx="36" cy="1164" r="6" class="c0"/>
<circle cx="52" cy="1076" r="6" class="c0"/>
<circle cx="574" cy="902" r="6" class="c0"/>
<circle cx="26" cy="1390" r="6" class="c0"/>
<circle cx="758" cy="1222" r="6" class="c0"/>
<circle cx="728" cy="980" r="6" class="c0"/>
<circle cx="550" cy="792" r="6" class="c0"/>
<circle cx="92" cy="1396" r="6" class="c0"/>
<circle cx="692" cy="866" r="6" class="c0"/>
<circle cx="8" cy="1286" r="6" class="c0"/>
<circle cx="50" cy="1410" r="6" class="c0"/>
<circle cx="666" cy="938" r="6" class="c0"/>
</svg>
