<?xml version="1.0" encoding="utf-8"?>
<svg xmlns="http://www.w3.org/2000/svg"
     xmlns:xlink="http://www.w3.org/1999/xlink" width="1920" height="1440" >

            <defs>
            <style type="text/css"><![CDATA[
circle {stroke: none;}
.c0 {fill: #000000;}
]]></style>
            </defs>
<rect x="0" y="0" width="1920" height="1440" fill="white"/>
<circle cx="126" cy="1384" r="12" class="c0"/>
<circle cx="114" cy="1344" r="12" class="c0"/>
<circle cx="18" cy="1356" r="12" class="c0"/>
<circle cx="100" cy="1314" r="12" class="c0"/>
<circle cx="758" cy="1418" r="12" class="c0"/>
<circle cx="64" cy="1100" r="12" class="c0"/>
<circle cx="634" cy="636" r="12" class="c0"/>
<circle cx="180" cy="1420" r="12" class="c0"/>
<circle cx="14" cy="1408" r="12" class="c0"/>
<circle cx="48" cy="1420" r="12" class="c0"/>
<circle cx="274" cy="1404" r="12" class="c0"/>
<circle cx="90" cy="1380" r="12" class="c0"/>
<circle cx="64" cy="1368" r="12" class="c0"/>
<circle cx="24" cy="980" r="12" class="c0"/>
<circle cx="86" cy="1352" r="12" class="c0"/>
<circle cx="38" cy="1392" r="12" class="c0"/>
<circle cx="44" cy="1082" r="12" class="c0"/>
<circle cx="22" cy="1222" r="12" class="c0"/>
<circle cx="210" cy="1406" r="10" class="c0"/>
<circle cx="124" cy="1410" r="10" class="c0"/>
<circle cx="44" cy="1120" r="10" class="c0"/>
<circle cx="196" cy="1352" r="10" class="c0"/>
<circle cx="74" cy="1128" r="10" class="c0"/>
<circle cx="140" cy="1306" r="10" class="c0"/>
<circle cx="76" cy="1318" r="10" class="c0"/>
<circle cx="154" cy="1352" r="10" class="c0"/>
<circle cx="254" cy="1418" r="10" class="c0"/>
<circle cx="44" cy="1166" r="10" class="c0"/>
<circle cx="216" cy="1378" r="10" class="c0"/>
<circle cx="62" cy="1394" r="10" class="c0"/>
<circle cx="126" cy="880" r="10" class="c0"/>
<circle cx="30" cy="1338" r="10" class="c0"/>
<circle cx="138" cy="1338" r="10" class="c0"/>
<circle cx="30" cy="1296" r="10" class="c0"/>
<circle cx="82" cy="1404" r="10" class="c0"/>
<circle cx="12" cy="1278" r="10" class="c0"/>
<circle cx="256" cy="1390" r="10" class="c0"/>
<circle cx="54" cy="1282" r="10" class="c0"/>
<circle cx="152" cy="1412" r="10" class="c0"/>
<circle cx="44" cy="1254" r="10" class="c0"/>
<circle cx="160" cy="1322" r="10" class="c0"/>
<circle cx="780" cy="1306" r="10" class="c0"/>
<circle cx="142" cy="1364" r="10" class="c0"/>
<circle cx="12" cy="1322" r="10" class="c0"/>
<circle cx="550" cy="750" r="10" class="c0"/>
<circle cx="96" cy="1428" r="10" class="c0"/>
<circle cx="14" cy="1254" r="10" class="c0"/>
<circle cx="20" cy="1076" r="10" class="c0"/>
<circle cx="618" cy="1408" r="10" class="c0"/>
<circle cx="62" cy="1332" r="10" class="c0"/>
<circle cx="186" cy="1396" r="10" class="c0"/>
<circle cx="234" cy="1396" r="10" class="c0"/>
<circle cx="76" cy="1020" r="10" class="c0"/>
<circle cx="164" cy="1370" r="10" class="c0"/>
<circle cx="32" cy="1058" r="10" class="c0"/>
<circle cx="56" cy="1306" r="10" class="c0"/>
<circle cx="34" cy="1006" r="10" class="c0"/>
<circle cx="50" cy="988" r="10" class="c0"/>
<circle cx="536" cy="1426" r="10" class="c0"/>
<circle cx="82" cy="1292" r="10" class="c0"/>
<circle cx="220" cy="1348" r="10" class="c0"/>
<circle cx="106" cy="1280" r="10" class="c0"/>
<circle cx="618" cy="708" r="10" class="c0"/>
<circle cx="646" cy="1412" r="10" class="c0"/>
<circle cx="234" cy="1360" r="10" class="c0"/>
<circle cx="14" cy="1134" r="10" class="c0"/>
<circle cx="732" cy="1404" r="10" class="c0"/>
<circle cx="50" cy="926" r="10" class="c0"/>
<circle cx="140" cy="1278" r="10" class="c0"/>
<circle cx="234" cy="1426" r="10" class="c0"/>
<circle cx="38" cy="914" r="10" class="c0"/>
<circle cx="152" cy="1388" r="10" class="c0"/>
<circle cx="10" cy="1108" r="10" class="c0"/>
<circle cx="66" cy="1430" r="8" class="c0"/>
<circle cx="58" cy="1208" r="8" class="c0"/>
<circle cx="52" cy="1348" r="8" class="c0"/>
<circle cx="106" cy="1400" r="8" class="c0"/>
<circle cx="50" cy="1032" r="8" class="c0"/>
<circle cx="40" cy="968" r="8" class="c0"/>
<circle cx="136" cy="1426" r="8" class="c0"/>
<circle cx="36" cy="1316" r="8" class="c0"/>
<circle cx="160" cy="1430" r="8" class="c0"/>
<circle cx="278" cy="1356" r="8" class="c0"/>
<circle cx="56" cy="956" r="8" class="c0"/>
<circle cx="180" cy="1336" r="8" class="c0"/>
<circle cx="48" cy="1194" r="8" class="c0"/>
<circle cx="64" cy="1144" r="8" class="c0"/>
<circle cx="10" cy="1386" r="8" class="c0"/>
<circle cx="46" cy="1228" r="8" class="c0"/>
<circle cx="28" cy="1266" r="8" class="c0"/>
<circle cx="632" cy="1426" r="8" class="c0"/>
<circle cx="586" cy="688" r="8" class="c0"/>
<circle cx="70" cy="978" r="8" class="c0"/>
<circle cx="568" cy="614" r="8" class="c0"/>
<circle cx="10" cy="272" r="8" class="c0"/>
<circle cx="592" cy="646" r="8" class="c0"/>
<circle cx="14" cy="1000" r="8" class="c0"/>
<circle cx="608" cy="1426" r="8" class="c0"/>
<circle cx="94" cy="1048" r="8" class="c0"/>
<circle cx="570" cy="876" r="8" class="c0"/>
<circle cx="700" cy="1416" r="8" class="c0"/>
<circle cx="634" cy="1382" r="8" class="c0"/>
<circle cx="18" cy="338" r="8" class="c0"/>
<circle cx="98" cy="940" r="8" class="c0"/>
<circle cx="100" cy="818" r="8" class="c0"/>
<circle cx="668" cy="1398" r="8" class="c0"/>
<circle cx="86" cy="986" r="8" class="c0"/>
<circle cx="564" cy="648" r="8" class="c0"/>
<circle cx="54" cy="1056" r="8" class="c0"/>
<circle cx="76" cy="888" r="8" class="c0"/>
<circle cx="658" cy="1428" r="8" class="c0"/>
<circle cx="98" cy="1006" r="8" class="c0"/>
<circle cx="256" cy="1356" r="8" class="c0"/>
<circle cx="124" cy="1316" r="8" class="c0"/>
<circle cx="762" cy="1314" r="8" class="c0"/>
<circle cx="202" cy="1428" r="8" class="c0"/>
<circle cx="550" cy="774" r="8" class="c0"/>
<circle cx="12" cy="1026" r="8" class="c0"/>
<circle cx="286" cy="1420" r="8" class="c0"/>
<circle cx="174" cy="1354" r="8" class="c0"/>
<circle cx="774" cy="1380" r="8" class="c0"/>
<circle cx="566" cy="584" r="8" class="c0"/>
<circle cx="78" cy="940" r="8" class="c0"/>
<circle cx="634" cy="856" r="8" class="c0"/>
<circle cx="14" cy="1196" r="8" class="c0"/>
<circle cx="24" cy="1428" r="8" class="c0"/>
<circle cx="584" cy="606" r="8" class="c0"/>
<circle cx="120" cy="1298" r="8" class="c0"/>
<circle cx="790" cy="1414" r="8" class="c0"/>
<circle cx="810" cy="1422" r="8" class="c0"/>
<circle cx="574" cy="636" r="8" class="c0"/>
<circle cx="92" cy="964" r="8" class="c0"/>
<circle cx="650" cy="864" r="8" class="c0"/>
<circle cx="626" cy="756" r="8" class="c0"/>
<circle cx="288" cy="1370" r="8" class="c0"/>
<circle cx="56" cy="1010" r="8" class="c0"/>
<circle cx="774" cy="1198" r="8" class="c0"/>
<circle cx="188" cy="1374" r="8" class="c0"/>
<circle cx="616" cy="662" r="8" class="c0"/>
<circle cx="770" cy="1050" r="8" class="c0"/>
<circle cx="28" cy="862" r="8" class="c0"/>
<circle cx="24" cy="1176" r="8" class="c0"/>
<circle cx="548" cy="1392" r="8" class="c0"/>
<circle cx="760" cy="1112" r="8" class="c0"/>
<circle cx="650" cy="610" r="8" class="c0"/>
<circle cx="20" cy="1154" r="8" class="c0"/>
<circle cx="30" cy="950" r="8" class="c0"/>
<circle cx="830" cy="1284" r="8" class="c0"/>
<circle cx="814" cy="1242" r="8" class="c0"/>
<circle cx="104" cy="1078" r="8" class="c0"/>
<circle cx="818" cy="1350" r="8" class="c0"/>
<circle cx="594" cy="806" r="8" class="c0"/>
<circle cx="40" cy="1368" r="8" class="c0"/>
<circle cx="106" cy="1364" r="8" class="c0"/>
<circle cx="650" cy="590" r="8" class="c0"/>
<circle cx="92" cy="1068" r="8" class="c0"/>
<circle cx="604" cy="694" r="8" class="c0"/>
<circle cx="78" cy="1080" r="8" class="c0"/>
<circle cx="774" cy="1224" r="8" class="c0"/>
<circle cx="624" cy="876" r="8" class="c0"/>
<circle cx="10" cy="860" r="8" class="c0"/>
<circle cx="130" cy="996" r="8" class="c0"/>
<circle cx="56" cy="846" r="8" class="c0"/>
<circle cx="574" cy="662" r="8" class="c0"/>
<circle cx="78" cy="1272" r="8" class="c0"/>
<circle cx="584" cy="1426" r="8" class="c0"/>
<circle cx="754" cy="1390" r="8" class="c0"/>
<circle cx="578" cy="728" r="8" class="c0"/>
<circle cx="176" cy="822" r="8" class="c0"/>
<circle cx="108" cy="1022" r="8" class="c0"/>
<circle cx="166" cy="1400" r="8" class="c0"/>
<circle cx="564" cy="686" r="8" class="c0"/>
<circle cx="176" cy="966" r="8" class="c0"/>
<circle cx="610" cy="554" r="8" class="c0"/>
<circle cx="90" cy="1104" r="8" class="c0"/>
<circle cx="596" cy="720" r="8" class="c0"/>
<circle cx="10" cy="1298" r="8" class="c0"/>
<circle cx="82" cy="834" r="8" class="c0"/>
<circle cx="608" cy="628" r="8" class="c0"/>
<circle cx="652" cy="686" r="8" class="c0"/>
<circle cx="492" cy="1380" r="8" class="c0"/>
<circle cx="30" cy="1036" r="8" class="c0"/>
<circle cx="608" cy="606" r="8" class="c0"/>
<circle cx="810" cy="1284" r="8" class="c0"/>
<circle cx="822" cy="1402" r="8" class="c0"/>
<circle cx="806" cy="1214" r="8" class="c0"/>
<circle cx="244" cy="1376" r="8" class="c0"/>
<circle cx="136" cy="854" r="6" class="c0"/>
<circle cx="706" cy="1394" r="6" class="c0"/>
<circle cx="168" cy="850" r="6" class="c0"/>
<circle cx="72" cy="994" r="6" class="c0"/>
<circle cx="680" cy="698" r="6" class="c0"/>
<circle cx="638" cy="820" r="6" class="c0"/>
<circle cx="6" cy="914" r="6" class="c0"/>
<circle cx="830" cy="1334" r="6" class="c0"/>
<circle cx="84" cy="922" r="6" class="c0"/>
<circle cx="6" cy="1432" r="6" class="c0"/>
<circle cx="576" cy="798" r="6" class="c0"/>
<circle cx="178" cy="842" r="6" class="c0"/>
<circle cx="114" cy="1430" r="6" class="c0"/>
<circle cx="78" cy="1040" r="6" class="c0"/>
<circle cx="118" cy="1052" r="6" class="c0"/>
<circle cx="152" cy="932" r="6" class="c0"/>
<circle cx="608" cy="834" r="6" class="c0"/>
<circle cx="534" cy="758" r="6" class="c0"/>
<circle cx="98" cy="878" r="6" class="c0"/>
<circle cx="148" cy="848" r="6" class="c0"/>
<circle cx="846" cy="1376" r="6" class="c0"/>
<circle cx="296" cy="1396" r="6" class="c0"/>
<circle cx="154" cy="1296" r="6" class="c0"/>
<circle cx="124" cy="1360" r="6" class="c0"/>
<circle cx="140" cy="1400" r="6" class="c0"/>
<circle cx="30" cy="1200" r="6" class="c0"/>
<circle cx="150" cy="960" r="6" class="c0"/>
<circle cx="632" cy="664" r="6" class="c0"/>
<circle cx="178" cy="866" r="6" class="c0"/>
<circle cx="138" cy="1016" r="6" class="c0"/>
<circle cx="816" cy="1318" r="6" class="c0"/>
<circle cx="24" cy="900" r="6" class="c0"/>
<circle cx="30" cy="1244" r="6" class="c0"/>
<circle cx="590" cy="830" r="6" class="c0"/>
<circle cx="628" cy="604" r="6" class="c0"/>
<circle cx="20" cy="1376" r="6" class="c0"/>
<circle cx="592" cy="574" r="6" class="c0"/>
<circle cx="90" cy="1330" r="6" class="c0"/>
<circle cx="718" cy="1388" r="6" class="c0"/>
<circle cx="154" cy="880" r="6" class="c0"/>
<circle cx="186" cy="832" r="6" class="c0"/>
<circle cx="172" cy="886" r="6" class="c0"/>
<circle cx="160" cy="842" r="6" class="c0"/>
<circle cx="746" cy="1370" r="6" class="c0"/>
<circle cx="804" cy="1368" r="6" class="c0"/>
<circle cx="560" cy="1430" r="6" class="c0"/>
<circle cx="150" cy="978" r="6" class="c0"/>
<circle cx="8" cy="1178" r="6" class="c0"/>
<circle cx="828" cy="1380" r="6" class="c0"/>
<circle cx="212" cy="1330" r="6" class="c0"/>
<circle cx="38" cy="1138" r="6" class="c0"/>
<circle cx="174" cy="910" r="6" class="c0"/>
<circle cx="66" cy="1160" r="6" class="c0"/>
<circle cx="30" cy="1110" r="6" class="c0"/>
<circle cx="12" cy="1054" r="6" class="c0"/>
<circle cx="590" cy="750" r="6" class="c0"/>
<circle cx="374" cy="1410" r="6" class="c0"/>
<circle cx="642" cy="776" r="6" class="c0"/>
<circle cx="6" cy="1090" r="6" class="c0"/>
<circle cx="266" cy="1432" r="6" class="c0"/>
<circle cx="52" cy="880" r="6" class="c0"/>
<circle cx="830" cy="1360" r="6" class="c0"/>
<circle cx="838" cy="1422" r="6" class="c0"/>
<circle cx="768" cy="1352" r="6" class="c0"/>
<circle cx="128" cy="902" r="6" class="c0"/>
<circle cx="716" cy="1250" r="6" class="c0"/>
<circle cx="202" cy="1388" r="6" class="c0"/>
<circle cx="166" cy="920" r="6" class="c0"/>
<circle cx="196" cy="1330" r="6" class="c0"/>
<circle cx="160" cy="906" r="6" class="c0"/>
<circle cx="114" cy="946" r="6" class="c0"/>
<circle cx="270" cy="1378" r="6" class="c0"/>
<circle cx="646" cy="802" r="6" class="c0"/>
<circle cx="116" cy="908" r="6" class="c0"/>
<circle cx="576" cy="828" r="6" class="c0"/>
<circle cx="146" cy="832" r="6" class="c0"/>
<circle cx="404" cy="1416" r="6" class="c0"/>
<circle cx="12" cy="314" r="6" class="c0"/>
<circle cx="642" cy="722" r="6" class="c0"/>
<circle cx="392" cy="1402" r="6" class="c0"/>
<circle cx="476" cy="1432" r="6" class="c0"/>
<circle cx="608" cy="786" r="6" class="c0"/>
<circle cx="204" cy="860" r="6" class="c0"/>
<circle cx="8" cy="962" r="6" class="c0"/>
<circle cx="622" cy="826" r="6" class="c0"/>
<circle cx="650" cy="1378" r="6" class="c0"/>
<circle cx="146" cy="998" r="6" class="c0"/>
<circle cx="110" cy="864" r="6" class="c0"/>
<circle cx="68" cy="1414" r="6" class="c0"/>
<circle cx="58" cy="1176" r="6" class="c0"/>
</svg>
