<?xml version="1.0" encoding="utf-8"?>
<svg xmlns="http://www.w3.org/2000/svg"
     xmlns:xlink="http://www.w3.org/1999/xlink" width="1920" height="1440" >

            <defs>
            <style type="text/css"><![CDATA[
circle {stroke: none;}
.c0 {fill: #000000;}
]]></style>
            </defs>
<rect x="0" y="0" width="1920" height="1440" fill="white"/>
<circle cx="114" cy="1334" r="12" class="c0"/>
<circle cx="150" cy="1332" r="12" class="c0"/>
<circle cx="276" cy="1396" r="12" class="c0"/>
<circle cx="250" cy="1388" r="12" class="c0"/>
<circle cx="726" cy="1416" r="12" class="c0"/>
<circle cx="176" cy="1372" r="12" class="c0"/>
<circle cx="180" cy="1416" r="12" class="c0"/>
<circle cx="84" cy="848" r="12" class="c0"/>
<circle cx="602" cy="1368" r="12" class="c0"/>
<circle cx="22" cy="1158" r="12" class="c0"/>
<circle cx="182" cy="1342" r="12" class="c0"/>
<circle cx="12" cy="1056" r="12" class="c0"/>
<circle cx="230" cy="1358" r="12" class="c0"/>
<circle cx="140" cy="1008" r="12" class="c0"/>
<circle cx="68" cy="1422" r="12" class="c0"/>
<circle cx="106" cy="970" r="12" class="c0"/>
<circle cx="196" cy="1384" r="12" class="c0"/>
<circle cx="38" cy="1224" r="12" class="c0"/>
<circle cx="610" cy="1426" r="12" class="c0"/>
<circle cx="56" cy="910" r="12" class="c0"/>
<circle cx="92" cy="1370" r="12" class="c0"/>
<circle cx="822" cy="1330" r="12" class="c0"/>
<circle cx="74" cy="1104" r="12" class="c0"/>
<circle cx="20" cy="1336" r="12" class="c0"/>
<circle cx="42" cy="1348" r="12" class="c0"/>
<circle cx="156" cy="822" r="12" class="c0"/>
<circle cx="128" cy="822" r="12" class="c0"/>
<circle cx="66" cy="1328" r="12" class="c0"/>
<circle cx="40" cy="934" r="12" class="c0"/>
<circle cx="118" cy="748" r="12" class="c0"/>
<circle cx="176" cy="838" r="12" class="c0"/>
<circle cx="142" cy="1364" r="12" class="c0"/>
<circle cx="90" cy="820" r="12" class="c0"/>
<circle cx="114" cy="1388" r="12" class="c0"/>
<circle cx="202" cy="712" r="12" class="c0"/>
<circle cx="58" cy="1378" r="12" class="c0"/>
<circle cx="14" cy="1284" r="12" class="c0"/>
<circle cx="58" cy="1172" r="12" class="c0"/>
<circle cx="210" cy="1368" r="10" class="c0"/>
<circle cx="66" cy="796" r="10" class="c0"/>
<circle cx="646" cy="1426" r="10" class="c0"/>
<circle cx="34" cy="1400" r="10" class="c0"/>
<circle cx="186" cy="734" r="10" class="c0"/>
<circle cx="402" cy="1352" r="10" class="c0"/>
<circle cx="10" cy="1362" r="10" class="c0"/>
<circle cx="240" cy="1332" r="10" class="c0"/>
<circle cx="480" cy="1418" r="10" class="c0"/>
<circle cx="152" cy="774" r="10" class="c0"/>
<circle cx="80" cy="1390" r="10" class="c0"/>
<circle cx="284" cy="1422" r="10" class="c0"/>
<circle cx="256" cy="1426" r="10" class="c0"/>
<circle cx="620" cy="1398" r="10" class="c0"/>
<circle cx="96" cy="1422" r="10" class="c0"/>
<circle cx="606" cy="1334" r="10" class="c0"/>
<circle cx="94" cy="1322" r="10" class="c0"/>
<circle cx="32" cy="882" r="10" class="c0"/>
<circle cx="80" cy="894" r="10" class="c0"/>
<circle cx="50" cy="1312" r="10" class="c0"/>
<circle cx="66" cy="1146" r="10" class="c0"/>
<circle cx="128" cy="1310" r="10" class="c0"/>
<circle cx="42" cy="1278" r="10" class="c0"/>
<circle cx="98" cy="1288" r="10" class="c0"/>
<circle cx="144" cy="1428" r="10" class="c0"/>
<circle cx="34" cy="1194" r="10" class="c0"/>
<circle cx="104" cy="712" r="10" class="c0"/>
<circle cx="72" cy="1302" r="10" class="c0"/>
<circle cx="62" cy="1046" r="10" class="c0"/>
<circle cx="20" cy="1412" r="10" class="c0"/>
<circle cx="76" cy="698" r="10" class="c0"/>
<circle cx="590" cy="1392" r="10" class="c0"/>
<circle cx="32" cy="1128" r="10" class="c0"/>
<circle cx="14" cy="1312" r="10" class="c0"/>
<circle cx="10" cy="1214" r="10" class="c0"/>
<circle cx="34" cy="796" r="10" class="c0"/>
<circle cx="280" cy="1358" r="10" class="c0"/>
<circle cx="106" cy="1308" r="10" class="c0"/>
<circle cx="88" cy="950" r="10" class="c0"/>
<circle cx="10" cy="1254" r="10" class="c0"/>
<circle cx="780" cy="1408" r="10" class="c0"/>
<circle cx="76" cy="1128" r="10" class="c0"/>
<circle cx="806" cy="1420" r="10" class="c0"/>
<circle cx="38" cy="1428" r="10" class="c0"/>
<circle cx="70" cy="1272" r="10" class="c0"/>
<circle cx="676" cy="1398" r="10" class="c0"/>
<circle cx="134" cy="1274" r="10" class="c0"/>
<circle cx="90" cy="604" r="10" class="c0"/>
<circle cx="34" cy="1370" r="10" class="c0"/>
<circle cx="218" cy="1324" r="10" class="c0"/>
<circle cx="712" cy="1306" r="10" class="c0"/>
<circle cx="92" cy="922" r="10" class="c0"/>
<circle cx="662" cy="1372" r="10" class="c0"/>
<circle cx="146" cy="1298" r="10" class="c0"/>
<circle cx="120" cy="628" r="10" class="c0"/>
<circle cx="572" cy="1414" r="10" class="c0"/>
<circle cx="232" cy="1422" r="10" class="c0"/>
<circle cx="46" cy="1024" r="10" class="c0"/>
<circle cx="522" cy="1400" r="10" class="c0"/>
<circle cx="100" cy="1048" r="10" class="c0"/>
<circle cx="24" cy="1084" r="10" class="c0"/>
<circle cx="264" cy="1372" r="10" class="c0"/>
<circle cx="36" cy="754" r="10" class="c0"/>
<circle cx="142" cy="1394" r="10" class="c0"/>
<circle cx="22" cy="912" r="10" class="c0"/>
<circle cx="82" cy="980" r="10" class="c0"/>
<circle cx="124" cy="992" r="10" class="c0"/>
<circle cx="28" cy="730" r="10" class="c0"/>
<circle cx="170" cy="702" r="10" class="c0"/>
<circle cx="60" cy="1072" r="10" class="c0"/>
<circle cx="44" cy="1096" r="10" class="c0"/>
<circle cx="384" cy="1424" r="10" class="c0"/>
<circle cx="40" cy="706" r="10" class="c0"/>
<circle cx="162" cy="864" r="10" class="c0"/>
<circle cx="112" cy="858" r="10" class="c0"/>
<circle cx="12" cy="1190" r="10" class="c0"/>
<circle cx="12" cy="1390" r="10" class="c0"/>
<circle cx="200" cy="762" r="10" class="c0"/>
<circle cx="76" cy="1018" r="10" class="c0"/>
<circle cx="56" cy="1402" r="10" class="c0"/>
<circle cx="154" cy="752" r="10" class="c0"/>
<circle cx="52" cy="852" r="10" class="c0"/>
<circle cx="86" cy="1080" r="10" class="c0"/>
<circle cx="514" cy="1422" r="10" class="c0"/>
<circle cx="154" cy="1408" r="10" class="c0"/>
<circle cx="94" cy="1000" r="10" class="c0"/>
<circle cx="68" cy="1352" r="10" class="c0"/>
<circle cx="726" cy="1276" r="10" class="c0"/>
<circle cx="46" cy="998" r="10" class="c0"/>
<circle cx="546" cy="1408" r="10" class="c0"/>
<circle cx="128" cy="1350" r="10" class="c0"/>
<circle cx="78" cy="776" r="10" class="c0"/>
<circle cx="104" cy="674" r="8" class="c0"/>
<circle cx="68" cy="930" r="8" class="c0"/>
<circle cx="8" cy="1142" r="8" class="c0"/>
<circle cx="762" cy="1362" r="8" class="c0"/>
<circle cx="256" cy="1354" r="8" class="c0"/>
<circle cx="146" cy="700" r="8" class="c0"/>
<circle cx="160" cy="1384" r="8" class="c0"/>
<circle cx="132" cy="714" r="8" class="c0"/>
<circle cx="122" cy="1418" r="8" class="c0"/>
<circle cx="88" cy="1344" r="8" class="c0"/>
<circle cx="824" cy="1360" r="8" class="c0"/>
<circle cx="118" cy="792" r="8" class="c0"/>
<circle cx="162" cy="728" r="8" class="c0"/>
<circle cx="630" cy="676" r="8" class="c0"/>
<circle cx="766" cy="1342" r="8" class="c0"/>
<circle cx="30" cy="966" r="8" class="c0"/>
<circle cx="28" cy="1298" r="8" class="c0"/>
<circle cx="840" cy="1422" r="8" class="c0"/>
<circle cx="680" cy="1418" r="8" class="c0"/>
<circle cx="16" cy="680" r="8" class="c0"/>
<circle cx="60" cy="962" r="8" class="c0"/>
<circle cx="222" cy="522" r="8" class="c0"/>
<circle cx="120" cy="956" r="8" class="c0"/>
<circle cx="164" cy="930" r="8" class="c0"/>
<circle cx="172" cy="778" r="8" class="c0"/>
<circle cx="48" cy="978" r="8" class="c0"/>
<circle cx="158" cy="976" r="8" class="c0"/>
<circle cx="52" cy="886" r="8" class="c0"/>
<circle cx="212" cy="1410" r="8" class="c0"/>
<circle cx="810" cy="1384" r="8" class="c0"/>
<circle cx="56" cy="684" r="8" class="c0"/>
<circle cx="124" cy="894" r="8" class="c0"/>
<circle cx="18" cy="476" r="8" class="c0"/>
<circle cx="14" cy="1032" r="8" class="c0"/>
<circle cx="22" cy="1000" r="8" class="c0"/>
<circle cx="32" cy="1246" r="8" class="c0"/>
<circle cx="8" cy="858" r="8" class="c0"/>
<circle cx="394" cy="1398" r="8" class="c0"/>
<circle cx="224" cy="806" r="8" class="c0"/>
<circle cx="114" cy="1268" r="8" class="c0"/>
<circle cx="514" cy="1360" r="8" class="c0"/>
<circle cx="228" cy="1398" r="8" class="c0"/>
<circle cx="148" cy="676" r="8" class="c0"/>
<circle cx="108" cy="614" r="8" class="c0"/>
<circle cx="164" cy="1312" r="8" class="c0"/>
<circle cx="698" cy="1394" r="8" class="c0"/>
<circle cx="484" cy="1362" r="8" class="c0"/>
<circle cx="176" cy="978" r="8" class="c0"/>
<circle cx="142" cy="640" r="8" class="c0"/>
<circle cx="708" cy="1360" r="8" class="c0"/>
<circle cx="648" cy="1384" r="8" class="c0"/>
<circle cx="704" cy="1430" r="8" class="c0"/>
<circle cx="20" cy="778" r="8" class="c0"/>
<circle cx="830" cy="1388" r="8" class="c0"/>
<circle cx="106" cy="886" r="8" class="c0"/>
<circle cx="736" cy="382" r="8" class="c0"/>
<circle cx="740" cy="1360" r="8" class="c0"/>
<circle cx="564" cy="1386" r="8" class="c0"/>
<circle cx="208" cy="830" r="8" class="c0"/>
<circle cx="34" cy="1042" r="8" class="c0"/>
<circle cx="214" cy="744" r="8" class="c0"/>
<circle cx="106" cy="1354" r="8" class="c0"/>
<circle cx="90" cy="1266" r="8" class="c0"/>
<circle cx="52" cy="1210" r="8" class="c0"/>
<circle cx="698" cy="1124" r="8" class="c0"/>
<circle cx="18" cy="982" r="8" class="c0"/>
<circle cx="84" cy="646" r="8" class="c0"/>
<circle cx="40" cy="1070" r="8" class="c0"/>
<circle cx="168" cy="630" r="8" class="c0"/>
<circle cx="8" cy="1010" r="8" class="c0"/>
<circle cx="72" cy="864" r="8" class="c0"/>
<circle cx="48" cy="780" r="8" class="c0"/>
<circle cx="152" cy="946" r="8" class="c0"/>
<circle cx="790" cy="1342" r="8" class="c0"/>
<circle cx="190" cy="628" r="8" class="c0"/>
<circle cx="88" cy="732" r="8" class="c0"/>
<circle cx="758" cy="1326" r="8" class="c0"/>
<circle cx="744" cy="1400" r="8" class="c0"/>
<circle cx="10" cy="698" r="8" class="c0"/>
<circle cx="34" cy="834" r="8" class="c0"/>
<circle cx="576" cy="1356" r="8" class="c0"/>
<circle cx="130" cy="914" r="8" class="c0"/>
<circle cx="292" cy="1374" r="8" class="c0"/>
<circle cx="652" cy="1350" r="8" class="c0"/>
<circle cx="198" cy="1428" r="8" class="c0"/>
<circle cx="174" cy="900" r="8" class="c0"/>
<circle cx="94" cy="796" r="8" class="c0"/>
<circle cx="64" cy="660" r="8" class="c0"/>
<circle cx="68" cy="716" r="8" class="c0"/>
<circle cx="534" cy="1356" r="8" class="c0"/>
<circle cx="60" cy="1288" r="8" class="c0"/>
<circle cx="148" cy="846" r="8" class="c0"/>
<circle cx="788" cy="1360" r="8" class="c0"/>
<circle cx="36" cy="676" r="8" class="c0"/>
<circle cx="76" cy="1058" r="8" class="c0"/>
<circle cx="136" cy="880" r="8" class="c0"/>
<circle cx="46" cy="1142" r="8" class="c0"/>
<circle cx="94" cy="544" r="8" class="c0"/>
<circle cx="376" cy="1394" r="8" class="c0"/>
<circle cx="800" cy="1394" r="8" class="c0"/>
<circle cx="8" cy="1122" r="8" class="c0"/>
<circle cx="782" cy="1312" r="8" class="c0"/>
<circle cx="10" cy="1430" r="8" class="c0"/>
<circle cx="218" cy="1388" r="8" class="c0"/>
<circle cx="648" cy="616" r="8" class="c0"/>
<circle cx="26" cy="690" r="8" class="c0"/>
<circle cx="104" cy="936" r="8" class="c0"/>
<circle cx="724" cy="1372" r="8" class="c0"/>
<circle cx="496" cy="1430" r="8" class="c0"/>
<circle cx="46" cy="1256" r="8" class="c0"/>
<circle cx="132" cy="600" r="8" class="c0"/>
<circle cx="130" cy="936" r="8" class="c0"/>
<circle cx="120" cy="770" r="8" class="c0"/>
<circle cx="502" cy="1396" r="8" class="c0"/>
<circle cx="44" cy="870" r="8" class="c0"/>
<circle cx="84" cy="1410" r="8" class="c0"/>
<circle cx="132" cy="686" r="8" class="c0"/>
<circle cx="124" cy="1290" r="8" class="c0"/>
<circle cx="130" cy="652" r="8" class="c0"/>
<circle cx="12" cy="1234" r="8" class="c0"/>
<circle cx="122" cy="1046" r="8" class="c0"/>
<circle cx="36" cy="604" r="8" class="c0"/>
<circle cx="644" cy="566" r="8" class="c0"/>
<circle cx="136" cy="1032" r="8" class="c0"/>
<circle cx="696" cy="1244" r="8" class="c0"/>
<circle cx="186" cy="1320" r="8" class="c0"/>
<circle cx="184" cy="884" r="8" class="c0"/>
<circle cx="174" cy="806" r="8" class="c0"/>
<circle cx="108" cy="904" r="8" class="c0"/>
<circle cx="550" cy="1430" r="8" class="c0"/>
<circle cx="110" cy="836" r="8" class="c0"/>
<circle cx="8" cy="808" r="8" class="c0"/>
<circle cx="32" cy="816" r="8" class="c0"/>
<circle cx="154" cy="652" r="8" class="c0"/>
<circle cx="596" cy="544" r="8" class="c0"/>
<circle cx="38" cy="1326" r="8" class="c0"/>
<circle cx="536" cy="1378" r="8" class="c0"/>
<circle cx="22" cy="626" r="8" class="c0"/>
<circle cx="748" cy="1240" r="8" class="c0"/>
<circle cx="682" cy="1366" r="8" class="c0"/>
<circle cx="762" cy="1418" r="8" class="c0"/>
<circle cx="800" cy="1328" r="8" class="c0"/>
<circle cx="198" cy="656" r="8" class="c0"/>
<circle cx="82" cy="666" r="8" class="c0"/>
<circle cx="202" cy="678" r="8" class="c0"/>
<circle cx="144" cy="726" r="8" class="c0"/>
<circle cx="54" cy="524" r="8" class="c0"/>
<circle cx="208" cy="798" r="8" class="c0"/>
<circle cx="272" cy="364" r="8" class="c0"/>
<circle cx="392" cy="1372" r="8" class="c0"/>
<circle cx="850" cy="1396" r="8" class="c0"/>
<circle cx="82" cy="1038" r="8" class="c0"/>
<circle cx="190" cy="782" r="8" class="c0"/>
<circle cx="158" cy="1352" r="8" class="c0"/>
<circle cx="660" cy="588" r="8" class="c0"/>
<circle cx="70" cy="746" r="8" class="c0"/>
<circle cx="224" cy="598" r="8" class="c0"/>
<circle cx="8" cy="834" r="8" class="c0"/>
<circle cx="568" cy="1336" r="8" class="c0"/>
<circle cx="402" cy="1414" r="8" class="c0"/>
<circle cx="178" cy="1394" r="8" class="c0"/>
<circle cx="584" cy="692" r="8" class="c0"/>
<circle cx="66" cy="834" r="8" class="c0"/>
<circle cx="116" cy="698" r="8" class="c0"/>
<circle cx="68" cy="1000" r="8" class="c0"/>
<circle cx="22" cy="848" r="8" class="c0"/>
<circle cx="180" cy="954" r="8" class="c0"/>
<circle cx="44" cy="660" r="8" class="c0"/>
<circle cx="668" cy="1328" r="8" class="c0"/>
<circle cx="776" cy="438" r="8" class="c0"/>
<circle cx="10" cy="642" r="8" class="c0"/>
<circle cx="8" cy="1094" r="8" class="c0"/>
<circle cx="142" cy="964" r="8" class="c0"/>
<circle cx="584" cy="1426" r="8" class="c0"/>
<circle cx="214" cy="1344" r="8" class="c0"/>
<circle cx="12" cy="748" r="8" class="c0"/>
<circle cx="198" cy="1356" r="8" class="c0"/>
<circle cx="264" cy="1338" r="8" class="c0"/>
<circle cx="20" cy="1104" r="8" class="c0"/>
<circle cx="106" cy="644" r="8" class="c0"/>
<circle cx="776" cy="1250" r="8" class="c0"/>
<circle cx="92" cy="876" r="8" class="c0"/>
<circle cx="234" cy="466" r="8" class="c0"/>
<circle cx="842" cy="1354" r="8" class="c0"/>
<circle cx="642" cy="1362" r="8" class="c0"/>
<circle cx="674" cy="576" r="8" class="c0"/>
<circle cx="294" cy="1406" r="8" class="c0"/>
<circle cx="190" cy="820" r="8" class="c0"/>
<circle cx="12" cy="930" r="8" class="c0"/>
<circle cx="236" cy="658" r="8" class="c0"/>
<circle cx="480" cy="1396" r="8" class="c0"/>
<circle cx="112" cy="1010" r="8" class="c0"/>
<circle cx="210" cy="570" r="8" class="c0"/>
<circle cx="494" cy="1350" r="8" class="c0"/>
<circle cx="684" cy="414" r="8" class="c0"/>
<circle cx="30" cy="1266" r="8" class="c0"/>
<circle cx="148" cy="986" r="8" class="c0"/>
<circle cx="182" cy="678" r="8" class="c0"/>
<circle cx="140" cy="792" r="8" class="c0"/>
<circle cx="158" cy="802" r="6" class="c0"/>
<circle cx="700" cy="1190" r="6" class="c0"/>
<circle cx="798" cy="1246" r="6" class="c0"/>
<circle cx="220" cy="552" r="6" class="c0"/>
<circle cx="752" cy="458" r="6" class="c0"/>
<circle cx="26" cy="948" r="6" class="c0"/>
<circle cx="656" cy="1410" r="6" class="c0"/>
<circle cx="158" cy="1286" r="6" class="c0"/>
<circle cx="174" cy="758" r="6" class="c0"/>
<circle cx="54" cy="1194" r="6" class="c0"/>
<circle cx="118" cy="926" r="6" class="c0"/>
<circle cx="256" cy="610" r="6" class="c0"/>
<circle cx="644" cy="1324" r="6" class="c0"/>
<circle cx="274" cy="514" r="6" class="c0"/>
<circle cx="232" cy="1380" r="6" class="c0"/>
<circle cx="28" cy="1016" r="6" class="c0"/>
<circle cx="32" cy="1176" r="6" class="c0"/>
<circle cx="792" cy="1380" r="6" class="c0"/>
<circle cx="96" cy="688" r="6" class="c0"/>
<circle cx="200" cy="1330" r="6" class="c0"/>
<circle cx="686" cy="1200" r="6" class="c0"/>
<circle cx="106" cy="734" r="6" class="c0"/>
<circle cx="614" cy="624" r="6" class="c0"/>
<circle cx="714" cy="1396" r="6" class="c0"/>
<circle cx="294" cy="430" r="6" class="c0"/>
<circle cx="768" cy="1392" r="6" class="c0"/>
<circle cx="58" cy="1122" r="6" class="c0"/>
<circle cx="202" cy="1316" r="6" class="c0"/>
<circle cx="728" cy="438" r="6" class="c0"/>
<circle cx="718" cy="1228" r="6" class="c0"/>
<circle cx="58" cy="818" r="6" class="c0"/>
<circle cx="14" cy="896" r="6" class="c0"/>
<circle cx="238" cy="628" r="6" class="c0"/>
<circle cx="136" cy="862" r="6" class="c0"/>
<circle cx="368" cy="1410" r="6" class="c0"/>
<circle cx="122" cy="726" r="6" class="c0"/>
<circle cx="8" cy="876" r="6" class="c0"/>
<circle cx="820" cy="1282" r="6" class="c0"/>
<circle cx="104" cy="806" r="6" class="c0"/>
<circle cx="260" cy="430" r="6" class="c0"/>
<circle cx="184" cy="578" r="6" class="c0"/>
<circle cx="274" cy="434" r="6" class="c0"/>
<circle cx="738" cy="1214" r="6" class="c0"/>
<circle cx="694" cy="1214" r="6" class="c0"/>
<circle cx="656" cy="1242" r="6" class="c0"/>
<circle cx="744" cy="468" r="6" class="c0"/>
<circle cx="846" cy="1308" r="6" class="c0"/>
<circle cx="162" cy="1424" r="6" class="c0"/>
<circle cx="214" cy="1426" r="6" class="c0"/>
<circle cx="774" cy="1296" r="6" class="c0"/>
<circle cx="248" cy="670" r="6" class="c0"/>
<circle cx="8" cy="1170" r="6" class="c0"/>
<circle cx="92" cy="756" r="6" class="c0"/>
<circle cx="244" cy="572" r="6" class="c0"/>
<circle cx="242" cy="530" r="6" class="c0"/>
<circle cx="102" cy="768" r="6" class="c0"/>
<circle cx="20" cy="572" r="6" class="c0"/>
<circle cx="142" cy="808" r="6" class="c0"/>
<circle cx="108" cy="1408" r="6" class="c0"/>
<circle cx="78" cy="912" r="6" class="c0"/>
<circle cx="696" cy="1414" r="6" class="c0"/>
<circle cx="126" cy="1402" r="6" class="c0"/>
<circle cx="292" cy="394" r="6" class="c0"/>
<circle cx="242" cy="502" r="6" class="c0"/>
<circle cx="260" cy="1406" r="6" class="c0"/>
<circle cx="584" cy="710" r="6" class="c0"/>
<circle cx="290" cy="444" r="6" class="c0"/>
<circle cx="246" cy="1408" r="6" class="c0"/>
<circle cx="94" cy="1096" r="6" class="c0"/>
<circle cx="612" cy="670" r="6" class="c0"/>
<circle cx="534" cy="1432" r="6" class="c0"/>
<circle cx="726" cy="1208" r="6" class="c0"/>
<circle cx="104" cy="1026" r="6" class="c0"/>
<circle cx="686" cy="1224" r="6" class="c0"/>
<circle cx="182" cy="600" r="6" class="c0"/>
<circle cx="406" cy="1384" r="6" class="c0"/>
<circle cx="54" cy="742" r="6" class="c0"/>
<circle cx="740" cy="486" r="6" class="c0"/>
<circle cx="366" cy="1432" r="6" class="c0"/>
<circle cx="632" cy="1382" r="6" class="c0"/>
<circle cx="718" cy="1338" r="6" class="c0"/>
<circle cx="842" cy="1286" r="6" class="c0"/>
<circle cx="128" cy="846" r="6" class="c0"/>
<circle cx="638" cy="1402" r="6" class="c0"/>
<circle cx="500" cy="1368" r="6" class="c0"/>
<circle cx="118" cy="876" r="6" class="c0"/>
<circle cx="282" cy="454" r="6" class="c0"/>
<circle cx="152" cy="1268" r="6" class="c0"/>
<circle cx="92" cy="574" r="6" class="c0"/>
<circle cx="94" cy="1112" r="6" class="c0"/>
<circle cx="240" cy="600" r="6" class="c0"/>
<circle cx="488" cy="1378" r="6" class="c0"/>
<circle cx="672" cy="1216" r="6" class="c0"/>
<circle cx="16" cy="958" r="6" class="c0"/>
<circle cx="142" cy="588" r="6" class="c0"/>
<circle cx="756" cy="1198" r="6" class="c0"/>
<circle cx="30" cy="862" r="6" class="c0"/>
<circle cx="606" cy="646" r="6" class="c0"/>
<circle cx="746" cy="1432" r="6" class="c0"/>
<circle cx="658" cy="1288" r="6" class="c0"/>
<circle cx="806" cy="1254" r="6" class="c0"/>
<circle cx="272" cy="488" r="6" class="c0"/>
<circle cx="412" cy="1400" r="6" class="c0"/>
<circle cx="110" cy="1432" r="6" class="c0"/>
<circle cx="776" cy="1432" r="6" class="c0"/>
<circle cx="136" cy="760" r="6" class="c0"/>
<circle cx="50" cy="808" r="6" class="c0"/>
<circle cx="50" cy="826" r="6" class="c0"/>
<circle cx="294" cy="412" r="6" class="c0"/>
<circle cx="102" cy="1066" r="6" class="c0"/>
<circle cx="124" cy="1372" r="6" class="c0"/>
<circle cx="536" cy="1336" r="6" class="c0"/>
<circle cx="194" cy="1404" r="6" class="c0"/>
<circle cx="740" cy="1198" r="6" class="c0"/>
<circle cx="68" cy="578" r="6" class="c0"/>
<circle cx="260" cy="482" r="6" class="c0"/>
<circle cx="260" cy="504" r="6" class="c0"/>
<circle cx="8" cy="946" r="6" class="c0"/>
<circle cx="154" cy="884" r="6" class="c0"/>
<circle cx="98" cy="1398" r="6" class="c0"/>
<circle cx="860" cy="1338" r="6" class="c0"/>
<circle cx="48" cy="1240" r="6" class="c0"/>
<circle cx="750" cy="1380" r="6" class="c0"/>
<circle cx="240" cy="718" r="6" class="c0"/>
<circle cx="498" cy="1414" r="6" class="c0"/>
<circle cx="580" cy="1378" r="6" class="c0"/>
<circle cx="104" cy="580" r="6" class="c0"/>
<circle cx="192" cy="942" r="6" class="c0"/>
<circle cx="724" cy="486" r="6" class="c0"/>
<circle cx="822" cy="1262" r="6" class="c0"/>
<circle cx="770" cy="1208" r="6" class="c0"/>
<circle cx="594" cy="654" r="6" class="c0"/>
<circle cx="144" cy="924" r="6" class="c0"/>
<circle cx="66" cy="762" r="6" class="c0"/>
<circle cx="54" cy="590" r="6" class="c0"/>
<circle cx="184" cy="866" r="6" class="c0"/>
<circle cx="6" cy="904" r="6" class="c0"/>
<circle cx="20" cy="870" r="6" class="c0"/>
<circle cx="8" cy="598" r="6" class="c0"/>
<circle cx="44" cy="1160" r="6" class="c0"/>
<circle cx="230" cy="562" r="6" class="c0"/>
<circle cx="622" cy="590" r="6" class="c0"/>
<circle cx="98" cy="744" r="6" class="c0"/>
<circle cx="10" cy="764" r="6" class="c0"/>
<circle cx="674" cy="1238" r="6" class="c0"/>
<circle cx="152" cy="900" r="6" class="c0"/>
<circle cx="664" cy="1422" r="6" class="c0"/>
<circle cx="54" cy="726" r="6" class="c0"/>
<circle cx="632" cy="1414" r="6" class="c0"/>
<circle cx="668" cy="1254" r="6" class="c0"/>
<circle cx="760" cy="1262" r="6" class="c0"/>
<circle cx="242" cy="682" r="6" class="c0"/>
<circle cx="872" cy="1394" r="6" class="c0"/>
<circle cx="82" cy="582" r="6" class="c0"/>
<circle cx="298" cy="1354" r="6" class="c0"/>
<circle cx="8" cy="966" r="6" class="c0"/>
<circle cx="774" cy="1228" r="6" class="c0"/>
<circle cx="600" cy="1408" r="6" class="c0"/>
<circle cx="658" cy="1394" r="6" class="c0"/>
<circle cx="840" cy="1372" r="6" class="c0"/>
<circle cx="706" cy="1220" r="6" class="c0"/>
<circle cx="268" cy="1414" r="6" class="c0"/>
<circle cx="38" cy="900" r="6" class="c0"/>
<circle cx="6" cy="568" r="6" class="c0"/>
<circle cx="678" cy="1340" r="6" class="c0"/>
</svg>
