<?xml version="1.0" encoding="utf-8"?>
<svg xmlns="http://www.w3.org/2000/svg"
     xmlns:xlink="http://www.w3.org/1999/xlink" width="1920" height="1440" >

            <defs>
            <style type="text/css"><![CDATA[
circle {stroke: none;}
.c0 {fill: #FFFFFF;}
]]></style>
            </defs>
<rect x="0" y="0" width="1920" height="1440" fill="black"/>
<circle cx="1634" cy="172" r="14" class="c0"/>
<circle cx="1790" cy="360" r="14" class="c0"/>
<circle cx="1024" cy="846" r="14" class="c0"/>
<circle cx="1052" cy="732" r="12" class="c0"/>
<circle cx="1632" cy="216" r="12" class="c0"/>
<circle cx="1728" cy="240" r="12" class="c0"/>
<circle cx="1802" cy="22" r="12" class="c0"/>
<circle cx="972" cy="1182" r="12" class="c0"/>
<circle cx="1038" cy="1180" r="12" class="c0"/>
<circle cx="1122" cy="1060" r="12" class="c0"/>
<circle cx="1038" cy="802" r="12" class="c0"/>
<circle cx="1878" cy="172" r="12" class="c0"/>
<circle cx="1742" cy="410" r="12" class="c0"/>
<circle cx="1762" cy="126" r="12" class="c0"/>
<circle cx="1614" cy="112" r="12" class="c0"/>
<circle cx="896" cy="586" r="12" class="c0"/>
<circle cx="980" cy="594" r="12" class="c0"/>
<circle cx="892" cy="810" r="12" class="c0"/>
<circle cx="978" cy="1246" r="12" class="c0"/>
<circle cx="1724" cy="288" r="12" class="c0"/>
<circle cx="1708" cy="66" r="12" class="c0"/>
<circle cx="1768" cy="236" r="12" class="c0"/>
<circle cx="982" cy="736" r="12" class="c0"/>
<circle cx="1028" cy="874" r="12" class="c0"/>
<circle cx="1090" cy="1078" r="12" class="c0"/>
<circle cx="1728" cy="128" r="12" class="c0"/>
<circle cx="1060" cy="612" r="12" class="c0"/>
<circle cx="1844" cy="332" r="12" class="c0"/>
<circle cx="1740" cy="160" r="12" class="c0"/>
<circle cx="1848" cy="478" r="12" class="c0"/>
<circle cx="1002" cy="478" r="12" class="c0"/>
<circle cx="970" cy="872" r="12" class="c0"/>
<circle cx="998" cy="1224" r="12" class="c0"/>
<circle cx="1122" cy="1356" r="12" class="c0"/>
<circle cx="894" cy="476" r="12" class="c0"/>
<circle cx="1130" cy="1380" r="12" class="c0"/>
<circle cx="912" cy="698" r="12" class="c0"/>
<circle cx="1016" cy="942" r="12" class="c0"/>
<circle cx="914" cy="916" r="12" class="c0"/>
<circle cx="1076" cy="568" r="12" class="c0"/>
<circle cx="984" cy="450" r="12" class="c0"/>
<circle cx="1814" cy="434" r="12" class="c0"/>
<circle cx="1070" cy="764" r="12" class="c0"/>
<circle cx="1780" cy="154" r="12" class="c0"/>
<circle cx="1724" cy="372" r="12" class="c0"/>
<circle cx="1764" cy="100" r="12" class="c0"/>
<circle cx="1068" cy="944" r="12" class="c0"/>
<circle cx="978" cy="898" r="12" class="c0"/>
<circle cx="1798" cy="68" r="12" class="c0"/>
<circle cx="998" cy="1384" r="12" class="c0"/>
<circle cx="1084" cy="1260" r="12" class="c0"/>
<circle cx="956" cy="1262" r="12" class="c0"/>
<circle cx="1000" cy="1168" r="12" class="c0"/>
<circle cx="1062" cy="1200" r="12" class="c0"/>
<circle cx="1048" cy="1026" r="12" class="c0"/>
<circle cx="1106" cy="992" r="12" class="c0"/>
<circle cx="1736" cy="322" r="12" class="c0"/>
<circle cx="958" cy="460" r="12" class="c0"/>
<circle cx="960" cy="798" r="12" class="c0"/>
<circle cx="1762" cy="22" r="12" class="c0"/>
<circle cx="990" cy="500" r="12" class="c0"/>
<circle cx="1906" cy="402" r="12" class="c0"/>
<circle cx="950" cy="622" r="12" class="c0"/>
<circle cx="906" cy="1214" r="12" class="c0"/>
<circle cx="1682" cy="144" r="12" class="c0"/>
<circle cx="1756" cy="210" r="12" class="c0"/>
<circle cx="980" cy="682" r="12" class="c0"/>
<circle cx="1046" cy="480" r="12" class="c0"/>
<circle cx="1898" cy="502" r="12" class="c0"/>
<circle cx="984" cy="928" r="12" class="c0"/>
<circle cx="890" cy="1410" r="12" class="c0"/>
<circle cx="902" cy="526" r="12" class="c0"/>
<circle cx="1106" cy="892" r="12" class="c0"/>
<circle cx="1676" cy="24" r="12" class="c0"/>
<circle cx="1676" cy="258" r="12" class="c0"/>
<circle cx="1708" cy="328" r="12" class="c0"/>
<circle cx="1028" cy="658" r="12" class="c0"/>
<circle cx="950" cy="842" r="12" class="c0"/>
<circle cx="1136" cy="1324" r="12" class="c0"/>
<circle cx="1028" cy="1300" r="12" class="c0"/>
<circle cx="1892" cy="284" r="12" class="c0"/>
<circle cx="934" cy="1166" r="12" class="c0"/>
<circle cx="984" cy="1292" r="12" class="c0"/>
<circle cx="1716" cy="26" r="12" class="c0"/>
<circle cx="1126" cy="1296" r="12" class="c0"/>
<circle cx="1038" cy="920" r="12" class="c0"/>
<circle cx="1816" cy="154" r="12" class="c0"/>
<circle cx="1032" cy="1150" r="10" class="c0"/>
<circle cx="1890" cy="18" r="10" class="c0"/>
<circle cx="1094" cy="1310" r="10" class="c0"/>
<circle cx="944" cy="558" r="10" class="c0"/>
<circle cx="920" cy="950" r="10" class="c0"/>
<circle cx="1012" cy="1346" r="10" class="c0"/>
<circle cx="968" cy="1060" r="10" class="c0"/>
<circle cx="1906" cy="540" r="10" class="c0"/>
<circle cx="1816" cy="304" r="10" class="c0"/>
<circle cx="936" cy="1142" r="10" class="c0"/>
<circle cx="934" cy="1396" r="10" class="c0"/>
<circle cx="1774" cy="260" r="10" class="c0"/>
<circle cx="986" cy="1404" r="10" class="c0"/>
<circle cx="1782" cy="408" r="10" class="c0"/>
<circle cx="1084" cy="1154" r="10" class="c0"/>
<circle cx="960" cy="1354" r="10" class="c0"/>
<circle cx="1026" cy="770" r="10" class="c0"/>
<circle cx="1584" cy="124" r="10" class="c0"/>
<circle cx="1842" cy="50" r="10" class="c0"/>
<circle cx="1908" cy="134" r="10" class="c0"/>
<circle cx="1792" cy="94" r="10" class="c0"/>
<circle cx="916" cy="1098" r="10" class="c0"/>
<circle cx="882" cy="1086" r="10" class="c0"/>
<circle cx="1612" cy="146" r="10" class="c0"/>
<circle cx="1790" cy="198" r="10" class="c0"/>
<circle cx="1908" cy="374" r="10" class="c0"/>
<circle cx="1730" cy="180" r="10" class="c0"/>
<circle cx="992" cy="1030" r="10" class="c0"/>
<circle cx="900" cy="1114" r="10" class="c0"/>
<circle cx="1066" cy="1004" r="10" class="c0"/>
<circle cx="1698" cy="100" r="10" class="c0"/>
<circle cx="1118" cy="1244" r="10" class="c0"/>
<circle cx="984" cy="1138" r="10" class="c0"/>
<circle cx="994" cy="700" r="10" class="c0"/>
<circle cx="1746" cy="350" r="10" class="c0"/>
<circle cx="990" cy="616" r="10" class="c0"/>
<circle cx="1858" cy="88" r="10" class="c0"/>
<circle cx="940" cy="716" r="10" class="c0"/>
<circle cx="1062" cy="1054" r="10" class="c0"/>
<circle cx="1014" cy="1078" r="10" class="c0"/>
<circle cx="1106" cy="1186" r="10" class="c0"/>
<circle cx="1066" cy="1166" r="10" class="c0"/>
<circle cx="1794" cy="174" r="10" class="c0"/>
<circle cx="916" cy="490" r="10" class="c0"/>
<circle cx="1800" cy="318" r="10" class="c0"/>
<circle cx="868" cy="468" r="10" class="c0"/>
<circle cx="962" cy="1014" r="10" class="c0"/>
<circle cx="1102" cy="848" r="10" class="c0"/>
<circle cx="1904" cy="72" r="10" class="c0"/>
<circle cx="1026" cy="1218" r="10" class="c0"/>
<circle cx="918" cy="1058" r="10" class="c0"/>
<circle cx="1076" cy="1224" r="10" class="c0"/>
<circle cx="998" cy="1090" r="10" class="c0"/>
<circle cx="1722" cy="264" r="10" class="c0"/>
<circle cx="854" cy="546" r="10" class="c0"/>
<circle cx="884" cy="1242" r="10" class="c0"/>
<circle cx="1696" cy="228" r="10" class="c0"/>
<circle cx="1046" cy="676" r="10" class="c0"/>
<circle cx="932" cy="740" r="10" class="c0"/>
<circle cx="1890" cy="250" r="10" class="c0"/>
<circle cx="1026" cy="516" r="10" class="c0"/>
<circle cx="1070" cy="1092" r="10" class="c0"/>
<circle cx="1062" cy="822" r="10" class="c0"/>
<circle cx="980" cy="642" r="10" class="c0"/>
<circle cx="1620" cy="42" r="10" class="c0"/>
<circle cx="1108" cy="1128" r="10" class="c0"/>
<circle cx="1078" cy="1422" r="10" class="c0"/>
<circle cx="1080" cy="1032" r="10" class="c0"/>
<circle cx="1774" cy="376" r="10" class="c0"/>
<circle cx="1090" cy="664" r="10" class="c0"/>
<circle cx="936" cy="694" r="10" class="c0"/>
<circle cx="1804" cy="382" r="10" class="c0"/>
<circle cx="1698" cy="186" r="10" class="c0"/>
<circle cx="916" cy="770" r="10" class="c0"/>
<circle cx="1892" cy="220" r="10" class="c0"/>
<circle cx="1012" cy="782" r="10" class="c0"/>
<circle cx="900" cy="846" r="10" class="c0"/>
<circle cx="880" cy="1058" r="10" class="c0"/>
<circle cx="896" cy="886" r="10" class="c0"/>
<circle cx="1766" cy="298" r="10" class="c0"/>
<circle cx="1072" cy="866" r="10" class="c0"/>
<circle cx="1740" cy="38" r="10" class="c0"/>
<circle cx="1098" cy="958" r="10" class="c0"/>
<circle cx="1058" cy="1308" r="10" class="c0"/>
<circle cx="1020" cy="576" r="10" class="c0"/>
<circle cx="1844" cy="366" r="10" class="c0"/>
<circle cx="1678" cy="90" r="10" class="c0"/>
<circle cx="1032" cy="1094" r="10" class="c0"/>
<circle cx="1864" cy="240" r="10" class="c0"/>
<circle cx="1682" cy="300" r="10" class="c0"/>
<circle cx="1682" cy="348" r="10" class="c0"/>
<circle cx="1862" cy="378" r="10" class="c0"/>
<circle cx="1658" cy="212" r="10" class="c0"/>
<circle cx="984" cy="784" r="10" class="c0"/>
<circle cx="1106" cy="1428" r="10" class="c0"/>
<circle cx="1830" cy="464" r="10" class="c0"/>
<circle cx="1070" cy="536" r="10" class="c0"/>
<circle cx="910" cy="1354" r="10" class="c0"/>
<circle cx="936" cy="1196" r="10" class="c0"/>
<circle cx="1046" cy="526" r="10" class="c0"/>
<circle cx="1822" cy="486" r="10" class="c0"/>
<circle cx="1050" cy="574" r="10" class="c0"/>
<circle cx="972" cy="830" r="10" class="c0"/>
<circle cx="1042" cy="1382" r="10" class="c0"/>
<circle cx="1020" cy="1404" r="10" class="c0"/>
<circle cx="1866" cy="458" r="10" class="c0"/>
<circle cx="1602" cy="52" r="10" class="c0"/>
<circle cx="1034" cy="448" r="10" class="c0"/>
<circle cx="1704" cy="254" r="10" class="c0"/>
<circle cx="1086" cy="816" r="10" class="c0"/>
<circle cx="1774" cy="50" r="10" class="c0"/>
<circle cx="928" cy="416" r="10" class="c0"/>
<circle cx="1898" cy="186" r="10" class="c0"/>
<circle cx="886" cy="1312" r="10" class="c0"/>
<circle cx="1104" cy="798" r="10" class="c0"/>
<circle cx="1820" cy="210" r="10" class="c0"/>
<circle cx="1102" cy="1020" r="10" class="c0"/>
<circle cx="1530" cy="46" r="10" class="c0"/>
<circle cx="986" cy="818" r="10" class="c0"/>
<circle cx="936" cy="1290" r="10" class="c0"/>
<circle cx="908" cy="1136" r="10" class="c0"/>
<circle cx="926" cy="1020" r="10" class="c0"/>
<circle cx="1108" cy="744" r="10" class="c0"/>
<circle cx="932" cy="1044" r="10" class="c0"/>
<circle cx="1586" cy="24" r="10" class="c0"/>
<circle cx="952" cy="1036" r="10" class="c0"/>
<circle cx="1004" cy="1308" r="10" class="c0"/>
<circle cx="1800" cy="218" r="10" class="c0"/>
<circle cx="892" cy="1288" r="10" class="c0"/>
<circle cx="1814" cy="242" r="10" class="c0"/>
<circle cx="914" cy="614" r="10" class="c0"/>
<circle cx="926" cy="664" r="10" class="c0"/>
<circle cx="988" cy="968" r="10" class="c0"/>
<circle cx="1592" cy="86" r="10" class="c0"/>
<circle cx="1868" cy="44" r="10" class="c0"/>
<circle cx="1674" cy="64" r="10" class="c0"/>
<circle cx="948" cy="900" r="10" class="c0"/>
<circle cx="1758" cy="432" r="10" class="c0"/>
<circle cx="960" cy="1286" r="10" class="c0"/>
<circle cx="918" cy="836" r="10" class="c0"/>
<circle cx="1018" cy="816" r="10" class="c0"/>
<circle cx="1038" cy="954" r="10" class="c0"/>
<circle cx="996" cy="548" r="10" class="c0"/>
<circle cx="946" cy="1070" r="10" class="c0"/>
<circle cx="1858" cy="286" r="10" class="c0"/>
<circle cx="876" cy="1384" r="10" class="c0"/>
<circle cx="894" cy="984" r="10" class="c0"/>
<circle cx="906" cy="824" r="10" class="c0"/>
<circle cx="1058" cy="552" r="10" class="c0"/>
<circle cx="1554" cy="198" r="10" class="c0"/>
<circle cx="990" cy="1058" r="10" class="c0"/>
<circle cx="1004" cy="828" r="10" class="c0"/>
<circle cx="1608" cy="202" r="10" class="c0"/>
<circle cx="1048" cy="862" r="10" class="c0"/>
<circle cx="1038" cy="1328" r="10" class="c0"/>
<circle cx="1074" cy="1332" r="10" class="c0"/>
<circle cx="992" cy="840" r="10" class="c0"/>
<circle cx="1038" cy="602" r="10" class="c0"/>
<circle cx="922" cy="794" r="10" class="c0"/>
<circle cx="1052" cy="776" r="10" class="c0"/>
<circle cx="1004" cy="642" r="10" class="c0"/>
<circle cx="1826" cy="72" r="10" class="c0"/>
<circle cx="1868" cy="144" r="10" class="c0"/>
<circle cx="1060" cy="1256" r="10" class="c0"/>
<circle cx="1796" cy="136" r="10" class="c0"/>
<circle cx="904" cy="1044" r="10" class="c0"/>
<circle cx="1616" cy="70" r="10" class="c0"/>
<circle cx="906" cy="558" r="10" class="c0"/>
<circle cx="1044" cy="1000" r="10" class="c0"/>
<circle cx="1874" cy="74" r="10" class="c0"/>
<circle cx="1830" cy="126" r="10" class="c0"/>
<circle cx="922" cy="1322" r="10" class="c0"/>
<circle cx="912" cy="1242" r="10" class="c0"/>
<circle cx="868" cy="558" r="10" class="c0"/>
<circle cx="1708" cy="356" r="10" class="c0"/>
<circle cx="1664" cy="188" r="10" class="c0"/>
<circle cx="1090" cy="780" r="10" class="c0"/>
<circle cx="924" cy="1418" r="10" class="c0"/>
<circle cx="1064" cy="1140" r="10" class="c0"/>
<circle cx="1004" cy="1424" r="10" class="c0"/>
<circle cx="942" cy="1240" r="10" class="c0"/>
<circle cx="1842" cy="112" r="10" class="c0"/>
<circle cx="1838" cy="10" r="10" class="c0"/>
<circle cx="878" cy="1172" r="10" class="c0"/>
<circle cx="1812" cy="102" r="10" class="c0"/>
<circle cx="1130" cy="1228" r="10" class="c0"/>
<circle cx="1098" cy="714" r="10" class="c0"/>
<circle cx="936" cy="598" r="10" class="c0"/>
<circle cx="978" cy="568" r="10" class="c0"/>
<circle cx="942" cy="1116" r="10" class="c0"/>
<circle cx="1640" cy="84" r="10" class="c0"/>
<circle cx="928" cy="542" r="10" class="c0"/>
<circle cx="974" cy="956" r="10" class="c0"/>
<circle cx="924" cy="572" r="10" class="c0"/>
<circle cx="1814" cy="276" r="10" class="c0"/>
<circle cx="1872" cy="104" r="10" class="c0"/>
<circle cx="1046" cy="644" r="10" class="c0"/>
<circle cx="1760" cy="178" r="10" class="c0"/>
<circle cx="1010" cy="994" r="10" class="c0"/>
<circle cx="1722" cy="212" r="10" class="c0"/>
<circle cx="1792" cy="444" r="10" class="c0"/>
<circle cx="952" cy="946" r="10" class="c0"/>
<circle cx="1038" cy="698" r="10" class="c0"/>
<circle cx="958" cy="498" r="10" class="c0"/>
<circle cx="1008" cy="1018" r="10" class="c0"/>
<circle cx="1838" cy="498" r="10" class="c0"/>
<circle cx="924" cy="460" r="10" class="c0"/>
<circle cx="1028" cy="624" r="10" class="c0"/>
<circle cx="994" cy="1336" r="10" class="c0"/>
<circle cx="1046" cy="1274" r="10" class="c0"/>
<circle cx="1884" cy="392" r="10" class="c0"/>
<circle cx="1864" cy="214" r="10" class="c0"/>
<circle cx="1020" cy="1250" r="10" class="c0"/>
<circle cx="892" cy="762" r="10" class="c0"/>
<circle cx="1844" cy="298" r="10" class="c0"/>
<circle cx="962" cy="920" r="10" class="c0"/>
<circle cx="1074" cy="630" r="10" class="c0"/>
<circle cx="964" cy="430" r="10" class="c0"/>
<circle cx="962" cy="670" r="10" class="c0"/>
<circle cx="1714" cy="156" r="10" class="c0"/>
<circle cx="1644" cy="252" r="10" class="c0"/>
<circle cx="1618" cy="14" r="10" class="c0"/>
<circle cx="1050" cy="1404" r="10" class="c0"/>
<circle cx="1004" cy="428" r="10" class="c0"/>
<circle cx="1814" cy="344" r="10" class="c0"/>
<circle cx="1002" cy="602" r="10" class="c0"/>
<circle cx="1120" cy="952" r="10" class="c0"/>
<circle cx="1888" cy="420" r="10" class="c0"/>
<circle cx="1828" cy="178" r="10" class="c0"/>
<circle cx="1106" cy="1332" r="8" class="c0"/>
<circle cx="1086" cy="916" r="8" class="c0"/>
<circle cx="1108" cy="1214" r="8" class="c0"/>
<circle cx="934" cy="440" r="8" class="c0"/>
<circle cx="870" cy="496" r="8" class="c0"/>
<circle cx="904" cy="1330" r="8" class="c0"/>
<circle cx="862" cy="1160" r="8" class="c0"/>
<circle cx="992" cy="1190" r="8" class="c0"/>
<circle cx="1602" cy="178" r="8" class="c0"/>
<circle cx="1866" cy="308" r="8" class="c0"/>
<circle cx="978" cy="1088" r="8" class="c0"/>
<circle cx="1644" cy="138" r="8" class="c0"/>
<circle cx="1128" cy="1090" r="8" class="c0"/>
<circle cx="920" cy="972" r="8" class="c0"/>
<circle cx="1880" cy="268" r="8" class="c0"/>
<circle cx="962" cy="1126" r="8" class="c0"/>
<circle cx="918" cy="990" r="8" class="c0"/>
<circle cx="960" cy="740" r="8" class="c0"/>
<circle cx="1012" cy="1370" r="8" class="c0"/>
<circle cx="934" cy="636" r="8" class="c0"/>
<circle cx="898" cy="954" r="8" class="c0"/>
<circle cx="918" cy="866" r="8" class="c0"/>
<circle cx="1086" cy="1192" r="8" class="c0"/>
<circle cx="1028" cy="1034" r="8" class="c0"/>
<circle cx="1858" cy="416" r="8" class="c0"/>
<circle cx="1108" cy="932" r="8" class="c0"/>
<circle cx="1846" cy="150" r="8" class="c0"/>
<circle cx="1746" cy="284" r="8" class="c0"/>
<circle cx="1024" cy="1120" r="8" class="c0"/>
<circle cx="1128" cy="1402" r="8" class="c0"/>
<circle cx="958" cy="702" r="8" class="c0"/>
<circle cx="1856" cy="190" r="8" class="c0"/>
<circle cx="1034" cy="1070" r="8" class="c0"/>
<circle cx="1676" cy="230" r="8" class="c0"/>
<circle cx="948" cy="1324" r="8" class="c0"/>
<circle cx="980" cy="1114" r="8" class="c0"/>
<circle cx="1888" cy="52" r="8" class="c0"/>
<circle cx="1064" cy="902" r="8" class="c0"/>
<circle cx="1660" cy="156" r="8" class="c0"/>
<circle cx="1628" cy="130" r="8" class="c0"/>
<circle cx="1004" cy="728" r="8" class="c0"/>
<circle cx="878" cy="1134" r="8" class="c0"/>
<circle cx="1884" cy="340" r="8" class="c0"/>
<circle cx="1078" cy="598" r="8" class="c0"/>
<circle cx="1006" cy="1280" r="8" class="c0"/>
<circle cx="1658" cy="314" r="8" class="c0"/>
<circle cx="1106" cy="826" r="8" class="c0"/>
<circle cx="1078" cy="1128" r="8" class="c0"/>
<circle cx="1906" cy="470" r="8" class="c0"/>
<circle cx="930" cy="852" r="8" class="c0"/>
<circle cx="1086" cy="884" r="8" class="c0"/>
<circle cx="1568" cy="180" r="8" class="c0"/>
<circle cx="1078" cy="984" r="8" class="c0"/>
<circle cx="914" cy="726" r="8" class="c0"/>
<circle cx="978" cy="1324" r="8" class="c0"/>
<circle cx="1112" cy="34" r="8" class="c0"/>
<circle cx="1098" cy="1278" r="8" class="c0"/>
<circle cx="976" cy="1212" r="8" class="c0"/>
<circle cx="882" cy="1272" r="8" class="c0"/>
<circle cx="904" cy="1380" r="8" class="c0"/>
<circle cx="950" cy="818" r="8" class="c0"/>
<circle cx="1902" cy="310" r="8" class="c0"/>
<circle cx="1080" cy="844" r="8" class="c0"/>
<circle cx="1772" cy="496" r="8" class="c0"/>
<circle cx="954" cy="540" r="8" class="c0"/>
<circle cx="1768" cy="448" r="8" class="c0"/>
<circle cx="1742" cy="8" r="8" class="c0"/>
<circle cx="966" cy="1224" r="8" class="c0"/>
<circle cx="1094" cy="1362" r="8" class="c0"/>
<circle cx="1010" cy="1188" r="8" class="c0"/>
<circle cx="932" cy="962" r="8" class="c0"/>
<circle cx="1076" cy="732" r="8" class="c0"/>
<circle cx="896" cy="782" r="8" class="c0"/>
<circle cx="1122" cy="1034" r="8" class="c0"/>
<circle cx="1118" cy="918" r="8" class="c0"/>
<circle cx="1778" cy="428" r="8" class="c0"/>
<circle cx="962" cy="1428" r="8" class="c0"/>
<circle cx="1024" cy="540" r="8" class="c0"/>
<circle cx="1828" cy="380" r="8" class="c0"/>
<circle cx="910" cy="1302" r="8" class="c0"/>
<circle cx="1824" cy="26" r="8" class="c0"/>
<circle cx="1130" cy="1136" r="8" class="c0"/>
<circle cx="884" cy="1218" r="8" class="c0"/>
<circle cx="1070" cy="512" r="8" class="c0"/>
<circle cx="904" cy="434" r="8" class="c0"/>
<circle cx="1084" cy="1384" r="8" class="c0"/>
<circle cx="1904" cy="452" r="8" class="c0"/>
<circle cx="1910" cy="42" r="8" class="c0"/>
<circle cx="876" cy="832" r="8" class="c0"/>
<circle cx="868" cy="1122" r="8" class="c0"/>
<circle cx="894" cy="1158" r="8" class="c0"/>
<circle cx="1012" cy="966" r="8" class="c0"/>
<circle cx="1888" cy="114" r="8" class="c0"/>
<circle cx="1032" cy="986" r="8" class="c0"/>
<circle cx="1130" cy="1166" r="8" class="c0"/>
<circle cx="948" cy="522" r="8" class="c0"/>
<circle cx="1086" cy="698" r="8" class="c0"/>
<circle cx="1114" cy="770" r="8" class="c0"/>
<circle cx="876" cy="520" r="8" class="c0"/>
<circle cx="996" cy="862" r="8" class="c0"/>
<circle cx="842" cy="518" r="8" class="c0"/>
<circle cx="1062" cy="1120" r="8" class="c0"/>
<circle cx="924" cy="1230" r="8" class="c0"/>
<circle cx="1646" cy="18" r="8" class="c0"/>
<circle cx="1742" cy="196" r="8" class="c0"/>
<circle cx="1094" cy="1170" r="8" class="c0"/>
<circle cx="1842" cy="256" r="8" class="c0"/>
<circle cx="1582" cy="68" r="8" class="c0"/>
<circle cx="962" cy="1148" r="8" class="c0"/>
<circle cx="1076" cy="1292" r="8" class="c0"/>
<circle cx="1870" cy="16" r="8" class="c0"/>
<circle cx="1052" cy="506" r="8" class="c0"/>
<circle cx="1062" cy="690" r="8" class="c0"/>
<circle cx="1892" cy="84" r="8" class="c0"/>
<circle cx="958" cy="572" r="8" class="c0"/>
<circle cx="892" cy="1362" r="8" class="c0"/>
<circle cx="1014" cy="1140" r="8" class="c0"/>
<circle cx="1014" cy="462" r="8" class="c0"/>
<circle cx="1000" cy="802" r="8" class="c0"/>
<circle cx="840" cy="492" r="8" class="c0"/>
<circle cx="1036" cy="1350" r="8" class="c0"/>
<circle cx="926" cy="1344" r="8" class="c0"/>
<circle cx="1846" cy="454" r="8" class="c0"/>
<circle cx="880" cy="1198" r="8" class="c0"/>
<circle cx="1060" cy="970" r="8" class="c0"/>
<circle cx="1842" cy="202" r="8" class="c0"/>
<circle cx="960" cy="640" r="8" class="c0"/>
<circle cx="1762" cy="340" r="8" class="c0"/>
<circle cx="906" cy="1070" r="8" class="c0"/>
<circle cx="876" cy="1426" r="8" class="c0"/>
<circle cx="1642" cy="356" r="8" class="c0"/>
<circle cx="1010" cy="688" r="8" class="c0"/>
<circle cx="1722" cy="106" r="8" class="c0"/>
<circle cx="1140" cy="1422" r="8" class="c0"/>
<circle cx="1910" cy="200" r="8" class="c0"/>
<circle cx="1122" cy="980" r="8" class="c0"/>
<circle cx="1908" cy="164" r="8" class="c0"/>
<circle cx="1632" cy="30" r="8" class="c0"/>
<circle cx="1726" cy="54" r="8" class="c0"/>
<circle cx="1040" cy="1246" r="8" class="c0"/>
<circle cx="992" cy="522" r="8" class="c0"/>
<circle cx="930" cy="822" r="8" class="c0"/>
<circle cx="1870" cy="432" r="8" class="c0"/>
<circle cx="1062" cy="666" r="8" class="c0"/>
<circle cx="1860" cy="502" r="8" class="c0"/>
<circle cx="912" cy="1170" r="8" class="c0"/>
<circle cx="1670" cy="124" r="8" class="c0"/>
<circle cx="1746" cy="80" r="8" class="c0"/>
<circle cx="924" cy="1366" r="8" class="c0"/>
<circle cx="1016" cy="1052" r="8" class="c0"/>
<circle cx="944" cy="990" r="8" class="c0"/>
<circle cx="1904" cy="102" r="8" class="c0"/>
<circle cx="1028" cy="716" r="8" class="c0"/>
<circle cx="1004" cy="752" r="8" class="c0"/>
<circle cx="888" cy="1342" r="8" class="c0"/>
<circle cx="1840" cy="278" r="8" class="c0"/>
<circle cx="1586" cy="192" r="8" class="c0"/>
<circle cx="1816" cy="398" r="8" class="c0"/>
<circle cx="1002" cy="668" r="8" class="c0"/>
<circle cx="834" cy="540" r="8" class="c0"/>
<circle cx="1124" cy="1204" r="8" class="c0"/>
<circle cx="1856" cy="164" r="8" class="c0"/>
<circle cx="1008" cy="1262" r="8" class="c0"/>
<circle cx="1044" cy="886" r="8" class="c0"/>
<circle cx="1860" cy="62" r="8" class="c0"/>
<circle cx="1880" cy="512" r="8" class="c0"/>
<circle cx="914" cy="1008" r="8" class="c0"/>
<circle cx="910" cy="1430" r="8" class="c0"/>
<circle cx="918" cy="1264" r="8" class="c0"/>
<circle cx="990" cy="1362" r="8" class="c0"/>
<circle cx="1102" cy="1050" r="8" class="c0"/>
<circle cx="1018" cy="900" r="8" class="c0"/>
<circle cx="968" cy="756" r="8" class="c0"/>
<circle cx="1092" cy="1342" r="8" class="c0"/>
<circle cx="1700" cy="14" r="8" class="c0"/>
<circle cx="954" cy="1208" r="8" class="c0"/>
<circle cx="1840" cy="392" r="8" class="c0"/>
<circle cx="916" cy="1282" r="8" class="c0"/>
<circle cx="948" cy="482" r="8" class="c0"/>
<circle cx="1022" cy="494" r="8" class="c0"/>
<circle cx="1788" cy="480" r="8" class="c0"/>
<circle cx="1132" cy="998" r="8" class="c0"/>
<circle cx="1010" cy="920" r="8" class="c0"/>
<circle cx="1644" cy="112" r="8" class="c0"/>
<circle cx="1880" cy="488" r="8" class="c0"/>
<circle cx="1724" cy="346" r="8" class="c0"/>
<circle cx="1120" cy="840" r="8" class="c0"/>
<circle cx="958" cy="592" r="8" class="c0"/>
<circle cx="1792" cy="268" r="8" class="c0"/>
<circle cx="888" cy="542" r="8" class="c0"/>
<circle cx="1088" cy="1404" r="8" class="c0"/>
<circle cx="1560" cy="76" r="8" class="c0"/>
<circle cx="964" cy="994" r="8" class="c0"/>
<circle cx="974" cy="476" r="8" class="c0"/>
<circle cx="1752" cy="384" r="8" class="c0"/>
<circle cx="1658" cy="96" r="8" class="c0"/>
<circle cx="1780" cy="116" r="8" class="c0"/>
<circle cx="890" cy="914" r="8" class="c0"/>
<circle cx="902" cy="716" r="8" class="c0"/>
<circle cx="920" cy="512" r="8" class="c0"/>
<circle cx="1632" cy="272" r="8" class="c0"/>
<circle cx="1668" cy="288" r="8" class="c0"/>
<circle cx="930" cy="876" r="8" class="c0"/>
<circle cx="1866" cy="354" r="8" class="c0"/>
<circle cx="944" cy="648" r="8" class="c0"/>
<circle cx="892" cy="866" r="8" class="c0"/>
<circle cx="936" cy="1430" r="8" class="c0"/>
<circle cx="1068" cy="1394" r="8" class="c0"/>
<circle cx="1846" cy="538" r="8" class="c0"/>
<circle cx="894" cy="1022" r="8" class="c0"/>
<circle cx="1638" cy="60" r="8" class="c0"/>
<circle cx="1106" cy="1388" r="8" class="c0"/>
<circle cx="1040" cy="832" r="8" class="c0"/>
<circle cx="1846" cy="428" r="8" class="c0"/>
<circle cx="1064" cy="1354" r="8" class="c0"/>
<circle cx="1144" cy="1348" r="8" class="c0"/>
<circle cx="1618" cy="238" r="8" class="c0"/>
<circle cx="1112" cy="970" r="8" class="c0"/>
<circle cx="1110" cy="1100" r="8" class="c0"/>
<circle cx="996" cy="908" r="8" class="c0"/>
<circle cx="1022" cy="742" r="8" class="c0"/>
<circle cx="1006" cy="1108" r="8" class="c0"/>
<circle cx="1808" cy="462" r="8" class="c0"/>
<circle cx="1570" cy="34" r="8" class="c0"/>
<circle cx="1698" cy="290" r="8" class="c0"/>
<circle cx="1572" cy="252" r="8" class="c0"/>
<circle cx="920" cy="894" r="8" class="c0"/>
<circle cx="1652" cy="40" r="8" class="c0"/>
<circle cx="1890" cy="478" r="8" class="c0"/>
<circle cx="994" cy="580" r="8" class="c0"/>
<circle cx="966" cy="1390" r="8" class="c0"/>
<circle cx="914" cy="1390" r="8" class="c0"/>
<circle cx="1036" cy="1428" r="8" class="c0"/>
<circle cx="1836" cy="438" r="8" class="c0"/>
<circle cx="1908" cy="338" r="8" class="c0"/>
<circle cx="1688" cy="410" r="8" class="c0"/>
<circle cx="1834" cy="314" r="8" class="c0"/>
<circle cx="1722" cy="442" r="8" class="c0"/>
<circle cx="1862" cy="522" r="8" class="c0"/>
<circle cx="894" cy="1260" r="8" class="c0"/>
<circle cx="1838" cy="228" r="8" class="c0"/>
<circle cx="1892" cy="148" r="8" class="c0"/>
<circle cx="948" cy="1304" r="8" class="c0"/>
<circle cx="1836" cy="88" r="8" class="c0"/>
<circle cx="1782" cy="12" r="8" class="c0"/>
<circle cx="1786" cy="304" r="8" class="c0"/>
<circle cx="1742" cy="256" r="8" class="c0"/>
<circle cx="892" cy="448" r="8" class="c0"/>
<circle cx="1852" cy="130" r="8" class="c0"/>
<circle cx="1600" cy="158" r="8" class="c0"/>
<circle cx="1154" cy="1398" r="8" class="c0"/>
<circle cx="936" cy="1094" r="8" class="c0"/>
<circle cx="1684" cy="322" r="8" class="c0"/>
<circle cx="992" cy="948" r="8" class="c0"/>
<circle cx="1786" cy="248" r="8" class="c0"/>
<circle cx="970" cy="524" r="8" class="c0"/>
<circle cx="1822" cy="326" r="8" class="c0"/>
<circle cx="914" cy="1194" r="8" class="c0"/>
<circle cx="892" cy="1184" r="8" class="c0"/>
<circle cx="1124" cy="872" r="8" class="c0"/>
<circle cx="1562" cy="94" r="8" class="c0"/>
<circle cx="1786" cy="332" r="8" class="c0"/>
<circle cx="1896" cy="328" r="8" class="c0"/>
<circle cx="1036" cy="554" r="8" class="c0"/>
<circle cx="980" cy="1158" r="8" class="c0"/>
<circle cx="878" cy="852" r="8" class="c0"/>
<circle cx="1810" cy="46" r="8" class="c0"/>
<circle cx="872" cy="1360" r="8" class="c0"/>
<circle cx="1164" cy="1420" r="8" class="c0"/>
<circle cx="974" cy="850" r="8" class="c0"/>
<circle cx="1798" cy="286" r="8" class="c0"/>
<circle cx="1910" cy="258" r="8" class="c0"/>
<circle cx="912" cy="750" r="8" class="c0"/>
<circle cx="1684" cy="172" r="8" class="c0"/>
<circle cx="1074" cy="714" r="8" class="c0"/>
<circle cx="1070" cy="790" r="8" class="c0"/>
<circle cx="1098" cy="1232" r="8" class="c0"/>
<circle cx="944" cy="1220" r="8" class="c0"/>
<circle cx="1084" cy="748" r="8" class="c0"/>
<circle cx="1118" cy="1414" r="8" class="c0"/>
<circle cx="932" cy="938" r="8" class="c0"/>
<circle cx="1004" cy="1130" r="8" class="c0"/>
<circle cx="1686" cy="114" r="8" class="c0"/>
<circle cx="1848" cy="30" r="8" class="c0"/>
<circle cx="964" cy="1410" r="8" class="c0"/>
<circle cx="936" cy="760" r="8" class="c0"/>
<circle cx="846" cy="470" r="8" class="c0"/>
<circle cx="1544" cy="130" r="8" class="c0"/>
<circle cx="1116" cy="816" r="8" class="c0"/>
<circle cx="1790" cy="40" r="8" class="c0"/>
<circle cx="988" cy="1004" r="8" class="c0"/>
<circle cx="1086" cy="1104" r="8" class="c0"/>
<circle cx="1700" cy="130" r="8" class="c0"/>
<circle cx="1880" cy="446" r="8" class="c0"/>
<circle cx="1666" cy="332" r="8" class="c0"/>
<circle cx="1764" cy="398" r="8" class="c0"/>
<circle cx="1642" cy="286" r="8" class="c0"/>
<circle cx="1832" cy="414" r="8" class="c0"/>
<circle cx="984" cy="1426" r="8" class="c0"/>
<circle cx="884" cy="1006" r="8" class="c0"/>
<circle cx="990" cy="1270" r="8" class="c0"/>
<circle cx="1686" cy="206" r="8" class="c0"/>
<circle cx="970" cy="1372" r="8" class="c0"/>
<circle cx="1634" cy="302" r="8" class="c0"/>
<circle cx="1130" cy="1256" r="8" class="c0"/>
<circle cx="1118" cy="1150" r="8" class="c0"/>
<circle cx="1016" cy="1326" r="8" class="c0"/>
<circle cx="1050" cy="756" r="8" class="c0"/>
<circle cx="1610" cy="222" r="8" class="c0"/>
<circle cx="1908" cy="432" r="8" class="c0"/>
<circle cx="882" cy="792" r="8" class="c0"/>
<circle cx="970" cy="548" r="8" class="c0"/>
<circle cx="1800" cy="114" r="8" class="c0"/>
<circle cx="1596" cy="246" r="8" class="c0"/>
<circle cx="1698" cy="374" r="8" class="c0"/>
<circle cx="1910" cy="228" r="8" class="c0"/>
<circle cx="1700" cy="46" r="8" class="c0"/>
<circle cx="1038" cy="1050" r="8" class="c0"/>
<circle cx="938" cy="496" r="8" class="c0"/>
<circle cx="1712" cy="388" r="8" class="c0"/>
<circle cx="946" cy="1408" r="8" class="c0"/>
<circle cx="1130" cy="928" r="8" class="c0"/>
<circle cx="1008" cy="1206" r="8" class="c0"/>
<circle cx="968" cy="1314" r="8" class="c0"/>
<circle cx="1062" cy="922" r="8" class="c0"/>
<circle cx="1810" cy="190" r="8" class="c0"/>
<circle cx="1042" cy="1112" r="8" class="c0"/>
<circle cx="936" cy="472" r="8" class="c0"/>
<circle cx="1096" cy="870" r="8" class="c0"/>
<circle cx="1666" cy="360" r="8" class="c0"/>
<circle cx="1026" cy="680" r="8" class="c0"/>
<circle cx="1910" cy="14" r="8" class="c0"/>
<circle cx="1052" cy="1082" r="8" class="c0"/>
<circle cx="980" cy="1350" r="8" class="c0"/>
<circle cx="1130" cy="1108" r="8" class="c0"/>
<circle cx="1084" cy="1054" r="8" class="c0"/>
<circle cx="846" cy="564" r="8" class="c0"/>
<circle cx="1076" cy="1366" r="8" class="c0"/>
<circle cx="1892" cy="356" r="8" class="c0"/>
<circle cx="1132" cy="966" r="8" class="c0"/>
<circle cx="1826" cy="356" r="8" class="c0"/>
<circle cx="1752" cy="144" r="8" class="c0"/>
<circle cx="976" cy="1042" r="8" class="c0"/>
<circle cx="960" cy="1104" r="8" class="c0"/>
<circle cx="938" cy="806" r="8" class="c0"/>
<circle cx="998" cy="888" r="8" class="c0"/>
<circle cx="1880" cy="368" r="8" class="c0"/>
<circle cx="994" cy="764" r="8" class="c0"/>
<circle cx="896" cy="498" r="8" class="c0"/>
<circle cx="1132" cy="1020" r="8" class="c0"/>
<circle cx="882" cy="1032" r="8" class="c0"/>
<circle cx="1062" cy="494" r="8" class="c0"/>
<circle cx="962" cy="410" r="8" class="c0"/>
<circle cx="1534" cy="296" r="8" class="c0"/>
<circle cx="940" cy="786" r="8" class="c0"/>
<circle cx="960" cy="774" r="8" class="c0"/>
<circle cx="1720" cy="412" r="8" class="c0"/>
<circle cx="1106" cy="1262" r="8" class="c0"/>
<circle cx="950" cy="972" r="8" class="c0"/>
<circle cx="1044" cy="1130" r="8" class="c0"/>
<circle cx="1700" cy="400" r="8" class="c0"/>
<circle cx="1870" cy="328" r="8" class="c0"/>
<circle cx="1658" cy="234" r="8" class="c0"/>
<circle cx="1056" cy="1228" r="8" class="c0"/>
<circle cx="1092" cy="644" r="8" class="c0"/>
<circle cx="1580" cy="158" r="8" class="c0"/>
<circle cx="1726" cy="76" r="8" class="c0"/>
<circle cx="1868" cy="404" r="8" class="c0"/>
<circle cx="1882" cy="202" r="8" class="c0"/>
<circle cx="1598" cy="12" r="8" class="c0"/>
<circle cx="898" cy="738" r="8" class="c0"/>
<circle cx="1776" cy="322" r="8" class="c0"/>
<circle cx="976" cy="980" r="8" class="c0"/>
<circle cx="1078" cy="682" r="8" class="c0"/>
<circle cx="872" cy="442" r="8" class="c0"/>
<circle cx="1750" cy="484" r="8" class="c0"/>
<circle cx="1054" cy="1370" r="8" class="c0"/>
<circle cx="1096" cy="1142" r="8" class="c0"/>
<circle cx="1712" cy="116" r="8" class="c0"/>
<circle cx="1656" cy="266" r="8" class="c0"/>
<circle cx="1708" cy="276" r="8" class="c0"/>
<circle cx="1642" cy="324" r="8" class="c0"/>
<circle cx="1804" cy="502" r="8" class="c0"/>
<circle cx="942" cy="1372" r="8" class="c0"/>
<circle cx="1652" cy="72" r="8" class="c0"/>
<circle cx="1062" cy="846" r="8" class="c0"/>
<circle cx="1576" cy="294" r="8" class="c0"/>
<circle cx="966" cy="722" r="8" class="c0"/>
<circle cx="1050" cy="980" r="8" class="c0"/>
<circle cx="1694" cy="312" r="8" class="c0"/>
<circle cx="982" cy="416" r="8" class="c0"/>
<circle cx="1772" cy="190" r="8" class="c0"/>
<circle cx="860" cy="486" r="8" class="c0"/>
<circle cx="1006" cy="532" r="8" class="c0"/>
<circle cx="1656" cy="374" r="8" class="c0"/>
<circle cx="1756" cy="314" r="8" class="c0"/>
<circle cx="1754" cy="64" r="8" class="c0"/>
<circle cx="1006" cy="564" r="8" class="c0"/>
<circle cx="862" cy="578" r="8" class="c0"/>
<circle cx="942" cy="926" r="8" class="c0"/>
<circle cx="1688" cy="278" r="8" class="c0"/>
<circle cx="1826" cy="288" r="8" class="c0"/>
<circle cx="1042" cy="1208" r="8" class="c0"/>
<circle cx="1740" cy="112" r="8" class="c0"/>
<circle cx="946" cy="864" r="8" class="c0"/>
<circle cx="866" cy="534" r="8" class="c0"/>
<circle cx="1090" cy="936" r="8" class="c0"/>
<circle cx="1132" cy="1184" r="8" class="c0"/>
<circle cx="1076" cy="652" r="8" class="c0"/>
<circle cx="1692" cy="78" r="8" class="c0"/>
<circle cx="1088" cy="610" r="8" class="c0"/>
<circle cx="1662" cy="10" r="8" class="c0"/>
<circle cx="1752" cy="462" r="8" class="c0"/>
<circle cx="1766" cy="76" r="8" class="c0"/>
<circle cx="1846" cy="76" r="8" class="c0"/>
<circle cx="1066" cy="586" r="8" class="c0"/>
<circle cx="922" cy="1078" r="8" class="c0"/>
<circle cx="858" cy="1186" r="8" class="c0"/>
<circle cx="972" cy="624" r="8" class="c0"/>
<circle cx="880" cy="572" r="8" class="c0"/>
<circle cx="1616" cy="330" r="8" class="c0"/>
<circle cx="1014" cy="706" r="8" class="c0"/>
<circle cx="1024" cy="472" r="8" class="c0"/>
<circle cx="1778" cy="216" r="8" class="c0"/>
<circle cx="1778" cy="286" r="8" class="c0"/>
<circle cx="894" cy="932" r="8" class="c0"/>
<circle cx="1890" cy="522" r="8" class="c0"/>
<circle cx="1026" cy="1010" r="8" class="c0"/>
<circle cx="1910" cy="518" r="8" class="c0"/>
<circle cx="1590" cy="278" r="8" class="c0"/>
<circle cx="1492" cy="110" r="8" class="c0"/>
<circle cx="1584" cy="44" r="8" class="c0"/>
<circle cx="966" cy="1334" r="8" class="c0"/>
<circle cx="1148" cy="1366" r="8" class="c0"/>
<circle cx="924" cy="1184" r="8" class="c0"/>
<circle cx="1798" cy="422" r="8" class="c0"/>
<circle cx="1754" cy="266" r="8" class="c0"/>
<circle cx="1024" cy="1198" r="8" class="c0"/>
<circle cx="860" cy="508" r="8" class="c0"/>
<circle cx="1714" cy="88" r="8" class="c0"/>
<circle cx="1882" cy="316" r="8" class="c0"/>
<circle cx="1074" cy="1066" r="8" class="c0"/>
<circle cx="1518" cy="224" r="8" class="c0"/>
<circle cx="1710" cy="304" r="8" class="c0"/>
<circle cx="960" cy="1084" r="8" class="c0"/>
<circle cx="1572" cy="110" r="8" class="c0"/>
<circle cx="1128" cy="906" r="8" class="c0"/>
<circle cx="1628" cy="96" r="8" class="c0"/>
<circle cx="1134" cy="1276" r="8" class="c0"/>
<circle cx="858" cy="1140" r="8" class="c0"/>
<circle cx="1022" cy="1272" r="8" class="c0"/>
<circle cx="1578" cy="210" r="8" class="c0"/>
<circle cx="1704" cy="430" r="8" class="c0"/>
<circle cx="1116" cy="1316" r="8" class="c0"/>
<circle cx="1554" cy="340" r="8" class="c0"/>
<circle cx="1878" cy="298" r="8" class="c0"/>
<circle cx="1772" cy="470" r="8" class="c0"/>
<circle cx="1648" cy="476" r="8" class="c0"/>
<circle cx="1910" cy="572" r="8" class="c0"/>
<circle cx="1078" cy="962" r="8" class="c0"/>
<circle cx="1056" cy="710" r="8" class="c0"/>
<circle cx="1802" cy="524" r="8" class="c0"/>
<circle cx="1674" cy="378" r="8" class="c0"/>
<circle cx="1066" cy="1276" r="8" class="c0"/>
<circle cx="1090" cy="1004" r="8" class="c0"/>
<circle cx="1054" cy="1424" r="8" class="c0"/>
<circle cx="1862" cy="260" r="8" class="c0"/>
<circle cx="1118" cy="1010" r="8" class="c0"/>
<circle cx="1678" cy="396" r="8" class="c0"/>
<circle cx="1662" cy="50" r="8" class="c0"/>
<circle cx="1742" cy="224" r="8" class="c0"/>
<circle cx="960" cy="1166" r="8" class="c0"/>
<circle cx="1614" cy="256" r="8" class="c0"/>
<circle cx="1096" cy="760" r="8" class="c0"/>
<circle cx="1620" cy="188" r="8" class="c0"/>
<circle cx="866" cy="1414" r="8" class="c0"/>
<circle cx="1802" cy="256" r="8" class="c0"/>
<circle cx="1826" cy="524" r="8" class="c0"/>
<circle cx="1816" cy="366" r="8" class="c0"/>
<circle cx="1604" cy="308" r="8" class="c0"/>
<circle cx="1062" cy="884" r="8" class="c0"/>
<circle cx="1054" cy="1338" r="8" class="c0"/>
<circle cx="880" cy="1106" r="8" class="c0"/>
<circle cx="938" cy="1334" r="8" class="c0"/>
<circle cx="1762" cy="362" r="8" class="c0"/>
<circle cx="1550" cy="48" r="8" class="c0"/>
<circle cx="940" cy="1008" r="8" class="c0"/>
<circle cx="1642" cy="402" r="8" class="c0"/>
<circle cx="922" cy="1118" r="8" class="c0"/>
<circle cx="1628" cy="342" r="8" class="c0"/>
<circle cx="1856" cy="442" r="8" class="c0"/>
<circle cx="1646" cy="200" r="8" class="c0"/>
<circle cx="1564" cy="150" r="8" class="c0"/>
<circle cx="944" cy="426" r="8" class="c0"/>
<circle cx="856" cy="454" r="8" class="c0"/>
<circle cx="920" cy="1152" r="8" class="c0"/>
<circle cx="1734" cy="92" r="8" class="c0"/>
<circle cx="980" cy="536" r="8" class="c0"/>
<circle cx="916" cy="590" r="6" class="c0"/>
<circle cx="1826" cy="254" r="6" class="c0"/>
<circle cx="936" cy="1258" r="6" class="c0"/>
<circle cx="1624" cy="396" r="6" class="c0"/>
<circle cx="1612" cy="88" r="6" class="c0"/>
<circle cx="1882" cy="132" r="6" class="c0"/>
<circle cx="1024" cy="1168" r="6" class="c0"/>
<circle cx="980" cy="710" r="6" class="c0"/>
<circle cx="1008" cy="510" r="6" class="c0"/>
<circle cx="1104" cy="682" r="6" class="c0"/>
<circle cx="904" cy="458" r="6" class="c0"/>
<circle cx="1892" cy="36" r="6" class="c0"/>
<circle cx="1096" cy="1202" r="6" class="c0"/>
<circle cx="1686" cy="242" r="6" class="c0"/>
<circle cx="1680" cy="44" r="6" class="c0"/>
<circle cx="1654" cy="122" r="6" class="c0"/>
<circle cx="1092" cy="976" r="6" class="c0"/>
<circle cx="1520" cy="68" r="6" class="c0"/>
<circle cx="1048" cy="1160" r="6" class="c0"/>
<circle cx="1032" cy="752" r="6" class="c0"/>
<circle cx="1606" cy="26" r="6" class="c0"/>
<circle cx="1016" cy="444" r="6" class="c0"/>
<circle cx="1008" cy="876" r="6" class="c0"/>
<circle cx="900" cy="904" r="6" class="c0"/>
<circle cx="946" cy="582" r="6" class="c0"/>
<circle cx="1000" cy="1248" r="6" class="c0"/>
<circle cx="1654" cy="452" r="6" class="c0"/>
<circle cx="1876" cy="228" r="6" class="c0"/>
<circle cx="1088" cy="1212" r="6" class="c0"/>
<circle cx="1694" cy="162" r="6" class="c0"/>
<circle cx="1790" cy="232" r="6" class="c0"/>
<circle cx="1712" cy="198" r="6" class="c0"/>
<circle cx="1134" cy="1074" r="6" class="c0"/>
<circle cx="1786" cy="462" r="6" class="c0"/>
<circle cx="918" cy="442" r="6" class="c0"/>
<circle cx="872" cy="1338" r="6" class="c0"/>
<circle cx="952" cy="1184" r="6" class="c0"/>
<circle cx="1016" cy="612" r="6" class="c0"/>
<circle cx="1114" cy="1282" r="6" class="c0"/>
<circle cx="944" cy="674" r="6" class="c0"/>
<circle cx="1794" cy="396" r="6" class="c0"/>
<circle cx="1738" cy="66" r="6" class="c0"/>
<circle cx="1906" cy="600" r="6" class="c0"/>
<circle cx="1808" cy="84" r="6" class="c0"/>
<circle cx="968" cy="938" r="6" class="c0"/>
<circle cx="1088" cy="588" r="6" class="c0"/>
<circle cx="1306" cy="130" r="6" class="c0"/>
<circle cx="1050" cy="1066" r="6" class="c0"/>
<circle cx="1686" cy="6" r="6" class="c0"/>
<circle cx="1890" cy="460" r="6" class="c0"/>
<circle cx="1070" cy="1242" r="6" class="c0"/>
<circle cx="1662" cy="138" r="6" class="c0"/>
<circle cx="1076" cy="1312" r="6" class="c0"/>
<circle cx="1010" cy="1036" r="6" class="c0"/>
<circle cx="1534" cy="148" r="6" class="c0"/>
<circle cx="1526" cy="132" r="6" class="c0"/>
<circle cx="1794" cy="546" r="6" class="c0"/>
<circle cx="886" cy="968" r="6" class="c0"/>
<circle cx="1810" cy="124" r="6" class="c0"/>
<circle cx="1840" cy="166" r="6" class="c0"/>
<circle cx="1540" cy="92" r="6" class="c0"/>
<circle cx="950" cy="752" r="6" class="c0"/>
<circle cx="930" cy="524" r="6" class="c0"/>
<circle cx="952" cy="882" r="6" class="c0"/>
<circle cx="1076" cy="1180" r="6" class="c0"/>
<circle cx="1118" cy="856" r="6" class="c0"/>
<circle cx="1688" cy="436" r="6" class="c0"/>
<circle cx="1752" cy="246" r="6" class="c0"/>
<circle cx="1634" cy="148" r="6" class="c0"/>
<circle cx="872" cy="814" r="6" class="c0"/>
<circle cx="992" cy="656" r="6" class="c0"/>
<circle cx="1034" cy="896" r="6" class="c0"/>
<circle cx="1718" cy="6" r="6" class="c0"/>
<circle cx="1596" cy="104" r="6" class="c0"/>
<circle cx="1870" cy="122" r="6" class="c0"/>
<circle cx="1112" cy="1076" r="6" class="c0"/>
<circle cx="940" cy="1352" r="6" class="c0"/>
<circle cx="1520" cy="30" r="6" class="c0"/>
<circle cx="1704" cy="208" r="6" class="c0"/>
<circle cx="1762" cy="542" r="6" class="c0"/>
<circle cx="1592" cy="142" r="6" class="c0"/>
<circle cx="1510" cy="58" r="6" class="c0"/>
<circle cx="934" cy="980" r="6" class="c0"/>
<circle cx="888" cy="432" r="6" class="c0"/>
<circle cx="1080" cy="900" r="6" class="c0"/>
<circle cx="1782" cy="78" r="6" class="c0"/>
<circle cx="1808" cy="752" r="6" class="c0"/>
<circle cx="932" cy="1272" r="6" class="c0"/>
<circle cx="1054" cy="1102" r="6" class="c0"/>
<circle cx="1542" cy="232" r="6" class="c0"/>
<circle cx="1104" cy="1158" r="6" class="c0"/>
<circle cx="850" cy="1170" r="6" class="c0"/>
<circle cx="1912" cy="116" r="6" class="c0"/>
<circle cx="1022" cy="1386" r="6" class="c0"/>
<circle cx="1002" cy="978" r="6" class="c0"/>
<circle cx="956" cy="1380" r="6" class="c0"/>
<circle cx="1780" cy="536" r="6" class="c0"/>
<circle cx="1882" cy="590" r="6" class="c0"/>
<circle cx="1670" cy="106" r="6" class="c0"/>
<circle cx="922" cy="682" r="6" class="c0"/>
<circle cx="1740" cy="300" r="6" class="c0"/>
<circle cx="1756" cy="46" r="6" class="c0"/>
<circle cx="910" cy="1406" r="6" class="c0"/>
<circle cx="1126" cy="1430" r="6" class="c0"/>
<circle cx="1636" cy="6" r="6" class="c0"/>
<circle cx="1910" cy="356" r="6" class="c0"/>
<circle cx="1808" cy="412" r="6" class="c0"/>
<circle cx="1106" cy="1298" r="6" class="c0"/>
<circle cx="1060" cy="800" r="6" class="c0"/>
<circle cx="1908" cy="486" r="6" class="c0"/>
<circle cx="1022" cy="1360" r="6" class="c0"/>
<circle cx="1016" cy="1158" r="6" class="c0"/>
<circle cx="892" cy="1430" r="6" class="c0"/>
<circle cx="1826" cy="42" r="6" class="c0"/>
<circle cx="1816" cy="6" r="6" class="c0"/>
<circle cx="992" cy="988" r="6" class="c0"/>
<circle cx="1860" cy="6" r="6" class="c0"/>
<circle cx="1112" cy="1372" r="6" class="c0"/>
<circle cx="896" cy="1096" r="6" class="c0"/>
<circle cx="1732" cy="428" r="6" class="c0"/>
<circle cx="1656" cy="298" r="6" class="c0"/>
<circle cx="1604" cy="128" r="6" class="c0"/>
<circle cx="1736" cy="388" r="6" class="c0"/>
<circle cx="1154" cy="1432" r="6" class="c0"/>
<circle cx="892" cy="606" r="6" class="c0"/>
<circle cx="1036" cy="502" r="6" class="c0"/>
<circle cx="1668" cy="170" r="6" class="c0"/>
<circle cx="1728" cy="706" r="6" class="c0"/>
<circle cx="1754" cy="718" r="6" class="c0"/>
<circle cx="1910" cy="296" r="6" class="c0"/>
<circle cx="1844" cy="586" r="6" class="c0"/>
<circle cx="1094" cy="734" r="6" class="c0"/>
<circle cx="930" cy="904" r="6" class="c0"/>
<circle cx="980" cy="1018" r="6" class="c0"/>
<circle cx="1118" cy="788" r="6" class="c0"/>
<circle cx="1134" cy="1044" r="6" class="c0"/>
<circle cx="1038" cy="1230" r="6" class="c0"/>
<circle cx="1554" cy="244" r="6" class="c0"/>
<circle cx="1676" cy="462" r="6" class="c0"/>
<circle cx="926" cy="1304" r="6" class="c0"/>
<circle cx="1616" cy="382" r="6" class="c0"/>
<circle cx="1008" cy="620" r="6" class="c0"/>
<circle cx="1004" cy="452" r="6" class="c0"/>
<circle cx="1846" cy="518" r="6" class="c0"/>
<circle cx="1760" cy="528" r="6" class="c0"/>
<circle cx="978" cy="662" r="6" class="c0"/>
<circle cx="1014" cy="550" r="6" class="c0"/>
<circle cx="972" cy="1274" r="6" class="c0"/>
<circle cx="1768" cy="418" r="6" class="c0"/>
<circle cx="1036" cy="584" r="6" class="c0"/>
<circle cx="1912" cy="274" r="6" class="c0"/>
<circle cx="876" cy="1296" r="6" class="c0"/>
<circle cx="832" cy="506" r="6" class="c0"/>
<circle cx="1640" cy="434" r="6" class="c0"/>
<circle cx="882" cy="458" r="6" class="c0"/>
<circle cx="966" cy="608" r="6" class="c0"/>
<circle cx="1094" cy="628" r="6" class="c0"/>
<circle cx="954" cy="686" r="6" class="c0"/>
<circle cx="1128" cy="888" r="6" class="c0"/>
<circle cx="980" cy="1072" r="6" class="c0"/>
<circle cx="928" cy="1214" r="6" class="c0"/>
<circle cx="1066" cy="744" r="6" class="c0"/>
<circle cx="904" cy="1086" r="6" class="c0"/>
<circle cx="1152" cy="1382" r="6" class="c0"/>
<circle cx="898" cy="1232" r="6" class="c0"/>
<circle cx="878" cy="1152" r="6" class="c0"/>
<circle cx="1744" cy="368" r="6" class="c0"/>
<circle cx="1048" cy="1292" r="6" class="c0"/>
<circle cx="1872" cy="192" r="6" class="c0"/>
<circle cx="1862" cy="582" r="6" class="c0"/>
<circle cx="1684" cy="366" r="6" class="c0"/>
<circle cx="1804" cy="478" r="6" class="c0"/>
<circle cx="1642" cy="232" r="6" class="c0"/>
<circle cx="1670" cy="424" r="6" class="c0"/>
<circle cx="1112" cy="1168" r="6" class="c0"/>
<circle cx="1048" cy="940" r="6" class="c0"/>
<circle cx="1762" cy="280" r="6" class="c0"/>
<circle cx="1710" cy="174" r="6" class="c0"/>
<circle cx="1090" cy="834" r="6" class="c0"/>
<circle cx="1728" cy="398" r="6" class="c0"/>
<circle cx="1528" cy="100" r="6" class="c0"/>
<circle cx="878" cy="876" r="6" class="c0"/>
<circle cx="1096" cy="1114" r="6" class="c0"/>
<circle cx="1020" cy="598" r="6" class="c0"/>
<circle cx="1430" cy="376" r="6" class="c0"/>
<circle cx="1612" cy="168" r="6" class="c0"/>
<circle cx="1016" cy="1232" r="6" class="c0"/>
<circle cx="1536" cy="202" r="6" class="c0"/>
<circle cx="972" cy="508" r="6" class="c0"/>
<circle cx="1030" cy="1370" r="6" class="c0"/>
<circle cx="1612" cy="358" r="6" class="c0"/>
<circle cx="1756" cy="514" r="6" class="c0"/>
<circle cx="1876" cy="530" r="6" class="c0"/>
<circle cx="1020" cy="1432" r="6" class="c0"/>
<circle cx="1736" cy="274" r="6" class="c0"/>
<circle cx="1586" cy="318" r="6" class="c0"/>
<circle cx="1554" cy="270" r="6" class="c0"/>
<circle cx="1022" cy="432" r="6" class="c0"/>
<circle cx="946" cy="406" r="6" class="c0"/>
<circle cx="1746" cy="446" r="6" class="c0"/>
<circle cx="874" cy="1324" r="6" class="c0"/>
<circle cx="1022" cy="976" r="6" class="c0"/>
<circle cx="1034" cy="1262" r="6" class="c0"/>
<circle cx="904" cy="1272" r="6" class="c0"/>
<circle cx="1104" cy="1406" r="6" class="c0"/>
<circle cx="928" cy="1250" r="6" class="c0"/>
<circle cx="908" cy="418" r="6" class="c0"/>
<circle cx="1780" cy="30" r="6" class="c0"/>
<circle cx="1724" cy="502" r="6" class="c0"/>
<circle cx="924" cy="646" r="6" class="c0"/>
<circle cx="1846" cy="180" r="6" class="c0"/>
<circle cx="886" cy="510" r="6" class="c0"/>
<circle cx="894" cy="1390" r="6" class="c0"/>
<circle cx="938" cy="1314" r="6" class="c0"/>
<circle cx="1102" cy="912" r="6" class="c0"/>
<circle cx="1548" cy="610" r="6" class="c0"/>
<circle cx="1690" cy="56" r="6" class="c0"/>
<circle cx="920" cy="812" r="6" class="c0"/>
<circle cx="904" cy="796" r="6" class="c0"/>
<circle cx="1834" cy="574" r="6" class="c0"/>
<circle cx="1048" cy="904" r="6" class="c0"/>
<circle cx="998" cy="1148" r="6" class="c0"/>
<circle cx="1696" cy="30" r="6" class="c0"/>
<circle cx="1878" cy="30" r="6" class="c0"/>
<circle cx="1072" cy="806" r="6" class="c0"/>
<circle cx="1912" cy="322" r="6" class="c0"/>
<circle cx="1870" cy="476" r="6" class="c0"/>
<circle cx="1786" cy="388" r="6" class="c0"/>
<circle cx="1830" cy="268" r="6" class="c0"/>
<circle cx="992" cy="718" r="6" class="c0"/>
<circle cx="904" cy="970" r="6" class="c0"/>
<circle cx="1858" cy="568" r="6" class="c0"/>
<circle cx="1516" cy="122" r="6" class="c0"/>
<circle cx="1772" cy="550" r="6" class="c0"/>
<circle cx="1112" cy="726" r="6" class="c0"/>
<circle cx="1730" cy="478" r="6" class="c0"/>
<circle cx="1048" cy="626" r="6" class="c0"/>
<circle cx="950" cy="442" r="6" class="c0"/>
<circle cx="950" cy="730" r="6" class="c0"/>
<circle cx="1848" cy="406" r="6" class="c0"/>
<circle cx="1856" cy="318" r="6" class="c0"/>
<circle cx="1084" cy="798" r="6" class="c0"/>
<circle cx="978" cy="766" r="6" class="c0"/>
<circle cx="1102" cy="696" r="6" class="c0"/>
<circle cx="1002" cy="1044" r="6" class="c0"/>
<circle cx="1652" cy="428" r="6" class="c0"/>
<circle cx="904" cy="998" r="6" class="c0"/>
<circle cx="910" cy="936" r="6" class="c0"/>
<circle cx="884" cy="898" r="6" class="c0"/>
<circle cx="1880" cy="468" r="6" class="c0"/>
<circle cx="1526" cy="12" r="6" class="c0"/>
<circle cx="1580" cy="6" r="6" class="c0"/>
<circle cx="1912" cy="88" r="6" class="c0"/>
<circle cx="1760" cy="158" r="6" class="c0"/>
</svg>
