<?xml version="1.0" encoding="utf-8"?>
<svg xmlns="http://www.w3.org/2000/svg"
     xmlns:xlink="http://www.w3.org/1999/xlink" width="1920" height="1440" >

            <defs>
            <style type="text/css"><![CDATA[
circle {stroke: none;}
.c0 {fill: #000000;}
]]></style>
            </defs>
<rect x="0" y="0" width="1920" height="1440" fill="white"/>
<circle cx="382" cy="1286" r="12" class="c0"/>
<circle cx="1750" cy="1254" r="12" class="c0"/>
<circle cx="944" cy="1188" r="12" class="c0"/>
<circle cx="1650" cy="1414" r="12" class="c0"/>
<circle cx="382" cy="1166" r="12" class="c0"/>
<circle cx="984" cy="1098" r="12" class="c0"/>
<circle cx="336" cy="1274" r="12" class="c0"/>
<circle cx="1148" cy="1260" r="12" class="c0"/>
<circle cx="1628" cy="1234" r="12" class="c0"/>
<circle cx="1590" cy="1062" r="12" class="c0"/>
<circle cx="1698" cy="1386" r="12" class="c0"/>
<circle cx="1816" cy="1256" r="12" class="c0"/>
<circle cx="348" cy="1350" r="12" class="c0"/>
<circle cx="304" cy="1144" r="12" class="c0"/>
<circle cx="956" cy="1160" r="12" class="c0"/>
<circle cx="1036" cy="1142" r="12" class="c0"/>
<circle cx="1600" cy="1360" r="12" class="c0"/>
<circle cx="1036" cy="1304" r="12" class="c0"/>
<circle cx="370" cy="1396" r="12" class="c0"/>
<circle cx="1594" cy="1094" r="12" class="c0"/>
<circle cx="1676" cy="1066" r="10" class="c0"/>
<circle cx="1000" cy="1392" r="10" class="c0"/>
<circle cx="308" cy="1170" r="10" class="c0"/>
<circle cx="338" cy="1298" r="10" class="c0"/>
<circle cx="1574" cy="1168" r="10" class="c0"/>
<circle cx="1644" cy="1286" r="10" class="c0"/>
<circle cx="314" cy="1352" r="10" class="c0"/>
<circle cx="410" cy="1242" r="10" class="c0"/>
<circle cx="1696" cy="1320" r="10" class="c0"/>
<circle cx="1150" cy="1320" r="10" class="c0"/>
<circle cx="1016" cy="1280" r="10" class="c0"/>
<circle cx="1620" cy="1394" r="10" class="c0"/>
<circle cx="330" cy="1244" r="10" class="c0"/>
<circle cx="1720" cy="1282" r="10" class="c0"/>
<circle cx="1624" cy="1054" r="10" class="c0"/>
<circle cx="396" cy="1328" r="10" class="c0"/>
<circle cx="306" cy="1250" r="10" class="c0"/>
<circle cx="1028" cy="1176" r="10" class="c0"/>
<circle cx="1874" cy="1252" r="10" class="c0"/>
<circle cx="236" cy="1422" r="10" class="c0"/>
<circle cx="1612" cy="1120" r="10" class="c0"/>
<circle cx="1674" cy="1326" r="10" class="c0"/>
<circle cx="1006" cy="1118" r="10" class="c0"/>
<circle cx="1584" cy="1192" r="10" class="c0"/>
<circle cx="1640" cy="1158" r="10" class="c0"/>
<circle cx="274" cy="1408" r="10" class="c0"/>
<circle cx="1098" cy="1252" r="10" class="c0"/>
<circle cx="1574" cy="1108" r="10" class="c0"/>
<circle cx="1668" cy="1194" r="10" class="c0"/>
<circle cx="974" cy="1120" r="10" class="c0"/>
<circle cx="994" cy="1320" r="10" class="c0"/>
<circle cx="414" cy="1278" r="10" class="c0"/>
<circle cx="300" cy="1394" r="10" class="c0"/>
<circle cx="320" cy="1322" r="10" class="c0"/>
<circle cx="976" cy="1276" r="10" class="c0"/>
<circle cx="1042" cy="1234" r="10" class="c0"/>
<circle cx="282" cy="1360" r="10" class="c0"/>
<circle cx="346" cy="1136" r="10" class="c0"/>
<circle cx="982" cy="1054" r="10" class="c0"/>
<circle cx="1696" cy="1348" r="10" class="c0"/>
<circle cx="1638" cy="1322" r="10" class="c0"/>
<circle cx="288" cy="1158" r="10" class="c0"/>
<circle cx="1044" cy="1102" r="10" class="c0"/>
<circle cx="340" cy="1386" r="10" class="c0"/>
<circle cx="338" cy="1416" r="10" class="c0"/>
<circle cx="1628" cy="1196" r="10" class="c0"/>
<circle cx="1634" cy="1372" r="10" class="c0"/>
<circle cx="1204" cy="1274" r="10" class="c0"/>
<circle cx="298" cy="1212" r="10" class="c0"/>
<circle cx="358" cy="1248" r="10" class="c0"/>
<circle cx="338" cy="1220" r="10" class="c0"/>
<circle cx="368" cy="1190" r="10" class="c0"/>
<circle cx="968" cy="1410" r="10" class="c0"/>
<circle cx="1060" cy="1296" r="10" class="c0"/>
<circle cx="1144" cy="1292" r="10" class="c0"/>
<circle cx="964" cy="1290" r="10" class="c0"/>
<circle cx="1026" cy="1402" r="10" class="c0"/>
<circle cx="1664" cy="1134" r="10" class="c0"/>
<circle cx="286" cy="1234" r="10" class="c0"/>
<circle cx="1612" cy="1082" r="10" class="c0"/>
<circle cx="1606" cy="1190" r="10" class="c0"/>
<circle cx="1676" cy="1252" r="10" class="c0"/>
<circle cx="1186" cy="1288" r="10" class="c0"/>
<circle cx="988" cy="1254" r="10" class="c0"/>
<circle cx="1726" cy="1232" r="10" class="c0"/>
<circle cx="988" cy="1192" r="10" class="c0"/>
<circle cx="1174" cy="1274" r="10" class="c0"/>
<circle cx="1570" cy="1318" r="10" class="c0"/>
<circle cx="1848" cy="1238" r="10" class="c0"/>
<circle cx="1024" cy="1334" r="10" class="c0"/>
<circle cx="1654" cy="1228" r="10" class="c0"/>
<circle cx="1676" cy="1108" r="10" class="c0"/>
<circle cx="396" cy="1352" r="10" class="c0"/>
<circle cx="946" cy="1092" r="10" class="c0"/>
<circle cx="1054" cy="1322" r="10" class="c0"/>
<circle cx="1066" cy="1242" r="10" class="c0"/>
<circle cx="392" cy="1266" r="10" class="c0"/>
<circle cx="1016" cy="1222" r="10" class="c0"/>
<circle cx="1024" cy="1250" r="10" class="c0"/>
<circle cx="1098" cy="1226" r="10" class="c0"/>
<circle cx="1908" cy="1246" r="10" class="c0"/>
<circle cx="1128" cy="1274" r="10" class="c0"/>
<circle cx="960" cy="1328" r="10" class="c0"/>
<circle cx="950" cy="1380" r="10" class="c0"/>
<circle cx="328" cy="1148" r="10" class="c0"/>
<circle cx="1592" cy="1240" r="10" class="c0"/>
<circle cx="978" cy="1382" r="8" class="c0"/>
<circle cx="374" cy="1322" r="8" class="c0"/>
<circle cx="1016" cy="1190" r="8" class="c0"/>
<circle cx="350" cy="1162" r="8" class="c0"/>
<circle cx="348" cy="1316" r="8" class="c0"/>
<circle cx="988" cy="1152" r="8" class="c0"/>
<circle cx="1040" cy="1076" r="8" class="c0"/>
<circle cx="1658" cy="1170" r="8" class="c0"/>
<circle cx="320" cy="1186" r="8" class="c0"/>
<circle cx="1626" cy="1304" r="8" class="c0"/>
<circle cx="292" cy="1182" r="8" class="c0"/>
<circle cx="1706" cy="1258" r="8" class="c0"/>
<circle cx="1658" cy="1098" r="8" class="c0"/>
<circle cx="392" cy="1146" r="8" class="c0"/>
<circle cx="414" cy="1364" r="8" class="c0"/>
<circle cx="1590" cy="1138" r="8" class="c0"/>
<circle cx="1662" cy="1344" r="8" class="c0"/>
<circle cx="330" cy="1114" r="8" class="c0"/>
<circle cx="1668" cy="1160" r="8" class="c0"/>
<circle cx="998" cy="1430" r="8" class="c0"/>
<circle cx="1598" cy="1280" r="8" class="c0"/>
<circle cx="1614" cy="1150" r="8" class="c0"/>
<circle cx="1120" cy="1222" r="8" class="c0"/>
<circle cx="976" cy="1142" r="8" class="c0"/>
<circle cx="1786" cy="1244" r="8" class="c0"/>
<circle cx="1004" cy="1046" r="8" class="c0"/>
<circle cx="1592" cy="1326" r="8" class="c0"/>
<circle cx="30" cy="1426" r="8" class="c0"/>
<circle cx="380" cy="1254" r="8" class="c0"/>
<circle cx="1838" cy="1266" r="8" class="c0"/>
<circle cx="376" cy="1228" r="8" class="c0"/>
<circle cx="400" cy="1184" r="8" class="c0"/>
<circle cx="988" cy="1020" r="8" class="c0"/>
<circle cx="314" cy="1418" r="8" class="c0"/>
<circle cx="1046" cy="1430" r="8" class="c0"/>
<circle cx="1016" cy="1352" r="8" class="c0"/>
<circle cx="1702" cy="1408" r="8" class="c0"/>
<circle cx="214" cy="1430" r="8" class="c0"/>
<circle cx="964" cy="1216" r="8" class="c0"/>
<circle cx="1570" cy="1352" r="8" class="c0"/>
<circle cx="428" cy="1250" r="8" class="c0"/>
<circle cx="1638" cy="1178" r="8" class="c0"/>
<circle cx="1636" cy="1138" r="8" class="c0"/>
<circle cx="1552" cy="1258" r="8" class="c0"/>
<circle cx="370" cy="1108" r="8" class="c0"/>
<circle cx="1720" cy="1368" r="8" class="c0"/>
<circle cx="1642" cy="1214" r="8" class="c0"/>
<circle cx="964" cy="1360" r="8" class="c0"/>
<circle cx="1606" cy="1044" r="8" class="c0"/>
<circle cx="1072" cy="1274" r="8" class="c0"/>
<circle cx="1562" cy="1192" r="8" class="c0"/>
<circle cx="1578" cy="1258" r="8" class="c0"/>
<circle cx="986" cy="1348" r="8" class="c0"/>
<circle cx="320" cy="1390" r="8" class="c0"/>
<circle cx="1674" cy="1292" r="8" class="c0"/>
<circle cx="1002" cy="1234" r="8" class="c0"/>
<circle cx="16" cy="1410" r="8" class="c0"/>
<circle cx="1118" cy="1296" r="8" class="c0"/>
<circle cx="1596" cy="1158" r="8" class="c0"/>
<circle cx="1856" cy="1264" r="8" class="c0"/>
<circle cx="1060" cy="1220" r="8" class="c0"/>
<circle cx="288" cy="1382" r="8" class="c0"/>
<circle cx="1728" cy="1252" r="8" class="c0"/>
<circle cx="1566" cy="1074" r="8" class="c0"/>
<circle cx="1636" cy="1116" r="8" class="c0"/>
<circle cx="1754" cy="1230" r="8" class="c0"/>
<circle cx="972" cy="1242" r="8" class="c0"/>
<circle cx="1546" cy="1088" r="8" class="c0"/>
<circle cx="944" cy="1250" r="8" class="c0"/>
<circle cx="1676" cy="1418" r="8" class="c0"/>
<circle cx="1650" cy="1358" r="8" class="c0"/>
<circle cx="404" cy="1212" r="8" class="c0"/>
<circle cx="980" cy="1076" r="8" class="c0"/>
<circle cx="1580" cy="1128" r="8" class="c0"/>
<circle cx="1024" cy="1100" r="8" class="c0"/>
<circle cx="366" cy="1424" r="8" class="c0"/>
<circle cx="1702" cy="1300" r="8" class="c0"/>
<circle cx="388" cy="1426" r="8" class="c0"/>
<circle cx="1100" cy="1286" r="8" class="c0"/>
<circle cx="1636" cy="1342" r="8" class="c0"/>
<circle cx="406" cy="1164" r="8" class="c0"/>
<circle cx="1826" cy="1232" r="8" class="c0"/>
<circle cx="1042" cy="1412" r="8" class="c0"/>
<circle cx="408" cy="1430" r="8" class="c0"/>
<circle cx="1586" cy="1038" r="8" class="c0"/>
<circle cx="1596" cy="1214" r="8" class="c0"/>
<circle cx="418" cy="1400" r="8" class="c0"/>
<circle cx="1694" cy="1240" r="8" class="c0"/>
<circle cx="1660" cy="1304" r="8" class="c0"/>
<circle cx="1622" cy="1168" r="8" class="c0"/>
<circle cx="324" cy="1206" r="8" class="c0"/>
<circle cx="382" cy="1340" r="8" class="c0"/>
<circle cx="1002" cy="1368" r="8" class="c0"/>
<circle cx="1722" cy="1338" r="8" class="c0"/>
<circle cx="390" cy="1374" r="8" class="c0"/>
<circle cx="1042" cy="1344" r="8" class="c0"/>
<circle cx="412" cy="1340" r="8" class="c0"/>
<circle cx="1610" cy="1412" r="8" class="c0"/>
<circle cx="1000" cy="1180" r="8" class="c0"/>
<circle cx="1664" cy="1274" r="8" class="c0"/>
<circle cx="952" cy="1430" r="8" class="c0"/>
<circle cx="956" cy="1232" r="8" class="c0"/>
<circle cx="1556" cy="1306" r="8" class="c0"/>
<circle cx="1646" cy="1074" r="8" class="c0"/>
<circle cx="418" cy="1222" r="8" class="c0"/>
<circle cx="356" cy="1074" r="8" class="c0"/>
<circle cx="1662" cy="1386" r="8" class="c0"/>
<circle cx="1018" cy="1082" r="8" class="c0"/>
<circle cx="334" cy="1172" r="8" class="c0"/>
<circle cx="360" cy="1278" r="8" class="c0"/>
<circle cx="296" cy="1414" r="8" class="c0"/>
<circle cx="1054" cy="1124" r="8" class="c0"/>
<circle cx="358" cy="1372" r="8" class="c0"/>
<circle cx="296" cy="1334" r="8" class="c0"/>
<circle cx="404" cy="1386" r="8" class="c0"/>
<circle cx="1122" cy="1246" r="8" class="c0"/>
<circle cx="378" cy="1134" r="8" class="c0"/>
<circle cx="1650" cy="1250" r="8" class="c0"/>
<circle cx="1684" cy="1128" r="8" class="c0"/>
<circle cx="1672" cy="1396" r="8" class="c0"/>
<circle cx="1580" cy="1276" r="8" class="c0"/>
<circle cx="1010" cy="1154" r="8" class="c0"/>
<circle cx="1624" cy="1104" r="8" class="c0"/>
<circle cx="1790" cy="1262" r="8" class="c0"/>
<circle cx="354" cy="1092" r="8" class="c0"/>
<circle cx="1740" cy="1216" r="8" class="c0"/>
<circle cx="308" cy="1276" r="8" class="c0"/>
<circle cx="1676" cy="1214" r="8" class="c0"/>
<circle cx="980" cy="1174" r="8" class="c0"/>
<circle cx="258" cy="1420" r="8" class="c0"/>
<circle cx="978" cy="1304" r="8" class="c0"/>
<circle cx="1682" cy="1174" r="8" class="c0"/>
<circle cx="1700" cy="1278" r="8" class="c0"/>
<circle cx="948" cy="1276" r="8" class="c0"/>
<circle cx="1628" cy="1266" r="8" class="c0"/>
<circle cx="316" cy="1128" r="8" class="c0"/>
<circle cx="930" cy="1266" r="8" class="c0"/>
<circle cx="1558" cy="1120" r="8" class="c0"/>
<circle cx="1572" cy="1208" r="8" class="c0"/>
<circle cx="330" cy="1366" r="8" class="c0"/>
<circle cx="1604" cy="1298" r="8" class="c0"/>
<circle cx="1014" cy="1062" r="8" class="c0"/>
<circle cx="360" cy="1220" r="8" class="c0"/>
<circle cx="1216" cy="1260" r="8" class="c0"/>
<circle cx="978" cy="1430" r="8" class="c0"/>
<circle cx="962" cy="1256" r="8" class="c0"/>
<circle cx="1018" cy="1420" r="8" class="c0"/>
<circle cx="1186" cy="1318" r="8" class="c0"/>
<circle cx="1618" cy="1284" r="8" class="c0"/>
<circle cx="1718" cy="1424" r="8" class="c0"/>
<circle cx="1614" cy="1254" r="8" class="c0"/>
<circle cx="1776" cy="1224" r="8" class="c0"/>
<circle cx="1696" cy="1220" r="8" class="c0"/>
<circle cx="1546" cy="1110" r="8" class="c0"/>
<circle cx="1544" cy="1238" r="8" class="c0"/>
<circle cx="1560" cy="1280" r="8" class="c0"/>
<circle cx="1642" cy="1392" r="8" class="c0"/>
<circle cx="342" cy="1190" r="8" class="c0"/>
<circle cx="426" cy="1168" r="8" class="c0"/>
<circle cx="1890" cy="1262" r="8" class="c0"/>
<circle cx="1006" cy="1296" r="8" class="c0"/>
<circle cx="1036" cy="1264" r="8" class="c0"/>
<circle cx="1676" cy="1368" r="8" class="c0"/>
<circle cx="368" cy="1146" r="8" class="c0"/>
<circle cx="1772" cy="1264" r="8" class="c0"/>
<circle cx="280" cy="1204" r="8" class="c0"/>
<circle cx="1206" cy="1294" r="8" class="c0"/>
<circle cx="1718" cy="1398" r="8" class="c0"/>
<circle cx="918" cy="1240" r="8" class="c0"/>
<circle cx="1614" cy="1218" r="8" class="c0"/>
<circle cx="1622" cy="1422" r="8" class="c0"/>
<circle cx="1058" cy="1262" r="8" class="c0"/>
<circle cx="390" cy="1240" r="8" class="c0"/>
<circle cx="1030" cy="1378" r="8" class="c0"/>
<circle cx="950" cy="1120" r="8" class="c0"/>
<circle cx="264" cy="1158" r="8" class="c0"/>
<circle cx="984" cy="1212" r="8" class="c0"/>
<circle cx="1634" cy="1090" r="8" class="c0"/>
<circle cx="1890" cy="1238" r="8" class="c0"/>
<circle cx="1052" cy="1354" r="8" class="c0"/>
<circle cx="1564" cy="1138" r="8" class="c0"/>
<circle cx="400" cy="1408" r="8" class="c0"/>
<circle cx="1700" cy="1430" r="8" class="c0"/>
<circle cx="1082" cy="1304" r="8" class="c0"/>
<circle cx="1572" cy="1294" r="8" class="c0"/>
<circle cx="1558" cy="1336" r="8" class="c0"/>
<circle cx="374" cy="1356" r="8" class="c0"/>
<circle cx="1000" cy="1074" r="8" class="c0"/>
<circle cx="994" cy="1132" r="8" class="c0"/>
<circle cx="1004" cy="1336" r="8" class="c0"/>
<circle cx="968" cy="1190" r="8" class="c0"/>
<circle cx="1004" cy="1266" r="8" class="c0"/>
<circle cx="1804" cy="1230" r="8" class="c0"/>
<circle cx="274" cy="1430" r="8" class="c0"/>
<circle cx="1668" cy="1088" r="8" class="c0"/>
<circle cx="1562" cy="1246" r="8" class="c0"/>
<circle cx="364" cy="1334" r="8" class="c0"/>
<circle cx="1018" cy="1130" r="8" class="c0"/>
<circle cx="938" cy="1292" r="8" class="c0"/>
<circle cx="388" cy="1204" r="8" class="c0"/>
<circle cx="354" cy="1118" r="8" class="c0"/>
<circle cx="1602" cy="1336" r="8" class="c0"/>
<circle cx="982" cy="1232" r="6" class="c0"/>
<circle cx="942" cy="1144" r="6" class="c0"/>
<circle cx="1906" cy="1272" r="6" class="c0"/>
<circle cx="1604" cy="1386" r="6" class="c0"/>
<circle cx="1604" cy="1432" r="6" class="c0"/>
<circle cx="1016" cy="1312" r="6" class="c0"/>
<circle cx="1196" cy="1306" r="6" class="c0"/>
<circle cx="352" cy="1180" r="6" class="c0"/>
<circle cx="1606" cy="1316" r="6" class="c0"/>
<circle cx="1552" cy="1150" r="6" class="c0"/>
<circle cx="1766" cy="1242" r="6" class="c0"/>
<circle cx="1590" cy="1310" r="6" class="c0"/>
<circle cx="1550" cy="1164" r="6" class="c0"/>
<circle cx="316" cy="1220" r="6" class="c0"/>
<circle cx="404" cy="1292" r="6" class="c0"/>
<circle cx="962" cy="1082" r="6" class="c0"/>
<circle cx="1624" cy="1354" r="6" class="c0"/>
<circle cx="1546" cy="1294" r="6" class="c0"/>
<circle cx="1030" cy="1212" r="6" class="c0"/>
<circle cx="990" cy="1408" r="6" class="c0"/>
<circle cx="1110" cy="1276" r="6" class="c0"/>
<circle cx="1738" cy="1270" r="6" class="c0"/>
<circle cx="1588" cy="1344" r="6" class="c0"/>
<circle cx="370" cy="1090" r="6" class="c0"/>
<circle cx="1574" cy="1048" r="6" class="c0"/>
<circle cx="1694" cy="1142" r="6" class="c0"/>
<circle cx="340" cy="1100" r="6" class="c0"/>
<circle cx="338" cy="1334" r="6" class="c0"/>
<circle cx="950" cy="1406" r="6" class="c0"/>
<circle cx="364" cy="1312" r="6" class="c0"/>
<circle cx="1054" cy="1278" r="6" class="c0"/>
<circle cx="1046" cy="1376" r="6" class="c0"/>
<circle cx="1716" cy="1216" r="6" class="c0"/>
<circle cx="1620" cy="1326" r="6" class="c0"/>
<circle cx="310" cy="1380" r="6" class="c0"/>
<circle cx="1038" cy="1162" r="6" class="c0"/>
<circle cx="320" cy="1288" r="6" class="c0"/>
<circle cx="270" cy="1384" r="6" class="c0"/>
<circle cx="1034" cy="1198" r="6" class="c0"/>
<circle cx="412" cy="1194" r="6" class="c0"/>
<circle cx="1082" cy="1260" r="6" class="c0"/>
<circle cx="1132" cy="1306" r="6" class="c0"/>
<circle cx="350" cy="1404" r="6" class="c0"/>
<circle cx="272" cy="1220" r="6" class="c0"/>
<circle cx="272" cy="1172" r="6" class="c0"/>
<circle cx="370" cy="1268" r="6" class="c0"/>
<circle cx="430" cy="1368" r="6" class="c0"/>
<circle cx="1648" cy="1198" r="6" class="c0"/>
<circle cx="302" cy="1318" r="6" class="c0"/>
<circle cx="954" cy="1350" r="6" class="c0"/>
<circle cx="1616" cy="1344" r="6" class="c0"/>
<circle cx="1690" cy="1156" r="6" class="c0"/>
<circle cx="1716" cy="1320" r="6" class="c0"/>
<circle cx="1656" cy="1320" r="6" class="c0"/>
<circle cx="1648" cy="1056" r="6" class="c0"/>
<circle cx="938" cy="1228" r="6" class="c0"/>
<circle cx="958" cy="1140" r="6" class="c0"/>
<circle cx="964" cy="1066" r="6" class="c0"/>
<circle cx="1576" cy="1148" r="6" class="c0"/>
<circle cx="958" cy="1104" r="6" class="c0"/>
<circle cx="188" cy="1430" r="6" class="c0"/>
<circle cx="982" cy="1400" r="6" class="c0"/>
<circle cx="1174" cy="1306" r="6" class="c0"/>
<circle cx="1690" cy="1268" r="6" class="c0"/>
<circle cx="292" cy="1432" r="6" class="c0"/>
<circle cx="964" cy="1390" r="6" class="c0"/>
<circle cx="268" cy="1370" r="6" class="c0"/>
<circle cx="1872" cy="1270" r="6" class="c0"/>
<circle cx="304" cy="1194" r="6" class="c0"/>
<circle cx="954" cy="1306" r="6" class="c0"/>
<circle cx="1014" cy="1380" r="6" class="c0"/>
<circle cx="1678" cy="1230" r="6" class="c0"/>
<circle cx="1614" cy="1374" r="6" class="c0"/>
<circle cx="384" cy="1306" r="6" class="c0"/>
<circle cx="998" cy="1164" r="6" class="c0"/>
<circle cx="318" cy="1262" r="6" class="c0"/>
<circle cx="1666" cy="1432" r="6" class="c0"/>
<circle cx="1090" cy="1274" r="6" class="c0"/>
<circle cx="1660" cy="1116" r="6" class="c0"/>
<circle cx="352" cy="1432" r="6" class="c0"/>
<circle cx="994" cy="1282" r="6" class="c0"/>
<circle cx="1648" cy="1268" r="6" class="c0"/>
<circle cx="1598" cy="1020" r="6" class="c0"/>
<circle cx="1002" cy="1090" r="6" class="c0"/>
<circle cx="1638" cy="1432" r="6" class="c0"/>
<circle cx="12" cy="1426" r="6" class="c0"/>
<circle cx="370" cy="1208" r="6" class="c0"/>
<circle cx="422" cy="1382" r="6" class="c0"/>
<circle cx="426" cy="1350" r="6" class="c0"/>
<circle cx="416" cy="1178" r="6" class="c0"/>
<circle cx="384" cy="1410" r="6" class="c0"/>
<circle cx="914" cy="1256" r="6" class="c0"/>
<circle cx="348" cy="1234" r="6" class="c0"/>
<circle cx="1132" cy="1234" r="6" class="c0"/>
<circle cx="1008" cy="1206" r="6" class="c0"/>
<circle cx="1032" cy="1116" r="6" class="c0"/>
<circle cx="1692" cy="1366" r="6" class="c0"/>
<circle cx="1680" cy="1308" r="6" class="c0"/>
<circle cx="942" cy="1210" r="6" class="c0"/>
<circle cx="1654" cy="1148" r="6" class="c0"/>
<circle cx="1836" cy="1250" r="6" class="c0"/>
<circle cx="1056" cy="1086" r="6" class="c0"/>
<circle cx="1560" cy="1096" r="6" class="c0"/>
<circle cx="278" cy="1342" r="6" class="c0"/>
<circle cx="974" cy="1338" r="6" class="c0"/>
<circle cx="1078" cy="1230" r="6" class="c0"/>
<circle cx="276" cy="1186" r="6" class="c0"/>
<circle cx="1532" cy="1098" r="6" class="c0"/>
<circle cx="362" cy="1172" r="6" class="c0"/>
<circle cx="982" cy="1364" r="6" class="c0"/>
<circle cx="1684" cy="1432" r="6" class="c0"/>
<circle cx="330" cy="1400" r="6" class="c0"/>
<circle cx="1052" cy="1152" r="6" class="c0"/>
<circle cx="1598" cy="1262" r="6" class="c0"/>
<circle cx="1000" cy="1214" r="6" class="c0"/>
<circle cx="358" cy="1294" r="6" class="c0"/>
<circle cx="1046" cy="1252" r="6" class="c0"/>
<circle cx="1648" cy="1126" r="6" class="c0"/>
<circle cx="1082" cy="1286" r="6" class="c0"/>
<circle cx="356" cy="1202" r="6" class="c0"/>
<circle cx="1044" cy="1214" r="6" class="c0"/>
<circle cx="1652" cy="1334" r="6" class="c0"/>
<circle cx="1070" cy="1314" r="6" class="c0"/>
<circle cx="306" cy="1228" r="6" class="c0"/>
<circle cx="1868" cy="1234" r="6" class="c0"/>
<circle cx="1710" cy="1242" r="6" class="c0"/>
<circle cx="980" cy="1036" r="6" class="c0"/>
<circle cx="1582" cy="1222" r="6" class="c0"/>
<circle cx="1020" cy="1368" r="6" class="c0"/>
<circle cx="1652" cy="1374" r="6" class="c0"/>
<circle cx="1752" cy="1176" r="6" class="c0"/>
<circle cx="300" cy="1364" r="6" class="c0"/>
<circle cx="1588" cy="1292" r="6" class="c0"/>
<circle cx="326" cy="1428" r="6" class="c0"/>
<circle cx="1116" cy="1262" r="6" class="c0"/>
<circle cx="390" cy="1398" r="6" class="c0"/>
<circle cx="1598" cy="1174" r="6" class="c0"/>
<circle cx="1008" cy="1408" r="6" class="c0"/>
<circle cx="400" cy="1228" r="6" class="c0"/>
<circle cx="398" cy="1308" r="6" class="c0"/>
<circle cx="282" cy="1324" r="6" class="c0"/>
<circle cx="1032" cy="1354" r="6" class="c0"/>
<circle cx="1544" cy="1272" r="6" class="c0"/>
<circle cx="948" cy="1362" r="6" class="c0"/>
<circle cx="1042" cy="1284" r="6" class="c0"/>
<circle cx="954" cy="1074" r="6" class="c0"/>
<circle cx="986" cy="1290" r="6" class="c0"/>
<circle cx="1192" cy="1262" r="6" class="c0"/>
<circle cx="1706" cy="1334" r="6" class="c0"/>
<circle cx="936" cy="1162" r="6" class="c0"/>
<circle cx="1658" cy="1210" r="6" class="c0"/>
<circle cx="1630" cy="1408" r="6" class="c0"/>
<circle cx="926" cy="1092" r="6" class="c0"/>
<circle cx="1028" cy="1430" r="6" class="c0"/>
<circle cx="1030" cy="1064" r="6" class="c0"/>
<circle cx="1656" cy="1064" r="6" class="c0"/>
<circle cx="1160" cy="1302" r="6" class="c0"/>
<circle cx="380" cy="1118" r="6" class="c0"/>
<circle cx="416" cy="1416" r="6" class="c0"/>
<circle cx="940" cy="1130" r="6" class="c0"/>
<circle cx="1086" cy="1238" r="6" class="c0"/>
<circle cx="1630" cy="1072" r="6" class="c0"/>
<circle cx="1610" cy="1270" r="6" class="c0"/>
<circle cx="418" cy="1260" r="6" class="c0"/>
<circle cx="1680" cy="1144" r="6" class="c0"/>
<circle cx="942" cy="1418" r="6" class="c0"/>
<circle cx="1604" cy="1228" r="6" class="c0"/>
<circle cx="1590" cy="1118" r="6" class="c0"/>
<circle cx="428" cy="1268" r="6" class="c0"/>
<circle cx="370" cy="1300" r="6" class="c0"/>
<circle cx="1040" cy="1390" r="6" class="c0"/>
<circle cx="1058" cy="1140" r="6" class="c0"/>
<circle cx="352" cy="1058" r="6" class="c0"/>
<circle cx="1686" cy="1404" r="6" class="c0"/>
<circle cx="416" cy="1152" r="6" class="c0"/>
<circle cx="1828" cy="1276" r="6" class="c0"/>
<circle cx="1600" cy="1400" r="6" class="c0"/>
<circle cx="1578" cy="1334" r="6" class="c0"/>
<circle cx="1112" cy="1236" r="6" class="c0"/>
<circle cx="1576" cy="1086" r="6" class="c0"/>
<circle cx="1678" cy="1352" r="6" class="c0"/>
<circle cx="1746" cy="1188" r="6" class="c0"/>
<circle cx="1554" cy="1178" r="6" class="c0"/>
<circle cx="1802" cy="1272" r="6" class="c0"/>
<circle cx="32" cy="1408" r="6" class="c0"/>
<circle cx="1062" cy="1432" r="6" class="c0"/>
<circle cx="1620" cy="1036" r="6" class="c0"/>
<circle cx="390" cy="1220" r="6" class="c0"/>
<circle cx="1690" cy="1290" r="6" class="c0"/>
</svg>
