<?xml version="1.0" encoding="utf-8"?>
<svg xmlns="http://www.w3.org/2000/svg"
     xmlns:xlink="http://www.w3.org/1999/xlink" width="1920" height="1440" >

            <defs>
            <style type="text/css"><![CDATA[
circle {stroke: none;}
.c0 {fill: #000000;}
]]></style>
            </defs>
<rect x="0" y="0" width="1920" height="1440" fill="white"/>
<circle cx="1034" cy="1254" r="14" class="c0"/>
<circle cx="398" cy="1330" r="12" class="c0"/>
<circle cx="1572" cy="1304" r="12" class="c0"/>
<circle cx="978" cy="1382" r="12" class="c0"/>
<circle cx="328" cy="1278" r="12" class="c0"/>
<circle cx="1068" cy="1216" r="12" class="c0"/>
<circle cx="1674" cy="1084" r="12" class="c0"/>
<circle cx="274" cy="1136" r="12" class="c0"/>
<circle cx="1008" cy="1178" r="12" class="c0"/>
<circle cx="1626" cy="1292" r="12" class="c0"/>
<circle cx="1830" cy="1230" r="12" class="c0"/>
<circle cx="1638" cy="1118" r="12" class="c0"/>
<circle cx="984" cy="1124" r="12" class="c0"/>
<circle cx="1152" cy="1280" r="12" class="c0"/>
<circle cx="1022" cy="1388" r="12" class="c0"/>
<circle cx="1712" cy="1398" r="12" class="c0"/>
<circle cx="374" cy="1360" r="12" class="c0"/>
<circle cx="32" cy="1372" r="12" class="c0"/>
<circle cx="1716" cy="1342" r="12" class="c0"/>
<circle cx="984" cy="1266" r="12" class="c0"/>
<circle cx="998" cy="1326" r="12" class="c0"/>
<circle cx="366" cy="1134" r="12" class="c0"/>
<circle cx="320" cy="1346" r="12" class="c0"/>
<circle cx="1052" cy="1088" r="12" class="c0"/>
<circle cx="326" cy="1130" r="12" class="c0"/>
<circle cx="1114" cy="1262" r="12" class="c0"/>
<circle cx="410" cy="1426" r="10" class="c0"/>
<circle cx="1864" cy="1218" r="10" class="c0"/>
<circle cx="270" cy="1366" r="10" class="c0"/>
<circle cx="1630" cy="1204" r="10" class="c0"/>
<circle cx="1662" cy="1402" r="10" class="c0"/>
<circle cx="1560" cy="1240" r="10" class="c0"/>
<circle cx="222" cy="1394" r="10" class="c0"/>
<circle cx="1688" cy="1186" r="10" class="c0"/>
<circle cx="316" cy="1322" r="10" class="c0"/>
<circle cx="1576" cy="1026" r="10" class="c0"/>
<circle cx="404" cy="1370" r="10" class="c0"/>
<circle cx="1050" cy="1230" r="10" class="c0"/>
<circle cx="1028" cy="1080" r="10" class="c0"/>
<circle cx="1800" cy="1206" r="10" class="c0"/>
<circle cx="416" cy="1256" r="10" class="c0"/>
<circle cx="1854" cy="1242" r="10" class="c0"/>
<circle cx="1588" cy="1258" r="10" class="c0"/>
<circle cx="1688" cy="1280" r="10" class="c0"/>
<circle cx="1594" cy="1326" r="10" class="c0"/>
<circle cx="378" cy="1396" r="10" class="c0"/>
<circle cx="368" cy="1162" r="10" class="c0"/>
<circle cx="1650" cy="1364" r="10" class="c0"/>
<circle cx="1672" cy="1032" r="10" class="c0"/>
<circle cx="1178" cy="1308" r="10" class="c0"/>
<circle cx="962" cy="1140" r="10" class="c0"/>
<circle cx="1698" cy="1414" r="10" class="c0"/>
<circle cx="1622" cy="1052" r="10" class="c0"/>
<circle cx="1650" cy="1294" r="10" class="c0"/>
<circle cx="1614" cy="1098" r="10" class="c0"/>
<circle cx="1052" cy="1426" r="10" class="c0"/>
<circle cx="202" cy="1412" r="10" class="c0"/>
<circle cx="996" cy="1218" r="10" class="c0"/>
<circle cx="988" cy="1356" r="10" class="c0"/>
<circle cx="1574" cy="1224" r="10" class="c0"/>
<circle cx="1570" cy="1276" r="10" class="c0"/>
<circle cx="1030" cy="1120" r="10" class="c0"/>
<circle cx="994" cy="1288" r="10" class="c0"/>
<circle cx="960" cy="1312" r="10" class="c0"/>
<circle cx="1018" cy="1302" r="10" class="c0"/>
<circle cx="1008" cy="1250" r="10" class="c0"/>
<circle cx="1618" cy="1350" r="10" class="c0"/>
<circle cx="1024" cy="1422" r="10" class="c0"/>
<circle cx="1096" cy="1234" r="10" class="c0"/>
<circle cx="1908" cy="1218" r="10" class="c0"/>
<circle cx="404" cy="1204" r="10" class="c0"/>
<circle cx="404" cy="1242" r="10" class="c0"/>
<circle cx="1564" cy="1052" r="10" class="c0"/>
<circle cx="1042" cy="1300" r="10" class="c0"/>
<circle cx="1716" cy="1288" r="10" class="c0"/>
<circle cx="348" cy="1080" r="10" class="c0"/>
<circle cx="1784" cy="1236" r="10" class="c0"/>
<circle cx="1666" cy="1182" r="10" class="c0"/>
<circle cx="274" cy="1208" r="10" class="c0"/>
<circle cx="1642" cy="1144" r="10" class="c0"/>
<circle cx="378" cy="1236" r="10" class="c0"/>
<circle cx="988" cy="1190" r="10" class="c0"/>
<circle cx="1816" cy="1190" r="10" class="c0"/>
<circle cx="296" cy="1332" r="10" class="c0"/>
<circle cx="1636" cy="1388" r="10" class="c0"/>
<circle cx="420" cy="1352" r="10" class="c0"/>
<circle cx="952" cy="1360" r="10" class="c0"/>
<circle cx="294" cy="1118" r="10" class="c0"/>
<circle cx="392" cy="1282" r="10" class="c0"/>
<circle cx="1692" cy="1258" r="10" class="c0"/>
<circle cx="326" cy="1164" r="10" class="c0"/>
<circle cx="1560" cy="1096" r="10" class="c0"/>
<circle cx="410" cy="1398" r="10" class="c0"/>
<circle cx="1616" cy="1020" r="10" class="c0"/>
<circle cx="304" cy="1200" r="10" class="c0"/>
<circle cx="1730" cy="1190" r="10" class="c0"/>
<circle cx="1040" cy="1160" r="10" class="c0"/>
<circle cx="970" cy="1106" r="10" class="c0"/>
<circle cx="992" cy="1030" r="10" class="c0"/>
<circle cx="1570" cy="1164" r="10" class="c0"/>
<circle cx="1618" cy="1256" r="10" class="c0"/>
<circle cx="1058" cy="1288" r="10" class="c0"/>
<circle cx="354" cy="1376" r="10" class="c0"/>
<circle cx="402" cy="1130" r="10" class="c0"/>
<circle cx="934" cy="1218" r="10" class="c0"/>
<circle cx="54" cy="1418" r="10" class="c0"/>
<circle cx="966" cy="1346" r="10" class="c0"/>
<circle cx="1710" cy="1314" r="10" class="c0"/>
<circle cx="256" cy="1390" r="10" class="c0"/>
<circle cx="950" cy="1204" r="10" class="c0"/>
<circle cx="1046" cy="1062" r="10" class="c0"/>
<circle cx="1000" cy="1094" r="10" class="c0"/>
<circle cx="358" cy="1320" r="10" class="c0"/>
<circle cx="350" cy="1340" r="10" class="c0"/>
<circle cx="1586" cy="1184" r="10" class="c0"/>
<circle cx="300" cy="1224" r="10" class="c0"/>
<circle cx="1018" cy="1030" r="10" class="c0"/>
<circle cx="1646" cy="1048" r="10" class="c0"/>
<circle cx="1838" cy="1192" r="10" class="c0"/>
<circle cx="1566" cy="1130" r="10" class="c0"/>
<circle cx="942" cy="1240" r="10" class="c0"/>
<circle cx="336" cy="1216" r="10" class="c0"/>
<circle cx="1010" cy="1202" r="10" class="c0"/>
<circle cx="994" cy="1162" r="8" class="c0"/>
<circle cx="970" cy="1244" r="8" class="c0"/>
<circle cx="1622" cy="1236" r="8" class="c0"/>
<circle cx="280" cy="1388" r="8" class="c0"/>
<circle cx="350" cy="1188" r="8" class="c0"/>
<circle cx="1662" cy="1220" r="8" class="c0"/>
<circle cx="298" cy="1368" r="8" class="c0"/>
<circle cx="320" cy="1430" r="8" class="c0"/>
<circle cx="1132" cy="1306" r="8" class="c0"/>
<circle cx="1602" cy="1292" r="8" class="c0"/>
<circle cx="1666" cy="1128" r="8" class="c0"/>
<circle cx="1032" cy="1370" r="8" class="c0"/>
<circle cx="1684" cy="1304" r="8" class="c0"/>
<circle cx="372" cy="1216" r="8" class="c0"/>
<circle cx="356" cy="1416" r="8" class="c0"/>
<circle cx="1668" cy="1284" r="8" class="c0"/>
<circle cx="1614" cy="1188" r="8" class="c0"/>
<circle cx="980" cy="1308" r="8" class="c0"/>
<circle cx="988" cy="1242" r="8" class="c0"/>
<circle cx="338" cy="1248" r="8" class="c0"/>
<circle cx="952" cy="1388" r="8" class="c0"/>
<circle cx="938" cy="1344" r="8" class="c0"/>
<circle cx="1596" cy="1168" r="8" class="c0"/>
<circle cx="1204" cy="1290" r="8" class="c0"/>
<circle cx="1620" cy="1162" r="8" class="c0"/>
<circle cx="350" cy="1046" r="8" class="c0"/>
<circle cx="376" cy="1108" r="8" class="c0"/>
<circle cx="1010" cy="1362" r="8" class="c0"/>
<circle cx="380" cy="1422" r="8" class="c0"/>
<circle cx="1714" cy="1370" r="8" class="c0"/>
<circle cx="290" cy="1412" r="8" class="c0"/>
<circle cx="1650" cy="1264" r="8" class="c0"/>
<circle cx="964" cy="1170" r="8" class="c0"/>
<circle cx="1884" cy="1200" r="8" class="c0"/>
<circle cx="1124" cy="1222" r="8" class="c0"/>
<circle cx="1156" cy="1304" r="8" class="c0"/>
<circle cx="1650" cy="1194" r="8" class="c0"/>
<circle cx="1040" cy="1032" r="8" class="c0"/>
<circle cx="1616" cy="1422" r="8" class="c0"/>
<circle cx="288" cy="1180" r="8" class="c0"/>
<circle cx="1874" cy="1236" r="8" class="c0"/>
<circle cx="976" cy="1152" r="8" class="c0"/>
<circle cx="1016" cy="1338" r="8" class="c0"/>
<circle cx="1712" cy="1212" r="8" class="c0"/>
<circle cx="328" cy="1104" r="8" class="c0"/>
<circle cx="376" cy="1262" r="8" class="c0"/>
<circle cx="324" cy="1234" r="8" class="c0"/>
<circle cx="1606" cy="1362" r="8" class="c0"/>
<circle cx="930" cy="1430" r="8" class="c0"/>
<circle cx="1578" cy="1146" r="8" class="c0"/>
<circle cx="304" cy="1166" r="8" class="c0"/>
<circle cx="340" cy="1402" r="8" class="c0"/>
<circle cx="1054" cy="1406" r="8" class="c0"/>
<circle cx="1592" cy="1210" r="8" class="c0"/>
<circle cx="1538" cy="1084" r="8" class="c0"/>
<circle cx="966" cy="1276" r="8" class="c0"/>
<circle cx="1008" cy="1126" r="8" class="c0"/>
<circle cx="272" cy="1160" r="8" class="c0"/>
<circle cx="1662" cy="1378" r="8" class="c0"/>
<circle cx="1022" cy="1276" r="8" class="c0"/>
<circle cx="1082" cy="1066" r="8" class="c0"/>
<circle cx="964" cy="1068" r="8" class="c0"/>
<circle cx="10" cy="1428" r="8" class="c0"/>
<circle cx="1086" cy="1278" r="8" class="c0"/>
<circle cx="1730" cy="1214" r="8" class="c0"/>
<circle cx="286" cy="1312" r="8" class="c0"/>
<circle cx="1638" cy="1088" r="8" class="c0"/>
<circle cx="322" cy="1374" r="8" class="c0"/>
<circle cx="1758" cy="1224" r="8" class="c0"/>
<circle cx="1550" cy="1072" r="8" class="c0"/>
<circle cx="1638" cy="1418" r="8" class="c0"/>
<circle cx="1720" cy="1232" r="8" class="c0"/>
<circle cx="1690" cy="1238" r="8" class="c0"/>
<circle cx="174" cy="1414" r="8" class="c0"/>
<circle cx="1040" cy="1324" r="8" class="c0"/>
<circle cx="1060" cy="1120" r="8" class="c0"/>
<circle cx="318" cy="1302" r="8" class="c0"/>
<circle cx="982" cy="1058" r="8" class="c0"/>
<circle cx="1684" cy="1112" r="8" class="c0"/>
<circle cx="1660" cy="1240" r="8" class="c0"/>
<circle cx="396" cy="1182" r="8" class="c0"/>
<circle cx="1616" cy="1378" r="8" class="c0"/>
<circle cx="940" cy="1398" r="8" class="c0"/>
<circle cx="36" cy="1394" r="8" class="c0"/>
<circle cx="1640" cy="1164" r="8" class="c0"/>
<circle cx="1584" cy="1428" r="8" class="c0"/>
<circle cx="1764" cy="1192" r="8" class="c0"/>
<circle cx="1580" cy="1084" r="8" class="c0"/>
<circle cx="1640" cy="1068" r="8" class="c0"/>
<circle cx="76" cy="1426" r="8" class="c0"/>
<circle cx="1048" cy="1130" r="8" class="c0"/>
<circle cx="352" cy="1232" r="8" class="c0"/>
<circle cx="1690" cy="1206" r="8" class="c0"/>
<circle cx="1014" cy="994" r="8" class="c0"/>
<circle cx="1662" cy="1430" r="8" class="c0"/>
<circle cx="298" cy="1140" r="8" class="c0"/>
<circle cx="26" cy="1420" r="8" class="c0"/>
<circle cx="380" cy="1306" r="8" class="c0"/>
<circle cx="1636" cy="1334" r="8" class="c0"/>
<circle cx="1612" cy="1226" r="8" class="c0"/>
<circle cx="322" cy="1184" r="8" class="c0"/>
<circle cx="1598" cy="1052" r="8" class="c0"/>
<circle cx="1896" cy="1232" r="8" class="c0"/>
<circle cx="310" cy="1386" r="8" class="c0"/>
<circle cx="1026" cy="1056" r="8" class="c0"/>
<circle cx="1548" cy="1228" r="8" class="c0"/>
<circle cx="218" cy="1422" r="8" class="c0"/>
<circle cx="1072" cy="1258" r="8" class="c0"/>
<circle cx="372" cy="1196" r="8" class="c0"/>
<circle cx="404" cy="1154" r="8" class="c0"/>
<circle cx="1594" cy="1012" r="8" class="c0"/>
<circle cx="978" cy="1414" r="8" class="c0"/>
<circle cx="1622" cy="1134" r="8" class="c0"/>
<circle cx="952" cy="1430" r="8" class="c0"/>
<circle cx="1596" cy="1076" r="8" class="c0"/>
<circle cx="998" cy="1404" r="8" class="c0"/>
<circle cx="1656" cy="1332" r="8" class="c0"/>
<circle cx="1636" cy="1248" r="8" class="c0"/>
<circle cx="940" cy="1420" r="8" class="c0"/>
<circle cx="310" cy="1406" r="8" class="c0"/>
<circle cx="348" cy="1302" r="8" class="c0"/>
<circle cx="1000" cy="1430" r="8" class="c0"/>
<circle cx="964" cy="1218" r="8" class="c0"/>
<circle cx="424" cy="1226" r="8" class="c0"/>
<circle cx="1586" cy="1106" r="8" class="c0"/>
<circle cx="1666" cy="1308" r="8" class="c0"/>
<circle cx="1678" cy="1228" r="8" class="c0"/>
<circle cx="1070" cy="1102" r="8" class="c0"/>
<circle cx="1674" cy="1354" r="8" class="c0"/>
<circle cx="132" cy="1428" r="8" class="c0"/>
<circle cx="1772" cy="1214" r="8" class="c0"/>
<circle cx="324" cy="1086" r="8" class="c0"/>
<circle cx="1202" cy="1308" r="8" class="c0"/>
<circle cx="1644" cy="1226" r="8" class="c0"/>
<circle cx="976" cy="1204" r="8" class="c0"/>
<circle cx="958" cy="1088" r="8" class="c0"/>
<circle cx="1040" cy="1196" r="8" class="c0"/>
<circle cx="368" cy="1292" r="8" class="c0"/>
<circle cx="1030" cy="1212" r="8" class="c0"/>
<circle cx="8" cy="1402" r="8" class="c0"/>
<circle cx="1010" cy="1150" r="8" class="c0"/>
<circle cx="152" cy="1428" r="8" class="c0"/>
<circle cx="1814" cy="1244" r="8" class="c0"/>
<circle cx="1606" cy="1148" r="8" class="c0"/>
<circle cx="352" cy="1272" r="8" class="c0"/>
<circle cx="1696" cy="1356" r="8" class="c0"/>
<circle cx="1128" cy="1278" r="8" class="c0"/>
<circle cx="1674" cy="1324" r="8" class="c0"/>
<circle cx="328" cy="1392" r="8" class="c0"/>
<circle cx="348" cy="1166" r="8" class="c0"/>
<circle cx="404" cy="1298" r="8" class="c0"/>
<circle cx="238" cy="1406" r="8" class="c0"/>
<circle cx="1548" cy="1206" r="8" class="c0"/>
<circle cx="1000" cy="1376" r="8" class="c0"/>
<circle cx="272" cy="1322" r="8" class="c0"/>
<circle cx="1622" cy="1318" r="8" class="c0"/>
<circle cx="1638" cy="1182" r="8" class="c0"/>
<circle cx="18" cy="1390" r="8" class="c0"/>
<circle cx="1128" cy="1248" r="8" class="c0"/>
<circle cx="1740" cy="1230" r="8" class="c0"/>
<circle cx="362" cy="1056" r="8" class="c0"/>
<circle cx="70" cy="1402" r="8" class="c0"/>
<circle cx="366" cy="1252" r="8" class="c0"/>
<circle cx="392" cy="1254" r="8" class="c0"/>
<circle cx="1032" cy="1140" r="8" class="c0"/>
<circle cx="340" cy="1426" r="8" class="c0"/>
<circle cx="962" cy="1404" r="8" class="c0"/>
<circle cx="392" cy="1218" r="8" class="c0"/>
<circle cx="956" cy="1258" r="8" class="c0"/>
<circle cx="422" cy="1134" r="8" class="c0"/>
<circle cx="1592" cy="1278" r="8" class="c0"/>
<circle cx="346" cy="1148" r="8" class="c0"/>
<circle cx="944" cy="1158" r="8" class="c0"/>
<circle cx="318" cy="1258" r="8" class="c0"/>
<circle cx="1032" cy="1346" r="8" class="c0"/>
<circle cx="1608" cy="1040" r="8" class="c0"/>
<circle cx="1182" cy="1286" r="8" class="c0"/>
<circle cx="342" cy="1116" r="8" class="c0"/>
<circle cx="1662" cy="1110" r="8" class="c0"/>
<circle cx="1658" cy="1060" r="8" class="c0"/>
<circle cx="338" cy="1324" r="8" class="c0"/>
<circle cx="1598" cy="1240" r="8" class="c0"/>
<circle cx="1660" cy="1156" r="8" class="c0"/>
<circle cx="1694" cy="1324" r="8" class="c0"/>
<circle cx="1690" cy="1388" r="8" class="c0"/>
<circle cx="1618" cy="1078" r="8" class="c0"/>
<circle cx="1646" cy="1320" r="8" class="c0"/>
<circle cx="302" cy="1248" r="8" class="c0"/>
<circle cx="1782" cy="1188" r="8" class="c0"/>
<circle cx="1002" cy="1066" r="8" class="c0"/>
<circle cx="394" cy="1412" r="8" class="c0"/>
<circle cx="1064" cy="1194" r="8" class="c0"/>
<circle cx="1044" cy="1396" r="8" class="c0"/>
<circle cx="1804" cy="1228" r="8" class="c0"/>
<circle cx="1596" cy="1414" r="8" class="c0"/>
<circle cx="390" cy="1164" r="8" class="c0"/>
<circle cx="974" cy="1326" r="8" class="c0"/>
<circle cx="1026" cy="1230" r="8" class="c0"/>
<circle cx="1010" cy="1012" r="8" class="c0"/>
<circle cx="1616" cy="1400" r="8" class="c0"/>
<circle cx="952" cy="1124" r="8" class="c0"/>
<circle cx="1526" cy="1072" r="8" class="c0"/>
<circle cx="416" cy="1192" r="8" class="c0"/>
<circle cx="1578" cy="1002" r="8" class="c0"/>
<circle cx="300" cy="1428" r="8" class="c0"/>
<circle cx="372" cy="1332" r="8" class="c0"/>
<circle cx="1906" cy="1196" r="8" class="c0"/>
<circle cx="1594" cy="1138" r="8" class="c0"/>
<circle cx="1730" cy="1242" r="8" class="c0"/>
<circle cx="952" cy="1330" r="8" class="c0"/>
<circle cx="1554" cy="1266" r="8" class="c0"/>
<circle cx="1582" cy="1060" r="8" class="c0"/>
<circle cx="424" cy="1376" r="8" class="c0"/>
<circle cx="1006" cy="1048" r="8" class="c0"/>
<circle cx="1012" cy="1108" r="8" class="c0"/>
<circle cx="1046" cy="1276" r="8" class="c0"/>
<circle cx="106" cy="1428" r="8" class="c0"/>
<circle cx="1550" cy="1116" r="8" class="c0"/>
<circle cx="324" cy="1204" r="8" class="c0"/>
<circle cx="370" cy="1082" r="8" class="c0"/>
<circle cx="1082" cy="1202" r="8" class="c0"/>
<circle cx="1634" cy="1034" r="8" class="c0"/>
<circle cx="1630" cy="1270" r="8" class="c0"/>
<circle cx="332" cy="1364" r="8" class="c0"/>
<circle cx="1844" cy="1212" r="8" class="c0"/>
<circle cx="1748" cy="1202" r="8" class="c0"/>
<circle cx="1042" cy="1108" r="8" class="c0"/>
<circle cx="1562" cy="1324" r="8" class="c0"/>
<circle cx="360" cy="1100" r="8" class="c0"/>
<circle cx="992" cy="1144" r="8" class="c0"/>
<circle cx="288" cy="1158" r="6" class="c0"/>
<circle cx="308" cy="1104" r="6" class="c0"/>
<circle cx="986" cy="1076" r="6" class="c0"/>
<circle cx="1026" cy="1170" r="6" class="c0"/>
<circle cx="356" cy="1204" r="6" class="c0"/>
<circle cx="1570" cy="1112" r="6" class="c0"/>
<circle cx="1714" cy="1250" r="6" class="c0"/>
<circle cx="1682" cy="1422" r="6" class="c0"/>
<circle cx="1552" cy="1148" r="6" class="c0"/>
<circle cx="1568" cy="1194" r="6" class="c0"/>
<circle cx="410" cy="1316" r="6" class="c0"/>
<circle cx="1604" cy="1128" r="6" class="c0"/>
<circle cx="1582" cy="1122" r="6" class="c0"/>
<circle cx="388" cy="1118" r="6" class="c0"/>
<circle cx="1110" cy="1290" r="6" class="c0"/>
<circle cx="970" cy="1432" r="6" class="c0"/>
<circle cx="1828" cy="1206" r="6" class="c0"/>
<circle cx="1058" cy="1266" r="6" class="c0"/>
<circle cx="954" cy="1050" r="6" class="c0"/>
<circle cx="272" cy="1346" r="6" class="c0"/>
<circle cx="1602" cy="1310" r="6" class="c0"/>
<circle cx="1070" cy="1300" r="6" class="c0"/>
<circle cx="956" cy="1286" r="6" class="c0"/>
<circle cx="1600" cy="1430" r="6" class="c0"/>
<circle cx="424" cy="1412" r="6" class="c0"/>
<circle cx="1142" cy="1260" r="6" class="c0"/>
<circle cx="1550" cy="1282" r="6" class="c0"/>
<circle cx="948" cy="1278" r="6" class="c0"/>
<circle cx="1862" cy="1196" r="6" class="c0"/>
<circle cx="426" cy="1328" r="6" class="c0"/>
<circle cx="384" cy="1344" r="6" class="c0"/>
<circle cx="1610" cy="1208" r="6" class="c0"/>
<circle cx="408" cy="1224" r="6" class="c0"/>
<circle cx="1584" cy="1044" r="6" class="c0"/>
<circle cx="1080" cy="1244" r="6" class="c0"/>
<circle cx="1004" cy="1268" r="6" class="c0"/>
<circle cx="392" cy="1384" r="6" class="c0"/>
<circle cx="268" cy="1402" r="6" class="c0"/>
<circle cx="366" cy="1180" r="6" class="c0"/>
<circle cx="358" cy="1400" r="6" class="c0"/>
<circle cx="964" cy="1294" r="6" class="c0"/>
<circle cx="1710" cy="1196" r="6" class="c0"/>
<circle cx="1654" cy="1092" r="6" class="c0"/>
<circle cx="1628" cy="1366" r="6" class="c0"/>
<circle cx="280" cy="1296" r="6" class="c0"/>
<circle cx="184" cy="1430" r="6" class="c0"/>
<circle cx="372" cy="1066" r="6" class="c0"/>
<circle cx="304" cy="1286" r="6" class="c0"/>
<circle cx="380" cy="1178" r="6" class="c0"/>
<circle cx="1710" cy="1180" r="6" class="c0"/>
<circle cx="40" cy="1428" r="6" class="c0"/>
<circle cx="1596" cy="1118" r="6" class="c0"/>
<circle cx="1716" cy="1432" r="6" class="c0"/>
<circle cx="1178" cy="1330" r="6" class="c0"/>
<circle cx="402" cy="1268" r="6" class="c0"/>
<circle cx="1884" cy="1218" r="6" class="c0"/>
<circle cx="1672" cy="1146" r="6" class="c0"/>
<circle cx="1678" cy="1372" r="6" class="c0"/>
<circle cx="10" cy="1376" r="6" class="c0"/>
<circle cx="336" cy="1064" r="6" class="c0"/>
<circle cx="238" cy="1384" r="6" class="c0"/>
<circle cx="286" cy="1354" r="6" class="c0"/>
<circle cx="1666" cy="1260" r="6" class="c0"/>
<circle cx="1630" cy="1432" r="6" class="c0"/>
<circle cx="52" cy="1396" r="6" class="c0"/>
<circle cx="1608" cy="1336" r="6" class="c0"/>
<circle cx="1556" cy="1030" r="6" class="c0"/>
<circle cx="1094" cy="1264" r="6" class="c0"/>
<circle cx="1034" cy="1178" r="6" class="c0"/>
<circle cx="976" cy="1228" r="6" class="c0"/>
<circle cx="1724" cy="1172" r="6" class="c0"/>
<circle cx="1052" cy="1044" r="6" class="c0"/>
<circle cx="286" cy="1196" r="6" class="c0"/>
<circle cx="1066" cy="1068" r="6" class="c0"/>
<circle cx="1818" cy="1216" r="6" class="c0"/>
<circle cx="38" cy="1410" r="6" class="c0"/>
<circle cx="94" cy="1414" r="6" class="c0"/>
<circle cx="1086" cy="1298" r="6" class="c0"/>
<circle cx="184" cy="1404" r="6" class="c0"/>
<circle cx="954" cy="1180" r="6" class="c0"/>
<circle cx="1094" cy="1214" r="6" class="c0"/>
<circle cx="270" cy="1180" r="6" class="c0"/>
<circle cx="1546" cy="1054" r="6" class="c0"/>
<circle cx="1608" cy="1276" r="6" class="c0"/>
<circle cx="1598" cy="1028" r="6" class="c0"/>
<circle cx="946" cy="1062" r="6" class="c0"/>
<circle cx="1568" cy="1258" r="6" class="c0"/>
<circle cx="260" cy="1124" r="6" class="c0"/>
<circle cx="1582" cy="1288" r="6" class="c0"/>
<circle cx="1066" cy="1240" r="6" class="c0"/>
<circle cx="1680" cy="1404" r="6" class="c0"/>
<circle cx="384" cy="1142" r="6" class="c0"/>
<circle cx="296" cy="1296" r="6" class="c0"/>
<circle cx="1650" cy="1078" r="6" class="c0"/>
<circle cx="1696" cy="1222" r="6" class="c0"/>
<circle cx="1018" cy="1322" r="6" class="c0"/>
<circle cx="1652" cy="1210" r="6" class="c0"/>
<circle cx="1578" cy="1242" r="6" class="c0"/>
<circle cx="344" cy="1098" r="6" class="c0"/>
<circle cx="422" cy="1208" r="6" class="c0"/>
<circle cx="1544" cy="1250" r="6" class="c0"/>
<circle cx="1170" cy="1272" r="6" class="c0"/>
<circle cx="1646" cy="1344" r="6" class="c0"/>
<circle cx="1694" cy="1432" r="6" class="c0"/>
<circle cx="296" cy="1394" r="6" class="c0"/>
<circle cx="384" cy="1376" r="6" class="c0"/>
<circle cx="1568" cy="1072" r="6" class="c0"/>
<circle cx="1056" cy="1312" r="6" class="c0"/>
<circle cx="942" cy="1266" r="6" class="c0"/>
<circle cx="1700" cy="1300" r="6" class="c0"/>
<circle cx="1750" cy="1240" r="6" class="c0"/>
<circle cx="400" cy="1350" r="6" class="c0"/>
<circle cx="922" cy="1236" r="6" class="c0"/>
<circle cx="962" cy="1192" r="6" class="c0"/>
<circle cx="430" cy="1428" r="6" class="c0"/>
<circle cx="1010" cy="1232" r="6" class="c0"/>
<circle cx="200" cy="1430" r="6" class="c0"/>
<circle cx="1106" cy="1220" r="6" class="c0"/>
<circle cx="960" cy="1234" r="6" class="c0"/>
<circle cx="1068" cy="1274" r="6" class="c0"/>
<circle cx="980" cy="1174" r="6" class="c0"/>
<circle cx="1772" cy="1066" r="6" class="c0"/>
<circle cx="1058" cy="1250" r="6" class="c0"/>
<circle cx="1672" cy="1206" r="6" class="c0"/>
<circle cx="312" cy="1152" r="6" class="c0"/>
<circle cx="1706" cy="1240" r="6" class="c0"/>
<circle cx="1576" cy="986" r="6" class="c0"/>
<circle cx="1146" cy="1314" r="6" class="c0"/>
<circle cx="408" cy="1170" r="6" class="c0"/>
<circle cx="1684" cy="1336" r="6" class="c0"/>
<circle cx="1038" cy="1412" r="6" class="c0"/>
<circle cx="1000" cy="1306" r="6" class="c0"/>
<circle cx="1730" cy="1160" r="6" class="c0"/>
<circle cx="1112" cy="1242" r="6" class="c0"/>
<circle cx="1608" cy="1066" r="6" class="c0"/>
<circle cx="1024" cy="1188" r="6" class="c0"/>
<circle cx="974" cy="1082" r="6" class="c0"/>
<circle cx="1050" cy="1206" r="6" class="c0"/>
<circle cx="1714" cy="1266" r="6" class="c0"/>
<circle cx="194" cy="1394" r="6" class="c0"/>
<circle cx="1616" cy="1116" r="6" class="c0"/>
<circle cx="306" cy="1182" r="6" class="c0"/>
<circle cx="1074" cy="1080" r="6" class="c0"/>
<circle cx="1600" cy="1196" r="6" class="c0"/>
<circle cx="1558" cy="1216" r="6" class="c0"/>
<circle cx="978" cy="1042" r="6" class="c0"/>
<circle cx="1746" cy="1122" r="6" class="c0"/>
<circle cx="914" cy="1224" r="6" class="c0"/>
<circle cx="324" cy="1414" r="6" class="c0"/>
<circle cx="1566" cy="1012" r="6" class="c0"/>
<circle cx="1726" cy="1326" r="6" class="c0"/>
<circle cx="1046" cy="1380" r="6" class="c0"/>
<circle cx="1910" cy="1240" r="6" class="c0"/>
<circle cx="256" cy="1410" r="6" class="c0"/>
<circle cx="352" cy="1358" r="6" class="c0"/>
<circle cx="168" cy="1432" r="6" class="c0"/>
<circle cx="1782" cy="1036" r="6" class="c0"/>
<circle cx="1190" cy="1322" r="6" class="c0"/>
<circle cx="364" cy="1432" r="6" class="c0"/>
<circle cx="1032" cy="1098" r="6" class="c0"/>
<circle cx="944" cy="1138" r="6" class="c0"/>
<circle cx="1778" cy="1052" r="6" class="c0"/>
<circle cx="982" cy="1092" r="6" class="c0"/>
<circle cx="1698" cy="1372" r="6" class="c0"/>
<circle cx="1788" cy="1218" r="6" class="c0"/>
<circle cx="970" cy="1364" r="6" class="c0"/>
<circle cx="1674" cy="1268" r="6" class="c0"/>
<circle cx="1676" cy="1248" r="6" class="c0"/>
<circle cx="1706" cy="1274" r="6" class="c0"/>
<circle cx="1548" cy="1132" r="6" class="c0"/>
<circle cx="1596" cy="1094" r="6" class="c0"/>
<circle cx="300" cy="1352" r="6" class="c0"/>
<circle cx="1060" cy="1052" r="6" class="c0"/>
<circle cx="1030" cy="1314" r="6" class="c0"/>
<circle cx="1742" cy="1136" r="6" class="c0"/>
<circle cx="1674" cy="1390" r="6" class="c0"/>
<circle cx="1724" cy="1304" r="6" class="c0"/>
<circle cx="334" cy="1194" r="6" class="c0"/>
<circle cx="1746" cy="1182" r="6" class="c0"/>
<circle cx="1168" cy="1294" r="6" class="c0"/>
<circle cx="1592" cy="1302" r="6" class="c0"/>
<circle cx="1032" cy="1286" r="6" class="c0"/>
<circle cx="1766" cy="1238" r="6" class="c0"/>
<circle cx="1134" cy="1232" r="6" class="c0"/>
<circle cx="48" cy="1382" r="6" class="c0"/>
<circle cx="1670" cy="1050" r="6" class="c0"/>
<circle cx="1636" cy="1352" r="6" class="c0"/>
<circle cx="932" cy="1256" r="6" class="c0"/>
<circle cx="1142" cy="1296" r="6" class="c0"/>
<circle cx="1650" cy="1030" r="6" class="c0"/>
<circle cx="1556" cy="1294" r="6" class="c0"/>
<circle cx="1000" cy="1002" r="6" class="c0"/>
<circle cx="338" cy="1178" r="6" class="c0"/>
<circle cx="1646" cy="1432" r="6" class="c0"/>
<circle cx="304" cy="1310" r="6" class="c0"/>
<circle cx="1122" cy="1296" r="6" class="c0"/>
<circle cx="1756" cy="1104" r="6" class="c0"/>
<circle cx="1002" cy="1346" r="6" class="c0"/>
<circle cx="1104" cy="1278" r="6" class="c0"/>
<circle cx="1014" cy="1408" r="6" class="c0"/>
<circle cx="1096" cy="1288" r="6" class="c0"/>
<circle cx="952" cy="1104" r="6" class="c0"/>
<circle cx="1004" cy="984" r="6" class="c0"/>
<circle cx="984" cy="1338" r="6" class="c0"/>
<circle cx="316" cy="1114" r="6" class="c0"/>
<circle cx="426" cy="1242" r="6" class="c0"/>
<circle cx="1576" cy="1206" r="6" class="c0"/>
<circle cx="1016" cy="1220" r="6" class="c0"/>
<circle cx="392" cy="1432" r="6" class="c0"/>
<circle cx="1636" cy="1308" r="6" class="c0"/>
<circle cx="314" cy="1214" r="6" class="c0"/>
<circle cx="1640" cy="1280" r="6" class="c0"/>
</svg>
