<?xml version="1.0" encoding="utf-8"?>
<svg xmlns="http://www.w3.org/2000/svg"
     xmlns:xlink="http://www.w3.org/1999/xlink" width="1920" height="1440" >

            <defs>
            <style type="text/css"><![CDATA[
circle {stroke: none;}
.c0 {fill: #000000;}
]]></style>
            </defs>
<rect x="0" y="0" width="1920" height="1440" fill="white"/>
<circle cx="310" cy="1220" r="12" class="c0"/>
<circle cx="1658" cy="1376" r="12" class="c0"/>
<circle cx="916" cy="864" r="12" class="c0"/>
<circle cx="332" cy="1338" r="12" class="c0"/>
<circle cx="956" cy="1084" r="12" class="c0"/>
<circle cx="1012" cy="1354" r="12" class="c0"/>
<circle cx="1694" cy="1376" r="12" class="c0"/>
<circle cx="924" cy="832" r="12" class="c0"/>
<circle cx="308" cy="1354" r="12" class="c0"/>
<circle cx="362" cy="1348" r="12" class="c0"/>
<circle cx="1678" cy="1034" r="12" class="c0"/>
<circle cx="178" cy="1264" r="12" class="c0"/>
<circle cx="1072" cy="1280" r="12" class="c0"/>
<circle cx="256" cy="1350" r="12" class="c0"/>
<circle cx="1704" cy="1336" r="12" class="c0"/>
<circle cx="978" cy="906" r="12" class="c0"/>
<circle cx="348" cy="844" r="12" class="c0"/>
<circle cx="406" cy="860" r="12" class="c0"/>
<circle cx="306" cy="1102" r="12" class="c0"/>
<circle cx="412" cy="1236" r="12" class="c0"/>
<circle cx="24" cy="1238" r="12" class="c0"/>
<circle cx="402" cy="948" r="12" class="c0"/>
<circle cx="312" cy="1072" r="12" class="c0"/>
<circle cx="1000" cy="818" r="12" class="c0"/>
<circle cx="976" cy="1186" r="12" class="c0"/>
<circle cx="362" cy="1140" r="12" class="c0"/>
<circle cx="438" cy="1336" r="12" class="c0"/>
<circle cx="254" cy="1246" r="12" class="c0"/>
<circle cx="1690" cy="896" r="12" class="c0"/>
<circle cx="1008" cy="1200" r="12" class="c0"/>
<circle cx="902" cy="1372" r="12" class="c0"/>
<circle cx="58" cy="1144" r="12" class="c0"/>
<circle cx="78" cy="1216" r="12" class="c0"/>
<circle cx="344" cy="1294" r="12" class="c0"/>
<circle cx="1596" cy="1128" r="12" class="c0"/>
<circle cx="332" cy="872" r="12" class="c0"/>
<circle cx="862" cy="1256" r="12" class="c0"/>
<circle cx="1678" cy="1324" r="12" class="c0"/>
<circle cx="1774" cy="1082" r="12" class="c0"/>
<circle cx="872" cy="1214" r="12" class="c0"/>
<circle cx="404" cy="1262" r="12" class="c0"/>
<circle cx="476" cy="1332" r="12" class="c0"/>
<circle cx="918" cy="1278" r="12" class="c0"/>
<circle cx="1576" cy="1042" r="12" class="c0"/>
<circle cx="366" cy="1014" r="12" class="c0"/>
<circle cx="322" cy="1248" r="12" class="c0"/>
<circle cx="1632" cy="1246" r="12" class="c0"/>
<circle cx="972" cy="1358" r="12" class="c0"/>
<circle cx="1580" cy="1088" r="12" class="c0"/>
<circle cx="298" cy="1318" r="12" class="c0"/>
<circle cx="868" cy="930" r="12" class="c0"/>
<circle cx="1046" cy="1332" r="12" class="c0"/>
<circle cx="390" cy="926" r="12" class="c0"/>
<circle cx="402" cy="1168" r="12" class="c0"/>
<circle cx="192" cy="1206" r="12" class="c0"/>
<circle cx="986" cy="1294" r="12" class="c0"/>
<circle cx="330" cy="1136" r="12" class="c0"/>
<circle cx="962" cy="1154" r="12" class="c0"/>
<circle cx="1642" cy="1212" r="12" class="c0"/>
<circle cx="198" cy="1250" r="10" class="c0"/>
<circle cx="1000" cy="952" r="10" class="c0"/>
<circle cx="84" cy="1174" r="10" class="c0"/>
<circle cx="114" cy="1166" r="10" class="c0"/>
<circle cx="358" cy="806" r="10" class="c0"/>
<circle cx="980" cy="744" r="10" class="c0"/>
<circle cx="932" cy="960" r="10" class="c0"/>
<circle cx="334" cy="1366" r="10" class="c0"/>
<circle cx="440" cy="1282" r="10" class="c0"/>
<circle cx="162" cy="1240" r="10" class="c0"/>
<circle cx="1638" cy="1278" r="10" class="c0"/>
<circle cx="878" cy="1166" r="10" class="c0"/>
<circle cx="998" cy="872" r="10" class="c0"/>
<circle cx="304" cy="834" r="10" class="c0"/>
<circle cx="1628" cy="1056" r="10" class="c0"/>
<circle cx="886" cy="1020" r="10" class="c0"/>
<circle cx="218" cy="1292" r="10" class="c0"/>
<circle cx="916" cy="1188" r="10" class="c0"/>
<circle cx="888" cy="888" r="10" class="c0"/>
<circle cx="1028" cy="1246" r="10" class="c0"/>
<circle cx="1640" cy="1174" r="10" class="c0"/>
<circle cx="178" cy="1294" r="10" class="c0"/>
<circle cx="958" cy="810" r="10" class="c0"/>
<circle cx="944" cy="878" r="10" class="c0"/>
<circle cx="930" cy="892" r="10" class="c0"/>
<circle cx="1582" cy="972" r="10" class="c0"/>
<circle cx="980" cy="1324" r="10" class="c0"/>
<circle cx="1664" cy="1278" r="10" class="c0"/>
<circle cx="936" cy="1246" r="10" class="c0"/>
<circle cx="1608" cy="1366" r="10" class="c0"/>
<circle cx="396" cy="1294" r="10" class="c0"/>
<circle cx="990" cy="1216" r="10" class="c0"/>
<circle cx="938" cy="1104" r="10" class="c0"/>
<circle cx="1636" cy="1098" r="10" class="c0"/>
<circle cx="296" cy="1384" r="10" class="c0"/>
<circle cx="332" cy="1082" r="10" class="c0"/>
<circle cx="1588" cy="932" r="10" class="c0"/>
<circle cx="244" cy="1272" r="10" class="c0"/>
<circle cx="1754" cy="1060" r="10" class="c0"/>
<circle cx="86" cy="1258" r="10" class="c0"/>
<circle cx="970" cy="1230" r="10" class="c0"/>
<circle cx="378" cy="1214" r="10" class="c0"/>
<circle cx="850" cy="942" r="10" class="c0"/>
<circle cx="960" cy="924" r="10" class="c0"/>
<circle cx="390" cy="1118" r="10" class="c0"/>
<circle cx="924" cy="778" r="10" class="c0"/>
<circle cx="368" cy="1310" r="10" class="c0"/>
<circle cx="434" cy="1214" r="10" class="c0"/>
<circle cx="962" cy="1208" r="10" class="c0"/>
<circle cx="976" cy="1256" r="10" class="c0"/>
<circle cx="258" cy="1212" r="10" class="c0"/>
<circle cx="950" cy="1172" r="10" class="c0"/>
<circle cx="342" cy="898" r="10" class="c0"/>
<circle cx="906" cy="818" r="10" class="c0"/>
<circle cx="938" cy="1028" r="10" class="c0"/>
<circle cx="1606" cy="1094" r="10" class="c0"/>
<circle cx="216" cy="1238" r="10" class="c0"/>
<circle cx="1632" cy="1416" r="10" class="c0"/>
<circle cx="932" cy="1294" r="10" class="c0"/>
<circle cx="338" cy="976" r="10" class="c0"/>
<circle cx="878" cy="1136" r="10" class="c0"/>
<circle cx="1492" cy="1414" r="10" class="c0"/>
<circle cx="378" cy="1084" r="10" class="c0"/>
<circle cx="432" cy="1014" r="10" class="c0"/>
<circle cx="376" cy="1330" r="10" class="c0"/>
<circle cx="1544" cy="1350" r="10" class="c0"/>
<circle cx="12" cy="1214" r="10" class="c0"/>
<circle cx="892" cy="1398" r="10" class="c0"/>
<circle cx="906" cy="1328" r="10" class="c0"/>
<circle cx="1576" cy="896" r="10" class="c0"/>
<circle cx="1584" cy="1226" r="10" class="c0"/>
<circle cx="320" cy="1298" r="10" class="c0"/>
<circle cx="388" cy="810" r="10" class="c0"/>
<circle cx="1572" cy="1330" r="10" class="c0"/>
<circle cx="910" cy="1014" r="10" class="c0"/>
<circle cx="900" cy="1212" r="10" class="c0"/>
<circle cx="800" cy="816" r="10" class="c0"/>
<circle cx="920" cy="1042" r="10" class="c0"/>
<circle cx="1644" cy="1024" r="10" class="c0"/>
<circle cx="1688" cy="1096" r="10" class="c0"/>
<circle cx="1670" cy="932" r="10" class="c0"/>
<circle cx="960" cy="1110" r="10" class="c0"/>
<circle cx="254" cy="1320" r="10" class="c0"/>
<circle cx="416" cy="1092" r="10" class="c0"/>
<circle cx="1654" cy="998" r="10" class="c0"/>
<circle cx="932" cy="1336" r="10" class="c0"/>
<circle cx="1828" cy="1076" r="10" class="c0"/>
<circle cx="1654" cy="850" r="10" class="c0"/>
<circle cx="1678" cy="1246" r="10" class="c0"/>
<circle cx="1586" cy="1410" r="10" class="c0"/>
<circle cx="1652" cy="1256" r="10" class="c0"/>
<circle cx="398" cy="1420" r="10" class="c0"/>
<circle cx="364" cy="1284" r="10" class="c0"/>
<circle cx="1620" cy="1196" r="10" class="c0"/>
<circle cx="950" cy="986" r="10" class="c0"/>
<circle cx="342" cy="1110" r="10" class="c0"/>
<circle cx="206" cy="1174" r="10" class="c0"/>
<circle cx="1568" cy="1268" r="10" class="c0"/>
<circle cx="1532" cy="1362" r="10" class="c0"/>
<circle cx="1718" cy="1010" r="10" class="c0"/>
<circle cx="260" cy="1152" r="10" class="c0"/>
<circle cx="380" cy="1030" r="10" class="c0"/>
<circle cx="1624" cy="1160" r="10" class="c0"/>
<circle cx="312" cy="894" r="10" class="c0"/>
<circle cx="808" cy="864" r="10" class="c0"/>
<circle cx="1570" cy="948" r="10" class="c0"/>
<circle cx="440" cy="920" r="10" class="c0"/>
<circle cx="274" cy="1292" r="10" class="c0"/>
<circle cx="1576" cy="1182" r="10" class="c0"/>
<circle cx="1658" cy="1150" r="10" class="c0"/>
<circle cx="1678" cy="1392" r="10" class="c0"/>
<circle cx="426" cy="906" r="10" class="c0"/>
<circle cx="886" cy="916" r="10" class="c0"/>
<circle cx="52" cy="1196" r="10" class="c0"/>
<circle cx="356" cy="1180" r="10" class="c0"/>
<circle cx="372" cy="746" r="10" class="c0"/>
<circle cx="418" cy="828" r="10" class="c0"/>
<circle cx="1564" cy="1194" r="10" class="c0"/>
<circle cx="1622" cy="860" r="10" class="c0"/>
<circle cx="1016" cy="1258" r="10" class="c0"/>
<circle cx="1692" cy="1428" r="10" class="c0"/>
<circle cx="402" cy="904" r="10" class="c0"/>
<circle cx="354" cy="1230" r="10" class="c0"/>
<circle cx="824" cy="956" r="10" class="c0"/>
<circle cx="238" cy="1222" r="10" class="c0"/>
<circle cx="14" cy="1178" r="10" class="c0"/>
<circle cx="236" cy="1306" r="10" class="c0"/>
<circle cx="88" cy="1144" r="10" class="c0"/>
<circle cx="1076" cy="1326" r="10" class="c0"/>
<circle cx="828" cy="914" r="10" class="c0"/>
<circle cx="1014" cy="1234" r="10" class="c0"/>
<circle cx="1596" cy="1018" r="10" class="c0"/>
<circle cx="880" cy="956" r="10" class="c0"/>
<circle cx="280" cy="1246" r="10" class="c0"/>
<circle cx="942" cy="1060" r="10" class="c0"/>
<circle cx="364" cy="964" r="10" class="c0"/>
<circle cx="338" cy="1048" r="10" class="c0"/>
<circle cx="416" cy="1372" r="10" class="c0"/>
<circle cx="884" cy="1316" r="10" class="c0"/>
<circle cx="928" cy="1364" r="10" class="c0"/>
<circle cx="898" cy="972" r="10" class="c0"/>
<circle cx="1638" cy="972" r="10" class="c0"/>
<circle cx="900" cy="1114" r="10" class="c0"/>
<circle cx="852" cy="858" r="10" class="c0"/>
<circle cx="900" cy="1152" r="10" class="c0"/>
<circle cx="386" cy="1054" r="10" class="c0"/>
<circle cx="1734" cy="1074" r="10" class="c0"/>
<circle cx="1658" cy="1416" r="10" class="c0"/>
<circle cx="296" cy="1290" r="10" class="c0"/>
<circle cx="1606" cy="1328" r="10" class="c0"/>
<circle cx="1652" cy="1304" r="10" class="c0"/>
<circle cx="98" cy="1190" r="10" class="c0"/>
<circle cx="962" cy="1306" r="10" class="c0"/>
<circle cx="388" cy="1146" r="10" class="c0"/>
<circle cx="1730" cy="1394" r="10" class="c0"/>
<circle cx="1556" cy="1400" r="10" class="c0"/>
<circle cx="362" cy="918" r="10" class="c0"/>
<circle cx="1528" cy="1410" r="10" class="c0"/>
<circle cx="368" cy="870" r="10" class="c0"/>
<circle cx="1040" cy="1414" r="10" class="c0"/>
<circle cx="1664" cy="1076" r="10" class="c0"/>
<circle cx="1032" cy="1312" r="10" class="c0"/>
<circle cx="386" cy="1274" r="10" class="c0"/>
<circle cx="236" cy="1146" r="10" class="c0"/>
<circle cx="838" cy="886" r="10" class="c0"/>
<circle cx="926" cy="990" r="10" class="c0"/>
<circle cx="340" cy="1268" r="10" class="c0"/>
<circle cx="388" cy="968" r="10" class="c0"/>
<circle cx="1608" cy="962" r="10" class="c0"/>
<circle cx="272" cy="1128" r="10" class="c0"/>
<circle cx="356" cy="1086" r="8" class="c0"/>
<circle cx="1088" cy="1296" r="8" class="c0"/>
<circle cx="950" cy="838" r="8" class="c0"/>
<circle cx="1060" cy="1430" r="8" class="c0"/>
<circle cx="1616" cy="1008" r="8" class="c0"/>
<circle cx="1616" cy="988" r="8" class="c0"/>
<circle cx="110" cy="1286" r="8" class="c0"/>
<circle cx="980" cy="1134" r="8" class="c0"/>
<circle cx="1872" cy="1072" r="8" class="c0"/>
<circle cx="892" cy="1068" r="8" class="c0"/>
<circle cx="976" cy="792" r="8" class="c0"/>
<circle cx="168" cy="1216" r="8" class="c0"/>
<circle cx="1612" cy="1226" r="8" class="c0"/>
<circle cx="328" cy="812" r="8" class="c0"/>
<circle cx="402" cy="1068" r="8" class="c0"/>
<circle cx="882" cy="1294" r="8" class="c0"/>
<circle cx="138" cy="1294" r="8" class="c0"/>
<circle cx="16" cy="1148" r="8" class="c0"/>
<circle cx="446" cy="1368" r="8" class="c0"/>
<circle cx="1646" cy="920" r="8" class="c0"/>
<circle cx="1868" cy="1106" r="8" class="c0"/>
<circle cx="342" cy="1152" r="8" class="c0"/>
<circle cx="884" cy="1046" r="8" class="c0"/>
<circle cx="1556" cy="1228" r="8" class="c0"/>
<circle cx="428" cy="1194" r="8" class="c0"/>
<circle cx="982" cy="772" r="8" class="c0"/>
<circle cx="440" cy="946" r="8" class="c0"/>
<circle cx="918" cy="1128" r="8" class="c0"/>
<circle cx="1704" cy="1078" r="8" class="c0"/>
<circle cx="178" cy="1182" r="8" class="c0"/>
<circle cx="500" cy="1346" r="8" class="c0"/>
<circle cx="804" cy="944" r="8" class="c0"/>
<circle cx="284" cy="1350" r="8" class="c0"/>
<circle cx="1596" cy="1248" r="8" class="c0"/>
<circle cx="276" cy="1320" r="8" class="c0"/>
<circle cx="1546" cy="1378" r="8" class="c0"/>
<circle cx="198" cy="1284" r="8" class="c0"/>
<circle cx="1592" cy="868" r="8" class="c0"/>
<circle cx="864" cy="902" r="8" class="c0"/>
<circle cx="286" cy="1220" r="8" class="c0"/>
<circle cx="226" cy="1180" r="8" class="c0"/>
<circle cx="1732" cy="1360" r="8" class="c0"/>
<circle cx="480" cy="1362" r="8" class="c0"/>
<circle cx="424" cy="1300" r="8" class="c0"/>
<circle cx="962" cy="760" r="8" class="c0"/>
<circle cx="1698" cy="1158" r="8" class="c0"/>
<circle cx="448" cy="898" r="8" class="c0"/>
<circle cx="118" cy="1228" r="8" class="c0"/>
<circle cx="1600" cy="1044" r="8" class="c0"/>
<circle cx="1602" cy="1208" r="8" class="c0"/>
<circle cx="1510" cy="1366" r="8" class="c0"/>
<circle cx="414" cy="1036" r="8" class="c0"/>
<circle cx="1800" cy="1084" r="8" class="c0"/>
<circle cx="982" cy="860" r="8" class="c0"/>
<circle cx="1012" cy="1284" r="8" class="c0"/>
<circle cx="1832" cy="1112" r="8" class="c0"/>
<circle cx="1686" cy="1298" r="8" class="c0"/>
<circle cx="1644" cy="1128" r="8" class="c0"/>
<circle cx="390" cy="1242" r="8" class="c0"/>
<circle cx="1680" cy="870" r="8" class="c0"/>
<circle cx="170" cy="1314" r="8" class="c0"/>
<circle cx="122" cy="1184" r="8" class="c0"/>
<circle cx="358" cy="1034" r="8" class="c0"/>
<circle cx="912" cy="1060" r="8" class="c0"/>
<circle cx="1588" cy="1380" r="8" class="c0"/>
<circle cx="296" cy="1120" r="8" class="c0"/>
<circle cx="1626" cy="1130" r="8" class="c0"/>
<circle cx="1732" cy="1032" r="8" class="c0"/>
<circle cx="346" cy="942" r="8" class="c0"/>
<circle cx="1618" cy="936" r="8" class="c0"/>
<circle cx="1612" cy="1306" r="8" class="c0"/>
<circle cx="432" cy="1382" r="8" class="c0"/>
<circle cx="338" cy="1026" r="8" class="c0"/>
<circle cx="1022" cy="1374" r="8" class="c0"/>
<circle cx="278" cy="1372" r="8" class="c0"/>
<circle cx="108" cy="1266" r="8" class="c0"/>
<circle cx="1694" cy="1280" r="8" class="c0"/>
<circle cx="388" cy="1192" r="8" class="c0"/>
<circle cx="420" cy="1002" r="8" class="c0"/>
<circle cx="108" cy="1238" r="8" class="c0"/>
<circle cx="982" cy="998" r="8" class="c0"/>
<circle cx="1908" cy="1112" r="8" class="c0"/>
<circle cx="940" cy="1192" r="8" class="c0"/>
<circle cx="962" cy="1010" r="8" class="c0"/>
<circle cx="298" cy="1270" r="8" class="c0"/>
<circle cx="928" cy="1078" r="8" class="c0"/>
<circle cx="340" cy="1412" r="8" class="c0"/>
<circle cx="1606" cy="1390" r="8" class="c0"/>
<circle cx="858" cy="1186" r="8" class="c0"/>
<circle cx="1672" cy="1012" r="8" class="c0"/>
<circle cx="460" cy="1250" r="8" class="c0"/>
<circle cx="878" cy="988" r="8" class="c0"/>
<circle cx="812" cy="844" r="8" class="c0"/>
<circle cx="888" cy="1246" r="8" class="c0"/>
<circle cx="312" cy="1186" r="8" class="c0"/>
<circle cx="1604" cy="1182" r="8" class="c0"/>
<circle cx="1676" cy="1354" r="8" class="c0"/>
<circle cx="1520" cy="1384" r="8" class="c0"/>
<circle cx="938" cy="934" r="8" class="c0"/>
<circle cx="336" cy="1200" r="8" class="c0"/>
<circle cx="1560" cy="1290" r="8" class="c0"/>
<circle cx="1090" cy="1314" r="8" class="c0"/>
<circle cx="1878" cy="1096" r="8" class="c0"/>
<circle cx="142" cy="1178" r="8" class="c0"/>
<circle cx="212" cy="1316" r="8" class="c0"/>
<circle cx="436" cy="876" r="8" class="c0"/>
<circle cx="1656" cy="880" r="8" class="c0"/>
<circle cx="1808" cy="1110" r="8" class="c0"/>
<circle cx="468" cy="1266" r="8" class="c0"/>
<circle cx="376" cy="1256" r="8" class="c0"/>
<circle cx="1658" cy="970" r="8" class="c0"/>
<circle cx="426" cy="1070" r="8" class="c0"/>
<circle cx="1672" cy="1162" r="8" class="c0"/>
<circle cx="994" cy="1268" r="8" class="c0"/>
<circle cx="938" cy="1130" r="8" class="c0"/>
<circle cx="1680" cy="1140" r="8" class="c0"/>
<circle cx="470" cy="1380" r="8" class="c0"/>
<circle cx="1020" cy="962" r="8" class="c0"/>
<circle cx="148" cy="1258" r="8" class="c0"/>
<circle cx="1662" cy="898" r="8" class="c0"/>
<circle cx="998" cy="976" r="8" class="c0"/>
<circle cx="320" cy="856" r="8" class="c0"/>
<circle cx="974" cy="950" r="8" class="c0"/>
<circle cx="918" cy="910" r="8" class="c0"/>
<circle cx="426" cy="958" r="8" class="c0"/>
<circle cx="356" cy="1208" r="8" class="c0"/>
<circle cx="1642" cy="1352" r="8" class="c0"/>
<circle cx="1020" cy="808" r="8" class="c0"/>
<circle cx="1896" cy="1098" r="8" class="c0"/>
<circle cx="1640" cy="938" r="8" class="c0"/>
<circle cx="942" cy="798" r="8" class="c0"/>
<circle cx="1520" cy="1430" r="8" class="c0"/>
<circle cx="144" cy="1210" r="8" class="c0"/>
<circle cx="1052" cy="1260" r="8" class="c0"/>
<circle cx="1602" cy="826" r="8" class="c0"/>
<circle cx="1630" cy="1316" r="8" class="c0"/>
<circle cx="378" cy="898" r="8" class="c0"/>
<circle cx="1732" cy="1414" r="8" class="c0"/>
<circle cx="1584" cy="1298" r="8" class="c0"/>
<circle cx="906" cy="920" r="8" class="c0"/>
<circle cx="1588" cy="1318" r="8" class="c0"/>
<circle cx="954" cy="1282" r="8" class="c0"/>
<circle cx="350" cy="1428" r="8" class="c0"/>
<circle cx="1666" cy="1180" r="8" class="c0"/>
<circle cx="1790" cy="1102" r="8" class="c0"/>
<circle cx="1618" cy="880" r="8" class="c0"/>
<circle cx="1608" cy="1072" r="8" class="c0"/>
<circle cx="896" cy="938" r="8" class="c0"/>
<circle cx="962" cy="852" r="8" class="c0"/>
<circle cx="1574" cy="1350" r="8" class="c0"/>
<circle cx="362" cy="890" r="8" class="c0"/>
<circle cx="1608" cy="1258" r="8" class="c0"/>
<circle cx="1636" cy="1388" r="8" class="c0"/>
<circle cx="958" cy="1330" r="8" class="c0"/>
<circle cx="56" cy="1238" r="8" class="c0"/>
<circle cx="30" cy="1158" r="8" class="c0"/>
<circle cx="874" cy="1082" r="8" class="c0"/>
<circle cx="1064" cy="1302" r="8" class="c0"/>
<circle cx="992" cy="850" r="8" class="c0"/>
<circle cx="924" cy="1164" r="8" class="c0"/>
<circle cx="1664" cy="1208" r="8" class="c0"/>
<circle cx="388" cy="1008" r="8" class="c0"/>
<circle cx="392" cy="830" r="8" class="c0"/>
<circle cx="156" cy="1286" r="8" class="c0"/>
<circle cx="408" cy="1332" r="8" class="c0"/>
<circle cx="128" cy="1238" r="8" class="c0"/>
<circle cx="1600" cy="890" r="8" class="c0"/>
<circle cx="1684" cy="1066" r="8" class="c0"/>
<circle cx="908" cy="1428" r="8" class="c0"/>
<circle cx="368" cy="1388" r="8" class="c0"/>
<circle cx="1616" cy="898" r="8" class="c0"/>
<circle cx="882" cy="1270" r="8" class="c0"/>
<circle cx="396" cy="776" r="8" class="c0"/>
<circle cx="104" cy="1216" r="8" class="c0"/>
<circle cx="1584" cy="996" r="8" class="c0"/>
<circle cx="1856" cy="1092" r="8" class="c0"/>
<circle cx="1764" cy="1394" r="8" class="c0"/>
<circle cx="32" cy="1198" r="8" class="c0"/>
<circle cx="800" cy="962" r="8" class="c0"/>
<circle cx="392" cy="1388" r="8" class="c0"/>
<circle cx="406" cy="1138" r="8" class="c0"/>
<circle cx="362" cy="988" r="8" class="c0"/>
<circle cx="364" cy="778" r="8" class="c0"/>
<circle cx="160" cy="1192" r="8" class="c0"/>
<circle cx="976" cy="820" r="8" class="c0"/>
<circle cx="1730" cy="1052" r="8" class="c0"/>
<circle cx="118" cy="1254" r="8" class="c0"/>
<circle cx="322" cy="1378" r="8" class="c0"/>
<circle cx="862" cy="1316" r="8" class="c0"/>
<circle cx="440" cy="1250" r="8" class="c0"/>
<circle cx="296" cy="1196" r="8" class="c0"/>
<circle cx="948" cy="912" r="8" class="c0"/>
<circle cx="1618" cy="1340" r="8" class="c0"/>
<circle cx="790" cy="872" r="8" class="c0"/>
<circle cx="926" cy="1208" r="8" class="c0"/>
<circle cx="1586" cy="1276" r="8" class="c0"/>
<circle cx="1048" cy="1390" r="8" class="c0"/>
<circle cx="1606" cy="1280" r="8" class="c0"/>
<circle cx="336" cy="920" r="8" class="c0"/>
<circle cx="228" cy="1258" r="8" class="c0"/>
<circle cx="996" cy="792" r="8" class="c0"/>
<circle cx="1540" cy="1306" r="8" class="c0"/>
<circle cx="418" cy="926" r="8" class="c0"/>
<circle cx="1606" cy="1420" r="8" class="c0"/>
<circle cx="1588" cy="1060" r="8" class="c0"/>
<circle cx="1590" cy="912" r="8" class="c0"/>
<circle cx="1676" cy="1114" r="8" class="c0"/>
<circle cx="1654" cy="1058" r="8" class="c0"/>
<circle cx="406" cy="990" r="8" class="c0"/>
<circle cx="896" cy="1304" r="8" class="c0"/>
<circle cx="826" cy="822" r="8" class="c0"/>
<circle cx="1562" cy="1370" r="8" class="c0"/>
<circle cx="876" cy="870" r="8" class="c0"/>
<circle cx="986" cy="802" r="8" class="c0"/>
<circle cx="420" cy="1274" r="8" class="c0"/>
<circle cx="1628" cy="828" r="8" class="c0"/>
<circle cx="1550" cy="888" r="8" class="c0"/>
<circle cx="332" cy="1224" r="8" class="c0"/>
<circle cx="890" cy="1094" r="8" class="c0"/>
<circle cx="1660" cy="948" r="8" class="c0"/>
<circle cx="976" cy="880" r="8" class="c0"/>
<circle cx="1784" cy="1064" r="8" class="c0"/>
<circle cx="936" cy="764" r="8" class="c0"/>
<circle cx="912" cy="794" r="8" class="c0"/>
<circle cx="1666" cy="1124" r="8" class="c0"/>
<circle cx="1648" cy="1234" r="8" class="c0"/>
<circle cx="1640" cy="872" r="8" class="c0"/>
<circle cx="1686" cy="948" r="8" class="c0"/>
<circle cx="1032" cy="1282" r="8" class="c0"/>
<circle cx="900" cy="996" r="8" class="c0"/>
<circle cx="1762" cy="1420" r="8" class="c0"/>
<circle cx="1582" cy="1202" r="8" class="c0"/>
<circle cx="268" cy="1232" r="8" class="c0"/>
<circle cx="962" cy="1048" r="8" class="c0"/>
<circle cx="394" cy="880" r="8" class="c0"/>
<circle cx="1532" cy="1334" r="8" class="c0"/>
<circle cx="266" cy="1266" r="8" class="c0"/>
<circle cx="942" cy="1008" r="8" class="c0"/>
<circle cx="928" cy="922" r="8" class="c0"/>
<circle cx="380" cy="1430" r="8" class="c0"/>
<circle cx="1718" cy="1382" r="8" class="c0"/>
<circle cx="872" cy="846" r="8" class="c0"/>
<circle cx="360" cy="1408" r="8" class="c0"/>
<circle cx="814" cy="928" r="8" class="c0"/>
<circle cx="1582" cy="1150" r="8" class="c0"/>
<circle cx="1574" cy="920" r="8" class="c0"/>
<circle cx="912" cy="1248" r="8" class="c0"/>
<circle cx="474" cy="1284" r="8" class="c0"/>
<circle cx="1808" cy="1060" r="8" class="c0"/>
<circle cx="458" cy="1316" r="8" class="c0"/>
<circle cx="1022" cy="938" r="8" class="c0"/>
<circle cx="832" cy="840" r="8" class="c0"/>
<circle cx="1546" cy="1268" r="8" class="c0"/>
<circle cx="52" cy="1220" r="8" class="c0"/>
<circle cx="886" cy="1196" r="8" class="c0"/>
<circle cx="876" cy="1108" r="8" class="c0"/>
<circle cx="222" cy="1330" r="8" class="c0"/>
<circle cx="916" cy="940" r="8" class="c0"/>
<circle cx="384" cy="1372" r="8" class="c0"/>
<circle cx="998" cy="1164" r="8" class="c0"/>
<circle cx="316" cy="1030" r="8" class="c0"/>
<circle cx="860" cy="1294" r="8" class="c0"/>
<circle cx="1698" cy="1042" r="8" class="c0"/>
<circle cx="1674" cy="982" r="8" class="c0"/>
<circle cx="402" cy="1106" r="8" class="c0"/>
<circle cx="1696" cy="860" r="8" class="c0"/>
<circle cx="380" cy="992" r="8" class="c0"/>
<circle cx="1666" cy="1100" r="8" class="c0"/>
<circle cx="1716" cy="1428" r="8" class="c0"/>
<circle cx="1864" cy="1126" r="8" class="c0"/>
<circle cx="972" cy="978" r="8" class="c0"/>
<circle cx="1562" cy="1076" r="8" class="c0"/>
<circle cx="948" cy="1348" r="8" class="c0"/>
<circle cx="348" cy="1380" r="8" class="c0"/>
<circle cx="1624" cy="918" r="8" class="c0"/>
<circle cx="1614" cy="1112" r="8" class="c0"/>
<circle cx="454" cy="1350" r="8" class="c0"/>
<circle cx="1774" cy="1050" r="8" class="c0"/>
<circle cx="786" cy="828" r="8" class="c0"/>
<circle cx="1640" cy="1078" r="8" class="c0"/>
<circle cx="1742" cy="1430" r="8" class="c0"/>
<circle cx="1630" cy="1362" r="8" class="c0"/>
<circle cx="1754" cy="1404" r="8" class="c0"/>
<circle cx="418" cy="1322" r="8" class="c0"/>
<circle cx="370" cy="1110" r="8" class="c0"/>
<circle cx="1012" cy="1316" r="8" class="c0"/>
<circle cx="996" cy="1246" r="8" class="c0"/>
<circle cx="776" cy="854" r="8" class="c0"/>
<circle cx="1740" cy="1378" r="8" class="c0"/>
<circle cx="832" cy="866" r="8" class="c0"/>
<circle cx="1036" cy="1360" r="8" class="c0"/>
<circle cx="194" cy="1324" r="8" class="c0"/>
<circle cx="974" cy="840" r="8" class="c0"/>
<circle cx="328" cy="1000" r="8" class="c0"/>
<circle cx="394" cy="1354" r="8" class="c0"/>
<circle cx="436" cy="838" r="8" class="c0"/>
<circle cx="1692" cy="1016" r="8" class="c0"/>
<circle cx="1710" cy="1030" r="8" class="c0"/>
<circle cx="1752" cy="1084" r="8" class="c0"/>
<circle cx="900" cy="1262" r="8" class="c0"/>
<circle cx="1622" cy="1294" r="8" class="c0"/>
<circle cx="1568" cy="1418" r="8" class="c0"/>
<circle cx="952" cy="1368" r="8" class="c0"/>
<circle cx="410" cy="1016" r="8" class="c0"/>
<circle cx="1606" cy="1150" r="8" class="c0"/>
<circle cx="896" cy="1284" r="8" class="c0"/>
<circle cx="92" cy="1280" r="8" class="c0"/>
<circle cx="370" cy="1196" r="8" class="c0"/>
<circle cx="1656" cy="1190" r="8" class="c0"/>
<circle cx="958" cy="1030" r="8" class="c0"/>
<circle cx="418" cy="1408" r="8" class="c0"/>
<circle cx="890" cy="1426" r="8" class="c0"/>
<circle cx="1882" cy="1116" r="8" class="c0"/>
<circle cx="1678" cy="912" r="8" class="c0"/>
<circle cx="940" cy="850" r="8" class="c0"/>
<circle cx="1052" cy="1290" r="8" class="c0"/>
<circle cx="1640" cy="1044" r="8" class="c0"/>
<circle cx="1656" cy="1336" r="8" class="c0"/>
<circle cx="1712" cy="1402" r="8" class="c0"/>
<circle cx="894" cy="860" r="8" class="c0"/>
<circle cx="906" cy="842" r="8" class="c0"/>
<circle cx="1560" cy="1246" r="8" class="c0"/>
<circle cx="486" cy="1310" r="8" class="c0"/>
<circle cx="122" cy="1208" r="8" class="c0"/>
<circle cx="892" cy="1342" r="8" class="c0"/>
<circle cx="200" cy="1302" r="8" class="c0"/>
<circle cx="400" cy="1212" r="8" class="c0"/>
<circle cx="1504" cy="1402" r="8" class="c0"/>
<circle cx="140" cy="1276" r="8" class="c0"/>
<circle cx="1678" cy="964" r="8" class="c0"/>
<circle cx="898" cy="1036" r="8" class="c0"/>
<circle cx="868" cy="1344" r="8" class="c0"/>
<circle cx="936" cy="1224" r="8" class="c0"/>
<circle cx="376" cy="796" r="8" class="c0"/>
<circle cx="854" cy="824" r="8" class="c0"/>
<circle cx="224" cy="1208" r="8" class="c0"/>
<circle cx="856" cy="968" r="8" class="c0"/>
<circle cx="1694" cy="1124" r="8" class="c0"/>
<circle cx="1842" cy="1122" r="8" class="c0"/>
<circle cx="380" cy="1166" r="8" class="c0"/>
<circle cx="1520" cy="1344" r="8" class="c0"/>
<circle cx="240" cy="1332" r="8" class="c0"/>
<circle cx="1578" cy="1110" r="8" class="c0"/>
<circle cx="284" cy="1104" r="8" class="c0"/>
<circle cx="990" cy="922" r="8" class="c0"/>
<circle cx="1620" cy="1378" r="8" class="c0"/>
<circle cx="1798" cy="968" r="8" class="c0"/>
<circle cx="940" cy="820" r="8" class="c0"/>
<circle cx="918" cy="1090" r="8" class="c0"/>
<circle cx="360" cy="1068" r="8" class="c0"/>
<circle cx="942" cy="1320" r="8" class="c0"/>
<circle cx="1758" cy="1028" r="8" class="c0"/>
<circle cx="992" cy="892" r="8" class="c0"/>
<circle cx="1586" cy="1360" r="8" class="c0"/>
<circle cx="164" cy="1172" r="8" class="c0"/>
<circle cx="922" cy="1310" r="8" class="c0"/>
<circle cx="336" cy="1172" r="8" class="c0"/>
<circle cx="426" cy="850" r="8" class="c0"/>
<circle cx="900" cy="1176" r="8" class="c0"/>
<circle cx="994" cy="1146" r="8" class="c0"/>
<circle cx="422" cy="886" r="8" class="c0"/>
<circle cx="366" cy="1242" r="8" class="c0"/>
<circle cx="446" cy="1302" r="8" class="c0"/>
<circle cx="1006" cy="780" r="8" class="c0"/>
<circle cx="1634" cy="900" r="8" class="c0"/>
<circle cx="332" cy="1392" r="8" class="c0"/>
<circle cx="1028" cy="1402" r="8" class="c0"/>
<circle cx="938" cy="1150" r="8" class="c0"/>
<circle cx="1636" cy="1334" r="8" class="c0"/>
<circle cx="1010" cy="840" r="8" class="c0"/>
<circle cx="1702" cy="912" r="8" class="c0"/>
<circle cx="1560" cy="1058" r="8" class="c0"/>
<circle cx="784" cy="806" r="8" class="c0"/>
<circle cx="392" cy="1316" r="8" class="c0"/>
<circle cx="212" cy="1268" r="8" class="c0"/>
<circle cx="866" cy="1154" r="8" class="c0"/>
<circle cx="1610" cy="1034" r="6" class="c0"/>
<circle cx="874" cy="1034" r="6" class="c0"/>
<circle cx="1748" cy="1042" r="6" class="c0"/>
<circle cx="1574" cy="1164" r="6" class="c0"/>
<circle cx="376" cy="766" r="6" class="c0"/>
<circle cx="1678" cy="1416" r="6" class="c0"/>
<circle cx="950" cy="962" r="6" class="c0"/>
<circle cx="64" cy="1260" r="6" class="c0"/>
<circle cx="1060" cy="1318" r="6" class="c0"/>
<circle cx="60" cy="1170" r="6" class="c0"/>
<circle cx="412" cy="1054" r="6" class="c0"/>
<circle cx="184" cy="1240" r="6" class="c0"/>
<circle cx="1602" cy="996" r="6" class="c0"/>
<circle cx="206" cy="1222" r="6" class="c0"/>
<circle cx="452" cy="1228" r="6" class="c0"/>
<circle cx="1698" cy="938" r="6" class="c0"/>
<circle cx="884" cy="1360" r="6" class="c0"/>
<circle cx="74" cy="1158" r="6" class="c0"/>
<circle cx="972" cy="1282" r="6" class="c0"/>
<circle cx="1010" cy="1300" r="6" class="c0"/>
<circle cx="404" cy="800" r="6" class="c0"/>
<circle cx="918" cy="760" r="6" class="c0"/>
<circle cx="1594" cy="1432" r="6" class="c0"/>
<circle cx="344" cy="1002" r="6" class="c0"/>
<circle cx="854" cy="1228" r="6" class="c0"/>
<circle cx="854" cy="1206" r="6" class="c0"/>
<circle cx="1898" cy="1122" r="6" class="c0"/>
<circle cx="1548" cy="1416" r="6" class="c0"/>
<circle cx="852" cy="1272" r="6" class="c0"/>
<circle cx="1696" cy="1142" r="6" class="c0"/>
<circle cx="414" cy="1204" r="6" class="c0"/>
<circle cx="1646" cy="1324" r="6" class="c0"/>
<circle cx="1578" cy="858" r="6" class="c0"/>
<circle cx="1020" cy="1332" r="6" class="c0"/>
<circle cx="848" cy="908" r="6" class="c0"/>
<circle cx="1618" cy="1400" r="6" class="c0"/>
<circle cx="1578" cy="1430" r="6" class="c0"/>
<circle cx="994" cy="1340" r="6" class="c0"/>
<circle cx="38" cy="1138" r="6" class="c0"/>
<circle cx="962" cy="890" r="6" class="c0"/>
<circle cx="816" cy="894" r="6" class="c0"/>
<circle cx="34" cy="1214" r="6" class="c0"/>
<circle cx="1572" cy="1384" r="6" class="c0"/>
<circle cx="124" cy="1278" r="6" class="c0"/>
<circle cx="1020" cy="1216" r="6" class="c0"/>
<circle cx="860" cy="874" r="6" class="c0"/>
<circle cx="954" cy="1128" r="6" class="c0"/>
<circle cx="326" cy="908" r="6" class="c0"/>
<circle cx="940" cy="1264" r="6" class="c0"/>
<circle cx="324" cy="1432" r="6" class="c0"/>
<circle cx="90" cy="1238" r="6" class="c0"/>
<circle cx="352" cy="1364" r="6" class="c0"/>
<circle cx="956" cy="780" r="6" class="c0"/>
<circle cx="1852" cy="1060" r="6" class="c0"/>
<circle cx="1500" cy="1382" r="6" class="c0"/>
<circle cx="346" cy="1326" r="6" class="c0"/>
<circle cx="874" cy="1004" r="6" class="c0"/>
<circle cx="928" cy="1140" r="6" class="c0"/>
<circle cx="226" cy="1162" r="6" class="c0"/>
<circle cx="1042" cy="1432" r="6" class="c0"/>
<circle cx="1568" cy="988" r="6" class="c0"/>
<circle cx="908" cy="770" r="6" class="c0"/>
<circle cx="418" cy="1180" r="6" class="c0"/>
<circle cx="296" cy="1340" r="6" class="c0"/>
<circle cx="446" cy="824" r="6" class="c0"/>
<circle cx="828" cy="938" r="6" class="c0"/>
<circle cx="1708" cy="1060" r="6" class="c0"/>
<circle cx="1784" cy="984" r="6" class="c0"/>
<circle cx="1624" cy="1080" r="6" class="c0"/>
<circle cx="392" cy="1338" r="6" class="c0"/>
<circle cx="74" cy="1190" r="6" class="c0"/>
<circle cx="1808" cy="950" r="6" class="c0"/>
<circle cx="138" cy="1226" r="6" class="c0"/>
<circle cx="984" cy="960" r="6" class="c0"/>
<circle cx="370" cy="936" r="6" class="c0"/>
<circle cx="1576" cy="874" r="6" class="c0"/>
<circle cx="828" cy="974" r="6" class="c0"/>
<circle cx="954" cy="942" r="6" class="c0"/>
<circle cx="1722" cy="1344" r="6" class="c0"/>
<circle cx="240" cy="1172" r="6" class="c0"/>
<circle cx="1622" cy="1216" r="6" class="c0"/>
<circle cx="356" cy="1256" r="6" class="c0"/>
<circle cx="1716" cy="1090" r="6" class="c0"/>
<circle cx="432" cy="1358" r="6" class="c0"/>
<circle cx="1614" cy="814" r="6" class="c0"/>
<circle cx="1578" cy="1254" r="6" class="c0"/>
<circle cx="1888" cy="1082" r="6" class="c0"/>
<circle cx="794" cy="846" r="6" class="c0"/>
<circle cx="1554" cy="908" r="6" class="c0"/>
<circle cx="378" cy="1296" r="6" class="c0"/>
<circle cx="418" cy="1390" r="6" class="c0"/>
<circle cx="1690" cy="1174" r="6" class="c0"/>
<circle cx="248" cy="1292" r="6" class="c0"/>
<circle cx="1670" cy="1302" r="6" class="c0"/>
<circle cx="1070" cy="1344" r="6" class="c0"/>
<circle cx="344" cy="794" r="6" class="c0"/>
<circle cx="1600" cy="980" r="6" class="c0"/>
<circle cx="326" cy="1318" r="6" class="c0"/>
<circle cx="384" cy="848" r="6" class="c0"/>
<circle cx="190" cy="1226" r="6" class="c0"/>
<circle cx="434" cy="1234" r="6" class="c0"/>
<circle cx="72" cy="1270" r="6" class="c0"/>
<circle cx="360" cy="1160" r="6" class="c0"/>
<circle cx="1552" cy="1328" r="6" class="c0"/>
<circle cx="980" cy="1114" r="6" class="c0"/>
<circle cx="1560" cy="1316" r="6" class="c0"/>
<circle cx="428" cy="1046" r="6" class="c0"/>
<circle cx="1672" cy="888" r="6" class="c0"/>
<circle cx="1568" cy="1308" r="6" class="c0"/>
<circle cx="1688" cy="1260" r="6" class="c0"/>
<circle cx="42" cy="1250" r="6" class="c0"/>
<circle cx="410" cy="1308" r="6" class="c0"/>
<circle cx="1606" cy="924" r="6" class="c0"/>
<circle cx="1534" cy="1284" r="6" class="c0"/>
<circle cx="324" cy="832" r="6" class="c0"/>
<circle cx="1526" cy="1314" r="6" class="c0"/>
<circle cx="1688" cy="928" r="6" class="c0"/>
<circle cx="8" cy="1196" r="6" class="c0"/>
<circle cx="448" cy="1386" r="6" class="c0"/>
<circle cx="1046" cy="1240" r="6" class="c0"/>
<circle cx="342" cy="1250" r="6" class="c0"/>
<circle cx="874" cy="1060" r="6" class="c0"/>
<circle cx="216" cy="1190" r="6" class="c0"/>
<circle cx="956" cy="1248" r="6" class="c0"/>
<circle cx="258" cy="1302" r="6" class="c0"/>
<circle cx="1546" cy="1432" r="6" class="c0"/>
<circle cx="1844" cy="1102" r="6" class="c0"/>
<circle cx="390" cy="1404" r="6" class="c0"/>
<circle cx="408" cy="1188" r="6" class="c0"/>
<circle cx="1664" cy="1228" r="6" class="c0"/>
<circle cx="956" cy="1266" r="6" class="c0"/>
<circle cx="1618" cy="840" r="6" class="c0"/>
<circle cx="960" cy="868" r="6" class="c0"/>
<circle cx="396" cy="1040" r="6" class="c0"/>
<circle cx="1050" cy="1310" r="6" class="c0"/>
<circle cx="958" cy="970" r="6" class="c0"/>
<circle cx="1598" cy="850" r="6" class="c0"/>
<circle cx="1590" cy="1340" r="6" class="c0"/>
<circle cx="912" cy="1356" r="6" class="c0"/>
<circle cx="368" cy="1044" r="6" class="c0"/>
<circle cx="1706" cy="1312" r="6" class="c0"/>
<circle cx="842" cy="958" r="6" class="c0"/>
<circle cx="388" cy="760" r="6" class="c0"/>
<circle cx="1670" cy="860" r="6" class="c0"/>
<circle cx="296" cy="1236" r="6" class="c0"/>
<circle cx="324" cy="1156" r="6" class="c0"/>
<circle cx="278" cy="1148" r="6" class="c0"/>
<circle cx="318" cy="1050" r="6" class="c0"/>
<circle cx="892" cy="1228" r="6" class="c0"/>
<circle cx="1824" cy="1128" r="6" class="c0"/>
<circle cx="130" cy="1266" r="6" class="c0"/>
<circle cx="376" cy="828" r="6" class="c0"/>
<circle cx="46" cy="1174" r="6" class="c0"/>
<circle cx="1704" cy="1296" r="6" class="c0"/>
<circle cx="434" cy="1032" r="6" class="c0"/>
<circle cx="1038" cy="1378" r="6" class="c0"/>
<circle cx="338" cy="828" r="6" class="c0"/>
<circle cx="798" cy="798" r="6" class="c0"/>
<circle cx="452" cy="934" r="6" class="c0"/>
<circle cx="414" cy="1290" r="6" class="c0"/>
<circle cx="1652" cy="1396" r="6" class="c0"/>
<circle cx="418" cy="1348" r="6" class="c0"/>
<circle cx="1624" cy="1038" r="6" class="c0"/>
<circle cx="1032" cy="1222" r="6" class="c0"/>
<circle cx="1694" cy="1354" r="6" class="c0"/>
<circle cx="912" cy="1404" r="6" class="c0"/>
<circle cx="76" cy="1236" r="6" class="c0"/>
<circle cx="1502" cy="1430" r="6" class="c0"/>
<circle cx="964" cy="830" r="6" class="c0"/>
<circle cx="1588" cy="840" r="6" class="c0"/>
<circle cx="1792" cy="1048" r="6" class="c0"/>
<circle cx="1642" cy="836" r="6" class="c0"/>
<circle cx="1902" cy="1080" r="6" class="c0"/>
<circle cx="468" cy="1302" r="6" class="c0"/>
<circle cx="872" cy="1328" r="6" class="c0"/>
<circle cx="448" cy="1264" r="6" class="c0"/>
<circle cx="1002" cy="1330" r="6" class="c0"/>
<circle cx="314" cy="1274" r="6" class="c0"/>
<circle cx="1818" cy="1094" r="6" class="c0"/>
<circle cx="1640" cy="1146" r="6" class="c0"/>
<circle cx="1566" cy="882" r="6" class="c0"/>
<circle cx="914" cy="1228" r="6" class="c0"/>
<circle cx="952" cy="1222" r="6" class="c0"/>
<circle cx="970" cy="1124" r="6" class="c0"/>
<circle cx="350" cy="1126" r="6" class="c0"/>
<circle cx="1606" cy="806" r="6" class="c0"/>
<circle cx="1708" cy="1356" r="6" class="c0"/>
<circle cx="330" cy="1282" r="6" class="c0"/>
<circle cx="848" cy="924" r="6" class="c0"/>
<circle cx="460" cy="1294" r="6" class="c0"/>
<circle cx="1048" cy="1370" r="6" class="c0"/>
<circle cx="134" cy="1198" r="6" class="c0"/>
<circle cx="1628" cy="954" r="6" class="c0"/>
<circle cx="992" cy="730" r="6" class="c0"/>
<circle cx="1680" cy="1270" r="6" class="c0"/>
<circle cx="1060" cy="1406" r="6" class="c0"/>
<circle cx="902" cy="1082" r="6" class="c0"/>
<circle cx="774" cy="816" r="6" class="c0"/>
<circle cx="1536" cy="1388" r="6" class="c0"/>
<circle cx="898" cy="904" r="6" class="c0"/>
<circle cx="972" cy="1022" r="6" class="c0"/>
<circle cx="50" cy="1258" r="6" class="c0"/>
<circle cx="284" cy="1306" r="6" class="c0"/>
<circle cx="370" cy="846" r="6" class="c0"/>
<circle cx="1004" cy="992" r="6" class="c0"/>
<circle cx="1774" cy="1408" r="6" class="c0"/>
<circle cx="356" cy="1052" r="6" class="c0"/>
<circle cx="1840" cy="906" r="6" class="c0"/>
<circle cx="822" cy="854" r="6" class="c0"/>
<circle cx="204" cy="1336" r="6" class="c0"/>
<circle cx="1856" cy="880" r="6" class="c0"/>
<circle cx="926" cy="806" r="6" class="c0"/>
<circle cx="286" cy="1138" r="6" class="c0"/>
<circle cx="868" cy="1234" r="6" class="c0"/>
<circle cx="920" cy="1348" r="6" class="c0"/>
<circle cx="458" cy="1280" r="6" class="c0"/>
<circle cx="292" cy="1364" r="6" class="c0"/>
<circle cx="922" cy="1258" r="6" class="c0"/>
<circle cx="906" cy="1294" r="6" class="c0"/>
<circle cx="74" cy="1134" r="6" class="c0"/>
<circle cx="912" cy="884" r="6" class="c0"/>
<circle cx="230" cy="1344" r="6" class="c0"/>
<circle cx="1670" cy="1054" r="6" class="c0"/>
<circle cx="1852" cy="1110" r="6" class="c0"/>
<circle cx="418" cy="1112" r="6" class="c0"/>
<circle cx="996" cy="1310" r="6" class="c0"/>
<circle cx="1566" cy="1212" r="6" class="c0"/>
<circle cx="1640" cy="1432" r="6" class="c0"/>
<circle cx="432" cy="1314" r="6" class="c0"/>
<circle cx="1656" cy="1110" r="6" class="c0"/>
<circle cx="1702" cy="1110" r="6" class="c0"/>
<circle cx="1590" cy="1170" r="6" class="c0"/>
<circle cx="998" cy="1184" r="6" class="c0"/>
<circle cx="394" cy="792" r="6" class="c0"/>
<circle cx="1558" cy="1176" r="6" class="c0"/>
<circle cx="856" cy="888" r="6" class="c0"/>
<circle cx="348" cy="820" r="6" class="c0"/>
<circle cx="1588" cy="952" r="6" class="c0"/>
<circle cx="392" cy="1094" r="6" class="c0"/>
<circle cx="904" cy="1412" r="6" class="c0"/>
<circle cx="226" cy="1276" r="6" class="c0"/>
<circle cx="1832" cy="1058" r="6" class="c0"/>
<circle cx="916" cy="976" r="6" class="c0"/>
<circle cx="6" cy="1162" r="6" class="c0"/>
<circle cx="326" cy="1060" r="6" class="c0"/>
<circle cx="1816" cy="940" r="6" class="c0"/>
<circle cx="158" cy="1268" r="6" class="c0"/>
<circle cx="316" cy="1398" r="6" class="c0"/>
<circle cx="922" cy="1112" r="6" class="c0"/>
<circle cx="978" cy="932" r="6" class="c0"/>
<circle cx="772" cy="838" r="6" class="c0"/>
<circle cx="1632" cy="844" r="6" class="c0"/>
<circle cx="980" cy="1162" r="6" class="c0"/>
<circle cx="310" cy="1134" r="6" class="c0"/>
<circle cx="1632" cy="996" r="6" class="c0"/>
<circle cx="1622" cy="1178" r="6" class="c0"/>
<circle cx="1632" cy="1012" r="6" class="c0"/>
<circle cx="868" cy="1278" r="6" class="c0"/>
<circle cx="912" cy="956" r="6" class="c0"/>
<circle cx="414" cy="810" r="6" class="c0"/>
<circle cx="1686" cy="1408" r="6" class="c0"/>
<circle cx="310" cy="1334" r="6" class="c0"/>
<circle cx="402" cy="1398" r="6" class="c0"/>
<circle cx="380" cy="1232" r="6" class="c0"/>
<circle cx="38" cy="1182" r="6" class="c0"/>
<circle cx="410" cy="1122" r="6" class="c0"/>
<circle cx="308" cy="876" r="6" class="c0"/>
<circle cx="154" cy="1310" r="6" class="c0"/>
<circle cx="816" cy="804" r="6" class="c0"/>
<circle cx="1770" cy="1102" r="6" class="c0"/>
<circle cx="810" cy="972" r="6" class="c0"/>
<circle cx="1852" cy="1076" r="6" class="c0"/>
<circle cx="144" cy="1242" r="6" class="c0"/>
<circle cx="414" cy="1430" r="6" class="c0"/>
<circle cx="1674" cy="1432" r="6" class="c0"/>
<circle cx="428" cy="936" r="6" class="c0"/>
<circle cx="1008" cy="888" r="6" class="c0"/>
<circle cx="350" cy="1396" r="6" class="c0"/>
<circle cx="994" cy="760" r="6" class="c0"/>
<circle cx="268" cy="1336" r="6" class="c0"/>
<circle cx="376" cy="1412" r="6" class="c0"/>
<circle cx="300" cy="1250" r="6" class="c0"/>
<circle cx="376" cy="952" r="6" class="c0"/>
<circle cx="430" cy="1264" r="6" class="c0"/>
<circle cx="850" cy="840" r="6" class="c0"/>
<circle cx="1008" cy="856" r="6" class="c0"/>
<circle cx="1538" cy="1424" r="6" class="c0"/>
<circle cx="1574" cy="1398" r="6" class="c0"/>
<circle cx="1630" cy="1226" r="6" class="c0"/>
<circle cx="282" cy="1264" r="6" class="c0"/>
<circle cx="96" cy="1162" r="6" class="c0"/>
<circle cx="1602" cy="790" r="6" class="c0"/>
<circle cx="1772" cy="1002" r="6" class="c0"/>
<circle cx="1620" cy="1272" r="6" class="c0"/>
<circle cx="186" cy="1310" r="6" class="c0"/>
<circle cx="340" cy="1314" r="6" class="c0"/>
<circle cx="1484" cy="1430" r="6" class="c0"/>
<circle cx="1008" cy="1174" r="6" class="c0"/>
<circle cx="70" cy="1248" r="6" class="c0"/>
<circle cx="1830" cy="922" r="6" class="c0"/>
<circle cx="464" cy="1360" r="6" class="c0"/>
<circle cx="1660" cy="1352" r="6" class="c0"/>
<circle cx="1680" cy="1188" r="6" class="c0"/>
<circle cx="364" cy="834" r="6" class="c0"/>
<circle cx="402" cy="840" r="6" class="c0"/>
<circle cx="910" cy="1390" r="6" class="c0"/>
<circle cx="276" cy="1210" r="6" class="c0"/>
<circle cx="1772" cy="1432" r="6" class="c0"/>
<circle cx="1000" cy="908" r="6" class="c0"/>
<circle cx="1714" cy="1046" r="6" class="c0"/>
<circle cx="948" cy="1140" r="6" class="c0"/>
<circle cx="502" cy="1364" r="6" class="c0"/>
<circle cx="410" cy="974" r="6" class="c0"/>
<circle cx="1608" cy="870" r="6" class="c0"/>
<circle cx="1620" cy="1432" r="6" class="c0"/>
<circle cx="494" cy="1324" r="6" class="c0"/>
<circle cx="960" cy="1064" r="6" class="c0"/>
<circle cx="188" cy="1170" r="6" class="c0"/>
<circle cx="424" cy="1252" r="6" class="c0"/>
<circle cx="896" cy="1134" r="6" class="c0"/>
<circle cx="1042" cy="1270" r="6" class="c0"/>
<circle cx="874" cy="1184" r="6" class="c0"/>
<circle cx="990" cy="1366" r="6" class="c0"/>
<circle cx="1016" cy="792" r="6" class="c0"/>
<circle cx="320" cy="1114" r="6" class="c0"/>
<circle cx="884" cy="1382" r="6" class="c0"/>
<circle cx="1654" cy="1090" r="6" class="c0"/>
<circle cx="858" cy="1168" r="6" class="c0"/>
<circle cx="1544" cy="1250" r="6" class="c0"/>
<circle cx="1600" cy="1348" r="6" class="c0"/>
<circle cx="1714" cy="1320" r="6" class="c0"/>
<circle cx="870" cy="826" r="6" class="c0"/>
<circle cx="1600" cy="1296" r="6" class="c0"/>
<circle cx="1622" cy="1024" r="6" class="c0"/>
<circle cx="1570" cy="1236" r="6" class="c0"/>
<circle cx="1638" cy="1192" r="6" class="c0"/>
<circle cx="352" cy="880" r="6" class="c0"/>
<circle cx="380" cy="780" r="6" class="c0"/>
<circle cx="1658" cy="1038" r="6" class="c0"/>
<circle cx="254" cy="1134" r="6" class="c0"/>
<circle cx="1606" cy="908" r="6" class="c0"/>
<circle cx="340" cy="1066" r="6" class="c0"/>
<circle cx="1838" cy="1090" r="6" class="c0"/>
<circle cx="1006" cy="932" r="6" class="c0"/>
<circle cx="104" cy="1152" r="6" class="c0"/>
<circle cx="366" cy="1370" r="6" class="c0"/>
<circle cx="254" cy="1170" r="6" class="c0"/>
<circle cx="802" cy="834" r="6" class="c0"/>
<circle cx="1646" cy="890" r="6" class="c0"/>
<circle cx="922" cy="1236" r="6" class="c0"/>
<circle cx="1706" cy="1418" r="6" class="c0"/>
<circle cx="386" cy="866" r="6" class="c0"/>
<circle cx="1662" cy="1022" r="6" class="c0"/>
<circle cx="902" cy="1238" r="6" class="c0"/>
<circle cx="988" cy="832" r="6" class="c0"/>
<circle cx="1648" cy="958" r="6" class="c0"/>
<circle cx="1694" cy="1400" r="6" class="c0"/>
<circle cx="286" cy="1332" r="6" class="c0"/>
<circle cx="258" cy="1282" r="6" class="c0"/>
<circle cx="318" cy="1202" r="6" class="c0"/>
<circle cx="1028" cy="1342" r="6" class="c0"/>
<circle cx="1616" cy="1140" r="6" class="c0"/>
<circle cx="1604" cy="944" r="6" class="c0"/>
<circle cx="1764" cy="1012" r="6" class="c0"/>
<circle cx="1910" cy="1090" r="6" class="c0"/>
<circle cx="234" cy="1242" r="6" class="c0"/>
<circle cx="1708" cy="1098" r="6" class="c0"/>
<circle cx="1848" cy="894" r="6" class="c0"/>
<circle cx="318" cy="1326" r="6" class="c0"/>
<circle cx="1594" cy="1192" r="6" class="c0"/>
<circle cx="318" cy="1170" r="6" class="c0"/>
<circle cx="176" cy="1230" r="6" class="c0"/>
<circle cx="822" cy="878" r="6" class="c0"/>
<circle cx="376" cy="1128" r="6" class="c0"/>
<circle cx="1662" cy="916" r="6" class="c0"/>
<circle cx="1574" cy="1006" r="6" class="c0"/>
<circle cx="1022" cy="1294" r="6" class="c0"/>
<circle cx="284" cy="1278" r="6" class="c0"/>
<circle cx="368" cy="820" r="6" class="c0"/>
<circle cx="362" cy="946" r="6" class="c0"/>
<circle cx="398" cy="1026" r="6" class="c0"/>
<circle cx="392" cy="1226" r="6" class="c0"/>
<circle cx="866" cy="1124" r="6" class="c0"/>
<circle cx="378" cy="1182" r="6" class="c0"/>
<circle cx="950" cy="896" r="6" class="c0"/>
<circle cx="882" cy="1412" r="6" class="c0"/>
<circle cx="1610" cy="1054" r="6" class="c0"/>
<circle cx="1704" cy="1134" r="6" class="c0"/>
<circle cx="1056" cy="1350" r="6" class="c0"/>
<circle cx="404" cy="818" r="6" class="c0"/>
<circle cx="42" cy="1230" r="6" class="c0"/>
<circle cx="194" cy="1186" r="6" class="c0"/>
<circle cx="1560" cy="1342" r="6" class="c0"/>
</svg>
