<?xml version="1.0" encoding="utf-8"?>
<svg xmlns="http://www.w3.org/2000/svg"
     xmlns:xlink="http://www.w3.org/1999/xlink" width="1920" height="1440" >

            <defs>
            <style type="text/css"><![CDATA[
circle {stroke: none;}
.c0 {fill: #000000;}
]]></style>
            </defs>
<rect x="0" y="0" width="1920" height="1440" fill="white"/>
<circle cx="836" cy="858" r="14" class="c0"/>
<circle cx="280" cy="1214" r="14" class="c0"/>
<circle cx="1632" cy="828" r="12" class="c0"/>
<circle cx="870" cy="850" r="12" class="c0"/>
<circle cx="384" cy="1158" r="12" class="c0"/>
<circle cx="850" cy="1306" r="12" class="c0"/>
<circle cx="1592" cy="848" r="12" class="c0"/>
<circle cx="444" cy="910" r="12" class="c0"/>
<circle cx="244" cy="1264" r="12" class="c0"/>
<circle cx="348" cy="800" r="12" class="c0"/>
<circle cx="932" cy="840" r="12" class="c0"/>
<circle cx="962" cy="1104" r="12" class="c0"/>
<circle cx="344" cy="1314" r="12" class="c0"/>
<circle cx="1672" cy="1148" r="12" class="c0"/>
<circle cx="996" cy="1254" r="12" class="c0"/>
<circle cx="928" cy="1002" r="12" class="c0"/>
<circle cx="1634" cy="1090" r="12" class="c0"/>
<circle cx="414" cy="1370" r="12" class="c0"/>
<circle cx="268" cy="1116" r="12" class="c0"/>
<circle cx="874" cy="1344" r="12" class="c0"/>
<circle cx="1880" cy="1088" r="12" class="c0"/>
<circle cx="966" cy="1166" r="12" class="c0"/>
<circle cx="1044" cy="1380" r="12" class="c0"/>
<circle cx="936" cy="1120" r="12" class="c0"/>
<circle cx="1552" cy="1338" r="12" class="c0"/>
<circle cx="1596" cy="1064" r="12" class="c0"/>
<circle cx="70" cy="1214" r="12" class="c0"/>
<circle cx="1652" cy="1236" r="12" class="c0"/>
<circle cx="1702" cy="1064" r="12" class="c0"/>
<circle cx="154" cy="1252" r="12" class="c0"/>
<circle cx="1650" cy="878" r="12" class="c0"/>
<circle cx="308" cy="1332" r="12" class="c0"/>
<circle cx="352" cy="1038" r="12" class="c0"/>
<circle cx="968" cy="870" r="12" class="c0"/>
<circle cx="104" cy="1162" r="12" class="c0"/>
<circle cx="1652" cy="1110" r="12" class="c0"/>
<circle cx="892" cy="1142" r="12" class="c0"/>
<circle cx="1574" cy="1376" r="12" class="c0"/>
<circle cx="874" cy="910" r="12" class="c0"/>
<circle cx="920" cy="978" r="12" class="c0"/>
<circle cx="366" cy="1230" r="12" class="c0"/>
<circle cx="920" cy="1322" r="12" class="c0"/>
<circle cx="1570" cy="1208" r="12" class="c0"/>
<circle cx="1696" cy="898" r="12" class="c0"/>
<circle cx="410" cy="802" r="12" class="c0"/>
<circle cx="1574" cy="1296" r="12" class="c0"/>
<circle cx="238" cy="1292" r="12" class="c0"/>
<circle cx="410" cy="1224" r="12" class="c0"/>
<circle cx="358" cy="1342" r="12" class="c0"/>
<circle cx="926" cy="1252" r="12" class="c0"/>
<circle cx="432" cy="1234" r="12" class="c0"/>
<circle cx="1588" cy="946" r="12" class="c0"/>
<circle cx="1618" cy="1146" r="12" class="c0"/>
<circle cx="282" cy="1306" r="12" class="c0"/>
<circle cx="1652" cy="1388" r="12" class="c0"/>
<circle cx="420" cy="1150" r="12" class="c0"/>
<circle cx="1006" cy="1336" r="12" class="c0"/>
<circle cx="1546" cy="1256" r="12" class="c0"/>
<circle cx="168" cy="1280" r="12" class="c0"/>
<circle cx="356" cy="1120" r="12" class="c0"/>
<circle cx="1542" cy="1312" r="12" class="c0"/>
<circle cx="992" cy="1202" r="12" class="c0"/>
<circle cx="120" cy="1244" r="12" class="c0"/>
<circle cx="1694" cy="1422" r="12" class="c0"/>
<circle cx="194" cy="1288" r="12" class="c0"/>
<circle cx="246" cy="1144" r="12" class="c0"/>
<circle cx="906" cy="1026" r="12" class="c0"/>
<circle cx="952" cy="1284" r="12" class="c0"/>
<circle cx="438" cy="1338" r="12" class="c0"/>
<circle cx="1514" cy="1362" r="12" class="c0"/>
<circle cx="346" cy="1266" r="12" class="c0"/>
<circle cx="388" cy="746" r="12" class="c0"/>
<circle cx="270" cy="1268" r="12" class="c0"/>
<circle cx="482" cy="1306" r="12" class="c0"/>
<circle cx="880" cy="1264" r="12" class="c0"/>
<circle cx="204" cy="1158" r="12" class="c0"/>
<circle cx="830" cy="814" r="10" class="c0"/>
<circle cx="1768" cy="1058" r="10" class="c0"/>
<circle cx="408" cy="1332" r="10" class="c0"/>
<circle cx="1598" cy="1404" r="10" class="c0"/>
<circle cx="396" cy="1250" r="10" class="c0"/>
<circle cx="350" cy="1158" r="10" class="c0"/>
<circle cx="1626" cy="1388" r="10" class="c0"/>
<circle cx="1722" cy="1012" r="10" class="c0"/>
<circle cx="894" cy="980" r="10" class="c0"/>
<circle cx="912" cy="1170" r="10" class="c0"/>
<circle cx="310" cy="1356" r="10" class="c0"/>
<circle cx="1540" cy="1394" r="10" class="c0"/>
<circle cx="1620" cy="1072" r="10" class="c0"/>
<circle cx="822" cy="876" r="10" class="c0"/>
<circle cx="380" cy="814" r="10" class="c0"/>
<circle cx="1668" cy="1336" r="10" class="c0"/>
<circle cx="1682" cy="996" r="10" class="c0"/>
<circle cx="250" cy="1224" r="10" class="c0"/>
<circle cx="962" cy="750" r="10" class="c0"/>
<circle cx="298" cy="1284" r="10" class="c0"/>
<circle cx="316" cy="1238" r="10" class="c0"/>
<circle cx="388" cy="790" r="10" class="c0"/>
<circle cx="962" cy="1248" r="10" class="c0"/>
<circle cx="1648" cy="924" r="10" class="c0"/>
<circle cx="1746" cy="1028" r="10" class="c0"/>
<circle cx="396" cy="1066" r="10" class="c0"/>
<circle cx="904" cy="836" r="10" class="c0"/>
<circle cx="986" cy="738" r="10" class="c0"/>
<circle cx="1658" cy="1354" r="10" class="c0"/>
<circle cx="1606" cy="974" r="10" class="c0"/>
<circle cx="386" cy="866" r="10" class="c0"/>
<circle cx="46" cy="1168" r="10" class="c0"/>
<circle cx="820" cy="918" r="10" class="c0"/>
<circle cx="954" cy="918" r="10" class="c0"/>
<circle cx="324" cy="1150" r="10" class="c0"/>
<circle cx="200" cy="1206" r="10" class="c0"/>
<circle cx="1690" cy="930" r="10" class="c0"/>
<circle cx="394" cy="1122" r="10" class="c0"/>
<circle cx="906" cy="1120" r="10" class="c0"/>
<circle cx="384" cy="962" r="10" class="c0"/>
<circle cx="334" cy="1128" r="10" class="c0"/>
<circle cx="1072" cy="1292" r="10" class="c0"/>
<circle cx="430" cy="1000" r="10" class="c0"/>
<circle cx="1870" cy="1062" r="10" class="c0"/>
<circle cx="182" cy="1248" r="10" class="c0"/>
<circle cx="412" cy="930" r="10" class="c0"/>
<circle cx="472" cy="1260" r="10" class="c0"/>
<circle cx="1628" cy="1416" r="10" class="c0"/>
<circle cx="994" cy="854" r="10" class="c0"/>
<circle cx="302" cy="810" r="10" class="c0"/>
<circle cx="414" cy="1280" r="10" class="c0"/>
<circle cx="26" cy="1122" r="10" class="c0"/>
<circle cx="338" cy="1004" r="10" class="c0"/>
<circle cx="418" cy="842" r="10" class="c0"/>
<circle cx="364" cy="860" r="10" class="c0"/>
<circle cx="918" cy="1278" r="10" class="c0"/>
<circle cx="94" cy="1118" r="10" class="c0"/>
<circle cx="1580" cy="1178" r="10" class="c0"/>
<circle cx="226" cy="1196" r="10" class="c0"/>
<circle cx="1576" cy="928" r="10" class="c0"/>
<circle cx="1796" cy="1084" r="10" class="c0"/>
<circle cx="974" cy="788" r="10" class="c0"/>
<circle cx="1584" cy="972" r="10" class="c0"/>
<circle cx="402" cy="1040" r="10" class="c0"/>
<circle cx="1054" cy="1282" r="10" class="c0"/>
<circle cx="850" cy="908" r="10" class="c0"/>
<circle cx="876" cy="990" r="10" class="c0"/>
<circle cx="934" cy="1154" r="10" class="c0"/>
<circle cx="966" cy="1216" r="10" class="c0"/>
<circle cx="978" cy="1134" r="10" class="c0"/>
<circle cx="1624" cy="1314" r="10" class="c0"/>
<circle cx="924" cy="782" r="10" class="c0"/>
<circle cx="890" cy="1180" r="10" class="c0"/>
<circle cx="372" cy="1404" r="10" class="c0"/>
<circle cx="394" cy="1360" r="10" class="c0"/>
<circle cx="1636" cy="1346" r="10" class="c0"/>
<circle cx="1522" cy="1426" r="10" class="c0"/>
<circle cx="1602" cy="1100" r="10" class="c0"/>
<circle cx="948" cy="1308" r="10" class="c0"/>
<circle cx="1018" cy="1314" r="10" class="c0"/>
<circle cx="400" cy="916" r="10" class="c0"/>
<circle cx="1714" cy="1362" r="10" class="c0"/>
<circle cx="980" cy="836" r="10" class="c0"/>
<circle cx="1688" cy="1358" r="10" class="c0"/>
<circle cx="1688" cy="1104" r="10" class="c0"/>
<circle cx="78" cy="1130" r="10" class="c0"/>
<circle cx="1678" cy="1400" r="10" class="c0"/>
<circle cx="896" cy="1416" r="10" class="c0"/>
<circle cx="1652" cy="838" r="10" class="c0"/>
<circle cx="918" cy="1074" r="10" class="c0"/>
<circle cx="28" cy="1150" r="10" class="c0"/>
<circle cx="922" cy="928" r="10" class="c0"/>
<circle cx="884" cy="934" r="10" class="c0"/>
<circle cx="878" cy="1216" r="10" class="c0"/>
<circle cx="378" cy="938" r="10" class="c0"/>
<circle cx="408" cy="1018" r="10" class="c0"/>
<circle cx="1576" cy="1036" r="10" class="c0"/>
<circle cx="964" cy="1030" r="10" class="c0"/>
<circle cx="978" cy="1304" r="10" class="c0"/>
<circle cx="1032" cy="1284" r="10" class="c0"/>
<circle cx="432" cy="1198" r="10" class="c0"/>
<circle cx="142" cy="1196" r="10" class="c0"/>
<circle cx="1006" cy="934" r="10" class="c0"/>
<circle cx="1622" cy="1036" r="10" class="c0"/>
<circle cx="776" cy="806" r="10" class="c0"/>
<circle cx="1572" cy="1244" r="10" class="c0"/>
<circle cx="852" cy="1230" r="10" class="c0"/>
<circle cx="436" cy="886" r="10" class="c0"/>
<circle cx="132" cy="1148" r="10" class="c0"/>
<circle cx="328" cy="1222" r="10" class="c0"/>
<circle cx="914" cy="1226" r="10" class="c0"/>
<circle cx="372" cy="910" r="10" class="c0"/>
<circle cx="1564" cy="1402" r="10" class="c0"/>
<circle cx="308" cy="1178" r="10" class="c0"/>
<circle cx="370" cy="1074" r="10" class="c0"/>
<circle cx="952" cy="1062" r="10" class="c0"/>
<circle cx="374" cy="1186" r="10" class="c0"/>
<circle cx="396" cy="1318" r="10" class="c0"/>
<circle cx="1606" cy="1256" r="10" class="c0"/>
<circle cx="870" cy="1150" r="10" class="c0"/>
<circle cx="222" cy="1238" r="10" class="c0"/>
<circle cx="888" cy="1394" r="10" class="c0"/>
<circle cx="938" cy="754" r="10" class="c0"/>
<circle cx="1662" cy="988" r="10" class="c0"/>
<circle cx="1662" cy="952" r="10" class="c0"/>
<circle cx="1546" cy="1230" r="10" class="c0"/>
<circle cx="1674" cy="1018" r="10" class="c0"/>
<circle cx="1574" cy="1266" r="10" class="c0"/>
<circle cx="916" cy="904" r="10" class="c0"/>
<circle cx="1720" cy="1410" r="10" class="c0"/>
<circle cx="902" cy="1246" r="10" class="c0"/>
<circle cx="996" cy="818" r="10" class="c0"/>
<circle cx="1684" cy="1252" r="10" class="c0"/>
<circle cx="1664" cy="1304" r="10" class="c0"/>
<circle cx="170" cy="1174" r="10" class="c0"/>
<circle cx="1612" cy="800" r="10" class="c0"/>
<circle cx="1658" cy="1208" r="10" class="c0"/>
<circle cx="1572" cy="882" r="10" class="c0"/>
<circle cx="1592" cy="1014" r="10" class="c0"/>
<circle cx="872" cy="1242" r="10" class="c0"/>
<circle cx="1596" cy="878" r="10" class="c0"/>
<circle cx="196" cy="1236" r="10" class="c0"/>
<circle cx="1020" cy="1200" r="10" class="c0"/>
<circle cx="260" cy="1334" r="10" class="c0"/>
<circle cx="326" cy="836" r="10" class="c0"/>
<circle cx="896" cy="1068" r="10" class="c0"/>
<circle cx="402" cy="980" r="10" class="c0"/>
<circle cx="1618" cy="1362" r="10" class="c0"/>
<circle cx="50" cy="1228" r="10" class="c0"/>
<circle cx="452" cy="1322" r="10" class="c0"/>
<circle cx="1850" cy="1074" r="10" class="c0"/>
<circle cx="856" cy="1208" r="10" class="c0"/>
<circle cx="944" cy="958" r="10" class="c0"/>
<circle cx="954" cy="1330" r="10" class="c0"/>
<circle cx="892" cy="1008" r="10" class="c0"/>
<circle cx="426" cy="1268" r="10" class="c0"/>
<circle cx="978" cy="920" r="10" class="c0"/>
<circle cx="888" cy="1038" r="10" class="c0"/>
<circle cx="802" cy="904" r="10" class="c0"/>
<circle cx="958" cy="846" r="10" class="c0"/>
<circle cx="352" cy="1370" r="10" class="c0"/>
<circle cx="382" cy="1334" r="10" class="c0"/>
<circle cx="1626" cy="1002" r="10" class="c0"/>
<circle cx="1706" cy="1032" r="10" class="c0"/>
<circle cx="1652" cy="1026" r="10" class="c0"/>
<circle cx="200" cy="1264" r="10" class="c0"/>
<circle cx="1862" cy="1100" r="10" class="c0"/>
<circle cx="1598" cy="1190" r="10" class="c0"/>
<circle cx="216" cy="1278" r="10" class="c0"/>
<circle cx="1730" cy="1388" r="8" class="c0"/>
<circle cx="1048" cy="1410" r="8" class="c0"/>
<circle cx="868" cy="1128" r="8" class="c0"/>
<circle cx="374" cy="1104" r="8" class="c0"/>
<circle cx="382" cy="1380" r="8" class="c0"/>
<circle cx="370" cy="1022" r="8" class="c0"/>
<circle cx="326" cy="1020" r="8" class="c0"/>
<circle cx="1632" cy="860" r="8" class="c0"/>
<circle cx="350" cy="960" r="8" class="c0"/>
<circle cx="892" cy="884" r="8" class="c0"/>
<circle cx="1572" cy="1424" r="8" class="c0"/>
<circle cx="924" cy="1200" r="8" class="c0"/>
<circle cx="462" cy="1288" r="8" class="c0"/>
<circle cx="1522" cy="1334" r="8" class="c0"/>
<circle cx="408" cy="950" r="8" class="c0"/>
<circle cx="476" cy="1340" r="8" class="c0"/>
<circle cx="84" cy="1184" r="8" class="c0"/>
<circle cx="1612" cy="892" r="8" class="c0"/>
<circle cx="890" cy="960" r="8" class="c0"/>
<circle cx="940" cy="1050" r="8" class="c0"/>
<circle cx="1704" cy="1090" r="8" class="c0"/>
<circle cx="916" cy="1300" r="8" class="c0"/>
<circle cx="902" cy="1192" r="8" class="c0"/>
<circle cx="1006" cy="794" r="8" class="c0"/>
<circle cx="970" cy="1270" r="8" class="c0"/>
<circle cx="950" cy="1188" r="8" class="c0"/>
<circle cx="1668" cy="1420" r="8" class="c0"/>
<circle cx="998" cy="764" r="8" class="c0"/>
<circle cx="34" cy="1198" r="8" class="c0"/>
<circle cx="1696" cy="840" r="8" class="c0"/>
<circle cx="1498" cy="1410" r="8" class="c0"/>
<circle cx="914" cy="1094" r="8" class="c0"/>
<circle cx="56" cy="1112" r="8" class="c0"/>
<circle cx="1628" cy="1208" r="8" class="c0"/>
<circle cx="1628" cy="1244" r="8" class="c0"/>
<circle cx="420" cy="906" r="8" class="c0"/>
<circle cx="1556" cy="1286" r="8" class="c0"/>
<circle cx="338" cy="1412" r="8" class="c0"/>
<circle cx="330" cy="1294" r="8" class="c0"/>
<circle cx="1822" cy="1106" r="8" class="c0"/>
<circle cx="1808" cy="1054" r="8" class="c0"/>
<circle cx="1634" cy="1170" r="8" class="c0"/>
<circle cx="1648" cy="1134" r="8" class="c0"/>
<circle cx="446" cy="1260" r="8" class="c0"/>
<circle cx="854" cy="1278" r="8" class="c0"/>
<circle cx="948" cy="1260" r="8" class="c0"/>
<circle cx="1022" cy="808" r="8" class="c0"/>
<circle cx="440" cy="846" r="8" class="c0"/>
<circle cx="1692" cy="1278" r="8" class="c0"/>
<circle cx="1612" cy="1284" r="8" class="c0"/>
<circle cx="1612" cy="1216" r="8" class="c0"/>
<circle cx="1062" cy="1316" r="8" class="c0"/>
<circle cx="882" cy="1312" r="8" class="c0"/>
<circle cx="338" cy="970" r="8" class="c0"/>
<circle cx="994" cy="1164" r="8" class="c0"/>
<circle cx="1690" cy="1308" r="8" class="c0"/>
<circle cx="166" cy="1234" r="8" class="c0"/>
<circle cx="1654" cy="1320" r="8" class="c0"/>
<circle cx="1620" cy="1186" r="8" class="c0"/>
<circle cx="120" cy="1192" r="8" class="c0"/>
<circle cx="912" cy="818" r="8" class="c0"/>
<circle cx="996" cy="1312" r="8" class="c0"/>
<circle cx="340" cy="1204" r="8" class="c0"/>
<circle cx="102" cy="1138" r="8" class="c0"/>
<circle cx="10" cy="1174" r="8" class="c0"/>
<circle cx="1616" cy="956" r="8" class="c0"/>
<circle cx="148" cy="1166" r="8" class="c0"/>
<circle cx="1576" cy="1142" r="8" class="c0"/>
<circle cx="290" cy="1236" r="8" class="c0"/>
<circle cx="180" cy="1218" r="8" class="c0"/>
<circle cx="416" cy="1112" r="8" class="c0"/>
<circle cx="1666" cy="822" r="8" class="c0"/>
<circle cx="970" cy="938" r="8" class="c0"/>
<circle cx="356" cy="1196" r="8" class="c0"/>
<circle cx="168" cy="1204" r="8" class="c0"/>
<circle cx="272" cy="1192" r="8" class="c0"/>
<circle cx="252" cy="1198" r="8" class="c0"/>
<circle cx="376" cy="1260" r="8" class="c0"/>
<circle cx="1634" cy="1060" r="8" class="c0"/>
<circle cx="888" cy="1108" r="8" class="c0"/>
<circle cx="398" cy="1098" r="8" class="c0"/>
<circle cx="952" cy="1350" r="8" class="c0"/>
<circle cx="1498" cy="1376" r="8" class="c0"/>
<circle cx="1650" cy="1410" r="8" class="c0"/>
<circle cx="1588" cy="1334" r="8" class="c0"/>
<circle cx="1606" cy="932" r="8" class="c0"/>
<circle cx="792" cy="784" r="8" class="c0"/>
<circle cx="908" cy="1344" r="8" class="c0"/>
<circle cx="382" cy="838" r="8" class="c0"/>
<circle cx="310" cy="1060" r="8" class="c0"/>
<circle cx="928" cy="872" r="8" class="c0"/>
<circle cx="1518" cy="1402" r="8" class="c0"/>
<circle cx="242" cy="1318" r="8" class="c0"/>
<circle cx="1786" cy="1044" r="8" class="c0"/>
<circle cx="376" cy="1304" r="8" class="c0"/>
<circle cx="294" cy="1088" r="8" class="c0"/>
<circle cx="128" cy="1218" r="8" class="c0"/>
<circle cx="878" cy="1288" r="8" class="c0"/>
<circle cx="346" cy="1092" r="8" class="c0"/>
<circle cx="996" cy="1228" r="8" class="c0"/>
<circle cx="14" cy="1208" r="8" class="c0"/>
<circle cx="332" cy="1392" r="8" class="c0"/>
<circle cx="1908" cy="1096" r="8" class="c0"/>
<circle cx="1030" cy="1396" r="8" class="c0"/>
<circle cx="72" cy="1170" r="8" class="c0"/>
<circle cx="1582" cy="1084" r="8" class="c0"/>
<circle cx="766" cy="828" r="8" class="c0"/>
<circle cx="1606" cy="1162" r="8" class="c0"/>
<circle cx="206" cy="1186" r="8" class="c0"/>
<circle cx="1672" cy="1078" r="8" class="c0"/>
<circle cx="968" cy="974" r="8" class="c0"/>
<circle cx="410" cy="870" r="8" class="c0"/>
<circle cx="1700" cy="1324" r="8" class="c0"/>
<circle cx="232" cy="1162" r="8" class="c0"/>
<circle cx="190" cy="1172" r="8" class="c0"/>
<circle cx="386" cy="770" r="8" class="c0"/>
<circle cx="1044" cy="1248" r="8" class="c0"/>
<circle cx="1008" cy="964" r="8" class="c0"/>
<circle cx="1620" cy="1336" r="8" class="c0"/>
<circle cx="942" cy="984" r="8" class="c0"/>
<circle cx="1532" cy="1284" r="8" class="c0"/>
<circle cx="394" cy="888" r="8" class="c0"/>
<circle cx="340" cy="824" r="8" class="c0"/>
<circle cx="940" cy="1074" r="8" class="c0"/>
<circle cx="310" cy="1202" r="8" class="c0"/>
<circle cx="396" cy="826" r="8" class="c0"/>
<circle cx="1630" cy="1280" r="8" class="c0"/>
<circle cx="84" cy="1150" r="8" class="c0"/>
<circle cx="1838" cy="1090" r="8" class="c0"/>
<circle cx="882" cy="1090" r="8" class="c0"/>
<circle cx="998" cy="720" r="8" class="c0"/>
<circle cx="1678" cy="1292" r="8" class="c0"/>
<circle cx="1552" cy="872" r="8" class="c0"/>
<circle cx="98" cy="1198" r="8" class="c0"/>
<circle cx="1602" cy="1376" r="8" class="c0"/>
<circle cx="958" cy="1010" r="8" class="c0"/>
<circle cx="278" cy="1360" r="8" class="c0"/>
<circle cx="814" cy="836" r="8" class="c0"/>
<circle cx="1006" cy="912" r="8" class="c0"/>
<circle cx="324" cy="810" r="8" class="c0"/>
<circle cx="1572" cy="1120" r="8" class="c0"/>
<circle cx="902" cy="864" r="8" class="c0"/>
<circle cx="358" cy="1426" r="8" class="c0"/>
<circle cx="930" cy="806" r="8" class="c0"/>
<circle cx="992" cy="894" r="8" class="c0"/>
<circle cx="1690" cy="870" r="8" class="c0"/>
<circle cx="1598" cy="1320" r="8" class="c0"/>
<circle cx="1592" cy="1360" r="8" class="c0"/>
<circle cx="1016" cy="1244" r="8" class="c0"/>
<circle cx="328" cy="1072" r="8" class="c0"/>
<circle cx="1722" cy="1430" r="8" class="c0"/>
<circle cx="852" cy="810" r="8" class="c0"/>
<circle cx="792" cy="826" r="8" class="c0"/>
<circle cx="1622" cy="904" r="8" class="c0"/>
<circle cx="326" cy="870" r="8" class="c0"/>
<circle cx="1598" cy="912" r="8" class="c0"/>
<circle cx="1638" cy="966" r="8" class="c0"/>
<circle cx="868" cy="1192" r="8" class="c0"/>
<circle cx="456" cy="892" r="8" class="c0"/>
<circle cx="1904" cy="1078" r="8" class="c0"/>
<circle cx="180" cy="1158" r="8" class="c0"/>
<circle cx="444" cy="940" r="8" class="c0"/>
<circle cx="846" cy="1254" r="8" class="c0"/>
<circle cx="366" cy="1146" r="8" class="c0"/>
<circle cx="384" cy="1010" r="8" class="c0"/>
<circle cx="952" cy="806" r="8" class="c0"/>
<circle cx="414" cy="1090" r="8" class="c0"/>
<circle cx="58" cy="1182" r="8" class="c0"/>
<circle cx="954" cy="774" r="8" class="c0"/>
<circle cx="416" cy="1176" r="8" class="c0"/>
<circle cx="374" cy="1286" r="8" class="c0"/>
<circle cx="988" cy="1282" r="8" class="c0"/>
<circle cx="1616" cy="844" r="8" class="c0"/>
<circle cx="1598" cy="1236" r="8" class="c0"/>
<circle cx="330" cy="1372" r="8" class="c0"/>
<circle cx="342" cy="1178" r="8" class="c0"/>
<circle cx="986" cy="1328" r="8" class="c0"/>
<circle cx="1822" cy="1066" r="8" class="c0"/>
<circle cx="1694" cy="1144" r="8" class="c0"/>
<circle cx="302" cy="1224" r="8" class="c0"/>
<circle cx="988" cy="966" r="8" class="c0"/>
<circle cx="326" cy="1102" r="8" class="c0"/>
<circle cx="376" cy="1210" r="8" class="c0"/>
<circle cx="394" cy="1276" r="8" class="c0"/>
<circle cx="896" cy="1328" r="8" class="c0"/>
<circle cx="1652" cy="904" r="8" class="c0"/>
<circle cx="334" cy="1342" r="8" class="c0"/>
<circle cx="1564" cy="1314" r="8" class="c0"/>
<circle cx="1672" cy="1172" r="8" class="c0"/>
<circle cx="868" cy="878" r="8" class="c0"/>
<circle cx="1612" cy="862" r="8" class="c0"/>
<circle cx="354" cy="838" r="8" class="c0"/>
<circle cx="1544" cy="1414" r="8" class="c0"/>
<circle cx="798" cy="806" r="8" class="c0"/>
<circle cx="832" cy="938" r="8" class="c0"/>
<circle cx="392" cy="1424" r="8" class="c0"/>
<circle cx="394" cy="1398" r="8" class="c0"/>
<circle cx="852" cy="932" r="8" class="c0"/>
<circle cx="346" cy="1068" r="8" class="c0"/>
<circle cx="972" cy="1338" r="8" class="c0"/>
<circle cx="1626" cy="978" r="8" class="c0"/>
<circle cx="1022" cy="1366" r="8" class="c0"/>
<circle cx="1738" cy="1052" r="8" class="c0"/>
<circle cx="1688" cy="1044" r="8" class="c0"/>
<circle cx="350" cy="880" r="8" class="c0"/>
<circle cx="1826" cy="1038" r="8" class="c0"/>
<circle cx="1584" cy="896" r="8" class="c0"/>
<circle cx="376" cy="884" r="8" class="c0"/>
<circle cx="1648" cy="1262" r="8" class="c0"/>
<circle cx="942" cy="822" r="8" class="c0"/>
<circle cx="878" cy="1118" r="8" class="c0"/>
<circle cx="440" cy="1366" r="8" class="c0"/>
<circle cx="1598" cy="1124" r="8" class="c0"/>
<circle cx="1008" cy="776" r="8" class="c0"/>
<circle cx="1760" cy="1012" r="8" class="c0"/>
<circle cx="1646" cy="814" r="8" class="c0"/>
<circle cx="316" cy="1040" r="8" class="c0"/>
<circle cx="350" cy="922" r="8" class="c0"/>
<circle cx="1736" cy="1366" r="8" class="c0"/>
<circle cx="910" cy="1388" r="8" class="c0"/>
<circle cx="1032" cy="1222" r="8" class="c0"/>
<circle cx="456" cy="1270" r="8" class="c0"/>
<circle cx="146" cy="1226" r="8" class="c0"/>
<circle cx="108" cy="1262" r="8" class="c0"/>
<circle cx="1596" cy="1424" r="8" class="c0"/>
<circle cx="338" cy="856" r="8" class="c0"/>
<circle cx="942" cy="1236" r="8" class="c0"/>
<circle cx="1038" cy="1310" r="8" class="c0"/>
<circle cx="1684" cy="1378" r="8" class="c0"/>
<circle cx="942" cy="892" r="8" class="c0"/>
<circle cx="1658" cy="1278" r="8" class="c0"/>
<circle cx="1844" cy="1054" r="8" class="c0"/>
<circle cx="808" cy="936" r="8" class="c0"/>
<circle cx="362" cy="998" r="8" class="c0"/>
<circle cx="1574" cy="1058" r="8" class="c0"/>
<circle cx="1564" cy="1158" r="8" class="c0"/>
<circle cx="1062" cy="1260" r="8" class="c0"/>
<circle cx="898" cy="1378" r="8" class="c0"/>
<circle cx="980" cy="948" r="8" class="c0"/>
<circle cx="1786" cy="1068" r="8" class="c0"/>
<circle cx="768" cy="782" r="8" class="c0"/>
<circle cx="1678" cy="832" r="8" class="c0"/>
<circle cx="1666" cy="1054" r="8" class="c0"/>
<circle cx="460" cy="1236" r="8" class="c0"/>
<circle cx="344" cy="1238" r="8" class="c0"/>
<circle cx="78" cy="1242" r="8" class="c0"/>
<circle cx="366" cy="970" r="8" class="c0"/>
<circle cx="1616" cy="922" r="8" class="c0"/>
<circle cx="1816" cy="922" r="8" class="c0"/>
<circle cx="1568" cy="1350" r="8" class="c0"/>
<circle cx="1610" cy="1302" r="8" class="c0"/>
<circle cx="910" cy="1052" r="8" class="c0"/>
<circle cx="1642" cy="944" r="8" class="c0"/>
<circle cx="912" cy="944" r="8" class="c0"/>
<circle cx="1748" cy="1400" r="8" class="c0"/>
<circle cx="930" cy="1040" r="8" class="c0"/>
<circle cx="1646" cy="1180" r="8" class="c0"/>
<circle cx="1038" cy="1346" r="8" class="c0"/>
<circle cx="430" cy="1316" r="8" class="c0"/>
<circle cx="1668" cy="1268" r="8" class="c0"/>
<circle cx="1482" cy="1422" r="8" class="c0"/>
<circle cx="20" cy="1184" r="8" class="c0"/>
<circle cx="948" cy="1138" r="8" class="c0"/>
<circle cx="1614" cy="1014" r="8" class="c0"/>
<circle cx="108" cy="1226" r="8" class="c0"/>
<circle cx="1574" cy="860" r="8" class="c0"/>
<circle cx="1010" cy="830" r="8" class="c0"/>
<circle cx="978" cy="810" r="8" class="c0"/>
<circle cx="862" cy="1328" r="8" class="c0"/>
<circle cx="870" cy="1174" r="8" class="c0"/>
<circle cx="352" cy="902" r="8" class="c0"/>
<circle cx="1702" cy="1116" r="8" class="c0"/>
<circle cx="398" cy="1190" r="8" class="c0"/>
<circle cx="430" cy="1034" r="8" class="c0"/>
<circle cx="1036" cy="798" r="8" class="c0"/>
<circle cx="428" cy="1054" r="8" class="c0"/>
<circle cx="902" cy="926" r="8" class="c0"/>
<circle cx="374" cy="1044" r="8" class="c0"/>
<circle cx="458" cy="1216" r="8" class="c0"/>
<circle cx="904" cy="996" r="8" class="c0"/>
<circle cx="130" cy="1170" r="8" class="c0"/>
<circle cx="496" cy="1348" r="8" class="c0"/>
<circle cx="1700" cy="1294" r="8" class="c0"/>
<circle cx="402" cy="854" r="8" class="c0"/>
<circle cx="1668" cy="932" r="8" class="c0"/>
<circle cx="1676" cy="1220" r="8" class="c0"/>
<circle cx="1678" cy="888" r="8" class="c0"/>
<circle cx="900" cy="1360" r="8" class="c0"/>
<circle cx="878" cy="1054" r="8" class="c0"/>
<circle cx="464" cy="1360" r="8" class="c0"/>
<circle cx="270" cy="1242" r="8" class="c0"/>
<circle cx="296" cy="1108" r="8" class="c0"/>
<circle cx="796" cy="926" r="8" class="c0"/>
<circle cx="218" cy="1318" r="8" class="c0"/>
<circle cx="1530" cy="1350" r="8" class="c0"/>
<circle cx="1758" cy="1390" r="8" class="c0"/>
<circle cx="448" cy="812" r="8" class="c0"/>
<circle cx="398" cy="1296" r="8" class="c0"/>
<circle cx="420" cy="1072" r="8" class="c0"/>
<circle cx="338" cy="1052" r="8" class="c0"/>
<circle cx="1604" cy="820" r="8" class="c0"/>
<circle cx="936" cy="1296" r="8" class="c0"/>
<circle cx="1708" cy="1388" r="8" class="c0"/>
<circle cx="288" cy="1256" r="8" class="c0"/>
<circle cx="368" cy="1322" r="8" class="c0"/>
<circle cx="1678" cy="966" r="8" class="c0"/>
<circle cx="1776" cy="1082" r="8" class="c0"/>
<circle cx="288" cy="1342" r="8" class="c0"/>
<circle cx="828" cy="900" r="8" class="c0"/>
<circle cx="326" cy="1194" r="8" class="c0"/>
<circle cx="758" cy="798" r="8" class="c0"/>
<circle cx="1712" cy="992" r="8" class="c0"/>
<circle cx="900" cy="1286" r="8" class="c0"/>
<circle cx="1680" cy="860" r="8" class="c0"/>
<circle cx="970" cy="902" r="8" class="c0"/>
<circle cx="112" cy="1208" r="8" class="c0"/>
<circle cx="224" cy="1216" r="8" class="c0"/>
<circle cx="10" cy="1134" r="8" class="c0"/>
<circle cx="320" cy="1266" r="8" class="c0"/>
<circle cx="1726" cy="1040" r="8" class="c0"/>
<circle cx="1026" cy="1260" r="8" class="c0"/>
<circle cx="314" cy="1084" r="8" class="c0"/>
<circle cx="1584" cy="1224" r="8" class="c0"/>
<circle cx="428" cy="822" r="8" class="c0"/>
<circle cx="944" cy="1094" r="8" class="c0"/>
<circle cx="984" cy="984" r="8" class="c0"/>
<circle cx="938" cy="1216" r="8" class="c0"/>
<circle cx="1654" cy="1068" r="8" class="c0"/>
<circle cx="1668" cy="1126" r="8" class="c0"/>
<circle cx="96" cy="1216" r="8" class="c0"/>
<circle cx="1484" cy="1390" r="8" class="c0"/>
<circle cx="182" cy="1192" r="8" class="c0"/>
<circle cx="930" cy="1180" r="8" class="c0"/>
<circle cx="950" cy="938" r="8" class="c0"/>
<circle cx="1680" cy="1318" r="8" class="c0"/>
<circle cx="1014" cy="1292" r="8" class="c0"/>
<circle cx="1888" cy="1054" r="8" class="c0"/>
<circle cx="444" cy="1184" r="8" class="c0"/>
<circle cx="920" cy="1354" r="8" class="c0"/>
<circle cx="1660" cy="858" r="8" class="c0"/>
<circle cx="1522" cy="1382" r="8" class="c0"/>
<circle cx="362" cy="780" r="8" class="c0"/>
<circle cx="442" cy="1290" r="8" class="c0"/>
<circle cx="1656" cy="1160" r="8" class="c0"/>
<circle cx="1632" cy="1120" r="8" class="c0"/>
<circle cx="858" cy="866" r="8" class="c0"/>
<circle cx="1008" cy="1186" r="8" class="c0"/>
<circle cx="916" cy="1146" r="8" class="c0"/>
<circle cx="1602" cy="1348" r="8" class="c0"/>
<circle cx="66" cy="1152" r="8" class="c0"/>
<circle cx="1614" cy="1114" r="8" class="c0"/>
<circle cx="34" cy="1218" r="8" class="c0"/>
<circle cx="1758" cy="1410" r="8" class="c0"/>
<circle cx="1710" cy="1312" r="8" class="c0"/>
<circle cx="982" cy="1182" r="8" class="c0"/>
<circle cx="1680" cy="910" r="8" class="c0"/>
<circle cx="862" cy="824" r="8" class="c0"/>
<circle cx="418" cy="1250" r="8" class="c0"/>
<circle cx="910" cy="796" r="8" class="c0"/>
<circle cx="412" cy="1202" r="8" class="c0"/>
<circle cx="1076" cy="1270" r="8" class="c0"/>
<circle cx="932" cy="1344" r="8" class="c0"/>
<circle cx="324" cy="888" r="8" class="c0"/>
<circle cx="1854" cy="1044" r="8" class="c0"/>
<circle cx="1768" cy="1036" r="8" class="c0"/>
<circle cx="1648" cy="1430" r="8" class="c0"/>
<circle cx="1808" cy="1034" r="8" class="c0"/>
<circle cx="980" cy="1238" r="8" class="c0"/>
<circle cx="1774" cy="984" r="8" class="c0"/>
<circle cx="490" cy="1286" r="8" class="c0"/>
<circle cx="1792" cy="1026" r="8" class="c0"/>
<circle cx="1026" cy="936" r="8" class="c0"/>
<circle cx="496" cy="1326" r="8" class="c0"/>
<circle cx="996" cy="1144" r="8" class="c0"/>
<circle cx="852" cy="838" r="8" class="c0"/>
<circle cx="1616" cy="1430" r="8" class="c0"/>
<circle cx="366" cy="950" r="8" class="c0"/>
<circle cx="940" cy="1024" r="8" class="c0"/>
<circle cx="318" cy="1310" r="8" class="c0"/>
<circle cx="970" cy="998" r="8" class="c0"/>
<circle cx="1540" cy="1368" r="8" class="c0"/>
<circle cx="1668" cy="1370" r="8" class="c0"/>
<circle cx="384" cy="990" r="8" class="c0"/>
<circle cx="206" cy="1308" r="8" class="c0"/>
<circle cx="1624" cy="882" r="8" class="c0"/>
<circle cx="1582" cy="1414" r="8" class="c0"/>
<circle cx="1636" cy="892" r="8" class="c0"/>
<circle cx="1710" cy="1336" r="8" class="c0"/>
<circle cx="396" cy="1210" r="8" class="c0"/>
<circle cx="430" cy="860" r="8" class="c0"/>
<circle cx="1740" cy="1418" r="8" class="c0"/>
<circle cx="350" cy="1214" r="8" class="c0"/>
<circle cx="1088" cy="1306" r="8" class="c0"/>
<circle cx="1640" cy="1198" r="8" class="c0"/>
<circle cx="54" cy="1140" r="8" class="c0"/>
<circle cx="228" cy="1134" r="8" class="c0"/>
<circle cx="838" cy="796" r="8" class="c0"/>
<circle cx="1642" cy="1294" r="8" class="c0"/>
<circle cx="384" cy="1086" r="8" class="c0"/>
<circle cx="930" cy="1060" r="8" class="c0"/>
<circle cx="348" cy="984" r="8" class="c0"/>
<circle cx="350" cy="1400" r="8" class="c0"/>
<circle cx="1630" cy="934" r="8" class="c0"/>
<circle cx="966" cy="1080" r="8" class="c0"/>
<circle cx="218" cy="1174" r="8" class="c0"/>
<circle cx="962" cy="818" r="8" class="c0"/>
<circle cx="404" cy="760" r="8" class="c0"/>
<circle cx="448" cy="874" r="8" class="c0"/>
<circle cx="1554" cy="1168" r="8" class="c0"/>
<circle cx="316" cy="858" r="8" class="c0"/>
<circle cx="1582" cy="994" r="8" class="c0"/>
<circle cx="1524" cy="1302" r="8" class="c0"/>
<circle cx="132" cy="1264" r="8" class="c0"/>
<circle cx="366" cy="828" r="8" class="c0"/>
<circle cx="1842" cy="878" r="8" class="c0"/>
<circle cx="366" cy="762" r="6" class="c0"/>
<circle cx="942" cy="788" r="6" class="c0"/>
<circle cx="996" cy="878" r="6" class="c0"/>
<circle cx="1788" cy="962" r="6" class="c0"/>
<circle cx="270" cy="1138" r="6" class="c0"/>
<circle cx="1670" cy="846" r="6" class="c0"/>
<circle cx="294" cy="1192" r="6" class="c0"/>
<circle cx="1698" cy="1398" r="6" class="c0"/>
<circle cx="376" cy="1428" r="6" class="c0"/>
<circle cx="434" cy="1164" r="6" class="c0"/>
<circle cx="1500" cy="1428" r="6" class="c0"/>
<circle cx="926" cy="952" r="6" class="c0"/>
<circle cx="1576" cy="1102" r="6" class="c0"/>
<circle cx="1586" cy="1152" r="6" class="c0"/>
<circle cx="970" cy="1192" r="6" class="c0"/>
<circle cx="256" cy="1280" r="6" class="c0"/>
<circle cx="780" cy="836" r="6" class="c0"/>
<circle cx="1666" cy="1250" r="6" class="c0"/>
<circle cx="1606" cy="1000" r="6" class="c0"/>
<circle cx="898" cy="1306" r="6" class="c0"/>
<circle cx="1050" cy="1426" r="6" class="c0"/>
<circle cx="430" cy="922" r="6" class="c0"/>
<circle cx="358" cy="1058" r="6" class="c0"/>
<circle cx="782" cy="768" r="6" class="c0"/>
<circle cx="1570" cy="1074" r="6" class="c0"/>
<circle cx="402" cy="1140" r="6" class="c0"/>
<circle cx="1648" cy="1044" r="6" class="c0"/>
<circle cx="1658" cy="1008" r="6" class="c0"/>
<circle cx="1540" cy="1432" r="6" class="c0"/>
<circle cx="1564" cy="1186" r="6" class="c0"/>
<circle cx="1596" cy="1210" r="6" class="c0"/>
<circle cx="376" cy="1358" r="6" class="c0"/>
<circle cx="350" cy="1294" r="6" class="c0"/>
<circle cx="392" cy="1026" r="6" class="c0"/>
<circle cx="1636" cy="804" r="6" class="c0"/>
<circle cx="920" cy="746" r="6" class="c0"/>
<circle cx="1640" cy="992" r="6" class="c0"/>
<circle cx="1634" cy="1370" r="6" class="c0"/>
<circle cx="416" cy="1306" r="6" class="c0"/>
<circle cx="1696" cy="1008" r="6" class="c0"/>
<circle cx="384" cy="1238" r="6" class="c0"/>
<circle cx="1632" cy="914" r="6" class="c0"/>
<circle cx="1014" cy="1272" r="6" class="c0"/>
<circle cx="932" cy="914" r="6" class="c0"/>
<circle cx="804" cy="882" r="6" class="c0"/>
<circle cx="1644" cy="1330" r="6" class="c0"/>
<circle cx="260" cy="1314" r="6" class="c0"/>
<circle cx="424" cy="982" r="6" class="c0"/>
<circle cx="294" cy="1368" r="6" class="c0"/>
<circle cx="1574" cy="906" r="6" class="c0"/>
<circle cx="1682" cy="1066" r="6" class="c0"/>
<circle cx="364" cy="1382" r="6" class="c0"/>
<circle cx="1630" cy="1226" r="6" class="c0"/>
<circle cx="1064" cy="1424" r="6" class="c0"/>
<circle cx="1760" cy="1076" r="6" class="c0"/>
<circle cx="1028" cy="1332" r="6" class="c0"/>
<circle cx="1644" cy="1010" r="6" class="c0"/>
<circle cx="882" cy="1164" r="6" class="c0"/>
<circle cx="1668" cy="898" r="6" class="c0"/>
<circle cx="342" cy="1022" r="6" class="c0"/>
<circle cx="1034" cy="1238" r="6" class="c0"/>
<circle cx="450" cy="858" r="6" class="c0"/>
<circle cx="960" cy="1124" r="6" class="c0"/>
<circle cx="380" cy="1134" r="6" class="c0"/>
<circle cx="148" cy="1278" r="6" class="c0"/>
<circle cx="368" cy="798" r="6" class="c0"/>
<circle cx="1584" cy="1312" r="6" class="c0"/>
<circle cx="412" cy="888" r="6" class="c0"/>
<circle cx="312" cy="1294" r="6" class="c0"/>
<circle cx="904" cy="1208" r="6" class="c0"/>
<circle cx="1642" cy="1216" r="6" class="c0"/>
<circle cx="1674" cy="1094" r="6" class="c0"/>
<circle cx="400" cy="1000" r="6" class="c0"/>
<circle cx="1724" cy="1348" r="6" class="c0"/>
<circle cx="1618" cy="1054" r="6" class="c0"/>
<circle cx="1598" cy="1144" r="6" class="c0"/>
<circle cx="1846" cy="1112" r="6" class="c0"/>
<circle cx="318" cy="1282" r="6" class="c0"/>
<circle cx="330" cy="1432" r="6" class="c0"/>
<circle cx="280" cy="1102" r="6" class="c0"/>
<circle cx="896" cy="904" r="6" class="c0"/>
<circle cx="912" cy="1424" r="6" class="c0"/>
<circle cx="976" cy="1092" r="6" class="c0"/>
<circle cx="1014" cy="1224" r="6" class="c0"/>
<circle cx="1638" cy="1154" r="6" class="c0"/>
<circle cx="1518" cy="1318" r="6" class="c0"/>
<circle cx="416" cy="1394" r="6" class="c0"/>
<circle cx="1632" cy="1260" r="6" class="c0"/>
<circle cx="1024" cy="918" r="6" class="c0"/>
<circle cx="1596" cy="1278" r="6" class="c0"/>
<circle cx="756" cy="818" r="6" class="c0"/>
<circle cx="914" cy="760" r="6" class="c0"/>
<circle cx="924" cy="888" r="6" class="c0"/>
<circle cx="1058" cy="1394" r="6" class="c0"/>
<circle cx="166" cy="1150" r="6" class="c0"/>
<circle cx="812" cy="816" r="6" class="c0"/>
<circle cx="820" cy="948" r="6" class="c0"/>
<circle cx="326" cy="1176" r="6" class="c0"/>
<circle cx="1012" cy="852" r="6" class="c0"/>
<circle cx="840" cy="828" r="6" class="c0"/>
<circle cx="1812" cy="1092" r="6" class="c0"/>
<circle cx="1574" cy="1326" r="6" class="c0"/>
<circle cx="966" cy="1316" r="6" class="c0"/>
<circle cx="1700" cy="1346" r="6" class="c0"/>
<circle cx="450" cy="1200" r="6" class="c0"/>
<circle cx="1016" cy="950" r="6" class="c0"/>
<circle cx="1054" cy="1330" r="6" class="c0"/>
<circle cx="862" cy="948" r="6" class="c0"/>
<circle cx="986" cy="1108" r="6" class="c0"/>
<circle cx="426" cy="1356" r="6" class="c0"/>
<circle cx="952" cy="1226" r="6" class="c0"/>
<circle cx="1714" cy="1078" r="6" class="c0"/>
<circle cx="356" cy="1014" r="6" class="c0"/>
<circle cx="256" cy="1250" r="6" class="c0"/>
<circle cx="398" cy="1170" r="6" class="c0"/>
<circle cx="902" cy="1270" r="6" class="c0"/>
<circle cx="430" cy="806" r="6" class="c0"/>
<circle cx="1728" cy="1068" r="6" class="c0"/>
<circle cx="328" cy="1250" r="6" class="c0"/>
<circle cx="412" cy="1056" r="6" class="c0"/>
<circle cx="384" cy="1034" r="6" class="c0"/>
<circle cx="996" cy="952" r="6" class="c0"/>
<circle cx="1728" cy="990" r="6" class="c0"/>
<circle cx="160" cy="1190" r="6" class="c0"/>
<circle cx="1620" cy="1266" r="6" class="c0"/>
<circle cx="1004" cy="870" r="6" class="c0"/>
<circle cx="1756" cy="1046" r="6" class="c0"/>
<circle cx="1618" cy="1234" r="6" class="c0"/>
<circle cx="428" cy="1298" r="6" class="c0"/>
<circle cx="966" cy="1050" r="6" class="c0"/>
<circle cx="1648" cy="978" r="6" class="c0"/>
<circle cx="1078" cy="1318" r="6" class="c0"/>
<circle cx="992" cy="782" r="6" class="c0"/>
<circle cx="982" cy="1152" r="6" class="c0"/>
<circle cx="978" cy="770" r="6" class="c0"/>
<circle cx="952" cy="1206" r="6" class="c0"/>
<circle cx="228" cy="1308" r="6" class="c0"/>
<circle cx="96" cy="1236" r="6" class="c0"/>
<circle cx="272" cy="1322" r="6" class="c0"/>
<circle cx="414" cy="1130" r="6" class="c0"/>
<circle cx="1602" cy="1032" r="6" class="c0"/>
<circle cx="1664" cy="1186" r="6" class="c0"/>
<circle cx="40" cy="1132" r="6" class="c0"/>
<circle cx="1550" cy="1212" r="6" class="c0"/>
<circle cx="1554" cy="1380" r="6" class="c0"/>
<circle cx="288" cy="1180" r="6" class="c0"/>
<circle cx="396" cy="940" r="6" class="c0"/>
<circle cx="888" cy="1232" r="6" class="c0"/>
<circle cx="304" cy="1302" r="6" class="c0"/>
<circle cx="386" cy="1224" r="6" class="c0"/>
<circle cx="912" cy="1408" r="6" class="c0"/>
<circle cx="946" cy="862" r="6" class="c0"/>
<circle cx="936" cy="1274" r="6" class="c0"/>
<circle cx="240" cy="1208" r="6" class="c0"/>
<circle cx="248" cy="1124" r="6" class="c0"/>
<circle cx="154" cy="1212" r="6" class="c0"/>
<circle cx="1022" cy="790" r="6" class="c0"/>
<circle cx="906" cy="964" r="6" class="c0"/>
<circle cx="382" cy="726" r="6" class="c0"/>
<circle cx="458" cy="1344" r="6" class="c0"/>
<circle cx="914" cy="854" r="6" class="c0"/>
<circle cx="874" cy="1020" r="6" class="c0"/>
<circle cx="52" cy="1202" r="6" class="c0"/>
<circle cx="306" cy="1258" r="6" class="c0"/>
<circle cx="306" cy="1098" r="6" class="c0"/>
<circle cx="1690" cy="1232" r="6" class="c0"/>
<circle cx="1832" cy="896" r="6" class="c0"/>
<circle cx="106" cy="1182" r="6" class="c0"/>
<circle cx="886" cy="866" r="6" class="c0"/>
<circle cx="1588" cy="1112" r="6" class="c0"/>
<circle cx="922" cy="1108" r="6" class="c0"/>
<circle cx="1584" cy="1394" r="6" class="c0"/>
<circle cx="416" cy="990" r="6" class="c0"/>
<circle cx="854" cy="1184" r="6" class="c0"/>
<circle cx="1910" cy="1058" r="6" class="c0"/>
<circle cx="1894" cy="1106" r="6" class="c0"/>
<circle cx="442" cy="830" r="6" class="c0"/>
<circle cx="306" cy="1374" r="6" class="c0"/>
<circle cx="272" cy="1290" r="6" class="c0"/>
<circle cx="418" cy="970" r="6" class="c0"/>
<circle cx="242" cy="1242" r="6" class="c0"/>
<circle cx="1564" cy="1048" r="6" class="c0"/>
<circle cx="1690" cy="1128" r="6" class="c0"/>
<circle cx="1662" cy="914" r="6" class="c0"/>
<circle cx="260" cy="1180" r="6" class="c0"/>
<circle cx="340" cy="950" r="6" class="c0"/>
<circle cx="910" cy="878" r="6" class="c0"/>
<circle cx="796" cy="946" r="6" class="c0"/>
<circle cx="360" cy="934" r="6" class="c0"/>
<circle cx="952" cy="994" r="6" class="c0"/>
<circle cx="402" cy="780" r="6" class="c0"/>
<circle cx="26" cy="1168" r="6" class="c0"/>
<circle cx="1678" cy="942" r="6" class="c0"/>
<circle cx="898" cy="1098" r="6" class="c0"/>
<circle cx="1502" cy="1346" r="6" class="c0"/>
<circle cx="1036" cy="1422" r="6" class="c0"/>
<circle cx="1686" cy="1086" r="6" class="c0"/>
<circle cx="96" cy="1252" r="6" class="c0"/>
<circle cx="808" cy="864" r="6" class="c0"/>
<circle cx="236" cy="1178" r="6" class="c0"/>
<circle cx="862" cy="894" r="6" class="c0"/>
<circle cx="472" cy="1324" r="6" class="c0"/>
<circle cx="406" cy="1264" r="6" class="c0"/>
<circle cx="220" cy="1148" r="6" class="c0"/>
<circle cx="1656" cy="1086" r="6" class="c0"/>
<circle cx="882" cy="832" r="6" class="c0"/>
<circle cx="460" cy="1304" r="6" class="c0"/>
<circle cx="1478" cy="1406" r="6" class="c0"/>
<circle cx="1674" cy="1236" r="6" class="c0"/>
<circle cx="400" cy="1382" r="6" class="c0"/>
<circle cx="1686" cy="1334" r="6" class="c0"/>
<circle cx="1802" cy="946" r="6" class="c0"/>
<circle cx="840" cy="922" r="6" class="c0"/>
<circle cx="360" cy="1174" r="6" class="c0"/>
<circle cx="364" cy="1092" r="6" class="c0"/>
<circle cx="406" cy="1408" r="6" class="c0"/>
<circle cx="950" cy="878" r="6" class="c0"/>
<circle cx="1706" cy="882" r="6" class="c0"/>
<circle cx="218" cy="1256" r="6" class="c0"/>
<circle cx="1020" cy="1348" r="6" class="c0"/>
<circle cx="982" cy="882" r="6" class="c0"/>
<circle cx="408" cy="1432" r="6" class="c0"/>
<circle cx="428" cy="1018" r="6" class="c0"/>
<circle cx="876" cy="1070" r="6" class="c0"/>
<circle cx="1002" cy="746" r="6" class="c0"/>
<circle cx="1686" cy="952" r="6" class="c0"/>
<circle cx="1004" cy="1280" r="6" class="c0"/>
<circle cx="990" cy="796" r="6" class="c0"/>
<circle cx="878" cy="972" r="6" class="c0"/>
<circle cx="316" cy="1118" r="6" class="c0"/>
<circle cx="858" cy="1162" r="6" class="c0"/>
<circle cx="182" cy="1268" r="6" class="c0"/>
<circle cx="1720" cy="1056" r="6" class="c0"/>
<circle cx="1592" cy="1044" r="6" class="c0"/>
<circle cx="872" cy="1100" r="6" class="c0"/>
<circle cx="886" cy="1200" r="6" class="c0"/>
<circle cx="1572" cy="1018" r="6" class="c0"/>
<circle cx="1684" cy="1162" r="6" class="c0"/>
<circle cx="10" cy="1152" r="6" class="c0"/>
<circle cx="36" cy="1182" r="6" class="c0"/>
<circle cx="1006" cy="1214" r="6" class="c0"/>
<circle cx="1052" cy="1302" r="6" class="c0"/>
<circle cx="884" cy="1364" r="6" class="c0"/>
<circle cx="296" cy="1318" r="6" class="c0"/>
<circle cx="1500" cy="1394" r="6" class="c0"/>
<circle cx="340" cy="892" r="6" class="c0"/>
<circle cx="1668" cy="1038" r="6" class="c0"/>
<circle cx="1556" cy="1432" r="6" class="c0"/>
<circle cx="404" cy="898" r="6" class="c0"/>
<circle cx="944" cy="1172" r="6" class="c0"/>
<circle cx="1046" cy="1264" r="6" class="c0"/>
<circle cx="958" cy="886" r="6" class="c0"/>
<circle cx="888" cy="1432" r="6" class="c0"/>
<circle cx="332" cy="986" r="6" class="c0"/>
<circle cx="896" cy="1162" r="6" class="c0"/>
<circle cx="1802" cy="1102" r="6" class="c0"/>
<circle cx="328" cy="1326" r="6" class="c0"/>
<circle cx="1704" cy="916" r="6" class="c0"/>
<circle cx="1554" cy="1358" r="6" class="c0"/>
<circle cx="1748" cy="1378" r="6" class="c0"/>
<circle cx="384" cy="1054" r="6" class="c0"/>
<circle cx="1592" cy="1304" r="6" class="c0"/>
<circle cx="1614" cy="990" r="6" class="c0"/>
<circle cx="862" cy="1256" r="6" class="c0"/>
<circle cx="958" cy="1148" r="6" class="c0"/>
<circle cx="344" cy="1354" r="6" class="c0"/>
<circle cx="1644" cy="1310" r="6" class="c0"/>
<circle cx="1752" cy="1066" r="6" class="c0"/>
<circle cx="1806" cy="932" r="6" class="c0"/>
<circle cx="1606" cy="1082" r="6" class="c0"/>
<circle cx="966" cy="956" r="6" class="c0"/>
<circle cx="428" cy="938" r="6" class="c0"/>
<circle cx="992" cy="1122" r="6" class="c0"/>
<circle cx="1612" cy="770" r="6" class="c0"/>
<circle cx="1632" cy="1022" r="6" class="c0"/>
<circle cx="118" cy="1136" r="6" class="c0"/>
<circle cx="82" cy="1200" r="6" class="c0"/>
<circle cx="838" cy="888" r="6" class="c0"/>
<circle cx="218" cy="1298" r="6" class="c0"/>
<circle cx="348" cy="1138" r="6" class="c0"/>
<circle cx="1626" cy="1296" r="6" class="c0"/>
<circle cx="356" cy="1248" r="6" class="c0"/>
<circle cx="1616" cy="1402" r="6" class="c0"/>
<circle cx="258" cy="1296" r="6" class="c0"/>
<circle cx="1608" cy="1046" r="6" class="c0"/>
<circle cx="68" cy="1192" r="6" class="c0"/>
<circle cx="1812" cy="1076" r="6" class="c0"/>
<circle cx="1700" cy="858" r="6" class="c0"/>
<circle cx="340" cy="1110" r="6" class="c0"/>
<circle cx="480" cy="1276" r="6" class="c0"/>
<circle cx="1648" cy="1368" r="6" class="c0"/>
<circle cx="374" cy="734" r="6" class="c0"/>
<circle cx="1564" cy="1228" r="6" class="c0"/>
<circle cx="1656" cy="970" r="6" class="c0"/>
<circle cx="506" cy="1336" r="6" class="c0"/>
<circle cx="288" cy="1122" r="6" class="c0"/>
<circle cx="208" cy="1248" r="6" class="c0"/>
<circle cx="1588" cy="1252" r="6" class="c0"/>
<circle cx="76" cy="1112" r="6" class="c0"/>
<circle cx="6" cy="1194" r="6" class="c0"/>
<circle cx="1638" cy="1400" r="6" class="c0"/>
<circle cx="904" cy="1084" r="6" class="c0"/>
<circle cx="812" cy="890" r="6" class="c0"/>
<circle cx="934" cy="944" r="6" class="c0"/>
<circle cx="406" cy="1162" r="6" class="c0"/>
<circle cx="438" cy="980" r="6" class="c0"/>
<circle cx="84" cy="1226" r="6" class="c0"/>
<circle cx="384" cy="898" r="6" class="c0"/>
<circle cx="912" cy="1370" r="6" class="c0"/>
<circle cx="450" cy="1352" r="6" class="c0"/>
<circle cx="442" cy="1212" r="6" class="c0"/>
<circle cx="1820" cy="1084" r="6" class="c0"/>
<circle cx="286" cy="1326" r="6" class="c0"/>
<circle cx="314" cy="822" r="6" class="c0"/>
<circle cx="950" cy="1040" r="6" class="c0"/>
<circle cx="1598" cy="990" r="6" class="c0"/>
<circle cx="846" cy="948" r="6" class="c0"/>
<circle cx="1824" cy="906" r="6" class="c0"/>
<circle cx="416" cy="1348" r="6" class="c0"/>
<circle cx="440" cy="1306" r="6" class="c0"/>
<circle cx="1590" cy="828" r="6" class="c0"/>
<circle cx="870" cy="1302" r="6" class="c0"/>
<circle cx="1762" cy="996" r="6" class="c0"/>
<circle cx="150" cy="1150" r="6" class="c0"/>
<circle cx="208" cy="1222" r="6" class="c0"/>
<circle cx="280" cy="1130" r="6" class="c0"/>
<circle cx="352" cy="942" r="6" class="c0"/>
<circle cx="1692" cy="1022" r="6" class="c0"/>
<circle cx="904" cy="1432" r="6" class="c0"/>
<circle cx="1700" cy="1374" r="6" class="c0"/>
<circle cx="332" cy="1278" r="6" class="c0"/>
<circle cx="300" cy="1246" r="6" class="c0"/>
<circle cx="926" cy="1136" r="6" class="c0"/>
<circle cx="362" cy="1276" r="6" class="c0"/>
<circle cx="302" cy="1074" r="6" class="c0"/>
<circle cx="890" cy="1298" r="6" class="c0"/>
<circle cx="1776" cy="1022" r="6" class="c0"/>
<circle cx="1674" cy="1200" r="6" class="c0"/>
<circle cx="1742" cy="1010" r="6" class="c0"/>
<circle cx="980" cy="756" r="6" class="c0"/>
</svg>
