<?xml version="1.0" encoding="utf-8"?>
<svg xmlns="http://www.w3.org/2000/svg"
     xmlns:xlink="http://www.w3.org/1999/xlink" width="1920" height="1440" >

            <defs>
            <style type="text/css"><![CDATA[
circle {stroke: none;}
.c0 {fill: #000000;}
]]></style>
            </defs>
<rect x="0" y="0" width="1920" height="1440" fill="white"/>
<circle cx="1876" cy="998" r="12" class="c0"/>
<circle cx="1780" cy="962" r="12" class="c0"/>
<circle cx="1890" cy="1346" r="12" class="c0"/>
<circle cx="1740" cy="1070" r="12" class="c0"/>
<circle cx="1860" cy="958" r="12" class="c0"/>
<circle cx="1634" cy="894" r="12" class="c0"/>
<circle cx="1694" cy="1074" r="12" class="c0"/>
<circle cx="1830" cy="996" r="12" class="c0"/>
<circle cx="1768" cy="1062" r="12" class="c0"/>
<circle cx="1902" cy="1248" r="12" class="c0"/>
<circle cx="1854" cy="1348" r="12" class="c0"/>
<circle cx="1602" cy="882" r="12" class="c0"/>
<circle cx="1654" cy="1032" r="12" class="c0"/>
<circle cx="1850" cy="1150" r="12" class="c0"/>
<circle cx="1870" cy="1202" r="12" class="c0"/>
<circle cx="1804" cy="1026" r="12" class="c0"/>
<circle cx="1880" cy="1324" r="12" class="c0"/>
<circle cx="1772" cy="1166" r="12" class="c0"/>
<circle cx="1762" cy="992" r="10" class="c0"/>
<circle cx="1684" cy="964" r="10" class="c0"/>
<circle cx="1722" cy="966" r="10" class="c0"/>
<circle cx="1672" cy="1012" r="10" class="c0"/>
<circle cx="1842" cy="972" r="10" class="c0"/>
<circle cx="1724" cy="1056" r="10" class="c0"/>
<circle cx="1848" cy="1090" r="10" class="c0"/>
<circle cx="1828" cy="1298" r="10" class="c0"/>
<circle cx="1896" cy="1144" r="10" class="c0"/>
<circle cx="1742" cy="940" r="10" class="c0"/>
<circle cx="1878" cy="1296" r="10" class="c0"/>
<circle cx="1872" cy="1118" r="10" class="c0"/>
<circle cx="1624" cy="1040" r="10" class="c0"/>
<circle cx="1894" cy="1206" r="10" class="c0"/>
<circle cx="1776" cy="1016" r="10" class="c0"/>
<circle cx="1830" cy="1222" r="10" class="c0"/>
<circle cx="1886" cy="1056" r="10" class="c0"/>
<circle cx="1822" cy="1148" r="10" class="c0"/>
<circle cx="1850" cy="1190" r="10" class="c0"/>
<circle cx="1834" cy="1054" r="10" class="c0"/>
<circle cx="1818" cy="1258" r="10" class="c0"/>
<circle cx="1608" cy="1012" r="10" class="c0"/>
<circle cx="1898" cy="1020" r="10" class="c0"/>
<circle cx="1874" cy="1226" r="10" class="c0"/>
<circle cx="1800" cy="982" r="10" class="c0"/>
<circle cx="1692" cy="934" r="10" class="c0"/>
<circle cx="1518" cy="986" r="10" class="c0"/>
<circle cx="1722" cy="1014" r="10" class="c0"/>
<circle cx="1870" cy="1386" r="10" class="c0"/>
<circle cx="1852" cy="1240" r="10" class="c0"/>
<circle cx="1462" cy="1012" r="10" class="c0"/>
<circle cx="1658" cy="962" r="10" class="c0"/>
<circle cx="1484" cy="1010" r="10" class="c0"/>
<circle cx="1784" cy="1080" r="10" class="c0"/>
<circle cx="1646" cy="1000" r="10" class="c0"/>
<circle cx="1876" cy="1428" r="10" class="c0"/>
<circle cx="1824" cy="1080" r="10" class="c0"/>
<circle cx="1824" cy="1422" r="10" class="c0"/>
<circle cx="1710" cy="952" r="10" class="c0"/>
<circle cx="1536" cy="1030" r="10" class="c0"/>
<circle cx="1876" cy="1088" r="10" class="c0"/>
<circle cx="1496" cy="1022" r="10" class="c0"/>
<circle cx="1568" cy="998" r="10" class="c0"/>
<circle cx="1670" cy="936" r="10" class="c0"/>
<circle cx="1748" cy="1038" r="10" class="c0"/>
<circle cx="1788" cy="1044" r="10" class="c0"/>
<circle cx="1758" cy="1122" r="10" class="c0"/>
<circle cx="1678" cy="898" r="10" class="c0"/>
<circle cx="1898" cy="1174" r="10" class="c0"/>
<circle cx="1854" cy="1298" r="10" class="c0"/>
<circle cx="1522" cy="1014" r="10" class="c0"/>
<circle cx="1594" cy="980" r="10" class="c0"/>
<circle cx="1820" cy="1104" r="10" class="c0"/>
<circle cx="1652" cy="916" r="10" class="c0"/>
<circle cx="1864" cy="1164" r="10" class="c0"/>
<circle cx="1690" cy="988" r="8" class="c0"/>
<circle cx="1806" cy="1198" r="8" class="c0"/>
<circle cx="1598" cy="1034" r="8" class="c0"/>
<circle cx="1724" cy="988" r="8" class="c0"/>
<circle cx="1820" cy="1388" r="8" class="c0"/>
<circle cx="1652" cy="1066" r="8" class="c0"/>
<circle cx="1884" cy="1130" r="8" class="c0"/>
<circle cx="1824" cy="1182" r="8" class="c0"/>
<circle cx="1626" cy="964" r="8" class="c0"/>
<circle cx="1892" cy="1100" r="8" class="c0"/>
<circle cx="1784" cy="996" r="8" class="c0"/>
<circle cx="1758" cy="924" r="8" class="c0"/>
<circle cx="1796" cy="1142" r="8" class="c0"/>
<circle cx="1636" cy="984" r="8" class="c0"/>
<circle cx="1826" cy="1320" r="8" class="c0"/>
<circle cx="1800" cy="1326" r="8" class="c0"/>
<circle cx="1716" cy="916" r="8" class="c0"/>
<circle cx="1874" cy="1248" r="8" class="c0"/>
<circle cx="1904" cy="1404" r="8" class="c0"/>
<circle cx="1488" cy="982" r="8" class="c0"/>
<circle cx="1624" cy="1002" r="8" class="c0"/>
<circle cx="1752" cy="966" r="8" class="c0"/>
<circle cx="1830" cy="1356" r="8" class="c0"/>
<circle cx="1734" cy="1106" r="8" class="c0"/>
<circle cx="1808" cy="1160" r="8" class="c0"/>
<circle cx="1900" cy="1370" r="8" class="c0"/>
<circle cx="1890" cy="952" r="8" class="c0"/>
<circle cx="1702" cy="1010" r="8" class="c0"/>
<circle cx="1866" cy="1020" r="8" class="c0"/>
<circle cx="1848" cy="1398" r="8" class="c0"/>
<circle cx="1634" cy="1020" r="8" class="c0"/>
<circle cx="1854" cy="1374" r="8" class="c0"/>
<circle cx="1754" cy="1012" r="8" class="c0"/>
<circle cx="1860" cy="1062" r="8" class="c0"/>
<circle cx="1766" cy="1094" r="8" class="c0"/>
<circle cx="1656" cy="982" r="8" class="c0"/>
<circle cx="1582" cy="1044" r="8" class="c0"/>
<circle cx="1686" cy="1028" r="8" class="c0"/>
<circle cx="1806" cy="1240" r="8" class="c0"/>
<circle cx="1808" cy="952" r="8" class="c0"/>
<circle cx="1808" cy="1220" r="8" class="c0"/>
<circle cx="1844" cy="1030" r="8" class="c0"/>
<circle cx="1616" cy="974" r="8" class="c0"/>
<circle cx="1906" cy="1122" r="8" class="c0"/>
<circle cx="1832" cy="1244" r="8" class="c0"/>
<circle cx="1910" cy="1216" r="8" class="c0"/>
<circle cx="1430" cy="998" r="8" class="c0"/>
<circle cx="1818" cy="1126" r="8" class="c0"/>
<circle cx="1744" cy="1146" r="8" class="c0"/>
<circle cx="1806" cy="1352" r="8" class="c0"/>
<circle cx="1604" cy="1054" r="8" class="c0"/>
<circle cx="1546" cy="1014" r="8" class="c0"/>
<circle cx="1836" cy="1172" r="8" class="c0"/>
<circle cx="1840" cy="1260" r="8" class="c0"/>
<circle cx="1808" cy="1280" r="8" class="c0"/>
<circle cx="1846" cy="1212" r="8" class="c0"/>
<circle cx="1904" cy="1066" r="8" class="c0"/>
<circle cx="1782" cy="1232" r="8" class="c0"/>
<circle cx="1766" cy="1192" r="8" class="c0"/>
<circle cx="1846" cy="1316" r="8" class="c0"/>
<circle cx="1806" cy="1002" r="8" class="c0"/>
<circle cx="1810" cy="1052" r="8" class="c0"/>
<circle cx="1658" cy="896" r="8" class="c0"/>
<circle cx="1838" cy="1334" r="8" class="c0"/>
<circle cx="1616" cy="904" r="8" class="c0"/>
<circle cx="1554" cy="974" r="8" class="c0"/>
<circle cx="1786" cy="1206" r="8" class="c0"/>
<circle cx="1882" cy="976" r="8" class="c0"/>
<circle cx="1728" cy="1086" r="8" class="c0"/>
<circle cx="1876" cy="1362" r="8" class="c0"/>
<circle cx="1542" cy="984" r="8" class="c0"/>
<circle cx="1804" cy="1084" r="8" class="c0"/>
<circle cx="1784" cy="1124" r="8" class="c0"/>
<circle cx="1898" cy="1282" r="8" class="c0"/>
<circle cx="1856" cy="1422" r="8" class="c0"/>
<circle cx="1558" cy="1034" r="8" class="c0"/>
<circle cx="1798" cy="1170" r="8" class="c0"/>
<circle cx="1886" cy="1272" r="8" class="c0"/>
<circle cx="1580" cy="1016" r="8" class="c0"/>
<circle cx="1696" cy="1050" r="8" class="c0"/>
<circle cx="1876" cy="1032" r="8" class="c0"/>
<circle cx="1794" cy="1096" r="8" class="c0"/>
<circle cx="1818" cy="974" r="8" class="c0"/>
<circle cx="1776" cy="940" r="8" class="c0"/>
<circle cx="1726" cy="926" r="8" class="c0"/>
<circle cx="1890" cy="1394" r="8" class="c0"/>
<circle cx="1832" cy="1278" r="8" class="c0"/>
<circle cx="1910" cy="1162" r="8" class="c0"/>
<circle cx="1860" cy="1130" r="8" class="c0"/>
<circle cx="1836" cy="1378" r="8" class="c0"/>
<circle cx="1672" cy="1060" r="8" class="c0"/>
<circle cx="1902" cy="1306" r="8" class="c0"/>
<circle cx="1862" cy="980" r="8" class="c0"/>
<circle cx="1622" cy="872" r="8" class="c0"/>
<circle cx="1700" cy="974" r="8" class="c0"/>
<circle cx="1848" cy="1114" r="8" class="c0"/>
<circle cx="1828" cy="954" r="8" class="c0"/>
<circle cx="1850" cy="1004" r="8" class="c0"/>
<circle cx="1734" cy="1002" r="8" class="c0"/>
<circle cx="1900" cy="998" r="8" class="c0"/>
<circle cx="1822" cy="1042" r="8" class="c0"/>
<circle cx="1774" cy="1138" r="8" class="c0"/>
<circle cx="1694" cy="908" r="8" class="c0"/>
<circle cx="1748" cy="1090" r="8" class="c0"/>
<circle cx="1908" cy="978" r="8" class="c0"/>
<circle cx="1500" cy="994" r="8" class="c0"/>
<circle cx="1626" cy="1062" r="8" class="c0"/>
<circle cx="1912" cy="1420" r="6" class="c0"/>
<circle cx="1798" cy="1114" r="6" class="c0"/>
<circle cx="1586" cy="1000" r="6" class="c0"/>
<circle cx="1866" cy="1404" r="6" class="c0"/>
<circle cx="1716" cy="1076" r="6" class="c0"/>
<circle cx="1788" cy="1254" r="6" class="c0"/>
<circle cx="1910" cy="1386" r="6" class="c0"/>
<circle cx="1802" cy="1296" r="6" class="c0"/>
<circle cx="1800" cy="1264" r="6" class="c0"/>
<circle cx="1466" cy="984" r="6" class="c0"/>
<circle cx="1906" cy="1084" r="6" class="c0"/>
<circle cx="1576" cy="982" r="6" class="c0"/>
<circle cx="1880" cy="1186" r="6" class="c0"/>
<circle cx="1906" cy="1040" r="6" class="c0"/>
<circle cx="1826" cy="1018" r="6" class="c0"/>
<circle cx="1712" cy="1036" r="6" class="c0"/>
<circle cx="1816" cy="1336" r="6" class="c0"/>
<circle cx="1902" cy="962" r="6" class="c0"/>
<circle cx="1766" cy="950" r="6" class="c0"/>
<circle cx="1738" cy="1128" r="6" class="c0"/>
<circle cx="1908" cy="1192" r="6" class="c0"/>
<circle cx="1750" cy="1176" r="6" class="c0"/>
<circle cx="1886" cy="1162" r="6" class="c0"/>
<circle cx="1444" cy="1016" r="6" class="c0"/>
<circle cx="1744" cy="986" r="6" class="c0"/>
<circle cx="1736" cy="1024" r="6" class="c0"/>
<circle cx="1872" cy="1264" r="6" class="c0"/>
<circle cx="1674" cy="1078" r="6" class="c0"/>
<circle cx="1828" cy="1204" r="6" class="c0"/>
<circle cx="1878" cy="1410" r="6" class="c0"/>
<circle cx="1830" cy="1402" r="6" class="c0"/>
<circle cx="1776" cy="1108" r="6" class="c0"/>
<circle cx="1852" cy="1278" r="6" class="c0"/>
<circle cx="1764" cy="1030" r="6" class="c0"/>
<circle cx="1912" cy="1294" r="6" class="c0"/>
<circle cx="1862" cy="1102" r="6" class="c0"/>
<circle cx="1644" cy="940" r="6" class="c0"/>
<circle cx="1588" cy="864" r="6" class="c0"/>
<circle cx="1810" cy="1306" r="6" class="c0"/>
<circle cx="1474" cy="1024" r="6" class="c0"/>
<circle cx="1858" cy="1328" r="6" class="c0"/>
<circle cx="1912" cy="1360" r="6" class="c0"/>
<circle cx="1856" cy="1258" r="6" class="c0"/>
<circle cx="1910" cy="1334" r="6" class="c0"/>
<circle cx="1874" cy="1070" r="6" class="c0"/>
<circle cx="1800" cy="1068" r="6" class="c0"/>
<circle cx="1518" cy="1032" r="6" class="c0"/>
<circle cx="1862" cy="938" r="6" class="c0"/>
<circle cx="1642" cy="1052" r="6" class="c0"/>
<circle cx="1844" cy="1068" r="6" class="c0"/>
<circle cx="1876" cy="1148" r="6" class="c0"/>
<circle cx="1912" cy="1010" r="6" class="c0"/>
<circle cx="1904" cy="1430" r="6" class="c0"/>
<circle cx="1650" cy="880" r="6" class="c0"/>
<circle cx="1894" cy="1422" r="6" class="c0"/>
<circle cx="1710" cy="996" r="6" class="c0"/>
<circle cx="1834" cy="1132" r="6" class="c0"/>
<circle cx="1900" cy="1228" r="6" class="c0"/>
<circle cx="1866" cy="1310" r="6" class="c0"/>
<circle cx="1450" cy="1000" r="6" class="c0"/>
<circle cx="1706" cy="1060" r="6" class="c0"/>
<circle cx="1862" cy="1046" r="6" class="c0"/>
<circle cx="1680" cy="918" r="6" class="c0"/>
<circle cx="1910" cy="952" r="6" class="c0"/>
<circle cx="1606" cy="964" r="6" class="c0"/>
<circle cx="1842" cy="1414" r="6" class="c0"/>
<circle cx="1894" cy="1078" r="6" class="c0"/>
<circle cx="1788" cy="1156" r="6" class="c0"/>
<circle cx="1868" cy="1282" r="6" class="c0"/>
<circle cx="1848" cy="942" r="6" class="c0"/>
<circle cx="1712" cy="1090" r="6" class="c0"/>
<circle cx="1576" cy="876" r="6" class="c0"/>
<circle cx="1444" cy="988" r="6" class="c0"/>
<circle cx="1912" cy="1104" r="6" class="c0"/>
<circle cx="1674" cy="1040" r="6" class="c0"/>
<circle cx="1784" cy="1182" r="6" class="c0"/>
<circle cx="1476" cy="994" r="6" class="c0"/>
<circle cx="1410" cy="992" r="6" class="c0"/>
<circle cx="1912" cy="1270" r="6" class="c0"/>
<circle cx="1912" cy="1318" r="6" class="c0"/>
<circle cx="1566" cy="1048" r="6" class="c0"/>
<circle cx="1638" cy="874" r="6" class="c0"/>
<circle cx="1818" cy="1370" r="6" class="c0"/>
<circle cx="1736" cy="916" r="6" class="c0"/>
<circle cx="1532" cy="996" r="6" class="c0"/>
<circle cx="1764" cy="1148" r="6" class="c0"/>
<circle cx="1454" cy="978" r="6" class="c0"/>
<circle cx="1874" cy="944" r="6" class="c0"/>
<circle cx="1798" cy="1378" r="6" class="c0"/>
<circle cx="1832" cy="1116" r="6" class="c0"/>
<circle cx="1674" cy="978" r="6" class="c0"/>
<circle cx="1432" cy="980" r="6" class="c0"/>
<circle cx="1730" cy="1036" r="6" class="c0"/>
<circle cx="1902" cy="1326" r="6" class="c0"/>
<circle cx="1782" cy="1306" r="6" class="c0"/>
<circle cx="1862" cy="1078" r="6" class="c0"/>
<circle cx="1792" cy="1190" r="6" class="c0"/>
<circle cx="1912" cy="1052" r="6" class="c0"/>
<circle cx="1738" cy="974" r="6" class="c0"/>
<circle cx="1572" cy="968" r="6" class="c0"/>
<circle cx="1562" cy="1018" r="6" class="c0"/>
<circle cx="1738" cy="958" r="6" class="c0"/>
<circle cx="1866" cy="1182" r="6" class="c0"/>
<circle cx="1612" cy="992" r="6" class="c0"/>
<circle cx="1792" cy="1222" r="6" class="c0"/>
</svg>
