<?xml version="1.0" encoding="utf-8"?>
<svg xmlns="http://www.w3.org/2000/svg"
     xmlns:xlink="http://www.w3.org/1999/xlink" width="1920" height="1440" >

            <defs>
            <style type="text/css"><![CDATA[
circle {stroke: none;}
.c0 {fill: #000000;}
]]></style>
            </defs>
<rect x="0" y="0" width="1920" height="1440" fill="white"/>
<circle cx="884" cy="158" r="12" class="c0"/>
<circle cx="882" cy="128" r="12" class="c0"/>
<circle cx="844" cy="110" r="12" class="c0"/>
<circle cx="936" cy="112" r="12" class="c0"/>
<circle cx="1024" cy="222" r="12" class="c0"/>
<circle cx="890" cy="222" r="12" class="c0"/>
<circle cx="1006" cy="290" r="12" class="c0"/>
<circle cx="1058" cy="168" r="12" class="c0"/>
<circle cx="866" cy="244" r="12" class="c0"/>
<circle cx="936" cy="298" r="12" class="c0"/>
<circle cx="984" cy="48" r="12" class="c0"/>
<circle cx="858" cy="140" r="12" class="c0"/>
<circle cx="798" cy="220" r="12" class="c0"/>
<circle cx="788" cy="140" r="12" class="c0"/>
<circle cx="734" cy="146" r="12" class="c0"/>
<circle cx="920" cy="140" r="12" class="c0"/>
<circle cx="906" cy="78" r="10" class="c0"/>
<circle cx="850" cy="308" r="10" class="c0"/>
<circle cx="900" cy="282" r="10" class="c0"/>
<circle cx="780" cy="70" r="10" class="c0"/>
<circle cx="886" cy="30" r="10" class="c0"/>
<circle cx="930" cy="194" r="10" class="c0"/>
<circle cx="934" cy="258" r="10" class="c0"/>
<circle cx="870" cy="198" r="10" class="c0"/>
<circle cx="1004" cy="36" r="10" class="c0"/>
<circle cx="854" cy="276" r="10" class="c0"/>
<circle cx="776" cy="116" r="10" class="c0"/>
<circle cx="990" cy="238" r="10" class="c0"/>
<circle cx="832" cy="272" r="10" class="c0"/>
<circle cx="920" cy="42" r="10" class="c0"/>
<circle cx="770" cy="206" r="10" class="c0"/>
<circle cx="860" cy="18" r="10" class="c0"/>
<circle cx="914" cy="10" r="10" class="c0"/>
<circle cx="1018" cy="266" r="10" class="c0"/>
<circle cx="726" cy="170" r="10" class="c0"/>
<circle cx="952" cy="230" r="10" class="c0"/>
<circle cx="932" cy="160" r="10" class="c0"/>
<circle cx="838" cy="60" r="10" class="c0"/>
<circle cx="962" cy="118" r="10" class="c0"/>
<circle cx="832" cy="238" r="10" class="c0"/>
<circle cx="826" cy="298" r="10" class="c0"/>
<circle cx="976" cy="286" r="10" class="c0"/>
<circle cx="974" cy="26" r="10" class="c0"/>
<circle cx="954" cy="14" r="10" class="c0"/>
<circle cx="752" cy="228" r="10" class="c0"/>
<circle cx="758" cy="180" r="10" class="c0"/>
<circle cx="806" cy="86" r="10" class="c0"/>
<circle cx="840" cy="198" r="10" class="c0"/>
<circle cx="1046" cy="252" r="10" class="c0"/>
<circle cx="1018" cy="156" r="10" class="c0"/>
<circle cx="986" cy="216" r="10" class="c0"/>
<circle cx="792" cy="54" r="10" class="c0"/>
<circle cx="810" cy="16" r="10" class="c0"/>
<circle cx="1000" cy="198" r="10" class="c0"/>
<circle cx="1038" cy="76" r="10" class="c0"/>
<circle cx="782" cy="252" r="10" class="c0"/>
<circle cx="912" cy="344" r="10" class="c0"/>
<circle cx="902" cy="250" r="10" class="c0"/>
<circle cx="978" cy="186" r="10" class="c0"/>
<circle cx="976" cy="144" r="10" class="c0"/>
<circle cx="946" cy="330" r="10" class="c0"/>
<circle cx="784" cy="174" r="10" class="c0"/>
<circle cx="1016" cy="58" r="8" class="c0"/>
<circle cx="1022" cy="132" r="8" class="c0"/>
<circle cx="862" cy="84" r="8" class="c0"/>
<circle cx="966" cy="92" r="8" class="c0"/>
<circle cx="836" cy="22" r="8" class="c0"/>
<circle cx="962" cy="42" r="8" class="c0"/>
<circle cx="982" cy="316" r="8" class="c0"/>
<circle cx="932" cy="234" r="8" class="c0"/>
<circle cx="930" cy="356" r="8" class="c0"/>
<circle cx="934" cy="72" r="8" class="c0"/>
<circle cx="960" cy="156" r="8" class="c0"/>
<circle cx="998" cy="66" r="8" class="c0"/>
<circle cx="872" cy="302" r="8" class="c0"/>
<circle cx="884" cy="56" r="8" class="c0"/>
<circle cx="1040" cy="118" r="8" class="c0"/>
<circle cx="740" cy="194" r="8" class="c0"/>
<circle cx="1004" cy="116" r="8" class="c0"/>
<circle cx="794" cy="106" r="8" class="c0"/>
<circle cx="956" cy="74" r="8" class="c0"/>
<circle cx="968" cy="334" r="8" class="c0"/>
<circle cx="860" cy="44" r="8" class="c0"/>
<circle cx="874" cy="338" r="8" class="c0"/>
<circle cx="764" cy="96" r="8" class="c0"/>
<circle cx="924" cy="326" r="8" class="c0"/>
<circle cx="834" cy="84" r="8" class="c0"/>
<circle cx="1008" cy="250" r="8" class="c0"/>
<circle cx="808" cy="184" r="8" class="c0"/>
<circle cx="924" cy="280" r="8" class="c0"/>
<circle cx="1068" cy="102" r="8" class="c0"/>
<circle cx="806" cy="300" r="8" class="c0"/>
<circle cx="862" cy="166" r="8" class="c0"/>
<circle cx="920" cy="90" r="8" class="c0"/>
<circle cx="854" cy="224" r="8" class="c0"/>
<circle cx="810" cy="266" r="8" class="c0"/>
<circle cx="900" cy="112" r="8" class="c0"/>
<circle cx="954" cy="284" r="8" class="c0"/>
<circle cx="996" cy="140" r="8" class="c0"/>
<circle cx="876" cy="268" r="8" class="c0"/>
<circle cx="806" cy="240" r="8" class="c0"/>
<circle cx="886" cy="180" r="8" class="c0"/>
<circle cx="992" cy="258" r="8" class="c0"/>
<circle cx="796" cy="276" r="8" class="c0"/>
<circle cx="830" cy="134" r="8" class="c0"/>
<circle cx="902" cy="328" r="8" class="c0"/>
<circle cx="1030" cy="190" r="8" class="c0"/>
<circle cx="910" cy="158" r="8" class="c0"/>
<circle cx="946" cy="136" r="8" class="c0"/>
<circle cx="1056" cy="134" r="8" class="c0"/>
<circle cx="752" cy="114" r="8" class="c0"/>
<circle cx="914" cy="312" r="8" class="c0"/>
<circle cx="1016" cy="102" r="8" class="c0"/>
<circle cx="958" cy="250" r="8" class="c0"/>
<circle cx="990" cy="170" r="8" class="c0"/>
<circle cx="844" cy="164" r="8" class="c0"/>
<circle cx="878" cy="94" r="8" class="c0"/>
<circle cx="1038" cy="100" r="8" class="c0"/>
<circle cx="824" cy="46" r="8" class="c0"/>
<circle cx="914" cy="220" r="8" class="c0"/>
<circle cx="808" cy="118" r="8" class="c0"/>
<circle cx="774" cy="272" r="8" class="c0"/>
<circle cx="986" cy="88" r="8" class="c0"/>
<circle cx="874" cy="74" r="8" class="c0"/>
<circle cx="1048" cy="230" r="8" class="c0"/>
<circle cx="1058" cy="202" r="8" class="c0"/>
<circle cx="1070" cy="122" r="8" class="c0"/>
<circle cx="738" cy="216" r="8" class="c0"/>
<circle cx="832" cy="322" r="8" class="c0"/>
<circle cx="816" cy="62" r="8" class="c0"/>
<circle cx="970" cy="62" r="8" class="c0"/>
<circle cx="996" cy="98" r="8" class="c0"/>
<circle cx="760" cy="160" r="8" class="c0"/>
<circle cx="940" cy="40" r="8" class="c0"/>
<circle cx="918" cy="62" r="8" class="c0"/>
<circle cx="790" cy="194" r="8" class="c0"/>
<circle cx="948" cy="56" r="8" class="c0"/>
<circle cx="966" cy="308" r="8" class="c0"/>
<circle cx="986" cy="122" r="8" class="c0"/>
<circle cx="820" cy="200" r="8" class="c0"/>
<circle cx="762" cy="254" r="8" class="c0"/>
<circle cx="834" cy="154" r="8" class="c0"/>
<circle cx="810" cy="142" r="8" class="c0"/>
<circle cx="754" cy="134" r="8" class="c0"/>
<circle cx="910" cy="122" r="8" class="c0"/>
<circle cx="914" cy="266" r="8" class="c0"/>
<circle cx="854" cy="184" r="8" class="c0"/>
<circle cx="898" cy="42" r="8" class="c0"/>
<circle cx="1036" cy="56" r="8" class="c0"/>
<circle cx="934" cy="12" r="8" class="c0"/>
<circle cx="890" cy="312" r="8" class="c0"/>
<circle cx="902" cy="200" r="8" class="c0"/>
<circle cx="1066" cy="258" r="8" class="c0"/>
<circle cx="966" cy="268" r="8" class="c0"/>
<circle cx="946" cy="210" r="8" class="c0"/>
<circle cx="940" cy="178" r="8" class="c0"/>
<circle cx="790" cy="18" r="8" class="c0"/>
<circle cx="844" cy="260" r="8" class="c0"/>
<circle cx="1006" cy="314" r="8" class="c0"/>
<circle cx="1068" cy="146" r="8" class="c0"/>
<circle cx="888" cy="8" r="8" class="c0"/>
<circle cx="772" cy="234" r="8" class="c0"/>
<circle cx="754" cy="82" r="8" class="c0"/>
<circle cx="894" cy="352" r="8" class="c0"/>
<circle cx="1056" cy="84" r="8" class="c0"/>
<circle cx="854" cy="328" r="8" class="c0"/>
<circle cx="946" cy="88" r="8" class="c0"/>
<circle cx="820" cy="172" r="8" class="c0"/>
<circle cx="978" cy="104" r="8" class="c0"/>
<circle cx="1040" cy="150" r="8" class="c0"/>
<circle cx="820" cy="254" r="8" class="c0"/>
<circle cx="1010" cy="76" r="8" class="c0"/>
<circle cx="1020" cy="200" r="8" class="c0"/>
<circle cx="960" cy="196" r="8" class="c0"/>
<circle cx="786" cy="288" r="8" class="c0"/>
<circle cx="828" cy="216" r="8" class="c0"/>
<circle cx="900" cy="170" r="8" class="c0"/>
<circle cx="1028" cy="244" r="8" class="c0"/>
<circle cx="954" cy="348" r="8" class="c0"/>
<circle cx="1042" cy="212" r="8" class="c0"/>
<circle cx="728" cy="204" r="8" class="c0"/>
<circle cx="1026" cy="90" r="8" class="c0"/>
<circle cx="870" cy="320" r="8" class="c0"/>
<circle cx="1030" cy="278" r="8" class="c0"/>
<circle cx="866" cy="104" r="8" class="c0"/>
<circle cx="1068" cy="190" r="8" class="c0"/>
<circle cx="826" cy="100" r="8" class="c0"/>
<circle cx="896" cy="142" r="8" class="c0"/>
<circle cx="1032" cy="168" r="8" class="c0"/>
<circle cx="992" cy="304" r="8" class="c0"/>
<circle cx="780" cy="40" r="8" class="c0"/>
<circle cx="916" cy="236" r="6" class="c0"/>
<circle cx="960" cy="178" r="6" class="c0"/>
<circle cx="1002" cy="224" r="6" class="c0"/>
<circle cx="918" cy="182" r="6" class="c0"/>
<circle cx="798" cy="162" r="6" class="c0"/>
<circle cx="1080" cy="276" r="6" class="c0"/>
<circle cx="916" cy="296" r="6" class="c0"/>
<circle cx="906" cy="26" r="6" class="c0"/>
<circle cx="1016" cy="178" r="6" class="c0"/>
<circle cx="1078" cy="166" r="6" class="c0"/>
<circle cx="972" cy="166" r="6" class="c0"/>
<circle cx="858" cy="68" r="6" class="c0"/>
<circle cx="814" cy="314" r="6" class="c0"/>
<circle cx="782" cy="88" r="6" class="c0"/>
<circle cx="830" cy="6" r="6" class="c0"/>
<circle cx="808" cy="40" r="6" class="c0"/>
<circle cx="882" cy="292" r="6" class="c0"/>
<circle cx="974" cy="230" r="6" class="c0"/>
<circle cx="990" cy="330" r="6" class="c0"/>
<circle cx="996" cy="20" r="6" class="c0"/>
<circle cx="746" cy="248" r="6" class="c0"/>
<circle cx="964" cy="216" r="6" class="c0"/>
<circle cx="896" cy="96" r="6" class="c0"/>
<circle cx="1006" cy="168" r="6" class="c0"/>
<circle cx="1024" cy="38" r="6" class="c0"/>
<circle cx="842" cy="38" r="6" class="c0"/>
<circle cx="982" cy="72" r="6" class="c0"/>
<circle cx="798" cy="32" r="6" class="c0"/>
<circle cx="900" cy="302" r="6" class="c0"/>
<circle cx="902" cy="58" r="6" class="c0"/>
<circle cx="844" cy="8" r="6" class="c0"/>
<circle cx="974" cy="246" r="6" class="c0"/>
<circle cx="988" cy="274" r="6" class="c0"/>
<circle cx="1046" cy="188" r="6" class="c0"/>
<circle cx="1054" cy="68" r="6" class="c0"/>
<circle cx="844" cy="290" r="6" class="c0"/>
<circle cx="948" cy="268" r="6" class="c0"/>
<circle cx="862" cy="120" r="6" class="c0"/>
<circle cx="886" cy="242" r="6" class="c0"/>
<circle cx="816" cy="228" r="6" class="c0"/>
<circle cx="972" cy="206" r="6" class="c0"/>
<circle cx="772" cy="150" r="6" class="c0"/>
<circle cx="744" cy="164" r="6" class="c0"/>
<circle cx="1010" cy="234" r="6" class="c0"/>
<circle cx="1078" cy="136" r="6" class="c0"/>
<circle cx="764" cy="60" r="6" class="c0"/>
<circle cx="814" cy="286" r="6" class="c0"/>
<circle cx="800" cy="256" r="6" class="c0"/>
<circle cx="930" cy="28" r="6" class="c0"/>
<circle cx="870" cy="286" r="6" class="c0"/>
<circle cx="1052" cy="52" r="6" class="c0"/>
<circle cx="978" cy="8" r="6" class="c0"/>
<circle cx="774" cy="188" r="6" class="c0"/>
<circle cx="916" cy="106" r="6" class="c0"/>
<circle cx="724" cy="188" r="6" class="c0"/>
<circle cx="932" cy="340" r="6" class="c0"/>
<circle cx="870" cy="218" r="6" class="c0"/>
<circle cx="894" cy="66" r="6" class="c0"/>
<circle cx="836" cy="180" r="6" class="c0"/>
<circle cx="948" cy="312" r="6" class="c0"/>
<circle cx="812" cy="158" r="6" class="c0"/>
<circle cx="856" cy="208" r="6" class="c0"/>
<circle cx="1056" cy="114" r="6" class="c0"/>
<circle cx="740" cy="126" r="6" class="c0"/>
<circle cx="892" cy="264" r="6" class="c0"/>
<circle cx="884" cy="328" r="6" class="c0"/>
<circle cx="930" cy="216" r="6" class="c0"/>
<circle cx="752" cy="208" r="6" class="c0"/>
<circle cx="950" cy="168" r="6" class="c0"/>
<circle cx="820" cy="30" r="6" class="c0"/>
<circle cx="868" cy="58" r="6" class="c0"/>
<circle cx="1058" cy="220" r="6" class="c0"/>
<circle cx="898" cy="18" r="6" class="c0"/>
<circle cx="872" cy="6" r="6" class="c0"/>
<circle cx="1024" cy="116" r="6" class="c0"/>
<circle cx="998" cy="156" r="6" class="c0"/>
<circle cx="824" cy="116" r="6" class="c0"/>
<circle cx="932" cy="54" r="6" class="c0"/>
<circle cx="848" cy="76" r="6" class="c0"/>
<circle cx="888" cy="82" r="6" class="c0"/>
<circle cx="744" cy="100" r="6" class="c0"/>
<circle cx="1038" cy="134" r="6" class="c0"/>
<circle cx="954" cy="102" r="6" class="c0"/>
<circle cx="940" cy="276" r="6" class="c0"/>
</svg>
