<?xml version="1.0" encoding="utf-8"?>
<svg xmlns="http://www.w3.org/2000/svg"
     xmlns:xlink="http://www.w3.org/1999/xlink" width="1920" height="1440" >

            <defs>
            <style type="text/css"><![CDATA[
circle {stroke: none;}
.c0 {fill: #000000;}
]]></style>
            </defs>
<rect x="0" y="0" width="1920" height="1440" fill="white"/>
<circle cx="772" cy="268" r="14" class="c0"/>
<circle cx="888" cy="360" r="14" class="c0"/>
<circle cx="772" cy="310" r="12" class="c0"/>
<circle cx="982" cy="122" r="12" class="c0"/>
<circle cx="866" cy="254" r="12" class="c0"/>
<circle cx="918" cy="190" r="12" class="c0"/>
<circle cx="922" cy="386" r="12" class="c0"/>
<circle cx="1084" cy="278" r="12" class="c0"/>
<circle cx="1048" cy="214" r="12" class="c0"/>
<circle cx="822" cy="336" r="12" class="c0"/>
<circle cx="1088" cy="242" r="12" class="c0"/>
<circle cx="774" cy="186" r="12" class="c0"/>
<circle cx="930" cy="162" r="12" class="c0"/>
<circle cx="920" cy="416" r="12" class="c0"/>
<circle cx="958" cy="260" r="12" class="c0"/>
<circle cx="938" cy="320" r="12" class="c0"/>
<circle cx="1020" cy="258" r="12" class="c0"/>
<circle cx="788" cy="202" r="12" class="c0"/>
<circle cx="838" cy="166" r="12" class="c0"/>
<circle cx="986" cy="246" r="12" class="c0"/>
<circle cx="1078" cy="384" r="12" class="c0"/>
<circle cx="772" cy="356" r="12" class="c0"/>
<circle cx="1078" cy="206" r="12" class="c0"/>
<circle cx="1026" cy="146" r="10" class="c0"/>
<circle cx="952" cy="392" r="10" class="c0"/>
<circle cx="880" cy="198" r="10" class="c0"/>
<circle cx="786" cy="296" r="10" class="c0"/>
<circle cx="828" cy="378" r="10" class="c0"/>
<circle cx="882" cy="226" r="10" class="c0"/>
<circle cx="1100" cy="344" r="10" class="c0"/>
<circle cx="1038" cy="186" r="10" class="c0"/>
<circle cx="856" cy="354" r="10" class="c0"/>
<circle cx="966" cy="148" r="10" class="c0"/>
<circle cx="964" cy="196" r="10" class="c0"/>
<circle cx="906" cy="454" r="10" class="c0"/>
<circle cx="816" cy="304" r="10" class="c0"/>
<circle cx="984" cy="176" r="10" class="c0"/>
<circle cx="960" cy="334" r="10" class="c0"/>
<circle cx="944" cy="370" r="10" class="c0"/>
<circle cx="858" cy="320" r="10" class="c0"/>
<circle cx="854" cy="124" r="10" class="c0"/>
<circle cx="888" cy="264" r="10" class="c0"/>
<circle cx="986" cy="442" r="10" class="c0"/>
<circle cx="878" cy="304" r="10" class="c0"/>
<circle cx="1000" cy="308" r="10" class="c0"/>
<circle cx="1020" cy="434" r="10" class="c0"/>
<circle cx="776" cy="234" r="10" class="c0"/>
<circle cx="1030" cy="406" r="10" class="c0"/>
<circle cx="1066" cy="340" r="10" class="c0"/>
<circle cx="802" cy="276" r="10" class="c0"/>
<circle cx="1000" cy="376" r="10" class="c0"/>
<circle cx="1024" cy="322" r="10" class="c0"/>
<circle cx="946" cy="284" r="10" class="c0"/>
<circle cx="1052" cy="140" r="10" class="c0"/>
<circle cx="788" cy="334" r="10" class="c0"/>
<circle cx="980" cy="326" r="10" class="c0"/>
<circle cx="996" cy="272" r="10" class="c0"/>
<circle cx="930" cy="228" r="10" class="c0"/>
<circle cx="814" cy="208" r="10" class="c0"/>
<circle cx="968" cy="406" r="10" class="c0"/>
<circle cx="984" cy="348" r="10" class="c0"/>
<circle cx="1044" cy="240" r="10" class="c0"/>
<circle cx="1018" cy="222" r="10" class="c0"/>
<circle cx="1056" cy="288" r="10" class="c0"/>
<circle cx="946" cy="132" r="10" class="c0"/>
<circle cx="954" cy="438" r="10" class="c0"/>
<circle cx="810" cy="140" r="10" class="c0"/>
<circle cx="890" cy="146" r="10" class="c0"/>
<circle cx="1054" cy="402" r="10" class="c0"/>
<circle cx="890" cy="386" r="10" class="c0"/>
<circle cx="846" cy="410" r="10" class="c0"/>
<circle cx="1032" cy="446" r="10" class="c0"/>
<circle cx="906" cy="320" r="10" class="c0"/>
<circle cx="808" cy="416" r="10" class="c0"/>
<circle cx="802" cy="392" r="10" class="c0"/>
<circle cx="954" cy="468" r="10" class="c0"/>
<circle cx="918" cy="106" r="10" class="c0"/>
<circle cx="944" cy="214" r="10" class="c0"/>
<circle cx="1006" cy="170" r="10" class="c0"/>
<circle cx="1106" cy="264" r="10" class="c0"/>
<circle cx="932" cy="346" r="10" class="c0"/>
<circle cx="956" cy="166" r="10" class="c0"/>
<circle cx="760" cy="222" r="10" class="c0"/>
<circle cx="1014" cy="294" r="10" class="c0"/>
<circle cx="736" cy="288" r="10" class="c0"/>
<circle cx="850" cy="432" r="10" class="c0"/>
<circle cx="802" cy="246" r="10" class="c0"/>
<circle cx="942" cy="426" r="10" class="c0"/>
<circle cx="970" cy="368" r="10" class="c0"/>
<circle cx="904" cy="250" r="10" class="c0"/>
<circle cx="848" cy="194" r="10" class="c0"/>
<circle cx="1062" cy="188" r="10" class="c0"/>
<circle cx="1088" cy="308" r="10" class="c0"/>
<circle cx="1050" cy="356" r="10" class="c0"/>
<circle cx="856" cy="234" r="10" class="c0"/>
<circle cx="864" cy="182" r="10" class="c0"/>
<circle cx="808" cy="350" r="8" class="c0"/>
<circle cx="1092" cy="398" r="8" class="c0"/>
<circle cx="990" cy="468" r="8" class="c0"/>
<circle cx="762" cy="374" r="8" class="c0"/>
<circle cx="810" cy="436" r="8" class="c0"/>
<circle cx="788" cy="368" r="8" class="c0"/>
<circle cx="1002" cy="144" r="8" class="c0"/>
<circle cx="1108" cy="324" r="8" class="c0"/>
<circle cx="902" cy="230" r="8" class="c0"/>
<circle cx="746" cy="246" r="8" class="c0"/>
<circle cx="876" cy="96" r="8" class="c0"/>
<circle cx="818" cy="230" r="8" class="c0"/>
<circle cx="1042" cy="314" r="8" class="c0"/>
<circle cx="820" cy="156" r="8" class="c0"/>
<circle cx="772" cy="400" r="8" class="c0"/>
<circle cx="912" cy="144" r="8" class="c0"/>
<circle cx="862" cy="210" r="8" class="c0"/>
<circle cx="1062" cy="256" r="8" class="c0"/>
<circle cx="1080" cy="178" r="8" class="c0"/>
<circle cx="978" cy="224" r="8" class="c0"/>
<circle cx="756" cy="198" r="8" class="c0"/>
<circle cx="878" cy="454" r="8" class="c0"/>
<circle cx="892" cy="334" r="8" class="c0"/>
<circle cx="972" cy="458" r="8" class="c0"/>
<circle cx="940" cy="244" r="8" class="c0"/>
<circle cx="884" cy="416" r="8" class="c0"/>
<circle cx="868" cy="404" r="8" class="c0"/>
<circle cx="926" cy="468" r="8" class="c0"/>
<circle cx="852" cy="280" r="8" class="c0"/>
<circle cx="998" cy="334" r="8" class="c0"/>
<circle cx="1078" cy="414" r="8" class="c0"/>
<circle cx="966" cy="104" r="8" class="c0"/>
<circle cx="798" cy="162" r="8" class="c0"/>
<circle cx="994" cy="404" r="8" class="c0"/>
<circle cx="902" cy="404" r="8" class="c0"/>
<circle cx="1030" cy="380" r="8" class="c0"/>
<circle cx="1040" cy="332" r="8" class="c0"/>
<circle cx="846" cy="300" r="8" class="c0"/>
<circle cx="758" cy="326" r="8" class="c0"/>
<circle cx="1064" cy="228" r="8" class="c0"/>
<circle cx="832" cy="256" r="8" class="c0"/>
<circle cx="1080" cy="360" r="8" class="c0"/>
<circle cx="924" cy="294" r="8" class="c0"/>
<circle cx="988" cy="200" r="8" class="c0"/>
<circle cx="1010" cy="464" r="8" class="c0"/>
<circle cx="804" cy="324" r="8" class="c0"/>
<circle cx="858" cy="450" r="8" class="c0"/>
<circle cx="1102" cy="364" r="8" class="c0"/>
<circle cx="902" cy="174" r="8" class="c0"/>
<circle cx="984" cy="394" r="8" class="c0"/>
<circle cx="782" cy="414" r="8" class="c0"/>
<circle cx="862" cy="156" r="8" class="c0"/>
<circle cx="984" cy="298" r="8" class="c0"/>
<circle cx="1108" cy="298" r="8" class="c0"/>
<circle cx="1026" cy="174" r="8" class="c0"/>
<circle cx="902" cy="204" r="8" class="c0"/>
<circle cx="1022" cy="126" r="8" class="c0"/>
<circle cx="1062" cy="320" r="8" class="c0"/>
<circle cx="974" cy="286" r="8" class="c0"/>
<circle cx="930" cy="268" r="8" class="c0"/>
<circle cx="754" cy="296" r="8" class="c0"/>
<circle cx="1020" cy="358" r="8" class="c0"/>
<circle cx="744" cy="314" r="8" class="c0"/>
<circle cx="858" cy="390" r="8" class="c0"/>
<circle cx="970" cy="426" r="8" class="c0"/>
<circle cx="1054" cy="160" r="8" class="c0"/>
<circle cx="1048" cy="382" r="8" class="c0"/>
<circle cx="824" cy="280" r="8" class="c0"/>
<circle cx="876" cy="282" r="8" class="c0"/>
<circle cx="800" cy="224" r="8" class="c0"/>
<circle cx="914" cy="358" r="8" class="c0"/>
<circle cx="872" cy="338" r="8" class="c0"/>
<circle cx="934" cy="446" r="8" class="c0"/>
<circle cx="828" cy="444" r="8" class="c0"/>
<circle cx="966" cy="312" r="8" class="c0"/>
<circle cx="1038" cy="274" r="8" class="c0"/>
<circle cx="848" cy="146" r="8" class="c0"/>
<circle cx="814" cy="184" r="8" class="c0"/>
<circle cx="1068" cy="300" r="8" class="c0"/>
<circle cx="902" cy="298" r="8" class="c0"/>
<circle cx="1094" cy="218" r="8" class="c0"/>
<circle cx="948" cy="110" r="8" class="c0"/>
<circle cx="828" cy="196" r="8" class="c0"/>
<circle cx="750" cy="342" r="8" class="c0"/>
<circle cx="876" cy="122" r="8" class="c0"/>
<circle cx="1010" cy="192" r="8" class="c0"/>
<circle cx="1000" cy="426" r="8" class="c0"/>
<circle cx="838" cy="216" r="8" class="c0"/>
<circle cx="886" cy="112" r="8" class="c0"/>
<circle cx="836" cy="310" r="8" class="c0"/>
<circle cx="912" cy="340" r="8" class="c0"/>
<circle cx="828" cy="418" r="8" class="c0"/>
<circle cx="748" cy="266" r="8" class="c0"/>
<circle cx="886" cy="436" r="8" class="c0"/>
<circle cx="878" cy="164" r="8" class="c0"/>
<circle cx="944" cy="180" r="8" class="c0"/>
<circle cx="1030" cy="346" r="8" class="c0"/>
<circle cx="836" cy="360" r="8" class="c0"/>
<circle cx="914" cy="284" r="8" class="c0"/>
<circle cx="1062" cy="438" r="8" class="c0"/>
<circle cx="828" cy="132" r="8" class="c0"/>
<circle cx="888" cy="464" r="8" class="c0"/>
<circle cx="846" cy="332" r="8" class="c0"/>
<circle cx="960" cy="238" r="8" class="c0"/>
<circle cx="870" cy="140" r="8" class="c0"/>
<circle cx="1082" cy="328" r="8" class="c0"/>
<circle cx="1110" cy="228" r="8" class="c0"/>
<circle cx="1010" cy="396" r="8" class="c0"/>
<circle cx="836" cy="236" r="8" class="c0"/>
<circle cx="818" cy="362" r="8" class="c0"/>
<circle cx="830" cy="398" r="8" class="c0"/>
<circle cx="1042" cy="422" r="8" class="c0"/>
<circle cx="900" cy="426" r="8" class="c0"/>
<circle cx="902" cy="122" r="8" class="c0"/>
<circle cx="866" cy="372" r="8" class="c0"/>
<circle cx="932" cy="118" r="8" class="c0"/>
<circle cx="912" cy="214" r="8" class="c0"/>
<circle cx="1096" cy="196" r="8" class="c0"/>
<circle cx="1102" cy="384" r="8" class="c0"/>
<circle cx="958" cy="356" r="8" class="c0"/>
<circle cx="892" cy="184" r="8" class="c0"/>
<circle cx="1008" cy="348" r="8" class="c0"/>
<circle cx="1026" cy="204" r="8" class="c0"/>
<circle cx="848" cy="374" r="8" class="c0"/>
<circle cx="998" cy="220" r="8" class="c0"/>
<circle cx="956" cy="302" r="8" class="c0"/>
<circle cx="922" cy="132" r="8" class="c0"/>
<circle cx="896" cy="96" r="8" class="c0"/>
<circle cx="818" cy="122" r="8" class="c0"/>
<circle cx="1006" cy="112" r="8" class="c0"/>
<circle cx="1000" cy="454" r="8" class="c0"/>
<circle cx="1036" cy="294" r="8" class="c0"/>
<circle cx="1060" cy="372" r="8" class="c0"/>
<circle cx="996" cy="100" r="8" class="c0"/>
<circle cx="1006" cy="236" r="8" class="c0"/>
<circle cx="864" cy="292" r="8" class="c0"/>
<circle cx="940" cy="92" r="8" class="c0"/>
<circle cx="904" cy="274" r="8" class="c0"/>
<circle cx="936" cy="404" r="8" class="c0"/>
<circle cx="1040" cy="128" r="8" class="c0"/>
<circle cx="918" cy="440" r="6" class="c0"/>
<circle cx="1016" cy="416" r="6" class="c0"/>
<circle cx="782" cy="166" r="6" class="c0"/>
<circle cx="870" cy="424" r="6" class="c0"/>
<circle cx="910" cy="472" r="6" class="c0"/>
<circle cx="978" cy="270" r="6" class="c0"/>
<circle cx="988" cy="156" r="6" class="c0"/>
<circle cx="798" cy="308" r="6" class="c0"/>
<circle cx="1078" cy="158" r="6" class="c0"/>
<circle cx="940" cy="478" r="6" class="c0"/>
<circle cx="936" cy="198" r="6" class="c0"/>
<circle cx="1062" cy="418" r="6" class="c0"/>
<circle cx="868" cy="464" r="6" class="c0"/>
<circle cx="960" cy="120" r="6" class="c0"/>
<circle cx="882" cy="322" r="6" class="c0"/>
<circle cx="738" cy="332" r="6" class="c0"/>
<circle cx="1112" cy="246" r="6" class="c0"/>
<circle cx="736" cy="232" r="6" class="c0"/>
<circle cx="904" cy="158" r="6" class="c0"/>
<circle cx="764" cy="246" r="6" class="c0"/>
<circle cx="1036" cy="164" r="6" class="c0"/>
<circle cx="962" cy="216" r="6" class="c0"/>
<circle cx="816" cy="266" r="6" class="c0"/>
<circle cx="1112" cy="282" r="6" class="c0"/>
<circle cx="886" cy="244" r="6" class="c0"/>
<circle cx="1048" cy="264" r="6" class="c0"/>
<circle cx="794" cy="180" r="6" class="c0"/>
<circle cx="742" cy="216" r="6" class="c0"/>
<circle cx="776" cy="384" r="6" class="c0"/>
<circle cx="986" cy="418" r="6" class="c0"/>
<circle cx="792" cy="426" r="6" class="c0"/>
<circle cx="838" cy="272" r="6" class="c0"/>
<circle cx="1068" cy="168" r="6" class="c0"/>
<circle cx="922" cy="252" r="6" class="c0"/>
<circle cx="842" cy="456" r="6" class="c0"/>
<circle cx="892" cy="288" r="6" class="c0"/>
<circle cx="908" cy="374" r="6" class="c0"/>
<circle cx="806" cy="374" r="6" class="c0"/>
<circle cx="850" cy="264" r="6" class="c0"/>
<circle cx="974" cy="474" r="6" class="c0"/>
<circle cx="846" cy="248" r="6" class="c0"/>
<circle cx="1106" cy="208" r="6" class="c0"/>
<circle cx="790" cy="146" r="6" class="c0"/>
<circle cx="734" cy="256" r="6" class="c0"/>
<circle cx="752" cy="358" r="6" class="c0"/>
<circle cx="1004" cy="128" r="6" class="c0"/>
<circle cx="864" cy="110" r="6" class="c0"/>
<circle cx="1078" cy="258" r="6" class="c0"/>
<circle cx="1030" cy="464" r="6" class="c0"/>
<circle cx="944" cy="150" r="6" class="c0"/>
<circle cx="1068" cy="150" r="6" class="c0"/>
<circle cx="1022" cy="278" r="6" class="c0"/>
<circle cx="932" cy="142" r="6" class="c0"/>
<circle cx="914" cy="264" r="6" class="c0"/>
<circle cx="998" cy="358" r="6" class="c0"/>
<circle cx="1026" cy="238" r="6" class="c0"/>
<circle cx="984" cy="142" r="6" class="c0"/>
<circle cx="922" cy="330" r="6" class="c0"/>
<circle cx="834" cy="290" r="6" class="c0"/>
<circle cx="928" cy="206" r="6" class="c0"/>
<circle cx="870" cy="440" r="6" class="c0"/>
<circle cx="922" cy="310" r="6" class="c0"/>
<circle cx="1050" cy="448" r="6" class="c0"/>
<circle cx="786" cy="254" r="6" class="c0"/>
<circle cx="768" cy="336" r="6" class="c0"/>
<circle cx="822" cy="246" r="6" class="c0"/>
<circle cx="732" cy="270" r="6" class="c0"/>
<circle cx="1008" cy="208" r="6" class="c0"/>
<circle cx="916" cy="238" r="6" class="c0"/>
</svg>
