<?xml version="1.0" encoding="utf-8"?>
<svg xmlns="http://www.w3.org/2000/svg"
     xmlns:xlink="http://www.w3.org/1999/xlink" width="1920" height="1440" >

            <defs>
            <style type="text/css"><![CDATA[
circle {stroke: none;}
.c0 {fill: #FFFFFF;}
]]></style>
            </defs>
<rect x="0" y="0" width="1920" height="1440" fill="black"/>
<circle cx="1004" cy="1392" r="12" class="c0"/>
<circle cx="1178" cy="612" r="12" class="c0"/>
<circle cx="1118" cy="1146" r="12" class="c0"/>
<circle cx="1278" cy="292" r="12" class="c0"/>
<circle cx="1162" cy="436" r="12" class="c0"/>
<circle cx="948" cy="1248" r="12" class="c0"/>
<circle cx="1084" cy="962" r="12" class="c0"/>
<circle cx="1014" cy="968" r="12" class="c0"/>
<circle cx="858" cy="960" r="12" class="c0"/>
<circle cx="922" cy="766" r="12" class="c0"/>
<circle cx="992" cy="578" r="12" class="c0"/>
<circle cx="946" cy="1354" r="12" class="c0"/>
<circle cx="902" cy="668" r="12" class="c0"/>
<circle cx="1116" cy="494" r="12" class="c0"/>
<circle cx="1134" cy="986" r="12" class="c0"/>
<circle cx="988" cy="484" r="12" class="c0"/>
<circle cx="1208" cy="1278" r="12" class="c0"/>
<circle cx="886" cy="758" r="12" class="c0"/>
<circle cx="1008" cy="560" r="12" class="c0"/>
<circle cx="1070" cy="444" r="12" class="c0"/>
<circle cx="1228" cy="1302" r="12" class="c0"/>
<circle cx="1082" cy="694" r="12" class="c0"/>
<circle cx="966" cy="1046" r="12" class="c0"/>
<circle cx="954" cy="1426" r="12" class="c0"/>
<circle cx="1056" cy="1092" r="12" class="c0"/>
<circle cx="1116" cy="880" r="12" class="c0"/>
<circle cx="916" cy="686" r="12" class="c0"/>
<circle cx="918" cy="1002" r="12" class="c0"/>
<circle cx="1056" cy="1054" r="12" class="c0"/>
<circle cx="950" cy="1090" r="12" class="c0"/>
<circle cx="1060" cy="1384" r="12" class="c0"/>
<circle cx="978" cy="1266" r="12" class="c0"/>
<circle cx="1088" cy="786" r="12" class="c0"/>
<circle cx="1124" cy="1268" r="12" class="c0"/>
<circle cx="924" cy="1268" r="12" class="c0"/>
<circle cx="1042" cy="398" r="12" class="c0"/>
<circle cx="810" cy="868" r="12" class="c0"/>
<circle cx="1160" cy="1016" r="12" class="c0"/>
<circle cx="1048" cy="1364" r="12" class="c0"/>
<circle cx="1052" cy="1296" r="12" class="c0"/>
<circle cx="1122" cy="1192" r="12" class="c0"/>
<circle cx="1234" cy="1262" r="12" class="c0"/>
<circle cx="1062" cy="1156" r="12" class="c0"/>
<circle cx="1054" cy="684" r="12" class="c0"/>
<circle cx="1010" cy="508" r="12" class="c0"/>
<circle cx="1198" cy="1362" r="12" class="c0"/>
<circle cx="994" cy="1296" r="12" class="c0"/>
<circle cx="1226" cy="1404" r="12" class="c0"/>
<circle cx="906" cy="720" r="12" class="c0"/>
<circle cx="944" cy="748" r="12" class="c0"/>
<circle cx="876" cy="1178" r="12" class="c0"/>
<circle cx="864" cy="1132" r="12" class="c0"/>
<circle cx="954" cy="1398" r="12" class="c0"/>
<circle cx="1100" cy="764" r="12" class="c0"/>
<circle cx="966" cy="862" r="12" class="c0"/>
<circle cx="1194" cy="1328" r="12" class="c0"/>
<circle cx="1026" cy="458" r="12" class="c0"/>
<circle cx="1034" cy="790" r="12" class="c0"/>
<circle cx="862" cy="1218" r="12" class="c0"/>
<circle cx="960" cy="988" r="12" class="c0"/>
<circle cx="942" cy="1216" r="12" class="c0"/>
<circle cx="998" cy="898" r="12" class="c0"/>
<circle cx="1080" cy="526" r="12" class="c0"/>
<circle cx="1144" cy="672" r="12" class="c0"/>
<circle cx="976" cy="672" r="12" class="c0"/>
<circle cx="1164" cy="540" r="12" class="c0"/>
<circle cx="1006" cy="598" r="10" class="c0"/>
<circle cx="1068" cy="762" r="10" class="c0"/>
<circle cx="1034" cy="572" r="10" class="c0"/>
<circle cx="1100" cy="1104" r="10" class="c0"/>
<circle cx="1030" cy="548" r="10" class="c0"/>
<circle cx="820" cy="1304" r="10" class="c0"/>
<circle cx="884" cy="962" r="10" class="c0"/>
<circle cx="1182" cy="1422" r="10" class="c0"/>
<circle cx="1114" cy="608" r="10" class="c0"/>
<circle cx="1116" cy="1038" r="10" class="c0"/>
<circle cx="978" cy="1118" r="10" class="c0"/>
<circle cx="882" cy="1228" r="10" class="c0"/>
<circle cx="1132" cy="1102" r="10" class="c0"/>
<circle cx="880" cy="1036" r="10" class="c0"/>
<circle cx="1088" cy="616" r="10" class="c0"/>
<circle cx="1246" cy="338" r="10" class="c0"/>
<circle cx="1018" cy="1186" r="10" class="c0"/>
<circle cx="944" cy="1122" r="10" class="c0"/>
<circle cx="954" cy="576" r="10" class="c0"/>
<circle cx="1062" cy="996" r="10" class="c0"/>
<circle cx="966" cy="1314" r="10" class="c0"/>
<circle cx="992" cy="938" r="10" class="c0"/>
<circle cx="1182" cy="1064" r="10" class="c0"/>
<circle cx="1118" cy="1390" r="10" class="c0"/>
<circle cx="1118" cy="1010" r="10" class="c0"/>
<circle cx="1244" cy="1380" r="10" class="c0"/>
<circle cx="1046" cy="1246" r="10" class="c0"/>
<circle cx="950" cy="836" r="10" class="c0"/>
<circle cx="1020" cy="738" r="10" class="c0"/>
<circle cx="886" cy="896" r="10" class="c0"/>
<circle cx="1078" cy="1410" r="10" class="c0"/>
<circle cx="1072" cy="1236" r="10" class="c0"/>
<circle cx="1192" cy="1104" r="10" class="c0"/>
<circle cx="1032" cy="766" r="10" class="c0"/>
<circle cx="1086" cy="1282" r="10" class="c0"/>
<circle cx="902" cy="1218" r="10" class="c0"/>
<circle cx="1112" cy="688" r="10" class="c0"/>
<circle cx="966" cy="608" r="10" class="c0"/>
<circle cx="1070" cy="1332" r="10" class="c0"/>
<circle cx="1064" cy="310" r="10" class="c0"/>
<circle cx="816" cy="1336" r="10" class="c0"/>
<circle cx="814" cy="1176" r="10" class="c0"/>
<circle cx="1176" cy="566" r="10" class="c0"/>
<circle cx="1128" cy="828" r="10" class="c0"/>
<circle cx="1008" cy="718" r="10" class="c0"/>
<circle cx="916" cy="1112" r="10" class="c0"/>
<circle cx="1142" cy="548" r="10" class="c0"/>
<circle cx="1016" cy="252" r="10" class="c0"/>
<circle cx="1122" cy="918" r="10" class="c0"/>
<circle cx="1028" cy="1020" r="10" class="c0"/>
<circle cx="1100" cy="1320" r="10" class="c0"/>
<circle cx="1182" cy="1036" r="10" class="c0"/>
<circle cx="1130" cy="460" r="10" class="c0"/>
<circle cx="848" cy="1032" r="10" class="c0"/>
<circle cx="1064" cy="418" r="10" class="c0"/>
<circle cx="994" cy="1130" r="10" class="c0"/>
<circle cx="1168" cy="1048" r="10" class="c0"/>
<circle cx="1060" cy="1216" r="10" class="c0"/>
<circle cx="912" cy="1070" r="10" class="c0"/>
<circle cx="816" cy="1130" r="10" class="c0"/>
<circle cx="872" cy="932" r="10" class="c0"/>
<circle cx="1126" cy="1056" r="10" class="c0"/>
<circle cx="1134" cy="1222" r="10" class="c0"/>
<circle cx="916" cy="834" r="10" class="c0"/>
<circle cx="938" cy="978" r="10" class="c0"/>
<circle cx="1092" cy="1172" r="10" class="c0"/>
<circle cx="950" cy="718" r="10" class="c0"/>
<circle cx="868" cy="994" r="10" class="c0"/>
<circle cx="1086" cy="892" r="10" class="c0"/>
<circle cx="1040" cy="244" r="10" class="c0"/>
<circle cx="1148" cy="570" r="10" class="c0"/>
<circle cx="1154" cy="780" r="10" class="c0"/>
<circle cx="944" cy="1016" r="10" class="c0"/>
<circle cx="1106" cy="522" r="10" class="c0"/>
<circle cx="1144" cy="1426" r="10" class="c0"/>
<circle cx="1058" cy="912" r="10" class="c0"/>
<circle cx="1106" cy="1252" r="10" class="c0"/>
<circle cx="1044" cy="302" r="10" class="c0"/>
<circle cx="986" cy="1350" r="10" class="c0"/>
<circle cx="1232" cy="322" r="10" class="c0"/>
<circle cx="1000" cy="870" r="10" class="c0"/>
<circle cx="1048" cy="956" r="10" class="c0"/>
<circle cx="1114" cy="638" r="10" class="c0"/>
<circle cx="1002" cy="1012" r="10" class="c0"/>
<circle cx="1142" cy="812" r="10" class="c0"/>
<circle cx="966" cy="756" r="10" class="c0"/>
<circle cx="916" cy="1242" r="10" class="c0"/>
<circle cx="1104" cy="1226" r="10" class="c0"/>
<circle cx="1038" cy="528" r="10" class="c0"/>
<circle cx="932" cy="1324" r="10" class="c0"/>
<circle cx="1198" cy="354" r="10" class="c0"/>
<circle cx="990" cy="976" r="10" class="c0"/>
<circle cx="1034" cy="502" r="10" class="c0"/>
<circle cx="1138" cy="1250" r="10" class="c0"/>
<circle cx="1264" cy="1364" r="10" class="c0"/>
<circle cx="1110" cy="964" r="10" class="c0"/>
<circle cx="970" cy="1012" r="10" class="c0"/>
<circle cx="1038" cy="1126" r="10" class="c0"/>
<circle cx="966" cy="1144" r="10" class="c0"/>
<circle cx="1168" cy="384" r="10" class="c0"/>
<circle cx="908" cy="908" r="10" class="c0"/>
<circle cx="1050" cy="660" r="10" class="c0"/>
<circle cx="964" cy="1166" r="10" class="c0"/>
<circle cx="1046" cy="736" r="10" class="c0"/>
<circle cx="1150" cy="912" r="10" class="c0"/>
<circle cx="1144" cy="1368" r="10" class="c0"/>
<circle cx="962" cy="1226" r="10" class="c0"/>
<circle cx="1058" cy="854" r="10" class="c0"/>
<circle cx="1034" cy="1218" r="10" class="c0"/>
<circle cx="904" cy="600" r="10" class="c0"/>
<circle cx="1132" cy="1336" r="10" class="c0"/>
<circle cx="1052" cy="270" r="10" class="c0"/>
<circle cx="982" cy="772" r="10" class="c0"/>
<circle cx="1166" cy="1328" r="10" class="c0"/>
<circle cx="1122" cy="710" r="10" class="c0"/>
<circle cx="966" cy="648" r="10" class="c0"/>
<circle cx="1138" cy="1028" r="10" class="c0"/>
<circle cx="1168" cy="592" r="10" class="c0"/>
<circle cx="1066" cy="708" r="10" class="c0"/>
<circle cx="1010" cy="778" r="10" class="c0"/>
<circle cx="932" cy="906" r="10" class="c0"/>
<circle cx="1228" cy="1226" r="10" class="c0"/>
<circle cx="1100" cy="812" r="10" class="c0"/>
<circle cx="1022" cy="586" r="10" class="c0"/>
<circle cx="1136" cy="1080" r="10" class="c0"/>
<circle cx="1142" cy="522" r="10" class="c0"/>
<circle cx="1206" cy="1086" r="10" class="c0"/>
<circle cx="1222" cy="344" r="10" class="c0"/>
<circle cx="916" cy="638" r="10" class="c0"/>
<circle cx="1032" cy="1276" r="10" class="c0"/>
<circle cx="1004" cy="1064" r="10" class="c0"/>
<circle cx="816" cy="1218" r="10" class="c0"/>
<circle cx="976" cy="720" r="10" class="c0"/>
<circle cx="1050" cy="830" r="10" class="c0"/>
<circle cx="898" cy="950" r="10" class="c0"/>
<circle cx="978" cy="922" r="10" class="c0"/>
<circle cx="958" cy="956" r="10" class="c0"/>
<circle cx="962" cy="784" r="10" class="c0"/>
<circle cx="1000" cy="1210" r="10" class="c0"/>
<circle cx="788" cy="1208" r="10" class="c0"/>
<circle cx="1014" cy="1412" r="10" class="c0"/>
<circle cx="1070" cy="288" r="10" class="c0"/>
<circle cx="898" cy="1192" r="10" class="c0"/>
<circle cx="1032" cy="608" r="10" class="c0"/>
<circle cx="1088" cy="992" r="10" class="c0"/>
<circle cx="1028" cy="652" r="10" class="c0"/>
<circle cx="828" cy="1272" r="10" class="c0"/>
<circle cx="1038" cy="978" r="10" class="c0"/>
<circle cx="1082" cy="848" r="10" class="c0"/>
<circle cx="918" cy="964" r="10" class="c0"/>
<circle cx="1002" cy="1042" r="10" class="c0"/>
<circle cx="1018" cy="1254" r="10" class="c0"/>
<circle cx="1102" cy="864" r="10" class="c0"/>
<circle cx="960" cy="512" r="10" class="c0"/>
<circle cx="838" cy="1290" r="10" class="c0"/>
<circle cx="1180" cy="518" r="10" class="c0"/>
<circle cx="1186" cy="1190" r="10" class="c0"/>
<circle cx="848" cy="1168" r="10" class="c0"/>
<circle cx="1162" cy="644" r="10" class="c0"/>
<circle cx="1078" cy="560" r="10" class="c0"/>
<circle cx="1156" cy="1196" r="10" class="c0"/>
<circle cx="1100" cy="468" r="10" class="c0"/>
<circle cx="874" cy="1076" r="10" class="c0"/>
<circle cx="1236" cy="364" r="10" class="c0"/>
<circle cx="892" cy="1302" r="10" class="c0"/>
<circle cx="1116" cy="540" r="10" class="c0"/>
<circle cx="1056" cy="632" r="10" class="c0"/>
<circle cx="900" cy="1058" r="10" class="c0"/>
<circle cx="1102" cy="664" r="10" class="c0"/>
<circle cx="816" cy="1154" r="10" class="c0"/>
<circle cx="1030" cy="1342" r="10" class="c0"/>
<circle cx="878" cy="1254" r="10" class="c0"/>
<circle cx="1094" cy="1026" r="10" class="c0"/>
<circle cx="1002" cy="1324" r="10" class="c0"/>
<circle cx="958" cy="1276" r="10" class="c0"/>
<circle cx="876" cy="656" r="10" class="c0"/>
<circle cx="1242" cy="1426" r="10" class="c0"/>
<circle cx="1152" cy="1136" r="10" class="c0"/>
<circle cx="1042" cy="438" r="10" class="c0"/>
<circle cx="984" cy="1182" r="10" class="c0"/>
<circle cx="1172" cy="1298" r="10" class="c0"/>
<circle cx="862" cy="1378" r="8" class="c0"/>
<circle cx="1130" cy="1314" r="8" class="c0"/>
<circle cx="958" cy="816" r="8" class="c0"/>
<circle cx="926" cy="814" r="8" class="c0"/>
<circle cx="974" cy="896" r="8" class="c0"/>
<circle cx="1206" cy="1220" r="8" class="c0"/>
<circle cx="1042" cy="1182" r="8" class="c0"/>
<circle cx="1102" cy="1430" r="8" class="c0"/>
<circle cx="1098" cy="1070" r="8" class="c0"/>
<circle cx="944" cy="690" r="8" class="c0"/>
<circle cx="1020" cy="888" r="8" class="c0"/>
<circle cx="1248" cy="1346" r="8" class="c0"/>
<circle cx="1020" cy="1304" r="8" class="c0"/>
<circle cx="1076" cy="1110" r="8" class="c0"/>
<circle cx="1068" cy="794" r="8" class="c0"/>
<circle cx="994" cy="1254" r="8" class="c0"/>
<circle cx="1040" cy="1418" r="8" class="c0"/>
<circle cx="1084" cy="428" r="8" class="c0"/>
<circle cx="934" cy="624" r="8" class="c0"/>
<circle cx="1024" cy="1364" r="8" class="c0"/>
<circle cx="1170" cy="1260" r="8" class="c0"/>
<circle cx="1170" cy="498" r="8" class="c0"/>
<circle cx="828" cy="1324" r="8" class="c0"/>
<circle cx="940" cy="1160" r="8" class="c0"/>
<circle cx="982" cy="556" r="8" class="c0"/>
<circle cx="840" cy="1248" r="8" class="c0"/>
<circle cx="1178" cy="1152" r="8" class="c0"/>
<circle cx="1246" cy="1318" r="8" class="c0"/>
<circle cx="1168" cy="1372" r="8" class="c0"/>
<circle cx="1116" cy="842" r="8" class="c0"/>
<circle cx="1306" cy="288" r="8" class="c0"/>
<circle cx="1150" cy="486" r="8" class="c0"/>
<circle cx="924" cy="790" r="8" class="c0"/>
<circle cx="1218" cy="1328" r="8" class="c0"/>
<circle cx="990" cy="694" r="8" class="c0"/>
<circle cx="1156" cy="402" r="8" class="c0"/>
<circle cx="904" cy="1402" r="8" class="c0"/>
<circle cx="1156" cy="1088" r="8" class="c0"/>
<circle cx="990" cy="450" r="8" class="c0"/>
<circle cx="1016" cy="1138" r="8" class="c0"/>
<circle cx="908" cy="1152" r="8" class="c0"/>
<circle cx="1064" cy="546" r="8" class="c0"/>
<circle cx="844" cy="1316" r="8" class="c0"/>
<circle cx="928" cy="1374" r="8" class="c0"/>
<circle cx="1034" cy="364" r="8" class="c0"/>
<circle cx="908" cy="860" r="8" class="c0"/>
<circle cx="896" cy="784" r="8" class="c0"/>
<circle cx="1154" cy="1060" r="8" class="c0"/>
<circle cx="1030" cy="322" r="8" class="c0"/>
<circle cx="1020" cy="828" r="8" class="c0"/>
<circle cx="1212" cy="1242" r="8" class="c0"/>
<circle cx="986" cy="1372" r="8" class="c0"/>
<circle cx="848" cy="1204" r="8" class="c0"/>
<circle cx="924" cy="1052" r="8" class="c0"/>
<circle cx="858" cy="1092" r="8" class="c0"/>
<circle cx="838" cy="1076" r="8" class="c0"/>
<circle cx="1056" cy="342" r="8" class="c0"/>
<circle cx="1136" cy="770" r="8" class="c0"/>
<circle cx="1214" cy="1194" r="8" class="c0"/>
<circle cx="942" cy="548" r="8" class="c0"/>
<circle cx="1214" cy="370" r="8" class="c0"/>
<circle cx="934" cy="604" r="8" class="c0"/>
<circle cx="1060" cy="474" r="8" class="c0"/>
<circle cx="1054" cy="776" r="8" class="c0"/>
<circle cx="1124" cy="1362" r="8" class="c0"/>
<circle cx="938" cy="1190" r="8" class="c0"/>
<circle cx="1072" cy="330" r="8" class="c0"/>
<circle cx="1174" cy="1210" r="8" class="c0"/>
<circle cx="1040" cy="894" r="8" class="c0"/>
<circle cx="1188" cy="582" r="8" class="c0"/>
<circle cx="1000" cy="756" r="8" class="c0"/>
<circle cx="1202" cy="1152" r="8" class="c0"/>
<circle cx="1148" cy="594" r="8" class="c0"/>
<circle cx="1080" cy="658" r="8" class="c0"/>
<circle cx="982" cy="880" r="8" class="c0"/>
<circle cx="994" cy="1234" r="8" class="c0"/>
<circle cx="838" cy="1096" r="8" class="c0"/>
<circle cx="1282" cy="326" r="8" class="c0"/>
<circle cx="1080" cy="1358" r="8" class="c0"/>
<circle cx="980" cy="1206" r="8" class="c0"/>
<circle cx="1058" cy="566" r="8" class="c0"/>
<circle cx="1160" cy="1270" r="8" class="c0"/>
<circle cx="804" cy="1248" r="8" class="c0"/>
<circle cx="1122" cy="1294" r="8" class="c0"/>
<circle cx="1186" cy="1274" r="8" class="c0"/>
<circle cx="992" cy="642" r="8" class="c0"/>
<circle cx="1134" cy="1172" r="8" class="c0"/>
<circle cx="980" cy="806" r="8" class="c0"/>
<circle cx="1142" cy="614" r="8" class="c0"/>
<circle cx="1110" cy="440" r="8" class="c0"/>
<circle cx="1190" cy="1392" r="8" class="c0"/>
<circle cx="1200" cy="512" r="8" class="c0"/>
<circle cx="964" cy="1340" r="8" class="c0"/>
<circle cx="806" cy="1320" r="8" class="c0"/>
<circle cx="1036" cy="870" r="8" class="c0"/>
<circle cx="1028" cy="1072" r="8" class="c0"/>
<circle cx="1202" cy="1176" r="8" class="c0"/>
<circle cx="996" cy="842" r="8" class="c0"/>
<circle cx="1156" cy="462" r="8" class="c0"/>
<circle cx="1234" cy="302" r="8" class="c0"/>
<circle cx="1024" cy="936" r="8" class="c0"/>
<circle cx="1020" cy="422" r="8" class="c0"/>
<circle cx="938" cy="848" r="8" class="c0"/>
<circle cx="1088" cy="736" r="8" class="c0"/>
<circle cx="1154" cy="950" r="8" class="c0"/>
<circle cx="980" cy="1330" r="8" class="c0"/>
<circle cx="886" cy="1370" r="8" class="c0"/>
<circle cx="924" cy="656" r="8" class="c0"/>
<circle cx="974" cy="1406" r="8" class="c0"/>
<circle cx="1148" cy="740" r="8" class="c0"/>
<circle cx="1142" cy="888" r="8" class="c0"/>
<circle cx="1110" cy="788" r="8" class="c0"/>
<circle cx="1202" cy="532" r="8" class="c0"/>
<circle cx="1090" cy="578" r="8" class="c0"/>
<circle cx="928" cy="1414" r="8" class="c0"/>
<circle cx="1228" cy="1204" r="8" class="c0"/>
<circle cx="1172" cy="792" r="8" class="c0"/>
<circle cx="1068" cy="494" r="8" class="c0"/>
<circle cx="1270" cy="1308" r="8" class="c0"/>
<circle cx="840" cy="1220" r="8" class="c0"/>
<circle cx="794" cy="1282" r="8" class="c0"/>
<circle cx="1012" cy="628" r="8" class="c0"/>
<circle cx="1032" cy="914" r="8" class="c0"/>
<circle cx="1080" cy="1208" r="8" class="c0"/>
<circle cx="868" cy="1360" r="8" class="c0"/>
<circle cx="978" cy="844" r="8" class="c0"/>
<circle cx="876" cy="1202" r="8" class="c0"/>
<circle cx="1070" cy="672" r="8" class="c0"/>
<circle cx="1228" cy="1118" r="8" class="c0"/>
<circle cx="968" cy="1102" r="8" class="c0"/>
<circle cx="1254" cy="312" r="8" class="c0"/>
<circle cx="1110" cy="1084" r="8" class="c0"/>
<circle cx="838" cy="1368" r="8" class="c0"/>
<circle cx="1034" cy="716" r="8" class="c0"/>
<circle cx="1078" cy="868" r="8" class="c0"/>
<circle cx="880" cy="1110" r="8" class="c0"/>
<circle cx="1092" cy="546" r="8" class="c0"/>
<circle cx="1030" cy="342" r="8" class="c0"/>
<circle cx="980" cy="528" r="8" class="c0"/>
<circle cx="988" cy="244" r="8" class="c0"/>
<circle cx="1004" cy="536" r="8" class="c0"/>
<circle cx="1024" cy="1100" r="8" class="c0"/>
<circle cx="1070" cy="1130" r="8" class="c0"/>
<circle cx="898" cy="1268" r="8" class="c0"/>
<circle cx="1094" cy="1130" r="8" class="c0"/>
<circle cx="902" cy="986" r="8" class="c0"/>
<circle cx="782" cy="880" r="8" class="c0"/>
<circle cx="854" cy="784" r="8" class="c0"/>
<circle cx="1092" cy="508" r="8" class="c0"/>
<circle cx="1092" cy="914" r="8" class="c0"/>
<circle cx="1154" cy="1164" r="8" class="c0"/>
<circle cx="1052" cy="370" r="8" class="c0"/>
<circle cx="1182" cy="1086" r="8" class="c0"/>
<circle cx="1028" cy="1398" r="8" class="c0"/>
<circle cx="1254" cy="1242" r="8" class="c0"/>
<circle cx="1120" cy="734" r="8" class="c0"/>
<circle cx="830" cy="812" r="8" class="c0"/>
<circle cx="894" cy="738" r="8" class="c0"/>
<circle cx="860" cy="1194" r="8" class="c0"/>
<circle cx="1008" cy="810" r="8" class="c0"/>
<circle cx="904" cy="1344" r="8" class="c0"/>
<circle cx="1106" cy="900" r="8" class="c0"/>
<circle cx="1100" cy="1198" r="8" class="c0"/>
<circle cx="926" cy="1092" r="8" class="c0"/>
<circle cx="996" cy="1156" r="8" class="c0"/>
<circle cx="892" cy="646" r="8" class="c0"/>
<circle cx="922" cy="1174" r="8" class="c0"/>
<circle cx="1140" cy="1396" r="8" class="c0"/>
<circle cx="1056" cy="878" r="8" class="c0"/>
<circle cx="946" cy="1310" r="8" class="c0"/>
<circle cx="888" cy="842" r="8" class="c0"/>
<circle cx="926" cy="1146" r="8" class="c0"/>
<circle cx="1314" cy="306" r="8" class="c0"/>
<circle cx="1006" cy="1170" r="8" class="c0"/>
<circle cx="956" cy="1194" r="8" class="c0"/>
<circle cx="912" cy="1132" r="8" class="c0"/>
<circle cx="1148" cy="858" r="8" class="c0"/>
<circle cx="1166" cy="1236" r="8" class="c0"/>
<circle cx="1212" cy="1134" r="8" class="c0"/>
<circle cx="1200" cy="1406" r="8" class="c0"/>
<circle cx="1078" cy="480" r="8" class="c0"/>
<circle cx="884" cy="862" r="8" class="c0"/>
<circle cx="940" cy="644" r="8" class="c0"/>
<circle cx="1184" cy="410" r="8" class="c0"/>
<circle cx="944" cy="922" r="8" class="c0"/>
<circle cx="910" cy="1034" r="8" class="c0"/>
<circle cx="1102" cy="1298" r="8" class="c0"/>
<circle cx="1050" cy="1018" r="8" class="c0"/>
<circle cx="1192" cy="1238" r="8" class="c0"/>
<circle cx="926" cy="734" r="8" class="c0"/>
<circle cx="834" cy="1146" r="8" class="c0"/>
<circle cx="1228" cy="1364" r="8" class="c0"/>
<circle cx="900" cy="822" r="8" class="c0"/>
<circle cx="946" cy="528" r="8" class="c0"/>
<circle cx="1094" cy="944" r="8" class="c0"/>
<circle cx="950" cy="884" r="8" class="c0"/>
<circle cx="930" cy="874" r="8" class="c0"/>
<circle cx="998" cy="800" r="8" class="c0"/>
<circle cx="1084" cy="1082" r="8" class="c0"/>
<circle cx="964" cy="538" r="8" class="c0"/>
<circle cx="1050" cy="324" r="8" class="c0"/>
<circle cx="830" cy="836" r="8" class="c0"/>
<circle cx="1060" cy="612" r="8" class="c0"/>
<circle cx="1074" cy="1040" r="8" class="c0"/>
<circle cx="1270" cy="1342" r="8" class="c0"/>
<circle cx="1078" cy="1264" r="8" class="c0"/>
<circle cx="1142" cy="704" r="8" class="c0"/>
<circle cx="1178" cy="476" r="8" class="c0"/>
<circle cx="1148" cy="838" r="8" class="c0"/>
<circle cx="1004" cy="1092" r="8" class="c0"/>
<circle cx="1104" cy="1372" r="8" class="c0"/>
<circle cx="988" cy="746" r="8" class="c0"/>
<circle cx="1038" cy="850" r="8" class="c0"/>
<circle cx="1302" cy="316" r="8" class="c0"/>
<circle cx="898" cy="1082" r="8" class="c0"/>
<circle cx="944" cy="774" r="8" class="c0"/>
<circle cx="838" cy="1056" r="8" class="c0"/>
<circle cx="1020" cy="1052" r="8" class="c0"/>
<circle cx="1076" cy="1302" r="8" class="c0"/>
<circle cx="1020" cy="690" r="8" class="c0"/>
<circle cx="1170" cy="1102" r="8" class="c0"/>
<circle cx="950" cy="664" r="8" class="c0"/>
<circle cx="1136" cy="434" r="8" class="c0"/>
<circle cx="1138" cy="634" r="8" class="c0"/>
<circle cx="1174" cy="1348" r="8" class="c0"/>
<circle cx="1274" cy="1380" r="8" class="c0"/>
<circle cx="886" cy="1158" r="8" class="c0"/>
<circle cx="888" cy="1008" r="8" class="c0"/>
<circle cx="986" cy="606" r="8" class="c0"/>
<circle cx="1058" cy="1268" r="8" class="c0"/>
<circle cx="1160" cy="822" r="8" class="c0"/>
<circle cx="1050" cy="596" r="8" class="c0"/>
<circle cx="1108" cy="568" r="8" class="c0"/>
<circle cx="1170" cy="768" r="8" class="c0"/>
<circle cx="1254" cy="1274" r="8" class="c0"/>
<circle cx="1028" cy="1162" r="8" class="c0"/>
<circle cx="1016" cy="478" r="8" class="c0"/>
<circle cx="934" cy="934" r="8" class="c0"/>
<circle cx="1080" cy="1014" r="8" class="c0"/>
<circle cx="1158" cy="1384" r="8" class="c0"/>
<circle cx="1152" cy="970" r="8" class="c0"/>
<circle cx="1000" cy="272" r="8" class="c0"/>
<circle cx="924" cy="1292" r="8" class="c0"/>
<circle cx="936" cy="674" r="8" class="c0"/>
<circle cx="810" cy="1198" r="8" class="c0"/>
<circle cx="896" cy="922" r="8" class="c0"/>
<circle cx="856" cy="1112" r="8" class="c0"/>
<circle cx="1150" cy="1304" r="8" class="c0"/>
<circle cx="812" cy="832" r="8" class="c0"/>
<circle cx="1026" cy="278" r="8" class="c0"/>
<circle cx="912" cy="1316" r="8" class="c0"/>
<circle cx="892" cy="1388" r="8" class="c0"/>
<circle cx="1216" cy="1386" r="8" class="c0"/>
<circle cx="860" cy="1050" r="8" class="c0"/>
<circle cx="1192" cy="388" r="8" class="c0"/>
<circle cx="828" cy="1352" r="8" class="c0"/>
<circle cx="1154" cy="1348" r="8" class="c0"/>
<circle cx="1162" cy="986" r="8" class="c0"/>
<circle cx="1268" cy="346" r="8" class="c0"/>
<circle cx="1134" cy="1126" r="8" class="c0"/>
<circle cx="1012" cy="912" r="8" class="c0"/>
<circle cx="1068" cy="928" r="8" class="c0"/>
<circle cx="912" cy="930" r="8" class="c0"/>
<circle cx="1002" cy="1274" r="8" class="c0"/>
<circle cx="972" cy="1070" r="8" class="c0"/>
<circle cx="1128" cy="1416" r="8" class="c0"/>
<circle cx="1052" cy="454" r="8" class="c0"/>
<circle cx="1200" cy="1306" r="8" class="c0"/>
<circle cx="1014" cy="858" r="8" class="c0"/>
<circle cx="896" cy="1122" r="8" class="c0"/>
<circle cx="956" cy="936" r="8" class="c0"/>
<circle cx="976" cy="464" r="8" class="c0"/>
<circle cx="1208" cy="404" r="8" class="c0"/>
<circle cx="854" cy="982" r="8" class="c0"/>
<circle cx="1032" cy="680" r="8" class="c0"/>
<circle cx="882" cy="1398" r="8" class="c0"/>
<circle cx="914" cy="744" r="8" class="c0"/>
<circle cx="836" cy="1114" r="8" class="c0"/>
<circle cx="1092" cy="1382" r="8" class="c0"/>
<circle cx="1144" cy="1184" r="8" class="c0"/>
<circle cx="1250" cy="1292" r="8" class="c0"/>
<circle cx="1120" cy="1236" r="8" class="c0"/>
<circle cx="794" cy="1188" r="8" class="c0"/>
<circle cx="1102" cy="1402" r="8" class="c0"/>
<circle cx="962" cy="700" r="8" class="c0"/>
<circle cx="986" cy="826" r="8" class="c0"/>
<circle cx="822" cy="1252" r="8" class="c0"/>
<circle cx="926" cy="568" r="8" class="c0"/>
<circle cx="976" cy="1430" r="8" class="c0"/>
<circle cx="1286" cy="1394" r="8" class="c0"/>
<circle cx="828" cy="1230" r="8" class="c0"/>
<circle cx="798" cy="890" r="8" class="c0"/>
<circle cx="944" cy="806" r="8" class="c0"/>
<circle cx="1014" cy="1222" r="8" class="c0"/>
<circle cx="1068" cy="584" r="8" class="c0"/>
<circle cx="1112" cy="942" r="8" class="c0"/>
<circle cx="864" cy="620" r="8" class="c0"/>
<circle cx="790" cy="914" r="8" class="c0"/>
<circle cx="1200" cy="1124" r="8" class="c0"/>
<circle cx="1064" cy="1424" r="8" class="c0"/>
<circle cx="898" cy="1102" r="8" class="c0"/>
<circle cx="940" cy="1044" r="8" class="c0"/>
<circle cx="796" cy="1166" r="8" class="c0"/>
<circle cx="1110" cy="1336" r="8" class="c0"/>
<circle cx="924" cy="706" r="8" class="c0"/>
<circle cx="1110" cy="988" r="8" class="c0"/>
<circle cx="908" cy="800" r="8" class="c0"/>
<circle cx="992" cy="1104" r="8" class="c0"/>
<circle cx="1066" cy="1312" r="8" class="c0"/>
<circle cx="936" cy="952" r="8" class="c0"/>
<circle cx="800" cy="1230" r="8" class="c0"/>
<circle cx="854" cy="656" r="8" class="c0"/>
<circle cx="1032" cy="1198" r="8" class="c0"/>
<circle cx="1154" cy="1116" r="8" class="c0"/>
<circle cx="1052" cy="512" r="8" class="c0"/>
<circle cx="1196" cy="562" r="8" class="c0"/>
<circle cx="1236" cy="1144" r="8" class="c0"/>
<circle cx="904" cy="1288" r="8" class="c0"/>
<circle cx="880" cy="636" r="8" class="c0"/>
<circle cx="836" cy="1192" r="8" class="c0"/>
<circle cx="1140" cy="1152" r="8" class="c0"/>
<circle cx="1086" cy="596" r="8" class="c0"/>
<circle cx="846" cy="1002" r="8" class="c0"/>
<circle cx="1004" cy="680" r="8" class="c0"/>
<circle cx="1138" cy="498" r="8" class="c0"/>
<circle cx="1066" cy="354" r="8" class="c0"/>
<circle cx="874" cy="880" r="8" class="c0"/>
<circle cx="980" cy="1092" r="8" class="c0"/>
<circle cx="1194" cy="1048" r="8" class="c0"/>
<circle cx="1274" cy="1424" r="8" class="c0"/>
<circle cx="984" cy="1028" r="8" class="c0"/>
<circle cx="1002" cy="656" r="8" class="c0"/>
<circle cx="890" cy="622" r="8" class="c0"/>
<circle cx="1024" cy="384" r="8" class="c0"/>
<circle cx="1052" cy="1192" r="8" class="c0"/>
<circle cx="1076" cy="1186" r="8" class="c0"/>
<circle cx="1060" cy="1118" r="8" class="c0"/>
<circle cx="1008" cy="442" r="8" class="c0"/>
<circle cx="952" cy="622" r="8" class="c0"/>
<circle cx="1154" cy="1224" r="8" class="c0"/>
<circle cx="1132" cy="692" r="8" class="c0"/>
<circle cx="966" cy="1370" r="8" class="c0"/>
<circle cx="1136" cy="954" r="8" class="c0"/>
<circle cx="936" cy="1076" r="8" class="c0"/>
<circle cx="928" cy="1394" r="8" class="c0"/>
<circle cx="1122" cy="798" r="8" class="c0"/>
<circle cx="878" cy="1056" r="8" class="c0"/>
<circle cx="994" cy="1422" r="8" class="c0"/>
<circle cx="1004" cy="1364" r="8" class="c0"/>
<circle cx="1030" cy="812" r="8" class="c0"/>
<circle cx="1180" cy="364" r="8" class="c0"/>
<circle cx="1028" cy="998" r="8" class="c0"/>
<circle cx="1122" cy="584" r="8" class="c0"/>
<circle cx="862" cy="1018" r="8" class="c0"/>
<circle cx="1018" cy="670" r="8" class="c0"/>
<circle cx="1138" cy="934" r="8" class="c0"/>
<circle cx="1094" cy="1150" r="8" class="c0"/>
<circle cx="1206" cy="1426" r="8" class="c0"/>
<circle cx="1084" cy="1054" r="8" class="c0"/>
<circle cx="1148" cy="760" r="8" class="c0"/>
<circle cx="1148" cy="1282" r="8" class="c0"/>
<circle cx="870" cy="602" r="8" class="c0"/>
<circle cx="1194" cy="1256" r="8" class="c0"/>
<circle cx="1094" cy="836" r="8" class="c0"/>
<circle cx="1092" cy="646" r="8" class="c0"/>
<circle cx="1038" cy="1324" r="8" class="c0"/>
<circle cx="1040" cy="698" r="8" class="c0"/>
<circle cx="1226" cy="1176" r="8" class="c0"/>
<circle cx="1066" cy="740" r="8" class="c0"/>
<circle cx="860" cy="1244" r="8" class="c0"/>
<circle cx="1188" cy="1164" r="8" class="c0"/>
<circle cx="948" cy="1376" r="8" class="c0"/>
<circle cx="1160" cy="1408" r="8" class="c0"/>
<circle cx="1218" cy="1160" r="8" class="c0"/>
<circle cx="914" cy="1384" r="8" class="c0"/>
<circle cx="1056" cy="1344" r="8" class="c0"/>
<circle cx="1012" cy="1112" r="8" class="c0"/>
<circle cx="978" cy="964" r="8" class="c0"/>
<circle cx="1100" cy="710" r="8" class="c0"/>
<circle cx="994" cy="1082" r="8" class="c0"/>
<circle cx="1048" cy="804" r="6" class="c0"/>
<circle cx="1146" cy="422" r="6" class="c0"/>
<circle cx="1104" cy="730" r="6" class="c0"/>
<circle cx="1070" cy="980" r="6" class="c0"/>
<circle cx="856" cy="1152" r="6" class="c0"/>
<circle cx="970" cy="492" r="6" class="c0"/>
<circle cx="1078" cy="632" r="6" class="c0"/>
<circle cx="898" cy="1240" r="6" class="c0"/>
<circle cx="970" cy="830" r="6" class="c0"/>
<circle cx="1136" cy="722" r="6" class="c0"/>
<circle cx="1044" cy="476" r="6" class="c0"/>
<circle cx="920" cy="1190" r="6" class="c0"/>
<circle cx="1052" cy="1140" r="6" class="c0"/>
<circle cx="924" cy="1226" r="6" class="c0"/>
<circle cx="1012" cy="988" r="6" class="c0"/>
<circle cx="1086" cy="718" r="6" class="c0"/>
<circle cx="772" cy="914" r="6" class="c0"/>
<circle cx="1128" cy="662" r="6" class="c0"/>
<circle cx="916" cy="886" r="6" class="c0"/>
<circle cx="802" cy="842" r="6" class="c0"/>
<circle cx="1238" cy="1192" r="6" class="c0"/>
<circle cx="974" cy="630" r="6" class="c0"/>
<circle cx="1056" cy="1410" r="6" class="c0"/>
<circle cx="1166" cy="416" r="6" class="c0"/>
<circle cx="820" cy="1108" r="6" class="c0"/>
<circle cx="1168" cy="1178" r="6" class="c0"/>
<circle cx="816" cy="1286" r="6" class="c0"/>
<circle cx="1072" cy="946" r="6" class="c0"/>
<circle cx="884" cy="1342" r="6" class="c0"/>
<circle cx="1172" cy="1000" r="6" class="c0"/>
<circle cx="1072" cy="902" r="6" class="c0"/>
<circle cx="1052" cy="492" r="6" class="c0"/>
<circle cx="1204" cy="326" r="6" class="c0"/>
<circle cx="1126" cy="896" r="6" class="c0"/>
<circle cx="1184" cy="546" r="6" class="c0"/>
<circle cx="1128" cy="852" r="6" class="c0"/>
<circle cx="948" cy="1290" r="6" class="c0"/>
<circle cx="1256" cy="292" r="6" class="c0"/>
<circle cx="990" cy="998" r="6" class="c0"/>
<circle cx="1104" cy="588" r="6" class="c0"/>
<circle cx="964" cy="1294" r="6" class="c0"/>
<circle cx="1190" cy="426" r="6" class="c0"/>
<circle cx="1030" cy="1432" r="6" class="c0"/>
<circle cx="1122" cy="1432" r="6" class="c0"/>
<circle cx="1100" cy="1272" r="6" class="c0"/>
<circle cx="1150" cy="1044" r="6" class="c0"/>
<circle cx="1098" cy="450" r="6" class="c0"/>
<circle cx="1038" cy="420" r="6" class="c0"/>
<circle cx="1116" cy="1170" r="6" class="c0"/>
<circle cx="954" cy="904" r="6" class="c0"/>
<circle cx="1044" cy="1076" r="6" class="c0"/>
<circle cx="1086" cy="752" r="6" class="c0"/>
<circle cx="902" cy="880" r="6" class="c0"/>
<circle cx="1008" cy="1346" r="6" class="c0"/>
<circle cx="1012" cy="1286" r="6" class="c0"/>
<circle cx="796" cy="1306" r="6" class="c0"/>
<circle cx="860" cy="766" r="6" class="c0"/>
<circle cx="1218" cy="388" r="6" class="c0"/>
<circle cx="1164" cy="940" r="6" class="c0"/>
<circle cx="1072" cy="1068" r="6" class="c0"/>
<circle cx="1136" cy="1204" r="6" class="c0"/>
<circle cx="958" cy="472" r="6" class="c0"/>
<circle cx="1062" cy="966" r="6" class="c0"/>
<circle cx="918" cy="1358" r="6" class="c0"/>
<circle cx="890" cy="812" r="6" class="c0"/>
<circle cx="1030" cy="1040" r="6" class="c0"/>
<circle cx="1158" cy="622" r="6" class="c0"/>
<circle cx="1030" cy="958" r="6" class="c0"/>
<circle cx="1120" cy="768" r="6" class="c0"/>
<circle cx="1174" cy="1128" r="6" class="c0"/>
<circle cx="1058" cy="938" r="6" class="c0"/>
<circle cx="1046" cy="1400" r="6" class="c0"/>
<circle cx="1092" cy="1336" r="6" class="c0"/>
<circle cx="1080" cy="460" r="6" class="c0"/>
<circle cx="1236" cy="1282" r="6" class="c0"/>
<circle cx="1022" cy="1320" r="6" class="c0"/>
<circle cx="1098" cy="1046" r="6" class="c0"/>
<circle cx="918" cy="616" r="6" class="c0"/>
<circle cx="944" cy="502" r="6" class="c0"/>
<circle cx="1114" cy="1068" r="6" class="c0"/>
<circle cx="1116" cy="754" r="6" class="c0"/>
<circle cx="1030" cy="632" r="6" class="c0"/>
<circle cx="986" cy="858" r="6" class="c0"/>
<circle cx="1132" cy="746" r="6" class="c0"/>
<circle cx="966" cy="736" r="6" class="c0"/>
<circle cx="876" cy="1094" r="6" class="c0"/>
<circle cx="918" cy="1336" r="6" class="c0"/>
<circle cx="1022" cy="706" r="6" class="c0"/>
<circle cx="1234" cy="1338" r="6" class="c0"/>
<circle cx="1164" cy="1070" r="6" class="c0"/>
<circle cx="1126" cy="512" r="6" class="c0"/>
<circle cx="1008" cy="1432" r="6" class="c0"/>
<circle cx="1040" cy="624" r="6" class="c0"/>
<circle cx="1086" cy="1250" r="6" class="c0"/>
<circle cx="946" cy="594" r="6" class="c0"/>
<circle cx="1004" cy="468" r="6" class="c0"/>
<circle cx="1108" cy="746" r="6" class="c0"/>
<circle cx="1208" cy="1342" r="6" class="c0"/>
<circle cx="904" cy="1168" r="6" class="c0"/>
<circle cx="900" cy="1020" r="6" class="c0"/>
<circle cx="1076" cy="824" r="6" class="c0"/>
<circle cx="1020" cy="1380" r="6" class="c0"/>
<circle cx="942" cy="790" r="6" class="c0"/>
<circle cx="1026" cy="298" r="6" class="c0"/>
<circle cx="1116" cy="422" r="6" class="c0"/>
<circle cx="1144" cy="1324" r="6" class="c0"/>
<circle cx="948" cy="1332" r="6" class="c0"/>
<circle cx="1212" cy="1110" r="6" class="c0"/>
<circle cx="1162" cy="926" r="6" class="c0"/>
<circle cx="1050" cy="1432" r="6" class="c0"/>
<circle cx="850" cy="1356" r="6" class="c0"/>
<circle cx="884" cy="1278" r="6" class="c0"/>
<circle cx="1096" cy="486" r="6" class="c0"/>
<circle cx="996" cy="958" r="6" class="c0"/>
<circle cx="1004" cy="234" r="6" class="c0"/>
<circle cx="892" cy="706" r="6" class="c0"/>
<circle cx="1274" cy="312" r="6" class="c0"/>
<circle cx="876" cy="1148" r="6" class="c0"/>
<circle cx="852" cy="1066" r="6" class="c0"/>
<circle cx="990" cy="514" r="6" class="c0"/>
<circle cx="982" cy="1056" r="6" class="c0"/>
<circle cx="1290" cy="342" r="6" class="c0"/>
<circle cx="930" cy="1034" r="6" class="c0"/>
<circle cx="1190" cy="498" r="6" class="c0"/>
<circle cx="898" cy="1360" r="6" class="c0"/>
<circle cx="1044" cy="1002" r="6" class="c0"/>
<circle cx="1016" cy="758" r="6" class="c0"/>
<circle cx="940" cy="996" r="6" class="c0"/>
<circle cx="844" cy="804" r="6" class="c0"/>
<circle cx="1074" cy="1170" r="6" class="c0"/>
<circle cx="984" cy="1312" r="6" class="c0"/>
<circle cx="1292" cy="304" r="6" class="c0"/>
<circle cx="828" cy="1086" r="6" class="c0"/>
<circle cx="1136" cy="870" r="6" class="c0"/>
<circle cx="1110" cy="1128" r="6" class="c0"/>
<circle cx="1058" cy="1032" r="6" class="c0"/>
<circle cx="1100" cy="422" r="6" class="c0"/>
<circle cx="1214" cy="318" r="6" class="c0"/>
<circle cx="1120" cy="860" r="6" class="c0"/>
<circle cx="972" cy="1246" r="6" class="c0"/>
<circle cx="1176" cy="1402" r="6" class="c0"/>
<circle cx="1182" cy="802" r="6" class="c0"/>
<circle cx="1042" cy="1106" r="6" class="c0"/>
<circle cx="1172" cy="460" r="6" class="c0"/>
<circle cx="1158" cy="800" r="6" class="c0"/>
<circle cx="1160" cy="520" r="6" class="c0"/>
<circle cx="976" cy="256" r="6" class="c0"/>
<circle cx="1008" cy="948" r="6" class="c0"/>
<circle cx="1060" cy="814" r="6" class="c0"/>
<circle cx="1250" cy="1408" r="6" class="c0"/>
<circle cx="962" cy="560" r="6" class="c0"/>
<circle cx="1062" cy="392" r="6" class="c0"/>
<circle cx="1068" cy="646" r="6" class="c0"/>
<circle cx="936" cy="826" r="6" class="c0"/>
<circle cx="1042" cy="642" r="6" class="c0"/>
<circle cx="1042" cy="924" r="6" class="c0"/>
<circle cx="876" cy="910" r="6" class="c0"/>
<circle cx="776" cy="898" r="6" class="c0"/>
<circle cx="1112" cy="1420" r="6" class="c0"/>
<circle cx="886" cy="606" r="6" class="c0"/>
<circle cx="924" cy="856" r="6" class="c0"/>
<circle cx="884" cy="986" r="6" class="c0"/>
<circle cx="1052" cy="718" r="6" class="c0"/>
<circle cx="980" cy="504" r="6" class="c0"/>
<circle cx="800" cy="1266" r="6" class="c0"/>
<circle cx="916" cy="580" r="6" class="c0"/>
<circle cx="1082" cy="1140" r="6" class="c0"/>
<circle cx="1218" cy="1352" r="6" class="c0"/>
<circle cx="1026" cy="1238" r="6" class="c0"/>
<circle cx="1104" cy="624" r="6" class="c0"/>
<circle cx="1204" cy="548" r="6" class="c0"/>
<circle cx="894" cy="1140" r="6" class="c0"/>
<circle cx="1122" cy="1116" r="6" class="c0"/>
<circle cx="972" cy="1388" r="6" class="c0"/>
<circle cx="904" cy="700" r="6" class="c0"/>
<circle cx="1184" cy="1222" r="6" class="c0"/>
<circle cx="1110" cy="1354" r="6" class="c0"/>
<circle cx="1266" cy="1326" r="6" class="c0"/>
<circle cx="946" cy="866" r="6" class="c0"/>
<circle cx="1000" cy="734" r="6" class="c0"/>
<circle cx="1178" cy="448" r="6" class="c0"/>
<circle cx="1112" cy="1210" r="6" class="c0"/>
<circle cx="1002" cy="922" r="6" class="c0"/>
<circle cx="960" cy="920" r="6" class="c0"/>
<circle cx="950" cy="1178" r="6" class="c0"/>
<circle cx="952" cy="492" r="6" class="c0"/>
<circle cx="1080" cy="804" r="6" class="c0"/>
<circle cx="1254" cy="1394" r="6" class="c0"/>
<circle cx="1084" cy="930" r="6" class="c0"/>
<circle cx="844" cy="1134" r="6" class="c0"/>
<circle cx="1154" cy="506" r="6" class="c0"/>
<circle cx="1092" cy="678" r="6" class="c0"/>
<circle cx="850" cy="1232" r="6" class="c0"/>
<circle cx="938" cy="514" r="6" class="c0"/>
<circle cx="978" cy="1156" r="6" class="c0"/>
<circle cx="792" cy="858" r="6" class="c0"/>
<circle cx="1272" cy="1218" r="6" class="c0"/>
<circle cx="1164" cy="1432" r="6" class="c0"/>
<circle cx="974" cy="588" r="6" class="c0"/>
<circle cx="1110" cy="826" r="6" class="c0"/>
<circle cx="1170" cy="808" r="6" class="c0"/>
<circle cx="1170" cy="954" r="6" class="c0"/>
<circle cx="990" cy="624" r="6" class="c0"/>
<circle cx="1180" cy="1316" r="6" class="c0"/>
<circle cx="956" cy="1028" r="6" class="c0"/>
<circle cx="1020" cy="534" r="6" class="c0"/>
<circle cx="872" cy="772" r="6" class="c0"/>
<circle cx="1032" cy="260" r="6" class="c0"/>
<circle cx="926" cy="590" r="6" class="c0"/>
<circle cx="1132" cy="562" r="6" class="c0"/>
<circle cx="956" cy="1062" r="6" class="c0"/>
<circle cx="1264" cy="322" r="6" class="c0"/>
<circle cx="926" cy="1346" r="6" class="c0"/>
<circle cx="934" cy="1236" r="6" class="c0"/>
<circle cx="1082" cy="1392" r="6" class="c0"/>
<circle cx="1138" cy="652" r="6" class="c0"/>
<circle cx="1246" cy="1362" r="6" class="c0"/>
<circle cx="1148" cy="448" r="6" class="c0"/>
<circle cx="1182" cy="1136" r="6" class="c0"/>
<circle cx="1132" cy="602" r="6" class="c0"/>
<circle cx="1148" cy="1000" r="6" class="c0"/>
<circle cx="1184" cy="1018" r="6" class="c0"/>
<circle cx="1070" cy="1024" r="6" class="c0"/>
<circle cx="904" cy="1372" r="6" class="c0"/>
<circle cx="1298" cy="332" r="6" class="c0"/>
<circle cx="1058" cy="250" r="6" class="c0"/>
<circle cx="1134" cy="904" r="6" class="c0"/>
<circle cx="784" cy="1178" r="6" class="c0"/>
<circle cx="900" cy="1326" r="6" class="c0"/>
<circle cx="976" cy="1288" r="6" class="c0"/>
<circle cx="1198" cy="418" r="6" class="c0"/>
<circle cx="1082" cy="1430" r="6" class="c0"/>
<circle cx="1140" cy="1008" r="6" class="c0"/>
<circle cx="998" cy="1192" r="6" class="c0"/>
<circle cx="842" cy="1340" r="6" class="c0"/>
<circle cx="1044" cy="354" r="6" class="c0"/>
<circle cx="800" cy="1144" r="6" class="c0"/>
<circle cx="1054" cy="536" r="6" class="c0"/>
<circle cx="926" cy="1206" r="6" class="c0"/>
<circle cx="986" cy="264" r="6" class="c0"/>
<circle cx="1048" cy="754" r="6" class="c0"/>
<circle cx="1006" cy="700" r="6" class="c0"/>
<circle cx="1136" cy="478" r="6" class="c0"/>
<circle cx="1258" cy="1418" r="6" class="c0"/>
<circle cx="940" cy="1280" r="6" class="c0"/>
<circle cx="1292" cy="280" r="6" class="c0"/>
<circle cx="1264" cy="1190" r="6" class="c0"/>
<circle cx="804" cy="1296" r="6" class="c0"/>
<circle cx="1070" cy="600" r="6" class="c0"/>
<circle cx="1196" cy="1206" r="6" class="c0"/>
<circle cx="1068" cy="836" r="6" class="c0"/>
<circle cx="1078" cy="1374" r="6" class="c0"/>
<circle cx="1066" cy="1282" r="6" class="c0"/>
<circle cx="814" cy="848" r="6" class="c0"/>
<circle cx="920" cy="944" r="6" class="c0"/>
<circle cx="862" cy="1296" r="6" class="c0"/>
<circle cx="1066" cy="890" r="6" class="c0"/>
<circle cx="1034" cy="1376" r="6" class="c0"/>
<circle cx="1042" cy="1032" r="6" class="c0"/>
<circle cx="1264" cy="1264" r="6" class="c0"/>
<circle cx="1056" cy="1322" r="6" class="c0"/>
<circle cx="882" cy="684" r="6" class="c0"/>
<circle cx="946" cy="1144" r="6" class="c0"/>
<circle cx="1254" cy="356" r="6" class="c0"/>
<circle cx="972" cy="568" r="6" class="c0"/>
<circle cx="878" cy="736" r="6" class="c0"/>
<circle cx="886" cy="1132" r="6" class="c0"/>
<circle cx="1076" cy="726" r="6" class="c0"/>
<circle cx="1042" cy="1150" r="6" class="c0"/>
<circle cx="938" cy="1060" r="6" class="c0"/>
<circle cx="936" cy="580" r="6" class="c0"/>
<circle cx="1270" cy="1398" r="6" class="c0"/>
<circle cx="1132" cy="1380" r="6" class="c0"/>
<circle cx="1016" cy="1082" r="6" class="c0"/>
<circle cx="1062" cy="1178" r="6" class="c0"/>
<circle cx="864" cy="1318" r="6" class="c0"/>
<circle cx="976" cy="946" r="6" class="c0"/>
<circle cx="1180" cy="1116" r="6" class="c0"/>
<circle cx="814" cy="1238" r="6" class="c0"/>
<circle cx="894" cy="872" r="6" class="c0"/>
<circle cx="1222" cy="1432" r="6" class="c0"/>
<circle cx="906" cy="624" r="6" class="c0"/>
<circle cx="1024" cy="406" r="6" class="c0"/>
<circle cx="868" cy="1158" r="6" class="c0"/>
<circle cx="912" cy="1202" r="6" class="c0"/>
<circle cx="1100" cy="1346" r="6" class="c0"/>
<circle cx="1136" cy="790" r="6" class="c0"/>
<circle cx="1010" cy="1238" r="6" class="c0"/>
<circle cx="928" cy="540" r="6" class="c0"/>
<circle cx="922" cy="920" r="6" class="c0"/>
<circle cx="848" cy="1266" r="6" class="c0"/>
<circle cx="1244" cy="1210" r="6" class="c0"/>
<circle cx="1112" cy="456" r="6" class="c0"/>
<circle cx="770" cy="936" r="6" class="c0"/>
<circle cx="1032" cy="482" r="6" class="c0"/>
<circle cx="1108" cy="1180" r="6" class="c0"/>
<circle cx="1040" cy="940" r="6" class="c0"/>
<circle cx="1092" cy="1420" r="6" class="c0"/>
<circle cx="1100" cy="1004" r="6" class="c0"/>
<circle cx="1066" cy="378" r="6" class="c0"/>
<circle cx="1112" cy="1308" r="6" class="c0"/>
<circle cx="844" cy="636" r="6" class="c0"/>
<circle cx="1022" cy="844" r="6" class="c0"/>
<circle cx="986" cy="790" r="6" class="c0"/>
<circle cx="1170" cy="1280" r="6" class="c0"/>
<circle cx="936" cy="1106" r="6" class="c0"/>
<circle cx="920" cy="982" r="6" class="c0"/>
<circle cx="1034" cy="1088" r="6" class="c0"/>
<circle cx="960" cy="682" r="6" class="c0"/>
<circle cx="992" cy="546" r="6" class="c0"/>
<circle cx="1204" cy="1060" r="6" class="c0"/>
<circle cx="892" cy="1416" r="6" class="c0"/>
<circle cx="838" cy="792" r="6" class="c0"/>
<circle cx="1034" cy="748" r="6" class="c0"/>
<circle cx="852" cy="1332" r="6" class="c0"/>
<circle cx="1168" cy="1394" r="6" class="c0"/>
<circle cx="874" cy="976" r="6" class="c0"/>
<circle cx="854" cy="1280" r="6" class="c0"/>
<circle cx="998" cy="616" r="6" class="c0"/>
<circle cx="1194" cy="336" r="6" class="c0"/>
<circle cx="1238" cy="1240" r="6" class="c0"/>
<circle cx="1312" cy="328" r="6" class="c0"/>
<circle cx="1044" cy="558" r="6" class="c0"/>
<circle cx="1104" cy="1160" r="6" class="c0"/>
<circle cx="1150" cy="724" r="6" class="c0"/>
<circle cx="1094" cy="1240" r="6" class="c0"/>
<circle cx="1178" cy="1382" r="6" class="c0"/>
<circle cx="932" cy="1430" r="6" class="c0"/>
<circle cx="920" cy="1024" r="6" class="c0"/>
<circle cx="1190" cy="1292" r="6" class="c0"/>
<circle cx="810" cy="1274" r="6" class="c0"/>
<circle cx="1128" cy="622" r="6" class="c0"/>
<circle cx="1174" cy="968" r="6" class="c0"/>
<circle cx="1098" cy="978" r="6" class="c0"/>
<circle cx="1102" cy="928" r="6" class="c0"/>
<circle cx="1038" cy="1062" r="6" class="c0"/>
<circle cx="1196" cy="372" r="6" class="c0"/>
<circle cx="1162" cy="750" r="6" class="c0"/>
<circle cx="1126" cy="780" r="6" class="c0"/>
<circle cx="1156" cy="1248" r="6" class="c0"/>
<circle cx="906" cy="1418" r="6" class="c0"/>
<circle cx="1176" cy="424" r="6" class="c0"/>
<circle cx="778" cy="1194" r="6" class="c0"/>
<circle cx="1112" cy="1282" r="6" class="c0"/>
<circle cx="848" cy="612" r="6" class="c0"/>
<circle cx="1066" cy="1254" r="6" class="c0"/>
<circle cx="900" cy="970" r="6" class="c0"/>
<circle cx="1018" cy="1206" r="6" class="c0"/>
<circle cx="1280" cy="1352" r="6" class="c0"/>
<circle cx="1084" cy="1224" r="6" class="c0"/>
<circle cx="1070" cy="510" r="6" class="c0"/>
<circle cx="1014" cy="1030" r="6" class="c0"/>
<circle cx="980" cy="1224" r="6" class="c0"/>
<circle cx="1200" cy="1382" r="6" class="c0"/>
<circle cx="872" cy="1326" r="6" class="c0"/>
<circle cx="1072" cy="270" r="6" class="c0"/>
<circle cx="1122" cy="674" r="6" class="c0"/>
<circle cx="828" cy="1166" r="6" class="c0"/>
<circle cx="980" cy="990" r="6" class="c0"/>
<circle cx="1138" cy="1292" r="6" class="c0"/>
<circle cx="884" cy="722" r="6" class="c0"/>
<circle cx="1152" cy="692" r="6" class="c0"/>
<circle cx="1118" cy="472" r="6" class="c0"/>
<circle cx="826" cy="1204" r="6" class="c0"/>
<circle cx="1158" cy="606" r="6" class="c0"/>
<circle cx="1018" cy="800" r="6" class="c0"/>
<circle cx="1180" cy="1248" r="6" class="c0"/>
<circle cx="864" cy="1272" r="6" class="c0"/>
<circle cx="1120" cy="1324" r="6" class="c0"/>
<circle cx="1118" cy="558" r="6" class="c0"/>
<circle cx="854" cy="1304" r="6" class="c0"/>
</svg>
