<?xml version="1.0" encoding="utf-8"?>
<svg xmlns="http://www.w3.org/2000/svg"
     xmlns:xlink="http://www.w3.org/1999/xlink" width="1920" height="1440" >

            <defs>
            <style type="text/css"><![CDATA[
circle {stroke: none;}
.c0 {fill: #FFFFFF;}
]]></style>
            </defs>
<rect x="0" y="0" width="1920" height="1440" fill="black"/>
<circle cx="844" cy="1238" r="12" class="c0"/>
<circle cx="1154" cy="1346" r="12" class="c0"/>
<circle cx="958" cy="1040" r="12" class="c0"/>
<circle cx="970" cy="610" r="12" class="c0"/>
<circle cx="894" cy="1094" r="12" class="c0"/>
<circle cx="1194" cy="1334" r="12" class="c0"/>
<circle cx="1052" cy="628" r="12" class="c0"/>
<circle cx="1180" cy="1366" r="12" class="c0"/>
<circle cx="1044" cy="956" r="12" class="c0"/>
<circle cx="1062" cy="684" r="12" class="c0"/>
<circle cx="1074" cy="1252" r="12" class="c0"/>
<circle cx="944" cy="1224" r="12" class="c0"/>
<circle cx="1050" cy="704" r="12" class="c0"/>
<circle cx="1156" cy="1248" r="12" class="c0"/>
<circle cx="1014" cy="1016" r="12" class="c0"/>
<circle cx="1038" cy="528" r="12" class="c0"/>
<circle cx="1034" cy="898" r="12" class="c0"/>
<circle cx="906" cy="928" r="12" class="c0"/>
<circle cx="1150" cy="818" r="12" class="c0"/>
<circle cx="1210" cy="1224" r="12" class="c0"/>
<circle cx="1128" cy="870" r="12" class="c0"/>
<circle cx="896" cy="1046" r="12" class="c0"/>
<circle cx="1148" cy="790" r="12" class="c0"/>
<circle cx="1084" cy="588" r="12" class="c0"/>
<circle cx="1076" cy="484" r="12" class="c0"/>
<circle cx="996" cy="592" r="12" class="c0"/>
<circle cx="1168" cy="1084" r="12" class="c0"/>
<circle cx="1142" cy="1312" r="12" class="c0"/>
<circle cx="864" cy="1166" r="12" class="c0"/>
<circle cx="1188" cy="906" r="12" class="c0"/>
<circle cx="1208" cy="1198" r="12" class="c0"/>
<circle cx="1094" cy="462" r="12" class="c0"/>
<circle cx="1020" cy="1066" r="12" class="c0"/>
<circle cx="986" cy="966" r="12" class="c0"/>
<circle cx="1028" cy="1100" r="12" class="c0"/>
<circle cx="960" cy="970" r="12" class="c0"/>
<circle cx="1028" cy="466" r="12" class="c0"/>
<circle cx="1218" cy="1382" r="12" class="c0"/>
<circle cx="1090" cy="1426" r="12" class="c0"/>
<circle cx="1114" cy="332" r="12" class="c0"/>
<circle cx="1126" cy="536" r="12" class="c0"/>
<circle cx="1158" cy="1030" r="12" class="c0"/>
<circle cx="1074" cy="1184" r="12" class="c0"/>
<circle cx="1058" cy="772" r="12" class="c0"/>
<circle cx="1026" cy="596" r="12" class="c0"/>
<circle cx="1078" cy="1032" r="12" class="c0"/>
<circle cx="1082" cy="664" r="12" class="c0"/>
<circle cx="1054" cy="504" r="12" class="c0"/>
<circle cx="1042" cy="1086" r="12" class="c0"/>
<circle cx="1114" cy="1130" r="12" class="c0"/>
<circle cx="1152" cy="1134" r="12" class="c0"/>
<circle cx="1228" cy="872" r="12" class="c0"/>
<circle cx="1186" cy="960" r="12" class="c0"/>
<circle cx="922" cy="872" r="12" class="c0"/>
<circle cx="1148" cy="904" r="12" class="c0"/>
<circle cx="1022" cy="500" r="10" class="c0"/>
<circle cx="1314" cy="682" r="10" class="c0"/>
<circle cx="1068" cy="1288" r="10" class="c0"/>
<circle cx="1374" cy="648" r="10" class="c0"/>
<circle cx="968" cy="800" r="10" class="c0"/>
<circle cx="1230" cy="1286" r="10" class="c0"/>
<circle cx="1222" cy="1354" r="10" class="c0"/>
<circle cx="1034" cy="356" r="10" class="c0"/>
<circle cx="922" cy="1006" r="10" class="c0"/>
<circle cx="992" cy="544" r="10" class="c0"/>
<circle cx="1080" cy="1102" r="10" class="c0"/>
<circle cx="1082" cy="740" r="10" class="c0"/>
<circle cx="1046" cy="1236" r="10" class="c0"/>
<circle cx="1222" cy="816" r="10" class="c0"/>
<circle cx="1092" cy="864" r="10" class="c0"/>
<circle cx="988" cy="1000" r="10" class="c0"/>
<circle cx="1172" cy="1170" r="10" class="c0"/>
<circle cx="1132" cy="1162" r="10" class="c0"/>
<circle cx="1216" cy="702" r="10" class="c0"/>
<circle cx="1398" cy="634" r="10" class="c0"/>
<circle cx="994" cy="1216" r="10" class="c0"/>
<circle cx="1066" cy="1006" r="10" class="c0"/>
<circle cx="1256" cy="1154" r="10" class="c0"/>
<circle cx="1066" cy="806" r="10" class="c0"/>
<circle cx="1168" cy="610" r="10" class="c0"/>
<circle cx="1114" cy="1058" r="10" class="c0"/>
<circle cx="1172" cy="974" r="10" class="c0"/>
<circle cx="1372" cy="596" r="10" class="c0"/>
<circle cx="1064" cy="846" r="10" class="c0"/>
<circle cx="1082" cy="396" r="10" class="c0"/>
<circle cx="1022" cy="382" r="10" class="c0"/>
<circle cx="1138" cy="704" r="10" class="c0"/>
<circle cx="1198" cy="884" r="10" class="c0"/>
<circle cx="1026" cy="644" r="10" class="c0"/>
<circle cx="978" cy="1138" r="10" class="c0"/>
<circle cx="1112" cy="578" r="10" class="c0"/>
<circle cx="1172" cy="774" r="10" class="c0"/>
<circle cx="1038" cy="1180" r="10" class="c0"/>
<circle cx="1148" cy="948" r="10" class="c0"/>
<circle cx="902" cy="1162" r="10" class="c0"/>
<circle cx="1224" cy="1132" r="10" class="c0"/>
<circle cx="1154" cy="300" r="10" class="c0"/>
<circle cx="1186" cy="754" r="10" class="c0"/>
<circle cx="1148" cy="744" r="10" class="c0"/>
<circle cx="1096" cy="688" r="10" class="c0"/>
<circle cx="1180" cy="1006" r="10" class="c0"/>
<circle cx="962" cy="844" r="10" class="c0"/>
<circle cx="1122" cy="1362" r="10" class="c0"/>
<circle cx="994" cy="902" r="10" class="c0"/>
<circle cx="1112" cy="788" r="10" class="c0"/>
<circle cx="1180" cy="698" r="10" class="c0"/>
<circle cx="1078" cy="422" r="10" class="c0"/>
<circle cx="1046" cy="654" r="10" class="c0"/>
<circle cx="1232" cy="1184" r="10" class="c0"/>
<circle cx="998" cy="1074" r="10" class="c0"/>
<circle cx="1060" cy="1054" r="10" class="c0"/>
<circle cx="1096" cy="1078" r="10" class="c0"/>
<circle cx="1024" cy="840" r="10" class="c0"/>
<circle cx="1098" cy="1278" r="10" class="c0"/>
<circle cx="1032" cy="984" r="10" class="c0"/>
<circle cx="1008" cy="526" r="10" class="c0"/>
<circle cx="1352" cy="638" r="10" class="c0"/>
<circle cx="1130" cy="1088" r="10" class="c0"/>
<circle cx="1162" cy="1056" r="10" class="c0"/>
<circle cx="1090" cy="1050" r="10" class="c0"/>
<circle cx="1082" cy="974" r="10" class="c0"/>
<circle cx="1142" cy="1426" r="10" class="c0"/>
<circle cx="1108" cy="762" r="10" class="c0"/>
<circle cx="1154" cy="588" r="10" class="c0"/>
<circle cx="1094" cy="634" r="10" class="c0"/>
<circle cx="908" cy="1204" r="10" class="c0"/>
<circle cx="1322" cy="504" r="10" class="c0"/>
<circle cx="940" cy="1136" r="10" class="c0"/>
<circle cx="1120" cy="680" r="10" class="c0"/>
<circle cx="1200" cy="856" r="10" class="c0"/>
<circle cx="1078" cy="828" r="10" class="c0"/>
<circle cx="1030" cy="410" r="10" class="c0"/>
<circle cx="1334" cy="600" r="10" class="c0"/>
<circle cx="1342" cy="560" r="10" class="c0"/>
<circle cx="1060" cy="1224" r="10" class="c0"/>
<circle cx="1004" cy="854" r="10" class="c0"/>
<circle cx="964" cy="644" r="10" class="c0"/>
<circle cx="1036" cy="862" r="10" class="c0"/>
<circle cx="1098" cy="500" r="10" class="c0"/>
<circle cx="1188" cy="822" r="10" class="c0"/>
<circle cx="1190" cy="1250" r="10" class="c0"/>
<circle cx="1126" cy="946" r="10" class="c0"/>
<circle cx="1046" cy="1126" r="10" class="c0"/>
<circle cx="1072" cy="1070" r="10" class="c0"/>
<circle cx="1100" cy="1392" r="10" class="c0"/>
<circle cx="1242" cy="840" r="10" class="c0"/>
<circle cx="1192" cy="722" r="10" class="c0"/>
<circle cx="1072" cy="890" r="10" class="c0"/>
<circle cx="1100" cy="346" r="10" class="c0"/>
<circle cx="1036" cy="930" r="10" class="c0"/>
<circle cx="1000" cy="1130" r="10" class="c0"/>
<circle cx="1196" cy="802" r="10" class="c0"/>
<circle cx="1132" cy="1224" r="10" class="c0"/>
<circle cx="1186" cy="564" r="10" class="c0"/>
<circle cx="974" cy="1066" r="10" class="c0"/>
<circle cx="1220" cy="1086" r="10" class="c0"/>
<circle cx="1110" cy="886" r="10" class="c0"/>
<circle cx="1182" cy="1272" r="10" class="c0"/>
<circle cx="950" cy="942" r="10" class="c0"/>
<circle cx="1166" cy="522" r="10" class="c0"/>
<circle cx="1208" cy="1294" r="10" class="c0"/>
<circle cx="1132" cy="1400" r="10" class="c0"/>
<circle cx="1188" cy="276" r="10" class="c0"/>
<circle cx="1052" cy="544" r="10" class="c0"/>
<circle cx="1182" cy="936" r="10" class="c0"/>
<circle cx="1112" cy="1006" r="10" class="c0"/>
<circle cx="1200" cy="1150" r="10" class="c0"/>
<circle cx="986" cy="680" r="10" class="c0"/>
<circle cx="1338" cy="670" r="10" class="c0"/>
<circle cx="1132" cy="1016" r="10" class="c0"/>
<circle cx="1006" cy="880" r="10" class="c0"/>
<circle cx="1298" cy="532" r="10" class="c0"/>
<circle cx="1374" cy="618" r="10" class="c0"/>
<circle cx="908" cy="970" r="10" class="c0"/>
<circle cx="1034" cy="1156" r="10" class="c0"/>
<circle cx="916" cy="1182" r="10" class="c0"/>
<circle cx="970" cy="1098" r="10" class="c0"/>
<circle cx="1076" cy="942" r="10" class="c0"/>
<circle cx="1032" cy="1038" r="10" class="c0"/>
<circle cx="1150" cy="630" r="10" class="c0"/>
<circle cx="904" cy="1250" r="10" class="c0"/>
<circle cx="1282" cy="678" r="10" class="c0"/>
<circle cx="1010" cy="562" r="10" class="c0"/>
<circle cx="992" cy="1150" r="10" class="c0"/>
<circle cx="1168" cy="286" r="10" class="c0"/>
<circle cx="1084" cy="1218" r="10" class="c0"/>
<circle cx="1230" cy="1108" r="10" class="c0"/>
<circle cx="1146" cy="1206" r="10" class="c0"/>
<circle cx="1138" cy="978" r="10" class="c0"/>
<circle cx="1128" cy="632" r="10" class="c0"/>
<circle cx="1036" cy="1204" r="10" class="c0"/>
<circle cx="884" cy="1140" r="10" class="c0"/>
<circle cx="1110" cy="292" r="10" class="c0"/>
<circle cx="1350" cy="532" r="10" class="c0"/>
<circle cx="974" cy="988" r="10" class="c0"/>
<circle cx="968" cy="870" r="10" class="c0"/>
<circle cx="936" cy="1284" r="10" class="c0"/>
<circle cx="1324" cy="658" r="10" class="c0"/>
<circle cx="1114" cy="974" r="10" class="c0"/>
<circle cx="912" cy="1134" r="10" class="c0"/>
<circle cx="1052" cy="292" r="10" class="c0"/>
<circle cx="1084" cy="910" r="10" class="c0"/>
<circle cx="1038" cy="310" r="10" class="c0"/>
<circle cx="964" cy="1248" r="10" class="c0"/>
<circle cx="1024" cy="764" r="10" class="c0"/>
<circle cx="1168" cy="916" r="10" class="c0"/>
<circle cx="1082" cy="780" r="10" class="c0"/>
<circle cx="970" cy="1204" r="10" class="c0"/>
<circle cx="1156" cy="552" r="10" class="c0"/>
<circle cx="886" cy="1070" r="10" class="c0"/>
<circle cx="1172" cy="736" r="10" class="c0"/>
<circle cx="1096" cy="1118" r="10" class="c0"/>
<circle cx="1120" cy="486" r="10" class="c0"/>
<circle cx="1216" cy="910" r="10" class="c0"/>
<circle cx="878" cy="1114" r="10" class="c0"/>
<circle cx="1198" cy="1098" r="10" class="c0"/>
<circle cx="1268" cy="1166" r="10" class="c0"/>
<circle cx="984" cy="738" r="10" class="c0"/>
<circle cx="1270" cy="710" r="10" class="c0"/>
<circle cx="1150" cy="498" r="10" class="c0"/>
<circle cx="1158" cy="712" r="10" class="c0"/>
<circle cx="1134" cy="728" r="10" class="c0"/>
<circle cx="1094" cy="1326" r="10" class="c0"/>
<circle cx="1164" cy="674" r="10" class="c0"/>
<circle cx="1014" cy="706" r="10" class="c0"/>
<circle cx="924" cy="952" r="10" class="c0"/>
<circle cx="1390" cy="568" r="10" class="c0"/>
<circle cx="996" cy="1238" r="10" class="c0"/>
<circle cx="1012" cy="916" r="10" class="c0"/>
<circle cx="862" cy="1268" r="8" class="c0"/>
<circle cx="980" cy="1228" r="8" class="c0"/>
<circle cx="1076" cy="616" r="8" class="c0"/>
<circle cx="1132" cy="1246" r="8" class="c0"/>
<circle cx="1204" cy="1314" r="8" class="c0"/>
<circle cx="1336" cy="516" r="8" class="c0"/>
<circle cx="1162" cy="1114" r="8" class="c0"/>
<circle cx="948" cy="872" r="8" class="c0"/>
<circle cx="1206" cy="934" r="8" class="c0"/>
<circle cx="1166" cy="830" r="8" class="c0"/>
<circle cx="1160" cy="962" r="8" class="c0"/>
<circle cx="1070" cy="1370" r="8" class="c0"/>
<circle cx="944" cy="1056" r="8" class="c0"/>
<circle cx="1076" cy="566" r="8" class="c0"/>
<circle cx="1028" cy="812" r="8" class="c0"/>
<circle cx="1364" cy="678" r="8" class="c0"/>
<circle cx="1180" cy="1152" r="8" class="c0"/>
<circle cx="1142" cy="568" r="8" class="c0"/>
<circle cx="1040" cy="336" r="8" class="c0"/>
<circle cx="914" cy="1086" r="8" class="c0"/>
<circle cx="862" cy="1096" r="8" class="c0"/>
<circle cx="1006" cy="940" r="8" class="c0"/>
<circle cx="884" cy="1252" r="8" class="c0"/>
<circle cx="1202" cy="1396" r="8" class="c0"/>
<circle cx="916" cy="896" r="8" class="c0"/>
<circle cx="944" cy="1164" r="8" class="c0"/>
<circle cx="1214" cy="1002" r="8" class="c0"/>
<circle cx="1062" cy="728" r="8" class="c0"/>
<circle cx="1156" cy="860" r="8" class="c0"/>
<circle cx="1006" cy="654" r="8" class="c0"/>
<circle cx="882" cy="1220" r="8" class="c0"/>
<circle cx="1100" cy="1158" r="8" class="c0"/>
<circle cx="900" cy="1222" r="8" class="c0"/>
<circle cx="1230" cy="1256" r="8" class="c0"/>
<circle cx="1150" cy="1380" r="8" class="c0"/>
<circle cx="1072" cy="1154" r="8" class="c0"/>
<circle cx="1088" cy="998" r="8" class="c0"/>
<circle cx="1050" cy="826" r="8" class="c0"/>
<circle cx="1130" cy="772" r="8" class="c0"/>
<circle cx="1006" cy="1186" r="8" class="c0"/>
<circle cx="1248" cy="1172" r="8" class="c0"/>
<circle cx="986" cy="884" r="8" class="c0"/>
<circle cx="970" cy="780" r="8" class="c0"/>
<circle cx="1230" cy="1312" r="8" class="c0"/>
<circle cx="1076" cy="704" r="8" class="c0"/>
<circle cx="1020" cy="664" r="8" class="c0"/>
<circle cx="1172" cy="1424" r="8" class="c0"/>
<circle cx="994" cy="1108" r="8" class="c0"/>
<circle cx="930" cy="838" r="8" class="c0"/>
<circle cx="1026" cy="1134" r="8" class="c0"/>
<circle cx="990" cy="1196" r="8" class="c0"/>
<circle cx="1368" cy="710" r="8" class="c0"/>
<circle cx="992" cy="700" r="8" class="c0"/>
<circle cx="1198" cy="976" r="8" class="c0"/>
<circle cx="1102" cy="652" r="8" class="c0"/>
<circle cx="1366" cy="576" r="8" class="c0"/>
<circle cx="1084" cy="512" r="8" class="c0"/>
<circle cx="1064" cy="368" r="8" class="c0"/>
<circle cx="1118" cy="660" r="8" class="c0"/>
<circle cx="1086" cy="366" r="8" class="c0"/>
<circle cx="1210" cy="1172" r="8" class="c0"/>
<circle cx="1036" cy="748" r="8" class="c0"/>
<circle cx="1290" cy="1170" r="8" class="c0"/>
<circle cx="1156" cy="1408" r="8" class="c0"/>
<circle cx="1006" cy="778" r="8" class="c0"/>
<circle cx="1406" cy="658" r="8" class="c0"/>
<circle cx="984" cy="846" r="8" class="c0"/>
<circle cx="1104" cy="714" r="8" class="c0"/>
<circle cx="1162" cy="1276" r="8" class="c0"/>
<circle cx="958" cy="822" r="8" class="c0"/>
<circle cx="1034" cy="1224" r="8" class="c0"/>
<circle cx="1080" cy="342" r="8" class="c0"/>
<circle cx="1226" cy="1422" r="8" class="c0"/>
<circle cx="976" cy="1012" r="8" class="c0"/>
<circle cx="1208" cy="732" r="8" class="c0"/>
<circle cx="1116" cy="508" r="8" class="c0"/>
<circle cx="946" cy="1006" r="8" class="c0"/>
<circle cx="1138" cy="288" r="8" class="c0"/>
<circle cx="1168" cy="1324" r="8" class="c0"/>
<circle cx="1044" cy="1256" r="8" class="c0"/>
<circle cx="978" cy="1170" r="8" class="c0"/>
<circle cx="1306" cy="874" r="8" class="c0"/>
<circle cx="984" cy="640" r="8" class="c0"/>
<circle cx="1052" cy="578" r="8" class="c0"/>
<circle cx="1324" cy="534" r="8" class="c0"/>
<circle cx="1378" cy="692" r="8" class="c0"/>
<circle cx="1114" cy="1338" r="8" class="c0"/>
<circle cx="1360" cy="548" r="8" class="c0"/>
<circle cx="1188" cy="522" r="8" class="c0"/>
<circle cx="1042" cy="800" r="8" class="c0"/>
<circle cx="1110" cy="1202" r="8" class="c0"/>
<circle cx="1014" cy="728" r="8" class="c0"/>
<circle cx="1066" cy="1310" r="8" class="c0"/>
<circle cx="1160" cy="1190" r="8" class="c0"/>
<circle cx="1136" cy="1290" r="8" class="c0"/>
<circle cx="934" cy="1044" r="8" class="c0"/>
<circle cx="946" cy="918" r="8" class="c0"/>
<circle cx="1244" cy="814" r="8" class="c0"/>
<circle cx="1314" cy="726" r="8" class="c0"/>
<circle cx="1270" cy="846" r="8" class="c0"/>
<circle cx="1254" cy="736" r="8" class="c0"/>
<circle cx="1014" cy="614" r="8" class="c0"/>
<circle cx="1066" cy="600" r="8" class="c0"/>
<circle cx="1340" cy="708" r="8" class="c0"/>
<circle cx="1184" cy="1414" r="8" class="c0"/>
<circle cx="1188" cy="542" r="8" class="c0"/>
<circle cx="918" cy="1268" r="8" class="c0"/>
<circle cx="1162" cy="1302" r="8" class="c0"/>
<circle cx="1398" cy="688" r="8" class="c0"/>
<circle cx="1004" cy="1050" r="8" class="c0"/>
<circle cx="1176" cy="1208" r="8" class="c0"/>
<circle cx="938" cy="1262" r="8" class="c0"/>
<circle cx="1120" cy="740" r="8" class="c0"/>
<circle cx="944" cy="1190" r="8" class="c0"/>
<circle cx="858" cy="1206" r="8" class="c0"/>
<circle cx="1144" cy="666" r="8" class="c0"/>
<circle cx="1134" cy="844" r="8" class="c0"/>
<circle cx="912" cy="1292" r="8" class="c0"/>
<circle cx="1208" cy="962" r="8" class="c0"/>
<circle cx="1106" cy="614" r="8" class="c0"/>
<circle cx="842" cy="1168" r="8" class="c0"/>
<circle cx="1228" cy="1402" r="8" class="c0"/>
<circle cx="1216" cy="1060" r="8" class="c0"/>
<circle cx="1328" cy="576" r="8" class="c0"/>
<circle cx="1068" cy="324" r="8" class="c0"/>
<circle cx="1068" cy="1120" r="8" class="c0"/>
<circle cx="944" cy="1104" r="8" class="c0"/>
<circle cx="906" cy="1114" r="8" class="c0"/>
<circle cx="1100" cy="830" r="8" class="c0"/>
<circle cx="1152" cy="998" r="8" class="c0"/>
<circle cx="928" cy="978" r="8" class="c0"/>
<circle cx="978" cy="1266" r="8" class="c0"/>
<circle cx="1096" cy="810" r="8" class="c0"/>
<circle cx="900" cy="1304" r="8" class="c0"/>
<circle cx="1092" cy="544" r="8" class="c0"/>
<circle cx="966" cy="1182" r="8" class="c0"/>
<circle cx="1176" cy="588" r="8" class="c0"/>
<circle cx="1128" cy="816" r="8" class="c0"/>
<circle cx="1044" cy="1026" r="8" class="c0"/>
<circle cx="924" cy="1068" r="8" class="c0"/>
<circle cx="924" cy="918" r="8" class="c0"/>
<circle cx="986" cy="1088" r="8" class="c0"/>
<circle cx="1102" cy="1034" r="8" class="c0"/>
<circle cx="1304" cy="698" r="8" class="c0"/>
<circle cx="1234" cy="1238" r="8" class="c0"/>
<circle cx="1142" cy="1058" r="8" class="c0"/>
<circle cx="1098" cy="956" r="8" class="c0"/>
<circle cx="1010" cy="680" r="8" class="c0"/>
<circle cx="1110" cy="916" r="8" class="c0"/>
<circle cx="930" cy="1024" r="8" class="c0"/>
<circle cx="1056" cy="1166" r="8" class="c0"/>
<circle cx="1056" cy="916" r="8" class="c0"/>
<circle cx="1040" cy="568" r="8" class="c0"/>
<circle cx="1036" cy="672" r="8" class="c0"/>
<circle cx="1068" cy="1344" r="8" class="c0"/>
<circle cx="1112" cy="840" r="8" class="c0"/>
<circle cx="1144" cy="518" r="8" class="c0"/>
<circle cx="992" cy="1038" r="8" class="c0"/>
<circle cx="1120" cy="1386" r="8" class="c0"/>
<circle cx="1168" cy="888" r="8" class="c0"/>
<circle cx="1086" cy="310" r="8" class="c0"/>
<circle cx="976" cy="558" r="8" class="c0"/>
<circle cx="988" cy="512" r="8" class="c0"/>
<circle cx="1148" cy="1104" r="8" class="c0"/>
<circle cx="1248" cy="694" r="8" class="c0"/>
<circle cx="994" cy="756" r="8" class="c0"/>
<circle cx="852" cy="1134" r="8" class="c0"/>
<circle cx="956" cy="898" r="8" class="c0"/>
<circle cx="1204" cy="780" r="8" class="c0"/>
<circle cx="1098" cy="986" r="8" class="c0"/>
<circle cx="1178" cy="1394" r="8" class="c0"/>
<circle cx="1192" cy="1034" r="8" class="c0"/>
<circle cx="1100" cy="936" r="8" class="c0"/>
<circle cx="1186" cy="1072" r="8" class="c0"/>
<circle cx="1212" cy="834" r="8" class="c0"/>
<circle cx="1060" cy="1104" r="8" class="c0"/>
<circle cx="1222" cy="1332" r="8" class="c0"/>
<circle cx="1010" cy="980" r="8" class="c0"/>
<circle cx="1230" cy="736" r="8" class="c0"/>
<circle cx="892" cy="1182" r="8" class="c0"/>
<circle cx="1350" cy="896" r="8" class="c0"/>
<circle cx="1212" cy="1410" r="8" class="c0"/>
<circle cx="1176" cy="800" r="8" class="c0"/>
<circle cx="1168" cy="1384" r="8" class="c0"/>
<circle cx="1186" cy="1188" r="8" class="c0"/>
<circle cx="1022" cy="1254" r="8" class="c0"/>
<circle cx="940" cy="1078" r="8" class="c0"/>
<circle cx="1120" cy="268" r="8" class="c0"/>
<circle cx="968" cy="918" r="8" class="c0"/>
<circle cx="1090" cy="438" r="8" class="c0"/>
<circle cx="1086" cy="274" r="8" class="c0"/>
<circle cx="976" cy="760" r="8" class="c0"/>
<circle cx="1330" cy="882" r="8" class="c0"/>
<circle cx="1242" cy="726" r="8" class="c0"/>
<circle cx="1128" cy="1040" r="8" class="c0"/>
<circle cx="1204" cy="1368" r="8" class="c0"/>
<circle cx="1138" cy="1114" r="8" class="c0"/>
<circle cx="868" cy="1196" r="8" class="c0"/>
<circle cx="1134" cy="594" r="8" class="c0"/>
<circle cx="1042" cy="446" r="8" class="c0"/>
<circle cx="1172" cy="646" r="8" class="c0"/>
<circle cx="988" cy="718" r="8" class="c0"/>
<circle cx="940" cy="888" r="8" class="c0"/>
<circle cx="948" cy="986" r="8" class="c0"/>
<circle cx="1286" cy="856" r="8" class="c0"/>
<circle cx="1232" cy="1220" r="8" class="c0"/>
<circle cx="1112" cy="1316" r="8" class="c0"/>
<circle cx="1346" cy="582" r="8" class="c0"/>
<circle cx="1102" cy="1370" r="8" class="c0"/>
<circle cx="1294" cy="740" r="8" class="c0"/>
<circle cx="990" cy="792" r="8" class="c0"/>
<circle cx="958" cy="1086" r="8" class="c0"/>
<circle cx="1206" cy="1070" r="8" class="c0"/>
<circle cx="1022" cy="1168" r="8" class="c0"/>
<circle cx="1352" cy="612" r="8" class="c0"/>
<circle cx="1068" cy="642" r="8" class="c0"/>
<circle cx="1072" cy="460" r="8" class="c0"/>
<circle cx="886" cy="906" r="8" class="c0"/>
<circle cx="1098" cy="522" r="8" class="c0"/>
<circle cx="870" cy="1286" r="8" class="c0"/>
<circle cx="1178" cy="500" r="8" class="c0"/>
<circle cx="1120" cy="902" r="8" class="c0"/>
<circle cx="1358" cy="698" r="8" class="c0"/>
<circle cx="1044" cy="374" r="8" class="c0"/>
<circle cx="1016" cy="1118" r="8" class="c0"/>
<circle cx="1158" cy="1218" r="8" class="c0"/>
<circle cx="1024" cy="792" r="8" class="c0"/>
<circle cx="1038" cy="484" r="8" class="c0"/>
<circle cx="1250" cy="1126" r="8" class="c0"/>
<circle cx="1118" cy="1102" r="8" class="c0"/>
<circle cx="1260" cy="756" r="8" class="c0"/>
<circle cx="1184" cy="1310" r="8" class="c0"/>
<circle cx="1124" cy="608" r="8" class="c0"/>
<circle cx="1210" cy="1254" r="8" class="c0"/>
<circle cx="1280" cy="1152" r="8" class="c0"/>
<circle cx="1144" cy="1182" r="8" class="c0"/>
<circle cx="1066" cy="406" r="8" class="c0"/>
<circle cx="1094" cy="1350" r="8" class="c0"/>
<circle cx="894" cy="1016" r="8" class="c0"/>
<circle cx="1146" cy="926" r="8" class="c0"/>
<circle cx="1112" cy="1220" r="8" class="c0"/>
<circle cx="1144" cy="316" r="8" class="c0"/>
<circle cx="1086" cy="800" r="8" class="c0"/>
<circle cx="1102" cy="1252" r="8" class="c0"/>
<circle cx="1008" cy="636" r="8" class="c0"/>
<circle cx="1302" cy="512" r="8" class="c0"/>
<circle cx="1308" cy="1174" r="8" class="c0"/>
<circle cx="1160" cy="936" r="8" class="c0"/>
<circle cx="1132" cy="472" r="8" class="c0"/>
<circle cx="1004" cy="1280" r="8" class="c0"/>
<circle cx="1310" cy="564" r="8" class="c0"/>
<circle cx="970" cy="948" r="8" class="c0"/>
<circle cx="1140" cy="648" r="8" class="c0"/>
<circle cx="1050" cy="1300" r="8" class="c0"/>
<circle cx="1118" cy="1288" r="8" class="c0"/>
<circle cx="1206" cy="756" r="8" class="c0"/>
<circle cx="1144" cy="604" r="8" class="c0"/>
<circle cx="1290" cy="712" r="8" class="c0"/>
<circle cx="1388" cy="672" r="8" class="c0"/>
<circle cx="1072" cy="546" r="8" class="c0"/>
<circle cx="1178" cy="1230" r="8" class="c0"/>
<circle cx="1054" cy="1266" r="8" class="c0"/>
<circle cx="1004" cy="1094" r="8" class="c0"/>
<circle cx="1026" cy="738" r="8" class="c0"/>
<circle cx="1060" cy="1140" r="8" class="c0"/>
<circle cx="1200" cy="288" r="8" class="c0"/>
<circle cx="912" cy="1232" r="8" class="c0"/>
<circle cx="1390" cy="604" r="8" class="c0"/>
<circle cx="1258" cy="830" r="8" class="c0"/>
<circle cx="930" cy="1210" r="8" class="c0"/>
<circle cx="1074" cy="526" r="8" class="c0"/>
<circle cx="1080" cy="1396" r="8" class="c0"/>
<circle cx="1040" cy="610" r="8" class="c0"/>
<circle cx="968" cy="1158" r="8" class="c0"/>
<circle cx="1000" cy="832" r="8" class="c0"/>
<circle cx="1126" cy="994" r="8" class="c0"/>
<circle cx="1178" cy="628" r="8" class="c0"/>
<circle cx="1150" cy="882" r="8" class="c0"/>
<circle cx="980" cy="816" r="8" class="c0"/>
<circle cx="960" cy="1278" r="8" class="c0"/>
<circle cx="1126" cy="304" r="8" class="c0"/>
<circle cx="1224" cy="1158" r="8" class="c0"/>
<circle cx="970" cy="578" r="8" class="c0"/>
<circle cx="1042" cy="728" r="8" class="c0"/>
<circle cx="1026" cy="692" r="8" class="c0"/>
<circle cx="1066" cy="280" r="8" class="c0"/>
<circle cx="1036" cy="1004" r="8" class="c0"/>
<circle cx="1042" cy="1062" r="8" class="c0"/>
<circle cx="1084" cy="1134" r="8" class="c0"/>
<circle cx="1102" cy="266" r="8" class="c0"/>
<circle cx="1174" cy="1042" r="8" class="c0"/>
<circle cx="974" cy="706" r="8" class="c0"/>
<circle cx="936" cy="1244" r="8" class="c0"/>
<circle cx="1270" cy="746" r="8" class="c0"/>
<circle cx="1174" cy="1292" r="8" class="c0"/>
<circle cx="1218" cy="1274" r="8" class="c0"/>
<circle cx="1102" cy="1232" r="8" class="c0"/>
<circle cx="1122" cy="1416" r="8" class="c0"/>
<circle cx="1196" cy="996" r="8" class="c0"/>
<circle cx="1090" cy="842" r="8" class="c0"/>
<circle cx="1142" cy="1262" r="8" class="c0"/>
<circle cx="958" cy="1016" r="8" class="c0"/>
<circle cx="1184" cy="1118" r="8" class="c0"/>
<circle cx="1184" cy="296" r="8" class="c0"/>
<circle cx="1084" cy="1300" r="8" class="c0"/>
<circle cx="1278" cy="530" r="8" class="c0"/>
<circle cx="968" cy="1118" r="8" class="c0"/>
<circle cx="1018" cy="960" r="8" class="c0"/>
<circle cx="1056" cy="878" r="8" class="c0"/>
<circle cx="1060" cy="748" r="8" class="c0"/>
<circle cx="1206" cy="1046" r="8" class="c0"/>
<circle cx="1336" cy="620" r="8" class="c0"/>
<circle cx="1106" cy="1180" r="8" class="c0"/>
<circle cx="1030" cy="554" r="8" class="c0"/>
<circle cx="1124" cy="562" r="8" class="c0"/>
<circle cx="1234" cy="756" r="8" class="c0"/>
<circle cx="1058" cy="1328" r="8" class="c0"/>
<circle cx="1066" cy="984" r="8" class="c0"/>
<circle cx="940" cy="962" r="8" class="c0"/>
<circle cx="994" cy="926" r="8" class="c0"/>
<circle cx="1062" cy="470" r="8" class="c0"/>
<circle cx="1152" cy="1072" r="8" class="c0"/>
<circle cx="1312" cy="586" r="8" class="c0"/>
<circle cx="1212" cy="1020" r="8" class="c0"/>
<circle cx="1152" cy="842" r="8" class="c0"/>
<circle cx="1216" cy="794" r="8" class="c0"/>
<circle cx="1270" cy="1142" r="8" class="c0"/>
<circle cx="1188" cy="1136" r="8" class="c0"/>
<circle cx="976" cy="894" r="8" class="c0"/>
<circle cx="926" cy="1110" r="8" class="c0"/>
<circle cx="1202" cy="1428" r="8" class="c0"/>
<circle cx="1000" cy="810" r="8" class="c0"/>
<circle cx="1202" cy="1126" r="8" class="c0"/>
<circle cx="1062" cy="346" r="8" class="c0"/>
<circle cx="996" cy="624" r="8" class="c0"/>
<circle cx="1036" cy="1288" r="8" class="c0"/>
<circle cx="982" cy="936" r="8" class="c0"/>
<circle cx="1034" cy="782" r="8" class="c0"/>
<circle cx="1024" cy="624" r="8" class="c0"/>
<circle cx="916" cy="1038" r="8" class="c0"/>
<circle cx="1022" cy="444" r="8" class="c0"/>
<circle cx="1016" cy="822" r="8" class="c0"/>
<circle cx="1104" cy="558" r="8" class="c0"/>
<circle cx="1102" cy="742" r="8" class="c0"/>
<circle cx="1258" cy="684" r="8" class="c0"/>
<circle cx="1166" cy="570" r="8" class="c0"/>
<circle cx="1200" cy="688" r="8" class="c0"/>
<circle cx="1016" cy="1214" r="8" class="c0"/>
<circle cx="1150" cy="686" r="8" class="c0"/>
<circle cx="1126" cy="1326" r="8" class="c0"/>
<circle cx="1118" cy="1264" r="8" class="c0"/>
<circle cx="1356" cy="660" r="8" class="c0"/>
<circle cx="958" cy="1148" r="8" class="c0"/>
<circle cx="1336" cy="726" r="8" class="c0"/>
<circle cx="1160" cy="1154" r="8" class="c0"/>
<circle cx="1140" cy="762" r="8" class="c0"/>
<circle cx="918" cy="828" r="8" class="c0"/>
<circle cx="1238" cy="1146" r="8" class="c0"/>
<circle cx="1278" cy="730" r="8" class="c0"/>
<circle cx="942" cy="850" r="8" class="c0"/>
<circle cx="1176" cy="1344" r="8" class="c0"/>
<circle cx="1172" cy="868" r="8" class="c0"/>
<circle cx="1062" cy="1200" r="8" class="c0"/>
<circle cx="1218" cy="890" r="8" class="c0"/>
<circle cx="1162" cy="756" r="8" class="c0"/>
<circle cx="1322" cy="706" r="8" class="c0"/>
<circle cx="1400" cy="592" r="8" class="c0"/>
<circle cx="1154" cy="478" r="8" class="c0"/>
<circle cx="936" cy="928" r="8" class="c0"/>
<circle cx="1304" cy="662" r="8" class="c0"/>
<circle cx="900" cy="866" r="8" class="c0"/>
<circle cx="844" cy="1194" r="8" class="c0"/>
<circle cx="1184" cy="666" r="8" class="c0"/>
<circle cx="926" cy="1148" r="8" class="c0"/>
<circle cx="882" cy="888" r="8" class="c0"/>
<circle cx="934" cy="1174" r="8" class="c0"/>
<circle cx="1188" cy="844" r="8" class="c0"/>
<circle cx="1132" cy="1194" r="8" class="c0"/>
<circle cx="1070" cy="1406" r="8" class="c0"/>
<circle cx="988" cy="568" r="8" class="c0"/>
<circle cx="1102" cy="1304" r="8" class="c0"/>
<circle cx="1192" cy="1382" r="8" class="c0"/>
<circle cx="1222" cy="772" r="8" class="c0"/>
<circle cx="994" cy="1292" r="8" class="c0"/>
<circle cx="1068" cy="962" r="8" class="c0"/>
<circle cx="908" cy="994" r="8" class="c0"/>
<circle cx="976" cy="658" r="8" class="c0"/>
<circle cx="984" cy="916" r="6" class="c0"/>
<circle cx="1066" cy="384" r="6" class="c0"/>
<circle cx="1024" cy="1236" r="6" class="c0"/>
<circle cx="1024" cy="1190" r="6" class="c0"/>
<circle cx="922" cy="1164" r="6" class="c0"/>
<circle cx="1236" cy="1340" r="6" class="c0"/>
<circle cx="1218" cy="746" r="6" class="c0"/>
<circle cx="1042" cy="392" r="6" class="c0"/>
<circle cx="1078" cy="1272" r="6" class="c0"/>
<circle cx="906" cy="1026" r="6" class="c0"/>
<circle cx="864" cy="1072" r="6" class="c0"/>
<circle cx="1224" cy="720" r="6" class="c0"/>
<circle cx="1012" cy="748" r="6" class="c0"/>
<circle cx="1012" cy="1266" r="6" class="c0"/>
<circle cx="892" cy="1124" r="6" class="c0"/>
<circle cx="1026" cy="328" r="6" class="c0"/>
<circle cx="876" cy="1054" r="6" class="c0"/>
<circle cx="1352" cy="720" r="6" class="c0"/>
<circle cx="1194" cy="1284" r="6" class="c0"/>
<circle cx="1244" cy="766" r="6" class="c0"/>
<circle cx="852" cy="1152" r="6" class="c0"/>
<circle cx="1152" cy="1286" r="6" class="c0"/>
<circle cx="1086" cy="762" r="6" class="c0"/>
<circle cx="1366" cy="904" r="6" class="c0"/>
<circle cx="880" cy="1030" r="6" class="c0"/>
<circle cx="1130" cy="1068" r="6" class="c0"/>
<circle cx="1050" cy="980" r="6" class="c0"/>
<circle cx="934" cy="1094" r="6" class="c0"/>
<circle cx="1232" cy="798" r="6" class="c0"/>
<circle cx="1346" cy="686" r="6" class="c0"/>
<circle cx="1018" cy="342" r="6" class="c0"/>
<circle cx="1282" cy="508" r="6" class="c0"/>
<circle cx="1008" cy="794" r="6" class="c0"/>
<circle cx="978" cy="1030" r="6" class="c0"/>
<circle cx="1134" cy="890" r="6" class="c0"/>
<circle cx="1050" cy="594" r="6" class="c0"/>
<circle cx="880" cy="1276" r="6" class="c0"/>
<circle cx="936" cy="906" r="6" class="c0"/>
<circle cx="1012" cy="1148" r="6" class="c0"/>
<circle cx="988" cy="1256" r="6" class="c0"/>
<circle cx="1020" cy="426" r="6" class="c0"/>
<circle cx="1062" cy="932" r="6" class="c0"/>
<circle cx="1326" cy="550" r="6" class="c0"/>
<circle cx="1214" cy="1116" r="6" class="c0"/>
<circle cx="1128" cy="926" r="6" class="c0"/>
<circle cx="1090" cy="1196" r="6" class="c0"/>
<circle cx="1058" cy="524" r="6" class="c0"/>
<circle cx="998" cy="1172" r="6" class="c0"/>
<circle cx="1400" cy="616" r="6" class="c0"/>
<circle cx="1224" cy="848" r="6" class="c0"/>
<circle cx="988" cy="1056" r="6" class="c0"/>
<circle cx="1114" cy="700" r="6" class="c0"/>
<circle cx="1146" cy="538" r="6" class="c0"/>
<circle cx="1064" cy="304" r="6" class="c0"/>
<circle cx="1136" cy="332" r="6" class="c0"/>
<circle cx="1094" cy="414" r="6" class="c0"/>
<circle cx="872" cy="1080" r="6" class="c0"/>
<circle cx="1018" cy="864" r="6" class="c0"/>
<circle cx="1236" cy="1366" r="6" class="c0"/>
<circle cx="1232" cy="710" r="6" class="c0"/>
<circle cx="1200" cy="1268" r="6" class="c0"/>
<circle cx="1122" cy="462" r="6" class="c0"/>
<circle cx="954" cy="1070" r="6" class="c0"/>
<circle cx="1102" cy="312" r="6" class="c0"/>
<circle cx="1390" cy="656" r="6" class="c0"/>
<circle cx="914" cy="854" r="6" class="c0"/>
<circle cx="1110" cy="1428" r="6" class="c0"/>
<circle cx="1078" cy="290" r="6" class="c0"/>
<circle cx="1016" cy="544" r="6" class="c0"/>
<circle cx="1232" cy="692" r="6" class="c0"/>
<circle cx="942" cy="818" r="6" class="c0"/>
<circle cx="1044" cy="1316" r="6" class="c0"/>
<circle cx="828" cy="1196" r="6" class="c0"/>
<circle cx="1162" cy="1008" r="6" class="c0"/>
<circle cx="1220" cy="950" r="6" class="c0"/>
<circle cx="1118" cy="1238" r="6" class="c0"/>
<circle cx="902" cy="888" r="6" class="c0"/>
<circle cx="1196" cy="1060" r="6" class="c0"/>
<circle cx="1130" cy="1346" r="6" class="c0"/>
<circle cx="1070" cy="868" r="6" class="c0"/>
<circle cx="1168" cy="486" r="6" class="c0"/>
<circle cx="958" cy="1302" r="6" class="c0"/>
<circle cx="1018" cy="364" r="6" class="c0"/>
<circle cx="864" cy="1144" r="6" class="c0"/>
<circle cx="1090" cy="330" r="6" class="c0"/>
<circle cx="1134" cy="1144" r="6" class="c0"/>
<circle cx="1104" cy="594" r="6" class="c0"/>
<circle cx="1054" cy="1366" r="6" class="c0"/>
<circle cx="1420" cy="640" r="6" class="c0"/>
<circle cx="1124" cy="1178" r="6" class="c0"/>
<circle cx="1002" cy="956" r="6" class="c0"/>
<circle cx="1216" cy="986" r="6" class="c0"/>
<circle cx="1052" cy="1346" r="6" class="c0"/>
<circle cx="856" cy="1116" r="6" class="c0"/>
<circle cx="1084" cy="1340" r="6" class="c0"/>
<circle cx="1066" cy="1088" r="6" class="c0"/>
<circle cx="906" cy="1070" r="6" class="c0"/>
<circle cx="1140" cy="1334" r="6" class="c0"/>
<circle cx="904" cy="908" r="6" class="c0"/>
<circle cx="1416" cy="670" r="6" class="c0"/>
<circle cx="856" cy="1184" r="6" class="c0"/>
<circle cx="1110" cy="1088" r="6" class="c0"/>
<circle cx="1288" cy="696" r="6" class="c0"/>
<circle cx="1074" cy="442" r="6" class="c0"/>
<circle cx="1088" cy="1172" r="6" class="c0"/>
<circle cx="1122" cy="1304" r="6" class="c0"/>
<circle cx="834" cy="1184" r="6" class="c0"/>
<circle cx="1012" cy="580" r="6" class="c0"/>
<circle cx="892" cy="1238" r="6" class="c0"/>
<circle cx="1074" cy="924" r="6" class="c0"/>
<circle cx="912" cy="1058" r="6" class="c0"/>
<circle cx="858" cy="1300" r="6" class="c0"/>
<circle cx="1060" cy="664" r="6" class="c0"/>
<circle cx="1106" cy="476" r="6" class="c0"/>
<circle cx="884" cy="1160" r="6" class="c0"/>
<circle cx="1106" cy="670" r="6" class="c0"/>
<circle cx="1054" cy="860" r="6" class="c0"/>
<circle cx="994" cy="1022" r="6" class="c0"/>
<circle cx="1114" cy="1166" r="6" class="c0"/>
<circle cx="1382" cy="550" r="6" class="c0"/>
<circle cx="972" cy="540" r="6" class="c0"/>
<circle cx="1258" cy="1182" r="6" class="c0"/>
<circle cx="986" cy="864" r="6" class="c0"/>
<circle cx="1096" cy="602" r="6" class="c0"/>
<circle cx="1172" cy="1138" r="6" class="c0"/>
<circle cx="1054" cy="894" r="6" class="c0"/>
<circle cx="1186" cy="788" r="6" class="c0"/>
<circle cx="1016" cy="400" r="6" class="c0"/>
<circle cx="1332" cy="690" r="6" class="c0"/>
<circle cx="1230" cy="1204" r="6" class="c0"/>
<circle cx="1084" cy="1380" r="6" class="c0"/>
<circle cx="1052" cy="994" r="6" class="c0"/>
<circle cx="1158" cy="654" r="6" class="c0"/>
<circle cx="994" cy="664" r="6" class="c0"/>
<circle cx="1120" cy="718" r="6" class="c0"/>
<circle cx="980" cy="1048" r="6" class="c0"/>
<circle cx="946" cy="834" r="6" class="c0"/>
<circle cx="1144" cy="1042" r="6" class="c0"/>
<circle cx="1040" cy="424" r="6" class="c0"/>
<circle cx="1152" cy="276" r="6" class="c0"/>
<circle cx="1336" cy="646" r="6" class="c0"/>
<circle cx="960" cy="998" r="6" class="c0"/>
<circle cx="864" cy="1124" r="6" class="c0"/>
<circle cx="1128" cy="1276" r="6" class="c0"/>
<circle cx="1046" cy="758" r="6" class="c0"/>
<circle cx="1056" cy="1036" r="6" class="c0"/>
<circle cx="1060" cy="564" r="6" class="c0"/>
<circle cx="1102" cy="902" r="6" class="c0"/>
<circle cx="1192" cy="1216" r="6" class="c0"/>
<circle cx="1032" cy="714" r="6" class="c0"/>
<circle cx="1074" cy="1326" r="6" class="c0"/>
<circle cx="892" cy="998" r="6" class="c0"/>
<circle cx="1086" cy="722" r="6" class="c0"/>
<circle cx="1042" cy="842" r="6" class="c0"/>
<circle cx="1184" cy="986" r="6" class="c0"/>
<circle cx="1172" cy="308" r="6" class="c0"/>
<circle cx="1320" cy="614" r="6" class="c0"/>
<circle cx="872" cy="916" r="6" class="c0"/>
<circle cx="1192" cy="1166" r="6" class="c0"/>
<circle cx="1132" cy="502" r="6" class="c0"/>
<circle cx="890" cy="1200" r="6" class="c0"/>
<circle cx="986" cy="772" r="6" class="c0"/>
<circle cx="1314" cy="522" r="6" class="c0"/>
<circle cx="980" cy="532" r="6" class="c0"/>
<circle cx="1130" cy="798" r="6" class="c0"/>
<circle cx="956" cy="1128" r="6" class="c0"/>
<circle cx="1412" cy="624" r="6" class="c0"/>
<circle cx="1172" cy="846" r="6" class="c0"/>
<circle cx="1070" cy="758" r="6" class="c0"/>
<circle cx="1170" cy="992" r="6" class="c0"/>
<circle cx="1144" cy="1364" r="6" class="c0"/>
<circle cx="1052" cy="326" r="6" class="c0"/>
<circle cx="1052" cy="458" r="6" class="c0"/>
<circle cx="1182" cy="1056" r="6" class="c0"/>
<circle cx="964" cy="1226" r="6" class="c0"/>
<circle cx="1156" cy="982" r="6" class="c0"/>
<circle cx="1056" cy="312" r="6" class="c0"/>
<circle cx="966" cy="668" r="6" class="c0"/>
<circle cx="1116" cy="932" r="6" class="c0"/>
<circle cx="1094" cy="570" r="6" class="c0"/>
<circle cx="1160" cy="1370" r="6" class="c0"/>
<circle cx="1252" cy="714" r="6" class="c0"/>
<circle cx="1112" cy="818" r="6" class="c0"/>
<circle cx="1106" cy="1412" r="6" class="c0"/>
<circle cx="1110" cy="858" r="6" class="c0"/>
<circle cx="1000" cy="498" r="6" class="c0"/>
<circle cx="1172" cy="1258" r="6" class="c0"/>
<circle cx="1092" cy="1242" r="6" class="c0"/>
<circle cx="1080" cy="1358" r="6" class="c0"/>
<circle cx="876" cy="1236" r="6" class="c0"/>
<circle cx="952" cy="1206" r="6" class="c0"/>
<circle cx="1114" cy="642" r="6" class="c0"/>
<circle cx="1090" cy="1262" r="6" class="c0"/>
<circle cx="1006" cy="1204" r="6" class="c0"/>
<circle cx="1006" cy="998" r="6" class="c0"/>
<circle cx="1024" cy="574" r="6" class="c0"/>
<circle cx="1202" cy="1352" r="6" class="c0"/>
<circle cx="1118" cy="1028" r="6" class="c0"/>
<circle cx="1102" cy="1098" r="6" class="c0"/>
<circle cx="1272" cy="692" r="6" class="c0"/>
<circle cx="898" cy="984" r="6" class="c0"/>
<circle cx="1198" cy="742" r="6" class="c0"/>
<circle cx="1020" cy="996" r="6" class="c0"/>
<circle cx="1198" cy="552" r="6" class="c0"/>
<circle cx="1170" cy="948" r="6" class="c0"/>
<circle cx="1090" cy="1016" r="6" class="c0"/>
<circle cx="1118" cy="1152" r="6" class="c0"/>
<circle cx="1162" cy="316" r="6" class="c0"/>
<circle cx="1194" cy="1016" r="6" class="c0"/>
<circle cx="1196" cy="924" r="6" class="c0"/>
<circle cx="1010" cy="488" r="6" class="c0"/>
<circle cx="1092" cy="884" r="6" class="c0"/>
<circle cx="1002" cy="740" r="6" class="c0"/>
<circle cx="1240" cy="858" r="6" class="c0"/>
<circle cx="1172" cy="1104" r="6" class="c0"/>
<circle cx="1006" cy="1162" r="6" class="c0"/>
<circle cx="1154" cy="770" r="6" class="c0"/>
<circle cx="1132" cy="1376" r="6" class="c0"/>
<circle cx="1052" cy="358" r="6" class="c0"/>
<circle cx="1056" cy="792" r="6" class="c0"/>
<circle cx="976" cy="832" r="6" class="c0"/>
<circle cx="984" cy="1120" r="6" class="c0"/>
<circle cx="1116" cy="1076" r="6" class="c0"/>
<circle cx="1372" cy="560" r="6" class="c0"/>
<circle cx="1194" cy="770" r="6" class="c0"/>
<circle cx="1004" cy="1258" r="6" class="c0"/>
<circle cx="1026" cy="876" r="6" class="c0"/>
<circle cx="1054" cy="940" r="6" class="c0"/>
<circle cx="1150" cy="1164" r="6" class="c0"/>
<circle cx="1198" cy="532" r="6" class="c0"/>
<circle cx="862" cy="1222" r="6" class="c0"/>
<circle cx="1216" cy="1036" r="6" class="c0"/>
<circle cx="1032" cy="434" r="6" class="c0"/>
<circle cx="1186" cy="1432" r="6" class="c0"/>
<circle cx="1408" cy="678" r="6" class="c0"/>
<circle cx="1024" cy="944" r="6" class="c0"/>
<circle cx="1328" cy="634" r="6" class="c0"/>
<circle cx="934" cy="994" r="6" class="c0"/>
<circle cx="972" cy="690" r="6" class="c0"/>
<circle cx="1136" cy="960" r="6" class="c0"/>
<circle cx="1168" cy="540" r="6" class="c0"/>
<circle cx="1132" cy="578" r="6" class="c0"/>
<circle cx="1130" cy="752" r="6" class="c0"/>
<circle cx="848" cy="1216" r="6" class="c0"/>
<circle cx="1178" cy="1024" r="6" class="c0"/>
<circle cx="1066" cy="1388" r="6" class="c0"/>
<circle cx="1188" cy="870" r="6" class="c0"/>
<circle cx="1038" cy="1272" r="6" class="c0"/>
<circle cx="1012" cy="1036" r="6" class="c0"/>
<circle cx="1218" cy="972" r="6" class="c0"/>
<circle cx="904" cy="950" r="6" class="c0"/>
<circle cx="1138" cy="550" r="6" class="c0"/>
<circle cx="1130" cy="912" r="6" class="c0"/>
<circle cx="1244" cy="746" r="6" class="c0"/>
<circle cx="1320" cy="892" r="6" class="c0"/>
<circle cx="876" cy="1180" r="6" class="c0"/>
<circle cx="1266" cy="670" r="6" class="c0"/>
<circle cx="1388" cy="702" r="6" class="c0"/>
<circle cx="1054" cy="1072" r="6" class="c0"/>
<circle cx="900" cy="1280" r="6" class="c0"/>
<circle cx="1302" cy="858" r="6" class="c0"/>
<circle cx="1312" cy="546" r="6" class="c0"/>
<circle cx="1114" cy="1402" r="6" class="c0"/>
<circle cx="1118" cy="806" r="6" class="c0"/>
<circle cx="1052" cy="1190" r="6" class="c0"/>
<circle cx="958" cy="626" r="6" class="c0"/>
<circle cx="960" cy="562" r="6" class="c0"/>
<circle cx="988" cy="1180" r="6" class="c0"/>
<circle cx="1098" cy="1142" r="6" class="c0"/>
<circle cx="1346" cy="506" r="6" class="c0"/>
<circle cx="1124" cy="1432" r="6" class="c0"/>
<circle cx="864" cy="1244" r="6" class="c0"/>
<circle cx="1128" cy="320" r="6" class="c0"/>
<circle cx="1238" cy="1392" r="6" class="c0"/>
<circle cx="922" cy="1252" r="6" class="c0"/>
<circle cx="1408" cy="606" r="6" class="c0"/>
<circle cx="974" cy="630" r="6" class="c0"/>
<circle cx="958" cy="588" r="6" class="c0"/>
<circle cx="1014" cy="896" r="6" class="c0"/>
<circle cx="948" cy="1120" r="6" class="c0"/>
</svg>
