<?xml version="1.0" encoding="utf-8"?>
<svg xmlns="http://www.w3.org/2000/svg"
     xmlns:xlink="http://www.w3.org/1999/xlink" width="1920" height="1440" >

            <defs>
            <style type="text/css"><![CDATA[
circle {stroke: none;}
.c0 {fill: #000000;}
]]></style>
            </defs>
<rect x="0" y="0" width="1920" height="1440" fill="white"/>
<circle cx="862" cy="376" r="12" class="c0"/>
<circle cx="966" cy="410" r="12" class="c0"/>
<circle cx="762" cy="342" r="12" class="c0"/>
<circle cx="904" cy="434" r="12" class="c0"/>
<circle cx="1088" cy="324" r="12" class="c0"/>
<circle cx="844" cy="466" r="12" class="c0"/>
<circle cx="942" cy="332" r="12" class="c0"/>
<circle cx="810" cy="310" r="12" class="c0"/>
<circle cx="1046" cy="434" r="12" class="c0"/>
<circle cx="960" cy="360" r="12" class="c0"/>
<circle cx="1044" cy="304" r="12" class="c0"/>
<circle cx="794" cy="222" r="12" class="c0"/>
<circle cx="874" cy="470" r="12" class="c0"/>
<circle cx="850" cy="432" r="12" class="c0"/>
<circle cx="980" cy="302" r="12" class="c0"/>
<circle cx="1084" cy="360" r="12" class="c0"/>
<circle cx="998" cy="500" r="12" class="c0"/>
<circle cx="1038" cy="346" r="12" class="c0"/>
<circle cx="908" cy="232" r="12" class="c0"/>
<circle cx="950" cy="522" r="12" class="c0"/>
<circle cx="824" cy="224" r="12" class="c0"/>
<circle cx="1068" cy="490" r="10" class="c0"/>
<circle cx="902" cy="528" r="10" class="c0"/>
<circle cx="1028" cy="446" r="10" class="c0"/>
<circle cx="820" cy="270" r="10" class="c0"/>
<circle cx="1076" cy="284" r="10" class="c0"/>
<circle cx="942" cy="192" r="10" class="c0"/>
<circle cx="922" cy="280" r="10" class="c0"/>
<circle cx="1028" cy="240" r="10" class="c0"/>
<circle cx="1108" cy="242" r="10" class="c0"/>
<circle cx="964" cy="274" r="10" class="c0"/>
<circle cx="1042" cy="484" r="10" class="c0"/>
<circle cx="1060" cy="234" r="10" class="c0"/>
<circle cx="854" cy="188" r="10" class="c0"/>
<circle cx="1040" cy="380" r="10" class="c0"/>
<circle cx="896" cy="190" r="10" class="c0"/>
<circle cx="818" cy="374" r="10" class="c0"/>
<circle cx="824" cy="414" r="10" class="c0"/>
<circle cx="1122" cy="302" r="10" class="c0"/>
<circle cx="1040" cy="204" r="10" class="c0"/>
<circle cx="902" cy="294" r="10" class="c0"/>
<circle cx="900" cy="356" r="10" class="c0"/>
<circle cx="934" cy="476" r="10" class="c0"/>
<circle cx="962" cy="160" r="10" class="c0"/>
<circle cx="986" cy="204" r="10" class="c0"/>
<circle cx="1052" cy="458" r="10" class="c0"/>
<circle cx="788" cy="452" r="10" class="c0"/>
<circle cx="900" cy="390" r="10" class="c0"/>
<circle cx="864" cy="492" r="10" class="c0"/>
<circle cx="970" cy="440" r="10" class="c0"/>
<circle cx="998" cy="326" r="10" class="c0"/>
<circle cx="860" cy="318" r="10" class="c0"/>
<circle cx="1088" cy="414" r="10" class="c0"/>
<circle cx="942" cy="288" r="10" class="c0"/>
<circle cx="956" cy="228" r="10" class="c0"/>
<circle cx="982" cy="476" r="10" class="c0"/>
<circle cx="854" cy="266" r="10" class="c0"/>
<circle cx="1014" cy="176" r="10" class="c0"/>
<circle cx="1040" cy="252" r="10" class="c0"/>
<circle cx="858" cy="350" r="10" class="c0"/>
<circle cx="760" cy="406" r="10" class="c0"/>
<circle cx="896" cy="266" r="10" class="c0"/>
<circle cx="1104" cy="342" r="10" class="c0"/>
<circle cx="1012" cy="392" r="10" class="c0"/>
<circle cx="1070" cy="346" r="10" class="c0"/>
<circle cx="814" cy="496" r="10" class="c0"/>
<circle cx="940" cy="250" r="10" class="c0"/>
<circle cx="1058" cy="324" r="10" class="c0"/>
<circle cx="786" cy="308" r="10" class="c0"/>
<circle cx="998" cy="426" r="10" class="c0"/>
<circle cx="876" cy="302" r="10" class="c0"/>
<circle cx="858" cy="514" r="10" class="c0"/>
<circle cx="916" cy="152" r="10" class="c0"/>
<circle cx="922" cy="380" r="10" class="c0"/>
<circle cx="1010" cy="296" r="10" class="c0"/>
<circle cx="1118" cy="388" r="10" class="c0"/>
<circle cx="992" cy="376" r="10" class="c0"/>
<circle cx="850" cy="296" r="10" class="c0"/>
<circle cx="882" cy="516" r="10" class="c0"/>
<circle cx="988" cy="172" r="10" class="c0"/>
<circle cx="978" cy="238" r="10" class="c0"/>
<circle cx="1050" cy="270" r="10" class="c0"/>
<circle cx="1106" cy="460" r="10" class="c0"/>
<circle cx="926" cy="316" r="10" class="c0"/>
<circle cx="778" cy="260" r="10" class="c0"/>
<circle cx="872" cy="212" r="10" class="c0"/>
<circle cx="830" cy="336" r="10" class="c0"/>
<circle cx="972" cy="506" r="10" class="c0"/>
<circle cx="1100" cy="402" r="10" class="c0"/>
<circle cx="1058" cy="392" r="10" class="c0"/>
<circle cx="1090" cy="216" r="10" class="c0"/>
<circle cx="746" cy="314" r="10" class="c0"/>
<circle cx="1082" cy="252" r="10" class="c0"/>
<circle cx="1124" cy="412" r="10" class="c0"/>
<circle cx="832" cy="390" r="10" class="c0"/>
<circle cx="764" cy="370" r="10" class="c0"/>
<circle cx="934" cy="212" r="10" class="c0"/>
<circle cx="882" cy="232" r="10" class="c0"/>
<circle cx="1010" cy="206" r="10" class="c0"/>
<circle cx="1030" cy="408" r="10" class="c0"/>
<circle cx="802" cy="436" r="10" class="c0"/>
<circle cx="764" cy="280" r="10" class="c0"/>
<circle cx="990" cy="528" r="10" class="c0"/>
<circle cx="988" cy="352" r="8" class="c0"/>
<circle cx="1076" cy="468" r="8" class="c0"/>
<circle cx="914" cy="328" r="8" class="c0"/>
<circle cx="944" cy="398" r="8" class="c0"/>
<circle cx="802" cy="388" r="8" class="c0"/>
<circle cx="776" cy="430" r="8" class="c0"/>
<circle cx="922" cy="536" r="8" class="c0"/>
<circle cx="888" cy="328" r="8" class="c0"/>
<circle cx="988" cy="266" r="8" class="c0"/>
<circle cx="1120" cy="356" r="8" class="c0"/>
<circle cx="878" cy="364" r="8" class="c0"/>
<circle cx="816" cy="354" r="8" class="c0"/>
<circle cx="798" cy="414" r="8" class="c0"/>
<circle cx="834" cy="364" r="8" class="c0"/>
<circle cx="796" cy="276" r="8" class="c0"/>
<circle cx="1074" cy="200" r="8" class="c0"/>
<circle cx="876" cy="338" r="8" class="c0"/>
<circle cx="1124" cy="436" r="8" class="c0"/>
<circle cx="1018" cy="516" r="8" class="c0"/>
<circle cx="964" cy="184" r="8" class="c0"/>
<circle cx="1090" cy="302" r="8" class="c0"/>
<circle cx="832" cy="282" r="8" class="c0"/>
<circle cx="964" cy="464" r="8" class="c0"/>
<circle cx="1026" cy="282" r="8" class="c0"/>
<circle cx="860" cy="240" r="8" class="c0"/>
<circle cx="748" cy="392" r="8" class="c0"/>
<circle cx="978" cy="324" r="8" class="c0"/>
<circle cx="1068" cy="304" r="8" class="c0"/>
<circle cx="1102" cy="286" r="8" class="c0"/>
<circle cx="840" cy="500" r="8" class="c0"/>
<circle cx="816" cy="250" r="8" class="c0"/>
<circle cx="920" cy="188" r="8" class="c0"/>
<circle cx="846" cy="206" r="8" class="c0"/>
<circle cx="934" cy="174" r="8" class="c0"/>
<circle cx="1002" cy="246" r="8" class="c0"/>
<circle cx="874" cy="442" r="8" class="c0"/>
<circle cx="1026" cy="322" r="8" class="c0"/>
<circle cx="912" cy="510" r="8" class="c0"/>
<circle cx="782" cy="402" r="8" class="c0"/>
<circle cx="898" cy="484" r="8" class="c0"/>
<circle cx="970" cy="342" r="8" class="c0"/>
<circle cx="916" cy="486" r="8" class="c0"/>
<circle cx="1120" cy="330" r="8" class="c0"/>
<circle cx="1016" cy="358" r="8" class="c0"/>
<circle cx="794" cy="474" r="8" class="c0"/>
<circle cx="916" cy="260" r="8" class="c0"/>
<circle cx="1036" cy="508" r="8" class="c0"/>
<circle cx="1116" cy="260" r="8" class="c0"/>
<circle cx="900" cy="462" r="8" class="c0"/>
<circle cx="1074" cy="378" r="8" class="c0"/>
<circle cx="918" cy="416" r="8" class="c0"/>
<circle cx="1080" cy="444" r="8" class="c0"/>
<circle cx="950" cy="424" r="8" class="c0"/>
<circle cx="796" cy="330" r="8" class="c0"/>
<circle cx="1024" cy="264" r="8" class="c0"/>
<circle cx="964" cy="486" r="8" class="c0"/>
<circle cx="872" cy="408" r="8" class="c0"/>
<circle cx="930" cy="348" r="8" class="c0"/>
<circle cx="1000" cy="158" r="8" class="c0"/>
<circle cx="946" cy="500" r="8" class="c0"/>
<circle cx="930" cy="438" r="8" class="c0"/>
<circle cx="828" cy="194" r="8" class="c0"/>
<circle cx="1026" cy="474" r="8" class="c0"/>
<circle cx="966" cy="210" r="8" class="c0"/>
<circle cx="936" cy="414" r="8" class="c0"/>
<circle cx="1100" cy="430" r="8" class="c0"/>
<circle cx="1110" cy="368" r="8" class="c0"/>
<circle cx="852" cy="408" r="8" class="c0"/>
<circle cx="1072" cy="404" r="8" class="c0"/>
<circle cx="1016" cy="334" r="8" class="c0"/>
<circle cx="830" cy="450" r="8" class="c0"/>
<circle cx="786" cy="358" r="8" class="c0"/>
<circle cx="774" cy="296" r="8" class="c0"/>
<circle cx="1058" cy="362" r="8" class="c0"/>
<circle cx="864" cy="282" r="8" class="c0"/>
<circle cx="972" cy="378" r="8" class="c0"/>
<circle cx="886" cy="170" r="8" class="c0"/>
<circle cx="996" cy="448" r="8" class="c0"/>
<circle cx="918" cy="450" r="8" class="c0"/>
<circle cx="1018" cy="490" r="8" class="c0"/>
<circle cx="982" cy="396" r="8" class="c0"/>
<circle cx="1134" cy="372" r="8" class="c0"/>
<circle cx="946" cy="148" r="8" class="c0"/>
<circle cx="742" cy="364" r="8" class="c0"/>
<circle cx="956" cy="304" r="8" class="c0"/>
<circle cx="970" cy="534" r="8" class="c0"/>
<circle cx="1058" cy="418" r="8" class="c0"/>
<circle cx="950" cy="380" r="8" class="c0"/>
<circle cx="772" cy="324" r="8" class="c0"/>
<circle cx="1092" cy="274" r="8" class="c0"/>
<circle cx="1006" cy="478" r="8" class="c0"/>
<circle cx="766" cy="440" r="8" class="c0"/>
<circle cx="894" cy="412" r="8" class="c0"/>
<circle cx="846" cy="228" r="8" class="c0"/>
<circle cx="818" cy="460" r="8" class="c0"/>
<circle cx="904" cy="210" r="8" class="c0"/>
<circle cx="826" cy="476" r="8" class="c0"/>
<circle cx="810" cy="208" r="8" class="c0"/>
<circle cx="834" cy="314" r="8" class="c0"/>
<circle cx="786" cy="378" r="8" class="c0"/>
<circle cx="790" cy="244" r="8" class="c0"/>
<circle cx="1054" cy="190" r="8" class="c0"/>
<circle cx="1004" cy="226" r="8" class="c0"/>
<circle cx="910" cy="176" r="8" class="c0"/>
<circle cx="812" cy="402" r="8" class="c0"/>
<circle cx="1068" cy="428" r="8" class="c0"/>
<circle cx="942" cy="448" r="8" class="c0"/>
<circle cx="1008" cy="458" r="8" class="c0"/>
<circle cx="994" cy="286" r="8" class="c0"/>
<circle cx="872" cy="252" r="8" class="c0"/>
<circle cx="1060" cy="210" r="8" class="c0"/>
<circle cx="1062" cy="258" r="8" class="c0"/>
<circle cx="1108" cy="316" r="8" class="c0"/>
<circle cx="1026" cy="220" r="8" class="c0"/>
<circle cx="798" cy="348" r="8" class="c0"/>
<circle cx="1136" cy="398" r="8" class="c0"/>
<circle cx="830" cy="512" r="8" class="c0"/>
<circle cx="842" cy="254" r="8" class="c0"/>
<circle cx="936" cy="368" r="8" class="c0"/>
<circle cx="1118" cy="278" r="8" class="c0"/>
<circle cx="1038" cy="182" r="8" class="c0"/>
<circle cx="968" cy="254" r="8" class="c0"/>
<circle cx="938" cy="270" r="6" class="c0"/>
<circle cx="898" cy="502" r="6" class="c0"/>
<circle cx="1008" cy="276" r="6" class="c0"/>
<circle cx="768" cy="390" r="6" class="c0"/>
<circle cx="950" cy="172" r="6" class="c0"/>
<circle cx="1096" cy="474" r="6" class="c0"/>
<circle cx="886" cy="536" r="6" class="c0"/>
<circle cx="1044" cy="226" r="6" class="c0"/>
<circle cx="812" cy="290" r="6" class="c0"/>
<circle cx="1018" cy="428" r="6" class="c0"/>
<circle cx="884" cy="494" r="6" class="c0"/>
<circle cx="882" cy="280" r="6" class="c0"/>
<circle cx="898" cy="318" r="6" class="c0"/>
<circle cx="942" cy="540" r="6" class="c0"/>
<circle cx="806" cy="236" r="6" class="c0"/>
<circle cx="878" cy="392" r="6" class="c0"/>
<circle cx="800" cy="254" r="6" class="c0"/>
<circle cx="990" cy="410" r="6" class="c0"/>
<circle cx="820" cy="434" r="6" class="c0"/>
<circle cx="928" cy="516" r="6" class="c0"/>
<circle cx="826" cy="298" r="6" class="c0"/>
<circle cx="1130" cy="344" r="6" class="c0"/>
<circle cx="898" cy="248" r="6" class="c0"/>
<circle cx="998" cy="188" r="6" class="c0"/>
<circle cx="890" cy="448" r="6" class="c0"/>
<circle cx="924" cy="400" r="6" class="c0"/>
<circle cx="1004" cy="344" r="6" class="c0"/>
<circle cx="982" cy="154" r="6" class="c0"/>
<circle cx="884" cy="380" r="6" class="c0"/>
<circle cx="1022" cy="378" r="6" class="c0"/>
<circle cx="1024" cy="190" r="6" class="c0"/>
<circle cx="1056" cy="502" r="6" class="c0"/>
<circle cx="954" cy="476" r="6" class="c0"/>
<circle cx="1010" cy="414" r="6" class="c0"/>
<circle cx="1092" cy="382" r="6" class="c0"/>
<circle cx="874" cy="268" r="6" class="c0"/>
<circle cx="1132" cy="320" r="6" class="c0"/>
<circle cx="884" cy="432" r="6" class="c0"/>
<circle cx="794" cy="292" r="6" class="c0"/>
<circle cx="928" cy="238" r="6" class="c0"/>
<circle cx="1080" cy="232" r="6" class="c0"/>
<circle cx="758" cy="302" r="6" class="c0"/>
<circle cx="928" cy="298" r="6" class="c0"/>
<circle cx="738" cy="338" r="6" class="c0"/>
<circle cx="960" cy="320" r="6" class="c0"/>
<circle cx="1034" cy="166" r="6" class="c0"/>
<circle cx="870" cy="528" r="6" class="c0"/>
<circle cx="1058" cy="288" r="6" class="c0"/>
<circle cx="928" cy="496" r="6" class="c0"/>
<circle cx="868" cy="176" r="6" class="c0"/>
<circle cx="832" cy="242" r="6" class="c0"/>
<circle cx="862" cy="418" r="6" class="c0"/>
<circle cx="1084" cy="394" r="6" class="c0"/>
<circle cx="896" cy="160" r="6" class="c0"/>
<circle cx="874" cy="188" r="6" class="c0"/>
<circle cx="754" cy="424" r="6" class="c0"/>
<circle cx="1010" cy="440" r="6" class="c0"/>
<circle cx="774" cy="232" r="6" class="c0"/>
<circle cx="962" cy="390" r="6" class="c0"/>
<circle cx="1048" cy="406" r="6" class="c0"/>
<circle cx="876" cy="424" r="6" class="c0"/>
<circle cx="898" cy="338" r="6" class="c0"/>
<circle cx="1084" cy="482" r="6" class="c0"/>
<circle cx="998" cy="402" r="6" class="c0"/>
<circle cx="850" cy="392" r="6" class="c0"/>
<circle cx="802" cy="364" r="6" class="c0"/>
<circle cx="978" cy="456" r="6" class="c0"/>
<circle cx="850" cy="334" r="6" class="c0"/>
<circle cx="1008" cy="526" r="6" class="c0"/>
<circle cx="950" cy="264" r="6" class="c0"/>
<circle cx="858" cy="454" r="6" class="c0"/>
<circle cx="918" cy="468" r="6" class="c0"/>
<circle cx="856" cy="168" r="6" class="c0"/>
<circle cx="1138" cy="356" r="6" class="c0"/>
<circle cx="1096" cy="446" r="6" class="c0"/>
<circle cx="1072" cy="222" r="6" class="c0"/>
<circle cx="918" cy="360" r="6" class="c0"/>
<circle cx="1064" cy="446" r="6" class="c0"/>
<circle cx="946" cy="464" r="6" class="c0"/>
<circle cx="978" cy="424" r="6" class="c0"/>
<circle cx="750" cy="292" r="6" class="c0"/>
<circle cx="932" cy="458" r="6" class="c0"/>
<circle cx="1012" cy="314" r="6" class="c0"/>
<circle cx="784" cy="340" r="6" class="c0"/>
<circle cx="1064" cy="180" r="6" class="c0"/>
<circle cx="812" cy="332" r="6" class="c0"/>
<circle cx="1006" cy="262" r="6" class="c0"/>
<circle cx="988" cy="224" r="6" class="c0"/>
<circle cx="940" cy="306" r="6" class="c0"/>
<circle cx="1100" cy="258" r="6" class="c0"/>
<circle cx="840" cy="522" r="6" class="c0"/>
<circle cx="894" cy="220" r="6" class="c0"/>
<circle cx="810" cy="478" r="6" class="c0"/>
<circle cx="938" cy="230" r="6" class="c0"/>
<circle cx="1088" cy="458" r="6" class="c0"/>
<circle cx="974" cy="146" r="6" class="c0"/>
<circle cx="936" cy="158" r="6" class="c0"/>
<circle cx="914" cy="346" r="6" class="c0"/>
<circle cx="1024" cy="306" r="6" class="c0"/>
<circle cx="758" cy="262" r="6" class="c0"/>
<circle cx="1058" cy="476" r="6" class="c0"/>
<circle cx="892" cy="372" r="6" class="c0"/>
<circle cx="862" cy="398" r="6" class="c0"/>
<circle cx="1030" cy="366" r="6" class="c0"/>
</svg>
