<?xml version="1.0" encoding="utf-8"?>
<svg xmlns="http://www.w3.org/2000/svg"
     xmlns:xlink="http://www.w3.org/1999/xlink" width="1920" height="1440" >

            <defs>
            <style type="text/css"><![CDATA[
circle {stroke: none;}
.c0 {fill: #FFFFFF;}
]]></style>
            </defs>
<rect x="0" y="0" width="1920" height="1440" fill="black"/>
<circle cx="1408" cy="642" r="14" class="c0"/>
<circle cx="1336" cy="734" r="12" class="c0"/>
<circle cx="1404" cy="1126" r="12" class="c0"/>
<circle cx="1318" cy="716" r="12" class="c0"/>
<circle cx="1288" cy="398" r="12" class="c0"/>
<circle cx="1334" cy="570" r="12" class="c0"/>
<circle cx="1378" cy="710" r="12" class="c0"/>
<circle cx="1408" cy="330" r="12" class="c0"/>
<circle cx="1070" cy="570" r="12" class="c0"/>
<circle cx="1428" cy="1170" r="12" class="c0"/>
<circle cx="1406" cy="742" r="12" class="c0"/>
<circle cx="1332" cy="1272" r="12" class="c0"/>
<circle cx="1370" cy="982" r="12" class="c0"/>
<circle cx="1416" cy="588" r="12" class="c0"/>
<circle cx="1286" cy="492" r="12" class="c0"/>
<circle cx="1346" cy="676" r="12" class="c0"/>
<circle cx="1324" cy="968" r="12" class="c0"/>
<circle cx="1352" cy="1064" r="12" class="c0"/>
<circle cx="1508" cy="800" r="12" class="c0"/>
<circle cx="1464" cy="1188" r="12" class="c0"/>
<circle cx="1118" cy="668" r="12" class="c0"/>
<circle cx="1260" cy="726" r="12" class="c0"/>
<circle cx="1356" cy="866" r="12" class="c0"/>
<circle cx="1338" cy="1050" r="12" class="c0"/>
<circle cx="1392" cy="904" r="12" class="c0"/>
<circle cx="1424" cy="1310" r="12" class="c0"/>
<circle cx="1348" cy="900" r="12" class="c0"/>
<circle cx="1246" cy="1410" r="12" class="c0"/>
<circle cx="1492" cy="1024" r="12" class="c0"/>
<circle cx="1480" cy="1168" r="12" class="c0"/>
<circle cx="1392" cy="860" r="12" class="c0"/>
<circle cx="1394" cy="376" r="12" class="c0"/>
<circle cx="1302" cy="1216" r="12" class="c0"/>
<circle cx="1260" cy="1370" r="12" class="c0"/>
<circle cx="1418" cy="1394" r="12" class="c0"/>
<circle cx="1536" cy="1140" r="12" class="c0"/>
<circle cx="1426" cy="614" r="12" class="c0"/>
<circle cx="1388" cy="1022" r="12" class="c0"/>
<circle cx="1486" cy="1090" r="12" class="c0"/>
<circle cx="1272" cy="1136" r="12" class="c0"/>
<circle cx="1450" cy="1078" r="12" class="c0"/>
<circle cx="1508" cy="920" r="12" class="c0"/>
<circle cx="1448" cy="994" r="12" class="c0"/>
<circle cx="1408" cy="1048" r="12" class="c0"/>
<circle cx="1452" cy="1044" r="12" class="c0"/>
<circle cx="1562" cy="1120" r="10" class="c0"/>
<circle cx="1482" cy="822" r="10" class="c0"/>
<circle cx="1084" cy="596" r="10" class="c0"/>
<circle cx="1414" cy="1150" r="10" class="c0"/>
<circle cx="1410" cy="530" r="10" class="c0"/>
<circle cx="1476" cy="946" r="10" class="c0"/>
<circle cx="1444" cy="570" r="10" class="c0"/>
<circle cx="1426" cy="854" r="10" class="c0"/>
<circle cx="1316" cy="990" r="10" class="c0"/>
<circle cx="1480" cy="1316" r="10" class="c0"/>
<circle cx="1274" cy="356" r="10" class="c0"/>
<circle cx="1312" cy="1088" r="10" class="c0"/>
<circle cx="1226" cy="314" r="10" class="c0"/>
<circle cx="1310" cy="1036" r="10" class="c0"/>
<circle cx="1472" cy="728" r="10" class="c0"/>
<circle cx="1358" cy="1040" r="10" class="c0"/>
<circle cx="1394" cy="566" r="10" class="c0"/>
<circle cx="1302" cy="1336" r="10" class="c0"/>
<circle cx="1328" cy="692" r="10" class="c0"/>
<circle cx="1516" cy="894" r="10" class="c0"/>
<circle cx="1340" cy="476" r="10" class="c0"/>
<circle cx="1310" cy="744" r="10" class="c0"/>
<circle cx="1070" cy="634" r="10" class="c0"/>
<circle cx="1460" cy="808" r="10" class="c0"/>
<circle cx="1426" cy="794" r="10" class="c0"/>
<circle cx="1446" cy="1158" r="10" class="c0"/>
<circle cx="1332" cy="1172" r="10" class="c0"/>
<circle cx="1486" cy="1244" r="10" class="c0"/>
<circle cx="1470" cy="1288" r="10" class="c0"/>
<circle cx="1316" cy="518" r="10" class="c0"/>
<circle cx="1224" cy="1146" r="10" class="c0"/>
<circle cx="1362" cy="936" r="10" class="c0"/>
<circle cx="1382" cy="1166" r="10" class="c0"/>
<circle cx="1386" cy="438" r="10" class="c0"/>
<circle cx="1290" cy="1098" r="10" class="c0"/>
<circle cx="1260" cy="1266" r="10" class="c0"/>
<circle cx="1448" cy="1352" r="10" class="c0"/>
<circle cx="1444" cy="1412" r="10" class="c0"/>
<circle cx="1482" cy="1222" r="10" class="c0"/>
<circle cx="1178" cy="672" r="10" class="c0"/>
<circle cx="1366" cy="612" r="10" class="c0"/>
<circle cx="1034" cy="560" r="10" class="c0"/>
<circle cx="1382" cy="1086" r="10" class="c0"/>
<circle cx="1266" cy="406" r="10" class="c0"/>
<circle cx="1538" cy="1168" r="10" class="c0"/>
<circle cx="1142" cy="678" r="10" class="c0"/>
<circle cx="1422" cy="770" r="10" class="c0"/>
<circle cx="1290" cy="1364" r="10" class="c0"/>
<circle cx="1440" cy="1018" r="10" class="c0"/>
<circle cx="1396" cy="664" r="10" class="c0"/>
<circle cx="1360" cy="464" r="10" class="c0"/>
<circle cx="1470" cy="782" r="10" class="c0"/>
<circle cx="1046" cy="602" r="10" class="c0"/>
<circle cx="998" cy="482" r="10" class="c0"/>
<circle cx="1392" cy="772" r="10" class="c0"/>
<circle cx="1268" cy="552" r="10" class="c0"/>
<circle cx="1434" cy="1206" r="10" class="c0"/>
<circle cx="1486" cy="744" r="10" class="c0"/>
<circle cx="1016" cy="460" r="10" class="c0"/>
<circle cx="1348" cy="634" r="10" class="c0"/>
<circle cx="1458" cy="1232" r="10" class="c0"/>
<circle cx="1552" cy="1098" r="10" class="c0"/>
<circle cx="1314" cy="1300" r="10" class="c0"/>
<circle cx="1286" cy="1290" r="10" class="c0"/>
<circle cx="1264" cy="1110" r="10" class="c0"/>
<circle cx="1330" cy="802" r="10" class="c0"/>
<circle cx="1516" cy="842" r="10" class="c0"/>
<circle cx="1296" cy="534" r="10" class="c0"/>
<circle cx="1394" cy="950" r="10" class="c0"/>
<circle cx="1434" cy="706" r="10" class="c0"/>
<circle cx="1278" cy="1342" r="10" class="c0"/>
<circle cx="1318" cy="470" r="10" class="c0"/>
<circle cx="1466" cy="602" r="10" class="c0"/>
<circle cx="1440" cy="916" r="10" class="c0"/>
<circle cx="1278" cy="1256" r="10" class="c0"/>
<circle cx="1484" cy="878" r="10" class="c0"/>
<circle cx="1284" cy="1318" r="10" class="c0"/>
<circle cx="1308" cy="450" r="10" class="c0"/>
<circle cx="1130" cy="708" r="10" class="c0"/>
<circle cx="1036" cy="496" r="10" class="c0"/>
<circle cx="1370" cy="1194" r="10" class="c0"/>
<circle cx="1440" cy="542" r="10" class="c0"/>
<circle cx="1330" cy="1194" r="10" class="c0"/>
<circle cx="1436" cy="506" r="10" class="c0"/>
<circle cx="1314" cy="1250" r="10" class="c0"/>
<circle cx="1078" cy="682" r="10" class="c0"/>
<circle cx="1432" cy="1122" r="10" class="c0"/>
<circle cx="1410" cy="356" r="10" class="c0"/>
<circle cx="1348" cy="1148" r="10" class="c0"/>
<circle cx="1432" cy="746" r="10" class="c0"/>
<circle cx="1520" cy="988" r="10" class="c0"/>
<circle cx="1412" cy="490" r="10" class="c0"/>
<circle cx="1284" cy="708" r="10" class="c0"/>
<circle cx="1536" cy="1078" r="10" class="c0"/>
<circle cx="1430" cy="656" r="10" class="c0"/>
<circle cx="1356" cy="1124" r="10" class="c0"/>
<circle cx="1224" cy="718" r="10" class="c0"/>
<circle cx="1460" cy="550" r="10" class="c0"/>
<circle cx="1454" cy="748" r="10" class="c0"/>
<circle cx="1500" cy="1060" r="10" class="c0"/>
<circle cx="1438" cy="952" r="10" class="c0"/>
<circle cx="1054" cy="658" r="10" class="c0"/>
<circle cx="1300" cy="1166" r="10" class="c0"/>
<circle cx="992" cy="506" r="10" class="c0"/>
<circle cx="1470" cy="896" r="10" class="c0"/>
<circle cx="1424" cy="1336" r="10" class="c0"/>
<circle cx="1446" cy="1266" r="10" class="c0"/>
<circle cx="1432" cy="816" r="10" class="c0"/>
<circle cx="1230" cy="880" r="10" class="c0"/>
<circle cx="1366" cy="552" r="10" class="c0"/>
<circle cx="1418" cy="1266" r="10" class="c0"/>
<circle cx="1404" cy="1294" r="10" class="c0"/>
<circle cx="1376" cy="806" r="10" class="c0"/>
<circle cx="1288" cy="1390" r="10" class="c0"/>
<circle cx="1452" cy="668" r="10" class="c0"/>
<circle cx="1368" cy="662" r="10" class="c0"/>
<circle cx="1144" cy="656" r="10" class="c0"/>
<circle cx="1238" cy="1386" r="10" class="c0"/>
<circle cx="1462" cy="1424" r="10" class="c0"/>
<circle cx="1296" cy="1192" r="10" class="c0"/>
<circle cx="1460" cy="864" r="10" class="c0"/>
<circle cx="1352" cy="534" r="10" class="c0"/>
<circle cx="1328" cy="648" r="10" class="c0"/>
<circle cx="1346" cy="606" r="8" class="c0"/>
<circle cx="1062" cy="480" r="8" class="c0"/>
<circle cx="1240" cy="692" r="8" class="c0"/>
<circle cx="1450" cy="1298" r="8" class="c0"/>
<circle cx="1420" cy="908" r="8" class="c0"/>
<circle cx="1404" cy="1074" r="8" class="c0"/>
<circle cx="1288" cy="1230" r="8" class="c0"/>
<circle cx="1378" cy="538" r="8" class="c0"/>
<circle cx="1010" cy="580" r="8" class="c0"/>
<circle cx="1306" cy="778" r="8" class="c0"/>
<circle cx="1372" cy="494" r="8" class="c0"/>
<circle cx="1492" cy="846" r="8" class="c0"/>
<circle cx="1154" cy="700" r="8" class="c0"/>
<circle cx="1412" cy="1106" r="8" class="c0"/>
<circle cx="1382" cy="582" r="8" class="c0"/>
<circle cx="1368" cy="572" r="8" class="c0"/>
<circle cx="1452" cy="628" r="8" class="c0"/>
<circle cx="1364" cy="514" r="8" class="c0"/>
<circle cx="1314" cy="598" r="8" class="c0"/>
<circle cx="1370" cy="838" r="8" class="c0"/>
<circle cx="1326" cy="534" r="8" class="c0"/>
<circle cx="1308" cy="570" r="8" class="c0"/>
<circle cx="1310" cy="1128" r="8" class="c0"/>
<circle cx="1572" cy="1140" r="8" class="c0"/>
<circle cx="1452" cy="1128" r="8" class="c0"/>
<circle cx="1296" cy="586" r="8" class="c0"/>
<circle cx="1270" cy="574" r="8" class="c0"/>
<circle cx="1472" cy="580" r="8" class="c0"/>
<circle cx="1370" cy="892" r="8" class="c0"/>
<circle cx="1476" cy="1012" r="8" class="c0"/>
<circle cx="1490" cy="1002" r="8" class="c0"/>
<circle cx="1366" cy="1096" r="8" class="c0"/>
<circle cx="1066" cy="612" r="8" class="c0"/>
<circle cx="1418" cy="964" r="8" class="c0"/>
<circle cx="1462" cy="1364" r="8" class="c0"/>
<circle cx="1368" cy="910" r="8" class="c0"/>
<circle cx="1334" cy="886" r="8" class="c0"/>
<circle cx="1522" cy="1024" r="8" class="c0"/>
<circle cx="1500" cy="952" r="8" class="c0"/>
<circle cx="1396" cy="826" r="8" class="c0"/>
<circle cx="1530" cy="940" r="8" class="c0"/>
<circle cx="1250" cy="842" r="8" class="c0"/>
<circle cx="1342" cy="994" r="8" class="c0"/>
<circle cx="1388" cy="628" r="8" class="c0"/>
<circle cx="1090" cy="618" r="8" class="c0"/>
<circle cx="1474" cy="648" r="8" class="c0"/>
<circle cx="1512" cy="1168" r="8" class="c0"/>
<circle cx="1394" cy="608" r="8" class="c0"/>
<circle cx="1306" cy="692" r="8" class="c0"/>
<circle cx="1276" cy="1166" r="8" class="c0"/>
<circle cx="1394" cy="1108" r="8" class="c0"/>
<circle cx="1254" cy="318" r="8" class="c0"/>
<circle cx="1410" cy="892" r="8" class="c0"/>
<circle cx="1378" cy="358" r="8" class="c0"/>
<circle cx="1302" cy="1280" r="8" class="c0"/>
<circle cx="1248" cy="1348" r="8" class="c0"/>
<circle cx="1444" cy="1380" r="8" class="c0"/>
<circle cx="1342" cy="1242" r="8" class="c0"/>
<circle cx="1266" cy="766" r="8" class="c0"/>
<circle cx="1420" cy="1238" r="8" class="c0"/>
<circle cx="1276" cy="1078" r="8" class="c0"/>
<circle cx="1348" cy="786" r="8" class="c0"/>
<circle cx="1352" cy="1184" r="8" class="c0"/>
<circle cx="1220" cy="694" r="8" class="c0"/>
<circle cx="1420" cy="1362" r="8" class="c0"/>
<circle cx="1332" cy="848" r="8" class="c0"/>
<circle cx="1298" cy="1144" r="8" class="c0"/>
<circle cx="1006" cy="522" r="8" class="c0"/>
<circle cx="1474" cy="696" r="8" class="c0"/>
<circle cx="1442" cy="1320" r="8" class="c0"/>
<circle cx="1476" cy="982" r="8" class="c0"/>
<circle cx="1286" cy="438" r="8" class="c0"/>
<circle cx="1348" cy="836" r="8" class="c0"/>
<circle cx="1228" cy="1426" r="8" class="c0"/>
<circle cx="1522" cy="1112" r="8" class="c0"/>
<circle cx="1374" cy="392" r="8" class="c0"/>
<circle cx="1026" cy="534" r="8" class="c0"/>
<circle cx="1502" cy="1132" r="8" class="c0"/>
<circle cx="1404" cy="692" r="8" class="c0"/>
<circle cx="1520" cy="1062" r="8" class="c0"/>
<circle cx="1324" cy="1018" r="8" class="c0"/>
<circle cx="1340" cy="756" r="8" class="c0"/>
<circle cx="1390" cy="344" r="8" class="c0"/>
<circle cx="1312" cy="498" r="8" class="c0"/>
<circle cx="1266" cy="1418" r="8" class="c0"/>
<circle cx="1384" cy="1048" r="8" class="c0"/>
<circle cx="1368" cy="740" r="8" class="c0"/>
<circle cx="1274" cy="674" r="8" class="c0"/>
<circle cx="1400" cy="1194" r="8" class="c0"/>
<circle cx="1048" cy="514" r="8" class="c0"/>
<circle cx="1350" cy="1088" r="8" class="c0"/>
<circle cx="1302" cy="480" r="8" class="c0"/>
<circle cx="1326" cy="1074" r="8" class="c0"/>
<circle cx="1286" cy="654" r="8" class="c0"/>
<circle cx="1450" cy="768" r="8" class="c0"/>
<circle cx="1312" cy="616" r="8" class="c0"/>
<circle cx="1332" cy="1130" r="8" class="c0"/>
<circle cx="1310" cy="430" r="8" class="c0"/>
<circle cx="1290" cy="608" r="8" class="c0"/>
<circle cx="1398" cy="996" r="8" class="c0"/>
<circle cx="1410" cy="810" r="8" class="c0"/>
<circle cx="1346" cy="498" r="8" class="c0"/>
<circle cx="1456" cy="832" r="8" class="c0"/>
<circle cx="1340" cy="928" r="8" class="c0"/>
<circle cx="1420" cy="934" r="8" class="c0"/>
<circle cx="1298" cy="1016" r="8" class="c0"/>
<circle cx="1466" cy="1388" r="8" class="c0"/>
<circle cx="1518" cy="874" r="8" class="c0"/>
<circle cx="1472" cy="926" r="8" class="c0"/>
<circle cx="1494" cy="898" r="8" class="c0"/>
<circle cx="1362" cy="774" r="8" class="c0"/>
<circle cx="1414" cy="554" r="8" class="c0"/>
<circle cx="1410" cy="1226" r="8" class="c0"/>
<circle cx="1430" cy="324" r="8" class="c0"/>
<circle cx="1416" cy="680" r="8" class="c0"/>
<circle cx="1088" cy="644" r="8" class="c0"/>
<circle cx="1172" cy="704" r="8" class="c0"/>
<circle cx="1516" cy="1080" r="8" class="c0"/>
<circle cx="1010" cy="558" r="8" class="c0"/>
<circle cx="1224" cy="350" r="8" class="c0"/>
<circle cx="1246" cy="712" r="8" class="c0"/>
<circle cx="1222" cy="910" r="8" class="c0"/>
<circle cx="1422" cy="722" r="8" class="c0"/>
<circle cx="1368" cy="690" r="8" class="c0"/>
<circle cx="1502" cy="970" r="8" class="c0"/>
<circle cx="1538" cy="906" r="8" class="c0"/>
<circle cx="1346" cy="710" r="8" class="c0"/>
<circle cx="1364" cy="590" r="8" class="c0"/>
<circle cx="1406" cy="1172" r="8" class="c0"/>
<circle cx="1472" cy="666" r="8" class="c0"/>
<circle cx="1214" cy="332" r="8" class="c0"/>
<circle cx="1288" cy="1052" r="8" class="c0"/>
<circle cx="1448" cy="724" r="8" class="c0"/>
<circle cx="1278" cy="1214" r="8" class="c0"/>
<circle cx="1472" cy="1066" r="8" class="c0"/>
<circle cx="1264" cy="340" r="8" class="c0"/>
<circle cx="1388" cy="930" r="8" class="c0"/>
<circle cx="1206" cy="940" r="8" class="c0"/>
<circle cx="1264" cy="788" r="8" class="c0"/>
<circle cx="1238" cy="1128" r="8" class="c0"/>
<circle cx="1462" cy="958" r="8" class="c0"/>
<circle cx="1372" cy="1148" r="8" class="c0"/>
<circle cx="1084" cy="662" r="8" class="c0"/>
<circle cx="1312" cy="638" r="8" class="c0"/>
<circle cx="1440" cy="870" r="8" class="c0"/>
<circle cx="1288" cy="746" r="8" class="c0"/>
<circle cx="1396" cy="472" r="8" class="c0"/>
<circle cx="1458" cy="1334" r="8" class="c0"/>
<circle cx="1194" cy="684" r="8" class="c0"/>
<circle cx="1322" cy="628" r="8" class="c0"/>
<circle cx="1244" cy="1310" r="8" class="c0"/>
<circle cx="1438" cy="342" r="8" class="c0"/>
<circle cx="1502" cy="1178" r="8" class="c0"/>
<circle cx="1404" cy="792" r="8" class="c0"/>
<circle cx="1446" cy="790" r="8" class="c0"/>
<circle cx="1120" cy="692" r="8" class="c0"/>
<circle cx="1364" cy="408" r="8" class="c0"/>
<circle cx="1240" cy="364" r="8" class="c0"/>
<circle cx="1426" cy="1090" r="8" class="c0"/>
<circle cx="1358" cy="1230" r="8" class="c0"/>
<circle cx="1048" cy="638" r="8" class="c0"/>
<circle cx="1362" cy="432" r="8" class="c0"/>
<circle cx="1264" cy="688" r="8" class="c0"/>
<circle cx="1438" cy="1228" r="8" class="c0"/>
<circle cx="1390" cy="882" r="8" class="c0"/>
<circle cx="1432" cy="1060" r="8" class="c0"/>
<circle cx="1208" cy="706" r="8" class="c0"/>
<circle cx="1398" cy="546" r="8" class="c0"/>
<circle cx="1208" cy="668" r="8" class="c0"/>
<circle cx="1452" cy="520" r="8" class="c0"/>
<circle cx="1514" cy="1044" r="8" class="c0"/>
<circle cx="1360" cy="720" r="8" class="c0"/>
<circle cx="1348" cy="970" r="8" class="c0"/>
<circle cx="1432" cy="896" r="8" class="c0"/>
<circle cx="1182" cy="720" r="8" class="c0"/>
<circle cx="1348" cy="1106" r="8" class="c0"/>
<circle cx="1458" cy="712" r="8" class="c0"/>
<circle cx="1494" cy="1150" r="8" class="c0"/>
<circle cx="1432" cy="1286" r="8" class="c0"/>
<circle cx="1416" cy="510" r="8" class="c0"/>
<circle cx="1540" cy="848" r="8" class="c0"/>
<circle cx="1284" cy="372" r="8" class="c0"/>
<circle cx="1280" cy="564" r="8" class="c0"/>
<circle cx="1446" cy="844" r="8" class="c0"/>
<circle cx="1040" cy="580" r="8" class="c0"/>
<circle cx="1464" cy="1118" r="8" class="c0"/>
<circle cx="1274" cy="382" r="8" class="c0"/>
<circle cx="1392" cy="512" r="8" class="c0"/>
<circle cx="1260" cy="818" r="8" class="c0"/>
<circle cx="1378" cy="420" r="8" class="c0"/>
<circle cx="1322" cy="1330" r="8" class="c0"/>
<circle cx="1318" cy="550" r="8" class="c0"/>
<circle cx="1442" cy="638" r="8" class="c0"/>
<circle cx="1358" cy="700" r="8" class="c0"/>
<circle cx="1262" cy="528" r="8" class="c0"/>
<circle cx="1316" cy="1182" r="8" class="c0"/>
<circle cx="1224" cy="1398" r="8" class="c0"/>
<circle cx="1330" cy="826" r="8" class="c0"/>
<circle cx="1556" cy="1160" r="8" class="c0"/>
<circle cx="1288" cy="1118" r="8" class="c0"/>
<circle cx="1414" cy="1012" r="8" class="c0"/>
<circle cx="1476" cy="1146" r="8" class="c0"/>
<circle cx="1254" cy="352" r="8" class="c0"/>
<circle cx="994" cy="434" r="8" class="c0"/>
<circle cx="1346" cy="952" r="8" class="c0"/>
<circle cx="1344" cy="588" r="8" class="c0"/>
<circle cx="1316" cy="672" r="8" class="c0"/>
<circle cx="1238" cy="334" r="8" class="c0"/>
<circle cx="1244" cy="1152" r="8" class="c0"/>
<circle cx="1540" cy="888" r="8" class="c0"/>
<circle cx="1492" cy="774" r="8" class="c0"/>
<circle cx="1402" cy="720" r="8" class="c0"/>
<circle cx="1052" cy="550" r="8" class="c0"/>
<circle cx="1524" cy="966" r="8" class="c0"/>
<circle cx="1452" cy="692" r="8" class="c0"/>
<circle cx="1236" cy="674" r="8" class="c0"/>
<circle cx="1266" cy="1310" r="8" class="c0"/>
<circle cx="1094" cy="696" r="8" class="c0"/>
<circle cx="1040" cy="474" r="8" class="c0"/>
<circle cx="1324" cy="1102" r="8" class="c0"/>
<circle cx="1452" cy="590" r="8" class="c0"/>
<circle cx="1296" cy="556" r="8" class="c0"/>
<circle cx="1486" cy="798" r="8" class="c0"/>
<circle cx="1254" cy="756" r="8" class="c0"/>
<circle cx="1530" cy="828" r="8" class="c0"/>
<circle cx="1254" cy="1300" r="8" class="c0"/>
<circle cx="1512" cy="1144" r="8" class="c0"/>
<circle cx="1420" cy="834" r="8" class="c0"/>
<circle cx="1490" cy="932" r="8" class="c0"/>
<circle cx="1350" cy="1012" r="8" class="c0"/>
<circle cx="1510" cy="1014" r="8" class="c0"/>
<circle cx="1448" cy="610" r="8" class="c0"/>
<circle cx="1016" cy="510" r="8" class="c0"/>
<circle cx="1468" cy="1032" r="8" class="c0"/>
<circle cx="1432" cy="980" r="8" class="c0"/>
<circle cx="1408" cy="918" r="8" class="c0"/>
<circle cx="1292" cy="678" r="8" class="c0"/>
<circle cx="1058" cy="680" r="8" class="c0"/>
<circle cx="1294" cy="630" r="8" class="c0"/>
<circle cx="1308" cy="408" r="8" class="c0"/>
<circle cx="1352" cy="808" r="8" class="c0"/>
<circle cx="1102" cy="656" r="8" class="c0"/>
<circle cx="1358" cy="826" r="8" class="c0"/>
<circle cx="1370" cy="642" r="8" class="c0"/>
<circle cx="1464" cy="1092" r="8" class="c0"/>
<circle cx="1036" cy="618" r="8" class="c0"/>
<circle cx="1372" cy="1008" r="8" class="c0"/>
<circle cx="1436" cy="684" r="8" class="c0"/>
<circle cx="1480" cy="764" r="8" class="c0"/>
<circle cx="1314" cy="1154" r="8" class="c0"/>
<circle cx="1338" cy="1222" r="8" class="c0"/>
<circle cx="1268" cy="1232" r="8" class="c0"/>
<circle cx="1330" cy="766" r="8" class="c0"/>
<circle cx="1422" cy="1422" r="8" class="c0"/>
<circle cx="1420" cy="990" r="8" class="c0"/>
<circle cx="1256" cy="1326" r="8" class="c0"/>
<circle cx="1484" cy="1050" r="8" class="c0"/>
<circle cx="1486" cy="1118" r="8" class="c0"/>
<circle cx="1160" cy="718" r="8" class="c0"/>
<circle cx="1390" cy="410" r="8" class="c0"/>
<circle cx="1464" cy="1258" r="8" class="c0"/>
<circle cx="1452" cy="936" r="8" class="c0"/>
<circle cx="1542" cy="924" r="8" class="c0"/>
<circle cx="1334" cy="616" r="8" class="c0"/>
<circle cx="1246" cy="860" r="8" class="c0"/>
<circle cx="1402" cy="972" r="8" class="c0"/>
<circle cx="1380" cy="750" r="8" class="c0"/>
<circle cx="1378" cy="1124" r="8" class="c0"/>
<circle cx="1060" cy="588" r="8" class="c0"/>
<circle cx="1356" cy="1206" r="8" class="c0"/>
<circle cx="1300" cy="1066" r="8" class="c0"/>
<circle cx="1290" cy="1410" r="6" class="c0"/>
<circle cx="1504" cy="1110" r="6" class="c0"/>
<circle cx="1014" cy="494" r="6" class="c0"/>
<circle cx="1246" cy="742" r="6" class="c0"/>
<circle cx="1256" cy="1432" r="6" class="c0"/>
<circle cx="1272" cy="1278" r="6" class="c0"/>
<circle cx="1364" cy="1170" r="6" class="c0"/>
<circle cx="1474" cy="840" r="6" class="c0"/>
<circle cx="1330" cy="948" r="6" class="c0"/>
<circle cx="1110" cy="704" r="6" class="c0"/>
<circle cx="1330" cy="458" r="6" class="c0"/>
<circle cx="1386" cy="678" r="6" class="c0"/>
<circle cx="1360" cy="998" r="6" class="c0"/>
<circle cx="1430" cy="1252" r="6" class="c0"/>
<circle cx="1196" cy="728" r="6" class="c0"/>
<circle cx="1424" cy="878" r="6" class="c0"/>
<circle cx="1314" cy="1358" r="6" class="c0"/>
<circle cx="1392" cy="1226" r="6" class="c0"/>
<circle cx="1364" cy="758" r="6" class="c0"/>
<circle cx="1336" cy="546" r="6" class="c0"/>
<circle cx="1404" cy="1334" r="6" class="c0"/>
<circle cx="1330" cy="1310" r="6" class="c0"/>
<circle cx="1504" cy="856" r="6" class="c0"/>
<circle cx="1466" cy="1212" r="6" class="c0"/>
<circle cx="1278" cy="530" r="6" class="c0"/>
<circle cx="1488" cy="1194" r="6" class="c0"/>
<circle cx="1448" cy="1246" r="6" class="c0"/>
<circle cx="1316" cy="1232" r="6" class="c0"/>
<circle cx="990" cy="526" r="6" class="c0"/>
<circle cx="1404" cy="1366" r="6" class="c0"/>
<circle cx="1308" cy="1108" r="6" class="c0"/>
<circle cx="1262" cy="1152" r="6" class="c0"/>
<circle cx="1382" cy="786" r="6" class="c0"/>
<circle cx="1366" cy="960" r="6" class="c0"/>
<circle cx="1270" cy="746" r="6" class="c0"/>
<circle cx="1098" cy="676" r="6" class="c0"/>
<circle cx="1362" cy="484" r="6" class="c0"/>
<circle cx="1478" cy="1354" r="6" class="c0"/>
<circle cx="1410" cy="1412" r="6" class="c0"/>
<circle cx="1450" cy="888" r="6" class="c0"/>
<circle cx="1246" cy="806" r="6" class="c0"/>
<circle cx="1508" cy="822" r="6" class="c0"/>
<circle cx="1250" cy="776" r="6" class="c0"/>
<circle cx="1328" cy="590" r="6" class="c0"/>
<circle cx="1396" cy="1148" r="6" class="c0"/>
<circle cx="1214" cy="734" r="6" class="c0"/>
<circle cx="1390" cy="1066" r="6" class="c0"/>
<circle cx="1258" cy="384" r="6" class="c0"/>
<circle cx="1450" cy="1102" r="6" class="c0"/>
<circle cx="1524" cy="1178" r="6" class="c0"/>
<circle cx="1356" cy="1254" r="6" class="c0"/>
<circle cx="1426" cy="572" r="6" class="c0"/>
<circle cx="1024" cy="594" r="6" class="c0"/>
<circle cx="1478" cy="618" r="6" class="c0"/>
<circle cx="1044" cy="532" r="6" class="c0"/>
<circle cx="1256" cy="1126" r="6" class="c0"/>
<circle cx="1282" cy="1036" r="6" class="c0"/>
<circle cx="1300" cy="1378" r="6" class="c0"/>
<circle cx="1264" cy="1394" r="6" class="c0"/>
<circle cx="1312" cy="796" r="6" class="c0"/>
<circle cx="1482" cy="916" r="6" class="c0"/>
<circle cx="1488" cy="1276" r="6" class="c0"/>
<circle cx="1172" cy="654" r="6" class="c0"/>
<circle cx="1296" cy="508" r="6" class="c0"/>
<circle cx="1262" cy="1092" r="6" class="c0"/>
<circle cx="1034" cy="456" r="6" class="c0"/>
<circle cx="1510" cy="1096" r="6" class="c0"/>
<circle cx="1386" cy="646" r="6" class="c0"/>
<circle cx="1300" cy="1000" r="6" class="c0"/>
<circle cx="1388" cy="492" r="6" class="c0"/>
<circle cx="1378" cy="456" r="6" class="c0"/>
<circle cx="1298" cy="732" r="6" class="c0"/>
<circle cx="1276" cy="1406" r="6" class="c0"/>
<circle cx="1530" cy="1040" r="6" class="c0"/>
<circle cx="1404" cy="1248" r="6" class="c0"/>
<circle cx="1302" cy="762" r="6" class="c0"/>
<circle cx="1382" cy="328" r="6" class="c0"/>
<circle cx="1482" cy="966" r="6" class="c0"/>
<circle cx="1238" cy="732" r="6" class="c0"/>
<circle cx="1388" cy="694" r="6" class="c0"/>
<circle cx="1298" cy="1242" r="6" class="c0"/>
<circle cx="1542" cy="1120" r="6" class="c0"/>
<circle cx="1212" cy="1432" r="6" class="c0"/>
<circle cx="1432" cy="1040" r="6" class="c0"/>
<circle cx="1372" cy="1070" r="6" class="c0"/>
<circle cx="1246" cy="1112" r="6" class="c0"/>
<circle cx="1460" cy="1016" r="6" class="c0"/>
<circle cx="1276" cy="516" r="6" class="c0"/>
<circle cx="1430" cy="528" r="6" class="c0"/>
<circle cx="1296" cy="1306" r="6" class="c0"/>
<circle cx="1524" cy="1154" r="6" class="c0"/>
<circle cx="1188" cy="658" r="6" class="c0"/>
<circle cx="1420" cy="1030" r="6" class="c0"/>
<circle cx="1406" cy="1090" r="6" class="c0"/>
<circle cx="1052" cy="620" r="6" class="c0"/>
<circle cx="1278" cy="638" r="6" class="c0"/>
<circle cx="1306" cy="660" r="6" class="c0"/>
<circle cx="1404" cy="1210" r="6" class="c0"/>
<circle cx="1496" cy="866" r="6" class="c0"/>
<circle cx="1298" cy="382" r="6" class="c0"/>
<circle cx="1570" cy="1104" r="6" class="c0"/>
<circle cx="1476" cy="632" r="6" class="c0"/>
<circle cx="1382" cy="964" r="6" class="c0"/>
<circle cx="1018" cy="478" r="6" class="c0"/>
<circle cx="1032" cy="634" r="6" class="c0"/>
<circle cx="1534" cy="1100" r="6" class="c0"/>
<circle cx="1342" cy="1292" r="6" class="c0"/>
<circle cx="1254" cy="676" r="6" class="c0"/>
<circle cx="1362" cy="796" r="6" class="c0"/>
<circle cx="1326" cy="488" r="6" class="c0"/>
<circle cx="1368" cy="376" r="6" class="c0"/>
<circle cx="1022" cy="608" r="6" class="c0"/>
<circle cx="1454" cy="650" r="6" class="c0"/>
<circle cx="1282" cy="726" r="6" class="c0"/>
<circle cx="1246" cy="562" r="6" class="c0"/>
<circle cx="1396" cy="592" r="6" class="c0"/>
<circle cx="1384" cy="598" r="6" class="c0"/>
<circle cx="1230" cy="852" r="6" class="c0"/>
<circle cx="1478" cy="854" r="6" class="c0"/>
<circle cx="1352" cy="652" r="6" class="c0"/>
<circle cx="1004" cy="542" r="6" class="c0"/>
<circle cx="1400" cy="1264" r="6" class="c0"/>
<circle cx="1452" cy="1210" r="6" class="c0"/>
<circle cx="1340" cy="514" r="6" class="c0"/>
<circle cx="1412" cy="710" r="6" class="c0"/>
<circle cx="1284" cy="1180" r="6" class="c0"/>
<circle cx="1294" cy="424" r="6" class="c0"/>
<circle cx="1378" cy="472" r="6" class="c0"/>
<circle cx="1430" cy="1004" r="6" class="c0"/>
<circle cx="1284" cy="1152" r="6" class="c0"/>
<circle cx="1318" cy="816" r="6" class="c0"/>
<circle cx="1466" cy="1406" r="6" class="c0"/>
<circle cx="1408" cy="846" r="6" class="c0"/>
<circle cx="1066" cy="540" r="6" class="c0"/>
<circle cx="1476" cy="1270" r="6" class="c0"/>
<circle cx="1408" cy="1348" r="6" class="c0"/>
<circle cx="1386" cy="734" r="6" class="c0"/>
<circle cx="1380" cy="522" r="6" class="c0"/>
<circle cx="1160" cy="674" r="6" class="c0"/>
<circle cx="1538" cy="954" r="6" class="c0"/>
<circle cx="1454" cy="972" r="6" class="c0"/>
<circle cx="1394" cy="804" r="6" class="c0"/>
<circle cx="1322" cy="1214" r="6" class="c0"/>
<circle cx="1280" cy="1432" r="6" class="c0"/>
<circle cx="1338" cy="1026" r="6" class="c0"/>
<circle cx="1318" cy="580" r="6" class="c0"/>
<circle cx="1320" cy="1058" r="6" class="c0"/>
<circle cx="1488" cy="1296" r="6" class="c0"/>
<circle cx="1414" cy="870" r="6" class="c0"/>
<circle cx="1258" cy="1284" r="6" class="c0"/>
<circle cx="1322" cy="1118" r="6" class="c0"/>
<circle cx="1470" cy="1346" r="6" class="c0"/>
<circle cx="1478" cy="1334" r="6" class="c0"/>
<circle cx="1372" cy="1216" r="6" class="c0"/>
<circle cx="1314" cy="1008" r="6" class="c0"/>
<circle cx="1416" cy="1190" r="6" class="c0"/>
<circle cx="1454" cy="1398" r="6" class="c0"/>
<circle cx="1444" cy="1192" r="6" class="c0"/>
<circle cx="1436" cy="1432" r="6" class="c0"/>
<circle cx="1494" cy="1210" r="6" class="c0"/>
<circle cx="1328" cy="1146" r="6" class="c0"/>
<circle cx="1492" cy="980" r="6" class="c0"/>
<circle cx="1104" cy="636" r="6" class="c0"/>
<circle cx="1364" cy="1078" r="6" class="c0"/>
<circle cx="1480" cy="1204" r="6" class="c0"/>
<circle cx="1432" cy="1142" r="6" class="c0"/>
<circle cx="1582" cy="1110" r="6" class="c0"/>
<circle cx="1414" cy="310" r="6" class="c0"/>
<circle cx="1464" cy="1306" r="6" class="c0"/>
<circle cx="1386" cy="1186" r="6" class="c0"/>
<circle cx="1332" cy="506" r="6" class="c0"/>
<circle cx="1218" cy="1414" r="6" class="c0"/>
<circle cx="1374" cy="876" r="6" class="c0"/>
<circle cx="1348" cy="554" r="6" class="c0"/>
<circle cx="1322" cy="780" r="6" class="c0"/>
<circle cx="1250" cy="376" r="6" class="c0"/>
<circle cx="1316" cy="950" r="6" class="c0"/>
<circle cx="1512" cy="940" r="6" class="c0"/>
<circle cx="1304" cy="1314" r="6" class="c0"/>
<circle cx="1282" cy="688" r="6" class="c0"/>
<circle cx="1412" cy="1324" r="6" class="c0"/>
<circle cx="1410" cy="1432" r="6" class="c0"/>
<circle cx="1502" cy="880" r="6" class="c0"/>
<circle cx="1532" cy="1000" r="6" class="c0"/>
<circle cx="1328" cy="1002" r="6" class="c0"/>
<circle cx="996" cy="454" r="6" class="c0"/>
<circle cx="1164" cy="690" r="6" class="c0"/>
<circle cx="1422" cy="344" r="6" class="c0"/>
<circle cx="1556" cy="1142" r="6" class="c0"/>
<circle cx="1300" cy="980" r="6" class="c0"/>
<circle cx="1462" cy="638" r="6" class="c0"/>
<circle cx="1264" cy="370" r="6" class="c0"/>
<circle cx="1452" cy="904" r="6" class="c0"/>
<circle cx="1500" cy="830" r="6" class="c0"/>
<circle cx="1500" cy="992" r="6" class="c0"/>
<circle cx="1534" cy="870" r="6" class="c0"/>
<circle cx="1298" cy="464" r="6" class="c0"/>
<circle cx="1050" cy="568" r="6" class="c0"/>
<circle cx="1520" cy="1128" r="6" class="c0"/>
<circle cx="1276" cy="594" r="6" class="c0"/>
<circle cx="1390" cy="1208" r="6" class="c0"/>
<circle cx="1376" cy="1106" r="6" class="c0"/>
<circle cx="1252" cy="576" r="6" class="c0"/>
<circle cx="1294" cy="1264" r="6" class="c0"/>
<circle cx="1118" cy="646" r="6" class="c0"/>
<circle cx="1436" cy="1104" r="6" class="c0"/>
<circle cx="1386" cy="840" r="6" class="c0"/>
<circle cx="1328" cy="904" r="6" class="c0"/>
<circle cx="998" cy="568" r="6" class="c0"/>
<circle cx="1330" cy="864" r="6" class="c0"/>
<circle cx="1376" cy="948" r="6" class="c0"/>
<circle cx="1280" cy="422" r="6" class="c0"/>
<circle cx="1582" cy="1126" r="6" class="c0"/>
<circle cx="1370" cy="448" r="6" class="c0"/>
<circle cx="1268" cy="506" r="6" class="c0"/>
<circle cx="1476" cy="1108" r="6" class="c0"/>
<circle cx="1436" cy="596" r="6" class="c0"/>
<circle cx="1250" cy="540" r="6" class="c0"/>
<circle cx="1352" cy="1268" r="6" class="c0"/>
<circle cx="1192" cy="702" r="6" class="c0"/>
<circle cx="1404" cy="936" r="6" class="c0"/>
<circle cx="1238" cy="1364" r="6" class="c0"/>
<circle cx="1404" cy="1382" r="6" class="c0"/>
<circle cx="1072" cy="652" r="6" class="c0"/>
<circle cx="1422" cy="1070" r="6" class="c0"/>
<circle cx="1404" cy="1314" r="6" class="c0"/>
<circle cx="1286" cy="1006" r="6" class="c0"/>
<circle cx="1480" cy="712" r="6" class="c0"/>
<circle cx="1378" cy="920" r="6" class="c0"/>
<circle cx="1430" cy="1372" r="6" class="c0"/>
<circle cx="1470" cy="564" r="6" class="c0"/>
<circle cx="1388" cy="1138" r="6" class="c0"/>
<circle cx="1360" cy="366" r="6" class="c0"/>
<circle cx="1240" cy="1328" r="6" class="c0"/>
<circle cx="1372" cy="854" r="6" class="c0"/>
<circle cx="1030" cy="518" r="6" class="c0"/>
<circle cx="1446" cy="326" r="6" class="c0"/>
<circle cx="1522" cy="814" r="6" class="c0"/>
<circle cx="1450" cy="1176" r="6" class="c0"/>
<circle cx="1324" cy="934" r="6" class="c0"/>
<circle cx="1464" cy="682" r="6" class="c0"/>
<circle cx="1468" cy="996" r="6" class="c0"/>
<circle cx="1380" cy="828" r="6" class="c0"/>
<circle cx="1182" cy="694" r="6" class="c0"/>
<circle cx="1274" cy="1062" r="6" class="c0"/>
<circle cx="1458" cy="1144" r="6" class="c0"/>
<circle cx="1362" cy="1022" r="6" class="c0"/>
<circle cx="1398" cy="396" r="6" class="c0"/>
<circle cx="1234" cy="830" r="6" class="c0"/>
<circle cx="1312" cy="1200" r="6" class="c0"/>
<circle cx="1352" cy="744" r="6" class="c0"/>
<circle cx="1490" cy="1262" r="6" class="c0"/>
<circle cx="1266" cy="704" r="6" class="c0"/>
<circle cx="1292" cy="1080" r="6" class="c0"/>
<circle cx="1268" cy="1292" r="6" class="c0"/>
<circle cx="1466" cy="1136" r="6" class="c0"/>
<circle cx="1232" cy="900" r="6" class="c0"/>
<circle cx="1350" cy="1168" r="6" class="c0"/>
<circle cx="1286" cy="764" r="6" class="c0"/>
<circle cx="1290" cy="456" r="6" class="c0"/>
<circle cx="1078" cy="548" r="6" class="c0"/>
<circle cx="1526" cy="858" r="6" class="c0"/>
<circle cx="1334" cy="1092" r="6" class="c0"/>
<circle cx="1458" cy="918" r="6" class="c0"/>
<circle cx="1482" cy="680" r="6" class="c0"/>
<circle cx="1382" cy="998" r="6" class="c0"/>
<circle cx="1320" cy="836" r="6" class="c0"/>
<circle cx="1324" cy="442" r="6" class="c0"/>
<circle cx="1474" cy="1128" r="6" class="c0"/>
<circle cx="1278" cy="756" r="6" class="c0"/>
<circle cx="1404" cy="620" r="6" class="c0"/>
<circle cx="1216" cy="926" r="6" class="c0"/>
<circle cx="1466" cy="1156" r="6" class="c0"/>
<circle cx="1520" cy="950" r="6" class="c0"/>
<circle cx="1278" cy="1196" r="6" class="c0"/>
</svg>
