<?xml version="1.0" encoding="utf-8"?>
<svg xmlns="http://www.w3.org/2000/svg"
     xmlns:xlink="http://www.w3.org/1999/xlink" width="1920" height="1440" >

            <defs>
            <style type="text/css"><![CDATA[
circle {stroke: none;}
.c0 {fill: #FFFFFF;}
]]></style>
            </defs>
<rect x="0" y="0" width="1920" height="1440" fill="black"/>
<circle cx="1304" cy="1252" r="14" class="c0"/>
<circle cx="1304" cy="560" r="14" class="c0"/>
<circle cx="1444" cy="652" r="12" class="c0"/>
<circle cx="1408" cy="994" r="12" class="c0"/>
<circle cx="1502" cy="970" r="12" class="c0"/>
<circle cx="1474" cy="994" r="12" class="c0"/>
<circle cx="1468" cy="1236" r="12" class="c0"/>
<circle cx="1432" cy="708" r="12" class="c0"/>
<circle cx="1494" cy="1014" r="12" class="c0"/>
<circle cx="1500" cy="1414" r="12" class="c0"/>
<circle cx="1204" cy="716" r="12" class="c0"/>
<circle cx="1546" cy="1162" r="12" class="c0"/>
<circle cx="1600" cy="1114" r="12" class="c0"/>
<circle cx="1488" cy="838" r="12" class="c0"/>
<circle cx="1386" cy="1088" r="12" class="c0"/>
<circle cx="1362" cy="1226" r="12" class="c0"/>
<circle cx="1306" cy="676" r="12" class="c0"/>
<circle cx="1296" cy="1278" r="12" class="c0"/>
<circle cx="1404" cy="1186" r="12" class="c0"/>
<circle cx="1354" cy="1288" r="12" class="c0"/>
<circle cx="1422" cy="1026" r="12" class="c0"/>
<circle cx="1294" cy="386" r="12" class="c0"/>
<circle cx="1310" cy="1034" r="12" class="c0"/>
<circle cx="1470" cy="916" r="12" class="c0"/>
<circle cx="1414" cy="642" r="12" class="c0"/>
<circle cx="1332" cy="1204" r="12" class="c0"/>
<circle cx="1488" cy="1088" r="12" class="c0"/>
<circle cx="1418" cy="516" r="12" class="c0"/>
<circle cx="1300" cy="1312" r="12" class="c0"/>
<circle cx="1414" cy="744" r="12" class="c0"/>
<circle cx="1554" cy="962" r="12" class="c0"/>
<circle cx="1414" cy="682" r="12" class="c0"/>
<circle cx="1422" cy="844" r="12" class="c0"/>
<circle cx="1522" cy="1066" r="12" class="c0"/>
<circle cx="1292" cy="1416" r="12" class="c0"/>
<circle cx="1478" cy="816" r="12" class="c0"/>
<circle cx="1516" cy="1024" r="12" class="c0"/>
<circle cx="1340" cy="1050" r="12" class="c0"/>
<circle cx="1284" cy="1100" r="12" class="c0"/>
<circle cx="1360" cy="958" r="12" class="c0"/>
<circle cx="1456" cy="1346" r="12" class="c0"/>
<circle cx="1446" cy="1068" r="12" class="c0"/>
<circle cx="1504" cy="1330" r="12" class="c0"/>
<circle cx="1484" cy="952" r="10" class="c0"/>
<circle cx="1344" cy="482" r="10" class="c0"/>
<circle cx="1348" cy="1246" r="10" class="c0"/>
<circle cx="1358" cy="542" r="10" class="c0"/>
<circle cx="1468" cy="1162" r="10" class="c0"/>
<circle cx="1418" cy="782" r="10" class="c0"/>
<circle cx="1358" cy="708" r="10" class="c0"/>
<circle cx="1392" cy="404" r="10" class="c0"/>
<circle cx="1486" cy="1172" r="10" class="c0"/>
<circle cx="1490" cy="1054" r="10" class="c0"/>
<circle cx="1528" cy="1176" r="10" class="c0"/>
<circle cx="1362" cy="1132" r="10" class="c0"/>
<circle cx="1384" cy="966" r="10" class="c0"/>
<circle cx="1414" cy="1138" r="10" class="c0"/>
<circle cx="1106" cy="656" r="10" class="c0"/>
<circle cx="1322" cy="1160" r="10" class="c0"/>
<circle cx="1290" cy="1334" r="10" class="c0"/>
<circle cx="1316" cy="796" r="10" class="c0"/>
<circle cx="1428" cy="760" r="10" class="c0"/>
<circle cx="1504" cy="734" r="10" class="c0"/>
<circle cx="980" cy="618" r="10" class="c0"/>
<circle cx="1182" cy="662" r="10" class="c0"/>
<circle cx="1376" cy="1186" r="10" class="c0"/>
<circle cx="1562" cy="994" r="10" class="c0"/>
<circle cx="1402" cy="458" r="10" class="c0"/>
<circle cx="1382" cy="1002" r="10" class="c0"/>
<circle cx="1402" cy="598" r="10" class="c0"/>
<circle cx="1508" cy="1188" r="10" class="c0"/>
<circle cx="1502" cy="1122" r="10" class="c0"/>
<circle cx="1466" cy="970" r="10" class="c0"/>
<circle cx="1284" cy="1366" r="10" class="c0"/>
<circle cx="1506" cy="642" r="10" class="c0"/>
<circle cx="1268" cy="1126" r="10" class="c0"/>
<circle cx="1386" cy="622" r="10" class="c0"/>
<circle cx="1324" cy="574" r="10" class="c0"/>
<circle cx="1302" cy="1074" r="10" class="c0"/>
<circle cx="1440" cy="784" r="10" class="c0"/>
<circle cx="1318" cy="412" r="10" class="c0"/>
<circle cx="1488" cy="548" r="10" class="c0"/>
<circle cx="1486" cy="720" r="10" class="c0"/>
<circle cx="1496" cy="1214" r="10" class="c0"/>
<circle cx="980" cy="594" r="10" class="c0"/>
<circle cx="1468" cy="1328" r="10" class="c0"/>
<circle cx="1510" cy="1234" r="10" class="c0"/>
<circle cx="1440" cy="730" r="10" class="c0"/>
<circle cx="1442" cy="598" r="10" class="c0"/>
<circle cx="1328" cy="1092" r="10" class="c0"/>
<circle cx="1386" cy="704" r="10" class="c0"/>
<circle cx="1588" cy="1142" r="10" class="c0"/>
<circle cx="1544" cy="844" r="10" class="c0"/>
<circle cx="1482" cy="752" r="10" class="c0"/>
<circle cx="1492" cy="666" r="10" class="c0"/>
<circle cx="1510" cy="948" r="10" class="c0"/>
<circle cx="1016" cy="632" r="10" class="c0"/>
<circle cx="1378" cy="1036" r="10" class="c0"/>
<circle cx="1074" cy="668" r="10" class="c0"/>
<circle cx="1390" cy="806" r="10" class="c0"/>
<circle cx="1250" cy="342" r="10" class="c0"/>
<circle cx="958" cy="558" r="10" class="c0"/>
<circle cx="1406" cy="370" r="10" class="c0"/>
<circle cx="1482" cy="576" r="10" class="c0"/>
<circle cx="1376" cy="566" r="10" class="c0"/>
<circle cx="1336" cy="646" r="10" class="c0"/>
<circle cx="1366" cy="826" r="10" class="c0"/>
<circle cx="1364" cy="884" r="10" class="c0"/>
<circle cx="1470" cy="874" r="10" class="c0"/>
<circle cx="1224" cy="670" r="10" class="c0"/>
<circle cx="1378" cy="1208" r="10" class="c0"/>
<circle cx="1502" cy="1384" r="10" class="c0"/>
<circle cx="1474" cy="606" r="10" class="c0"/>
<circle cx="1554" cy="1068" r="10" class="c0"/>
<circle cx="1372" cy="668" r="10" class="c0"/>
<circle cx="1418" cy="1070" r="10" class="c0"/>
<circle cx="1344" cy="996" r="10" class="c0"/>
<circle cx="1574" cy="882" r="10" class="c0"/>
<circle cx="1360" cy="766" r="10" class="c0"/>
<circle cx="1400" cy="1108" r="10" class="c0"/>
<circle cx="1400" cy="910" r="10" class="c0"/>
<circle cx="1538" cy="948" r="10" class="c0"/>
<circle cx="944" cy="570" r="10" class="c0"/>
<circle cx="1316" cy="512" r="10" class="c0"/>
<circle cx="1456" cy="944" r="10" class="c0"/>
<circle cx="1306" cy="732" r="10" class="c0"/>
<circle cx="1490" cy="862" r="10" class="c0"/>
<circle cx="1538" cy="1124" r="10" class="c0"/>
<circle cx="1560" cy="1092" r="10" class="c0"/>
<circle cx="1458" cy="1272" r="10" class="c0"/>
<circle cx="1254" cy="670" r="10" class="c0"/>
<circle cx="1464" cy="1398" r="10" class="c0"/>
<circle cx="1022" cy="656" r="10" class="c0"/>
<circle cx="1352" cy="1166" r="10" class="c0"/>
<circle cx="1546" cy="1048" r="10" class="c0"/>
<circle cx="1392" cy="578" r="10" class="c0"/>
<circle cx="1402" cy="1160" r="10" class="c0"/>
<circle cx="1556" cy="894" r="10" class="c0"/>
<circle cx="1490" cy="1306" r="10" class="c0"/>
<circle cx="1252" cy="1144" r="10" class="c0"/>
<circle cx="1134" cy="708" r="10" class="c0"/>
<circle cx="1478" cy="1134" r="10" class="c0"/>
<circle cx="1454" cy="848" r="10" class="c0"/>
<circle cx="1504" cy="680" r="10" class="c0"/>
<circle cx="1468" cy="1100" r="10" class="c0"/>
<circle cx="1434" cy="958" r="10" class="c0"/>
<circle cx="1534" cy="808" r="10" class="c0"/>
<circle cx="1406" cy="1040" r="10" class="c0"/>
<circle cx="1448" cy="1170" r="10" class="c0"/>
<circle cx="1530" cy="1200" r="10" class="c0"/>
<circle cx="1520" cy="908" r="10" class="c0"/>
<circle cx="1514" cy="1106" r="10" class="c0"/>
<circle cx="1062" cy="646" r="10" class="c0"/>
<circle cx="1422" cy="926" r="10" class="c0"/>
<circle cx="1470" cy="682" r="10" class="c0"/>
<circle cx="1518" cy="866" r="10" class="c0"/>
<circle cx="1318" cy="696" r="10" class="c0"/>
<circle cx="1504" cy="590" r="10" class="c0"/>
<circle cx="1344" cy="784" r="10" class="c0"/>
<circle cx="1328" cy="388" r="8" class="c0"/>
<circle cx="1496" cy="1284" r="8" class="c0"/>
<circle cx="1346" cy="682" r="8" class="c0"/>
<circle cx="1352" cy="1080" r="8" class="c0"/>
<circle cx="1494" cy="928" r="8" class="c0"/>
<circle cx="1382" cy="542" r="8" class="c0"/>
<circle cx="1316" cy="1366" r="8" class="c0"/>
<circle cx="1586" cy="1082" r="8" class="c0"/>
<circle cx="1512" cy="786" r="8" class="c0"/>
<circle cx="1352" cy="574" r="8" class="c0"/>
<circle cx="1452" cy="1416" r="8" class="c0"/>
<circle cx="1234" cy="694" r="8" class="c0"/>
<circle cx="1426" cy="540" r="8" class="c0"/>
<circle cx="1460" cy="516" r="8" class="c0"/>
<circle cx="1368" cy="788" r="8" class="c0"/>
<circle cx="1564" cy="824" r="8" class="c0"/>
<circle cx="1428" cy="890" r="8" class="c0"/>
<circle cx="1118" cy="696" r="8" class="c0"/>
<circle cx="1272" cy="720" r="8" class="c0"/>
<circle cx="1458" cy="712" r="8" class="c0"/>
<circle cx="1376" cy="1064" r="8" class="c0"/>
<circle cx="1318" cy="1386" r="8" class="c0"/>
<circle cx="1554" cy="804" r="8" class="c0"/>
<circle cx="1460" cy="794" r="8" class="c0"/>
<circle cx="1352" cy="1188" r="8" class="c0"/>
<circle cx="1442" cy="314" r="8" class="c0"/>
<circle cx="1330" cy="466" r="8" class="c0"/>
<circle cx="1374" cy="984" r="8" class="c0"/>
<circle cx="1458" cy="1202" r="8" class="c0"/>
<circle cx="1430" cy="490" r="8" class="c0"/>
<circle cx="1280" cy="356" r="8" class="c0"/>
<circle cx="1174" cy="692" r="8" class="c0"/>
<circle cx="1512" cy="1162" r="8" class="c0"/>
<circle cx="1338" cy="430" r="8" class="c0"/>
<circle cx="1428" cy="1176" r="8" class="c0"/>
<circle cx="1458" cy="558" r="8" class="c0"/>
<circle cx="1488" cy="1356" r="8" class="c0"/>
<circle cx="1482" cy="788" r="8" class="c0"/>
<circle cx="1332" cy="616" r="8" class="c0"/>
<circle cx="1378" cy="744" r="8" class="c0"/>
<circle cx="954" cy="596" r="8" class="c0"/>
<circle cx="1568" cy="1166" r="8" class="c0"/>
<circle cx="1272" cy="324" r="8" class="c0"/>
<circle cx="1334" cy="766" r="8" class="c0"/>
<circle cx="1418" cy="336" r="8" class="c0"/>
<circle cx="1358" cy="506" r="8" class="c0"/>
<circle cx="1326" cy="1008" r="8" class="c0"/>
<circle cx="1464" cy="1304" r="8" class="c0"/>
<circle cx="1326" cy="444" r="8" class="c0"/>
<circle cx="1384" cy="1240" r="8" class="c0"/>
<circle cx="958" cy="534" r="8" class="c0"/>
<circle cx="1412" cy="420" r="8" class="c0"/>
<circle cx="1528" cy="994" r="8" class="c0"/>
<circle cx="1558" cy="1138" r="8" class="c0"/>
<circle cx="1012" cy="588" r="8" class="c0"/>
<circle cx="1376" cy="850" r="8" class="c0"/>
<circle cx="1300" cy="1152" r="8" class="c0"/>
<circle cx="1446" cy="1326" r="8" class="c0"/>
<circle cx="1132" cy="686" r="8" class="c0"/>
<circle cx="1150" cy="696" r="8" class="c0"/>
<circle cx="1262" cy="1358" r="8" class="c0"/>
<circle cx="1334" cy="1234" r="8" class="c0"/>
<circle cx="1202" cy="676" r="8" class="c0"/>
<circle cx="1456" cy="1022" r="8" class="c0"/>
<circle cx="1338" cy="514" r="8" class="c0"/>
<circle cx="1266" cy="1422" r="8" class="c0"/>
<circle cx="1318" cy="1126" r="8" class="c0"/>
<circle cx="1402" cy="726" r="8" class="c0"/>
<circle cx="1372" cy="910" r="8" class="c0"/>
<circle cx="1374" cy="476" r="8" class="c0"/>
<circle cx="1286" cy="1386" r="8" class="c0"/>
<circle cx="1304" cy="530" r="8" class="c0"/>
<circle cx="1402" cy="858" r="8" class="c0"/>
<circle cx="1362" cy="1024" r="8" class="c0"/>
<circle cx="1300" cy="708" r="8" class="c0"/>
<circle cx="1358" cy="654" r="8" class="c0"/>
<circle cx="1298" cy="766" r="8" class="c0"/>
<circle cx="1354" cy="908" r="8" class="c0"/>
<circle cx="1562" cy="1114" r="8" class="c0"/>
<circle cx="1520" cy="1140" r="8" class="c0"/>
<circle cx="1314" cy="1334" r="8" class="c0"/>
<circle cx="1406" cy="946" r="8" class="c0"/>
<circle cx="1318" cy="374" r="8" class="c0"/>
<circle cx="1446" cy="1038" r="8" class="c0"/>
<circle cx="1518" cy="762" r="8" class="c0"/>
<circle cx="1492" cy="700" r="8" class="c0"/>
<circle cx="1160" cy="710" r="8" class="c0"/>
<circle cx="1452" cy="772" r="8" class="c0"/>
<circle cx="1036" cy="644" r="8" class="c0"/>
<circle cx="1318" cy="1272" r="8" class="c0"/>
<circle cx="1396" cy="776" r="8" class="c0"/>
<circle cx="1294" cy="850" r="8" class="c0"/>
<circle cx="1358" cy="804" r="8" class="c0"/>
<circle cx="1436" cy="1122" r="8" class="c0"/>
<circle cx="1440" cy="826" r="8" class="c0"/>
<circle cx="1502" cy="994" r="8" class="c0"/>
<circle cx="1252" cy="1400" r="8" class="c0"/>
<circle cx="1394" cy="552" r="8" class="c0"/>
<circle cx="924" cy="600" r="8" class="c0"/>
<circle cx="1538" cy="974" r="8" class="c0"/>
<circle cx="1340" cy="718" r="8" class="c0"/>
<circle cx="1440" cy="500" r="8" class="c0"/>
<circle cx="1324" cy="1316" r="8" class="c0"/>
<circle cx="1094" cy="692" r="8" class="c0"/>
<circle cx="1442" cy="624" r="8" class="c0"/>
<circle cx="1086" cy="628" r="8" class="c0"/>
<circle cx="1420" cy="610" r="8" class="c0"/>
<circle cx="1338" cy="1028" r="8" class="c0"/>
<circle cx="1448" cy="922" r="8" class="c0"/>
<circle cx="1422" cy="436" r="8" class="c0"/>
<circle cx="1492" cy="882" r="8" class="c0"/>
<circle cx="1458" cy="896" r="8" class="c0"/>
<circle cx="1368" cy="732" r="8" class="c0"/>
<circle cx="1480" cy="630" r="8" class="c0"/>
<circle cx="1156" cy="656" r="8" class="c0"/>
<circle cx="1342" cy="1148" r="8" class="c0"/>
<circle cx="1450" cy="1092" r="8" class="c0"/>
<circle cx="1292" cy="828" r="8" class="c0"/>
<circle cx="1482" cy="526" r="8" class="c0"/>
<circle cx="1434" cy="1008" r="8" class="c0"/>
<circle cx="1440" cy="338" r="8" class="c0"/>
<circle cx="1246" cy="722" r="8" class="c0"/>
<circle cx="1468" cy="546" r="8" class="c0"/>
<circle cx="1364" cy="600" r="8" class="c0"/>
<circle cx="1544" cy="1186" r="8" class="c0"/>
<circle cx="1028" cy="602" r="8" class="c0"/>
<circle cx="1496" cy="1252" r="8" class="c0"/>
<circle cx="1442" cy="1290" r="8" class="c0"/>
<circle cx="1558" cy="922" r="8" class="c0"/>
<circle cx="1420" cy="586" r="8" class="c0"/>
<circle cx="1364" cy="930" r="8" class="c0"/>
<circle cx="1328" cy="972" r="8" class="c0"/>
<circle cx="1348" cy="744" r="8" class="c0"/>
<circle cx="1486" cy="1428" r="8" class="c0"/>
<circle cx="1448" cy="1142" r="8" class="c0"/>
<circle cx="1242" cy="1426" r="8" class="c0"/>
<circle cx="1330" cy="1352" r="8" class="c0"/>
<circle cx="1480" cy="1388" r="8" class="c0"/>
<circle cx="1448" cy="526" r="8" class="c0"/>
<circle cx="1338" cy="548" r="8" class="c0"/>
<circle cx="1364" cy="1104" r="8" class="c0"/>
<circle cx="1284" cy="1294" r="8" class="c0"/>
<circle cx="926" cy="546" r="8" class="c0"/>
<circle cx="1342" cy="1326" r="8" class="c0"/>
<circle cx="1384" cy="872" r="8" class="c0"/>
<circle cx="1318" cy="1190" r="8" class="c0"/>
<circle cx="1432" cy="1054" r="8" class="c0"/>
<circle cx="1370" cy="634" r="8" class="c0"/>
<circle cx="1476" cy="1366" r="8" class="c0"/>
<circle cx="994" cy="646" r="8" class="c0"/>
<circle cx="1264" cy="694" r="8" class="c0"/>
<circle cx="1412" cy="396" r="8" class="c0"/>
<circle cx="1006" cy="612" r="8" class="c0"/>
<circle cx="1470" cy="1072" r="8" class="c0"/>
<circle cx="1416" cy="972" r="8" class="c0"/>
<circle cx="1284" cy="890" r="8" class="c0"/>
<circle cx="1390" cy="490" r="8" class="c0"/>
<circle cx="1172" cy="720" r="8" class="c0"/>
<circle cx="1392" cy="832" r="8" class="c0"/>
<circle cx="1264" cy="370" r="8" class="c0"/>
<circle cx="1392" cy="512" r="8" class="c0"/>
<circle cx="1320" cy="1220" r="8" class="c0"/>
<circle cx="1396" cy="884" r="8" class="c0"/>
<circle cx="1404" cy="660" r="8" class="c0"/>
<circle cx="1458" cy="584" r="8" class="c0"/>
<circle cx="1512" cy="890" r="8" class="c0"/>
<circle cx="1570" cy="844" r="8" class="c0"/>
<circle cx="1582" cy="1060" r="8" class="c0"/>
<circle cx="1394" cy="1066" r="8" class="c0"/>
<circle cx="1546" cy="878" r="8" class="c0"/>
<circle cx="1042" cy="662" r="8" class="c0"/>
<circle cx="1260" cy="1382" r="8" class="c0"/>
<circle cx="1322" cy="1072" r="8" class="c0"/>
<circle cx="1336" cy="1274" r="8" class="c0"/>
<circle cx="1574" cy="978" r="8" class="c0"/>
<circle cx="1460" cy="828" r="8" class="c0"/>
<circle cx="1468" cy="1044" r="8" class="c0"/>
<circle cx="1388" cy="682" r="8" class="c0"/>
<circle cx="1226" cy="714" r="8" class="c0"/>
<circle cx="1428" cy="1092" r="8" class="c0"/>
<circle cx="1518" cy="1214" r="8" class="c0"/>
<circle cx="1478" cy="648" r="8" class="c0"/>
<circle cx="1390" cy="440" r="8" class="c0"/>
<circle cx="1278" cy="864" r="8" class="c0"/>
<circle cx="1430" cy="358" r="8" class="c0"/>
<circle cx="1570" cy="908" r="8" class="c0"/>
<circle cx="1528" cy="776" r="8" class="c0"/>
<circle cx="1502" cy="560" r="8" class="c0"/>
<circle cx="1278" cy="1314" r="8" class="c0"/>
<circle cx="1438" cy="902" r="8" class="c0"/>
<circle cx="1418" cy="470" r="8" class="c0"/>
<circle cx="1514" cy="840" r="8" class="c0"/>
<circle cx="1576" cy="1014" r="8" class="c0"/>
<circle cx="1520" cy="1290" r="8" class="c0"/>
<circle cx="1404" cy="346" r="8" class="c0"/>
<circle cx="1562" cy="942" r="8" class="c0"/>
<circle cx="1428" cy="800" r="8" class="c0"/>
<circle cx="1448" cy="484" r="8" class="c0"/>
<circle cx="1278" cy="1142" r="8" class="c0"/>
<circle cx="1378" cy="1160" r="8" class="c0"/>
<circle cx="1304" cy="1354" r="8" class="c0"/>
<circle cx="1132" cy="650" r="8" class="c0"/>
<circle cx="1206" cy="694" r="8" class="c0"/>
<circle cx="1556" cy="1014" r="8" class="c0"/>
<circle cx="1474" cy="1026" r="8" class="c0"/>
<circle cx="1344" cy="1118" r="8" class="c0"/>
<circle cx="1524" cy="1264" r="8" class="c0"/>
<circle cx="1302" cy="1394" r="8" class="c0"/>
<circle cx="1438" cy="982" r="8" class="c0"/>
<circle cx="1262" cy="730" r="8" class="c0"/>
<circle cx="1268" cy="1326" r="8" class="c0"/>
<circle cx="1478" cy="1198" r="8" class="c0"/>
<circle cx="1530" cy="1150" r="8" class="c0"/>
<circle cx="1468" cy="702" r="8" class="c0"/>
<circle cx="1414" cy="816" r="8" class="c0"/>
<circle cx="1388" cy="932" r="8" class="c0"/>
<circle cx="1480" cy="1272" r="8" class="c0"/>
<circle cx="1528" cy="930" r="8" class="c0"/>
<circle cx="1282" cy="682" r="8" class="c0"/>
<circle cx="1280" cy="918" r="8" class="c0"/>
<circle cx="1454" cy="1372" r="8" class="c0"/>
<circle cx="1542" cy="1082" r="8" class="c0"/>
<circle cx="1548" cy="1104" r="8" class="c0"/>
<circle cx="1530" cy="1096" r="8" class="c0"/>
<circle cx="1070" cy="620" r="8" class="c0"/>
<circle cx="1414" cy="878" r="8" class="c0"/>
<circle cx="1408" cy="482" r="8" class="c0"/>
<circle cx="1500" cy="904" r="8" class="c0"/>
<circle cx="1444" cy="882" r="8" class="c0"/>
<circle cx="1534" cy="1036" r="8" class="c0"/>
<circle cx="1458" cy="496" r="8" class="c0"/>
<circle cx="1302" cy="364" r="8" class="c0"/>
<circle cx="1440" cy="550" r="8" class="c0"/>
<circle cx="1346" cy="606" r="8" class="c0"/>
<circle cx="1476" cy="502" r="8" class="c0"/>
<circle cx="980" cy="570" r="8" class="c0"/>
<circle cx="1346" cy="446" r="8" class="c0"/>
<circle cx="1504" cy="712" r="8" class="c0"/>
<circle cx="1468" cy="732" r="8" class="c0"/>
<circle cx="1330" cy="730" r="8" class="c0"/>
<circle cx="950" cy="616" r="8" class="c0"/>
<circle cx="1360" cy="460" r="8" class="c0"/>
<circle cx="1442" cy="1362" r="8" class="c0"/>
<circle cx="1418" cy="562" r="8" class="c0"/>
<circle cx="1426" cy="1112" r="8" class="c0"/>
<circle cx="1448" cy="1112" r="8" class="c0"/>
<circle cx="1386" cy="762" r="8" class="c0"/>
<circle cx="1436" cy="570" r="8" class="c0"/>
<circle cx="1458" cy="750" r="8" class="c0"/>
<circle cx="1574" cy="1036" r="8" class="c0"/>
<circle cx="1268" cy="930" r="8" class="c0"/>
<circle cx="1240" cy="326" r="8" class="c0"/>
<circle cx="1114" cy="678" r="8" class="c0"/>
<circle cx="1350" cy="1310" r="8" class="c0"/>
<circle cx="1578" cy="1100" r="8" class="c0"/>
<circle cx="1148" cy="674" r="8" class="c0"/>
<circle cx="1528" cy="830" r="8" class="c0"/>
<circle cx="1480" cy="898" r="8" class="c0"/>
<circle cx="1428" cy="666" r="8" class="c0"/>
<circle cx="1282" cy="706" r="8" class="c0"/>
<circle cx="1450" cy="1222" r="8" class="c0"/>
<circle cx="1440" cy="688" r="8" class="c0"/>
<circle cx="1386" cy="1130" r="8" class="c0"/>
<circle cx="1380" cy="522" r="8" class="c0"/>
<circle cx="1038" cy="620" r="8" class="c0"/>
<circle cx="1324" cy="534" r="8" class="c0"/>
<circle cx="1324" cy="494" r="8" class="c0"/>
<circle cx="1500" cy="1148" r="8" class="c0"/>
<circle cx="1358" cy="1262" r="8" class="c0"/>
<circle cx="1498" cy="768" r="8" class="c0"/>
<circle cx="1468" cy="660" r="8" class="c0"/>
<circle cx="1386" cy="896" r="8" class="c0"/>
<circle cx="1500" cy="808" r="8" class="c0"/>
<circle cx="1296" cy="346" r="8" class="c0"/>
<circle cx="1050" cy="632" r="8" class="c0"/>
<circle cx="1340" cy="412" r="8" class="c0"/>
<circle cx="1344" cy="626" r="8" class="c0"/>
<circle cx="1448" cy="808" r="8" class="c0"/>
<circle cx="1334" cy="666" r="8" class="c0"/>
<circle cx="1584" cy="864" r="8" class="c0"/>
<circle cx="1346" cy="530" r="8" class="c0"/>
<circle cx="1448" cy="994" r="8" class="c0"/>
<circle cx="1272" cy="1346" r="8" class="c0"/>
<circle cx="1324" cy="1296" r="8" class="c0"/>
<circle cx="1394" cy="650" r="6" class="c0"/>
<circle cx="1426" cy="312" r="6" class="c0"/>
<circle cx="1290" cy="1132" r="6" class="c0"/>
<circle cx="1342" cy="950" r="6" class="c0"/>
<circle cx="1378" cy="946" r="6" class="c0"/>
<circle cx="1304" cy="1206" r="6" class="c0"/>
<circle cx="1320" cy="748" r="6" class="c0"/>
<circle cx="1498" cy="610" r="6" class="c0"/>
<circle cx="1316" cy="1408" r="6" class="c0"/>
<circle cx="1516" cy="696" r="6" class="c0"/>
<circle cx="1116" cy="640" r="6" class="c0"/>
<circle cx="1182" cy="706" r="6" class="c0"/>
<circle cx="1472" cy="1288" r="6" class="c0"/>
<circle cx="1254" cy="360" r="6" class="c0"/>
<circle cx="1398" cy="1212" r="6" class="c0"/>
<circle cx="1326" cy="592" r="6" class="c0"/>
<circle cx="1130" cy="666" r="6" class="c0"/>
<circle cx="1306" cy="1110" r="6" class="c0"/>
<circle cx="1574" cy="960" r="6" class="c0"/>
<circle cx="1428" cy="866" r="6" class="c0"/>
<circle cx="1314" cy="658" r="6" class="c0"/>
<circle cx="1456" cy="1250" r="6" class="c0"/>
<circle cx="1062" cy="682" r="6" class="c0"/>
<circle cx="1334" cy="1178" r="6" class="c0"/>
<circle cx="1506" cy="1360" r="6" class="c0"/>
<circle cx="1524" cy="964" r="6" class="c0"/>
<circle cx="1276" cy="1406" r="6" class="c0"/>
<circle cx="1464" cy="1184" r="6" class="c0"/>
<circle cx="1484" cy="1336" r="6" class="c0"/>
<circle cx="1376" cy="1120" r="6" class="c0"/>
<circle cx="1280" cy="1430" r="6" class="c0"/>
<circle cx="1270" cy="342" r="6" class="c0"/>
<circle cx="1612" cy="1128" r="6" class="c0"/>
<circle cx="976" cy="552" r="6" class="c0"/>
<circle cx="1348" cy="820" r="6" class="c0"/>
<circle cx="1508" cy="1086" r="6" class="c0"/>
<circle cx="1510" cy="1306" r="6" class="c0"/>
<circle cx="1544" cy="792" r="6" class="c0"/>
<circle cx="1346" cy="928" r="6" class="c0"/>
<circle cx="1510" cy="624" r="6" class="c0"/>
<circle cx="1430" cy="326" r="6" class="c0"/>
<circle cx="1420" cy="904" r="6" class="c0"/>
<circle cx="1304" cy="1228" r="6" class="c0"/>
<circle cx="1224" cy="730" r="6" class="c0"/>
<circle cx="1096" cy="642" r="6" class="c0"/>
<circle cx="1442" cy="1240" r="6" class="c0"/>
<circle cx="1332" cy="1134" r="6" class="c0"/>
<circle cx="1320" cy="992" r="6" class="c0"/>
<circle cx="1372" cy="694" r="6" class="c0"/>
<circle cx="1464" cy="624" r="6" class="c0"/>
<circle cx="1406" cy="500" r="6" class="c0"/>
<circle cx="1410" cy="1088" r="6" class="c0"/>
<circle cx="1358" cy="1064" r="6" class="c0"/>
<circle cx="1504" cy="852" r="6" class="c0"/>
<circle cx="1316" cy="768" r="6" class="c0"/>
<circle cx="1470" cy="1426" r="6" class="c0"/>
<circle cx="1576" cy="1128" r="6" class="c0"/>
<circle cx="1512" cy="924" r="6" class="c0"/>
<circle cx="1528" cy="852" r="6" class="c0"/>
<circle cx="1444" cy="1310" r="6" class="c0"/>
<circle cx="910" cy="544" r="6" class="c0"/>
<circle cx="1494" cy="1036" r="6" class="c0"/>
<circle cx="1344" cy="590" r="6" class="c0"/>
<circle cx="1288" cy="724" r="6" class="c0"/>
<circle cx="1440" cy="1212" r="6" class="c0"/>
<circle cx="1562" cy="858" r="6" class="c0"/>
<circle cx="970" cy="580" r="6" class="c0"/>
<circle cx="1480" cy="1408" r="6" class="c0"/>
<circle cx="1344" cy="698" r="6" class="c0"/>
<circle cx="1552" cy="1030" r="6" class="c0"/>
<circle cx="1518" cy="1318" r="6" class="c0"/>
<circle cx="1352" cy="728" r="6" class="c0"/>
<circle cx="1488" cy="1232" r="6" class="c0"/>
<circle cx="1428" cy="1150" r="6" class="c0"/>
<circle cx="1076" cy="688" r="6" class="c0"/>
<circle cx="1270" cy="1392" r="6" class="c0"/>
<circle cx="1362" cy="1152" r="6" class="c0"/>
<circle cx="1398" cy="536" r="6" class="c0"/>
<circle cx="1388" cy="378" r="6" class="c0"/>
<circle cx="1348" cy="978" r="6" class="c0"/>
<circle cx="1510" cy="1274" r="6" class="c0"/>
<circle cx="1368" cy="1078" r="6" class="c0"/>
<circle cx="1306" cy="1376" r="6" class="c0"/>
<circle cx="1548" cy="822" r="6" class="c0"/>
<circle cx="1380" cy="500" r="6" class="c0"/>
<circle cx="1536" cy="1016" r="6" class="c0"/>
<circle cx="1376" cy="1144" r="6" class="c0"/>
<circle cx="1380" cy="1256" r="6" class="c0"/>
<circle cx="1344" cy="1344" r="6" class="c0"/>
<circle cx="1396" cy="1026" r="6" class="c0"/>
<circle cx="1520" cy="720" r="6" class="c0"/>
<circle cx="1392" cy="360" r="6" class="c0"/>
<circle cx="1360" cy="846" r="6" class="c0"/>
<circle cx="1620" cy="1118" r="6" class="c0"/>
<circle cx="1540" cy="902" r="6" class="c0"/>
<circle cx="1468" cy="778" r="6" class="c0"/>
<circle cx="1312" cy="1424" r="6" class="c0"/>
<circle cx="1436" cy="1158" r="6" class="c0"/>
<circle cx="1404" cy="324" r="6" class="c0"/>
<circle cx="1482" cy="1110" r="6" class="c0"/>
<circle cx="1346" cy="1096" r="6" class="c0"/>
<circle cx="1246" cy="704" r="6" class="c0"/>
<circle cx="1512" cy="662" r="6" class="c0"/>
<circle cx="1506" cy="1042" r="6" class="c0"/>
<circle cx="1510" cy="818" r="6" class="c0"/>
<circle cx="1356" cy="860" r="6" class="c0"/>
<circle cx="1484" cy="978" r="6" class="c0"/>
<circle cx="1404" cy="796" r="6" class="c0"/>
<circle cx="1044" cy="600" r="6" class="c0"/>
<circle cx="1518" cy="980" r="6" class="c0"/>
<circle cx="1410" cy="712" r="6" class="c0"/>
<circle cx="1298" cy="802" r="6" class="c0"/>
<circle cx="1400" cy="974" r="6" class="c0"/>
<circle cx="1234" cy="310" r="6" class="c0"/>
<circle cx="1290" cy="540" r="6" class="c0"/>
<circle cx="1418" cy="720" r="6" class="c0"/>
<circle cx="1474" cy="854" r="6" class="c0"/>
<circle cx="976" cy="640" r="6" class="c0"/>
<circle cx="1332" cy="1254" r="6" class="c0"/>
<circle cx="932" cy="614" r="6" class="c0"/>
<circle cx="1484" cy="1152" r="6" class="c0"/>
<circle cx="1452" cy="612" r="6" class="c0"/>
<circle cx="1352" cy="1210" r="6" class="c0"/>
<circle cx="1404" cy="1016" r="6" class="c0"/>
<circle cx="1422" cy="378" r="6" class="c0"/>
<circle cx="928" cy="578" r="6" class="c0"/>
<circle cx="1442" cy="864" r="6" class="c0"/>
<circle cx="1284" cy="1160" r="6" class="c0"/>
<circle cx="1386" cy="786" r="6" class="c0"/>
<circle cx="940" cy="604" r="6" class="c0"/>
<circle cx="1328" cy="1114" r="6" class="c0"/>
<circle cx="1458" cy="1004" r="6" class="c0"/>
<circle cx="992" cy="582" r="6" class="c0"/>
<circle cx="1450" cy="676" r="6" class="c0"/>
<circle cx="1438" cy="934" r="6" class="c0"/>
<circle cx="1316" cy="1054" r="6" class="c0"/>
<circle cx="1082" cy="646" r="6" class="c0"/>
<circle cx="1330" cy="708" r="6" class="c0"/>
<circle cx="1448" cy="1258" r="6" class="c0"/>
<circle cx="1364" cy="488" r="6" class="c0"/>
<circle cx="1444" cy="1388" r="6" class="c0"/>
<circle cx="1318" cy="638" r="6" class="c0"/>
<circle cx="1308" cy="582" r="6" class="c0"/>
<circle cx="1368" cy="1250" r="6" class="c0"/>
<circle cx="1400" cy="430" r="6" class="c0"/>
<circle cx="926" cy="564" r="6" class="c0"/>
<circle cx="1366" cy="582" r="6" class="c0"/>
<circle cx="1330" cy="1376" r="6" class="c0"/>
<circle cx="1540" cy="920" r="6" class="c0"/>
<circle cx="1374" cy="650" r="6" class="c0"/>
<circle cx="1492" cy="516" r="6" class="c0"/>
<circle cx="1282" cy="738" r="6" class="c0"/>
<circle cx="1478" cy="934" r="6" class="c0"/>
<circle cx="1378" cy="588" r="6" class="c0"/>
<circle cx="1262" cy="710" r="6" class="c0"/>
<circle cx="936" cy="590" r="6" class="c0"/>
<circle cx="1390" cy="1172" r="6" class="c0"/>
<circle cx="998" cy="598" r="6" class="c0"/>
<circle cx="1184" cy="680" r="6" class="c0"/>
<circle cx="1452" cy="634" r="6" class="c0"/>
<circle cx="1394" cy="1228" r="6" class="c0"/>
<circle cx="1464" cy="1120" r="6" class="c0"/>
<circle cx="1314" cy="432" r="6" class="c0"/>
<circle cx="1364" cy="994" r="6" class="c0"/>
<circle cx="1366" cy="1052" r="6" class="c0"/>
<circle cx="1052" cy="674" r="6" class="c0"/>
<circle cx="1514" cy="1254" r="6" class="c0"/>
<circle cx="1372" cy="1278" r="6" class="c0"/>
<circle cx="944" cy="542" r="6" class="c0"/>
<circle cx="1098" cy="676" r="6" class="c0"/>
<circle cx="1398" cy="386" r="6" class="c0"/>
<circle cx="990" cy="560" r="6" class="c0"/>
<circle cx="1296" cy="1118" r="6" class="c0"/>
<circle cx="1210" cy="660" r="6" class="c0"/>
<circle cx="1564" cy="1050" r="6" class="c0"/>
<circle cx="896" cy="530" r="6" class="c0"/>
<circle cx="1446" cy="1190" r="6" class="c0"/>
<circle cx="1056" cy="612" r="6" class="c0"/>
<circle cx="1530" cy="1234" r="6" class="c0"/>
<circle cx="1266" cy="1154" r="6" class="c0"/>
<circle cx="1456" cy="692" r="6" class="c0"/>
<circle cx="1240" cy="946" r="6" class="c0"/>
<circle cx="1304" cy="1134" r="6" class="c0"/>
<circle cx="1440" cy="1270" r="6" class="c0"/>
<circle cx="1462" cy="642" r="6" class="c0"/>
<circle cx="1166" cy="672" r="6" class="c0"/>
<circle cx="1306" cy="810" r="6" class="c0"/>
<circle cx="1506" cy="752" r="6" class="c0"/>
<circle cx="1544" cy="998" r="6" class="c0"/>
<circle cx="1522" cy="744" r="6" class="c0"/>
<circle cx="1382" cy="604" r="6" class="c0"/>
<circle cx="1340" cy="564" r="6" class="c0"/>
<circle cx="1374" cy="716" r="6" class="c0"/>
<circle cx="1404" cy="616" r="6" class="c0"/>
<circle cx="1302" cy="1432" r="6" class="c0"/>
<circle cx="1310" cy="396" r="6" class="c0"/>
<circle cx="1342" cy="808" r="6" class="c0"/>
<circle cx="1512" cy="1400" r="6" class="c0"/>
<circle cx="1296" cy="408" r="6" class="c0"/>
<circle cx="1308" cy="1014" r="6" class="c0"/>
<circle cx="1528" cy="886" r="6" class="c0"/>
<circle cx="1394" cy="746" r="6" class="c0"/>
<circle cx="1190" cy="698" r="6" class="c0"/>
<circle cx="1254" cy="312" r="6" class="c0"/>
<circle cx="1452" cy="328" r="6" class="c0"/>
<circle cx="1292" cy="874" r="6" class="c0"/>
<circle cx="1308" cy="778" r="6" class="c0"/>
<circle cx="1304" cy="1096" r="6" class="c0"/>
<circle cx="1456" cy="1128" r="6" class="c0"/>
<circle cx="1410" cy="544" r="6" class="c0"/>
<circle cx="976" cy="526" r="6" class="c0"/>
<circle cx="1358" cy="618" r="6" class="c0"/>
<circle cx="1522" cy="1246" r="6" class="c0"/>
<circle cx="1468" cy="1212" r="6" class="c0"/>
<circle cx="1350" cy="838" r="6" class="c0"/>
<circle cx="1344" cy="1218" r="6" class="c0"/>
<circle cx="1392" cy="472" r="6" class="c0"/>
<circle cx="1378" cy="776" r="6" class="c0"/>
<circle cx="1422" cy="406" r="6" class="c0"/>
<circle cx="1512" cy="1348" r="6" class="c0"/>
<circle cx="1408" cy="766" r="6" class="c0"/>
<circle cx="1514" cy="1004" r="6" class="c0"/>
<circle cx="1478" cy="1252" r="6" class="c0"/>
<circle cx="1284" cy="336" r="6" class="c0"/>
<circle cx="1420" cy="452" r="6" class="c0"/>
<circle cx="1316" cy="716" r="6" class="c0"/>
<circle cx="1348" cy="1014" r="6" class="c0"/>
<circle cx="1502" cy="1074" r="6" class="c0"/>
<circle cx="1548" cy="910" r="6" class="c0"/>
<circle cx="1596" cy="1094" r="6" class="c0"/>
<circle cx="1490" cy="1398" r="6" class="c0"/>
<circle cx="1434" cy="474" r="6" class="c0"/>
<circle cx="1516" cy="802" r="6" class="c0"/>
<circle cx="1326" cy="782" r="6" class="c0"/>
<circle cx="1410" cy="894" r="6" class="c0"/>
<circle cx="1470" cy="1260" r="6" class="c0"/>
<circle cx="1448" cy="972" r="6" class="c0"/>
<circle cx="996" cy="630" r="6" class="c0"/>
<circle cx="1358" cy="1006" r="6" class="c0"/>
<circle cx="1392" cy="984" r="6" class="c0"/>
<circle cx="1360" cy="1202" r="6" class="c0"/>
<circle cx="1290" cy="576" r="6" class="c0"/>
<circle cx="1476" cy="1344" r="6" class="c0"/>
<circle cx="1538" cy="862" r="6" class="c0"/>
<circle cx="1310" cy="1176" r="6" class="c0"/>
<circle cx="1104" cy="634" r="6" class="c0"/>
<circle cx="1402" cy="1126" r="6" class="c0"/>
<circle cx="1398" cy="692" r="6" class="c0"/>
<circle cx="1300" cy="788" r="6" class="c0"/>
<circle cx="1570" cy="1076" r="6" class="c0"/>
<circle cx="1388" cy="1050" r="6" class="c0"/>
<circle cx="1356" cy="1040" r="6" class="c0"/>
<circle cx="1386" cy="728" r="6" class="c0"/>
<circle cx="1548" cy="934" r="6" class="c0"/>
<circle cx="1456" cy="1432" r="6" class="c0"/>
<circle cx="1108" cy="706" r="6" class="c0"/>
<circle cx="1160" cy="684" r="6" class="c0"/>
<circle cx="968" cy="606" r="6" class="c0"/>
<circle cx="1478" cy="1220" r="6" class="c0"/>
<circle cx="1088" cy="658" r="6" class="c0"/>
<circle cx="1498" cy="530" r="6" class="c0"/>
<circle cx="1324" cy="1142" r="6" class="c0"/>
<circle cx="1362" cy="524" r="6" class="c0"/>
<circle cx="1294" cy="746" r="6" class="c0"/>
<circle cx="1322" cy="606" r="6" class="c0"/>
<circle cx="1384" cy="464" r="6" class="c0"/>
<circle cx="1458" cy="1054" r="6" class="c0"/>
<circle cx="1458" cy="536" r="6" class="c0"/>
<circle cx="1308" cy="1292" r="6" class="c0"/>
<circle cx="1274" cy="380" r="6" class="c0"/>
<circle cx="1466" cy="764" r="6" class="c0"/>
</svg>
