<?xml version="1.0" encoding="utf-8"?>
<svg xmlns="http://www.w3.org/2000/svg"
     xmlns:xlink="http://www.w3.org/1999/xlink" width="1920" height="1440" >

            <defs>
            <style type="text/css"><![CDATA[
circle {stroke: none;}
.c0 {fill: #000000;}
]]></style>
            </defs>
<rect x="0" y="0" width="1920" height="1440" fill="white"/>
<circle cx="1140" cy="418" r="12" class="c0"/>
<circle cx="1090" cy="332" r="12" class="c0"/>
<circle cx="1128" cy="466" r="12" class="c0"/>
<circle cx="896" cy="552" r="12" class="c0"/>
<circle cx="876" cy="354" r="12" class="c0"/>
<circle cx="816" cy="384" r="12" class="c0"/>
<circle cx="1048" cy="310" r="12" class="c0"/>
<circle cx="758" cy="398" r="12" class="c0"/>
<circle cx="1064" cy="526" r="12" class="c0"/>
<circle cx="864" cy="400" r="12" class="c0"/>
<circle cx="814" cy="544" r="12" class="c0"/>
<circle cx="920" cy="436" r="12" class="c0"/>
<circle cx="870" cy="554" r="12" class="c0"/>
<circle cx="1078" cy="240" r="12" class="c0"/>
<circle cx="964" cy="410" r="12" class="c0"/>
<circle cx="1006" cy="264" r="12" class="c0"/>
<circle cx="850" cy="542" r="12" class="c0"/>
<circle cx="886" cy="268" r="12" class="c0"/>
<circle cx="902" cy="302" r="12" class="c0"/>
<circle cx="1020" cy="488" r="12" class="c0"/>
<circle cx="996" cy="286" r="12" class="c0"/>
<circle cx="858" cy="298" r="12" class="c0"/>
<circle cx="930" cy="526" r="12" class="c0"/>
<circle cx="858" cy="248" r="12" class="c0"/>
<circle cx="800" cy="412" r="10" class="c0"/>
<circle cx="994" cy="318" r="10" class="c0"/>
<circle cx="1034" cy="544" r="10" class="c0"/>
<circle cx="914" cy="578" r="10" class="c0"/>
<circle cx="1088" cy="290" r="10" class="c0"/>
<circle cx="888" cy="468" r="10" class="c0"/>
<circle cx="960" cy="524" r="10" class="c0"/>
<circle cx="968" cy="286" r="10" class="c0"/>
<circle cx="938" cy="472" r="10" class="c0"/>
<circle cx="774" cy="504" r="10" class="c0"/>
<circle cx="764" cy="434" r="10" class="c0"/>
<circle cx="978" cy="242" r="10" class="c0"/>
<circle cx="1002" cy="396" r="10" class="c0"/>
<circle cx="1114" cy="440" r="10" class="c0"/>
<circle cx="1032" cy="450" r="10" class="c0"/>
<circle cx="1020" cy="426" r="10" class="c0"/>
<circle cx="984" cy="492" r="10" class="c0"/>
<circle cx="768" cy="466" r="10" class="c0"/>
<circle cx="1116" cy="290" r="10" class="c0"/>
<circle cx="1122" cy="498" r="10" class="c0"/>
<circle cx="944" cy="300" r="10" class="c0"/>
<circle cx="926" cy="460" r="10" class="c0"/>
<circle cx="834" cy="500" r="10" class="c0"/>
<circle cx="1078" cy="362" r="10" class="c0"/>
<circle cx="1080" cy="476" r="10" class="c0"/>
<circle cx="1030" cy="340" r="10" class="c0"/>
<circle cx="778" cy="408" r="10" class="c0"/>
<circle cx="806" cy="320" r="10" class="c0"/>
<circle cx="986" cy="216" r="10" class="c0"/>
<circle cx="996" cy="592" r="10" class="c0"/>
<circle cx="1050" cy="402" r="10" class="c0"/>
<circle cx="1128" cy="326" r="10" class="c0"/>
<circle cx="944" cy="256" r="10" class="c0"/>
<circle cx="944" cy="384" r="10" class="c0"/>
<circle cx="770" cy="378" r="10" class="c0"/>
<circle cx="1046" cy="568" r="10" class="c0"/>
<circle cx="1126" cy="366" r="10" class="c0"/>
<circle cx="914" cy="226" r="10" class="c0"/>
<circle cx="826" cy="474" r="10" class="c0"/>
<circle cx="1012" cy="566" r="10" class="c0"/>
<circle cx="1088" cy="516" r="10" class="c0"/>
<circle cx="1048" cy="428" r="10" class="c0"/>
<circle cx="968" cy="474" r="10" class="c0"/>
<circle cx="1102" cy="414" r="10" class="c0"/>
<circle cx="950" cy="352" r="10" class="c0"/>
<circle cx="936" cy="592" r="10" class="c0"/>
<circle cx="852" cy="352" r="10" class="c0"/>
<circle cx="906" cy="348" r="10" class="c0"/>
<circle cx="904" cy="406" r="10" class="c0"/>
<circle cx="1088" cy="384" r="10" class="c0"/>
<circle cx="900" cy="590" r="10" class="c0"/>
<circle cx="1000" cy="538" r="10" class="c0"/>
<circle cx="1004" cy="462" r="10" class="c0"/>
<circle cx="1146" cy="386" r="10" class="c0"/>
<circle cx="858" cy="572" r="10" class="c0"/>
<circle cx="968" cy="318" r="10" class="c0"/>
<circle cx="912" cy="490" r="10" class="c0"/>
<circle cx="1018" cy="358" r="10" class="c0"/>
<circle cx="1034" cy="518" r="10" class="c0"/>
<circle cx="986" cy="354" r="10" class="c0"/>
<circle cx="952" cy="454" r="10" class="c0"/>
<circle cx="804" cy="364" r="10" class="c0"/>
<circle cx="1050" cy="498" r="10" class="c0"/>
<circle cx="1120" cy="388" r="10" class="c0"/>
<circle cx="932" cy="322" r="10" class="c0"/>
<circle cx="802" cy="456" r="10" class="c0"/>
<circle cx="874" cy="508" r="10" class="c0"/>
<circle cx="880" cy="436" r="10" class="c0"/>
<circle cx="1066" cy="448" r="10" class="c0"/>
<circle cx="822" cy="286" r="10" class="c0"/>
<circle cx="1044" cy="262" r="8" class="c0"/>
<circle cx="804" cy="340" r="8" class="c0"/>
<circle cx="1012" cy="214" r="8" class="c0"/>
<circle cx="908" cy="248" r="8" class="c0"/>
<circle cx="988" cy="564" r="8" class="c0"/>
<circle cx="840" cy="456" r="8" class="c0"/>
<circle cx="1100" cy="530" r="8" class="c0"/>
<circle cx="1048" cy="244" r="8" class="c0"/>
<circle cx="892" cy="448" r="8" class="c0"/>
<circle cx="1030" cy="300" r="8" class="c0"/>
<circle cx="1098" cy="258" r="8" class="c0"/>
<circle cx="982" cy="378" r="8" class="c0"/>
<circle cx="828" cy="368" r="8" class="c0"/>
<circle cx="974" cy="200" r="8" class="c0"/>
<circle cx="824" cy="328" r="8" class="c0"/>
<circle cx="924" cy="408" r="8" class="c0"/>
<circle cx="836" cy="252" r="8" class="c0"/>
<circle cx="1068" cy="300" r="8" class="c0"/>
<circle cx="1060" cy="344" r="8" class="c0"/>
<circle cx="838" cy="570" r="8" class="c0"/>
<circle cx="1006" cy="330" r="8" class="c0"/>
<circle cx="1088" cy="426" r="8" class="c0"/>
<circle cx="928" cy="556" r="8" class="c0"/>
<circle cx="1050" cy="284" r="8" class="c0"/>
<circle cx="1010" cy="442" r="8" class="c0"/>
<circle cx="884" cy="390" r="8" class="c0"/>
<circle cx="944" cy="224" r="8" class="c0"/>
<circle cx="900" cy="378" r="8" class="c0"/>
<circle cx="1110" cy="350" r="8" class="c0"/>
<circle cx="902" cy="516" r="8" class="c0"/>
<circle cx="1146" cy="454" r="8" class="c0"/>
<circle cx="1026" cy="392" r="8" class="c0"/>
<circle cx="998" cy="416" r="8" class="c0"/>
<circle cx="828" cy="418" r="8" class="c0"/>
<circle cx="928" cy="244" r="8" class="c0"/>
<circle cx="930" cy="274" r="8" class="c0"/>
<circle cx="1038" cy="372" r="8" class="c0"/>
<circle cx="784" cy="360" r="8" class="c0"/>
<circle cx="892" cy="492" r="8" class="c0"/>
<circle cx="796" cy="292" r="8" class="c0"/>
<circle cx="850" cy="422" r="8" class="c0"/>
<circle cx="960" cy="588" r="8" class="c0"/>
<circle cx="842" cy="334" r="8" class="c0"/>
<circle cx="1018" cy="236" r="8" class="c0"/>
<circle cx="820" cy="446" r="8" class="c0"/>
<circle cx="1022" cy="322" r="8" class="c0"/>
<circle cx="1062" cy="554" r="8" class="c0"/>
<circle cx="1064" cy="270" r="8" class="c0"/>
<circle cx="946" cy="432" r="8" class="c0"/>
<circle cx="950" cy="504" r="8" class="c0"/>
<circle cx="804" cy="486" r="8" class="c0"/>
<circle cx="964" cy="228" r="8" class="c0"/>
<circle cx="952" cy="554" r="8" class="c0"/>
<circle cx="874" cy="232" r="8" class="c0"/>
<circle cx="1066" cy="488" r="8" class="c0"/>
<circle cx="966" cy="258" r="8" class="c0"/>
<circle cx="858" cy="476" r="8" class="c0"/>
<circle cx="782" cy="478" r="8" class="c0"/>
<circle cx="816" cy="350" r="8" class="c0"/>
<circle cx="866" cy="378" r="8" class="c0"/>
<circle cx="944" cy="202" r="8" class="c0"/>
<circle cx="1000" cy="374" r="8" class="c0"/>
<circle cx="880" cy="598" r="8" class="c0"/>
<circle cx="984" cy="452" r="8" class="c0"/>
<circle cx="772" cy="350" r="8" class="c0"/>
<circle cx="996" cy="506" r="8" class="c0"/>
<circle cx="962" cy="364" r="8" class="c0"/>
<circle cx="1114" cy="310" r="8" class="c0"/>
<circle cx="1050" cy="354" r="8" class="c0"/>
<circle cx="838" cy="408" r="8" class="c0"/>
<circle cx="778" cy="328" r="8" class="c0"/>
<circle cx="792" cy="390" r="8" class="c0"/>
<circle cx="890" cy="242" r="8" class="c0"/>
<circle cx="844" cy="516" r="8" class="c0"/>
<circle cx="868" cy="316" r="8" class="c0"/>
<circle cx="904" cy="458" r="8" class="c0"/>
<circle cx="932" cy="366" r="8" class="c0"/>
<circle cx="892" cy="324" r="8" class="c0"/>
<circle cx="1088" cy="494" r="8" class="c0"/>
<circle cx="844" cy="390" r="8" class="c0"/>
<circle cx="876" cy="530" r="8" class="c0"/>
<circle cx="1102" cy="454" r="8" class="c0"/>
<circle cx="1108" cy="272" r="8" class="c0"/>
<circle cx="1008" cy="302" r="8" class="c0"/>
<circle cx="1050" cy="474" r="8" class="c0"/>
<circle cx="912" cy="268" r="8" class="c0"/>
<circle cx="868" cy="456" r="8" class="c0"/>
<circle cx="1012" cy="514" r="8" class="c0"/>
<circle cx="982" cy="268" r="8" class="c0"/>
<circle cx="1020" cy="286" r="8" class="c0"/>
<circle cx="924" cy="298" r="8" class="c0"/>
<circle cx="804" cy="514" r="8" class="c0"/>
<circle cx="826" cy="526" r="8" class="c0"/>
<circle cx="910" cy="608" r="8" class="c0"/>
<circle cx="784" cy="448" r="8" class="c0"/>
<circle cx="1066" cy="374" r="8" class="c0"/>
<circle cx="1150" cy="436" r="8" class="c0"/>
<circle cx="976" cy="434" r="8" class="c0"/>
<circle cx="920" cy="206" r="8" class="c0"/>
<circle cx="970" cy="544" r="8" class="c0"/>
<circle cx="834" cy="436" r="8" class="c0"/>
<circle cx="1078" cy="400" r="8" class="c0"/>
<circle cx="814" cy="502" r="8" class="c0"/>
<circle cx="834" cy="306" r="8" class="c0"/>
<circle cx="916" cy="540" r="8" class="c0"/>
<circle cx="912" cy="188" r="8" class="c0"/>
<circle cx="934" cy="492" r="8" class="c0"/>
<circle cx="1102" cy="368" r="8" class="c0"/>
<circle cx="998" cy="228" r="8" class="c0"/>
<circle cx="978" cy="302" r="8" class="c0"/>
<circle cx="1100" cy="482" r="8" class="c0"/>
<circle cx="1146" cy="358" r="8" class="c0"/>
<circle cx="952" cy="276" r="8" class="c0"/>
<circle cx="1142" cy="338" r="8" class="c0"/>
<circle cx="894" cy="212" r="8" class="c0"/>
<circle cx="786" cy="528" r="8" class="c0"/>
<circle cx="882" cy="412" r="8" class="c0"/>
<circle cx="850" cy="318" r="8" class="c0"/>
<circle cx="856" cy="494" r="8" class="c0"/>
<circle cx="970" cy="576" r="8" class="c0"/>
<circle cx="926" cy="346" r="8" class="c0"/>
<circle cx="798" cy="436" r="8" class="c0"/>
<circle cx="786" cy="426" r="8" class="c0"/>
<circle cx="980" cy="516" r="8" class="c0"/>
<circle cx="850" cy="268" r="6" class="c0"/>
<circle cx="1080" cy="550" r="6" class="c0"/>
<circle cx="792" cy="310" r="6" class="c0"/>
<circle cx="1110" cy="328" r="6" class="c0"/>
<circle cx="818" cy="408" r="6" class="c0"/>
<circle cx="1042" cy="226" r="6" class="c0"/>
<circle cx="1026" cy="578" r="6" class="c0"/>
<circle cx="1064" cy="418" r="6" class="c0"/>
<circle cx="846" cy="234" r="6" class="c0"/>
<circle cx="972" cy="344" r="6" class="c0"/>
<circle cx="880" cy="576" r="6" class="c0"/>
<circle cx="846" cy="374" r="6" class="c0"/>
<circle cx="916" cy="382" r="6" class="c0"/>
<circle cx="878" cy="288" r="6" class="c0"/>
<circle cx="888" cy="340" r="6" class="c0"/>
<circle cx="1022" cy="252" r="6" class="c0"/>
<circle cx="1060" cy="224" r="6" class="c0"/>
<circle cx="792" cy="496" r="6" class="c0"/>
<circle cx="862" cy="338" r="6" class="c0"/>
<circle cx="914" cy="328" r="6" class="c0"/>
<circle cx="964" cy="388" r="6" class="c0"/>
<circle cx="944" cy="404" r="6" class="c0"/>
<circle cx="1080" cy="266" r="6" class="c0"/>
<circle cx="1082" cy="314" r="6" class="c0"/>
<circle cx="1122" cy="406" r="6" class="c0"/>
<circle cx="946" cy="572" r="6" class="c0"/>
<circle cx="1000" cy="204" r="6" class="c0"/>
<circle cx="1002" cy="480" r="6" class="c0"/>
<circle cx="946" cy="538" r="6" class="c0"/>
<circle cx="1100" cy="396" r="6" class="c0"/>
<circle cx="1016" cy="588" r="6" class="c0"/>
<circle cx="1016" cy="406" r="6" class="c0"/>
<circle cx="918" cy="512" r="6" class="c0"/>
<circle cx="1022" cy="468" r="6" class="c0"/>
<circle cx="1086" cy="452" r="6" class="c0"/>
<circle cx="966" cy="500" r="6" class="c0"/>
<circle cx="1064" cy="322" r="6" class="c0"/>
<circle cx="958" cy="490" r="6" class="c0"/>
<circle cx="972" cy="600" r="6" class="c0"/>
<circle cx="1074" cy="504" r="6" class="c0"/>
<circle cx="876" cy="484" r="6" class="c0"/>
<circle cx="1074" cy="280" r="6" class="c0"/>
<circle cx="850" cy="446" r="6" class="c0"/>
<circle cx="1156" cy="404" r="6" class="c0"/>
<circle cx="900" cy="434" r="6" class="c0"/>
<circle cx="1126" cy="346" r="6" class="c0"/>
<circle cx="934" cy="420" r="6" class="c0"/>
<circle cx="910" cy="368" r="6" class="c0"/>
<circle cx="980" cy="334" r="6" class="c0"/>
<circle cx="1110" cy="518" r="6" class="c0"/>
<circle cx="866" cy="270" r="6" class="c0"/>
<circle cx="884" cy="372" r="6" class="c0"/>
<circle cx="806" cy="276" r="6" class="c0"/>
<circle cx="926" cy="392" r="6" class="c0"/>
<circle cx="1028" cy="268" r="6" class="c0"/>
<circle cx="872" cy="584" r="6" class="c0"/>
<circle cx="954" cy="214" r="6" class="c0"/>
<circle cx="824" cy="268" r="6" class="c0"/>
<circle cx="858" cy="592" r="6" class="c0"/>
<circle cx="1132" cy="308" r="6" class="c0"/>
<circle cx="992" cy="432" r="6" class="c0"/>
<circle cx="950" cy="332" r="6" class="c0"/>
<circle cx="948" cy="604" r="6" class="c0"/>
<circle cx="764" cy="486" r="6" class="c0"/>
<circle cx="998" cy="246" r="6" class="c0"/>
<circle cx="1048" cy="384" r="6" class="c0"/>
<circle cx="968" cy="560" r="6" class="c0"/>
<circle cx="860" cy="518" r="6" class="c0"/>
<circle cx="842" cy="276" r="6" class="c0"/>
<circle cx="812" cy="302" r="6" class="c0"/>
<circle cx="984" cy="404" r="6" class="c0"/>
<circle cx="1120" cy="422" r="6" class="c0"/>
<circle cx="892" cy="528" r="6" class="c0"/>
<circle cx="966" cy="444" r="6" class="c0"/>
<circle cx="898" cy="282" r="6" class="c0"/>
<circle cx="786" cy="342" r="6" class="c0"/>
<circle cx="1050" cy="330" r="6" class="c0"/>
<circle cx="996" cy="340" r="6" class="c0"/>
<circle cx="1078" cy="436" r="6" class="c0"/>
<circle cx="868" cy="424" r="6" class="c0"/>
<circle cx="752" cy="422" r="6" class="c0"/>
<circle cx="932" cy="574" r="6" class="c0"/>
<circle cx="834" cy="552" r="6" class="c0"/>
<circle cx="958" cy="194" r="6" class="c0"/>
<circle cx="930" cy="194" r="6" class="c0"/>
<circle cx="1052" cy="458" r="6" class="c0"/>
<circle cx="1062" cy="390" r="6" class="c0"/>
<circle cx="824" cy="560" r="6" class="c0"/>
<circle cx="832" cy="346" r="6" class="c0"/>
<circle cx="942" cy="184" r="6" class="c0"/>
<circle cx="758" cy="364" r="6" class="c0"/>
<circle cx="1062" cy="252" r="6" class="c0"/>
<circle cx="956" cy="244" r="6" class="c0"/>
<circle cx="894" cy="422" r="6" class="c0"/>
<circle cx="880" cy="302" r="6" class="c0"/>
<circle cx="1094" cy="354" r="6" class="c0"/>
<circle cx="914" cy="472" r="6" class="c0"/>
<circle cx="1034" cy="412" r="6" class="c0"/>
<circle cx="876" cy="332" r="6" class="c0"/>
<circle cx="1104" cy="506" r="6" class="c0"/>
<circle cx="828" cy="398" r="6" class="c0"/>
<circle cx="814" cy="428" r="6" class="c0"/>
<circle cx="858" cy="226" r="6" class="c0"/>
<circle cx="878" cy="216" r="6" class="c0"/>
<circle cx="802" cy="530" r="6" class="c0"/>
<circle cx="1014" cy="548" r="6" class="c0"/>
<circle cx="986" cy="470" r="6" class="c0"/>
<circle cx="1102" cy="300" r="6" class="c0"/>
<circle cx="1160" cy="422" r="6" class="c0"/>
<circle cx="842" cy="482" r="6" class="c0"/>
<circle cx="1028" cy="218" r="6" class="c0"/>
<circle cx="980" cy="534" r="6" class="c0"/>
<circle cx="860" cy="436" r="6" class="c0"/>
<circle cx="1138" cy="482" r="6" class="c0"/>
<circle cx="1020" cy="528" r="6" class="c0"/>
<circle cx="934" cy="610" r="6" class="c0"/>
<circle cx="1088" cy="540" r="6" class="c0"/>
<circle cx="1034" cy="234" r="6" class="c0"/>
<circle cx="794" cy="350" r="6" class="c0"/>
<circle cx="1098" cy="314" r="6" class="c0"/>
<circle cx="1092" cy="464" r="6" class="c0"/>
<circle cx="914" cy="286" r="6" class="c0"/>
<circle cx="1016" cy="378" r="6" class="c0"/>
<circle cx="930" cy="216" r="6" class="c0"/>
<circle cx="976" cy="396" r="6" class="c0"/>
<circle cx="1134" cy="444" r="6" class="c0"/>
<circle cx="1052" cy="542" r="6" class="c0"/>
<circle cx="1004" cy="348" r="6" class="c0"/>
<circle cx="990" cy="254" r="6" class="c0"/>
<circle cx="964" cy="336" r="6" class="c0"/>
<circle cx="894" cy="572" r="6" class="c0"/>
<circle cx="1040" cy="484" r="6" class="c0"/>
<circle cx="1064" cy="466" r="6" class="c0"/>
<circle cx="754" cy="448" r="6" class="c0"/>
<circle cx="986" cy="548" r="6" class="c0"/>
<circle cx="840" cy="290" r="6" class="c0"/>
<circle cx="916" cy="314" r="6" class="c0"/>
</svg>
