<?xml version="1.0" encoding="utf-8"?>
<svg xmlns="http://www.w3.org/2000/svg"
     xmlns:xlink="http://www.w3.org/1999/xlink" width="1920" height="1440" >

            <defs>
            <style type="text/css"><![CDATA[
circle {stroke: none;}
.c0 {fill: #FFFFFF;}
]]></style>
            </defs>
<rect x="0" y="0" width="1920" height="1440" fill="black"/>
<circle cx="1066" cy="698" r="14" class="c0"/>
<circle cx="1718" cy="1104" r="12" class="c0"/>
<circle cx="1628" cy="550" r="12" class="c0"/>
<circle cx="1542" cy="620" r="12" class="c0"/>
<circle cx="1722" cy="998" r="12" class="c0"/>
<circle cx="1636" cy="798" r="12" class="c0"/>
<circle cx="1544" cy="932" r="12" class="c0"/>
<circle cx="1568" cy="940" r="12" class="c0"/>
<circle cx="1658" cy="856" r="12" class="c0"/>
<circle cx="1684" cy="1020" r="12" class="c0"/>
<circle cx="1640" cy="886" r="12" class="c0"/>
<circle cx="1434" cy="690" r="12" class="c0"/>
<circle cx="1546" cy="714" r="12" class="c0"/>
<circle cx="1600" cy="1032" r="12" class="c0"/>
<circle cx="1626" cy="626" r="12" class="c0"/>
<circle cx="1570" cy="590" r="12" class="c0"/>
<circle cx="1472" cy="532" r="12" class="c0"/>
<circle cx="1720" cy="842" r="12" class="c0"/>
<circle cx="1510" cy="710" r="12" class="c0"/>
<circle cx="1514" cy="1154" r="12" class="c0"/>
<circle cx="1546" cy="580" r="12" class="c0"/>
<circle cx="1480" cy="1348" r="12" class="c0"/>
<circle cx="1602" cy="712" r="12" class="c0"/>
<circle cx="1506" cy="784" r="12" class="c0"/>
<circle cx="1408" cy="684" r="12" class="c0"/>
<circle cx="1626" cy="664" r="12" class="c0"/>
<circle cx="1492" cy="1070" r="12" class="c0"/>
<circle cx="1532" cy="1092" r="12" class="c0"/>
<circle cx="1512" cy="832" r="12" class="c0"/>
<circle cx="1642" cy="916" r="12" class="c0"/>
<circle cx="1338" cy="710" r="12" class="c0"/>
<circle cx="1650" cy="1048" r="12" class="c0"/>
<circle cx="1610" cy="502" r="12" class="c0"/>
<circle cx="1728" cy="882" r="12" class="c0"/>
<circle cx="1664" cy="1006" r="12" class="c0"/>
<circle cx="1464" cy="1164" r="12" class="c0"/>
<circle cx="1506" cy="554" r="12" class="c0"/>
<circle cx="1194" cy="698" r="12" class="c0"/>
<circle cx="1408" cy="360" r="12" class="c0"/>
<circle cx="1642" cy="1204" r="12" class="c0"/>
<circle cx="1538" cy="814" r="12" class="c0"/>
<circle cx="1636" cy="714" r="12" class="c0"/>
<circle cx="1594" cy="786" r="12" class="c0"/>
<circle cx="1662" cy="576" r="12" class="c0"/>
<circle cx="1448" cy="1136" r="12" class="c0"/>
<circle cx="1684" cy="964" r="12" class="c0"/>
<circle cx="1686" cy="748" r="12" class="c0"/>
<circle cx="1606" cy="566" r="12" class="c0"/>
<circle cx="1628" cy="1294" r="12" class="c0"/>
<circle cx="1464" cy="1094" r="12" class="c0"/>
<circle cx="1566" cy="532" r="12" class="c0"/>
<circle cx="1586" cy="760" r="12" class="c0"/>
<circle cx="1566" cy="482" r="12" class="c0"/>
<circle cx="1456" cy="1372" r="12" class="c0"/>
<circle cx="1652" cy="1094" r="10" class="c0"/>
<circle cx="1538" cy="552" r="10" class="c0"/>
<circle cx="1632" cy="1028" r="10" class="c0"/>
<circle cx="1690" cy="1214" r="10" class="c0"/>
<circle cx="1686" cy="1148" r="10" class="c0"/>
<circle cx="1684" cy="1124" r="10" class="c0"/>
<circle cx="1292" cy="700" r="10" class="c0"/>
<circle cx="1498" cy="608" r="10" class="c0"/>
<circle cx="1706" cy="1190" r="10" class="c0"/>
<circle cx="1092" cy="664" r="10" class="c0"/>
<circle cx="1516" cy="622" r="10" class="c0"/>
<circle cx="1666" cy="736" r="10" class="c0"/>
<circle cx="1618" cy="994" r="10" class="c0"/>
<circle cx="1682" cy="686" r="10" class="c0"/>
<circle cx="1698" cy="1094" r="10" class="c0"/>
<circle cx="1668" cy="808" r="10" class="c0"/>
<circle cx="1522" cy="1114" r="10" class="c0"/>
<circle cx="1500" cy="950" r="10" class="c0"/>
<circle cx="1476" cy="1270" r="10" class="c0"/>
<circle cx="1588" cy="1116" r="10" class="c0"/>
<circle cx="1536" cy="500" r="10" class="c0"/>
<circle cx="1214" cy="688" r="10" class="c0"/>
<circle cx="1538" cy="1176" r="10" class="c0"/>
<circle cx="1558" cy="738" r="10" class="c0"/>
<circle cx="1492" cy="1112" r="10" class="c0"/>
<circle cx="1436" cy="1422" r="10" class="c0"/>
<circle cx="1652" cy="630" r="10" class="c0"/>
<circle cx="1668" cy="1276" r="10" class="c0"/>
<circle cx="1570" cy="648" r="10" class="c0"/>
<circle cx="1550" cy="992" r="10" class="c0"/>
<circle cx="1442" cy="366" r="10" class="c0"/>
<circle cx="1494" cy="982" r="10" class="c0"/>
<circle cx="1668" cy="936" r="10" class="c0"/>
<circle cx="1564" cy="858" r="10" class="c0"/>
<circle cx="1548" cy="964" r="10" class="c0"/>
<circle cx="1630" cy="1376" r="10" class="c0"/>
<circle cx="1264" cy="698" r="10" class="c0"/>
<circle cx="1556" cy="1126" r="10" class="c0"/>
<circle cx="1516" cy="1202" r="10" class="c0"/>
<circle cx="1518" cy="516" r="10" class="c0"/>
<circle cx="1696" cy="998" r="10" class="c0"/>
<circle cx="1478" cy="400" r="10" class="c0"/>
<circle cx="1498" cy="1040" r="10" class="c0"/>
<circle cx="1502" cy="1250" r="10" class="c0"/>
<circle cx="1582" cy="728" r="10" class="c0"/>
<circle cx="1608" cy="1196" r="10" class="c0"/>
<circle cx="1646" cy="966" r="10" class="c0"/>
<circle cx="1606" cy="894" r="10" class="c0"/>
<circle cx="1518" cy="646" r="10" class="c0"/>
<circle cx="1688" cy="818" r="10" class="c0"/>
<circle cx="1466" cy="570" r="10" class="c0"/>
<circle cx="1742" cy="1024" r="10" class="c0"/>
<circle cx="1592" cy="1178" r="10" class="c0"/>
<circle cx="1228" cy="706" r="10" class="c0"/>
<circle cx="1632" cy="592" r="10" class="c0"/>
<circle cx="1676" cy="1104" r="10" class="c0"/>
<circle cx="1572" cy="670" r="10" class="c0"/>
<circle cx="1514" cy="338" r="10" class="c0"/>
<circle cx="1532" cy="1226" r="10" class="c0"/>
<circle cx="1724" cy="1170" r="10" class="c0"/>
<circle cx="1510" cy="916" r="10" class="c0"/>
<circle cx="1518" cy="868" r="10" class="c0"/>
<circle cx="1642" cy="682" r="10" class="c0"/>
<circle cx="1644" cy="1276" r="10" class="c0"/>
<circle cx="1428" cy="1364" r="10" class="c0"/>
<circle cx="1620" cy="834" r="10" class="c0"/>
<circle cx="1512" cy="494" r="10" class="c0"/>
<circle cx="1562" cy="902" r="10" class="c0"/>
<circle cx="1736" cy="1062" r="10" class="c0"/>
<circle cx="1706" cy="1132" r="10" class="c0"/>
<circle cx="1580" cy="1142" r="10" class="c0"/>
<circle cx="1738" cy="962" r="10" class="c0"/>
<circle cx="1174" cy="678" r="10" class="c0"/>
<circle cx="1544" cy="664" r="10" class="c0"/>
<circle cx="1530" cy="750" r="10" class="c0"/>
<circle cx="1618" cy="1048" r="10" class="c0"/>
<circle cx="1398" cy="710" r="10" class="c0"/>
<circle cx="1540" cy="1044" r="10" class="c0"/>
<circle cx="1508" cy="1182" r="10" class="c0"/>
<circle cx="1636" cy="1180" r="10" class="c0"/>
<circle cx="1376" cy="354" r="10" class="c0"/>
<circle cx="1598" cy="810" r="10" class="c0"/>
<circle cx="1678" cy="712" r="10" class="c0"/>
<circle cx="1612" cy="1116" r="10" class="c0"/>
<circle cx="1530" cy="696" r="10" class="c0"/>
<circle cx="1416" cy="730" r="10" class="c0"/>
<circle cx="1636" cy="1252" r="10" class="c0"/>
<circle cx="1490" cy="316" r="10" class="c0"/>
<circle cx="1150" cy="702" r="10" class="c0"/>
<circle cx="1562" cy="694" r="10" class="c0"/>
<circle cx="1634" cy="1062" r="10" class="c0"/>
<circle cx="1712" cy="966" r="10" class="c0"/>
<circle cx="1704" cy="920" r="10" class="c0"/>
<circle cx="1556" cy="634" r="10" class="c0"/>
<circle cx="1464" cy="1064" r="10" class="c0"/>
<circle cx="1454" cy="706" r="10" class="c0"/>
<circle cx="1616" cy="1406" r="10" class="c0"/>
<circle cx="1480" cy="1226" r="10" class="c0"/>
<circle cx="1494" cy="414" r="10" class="c0"/>
<circle cx="1710" cy="1040" r="10" class="c0"/>
<circle cx="1646" cy="1412" r="10" class="c0"/>
<circle cx="1574" cy="1046" r="10" class="c0"/>
<circle cx="1454" cy="730" r="10" class="c0"/>
<circle cx="1664" cy="1174" r="10" class="c0"/>
<circle cx="1610" cy="602" r="10" class="c0"/>
<circle cx="1648" cy="524" r="10" class="c0"/>
<circle cx="1206" cy="716" r="10" class="c0"/>
<circle cx="1486" cy="584" r="10" class="c0"/>
<circle cx="1604" cy="746" r="10" class="c0"/>
<circle cx="1598" cy="656" r="10" class="c0"/>
<circle cx="1466" cy="1028" r="10" class="c0"/>
<circle cx="1446" cy="1294" r="10" class="c0"/>
<circle cx="1316" cy="678" r="10" class="c0"/>
<circle cx="1634" cy="760" r="10" class="c0"/>
<circle cx="1582" cy="880" r="10" class="c0"/>
<circle cx="1524" cy="1276" r="10" class="c0"/>
<circle cx="1714" cy="818" r="10" class="c0"/>
<circle cx="1568" cy="556" r="10" class="c0"/>
<circle cx="1552" cy="432" r="10" class="c0"/>
<circle cx="1558" cy="1026" r="10" class="c0"/>
<circle cx="1540" cy="380" r="10" class="c0"/>
<circle cx="1346" cy="684" r="10" class="c0"/>
<circle cx="1150" cy="674" r="10" class="c0"/>
<circle cx="1302" cy="720" r="10" class="c0"/>
<circle cx="1496" cy="506" r="10" class="c0"/>
<circle cx="1682" cy="908" r="10" class="c0"/>
<circle cx="1550" cy="1074" r="8" class="c0"/>
<circle cx="1528" cy="780" r="8" class="c0"/>
<circle cx="1732" cy="938" r="8" class="c0"/>
<circle cx="1564" cy="1156" r="8" class="c0"/>
<circle cx="1542" cy="1200" r="8" class="c0"/>
<circle cx="1422" cy="1162" r="8" class="c0"/>
<circle cx="1478" cy="1194" r="8" class="c0"/>
<circle cx="1620" cy="1358" r="8" class="c0"/>
<circle cx="1616" cy="1272" r="8" class="c0"/>
<circle cx="1664" cy="1220" r="8" class="c0"/>
<circle cx="1524" cy="468" r="8" class="c0"/>
<circle cx="1678" cy="1298" r="8" class="c0"/>
<circle cx="1652" cy="1328" r="8" class="c0"/>
<circle cx="1482" cy="678" r="8" class="c0"/>
<circle cx="1626" cy="956" r="8" class="c0"/>
<circle cx="1590" cy="548" r="8" class="c0"/>
<circle cx="1522" cy="536" r="8" class="c0"/>
<circle cx="1436" cy="1344" r="8" class="c0"/>
<circle cx="1578" cy="620" r="8" class="c0"/>
<circle cx="1624" cy="780" r="8" class="c0"/>
<circle cx="1504" cy="442" r="8" class="c0"/>
<circle cx="1522" cy="800" r="8" class="c0"/>
<circle cx="1476" cy="1124" r="8" class="c0"/>
<circle cx="1446" cy="1110" r="8" class="c0"/>
<circle cx="1640" cy="1120" r="8" class="c0"/>
<circle cx="1668" cy="1362" r="8" class="c0"/>
<circle cx="1548" cy="780" r="8" class="c0"/>
<circle cx="1682" cy="1248" r="8" class="c0"/>
<circle cx="1604" cy="1154" r="8" class="c0"/>
<circle cx="1676" cy="1330" r="8" class="c0"/>
<circle cx="1240" cy="666" r="8" class="c0"/>
<circle cx="1486" cy="1320" r="8" class="c0"/>
<circle cx="1706" cy="1062" r="8" class="c0"/>
<circle cx="1428" cy="388" r="8" class="c0"/>
<circle cx="1752" cy="1082" r="8" class="c0"/>
<circle cx="1702" cy="804" r="8" class="c0"/>
<circle cx="1616" cy="924" r="8" class="c0"/>
<circle cx="1706" cy="888" r="8" class="c0"/>
<circle cx="1476" cy="1144" r="8" class="c0"/>
<circle cx="1560" cy="882" r="8" class="c0"/>
<circle cx="1520" cy="1014" r="8" class="c0"/>
<circle cx="1504" cy="1132" r="8" class="c0"/>
<circle cx="1596" cy="1088" r="8" class="c0"/>
<circle cx="1512" cy="314" r="8" class="c0"/>
<circle cx="1540" cy="880" r="8" class="c0"/>
<circle cx="1654" cy="768" r="8" class="c0"/>
<circle cx="1666" cy="890" r="8" class="c0"/>
<circle cx="1564" cy="836" r="8" class="c0"/>
<circle cx="1370" cy="708" r="8" class="c0"/>
<circle cx="1648" cy="838" r="8" class="c0"/>
<circle cx="1586" cy="576" r="8" class="c0"/>
<circle cx="1178" cy="712" r="8" class="c0"/>
<circle cx="1660" cy="652" r="8" class="c0"/>
<circle cx="1742" cy="1106" r="8" class="c0"/>
<circle cx="1606" cy="528" r="8" class="c0"/>
<circle cx="1670" cy="780" r="8" class="c0"/>
<circle cx="1588" cy="916" r="8" class="c0"/>
<circle cx="1640" cy="500" r="8" class="c0"/>
<circle cx="1726" cy="920" r="8" class="c0"/>
<circle cx="1382" cy="694" r="8" class="c0"/>
<circle cx="1584" cy="1076" r="8" class="c0"/>
<circle cx="1728" cy="1132" r="8" class="c0"/>
<circle cx="1098" cy="706" r="8" class="c0"/>
<circle cx="1698" cy="872" r="8" class="c0"/>
<circle cx="1572" cy="962" r="8" class="c0"/>
<circle cx="1676" cy="644" r="8" class="c0"/>
<circle cx="1668" cy="976" r="8" class="c0"/>
<circle cx="1538" cy="1152" r="8" class="c0"/>
<circle cx="1470" cy="716" r="8" class="c0"/>
<circle cx="1654" cy="606" r="8" class="c0"/>
<circle cx="1594" cy="862" r="8" class="c0"/>
<circle cx="1544" cy="480" r="8" class="c0"/>
<circle cx="1564" cy="446" r="8" class="c0"/>
<circle cx="1598" cy="684" r="8" class="c0"/>
<circle cx="1574" cy="800" r="8" class="c0"/>
<circle cx="1120" cy="704" r="8" class="c0"/>
<circle cx="1588" cy="832" r="8" class="c0"/>
<circle cx="1642" cy="1152" r="8" class="c0"/>
<circle cx="1506" cy="1004" r="8" class="c0"/>
<circle cx="1436" cy="716" r="8" class="c0"/>
<circle cx="1582" cy="1022" r="8" class="c0"/>
<circle cx="1666" cy="1342" r="8" class="c0"/>
<circle cx="1746" cy="1134" r="8" class="c0"/>
<circle cx="1290" cy="668" r="8" class="c0"/>
<circle cx="1480" cy="702" r="8" class="c0"/>
<circle cx="1524" cy="956" r="8" class="c0"/>
<circle cx="1638" cy="938" r="8" class="c0"/>
<circle cx="1136" cy="716" r="8" class="c0"/>
<circle cx="1500" cy="684" r="8" class="c0"/>
<circle cx="1686" cy="1042" r="8" class="c0"/>
<circle cx="1494" cy="1168" r="8" class="c0"/>
<circle cx="1624" cy="1168" r="8" class="c0"/>
<circle cx="1622" cy="694" r="8" class="c0"/>
<circle cx="1670" cy="598" r="8" class="c0"/>
<circle cx="1532" cy="900" r="8" class="c0"/>
<circle cx="1632" cy="1348" r="8" class="c0"/>
<circle cx="1610" cy="946" r="8" class="c0"/>
<circle cx="1542" cy="532" r="8" class="c0"/>
<circle cx="1632" cy="848" r="8" class="c0"/>
<circle cx="1410" cy="1426" r="8" class="c0"/>
<circle cx="1448" cy="1320" r="8" class="c0"/>
<circle cx="1470" cy="1300" r="8" class="c0"/>
<circle cx="1510" cy="1296" r="8" class="c0"/>
<circle cx="1468" cy="1324" r="8" class="c0"/>
<circle cx="1564" cy="762" r="8" class="c0"/>
<circle cx="1488" cy="732" r="8" class="c0"/>
<circle cx="1646" cy="1308" r="8" class="c0"/>
<circle cx="1480" cy="1052" r="8" class="c0"/>
<circle cx="1668" cy="1408" r="8" class="c0"/>
<circle cx="1742" cy="1156" r="8" class="c0"/>
<circle cx="1628" cy="1226" r="8" class="c0"/>
<circle cx="1682" cy="1062" r="8" class="c0"/>
<circle cx="1438" cy="1396" r="8" class="c0"/>
<circle cx="1742" cy="988" r="8" class="c0"/>
<circle cx="1406" cy="1404" r="8" class="c0"/>
<circle cx="1532" cy="1248" r="8" class="c0"/>
<circle cx="1502" cy="1214" r="8" class="c0"/>
<circle cx="1516" cy="888" r="8" class="c0"/>
<circle cx="1516" cy="990" r="8" class="c0"/>
<circle cx="1526" cy="1136" r="8" class="c0"/>
<circle cx="1664" cy="1310" r="8" class="c0"/>
<circle cx="1266" cy="666" r="8" class="c0"/>
<circle cx="1582" cy="512" r="8" class="c0"/>
<circle cx="1552" cy="460" r="8" class="c0"/>
<circle cx="1526" cy="1056" r="8" class="c0"/>
<circle cx="1722" cy="1082" r="8" class="c0"/>
<circle cx="1548" cy="358" r="8" class="c0"/>
<circle cx="1552" cy="1056" r="8" class="c0"/>
<circle cx="1476" cy="1006" r="8" class="c0"/>
<circle cx="1658" cy="1258" r="8" class="c0"/>
<circle cx="1382" cy="674" r="8" class="c0"/>
<circle cx="1460" cy="392" r="8" class="c0"/>
<circle cx="1574" cy="708" r="8" class="c0"/>
<circle cx="1654" cy="556" r="8" class="c0"/>
<circle cx="1576" cy="994" r="8" class="c0"/>
<circle cx="1510" cy="752" r="8" class="c0"/>
<circle cx="1484" cy="344" r="8" class="c0"/>
<circle cx="1688" cy="792" r="8" class="c0"/>
<circle cx="1652" cy="1390" r="8" class="c0"/>
<circle cx="1426" cy="1386" r="8" class="c0"/>
<circle cx="1458" cy="1398" r="8" class="c0"/>
<circle cx="1504" cy="1324" r="8" class="c0"/>
<circle cx="1608" cy="768" r="8" class="c0"/>
<circle cx="1676" cy="1190" r="8" class="c0"/>
<circle cx="1504" cy="530" r="8" class="c0"/>
<circle cx="1508" cy="576" r="8" class="c0"/>
<circle cx="1658" cy="1128" r="8" class="c0"/>
<circle cx="1610" cy="1012" r="8" class="c0"/>
<circle cx="1700" cy="854" r="8" class="c0"/>
<circle cx="1636" cy="1084" r="8" class="c0"/>
<circle cx="1516" cy="1080" r="8" class="c0"/>
<circle cx="1556" cy="412" r="8" class="c0"/>
<circle cx="1378" cy="732" r="8" class="c0"/>
<circle cx="1504" cy="1098" r="8" class="c0"/>
<circle cx="1654" cy="1230" r="8" class="c0"/>
<circle cx="1454" cy="1340" r="8" class="c0"/>
<circle cx="1562" cy="790" r="8" class="c0"/>
<circle cx="1598" cy="968" r="8" class="c0"/>
<circle cx="1510" cy="966" r="8" class="c0"/>
<circle cx="1280" cy="686" r="8" class="c0"/>
<circle cx="1518" cy="364" r="8" class="c0"/>
<circle cx="1600" cy="482" r="8" class="c0"/>
<circle cx="1710" cy="1016" r="8" class="c0"/>
<circle cx="1470" cy="318" r="8" class="c0"/>
<circle cx="1616" cy="1322" r="8" class="c0"/>
<circle cx="1558" cy="390" r="8" class="c0"/>
<circle cx="1208" cy="666" r="8" class="c0"/>
<circle cx="1572" cy="1188" r="8" class="c0"/>
<circle cx="1704" cy="1162" r="8" class="c0"/>
<circle cx="1538" cy="850" r="8" class="c0"/>
<circle cx="1244" cy="716" r="8" class="c0"/>
<circle cx="1594" cy="1054" r="8" class="c0"/>
<circle cx="1266" cy="720" r="8" class="c0"/>
<circle cx="1536" cy="980" r="8" class="c0"/>
<circle cx="1518" cy="936" r="8" class="c0"/>
<circle cx="1670" cy="834" r="8" class="c0"/>
<circle cx="1486" cy="546" r="8" class="c0"/>
<circle cx="1470" cy="380" r="8" class="c0"/>
<circle cx="1550" cy="1218" r="8" class="c0"/>
<circle cx="1370" cy="684" r="8" class="c0"/>
<circle cx="1624" cy="488" r="8" class="c0"/>
<circle cx="1522" cy="590" r="8" class="c0"/>
<circle cx="1098" cy="686" r="8" class="c0"/>
<circle cx="1536" cy="338" r="8" class="c0"/>
<circle cx="1604" cy="844" r="8" class="c0"/>
<circle cx="1514" cy="668" r="8" class="c0"/>
<circle cx="1628" cy="1142" r="8" class="c0"/>
<circle cx="1704" cy="778" r="8" class="c0"/>
<circle cx="1454" cy="554" r="8" class="c0"/>
<circle cx="1606" cy="1066" r="8" class="c0"/>
<circle cx="1526" cy="324" r="8" class="c0"/>
<circle cx="1540" cy="1016" r="8" class="c0"/>
<circle cx="1468" cy="1214" r="8" class="c0"/>
<circle cx="1640" cy="568" r="8" class="c0"/>
<circle cx="1668" cy="1138" r="8" class="c0"/>
<circle cx="1458" cy="678" r="8" class="c0"/>
<circle cx="1598" cy="632" r="8" class="c0"/>
<circle cx="1070" cy="666" r="8" class="c0"/>
<circle cx="1474" cy="420" r="8" class="c0"/>
<circle cx="1314" cy="708" r="8" class="c0"/>
<circle cx="1634" cy="1330" r="8" class="c0"/>
<circle cx="1648" cy="816" r="8" class="c0"/>
<circle cx="1564" cy="812" r="8" class="c0"/>
<circle cx="1752" cy="1116" r="8" class="c0"/>
<circle cx="1698" cy="948" r="8" class="c0"/>
<circle cx="1538" cy="418" r="8" class="c0"/>
<circle cx="1730" cy="860" r="8" class="c0"/>
<circle cx="1542" cy="400" r="8" class="c0"/>
<circle cx="1594" cy="1004" r="8" class="c0"/>
<circle cx="1614" cy="1426" r="8" class="c0"/>
<circle cx="1664" cy="1426" r="8" class="c0"/>
<circle cx="1050" cy="670" r="8" class="c0"/>
<circle cx="1460" cy="1282" r="8" class="c0"/>
<circle cx="1636" cy="1008" r="8" class="c0"/>
<circle cx="1618" cy="1240" r="8" class="c0"/>
<circle cx="1694" cy="1072" r="8" class="c0"/>
<circle cx="1468" cy="692" r="8" class="c0"/>
<circle cx="1654" cy="1352" r="8" class="c0"/>
<circle cx="1586" cy="984" r="8" class="c0"/>
<circle cx="1624" cy="744" r="8" class="c0"/>
<circle cx="1652" cy="748" r="8" class="c0"/>
<circle cx="1660" cy="790" r="8" class="c0"/>
<circle cx="1658" cy="1028" r="8" class="c0"/>
<circle cx="1668" cy="1078" r="8" class="c0"/>
<circle cx="1630" cy="868" r="8" class="c0"/>
<circle cx="1120" cy="684" r="8" class="c0"/>
<circle cx="1562" cy="1094" r="8" class="c0"/>
<circle cx="1236" cy="684" r="8" class="c0"/>
<circle cx="1538" cy="790" r="8" class="c0"/>
<circle cx="1738" cy="1200" r="8" class="c0"/>
<circle cx="1466" cy="1244" r="8" class="c0"/>
<circle cx="1564" cy="506" r="8" class="c0"/>
<circle cx="1496" cy="480" r="8" class="c0"/>
<circle cx="1582" cy="1162" r="8" class="c0"/>
<circle cx="1486" cy="1370" r="8" class="c0"/>
<circle cx="1620" cy="1098" r="8" class="c0"/>
<circle cx="1666" cy="1240" r="8" class="c0"/>
<circle cx="1610" cy="1218" r="8" class="c0"/>
<circle cx="1596" cy="586" r="8" class="c0"/>
<circle cx="1722" cy="1028" r="8" class="c0"/>
<circle cx="1560" cy="1176" r="8" class="c0"/>
<circle cx="1508" cy="1058" r="8" class="c0"/>
<circle cx="1506" cy="734" r="8" class="c0"/>
<circle cx="1654" cy="696" r="8" class="c0"/>
<circle cx="1448" cy="1408" r="8" class="c0"/>
<circle cx="1680" cy="1230" r="8" class="c0"/>
<circle cx="1614" cy="860" r="8" class="c0"/>
<circle cx="1426" cy="1142" r="8" class="c0"/>
<circle cx="1676" cy="868" r="8" class="c0"/>
<circle cx="1676" cy="624" r="8" class="c0"/>
<circle cx="1716" cy="794" r="8" class="c0"/>
<circle cx="1692" cy="1174" r="8" class="c0"/>
<circle cx="1732" cy="826" r="8" class="c0"/>
<circle cx="1496" cy="1196" r="8" class="c0"/>
<circle cx="1524" cy="728" r="8" class="c0"/>
<circle cx="1480" cy="496" r="8" class="c0"/>
<circle cx="1584" cy="698" r="8" class="c0"/>
<circle cx="1322" cy="724" r="8" class="c0"/>
<circle cx="1624" cy="814" r="8" class="c0"/>
<circle cx="1666" cy="544" r="8" class="c0"/>
<circle cx="1646" cy="988" r="8" class="c0"/>
<circle cx="1714" cy="936" r="8" class="c0"/>
<circle cx="1188" cy="666" r="8" class="c0"/>
<circle cx="1490" cy="1290" r="8" class="c0"/>
<circle cx="1476" cy="1382" r="8" class="c0"/>
<circle cx="1660" cy="954" r="8" class="c0"/>
<circle cx="1664" cy="758" r="8" class="c0"/>
<circle cx="1626" cy="514" r="8" class="c0"/>
<circle cx="1440" cy="398" r="8" class="c0"/>
<circle cx="1740" cy="850" r="8" class="c0"/>
<circle cx="1644" cy="780" r="6" class="c0"/>
<circle cx="1428" cy="352" r="6" class="c0"/>
<circle cx="1582" cy="470" r="6" class="c0"/>
<circle cx="1612" cy="876" r="6" class="c0"/>
<circle cx="1504" cy="1230" r="6" class="c0"/>
<circle cx="1634" cy="1430" r="6" class="c0"/>
<circle cx="1570" cy="1064" r="6" class="c0"/>
<circle cx="1446" cy="1264" r="6" class="c0"/>
<circle cx="1360" cy="696" r="6" class="c0"/>
<circle cx="1686" cy="1268" r="6" class="c0"/>
<circle cx="1704" cy="758" r="6" class="c0"/>
<circle cx="1546" cy="684" r="6" class="c0"/>
<circle cx="1754" cy="1008" r="6" class="c0"/>
<circle cx="1246" cy="696" r="6" class="c0"/>
<circle cx="1628" cy="972" r="6" class="c0"/>
<circle cx="1486" cy="434" r="6" class="c0"/>
<circle cx="1358" cy="722" r="6" class="c0"/>
<circle cx="1536" cy="1264" r="6" class="c0"/>
<circle cx="1460" cy="1120" r="6" class="c0"/>
<circle cx="1588" cy="936" r="6" class="c0"/>
<circle cx="1342" cy="730" r="6" class="c0"/>
<circle cx="1492" cy="1020" r="6" class="c0"/>
<circle cx="1282" cy="722" r="6" class="c0"/>
<circle cx="1506" cy="1022" r="6" class="c0"/>
<circle cx="1584" cy="848" r="6" class="c0"/>
<circle cx="1536" cy="834" r="6" class="c0"/>
<circle cx="1690" cy="840" r="6" class="c0"/>
<circle cx="1362" cy="668" r="6" class="c0"/>
<circle cx="1694" cy="768" r="6" class="c0"/>
<circle cx="1398" cy="378" r="6" class="c0"/>
<circle cx="1430" cy="1314" r="6" class="c0"/>
<circle cx="1512" cy="1264" r="6" class="c0"/>
<circle cx="1528" cy="354" r="6" class="c0"/>
<circle cx="1436" cy="736" r="6" class="c0"/>
<circle cx="1566" cy="1006" r="6" class="c0"/>
<circle cx="1580" cy="900" r="6" class="c0"/>
<circle cx="1618" cy="580" r="6" class="c0"/>
<circle cx="1596" cy="616" r="6" class="c0"/>
<circle cx="1564" cy="978" r="6" class="c0"/>
<circle cx="1614" cy="1082" r="6" class="c0"/>
<circle cx="1494" cy="1144" r="6" class="c0"/>
<circle cx="1650" cy="664" r="6" class="c0"/>
<circle cx="1506" cy="464" r="6" class="c0"/>
<circle cx="1614" cy="640" r="6" class="c0"/>
<circle cx="1712" cy="1208" r="6" class="c0"/>
<circle cx="1662" cy="914" r="6" class="c0"/>
<circle cx="1756" cy="1044" r="6" class="c0"/>
<circle cx="1664" cy="1154" r="6" class="c0"/>
<circle cx="1422" cy="372" r="6" class="c0"/>
<circle cx="1694" cy="730" r="6" class="c0"/>
<circle cx="1684" cy="926" r="6" class="c0"/>
<circle cx="1712" cy="864" r="6" class="c0"/>
<circle cx="1658" cy="712" r="6" class="c0"/>
<circle cx="1500" cy="648" r="6" class="c0"/>
<circle cx="1554" cy="606" r="6" class="c0"/>
<circle cx="1476" cy="512" r="6" class="c0"/>
<circle cx="1550" cy="514" r="6" class="c0"/>
<circle cx="1620" cy="724" r="6" class="c0"/>
<circle cx="1468" cy="1408" r="6" class="c0"/>
<circle cx="1520" cy="1238" r="6" class="c0"/>
<circle cx="1680" cy="1314" r="6" class="c0"/>
<circle cx="1572" cy="920" r="6" class="c0"/>
<circle cx="1132" cy="672" r="6" class="c0"/>
<circle cx="1674" cy="660" r="6" class="c0"/>
<circle cx="1614" cy="1388" r="6" class="c0"/>
<circle cx="1702" cy="1114" r="6" class="c0"/>
<circle cx="1718" cy="900" r="6" class="c0"/>
<circle cx="1666" cy="1058" r="6" class="c0"/>
<circle cx="1078" cy="716" r="6" class="c0"/>
<circle cx="1476" cy="1178" r="6" class="c0"/>
<circle cx="1082" cy="680" r="6" class="c0"/>
<circle cx="1746" cy="946" r="6" class="c0"/>
<circle cx="1536" cy="1124" r="6" class="c0"/>
<circle cx="1460" cy="410" r="6" class="c0"/>
<circle cx="1560" cy="1206" r="6" class="c0"/>
<circle cx="1224" cy="668" r="6" class="c0"/>
<circle cx="1484" cy="1246" r="6" class="c0"/>
<circle cx="1486" cy="966" r="6" class="c0"/>
<circle cx="1250" cy="676" r="6" class="c0"/>
<circle cx="1470" cy="552" r="6" class="c0"/>
<circle cx="1164" cy="692" r="6" class="c0"/>
<circle cx="1532" cy="676" r="6" class="c0"/>
<circle cx="1140" cy="688" r="6" class="c0"/>
<circle cx="1648" cy="1368" r="6" class="c0"/>
<circle cx="1504" cy="806" r="6" class="c0"/>
<circle cx="1496" cy="666" r="6" class="c0"/>
<circle cx="1552" cy="800" r="6" class="c0"/>
<circle cx="1666" cy="1378" r="6" class="c0"/>
<circle cx="1522" cy="848" r="6" class="c0"/>
<circle cx="1630" cy="902" r="6" class="c0"/>
<circle cx="1114" cy="668" r="6" class="c0"/>
<circle cx="1602" cy="1136" r="6" class="c0"/>
<circle cx="1608" cy="1340" r="6" class="c0"/>
<circle cx="1754" cy="1064" r="6" class="c0"/>
<circle cx="1012" cy="670" r="6" class="c0"/>
<circle cx="1492" cy="566" r="6" class="c0"/>
<circle cx="1542" cy="644" r="6" class="c0"/>
<circle cx="1658" cy="672" r="6" class="c0"/>
<circle cx="1472" cy="734" r="6" class="c0"/>
<circle cx="1722" cy="1148" r="6" class="c0"/>
<circle cx="1460" cy="1310" r="6" class="c0"/>
<circle cx="1614" cy="970" r="6" class="c0"/>
<circle cx="1152" cy="720" r="6" class="c0"/>
<circle cx="1610" cy="796" r="6" class="c0"/>
<circle cx="1738" cy="904" r="6" class="c0"/>
<circle cx="1662" cy="1202" r="6" class="c0"/>
<circle cx="1424" cy="1406" r="6" class="c0"/>
<circle cx="1488" cy="750" r="6" class="c0"/>
<circle cx="1458" cy="1428" r="6" class="c0"/>
<circle cx="1524" cy="564" r="6" class="c0"/>
<circle cx="1646" cy="732" r="6" class="c0"/>
<circle cx="1590" cy="602" r="6" class="c0"/>
<circle cx="1586" cy="954" r="6" class="c0"/>
<circle cx="1678" cy="766" r="6" class="c0"/>
<circle cx="1324" cy="694" r="6" class="c0"/>
<circle cx="1426" cy="1328" r="6" class="c0"/>
<circle cx="1506" cy="1280" r="6" class="c0"/>
<circle cx="1500" cy="630" r="6" class="c0"/>
<circle cx="1652" cy="1188" r="6" class="c0"/>
<circle cx="1542" cy="762" r="6" class="c0"/>
<circle cx="1664" cy="684" r="6" class="c0"/>
<circle cx="1442" cy="1168" r="6" class="c0"/>
<circle cx="1642" cy="644" r="6" class="c0"/>
<circle cx="1388" cy="342" r="6" class="c0"/>
<circle cx="1574" cy="1104" r="6" class="c0"/>
<circle cx="1678" cy="990" r="6" class="c0"/>
<circle cx="1396" cy="736" r="6" class="c0"/>
<circle cx="1544" cy="1114" r="6" class="c0"/>
<circle cx="1518" cy="1040" r="6" class="c0"/>
<circle cx="1494" cy="766" r="6" class="c0"/>
<circle cx="1086" cy="646" r="6" class="c0"/>
<circle cx="1632" cy="1396" r="6" class="c0"/>
<circle cx="1630" cy="1108" r="6" class="c0"/>
<circle cx="1682" cy="886" r="6" class="c0"/>
<circle cx="1670" cy="1392" r="6" class="c0"/>
<circle cx="1520" cy="764" r="6" class="c0"/>
<circle cx="1734" cy="1184" r="6" class="c0"/>
<circle cx="1418" cy="710" r="6" class="c0"/>
<circle cx="1658" cy="1292" r="6" class="c0"/>
<circle cx="1486" cy="1092" r="6" class="c0"/>
<circle cx="1700" cy="830" r="6" class="c0"/>
<circle cx="1548" cy="1142" r="6" class="c0"/>
<circle cx="1610" cy="1254" r="6" class="c0"/>
<circle cx="1608" cy="1296" r="6" class="c0"/>
<circle cx="1516" cy="686" r="6" class="c0"/>
<circle cx="1608" cy="544" r="6" class="c0"/>
<circle cx="1562" cy="614" r="6" class="c0"/>
<circle cx="1576" cy="822" r="6" class="c0"/>
<circle cx="1614" cy="680" r="6" class="c0"/>
<circle cx="1548" cy="1234" r="6" class="c0"/>
<circle cx="1680" cy="848" r="6" class="c0"/>
<circle cx="1654" cy="1068" r="6" class="c0"/>
<circle cx="1534" cy="916" r="6" class="c0"/>
<circle cx="1622" cy="1206" r="6" class="c0"/>
<circle cx="1696" cy="978" r="6" class="c0"/>
<circle cx="1744" cy="870" r="6" class="c0"/>
<circle cx="1498" cy="1272" r="6" class="c0"/>
<circle cx="1598" cy="926" r="6" class="c0"/>
<circle cx="1514" cy="456" r="6" class="c0"/>
<circle cx="1584" cy="496" r="6" class="c0"/>
<circle cx="1526" cy="484" r="6" class="c0"/>
<circle cx="1438" cy="1152" r="6" class="c0"/>
<circle cx="1614" cy="1178" r="6" class="c0"/>
<circle cx="1334" cy="670" r="6" class="c0"/>
<circle cx="1500" cy="348" r="6" class="c0"/>
<circle cx="1532" cy="1002" r="6" class="c0"/>
<circle cx="1484" cy="1030" r="6" class="c0"/>
<circle cx="1530" cy="1030" r="6" class="c0"/>
<circle cx="1554" cy="824" r="6" class="c0"/>
<circle cx="1580" cy="1092" r="6" class="c0"/>
<circle cx="1708" cy="986" r="6" class="c0"/>
<circle cx="1740" cy="1044" r="6" class="c0"/>
<circle cx="1450" cy="1250" r="6" class="c0"/>
<circle cx="1696" cy="898" r="6" class="c0"/>
<circle cx="1462" cy="1260" r="6" class="c0"/>
<circle cx="1724" cy="978" r="6" class="c0"/>
<circle cx="1388" cy="366" r="6" class="c0"/>
<circle cx="1436" cy="1120" r="6" class="c0"/>
<circle cx="1032" cy="668" r="6" class="c0"/>
<circle cx="1654" cy="902" r="6" class="c0"/>
<circle cx="1540" cy="736" r="6" class="c0"/>
<circle cx="1496" cy="1306" r="6" class="c0"/>
<circle cx="1726" cy="1048" r="6" class="c0"/>
<circle cx="1494" cy="334" r="6" class="c0"/>
<circle cx="1648" cy="1432" r="6" class="c0"/>
<circle cx="1582" cy="636" r="6" class="c0"/>
<circle cx="1534" cy="1072" r="6" class="c0"/>
<circle cx="1392" cy="1432" r="6" class="c0"/>
<circle cx="1486" cy="1154" r="6" class="c0"/>
<circle cx="1500" cy="1342" r="6" class="c0"/>
<circle cx="1486" cy="520" r="6" class="c0"/>
<circle cx="1734" cy="1092" r="6" class="c0"/>
<circle cx="1538" cy="600" r="6" class="c0"/>
<circle cx="1554" cy="496" r="6" class="c0"/>
<circle cx="1648" cy="1018" r="6" class="c0"/>
<circle cx="1548" cy="1162" r="6" class="c0"/>
<circle cx="1548" cy="840" r="6" class="c0"/>
<circle cx="1742" cy="918" r="6" class="c0"/>
<circle cx="1414" cy="1374" r="6" class="c0"/>
<circle cx="1478" cy="1082" r="6" class="c0"/>
<circle cx="1660" cy="1112" r="6" class="c0"/>
<circle cx="1590" cy="530" r="6" class="c0"/>
<circle cx="1624" cy="530" r="6" class="c0"/>
<circle cx="1460" cy="370" r="6" class="c0"/>
<circle cx="1550" cy="868" r="6" class="c0"/>
<circle cx="1636" cy="610" r="6" class="c0"/>
<circle cx="1684" cy="1082" r="6" class="c0"/>
<circle cx="1502" cy="932" r="6" class="c0"/>
<circle cx="1530" cy="634" r="6" class="c0"/>
<circle cx="1668" cy="1038" r="6" class="c0"/>
<circle cx="1490" cy="716" r="6" class="c0"/>
<circle cx="1514" cy="1312" r="6" class="c0"/>
<circle cx="1696" cy="1052" r="6" class="c0"/>
<circle cx="1198" cy="676" r="6" class="c0"/>
<circle cx="1164" cy="662" r="6" class="c0"/>
<circle cx="1474" cy="334" r="6" class="c0"/>
<circle cx="1540" cy="448" r="6" class="c0"/>
<circle cx="1622" cy="1074" r="6" class="c0"/>
<circle cx="1644" cy="1136" r="6" class="c0"/>
<circle cx="1552" cy="1106" r="6" class="c0"/>
<circle cx="1424" cy="674" r="6" class="c0"/>
<circle cx="1620" cy="884" r="6" class="c0"/>
<circle cx="1652" cy="1162" r="6" class="c0"/>
<circle cx="1566" cy="1112" r="6" class="c0"/>
<circle cx="1630" cy="1314" r="6" class="c0"/>
<circle cx="1524" cy="606" r="6" class="c0"/>
<circle cx="1606" cy="1312" r="6" class="c0"/>
<circle cx="1476" cy="984" r="6" class="c0"/>
<circle cx="1636" cy="826" r="6" class="c0"/>
<circle cx="1656" cy="876" r="6" class="c0"/>
<circle cx="1628" cy="1418" r="6" class="c0"/>
<circle cx="1486" cy="1134" r="6" class="c0"/>
<circle cx="1568" cy="1078" r="6" class="c0"/>
<circle cx="1572" cy="748" r="6" class="c0"/>
<circle cx="1550" cy="754" r="6" class="c0"/>
<circle cx="1458" cy="1230" r="6" class="c0"/>
<circle cx="1600" cy="1104" r="6" class="c0"/>
<circle cx="1494" cy="452" r="6" class="c0"/>
<circle cx="1048" cy="686" r="6" class="c0"/>
<circle cx="1604" cy="914" r="6" class="c0"/>
<circle cx="1462" cy="1046" r="6" class="c0"/>
<circle cx="1478" cy="304" r="6" class="c0"/>
<circle cx="1574" cy="774" r="6" class="c0"/>
<circle cx="1450" cy="382" r="6" class="c0"/>
<circle cx="1410" cy="1388" r="6" class="c0"/>
<circle cx="1528" cy="1190" r="6" class="c0"/>
<circle cx="1604" cy="984" r="6" class="c0"/>
<circle cx="1686" cy="776" r="6" class="c0"/>
<circle cx="1686" cy="1284" r="6" class="c0"/>
<circle cx="1412" cy="384" r="6" class="c0"/>
<circle cx="1722" cy="952" r="6" class="c0"/>
<circle cx="1732" cy="1116" r="6" class="c0"/>
<circle cx="1740" cy="1006" r="6" class="c0"/>
<circle cx="1506" cy="592" r="6" class="c0"/>
<circle cx="1678" cy="1164" r="6" class="c0"/>
<circle cx="1166" cy="724" r="6" class="c0"/>
<circle cx="1486" cy="1208" r="6" class="c0"/>
<circle cx="1752" cy="978" r="6" class="c0"/>
<circle cx="1646" cy="542" r="6" class="c0"/>
<circle cx="1276" cy="710" r="6" class="c0"/>
</svg>
