<?xml version="1.0" encoding="utf-8"?>
<svg xmlns="http://www.w3.org/2000/svg"
     xmlns:xlink="http://www.w3.org/1999/xlink" width="1920" height="1440" >

            <defs>
            <style type="text/css"><![CDATA[
circle {stroke: none;}
.c0 {fill: #FFFFFF;}
]]></style>
            </defs>
<rect x="0" y="0" width="1920" height="1440" fill="black"/>
<circle cx="1590" cy="586" r="14" class="c0"/>
<circle cx="1580" cy="668" r="14" class="c0"/>
<circle cx="1632" cy="484" r="12" class="c0"/>
<circle cx="1660" cy="988" r="12" class="c0"/>
<circle cx="1616" cy="1152" r="12" class="c0"/>
<circle cx="1170" cy="714" r="12" class="c0"/>
<circle cx="1540" cy="1252" r="12" class="c0"/>
<circle cx="1478" cy="1326" r="12" class="c0"/>
<circle cx="1482" cy="1158" r="12" class="c0"/>
<circle cx="1608" cy="712" r="12" class="c0"/>
<circle cx="1270" cy="672" r="12" class="c0"/>
<circle cx="1646" cy="596" r="12" class="c0"/>
<circle cx="1730" cy="846" r="12" class="c0"/>
<circle cx="1514" cy="1302" r="12" class="c0"/>
<circle cx="1698" cy="1272" r="12" class="c0"/>
<circle cx="1620" cy="518" r="12" class="c0"/>
<circle cx="1664" cy="838" r="12" class="c0"/>
<circle cx="1570" cy="1168" r="12" class="c0"/>
<circle cx="1558" cy="854" r="12" class="c0"/>
<circle cx="1514" cy="1182" r="12" class="c0"/>
<circle cx="1694" cy="842" r="12" class="c0"/>
<circle cx="1662" cy="740" r="12" class="c0"/>
<circle cx="1444" cy="1394" r="12" class="c0"/>
<circle cx="1480" cy="1360" r="12" class="c0"/>
<circle cx="1526" cy="456" r="12" class="c0"/>
<circle cx="1616" cy="1030" r="12" class="c0"/>
<circle cx="1574" cy="928" r="12" class="c0"/>
<circle cx="1734" cy="1032" r="12" class="c0"/>
<circle cx="1680" cy="944" r="12" class="c0"/>
<circle cx="1148" cy="684" r="12" class="c0"/>
<circle cx="1640" cy="544" r="12" class="c0"/>
<circle cx="1674" cy="1214" r="12" class="c0"/>
<circle cx="1620" cy="944" r="12" class="c0"/>
<circle cx="1510" cy="1140" r="12" class="c0"/>
<circle cx="1698" cy="786" r="12" class="c0"/>
<circle cx="1558" cy="1220" r="12" class="c0"/>
<circle cx="1636" cy="1092" r="12" class="c0"/>
<circle cx="1574" cy="636" r="12" class="c0"/>
<circle cx="1716" cy="1128" r="12" class="c0"/>
<circle cx="1604" cy="612" r="12" class="c0"/>
<circle cx="1562" cy="490" r="12" class="c0"/>
<circle cx="1494" cy="564" r="12" class="c0"/>
<circle cx="1630" cy="774" r="12" class="c0"/>
<circle cx="1518" cy="990" r="12" class="c0"/>
<circle cx="1094" cy="660" r="12" class="c0"/>
<circle cx="1538" cy="664" r="12" class="c0"/>
<circle cx="1496" cy="1126" r="10" class="c0"/>
<circle cx="1686" cy="634" r="10" class="c0"/>
<circle cx="1532" cy="970" r="10" class="c0"/>
<circle cx="1526" cy="718" r="10" class="c0"/>
<circle cx="1610" cy="784" r="10" class="c0"/>
<circle cx="1614" cy="644" r="10" class="c0"/>
<circle cx="1616" cy="860" r="10" class="c0"/>
<circle cx="1728" cy="1008" r="10" class="c0"/>
<circle cx="1654" cy="1178" r="10" class="c0"/>
<circle cx="1628" cy="1114" r="10" class="c0"/>
<circle cx="1434" cy="724" r="10" class="c0"/>
<circle cx="1354" cy="678" r="10" class="c0"/>
<circle cx="1464" cy="1346" r="10" class="c0"/>
<circle cx="1528" cy="1286" r="10" class="c0"/>
<circle cx="1536" cy="508" r="10" class="c0"/>
<circle cx="1712" cy="1228" r="10" class="c0"/>
<circle cx="1674" cy="1132" r="10" class="c0"/>
<circle cx="1650" cy="1056" r="10" class="c0"/>
<circle cx="1620" cy="1182" r="10" class="c0"/>
<circle cx="1746" cy="988" r="10" class="c0"/>
<circle cx="1552" cy="1126" r="10" class="c0"/>
<circle cx="1526" cy="1028" r="10" class="c0"/>
<circle cx="1658" cy="1396" r="10" class="c0"/>
<circle cx="1604" cy="538" r="10" class="c0"/>
<circle cx="1658" cy="904" r="10" class="c0"/>
<circle cx="1538" cy="602" r="10" class="c0"/>
<circle cx="1682" cy="870" r="10" class="c0"/>
<circle cx="1682" cy="1086" r="10" class="c0"/>
<circle cx="1748" cy="880" r="10" class="c0"/>
<circle cx="1778" cy="994" r="10" class="c0"/>
<circle cx="1574" cy="798" r="10" class="c0"/>
<circle cx="1556" cy="980" r="10" class="c0"/>
<circle cx="1602" cy="994" r="10" class="c0"/>
<circle cx="1622" cy="804" r="10" class="c0"/>
<circle cx="1656" cy="526" r="10" class="c0"/>
<circle cx="1730" cy="914" r="10" class="c0"/>
<circle cx="1592" cy="814" r="10" class="c0"/>
<circle cx="1658" cy="706" r="10" class="c0"/>
<circle cx="1398" cy="712" r="10" class="c0"/>
<circle cx="1718" cy="754" r="10" class="c0"/>
<circle cx="1680" cy="1162" r="10" class="c0"/>
<circle cx="1138" cy="706" r="10" class="c0"/>
<circle cx="1596" cy="1128" r="10" class="c0"/>
<circle cx="1726" cy="884" r="10" class="c0"/>
<circle cx="1644" cy="960" r="10" class="c0"/>
<circle cx="1712" cy="940" r="10" class="c0"/>
<circle cx="1586" cy="844" r="10" class="c0"/>
<circle cx="1598" cy="1098" r="10" class="c0"/>
<circle cx="1532" cy="324" r="10" class="c0"/>
<circle cx="1450" cy="374" r="10" class="c0"/>
<circle cx="1712" cy="1070" r="10" class="c0"/>
<circle cx="1752" cy="1212" r="10" class="c0"/>
<circle cx="1570" cy="1048" r="10" class="c0"/>
<circle cx="1758" cy="1066" r="10" class="c0"/>
<circle cx="1622" cy="912" r="10" class="c0"/>
<circle cx="1546" cy="1012" r="10" class="c0"/>
<circle cx="1662" cy="780" r="10" class="c0"/>
<circle cx="1672" cy="1026" r="10" class="c0"/>
<circle cx="1554" cy="788" r="10" class="c0"/>
<circle cx="1682" cy="1382" r="10" class="c0"/>
<circle cx="1564" cy="616" r="10" class="c0"/>
<circle cx="1480" cy="1398" r="10" class="c0"/>
<circle cx="1400" cy="674" r="10" class="c0"/>
<circle cx="1700" cy="1034" r="10" class="c0"/>
<circle cx="1660" cy="1288" r="10" class="c0"/>
<circle cx="1536" cy="1174" r="10" class="c0"/>
<circle cx="1680" cy="1298" r="10" class="c0"/>
<circle cx="1498" cy="684" r="10" class="c0"/>
<circle cx="1638" cy="624" r="10" class="c0"/>
<circle cx="1700" cy="670" r="10" class="c0"/>
<circle cx="1680" cy="1002" r="10" class="c0"/>
<circle cx="1572" cy="884" r="10" class="c0"/>
<circle cx="1248" cy="682" r="10" class="c0"/>
<circle cx="1666" cy="652" r="10" class="c0"/>
<circle cx="1680" cy="694" r="10" class="c0"/>
<circle cx="1614" cy="682" r="10" class="c0"/>
<circle cx="1584" cy="1080" r="10" class="c0"/>
<circle cx="1542" cy="698" r="10" class="c0"/>
<circle cx="1222" cy="698" r="10" class="c0"/>
<circle cx="1498" cy="1250" r="10" class="c0"/>
<circle cx="1206" cy="668" r="10" class="c0"/>
<circle cx="1688" cy="714" r="10" class="c0"/>
<circle cx="1640" cy="828" r="10" class="c0"/>
<circle cx="1554" cy="732" r="10" class="c0"/>
<circle cx="1490" cy="1036" r="10" class="c0"/>
<circle cx="1116" cy="690" r="10" class="c0"/>
<circle cx="1726" cy="1208" r="10" class="c0"/>
<circle cx="1652" cy="870" r="10" class="c0"/>
<circle cx="1694" cy="814" r="10" class="c0"/>
<circle cx="1484" cy="1006" r="10" class="c0"/>
<circle cx="1740" cy="1126" r="10" class="c0"/>
<circle cx="1582" cy="742" r="10" class="c0"/>
<circle cx="1748" cy="1162" r="10" class="c0"/>
<circle cx="1332" cy="714" r="10" class="c0"/>
<circle cx="1636" cy="996" r="10" class="c0"/>
<circle cx="1668" cy="578" r="10" class="c0"/>
<circle cx="1748" cy="1100" r="10" class="c0"/>
<circle cx="1682" cy="1420" r="10" class="c0"/>
<circle cx="1598" cy="1068" r="10" class="c0"/>
<circle cx="1524" cy="1102" r="10" class="c0"/>
<circle cx="1444" cy="1426" r="10" class="c0"/>
<circle cx="1706" cy="906" r="10" class="c0"/>
<circle cx="1508" cy="728" r="10" class="c0"/>
<circle cx="1672" cy="1270" r="10" class="c0"/>
<circle cx="1426" cy="358" r="10" class="c0"/>
<circle cx="1650" cy="1120" r="10" class="c0"/>
<circle cx="1614" cy="466" r="10" class="c0"/>
<circle cx="1630" cy="564" r="10" class="c0"/>
<circle cx="1662" cy="930" r="10" class="c0"/>
<circle cx="1696" cy="1310" r="10" class="c0"/>
<circle cx="1656" cy="1326" r="10" class="c0"/>
<circle cx="1428" cy="686" r="10" class="c0"/>
<circle cx="1590" cy="866" r="10" class="c0"/>
<circle cx="986" cy="662" r="8" class="c0"/>
<circle cx="1742" cy="1194" r="8" class="c0"/>
<circle cx="1776" cy="1106" r="8" class="c0"/>
<circle cx="1708" cy="1176" r="8" class="c0"/>
<circle cx="1634" cy="1226" r="8" class="c0"/>
<circle cx="1664" cy="678" r="8" class="c0"/>
<circle cx="1734" cy="1070" r="8" class="c0"/>
<circle cx="1554" cy="328" r="8" class="c0"/>
<circle cx="1518" cy="1212" r="8" class="c0"/>
<circle cx="1680" cy="1186" r="8" class="c0"/>
<circle cx="1482" cy="404" r="8" class="c0"/>
<circle cx="1614" cy="1082" r="8" class="c0"/>
<circle cx="1604" cy="568" r="8" class="c0"/>
<circle cx="1618" cy="580" r="8" class="c0"/>
<circle cx="1658" cy="558" r="8" class="c0"/>
<circle cx="1604" cy="1170" r="8" class="c0"/>
<circle cx="1620" cy="1054" r="8" class="c0"/>
<circle cx="1576" cy="968" r="8" class="c0"/>
<circle cx="1506" cy="1226" r="8" class="c0"/>
<circle cx="1684" cy="1360" r="8" class="c0"/>
<circle cx="1700" cy="1000" r="8" class="c0"/>
<circle cx="1726" cy="984" r="8" class="c0"/>
<circle cx="1396" cy="732" r="8" class="c0"/>
<circle cx="1580" cy="536" r="8" class="c0"/>
<circle cx="1744" cy="1054" r="8" class="c0"/>
<circle cx="1640" cy="932" r="8" class="c0"/>
<circle cx="1484" cy="728" r="8" class="c0"/>
<circle cx="1722" cy="966" r="8" class="c0"/>
<circle cx="1526" cy="590" r="8" class="c0"/>
<circle cx="1648" cy="808" r="8" class="c0"/>
<circle cx="1664" cy="1360" r="8" class="c0"/>
<circle cx="1378" cy="710" r="8" class="c0"/>
<circle cx="1194" cy="700" r="8" class="c0"/>
<circle cx="1724" cy="1150" r="8" class="c0"/>
<circle cx="1664" cy="958" r="8" class="c0"/>
<circle cx="1548" cy="584" r="8" class="c0"/>
<circle cx="1534" cy="1224" r="8" class="c0"/>
<circle cx="1642" cy="650" r="8" class="c0"/>
<circle cx="1640" cy="792" r="8" class="c0"/>
<circle cx="1462" cy="1120" r="8" class="c0"/>
<circle cx="1564" cy="384" r="8" class="c0"/>
<circle cx="1608" cy="882" r="8" class="c0"/>
<circle cx="1502" cy="424" r="8" class="c0"/>
<circle cx="1646" cy="892" r="8" class="c0"/>
<circle cx="1500" cy="402" r="8" class="c0"/>
<circle cx="1702" cy="876" r="8" class="c0"/>
<circle cx="1726" cy="788" r="8" class="c0"/>
<circle cx="1748" cy="906" r="8" class="c0"/>
<circle cx="1558" cy="648" r="8" class="c0"/>
<circle cx="1758" cy="1146" r="8" class="c0"/>
<circle cx="1586" cy="944" r="8" class="c0"/>
<circle cx="1356" cy="700" r="8" class="c0"/>
<circle cx="1760" cy="968" r="8" class="c0"/>
<circle cx="1492" cy="1210" r="8" class="c0"/>
<circle cx="1098" cy="714" r="8" class="c0"/>
<circle cx="1586" cy="902" r="8" class="c0"/>
<circle cx="1692" cy="1114" r="8" class="c0"/>
<circle cx="1680" cy="1240" r="8" class="c0"/>
<circle cx="1522" cy="572" r="8" class="c0"/>
<circle cx="1642" cy="676" r="8" class="c0"/>
<circle cx="1532" cy="1072" r="8" class="c0"/>
<circle cx="1780" cy="1052" r="8" class="c0"/>
<circle cx="1582" cy="1194" r="8" class="c0"/>
<circle cx="1588" cy="1012" r="8" class="c0"/>
<circle cx="1390" cy="690" r="8" class="c0"/>
<circle cx="1550" cy="1070" r="8" class="c0"/>
<circle cx="1718" cy="1046" r="8" class="c0"/>
<circle cx="1644" cy="1020" r="8" class="c0"/>
<circle cx="1524" cy="1126" r="8" class="c0"/>
<circle cx="1700" cy="1198" r="8" class="c0"/>
<circle cx="1756" cy="938" r="8" class="c0"/>
<circle cx="1280" cy="710" r="8" class="c0"/>
<circle cx="1674" cy="820" r="8" class="c0"/>
<circle cx="1600" cy="766" r="8" class="c0"/>
<circle cx="1534" cy="1196" r="8" class="c0"/>
<circle cx="1298" cy="718" r="8" class="c0"/>
<circle cx="1560" cy="1148" r="8" class="c0"/>
<circle cx="1670" cy="1342" r="8" class="c0"/>
<circle cx="1566" cy="766" r="8" class="c0"/>
<circle cx="1576" cy="516" r="8" class="c0"/>
<circle cx="1604" cy="834" r="8" class="c0"/>
<circle cx="1632" cy="878" r="8" class="c0"/>
<circle cx="1710" cy="1102" r="8" class="c0"/>
<circle cx="1522" cy="784" r="8" class="c0"/>
<circle cx="1618" cy="552" r="8" class="c0"/>
<circle cx="1596" cy="634" r="8" class="c0"/>
<circle cx="1628" cy="728" r="8" class="c0"/>
<circle cx="1688" cy="972" r="8" class="c0"/>
<circle cx="1652" cy="1228" r="8" class="c0"/>
<circle cx="1304" cy="698" r="8" class="c0"/>
<circle cx="1322" cy="670" r="8" class="c0"/>
<circle cx="1754" cy="1016" r="8" class="c0"/>
<circle cx="1594" cy="512" r="8" class="c0"/>
<circle cx="954" cy="668" r="8" class="c0"/>
<circle cx="1684" cy="1324" r="8" class="c0"/>
<circle cx="1560" cy="568" r="8" class="c0"/>
<circle cx="1486" cy="702" r="8" class="c0"/>
<circle cx="1684" cy="614" r="8" class="c0"/>
<circle cx="1540" cy="538" r="8" class="c0"/>
<circle cx="1690" cy="894" r="8" class="c0"/>
<circle cx="1756" cy="860" r="8" class="c0"/>
<circle cx="1516" cy="394" r="8" class="c0"/>
<circle cx="1558" cy="1100" r="8" class="c0"/>
<circle cx="1736" cy="956" r="8" class="c0"/>
<circle cx="1516" cy="668" r="8" class="c0"/>
<circle cx="1538" cy="626" r="8" class="c0"/>
<circle cx="1338" cy="694" r="8" class="c0"/>
<circle cx="1612" cy="736" r="8" class="c0"/>
<circle cx="1514" cy="414" r="8" class="c0"/>
<circle cx="1670" cy="1058" r="8" class="c0"/>
<circle cx="1574" cy="1124" r="8" class="c0"/>
<circle cx="1728" cy="810" r="8" class="c0"/>
<circle cx="1542" cy="938" r="8" class="c0"/>
<circle cx="1172" cy="690" r="8" class="c0"/>
<circle cx="1552" cy="916" r="8" class="c0"/>
<circle cx="1628" cy="660" r="8" class="c0"/>
<circle cx="1660" cy="1154" r="8" class="c0"/>
<circle cx="1556" cy="354" r="8" class="c0"/>
<circle cx="1504" cy="1342" r="8" class="c0"/>
<circle cx="1530" cy="758" r="8" class="c0"/>
<circle cx="1500" cy="526" r="8" class="c0"/>
<circle cx="1770" cy="1088" r="8" class="c0"/>
<circle cx="1604" cy="488" r="8" class="c0"/>
<circle cx="1604" cy="966" r="8" class="c0"/>
<circle cx="1478" cy="678" r="8" class="c0"/>
<circle cx="1118" cy="664" r="8" class="c0"/>
<circle cx="1580" cy="776" r="8" class="c0"/>
<circle cx="1636" cy="856" r="8" class="c0"/>
<circle cx="1588" cy="1152" r="8" class="c0"/>
<circle cx="1676" cy="532" r="8" class="c0"/>
<circle cx="1536" cy="850" r="8" class="c0"/>
<circle cx="1716" cy="822" r="8" class="c0"/>
<circle cx="1664" cy="622" r="8" class="c0"/>
<circle cx="1522" cy="1234" r="8" class="c0"/>
<circle cx="1488" cy="384" r="8" class="c0"/>
<circle cx="1720" cy="1092" r="8" class="c0"/>
<circle cx="1758" cy="1042" r="8" class="c0"/>
<circle cx="1658" cy="1094" r="8" class="c0"/>
<circle cx="1614" cy="754" r="8" class="c0"/>
<circle cx="1682" cy="550" r="8" class="c0"/>
<circle cx="1696" cy="744" r="8" class="c0"/>
<circle cx="1620" cy="986" r="8" class="c0"/>
<circle cx="1686" cy="586" r="8" class="c0"/>
<circle cx="1638" cy="1162" r="8" class="c0"/>
<circle cx="1574" cy="822" r="8" class="c0"/>
<circle cx="1454" cy="1362" r="8" class="c0"/>
<circle cx="1590" cy="472" r="8" class="c0"/>
<circle cx="1592" cy="690" r="8" class="c0"/>
<circle cx="1768" cy="876" r="8" class="c0"/>
<circle cx="1608" cy="924" r="8" class="c0"/>
<circle cx="1630" cy="1134" r="8" class="c0"/>
<circle cx="1560" cy="684" r="8" class="c0"/>
<circle cx="1542" cy="1152" r="8" class="c0"/>
<circle cx="1648" cy="1076" r="8" class="c0"/>
<circle cx="1452" cy="688" r="8" class="c0"/>
<circle cx="1494" cy="1090" r="8" class="c0"/>
<circle cx="1786" cy="1032" r="8" class="c0"/>
<circle cx="1584" cy="712" r="8" class="c0"/>
<circle cx="1540" cy="776" r="8" class="c0"/>
<circle cx="1510" cy="1262" r="8" class="c0"/>
<circle cx="1576" cy="452" r="8" class="c0"/>
<circle cx="1408" cy="692" r="8" class="c0"/>
<circle cx="1512" cy="498" r="8" class="c0"/>
<circle cx="1464" cy="1408" r="8" class="c0"/>
<circle cx="1666" cy="1310" r="8" class="c0"/>
<circle cx="1504" cy="1320" r="8" class="c0"/>
<circle cx="1256" cy="718" r="8" class="c0"/>
<circle cx="1590" cy="1034" r="8" class="c0"/>
<circle cx="1290" cy="682" r="8" class="c0"/>
<circle cx="1646" cy="1266" r="8" class="c0"/>
<circle cx="1512" cy="546" r="8" class="c0"/>
<circle cx="1544" cy="556" r="8" class="c0"/>
<circle cx="1778" cy="940" r="8" class="c0"/>
<circle cx="1540" cy="804" r="8" class="c0"/>
<circle cx="1680" cy="768" r="8" class="c0"/>
<circle cx="1650" cy="758" r="8" class="c0"/>
<circle cx="1710" cy="976" r="8" class="c0"/>
<circle cx="1590" cy="354" r="8" class="c0"/>
<circle cx="1454" cy="1144" r="8" class="c0"/>
<circle cx="1668" cy="802" r="8" class="c0"/>
<circle cx="1528" cy="526" r="8" class="c0"/>
<circle cx="1368" cy="720" r="8" class="c0"/>
<circle cx="1266" cy="698" r="8" class="c0"/>
<circle cx="1570" cy="1026" r="8" class="c0"/>
<circle cx="1504" cy="1012" r="8" class="c0"/>
<circle cx="1712" cy="730" r="8" class="c0"/>
<circle cx="1486" cy="1298" r="8" class="c0"/>
<circle cx="1712" cy="656" r="8" class="c0"/>
<circle cx="1752" cy="838" r="8" class="c0"/>
<circle cx="1078" cy="690" r="8" class="c0"/>
<circle cx="1558" cy="544" r="8" class="c0"/>
<circle cx="1550" cy="474" r="8" class="c0"/>
<circle cx="1578" cy="422" r="8" class="c0"/>
<circle cx="1496" cy="1272" r="8" class="c0"/>
<circle cx="1474" cy="1280" r="8" class="c0"/>
<circle cx="1790" cy="1118" r="8" class="c0"/>
<circle cx="1766" cy="1174" r="8" class="c0"/>
<circle cx="930" cy="668" r="8" class="c0"/>
<circle cx="1524" cy="686" r="8" class="c0"/>
<circle cx="1548" cy="956" r="8" class="c0"/>
<circle cx="1648" cy="508" r="8" class="c0"/>
<circle cx="1734" cy="772" r="8" class="c0"/>
<circle cx="1686" cy="1066" r="8" class="c0"/>
<circle cx="1642" cy="1340" r="8" class="c0"/>
<circle cx="1502" cy="1364" r="8" class="c0"/>
<circle cx="1474" cy="716" r="8" class="c0"/>
<circle cx="1174" cy="668" r="8" class="c0"/>
<circle cx="1510" cy="704" r="8" class="c0"/>
<circle cx="1750" cy="820" r="8" class="c0"/>
<circle cx="1544" cy="1044" r="8" class="c0"/>
<circle cx="1512" cy="1046" r="8" class="c0"/>
<circle cx="1238" cy="714" r="8" class="c0"/>
<circle cx="1694" cy="604" r="8" class="c0"/>
<circle cx="1568" cy="952" r="8" class="c0"/>
<circle cx="1460" cy="1380" r="8" class="c0"/>
<circle cx="1440" cy="674" r="8" class="c0"/>
<circle cx="1698" cy="962" r="8" class="c0"/>
<circle cx="1206" cy="716" r="8" class="c0"/>
<circle cx="1470" cy="376" r="8" class="c0"/>
<circle cx="1728" cy="1172" r="8" class="c0"/>
<circle cx="1544" cy="900" r="8" class="c0"/>
<circle cx="1570" cy="470" r="8" class="c0"/>
<circle cx="1632" cy="702" r="8" class="c0"/>
<circle cx="1460" cy="732" r="8" class="c0"/>
<circle cx="1522" cy="488" r="8" class="c0"/>
<circle cx="1498" cy="1386" r="8" class="c0"/>
<circle cx="1582" cy="988" r="8" class="c0"/>
<circle cx="1652" cy="640" r="8" class="c0"/>
<circle cx="1576" cy="374" r="8" class="c0"/>
<circle cx="1376" cy="670" r="8" class="c0"/>
<circle cx="1466" cy="700" r="8" class="c0"/>
<circle cx="1552" cy="1194" r="8" class="c0"/>
<circle cx="1696" cy="1148" r="8" class="c0"/>
<circle cx="1488" cy="508" r="8" class="c0"/>
<circle cx="1566" cy="708" r="8" class="c0"/>
<circle cx="1584" cy="562" r="8" class="c0"/>
<circle cx="1634" cy="1426" r="8" class="c0"/>
<circle cx="1476" cy="1132" r="8" class="c0"/>
<circle cx="1730" cy="736" r="8" class="c0"/>
<circle cx="1770" cy="904" r="8" class="c0"/>
<circle cx="1618" cy="824" r="8" class="c0"/>
<circle cx="1452" cy="710" r="8" class="c0"/>
<circle cx="1660" cy="1040" r="8" class="c0"/>
<circle cx="1538" cy="344" r="8" class="c0"/>
<circle cx="1764" cy="1116" r="8" class="c0"/>
<circle cx="1516" cy="1064" r="8" class="c0"/>
<circle cx="1630" cy="746" r="8" class="c0"/>
<circle cx="1714" cy="682" r="8" class="c0"/>
<circle cx="1774" cy="1022" r="8" class="c0"/>
<circle cx="1684" cy="918" r="8" class="c0"/>
<circle cx="1518" cy="1354" r="8" class="c0"/>
<circle cx="1594" cy="730" r="8" class="c0"/>
<circle cx="1790" cy="954" r="8" class="c0"/>
<circle cx="1542" cy="1086" r="8" class="c0"/>
<circle cx="1700" cy="1352" r="8" class="c0"/>
<circle cx="972" cy="672" r="8" class="c0"/>
<circle cx="1662" cy="1248" r="8" class="c0"/>
<circle cx="1422" cy="706" r="8" class="c0"/>
<circle cx="1718" cy="866" r="8" class="c0"/>
<circle cx="1528" cy="1054" r="8" class="c0"/>
<circle cx="1482" cy="1232" r="8" class="c0"/>
<circle cx="1668" cy="514" r="8" class="c0"/>
<circle cx="1562" cy="440" r="8" class="c0"/>
<circle cx="1732" cy="934" r="8" class="c0"/>
<circle cx="1690" cy="654" r="8" class="c0"/>
<circle cx="1498" cy="1072" r="8" class="c0"/>
<circle cx="1518" cy="312" r="8" class="c0"/>
<circle cx="1714" cy="1248" r="8" class="c0"/>
<circle cx="1548" cy="874" r="8" class="c0"/>
<circle cx="1668" cy="1112" r="8" class="c0"/>
<circle cx="1548" cy="834" r="8" class="c0"/>
<circle cx="1708" cy="568" r="8" class="c0"/>
<circle cx="1662" cy="496" r="8" class="c0"/>
<circle cx="1556" cy="1264" r="8" class="c0"/>
<circle cx="1320" cy="688" r="8" class="c0"/>
<circle cx="1474" cy="1420" r="8" class="c0"/>
<circle cx="1062" cy="670" r="8" class="c0"/>
<circle cx="1414" cy="736" r="8" class="c0"/>
<circle cx="1590" cy="788" r="8" class="c0"/>
<circle cx="1702" cy="702" r="8" class="c0"/>
<circle cx="1664" cy="882" r="8" class="c0"/>
<circle cx="1650" cy="1414" r="8" class="c0"/>
<circle cx="1566" cy="904" r="8" class="c0"/>
<circle cx="1572" cy="336" r="8" class="c0"/>
<circle cx="1744" cy="1080" r="8" class="c0"/>
<circle cx="1554" cy="522" r="8" class="c0"/>
<circle cx="1518" cy="344" r="8" class="c0"/>
<circle cx="1562" cy="596" r="8" class="c0"/>
<circle cx="1696" cy="928" r="8" class="c0"/>
<circle cx="1522" cy="740" r="8" class="c0"/>
<circle cx="1506" cy="1162" r="8" class="c0"/>
<circle cx="1498" cy="590" r="8" class="c0"/>
<circle cx="1614" cy="1008" r="8" class="c0"/>
<circle cx="1654" cy="1376" r="8" class="c0"/>
<circle cx="1552" cy="456" r="8" class="c0"/>
<circle cx="1232" cy="670" r="8" class="c0"/>
<circle cx="1632" cy="1068" r="8" class="c0"/>
<circle cx="1632" cy="976" r="8" class="c0"/>
<circle cx="1480" cy="1102" r="8" class="c0"/>
<circle cx="1648" cy="1202" r="8" class="c0"/>
<circle cx="1430" cy="386" r="8" class="c0"/>
<circle cx="1778" cy="1146" r="8" class="c0"/>
<circle cx="1184" cy="680" r="8" class="c0"/>
<circle cx="1644" cy="1144" r="8" class="c0"/>
<circle cx="1564" cy="1246" r="8" class="c0"/>
<circle cx="1554" cy="1034" r="8" class="c0"/>
<circle cx="1688" cy="502" r="8" class="c0"/>
<circle cx="1510" cy="1114" r="8" class="c0"/>
<circle cx="1550" cy="752" r="8" class="c0"/>
<circle cx="1642" cy="716" r="8" class="c0"/>
<circle cx="1692" cy="1250" r="8" class="c0"/>
<circle cx="1664" cy="1430" r="8" class="c0"/>
<circle cx="1512" cy="602" r="8" class="c0"/>
<circle cx="1498" cy="1414" r="8" class="c0"/>
<circle cx="1516" cy="1330" r="8" class="c0"/>
<circle cx="1634" cy="1044" r="8" class="c0"/>
<circle cx="1746" cy="924" r="8" class="c0"/>
<circle cx="1372" cy="692" r="8" class="c0"/>
<circle cx="1512" cy="1084" r="8" class="c0"/>
<circle cx="1682" cy="1046" r="8" class="c0"/>
<circle cx="1702" cy="624" r="8" class="c0"/>
<circle cx="942" cy="658" r="8" class="c0"/>
<circle cx="1532" cy="916" r="8" class="c0"/>
<circle cx="1640" cy="1286" r="8" class="c0"/>
<circle cx="1580" cy="404" r="8" class="c0"/>
<circle cx="1558" cy="666" r="6" class="c0"/>
<circle cx="1732" cy="1108" r="6" class="c0"/>
<circle cx="1574" cy="726" r="6" class="c0"/>
<circle cx="1566" cy="998" r="6" class="c0"/>
<circle cx="1680" cy="664" r="6" class="c0"/>
<circle cx="1714" cy="774" r="6" class="c0"/>
<circle cx="1568" cy="1204" r="6" class="c0"/>
<circle cx="1780" cy="918" r="6" class="c0"/>
<circle cx="1638" cy="1186" r="6" class="c0"/>
<circle cx="1532" cy="1326" r="6" class="c0"/>
<circle cx="996" cy="674" r="6" class="c0"/>
<circle cx="1658" cy="1010" r="6" class="c0"/>
<circle cx="1352" cy="724" r="6" class="c0"/>
<circle cx="906" cy="668" r="6" class="c0"/>
<circle cx="1666" cy="858" r="6" class="c0"/>
<circle cx="1436" cy="344" r="6" class="c0"/>
<circle cx="1128" cy="676" r="6" class="c0"/>
<circle cx="1680" cy="730" r="6" class="c0"/>
<circle cx="1678" cy="750" r="6" class="c0"/>
<circle cx="1574" cy="1094" r="6" class="c0"/>
<circle cx="1528" cy="1008" r="6" class="c0"/>
<circle cx="1594" cy="1180" r="6" class="c0"/>
<circle cx="1300" cy="664" r="6" class="c0"/>
<circle cx="1210" cy="686" r="6" class="c0"/>
<circle cx="1540" cy="992" r="6" class="c0"/>
<circle cx="1498" cy="714" r="6" class="c0"/>
<circle cx="1768" cy="926" r="6" class="c0"/>
<circle cx="1668" cy="1410" r="6" class="c0"/>
<circle cx="1608" cy="1114" r="6" class="c0"/>
<circle cx="1480" cy="550" r="6" class="c0"/>
<circle cx="1698" cy="1400" r="6" class="c0"/>
<circle cx="1544" cy="1108" r="6" class="c0"/>
<circle cx="1560" cy="808" r="6" class="c0"/>
<circle cx="1648" cy="570" r="6" class="c0"/>
<circle cx="1340" cy="668" r="6" class="c0"/>
<circle cx="1510" cy="516" r="6" class="c0"/>
<circle cx="1670" cy="718" r="6" class="c0"/>
<circle cx="1104" cy="676" r="6" class="c0"/>
<circle cx="1546" cy="430" r="6" class="c0"/>
<circle cx="1756" cy="1184" r="6" class="c0"/>
<circle cx="1602" cy="1190" r="6" class="c0"/>
<circle cx="1646" cy="692" r="6" class="c0"/>
<circle cx="1150" cy="662" r="6" class="c0"/>
<circle cx="1458" cy="392" r="6" class="c0"/>
<circle cx="1454" cy="1170" r="6" class="c0"/>
<circle cx="1692" cy="1018" r="6" class="c0"/>
<circle cx="1602" cy="906" r="6" class="c0"/>
<circle cx="1700" cy="762" r="6" class="c0"/>
<circle cx="1578" cy="1222" r="6" class="c0"/>
<circle cx="1666" cy="600" r="6" class="c0"/>
<circle cx="1636" cy="1306" r="6" class="c0"/>
<circle cx="1004" cy="664" r="6" class="c0"/>
<circle cx="1710" cy="1286" r="6" class="c0"/>
<circle cx="1606" cy="1046" r="6" class="c0"/>
<circle cx="1094" cy="696" r="6" class="c0"/>
<circle cx="1772" cy="958" r="6" class="c0"/>
<circle cx="1566" cy="1072" r="6" class="c0"/>
<circle cx="1616" cy="498" r="6" class="c0"/>
<circle cx="878" cy="664" r="6" class="c0"/>
<circle cx="1620" cy="596" r="6" class="c0"/>
<circle cx="1710" cy="1160" r="6" class="c0"/>
<circle cx="1650" cy="942" r="6" class="c0"/>
<circle cx="1626" cy="838" r="6" class="c0"/>
<circle cx="1554" cy="1178" r="6" class="c0"/>
<circle cx="1486" cy="1180" r="6" class="c0"/>
<circle cx="1712" cy="802" r="6" class="c0"/>
<circle cx="1608" cy="664" r="6" class="c0"/>
<circle cx="1248" cy="704" r="6" class="c0"/>
<circle cx="1522" cy="1158" r="6" class="c0"/>
<circle cx="1578" cy="604" r="6" class="c0"/>
<circle cx="1588" cy="1050" r="6" class="c0"/>
<circle cx="1738" cy="866" r="6" class="c0"/>
<circle cx="1654" cy="666" r="6" class="c0"/>
<circle cx="1784" cy="976" r="6" class="c0"/>
<circle cx="1516" cy="436" r="6" class="c0"/>
<circle cx="1526" cy="614" r="6" class="c0"/>
<circle cx="1774" cy="1130" r="6" class="c0"/>
<circle cx="1692" cy="1230" r="6" class="c0"/>
<circle cx="1760" cy="1000" r="6" class="c0"/>
<circle cx="1444" cy="354" r="6" class="c0"/>
<circle cx="1576" cy="692" r="6" class="c0"/>
<circle cx="1758" cy="770" r="6" class="c0"/>
<circle cx="1668" cy="1074" r="6" class="c0"/>
<circle cx="1694" cy="532" r="6" class="c0"/>
<circle cx="1524" cy="426" r="6" class="c0"/>
<circle cx="1584" cy="618" r="6" class="c0"/>
<circle cx="1590" cy="392" r="6" class="c0"/>
<circle cx="1716" cy="994" r="6" class="c0"/>
<circle cx="1466" cy="354" r="6" class="c0"/>
<circle cx="1462" cy="676" r="6" class="c0"/>
<circle cx="1614" cy="1132" r="6" class="c0"/>
<circle cx="1786" cy="1168" r="6" class="c0"/>
<circle cx="1520" cy="1250" r="6" class="c0"/>
<circle cx="1720" cy="1190" r="6" class="c0"/>
<circle cx="1598" cy="656" r="6" class="c0"/>
<circle cx="1536" cy="438" r="6" class="c0"/>
<circle cx="1582" cy="1110" r="6" class="c0"/>
<circle cx="1584" cy="492" r="6" class="c0"/>
<circle cx="1712" cy="1016" r="6" class="c0"/>
<circle cx="1666" cy="544" r="6" class="c0"/>
<circle cx="1530" cy="1142" r="6" class="c0"/>
<circle cx="1522" cy="932" r="6" class="c0"/>
<circle cx="1590" cy="436" r="6" class="c0"/>
<circle cx="1402" cy="358" r="6" class="c0"/>
<circle cx="1114" cy="716" r="6" class="c0"/>
<circle cx="1642" cy="1250" r="6" class="c0"/>
<circle cx="1526" cy="1268" r="6" class="c0"/>
<circle cx="1422" cy="1426" r="6" class="c0"/>
<circle cx="1782" cy="1072" r="6" class="c0"/>
<circle cx="1316" cy="724" r="6" class="c0"/>
<circle cx="1698" cy="1432" r="6" class="c0"/>
<circle cx="1702" cy="1054" r="6" class="c0"/>
<circle cx="1474" cy="740" r="6" class="c0"/>
<circle cx="1554" cy="632" r="6" class="c0"/>
<circle cx="1500" cy="1288" r="6" class="c0"/>
<circle cx="1538" cy="486" r="6" class="c0"/>
<circle cx="1672" cy="974" r="6" class="c0"/>
<circle cx="1138" cy="668" r="6" class="c0"/>
<circle cx="1646" cy="846" r="6" class="c0"/>
<circle cx="1610" cy="898" r="6" class="c0"/>
<circle cx="1090" cy="680" r="6" class="c0"/>
<circle cx="1592" cy="976" r="6" class="c0"/>
<circle cx="1224" cy="724" r="6" class="c0"/>
<circle cx="1508" cy="1202" r="6" class="c0"/>
<circle cx="862" cy="666" r="6" class="c0"/>
<circle cx="1494" cy="738" r="6" class="c0"/>
<circle cx="1576" cy="1140" r="6" class="c0"/>
<circle cx="1524" cy="866" r="6" class="c0"/>
<circle cx="1628" cy="604" r="6" class="c0"/>
<circle cx="1738" cy="972" r="6" class="c0"/>
<circle cx="1524" cy="556" r="6" class="c0"/>
<circle cx="1700" cy="1082" r="6" class="c0"/>
<circle cx="1650" cy="1308" r="6" class="c0"/>
<circle cx="1626" cy="894" r="6" class="c0"/>
<circle cx="1466" cy="1296" r="6" class="c0"/>
<circle cx="892" cy="672" r="6" class="c0"/>
<circle cx="1620" cy="626" r="6" class="c0"/>
<circle cx="1442" cy="1344" r="6" class="c0"/>
<circle cx="1438" cy="702" r="6" class="c0"/>
<circle cx="1534" cy="820" r="6" class="c0"/>
<circle cx="1380" cy="730" r="6" class="c0"/>
<circle cx="1488" cy="540" r="6" class="c0"/>
<circle cx="1772" cy="816" r="6" class="c0"/>
<circle cx="1684" cy="1402" r="6" class="c0"/>
<circle cx="1546" cy="1288" r="6" class="c0"/>
<circle cx="1428" cy="1412" r="6" class="c0"/>
<circle cx="1306" cy="680" r="6" class="c0"/>
<circle cx="1690" cy="570" r="6" class="c0"/>
<circle cx="1622" cy="964" r="6" class="c0"/>
<circle cx="1616" cy="1100" r="6" class="c0"/>
<circle cx="1530" cy="952" r="6" class="c0"/>
<circle cx="1314" cy="710" r="6" class="c0"/>
<circle cx="1416" cy="344" r="6" class="c0"/>
<circle cx="1528" cy="302" r="6" class="c0"/>
<circle cx="1506" cy="1028" r="6" class="c0"/>
<circle cx="1620" cy="1216" r="6" class="c0"/>
<circle cx="1570" cy="578" r="6" class="c0"/>
<circle cx="1190" cy="720" r="6" class="c0"/>
<circle cx="1594" cy="552" r="6" class="c0"/>
<circle cx="1702" cy="550" r="6" class="c0"/>
<circle cx="1604" cy="802" r="6" class="c0"/>
<circle cx="1764" cy="828" r="6" class="c0"/>
<circle cx="1594" cy="916" r="6" class="c0"/>
<circle cx="1540" cy="742" r="6" class="c0"/>
<circle cx="1572" cy="552" r="6" class="c0"/>
<circle cx="1640" cy="908" r="6" class="c0"/>
<circle cx="1544" cy="364" r="6" class="c0"/>
<circle cx="1666" cy="760" r="6" class="c0"/>
<circle cx="1634" cy="582" r="6" class="c0"/>
<circle cx="1764" cy="1192" r="6" class="c0"/>
<circle cx="1664" cy="1194" r="6" class="c0"/>
<circle cx="1036" cy="668" r="6" class="c0"/>
<circle cx="1738" cy="800" r="6" class="c0"/>
<circle cx="1700" cy="1216" r="6" class="c0"/>
<circle cx="1598" cy="750" r="6" class="c0"/>
<circle cx="1478" cy="1380" r="6" class="c0"/>
<circle cx="1674" cy="892" r="6" class="c0"/>
<circle cx="1702" cy="642" r="6" class="c0"/>
<circle cx="1564" cy="414" r="6" class="c0"/>
<circle cx="1540" cy="1302" r="6" class="c0"/>
<circle cx="1464" cy="1312" r="6" class="c0"/>
<circle cx="1486" cy="1262" r="6" class="c0"/>
<circle cx="1498" cy="322" r="6" class="c0"/>
<circle cx="1740" cy="1146" r="6" class="c0"/>
<circle cx="1598" cy="934" r="6" class="c0"/>
<circle cx="1598" cy="892" r="6" class="c0"/>
<circle cx="1608" cy="1210" r="6" class="c0"/>
<circle cx="1732" cy="826" r="6" class="c0"/>
<circle cx="1694" cy="1334" r="6" class="c0"/>
<circle cx="1432" cy="1154" r="6" class="c0"/>
<circle cx="1512" cy="582" r="6" class="c0"/>
<circle cx="1770" cy="978" r="6" class="c0"/>
<circle cx="1720" cy="710" r="6" class="c0"/>
<circle cx="1694" cy="1132" r="6" class="c0"/>
<circle cx="1536" cy="384" r="6" class="c0"/>
<circle cx="1772" cy="846" r="6" class="c0"/>
<circle cx="1708" cy="1372" r="6" class="c0"/>
<circle cx="1452" cy="1326" r="6" class="c0"/>
<circle cx="1640" cy="1360" r="6" class="c0"/>
<circle cx="1468" cy="1174" r="6" class="c0"/>
<circle cx="1684" cy="800" r="6" class="c0"/>
<circle cx="1418" cy="672" r="6" class="c0"/>
<circle cx="1542" cy="1272" r="6" class="c0"/>
<circle cx="1524" cy="638" r="6" class="c0"/>
<circle cx="1550" cy="714" r="6" class="c0"/>
<circle cx="1080" cy="672" r="6" class="c0"/>
<circle cx="1690" cy="1176" r="6" class="c0"/>
<circle cx="1738" cy="896" r="6" class="c0"/>
<circle cx="1448" cy="1304" r="6" class="c0"/>
<circle cx="1464" cy="1430" r="6" class="c0"/>
<circle cx="1496" cy="1054" r="6" class="c0"/>
<circle cx="1542" cy="642" r="6" class="c0"/>
<circle cx="1540" cy="414" r="6" class="c0"/>
<circle cx="1580" cy="1062" r="6" class="c0"/>
<circle cx="1542" cy="1210" r="6" class="c0"/>
<circle cx="1250" cy="664" r="6" class="c0"/>
<circle cx="1496" cy="1106" r="6" class="c0"/>
<circle cx="1534" cy="1116" r="6" class="c0"/>
<circle cx="1474" cy="534" r="6" class="c0"/>
<circle cx="1706" cy="1328" r="6" class="c0"/>
<circle cx="1150" cy="720" r="6" class="c0"/>
<circle cx="1514" cy="1378" r="6" class="c0"/>
<circle cx="1644" cy="732" r="6" class="c0"/>
<circle cx="1708" cy="854" r="6" class="c0"/>
<circle cx="970" cy="656" r="6" class="c0"/>
<circle cx="1712" cy="602" r="6" class="c0"/>
<circle cx="1482" cy="578" r="6" class="c0"/>
<circle cx="1472" cy="394" r="6" class="c0"/>
<circle cx="1552" cy="816" r="6" class="c0"/>
<circle cx="1462" cy="1160" r="6" class="c0"/>
</svg>
