<?xml version="1.0" encoding="utf-8"?>
<svg xmlns="http://www.w3.org/2000/svg"
     xmlns:xlink="http://www.w3.org/1999/xlink" width="1920" height="1440" >

            <defs>
            <style type="text/css"><![CDATA[
circle {stroke: none;}
.c0 {fill: #FFFFFF;}
]]></style>
            </defs>
<rect x="0" y="0" width="1920" height="1440" fill="black"/>
<circle cx="1880" cy="694" r="14" class="c0"/>
<circle cx="1858" cy="716" r="12" class="c0"/>
<circle cx="1716" cy="620" r="12" class="c0"/>
<circle cx="1230" cy="668" r="12" class="c0"/>
<circle cx="86" cy="1164" r="12" class="c0"/>
<circle cx="382" cy="668" r="12" class="c0"/>
<circle cx="1800" cy="748" r="12" class="c0"/>
<circle cx="76" cy="1060" r="12" class="c0"/>
<circle cx="1792" cy="720" r="12" class="c0"/>
<circle cx="1736" cy="666" r="12" class="c0"/>
<circle cx="1902" cy="1318" r="12" class="c0"/>
<circle cx="1712" cy="648" r="12" class="c0"/>
<circle cx="1690" cy="594" r="12" class="c0"/>
<circle cx="270" cy="664" r="12" class="c0"/>
<circle cx="1878" cy="1406" r="12" class="c0"/>
<circle cx="1876" cy="732" r="12" class="c0"/>
<circle cx="954" cy="660" r="10" class="c0"/>
<circle cx="314" cy="670" r="10" class="c0"/>
<circle cx="1386" cy="666" r="10" class="c0"/>
<circle cx="160" cy="668" r="10" class="c0"/>
<circle cx="60" cy="1038" r="10" class="c0"/>
<circle cx="12" cy="876" r="10" class="c0"/>
<circle cx="1708" cy="576" r="10" class="c0"/>
<circle cx="234" cy="664" r="10" class="c0"/>
<circle cx="38" cy="1056" r="10" class="c0"/>
<circle cx="916" cy="664" r="10" class="c0"/>
<circle cx="60" cy="1212" r="10" class="c0"/>
<circle cx="1816" cy="714" r="10" class="c0"/>
<circle cx="1896" cy="1386" r="10" class="c0"/>
<circle cx="1716" cy="712" r="10" class="c0"/>
<circle cx="840" cy="664" r="10" class="c0"/>
<circle cx="16" cy="980" r="10" class="c0"/>
<circle cx="1778" cy="698" r="10" class="c0"/>
<circle cx="1200" cy="670" r="10" class="c0"/>
<circle cx="798" cy="666" r="10" class="c0"/>
<circle cx="1680" cy="624" r="10" class="c0"/>
<circle cx="1656" cy="568" r="10" class="c0"/>
<circle cx="482" cy="670" r="10" class="c0"/>
<circle cx="18" cy="954" r="10" class="c0"/>
<circle cx="548" cy="670" r="10" class="c0"/>
<circle cx="886" cy="662" r="10" class="c0"/>
<circle cx="74" cy="1096" r="10" class="c0"/>
<circle cx="60" cy="1138" r="10" class="c0"/>
<circle cx="1738" cy="702" r="10" class="c0"/>
<circle cx="74" cy="982" r="10" class="c0"/>
<circle cx="94" cy="1080" r="10" class="c0"/>
<circle cx="1848" cy="696" r="10" class="c0"/>
<circle cx="22" cy="1132" r="10" class="c0"/>
<circle cx="42" cy="960" r="10" class="c0"/>
<circle cx="110" cy="668" r="10" class="c0"/>
<circle cx="1134" cy="670" r="10" class="c0"/>
<circle cx="1834" cy="728" r="10" class="c0"/>
<circle cx="1700" cy="552" r="10" class="c0"/>
<circle cx="680" cy="662" r="10" class="c0"/>
<circle cx="136" cy="662" r="10" class="c0"/>
<circle cx="106" cy="1056" r="10" class="c0"/>
<circle cx="1720" cy="594" r="10" class="c0"/>
<circle cx="52" cy="1068" r="10" class="c0"/>
<circle cx="1764" cy="730" r="10" class="c0"/>
<circle cx="92" cy="1138" r="10" class="c0"/>
<circle cx="722" cy="662" r="8" class="c0"/>
<circle cx="198" cy="662" r="8" class="c0"/>
<circle cx="1712" cy="536" r="8" class="c0"/>
<circle cx="64" cy="1188" r="8" class="c0"/>
<circle cx="34" cy="1108" r="8" class="c0"/>
<circle cx="38" cy="1154" r="8" class="c0"/>
<circle cx="86" cy="1034" r="8" class="c0"/>
<circle cx="1886" cy="330" r="8" class="c0"/>
<circle cx="406" cy="658" r="8" class="c0"/>
<circle cx="1726" cy="690" r="8" class="c0"/>
<circle cx="64" cy="1116" r="8" class="c0"/>
<circle cx="1364" cy="660" r="8" class="c0"/>
<circle cx="38" cy="1198" r="8" class="c0"/>
<circle cx="16" cy="1024" r="8" class="c0"/>
<circle cx="46" cy="1000" r="8" class="c0"/>
<circle cx="1002" cy="672" r="8" class="c0"/>
<circle cx="1894" cy="1364" r="8" class="c0"/>
<circle cx="976" cy="670" r="8" class="c0"/>
<circle cx="64" cy="660" r="8" class="c0"/>
<circle cx="660" cy="670" r="8" class="c0"/>
<circle cx="1050" cy="660" r="8" class="c0"/>
<circle cx="1746" cy="684" r="8" class="c0"/>
<circle cx="1170" cy="664" r="8" class="c0"/>
<circle cx="82" cy="664" r="8" class="c0"/>
<circle cx="1822" cy="692" r="8" class="c0"/>
<circle cx="1910" cy="348" r="8" class="c0"/>
<circle cx="614" cy="658" r="8" class="c0"/>
<circle cx="1112" cy="670" r="8" class="c0"/>
<circle cx="1890" cy="1430" r="8" class="c0"/>
<circle cx="534" cy="658" r="8" class="c0"/>
<circle cx="778" cy="662" r="8" class="c0"/>
<circle cx="16" cy="932" r="8" class="c0"/>
<circle cx="1676" cy="512" r="8" class="c0"/>
<circle cx="1078" cy="664" r="8" class="c0"/>
<circle cx="1902" cy="702" r="8" class="c0"/>
<circle cx="1686" cy="532" r="8" class="c0"/>
<circle cx="864" cy="672" r="8" class="c0"/>
<circle cx="94" cy="1196" r="8" class="c0"/>
<circle cx="94" cy="1114" r="8" class="c0"/>
<circle cx="588" cy="662" r="8" class="c0"/>
<circle cx="14" cy="658" r="8" class="c0"/>
<circle cx="106" cy="1100" r="8" class="c0"/>
<circle cx="100" cy="1178" r="8" class="c0"/>
<circle cx="1884" cy="1350" r="8" class="c0"/>
<circle cx="38" cy="666" r="8" class="c0"/>
<circle cx="634" cy="664" r="8" class="c0"/>
<circle cx="1018" cy="658" r="8" class="c0"/>
<circle cx="60" cy="1010" r="8" class="c0"/>
<circle cx="48" cy="1174" r="8" class="c0"/>
<circle cx="1296" cy="670" r="8" class="c0"/>
<circle cx="10" cy="1080" r="8" class="c0"/>
<circle cx="88" cy="1014" r="8" class="c0"/>
<circle cx="1890" cy="716" r="8" class="c0"/>
<circle cx="1750" cy="620" r="8" class="c0"/>
<circle cx="1868" cy="1430" r="8" class="c0"/>
<circle cx="360" cy="660" r="8" class="c0"/>
<circle cx="16" cy="908" r="8" class="c0"/>
<circle cx="56" cy="990" r="8" class="c0"/>
<circle cx="454" cy="658" r="8" class="c0"/>
<circle cx="1694" cy="660" r="8" class="c0"/>
<circle cx="1254" cy="662" r="8" class="c0"/>
<circle cx="1406" cy="674" r="8" class="c0"/>
<circle cx="1668" cy="542" r="8" class="c0"/>
<circle cx="760" cy="660" r="8" class="c0"/>
<circle cx="702" cy="664" r="8" class="c0"/>
<circle cx="1902" cy="730" r="8" class="c0"/>
<circle cx="1340" cy="662" r="8" class="c0"/>
<circle cx="8" cy="1042" r="8" class="c0"/>
<circle cx="40" cy="1022" r="8" class="c0"/>
<circle cx="1320" cy="664" r="8" class="c0"/>
<circle cx="1858" cy="1420" r="8" class="c0"/>
<circle cx="1680" cy="566" r="8" class="c0"/>
<circle cx="1820" cy="740" r="8" class="c0"/>
<circle cx="1878" cy="1328" r="8" class="c0"/>
<circle cx="1906" cy="1292" r="8" class="c0"/>
<circle cx="1730" cy="724" r="8" class="c0"/>
<circle cx="1746" cy="742" r="8" class="c0"/>
<circle cx="1838" cy="752" r="8" class="c0"/>
<circle cx="46" cy="1126" r="8" class="c0"/>
<circle cx="434" cy="664" r="8" class="c0"/>
<circle cx="36" cy="982" r="8" class="c0"/>
<circle cx="570" cy="670" r="8" class="c0"/>
<circle cx="1902" cy="1144" r="8" class="c0"/>
<circle cx="1848" cy="742" r="8" class="c0"/>
<circle cx="24" cy="1008" r="8" class="c0"/>
<circle cx="18" cy="1154" r="8" class="c0"/>
<circle cx="26" cy="918" r="8" class="c0"/>
<circle cx="1906" cy="1348" r="8" class="c0"/>
<circle cx="122" cy="1138" r="8" class="c0"/>
<circle cx="1876" cy="1380" r="8" class="c0"/>
<circle cx="1748" cy="640" r="8" class="c0"/>
<circle cx="1904" cy="324" r="8" class="c0"/>
<circle cx="1802" cy="692" r="8" class="c0"/>
<circle cx="1886" cy="1306" r="8" class="c0"/>
<circle cx="126" cy="1104" r="8" class="c0"/>
<circle cx="1668" cy="590" r="8" class="c0"/>
<circle cx="512" cy="670" r="8" class="c0"/>
<circle cx="1720" cy="556" r="8" class="c0"/>
<circle cx="1770" cy="752" r="8" class="c0"/>
<circle cx="32" cy="1084" r="8" class="c0"/>
<circle cx="1908" cy="1398" r="8" class="c0"/>
<circle cx="112" cy="1150" r="8" class="c0"/>
<circle cx="30" cy="1038" r="8" class="c0"/>
<circle cx="1278" cy="666" r="8" class="c0"/>
<circle cx="178" cy="658" r="8" class="c0"/>
<circle cx="40" cy="1232" r="8" class="c0"/>
<circle cx="64" cy="1080" r="8" class="c0"/>
<circle cx="42" cy="900" r="8" class="c0"/>
<circle cx="292" cy="660" r="8" class="c0"/>
<circle cx="14" cy="1174" r="8" class="c0"/>
<circle cx="1700" cy="682" r="8" class="c0"/>
<circle cx="74" cy="1200" r="8" class="c0"/>
<circle cx="1740" cy="610" r="8" class="c0"/>
<circle cx="1146" cy="658" r="8" class="c0"/>
<circle cx="340" cy="662" r="8" class="c0"/>
<circle cx="820" cy="662" r="8" class="c0"/>
<circle cx="68" cy="1238" r="8" class="c0"/>
<circle cx="1760" cy="708" r="8" class="c0"/>
<circle cx="1910" cy="1374" r="6" class="c0"/>
<circle cx="20" cy="1058" r="6" class="c0"/>
<circle cx="1898" cy="1270" r="6" class="c0"/>
<circle cx="1906" cy="686" r="6" class="c0"/>
<circle cx="1730" cy="632" r="6" class="c0"/>
<circle cx="66" cy="1172" r="6" class="c0"/>
<circle cx="462" cy="672" r="6" class="c0"/>
<circle cx="1716" cy="674" r="6" class="c0"/>
<circle cx="1034" cy="664" r="6" class="c0"/>
<circle cx="14" cy="1110" r="6" class="c0"/>
<circle cx="418" cy="674" r="6" class="c0"/>
<circle cx="1898" cy="748" r="6" class="c0"/>
<circle cx="1096" cy="660" r="6" class="c0"/>
<circle cx="78" cy="1216" r="6" class="c0"/>
<circle cx="58" cy="974" r="6" class="c0"/>
<circle cx="1156" cy="672" r="6" class="c0"/>
<circle cx="254" cy="674" r="6" class="c0"/>
<circle cx="1910" cy="1244" r="6" class="c0"/>
<circle cx="216" cy="658" r="6" class="c0"/>
<circle cx="82" cy="1184" r="6" class="c0"/>
<circle cx="1900" cy="1414" r="6" class="c0"/>
<circle cx="42" cy="1248" r="6" class="c0"/>
<circle cx="1064" cy="672" r="6" class="c0"/>
<circle cx="1860" cy="684" r="6" class="c0"/>
<circle cx="742" cy="664" r="6" class="c0"/>
<circle cx="66" cy="966" r="6" class="c0"/>
<circle cx="36" cy="942" r="6" class="c0"/>
<circle cx="1908" cy="1424" r="6" class="c0"/>
<circle cx="496" cy="658" r="6" class="c0"/>
<circle cx="1890" cy="314" r="6" class="c0"/>
<circle cx="600" cy="672" r="6" class="c0"/>
<circle cx="1696" cy="616" r="6" class="c0"/>
<circle cx="1188" cy="658" r="6" class="c0"/>
<circle cx="74" cy="1150" r="6" class="c0"/>
<circle cx="988" cy="658" r="6" class="c0"/>
<circle cx="1912" cy="744" r="6" class="c0"/>
<circle cx="1912" cy="1156" r="6" class="c0"/>
<circle cx="1762" cy="672" r="6" class="c0"/>
<circle cx="58" cy="1164" r="6" class="c0"/>
<circle cx="1698" cy="636" r="6" class="c0"/>
<circle cx="1864" cy="330" r="6" class="c0"/>
<circle cx="30" cy="1172" r="6" class="c0"/>
<circle cx="1122" cy="656" r="6" class="c0"/>
<circle cx="208" cy="672" r="6" class="c0"/>
<circle cx="70" cy="1024" r="6" class="c0"/>
<circle cx="1846" cy="1396" r="6" class="c0"/>
<circle cx="1912" cy="1274" r="6" class="c0"/>
<circle cx="1906" cy="1168" r="6" class="c0"/>
<circle cx="558" cy="656" r="6" class="c0"/>
<circle cx="10" cy="998" r="6" class="c0"/>
<circle cx="54" cy="1094" r="6" class="c0"/>
<circle cx="938" cy="670" r="6" class="c0"/>
<circle cx="1830" cy="1430" r="6" class="c0"/>
<circle cx="734" cy="672" r="6" class="c0"/>
<circle cx="76" cy="1128" r="6" class="c0"/>
<circle cx="1748" cy="720" r="6" class="c0"/>
<circle cx="106" cy="1124" r="6" class="c0"/>
<circle cx="1808" cy="730" r="6" class="c0"/>
<circle cx="98" cy="972" r="6" class="c0"/>
<circle cx="22" cy="892" r="6" class="c0"/>
<circle cx="116" cy="1070" r="6" class="c0"/>
<circle cx="1682" cy="550" r="6" class="c0"/>
<circle cx="1686" cy="642" r="6" class="c0"/>
<circle cx="56" cy="942" r="6" class="c0"/>
<circle cx="1906" cy="1260" r="6" class="c0"/>
<circle cx="46" cy="932" r="6" class="c0"/>
<circle cx="1896" cy="340" r="6" class="c0"/>
<circle cx="1744" cy="528" r="6" class="c0"/>
<circle cx="1704" cy="606" r="6" class="c0"/>
<circle cx="1894" cy="1336" r="6" class="c0"/>
<circle cx="1866" cy="750" r="6" class="c0"/>
<circle cx="22" cy="1096" r="6" class="c0"/>
<circle cx="350" cy="672" r="6" class="c0"/>
<circle cx="1350" cy="672" r="6" class="c0"/>
<circle cx="1912" cy="714" r="6" class="c0"/>
<circle cx="1214" cy="658" r="6" class="c0"/>
<circle cx="10" cy="674" r="6" class="c0"/>
<circle cx="114" cy="1084" r="6" class="c0"/>
<circle cx="1910" cy="368" r="6" class="c0"/>
<circle cx="78" cy="1004" r="6" class="c0"/>
<circle cx="900" cy="672" r="6" class="c0"/>
<circle cx="6" cy="918" r="6" class="c0"/>
<circle cx="1836" cy="708" r="6" class="c0"/>
<circle cx="116" cy="1116" r="6" class="c0"/>
<circle cx="1884" cy="750" r="6" class="c0"/>
<circle cx="1646" cy="554" r="6" class="c0"/>
<circle cx="6" cy="942" r="6" class="c0"/>
<circle cx="6" cy="1012" r="6" class="c0"/>
<circle cx="70" cy="938" r="6" class="c0"/>
<circle cx="1764" cy="658" r="6" class="c0"/>
<circle cx="650" cy="656" r="6" class="c0"/>
<circle cx="6" cy="1140" r="6" class="c0"/>
<circle cx="16" cy="1192" r="6" class="c0"/>
<circle cx="1732" cy="544" r="6" class="c0"/>
<circle cx="1782" cy="736" r="6" class="c0"/>
<circle cx="92" cy="674" r="6" class="c0"/>
<circle cx="1894" cy="680" r="6" class="c0"/>
<circle cx="692" cy="674" r="6" class="c0"/>
<circle cx="188" cy="672" r="6" class="c0"/>
<circle cx="54" cy="670" r="6" class="c0"/>
<circle cx="1402" cy="656" r="6" class="c0"/>
<circle cx="1732" cy="574" r="6" class="c0"/>
<circle cx="862" cy="656" r="6" class="c0"/>
<circle cx="1020" cy="674" r="6" class="c0"/>
<circle cx="1696" cy="518" r="6" class="c0"/>
<circle cx="250" cy="656" r="6" class="c0"/>
<circle cx="934" cy="656" r="6" class="c0"/>
</svg>
