<?xml version="1.0" encoding="utf-8"?>
<svg xmlns="http://www.w3.org/2000/svg"
     xmlns:xlink="http://www.w3.org/1999/xlink" width="1920" height="1440" >

            <defs>
            <style type="text/css"><![CDATA[
circle {stroke: none;}
.c0 {fill: #FFFFFF;}
]]></style>
            </defs>
<rect x="0" y="0" width="1920" height="1440" fill="black"/>
<circle cx="38" cy="278" r="12" class="c0"/>
<circle cx="130" cy="482" r="12" class="c0"/>
<circle cx="76" cy="68" r="12" class="c0"/>
<circle cx="48" cy="676" r="12" class="c0"/>
<circle cx="560" cy="554" r="12" class="c0"/>
<circle cx="302" cy="730" r="12" class="c0"/>
<circle cx="328" cy="666" r="12" class="c0"/>
<circle cx="12" cy="682" r="12" class="c0"/>
<circle cx="608" cy="586" r="12" class="c0"/>
<circle cx="26" cy="612" r="12" class="c0"/>
<circle cx="96" cy="350" r="12" class="c0"/>
<circle cx="104" cy="46" r="12" class="c0"/>
<circle cx="108" cy="570" r="12" class="c0"/>
<circle cx="12" cy="528" r="12" class="c0"/>
<circle cx="380" cy="716" r="12" class="c0"/>
<circle cx="214" cy="630" r="12" class="c0"/>
<circle cx="40" cy="332" r="12" class="c0"/>
<circle cx="22" cy="170" r="12" class="c0"/>
<circle cx="138" cy="224" r="12" class="c0"/>
<circle cx="268" cy="760" r="12" class="c0"/>
<circle cx="744" cy="778" r="12" class="c0"/>
<circle cx="72" cy="610" r="12" class="c0"/>
<circle cx="52" cy="834" r="12" class="c0"/>
<circle cx="18" cy="354" r="12" class="c0"/>
<circle cx="208" cy="562" r="12" class="c0"/>
<circle cx="146" cy="374" r="12" class="c0"/>
<circle cx="130" cy="744" r="12" class="c0"/>
<circle cx="328" cy="764" r="12" class="c0"/>
<circle cx="628" cy="558" r="12" class="c0"/>
<circle cx="186" cy="684" r="12" class="c0"/>
<circle cx="20" cy="1106" r="12" class="c0"/>
<circle cx="32" cy="852" r="12" class="c0"/>
<circle cx="330" cy="724" r="12" class="c0"/>
<circle cx="1294" cy="664" r="12" class="c0"/>
<circle cx="522" cy="446" r="12" class="c0"/>
<circle cx="404" cy="790" r="12" class="c0"/>
<circle cx="48" cy="640" r="12" class="c0"/>
<circle cx="252" cy="708" r="12" class="c0"/>
<circle cx="194" cy="842" r="12" class="c0"/>
<circle cx="402" cy="674" r="12" class="c0"/>
<circle cx="306" cy="804" r="12" class="c0"/>
<circle cx="196" cy="716" r="12" class="c0"/>
<circle cx="58" cy="974" r="12" class="c0"/>
<circle cx="172" cy="336" r="12" class="c0"/>
<circle cx="148" cy="442" r="12" class="c0"/>
<circle cx="166" cy="748" r="12" class="c0"/>
<circle cx="372" cy="326" r="12" class="c0"/>
<circle cx="34" cy="720" r="12" class="c0"/>
<circle cx="288" cy="842" r="12" class="c0"/>
<circle cx="162" cy="660" r="12" class="c0"/>
<circle cx="280" cy="684" r="10" class="c0"/>
<circle cx="260" cy="212" r="10" class="c0"/>
<circle cx="54" cy="404" r="10" class="c0"/>
<circle cx="50" cy="532" r="10" class="c0"/>
<circle cx="152" cy="868" r="10" class="c0"/>
<circle cx="410" cy="766" r="10" class="c0"/>
<circle cx="44" cy="250" r="10" class="c0"/>
<circle cx="118" cy="402" r="10" class="c0"/>
<circle cx="248" cy="636" r="10" class="c0"/>
<circle cx="200" cy="194" r="10" class="c0"/>
<circle cx="582" cy="658" r="10" class="c0"/>
<circle cx="228" cy="890" r="10" class="c0"/>
<circle cx="130" cy="712" r="10" class="c0"/>
<circle cx="110" cy="696" r="10" class="c0"/>
<circle cx="124" cy="284" r="10" class="c0"/>
<circle cx="248" cy="818" r="10" class="c0"/>
<circle cx="98" cy="234" r="10" class="c0"/>
<circle cx="442" cy="826" r="10" class="c0"/>
<circle cx="14" cy="762" r="10" class="c0"/>
<circle cx="234" cy="732" r="10" class="c0"/>
<circle cx="124" cy="440" r="10" class="c0"/>
<circle cx="376" cy="668" r="10" class="c0"/>
<circle cx="62" cy="856" r="10" class="c0"/>
<circle cx="370" cy="834" r="10" class="c0"/>
<circle cx="146" cy="804" r="10" class="c0"/>
<circle cx="636" cy="602" r="10" class="c0"/>
<circle cx="380" cy="872" r="10" class="c0"/>
<circle cx="144" cy="694" r="10" class="c0"/>
<circle cx="48" cy="1074" r="10" class="c0"/>
<circle cx="40" cy="494" r="10" class="c0"/>
<circle cx="136" cy="624" r="10" class="c0"/>
<circle cx="94" cy="454" r="10" class="c0"/>
<circle cx="146" cy="174" r="10" class="c0"/>
<circle cx="114" cy="606" r="10" class="c0"/>
<circle cx="88" cy="640" r="10" class="c0"/>
<circle cx="352" cy="734" r="10" class="c0"/>
<circle cx="142" cy="324" r="10" class="c0"/>
<circle cx="714" cy="662" r="10" class="c0"/>
<circle cx="28" cy="26" r="10" class="c0"/>
<circle cx="174" cy="542" r="10" class="c0"/>
<circle cx="194" cy="166" r="10" class="c0"/>
<circle cx="28" cy="1144" r="10" class="c0"/>
<circle cx="256" cy="672" r="10" class="c0"/>
<circle cx="22" cy="66" r="10" class="c0"/>
<circle cx="196" cy="644" r="10" class="c0"/>
<circle cx="500" cy="438" r="10" class="c0"/>
<circle cx="326" cy="828" r="10" class="c0"/>
<circle cx="736" cy="660" r="10" class="c0"/>
<circle cx="230" cy="778" r="10" class="c0"/>
<circle cx="160" cy="270" r="10" class="c0"/>
<circle cx="290" cy="644" r="10" class="c0"/>
<circle cx="270" cy="632" r="10" class="c0"/>
<circle cx="10" cy="726" r="10" class="c0"/>
<circle cx="188" cy="600" r="10" class="c0"/>
<circle cx="1586" cy="662" r="10" class="c0"/>
<circle cx="180" cy="374" r="10" class="c0"/>
<circle cx="56" cy="1054" r="10" class="c0"/>
<circle cx="42" cy="784" r="10" class="c0"/>
<circle cx="26" cy="1012" r="10" class="c0"/>
<circle cx="730" cy="698" r="10" class="c0"/>
<circle cx="160" cy="212" r="10" class="c0"/>
<circle cx="72" cy="802" r="10" class="c0"/>
<circle cx="496" cy="466" r="10" class="c0"/>
<circle cx="270" cy="600" r="10" class="c0"/>
<circle cx="62" cy="10" r="10" class="c0"/>
<circle cx="56" cy="588" r="10" class="c0"/>
<circle cx="536" cy="662" r="10" class="c0"/>
<circle cx="52" cy="228" r="10" class="c0"/>
<circle cx="84" cy="1046" r="10" class="c0"/>
<circle cx="146" cy="780" r="10" class="c0"/>
<circle cx="558" cy="480" r="10" class="c0"/>
<circle cx="78" cy="470" r="10" class="c0"/>
<circle cx="152" cy="538" r="10" class="c0"/>
<circle cx="1050" cy="664" r="10" class="c0"/>
<circle cx="84" cy="256" r="10" class="c0"/>
<circle cx="734" cy="754" r="10" class="c0"/>
<circle cx="166" cy="422" r="10" class="c0"/>
<circle cx="140" cy="888" r="10" class="c0"/>
<circle cx="174" cy="640" r="10" class="c0"/>
<circle cx="186" cy="872" r="10" class="c0"/>
<circle cx="952" cy="666" r="10" class="c0"/>
<circle cx="150" cy="496" r="10" class="c0"/>
<circle cx="122" cy="646" r="10" class="c0"/>
<circle cx="66" cy="366" r="10" class="c0"/>
<circle cx="106" cy="72" r="10" class="c0"/>
<circle cx="266" cy="792" r="10" class="c0"/>
<circle cx="90" cy="776" r="10" class="c0"/>
<circle cx="398" cy="850" r="10" class="c0"/>
<circle cx="226" cy="582" r="10" class="c0"/>
<circle cx="138" cy="414" r="10" class="c0"/>
<circle cx="26" cy="822" r="10" class="c0"/>
<circle cx="360" cy="772" r="10" class="c0"/>
<circle cx="190" cy="800" r="10" class="c0"/>
<circle cx="664" cy="674" r="10" class="c0"/>
<circle cx="404" cy="898" r="10" class="c0"/>
<circle cx="462" cy="430" r="10" class="c0"/>
<circle cx="292" cy="704" r="10" class="c0"/>
<circle cx="626" cy="658" r="10" class="c0"/>
<circle cx="74" cy="1018" r="10" class="c0"/>
<circle cx="704" cy="696" r="10" class="c0"/>
<circle cx="114" cy="180" r="10" class="c0"/>
<circle cx="96" cy="390" r="10" class="c0"/>
<circle cx="692" cy="644" r="10" class="c0"/>
<circle cx="388" cy="746" r="10" class="c0"/>
<circle cx="28" cy="458" r="10" class="c0"/>
<circle cx="124" cy="856" r="10" class="c0"/>
<circle cx="16" cy="792" r="10" class="c0"/>
<circle cx="150" cy="612" r="10" class="c0"/>
<circle cx="16" cy="1168" r="10" class="c0"/>
<circle cx="50" cy="464" r="10" class="c0"/>
<circle cx="14" cy="264" r="10" class="c0"/>
<circle cx="212" cy="806" r="10" class="c0"/>
<circle cx="106" cy="870" r="10" class="c0"/>
<circle cx="676" cy="730" r="10" class="c0"/>
<circle cx="50" cy="180" r="10" class="c0"/>
<circle cx="712" cy="752" r="10" class="c0"/>
<circle cx="96" cy="752" r="10" class="c0"/>
<circle cx="818" cy="662" r="10" class="c0"/>
<circle cx="246" cy="186" r="10" class="c0"/>
<circle cx="56" cy="1116" r="10" class="c0"/>
<circle cx="62" cy="270" r="10" class="c0"/>
<circle cx="94" cy="196" r="10" class="c0"/>
<circle cx="1490" cy="664" r="10" class="c0"/>
<circle cx="16" cy="310" r="10" class="c0"/>
<circle cx="68" cy="746" r="10" class="c0"/>
<circle cx="176" cy="586" r="10" class="c0"/>
<circle cx="216" cy="670" r="10" class="c0"/>
<circle cx="538" cy="500" r="10" class="c0"/>
<circle cx="776" cy="660" r="10" class="c0"/>
<circle cx="186" cy="900" r="10" class="c0"/>
<circle cx="50" cy="44" r="10" class="c0"/>
<circle cx="258" cy="846" r="10" class="c0"/>
<circle cx="70" cy="344" r="10" class="c0"/>
<circle cx="242" cy="866" r="10" class="c0"/>
<circle cx="98" cy="722" r="10" class="c0"/>
<circle cx="42" cy="378" r="10" class="c0"/>
<circle cx="42" cy="754" r="10" class="c0"/>
<circle cx="430" cy="666" r="10" class="c0"/>
<circle cx="132" cy="522" r="10" class="c0"/>
<circle cx="1454" cy="670" r="10" class="c0"/>
<circle cx="20" cy="652" r="10" class="c0"/>
<circle cx="114" cy="262" r="10" class="c0"/>
<circle cx="220" cy="758" r="10" class="c0"/>
<circle cx="334" cy="292" r="10" class="c0"/>
<circle cx="718" cy="786" r="10" class="c0"/>
<circle cx="64" cy="566" r="10" class="c0"/>
<circle cx="666" cy="644" r="10" class="c0"/>
<circle cx="164" cy="718" r="10" class="c0"/>
<circle cx="96" cy="428" r="10" class="c0"/>
<circle cx="274" cy="818" r="10" class="c0"/>
<circle cx="720" cy="730" r="10" class="c0"/>
<circle cx="74" cy="416" r="10" class="c0"/>
<circle cx="218" cy="856" r="10" class="c0"/>
<circle cx="24" cy="1058" r="10" class="c0"/>
<circle cx="928" cy="668" r="10" class="c0"/>
<circle cx="514" cy="476" r="10" class="c0"/>
<circle cx="100" cy="318" r="10" class="c0"/>
<circle cx="76" cy="184" r="10" class="c0"/>
<circle cx="12" cy="980" r="10" class="c0"/>
<circle cx="86" cy="222" r="10" class="c0"/>
<circle cx="138" cy="842" r="10" class="c0"/>
<circle cx="1320" cy="664" r="10" class="c0"/>
<circle cx="1382" cy="668" r="10" class="c0"/>
<circle cx="592" cy="546" r="10" class="c0"/>
<circle cx="430" cy="872" r="10" class="c0"/>
<circle cx="350" cy="810" r="10" class="c0"/>
<circle cx="1232" cy="664" r="10" class="c0"/>
<circle cx="156" cy="304" r="10" class="c0"/>
<circle cx="24" cy="216" r="10" class="c0"/>
<circle cx="154" cy="564" r="10" class="c0"/>
<circle cx="28" cy="882" r="10" class="c0"/>
<circle cx="396" cy="332" r="10" class="c0"/>
<circle cx="102" cy="820" r="10" class="c0"/>
<circle cx="310" cy="864" r="10" class="c0"/>
<circle cx="162" cy="904" r="10" class="c0"/>
<circle cx="1094" cy="666" r="8" class="c0"/>
<circle cx="674" cy="786" r="8" class="c0"/>
<circle cx="22" cy="380" r="8" class="c0"/>
<circle cx="26" cy="398" r="8" class="c0"/>
<circle cx="38" cy="82" r="8" class="c0"/>
<circle cx="178" cy="824" r="8" class="c0"/>
<circle cx="96" cy="484" r="8" class="c0"/>
<circle cx="68" cy="516" r="8" class="c0"/>
<circle cx="112" cy="464" r="8" class="c0"/>
<circle cx="12" cy="288" r="8" class="c0"/>
<circle cx="68" cy="490" r="8" class="c0"/>
<circle cx="116" cy="342" r="8" class="c0"/>
<circle cx="10" cy="870" r="8" class="c0"/>
<circle cx="562" cy="660" r="8" class="c0"/>
<circle cx="158" cy="630" r="8" class="c0"/>
<circle cx="40" cy="154" r="8" class="c0"/>
<circle cx="186" cy="776" r="8" class="c0"/>
<circle cx="146" cy="672" r="8" class="c0"/>
<circle cx="100" cy="622" r="8" class="c0"/>
<circle cx="606" cy="560" r="8" class="c0"/>
<circle cx="100" cy="280" r="8" class="c0"/>
<circle cx="420" cy="836" r="8" class="c0"/>
<circle cx="476" cy="442" r="8" class="c0"/>
<circle cx="276" cy="726" r="8" class="c0"/>
<circle cx="180" cy="248" r="8" class="c0"/>
<circle cx="202" cy="890" r="8" class="c0"/>
<circle cx="20" cy="238" r="8" class="c0"/>
<circle cx="134" cy="574" r="8" class="c0"/>
<circle cx="866" cy="664" r="8" class="c0"/>
<circle cx="302" cy="660" r="8" class="c0"/>
<circle cx="220" cy="294" r="8" class="c0"/>
<circle cx="380" cy="788" r="8" class="c0"/>
<circle cx="224" cy="704" r="8" class="c0"/>
<circle cx="38" cy="434" r="8" class="c0"/>
<circle cx="546" cy="530" r="8" class="c0"/>
<circle cx="160" cy="844" r="8" class="c0"/>
<circle cx="196" cy="362" r="8" class="c0"/>
<circle cx="386" cy="906" r="8" class="c0"/>
<circle cx="214" cy="908" r="8" class="c0"/>
<circle cx="896" cy="670" r="8" class="c0"/>
<circle cx="226" cy="836" r="8" class="c0"/>
<circle cx="86" cy="542" r="8" class="c0"/>
<circle cx="178" cy="198" r="8" class="c0"/>
<circle cx="244" cy="590" r="8" class="c0"/>
<circle cx="574" cy="530" r="8" class="c0"/>
<circle cx="422" cy="810" r="8" class="c0"/>
<circle cx="298" cy="768" r="8" class="c0"/>
<circle cx="12" cy="706" r="8" class="c0"/>
<circle cx="1418" cy="660" r="8" class="c0"/>
<circle cx="12" cy="572" r="8" class="c0"/>
<circle cx="92" cy="886" r="8" class="c0"/>
<circle cx="80" cy="706" r="8" class="c0"/>
<circle cx="400" cy="730" r="8" class="c0"/>
<circle cx="10" cy="106" r="8" class="c0"/>
<circle cx="202" cy="322" r="8" class="c0"/>
<circle cx="258" cy="742" r="8" class="c0"/>
<circle cx="386" cy="814" r="8" class="c0"/>
<circle cx="236" cy="220" r="8" class="c0"/>
<circle cx="174" cy="614" r="8" class="c0"/>
<circle cx="196" cy="526" r="8" class="c0"/>
<circle cx="170" cy="798" r="8" class="c0"/>
<circle cx="244" cy="916" r="8" class="c0"/>
<circle cx="218" cy="240" r="8" class="c0"/>
<circle cx="34" cy="582" r="8" class="c0"/>
<circle cx="396" cy="380" r="8" class="c0"/>
<circle cx="32" cy="1032" r="8" class="c0"/>
<circle cx="238" cy="682" r="8" class="c0"/>
<circle cx="12" cy="842" r="8" class="c0"/>
<circle cx="198" cy="752" r="8" class="c0"/>
<circle cx="682" cy="662" r="8" class="c0"/>
<circle cx="64" cy="880" r="8" class="c0"/>
<circle cx="8" cy="1004" r="8" class="c0"/>
<circle cx="202" cy="614" r="8" class="c0"/>
<circle cx="458" cy="400" r="8" class="c0"/>
<circle cx="144" cy="724" r="8" class="c0"/>
<circle cx="166" cy="186" r="8" class="c0"/>
<circle cx="254" cy="614" r="8" class="c0"/>
<circle cx="94" cy="664" r="8" class="c0"/>
<circle cx="446" cy="390" r="8" class="c0"/>
<circle cx="112" cy="838" r="8" class="c0"/>
<circle cx="8" cy="186" r="8" class="c0"/>
<circle cx="162" cy="120" r="8" class="c0"/>
<circle cx="144" cy="590" r="8" class="c0"/>
<circle cx="348" cy="882" r="8" class="c0"/>
<circle cx="198" cy="258" r="8" class="c0"/>
<circle cx="66" cy="208" r="8" class="c0"/>
<circle cx="118" cy="236" r="8" class="c0"/>
<circle cx="300" cy="680" r="8" class="c0"/>
<circle cx="184" cy="312" r="8" class="c0"/>
<circle cx="22" cy="96" r="8" class="c0"/>
<circle cx="70" cy="650" r="8" class="c0"/>
<circle cx="426" cy="382" r="8" class="c0"/>
<circle cx="172" cy="138" r="8" class="c0"/>
<circle cx="86" cy="94" r="8" class="c0"/>
<circle cx="168" cy="778" r="8" class="c0"/>
<circle cx="764" cy="676" r="8" class="c0"/>
<circle cx="186" cy="128" r="8" class="c0"/>
<circle cx="242" cy="660" r="8" class="c0"/>
<circle cx="680" cy="624" r="8" class="c0"/>
<circle cx="180" cy="506" r="8" class="c0"/>
<circle cx="1534" cy="670" r="8" class="c0"/>
<circle cx="344" cy="324" r="8" class="c0"/>
<circle cx="48" cy="200" r="8" class="c0"/>
<circle cx="202" cy="398" r="8" class="c0"/>
<circle cx="290" cy="874" r="8" class="c0"/>
<circle cx="12" cy="428" r="8" class="c0"/>
<circle cx="80" cy="584" r="8" class="c0"/>
<circle cx="90" cy="522" r="8" class="c0"/>
<circle cx="706" cy="774" r="8" class="c0"/>
<circle cx="112" cy="498" r="8" class="c0"/>
<circle cx="22" cy="560" r="8" class="c0"/>
<circle cx="60" cy="84" r="8" class="c0"/>
<circle cx="844" cy="668" r="8" class="c0"/>
<circle cx="264" cy="878" r="8" class="c0"/>
<circle cx="174" cy="920" r="8" class="c0"/>
<circle cx="1024" cy="670" r="8" class="c0"/>
<circle cx="126" cy="204" r="8" class="c0"/>
<circle cx="478" cy="482" r="8" class="c0"/>
<circle cx="344" cy="840" r="8" class="c0"/>
<circle cx="36" cy="416" r="8" class="c0"/>
<circle cx="72" cy="1064" r="8" class="c0"/>
<circle cx="1256" cy="660" r="8" class="c0"/>
<circle cx="1156" cy="658" r="8" class="c0"/>
<circle cx="170" cy="230" r="8" class="c0"/>
<circle cx="10" cy="894" r="8" class="c0"/>
<circle cx="60" cy="726" r="8" class="c0"/>
<circle cx="988" cy="668" r="8" class="c0"/>
<circle cx="362" cy="360" r="8" class="c0"/>
<circle cx="1350" cy="670" r="8" class="c0"/>
<circle cx="1196" cy="670" r="8" class="c0"/>
<circle cx="90" cy="294" r="8" class="c0"/>
<circle cx="184" cy="734" r="8" class="c0"/>
<circle cx="10" cy="500" r="8" class="c0"/>
<circle cx="274" cy="188" r="8" class="c0"/>
<circle cx="134" cy="458" r="8" class="c0"/>
<circle cx="338" cy="698" r="8" class="c0"/>
<circle cx="240" cy="754" r="8" class="c0"/>
<circle cx="128" cy="98" r="8" class="c0"/>
<circle cx="14" cy="632" r="8" class="c0"/>
<circle cx="34" cy="696" r="8" class="c0"/>
<circle cx="84" cy="840" r="8" class="c0"/>
<circle cx="124" cy="794" r="8" class="c0"/>
<circle cx="224" cy="182" r="8" class="c0"/>
<circle cx="476" cy="660" r="8" class="c0"/>
<circle cx="680" cy="690" r="8" class="c0"/>
<circle cx="214" cy="602" r="8" class="c0"/>
<circle cx="234" cy="556" r="8" class="c0"/>
<circle cx="32" cy="1122" r="8" class="c0"/>
<circle cx="270" cy="242" r="8" class="c0"/>
<circle cx="8" cy="1030" r="8" class="c0"/>
<circle cx="110" cy="526" r="8" class="c0"/>
<circle cx="74" cy="1106" r="8" class="c0"/>
<circle cx="396" cy="826" r="8" class="c0"/>
<circle cx="658" cy="598" r="8" class="c0"/>
<circle cx="558" cy="514" r="8" class="c0"/>
<circle cx="116" cy="762" r="8" class="c0"/>
<circle cx="136" cy="248" r="8" class="c0"/>
<circle cx="64" cy="1136" r="8" class="c0"/>
<circle cx="722" cy="842" r="8" class="c0"/>
<circle cx="156" cy="404" r="8" class="c0"/>
<circle cx="178" cy="394" r="8" class="c0"/>
<circle cx="184" cy="288" r="8" class="c0"/>
<circle cx="154" cy="240" r="8" class="c0"/>
<circle cx="640" cy="640" r="8" class="c0"/>
<circle cx="254" cy="894" r="8" class="c0"/>
<circle cx="166" cy="162" r="8" class="c0"/>
<circle cx="46" cy="804" r="8" class="c0"/>
<circle cx="752" cy="740" r="8" class="c0"/>
<circle cx="14" cy="1082" r="8" class="c0"/>
<circle cx="312" cy="694" r="8" class="c0"/>
<circle cx="640" cy="674" r="8" class="c0"/>
<circle cx="644" cy="576" r="8" class="c0"/>
<circle cx="282" cy="662" r="8" class="c0"/>
<circle cx="370" cy="802" r="8" class="c0"/>
<circle cx="648" cy="616" r="8" class="c0"/>
<circle cx="338" cy="858" r="8" class="c0"/>
<circle cx="364" cy="860" r="8" class="c0"/>
<circle cx="30" cy="46" r="8" class="c0"/>
<circle cx="128" cy="678" r="8" class="c0"/>
<circle cx="66" cy="542" r="8" class="c0"/>
<circle cx="106" cy="792" r="8" class="c0"/>
<circle cx="488" cy="418" r="8" class="c0"/>
<circle cx="116" cy="666" r="8" class="c0"/>
<circle cx="10" cy="148" r="8" class="c0"/>
<circle cx="310" cy="892" r="8" class="c0"/>
<circle cx="372" cy="300" r="8" class="c0"/>
<circle cx="42" cy="302" r="8" class="c0"/>
<circle cx="82" cy="1130" r="8" class="c0"/>
<circle cx="464" cy="860" r="8" class="c0"/>
<circle cx="10" cy="78" r="8" class="c0"/>
<circle cx="292" cy="260" r="8" class="c0"/>
<circle cx="168" cy="362" r="8" class="c0"/>
<circle cx="128" cy="352" r="8" class="c0"/>
<circle cx="92" cy="502" r="8" class="c0"/>
<circle cx="60" cy="1096" r="8" class="c0"/>
<circle cx="314" cy="278" r="8" class="c0"/>
<circle cx="184" cy="564" r="8" class="c0"/>
<circle cx="424" cy="364" r="8" class="c0"/>
<circle cx="38" cy="942" r="8" class="c0"/>
<circle cx="10" cy="942" r="8" class="c0"/>
<circle cx="8" cy="54" r="8" class="c0"/>
<circle cx="620" cy="616" r="8" class="c0"/>
<circle cx="1176" cy="668" r="8" class="c0"/>
<circle cx="22" cy="738" r="8" class="c0"/>
<circle cx="1266" cy="670" r="8" class="c0"/>
<circle cx="136" cy="296" r="8" class="c0"/>
<circle cx="126" cy="310" r="8" class="c0"/>
<circle cx="52" cy="704" r="8" class="c0"/>
<circle cx="108" cy="378" r="8" class="c0"/>
<circle cx="234" cy="618" r="8" class="c0"/>
<circle cx="44" cy="1134" r="8" class="c0"/>
<circle cx="10" cy="14" r="8" class="c0"/>
<circle cx="506" cy="666" r="8" class="c0"/>
<circle cx="608" cy="678" r="8" class="c0"/>
<circle cx="208" cy="690" r="8" class="c0"/>
<circle cx="212" cy="498" r="8" class="c0"/>
<circle cx="104" cy="654" r="8" class="c0"/>
<circle cx="122" cy="538" r="8" class="c0"/>
<circle cx="596" cy="526" r="8" class="c0"/>
<circle cx="448" cy="410" r="8" class="c0"/>
<circle cx="1072" cy="660" r="8" class="c0"/>
<circle cx="124" cy="822" r="8" class="c0"/>
<circle cx="348" cy="714" r="8" class="c0"/>
<circle cx="126" cy="774" r="8" class="c0"/>
<circle cx="350" cy="660" r="8" class="c0"/>
<circle cx="346" cy="754" r="8" class="c0"/>
<circle cx="68" cy="290" r="8" class="c0"/>
<circle cx="78" cy="314" r="8" class="c0"/>
<circle cx="18" cy="122" r="8" class="c0"/>
<circle cx="1130" cy="668" r="8" class="c0"/>
<circle cx="52" cy="118" r="8" class="c0"/>
<circle cx="414" cy="346" r="8" class="c0"/>
<circle cx="256" cy="776" r="8" class="c0"/>
<circle cx="176" cy="478" r="8" class="c0"/>
<circle cx="116" cy="900" r="8" class="c0"/>
<circle cx="192" cy="230" r="8" class="c0"/>
<circle cx="216" cy="878" r="8" class="c0"/>
<circle cx="184" cy="352" r="8" class="c0"/>
<circle cx="124" cy="370" r="8" class="c0"/>
<circle cx="280" cy="582" r="8" class="c0"/>
<circle cx="430" cy="790" r="8" class="c0"/>
<circle cx="66" cy="1000" r="8" class="c0"/>
<circle cx="54" cy="442" r="8" class="c0"/>
<circle cx="582" cy="496" r="8" class="c0"/>
<circle cx="68" cy="688" r="8" class="c0"/>
<circle cx="60" cy="324" r="8" class="c0"/>
<circle cx="130" cy="388" r="8" class="c0"/>
<circle cx="226" cy="516" r="8" class="c0"/>
<circle cx="330" cy="802" r="8" class="c0"/>
<circle cx="34" cy="974" r="8" class="c0"/>
<circle cx="78" cy="280" r="8" class="c0"/>
<circle cx="654" cy="658" r="8" class="c0"/>
<circle cx="46" cy="100" r="8" class="c0"/>
<circle cx="16" cy="480" r="8" class="c0"/>
<circle cx="250" cy="232" r="8" class="c0"/>
<circle cx="186" cy="412" r="8" class="c0"/>
<circle cx="380" cy="766" r="8" class="c0"/>
<circle cx="204" cy="780" r="8" class="c0"/>
<circle cx="448" cy="804" r="8" class="c0"/>
<circle cx="332" cy="904" r="8" class="c0"/>
<circle cx="94" cy="8" r="8" class="c0"/>
<circle cx="214" cy="162" r="8" class="c0"/>
<circle cx="68" cy="240" r="8" class="c0"/>
<circle cx="216" cy="542" r="8" class="c0"/>
<circle cx="116" cy="422" r="8" class="c0"/>
<circle cx="290" cy="792" r="8" class="c0"/>
<circle cx="420" cy="738" r="8" class="c0"/>
<circle cx="84" cy="674" r="8" class="c0"/>
<circle cx="176" cy="174" r="8" class="c0"/>
<circle cx="692" cy="720" r="8" class="c0"/>
<circle cx="362" cy="688" r="8" class="c0"/>
<circle cx="58" cy="774" r="8" class="c0"/>
<circle cx="324" cy="848" r="8" class="c0"/>
<circle cx="50" cy="870" r="8" class="c0"/>
<circle cx="1008" cy="662" r="8" class="c0"/>
<circle cx="46" cy="1016" r="8" class="c0"/>
<circle cx="368" cy="744" r="8" class="c0"/>
<circle cx="658" cy="626" r="8" class="c0"/>
<circle cx="616" cy="538" r="8" class="c0"/>
<circle cx="208" cy="276" r="8" class="c0"/>
<circle cx="112" cy="1130" r="8" class="c0"/>
<circle cx="222" cy="202" r="8" class="c0"/>
<circle cx="100" cy="154" r="8" class="c0"/>
<circle cx="244" cy="794" r="8" class="c0"/>
<circle cx="688" cy="762" r="8" class="c0"/>
<circle cx="456" cy="658" r="8" class="c0"/>
<circle cx="798" cy="668" r="8" class="c0"/>
<circle cx="340" cy="790" r="8" class="c0"/>
<circle cx="210" cy="374" r="8" class="c0"/>
<circle cx="292" cy="190" r="8" class="c0"/>
<circle cx="40" cy="898" r="8" class="c0"/>
<circle cx="540" cy="462" r="8" class="c0"/>
<circle cx="1556" cy="664" r="8" class="c0"/>
<circle cx="8" cy="400" r="8" class="c0"/>
<circle cx="42" cy="354" r="8" class="c0"/>
<circle cx="208" cy="734" r="8" class="c0"/>
<circle cx="82" cy="818" r="8" class="c0"/>
<circle cx="166" cy="522" r="8" class="c0"/>
<circle cx="208" cy="120" r="8" class="c0"/>
<circle cx="96" cy="854" r="8" class="c0"/>
<circle cx="162" cy="816" r="8" class="c0"/>
<circle cx="34" cy="1088" r="8" class="c0"/>
<circle cx="670" cy="610" r="8" class="c0"/>
<circle cx="290" cy="224" r="8" class="c0"/>
<circle cx="246" cy="572" r="8" class="c0"/>
<circle cx="592" cy="610" r="8" class="c0"/>
<circle cx="356" cy="314" r="8" class="c0"/>
<circle cx="8" cy="814" r="8" class="c0"/>
<circle cx="502" cy="496" r="8" class="c0"/>
<circle cx="712" cy="640" r="8" class="c0"/>
<circle cx="734" cy="802" r="8" class="c0"/>
<circle cx="36" cy="518" r="8" class="c0"/>
<circle cx="710" cy="812" r="8" class="c0"/>
<circle cx="74" cy="28" r="8" class="c0"/>
<circle cx="32" cy="192" r="8" class="c0"/>
<circle cx="110" cy="220" r="8" class="c0"/>
<circle cx="78" cy="442" r="8" class="c0"/>
<circle cx="52" cy="554" r="8" class="c0"/>
<circle cx="150" cy="346" r="8" class="c0"/>
<circle cx="312" cy="748" r="8" class="c0"/>
<circle cx="50" cy="614" r="8" class="c0"/>
<circle cx="8" cy="454" r="8" class="c0"/>
<circle cx="728" cy="820" r="8" class="c0"/>
<circle cx="512" cy="424" r="8" class="c0"/>
<circle cx="102" cy="106" r="8" class="c0"/>
<circle cx="12" cy="1134" r="8" class="c0"/>
<circle cx="80" cy="870" r="8" class="c0"/>
<circle cx="1510" cy="662" r="8" class="c0"/>
<circle cx="306" cy="632" r="8" class="c0"/>
<circle cx="404" cy="358" r="8" class="c0"/>
<circle cx="128" cy="78" r="8" class="c0"/>
<circle cx="48" cy="954" r="8" class="c0"/>
<circle cx="604" cy="658" r="8" class="c0"/>
<circle cx="212" cy="220" r="8" class="c0"/>
<circle cx="98" cy="1112" r="8" class="c0"/>
<circle cx="584" cy="570" r="8" class="c0"/>
<circle cx="148" cy="760" r="8" class="c0"/>
<circle cx="194" cy="578" r="8" class="c0"/>
<circle cx="270" cy="552" r="8" class="c0"/>
<circle cx="172" cy="884" r="8" class="c0"/>
<circle cx="330" cy="874" r="8" class="c0"/>
<circle cx="312" cy="780" r="8" class="c0"/>
<circle cx="126" cy="592" r="8" class="c0"/>
<circle cx="1432" cy="670" r="8" class="c0"/>
<circle cx="102" cy="592" r="8" class="c0"/>
<circle cx="722" cy="680" r="8" class="c0"/>
<circle cx="196" cy="302" r="8" class="c0"/>
<circle cx="10" cy="592" r="8" class="c0"/>
<circle cx="456" cy="372" r="8" class="c0"/>
<circle cx="300" cy="826" r="8" class="c0"/>
<circle cx="682" cy="710" r="8" class="c0"/>
<circle cx="268" cy="906" r="8" class="c0"/>
<circle cx="690" cy="678" r="8" class="c0"/>
<circle cx="266" cy="652" r="8" class="c0"/>
<circle cx="372" cy="892" r="8" class="c0"/>
<circle cx="450" cy="452" r="8" class="c0"/>
<circle cx="572" cy="584" r="8" class="c0"/>
<circle cx="1120" cy="658" r="8" class="c0"/>
<circle cx="210" cy="144" r="8" class="c0"/>
<circle cx="40" cy="1156" r="8" class="c0"/>
<circle cx="80" cy="160" r="8" class="c0"/>
<circle cx="302" cy="910" r="8" class="c0"/>
<circle cx="26" cy="508" r="8" class="c0"/>
<circle cx="410" cy="870" r="8" class="c0"/>
<circle cx="286" cy="750" r="8" class="c0"/>
<circle cx="434" cy="846" r="8" class="c0"/>
<circle cx="274" cy="856" r="8" class="c0"/>
<circle cx="662" cy="696" r="8" class="c0"/>
<circle cx="8" cy="228" r="8" class="c0"/>
<circle cx="586" cy="630" r="8" class="c0"/>
<circle cx="58" cy="162" r="8" class="c0"/>
<circle cx="662" cy="570" r="8" class="c0"/>
<circle cx="664" cy="716" r="8" class="c0"/>
<circle cx="118" cy="726" r="8" class="c0"/>
<circle cx="290" cy="900" r="8" class="c0"/>
<circle cx="312" cy="248" r="8" class="c0"/>
<circle cx="134" cy="552" r="8" class="c0"/>
<circle cx="438" cy="770" r="8" class="c0"/>
<circle cx="84" cy="1096" r="6" class="c0"/>
<circle cx="108" cy="738" r="6" class="c0"/>
<circle cx="46" cy="18" r="6" class="c0"/>
<circle cx="126" cy="1138" r="6" class="c0"/>
<circle cx="132" cy="662" r="6" class="c0"/>
<circle cx="66" cy="822" r="6" class="c0"/>
<circle cx="68" cy="392" r="6" class="c0"/>
<circle cx="80" cy="1082" r="6" class="c0"/>
<circle cx="352" cy="678" r="6" class="c0"/>
<circle cx="1334" cy="674" r="6" class="c0"/>
<circle cx="198" cy="668" r="6" class="c0"/>
<circle cx="456" cy="470" r="6" class="c0"/>
<circle cx="230" cy="814" r="6" class="c0"/>
<circle cx="354" cy="294" r="6" class="c0"/>
<circle cx="196" cy="502" r="6" class="c0"/>
<circle cx="8" cy="920" r="6" class="c0"/>
<circle cx="192" cy="624" r="6" class="c0"/>
<circle cx="1204" cy="656" r="6" class="c0"/>
<circle cx="880" cy="672" r="6" class="c0"/>
<circle cx="30" cy="8" r="6" class="c0"/>
<circle cx="42" cy="566" r="6" class="c0"/>
<circle cx="232" cy="380" r="6" class="c0"/>
<circle cx="176" cy="858" r="6" class="c0"/>
<circle cx="148" cy="258" r="6" class="c0"/>
<circle cx="1146" cy="670" r="6" class="c0"/>
<circle cx="32" cy="534" r="6" class="c0"/>
<circle cx="92" cy="694" r="6" class="c0"/>
<circle cx="1464" cy="656" r="6" class="c0"/>
<circle cx="14" cy="38" r="6" class="c0"/>
<circle cx="76" cy="384" r="6" class="c0"/>
<circle cx="208" cy="826" r="6" class="c0"/>
<circle cx="356" cy="338" r="6" class="c0"/>
<circle cx="50" cy="1034" r="6" class="c0"/>
<circle cx="190" cy="148" r="6" class="c0"/>
<circle cx="94" cy="370" r="6" class="c0"/>
<circle cx="182" cy="704" r="6" class="c0"/>
<circle cx="138" cy="914" r="6" class="c0"/>
<circle cx="92" cy="606" r="6" class="c0"/>
<circle cx="142" cy="202" r="6" class="c0"/>
<circle cx="214" cy="346" r="6" class="c0"/>
<circle cx="676" cy="808" r="6" class="c0"/>
<circle cx="8" cy="1050" r="6" class="c0"/>
<circle cx="58" cy="60" r="6" class="c0"/>
<circle cx="100" cy="408" r="6" class="c0"/>
<circle cx="160" cy="462" r="6" class="c0"/>
<circle cx="174" cy="298" r="6" class="c0"/>
<circle cx="366" cy="704" r="6" class="c0"/>
<circle cx="60" cy="660" r="6" class="c0"/>
<circle cx="402" cy="810" r="6" class="c0"/>
<circle cx="146" cy="284" r="6" class="c0"/>
<circle cx="134" cy="190" r="6" class="c0"/>
<circle cx="6" cy="206" r="6" class="c0"/>
<circle cx="126" cy="878" r="6" class="c0"/>
<circle cx="684" cy="830" r="6" class="c0"/>
<circle cx="66" cy="432" r="6" class="c0"/>
<circle cx="328" cy="688" r="6" class="c0"/>
<circle cx="42" cy="1106" r="6" class="c0"/>
<circle cx="92" cy="1064" r="6" class="c0"/>
<circle cx="164" cy="598" r="6" class="c0"/>
<circle cx="94" cy="804" r="6" class="c0"/>
<circle cx="586" cy="512" r="6" class="c0"/>
<circle cx="228" cy="798" r="6" class="c0"/>
<circle cx="164" cy="686" r="6" class="c0"/>
<circle cx="38" cy="126" r="6" class="c0"/>
<circle cx="262" cy="584" r="6" class="c0"/>
<circle cx="28" cy="992" r="6" class="c0"/>
<circle cx="6" cy="384" r="6" class="c0"/>
<circle cx="194" cy="550" r="6" class="c0"/>
<circle cx="386" cy="364" r="6" class="c0"/>
<circle cx="108" cy="548" r="6" class="c0"/>
<circle cx="912" cy="660" r="6" class="c0"/>
<circle cx="1080" cy="674" r="6" class="c0"/>
<circle cx="6" cy="556" r="6" class="c0"/>
<circle cx="1104" cy="656" r="6" class="c0"/>
<circle cx="58" cy="814" r="6" class="c0"/>
<circle cx="466" cy="672" r="6" class="c0"/>
<circle cx="86" cy="560" r="6" class="c0"/>
<circle cx="1338" cy="660" r="6" class="c0"/>
<circle cx="34" cy="230" r="6" class="c0"/>
<circle cx="64" cy="454" r="6" class="c0"/>
<circle cx="204" cy="512" r="6" class="c0"/>
<circle cx="420" cy="780" r="6" class="c0"/>
<circle cx="248" cy="258" r="6" class="c0"/>
<circle cx="6" cy="778" r="6" class="c0"/>
<circle cx="274" cy="888" r="6" class="c0"/>
<circle cx="1400" cy="660" r="6" class="c0"/>
<circle cx="82" cy="730" r="6" class="c0"/>
<circle cx="140" cy="272" r="6" class="c0"/>
<circle cx="972" cy="672" r="6" class="c0"/>
<circle cx="238" cy="848" r="6" class="c0"/>
<circle cx="688" cy="606" r="6" class="c0"/>
<circle cx="54" cy="506" r="6" class="c0"/>
<circle cx="480" cy="404" r="6" class="c0"/>
<circle cx="198" cy="816" r="6" class="c0"/>
<circle cx="756" cy="662" r="6" class="c0"/>
<circle cx="84" cy="48" r="6" class="c0"/>
<circle cx="404" cy="714" r="6" class="c0"/>
<circle cx="226" cy="646" r="6" class="c0"/>
<circle cx="534" cy="558" r="6" class="c0"/>
<circle cx="312" cy="838" r="6" class="c0"/>
<circle cx="112" cy="302" r="6" class="c0"/>
<circle cx="144" cy="470" r="6" class="c0"/>
<circle cx="440" cy="370" r="6" class="c0"/>
<circle cx="316" cy="710" r="6" class="c0"/>
<circle cx="80" cy="398" r="6" class="c0"/>
<circle cx="322" cy="306" r="6" class="c0"/>
<circle cx="410" cy="400" r="6" class="c0"/>
<circle cx="1368" cy="658" r="6" class="c0"/>
<circle cx="1474" cy="672" r="6" class="c0"/>
<circle cx="24" cy="776" r="6" class="c0"/>
<circle cx="12" cy="328" r="6" class="c0"/>
<circle cx="172" cy="444" r="6" class="c0"/>
<circle cx="354" cy="904" r="6" class="c0"/>
<circle cx="628" cy="582" r="6" class="c0"/>
<circle cx="114" cy="806" r="6" class="c0"/>
<circle cx="126" cy="332" r="6" class="c0"/>
<circle cx="164" cy="386" r="6" class="c0"/>
<circle cx="92" cy="174" r="6" class="c0"/>
<circle cx="492" cy="656" r="6" class="c0"/>
<circle cx="28" cy="294" r="6" class="c0"/>
<circle cx="64" cy="1038" r="6" class="c0"/>
<circle cx="222" cy="720" r="6" class="c0"/>
<circle cx="212" cy="652" r="6" class="c0"/>
<circle cx="144" cy="824" r="6" class="c0"/>
<circle cx="36" cy="660" r="6" class="c0"/>
<circle cx="270" cy="700" r="6" class="c0"/>
<circle cx="46" cy="66" r="6" class="c0"/>
<circle cx="6" cy="958" r="6" class="c0"/>
<circle cx="426" cy="410" r="6" class="c0"/>
<circle cx="694" cy="802" r="6" class="c0"/>
<circle cx="92" cy="1026" r="6" class="c0"/>
<circle cx="884" cy="658" r="6" class="c0"/>
<circle cx="158" cy="582" r="6" class="c0"/>
<circle cx="20" cy="952" r="6" class="c0"/>
<circle cx="112" cy="26" r="6" class="c0"/>
<circle cx="76" cy="532" r="6" class="c0"/>
<circle cx="32" cy="550" r="6" class="c0"/>
<circle cx="280" cy="782" r="6" class="c0"/>
<circle cx="742" cy="678" r="6" class="c0"/>
<circle cx="66" cy="632" r="6" class="c0"/>
<circle cx="346" cy="304" r="6" class="c0"/>
<circle cx="736" cy="720" r="6" class="c0"/>
<circle cx="40" cy="598" r="6" class="c0"/>
<circle cx="216" cy="406" r="6" class="c0"/>
<circle cx="82" cy="332" r="6" class="c0"/>
<circle cx="56" cy="422" r="6" class="c0"/>
<circle cx="388" cy="348" r="6" class="c0"/>
<circle cx="110" cy="634" r="6" class="c0"/>
<circle cx="184" cy="270" r="6" class="c0"/>
<circle cx="102" cy="1050" r="6" class="c0"/>
<circle cx="28" cy="804" r="6" class="c0"/>
<circle cx="180" cy="760" r="6" class="c0"/>
<circle cx="450" cy="842" r="6" class="c0"/>
<circle cx="54" cy="482" r="6" class="c0"/>
<circle cx="490" cy="672" r="6" class="c0"/>
<circle cx="160" cy="68" r="6" class="c0"/>
<circle cx="330" cy="646" r="6" class="c0"/>
<circle cx="696" cy="742" r="6" class="c0"/>
<circle cx="170" cy="496" r="6" class="c0"/>
<circle cx="1214" cy="670" r="6" class="c0"/>
<circle cx="1188" cy="656" r="6" class="c0"/>
<circle cx="608" cy="628" r="6" class="c0"/>
<circle cx="6" cy="610" r="6" class="c0"/>
<circle cx="312" cy="298" r="6" class="c0"/>
<circle cx="448" cy="672" r="6" class="c0"/>
<circle cx="1604" cy="658" r="6" class="c0"/>
<circle cx="552" cy="672" r="6" class="c0"/>
<circle cx="528" cy="486" r="6" class="c0"/>
<circle cx="378" cy="692" r="6" class="c0"/>
<circle cx="978" cy="658" r="6" class="c0"/>
<circle cx="1406" cy="674" r="6" class="c0"/>
<circle cx="118" cy="324" r="6" class="c0"/>
<circle cx="72" cy="766" r="6" class="c0"/>
<circle cx="334" cy="268" r="6" class="c0"/>
<circle cx="200" cy="862" r="6" class="c0"/>
<circle cx="28" cy="668" r="6" class="c0"/>
<circle cx="244" cy="836" r="6" class="c0"/>
<circle cx="284" cy="622" r="6" class="c0"/>
<circle cx="142" cy="650" r="6" class="c0"/>
<circle cx="418" cy="886" r="6" class="c0"/>
<circle cx="486" cy="452" r="6" class="c0"/>
<circle cx="536" cy="520" r="6" class="c0"/>
<circle cx="78" cy="900" r="6" class="c0"/>
<circle cx="250" cy="554" r="6" class="c0"/>
<circle cx="254" cy="270" r="6" class="c0"/>
<circle cx="374" cy="282" r="6" class="c0"/>
<circle cx="714" cy="712" r="6" class="c0"/>
<circle cx="64" cy="306" r="6" class="c0"/>
<circle cx="192" cy="338" r="6" class="c0"/>
<circle cx="364" cy="914" r="6" class="c0"/>
<circle cx="56" cy="794" r="6" class="c0"/>
<circle cx="518" cy="494" r="6" class="c0"/>
<circle cx="122" cy="508" r="6" class="c0"/>
<circle cx="164" cy="288" r="6" class="c0"/>
<circle cx="110" cy="92" r="6" class="c0"/>
<circle cx="166" cy="700" r="6" class="c0"/>
<circle cx="102" cy="680" r="6" class="c0"/>
<circle cx="272" cy="172" r="6" class="c0"/>
<circle cx="206" cy="588" r="6" class="c0"/>
<circle cx="628" cy="518" r="6" class="c0"/>
<circle cx="692" cy="784" r="6" class="c0"/>
<circle cx="150" cy="192" r="6" class="c0"/>
<circle cx="68" cy="668" r="6" class="c0"/>
<circle cx="684" cy="846" r="6" class="c0"/>
<circle cx="114" cy="360" r="6" class="c0"/>
<circle cx="328" cy="252" r="6" class="c0"/>
<circle cx="6" cy="1064" r="6" class="c0"/>
<circle cx="1246" cy="674" r="6" class="c0"/>
<circle cx="132" cy="264" r="6" class="c0"/>
<circle cx="724" cy="768" r="6" class="c0"/>
<circle cx="466" cy="458" r="6" class="c0"/>
<circle cx="164" cy="252" r="6" class="c0"/>
<circle cx="378" cy="850" r="6" class="c0"/>
<circle cx="186" cy="662" r="6" class="c0"/>
<circle cx="484" cy="500" r="6" class="c0"/>
<circle cx="50" cy="736" r="6" class="c0"/>
<circle cx="188" cy="96" r="6" class="c0"/>
<circle cx="130" cy="62" r="6" class="c0"/>
<circle cx="1112" cy="672" r="6" class="c0"/>
<circle cx="518" cy="514" r="6" class="c0"/>
<circle cx="342" cy="276" r="6" class="c0"/>
<circle cx="318" cy="324" r="6" class="c0"/>
<circle cx="546" cy="570" r="6" class="c0"/>
<circle cx="412" cy="820" r="6" class="c0"/>
<circle cx="674" cy="592" r="6" class="c0"/>
<circle cx="332" cy="314" r="6" class="c0"/>
<circle cx="72" cy="782" r="6" class="c0"/>
<circle cx="18" cy="1040" r="6" class="c0"/>
<circle cx="76" cy="552" r="6" class="c0"/>
<circle cx="390" cy="656" r="6" class="c0"/>
<circle cx="18" cy="412" r="6" class="c0"/>
<circle cx="212" cy="310" r="6" class="c0"/>
<circle cx="20" cy="442" r="6" class="c0"/>
<circle cx="24" cy="542" r="6" class="c0"/>
<circle cx="52" cy="138" r="6" class="c0"/>
<circle cx="632" cy="626" r="6" class="c0"/>
<circle cx="378" cy="356" r="6" class="c0"/>
<circle cx="400" cy="700" r="6" class="c0"/>
<circle cx="394" cy="400" r="6" class="c0"/>
<circle cx="106" cy="442" r="6" class="c0"/>
<circle cx="34" cy="476" r="6" class="c0"/>
<circle cx="392" cy="884" r="6" class="c0"/>
<circle cx="152" cy="514" r="6" class="c0"/>
<circle cx="194" cy="918" r="6" class="c0"/>
<circle cx="414" cy="656" r="6" class="c0"/>
<circle cx="180" cy="216" r="6" class="c0"/>
<circle cx="696" cy="622" r="6" class="c0"/>
<circle cx="154" cy="734" r="6" class="c0"/>
<circle cx="148" cy="44" r="6" class="c0"/>
<circle cx="394" cy="774" r="6" class="c0"/>
<circle cx="516" cy="656" r="6" class="c0"/>
<circle cx="6" cy="340" r="6" class="c0"/>
<circle cx="1574" cy="674" r="6" class="c0"/>
<circle cx="32" cy="1176" r="6" class="c0"/>
<circle cx="6" cy="744" r="6" class="c0"/>
<circle cx="332" cy="336" r="6" class="c0"/>
<circle cx="418" cy="852" r="6" class="c0"/>
<circle cx="574" cy="674" r="6" class="c0"/>
<circle cx="34" cy="920" r="6" class="c0"/>
<circle cx="188" cy="490" r="6" class="c0"/>
<circle cx="426" cy="898" r="6" class="c0"/>
<circle cx="214" cy="526" r="6" class="c0"/>
<circle cx="10" cy="1150" r="6" class="c0"/>
<circle cx="62" cy="910" r="6" class="c0"/>
<circle cx="128" cy="26" r="6" class="c0"/>
<circle cx="442" cy="860" r="6" class="c0"/>
<circle cx="242" cy="528" r="6" class="c0"/>
<circle cx="354" cy="850" r="6" class="c0"/>
<circle cx="230" cy="160" r="6" class="c0"/>
<circle cx="48" cy="1000" r="6" class="c0"/>
<circle cx="1032" cy="656" r="6" class="c0"/>
<circle cx="6" cy="470" r="6" class="c0"/>
<circle cx="234" cy="256" r="6" class="c0"/>
<circle cx="26" cy="138" r="6" class="c0"/>
<circle cx="122" cy="158" r="6" class="c0"/>
<circle cx="302" cy="236" r="6" class="c0"/>
<circle cx="68" cy="46" r="6" class="c0"/>
<circle cx="692" cy="590" r="6" class="c0"/>
<circle cx="90" cy="32" r="6" class="c0"/>
<circle cx="1276" cy="656" r="6" class="c0"/>
<circle cx="58" cy="1026" r="6" class="c0"/>
<circle cx="38" cy="1048" r="6" class="c0"/>
<circle cx="300" cy="288" r="6" class="c0"/>
<circle cx="102" cy="512" r="6" class="c0"/>
<circle cx="492" cy="390" r="6" class="c0"/>
<circle cx="468" cy="388" r="6" class="c0"/>
<circle cx="472" cy="416" r="6" class="c0"/>
<circle cx="232" cy="538" r="6" class="c0"/>
<circle cx="368" cy="652" r="6" class="c0"/>
<circle cx="54" cy="26" r="6" class="c0"/>
<circle cx="60" cy="384" r="6" class="c0"/>
<circle cx="620" cy="636" r="6" class="c0"/>
<circle cx="522" cy="672" r="6" class="c0"/>
<circle cx="186" cy="184" r="6" class="c0"/>
<circle cx="6" cy="30" r="6" class="c0"/>
<circle cx="332" cy="744" r="6" class="c0"/>
<circle cx="134" cy="870" r="6" class="c0"/>
<circle cx="758" cy="704" r="6" class="c0"/>
<circle cx="304" cy="310" r="6" class="c0"/>
<circle cx="666" cy="764" r="6" class="c0"/>
<circle cx="316" cy="652" r="6" class="c0"/>
<circle cx="6" cy="368" r="6" class="c0"/>
<circle cx="66" cy="1080" r="6" class="c0"/>
<circle cx="360" cy="792" r="6" class="c0"/>
<circle cx="230" cy="600" r="6" class="c0"/>
<circle cx="264" cy="534" r="6" class="c0"/>
<circle cx="192" cy="386" r="6" class="c0"/>
<circle cx="160" cy="482" r="6" class="c0"/>
<circle cx="76" cy="1154" r="6" class="c0"/>
<circle cx="188" cy="208" r="6" class="c0"/>
<circle cx="206" cy="414" r="6" class="c0"/>
<circle cx="52" cy="292" r="6" class="c0"/>
<circle cx="410" cy="306" r="6" class="c0"/>
<circle cx="1140" cy="656" r="6" class="c0"/>
<circle cx="478" cy="464" r="6" class="c0"/>
<circle cx="556" cy="498" r="6" class="c0"/>
<circle cx="6" cy="246" r="6" class="c0"/>
<circle cx="262" cy="692" r="6" class="c0"/>
<circle cx="428" cy="754" r="6" class="c0"/>
<circle cx="1444" cy="656" r="6" class="c0"/>
<circle cx="146" cy="134" r="6" class="c0"/>
<circle cx="118" cy="1098" r="6" class="c0"/>
</svg>
