<?xml version="1.0" encoding="utf-8"?>
<svg xmlns="http://www.w3.org/2000/svg"
     xmlns:xlink="http://www.w3.org/1999/xlink" width="1920" height="1440" >

            <defs>
            <style type="text/css"><![CDATA[
circle {stroke: none;}
.c0 {fill: #000000;}
]]></style>
            </defs>
<rect x="0" y="0" width="1920" height="1440" fill="white"/>
<circle cx="1814" cy="620" r="14" class="c0"/>
<circle cx="912" cy="1368" r="14" class="c0"/>
<circle cx="116" cy="644" r="12" class="c0"/>
<circle cx="54" cy="618" r="12" class="c0"/>
<circle cx="230" cy="628" r="12" class="c0"/>
<circle cx="970" cy="1298" r="12" class="c0"/>
<circle cx="1446" cy="660" r="12" class="c0"/>
<circle cx="1882" cy="1374" r="12" class="c0"/>
<circle cx="1634" cy="1404" r="12" class="c0"/>
<circle cx="824" cy="1190" r="12" class="c0"/>
<circle cx="234" cy="460" r="12" class="c0"/>
<circle cx="150" cy="922" r="12" class="c0"/>
<circle cx="156" cy="774" r="12" class="c0"/>
<circle cx="258" cy="798" r="12" class="c0"/>
<circle cx="28" cy="822" r="12" class="c0"/>
<circle cx="94" cy="944" r="12" class="c0"/>
<circle cx="14" cy="696" r="12" class="c0"/>
<circle cx="280" cy="812" r="12" class="c0"/>
<circle cx="228" cy="600" r="12" class="c0"/>
<circle cx="54" cy="568" r="12" class="c0"/>
<circle cx="164" cy="606" r="12" class="c0"/>
<circle cx="78" cy="498" r="12" class="c0"/>
<circle cx="1828" cy="722" r="12" class="c0"/>
<circle cx="12" cy="790" r="12" class="c0"/>
<circle cx="72" cy="396" r="12" class="c0"/>
<circle cx="1892" cy="638" r="12" class="c0"/>
<circle cx="96" cy="1038" r="12" class="c0"/>
<circle cx="1010" cy="1272" r="12" class="c0"/>
<circle cx="1416" cy="644" r="12" class="c0"/>
<circle cx="198" cy="638" r="12" class="c0"/>
<circle cx="994" cy="1106" r="12" class="c0"/>
<circle cx="78" cy="666" r="12" class="c0"/>
<circle cx="72" cy="584" r="12" class="c0"/>
<circle cx="136" cy="822" r="12" class="c0"/>
<circle cx="268" cy="916" r="12" class="c0"/>
<circle cx="1630" cy="672" r="12" class="c0"/>
<circle cx="402" cy="1414" r="12" class="c0"/>
<circle cx="938" cy="1246" r="12" class="c0"/>
<circle cx="272" cy="752" r="12" class="c0"/>
<circle cx="908" cy="1262" r="12" class="c0"/>
<circle cx="300" cy="780" r="12" class="c0"/>
<circle cx="1398" cy="676" r="12" class="c0"/>
<circle cx="1890" cy="860" r="12" class="c0"/>
<circle cx="932" cy="1014" r="12" class="c0"/>
<circle cx="52" cy="668" r="12" class="c0"/>
<circle cx="94" cy="904" r="12" class="c0"/>
<circle cx="916" cy="1166" r="12" class="c0"/>
<circle cx="914" cy="1124" r="12" class="c0"/>
<circle cx="834" cy="1126" r="12" class="c0"/>
<circle cx="166" cy="656" r="12" class="c0"/>
<circle cx="190" cy="688" r="12" class="c0"/>
<circle cx="84" cy="430" r="12" class="c0"/>
<circle cx="1886" cy="732" r="12" class="c0"/>
<circle cx="100" cy="746" r="12" class="c0"/>
<circle cx="126" cy="604" r="12" class="c0"/>
<circle cx="936" cy="1320" r="12" class="c0"/>
<circle cx="118" cy="936" r="12" class="c0"/>
<circle cx="50" cy="926" r="12" class="c0"/>
<circle cx="150" cy="964" r="12" class="c0"/>
<circle cx="244" cy="868" r="12" class="c0"/>
<circle cx="1656" cy="1426" r="12" class="c0"/>
<circle cx="162" cy="520" r="12" class="c0"/>
<circle cx="304" cy="854" r="12" class="c0"/>
<circle cx="158" cy="874" r="12" class="c0"/>
<circle cx="186" cy="754" r="12" class="c0"/>
<circle cx="178" cy="792" r="12" class="c0"/>
<circle cx="252" cy="658" r="12" class="c0"/>
<circle cx="908" cy="998" r="12" class="c0"/>
<circle cx="1868" cy="780" r="12" class="c0"/>
<circle cx="236" cy="840" r="12" class="c0"/>
<circle cx="396" cy="1378" r="12" class="c0"/>
<circle cx="1770" cy="640" r="12" class="c0"/>
<circle cx="440" cy="1418" r="10" class="c0"/>
<circle cx="84" cy="884" r="10" class="c0"/>
<circle cx="438" cy="1360" r="10" class="c0"/>
<circle cx="102" cy="856" r="10" class="c0"/>
<circle cx="946" cy="1074" r="10" class="c0"/>
<circle cx="36" cy="882" r="10" class="c0"/>
<circle cx="1822" cy="758" r="10" class="c0"/>
<circle cx="184" cy="728" r="10" class="c0"/>
<circle cx="202" cy="840" r="10" class="c0"/>
<circle cx="104" cy="714" r="10" class="c0"/>
<circle cx="238" cy="762" r="10" class="c0"/>
<circle cx="302" cy="684" r="10" class="c0"/>
<circle cx="1632" cy="1358" r="10" class="c0"/>
<circle cx="102" cy="628" r="10" class="c0"/>
<circle cx="88" cy="988" r="10" class="c0"/>
<circle cx="160" cy="824" r="10" class="c0"/>
<circle cx="744" cy="1002" r="10" class="c0"/>
<circle cx="108" cy="588" r="10" class="c0"/>
<circle cx="300" cy="752" r="10" class="c0"/>
<circle cx="130" cy="890" r="10" class="c0"/>
<circle cx="140" cy="1038" r="10" class="c0"/>
<circle cx="266" cy="630" r="10" class="c0"/>
<circle cx="46" cy="748" r="10" class="c0"/>
<circle cx="218" cy="700" r="10" class="c0"/>
<circle cx="34" cy="954" r="10" class="c0"/>
<circle cx="180" cy="954" r="10" class="c0"/>
<circle cx="30" cy="906" r="10" class="c0"/>
<circle cx="462" cy="1422" r="10" class="c0"/>
<circle cx="986" cy="1076" r="10" class="c0"/>
<circle cx="270" cy="718" r="10" class="c0"/>
<circle cx="1364" cy="636" r="10" class="c0"/>
<circle cx="1896" cy="678" r="10" class="c0"/>
<circle cx="1734" cy="708" r="10" class="c0"/>
<circle cx="20" cy="1028" r="10" class="c0"/>
<circle cx="1572" cy="1426" r="10" class="c0"/>
<circle cx="228" cy="808" r="10" class="c0"/>
<circle cx="988" cy="1012" r="10" class="c0"/>
<circle cx="1004" cy="1234" r="10" class="c0"/>
<circle cx="12" cy="456" r="10" class="c0"/>
<circle cx="902" cy="1314" r="10" class="c0"/>
<circle cx="1464" cy="1392" r="10" class="c0"/>
<circle cx="1814" cy="670" r="10" class="c0"/>
<circle cx="1546" cy="1422" r="10" class="c0"/>
<circle cx="86" cy="458" r="10" class="c0"/>
<circle cx="196" cy="912" r="10" class="c0"/>
<circle cx="48" cy="470" r="10" class="c0"/>
<circle cx="204" cy="582" r="10" class="c0"/>
<circle cx="180" cy="836" r="10" class="c0"/>
<circle cx="108" cy="780" r="10" class="c0"/>
<circle cx="1680" cy="1400" r="10" class="c0"/>
<circle cx="1852" cy="588" r="10" class="c0"/>
<circle cx="142" cy="1014" r="10" class="c0"/>
<circle cx="1726" cy="672" r="10" class="c0"/>
<circle cx="1660" cy="1352" r="10" class="c0"/>
<circle cx="964" cy="1324" r="10" class="c0"/>
<circle cx="1386" cy="656" r="10" class="c0"/>
<circle cx="908" cy="1412" r="10" class="c0"/>
<circle cx="290" cy="928" r="10" class="c0"/>
<circle cx="896" cy="1070" r="10" class="c0"/>
<circle cx="208" cy="794" r="10" class="c0"/>
<circle cx="180" cy="532" r="10" class="c0"/>
<circle cx="1864" cy="804" r="10" class="c0"/>
<circle cx="346" cy="1408" r="10" class="c0"/>
<circle cx="878" cy="1300" r="10" class="c0"/>
<circle cx="1820" cy="782" r="10" class="c0"/>
<circle cx="18" cy="532" r="10" class="c0"/>
<circle cx="130" cy="1426" r="10" class="c0"/>
<circle cx="884" cy="1354" r="10" class="c0"/>
<circle cx="142" cy="700" r="10" class="c0"/>
<circle cx="38" cy="774" r="10" class="c0"/>
<circle cx="62" cy="644" r="10" class="c0"/>
<circle cx="284" cy="878" r="10" class="c0"/>
<circle cx="1476" cy="1418" r="10" class="c0"/>
<circle cx="864" cy="1136" r="10" class="c0"/>
<circle cx="970" cy="978" r="10" class="c0"/>
<circle cx="154" cy="848" r="10" class="c0"/>
<circle cx="1906" cy="656" r="10" class="c0"/>
<circle cx="1694" cy="1414" r="10" class="c0"/>
<circle cx="1002" cy="1374" r="10" class="c0"/>
<circle cx="892" cy="1334" r="10" class="c0"/>
<circle cx="22" cy="660" r="10" class="c0"/>
<circle cx="12" cy="722" r="10" class="c0"/>
<circle cx="940" cy="1102" r="10" class="c0"/>
<circle cx="888" cy="1384" r="10" class="c0"/>
<circle cx="114" cy="560" r="10" class="c0"/>
<circle cx="1896" cy="560" r="10" class="c0"/>
<circle cx="154" cy="556" r="10" class="c0"/>
<circle cx="110" cy="476" r="10" class="c0"/>
<circle cx="1604" cy="1400" r="10" class="c0"/>
<circle cx="944" cy="1344" r="10" class="c0"/>
<circle cx="362" cy="1422" r="10" class="c0"/>
<circle cx="120" cy="908" r="10" class="c0"/>
<circle cx="256" cy="738" r="10" class="c0"/>
<circle cx="1866" cy="1428" r="10" class="c0"/>
<circle cx="192" cy="980" r="10" class="c0"/>
<circle cx="184" cy="892" r="10" class="c0"/>
<circle cx="1372" cy="1422" r="10" class="c0"/>
<circle cx="1846" cy="704" r="10" class="c0"/>
<circle cx="128" cy="862" r="10" class="c0"/>
<circle cx="870" cy="1374" r="10" class="c0"/>
<circle cx="10" cy="936" r="10" class="c0"/>
<circle cx="836" cy="1160" r="10" class="c0"/>
<circle cx="1860" cy="610" r="10" class="c0"/>
<circle cx="1892" cy="832" r="10" class="c0"/>
<circle cx="234" cy="714" r="10" class="c0"/>
<circle cx="1766" cy="694" r="10" class="c0"/>
<circle cx="98" cy="656" r="10" class="c0"/>
<circle cx="928" cy="1426" r="10" class="c0"/>
<circle cx="112" cy="1004" r="10" class="c0"/>
<circle cx="76" cy="790" r="10" class="c0"/>
<circle cx="108" cy="538" r="10" class="c0"/>
<circle cx="906" cy="1210" r="10" class="c0"/>
<circle cx="42" cy="796" r="10" class="c0"/>
<circle cx="90" cy="550" r="10" class="c0"/>
<circle cx="276" cy="610" r="10" class="c0"/>
<circle cx="970" cy="1248" r="10" class="c0"/>
<circle cx="1544" cy="670" r="10" class="c0"/>
<circle cx="106" cy="500" r="10" class="c0"/>
<circle cx="864" cy="1182" r="10" class="c0"/>
<circle cx="12" cy="634" r="10" class="c0"/>
<circle cx="86" cy="520" r="10" class="c0"/>
<circle cx="964" cy="1172" r="10" class="c0"/>
<circle cx="272" cy="690" r="10" class="c0"/>
<circle cx="300" cy="906" r="10" class="c0"/>
<circle cx="98" cy="804" r="10" class="c0"/>
<circle cx="1536" cy="700" r="10" class="c0"/>
<circle cx="888" cy="1168" r="10" class="c0"/>
<circle cx="958" cy="1222" r="10" class="c0"/>
<circle cx="1574" cy="682" r="10" class="c0"/>
<circle cx="262" cy="852" r="10" class="c0"/>
<circle cx="128" cy="518" r="10" class="c0"/>
<circle cx="116" cy="696" r="10" class="c0"/>
<circle cx="1896" cy="776" r="10" class="c0"/>
<circle cx="164" cy="904" r="10" class="c0"/>
<circle cx="1580" cy="1394" r="10" class="c0"/>
<circle cx="134" cy="992" r="10" class="c0"/>
<circle cx="1604" cy="704" r="10" class="c0"/>
<circle cx="882" cy="1114" r="10" class="c0"/>
<circle cx="32" cy="506" r="10" class="c0"/>
<circle cx="168" cy="990" r="10" class="c0"/>
<circle cx="80" cy="614" r="10" class="c0"/>
<circle cx="1474" cy="652" r="10" class="c0"/>
<circle cx="152" cy="634" r="10" class="c0"/>
<circle cx="904" cy="1292" r="10" class="c0"/>
<circle cx="1800" cy="724" r="10" class="c0"/>
<circle cx="1850" cy="658" r="10" class="c0"/>
<circle cx="16" cy="564" r="10" class="c0"/>
<circle cx="986" cy="1404" r="10" class="c0"/>
<circle cx="1876" cy="568" r="10" class="c0"/>
<circle cx="20" cy="762" r="10" class="c0"/>
<circle cx="890" cy="1198" r="10" class="c0"/>
<circle cx="18" cy="378" r="10" class="c0"/>
<circle cx="1454" cy="682" r="10" class="c0"/>
<circle cx="210" cy="740" r="10" class="c0"/>
<circle cx="48" cy="440" r="10" class="c0"/>
<circle cx="60" cy="994" r="10" class="c0"/>
<circle cx="1840" cy="602" r="10" class="c0"/>
<circle cx="1856" cy="756" r="10" class="c0"/>
<circle cx="198" cy="776" r="10" class="c0"/>
<circle cx="222" cy="904" r="10" class="c0"/>
<circle cx="1722" cy="1420" r="10" class="c0"/>
<circle cx="1476" cy="694" r="10" class="c0"/>
<circle cx="148" cy="672" r="10" class="c0"/>
<circle cx="446" cy="1388" r="10" class="c0"/>
<circle cx="950" cy="1272" r="10" class="c0"/>
<circle cx="1782" cy="742" r="10" class="c0"/>
<circle cx="206" cy="668" r="10" class="c0"/>
<circle cx="1886" cy="808" r="10" class="c0"/>
<circle cx="994" cy="1334" r="10" class="c0"/>
<circle cx="18" cy="600" r="10" class="c0"/>
<circle cx="1586" cy="1358" r="10" class="c0"/>
<circle cx="374" cy="1388" r="10" class="c0"/>
<circle cx="974" cy="1142" r="10" class="c0"/>
<circle cx="1414" cy="612" r="10" class="c0"/>
<circle cx="996" cy="1302" r="10" class="c0"/>
<circle cx="918" cy="974" r="10" class="c0"/>
<circle cx="1846" cy="740" r="8" class="c0"/>
<circle cx="946" cy="1128" r="8" class="c0"/>
<circle cx="938" cy="1296" r="8" class="c0"/>
<circle cx="150" cy="486" r="8" class="c0"/>
<circle cx="46" cy="362" r="8" class="c0"/>
<circle cx="58" cy="736" r="8" class="c0"/>
<circle cx="960" cy="1010" r="8" class="c0"/>
<circle cx="806" cy="1170" r="8" class="c0"/>
<circle cx="306" cy="730" r="8" class="c0"/>
<circle cx="10" cy="882" r="8" class="c0"/>
<circle cx="250" cy="682" r="8" class="c0"/>
<circle cx="1494" cy="1396" r="8" class="c0"/>
<circle cx="76" cy="914" r="8" class="c0"/>
<circle cx="1018" cy="1196" r="8" class="c0"/>
<circle cx="30" cy="406" r="8" class="c0"/>
<circle cx="132" cy="480" r="8" class="c0"/>
<circle cx="1568" cy="1330" r="8" class="c0"/>
<circle cx="220" cy="882" r="8" class="c0"/>
<circle cx="44" cy="522" r="8" class="c0"/>
<circle cx="1680" cy="704" r="8" class="c0"/>
<circle cx="1008" cy="1136" r="8" class="c0"/>
<circle cx="888" cy="1230" r="8" class="c0"/>
<circle cx="26" cy="846" r="8" class="c0"/>
<circle cx="62" cy="702" r="8" class="c0"/>
<circle cx="1510" cy="654" r="8" class="c0"/>
<circle cx="1758" cy="1408" r="8" class="c0"/>
<circle cx="132" cy="740" r="8" class="c0"/>
<circle cx="308" cy="818" r="8" class="c0"/>
<circle cx="136" cy="654" r="8" class="c0"/>
<circle cx="120" cy="756" r="8" class="c0"/>
<circle cx="922" cy="1082" r="8" class="c0"/>
<circle cx="102" cy="676" r="8" class="c0"/>
<circle cx="1656" cy="684" r="8" class="c0"/>
<circle cx="906" cy="1022" r="8" class="c0"/>
<circle cx="36" cy="352" r="8" class="c0"/>
<circle cx="60" cy="888" r="8" class="c0"/>
<circle cx="22" cy="472" r="8" class="c0"/>
<circle cx="1502" cy="1430" r="8" class="c0"/>
<circle cx="1820" cy="648" r="8" class="c0"/>
<circle cx="78" cy="762" r="8" class="c0"/>
<circle cx="1524" cy="1390" r="8" class="c0"/>
<circle cx="986" cy="1038" r="8" class="c0"/>
<circle cx="190" cy="936" r="8" class="c0"/>
<circle cx="878" cy="1150" r="8" class="c0"/>
<circle cx="1680" cy="1374" r="8" class="c0"/>
<circle cx="160" cy="720" r="8" class="c0"/>
<circle cx="166" cy="572" r="8" class="c0"/>
<circle cx="1882" cy="704" r="8" class="c0"/>
<circle cx="986" cy="1168" r="8" class="c0"/>
<circle cx="70" cy="472" r="8" class="c0"/>
<circle cx="1500" cy="668" r="8" class="c0"/>
<circle cx="942" cy="1152" r="8" class="c0"/>
<circle cx="118" cy="450" r="8" class="c0"/>
<circle cx="38" cy="646" r="8" class="c0"/>
<circle cx="104" cy="824" r="8" class="c0"/>
<circle cx="882" cy="1426" r="8" class="c0"/>
<circle cx="1844" cy="678" r="8" class="c0"/>
<circle cx="16" cy="492" r="8" class="c0"/>
<circle cx="1390" cy="608" r="8" class="c0"/>
<circle cx="808" cy="1142" r="8" class="c0"/>
<circle cx="954" cy="1368" r="8" class="c0"/>
<circle cx="1448" cy="632" r="8" class="c0"/>
<circle cx="1644" cy="716" r="8" class="c0"/>
<circle cx="962" cy="1060" r="8" class="c0"/>
<circle cx="966" cy="1346" r="8" class="c0"/>
<circle cx="260" cy="776" r="8" class="c0"/>
<circle cx="906" cy="1236" r="8" class="c0"/>
<circle cx="158" cy="740" r="8" class="c0"/>
<circle cx="1000" cy="1188" r="8" class="c0"/>
<circle cx="1408" cy="1422" r="8" class="c0"/>
<circle cx="46" cy="1016" r="8" class="c0"/>
<circle cx="68" cy="722" r="8" class="c0"/>
<circle cx="948" cy="1048" r="8" class="c0"/>
<circle cx="190" cy="812" r="8" class="c0"/>
<circle cx="932" cy="990" r="8" class="c0"/>
<circle cx="204" cy="718" r="8" class="c0"/>
<circle cx="956" cy="1406" r="8" class="c0"/>
<circle cx="276" cy="654" r="8" class="c0"/>
<circle cx="968" cy="1108" r="8" class="c0"/>
<circle cx="880" cy="1322" r="8" class="c0"/>
<circle cx="948" cy="1194" r="8" class="c0"/>
<circle cx="914" cy="1100" r="8" class="c0"/>
<circle cx="176" cy="560" r="8" class="c0"/>
<circle cx="128" cy="676" r="8" class="c0"/>
<circle cx="78" cy="862" r="8" class="c0"/>
<circle cx="1888" cy="580" r="8" class="c0"/>
<circle cx="1646" cy="1372" r="8" class="c0"/>
<circle cx="932" cy="1356" r="8" class="c0"/>
<circle cx="166" cy="696" r="8" class="c0"/>
<circle cx="86" cy="846" r="8" class="c0"/>
<circle cx="1838" cy="634" r="8" class="c0"/>
<circle cx="14" cy="346" r="8" class="c0"/>
<circle cx="48" cy="396" r="8" class="c0"/>
<circle cx="90" cy="966" r="8" class="c0"/>
<circle cx="1658" cy="1400" r="8" class="c0"/>
<circle cx="194" cy="610" r="8" class="c0"/>
<circle cx="234" cy="786" r="8" class="c0"/>
<circle cx="1750" cy="1424" r="8" class="c0"/>
<circle cx="34" cy="582" r="8" class="c0"/>
<circle cx="1626" cy="1428" r="8" class="c0"/>
<circle cx="1418" cy="666" r="8" class="c0"/>
<circle cx="1910" cy="750" r="8" class="c0"/>
<circle cx="1524" cy="1430" r="8" class="c0"/>
<circle cx="186" cy="496" r="8" class="c0"/>
<circle cx="28" cy="446" r="8" class="c0"/>
<circle cx="208" cy="464" r="8" class="c0"/>
<circle cx="952" cy="986" r="8" class="c0"/>
<circle cx="1690" cy="1358" r="8" class="c0"/>
<circle cx="1790" cy="662" r="8" class="c0"/>
<circle cx="426" cy="1374" r="8" class="c0"/>
<circle cx="1414" cy="694" r="8" class="c0"/>
<circle cx="252" cy="820" r="8" class="c0"/>
<circle cx="40" cy="858" r="8" class="c0"/>
<circle cx="924" cy="1390" r="8" class="c0"/>
<circle cx="154" cy="1054" r="8" class="c0"/>
<circle cx="24" cy="870" r="8" class="c0"/>
<circle cx="70" cy="812" r="8" class="c0"/>
<circle cx="928" cy="1040" r="8" class="c0"/>
<circle cx="1782" cy="714" r="8" class="c0"/>
<circle cx="8" cy="970" r="8" class="c0"/>
<circle cx="1700" cy="1372" r="8" class="c0"/>
<circle cx="62" cy="774" r="8" class="c0"/>
<circle cx="978" cy="1230" r="8" class="c0"/>
<circle cx="1436" cy="1424" r="8" class="c0"/>
<circle cx="130" cy="766" r="8" class="c0"/>
<circle cx="948" cy="966" r="8" class="c0"/>
<circle cx="1612" cy="1348" r="8" class="c0"/>
<circle cx="1770" cy="670" r="8" class="c0"/>
<circle cx="376" cy="1410" r="8" class="c0"/>
<circle cx="928" cy="1228" r="8" class="c0"/>
<circle cx="896" cy="1098" r="8" class="c0"/>
<circle cx="114" cy="980" r="8" class="c0"/>
<circle cx="250" cy="618" r="8" class="c0"/>
<circle cx="1796" cy="700" r="8" class="c0"/>
<circle cx="412" cy="1394" r="8" class="c0"/>
<circle cx="216" cy="852" r="8" class="c0"/>
<circle cx="150" cy="588" r="8" class="c0"/>
<circle cx="32" cy="994" r="8" class="c0"/>
<circle cx="1890" cy="616" r="8" class="c0"/>
<circle cx="798" cy="1104" r="8" class="c0"/>
<circle cx="1526" cy="1412" r="8" class="c0"/>
<circle cx="928" cy="1282" r="8" class="c0"/>
<circle cx="152" cy="802" r="8" class="c0"/>
<circle cx="328" cy="706" r="8" class="c0"/>
<circle cx="62" cy="538" r="8" class="c0"/>
<circle cx="196" cy="484" r="8" class="c0"/>
<circle cx="1382" cy="624" r="8" class="c0"/>
<circle cx="1742" cy="688" r="8" class="c0"/>
<circle cx="716" cy="960" r="8" class="c0"/>
<circle cx="862" cy="1412" r="8" class="c0"/>
<circle cx="844" cy="1098" r="8" class="c0"/>
<circle cx="1760" cy="732" r="8" class="c0"/>
<circle cx="1696" cy="694" r="8" class="c0"/>
<circle cx="884" cy="1026" r="8" class="c0"/>
<circle cx="168" cy="476" r="8" class="c0"/>
<circle cx="318" cy="884" r="8" class="c0"/>
<circle cx="82" cy="634" r="8" class="c0"/>
<circle cx="54" cy="414" r="8" class="c0"/>
<circle cx="1562" cy="1404" r="8" class="c0"/>
<circle cx="90" cy="598" r="8" class="c0"/>
<circle cx="256" cy="886" r="8" class="c0"/>
<circle cx="920" cy="1340" r="8" class="c0"/>
<circle cx="118" cy="806" r="8" class="c0"/>
<circle cx="812" cy="1114" r="8" class="c0"/>
<circle cx="1804" cy="1426" r="8" class="c0"/>
<circle cx="132" cy="572" r="8" class="c0"/>
<circle cx="120" cy="1042" r="8" class="c0"/>
<circle cx="1622" cy="1382" r="8" class="c0"/>
<circle cx="1448" cy="1408" r="8" class="c0"/>
<circle cx="220" cy="680" r="8" class="c0"/>
<circle cx="238" cy="936" r="8" class="c0"/>
<circle cx="180" cy="592" r="8" class="c0"/>
<circle cx="884" cy="1404" r="8" class="c0"/>
<circle cx="16" cy="742" r="8" class="c0"/>
<circle cx="304" cy="652" r="8" class="c0"/>
<circle cx="84" cy="730" r="8" class="c0"/>
<circle cx="1022" cy="1218" r="8" class="c0"/>
<circle cx="62" cy="972" r="8" class="c0"/>
<circle cx="1366" cy="610" r="8" class="c0"/>
<circle cx="8" cy="848" r="8" class="c0"/>
<circle cx="116" cy="726" r="8" class="c0"/>
<circle cx="1010" cy="1172" r="8" class="c0"/>
<circle cx="234" cy="892" r="8" class="c0"/>
<circle cx="1736" cy="1400" r="8" class="c0"/>
<circle cx="54" cy="956" r="8" class="c0"/>
<circle cx="1910" cy="846" r="8" class="c0"/>
<circle cx="1906" cy="530" r="8" class="c0"/>
<circle cx="1402" cy="630" r="8" class="c0"/>
<circle cx="1754" cy="712" r="8" class="c0"/>
<circle cx="992" cy="1282" r="8" class="c0"/>
<circle cx="882" cy="1008" r="8" class="c0"/>
<circle cx="326" cy="756" r="8" class="c0"/>
<circle cx="1386" cy="1400" r="8" class="c0"/>
<circle cx="896" cy="976" r="8" class="c0"/>
<circle cx="140" cy="544" r="8" class="c0"/>
<circle cx="1008" cy="1418" r="8" class="c0"/>
<circle cx="978" cy="1424" r="8" class="c0"/>
<circle cx="964" cy="1390" r="8" class="c0"/>
<circle cx="1908" cy="1386" r="8" class="c0"/>
<circle cx="1806" cy="746" r="8" class="c0"/>
<circle cx="116" cy="838" r="8" class="c0"/>
<circle cx="144" cy="506" r="8" class="c0"/>
<circle cx="884" cy="1256" r="8" class="c0"/>
<circle cx="994" cy="1252" r="8" class="c0"/>
<circle cx="58" cy="868" r="8" class="c0"/>
<circle cx="50" cy="816" r="8" class="c0"/>
<circle cx="1512" cy="688" r="8" class="c0"/>
<circle cx="64" cy="512" r="8" class="c0"/>
<circle cx="982" cy="1358" r="8" class="c0"/>
<circle cx="446" cy="1332" r="8" class="c0"/>
<circle cx="1706" cy="1394" r="8" class="c0"/>
<circle cx="970" cy="1026" r="8" class="c0"/>
<circle cx="108" cy="880" r="8" class="c0"/>
<circle cx="1874" cy="1350" r="8" class="c0"/>
<circle cx="1824" cy="690" r="8" class="c0"/>
<circle cx="340" cy="742" r="8" class="c0"/>
<circle cx="986" cy="1128" r="8" class="c0"/>
<circle cx="294" cy="720" r="8" class="c0"/>
<circle cx="1340" cy="616" r="8" class="c0"/>
<circle cx="140" cy="1070" r="8" class="c0"/>
<circle cx="1502" cy="698" r="8" class="c0"/>
<circle cx="74" cy="744" r="8" class="c0"/>
<circle cx="164" cy="1028" r="8" class="c0"/>
<circle cx="1504" cy="716" r="8" class="c0"/>
<circle cx="930" cy="1142" r="8" class="c0"/>
<circle cx="1794" cy="634" r="8" class="c0"/>
<circle cx="1858" cy="1402" r="8" class="c0"/>
<circle cx="320" cy="928" r="8" class="c0"/>
<circle cx="88" cy="688" r="8" class="c0"/>
<circle cx="1786" cy="690" r="8" class="c0"/>
<circle cx="930" cy="1200" r="8" class="c0"/>
<circle cx="1894" cy="1340" r="8" class="c0"/>
<circle cx="54" cy="836" r="8" class="c0"/>
<circle cx="1876" cy="1400" r="8" class="c0"/>
<circle cx="1750" cy="670" r="8" class="c0"/>
<circle cx="1886" cy="544" r="8" class="c0"/>
<circle cx="920" cy="1190" r="8" class="c0"/>
<circle cx="126" cy="956" r="8" class="c0"/>
<circle cx="1906" cy="1360" r="8" class="c0"/>
<circle cx="96" cy="398" r="8" class="c0"/>
<circle cx="868" cy="1210" r="8" class="c0"/>
<circle cx="1900" cy="602" r="8" class="c0"/>
<circle cx="172" cy="1010" r="8" class="c0"/>
<circle cx="462" cy="1358" r="8" class="c0"/>
<circle cx="1868" cy="648" r="8" class="c0"/>
<circle cx="72" cy="954" r="8" class="c0"/>
<circle cx="984" cy="1264" r="8" class="c0"/>
<circle cx="1898" cy="712" r="8" class="c0"/>
<circle cx="1594" cy="1340" r="8" class="c0"/>
<circle cx="214" cy="952" r="8" class="c0"/>
<circle cx="286" cy="672" r="8" class="c0"/>
<circle cx="1004" cy="1394" r="8" class="c0"/>
<circle cx="982" cy="1314" r="8" class="c0"/>
<circle cx="1394" cy="588" r="8" class="c0"/>
<circle cx="10" cy="402" r="8" class="c0"/>
<circle cx="36" cy="484" r="8" class="c0"/>
<circle cx="912" cy="1060" r="8" class="c0"/>
<circle cx="1874" cy="668" r="8" class="c0"/>
<circle cx="110" cy="434" r="8" class="c0"/>
<circle cx="214" cy="828" r="8" class="c0"/>
<circle cx="94" cy="574" r="8" class="c0"/>
<circle cx="1554" cy="1384" r="8" class="c0"/>
<circle cx="42" cy="700" r="8" class="c0"/>
<circle cx="44" cy="718" r="8" class="c0"/>
<circle cx="78" cy="1012" r="8" class="c0"/>
<circle cx="856" cy="1112" r="8" class="c0"/>
<circle cx="252" cy="702" r="8" class="c0"/>
<circle cx="798" cy="1084" r="8" class="c0"/>
<circle cx="1624" cy="1332" r="8" class="c0"/>
<circle cx="1898" cy="1404" r="8" class="c0"/>
<circle cx="140" cy="944" r="8" class="c0"/>
<circle cx="898" cy="1136" r="8" class="c0"/>
<circle cx="958" cy="1428" r="8" class="c0"/>
<circle cx="884" cy="1278" r="8" class="c0"/>
<circle cx="464" cy="1376" r="8" class="c0"/>
<circle cx="852" cy="1148" r="8" class="c0"/>
<circle cx="382" cy="1430" r="8" class="c0"/>
<circle cx="176" cy="926" r="8" class="c0"/>
<circle cx="1636" cy="1322" r="8" class="c0"/>
<circle cx="288" cy="740" r="8" class="c0"/>
<circle cx="260" cy="450" r="8" class="c0"/>
<circle cx="1406" cy="1386" r="8" class="c0"/>
<circle cx="156" cy="1002" r="8" class="c0"/>
<circle cx="134" cy="788" r="8" class="c0"/>
<circle cx="1028" cy="1242" r="8" class="c0"/>
<circle cx="998" cy="1028" r="8" class="c0"/>
<circle cx="1864" cy="694" r="8" class="c0"/>
<circle cx="62" cy="454" r="8" class="c0"/>
<circle cx="1682" cy="730" r="8" class="c0"/>
<circle cx="126" cy="1024" r="8" class="c0"/>
<circle cx="78" cy="712" r="8" class="c0"/>
<circle cx="226" cy="650" r="8" class="c0"/>
<circle cx="18" cy="424" r="8" class="c0"/>
<circle cx="28" cy="732" r="8" class="c0"/>
<circle cx="1630" cy="702" r="8" class="c0"/>
<circle cx="902" cy="1044" r="8" class="c0"/>
<circle cx="720" cy="982" r="8" class="c0"/>
<circle cx="230" cy="738" r="8" class="c0"/>
<circle cx="866" cy="1394" r="8" class="c0"/>
<circle cx="22" cy="980" r="8" class="c0"/>
<circle cx="970" cy="1200" r="8" class="c0"/>
<circle cx="58" cy="906" r="8" class="c0"/>
<circle cx="1886" cy="756" r="8" class="c0"/>
<circle cx="212" cy="930" r="8" class="c0"/>
<circle cx="1908" cy="690" r="8" class="c0"/>
<circle cx="36" cy="682" r="8" class="c0"/>
<circle cx="290" cy="836" r="8" class="c0"/>
<circle cx="128" cy="712" r="8" class="c0"/>
<circle cx="1852" cy="792" r="8" class="c0"/>
<circle cx="174" cy="856" r="8" class="c0"/>
<circle cx="984" cy="992" r="8" class="c0"/>
<circle cx="1908" cy="500" r="8" class="c0"/>
<circle cx="198" cy="870" r="8" class="c0"/>
<circle cx="1690" cy="670" r="8" class="c0"/>
<circle cx="290" cy="700" r="8" class="c0"/>
<circle cx="1862" cy="730" r="8" class="c0"/>
<circle cx="1836" cy="770" r="8" class="c0"/>
<circle cx="426" cy="1430" r="8" class="c0"/>
<circle cx="1600" cy="1428" r="8" class="c0"/>
<circle cx="40" cy="552" r="8" class="c0"/>
<circle cx="1606" cy="1366" r="8" class="c0"/>
<circle cx="8" cy="1002" r="8" class="c0"/>
<circle cx="1774" cy="760" r="8" class="c0"/>
<circle cx="1586" cy="1320" r="8" class="c0"/>
<circle cx="1000" cy="1154" r="8" class="c0"/>
<circle cx="938" cy="1378" r="8" class="c0"/>
<circle cx="294" cy="638" r="8" class="c0"/>
<circle cx="1340" cy="592" r="8" class="c0"/>
<circle cx="754" cy="1032" r="8" class="c0"/>
<circle cx="320" cy="838" r="8" class="c0"/>
<circle cx="8" cy="908" r="8" class="c0"/>
<circle cx="196" cy="516" r="8" class="c0"/>
<circle cx="1614" cy="644" r="8" class="c0"/>
<circle cx="1842" cy="1430" r="8" class="c0"/>
<circle cx="344" cy="720" r="8" class="c0"/>
<circle cx="1364" cy="1396" r="8" class="c0"/>
<circle cx="780" cy="1064" r="8" class="c0"/>
<circle cx="1564" cy="706" r="8" class="c0"/>
<circle cx="1670" cy="694" r="8" class="c0"/>
<circle cx="28" cy="710" r="8" class="c0"/>
<circle cx="50" cy="494" r="8" class="c0"/>
<circle cx="84" cy="826" r="8" class="c0"/>
<circle cx="1006" cy="1072" r="8" class="c0"/>
<circle cx="218" cy="772" r="8" class="c0"/>
<circle cx="1714" cy="692" r="8" class="c0"/>
<circle cx="1656" cy="706" r="8" class="c0"/>
<circle cx="1842" cy="804" r="8" class="c0"/>
<circle cx="974" cy="1376" r="8" class="c0"/>
<circle cx="876" cy="1094" r="8" class="c0"/>
<circle cx="198" cy="552" r="8" class="c0"/>
<circle cx="206" cy="894" r="8" class="c0"/>
<circle cx="252" cy="422" r="8" class="c0"/>
<circle cx="1618" cy="690" r="8" class="c0"/>
<circle cx="418" cy="1356" r="8" class="c0"/>
<circle cx="240" cy="486" r="8" class="c0"/>
<circle cx="938" cy="1182" r="8" class="c0"/>
<circle cx="950" cy="1030" r="8" class="c0"/>
<circle cx="1580" cy="716" r="8" class="c0"/>
<circle cx="144" cy="730" r="8" class="c0"/>
<circle cx="174" cy="676" r="8" class="c0"/>
<circle cx="1590" cy="1378" r="8" class="c0"/>
<circle cx="994" cy="1058" r="8" class="c0"/>
<circle cx="130" cy="628" r="8" class="c0"/>
<circle cx="1614" cy="1418" r="8" class="c0"/>
<circle cx="1908" cy="724" r="8" class="c0"/>
<circle cx="1874" cy="626" r="8" class="c0"/>
<circle cx="802" cy="1124" r="8" class="c0"/>
<circle cx="1876" cy="594" r="8" class="c0"/>
<circle cx="474" cy="1388" r="8" class="c0"/>
<circle cx="1494" cy="646" r="8" class="c0"/>
<circle cx="58" cy="380" r="8" class="c0"/>
<circle cx="1424" cy="1404" r="8" class="c0"/>
<circle cx="1802" cy="650" r="8" class="c0"/>
<circle cx="1568" cy="1374" r="8" class="c0"/>
<circle cx="160" cy="944" r="8" class="c0"/>
<circle cx="1348" cy="1406" r="8" class="c0"/>
<circle cx="142" cy="618" r="8" class="c0"/>
<circle cx="1342" cy="648" r="8" class="c0"/>
<circle cx="944" cy="1396" r="8" class="c0"/>
<circle cx="1886" cy="1414" r="8" class="c0"/>
<circle cx="1594" cy="688" r="8" class="c0"/>
<circle cx="958" cy="1118" r="8" class="c0"/>
<circle cx="1906" cy="876" r="8" class="c0"/>
<circle cx="244" cy="902" r="6" class="c0"/>
<circle cx="388" cy="1400" r="6" class="c0"/>
<circle cx="1588" cy="1418" r="6" class="c0"/>
<circle cx="282" cy="858" r="6" class="c0"/>
<circle cx="1870" cy="824" r="6" class="c0"/>
<circle cx="44" cy="974" r="6" class="c0"/>
<circle cx="328" cy="732" r="6" class="c0"/>
<circle cx="318" cy="718" r="6" class="c0"/>
<circle cx="278" cy="784" r="6" class="c0"/>
<circle cx="234" cy="916" r="6" class="c0"/>
<circle cx="72" cy="554" r="6" class="c0"/>
<circle cx="40" cy="598" r="6" class="c0"/>
<circle cx="858" cy="1164" r="6" class="c0"/>
<circle cx="144" cy="754" r="6" class="c0"/>
<circle cx="1842" cy="566" r="6" class="c0"/>
<circle cx="902" cy="1186" r="6" class="c0"/>
<circle cx="64" cy="684" r="6" class="c0"/>
<circle cx="1910" cy="818" r="6" class="c0"/>
<circle cx="62" cy="430" r="6" class="c0"/>
<circle cx="1484" cy="666" r="6" class="c0"/>
<circle cx="1610" cy="674" r="6" class="c0"/>
<circle cx="40" cy="382" r="6" class="c0"/>
<circle cx="300" cy="886" r="6" class="c0"/>
<circle cx="34" cy="610" r="6" class="c0"/>
<circle cx="176" cy="770" r="6" class="c0"/>
<circle cx="148" cy="1416" r="6" class="c0"/>
<circle cx="72" cy="934" r="6" class="c0"/>
<circle cx="1528" cy="684" r="6" class="c0"/>
<circle cx="1874" cy="718" r="6" class="c0"/>
<circle cx="6" cy="506" r="6" class="c0"/>
<circle cx="50" cy="590" r="6" class="c0"/>
<circle cx="282" cy="898" r="6" class="c0"/>
<circle cx="1024" cy="1422" r="6" class="c0"/>
<circle cx="1012" cy="1252" r="6" class="c0"/>
<circle cx="1702" cy="740" r="6" class="c0"/>
<circle cx="1004" cy="1206" r="6" class="c0"/>
<circle cx="1584" cy="698" r="6" class="c0"/>
<circle cx="1910" cy="630" r="6" class="c0"/>
<circle cx="1706" cy="662" r="6" class="c0"/>
<circle cx="974" cy="1088" r="6" class="c0"/>
<circle cx="1848" cy="622" r="6" class="c0"/>
<circle cx="766" cy="1054" r="6" class="c0"/>
<circle cx="324" cy="690" r="6" class="c0"/>
<circle cx="1680" cy="1426" r="6" class="c0"/>
<circle cx="1436" cy="620" r="6" class="c0"/>
<circle cx="938" cy="1412" r="6" class="c0"/>
<circle cx="206" cy="600" r="6" class="c0"/>
<circle cx="1906" cy="580" r="6" class="c0"/>
<circle cx="1774" cy="1426" r="6" class="c0"/>
<circle cx="278" cy="444" r="6" class="c0"/>
<circle cx="1354" cy="1424" r="6" class="c0"/>
<circle cx="1460" cy="1432" r="6" class="c0"/>
<circle cx="848" cy="1174" r="6" class="c0"/>
<circle cx="134" cy="842" r="6" class="c0"/>
<circle cx="1712" cy="718" r="6" class="c0"/>
<circle cx="814" cy="1096" r="6" class="c0"/>
<circle cx="958" cy="1086" r="6" class="c0"/>
<circle cx="8" cy="828" r="6" class="c0"/>
<circle cx="1908" cy="798" r="6" class="c0"/>
<circle cx="216" cy="614" r="6" class="c0"/>
<circle cx="1660" cy="668" r="6" class="c0"/>
<circle cx="424" cy="1338" r="6" class="c0"/>
<circle cx="1880" cy="686" r="6" class="c0"/>
<circle cx="968" cy="1278" r="6" class="c0"/>
<circle cx="1628" cy="720" r="6" class="c0"/>
<circle cx="218" cy="496" r="6" class="c0"/>
<circle cx="222" cy="578" r="6" class="c0"/>
<circle cx="1378" cy="594" r="6" class="c0"/>
<circle cx="180" cy="624" r="6" class="c0"/>
<circle cx="878" cy="1220" r="6" class="c0"/>
<circle cx="1798" cy="680" r="6" class="c0"/>
<circle cx="1472" cy="632" r="6" class="c0"/>
<circle cx="334" cy="1432" r="6" class="c0"/>
<circle cx="74" cy="836" r="6" class="c0"/>
<circle cx="1658" cy="1382" r="6" class="c0"/>
<circle cx="972" cy="1050" r="6" class="c0"/>
<circle cx="6" cy="364" r="6" class="c0"/>
<circle cx="902" cy="1432" r="6" class="c0"/>
<circle cx="930" cy="1264" r="6" class="c0"/>
<circle cx="188" cy="654" r="6" class="c0"/>
<circle cx="1888" cy="660" r="6" class="c0"/>
<circle cx="104" cy="924" r="6" class="c0"/>
<circle cx="1410" cy="594" r="6" class="c0"/>
<circle cx="266" cy="830" r="6" class="c0"/>
<circle cx="1554" cy="688" r="6" class="c0"/>
<circle cx="1564" cy="1348" r="6" class="c0"/>
<circle cx="1658" cy="724" r="6" class="c0"/>
<circle cx="320" cy="658" r="6" class="c0"/>
<circle cx="1520" cy="672" r="6" class="c0"/>
<circle cx="304" cy="708" r="6" class="c0"/>
<circle cx="1032" cy="1188" r="6" class="c0"/>
<circle cx="894" cy="1246" r="6" class="c0"/>
<circle cx="10" cy="584" r="6" class="c0"/>
<circle cx="88" cy="480" r="6" class="c0"/>
<circle cx="1438" cy="1386" r="6" class="c0"/>
<circle cx="246" cy="440" r="6" class="c0"/>
<circle cx="266" cy="896" r="6" class="c0"/>
<circle cx="1872" cy="838" r="6" class="c0"/>
<circle cx="328" cy="912" r="6" class="c0"/>
<circle cx="6" cy="672" r="6" class="c0"/>
<circle cx="1816" cy="708" r="6" class="c0"/>
<circle cx="188" cy="998" r="6" class="c0"/>
<circle cx="318" cy="740" r="6" class="c0"/>
<circle cx="462" cy="1400" r="6" class="c0"/>
<circle cx="250" cy="600" r="6" class="c0"/>
<circle cx="906" cy="1394" r="6" class="c0"/>
<circle cx="850" cy="1196" r="6" class="c0"/>
<circle cx="1910" cy="550" r="6" class="c0"/>
<circle cx="108" cy="1054" r="6" class="c0"/>
<circle cx="108" cy="964" r="6" class="c0"/>
<circle cx="174" cy="712" r="6" class="c0"/>
<circle cx="310" cy="1422" r="6" class="c0"/>
<circle cx="1566" cy="660" r="6" class="c0"/>
<circle cx="72" cy="368" r="6" class="c0"/>
<circle cx="180" cy="1024" r="6" class="c0"/>
<circle cx="1642" cy="1340" r="6" class="c0"/>
<circle cx="362" cy="1400" r="6" class="c0"/>
<circle cx="168" cy="808" r="6" class="c0"/>
<circle cx="1344" cy="1432" r="6" class="c0"/>
<circle cx="458" cy="1342" r="6" class="c0"/>
<circle cx="122" cy="492" r="6" class="c0"/>
<circle cx="236" cy="668" r="6" class="c0"/>
<circle cx="920" cy="1304" r="6" class="c0"/>
<circle cx="178" cy="872" r="6" class="c0"/>
<circle cx="128" cy="462" r="6" class="c0"/>
<circle cx="64" cy="846" r="6" class="c0"/>
<circle cx="150" cy="892" r="6" class="c0"/>
<circle cx="1798" cy="762" r="6" class="c0"/>
<circle cx="1492" cy="682" r="6" class="c0"/>
<circle cx="310" cy="668" r="6" class="c0"/>
<circle cx="242" cy="584" r="6" class="c0"/>
<circle cx="140" cy="904" r="6" class="c0"/>
<circle cx="1642" cy="692" r="6" class="c0"/>
<circle cx="872" cy="1342" r="6" class="c0"/>
<circle cx="34" cy="426" r="6" class="c0"/>
<circle cx="1806" cy="688" r="6" class="c0"/>
<circle cx="358" cy="1380" r="6" class="c0"/>
<circle cx="1708" cy="676" r="6" class="c0"/>
<circle cx="934" cy="1060" r="6" class="c0"/>
<circle cx="60" cy="354" r="6" class="c0"/>
<circle cx="988" cy="1384" r="6" class="c0"/>
<circle cx="1912" cy="1340" r="6" class="c0"/>
<circle cx="1006" cy="1356" r="6" class="c0"/>
<circle cx="318" cy="904" r="6" class="c0"/>
<circle cx="326" cy="674" r="6" class="c0"/>
<circle cx="886" cy="1042" r="6" class="c0"/>
<circle cx="194" cy="568" r="6" class="c0"/>
<circle cx="1466" cy="668" r="6" class="c0"/>
<circle cx="220" cy="724" r="6" class="c0"/>
<circle cx="236" cy="696" r="6" class="c0"/>
<circle cx="284" cy="628" r="6" class="c0"/>
<circle cx="128" cy="1056" r="6" class="c0"/>
<circle cx="1702" cy="1430" r="6" class="c0"/>
<circle cx="78" cy="536" r="6" class="c0"/>
<circle cx="904" cy="1348" r="6" class="c0"/>
<circle cx="940" cy="1212" r="6" class="c0"/>
<circle cx="1370" cy="668" r="6" class="c0"/>
<circle cx="164" cy="496" r="6" class="c0"/>
<circle cx="1406" cy="1406" r="6" class="c0"/>
<circle cx="6" cy="544" r="6" class="c0"/>
<circle cx="1584" cy="664" r="6" class="c0"/>
<circle cx="994" cy="1428" r="6" class="c0"/>
<circle cx="1866" cy="1388" r="6" class="c0"/>
<circle cx="1430" cy="632" r="6" class="c0"/>
<circle cx="1008" cy="1092" r="6" class="c0"/>
<circle cx="1026" cy="1176" r="6" class="c0"/>
<circle cx="1550" cy="714" r="6" class="c0"/>
<circle cx="1392" cy="1432" r="6" class="c0"/>
<circle cx="1008" cy="1118" r="6" class="c0"/>
<circle cx="24" cy="620" r="6" class="c0"/>
<circle cx="932" cy="960" r="6" class="c0"/>
<circle cx="422" cy="1408" r="6" class="c0"/>
<circle cx="236" cy="566" r="6" class="c0"/>
<circle cx="1018" cy="1290" r="6" class="c0"/>
<circle cx="1646" cy="1390" r="6" class="c0"/>
<circle cx="198" cy="956" r="6" class="c0"/>
<circle cx="1696" cy="716" r="6" class="c0"/>
<circle cx="118" cy="1412" r="6" class="c0"/>
<circle cx="122" cy="1398" r="6" class="c0"/>
<circle cx="222" cy="476" r="6" class="c0"/>
<circle cx="6" cy="434" r="6" class="c0"/>
<circle cx="208" cy="758" r="6" class="c0"/>
<circle cx="1872" cy="744" r="6" class="c0"/>
<circle cx="1834" cy="1416" r="6" class="c0"/>
<circle cx="264" cy="432" r="6" class="c0"/>
<circle cx="22" cy="922" r="6" class="c0"/>
<circle cx="144" cy="528" r="6" class="c0"/>
<circle cx="904" cy="1152" r="6" class="c0"/>
<circle cx="410" cy="1342" r="6" class="c0"/>
<circle cx="1742" cy="656" r="6" class="c0"/>
<circle cx="234" cy="956" r="6" class="c0"/>
<circle cx="428" cy="1390" r="6" class="c0"/>
<circle cx="190" cy="710" r="6" class="c0"/>
<circle cx="178" cy="642" r="6" class="c0"/>
<circle cx="338" cy="694" r="6" class="c0"/>
<circle cx="96" cy="766" r="6" class="c0"/>
<circle cx="1834" cy="666" r="6" class="c0"/>
<circle cx="830" cy="1106" r="6" class="c0"/>
<circle cx="172" cy="972" r="6" class="c0"/>
<circle cx="1024" cy="1258" r="6" class="c0"/>
<circle cx="166" cy="756" r="6" class="c0"/>
<circle cx="84" cy="928" r="6" class="c0"/>
<circle cx="100" cy="446" r="6" class="c0"/>
<circle cx="1034" cy="1208" r="6" class="c0"/>
<circle cx="872" cy="1036" r="6" class="c0"/>
<circle cx="1858" cy="636" r="6" class="c0"/>
<circle cx="824" cy="1148" r="6" class="c0"/>
<circle cx="32" cy="462" r="6" class="c0"/>
<circle cx="978" cy="1182" r="6" class="c0"/>
<circle cx="12" cy="812" r="6" class="c0"/>
<circle cx="282" cy="768" r="6" class="c0"/>
<circle cx="110" cy="1432" r="6" class="c0"/>
<circle cx="244" cy="640" r="6" class="c0"/>
<circle cx="1508" cy="1404" r="6" class="c0"/>
<circle cx="124" cy="1082" r="6" class="c0"/>
<circle cx="1526" cy="660" r="6" class="c0"/>
<circle cx="1432" cy="688" r="6" class="c0"/>
<circle cx="104" cy="610" r="6" class="c0"/>
<circle cx="816" cy="1156" r="6" class="c0"/>
<circle cx="1670" cy="676" r="6" class="c0"/>
<circle cx="104" cy="1020" r="6" class="c0"/>
<circle cx="6" cy="614" r="6" class="c0"/>
<circle cx="1036" cy="1226" r="6" class="c0"/>
<circle cx="882" cy="1134" r="6" class="c0"/>
<circle cx="1726" cy="724" r="6" class="c0"/>
<circle cx="80" cy="376" r="6" class="c0"/>
<circle cx="706" cy="948" r="6" class="c0"/>
<circle cx="1520" cy="708" r="6" class="c0"/>
<circle cx="266" cy="870" r="6" class="c0"/>
<circle cx="1536" cy="1402" r="6" class="c0"/>
<circle cx="168" cy="544" r="6" class="c0"/>
<circle cx="1532" cy="724" r="6" class="c0"/>
<circle cx="60" cy="598" r="6" class="c0"/>
<circle cx="268" cy="670" r="6" class="c0"/>
<circle cx="6" cy="482" r="6" class="c0"/>
<circle cx="430" cy="1324" r="6" class="c0"/>
<circle cx="354" cy="704" r="6" class="c0"/>
<circle cx="1912" cy="612" r="6" class="c0"/>
<circle cx="984" cy="1214" r="6" class="c0"/>
<circle cx="100" cy="414" r="6" class="c0"/>
<circle cx="1692" cy="1386" r="6" class="c0"/>
<circle cx="1852" cy="816" r="6" class="c0"/>
<circle cx="1912" cy="900" r="6" class="c0"/>
<circle cx="944" cy="1000" r="6" class="c0"/>
<circle cx="62" cy="756" r="6" class="c0"/>
<circle cx="186" cy="576" r="6" class="c0"/>
<circle cx="12" cy="322" r="6" class="c0"/>
<circle cx="356" cy="730" r="6" class="c0"/>
<circle cx="952" cy="1308" r="6" class="c0"/>
<circle cx="1460" cy="618" r="6" class="c0"/>
<circle cx="32" cy="630" r="6" class="c0"/>
<circle cx="1484" cy="720" r="6" class="c0"/>
<circle cx="966" cy="1076" r="6" class="c0"/>
<circle cx="292" cy="620" r="6" class="c0"/>
<circle cx="1512" cy="1420" r="6" class="c0"/>
<circle cx="216" cy="450" r="6" class="c0"/>
<circle cx="270" cy="948" r="6" class="c0"/>
<circle cx="86" cy="776" r="6" class="c0"/>
<circle cx="1736" cy="1432" r="6" class="c0"/>
<circle cx="474" cy="1340" r="6" class="c0"/>
<circle cx="988" cy="1198" r="6" class="c0"/>
<circle cx="298" cy="804" r="6" class="c0"/>
<circle cx="132" cy="972" r="6" class="c0"/>
<circle cx="328" cy="1420" r="6" class="c0"/>
<circle cx="142" cy="466" r="6" class="c0"/>
<circle cx="788" cy="1094" r="6" class="c0"/>
<circle cx="1912" cy="766" r="6" class="c0"/>
<circle cx="1024" cy="1162" r="6" class="c0"/>
<circle cx="60" cy="798" r="6" class="c0"/>
<circle cx="880" cy="1060" r="6" class="c0"/>
<circle cx="124" cy="546" r="6" class="c0"/>
<circle cx="14" cy="514" r="6" class="c0"/>
<circle cx="1362" cy="660" r="6" class="c0"/>
<circle cx="388" cy="1358" r="6" class="c0"/>
<circle cx="946" cy="1168" r="6" class="c0"/>
<circle cx="94" cy="1006" r="6" class="c0"/>
<circle cx="1358" cy="586" r="6" class="c0"/>
<circle cx="106" cy="520" r="6" class="c0"/>
<circle cx="202" cy="500" r="6" class="c0"/>
<circle cx="28" cy="934" r="6" class="c0"/>
<circle cx="1806" cy="770" r="6" class="c0"/>
<circle cx="1598" cy="666" r="6" class="c0"/>
<circle cx="1912" cy="568" r="6" class="c0"/>
<circle cx="314" cy="698" r="6" class="c0"/>
<circle cx="46" cy="896" r="6" class="c0"/>
<circle cx="6" cy="752" r="6" class="c0"/>
<circle cx="252" cy="720" r="6" class="c0"/>
<circle cx="958" cy="1154" r="6" class="c0"/>
<circle cx="274" cy="838" r="6" class="c0"/>
<circle cx="174" cy="506" r="6" class="c0"/>
<circle cx="1664" cy="1370" r="6" class="c0"/>
<circle cx="1570" cy="732" r="6" class="c0"/>
<circle cx="1608" cy="1326" r="6" class="c0"/>
<circle cx="70" cy="418" r="6" class="c0"/>
<circle cx="916" cy="1324" r="6" class="c0"/>
<circle cx="230" cy="440" r="6" class="c0"/>
<circle cx="60" cy="482" r="6" class="c0"/>
<circle cx="30" cy="1012" r="6" class="c0"/>
<circle cx="186" cy="466" r="6" class="c0"/>
<circle cx="1018" cy="1408" r="6" class="c0"/>
<circle cx="1500" cy="1412" r="6" class="c0"/>
<circle cx="1912" cy="784" r="6" class="c0"/>
<circle cx="1016" cy="1150" r="6" class="c0"/>
<circle cx="38" cy="336" r="6" class="c0"/>
<circle cx="1420" cy="1432" r="6" class="c0"/>
<circle cx="1852" cy="1418" r="6" class="c0"/>
<circle cx="1480" cy="1378" r="6" class="c0"/>
<circle cx="1758" cy="656" r="6" class="c0"/>
<circle cx="1866" cy="710" r="6" class="c0"/>
<circle cx="1890" cy="1356" r="6" class="c0"/>
<circle cx="1868" cy="552" r="6" class="c0"/>
<circle cx="1674" cy="662" r="6" class="c0"/>
<circle cx="410" cy="1324" r="6" class="c0"/>
<circle cx="74" cy="898" r="6" class="c0"/>
<circle cx="1720" cy="1402" r="6" class="c0"/>
<circle cx="798" cy="1152" r="6" class="c0"/>
<circle cx="1670" cy="1414" r="6" class="c0"/>
<circle cx="80" cy="566" r="6" class="c0"/>
<circle cx="6" cy="864" r="6" class="c0"/>
<circle cx="1596" cy="720" r="6" class="c0"/>
<circle cx="476" cy="1410" r="6" class="c0"/>
<circle cx="150" cy="1430" r="6" class="c0"/>
<circle cx="1822" cy="806" r="6" class="c0"/>
<circle cx="1434" cy="674" r="6" class="c0"/>
<circle cx="1888" cy="528" r="6" class="c0"/>
<circle cx="1458" cy="642" r="6" class="c0"/>
<circle cx="32" cy="390" r="6" class="c0"/>
<circle cx="864" cy="1432" r="6" class="c0"/>
<circle cx="1722" cy="1382" r="6" class="c0"/>
<circle cx="1646" cy="736" r="6" class="c0"/>
<circle cx="248" cy="918" r="6" class="c0"/>
<circle cx="1430" cy="596" r="6" class="c0"/>
<circle cx="6" cy="986" r="6" class="c0"/>
<circle cx="288" cy="794" r="6" class="c0"/>
<circle cx="6" cy="954" r="6" class="c0"/>
<circle cx="224" cy="866" r="6" class="c0"/>
<circle cx="964" cy="1042" r="6" class="c0"/>
<circle cx="968" cy="996" r="6" class="c0"/>
<circle cx="888" cy="992" r="6" class="c0"/>
<circle cx="1860" cy="676" r="6" class="c0"/>
<circle cx="1462" cy="1374" r="6" class="c0"/>
<circle cx="114" cy="664" r="6" class="c0"/>
<circle cx="6" cy="1018" r="6" class="c0"/>
<circle cx="1816" cy="736" r="6" class="c0"/>
<circle cx="258" cy="934" r="6" class="c0"/>
<circle cx="1474" cy="676" r="6" class="c0"/>
<circle cx="1822" cy="1430" r="6" class="c0"/>
<circle cx="1666" cy="654" r="6" class="c0"/>
<circle cx="1558" cy="726" r="6" class="c0"/>
<circle cx="1336" cy="1418" r="6" class="c0"/>
<circle cx="1704" cy="708" r="6" class="c0"/>
<circle cx="1378" cy="694" r="6" class="c0"/>
<circle cx="62" cy="1028" r="6" class="c0"/>
<circle cx="1004" cy="1318" r="6" class="c0"/>
<circle cx="1376" cy="576" r="6" class="c0"/>
<circle cx="1016" cy="1432" r="6" class="c0"/>
<circle cx="52" cy="690" r="6" class="c0"/>
<circle cx="1682" cy="684" r="6" class="c0"/>
<circle cx="72" cy="692" r="6" class="c0"/>
<circle cx="120" cy="1064" r="6" class="c0"/>
<circle cx="776" cy="1046" r="6" class="c0"/>
<circle cx="912" cy="1144" r="6" class="c0"/>
<circle cx="1438" cy="606" r="6" class="c0"/>
<circle cx="304" cy="952" r="6" class="c0"/>
<circle cx="86" cy="408" r="6" class="c0"/>
<circle cx="36" cy="536" r="6" class="c0"/>
<circle cx="470" cy="1314" r="6" class="c0"/>
</svg>
