<?xml version="1.0" encoding="utf-8"?>
<svg xmlns="http://www.w3.org/2000/svg"
     xmlns:xlink="http://www.w3.org/1999/xlink" width="1920" height="1440" >

            <defs>
            <style type="text/css"><![CDATA[
circle {stroke: none;}
.c0 {fill: #000000;}
]]></style>
            </defs>
<rect x="0" y="0" width="1920" height="1440" fill="white"/>
<circle cx="40" cy="782" r="14" class="c0"/>
<circle cx="988" cy="938" r="12" class="c0"/>
<circle cx="1820" cy="1140" r="12" class="c0"/>
<circle cx="888" cy="786" r="12" class="c0"/>
<circle cx="956" cy="922" r="12" class="c0"/>
<circle cx="948" cy="780" r="12" class="c0"/>
<circle cx="1038" cy="1384" r="12" class="c0"/>
<circle cx="16" cy="1066" r="12" class="c0"/>
<circle cx="104" cy="1048" r="12" class="c0"/>
<circle cx="28" cy="954" r="12" class="c0"/>
<circle cx="918" cy="1030" r="12" class="c0"/>
<circle cx="984" cy="1330" r="12" class="c0"/>
<circle cx="14" cy="652" r="12" class="c0"/>
<circle cx="30" cy="1198" r="12" class="c0"/>
<circle cx="878" cy="844" r="12" class="c0"/>
<circle cx="932" cy="860" r="12" class="c0"/>
<circle cx="976" cy="984" r="12" class="c0"/>
<circle cx="114" cy="1088" r="12" class="c0"/>
<circle cx="1042" cy="1344" r="12" class="c0"/>
<circle cx="918" cy="966" r="12" class="c0"/>
<circle cx="1748" cy="1202" r="12" class="c0"/>
<circle cx="56" cy="936" r="12" class="c0"/>
<circle cx="996" cy="1282" r="12" class="c0"/>
<circle cx="902" cy="1122" r="12" class="c0"/>
<circle cx="76" cy="1164" r="12" class="c0"/>
<circle cx="896" cy="754" r="12" class="c0"/>
<circle cx="66" cy="966" r="12" class="c0"/>
<circle cx="938" cy="1254" r="12" class="c0"/>
<circle cx="246" cy="860" r="12" class="c0"/>
<circle cx="916" cy="1182" r="12" class="c0"/>
<circle cx="42" cy="1154" r="12" class="c0"/>
<circle cx="58" cy="1088" r="12" class="c0"/>
<circle cx="116" cy="958" r="12" class="c0"/>
<circle cx="34" cy="880" r="12" class="c0"/>
<circle cx="124" cy="1136" r="12" class="c0"/>
<circle cx="12" cy="690" r="12" class="c0"/>
<circle cx="66" cy="756" r="12" class="c0"/>
<circle cx="968" cy="1018" r="12" class="c0"/>
<circle cx="968" cy="1054" r="12" class="c0"/>
<circle cx="164" cy="890" r="12" class="c0"/>
<circle cx="1884" cy="1114" r="12" class="c0"/>
<circle cx="956" cy="1206" r="12" class="c0"/>
<circle cx="1698" cy="1166" r="12" class="c0"/>
<circle cx="964" cy="814" r="12" class="c0"/>
<circle cx="88" cy="872" r="12" class="c0"/>
<circle cx="976" cy="1140" r="12" class="c0"/>
<circle cx="98" cy="752" r="12" class="c0"/>
<circle cx="50" cy="1044" r="12" class="c0"/>
<circle cx="828" cy="840" r="12" class="c0"/>
<circle cx="900" cy="1096" r="12" class="c0"/>
<circle cx="944" cy="1088" r="12" class="c0"/>
<circle cx="1872" cy="1154" r="12" class="c0"/>
<circle cx="1014" cy="1156" r="10" class="c0"/>
<circle cx="734" cy="688" r="10" class="c0"/>
<circle cx="96" cy="970" r="10" class="c0"/>
<circle cx="144" cy="860" r="10" class="c0"/>
<circle cx="1008" cy="982" r="10" class="c0"/>
<circle cx="952" cy="1034" r="10" class="c0"/>
<circle cx="112" cy="698" r="10" class="c0"/>
<circle cx="828" cy="920" r="10" class="c0"/>
<circle cx="1016" cy="1246" r="10" class="c0"/>
<circle cx="20" cy="1032" r="10" class="c0"/>
<circle cx="916" cy="1226" r="10" class="c0"/>
<circle cx="130" cy="758" r="10" class="c0"/>
<circle cx="754" cy="728" r="10" class="c0"/>
<circle cx="978" cy="866" r="10" class="c0"/>
<circle cx="80" cy="928" r="10" class="c0"/>
<circle cx="84" cy="1006" r="10" class="c0"/>
<circle cx="1788" cy="1174" r="10" class="c0"/>
<circle cx="20" cy="1094" r="10" class="c0"/>
<circle cx="926" cy="920" r="10" class="c0"/>
<circle cx="902" cy="1050" r="10" class="c0"/>
<circle cx="130" cy="980" r="10" class="c0"/>
<circle cx="898" cy="1248" r="10" class="c0"/>
<circle cx="98" cy="814" r="10" class="c0"/>
<circle cx="898" cy="932" r="10" class="c0"/>
<circle cx="928" cy="1328" r="10" class="c0"/>
<circle cx="20" cy="980" r="10" class="c0"/>
<circle cx="956" cy="950" r="10" class="c0"/>
<circle cx="126" cy="800" r="10" class="c0"/>
<circle cx="220" cy="882" r="10" class="c0"/>
<circle cx="932" cy="1128" r="10" class="c0"/>
<circle cx="58" cy="1002" r="10" class="c0"/>
<circle cx="24" cy="718" r="10" class="c0"/>
<circle cx="42" cy="684" r="10" class="c0"/>
<circle cx="976" cy="774" r="10" class="c0"/>
<circle cx="1724" cy="1210" r="10" class="c0"/>
<circle cx="930" cy="822" r="10" class="c0"/>
<circle cx="1680" cy="1222" r="10" class="c0"/>
<circle cx="1006" cy="1212" r="10" class="c0"/>
<circle cx="976" cy="1184" r="10" class="c0"/>
<circle cx="898" cy="900" r="10" class="c0"/>
<circle cx="44" cy="1180" r="10" class="c0"/>
<circle cx="898" cy="978" r="10" class="c0"/>
<circle cx="918" cy="740" r="10" class="c0"/>
<circle cx="886" cy="996" r="10" class="c0"/>
<circle cx="120" cy="934" r="10" class="c0"/>
<circle cx="888" cy="874" r="10" class="c0"/>
<circle cx="12" cy="910" r="10" class="c0"/>
<circle cx="978" cy="1110" r="10" class="c0"/>
<circle cx="86" cy="1114" r="10" class="c0"/>
<circle cx="80" cy="898" r="10" class="c0"/>
<circle cx="10" cy="790" r="10" class="c0"/>
<circle cx="962" cy="730" r="10" class="c0"/>
<circle cx="944" cy="1178" r="10" class="c0"/>
<circle cx="80" cy="1070" r="10" class="c0"/>
<circle cx="82" cy="686" r="10" class="c0"/>
<circle cx="126" cy="680" r="10" class="c0"/>
<circle cx="104" cy="674" r="10" class="c0"/>
<circle cx="10" cy="756" r="10" class="c0"/>
<circle cx="968" cy="1272" r="10" class="c0"/>
<circle cx="44" cy="844" r="10" class="c0"/>
<circle cx="906" cy="826" r="10" class="c0"/>
<circle cx="870" cy="1112" r="10" class="c0"/>
<circle cx="104" cy="786" r="10" class="c0"/>
<circle cx="984" cy="1408" r="10" class="c0"/>
<circle cx="10" cy="1290" r="10" class="c0"/>
<circle cx="1610" cy="1220" r="10" class="c0"/>
<circle cx="1068" cy="1392" r="10" class="c0"/>
<circle cx="906" cy="722" r="10" class="c0"/>
<circle cx="984" cy="1244" r="10" class="c0"/>
<circle cx="868" cy="1244" r="10" class="c0"/>
<circle cx="934" cy="702" r="10" class="c0"/>
<circle cx="994" cy="1390" r="10" class="c0"/>
<circle cx="48" cy="742" r="10" class="c0"/>
<circle cx="878" cy="740" r="10" class="c0"/>
<circle cx="102" cy="724" r="10" class="c0"/>
<circle cx="808" cy="898" r="10" class="c0"/>
<circle cx="14" cy="844" r="10" class="c0"/>
<circle cx="790" cy="832" r="10" class="c0"/>
<circle cx="54" cy="1134" r="10" class="c0"/>
<circle cx="952" cy="1150" r="10" class="c0"/>
<circle cx="1016" cy="1352" r="10" class="c0"/>
<circle cx="948" cy="1302" r="10" class="c0"/>
<circle cx="114" cy="1018" r="10" class="c0"/>
<circle cx="32" cy="808" r="10" class="c0"/>
<circle cx="1046" cy="1418" r="10" class="c0"/>
<circle cx="40" cy="1114" r="10" class="c0"/>
<circle cx="1018" cy="1062" r="10" class="c0"/>
<circle cx="1844" cy="1156" r="10" class="c0"/>
<circle cx="986" cy="750" r="10" class="c0"/>
<circle cx="998" cy="1026" r="10" class="c0"/>
<circle cx="932" cy="1162" r="10" class="c0"/>
<circle cx="138" cy="1056" r="10" class="c0"/>
<circle cx="932" cy="728" r="10" class="c0"/>
<circle cx="150" cy="836" r="10" class="c0"/>
<circle cx="1020" cy="1414" r="10" class="c0"/>
<circle cx="1726" cy="1236" r="10" class="c0"/>
<circle cx="894" cy="814" r="10" class="c0"/>
<circle cx="932" cy="1014" r="10" class="c0"/>
<circle cx="116" cy="636" r="10" class="c0"/>
<circle cx="70" cy="1032" r="10" class="c0"/>
<circle cx="30" cy="1002" r="10" class="c0"/>
<circle cx="806" cy="870" r="10" class="c0"/>
<circle cx="892" cy="1142" r="10" class="c0"/>
<circle cx="42" cy="902" r="10" class="c0"/>
<circle cx="834" cy="890" r="10" class="c0"/>
<circle cx="1006" cy="1082" r="10" class="c0"/>
<circle cx="862" cy="870" r="10" class="c0"/>
<circle cx="928" cy="758" r="10" class="c0"/>
<circle cx="10" cy="1170" r="10" class="c0"/>
<circle cx="974" cy="1306" r="10" class="c0"/>
<circle cx="130" cy="872" r="10" class="c0"/>
<circle cx="970" cy="904" r="10" class="c0"/>
<circle cx="916" cy="774" r="10" class="c0"/>
<circle cx="1004" cy="1110" r="10" class="c0"/>
<circle cx="50" cy="818" r="10" class="c0"/>
<circle cx="114" cy="858" r="10" class="c0"/>
<circle cx="56" cy="704" r="10" class="c0"/>
<circle cx="1622" cy="1258" r="10" class="c0"/>
<circle cx="1014" cy="1182" r="10" class="c0"/>
<circle cx="124" cy="710" r="10" class="c0"/>
<circle cx="98" cy="1128" r="10" class="c0"/>
<circle cx="912" cy="1286" r="8" class="c0"/>
<circle cx="1000" cy="882" r="8" class="c0"/>
<circle cx="82" cy="986" r="8" class="c0"/>
<circle cx="724" cy="660" r="8" class="c0"/>
<circle cx="136" cy="822" r="8" class="c0"/>
<circle cx="920" cy="1348" r="8" class="c0"/>
<circle cx="974" cy="1080" r="8" class="c0"/>
<circle cx="948" cy="840" r="8" class="c0"/>
<circle cx="1712" cy="1188" r="8" class="c0"/>
<circle cx="8" cy="1110" r="8" class="c0"/>
<circle cx="1096" cy="1408" r="8" class="c0"/>
<circle cx="872" cy="1134" r="8" class="c0"/>
<circle cx="32" cy="628" r="8" class="c0"/>
<circle cx="914" cy="844" r="8" class="c0"/>
<circle cx="40" cy="652" r="8" class="c0"/>
<circle cx="160" cy="1030" r="8" class="c0"/>
<circle cx="964" cy="1238" r="8" class="c0"/>
<circle cx="942" cy="804" r="8" class="c0"/>
<circle cx="978" cy="836" r="8" class="c0"/>
<circle cx="68" cy="828" r="8" class="c0"/>
<circle cx="64" cy="916" r="8" class="c0"/>
<circle cx="118" cy="742" r="8" class="c0"/>
<circle cx="858" cy="830" r="8" class="c0"/>
<circle cx="124" cy="1112" r="8" class="c0"/>
<circle cx="950" cy="1324" r="8" class="c0"/>
<circle cx="94" cy="650" r="8" class="c0"/>
<circle cx="144" cy="704" r="8" class="c0"/>
<circle cx="984" cy="1218" r="8" class="c0"/>
<circle cx="1690" cy="1254" r="8" class="c0"/>
<circle cx="1886" cy="442" r="8" class="c0"/>
<circle cx="140" cy="734" r="8" class="c0"/>
<circle cx="996" cy="1306" r="8" class="c0"/>
<circle cx="926" cy="1200" r="8" class="c0"/>
<circle cx="10" cy="1008" r="8" class="c0"/>
<circle cx="1028" cy="1198" r="8" class="c0"/>
<circle cx="80" cy="798" r="8" class="c0"/>
<circle cx="940" cy="936" r="8" class="c0"/>
<circle cx="1756" cy="1228" r="8" class="c0"/>
<circle cx="924" cy="1056" r="8" class="c0"/>
<circle cx="1648" cy="1236" r="8" class="c0"/>
<circle cx="886" cy="1080" r="8" class="c0"/>
<circle cx="848" cy="852" r="8" class="c0"/>
<circle cx="998" cy="910" r="8" class="c0"/>
<circle cx="920" cy="896" r="8" class="c0"/>
<circle cx="774" cy="760" r="8" class="c0"/>
<circle cx="40" cy="1078" r="8" class="c0"/>
<circle cx="1000" cy="1170" r="8" class="c0"/>
<circle cx="902" cy="856" r="8" class="c0"/>
<circle cx="986" cy="1002" r="8" class="c0"/>
<circle cx="80" cy="1140" r="8" class="c0"/>
<circle cx="942" cy="908" r="8" class="c0"/>
<circle cx="934" cy="992" r="8" class="c0"/>
<circle cx="118" cy="904" r="8" class="c0"/>
<circle cx="132" cy="1156" r="8" class="c0"/>
<circle cx="920" cy="1078" r="8" class="c0"/>
<circle cx="952" cy="694" r="8" class="c0"/>
<circle cx="74" cy="846" r="8" class="c0"/>
<circle cx="1006" cy="962" r="8" class="c0"/>
<circle cx="1006" cy="864" r="8" class="c0"/>
<circle cx="962" cy="856" r="8" class="c0"/>
<circle cx="1894" cy="1096" r="8" class="c0"/>
<circle cx="68" cy="1056" r="8" class="c0"/>
<circle cx="974" cy="796" r="8" class="c0"/>
<circle cx="1016" cy="1000" r="8" class="c0"/>
<circle cx="64" cy="888" r="8" class="c0"/>
<circle cx="1910" cy="518" r="8" class="c0"/>
<circle cx="8" cy="1220" r="8" class="c0"/>
<circle cx="266" cy="876" r="8" class="c0"/>
<circle cx="1754" cy="1150" r="8" class="c0"/>
<circle cx="1000" cy="1258" r="8" class="c0"/>
<circle cx="114" cy="768" r="8" class="c0"/>
<circle cx="946" cy="1278" r="8" class="c0"/>
<circle cx="8" cy="942" r="8" class="c0"/>
<circle cx="892" cy="1168" r="8" class="c0"/>
<circle cx="1666" cy="1276" r="8" class="c0"/>
<circle cx="874" cy="1020" r="8" class="c0"/>
<circle cx="1106" cy="1428" r="8" class="c0"/>
<circle cx="1808" cy="1178" r="8" class="c0"/>
<circle cx="950" cy="878" r="8" class="c0"/>
<circle cx="936" cy="1214" r="8" class="c0"/>
<circle cx="82" cy="718" r="8" class="c0"/>
<circle cx="1702" cy="1206" r="8" class="c0"/>
<circle cx="1750" cy="1170" r="8" class="c0"/>
<circle cx="1652" cy="1218" r="8" class="c0"/>
<circle cx="860" cy="996" r="8" class="c0"/>
<circle cx="1030" cy="1024" r="8" class="c0"/>
<circle cx="76" cy="774" r="8" class="c0"/>
<circle cx="884" cy="950" r="8" class="c0"/>
<circle cx="1016" cy="1324" r="8" class="c0"/>
<circle cx="32" cy="930" r="8" class="c0"/>
<circle cx="128" cy="1030" r="8" class="c0"/>
<circle cx="834" cy="940" r="8" class="c0"/>
<circle cx="1018" cy="1302" r="8" class="c0"/>
<circle cx="142" cy="996" r="8" class="c0"/>
<circle cx="1906" cy="1080" r="8" class="c0"/>
<circle cx="876" cy="770" r="8" class="c0"/>
<circle cx="42" cy="1238" r="8" class="c0"/>
<circle cx="1010" cy="936" r="8" class="c0"/>
<circle cx="1086" cy="1418" r="8" class="c0"/>
<circle cx="792" cy="854" r="8" class="c0"/>
<circle cx="142" cy="892" r="8" class="c0"/>
<circle cx="982" cy="1378" r="8" class="c0"/>
<circle cx="982" cy="1352" r="8" class="c0"/>
<circle cx="98" cy="946" r="8" class="c0"/>
<circle cx="1908" cy="428" r="8" class="c0"/>
<circle cx="904" cy="952" r="8" class="c0"/>
<circle cx="948" cy="748" r="8" class="c0"/>
<circle cx="1910" cy="492" r="8" class="c0"/>
<circle cx="916" cy="1140" r="8" class="c0"/>
<circle cx="1904" cy="452" r="8" class="c0"/>
<circle cx="1010" cy="894" r="8" class="c0"/>
<circle cx="962" cy="758" r="8" class="c0"/>
<circle cx="194" cy="858" r="8" class="c0"/>
<circle cx="134" cy="1078" r="8" class="c0"/>
<circle cx="90" cy="1034" r="8" class="c0"/>
<circle cx="920" cy="944" r="8" class="c0"/>
<circle cx="8" cy="610" r="8" class="c0"/>
<circle cx="132" cy="656" r="8" class="c0"/>
<circle cx="1712" cy="1222" r="8" class="c0"/>
<circle cx="856" cy="964" r="8" class="c0"/>
<circle cx="100" cy="924" r="8" class="c0"/>
<circle cx="62" cy="652" r="8" class="c0"/>
<circle cx="1700" cy="1234" r="8" class="c0"/>
<circle cx="1634" cy="1220" r="8" class="c0"/>
<circle cx="918" cy="1000" r="8" class="c0"/>
<circle cx="108" cy="886" r="8" class="c0"/>
<circle cx="108" cy="996" r="8" class="c0"/>
<circle cx="46" cy="980" r="8" class="c0"/>
<circle cx="16" cy="1132" r="8" class="c0"/>
<circle cx="116" cy="836" r="8" class="c0"/>
<circle cx="1066" cy="1416" r="8" class="c0"/>
<circle cx="100" cy="1150" r="8" class="c0"/>
<circle cx="1038" cy="1304" r="8" class="c0"/>
<circle cx="798" cy="808" r="8" class="c0"/>
<circle cx="148" cy="1130" r="8" class="c0"/>
<circle cx="1822" cy="1162" r="8" class="c0"/>
<circle cx="992" cy="1124" r="8" class="c0"/>
<circle cx="952" cy="1352" r="8" class="c0"/>
<circle cx="1024" cy="1228" r="8" class="c0"/>
<circle cx="96" cy="846" r="8" class="c0"/>
<circle cx="922" cy="1272" r="8" class="c0"/>
<circle cx="966" cy="1162" r="8" class="c0"/>
<circle cx="1586" cy="1204" r="8" class="c0"/>
<circle cx="26" cy="1142" r="8" class="c0"/>
<circle cx="140" cy="1016" r="8" class="c0"/>
<circle cx="896" cy="1210" r="8" class="c0"/>
<circle cx="1068" cy="1354" r="8" class="c0"/>
<circle cx="78" cy="1096" r="8" class="c0"/>
<circle cx="786" cy="780" r="8" class="c0"/>
<circle cx="1006" cy="1050" r="8" class="c0"/>
<circle cx="960" cy="970" r="8" class="c0"/>
<circle cx="54" cy="672" r="8" class="c0"/>
<circle cx="1822" cy="1194" r="8" class="c0"/>
<circle cx="906" cy="1336" r="8" class="c0"/>
<circle cx="1628" cy="1200" r="8" class="c0"/>
<circle cx="1716" cy="1254" r="8" class="c0"/>
<circle cx="962" cy="706" r="8" class="c0"/>
<circle cx="36" cy="730" r="8" class="c0"/>
<circle cx="958" cy="1390" r="8" class="c0"/>
<circle cx="1032" cy="1042" r="8" class="c0"/>
<circle cx="166" cy="868" r="8" class="c0"/>
<circle cx="22" cy="600" r="8" class="c0"/>
<circle cx="1076" cy="1370" r="8" class="c0"/>
<circle cx="842" cy="1248" r="8" class="c0"/>
<circle cx="810" cy="930" r="8" class="c0"/>
<circle cx="144" cy="776" r="8" class="c0"/>
<circle cx="1860" cy="1122" r="8" class="c0"/>
<circle cx="36" cy="1022" r="8" class="c0"/>
<circle cx="110" cy="1168" r="8" class="c0"/>
<circle cx="892" cy="1032" r="8" class="c0"/>
<circle cx="1010" cy="1132" r="8" class="c0"/>
<circle cx="966" cy="1098" r="8" class="c0"/>
<circle cx="988" cy="812" r="8" class="c0"/>
<circle cx="8" cy="1200" r="8" class="c0"/>
<circle cx="1768" cy="1194" r="8" class="c0"/>
<circle cx="908" cy="876" r="8" class="c0"/>
<circle cx="904" cy="1070" r="8" class="c0"/>
<circle cx="116" cy="1064" r="8" class="c0"/>
<circle cx="20" cy="1240" r="8" class="c0"/>
<circle cx="22" cy="740" r="8" class="c0"/>
<circle cx="990" cy="1158" r="8" class="c0"/>
<circle cx="1794" cy="1148" r="8" class="c0"/>
<circle cx="930" cy="792" r="8" class="c0"/>
<circle cx="1644" cy="1186" r="8" class="c0"/>
<circle cx="1894" cy="1060" r="8" class="c0"/>
<circle cx="876" cy="1154" r="8" class="c0"/>
<circle cx="16" cy="870" r="8" class="c0"/>
<circle cx="1674" cy="1196" r="8" class="c0"/>
<circle cx="946" cy="1234" r="8" class="c0"/>
<circle cx="8" cy="1270" r="8" class="c0"/>
<circle cx="1094" cy="1386" r="8" class="c0"/>
<circle cx="1670" cy="1252" r="8" class="c0"/>
<circle cx="1004" cy="1364" r="8" class="c0"/>
<circle cx="952" cy="1120" r="8" class="c0"/>
<circle cx="1720" cy="1164" r="8" class="c0"/>
<circle cx="244" cy="892" r="8" class="c0"/>
<circle cx="1904" cy="1106" r="8" class="c0"/>
<circle cx="880" cy="1058" r="8" class="c0"/>
<circle cx="88" cy="830" r="8" class="c0"/>
<circle cx="874" cy="984" r="8" class="c0"/>
<circle cx="908" cy="802" r="8" class="c0"/>
<circle cx="1018" cy="914" r="8" class="c0"/>
<circle cx="14" cy="890" r="8" class="c0"/>
<circle cx="1906" cy="1130" r="8" class="c0"/>
<circle cx="54" cy="870" r="8" class="c0"/>
<circle cx="1052" cy="1368" r="8" class="c0"/>
<circle cx="984" cy="890" r="8" class="c0"/>
<circle cx="984" cy="962" r="8" class="c0"/>
<circle cx="836" cy="866" r="8" class="c0"/>
<circle cx="1600" cy="1190" r="8" class="c0"/>
<circle cx="154" cy="1094" r="8" class="c0"/>
<circle cx="954" cy="988" r="8" class="c0"/>
<circle cx="64" cy="858" r="8" class="c0"/>
<circle cx="960" cy="1290" r="8" class="c0"/>
<circle cx="1018" cy="1392" r="8" class="c0"/>
<circle cx="1620" cy="1236" r="8" class="c0"/>
<circle cx="94" cy="706" r="8" class="c0"/>
<circle cx="888" cy="916" r="8" class="c0"/>
<circle cx="1798" cy="1198" r="8" class="c0"/>
<circle cx="952" cy="1006" r="8" class="c0"/>
<circle cx="176" cy="850" r="8" class="c0"/>
<circle cx="908" cy="1012" r="8" class="c0"/>
<circle cx="876" cy="892" r="8" class="c0"/>
<circle cx="996" cy="844" r="8" class="c0"/>
<circle cx="62" cy="1116" r="8" class="c0"/>
<circle cx="26" cy="1264" r="8" class="c0"/>
<circle cx="810" cy="830" r="8" class="c0"/>
<circle cx="988" cy="1090" r="8" class="c0"/>
<circle cx="898" cy="1272" r="8" class="c0"/>
<circle cx="916" cy="1304" r="8" class="c0"/>
<circle cx="12" cy="812" r="8" class="c0"/>
<circle cx="126" cy="778" r="8" class="c0"/>
<circle cx="1020" cy="1274" r="8" class="c0"/>
<circle cx="992" cy="788" r="8" class="c0"/>
<circle cx="1600" cy="1244" r="8" class="c0"/>
<circle cx="24" cy="768" r="8" class="c0"/>
<circle cx="132" cy="848" r="8" class="c0"/>
<circle cx="944" cy="1056" r="8" class="c0"/>
<circle cx="32" cy="832" r="8" class="c0"/>
<circle cx="1000" cy="1426" r="8" class="c0"/>
<circle cx="918" cy="1106" r="8" class="c0"/>
<circle cx="10" cy="1250" r="8" class="c0"/>
<circle cx="8" cy="730" r="8" class="c0"/>
<circle cx="996" cy="1228" r="8" class="c0"/>
<circle cx="958" cy="1072" r="8" class="c0"/>
<circle cx="888" cy="1188" r="8" class="c0"/>
<circle cx="66" cy="726" r="8" class="c0"/>
<circle cx="98" cy="1178" r="8" class="c0"/>
<circle cx="1734" cy="1184" r="8" class="c0"/>
<circle cx="984" cy="1068" r="8" class="c0"/>
<circle cx="152" cy="1070" r="8" class="c0"/>
<circle cx="1780" cy="1232" r="8" class="c0"/>
<circle cx="1648" cy="1260" r="8" class="c0"/>
<circle cx="28" cy="672" r="8" class="c0"/>
<circle cx="62" cy="806" r="8" class="c0"/>
<circle cx="1788" cy="1208" r="8" class="c0"/>
<circle cx="10" cy="964" r="8" class="c0"/>
<circle cx="196" cy="902" r="8" class="c0"/>
<circle cx="162" cy="1050" r="8" class="c0"/>
<circle cx="144" cy="1110" r="8" class="c0"/>
<circle cx="932" cy="884" r="8" class="c0"/>
<circle cx="1892" cy="1140" r="8" class="c0"/>
<circle cx="1634" cy="1246" r="8" class="c0"/>
<circle cx="1048" cy="1318" r="8" class="c0"/>
<circle cx="972" cy="1420" r="8" class="c0"/>
<circle cx="1804" cy="1216" r="8" class="c0"/>
<circle cx="910" cy="1262" r="8" class="c0"/>
<circle cx="1852" cy="1138" r="8" class="c0"/>
<circle cx="1690" cy="1276" r="8" class="c0"/>
<circle cx="998" cy="1344" r="8" class="c0"/>
<circle cx="868" cy="820" r="8" class="c0"/>
<circle cx="98" cy="1102" r="8" class="c0"/>
<circle cx="26" cy="860" r="8" class="c0"/>
<circle cx="936" cy="1364" r="8" class="c0"/>
<circle cx="68" cy="1214" r="8" class="c0"/>
<circle cx="30" cy="1226" r="8" class="c0"/>
<circle cx="186" cy="888" r="6" class="c0"/>
<circle cx="6" cy="572" r="6" class="c0"/>
<circle cx="112" cy="1188" r="6" class="c0"/>
<circle cx="1896" cy="500" r="6" class="c0"/>
<circle cx="12" cy="1152" r="6" class="c0"/>
<circle cx="6" cy="712" r="6" class="c0"/>
<circle cx="846" cy="902" r="6" class="c0"/>
<circle cx="992" cy="1194" r="6" class="c0"/>
<circle cx="962" cy="1410" r="6" class="c0"/>
<circle cx="118" cy="664" r="6" class="c0"/>
<circle cx="1032" cy="1322" r="6" class="c0"/>
<circle cx="126" cy="1004" r="6" class="c0"/>
<circle cx="780" cy="804" r="6" class="c0"/>
<circle cx="942" cy="970" r="6" class="c0"/>
<circle cx="802" cy="844" r="6" class="c0"/>
<circle cx="1898" cy="472" r="6" class="c0"/>
<circle cx="816" cy="856" r="6" class="c0"/>
<circle cx="1028" cy="1170" r="6" class="c0"/>
<circle cx="8" cy="590" r="6" class="c0"/>
<circle cx="88" cy="666" r="6" class="c0"/>
<circle cx="898" cy="1228" r="6" class="c0"/>
<circle cx="876" cy="1214" r="6" class="c0"/>
<circle cx="884" cy="1226" r="6" class="c0"/>
<circle cx="80" cy="736" r="6" class="c0"/>
<circle cx="12" cy="626" r="6" class="c0"/>
<circle cx="1682" cy="1178" r="6" class="c0"/>
<circle cx="964" cy="1332" r="6" class="c0"/>
<circle cx="62" cy="786" r="6" class="c0"/>
<circle cx="40" cy="1060" r="6" class="c0"/>
<circle cx="758" cy="752" r="6" class="c0"/>
<circle cx="38" cy="756" r="6" class="c0"/>
<circle cx="906" cy="1156" r="6" class="c0"/>
<circle cx="20" cy="580" r="6" class="c0"/>
<circle cx="932" cy="1042" r="6" class="c0"/>
<circle cx="44" cy="920" r="6" class="c0"/>
<circle cx="84" cy="958" r="6" class="c0"/>
<circle cx="892" cy="1302" r="6" class="c0"/>
<circle cx="62" cy="1178" r="6" class="c0"/>
<circle cx="790" cy="884" r="6" class="c0"/>
<circle cx="150" cy="878" r="6" class="c0"/>
<circle cx="30" cy="1050" r="6" class="c0"/>
<circle cx="1738" cy="1224" r="6" class="c0"/>
<circle cx="854" cy="1266" r="6" class="c0"/>
<circle cx="742" cy="710" r="6" class="c0"/>
<circle cx="1724" cy="1268" r="6" class="c0"/>
<circle cx="940" cy="1342" r="6" class="c0"/>
<circle cx="6" cy="990" r="6" class="c0"/>
<circle cx="1910" cy="1056" r="6" class="c0"/>
<circle cx="1030" cy="1432" r="6" class="c0"/>
<circle cx="118" cy="820" r="6" class="c0"/>
<circle cx="1120" cy="1418" r="6" class="c0"/>
<circle cx="1868" cy="1100" r="6" class="c0"/>
<circle cx="980" cy="1034" r="6" class="c0"/>
<circle cx="882" cy="1042" r="6" class="c0"/>
<circle cx="1874" cy="1130" r="6" class="c0"/>
<circle cx="848" cy="932" r="6" class="c0"/>
<circle cx="1076" cy="1428" r="6" class="c0"/>
<circle cx="918" cy="710" r="6" class="c0"/>
<circle cx="1014" cy="1376" r="6" class="c0"/>
<circle cx="98" cy="902" r="6" class="c0"/>
<circle cx="6" cy="1042" r="6" class="c0"/>
<circle cx="886" cy="720" r="6" class="c0"/>
<circle cx="968" cy="882" r="6" class="c0"/>
<circle cx="136" cy="1096" r="6" class="c0"/>
<circle cx="908" cy="1320" r="6" class="c0"/>
<circle cx="1680" cy="1242" r="6" class="c0"/>
<circle cx="1668" cy="1236" r="6" class="c0"/>
<circle cx="928" cy="1292" r="6" class="c0"/>
<circle cx="1050" cy="1400" r="6" class="c0"/>
<circle cx="1832" cy="1174" r="6" class="c0"/>
<circle cx="852" cy="884" r="6" class="c0"/>
<circle cx="984" cy="918" r="6" class="c0"/>
<circle cx="1000" cy="1146" r="6" class="c0"/>
<circle cx="72" cy="946" r="6" class="c0"/>
<circle cx="1026" cy="1334" r="6" class="c0"/>
<circle cx="1002" cy="1410" r="6" class="c0"/>
<circle cx="1912" cy="534" r="6" class="c0"/>
<circle cx="1016" cy="1040" r="6" class="c0"/>
<circle cx="40" cy="1216" r="6" class="c0"/>
<circle cx="1032" cy="1288" r="6" class="c0"/>
<circle cx="146" cy="1038" r="6" class="c0"/>
<circle cx="52" cy="1066" r="6" class="c0"/>
<circle cx="1692" cy="1196" r="6" class="c0"/>
<circle cx="216" cy="864" r="6" class="c0"/>
<circle cx="1770" cy="1166" r="6" class="c0"/>
<circle cx="976" cy="1288" r="6" class="c0"/>
<circle cx="878" cy="1178" r="6" class="c0"/>
<circle cx="70" cy="674" r="6" class="c0"/>
<circle cx="16" cy="928" r="6" class="c0"/>
<circle cx="98" cy="1076" r="6" class="c0"/>
<circle cx="996" cy="826" r="6" class="c0"/>
<circle cx="1032" cy="1362" r="6" class="c0"/>
<circle cx="934" cy="1104" r="6" class="c0"/>
<circle cx="1890" cy="1078" r="6" class="c0"/>
<circle cx="50" cy="722" r="6" class="c0"/>
<circle cx="1056" cy="1432" r="6" class="c0"/>
<circle cx="852" cy="946" r="6" class="c0"/>
<circle cx="960" cy="890" r="6" class="c0"/>
<circle cx="1002" cy="1008" r="6" class="c0"/>
<circle cx="64" cy="1150" r="6" class="c0"/>
<circle cx="82" cy="1048" r="6" class="c0"/>
<circle cx="1842" cy="1116" r="6" class="c0"/>
<circle cx="202" cy="874" r="6" class="c0"/>
<circle cx="714" cy="650" r="6" class="c0"/>
<circle cx="874" cy="960" r="6" class="c0"/>
<circle cx="880" cy="1098" r="6" class="c0"/>
<circle cx="800" cy="914" r="6" class="c0"/>
<circle cx="722" cy="636" r="6" class="c0"/>
<circle cx="1910" cy="412" r="6" class="c0"/>
<circle cx="48" cy="956" r="6" class="c0"/>
<circle cx="72" cy="1126" r="6" class="c0"/>
<circle cx="28" cy="700" r="6" class="c0"/>
<circle cx="1128" cy="1432" r="6" class="c0"/>
<circle cx="268" cy="900" r="6" class="c0"/>
<circle cx="82" cy="640" r="6" class="c0"/>
<circle cx="934" cy="952" r="6" class="c0"/>
<circle cx="148" cy="970" r="6" class="c0"/>
<circle cx="110" cy="656" r="6" class="c0"/>
<circle cx="1658" cy="1200" r="6" class="c0"/>
<circle cx="882" cy="968" r="6" class="c0"/>
<circle cx="858" cy="980" r="6" class="c0"/>
<circle cx="910" cy="1202" r="6" class="c0"/>
<circle cx="950" cy="718" r="6" class="c0"/>
<circle cx="80" cy="816" r="6" class="c0"/>
<circle cx="144" cy="912" r="6" class="c0"/>
<circle cx="1014" cy="1016" r="6" class="c0"/>
<circle cx="928" cy="1238" r="6" class="c0"/>
<circle cx="1846" cy="1180" r="6" class="c0"/>
<circle cx="1036" cy="1404" r="6" class="c0"/>
<circle cx="988" cy="1050" r="6" class="c0"/>
<circle cx="1804" cy="1160" r="6" class="c0"/>
<circle cx="1764" cy="1212" r="6" class="c0"/>
<circle cx="984" cy="1430" r="6" class="c0"/>
<circle cx="6" cy="1084" r="6" class="c0"/>
<circle cx="182" cy="872" r="6" class="c0"/>
<circle cx="56" cy="1020" r="6" class="c0"/>
<circle cx="934" cy="1070" r="6" class="c0"/>
<circle cx="968" cy="1220" r="6" class="c0"/>
<circle cx="74" cy="702" r="6" class="c0"/>
<circle cx="56" cy="1192" r="6" class="c0"/>
<circle cx="818" cy="944" r="6" class="c0"/>
<circle cx="1902" cy="554" r="6" class="c0"/>
<circle cx="42" cy="714" r="6" class="c0"/>
<circle cx="1032" cy="1214" r="6" class="c0"/>
<circle cx="968" cy="936" r="6" class="c0"/>
<circle cx="90" cy="1086" r="6" class="c0"/>
<circle cx="1912" cy="466" r="6" class="c0"/>
<circle cx="826" cy="818" r="6" class="c0"/>
<circle cx="974" cy="952" r="6" class="c0"/>
<circle cx="1592" cy="1222" r="6" class="c0"/>
<circle cx="22" cy="618" r="6" class="c0"/>
<circle cx="22" cy="822" r="6" class="c0"/>
<circle cx="878" cy="1280" r="6" class="c0"/>
<circle cx="766" cy="744" r="6" class="c0"/>
<circle cx="110" cy="980" r="6" class="c0"/>
<circle cx="38" cy="1096" r="6" class="c0"/>
<circle cx="960" cy="1256" r="6" class="c0"/>
<circle cx="980" cy="1202" r="6" class="c0"/>
<circle cx="1114" cy="1406" r="6" class="c0"/>
<circle cx="1662" cy="1178" r="6" class="c0"/>
<circle cx="788" cy="796" r="6" class="c0"/>
<circle cx="920" cy="1246" r="6" class="c0"/>
<circle cx="136" cy="956" r="6" class="c0"/>
<circle cx="1868" cy="1184" r="6" class="c0"/>
<circle cx="1856" cy="1170" r="6" class="c0"/>
<circle cx="30" cy="914" r="6" class="c0"/>
<circle cx="820" cy="880" r="6" class="c0"/>
<circle cx="892" cy="1014" r="6" class="c0"/>
<circle cx="862" cy="1278" r="6" class="c0"/>
<circle cx="128" cy="914" r="6" class="c0"/>
<circle cx="846" cy="918" r="6" class="c0"/>
<circle cx="1616" cy="1188" r="6" class="c0"/>
<circle cx="54" cy="624" r="6" class="c0"/>
<circle cx="1860" cy="1080" r="6" class="c0"/>
<circle cx="148" cy="1160" r="6" class="c0"/>
<circle cx="1678" cy="1266" r="6" class="c0"/>
<circle cx="1666" cy="1210" r="6" class="c0"/>
<circle cx="908" cy="916" r="6" class="c0"/>
<circle cx="50" cy="640" r="6" class="c0"/>
<circle cx="1830" cy="1124" r="6" class="c0"/>
<circle cx="142" cy="792" r="6" class="c0"/>
<circle cx="76" cy="660" r="6" class="c0"/>
<circle cx="6" cy="860" r="6" class="c0"/>
<circle cx="984" cy="1264" r="6" class="c0"/>
<circle cx="48" cy="1206" r="6" class="c0"/>
<circle cx="888" cy="1110" r="6" class="c0"/>
<circle cx="158" cy="918" r="6" class="c0"/>
<circle cx="56" cy="1166" r="6" class="c0"/>
<circle cx="878" cy="1198" r="6" class="c0"/>
<circle cx="36" cy="1132" r="6" class="c0"/>
<circle cx="6" cy="670" r="6" class="c0"/>
<circle cx="976" cy="718" r="6" class="c0"/>
<circle cx="1750" cy="1250" r="6" class="c0"/>
<circle cx="1642" cy="1292" r="6" class="c0"/>
<circle cx="126" cy="890" r="6" class="c0"/>
<circle cx="30" cy="1168" r="6" class="c0"/>
<circle cx="722" cy="676" r="6" class="c0"/>
<circle cx="1028" cy="1258" r="6" class="c0"/>
<circle cx="108" cy="1114" r="6" class="c0"/>
<circle cx="64" cy="688" r="6" class="c0"/>
<circle cx="882" cy="1258" r="6" class="c0"/>
<circle cx="1020" cy="970" r="6" class="c0"/>
<circle cx="92" cy="772" r="6" class="c0"/>
<circle cx="1644" cy="1204" r="6" class="c0"/>
<circle cx="982" cy="732" r="6" class="c0"/>
<circle cx="228" cy="898" r="6" class="c0"/>
<circle cx="90" cy="914" r="6" class="c0"/>
<circle cx="1886" cy="510" r="6" class="c0"/>
<circle cx="124" cy="1046" r="6" class="c0"/>
<circle cx="994" cy="772" r="6" class="c0"/>
<circle cx="1584" cy="1246" r="6" class="c0"/>
<circle cx="214" cy="910" r="6" class="c0"/>
<circle cx="6" cy="828" r="6" class="c0"/>
<circle cx="770" cy="778" r="6" class="c0"/>
<circle cx="952" cy="898" r="6" class="c0"/>
<circle cx="896" cy="708" r="6" class="c0"/>
<circle cx="882" cy="1124" r="6" class="c0"/>
<circle cx="1758" cy="1184" r="6" class="c0"/>
<circle cx="1876" cy="1072" r="6" class="c0"/>
<circle cx="994" cy="972" r="6" class="c0"/>
<circle cx="1886" cy="1168" r="6" class="c0"/>
<circle cx="880" cy="934" r="6" class="c0"/>
<circle cx="868" cy="756" r="6" class="c0"/>
<circle cx="144" cy="1146" r="6" class="c0"/>
</svg>
