<?xml version="1.0" encoding="utf-8"?>
<svg xmlns="http://www.w3.org/2000/svg"
     xmlns:xlink="http://www.w3.org/1999/xlink" width="1920" height="1440" >

            <defs>
            <style type="text/css"><![CDATA[
circle {stroke: none;}
.c0 {fill: #000000;}
]]></style>
            </defs>
<rect x="0" y="0" width="1920" height="1440" fill="white"/>
<circle cx="22" cy="950" r="14" class="c0"/>
<circle cx="908" cy="1238" r="12" class="c0"/>
<circle cx="910" cy="982" r="12" class="c0"/>
<circle cx="964" cy="1262" r="12" class="c0"/>
<circle cx="1896" cy="682" r="12" class="c0"/>
<circle cx="976" cy="902" r="12" class="c0"/>
<circle cx="984" cy="1066" r="12" class="c0"/>
<circle cx="1000" cy="1170" r="12" class="c0"/>
<circle cx="954" cy="1060" r="12" class="c0"/>
<circle cx="970" cy="874" r="12" class="c0"/>
<circle cx="898" cy="1018" r="12" class="c0"/>
<circle cx="980" cy="950" r="12" class="c0"/>
<circle cx="898" cy="936" r="12" class="c0"/>
<circle cx="1858" cy="672" r="12" class="c0"/>
<circle cx="904" cy="732" r="12" class="c0"/>
<circle cx="916" cy="900" r="12" class="c0"/>
<circle cx="118" cy="870" r="12" class="c0"/>
<circle cx="12" cy="1064" r="12" class="c0"/>
<circle cx="858" cy="946" r="12" class="c0"/>
<circle cx="808" cy="764" r="12" class="c0"/>
<circle cx="34" cy="750" r="12" class="c0"/>
<circle cx="1884" cy="614" r="12" class="c0"/>
<circle cx="980" cy="782" r="12" class="c0"/>
<circle cx="1858" cy="610" r="12" class="c0"/>
<circle cx="82" cy="1032" r="12" class="c0"/>
<circle cx="1896" cy="744" r="12" class="c0"/>
<circle cx="842" cy="768" r="12" class="c0"/>
<circle cx="944" cy="828" r="12" class="c0"/>
<circle cx="984" cy="656" r="12" class="c0"/>
<circle cx="880" cy="998" r="12" class="c0"/>
<circle cx="944" cy="1118" r="12" class="c0"/>
<circle cx="956" cy="1138" r="12" class="c0"/>
<circle cx="904" cy="1164" r="12" class="c0"/>
<circle cx="1022" cy="1362" r="12" class="c0"/>
<circle cx="908" cy="1378" r="12" class="c0"/>
<circle cx="986" cy="1096" r="10" class="c0"/>
<circle cx="1896" cy="710" r="10" class="c0"/>
<circle cx="10" cy="1194" r="10" class="c0"/>
<circle cx="886" cy="1230" r="10" class="c0"/>
<circle cx="872" cy="878" r="10" class="c0"/>
<circle cx="1900" cy="1416" r="10" class="c0"/>
<circle cx="16" cy="1250" r="10" class="c0"/>
<circle cx="960" cy="772" r="10" class="c0"/>
<circle cx="908" cy="788" r="10" class="c0"/>
<circle cx="948" cy="1292" r="10" class="c0"/>
<circle cx="972" cy="1382" r="10" class="c0"/>
<circle cx="1904" cy="632" r="10" class="c0"/>
<circle cx="72" cy="956" r="10" class="c0"/>
<circle cx="1834" cy="642" r="10" class="c0"/>
<circle cx="878" cy="1052" r="10" class="c0"/>
<circle cx="978" cy="744" r="10" class="c0"/>
<circle cx="988" cy="1144" r="10" class="c0"/>
<circle cx="870" cy="762" r="10" class="c0"/>
<circle cx="32" cy="1014" r="10" class="c0"/>
<circle cx="998" cy="766" r="10" class="c0"/>
<circle cx="938" cy="1340" r="10" class="c0"/>
<circle cx="892" cy="1138" r="10" class="c0"/>
<circle cx="898" cy="806" r="10" class="c0"/>
<circle cx="908" cy="684" r="10" class="c0"/>
<circle cx="46" cy="844" r="10" class="c0"/>
<circle cx="872" cy="964" r="10" class="c0"/>
<circle cx="826" cy="818" r="10" class="c0"/>
<circle cx="930" cy="1164" r="10" class="c0"/>
<circle cx="914" cy="1074" r="10" class="c0"/>
<circle cx="888" cy="1364" r="10" class="c0"/>
<circle cx="940" cy="1018" r="10" class="c0"/>
<circle cx="978" cy="1028" r="10" class="c0"/>
<circle cx="924" cy="1282" r="10" class="c0"/>
<circle cx="890" cy="862" r="10" class="c0"/>
<circle cx="844" cy="796" r="10" class="c0"/>
<circle cx="972" cy="850" r="10" class="c0"/>
<circle cx="20" cy="916" r="10" class="c0"/>
<circle cx="920" cy="954" r="10" class="c0"/>
<circle cx="58" cy="1030" r="10" class="c0"/>
<circle cx="890" cy="1112" r="10" class="c0"/>
<circle cx="936" cy="1222" r="10" class="c0"/>
<circle cx="970" cy="1210" r="10" class="c0"/>
<circle cx="952" cy="666" r="10" class="c0"/>
<circle cx="10" cy="764" r="10" class="c0"/>
<circle cx="74" cy="916" r="10" class="c0"/>
<circle cx="1012" cy="1090" r="10" class="c0"/>
<circle cx="968" cy="804" r="10" class="c0"/>
<circle cx="926" cy="1138" r="10" class="c0"/>
<circle cx="946" cy="1240" r="10" class="c0"/>
<circle cx="878" cy="662" r="10" class="c0"/>
<circle cx="956" cy="620" r="10" class="c0"/>
<circle cx="894" cy="912" r="10" class="c0"/>
<circle cx="914" cy="1050" r="10" class="c0"/>
<circle cx="66" cy="1072" r="10" class="c0"/>
<circle cx="908" cy="1270" r="10" class="c0"/>
<circle cx="938" cy="880" r="10" class="c0"/>
<circle cx="34" cy="1086" r="10" class="c0"/>
<circle cx="100" cy="916" r="10" class="c0"/>
<circle cx="894" cy="1310" r="10" class="c0"/>
<circle cx="92" cy="856" r="10" class="c0"/>
<circle cx="36" cy="786" r="10" class="c0"/>
<circle cx="46" cy="1146" r="10" class="c0"/>
<circle cx="912" cy="756" r="10" class="c0"/>
<circle cx="1004" cy="1044" r="10" class="c0"/>
<circle cx="10" cy="682" r="10" class="c0"/>
<circle cx="988" cy="1230" r="10" class="c0"/>
<circle cx="786" cy="658" r="10" class="c0"/>
<circle cx="906" cy="640" r="10" class="c0"/>
<circle cx="812" cy="708" r="10" class="c0"/>
<circle cx="944" cy="1428" r="10" class="c0"/>
<circle cx="990" cy="680" r="10" class="c0"/>
<circle cx="948" cy="938" r="10" class="c0"/>
<circle cx="152" cy="1078" r="10" class="c0"/>
<circle cx="982" cy="700" r="10" class="c0"/>
<circle cx="788" cy="694" r="10" class="c0"/>
<circle cx="934" cy="622" r="10" class="c0"/>
<circle cx="1880" cy="646" r="10" class="c0"/>
<circle cx="934" cy="1304" r="10" class="c0"/>
<circle cx="894" cy="834" r="10" class="c0"/>
<circle cx="1870" cy="692" r="10" class="c0"/>
<circle cx="976" cy="1348" r="10" class="c0"/>
<circle cx="872" cy="792" r="10" class="c0"/>
<circle cx="94" cy="946" r="10" class="c0"/>
<circle cx="78" cy="1060" r="10" class="c0"/>
<circle cx="120" cy="896" r="10" class="c0"/>
<circle cx="24" cy="830" r="10" class="c0"/>
<circle cx="1036" cy="1408" r="10" class="c0"/>
<circle cx="908" cy="1200" r="10" class="c0"/>
<circle cx="980" cy="1314" r="10" class="c0"/>
<circle cx="844" cy="896" r="10" class="c0"/>
<circle cx="52" cy="926" r="10" class="c0"/>
<circle cx="880" cy="1152" r="10" class="c0"/>
<circle cx="912" cy="874" r="10" class="c0"/>
<circle cx="960" cy="990" r="10" class="c0"/>
<circle cx="1000" cy="1000" r="10" class="c0"/>
<circle cx="938" cy="1040" r="10" class="c0"/>
<circle cx="878" cy="1094" r="8" class="c0"/>
<circle cx="896" cy="1424" r="8" class="c0"/>
<circle cx="90" cy="976" r="8" class="c0"/>
<circle cx="966" cy="928" r="8" class="c0"/>
<circle cx="72" cy="988" r="8" class="c0"/>
<circle cx="36" cy="1122" r="8" class="c0"/>
<circle cx="12" cy="1110" r="8" class="c0"/>
<circle cx="1030" cy="1166" r="8" class="c0"/>
<circle cx="932" cy="1186" r="8" class="c0"/>
<circle cx="28" cy="1158" r="8" class="c0"/>
<circle cx="880" cy="740" r="8" class="c0"/>
<circle cx="960" cy="644" r="8" class="c0"/>
<circle cx="960" cy="734" r="8" class="c0"/>
<circle cx="48" cy="882" r="8" class="c0"/>
<circle cx="984" cy="1422" r="8" class="c0"/>
<circle cx="918" cy="822" r="8" class="c0"/>
<circle cx="54" cy="1184" r="8" class="c0"/>
<circle cx="1900" cy="594" r="8" class="c0"/>
<circle cx="988" cy="1334" r="8" class="c0"/>
<circle cx="770" cy="584" r="8" class="c0"/>
<circle cx="934" cy="1256" r="8" class="c0"/>
<circle cx="970" cy="1180" r="8" class="c0"/>
<circle cx="914" cy="1332" r="8" class="c0"/>
<circle cx="942" cy="758" r="8" class="c0"/>
<circle cx="984" cy="986" r="8" class="c0"/>
<circle cx="822" cy="736" r="8" class="c0"/>
<circle cx="78" cy="876" r="8" class="c0"/>
<circle cx="998" cy="1372" r="8" class="c0"/>
<circle cx="26" cy="1210" r="8" class="c0"/>
<circle cx="806" cy="806" r="8" class="c0"/>
<circle cx="1038" cy="1386" r="8" class="c0"/>
<circle cx="1012" cy="1238" r="8" class="c0"/>
<circle cx="950" cy="914" r="8" class="c0"/>
<circle cx="940" cy="796" r="8" class="c0"/>
<circle cx="28" cy="992" r="8" class="c0"/>
<circle cx="928" cy="678" r="8" class="c0"/>
<circle cx="954" cy="1398" r="8" class="c0"/>
<circle cx="930" cy="1410" r="8" class="c0"/>
<circle cx="196" cy="1080" r="8" class="c0"/>
<circle cx="888" cy="1280" r="8" class="c0"/>
<circle cx="944" cy="702" r="8" class="c0"/>
<circle cx="798" cy="720" r="8" class="c0"/>
<circle cx="892" cy="674" r="8" class="c0"/>
<circle cx="912" cy="1354" r="8" class="c0"/>
<circle cx="130" cy="834" r="8" class="c0"/>
<circle cx="994" cy="964" r="8" class="c0"/>
<circle cx="868" cy="1030" r="8" class="c0"/>
<circle cx="1004" cy="1108" r="8" class="c0"/>
<circle cx="924" cy="720" r="8" class="c0"/>
<circle cx="916" cy="662" r="8" class="c0"/>
<circle cx="850" cy="1132" r="8" class="c0"/>
<circle cx="24" cy="726" r="8" class="c0"/>
<circle cx="92" cy="1000" r="8" class="c0"/>
<circle cx="934" cy="1360" r="8" class="c0"/>
<circle cx="1030" cy="1126" r="8" class="c0"/>
<circle cx="116" cy="926" r="8" class="c0"/>
<circle cx="918" cy="850" r="8" class="c0"/>
<circle cx="58" cy="906" r="8" class="c0"/>
<circle cx="86" cy="810" r="8" class="c0"/>
<circle cx="64" cy="1010" r="8" class="c0"/>
<circle cx="928" cy="1000" r="8" class="c0"/>
<circle cx="1026" cy="1222" r="8" class="c0"/>
<circle cx="894" cy="1080" r="8" class="c0"/>
<circle cx="32" cy="1238" r="8" class="c0"/>
<circle cx="810" cy="788" r="8" class="c0"/>
<circle cx="1008" cy="1142" r="8" class="c0"/>
<circle cx="8" cy="998" r="8" class="c0"/>
<circle cx="894" cy="708" r="8" class="c0"/>
<circle cx="8" cy="842" r="8" class="c0"/>
<circle cx="874" cy="902" r="8" class="c0"/>
<circle cx="890" cy="1390" r="8" class="c0"/>
<circle cx="952" cy="1162" r="8" class="c0"/>
<circle cx="994" cy="722" r="8" class="c0"/>
<circle cx="16" cy="888" r="8" class="c0"/>
<circle cx="10" cy="974" r="8" class="c0"/>
<circle cx="928" cy="808" r="8" class="c0"/>
<circle cx="1866" cy="634" r="8" class="c0"/>
<circle cx="930" cy="1096" r="8" class="c0"/>
<circle cx="14" cy="860" r="8" class="c0"/>
<circle cx="978" cy="822" r="8" class="c0"/>
<circle cx="986" cy="1120" r="8" class="c0"/>
<circle cx="888" cy="1258" r="8" class="c0"/>
<circle cx="940" cy="986" r="8" class="c0"/>
<circle cx="1882" cy="582" r="8" class="c0"/>
<circle cx="916" cy="1120" r="8" class="c0"/>
<circle cx="1022" cy="1196" r="8" class="c0"/>
<circle cx="134" cy="1086" r="8" class="c0"/>
<circle cx="868" cy="1164" r="8" class="c0"/>
<circle cx="954" cy="716" r="8" class="c0"/>
<circle cx="36" cy="1178" r="8" class="c0"/>
<circle cx="92" cy="888" r="8" class="c0"/>
<circle cx="750" cy="522" r="8" class="c0"/>
<circle cx="992" cy="1400" r="8" class="c0"/>
<circle cx="938" cy="646" r="8" class="c0"/>
<circle cx="104" cy="1070" r="8" class="c0"/>
<circle cx="934" cy="858" r="8" class="c0"/>
<circle cx="988" cy="928" r="8" class="c0"/>
<circle cx="940" cy="962" r="8" class="c0"/>
<circle cx="970" cy="1082" r="8" class="c0"/>
<circle cx="1004" cy="1350" r="8" class="c0"/>
<circle cx="960" cy="1020" r="8" class="c0"/>
<circle cx="1856" cy="578" r="8" class="c0"/>
<circle cx="998" cy="908" r="8" class="c0"/>
<circle cx="926" cy="742" r="8" class="c0"/>
<circle cx="954" cy="1330" r="8" class="c0"/>
<circle cx="798" cy="676" r="8" class="c0"/>
<circle cx="776" cy="620" r="8" class="c0"/>
<circle cx="986" cy="1194" r="8" class="c0"/>
<circle cx="922" cy="1428" r="8" class="c0"/>
<circle cx="896" cy="1214" r="8" class="c0"/>
<circle cx="872" cy="724" r="8" class="c0"/>
<circle cx="948" cy="1196" r="8" class="c0"/>
<circle cx="178" cy="1102" r="8" class="c0"/>
<circle cx="992" cy="844" r="8" class="c0"/>
<circle cx="906" cy="1406" r="8" class="c0"/>
<circle cx="966" cy="970" r="8" class="c0"/>
<circle cx="1900" cy="654" r="8" class="c0"/>
<circle cx="968" cy="1108" r="8" class="c0"/>
<circle cx="38" cy="972" r="8" class="c0"/>
<circle cx="8" cy="798" r="8" class="c0"/>
<circle cx="1906" cy="1386" r="8" class="c0"/>
<circle cx="1010" cy="1070" r="8" class="c0"/>
<circle cx="822" cy="798" r="8" class="c0"/>
<circle cx="134" cy="854" r="8" class="c0"/>
<circle cx="878" cy="814" r="8" class="c0"/>
<circle cx="1800" cy="1418" r="8" class="c0"/>
<circle cx="106" cy="1088" r="8" class="c0"/>
<circle cx="968" cy="680" r="8" class="c0"/>
<circle cx="14" cy="1148" r="8" class="c0"/>
<circle cx="46" cy="802" r="8" class="c0"/>
<circle cx="970" cy="1288" r="8" class="c0"/>
<circle cx="890" cy="1342" r="8" class="c0"/>
<circle cx="28" cy="1050" r="8" class="c0"/>
<circle cx="946" cy="1088" r="8" class="c0"/>
<circle cx="930" cy="770" r="8" class="c0"/>
<circle cx="48" cy="726" r="8" class="c0"/>
<circle cx="854" cy="748" r="8" class="c0"/>
<circle cx="792" cy="782" r="8" class="c0"/>
<circle cx="762" cy="554" r="8" class="c0"/>
<circle cx="980" cy="634" r="8" class="c0"/>
<circle cx="848" cy="920" r="8" class="c0"/>
<circle cx="794" cy="816" r="8" class="c0"/>
<circle cx="60" cy="776" r="8" class="c0"/>
<circle cx="110" cy="810" r="8" class="c0"/>
<circle cx="992" cy="1258" r="8" class="c0"/>
<circle cx="8" cy="706" r="8" class="c0"/>
<circle cx="830" cy="718" r="8" class="c0"/>
<circle cx="1910" cy="766" r="8" class="c0"/>
<circle cx="46" cy="1046" r="8" class="c0"/>
<circle cx="64" cy="864" r="8" class="c0"/>
<circle cx="752" cy="542" r="8" class="c0"/>
<circle cx="1010" cy="1402" r="8" class="c0"/>
<circle cx="836" cy="872" r="8" class="c0"/>
<circle cx="804" cy="828" r="8" class="c0"/>
<circle cx="828" cy="840" r="8" class="c0"/>
<circle cx="148" cy="1056" r="8" class="c0"/>
<circle cx="54" cy="984" r="8" class="c0"/>
<circle cx="890" cy="1188" r="8" class="c0"/>
<circle cx="102" cy="834" r="8" class="c0"/>
<circle cx="996" cy="876" r="8" class="c0"/>
<circle cx="960" cy="1362" r="8" class="c0"/>
<circle cx="964" cy="1430" r="8" class="c0"/>
<circle cx="12" cy="1020" r="8" class="c0"/>
<circle cx="914" cy="924" r="8" class="c0"/>
<circle cx="904" cy="1294" r="8" class="c0"/>
<circle cx="1844" cy="1428" r="8" class="c0"/>
<circle cx="870" cy="1070" r="8" class="c0"/>
<circle cx="74" cy="1092" r="8" class="c0"/>
<circle cx="930" cy="1380" r="8" class="c0"/>
<circle cx="1026" cy="1146" r="8" class="c0"/>
<circle cx="50" cy="960" r="8" class="c0"/>
<circle cx="8" cy="1228" r="8" class="c0"/>
<circle cx="10" cy="1088" r="8" class="c0"/>
<circle cx="1840" cy="1404" r="8" class="c0"/>
<circle cx="132" cy="1068" r="8" class="c0"/>
<circle cx="1004" cy="1422" r="8" class="c0"/>
<circle cx="112" cy="1054" r="8" class="c0"/>
<circle cx="8" cy="740" r="8" class="c0"/>
<circle cx="936" cy="1076" r="8" class="c0"/>
<circle cx="936" cy="730" r="8" class="c0"/>
<circle cx="1880" cy="1426" r="8" class="c0"/>
<circle cx="892" cy="882" r="8" class="c0"/>
<circle cx="1908" cy="698" r="8" class="c0"/>
<circle cx="1026" cy="1104" r="8" class="c0"/>
<circle cx="926" cy="1322" r="8" class="c0"/>
<circle cx="972" cy="1406" r="8" class="c0"/>
<circle cx="68" cy="886" r="8" class="c0"/>
<circle cx="1020" cy="1056" r="8" class="c0"/>
<circle cx="998" cy="824" r="8" class="c0"/>
<circle cx="112" cy="1030" r="8" class="c0"/>
<circle cx="990" cy="804" r="8" class="c0"/>
<circle cx="934" cy="922" r="8" class="c0"/>
<circle cx="1908" cy="794" r="8" class="c0"/>
<circle cx="878" cy="1412" r="8" class="c0"/>
<circle cx="980" cy="1006" r="8" class="c0"/>
<circle cx="162" cy="1094" r="8" class="c0"/>
<circle cx="38" cy="862" r="8" class="c0"/>
<circle cx="970" cy="1048" r="8" class="c0"/>
<circle cx="1002" cy="1020" r="8" class="c0"/>
<circle cx="16" cy="1172" r="8" class="c0"/>
<circle cx="28" cy="874" r="8" class="c0"/>
<circle cx="14" cy="1040" r="8" class="c0"/>
<circle cx="170" cy="1118" r="8" class="c0"/>
<circle cx="1016" cy="1384" r="8" class="c0"/>
<circle cx="166" cy="1060" r="8" class="c0"/>
<circle cx="10" cy="818" r="8" class="c0"/>
<circle cx="972" cy="1160" r="8" class="c0"/>
<circle cx="888" cy="782" r="8" class="c0"/>
<circle cx="1000" cy="938" r="8" class="c0"/>
<circle cx="892" cy="750" r="8" class="c0"/>
<circle cx="1896" cy="566" r="8" class="c0"/>
<circle cx="952" cy="864" r="8" class="c0"/>
<circle cx="958" cy="954" r="8" class="c0"/>
<circle cx="912" cy="618" r="8" class="c0"/>
<circle cx="30" cy="676" r="8" class="c0"/>
<circle cx="174" cy="1082" r="8" class="c0"/>
<circle cx="30" cy="1264" r="8" class="c0"/>
<circle cx="78" cy="838" r="8" class="c0"/>
<circle cx="1870" cy="720" r="8" class="c0"/>
<circle cx="968" cy="1240" r="8" class="c0"/>
<circle cx="18" cy="1128" r="8" class="c0"/>
<circle cx="800" cy="744" r="8" class="c0"/>
<circle cx="10" cy="1280" r="8" class="c0"/>
<circle cx="952" cy="894" r="8" class="c0"/>
<circle cx="1844" cy="692" r="6" class="c0"/>
<circle cx="914" cy="710" r="6" class="c0"/>
<circle cx="1878" cy="764" r="6" class="c0"/>
<circle cx="44" cy="826" r="6" class="c0"/>
<circle cx="24" cy="808" r="6" class="c0"/>
<circle cx="958" cy="1222" r="6" class="c0"/>
<circle cx="34" cy="816" r="6" class="c0"/>
<circle cx="944" cy="604" r="6" class="c0"/>
<circle cx="828" cy="780" r="6" class="c0"/>
<circle cx="8" cy="934" r="6" class="c0"/>
<circle cx="982" cy="1368" r="6" class="c0"/>
<circle cx="954" cy="844" r="6" class="c0"/>
<circle cx="896" cy="1064" r="6" class="c0"/>
<circle cx="1910" cy="670" r="6" class="c0"/>
<circle cx="862" cy="988" r="6" class="c0"/>
<circle cx="44" cy="1102" r="6" class="c0"/>
<circle cx="36" cy="898" r="6" class="c0"/>
<circle cx="32" cy="712" r="6" class="c0"/>
<circle cx="876" cy="830" r="6" class="c0"/>
<circle cx="932" cy="1058" r="6" class="c0"/>
<circle cx="918" cy="1216" r="6" class="c0"/>
<circle cx="52" cy="1082" r="6" class="c0"/>
<circle cx="934" cy="662" r="6" class="c0"/>
<circle cx="36" cy="694" r="6" class="c0"/>
<circle cx="56" cy="750" r="6" class="c0"/>
<circle cx="842" cy="728" r="6" class="c0"/>
<circle cx="26" cy="772" r="6" class="c0"/>
<circle cx="926" cy="1206" r="6" class="c0"/>
<circle cx="770" cy="604" r="6" class="c0"/>
<circle cx="1874" cy="1404" r="6" class="c0"/>
<circle cx="902" cy="1096" r="6" class="c0"/>
<circle cx="62" cy="834" r="6" class="c0"/>
<circle cx="32" cy="928" r="6" class="c0"/>
<circle cx="928" cy="972" r="6" class="c0"/>
<circle cx="88" cy="1082" r="6" class="c0"/>
<circle cx="1846" cy="624" r="6" class="c0"/>
<circle cx="42" cy="940" r="6" class="c0"/>
<circle cx="874" cy="936" r="6" class="c0"/>
<circle cx="888" cy="972" r="6" class="c0"/>
<circle cx="888" cy="644" r="6" class="c0"/>
<circle cx="1882" cy="666" r="6" class="c0"/>
<circle cx="1854" cy="646" r="6" class="c0"/>
<circle cx="1006" cy="1220" r="6" class="c0"/>
<circle cx="18" cy="780" r="6" class="c0"/>
<circle cx="1012" cy="1124" r="6" class="c0"/>
<circle cx="1030" cy="1086" r="6" class="c0"/>
<circle cx="16" cy="1310" r="6" class="c0"/>
<circle cx="40" cy="1222" r="6" class="c0"/>
<circle cx="42" cy="912" r="6" class="c0"/>
<circle cx="976" cy="720" r="6" class="c0"/>
<circle cx="980" cy="1274" r="6" class="c0"/>
<circle cx="912" cy="1312" r="6" class="c0"/>
<circle cx="1910" cy="726" r="6" class="c0"/>
<circle cx="920" cy="1022" r="6" class="c0"/>
<circle cx="1832" cy="700" r="6" class="c0"/>
<circle cx="912" cy="1002" r="6" class="c0"/>
<circle cx="1908" cy="612" r="6" class="c0"/>
<circle cx="46" cy="768" r="6" class="c0"/>
<circle cx="24" cy="704" r="6" class="c0"/>
<circle cx="960" cy="1308" r="6" class="c0"/>
<circle cx="856" cy="784" r="6" class="c0"/>
<circle cx="832" cy="856" r="6" class="c0"/>
<circle cx="992" cy="892" r="6" class="c0"/>
<circle cx="96" cy="1050" r="6" class="c0"/>
<circle cx="958" cy="690" r="6" class="c0"/>
<circle cx="38" cy="1194" r="6" class="c0"/>
<circle cx="996" cy="1082" r="6" class="c0"/>
<circle cx="900" cy="962" r="6" class="c0"/>
<circle cx="44" cy="994" r="6" class="c0"/>
<circle cx="198" cy="1100" r="6" class="c0"/>
<circle cx="970" cy="1126" r="6" class="c0"/>
<circle cx="142" cy="878" r="6" class="c0"/>
<circle cx="42" cy="1066" r="6" class="c0"/>
<circle cx="940" cy="1150" r="6" class="c0"/>
<circle cx="1004" cy="954" r="6" class="c0"/>
<circle cx="950" cy="1374" r="6" class="c0"/>
<circle cx="886" cy="952" r="6" class="c0"/>
<circle cx="944" cy="1268" r="6" class="c0"/>
<circle cx="958" cy="1414" r="6" class="c0"/>
<circle cx="950" cy="974" r="6" class="c0"/>
<circle cx="874" cy="1122" r="6" class="c0"/>
<circle cx="112" cy="942" r="6" class="c0"/>
<circle cx="1886" cy="726" r="6" class="c0"/>
<circle cx="76" cy="820" r="6" class="c0"/>
<circle cx="52" cy="1116" r="6" class="c0"/>
<circle cx="880" cy="688" r="6" class="c0"/>
<circle cx="76" cy="936" r="6" class="c0"/>
<circle cx="952" cy="1006" r="6" class="c0"/>
<circle cx="870" cy="1014" r="6" class="c0"/>
<circle cx="1006" cy="1334" r="6" class="c0"/>
<circle cx="94" cy="1016" r="6" class="c0"/>
<circle cx="922" cy="1396" r="6" class="c0"/>
<circle cx="102" cy="966" r="6" class="c0"/>
<circle cx="896" cy="1046" r="6" class="c0"/>
<circle cx="64" cy="972" r="6" class="c0"/>
<circle cx="1022" cy="1430" r="6" class="c0"/>
<circle cx="882" cy="926" r="6" class="c0"/>
<circle cx="956" cy="1038" r="6" class="c0"/>
<circle cx="8" cy="1300" r="6" class="c0"/>
<circle cx="60" cy="942" r="6" class="c0"/>
<circle cx="882" cy="846" r="6" class="c0"/>
<circle cx="830" cy="752" r="6" class="c0"/>
<circle cx="884" cy="1032" r="6" class="c0"/>
<circle cx="1004" cy="1204" r="6" class="c0"/>
<circle cx="1892" cy="1398" r="6" class="c0"/>
<circle cx="990" cy="1358" r="6" class="c0"/>
<circle cx="114" cy="844" r="6" class="c0"/>
<circle cx="54" cy="1060" r="6" class="c0"/>
<circle cx="6" cy="724" r="6" class="c0"/>
<circle cx="152" cy="858" r="6" class="c0"/>
<circle cx="6" cy="906" r="6" class="c0"/>
<circle cx="762" cy="532" r="6" class="c0"/>
<circle cx="1000" cy="788" r="6" class="c0"/>
<circle cx="80" cy="898" r="6" class="c0"/>
<circle cx="1912" cy="582" r="6" class="c0"/>
<circle cx="784" cy="638" r="6" class="c0"/>
<circle cx="972" cy="1330" r="6" class="c0"/>
<circle cx="876" cy="1432" r="6" class="c0"/>
<circle cx="116" cy="826" r="6" class="c0"/>
<circle cx="28" cy="1138" r="6" class="c0"/>
<circle cx="990" cy="860" r="6" class="c0"/>
<circle cx="46" cy="1202" r="6" class="c0"/>
<circle cx="910" cy="1104" r="6" class="c0"/>
<circle cx="862" cy="734" r="6" class="c0"/>
<circle cx="56" cy="820" r="6" class="c0"/>
<circle cx="22" cy="1098" r="6" class="c0"/>
<circle cx="858" cy="906" r="6" class="c0"/>
<circle cx="16" cy="664" r="6" class="c0"/>
<circle cx="760" cy="572" r="6" class="c0"/>
<circle cx="944" cy="1176" r="6" class="c0"/>
<circle cx="924" cy="936" r="6" class="c0"/>
<circle cx="1834" cy="662" r="6" class="c0"/>
<circle cx="958" cy="750" r="6" class="c0"/>
<circle cx="944" cy="1320" r="6" class="c0"/>
<circle cx="976" cy="762" r="6" class="c0"/>
<circle cx="132" cy="912" r="6" class="c0"/>
<circle cx="60" cy="1162" r="6" class="c0"/>
<circle cx="58" cy="1094" r="6" class="c0"/>
<circle cx="1040" cy="1196" r="6" class="c0"/>
<circle cx="1806" cy="634" r="6" class="c0"/>
<circle cx="898" cy="656" r="6" class="c0"/>
<circle cx="868" cy="1138" r="6" class="c0"/>
<circle cx="886" cy="1172" r="6" class="c0"/>
<circle cx="1872" cy="594" r="6" class="c0"/>
<circle cx="1836" cy="586" r="6" class="c0"/>
<circle cx="950" cy="1212" r="6" class="c0"/>
<circle cx="1812" cy="1428" r="6" class="c0"/>
<circle cx="64" cy="1048" r="6" class="c0"/>
<circle cx="6" cy="652" r="6" class="c0"/>
<circle cx="28" cy="852" r="6" class="c0"/>
<circle cx="950" cy="806" r="6" class="c0"/>
<circle cx="898" cy="768" r="6" class="c0"/>
<circle cx="920" cy="698" r="6" class="c0"/>
<circle cx="924" cy="636" r="6" class="c0"/>
<circle cx="66" cy="848" r="6" class="c0"/>
<circle cx="788" cy="766" r="6" class="c0"/>
<circle cx="46" cy="1168" r="6" class="c0"/>
<circle cx="926" cy="786" r="6" class="c0"/>
<circle cx="36" cy="1032" r="6" class="c0"/>
<circle cx="1036" cy="1212" r="6" class="c0"/>
<circle cx="1860" cy="1426" r="6" class="c0"/>
<circle cx="1020" cy="1416" r="6" class="c0"/>
<circle cx="944" cy="682" r="6" class="c0"/>
<circle cx="1002" cy="982" r="6" class="c0"/>
<circle cx="6" cy="1162" r="6" class="c0"/>
<circle cx="936" cy="906" r="6" class="c0"/>
<circle cx="54" cy="1130" r="6" class="c0"/>
<circle cx="64" cy="802" r="6" class="c0"/>
<circle cx="1018" cy="1180" r="6" class="c0"/>
<circle cx="1014" cy="1158" r="6" class="c0"/>
<circle cx="858" cy="974" r="6" class="c0"/>
<circle cx="916" cy="1178" r="6" class="c0"/>
<circle cx="1856" cy="1408" r="6" class="c0"/>
<circle cx="852" cy="878" r="6" class="c0"/>
<circle cx="134" cy="810" r="6" class="c0"/>
<circle cx="944" cy="780" r="6" class="c0"/>
<circle cx="1828" cy="1426" r="6" class="c0"/>
<circle cx="872" cy="1200" r="6" class="c0"/>
<circle cx="956" cy="792" r="6" class="c0"/>
<circle cx="854" cy="1150" r="6" class="c0"/>
<circle cx="962" cy="836" r="6" class="c0"/>
<circle cx="6" cy="874" r="6" class="c0"/>
<circle cx="1910" cy="558" r="6" class="c0"/>
<circle cx="1912" cy="1430" r="6" class="c0"/>
<circle cx="1822" cy="626" r="6" class="c0"/>
<circle cx="56" cy="792" r="6" class="c0"/>
<circle cx="1030" cy="1238" r="6" class="c0"/>
<circle cx="1010" cy="1258" r="6" class="c0"/>
<circle cx="120" cy="980" r="6" class="c0"/>
<circle cx="788" cy="798" r="6" class="c0"/>
<circle cx="986" cy="1046" r="6" class="c0"/>
<circle cx="128" cy="958" r="6" class="c0"/>
<circle cx="912" cy="1032" r="6" class="c0"/>
<circle cx="956" cy="1098" r="6" class="c0"/>
<circle cx="1910" cy="1362" r="6" class="c0"/>
<circle cx="154" cy="822" r="6" class="c0"/>
<circle cx="928" cy="838" r="6" class="c0"/>
<circle cx="894" cy="626" r="6" class="c0"/>
<circle cx="880" cy="1380" r="6" class="c0"/>
<circle cx="6" cy="1320" r="6" class="c0"/>
<circle cx="54" cy="1218" r="6" class="c0"/>
<circle cx="862" cy="892" r="6" class="c0"/>
<circle cx="860" cy="1048" r="6" class="c0"/>
<circle cx="1880" cy="1380" r="6" class="c0"/>
<circle cx="992" cy="1302" r="6" class="c0"/>
<circle cx="964" cy="702" r="6" class="c0"/>
<circle cx="34" cy="1282" r="6" class="c0"/>
<circle cx="1912" cy="1404" r="6" class="c0"/>
<circle cx="924" cy="608" r="6" class="c0"/>
<circle cx="104" cy="984" r="6" class="c0"/>
<circle cx="1836" cy="612" r="6" class="c0"/>
<circle cx="48" cy="706" r="6" class="c0"/>
<circle cx="874" cy="1186" r="6" class="c0"/>
<circle cx="1028" cy="1072" r="6" class="c0"/>
<circle cx="1878" cy="736" r="6" class="c0"/>
</svg>
