<?xml version="1.0" encoding="utf-8"?>
<svg xmlns="http://www.w3.org/2000/svg"
     xmlns:xlink="http://www.w3.org/1999/xlink" width="1920" height="1440" >

            <defs>
            <style type="text/css"><![CDATA[
circle {stroke: none;}
.c0 {fill: #000000;}
]]></style>
            </defs>
<rect x="0" y="0" width="1920" height="1440" fill="white"/>
<circle cx="886" cy="620" r="14" class="c0"/>
<circle cx="50" cy="1188" r="12" class="c0"/>
<circle cx="1840" cy="1108" r="12" class="c0"/>
<circle cx="942" cy="564" r="12" class="c0"/>
<circle cx="968" cy="906" r="12" class="c0"/>
<circle cx="786" cy="562" r="12" class="c0"/>
<circle cx="858" cy="1208" r="12" class="c0"/>
<circle cx="28" cy="1094" r="12" class="c0"/>
<circle cx="1862" cy="968" r="12" class="c0"/>
<circle cx="950" cy="1058" r="12" class="c0"/>
<circle cx="794" cy="1224" r="12" class="c0"/>
<circle cx="970" cy="1014" r="12" class="c0"/>
<circle cx="918" cy="862" r="12" class="c0"/>
<circle cx="926" cy="934" r="12" class="c0"/>
<circle cx="12" cy="1144" r="12" class="c0"/>
<circle cx="868" cy="1270" r="12" class="c0"/>
<circle cx="1862" cy="1062" r="12" class="c0"/>
<circle cx="986" cy="1036" r="12" class="c0"/>
<circle cx="834" cy="1120" r="12" class="c0"/>
<circle cx="904" cy="1042" r="12" class="c0"/>
<circle cx="996" cy="900" r="12" class="c0"/>
<circle cx="932" cy="1142" r="12" class="c0"/>
<circle cx="964" cy="532" r="12" class="c0"/>
<circle cx="882" cy="830" r="12" class="c0"/>
<circle cx="1900" cy="1136" r="12" class="c0"/>
<circle cx="818" cy="1302" r="12" class="c0"/>
<circle cx="28" cy="1248" r="12" class="c0"/>
<circle cx="996" cy="936" r="12" class="c0"/>
<circle cx="792" cy="1276" r="12" class="c0"/>
<circle cx="24" cy="1014" r="10" class="c0"/>
<circle cx="962" cy="724" r="10" class="c0"/>
<circle cx="904" cy="916" r="10" class="c0"/>
<circle cx="956" cy="834" r="10" class="c0"/>
<circle cx="822" cy="1068" r="10" class="c0"/>
<circle cx="940" cy="592" r="10" class="c0"/>
<circle cx="934" cy="990" r="10" class="c0"/>
<circle cx="44" cy="1028" r="10" class="c0"/>
<circle cx="948" cy="1128" r="10" class="c0"/>
<circle cx="792" cy="646" r="10" class="c0"/>
<circle cx="1808" cy="1050" r="10" class="c0"/>
<circle cx="912" cy="1096" r="10" class="c0"/>
<circle cx="880" cy="670" r="10" class="c0"/>
<circle cx="48" cy="1164" r="10" class="c0"/>
<circle cx="968" cy="934" r="10" class="c0"/>
<circle cx="908" cy="548" r="10" class="c0"/>
<circle cx="844" cy="1264" r="10" class="c0"/>
<circle cx="928" cy="518" r="10" class="c0"/>
<circle cx="858" cy="1298" r="10" class="c0"/>
<circle cx="1860" cy="1088" r="10" class="c0"/>
<circle cx="972" cy="816" r="10" class="c0"/>
<circle cx="934" cy="906" r="10" class="c0"/>
<circle cx="814" cy="604" r="10" class="c0"/>
<circle cx="882" cy="752" r="10" class="c0"/>
<circle cx="806" cy="686" r="10" class="c0"/>
<circle cx="982" cy="970" r="10" class="c0"/>
<circle cx="1898" cy="992" r="10" class="c0"/>
<circle cx="890" cy="972" r="10" class="c0"/>
<circle cx="996" cy="648" r="10" class="c0"/>
<circle cx="950" cy="616" r="10" class="c0"/>
<circle cx="932" cy="798" r="10" class="c0"/>
<circle cx="988" cy="878" r="10" class="c0"/>
<circle cx="1002" cy="1000" r="10" class="c0"/>
<circle cx="806" cy="740" r="10" class="c0"/>
<circle cx="878" cy="868" r="10" class="c0"/>
<circle cx="800" cy="1164" r="10" class="c0"/>
<circle cx="914" cy="674" r="10" class="c0"/>
<circle cx="796" cy="1190" r="10" class="c0"/>
<circle cx="838" cy="1234" r="10" class="c0"/>
<circle cx="880" cy="694" r="10" class="c0"/>
<circle cx="768" cy="378" r="10" class="c0"/>
<circle cx="32" cy="1130" r="10" class="c0"/>
<circle cx="36" cy="1066" r="10" class="c0"/>
<circle cx="1872" cy="938" r="10" class="c0"/>
<circle cx="998" cy="1106" r="10" class="c0"/>
<circle cx="964" cy="788" r="10" class="c0"/>
<circle cx="996" cy="618" r="10" class="c0"/>
<circle cx="884" cy="1240" r="10" class="c0"/>
<circle cx="866" cy="1100" r="10" class="c0"/>
<circle cx="970" cy="636" r="10" class="c0"/>
<circle cx="838" cy="1178" r="10" class="c0"/>
<circle cx="922" cy="698" r="10" class="c0"/>
<circle cx="890" cy="778" r="10" class="c0"/>
<circle cx="834" cy="746" r="10" class="c0"/>
<circle cx="834" cy="1082" r="10" class="c0"/>
<circle cx="1894" cy="910" r="10" class="c0"/>
<circle cx="926" cy="726" r="10" class="c0"/>
<circle cx="902" cy="890" r="10" class="c0"/>
<circle cx="1020" cy="1010" r="10" class="c0"/>
<circle cx="1854" cy="990" r="10" class="c0"/>
<circle cx="950" cy="964" r="10" class="c0"/>
<circle cx="18" cy="1196" r="10" class="c0"/>
<circle cx="820" cy="1150" r="10" class="c0"/>
<circle cx="976" cy="682" r="10" class="c0"/>
<circle cx="1904" cy="1110" r="10" class="c0"/>
<circle cx="864" cy="1350" r="10" class="c0"/>
<circle cx="830" cy="638" r="10" class="c0"/>
<circle cx="14" cy="970" r="10" class="c0"/>
<circle cx="990" cy="842" r="10" class="c0"/>
<circle cx="12" cy="1172" r="10" class="c0"/>
<circle cx="1880" cy="1002" r="10" class="c0"/>
<circle cx="814" cy="1246" r="10" class="c0"/>
<circle cx="856" cy="1252" r="10" class="c0"/>
<circle cx="924" cy="762" r="10" class="c0"/>
<circle cx="816" cy="1096" r="10" class="c0"/>
<circle cx="876" cy="934" r="10" class="c0"/>
<circle cx="776" cy="1250" r="10" class="c0"/>
<circle cx="902" cy="658" r="10" class="c0"/>
<circle cx="992" cy="572" r="10" class="c0"/>
<circle cx="1902" cy="942" r="10" class="c0"/>
<circle cx="958" cy="666" r="10" class="c0"/>
<circle cx="60" cy="1148" r="10" class="c0"/>
<circle cx="822" cy="1032" r="10" class="c0"/>
<circle cx="940" cy="506" r="10" class="c0"/>
<circle cx="964" cy="1094" r="10" class="c0"/>
<circle cx="1882" cy="1112" r="10" class="c0"/>
<circle cx="844" cy="1330" r="10" class="c0"/>
<circle cx="874" cy="802" r="10" class="c0"/>
<circle cx="1016" cy="1046" r="10" class="c0"/>
<circle cx="1836" cy="1064" r="10" class="c0"/>
<circle cx="910" cy="1274" r="10" class="c0"/>
<circle cx="962" cy="866" r="10" class="c0"/>
<circle cx="862" cy="1164" r="10" class="c0"/>
<circle cx="920" cy="836" r="10" class="c0"/>
<circle cx="1016" cy="982" r="10" class="c0"/>
<circle cx="934" cy="1108" r="10" class="c0"/>
<circle cx="1906" cy="1024" r="10" class="c0"/>
<circle cx="968" cy="598" r="10" class="c0"/>
<circle cx="824" cy="1338" r="10" class="c0"/>
<circle cx="1898" cy="1070" r="10" class="c0"/>
<circle cx="14" cy="1232" r="10" class="c0"/>
<circle cx="1816" cy="1020" r="10" class="c0"/>
<circle cx="1850" cy="1022" r="10" class="c0"/>
<circle cx="48" cy="980" r="10" class="c0"/>
<circle cx="826" cy="1200" r="10" class="c0"/>
<circle cx="894" cy="1290" r="10" class="c0"/>
<circle cx="938" cy="652" r="10" class="c0"/>
<circle cx="908" cy="984" r="10" class="c0"/>
<circle cx="1884" cy="978" r="10" class="c0"/>
<circle cx="858" cy="816" r="10" class="c0"/>
<circle cx="852" cy="786" r="10" class="c0"/>
<circle cx="966" cy="1120" r="8" class="c0"/>
<circle cx="1794" cy="1024" r="8" class="c0"/>
<circle cx="786" cy="668" r="8" class="c0"/>
<circle cx="948" cy="812" r="8" class="c0"/>
<circle cx="900" cy="1230" r="8" class="c0"/>
<circle cx="814" cy="772" r="8" class="c0"/>
<circle cx="896" cy="1198" r="8" class="c0"/>
<circle cx="852" cy="1138" r="8" class="c0"/>
<circle cx="990" cy="668" r="8" class="c0"/>
<circle cx="898" cy="842" r="8" class="c0"/>
<circle cx="892" cy="1016" r="8" class="c0"/>
<circle cx="868" cy="1012" r="8" class="c0"/>
<circle cx="952" cy="746" r="8" class="c0"/>
<circle cx="840" cy="1040" r="8" class="c0"/>
<circle cx="1786" cy="1048" r="8" class="c0"/>
<circle cx="838" cy="970" r="8" class="c0"/>
<circle cx="16" cy="1036" r="8" class="c0"/>
<circle cx="800" cy="1312" r="8" class="c0"/>
<circle cx="1018" cy="1086" r="8" class="c0"/>
<circle cx="912" cy="1012" r="8" class="c0"/>
<circle cx="820" cy="1226" r="8" class="c0"/>
<circle cx="922" cy="958" r="8" class="c0"/>
<circle cx="820" cy="994" r="8" class="c0"/>
<circle cx="1872" cy="892" r="8" class="c0"/>
<circle cx="1886" cy="958" r="8" class="c0"/>
<circle cx="996" cy="1062" r="8" class="c0"/>
<circle cx="908" cy="746" r="8" class="c0"/>
<circle cx="930" cy="1016" r="8" class="c0"/>
<circle cx="1816" cy="1088" r="8" class="c0"/>
<circle cx="1832" cy="1006" r="8" class="c0"/>
<circle cx="994" cy="592" r="8" class="c0"/>
<circle cx="1870" cy="1130" r="8" class="c0"/>
<circle cx="916" cy="622" r="8" class="c0"/>
<circle cx="906" cy="636" r="8" class="c0"/>
<circle cx="872" cy="768" r="8" class="c0"/>
<circle cx="934" cy="1046" r="8" class="c0"/>
<circle cx="898" cy="594" r="8" class="c0"/>
<circle cx="910" cy="528" r="8" class="c0"/>
<circle cx="894" cy="944" r="8" class="c0"/>
<circle cx="782" cy="624" r="8" class="c0"/>
<circle cx="894" cy="1312" r="8" class="c0"/>
<circle cx="862" cy="608" r="8" class="c0"/>
<circle cx="850" cy="764" r="8" class="c0"/>
<circle cx="860" cy="648" r="8" class="c0"/>
<circle cx="886" cy="568" r="8" class="c0"/>
<circle cx="1882" cy="1160" r="8" class="c0"/>
<circle cx="822" cy="1264" r="8" class="c0"/>
<circle cx="908" cy="806" r="8" class="c0"/>
<circle cx="912" cy="782" r="8" class="c0"/>
<circle cx="940" cy="850" r="8" class="c0"/>
<circle cx="28" cy="1214" r="8" class="c0"/>
<circle cx="780" cy="474" r="8" class="c0"/>
<circle cx="822" cy="576" r="8" class="c0"/>
<circle cx="878" cy="1330" r="8" class="c0"/>
<circle cx="1828" cy="1040" r="8" class="c0"/>
<circle cx="786" cy="516" r="8" class="c0"/>
<circle cx="944" cy="704" r="8" class="c0"/>
<circle cx="976" cy="548" r="8" class="c0"/>
<circle cx="978" cy="704" r="8" class="c0"/>
<circle cx="24" cy="1160" r="8" class="c0"/>
<circle cx="1836" cy="930" r="8" class="c0"/>
<circle cx="1868" cy="1040" r="8" class="c0"/>
<circle cx="914" cy="570" r="8" class="c0"/>
<circle cx="896" cy="716" r="8" class="c0"/>
<circle cx="942" cy="1084" r="8" class="c0"/>
<circle cx="800" cy="1130" r="8" class="c0"/>
<circle cx="862" cy="744" r="8" class="c0"/>
<circle cx="826" cy="618" r="8" class="c0"/>
<circle cx="12" cy="1116" r="8" class="c0"/>
<circle cx="946" cy="886" r="8" class="c0"/>
<circle cx="1898" cy="886" r="8" class="c0"/>
<circle cx="850" cy="1050" r="8" class="c0"/>
<circle cx="806" cy="660" r="8" class="c0"/>
<circle cx="862" cy="1120" r="8" class="c0"/>
<circle cx="926" cy="538" r="8" class="c0"/>
<circle cx="822" cy="950" r="8" class="c0"/>
<circle cx="76" cy="1216" r="8" class="c0"/>
<circle cx="872" cy="1130" r="8" class="c0"/>
<circle cx="804" cy="760" r="8" class="c0"/>
<circle cx="980" cy="1076" r="8" class="c0"/>
<circle cx="960" cy="768" r="8" class="c0"/>
<circle cx="802" cy="582" r="8" class="c0"/>
<circle cx="1800" cy="1070" r="8" class="c0"/>
<circle cx="870" cy="1190" r="8" class="c0"/>
<circle cx="878" cy="594" r="8" class="c0"/>
<circle cx="928" cy="604" r="8" class="c0"/>
<circle cx="812" cy="962" r="8" class="c0"/>
<circle cx="1910" cy="962" r="8" class="c0"/>
<circle cx="776" cy="434" r="8" class="c0"/>
<circle cx="1006" cy="964" r="8" class="c0"/>
<circle cx="852" cy="1070" r="8" class="c0"/>
<circle cx="844" cy="656" r="8" class="c0"/>
<circle cx="924" cy="1060" r="8" class="c0"/>
<circle cx="878" cy="730" r="8" class="c0"/>
<circle cx="854" cy="626" r="8" class="c0"/>
<circle cx="62" cy="1008" r="8" class="c0"/>
<circle cx="894" cy="1262" r="8" class="c0"/>
<circle cx="840" cy="1002" r="8" class="c0"/>
<circle cx="886" cy="900" r="8" class="c0"/>
<circle cx="824" cy="670" r="8" class="c0"/>
<circle cx="856" cy="990" r="8" class="c0"/>
<circle cx="986" cy="1152" r="8" class="c0"/>
<circle cx="842" cy="1022" r="8" class="c0"/>
<circle cx="1836" cy="974" r="8" class="c0"/>
<circle cx="922" cy="1078" r="8" class="c0"/>
<circle cx="948" cy="942" r="8" class="c0"/>
<circle cx="76" cy="994" r="8" class="c0"/>
<circle cx="1036" cy="1114" r="8" class="c0"/>
<circle cx="1884" cy="1090" r="8" class="c0"/>
<circle cx="970" cy="744" r="8" class="c0"/>
<circle cx="950" cy="920" r="8" class="c0"/>
<circle cx="1894" cy="1048" r="8" class="c0"/>
<circle cx="1872" cy="1020" r="8" class="c0"/>
<circle cx="1018" cy="946" r="8" class="c0"/>
<circle cx="1020" cy="1144" r="8" class="c0"/>
<circle cx="962" cy="990" r="8" class="c0"/>
<circle cx="864" cy="854" r="8" class="c0"/>
<circle cx="72" cy="1192" r="8" class="c0"/>
<circle cx="46" cy="1212" r="8" class="c0"/>
<circle cx="908" cy="604" r="8" class="c0"/>
<circle cx="84" cy="1182" r="8" class="c0"/>
<circle cx="960" cy="580" r="8" class="c0"/>
<circle cx="810" cy="830" r="8" class="c0"/>
<circle cx="918" cy="502" r="8" class="c0"/>
<circle cx="958" cy="690" r="8" class="c0"/>
<circle cx="948" cy="1032" r="8" class="c0"/>
<circle cx="962" cy="508" r="8" class="c0"/>
<circle cx="1790" cy="1088" r="8" class="c0"/>
<circle cx="998" cy="1020" r="8" class="c0"/>
<circle cx="1910" cy="866" r="8" class="c0"/>
<circle cx="10" cy="990" r="8" class="c0"/>
<circle cx="836" cy="598" r="8" class="c0"/>
<circle cx="812" cy="1324" r="8" class="c0"/>
<circle cx="944" cy="1006" r="8" class="c0"/>
<circle cx="28" cy="984" r="8" class="c0"/>
<circle cx="908" cy="1132" r="8" class="c0"/>
<circle cx="832" cy="1284" r="8" class="c0"/>
<circle cx="16" cy="1068" r="8" class="c0"/>
<circle cx="956" cy="1148" r="8" class="c0"/>
<circle cx="14" cy="946" r="8" class="c0"/>
<circle cx="72" cy="1172" r="8" class="c0"/>
<circle cx="868" cy="1036" r="8" class="c0"/>
<circle cx="808" cy="636" r="8" class="c0"/>
<circle cx="1000" cy="1134" r="8" class="c0"/>
<circle cx="1030" cy="1060" r="8" class="c0"/>
<circle cx="882" cy="1176" r="8" class="c0"/>
<circle cx="884" cy="1218" r="8" class="c0"/>
<circle cx="974" cy="1058" r="8" class="c0"/>
<circle cx="868" cy="1318" r="8" class="c0"/>
<circle cx="920" cy="1028" r="8" class="c0"/>
<circle cx="1846" cy="1042" r="8" class="c0"/>
<circle cx="798" cy="616" r="8" class="c0"/>
<circle cx="1806" cy="992" r="8" class="c0"/>
<circle cx="938" cy="778" r="8" class="c0"/>
<circle cx="830" cy="1318" r="8" class="c0"/>
<circle cx="964" cy="558" r="8" class="c0"/>
<circle cx="912" cy="1302" r="8" class="c0"/>
<circle cx="54" cy="1046" r="8" class="c0"/>
<circle cx="982" cy="776" r="8" class="c0"/>
<circle cx="1780" cy="1066" r="8" class="c0"/>
<circle cx="936" cy="686" r="8" class="c0"/>
<circle cx="920" cy="1258" r="8" class="c0"/>
<circle cx="924" cy="638" r="8" class="c0"/>
<circle cx="44" cy="1000" r="8" class="c0"/>
<circle cx="872" cy="910" r="8" class="c0"/>
<circle cx="904" cy="1250" r="8" class="c0"/>
<circle cx="1846" cy="954" r="8" class="c0"/>
<circle cx="886" cy="534" r="8" class="c0"/>
<circle cx="796" cy="544" r="8" class="c0"/>
<circle cx="1036" cy="1094" r="8" class="c0"/>
<circle cx="898" cy="1066" r="8" class="c0"/>
<circle cx="962" cy="1042" r="8" class="c0"/>
<circle cx="1008" cy="920" r="8" class="c0"/>
<circle cx="900" cy="762" r="8" class="c0"/>
<circle cx="780" cy="494" r="8" class="c0"/>
<circle cx="894" cy="1344" r="8" class="c0"/>
<circle cx="778" cy="542" r="8" class="c0"/>
<circle cx="872" cy="956" r="8" class="c0"/>
<circle cx="1868" cy="914" r="8" class="c0"/>
<circle cx="1860" cy="1120" r="8" class="c0"/>
<circle cx="772" cy="398" r="8" class="c0"/>
<circle cx="820" cy="898" r="8" class="c0"/>
<circle cx="816" cy="880" r="8" class="c0"/>
<circle cx="942" cy="530" r="8" class="c0"/>
<circle cx="1830" cy="1126" r="8" class="c0"/>
<circle cx="1890" cy="930" r="8" class="c0"/>
<circle cx="1910" cy="1056" r="8" class="c0"/>
<circle cx="818" cy="1174" r="8" class="c0"/>
<circle cx="1012" cy="1118" r="8" class="c0"/>
<circle cx="988" cy="534" r="8" class="c0"/>
<circle cx="812" cy="720" r="8" class="c0"/>
<circle cx="938" cy="628" r="8" class="c0"/>
<circle cx="874" cy="1150" r="8" class="c0"/>
<circle cx="906" cy="728" r="8" class="c0"/>
<circle cx="930" cy="878" r="8" class="c0"/>
<circle cx="860" cy="1230" r="8" class="c0"/>
<circle cx="800" cy="708" r="8" class="c0"/>
<circle cx="886" cy="648" r="8" class="c0"/>
<circle cx="790" cy="1300" r="8" class="c0"/>
<circle cx="1900" cy="1168" r="8" class="c0"/>
<circle cx="10" cy="1274" r="8" class="c0"/>
<circle cx="888" cy="996" r="8" class="c0"/>
<circle cx="814" cy="1014" r="8" class="c0"/>
<circle cx="986" cy="800" r="8" class="c0"/>
<circle cx="790" cy="594" r="8" class="c0"/>
<circle cx="768" cy="1274" r="8" class="c0"/>
<circle cx="882" cy="1048" r="8" class="c0"/>
<circle cx="50" cy="1082" r="8" class="c0"/>
<circle cx="874" cy="550" r="8" class="c0"/>
<circle cx="812" cy="1116" r="8" class="c0"/>
<circle cx="982" cy="920" r="8" class="c0"/>
<circle cx="846" cy="1096" r="8" class="c0"/>
<circle cx="986" cy="1094" r="8" class="c0"/>
<circle cx="970" cy="954" r="8" class="c0"/>
<circle cx="818" cy="930" r="8" class="c0"/>
<circle cx="904" cy="956" r="8" class="c0"/>
<circle cx="842" cy="1350" r="8" class="c0"/>
<circle cx="900" cy="1114" r="8" class="c0"/>
<circle cx="900" cy="518" r="8" class="c0"/>
<circle cx="918" cy="594" r="8" class="c0"/>
<circle cx="30" cy="1180" r="8" class="c0"/>
<circle cx="76" cy="1030" r="8" class="c0"/>
<circle cx="896" cy="816" r="8" class="c0"/>
<circle cx="26" cy="1046" r="8" class="c0"/>
<circle cx="1032" cy="996" r="8" class="c0"/>
<circle cx="994" cy="552" r="8" class="c0"/>
<circle cx="8" cy="1086" r="8" class="c0"/>
<circle cx="924" cy="816" r="8" class="c0"/>
<circle cx="900" cy="688" r="8" class="c0"/>
<circle cx="978" cy="854" r="6" class="c0"/>
<circle cx="884" cy="1160" r="6" class="c0"/>
<circle cx="884" cy="1112" r="6" class="c0"/>
<circle cx="808" cy="1212" r="6" class="c0"/>
<circle cx="980" cy="996" r="6" class="c0"/>
<circle cx="978" cy="658" r="6" class="c0"/>
<circle cx="932" cy="744" r="6" class="c0"/>
<circle cx="72" cy="964" r="6" class="c0"/>
<circle cx="836" cy="1140" r="6" class="c0"/>
<circle cx="1856" cy="1152" r="6" class="c0"/>
<circle cx="844" cy="1156" r="6" class="c0"/>
<circle cx="782" cy="1208" r="6" class="c0"/>
<circle cx="1824" cy="942" r="6" class="c0"/>
<circle cx="806" cy="786" r="6" class="c0"/>
<circle cx="990" cy="820" r="6" class="c0"/>
<circle cx="1912" cy="916" r="6" class="c0"/>
<circle cx="1832" cy="1090" r="6" class="c0"/>
<circle cx="1776" cy="1110" r="6" class="c0"/>
<circle cx="830" cy="766" r="6" class="c0"/>
<circle cx="840" cy="1060" r="6" class="c0"/>
<circle cx="1816" cy="982" r="6" class="c0"/>
<circle cx="780" cy="452" r="6" class="c0"/>
<circle cx="876" cy="888" r="6" class="c0"/>
<circle cx="10" cy="1052" r="6" class="c0"/>
<circle cx="8" cy="1022" r="6" class="c0"/>
<circle cx="814" cy="858" r="6" class="c0"/>
<circle cx="918" cy="1122" r="6" class="c0"/>
<circle cx="6" cy="1426" r="6" class="c0"/>
<circle cx="986" cy="1126" r="6" class="c0"/>
<circle cx="1886" cy="1032" r="6" class="c0"/>
<circle cx="772" cy="416" r="6" class="c0"/>
<circle cx="1856" cy="928" r="6" class="c0"/>
<circle cx="64" cy="1056" r="6" class="c0"/>
<circle cx="880" cy="1200" r="6" class="c0"/>
<circle cx="1880" cy="1072" r="6" class="c0"/>
<circle cx="992" cy="860" r="6" class="c0"/>
<circle cx="812" cy="1274" r="6" class="c0"/>
<circle cx="1900" cy="1088" r="6" class="c0"/>
<circle cx="6" cy="1212" r="6" class="c0"/>
<circle cx="36" cy="1200" r="6" class="c0"/>
<circle cx="796" cy="1146" r="6" class="c0"/>
<circle cx="30" cy="958" r="6" class="c0"/>
<circle cx="858" cy="836" r="6" class="c0"/>
<circle cx="840" cy="774" r="6" class="c0"/>
<circle cx="1818" cy="1068" r="6" class="c0"/>
<circle cx="812" cy="1048" r="6" class="c0"/>
<circle cx="40" cy="1148" r="6" class="c0"/>
<circle cx="942" cy="868" r="6" class="c0"/>
<circle cx="978" cy="620" r="6" class="c0"/>
<circle cx="920" cy="888" r="6" class="c0"/>
<circle cx="794" cy="1246" r="6" class="c0"/>
<circle cx="894" cy="860" r="6" class="c0"/>
<circle cx="900" cy="872" r="6" class="c0"/>
<circle cx="1032" cy="1022" r="6" class="c0"/>
<circle cx="1790" cy="996" r="6" class="c0"/>
<circle cx="774" cy="1230" r="6" class="c0"/>
<circle cx="1892" cy="1014" r="6" class="c0"/>
<circle cx="962" cy="1074" r="6" class="c0"/>
<circle cx="808" cy="808" r="6" class="c0"/>
<circle cx="846" cy="1312" r="6" class="c0"/>
<circle cx="906" cy="1326" r="6" class="c0"/>
<circle cx="1818" cy="1108" r="6" class="c0"/>
<circle cx="1026" cy="966" r="6" class="c0"/>
<circle cx="984" cy="606" r="6" class="c0"/>
<circle cx="10" cy="1406" r="6" class="c0"/>
<circle cx="972" cy="886" r="6" class="c0"/>
<circle cx="856" cy="1182" r="6" class="c0"/>
<circle cx="1022" cy="1128" r="6" class="c0"/>
<circle cx="836" cy="986" r="6" class="c0"/>
<circle cx="844" cy="614" r="6" class="c0"/>
<circle cx="852" cy="1280" r="6" class="c0"/>
<circle cx="56" cy="1066" r="6" class="c0"/>
<circle cx="1912" cy="1006" r="6" class="c0"/>
<circle cx="780" cy="608" r="6" class="c0"/>
<circle cx="872" cy="636" r="6" class="c0"/>
<circle cx="974" cy="570" r="6" class="c0"/>
<circle cx="1796" cy="1108" r="6" class="c0"/>
<circle cx="1774" cy="1028" r="6" class="c0"/>
<circle cx="836" cy="1216" r="6" class="c0"/>
<circle cx="938" cy="826" r="6" class="c0"/>
<circle cx="876" cy="1292" r="6" class="c0"/>
<circle cx="924" cy="556" r="6" class="c0"/>
<circle cx="804" cy="1260" r="6" class="c0"/>
<circle cx="862" cy="924" r="6" class="c0"/>
<circle cx="830" cy="1050" r="6" class="c0"/>
<circle cx="1024" cy="1104" r="6" class="c0"/>
<circle cx="810" cy="566" r="6" class="c0"/>
<circle cx="900" cy="1082" r="6" class="c0"/>
<circle cx="914" cy="1238" r="6" class="c0"/>
<circle cx="46" cy="1236" r="6" class="c0"/>
<circle cx="848" cy="1192" r="6" class="c0"/>
<circle cx="980" cy="758" r="6" class="c0"/>
<circle cx="986" cy="952" r="6" class="c0"/>
<circle cx="1884" cy="1058" r="6" class="c0"/>
<circle cx="888" cy="584" r="6" class="c0"/>
<circle cx="1004" cy="602" r="6" class="c0"/>
<circle cx="1826" cy="1078" r="6" class="c0"/>
<circle cx="804" cy="1290" r="6" class="c0"/>
<circle cx="816" cy="650" r="6" class="c0"/>
<circle cx="878" cy="1308" r="6" class="c0"/>
<circle cx="8" cy="1258" r="6" class="c0"/>
<circle cx="812" cy="980" r="6" class="c0"/>
<circle cx="966" cy="848" r="6" class="c0"/>
<circle cx="952" cy="518" r="6" class="c0"/>
<circle cx="886" cy="1032" r="6" class="c0"/>
<circle cx="1908" cy="900" r="6" class="c0"/>
<circle cx="838" cy="1300" r="6" class="c0"/>
<circle cx="38" cy="1110" r="6" class="c0"/>
<circle cx="1912" cy="1094" r="6" class="c0"/>
<circle cx="1848" cy="1136" r="6" class="c0"/>
<circle cx="902" cy="1214" r="6" class="c0"/>
<circle cx="950" cy="544" r="6" class="c0"/>
<circle cx="978" cy="584" r="6" class="c0"/>
<circle cx="1844" cy="1080" r="6" class="c0"/>
<circle cx="802" cy="1334" r="6" class="c0"/>
<circle cx="1830" cy="990" r="6" class="c0"/>
<circle cx="862" cy="664" r="6" class="c0"/>
<circle cx="44" cy="962" r="6" class="c0"/>
<circle cx="1862" cy="1010" r="6" class="c0"/>
<circle cx="930" cy="972" r="6" class="c0"/>
<circle cx="1014" cy="1028" r="6" class="c0"/>
<circle cx="914" cy="714" r="6" class="c0"/>
<circle cx="776" cy="654" r="6" class="c0"/>
<circle cx="944" cy="762" r="6" class="c0"/>
<circle cx="978" cy="518" r="6" class="c0"/>
<circle cx="948" cy="638" r="6" class="c0"/>
<circle cx="956" cy="648" r="6" class="c0"/>
<circle cx="850" cy="734" r="6" class="c0"/>
<circle cx="932" cy="670" r="6" class="c0"/>
<circle cx="928" cy="580" r="6" class="c0"/>
<circle cx="892" cy="738" r="6" class="c0"/>
<circle cx="816" cy="1132" r="6" class="c0"/>
<circle cx="940" cy="736" r="6" class="c0"/>
<circle cx="1010" cy="1070" r="6" class="c0"/>
<circle cx="62" cy="1202" r="6" class="c0"/>
<circle cx="994" cy="984" r="6" class="c0"/>
<circle cx="900" cy="792" r="6" class="c0"/>
<circle cx="1910" cy="1156" r="6" class="c0"/>
<circle cx="1828" cy="956" r="6" class="c0"/>
<circle cx="916" cy="902" r="6" class="c0"/>
<circle cx="880" cy="714" r="6" class="c0"/>
<circle cx="886" cy="920" r="6" class="c0"/>
<circle cx="876" cy="578" r="6" class="c0"/>
<circle cx="906" cy="826" r="6" class="c0"/>
<circle cx="964" cy="974" r="6" class="c0"/>
<circle cx="856" cy="1086" r="6" class="c0"/>
<circle cx="1910" cy="980" r="6" class="c0"/>
<circle cx="906" cy="706" r="6" class="c0"/>
<circle cx="952" cy="1106" r="6" class="c0"/>
<circle cx="920" cy="656" r="6" class="c0"/>
<circle cx="808" cy="1348" r="6" class="c0"/>
<circle cx="870" cy="784" r="6" class="c0"/>
<circle cx="36" cy="1228" r="6" class="c0"/>
<circle cx="862" cy="944" r="6" class="c0"/>
<circle cx="774" cy="638" r="6" class="c0"/>
<circle cx="760" cy="360" r="6" class="c0"/>
<circle cx="900" cy="578" r="6" class="c0"/>
<circle cx="884" cy="850" r="6" class="c0"/>
<circle cx="890" cy="552" r="6" class="c0"/>
<circle cx="808" cy="1078" r="6" class="c0"/>
<circle cx="820" cy="756" r="6" class="c0"/>
<circle cx="880" cy="1358" r="6" class="c0"/>
<circle cx="6" cy="1008" r="6" class="c0"/>
<circle cx="892" cy="1130" r="6" class="c0"/>
<circle cx="1806" cy="1100" r="6" class="c0"/>
<circle cx="100" cy="1164" r="6" class="c0"/>
<circle cx="862" cy="1060" r="6" class="c0"/>
<circle cx="832" cy="1252" r="6" class="c0"/>
<circle cx="976" cy="1106" r="6" class="c0"/>
<circle cx="922" cy="1002" r="6" class="c0"/>
<circle cx="892" cy="800" r="6" class="c0"/>
<circle cx="822" cy="914" r="6" class="c0"/>
<circle cx="996" cy="1084" r="6" class="c0"/>
<circle cx="1034" cy="1078" r="6" class="c0"/>
<circle cx="972" cy="1136" r="6" class="c0"/>
<circle cx="830" cy="1012" r="6" class="c0"/>
<circle cx="970" cy="1156" r="6" class="c0"/>
<circle cx="960" cy="706" r="6" class="c0"/>
<circle cx="922" cy="1288" r="6" class="c0"/>
<circle cx="60" cy="992" r="6" class="c0"/>
<circle cx="938" cy="952" r="6" class="c0"/>
<circle cx="802" cy="1106" r="6" class="c0"/>
<circle cx="66" cy="976" r="6" class="c0"/>
<circle cx="944" cy="722" r="6" class="c0"/>
</svg>
