<?xml version="1.0" encoding="utf-8"?>
<svg xmlns="http://www.w3.org/2000/svg"
     xmlns:xlink="http://www.w3.org/1999/xlink" width="1920" height="1440" >

            <defs>
            <style type="text/css"><![CDATA[
circle {stroke: none;}
.c0 {fill: #000000;}
]]></style>
            </defs>
<rect x="0" y="0" width="1920" height="1440" fill="white"/>
<circle cx="1832" cy="1318" r="14" class="c0"/>
<circle cx="786" cy="528" r="12" class="c0"/>
<circle cx="924" cy="688" r="12" class="c0"/>
<circle cx="912" cy="578" r="12" class="c0"/>
<circle cx="898" cy="802" r="12" class="c0"/>
<circle cx="800" cy="712" r="12" class="c0"/>
<circle cx="930" cy="1030" r="12" class="c0"/>
<circle cx="792" cy="1140" r="12" class="c0"/>
<circle cx="976" cy="946" r="12" class="c0"/>
<circle cx="960" cy="792" r="12" class="c0"/>
<circle cx="1012" cy="1008" r="12" class="c0"/>
<circle cx="820" cy="1232" r="12" class="c0"/>
<circle cx="842" cy="1248" r="12" class="c0"/>
<circle cx="850" cy="1070" r="12" class="c0"/>
<circle cx="922" cy="970" r="12" class="c0"/>
<circle cx="990" cy="992" r="12" class="c0"/>
<circle cx="1902" cy="1124" r="12" class="c0"/>
<circle cx="872" cy="580" r="12" class="c0"/>
<circle cx="946" cy="850" r="12" class="c0"/>
<circle cx="16" cy="1158" r="12" class="c0"/>
<circle cx="980" cy="598" r="12" class="c0"/>
<circle cx="916" cy="858" r="12" class="c0"/>
<circle cx="922" cy="538" r="12" class="c0"/>
<circle cx="1906" cy="1218" r="12" class="c0"/>
<circle cx="994" cy="876" r="12" class="c0"/>
<circle cx="960" cy="886" r="12" class="c0"/>
<circle cx="1848" cy="1274" r="12" class="c0"/>
<circle cx="792" cy="976" r="10" class="c0"/>
<circle cx="886" cy="634" r="10" class="c0"/>
<circle cx="950" cy="724" r="10" class="c0"/>
<circle cx="50" cy="1146" r="10" class="c0"/>
<circle cx="940" cy="1106" r="10" class="c0"/>
<circle cx="972" cy="748" r="10" class="c0"/>
<circle cx="864" cy="728" r="10" class="c0"/>
<circle cx="948" cy="654" r="10" class="c0"/>
<circle cx="1862" cy="1232" r="10" class="c0"/>
<circle cx="796" cy="1020" r="10" class="c0"/>
<circle cx="936" cy="590" r="10" class="c0"/>
<circle cx="874" cy="748" r="10" class="c0"/>
<circle cx="902" cy="718" r="10" class="c0"/>
<circle cx="834" cy="1210" r="10" class="c0"/>
<circle cx="922" cy="626" r="10" class="c0"/>
<circle cx="1902" cy="1330" r="10" class="c0"/>
<circle cx="1868" cy="1122" r="10" class="c0"/>
<circle cx="924" cy="808" r="10" class="c0"/>
<circle cx="1870" cy="1206" r="10" class="c0"/>
<circle cx="930" cy="510" r="10" class="c0"/>
<circle cx="22" cy="1108" r="10" class="c0"/>
<circle cx="990" cy="1028" r="10" class="c0"/>
<circle cx="902" cy="906" r="10" class="c0"/>
<circle cx="842" cy="596" r="10" class="c0"/>
<circle cx="982" cy="1060" r="10" class="c0"/>
<circle cx="882" cy="868" r="10" class="c0"/>
<circle cx="898" cy="534" r="10" class="c0"/>
<circle cx="800" cy="546" r="10" class="c0"/>
<circle cx="970" cy="820" r="10" class="c0"/>
<circle cx="870" cy="1154" r="10" class="c0"/>
<circle cx="954" cy="604" r="10" class="c0"/>
<circle cx="1840" cy="1180" r="10" class="c0"/>
<circle cx="834" cy="744" r="10" class="c0"/>
<circle cx="846" cy="1118" r="10" class="c0"/>
<circle cx="768" cy="1132" r="10" class="c0"/>
<circle cx="880" cy="680" r="10" class="c0"/>
<circle cx="874" cy="524" r="10" class="c0"/>
<circle cx="910" cy="482" r="10" class="c0"/>
<circle cx="916" cy="998" r="10" class="c0"/>
<circle cx="974" cy="516" r="10" class="c0"/>
<circle cx="892" cy="970" r="10" class="c0"/>
<circle cx="936" cy="614" r="10" class="c0"/>
<circle cx="816" cy="1190" r="10" class="c0"/>
<circle cx="874" cy="902" r="10" class="c0"/>
<circle cx="876" cy="790" r="10" class="c0"/>
<circle cx="786" cy="1080" r="10" class="c0"/>
<circle cx="976" cy="690" r="10" class="c0"/>
<circle cx="1002" cy="1048" r="10" class="c0"/>
<circle cx="930" cy="924" r="10" class="c0"/>
<circle cx="960" cy="764" r="10" class="c0"/>
<circle cx="840" cy="712" r="10" class="c0"/>
<circle cx="890" cy="1004" r="10" class="c0"/>
<circle cx="910" cy="828" r="10" class="c0"/>
<circle cx="748" cy="1156" r="10" class="c0"/>
<circle cx="976" cy="644" r="10" class="c0"/>
<circle cx="832" cy="1156" r="10" class="c0"/>
<circle cx="852" cy="766" r="10" class="c0"/>
<circle cx="890" cy="768" r="10" class="c0"/>
<circle cx="952" cy="942" r="10" class="c0"/>
<circle cx="860" cy="1186" r="10" class="c0"/>
<circle cx="796" cy="608" r="10" class="c0"/>
<circle cx="1836" cy="1248" r="10" class="c0"/>
<circle cx="792" cy="1108" r="10" class="c0"/>
<circle cx="872" cy="818" r="10" class="c0"/>
<circle cx="950" cy="974" r="10" class="c0"/>
<circle cx="894" cy="1026" r="10" class="c0"/>
<circle cx="1812" cy="1238" r="10" class="c0"/>
<circle cx="1902" cy="1192" r="10" class="c0"/>
<circle cx="936" cy="990" r="10" class="c0"/>
<circle cx="892" cy="598" r="10" class="c0"/>
<circle cx="910" cy="1058" r="10" class="c0"/>
<circle cx="782" cy="1234" r="10" class="c0"/>
<circle cx="996" cy="962" r="10" class="c0"/>
<circle cx="862" cy="918" r="10" class="c0"/>
<circle cx="928" cy="770" r="10" class="c0"/>
<circle cx="802" cy="924" r="10" class="c0"/>
<circle cx="744" cy="1192" r="10" class="c0"/>
<circle cx="944" cy="528" r="10" class="c0"/>
<circle cx="960" cy="1052" r="10" class="c0"/>
<circle cx="930" cy="560" r="10" class="c0"/>
<circle cx="946" cy="900" r="10" class="c0"/>
<circle cx="932" cy="748" r="10" class="c0"/>
<circle cx="1012" cy="932" r="10" class="c0"/>
<circle cx="1002" cy="576" r="8" class="c0"/>
<circle cx="902" cy="682" r="8" class="c0"/>
<circle cx="1884" cy="1088" r="8" class="c0"/>
<circle cx="978" cy="540" r="8" class="c0"/>
<circle cx="968" cy="996" r="8" class="c0"/>
<circle cx="1850" cy="1196" r="8" class="c0"/>
<circle cx="938" cy="636" r="8" class="c0"/>
<circle cx="1906" cy="1048" r="8" class="c0"/>
<circle cx="896" cy="948" r="8" class="c0"/>
<circle cx="818" cy="1140" r="8" class="c0"/>
<circle cx="1908" cy="1242" r="8" class="c0"/>
<circle cx="840" cy="812" r="8" class="c0"/>
<circle cx="870" cy="606" r="8" class="c0"/>
<circle cx="906" cy="886" r="8" class="c0"/>
<circle cx="928" cy="712" r="8" class="c0"/>
<circle cx="8" cy="1348" r="8" class="c0"/>
<circle cx="806" cy="1090" r="8" class="c0"/>
<circle cx="952" cy="558" r="8" class="c0"/>
<circle cx="1006" cy="902" r="8" class="c0"/>
<circle cx="780" cy="588" r="8" class="c0"/>
<circle cx="990" cy="622" r="8" class="c0"/>
<circle cx="880" cy="716" r="8" class="c0"/>
<circle cx="952" cy="500" r="8" class="c0"/>
<circle cx="1012" cy="976" r="8" class="c0"/>
<circle cx="1030" cy="972" r="8" class="c0"/>
<circle cx="804" cy="1158" r="8" class="c0"/>
<circle cx="966" cy="840" r="8" class="c0"/>
<circle cx="28" cy="1142" r="8" class="c0"/>
<circle cx="980" cy="856" r="8" class="c0"/>
<circle cx="948" cy="576" r="8" class="c0"/>
<circle cx="934" cy="828" r="8" class="c0"/>
<circle cx="986" cy="674" r="8" class="c0"/>
<circle cx="1830" cy="1200" r="8" class="c0"/>
<circle cx="826" cy="1022" r="8" class="c0"/>
<circle cx="852" cy="790" r="8" class="c0"/>
<circle cx="824" cy="694" r="8" class="c0"/>
<circle cx="1896" cy="1280" r="8" class="c0"/>
<circle cx="776" cy="408" r="8" class="c0"/>
<circle cx="794" cy="956" r="8" class="c0"/>
<circle cx="1868" cy="1176" r="8" class="c0"/>
<circle cx="950" cy="690" r="8" class="c0"/>
<circle cx="980" cy="914" r="8" class="c0"/>
<circle cx="908" cy="930" r="8" class="c0"/>
<circle cx="1878" cy="1142" r="8" class="c0"/>
<circle cx="994" cy="844" r="8" class="c0"/>
<circle cx="790" cy="496" r="8" class="c0"/>
<circle cx="782" cy="1202" r="8" class="c0"/>
<circle cx="924" cy="1118" r="8" class="c0"/>
<circle cx="796" cy="1062" r="8" class="c0"/>
<circle cx="894" cy="510" r="8" class="c0"/>
<circle cx="812" cy="560" r="8" class="c0"/>
<circle cx="878" cy="1172" r="8" class="c0"/>
<circle cx="902" cy="756" r="8" class="c0"/>
<circle cx="1910" cy="1100" r="8" class="c0"/>
<circle cx="1812" cy="1216" r="8" class="c0"/>
<circle cx="1870" cy="1262" r="8" class="c0"/>
<circle cx="1896" cy="1260" r="8" class="c0"/>
<circle cx="1004" cy="1124" r="8" class="c0"/>
<circle cx="866" cy="702" r="8" class="c0"/>
<circle cx="910" cy="640" r="8" class="c0"/>
<circle cx="796" cy="1248" r="8" class="c0"/>
<circle cx="830" cy="1054" r="8" class="c0"/>
<circle cx="784" cy="562" r="8" class="c0"/>
<circle cx="796" cy="898" r="8" class="c0"/>
<circle cx="800" cy="998" r="8" class="c0"/>
<circle cx="916" cy="604" r="8" class="c0"/>
<circle cx="916" cy="736" r="8" class="c0"/>
<circle cx="820" cy="1076" r="8" class="c0"/>
<circle cx="922" cy="1080" r="8" class="c0"/>
<circle cx="1808" cy="1190" r="8" class="c0"/>
<circle cx="970" cy="722" r="8" class="c0"/>
<circle cx="938" cy="790" r="8" class="c0"/>
<circle cx="886" cy="562" r="8" class="c0"/>
<circle cx="798" cy="576" r="8" class="c0"/>
<circle cx="816" cy="990" r="8" class="c0"/>
<circle cx="970" cy="490" r="8" class="c0"/>
<circle cx="754" cy="1220" r="8" class="c0"/>
<circle cx="910" cy="556" r="8" class="c0"/>
<circle cx="888" cy="838" r="8" class="c0"/>
<circle cx="858" cy="1134" r="8" class="c0"/>
<circle cx="1882" cy="1186" r="8" class="c0"/>
<circle cx="988" cy="550" r="8" class="c0"/>
<circle cx="800" cy="1204" r="8" class="c0"/>
<circle cx="804" cy="632" r="8" class="c0"/>
<circle cx="1884" cy="1230" r="8" class="c0"/>
<circle cx="922" cy="902" r="8" class="c0"/>
<circle cx="850" cy="1226" r="8" class="c0"/>
<circle cx="1806" cy="1290" r="8" class="c0"/>
<circle cx="1002" cy="642" r="8" class="c0"/>
<circle cx="914" cy="668" r="8" class="c0"/>
<circle cx="994" cy="1088" r="8" class="c0"/>
<circle cx="818" cy="604" r="8" class="c0"/>
<circle cx="768" cy="338" r="8" class="c0"/>
<circle cx="1826" cy="1292" r="8" class="c0"/>
<circle cx="990" cy="800" r="8" class="c0"/>
<circle cx="758" cy="1116" r="8" class="c0"/>
<circle cx="30" cy="1176" r="8" class="c0"/>
<circle cx="930" cy="480" r="8" class="c0"/>
<circle cx="974" cy="978" r="8" class="c0"/>
<circle cx="824" cy="1094" r="8" class="c0"/>
<circle cx="892" cy="694" r="8" class="c0"/>
<circle cx="22" cy="1192" r="8" class="c0"/>
<circle cx="810" cy="966" r="8" class="c0"/>
<circle cx="776" cy="1098" r="8" class="c0"/>
<circle cx="864" cy="996" r="8" class="c0"/>
<circle cx="1840" cy="1212" r="8" class="c0"/>
<circle cx="1024" cy="990" r="8" class="c0"/>
<circle cx="40" cy="1126" r="8" class="c0"/>
<circle cx="42" cy="1328" r="8" class="c0"/>
<circle cx="958" cy="1088" r="8" class="c0"/>
<circle cx="1908" cy="1076" r="8" class="c0"/>
<circle cx="784" cy="1032" r="8" class="c0"/>
<circle cx="836" cy="1270" r="8" class="c0"/>
<circle cx="890" cy="738" r="8" class="c0"/>
<circle cx="954" cy="918" r="8" class="c0"/>
<circle cx="826" cy="574" r="8" class="c0"/>
<circle cx="780" cy="1184" r="8" class="c0"/>
<circle cx="950" cy="1008" r="8" class="c0"/>
<circle cx="28" cy="1318" r="8" class="c0"/>
<circle cx="1878" cy="1286" r="8" class="c0"/>
<circle cx="978" cy="782" r="8" class="c0"/>
<circle cx="1908" cy="1160" r="8" class="c0"/>
<circle cx="880" cy="658" r="8" class="c0"/>
<circle cx="1886" cy="1158" r="8" class="c0"/>
<circle cx="780" cy="384" r="8" class="c0"/>
<circle cx="966" cy="582" r="8" class="c0"/>
<circle cx="1836" cy="1146" r="8" class="c0"/>
<circle cx="792" cy="676" r="8" class="c0"/>
<circle cx="794" cy="736" r="8" class="c0"/>
<circle cx="1822" cy="1266" r="8" class="c0"/>
<circle cx="1018" cy="1100" r="8" class="c0"/>
<circle cx="1892" cy="1106" r="8" class="c0"/>
<circle cx="936" cy="878" r="8" class="c0"/>
<circle cx="868" cy="1090" r="8" class="c0"/>
<circle cx="970" cy="868" r="8" class="c0"/>
<circle cx="1906" cy="1294" r="8" class="c0"/>
<circle cx="926" cy="654" r="8" class="c0"/>
<circle cx="866" cy="636" r="8" class="c0"/>
<circle cx="770" cy="1070" r="8" class="c0"/>
<circle cx="986" cy="1120" r="8" class="c0"/>
<circle cx="820" cy="1170" r="8" class="c0"/>
<circle cx="762" cy="1174" r="8" class="c0"/>
<circle cx="936" cy="952" r="8" class="c0"/>
<circle cx="972" cy="1020" r="8" class="c0"/>
<circle cx="872" cy="942" r="8" class="c0"/>
<circle cx="782" cy="1050" r="8" class="c0"/>
<circle cx="896" cy="1076" r="8" class="c0"/>
<circle cx="772" cy="1158" r="8" class="c0"/>
<circle cx="768" cy="578" r="8" class="c0"/>
<circle cx="1854" cy="1304" r="8" class="c0"/>
<circle cx="904" cy="780" r="8" class="c0"/>
<circle cx="808" cy="1120" r="8" class="c0"/>
<circle cx="1882" cy="1248" r="8" class="c0"/>
<circle cx="972" cy="1076" r="8" class="c0"/>
<circle cx="1874" cy="1098" r="8" class="c0"/>
<circle cx="1850" cy="1158" r="8" class="c0"/>
<circle cx="936" cy="666" r="8" class="c0"/>
<circle cx="14" cy="1208" r="8" class="c0"/>
<circle cx="1004" cy="594" r="8" class="c0"/>
<circle cx="1890" cy="1204" r="8" class="c0"/>
<circle cx="962" cy="672" r="8" class="c0"/>
<circle cx="10" cy="1312" r="8" class="c0"/>
<circle cx="878" cy="1200" r="8" class="c0"/>
<circle cx="798" cy="876" r="8" class="c0"/>
<circle cx="794" cy="648" r="8" class="c0"/>
<circle cx="764" cy="1196" r="8" class="c0"/>
<circle cx="810" cy="1042" r="8" class="c0"/>
<circle cx="982" cy="570" r="8" class="c0"/>
<circle cx="814" cy="1264" r="8" class="c0"/>
<circle cx="784" cy="450" r="8" class="c0"/>
<circle cx="1016" cy="956" r="8" class="c0"/>
<circle cx="858" cy="1210" r="8" class="c0"/>
<circle cx="804" cy="944" r="8" class="c0"/>
<circle cx="876" cy="848" r="8" class="c0"/>
<circle cx="1888" cy="1066" r="8" class="c0"/>
<circle cx="12" cy="1246" r="8" class="c0"/>
<circle cx="992" cy="654" r="8" class="c0"/>
<circle cx="960" cy="1130" r="8" class="c0"/>
<circle cx="18" cy="1330" r="8" class="c0"/>
<circle cx="886" cy="1092" r="8" class="c0"/>
<circle cx="970" cy="556" r="8" class="c0"/>
<circle cx="962" cy="1030" r="8" class="c0"/>
<circle cx="772" cy="358" r="8" class="c0"/>
<circle cx="918" cy="940" r="8" class="c0"/>
<circle cx="840" cy="1182" r="8" class="c0"/>
<circle cx="826" cy="1116" r="8" class="c0"/>
<circle cx="842" cy="986" r="8" class="c0"/>
<circle cx="898" cy="620" r="8" class="c0"/>
<circle cx="998" cy="920" r="8" class="c0"/>
<circle cx="1022" cy="1030" r="8" class="c0"/>
<circle cx="914" cy="1098" r="6" class="c0"/>
<circle cx="994" cy="528" r="6" class="c0"/>
<circle cx="934" cy="1056" r="6" class="c0"/>
<circle cx="1874" cy="1308" r="6" class="c0"/>
<circle cx="970" cy="624" r="6" class="c0"/>
<circle cx="808" cy="886" r="6" class="c0"/>
<circle cx="912" cy="522" r="6" class="c0"/>
<circle cx="1830" cy="1228" r="6" class="c0"/>
<circle cx="1864" cy="1084" r="6" class="c0"/>
<circle cx="940" cy="1076" r="6" class="c0"/>
<circle cx="904" cy="1040" r="6" class="c0"/>
<circle cx="1860" cy="1146" r="6" class="c0"/>
<circle cx="994" cy="818" r="6" class="c0"/>
<circle cx="816" cy="538" r="6" class="c0"/>
<circle cx="798" cy="858" r="6" class="c0"/>
<circle cx="832" cy="1132" r="6" class="c0"/>
<circle cx="884" cy="546" r="6" class="c0"/>
<circle cx="946" cy="706" r="6" class="c0"/>
<circle cx="8" cy="1138" r="6" class="c0"/>
<circle cx="868" cy="882" r="6" class="c0"/>
<circle cx="960" cy="480" r="6" class="c0"/>
<circle cx="982" cy="892" r="6" class="c0"/>
<circle cx="788" cy="1262" r="6" class="c0"/>
<circle cx="860" cy="1012" r="6" class="c0"/>
<circle cx="780" cy="480" r="6" class="c0"/>
<circle cx="776" cy="546" r="6" class="c0"/>
<circle cx="794" cy="810" r="6" class="c0"/>
<circle cx="958" cy="1108" r="6" class="c0"/>
<circle cx="942" cy="490" r="6" class="c0"/>
<circle cx="924" cy="840" r="6" class="c0"/>
<circle cx="982" cy="1102" r="6" class="c0"/>
<circle cx="962" cy="700" r="6" class="c0"/>
<circle cx="792" cy="1172" r="6" class="c0"/>
<circle cx="880" cy="924" r="6" class="c0"/>
<circle cx="6" cy="1174" r="6" class="c0"/>
<circle cx="948" cy="814" r="6" class="c0"/>
<circle cx="1888" cy="1296" r="6" class="c0"/>
<circle cx="44" cy="1104" r="6" class="c0"/>
<circle cx="794" cy="794" r="6" class="c0"/>
<circle cx="58" cy="1116" r="6" class="c0"/>
<circle cx="818" cy="1008" r="6" class="c0"/>
<circle cx="968" cy="1100" r="6" class="c0"/>
<circle cx="996" cy="688" r="6" class="c0"/>
<circle cx="36" cy="1160" r="6" class="c0"/>
<circle cx="800" cy="842" r="6" class="c0"/>
<circle cx="896" cy="856" r="6" class="c0"/>
<circle cx="1822" cy="1176" r="6" class="c0"/>
<circle cx="850" cy="576" r="6" class="c0"/>
<circle cx="1030" cy="1058" r="6" class="c0"/>
<circle cx="886" cy="890" r="6" class="c0"/>
<circle cx="778" cy="510" r="6" class="c0"/>
<circle cx="798" cy="1224" r="6" class="c0"/>
<circle cx="902" cy="988" r="6" class="c0"/>
<circle cx="956" cy="622" r="6" class="c0"/>
<circle cx="962" cy="534" r="6" class="c0"/>
<circle cx="802" cy="1180" r="6" class="c0"/>
<circle cx="1858" cy="1106" r="6" class="c0"/>
<circle cx="10" cy="1224" r="6" class="c0"/>
<circle cx="784" cy="430" r="6" class="c0"/>
<circle cx="770" cy="1222" r="6" class="c0"/>
<circle cx="834" cy="782" r="6" class="c0"/>
<circle cx="1896" cy="1170" r="6" class="c0"/>
<circle cx="1010" cy="614" r="6" class="c0"/>
<circle cx="1018" cy="1082" r="6" class="c0"/>
<circle cx="18" cy="1130" r="6" class="c0"/>
<circle cx="830" cy="1002" r="6" class="c0"/>
<circle cx="868" cy="560" r="6" class="c0"/>
<circle cx="902" cy="654" r="6" class="c0"/>
<circle cx="1002" cy="666" r="6" class="c0"/>
<circle cx="832" cy="768" r="6" class="c0"/>
<circle cx="1892" cy="1316" r="6" class="c0"/>
<circle cx="802" cy="824" r="6" class="c0"/>
<circle cx="794" cy="774" r="6" class="c0"/>
<circle cx="986" cy="764" r="6" class="c0"/>
<circle cx="850" cy="1152" r="6" class="c0"/>
<circle cx="786" cy="1006" r="6" class="c0"/>
<circle cx="1796" cy="1200" r="6" class="c0"/>
<circle cx="960" cy="960" r="6" class="c0"/>
<circle cx="790" cy="936" r="6" class="c0"/>
<circle cx="846" cy="730" r="6" class="c0"/>
<circle cx="1834" cy="1104" r="6" class="c0"/>
<circle cx="816" cy="588" r="6" class="c0"/>
<circle cx="842" cy="1092" r="6" class="c0"/>
<circle cx="860" cy="978" r="6" class="c0"/>
<circle cx="880" cy="956" r="6" class="c0"/>
<circle cx="1876" cy="1324" r="6" class="c0"/>
<circle cx="8" cy="1094" r="6" class="c0"/>
<circle cx="890" cy="494" r="6" class="c0"/>
<circle cx="786" cy="624" r="6" class="c0"/>
<circle cx="826" cy="726" r="6" class="c0"/>
<circle cx="14" cy="1294" r="6" class="c0"/>
<circle cx="1908" cy="1270" r="6" class="c0"/>
<circle cx="914" cy="500" r="6" class="c0"/>
<circle cx="986" cy="930" r="6" class="c0"/>
<circle cx="856" cy="806" r="6" class="c0"/>
<circle cx="848" cy="1168" r="6" class="c0"/>
<circle cx="816" cy="622" r="6" class="c0"/>
<circle cx="804" cy="690" r="6" class="c0"/>
<circle cx="1910" cy="1176" r="6" class="c0"/>
<circle cx="738" cy="1170" r="6" class="c0"/>
<circle cx="906" cy="1086" r="6" class="c0"/>
<circle cx="1894" cy="1348" r="6" class="c0"/>
<circle cx="878" cy="982" r="6" class="c0"/>
<circle cx="942" cy="546" r="6" class="c0"/>
<circle cx="958" cy="636" r="6" class="c0"/>
<circle cx="790" cy="694" r="6" class="c0"/>
<circle cx="776" cy="1116" r="6" class="c0"/>
<circle cx="780" cy="1254" r="6" class="c0"/>
<circle cx="918" cy="788" r="6" class="c0"/>
<circle cx="896" cy="666" r="6" class="c0"/>
<circle cx="842" cy="694" r="6" class="c0"/>
<circle cx="1912" cy="1018" r="6" class="c0"/>
<circle cx="46" cy="1172" r="6" class="c0"/>
<circle cx="872" cy="770" r="6" class="c0"/>
<circle cx="1898" cy="1034" r="6" class="c0"/>
<circle cx="1032" cy="1040" r="6" class="c0"/>
<circle cx="850" cy="1040" r="6" class="c0"/>
<circle cx="748" cy="1136" r="6" class="c0"/>
<circle cx="814" cy="910" r="6" class="c0"/>
<circle cx="810" cy="1214" r="6" class="c0"/>
<circle cx="810" cy="526" r="6" class="c0"/>
<circle cx="914" cy="1020" r="6" class="c0"/>
<circle cx="910" cy="700" r="6" class="c0"/>
<circle cx="822" cy="710" r="6" class="c0"/>
<circle cx="1854" cy="1252" r="6" class="c0"/>
<circle cx="950" cy="1068" r="6" class="c0"/>
<circle cx="984" cy="832" r="6" class="c0"/>
<circle cx="948" cy="778" r="6" class="c0"/>
<circle cx="1866" cy="1160" r="6" class="c0"/>
<circle cx="888" cy="932" r="6" class="c0"/>
<circle cx="734" cy="1206" r="6" class="c0"/>
<circle cx="944" cy="1044" r="6" class="c0"/>
<circle cx="6" cy="1190" r="6" class="c0"/>
<circle cx="1850" cy="1136" r="6" class="c0"/>
<circle cx="1884" cy="1270" r="6" class="c0"/>
<circle cx="1898" cy="1146" r="6" class="c0"/>
<circle cx="852" cy="1100" r="6" class="c0"/>
<circle cx="814" cy="1058" r="6" class="c0"/>
<circle cx="1032" cy="1080" r="6" class="c0"/>
<circle cx="1808" cy="1258" r="6" class="c0"/>
<circle cx="990" cy="900" r="6" class="c0"/>
<circle cx="788" cy="472" r="6" class="c0"/>
<circle cx="966" cy="928" r="6" class="c0"/>
<circle cx="854" cy="744" r="6" class="c0"/>
<circle cx="818" cy="936" r="6" class="c0"/>
<circle cx="778" cy="328" r="6" class="c0"/>
<circle cx="884" cy="1064" r="6" class="c0"/>
<circle cx="954" cy="746" r="6" class="c0"/>
<circle cx="8" cy="1122" r="6" class="c0"/>
<circle cx="950" cy="830" r="6" class="c0"/>
<circle cx="906" cy="1012" r="6" class="c0"/>
<circle cx="1862" cy="1340" r="6" class="c0"/>
<circle cx="976" cy="1038" r="6" class="c0"/>
<circle cx="1014" cy="1068" r="6" class="c0"/>
<circle cx="822" cy="550" r="6" class="c0"/>
<circle cx="900" cy="870" r="6" class="c0"/>
<circle cx="858" cy="568" r="6" class="c0"/>
<circle cx="1002" cy="558" r="6" class="c0"/>
<circle cx="824" cy="974" r="6" class="c0"/>
<circle cx="966" cy="906" r="6" class="c0"/>
<circle cx="842" cy="1140" r="6" class="c0"/>
<circle cx="868" cy="1022" r="6" class="c0"/>
<circle cx="798" cy="754" r="6" class="c0"/>
<circle cx="1860" cy="1288" r="6" class="c0"/>
<circle cx="1912" cy="1314" r="6" class="c0"/>
<circle cx="1900" cy="1090" r="6" class="c0"/>
<circle cx="1850" cy="1114" r="6" class="c0"/>
<circle cx="972" cy="662" r="6" class="c0"/>
<circle cx="848" cy="1200" r="6" class="c0"/>
<circle cx="1886" cy="1042" r="6" class="c0"/>
<circle cx="782" cy="722" r="6" class="c0"/>
<circle cx="906" cy="958" r="6" class="c0"/>
<circle cx="950" cy="1120" r="6" class="c0"/>
<circle cx="790" cy="1216" r="6" class="c0"/>
<circle cx="998" cy="1070" r="6" class="c0"/>
<circle cx="934" cy="1010" r="6" class="c0"/>
<circle cx="778" cy="610" r="6" class="c0"/>
<circle cx="872" cy="1222" r="6" class="c0"/>
<circle cx="1028" cy="946" r="6" class="c0"/>
<circle cx="1912" cy="1142" r="6" class="c0"/>
<circle cx="1000" cy="944" r="6" class="c0"/>
<circle cx="950" cy="870" r="6" class="c0"/>
<circle cx="62" cy="1134" r="6" class="c0"/>
<circle cx="860" cy="594" r="6" class="c0"/>
<circle cx="890" cy="822" r="6" class="c0"/>
<circle cx="942" cy="470" r="6" class="c0"/>
<circle cx="1842" cy="1294" r="6" class="c0"/>
<circle cx="1816" cy="1304" r="6" class="c0"/>
<circle cx="852" cy="822" r="6" class="c0"/>
<circle cx="982" cy="734" r="6" class="c0"/>
<circle cx="1872" cy="1074" r="6" class="c0"/>
<circle cx="780" cy="702" r="6" class="c0"/>
<circle cx="766" cy="1088" r="6" class="c0"/>
<circle cx="834" cy="1084" r="6" class="c0"/>
<circle cx="878" cy="504" r="6" class="c0"/>
<circle cx="1850" cy="1096" r="6" class="c0"/>
<circle cx="800" cy="514" r="6" class="c0"/>
<circle cx="872" cy="1070" r="6" class="c0"/>
<circle cx="768" cy="1244" r="6" class="c0"/>
<circle cx="930" cy="728" r="6" class="c0"/>
</svg>
