<?xml version="1.0" encoding="utf-8"?>
<svg xmlns="http://www.w3.org/2000/svg"
     xmlns:xlink="http://www.w3.org/1999/xlink" width="1920" height="1440" >

            <defs>
            <style type="text/css"><![CDATA[
circle {stroke: none;}
.c0 {fill: #000000;}
]]></style>
            </defs>
<rect x="0" y="0" width="1920" height="1440" fill="white"/>
<circle cx="862" cy="558" r="12" class="c0"/>
<circle cx="816" cy="1044" r="12" class="c0"/>
<circle cx="942" cy="932" r="12" class="c0"/>
<circle cx="1008" cy="914" r="12" class="c0"/>
<circle cx="988" cy="764" r="12" class="c0"/>
<circle cx="922" cy="910" r="12" class="c0"/>
<circle cx="938" cy="478" r="12" class="c0"/>
<circle cx="910" cy="762" r="12" class="c0"/>
<circle cx="808" cy="690" r="12" class="c0"/>
<circle cx="874" cy="958" r="12" class="c0"/>
<circle cx="910" cy="622" r="12" class="c0"/>
<circle cx="796" cy="1104" r="12" class="c0"/>
<circle cx="774" cy="554" r="12" class="c0"/>
<circle cx="920" cy="992" r="12" class="c0"/>
<circle cx="1002" cy="624" r="12" class="c0"/>
<circle cx="786" cy="982" r="12" class="c0"/>
<circle cx="946" cy="552" r="12" class="c0"/>
<circle cx="906" cy="866" r="12" class="c0"/>
<circle cx="956" cy="846" r="12" class="c0"/>
<circle cx="952" cy="626" r="12" class="c0"/>
<circle cx="978" cy="836" r="10" class="c0"/>
<circle cx="978" cy="860" r="10" class="c0"/>
<circle cx="912" cy="942" r="10" class="c0"/>
<circle cx="936" cy="530" r="10" class="c0"/>
<circle cx="884" cy="618" r="10" class="c0"/>
<circle cx="798" cy="1016" r="10" class="c0"/>
<circle cx="890" cy="808" r="10" class="c0"/>
<circle cx="980" cy="1096" r="10" class="c0"/>
<circle cx="954" cy="804" r="10" class="c0"/>
<circle cx="856" cy="1140" r="10" class="c0"/>
<circle cx="780" cy="1036" r="10" class="c0"/>
<circle cx="930" cy="578" r="10" class="c0"/>
<circle cx="992" cy="948" r="10" class="c0"/>
<circle cx="776" cy="1088" r="10" class="c0"/>
<circle cx="928" cy="716" r="10" class="c0"/>
<circle cx="832" cy="700" r="10" class="c0"/>
<circle cx="902" cy="676" r="10" class="c0"/>
<circle cx="960" cy="508" r="10" class="c0"/>
<circle cx="900" cy="896" r="10" class="c0"/>
<circle cx="992" cy="980" r="10" class="c0"/>
<circle cx="928" cy="662" r="10" class="c0"/>
<circle cx="872" cy="516" r="10" class="c0"/>
<circle cx="890" cy="494" r="10" class="c0"/>
<circle cx="788" cy="958" r="10" class="c0"/>
<circle cx="808" cy="846" r="10" class="c0"/>
<circle cx="954" cy="584" r="10" class="c0"/>
<circle cx="822" cy="1124" r="10" class="c0"/>
<circle cx="868" cy="900" r="10" class="c0"/>
<circle cx="960" cy="742" r="10" class="c0"/>
<circle cx="942" cy="822" r="10" class="c0"/>
<circle cx="892" cy="554" r="10" class="c0"/>
<circle cx="938" cy="754" r="10" class="c0"/>
<circle cx="972" cy="896" r="10" class="c0"/>
<circle cx="836" cy="1000" r="10" class="c0"/>
<circle cx="878" cy="934" r="10" class="c0"/>
<circle cx="790" cy="572" r="10" class="c0"/>
<circle cx="844" cy="578" r="10" class="c0"/>
<circle cx="822" cy="1148" r="10" class="c0"/>
<circle cx="1000" cy="592" r="10" class="c0"/>
<circle cx="1002" cy="1004" r="10" class="c0"/>
<circle cx="904" cy="530" r="10" class="c0"/>
<circle cx="812" cy="870" r="10" class="c0"/>
<circle cx="968" cy="482" r="10" class="c0"/>
<circle cx="876" cy="748" r="10" class="c0"/>
<circle cx="946" cy="704" r="10" class="c0"/>
<circle cx="982" cy="534" r="10" class="c0"/>
<circle cx="996" cy="654" r="10" class="c0"/>
<circle cx="1020" cy="954" r="10" class="c0"/>
<circle cx="990" cy="820" r="10" class="c0"/>
<circle cx="936" cy="886" r="10" class="c0"/>
<circle cx="850" cy="1044" r="10" class="c0"/>
<circle cx="966" cy="642" r="10" class="c0"/>
<circle cx="878" cy="576" r="10" class="c0"/>
<circle cx="946" cy="778" r="10" class="c0"/>
<circle cx="980" cy="610" r="10" class="c0"/>
<circle cx="804" cy="774" r="10" class="c0"/>
<circle cx="912" cy="650" r="10" class="c0"/>
<circle cx="864" cy="1086" r="10" class="c0"/>
<circle cx="984" cy="884" r="10" class="c0"/>
<circle cx="828" cy="948" r="10" class="c0"/>
<circle cx="802" cy="1136" r="10" class="c0"/>
<circle cx="800" cy="518" r="10" class="c0"/>
<circle cx="804" cy="914" r="10" class="c0"/>
<circle cx="988" cy="718" r="10" class="c0"/>
<circle cx="972" cy="1018" r="8" class="c0"/>
<circle cx="844" cy="686" r="8" class="c0"/>
<circle cx="914" cy="1096" r="8" class="c0"/>
<circle cx="868" cy="704" r="8" class="c0"/>
<circle cx="956" cy="1076" r="8" class="c0"/>
<circle cx="796" cy="1062" r="8" class="c0"/>
<circle cx="892" cy="658" r="8" class="c0"/>
<circle cx="798" cy="890" r="8" class="c0"/>
<circle cx="1014" cy="682" r="8" class="c0"/>
<circle cx="822" cy="1072" r="8" class="c0"/>
<circle cx="910" cy="584" r="8" class="c0"/>
<circle cx="946" cy="1106" r="8" class="c0"/>
<circle cx="1018" cy="1072" r="8" class="c0"/>
<circle cx="968" cy="674" r="8" class="c0"/>
<circle cx="956" cy="468" r="8" class="c0"/>
<circle cx="952" cy="1016" r="8" class="c0"/>
<circle cx="824" cy="1012" r="8" class="c0"/>
<circle cx="770" cy="390" r="8" class="c0"/>
<circle cx="862" cy="1056" r="8" class="c0"/>
<circle cx="898" cy="786" r="8" class="c0"/>
<circle cx="992" cy="558" r="8" class="c0"/>
<circle cx="832" cy="1030" r="8" class="c0"/>
<circle cx="874" cy="1042" r="8" class="c0"/>
<circle cx="926" cy="806" r="8" class="c0"/>
<circle cx="796" cy="714" r="8" class="c0"/>
<circle cx="812" cy="980" r="8" class="c0"/>
<circle cx="900" cy="718" r="8" class="c0"/>
<circle cx="944" cy="956" r="8" class="c0"/>
<circle cx="894" cy="698" r="8" class="c0"/>
<circle cx="928" cy="684" r="8" class="c0"/>
<circle cx="1020" cy="1048" r="8" class="c0"/>
<circle cx="870" cy="880" r="8" class="c0"/>
<circle cx="880" cy="788" r="8" class="c0"/>
<circle cx="930" cy="614" r="8" class="c0"/>
<circle cx="994" cy="696" r="8" class="c0"/>
<circle cx="762" cy="530" r="8" class="c0"/>
<circle cx="774" cy="1064" r="8" class="c0"/>
<circle cx="870" cy="538" r="8" class="c0"/>
<circle cx="804" cy="664" r="8" class="c0"/>
<circle cx="900" cy="474" r="8" class="c0"/>
<circle cx="784" cy="480" r="8" class="c0"/>
<circle cx="902" cy="826" r="8" class="c0"/>
<circle cx="990" cy="848" r="8" class="c0"/>
<circle cx="880" cy="830" r="8" class="c0"/>
<circle cx="894" cy="598" r="8" class="c0"/>
<circle cx="804" cy="554" r="8" class="c0"/>
<circle cx="792" cy="654" r="8" class="c0"/>
<circle cx="880" cy="718" r="8" class="c0"/>
<circle cx="910" cy="1028" r="8" class="c0"/>
<circle cx="920" cy="744" r="8" class="c0"/>
<circle cx="762" cy="336" r="8" class="c0"/>
<circle cx="892" cy="1012" r="8" class="c0"/>
<circle cx="928" cy="1066" r="8" class="c0"/>
<circle cx="856" cy="1014" r="8" class="c0"/>
<circle cx="848" cy="1120" r="8" class="c0"/>
<circle cx="794" cy="674" r="8" class="c0"/>
<circle cx="916" cy="518" r="8" class="c0"/>
<circle cx="872" cy="856" r="8" class="c0"/>
<circle cx="856" cy="766" r="8" class="c0"/>
<circle cx="972" cy="1046" r="8" class="c0"/>
<circle cx="750" cy="1074" r="8" class="c0"/>
<circle cx="824" cy="746" r="8" class="c0"/>
<circle cx="1024" cy="926" r="8" class="c0"/>
<circle cx="838" cy="1064" r="8" class="c0"/>
<circle cx="924" cy="834" r="8" class="c0"/>
<circle cx="936" cy="1026" r="8" class="c0"/>
<circle cx="954" cy="904" r="8" class="c0"/>
<circle cx="746" cy="1092" r="8" class="c0"/>
<circle cx="866" cy="672" r="8" class="c0"/>
<circle cx="952" cy="660" r="8" class="c0"/>
<circle cx="816" cy="900" r="8" class="c0"/>
<circle cx="958" cy="720" r="8" class="c0"/>
<circle cx="812" cy="572" r="8" class="c0"/>
<circle cx="952" cy="1054" r="8" class="c0"/>
<circle cx="970" cy="562" r="8" class="c0"/>
<circle cx="840" cy="1102" r="8" class="c0"/>
<circle cx="988" cy="1036" r="8" class="c0"/>
<circle cx="940" cy="978" r="8" class="c0"/>
<circle cx="784" cy="688" r="8" class="c0"/>
<circle cx="914" cy="566" r="8" class="c0"/>
<circle cx="966" cy="964" r="8" class="c0"/>
<circle cx="754" cy="318" r="8" class="c0"/>
<circle cx="866" cy="1112" r="8" class="c0"/>
<circle cx="932" cy="866" r="8" class="c0"/>
<circle cx="780" cy="524" r="8" class="c0"/>
<circle cx="996" cy="678" r="8" class="c0"/>
<circle cx="1028" cy="1024" r="8" class="c0"/>
<circle cx="890" cy="846" r="8" class="c0"/>
<circle cx="794" cy="498" r="8" class="c0"/>
<circle cx="966" cy="772" r="8" class="c0"/>
<circle cx="776" cy="450" r="8" class="c0"/>
<circle cx="798" cy="740" r="8" class="c0"/>
<circle cx="846" cy="714" r="8" class="c0"/>
<circle cx="902" cy="974" r="8" class="c0"/>
<circle cx="1020" cy="976" r="8" class="c0"/>
<circle cx="972" cy="698" r="8" class="c0"/>
<circle cx="856" cy="730" r="8" class="c0"/>
<circle cx="968" cy="944" r="8" class="c0"/>
<circle cx="966" cy="820" r="8" class="c0"/>
<circle cx="1018" cy="650" r="8" class="c0"/>
<circle cx="916" cy="488" r="8" class="c0"/>
<circle cx="890" cy="734" r="8" class="c0"/>
<circle cx="888" cy="912" r="8" class="c0"/>
<circle cx="928" cy="456" r="8" class="c0"/>
<circle cx="924" cy="964" r="8" class="c0"/>
<circle cx="926" cy="504" r="8" class="c0"/>
<circle cx="920" cy="540" r="8" class="c0"/>
<circle cx="986" cy="636" r="8" class="c0"/>
<circle cx="808" cy="942" r="8" class="c0"/>
<circle cx="962" cy="990" r="8" class="c0"/>
<circle cx="986" cy="786" r="8" class="c0"/>
<circle cx="1004" cy="868" r="8" class="c0"/>
<circle cx="950" cy="870" r="8" class="c0"/>
<circle cx="1000" cy="1026" r="8" class="c0"/>
<circle cx="888" cy="882" r="8" class="c0"/>
<circle cx="922" cy="788" r="8" class="c0"/>
<circle cx="780" cy="1116" r="8" class="c0"/>
<circle cx="1002" cy="964" r="8" class="c0"/>
<circle cx="794" cy="538" r="8" class="c0"/>
<circle cx="768" cy="496" r="8" class="c0"/>
<circle cx="762" cy="1100" r="8" class="c0"/>
<circle cx="832" cy="980" r="8" class="c0"/>
<circle cx="806" cy="998" r="8" class="c0"/>
<circle cx="834" cy="764" r="8" class="c0"/>
<circle cx="906" cy="1052" r="8" class="c0"/>
<circle cx="804" cy="1082" r="8" class="c0"/>
<circle cx="820" cy="924" r="8" class="c0"/>
<circle cx="864" cy="920" r="8" class="c0"/>
<circle cx="882" cy="646" r="8" class="c0"/>
<circle cx="824" cy="560" r="8" class="c0"/>
<circle cx="958" cy="1096" r="8" class="c0"/>
<circle cx="954" cy="1034" r="8" class="c0"/>
<circle cx="986" cy="918" r="8" class="c0"/>
<circle cx="774" cy="430" r="8" class="c0"/>
<circle cx="904" cy="506" r="8" class="c0"/>
<circle cx="986" cy="740" r="8" class="c0"/>
<circle cx="888" cy="994" r="8" class="c0"/>
<circle cx="894" cy="950" r="8" class="c0"/>
<circle cx="974" cy="580" r="6" class="c0"/>
<circle cx="982" cy="1070" r="6" class="c0"/>
<circle cx="914" cy="466" r="6" class="c0"/>
<circle cx="832" cy="728" r="6" class="c0"/>
<circle cx="772" cy="318" r="6" class="c0"/>
<circle cx="886" cy="1078" r="6" class="c0"/>
<circle cx="976" cy="810" r="6" class="c0"/>
<circle cx="808" cy="806" r="6" class="c0"/>
<circle cx="896" cy="928" r="6" class="c0"/>
<circle cx="810" cy="534" r="6" class="c0"/>
<circle cx="838" cy="1084" r="6" class="c0"/>
<circle cx="774" cy="1004" r="6" class="c0"/>
<circle cx="1006" cy="934" r="6" class="c0"/>
<circle cx="780" cy="1138" r="6" class="c0"/>
<circle cx="954" cy="526" r="6" class="c0"/>
<circle cx="884" cy="688" r="6" class="c0"/>
<circle cx="970" cy="594" r="6" class="c0"/>
<circle cx="848" cy="988" r="6" class="c0"/>
<circle cx="758" cy="1060" r="6" class="c0"/>
<circle cx="924" cy="638" r="6" class="c0"/>
<circle cx="874" cy="1072" r="6" class="c0"/>
<circle cx="880" cy="1104" r="6" class="c0"/>
<circle cx="782" cy="588" r="6" class="c0"/>
<circle cx="938" cy="1076" r="6" class="c0"/>
<circle cx="790" cy="876" r="6" class="c0"/>
<circle cx="966" cy="916" r="6" class="c0"/>
<circle cx="768" cy="352" r="6" class="c0"/>
<circle cx="922" cy="1048" r="6" class="c0"/>
<circle cx="824" cy="670" r="6" class="c0"/>
<circle cx="942" cy="502" r="6" class="c0"/>
<circle cx="910" cy="802" r="6" class="c0"/>
<circle cx="890" cy="1030" r="6" class="c0"/>
<circle cx="938" cy="1004" r="6" class="c0"/>
<circle cx="1000" cy="1098" r="6" class="c0"/>
<circle cx="980" cy="1002" r="6" class="c0"/>
<circle cx="884" cy="528" r="6" class="c0"/>
<circle cx="800" cy="756" r="6" class="c0"/>
<circle cx="932" cy="1092" r="6" class="c0"/>
<circle cx="770" cy="366" r="6" class="c0"/>
<circle cx="1004" cy="706" r="6" class="c0"/>
<circle cx="920" cy="596" r="6" class="c0"/>
<circle cx="766" cy="1050" r="6" class="c0"/>
<circle cx="916" cy="700" r="6" class="c0"/>
<circle cx="822" cy="718" r="6" class="c0"/>
<circle cx="854" cy="960" r="6" class="c0"/>
<circle cx="1000" cy="730" r="6" class="c0"/>
<circle cx="878" cy="600" r="6" class="c0"/>
<circle cx="938" cy="794" r="6" class="c0"/>
<circle cx="944" cy="730" r="6" class="c0"/>
<circle cx="964" cy="538" r="6" class="c0"/>
<circle cx="1004" cy="892" r="6" class="c0"/>
<circle cx="870" cy="632" r="6" class="c0"/>
<circle cx="850" cy="1074" r="6" class="c0"/>
<circle cx="942" cy="602" r="6" class="c0"/>
<circle cx="1042" cy="1036" r="6" class="c0"/>
<circle cx="802" cy="820" r="6" class="c0"/>
<circle cx="838" cy="962" r="6" class="c0"/>
<circle cx="854" cy="696" r="6" class="c0"/>
<circle cx="972" cy="794" r="6" class="c0"/>
<circle cx="984" cy="514" r="6" class="c0"/>
<circle cx="872" cy="772" r="6" class="c0"/>
<circle cx="774" cy="412" r="6" class="c0"/>
<circle cx="1020" cy="1006" r="6" class="c0"/>
<circle cx="814" cy="1024" r="6" class="c0"/>
<circle cx="920" cy="852" r="6" class="c0"/>
<circle cx="956" cy="684" r="6" class="c0"/>
<circle cx="888" cy="760" r="6" class="c0"/>
<circle cx="940" cy="646" r="6" class="c0"/>
<circle cx="792" cy="832" r="6" class="c0"/>
<circle cx="928" cy="770" r="6" class="c0"/>
<circle cx="842" cy="1154" r="6" class="c0"/>
<circle cx="840" cy="738" r="6" class="c0"/>
<circle cx="784" cy="602" r="6" class="c0"/>
<circle cx="894" cy="1062" r="6" class="c0"/>
<circle cx="788" cy="636" r="6" class="c0"/>
<circle cx="868" cy="1002" r="6" class="c0"/>
<circle cx="964" cy="1112" r="6" class="c0"/>
<circle cx="864" cy="988" r="6" class="c0"/>
<circle cx="842" cy="556" r="6" class="c0"/>
<circle cx="762" cy="1122" r="6" class="c0"/>
<circle cx="1010" cy="664" r="6" class="c0"/>
<circle cx="978" cy="1114" r="6" class="c0"/>
<circle cx="996" cy="900" r="6" class="c0"/>
<circle cx="800" cy="796" r="6" class="c0"/>
<circle cx="1010" cy="986" r="6" class="c0"/>
<circle cx="814" cy="958" r="6" class="c0"/>
<circle cx="904" cy="1002" r="6" class="c0"/>
<circle cx="1012" cy="698" r="6" class="c0"/>
<circle cx="956" cy="974" r="6" class="c0"/>
<circle cx="958" cy="884" r="6" class="c0"/>
<circle cx="958" cy="602" r="6" class="c0"/>
<circle cx="892" cy="636" r="6" class="c0"/>
<circle cx="986" cy="1054" r="6" class="c0"/>
<circle cx="914" cy="726" r="6" class="c0"/>
<circle cx="868" cy="1128" r="6" class="c0"/>
<circle cx="826" cy="1090" r="6" class="c0"/>
<circle cx="984" cy="668" r="6" class="c0"/>
<circle cx="846" cy="972" r="6" class="c0"/>
<circle cx="872" cy="978" r="6" class="c0"/>
<circle cx="1000" cy="806" r="6" class="c0"/>
<circle cx="882" cy="1118" r="6" class="c0"/>
<circle cx="820" cy="1104" r="6" class="c0"/>
<circle cx="996" cy="1078" r="6" class="c0"/>
<circle cx="1020" cy="1088" r="6" class="c0"/>
<circle cx="764" cy="512" r="6" class="c0"/>
<circle cx="862" cy="586" r="6" class="c0"/>
<circle cx="982" cy="588" r="6" class="c0"/>
<circle cx="786" cy="620" r="6" class="c0"/>
<circle cx="846" cy="752" r="6" class="c0"/>
<circle cx="872" cy="814" r="6" class="c0"/>
<circle cx="982" cy="572" r="6" class="c0"/>
<circle cx="770" cy="1020" r="6" class="c0"/>
<circle cx="900" cy="574" r="6" class="c0"/>
<circle cx="1000" cy="572" r="6" class="c0"/>
<circle cx="970" cy="756" r="6" class="c0"/>
<circle cx="946" cy="458" r="6" class="c0"/>
<circle cx="884" cy="476" r="6" class="c0"/>
<circle cx="794" cy="930" r="6" class="c0"/>
<circle cx="970" cy="1064" r="6" class="c0"/>
<circle cx="912" cy="844" r="6" class="c0"/>
<circle cx="890" cy="514" r="6" class="c0"/>
<circle cx="984" cy="490" r="6" class="c0"/>
<circle cx="972" cy="728" r="6" class="c0"/>
<circle cx="910" cy="1074" r="6" class="c0"/>
<circle cx="780" cy="666" r="6" class="c0"/>
<circle cx="982" cy="966" r="6" class="c0"/>
<circle cx="914" cy="1012" r="6" class="c0"/>
<circle cx="1002" cy="1046" r="6" class="c0"/>
<circle cx="790" cy="1150" r="6" class="c0"/>
<circle cx="772" cy="580" r="6" class="c0"/>
<circle cx="838" cy="668" r="6" class="c0"/>
<circle cx="786" cy="1074" r="6" class="c0"/>
<circle cx="858" cy="746" r="6" class="c0"/>
<circle cx="882" cy="866" r="6" class="c0"/>
<circle cx="1036" cy="1068" r="6" class="c0"/>
</svg>
