<?xml version="1.0" encoding="utf-8"?>
<svg xmlns="http://www.w3.org/2000/svg"
     xmlns:xlink="http://www.w3.org/1999/xlink" width="1920" height="1440" >

            <defs>
            <style type="text/css"><![CDATA[
circle {stroke: none;}
.c0 {fill: #000000;}
]]></style>
            </defs>
<rect x="0" y="0" width="1920" height="1440" fill="white"/>
<circle cx="872" cy="736" r="12" class="c0"/>
<circle cx="896" cy="884" r="12" class="c0"/>
<circle cx="944" cy="626" r="12" class="c0"/>
<circle cx="908" cy="816" r="12" class="c0"/>
<circle cx="936" cy="748" r="12" class="c0"/>
<circle cx="890" cy="568" r="12" class="c0"/>
<circle cx="942" cy="1084" r="12" class="c0"/>
<circle cx="872" cy="1034" r="12" class="c0"/>
<circle cx="1032" cy="942" r="12" class="c0"/>
<circle cx="982" cy="978" r="12" class="c0"/>
<circle cx="892" cy="1048" r="12" class="c0"/>
<circle cx="992" cy="1162" r="12" class="c0"/>
<circle cx="988" cy="1206" r="12" class="c0"/>
<circle cx="962" cy="810" r="12" class="c0"/>
<circle cx="962" cy="596" r="12" class="c0"/>
<circle cx="924" cy="1024" r="12" class="c0"/>
<circle cx="944" cy="1228" r="12" class="c0"/>
<circle cx="890" cy="958" r="12" class="c0"/>
<circle cx="934" cy="1266" r="12" class="c0"/>
<circle cx="976" cy="1068" r="12" class="c0"/>
<circle cx="828" cy="708" r="12" class="c0"/>
<circle cx="910" cy="1222" r="12" class="c0"/>
<circle cx="940" cy="938" r="12" class="c0"/>
<circle cx="1022" cy="914" r="12" class="c0"/>
<circle cx="956" cy="1196" r="12" class="c0"/>
<circle cx="954" cy="706" r="12" class="c0"/>
<circle cx="902" cy="1078" r="12" class="c0"/>
<circle cx="986" cy="868" r="12" class="c0"/>
<circle cx="914" cy="944" r="12" class="c0"/>
<circle cx="994" cy="722" r="10" class="c0"/>
<circle cx="960" cy="778" r="10" class="c0"/>
<circle cx="906" cy="490" r="10" class="c0"/>
<circle cx="866" cy="938" r="10" class="c0"/>
<circle cx="990" cy="624" r="10" class="c0"/>
<circle cx="930" cy="640" r="10" class="c0"/>
<circle cx="946" cy="684" r="10" class="c0"/>
<circle cx="872" cy="868" r="10" class="c0"/>
<circle cx="934" cy="488" r="10" class="c0"/>
<circle cx="890" cy="610" r="10" class="c0"/>
<circle cx="1004" cy="552" r="10" class="c0"/>
<circle cx="998" cy="500" r="10" class="c0"/>
<circle cx="992" cy="904" r="10" class="c0"/>
<circle cx="902" cy="650" r="10" class="c0"/>
<circle cx="1014" cy="708" r="10" class="c0"/>
<circle cx="844" cy="694" r="10" class="c0"/>
<circle cx="938" cy="824" r="10" class="c0"/>
<circle cx="940" cy="548" r="10" class="c0"/>
<circle cx="950" cy="1130" r="10" class="c0"/>
<circle cx="902" cy="908" r="10" class="c0"/>
<circle cx="994" cy="668" r="10" class="c0"/>
<circle cx="886" cy="758" r="10" class="c0"/>
<circle cx="1004" cy="928" r="10" class="c0"/>
<circle cx="898" cy="524" r="10" class="c0"/>
<circle cx="910" cy="1116" r="10" class="c0"/>
<circle cx="1008" cy="972" r="10" class="c0"/>
<circle cx="870" cy="1184" r="10" class="c0"/>
<circle cx="868" cy="970" r="10" class="c0"/>
<circle cx="864" cy="1062" r="10" class="c0"/>
<circle cx="796" cy="600" r="10" class="c0"/>
<circle cx="948" cy="846" r="10" class="c0"/>
<circle cx="1008" cy="642" r="10" class="c0"/>
<circle cx="868" cy="1112" r="10" class="c0"/>
<circle cx="948" cy="518" r="10" class="c0"/>
<circle cx="958" cy="1056" r="10" class="c0"/>
<circle cx="820" cy="600" r="10" class="c0"/>
<circle cx="828" cy="544" r="10" class="c0"/>
<circle cx="922" cy="988" r="10" class="c0"/>
<circle cx="876" cy="1214" r="10" class="c0"/>
<circle cx="924" cy="1052" r="10" class="c0"/>
<circle cx="910" cy="864" r="10" class="c0"/>
<circle cx="868" cy="912" r="10" class="c0"/>
<circle cx="988" cy="570" r="10" class="c0"/>
<circle cx="902" cy="782" r="10" class="c0"/>
<circle cx="974" cy="694" r="10" class="c0"/>
<circle cx="914" cy="596" r="10" class="c0"/>
<circle cx="780" cy="568" r="10" class="c0"/>
<circle cx="948" cy="1012" r="10" class="c0"/>
<circle cx="1034" cy="994" r="10" class="c0"/>
<circle cx="928" cy="906" r="10" class="c0"/>
<circle cx="956" cy="486" r="10" class="c0"/>
<circle cx="964" cy="936" r="10" class="c0"/>
<circle cx="968" cy="640" r="10" class="c0"/>
<circle cx="946" cy="988" r="10" class="c0"/>
<circle cx="896" cy="696" r="10" class="c0"/>
<circle cx="968" cy="504" r="10" class="c0"/>
<circle cx="986" cy="522" r="10" class="c0"/>
<circle cx="952" cy="560" r="10" class="c0"/>
<circle cx="956" cy="968" r="10" class="c0"/>
<circle cx="964" cy="856" r="8" class="c0"/>
<circle cx="874" cy="696" r="8" class="c0"/>
<circle cx="758" cy="348" r="8" class="c0"/>
<circle cx="1004" cy="600" r="8" class="c0"/>
<circle cx="910" cy="470" r="8" class="c0"/>
<circle cx="848" cy="744" r="8" class="c0"/>
<circle cx="802" cy="552" r="8" class="c0"/>
<circle cx="928" cy="524" r="8" class="c0"/>
<circle cx="886" cy="1006" r="8" class="c0"/>
<circle cx="1008" cy="780" r="8" class="c0"/>
<circle cx="912" cy="1198" r="8" class="c0"/>
<circle cx="928" cy="664" r="8" class="c0"/>
<circle cx="1016" cy="1022" r="8" class="c0"/>
<circle cx="766" cy="404" r="8" class="c0"/>
<circle cx="840" cy="580" r="8" class="c0"/>
<circle cx="998" cy="758" r="8" class="c0"/>
<circle cx="982" cy="1036" r="8" class="c0"/>
<circle cx="934" cy="1156" r="8" class="c0"/>
<circle cx="912" cy="1146" r="8" class="c0"/>
<circle cx="818" cy="578" r="8" class="c0"/>
<circle cx="920" cy="726" r="8" class="c0"/>
<circle cx="862" cy="716" r="8" class="c0"/>
<circle cx="866" cy="1140" r="8" class="c0"/>
<circle cx="1000" cy="854" r="8" class="c0"/>
<circle cx="888" cy="982" r="8" class="c0"/>
<circle cx="932" cy="452" r="8" class="c0"/>
<circle cx="980" cy="746" r="8" class="c0"/>
<circle cx="938" cy="720" r="8" class="c0"/>
<circle cx="924" cy="1246" r="8" class="c0"/>
<circle cx="854" cy="1172" r="8" class="c0"/>
<circle cx="912" cy="1040" r="8" class="c0"/>
<circle cx="976" cy="1184" r="8" class="c0"/>
<circle cx="1020" cy="678" r="8" class="c0"/>
<circle cx="928" cy="794" r="8" class="c0"/>
<circle cx="886" cy="1104" r="8" class="c0"/>
<circle cx="956" cy="1250" r="8" class="c0"/>
<circle cx="968" cy="1162" r="8" class="c0"/>
<circle cx="892" cy="1194" r="8" class="c0"/>
<circle cx="1002" cy="1034" r="8" class="c0"/>
<circle cx="988" cy="808" r="8" class="c0"/>
<circle cx="968" cy="724" r="8" class="c0"/>
<circle cx="984" cy="830" r="8" class="c0"/>
<circle cx="930" cy="856" r="8" class="c0"/>
<circle cx="872" cy="1084" r="8" class="c0"/>
<circle cx="874" cy="824" r="8" class="c0"/>
<circle cx="910" cy="1176" r="8" class="c0"/>
<circle cx="964" cy="666" r="8" class="c0"/>
<circle cx="842" cy="970" r="8" class="c0"/>
<circle cx="1026" cy="964" r="8" class="c0"/>
<circle cx="888" cy="1148" r="8" class="c0"/>
<circle cx="858" cy="834" r="8" class="c0"/>
<circle cx="894" cy="632" r="8" class="c0"/>
<circle cx="916" cy="624" r="8" class="c0"/>
<circle cx="818" cy="526" r="8" class="c0"/>
<circle cx="918" cy="836" r="8" class="c0"/>
<circle cx="850" cy="766" r="8" class="c0"/>
<circle cx="912" cy="574" r="8" class="c0"/>
<circle cx="900" cy="1158" r="8" class="c0"/>
<circle cx="946" cy="1178" r="8" class="c0"/>
<circle cx="1006" cy="1012" r="8" class="c0"/>
<circle cx="782" cy="474" r="8" class="c0"/>
<circle cx="862" cy="590" r="8" class="c0"/>
<circle cx="944" cy="916" r="8" class="c0"/>
<circle cx="980" cy="1006" r="8" class="c0"/>
<circle cx="776" cy="548" r="8" class="c0"/>
<circle cx="958" cy="746" r="8" class="c0"/>
<circle cx="936" cy="570" r="8" class="c0"/>
<circle cx="996" cy="1052" r="8" class="c0"/>
<circle cx="970" cy="458" r="8" class="c0"/>
<circle cx="804" cy="512" r="8" class="c0"/>
<circle cx="918" cy="694" r="8" class="c0"/>
<circle cx="1010" cy="740" r="8" class="c0"/>
<circle cx="900" cy="1020" r="8" class="c0"/>
<circle cx="978" cy="608" r="8" class="c0"/>
<circle cx="956" cy="1034" r="8" class="c0"/>
<circle cx="894" cy="842" r="8" class="c0"/>
<circle cx="854" cy="1128" r="8" class="c0"/>
<circle cx="860" cy="570" r="8" class="c0"/>
<circle cx="788" cy="526" r="8" class="c0"/>
<circle cx="814" cy="622" r="8" class="c0"/>
<circle cx="924" cy="1166" r="8" class="c0"/>
<circle cx="914" cy="760" r="8" class="c0"/>
<circle cx="902" cy="748" r="8" class="c0"/>
<circle cx="992" cy="960" r="8" class="c0"/>
<circle cx="968" cy="1018" r="8" class="c0"/>
<circle cx="1014" cy="1088" r="8" class="c0"/>
<circle cx="940" cy="590" r="8" class="c0"/>
<circle cx="936" cy="960" r="8" class="c0"/>
<circle cx="948" cy="886" r="8" class="c0"/>
<circle cx="906" cy="678" r="8" class="c0"/>
<circle cx="900" cy="726" r="8" class="c0"/>
<circle cx="928" cy="1210" r="8" class="c0"/>
<circle cx="960" cy="1100" r="8" class="c0"/>
<circle cx="882" cy="716" r="8" class="c0"/>
<circle cx="984" cy="1128" r="8" class="c0"/>
<circle cx="1004" cy="878" r="8" class="c0"/>
<circle cx="982" cy="470" r="8" class="c0"/>
<circle cx="886" cy="1174" r="8" class="c0"/>
<circle cx="936" cy="1114" r="8" class="c0"/>
<circle cx="942" cy="462" r="8" class="c0"/>
<circle cx="966" cy="1240" r="8" class="c0"/>
<circle cx="854" cy="958" r="8" class="c0"/>
<circle cx="918" cy="508" r="8" class="c0"/>
<circle cx="1000" cy="822" r="8" class="c0"/>
<circle cx="820" cy="646" r="8" class="c0"/>
<circle cx="938" cy="778" r="8" class="c0"/>
<circle cx="924" cy="1098" r="8" class="c0"/>
<circle cx="860" cy="1014" r="8" class="c0"/>
<circle cx="986" cy="768" r="8" class="c0"/>
<circle cx="1010" cy="808" r="8" class="c0"/>
<circle cx="884" cy="512" r="8" class="c0"/>
<circle cx="974" cy="556" r="8" class="c0"/>
<circle cx="974" cy="1144" r="8" class="c0"/>
<circle cx="870" cy="560" r="8" class="c0"/>
<circle cx="980" cy="786" r="8" class="c0"/>
<circle cx="1024" cy="1070" r="8" class="c0"/>
<circle cx="982" cy="654" r="8" class="c0"/>
<circle cx="972" cy="1222" r="8" class="c0"/>
<circle cx="842" cy="722" r="8" class="c0"/>
<circle cx="1032" cy="1094" r="8" class="c0"/>
<circle cx="870" cy="994" r="8" class="c0"/>
<circle cx="982" cy="948" r="8" class="c0"/>
<circle cx="972" cy="914" r="8" class="c0"/>
<circle cx="856" cy="1196" r="8" class="c0"/>
<circle cx="966" cy="994" r="8" class="c0"/>
<circle cx="794" cy="502" r="8" class="c0"/>
<circle cx="784" cy="588" r="8" class="c0"/>
<circle cx="752" cy="330" r="8" class="c0"/>
<circle cx="926" cy="874" r="8" class="c0"/>
<circle cx="826" cy="672" r="8" class="c0"/>
<circle cx="1010" cy="844" r="8" class="c0"/>
<circle cx="910" cy="710" r="8" class="c0"/>
<circle cx="970" cy="894" r="8" class="c0"/>
<circle cx="1020" cy="658" r="8" class="c0"/>
<circle cx="776" cy="436" r="8" class="c0"/>
<circle cx="930" cy="1134" r="8" class="c0"/>
<circle cx="928" cy="610" r="8" class="c0"/>
<circle cx="948" cy="648" r="8" class="c0"/>
<circle cx="890" cy="542" r="8" class="c0"/>
<circle cx="800" cy="574" r="8" class="c0"/>
<circle cx="888" cy="928" r="8" class="c0"/>
<circle cx="898" cy="996" r="8" class="c0"/>
<circle cx="910" cy="970" r="8" class="c0"/>
<circle cx="886" cy="792" r="8" class="c0"/>
<circle cx="944" cy="1044" r="8" class="c0"/>
<circle cx="874" cy="1162" r="8" class="c0"/>
<circle cx="882" cy="592" r="8" class="c0"/>
<circle cx="890" cy="1230" r="8" class="c0"/>
<circle cx="960" cy="538" r="8" class="c0"/>
<circle cx="874" cy="846" r="8" class="c0"/>
<circle cx="832" cy="752" r="8" class="c0"/>
<circle cx="932" cy="1188" r="8" class="c0"/>
<circle cx="882" cy="1130" r="8" class="c0"/>
<circle cx="920" cy="778" r="6" class="c0"/>
<circle cx="922" cy="1082" r="6" class="c0"/>
<circle cx="1014" cy="894" r="6" class="c0"/>
<circle cx="1016" cy="954" r="6" class="c0"/>
<circle cx="846" cy="812" r="6" class="c0"/>
<circle cx="762" cy="366" r="6" class="c0"/>
<circle cx="966" cy="872" r="6" class="c0"/>
<circle cx="860" cy="894" r="6" class="c0"/>
<circle cx="1008" cy="1068" r="6" class="c0"/>
<circle cx="898" cy="1132" r="6" class="c0"/>
<circle cx="842" cy="558" r="6" class="c0"/>
<circle cx="874" cy="888" r="6" class="c0"/>
<circle cx="778" cy="500" r="6" class="c0"/>
<circle cx="926" cy="558" r="6" class="c0"/>
<circle cx="964" cy="620" r="6" class="c0"/>
<circle cx="956" cy="446" r="6" class="c0"/>
<circle cx="1016" cy="1002" r="6" class="c0"/>
<circle cx="864" cy="754" r="6" class="c0"/>
<circle cx="1014" cy="866" r="6" class="c0"/>
<circle cx="880" cy="808" r="6" class="c0"/>
<circle cx="970" cy="1120" r="6" class="c0"/>
<circle cx="894" cy="502" r="6" class="c0"/>
<circle cx="984" cy="542" r="6" class="c0"/>
<circle cx="994" cy="590" r="6" class="c0"/>
<circle cx="910" cy="546" r="6" class="c0"/>
<circle cx="846" cy="596" r="6" class="c0"/>
<circle cx="886" cy="1068" r="6" class="c0"/>
<circle cx="886" cy="494" r="6" class="c0"/>
<circle cx="1004" cy="582" r="6" class="c0"/>
<circle cx="950" cy="794" r="6" class="c0"/>
<circle cx="910" cy="1010" r="6" class="c0"/>
<circle cx="964" cy="576" r="6" class="c0"/>
<circle cx="884" cy="856" r="6" class="c0"/>
<circle cx="884" cy="898" r="6" class="c0"/>
<circle cx="1002" cy="694" r="6" class="c0"/>
<circle cx="982" cy="928" r="6" class="c0"/>
<circle cx="758" cy="380" r="6" class="c0"/>
<circle cx="960" cy="830" r="6" class="c0"/>
<circle cx="978" cy="586" r="6" class="c0"/>
<circle cx="778" cy="454" r="6" class="c0"/>
<circle cx="920" cy="538" r="6" class="c0"/>
<circle cx="814" cy="696" r="6" class="c0"/>
<circle cx="952" cy="1158" r="6" class="c0"/>
<circle cx="998" cy="990" r="6" class="c0"/>
<circle cx="1044" cy="1064" r="6" class="c0"/>
<circle cx="976" cy="1108" r="6" class="c0"/>
<circle cx="1022" cy="1046" r="6" class="c0"/>
<circle cx="1036" cy="1012" r="6" class="c0"/>
<circle cx="982" cy="490" r="6" class="c0"/>
<circle cx="942" cy="866" r="6" class="c0"/>
<circle cx="942" cy="806" r="6" class="c0"/>
<circle cx="898" cy="586" r="6" class="c0"/>
<circle cx="1016" cy="626" r="6" class="c0"/>
<circle cx="822" cy="688" r="6" class="c0"/>
<circle cx="996" cy="1102" r="6" class="c0"/>
<circle cx="852" cy="1154" r="6" class="c0"/>
<circle cx="846" cy="790" r="6" class="c0"/>
<circle cx="1006" cy="524" r="6" class="c0"/>
<circle cx="980" cy="846" r="6" class="c0"/>
<circle cx="808" cy="536" r="6" class="c0"/>
<circle cx="830" cy="568" r="6" class="c0"/>
<circle cx="994" cy="1186" r="6" class="c0"/>
<circle cx="940" cy="1064" r="6" class="c0"/>
<circle cx="856" cy="850" r="6" class="c0"/>
<circle cx="914" cy="896" r="6" class="c0"/>
<circle cx="904" cy="926" r="6" class="c0"/>
<circle cx="962" cy="1082" r="6" class="c0"/>
<circle cx="892" cy="1120" r="6" class="c0"/>
<circle cx="858" cy="1212" r="6" class="c0"/>
<circle cx="908" cy="1242" r="6" class="c0"/>
<circle cx="930" cy="706" r="6" class="c0"/>
<circle cx="996" cy="790" r="6" class="c0"/>
<circle cx="1008" cy="618" r="6" class="c0"/>
<circle cx="740" cy="320" r="6" class="c0"/>
<circle cx="928" cy="1070" r="6" class="c0"/>
<circle cx="992" cy="480" r="6" class="c0"/>
<circle cx="892" cy="668" r="6" class="c0"/>
<circle cx="986" cy="1084" r="6" class="c0"/>
<circle cx="1002" cy="950" r="6" class="c0"/>
<circle cx="988" cy="1020" r="6" class="c0"/>
<circle cx="968" cy="756" r="6" class="c0"/>
<circle cx="974" cy="1090" r="6" class="c0"/>
<circle cx="998" cy="1118" r="6" class="c0"/>
<circle cx="944" cy="666" r="6" class="c0"/>
<circle cx="792" cy="542" r="6" class="c0"/>
<circle cx="1028" cy="1034" r="6" class="c0"/>
<circle cx="978" cy="714" r="6" class="c0"/>
<circle cx="994" cy="702" r="6" class="c0"/>
<circle cx="1022" cy="1116" r="6" class="c0"/>
<circle cx="968" cy="524" r="6" class="c0"/>
<circle cx="1038" cy="974" r="6" class="c0"/>
<circle cx="768" cy="422" r="6" class="c0"/>
<circle cx="906" cy="1098" r="6" class="c0"/>
<circle cx="854" cy="988" r="6" class="c0"/>
<circle cx="976" cy="1250" r="6" class="c0"/>
<circle cx="954" cy="902" r="6" class="c0"/>
<circle cx="918" cy="924" r="6" class="c0"/>
<circle cx="856" cy="1044" r="6" class="c0"/>
<circle cx="1014" cy="1054" r="6" class="c0"/>
<circle cx="950" cy="730" r="6" class="c0"/>
<circle cx="946" cy="606" r="6" class="c0"/>
<circle cx="856" cy="880" r="6" class="c0"/>
<circle cx="892" cy="1248" r="6" class="c0"/>
<circle cx="1018" cy="986" r="6" class="c0"/>
<circle cx="814" cy="754" r="6" class="c0"/>
<circle cx="874" cy="578" r="6" class="c0"/>
<circle cx="996" cy="536" r="6" class="c0"/>
<circle cx="796" cy="484" r="6" class="c0"/>
<circle cx="948" cy="766" r="6" class="c0"/>
<circle cx="996" cy="1076" r="6" class="c0"/>
<circle cx="958" cy="1146" r="6" class="c0"/>
<circle cx="932" cy="1004" r="6" class="c0"/>
<circle cx="946" cy="500" r="6" class="c0"/>
<circle cx="934" cy="976" r="6" class="c0"/>
<circle cx="894" cy="1210" r="6" class="c0"/>
<circle cx="1040" cy="1078" r="6" class="c0"/>
</svg>
