<?xml version="1.0" encoding="utf-8"?>
<svg xmlns="http://www.w3.org/2000/svg"
     xmlns:xlink="http://www.w3.org/1999/xlink" width="1920" height="1440" >

            <defs>
            <style type="text/css"><![CDATA[
circle {stroke: none;}
.c0 {fill: #000000;}
]]></style>
            </defs>
<rect x="0" y="0" width="1920" height="1440" fill="white"/>
<circle cx="1028" cy="1114" r="12" class="c0"/>
<circle cx="914" cy="640" r="12" class="c0"/>
<circle cx="1012" cy="1014" r="12" class="c0"/>
<circle cx="1022" cy="646" r="12" class="c0"/>
<circle cx="1004" cy="874" r="12" class="c0"/>
<circle cx="1034" cy="1038" r="12" class="c0"/>
<circle cx="890" cy="966" r="12" class="c0"/>
<circle cx="948" cy="1066" r="12" class="c0"/>
<circle cx="1018" cy="1258" r="12" class="c0"/>
<circle cx="900" cy="798" r="12" class="c0"/>
<circle cx="1066" cy="1232" r="12" class="c0"/>
<circle cx="988" cy="786" r="12" class="c0"/>
<circle cx="830" cy="574" r="12" class="c0"/>
<circle cx="930" cy="568" r="12" class="c0"/>
<circle cx="940" cy="826" r="12" class="c0"/>
<circle cx="1024" cy="1148" r="12" class="c0"/>
<circle cx="970" cy="1024" r="12" class="c0"/>
<circle cx="922" cy="676" r="12" class="c0"/>
<circle cx="916" cy="938" r="12" class="c0"/>
<circle cx="944" cy="1206" r="12" class="c0"/>
<circle cx="1012" cy="1218" r="12" class="c0"/>
<circle cx="900" cy="838" r="12" class="c0"/>
<circle cx="958" cy="894" r="12" class="c0"/>
<circle cx="980" cy="662" r="12" class="c0"/>
<circle cx="900" cy="602" r="12" class="c0"/>
<circle cx="950" cy="782" r="12" class="c0"/>
<circle cx="986" cy="512" r="12" class="c0"/>
<circle cx="994" cy="1314" r="12" class="c0"/>
<circle cx="920" cy="1014" r="12" class="c0"/>
<circle cx="1004" cy="632" r="10" class="c0"/>
<circle cx="940" cy="954" r="10" class="c0"/>
<circle cx="934" cy="754" r="10" class="c0"/>
<circle cx="928" cy="620" r="10" class="c0"/>
<circle cx="1026" cy="912" r="10" class="c0"/>
<circle cx="1006" cy="924" r="10" class="c0"/>
<circle cx="1028" cy="1182" r="10" class="c0"/>
<circle cx="984" cy="1258" r="10" class="c0"/>
<circle cx="892" cy="748" r="10" class="c0"/>
<circle cx="972" cy="1144" r="10" class="c0"/>
<circle cx="912" cy="768" r="10" class="c0"/>
<circle cx="826" cy="602" r="10" class="c0"/>
<circle cx="1020" cy="948" r="10" class="c0"/>
<circle cx="962" cy="540" r="10" class="c0"/>
<circle cx="964" cy="1220" r="10" class="c0"/>
<circle cx="1006" cy="762" r="10" class="c0"/>
<circle cx="988" cy="1282" r="10" class="c0"/>
<circle cx="1016" cy="552" r="10" class="c0"/>
<circle cx="910" cy="694" r="10" class="c0"/>
<circle cx="922" cy="480" r="10" class="c0"/>
<circle cx="966" cy="752" r="10" class="c0"/>
<circle cx="1038" cy="958" r="10" class="c0"/>
<circle cx="988" cy="598" r="10" class="c0"/>
<circle cx="964" cy="1104" r="10" class="c0"/>
<circle cx="952" cy="516" r="10" class="c0"/>
<circle cx="932" cy="594" r="10" class="c0"/>
<circle cx="956" cy="632" r="10" class="c0"/>
<circle cx="958" cy="1186" r="10" class="c0"/>
<circle cx="864" cy="568" r="10" class="c0"/>
<circle cx="938" cy="1242" r="10" class="c0"/>
<circle cx="942" cy="908" r="10" class="c0"/>
<circle cx="912" cy="580" r="10" class="c0"/>
<circle cx="942" cy="860" r="10" class="c0"/>
<circle cx="992" cy="852" r="10" class="c0"/>
<circle cx="910" cy="892" r="10" class="c0"/>
<circle cx="864" cy="964" r="10" class="c0"/>
<circle cx="956" cy="608" r="10" class="c0"/>
<circle cx="1038" cy="1312" r="10" class="c0"/>
<circle cx="826" cy="532" r="10" class="c0"/>
<circle cx="988" cy="1072" r="10" class="c0"/>
<circle cx="856" cy="602" r="10" class="c0"/>
<circle cx="1012" cy="584" r="10" class="c0"/>
<circle cx="922" cy="1088" r="10" class="c0"/>
<circle cx="986" cy="476" r="10" class="c0"/>
<circle cx="960" cy="806" r="10" class="c0"/>
<circle cx="988" cy="1184" r="10" class="c0"/>
<circle cx="956" cy="938" r="10" class="c0"/>
<circle cx="1048" cy="1262" r="10" class="c0"/>
<circle cx="1002" cy="1090" r="10" class="c0"/>
<circle cx="970" cy="494" r="10" class="c0"/>
<circle cx="962" cy="998" r="10" class="c0"/>
<circle cx="904" cy="990" r="10" class="c0"/>
<circle cx="894" cy="878" r="10" class="c0"/>
<circle cx="1014" cy="788" r="10" class="c0"/>
<circle cx="968" cy="854" r="10" class="c0"/>
<circle cx="988" cy="964" r="10" class="c0"/>
<circle cx="904" cy="1068" r="10" class="c0"/>
<circle cx="924" cy="716" r="10" class="c0"/>
<circle cx="1008" cy="672" r="10" class="c0"/>
<circle cx="1056" cy="1190" r="10" class="c0"/>
<circle cx="972" cy="718" r="10" class="c0"/>
<circle cx="1046" cy="980" r="10" class="c0"/>
<circle cx="1024" cy="984" r="10" class="c0"/>
<circle cx="950" cy="1142" r="10" class="c0"/>
<circle cx="942" cy="1122" r="10" class="c0"/>
<circle cx="992" cy="560" r="10" class="c0"/>
<circle cx="1010" cy="822" r="10" class="c0"/>
<circle cx="1060" cy="1290" r="10" class="c0"/>
<circle cx="938" cy="1162" r="10" class="c0"/>
<circle cx="800" cy="518" r="10" class="c0"/>
<circle cx="988" cy="1114" r="10" class="c0"/>
<circle cx="984" cy="812" r="10" class="c0"/>
<circle cx="914" cy="532" r="10" class="c0"/>
<circle cx="974" cy="694" r="10" class="c0"/>
<circle cx="904" cy="552" r="10" class="c0"/>
<circle cx="990" cy="1004" r="10" class="c0"/>
<circle cx="896" cy="718" r="10" class="c0"/>
<circle cx="1016" cy="732" r="10" class="c0"/>
<circle cx="942" cy="1272" r="10" class="c0"/>
<circle cx="886" cy="938" r="10" class="c0"/>
<circle cx="926" cy="798" r="10" class="c0"/>
<circle cx="930" cy="984" r="10" class="c0"/>
<circle cx="940" cy="500" r="10" class="c0"/>
<circle cx="1004" cy="484" r="8" class="c0"/>
<circle cx="1014" cy="502" r="8" class="c0"/>
<circle cx="978" cy="924" r="8" class="c0"/>
<circle cx="1002" cy="1034" r="8" class="c0"/>
<circle cx="1004" cy="1160" r="8" class="c0"/>
<circle cx="864" cy="724" r="8" class="c0"/>
<circle cx="970" cy="1052" r="8" class="c0"/>
<circle cx="794" cy="584" r="8" class="c0"/>
<circle cx="1004" cy="1138" r="8" class="c0"/>
<circle cx="946" cy="704" r="8" class="c0"/>
<circle cx="1026" cy="1326" r="8" class="c0"/>
<circle cx="936" cy="730" r="8" class="c0"/>
<circle cx="934" cy="460" r="8" class="c0"/>
<circle cx="896" cy="910" r="8" class="c0"/>
<circle cx="1038" cy="924" r="8" class="c0"/>
<circle cx="994" cy="1208" r="8" class="c0"/>
<circle cx="946" cy="1016" r="8" class="c0"/>
<circle cx="1006" cy="700" r="8" class="c0"/>
<circle cx="922" cy="1050" r="8" class="c0"/>
<circle cx="1050" cy="1062" r="8" class="c0"/>
<circle cx="980" cy="866" r="8" class="c0"/>
<circle cx="930" cy="1034" r="8" class="c0"/>
<circle cx="974" cy="982" r="8" class="c0"/>
<circle cx="858" cy="694" r="8" class="c0"/>
<circle cx="922" cy="836" r="8" class="c0"/>
<circle cx="852" cy="544" r="8" class="c0"/>
<circle cx="786" cy="450" r="8" class="c0"/>
<circle cx="942" cy="552" r="8" class="c0"/>
<circle cx="1028" cy="878" r="8" class="c0"/>
<circle cx="1020" cy="1304" r="8" class="c0"/>
<circle cx="872" cy="762" r="8" class="c0"/>
<circle cx="1040" cy="1218" r="8" class="c0"/>
<circle cx="956" cy="976" r="8" class="c0"/>
<circle cx="936" cy="650" r="8" class="c0"/>
<circle cx="822" cy="624" r="8" class="c0"/>
<circle cx="1012" cy="526" r="8" class="c0"/>
<circle cx="934" cy="1100" r="8" class="c0"/>
<circle cx="998" cy="540" r="8" class="c0"/>
<circle cx="914" cy="732" r="8" class="c0"/>
<circle cx="974" cy="1324" r="8" class="c0"/>
<circle cx="960" cy="566" r="8" class="c0"/>
<circle cx="876" cy="600" r="8" class="c0"/>
<circle cx="998" cy="742" r="8" class="c0"/>
<circle cx="970" cy="1082" r="8" class="c0"/>
<circle cx="806" cy="610" r="8" class="c0"/>
<circle cx="948" cy="674" r="8" class="c0"/>
<circle cx="1058" cy="1210" r="8" class="c0"/>
<circle cx="952" cy="478" r="8" class="c0"/>
<circle cx="1010" cy="612" r="8" class="c0"/>
<circle cx="896" cy="522" r="8" class="c0"/>
<circle cx="1080" cy="1204" r="8" class="c0"/>
<circle cx="974" cy="446" r="8" class="c0"/>
<circle cx="954" cy="726" r="8" class="c0"/>
<circle cx="922" cy="1252" r="8" class="c0"/>
<circle cx="922" cy="868" r="8" class="c0"/>
<circle cx="958" cy="1240" r="8" class="c0"/>
<circle cx="968" cy="594" r="8" class="c0"/>
<circle cx="1000" cy="988" r="8" class="c0"/>
<circle cx="1008" cy="1178" r="8" class="c0"/>
<circle cx="800" cy="496" r="8" class="c0"/>
<circle cx="1000" cy="898" r="8" class="c0"/>
<circle cx="984" cy="942" r="8" class="c0"/>
<circle cx="1020" cy="838" r="8" class="c0"/>
<circle cx="886" cy="1034" r="8" class="c0"/>
<circle cx="778" cy="426" r="8" class="c0"/>
<circle cx="948" cy="450" r="8" class="c0"/>
<circle cx="870" cy="620" r="8" class="c0"/>
<circle cx="978" cy="616" r="8" class="c0"/>
<circle cx="874" cy="1020" r="8" class="c0"/>
<circle cx="880" cy="734" r="8" class="c0"/>
<circle cx="896" cy="500" r="8" class="c0"/>
<circle cx="1030" cy="1294" r="8" class="c0"/>
<circle cx="880" cy="788" r="8" class="c0"/>
<circle cx="996" cy="460" r="8" class="c0"/>
<circle cx="918" cy="816" r="8" class="c0"/>
<circle cx="874" cy="900" r="8" class="c0"/>
<circle cx="980" cy="548" r="8" class="c0"/>
<circle cx="920" cy="512" r="8" class="c0"/>
<circle cx="1006" cy="1240" r="8" class="c0"/>
<circle cx="1030" cy="1080" r="8" class="c0"/>
<circle cx="1040" cy="1162" r="8" class="c0"/>
<circle cx="886" cy="576" r="8" class="c0"/>
<circle cx="918" cy="968" r="8" class="c0"/>
<circle cx="996" cy="1230" r="8" class="c0"/>
<circle cx="848" cy="974" r="8" class="c0"/>
<circle cx="962" cy="958" r="8" class="c0"/>
<circle cx="852" cy="622" r="8" class="c0"/>
<circle cx="984" cy="762" r="8" class="c0"/>
<circle cx="948" cy="582" r="8" class="c0"/>
<circle cx="896" cy="1008" r="8" class="c0"/>
<circle cx="950" cy="1088" r="8" class="c0"/>
<circle cx="904" cy="660" r="8" class="c0"/>
<circle cx="968" cy="466" r="8" class="c0"/>
<circle cx="918" cy="912" r="8" class="c0"/>
<circle cx="806" cy="552" r="8" class="c0"/>
<circle cx="968" cy="830" r="8" class="c0"/>
<circle cx="944" cy="1298" r="8" class="c0"/>
<circle cx="994" cy="688" r="8" class="c0"/>
<circle cx="980" cy="1238" r="8" class="c0"/>
<circle cx="1036" cy="1002" r="8" class="c0"/>
<circle cx="790" cy="472" r="8" class="c0"/>
<circle cx="938" cy="532" r="8" class="c0"/>
<circle cx="1030" cy="1208" r="8" class="c0"/>
<circle cx="888" cy="624" r="8" class="c0"/>
<circle cx="1074" cy="1310" r="8" class="c0"/>
<circle cx="758" cy="378" r="8" class="c0"/>
<circle cx="848" cy="674" r="8" class="c0"/>
<circle cx="968" cy="1166" r="8" class="c0"/>
<circle cx="1022" cy="686" r="8" class="c0"/>
<circle cx="996" cy="1052" r="8" class="c0"/>
<circle cx="860" cy="998" r="8" class="c0"/>
<circle cx="770" cy="396" r="8" class="c0"/>
<circle cx="888" cy="858" r="8" class="c0"/>
<circle cx="954" cy="1258" r="8" class="c0"/>
<circle cx="996" cy="716" r="8" class="c0"/>
<circle cx="940" cy="1046" r="8" class="c0"/>
<circle cx="980" cy="886" r="8" class="c0"/>
<circle cx="812" cy="590" r="8" class="c0"/>
<circle cx="974" cy="1302" r="8" class="c0"/>
<circle cx="978" cy="738" r="8" class="c0"/>
<circle cx="1040" cy="1280" r="8" class="c0"/>
<circle cx="852" cy="580" r="8" class="c0"/>
<circle cx="972" cy="772" r="8" class="c0"/>
<circle cx="976" cy="1200" r="8" class="c0"/>
<circle cx="1016" cy="1280" r="8" class="c0"/>
<circle cx="970" cy="576" r="8" class="c0"/>
<circle cx="840" cy="638" r="8" class="c0"/>
<circle cx="860" cy="742" r="8" class="c0"/>
<circle cx="992" cy="830" r="8" class="c0"/>
<circle cx="1038" cy="1238" r="8" class="c0"/>
<circle cx="922" cy="1110" r="8" class="c0"/>
<circle cx="964" cy="1270" r="8" class="c0"/>
<circle cx="950" cy="1036" r="8" class="c0"/>
<circle cx="964" cy="1126" r="8" class="c0"/>
<circle cx="840" cy="556" r="8" class="c0"/>
<circle cx="1006" cy="1290" r="8" class="c0"/>
<circle cx="746" cy="348" r="8" class="c0"/>
<circle cx="1022" cy="1054" r="8" class="c0"/>
<circle cx="932" cy="1186" r="8" class="c0"/>
<circle cx="1074" cy="1252" r="8" class="c0"/>
<circle cx="978" cy="904" r="8" class="c0"/>
<circle cx="932" cy="1222" r="8" class="c0"/>
<circle cx="902" cy="1026" r="8" class="c0"/>
<circle cx="900" cy="1044" r="8" class="c0"/>
<circle cx="932" cy="878" r="8" class="c0"/>
<circle cx="1010" cy="1340" r="8" class="c0"/>
<circle cx="876" cy="922" r="8" class="c0"/>
<circle cx="958" cy="664" r="8" class="c0"/>
<circle cx="1012" cy="968" r="8" class="c0"/>
<circle cx="984" cy="636" r="8" class="c0"/>
<circle cx="1022" cy="858" r="8" class="c0"/>
<circle cx="1004" cy="1196" r="8" class="c0"/>
<circle cx="1088" cy="1270" r="8" class="c0"/>
<circle cx="936" cy="694" r="8" class="c0"/>
<circle cx="892" cy="776" r="8" class="c0"/>
<circle cx="890" cy="820" r="8" class="c0"/>
<circle cx="1002" cy="802" r="8" class="c0"/>
<circle cx="974" cy="528" r="8" class="c0"/>
<circle cx="986" cy="1162" r="8" class="c0"/>
<circle cx="930" cy="896" r="8" class="c0"/>
<circle cx="1086" cy="1222" r="8" class="c0"/>
<circle cx="926" cy="1068" r="8" class="c0"/>
<circle cx="1048" cy="1020" r="8" class="c0"/>
<circle cx="904" cy="954" r="6" class="c0"/>
<circle cx="1002" cy="1268" r="6" class="c0"/>
<circle cx="984" cy="1038" r="6" class="c0"/>
<circle cx="910" cy="1100" r="6" class="c0"/>
<circle cx="992" cy="912" r="6" class="c0"/>
<circle cx="968" cy="676" r="6" class="c0"/>
<circle cx="932" cy="924" r="6" class="c0"/>
<circle cx="906" cy="922" r="6" class="c0"/>
<circle cx="906" cy="490" r="6" class="c0"/>
<circle cx="1024" cy="770" r="6" class="c0"/>
<circle cx="1026" cy="814" r="6" class="c0"/>
<circle cx="842" cy="592" r="6" class="c0"/>
<circle cx="1034" cy="1340" r="6" class="c0"/>
<circle cx="924" cy="780" r="6" class="c0"/>
<circle cx="968" cy="646" r="6" class="c0"/>
<circle cx="1016" cy="1128" r="6" class="c0"/>
<circle cx="960" cy="920" r="6" class="c0"/>
<circle cx="802" cy="570" r="6" class="c0"/>
<circle cx="1032" cy="1018" r="6" class="c0"/>
<circle cx="966" cy="876" r="6" class="c0"/>
<circle cx="846" cy="658" r="6" class="c0"/>
<circle cx="1008" cy="1112" r="6" class="c0"/>
<circle cx="966" cy="1286" r="6" class="c0"/>
<circle cx="990" cy="580" r="6" class="c0"/>
<circle cx="940" cy="1000" r="6" class="c0"/>
<circle cx="982" cy="1096" r="6" class="c0"/>
<circle cx="1042" cy="1332" r="6" class="c0"/>
<circle cx="952" cy="846" r="6" class="c0"/>
<circle cx="914" cy="850" r="6" class="c0"/>
<circle cx="876" cy="714" r="6" class="c0"/>
<circle cx="1046" cy="1102" r="6" class="c0"/>
<circle cx="854" cy="712" r="6" class="c0"/>
<circle cx="1054" cy="1170" r="6" class="c0"/>
<circle cx="1048" cy="944" r="6" class="c0"/>
<circle cx="822" cy="556" r="6" class="c0"/>
<circle cx="914" cy="750" r="6" class="c0"/>
<circle cx="1016" cy="890" r="6" class="c0"/>
<circle cx="758" cy="358" r="6" class="c0"/>
<circle cx="1000" cy="656" r="6" class="c0"/>
<circle cx="1054" cy="1322" r="6" class="c0"/>
<circle cx="956" cy="690" r="6" class="c0"/>
<circle cx="1022" cy="622" r="6" class="c0"/>
<circle cx="854" cy="762" r="6" class="c0"/>
<circle cx="1070" cy="1270" r="6" class="c0"/>
<circle cx="1016" cy="1070" r="6" class="c0"/>
<circle cx="818" cy="516" r="6" class="c0"/>
<circle cx="906" cy="622" r="6" class="c0"/>
<circle cx="768" cy="414" r="6" class="c0"/>
<circle cx="924" cy="548" r="6" class="c0"/>
<circle cx="992" cy="1022" r="6" class="c0"/>
<circle cx="986" cy="1132" r="6" class="c0"/>
<circle cx="958" cy="868" r="6" class="c0"/>
<circle cx="1028" cy="1228" r="6" class="c0"/>
<circle cx="1016" cy="712" r="6" class="c0"/>
<circle cx="1000" cy="950" r="6" class="c0"/>
<circle cx="986" cy="706" r="6" class="c0"/>
<circle cx="980" cy="840" r="6" class="c0"/>
<circle cx="1004" cy="840" r="6" class="c0"/>
<circle cx="932" cy="1136" r="6" class="c0"/>
<circle cx="880" cy="560" r="6" class="c0"/>
<circle cx="1050" cy="1088" r="6" class="c0"/>
<circle cx="948" cy="744" r="6" class="c0"/>
<circle cx="906" cy="866" r="6" class="c0"/>
<circle cx="1022" cy="570" r="6" class="c0"/>
<circle cx="1018" cy="1168" r="6" class="c0"/>
<circle cx="982" cy="1218" r="6" class="c0"/>
<circle cx="868" cy="586" r="6" class="c0"/>
<circle cx="1084" cy="1240" r="6" class="c0"/>
<circle cx="1040" cy="1198" r="6" class="c0"/>
<circle cx="916" cy="462" r="6" class="c0"/>
<circle cx="994" cy="618" r="6" class="c0"/>
<circle cx="886" cy="986" r="6" class="c0"/>
<circle cx="1022" cy="752" r="6" class="c0"/>
<circle cx="1012" cy="1044" r="6" class="c0"/>
<circle cx="836" cy="616" r="6" class="c0"/>
<circle cx="952" cy="762" r="6" class="c0"/>
<circle cx="1024" cy="536" r="6" class="c0"/>
<circle cx="802" cy="536" r="6" class="c0"/>
<circle cx="914" cy="1036" r="6" class="c0"/>
<circle cx="796" cy="600" r="6" class="c0"/>
<circle cx="1022" cy="600" r="6" class="c0"/>
<circle cx="1006" cy="1062" r="6" class="c0"/>
<circle cx="994" cy="1148" r="6" class="c0"/>
<circle cx="894" cy="644" r="6" class="c0"/>
<circle cx="1080" cy="1288" r="6" class="c0"/>
<circle cx="950" cy="876" r="6" class="c0"/>
<circle cx="932" cy="772" r="6" class="c0"/>
<circle cx="938" cy="936" r="6" class="c0"/>
<circle cx="1060" cy="1334" r="6" class="c0"/>
<circle cx="994" cy="494" r="6" class="c0"/>
<circle cx="932" cy="846" r="6" class="c0"/>
<circle cx="1052" cy="1046" r="6" class="c0"/>
<circle cx="968" cy="790" r="6" class="c0"/>
<circle cx="1020" cy="1198" r="6" class="c0"/>
<circle cx="794" cy="562" r="6" class="c0"/>
<circle cx="1018" cy="806" r="6" class="c0"/>
<circle cx="868" cy="706" r="6" class="c0"/>
<circle cx="1026" cy="1354" r="6" class="c0"/>
<circle cx="1056" cy="1308" r="6" class="c0"/>
<circle cx="948" cy="1228" r="6" class="c0"/>
<circle cx="968" cy="1250" r="6" class="c0"/>
<circle cx="756" cy="336" r="6" class="c0"/>
<circle cx="938" cy="634" r="6" class="c0"/>
<circle cx="1030" cy="894" r="6" class="c0"/>
<circle cx="882" cy="806" r="6" class="c0"/>
<circle cx="1020" cy="1094" r="6" class="c0"/>
<circle cx="992" cy="1334" r="6" class="c0"/>
</svg>
