<?xml version="1.0" encoding="utf-8"?>
<svg xmlns="http://www.w3.org/2000/svg"
     xmlns:xlink="http://www.w3.org/1999/xlink" width="1920" height="1440" >

            <defs>
            <style type="text/css"><![CDATA[
circle {stroke: none;}
.c0 {fill: #000000;}
]]></style>
            </defs>
<rect x="0" y="0" width="1920" height="1440" fill="white"/>
<circle cx="1166" cy="980" r="14" class="c0"/>
<circle cx="1052" cy="696" r="12" class="c0"/>
<circle cx="1170" cy="444" r="12" class="c0"/>
<circle cx="1174" cy="904" r="12" class="c0"/>
<circle cx="1016" cy="660" r="12" class="c0"/>
<circle cx="1140" cy="1248" r="12" class="c0"/>
<circle cx="1012" cy="1348" r="12" class="c0"/>
<circle cx="1180" cy="752" r="12" class="c0"/>
<circle cx="1214" cy="902" r="12" class="c0"/>
<circle cx="1140" cy="488" r="12" class="c0"/>
<circle cx="1010" cy="1188" r="12" class="c0"/>
<circle cx="1140" cy="1302" r="12" class="c0"/>
<circle cx="1090" cy="1116" r="12" class="c0"/>
<circle cx="1102" cy="1250" r="12" class="c0"/>
<circle cx="1150" cy="922" r="12" class="c0"/>
<circle cx="1156" cy="1232" r="12" class="c0"/>
<circle cx="1142" cy="780" r="12" class="c0"/>
<circle cx="1002" cy="1092" r="12" class="c0"/>
<circle cx="1182" cy="1204" r="12" class="c0"/>
<circle cx="1064" cy="930" r="12" class="c0"/>
<circle cx="1198" cy="838" r="12" class="c0"/>
<circle cx="894" cy="634" r="12" class="c0"/>
<circle cx="1118" cy="1034" r="12" class="c0"/>
<circle cx="1138" cy="712" r="12" class="c0"/>
<circle cx="1110" cy="486" r="12" class="c0"/>
<circle cx="1194" cy="954" r="12" class="c0"/>
<circle cx="1212" cy="1112" r="12" class="c0"/>
<circle cx="1072" cy="490" r="12" class="c0"/>
<circle cx="1086" cy="858" r="12" class="c0"/>
<circle cx="1052" cy="638" r="12" class="c0"/>
<circle cx="1196" cy="874" r="12" class="c0"/>
<circle cx="1108" cy="606" r="12" class="c0"/>
<circle cx="922" cy="710" r="12" class="c0"/>
<circle cx="1178" cy="780" r="12" class="c0"/>
<circle cx="1080" cy="724" r="12" class="c0"/>
<circle cx="1160" cy="676" r="12" class="c0"/>
<circle cx="1014" cy="978" r="12" class="c0"/>
<circle cx="952" cy="718" r="10" class="c0"/>
<circle cx="1082" cy="1306" r="10" class="c0"/>
<circle cx="1142" cy="848" r="10" class="c0"/>
<circle cx="1116" cy="692" r="10" class="c0"/>
<circle cx="1104" cy="556" r="10" class="c0"/>
<circle cx="1074" cy="1188" r="10" class="c0"/>
<circle cx="1054" cy="766" r="10" class="c0"/>
<circle cx="1040" cy="992" r="10" class="c0"/>
<circle cx="1162" cy="1330" r="10" class="c0"/>
<circle cx="1132" cy="444" r="10" class="c0"/>
<circle cx="1150" cy="1204" r="10" class="c0"/>
<circle cx="1014" cy="488" r="10" class="c0"/>
<circle cx="980" cy="668" r="10" class="c0"/>
<circle cx="1180" cy="1348" r="10" class="c0"/>
<circle cx="998" cy="1116" r="10" class="c0"/>
<circle cx="1116" cy="930" r="10" class="c0"/>
<circle cx="1148" cy="1390" r="10" class="c0"/>
<circle cx="1046" cy="838" r="10" class="c0"/>
<circle cx="1032" cy="1086" r="10" class="c0"/>
<circle cx="1028" cy="1260" r="10" class="c0"/>
<circle cx="1198" cy="644" r="10" class="c0"/>
<circle cx="1164" cy="734" r="10" class="c0"/>
<circle cx="1004" cy="1242" r="10" class="c0"/>
<circle cx="1068" cy="808" r="10" class="c0"/>
<circle cx="1134" cy="1140" r="10" class="c0"/>
<circle cx="1026" cy="888" r="10" class="c0"/>
<circle cx="948" cy="782" r="10" class="c0"/>
<circle cx="1108" cy="1298" r="10" class="c0"/>
<circle cx="1124" cy="978" r="10" class="c0"/>
<circle cx="1070" cy="1260" r="10" class="c0"/>
<circle cx="1148" cy="1008" r="10" class="c0"/>
<circle cx="918" cy="658" r="10" class="c0"/>
<circle cx="1076" cy="664" r="10" class="c0"/>
<circle cx="1146" cy="630" r="10" class="c0"/>
<circle cx="1038" cy="1220" r="10" class="c0"/>
<circle cx="1180" cy="1146" r="10" class="c0"/>
<circle cx="1040" cy="1366" r="10" class="c0"/>
<circle cx="1058" cy="1092" r="10" class="c0"/>
<circle cx="1022" cy="1150" r="10" class="c0"/>
<circle cx="1162" cy="1106" r="10" class="c0"/>
<circle cx="1114" cy="434" r="10" class="c0"/>
<circle cx="1036" cy="528" r="10" class="c0"/>
<circle cx="1158" cy="644" r="10" class="c0"/>
<circle cx="1094" cy="972" r="10" class="c0"/>
<circle cx="1170" cy="1176" r="10" class="c0"/>
<circle cx="1114" cy="662" r="10" class="c0"/>
<circle cx="1106" cy="1328" r="10" class="c0"/>
<circle cx="1086" cy="628" r="10" class="c0"/>
<circle cx="1102" cy="832" r="10" class="c0"/>
<circle cx="1078" cy="1158" r="10" class="c0"/>
<circle cx="1148" cy="1038" r="10" class="c0"/>
<circle cx="1076" cy="1022" r="10" class="c0"/>
<circle cx="1184" cy="724" r="10" class="c0"/>
<circle cx="1208" cy="1404" r="10" class="c0"/>
<circle cx="1174" cy="536" r="10" class="c0"/>
<circle cx="1150" cy="820" r="10" class="c0"/>
<circle cx="1156" cy="508" r="10" class="c0"/>
<circle cx="1200" cy="994" r="10" class="c0"/>
<circle cx="1186" cy="1408" r="10" class="c0"/>
<circle cx="1138" cy="744" r="10" class="c0"/>
<circle cx="812" cy="376" r="10" class="c0"/>
<circle cx="1060" cy="892" r="10" class="c0"/>
<circle cx="1190" cy="1026" r="10" class="c0"/>
<circle cx="870" cy="518" r="10" class="c0"/>
<circle cx="1082" cy="552" r="10" class="c0"/>
<circle cx="1062" cy="1286" r="10" class="c0"/>
<circle cx="1210" cy="940" r="10" class="c0"/>
<circle cx="1006" cy="896" r="10" class="c0"/>
<circle cx="1198" cy="736" r="10" class="c0"/>
<circle cx="1126" cy="1190" r="10" class="c0"/>
<circle cx="1014" cy="1220" r="10" class="c0"/>
<circle cx="1020" cy="914" r="10" class="c0"/>
<circle cx="1136" cy="1056" r="10" class="c0"/>
<circle cx="1198" cy="1424" r="10" class="c0"/>
<circle cx="1020" cy="1030" r="10" class="c0"/>
<circle cx="1134" cy="568" r="10" class="c0"/>
<circle cx="1022" cy="624" r="10" class="c0"/>
<circle cx="1148" cy="584" r="10" class="c0"/>
<circle cx="1042" cy="808" r="10" class="c0"/>
<circle cx="1150" cy="1090" r="10" class="c0"/>
<circle cx="1012" cy="1312" r="10" class="c0"/>
<circle cx="1050" cy="1306" r="10" class="c0"/>
<circle cx="982" cy="1346" r="10" class="c0"/>
<circle cx="1194" cy="584" r="10" class="c0"/>
<circle cx="1196" cy="1384" r="10" class="c0"/>
<circle cx="988" cy="1302" r="10" class="c0"/>
<circle cx="1004" cy="678" r="10" class="c0"/>
<circle cx="904" cy="690" r="10" class="c0"/>
<circle cx="956" cy="804" r="10" class="c0"/>
<circle cx="1110" cy="866" r="10" class="c0"/>
<circle cx="1176" cy="470" r="10" class="c0"/>
<circle cx="946" cy="752" r="10" class="c0"/>
<circle cx="1080" cy="1228" r="10" class="c0"/>
<circle cx="1156" cy="556" r="10" class="c0"/>
<circle cx="1002" cy="644" r="10" class="c0"/>
<circle cx="1036" cy="1110" r="10" class="c0"/>
<circle cx="1048" cy="450" r="10" class="c0"/>
<circle cx="1082" cy="1068" r="10" class="c0"/>
<circle cx="1022" cy="942" r="10" class="c0"/>
<circle cx="1116" cy="1360" r="10" class="c0"/>
<circle cx="1014" cy="1128" r="10" class="c0"/>
<circle cx="1050" cy="1272" r="10" class="c0"/>
<circle cx="1168" cy="1380" r="10" class="c0"/>
<circle cx="1130" cy="594" r="10" class="c0"/>
<circle cx="1036" cy="744" r="10" class="c0"/>
<circle cx="1062" cy="1368" r="10" class="c0"/>
<circle cx="1106" cy="800" r="10" class="c0"/>
<circle cx="1068" cy="1342" r="10" class="c0"/>
<circle cx="1174" cy="1068" r="10" class="c0"/>
<circle cx="1200" cy="700" r="10" class="c0"/>
<circle cx="1198" cy="1234" r="10" class="c0"/>
<circle cx="1134" cy="650" r="10" class="c0"/>
<circle cx="1092" cy="1350" r="10" class="c0"/>
<circle cx="994" cy="940" r="10" class="c0"/>
<circle cx="1200" cy="674" r="10" class="c0"/>
<circle cx="1124" cy="902" r="10" class="c0"/>
<circle cx="1134" cy="1078" r="10" class="c0"/>
<circle cx="1200" cy="1292" r="10" class="c0"/>
<circle cx="1148" cy="886" r="10" class="c0"/>
<circle cx="1084" cy="698" r="10" class="c0"/>
<circle cx="1056" cy="1008" r="10" class="c0"/>
<circle cx="1072" cy="448" r="10" class="c0"/>
<circle cx="1138" cy="1348" r="10" class="c0"/>
<circle cx="1044" cy="1040" r="10" class="c0"/>
<circle cx="1202" cy="1194" r="10" class="c0"/>
<circle cx="1062" cy="1054" r="10" class="c0"/>
<circle cx="1104" cy="1392" r="10" class="c0"/>
<circle cx="1102" cy="942" r="10" class="c0"/>
<circle cx="1170" cy="1304" r="10" class="c0"/>
<circle cx="978" cy="632" r="10" class="c0"/>
<circle cx="1052" cy="1206" r="10" class="c0"/>
<circle cx="1050" cy="502" r="10" class="c0"/>
<circle cx="1084" cy="758" r="10" class="c0"/>
<circle cx="1138" cy="1116" r="10" class="c0"/>
<circle cx="1062" cy="964" r="8" class="c0"/>
<circle cx="1108" cy="1066" r="8" class="c0"/>
<circle cx="1130" cy="1212" r="8" class="c0"/>
<circle cx="1144" cy="542" r="8" class="c0"/>
<circle cx="1130" cy="1426" r="8" class="c0"/>
<circle cx="884" cy="608" r="8" class="c0"/>
<circle cx="1164" cy="484" r="8" class="c0"/>
<circle cx="954" cy="1320" r="8" class="c0"/>
<circle cx="1160" cy="1258" r="8" class="c0"/>
<circle cx="1060" cy="1144" r="8" class="c0"/>
<circle cx="990" cy="734" r="8" class="c0"/>
<circle cx="1058" cy="542" r="8" class="c0"/>
<circle cx="1088" cy="1048" r="8" class="c0"/>
<circle cx="1128" cy="810" r="8" class="c0"/>
<circle cx="922" cy="638" r="8" class="c0"/>
<circle cx="1196" cy="1174" r="8" class="c0"/>
<circle cx="1188" cy="932" r="8" class="c0"/>
<circle cx="1110" cy="1172" r="8" class="c0"/>
<circle cx="1178" cy="1228" r="8" class="c0"/>
<circle cx="994" cy="1366" r="8" class="c0"/>
<circle cx="1138" cy="1166" r="8" class="c0"/>
<circle cx="1142" cy="420" r="8" class="c0"/>
<circle cx="1102" cy="732" r="8" class="c0"/>
<circle cx="936" cy="798" r="8" class="c0"/>
<circle cx="932" cy="772" r="8" class="c0"/>
<circle cx="1040" cy="872" r="8" class="c0"/>
<circle cx="1182" cy="1008" r="8" class="c0"/>
<circle cx="924" cy="756" r="8" class="c0"/>
<circle cx="1164" cy="876" r="8" class="c0"/>
<circle cx="1112" cy="1134" r="8" class="c0"/>
<circle cx="1114" cy="1410" r="8" class="c0"/>
<circle cx="1080" cy="422" r="8" class="c0"/>
<circle cx="880" cy="554" r="8" class="c0"/>
<circle cx="976" cy="910" r="8" class="c0"/>
<circle cx="970" cy="732" r="8" class="c0"/>
<circle cx="1086" cy="1002" r="8" class="c0"/>
<circle cx="1166" cy="834" r="8" class="c0"/>
<circle cx="1014" cy="1006" r="8" class="c0"/>
<circle cx="1088" cy="890" r="8" class="c0"/>
<circle cx="1034" cy="1166" r="8" class="c0"/>
<circle cx="1020" cy="1072" r="8" class="c0"/>
<circle cx="962" cy="834" r="8" class="c0"/>
<circle cx="898" cy="718" r="8" class="c0"/>
<circle cx="1016" cy="1278" r="8" class="c0"/>
<circle cx="1194" cy="914" r="8" class="c0"/>
<circle cx="934" cy="628" r="8" class="c0"/>
<circle cx="1094" cy="502" r="8" class="c0"/>
<circle cx="1110" cy="1270" r="8" class="c0"/>
<circle cx="1040" cy="1328" r="8" class="c0"/>
<circle cx="1192" cy="1092" r="8" class="c0"/>
<circle cx="1098" cy="1190" r="8" class="c0"/>
<circle cx="908" cy="798" r="8" class="c0"/>
<circle cx="1134" cy="1374" r="8" class="c0"/>
<circle cx="898" cy="752" r="8" class="c0"/>
<circle cx="1202" cy="1062" r="8" class="c0"/>
<circle cx="816" cy="348" r="8" class="c0"/>
<circle cx="1176" cy="628" r="8" class="c0"/>
<circle cx="1072" cy="834" r="8" class="c0"/>
<circle cx="1026" cy="474" r="8" class="c0"/>
<circle cx="1050" cy="730" r="8" class="c0"/>
<circle cx="1044" cy="1394" r="8" class="c0"/>
<circle cx="1072" cy="684" r="8" class="c0"/>
<circle cx="1168" cy="1022" r="8" class="c0"/>
<circle cx="1178" cy="1120" r="8" class="c0"/>
<circle cx="970" cy="698" r="8" class="c0"/>
<circle cx="1002" cy="1058" r="8" class="c0"/>
<circle cx="1162" cy="796" r="8" class="c0"/>
<circle cx="952" cy="690" r="8" class="c0"/>
<circle cx="1206" cy="1156" r="8" class="c0"/>
<circle cx="846" cy="462" r="8" class="c0"/>
<circle cx="992" cy="1272" r="8" class="c0"/>
<circle cx="964" cy="1286" r="8" class="c0"/>
<circle cx="1142" cy="954" r="8" class="c0"/>
<circle cx="1108" cy="1008" r="8" class="c0"/>
<circle cx="1074" cy="572" r="8" class="c0"/>
<circle cx="1090" cy="1174" r="8" class="c0"/>
<circle cx="970" cy="866" r="8" class="c0"/>
<circle cx="1074" cy="980" r="8" class="c0"/>
<circle cx="1118" cy="746" r="8" class="c0"/>
<circle cx="1130" cy="864" r="8" class="c0"/>
<circle cx="1202" cy="762" r="8" class="c0"/>
<circle cx="1176" cy="562" r="8" class="c0"/>
<circle cx="1096" cy="672" r="8" class="c0"/>
<circle cx="1144" cy="1416" r="8" class="c0"/>
<circle cx="1080" cy="916" r="8" class="c0"/>
<circle cx="1040" cy="1290" r="8" class="c0"/>
<circle cx="1180" cy="658" r="8" class="c0"/>
<circle cx="916" cy="1258" r="8" class="c0"/>
<circle cx="1036" cy="928" r="8" class="c0"/>
<circle cx="1136" cy="1278" r="8" class="c0"/>
<circle cx="842" cy="436" r="8" class="c0"/>
<circle cx="1000" cy="918" r="8" class="c0"/>
<circle cx="1114" cy="574" r="8" class="c0"/>
<circle cx="1134" cy="680" r="8" class="c0"/>
<circle cx="966" cy="764" r="8" class="c0"/>
<circle cx="1040" cy="614" r="8" class="c0"/>
<circle cx="1000" cy="1330" r="8" class="c0"/>
<circle cx="1188" cy="498" r="8" class="c0"/>
<circle cx="1050" cy="668" r="8" class="c0"/>
<circle cx="1184" cy="608" r="8" class="c0"/>
<circle cx="1106" cy="462" r="8" class="c0"/>
<circle cx="1178" cy="808" r="8" class="c0"/>
<circle cx="958" cy="620" r="8" class="c0"/>
<circle cx="1112" cy="1210" r="8" class="c0"/>
<circle cx="1004" cy="1158" r="8" class="c0"/>
<circle cx="1138" cy="518" r="8" class="c0"/>
<circle cx="1176" cy="844" r="8" class="c0"/>
<circle cx="1060" cy="1236" r="8" class="c0"/>
<circle cx="940" cy="672" r="8" class="c0"/>
<circle cx="1198" cy="532" r="8" class="c0"/>
<circle cx="1158" cy="754" r="8" class="c0"/>
<circle cx="1030" cy="962" r="8" class="c0"/>
<circle cx="1110" cy="634" r="8" class="c0"/>
<circle cx="1204" cy="554" r="8" class="c0"/>
<circle cx="830" cy="396" r="8" class="c0"/>
<circle cx="1126" cy="504" r="8" class="c0"/>
<circle cx="1028" cy="1202" r="8" class="c0"/>
<circle cx="1194" cy="1258" r="8" class="c0"/>
<circle cx="1042" cy="946" r="8" class="c0"/>
<circle cx="1036" cy="1184" r="8" class="c0"/>
<circle cx="1174" cy="694" r="8" class="c0"/>
<circle cx="916" cy="608" r="8" class="c0"/>
<circle cx="796" cy="358" r="8" class="c0"/>
<circle cx="1014" cy="518" r="8" class="c0"/>
<circle cx="1100" cy="776" r="8" class="c0"/>
<circle cx="904" cy="776" r="8" class="c0"/>
<circle cx="1098" cy="1024" r="8" class="c0"/>
<circle cx="1034" cy="1014" r="8" class="c0"/>
<circle cx="1118" cy="536" r="8" class="c0"/>
<circle cx="1080" cy="530" r="8" class="c0"/>
<circle cx="1062" cy="468" r="8" class="c0"/>
<circle cx="1028" cy="686" r="8" class="c0"/>
<circle cx="1004" cy="714" r="8" class="c0"/>
<circle cx="1220" cy="1004" r="8" class="c0"/>
<circle cx="1012" cy="1374" r="8" class="c0"/>
<circle cx="958" cy="670" r="8" class="c0"/>
<circle cx="1194" cy="1132" r="8" class="c0"/>
<circle cx="980" cy="880" r="8" class="c0"/>
<circle cx="1172" cy="942" r="8" class="c0"/>
<circle cx="888" cy="578" r="8" class="c0"/>
<circle cx="1224" cy="956" r="8" class="c0"/>
<circle cx="1124" cy="828" r="8" class="c0"/>
<circle cx="1178" cy="1038" r="8" class="c0"/>
<circle cx="1092" cy="648" r="8" class="c0"/>
<circle cx="1088" cy="594" r="8" class="c0"/>
<circle cx="1156" cy="1430" r="8" class="c0"/>
<circle cx="1134" cy="1406" r="8" class="c0"/>
<circle cx="1074" cy="642" r="8" class="c0"/>
<circle cx="1048" cy="1248" r="8" class="c0"/>
<circle cx="1048" cy="1128" r="8" class="c0"/>
<circle cx="980" cy="856" r="8" class="c0"/>
<circle cx="1064" cy="614" r="8" class="c0"/>
<circle cx="1070" cy="1406" r="8" class="c0"/>
<circle cx="1114" cy="956" r="8" class="c0"/>
<circle cx="1116" cy="1088" r="8" class="c0"/>
<circle cx="1164" cy="1414" r="8" class="c0"/>
<circle cx="908" cy="742" r="8" class="c0"/>
<circle cx="1128" cy="464" r="8" class="c0"/>
<circle cx="1152" cy="462" r="8" class="c0"/>
<circle cx="1134" cy="996" r="8" class="c0"/>
<circle cx="1044" cy="782" r="8" class="c0"/>
<circle cx="1070" cy="786" r="8" class="c0"/>
<circle cx="1104" cy="910" r="8" class="c0"/>
<circle cx="1122" cy="1238" r="8" class="c0"/>
<circle cx="1048" cy="560" r="8" class="c0"/>
<circle cx="1100" cy="1154" r="8" class="c0"/>
<circle cx="1110" cy="712" r="8" class="c0"/>
<circle cx="1224" cy="984" r="8" class="c0"/>
<circle cx="1022" cy="1390" r="8" class="c0"/>
<circle cx="1068" cy="1126" r="8" class="c0"/>
<circle cx="998" cy="1210" r="8" class="c0"/>
<circle cx="1030" cy="604" r="8" class="c0"/>
<circle cx="902" cy="668" r="8" class="c0"/>
<circle cx="1210" cy="1020" r="8" class="c0"/>
<circle cx="856" cy="496" r="8" class="c0"/>
<circle cx="1062" cy="514" r="8" class="c0"/>
<circle cx="994" cy="1148" r="8" class="c0"/>
<circle cx="1194" cy="798" r="8" class="c0"/>
<circle cx="1092" cy="1088" r="8" class="c0"/>
<circle cx="1064" cy="856" r="8" class="c0"/>
<circle cx="1068" cy="742" r="8" class="c0"/>
<circle cx="1032" cy="710" r="8" class="c0"/>
<circle cx="1160" cy="1142" r="8" class="c0"/>
<circle cx="1080" cy="1422" r="8" class="c0"/>
<circle cx="1090" cy="1272" r="8" class="c0"/>
<circle cx="1030" cy="1418" r="8" class="c0"/>
<circle cx="1052" cy="1172" r="8" class="c0"/>
<circle cx="1182" cy="1284" r="8" class="c0"/>
<circle cx="1186" cy="518" r="8" class="c0"/>
<circle cx="932" cy="730" r="8" class="c0"/>
<circle cx="1174" cy="592" r="8" class="c0"/>
<circle cx="1132" cy="1324" r="8" class="c0"/>
<circle cx="1158" cy="1362" r="8" class="c0"/>
<circle cx="1060" cy="716" r="8" class="c0"/>
<circle cx="1196" cy="622" r="8" class="c0"/>
<circle cx="1104" cy="516" r="8" class="c0"/>
<circle cx="1080" cy="1330" r="8" class="c0"/>
<circle cx="948" cy="1300" r="8" class="c0"/>
<circle cx="978" cy="750" r="8" class="c0"/>
<circle cx="816" cy="406" r="8" class="c0"/>
<circle cx="1042" cy="484" r="8" class="c0"/>
<circle cx="924" cy="788" r="8" class="c0"/>
<circle cx="1086" cy="1382" r="8" class="c0"/>
<circle cx="1082" cy="824" r="8" class="c0"/>
<circle cx="1038" cy="656" r="8" class="c0"/>
<circle cx="1206" cy="1082" r="8" class="c0"/>
<circle cx="1088" cy="464" r="8" class="c0"/>
<circle cx="1124" cy="1394" r="8" class="c0"/>
<circle cx="924" cy="814" r="8" class="c0"/>
<circle cx="1106" cy="886" r="8" class="c0"/>
<circle cx="966" cy="648" r="8" class="c0"/>
<circle cx="832" cy="426" r="8" class="c0"/>
<circle cx="1012" cy="1420" r="8" class="c0"/>
<circle cx="988" cy="1180" r="8" class="c0"/>
<circle cx="1116" cy="844" r="8" class="c0"/>
<circle cx="1122" cy="1314" r="8" class="c0"/>
<circle cx="1182" cy="1102" r="8" class="c0"/>
<circle cx="1054" cy="1420" r="8" class="c0"/>
<circle cx="1210" cy="724" r="8" class="c0"/>
<circle cx="1206" cy="606" r="8" class="c0"/>
<circle cx="1160" cy="1054" r="8" class="c0"/>
<circle cx="1048" cy="910" r="8" class="c0"/>
<circle cx="1162" cy="714" r="8" class="c0"/>
<circle cx="1022" cy="1050" r="8" class="c0"/>
<circle cx="1042" cy="1346" r="8" class="c0"/>
<circle cx="1026" cy="504" r="8" class="c0"/>
<circle cx="978" cy="1246" r="8" class="c0"/>
<circle cx="898" cy="598" r="8" class="c0"/>
<circle cx="1072" cy="952" r="8" class="c0"/>
<circle cx="1164" cy="1276" r="8" class="c0"/>
<circle cx="1066" cy="592" r="8" class="c0"/>
<circle cx="1038" cy="1060" r="8" class="c0"/>
<circle cx="1036" cy="462" r="8" class="c0"/>
<circle cx="1206" cy="1340" r="8" class="c0"/>
<circle cx="1154" cy="610" r="8" class="c0"/>
<circle cx="1130" cy="618" r="8" class="c0"/>
<circle cx="982" cy="716" r="8" class="c0"/>
<circle cx="992" cy="692" r="8" class="c0"/>
<circle cx="1062" cy="432" r="8" class="c0"/>
<circle cx="1062" cy="1318" r="8" class="c0"/>
<circle cx="1098" cy="1220" r="8" class="c0"/>
<circle cx="978" cy="1320" r="8" class="c0"/>
<circle cx="1148" cy="1180" r="8" class="c0"/>
<circle cx="1206" cy="972" r="8" class="c0"/>
<circle cx="1166" cy="856" r="8" class="c0"/>
<circle cx="1096" cy="446" r="8" class="c0"/>
<circle cx="1086" cy="796" r="8" class="c0"/>
<circle cx="1026" cy="1238" r="8" class="c0"/>
<circle cx="1110" cy="1108" r="8" class="c0"/>
<circle cx="1036" cy="1140" r="6" class="c0"/>
<circle cx="1088" cy="1144" r="6" class="c0"/>
<circle cx="1030" cy="548" r="6" class="c0"/>
<circle cx="966" cy="786" r="6" class="c0"/>
<circle cx="1220" cy="1256" r="6" class="c0"/>
<circle cx="1152" cy="1126" r="6" class="c0"/>
<circle cx="1182" cy="1164" r="6" class="c0"/>
<circle cx="1020" cy="538" r="6" class="c0"/>
<circle cx="1022" cy="1332" r="6" class="c0"/>
<circle cx="1204" cy="1268" r="6" class="c0"/>
<circle cx="1078" cy="1210" r="6" class="c0"/>
<circle cx="1150" cy="1268" r="6" class="c0"/>
<circle cx="1194" cy="1320" r="6" class="c0"/>
<circle cx="1006" cy="1042" r="6" class="c0"/>
<circle cx="1104" cy="988" r="6" class="c0"/>
<circle cx="936" cy="698" r="6" class="c0"/>
<circle cx="1114" cy="762" r="6" class="c0"/>
<circle cx="984" cy="1222" r="6" class="c0"/>
<circle cx="954" cy="1276" r="6" class="c0"/>
<circle cx="1142" cy="666" r="6" class="c0"/>
<circle cx="1096" cy="1136" r="6" class="c0"/>
<circle cx="1218" cy="1422" r="6" class="c0"/>
<circle cx="944" cy="648" r="6" class="c0"/>
<circle cx="1178" cy="1252" r="6" class="c0"/>
<circle cx="1126" cy="1268" r="6" class="c0"/>
<circle cx="1004" cy="962" r="6" class="c0"/>
<circle cx="1212" cy="576" r="6" class="c0"/>
<circle cx="1222" cy="1146" r="6" class="c0"/>
<circle cx="1216" cy="594" r="6" class="c0"/>
<circle cx="846" cy="486" r="6" class="c0"/>
<circle cx="1120" cy="784" r="6" class="c0"/>
<circle cx="1130" cy="882" r="6" class="c0"/>
<circle cx="1104" cy="412" r="6" class="c0"/>
<circle cx="1030" cy="1314" r="6" class="c0"/>
<circle cx="1216" cy="882" r="6" class="c0"/>
<circle cx="1072" cy="1040" r="6" class="c0"/>
<circle cx="1092" cy="568" r="6" class="c0"/>
<circle cx="872" cy="540" r="6" class="c0"/>
<circle cx="1016" cy="696" r="6" class="c0"/>
<circle cx="1216" cy="656" r="6" class="c0"/>
<circle cx="1126" cy="946" r="6" class="c0"/>
<circle cx="1130" cy="1018" r="6" class="c0"/>
<circle cx="1216" cy="1240" r="6" class="c0"/>
<circle cx="922" cy="678" r="6" class="c0"/>
<circle cx="1090" cy="928" r="6" class="c0"/>
<circle cx="1158" cy="960" r="6" class="c0"/>
<circle cx="1122" cy="728" r="6" class="c0"/>
<circle cx="1116" cy="1152" r="6" class="c0"/>
<circle cx="1036" cy="768" r="6" class="c0"/>
<circle cx="1176" cy="1424" r="6" class="c0"/>
<circle cx="1126" cy="414" r="6" class="c0"/>
<circle cx="968" cy="1334" r="6" class="c0"/>
<circle cx="1058" cy="1030" r="6" class="c0"/>
<circle cx="970" cy="894" r="6" class="c0"/>
<circle cx="1076" cy="604" r="6" class="c0"/>
<circle cx="1002" cy="1260" r="6" class="c0"/>
<circle cx="1054" cy="1070" r="6" class="c0"/>
<circle cx="980" cy="930" r="6" class="c0"/>
<circle cx="1154" cy="1314" r="6" class="c0"/>
<circle cx="968" cy="680" r="6" class="c0"/>
<circle cx="1048" cy="972" r="6" class="c0"/>
<circle cx="1148" cy="1152" r="6" class="c0"/>
<circle cx="1204" cy="1038" r="6" class="c0"/>
<circle cx="1102" cy="586" r="6" class="c0"/>
<circle cx="1056" cy="820" r="6" class="c0"/>
<circle cx="1088" cy="1404" r="6" class="c0"/>
<circle cx="1088" cy="1288" r="6" class="c0"/>
<circle cx="1134" cy="938" r="6" class="c0"/>
<circle cx="1186" cy="822" r="6" class="c0"/>
<circle cx="984" cy="1158" r="6" class="c0"/>
<circle cx="1062" cy="1392" r="6" class="c0"/>
<circle cx="1200" cy="1212" r="6" class="c0"/>
<circle cx="1002" cy="1022" r="6" class="c0"/>
<circle cx="1166" cy="1194" r="6" class="c0"/>
<circle cx="1068" cy="876" r="6" class="c0"/>
<circle cx="1102" cy="1372" r="6" class="c0"/>
<circle cx="1094" cy="540" r="6" class="c0"/>
<circle cx="1130" cy="1096" r="6" class="c0"/>
<circle cx="1096" cy="420" r="6" class="c0"/>
<circle cx="1172" cy="1092" r="6" class="c0"/>
<circle cx="1072" cy="1082" r="6" class="c0"/>
<circle cx="1024" cy="1296" r="6" class="c0"/>
<circle cx="1056" cy="576" r="6" class="c0"/>
<circle cx="1148" cy="866" r="6" class="c0"/>
<circle cx="1126" cy="1288" r="6" class="c0"/>
<circle cx="1186" cy="858" r="6" class="c0"/>
<circle cx="1150" cy="692" r="6" class="c0"/>
<circle cx="1146" cy="972" r="6" class="c0"/>
<circle cx="952" cy="636" r="6" class="c0"/>
<circle cx="1200" cy="816" r="6" class="c0"/>
<circle cx="1214" cy="1302" r="6" class="c0"/>
<circle cx="1212" cy="626" r="6" class="c0"/>
<circle cx="986" cy="1200" r="6" class="c0"/>
<circle cx="1206" cy="858" r="6" class="c0"/>
<circle cx="954" cy="736" r="6" class="c0"/>
<circle cx="1066" cy="994" r="6" class="c0"/>
<circle cx="892" cy="736" r="6" class="c0"/>
<circle cx="934" cy="1284" r="6" class="c0"/>
<circle cx="1010" cy="928" r="6" class="c0"/>
<circle cx="830" cy="446" r="6" class="c0"/>
<circle cx="1096" cy="1420" r="6" class="c0"/>
<circle cx="1122" cy="1336" r="6" class="c0"/>
<circle cx="1192" cy="1072" r="6" class="c0"/>
<circle cx="1192" cy="1048" r="6" class="c0"/>
<circle cx="1134" cy="762" r="6" class="c0"/>
<circle cx="1164" cy="1214" r="6" class="c0"/>
<circle cx="1190" cy="980" r="6" class="c0"/>
<circle cx="1218" cy="1092" r="6" class="c0"/>
<circle cx="1042" cy="856" r="6" class="c0"/>
<circle cx="1102" cy="754" r="6" class="c0"/>
<circle cx="996" cy="882" r="6" class="c0"/>
<circle cx="1202" cy="506" r="6" class="c0"/>
<circle cx="1112" cy="1432" r="6" class="c0"/>
<circle cx="1154" cy="1164" r="6" class="c0"/>
<circle cx="1000" cy="1288" r="6" class="c0"/>
<circle cx="1130" cy="920" r="6" class="c0"/>
<circle cx="1128" cy="550" r="6" class="c0"/>
<circle cx="1128" cy="792" r="6" class="c0"/>
<circle cx="1172" cy="924" r="6" class="c0"/>
<circle cx="1152" cy="436" r="6" class="c0"/>
<circle cx="942" cy="614" r="6" class="c0"/>
<circle cx="1166" cy="1006" r="6" class="c0"/>
<circle cx="1140" cy="800" r="6" class="c0"/>
<circle cx="1074" cy="1102" r="6" class="c0"/>
<circle cx="1186" cy="550" r="6" class="c0"/>
<circle cx="928" cy="690" r="6" class="c0"/>
<circle cx="1084" cy="1366" r="6" class="c0"/>
<circle cx="1014" cy="1168" r="6" class="c0"/>
<circle cx="1096" cy="814" r="6" class="c0"/>
<circle cx="1066" cy="1216" r="6" class="c0"/>
<circle cx="1086" cy="1200" r="6" class="c0"/>
<circle cx="1194" cy="480" r="6" class="c0"/>
<circle cx="1152" cy="1072" r="6" class="c0"/>
<circle cx="1194" cy="1360" r="6" class="c0"/>
<circle cx="1156" cy="530" r="6" class="c0"/>
<circle cx="1026" cy="644" r="6" class="c0"/>
<circle cx="856" cy="474" r="6" class="c0"/>
<circle cx="1112" cy="818" r="6" class="c0"/>
<circle cx="1192" cy="896" r="6" class="c0"/>
<circle cx="1054" cy="796" r="6" class="c0"/>
<circle cx="1166" cy="574" r="6" class="c0"/>
<circle cx="1214" cy="1132" r="6" class="c0"/>
<circle cx="990" cy="868" r="6" class="c0"/>
<circle cx="1084" cy="778" r="6" class="c0"/>
<circle cx="1088" cy="954" r="6" class="c0"/>
<circle cx="1050" cy="1156" r="6" class="c0"/>
<circle cx="1118" cy="1378" r="6" class="c0"/>
<circle cx="908" cy="622" r="6" class="c0"/>
<circle cx="1058" cy="1114" r="6" class="c0"/>
<circle cx="1112" cy="1228" r="6" class="c0"/>
<circle cx="936" cy="656" r="6" class="c0"/>
<circle cx="1082" cy="514" r="6" class="c0"/>
<circle cx="1176" cy="508" r="6" class="c0"/>
<circle cx="966" cy="1302" r="6" class="c0"/>
<circle cx="1194" cy="564" r="6" class="c0"/>
<circle cx="1052" cy="602" r="6" class="c0"/>
<circle cx="1186" cy="1312" r="6" class="c0"/>
<circle cx="1120" cy="520" r="6" class="c0"/>
<circle cx="986" cy="896" r="6" class="c0"/>
<circle cx="972" cy="1268" r="6" class="c0"/>
<circle cx="1100" cy="1282" r="6" class="c0"/>
<circle cx="1082" cy="1248" r="6" class="c0"/>
<circle cx="1152" cy="1286" r="6" class="c0"/>
<circle cx="1056" cy="982" r="6" class="c0"/>
<circle cx="1122" cy="770" r="6" class="c0"/>
<circle cx="1152" cy="944" r="6" class="c0"/>
<circle cx="1184" cy="1370" r="6" class="c0"/>
<circle cx="1184" cy="684" r="6" class="c0"/>
<circle cx="824" cy="362" r="6" class="c0"/>
<circle cx="874" cy="570" r="6" class="c0"/>
<circle cx="1218" cy="922" r="6" class="c0"/>
<circle cx="1118" cy="998" r="6" class="c0"/>
<circle cx="1220" cy="1272" r="6" class="c0"/>
<circle cx="970" cy="820" r="6" class="c0"/>
<circle cx="1212" cy="1176" r="6" class="c0"/>
<circle cx="1078" cy="1136" r="6" class="c0"/>
<circle cx="1212" cy="686" r="6" class="c0"/>
<circle cx="1160" cy="770" r="6" class="c0"/>
<circle cx="1064" cy="652" r="6" class="c0"/>
<circle cx="1064" cy="562" r="6" class="c0"/>
<circle cx="914" cy="766" r="6" class="c0"/>
<circle cx="1016" cy="1108" r="6" class="c0"/>
<circle cx="1104" cy="1046" r="6" class="c0"/>
<circle cx="860" cy="532" r="6" class="c0"/>
<circle cx="1180" cy="966" r="6" class="c0"/>
<circle cx="906" cy="816" r="6" class="c0"/>
<circle cx="1208" cy="1318" r="6" class="c0"/>
<circle cx="1096" cy="876" r="6" class="c0"/>
<circle cx="1082" cy="942" r="6" class="c0"/>
<circle cx="1198" cy="778" r="6" class="c0"/>
<circle cx="1136" cy="1228" r="6" class="c0"/>
<circle cx="1070" cy="1432" r="6" class="c0"/>
<circle cx="1038" cy="900" r="6" class="c0"/>
<circle cx="1116" cy="452" r="6" class="c0"/>
<circle cx="990" cy="1132" r="6" class="c0"/>
<circle cx="1054" cy="1188" r="6" class="c0"/>
<circle cx="1030" cy="726" r="6" class="c0"/>
<circle cx="1176" cy="866" r="6" class="c0"/>
<circle cx="1216" cy="640" r="6" class="c0"/>
<circle cx="976" cy="774" r="6" class="c0"/>
<circle cx="1168" cy="818" r="6" class="c0"/>
<circle cx="932" cy="606" r="6" class="c0"/>
<circle cx="1160" cy="428" r="6" class="c0"/>
<circle cx="1176" cy="1266" r="6" class="c0"/>
<circle cx="980" cy="1282" r="6" class="c0"/>
<circle cx="984" cy="650" r="6" class="c0"/>
<circle cx="1056" cy="870" r="6" class="c0"/>
<circle cx="1216" cy="1224" r="6" class="c0"/>
<circle cx="1076" cy="900" r="6" class="c0"/>
<circle cx="1184" cy="888" r="6" class="c0"/>
<circle cx="1054" cy="1384" r="6" class="c0"/>
<circle cx="992" cy="1230" r="6" class="c0"/>
<circle cx="1022" cy="1364" r="6" class="c0"/>
<circle cx="900" cy="614" r="6" class="c0"/>
<circle cx="1166" cy="1398" r="6" class="c0"/>
<circle cx="1002" cy="1384" r="6" class="c0"/>
<circle cx="1170" cy="1244" r="6" class="c0"/>
<circle cx="1020" cy="1406" r="6" class="c0"/>
<circle cx="1226" cy="1430" r="6" class="c0"/>
<circle cx="1102" cy="532" r="6" class="c0"/>
</svg>
