<?xml version="1.0" encoding="utf-8"?>
<svg xmlns="http://www.w3.org/2000/svg"
     xmlns:xlink="http://www.w3.org/1999/xlink" width="1920" height="1440" >

            <defs>
            <style type="text/css"><![CDATA[
circle {stroke: none;}
.c0 {fill: #000000;}
]]></style>
            </defs>
<rect x="0" y="0" width="1920" height="1440" fill="white"/>
<circle cx="1172" cy="1200" r="12" class="c0"/>
<circle cx="1208" cy="500" r="12" class="c0"/>
<circle cx="1122" cy="1068" r="12" class="c0"/>
<circle cx="954" cy="850" r="12" class="c0"/>
<circle cx="1118" cy="1366" r="12" class="c0"/>
<circle cx="1104" cy="1286" r="12" class="c0"/>
<circle cx="1086" cy="484" r="12" class="c0"/>
<circle cx="1052" cy="1082" r="12" class="c0"/>
<circle cx="928" cy="752" r="12" class="c0"/>
<circle cx="1194" cy="794" r="12" class="c0"/>
<circle cx="948" cy="670" r="12" class="c0"/>
<circle cx="1014" cy="1322" r="12" class="c0"/>
<circle cx="1066" cy="906" r="12" class="c0"/>
<circle cx="1164" cy="424" r="12" class="c0"/>
<circle cx="1156" cy="544" r="12" class="c0"/>
<circle cx="1062" cy="476" r="12" class="c0"/>
<circle cx="1034" cy="514" r="12" class="c0"/>
<circle cx="1186" cy="718" r="12" class="c0"/>
<circle cx="1060" cy="932" r="12" class="c0"/>
<circle cx="1112" cy="1112" r="12" class="c0"/>
<circle cx="1134" cy="962" r="12" class="c0"/>
<circle cx="950" cy="710" r="12" class="c0"/>
<circle cx="1158" cy="850" r="12" class="c0"/>
<circle cx="1050" cy="1264" r="12" class="c0"/>
<circle cx="1126" cy="1042" r="12" class="c0"/>
<circle cx="1038" cy="1008" r="12" class="c0"/>
<circle cx="1198" cy="898" r="12" class="c0"/>
<circle cx="1106" cy="666" r="12" class="c0"/>
<circle cx="1206" cy="554" r="12" class="c0"/>
<circle cx="1016" cy="912" r="12" class="c0"/>
<circle cx="1090" cy="1070" r="12" class="c0"/>
<circle cx="1162" cy="744" r="12" class="c0"/>
<circle cx="1148" cy="990" r="12" class="c0"/>
<circle cx="1008" cy="1424" r="12" class="c0"/>
<circle cx="1082" cy="1170" r="12" class="c0"/>
<circle cx="1200" cy="586" r="12" class="c0"/>
<circle cx="1124" cy="1202" r="12" class="c0"/>
<circle cx="1200" cy="848" r="12" class="c0"/>
<circle cx="1204" cy="1182" r="12" class="c0"/>
<circle cx="1076" cy="1026" r="12" class="c0"/>
<circle cx="1176" cy="830" r="10" class="c0"/>
<circle cx="1102" cy="728" r="10" class="c0"/>
<circle cx="1170" cy="786" r="10" class="c0"/>
<circle cx="1088" cy="1144" r="10" class="c0"/>
<circle cx="1200" cy="1242" r="10" class="c0"/>
<circle cx="1084" cy="674" r="10" class="c0"/>
<circle cx="1212" cy="658" r="10" class="c0"/>
<circle cx="1180" cy="438" r="10" class="c0"/>
<circle cx="1164" cy="1312" r="10" class="c0"/>
<circle cx="1024" cy="1288" r="10" class="c0"/>
<circle cx="1168" cy="666" r="10" class="c0"/>
<circle cx="962" cy="690" r="10" class="c0"/>
<circle cx="970" cy="634" r="10" class="c0"/>
<circle cx="1146" cy="728" r="10" class="c0"/>
<circle cx="902" cy="722" r="10" class="c0"/>
<circle cx="1194" cy="938" r="10" class="c0"/>
<circle cx="1060" cy="638" r="10" class="c0"/>
<circle cx="946" cy="902" r="10" class="c0"/>
<circle cx="1112" cy="890" r="10" class="c0"/>
<circle cx="1174" cy="994" r="10" class="c0"/>
<circle cx="1196" cy="696" r="10" class="c0"/>
<circle cx="1086" cy="638" r="10" class="c0"/>
<circle cx="1150" cy="1282" r="10" class="c0"/>
<circle cx="912" cy="806" r="10" class="c0"/>
<circle cx="1092" cy="1216" r="10" class="c0"/>
<circle cx="1012" cy="1082" r="10" class="c0"/>
<circle cx="1160" cy="962" r="10" class="c0"/>
<circle cx="1024" cy="1186" r="10" class="c0"/>
<circle cx="1120" cy="824" r="10" class="c0"/>
<circle cx="1230" cy="710" r="10" class="c0"/>
<circle cx="1076" cy="436" r="10" class="c0"/>
<circle cx="1068" cy="1214" r="10" class="c0"/>
<circle cx="1080" cy="1240" r="10" class="c0"/>
<circle cx="1130" cy="1302" r="10" class="c0"/>
<circle cx="1196" cy="1016" r="10" class="c0"/>
<circle cx="1050" cy="612" r="10" class="c0"/>
<circle cx="1180" cy="760" r="10" class="c0"/>
<circle cx="1166" cy="644" r="10" class="c0"/>
<circle cx="996" cy="674" r="10" class="c0"/>
<circle cx="1082" cy="1326" r="10" class="c0"/>
<circle cx="1032" cy="1226" r="10" class="c0"/>
<circle cx="1154" cy="1020" r="10" class="c0"/>
<circle cx="1122" cy="1016" r="10" class="c0"/>
<circle cx="1086" cy="764" r="10" class="c0"/>
<circle cx="1212" cy="1028" r="10" class="c0"/>
<circle cx="1072" cy="850" r="10" class="c0"/>
<circle cx="1094" cy="970" r="10" class="c0"/>
<circle cx="1064" cy="874" r="10" class="c0"/>
<circle cx="1082" cy="1092" r="10" class="c0"/>
<circle cx="1176" cy="1140" r="10" class="c0"/>
<circle cx="960" cy="750" r="10" class="c0"/>
<circle cx="1222" cy="1108" r="10" class="c0"/>
<circle cx="1154" cy="880" r="10" class="c0"/>
<circle cx="1104" cy="1258" r="10" class="c0"/>
<circle cx="1116" cy="936" r="10" class="c0"/>
<circle cx="1182" cy="470" r="10" class="c0"/>
<circle cx="1024" cy="1040" r="10" class="c0"/>
<circle cx="950" cy="772" r="10" class="c0"/>
<circle cx="1008" cy="720" r="10" class="c0"/>
<circle cx="812" cy="342" r="10" class="c0"/>
<circle cx="918" cy="708" r="10" class="c0"/>
<circle cx="1040" cy="1320" r="10" class="c0"/>
<circle cx="1090" cy="878" r="10" class="c0"/>
<circle cx="1158" cy="1398" r="10" class="c0"/>
<circle cx="1110" cy="1342" r="10" class="c0"/>
<circle cx="1224" cy="1330" r="10" class="c0"/>
<circle cx="1198" cy="646" r="10" class="c0"/>
<circle cx="1136" cy="1168" r="10" class="c0"/>
<circle cx="1224" cy="1136" r="10" class="c0"/>
<circle cx="1184" cy="1052" r="10" class="c0"/>
<circle cx="1136" cy="702" r="10" class="c0"/>
<circle cx="1220" cy="626" r="10" class="c0"/>
<circle cx="1196" cy="1294" r="10" class="c0"/>
<circle cx="1064" cy="1406" r="10" class="c0"/>
<circle cx="1094" cy="942" r="10" class="c0"/>
<circle cx="1006" cy="1208" r="10" class="c0"/>
<circle cx="1214" cy="1054" r="10" class="c0"/>
<circle cx="1110" cy="568" r="10" class="c0"/>
<circle cx="1036" cy="1202" r="10" class="c0"/>
<circle cx="1008" cy="1254" r="10" class="c0"/>
<circle cx="1188" cy="534" r="10" class="c0"/>
<circle cx="1058" cy="534" r="10" class="c0"/>
<circle cx="1102" cy="784" r="10" class="c0"/>
<circle cx="848" cy="428" r="10" class="c0"/>
<circle cx="1232" cy="1170" r="10" class="c0"/>
<circle cx="1138" cy="428" r="10" class="c0"/>
<circle cx="1228" cy="742" r="10" class="c0"/>
<circle cx="934" cy="800" r="10" class="c0"/>
<circle cx="1024" cy="1154" r="10" class="c0"/>
<circle cx="1118" cy="748" r="10" class="c0"/>
<circle cx="1074" cy="706" r="10" class="c0"/>
<circle cx="1112" cy="1398" r="10" class="c0"/>
<circle cx="902" cy="604" r="10" class="c0"/>
<circle cx="1166" cy="1102" r="10" class="c0"/>
<circle cx="1052" cy="1300" r="10" class="c0"/>
<circle cx="1050" cy="1056" r="10" class="c0"/>
<circle cx="1054" cy="1424" r="10" class="c0"/>
<circle cx="1174" cy="1282" r="10" class="c0"/>
<circle cx="1206" cy="744" r="10" class="c0"/>
<circle cx="1108" cy="528" r="10" class="c0"/>
<circle cx="1114" cy="456" r="10" class="c0"/>
<circle cx="892" cy="580" r="10" class="c0"/>
<circle cx="852" cy="470" r="10" class="c0"/>
<circle cx="1014" cy="694" r="10" class="c0"/>
<circle cx="924" cy="656" r="10" class="c0"/>
<circle cx="1080" cy="1050" r="10" class="c0"/>
<circle cx="964" cy="918" r="10" class="c0"/>
<circle cx="1142" cy="1110" r="10" class="c0"/>
<circle cx="972" cy="1340" r="10" class="c0"/>
<circle cx="1162" cy="1078" r="10" class="c0"/>
<circle cx="1232" cy="1222" r="10" class="c0"/>
<circle cx="1034" cy="630" r="10" class="c0"/>
<circle cx="982" cy="902" r="10" class="c0"/>
<circle cx="1102" cy="856" r="10" class="c0"/>
<circle cx="1088" cy="586" r="10" class="c0"/>
<circle cx="1140" cy="834" r="10" class="c0"/>
<circle cx="1154" cy="572" r="10" class="c0"/>
<circle cx="1162" cy="1238" r="10" class="c0"/>
<circle cx="1054" cy="498" r="10" class="c0"/>
<circle cx="1170" cy="896" r="10" class="c0"/>
<circle cx="1120" cy="682" r="10" class="c0"/>
<circle cx="1184" cy="968" r="10" class="c0"/>
<circle cx="1054" cy="720" r="10" class="c0"/>
<circle cx="948" cy="630" r="10" class="c0"/>
<circle cx="1056" cy="996" r="10" class="c0"/>
<circle cx="1090" cy="1366" r="10" class="c0"/>
<circle cx="904" cy="642" r="10" class="c0"/>
<circle cx="1194" cy="620" r="10" class="c0"/>
<circle cx="1050" cy="1374" r="10" class="c0"/>
<circle cx="872" cy="518" r="10" class="c0"/>
<circle cx="1152" cy="474" r="10" class="c0"/>
<circle cx="1048" cy="558" r="10" class="c0"/>
<circle cx="1146" cy="500" r="10" class="c0"/>
<circle cx="1164" cy="924" r="10" class="c0"/>
<circle cx="1132" cy="864" r="10" class="c0"/>
<circle cx="906" cy="670" r="10" class="c0"/>
<circle cx="1022" cy="1122" r="10" class="c0"/>
<circle cx="1108" cy="498" r="10" class="c0"/>
<circle cx="1156" cy="816" r="10" class="c0"/>
<circle cx="1218" cy="916" r="10" class="c0"/>
<circle cx="1052" cy="672" r="10" class="c0"/>
<circle cx="1222" cy="1304" r="10" class="c0"/>
<circle cx="1112" cy="1428" r="10" class="c0"/>
<circle cx="1202" cy="1066" r="10" class="c0"/>
<circle cx="1146" cy="900" r="10" class="c0"/>
<circle cx="1006" cy="1168" r="8" class="c0"/>
<circle cx="1208" cy="1208" r="8" class="c0"/>
<circle cx="1210" cy="976" r="8" class="c0"/>
<circle cx="1072" cy="656" r="8" class="c0"/>
<circle cx="984" cy="756" r="8" class="c0"/>
<circle cx="994" cy="1410" r="8" class="c0"/>
<circle cx="1204" cy="958" r="8" class="c0"/>
<circle cx="1126" cy="782" r="8" class="c0"/>
<circle cx="1198" cy="1262" r="8" class="c0"/>
<circle cx="1220" cy="594" r="8" class="c0"/>
<circle cx="1096" cy="810" r="8" class="c0"/>
<circle cx="836" cy="392" r="8" class="c0"/>
<circle cx="988" cy="946" r="8" class="c0"/>
<circle cx="1124" cy="634" r="8" class="c0"/>
<circle cx="1220" cy="768" r="8" class="c0"/>
<circle cx="1126" cy="1332" r="8" class="c0"/>
<circle cx="1142" cy="656" r="8" class="c0"/>
<circle cx="1054" cy="1186" r="8" class="c0"/>
<circle cx="1182" cy="1252" r="8" class="c0"/>
<circle cx="1100" cy="1410" r="8" class="c0"/>
<circle cx="958" cy="794" r="8" class="c0"/>
<circle cx="998" cy="1038" r="8" class="c0"/>
<circle cx="1112" cy="1156" r="8" class="c0"/>
<circle cx="1172" cy="806" r="8" class="c0"/>
<circle cx="1218" cy="1278" r="8" class="c0"/>
<circle cx="1184" cy="878" r="8" class="c0"/>
<circle cx="1084" cy="1274" r="8" class="c0"/>
<circle cx="1150" cy="1146" r="8" class="c0"/>
<circle cx="1050" cy="1352" r="8" class="c0"/>
<circle cx="962" cy="728" r="8" class="c0"/>
<circle cx="1138" cy="1238" r="8" class="c0"/>
<circle cx="1046" cy="896" r="8" class="c0"/>
<circle cx="1120" cy="976" r="8" class="c0"/>
<circle cx="1198" cy="1126" r="8" class="c0"/>
<circle cx="952" cy="930" r="8" class="c0"/>
<circle cx="1182" cy="1416" r="8" class="c0"/>
<circle cx="916" cy="586" r="8" class="c0"/>
<circle cx="1132" cy="1418" r="8" class="c0"/>
<circle cx="1096" cy="908" r="8" class="c0"/>
<circle cx="1034" cy="482" r="8" class="c0"/>
<circle cx="1076" cy="1114" r="8" class="c0"/>
<circle cx="1228" cy="1252" r="8" class="c0"/>
<circle cx="1148" cy="770" r="8" class="c0"/>
<circle cx="1126" cy="1132" r="8" class="c0"/>
<circle cx="1086" cy="1422" r="8" class="c0"/>
<circle cx="1044" cy="974" r="8" class="c0"/>
<circle cx="1052" cy="764" r="8" class="c0"/>
<circle cx="1230" cy="584" r="8" class="c0"/>
<circle cx="982" cy="660" r="8" class="c0"/>
<circle cx="934" cy="610" r="8" class="c0"/>
<circle cx="1004" cy="894" r="8" class="c0"/>
<circle cx="1152" cy="448" r="8" class="c0"/>
<circle cx="852" cy="448" r="8" class="c0"/>
<circle cx="1124" cy="540" r="8" class="c0"/>
<circle cx="884" cy="544" r="8" class="c0"/>
<circle cx="1130" cy="808" r="8" class="c0"/>
<circle cx="1076" cy="566" r="8" class="c0"/>
<circle cx="1174" cy="946" r="8" class="c0"/>
<circle cx="918" cy="1268" r="8" class="c0"/>
<circle cx="1118" cy="1234" r="8" class="c0"/>
<circle cx="1162" cy="608" r="8" class="c0"/>
<circle cx="1184" cy="604" r="8" class="c0"/>
<circle cx="1098" cy="1036" r="8" class="c0"/>
<circle cx="1064" cy="1130" r="8" class="c0"/>
<circle cx="1142" cy="1080" r="8" class="c0"/>
<circle cx="1162" cy="1260" r="8" class="c0"/>
<circle cx="1168" cy="520" r="8" class="c0"/>
<circle cx="1182" cy="502" r="8" class="c0"/>
<circle cx="1094" cy="708" r="8" class="c0"/>
<circle cx="1094" cy="458" r="8" class="c0"/>
<circle cx="1030" cy="1340" r="8" class="c0"/>
<circle cx="1212" cy="720" r="8" class="c0"/>
<circle cx="1216" cy="526" r="8" class="c0"/>
<circle cx="960" cy="890" r="8" class="c0"/>
<circle cx="1218" cy="1006" r="8" class="c0"/>
<circle cx="964" cy="868" r="8" class="c0"/>
<circle cx="1134" cy="1262" r="8" class="c0"/>
<circle cx="1004" cy="1282" r="8" class="c0"/>
<circle cx="1150" cy="634" r="8" class="c0"/>
<circle cx="1038" cy="1140" r="8" class="c0"/>
<circle cx="1014" cy="652" r="8" class="c0"/>
<circle cx="1076" cy="802" r="8" class="c0"/>
<circle cx="1048" cy="1112" r="8" class="c0"/>
<circle cx="1206" cy="1152" r="8" class="c0"/>
<circle cx="1118" cy="482" r="8" class="c0"/>
<circle cx="1110" cy="594" r="8" class="c0"/>
<circle cx="1200" cy="1356" r="8" class="c0"/>
<circle cx="1060" cy="1162" r="8" class="c0"/>
<circle cx="1238" cy="1200" r="8" class="c0"/>
<circle cx="1100" cy="420" r="8" class="c0"/>
<circle cx="1068" cy="1386" r="8" class="c0"/>
<circle cx="888" cy="622" r="8" class="c0"/>
<circle cx="986" cy="928" r="8" class="c0"/>
<circle cx="838" cy="340" r="8" class="c0"/>
<circle cx="1154" cy="1044" r="8" class="c0"/>
<circle cx="1178" cy="1228" r="8" class="c0"/>
<circle cx="1024" cy="1098" r="8" class="c0"/>
<circle cx="980" cy="782" r="8" class="c0"/>
<circle cx="1146" cy="934" r="8" class="c0"/>
<circle cx="828" cy="326" r="8" class="c0"/>
<circle cx="1072" cy="732" r="8" class="c0"/>
<circle cx="1066" cy="1364" r="8" class="c0"/>
<circle cx="1216" cy="938" r="8" class="c0"/>
<circle cx="1200" cy="478" r="8" class="c0"/>
<circle cx="1124" cy="722" r="8" class="c0"/>
<circle cx="1024" cy="884" r="8" class="c0"/>
<circle cx="1002" cy="1056" r="8" class="c0"/>
<circle cx="1178" cy="550" r="8" class="c0"/>
<circle cx="988" cy="968" r="8" class="c0"/>
<circle cx="1082" cy="996" r="8" class="c0"/>
<circle cx="1114" cy="1320" r="8" class="c0"/>
<circle cx="1170" cy="1174" r="8" class="c0"/>
<circle cx="1074" cy="824" r="8" class="c0"/>
<circle cx="990" cy="638" r="8" class="c0"/>
<circle cx="1094" cy="1314" r="8" class="c0"/>
<circle cx="1212" cy="1228" r="8" class="c0"/>
<circle cx="922" cy="630" r="8" class="c0"/>
<circle cx="1094" cy="618" r="8" class="c0"/>
<circle cx="1002" cy="1186" r="8" class="c0"/>
<circle cx="1186" cy="1382" r="8" class="c0"/>
<circle cx="1182" cy="570" r="8" class="c0"/>
<circle cx="1106" cy="1180" r="8" class="c0"/>
<circle cx="1080" cy="1194" r="8" class="c0"/>
<circle cx="1088" cy="554" r="8" class="c0"/>
<circle cx="1218" cy="682" r="8" class="c0"/>
<circle cx="1160" cy="708" r="8" class="c0"/>
<circle cx="1062" cy="1332" r="8" class="c0"/>
<circle cx="1132" cy="556" r="8" class="c0"/>
<circle cx="1230" cy="670" r="8" class="c0"/>
<circle cx="984" cy="988" r="8" class="c0"/>
<circle cx="936" cy="724" r="8" class="c0"/>
<circle cx="1220" cy="574" r="8" class="c0"/>
<circle cx="1076" cy="506" r="8" class="c0"/>
<circle cx="1172" cy="690" r="8" class="c0"/>
<circle cx="1144" cy="1220" r="8" class="c0"/>
<circle cx="1174" cy="1026" r="8" class="c0"/>
<circle cx="1138" cy="618" r="8" class="c0"/>
<circle cx="1062" cy="774" r="8" class="c0"/>
<circle cx="1110" cy="1002" r="8" class="c0"/>
<circle cx="944" cy="818" r="8" class="c0"/>
<circle cx="1042" cy="690" r="8" class="c0"/>
<circle cx="982" cy="706" r="8" class="c0"/>
<circle cx="1188" cy="1164" r="8" class="c0"/>
<circle cx="922" cy="684" r="8" class="c0"/>
<circle cx="1022" cy="1406" r="8" class="c0"/>
<circle cx="1146" cy="680" r="8" class="c0"/>
<circle cx="984" cy="730" r="8" class="c0"/>
<circle cx="1048" cy="1240" r="8" class="c0"/>
<circle cx="1088" cy="1400" r="8" class="c0"/>
<circle cx="860" cy="490" r="8" class="c0"/>
<circle cx="1184" cy="1094" r="8" class="c0"/>
<circle cx="1042" cy="956" r="8" class="c0"/>
<circle cx="1058" cy="1038" r="8" class="c0"/>
<circle cx="1150" cy="1064" r="8" class="c0"/>
<circle cx="1206" cy="872" r="8" class="c0"/>
<circle cx="1174" cy="866" r="8" class="c0"/>
<circle cx="1194" cy="822" r="8" class="c0"/>
<circle cx="1130" cy="600" r="8" class="c0"/>
<circle cx="1190" cy="676" r="8" class="c0"/>
<circle cx="1028" cy="928" r="8" class="c0"/>
<circle cx="990" cy="1006" r="8" class="c0"/>
<circle cx="1000" cy="1228" r="8" class="c0"/>
<circle cx="1060" cy="836" r="8" class="c0"/>
<circle cx="1182" cy="1076" r="8" class="c0"/>
<circle cx="1068" cy="956" r="8" class="c0"/>
<circle cx="1060" cy="692" r="8" class="c0"/>
<circle cx="880" cy="606" r="8" class="c0"/>
<circle cx="1026" cy="666" r="8" class="c0"/>
<circle cx="1136" cy="920" r="8" class="c0"/>
<circle cx="1220" cy="1374" r="8" class="c0"/>
<circle cx="1202" cy="1392" r="8" class="c0"/>
<circle cx="1178" cy="1120" r="8" class="c0"/>
<circle cx="1150" cy="598" r="8" class="c0"/>
<circle cx="1124" cy="514" r="8" class="c0"/>
<circle cx="970" cy="766" r="8" class="c0"/>
<circle cx="998" cy="746" r="8" class="c0"/>
<circle cx="1178" cy="632" r="8" class="c0"/>
<circle cx="1028" cy="1072" r="8" class="c0"/>
<circle cx="1002" cy="936" r="8" class="c0"/>
<circle cx="1160" cy="1430" r="8" class="c0"/>
<circle cx="948" cy="738" r="8" class="c0"/>
<circle cx="1030" cy="704" r="8" class="c0"/>
<circle cx="1024" cy="1382" r="8" class="c0"/>
<circle cx="1080" cy="924" r="8" class="c0"/>
<circle cx="1070" cy="976" r="8" class="c0"/>
<circle cx="1170" cy="488" r="8" class="c0"/>
<circle cx="1114" cy="916" r="8" class="c0"/>
<circle cx="1032" cy="1254" r="8" class="c0"/>
<circle cx="1054" cy="444" r="8" class="c0"/>
<circle cx="1218" cy="888" r="8" class="c0"/>
<circle cx="1000" cy="1302" r="8" class="c0"/>
<circle cx="1078" cy="1294" r="8" class="c0"/>
<circle cx="1140" cy="462" r="8" class="c0"/>
<circle cx="1102" cy="1094" r="8" class="c0"/>
<circle cx="1082" cy="526" r="8" class="c0"/>
<circle cx="906" cy="694" r="8" class="c0"/>
<circle cx="1088" cy="840" r="8" class="c0"/>
<circle cx="1198" cy="996" r="8" class="c0"/>
<circle cx="1232" cy="614" r="8" class="c0"/>
<circle cx="1178" cy="1358" r="8" class="c0"/>
<circle cx="1098" cy="544" r="8" class="c0"/>
<circle cx="1216" cy="1080" r="8" class="c0"/>
<circle cx="948" cy="1332" r="8" class="c0"/>
<circle cx="1190" cy="1216" r="8" class="c0"/>
<circle cx="1110" cy="430" r="8" class="c0"/>
<circle cx="1146" cy="1330" r="8" class="c0"/>
<circle cx="1128" cy="444" r="8" class="c0"/>
<circle cx="1152" cy="1128" r="8" class="c0"/>
<circle cx="1232" cy="1352" r="8" class="c0"/>
<circle cx="962" cy="1366" r="8" class="c0"/>
<circle cx="1236" cy="1150" r="8" class="c0"/>
<circle cx="928" cy="778" r="8" class="c0"/>
<circle cx="1114" cy="772" r="8" class="c0"/>
<circle cx="1044" cy="1398" r="8" class="c0"/>
<circle cx="832" cy="372" r="8" class="c0"/>
<circle cx="1036" cy="1170" r="8" class="c0"/>
<circle cx="1120" cy="420" r="8" class="c0"/>
<circle cx="1022" cy="1268" r="8" class="c0"/>
<circle cx="1064" cy="1312" r="8" class="c0"/>
<circle cx="1070" cy="1256" r="8" class="c0"/>
<circle cx="1098" cy="686" r="8" class="c0"/>
<circle cx="1202" cy="1098" r="8" class="c0"/>
<circle cx="966" cy="942" r="8" class="c0"/>
<circle cx="1172" cy="580" r="8" class="c0"/>
<circle cx="1210" cy="1416" r="8" class="c0"/>
<circle cx="1066" cy="516" r="8" class="c0"/>
<circle cx="1136" cy="526" r="8" class="c0"/>
<circle cx="1096" cy="748" r="8" class="c0"/>
<circle cx="1098" cy="828" r="8" class="c0"/>
<circle cx="1140" cy="1368" r="8" class="c0"/>
<circle cx="1062" cy="750" r="8" class="c0"/>
<circle cx="1208" cy="462" r="8" class="c0"/>
<circle cx="1078" cy="1352" r="8" class="c0"/>
<circle cx="1122" cy="1094" r="8" class="c0"/>
<circle cx="1044" cy="466" r="8" class="c0"/>
<circle cx="964" cy="1322" r="8" class="c0"/>
<circle cx="1008" cy="1392" r="8" class="c0"/>
<circle cx="1186" cy="658" r="8" class="c0"/>
<circle cx="908" cy="764" r="8" class="c0"/>
<circle cx="1124" cy="844" r="8" class="c0"/>
<circle cx="1162" cy="1158" r="8" class="c0"/>
<circle cx="974" cy="610" r="8" class="c0"/>
<circle cx="1210" cy="806" r="8" class="c0"/>
<circle cx="1072" cy="626" r="8" class="c0"/>
<circle cx="1112" cy="614" r="8" class="c0"/>
<circle cx="1144" cy="1186" r="8" class="c0"/>
<circle cx="1014" cy="1364" r="8" class="c0"/>
<circle cx="1142" cy="792" r="8" class="c0"/>
<circle cx="1038" cy="650" r="8" class="c0"/>
<circle cx="1192" cy="1318" r="8" class="c0"/>
<circle cx="1236" cy="1122" r="8" class="c0"/>
<circle cx="1200" cy="1040" r="8" class="c0"/>
<circle cx="834" cy="410" r="8" class="c0"/>
<circle cx="1072" cy="456" r="8" class="c0"/>
<circle cx="1192" cy="512" r="8" class="c0"/>
<circle cx="1064" cy="1102" r="8" class="c0"/>
<circle cx="1064" cy="1278" r="8" class="c0"/>
<circle cx="1186" cy="1336" r="8" class="c0"/>
<circle cx="936" cy="1304" r="8" class="c0"/>
<circle cx="1100" cy="992" r="8" class="c0"/>
<circle cx="986" cy="1318" r="8" class="c0"/>
<circle cx="1218" cy="1400" r="8" class="c0"/>
<circle cx="932" cy="696" r="8" class="c0"/>
<circle cx="1108" cy="956" r="8" class="c0"/>
<circle cx="1238" cy="642" r="8" class="c0"/>
<circle cx="1020" cy="1238" r="8" class="c0"/>
<circle cx="1138" cy="754" r="8" class="c0"/>
<circle cx="1242" cy="1340" r="8" class="c0"/>
<circle cx="1126" cy="582" r="8" class="c0"/>
<circle cx="1132" cy="1390" r="8" class="c0"/>
<circle cx="1242" cy="1286" r="8" class="c0"/>
<circle cx="1078" cy="784" r="8" class="c0"/>
<circle cx="1128" cy="1282" r="8" class="c0"/>
<circle cx="1168" cy="456" r="8" class="c0"/>
<circle cx="1058" cy="800" r="8" class="c0"/>
<circle cx="1132" cy="1352" r="8" class="c0"/>
<circle cx="1046" cy="740" r="8" class="c0"/>
<circle cx="1080" cy="606" r="8" class="c0"/>
<circle cx="1036" cy="538" r="8" class="c0"/>
<circle cx="1038" cy="1362" r="8" class="c0"/>
<circle cx="1234" cy="690" r="8" class="c0"/>
<circle cx="1096" cy="440" r="8" class="c0"/>
<circle cx="1132" cy="670" r="8" class="c0"/>
<circle cx="1212" cy="1342" r="8" class="c0"/>
<circle cx="1132" cy="888" r="8" class="c0"/>
<circle cx="1108" cy="632" r="6" class="c0"/>
<circle cx="936" cy="1270" r="6" class="c0"/>
<circle cx="1092" cy="1384" r="6" class="c0"/>
<circle cx="1204" cy="766" r="6" class="c0"/>
<circle cx="1178" cy="1300" r="6" class="c0"/>
<circle cx="876" cy="566" r="6" class="c0"/>
<circle cx="1056" cy="816" r="6" class="c0"/>
<circle cx="814" cy="314" r="6" class="c0"/>
<circle cx="980" cy="686" r="6" class="c0"/>
<circle cx="1028" cy="1308" r="6" class="c0"/>
<circle cx="1010" cy="1110" r="6" class="c0"/>
<circle cx="1226" cy="1190" r="6" class="c0"/>
<circle cx="1000" cy="1018" r="6" class="c0"/>
<circle cx="1044" cy="918" r="6" class="c0"/>
<circle cx="976" cy="1302" r="6" class="c0"/>
<circle cx="1156" cy="944" r="6" class="c0"/>
<circle cx="1040" cy="940" r="6" class="c0"/>
<circle cx="1184" cy="920" r="6" class="c0"/>
<circle cx="1092" cy="512" r="6" class="c0"/>
<circle cx="1114" cy="804" r="6" class="c0"/>
<circle cx="952" cy="612" r="6" class="c0"/>
<circle cx="1216" cy="1162" r="6" class="c0"/>
<circle cx="1028" cy="1432" r="6" class="c0"/>
<circle cx="926" cy="596" r="6" class="c0"/>
<circle cx="1132" cy="490" r="6" class="c0"/>
<circle cx="820" cy="358" r="6" class="c0"/>
<circle cx="1098" cy="1238" r="6" class="c0"/>
<circle cx="1126" cy="654" r="6" class="c0"/>
<circle cx="1068" cy="1072" r="6" class="c0"/>
<circle cx="1056" cy="1144" r="6" class="c0"/>
<circle cx="1110" cy="706" r="6" class="c0"/>
<circle cx="904" cy="784" r="6" class="c0"/>
<circle cx="966" cy="652" r="6" class="c0"/>
<circle cx="1128" cy="992" r="6" class="c0"/>
<circle cx="868" cy="542" r="6" class="c0"/>
<circle cx="916" cy="732" r="6" class="c0"/>
<circle cx="1042" cy="1282" r="6" class="c0"/>
<circle cx="1212" cy="786" r="6" class="c0"/>
<circle cx="1042" cy="1032" r="6" class="c0"/>
<circle cx="1030" cy="900" r="6" class="c0"/>
<circle cx="994" cy="1268" r="6" class="c0"/>
<circle cx="1036" cy="1420" r="6" class="c0"/>
<circle cx="918" cy="614" r="6" class="c0"/>
<circle cx="972" cy="674" r="6" class="c0"/>
<circle cx="1198" cy="446" r="6" class="c0"/>
<circle cx="1226" cy="552" r="6" class="c0"/>
<circle cx="1226" cy="988" r="6" class="c0"/>
<circle cx="1094" cy="1016" r="6" class="c0"/>
<circle cx="1162" cy="1218" r="6" class="c0"/>
<circle cx="886" cy="638" r="6" class="c0"/>
<circle cx="1070" cy="1432" r="6" class="c0"/>
<circle cx="1018" cy="1060" r="6" class="c0"/>
<circle cx="1074" cy="542" r="6" class="c0"/>
<circle cx="1132" cy="738" r="6" class="c0"/>
<circle cx="1162" cy="1346" r="6" class="c0"/>
<circle cx="850" cy="400" r="6" class="c0"/>
<circle cx="1222" cy="964" r="6" class="c0"/>
<circle cx="990" cy="1248" r="6" class="c0"/>
<circle cx="1128" cy="1222" r="6" class="c0"/>
<circle cx="1152" cy="1092" r="6" class="c0"/>
<circle cx="918" cy="788" r="6" class="c0"/>
<circle cx="1136" cy="1320" r="6" class="c0"/>
<circle cx="1108" cy="1136" r="6" class="c0"/>
<circle cx="902" cy="742" r="6" class="c0"/>
<circle cx="1100" cy="1196" r="6" class="c0"/>
<circle cx="1118" cy="1272" r="6" class="c0"/>
<circle cx="946" cy="648" r="6" class="c0"/>
<circle cx="1246" cy="1180" r="6" class="c0"/>
<circle cx="1110" cy="1214" r="6" class="c0"/>
<circle cx="1210" cy="606" r="6" class="c0"/>
<circle cx="1108" cy="1054" r="6" class="c0"/>
<circle cx="1030" cy="722" r="6" class="c0"/>
<circle cx="1056" cy="1016" r="6" class="c0"/>
<circle cx="1090" cy="1342" r="6" class="c0"/>
<circle cx="1004" cy="1374" r="6" class="c0"/>
<circle cx="1248" cy="1312" r="6" class="c0"/>
<circle cx="1014" cy="738" r="6" class="c0"/>
<circle cx="802" cy="324" r="6" class="c0"/>
<circle cx="1096" cy="1124" r="6" class="c0"/>
<circle cx="1022" cy="730" r="6" class="c0"/>
<circle cx="1194" cy="1200" r="6" class="c0"/>
<circle cx="1096" cy="602" r="6" class="c0"/>
<circle cx="1084" cy="722" r="6" class="c0"/>
<circle cx="1078" cy="890" r="6" class="c0"/>
<circle cx="994" cy="696" r="6" class="c0"/>
<circle cx="1140" cy="1432" r="6" class="c0"/>
<circle cx="1162" cy="1364" r="6" class="c0"/>
<circle cx="1222" cy="644" r="6" class="c0"/>
<circle cx="986" cy="1290" r="6" class="c0"/>
<circle cx="1134" cy="1004" r="6" class="c0"/>
<circle cx="986" cy="1424" r="6" class="c0"/>
<circle cx="1166" cy="504" r="6" class="c0"/>
<circle cx="1124" cy="1180" r="6" class="c0"/>
<circle cx="1048" cy="1218" r="6" class="c0"/>
<circle cx="1240" cy="658" r="6" class="c0"/>
<circle cx="1150" cy="1302" r="6" class="c0"/>
<circle cx="974" cy="956" r="6" class="c0"/>
<circle cx="950" cy="878" r="6" class="c0"/>
<circle cx="1112" cy="646" r="6" class="c0"/>
<circle cx="1168" cy="1060" r="6" class="c0"/>
<circle cx="1192" cy="772" r="6" class="c0"/>
<circle cx="1132" cy="1150" r="6" class="c0"/>
<circle cx="1182" cy="1184" r="6" class="c0"/>
<circle cx="948" cy="1314" r="6" class="c0"/>
<circle cx="1184" cy="738" r="6" class="c0"/>
<circle cx="1066" cy="552" r="6" class="c0"/>
<circle cx="1152" cy="524" r="6" class="c0"/>
<circle cx="976" cy="1384" r="6" class="c0"/>
<circle cx="1168" cy="1378" r="6" class="c0"/>
<circle cx="1152" cy="1354" r="6" class="c0"/>
<circle cx="1108" cy="1026" r="6" class="c0"/>
<circle cx="954" cy="1348" r="6" class="c0"/>
<circle cx="1168" cy="1330" r="6" class="c0"/>
<circle cx="1204" cy="1372" r="6" class="c0"/>
<circle cx="1158" cy="798" r="6" class="c0"/>
<circle cx="1148" cy="1252" r="6" class="c0"/>
<circle cx="1056" cy="1226" r="6" class="c0"/>
<circle cx="1148" cy="1416" r="6" class="c0"/>
<circle cx="1048" cy="1152" r="6" class="c0"/>
<circle cx="1180" cy="1398" r="6" class="c0"/>
<circle cx="1140" cy="1054" r="6" class="c0"/>
<circle cx="1102" cy="926" r="6" class="c0"/>
<circle cx="924" cy="818" r="6" class="c0"/>
<circle cx="1112" cy="1084" r="6" class="c0"/>
<circle cx="1034" cy="986" r="6" class="c0"/>
<circle cx="1058" cy="966" r="6" class="c0"/>
<circle cx="1070" cy="1152" r="6" class="c0"/>
<circle cx="1218" cy="484" r="6" class="c0"/>
<circle cx="846" cy="382" r="6" class="c0"/>
<circle cx="1114" cy="550" r="6" class="c0"/>
<circle cx="1114" cy="868" r="6" class="c0"/>
<circle cx="1218" cy="1198" r="6" class="c0"/>
<circle cx="988" cy="620" r="6" class="c0"/>
<circle cx="1064" cy="578" r="6" class="c0"/>
<circle cx="1156" cy="692" r="6" class="c0"/>
<circle cx="1190" cy="488" r="6" class="c0"/>
<circle cx="1106" cy="1380" r="6" class="c0"/>
<circle cx="1124" cy="904" r="6" class="c0"/>
<circle cx="1170" cy="1042" r="6" class="c0"/>
<circle cx="1192" cy="1110" r="6" class="c0"/>
<circle cx="1028" cy="946" r="6" class="c0"/>
<circle cx="980" cy="884" r="6" class="c0"/>
<circle cx="1164" cy="768" r="6" class="c0"/>
<circle cx="934" cy="642" r="6" class="c0"/>
<circle cx="986" cy="1396" r="6" class="c0"/>
<circle cx="1152" cy="1378" r="6" class="c0"/>
<circle cx="1224" cy="1040" r="6" class="c0"/>
<circle cx="1144" cy="1034" r="6" class="c0"/>
<circle cx="1152" cy="1202" r="6" class="c0"/>
<circle cx="1010" cy="1134" r="6" class="c0"/>
<circle cx="888" cy="560" r="6" class="c0"/>
<circle cx="1168" cy="560" r="6" class="c0"/>
<circle cx="1238" cy="598" r="6" class="c0"/>
<circle cx="1192" cy="1430" r="6" class="c0"/>
<circle cx="1214" cy="1260" r="6" class="c0"/>
<circle cx="954" cy="828" r="6" class="c0"/>
<circle cx="1226" cy="1066" r="6" class="c0"/>
<circle cx="990" cy="772" r="6" class="c0"/>
<circle cx="928" cy="1286" r="6" class="c0"/>
<circle cx="874" cy="588" r="6" class="c0"/>
<circle cx="1090" cy="656" r="6" class="c0"/>
<circle cx="1160" cy="1184" r="6" class="c0"/>
<circle cx="1092" cy="1108" r="6" class="c0"/>
<circle cx="1200" cy="918" r="6" class="c0"/>
<circle cx="1112" cy="1304" r="6" class="c0"/>
<circle cx="1102" cy="472" r="6" class="c0"/>
<circle cx="988" cy="1024" r="6" class="c0"/>
<circle cx="906" cy="622" r="6" class="c0"/>
<circle cx="1012" cy="1348" r="6" class="c0"/>
<circle cx="1072" cy="1006" r="6" class="c0"/>
<circle cx="842" cy="358" r="6" class="c0"/>
<circle cx="1166" cy="724" r="6" class="c0"/>
<circle cx="1124" cy="1252" r="6" class="c0"/>
<circle cx="868" cy="462" r="6" class="c0"/>
<circle cx="1190" cy="454" r="6" class="c0"/>
<circle cx="974" cy="740" r="6" class="c0"/>
<circle cx="1238" cy="1320" r="6" class="c0"/>
<circle cx="972" cy="718" r="6" class="c0"/>
<circle cx="1086" cy="898" r="6" class="c0"/>
<circle cx="1028" cy="682" r="6" class="c0"/>
<circle cx="874" cy="498" r="6" class="c0"/>
<circle cx="992" cy="1384" r="6" class="c0"/>
<circle cx="1164" cy="980" r="6" class="c0"/>
<circle cx="996" cy="918" r="6" class="c0"/>
<circle cx="1024" cy="494" r="6" class="c0"/>
<circle cx="1246" cy="1160" r="6" class="c0"/>
<circle cx="1056" cy="1202" r="6" class="c0"/>
<circle cx="1130" cy="472" r="6" class="c0"/>
<circle cx="1196" cy="1142" r="6" class="c0"/>
<circle cx="942" cy="834" r="6" class="c0"/>
<circle cx="1214" cy="700" r="6" class="c0"/>
<circle cx="1136" cy="1026" r="6" class="c0"/>
<circle cx="1070" cy="1184" r="6" class="c0"/>
<circle cx="1046" cy="878" r="6" class="c0"/>
<circle cx="1040" cy="1096" r="6" class="c0"/>
<circle cx="1178" cy="848" r="6" class="c0"/>
<circle cx="998" cy="654" r="6" class="c0"/>
<circle cx="1108" cy="838" r="6" class="c0"/>
<circle cx="1160" cy="624" r="6" class="c0"/>
<circle cx="1226" cy="948" r="6" class="c0"/>
<circle cx="870" cy="480" r="6" class="c0"/>
<circle cx="1234" cy="1270" r="6" class="c0"/>
<circle cx="1208" cy="1320" r="6" class="c0"/>
<circle cx="1162" cy="1294" r="6" class="c0"/>
<circle cx="1080" cy="746" r="6" class="c0"/>
<circle cx="1006" cy="1150" r="6" class="c0"/>
<circle cx="1148" cy="414" r="6" class="c0"/>
<circle cx="1104" cy="762" r="6" class="c0"/>
<circle cx="1188" cy="1272" r="6" class="c0"/>
<circle cx="1016" cy="676" r="6" class="c0"/>
<circle cx="1128" cy="764" r="6" class="c0"/>
<circle cx="1142" cy="584" r="6" class="c0"/>
<circle cx="828" cy="350" r="6" class="c0"/>
<circle cx="1154" cy="1172" r="6" class="c0"/>
</svg>
