<?xml version="1.0" encoding="utf-8"?>
<svg xmlns="http://www.w3.org/2000/svg"
     xmlns:xlink="http://www.w3.org/1999/xlink" width="1920" height="1440" >

            <defs>
            <style type="text/css"><![CDATA[
circle {stroke: none;}
.c0 {fill: #000000;}
]]></style>
            </defs>
<rect x="0" y="0" width="1920" height="1440" fill="white"/>
<circle cx="1030" cy="1024" r="14" class="c0"/>
<circle cx="1124" cy="578" r="12" class="c0"/>
<circle cx="1058" cy="1396" r="12" class="c0"/>
<circle cx="1220" cy="612" r="12" class="c0"/>
<circle cx="1038" cy="966" r="12" class="c0"/>
<circle cx="1164" cy="710" r="12" class="c0"/>
<circle cx="1208" cy="488" r="12" class="c0"/>
<circle cx="1192" cy="910" r="12" class="c0"/>
<circle cx="1166" cy="1288" r="12" class="c0"/>
<circle cx="1230" cy="548" r="12" class="c0"/>
<circle cx="1186" cy="658" r="12" class="c0"/>
<circle cx="1218" cy="886" r="12" class="c0"/>
<circle cx="844" cy="310" r="12" class="c0"/>
<circle cx="1090" cy="994" r="12" class="c0"/>
<circle cx="1100" cy="942" r="12" class="c0"/>
<circle cx="1236" cy="1290" r="12" class="c0"/>
<circle cx="968" cy="634" r="12" class="c0"/>
<circle cx="1162" cy="984" r="12" class="c0"/>
<circle cx="1084" cy="1174" r="12" class="c0"/>
<circle cx="1102" cy="1204" r="12" class="c0"/>
<circle cx="1120" cy="718" r="12" class="c0"/>
<circle cx="908" cy="614" r="12" class="c0"/>
<circle cx="1132" cy="1180" r="12" class="c0"/>
<circle cx="1144" cy="508" r="12" class="c0"/>
<circle cx="1036" cy="924" r="12" class="c0"/>
<circle cx="1230" cy="764" r="12" class="c0"/>
<circle cx="1104" cy="1108" r="12" class="c0"/>
<circle cx="1152" cy="620" r="12" class="c0"/>
<circle cx="1148" cy="816" r="12" class="c0"/>
<circle cx="1080" cy="1032" r="12" class="c0"/>
<circle cx="1148" cy="922" r="12" class="c0"/>
<circle cx="1134" cy="1024" r="12" class="c0"/>
<circle cx="1066" cy="1068" r="12" class="c0"/>
<circle cx="1232" cy="798" r="12" class="c0"/>
<circle cx="1076" cy="686" r="12" class="c0"/>
<circle cx="1140" cy="952" r="12" class="c0"/>
<circle cx="1118" cy="1046" r="12" class="c0"/>
<circle cx="1196" cy="1370" r="12" class="c0"/>
<circle cx="1084" cy="536" r="12" class="c0"/>
<circle cx="1218" cy="1308" r="12" class="c0"/>
<circle cx="982" cy="738" r="12" class="c0"/>
<circle cx="1058" cy="494" r="12" class="c0"/>
<circle cx="1134" cy="1340" r="12" class="c0"/>
<circle cx="1000" cy="1348" r="12" class="c0"/>
<circle cx="1124" cy="526" r="12" class="c0"/>
<circle cx="1172" cy="1194" r="12" class="c0"/>
<circle cx="1194" cy="1226" r="12" class="c0"/>
<circle cx="898" cy="566" r="12" class="c0"/>
<circle cx="1084" cy="1140" r="12" class="c0"/>
<circle cx="1018" cy="1248" r="12" class="c0"/>
<circle cx="1168" cy="1142" r="12" class="c0"/>
<circle cx="1184" cy="560" r="12" class="c0"/>
<circle cx="932" cy="902" r="12" class="c0"/>
<circle cx="1182" cy="934" r="12" class="c0"/>
<circle cx="1066" cy="522" r="12" class="c0"/>
<circle cx="1104" cy="918" r="10" class="c0"/>
<circle cx="1150" cy="432" r="10" class="c0"/>
<circle cx="1188" cy="1310" r="10" class="c0"/>
<circle cx="1184" cy="1004" r="10" class="c0"/>
<circle cx="1192" cy="1270" r="10" class="c0"/>
<circle cx="1196" cy="846" r="10" class="c0"/>
<circle cx="1148" cy="1082" r="10" class="c0"/>
<circle cx="966" cy="1064" r="10" class="c0"/>
<circle cx="1180" cy="812" r="10" class="c0"/>
<circle cx="1076" cy="784" r="10" class="c0"/>
<circle cx="1146" cy="454" r="10" class="c0"/>
<circle cx="1000" cy="922" r="10" class="c0"/>
<circle cx="1244" cy="626" r="10" class="c0"/>
<circle cx="1220" cy="696" r="10" class="c0"/>
<circle cx="1132" cy="780" r="10" class="c0"/>
<circle cx="1140" cy="744" r="10" class="c0"/>
<circle cx="976" cy="1386" r="10" class="c0"/>
<circle cx="1178" cy="594" r="10" class="c0"/>
<circle cx="1168" cy="498" r="10" class="c0"/>
<circle cx="1086" cy="502" r="10" class="c0"/>
<circle cx="856" cy="362" r="10" class="c0"/>
<circle cx="1188" cy="748" r="10" class="c0"/>
<circle cx="1208" cy="722" r="10" class="c0"/>
<circle cx="1170" cy="1222" r="10" class="c0"/>
<circle cx="870" cy="446" r="10" class="c0"/>
<circle cx="1222" cy="1258" r="10" class="c0"/>
<circle cx="992" cy="1226" r="10" class="c0"/>
<circle cx="1154" cy="1040" r="10" class="c0"/>
<circle cx="1180" cy="874" r="10" class="c0"/>
<circle cx="1088" cy="796" r="10" class="c0"/>
<circle cx="1124" cy="1418" r="10" class="c0"/>
<circle cx="1226" cy="1052" r="10" class="c0"/>
<circle cx="1086" cy="1254" r="10" class="c0"/>
<circle cx="1144" cy="540" r="10" class="c0"/>
<circle cx="1114" cy="1250" r="10" class="c0"/>
<circle cx="1152" cy="772" r="10" class="c0"/>
<circle cx="872" cy="470" r="10" class="c0"/>
<circle cx="1182" cy="1074" r="10" class="c0"/>
<circle cx="1068" cy="634" r="10" class="c0"/>
<circle cx="1050" cy="652" r="10" class="c0"/>
<circle cx="1056" cy="1360" r="10" class="c0"/>
<circle cx="1240" cy="1088" r="10" class="c0"/>
<circle cx="1180" cy="1028" r="10" class="c0"/>
<circle cx="1154" cy="1008" r="10" class="c0"/>
<circle cx="1242" cy="1010" r="10" class="c0"/>
<circle cx="1126" cy="1384" r="10" class="c0"/>
<circle cx="1116" cy="1302" r="10" class="c0"/>
<circle cx="944" cy="656" r="10" class="c0"/>
<circle cx="1126" cy="1272" r="10" class="c0"/>
<circle cx="924" cy="726" r="10" class="c0"/>
<circle cx="1206" cy="1170" r="10" class="c0"/>
<circle cx="1100" cy="740" r="10" class="c0"/>
<circle cx="1116" cy="652" r="10" class="c0"/>
<circle cx="1118" cy="830" r="10" class="c0"/>
<circle cx="1022" cy="1306" r="10" class="c0"/>
<circle cx="978" cy="928" r="10" class="c0"/>
<circle cx="1096" cy="1018" r="10" class="c0"/>
<circle cx="956" cy="784" r="10" class="c0"/>
<circle cx="1034" cy="694" r="10" class="c0"/>
<circle cx="1064" cy="996" r="10" class="c0"/>
<circle cx="1020" cy="1334" r="10" class="c0"/>
<circle cx="992" cy="1176" r="10" class="c0"/>
<circle cx="1174" cy="456" r="10" class="c0"/>
<circle cx="1214" cy="1036" r="10" class="c0"/>
<circle cx="986" cy="614" r="10" class="c0"/>
<circle cx="1154" cy="1156" r="10" class="c0"/>
<circle cx="1096" cy="1084" r="10" class="c0"/>
<circle cx="1228" cy="1122" r="10" class="c0"/>
<circle cx="1154" cy="730" r="10" class="c0"/>
<circle cx="1134" cy="604" r="10" class="c0"/>
<circle cx="906" cy="664" r="10" class="c0"/>
<circle cx="1206" cy="1196" r="10" class="c0"/>
<circle cx="1104" cy="474" r="10" class="c0"/>
<circle cx="1040" cy="1408" r="10" class="c0"/>
<circle cx="1150" cy="656" r="10" class="c0"/>
<circle cx="1244" cy="590" r="10" class="c0"/>
<circle cx="1096" cy="898" r="10" class="c0"/>
<circle cx="1236" cy="660" r="10" class="c0"/>
<circle cx="1022" cy="1182" r="10" class="c0"/>
<circle cx="956" cy="722" r="10" class="c0"/>
<circle cx="1192" cy="536" r="10" class="c0"/>
<circle cx="1094" cy="1412" r="10" class="c0"/>
<circle cx="1098" cy="514" r="10" class="c0"/>
<circle cx="1110" cy="600" r="10" class="c0"/>
<circle cx="1126" cy="494" r="10" class="c0"/>
<circle cx="1052" cy="1158" r="10" class="c0"/>
<circle cx="924" cy="790" r="10" class="c0"/>
<circle cx="1054" cy="1204" r="10" class="c0"/>
<circle cx="1058" cy="704" r="10" class="c0"/>
<circle cx="912" cy="752" r="10" class="c0"/>
<circle cx="932" cy="596" r="10" class="c0"/>
<circle cx="1206" cy="952" r="10" class="c0"/>
<circle cx="1232" cy="956" r="10" class="c0"/>
<circle cx="1144" cy="480" r="10" class="c0"/>
<circle cx="1084" cy="1276" r="10" class="c0"/>
<circle cx="1124" cy="988" r="10" class="c0"/>
<circle cx="1078" cy="1098" r="10" class="c0"/>
<circle cx="1166" cy="794" r="10" class="c0"/>
<circle cx="1066" cy="744" r="10" class="c0"/>
<circle cx="1210" cy="1074" r="10" class="c0"/>
<circle cx="1170" cy="856" r="10" class="c0"/>
<circle cx="946" cy="938" r="10" class="c0"/>
<circle cx="1226" cy="1340" r="10" class="c0"/>
<circle cx="1188" cy="1114" r="10" class="c0"/>
<circle cx="928" cy="828" r="10" class="c0"/>
<circle cx="1090" cy="1312" r="10" class="c0"/>
<circle cx="988" cy="1248" r="10" class="c0"/>
<circle cx="1000" cy="1288" r="10" class="c0"/>
<circle cx="966" cy="704" r="10" class="c0"/>
<circle cx="1000" cy="700" r="10" class="c0"/>
<circle cx="1152" cy="896" r="10" class="c0"/>
<circle cx="1252" cy="1252" r="10" class="c0"/>
<circle cx="1096" cy="570" r="10" class="c0"/>
<circle cx="1140" cy="1228" r="10" class="c0"/>
<circle cx="974" cy="794" r="10" class="c0"/>
<circle cx="1092" cy="670" r="10" class="c0"/>
<circle cx="1238" cy="736" r="10" class="c0"/>
<circle cx="1136" cy="672" r="10" class="c0"/>
<circle cx="1078" cy="842" r="10" class="c0"/>
<circle cx="1074" cy="974" r="10" class="c0"/>
<circle cx="1212" cy="1136" r="10" class="c0"/>
<circle cx="1222" cy="1216" r="10" class="c0"/>
<circle cx="1196" cy="986" r="10" class="c0"/>
<circle cx="1018" cy="1386" r="10" class="c0"/>
<circle cx="1226" cy="1000" r="8" class="c0"/>
<circle cx="866" cy="390" r="8" class="c0"/>
<circle cx="1158" cy="962" r="8" class="c0"/>
<circle cx="1060" cy="548" r="8" class="c0"/>
<circle cx="1126" cy="1132" r="8" class="c0"/>
<circle cx="884" cy="596" r="8" class="c0"/>
<circle cx="1200" cy="678" r="8" class="c0"/>
<circle cx="966" cy="1094" r="8" class="c0"/>
<circle cx="1014" cy="634" r="8" class="c0"/>
<circle cx="1090" cy="824" r="8" class="c0"/>
<circle cx="1052" cy="1284" r="8" class="c0"/>
<circle cx="1174" cy="1322" r="8" class="c0"/>
<circle cx="1106" cy="1154" r="8" class="c0"/>
<circle cx="942" cy="704" r="8" class="c0"/>
<circle cx="966" cy="664" r="8" class="c0"/>
<circle cx="1056" cy="1334" r="8" class="c0"/>
<circle cx="1234" cy="520" r="8" class="c0"/>
<circle cx="994" cy="658" r="8" class="c0"/>
<circle cx="1212" cy="812" r="8" class="c0"/>
<circle cx="986" cy="1416" r="8" class="c0"/>
<circle cx="1014" cy="1220" r="8" class="c0"/>
<circle cx="1086" cy="724" r="8" class="c0"/>
<circle cx="1080" cy="1386" r="8" class="c0"/>
<circle cx="1082" cy="1348" r="8" class="c0"/>
<circle cx="1100" cy="446" r="8" class="c0"/>
<circle cx="1062" cy="1310" r="8" class="c0"/>
<circle cx="1042" cy="1322" r="8" class="c0"/>
<circle cx="1200" cy="770" r="8" class="c0"/>
<circle cx="1190" cy="424" r="8" class="c0"/>
<circle cx="956" cy="966" r="8" class="c0"/>
<circle cx="1204" cy="794" r="8" class="c0"/>
<circle cx="1052" cy="1182" r="8" class="c0"/>
<circle cx="1132" cy="638" r="8" class="c0"/>
<circle cx="1198" cy="468" r="8" class="c0"/>
<circle cx="864" cy="340" r="8" class="c0"/>
<circle cx="1026" cy="998" r="8" class="c0"/>
<circle cx="1132" cy="870" r="8" class="c0"/>
<circle cx="1258" cy="686" r="8" class="c0"/>
<circle cx="1028" cy="1358" r="8" class="c0"/>
<circle cx="1160" cy="1338" r="8" class="c0"/>
<circle cx="1266" cy="1356" r="8" class="c0"/>
<circle cx="1146" cy="568" r="8" class="c0"/>
<circle cx="922" cy="680" r="8" class="c0"/>
<circle cx="1106" cy="1352" r="8" class="c0"/>
<circle cx="1126" cy="1204" r="8" class="c0"/>
<circle cx="1198" cy="1346" r="8" class="c0"/>
<circle cx="994" cy="1312" r="8" class="c0"/>
<circle cx="1152" cy="588" r="8" class="c0"/>
<circle cx="1048" cy="942" r="8" class="c0"/>
<circle cx="1084" cy="1228" r="8" class="c0"/>
<circle cx="1168" cy="762" r="8" class="c0"/>
<circle cx="1112" cy="1228" r="8" class="c0"/>
<circle cx="1060" cy="1240" r="8" class="c0"/>
<circle cx="1208" cy="644" r="8" class="c0"/>
<circle cx="1064" cy="768" r="8" class="c0"/>
<circle cx="1126" cy="1100" r="8" class="c0"/>
<circle cx="1222" cy="672" r="8" class="c0"/>
<circle cx="1186" cy="1162" r="8" class="c0"/>
<circle cx="1016" cy="678" r="8" class="c0"/>
<circle cx="892" cy="530" r="8" class="c0"/>
<circle cx="1030" cy="734" r="8" class="c0"/>
<circle cx="1234" cy="500" r="8" class="c0"/>
<circle cx="1134" cy="840" r="8" class="c0"/>
<circle cx="1242" cy="1184" r="8" class="c0"/>
<circle cx="1180" cy="1392" r="8" class="c0"/>
<circle cx="1192" cy="706" r="8" class="c0"/>
<circle cx="1160" cy="834" r="8" class="c0"/>
<circle cx="1012" cy="1272" r="8" class="c0"/>
<circle cx="1170" cy="576" r="8" class="c0"/>
<circle cx="970" cy="1352" r="8" class="c0"/>
<circle cx="1180" cy="1340" r="8" class="c0"/>
<circle cx="1074" cy="1292" r="8" class="c0"/>
<circle cx="1232" cy="826" r="8" class="c0"/>
<circle cx="1064" cy="890" r="8" class="c0"/>
<circle cx="1168" cy="1252" r="8" class="c0"/>
<circle cx="876" cy="578" r="8" class="c0"/>
<circle cx="1162" cy="1110" r="8" class="c0"/>
<circle cx="1068" cy="954" r="8" class="c0"/>
<circle cx="1216" cy="526" r="8" class="c0"/>
<circle cx="1264" cy="1222" r="8" class="c0"/>
<circle cx="982" cy="686" r="8" class="c0"/>
<circle cx="1158" cy="1208" r="8" class="c0"/>
<circle cx="1188" cy="620" r="8" class="c0"/>
<circle cx="1154" cy="1368" r="8" class="c0"/>
<circle cx="958" cy="1024" r="8" class="c0"/>
<circle cx="1252" cy="1412" r="8" class="c0"/>
<circle cx="1076" cy="814" r="8" class="c0"/>
<circle cx="1254" cy="1300" r="8" class="c0"/>
<circle cx="1120" cy="894" r="8" class="c0"/>
<circle cx="1106" cy="870" r="8" class="c0"/>
<circle cx="986" cy="1136" r="8" class="c0"/>
<circle cx="1120" cy="930" r="8" class="c0"/>
<circle cx="1228" cy="922" r="8" class="c0"/>
<circle cx="1106" cy="1280" r="8" class="c0"/>
<circle cx="920" cy="652" r="8" class="c0"/>
<circle cx="1048" cy="1056" r="8" class="c0"/>
<circle cx="908" cy="708" r="8" class="c0"/>
<circle cx="1132" cy="694" r="8" class="c0"/>
<circle cx="958" cy="752" r="8" class="c0"/>
<circle cx="1048" cy="902" r="8" class="c0"/>
<circle cx="1126" cy="1318" r="8" class="c0"/>
<circle cx="1106" cy="694" r="8" class="c0"/>
<circle cx="1074" cy="902" r="8" class="c0"/>
<circle cx="1222" cy="470" r="8" class="c0"/>
<circle cx="1118" cy="794" r="8" class="c0"/>
<circle cx="1196" cy="1292" r="8" class="c0"/>
<circle cx="1034" cy="670" r="8" class="c0"/>
<circle cx="1070" cy="458" r="8" class="c0"/>
<circle cx="1120" cy="448" r="8" class="c0"/>
<circle cx="1036" cy="1378" r="8" class="c0"/>
<circle cx="940" cy="762" r="8" class="c0"/>
<circle cx="998" cy="1404" r="8" class="c0"/>
<circle cx="1068" cy="564" r="8" class="c0"/>
<circle cx="1244" cy="1356" r="8" class="c0"/>
<circle cx="1146" cy="1102" r="8" class="c0"/>
<circle cx="1024" cy="900" r="8" class="c0"/>
<circle cx="958" cy="912" r="8" class="c0"/>
<circle cx="1032" cy="1126" r="8" class="c0"/>
<circle cx="862" cy="416" r="8" class="c0"/>
<circle cx="1210" cy="744" r="8" class="c0"/>
<circle cx="1114" cy="426" r="8" class="c0"/>
<circle cx="1198" cy="1094" r="8" class="c0"/>
<circle cx="1122" cy="1070" r="8" class="c0"/>
<circle cx="1162" cy="532" r="8" class="c0"/>
<circle cx="1190" cy="508" r="8" class="c0"/>
<circle cx="936" cy="804" r="8" class="c0"/>
<circle cx="1094" cy="970" r="8" class="c0"/>
<circle cx="1014" cy="980" r="8" class="c0"/>
<circle cx="1150" cy="862" r="8" class="c0"/>
<circle cx="1014" cy="714" r="8" class="c0"/>
<circle cx="1220" cy="1396" r="8" class="c0"/>
<circle cx="1000" cy="750" r="8" class="c0"/>
<circle cx="940" cy="870" r="8" class="c0"/>
<circle cx="1172" cy="1408" r="8" class="c0"/>
<circle cx="1024" cy="1204" r="8" class="c0"/>
<circle cx="946" cy="616" r="8" class="c0"/>
<circle cx="1118" cy="624" r="8" class="c0"/>
<circle cx="1042" cy="1220" r="8" class="c0"/>
<circle cx="1258" cy="714" r="8" class="c0"/>
<circle cx="1036" cy="716" r="8" class="c0"/>
<circle cx="928" cy="632" r="8" class="c0"/>
<circle cx="952" cy="676" r="8" class="c0"/>
<circle cx="1106" cy="1322" r="8" class="c0"/>
<circle cx="1040" cy="1090" r="8" class="c0"/>
<circle cx="1196" cy="582" r="8" class="c0"/>
<circle cx="954" cy="998" r="8" class="c0"/>
<circle cx="1242" cy="1134" r="8" class="c0"/>
<circle cx="892" cy="626" r="8" class="c0"/>
<circle cx="990" cy="774" r="8" class="c0"/>
<circle cx="1248" cy="698" r="8" class="c0"/>
<circle cx="1092" cy="770" r="8" class="c0"/>
<circle cx="1210" cy="862" r="8" class="c0"/>
<circle cx="972" cy="1314" r="8" class="c0"/>
<circle cx="1246" cy="780" r="8" class="c0"/>
<circle cx="1180" cy="484" r="8" class="c0"/>
<circle cx="1220" cy="452" r="8" class="c0"/>
<circle cx="1030" cy="1146" r="8" class="c0"/>
<circle cx="1118" cy="956" r="8" class="c0"/>
<circle cx="1144" cy="1128" r="8" class="c0"/>
<circle cx="1200" cy="1414" r="8" class="c0"/>
<circle cx="1252" cy="648" r="8" class="c0"/>
<circle cx="1208" cy="562" r="8" class="c0"/>
<circle cx="926" cy="932" r="8" class="c0"/>
<circle cx="1056" cy="1040" r="8" class="c0"/>
<circle cx="978" cy="1104" r="8" class="c0"/>
<circle cx="1182" cy="970" r="8" class="c0"/>
<circle cx="962" cy="806" r="8" class="c0"/>
<circle cx="1084" cy="586" r="8" class="c0"/>
<circle cx="982" cy="1336" r="8" class="c0"/>
<circle cx="876" cy="506" r="8" class="c0"/>
<circle cx="1078" cy="868" r="8" class="c0"/>
<circle cx="1054" cy="1138" r="8" class="c0"/>
<circle cx="1214" cy="1110" r="8" class="c0"/>
<circle cx="982" cy="1158" r="8" class="c0"/>
<circle cx="1194" cy="824" r="8" class="c0"/>
<circle cx="928" cy="568" r="8" class="c0"/>
<circle cx="1140" cy="1406" r="8" class="c0"/>
<circle cx="1066" cy="1124" r="8" class="c0"/>
<circle cx="1010" cy="1420" r="8" class="c0"/>
<circle cx="990" cy="1202" r="8" class="c0"/>
<circle cx="996" cy="638" r="8" class="c0"/>
<circle cx="1058" cy="920" r="8" class="c0"/>
<circle cx="1162" cy="554" r="8" class="c0"/>
<circle cx="1170" cy="1350" r="8" class="c0"/>
<circle cx="1220" cy="848" r="8" class="c0"/>
<circle cx="1044" cy="536" r="8" class="c0"/>
<circle cx="1164" cy="1060" r="8" class="c0"/>
<circle cx="1200" cy="1014" r="8" class="c0"/>
<circle cx="1200" cy="450" r="8" class="c0"/>
<circle cx="1178" cy="678" r="8" class="c0"/>
<circle cx="962" cy="894" r="8" class="c0"/>
<circle cx="1196" cy="602" r="8" class="c0"/>
<circle cx="902" cy="640" r="8" class="c0"/>
<circle cx="970" cy="762" r="8" class="c0"/>
<circle cx="1124" cy="1362" r="8" class="c0"/>
<circle cx="1018" cy="938" r="8" class="c0"/>
<circle cx="1242" cy="934" r="8" class="c0"/>
<circle cx="1198" cy="1048" r="8" class="c0"/>
<circle cx="1140" cy="1290" r="8" class="c0"/>
<circle cx="1052" cy="982" r="8" class="c0"/>
<circle cx="1028" cy="1428" r="8" class="c0"/>
<circle cx="1090" cy="704" r="8" class="c0"/>
<circle cx="1140" cy="1052" r="8" class="c0"/>
<circle cx="1158" cy="1236" r="8" class="c0"/>
<circle cx="988" cy="1368" r="8" class="c0"/>
<circle cx="1228" cy="1150" r="8" class="c0"/>
<circle cx="1246" cy="1046" r="8" class="c0"/>
<circle cx="1004" cy="892" r="8" class="c0"/>
<circle cx="1110" cy="768" r="8" class="c0"/>
<circle cx="1164" cy="474" r="8" class="c0"/>
<circle cx="1224" cy="588" r="8" class="c0"/>
<circle cx="1094" cy="650" r="8" class="c0"/>
<circle cx="1240" cy="1226" r="8" class="c0"/>
<circle cx="1030" cy="1288" r="8" class="c0"/>
<circle cx="1102" cy="1378" r="8" class="c0"/>
<circle cx="1054" cy="728" r="8" class="c0"/>
<circle cx="1112" cy="544" r="8" class="c0"/>
<circle cx="1202" cy="1328" r="8" class="c0"/>
<circle cx="1064" cy="664" r="8" class="c0"/>
<circle cx="1256" cy="1200" r="8" class="c0"/>
<circle cx="928" cy="852" r="8" class="c0"/>
<circle cx="1222" cy="982" r="8" class="c0"/>
<circle cx="1230" cy="1026" r="8" class="c0"/>
<circle cx="1066" cy="1416" r="8" class="c0"/>
<circle cx="1028" cy="1230" r="8" class="c0"/>
<circle cx="1096" cy="1292" r="8" class="c0"/>
<circle cx="1126" cy="1154" r="8" class="c0"/>
<circle cx="972" cy="1146" r="8" class="c0"/>
<circle cx="1236" cy="570" r="8" class="c0"/>
<circle cx="1090" cy="624" r="8" class="c0"/>
<circle cx="1142" cy="716" r="8" class="c0"/>
<circle cx="1096" cy="1336" r="8" class="c0"/>
<circle cx="844" cy="334" r="8" class="c0"/>
<circle cx="946" cy="1308" r="8" class="c0"/>
<circle cx="1068" cy="476" r="8" class="c0"/>
<circle cx="988" cy="1272" r="8" class="c0"/>
<circle cx="1168" cy="1086" r="8" class="c0"/>
<circle cx="1142" cy="1254" r="8" class="c0"/>
<circle cx="1134" cy="1116" r="8" class="c0"/>
<circle cx="1092" cy="1054" r="8" class="c0"/>
<circle cx="1174" cy="734" r="8" class="c0"/>
<circle cx="1086" cy="752" r="8" class="c0"/>
<circle cx="1074" cy="1194" r="8" class="c0"/>
<circle cx="1164" cy="910" r="8" class="c0"/>
<circle cx="1034" cy="1270" r="8" class="c0"/>
<circle cx="960" cy="1340" r="8" class="c0"/>
<circle cx="1162" cy="444" r="8" class="c0"/>
<circle cx="1026" cy="654" r="8" class="c0"/>
<circle cx="1050" cy="678" r="8" class="c0"/>
<circle cx="1222" cy="1186" r="8" class="c0"/>
<circle cx="1200" cy="1250" r="8" class="c0"/>
<circle cx="1252" cy="760" r="8" class="c0"/>
<circle cx="1008" cy="948" r="8" class="c0"/>
<circle cx="1162" cy="1312" r="8" class="c0"/>
<circle cx="1066" cy="1218" r="8" class="c0"/>
<circle cx="958" cy="600" r="8" class="c0"/>
<circle cx="1144" cy="1428" r="8" class="c0"/>
<circle cx="1112" cy="676" r="8" class="c0"/>
<circle cx="1158" cy="1180" r="8" class="c0"/>
<circle cx="970" cy="1122" r="8" class="c0"/>
<circle cx="1144" cy="1322" r="8" class="c0"/>
<circle cx="1112" cy="1008" r="8" class="c0"/>
<circle cx="1166" cy="644" r="8" class="c0"/>
<circle cx="964" cy="1406" r="8" class="c0"/>
<circle cx="846" cy="286" r="8" class="c0"/>
<circle cx="1076" cy="932" r="8" class="c0"/>
<circle cx="1190" cy="688" r="8" class="c0"/>
<circle cx="1228" cy="714" r="8" class="c0"/>
<circle cx="1252" cy="1378" r="8" class="c0"/>
<circle cx="1198" cy="1148" r="8" class="c0"/>
<circle cx="1106" cy="1132" r="8" class="c0"/>
<circle cx="1254" cy="1278" r="8" class="c0"/>
<circle cx="1170" cy="1170" r="8" class="c0"/>
<circle cx="1012" cy="760" r="8" class="c0"/>
<circle cx="1182" cy="772" r="8" class="c0"/>
<circle cx="1256" cy="1322" r="8" class="c0"/>
<circle cx="1040" cy="1346" r="8" class="c0"/>
<circle cx="1118" cy="858" r="8" class="c0"/>
<circle cx="988" cy="716" r="8" class="c0"/>
<circle cx="1104" cy="638" r="8" class="c0"/>
<circle cx="1192" cy="1182" r="8" class="c0"/>
<circle cx="1148" cy="1272" r="8" class="c0"/>
<circle cx="1078" cy="1368" r="8" class="c0"/>
<circle cx="1236" cy="1426" r="8" class="c0"/>
<circle cx="1000" cy="1378" r="8" class="c0"/>
<circle cx="1046" cy="1260" r="8" class="c0"/>
<circle cx="1258" cy="1160" r="8" class="c0"/>
<circle cx="1242" cy="1312" r="8" class="c0"/>
<circle cx="1084" cy="1428" r="8" class="c0"/>
<circle cx="1040" cy="516" r="8" class="c0"/>
<circle cx="1088" cy="456" r="8" class="c0"/>
<circle cx="976" cy="906" r="8" class="c0"/>
<circle cx="1052" cy="1430" r="8" class="c0"/>
<circle cx="968" cy="1042" r="8" class="c0"/>
<circle cx="1178" cy="1050" r="8" class="c0"/>
<circle cx="916" cy="808" r="8" class="c0"/>
<circle cx="1234" cy="682" r="8" class="c0"/>
<circle cx="1174" cy="954" r="8" class="c0"/>
<circle cx="1230" cy="1236" r="8" class="c0"/>
<circle cx="1076" cy="440" r="8" class="c0"/>
<circle cx="1052" cy="1012" r="8" class="c0"/>
<circle cx="1044" cy="1116" r="8" class="c0"/>
<circle cx="1174" cy="432" r="8" class="c0"/>
<circle cx="1178" cy="630" r="8" class="c0"/>
<circle cx="1162" cy="1398" r="8" class="c0"/>
<circle cx="1076" cy="1330" r="8" class="c0"/>
<circle cx="942" cy="734" r="8" class="c0"/>
<circle cx="1104" cy="1066" r="8" class="c0"/>
<circle cx="1244" cy="972" r="8" class="c0"/>
<circle cx="1090" cy="854" r="8" class="c0"/>
<circle cx="1116" cy="1144" r="8" class="c0"/>
<circle cx="978" cy="1290" r="8" class="c0"/>
<circle cx="1212" cy="1282" r="8" class="c0"/>
<circle cx="1224" cy="1374" r="8" class="c0"/>
<circle cx="1178" cy="1098" r="8" class="c0"/>
<circle cx="1106" cy="806" r="8" class="c0"/>
<circle cx="986" cy="890" r="8" class="c0"/>
<circle cx="1124" cy="554" r="8" class="c0"/>
<circle cx="1264" cy="1180" r="8" class="c0"/>
<circle cx="1160" cy="416" r="8" class="c0"/>
<circle cx="904" cy="590" r="8" class="c0"/>
<circle cx="1162" cy="944" r="8" class="c0"/>
<circle cx="1138" cy="976" r="8" class="c0"/>
<circle cx="1100" cy="842" r="8" class="c0"/>
<circle cx="1254" cy="668" r="8" class="c0"/>
<circle cx="1212" cy="832" r="8" class="c0"/>
<circle cx="1238" cy="908" r="8" class="c0"/>
<circle cx="1050" cy="558" r="8" class="c0"/>
<circle cx="1164" cy="668" r="8" class="c0"/>
<circle cx="1044" cy="1302" r="8" class="c0"/>
<circle cx="1134" cy="904" r="8" class="c0"/>
<circle cx="1062" cy="1274" r="8" class="c0"/>
<circle cx="1226" cy="636" r="8" class="c0"/>
<circle cx="978" cy="1076" r="8" class="c0"/>
<circle cx="1128" cy="464" r="8" class="c0"/>
<circle cx="1160" cy="688" r="8" class="c0"/>
<circle cx="886" cy="488" r="8" class="c0"/>
<circle cx="1258" cy="732" r="6" class="c0"/>
<circle cx="1130" cy="804" r="6" class="c0"/>
<circle cx="904" cy="690" r="6" class="c0"/>
<circle cx="1238" cy="1208" r="6" class="c0"/>
<circle cx="1244" cy="1168" r="6" class="c0"/>
<circle cx="1010" cy="1002" r="6" class="c0"/>
<circle cx="1160" cy="874" r="6" class="c0"/>
<circle cx="942" cy="686" r="6" class="c0"/>
<circle cx="1228" cy="1072" r="6" class="c0"/>
<circle cx="916" cy="892" r="6" class="c0"/>
<circle cx="1232" cy="1322" r="6" class="c0"/>
<circle cx="1132" cy="428" r="6" class="c0"/>
<circle cx="1044" cy="1074" r="6" class="c0"/>
<circle cx="1246" cy="1108" r="6" class="c0"/>
<circle cx="1058" cy="1108" r="6" class="c0"/>
<circle cx="1018" cy="960" r="6" class="c0"/>
<circle cx="1186" cy="1422" r="6" class="c0"/>
<circle cx="1102" cy="782" r="6" class="c0"/>
<circle cx="930" cy="882" r="6" class="c0"/>
<circle cx="1204" cy="626" r="6" class="c0"/>
<circle cx="1126" cy="758" r="6" class="c0"/>
<circle cx="1218" cy="938" r="6" class="c0"/>
<circle cx="1060" cy="1092" r="6" class="c0"/>
<circle cx="946" cy="638" r="6" class="c0"/>
<circle cx="1122" cy="738" r="6" class="c0"/>
<circle cx="1266" cy="1240" r="6" class="c0"/>
<circle cx="1098" cy="552" r="6" class="c0"/>
<circle cx="940" cy="580" r="6" class="c0"/>
<circle cx="864" cy="296" r="6" class="c0"/>
<circle cx="868" cy="374" r="6" class="c0"/>
<circle cx="926" cy="708" r="6" class="c0"/>
<circle cx="936" cy="922" r="6" class="c0"/>
<circle cx="1010" cy="660" r="6" class="c0"/>
<circle cx="1144" cy="994" r="6" class="c0"/>
<circle cx="1232" cy="1174" r="6" class="c0"/>
<circle cx="1208" cy="930" r="6" class="c0"/>
<circle cx="1080" cy="1116" r="6" class="c0"/>
<circle cx="864" cy="318" r="6" class="c0"/>
<circle cx="1010" cy="1366" r="6" class="c0"/>
<circle cx="1244" cy="1152" r="6" class="c0"/>
<circle cx="1052" cy="472" r="6" class="c0"/>
<circle cx="1062" cy="1256" r="6" class="c0"/>
<circle cx="944" cy="1286" r="6" class="c0"/>
<circle cx="1004" cy="734" r="6" class="c0"/>
<circle cx="996" cy="1432" r="6" class="c0"/>
<circle cx="1190" cy="728" r="6" class="c0"/>
<circle cx="1172" cy="1378" r="6" class="c0"/>
<circle cx="1038" cy="1244" r="6" class="c0"/>
<circle cx="1110" cy="978" r="6" class="c0"/>
<circle cx="966" cy="944" r="6" class="c0"/>
<circle cx="1110" cy="1404" r="6" class="c0"/>
<circle cx="964" cy="1372" r="6" class="c0"/>
<circle cx="1162" cy="1024" r="6" class="c0"/>
<circle cx="1048" cy="632" r="6" class="c0"/>
<circle cx="930" cy="666" r="6" class="c0"/>
<circle cx="1164" cy="516" r="6" class="c0"/>
<circle cx="1142" cy="1206" r="6" class="c0"/>
<circle cx="1220" cy="1414" r="6" class="c0"/>
<circle cx="1084" cy="912" r="6" class="c0"/>
<circle cx="1238" cy="842" r="6" class="c0"/>
<circle cx="892" cy="510" r="6" class="c0"/>
<circle cx="1248" cy="608" r="6" class="c0"/>
<circle cx="1246" cy="530" r="6" class="c0"/>
<circle cx="1082" cy="1210" r="6" class="c0"/>
<circle cx="1010" cy="908" r="6" class="c0"/>
<circle cx="1102" cy="494" r="6" class="c0"/>
<circle cx="1072" cy="1156" r="6" class="c0"/>
<circle cx="1180" cy="1360" r="6" class="c0"/>
<circle cx="1260" cy="602" r="6" class="c0"/>
<circle cx="1000" cy="1160" r="6" class="c0"/>
<circle cx="832" cy="296" r="6" class="c0"/>
<circle cx="978" cy="650" r="6" class="c0"/>
<circle cx="1246" cy="990" r="6" class="c0"/>
<circle cx="1234" cy="1410" r="6" class="c0"/>
<circle cx="994" cy="676" r="6" class="c0"/>
<circle cx="948" cy="980" r="6" class="c0"/>
<circle cx="1188" cy="890" r="6" class="c0"/>
<circle cx="1182" cy="522" r="6" class="c0"/>
<circle cx="1146" cy="792" r="6" class="c0"/>
<circle cx="1072" cy="1264" r="6" class="c0"/>
<circle cx="1020" cy="744" r="6" class="c0"/>
<circle cx="1208" cy="512" r="6" class="c0"/>
<circle cx="1116" cy="1190" r="6" class="c0"/>
<circle cx="1090" cy="484" r="6" class="c0"/>
<circle cx="1028" cy="1162" r="6" class="c0"/>
<circle cx="930" cy="694" r="6" class="c0"/>
<circle cx="1220" cy="1088" r="6" class="c0"/>
<circle cx="1242" cy="1064" r="6" class="c0"/>
<circle cx="1142" cy="414" r="6" class="c0"/>
<circle cx="1182" cy="836" r="6" class="c0"/>
<circle cx="1028" cy="1110" r="6" class="c0"/>
<circle cx="1122" cy="914" r="6" class="c0"/>
<circle cx="1260" cy="1392" r="6" class="c0"/>
<circle cx="860" cy="432" r="6" class="c0"/>
<circle cx="1034" cy="888" r="6" class="c0"/>
<circle cx="1102" cy="1396" r="6" class="c0"/>
<circle cx="1210" cy="544" r="6" class="c0"/>
<circle cx="1144" cy="1356" r="6" class="c0"/>
<circle cx="1114" cy="752" r="6" class="c0"/>
<circle cx="1132" cy="1004" r="6" class="c0"/>
<circle cx="1146" cy="1192" r="6" class="c0"/>
<circle cx="926" cy="770" r="6" class="c0"/>
<circle cx="1198" cy="1392" r="6" class="c0"/>
<circle cx="1188" cy="790" r="6" class="c0"/>
<circle cx="1068" cy="718" r="6" class="c0"/>
<circle cx="876" cy="408" r="6" class="c0"/>
<circle cx="1222" cy="782" r="6" class="c0"/>
<circle cx="1248" cy="1028" r="6" class="c0"/>
<circle cx="1006" cy="620" r="6" class="c0"/>
<circle cx="1142" cy="1144" r="6" class="c0"/>
<circle cx="932" cy="744" r="6" class="c0"/>
<circle cx="1208" cy="974" r="6" class="c0"/>
<circle cx="1168" cy="1424" r="6" class="c0"/>
<circle cx="880" cy="428" r="6" class="c0"/>
<circle cx="882" cy="554" r="6" class="c0"/>
<circle cx="1090" cy="878" r="6" class="c0"/>
<circle cx="1042" cy="994" r="6" class="c0"/>
<circle cx="1038" cy="1174" r="6" class="c0"/>
<circle cx="992" cy="942" r="6" class="c0"/>
<circle cx="1020" cy="1408" r="6" class="c0"/>
<circle cx="854" cy="400" r="6" class="c0"/>
<circle cx="1086" cy="954" r="6" class="c0"/>
<circle cx="1086" cy="1070" r="6" class="c0"/>
<circle cx="1076" cy="1404" r="6" class="c0"/>
<circle cx="1118" cy="1086" r="6" class="c0"/>
<circle cx="1106" cy="1424" r="6" class="c0"/>
<circle cx="1102" cy="1264" r="6" class="c0"/>
<circle cx="1238" cy="1390" r="6" class="c0"/>
<circle cx="1198" cy="878" r="6" class="c0"/>
<circle cx="952" cy="880" r="6" class="c0"/>
<circle cx="1190" cy="1204" r="6" class="c0"/>
<circle cx="1090" cy="430" r="6" class="c0"/>
<circle cx="1164" cy="604" r="6" class="c0"/>
<circle cx="1176" cy="900" r="6" class="c0"/>
<circle cx="1242" cy="814" r="6" class="c0"/>
<circle cx="1214" cy="1242" r="6" class="c0"/>
<circle cx="980" cy="1188" r="6" class="c0"/>
<circle cx="1128" cy="966" r="6" class="c0"/>
<circle cx="1130" cy="1242" r="6" class="c0"/>
<circle cx="1050" cy="1100" r="6" class="c0"/>
<circle cx="910" cy="778" r="6" class="c0"/>
<circle cx="1116" cy="1122" r="6" class="c0"/>
<circle cx="1084" cy="472" r="6" class="c0"/>
<circle cx="1116" cy="1164" r="6" class="c0"/>
<circle cx="1038" cy="1196" r="6" class="c0"/>
<circle cx="1056" cy="622" r="6" class="c0"/>
<circle cx="1186" cy="1132" r="6" class="c0"/>
<circle cx="1078" cy="648" r="6" class="c0"/>
<circle cx="1230" cy="1102" r="6" class="c0"/>
<circle cx="930" cy="614" r="6" class="c0"/>
<circle cx="1058" cy="964" r="6" class="c0"/>
<circle cx="1114" cy="506" r="6" class="c0"/>
<circle cx="1210" cy="436" r="6" class="c0"/>
<circle cx="1066" cy="824" r="6" class="c0"/>
<circle cx="1096" cy="1362" r="6" class="c0"/>
<circle cx="1114" cy="1026" r="6" class="c0"/>
<circle cx="1228" cy="870" r="6" class="c0"/>
<circle cx="1102" cy="1238" r="6" class="c0"/>
<circle cx="1028" cy="948" r="6" class="c0"/>
<circle cx="1114" cy="1338" r="6" class="c0"/>
<circle cx="1238" cy="484" r="6" class="c0"/>
<circle cx="1220" cy="908" r="6" class="c0"/>
<circle cx="1158" cy="750" r="6" class="c0"/>
<circle cx="1002" cy="970" r="6" class="c0"/>
<circle cx="1262" cy="630" r="6" class="c0"/>
<circle cx="1208" cy="664" r="6" class="c0"/>
<circle cx="1136" cy="1306" r="6" class="c0"/>
<circle cx="1168" cy="886" r="6" class="c0"/>
<circle cx="1172" cy="542" r="6" class="c0"/>
<circle cx="1144" cy="1386" r="6" class="c0"/>
<circle cx="1062" cy="1172" r="6" class="c0"/>
<circle cx="952" cy="694" r="6" class="c0"/>
<circle cx="1032" cy="1048" r="6" class="c0"/>
<circle cx="1002" cy="1326" r="6" class="c0"/>
<circle cx="916" cy="578" r="6" class="c0"/>
<circle cx="902" cy="544" r="6" class="c0"/>
<circle cx="1172" cy="612" r="6" class="c0"/>
<circle cx="1080" cy="610" r="6" class="c0"/>
<circle cx="1210" cy="1356" r="6" class="c0"/>
<circle cx="1218" cy="656" r="6" class="c0"/>
<circle cx="938" cy="842" r="6" class="c0"/>
<circle cx="1144" cy="880" r="6" class="c0"/>
<circle cx="944" cy="888" r="6" class="c0"/>
<circle cx="1082" cy="888" r="6" class="c0"/>
<circle cx="1002" cy="1258" r="6" class="c0"/>
<circle cx="952" cy="1324" r="6" class="c0"/>
<circle cx="1172" cy="1268" r="6" class="c0"/>
<circle cx="1106" cy="1174" r="6" class="c0"/>
<circle cx="1242" cy="1268" r="6" class="c0"/>
<circle cx="942" cy="956" r="6" class="c0"/>
<circle cx="1114" cy="1432" r="6" class="c0"/>
<circle cx="1212" cy="1430" r="6" class="c0"/>
<circle cx="950" cy="1350" r="6" class="c0"/>
<circle cx="1072" cy="1014" r="6" class="c0"/>
<circle cx="1018" cy="916" r="6" class="c0"/>
<circle cx="1178" cy="1238" r="6" class="c0"/>
<circle cx="976" cy="1432" r="6" class="c0"/>
<circle cx="1066" cy="1346" r="6" class="c0"/>
<circle cx="1182" cy="720" r="6" class="c0"/>
<circle cx="1206" cy="592" r="6" class="c0"/>
<circle cx="1212" cy="916" r="6" class="c0"/>
<circle cx="1042" cy="482" r="6" class="c0"/>
<circle cx="1216" cy="1010" r="6" class="c0"/>
<circle cx="970" cy="1010" r="6" class="c0"/>
<circle cx="1148" cy="698" r="6" class="c0"/>
<circle cx="1124" cy="416" r="6" class="c0"/>
<circle cx="880" cy="540" r="6" class="c0"/>
<circle cx="956" cy="1386" r="6" class="c0"/>
<circle cx="1066" cy="798" r="6" class="c0"/>
<circle cx="1054" cy="756" r="6" class="c0"/>
<circle cx="1192" cy="638" r="6" class="c0"/>
<circle cx="1062" cy="1024" r="6" class="c0"/>
<circle cx="1272" cy="1374" r="6" class="c0"/>
<circle cx="1176" cy="696" r="6" class="c0"/>
<circle cx="1220" cy="734" r="6" class="c0"/>
<circle cx="850" cy="380" r="6" class="c0"/>
<circle cx="944" cy="818" r="6" class="c0"/>
<circle cx="1150" cy="1302" r="6" class="c0"/>
<circle cx="1214" cy="578" r="6" class="c0"/>
<circle cx="1082" cy="556" r="6" class="c0"/>
<circle cx="986" cy="758" r="6" class="c0"/>
<circle cx="1196" cy="1064" r="6" class="c0"/>
<circle cx="1010" cy="1196" r="6" class="c0"/>
<circle cx="1246" cy="560" r="6" class="c0"/>
<circle cx="1200" cy="520" r="6" class="c0"/>
<circle cx="884" cy="458" r="6" class="c0"/>
<circle cx="1254" cy="1144" r="6" class="c0"/>
<circle cx="1224" cy="1166" r="6" class="c0"/>
<circle cx="882" cy="612" r="6" class="c0"/>
<circle cx="906" cy="734" r="6" class="c0"/>
<circle cx="1264" cy="1336" r="6" class="c0"/>
<circle cx="1010" cy="1318" r="6" class="c0"/>
<circle cx="1194" cy="864" r="6" class="c0"/>
<circle cx="1064" cy="1376" r="6" class="c0"/>
<circle cx="1254" cy="1234" r="6" class="c0"/>
<circle cx="1066" cy="614" r="6" class="c0"/>
<circle cx="1138" cy="1370" r="6" class="c0"/>
<circle cx="964" cy="686" r="6" class="c0"/>
<circle cx="968" cy="610" r="6" class="c0"/>
<circle cx="1100" cy="714" r="6" class="c0"/>
<circle cx="930" cy="948" r="6" class="c0"/>
<circle cx="1208" cy="998" r="6" class="c0"/>
<circle cx="1222" cy="510" r="6" class="c0"/>
<circle cx="1184" cy="442" r="6" class="c0"/>
<circle cx="1154" cy="1414" r="6" class="c0"/>
<circle cx="1216" cy="966" r="6" class="c0"/>
<circle cx="1122" cy="812" r="6" class="c0"/>
<circle cx="1250" cy="1074" r="6" class="c0"/>
<circle cx="1076" cy="1052" r="6" class="c0"/>
<circle cx="1068" cy="1432" r="6" class="c0"/>
<circle cx="938" cy="778" r="6" class="c0"/>
<circle cx="1246" cy="1334" r="6" class="c0"/>
<circle cx="1254" cy="574" r="6" class="c0"/>
<circle cx="1172" cy="1122" r="6" class="c0"/>
<circle cx="1100" cy="1036" r="6" class="c0"/>
<circle cx="932" cy="1298" r="6" class="c0"/>
<circle cx="1136" cy="888" r="6" class="c0"/>
<circle cx="1232" cy="1196" r="6" class="c0"/>
<circle cx="1260" cy="1428" r="6" class="c0"/>
<circle cx="1258" cy="616" r="6" class="c0"/>
<circle cx="1100" cy="614" r="6" class="c0"/>
<circle cx="1092" cy="1122" r="6" class="c0"/>
<circle cx="1196" cy="1432" r="6" class="c0"/>
</svg>
