<?xml version="1.0" encoding="utf-8"?>
<svg xmlns="http://www.w3.org/2000/svg"
     xmlns:xlink="http://www.w3.org/1999/xlink" width="1920" height="1440" >

            <defs>
            <style type="text/css"><![CDATA[
circle {stroke: none;}
.c0 {fill: #000000;}
]]></style>
            </defs>
<rect x="0" y="0" width="1920" height="1440" fill="white"/>
<circle cx="1190" cy="818" r="14" class="c0"/>
<circle cx="1280" cy="992" r="12" class="c0"/>
<circle cx="1012" cy="862" r="12" class="c0"/>
<circle cx="896" cy="848" r="12" class="c0"/>
<circle cx="1136" cy="1174" r="12" class="c0"/>
<circle cx="1266" cy="1012" r="12" class="c0"/>
<circle cx="1130" cy="800" r="12" class="c0"/>
<circle cx="996" cy="876" r="12" class="c0"/>
<circle cx="1152" cy="1054" r="12" class="c0"/>
<circle cx="974" cy="928" r="12" class="c0"/>
<circle cx="914" cy="1022" r="12" class="c0"/>
<circle cx="1292" cy="940" r="12" class="c0"/>
<circle cx="1038" cy="1172" r="12" class="c0"/>
<circle cx="1020" cy="1124" r="12" class="c0"/>
<circle cx="1130" cy="1142" r="12" class="c0"/>
<circle cx="1198" cy="1036" r="12" class="c0"/>
<circle cx="1056" cy="1028" r="12" class="c0"/>
<circle cx="1108" cy="1132" r="12" class="c0"/>
<circle cx="1186" cy="910" r="12" class="c0"/>
<circle cx="848" cy="904" r="12" class="c0"/>
<circle cx="1200" cy="1070" r="12" class="c0"/>
<circle cx="862" cy="1104" r="12" class="c0"/>
<circle cx="914" cy="970" r="12" class="c0"/>
<circle cx="1004" cy="934" r="12" class="c0"/>
<circle cx="960" cy="992" r="12" class="c0"/>
<circle cx="1236" cy="1022" r="12" class="c0"/>
<circle cx="1080" cy="1212" r="12" class="c0"/>
<circle cx="1270" cy="960" r="12" class="c0"/>
<circle cx="1186" cy="1156" r="12" class="c0"/>
<circle cx="1128" cy="1102" r="12" class="c0"/>
<circle cx="1064" cy="962" r="12" class="c0"/>
<circle cx="1270" cy="914" r="12" class="c0"/>
<circle cx="976" cy="1030" r="12" class="c0"/>
<circle cx="954" cy="1110" r="12" class="c0"/>
<circle cx="990" cy="776" r="12" class="c0"/>
<circle cx="1226" cy="1104" r="12" class="c0"/>
<circle cx="1110" cy="1022" r="12" class="c0"/>
<circle cx="1036" cy="812" r="10" class="c0"/>
<circle cx="1180" cy="956" r="10" class="c0"/>
<circle cx="1080" cy="824" r="10" class="c0"/>
<circle cx="1040" cy="906" r="10" class="c0"/>
<circle cx="1078" cy="1088" r="10" class="c0"/>
<circle cx="1050" cy="1082" r="10" class="c0"/>
<circle cx="956" cy="754" r="10" class="c0"/>
<circle cx="1236" cy="956" r="10" class="c0"/>
<circle cx="1010" cy="1218" r="10" class="c0"/>
<circle cx="898" cy="880" r="10" class="c0"/>
<circle cx="942" cy="952" r="10" class="c0"/>
<circle cx="1240" cy="912" r="10" class="c0"/>
<circle cx="1120" cy="986" r="10" class="c0"/>
<circle cx="988" cy="954" r="10" class="c0"/>
<circle cx="1162" cy="840" r="10" class="c0"/>
<circle cx="1096" cy="932" r="10" class="c0"/>
<circle cx="956" cy="1078" r="10" class="c0"/>
<circle cx="1224" cy="996" r="10" class="c0"/>
<circle cx="1102" cy="1044" r="10" class="c0"/>
<circle cx="958" cy="1184" r="10" class="c0"/>
<circle cx="1166" cy="792" r="10" class="c0"/>
<circle cx="864" cy="938" r="10" class="c0"/>
<circle cx="1170" cy="1036" r="10" class="c0"/>
<circle cx="1096" cy="782" r="10" class="c0"/>
<circle cx="1034" cy="942" r="10" class="c0"/>
<circle cx="1082" cy="1142" r="10" class="c0"/>
<circle cx="946" cy="782" r="10" class="c0"/>
<circle cx="924" cy="818" r="10" class="c0"/>
<circle cx="1134" cy="1018" r="10" class="c0"/>
<circle cx="910" cy="900" r="10" class="c0"/>
<circle cx="960" cy="1152" r="10" class="c0"/>
<circle cx="1022" cy="1032" r="10" class="c0"/>
<circle cx="920" cy="1134" r="10" class="c0"/>
<circle cx="1204" cy="1136" r="10" class="c0"/>
<circle cx="1108" cy="834" r="10" class="c0"/>
<circle cx="1008" cy="1164" r="10" class="c0"/>
<circle cx="1016" cy="1184" r="10" class="c0"/>
<circle cx="1102" cy="1082" r="10" class="c0"/>
<circle cx="1092" cy="1100" r="10" class="c0"/>
<circle cx="978" cy="1162" r="10" class="c0"/>
<circle cx="1136" cy="924" r="10" class="c0"/>
<circle cx="986" cy="1082" r="10" class="c0"/>
<circle cx="1038" cy="750" r="10" class="c0"/>
<circle cx="1192" cy="1012" r="10" class="c0"/>
<circle cx="1296" cy="1034" r="10" class="c0"/>
<circle cx="1010" cy="744" r="10" class="c0"/>
<circle cx="1048" cy="1216" r="10" class="c0"/>
<circle cx="900" cy="1060" r="10" class="c0"/>
<circle cx="1004" cy="810" r="10" class="c0"/>
<circle cx="1006" cy="1106" r="10" class="c0"/>
<circle cx="830" cy="928" r="10" class="c0"/>
<circle cx="1066" cy="1124" r="10" class="c0"/>
<circle cx="990" cy="992" r="10" class="c0"/>
<circle cx="1258" cy="1058" r="10" class="c0"/>
<circle cx="896" cy="1116" r="10" class="c0"/>
<circle cx="916" cy="1106" r="10" class="c0"/>
<circle cx="1168" cy="1140" r="10" class="c0"/>
<circle cx="994" cy="1144" r="10" class="c0"/>
<circle cx="848" cy="1036" r="10" class="c0"/>
<circle cx="1150" cy="894" r="10" class="c0"/>
<circle cx="1130" cy="836" r="10" class="c0"/>
<circle cx="1110" cy="770" r="10" class="c0"/>
<circle cx="1212" cy="938" r="10" class="c0"/>
<circle cx="884" cy="1134" r="10" class="c0"/>
<circle cx="1006" cy="1004" r="10" class="c0"/>
<circle cx="1034" cy="1004" r="10" class="c0"/>
<circle cx="882" cy="982" r="10" class="c0"/>
<circle cx="1060" cy="1202" r="10" class="c0"/>
<circle cx="1160" cy="998" r="10" class="c0"/>
<circle cx="1308" cy="972" r="10" class="c0"/>
<circle cx="1294" cy="1062" r="10" class="c0"/>
<circle cx="1082" cy="852" r="10" class="c0"/>
<circle cx="1174" cy="1088" r="10" class="c0"/>
<circle cx="986" cy="1192" r="10" class="c0"/>
<circle cx="1142" cy="1116" r="10" class="c0"/>
<circle cx="1036" cy="882" r="10" class="c0"/>
<circle cx="876" cy="922" r="10" class="c0"/>
<circle cx="848" cy="1070" r="10" class="c0"/>
<circle cx="1078" cy="1042" r="10" class="c0"/>
<circle cx="1164" cy="1110" r="10" class="c0"/>
<circle cx="872" cy="1074" r="10" class="c0"/>
<circle cx="1192" cy="852" r="10" class="c0"/>
<circle cx="1068" cy="986" r="10" class="c0"/>
<circle cx="1132" cy="1064" r="10" class="c0"/>
<circle cx="988" cy="854" r="10" class="c0"/>
<circle cx="934" cy="986" r="10" class="c0"/>
<circle cx="856" cy="1000" r="10" class="c0"/>
<circle cx="1160" cy="932" r="10" class="c0"/>
<circle cx="1098" cy="904" r="8" class="c0"/>
<circle cx="904" cy="934" r="8" class="c0"/>
<circle cx="1110" cy="1158" r="8" class="c0"/>
<circle cx="972" cy="1136" r="8" class="c0"/>
<circle cx="1022" cy="1088" r="8" class="c0"/>
<circle cx="864" cy="890" r="8" class="c0"/>
<circle cx="1116" cy="942" r="8" class="c0"/>
<circle cx="1214" cy="912" r="8" class="c0"/>
<circle cx="1206" cy="794" r="8" class="c0"/>
<circle cx="896" cy="1088" r="8" class="c0"/>
<circle cx="862" cy="968" r="8" class="c0"/>
<circle cx="926" cy="854" r="8" class="c0"/>
<circle cx="846" cy="950" r="8" class="c0"/>
<circle cx="976" cy="1064" r="8" class="c0"/>
<circle cx="936" cy="832" r="8" class="c0"/>
<circle cx="1204" cy="990" r="8" class="c0"/>
<circle cx="1166" cy="1184" r="8" class="c0"/>
<circle cx="826" cy="970" r="8" class="c0"/>
<circle cx="1244" cy="1078" r="8" class="c0"/>
<circle cx="1276" cy="1040" r="8" class="c0"/>
<circle cx="1222" cy="1036" r="8" class="c0"/>
<circle cx="1080" cy="890" r="8" class="c0"/>
<circle cx="1044" cy="834" r="8" class="c0"/>
<circle cx="954" cy="856" r="8" class="c0"/>
<circle cx="974" cy="792" r="8" class="c0"/>
<circle cx="1094" cy="1182" r="8" class="c0"/>
<circle cx="828" cy="1006" r="8" class="c0"/>
<circle cx="982" cy="1212" r="8" class="c0"/>
<circle cx="932" cy="1176" r="8" class="c0"/>
<circle cx="1060" cy="776" r="8" class="c0"/>
<circle cx="880" cy="828" r="8" class="c0"/>
<circle cx="934" cy="1118" r="8" class="c0"/>
<circle cx="894" cy="1008" r="8" class="c0"/>
<circle cx="892" cy="952" r="8" class="c0"/>
<circle cx="1012" cy="888" r="8" class="c0"/>
<circle cx="1038" cy="1200" r="8" class="c0"/>
<circle cx="1064" cy="812" r="8" class="c0"/>
<circle cx="866" cy="1046" r="8" class="c0"/>
<circle cx="1062" cy="924" r="8" class="c0"/>
<circle cx="934" cy="930" r="8" class="c0"/>
<circle cx="840" cy="1102" r="8" class="c0"/>
<circle cx="1110" cy="888" r="8" class="c0"/>
<circle cx="918" cy="1048" r="8" class="c0"/>
<circle cx="1134" cy="962" r="8" class="c0"/>
<circle cx="960" cy="802" r="8" class="c0"/>
<circle cx="1018" cy="954" r="8" class="c0"/>
<circle cx="914" cy="1080" r="8" class="c0"/>
<circle cx="1194" cy="882" r="8" class="c0"/>
<circle cx="1060" cy="1160" r="8" class="c0"/>
<circle cx="990" cy="916" r="8" class="c0"/>
<circle cx="1304" cy="1016" r="8" class="c0"/>
<circle cx="936" cy="1050" r="8" class="c0"/>
<circle cx="1218" cy="870" r="8" class="c0"/>
<circle cx="1258" cy="1114" r="8" class="c0"/>
<circle cx="1238" cy="1120" r="8" class="c0"/>
<circle cx="1112" cy="1178" r="8" class="c0"/>
<circle cx="1226" cy="1144" r="8" class="c0"/>
<circle cx="1254" cy="972" r="8" class="c0"/>
<circle cx="1262" cy="936" r="8" class="c0"/>
<circle cx="1246" cy="992" r="8" class="c0"/>
<circle cx="1226" cy="1054" r="8" class="c0"/>
<circle cx="1180" cy="986" r="8" class="c0"/>
<circle cx="1142" cy="824" r="8" class="c0"/>
<circle cx="1040" cy="980" r="8" class="c0"/>
<circle cx="1236" cy="882" r="8" class="c0"/>
<circle cx="1100" cy="964" r="8" class="c0"/>
<circle cx="1094" cy="750" r="8" class="c0"/>
<circle cx="934" cy="1032" r="8" class="c0"/>
<circle cx="958" cy="908" r="8" class="c0"/>
<circle cx="1030" cy="1072" r="8" class="c0"/>
<circle cx="1138" cy="1084" r="8" class="c0"/>
<circle cx="1272" cy="1076" r="8" class="c0"/>
<circle cx="944" cy="866" r="8" class="c0"/>
<circle cx="976" cy="824" r="8" class="c0"/>
<circle cx="1058" cy="1006" r="8" class="c0"/>
<circle cx="1148" cy="950" r="8" class="c0"/>
<circle cx="916" cy="792" r="8" class="c0"/>
<circle cx="1168" cy="1166" r="8" class="c0"/>
<circle cx="1084" cy="1172" r="8" class="c0"/>
<circle cx="1222" cy="780" r="8" class="c0"/>
<circle cx="1026" cy="1052" r="8" class="c0"/>
<circle cx="928" cy="1154" r="8" class="c0"/>
<circle cx="1280" cy="1094" r="8" class="c0"/>
<circle cx="1144" cy="776" r="8" class="c0"/>
<circle cx="952" cy="968" r="8" class="c0"/>
<circle cx="1156" cy="1020" r="8" class="c0"/>
<circle cx="986" cy="754" r="8" class="c0"/>
<circle cx="1022" cy="732" r="8" class="c0"/>
<circle cx="1024" cy="796" r="8" class="c0"/>
<circle cx="810" cy="1012" r="8" class="c0"/>
<circle cx="1076" cy="786" r="8" class="c0"/>
<circle cx="1020" cy="988" r="8" class="c0"/>
<circle cx="946" cy="1136" r="8" class="c0"/>
<circle cx="992" cy="1056" r="8" class="c0"/>
<circle cx="1090" cy="1008" r="8" class="c0"/>
<circle cx="824" cy="1064" r="8" class="c0"/>
<circle cx="1258" cy="1094" r="8" class="c0"/>
<circle cx="1074" cy="764" r="8" class="c0"/>
<circle cx="1026" cy="776" r="8" class="c0"/>
<circle cx="1014" cy="906" r="8" class="c0"/>
<circle cx="846" cy="982" r="8" class="c0"/>
<circle cx="976" cy="980" r="8" class="c0"/>
<circle cx="948" cy="894" r="8" class="c0"/>
<circle cx="1128" cy="866" r="8" class="c0"/>
<circle cx="1086" cy="802" r="8" class="c0"/>
<circle cx="1078" cy="1020" r="8" class="c0"/>
<circle cx="1192" cy="1098" r="8" class="c0"/>
<circle cx="1236" cy="852" r="8" class="c0"/>
<circle cx="1160" cy="976" r="8" class="c0"/>
<circle cx="962" cy="956" r="8" class="c0"/>
<circle cx="904" cy="826" r="8" class="c0"/>
<circle cx="1180" cy="1060" r="8" class="c0"/>
<circle cx="878" cy="868" r="8" class="c0"/>
<circle cx="1064" cy="1054" r="8" class="c0"/>
<circle cx="1106" cy="1198" r="8" class="c0"/>
<circle cx="1092" cy="988" r="8" class="c0"/>
<circle cx="944" cy="812" r="8" class="c0"/>
<circle cx="890" cy="1030" r="8" class="c0"/>
<circle cx="1116" cy="910" r="8" class="c0"/>
<circle cx="1030" cy="1142" r="8" class="c0"/>
<circle cx="1126" cy="1198" r="8" class="c0"/>
<circle cx="904" cy="990" r="8" class="c0"/>
<circle cx="962" cy="878" r="8" class="c0"/>
<circle cx="1058" cy="846" r="8" class="c0"/>
<circle cx="1238" cy="932" r="8" class="c0"/>
<circle cx="990" cy="736" r="8" class="c0"/>
<circle cx="1210" cy="842" r="8" class="c0"/>
<circle cx="1002" cy="1070" r="8" class="c0"/>
<circle cx="1094" cy="1062" r="8" class="c0"/>
<circle cx="1216" cy="1014" r="8" class="c0"/>
<circle cx="950" cy="1040" r="8" class="c0"/>
<circle cx="872" cy="956" r="8" class="c0"/>
<circle cx="1068" cy="836" r="8" class="c0"/>
<circle cx="886" cy="906" r="8" class="c0"/>
<circle cx="1054" cy="802" r="8" class="c0"/>
<circle cx="968" cy="766" r="8" class="c0"/>
<circle cx="1048" cy="866" r="8" class="c0"/>
<circle cx="812" cy="1032" r="8" class="c0"/>
<circle cx="1090" cy="1030" r="8" class="c0"/>
<circle cx="1084" cy="872" r="8" class="c0"/>
<circle cx="1204" cy="894" r="8" class="c0"/>
<circle cx="996" cy="832" r="8" class="c0"/>
<circle cx="1064" cy="904" r="8" class="c0"/>
<circle cx="936" cy="1006" r="8" class="c0"/>
<circle cx="982" cy="1118" r="8" class="c0"/>
<circle cx="1058" cy="756" r="8" class="c0"/>
<circle cx="868" cy="854" r="8" class="c0"/>
<circle cx="936" cy="1086" r="8" class="c0"/>
<circle cx="1040" cy="1102" r="8" class="c0"/>
<circle cx="1080" cy="942" r="8" class="c0"/>
<circle cx="1118" cy="856" r="8" class="c0"/>
<circle cx="1130" cy="900" r="8" class="c0"/>
<circle cx="1200" cy="964" r="8" class="c0"/>
<circle cx="1016" cy="832" r="8" class="c0"/>
<circle cx="814" cy="990" r="8" class="c0"/>
<circle cx="1192" cy="944" r="8" class="c0"/>
<circle cx="1210" cy="1116" r="8" class="c0"/>
<circle cx="964" cy="844" r="8" class="c0"/>
<circle cx="902" cy="1144" r="8" class="c0"/>
<circle cx="1042" cy="792" r="8" class="c0"/>
<circle cx="938" cy="1198" r="8" class="c0"/>
<circle cx="868" cy="1012" r="8" class="c0"/>
<circle cx="896" cy="916" r="8" class="c0"/>
<circle cx="1048" cy="1136" r="8" class="c0"/>
<circle cx="1174" cy="876" r="8" class="c0"/>
<circle cx="1108" cy="794" r="8" class="c0"/>
<circle cx="1032" cy="1228" r="8" class="c0"/>
<circle cx="936" cy="912" r="8" class="c0"/>
<circle cx="1058" cy="878" r="8" class="c0"/>
<circle cx="1068" cy="1072" r="8" class="c0"/>
<circle cx="1150" cy="1192" r="8" class="c0"/>
<circle cx="1060" cy="732" r="8" class="c0"/>
<circle cx="932" cy="882" r="8" class="c0"/>
<circle cx="906" cy="808" r="8" class="c0"/>
<circle cx="984" cy="806" r="8" class="c0"/>
<circle cx="884" cy="1100" r="8" class="c0"/>
<circle cx="1266" cy="888" r="8" class="c0"/>
<circle cx="1080" cy="918" r="8" class="c0"/>
<circle cx="1244" cy="1044" r="8" class="c0"/>
<circle cx="1122" cy="1048" r="8" class="c0"/>
<circle cx="916" cy="924" r="8" class="c0"/>
<circle cx="972" cy="1010" r="6" class="c0"/>
<circle cx="916" cy="874" r="6" class="c0"/>
<circle cx="950" cy="926" r="6" class="c0"/>
<circle cx="1100" cy="818" r="6" class="c0"/>
<circle cx="1214" cy="820" r="6" class="c0"/>
<circle cx="820" cy="1046" r="6" class="c0"/>
<circle cx="1058" cy="1184" r="6" class="c0"/>
<circle cx="1066" cy="864" r="6" class="c0"/>
<circle cx="924" cy="948" r="6" class="c0"/>
<circle cx="1104" cy="872" r="6" class="c0"/>
<circle cx="1158" cy="1154" r="6" class="c0"/>
<circle cx="1290" cy="974" r="6" class="c0"/>
<circle cx="1020" cy="924" r="6" class="c0"/>
<circle cx="1148" cy="864" r="6" class="c0"/>
<circle cx="1208" cy="1166" r="6" class="c0"/>
<circle cx="844" cy="1016" r="6" class="c0"/>
<circle cx="974" cy="904" r="6" class="c0"/>
<circle cx="1036" cy="960" r="6" class="c0"/>
<circle cx="1212" cy="1088" r="6" class="c0"/>
<circle cx="1222" cy="1072" r="6" class="c0"/>
<circle cx="954" cy="1208" r="6" class="c0"/>
<circle cx="878" cy="1002" r="6" class="c0"/>
<circle cx="888" cy="1048" r="6" class="c0"/>
<circle cx="1002" cy="1028" r="6" class="c0"/>
<circle cx="1078" cy="734" r="6" class="c0"/>
<circle cx="852" cy="874" r="6" class="c0"/>
<circle cx="1094" cy="882" r="6" class="c0"/>
<circle cx="1070" cy="1228" r="6" class="c0"/>
<circle cx="1028" cy="850" r="6" class="c0"/>
<circle cx="1094" cy="1156" r="6" class="c0"/>
<circle cx="998" cy="968" r="6" class="c0"/>
<circle cx="826" cy="1024" r="6" class="c0"/>
<circle cx="938" cy="1066" r="6" class="c0"/>
<circle cx="1172" cy="1016" r="6" class="c0"/>
<circle cx="874" cy="1032" r="6" class="c0"/>
<circle cx="1230" cy="978" r="6" class="c0"/>
<circle cx="902" cy="1042" r="6" class="c0"/>
<circle cx="824" cy="954" r="6" class="c0"/>
<circle cx="1168" cy="858" r="6" class="c0"/>
<circle cx="1070" cy="1104" r="6" class="c0"/>
<circle cx="1000" cy="1202" r="6" class="c0"/>
<circle cx="1040" cy="1040" r="6" class="c0"/>
<circle cx="1246" cy="868" r="6" class="c0"/>
<circle cx="1028" cy="1210" r="6" class="c0"/>
<circle cx="1048" cy="932" r="6" class="c0"/>
<circle cx="826" cy="1080" r="6" class="c0"/>
<circle cx="1002" cy="1046" r="6" class="c0"/>
<circle cx="1182" cy="934" r="6" class="c0"/>
<circle cx="950" cy="1022" r="6" class="c0"/>
<circle cx="1014" cy="1146" r="6" class="c0"/>
<circle cx="1224" cy="892" r="6" class="c0"/>
<circle cx="1050" cy="950" r="6" class="c0"/>
<circle cx="954" cy="824" r="6" class="c0"/>
<circle cx="876" cy="1118" r="6" class="c0"/>
<circle cx="948" cy="1168" r="6" class="c0"/>
<circle cx="1218" cy="972" r="6" class="c0"/>
<circle cx="1142" cy="848" r="6" class="c0"/>
<circle cx="836" cy="1054" r="6" class="c0"/>
<circle cx="1170" cy="810" r="6" class="c0"/>
<circle cx="1306" cy="990" r="6" class="c0"/>
<circle cx="940" cy="762" r="6" class="c0"/>
<circle cx="1128" cy="774" r="6" class="c0"/>
<circle cx="1090" cy="1120" r="6" class="c0"/>
<circle cx="990" cy="1174" r="6" class="c0"/>
<circle cx="1146" cy="1030" r="6" class="c0"/>
<circle cx="1132" cy="884" r="6" class="c0"/>
<circle cx="1294" cy="1004" r="6" class="c0"/>
<circle cx="1068" cy="746" r="6" class="c0"/>
<circle cx="970" cy="1096" r="6" class="c0"/>
<circle cx="916" cy="1164" r="6" class="c0"/>
<circle cx="974" cy="888" r="6" class="c0"/>
<circle cx="1120" cy="820" r="6" class="c0"/>
<circle cx="1208" cy="1052" r="6" class="c0"/>
<circle cx="1296" cy="960" r="6" class="c0"/>
<circle cx="1100" cy="1216" r="6" class="c0"/>
<circle cx="1170" cy="896" r="6" class="c0"/>
<circle cx="988" cy="1014" r="6" class="c0"/>
<circle cx="1102" cy="858" r="6" class="c0"/>
<circle cx="1186" cy="1118" r="6" class="c0"/>
<circle cx="1050" cy="992" r="6" class="c0"/>
<circle cx="920" cy="996" r="6" class="c0"/>
<circle cx="1194" cy="928" r="6" class="c0"/>
<circle cx="1042" cy="770" r="6" class="c0"/>
<circle cx="1178" cy="1002" r="6" class="c0"/>
<circle cx="1044" cy="1060" r="6" class="c0"/>
<circle cx="970" cy="864" r="6" class="c0"/>
<circle cx="1156" cy="806" r="6" class="c0"/>
<circle cx="1050" cy="892" r="6" class="c0"/>
<circle cx="1222" cy="830" r="6" class="c0"/>
<circle cx="1052" cy="1112" r="6" class="c0"/>
<circle cx="1044" cy="1120" r="6" class="c0"/>
<circle cx="1250" cy="946" r="6" class="c0"/>
<circle cx="1156" cy="1092" r="6" class="c0"/>
<circle cx="1154" cy="1130" r="6" class="c0"/>
<circle cx="1156" cy="872" r="6" class="c0"/>
<circle cx="1062" cy="1096" r="6" class="c0"/>
<circle cx="1024" cy="972" r="6" class="c0"/>
<circle cx="1024" cy="760" r="6" class="c0"/>
<circle cx="1044" cy="726" r="6" class="c0"/>
<circle cx="1006" cy="976" r="6" class="c0"/>
<circle cx="1008" cy="786" r="6" class="c0"/>
<circle cx="1214" cy="1154" r="6" class="c0"/>
<circle cx="1004" cy="762" r="6" class="c0"/>
<circle cx="1138" cy="978" r="6" class="c0"/>
<circle cx="1112" cy="1058" r="6" class="c0"/>
<circle cx="1222" cy="1126" r="6" class="c0"/>
<circle cx="1106" cy="1000" r="6" class="c0"/>
<circle cx="1084" cy="970" r="6" class="c0"/>
<circle cx="1282" cy="1024" r="6" class="c0"/>
<circle cx="970" cy="1202" r="6" class="c0"/>
<circle cx="1074" cy="1004" r="6" class="c0"/>
<circle cx="1258" cy="1034" r="6" class="c0"/>
<circle cx="1158" cy="914" r="6" class="c0"/>
<circle cx="988" cy="896" r="6" class="c0"/>
<circle cx="1236" cy="1064" r="6" class="c0"/>
<circle cx="850" cy="928" r="6" class="c0"/>
<circle cx="1146" cy="988" r="6" class="c0"/>
<circle cx="918" cy="836" r="6" class="c0"/>
<circle cx="934" cy="798" r="6" class="c0"/>
<circle cx="1010" cy="1054" r="6" class="c0"/>
<circle cx="910" cy="860" r="6" class="c0"/>
<circle cx="1110" cy="810" r="6" class="c0"/>
<circle cx="850" cy="1090" r="6" class="c0"/>
<circle cx="1076" cy="1188" r="6" class="c0"/>
<circle cx="1036" cy="1022" r="6" class="c0"/>
<circle cx="974" cy="744" r="6" class="c0"/>
<circle cx="922" cy="1066" r="6" class="c0"/>
<circle cx="880" cy="1058" r="6" class="c0"/>
<circle cx="1054" cy="822" r="6" class="c0"/>
<circle cx="1220" cy="854" r="6" class="c0"/>
<circle cx="966" cy="1052" r="6" class="c0"/>
<circle cx="1158" cy="1074" r="6" class="c0"/>
<circle cx="1120" cy="784" r="6" class="c0"/>
<circle cx="1114" cy="1212" r="6" class="c0"/>
<circle cx="1060" cy="940" r="6" class="c0"/>
<circle cx="954" cy="1060" r="6" class="c0"/>
<circle cx="992" cy="1222" r="6" class="c0"/>
<circle cx="1044" cy="1152" r="6" class="c0"/>
<circle cx="1134" cy="1038" r="6" class="c0"/>
<circle cx="958" cy="1012" r="6" class="c0"/>
<circle cx="1026" cy="1158" r="6" class="c0"/>
<circle cx="894" cy="968" r="6" class="c0"/>
<circle cx="944" cy="846" r="6" class="c0"/>
<circle cx="1138" cy="1000" r="6" class="c0"/>
<circle cx="868" cy="906" r="6" class="c0"/>
<circle cx="1256" cy="898" r="6" class="c0"/>
<circle cx="1158" cy="822" r="6" class="c0"/>
<circle cx="1144" cy="1156" r="6" class="c0"/>
<circle cx="1004" cy="1086" r="6" class="c0"/>
<circle cx="1112" cy="1112" r="6" class="c0"/>
<circle cx="964" cy="1218" r="6" class="c0"/>
<circle cx="1116" cy="962" r="6" class="c0"/>
<circle cx="926" cy="778" r="6" class="c0"/>
<circle cx="1178" cy="1126" r="6" class="c0"/>
<circle cx="1192" cy="1176" r="6" class="c0"/>
<circle cx="1018" cy="1202" r="6" class="c0"/>
<circle cx="998" cy="1124" r="6" class="c0"/>
<circle cx="880" cy="888" r="6" class="c0"/>
<circle cx="1032" cy="864" r="6" class="c0"/>
<circle cx="954" cy="940" r="6" class="c0"/>
<circle cx="836" cy="992" r="6" class="c0"/>
<circle cx="1202" cy="868" r="6" class="c0"/>
<circle cx="1186" cy="1134" r="6" class="c0"/>
<circle cx="864" cy="1126" r="6" class="c0"/>
<circle cx="1080" cy="1112" r="6" class="c0"/>
<circle cx="882" cy="940" r="6" class="c0"/>
<circle cx="1248" cy="1104" r="6" class="c0"/>
<circle cx="1120" cy="1084" r="6" class="c0"/>
<circle cx="842" cy="966" r="6" class="c0"/>
<circle cx="1254" cy="878" r="6" class="c0"/>
<circle cx="864" cy="984" r="6" class="c0"/>
<circle cx="984" cy="1102" r="6" class="c0"/>
<circle cx="1036" cy="924" r="6" class="c0"/>
<circle cx="994" cy="796" r="6" class="c0"/>
<circle cx="828" cy="1038" r="6" class="c0"/>
<circle cx="1124" cy="1004" r="6" class="c0"/>
<circle cx="1066" cy="1176" r="6" class="c0"/>
<circle cx="1090" cy="952" r="6" class="c0"/>
<circle cx="1124" cy="760" r="6" class="c0"/>
<circle cx="1214" cy="956" r="6" class="c0"/>
<circle cx="1224" cy="924" r="6" class="c0"/>
<circle cx="1118" cy="926" r="6" class="c0"/>
<circle cx="1024" cy="1104" r="6" class="c0"/>
<circle cx="1180" cy="838" r="6" class="c0"/>
<circle cx="1132" cy="946" r="6" class="c0"/>
<circle cx="1276" cy="1060" r="6" class="c0"/>
<circle cx="1236" cy="772" r="6" class="c0"/>
<circle cx="844" cy="884" r="6" class="c0"/>
<circle cx="890" cy="812" r="6" class="c0"/>
<circle cx="1306" cy="1048" r="6" class="c0"/>
<circle cx="922" cy="1188" r="6" class="c0"/>
<circle cx="1150" cy="1144" r="6" class="c0"/>
<circle cx="1020" cy="1014" r="6" class="c0"/>
</svg>
