<?xml version="1.0" encoding="utf-8"?>
<svg xmlns="http://www.w3.org/2000/svg"
     xmlns:xlink="http://www.w3.org/1999/xlink" width="1920" height="1440" >

            <defs>
            <style type="text/css"><![CDATA[
circle {stroke: none;}
.c0 {fill: #000000;}
]]></style>
            </defs>
<rect x="0" y="0" width="1920" height="1440" fill="white"/>
<circle cx="926" cy="812" r="12" class="c0"/>
<circle cx="1732" cy="1402" r="12" class="c0"/>
<circle cx="1672" cy="1392" r="12" class="c0"/>
<circle cx="1722" cy="968" r="12" class="c0"/>
<circle cx="1514" cy="1420" r="12" class="c0"/>
<circle cx="960" cy="960" r="12" class="c0"/>
<circle cx="1786" cy="902" r="12" class="c0"/>
<circle cx="1886" cy="1244" r="12" class="c0"/>
<circle cx="946" cy="794" r="12" class="c0"/>
<circle cx="936" cy="928" r="12" class="c0"/>
<circle cx="962" cy="718" r="12" class="c0"/>
<circle cx="946" cy="486" r="12" class="c0"/>
<circle cx="906" cy="886" r="12" class="c0"/>
<circle cx="1806" cy="1338" r="12" class="c0"/>
<circle cx="958" cy="516" r="12" class="c0"/>
<circle cx="1828" cy="1320" r="12" class="c0"/>
<circle cx="1742" cy="1362" r="12" class="c0"/>
<circle cx="902" cy="852" r="12" class="c0"/>
<circle cx="932" cy="728" r="12" class="c0"/>
<circle cx="890" cy="910" r="12" class="c0"/>
<circle cx="1692" cy="1004" r="12" class="c0"/>
<circle cx="978" cy="500" r="12" class="c0"/>
<circle cx="1876" cy="1424" r="12" class="c0"/>
<circle cx="1812" cy="908" r="12" class="c0"/>
<circle cx="1818" cy="868" r="12" class="c0"/>
<circle cx="962" cy="640" r="12" class="c0"/>
<circle cx="1746" cy="996" r="12" class="c0"/>
<circle cx="1672" cy="930" r="12" class="c0"/>
<circle cx="1578" cy="1422" r="12" class="c0"/>
<circle cx="920" cy="764" r="12" class="c0"/>
<circle cx="1894" cy="1392" r="10" class="c0"/>
<circle cx="1906" cy="964" r="10" class="c0"/>
<circle cx="1780" cy="1424" r="10" class="c0"/>
<circle cx="1774" cy="858" r="10" class="c0"/>
<circle cx="934" cy="576" r="10" class="c0"/>
<circle cx="1826" cy="1356" r="10" class="c0"/>
<circle cx="1796" cy="958" r="10" class="c0"/>
<circle cx="1866" cy="1382" r="10" class="c0"/>
<circle cx="1902" cy="858" r="10" class="c0"/>
<circle cx="1868" cy="742" r="10" class="c0"/>
<circle cx="1796" cy="1362" r="10" class="c0"/>
<circle cx="1680" cy="1422" r="10" class="c0"/>
<circle cx="930" cy="970" r="10" class="c0"/>
<circle cx="1786" cy="978" r="10" class="c0"/>
<circle cx="1886" cy="1350" r="10" class="c0"/>
<circle cx="1858" cy="860" r="10" class="c0"/>
<circle cx="946" cy="880" r="10" class="c0"/>
<circle cx="1886" cy="766" r="10" class="c0"/>
<circle cx="1896" cy="1292" r="10" class="c0"/>
<circle cx="968" cy="1036" r="10" class="c0"/>
<circle cx="960" cy="684" r="10" class="c0"/>
<circle cx="952" cy="818" r="10" class="c0"/>
<circle cx="1834" cy="840" r="10" class="c0"/>
<circle cx="1542" cy="1406" r="10" class="c0"/>
<circle cx="978" cy="880" r="10" class="c0"/>
<circle cx="1736" cy="934" r="10" class="c0"/>
<circle cx="1706" cy="920" r="10" class="c0"/>
<circle cx="1698" cy="1384" r="10" class="c0"/>
<circle cx="904" cy="718" r="10" class="c0"/>
<circle cx="1888" cy="816" r="10" class="c0"/>
<circle cx="1756" cy="904" r="10" class="c0"/>
<circle cx="1866" cy="1258" r="10" class="c0"/>
<circle cx="968" cy="844" r="10" class="c0"/>
<circle cx="912" cy="740" r="10" class="c0"/>
<circle cx="898" cy="782" r="10" class="c0"/>
<circle cx="1004" cy="962" r="10" class="c0"/>
<circle cx="1686" cy="1038" r="10" class="c0"/>
<circle cx="970" cy="584" r="10" class="c0"/>
<circle cx="924" cy="870" r="10" class="c0"/>
<circle cx="1602" cy="1416" r="10" class="c0"/>
<circle cx="928" cy="506" r="10" class="c0"/>
<circle cx="912" cy="1046" r="10" class="c0"/>
<circle cx="1770" cy="1312" r="10" class="c0"/>
<circle cx="1806" cy="938" r="10" class="c0"/>
<circle cx="1762" cy="1030" r="10" class="c0"/>
<circle cx="1874" cy="1316" r="10" class="c0"/>
<circle cx="1900" cy="1270" r="10" class="c0"/>
<circle cx="1866" cy="784" r="10" class="c0"/>
<circle cx="1670" cy="1364" r="10" class="c0"/>
<circle cx="1796" cy="1392" r="10" class="c0"/>
<circle cx="1688" cy="970" r="10" class="c0"/>
<circle cx="972" cy="754" r="10" class="c0"/>
<circle cx="1902" cy="1076" r="10" class="c0"/>
<circle cx="1610" cy="1382" r="10" class="c0"/>
<circle cx="882" cy="874" r="10" class="c0"/>
<circle cx="1556" cy="1374" r="10" class="c0"/>
<circle cx="906" cy="822" r="10" class="c0"/>
<circle cx="1908" cy="732" r="10" class="c0"/>
<circle cx="954" cy="914" r="10" class="c0"/>
<circle cx="918" cy="670" r="10" class="c0"/>
<circle cx="1852" cy="1284" r="10" class="c0"/>
<circle cx="1810" cy="838" r="10" class="c0"/>
<circle cx="1894" cy="1188" r="10" class="c0"/>
<circle cx="950" cy="666" r="10" class="c0"/>
<circle cx="1002" cy="906" r="10" class="c0"/>
<circle cx="936" cy="1030" r="10" class="c0"/>
<circle cx="928" cy="898" r="10" class="c0"/>
<circle cx="966" cy="542" r="10" class="c0"/>
<circle cx="1908" cy="1364" r="10" class="c0"/>
<circle cx="998" cy="862" r="10" class="c0"/>
<circle cx="1890" cy="886" r="10" class="c0"/>
<circle cx="1864" cy="1348" r="10" class="c0"/>
<circle cx="1626" cy="1424" r="10" class="c0"/>
<circle cx="1704" cy="1358" r="10" class="c0"/>
<circle cx="918" cy="604" r="10" class="c0"/>
<circle cx="1908" cy="1144" r="10" class="c0"/>
<circle cx="926" cy="626" r="10" class="c0"/>
<circle cx="1478" cy="1412" r="10" class="c0"/>
<circle cx="1846" cy="1392" r="10" class="c0"/>
<circle cx="922" cy="696" r="10" class="c0"/>
<circle cx="1710" cy="944" r="10" class="c0"/>
<circle cx="1752" cy="1392" r="10" class="c0"/>
<circle cx="1828" cy="818" r="10" class="c0"/>
<circle cx="986" cy="804" r="10" class="c0"/>
<circle cx="1726" cy="1012" r="10" class="c0"/>
<circle cx="1784" cy="934" r="10" class="c0"/>
<circle cx="1852" cy="1362" r="10" class="c0"/>
<circle cx="1754" cy="1334" r="10" class="c0"/>
<circle cx="956" cy="1060" r="10" class="c0"/>
<circle cx="888" cy="832" r="10" class="c0"/>
<circle cx="1746" cy="956" r="10" class="c0"/>
<circle cx="1870" cy="910" r="10" class="c0"/>
<circle cx="1804" cy="1424" r="10" class="c0"/>
<circle cx="1900" cy="1314" r="10" class="c0"/>
<circle cx="982" cy="782" r="10" class="c0"/>
<circle cx="1780" cy="1340" r="10" class="c0"/>
<circle cx="1640" cy="1408" r="10" class="c0"/>
<circle cx="1778" cy="1402" r="10" class="c0"/>
<circle cx="1834" cy="932" r="10" class="c0"/>
<circle cx="1598" cy="1394" r="10" class="c0"/>
<circle cx="884" cy="940" r="10" class="c0"/>
<circle cx="1846" cy="1428" r="10" class="c0"/>
<circle cx="1814" cy="1266" r="10" class="c0"/>
<circle cx="1846" cy="898" r="10" class="c0"/>
<circle cx="1906" cy="778" r="10" class="c0"/>
<circle cx="1908" cy="698" r="10" class="c0"/>
<circle cx="1812" cy="1374" r="10" class="c0"/>
<circle cx="1700" cy="1410" r="10" class="c0"/>
<circle cx="988" cy="940" r="10" class="c0"/>
<circle cx="1904" cy="1104" r="10" class="c0"/>
<circle cx="952" cy="762" r="10" class="c0"/>
<circle cx="982" cy="830" r="10" class="c0"/>
<circle cx="1910" cy="1046" r="8" class="c0"/>
<circle cx="1768" cy="1362" r="8" class="c0"/>
<circle cx="1832" cy="886" r="8" class="c0"/>
<circle cx="984" cy="916" r="8" class="c0"/>
<circle cx="1824" cy="1418" r="8" class="c0"/>
<circle cx="1900" cy="1004" r="8" class="c0"/>
<circle cx="1008" cy="880" r="8" class="c0"/>
<circle cx="952" cy="1000" r="8" class="c0"/>
<circle cx="954" cy="856" r="8" class="c0"/>
<circle cx="1664" cy="982" r="8" class="c0"/>
<circle cx="1580" cy="1384" r="8" class="c0"/>
<circle cx="1840" cy="1342" r="8" class="c0"/>
<circle cx="904" cy="930" r="8" class="c0"/>
<circle cx="1876" cy="830" r="8" class="c0"/>
<circle cx="924" cy="790" r="8" class="c0"/>
<circle cx="1904" cy="804" r="8" class="c0"/>
<circle cx="1626" cy="1394" r="8" class="c0"/>
<circle cx="978" cy="664" r="8" class="c0"/>
<circle cx="1722" cy="1032" r="8" class="c0"/>
<circle cx="1650" cy="960" r="8" class="c0"/>
<circle cx="1868" cy="888" r="8" class="c0"/>
<circle cx="1836" cy="792" r="8" class="c0"/>
<circle cx="906" cy="958" r="8" class="c0"/>
<circle cx="1906" cy="834" r="8" class="c0"/>
<circle cx="1832" cy="1276" r="8" class="c0"/>
<circle cx="1672" cy="906" r="8" class="c0"/>
<circle cx="944" cy="844" r="8" class="c0"/>
<circle cx="1816" cy="802" r="8" class="c0"/>
<circle cx="940" cy="528" r="8" class="c0"/>
<circle cx="1742" cy="1028" r="8" class="c0"/>
<circle cx="1818" cy="1398" r="8" class="c0"/>
<circle cx="946" cy="554" r="8" class="c0"/>
<circle cx="948" cy="740" r="8" class="c0"/>
<circle cx="968" cy="980" r="8" class="c0"/>
<circle cx="954" cy="462" r="8" class="c0"/>
<circle cx="1910" cy="892" r="8" class="c0"/>
<circle cx="1804" cy="882" r="8" class="c0"/>
<circle cx="1734" cy="906" r="8" class="c0"/>
<circle cx="934" cy="1058" r="8" class="c0"/>
<circle cx="1892" cy="744" r="8" class="c0"/>
<circle cx="1860" cy="1304" r="8" class="c0"/>
<circle cx="1656" cy="1420" r="8" class="c0"/>
<circle cx="926" cy="850" r="8" class="c0"/>
<circle cx="1856" cy="832" r="8" class="c0"/>
<circle cx="1898" cy="1414" r="8" class="c0"/>
<circle cx="906" cy="800" r="8" class="c0"/>
<circle cx="1750" cy="1412" r="8" class="c0"/>
<circle cx="1768" cy="986" r="8" class="c0"/>
<circle cx="1836" cy="1372" r="8" class="c0"/>
<circle cx="1728" cy="1050" r="8" class="c0"/>
<circle cx="1890" cy="844" r="8" class="c0"/>
<circle cx="1802" cy="1312" r="8" class="c0"/>
<circle cx="882" cy="968" r="8" class="c0"/>
<circle cx="1894" cy="660" r="8" class="c0"/>
<circle cx="1782" cy="878" r="8" class="c0"/>
<circle cx="1774" cy="964" r="8" class="c0"/>
<circle cx="950" cy="610" r="8" class="c0"/>
<circle cx="1866" cy="820" r="8" class="c0"/>
<circle cx="1888" cy="790" r="8" class="c0"/>
<circle cx="1896" cy="1132" r="8" class="c0"/>
<circle cx="1014" cy="926" r="8" class="c0"/>
<circle cx="940" cy="638" r="8" class="c0"/>
<circle cx="978" cy="1054" r="8" class="c0"/>
<circle cx="1908" cy="1216" r="8" class="c0"/>
<circle cx="954" cy="1018" r="8" class="c0"/>
<circle cx="1876" cy="1296" r="8" class="c0"/>
<circle cx="1906" cy="1164" r="8" class="c0"/>
<circle cx="1676" cy="958" r="8" class="c0"/>
<circle cx="1466" cy="1428" r="8" class="c0"/>
<circle cx="1878" cy="800" r="8" class="c0"/>
<circle cx="1752" cy="1052" r="8" class="c0"/>
<circle cx="1890" cy="720" r="8" class="c0"/>
<circle cx="1706" cy="982" r="8" class="c0"/>
<circle cx="982" cy="966" r="8" class="c0"/>
<circle cx="922" cy="482" r="8" class="c0"/>
<circle cx="1896" cy="934" r="8" class="c0"/>
<circle cx="1734" cy="1336" r="8" class="c0"/>
<circle cx="1572" cy="1400" r="8" class="c0"/>
<circle cx="1908" cy="1340" r="8" class="c0"/>
<circle cx="1764" cy="1380" r="8" class="c0"/>
<circle cx="1850" cy="810" r="8" class="c0"/>
<circle cx="966" cy="866" r="8" class="c0"/>
<circle cx="1906" cy="924" r="8" class="c0"/>
<circle cx="974" cy="900" r="8" class="c0"/>
<circle cx="1760" cy="880" r="8" class="c0"/>
<circle cx="1000" cy="842" r="8" class="c0"/>
<circle cx="1776" cy="1042" r="8" class="c0"/>
<circle cx="1626" cy="1366" r="8" class="c0"/>
<circle cx="1552" cy="1426" r="8" class="c0"/>
<circle cx="1880" cy="1274" r="8" class="c0"/>
<circle cx="1666" cy="1010" r="8" class="c0"/>
<circle cx="1724" cy="1352" r="8" class="c0"/>
<circle cx="1776" cy="1004" r="8" class="c0"/>
<circle cx="1768" cy="922" r="8" class="c0"/>
<circle cx="1724" cy="1422" r="8" class="c0"/>
<circle cx="1718" cy="1376" r="8" class="c0"/>
<circle cx="1704" cy="884" r="8" class="c0"/>
<circle cx="1906" cy="1236" r="8" class="c0"/>
<circle cx="1732" cy="878" r="8" class="c0"/>
<circle cx="1910" cy="672" r="8" class="c0"/>
<circle cx="986" cy="474" r="8" class="c0"/>
<circle cx="894" cy="762" r="8" class="c0"/>
<circle cx="1510" cy="1384" r="8" class="c0"/>
<circle cx="1638" cy="948" r="8" class="c0"/>
<circle cx="1888" cy="1208" r="8" class="c0"/>
<circle cx="948" cy="590" r="8" class="c0"/>
<circle cx="1852" cy="770" r="8" class="c0"/>
<circle cx="1656" cy="914" r="8" class="c0"/>
<circle cx="1646" cy="1386" r="8" class="c0"/>
<circle cx="922" cy="946" r="8" class="c0"/>
<circle cx="884" cy="810" r="8" class="c0"/>
<circle cx="974" cy="624" r="8" class="c0"/>
<circle cx="1908" cy="754" r="8" class="c0"/>
<circle cx="1818" cy="952" r="8" class="c0"/>
<circle cx="974" cy="564" r="8" class="c0"/>
<circle cx="1462" cy="1390" r="8" class="c0"/>
<circle cx="934" cy="466" r="8" class="c0"/>
<circle cx="1834" cy="1298" r="8" class="c0"/>
<circle cx="940" cy="704" r="8" class="c0"/>
<circle cx="1896" cy="908" r="8" class="c0"/>
<circle cx="1756" cy="936" r="8" class="c0"/>
<circle cx="1878" cy="868" r="8" class="c0"/>
<circle cx="906" cy="978" r="8" class="c0"/>
<circle cx="998" cy="510" r="8" class="c0"/>
<circle cx="1856" cy="1326" r="8" class="c0"/>
<circle cx="1782" cy="1024" r="8" class="c0"/>
<circle cx="1910" cy="988" r="8" class="c0"/>
<circle cx="1706" cy="1046" r="8" class="c0"/>
<circle cx="938" cy="600" r="8" class="c0"/>
<circle cx="1802" cy="1290" r="8" class="c0"/>
<circle cx="960" cy="934" r="8" class="c0"/>
<circle cx="1756" cy="974" r="8" class="c0"/>
<circle cx="1866" cy="704" r="8" class="c0"/>
<circle cx="1862" cy="1406" r="8" class="c0"/>
<circle cx="892" cy="1044" r="8" class="c0"/>
<circle cx="1718" cy="992" r="8" class="c0"/>
<circle cx="914" cy="920" r="8" class="c0"/>
<circle cx="1884" cy="1374" r="8" class="c0"/>
<circle cx="1898" cy="1024" r="8" class="c0"/>
<circle cx="1644" cy="978" r="8" class="c0"/>
<circle cx="1492" cy="1398" r="8" class="c0"/>
<circle cx="936" cy="752" r="8" class="c0"/>
<circle cx="1910" cy="944" r="8" class="c0"/>
<circle cx="968" cy="472" r="8" class="c0"/>
<circle cx="1676" cy="1022" r="8" class="c0"/>
<circle cx="1690" cy="940" r="8" class="c0"/>
<circle cx="1848" cy="878" r="8" class="c0"/>
<circle cx="978" cy="524" r="8" class="c0"/>
<circle cx="1718" cy="894" r="8" class="c0"/>
<circle cx="1910" cy="1198" r="8" class="c0"/>
<circle cx="1846" cy="920" r="8" class="c0"/>
<circle cx="938" cy="680" r="8" class="c0"/>
<circle cx="1706" cy="1018" r="8" class="c0"/>
<circle cx="948" cy="978" r="8" class="c0"/>
<circle cx="1796" cy="922" r="8" class="c0"/>
<circle cx="1822" cy="1288" r="8" class="c0"/>
<circle cx="922" cy="648" r="8" class="c0"/>
<circle cx="1004" cy="816" r="8" class="c0"/>
<circle cx="990" cy="892" r="8" class="c0"/>
<circle cx="1652" cy="1356" r="8" class="c0"/>
<circle cx="1524" cy="1398" r="8" class="c0"/>
<circle cx="1020" cy="976" r="8" class="c0"/>
<circle cx="1802" cy="856" r="8" class="c0"/>
<circle cx="1704" cy="1328" r="8" class="c0"/>
<circle cx="964" cy="806" r="8" class="c0"/>
<circle cx="1890" cy="688" r="8" class="c0"/>
<circle cx="990" cy="762" r="8" class="c0"/>
<circle cx="1022" cy="954" r="8" class="c0"/>
<circle cx="932" cy="658" r="8" class="c0"/>
<circle cx="956" cy="570" r="8" class="c0"/>
<circle cx="1892" cy="1092" r="8" class="c0"/>
<circle cx="984" cy="728" r="6" class="c0"/>
<circle cx="906" cy="688" r="6" class="c0"/>
<circle cx="978" cy="600" r="6" class="c0"/>
<circle cx="1806" cy="976" r="6" class="c0"/>
<circle cx="1864" cy="760" r="6" class="c0"/>
<circle cx="1876" cy="1398" r="6" class="c0"/>
<circle cx="1884" cy="1332" r="6" class="c0"/>
<circle cx="938" cy="992" r="6" class="c0"/>
<circle cx="914" cy="838" r="6" class="c0"/>
<circle cx="1664" cy="1346" r="6" class="c0"/>
<circle cx="880" cy="856" r="6" class="c0"/>
<circle cx="1840" cy="864" r="6" class="c0"/>
<circle cx="1912" cy="1282" r="6" class="c0"/>
<circle cx="1452" cy="1414" r="6" class="c0"/>
<circle cx="962" cy="784" r="6" class="c0"/>
<circle cx="938" cy="1010" r="6" class="c0"/>
<circle cx="1670" cy="1054" r="6" class="c0"/>
<circle cx="1686" cy="918" r="6" class="c0"/>
<circle cx="1872" cy="848" r="6" class="c0"/>
<circle cx="1010" cy="1058" r="6" class="c0"/>
<circle cx="1884" cy="990" r="6" class="c0"/>
<circle cx="922" cy="986" r="6" class="c0"/>
<circle cx="1838" cy="1408" r="6" class="c0"/>
<circle cx="986" cy="538" r="6" class="c0"/>
<circle cx="972" cy="698" r="6" class="c0"/>
<circle cx="902" cy="612" r="6" class="c0"/>
<circle cx="934" cy="780" r="6" class="c0"/>
<circle cx="1704" cy="1428" r="6" class="c0"/>
<circle cx="1762" cy="1296" r="6" class="c0"/>
<circle cx="898" cy="1062" r="6" class="c0"/>
<circle cx="994" cy="528" r="6" class="c0"/>
<circle cx="916" cy="582" r="6" class="c0"/>
<circle cx="1782" cy="1382" r="6" class="c0"/>
<circle cx="1724" cy="922" r="6" class="c0"/>
<circle cx="1896" cy="980" r="6" class="c0"/>
<circle cx="968" cy="1006" r="6" class="c0"/>
<circle cx="942" cy="950" r="6" class="c0"/>
<circle cx="962" cy="600" r="6" class="c0"/>
<circle cx="970" cy="736" r="6" class="c0"/>
<circle cx="1880" cy="1224" r="6" class="c0"/>
<circle cx="878" cy="892" r="6" class="c0"/>
<circle cx="1618" cy="1408" r="6" class="c0"/>
<circle cx="1766" cy="948" r="6" class="c0"/>
<circle cx="1700" cy="902" r="6" class="c0"/>
<circle cx="1652" cy="1032" r="6" class="c0"/>
<circle cx="930" cy="1000" r="6" class="c0"/>
<circle cx="1912" cy="1386" r="6" class="c0"/>
<circle cx="1850" cy="1266" r="6" class="c0"/>
<circle cx="1872" cy="720" r="6" class="c0"/>
<circle cx="1792" cy="868" r="6" class="c0"/>
<circle cx="1532" cy="1384" r="6" class="c0"/>
<circle cx="1910" cy="1256" r="6" class="c0"/>
<circle cx="1846" cy="1312" r="6" class="c0"/>
<circle cx="1660" cy="948" r="6" class="c0"/>
<circle cx="1658" cy="1376" r="6" class="c0"/>
<circle cx="948" cy="1044" r="6" class="c0"/>
<circle cx="1648" cy="1050" r="6" class="c0"/>
<circle cx="1910" cy="1122" r="6" class="c0"/>
<circle cx="1744" cy="888" r="6" class="c0"/>
<circle cx="1012" cy="944" r="6" class="c0"/>
<circle cx="958" cy="892" r="6" class="c0"/>
<circle cx="894" cy="742" r="6" class="c0"/>
<circle cx="1910" cy="1180" r="6" class="c0"/>
<circle cx="1484" cy="1432" r="6" class="c0"/>
<circle cx="1760" cy="1008" r="6" class="c0"/>
<circle cx="928" cy="832" r="6" class="c0"/>
<circle cx="1460" cy="1406" r="6" class="c0"/>
<circle cx="1834" cy="910" r="6" class="c0"/>
<circle cx="1904" cy="876" r="6" class="c0"/>
<circle cx="1678" cy="990" r="6" class="c0"/>
<circle cx="1872" cy="1364" r="6" class="c0"/>
<circle cx="1698" cy="956" r="6" class="c0"/>
<circle cx="1760" cy="1430" r="6" class="c0"/>
<circle cx="1880" cy="928" r="6" class="c0"/>
<circle cx="1684" cy="1350" r="6" class="c0"/>
<circle cx="1738" cy="1382" r="6" class="c0"/>
<circle cx="1626" cy="958" r="6" class="c0"/>
<circle cx="1536" cy="1424" r="6" class="c0"/>
<circle cx="1828" cy="970" r="6" class="c0"/>
<circle cx="980" cy="858" r="6" class="c0"/>
<circle cx="994" cy="1058" r="6" class="c0"/>
<circle cx="980" cy="710" r="6" class="c0"/>
<circle cx="1750" cy="1304" r="6" class="c0"/>
<circle cx="1790" cy="1302" r="6" class="c0"/>
<circle cx="1492" cy="1422" r="6" class="c0"/>
<circle cx="1790" cy="1322" r="6" class="c0"/>
<circle cx="1892" cy="954" r="6" class="c0"/>
<circle cx="1912" cy="1302" r="6" class="c0"/>
<circle cx="968" cy="772" r="6" class="c0"/>
<circle cx="1896" cy="1226" r="6" class="c0"/>
<circle cx="1912" cy="1062" r="6" class="c0"/>
<circle cx="1712" cy="1396" r="6" class="c0"/>
<circle cx="1668" cy="1040" r="6" class="c0"/>
<circle cx="1732" cy="984" r="6" class="c0"/>
<circle cx="924" cy="1068" r="6" class="c0"/>
<circle cx="1688" cy="1368" r="6" class="c0"/>
<circle cx="1804" cy="820" r="6" class="c0"/>
<circle cx="1000" cy="980" r="6" class="c0"/>
<circle cx="1562" cy="1412" r="6" class="c0"/>
<circle cx="1602" cy="1366" r="6" class="c0"/>
<circle cx="1812" cy="1300" r="6" class="c0"/>
<circle cx="1798" cy="990" r="6" class="c0"/>
<circle cx="1000" cy="794" r="6" class="c0"/>
<circle cx="930" cy="558" r="6" class="c0"/>
<circle cx="1912" cy="1016" r="6" class="c0"/>
<circle cx="1646" cy="1430" r="6" class="c0"/>
<circle cx="1794" cy="1410" r="6" class="c0"/>
<circle cx="1480" cy="1384" r="6" class="c0"/>
<circle cx="1746" cy="918" r="6" class="c0"/>
<circle cx="1912" cy="650" r="6" class="c0"/>
<circle cx="1476" cy="1364" r="6" class="c0"/>
<circle cx="970" cy="924" r="6" class="c0"/>
<circle cx="1850" cy="754" r="6" class="c0"/>
<circle cx="912" cy="496" r="6" class="c0"/>
<circle cx="1594" cy="1432" r="6" class="c0"/>
<circle cx="1658" cy="1060" r="6" class="c0"/>
<circle cx="1740" cy="1428" r="6" class="c0"/>
<circle cx="1650" cy="934" r="6" class="c0"/>
<circle cx="1024" cy="938" r="6" class="c0"/>
<circle cx="974" cy="1018" r="6" class="c0"/>
<circle cx="996" cy="490" r="6" class="c0"/>
<circle cx="1884" cy="946" r="6" class="c0"/>
<circle cx="876" cy="924" r="6" class="c0"/>
<circle cx="1740" cy="976" r="6" class="c0"/>
<circle cx="1814" cy="968" r="6" class="c0"/>
<circle cx="1852" cy="794" r="6" class="c0"/>
<circle cx="1770" cy="892" r="6" class="c0"/>
<circle cx="882" cy="1056" r="6" class="c0"/>
<circle cx="908" cy="624" r="6" class="c0"/>
<circle cx="1650" cy="1004" r="6" class="c0"/>
<circle cx="1736" cy="1064" r="6" class="c0"/>
<circle cx="1758" cy="1352" r="6" class="c0"/>
<circle cx="1636" cy="1376" r="6" class="c0"/>
<circle cx="1752" cy="1016" r="6" class="c0"/>
<circle cx="938" cy="860" r="6" class="c0"/>
<circle cx="1870" cy="1234" r="6" class="c0"/>
<circle cx="1884" cy="1406" r="6" class="c0"/>
<circle cx="1890" cy="1150" r="6" class="c0"/>
<circle cx="1886" cy="1170" r="6" class="c0"/>
<circle cx="1828" cy="1386" r="6" class="c0"/>
<circle cx="1912" cy="818" r="6" class="c0"/>
<circle cx="1496" cy="1362" r="6" class="c0"/>
<circle cx="1720" cy="1068" r="6" class="c0"/>
<circle cx="1650" cy="1338" r="6" class="c0"/>
<circle cx="970" cy="944" r="6" class="c0"/>
<circle cx="1666" cy="1330" r="6" class="c0"/>
<circle cx="1892" cy="1050" r="6" class="c0"/>
<circle cx="984" cy="614" r="6" class="c0"/>
<circle cx="1658" cy="1404" r="6" class="c0"/>
<circle cx="1886" cy="968" r="6" class="c0"/>
<circle cx="970" cy="608" r="6" class="c0"/>
<circle cx="1612" cy="1344" r="6" class="c0"/>
<circle cx="998" cy="924" r="6" class="c0"/>
</svg>
