<?xml version="1.0" encoding="utf-8"?>
<svg xmlns="http://www.w3.org/2000/svg"
     xmlns:xlink="http://www.w3.org/1999/xlink" width="1920" height="1440" >

            <defs>
            <style type="text/css"><![CDATA[
circle {stroke: none;}
.c0 {fill: #000000;}
]]></style>
            </defs>
<rect x="0" y="0" width="1920" height="1440" fill="white"/>
<circle cx="802" cy="858" r="14" class="c0"/>
<circle cx="1054" cy="1002" r="14" class="c0"/>
<circle cx="1172" cy="834" r="12" class="c0"/>
<circle cx="958" cy="718" r="12" class="c0"/>
<circle cx="1074" cy="880" r="12" class="c0"/>
<circle cx="892" cy="696" r="12" class="c0"/>
<circle cx="994" cy="606" r="12" class="c0"/>
<circle cx="1086" cy="670" r="12" class="c0"/>
<circle cx="1020" cy="876" r="12" class="c0"/>
<circle cx="1118" cy="614" r="12" class="c0"/>
<circle cx="1076" cy="720" r="12" class="c0"/>
<circle cx="1070" cy="1020" r="12" class="c0"/>
<circle cx="1138" cy="676" r="12" class="c0"/>
<circle cx="1016" cy="910" r="12" class="c0"/>
<circle cx="1014" cy="1038" r="12" class="c0"/>
<circle cx="1168" cy="918" r="12" class="c0"/>
<circle cx="994" cy="930" r="12" class="c0"/>
<circle cx="1280" cy="758" r="12" class="c0"/>
<circle cx="1240" cy="770" r="12" class="c0"/>
<circle cx="932" cy="886" r="12" class="c0"/>
<circle cx="874" cy="976" r="12" class="c0"/>
<circle cx="1058" cy="912" r="12" class="c0"/>
<circle cx="974" cy="854" r="12" class="c0"/>
<circle cx="1182" cy="952" r="12" class="c0"/>
<circle cx="922" cy="610" r="12" class="c0"/>
<circle cx="1050" cy="736" r="12" class="c0"/>
<circle cx="1220" cy="798" r="12" class="c0"/>
<circle cx="944" cy="698" r="12" class="c0"/>
<circle cx="1034" cy="818" r="12" class="c0"/>
<circle cx="1172" cy="790" r="12" class="c0"/>
<circle cx="938" cy="746" r="12" class="c0"/>
<circle cx="1120" cy="718" r="12" class="c0"/>
<circle cx="1044" cy="582" r="12" class="c0"/>
<circle cx="898" cy="892" r="12" class="c0"/>
<circle cx="964" cy="772" r="10" class="c0"/>
<circle cx="990" cy="686" r="10" class="c0"/>
<circle cx="1244" cy="836" r="10" class="c0"/>
<circle cx="860" cy="880" r="10" class="c0"/>
<circle cx="1024" cy="946" r="10" class="c0"/>
<circle cx="948" cy="634" r="10" class="c0"/>
<circle cx="1080" cy="570" r="10" class="c0"/>
<circle cx="820" cy="842" r="10" class="c0"/>
<circle cx="1002" cy="964" r="10" class="c0"/>
<circle cx="1196" cy="868" r="10" class="c0"/>
<circle cx="1162" cy="972" r="10" class="c0"/>
<circle cx="1072" cy="1046" r="10" class="c0"/>
<circle cx="1238" cy="880" r="10" class="c0"/>
<circle cx="1214" cy="654" r="10" class="c0"/>
<circle cx="1050" cy="858" r="10" class="c0"/>
<circle cx="1182" cy="622" r="10" class="c0"/>
<circle cx="1090" cy="866" r="10" class="c0"/>
<circle cx="1134" cy="738" r="10" class="c0"/>
<circle cx="1202" cy="684" r="10" class="c0"/>
<circle cx="1246" cy="716" r="10" class="c0"/>
<circle cx="1130" cy="1038" r="10" class="c0"/>
<circle cx="1124" cy="972" r="10" class="c0"/>
<circle cx="952" cy="826" r="10" class="c0"/>
<circle cx="944" cy="934" r="10" class="c0"/>
<circle cx="962" cy="994" r="10" class="c0"/>
<circle cx="1052" cy="684" r="10" class="c0"/>
<circle cx="1182" cy="1020" r="10" class="c0"/>
<circle cx="960" cy="960" r="10" class="c0"/>
<circle cx="914" cy="798" r="10" class="c0"/>
<circle cx="1046" cy="1032" r="10" class="c0"/>
<circle cx="1126" cy="768" r="10" class="c0"/>
<circle cx="874" cy="800" r="10" class="c0"/>
<circle cx="1194" cy="770" r="10" class="c0"/>
<circle cx="934" cy="992" r="10" class="c0"/>
<circle cx="908" cy="746" r="10" class="c0"/>
<circle cx="1042" cy="1054" r="10" class="c0"/>
<circle cx="1084" cy="624" r="10" class="c0"/>
<circle cx="1116" cy="906" r="10" class="c0"/>
<circle cx="1036" cy="976" r="10" class="c0"/>
<circle cx="1078" cy="840" r="10" class="c0"/>
<circle cx="1160" cy="640" r="10" class="c0"/>
<circle cx="1016" cy="848" r="10" class="c0"/>
<circle cx="838" cy="900" r="10" class="c0"/>
<circle cx="984" cy="1026" r="10" class="c0"/>
<circle cx="858" cy="768" r="10" class="c0"/>
<circle cx="950" cy="1020" r="10" class="c0"/>
<circle cx="1218" cy="936" r="10" class="c0"/>
<circle cx="918" cy="934" r="10" class="c0"/>
<circle cx="1160" cy="742" r="10" class="c0"/>
<circle cx="1120" cy="852" r="10" class="c0"/>
<circle cx="1100" cy="730" r="10" class="c0"/>
<circle cx="1012" cy="796" r="10" class="c0"/>
<circle cx="1168" cy="674" r="10" class="c0"/>
<circle cx="962" cy="668" r="10" class="c0"/>
<circle cx="904" cy="822" r="10" class="c0"/>
<circle cx="842" cy="940" r="10" class="c0"/>
<circle cx="938" cy="776" r="10" class="c0"/>
<circle cx="1134" cy="636" r="10" class="c0"/>
<circle cx="924" cy="674" r="10" class="c0"/>
<circle cx="1062" cy="798" r="10" class="c0"/>
<circle cx="1170" cy="996" r="10" class="c0"/>
<circle cx="1142" cy="788" r="10" class="c0"/>
<circle cx="896" cy="784" r="10" class="c0"/>
<circle cx="1186" cy="734" r="10" class="c0"/>
<circle cx="1230" cy="678" r="10" class="c0"/>
<circle cx="1270" cy="864" r="10" class="c0"/>
<circle cx="986" cy="990" r="10" class="c0"/>
<circle cx="1110" cy="1006" r="10" class="c0"/>
<circle cx="958" cy="894" r="10" class="c0"/>
<circle cx="1102" cy="636" r="10" class="c0"/>
<circle cx="1214" cy="892" r="10" class="c0"/>
<circle cx="1270" cy="814" r="10" class="c0"/>
<circle cx="1098" cy="952" r="10" class="c0"/>
<circle cx="844" cy="864" r="10" class="c0"/>
<circle cx="894" cy="938" r="10" class="c0"/>
<circle cx="828" cy="814" r="10" class="c0"/>
<circle cx="1268" cy="732" r="10" class="c0"/>
<circle cx="1208" cy="916" r="10" class="c0"/>
<circle cx="1024" cy="778" r="10" class="c0"/>
<circle cx="1226" cy="866" r="10" class="c0"/>
<circle cx="1282" cy="786" r="10" class="c0"/>
<circle cx="1140" cy="898" r="10" class="c0"/>
<circle cx="1002" cy="816" r="10" class="c0"/>
<circle cx="984" cy="878" r="10" class="c0"/>
<circle cx="790" cy="674" r="10" class="c0"/>
<circle cx="980" cy="730" r="10" class="c0"/>
<circle cx="976" cy="796" r="10" class="c0"/>
<circle cx="1132" cy="994" r="10" class="c0"/>
<circle cx="998" cy="666" r="10" class="c0"/>
<circle cx="988" cy="840" r="10" class="c0"/>
<circle cx="1060" cy="636" r="10" class="c0"/>
<circle cx="1108" cy="780" r="10" class="c0"/>
<circle cx="1144" cy="856" r="10" class="c0"/>
<circle cx="798" cy="810" r="10" class="c0"/>
<circle cx="1198" cy="1002" r="10" class="c0"/>
<circle cx="1114" cy="664" r="10" class="c0"/>
<circle cx="1016" cy="546" r="10" class="c0"/>
<circle cx="1188" cy="980" r="10" class="c0"/>
<circle cx="878" cy="648" r="10" class="c0"/>
<circle cx="1104" cy="816" r="10" class="c0"/>
<circle cx="1082" cy="764" r="10" class="c0"/>
<circle cx="1194" cy="806" r="10" class="c0"/>
<circle cx="966" cy="622" r="10" class="c0"/>
<circle cx="814" cy="916" r="10" class="c0"/>
<circle cx="1106" cy="750" r="8" class="c0"/>
<circle cx="960" cy="588" r="8" class="c0"/>
<circle cx="1104" cy="932" r="8" class="c0"/>
<circle cx="862" cy="746" r="8" class="c0"/>
<circle cx="874" cy="834" r="8" class="c0"/>
<circle cx="888" cy="856" r="8" class="c0"/>
<circle cx="1238" cy="904" r="8" class="c0"/>
<circle cx="1226" cy="706" r="8" class="c0"/>
<circle cx="988" cy="632" r="8" class="c0"/>
<circle cx="916" cy="722" r="8" class="c0"/>
<circle cx="1216" cy="976" r="8" class="c0"/>
<circle cx="1156" cy="1034" r="8" class="c0"/>
<circle cx="1190" cy="846" r="8" class="c0"/>
<circle cx="1104" cy="1046" r="8" class="c0"/>
<circle cx="848" cy="698" r="8" class="c0"/>
<circle cx="834" cy="760" r="8" class="c0"/>
<circle cx="1054" cy="660" r="8" class="c0"/>
<circle cx="1212" cy="834" r="8" class="c0"/>
<circle cx="874" cy="718" r="8" class="c0"/>
<circle cx="1022" cy="748" r="8" class="c0"/>
<circle cx="1210" cy="756" r="8" class="c0"/>
<circle cx="1092" cy="1028" r="8" class="c0"/>
<circle cx="1040" cy="624" r="8" class="c0"/>
<circle cx="1038" cy="698" r="8" class="c0"/>
<circle cx="1156" cy="878" r="8" class="c0"/>
<circle cx="902" cy="866" r="8" class="c0"/>
<circle cx="820" cy="792" r="8" class="c0"/>
<circle cx="1000" cy="760" r="8" class="c0"/>
<circle cx="822" cy="876" r="8" class="c0"/>
<circle cx="1232" cy="736" r="8" class="c0"/>
<circle cx="1188" cy="656" r="8" class="c0"/>
<circle cx="974" cy="818" r="8" class="c0"/>
<circle cx="1072" cy="934" r="8" class="c0"/>
<circle cx="814" cy="690" r="8" class="c0"/>
<circle cx="1080" cy="976" r="8" class="c0"/>
<circle cx="1088" cy="1010" r="8" class="c0"/>
<circle cx="1052" cy="942" r="8" class="c0"/>
<circle cx="922" cy="1006" r="8" class="c0"/>
<circle cx="1022" cy="722" r="8" class="c0"/>
<circle cx="898" cy="666" r="8" class="c0"/>
<circle cx="1154" cy="596" r="8" class="c0"/>
<circle cx="1002" cy="560" r="8" class="c0"/>
<circle cx="844" cy="842" r="8" class="c0"/>
<circle cx="1126" cy="876" r="8" class="c0"/>
<circle cx="966" cy="570" r="8" class="c0"/>
<circle cx="1042" cy="790" r="8" class="c0"/>
<circle cx="982" cy="710" r="8" class="c0"/>
<circle cx="1246" cy="862" r="8" class="c0"/>
<circle cx="1144" cy="654" r="8" class="c0"/>
<circle cx="1006" cy="642" r="8" class="c0"/>
<circle cx="982" cy="962" r="8" class="c0"/>
<circle cx="920" cy="906" r="8" class="c0"/>
<circle cx="1002" cy="866" r="8" class="c0"/>
<circle cx="928" cy="860" r="8" class="c0"/>
<circle cx="1084" cy="904" r="8" class="c0"/>
<circle cx="1016" cy="586" r="8" class="c0"/>
<circle cx="1130" cy="810" r="8" class="c0"/>
<circle cx="1120" cy="828" r="8" class="c0"/>
<circle cx="1096" cy="708" r="8" class="c0"/>
<circle cx="834" cy="730" r="8" class="c0"/>
<circle cx="906" cy="682" r="8" class="c0"/>
<circle cx="1170" cy="768" r="8" class="c0"/>
<circle cx="926" cy="636" r="8" class="c0"/>
<circle cx="1138" cy="1014" r="8" class="c0"/>
<circle cx="878" cy="912" r="8" class="c0"/>
<circle cx="900" cy="996" r="8" class="c0"/>
<circle cx="966" cy="696" r="8" class="c0"/>
<circle cx="1206" cy="782" r="8" class="c0"/>
<circle cx="1286" cy="838" r="8" class="c0"/>
<circle cx="1042" cy="840" r="8" class="c0"/>
<circle cx="1016" cy="686" r="8" class="c0"/>
<circle cx="1236" cy="926" r="8" class="c0"/>
<circle cx="1026" cy="1000" r="8" class="c0"/>
<circle cx="864" cy="944" r="8" class="c0"/>
<circle cx="936" cy="804" r="8" class="c0"/>
<circle cx="974" cy="1008" r="8" class="c0"/>
<circle cx="1086" cy="596" r="8" class="c0"/>
<circle cx="998" cy="1002" r="8" class="c0"/>
<circle cx="932" cy="832" r="8" class="c0"/>
<circle cx="1194" cy="828" r="8" class="c0"/>
<circle cx="1182" cy="882" r="8" class="c0"/>
<circle cx="1258" cy="784" r="8" class="c0"/>
<circle cx="978" cy="906" r="8" class="c0"/>
<circle cx="966" cy="934" r="8" class="c0"/>
<circle cx="928" cy="962" r="8" class="c0"/>
<circle cx="852" cy="820" r="8" class="c0"/>
<circle cx="864" cy="900" r="8" class="c0"/>
<circle cx="1186" cy="698" r="8" class="c0"/>
<circle cx="1050" cy="606" r="8" class="c0"/>
<circle cx="1014" cy="978" r="8" class="c0"/>
<circle cx="1160" cy="708" r="8" class="c0"/>
<circle cx="1168" cy="610" r="8" class="c0"/>
<circle cx="1004" cy="742" r="8" class="c0"/>
<circle cx="908" cy="650" r="8" class="c0"/>
<circle cx="1040" cy="550" r="8" class="c0"/>
<circle cx="854" cy="920" r="8" class="c0"/>
<circle cx="1192" cy="926" r="8" class="c0"/>
<circle cx="1116" cy="688" r="8" class="c0"/>
<circle cx="800" cy="896" r="8" class="c0"/>
<circle cx="944" cy="606" r="8" class="c0"/>
<circle cx="1022" cy="658" r="8" class="c0"/>
<circle cx="1032" cy="672" r="8" class="c0"/>
<circle cx="944" cy="572" r="8" class="c0"/>
<circle cx="910" cy="958" r="8" class="c0"/>
<circle cx="1096" cy="610" r="8" class="c0"/>
<circle cx="876" cy="670" r="8" class="c0"/>
<circle cx="1092" cy="792" r="8" class="c0"/>
<circle cx="1148" cy="832" r="8" class="c0"/>
<circle cx="1160" cy="946" r="8" class="c0"/>
<circle cx="1060" cy="774" r="8" class="c0"/>
<circle cx="1006" cy="696" r="8" class="c0"/>
<circle cx="908" cy="626" r="8" class="c0"/>
<circle cx="928" cy="712" r="8" class="c0"/>
<circle cx="882" cy="874" r="8" class="c0"/>
<circle cx="1178" cy="752" r="8" class="c0"/>
<circle cx="1184" cy="900" r="8" class="c0"/>
<circle cx="1210" cy="724" r="8" class="c0"/>
<circle cx="922" cy="694" r="8" class="c0"/>
<circle cx="898" cy="968" r="8" class="c0"/>
<circle cx="1062" cy="952" r="8" class="c0"/>
<circle cx="1214" cy="956" r="8" class="c0"/>
<circle cx="960" cy="874" r="8" class="c0"/>
<circle cx="1036" cy="646" r="8" class="c0"/>
<circle cx="1120" cy="800" r="8" class="c0"/>
<circle cx="912" cy="842" r="8" class="c0"/>
<circle cx="1140" cy="924" r="8" class="c0"/>
<circle cx="822" cy="770" r="8" class="c0"/>
<circle cx="1146" cy="698" r="8" class="c0"/>
<circle cx="918" cy="766" r="8" class="c0"/>
<circle cx="1020" cy="632" r="8" class="c0"/>
<circle cx="1254" cy="802" r="8" class="c0"/>
<circle cx="896" cy="640" r="8" class="c0"/>
<circle cx="1222" cy="824" r="8" class="c0"/>
<circle cx="1004" cy="714" r="8" class="c0"/>
<circle cx="1240" cy="696" r="8" class="c0"/>
<circle cx="1210" cy="854" r="8" class="c0"/>
<circle cx="894" cy="722" r="8" class="c0"/>
<circle cx="1070" cy="554" r="8" class="c0"/>
<circle cx="1156" cy="808" r="8" class="c0"/>
<circle cx="942" cy="850" r="8" class="c0"/>
<circle cx="870" cy="862" r="8" class="c0"/>
<circle cx="1084" cy="646" r="8" class="c0"/>
<circle cx="1160" cy="896" r="8" class="c0"/>
<circle cx="1094" cy="690" r="8" class="c0"/>
<circle cx="1148" cy="614" r="8" class="c0"/>
<circle cx="848" cy="792" r="8" class="c0"/>
<circle cx="1198" cy="644" r="8" class="c0"/>
<circle cx="978" cy="652" r="8" class="c0"/>
<circle cx="986" cy="750" r="8" class="c0"/>
<circle cx="792" cy="832" r="8" class="c0"/>
<circle cx="1082" cy="808" r="8" class="c0"/>
<circle cx="894" cy="760" r="8" class="c0"/>
<circle cx="906" cy="710" r="8" class="c0"/>
<circle cx="864" cy="706" r="8" class="c0"/>
<circle cx="1022" cy="612" r="8" class="c0"/>
<circle cx="1100" cy="982" r="8" class="c0"/>
<circle cx="838" cy="778" r="8" class="c0"/>
<circle cx="1090" cy="922" r="8" class="c0"/>
<circle cx="1130" cy="584" r="8" class="c0"/>
<circle cx="862" cy="844" r="8" class="c0"/>
<circle cx="1240" cy="814" r="8" class="c0"/>
<circle cx="842" cy="962" r="8" class="c0"/>
<circle cx="1148" cy="726" r="8" class="c0"/>
<circle cx="894" cy="806" r="8" class="c0"/>
<circle cx="1148" cy="956" r="8" class="c0"/>
<circle cx="878" cy="738" r="8" class="c0"/>
<circle cx="910" cy="984" r="8" class="c0"/>
<circle cx="1042" cy="928" r="8" class="c0"/>
<circle cx="866" cy="686" r="8" class="c0"/>
<circle cx="976" cy="556" r="8" class="c0"/>
<circle cx="960" cy="744" r="8" class="c0"/>
<circle cx="1056" cy="978" r="8" class="c0"/>
<circle cx="1258" cy="754" r="8" class="c0"/>
<circle cx="1268" cy="840" r="8" class="c0"/>
<circle cx="1268" cy="774" r="8" class="c0"/>
<circle cx="1100" cy="576" r="8" class="c0"/>
<circle cx="884" cy="956" r="8" class="c0"/>
<circle cx="986" cy="778" r="8" class="c0"/>
<circle cx="1048" cy="890" r="8" class="c0"/>
<circle cx="1218" cy="772" r="8" class="c0"/>
<circle cx="1176" cy="858" r="8" class="c0"/>
<circle cx="1174" cy="718" r="6" class="c0"/>
<circle cx="1100" cy="834" r="6" class="c0"/>
<circle cx="1256" cy="876" r="6" class="c0"/>
<circle cx="1248" cy="734" r="6" class="c0"/>
<circle cx="972" cy="972" r="6" class="c0"/>
<circle cx="1020" cy="706" r="6" class="c0"/>
<circle cx="830" cy="692" r="6" class="c0"/>
<circle cx="858" cy="672" r="6" class="c0"/>
<circle cx="1204" cy="704" r="6" class="c0"/>
<circle cx="1062" cy="828" r="6" class="c0"/>
<circle cx="996" cy="788" r="6" class="c0"/>
<circle cx="1026" cy="596" r="6" class="c0"/>
<circle cx="1152" cy="1002" r="6" class="c0"/>
<circle cx="870" cy="782" r="6" class="c0"/>
<circle cx="834" cy="708" r="6" class="c0"/>
<circle cx="942" cy="660" r="6" class="c0"/>
<circle cx="1116" cy="946" r="6" class="c0"/>
<circle cx="1270" cy="884" r="6" class="c0"/>
<circle cx="960" cy="808" r="6" class="c0"/>
<circle cx="852" cy="728" r="6" class="c0"/>
<circle cx="1032" cy="894" r="6" class="c0"/>
<circle cx="1142" cy="976" r="6" class="c0"/>
<circle cx="1050" cy="962" r="6" class="c0"/>
<circle cx="1100" cy="894" r="6" class="c0"/>
<circle cx="948" cy="794" r="6" class="c0"/>
<circle cx="882" cy="1000" r="6" class="c0"/>
<circle cx="926" cy="1022" r="6" class="c0"/>
<circle cx="950" cy="980" r="6" class="c0"/>
<circle cx="1054" cy="816" r="6" class="c0"/>
<circle cx="1006" cy="894" r="6" class="c0"/>
<circle cx="948" cy="762" r="6" class="c0"/>
<circle cx="1006" cy="944" r="6" class="c0"/>
<circle cx="942" cy="588" r="6" class="c0"/>
<circle cx="1106" cy="882" r="6" class="c0"/>
<circle cx="984" cy="574" r="6" class="c0"/>
<circle cx="1080" cy="746" r="6" class="c0"/>
<circle cx="1038" cy="754" r="6" class="c0"/>
<circle cx="1020" cy="570" r="6" class="c0"/>
<circle cx="886" cy="824" r="6" class="c0"/>
<circle cx="1064" cy="616" r="6" class="c0"/>
<circle cx="1058" cy="568" r="6" class="c0"/>
<circle cx="846" cy="742" r="6" class="c0"/>
<circle cx="1058" cy="704" r="6" class="c0"/>
<circle cx="1072" cy="588" r="6" class="c0"/>
<circle cx="1192" cy="716" r="6" class="c0"/>
<circle cx="788" cy="872" r="6" class="c0"/>
<circle cx="1160" cy="1010" r="6" class="c0"/>
<circle cx="1148" cy="766" r="6" class="c0"/>
<circle cx="1228" cy="754" r="6" class="c0"/>
<circle cx="1256" cy="700" r="6" class="c0"/>
<circle cx="968" cy="916" r="6" class="c0"/>
<circle cx="938" cy="910" r="6" class="c0"/>
<circle cx="1074" cy="700" r="6" class="c0"/>
<circle cx="1066" cy="756" r="6" class="c0"/>
<circle cx="822" cy="948" r="6" class="c0"/>
<circle cx="982" cy="1044" r="6" class="c0"/>
<circle cx="1110" cy="594" r="6" class="c0"/>
<circle cx="898" cy="616" r="6" class="c0"/>
<circle cx="1180" cy="640" r="6" class="c0"/>
<circle cx="812" cy="824" r="6" class="c0"/>
<circle cx="1128" cy="700" r="6" class="c0"/>
<circle cx="1122" cy="926" r="6" class="c0"/>
<circle cx="1042" cy="952" r="6" class="c0"/>
<circle cx="1118" cy="646" r="6" class="c0"/>
<circle cx="1164" cy="692" r="6" class="c0"/>
<circle cx="1028" cy="562" r="6" class="c0"/>
<circle cx="998" cy="586" r="6" class="c0"/>
<circle cx="966" cy="642" r="6" class="c0"/>
<circle cx="1026" cy="1022" r="6" class="c0"/>
<circle cx="1240" cy="794" r="6" class="c0"/>
<circle cx="982" cy="588" r="6" class="c0"/>
<circle cx="1230" cy="950" r="6" class="c0"/>
<circle cx="1006" cy="1016" r="6" class="c0"/>
<circle cx="1090" cy="826" r="6" class="c0"/>
<circle cx="892" cy="836" r="6" class="c0"/>
<circle cx="952" cy="916" r="6" class="c0"/>
<circle cx="1288" cy="856" r="6" class="c0"/>
<circle cx="876" cy="928" r="6" class="c0"/>
<circle cx="874" cy="756" r="6" class="c0"/>
<circle cx="932" cy="922" r="6" class="c0"/>
<circle cx="1048" cy="764" r="6" class="c0"/>
<circle cx="1038" cy="720" r="6" class="c0"/>
<circle cx="1072" cy="990" r="6" class="c0"/>
<circle cx="1026" cy="926" r="6" class="c0"/>
<circle cx="994" cy="902" r="6" class="c0"/>
<circle cx="844" cy="718" r="6" class="c0"/>
<circle cx="1100" cy="654" r="6" class="c0"/>
<circle cx="1012" cy="830" r="6" class="c0"/>
<circle cx="1256" cy="824" r="6" class="c0"/>
<circle cx="824" cy="860" r="6" class="c0"/>
<circle cx="1072" cy="820" r="6" class="c0"/>
<circle cx="1198" cy="666" r="6" class="c0"/>
<circle cx="958" cy="1038" r="6" class="c0"/>
<circle cx="998" cy="544" r="6" class="c0"/>
<circle cx="832" cy="924" r="6" class="c0"/>
<circle cx="906" cy="918" r="6" class="c0"/>
<circle cx="850" cy="978" r="6" class="c0"/>
<circle cx="1112" cy="1024" r="6" class="c0"/>
<circle cx="934" cy="650" r="6" class="c0"/>
<circle cx="916" cy="874" r="6" class="c0"/>
<circle cx="906" cy="1012" r="6" class="c0"/>
<circle cx="922" cy="820" r="6" class="c0"/>
<circle cx="1294" cy="806" r="6" class="c0"/>
<circle cx="1150" cy="934" r="6" class="c0"/>
<circle cx="1242" cy="750" r="6" class="c0"/>
<circle cx="1248" cy="894" r="6" class="c0"/>
<circle cx="814" cy="940" r="6" class="c0"/>
<circle cx="826" cy="744" r="6" class="c0"/>
<circle cx="860" cy="960" r="6" class="c0"/>
<circle cx="1154" cy="988" r="6" class="c0"/>
<circle cx="810" cy="782" r="6" class="c0"/>
<circle cx="1136" cy="604" r="6" class="c0"/>
<circle cx="1100" cy="850" r="6" class="c0"/>
<circle cx="980" cy="942" r="6" class="c0"/>
<circle cx="1072" cy="608" r="6" class="c0"/>
<circle cx="1074" cy="858" r="6" class="c0"/>
<circle cx="998" cy="1050" r="6" class="c0"/>
<circle cx="926" cy="584" r="6" class="c0"/>
<circle cx="1138" cy="942" r="6" class="c0"/>
<circle cx="946" cy="678" r="6" class="c0"/>
<circle cx="1060" cy="596" r="6" class="c0"/>
<circle cx="1070" cy="1064" r="6" class="c0"/>
<circle cx="1088" cy="1054" r="6" class="c0"/>
<circle cx="1076" cy="788" r="6" class="c0"/>
<circle cx="1006" cy="622" r="6" class="c0"/>
<circle cx="840" cy="882" r="6" class="c0"/>
<circle cx="778" cy="662" r="6" class="c0"/>
<circle cx="970" cy="600" r="6" class="c0"/>
<circle cx="1070" cy="686" r="6" class="c0"/>
<circle cx="1038" cy="906" r="6" class="c0"/>
<circle cx="1110" cy="866" r="6" class="c0"/>
<circle cx="1198" cy="964" r="6" class="c0"/>
<circle cx="1264" cy="896" r="6" class="c0"/>
<circle cx="878" cy="890" r="6" class="c0"/>
<circle cx="798" cy="880" r="6" class="c0"/>
<circle cx="1282" cy="876" r="6" class="c0"/>
<circle cx="1206" cy="986" r="6" class="c0"/>
<circle cx="1002" cy="776" r="6" class="c0"/>
<circle cx="810" cy="672" r="6" class="c0"/>
<circle cx="882" cy="772" r="6" class="c0"/>
<circle cx="1064" cy="670" r="6" class="c0"/>
<circle cx="970" cy="754" r="6" class="c0"/>
<circle cx="1070" cy="656" r="6" class="c0"/>
<circle cx="1124" cy="1056" r="6" class="c0"/>
<circle cx="964" cy="838" r="6" class="c0"/>
<circle cx="938" cy="952" r="6" class="c0"/>
<circle cx="1216" cy="696" r="6" class="c0"/>
<circle cx="1198" cy="942" r="6" class="c0"/>
<circle cx="956" cy="560" r="6" class="c0"/>
<circle cx="1060" cy="844" r="6" class="c0"/>
<circle cx="1226" cy="846" r="6" class="c0"/>
<circle cx="1156" cy="776" r="6" class="c0"/>
<circle cx="938" cy="722" r="6" class="c0"/>
<circle cx="1140" cy="1052" r="6" class="c0"/>
<circle cx="820" cy="898" r="6" class="c0"/>
<circle cx="1266" cy="714" r="6" class="c0"/>
<circle cx="956" cy="650" r="6" class="c0"/>
<circle cx="1032" cy="860" r="6" class="c0"/>
<circle cx="810" cy="886" r="6" class="c0"/>
<circle cx="1132" cy="840" r="6" class="c0"/>
<circle cx="1128" cy="952" r="6" class="c0"/>
<circle cx="1080" cy="950" r="6" class="c0"/>
<circle cx="1036" cy="1014" r="6" class="c0"/>
<circle cx="1114" cy="1064" r="6" class="c0"/>
<circle cx="980" cy="670" r="6" class="c0"/>
<circle cx="1162" cy="850" r="6" class="c0"/>
<circle cx="1088" cy="938" r="6" class="c0"/>
<circle cx="1172" cy="812" r="6" class="c0"/>
<circle cx="1054" cy="1066" r="6" class="c0"/>
<circle cx="810" cy="650" r="6" class="c0"/>
<circle cx="966" cy="1030" r="6" class="c0"/>
<circle cx="942" cy="972" r="6" class="c0"/>
<circle cx="1146" cy="752" r="6" class="c0"/>
<circle cx="1118" cy="574" r="6" class="c0"/>
<circle cx="1090" cy="992" r="6" class="c0"/>
<circle cx="1292" cy="820" r="6" class="c0"/>
<circle cx="850" cy="680" r="6" class="c0"/>
<circle cx="802" cy="790" r="6" class="c0"/>
<circle cx="1166" cy="868" r="6" class="c0"/>
<circle cx="1258" cy="850" r="6" class="c0"/>
<circle cx="1210" cy="814" r="6" class="c0"/>
</svg>
