<?xml version="1.0" encoding="utf-8"?>
<svg xmlns="http://www.w3.org/2000/svg"
     xmlns:xlink="http://www.w3.org/1999/xlink" width="1920" height="1440" >

            <defs>
            <style type="text/css"><![CDATA[
circle {stroke: none;}
.c0 {fill: #000000;}
]]></style>
            </defs>
<rect x="0" y="0" width="1920" height="1440" fill="white"/>
<circle cx="886" cy="490" r="14" class="c0"/>
<circle cx="906" cy="712" r="14" class="c0"/>
<circle cx="934" cy="1040" r="14" class="c0"/>
<circle cx="906" cy="742" r="12" class="c0"/>
<circle cx="902" cy="996" r="12" class="c0"/>
<circle cx="826" cy="946" r="12" class="c0"/>
<circle cx="904" cy="844" r="12" class="c0"/>
<circle cx="942" cy="966" r="12" class="c0"/>
<circle cx="872" cy="1026" r="12" class="c0"/>
<circle cx="910" cy="678" r="12" class="c0"/>
<circle cx="966" cy="882" r="12" class="c0"/>
<circle cx="876" cy="792" r="12" class="c0"/>
<circle cx="926" cy="650" r="12" class="c0"/>
<circle cx="864" cy="814" r="12" class="c0"/>
<circle cx="968" cy="968" r="12" class="c0"/>
<circle cx="936" cy="712" r="12" class="c0"/>
<circle cx="914" cy="958" r="12" class="c0"/>
<circle cx="868" cy="988" r="12" class="c0"/>
<circle cx="1790" cy="1000" r="12" class="c0"/>
<circle cx="930" cy="786" r="12" class="c0"/>
<circle cx="930" cy="926" r="12" class="c0"/>
<circle cx="846" cy="1036" r="12" class="c0"/>
<circle cx="864" cy="908" r="12" class="c0"/>
<circle cx="1814" cy="980" r="12" class="c0"/>
<circle cx="956" cy="1104" r="12" class="c0"/>
<circle cx="864" cy="736" r="10" class="c0"/>
<circle cx="944" cy="738" r="10" class="c0"/>
<circle cx="866" cy="764" r="10" class="c0"/>
<circle cx="876" cy="938" r="10" class="c0"/>
<circle cx="1840" cy="1016" r="10" class="c0"/>
<circle cx="910" cy="770" r="10" class="c0"/>
<circle cx="860" cy="870" r="10" class="c0"/>
<circle cx="950" cy="598" r="10" class="c0"/>
<circle cx="854" cy="932" r="10" class="c0"/>
<circle cx="1906" cy="966" r="10" class="c0"/>
<circle cx="862" cy="848" r="10" class="c0"/>
<circle cx="882" cy="858" r="10" class="c0"/>
<circle cx="906" cy="906" r="10" class="c0"/>
<circle cx="1864" cy="1012" r="10" class="c0"/>
<circle cx="902" cy="508" r="10" class="c0"/>
<circle cx="898" cy="590" r="10" class="c0"/>
<circle cx="822" cy="1008" r="10" class="c0"/>
<circle cx="888" cy="692" r="10" class="c0"/>
<circle cx="970" cy="1030" r="10" class="c0"/>
<circle cx="974" cy="526" r="10" class="c0"/>
<circle cx="956" cy="822" r="10" class="c0"/>
<circle cx="948" cy="906" r="10" class="c0"/>
<circle cx="896" cy="1122" r="10" class="c0"/>
<circle cx="930" cy="566" r="10" class="c0"/>
<circle cx="910" cy="528" r="10" class="c0"/>
<circle cx="918" cy="1064" r="10" class="c0"/>
<circle cx="940" cy="864" r="10" class="c0"/>
<circle cx="912" cy="618" r="10" class="c0"/>
<circle cx="848" cy="788" r="10" class="c0"/>
<circle cx="1820" cy="1006" r="10" class="c0"/>
<circle cx="906" cy="806" r="10" class="c0"/>
<circle cx="940" cy="518" r="10" class="c0"/>
<circle cx="900" cy="1052" r="10" class="c0"/>
<circle cx="944" cy="1000" r="10" class="c0"/>
<circle cx="952" cy="632" r="10" class="c0"/>
<circle cx="970" cy="934" r="10" class="c0"/>
<circle cx="840" cy="920" r="10" class="c0"/>
<circle cx="864" cy="964" r="10" class="c0"/>
<circle cx="836" cy="876" r="10" class="c0"/>
<circle cx="894" cy="644" r="10" class="c0"/>
<circle cx="1868" cy="964" r="10" class="c0"/>
<circle cx="928" cy="850" r="10" class="c0"/>
<circle cx="1894" cy="944" r="10" class="c0"/>
<circle cx="868" cy="1104" r="10" class="c0"/>
<circle cx="898" cy="784" r="10" class="c0"/>
<circle cx="948" cy="492" r="10" class="c0"/>
<circle cx="1848" cy="984" r="10" class="c0"/>
<circle cx="840" cy="966" r="10" class="c0"/>
<circle cx="896" cy="1088" r="10" class="c0"/>
<circle cx="838" cy="898" r="10" class="c0"/>
<circle cx="932" cy="474" r="10" class="c0"/>
<circle cx="898" cy="932" r="10" class="c0"/>
<circle cx="884" cy="1042" r="8" class="c0"/>
<circle cx="874" cy="706" r="8" class="c0"/>
<circle cx="944" cy="840" r="8" class="c0"/>
<circle cx="928" cy="506" r="8" class="c0"/>
<circle cx="918" cy="458" r="8" class="c0"/>
<circle cx="884" cy="722" r="8" class="c0"/>
<circle cx="1880" cy="980" r="8" class="c0"/>
<circle cx="914" cy="826" r="8" class="c0"/>
<circle cx="850" cy="836" r="8" class="c0"/>
<circle cx="976" cy="906" r="8" class="c0"/>
<circle cx="1832" cy="994" r="8" class="c0"/>
<circle cx="960" cy="662" r="8" class="c0"/>
<circle cx="884" cy="620" r="8" class="c0"/>
<circle cx="938" cy="612" r="8" class="c0"/>
<circle cx="1794" cy="1028" r="8" class="c0"/>
<circle cx="954" cy="684" r="8" class="c0"/>
<circle cx="948" cy="804" r="8" class="c0"/>
<circle cx="894" cy="886" r="8" class="c0"/>
<circle cx="940" cy="544" r="8" class="c0"/>
<circle cx="1900" cy="986" r="8" class="c0"/>
<circle cx="960" cy="1014" r="8" class="c0"/>
<circle cx="922" cy="588" r="8" class="c0"/>
<circle cx="942" cy="1120" r="8" class="c0"/>
<circle cx="888" cy="830" r="8" class="c0"/>
<circle cx="898" cy="972" r="8" class="c0"/>
<circle cx="1822" cy="956" r="8" class="c0"/>
<circle cx="918" cy="1092" r="8" class="c0"/>
<circle cx="930" cy="884" r="8" class="c0"/>
<circle cx="916" cy="1118" r="8" class="c0"/>
<circle cx="880" cy="750" r="8" class="c0"/>
<circle cx="962" cy="510" r="8" class="c0"/>
<circle cx="954" cy="1052" r="8" class="c0"/>
<circle cx="866" cy="616" r="8" class="c0"/>
<circle cx="918" cy="1020" r="8" class="c0"/>
<circle cx="944" cy="1082" r="8" class="c0"/>
<circle cx="952" cy="782" r="8" class="c0"/>
<circle cx="910" cy="570" r="8" class="c0"/>
<circle cx="872" cy="636" r="8" class="c0"/>
<circle cx="1854" cy="952" r="8" class="c0"/>
<circle cx="958" cy="950" r="8" class="c0"/>
<circle cx="1852" cy="1036" r="8" class="c0"/>
<circle cx="916" cy="872" r="8" class="c0"/>
<circle cx="948" cy="578" r="8" class="c0"/>
<circle cx="1890" cy="1004" r="8" class="c0"/>
<circle cx="882" cy="670" r="8" class="c0"/>
<circle cx="958" cy="704" r="8" class="c0"/>
<circle cx="906" cy="1104" r="8" class="c0"/>
<circle cx="932" cy="686" r="8" class="c0"/>
<circle cx="846" cy="758" r="8" class="c0"/>
<circle cx="944" cy="670" r="8" class="c0"/>
<circle cx="1782" cy="1050" r="8" class="c0"/>
<circle cx="856" cy="1004" r="8" class="c0"/>
<circle cx="1786" cy="966" r="8" class="c0"/>
<circle cx="976" cy="854" r="8" class="c0"/>
<circle cx="886" cy="768" r="8" class="c0"/>
<circle cx="988" cy="998" r="8" class="c0"/>
<circle cx="964" cy="482" r="8" class="c0"/>
<circle cx="964" cy="992" r="8" class="c0"/>
<circle cx="842" cy="808" r="8" class="c0"/>
<circle cx="946" cy="764" r="8" class="c0"/>
<circle cx="848" cy="1102" r="8" class="c0"/>
<circle cx="1840" cy="1060" r="8" class="c0"/>
<circle cx="928" cy="1102" r="8" class="c0"/>
<circle cx="900" cy="474" r="8" class="c0"/>
<circle cx="886" cy="1012" r="8" class="c0"/>
<circle cx="912" cy="484" r="8" class="c0"/>
<circle cx="842" cy="852" r="8" class="c0"/>
<circle cx="824" cy="1028" r="8" class="c0"/>
<circle cx="834" cy="990" r="8" class="c0"/>
<circle cx="926" cy="760" r="8" class="c0"/>
<circle cx="896" cy="1032" r="8" class="c0"/>
<circle cx="876" cy="1124" r="8" class="c0"/>
<circle cx="1778" cy="1018" r="8" class="c0"/>
<circle cx="928" cy="808" r="8" class="c0"/>
<circle cx="990" cy="1022" r="8" class="c0"/>
<circle cx="1804" cy="1018" r="8" class="c0"/>
<circle cx="1778" cy="984" r="8" class="c0"/>
<circle cx="918" cy="550" r="8" class="c0"/>
<circle cx="826" cy="1108" r="8" class="c0"/>
<circle cx="884" cy="958" r="8" class="c0"/>
<circle cx="1752" cy="1028" r="8" class="c0"/>
<circle cx="880" cy="598" r="8" class="c0"/>
<circle cx="916" cy="982" r="8" class="c0"/>
<circle cx="1812" cy="1038" r="8" class="c0"/>
<circle cx="894" cy="610" r="8" class="c0"/>
<circle cx="816" cy="986" r="8" class="c0"/>
<circle cx="932" cy="828" r="8" class="c0"/>
<circle cx="984" cy="980" r="8" class="c0"/>
<circle cx="1876" cy="1026" r="8" class="c0"/>
<circle cx="1842" cy="964" r="8" class="c0"/>
<circle cx="968" cy="838" r="8" class="c0"/>
<circle cx="1762" cy="1002" r="8" class="c0"/>
<circle cx="960" cy="918" r="8" class="c0"/>
<circle cx="1824" cy="1026" r="8" class="c0"/>
<circle cx="876" cy="882" r="8" class="c0"/>
<circle cx="818" cy="966" r="8" class="c0"/>
<circle cx="958" cy="536" r="8" class="c0"/>
<circle cx="920" cy="696" r="8" class="c0"/>
<circle cx="948" cy="940" r="8" class="c0"/>
<circle cx="888" cy="910" r="6" class="c0"/>
<circle cx="964" cy="796" r="6" class="c0"/>
<circle cx="852" cy="950" r="6" class="c0"/>
<circle cx="846" cy="734" r="6" class="c0"/>
<circle cx="924" cy="1002" r="6" class="c0"/>
<circle cx="1862" cy="994" r="6" class="c0"/>
<circle cx="930" cy="628" r="6" class="c0"/>
<circle cx="822" cy="922" r="6" class="c0"/>
<circle cx="980" cy="950" r="6" class="c0"/>
<circle cx="932" cy="988" r="6" class="c0"/>
<circle cx="882" cy="898" r="6" class="c0"/>
<circle cx="984" cy="1114" r="6" class="c0"/>
<circle cx="948" cy="462" r="6" class="c0"/>
<circle cx="952" cy="722" r="6" class="c0"/>
<circle cx="926" cy="536" r="6" class="c0"/>
<circle cx="958" cy="614" r="6" class="c0"/>
<circle cx="934" cy="948" r="6" class="c0"/>
<circle cx="958" cy="862" r="6" class="c0"/>
<circle cx="844" cy="1014" r="6" class="c0"/>
<circle cx="900" cy="662" r="6" class="c0"/>
<circle cx="950" cy="650" r="6" class="c0"/>
<circle cx="914" cy="888" r="6" class="c0"/>
<circle cx="926" cy="740" r="6" class="c0"/>
<circle cx="972" cy="500" r="6" class="c0"/>
<circle cx="912" cy="1036" r="6" class="c0"/>
<circle cx="888" cy="810" r="6" class="c0"/>
<circle cx="970" cy="674" r="6" class="c0"/>
<circle cx="940" cy="1018" r="6" class="c0"/>
<circle cx="982" cy="510" r="6" class="c0"/>
<circle cx="936" cy="456" r="6" class="c0"/>
<circle cx="808" cy="1102" r="6" class="c0"/>
<circle cx="850" cy="886" r="6" class="c0"/>
<circle cx="1876" cy="996" r="6" class="c0"/>
<circle cx="922" cy="898" r="6" class="c0"/>
<circle cx="888" cy="462" r="6" class="c0"/>
<circle cx="1888" cy="962" r="6" class="c0"/>
<circle cx="974" cy="1006" r="6" class="c0"/>
<circle cx="954" cy="982" r="6" class="c0"/>
<circle cx="868" cy="1046" r="6" class="c0"/>
<circle cx="1912" cy="946" r="6" class="c0"/>
<circle cx="880" cy="918" r="6" class="c0"/>
<circle cx="836" cy="742" r="6" class="c0"/>
<circle cx="982" cy="1044" r="6" class="c0"/>
<circle cx="968" cy="694" r="6" class="c0"/>
<circle cx="902" cy="864" r="6" class="c0"/>
<circle cx="980" cy="870" r="6" class="c0"/>
<circle cx="1870" cy="936" r="6" class="c0"/>
<circle cx="888" cy="1104" r="6" class="c0"/>
<circle cx="1836" cy="1044" r="6" class="c0"/>
<circle cx="934" cy="1072" r="6" class="c0"/>
<circle cx="882" cy="974" r="6" class="c0"/>
<circle cx="896" cy="758" r="6" class="c0"/>
<circle cx="924" cy="726" r="6" class="c0"/>
<circle cx="948" cy="560" r="6" class="c0"/>
<circle cx="834" cy="838" r="6" class="c0"/>
<circle cx="1818" cy="1060" r="6" class="c0"/>
<circle cx="850" cy="980" r="6" class="c0"/>
<circle cx="916" cy="938" r="6" class="c0"/>
<circle cx="1830" cy="1080" r="6" class="c0"/>
<circle cx="824" cy="908" r="6" class="c0"/>
<circle cx="878" cy="840" r="6" class="c0"/>
<circle cx="878" cy="654" r="6" class="c0"/>
<circle cx="1912" cy="1000" r="6" class="c0"/>
<circle cx="910" cy="636" r="6" class="c0"/>
<circle cx="972" cy="1120" r="6" class="c0"/>
<circle cx="946" cy="888" r="6" class="c0"/>
<circle cx="948" cy="1026" r="6" class="c0"/>
<circle cx="858" cy="1124" r="6" class="c0"/>
<circle cx="838" cy="824" r="6" class="c0"/>
<circle cx="1798" cy="1046" r="6" class="c0"/>
<circle cx="1850" cy="1002" r="6" class="c0"/>
<circle cx="898" cy="558" r="6" class="c0"/>
<circle cx="862" cy="718" r="6" class="c0"/>
<circle cx="926" cy="1128" r="6" class="c0"/>
<circle cx="924" cy="604" r="6" class="c0"/>
</svg>
