<?xml version="1.0" encoding="utf-8"?>
<svg xmlns="http://www.w3.org/2000/svg"
     xmlns:xlink="http://www.w3.org/1999/xlink" width="1920" height="1440" >

            <defs>
            <style type="text/css"><![CDATA[
circle {stroke: none;}
.c0 {fill: #000000;}
]]></style>
            </defs>
<rect x="0" y="0" width="1920" height="1440" fill="white"/>
<circle cx="844" cy="766" r="12" class="c0"/>
<circle cx="860" cy="720" r="12" class="c0"/>
<circle cx="844" cy="848" r="12" class="c0"/>
<circle cx="962" cy="996" r="12" class="c0"/>
<circle cx="946" cy="1048" r="12" class="c0"/>
<circle cx="954" cy="838" r="12" class="c0"/>
<circle cx="1898" cy="952" r="12" class="c0"/>
<circle cx="900" cy="1002" r="12" class="c0"/>
<circle cx="832" cy="1124" r="12" class="c0"/>
<circle cx="900" cy="752" r="12" class="c0"/>
<circle cx="950" cy="536" r="12" class="c0"/>
<circle cx="912" cy="852" r="12" class="c0"/>
<circle cx="930" cy="1032" r="12" class="c0"/>
<circle cx="902" cy="572" r="12" class="c0"/>
<circle cx="924" cy="742" r="12" class="c0"/>
<circle cx="890" cy="610" r="12" class="c0"/>
<circle cx="826" cy="920" r="12" class="c0"/>
<circle cx="922" cy="660" r="12" class="c0"/>
<circle cx="916" cy="918" r="10" class="c0"/>
<circle cx="896" cy="484" r="10" class="c0"/>
<circle cx="884" cy="712" r="10" class="c0"/>
<circle cx="928" cy="606" r="10" class="c0"/>
<circle cx="948" cy="680" r="10" class="c0"/>
<circle cx="864" cy="784" r="10" class="c0"/>
<circle cx="868" cy="980" r="10" class="c0"/>
<circle cx="972" cy="972" r="10" class="c0"/>
<circle cx="870" cy="862" r="10" class="c0"/>
<circle cx="900" cy="974" r="10" class="c0"/>
<circle cx="840" cy="876" r="10" class="c0"/>
<circle cx="888" cy="820" r="10" class="c0"/>
<circle cx="1808" cy="982" r="10" class="c0"/>
<circle cx="888" cy="1128" r="10" class="c0"/>
<circle cx="894" cy="934" r="10" class="c0"/>
<circle cx="958" cy="512" r="10" class="c0"/>
<circle cx="820" cy="1026" r="10" class="c0"/>
<circle cx="952" cy="480" r="10" class="c0"/>
<circle cx="900" cy="538" r="10" class="c0"/>
<circle cx="882" cy="1024" r="10" class="c0"/>
<circle cx="906" cy="1116" r="10" class="c0"/>
<circle cx="842" cy="798" r="10" class="c0"/>
<circle cx="884" cy="842" r="10" class="c0"/>
<circle cx="870" cy="940" r="10" class="c0"/>
<circle cx="844" cy="940" r="10" class="c0"/>
<circle cx="940" cy="584" r="10" class="c0"/>
<circle cx="958" cy="958" r="10" class="c0"/>
<circle cx="844" cy="1016" r="10" class="c0"/>
<circle cx="962" cy="870" r="10" class="c0"/>
<circle cx="840" cy="962" r="10" class="c0"/>
<circle cx="916" cy="804" r="10" class="c0"/>
<circle cx="904" cy="782" r="10" class="c0"/>
<circle cx="942" cy="762" r="10" class="c0"/>
<circle cx="844" cy="1042" r="10" class="c0"/>
<circle cx="1862" cy="1048" r="10" class="c0"/>
<circle cx="932" cy="782" r="10" class="c0"/>
<circle cx="814" cy="968" r="10" class="c0"/>
<circle cx="952" cy="908" r="10" class="c0"/>
<circle cx="818" cy="992" r="10" class="c0"/>
<circle cx="1908" cy="1012" r="10" class="c0"/>
<circle cx="908" cy="1076" r="10" class="c0"/>
<circle cx="916" cy="474" r="10" class="c0"/>
<circle cx="880" cy="966" r="10" class="c0"/>
<circle cx="832" cy="746" r="10" class="c0"/>
<circle cx="914" cy="946" r="10" class="c0"/>
<circle cx="928" cy="718" r="10" class="c0"/>
<circle cx="880" cy="676" r="10" class="c0"/>
<circle cx="868" cy="1114" r="10" class="c0"/>
<circle cx="1870" cy="1002" r="10" class="c0"/>
<circle cx="918" cy="896" r="10" class="c0"/>
<circle cx="884" cy="888" r="8" class="c0"/>
<circle cx="944" cy="930" r="8" class="c0"/>
<circle cx="894" cy="864" r="8" class="c0"/>
<circle cx="900" cy="1046" r="8" class="c0"/>
<circle cx="838" cy="986" r="8" class="c0"/>
<circle cx="914" cy="1098" r="8" class="c0"/>
<circle cx="930" cy="514" r="8" class="c0"/>
<circle cx="1852" cy="1012" r="8" class="c0"/>
<circle cx="908" cy="1028" r="8" class="c0"/>
<circle cx="864" cy="1014" r="8" class="c0"/>
<circle cx="924" cy="496" r="8" class="c0"/>
<circle cx="812" cy="948" r="8" class="c0"/>
<circle cx="868" cy="758" r="8" class="c0"/>
<circle cx="924" cy="874" r="8" class="c0"/>
<circle cx="936" cy="1090" r="8" class="c0"/>
<circle cx="876" cy="626" r="8" class="c0"/>
<circle cx="968" cy="1032" r="8" class="c0"/>
<circle cx="878" cy="910" r="8" class="c0"/>
<circle cx="884" cy="786" r="8" class="c0"/>
<circle cx="928" cy="1062" r="8" class="c0"/>
<circle cx="940" cy="988" r="8" class="c0"/>
<circle cx="910" cy="676" r="8" class="c0"/>
<circle cx="920" cy="978" r="8" class="c0"/>
<circle cx="880" cy="646" r="8" class="c0"/>
<circle cx="904" cy="646" r="8" class="c0"/>
<circle cx="888" cy="508" r="8" class="c0"/>
<circle cx="946" cy="614" r="8" class="c0"/>
<circle cx="1886" cy="1066" r="8" class="c0"/>
<circle cx="908" cy="822" r="8" class="c0"/>
<circle cx="856" cy="1030" r="8" class="c0"/>
<circle cx="822" cy="886" r="8" class="c0"/>
<circle cx="912" cy="522" r="8" class="c0"/>
<circle cx="860" cy="616" r="8" class="c0"/>
<circle cx="1834" cy="982" r="8" class="c0"/>
<circle cx="896" cy="694" r="8" class="c0"/>
<circle cx="882" cy="590" r="8" class="c0"/>
<circle cx="866" cy="886" r="8" class="c0"/>
<circle cx="858" cy="742" r="8" class="c0"/>
<circle cx="1826" cy="1014" r="8" class="c0"/>
<circle cx="964" cy="894" r="8" class="c0"/>
<circle cx="872" cy="482" r="8" class="c0"/>
<circle cx="1870" cy="1024" r="8" class="c0"/>
<circle cx="942" cy="806" r="8" class="c0"/>
<circle cx="848" cy="822" r="8" class="c0"/>
<circle cx="950" cy="978" r="8" class="c0"/>
<circle cx="904" cy="714" r="8" class="c0"/>
<circle cx="918" cy="1130" r="8" class="c0"/>
<circle cx="934" cy="950" r="8" class="c0"/>
<circle cx="878" cy="748" r="8" class="c0"/>
<circle cx="924" cy="626" r="8" class="c0"/>
<circle cx="1876" cy="972" r="8" class="c0"/>
<circle cx="930" cy="822" r="8" class="c0"/>
<circle cx="944" cy="1124" r="8" class="c0"/>
<circle cx="982" cy="1046" r="8" class="c0"/>
<circle cx="870" cy="828" r="8" class="c0"/>
<circle cx="922" cy="1006" r="8" class="c0"/>
<circle cx="860" cy="922" r="8" class="c0"/>
<circle cx="886" cy="768" r="8" class="c0"/>
<circle cx="936" cy="470" r="8" class="c0"/>
<circle cx="932" cy="840" r="8" class="c0"/>
<circle cx="922" cy="766" r="8" class="c0"/>
<circle cx="850" cy="906" r="8" class="c0"/>
<circle cx="826" cy="862" r="8" class="c0"/>
<circle cx="894" cy="464" r="8" class="c0"/>
<circle cx="938" cy="644" r="8" class="c0"/>
<circle cx="1856" cy="982" r="8" class="c0"/>
<circle cx="806" cy="1004" r="8" class="c0"/>
<circle cx="918" cy="454" r="8" class="c0"/>
<circle cx="1846" cy="1036" r="8" class="c0"/>
<circle cx="946" cy="886" r="8" class="c0"/>
<circle cx="864" cy="698" r="8" class="c0"/>
<circle cx="960" cy="668" r="8" class="c0"/>
<circle cx="926" cy="1110" r="8" class="c0"/>
<circle cx="868" cy="1048" r="8" class="c0"/>
<circle cx="1890" cy="984" r="8" class="c0"/>
<circle cx="966" cy="1130" r="8" class="c0"/>
<circle cx="934" cy="556" r="8" class="c0"/>
<circle cx="894" cy="664" r="8" class="c0"/>
<circle cx="1796" cy="1016" r="8" class="c0"/>
<circle cx="952" cy="596" r="8" class="c0"/>
<circle cx="1908" cy="978" r="8" class="c0"/>
<circle cx="950" cy="1024" r="8" class="c0"/>
<circle cx="926" cy="536" r="8" class="c0"/>
<circle cx="916" cy="594" r="8" class="c0"/>
<circle cx="948" cy="634" r="8" class="c0"/>
<circle cx="912" cy="616" r="8" class="c0"/>
<circle cx="938" cy="698" r="8" class="c0"/>
<circle cx="906" cy="500" r="8" class="c0"/>
<circle cx="858" cy="1136" r="8" class="c0"/>
<circle cx="888" cy="1102" r="8" class="c0"/>
<circle cx="932" cy="968" r="8" class="c0"/>
<circle cx="942" cy="868" r="8" class="c0"/>
<circle cx="1884" cy="1036" r="8" class="c0"/>
<circle cx="894" cy="898" r="8" class="c0"/>
<circle cx="1822" cy="1042" r="8" class="c0"/>
<circle cx="972" cy="930" r="8" class="c0"/>
<circle cx="892" cy="730" r="8" class="c0"/>
<circle cx="1866" cy="954" r="8" class="c0"/>
<circle cx="914" cy="696" r="8" class="c0"/>
<circle cx="904" cy="876" r="8" class="c0"/>
<circle cx="956" cy="816" r="8" class="c0"/>
<circle cx="1886" cy="1016" r="8" class="c0"/>
<circle cx="838" cy="896" r="8" class="c0"/>
<circle cx="982" cy="1022" r="8" class="c0"/>
<circle cx="942" cy="730" r="8" class="c0"/>
<circle cx="868" cy="806" r="8" class="c0"/>
<circle cx="1780" cy="994" r="8" class="c0"/>
<circle cx="864" cy="636" r="8" class="c0"/>
<circle cx="896" cy="1064" r="8" class="c0"/>
<circle cx="926" cy="686" r="8" class="c0"/>
<circle cx="948" cy="656" r="8" class="c0"/>
<circle cx="970" cy="500" r="8" class="c0"/>
<circle cx="876" cy="1004" r="8" class="c0"/>
<circle cx="948" cy="708" r="8" class="c0"/>
<circle cx="894" cy="802" r="6" class="c0"/>
<circle cx="874" cy="464" r="6" class="c0"/>
<circle cx="842" cy="732" r="6" class="c0"/>
<circle cx="1840" cy="998" r="6" class="c0"/>
<circle cx="888" cy="526" r="6" class="c0"/>
<circle cx="876" cy="1142" r="6" class="c0"/>
<circle cx="942" cy="1006" r="6" class="c0"/>
<circle cx="936" cy="900" r="6" class="c0"/>
<circle cx="854" cy="996" r="6" class="c0"/>
<circle cx="898" cy="1092" r="6" class="c0"/>
<circle cx="976" cy="946" r="6" class="c0"/>
<circle cx="954" cy="784" r="6" class="c0"/>
<circle cx="886" cy="988" r="6" class="c0"/>
<circle cx="904" cy="1142" r="6" class="c0"/>
<circle cx="914" cy="636" r="6" class="c0"/>
<circle cx="966" cy="1052" r="6" class="c0"/>
<circle cx="900" cy="626" r="6" class="c0"/>
<circle cx="926" cy="570" r="6" class="c0"/>
<circle cx="1870" cy="1064" r="6" class="c0"/>
<circle cx="894" cy="956" r="6" class="c0"/>
<circle cx="844" cy="1108" r="6" class="c0"/>
<circle cx="942" cy="1106" r="6" class="c0"/>
<circle cx="832" cy="834" r="6" class="c0"/>
<circle cx="934" cy="914" r="6" class="c0"/>
<circle cx="1894" cy="1002" r="6" class="c0"/>
<circle cx="1824" cy="994" r="6" class="c0"/>
<circle cx="928" cy="1140" r="6" class="c0"/>
<circle cx="962" cy="940" r="6" class="c0"/>
<circle cx="972" cy="912" r="6" class="c0"/>
<circle cx="970" cy="850" r="6" class="c0"/>
<circle cx="874" cy="732" r="6" class="c0"/>
<circle cx="942" cy="500" r="6" class="c0"/>
<circle cx="968" cy="526" r="6" class="c0"/>
<circle cx="964" cy="694" r="6" class="c0"/>
<circle cx="932" cy="858" r="6" class="c0"/>
<circle cx="918" cy="562" r="6" class="c0"/>
<circle cx="874" cy="498" r="6" class="c0"/>
<circle cx="916" cy="1052" r="6" class="c0"/>
<circle cx="1816" cy="1002" r="6" class="c0"/>
<circle cx="858" cy="956" r="6" class="c0"/>
<circle cx="854" cy="1056" r="6" class="c0"/>
<circle cx="916" cy="546" r="6" class="c0"/>
<circle cx="816" cy="902" r="6" class="c0"/>
<circle cx="826" cy="1008" r="6" class="c0"/>
<circle cx="878" cy="1060" r="6" class="c0"/>
<circle cx="980" cy="1006" r="6" class="c0"/>
<circle cx="1782" cy="1032" r="6" class="c0"/>
<circle cx="870" cy="660" r="6" class="c0"/>
<circle cx="910" cy="730" r="6" class="c0"/>
<circle cx="928" cy="934" r="6" class="c0"/>
<circle cx="986" cy="1128" r="6" class="c0"/>
<circle cx="832" cy="814" r="6" class="c0"/>
<circle cx="884" cy="1042" r="6" class="c0"/>
<circle cx="890" cy="636" r="6" class="c0"/>
<circle cx="896" cy="914" r="6" class="c0"/>
<circle cx="946" cy="1142" r="6" class="c0"/>
<circle cx="1798" cy="998" r="6" class="c0"/>
<circle cx="926" cy="1080" r="6" class="c0"/>
<circle cx="1842" cy="964" r="6" class="c0"/>
<circle cx="1906" cy="994" r="6" class="c0"/>
<circle cx="1814" cy="1028" r="6" class="c0"/>
<circle cx="870" cy="606" r="6" class="c0"/>
<circle cx="976" cy="518" r="6" class="c0"/>
<circle cx="1826" cy="968" r="6" class="c0"/>
<circle cx="1836" cy="1026" r="6" class="c0"/>
<circle cx="960" cy="796" r="6" class="c0"/>
<circle cx="818" cy="1112" r="6" class="c0"/>
<circle cx="864" cy="844" r="6" class="c0"/>
<circle cx="934" cy="486" r="6" class="c0"/>
<circle cx="818" cy="1044" r="6" class="c0"/>
<circle cx="966" cy="1016" r="6" class="c0"/>
<circle cx="898" cy="592" r="6" class="c0"/>
<circle cx="808" cy="1124" r="6" class="c0"/>
<circle cx="828" cy="950" r="6" class="c0"/>
<circle cx="918" cy="832" r="6" class="c0"/>
<circle cx="980" cy="988" r="6" class="c0"/>
<circle cx="1898" cy="1028" r="6" class="c0"/>
<circle cx="850" cy="976" r="6" class="c0"/>
<circle cx="958" cy="1114" r="6" class="c0"/>
</svg>
