<?xml version="1.0" encoding="utf-8"?>
<svg xmlns="http://www.w3.org/2000/svg"
     xmlns:xlink="http://www.w3.org/1999/xlink" width="1920" height="1440" >

            <defs>
            <style type="text/css"><![CDATA[
circle {stroke: none;}
.c0 {fill: #000000;}
]]></style>
            </defs>
<rect x="0" y="0" width="1920" height="1440" fill="white"/>
<circle cx="884" cy="624" r="14" class="c0"/>
<circle cx="868" cy="492" r="12" class="c0"/>
<circle cx="818" cy="822" r="12" class="c0"/>
<circle cx="796" cy="1036" r="12" class="c0"/>
<circle cx="848" cy="970" r="12" class="c0"/>
<circle cx="862" cy="880" r="12" class="c0"/>
<circle cx="864" cy="734" r="12" class="c0"/>
<circle cx="926" cy="986" r="12" class="c0"/>
<circle cx="878" cy="704" r="12" class="c0"/>
<circle cx="756" cy="1028" r="12" class="c0"/>
<circle cx="898" cy="1004" r="12" class="c0"/>
<circle cx="926" cy="1078" r="12" class="c0"/>
<circle cx="896" cy="582" r="10" class="c0"/>
<circle cx="930" cy="922" r="10" class="c0"/>
<circle cx="828" cy="754" r="10" class="c0"/>
<circle cx="806" cy="1074" r="10" class="c0"/>
<circle cx="904" cy="470" r="10" class="c0"/>
<circle cx="804" cy="630" r="10" class="c0"/>
<circle cx="820" cy="614" r="10" class="c0"/>
<circle cx="844" cy="1134" r="10" class="c0"/>
<circle cx="858" cy="1084" r="10" class="c0"/>
<circle cx="844" cy="502" r="10" class="c0"/>
<circle cx="850" cy="1226" r="10" class="c0"/>
<circle cx="788" cy="846" r="10" class="c0"/>
<circle cx="798" cy="1006" r="10" class="c0"/>
<circle cx="822" cy="1210" r="10" class="c0"/>
<circle cx="820" cy="1098" r="10" class="c0"/>
<circle cx="890" cy="956" r="10" class="c0"/>
<circle cx="872" cy="924" r="10" class="c0"/>
<circle cx="812" cy="990" r="10" class="c0"/>
<circle cx="890" cy="1132" r="10" class="c0"/>
<circle cx="822" cy="700" r="10" class="c0"/>
<circle cx="842" cy="852" r="10" class="c0"/>
<circle cx="850" cy="800" r="10" class="c0"/>
<circle cx="896" cy="652" r="10" class="c0"/>
<circle cx="902" cy="944" r="10" class="c0"/>
<circle cx="854" cy="1194" r="10" class="c0"/>
<circle cx="906" cy="908" r="10" class="c0"/>
<circle cx="914" cy="698" r="10" class="c0"/>
<circle cx="768" cy="1002" r="10" class="c0"/>
<circle cx="782" cy="990" r="10" class="c0"/>
<circle cx="886" cy="850" r="10" class="c0"/>
<circle cx="822" cy="1040" r="10" class="c0"/>
<circle cx="936" cy="1112" r="10" class="c0"/>
<circle cx="826" cy="900" r="10" class="c0"/>
<circle cx="910" cy="808" r="10" class="c0"/>
<circle cx="836" cy="446" r="10" class="c0"/>
<circle cx="812" cy="594" r="10" class="c0"/>
<circle cx="804" cy="914" r="10" class="c0"/>
<circle cx="876" cy="1032" r="10" class="c0"/>
<circle cx="828" cy="668" r="10" class="c0"/>
<circle cx="860" cy="542" r="10" class="c0"/>
<circle cx="844" cy="554" r="10" class="c0"/>
<circle cx="776" cy="1062" r="10" class="c0"/>
<circle cx="878" cy="1196" r="10" class="c0"/>
<circle cx="852" cy="1058" r="10" class="c0"/>
<circle cx="854" cy="1008" r="10" class="c0"/>
<circle cx="864" cy="1162" r="10" class="c0"/>
<circle cx="858" cy="780" r="10" class="c0"/>
<circle cx="878" cy="750" r="10" class="c0"/>
<circle cx="768" cy="928" r="10" class="c0"/>
<circle cx="770" cy="894" r="10" class="c0"/>
<circle cx="876" cy="1062" r="10" class="c0"/>
<circle cx="818" cy="650" r="10" class="c0"/>
<circle cx="876" cy="980" r="10" class="c0"/>
<circle cx="900" cy="726" r="10" class="c0"/>
<circle cx="820" cy="944" r="10" class="c0"/>
<circle cx="784" cy="792" r="10" class="c0"/>
<circle cx="918" cy="880" r="10" class="c0"/>
<circle cx="852" cy="910" r="10" class="c0"/>
<circle cx="880" cy="540" r="8" class="c0"/>
<circle cx="884" cy="1100" r="8" class="c0"/>
<circle cx="918" cy="674" r="8" class="c0"/>
<circle cx="892" cy="684" r="8" class="c0"/>
<circle cx="840" cy="534" r="8" class="c0"/>
<circle cx="854" cy="570" r="8" class="c0"/>
<circle cx="804" cy="954" r="8" class="c0"/>
<circle cx="870" cy="1110" r="8" class="c0"/>
<circle cx="806" cy="1226" r="8" class="c0"/>
<circle cx="908" cy="1038" r="8" class="c0"/>
<circle cx="874" cy="770" r="8" class="c0"/>
<circle cx="922" cy="958" r="8" class="c0"/>
<circle cx="904" cy="788" r="8" class="c0"/>
<circle cx="816" cy="844" r="8" class="c0"/>
<circle cx="864" cy="668" r="8" class="c0"/>
<circle cx="758" cy="964" r="8" class="c0"/>
<circle cx="894" cy="874" r="8" class="c0"/>
<circle cx="788" cy="946" r="8" class="c0"/>
<circle cx="848" cy="604" r="8" class="c0"/>
<circle cx="880" cy="472" r="8" class="c0"/>
<circle cx="838" cy="472" r="8" class="c0"/>
<circle cx="902" cy="1236" r="8" class="c0"/>
<circle cx="882" cy="792" r="8" class="c0"/>
<circle cx="882" cy="824" r="8" class="c0"/>
<circle cx="906" cy="1096" r="8" class="c0"/>
<circle cx="910" cy="1118" r="8" class="c0"/>
<circle cx="884" cy="1158" r="8" class="c0"/>
<circle cx="840" cy="692" r="8" class="c0"/>
<circle cx="920" cy="1008" r="8" class="c0"/>
<circle cx="888" cy="440" r="8" class="c0"/>
<circle cx="802" cy="742" r="8" class="c0"/>
<circle cx="824" cy="964" r="8" class="c0"/>
<circle cx="824" cy="574" r="8" class="c0"/>
<circle cx="776" cy="864" r="8" class="c0"/>
<circle cx="894" cy="778" r="8" class="c0"/>
<circle cx="784" cy="1088" r="8" class="c0"/>
<circle cx="838" cy="1076" r="8" class="c0"/>
<circle cx="858" cy="946" r="8" class="c0"/>
<circle cx="850" cy="1114" r="8" class="c0"/>
<circle cx="840" cy="640" r="8" class="c0"/>
<circle cx="942" cy="1056" r="8" class="c0"/>
<circle cx="896" cy="1186" r="8" class="c0"/>
<circle cx="756" cy="1078" r="8" class="c0"/>
<circle cx="892" cy="530" r="8" class="c0"/>
<circle cx="880" cy="896" r="8" class="c0"/>
<circle cx="752" cy="1198" r="8" class="c0"/>
<circle cx="836" cy="1180" r="8" class="c0"/>
<circle cx="892" cy="920" r="8" class="c0"/>
<circle cx="898" cy="752" r="8" class="c0"/>
<circle cx="852" cy="456" r="8" class="c0"/>
<circle cx="784" cy="1112" r="8" class="c0"/>
<circle cx="872" cy="1144" r="8" class="c0"/>
<circle cx="902" cy="1056" r="8" class="c0"/>
<circle cx="830" cy="782" r="8" class="c0"/>
<circle cx="914" cy="520" r="8" class="c0"/>
<circle cx="860" cy="512" r="8" class="c0"/>
<circle cx="798" cy="1098" r="8" class="c0"/>
<circle cx="910" cy="640" r="8" class="c0"/>
<circle cx="844" cy="586" r="8" class="c0"/>
<circle cx="862" cy="436" r="8" class="c0"/>
<circle cx="786" cy="1210" r="8" class="c0"/>
<circle cx="874" cy="654" r="8" class="c0"/>
<circle cx="846" cy="824" r="8" class="c0"/>
<circle cx="916" cy="828" r="8" class="c0"/>
<circle cx="894" cy="508" r="8" class="c0"/>
<circle cx="812" cy="862" r="8" class="c0"/>
<circle cx="830" cy="876" r="8" class="c0"/>
<circle cx="890" cy="560" r="8" class="c0"/>
<circle cx="916" cy="500" r="8" class="c0"/>
<circle cx="810" cy="440" r="8" class="c0"/>
<circle cx="794" cy="758" r="8" class="c0"/>
<circle cx="814" cy="1118" r="8" class="c0"/>
<circle cx="842" cy="996" r="8" class="c0"/>
<circle cx="830" cy="488" r="8" class="c0"/>
<circle cx="856" cy="838" r="8" class="c0"/>
<circle cx="814" cy="680" r="8" class="c0"/>
<circle cx="900" cy="450" r="8" class="c0"/>
<circle cx="824" cy="720" r="8" class="c0"/>
<circle cx="794" cy="876" r="8" class="c0"/>
<circle cx="900" cy="982" r="8" class="c0"/>
<circle cx="792" cy="964" r="8" class="c0"/>
<circle cx="860" cy="616" r="8" class="c0"/>
<circle cx="796" cy="776" r="8" class="c0"/>
<circle cx="850" cy="626" r="8" class="c0"/>
<circle cx="810" cy="798" r="8" class="c0"/>
<circle cx="840" cy="926" r="8" class="c0"/>
<circle cx="812" cy="480" r="8" class="c0"/>
<circle cx="934" cy="1216" r="8" class="c0"/>
<circle cx="824" cy="1008" r="8" class="c0"/>
<circle cx="894" cy="1074" r="8" class="c0"/>
<circle cx="872" cy="556" r="8" class="c0"/>
<circle cx="908" cy="864" r="8" class="c0"/>
<circle cx="814" cy="886" r="8" class="c0"/>
<circle cx="856" cy="1030" r="8" class="c0"/>
<circle cx="758" cy="1052" r="8" class="c0"/>
<circle cx="858" cy="644" r="8" class="c0"/>
<circle cx="876" cy="1216" r="8" class="c0"/>
<circle cx="774" cy="822" r="8" class="c0"/>
<circle cx="922" cy="1050" r="8" class="c0"/>
<circle cx="930" cy="1020" r="8" class="c0"/>
<circle cx="838" cy="1024" r="8" class="c0"/>
<circle cx="832" cy="1110" r="8" class="c0"/>
<circle cx="874" cy="578" r="8" class="c0"/>
<circle cx="940" cy="1032" r="8" class="c0"/>
<circle cx="768" cy="954" r="8" class="c0"/>
<circle cx="932" cy="946" r="8" class="c0"/>
<circle cx="854" cy="678" r="8" class="c0"/>
<circle cx="788" cy="812" r="8" class="c0"/>
<circle cx="846" cy="768" r="8" class="c0"/>
<circle cx="890" cy="484" r="8" class="c0"/>
<circle cx="906" cy="1200" r="8" class="c0"/>
<circle cx="780" cy="1018" r="6" class="c0"/>
<circle cx="862" cy="856" r="6" class="c0"/>
<circle cx="798" cy="716" r="6" class="c0"/>
<circle cx="840" cy="742" r="6" class="c0"/>
<circle cx="792" cy="926" r="6" class="c0"/>
<circle cx="846" cy="724" r="6" class="c0"/>
<circle cx="754" cy="946" r="6" class="c0"/>
<circle cx="802" cy="1208" r="6" class="c0"/>
<circle cx="866" cy="1180" r="6" class="c0"/>
<circle cx="810" cy="1184" r="6" class="c0"/>
<circle cx="798" cy="1124" r="6" class="c0"/>
<circle cx="876" cy="1082" r="6" class="c0"/>
<circle cx="832" cy="518" r="6" class="c0"/>
<circle cx="926" cy="1202" r="6" class="c0"/>
<circle cx="802" cy="832" r="6" class="c0"/>
<circle cx="872" cy="524" r="6" class="c0"/>
<circle cx="904" cy="606" r="6" class="c0"/>
<circle cx="848" cy="710" r="6" class="c0"/>
<circle cx="826" cy="552" r="6" class="c0"/>
<circle cx="826" cy="1066" r="6" class="c0"/>
<circle cx="946" cy="1082" r="6" class="c0"/>
<circle cx="880" cy="600" r="6" class="c0"/>
<circle cx="830" cy="598" r="6" class="c0"/>
<circle cx="920" cy="482" r="6" class="c0"/>
<circle cx="888" cy="1048" r="6" class="c0"/>
<circle cx="844" cy="1208" r="6" class="c0"/>
<circle cx="806" cy="460" r="6" class="c0"/>
<circle cx="872" cy="864" r="6" class="c0"/>
<circle cx="808" cy="1020" r="6" class="c0"/>
<circle cx="860" cy="990" r="6" class="c0"/>
<circle cx="794" cy="1196" r="6" class="c0"/>
<circle cx="838" cy="1094" r="6" class="c0"/>
<circle cx="808" cy="1052" r="6" class="c0"/>
<circle cx="838" cy="952" r="6" class="c0"/>
<circle cx="790" cy="892" r="6" class="c0"/>
<circle cx="830" cy="806" r="6" class="c0"/>
<circle cx="884" cy="808" r="6" class="c0"/>
<circle cx="870" cy="998" r="6" class="c0"/>
<circle cx="830" cy="984" r="6" class="c0"/>
<circle cx="782" cy="768" r="6" class="c0"/>
<circle cx="772" cy="838" r="6" class="c0"/>
<circle cx="808" cy="724" r="6" class="c0"/>
<circle cx="858" cy="694" r="6" class="c0"/>
<circle cx="834" cy="624" r="6" class="c0"/>
<circle cx="908" cy="620" r="6" class="c0"/>
<circle cx="864" cy="600" r="6" class="c0"/>
<circle cx="940" cy="1094" r="6" class="c0"/>
<circle cx="762" cy="1094" r="6" class="c0"/>
<circle cx="848" cy="482" r="6" class="c0"/>
<circle cx="862" cy="1126" r="6" class="c0"/>
<circle cx="912" cy="844" r="6" class="c0"/>
<circle cx="846" cy="892" r="6" class="c0"/>
<circle cx="762" cy="982" r="6" class="c0"/>
<circle cx="894" cy="1030" r="6" class="c0"/>
<circle cx="914" cy="930" r="6" class="c0"/>
<circle cx="866" cy="962" r="6" class="c0"/>
<circle cx="806" cy="972" r="6" class="c0"/>
<circle cx="820" cy="462" r="6" class="c0"/>
<circle cx="810" cy="760" r="6" class="c0"/>
<circle cx="902" cy="888" r="6" class="c0"/>
<circle cx="762" cy="878" r="6" class="c0"/>
<circle cx="870" cy="462" r="6" class="c0"/>
<circle cx="932" cy="904" r="6" class="c0"/>
<circle cx="920" cy="656" r="6" class="c0"/>
<circle cx="750" cy="988" r="6" class="c0"/>
<circle cx="876" cy="428" r="6" class="c0"/>
<circle cx="834" cy="428" r="6" class="c0"/>
<circle cx="768" cy="1110" r="6" class="c0"/>
<circle cx="870" cy="812" r="6" class="c0"/>
<circle cx="844" cy="660" r="6" class="c0"/>
<circle cx="938" cy="1000" r="6" class="c0"/>
<circle cx="882" cy="456" r="6" class="c0"/>
<circle cx="914" cy="972" r="6" class="c0"/>
<circle cx="798" cy="612" r="6" class="c0"/>
<circle cx="898" cy="828" r="6" class="c0"/>
<circle cx="836" cy="1050" r="6" class="c0"/>
<circle cx="936" cy="968" r="6" class="c0"/>
<circle cx="774" cy="1042" r="6" class="c0"/>
<circle cx="784" cy="914" r="6" class="c0"/>
<circle cx="848" cy="426" r="6" class="c0"/>
<circle cx="882" cy="1178" r="6" class="c0"/>
<circle cx="880" cy="942" r="6" class="c0"/>
<circle cx="774" cy="776" r="6" class="c0"/>
<circle cx="818" cy="740" r="6" class="c0"/>
<circle cx="766" cy="850" r="6" class="c0"/>
<circle cx="892" cy="1210" r="6" class="c0"/>
<circle cx="912" cy="1022" r="6" class="c0"/>
<circle cx="882" cy="724" r="6" class="c0"/>
<circle cx="758" cy="908" r="6" class="c0"/>
<circle cx="818" cy="1192" r="6" class="c0"/>
<circle cx="774" cy="974" r="6" class="c0"/>
<circle cx="1908" cy="1000" r="6" class="c0"/>
<circle cx="898" cy="1168" r="6" class="c0"/>
<circle cx="882" cy="672" r="6" class="c0"/>
<circle cx="772" cy="1192" r="6" class="c0"/>
<circle cx="822" cy="922" r="6" class="c0"/>
<circle cx="822" cy="632" r="6" class="c0"/>
<circle cx="814" cy="780" r="6" class="c0"/>
<circle cx="848" cy="750" r="6" class="c0"/>
<circle cx="912" cy="1066" r="6" class="c0"/>
<circle cx="924" cy="852" r="6" class="c0"/>
<circle cx="824" cy="1134" r="6" class="c0"/>
<circle cx="752" cy="1104" r="6" class="c0"/>
<circle cx="892" cy="1114" r="6" class="c0"/>
</svg>
