<?xml version="1.0" encoding="utf-8"?>
<svg xmlns="http://www.w3.org/2000/svg"
     xmlns:xlink="http://www.w3.org/1999/xlink" width="1920" height="1440" >

            <defs>
            <style type="text/css"><![CDATA[
circle {stroke: none;}
.c0 {fill: #000000;}
]]></style>
            </defs>
<rect x="0" y="0" width="1920" height="1440" fill="white"/>
<circle cx="880" cy="902" r="14" class="c0"/>
<circle cx="976" cy="576" r="14" class="c0"/>
<circle cx="1244" cy="652" r="12" class="c0"/>
<circle cx="1030" cy="938" r="12" class="c0"/>
<circle cx="956" cy="966" r="12" class="c0"/>
<circle cx="1262" cy="714" r="12" class="c0"/>
<circle cx="918" cy="692" r="12" class="c0"/>
<circle cx="1256" cy="764" r="12" class="c0"/>
<circle cx="834" cy="762" r="12" class="c0"/>
<circle cx="896" cy="772" r="12" class="c0"/>
<circle cx="1232" cy="756" r="12" class="c0"/>
<circle cx="820" cy="914" r="12" class="c0"/>
<circle cx="1016" cy="808" r="12" class="c0"/>
<circle cx="866" cy="622" r="12" class="c0"/>
<circle cx="916" cy="958" r="12" class="c0"/>
<circle cx="876" cy="968" r="12" class="c0"/>
<circle cx="834" cy="720" r="12" class="c0"/>
<circle cx="1058" cy="654" r="12" class="c0"/>
<circle cx="894" cy="850" r="12" class="c0"/>
<circle cx="980" cy="886" r="12" class="c0"/>
<circle cx="1186" cy="850" r="12" class="c0"/>
<circle cx="1062" cy="952" r="12" class="c0"/>
<circle cx="932" cy="872" r="12" class="c0"/>
<circle cx="966" cy="600" r="10" class="c0"/>
<circle cx="1056" cy="548" r="10" class="c0"/>
<circle cx="982" cy="958" r="10" class="c0"/>
<circle cx="936" cy="666" r="10" class="c0"/>
<circle cx="1196" cy="648" r="10" class="c0"/>
<circle cx="1076" cy="976" r="10" class="c0"/>
<circle cx="912" cy="656" r="10" class="c0"/>
<circle cx="1006" cy="706" r="10" class="c0"/>
<circle cx="1218" cy="804" r="10" class="c0"/>
<circle cx="1122" cy="562" r="10" class="c0"/>
<circle cx="1154" cy="710" r="10" class="c0"/>
<circle cx="1090" cy="844" r="10" class="c0"/>
<circle cx="1148" cy="916" r="10" class="c0"/>
<circle cx="996" cy="996" r="10" class="c0"/>
<circle cx="1068" cy="800" r="10" class="c0"/>
<circle cx="1202" cy="916" r="10" class="c0"/>
<circle cx="1104" cy="548" r="10" class="c0"/>
<circle cx="1084" cy="996" r="10" class="c0"/>
<circle cx="1048" cy="710" r="10" class="c0"/>
<circle cx="942" cy="744" r="10" class="c0"/>
<circle cx="896" cy="948" r="10" class="c0"/>
<circle cx="890" cy="586" r="10" class="c0"/>
<circle cx="826" cy="852" r="10" class="c0"/>
<circle cx="1120" cy="692" r="10" class="c0"/>
<circle cx="1010" cy="546" r="10" class="c0"/>
<circle cx="1168" cy="620" r="10" class="c0"/>
<circle cx="1004" cy="916" r="10" class="c0"/>
<circle cx="944" cy="592" r="10" class="c0"/>
<circle cx="1020" cy="1012" r="10" class="c0"/>
<circle cx="1192" cy="752" r="10" class="c0"/>
<circle cx="1154" cy="984" r="10" class="c0"/>
<circle cx="1182" cy="604" r="10" class="c0"/>
<circle cx="1158" cy="804" r="10" class="c0"/>
<circle cx="1092" cy="608" r="10" class="c0"/>
<circle cx="842" cy="646" r="10" class="c0"/>
<circle cx="986" cy="644" r="10" class="c0"/>
<circle cx="1084" cy="870" r="10" class="c0"/>
<circle cx="1140" cy="954" r="10" class="c0"/>
<circle cx="1182" cy="712" r="10" class="c0"/>
<circle cx="1018" cy="614" r="10" class="c0"/>
<circle cx="1118" cy="830" r="10" class="c0"/>
<circle cx="1078" cy="592" r="10" class="c0"/>
<circle cx="1128" cy="604" r="10" class="c0"/>
<circle cx="1054" cy="574" r="10" class="c0"/>
<circle cx="970" cy="666" r="10" class="c0"/>
<circle cx="972" cy="858" r="10" class="c0"/>
<circle cx="1130" cy="650" r="10" class="c0"/>
<circle cx="808" cy="838" r="10" class="c0"/>
<circle cx="976" cy="818" r="10" class="c0"/>
<circle cx="878" cy="568" r="10" class="c0"/>
<circle cx="858" cy="710" r="10" class="c0"/>
<circle cx="1038" cy="868" r="10" class="c0"/>
<circle cx="1230" cy="848" r="10" class="c0"/>
<circle cx="870" cy="734" r="10" class="c0"/>
<circle cx="906" cy="726" r="10" class="c0"/>
<circle cx="876" cy="940" r="10" class="c0"/>
<circle cx="1130" cy="762" r="10" class="c0"/>
<circle cx="1172" cy="652" r="10" class="c0"/>
<circle cx="950" cy="648" r="10" class="c0"/>
<circle cx="962" cy="724" r="10" class="c0"/>
<circle cx="1060" cy="1012" r="10" class="c0"/>
<circle cx="996" cy="730" r="10" class="c0"/>
<circle cx="1042" cy="752" r="10" class="c0"/>
<circle cx="1020" cy="734" r="10" class="c0"/>
<circle cx="1100" cy="902" r="10" class="c0"/>
<circle cx="1282" cy="748" r="10" class="c0"/>
<circle cx="1098" cy="654" r="10" class="c0"/>
<circle cx="1028" cy="848" r="10" class="c0"/>
<circle cx="874" cy="694" r="10" class="c0"/>
<circle cx="1156" cy="848" r="10" class="c0"/>
<circle cx="1160" cy="872" r="10" class="c0"/>
<circle cx="1032" cy="682" r="10" class="c0"/>
<circle cx="904" cy="806" r="10" class="c0"/>
<circle cx="852" cy="774" r="10" class="c0"/>
<circle cx="1110" cy="964" r="10" class="c0"/>
<circle cx="918" cy="752" r="10" class="c0"/>
<circle cx="940" cy="714" r="10" class="c0"/>
<circle cx="972" cy="926" r="10" class="c0"/>
<circle cx="1144" cy="890" r="10" class="c0"/>
<circle cx="1130" cy="992" r="10" class="c0"/>
<circle cx="1102" cy="574" r="10" class="c0"/>
<circle cx="1238" cy="912" r="10" class="c0"/>
<circle cx="1092" cy="676" r="10" class="c0"/>
<circle cx="1076" cy="910" r="10" class="c0"/>
<circle cx="928" cy="904" r="10" class="c0"/>
<circle cx="1124" cy="904" r="10" class="c0"/>
<circle cx="826" cy="790" r="10" class="c0"/>
<circle cx="1002" cy="778" r="10" class="c0"/>
<circle cx="842" cy="930" r="10" class="c0"/>
<circle cx="918" cy="828" r="10" class="c0"/>
<circle cx="1276" cy="778" r="10" class="c0"/>
<circle cx="1146" cy="786" r="10" class="c0"/>
<circle cx="992" cy="600" r="10" class="c0"/>
<circle cx="1218" cy="690" r="10" class="c0"/>
<circle cx="1214" cy="948" r="8" class="c0"/>
<circle cx="1108" cy="764" r="8" class="c0"/>
<circle cx="1244" cy="804" r="8" class="c0"/>
<circle cx="1072" cy="564" r="8" class="c0"/>
<circle cx="1120" cy="858" r="8" class="c0"/>
<circle cx="948" cy="560" r="8" class="c0"/>
<circle cx="1070" cy="718" r="8" class="c0"/>
<circle cx="858" cy="846" r="8" class="c0"/>
<circle cx="1112" cy="884" r="8" class="c0"/>
<circle cx="904" cy="564" r="8" class="c0"/>
<circle cx="1034" cy="536" r="8" class="c0"/>
<circle cx="1234" cy="886" r="8" class="c0"/>
<circle cx="1110" cy="942" r="8" class="c0"/>
<circle cx="1122" cy="788" r="8" class="c0"/>
<circle cx="1004" cy="892" r="8" class="c0"/>
<circle cx="762" cy="692" r="8" class="c0"/>
<circle cx="1212" cy="834" r="8" class="c0"/>
<circle cx="960" cy="778" r="8" class="c0"/>
<circle cx="932" cy="782" r="8" class="c0"/>
<circle cx="1038" cy="960" r="8" class="c0"/>
<circle cx="1010" cy="632" r="8" class="c0"/>
<circle cx="1230" cy="708" r="8" class="c0"/>
<circle cx="1170" cy="672" r="8" class="c0"/>
<circle cx="818" cy="808" r="8" class="c0"/>
<circle cx="1176" cy="782" r="8" class="c0"/>
<circle cx="1098" cy="792" r="8" class="c0"/>
<circle cx="1058" cy="686" r="8" class="c0"/>
<circle cx="1070" cy="842" r="8" class="c0"/>
<circle cx="1058" cy="828" r="8" class="c0"/>
<circle cx="1090" cy="950" r="8" class="c0"/>
<circle cx="1172" cy="820" r="8" class="c0"/>
<circle cx="1010" cy="834" r="8" class="c0"/>
<circle cx="942" cy="988" r="8" class="c0"/>
<circle cx="1036" cy="778" r="8" class="c0"/>
<circle cx="1006" cy="522" r="8" class="c0"/>
<circle cx="1234" cy="790" r="8" class="c0"/>
<circle cx="1002" cy="850" r="8" class="c0"/>
<circle cx="824" cy="874" r="8" class="c0"/>
<circle cx="880" cy="872" r="8" class="c0"/>
<circle cx="834" cy="890" r="8" class="c0"/>
<circle cx="854" cy="910" r="8" class="c0"/>
<circle cx="800" cy="718" r="8" class="c0"/>
<circle cx="1142" cy="814" r="8" class="c0"/>
<circle cx="1202" cy="732" r="8" class="c0"/>
<circle cx="1208" cy="664" r="8" class="c0"/>
<circle cx="1140" cy="742" r="8" class="c0"/>
<circle cx="1186" cy="810" r="8" class="c0"/>
<circle cx="1040" cy="732" r="8" class="c0"/>
<circle cx="1014" cy="670" r="8" class="c0"/>
<circle cx="1084" cy="772" r="8" class="c0"/>
<circle cx="1184" cy="974" r="8" class="c0"/>
<circle cx="1164" cy="730" r="8" class="c0"/>
<circle cx="1038" cy="994" r="8" class="c0"/>
<circle cx="852" cy="946" r="8" class="c0"/>
<circle cx="990" cy="558" r="8" class="c0"/>
<circle cx="1124" cy="582" r="8" class="c0"/>
<circle cx="1112" cy="722" r="8" class="c0"/>
<circle cx="1014" cy="764" r="8" class="c0"/>
<circle cx="1162" cy="940" r="8" class="c0"/>
<circle cx="976" cy="764" r="8" class="c0"/>
<circle cx="1126" cy="712" r="8" class="c0"/>
<circle cx="1110" cy="812" r="8" class="c0"/>
<circle cx="850" cy="670" r="8" class="c0"/>
<circle cx="1234" cy="680" r="8" class="c0"/>
<circle cx="1218" cy="630" r="8" class="c0"/>
<circle cx="962" cy="836" r="8" class="c0"/>
<circle cx="882" cy="650" r="8" class="c0"/>
<circle cx="1174" cy="744" r="8" class="c0"/>
<circle cx="948" cy="914" r="8" class="c0"/>
<circle cx="954" cy="896" r="8" class="c0"/>
<circle cx="1012" cy="952" r="8" class="c0"/>
<circle cx="974" cy="526" r="8" class="c0"/>
<circle cx="1024" cy="592" r="8" class="c0"/>
<circle cx="948" cy="626" r="8" class="c0"/>
<circle cx="1190" cy="946" r="8" class="c0"/>
<circle cx="1252" cy="686" r="8" class="c0"/>
<circle cx="900" cy="604" r="8" class="c0"/>
<circle cx="878" cy="786" r="8" class="c0"/>
<circle cx="966" cy="994" r="8" class="c0"/>
<circle cx="842" cy="806" r="8" class="c0"/>
<circle cx="1062" cy="750" r="8" class="c0"/>
<circle cx="1110" cy="626" r="8" class="c0"/>
<circle cx="858" cy="816" r="8" class="c0"/>
<circle cx="1052" cy="926" r="8" class="c0"/>
<circle cx="938" cy="954" r="8" class="c0"/>
<circle cx="1204" cy="766" r="8" class="c0"/>
<circle cx="758" cy="718" r="8" class="c0"/>
<circle cx="1030" cy="890" r="8" class="c0"/>
<circle cx="1004" cy="654" r="8" class="c0"/>
<circle cx="882" cy="828" r="8" class="c0"/>
<circle cx="1124" cy="930" r="8" class="c0"/>
<circle cx="964" cy="634" r="8" class="c0"/>
<circle cx="1180" cy="918" r="8" class="c0"/>
<circle cx="1048" cy="886" r="8" class="c0"/>
<circle cx="848" cy="866" r="8" class="c0"/>
<circle cx="1040" cy="610" r="8" class="c0"/>
<circle cx="924" cy="980" r="8" class="c0"/>
<circle cx="1256" cy="856" r="8" class="c0"/>
<circle cx="868" cy="760" r="8" class="c0"/>
<circle cx="1092" cy="700" r="8" class="c0"/>
<circle cx="1222" cy="654" r="8" class="c0"/>
<circle cx="1158" cy="582" r="8" class="c0"/>
<circle cx="1042" cy="666" r="8" class="c0"/>
<circle cx="1242" cy="726" r="8" class="c0"/>
<circle cx="958" cy="700" r="8" class="c0"/>
<circle cx="1090" cy="630" r="8" class="c0"/>
<circle cx="1046" cy="976" r="8" class="c0"/>
<circle cx="1150" cy="642" r="8" class="c0"/>
<circle cx="1098" cy="932" r="8" class="c0"/>
<circle cx="1238" cy="824" r="8" class="c0"/>
<circle cx="848" cy="836" r="8" class="c0"/>
<circle cx="1090" cy="728" r="8" class="c0"/>
<circle cx="878" cy="808" r="8" class="c0"/>
<circle cx="1032" cy="916" r="8" class="c0"/>
<circle cx="1074" cy="890" r="8" class="c0"/>
<circle cx="958" cy="540" r="8" class="c0"/>
<circle cx="912" cy="920" r="8" class="c0"/>
<circle cx="948" cy="798" r="8" class="c0"/>
<circle cx="1214" cy="874" r="8" class="c0"/>
<circle cx="1192" cy="880" r="8" class="c0"/>
<circle cx="1172" cy="762" r="8" class="c0"/>
<circle cx="992" cy="664" r="8" class="c0"/>
<circle cx="966" cy="754" r="8" class="c0"/>
<circle cx="1012" cy="566" r="8" class="c0"/>
<circle cx="1194" cy="898" r="8" class="c0"/>
<circle cx="1140" cy="866" r="8" class="c0"/>
<circle cx="934" cy="932" r="8" class="c0"/>
<circle cx="1064" cy="990" r="8" class="c0"/>
<circle cx="1038" cy="644" r="8" class="c0"/>
<circle cx="1036" cy="800" r="8" class="c0"/>
<circle cx="1060" cy="622" r="8" class="c0"/>
<circle cx="978" cy="712" r="8" class="c0"/>
<circle cx="1142" cy="666" r="8" class="c0"/>
<circle cx="920" cy="538" r="8" class="c0"/>
<circle cx="866" cy="662" r="8" class="c0"/>
<circle cx="1196" cy="790" r="8" class="c0"/>
<circle cx="1154" cy="758" r="8" class="c0"/>
<circle cx="1206" cy="964" r="8" class="c0"/>
<circle cx="906" cy="984" r="8" class="c0"/>
<circle cx="858" cy="880" r="8" class="c0"/>
<circle cx="976" cy="796" r="8" class="c0"/>
<circle cx="1020" cy="646" r="8" class="c0"/>
<circle cx="928" cy="640" r="8" class="c0"/>
<circle cx="836" cy="684" r="8" class="c0"/>
<circle cx="910" cy="882" r="8" class="c0"/>
<circle cx="926" cy="606" r="8" class="c0"/>
<circle cx="1272" cy="682" r="8" class="c0"/>
<circle cx="1220" cy="776" r="8" class="c0"/>
<circle cx="1198" cy="620" r="8" class="c0"/>
<circle cx="1032" cy="572" r="8" class="c0"/>
<circle cx="900" cy="638" r="8" class="c0"/>
<circle cx="1146" cy="624" r="8" class="c0"/>
<circle cx="1072" cy="636" r="8" class="c0"/>
<circle cx="1086" cy="820" r="8" class="c0"/>
<circle cx="1076" cy="538" r="8" class="c0"/>
<circle cx="1026" cy="976" r="8" class="c0"/>
<circle cx="1164" cy="904" r="8" class="c0"/>
<circle cx="1222" cy="728" r="8" class="c0"/>
<circle cx="982" cy="908" r="8" class="c0"/>
<circle cx="964" cy="806" r="8" class="c0"/>
<circle cx="1216" cy="894" r="8" class="c0"/>
<circle cx="1218" cy="610" r="8" class="c0"/>
<circle cx="1264" cy="800" r="8" class="c0"/>
<circle cx="916" cy="596" r="8" class="c0"/>
<circle cx="1170" cy="964" r="8" class="c0"/>
<circle cx="982" cy="678" r="8" class="c0"/>
<circle cx="1180" cy="584" r="8" class="c0"/>
<circle cx="940" cy="816" r="8" class="c0"/>
<circle cx="1140" cy="832" r="8" class="c0"/>
<circle cx="1138" cy="572" r="8" class="c0"/>
<circle cx="824" cy="828" r="8" class="c0"/>
<circle cx="952" cy="680" r="8" class="c0"/>
<circle cx="994" cy="872" r="8" class="c0"/>
<circle cx="878" cy="598" r="8" class="c0"/>
<circle cx="896" cy="704" r="8" class="c0"/>
<circle cx="930" cy="730" r="8" class="c0"/>
<circle cx="910" cy="620" r="8" class="c0"/>
<circle cx="1170" cy="700" r="8" class="c0"/>
<circle cx="806" cy="866" r="8" class="c0"/>
<circle cx="1078" cy="930" r="8" class="c0"/>
<circle cx="810" cy="730" r="8" class="c0"/>
<circle cx="1048" cy="810" r="8" class="c0"/>
<circle cx="884" cy="668" r="8" class="c0"/>
<circle cx="1202" cy="862" r="8" class="c0"/>
<circle cx="1086" cy="746" r="8" class="c0"/>
<circle cx="1060" cy="876" r="8" class="c0"/>
<circle cx="1142" cy="698" r="8" class="c0"/>
<circle cx="1026" cy="790" r="8" class="c0"/>
<circle cx="1006" cy="974" r="8" class="c0"/>
<circle cx="950" cy="860" r="8" class="c0"/>
<circle cx="1258" cy="668" r="8" class="c0"/>
<circle cx="1260" cy="736" r="8" class="c0"/>
<circle cx="1158" cy="682" r="8" class="c0"/>
<circle cx="1102" cy="862" r="8" class="c0"/>
<circle cx="970" cy="946" r="8" class="c0"/>
<circle cx="1118" cy="672" r="8" class="c0"/>
<circle cx="990" cy="538" r="8" class="c0"/>
<circle cx="1154" cy="602" r="8" class="c0"/>
<circle cx="1068" cy="696" r="8" class="c0"/>
<circle cx="948" cy="524" r="8" class="c0"/>
<circle cx="1254" cy="874" r="8" class="c0"/>
<circle cx="1194" cy="696" r="8" class="c0"/>
<circle cx="1104" cy="984" r="8" class="c0"/>
<circle cx="930" cy="548" r="8" class="c0"/>
<circle cx="902" cy="542" r="8" class="c0"/>
<circle cx="1000" cy="936" r="8" class="c0"/>
<circle cx="1002" cy="576" r="8" class="c0"/>
<circle cx="916" cy="858" r="8" class="c0"/>
<circle cx="922" cy="566" r="8" class="c0"/>
<circle cx="1078" cy="664" r="8" class="c0"/>
<circle cx="1202" cy="602" r="8" class="c0"/>
<circle cx="888" cy="614" r="8" class="c0"/>
<circle cx="1208" cy="708" r="8" class="c0"/>
<circle cx="1100" cy="1010" r="8" class="c0"/>
<circle cx="1004" cy="748" r="8" class="c0"/>
<circle cx="1110" cy="920" r="8" class="c0"/>
<circle cx="1000" cy="684" r="6" class="c0"/>
<circle cx="810" cy="898" r="6" class="c0"/>
<circle cx="1190" cy="674" r="6" class="c0"/>
<circle cx="942" cy="768" r="6" class="c0"/>
<circle cx="1236" cy="930" r="6" class="c0"/>
<circle cx="1186" cy="770" r="6" class="c0"/>
<circle cx="980" cy="616" r="6" class="c0"/>
<circle cx="1056" cy="902" r="6" class="c0"/>
<circle cx="1012" cy="862" r="6" class="c0"/>
<circle cx="808" cy="818" r="6" class="c0"/>
<circle cx="986" cy="752" r="6" class="c0"/>
<circle cx="930" cy="624" r="6" class="c0"/>
<circle cx="1250" cy="900" r="6" class="c0"/>
<circle cx="882" cy="632" r="6" class="c0"/>
<circle cx="1254" cy="832" r="6" class="c0"/>
<circle cx="1054" cy="776" r="6" class="c0"/>
<circle cx="1130" cy="880" r="6" class="c0"/>
<circle cx="1184" cy="628" r="6" class="c0"/>
<circle cx="1058" cy="858" r="6" class="c0"/>
<circle cx="1072" cy="734" r="6" class="c0"/>
<circle cx="744" cy="704" r="6" class="c0"/>
<circle cx="1230" cy="944" r="6" class="c0"/>
<circle cx="796" cy="854" r="6" class="c0"/>
<circle cx="860" cy="594" r="6" class="c0"/>
<circle cx="1284" cy="716" r="6" class="c0"/>
<circle cx="776" cy="720" r="6" class="c0"/>
<circle cx="848" cy="748" r="6" class="c0"/>
<circle cx="1128" cy="632" r="6" class="c0"/>
<circle cx="1184" cy="830" r="6" class="c0"/>
<circle cx="1184" cy="686" r="6" class="c0"/>
<circle cx="820" cy="750" r="6" class="c0"/>
<circle cx="898" cy="870" r="6" class="c0"/>
<circle cx="866" cy="862" r="6" class="c0"/>
<circle cx="868" cy="922" r="6" class="c0"/>
<circle cx="848" cy="694" r="6" class="c0"/>
<circle cx="952" cy="936" r="6" class="c0"/>
<circle cx="928" cy="996" r="6" class="c0"/>
<circle cx="906" cy="674" r="6" class="c0"/>
<circle cx="830" cy="942" r="6" class="c0"/>
<circle cx="950" cy="880" r="6" class="c0"/>
<circle cx="1114" cy="642" r="6" class="c0"/>
<circle cx="938" cy="616" r="6" class="c0"/>
<circle cx="1016" cy="904" r="6" class="c0"/>
<circle cx="922" cy="794" r="6" class="c0"/>
<circle cx="1102" cy="738" r="6" class="c0"/>
<circle cx="1056" cy="596" r="6" class="c0"/>
<circle cx="1220" cy="918" r="6" class="c0"/>
<circle cx="962" cy="1012" r="6" class="c0"/>
<circle cx="1052" cy="530" r="6" class="c0"/>
<circle cx="1202" cy="680" r="6" class="c0"/>
<circle cx="1244" cy="780" r="6" class="c0"/>
<circle cx="886" cy="724" r="6" class="c0"/>
<circle cx="1134" cy="974" r="6" class="c0"/>
<circle cx="1044" cy="626" r="6" class="c0"/>
<circle cx="1108" cy="598" r="6" class="c0"/>
<circle cx="1014" cy="876" r="6" class="c0"/>
<circle cx="1214" cy="742" r="6" class="c0"/>
<circle cx="918" cy="938" r="6" class="c0"/>
<circle cx="914" cy="780" r="6" class="c0"/>
<circle cx="834" cy="662" r="6" class="c0"/>
<circle cx="826" cy="694" r="6" class="c0"/>
<circle cx="910" cy="902" r="6" class="c0"/>
<circle cx="868" cy="796" r="6" class="c0"/>
<circle cx="1122" cy="746" r="6" class="c0"/>
<circle cx="994" cy="800" r="6" class="c0"/>
<circle cx="884" cy="924" r="6" class="c0"/>
<circle cx="984" cy="836" r="6" class="c0"/>
<circle cx="1002" cy="1016" r="6" class="c0"/>
<circle cx="894" cy="740" r="6" class="c0"/>
<circle cx="938" cy="690" r="6" class="c0"/>
<circle cx="1212" cy="930" r="6" class="c0"/>
<circle cx="1144" cy="934" r="6" class="c0"/>
<circle cx="1094" cy="972" r="6" class="c0"/>
<circle cx="876" cy="716" r="6" class="c0"/>
<circle cx="986" cy="976" r="6" class="c0"/>
<circle cx="1030" cy="630" r="6" class="c0"/>
<circle cx="1016" cy="988" r="6" class="c0"/>
<circle cx="870" cy="584" r="6" class="c0"/>
<circle cx="1028" cy="714" r="6" class="c0"/>
<circle cx="832" cy="742" r="6" class="c0"/>
<circle cx="1138" cy="724" r="6" class="c0"/>
<circle cx="1140" cy="588" r="6" class="c0"/>
<circle cx="972" cy="690" r="6" class="c0"/>
<circle cx="1178" cy="888" r="6" class="c0"/>
<circle cx="1134" cy="682" r="6" class="c0"/>
<circle cx="874" cy="842" r="6" class="c0"/>
<circle cx="1040" cy="830" r="6" class="c0"/>
<circle cx="1044" cy="590" r="6" class="c0"/>
<circle cx="1030" cy="556" r="6" class="c0"/>
<circle cx="1240" cy="696" r="6" class="c0"/>
<circle cx="976" cy="742" r="6" class="c0"/>
<circle cx="942" cy="838" r="6" class="c0"/>
<circle cx="1132" cy="848" r="6" class="c0"/>
<circle cx="1074" cy="760" r="6" class="c0"/>
<circle cx="1206" cy="818" r="6" class="c0"/>
<circle cx="884" cy="748" r="6" class="c0"/>
<circle cx="994" cy="820" r="6" class="c0"/>
<circle cx="1152" cy="966" r="6" class="c0"/>
<circle cx="1128" cy="732" r="6" class="c0"/>
<circle cx="1180" cy="996" r="6" class="c0"/>
<circle cx="950" cy="760" r="6" class="c0"/>
<circle cx="850" cy="732" r="6" class="c0"/>
<circle cx="804" cy="882" r="6" class="c0"/>
<circle cx="1154" cy="566" r="6" class="c0"/>
<circle cx="1032" cy="822" r="6" class="c0"/>
<circle cx="818" cy="772" r="6" class="c0"/>
<circle cx="1056" cy="728" r="6" class="c0"/>
<circle cx="992" cy="692" r="6" class="c0"/>
<circle cx="1238" cy="628" r="6" class="c0"/>
<circle cx="970" cy="550" r="6" class="c0"/>
<circle cx="1046" cy="850" r="6" class="c0"/>
<circle cx="848" cy="962" r="6" class="c0"/>
<circle cx="1120" cy="1008" r="6" class="c0"/>
<circle cx="1232" cy="868" r="6" class="c0"/>
<circle cx="1082" cy="574" r="6" class="c0"/>
<circle cx="978" cy="1010" r="6" class="c0"/>
<circle cx="888" cy="554" r="6" class="c0"/>
<circle cx="1246" cy="744" r="6" class="c0"/>
<circle cx="1108" cy="706" r="6" class="c0"/>
<circle cx="900" cy="894" r="6" class="c0"/>
<circle cx="890" cy="982" r="6" class="c0"/>
<circle cx="984" cy="780" r="6" class="c0"/>
<circle cx="952" cy="610" r="6" class="c0"/>
<circle cx="1256" cy="816" r="6" class="c0"/>
<circle cx="992" cy="626" r="6" class="c0"/>
<circle cx="962" cy="618" r="6" class="c0"/>
<circle cx="818" cy="710" r="6" class="c0"/>
<circle cx="1160" cy="774" r="6" class="c0"/>
<circle cx="922" cy="712" r="6" class="c0"/>
<circle cx="964" cy="874" r="6" class="c0"/>
<circle cx="1120" cy="978" r="6" class="c0"/>
<circle cx="912" cy="580" r="6" class="c0"/>
<circle cx="950" cy="1004" r="6" class="c0"/>
<circle cx="936" cy="850" r="6" class="c0"/>
<circle cx="858" cy="684" r="6" class="c0"/>
<circle cx="1204" cy="938" r="6" class="c0"/>
<circle cx="928" cy="584" r="6" class="c0"/>
<circle cx="864" cy="644" r="6" class="c0"/>
<circle cx="1276" cy="728" r="6" class="c0"/>
<circle cx="1124" cy="804" r="6" class="c0"/>
<circle cx="1000" cy="618" r="6" class="c0"/>
<circle cx="896" cy="686" r="6" class="c0"/>
<circle cx="990" cy="520" r="6" class="c0"/>
<circle cx="1024" cy="700" r="6" class="c0"/>
<circle cx="898" cy="968" r="6" class="c0"/>
<circle cx="1122" cy="952" r="6" class="c0"/>
<circle cx="788" cy="728" r="6" class="c0"/>
<circle cx="898" cy="824" r="6" class="c0"/>
<circle cx="1014" cy="688" r="6" class="c0"/>
<circle cx="1256" cy="786" r="6" class="c0"/>
<circle cx="1082" cy="1018" r="6" class="c0"/>
<circle cx="1080" cy="620" r="6" class="c0"/>
<circle cx="844" cy="900" r="6" class="c0"/>
<circle cx="1024" cy="524" r="6" class="c0"/>
<circle cx="1170" cy="836" r="6" class="c0"/>
<circle cx="936" cy="970" r="6" class="c0"/>
<circle cx="1068" cy="676" r="6" class="c0"/>
<circle cx="1086" cy="554" r="6" class="c0"/>
<circle cx="1088" cy="804" r="6" class="c0"/>
<circle cx="890" cy="882" r="6" class="c0"/>
<circle cx="928" cy="806" r="6" class="c0"/>
<circle cx="1178" cy="934" r="6" class="c0"/>
<circle cx="852" cy="794" r="6" class="c0"/>
<circle cx="902" cy="930" r="6" class="c0"/>
<circle cx="1146" cy="1000" r="6" class="c0"/>
<circle cx="1042" cy="1010" r="6" class="c0"/>
<circle cx="1278" cy="704" r="6" class="c0"/>
</svg>
