<?xml version="1.0" encoding="utf-8"?>
<svg xmlns="http://www.w3.org/2000/svg"
     xmlns:xlink="http://www.w3.org/1999/xlink" width="1920" height="1440" >

            <defs>
            <style type="text/css"><![CDATA[
circle {stroke: none;}
.c0 {fill: #000000;}
]]></style>
            </defs>
<rect x="0" y="0" width="1920" height="1440" fill="white"/>
<circle cx="884" cy="1052" r="12" class="c0"/>
<circle cx="832" cy="960" r="12" class="c0"/>
<circle cx="870" cy="974" r="12" class="c0"/>
<circle cx="832" cy="632" r="12" class="c0"/>
<circle cx="772" cy="1178" r="12" class="c0"/>
<circle cx="834" cy="1168" r="12" class="c0"/>
<circle cx="734" cy="942" r="12" class="c0"/>
<circle cx="806" cy="422" r="12" class="c0"/>
<circle cx="782" cy="1140" r="12" class="c0"/>
<circle cx="806" cy="1114" r="12" class="c0"/>
<circle cx="812" cy="556" r="12" class="c0"/>
<circle cx="792" cy="714" r="12" class="c0"/>
<circle cx="834" cy="488" r="12" class="c0"/>
<circle cx="820" cy="790" r="12" class="c0"/>
<circle cx="872" cy="476" r="12" class="c0"/>
<circle cx="854" cy="1276" r="12" class="c0"/>
<circle cx="842" cy="576" r="12" class="c0"/>
<circle cx="782" cy="868" r="12" class="c0"/>
<circle cx="734" cy="998" r="12" class="c0"/>
<circle cx="824" cy="930" r="12" class="c0"/>
<circle cx="794" cy="1286" r="12" class="c0"/>
<circle cx="804" cy="464" r="12" class="c0"/>
<circle cx="778" cy="456" r="12" class="c0"/>
<circle cx="704" cy="1154" r="12" class="c0"/>
<circle cx="792" cy="974" r="10" class="c0"/>
<circle cx="846" cy="1058" r="10" class="c0"/>
<circle cx="832" cy="892" r="10" class="c0"/>
<circle cx="820" cy="664" r="10" class="c0"/>
<circle cx="866" cy="438" r="10" class="c0"/>
<circle cx="886" cy="1082" r="10" class="c0"/>
<circle cx="866" cy="802" r="10" class="c0"/>
<circle cx="828" cy="1192" r="10" class="c0"/>
<circle cx="812" cy="996" r="10" class="c0"/>
<circle cx="746" cy="804" r="10" class="c0"/>
<circle cx="760" cy="1040" r="10" class="c0"/>
<circle cx="742" cy="1170" r="10" class="c0"/>
<circle cx="782" cy="834" r="10" class="c0"/>
<circle cx="758" cy="860" r="10" class="c0"/>
<circle cx="854" cy="940" r="10" class="c0"/>
<circle cx="758" cy="1156" r="10" class="c0"/>
<circle cx="782" cy="954" r="10" class="c0"/>
<circle cx="856" cy="860" r="10" class="c0"/>
<circle cx="862" cy="602" r="10" class="c0"/>
<circle cx="850" cy="646" r="10" class="c0"/>
<circle cx="888" cy="944" r="10" class="c0"/>
<circle cx="862" cy="734" r="10" class="c0"/>
<circle cx="862" cy="1186" r="10" class="c0"/>
<circle cx="852" cy="1004" r="10" class="c0"/>
<circle cx="910" cy="1094" r="10" class="c0"/>
<circle cx="784" cy="1080" r="10" class="c0"/>
<circle cx="796" cy="588" r="10" class="c0"/>
<circle cx="762" cy="994" r="10" class="c0"/>
<circle cx="854" cy="1238" r="10" class="c0"/>
<circle cx="800" cy="928" r="10" class="c0"/>
<circle cx="824" cy="1086" r="10" class="c0"/>
<circle cx="728" cy="1126" r="10" class="c0"/>
<circle cx="866" cy="828" r="10" class="c0"/>
<circle cx="790" cy="622" r="10" class="c0"/>
<circle cx="808" cy="846" r="10" class="c0"/>
<circle cx="896" cy="982" r="10" class="c0"/>
<circle cx="748" cy="968" r="10" class="c0"/>
<circle cx="822" cy="1246" r="10" class="c0"/>
<circle cx="852" cy="1204" r="10" class="c0"/>
<circle cx="814" cy="508" r="10" class="c0"/>
<circle cx="790" cy="1032" r="10" class="c0"/>
<circle cx="710" cy="1062" r="10" class="c0"/>
<circle cx="864" cy="1070" r="10" class="c0"/>
<circle cx="882" cy="888" r="10" class="c0"/>
<circle cx="758" cy="606" r="10" class="c0"/>
<circle cx="750" cy="1102" r="10" class="c0"/>
<circle cx="894" cy="1010" r="10" class="c0"/>
<circle cx="858" cy="706" r="10" class="c0"/>
<circle cx="846" cy="750" r="10" class="c0"/>
<circle cx="770" cy="1016" r="10" class="c0"/>
<circle cx="756" cy="648" r="10" class="c0"/>
<circle cx="736" cy="1148" r="10" class="c0"/>
<circle cx="872" cy="1146" r="10" class="c0"/>
<circle cx="798" cy="488" r="10" class="c0"/>
<circle cx="824" cy="1026" r="10" class="c0"/>
<circle cx="774" cy="782" r="10" class="c0"/>
<circle cx="774" cy="1054" r="10" class="c0"/>
<circle cx="752" cy="830" r="10" class="c0"/>
<circle cx="750" cy="926" r="10" class="c0"/>
<circle cx="696" cy="1090" r="10" class="c0"/>
<circle cx="792" cy="770" r="10" class="c0"/>
<circle cx="724" cy="862" r="10" class="c0"/>
<circle cx="906" cy="1032" r="10" class="c0"/>
<circle cx="830" cy="836" r="8" class="c0"/>
<circle cx="824" cy="696" r="8" class="c0"/>
<circle cx="764" cy="896" r="8" class="c0"/>
<circle cx="722" cy="958" r="8" class="c0"/>
<circle cx="772" cy="634" r="8" class="c0"/>
<circle cx="798" cy="692" r="8" class="c0"/>
<circle cx="790" cy="558" r="8" class="c0"/>
<circle cx="914" cy="1172" r="8" class="c0"/>
<circle cx="816" cy="816" r="8" class="c0"/>
<circle cx="880" cy="706" r="8" class="c0"/>
<circle cx="896" cy="908" r="8" class="c0"/>
<circle cx="772" cy="1272" r="8" class="c0"/>
<circle cx="804" cy="1254" r="8" class="c0"/>
<circle cx="804" cy="742" r="8" class="c0"/>
<circle cx="818" cy="728" r="8" class="c0"/>
<circle cx="888" cy="1270" r="8" class="c0"/>
<circle cx="870" cy="1124" r="8" class="c0"/>
<circle cx="806" cy="642" r="8" class="c0"/>
<circle cx="730" cy="1030" r="8" class="c0"/>
<circle cx="778" cy="420" r="8" class="c0"/>
<circle cx="848" cy="1106" r="8" class="c0"/>
<circle cx="744" cy="1264" r="8" class="c0"/>
<circle cx="766" cy="730" r="8" class="c0"/>
<circle cx="842" cy="446" r="8" class="c0"/>
<circle cx="878" cy="850" r="8" class="c0"/>
<circle cx="840" cy="1134" r="8" class="c0"/>
<circle cx="766" cy="1290" r="8" class="c0"/>
<circle cx="912" cy="1144" r="8" class="c0"/>
<circle cx="788" cy="652" r="8" class="c0"/>
<circle cx="838" cy="414" r="8" class="c0"/>
<circle cx="726" cy="1272" r="8" class="c0"/>
<circle cx="888" cy="1136" r="8" class="c0"/>
<circle cx="790" cy="440" r="8" class="c0"/>
<circle cx="850" cy="904" r="8" class="c0"/>
<circle cx="820" cy="584" r="8" class="c0"/>
<circle cx="718" cy="908" r="8" class="c0"/>
<circle cx="896" cy="1168" r="8" class="c0"/>
<circle cx="830" cy="1004" r="8" class="c0"/>
<circle cx="874" cy="644" r="8" class="c0"/>
<circle cx="758" cy="764" r="8" class="c0"/>
<circle cx="846" cy="792" r="8" class="c0"/>
<circle cx="760" cy="944" r="8" class="c0"/>
<circle cx="700" cy="1046" r="8" class="c0"/>
<circle cx="804" cy="1018" r="8" class="c0"/>
<circle cx="908" cy="1118" r="8" class="c0"/>
<circle cx="846" cy="470" r="8" class="c0"/>
<circle cx="850" cy="428" r="8" class="c0"/>
<circle cx="804" cy="1084" r="8" class="c0"/>
<circle cx="740" cy="896" r="8" class="c0"/>
<circle cx="882" cy="684" r="8" class="c0"/>
<circle cx="770" cy="752" r="8" class="c0"/>
<circle cx="746" cy="1052" r="8" class="c0"/>
<circle cx="842" cy="550" r="8" class="c0"/>
<circle cx="844" cy="814" r="8" class="c0"/>
<circle cx="710" cy="938" r="8" class="c0"/>
<circle cx="800" cy="1194" r="8" class="c0"/>
<circle cx="866" cy="912" r="8" class="c0"/>
<circle cx="782" cy="902" r="8" class="c0"/>
<circle cx="708" cy="1132" r="8" class="c0"/>
<circle cx="752" cy="1122" r="8" class="c0"/>
<circle cx="804" cy="534" r="8" class="c0"/>
<circle cx="872" cy="756" r="8" class="c0"/>
<circle cx="840" cy="512" r="8" class="c0"/>
<circle cx="856" cy="1036" r="8" class="c0"/>
<circle cx="776" cy="686" r="8" class="c0"/>
<circle cx="848" cy="1086" r="8" class="c0"/>
<circle cx="814" cy="970" r="8" class="c0"/>
<circle cx="804" cy="960" r="8" class="c0"/>
<circle cx="812" cy="1204" r="8" class="c0"/>
<circle cx="778" cy="662" r="8" class="c0"/>
<circle cx="882" cy="510" r="8" class="c0"/>
<circle cx="702" cy="1018" r="8" class="c0"/>
<circle cx="836" cy="706" r="8" class="c0"/>
<circle cx="828" cy="762" r="8" class="c0"/>
<circle cx="788" cy="812" r="8" class="c0"/>
<circle cx="740" cy="1084" r="8" class="c0"/>
<circle cx="822" cy="1268" r="8" class="c0"/>
<circle cx="836" cy="530" r="8" class="c0"/>
<circle cx="798" cy="892" r="8" class="c0"/>
<circle cx="792" cy="1242" r="8" class="c0"/>
<circle cx="808" cy="1040" r="8" class="c0"/>
<circle cx="802" cy="1062" r="8" class="c0"/>
<circle cx="718" cy="1090" r="8" class="c0"/>
<circle cx="704" cy="996" r="8" class="c0"/>
<circle cx="730" cy="920" r="8" class="c0"/>
<circle cx="840" cy="914" r="8" class="c0"/>
<circle cx="812" cy="1228" r="8" class="c0"/>
<circle cx="820" cy="878" r="8" class="c0"/>
<circle cx="824" cy="1064" r="8" class="c0"/>
<circle cx="752" cy="740" r="8" class="c0"/>
<circle cx="806" cy="1154" r="8" class="c0"/>
<circle cx="852" cy="666" r="8" class="c0"/>
<circle cx="786" cy="738" r="8" class="c0"/>
<circle cx="906" cy="1058" r="8" class="c0"/>
<circle cx="704" cy="970" r="8" class="c0"/>
<circle cx="716" cy="880" r="8" class="c0"/>
<circle cx="852" cy="840" r="8" class="c0"/>
<circle cx="880" cy="922" r="8" class="c0"/>
<circle cx="776" cy="582" r="8" class="c0"/>
<circle cx="882" cy="998" r="8" class="c0"/>
<circle cx="748" cy="1020" r="8" class="c0"/>
<circle cx="792" cy="792" r="8" class="c0"/>
<circle cx="810" cy="1184" r="8" class="c0"/>
<circle cx="834" cy="610" r="8" class="c0"/>
<circle cx="784" cy="1112" r="8" class="c0"/>
<circle cx="776" cy="926" r="8" class="c0"/>
<circle cx="828" cy="1218" r="8" class="c0"/>
<circle cx="830" cy="1146" r="8" class="c0"/>
<circle cx="852" cy="622" r="8" class="c0"/>
<circle cx="864" cy="1166" r="8" class="c0"/>
<circle cx="826" cy="1124" r="8" class="c0"/>
<circle cx="812" cy="608" r="8" class="c0"/>
<circle cx="888" cy="866" r="8" class="c0"/>
<circle cx="834" cy="1042" r="8" class="c0"/>
<circle cx="852" cy="522" r="8" class="c0"/>
<circle cx="876" cy="1286" r="8" class="c0"/>
<circle cx="758" cy="436" r="8" class="c0"/>
<circle cx="790" cy="1164" r="8" class="c0"/>
<circle cx="760" cy="466" r="8" class="c0"/>
<circle cx="792" cy="1006" r="8" class="c0"/>
<circle cx="864" cy="1016" r="8" class="c0"/>
<circle cx="816" cy="902" r="8" class="c0"/>
<circle cx="734" cy="878" r="8" class="c0"/>
<circle cx="850" cy="984" r="8" class="c0"/>
<circle cx="764" cy="816" r="8" class="c0"/>
<circle cx="806" cy="806" r="8" class="c0"/>
<circle cx="840" cy="870" r="8" class="c0"/>
<circle cx="856" cy="768" r="8" class="c0"/>
<circle cx="778" cy="610" r="8" class="c0"/>
<circle cx="794" cy="524" r="8" class="c0"/>
<circle cx="702" cy="1262" r="8" class="c0"/>
<circle cx="864" cy="686" r="8" class="c0"/>
<circle cx="862" cy="880" r="8" class="c0"/>
<circle cx="824" cy="858" r="8" class="c0"/>
<circle cx="868" cy="1098" r="8" class="c0"/>
<circle cx="728" cy="1100" r="8" class="c0"/>
<circle cx="886" cy="1180" r="8" class="c0"/>
<circle cx="772" cy="478" r="8" class="c0"/>
<circle cx="770" cy="976" r="8" class="c0"/>
<circle cx="866" cy="952" r="8" class="c0"/>
<circle cx="826" cy="438" r="8" class="c0"/>
<circle cx="720" cy="1168" r="8" class="c0"/>
<circle cx="756" cy="1062" r="8" class="c0"/>
<circle cx="886" cy="1028" r="8" class="c0"/>
<circle cx="836" cy="1290" r="8" class="c0"/>
<circle cx="732" cy="1068" r="8" class="c0"/>
<circle cx="840" cy="680" r="8" class="c0"/>
<circle cx="826" cy="466" r="8" class="c0"/>
<circle cx="782" cy="1256" r="6" class="c0"/>
<circle cx="856" cy="486" r="6" class="c0"/>
<circle cx="712" cy="1028" r="6" class="c0"/>
<circle cx="744" cy="756" r="6" class="c0"/>
<circle cx="862" cy="634" r="6" class="c0"/>
<circle cx="868" cy="1262" r="6" class="c0"/>
<circle cx="732" cy="840" r="6" class="c0"/>
<circle cx="812" cy="626" r="6" class="c0"/>
<circle cx="904" cy="966" r="6" class="c0"/>
<circle cx="880" cy="1110" r="6" class="c0"/>
<circle cx="834" cy="1312" r="6" class="c0"/>
<circle cx="700" cy="1110" r="6" class="c0"/>
<circle cx="718" cy="984" r="6" class="c0"/>
<circle cx="802" cy="1134" r="6" class="c0"/>
<circle cx="740" cy="636" r="6" class="c0"/>
<circle cx="816" cy="406" r="6" class="c0"/>
<circle cx="814" cy="754" r="6" class="c0"/>
<circle cx="718" cy="1010" r="6" class="c0"/>
<circle cx="788" cy="502" r="6" class="c0"/>
<circle cx="826" cy="1106" r="6" class="c0"/>
<circle cx="768" cy="404" r="6" class="c0"/>
<circle cx="808" cy="866" r="6" class="c0"/>
<circle cx="812" cy="768" r="6" class="c0"/>
<circle cx="902" cy="1184" r="6" class="c0"/>
<circle cx="726" cy="824" r="6" class="c0"/>
<circle cx="844" cy="598" r="6" class="c0"/>
<circle cx="794" cy="676" r="6" class="c0"/>
<circle cx="762" cy="1246" r="6" class="c0"/>
<circle cx="692" cy="1138" r="6" class="c0"/>
<circle cx="878" cy="668" r="6" class="c0"/>
<circle cx="864" cy="1300" r="6" class="c0"/>
<circle cx="904" cy="1278" r="6" class="c0"/>
<circle cx="888" cy="966" r="6" class="c0"/>
<circle cx="802" cy="660" r="6" class="c0"/>
<circle cx="868" cy="502" r="6" class="c0"/>
<circle cx="820" cy="1288" r="6" class="c0"/>
<circle cx="850" cy="1146" r="6" class="c0"/>
<circle cx="852" cy="962" r="6" class="c0"/>
<circle cx="872" cy="774" r="6" class="c0"/>
<circle cx="832" cy="740" r="6" class="c0"/>
<circle cx="758" cy="1082" r="6" class="c0"/>
<circle cx="882" cy="736" r="6" class="c0"/>
<circle cx="812" cy="1278" r="6" class="c0"/>
<circle cx="802" cy="828" r="6" class="c0"/>
<circle cx="862" cy="572" r="6" class="c0"/>
<circle cx="898" cy="1302" r="6" class="c0"/>
<circle cx="746" cy="780" r="6" class="c0"/>
<circle cx="854" cy="500" r="6" class="c0"/>
<circle cx="844" cy="728" r="6" class="c0"/>
<circle cx="812" cy="944" r="6" class="c0"/>
<circle cx="792" cy="1266" r="6" class="c0"/>
<circle cx="716" cy="1112" r="6" class="c0"/>
<circle cx="748" cy="1290" r="6" class="c0"/>
<circle cx="760" cy="420" r="6" class="c0"/>
<circle cx="888" cy="464" r="6" class="c0"/>
<circle cx="724" cy="1254" r="6" class="c0"/>
<circle cx="840" cy="772" r="6" class="c0"/>
<circle cx="760" cy="792" r="6" class="c0"/>
<circle cx="922" cy="1110" r="6" class="c0"/>
<circle cx="846" cy="1256" r="6" class="c0"/>
<circle cx="902" cy="1260" r="6" class="c0"/>
<circle cx="878" cy="450" r="6" class="c0"/>
<circle cx="708" cy="918" r="6" class="c0"/>
<circle cx="880" cy="1162" r="6" class="c0"/>
<circle cx="908" cy="1076" r="6" class="c0"/>
<circle cx="754" cy="884" r="6" class="c0"/>
<circle cx="782" cy="1194" r="6" class="c0"/>
<circle cx="728" cy="976" r="6" class="c0"/>
<circle cx="824" cy="980" r="6" class="c0"/>
<circle cx="878" cy="722" r="6" class="c0"/>
<circle cx="838" cy="1074" r="6" class="c0"/>
<circle cx="776" cy="494" r="6" class="c0"/>
<circle cx="864" cy="656" r="6" class="c0"/>
<circle cx="718" cy="1046" r="6" class="c0"/>
<circle cx="760" cy="1262" r="6" class="c0"/>
<circle cx="768" cy="1124" r="6" class="c0"/>
<circle cx="856" cy="1132" r="6" class="c0"/>
<circle cx="768" cy="712" r="6" class="c0"/>
<circle cx="788" cy="542" r="6" class="c0"/>
<circle cx="740" cy="1248" r="6" class="c0"/>
<circle cx="766" cy="912" r="6" class="c0"/>
<circle cx="892" cy="496" r="6" class="c0"/>
<circle cx="894" cy="694" r="6" class="c0"/>
<circle cx="756" cy="628" r="6" class="c0"/>
<circle cx="890" cy="1100" r="6" class="c0"/>
<circle cx="918" cy="1128" r="6" class="c0"/>
<circle cx="884" cy="824" r="6" class="c0"/>
<circle cx="814" cy="686" r="6" class="c0"/>
<circle cx="740" cy="848" r="6" class="c0"/>
<circle cx="774" cy="802" r="6" class="c0"/>
<circle cx="860" cy="784" r="6" class="c0"/>
<circle cx="814" cy="480" r="6" class="c0"/>
<circle cx="756" cy="1138" r="6" class="c0"/>
<circle cx="856" cy="458" r="6" class="c0"/>
<circle cx="740" cy="1282" r="6" class="c0"/>
<circle cx="764" cy="960" r="6" class="c0"/>
<circle cx="770" cy="1098" r="6" class="c0"/>
<circle cx="836" cy="1232" r="6" class="c0"/>
<circle cx="718" cy="1142" r="6" class="c0"/>
<circle cx="782" cy="994" r="6" class="c0"/>
<circle cx="684" cy="1260" r="6" class="c0"/>
<circle cx="794" cy="1100" r="6" class="c0"/>
<circle cx="876" cy="1306" r="6" class="c0"/>
<circle cx="870" cy="932" r="6" class="c0"/>
<circle cx="776" cy="704" r="6" class="c0"/>
<circle cx="816" cy="1138" r="6" class="c0"/>
<circle cx="736" cy="788" r="6" class="c0"/>
<circle cx="796" cy="406" r="6" class="c0"/>
<circle cx="834" cy="804" r="6" class="c0"/>
<circle cx="906" cy="998" r="6" class="c0"/>
<circle cx="812" cy="706" r="6" class="c0"/>
<circle cx="906" cy="932" r="6" class="c0"/>
<circle cx="868" cy="620" r="6" class="c0"/>
<circle cx="790" cy="850" r="6" class="c0"/>
<circle cx="834" cy="988" r="6" class="c0"/>
<circle cx="878" cy="628" r="6" class="c0"/>
<circle cx="776" cy="1300" r="6" class="c0"/>
<circle cx="772" cy="850" r="6" class="c0"/>
<circle cx="692" cy="1070" r="6" class="c0"/>
<circle cx="846" cy="1024" r="6" class="c0"/>
<circle cx="868" cy="518" r="6" class="c0"/>
<circle cx="756" cy="1278" r="6" class="c0"/>
</svg>
