<?xml version="1.0" encoding="utf-8"?>
<svg xmlns="http://www.w3.org/2000/svg"
     xmlns:xlink="http://www.w3.org/1999/xlink" width="1920" height="1440" >

            <defs>
            <style type="text/css"><![CDATA[
circle {stroke: none;}
.c0 {fill: #000000;}
]]></style>
            </defs>
<rect x="0" y="0" width="1920" height="1440" fill="white"/>
<circle cx="790" cy="510" r="14" class="c0"/>
<circle cx="824" cy="1074" r="12" class="c0"/>
<circle cx="838" cy="646" r="12" class="c0"/>
<circle cx="722" cy="874" r="12" class="c0"/>
<circle cx="746" cy="690" r="12" class="c0"/>
<circle cx="782" cy="558" r="12" class="c0"/>
<circle cx="828" cy="978" r="12" class="c0"/>
<circle cx="864" cy="1048" r="12" class="c0"/>
<circle cx="816" cy="1160" r="12" class="c0"/>
<circle cx="696" cy="976" r="12" class="c0"/>
<circle cx="808" cy="448" r="12" class="c0"/>
<circle cx="794" cy="646" r="12" class="c0"/>
<circle cx="794" cy="1040" r="12" class="c0"/>
<circle cx="826" cy="866" r="12" class="c0"/>
<circle cx="756" cy="770" r="12" class="c0"/>
<circle cx="694" cy="1206" r="12" class="c0"/>
<circle cx="768" cy="814" r="12" class="c0"/>
<circle cx="742" cy="752" r="12" class="c0"/>
<circle cx="706" cy="848" r="12" class="c0"/>
<circle cx="742" cy="1018" r="12" class="c0"/>
<circle cx="846" cy="480" r="12" class="c0"/>
<circle cx="668" cy="1118" r="12" class="c0"/>
<circle cx="734" cy="902" r="12" class="c0"/>
<circle cx="870" cy="994" r="12" class="c0"/>
<circle cx="710" cy="1192" r="12" class="c0"/>
<circle cx="784" cy="780" r="12" class="c0"/>
<circle cx="782" cy="892" r="10" class="c0"/>
<circle cx="876" cy="1172" r="10" class="c0"/>
<circle cx="802" cy="620" r="10" class="c0"/>
<circle cx="726" cy="1146" r="10" class="c0"/>
<circle cx="686" cy="1008" r="10" class="c0"/>
<circle cx="774" cy="738" r="10" class="c0"/>
<circle cx="768" cy="438" r="10" class="c0"/>
<circle cx="784" cy="1016" r="10" class="c0"/>
<circle cx="840" cy="1122" r="10" class="c0"/>
<circle cx="822" cy="814" r="10" class="c0"/>
<circle cx="784" cy="1170" r="10" class="c0"/>
<circle cx="800" cy="414" r="10" class="c0"/>
<circle cx="758" cy="1038" r="10" class="c0"/>
<circle cx="796" cy="592" r="10" class="c0"/>
<circle cx="822" cy="632" r="10" class="c0"/>
<circle cx="846" cy="936" r="10" class="c0"/>
<circle cx="740" cy="1072" r="10" class="c0"/>
<circle cx="824" cy="1294" r="10" class="c0"/>
<circle cx="858" cy="1080" r="10" class="c0"/>
<circle cx="808" cy="524" r="10" class="c0"/>
<circle cx="798" cy="980" r="10" class="c0"/>
<circle cx="838" cy="794" r="10" class="c0"/>
<circle cx="736" cy="1212" r="10" class="c0"/>
<circle cx="746" cy="464" r="10" class="c0"/>
<circle cx="750" cy="858" r="10" class="c0"/>
<circle cx="846" cy="688" r="10" class="c0"/>
<circle cx="808" cy="854" r="10" class="c0"/>
<circle cx="774" cy="1110" r="10" class="c0"/>
<circle cx="778" cy="1296" r="10" class="c0"/>
<circle cx="712" cy="628" r="10" class="c0"/>
<circle cx="708" cy="1042" r="10" class="c0"/>
<circle cx="702" cy="918" r="10" class="c0"/>
<circle cx="852" cy="764" r="10" class="c0"/>
<circle cx="796" cy="912" r="10" class="c0"/>
<circle cx="834" cy="1354" r="10" class="c0"/>
<circle cx="810" cy="734" r="10" class="c0"/>
<circle cx="784" cy="934" r="10" class="c0"/>
<circle cx="796" cy="1082" r="10" class="c0"/>
<circle cx="692" cy="882" r="10" class="c0"/>
<circle cx="858" cy="730" r="10" class="c0"/>
<circle cx="690" cy="1082" r="10" class="c0"/>
<circle cx="860" cy="708" r="10" class="c0"/>
<circle cx="662" cy="1168" r="10" class="c0"/>
<circle cx="752" cy="1172" r="10" class="c0"/>
<circle cx="714" cy="1010" r="10" class="c0"/>
<circle cx="726" cy="616" r="10" class="c0"/>
<circle cx="736" cy="1042" r="10" class="c0"/>
<circle cx="782" cy="1060" r="10" class="c0"/>
<circle cx="716" cy="1070" r="10" class="c0"/>
<circle cx="868" cy="914" r="10" class="c0"/>
<circle cx="836" cy="1098" r="10" class="c0"/>
<circle cx="806" cy="686" r="10" class="c0"/>
<circle cx="656" cy="1198" r="10" class="c0"/>
<circle cx="806" cy="1104" r="10" class="c0"/>
<circle cx="842" cy="510" r="10" class="c0"/>
<circle cx="744" cy="1104" r="10" class="c0"/>
<circle cx="802" cy="1220" r="10" class="c0"/>
<circle cx="766" cy="598" r="10" class="c0"/>
<circle cx="778" cy="466" r="10" class="c0"/>
<circle cx="726" cy="786" r="10" class="c0"/>
<circle cx="834" cy="1004" r="10" class="c0"/>
<circle cx="768" cy="632" r="10" class="c0"/>
<circle cx="698" cy="1162" r="10" class="c0"/>
<circle cx="832" cy="580" r="10" class="c0"/>
<circle cx="790" cy="1336" r="10" class="c0"/>
<circle cx="834" cy="446" r="10" class="c0"/>
<circle cx="744" cy="952" r="10" class="c0"/>
<circle cx="806" cy="1254" r="10" class="c0"/>
<circle cx="784" cy="1146" r="10" class="c0"/>
<circle cx="850" cy="872" r="10" class="c0"/>
<circle cx="764" cy="660" r="10" class="c0"/>
<circle cx="684" cy="952" r="10" class="c0"/>
<circle cx="762" cy="842" r="10" class="c0"/>
<circle cx="822" cy="488" r="10" class="c0"/>
<circle cx="708" cy="1320" r="10" class="c0"/>
<circle cx="814" cy="932" r="10" class="c0"/>
<circle cx="760" cy="894" r="10" class="c0"/>
<circle cx="760" cy="966" r="10" class="c0"/>
<circle cx="820" cy="908" r="10" class="c0"/>
<circle cx="738" cy="836" r="10" class="c0"/>
<circle cx="802" cy="952" r="10" class="c0"/>
<circle cx="744" cy="412" r="10" class="c0"/>
<circle cx="666" cy="1320" r="10" class="c0"/>
<circle cx="822" cy="1194" r="10" class="c0"/>
<circle cx="876" cy="1026" r="10" class="c0"/>
<circle cx="786" cy="840" r="10" class="c0"/>
<circle cx="788" cy="1266" r="10" class="c0"/>
<circle cx="886" cy="1104" r="10" class="c0"/>
<circle cx="688" cy="1044" r="8" class="c0"/>
<circle cx="872" cy="1138" r="8" class="c0"/>
<circle cx="812" cy="554" r="8" class="c0"/>
<circle cx="764" cy="872" r="8" class="c0"/>
<circle cx="710" cy="820" r="8" class="c0"/>
<circle cx="756" cy="564" r="8" class="c0"/>
<circle cx="880" cy="1200" r="8" class="c0"/>
<circle cx="820" cy="432" r="8" class="c0"/>
<circle cx="790" cy="676" r="8" class="c0"/>
<circle cx="836" cy="1048" r="8" class="c0"/>
<circle cx="858" cy="1202" r="8" class="c0"/>
<circle cx="730" cy="636" r="8" class="c0"/>
<circle cx="686" cy="1146" r="8" class="c0"/>
<circle cx="828" cy="752" r="8" class="c0"/>
<circle cx="840" cy="620" r="8" class="c0"/>
<circle cx="834" cy="1026" r="8" class="c0"/>
<circle cx="762" cy="1198" r="8" class="c0"/>
<circle cx="812" cy="884" r="8" class="c0"/>
<circle cx="824" cy="666" r="8" class="c0"/>
<circle cx="734" cy="654" r="8" class="c0"/>
<circle cx="804" cy="1318" r="8" class="c0"/>
<circle cx="750" cy="614" r="8" class="c0"/>
<circle cx="800" cy="768" r="8" class="c0"/>
<circle cx="688" cy="1104" r="8" class="c0"/>
<circle cx="714" cy="772" r="8" class="c0"/>
<circle cx="798" cy="544" r="8" class="c0"/>
<circle cx="714" cy="1090" r="8" class="c0"/>
<circle cx="796" cy="818" r="8" class="c0"/>
<circle cx="760" cy="940" r="8" class="c0"/>
<circle cx="766" cy="1084" r="8" class="c0"/>
<circle cx="776" cy="1218" r="8" class="c0"/>
<circle cx="742" cy="1316" r="8" class="c0"/>
<circle cx="860" cy="1160" r="8" class="c0"/>
<circle cx="778" cy="410" r="8" class="c0"/>
<circle cx="774" cy="984" r="8" class="c0"/>
<circle cx="800" cy="714" r="8" class="c0"/>
<circle cx="730" cy="1182" r="8" class="c0"/>
<circle cx="844" cy="826" r="8" class="c0"/>
<circle cx="752" cy="998" r="8" class="c0"/>
<circle cx="868" cy="958" r="8" class="c0"/>
<circle cx="746" cy="880" r="8" class="c0"/>
<circle cx="898" cy="1204" r="8" class="c0"/>
<circle cx="832" cy="954" r="8" class="c0"/>
<circle cx="824" cy="1228" r="8" class="c0"/>
<circle cx="664" cy="1024" r="8" class="c0"/>
<circle cx="678" cy="1060" r="8" class="c0"/>
<circle cx="764" cy="500" r="8" class="c0"/>
<circle cx="788" cy="802" r="8" class="c0"/>
<circle cx="714" cy="958" r="8" class="c0"/>
<circle cx="866" cy="934" r="8" class="c0"/>
<circle cx="658" cy="1100" r="8" class="c0"/>
<circle cx="862" cy="1120" r="8" class="c0"/>
<circle cx="780" cy="718" r="8" class="c0"/>
<circle cx="844" cy="1322" r="8" class="c0"/>
<circle cx="852" cy="982" r="8" class="c0"/>
<circle cx="750" cy="1350" r="8" class="c0"/>
<circle cx="796" cy="1134" r="8" class="c0"/>
<circle cx="738" cy="814" r="8" class="c0"/>
<circle cx="724" cy="982" r="8" class="c0"/>
<circle cx="762" cy="544" r="8" class="c0"/>
<circle cx="808" cy="1018" r="8" class="c0"/>
<circle cx="832" cy="844" r="8" class="c0"/>
<circle cx="826" cy="724" r="8" class="c0"/>
<circle cx="830" cy="558" r="8" class="c0"/>
<circle cx="828" cy="778" r="8" class="c0"/>
<circle cx="850" cy="1016" r="8" class="c0"/>
<circle cx="754" cy="582" r="8" class="c0"/>
<circle cx="716" cy="1126" r="8" class="c0"/>
<circle cx="688" cy="1126" r="8" class="c0"/>
<circle cx="752" cy="1244" r="8" class="c0"/>
<circle cx="820" cy="1128" r="8" class="c0"/>
<circle cx="878" cy="944" r="8" class="c0"/>
<circle cx="854" cy="452" r="8" class="c0"/>
<circle cx="730" cy="730" r="8" class="c0"/>
<circle cx="894" cy="1154" r="8" class="c0"/>
<circle cx="848" cy="1230" r="8" class="c0"/>
<circle cx="776" cy="758" r="8" class="c0"/>
<circle cx="836" cy="1244" r="8" class="c0"/>
<circle cx="820" cy="512" r="8" class="c0"/>
<circle cx="722" cy="930" r="8" class="c0"/>
<circle cx="676" cy="988" r="8" class="c0"/>
<circle cx="774" cy="1240" r="8" class="c0"/>
<circle cx="760" cy="1154" r="8" class="c0"/>
<circle cx="856" cy="1362" r="8" class="c0"/>
<circle cx="668" cy="1076" r="8" class="c0"/>
<circle cx="840" cy="1162" r="8" class="c0"/>
<circle cx="830" cy="892" r="8" class="c0"/>
<circle cx="804" cy="1296" r="8" class="c0"/>
<circle cx="866" cy="472" r="8" class="c0"/>
<circle cx="768" cy="1324" r="8" class="c0"/>
<circle cx="744" cy="666" r="8" class="c0"/>
<circle cx="726" cy="428" r="8" class="c0"/>
<circle cx="664" cy="1004" r="8" class="c0"/>
<circle cx="804" cy="394" r="8" class="c0"/>
<circle cx="846" cy="1184" r="8" class="c0"/>
<circle cx="796" cy="484" r="8" class="c0"/>
<circle cx="780" cy="862" r="8" class="c0"/>
<circle cx="870" cy="1322" r="8" class="c0"/>
<circle cx="878" cy="1222" r="8" class="c0"/>
<circle cx="850" cy="906" r="8" class="c0"/>
<circle cx="788" cy="432" r="8" class="c0"/>
<circle cx="724" cy="1340" r="8" class="c0"/>
<circle cx="814" cy="656" r="8" class="c0"/>
<circle cx="716" cy="1234" r="8" class="c0"/>
<circle cx="826" cy="600" r="8" class="c0"/>
<circle cx="768" cy="1354" r="8" class="c0"/>
<circle cx="790" cy="1198" r="8" class="c0"/>
<circle cx="774" cy="1186" r="8" class="c0"/>
<circle cx="666" cy="1044" r="8" class="c0"/>
<circle cx="756" cy="1132" r="8" class="c0"/>
<circle cx="808" cy="580" r="8" class="c0"/>
<circle cx="808" cy="798" r="8" class="c0"/>
<circle cx="822" cy="464" r="8" class="c0"/>
<circle cx="680" cy="928" r="8" class="c0"/>
<circle cx="680" cy="902" r="8" class="c0"/>
<circle cx="868" cy="690" r="8" class="c0"/>
<circle cx="662" cy="1142" r="8" class="c0"/>
<circle cx="776" cy="686" r="8" class="c0"/>
<circle cx="776" cy="614" r="8" class="c0"/>
<circle cx="756" cy="722" r="8" class="c0"/>
<circle cx="748" cy="442" r="8" class="c0"/>
<circle cx="674" cy="1182" r="8" class="c0"/>
<circle cx="892" cy="1128" r="8" class="c0"/>
<circle cx="824" cy="1038" r="8" class="c0"/>
<circle cx="716" cy="1170" r="8" class="c0"/>
<circle cx="762" cy="792" r="8" class="c0"/>
<circle cx="738" cy="598" r="8" class="c0"/>
<circle cx="898" cy="1182" r="8" class="c0"/>
<circle cx="816" cy="1328" r="8" class="c0"/>
<circle cx="722" cy="1030" r="8" class="c0"/>
<circle cx="840" cy="424" r="8" class="c0"/>
<circle cx="698" cy="1024" r="8" class="c0"/>
<circle cx="886" cy="1076" r="8" class="c0"/>
<circle cx="758" cy="478" r="8" class="c0"/>
<circle cx="862" cy="1100" r="8" class="c0"/>
<circle cx="804" cy="1178" r="8" class="c0"/>
<circle cx="834" cy="924" r="8" class="c0"/>
<circle cx="740" cy="1124" r="8" class="c0"/>
<circle cx="888" cy="1050" r="8" class="c0"/>
<circle cx="868" cy="1212" r="8" class="c0"/>
<circle cx="712" cy="892" r="8" class="c0"/>
<circle cx="756" cy="1062" r="8" class="c0"/>
<circle cx="834" cy="1216" r="8" class="c0"/>
<circle cx="748" cy="928" r="8" class="c0"/>
<circle cx="766" cy="398" r="8" class="c0"/>
<circle cx="886" cy="1008" r="8" class="c0"/>
<circle cx="798" cy="746" r="8" class="c0"/>
<circle cx="732" cy="940" r="8" class="c0"/>
<circle cx="746" cy="1290" r="8" class="c0"/>
<circle cx="786" cy="696" r="8" class="c0"/>
<circle cx="836" cy="710" r="8" class="c0"/>
<circle cx="704" cy="940" r="8" class="c0"/>
<circle cx="768" cy="912" r="8" class="c0"/>
<circle cx="824" cy="402" r="8" class="c0"/>
<circle cx="700" cy="1338" r="8" class="c0"/>
<circle cx="742" cy="974" r="8" class="c0"/>
<circle cx="878" cy="968" r="8" class="c0"/>
<circle cx="808" cy="1058" r="8" class="c0"/>
<circle cx="782" cy="954" r="8" class="c0"/>
<circle cx="844" cy="966" r="8" class="c0"/>
<circle cx="722" cy="1306" r="8" class="c0"/>
<circle cx="726" cy="448" r="8" class="c0"/>
<circle cx="648" cy="1130" r="8" class="c0"/>
<circle cx="714" cy="1216" r="8" class="c0"/>
<circle cx="760" cy="1306" r="8" class="c0"/>
<circle cx="856" cy="666" r="8" class="c0"/>
<circle cx="688" cy="1318" r="8" class="c0"/>
<circle cx="856" cy="838" r="8" class="c0"/>
<circle cx="714" cy="652" r="8" class="c0"/>
<circle cx="800" cy="1278" r="8" class="c0"/>
<circle cx="646" cy="1178" r="6" class="c0"/>
<circle cx="722" cy="1108" r="6" class="c0"/>
<circle cx="856" cy="1140" r="6" class="c0"/>
<circle cx="698" cy="1056" r="6" class="c0"/>
<circle cx="816" cy="1268" r="6" class="c0"/>
<circle cx="792" cy="1306" r="6" class="c0"/>
<circle cx="696" cy="1180" r="6" class="c0"/>
<circle cx="648" cy="1154" r="6" class="c0"/>
<circle cx="706" cy="1300" r="6" class="c0"/>
<circle cx="816" cy="1000" r="6" class="c0"/>
<circle cx="826" cy="1144" r="6" class="c0"/>
<circle cx="826" cy="682" r="6" class="c0"/>
<circle cx="740" cy="712" r="6" class="c0"/>
<circle cx="800" cy="666" r="6" class="c0"/>
<circle cx="742" cy="1234" r="6" class="c0"/>
<circle cx="862" cy="886" r="6" class="c0"/>
<circle cx="720" cy="748" r="6" class="c0"/>
<circle cx="758" cy="1222" r="6" class="c0"/>
<circle cx="744" cy="644" r="6" class="c0"/>
<circle cx="760" cy="522" r="6" class="c0"/>
<circle cx="746" cy="490" r="6" class="c0"/>
<circle cx="852" cy="1246" r="6" class="c0"/>
<circle cx="740" cy="1336" r="6" class="c0"/>
<circle cx="752" cy="1330" r="6" class="c0"/>
<circle cx="766" cy="1012" r="6" class="c0"/>
<circle cx="760" cy="454" r="6" class="c0"/>
<circle cx="720" cy="804" r="6" class="c0"/>
<circle cx="726" cy="824" r="6" class="c0"/>
<circle cx="676" cy="1214" r="6" class="c0"/>
<circle cx="846" cy="744" r="6" class="c0"/>
<circle cx="858" cy="1340" r="6" class="c0"/>
<circle cx="688" cy="862" r="6" class="c0"/>
<circle cx="774" cy="530" r="6" class="c0"/>
<circle cx="676" cy="970" r="6" class="c0"/>
<circle cx="826" cy="1314" r="6" class="c0"/>
<circle cx="704" cy="1144" r="6" class="c0"/>
<circle cx="728" cy="998" r="6" class="c0"/>
<circle cx="700" cy="996" r="6" class="c0"/>
<circle cx="786" cy="996" r="6" class="c0"/>
<circle cx="672" cy="1154" r="6" class="c0"/>
<circle cx="862" cy="854" r="6" class="c0"/>
<circle cx="874" cy="1358" r="6" class="c0"/>
<circle cx="676" cy="1034" r="6" class="c0"/>
<circle cx="794" cy="872" r="6" class="c0"/>
<circle cx="894" cy="1324" r="6" class="c0"/>
<circle cx="796" cy="1238" r="6" class="c0"/>
<circle cx="870" cy="896" r="6" class="c0"/>
<circle cx="802" cy="1358" r="6" class="c0"/>
<circle cx="864" cy="1186" r="6" class="c0"/>
<circle cx="814" cy="1344" r="6" class="c0"/>
<circle cx="780" cy="1128" r="6" class="c0"/>
<circle cx="852" cy="1304" r="6" class="c0"/>
<circle cx="782" cy="1092" r="6" class="c0"/>
<circle cx="786" cy="1318" r="6" class="c0"/>
<circle cx="850" cy="1034" r="6" class="c0"/>
<circle cx="744" cy="790" r="6" class="c0"/>
<circle cx="732" cy="1092" r="6" class="c0"/>
<circle cx="874" cy="1340" r="6" class="c0"/>
<circle cx="806" cy="496" r="6" class="c0"/>
<circle cx="702" cy="1114" r="6" class="c0"/>
<circle cx="758" cy="704" r="6" class="c0"/>
<circle cx="754" cy="426" r="6" class="c0"/>
<circle cx="780" cy="488" r="6" class="c0"/>
<circle cx="814" cy="964" r="6" class="c0"/>
<circle cx="704" cy="804" r="6" class="c0"/>
<circle cx="854" cy="782" r="6" class="c0"/>
<circle cx="674" cy="1304" r="6" class="c0"/>
<circle cx="812" cy="832" r="6" class="c0"/>
<circle cx="740" cy="1194" r="6" class="c0"/>
<circle cx="692" cy="1228" r="6" class="c0"/>
<circle cx="846" cy="594" r="6" class="c0"/>
<circle cx="876" cy="1062" r="6" class="c0"/>
<circle cx="784" cy="392" r="6" class="c0"/>
<circle cx="848" cy="810" r="6" class="c0"/>
<circle cx="894" cy="1226" r="6" class="c0"/>
<circle cx="786" cy="628" r="6" class="c0"/>
<circle cx="654" cy="1308" r="6" class="c0"/>
<circle cx="836" cy="734" r="6" class="c0"/>
<circle cx="752" cy="802" r="6" class="c0"/>
<circle cx="826" cy="1276" r="6" class="c0"/>
<circle cx="750" cy="912" r="6" class="c0"/>
<circle cx="870" cy="1240" r="6" class="c0"/>
<circle cx="762" cy="414" r="6" class="c0"/>
<circle cx="736" cy="396" r="6" class="c0"/>
<circle cx="816" cy="766" r="6" class="c0"/>
<circle cx="806" cy="1144" r="6" class="c0"/>
<circle cx="802" cy="894" r="6" class="c0"/>
<circle cx="730" cy="852" r="6" class="c0"/>
<circle cx="802" cy="998" r="6" class="c0"/>
<circle cx="858" cy="496" r="6" class="c0"/>
<circle cx="800" cy="466" r="6" class="c0"/>
<circle cx="744" cy="1156" r="6" class="c0"/>
<circle cx="788" cy="450" r="6" class="c0"/>
<circle cx="686" cy="1298" r="6" class="c0"/>
<circle cx="788" cy="1120" r="6" class="c0"/>
<circle cx="740" cy="626" r="6" class="c0"/>
<circle cx="886" cy="1346" r="6" class="c0"/>
<circle cx="738" cy="578" r="6" class="c0"/>
<circle cx="824" cy="1112" r="6" class="c0"/>
<circle cx="810" cy="780" r="6" class="c0"/>
<circle cx="788" cy="1230" r="6" class="c0"/>
<circle cx="830" cy="522" r="6" class="c0"/>
<circle cx="732" cy="1166" r="6" class="c0"/>
<circle cx="654" cy="1058" r="6" class="c0"/>
<circle cx="726" cy="1356" r="6" class="c0"/>
<circle cx="648" cy="1110" r="6" class="c0"/>
<circle cx="728" cy="1058" r="6" class="c0"/>
<circle cx="778" cy="584" r="6" class="c0"/>
<circle cx="696" cy="832" r="6" class="c0"/>
<circle cx="838" cy="1306" r="6" class="c0"/>
<circle cx="790" cy="730" r="6" class="c0"/>
<circle cx="820" cy="568" r="6" class="c0"/>
<circle cx="810" cy="604" r="6" class="c0"/>
<circle cx="852" cy="434" r="6" class="c0"/>
<circle cx="818" cy="788" r="6" class="c0"/>
<circle cx="718" cy="834" r="6" class="c0"/>
<circle cx="826" cy="1176" r="6" class="c0"/>
<circle cx="676" cy="1094" r="6" class="c0"/>
<circle cx="726" cy="762" r="6" class="c0"/>
<circle cx="788" cy="534" r="6" class="c0"/>
<circle cx="832" cy="1332" r="6" class="c0"/>
<circle cx="640" cy="1320" r="6" class="c0"/>
<circle cx="810" cy="476" r="6" class="c0"/>
<circle cx="762" cy="678" r="6" class="c0"/>
<circle cx="856" cy="636" r="6" class="c0"/>
<circle cx="840" cy="1064" r="6" class="c0"/>
<circle cx="696" cy="900" r="6" class="c0"/>
<circle cx="824" cy="1258" r="6" class="c0"/>
<circle cx="784" cy="1356" r="6" class="c0"/>
<circle cx="798" cy="570" r="6" class="c0"/>
<circle cx="840" cy="1142" r="6" class="c0"/>
<circle cx="728" cy="1324" r="6" class="c0"/>
<circle cx="768" cy="574" r="6" class="c0"/>
<circle cx="760" cy="1340" r="6" class="c0"/>
<circle cx="844" cy="854" r="6" class="c0"/>
<circle cx="652" cy="1082" r="6" class="c0"/>
<circle cx="876" cy="1090" r="6" class="c0"/>
<circle cx="762" cy="1286" r="6" class="c0"/>
<circle cx="866" cy="1348" r="6" class="c0"/>
<circle cx="666" cy="978" r="6" class="c0"/>
<circle cx="668" cy="1344" r="6" class="c0"/>
<circle cx="818" cy="1212" r="6" class="c0"/>
<circle cx="754" cy="826" r="6" class="c0"/>
<circle cx="846" cy="890" r="6" class="c0"/>
</svg>
