<?xml version="1.0" encoding="utf-8"?>
<svg xmlns="http://www.w3.org/2000/svg"
     xmlns:xlink="http://www.w3.org/1999/xlink" width="1920" height="1440" >

            <defs>
            <style type="text/css"><![CDATA[
circle {stroke: none;}
.c0 {fill: #000000;}
]]></style>
            </defs>
<rect x="0" y="0" width="1920" height="1440" fill="white"/>
<circle cx="826" cy="1008" r="12" class="c0"/>
<circle cx="804" cy="1166" r="12" class="c0"/>
<circle cx="810" cy="1268" r="12" class="c0"/>
<circle cx="696" cy="1066" r="12" class="c0"/>
<circle cx="724" cy="966" r="12" class="c0"/>
<circle cx="870" cy="1224" r="12" class="c0"/>
<circle cx="740" cy="832" r="12" class="c0"/>
<circle cx="768" cy="990" r="12" class="c0"/>
<circle cx="836" cy="738" r="12" class="c0"/>
<circle cx="862" cy="1178" r="12" class="c0"/>
<circle cx="692" cy="1036" r="12" class="c0"/>
<circle cx="754" cy="794" r="12" class="c0"/>
<circle cx="770" cy="516" r="12" class="c0"/>
<circle cx="720" cy="746" r="12" class="c0"/>
<circle cx="782" cy="1238" r="12" class="c0"/>
<circle cx="762" cy="456" r="12" class="c0"/>
<circle cx="810" cy="1304" r="12" class="c0"/>
<circle cx="656" cy="924" r="12" class="c0"/>
<circle cx="752" cy="680" r="12" class="c0"/>
<circle cx="824" cy="1064" r="12" class="c0"/>
<circle cx="718" cy="1368" r="12" class="c0"/>
<circle cx="818" cy="596" r="12" class="c0"/>
<circle cx="758" cy="710" r="12" class="c0"/>
<circle cx="822" cy="768" r="12" class="c0"/>
<circle cx="760" cy="1274" r="10" class="c0"/>
<circle cx="858" cy="998" r="10" class="c0"/>
<circle cx="702" cy="628" r="10" class="c0"/>
<circle cx="642" cy="1068" r="10" class="c0"/>
<circle cx="616" cy="1196" r="10" class="c0"/>
<circle cx="756" cy="1320" r="10" class="c0"/>
<circle cx="662" cy="1254" r="10" class="c0"/>
<circle cx="778" cy="404" r="10" class="c0"/>
<circle cx="782" cy="856" r="10" class="c0"/>
<circle cx="800" cy="484" r="10" class="c0"/>
<circle cx="766" cy="1358" r="10" class="c0"/>
<circle cx="656" cy="1282" r="10" class="c0"/>
<circle cx="818" cy="968" r="10" class="c0"/>
<circle cx="630" cy="1096" r="10" class="c0"/>
<circle cx="732" cy="1026" r="10" class="c0"/>
<circle cx="748" cy="902" r="10" class="c0"/>
<circle cx="784" cy="932" r="10" class="c0"/>
<circle cx="614" cy="1220" r="10" class="c0"/>
<circle cx="858" cy="1068" r="10" class="c0"/>
<circle cx="738" cy="398" r="10" class="c0"/>
<circle cx="798" cy="612" r="10" class="c0"/>
<circle cx="750" cy="484" r="10" class="c0"/>
<circle cx="806" cy="890" r="10" class="c0"/>
<circle cx="672" cy="1078" r="10" class="c0"/>
<circle cx="752" cy="1006" r="10" class="c0"/>
<circle cx="642" cy="1238" r="10" class="c0"/>
<circle cx="798" cy="562" r="10" class="c0"/>
<circle cx="726" cy="1120" r="10" class="c0"/>
<circle cx="708" cy="1398" r="10" class="c0"/>
<circle cx="780" cy="880" r="10" class="c0"/>
<circle cx="858" cy="1118" r="10" class="c0"/>
<circle cx="706" cy="1110" r="10" class="c0"/>
<circle cx="668" cy="1188" r="10" class="c0"/>
<circle cx="786" cy="718" r="10" class="c0"/>
<circle cx="830" cy="872" r="10" class="c0"/>
<circle cx="760" cy="914" r="10" class="c0"/>
<circle cx="762" cy="936" r="10" class="c0"/>
<circle cx="702" cy="456" r="10" class="c0"/>
<circle cx="670" cy="864" r="10" class="c0"/>
<circle cx="738" cy="1230" r="10" class="c0"/>
<circle cx="830" cy="1200" r="10" class="c0"/>
<circle cx="702" cy="766" r="10" class="c0"/>
<circle cx="806" cy="810" r="10" class="c0"/>
<circle cx="832" cy="902" r="10" class="c0"/>
<circle cx="774" cy="954" r="10" class="c0"/>
<circle cx="650" cy="1024" r="10" class="c0"/>
<circle cx="772" cy="1106" r="10" class="c0"/>
<circle cx="686" cy="1234" r="10" class="c0"/>
<circle cx="632" cy="1138" r="10" class="c0"/>
<circle cx="698" cy="1268" r="10" class="c0"/>
<circle cx="806" cy="952" r="10" class="c0"/>
<circle cx="662" cy="1056" r="10" class="c0"/>
<circle cx="836" cy="692" r="10" class="c0"/>
<circle cx="744" cy="656" r="10" class="c0"/>
<circle cx="726" cy="846" r="10" class="c0"/>
<circle cx="698" cy="988" r="10" class="c0"/>
<circle cx="800" cy="1378" r="10" class="c0"/>
<circle cx="736" cy="422" r="10" class="c0"/>
<circle cx="854" cy="956" r="10" class="c0"/>
<circle cx="618" cy="1172" r="10" class="c0"/>
<circle cx="818" cy="926" r="10" class="c0"/>
<circle cx="780" cy="804" r="10" class="c0"/>
<circle cx="700" cy="878" r="10" class="c0"/>
<circle cx="802" cy="678" r="10" class="c0"/>
<circle cx="714" cy="896" r="10" class="c0"/>
<circle cx="866" cy="1282" r="10" class="c0"/>
<circle cx="802" cy="1226" r="10" class="c0"/>
<circle cx="708" cy="1288" r="10" class="c0"/>
<circle cx="736" cy="1380" r="10" class="c0"/>
<circle cx="686" cy="1408" r="10" class="c0"/>
<circle cx="844" cy="1140" r="10" class="c0"/>
<circle cx="640" cy="1206" r="10" class="c0"/>
<circle cx="714" cy="1002" r="10" class="c0"/>
<circle cx="720" cy="1254" r="10" class="c0"/>
<circle cx="784" cy="1210" r="10" class="c0"/>
<circle cx="788" cy="834" r="10" class="c0"/>
<circle cx="758" cy="1204" r="10" class="c0"/>
<circle cx="694" cy="960" r="10" class="c0"/>
<circle cx="722" cy="664" r="8" class="c0"/>
<circle cx="784" cy="1050" r="8" class="c0"/>
<circle cx="788" cy="470" r="8" class="c0"/>
<circle cx="730" cy="768" r="8" class="c0"/>
<circle cx="724" cy="466" r="8" class="c0"/>
<circle cx="648" cy="1000" r="8" class="c0"/>
<circle cx="822" cy="458" r="8" class="c0"/>
<circle cx="786" cy="436" r="8" class="c0"/>
<circle cx="784" cy="1280" r="8" class="c0"/>
<circle cx="742" cy="622" r="8" class="c0"/>
<circle cx="786" cy="1414" r="8" class="c0"/>
<circle cx="700" cy="1188" r="8" class="c0"/>
<circle cx="646" cy="1172" r="8" class="c0"/>
<circle cx="696" cy="670" r="8" class="c0"/>
<circle cx="880" cy="1242" r="8" class="c0"/>
<circle cx="770" cy="586" r="8" class="c0"/>
<circle cx="758" cy="862" r="8" class="c0"/>
<circle cx="820" cy="1138" r="8" class="c0"/>
<circle cx="646" cy="974" r="8" class="c0"/>
<circle cx="750" cy="974" r="8" class="c0"/>
<circle cx="832" cy="1098" r="8" class="c0"/>
<circle cx="764" cy="1398" r="8" class="c0"/>
<circle cx="730" cy="1090" r="8" class="c0"/>
<circle cx="696" cy="786" r="8" class="c0"/>
<circle cx="780" cy="738" r="8" class="c0"/>
<circle cx="788" cy="1094" r="8" class="c0"/>
<circle cx="668" cy="1144" r="8" class="c0"/>
<circle cx="734" cy="1180" r="8" class="c0"/>
<circle cx="722" cy="918" r="8" class="c0"/>
<circle cx="764" cy="762" r="8" class="c0"/>
<circle cx="766" cy="1380" r="8" class="c0"/>
<circle cx="754" cy="1134" r="8" class="c0"/>
<circle cx="730" cy="1400" r="8" class="c0"/>
<circle cx="718" cy="592" r="8" class="c0"/>
<circle cx="780" cy="570" r="8" class="c0"/>
<circle cx="748" cy="1086" r="8" class="c0"/>
<circle cx="664" cy="990" r="8" class="c0"/>
<circle cx="814" cy="1398" r="8" class="c0"/>
<circle cx="722" cy="1202" r="8" class="c0"/>
<circle cx="866" cy="1098" r="8" class="c0"/>
<circle cx="844" cy="490" r="8" class="c0"/>
<circle cx="736" cy="1070" r="8" class="c0"/>
<circle cx="810" cy="1048" r="8" class="c0"/>
<circle cx="776" cy="1136" r="8" class="c0"/>
<circle cx="682" cy="1282" r="8" class="c0"/>
<circle cx="726" cy="816" r="8" class="c0"/>
<circle cx="718" cy="1068" r="8" class="c0"/>
<circle cx="734" cy="938" r="8" class="c0"/>
<circle cx="846" cy="934" r="8" class="c0"/>
<circle cx="872" cy="1370" r="8" class="c0"/>
<circle cx="740" cy="450" r="8" class="c0"/>
<circle cx="766" cy="1058" r="8" class="c0"/>
<circle cx="738" cy="1266" r="8" class="c0"/>
<circle cx="652" cy="1122" r="8" class="c0"/>
<circle cx="678" cy="938" r="8" class="c0"/>
<circle cx="804" cy="652" r="8" class="c0"/>
<circle cx="682" cy="1374" r="8" class="c0"/>
<circle cx="862" cy="1250" r="8" class="c0"/>
<circle cx="730" cy="728" r="8" class="c0"/>
<circle cx="786" cy="1346" r="8" class="c0"/>
<circle cx="822" cy="1182" r="8" class="c0"/>
<circle cx="730" cy="1286" r="8" class="c0"/>
<circle cx="788" cy="1306" r="8" class="c0"/>
<circle cx="796" cy="990" r="8" class="c0"/>
<circle cx="818" cy="860" r="8" class="c0"/>
<circle cx="852" cy="1380" r="8" class="c0"/>
<circle cx="804" cy="1342" r="8" class="c0"/>
<circle cx="796" cy="584" r="8" class="c0"/>
<circle cx="830" cy="440" r="8" class="c0"/>
<circle cx="770" cy="780" r="8" class="c0"/>
<circle cx="658" cy="954" r="8" class="c0"/>
<circle cx="780" cy="906" r="8" class="c0"/>
<circle cx="736" cy="890" r="8" class="c0"/>
<circle cx="754" cy="746" r="8" class="c0"/>
<circle cx="686" cy="842" r="8" class="c0"/>
<circle cx="698" cy="416" r="8" class="c0"/>
<circle cx="844" cy="1026" r="8" class="c0"/>
<circle cx="624" cy="1272" r="8" class="c0"/>
<circle cx="670" cy="1212" r="8" class="c0"/>
<circle cx="808" cy="446" r="8" class="c0"/>
<circle cx="772" cy="480" r="8" class="c0"/>
<circle cx="846" cy="1224" r="8" class="c0"/>
<circle cx="778" cy="640" r="8" class="c0"/>
<circle cx="762" cy="1032" r="8" class="c0"/>
<circle cx="702" cy="1218" r="8" class="c0"/>
<circle cx="742" cy="560" r="8" class="c0"/>
<circle cx="812" cy="472" r="8" class="c0"/>
<circle cx="798" cy="776" r="8" class="c0"/>
<circle cx="678" cy="970" r="8" class="c0"/>
<circle cx="752" cy="1370" r="8" class="c0"/>
<circle cx="732" cy="986" r="8" class="c0"/>
<circle cx="720" cy="410" r="8" class="c0"/>
<circle cx="734" cy="582" r="8" class="c0"/>
<circle cx="674" cy="1124" r="8" class="c0"/>
<circle cx="834" cy="478" r="8" class="c0"/>
<circle cx="802" cy="1016" r="8" class="c0"/>
<circle cx="658" cy="896" r="8" class="c0"/>
<circle cx="646" cy="1044" r="8" class="c0"/>
<circle cx="786" cy="666" r="8" class="c0"/>
<circle cx="782" cy="550" r="8" class="c0"/>
<circle cx="764" cy="814" r="8" class="c0"/>
<circle cx="814" cy="838" r="8" class="c0"/>
<circle cx="700" cy="650" r="8" class="c0"/>
<circle cx="680" cy="1010" r="8" class="c0"/>
<circle cx="746" cy="1412" r="8" class="c0"/>
<circle cx="800" cy="1132" r="8" class="c0"/>
<circle cx="820" cy="1238" r="8" class="c0"/>
<circle cx="842" cy="1108" r="8" class="c0"/>
<circle cx="736" cy="1358" r="8" class="c0"/>
<circle cx="680" cy="898" r="8" class="c0"/>
<circle cx="710" cy="438" r="8" class="c0"/>
<circle cx="730" cy="500" r="8" class="c0"/>
<circle cx="746" cy="602" r="8" class="c0"/>
<circle cx="798" cy="916" r="8" class="c0"/>
<circle cx="842" cy="1292" r="8" class="c0"/>
<circle cx="814" cy="692" r="8" class="c0"/>
<circle cx="764" cy="1160" r="8" class="c0"/>
<circle cx="698" cy="918" r="8" class="c0"/>
<circle cx="714" cy="1136" r="8" class="c0"/>
<circle cx="724" cy="1156" r="8" class="c0"/>
<circle cx="780" cy="604" r="8" class="c0"/>
<circle cx="664" cy="1234" r="8" class="c0"/>
<circle cx="816" cy="500" r="8" class="c0"/>
<circle cx="810" cy="408" r="8" class="c0"/>
<circle cx="700" cy="1350" r="8" class="c0"/>
<circle cx="768" cy="1304" r="8" class="c0"/>
<circle cx="784" cy="970" r="8" class="c0"/>
<circle cx="726" cy="1050" r="8" class="c0"/>
<circle cx="742" cy="1300" r="8" class="c0"/>
<circle cx="788" cy="1180" r="8" class="c0"/>
<circle cx="604" cy="1244" r="8" class="c0"/>
<circle cx="702" cy="1150" r="8" class="c0"/>
<circle cx="862" cy="1390" r="8" class="c0"/>
<circle cx="720" cy="708" r="8" class="c0"/>
<circle cx="796" cy="534" r="8" class="c0"/>
<circle cx="722" cy="1342" r="8" class="c0"/>
<circle cx="836" cy="506" r="8" class="c0"/>
<circle cx="722" cy="788" r="8" class="c0"/>
<circle cx="858" cy="1044" r="8" class="c0"/>
<circle cx="758" cy="390" r="8" class="c0"/>
<circle cx="810" cy="1416" r="8" class="c0"/>
<circle cx="770" cy="1190" r="8" class="c0"/>
<circle cx="788" cy="698" r="8" class="c0"/>
<circle cx="706" cy="392" r="8" class="c0"/>
<circle cx="816" cy="1112" r="8" class="c0"/>
<circle cx="772" cy="1426" r="8" class="c0"/>
<circle cx="714" cy="1230" r="8" class="c0"/>
<circle cx="764" cy="630" r="8" class="c0"/>
<circle cx="682" cy="818" r="8" class="c0"/>
<circle cx="650" cy="1154" r="8" class="c0"/>
<circle cx="836" cy="1370" r="8" class="c0"/>
<circle cx="668" cy="1036" r="8" class="c0"/>
<circle cx="722" cy="558" r="8" class="c0"/>
<circle cx="720" cy="682" r="8" class="c0"/>
<circle cx="690" cy="1202" r="8" class="c0"/>
<circle cx="820" cy="716" r="8" class="c0"/>
<circle cx="766" cy="424" r="8" class="c0"/>
<circle cx="784" cy="1010" r="8" class="c0"/>
<circle cx="806" cy="1204" r="8" class="c0"/>
<circle cx="768" cy="1338" r="8" class="c0"/>
<circle cx="814" cy="630" r="8" class="c0"/>
<circle cx="652" cy="1100" r="8" class="c0"/>
<circle cx="812" cy="1084" r="8" class="c0"/>
<circle cx="840" cy="978" r="8" class="c0"/>
<circle cx="688" cy="1094" r="8" class="c0"/>
<circle cx="724" cy="636" r="8" class="c0"/>
<circle cx="762" cy="542" r="8" class="c0"/>
<circle cx="690" cy="1176" r="8" class="c0"/>
<circle cx="838" cy="1258" r="8" class="c0"/>
<circle cx="728" cy="868" r="8" class="c0"/>
<circle cx="832" cy="664" r="8" class="c0"/>
<circle cx="798" cy="458" r="8" class="c0"/>
<circle cx="612" cy="1134" r="8" class="c0"/>
<circle cx="830" cy="1128" r="8" class="c0"/>
<circle cx="752" cy="1242" r="8" class="c0"/>
<circle cx="802" cy="516" r="8" class="c0"/>
<circle cx="746" cy="948" r="8" class="c0"/>
<circle cx="672" cy="1270" r="8" class="c0"/>
<circle cx="748" cy="506" r="8" class="c0"/>
<circle cx="622" cy="1078" r="8" class="c0"/>
<circle cx="734" cy="544" r="8" class="c0"/>
<circle cx="680" cy="1164" r="8" class="c0"/>
<circle cx="744" cy="530" r="8" class="c0"/>
<circle cx="654" cy="1394" r="8" class="c0"/>
<circle cx="728" cy="604" r="8" class="c0"/>
<circle cx="794" cy="748" r="8" class="c0"/>
<circle cx="718" cy="1304" r="8" class="c0"/>
<circle cx="638" cy="1262" r="8" class="c0"/>
<circle cx="814" cy="526" r="8" class="c0"/>
<circle cx="700" cy="824" r="8" class="c0"/>
<circle cx="690" cy="1300" r="8" class="c0"/>
<circle cx="818" cy="428" r="8" class="c0"/>
<circle cx="864" cy="1144" r="8" class="c0"/>
<circle cx="638" cy="1358" r="8" class="c0"/>
<circle cx="738" cy="700" r="8" class="c0"/>
<circle cx="836" cy="1080" r="8" class="c0"/>
<circle cx="748" cy="1170" r="8" class="c0"/>
<circle cx="632" cy="1018" r="6" class="c0"/>
<circle cx="714" cy="1180" r="6" class="c0"/>
<circle cx="650" cy="1192" r="6" class="c0"/>
<circle cx="790" cy="1144" r="6" class="c0"/>
<circle cx="696" cy="900" r="6" class="c0"/>
<circle cx="658" cy="1374" r="6" class="c0"/>
<circle cx="832" cy="948" r="6" class="c0"/>
<circle cx="752" cy="432" r="6" class="c0"/>
<circle cx="860" cy="1414" r="6" class="c0"/>
<circle cx="704" cy="1244" r="6" class="c0"/>
<circle cx="772" cy="1074" r="6" class="c0"/>
<circle cx="764" cy="846" r="6" class="c0"/>
<circle cx="806" cy="738" r="6" class="c0"/>
<circle cx="822" cy="1288" r="6" class="c0"/>
<circle cx="764" cy="654" r="6" class="c0"/>
<circle cx="794" cy="1076" r="6" class="c0"/>
<circle cx="794" cy="1322" r="6" class="c0"/>
<circle cx="850" cy="1194" r="6" class="c0"/>
<circle cx="676" cy="654" r="6" class="c0"/>
<circle cx="664" cy="1350" r="6" class="c0"/>
<circle cx="772" cy="1254" r="6" class="c0"/>
<circle cx="798" cy="1290" r="6" class="c0"/>
<circle cx="686" cy="1134" r="6" class="c0"/>
<circle cx="706" cy="800" r="6" class="c0"/>
<circle cx="740" cy="1100" r="6" class="c0"/>
<circle cx="750" cy="1186" r="6" class="c0"/>
<circle cx="704" cy="734" r="6" class="c0"/>
<circle cx="738" cy="922" r="6" class="c0"/>
<circle cx="632" cy="1118" r="6" class="c0"/>
<circle cx="626" cy="1048" r="6" class="c0"/>
<circle cx="842" cy="1168" r="6" class="c0"/>
<circle cx="864" cy="1016" r="6" class="c0"/>
<circle cx="666" cy="1108" r="6" class="c0"/>
<circle cx="632" cy="1036" r="6" class="c0"/>
<circle cx="688" cy="1116" r="6" class="c0"/>
<circle cx="848" cy="706" r="6" class="c0"/>
<circle cx="710" cy="1048" r="6" class="c0"/>
<circle cx="696" cy="1006" r="6" class="c0"/>
<circle cx="708" cy="850" r="6" class="c0"/>
<circle cx="760" cy="570" r="6" class="c0"/>
<circle cx="858" cy="976" r="6" class="c0"/>
<circle cx="798" cy="426" r="6" class="c0"/>
<circle cx="814" cy="1356" r="6" class="c0"/>
<circle cx="852" cy="918" r="6" class="c0"/>
<circle cx="738" cy="1140" r="6" class="c0"/>
<circle cx="698" cy="942" r="6" class="c0"/>
<circle cx="830" cy="1222" r="6" class="c0"/>
<circle cx="762" cy="1222" r="6" class="c0"/>
<circle cx="664" cy="1012" r="6" class="c0"/>
<circle cx="746" cy="1054" r="6" class="c0"/>
<circle cx="704" cy="688" r="6" class="c0"/>
<circle cx="666" cy="1384" r="6" class="c0"/>
<circle cx="714" cy="1022" r="6" class="c0"/>
<circle cx="816" cy="746" r="6" class="c0"/>
<circle cx="640" cy="952" r="6" class="c0"/>
<circle cx="762" cy="606" r="6" class="c0"/>
<circle cx="746" cy="1116" r="6" class="c0"/>
<circle cx="666" cy="1366" r="6" class="c0"/>
<circle cx="760" cy="882" r="6" class="c0"/>
<circle cx="872" cy="1158" r="6" class="c0"/>
<circle cx="746" cy="1342" r="6" class="c0"/>
<circle cx="714" cy="1416" r="6" class="c0"/>
<circle cx="698" cy="1128" r="6" class="c0"/>
<circle cx="846" cy="1276" r="6" class="c0"/>
<circle cx="824" cy="798" r="6" class="c0"/>
<circle cx="680" cy="918" r="6" class="c0"/>
<circle cx="746" cy="726" r="6" class="c0"/>
<circle cx="740" cy="638" r="6" class="c0"/>
<circle cx="612" cy="1390" r="6" class="c0"/>
<circle cx="652" cy="1082" r="6" class="c0"/>
<circle cx="792" cy="792" r="6" class="c0"/>
<circle cx="708" cy="1086" r="6" class="c0"/>
<circle cx="744" cy="758" r="6" class="c0"/>
<circle cx="872" cy="1204" r="6" class="c0"/>
<circle cx="746" cy="872" r="6" class="c0"/>
<circle cx="698" cy="1366" r="6" class="c0"/>
<circle cx="834" cy="1428" r="6" class="c0"/>
<circle cx="712" cy="834" r="6" class="c0"/>
<circle cx="624" cy="1242" r="6" class="c0"/>
<circle cx="742" cy="468" r="6" class="c0"/>
<circle cx="756" cy="1068" r="6" class="c0"/>
<circle cx="802" cy="866" r="6" class="c0"/>
<circle cx="798" cy="1108" r="6" class="c0"/>
<circle cx="830" cy="1272" r="6" class="c0"/>
<circle cx="832" cy="786" r="6" class="c0"/>
<circle cx="778" cy="1318" r="6" class="c0"/>
<circle cx="784" cy="492" r="6" class="c0"/>
<circle cx="730" cy="482" r="6" class="c0"/>
<circle cx="614" cy="1106" r="6" class="c0"/>
<circle cx="836" cy="642" r="6" class="c0"/>
<circle cx="784" cy="762" r="6" class="c0"/>
<circle cx="796" cy="1360" r="6" class="c0"/>
<circle cx="732" cy="516" r="6" class="c0"/>
<circle cx="780" cy="1034" r="6" class="c0"/>
<circle cx="840" cy="886" r="6" class="c0"/>
<circle cx="826" cy="1030" r="6" class="c0"/>
<circle cx="646" cy="940" r="6" class="c0"/>
<circle cx="828" cy="1154" r="6" class="c0"/>
<circle cx="712" cy="1166" r="6" class="c0"/>
<circle cx="832" cy="1394" r="6" class="c0"/>
<circle cx="764" cy="732" r="6" class="c0"/>
<circle cx="830" cy="844" r="6" class="c0"/>
<circle cx="656" cy="880" r="6" class="c0"/>
<circle cx="710" cy="720" r="6" class="c0"/>
<circle cx="670" cy="834" r="6" class="c0"/>
<circle cx="610" cy="1156" r="6" class="c0"/>
<circle cx="746" cy="1036" r="6" class="c0"/>
<circle cx="774" cy="824" r="6" class="c0"/>
<circle cx="796" cy="638" r="6" class="c0"/>
<circle cx="724" cy="1218" r="6" class="c0"/>
<circle cx="758" cy="1292" r="6" class="c0"/>
<circle cx="790" cy="1116" r="6" class="c0"/>
<circle cx="848" cy="1054" r="6" class="c0"/>
<circle cx="678" cy="1344" r="6" class="c0"/>
<circle cx="682" cy="876" r="6" class="c0"/>
<circle cx="774" cy="1022" r="6" class="c0"/>
<circle cx="840" cy="1242" r="6" class="c0"/>
<circle cx="802" cy="1064" r="6" class="c0"/>
<circle cx="876" cy="1398" r="6" class="c0"/>
<circle cx="784" cy="624" r="6" class="c0"/>
<circle cx="714" cy="614" r="6" class="c0"/>
<circle cx="682" cy="1256" r="6" class="c0"/>
<circle cx="712" cy="934" r="6" class="c0"/>
<circle cx="840" cy="456" r="6" class="c0"/>
<circle cx="878" cy="1266" r="6" class="c0"/>
<circle cx="856" cy="714" r="6" class="c0"/>
<circle cx="778" cy="684" r="6" class="c0"/>
<circle cx="694" cy="1384" r="6" class="c0"/>
<circle cx="754" cy="414" r="6" class="c0"/>
<circle cx="694" cy="856" r="6" class="c0"/>
<circle cx="710" cy="948" r="6" class="c0"/>
<circle cx="796" cy="400" r="6" class="c0"/>
<circle cx="746" cy="812" r="6" class="c0"/>
<circle cx="662" cy="1168" r="6" class="c0"/>
<circle cx="788" cy="1260" r="6" class="c0"/>
<circle cx="784" cy="1392" r="6" class="c0"/>
<circle cx="634" cy="1188" r="6" class="c0"/>
<circle cx="840" cy="1182" r="6" class="c0"/>
<circle cx="824" cy="680" r="6" class="c0"/>
<circle cx="834" cy="1412" r="6" class="c0"/>
<circle cx="808" cy="788" r="6" class="c0"/>
<circle cx="620" cy="1256" r="6" class="c0"/>
<circle cx="824" cy="818" r="6" class="c0"/>
<circle cx="778" cy="1370" r="6" class="c0"/>
<circle cx="830" cy="1302" r="6" class="c0"/>
<circle cx="822" cy="986" r="6" class="c0"/>
<circle cx="626" cy="1378" r="6" class="c0"/>
<circle cx="632" cy="1162" r="6" class="c0"/>
<circle cx="720" cy="1274" r="6" class="c0"/>
<circle cx="712" cy="476" r="6" class="c0"/>
<circle cx="736" cy="1210" r="6" class="c0"/>
<circle cx="822" cy="1378" r="6" class="c0"/>
<circle cx="754" cy="1102" r="6" class="c0"/>
<circle cx="684" cy="640" r="6" class="c0"/>
<circle cx="696" cy="608" r="6" class="c0"/>
<circle cx="836" cy="712" r="6" class="c0"/>
<circle cx="816" cy="1214" r="6" class="c0"/>
<circle cx="848" cy="1090" r="6" class="c0"/>
<circle cx="838" cy="1046" r="6" class="c0"/>
<circle cx="790" cy="504" r="6" class="c0"/>
<circle cx="812" cy="574" r="6" class="c0"/>
<circle cx="604" cy="1376" r="6" class="c0"/>
<circle cx="746" cy="1150" r="6" class="c0"/>
<circle cx="686" cy="798" r="6" class="c0"/>
<circle cx="764" cy="1088" r="6" class="c0"/>
<circle cx="720" cy="448" r="6" class="c0"/>
<circle cx="802" cy="934" r="6" class="c0"/>
<circle cx="672" cy="1292" r="6" class="c0"/>
<circle cx="764" cy="494" r="6" class="c0"/>
<circle cx="736" cy="1428" r="6" class="c0"/>
<circle cx="782" cy="1154" r="6" class="c0"/>
<circle cx="592" cy="1368" r="6" class="c0"/>
<circle cx="784" cy="1068" r="6" class="c0"/>
<circle cx="770" cy="670" r="6" class="c0"/>
<circle cx="802" cy="848" r="6" class="c0"/>
<circle cx="806" cy="1000" r="6" class="c0"/>
<circle cx="750" cy="772" r="6" class="c0"/>
<circle cx="738" cy="784" r="6" class="c0"/>
<circle cx="868" cy="1082" r="6" class="c0"/>
<circle cx="774" cy="386" r="6" class="c0"/>
<circle cx="698" cy="746" r="6" class="c0"/>
<circle cx="694" cy="432" r="6" class="c0"/>
<circle cx="852" cy="1208" r="6" class="c0"/>
<circle cx="796" cy="1398" r="6" class="c0"/>
<circle cx="806" cy="980" r="6" class="c0"/>
<circle cx="814" cy="906" r="6" class="c0"/>
<circle cx="728" cy="438" r="6" class="c0"/>
<circle cx="668" cy="908" r="6" class="c0"/>
<circle cx="796" cy="1424" r="6" class="c0"/>
<circle cx="638" cy="1280" r="6" class="c0"/>
<circle cx="748" cy="1394" r="6" class="c0"/>
<circle cx="606" cy="1360" r="6" class="c0"/>
<circle cx="734" cy="1004" r="6" class="c0"/>
<circle cx="772" cy="696" r="6" class="c0"/>
<circle cx="830" cy="610" r="6" class="c0"/>
<circle cx="658" cy="1202" r="6" class="c0"/>
<circle cx="602" cy="1208" r="6" class="c0"/>
<circle cx="814" cy="666" r="6" class="c0"/>
<circle cx="636" cy="990" r="6" class="c0"/>
<circle cx="676" cy="1392" r="6" class="c0"/>
<circle cx="804" cy="1246" r="6" class="c0"/>
</svg>
