<?xml version="1.0" encoding="utf-8"?>
<svg xmlns="http://www.w3.org/2000/svg"
     xmlns:xlink="http://www.w3.org/1999/xlink" width="1920" height="1440" >

            <defs>
            <style type="text/css"><![CDATA[
circle {stroke: none;}
.c0 {fill: #000000;}
]]></style>
            </defs>
<rect x="0" y="0" width="1920" height="1440" fill="white"/>
<circle cx="774" cy="510" r="14" class="c0"/>
<circle cx="640" cy="1188" r="12" class="c0"/>
<circle cx="770" cy="896" r="12" class="c0"/>
<circle cx="832" cy="964" r="12" class="c0"/>
<circle cx="618" cy="1126" r="12" class="c0"/>
<circle cx="750" cy="420" r="12" class="c0"/>
<circle cx="718" cy="758" r="12" class="c0"/>
<circle cx="676" cy="1162" r="12" class="c0"/>
<circle cx="762" cy="450" r="12" class="c0"/>
<circle cx="726" cy="1240" r="12" class="c0"/>
<circle cx="802" cy="870" r="12" class="c0"/>
<circle cx="640" cy="882" r="12" class="c0"/>
<circle cx="640" cy="1242" r="12" class="c0"/>
<circle cx="724" cy="710" r="12" class="c0"/>
<circle cx="678" cy="1028" r="12" class="c0"/>
<circle cx="822" cy="1130" r="12" class="c0"/>
<circle cx="642" cy="950" r="12" class="c0"/>
<circle cx="764" cy="1234" r="12" class="c0"/>
<circle cx="798" cy="466" r="12" class="c0"/>
<circle cx="718" cy="1266" r="12" class="c0"/>
<circle cx="706" cy="390" r="12" class="c0"/>
<circle cx="734" cy="1374" r="12" class="c0"/>
<circle cx="652" cy="1014" r="12" class="c0"/>
<circle cx="598" cy="1174" r="12" class="c0"/>
<circle cx="646" cy="1316" r="12" class="c0"/>
<circle cx="790" cy="988" r="12" class="c0"/>
<circle cx="676" cy="410" r="12" class="c0"/>
<circle cx="782" cy="1072" r="12" class="c0"/>
<circle cx="764" cy="1028" r="12" class="c0"/>
<circle cx="672" cy="1136" r="12" class="c0"/>
<circle cx="646" cy="1278" r="12" class="c0"/>
<circle cx="736" cy="562" r="12" class="c0"/>
<circle cx="816" cy="734" r="12" class="c0"/>
<circle cx="706" cy="1108" r="12" class="c0"/>
<circle cx="806" cy="906" r="12" class="c0"/>
<circle cx="710" cy="816" r="12" class="c0"/>
<circle cx="688" cy="966" r="12" class="c0"/>
<circle cx="610" cy="1214" r="12" class="c0"/>
<circle cx="740" cy="394" r="12" class="c0"/>
<circle cx="690" cy="772" r="12" class="c0"/>
<circle cx="826" cy="1084" r="12" class="c0"/>
<circle cx="790" cy="1332" r="12" class="c0"/>
<circle cx="714" cy="458" r="12" class="c0"/>
<circle cx="658" cy="840" r="12" class="c0"/>
<circle cx="822" cy="920" r="12" class="c0"/>
<circle cx="686" cy="610" r="12" class="c0"/>
<circle cx="754" cy="1104" r="12" class="c0"/>
<circle cx="626" cy="980" r="10" class="c0"/>
<circle cx="744" cy="1210" r="10" class="c0"/>
<circle cx="742" cy="858" r="10" class="c0"/>
<circle cx="698" cy="1256" r="10" class="c0"/>
<circle cx="716" cy="1138" r="10" class="c0"/>
<circle cx="664" cy="1336" r="10" class="c0"/>
<circle cx="794" cy="940" r="10" class="c0"/>
<circle cx="742" cy="1284" r="10" class="c0"/>
<circle cx="762" cy="762" r="10" class="c0"/>
<circle cx="734" cy="598" r="10" class="c0"/>
<circle cx="702" cy="1020" r="10" class="c0"/>
<circle cx="750" cy="582" r="10" class="c0"/>
<circle cx="672" cy="984" r="10" class="c0"/>
<circle cx="768" cy="810" r="10" class="c0"/>
<circle cx="816" cy="1290" r="10" class="c0"/>
<circle cx="756" cy="1132" r="10" class="c0"/>
<circle cx="794" cy="1174" r="10" class="c0"/>
<circle cx="676" cy="1078" r="10" class="c0"/>
<circle cx="732" cy="1076" r="10" class="c0"/>
<circle cx="794" cy="1112" r="10" class="c0"/>
<circle cx="662" cy="798" r="10" class="c0"/>
<circle cx="764" cy="736" r="10" class="c0"/>
<circle cx="702" cy="670" r="10" class="c0"/>
<circle cx="746" cy="910" r="10" class="c0"/>
<circle cx="660" cy="1212" r="10" class="c0"/>
<circle cx="598" cy="1284" r="10" class="c0"/>
<circle cx="704" cy="1400" r="10" class="c0"/>
<circle cx="774" cy="972" r="10" class="c0"/>
<circle cx="678" cy="858" r="10" class="c0"/>
<circle cx="730" cy="986" r="10" class="c0"/>
<circle cx="714" cy="430" r="10" class="c0"/>
<circle cx="738" cy="628" r="10" class="c0"/>
<circle cx="726" cy="954" r="10" class="c0"/>
<circle cx="778" cy="1424" r="10" class="c0"/>
<circle cx="722" cy="916" r="10" class="c0"/>
<circle cx="802" cy="686" r="10" class="c0"/>
<circle cx="772" cy="1366" r="10" class="c0"/>
<circle cx="722" cy="792" r="10" class="c0"/>
<circle cx="692" cy="1330" r="10" class="c0"/>
<circle cx="804" cy="1208" r="10" class="c0"/>
<circle cx="588" cy="1248" r="10" class="c0"/>
<circle cx="844" cy="1302" r="10" class="c0"/>
<circle cx="710" cy="556" r="10" class="c0"/>
<circle cx="618" cy="1074" r="10" class="c0"/>
<circle cx="726" cy="1038" r="10" class="c0"/>
<circle cx="808" cy="1012" r="10" class="c0"/>
<circle cx="826" cy="1342" r="10" class="c0"/>
<circle cx="686" cy="576" r="10" class="c0"/>
<circle cx="840" cy="1168" r="10" class="c0"/>
<circle cx="778" cy="482" r="10" class="c0"/>
<circle cx="728" cy="664" r="10" class="c0"/>
<circle cx="790" cy="1234" r="10" class="c0"/>
<circle cx="672" cy="656" r="10" class="c0"/>
<circle cx="700" cy="1422" r="10" class="c0"/>
<circle cx="742" cy="1416" r="10" class="c0"/>
<circle cx="724" cy="1014" r="10" class="c0"/>
<circle cx="750" cy="1184" r="10" class="c0"/>
<circle cx="748" cy="948" r="10" class="c0"/>
<circle cx="600" cy="1144" r="10" class="c0"/>
<circle cx="616" cy="1326" r="10" class="c0"/>
<circle cx="780" cy="662" r="10" class="c0"/>
<circle cx="836" cy="1200" r="10" class="c0"/>
<circle cx="720" cy="510" r="10" class="c0"/>
<circle cx="768" cy="934" r="10" class="c0"/>
<circle cx="752" cy="1316" r="10" class="c0"/>
<circle cx="662" cy="1294" r="10" class="c0"/>
<circle cx="624" cy="1268" r="10" class="c0"/>
<circle cx="710" cy="650" r="10" class="c0"/>
<circle cx="608" cy="1016" r="10" class="c0"/>
<circle cx="714" cy="690" r="10" class="c0"/>
<circle cx="782" cy="830" r="10" class="c0"/>
<circle cx="810" cy="1058" r="10" class="c0"/>
<circle cx="818" cy="1248" r="10" class="c0"/>
<circle cx="682" cy="478" r="10" class="c0"/>
<circle cx="668" cy="1054" r="10" class="c0"/>
<circle cx="654" cy="642" r="10" class="c0"/>
<circle cx="812" cy="1316" r="10" class="c0"/>
<circle cx="678" cy="1244" r="10" class="c0"/>
<circle cx="674" cy="886" r="10" class="c0"/>
<circle cx="740" cy="744" r="10" class="c0"/>
<circle cx="680" cy="828" r="10" class="c0"/>
<circle cx="790" cy="748" r="10" class="c0"/>
<circle cx="650" cy="904" r="10" class="c0"/>
<circle cx="636" cy="926" r="10" class="c0"/>
<circle cx="730" cy="442" r="10" class="c0"/>
<circle cx="820" cy="1182" r="10" class="c0"/>
<circle cx="790" cy="1026" r="10" class="c0"/>
<circle cx="744" cy="688" r="10" class="c0"/>
<circle cx="688" cy="996" r="10" class="c0"/>
<circle cx="696" cy="1216" r="10" class="c0"/>
<circle cx="594" cy="1316" r="10" class="c0"/>
<circle cx="830" cy="1002" r="10" class="c0"/>
<circle cx="766" cy="1270" r="10" class="c0"/>
<circle cx="576" cy="1288" r="10" class="c0"/>
<circle cx="750" cy="1002" r="10" class="c0"/>
<circle cx="648" cy="1158" r="10" class="c0"/>
<circle cx="692" cy="1056" r="10" class="c0"/>
<circle cx="580" cy="1214" r="10" class="c0"/>
<circle cx="772" cy="1178" r="10" class="c0"/>
<circle cx="794" cy="426" r="10" class="c0"/>
<circle cx="788" cy="628" r="10" class="c0"/>
<circle cx="784" cy="1156" r="10" class="c0"/>
<circle cx="682" cy="680" r="10" class="c0"/>
<circle cx="780" cy="382" r="10" class="c0"/>
<circle cx="766" cy="542" r="10" class="c0"/>
<circle cx="778" cy="600" r="10" class="c0"/>
<circle cx="738" cy="776" r="10" class="c0"/>
<circle cx="708" cy="1294" r="10" class="c0"/>
<circle cx="840" cy="1324" r="10" class="c0"/>
<circle cx="688" cy="938" r="10" class="c0"/>
<circle cx="764" cy="848" r="8" class="c0"/>
<circle cx="792" cy="400" r="8" class="c0"/>
<circle cx="794" cy="648" r="8" class="c0"/>
<circle cx="742" cy="800" r="8" class="c0"/>
<circle cx="788" cy="446" r="8" class="c0"/>
<circle cx="724" cy="1180" r="8" class="c0"/>
<circle cx="768" cy="622" r="8" class="c0"/>
<circle cx="764" cy="708" r="8" class="c0"/>
<circle cx="850" cy="1250" r="8" class="c0"/>
<circle cx="752" cy="1390" r="8" class="c0"/>
<circle cx="676" cy="746" r="8" class="c0"/>
<circle cx="802" cy="772" r="8" class="c0"/>
<circle cx="730" cy="872" r="8" class="c0"/>
<circle cx="632" cy="1056" r="8" class="c0"/>
<circle cx="618" cy="1166" r="8" class="c0"/>
<circle cx="758" cy="650" r="8" class="c0"/>
<circle cx="712" cy="942" r="8" class="c0"/>
<circle cx="658" cy="766" r="8" class="c0"/>
<circle cx="788" cy="580" r="8" class="c0"/>
<circle cx="620" cy="1412" r="8" class="c0"/>
<circle cx="844" cy="1108" r="8" class="c0"/>
<circle cx="748" cy="372" r="8" class="c0"/>
<circle cx="748" cy="830" r="8" class="c0"/>
<circle cx="682" cy="454" r="8" class="c0"/>
<circle cx="792" cy="708" r="8" class="c0"/>
<circle cx="682" cy="1308" r="8" class="c0"/>
<circle cx="692" cy="796" r="8" class="c0"/>
<circle cx="782" cy="1100" r="8" class="c0"/>
<circle cx="722" cy="850" r="8" class="c0"/>
<circle cx="626" cy="1294" r="8" class="c0"/>
<circle cx="730" cy="1326" r="8" class="c0"/>
<circle cx="598" cy="1100" r="8" class="c0"/>
<circle cx="710" cy="588" r="8" class="c0"/>
<circle cx="660" cy="962" r="8" class="c0"/>
<circle cx="698" cy="1182" r="8" class="c0"/>
<circle cx="592" cy="1198" r="8" class="c0"/>
<circle cx="670" cy="1186" r="8" class="c0"/>
<circle cx="794" cy="1360" r="8" class="c0"/>
<circle cx="748" cy="612" r="8" class="c0"/>
<circle cx="810" cy="950" r="8" class="c0"/>
<circle cx="614" cy="1050" r="8" class="c0"/>
<circle cx="750" cy="474" r="8" class="c0"/>
<circle cx="668" cy="1266" r="8" class="c0"/>
<circle cx="652" cy="662" r="8" class="c0"/>
<circle cx="828" cy="1034" r="8" class="c0"/>
<circle cx="640" cy="1124" r="8" class="c0"/>
<circle cx="816" cy="1162" r="8" class="c0"/>
<circle cx="676" cy="1358" r="8" class="c0"/>
<circle cx="710" cy="732" r="8" class="c0"/>
<circle cx="796" cy="500" r="8" class="c0"/>
<circle cx="788" cy="1308" r="8" class="c0"/>
<circle cx="778" cy="570" r="8" class="c0"/>
<circle cx="734" cy="526" r="8" class="c0"/>
<circle cx="774" cy="866" r="8" class="c0"/>
<circle cx="668" cy="388" r="8" class="c0"/>
<circle cx="636" cy="1428" r="8" class="c0"/>
<circle cx="726" cy="408" r="8" class="c0"/>
<circle cx="718" cy="896" r="8" class="c0"/>
<circle cx="656" cy="1074" r="8" class="c0"/>
<circle cx="684" cy="380" r="8" class="c0"/>
<circle cx="730" cy="1348" r="8" class="c0"/>
<circle cx="698" cy="420" r="8" class="c0"/>
<circle cx="670" cy="1426" r="8" class="c0"/>
<circle cx="832" cy="1148" r="8" class="c0"/>
<circle cx="768" cy="1212" r="8" class="c0"/>
<circle cx="768" cy="1330" r="8" class="c0"/>
<circle cx="816" cy="448" r="8" class="c0"/>
<circle cx="682" cy="916" r="8" class="c0"/>
<circle cx="564" cy="1428" r="8" class="c0"/>
<circle cx="624" cy="896" r="8" class="c0"/>
<circle cx="646" cy="816" r="8" class="c0"/>
<circle cx="708" cy="1362" r="8" class="c0"/>
<circle cx="664" cy="932" r="8" class="c0"/>
<circle cx="676" cy="708" r="8" class="c0"/>
<circle cx="680" cy="1412" r="8" class="c0"/>
<circle cx="850" cy="1230" r="8" class="c0"/>
<circle cx="692" cy="726" r="8" class="c0"/>
<circle cx="748" cy="722" r="8" class="c0"/>
<circle cx="788" cy="728" r="8" class="c0"/>
<circle cx="696" cy="906" r="8" class="c0"/>
<circle cx="792" cy="1276" r="8" class="c0"/>
<circle cx="794" cy="1140" r="8" class="c0"/>
<circle cx="816" cy="492" r="8" class="c0"/>
<circle cx="684" cy="1278" r="8" class="c0"/>
<circle cx="620" cy="948" r="8" class="c0"/>
<circle cx="672" cy="632" r="8" class="c0"/>
<circle cx="846" cy="1430" r="8" class="c0"/>
<circle cx="658" cy="1174" r="8" class="c0"/>
<circle cx="616" cy="1096" r="8" class="c0"/>
<circle cx="650" cy="1036" r="8" class="c0"/>
<circle cx="840" cy="1054" r="8" class="c0"/>
<circle cx="720" cy="620" r="8" class="c0"/>
<circle cx="710" cy="482" r="8" class="c0"/>
<circle cx="654" cy="864" r="8" class="c0"/>
<circle cx="754" cy="1058" r="8" class="c0"/>
<circle cx="778" cy="1400" r="8" class="c0"/>
<circle cx="730" cy="472" r="8" class="c0"/>
<circle cx="698" cy="1156" r="8" class="c0"/>
<circle cx="690" cy="644" r="8" class="c0"/>
<circle cx="670" cy="592" r="8" class="c0"/>
<circle cx="820" cy="980" r="8" class="c0"/>
<circle cx="658" cy="1404" r="8" class="c0"/>
<circle cx="632" cy="1002" r="8" class="c0"/>
<circle cx="760" cy="402" r="8" class="c0"/>
<circle cx="738" cy="498" r="8" class="c0"/>
<circle cx="844" cy="1128" r="8" class="c0"/>
<circle cx="694" cy="868" r="8" class="c0"/>
<circle cx="698" cy="836" r="8" class="c0"/>
<circle cx="698" cy="370" r="8" class="c0"/>
<circle cx="770" cy="1300" r="8" class="c0"/>
<circle cx="788" cy="1194" r="8" class="c0"/>
<circle cx="714" cy="1054" r="8" class="c0"/>
<circle cx="704" cy="984" r="8" class="c0"/>
<circle cx="742" cy="1166" r="8" class="c0"/>
<circle cx="712" cy="1314" r="8" class="c0"/>
<circle cx="704" cy="1342" r="8" class="c0"/>
<circle cx="846" cy="1282" r="8" class="c0"/>
<circle cx="856" cy="1314" r="8" class="c0"/>
<circle cx="584" cy="1158" r="8" class="c0"/>
<circle cx="710" cy="1084" r="8" class="c0"/>
<circle cx="774" cy="1046" r="8" class="c0"/>
<circle cx="586" cy="1268" r="8" class="c0"/>
<circle cx="612" cy="1428" r="8" class="c0"/>
<circle cx="810" cy="1270" r="8" class="c0"/>
<circle cx="752" cy="1078" r="8" class="c0"/>
<circle cx="820" cy="1222" r="8" class="c0"/>
<circle cx="792" cy="810" r="8" class="c0"/>
<circle cx="696" cy="1134" r="8" class="c0"/>
<circle cx="788" cy="1254" r="8" class="c0"/>
<circle cx="838" cy="1240" r="8" class="c0"/>
<circle cx="610" cy="1190" r="8" class="c0"/>
<circle cx="626" cy="1226" r="8" class="c0"/>
<circle cx="672" cy="1102" r="8" class="c0"/>
<circle cx="824" cy="712" r="8" class="c0"/>
<circle cx="804" cy="1082" r="8" class="c0"/>
<circle cx="812" cy="1100" r="8" class="c0"/>
<circle cx="764" cy="1150" r="8" class="c0"/>
<circle cx="810" cy="1420" r="8" class="c0"/>
<circle cx="696" cy="700" r="8" class="c0"/>
<circle cx="812" cy="1354" r="8" class="c0"/>
<circle cx="672" cy="438" r="8" class="c0"/>
<circle cx="714" cy="1164" r="8" class="c0"/>
<circle cx="722" cy="1204" r="8" class="c0"/>
<circle cx="634" cy="1024" r="8" class="c0"/>
<circle cx="772" cy="428" r="8" class="c0"/>
<circle cx="636" cy="860" r="8" class="c0"/>
<circle cx="702" cy="536" r="8" class="c0"/>
<circle cx="728" cy="1302" r="8" class="c0"/>
<circle cx="658" cy="1232" r="8" class="c0"/>
<circle cx="646" cy="1414" r="8" class="c0"/>
<circle cx="774" cy="688" r="8" class="c0"/>
<circle cx="724" cy="1394" r="8" class="c0"/>
<circle cx="742" cy="1022" r="8" class="c0"/>
<circle cx="800" cy="614" r="8" class="c0"/>
<circle cx="644" cy="972" r="8" class="c0"/>
<circle cx="740" cy="884" r="8" class="c0"/>
<circle cx="774" cy="784" r="8" class="c0"/>
<circle cx="756" cy="526" r="8" class="c0"/>
<circle cx="756" cy="492" r="8" class="c0"/>
<circle cx="760" cy="670" r="8" class="c0"/>
<circle cx="744" cy="1338" r="8" class="c0"/>
<circle cx="658" cy="426" r="8" class="c0"/>
<circle cx="806" cy="414" r="8" class="c0"/>
<circle cx="746" cy="1256" r="8" class="c0"/>
<circle cx="784" cy="774" r="8" class="c0"/>
<circle cx="818" cy="890" r="8" class="c0"/>
<circle cx="742" cy="968" r="8" class="c0"/>
<circle cx="726" cy="380" r="8" class="c0"/>
<circle cx="828" cy="1276" r="8" class="c0"/>
<circle cx="828" cy="942" r="8" class="c0"/>
<circle cx="624" cy="1040" r="8" class="c0"/>
<circle cx="592" cy="1120" r="8" class="c0"/>
<circle cx="598" cy="1060" r="8" class="c0"/>
<circle cx="740" cy="1144" r="8" class="c0"/>
<circle cx="612" cy="1246" r="8" class="c0"/>
<circle cx="634" cy="1336" r="8" class="c0"/>
<circle cx="610" cy="1304" r="8" class="c0"/>
<circle cx="712" cy="876" r="8" class="c0"/>
<circle cx="796" cy="792" r="8" class="c0"/>
<circle cx="754" cy="1350" r="8" class="c0"/>
<circle cx="810" cy="970" r="8" class="c0"/>
<circle cx="814" cy="700" r="8" class="c0"/>
<circle cx="772" cy="1122" r="8" class="c0"/>
<circle cx="654" cy="992" r="8" class="c0"/>
<circle cx="806" cy="660" r="8" class="c0"/>
<circle cx="660" cy="1112" r="8" class="c0"/>
<circle cx="776" cy="718" r="8" class="c0"/>
<circle cx="708" cy="1228" r="8" class="c0"/>
<circle cx="790" cy="850" r="8" class="c0"/>
<circle cx="720" cy="1094" r="8" class="c0"/>
<circle cx="640" cy="1104" r="8" class="c0"/>
<circle cx="664" cy="612" r="8" class="c0"/>
<circle cx="728" cy="1120" r="8" class="c0"/>
<circle cx="700" cy="628" r="8" class="c0"/>
<circle cx="722" cy="578" r="8" class="c0"/>
<circle cx="696" cy="440" r="8" class="c0"/>
<circle cx="776" cy="640" r="8" class="c0"/>
<circle cx="780" cy="1010" r="8" class="c0"/>
<circle cx="838" cy="1260" r="8" class="c0"/>
<circle cx="630" cy="1148" r="8" class="c0"/>
<circle cx="626" cy="1202" r="8" class="c0"/>
<circle cx="734" cy="930" r="8" class="c0"/>
<circle cx="722" cy="638" r="8" class="c0"/>
<circle cx="658" cy="1254" r="8" class="c0"/>
<circle cx="758" cy="1426" r="8" class="c0"/>
<circle cx="684" cy="1120" r="8" class="c0"/>
<circle cx="696" cy="498" r="8" class="c0"/>
<circle cx="712" cy="1194" r="8" class="c0"/>
<circle cx="820" cy="472" r="8" class="c0"/>
<circle cx="722" cy="536" r="8" class="c0"/>
<circle cx="786" cy="884" r="8" class="c0"/>
<circle cx="600" cy="1416" r="8" class="c0"/>
<circle cx="684" cy="1196" r="8" class="c0"/>
<circle cx="806" cy="510" r="8" class="c0"/>
<circle cx="676" cy="786" r="8" class="c0"/>
<circle cx="814" cy="756" r="8" class="c0"/>
<circle cx="786" cy="916" r="8" class="c0"/>
<circle cx="712" cy="1002" r="8" class="c0"/>
<circle cx="790" cy="960" r="8" class="c0"/>
<circle cx="754" cy="978" r="8" class="c0"/>
<circle cx="808" cy="1038" r="8" class="c0"/>
<circle cx="844" cy="1070" r="6" class="c0"/>
<circle cx="790" cy="1054" r="6" class="c0"/>
<circle cx="722" cy="1416" r="6" class="c0"/>
<circle cx="664" cy="674" r="6" class="c0"/>
<circle cx="638" cy="1082" r="6" class="c0"/>
<circle cx="728" cy="732" r="6" class="c0"/>
<circle cx="826" cy="1304" r="6" class="c0"/>
<circle cx="758" cy="602" r="6" class="c0"/>
<circle cx="764" cy="992" r="6" class="c0"/>
<circle cx="724" cy="1286" r="6" class="c0"/>
<circle cx="718" cy="1430" r="6" class="c0"/>
<circle cx="716" cy="364" r="6" class="c0"/>
<circle cx="602" cy="1232" r="6" class="c0"/>
<circle cx="682" cy="808" r="6" class="c0"/>
<circle cx="672" cy="904" r="6" class="c0"/>
<circle cx="714" cy="966" r="6" class="c0"/>
<circle cx="776" cy="1284" r="6" class="c0"/>
<circle cx="758" cy="780" r="6" class="c0"/>
<circle cx="706" cy="1040" r="6" class="c0"/>
<circle cx="856" cy="1202" r="6" class="c0"/>
<circle cx="730" cy="818" r="6" class="c0"/>
<circle cx="846" cy="1014" r="6" class="c0"/>
<circle cx="648" cy="1060" r="6" class="c0"/>
<circle cx="854" cy="1266" r="6" class="c0"/>
<circle cx="606" cy="1036" r="6" class="c0"/>
<circle cx="696" cy="1092" r="6" class="c0"/>
<circle cx="754" cy="870" r="6" class="c0"/>
<circle cx="748" cy="512" r="6" class="c0"/>
<circle cx="756" cy="556" r="6" class="c0"/>
<circle cx="680" cy="1224" r="6" class="c0"/>
<circle cx="712" cy="778" r="6" class="c0"/>
<circle cx="672" cy="726" r="6" class="c0"/>
<circle cx="656" cy="1092" r="6" class="c0"/>
<circle cx="700" cy="852" r="6" class="c0"/>
<circle cx="744" cy="1048" r="6" class="c0"/>
<circle cx="570" cy="1270" r="6" class="c0"/>
<circle cx="702" cy="890" r="6" class="c0"/>
<circle cx="796" cy="594" r="6" class="c0"/>
<circle cx="606" cy="990" r="6" class="c0"/>
<circle cx="704" cy="716" r="6" class="c0"/>
<circle cx="746" cy="660" r="6" class="c0"/>
<circle cx="768" cy="1388" r="6" class="c0"/>
<circle cx="604" cy="1260" r="6" class="c0"/>
<circle cx="600" cy="1078" r="6" class="c0"/>
<circle cx="700" cy="472" r="6" class="c0"/>
<circle cx="740" cy="458" r="6" class="c0"/>
<circle cx="618" cy="964" r="6" class="c0"/>
<circle cx="804" cy="840" r="6" class="c0"/>
<circle cx="770" cy="954" r="6" class="c0"/>
<circle cx="576" cy="1234" r="6" class="c0"/>
<circle cx="694" cy="742" r="6" class="c0"/>
<circle cx="664" cy="818" r="6" class="c0"/>
<circle cx="778" cy="462" r="6" class="c0"/>
<circle cx="734" cy="1194" r="6" class="c0"/>
<circle cx="690" cy="1350" r="6" class="c0"/>
<circle cx="644" cy="1348" r="6" class="c0"/>
<circle cx="766" cy="1086" r="6" class="c0"/>
<circle cx="676" cy="952" r="6" class="c0"/>
<circle cx="580" cy="1306" r="6" class="c0"/>
<circle cx="852" cy="1184" r="6" class="c0"/>
<circle cx="712" cy="606" r="6" class="c0"/>
<circle cx="672" cy="1320" r="6" class="c0"/>
<circle cx="776" cy="1140" r="6" class="c0"/>
<circle cx="700" cy="1072" r="6" class="c0"/>
<circle cx="702" cy="924" r="6" class="c0"/>
<circle cx="736" cy="1058" r="6" class="c0"/>
<circle cx="798" cy="1432" r="6" class="c0"/>
<circle cx="702" cy="954" r="6" class="c0"/>
<circle cx="616" cy="930" r="6" class="c0"/>
<circle cx="846" cy="1092" r="6" class="c0"/>
<circle cx="652" cy="1430" r="6" class="c0"/>
<circle cx="634" cy="1168" r="6" class="c0"/>
<circle cx="742" cy="1228" r="6" class="c0"/>
<circle cx="616" cy="998" r="6" class="c0"/>
<circle cx="808" cy="1232" r="6" class="c0"/>
<circle cx="838" cy="1022" r="6" class="c0"/>
<circle cx="764" cy="1194" r="6" class="c0"/>
<circle cx="696" cy="1238" r="6" class="c0"/>
<circle cx="714" cy="1330" r="6" class="c0"/>
<circle cx="768" cy="368" r="6" class="c0"/>
<circle cx="760" cy="1408" r="6" class="c0"/>
<circle cx="772" cy="1252" r="6" class="c0"/>
<circle cx="652" cy="1140" r="6" class="c0"/>
<circle cx="750" cy="928" r="6" class="c0"/>
<circle cx="744" cy="538" r="6" class="c0"/>
<circle cx="642" cy="1208" r="6" class="c0"/>
<circle cx="768" cy="586" r="6" class="c0"/>
<circle cx="770" cy="412" r="6" class="c0"/>
<circle cx="724" cy="832" r="6" class="c0"/>
<circle cx="778" cy="1348" r="6" class="c0"/>
<circle cx="582" cy="1426" r="6" class="c0"/>
<circle cx="584" cy="1408" r="6" class="c0"/>
<circle cx="674" cy="762" r="6" class="c0"/>
<circle cx="838" cy="1218" r="6" class="c0"/>
<circle cx="672" cy="1008" r="6" class="c0"/>
<circle cx="808" cy="1148" r="6" class="c0"/>
<circle cx="730" cy="362" r="6" class="c0"/>
<circle cx="582" cy="1188" r="6" class="c0"/>
<circle cx="754" cy="1372" r="6" class="c0"/>
<circle cx="848" cy="1150" r="6" class="c0"/>
<circle cx="704" cy="786" r="6" class="c0"/>
<circle cx="688" cy="1100" r="6" class="c0"/>
<circle cx="666" cy="372" r="6" class="c0"/>
<circle cx="710" cy="410" r="6" class="c0"/>
<circle cx="826" cy="1108" r="6" class="c0"/>
<circle cx="692" cy="550" r="6" class="c0"/>
<circle cx="676" cy="1396" r="6" class="c0"/>
<circle cx="808" cy="826" r="6" class="c0"/>
<circle cx="804" cy="720" r="6" class="c0"/>
<circle cx="798" cy="1296" r="6" class="c0"/>
<circle cx="760" cy="384" r="6" class="c0"/>
<circle cx="724" cy="490" r="6" class="c0"/>
<circle cx="762" cy="878" r="6" class="c0"/>
<circle cx="652" cy="624" r="6" class="c0"/>
<circle cx="624" cy="914" r="6" class="c0"/>
<circle cx="844" cy="1036" r="6" class="c0"/>
<circle cx="784" cy="1292" r="6" class="c0"/>
<circle cx="778" cy="1222" r="6" class="c0"/>
<circle cx="708" cy="860" r="6" class="c0"/>
<circle cx="734" cy="840" r="6" class="c0"/>
<circle cx="730" cy="1104" r="6" class="c0"/>
<circle cx="674" cy="364" r="6" class="c0"/>
<circle cx="782" cy="554" r="6" class="c0"/>
<circle cx="644" cy="1222" r="6" class="c0"/>
<circle cx="810" cy="1334" r="6" class="c0"/>
<circle cx="658" cy="1356" r="6" class="c0"/>
<circle cx="812" cy="432" r="6" class="c0"/>
<circle cx="738" cy="1094" r="6" class="c0"/>
<circle cx="714" cy="1380" r="6" class="c0"/>
<circle cx="836" cy="984" r="6" class="c0"/>
<circle cx="782" cy="800" r="6" class="c0"/>
<circle cx="740" cy="648" r="6" class="c0"/>
<circle cx="746" cy="706" r="6" class="c0"/>
<circle cx="830" cy="1422" r="6" class="c0"/>
<circle cx="862" cy="1298" r="6" class="c0"/>
<circle cx="760" cy="794" r="6" class="c0"/>
<circle cx="814" cy="674" r="6" class="c0"/>
<circle cx="726" cy="1154" r="6" class="c0"/>
<circle cx="610" cy="1400" r="6" class="c0"/>
<circle cx="762" cy="568" r="6" class="c0"/>
<circle cx="804" cy="638" r="6" class="c0"/>
<circle cx="810" cy="992" r="6" class="c0"/>
<circle cx="754" cy="1298" r="6" class="c0"/>
<circle cx="594" cy="1224" r="6" class="c0"/>
<circle cx="786" cy="1214" r="6" class="c0"/>
<circle cx="756" cy="632" r="6" class="c0"/>
<circle cx="758" cy="962" r="6" class="c0"/>
<circle cx="712" cy="526" r="6" class="c0"/>
<circle cx="750" cy="814" r="6" class="c0"/>
<circle cx="778" cy="1318" r="6" class="c0"/>
<circle cx="796" cy="1408" r="6" class="c0"/>
<circle cx="828" cy="1064" r="6" class="c0"/>
<circle cx="764" cy="916" r="6" class="c0"/>
<circle cx="702" cy="1276" r="6" class="c0"/>
<circle cx="730" cy="1220" r="6" class="c0"/>
<circle cx="684" cy="428" r="6" class="c0"/>
<circle cx="608" cy="1110" r="6" class="c0"/>
<circle cx="658" cy="402" r="6" class="c0"/>
<circle cx="610" cy="972" r="6" class="c0"/>
<circle cx="692" cy="1366" r="6" class="c0"/>
<circle cx="692" cy="464" r="6" class="c0"/>
<circle cx="626" cy="1312" r="6" class="c0"/>
<circle cx="734" cy="1432" r="6" class="c0"/>
<circle cx="572" cy="1256" r="6" class="c0"/>
<circle cx="766" cy="470" r="6" class="c0"/>
<circle cx="630" cy="1400" r="6" class="c0"/>
<circle cx="694" cy="592" r="6" class="c0"/>
<circle cx="664" cy="914" r="6" class="c0"/>
<circle cx="856" cy="1332" r="6" class="c0"/>
<circle cx="584" cy="1136" r="6" class="c0"/>
<circle cx="654" cy="922" r="6" class="c0"/>
<circle cx="796" cy="520" r="6" class="c0"/>
<circle cx="758" cy="1168" r="6" class="c0"/>
</svg>
