<?xml version="1.0" encoding="utf-8"?>
<svg xmlns="http://www.w3.org/2000/svg"
     xmlns:xlink="http://www.w3.org/1999/xlink" width="1920" height="1440" >

            <defs>
            <style type="text/css"><![CDATA[
circle {stroke: none;}
.c0 {fill: #000000;}
]]></style>
            </defs>
<rect x="0" y="0" width="1920" height="1440" fill="white"/>
<circle cx="1146" cy="554" r="14" class="c0"/>
<circle cx="984" cy="518" r="12" class="c0"/>
<circle cx="1186" cy="816" r="12" class="c0"/>
<circle cx="1088" cy="592" r="12" class="c0"/>
<circle cx="970" cy="548" r="12" class="c0"/>
<circle cx="872" cy="718" r="12" class="c0"/>
<circle cx="1132" cy="752" r="12" class="c0"/>
<circle cx="862" cy="580" r="12" class="c0"/>
<circle cx="1254" cy="680" r="12" class="c0"/>
<circle cx="1092" cy="626" r="12" class="c0"/>
<circle cx="886" cy="866" r="12" class="c0"/>
<circle cx="950" cy="686" r="12" class="c0"/>
<circle cx="1064" cy="976" r="12" class="c0"/>
<circle cx="914" cy="956" r="12" class="c0"/>
<circle cx="1184" cy="684" r="12" class="c0"/>
<circle cx="836" cy="808" r="12" class="c0"/>
<circle cx="1014" cy="622" r="12" class="c0"/>
<circle cx="1060" cy="870" r="12" class="c0"/>
<circle cx="1086" cy="540" r="12" class="c0"/>
<circle cx="948" cy="954" r="12" class="c0"/>
<circle cx="956" cy="846" r="12" class="c0"/>
<circle cx="944" cy="790" r="12" class="c0"/>
<circle cx="964" cy="672" r="12" class="c0"/>
<circle cx="1112" cy="672" r="12" class="c0"/>
<circle cx="1140" cy="682" r="12" class="c0"/>
<circle cx="1098" cy="898" r="12" class="c0"/>
<circle cx="918" cy="910" r="12" class="c0"/>
<circle cx="1080" cy="828" r="12" class="c0"/>
<circle cx="1062" cy="662" r="12" class="c0"/>
<circle cx="1024" cy="904" r="12" class="c0"/>
<circle cx="948" cy="584" r="12" class="c0"/>
<circle cx="1200" cy="634" r="12" class="c0"/>
<circle cx="1156" cy="842" r="12" class="c0"/>
<circle cx="1008" cy="530" r="12" class="c0"/>
<circle cx="1200" cy="836" r="12" class="c0"/>
<circle cx="918" cy="752" r="12" class="c0"/>
<circle cx="1010" cy="558" r="12" class="c0"/>
<circle cx="1148" cy="924" r="12" class="c0"/>
<circle cx="916" cy="692" r="12" class="c0"/>
<circle cx="1210" cy="668" r="12" class="c0"/>
<circle cx="982" cy="772" r="12" class="c0"/>
<circle cx="1002" cy="704" r="10" class="c0"/>
<circle cx="1002" cy="986" r="10" class="c0"/>
<circle cx="1158" cy="632" r="10" class="c0"/>
<circle cx="886" cy="542" r="10" class="c0"/>
<circle cx="1020" cy="786" r="10" class="c0"/>
<circle cx="978" cy="590" r="10" class="c0"/>
<circle cx="1030" cy="732" r="10" class="c0"/>
<circle cx="1052" cy="566" r="10" class="c0"/>
<circle cx="1246" cy="790" r="10" class="c0"/>
<circle cx="1042" cy="680" r="10" class="c0"/>
<circle cx="1190" cy="734" r="10" class="c0"/>
<circle cx="1222" cy="572" r="10" class="c0"/>
<circle cx="950" cy="818" r="10" class="c0"/>
<circle cx="1244" cy="602" r="10" class="c0"/>
<circle cx="1212" cy="752" r="10" class="c0"/>
<circle cx="934" cy="836" r="10" class="c0"/>
<circle cx="920" cy="638" r="10" class="c0"/>
<circle cx="1134" cy="908" r="10" class="c0"/>
<circle cx="1020" cy="652" r="10" class="c0"/>
<circle cx="898" cy="586" r="10" class="c0"/>
<circle cx="942" cy="556" r="10" class="c0"/>
<circle cx="1188" cy="584" r="10" class="c0"/>
<circle cx="850" cy="626" r="10" class="c0"/>
<circle cx="1034" cy="820" r="10" class="c0"/>
<circle cx="994" cy="684" r="10" class="c0"/>
<circle cx="1068" cy="756" r="10" class="c0"/>
<circle cx="828" cy="572" r="10" class="c0"/>
<circle cx="1262" cy="766" r="10" class="c0"/>
<circle cx="1082" cy="734" r="10" class="c0"/>
<circle cx="1008" cy="816" r="10" class="c0"/>
<circle cx="898" cy="886" r="10" class="c0"/>
<circle cx="1152" cy="588" r="10" class="c0"/>
<circle cx="978" cy="918" r="10" class="c0"/>
<circle cx="1070" cy="610" r="10" class="c0"/>
<circle cx="866" cy="798" r="10" class="c0"/>
<circle cx="838" cy="726" r="10" class="c0"/>
<circle cx="1082" cy="694" r="10" class="c0"/>
<circle cx="840" cy="686" r="10" class="c0"/>
<circle cx="832" cy="894" r="10" class="c0"/>
<circle cx="908" cy="804" r="10" class="c0"/>
<circle cx="1116" cy="528" r="10" class="c0"/>
<circle cx="856" cy="736" r="10" class="c0"/>
<circle cx="1078" cy="948" r="10" class="c0"/>
<circle cx="1172" cy="940" r="10" class="c0"/>
<circle cx="842" cy="836" r="10" class="c0"/>
<circle cx="1088" cy="866" r="10" class="c0"/>
<circle cx="954" cy="516" r="10" class="c0"/>
<circle cx="856" cy="664" r="10" class="c0"/>
<circle cx="1104" cy="958" r="10" class="c0"/>
<circle cx="1230" cy="886" r="10" class="c0"/>
<circle cx="906" cy="514" r="10" class="c0"/>
<circle cx="1212" cy="912" r="10" class="c0"/>
<circle cx="1148" cy="954" r="10" class="c0"/>
<circle cx="1168" cy="906" r="10" class="c0"/>
<circle cx="1062" cy="788" r="10" class="c0"/>
<circle cx="1116" cy="554" r="10" class="c0"/>
<circle cx="920" cy="600" r="10" class="c0"/>
<circle cx="1194" cy="768" r="10" class="c0"/>
<circle cx="810" cy="754" r="10" class="c0"/>
<circle cx="1174" cy="602" r="10" class="c0"/>
<circle cx="858" cy="934" r="10" class="c0"/>
<circle cx="828" cy="768" r="10" class="c0"/>
<circle cx="984" cy="662" r="10" class="c0"/>
<circle cx="1240" cy="744" r="10" class="c0"/>
<circle cx="1044" cy="774" r="10" class="c0"/>
<circle cx="1198" cy="796" r="10" class="c0"/>
<circle cx="976" cy="732" r="10" class="c0"/>
<circle cx="1160" cy="702" r="10" class="c0"/>
<circle cx="1030" cy="872" r="10" class="c0"/>
<circle cx="1038" cy="534" r="10" class="c0"/>
<circle cx="1116" cy="770" r="10" class="c0"/>
<circle cx="814" cy="654" r="10" class="c0"/>
<circle cx="962" cy="618" r="10" class="c0"/>
<circle cx="854" cy="778" r="10" class="c0"/>
<circle cx="1014" cy="720" r="10" class="c0"/>
<circle cx="832" cy="862" r="10" class="c0"/>
<circle cx="1160" cy="754" r="10" class="c0"/>
<circle cx="896" cy="622" r="10" class="c0"/>
<circle cx="880" cy="830" r="10" class="c0"/>
<circle cx="1060" cy="586" r="10" class="c0"/>
<circle cx="1112" cy="852" r="10" class="c0"/>
<circle cx="1252" cy="840" r="10" class="c0"/>
<circle cx="1114" cy="618" r="10" class="c0"/>
<circle cx="1114" cy="698" r="10" class="c0"/>
<circle cx="1246" cy="706" r="10" class="c0"/>
<circle cx="988" cy="834" r="10" class="c0"/>
<circle cx="894" cy="750" r="10" class="c0"/>
<circle cx="1194" cy="880" r="10" class="c0"/>
<circle cx="1004" cy="740" r="10" class="c0"/>
<circle cx="900" cy="938" r="10" class="c0"/>
<circle cx="1242" cy="820" r="10" class="c0"/>
<circle cx="1140" cy="878" r="10" class="c0"/>
<circle cx="1124" cy="654" r="10" class="c0"/>
<circle cx="1008" cy="888" r="10" class="c0"/>
<circle cx="922" cy="662" r="10" class="c0"/>
<circle cx="1056" cy="928" r="10" class="c0"/>
<circle cx="854" cy="902" r="10" class="c0"/>
<circle cx="756" cy="760" r="10" class="c0"/>
<circle cx="1070" cy="720" r="10" class="c0"/>
<circle cx="1056" cy="832" r="10" class="c0"/>
<circle cx="1178" cy="552" r="10" class="c0"/>
<circle cx="1008" cy="762" r="10" class="c0"/>
<circle cx="950" cy="878" r="10" class="c0"/>
<circle cx="954" cy="982" r="10" class="c0"/>
<circle cx="942" cy="722" r="10" class="c0"/>
<circle cx="1086" cy="778" r="10" class="c0"/>
<circle cx="1122" cy="794" r="10" class="c0"/>
<circle cx="1202" cy="606" r="10" class="c0"/>
<circle cx="1054" cy="708" r="10" class="c0"/>
<circle cx="910" cy="826" r="10" class="c0"/>
<circle cx="1080" cy="886" r="10" class="c0"/>
<circle cx="950" cy="742" r="8" class="c0"/>
<circle cx="1228" cy="616" r="8" class="c0"/>
<circle cx="1128" cy="830" r="8" class="c0"/>
<circle cx="1140" cy="782" r="8" class="c0"/>
<circle cx="980" cy="980" r="8" class="c0"/>
<circle cx="1078" cy="912" r="8" class="c0"/>
<circle cx="1234" cy="866" r="8" class="c0"/>
<circle cx="1014" cy="688" r="8" class="c0"/>
<circle cx="886" cy="692" r="8" class="c0"/>
<circle cx="990" cy="966" r="8" class="c0"/>
<circle cx="944" cy="764" r="8" class="c0"/>
<circle cx="840" cy="592" r="8" class="c0"/>
<circle cx="1264" cy="828" r="8" class="c0"/>
<circle cx="1048" cy="950" r="8" class="c0"/>
<circle cx="918" cy="866" r="8" class="c0"/>
<circle cx="922" cy="536" r="8" class="c0"/>
<circle cx="868" cy="886" r="8" class="c0"/>
<circle cx="1138" cy="622" r="8" class="c0"/>
<circle cx="920" cy="558" r="8" class="c0"/>
<circle cx="1030" cy="850" r="8" class="c0"/>
<circle cx="1090" cy="568" r="8" class="c0"/>
<circle cx="896" cy="646" r="8" class="c0"/>
<circle cx="1066" cy="848" r="8" class="c0"/>
<circle cx="882" cy="788" r="8" class="c0"/>
<circle cx="854" cy="554" r="8" class="c0"/>
<circle cx="880" cy="936" r="8" class="c0"/>
<circle cx="882" cy="564" r="8" class="c0"/>
<circle cx="1046" cy="614" r="8" class="c0"/>
<circle cx="1098" cy="710" r="8" class="c0"/>
<circle cx="998" cy="920" r="8" class="c0"/>
<circle cx="1166" cy="654" r="8" class="c0"/>
<circle cx="990" cy="752" r="8" class="c0"/>
<circle cx="1054" cy="908" r="8" class="c0"/>
<circle cx="992" cy="860" r="8" class="c0"/>
<circle cx="856" cy="536" r="8" class="c0"/>
<circle cx="1144" cy="804" r="8" class="c0"/>
<circle cx="1168" cy="568" r="8" class="c0"/>
<circle cx="1166" cy="878" r="8" class="c0"/>
<circle cx="1130" cy="938" r="8" class="c0"/>
<circle cx="870" cy="754" r="8" class="c0"/>
<circle cx="1014" cy="934" r="8" class="c0"/>
<circle cx="1052" cy="746" r="8" class="c0"/>
<circle cx="1078" cy="514" r="8" class="c0"/>
<circle cx="1002" cy="588" r="8" class="c0"/>
<circle cx="1204" cy="720" r="8" class="c0"/>
<circle cx="1216" cy="780" r="8" class="c0"/>
<circle cx="900" cy="776" r="8" class="c0"/>
<circle cx="1038" cy="584" r="8" class="c0"/>
<circle cx="898" cy="838" r="8" class="c0"/>
<circle cx="936" cy="700" r="8" class="c0"/>
<circle cx="1162" cy="776" r="8" class="c0"/>
<circle cx="822" cy="628" r="8" class="c0"/>
<circle cx="1094" cy="808" r="8" class="c0"/>
<circle cx="850" cy="854" r="8" class="c0"/>
<circle cx="1180" cy="622" r="8" class="c0"/>
<circle cx="1000" cy="648" r="8" class="c0"/>
<circle cx="1238" cy="768" r="8" class="c0"/>
<circle cx="970" cy="812" r="8" class="c0"/>
<circle cx="806" cy="720" r="8" class="c0"/>
<circle cx="962" cy="762" r="8" class="c0"/>
<circle cx="1226" cy="640" r="8" class="c0"/>
<circle cx="982" cy="642" r="8" class="c0"/>
<circle cx="1108" cy="832" r="8" class="c0"/>
<circle cx="960" cy="710" r="8" class="c0"/>
<circle cx="992" cy="546" r="8" class="c0"/>
<circle cx="822" cy="794" r="8" class="c0"/>
<circle cx="988" cy="878" r="8" class="c0"/>
<circle cx="928" cy="936" r="8" class="c0"/>
<circle cx="1020" cy="590" r="8" class="c0"/>
<circle cx="1022" cy="516" r="8" class="c0"/>
<circle cx="1260" cy="656" r="8" class="c0"/>
<circle cx="1128" cy="570" r="8" class="c0"/>
<circle cx="1038" cy="936" r="8" class="c0"/>
<circle cx="884" cy="666" r="8" class="c0"/>
<circle cx="1108" cy="726" r="8" class="c0"/>
<circle cx="882" cy="918" r="8" class="c0"/>
<circle cx="992" cy="804" r="8" class="c0"/>
<circle cx="1126" cy="864" r="8" class="c0"/>
<circle cx="1018" cy="832" r="8" class="c0"/>
<circle cx="1008" cy="498" r="8" class="c0"/>
<circle cx="1042" cy="968" r="8" class="c0"/>
<circle cx="1010" cy="854" r="8" class="c0"/>
<circle cx="1020" cy="970" r="8" class="c0"/>
<circle cx="884" cy="598" r="8" class="c0"/>
<circle cx="1042" cy="640" r="8" class="c0"/>
<circle cx="916" cy="722" r="8" class="c0"/>
<circle cx="1030" cy="668" r="8" class="c0"/>
<circle cx="976" cy="940" r="8" class="c0"/>
<circle cx="1224" cy="840" r="8" class="c0"/>
<circle cx="954" cy="908" r="8" class="c0"/>
<circle cx="976" cy="898" r="8" class="c0"/>
<circle cx="1196" cy="858" r="8" class="c0"/>
<circle cx="1158" cy="722" r="8" class="c0"/>
<circle cx="1172" cy="796" r="8" class="c0"/>
<circle cx="1160" cy="814" r="8" class="c0"/>
<circle cx="890" cy="956" r="8" class="c0"/>
<circle cx="1154" cy="612" r="8" class="c0"/>
<circle cx="1252" cy="634" r="8" class="c0"/>
<circle cx="858" cy="702" r="8" class="c0"/>
<circle cx="1110" cy="930" r="8" class="c0"/>
<circle cx="904" cy="732" r="8" class="c0"/>
<circle cx="930" cy="982" r="8" class="c0"/>
<circle cx="1232" cy="722" r="8" class="c0"/>
<circle cx="1088" cy="974" r="8" class="c0"/>
<circle cx="818" cy="606" r="8" class="c0"/>
<circle cx="872" cy="614" r="8" class="c0"/>
<circle cx="1016" cy="952" r="8" class="c0"/>
<circle cx="942" cy="612" r="8" class="c0"/>
<circle cx="1084" cy="646" r="8" class="c0"/>
<circle cx="1064" cy="528" r="8" class="c0"/>
<circle cx="844" cy="750" r="8" class="c0"/>
<circle cx="1180" cy="642" r="8" class="c0"/>
<circle cx="780" cy="766" r="8" class="c0"/>
<circle cx="1146" cy="650" r="8" class="c0"/>
<circle cx="942" cy="658" r="8" class="c0"/>
<circle cx="936" cy="524" r="8" class="c0"/>
<circle cx="1156" cy="670" r="8" class="c0"/>
<circle cx="1176" cy="888" r="8" class="c0"/>
<circle cx="992" cy="628" r="8" class="c0"/>
<circle cx="1222" cy="698" r="8" class="c0"/>
<circle cx="1000" cy="784" r="8" class="c0"/>
<circle cx="1190" cy="660" r="8" class="c0"/>
<circle cx="1190" cy="916" r="8" class="c0"/>
<circle cx="838" cy="646" r="8" class="c0"/>
<circle cx="1204" cy="556" r="8" class="c0"/>
<circle cx="1236" cy="666" r="8" class="c0"/>
<circle cx="940" cy="926" r="8" class="c0"/>
<circle cx="992" cy="574" r="8" class="c0"/>
<circle cx="1100" cy="654" r="8" class="c0"/>
<circle cx="1122" cy="594" r="8" class="c0"/>
<circle cx="976" cy="692" r="8" class="c0"/>
<circle cx="1196" cy="704" r="8" class="c0"/>
<circle cx="932" cy="572" r="8" class="c0"/>
<circle cx="842" cy="922" r="8" class="c0"/>
<circle cx="1180" cy="756" r="8" class="c0"/>
<circle cx="1092" cy="752" r="8" class="c0"/>
<circle cx="1098" cy="518" r="8" class="c0"/>
<circle cx="874" cy="644" r="8" class="c0"/>
<circle cx="964" cy="638" r="8" class="c0"/>
<circle cx="922" cy="888" r="8" class="c0"/>
<circle cx="1084" cy="798" r="8" class="c0"/>
<circle cx="1090" cy="668" r="8" class="c0"/>
<circle cx="864" cy="864" r="8" class="c0"/>
<circle cx="1214" cy="820" r="8" class="c0"/>
<circle cx="806" cy="690" r="8" class="c0"/>
<circle cx="1042" cy="802" r="8" class="c0"/>
<circle cx="990" cy="604" r="8" class="c0"/>
<circle cx="1044" cy="514" r="8" class="c0"/>
<circle cx="1032" cy="500" r="8" class="c0"/>
<circle cx="820" cy="676" r="8" class="c0"/>
<circle cx="1222" cy="798" r="8" class="c0"/>
<circle cx="1036" cy="756" r="8" class="c0"/>
<circle cx="832" cy="664" r="8" class="c0"/>
<circle cx="1218" cy="592" r="8" class="c0"/>
<circle cx="822" cy="740" r="8" class="c0"/>
<circle cx="1052" cy="812" r="8" class="c0"/>
<circle cx="884" cy="734" r="8" class="c0"/>
<circle cx="1130" cy="720" r="8" class="c0"/>
<circle cx="856" cy="604" r="8" class="c0"/>
<circle cx="1154" cy="794" r="8" class="c0"/>
<circle cx="964" cy="966" r="8" class="c0"/>
<circle cx="866" cy="682" r="8" class="c0"/>
<circle cx="1174" cy="854" r="8" class="c0"/>
<circle cx="1216" cy="870" r="8" class="c0"/>
<circle cx="896" cy="710" r="8" class="c0"/>
<circle cx="1272" cy="810" r="8" class="c0"/>
<circle cx="1142" cy="730" r="8" class="c0"/>
<circle cx="1186" cy="898" r="8" class="c0"/>
<circle cx="1106" cy="578" r="8" class="c0"/>
<circle cx="1032" cy="696" r="8" class="c0"/>
<circle cx="1138" cy="526" r="8" class="c0"/>
<circle cx="846" cy="874" r="8" class="c0"/>
<circle cx="1152" cy="890" r="8" class="c0"/>
<circle cx="732" cy="762" r="8" class="c0"/>
<circle cx="966" cy="500" r="8" class="c0"/>
<circle cx="1164" cy="536" r="8" class="c0"/>
<circle cx="1154" cy="864" r="8" class="c0"/>
<circle cx="820" cy="710" r="8" class="c0"/>
<circle cx="928" cy="734" r="8" class="c0"/>
<circle cx="1110" cy="640" r="8" class="c0"/>
<circle cx="1054" cy="502" r="8" class="c0"/>
<circle cx="1258" cy="874" r="8" class="c0"/>
<circle cx="886" cy="898" r="8" class="c0"/>
<circle cx="904" cy="670" r="8" class="c0"/>
<circle cx="904" cy="974" r="8" class="c0"/>
<circle cx="1090" cy="924" r="8" class="c0"/>
<circle cx="1066" cy="552" r="8" class="c0"/>
<circle cx="854" cy="824" r="8" class="c0"/>
<circle cx="1030" cy="568" r="8" class="c0"/>
<circle cx="860" cy="844" r="8" class="c0"/>
<circle cx="822" cy="822" r="8" class="c0"/>
<circle cx="870" cy="946" r="8" class="c0"/>
<circle cx="1114" cy="814" r="8" class="c0"/>
<circle cx="1056" cy="624" r="8" class="c0"/>
<circle cx="904" cy="534" r="8" class="c0"/>
<circle cx="1112" cy="876" r="8" class="c0"/>
<circle cx="936" cy="504" r="8" class="c0"/>
<circle cx="1066" cy="898" r="8" class="c0"/>
<circle cx="1182" cy="716" r="8" class="c0"/>
<circle cx="960" cy="568" r="8" class="c0"/>
<circle cx="1220" cy="732" r="8" class="c0"/>
<circle cx="958" cy="932" r="8" class="c0"/>
<circle cx="1260" cy="746" r="8" class="c0"/>
<circle cx="968" cy="794" r="8" class="c0"/>
<circle cx="1174" cy="832" r="8" class="c0"/>
<circle cx="838" cy="612" r="8" class="c0"/>
<circle cx="1066" cy="634" r="8" class="c0"/>
<circle cx="1226" cy="680" r="8" class="c0"/>
<circle cx="1120" cy="894" r="8" class="c0"/>
<circle cx="974" cy="856" r="8" class="c0"/>
<circle cx="912" cy="574" r="8" class="c0"/>
<circle cx="1124" cy="956" r="8" class="c0"/>
<circle cx="908" cy="852" r="8" class="c0"/>
<circle cx="1062" cy="690" r="8" class="c0"/>
<circle cx="1048" cy="888" r="8" class="c0"/>
<circle cx="1000" cy="944" r="8" class="c0"/>
<circle cx="926" cy="772" r="8" class="c0"/>
<circle cx="930" cy="806" r="8" class="c0"/>
<circle cx="740" cy="742" r="8" class="c0"/>
<circle cx="1262" cy="718" r="8" class="c0"/>
<circle cx="902" cy="564" r="8" class="c0"/>
<circle cx="888" cy="812" r="8" class="c0"/>
<circle cx="952" cy="536" r="8" class="c0"/>
<circle cx="1232" cy="906" r="8" class="c0"/>
<circle cx="944" cy="640" r="8" class="c0"/>
<circle cx="932" cy="622" r="8" class="c0"/>
<circle cx="1136" cy="640" r="8" class="c0"/>
<circle cx="884" cy="768" r="8" class="c0"/>
<circle cx="1070" cy="808" r="8" class="c0"/>
<circle cx="822" cy="844" r="8" class="c0"/>
<circle cx="1030" cy="984" r="8" class="c0"/>
<circle cx="1118" cy="738" r="8" class="c0"/>
<circle cx="994" cy="724" r="8" class="c0"/>
<circle cx="940" cy="894" r="8" class="c0"/>
<circle cx="970" cy="880" r="8" class="c0"/>
<circle cx="1102" cy="788" r="8" class="c0"/>
<circle cx="1274" cy="778" r="8" class="c0"/>
<circle cx="936" cy="864" r="8" class="c0"/>
<circle cx="1042" cy="860" r="8" class="c0"/>
<circle cx="874" cy="526" r="8" class="c0"/>
<circle cx="918" cy="788" r="6" class="c0"/>
<circle cx="984" cy="712" r="6" class="c0"/>
<circle cx="1254" cy="808" r="6" class="c0"/>
<circle cx="1100" cy="688" r="6" class="c0"/>
<circle cx="836" cy="556" r="6" class="c0"/>
<circle cx="934" cy="966" r="6" class="c0"/>
<circle cx="1210" cy="894" r="6" class="c0"/>
<circle cx="1184" cy="782" r="6" class="c0"/>
<circle cx="998" cy="902" r="6" class="c0"/>
<circle cx="1036" cy="918" r="6" class="c0"/>
<circle cx="1206" cy="580" r="6" class="c0"/>
<circle cx="1224" cy="656" r="6" class="c0"/>
<circle cx="1096" cy="940" r="6" class="c0"/>
<circle cx="1236" cy="850" r="6" class="c0"/>
<circle cx="1076" cy="676" r="6" class="c0"/>
<circle cx="1212" cy="850" r="6" class="c0"/>
<circle cx="1136" cy="844" r="6" class="c0"/>
<circle cx="1190" cy="934" r="6" class="c0"/>
<circle cx="842" cy="706" r="6" class="c0"/>
<circle cx="798" cy="768" r="6" class="c0"/>
<circle cx="962" cy="598" r="6" class="c0"/>
<circle cx="1260" cy="856" r="6" class="c0"/>
<circle cx="1204" cy="690" r="6" class="c0"/>
<circle cx="1036" cy="624" r="6" class="c0"/>
<circle cx="1098" cy="842" r="6" class="c0"/>
<circle cx="1134" cy="814" r="6" class="c0"/>
<circle cx="872" cy="906" r="6" class="c0"/>
<circle cx="1026" cy="766" r="6" class="c0"/>
<circle cx="1240" cy="650" r="6" class="c0"/>
<circle cx="896" cy="908" r="6" class="c0"/>
<circle cx="1134" cy="606" r="6" class="c0"/>
<circle cx="872" cy="552" r="6" class="c0"/>
<circle cx="1236" cy="690" r="6" class="c0"/>
<circle cx="932" cy="678" r="6" class="c0"/>
<circle cx="1076" cy="578" r="6" class="c0"/>
<circle cx="926" cy="514" r="6" class="c0"/>
<circle cx="846" cy="568" r="6" class="c0"/>
<circle cx="1008" cy="670" r="6" class="c0"/>
<circle cx="1148" cy="824" r="6" class="c0"/>
<circle cx="878" cy="848" r="6" class="c0"/>
<circle cx="1106" cy="602" r="6" class="c0"/>
<circle cx="1242" cy="624" r="6" class="c0"/>
<circle cx="980" cy="616" r="6" class="c0"/>
<circle cx="1250" cy="728" r="6" class="c0"/>
<circle cx="970" cy="832" r="6" class="c0"/>
<circle cx="1266" cy="792" r="6" class="c0"/>
<circle cx="888" cy="516" r="6" class="c0"/>
<circle cx="1172" cy="736" r="6" class="c0"/>
<circle cx="972" cy="752" r="6" class="c0"/>
<circle cx="1028" cy="604" r="6" class="c0"/>
<circle cx="1056" cy="730" r="6" class="c0"/>
<circle cx="822" cy="590" r="6" class="c0"/>
<circle cx="822" cy="878" r="6" class="c0"/>
<circle cx="810" cy="774" r="6" class="c0"/>
<circle cx="1140" cy="706" r="6" class="c0"/>
<circle cx="926" cy="710" r="6" class="c0"/>
<circle cx="1234" cy="586" r="6" class="c0"/>
<circle cx="1024" cy="804" r="6" class="c0"/>
<circle cx="1128" cy="540" r="6" class="c0"/>
<circle cx="1030" cy="712" r="6" class="c0"/>
<circle cx="916" cy="620" r="6" class="c0"/>
<circle cx="858" cy="642" r="6" class="c0"/>
<circle cx="900" cy="604" r="6" class="c0"/>
<circle cx="864" cy="916" r="6" class="c0"/>
<circle cx="1022" cy="542" r="6" class="c0"/>
<circle cx="790" cy="756" r="6" class="c0"/>
<circle cx="1120" cy="918" r="6" class="c0"/>
<circle cx="1036" cy="552" r="6" class="c0"/>
<circle cx="1050" cy="546" r="6" class="c0"/>
<circle cx="1022" cy="748" r="6" class="c0"/>
<circle cx="960" cy="780" r="6" class="c0"/>
<circle cx="1146" cy="766" r="6" class="c0"/>
<circle cx="1270" cy="690" r="6" class="c0"/>
<circle cx="978" cy="566" r="6" class="c0"/>
<circle cx="1212" cy="648" r="6" class="c0"/>
<circle cx="1012" cy="870" r="6" class="c0"/>
<circle cx="822" cy="692" r="6" class="c0"/>
<circle cx="836" cy="784" r="6" class="c0"/>
<circle cx="980" cy="956" r="6" class="c0"/>
<circle cx="1010" cy="602" r="6" class="c0"/>
<circle cx="986" cy="498" r="6" class="c0"/>
<circle cx="1174" cy="668" r="6" class="c0"/>
<circle cx="1032" cy="954" r="6" class="c0"/>
<circle cx="1212" cy="620" r="6" class="c0"/>
<circle cx="1108" cy="750" r="6" class="c0"/>
<circle cx="1112" cy="910" r="6" class="c0"/>
<circle cx="1074" cy="930" r="6" class="c0"/>
<circle cx="1042" cy="720" r="6" class="c0"/>
<circle cx="808" cy="636" r="6" class="c0"/>
<circle cx="884" cy="634" r="6" class="c0"/>
<circle cx="966" cy="528" r="6" class="c0"/>
<circle cx="902" cy="920" r="6" class="c0"/>
<circle cx="924" cy="850" r="6" class="c0"/>
<circle cx="830" cy="700" r="6" class="c0"/>
<circle cx="842" cy="544" r="6" class="c0"/>
<circle cx="1254" cy="616" r="6" class="c0"/>
<circle cx="1190" cy="564" r="6" class="c0"/>
<circle cx="1248" cy="884" r="6" class="c0"/>
<circle cx="772" cy="742" r="6" class="c0"/>
<circle cx="1180" cy="870" r="6" class="c0"/>
<circle cx="868" cy="816" r="6" class="c0"/>
<circle cx="1204" cy="928" r="6" class="c0"/>
<circle cx="1040" cy="658" r="6" class="c0"/>
<circle cx="1128" cy="516" r="6" class="c0"/>
<circle cx="1006" cy="962" r="6" class="c0"/>
<circle cx="1086" cy="848" r="6" class="c0"/>
<circle cx="968" cy="992" r="6" class="c0"/>
<circle cx="1040" cy="840" r="6" class="c0"/>
<circle cx="1048" cy="986" r="6" class="c0"/>
<circle cx="962" cy="866" r="6" class="c0"/>
<circle cx="1114" cy="972" r="6" class="c0"/>
<circle cx="1028" cy="926" r="6" class="c0"/>
<circle cx="800" cy="738" r="6" class="c0"/>
<circle cx="1134" cy="966" r="6" class="c0"/>
</svg>
