<?xml version="1.0" encoding="utf-8"?>
<svg xmlns="http://www.w3.org/2000/svg"
     xmlns:xlink="http://www.w3.org/1999/xlink" width="1920" height="1440" >

            <defs>
            <style type="text/css"><![CDATA[
circle {stroke: none;}
.c0 {fill: #000000;}
]]></style>
            </defs>
<rect x="0" y="0" width="1920" height="1440" fill="white"/>
<circle cx="576" cy="1326" r="14" class="c0"/>
<circle cx="530" cy="1390" r="12" class="c0"/>
<circle cx="554" cy="1280" r="12" class="c0"/>
<circle cx="722" cy="1260" r="12" class="c0"/>
<circle cx="764" cy="1036" r="12" class="c0"/>
<circle cx="646" cy="1076" r="12" class="c0"/>
<circle cx="556" cy="984" r="12" class="c0"/>
<circle cx="600" cy="780" r="12" class="c0"/>
<circle cx="602" cy="730" r="12" class="c0"/>
<circle cx="590" cy="852" r="12" class="c0"/>
<circle cx="728" cy="328" r="12" class="c0"/>
<circle cx="772" cy="444" r="12" class="c0"/>
<circle cx="686" cy="850" r="12" class="c0"/>
<circle cx="566" cy="1210" r="12" class="c0"/>
<circle cx="748" cy="1078" r="12" class="c0"/>
<circle cx="820" cy="1414" r="12" class="c0"/>
<circle cx="574" cy="1256" r="12" class="c0"/>
<circle cx="640" cy="1196" r="12" class="c0"/>
<circle cx="760" cy="1312" r="12" class="c0"/>
<circle cx="696" cy="350" r="12" class="c0"/>
<circle cx="626" cy="1020" r="12" class="c0"/>
<circle cx="572" cy="970" r="12" class="c0"/>
<circle cx="716" cy="1056" r="12" class="c0"/>
<circle cx="594" cy="1400" r="12" class="c0"/>
<circle cx="664" cy="938" r="12" class="c0"/>
<circle cx="608" cy="904" r="12" class="c0"/>
<circle cx="704" cy="966" r="12" class="c0"/>
<circle cx="598" cy="1028" r="12" class="c0"/>
<circle cx="558" cy="1144" r="12" class="c0"/>
<circle cx="692" cy="1044" r="12" class="c0"/>
<circle cx="574" cy="628" r="12" class="c0"/>
<circle cx="662" cy="742" r="12" class="c0"/>
<circle cx="570" cy="1044" r="12" class="c0"/>
<circle cx="624" cy="936" r="12" class="c0"/>
<circle cx="752" cy="1420" r="12" class="c0"/>
<circle cx="758" cy="1230" r="12" class="c0"/>
<circle cx="564" cy="902" r="12" class="c0"/>
<circle cx="656" cy="1278" r="12" class="c0"/>
<circle cx="618" cy="1234" r="12" class="c0"/>
<circle cx="528" cy="1164" r="12" class="c0"/>
<circle cx="684" cy="1254" r="12" class="c0"/>
<circle cx="622" cy="1066" r="12" class="c0"/>
<circle cx="708" cy="1000" r="12" class="c0"/>
<circle cx="648" cy="628" r="12" class="c0"/>
<circle cx="718" cy="490" r="12" class="c0"/>
<circle cx="698" cy="1108" r="12" class="c0"/>
<circle cx="712" cy="1152" r="12" class="c0"/>
<circle cx="598" cy="336" r="12" class="c0"/>
<circle cx="780" cy="1120" r="12" class="c0"/>
<circle cx="514" cy="1106" r="12" class="c0"/>
<circle cx="580" cy="1422" r="12" class="c0"/>
<circle cx="530" cy="1020" r="12" class="c0"/>
<circle cx="524" cy="1422" r="10" class="c0"/>
<circle cx="662" cy="1046" r="10" class="c0"/>
<circle cx="592" cy="662" r="10" class="c0"/>
<circle cx="640" cy="728" r="10" class="c0"/>
<circle cx="530" cy="1292" r="10" class="c0"/>
<circle cx="596" cy="1248" r="10" class="c0"/>
<circle cx="666" cy="312" r="10" class="c0"/>
<circle cx="694" cy="604" r="10" class="c0"/>
<circle cx="652" cy="1378" r="10" class="c0"/>
<circle cx="620" cy="584" r="10" class="c0"/>
<circle cx="786" cy="1334" r="10" class="c0"/>
<circle cx="646" cy="544" r="10" class="c0"/>
<circle cx="706" cy="566" r="10" class="c0"/>
<circle cx="652" cy="384" r="10" class="c0"/>
<circle cx="544" cy="938" r="10" class="c0"/>
<circle cx="586" cy="1294" r="10" class="c0"/>
<circle cx="774" cy="1058" r="10" class="c0"/>
<circle cx="726" cy="394" r="10" class="c0"/>
<circle cx="658" cy="436" r="10" class="c0"/>
<circle cx="672" cy="898" r="10" class="c0"/>
<circle cx="576" cy="762" r="10" class="c0"/>
<circle cx="606" cy="1164" r="10" class="c0"/>
<circle cx="586" cy="934" r="10" class="c0"/>
<circle cx="776" cy="1250" r="10" class="c0"/>
<circle cx="732" cy="1322" r="10" class="c0"/>
<circle cx="734" cy="896" r="10" class="c0"/>
<circle cx="634" cy="1134" r="10" class="c0"/>
<circle cx="642" cy="812" r="10" class="c0"/>
<circle cx="786" cy="1420" r="10" class="c0"/>
<circle cx="698" cy="1368" r="10" class="c0"/>
<circle cx="664" cy="1150" r="10" class="c0"/>
<circle cx="670" cy="1390" r="10" class="c0"/>
<circle cx="762" cy="1366" r="10" class="c0"/>
<circle cx="530" cy="994" r="10" class="c0"/>
<circle cx="584" cy="1180" r="10" class="c0"/>
<circle cx="706" cy="790" r="10" class="c0"/>
<circle cx="564" cy="1362" r="10" class="c0"/>
<circle cx="642" cy="1230" r="10" class="c0"/>
<circle cx="724" cy="1204" r="10" class="c0"/>
<circle cx="504" cy="1364" r="10" class="c0"/>
<circle cx="640" cy="1306" r="10" class="c0"/>
<circle cx="624" cy="436" r="10" class="c0"/>
<circle cx="706" cy="1082" r="10" class="c0"/>
<circle cx="594" cy="1106" r="10" class="c0"/>
<circle cx="650" cy="846" r="10" class="c0"/>
<circle cx="538" cy="1196" r="10" class="c0"/>
<circle cx="752" cy="1150" r="10" class="c0"/>
<circle cx="654" cy="574" r="10" class="c0"/>
<circle cx="670" cy="1104" r="10" class="c0"/>
<circle cx="770" cy="1164" r="10" class="c0"/>
<circle cx="554" cy="1388" r="10" class="c0"/>
<circle cx="778" cy="1210" r="10" class="c0"/>
<circle cx="746" cy="1282" r="10" class="c0"/>
<circle cx="532" cy="1226" r="10" class="c0"/>
<circle cx="750" cy="928" r="10" class="c0"/>
<circle cx="752" cy="1122" r="10" class="c0"/>
<circle cx="604" cy="1332" r="10" class="c0"/>
<circle cx="500" cy="1280" r="10" class="c0"/>
<circle cx="700" cy="702" r="10" class="c0"/>
<circle cx="742" cy="960" r="10" class="c0"/>
<circle cx="626" cy="1102" r="10" class="c0"/>
<circle cx="766" cy="1136" r="10" class="c0"/>
<circle cx="806" cy="1384" r="10" class="c0"/>
<circle cx="726" cy="428" r="10" class="c0"/>
<circle cx="628" cy="1264" r="10" class="c0"/>
<circle cx="620" cy="704" r="10" class="c0"/>
<circle cx="812" cy="1348" r="10" class="c0"/>
<circle cx="658" cy="768" r="10" class="c0"/>
<circle cx="764" cy="384" r="10" class="c0"/>
<circle cx="782" cy="1180" r="10" class="c0"/>
<circle cx="562" cy="1172" r="10" class="c0"/>
<circle cx="716" cy="1292" r="10" class="c0"/>
<circle cx="652" cy="876" r="10" class="c0"/>
<circle cx="610" cy="404" r="10" class="c0"/>
<circle cx="670" cy="616" r="10" class="c0"/>
<circle cx="700" cy="834" r="10" class="c0"/>
<circle cx="642" cy="700" r="10" class="c0"/>
<circle cx="670" cy="1014" r="10" class="c0"/>
<circle cx="610" cy="604" r="10" class="c0"/>
<circle cx="738" cy="382" r="10" class="c0"/>
<circle cx="690" cy="1416" r="10" class="c0"/>
<circle cx="622" cy="672" r="10" class="c0"/>
<circle cx="704" cy="1238" r="10" class="c0"/>
<circle cx="708" cy="458" r="10" class="c0"/>
<circle cx="558" cy="1010" r="10" class="c0"/>
<circle cx="636" cy="1330" r="10" class="c0"/>
<circle cx="686" cy="1126" r="10" class="c0"/>
<circle cx="694" cy="386" r="10" class="c0"/>
<circle cx="700" cy="654" r="10" class="c0"/>
<circle cx="628" cy="384" r="10" class="c0"/>
<circle cx="704" cy="1316" r="10" class="c0"/>
<circle cx="588" cy="998" r="10" class="c0"/>
<circle cx="658" cy="1414" r="10" class="c0"/>
<circle cx="636" cy="526" r="10" class="c0"/>
<circle cx="708" cy="880" r="10" class="c0"/>
<circle cx="754" cy="1202" r="10" class="c0"/>
<circle cx="662" cy="800" r="10" class="c0"/>
<circle cx="760" cy="982" r="10" class="c0"/>
<circle cx="660" cy="914" r="10" class="c0"/>
<circle cx="774" cy="1016" r="10" class="c0"/>
<circle cx="548" cy="1060" r="10" class="c0"/>
<circle cx="690" cy="1222" r="10" class="c0"/>
<circle cx="588" cy="894" r="10" class="c0"/>
<circle cx="538" cy="1322" r="10" class="c0"/>
<circle cx="496" cy="1302" r="10" class="c0"/>
<circle cx="608" cy="638" r="10" class="c0"/>
<circle cx="608" cy="1186" r="10" class="c0"/>
<circle cx="582" cy="1232" r="10" class="c0"/>
<circle cx="718" cy="746" r="10" class="c0"/>
<circle cx="662" cy="410" r="10" class="c0"/>
<circle cx="688" cy="628" r="10" class="c0"/>
<circle cx="760" cy="1266" r="10" class="c0"/>
<circle cx="688" cy="530" r="10" class="c0"/>
<circle cx="730" cy="702" r="10" class="c0"/>
<circle cx="608" cy="1086" r="10" class="c0"/>
<circle cx="728" cy="1364" r="10" class="c0"/>
<circle cx="738" cy="466" r="10" class="c0"/>
<circle cx="686" cy="1156" r="10" class="c0"/>
<circle cx="784" cy="1290" r="8" class="c0"/>
<circle cx="722" cy="644" r="8" class="c0"/>
<circle cx="640" cy="426" r="8" class="c0"/>
<circle cx="684" cy="424" r="8" class="c0"/>
<circle cx="612" cy="1006" r="8" class="c0"/>
<circle cx="722" cy="832" r="8" class="c0"/>
<circle cx="578" cy="1158" r="8" class="c0"/>
<circle cx="616" cy="848" r="8" class="c0"/>
<circle cx="794" cy="1196" r="8" class="c0"/>
<circle cx="728" cy="360" r="8" class="c0"/>
<circle cx="718" cy="686" r="8" class="c0"/>
<circle cx="584" cy="1084" r="8" class="c0"/>
<circle cx="670" cy="352" r="8" class="c0"/>
<circle cx="604" cy="566" r="8" class="c0"/>
<circle cx="784" cy="1366" r="8" class="c0"/>
<circle cx="514" cy="1210" r="8" class="c0"/>
<circle cx="676" cy="370" r="8" class="c0"/>
<circle cx="708" cy="532" r="8" class="c0"/>
<circle cx="710" cy="1126" r="8" class="c0"/>
<circle cx="742" cy="440" r="8" class="c0"/>
<circle cx="632" cy="1392" r="8" class="c0"/>
<circle cx="660" cy="1342" r="8" class="c0"/>
<circle cx="684" cy="876" r="8" class="c0"/>
<circle cx="624" cy="616" r="8" class="c0"/>
<circle cx="654" cy="344" r="8" class="c0"/>
<circle cx="666" cy="684" r="8" class="c0"/>
<circle cx="628" cy="470" r="8" class="c0"/>
<circle cx="586" cy="742" r="8" class="c0"/>
<circle cx="706" cy="768" r="8" class="c0"/>
<circle cx="692" cy="1394" r="8" class="c0"/>
<circle cx="582" cy="310" r="8" class="c0"/>
<circle cx="680" cy="564" r="8" class="c0"/>
<circle cx="516" cy="1054" r="8" class="c0"/>
<circle cx="652" cy="664" r="8" class="c0"/>
<circle cx="696" cy="808" r="8" class="c0"/>
<circle cx="682" cy="1080" r="8" class="c0"/>
<circle cx="646" cy="1118" r="8" class="c0"/>
<circle cx="564" cy="802" r="8" class="c0"/>
<circle cx="726" cy="546" r="8" class="c0"/>
<circle cx="624" cy="314" r="8" class="c0"/>
<circle cx="574" cy="1068" r="8" class="c0"/>
<circle cx="592" cy="704" r="8" class="c0"/>
<circle cx="696" cy="488" r="8" class="c0"/>
<circle cx="670" cy="486" r="8" class="c0"/>
<circle cx="542" cy="1248" r="8" class="c0"/>
<circle cx="486" cy="1420" r="8" class="c0"/>
<circle cx="532" cy="1130" r="8" class="c0"/>
<circle cx="642" cy="1156" r="8" class="c0"/>
<circle cx="702" cy="304" r="8" class="c0"/>
<circle cx="684" cy="502" r="8" class="c0"/>
<circle cx="662" cy="966" r="8" class="c0"/>
<circle cx="636" cy="966" r="8" class="c0"/>
<circle cx="728" cy="1168" r="8" class="c0"/>
<circle cx="670" cy="540" r="8" class="c0"/>
<circle cx="776" cy="416" r="8" class="c0"/>
<circle cx="696" cy="730" r="8" class="c0"/>
<circle cx="622" cy="762" r="8" class="c0"/>
<circle cx="688" cy="1296" r="8" class="c0"/>
<circle cx="500" cy="1180" r="8" class="c0"/>
<circle cx="734" cy="1114" r="8" class="c0"/>
<circle cx="588" cy="1270" r="8" class="c0"/>
<circle cx="724" cy="1408" r="8" class="c0"/>
<circle cx="616" cy="824" r="8" class="c0"/>
<circle cx="736" cy="1018" r="8" class="c0"/>
<circle cx="614" cy="972" r="8" class="c0"/>
<circle cx="704" cy="1192" r="8" class="c0"/>
<circle cx="594" cy="1064" r="8" class="c0"/>
<circle cx="628" cy="1374" r="8" class="c0"/>
<circle cx="634" cy="896" r="8" class="c0"/>
<circle cx="506" cy="1230" r="8" class="c0"/>
<circle cx="698" cy="940" r="8" class="c0"/>
<circle cx="566" cy="872" r="8" class="c0"/>
<circle cx="638" cy="860" r="8" class="c0"/>
<circle cx="740" cy="1340" r="8" class="c0"/>
<circle cx="520" cy="1276" r="8" class="c0"/>
<circle cx="620" cy="806" r="8" class="c0"/>
<circle cx="726" cy="666" r="8" class="c0"/>
<circle cx="704" cy="514" r="8" class="c0"/>
<circle cx="504" cy="1428" r="8" class="c0"/>
<circle cx="558" cy="926" r="8" class="c0"/>
<circle cx="700" cy="912" r="8" class="c0"/>
<circle cx="644" cy="790" r="8" class="c0"/>
<circle cx="724" cy="1028" r="8" class="c0"/>
<circle cx="674" cy="390" r="8" class="c0"/>
<circle cx="576" cy="352" r="8" class="c0"/>
<circle cx="514" cy="1322" r="8" class="c0"/>
<circle cx="608" cy="866" r="8" class="c0"/>
<circle cx="744" cy="1176" r="8" class="c0"/>
<circle cx="604" cy="984" r="8" class="c0"/>
<circle cx="634" cy="1000" r="8" class="c0"/>
<circle cx="662" cy="1200" r="8" class="c0"/>
<circle cx="668" cy="1170" r="8" class="c0"/>
<circle cx="554" cy="1312" r="8" class="c0"/>
<circle cx="678" cy="780" r="8" class="c0"/>
<circle cx="598" cy="382" r="8" class="c0"/>
<circle cx="810" cy="1296" r="8" class="c0"/>
<circle cx="704" cy="326" r="8" class="c0"/>
<circle cx="586" cy="1130" r="8" class="c0"/>
<circle cx="720" cy="912" r="8" class="c0"/>
<circle cx="628" cy="566" r="8" class="c0"/>
<circle cx="666" cy="714" r="8" class="c0"/>
<circle cx="568" cy="838" r="8" class="c0"/>
<circle cx="644" cy="314" r="8" class="c0"/>
<circle cx="506" cy="1340" r="8" class="c0"/>
<circle cx="730" cy="974" r="8" class="c0"/>
<circle cx="756" cy="402" r="8" class="c0"/>
<circle cx="538" cy="1110" r="8" class="c0"/>
<circle cx="802" cy="1248" r="8" class="c0"/>
<circle cx="614" cy="516" r="8" class="c0"/>
<circle cx="684" cy="446" r="8" class="c0"/>
<circle cx="542" cy="896" r="8" class="c0"/>
<circle cx="538" cy="1076" r="8" class="c0"/>
<circle cx="772" cy="1078" r="8" class="c0"/>
<circle cx="738" cy="416" r="8" class="c0"/>
<circle cx="738" cy="858" r="8" class="c0"/>
<circle cx="674" cy="1426" r="8" class="c0"/>
<circle cx="582" cy="796" r="8" class="c0"/>
<circle cx="644" cy="982" r="8" class="c0"/>
<circle cx="690" cy="1348" r="8" class="c0"/>
<circle cx="640" cy="360" r="8" class="c0"/>
<circle cx="724" cy="620" r="8" class="c0"/>
<circle cx="670" cy="1368" r="8" class="c0"/>
<circle cx="552" cy="846" r="8" class="c0"/>
<circle cx="504" cy="1398" r="8" class="c0"/>
<circle cx="718" cy="584" r="8" class="c0"/>
<circle cx="650" cy="508" r="8" class="c0"/>
<circle cx="706" cy="1428" r="8" class="c0"/>
<circle cx="588" cy="370" r="8" class="c0"/>
<circle cx="578" cy="822" r="8" class="c0"/>
<circle cx="728" cy="778" r="8" class="c0"/>
<circle cx="780" cy="1400" r="8" class="c0"/>
<circle cx="660" cy="826" r="8" class="c0"/>
<circle cx="642" cy="452" r="8" class="c0"/>
<circle cx="728" cy="1136" r="8" class="c0"/>
<circle cx="650" cy="1176" r="8" class="c0"/>
<circle cx="606" cy="948" r="8" class="c0"/>
<circle cx="666" cy="596" r="8" class="c0"/>
<circle cx="610" cy="1384" r="8" class="c0"/>
<circle cx="554" cy="1102" r="8" class="c0"/>
<circle cx="734" cy="1186" r="8" class="c0"/>
<circle cx="632" cy="506" r="8" class="c0"/>
<circle cx="512" cy="1128" r="8" class="c0"/>
<circle cx="532" cy="974" r="8" class="c0"/>
<circle cx="782" cy="1092" r="8" class="c0"/>
<circle cx="640" cy="608" r="8" class="c0"/>
<circle cx="588" cy="596" r="8" class="c0"/>
<circle cx="594" cy="1372" r="8" class="c0"/>
<circle cx="600" cy="306" r="8" class="c0"/>
<circle cx="504" cy="1144" r="8" class="c0"/>
<circle cx="630" cy="1420" r="8" class="c0"/>
<circle cx="762" cy="1390" r="8" class="c0"/>
<circle cx="692" cy="988" r="8" class="c0"/>
<circle cx="634" cy="644" r="8" class="c0"/>
<circle cx="824" cy="1376" r="8" class="c0"/>
<circle cx="656" cy="472" r="8" class="c0"/>
<circle cx="602" cy="1306" r="8" class="c0"/>
<circle cx="768" cy="1102" r="8" class="c0"/>
<circle cx="602" cy="1420" r="8" class="c0"/>
<circle cx="558" cy="824" r="8" class="c0"/>
<circle cx="708" cy="410" r="8" class="c0"/>
<circle cx="612" cy="1042" r="8" class="c0"/>
<circle cx="620" cy="364" r="8" class="c0"/>
<circle cx="680" cy="326" r="8" class="c0"/>
<circle cx="588" cy="1212" r="8" class="c0"/>
<circle cx="662" cy="1310" r="8" class="c0"/>
<circle cx="684" cy="682" r="8" class="c0"/>
<circle cx="728" cy="1238" r="8" class="c0"/>
<circle cx="628" cy="1350" r="8" class="c0"/>
<circle cx="626" cy="1284" r="8" class="c0"/>
<circle cx="802" cy="1218" r="8" class="c0"/>
<circle cx="608" cy="1272" r="8" class="c0"/>
<circle cx="600" cy="438" r="8" class="c0"/>
<circle cx="708" cy="1342" r="8" class="c0"/>
<circle cx="602" cy="688" r="8" class="c0"/>
<circle cx="498" cy="1252" r="8" class="c0"/>
<circle cx="806" cy="1266" r="8" class="c0"/>
<circle cx="518" cy="1350" r="8" class="c0"/>
<circle cx="706" cy="1276" r="8" class="c0"/>
<circle cx="590" cy="1344" r="8" class="c0"/>
<circle cx="560" cy="1408" r="8" class="c0"/>
<circle cx="518" cy="1084" r="8" class="c0"/>
<circle cx="620" cy="1208" r="8" class="c0"/>
<circle cx="566" cy="1114" r="8" class="c0"/>
<circle cx="606" cy="1130" r="8" class="c0"/>
<circle cx="578" cy="390" r="8" class="c0"/>
<circle cx="668" cy="986" r="8" class="c0"/>
<circle cx="780" cy="1270" r="8" class="c0"/>
<circle cx="808" cy="1316" r="8" class="c0"/>
<circle cx="704" cy="860" r="8" class="c0"/>
<circle cx="630" cy="342" r="8" class="c0"/>
<circle cx="566" cy="782" r="8" class="c0"/>
<circle cx="746" cy="1008" r="8" class="c0"/>
<circle cx="554" cy="1234" r="8" class="c0"/>
<circle cx="666" cy="1238" r="8" class="c0"/>
<circle cx="626" cy="742" r="8" class="c0"/>
<circle cx="604" cy="836" r="8" class="c0"/>
<circle cx="798" cy="1408" r="8" class="c0"/>
<circle cx="672" cy="864" r="8" class="c0"/>
<circle cx="646" cy="950" r="8" class="c0"/>
<circle cx="656" cy="1250" r="8" class="c0"/>
<circle cx="710" cy="930" r="8" class="c0"/>
<circle cx="796" cy="1154" r="8" class="c0"/>
<circle cx="678" cy="584" r="8" class="c0"/>
<circle cx="616" cy="1320" r="8" class="c0"/>
<circle cx="692" cy="550" r="8" class="c0"/>
<circle cx="680" cy="298" r="8" class="c0"/>
<circle cx="592" cy="578" r="8" class="c0"/>
<circle cx="682" cy="1314" r="8" class="c0"/>
<circle cx="572" cy="658" r="8" class="c0"/>
<circle cx="650" cy="1018" r="8" class="c0"/>
<circle cx="560" cy="644" r="8" class="c0"/>
<circle cx="734" cy="724" r="8" class="c0"/>
<circle cx="750" cy="1100" r="8" class="c0"/>
<circle cx="594" cy="620" r="8" class="c0"/>
<circle cx="632" cy="1174" r="8" class="c0"/>
<circle cx="664" cy="520" r="8" class="c0"/>
<circle cx="668" cy="1066" r="8" class="c0"/>
<circle cx="672" cy="1188" r="8" class="c0"/>
<circle cx="716" cy="1382" r="8" class="c0"/>
<circle cx="786" cy="1308" r="8" class="c0"/>
<circle cx="620" cy="1402" r="8" class="c0"/>
<circle cx="746" cy="1052" r="8" class="c0"/>
<circle cx="722" cy="1104" r="8" class="c0"/>
<circle cx="716" cy="1224" r="8" class="c0"/>
<circle cx="694" cy="892" r="8" class="c0"/>
<circle cx="546" cy="914" r="8" class="c0"/>
<circle cx="726" cy="950" r="8" class="c0"/>
<circle cx="534" cy="1044" r="8" class="c0"/>
<circle cx="718" cy="812" r="8" class="c0"/>
<circle cx="694" cy="1174" r="8" class="c0"/>
<circle cx="690" cy="470" r="8" class="c0"/>
<circle cx="682" cy="928" r="8" class="c0"/>
<circle cx="678" cy="958" r="8" class="c0"/>
<circle cx="624" cy="884" r="8" class="c0"/>
<circle cx="602" cy="812" r="8" class="c0"/>
<circle cx="588" cy="406" r="8" class="c0"/>
<circle cx="686" cy="760" r="8" class="c0"/>
<circle cx="736" cy="1042" r="8" class="c0"/>
<circle cx="794" cy="1280" r="8" class="c0"/>
<circle cx="554" cy="1344" r="8" class="c0"/>
<circle cx="758" cy="428" r="8" class="c0"/>
<circle cx="680" cy="660" r="8" class="c0"/>
<circle cx="736" cy="1298" r="8" class="c0"/>
<circle cx="710" cy="630" r="8" class="c0"/>
<circle cx="560" cy="954" r="8" class="c0"/>
<circle cx="804" cy="1430" r="8" class="c0"/>
<circle cx="774" cy="1380" r="8" class="c0"/>
<circle cx="714" cy="718" r="8" class="c0"/>
<circle cx="634" cy="1048" r="8" class="c0"/>
<circle cx="702" cy="1210" r="8" class="c0"/>
<circle cx="728" cy="876" r="8" class="c0"/>
<circle cx="492" cy="1382" r="8" class="c0"/>
<circle cx="594" cy="962" r="8" class="c0"/>
<circle cx="608" cy="1358" r="8" class="c0"/>
<circle cx="626" cy="836" r="8" class="c0"/>
<circle cx="740" cy="346" r="8" class="c0"/>
<circle cx="612" cy="1296" r="8" class="c0"/>
<circle cx="734" cy="994" r="8" class="c0"/>
<circle cx="518" cy="1252" r="8" class="c0"/>
<circle cx="678" cy="810" r="8" class="c0"/>
<circle cx="682" cy="1276" r="8" class="c0"/>
<circle cx="610" cy="752" r="8" class="c0"/>
<circle cx="748" cy="362" r="8" class="c0"/>
<circle cx="742" cy="1218" r="8" class="c0"/>
<circle cx="496" cy="1330" r="8" class="c0"/>
<circle cx="732" cy="758" r="8" class="c0"/>
<circle cx="572" cy="604" r="8" class="c0"/>
<circle cx="616" cy="556" r="8" class="c0"/>
<circle cx="642" cy="1404" r="8" class="c0"/>
<circle cx="640" cy="332" r="8" class="c0"/>
<circle cx="672" cy="1214" r="8" class="c0"/>
<circle cx="730" cy="572" r="8" class="c0"/>
<circle cx="712" cy="374" r="8" class="c0"/>
<circle cx="706" cy="432" r="8" class="c0"/>
<circle cx="576" cy="918" r="8" class="c0"/>
<circle cx="666" cy="648" r="8" class="c0"/>
<circle cx="532" cy="1364" r="8" class="c0"/>
<circle cx="564" cy="1080" r="8" class="c0"/>
<circle cx="754" cy="456" r="8" class="c0"/>
<circle cx="686" cy="714" r="8" class="c0"/>
<circle cx="544" cy="1354" r="8" class="c0"/>
<circle cx="552" cy="1430" r="8" class="c0"/>
<circle cx="642" cy="678" r="8" class="c0"/>
<circle cx="728" cy="1430" r="8" class="c0"/>
<circle cx="576" cy="1390" r="8" class="c0"/>
<circle cx="622" cy="1122" r="8" class="c0"/>
<circle cx="642" cy="408" r="8" class="c0"/>
<circle cx="718" cy="1178" r="8" class="c0"/>
<circle cx="734" cy="600" r="8" class="c0"/>
<circle cx="658" cy="364" r="8" class="c0"/>
<circle cx="516" cy="1188" r="8" class="c0"/>
<circle cx="592" cy="876" r="6" class="c0"/>
<circle cx="680" cy="406" r="6" class="c0"/>
<circle cx="594" cy="918" r="6" class="c0"/>
<circle cx="712" cy="602" r="6" class="c0"/>
<circle cx="672" cy="470" r="6" class="c0"/>
<circle cx="744" cy="1392" r="6" class="c0"/>
<circle cx="756" cy="948" r="6" class="c0"/>
<circle cx="620" cy="786" r="6" class="c0"/>
<circle cx="714" cy="1398" r="6" class="c0"/>
<circle cx="646" cy="924" r="6" class="c0"/>
<circle cx="764" cy="1186" r="6" class="c0"/>
<circle cx="542" cy="1176" r="6" class="c0"/>
<circle cx="546" cy="966" r="6" class="c0"/>
<circle cx="772" cy="994" r="6" class="c0"/>
<circle cx="678" cy="832" r="6" class="c0"/>
<circle cx="698" cy="1064" r="6" class="c0"/>
<circle cx="666" cy="458" r="6" class="c0"/>
<circle cx="676" cy="1330" r="6" class="c0"/>
<circle cx="788" cy="1238" r="6" class="c0"/>
<circle cx="484" cy="1404" r="6" class="c0"/>
<circle cx="534" cy="1266" r="6" class="c0"/>
<circle cx="796" cy="1130" r="6" class="c0"/>
<circle cx="706" cy="1020" r="6" class="c0"/>
<circle cx="640" cy="1360" r="6" class="c0"/>
<circle cx="772" cy="1430" r="6" class="c0"/>
<circle cx="710" cy="672" r="6" class="c0"/>
<circle cx="574" cy="1100" r="6" class="c0"/>
<circle cx="548" cy="866" r="6" class="c0"/>
<circle cx="606" cy="356" r="6" class="c0"/>
<circle cx="678" cy="1030" r="6" class="c0"/>
<circle cx="580" cy="1016" r="6" class="c0"/>
<circle cx="644" cy="1036" r="6" class="c0"/>
<circle cx="788" cy="1138" r="6" class="c0"/>
<circle cx="764" cy="964" r="6" class="c0"/>
<circle cx="648" cy="1428" r="6" class="c0"/>
<circle cx="652" cy="898" r="6" class="c0"/>
<circle cx="768" cy="1332" r="6" class="c0"/>
<circle cx="570" cy="1302" r="6" class="c0"/>
<circle cx="790" cy="1070" r="6" class="c0"/>
<circle cx="702" cy="586" r="6" class="c0"/>
<circle cx="648" cy="592" r="6" class="c0"/>
<circle cx="582" cy="648" r="6" class="c0"/>
<circle cx="640" cy="760" r="6" class="c0"/>
<circle cx="634" cy="778" r="6" class="c0"/>
<circle cx="528" cy="1066" r="6" class="c0"/>
<circle cx="748" cy="1254" r="6" class="c0"/>
<circle cx="556" cy="884" r="6" class="c0"/>
<circle cx="536" cy="1146" r="6" class="c0"/>
<circle cx="516" cy="1378" r="6" class="c0"/>
<circle cx="750" cy="908" r="6" class="c0"/>
<circle cx="710" cy="898" r="6" class="c0"/>
<circle cx="628" cy="416" r="6" class="c0"/>
<circle cx="802" cy="1176" r="6" class="c0"/>
<circle cx="542" cy="1374" r="6" class="c0"/>
<circle cx="604" cy="932" r="6" class="c0"/>
<circle cx="728" cy="926" r="6" class="c0"/>
<circle cx="638" cy="582" r="6" class="c0"/>
<circle cx="668" cy="504" r="6" class="c0"/>
<circle cx="600" cy="1202" r="6" class="c0"/>
<circle cx="614" cy="346" r="6" class="c0"/>
<circle cx="780" cy="1230" r="6" class="c0"/>
<circle cx="616" cy="460" r="6" class="c0"/>
<circle cx="740" cy="1378" r="6" class="c0"/>
<circle cx="574" cy="586" r="6" class="c0"/>
<circle cx="614" cy="1146" r="6" class="c0"/>
<circle cx="702" cy="684" r="6" class="c0"/>
<circle cx="680" cy="1358" r="6" class="c0"/>
<circle cx="526" cy="1334" r="6" class="c0"/>
<circle cx="766" cy="1286" r="6" class="c0"/>
<circle cx="624" cy="914" r="6" class="c0"/>
<circle cx="724" cy="450" r="6" class="c0"/>
<circle cx="690" cy="1010" r="6" class="c0"/>
<circle cx="630" cy="598" r="6" class="c0"/>
<circle cx="724" cy="1338" r="6" class="c0"/>
<circle cx="656" cy="996" r="6" class="c0"/>
<circle cx="614" cy="656" r="6" class="c0"/>
<circle cx="676" cy="724" r="6" class="c0"/>
<circle cx="770" cy="1350" r="6" class="c0"/>
<circle cx="690" cy="1200" r="6" class="c0"/>
<circle cx="720" cy="984" r="6" class="c0"/>
<circle cx="694" cy="746" r="6" class="c0"/>
<circle cx="640" cy="488" r="6" class="c0"/>
<circle cx="692" cy="1330" r="6" class="c0"/>
<circle cx="662" cy="1128" r="6" class="c0"/>
<circle cx="714" cy="342" r="6" class="c0"/>
<circle cx="652" cy="1100" r="6" class="c0"/>
<circle cx="648" cy="298" r="6" class="c0"/>
<circle cx="586" cy="680" r="6" class="c0"/>
<circle cx="720" cy="848" r="6" class="c0"/>
<circle cx="486" cy="1352" r="6" class="c0"/>
<circle cx="730" cy="1070" r="6" class="c0"/>
<circle cx="764" cy="360" r="6" class="c0"/>
<circle cx="544" cy="1402" r="6" class="c0"/>
<circle cx="556" cy="1192" r="6" class="c0"/>
<circle cx="530" cy="958" r="6" class="c0"/>
<circle cx="676" cy="700" r="6" class="c0"/>
<circle cx="606" cy="1218" r="6" class="c0"/>
<circle cx="768" cy="1410" r="6" class="c0"/>
<circle cx="554" cy="1030" r="6" class="c0"/>
<circle cx="662" cy="330" r="6" class="c0"/>
<circle cx="584" cy="952" r="6" class="c0"/>
<circle cx="632" cy="1246" r="6" class="c0"/>
<circle cx="762" cy="1004" r="6" class="c0"/>
<circle cx="606" cy="882" r="6" class="c0"/>
<circle cx="502" cy="1198" r="6" class="c0"/>
<circle cx="510" cy="1266" r="6" class="c0"/>
<circle cx="602" cy="588" r="6" class="c0"/>
<circle cx="536" cy="1094" r="6" class="c0"/>
<circle cx="642" cy="910" r="6" class="c0"/>
<circle cx="630" cy="1218" r="6" class="c0"/>
<circle cx="818" cy="1328" r="6" class="c0"/>
<circle cx="594" cy="1146" r="6" class="c0"/>
<circle cx="686" cy="794" r="6" class="c0"/>
<circle cx="568" cy="856" r="6" class="c0"/>
<circle cx="518" cy="1306" r="6" class="c0"/>
<circle cx="654" cy="1214" r="6" class="c0"/>
<circle cx="620" cy="992" r="6" class="c0"/>
<circle cx="738" cy="740" r="6" class="c0"/>
<circle cx="648" cy="1352" r="6" class="c0"/>
<circle cx="504" cy="1162" r="6" class="c0"/>
<circle cx="594" cy="756" r="6" class="c0"/>
<circle cx="618" cy="330" r="6" class="c0"/>
<circle cx="664" cy="556" r="6" class="c0"/>
<circle cx="646" cy="1260" r="6" class="c0"/>
<circle cx="520" cy="1036" r="6" class="c0"/>
<circle cx="572" cy="374" r="6" class="c0"/>
<circle cx="742" cy="646" r="6" class="c0"/>
<circle cx="582" cy="1358" r="6" class="c0"/>
<circle cx="822" cy="1394" r="6" class="c0"/>
<circle cx="624" cy="538" r="6" class="c0"/>
<circle cx="552" cy="1124" r="6" class="c0"/>
<circle cx="804" cy="1364" r="6" class="c0"/>
<circle cx="726" cy="1086" r="6" class="c0"/>
<circle cx="612" cy="422" r="6" class="c0"/>
<circle cx="668" cy="1264" r="6" class="c0"/>
<circle cx="656" cy="606" r="6" class="c0"/>
<circle cx="666" cy="1086" r="6" class="c0"/>
<circle cx="512" cy="1294" r="6" class="c0"/>
<circle cx="686" cy="824" r="6" class="c0"/>
<circle cx="614" cy="1432" r="6" class="c0"/>
<circle cx="790" cy="1050" r="6" class="c0"/>
<circle cx="826" cy="1358" r="6" class="c0"/>
<circle cx="666" cy="1294" r="6" class="c0"/>
<circle cx="574" cy="1282" r="6" class="c0"/>
<circle cx="792" cy="1258" r="6" class="c0"/>
<circle cx="746" cy="1028" r="6" class="c0"/>
<circle cx="632" cy="300" r="6" class="c0"/>
<circle cx="684" cy="1378" r="6" class="c0"/>
<circle cx="624" cy="1158" r="6" class="c0"/>
<circle cx="594" cy="826" r="6" class="c0"/>
<circle cx="706" cy="1406" r="6" class="c0"/>
<circle cx="548" cy="1086" r="6" class="c0"/>
<circle cx="748" cy="1354" r="6" class="c0"/>
<circle cx="716" cy="314" r="6" class="c0"/>
<circle cx="794" cy="1104" r="6" class="c0"/>
<circle cx="586" cy="720" r="6" class="c0"/>
<circle cx="696" cy="1140" r="6" class="c0"/>
<circle cx="756" cy="1346" r="6" class="c0"/>
<circle cx="736" cy="918" r="6" class="c0"/>
<circle cx="496" cy="1214" r="6" class="c0"/>
<circle cx="680" cy="998" r="6" class="c0"/>
<circle cx="654" cy="1326" r="6" class="c0"/>
<circle cx="534" cy="1344" r="6" class="c0"/>
<circle cx="598" cy="1282" r="6" class="c0"/>
<circle cx="690" cy="574" r="6" class="c0"/>
<circle cx="680" cy="976" r="6" class="c0"/>
<circle cx="828" cy="1432" r="6" class="c0"/>
<circle cx="728" cy="1392" r="6" class="c0"/>
<circle cx="794" cy="1350" r="6" class="c0"/>
<circle cx="546" cy="1214" r="6" class="c0"/>
<circle cx="724" cy="794" r="6" class="c0"/>
<circle cx="656" cy="1360" r="6" class="c0"/>
<circle cx="682" cy="738" r="6" class="c0"/>
<circle cx="690" cy="316" r="6" class="c0"/>
<circle cx="592" cy="1048" r="6" class="c0"/>
<circle cx="684" cy="1062" r="6" class="c0"/>
<circle cx="804" cy="1332" r="6" class="c0"/>
<circle cx="780" cy="1146" r="6" class="c0"/>
<circle cx="734" cy="1152" r="6" class="c0"/>
<circle cx="610" cy="448" r="6" class="c0"/>
<circle cx="622" cy="722" r="6" class="c0"/>
<circle cx="724" cy="524" r="6" class="c0"/>
<circle cx="542" cy="1416" r="6" class="c0"/>
<circle cx="660" cy="496" r="6" class="c0"/>
<circle cx="570" cy="942" r="6" class="c0"/>
<circle cx="612" cy="1256" r="6" class="c0"/>
<circle cx="756" cy="1018" r="6" class="c0"/>
<circle cx="636" cy="660" r="6" class="c0"/>
<circle cx="630" cy="688" r="6" class="c0"/>
<circle cx="544" cy="1302" r="6" class="c0"/>
<circle cx="568" cy="1024" r="6" class="c0"/>
<circle cx="786" cy="1032" r="6" class="c0"/>
<circle cx="766" cy="466" r="6" class="c0"/>
<circle cx="620" cy="956" r="6" class="c0"/>
<circle cx="570" cy="996" r="6" class="c0"/>
<circle cx="580" cy="1198" r="6" class="c0"/>
<circle cx="552" cy="1258" r="6" class="c0"/>
<circle cx="772" cy="400" r="6" class="c0"/>
<circle cx="708" cy="1034" r="6" class="c0"/>
<circle cx="738" cy="940" r="6" class="c0"/>
<circle cx="574" cy="1348" r="6" class="c0"/>
<circle cx="612" cy="1112" r="6" class="c0"/>
<circle cx="522" cy="1140" r="6" class="c0"/>
<circle cx="670" cy="840" r="6" class="c0"/>
<circle cx="784" cy="430" r="6" class="c0"/>
<circle cx="750" cy="1328" r="6" class="c0"/>
<circle cx="732" cy="842" r="6" class="c0"/>
<circle cx="664" cy="294" r="6" class="c0"/>
<circle cx="628" cy="980" r="6" class="c0"/>
<circle cx="576" cy="882" r="6" class="c0"/>
<circle cx="732" cy="634" r="6" class="c0"/>
<circle cx="534" cy="924" r="6" class="c0"/>
<circle cx="608" cy="320" r="6" class="c0"/>
<circle cx="716" cy="442" r="6" class="c0"/>
<circle cx="706" cy="476" r="6" class="c0"/>
<circle cx="652" cy="1138" r="6" class="c0"/>
<circle cx="710" cy="548" r="6" class="c0"/>
<circle cx="694" cy="672" r="6" class="c0"/>
<circle cx="720" cy="470" r="6" class="c0"/>
<circle cx="734" cy="682" r="6" class="c0"/>
<circle cx="684" cy="910" r="6" class="c0"/>
<circle cx="726" cy="1008" r="6" class="c0"/>
<circle cx="728" cy="1280" r="6" class="c0"/>
<circle cx="578" cy="1374" r="6" class="c0"/>
<circle cx="548" cy="1160" r="6" class="c0"/>
<circle cx="514" cy="1408" r="6" class="c0"/>
<circle cx="570" cy="1190" r="6" class="c0"/>
<circle cx="610" cy="796" r="6" class="c0"/>
<circle cx="740" cy="1406" r="6" class="c0"/>
<circle cx="734" cy="1094" r="6" class="c0"/>
<circle cx="648" cy="1056" r="6" class="c0"/>
<circle cx="694" cy="778" r="6" class="c0"/>
<circle cx="642" cy="746" r="6" class="c0"/>
<circle cx="660" cy="1028" r="6" class="c0"/>
</svg>
