<?xml version="1.0" encoding="utf-8"?>
<svg xmlns="http://www.w3.org/2000/svg"
     xmlns:xlink="http://www.w3.org/1999/xlink" width="1920" height="1440" >

            <defs>
            <style type="text/css"><![CDATA[
circle {stroke: none;}
.c0 {fill: #000000;}
]]></style>
            </defs>
<rect x="0" y="0" width="1920" height="1440" fill="white"/>
<circle cx="608" cy="710" r="12" class="c0"/>
<circle cx="650" cy="610" r="12" class="c0"/>
<circle cx="444" cy="1262" r="12" class="c0"/>
<circle cx="448" cy="1378" r="12" class="c0"/>
<circle cx="604" cy="348" r="12" class="c0"/>
<circle cx="630" cy="322" r="12" class="c0"/>
<circle cx="628" cy="946" r="12" class="c0"/>
<circle cx="654" cy="1206" r="12" class="c0"/>
<circle cx="586" cy="574" r="12" class="c0"/>
<circle cx="490" cy="1210" r="12" class="c0"/>
<circle cx="446" cy="1316" r="12" class="c0"/>
<circle cx="674" cy="1382" r="12" class="c0"/>
<circle cx="702" cy="342" r="12" class="c0"/>
<circle cx="558" cy="1180" r="12" class="c0"/>
<circle cx="560" cy="590" r="12" class="c0"/>
<circle cx="616" cy="1380" r="12" class="c0"/>
<circle cx="576" cy="502" r="12" class="c0"/>
<circle cx="568" cy="1390" r="12" class="c0"/>
<circle cx="488" cy="1252" r="12" class="c0"/>
<circle cx="532" cy="1106" r="12" class="c0"/>
<circle cx="546" cy="718" r="12" class="c0"/>
<circle cx="672" cy="922" r="12" class="c0"/>
<circle cx="664" cy="730" r="12" class="c0"/>
<circle cx="664" cy="1002" r="12" class="c0"/>
<circle cx="552" cy="974" r="12" class="c0"/>
<circle cx="486" cy="978" r="12" class="c0"/>
<circle cx="566" cy="1242" r="12" class="c0"/>
<circle cx="584" cy="806" r="12" class="c0"/>
<circle cx="460" cy="1080" r="12" class="c0"/>
<circle cx="694" cy="422" r="12" class="c0"/>
<circle cx="538" cy="348" r="12" class="c0"/>
<circle cx="692" cy="992" r="12" class="c0"/>
<circle cx="508" cy="1114" r="12" class="c0"/>
<circle cx="626" cy="360" r="12" class="c0"/>
<circle cx="560" cy="1062" r="12" class="c0"/>
<circle cx="590" cy="1128" r="12" class="c0"/>
<circle cx="452" cy="1106" r="12" class="c0"/>
<circle cx="518" cy="1016" r="12" class="c0"/>
<circle cx="616" cy="980" r="12" class="c0"/>
<circle cx="642" cy="1068" r="12" class="c0"/>
<circle cx="504" cy="1298" r="12" class="c0"/>
<circle cx="686" cy="1084" r="12" class="c0"/>
<circle cx="722" cy="1066" r="12" class="c0"/>
<circle cx="658" cy="572" r="12" class="c0"/>
<circle cx="672" cy="1112" r="12" class="c0"/>
<circle cx="628" cy="1218" r="12" class="c0"/>
<circle cx="476" cy="1298" r="12" class="c0"/>
<circle cx="516" cy="1064" r="10" class="c0"/>
<circle cx="540" cy="1258" r="10" class="c0"/>
<circle cx="730" cy="1344" r="10" class="c0"/>
<circle cx="606" cy="584" r="10" class="c0"/>
<circle cx="588" cy="1412" r="10" class="c0"/>
<circle cx="580" cy="318" r="10" class="c0"/>
<circle cx="474" cy="1394" r="10" class="c0"/>
<circle cx="586" cy="1076" r="10" class="c0"/>
<circle cx="634" cy="1176" r="10" class="c0"/>
<circle cx="608" cy="748" r="10" class="c0"/>
<circle cx="520" cy="776" r="10" class="c0"/>
<circle cx="632" cy="504" r="10" class="c0"/>
<circle cx="448" cy="1352" r="10" class="c0"/>
<circle cx="530" cy="962" r="10" class="c0"/>
<circle cx="514" cy="984" r="10" class="c0"/>
<circle cx="640" cy="998" r="10" class="c0"/>
<circle cx="604" cy="1256" r="10" class="c0"/>
<circle cx="586" cy="1328" r="10" class="c0"/>
<circle cx="576" cy="634" r="10" class="c0"/>
<circle cx="644" cy="526" r="10" class="c0"/>
<circle cx="720" cy="1244" r="10" class="c0"/>
<circle cx="518" cy="1198" r="10" class="c0"/>
<circle cx="656" cy="648" r="10" class="c0"/>
<circle cx="516" cy="830" r="10" class="c0"/>
<circle cx="592" cy="1306" r="10" class="c0"/>
<circle cx="516" cy="1250" r="10" class="c0"/>
<circle cx="732" cy="1178" r="10" class="c0"/>
<circle cx="604" cy="1216" r="10" class="c0"/>
<circle cx="592" cy="956" r="10" class="c0"/>
<circle cx="670" cy="1346" r="10" class="c0"/>
<circle cx="672" cy="892" r="10" class="c0"/>
<circle cx="586" cy="1154" r="10" class="c0"/>
<circle cx="624" cy="1274" r="10" class="c0"/>
<circle cx="592" cy="604" r="10" class="c0"/>
<circle cx="446" cy="1422" r="10" class="c0"/>
<circle cx="608" cy="536" r="10" class="c0"/>
<circle cx="700" cy="1134" r="10" class="c0"/>
<circle cx="664" cy="1292" r="10" class="c0"/>
<circle cx="466" cy="1164" r="10" class="c0"/>
<circle cx="634" cy="1034" r="10" class="c0"/>
<circle cx="650" cy="1120" r="10" class="c0"/>
<circle cx="568" cy="826" r="10" class="c0"/>
<circle cx="510" cy="1322" r="10" class="c0"/>
<circle cx="714" cy="1102" r="10" class="c0"/>
<circle cx="592" cy="380" r="10" class="c0"/>
<circle cx="616" cy="288" r="10" class="c0"/>
<circle cx="622" cy="1246" r="10" class="c0"/>
<circle cx="648" cy="714" r="10" class="c0"/>
<circle cx="674" cy="1148" r="10" class="c0"/>
<circle cx="714" cy="1270" r="10" class="c0"/>
<circle cx="574" cy="414" r="10" class="c0"/>
<circle cx="552" cy="616" r="10" class="c0"/>
<circle cx="580" cy="1192" r="10" class="c0"/>
<circle cx="628" cy="726" r="10" class="c0"/>
<circle cx="578" cy="662" r="10" class="c0"/>
<circle cx="540" cy="1398" r="10" class="c0"/>
<circle cx="696" cy="1210" r="10" class="c0"/>
<circle cx="568" cy="876" r="10" class="c0"/>
<circle cx="488" cy="1026" r="10" class="c0"/>
<circle cx="656" cy="1164" r="10" class="c0"/>
<circle cx="536" cy="1352" r="10" class="c0"/>
<circle cx="504" cy="896" r="10" class="c0"/>
<circle cx="650" cy="790" r="10" class="c0"/>
<circle cx="650" cy="294" r="10" class="c0"/>
<circle cx="664" cy="370" r="10" class="c0"/>
<circle cx="502" cy="636" r="10" class="c0"/>
<circle cx="618" cy="854" r="10" class="c0"/>
<circle cx="548" cy="1120" r="10" class="c0"/>
<circle cx="608" cy="408" r="10" class="c0"/>
<circle cx="602" cy="1360" r="10" class="c0"/>
<circle cx="584" cy="746" r="10" class="c0"/>
<circle cx="722" cy="1378" r="10" class="c0"/>
<circle cx="694" cy="1048" r="10" class="c0"/>
<circle cx="662" cy="970" r="10" class="c0"/>
<circle cx="482" cy="1090" r="10" class="c0"/>
<circle cx="510" cy="606" r="10" class="c0"/>
<circle cx="694" cy="1312" r="10" class="c0"/>
<circle cx="534" cy="660" r="10" class="c0"/>
<circle cx="502" cy="1158" r="10" class="c0"/>
<circle cx="550" cy="1082" r="10" class="c0"/>
<circle cx="618" cy="618" r="10" class="c0"/>
<circle cx="652" cy="358" r="10" class="c0"/>
<circle cx="552" cy="424" r="10" class="c0"/>
<circle cx="532" cy="1044" r="10" class="c0"/>
<circle cx="534" cy="932" r="10" class="c0"/>
<circle cx="558" cy="754" r="10" class="c0"/>
<circle cx="634" cy="434" r="10" class="c0"/>
<circle cx="572" cy="988" r="10" class="c0"/>
<circle cx="750" cy="1276" r="10" class="c0"/>
<circle cx="696" cy="392" r="10" class="c0"/>
<circle cx="486" cy="1324" r="10" class="c0"/>
<circle cx="630" cy="1324" r="10" class="c0"/>
<circle cx="488" cy="1358" r="10" class="c0"/>
<circle cx="496" cy="948" r="10" class="c0"/>
<circle cx="562" cy="1136" r="10" class="c0"/>
<circle cx="552" cy="1314" r="10" class="c0"/>
<circle cx="634" cy="1302" r="10" class="c0"/>
<circle cx="634" cy="890" r="10" class="c0"/>
<circle cx="550" cy="912" r="10" class="c0"/>
<circle cx="538" cy="1280" r="10" class="c0"/>
<circle cx="604" cy="656" r="10" class="c0"/>
<circle cx="678" cy="1180" r="10" class="c0"/>
<circle cx="572" cy="904" r="10" class="c0"/>
<circle cx="672" cy="286" r="10" class="c0"/>
<circle cx="508" cy="864" r="10" class="c0"/>
<circle cx="526" cy="812" r="10" class="c0"/>
<circle cx="502" cy="1080" r="10" class="c0"/>
<circle cx="506" cy="926" r="10" class="c0"/>
<circle cx="560" cy="804" r="10" class="c0"/>
<circle cx="672" cy="1320" r="10" class="c0"/>
<circle cx="596" cy="874" r="10" class="c0"/>
<circle cx="680" cy="1234" r="10" class="c0"/>
<circle cx="666" cy="1040" r="10" class="c0"/>
<circle cx="436" cy="1400" r="10" class="c0"/>
<circle cx="608" cy="438" r="10" class="c0"/>
<circle cx="656" cy="1248" r="10" class="c0"/>
<circle cx="728" cy="414" r="10" class="c0"/>
<circle cx="446" cy="1178" r="10" class="c0"/>
<circle cx="714" cy="1028" r="10" class="c0"/>
<circle cx="558" cy="380" r="10" class="c0"/>
<circle cx="544" cy="316" r="10" class="c0"/>
<circle cx="626" cy="820" r="10" class="c0"/>
<circle cx="552" cy="290" r="10" class="c0"/>
<circle cx="546" cy="688" r="10" class="c0"/>
<circle cx="578" cy="1284" r="10" class="c0"/>
<circle cx="644" cy="750" r="10" class="c0"/>
<circle cx="620" cy="914" r="10" class="c0"/>
<circle cx="494" cy="848" r="10" class="c0"/>
<circle cx="714" cy="1294" r="10" class="c0"/>
<circle cx="544" cy="1014" r="10" class="c0"/>
<circle cx="540" cy="1212" r="10" class="c0"/>
<circle cx="714" cy="1326" r="10" class="c0"/>
<circle cx="432" cy="1288" r="10" class="c0"/>
<circle cx="738" cy="1256" r="10" class="c0"/>
<circle cx="554" cy="1374" r="10" class="c0"/>
<circle cx="464" cy="998" r="10" class="c0"/>
<circle cx="662" cy="1406" r="10" class="c0"/>
<circle cx="562" cy="1102" r="10" class="c0"/>
<circle cx="700" cy="1282" r="10" class="c0"/>
<circle cx="524" cy="282" r="8" class="c0"/>
<circle cx="650" cy="1386" r="8" class="c0"/>
<circle cx="752" cy="1418" r="8" class="c0"/>
<circle cx="536" cy="1182" r="8" class="c0"/>
<circle cx="660" cy="470" r="8" class="c0"/>
<circle cx="618" cy="388" r="8" class="c0"/>
<circle cx="522" cy="624" r="8" class="c0"/>
<circle cx="616" cy="1142" r="8" class="c0"/>
<circle cx="636" cy="864" r="8" class="c0"/>
<circle cx="568" cy="1212" r="8" class="c0"/>
<circle cx="726" cy="1204" r="8" class="c0"/>
<circle cx="532" cy="1230" r="8" class="c0"/>
<circle cx="612" cy="496" r="8" class="c0"/>
<circle cx="504" cy="1002" r="8" class="c0"/>
<circle cx="528" cy="1430" r="8" class="c0"/>
<circle cx="716" cy="432" r="8" class="c0"/>
<circle cx="700" cy="1398" r="8" class="c0"/>
<circle cx="542" cy="892" r="8" class="c0"/>
<circle cx="558" cy="1036" r="8" class="c0"/>
<circle cx="650" cy="548" r="8" class="c0"/>
<circle cx="572" cy="546" r="8" class="c0"/>
<circle cx="478" cy="1420" r="8" class="c0"/>
<circle cx="734" cy="1300" r="8" class="c0"/>
<circle cx="528" cy="1138" r="8" class="c0"/>
<circle cx="508" cy="1232" r="8" class="c0"/>
<circle cx="638" cy="1136" r="8" class="c0"/>
<circle cx="614" cy="790" r="8" class="c0"/>
<circle cx="692" cy="464" r="8" class="c0"/>
<circle cx="576" cy="782" r="8" class="c0"/>
<circle cx="656" cy="334" r="8" class="c0"/>
<circle cx="600" cy="1430" r="8" class="c0"/>
<circle cx="580" cy="468" r="8" class="c0"/>
<circle cx="568" cy="688" r="8" class="c0"/>
<circle cx="616" cy="1004" r="8" class="c0"/>
<circle cx="716" cy="1430" r="8" class="c0"/>
<circle cx="742" cy="1230" r="8" class="c0"/>
<circle cx="672" cy="1266" r="8" class="c0"/>
<circle cx="672" cy="394" r="8" class="c0"/>
<circle cx="584" cy="290" r="8" class="c0"/>
<circle cx="568" cy="1350" r="8" class="c0"/>
<circle cx="666" cy="664" r="8" class="c0"/>
<circle cx="676" cy="436" r="8" class="c0"/>
<circle cx="536" cy="796" r="8" class="c0"/>
<circle cx="676" cy="596" r="8" class="c0"/>
<circle cx="660" cy="502" r="8" class="c0"/>
<circle cx="602" cy="1014" r="8" class="c0"/>
<circle cx="478" cy="936" r="8" class="c0"/>
<circle cx="510" cy="658" r="8" class="c0"/>
<circle cx="572" cy="340" r="8" class="c0"/>
<circle cx="660" cy="872" r="8" class="c0"/>
<circle cx="550" cy="786" r="8" class="c0"/>
<circle cx="604" cy="308" r="8" class="c0"/>
<circle cx="550" cy="552" r="8" class="c0"/>
<circle cx="696" cy="1244" r="8" class="c0"/>
<circle cx="640" cy="342" r="8" class="c0"/>
<circle cx="692" cy="322" r="8" class="c0"/>
<circle cx="466" cy="1336" r="8" class="c0"/>
<circle cx="560" cy="520" r="8" class="c0"/>
<circle cx="556" cy="646" r="8" class="c0"/>
<circle cx="578" cy="442" r="8" class="c0"/>
<circle cx="588" cy="1036" r="8" class="c0"/>
<circle cx="534" cy="1300" r="8" class="c0"/>
<circle cx="616" cy="1164" r="8" class="c0"/>
<circle cx="620" cy="682" r="8" class="c0"/>
<circle cx="718" cy="398" r="8" class="c0"/>
<circle cx="646" cy="1266" r="8" class="c0"/>
<circle cx="664" cy="772" r="8" class="c0"/>
<circle cx="758" cy="1384" r="8" class="c0"/>
<circle cx="640" cy="462" r="8" class="c0"/>
<circle cx="506" cy="1406" r="8" class="c0"/>
<circle cx="590" cy="848" r="8" class="c0"/>
<circle cx="552" cy="850" r="8" class="c0"/>
<circle cx="458" cy="1046" r="8" class="c0"/>
<circle cx="514" cy="1380" r="8" class="c0"/>
<circle cx="680" cy="474" r="8" class="c0"/>
<circle cx="616" cy="1188" r="8" class="c0"/>
<circle cx="618" cy="1408" r="8" class="c0"/>
<circle cx="578" cy="702" r="8" class="c0"/>
<circle cx="614" cy="1062" r="8" class="c0"/>
<circle cx="728" cy="1126" r="8" class="c0"/>
<circle cx="654" cy="1312" r="8" class="c0"/>
<circle cx="660" cy="1364" r="8" class="c0"/>
<circle cx="584" cy="1220" r="8" class="c0"/>
<circle cx="564" cy="730" r="8" class="c0"/>
<circle cx="606" cy="1398" r="8" class="c0"/>
<circle cx="668" cy="418" r="8" class="c0"/>
<circle cx="590" cy="688" r="8" class="c0"/>
<circle cx="534" cy="876" r="8" class="c0"/>
<circle cx="524" cy="642" r="8" class="c0"/>
<circle cx="498" cy="1044" r="8" class="c0"/>
<circle cx="616" cy="1026" r="8" class="c0"/>
<circle cx="736" cy="1154" r="8" class="c0"/>
<circle cx="484" cy="880" r="8" class="c0"/>
<circle cx="628" cy="1428" r="8" class="c0"/>
<circle cx="624" cy="654" r="8" class="c0"/>
<circle cx="538" cy="372" r="8" class="c0"/>
<circle cx="456" cy="1130" r="8" class="c0"/>
<circle cx="482" cy="1056" r="8" class="c0"/>
<circle cx="452" cy="1234" r="8" class="c0"/>
<circle cx="698" cy="1340" r="8" class="c0"/>
<circle cx="630" cy="782" r="8" class="c0"/>
<circle cx="692" cy="950" r="8" class="c0"/>
<circle cx="572" cy="934" r="8" class="c0"/>
<circle cx="532" cy="1164" r="8" class="c0"/>
<circle cx="622" cy="560" r="8" class="c0"/>
<circle cx="464" cy="1364" r="8" class="c0"/>
<circle cx="644" cy="836" r="8" class="c0"/>
<circle cx="706" cy="372" r="8" class="c0"/>
<circle cx="590" cy="1000" r="8" class="c0"/>
<circle cx="530" cy="846" r="8" class="c0"/>
<circle cx="458" cy="1198" r="8" class="c0"/>
<circle cx="646" cy="1092" r="8" class="c0"/>
<circle cx="524" cy="680" r="8" class="c0"/>
<circle cx="570" cy="366" r="8" class="c0"/>
<circle cx="636" cy="380" r="8" class="c0"/>
<circle cx="546" cy="948" r="8" class="c0"/>
<circle cx="758" cy="1350" r="8" class="c0"/>
<circle cx="594" cy="478" r="8" class="c0"/>
<circle cx="644" cy="660" r="8" class="c0"/>
<circle cx="548" cy="832" r="8" class="c0"/>
<circle cx="480" cy="1148" r="8" class="c0"/>
<circle cx="678" cy="340" r="8" class="c0"/>
<circle cx="650" cy="906" r="8" class="c0"/>
<circle cx="604" cy="896" r="8" class="c0"/>
<circle cx="702" cy="1366" r="8" class="c0"/>
<circle cx="440" cy="1154" r="8" class="c0"/>
<circle cx="468" cy="1020" r="8" class="c0"/>
<circle cx="636" cy="580" r="8" class="c0"/>
<circle cx="648" cy="686" r="8" class="c0"/>
<circle cx="666" cy="688" r="8" class="c0"/>
<circle cx="432" cy="1330" r="8" class="c0"/>
<circle cx="526" cy="308" r="8" class="c0"/>
<circle cx="498" cy="1274" r="8" class="c0"/>
<circle cx="592" cy="1386" r="8" class="c0"/>
<circle cx="644" cy="488" r="8" class="c0"/>
<circle cx="426" cy="1362" r="8" class="c0"/>
<circle cx="538" cy="584" r="8" class="c0"/>
<circle cx="590" cy="428" r="8" class="c0"/>
<circle cx="628" cy="476" r="8" class="c0"/>
<circle cx="534" cy="562" r="8" class="c0"/>
<circle cx="538" cy="738" r="8" class="c0"/>
<circle cx="740" cy="1408" r="8" class="c0"/>
<circle cx="772" cy="1374" r="8" class="c0"/>
<circle cx="674" cy="1426" r="8" class="c0"/>
<circle cx="638" cy="632" r="8" class="c0"/>
<circle cx="674" cy="956" r="8" class="c0"/>
<circle cx="620" cy="1100" r="8" class="c0"/>
<circle cx="592" cy="546" r="8" class="c0"/>
<circle cx="694" cy="1110" r="8" class="c0"/>
<circle cx="702" cy="1418" r="8" class="c0"/>
<circle cx="496" cy="1180" r="8" class="c0"/>
<circle cx="604" cy="276" r="8" class="c0"/>
<circle cx="600" cy="1340" r="8" class="c0"/>
<circle cx="512" cy="1358" r="8" class="c0"/>
<circle cx="466" cy="1430" r="8" class="c0"/>
<circle cx="620" cy="764" r="8" class="c0"/>
<circle cx="690" cy="302" r="8" class="c0"/>
<circle cx="668" cy="1062" r="8" class="c0"/>
<circle cx="648" cy="1350" r="8" class="c0"/>
<circle cx="722" cy="1400" r="8" class="c0"/>
<circle cx="744" cy="1364" r="8" class="c0"/>
<circle cx="538" cy="1064" r="8" class="c0"/>
<circle cx="652" cy="272" r="8" class="c0"/>
<circle cx="772" cy="1422" r="8" class="c0"/>
<circle cx="528" cy="748" r="8" class="c0"/>
<circle cx="652" cy="408" r="8" class="c0"/>
<circle cx="686" cy="1256" r="8" class="c0"/>
<circle cx="580" cy="1012" r="8" class="c0"/>
<circle cx="624" cy="800" r="8" class="c0"/>
<circle cx="468" cy="1224" r="8" class="c0"/>
<circle cx="596" cy="1174" r="8" class="c0"/>
<circle cx="570" cy="1024" r="8" class="c0"/>
<circle cx="598" cy="454" r="8" class="c0"/>
<circle cx="602" cy="932" r="8" class="c0"/>
<circle cx="576" cy="1264" r="8" class="c0"/>
<circle cx="618" cy="520" r="8" class="c0"/>
<circle cx="442" cy="1208" r="8" class="c0"/>
<circle cx="638" cy="698" r="8" class="c0"/>
<circle cx="702" cy="1174" r="8" class="c0"/>
<circle cx="748" cy="1316" r="8" class="c0"/>
<circle cx="628" cy="1152" r="8" class="c0"/>
<circle cx="562" cy="1158" r="8" class="c0"/>
<circle cx="568" cy="304" r="8" class="c0"/>
<circle cx="664" cy="944" r="8" class="c0"/>
<circle cx="536" cy="1326" r="8" class="c0"/>
<circle cx="598" cy="1052" r="8" class="c0"/>
<circle cx="468" cy="1262" r="8" class="c0"/>
<circle cx="620" cy="264" r="8" class="c0"/>
<circle cx="628" cy="1124" r="8" class="c0"/>
<circle cx="426" cy="1424" r="8" class="c0"/>
<circle cx="604" cy="1294" r="8" class="c0"/>
<circle cx="656" cy="432" r="8" class="c0"/>
<circle cx="494" cy="914" r="8" class="c0"/>
<circle cx="482" cy="902" r="8" class="c0"/>
<circle cx="640" cy="398" r="8" class="c0"/>
<circle cx="474" cy="1186" r="8" class="c0"/>
<circle cx="464" cy="1282" r="8" class="c0"/>
<circle cx="682" cy="1402" r="8" class="c0"/>
<circle cx="722" cy="356" r="8" class="c0"/>
<circle cx="596" cy="774" r="8" class="c0"/>
<circle cx="434" cy="1224" r="8" class="c0"/>
<circle cx="566" cy="1330" r="8" class="c0"/>
<circle cx="542" cy="768" r="8" class="c0"/>
<circle cx="646" cy="1020" r="8" class="c0"/>
<circle cx="558" cy="664" r="8" class="c0"/>
<circle cx="508" cy="1034" r="8" class="c0"/>
<circle cx="686" cy="1162" r="8" class="c0"/>
<circle cx="498" cy="822" r="8" class="c0"/>
<circle cx="566" cy="1424" r="8" class="c0"/>
<circle cx="590" cy="1242" r="8" class="c0"/>
<circle cx="654" cy="386" r="8" class="c0"/>
<circle cx="572" cy="392" r="8" class="c0"/>
<circle cx="666" cy="324" r="8" class="c0"/>
<circle cx="728" cy="1282" r="8" class="c0"/>
<circle cx="486" cy="1126" r="8" class="c0"/>
<circle cx="722" cy="1144" r="8" class="c0"/>
<circle cx="472" cy="956" r="8" class="c0"/>
<circle cx="534" cy="604" r="8" class="c0"/>
<circle cx="648" cy="818" r="8" class="c0"/>
<circle cx="572" cy="610" r="8" class="c0"/>
<circle cx="638" cy="1404" r="8" class="c0"/>
<circle cx="670" cy="484" r="8" class="c0"/>
<circle cx="544" cy="636" r="8" class="c0"/>
<circle cx="584" cy="526" r="8" class="c0"/>
<circle cx="554" cy="1294" r="8" class="c0"/>
<circle cx="492" cy="1382" r="8" class="c0"/>
<circle cx="572" cy="1304" r="8" class="c0"/>
<circle cx="670" cy="520" r="8" class="c0"/>
<circle cx="566" cy="952" r="8" class="c0"/>
<circle cx="586" cy="272" r="8" class="c0"/>
<circle cx="686" cy="358" r="8" class="c0"/>
<circle cx="624" cy="1078" r="8" class="c0"/>
<circle cx="630" cy="408" r="8" class="c0"/>
<circle cx="672" cy="1216" r="8" class="c0"/>
<circle cx="758" cy="1326" r="8" class="c0"/>
<circle cx="540" cy="390" r="8" class="c0"/>
<circle cx="552" cy="402" r="8" class="c0"/>
<circle cx="676" cy="756" r="8" class="c0"/>
<circle cx="510" cy="964" r="8" class="c0"/>
<circle cx="608" cy="810" r="8" class="c0"/>
<circle cx="684" cy="1364" r="8" class="c0"/>
<circle cx="628" cy="1362" r="8" class="c0"/>
<circle cx="666" cy="538" r="8" class="c0"/>
<circle cx="558" cy="1272" r="8" class="c0"/>
<circle cx="706" cy="452" r="8" class="c0"/>
<circle cx="624" cy="874" r="8" class="c0"/>
<circle cx="672" cy="556" r="8" class="c0"/>
<circle cx="514" cy="580" r="6" class="c0"/>
<circle cx="528" cy="914" r="6" class="c0"/>
<circle cx="462" cy="974" r="6" class="c0"/>
<circle cx="512" cy="1422" r="6" class="c0"/>
<circle cx="658" cy="454" r="6" class="c0"/>
<circle cx="482" cy="1110" r="6" class="c0"/>
<circle cx="612" cy="960" r="6" class="c0"/>
<circle cx="588" cy="1370" r="6" class="c0"/>
<circle cx="614" cy="1310" r="6" class="c0"/>
<circle cx="684" cy="1296" r="6" class="c0"/>
<circle cx="728" cy="376" r="6" class="c0"/>
<circle cx="662" cy="1090" r="6" class="c0"/>
<circle cx="544" cy="992" r="6" class="c0"/>
<circle cx="746" cy="1200" r="6" class="c0"/>
<circle cx="610" cy="1114" r="6" class="c0"/>
<circle cx="608" cy="1236" r="6" class="c0"/>
<circle cx="520" cy="1340" r="6" class="c0"/>
<circle cx="712" cy="1008" r="6" class="c0"/>
<circle cx="544" cy="866" r="6" class="c0"/>
<circle cx="604" cy="730" r="6" class="c0"/>
<circle cx="668" cy="632" r="6" class="c0"/>
<circle cx="534" cy="1370" r="6" class="c0"/>
<circle cx="514" cy="324" r="6" class="c0"/>
<circle cx="682" cy="374" r="6" class="c0"/>
<circle cx="560" cy="1004" r="6" class="c0"/>
<circle cx="644" cy="1282" r="6" class="c0"/>
<circle cx="644" cy="1334" r="6" class="c0"/>
<circle cx="546" cy="1152" r="6" class="c0"/>
<circle cx="562" cy="440" r="6" class="c0"/>
<circle cx="738" cy="1388" r="6" class="c0"/>
<circle cx="606" cy="328" r="6" class="c0"/>
<circle cx="604" cy="564" r="6" class="c0"/>
<circle cx="514" cy="342" r="6" class="c0"/>
<circle cx="574" cy="1048" r="6" class="c0"/>
<circle cx="736" cy="1098" r="6" class="c0"/>
<circle cx="486" cy="1008" r="6" class="c0"/>
<circle cx="520" cy="1308" r="6" class="c0"/>
<circle cx="592" cy="832" r="6" class="c0"/>
<circle cx="576" cy="1112" r="6" class="c0"/>
<circle cx="686" cy="1016" r="6" class="c0"/>
<circle cx="680" cy="1200" r="6" class="c0"/>
<circle cx="532" cy="264" r="6" class="c0"/>
<circle cx="580" cy="354" r="6" class="c0"/>
<circle cx="688" cy="448" r="6" class="c0"/>
<circle cx="758" cy="1300" r="6" class="c0"/>
<circle cx="686" cy="1124" r="6" class="c0"/>
<circle cx="762" cy="1406" r="6" class="c0"/>
<circle cx="588" cy="976" r="6" class="c0"/>
<circle cx="562" cy="324" r="6" class="c0"/>
<circle cx="600" cy="1090" r="6" class="c0"/>
<circle cx="738" cy="1328" r="6" class="c0"/>
<circle cx="694" cy="970" r="6" class="c0"/>
<circle cx="652" cy="986" r="6" class="c0"/>
<circle cx="636" cy="766" r="6" class="c0"/>
<circle cx="642" cy="962" r="6" class="c0"/>
<circle cx="714" cy="1192" r="6" class="c0"/>
<circle cx="656" cy="852" r="6" class="c0"/>
<circle cx="496" cy="1340" r="6" class="c0"/>
<circle cx="554" cy="360" r="6" class="c0"/>
<circle cx="704" cy="978" r="6" class="c0"/>
<circle cx="630" cy="600" r="6" class="c0"/>
<circle cx="520" cy="888" r="6" class="c0"/>
<circle cx="602" cy="1104" r="6" class="c0"/>
<circle cx="580" cy="728" r="6" class="c0"/>
<circle cx="466" cy="1060" r="6" class="c0"/>
<circle cx="490" cy="1410" r="6" class="c0"/>
<circle cx="586" cy="1348" r="6" class="c0"/>
<circle cx="656" cy="314" r="6" class="c0"/>
<circle cx="652" cy="1422" r="6" class="c0"/>
<circle cx="722" cy="454" r="6" class="c0"/>
<circle cx="676" cy="620" r="6" class="c0"/>
<circle cx="532" cy="998" r="6" class="c0"/>
<circle cx="774" cy="1400" r="6" class="c0"/>
<circle cx="616" cy="1334" r="6" class="c0"/>
<circle cx="712" cy="326" r="6" class="c0"/>
<circle cx="570" cy="1084" r="6" class="c0"/>
<circle cx="556" cy="1222" r="6" class="c0"/>
<circle cx="602" cy="1320" r="6" class="c0"/>
<circle cx="556" cy="1406" r="6" class="c0"/>
<circle cx="518" cy="366" r="6" class="c0"/>
<circle cx="700" cy="1070" r="6" class="c0"/>
<circle cx="726" cy="1416" r="6" class="c0"/>
<circle cx="496" cy="1136" r="6" class="c0"/>
<circle cx="658" cy="1182" r="6" class="c0"/>
<circle cx="588" cy="1100" r="6" class="c0"/>
<circle cx="502" cy="798" r="6" class="c0"/>
<circle cx="628" cy="1394" r="6" class="c0"/>
<circle cx="594" cy="1272" r="6" class="c0"/>
<circle cx="632" cy="544" r="6" class="c0"/>
<circle cx="598" cy="518" r="6" class="c0"/>
<circle cx="672" cy="1020" r="6" class="c0"/>
<circle cx="502" cy="1432" r="6" class="c0"/>
<circle cx="632" cy="970" r="6" class="c0"/>
<circle cx="714" cy="1226" r="6" class="c0"/>
<circle cx="614" cy="460" r="6" class="c0"/>
<circle cx="720" cy="1164" r="6" class="c0"/>
<circle cx="620" cy="1044" r="6" class="c0"/>
<circle cx="552" cy="572" r="6" class="c0"/>
<circle cx="612" cy="836" r="6" class="c0"/>
<circle cx="678" cy="714" r="6" class="c0"/>
<circle cx="588" cy="924" r="6" class="c0"/>
<circle cx="712" cy="1154" r="6" class="c0"/>
<circle cx="652" cy="1144" r="6" class="c0"/>
<circle cx="714" cy="1356" r="6" class="c0"/>
<circle cx="544" cy="1428" r="6" class="c0"/>
<circle cx="620" cy="1348" r="6" class="c0"/>
<circle cx="630" cy="672" r="6" class="c0"/>
<circle cx="648" cy="932" r="6" class="c0"/>
<circle cx="626" cy="744" r="6" class="c0"/>
<circle cx="458" cy="1410" r="6" class="c0"/>
<circle cx="568" cy="276" r="6" class="c0"/>
<circle cx="632" cy="296" r="6" class="c0"/>
<circle cx="566" cy="772" r="6" class="c0"/>
<circle cx="518" cy="1282" r="6" class="c0"/>
<circle cx="582" cy="1432" r="6" class="c0"/>
<circle cx="632" cy="926" r="6" class="c0"/>
<circle cx="630" cy="276" r="6" class="c0"/>
<circle cx="546" cy="1338" r="6" class="c0"/>
<circle cx="456" cy="1148" r="6" class="c0"/>
<circle cx="740" cy="1214" r="6" class="c0"/>
<circle cx="692" cy="930" r="6" class="c0"/>
<circle cx="516" cy="946" r="6" class="c0"/>
<circle cx="716" cy="382" r="6" class="c0"/>
<circle cx="696" cy="1190" r="6" class="c0"/>
<circle cx="622" cy="452" r="6" class="c0"/>
<circle cx="482" cy="1276" r="6" class="c0"/>
<circle cx="576" cy="858" r="6" class="c0"/>
<circle cx="738" cy="400" r="6" class="c0"/>
<circle cx="562" cy="350" r="6" class="c0"/>
<circle cx="578" cy="764" r="6" class="c0"/>
<circle cx="466" cy="1244" r="6" class="c0"/>
<circle cx="554" cy="1200" r="6" class="c0"/>
<circle cx="600" cy="1198" r="6" class="c0"/>
<circle cx="586" cy="402" r="6" class="c0"/>
<circle cx="580" cy="838" r="6" class="c0"/>
<circle cx="708" cy="1084" r="6" class="c0"/>
<circle cx="736" cy="1432" r="6" class="c0"/>
<circle cx="610" cy="636" r="6" class="c0"/>
<circle cx="660" cy="1136" r="6" class="c0"/>
<circle cx="572" cy="1368" r="6" class="c0"/>
<circle cx="640" cy="1374" r="6" class="c0"/>
<circle cx="648" cy="948" r="6" class="c0"/>
<circle cx="524" cy="726" r="6" class="c0"/>
<circle cx="638" cy="558" r="6" class="c0"/>
<circle cx="512" cy="1142" r="6" class="c0"/>
<circle cx="676" cy="314" r="6" class="c0"/>
<circle cx="642" cy="1192" r="6" class="c0"/>
<circle cx="728" cy="1090" r="6" class="c0"/>
<circle cx="530" cy="1414" r="6" class="c0"/>
<circle cx="594" cy="640" r="6" class="c0"/>
<circle cx="682" cy="940" r="6" class="c0"/>
<circle cx="630" cy="1014" r="6" class="c0"/>
<circle cx="570" cy="564" r="6" class="c0"/>
<circle cx="630" cy="1054" r="6" class="c0"/>
<circle cx="542" cy="1240" r="6" class="c0"/>
<circle cx="516" cy="1172" r="6" class="c0"/>
<circle cx="686" cy="744" r="6" class="c0"/>
<circle cx="600" cy="1144" r="6" class="c0"/>
<circle cx="676" cy="456" r="6" class="c0"/>
<circle cx="614" cy="884" r="6" class="c0"/>
<circle cx="480" cy="1072" r="6" class="c0"/>
<circle cx="532" cy="700" r="6" class="c0"/>
<circle cx="600" cy="674" r="6" class="c0"/>
<circle cx="494" cy="616" r="6" class="c0"/>
<circle cx="468" cy="1120" r="6" class="c0"/>
<circle cx="432" cy="1188" r="6" class="c0"/>
<circle cx="730" cy="1318" r="6" class="c0"/>
<circle cx="636" cy="1104" r="6" class="c0"/>
<circle cx="426" cy="1308" r="6" class="c0"/>
<circle cx="648" cy="1226" r="6" class="c0"/>
<circle cx="724" cy="1044" r="6" class="c0"/>
<circle cx="476" cy="918" r="6" class="c0"/>
<circle cx="580" cy="1360" r="6" class="c0"/>
<circle cx="532" cy="328" r="6" class="c0"/>
<circle cx="560" cy="706" r="6" class="c0"/>
<circle cx="610" cy="374" r="6" class="c0"/>
<circle cx="438" cy="1242" r="6" class="c0"/>
<circle cx="518" cy="1092" r="6" class="c0"/>
<circle cx="616" cy="598" r="6" class="c0"/>
<circle cx="468" cy="1318" r="6" class="c0"/>
<circle cx="450" cy="1294" r="6" class="c0"/>
<circle cx="484" cy="1170" r="6" class="c0"/>
<circle cx="598" cy="820" r="6" class="c0"/>
<circle cx="740" cy="1112" r="6" class="c0"/>
<circle cx="552" cy="536" r="6" class="c0"/>
<circle cx="590" cy="908" r="6" class="c0"/>
<circle cx="424" cy="1382" r="6" class="c0"/>
<circle cx="518" cy="794" r="6" class="c0"/>
<circle cx="694" cy="1380" r="6" class="c0"/>
<circle cx="522" cy="592" r="6" class="c0"/>
<circle cx="638" cy="264" r="6" class="c0"/>
<circle cx="526" cy="1080" r="6" class="c0"/>
<circle cx="666" cy="304" r="6" class="c0"/>
<circle cx="680" cy="872" r="6" class="c0"/>
<circle cx="706" cy="408" r="6" class="c0"/>
<circle cx="478" cy="1234" r="6" class="c0"/>
<circle cx="442" cy="1122" r="6" class="c0"/>
<circle cx="474" cy="1038" r="6" class="c0"/>
<circle cx="586" cy="890" r="6" class="c0"/>
<circle cx="746" cy="1336" r="6" class="c0"/>
<circle cx="606" cy="1076" r="6" class="c0"/>
<circle cx="694" cy="1028" r="6" class="c0"/>
<circle cx="588" cy="714" r="6" class="c0"/>
<circle cx="514" cy="910" r="6" class="c0"/>
<circle cx="510" cy="356" r="6" class="c0"/>
<circle cx="678" cy="574" r="6" class="c0"/>
<circle cx="576" cy="964" r="6" class="c0"/>
<circle cx="702" cy="1016" r="6" class="c0"/>
<circle cx="568" cy="452" r="6" class="c0"/>
<circle cx="654" cy="1052" r="6" class="c0"/>
<circle cx="522" cy="1218" r="6" class="c0"/>
<circle cx="736" cy="386" r="6" class="c0"/>
<circle cx="588" cy="336" r="6" class="c0"/>
<circle cx="576" cy="1168" r="6" class="c0"/>
<circle cx="744" cy="424" r="6" class="c0"/>
<circle cx="682" cy="906" r="6" class="c0"/>
<circle cx="554" cy="336" r="6" class="c0"/>
<circle cx="482" cy="862" r="6" class="c0"/>
<circle cx="640" cy="1236" r="6" class="c0"/>
<circle cx="596" cy="792" r="6" class="c0"/>
<circle cx="680" cy="408" r="6" class="c0"/>
<circle cx="682" cy="1280" r="6" class="c0"/>
<circle cx="656" cy="1276" r="6" class="c0"/>
<circle cx="654" cy="630" r="6" class="c0"/>
<circle cx="742" cy="1134" r="6" class="c0"/>
<circle cx="688" cy="1330" r="6" class="c0"/>
<circle cx="524" cy="1270" r="6" class="c0"/>
<circle cx="782" cy="1432" r="6" class="c0"/>
<circle cx="660" cy="1332" r="6" class="c0"/>
<circle cx="636" cy="1256" r="6" class="c0"/>
<circle cx="668" cy="1194" r="6" class="c0"/>
<circle cx="466" cy="1140" r="6" class="c0"/>
<circle cx="600" cy="626" r="6" class="c0"/>
<circle cx="494" cy="656" r="6" class="c0"/>
<circle cx="630" cy="1198" r="6" class="c0"/>
<circle cx="646" cy="446" r="6" class="c0"/>
<circle cx="556" cy="932" r="6" class="c0"/>
<circle cx="666" cy="708" r="6" class="c0"/>
<circle cx="730" cy="442" r="6" class="c0"/>
<circle cx="706" cy="1234" r="6" class="c0"/>
<circle cx="702" cy="962" r="6" class="c0"/>
<circle cx="662" cy="1230" r="6" class="c0"/>
<circle cx="596" cy="984" r="6" class="c0"/>
<circle cx="654" cy="890" r="6" class="c0"/>
<circle cx="692" cy="1432" r="6" class="c0"/>
<circle cx="536" cy="298" r="6" class="c0"/>
<circle cx="644" cy="976" r="6" class="c0"/>
<circle cx="556" cy="504" r="6" class="c0"/>
<circle cx="560" cy="892" r="6" class="c0"/>
<circle cx="628" cy="838" r="6" class="c0"/>
<circle cx="698" cy="1152" r="6" class="c0"/>
<circle cx="544" cy="816" r="6" class="c0"/>
<circle cx="620" cy="422" r="6" class="c0"/>
<circle cx="492" cy="806" r="6" class="c0"/>
<circle cx="450" cy="1064" r="6" class="c0"/>
<circle cx="768" cy="1340" r="6" class="c0"/>
<circle cx="520" cy="1396" r="6" class="c0"/>
<circle cx="754" cy="1248" r="6" class="c0"/>
<circle cx="532" cy="980" r="6" class="c0"/>
<circle cx="644" cy="1430" r="6" class="c0"/>
<circle cx="660" cy="808" r="6" class="c0"/>
<circle cx="420" cy="1408" r="6" class="c0"/>
<circle cx="476" cy="1376" r="6" class="c0"/>
<circle cx="678" cy="980" r="6" class="c0"/>
<circle cx="494" cy="1102" r="6" class="c0"/>
<circle cx="568" cy="714" r="6" class="c0"/>
<circle cx="494" cy="1424" r="6" class="c0"/>
<circle cx="430" cy="1250" r="6" class="c0"/>
<circle cx="660" cy="594" r="6" class="c0"/>
<circle cx="612" cy="474" r="6" class="c0"/>
<circle cx="582" cy="1058" r="6" class="c0"/>
<circle cx="588" cy="362" r="6" class="c0"/>
<circle cx="470" cy="1208" r="6" class="c0"/>
<circle cx="502" cy="1368" r="6" class="c0"/>
<circle cx="522" cy="380" r="6" class="c0"/>
<circle cx="520" cy="1154" r="6" class="c0"/>
<circle cx="598" cy="916" r="6" class="c0"/>
<circle cx="620" cy="306" r="6" class="c0"/>
<circle cx="746" cy="1168" r="6" class="c0"/>
<circle cx="540" cy="274" r="6" class="c0"/>
<circle cx="712" cy="1120" r="6" class="c0"/>
</svg>
