<?xml version="1.0" encoding="utf-8"?>
<svg xmlns="http://www.w3.org/2000/svg"
     xmlns:xlink="http://www.w3.org/1999/xlink" width="1920" height="1440" >

            <defs>
            <style type="text/css"><![CDATA[
circle {stroke: none;}
.c0 {fill: #000000;}
]]></style>
            </defs>
<rect x="0" y="0" width="1920" height="1440" fill="white"/>
<circle cx="1072" cy="576" r="12" class="c0"/>
<circle cx="840" cy="468" r="12" class="c0"/>
<circle cx="1156" cy="816" r="12" class="c0"/>
<circle cx="1136" cy="650" r="12" class="c0"/>
<circle cx="1040" cy="548" r="12" class="c0"/>
<circle cx="924" cy="622" r="12" class="c0"/>
<circle cx="958" cy="506" r="12" class="c0"/>
<circle cx="1090" cy="842" r="12" class="c0"/>
<circle cx="1048" cy="424" r="12" class="c0"/>
<circle cx="840" cy="632" r="12" class="c0"/>
<circle cx="1180" cy="460" r="12" class="c0"/>
<circle cx="1072" cy="480" r="12" class="c0"/>
<circle cx="1074" cy="550" r="12" class="c0"/>
<circle cx="964" cy="830" r="12" class="c0"/>
<circle cx="886" cy="514" r="12" class="c0"/>
<circle cx="1220" cy="530" r="12" class="c0"/>
<circle cx="824" cy="764" r="12" class="c0"/>
<circle cx="1116" cy="504" r="12" class="c0"/>
<circle cx="1082" cy="598" r="12" class="c0"/>
<circle cx="750" cy="656" r="12" class="c0"/>
<circle cx="874" cy="766" r="12" class="c0"/>
<circle cx="1130" cy="446" r="12" class="c0"/>
<circle cx="1008" cy="578" r="12" class="c0"/>
<circle cx="1194" cy="536" r="12" class="c0"/>
<circle cx="1040" cy="848" r="12" class="c0"/>
<circle cx="920" cy="768" r="12" class="c0"/>
<circle cx="1142" cy="762" r="12" class="c0"/>
<circle cx="1088" cy="666" r="12" class="c0"/>
<circle cx="962" cy="460" r="12" class="c0"/>
<circle cx="868" cy="462" r="10" class="c0"/>
<circle cx="1026" cy="684" r="10" class="c0"/>
<circle cx="992" cy="738" r="10" class="c0"/>
<circle cx="802" cy="626" r="10" class="c0"/>
<circle cx="1166" cy="684" r="10" class="c0"/>
<circle cx="1000" cy="650" r="10" class="c0"/>
<circle cx="1020" cy="486" r="10" class="c0"/>
<circle cx="1056" cy="676" r="10" class="c0"/>
<circle cx="810" cy="586" r="10" class="c0"/>
<circle cx="858" cy="432" r="10" class="c0"/>
<circle cx="888" cy="694" r="10" class="c0"/>
<circle cx="1038" cy="590" r="10" class="c0"/>
<circle cx="804" cy="746" r="10" class="c0"/>
<circle cx="1104" cy="732" r="10" class="c0"/>
<circle cx="1110" cy="830" r="10" class="c0"/>
<circle cx="1130" cy="806" r="10" class="c0"/>
<circle cx="766" cy="696" r="10" class="c0"/>
<circle cx="1048" cy="512" r="10" class="c0"/>
<circle cx="1026" cy="648" r="10" class="c0"/>
<circle cx="1248" cy="550" r="10" class="c0"/>
<circle cx="1228" cy="588" r="10" class="c0"/>
<circle cx="950" cy="732" r="10" class="c0"/>
<circle cx="1216" cy="478" r="10" class="c0"/>
<circle cx="1146" cy="854" r="10" class="c0"/>
<circle cx="976" cy="474" r="10" class="c0"/>
<circle cx="1008" cy="404" r="10" class="c0"/>
<circle cx="1102" cy="440" r="10" class="c0"/>
<circle cx="824" cy="718" r="10" class="c0"/>
<circle cx="778" cy="660" r="10" class="c0"/>
<circle cx="822" cy="534" r="10" class="c0"/>
<circle cx="1028" cy="456" r="10" class="c0"/>
<circle cx="1224" cy="700" r="10" class="c0"/>
<circle cx="1130" cy="736" r="10" class="c0"/>
<circle cx="842" cy="510" r="10" class="c0"/>
<circle cx="1228" cy="494" r="10" class="c0"/>
<circle cx="1014" cy="754" r="10" class="c0"/>
<circle cx="1140" cy="564" r="10" class="c0"/>
<circle cx="984" cy="568" r="10" class="c0"/>
<circle cx="1068" cy="862" r="10" class="c0"/>
<circle cx="988" cy="534" r="10" class="c0"/>
<circle cx="1074" cy="786" r="10" class="c0"/>
<circle cx="1194" cy="568" r="10" class="c0"/>
<circle cx="1062" cy="772" r="10" class="c0"/>
<circle cx="1046" cy="796" r="10" class="c0"/>
<circle cx="930" cy="508" r="10" class="c0"/>
<circle cx="1096" cy="692" r="10" class="c0"/>
<circle cx="882" cy="480" r="10" class="c0"/>
<circle cx="956" cy="662" r="10" class="c0"/>
<circle cx="996" cy="600" r="10" class="c0"/>
<circle cx="868" cy="806" r="10" class="c0"/>
<circle cx="1200" cy="630" r="10" class="c0"/>
<circle cx="1214" cy="618" r="10" class="c0"/>
<circle cx="912" cy="682" r="10" class="c0"/>
<circle cx="1032" cy="400" r="10" class="c0"/>
<circle cx="1102" cy="480" r="10" class="c0"/>
<circle cx="942" cy="374" r="10" class="c0"/>
<circle cx="838" cy="586" r="10" class="c0"/>
<circle cx="1056" cy="612" r="10" class="c0"/>
<circle cx="1114" cy="682" r="10" class="c0"/>
<circle cx="874" cy="662" r="10" class="c0"/>
<circle cx="1186" cy="702" r="10" class="c0"/>
<circle cx="762" cy="618" r="10" class="c0"/>
<circle cx="864" cy="720" r="10" class="c0"/>
<circle cx="1010" cy="532" r="10" class="c0"/>
<circle cx="876" cy="442" r="10" class="c0"/>
<circle cx="940" cy="438" r="10" class="c0"/>
<circle cx="948" cy="634" r="10" class="c0"/>
<circle cx="902" cy="746" r="10" class="c0"/>
<circle cx="948" cy="484" r="10" class="c0"/>
<circle cx="892" cy="546" r="10" class="c0"/>
<circle cx="1202" cy="490" r="10" class="c0"/>
<circle cx="1094" cy="814" r="10" class="c0"/>
<circle cx="1080" cy="446" r="10" class="c0"/>
<circle cx="1144" cy="788" r="10" class="c0"/>
<circle cx="1010" cy="824" r="10" class="c0"/>
<circle cx="782" cy="684" r="10" class="c0"/>
<circle cx="1000" cy="678" r="10" class="c0"/>
<circle cx="926" cy="466" r="10" class="c0"/>
<circle cx="824" cy="610" r="10" class="c0"/>
<circle cx="1130" cy="708" r="10" class="c0"/>
<circle cx="1172" cy="722" r="10" class="c0"/>
<circle cx="1226" cy="676" r="10" class="c0"/>
<circle cx="1176" cy="798" r="10" class="c0"/>
<circle cx="990" cy="436" r="10" class="c0"/>
<circle cx="1096" cy="516" r="10" class="c0"/>
<circle cx="1026" cy="612" r="10" class="c0"/>
<circle cx="978" cy="614" r="10" class="c0"/>
<circle cx="776" cy="736" r="10" class="c0"/>
<circle cx="904" cy="494" r="8" class="c0"/>
<circle cx="954" cy="578" r="8" class="c0"/>
<circle cx="922" cy="698" r="8" class="c0"/>
<circle cx="1110" cy="552" r="8" class="c0"/>
<circle cx="902" cy="476" r="8" class="c0"/>
<circle cx="1154" cy="632" r="8" class="c0"/>
<circle cx="878" cy="790" r="8" class="c0"/>
<circle cx="934" cy="558" r="8" class="c0"/>
<circle cx="842" cy="532" r="8" class="c0"/>
<circle cx="1062" cy="708" r="8" class="c0"/>
<circle cx="852" cy="548" r="8" class="c0"/>
<circle cx="956" cy="532" r="8" class="c0"/>
<circle cx="1070" cy="816" r="8" class="c0"/>
<circle cx="794" cy="704" r="8" class="c0"/>
<circle cx="820" cy="570" r="8" class="c0"/>
<circle cx="1044" cy="872" r="8" class="c0"/>
<circle cx="836" cy="788" r="8" class="c0"/>
<circle cx="1012" cy="698" r="8" class="c0"/>
<circle cx="854" cy="484" r="8" class="c0"/>
<circle cx="1220" cy="758" r="8" class="c0"/>
<circle cx="844" cy="754" r="8" class="c0"/>
<circle cx="1098" cy="582" r="8" class="c0"/>
<circle cx="858" cy="592" r="8" class="c0"/>
<circle cx="1136" cy="544" r="8" class="c0"/>
<circle cx="1166" cy="758" r="8" class="c0"/>
<circle cx="812" cy="506" r="8" class="c0"/>
<circle cx="1240" cy="714" r="8" class="c0"/>
<circle cx="1074" cy="732" r="8" class="c0"/>
<circle cx="994" cy="764" r="8" class="c0"/>
<circle cx="1154" cy="450" r="8" class="c0"/>
<circle cx="1048" cy="744" r="8" class="c0"/>
<circle cx="1188" cy="590" r="8" class="c0"/>
<circle cx="1160" cy="548" r="8" class="c0"/>
<circle cx="922" cy="408" r="8" class="c0"/>
<circle cx="916" cy="602" r="8" class="c0"/>
<circle cx="1000" cy="800" r="8" class="c0"/>
<circle cx="1198" cy="776" r="8" class="c0"/>
<circle cx="1236" cy="628" r="8" class="c0"/>
<circle cx="890" cy="570" r="8" class="c0"/>
<circle cx="1114" cy="458" r="8" class="c0"/>
<circle cx="1250" cy="604" r="8" class="c0"/>
<circle cx="1084" cy="762" r="8" class="c0"/>
<circle cx="944" cy="848" r="8" class="c0"/>
<circle cx="1128" cy="522" r="8" class="c0"/>
<circle cx="1224" cy="646" r="8" class="c0"/>
<circle cx="1082" cy="624" r="8" class="c0"/>
<circle cx="1096" cy="542" r="8" class="c0"/>
<circle cx="1150" cy="426" r="8" class="c0"/>
<circle cx="806" cy="774" r="8" class="c0"/>
<circle cx="1036" cy="734" r="8" class="c0"/>
<circle cx="978" cy="754" r="8" class="c0"/>
<circle cx="1000" cy="454" r="8" class="c0"/>
<circle cx="1204" cy="446" r="8" class="c0"/>
<circle cx="922" cy="532" r="8" class="c0"/>
<circle cx="972" cy="370" r="8" class="c0"/>
<circle cx="910" cy="386" r="8" class="c0"/>
<circle cx="772" cy="570" r="8" class="c0"/>
<circle cx="918" cy="444" r="8" class="c0"/>
<circle cx="892" cy="612" r="8" class="c0"/>
<circle cx="976" cy="644" r="8" class="c0"/>
<circle cx="914" cy="580" r="8" class="c0"/>
<circle cx="806" cy="662" r="8" class="c0"/>
<circle cx="1114" cy="780" r="8" class="c0"/>
<circle cx="918" cy="792" r="8" class="c0"/>
<circle cx="1020" cy="382" r="8" class="c0"/>
<circle cx="1066" cy="402" r="8" class="c0"/>
<circle cx="1154" cy="736" r="8" class="c0"/>
<circle cx="960" cy="782" r="8" class="c0"/>
<circle cx="924" cy="654" r="8" class="c0"/>
<circle cx="1202" cy="682" r="8" class="c0"/>
<circle cx="1244" cy="662" r="8" class="c0"/>
<circle cx="1148" cy="492" r="8" class="c0"/>
<circle cx="996" cy="708" r="8" class="c0"/>
<circle cx="1144" cy="834" r="8" class="c0"/>
<circle cx="994" cy="484" r="8" class="c0"/>
<circle cx="962" cy="802" r="8" class="c0"/>
<circle cx="1182" cy="498" r="8" class="c0"/>
<circle cx="1002" cy="628" r="8" class="c0"/>
<circle cx="864" cy="684" r="8" class="c0"/>
<circle cx="788" cy="540" r="8" class="c0"/>
<circle cx="1048" cy="656" r="8" class="c0"/>
<circle cx="778" cy="602" r="8" class="c0"/>
<circle cx="1122" cy="590" r="8" class="c0"/>
<circle cx="852" cy="568" r="8" class="c0"/>
<circle cx="1188" cy="642" r="8" class="c0"/>
<circle cx="1206" cy="652" r="8" class="c0"/>
<circle cx="870" cy="620" r="8" class="c0"/>
<circle cx="994" cy="844" r="8" class="c0"/>
<circle cx="976" cy="812" r="8" class="c0"/>
<circle cx="996" cy="366" r="8" class="c0"/>
<circle cx="784" cy="758" r="8" class="c0"/>
<circle cx="964" cy="592" r="8" class="c0"/>
<circle cx="958" cy="412" r="8" class="c0"/>
<circle cx="1110" cy="406" r="8" class="c0"/>
<circle cx="910" cy="820" r="8" class="c0"/>
<circle cx="958" cy="712" r="8" class="c0"/>
<circle cx="1112" cy="616" r="8" class="c0"/>
<circle cx="1050" cy="568" r="8" class="c0"/>
<circle cx="936" cy="398" r="8" class="c0"/>
<circle cx="980" cy="792" r="8" class="c0"/>
<circle cx="1118" cy="532" r="8" class="c0"/>
<circle cx="1042" cy="472" r="8" class="c0"/>
<circle cx="1148" cy="716" r="8" class="c0"/>
<circle cx="1212" cy="720" r="8" class="c0"/>
<circle cx="1220" cy="568" r="8" class="c0"/>
<circle cx="1040" cy="490" r="8" class="c0"/>
<circle cx="1018" cy="774" r="8" class="c0"/>
<circle cx="1188" cy="818" r="8" class="c0"/>
<circle cx="972" cy="692" r="8" class="c0"/>
<circle cx="1146" cy="532" r="8" class="c0"/>
<circle cx="1034" cy="702" r="8" class="c0"/>
<circle cx="1176" cy="660" r="8" class="c0"/>
<circle cx="1166" cy="834" r="8" class="c0"/>
<circle cx="868" cy="534" r="8" class="c0"/>
<circle cx="1172" cy="578" r="8" class="c0"/>
<circle cx="1122" cy="482" r="8" class="c0"/>
<circle cx="880" cy="408" r="8" class="c0"/>
<circle cx="1098" cy="752" r="8" class="c0"/>
<circle cx="1152" cy="584" r="8" class="c0"/>
<circle cx="1002" cy="504" r="8" class="c0"/>
<circle cx="798" cy="556" r="8" class="c0"/>
<circle cx="1176" cy="436" r="8" class="c0"/>
<circle cx="986" cy="512" r="8" class="c0"/>
<circle cx="946" cy="794" r="8" class="c0"/>
<circle cx="1080" cy="712" r="8" class="c0"/>
<circle cx="934" cy="716" r="8" class="c0"/>
<circle cx="1030" cy="814" r="8" class="c0"/>
<circle cx="904" cy="900" r="8" class="c0"/>
<circle cx="806" cy="694" r="8" class="c0"/>
<circle cx="1074" cy="518" r="8" class="c0"/>
<circle cx="1178" cy="770" r="8" class="c0"/>
<circle cx="872" cy="638" r="8" class="c0"/>
<circle cx="1036" cy="628" r="8" class="c0"/>
<circle cx="1138" cy="682" r="8" class="c0"/>
<circle cx="1016" cy="666" r="8" class="c0"/>
<circle cx="1240" cy="576" r="8" class="c0"/>
<circle cx="1208" cy="580" r="8" class="c0"/>
<circle cx="902" cy="430" r="8" class="c0"/>
<circle cx="888" cy="722" r="8" class="c0"/>
<circle cx="872" cy="602" r="8" class="c0"/>
<circle cx="904" cy="656" r="8" class="c0"/>
<circle cx="890" cy="636" r="8" class="c0"/>
<circle cx="1072" cy="650" r="8" class="c0"/>
<circle cx="1088" cy="742" r="8" class="c0"/>
<circle cx="1142" cy="598" r="8" class="c0"/>
<circle cx="1064" cy="836" r="8" class="c0"/>
<circle cx="900" cy="398" r="8" class="c0"/>
<circle cx="928" cy="884" r="8" class="c0"/>
<circle cx="862" cy="502" r="8" class="c0"/>
<circle cx="976" cy="710" r="8" class="c0"/>
<circle cx="936" cy="830" r="8" class="c0"/>
<circle cx="1104" cy="798" r="8" class="c0"/>
<circle cx="1090" cy="422" r="8" class="c0"/>
<circle cx="1118" cy="852" r="8" class="c0"/>
<circle cx="898" cy="802" r="8" class="c0"/>
<circle cx="1022" cy="712" r="8" class="c0"/>
<circle cx="910" cy="554" r="8" class="c0"/>
<circle cx="1206" cy="740" r="8" class="c0"/>
<circle cx="886" cy="590" r="8" class="c0"/>
<circle cx="918" cy="914" r="8" class="c0"/>
<circle cx="1168" cy="486" r="8" class="c0"/>
<circle cx="840" cy="672" r="8" class="c0"/>
<circle cx="1116" cy="642" r="8" class="c0"/>
<circle cx="1012" cy="856" r="8" class="c0"/>
<circle cx="1178" cy="622" r="8" class="c0"/>
<circle cx="1206" cy="798" r="8" class="c0"/>
<circle cx="988" cy="402" r="8" class="c0"/>
<circle cx="1160" cy="776" r="8" class="c0"/>
<circle cx="1202" cy="516" r="8" class="c0"/>
<circle cx="900" cy="450" r="8" class="c0"/>
<circle cx="1180" cy="740" r="8" class="c0"/>
<circle cx="1014" cy="430" r="8" class="c0"/>
<circle cx="1242" cy="690" r="8" class="c0"/>
<circle cx="1168" cy="600" r="8" class="c0"/>
<circle cx="926" cy="592" r="8" class="c0"/>
<circle cx="778" cy="550" r="8" class="c0"/>
<circle cx="1064" cy="436" r="8" class="c0"/>
<circle cx="910" cy="514" r="8" class="c0"/>
<circle cx="774" cy="638" r="8" class="c0"/>
<circle cx="958" cy="550" r="8" class="c0"/>
<circle cx="1186" cy="672" r="8" class="c0"/>
<circle cx="902" cy="782" r="8" class="c0"/>
<circle cx="944" cy="756" r="8" class="c0"/>
<circle cx="914" cy="734" r="8" class="c0"/>
<circle cx="980" cy="664" r="8" class="c0"/>
<circle cx="1102" cy="870" r="8" class="c0"/>
<circle cx="792" cy="646" r="8" class="c0"/>
<circle cx="1022" cy="838" r="8" class="c0"/>
<circle cx="826" cy="484" r="8" class="c0"/>
<circle cx="972" cy="424" r="8" class="c0"/>
<circle cx="942" cy="690" r="8" class="c0"/>
<circle cx="844" cy="708" r="8" class="c0"/>
<circle cx="986" cy="384" r="8" class="c0"/>
<circle cx="1140" cy="620" r="8" class="c0"/>
<circle cx="860" cy="650" r="8" class="c0"/>
<circle cx="1130" cy="410" r="8" class="c0"/>
<circle cx="1232" cy="740" r="8" class="c0"/>
<circle cx="832" cy="696" r="8" class="c0"/>
<circle cx="1092" cy="634" r="8" class="c0"/>
<circle cx="868" cy="560" r="8" class="c0"/>
<circle cx="846" cy="778" r="8" class="c0"/>
<circle cx="1084" cy="504" r="8" class="c0"/>
<circle cx="828" cy="742" r="8" class="c0"/>
<circle cx="1070" cy="692" r="8" class="c0"/>
<circle cx="862" cy="746" r="8" class="c0"/>
<circle cx="1016" cy="554" r="8" class="c0"/>
<circle cx="892" cy="672" r="8" class="c0"/>
<circle cx="1156" cy="516" r="8" class="c0"/>
<circle cx="1144" cy="472" r="8" class="c0"/>
<circle cx="1172" cy="558" r="8" class="c0"/>
<circle cx="854" cy="794" r="8" class="c0"/>
<circle cx="950" cy="612" r="8" class="c0"/>
<circle cx="1030" cy="502" r="8" class="c0"/>
<circle cx="912" cy="710" r="8" class="c0"/>
<circle cx="926" cy="854" r="8" class="c0"/>
<circle cx="1116" cy="662" r="8" class="c0"/>
<circle cx="936" cy="808" r="8" class="c0"/>
<circle cx="838" cy="558" r="8" class="c0"/>
<circle cx="1030" cy="572" r="8" class="c0"/>
<circle cx="1056" cy="638" r="8" class="c0"/>
<circle cx="818" cy="652" r="8" class="c0"/>
<circle cx="758" cy="714" r="8" class="c0"/>
<circle cx="846" cy="606" r="8" class="c0"/>
<circle cx="936" cy="868" r="8" class="c0"/>
<circle cx="880" cy="738" r="8" class="c0"/>
<circle cx="756" cy="680" r="8" class="c0"/>
<circle cx="1120" cy="756" r="8" class="c0"/>
<circle cx="1222" cy="730" r="8" class="c0"/>
<circle cx="934" cy="664" r="8" class="c0"/>
<circle cx="1094" cy="564" r="8" class="c0"/>
<circle cx="970" cy="394" r="8" class="c0"/>
<circle cx="1052" cy="824" r="8" class="c0"/>
<circle cx="936" cy="418" r="8" class="c0"/>
<circle cx="758" cy="596" r="8" class="c0"/>
<circle cx="1044" cy="388" r="8" class="c0"/>
<circle cx="1060" cy="458" r="8" class="c0"/>
<circle cx="1138" cy="512" r="8" class="c0"/>
<circle cx="790" cy="588" r="8" class="c0"/>
<circle cx="1168" cy="530" r="8" class="c0"/>
<circle cx="1086" cy="466" r="8" class="c0"/>
<circle cx="1188" cy="610" r="8" class="c0"/>
<circle cx="960" cy="682" r="8" class="c0"/>
<circle cx="1060" cy="754" r="6" class="c0"/>
<circle cx="1120" cy="572" r="6" class="c0"/>
<circle cx="810" cy="728" r="6" class="c0"/>
<circle cx="1214" cy="774" r="6" class="c0"/>
<circle cx="1036" cy="768" r="6" class="c0"/>
<circle cx="1056" cy="534" r="6" class="c0"/>
<circle cx="1162" cy="468" r="6" class="c0"/>
<circle cx="1006" cy="784" r="6" class="c0"/>
<circle cx="1162" cy="412" r="6" class="c0"/>
<circle cx="1056" cy="494" r="6" class="c0"/>
<circle cx="1066" cy="502" r="6" class="c0"/>
<circle cx="798" cy="606" r="6" class="c0"/>
<circle cx="1032" cy="522" r="6" class="c0"/>
<circle cx="976" cy="776" r="6" class="c0"/>
<circle cx="918" cy="424" r="6" class="c0"/>
<circle cx="1162" cy="616" r="6" class="c0"/>
<circle cx="1214" cy="506" r="6" class="c0"/>
<circle cx="1046" cy="690" r="6" class="c0"/>
<circle cx="936" cy="576" r="6" class="c0"/>
<circle cx="1258" cy="638" r="6" class="c0"/>
<circle cx="1086" cy="406" r="6" class="c0"/>
<circle cx="1086" cy="530" r="6" class="c0"/>
<circle cx="976" cy="496" r="6" class="c0"/>
<circle cx="776" cy="712" r="6" class="c0"/>
<circle cx="994" cy="816" r="6" class="c0"/>
<circle cx="1152" cy="660" r="6" class="c0"/>
<circle cx="1130" cy="630" r="6" class="c0"/>
<circle cx="1000" cy="550" r="6" class="c0"/>
<circle cx="820" cy="630" r="6" class="c0"/>
<circle cx="912" cy="640" r="6" class="c0"/>
<circle cx="1072" cy="748" r="6" class="c0"/>
<circle cx="1154" cy="698" r="6" class="c0"/>
<circle cx="1216" cy="552" r="6" class="c0"/>
<circle cx="748" cy="634" r="6" class="c0"/>
<circle cx="936" cy="784" r="6" class="c0"/>
<circle cx="1192" cy="430" r="6" class="c0"/>
<circle cx="970" cy="524" r="6" class="c0"/>
<circle cx="962" cy="380" r="6" class="c0"/>
<circle cx="1206" cy="598" r="6" class="c0"/>
<circle cx="942" cy="456" r="6" class="c0"/>
<circle cx="842" cy="654" r="6" class="c0"/>
<circle cx="1256" cy="578" r="6" class="c0"/>
<circle cx="1172" cy="420" r="6" class="c0"/>
<circle cx="1056" cy="586" r="6" class="c0"/>
<circle cx="1106" cy="766" r="6" class="c0"/>
<circle cx="1106" cy="596" r="6" class="c0"/>
<circle cx="1012" cy="470" r="6" class="c0"/>
<circle cx="806" cy="522" r="6" class="c0"/>
<circle cx="1100" cy="652" r="6" class="c0"/>
<circle cx="822" cy="678" r="6" class="c0"/>
<circle cx="1018" cy="736" r="6" class="c0"/>
<circle cx="1094" cy="398" r="6" class="c0"/>
<circle cx="990" cy="780" r="6" class="c0"/>
<circle cx="970" cy="540" r="6" class="c0"/>
<circle cx="1030" cy="788" r="6" class="c0"/>
<circle cx="930" cy="740" r="6" class="c0"/>
<circle cx="1196" cy="470" r="6" class="c0"/>
<circle cx="1242" cy="526" r="6" class="c0"/>
<circle cx="968" cy="724" r="6" class="c0"/>
<circle cx="962" cy="624" r="6" class="c0"/>
<circle cx="1136" cy="582" r="6" class="c0"/>
<circle cx="938" cy="540" r="6" class="c0"/>
<circle cx="1204" cy="706" r="6" class="c0"/>
<circle cx="802" cy="720" r="6" class="c0"/>
<circle cx="1208" cy="462" r="6" class="c0"/>
<circle cx="974" cy="446" r="6" class="c0"/>
<circle cx="1230" cy="546" r="6" class="c0"/>
<circle cx="872" cy="704" r="6" class="c0"/>
<circle cx="958" cy="440" r="6" class="c0"/>
<circle cx="1230" cy="606" r="6" class="c0"/>
<circle cx="1020" cy="514" r="6" class="c0"/>
<circle cx="810" cy="488" r="6" class="c0"/>
<circle cx="902" cy="530" r="6" class="c0"/>
<circle cx="1036" cy="440" r="6" class="c0"/>
<circle cx="896" cy="764" r="6" class="c0"/>
<circle cx="1016" cy="802" r="6" class="c0"/>
<circle cx="1162" cy="652" r="6" class="c0"/>
<circle cx="1190" cy="752" r="6" class="c0"/>
<circle cx="978" cy="846" r="6" class="c0"/>
<circle cx="1172" cy="638" r="6" class="c0"/>
<circle cx="1234" cy="516" r="6" class="c0"/>
<circle cx="872" cy="578" r="6" class="c0"/>
<circle cx="1096" cy="784" r="6" class="c0"/>
<circle cx="1104" cy="712" r="6" class="c0"/>
<circle cx="1034" cy="668" r="6" class="c0"/>
<circle cx="946" cy="820" r="6" class="c0"/>
<circle cx="958" cy="764" r="6" class="c0"/>
<circle cx="984" cy="832" r="6" class="c0"/>
<circle cx="1044" cy="778" r="6" class="c0"/>
<circle cx="920" cy="486" r="6" class="c0"/>
<circle cx="1008" cy="724" r="6" class="c0"/>
<circle cx="1194" cy="728" r="6" class="c0"/>
<circle cx="840" cy="732" r="6" class="c0"/>
<circle cx="924" cy="568" r="6" class="c0"/>
<circle cx="794" cy="516" r="6" class="c0"/>
<circle cx="1176" cy="514" r="6" class="c0"/>
<circle cx="1114" cy="422" r="6" class="c0"/>
<circle cx="946" cy="592" r="6" class="c0"/>
<circle cx="964" cy="744" r="6" class="c0"/>
<circle cx="890" cy="462" r="6" class="c0"/>
<circle cx="788" cy="566" r="6" class="c0"/>
<circle cx="1140" cy="400" r="6" class="c0"/>
<circle cx="856" cy="670" r="6" class="c0"/>
<circle cx="1004" cy="384" r="6" class="c0"/>
<circle cx="1088" cy="796" r="6" class="c0"/>
<circle cx="854" cy="452" r="6" class="c0"/>
<circle cx="784" cy="618" r="6" class="c0"/>
<circle cx="1188" cy="786" r="6" class="c0"/>
<circle cx="792" cy="728" r="6" class="c0"/>
<circle cx="800" cy="572" r="6" class="c0"/>
<circle cx="934" cy="606" r="6" class="c0"/>
<circle cx="902" cy="594" r="6" class="c0"/>
<circle cx="810" cy="546" r="6" class="c0"/>
<circle cx="1044" cy="448" r="6" class="c0"/>
<circle cx="1128" cy="832" r="6" class="c0"/>
<circle cx="770" cy="586" r="6" class="c0"/>
<circle cx="1164" cy="706" r="6" class="c0"/>
<circle cx="902" cy="624" r="6" class="c0"/>
<circle cx="952" cy="390" r="6" class="c0"/>
<circle cx="986" cy="720" r="6" class="c0"/>
<circle cx="1120" cy="868" r="6" class="c0"/>
<circle cx="904" cy="414" r="6" class="c0"/>
<circle cx="886" cy="816" r="6" class="c0"/>
<circle cx="1044" cy="714" r="6" class="c0"/>
<circle cx="1080" cy="826" r="6" class="c0"/>
<circle cx="1058" cy="726" r="6" class="c0"/>
<circle cx="1034" cy="754" r="6" class="c0"/>
<circle cx="1246" cy="646" r="6" class="c0"/>
<circle cx="996" cy="416" r="6" class="c0"/>
<circle cx="920" cy="810" r="6" class="c0"/>
<circle cx="848" cy="688" r="6" class="c0"/>
<circle cx="1132" cy="494" r="6" class="c0"/>
<circle cx="882" cy="424" r="6" class="c0"/>
<circle cx="1068" cy="418" r="6" class="c0"/>
<circle cx="842" cy="444" r="6" class="c0"/>
<circle cx="1204" cy="756" r="6" class="c0"/>
<circle cx="794" cy="672" r="6" class="c0"/>
<circle cx="864" cy="782" r="6" class="c0"/>
<circle cx="1012" cy="368" r="6" class="c0"/>
<circle cx="982" cy="590" r="6" class="c0"/>
<circle cx="1092" cy="614" r="6" class="c0"/>
<circle cx="748" cy="698" r="6" class="c0"/>
<circle cx="1018" cy="630" r="6" class="c0"/>
<circle cx="816" cy="786" r="6" class="c0"/>
<circle cx="1028" cy="418" r="6" class="c0"/>
<circle cx="910" cy="864" r="6" class="c0"/>
<circle cx="1082" cy="874" r="6" class="c0"/>
<circle cx="858" cy="520" r="6" class="c0"/>
<circle cx="854" cy="764" r="6" class="c0"/>
<circle cx="888" cy="652" r="6" class="c0"/>
<circle cx="1148" cy="410" r="6" class="c0"/>
<circle cx="856" cy="698" r="6" class="c0"/>
<circle cx="980" cy="550" r="6" class="c0"/>
<circle cx="1128" cy="608" r="6" class="c0"/>
<circle cx="1216" cy="662" r="6" class="c0"/>
<circle cx="944" cy="774" r="6" class="c0"/>
<circle cx="1116" cy="720" r="6" class="c0"/>
<circle cx="926" cy="384" r="6" class="c0"/>
<circle cx="1066" cy="880" r="6" class="c0"/>
<circle cx="1066" cy="626" r="6" class="c0"/>
<circle cx="1128" cy="426" r="6" class="c0"/>
<circle cx="1252" cy="624" r="6" class="c0"/>
<circle cx="1234" cy="560" r="6" class="c0"/>
<circle cx="946" cy="520" r="6" class="c0"/>
<circle cx="824" cy="516" r="6" class="c0"/>
<circle cx="1154" cy="608" r="6" class="c0"/>
<circle cx="982" cy="682" r="6" class="c0"/>
<circle cx="1128" cy="672" r="6" class="c0"/>
<circle cx="968" cy="560" r="6" class="c0"/>
<circle cx="840" cy="492" r="6" class="c0"/>
<circle cx="1026" cy="864" r="6" class="c0"/>
<circle cx="1184" cy="482" r="6" class="c0"/>
<circle cx="930" cy="680" r="6" class="c0"/>
<circle cx="1130" cy="776" r="6" class="c0"/>
<circle cx="990" cy="464" r="6" class="c0"/>
<circle cx="758" cy="732" r="6" class="c0"/>
<circle cx="986" cy="634" r="6" class="c0"/>
<circle cx="1166" cy="506" r="6" class="c0"/>
<circle cx="798" cy="530" r="6" class="c0"/>
<circle cx="928" cy="902" r="6" class="c0"/>
<circle cx="1134" cy="866" r="6" class="c0"/>
<circle cx="1160" cy="568" r="6" class="c0"/>
<circle cx="1020" cy="594" r="6" class="c0"/>
<circle cx="1090" cy="722" r="6" class="c0"/>
<circle cx="1046" cy="760" r="6" class="c0"/>
<circle cx="922" cy="748" r="6" class="c0"/>
<circle cx="1060" cy="806" r="6" class="c0"/>
<circle cx="904" cy="724" r="6" class="c0"/>
<circle cx="944" cy="674" r="6" class="c0"/>
<circle cx="944" cy="568" r="6" class="c0"/>
<circle cx="818" cy="554" r="6" class="c0"/>
<circle cx="1196" cy="662" r="6" class="c0"/>
<circle cx="1050" cy="404" r="6" class="c0"/>
<circle cx="784" cy="720" r="6" class="c0"/>
<circle cx="974" cy="736" r="6" class="c0"/>
<circle cx="974" cy="582" r="6" class="c0"/>
<circle cx="1088" cy="862" r="6" class="c0"/>
<circle cx="1260" cy="594" r="6" class="c0"/>
<circle cx="1112" cy="702" r="6" class="c0"/>
<circle cx="988" cy="694" r="6" class="c0"/>
<circle cx="934" cy="644" r="6" class="c0"/>
<circle cx="982" cy="456" r="6" class="c0"/>
<circle cx="1128" cy="466" r="6" class="c0"/>
<circle cx="828" cy="662" r="6" class="c0"/>
<circle cx="868" cy="418" r="6" class="c0"/>
</svg>
