<?xml version="1.0" encoding="utf-8"?>
<svg xmlns="http://www.w3.org/2000/svg"
     xmlns:xlink="http://www.w3.org/1999/xlink" width="1920" height="1440" >

            <defs>
            <style type="text/css"><![CDATA[
circle {stroke: none;}
.c0 {fill: #000000;}
]]></style>
            </defs>
<rect x="0" y="0" width="1920" height="1440" fill="white"/>
<circle cx="730" cy="1414" r="12" class="c0"/>
<circle cx="504" cy="1274" r="12" class="c0"/>
<circle cx="398" cy="1308" r="12" class="c0"/>
<circle cx="660" cy="1176" r="12" class="c0"/>
<circle cx="614" cy="1298" r="12" class="c0"/>
<circle cx="520" cy="994" r="12" class="c0"/>
<circle cx="628" cy="1156" r="12" class="c0"/>
<circle cx="688" cy="1218" r="12" class="c0"/>
<circle cx="574" cy="452" r="12" class="c0"/>
<circle cx="636" cy="786" r="12" class="c0"/>
<circle cx="682" cy="1038" r="12" class="c0"/>
<circle cx="504" cy="1136" r="12" class="c0"/>
<circle cx="468" cy="1120" r="12" class="c0"/>
<circle cx="516" cy="900" r="12" class="c0"/>
<circle cx="532" cy="802" r="12" class="c0"/>
<circle cx="468" cy="1368" r="12" class="c0"/>
<circle cx="656" cy="868" r="12" class="c0"/>
<circle cx="500" cy="818" r="12" class="c0"/>
<circle cx="566" cy="1350" r="12" class="c0"/>
<circle cx="474" cy="1244" r="12" class="c0"/>
<circle cx="600" cy="360" r="12" class="c0"/>
<circle cx="616" cy="1034" r="12" class="c0"/>
<circle cx="538" cy="1310" r="12" class="c0"/>
<circle cx="606" cy="920" r="12" class="c0"/>
<circle cx="538" cy="660" r="12" class="c0"/>
<circle cx="1412" cy="1410" r="12" class="c0"/>
<circle cx="630" cy="544" r="12" class="c0"/>
<circle cx="540" cy="1258" r="12" class="c0"/>
<circle cx="528" cy="716" r="12" class="c0"/>
<circle cx="556" cy="316" r="12" class="c0"/>
<circle cx="656" cy="1032" r="12" class="c0"/>
<circle cx="474" cy="1330" r="12" class="c0"/>
<circle cx="510" cy="664" r="12" class="c0"/>
<circle cx="618" cy="886" r="12" class="c0"/>
<circle cx="566" cy="590" r="12" class="c0"/>
<circle cx="510" cy="1088" r="12" class="c0"/>
<circle cx="594" cy="408" r="12" class="c0"/>
<circle cx="500" cy="638" r="12" class="c0"/>
<circle cx="618" cy="742" r="12" class="c0"/>
<circle cx="394" cy="1396" r="12" class="c0"/>
<circle cx="632" cy="902" r="12" class="c0"/>
<circle cx="632" cy="1004" r="12" class="c0"/>
<circle cx="732" cy="1334" r="12" class="c0"/>
<circle cx="644" cy="374" r="12" class="c0"/>
<circle cx="682" cy="748" r="12" class="c0"/>
<circle cx="492" cy="974" r="12" class="c0"/>
<circle cx="690" cy="1294" r="10" class="c0"/>
<circle cx="546" cy="930" r="10" class="c0"/>
<circle cx="582" cy="910" r="10" class="c0"/>
<circle cx="676" cy="426" r="10" class="c0"/>
<circle cx="664" cy="1102" r="10" class="c0"/>
<circle cx="646" cy="1392" r="10" class="c0"/>
<circle cx="560" cy="806" r="10" class="c0"/>
<circle cx="530" cy="1074" r="10" class="c0"/>
<circle cx="694" cy="714" r="10" class="c0"/>
<circle cx="686" cy="1392" r="10" class="c0"/>
<circle cx="500" cy="360" r="10" class="c0"/>
<circle cx="458" cy="1040" r="10" class="c0"/>
<circle cx="540" cy="1008" r="10" class="c0"/>
<circle cx="526" cy="832" r="10" class="c0"/>
<circle cx="638" cy="1278" r="10" class="c0"/>
<circle cx="616" cy="582" r="10" class="c0"/>
<circle cx="626" cy="638" r="10" class="c0"/>
<circle cx="560" cy="1246" r="10" class="c0"/>
<circle cx="634" cy="1128" r="10" class="c0"/>
<circle cx="662" cy="588" r="10" class="c0"/>
<circle cx="706" cy="1274" r="10" class="c0"/>
<circle cx="1436" cy="1380" r="10" class="c0"/>
<circle cx="534" cy="1172" r="10" class="c0"/>
<circle cx="522" cy="928" r="10" class="c0"/>
<circle cx="666" cy="1368" r="10" class="c0"/>
<circle cx="558" cy="1402" r="10" class="c0"/>
<circle cx="490" cy="910" r="10" class="c0"/>
<circle cx="524" cy="406" r="10" class="c0"/>
<circle cx="590" cy="1368" r="10" class="c0"/>
<circle cx="464" cy="1206" r="10" class="c0"/>
<circle cx="556" cy="408" r="10" class="c0"/>
<circle cx="528" cy="774" r="10" class="c0"/>
<circle cx="682" cy="1354" r="10" class="c0"/>
<circle cx="516" cy="1158" r="10" class="c0"/>
<circle cx="576" cy="522" r="10" class="c0"/>
<circle cx="516" cy="322" r="10" class="c0"/>
<circle cx="630" cy="930" r="10" class="c0"/>
<circle cx="700" cy="804" r="10" class="c0"/>
<circle cx="546" cy="758" r="10" class="c0"/>
<circle cx="656" cy="776" r="10" class="c0"/>
<circle cx="700" cy="450" r="10" class="c0"/>
<circle cx="586" cy="1272" r="10" class="c0"/>
<circle cx="650" cy="724" r="10" class="c0"/>
<circle cx="620" cy="964" r="10" class="c0"/>
<circle cx="694" cy="1338" r="10" class="c0"/>
<circle cx="516" cy="952" r="10" class="c0"/>
<circle cx="500" cy="1204" r="10" class="c0"/>
<circle cx="606" cy="466" r="10" class="c0"/>
<circle cx="520" cy="1296" r="10" class="c0"/>
<circle cx="564" cy="704" r="10" class="c0"/>
<circle cx="602" cy="1326" r="10" class="c0"/>
<circle cx="426" cy="1194" r="10" class="c0"/>
<circle cx="524" cy="1022" r="10" class="c0"/>
<circle cx="432" cy="1352" r="10" class="c0"/>
<circle cx="482" cy="1032" r="10" class="c0"/>
<circle cx="714" cy="1380" r="10" class="c0"/>
<circle cx="596" cy="308" r="10" class="c0"/>
<circle cx="680" cy="1004" r="10" class="c0"/>
<circle cx="642" cy="980" r="10" class="c0"/>
<circle cx="544" cy="850" r="10" class="c0"/>
<circle cx="442" cy="1126" r="10" class="c0"/>
<circle cx="410" cy="1238" r="10" class="c0"/>
<circle cx="566" cy="1302" r="10" class="c0"/>
<circle cx="642" cy="626" r="10" class="c0"/>
<circle cx="592" cy="968" r="10" class="c0"/>
<circle cx="530" cy="1236" r="10" class="c0"/>
<circle cx="706" cy="1204" r="10" class="c0"/>
<circle cx="556" cy="780" r="10" class="c0"/>
<circle cx="654" cy="1076" r="10" class="c0"/>
<circle cx="608" cy="1258" r="10" class="c0"/>
<circle cx="596" cy="1230" r="10" class="c0"/>
<circle cx="1464" cy="1428" r="10" class="c0"/>
<circle cx="708" cy="1040" r="10" class="c0"/>
<circle cx="650" cy="400" r="10" class="c0"/>
<circle cx="584" cy="828" r="10" class="c0"/>
<circle cx="712" cy="1110" r="10" class="c0"/>
<circle cx="550" cy="1426" r="10" class="c0"/>
<circle cx="462" cy="1274" r="10" class="c0"/>
<circle cx="576" cy="1058" r="10" class="c0"/>
<circle cx="1370" cy="1402" r="10" class="c0"/>
<circle cx="582" cy="344" r="10" class="c0"/>
<circle cx="532" cy="1046" r="10" class="c0"/>
<circle cx="474" cy="1394" r="10" class="c0"/>
<circle cx="680" cy="1074" r="10" class="c0"/>
<circle cx="648" cy="672" r="10" class="c0"/>
<circle cx="512" cy="608" r="10" class="c0"/>
<circle cx="442" cy="1096" r="10" class="c0"/>
<circle cx="668" cy="966" r="10" class="c0"/>
<circle cx="494" cy="948" r="10" class="c0"/>
<circle cx="518" cy="736" r="10" class="c0"/>
<circle cx="398" cy="1264" r="10" class="c0"/>
<circle cx="590" cy="592" r="10" class="c0"/>
<circle cx="1340" cy="1412" r="10" class="c0"/>
<circle cx="440" cy="1300" r="10" class="c0"/>
<circle cx="572" cy="382" r="10" class="c0"/>
<circle cx="672" cy="382" r="10" class="c0"/>
<circle cx="534" cy="346" r="10" class="c0"/>
<circle cx="636" cy="1226" r="10" class="c0"/>
<circle cx="434" cy="1324" r="10" class="c0"/>
<circle cx="636" cy="318" r="10" class="c0"/>
<circle cx="560" cy="908" r="10" class="c0"/>
<circle cx="670" cy="1340" r="10" class="c0"/>
<circle cx="662" cy="702" r="10" class="c0"/>
<circle cx="564" cy="1268" r="10" class="c0"/>
<circle cx="660" cy="1264" r="10" class="c0"/>
<circle cx="604" cy="720" r="10" class="c0"/>
<circle cx="632" cy="420" r="10" class="c0"/>
<circle cx="574" cy="614" r="10" class="c0"/>
<circle cx="676" cy="1410" r="10" class="c0"/>
<circle cx="666" cy="1206" r="10" class="c0"/>
<circle cx="606" cy="834" r="10" class="c0"/>
<circle cx="566" cy="1172" r="10" class="c0"/>
<circle cx="666" cy="640" r="10" class="c0"/>
<circle cx="552" cy="986" r="10" class="c0"/>
<circle cx="450" cy="1410" r="10" class="c0"/>
<circle cx="574" cy="664" r="10" class="c0"/>
<circle cx="726" cy="1180" r="10" class="c0"/>
<circle cx="422" cy="1160" r="10" class="c0"/>
<circle cx="652" cy="800" r="10" class="c0"/>
<circle cx="572" cy="1216" r="10" class="c0"/>
<circle cx="440" cy="1374" r="10" class="c0"/>
<circle cx="642" cy="464" r="10" class="c0"/>
<circle cx="552" cy="1126" r="10" class="c0"/>
<circle cx="582" cy="564" r="10" class="c0"/>
<circle cx="584" cy="1092" r="10" class="c0"/>
<circle cx="598" cy="530" r="10" class="c0"/>
<circle cx="608" cy="386" r="10" class="c0"/>
<circle cx="498" cy="1392" r="10" class="c0"/>
<circle cx="592" cy="938" r="10" class="c0"/>
<circle cx="432" cy="1078" r="10" class="c0"/>
<circle cx="678" cy="772" r="10" class="c0"/>
<circle cx="590" cy="698" r="10" class="c0"/>
<circle cx="646" cy="1314" r="10" class="c0"/>
<circle cx="518" cy="1114" r="10" class="c0"/>
<circle cx="626" cy="1066" r="10" class="c0"/>
<circle cx="632" cy="1250" r="10" class="c0"/>
<circle cx="592" cy="874" r="10" class="c0"/>
<circle cx="1384" cy="1380" r="10" class="c0"/>
<circle cx="534" cy="588" r="10" class="c0"/>
<circle cx="668" cy="616" r="10" class="c0"/>
<circle cx="710" cy="1352" r="10" class="c0"/>
<circle cx="636" cy="568" r="10" class="c0"/>
<circle cx="636" cy="1092" r="8" class="c0"/>
<circle cx="654" cy="328" r="8" class="c0"/>
<circle cx="1356" cy="1386" r="8" class="c0"/>
<circle cx="440" cy="1246" r="8" class="c0"/>
<circle cx="738" cy="1302" r="8" class="c0"/>
<circle cx="550" cy="1102" r="8" class="c0"/>
<circle cx="636" cy="1198" r="8" class="c0"/>
<circle cx="498" cy="1184" r="8" class="c0"/>
<circle cx="600" cy="1170" r="8" class="c0"/>
<circle cx="464" cy="1170" r="8" class="c0"/>
<circle cx="548" cy="490" r="8" class="c0"/>
<circle cx="460" cy="1060" r="8" class="c0"/>
<circle cx="552" cy="448" r="8" class="c0"/>
<circle cx="612" cy="862" r="8" class="c0"/>
<circle cx="606" cy="1204" r="8" class="c0"/>
<circle cx="704" cy="430" r="8" class="c0"/>
<circle cx="690" cy="1096" r="8" class="c0"/>
<circle cx="674" cy="498" r="8" class="c0"/>
<circle cx="582" cy="986" r="8" class="c0"/>
<circle cx="468" cy="1084" r="8" class="c0"/>
<circle cx="658" cy="746" r="8" class="c0"/>
<circle cx="562" cy="1326" r="8" class="c0"/>
<circle cx="604" cy="1122" r="8" class="c0"/>
<circle cx="454" cy="982" r="8" class="c0"/>
<circle cx="574" cy="748" r="8" class="c0"/>
<circle cx="594" cy="760" r="8" class="c0"/>
<circle cx="440" cy="1216" r="8" class="c0"/>
<circle cx="664" cy="820" r="8" class="c0"/>
<circle cx="628" cy="1382" r="8" class="c0"/>
<circle cx="524" cy="1410" r="8" class="c0"/>
<circle cx="492" cy="1008" r="8" class="c0"/>
<circle cx="486" cy="1426" r="8" class="c0"/>
<circle cx="406" cy="1214" r="8" class="c0"/>
<circle cx="686" cy="1140" r="8" class="c0"/>
<circle cx="486" cy="1354" r="8" class="c0"/>
<circle cx="690" cy="466" r="8" class="c0"/>
<circle cx="616" cy="672" r="8" class="c0"/>
<circle cx="540" cy="872" r="8" class="c0"/>
<circle cx="496" cy="1106" r="8" class="c0"/>
<circle cx="1472" cy="1392" r="8" class="c0"/>
<circle cx="612" cy="772" r="8" class="c0"/>
<circle cx="590" cy="1180" r="8" class="c0"/>
<circle cx="422" cy="1308" r="8" class="c0"/>
<circle cx="522" cy="854" r="8" class="c0"/>
<circle cx="690" cy="404" r="8" class="c0"/>
<circle cx="524" cy="682" r="8" class="c0"/>
<circle cx="588" cy="1252" r="8" class="c0"/>
<circle cx="504" cy="844" r="8" class="c0"/>
<circle cx="564" cy="1030" r="8" class="c0"/>
<circle cx="616" cy="1238" r="8" class="c0"/>
<circle cx="680" cy="798" r="8" class="c0"/>
<circle cx="388" cy="1350" r="8" class="c0"/>
<circle cx="474" cy="1158" r="8" class="c0"/>
<circle cx="692" cy="1172" r="8" class="c0"/>
<circle cx="530" cy="620" r="8" class="c0"/>
<circle cx="614" cy="990" r="8" class="c0"/>
<circle cx="560" cy="632" r="8" class="c0"/>
<circle cx="600" cy="1078" r="8" class="c0"/>
<circle cx="406" cy="1330" r="8" class="c0"/>
<circle cx="548" cy="536" r="8" class="c0"/>
<circle cx="692" cy="966" r="8" class="c0"/>
<circle cx="472" cy="918" r="8" class="c0"/>
<circle cx="714" cy="1148" r="8" class="c0"/>
<circle cx="604" cy="1402" r="8" class="c0"/>
<circle cx="548" cy="890" r="8" class="c0"/>
<circle cx="494" cy="388" r="8" class="c0"/>
<circle cx="514" cy="1324" r="8" class="c0"/>
<circle cx="702" cy="770" r="8" class="c0"/>
<circle cx="474" cy="1186" r="8" class="c0"/>
<circle cx="590" cy="626" r="8" class="c0"/>
<circle cx="510" cy="790" r="8" class="c0"/>
<circle cx="684" cy="662" r="8" class="c0"/>
<circle cx="692" cy="1018" r="8" class="c0"/>
<circle cx="578" cy="544" r="8" class="c0"/>
<circle cx="568" cy="846" r="8" class="c0"/>
<circle cx="584" cy="722" r="8" class="c0"/>
<circle cx="590" cy="800" r="8" class="c0"/>
<circle cx="716" cy="1240" r="8" class="c0"/>
<circle cx="632" cy="850" r="8" class="c0"/>
<circle cx="652" cy="1292" r="8" class="c0"/>
<circle cx="464" cy="1296" r="8" class="c0"/>
<circle cx="658" cy="892" r="8" class="c0"/>
<circle cx="590" cy="850" r="8" class="c0"/>
<circle cx="656" cy="1056" r="8" class="c0"/>
<circle cx="620" cy="1102" r="8" class="c0"/>
<circle cx="422" cy="1398" r="8" class="c0"/>
<circle cx="458" cy="960" r="8" class="c0"/>
<circle cx="592" cy="652" r="8" class="c0"/>
<circle cx="550" cy="1078" r="8" class="c0"/>
<circle cx="688" cy="1194" r="8" class="c0"/>
<circle cx="428" cy="1276" r="8" class="c0"/>
<circle cx="1430" cy="1400" r="8" class="c0"/>
<circle cx="522" cy="380" r="8" class="c0"/>
<circle cx="692" cy="1244" r="8" class="c0"/>
<circle cx="630" cy="718" r="8" class="c0"/>
<circle cx="646" cy="1416" r="8" class="c0"/>
<circle cx="520" cy="1362" r="8" class="c0"/>
<circle cx="596" cy="484" r="8" class="c0"/>
<circle cx="656" cy="844" r="8" class="c0"/>
<circle cx="534" cy="546" r="8" class="c0"/>
<circle cx="622" cy="370" r="8" class="c0"/>
<circle cx="628" cy="660" r="8" class="c0"/>
<circle cx="666" cy="908" r="8" class="c0"/>
<circle cx="528" cy="638" r="8" class="c0"/>
<circle cx="664" cy="992" r="8" class="c0"/>
<circle cx="634" cy="348" r="8" class="c0"/>
<circle cx="542" cy="1378" r="8" class="c0"/>
<circle cx="670" cy="1150" r="8" class="c0"/>
<circle cx="574" cy="1420" r="8" class="c0"/>
<circle cx="734" cy="1264" r="8" class="c0"/>
<circle cx="602" cy="428" r="8" class="c0"/>
<circle cx="496" cy="694" r="8" class="c0"/>
<circle cx="456" cy="1430" r="8" class="c0"/>
<circle cx="582" cy="1020" r="8" class="c0"/>
<circle cx="592" cy="1424" r="8" class="c0"/>
<circle cx="544" cy="1222" r="8" class="c0"/>
<circle cx="1462" cy="1406" r="8" class="c0"/>
<circle cx="400" cy="1422" r="8" class="c0"/>
<circle cx="474" cy="672" r="8" class="c0"/>
<circle cx="624" cy="816" r="8" class="c0"/>
<circle cx="616" cy="1416" r="8" class="c0"/>
<circle cx="522" cy="1380" r="8" class="c0"/>
<circle cx="506" cy="1066" r="8" class="c0"/>
<circle cx="450" cy="1012" r="8" class="c0"/>
<circle cx="438" cy="1034" r="8" class="c0"/>
<circle cx="396" cy="1286" r="8" class="c0"/>
<circle cx="666" cy="664" r="8" class="c0"/>
<circle cx="584" cy="1198" r="8" class="c0"/>
<circle cx="416" cy="1362" r="8" class="c0"/>
<circle cx="632" cy="1358" r="8" class="c0"/>
<circle cx="644" cy="694" r="8" class="c0"/>
<circle cx="514" cy="1426" r="8" class="c0"/>
<circle cx="608" cy="514" r="8" class="c0"/>
<circle cx="626" cy="1324" r="8" class="c0"/>
<circle cx="404" cy="1378" r="8" class="c0"/>
<circle cx="492" cy="676" r="8" class="c0"/>
<circle cx="576" cy="1110" r="8" class="c0"/>
<circle cx="658" cy="1122" r="8" class="c0"/>
<circle cx="378" cy="1408" r="8" class="c0"/>
<circle cx="570" cy="1004" r="8" class="c0"/>
<circle cx="614" cy="620" r="8" class="c0"/>
<circle cx="652" cy="492" r="8" class="c0"/>
<circle cx="614" cy="556" r="8" class="c0"/>
<circle cx="708" cy="1418" r="8" class="c0"/>
<circle cx="608" cy="1008" r="8" class="c0"/>
<circle cx="548" cy="384" r="8" class="c0"/>
<circle cx="620" cy="328" r="8" class="c0"/>
<circle cx="664" cy="460" r="8" class="c0"/>
<circle cx="738" cy="1370" r="8" class="c0"/>
<circle cx="684" cy="846" r="8" class="c0"/>
<circle cx="642" cy="762" r="8" class="c0"/>
<circle cx="612" cy="1346" r="8" class="c0"/>
<circle cx="540" cy="1332" r="8" class="c0"/>
<circle cx="730" cy="1200" r="8" class="c0"/>
<circle cx="568" cy="870" r="8" class="c0"/>
<circle cx="450" cy="1190" r="8" class="c0"/>
<circle cx="680" cy="924" r="8" class="c0"/>
<circle cx="670" cy="1234" r="8" class="c0"/>
<circle cx="628" cy="448" r="8" class="c0"/>
<circle cx="488" cy="1260" r="8" class="c0"/>
<circle cx="532" cy="426" r="8" class="c0"/>
<circle cx="560" cy="954" r="8" class="c0"/>
<circle cx="598" cy="328" r="8" class="c0"/>
<circle cx="646" cy="952" r="8" class="c0"/>
<circle cx="600" cy="784" r="8" class="c0"/>
<circle cx="692" cy="1118" r="8" class="c0"/>
<circle cx="638" cy="518" r="8" class="c0"/>
<circle cx="696" cy="1366" r="8" class="c0"/>
<circle cx="560" cy="730" r="8" class="c0"/>
<circle cx="496" cy="864" r="8" class="c0"/>
<circle cx="654" cy="1354" r="8" class="c0"/>
<circle cx="1410" cy="1378" r="8" class="c0"/>
<circle cx="614" cy="700" r="8" class="c0"/>
<circle cx="610" cy="946" r="8" class="c0"/>
<circle cx="746" cy="1390" r="8" class="c0"/>
<circle cx="706" cy="1320" r="8" class="c0"/>
<circle cx="572" cy="766" r="8" class="c0"/>
<circle cx="656" cy="940" r="8" class="c0"/>
<circle cx="560" cy="556" r="8" class="c0"/>
<circle cx="424" cy="1258" r="8" class="c0"/>
<circle cx="628" cy="610" r="8" class="c0"/>
<circle cx="546" cy="1188" r="8" class="c0"/>
<circle cx="644" cy="820" r="8" class="c0"/>
<circle cx="424" cy="1114" r="8" class="c0"/>
<circle cx="502" cy="1340" r="8" class="c0"/>
<circle cx="674" cy="722" r="8" class="c0"/>
<circle cx="606" cy="1060" r="8" class="c0"/>
<circle cx="584" cy="1316" r="8" class="c0"/>
<circle cx="706" cy="1082" r="8" class="c0"/>
<circle cx="488" cy="1218" r="8" class="c0"/>
<circle cx="568" cy="476" r="8" class="c0"/>
<circle cx="726" cy="1128" r="8" class="c0"/>
<circle cx="516" cy="1256" r="8" class="c0"/>
<circle cx="440" cy="1052" r="8" class="c0"/>
<circle cx="486" cy="1288" r="8" class="c0"/>
<circle cx="530" cy="1350" r="8" class="c0"/>
<circle cx="626" cy="1178" r="8" class="c0"/>
<circle cx="454" cy="1138" r="8" class="c0"/>
<circle cx="432" cy="1420" r="8" class="c0"/>
<circle cx="610" cy="494" r="8" class="c0"/>
<circle cx="488" cy="1068" r="8" class="c0"/>
<circle cx="1444" cy="1422" r="8" class="c0"/>
<circle cx="624" cy="482" r="8" class="c0"/>
<circle cx="544" cy="1146" r="8" class="c0"/>
<circle cx="626" cy="396" r="8" class="c0"/>
<circle cx="674" cy="448" r="8" class="c0"/>
<circle cx="538" cy="366" r="8" class="c0"/>
<circle cx="490" cy="1306" r="8" class="c0"/>
<circle cx="482" cy="652" r="8" class="c0"/>
<circle cx="1388" cy="1424" r="8" class="c0"/>
<circle cx="436" cy="1174" r="8" class="c0"/>
<circle cx="556" cy="832" r="8" class="c0"/>
<circle cx="720" cy="1304" r="8" class="c0"/>
<circle cx="448" cy="1158" r="8" class="c0"/>
<circle cx="554" cy="680" r="8" class="c0"/>
<circle cx="592" cy="1046" r="8" class="c0"/>
<circle cx="656" cy="422" r="8" class="c0"/>
<circle cx="468" cy="950" r="8" class="c0"/>
<circle cx="648" cy="604" r="8" class="c0"/>
<circle cx="532" cy="912" r="8" class="c0"/>
<circle cx="560" cy="356" r="8" class="c0"/>
<circle cx="616" cy="346" r="8" class="c0"/>
<circle cx="536" cy="456" r="8" class="c0"/>
<circle cx="676" cy="478" r="8" class="c0"/>
<circle cx="656" cy="1224" r="8" class="c0"/>
<circle cx="592" cy="740" r="8" class="c0"/>
<circle cx="714" cy="1168" r="8" class="c0"/>
<circle cx="500" cy="1238" r="8" class="c0"/>
<circle cx="544" cy="964" r="8" class="c0"/>
<circle cx="572" cy="496" r="8" class="c0"/>
<circle cx="686" cy="488" r="8" class="c0"/>
<circle cx="684" cy="820" r="8" class="c0"/>
<circle cx="530" cy="976" r="8" class="c0"/>
<circle cx="668" cy="1282" r="8" class="c0"/>
<circle cx="588" cy="1338" r="8" class="c0"/>
<circle cx="468" cy="1014" r="8" class="c0"/>
<circle cx="654" cy="354" r="8" class="c0"/>
<circle cx="678" cy="1256" r="8" class="c0"/>
<circle cx="578" cy="1146" r="8" class="c0"/>
<circle cx="622" cy="1214" r="8" class="c0"/>
<circle cx="422" cy="1430" r="8" class="c0"/>
<circle cx="554" cy="610" r="8" class="c0"/>
<circle cx="1350" cy="1428" r="8" class="c0"/>
<circle cx="584" cy="1406" r="8" class="c0"/>
<circle cx="1486" cy="1402" r="8" class="c0"/>
<circle cx="630" cy="1430" r="8" class="c0"/>
<circle cx="554" cy="1050" r="8" class="c0"/>
<circle cx="526" cy="1190" r="8" class="c0"/>
<circle cx="596" cy="896" r="8" class="c0"/>
<circle cx="486" cy="1378" r="8" class="c0"/>
<circle cx="690" cy="1430" r="8" class="c0"/>
<circle cx="574" cy="642" r="8" class="c0"/>
<circle cx="548" cy="1292" r="8" class="c0"/>
<circle cx="392" cy="1368" r="8" class="c0"/>
<circle cx="586" cy="470" r="8" class="c0"/>
<circle cx="552" cy="576" r="8" class="c0"/>
<circle cx="546" cy="466" r="8" class="c0"/>
<circle cx="672" cy="1314" r="8" class="c0"/>
<circle cx="588" cy="1298" r="8" class="c0"/>
<circle cx="480" cy="1136" r="8" class="c0"/>
<circle cx="650" cy="442" r="8" class="c0"/>
<circle cx="606" cy="602" r="8" class="c0"/>
<circle cx="656" cy="1244" r="8" class="c0"/>
<circle cx="570" cy="1382" r="8" class="c0"/>
<circle cx="596" cy="448" r="8" class="c0"/>
<circle cx="506" cy="874" r="8" class="c0"/>
<circle cx="572" cy="964" r="8" class="c0"/>
<circle cx="482" cy="934" r="8" class="c0"/>
<circle cx="480" cy="990" r="8" class="c0"/>
<circle cx="620" cy="526" r="8" class="c0"/>
<circle cx="480" cy="888" r="8" class="c0"/>
<circle cx="738" cy="1240" r="8" class="c0"/>
<circle cx="722" cy="1216" r="8" class="c0"/>
<circle cx="492" cy="1166" r="8" class="c0"/>
<circle cx="420" cy="1132" r="8" class="c0"/>
<circle cx="580" cy="424" r="8" class="c0"/>
<circle cx="496" cy="1050" r="8" class="c0"/>
<circle cx="650" cy="1336" r="8" class="c0"/>
<circle cx="598" cy="1104" r="8" class="c0"/>
<circle cx="588" cy="1134" r="8" class="c0"/>
<circle cx="514" cy="1220" r="8" class="c0"/>
<circle cx="676" cy="686" r="8" class="c0"/>
<circle cx="638" cy="1054" r="8" class="c0"/>
<circle cx="556" cy="650" r="8" class="c0"/>
<circle cx="500" cy="1366" r="8" class="c0"/>
<circle cx="566" cy="936" r="8" class="c0"/>
<circle cx="596" cy="674" r="8" class="c0"/>
<circle cx="674" cy="362" r="8" class="c0"/>
<circle cx="580" cy="784" r="8" class="c0"/>
<circle cx="652" cy="922" r="8" class="c0"/>
<circle cx="380" cy="1430" r="8" class="c0"/>
<circle cx="600" cy="1150" r="8" class="c0"/>
<circle cx="540" cy="1360" r="8" class="c0"/>
<circle cx="698" cy="736" r="8" class="c0"/>
<circle cx="562" cy="428" r="8" class="c0"/>
<circle cx="1396" cy="1396" r="8" class="c0"/>
<circle cx="606" cy="636" r="8" class="c0"/>
<circle cx="1462" cy="1378" r="8" class="c0"/>
<circle cx="712" cy="1400" r="8" class="c0"/>
<circle cx="650" cy="1154" r="8" class="c0"/>
<circle cx="450" cy="1256" r="8" class="c0"/>
<circle cx="656" cy="566" r="8" class="c0"/>
<circle cx="596" cy="996" r="8" class="c0"/>
<circle cx="560" cy="1204" r="8" class="c0"/>
<circle cx="690" cy="986" r="8" class="c0"/>
<circle cx="462" cy="1226" r="8" class="c0"/>
<circle cx="552" cy="338" r="8" class="c0"/>
<circle cx="674" cy="830" r="8" class="c0"/>
<circle cx="560" cy="506" r="8" class="c0"/>
<circle cx="730" cy="1156" r="8" class="c0"/>
<circle cx="454" cy="1352" r="8" class="c0"/>
<circle cx="382" cy="1380" r="8" class="c0"/>
<circle cx="622" cy="304" r="8" class="c0"/>
<circle cx="530" cy="1276" r="8" class="c0"/>
<circle cx="504" cy="1030" r="8" class="c0"/>
<circle cx="538" cy="694" r="8" class="c0"/>
<circle cx="564" cy="1090" r="8" class="c0"/>
<circle cx="570" cy="304" r="6" class="c0"/>
<circle cx="606" cy="1384" r="6" class="c0"/>
<circle cx="668" cy="1018" r="6" class="c0"/>
<circle cx="390" cy="1328" r="6" class="c0"/>
<circle cx="566" cy="1074" r="6" class="c0"/>
<circle cx="534" cy="1394" r="6" class="c0"/>
<circle cx="426" cy="1226" r="6" class="c0"/>
<circle cx="644" cy="584" r="6" class="c0"/>
<circle cx="452" cy="1074" r="6" class="c0"/>
<circle cx="1480" cy="1420" r="6" class="c0"/>
<circle cx="596" cy="504" r="6" class="c0"/>
<circle cx="472" cy="970" r="6" class="c0"/>
<circle cx="464" cy="1100" r="6" class="c0"/>
<circle cx="576" cy="948" r="6" class="c0"/>
<circle cx="410" cy="1176" r="6" class="c0"/>
<circle cx="682" cy="900" r="6" class="c0"/>
<circle cx="504" cy="926" r="6" class="c0"/>
<circle cx="706" cy="410" r="6" class="c0"/>
<circle cx="704" cy="1064" r="6" class="c0"/>
<circle cx="716" cy="1288" r="6" class="c0"/>
<circle cx="702" cy="1132" r="6" class="c0"/>
<circle cx="616" cy="410" r="6" class="c0"/>
<circle cx="638" cy="744" r="6" class="c0"/>
<circle cx="658" cy="1406" r="6" class="c0"/>
<circle cx="498" cy="342" r="6" class="c0"/>
<circle cx="498" cy="1412" r="6" class="c0"/>
<circle cx="600" cy="548" r="6" class="c0"/>
<circle cx="490" cy="1122" r="6" class="c0"/>
<circle cx="1410" cy="1432" r="6" class="c0"/>
<circle cx="516" cy="702" r="6" class="c0"/>
<circle cx="602" cy="814" r="6" class="c0"/>
<circle cx="646" cy="1212" r="6" class="c0"/>
<circle cx="670" cy="340" r="6" class="c0"/>
<circle cx="542" cy="1062" r="6" class="c0"/>
<circle cx="632" cy="868" r="6" class="c0"/>
<circle cx="628" cy="1402" r="6" class="c0"/>
<circle cx="450" cy="1390" r="6" class="c0"/>
<circle cx="484" cy="1096" r="6" class="c0"/>
<circle cx="716" cy="1072" r="6" class="c0"/>
<circle cx="552" cy="1160" r="6" class="c0"/>
<circle cx="518" cy="356" r="6" class="c0"/>
<circle cx="620" cy="1276" r="6" class="c0"/>
<circle cx="516" cy="756" r="6" class="c0"/>
<circle cx="404" cy="1352" r="6" class="c0"/>
<circle cx="596" cy="1028" r="6" class="c0"/>
<circle cx="542" cy="562" r="6" class="c0"/>
<circle cx="698" cy="1408" r="6" class="c0"/>
<circle cx="750" cy="1420" r="6" class="c0"/>
<circle cx="678" cy="1164" r="6" class="c0"/>
<circle cx="738" cy="1280" r="6" class="c0"/>
<circle cx="506" cy="306" r="6" class="c0"/>
<circle cx="700" cy="1000" r="6" class="c0"/>
<circle cx="716" cy="1056" r="6" class="c0"/>
<circle cx="650" cy="508" r="6" class="c0"/>
<circle cx="532" cy="1424" r="6" class="c0"/>
<circle cx="414" cy="1284" r="6" class="c0"/>
<circle cx="534" cy="954" r="6" class="c0"/>
<circle cx="596" cy="574" r="6" class="c0"/>
<circle cx="692" cy="786" r="6" class="c0"/>
<circle cx="572" cy="886" r="6" class="c0"/>
<circle cx="526" cy="1136" r="6" class="c0"/>
<circle cx="694" cy="370" r="6" class="c0"/>
<circle cx="644" cy="1108" r="6" class="c0"/>
<circle cx="692" cy="1058" r="6" class="c0"/>
<circle cx="676" cy="948" r="6" class="c0"/>
<circle cx="618" cy="438" r="6" class="c0"/>
<circle cx="496" cy="618" r="6" class="c0"/>
<circle cx="444" cy="1338" r="6" class="c0"/>
<circle cx="592" cy="1392" r="6" class="c0"/>
<circle cx="624" cy="686" r="6" class="c0"/>
<circle cx="518" cy="1056" r="6" class="c0"/>
<circle cx="654" cy="1432" r="6" class="c0"/>
<circle cx="696" cy="1152" r="6" class="c0"/>
<circle cx="614" cy="1366" r="6" class="c0"/>
<circle cx="610" cy="1092" r="6" class="c0"/>
<circle cx="634" cy="1300" r="6" class="c0"/>
<circle cx="574" cy="686" r="6" class="c0"/>
<circle cx="508" cy="710" r="6" class="c0"/>
<circle cx="610" cy="796" r="6" class="c0"/>
<circle cx="702" cy="1232" r="6" class="c0"/>
<circle cx="472" cy="1414" r="6" class="c0"/>
<circle cx="738" cy="1214" r="6" class="c0"/>
<circle cx="660" cy="1138" r="6" class="c0"/>
<circle cx="580" cy="860" r="6" class="c0"/>
<circle cx="548" cy="740" r="6" class="c0"/>
<circle cx="712" cy="790" r="6" class="c0"/>
<circle cx="692" cy="386" r="6" class="c0"/>
<circle cx="1372" cy="1428" r="6" class="c0"/>
<circle cx="454" cy="1322" r="6" class="c0"/>
<circle cx="580" cy="364" r="6" class="c0"/>
<circle cx="674" cy="884" r="6" class="c0"/>
<circle cx="592" cy="378" r="6" class="c0"/>
<circle cx="668" cy="410" r="6" class="c0"/>
<circle cx="540" cy="1206" r="6" class="c0"/>
<circle cx="642" cy="1374" r="6" class="c0"/>
<circle cx="576" cy="322" r="6" class="c0"/>
<circle cx="542" cy="818" r="6" class="c0"/>
<circle cx="548" cy="714" r="6" class="c0"/>
<circle cx="520" cy="1340" r="6" class="c0"/>
<circle cx="610" cy="1182" r="6" class="c0"/>
<circle cx="610" cy="1432" r="6" class="c0"/>
<circle cx="534" cy="1094" r="6" class="c0"/>
<circle cx="410" cy="1408" r="6" class="c0"/>
<circle cx="608" cy="654" r="6" class="c0"/>
<circle cx="438" cy="1146" r="6" class="c0"/>
<circle cx="534" cy="326" r="6" class="c0"/>
<circle cx="690" cy="1314" r="6" class="c0"/>
<circle cx="524" cy="1208" r="6" class="c0"/>
<circle cx="642" cy="648" r="6" class="c0"/>
<circle cx="676" cy="870" r="6" class="c0"/>
<circle cx="560" cy="1144" r="6" class="c0"/>
<circle cx="628" cy="1342" r="6" class="c0"/>
<circle cx="506" cy="1310" r="6" class="c0"/>
<circle cx="734" cy="1354" r="6" class="c0"/>
<circle cx="728" cy="1392" r="6" class="c0"/>
<circle cx="476" cy="692" r="6" class="c0"/>
<circle cx="1332" cy="1432" r="6" class="c0"/>
<circle cx="490" cy="836" r="6" class="c0"/>
<circle cx="1430" cy="1430" r="6" class="c0"/>
<circle cx="688" cy="438" r="6" class="c0"/>
<circle cx="626" cy="504" r="6" class="c0"/>
<circle cx="470" cy="898" r="6" class="c0"/>
<circle cx="524" cy="876" r="6" class="c0"/>
<circle cx="702" cy="1182" r="6" class="c0"/>
<circle cx="572" cy="1284" r="6" class="c0"/>
<circle cx="642" cy="836" r="6" class="c0"/>
<circle cx="634" cy="1024" r="6" class="c0"/>
<circle cx="458" cy="998" r="6" class="c0"/>
<circle cx="548" cy="1026" r="6" class="c0"/>
<circle cx="726" cy="1094" r="6" class="c0"/>
<circle cx="486" cy="852" r="6" class="c0"/>
<circle cx="614" cy="1136" r="6" class="c0"/>
<circle cx="652" cy="550" r="6" class="c0"/>
<circle cx="670" cy="1428" r="6" class="c0"/>
<circle cx="684" cy="1276" r="6" class="c0"/>
<circle cx="1330" cy="1396" r="6" class="c0"/>
<circle cx="666" cy="760" r="6" class="c0"/>
<circle cx="444" cy="1282" r="6" class="c0"/>
<circle cx="694" cy="1260" r="6" class="c0"/>
<circle cx="416" cy="1340" r="6" class="c0"/>
<circle cx="424" cy="1382" r="6" class="c0"/>
<circle cx="508" cy="1174" r="6" class="c0"/>
<circle cx="668" cy="1388" r="6" class="c0"/>
<circle cx="620" cy="1084" r="6" class="c0"/>
<circle cx="408" cy="1192" r="6" class="c0"/>
<circle cx="690" cy="950" r="6" class="c0"/>
<circle cx="710" cy="750" r="6" class="c0"/>
<circle cx="628" cy="948" r="6" class="c0"/>
<circle cx="476" cy="1052" r="6" class="c0"/>
<circle cx="600" cy="1284" r="6" class="c0"/>
<circle cx="710" cy="1256" r="6" class="c0"/>
<circle cx="656" cy="474" r="6" class="c0"/>
<circle cx="708" cy="1012" r="6" class="c0"/>
<circle cx="520" cy="452" r="6" class="c0"/>
<circle cx="570" cy="1190" r="6" class="c0"/>
<circle cx="718" cy="1430" r="6" class="c0"/>
<circle cx="640" cy="880" r="6" class="c0"/>
<circle cx="636" cy="594" r="6" class="c0"/>
<circle cx="474" cy="1308" r="6" class="c0"/>
<circle cx="646" cy="1188" r="6" class="c0"/>
<circle cx="1452" cy="1390" r="6" class="c0"/>
<circle cx="564" cy="534" r="6" class="c0"/>
<circle cx="506" cy="404" r="6" class="c0"/>
<circle cx="482" cy="1200" r="6" class="c0"/>
<circle cx="508" cy="1012" r="6" class="c0"/>
<circle cx="644" cy="338" r="6" class="c0"/>
<circle cx="678" cy="1126" r="6" class="c0"/>
<circle cx="618" cy="1192" r="6" class="c0"/>
<circle cx="444" cy="994" r="6" class="c0"/>
<circle cx="538" cy="396" r="6" class="c0"/>
<circle cx="496" cy="890" r="6" class="c0"/>
<circle cx="682" cy="1324" r="6" class="c0"/>
<circle cx="580" cy="1162" r="6" class="c0"/>
<circle cx="700" cy="394" r="6" class="c0"/>
<circle cx="542" cy="630" r="6" class="c0"/>
<circle cx="534" cy="1122" r="6" class="c0"/>
<circle cx="616" cy="1392" r="6" class="c0"/>
<circle cx="490" cy="1150" r="6" class="c0"/>
<circle cx="604" cy="980" r="6" class="c0"/>
<circle cx="1362" cy="1418" r="6" class="c0"/>
<circle cx="532" cy="886" r="6" class="c0"/>
<circle cx="648" cy="1014" r="6" class="c0"/>
<circle cx="492" cy="1322" r="6" class="c0"/>
<circle cx="570" cy="1132" r="6" class="c0"/>
<circle cx="1340" cy="1384" r="6" class="c0"/>
<circle cx="556" cy="1016" r="6" class="c0"/>
<circle cx="662" cy="1420" r="6" class="c0"/>
<circle cx="508" cy="684" r="6" class="c0"/>
<circle cx="576" cy="1236" r="6" class="c0"/>
<circle cx="422" cy="1212" r="6" class="c0"/>
<circle cx="606" cy="686" r="6" class="c0"/>
<circle cx="452" cy="1236" r="6" class="c0"/>
<circle cx="624" cy="762" r="6" class="c0"/>
<circle cx="684" cy="700" r="6" class="c0"/>
<circle cx="672" cy="1058" r="6" class="c0"/>
<circle cx="592" cy="1212" r="6" class="c0"/>
<circle cx="598" cy="1308" r="6" class="c0"/>
<circle cx="558" cy="1370" r="6" class="c0"/>
<circle cx="532" cy="748" r="6" class="c0"/>
<circle cx="662" cy="1304" r="6" class="c0"/>
<circle cx="640" cy="1170" r="6" class="c0"/>
<circle cx="626" cy="834" r="6" class="c0"/>
<circle cx="580" cy="1036" r="6" class="c0"/>
<circle cx="538" cy="732" r="6" class="c0"/>
<circle cx="740" cy="1432" r="6" class="c0"/>
<circle cx="512" cy="972" r="6" class="c0"/>
<circle cx="568" cy="334" r="6" class="c0"/>
<circle cx="486" cy="1406" r="6" class="c0"/>
<circle cx="666" cy="790" r="6" class="c0"/>
<circle cx="452" cy="1110" r="6" class="c0"/>
<circle cx="1420" cy="1388" r="6" class="c0"/>
<circle cx="1488" cy="1430" r="6" class="c0"/>
<circle cx="1364" cy="1370" r="6" class="c0"/>
<circle cx="424" cy="1292" r="6" class="c0"/>
<circle cx="680" cy="628" r="6" class="c0"/>
<circle cx="514" cy="626" r="6" class="c0"/>
<circle cx="514" cy="420" r="6" class="c0"/>
<circle cx="510" cy="390" r="6" class="c0"/>
<circle cx="558" cy="860" r="6" class="c0"/>
<circle cx="514" cy="1400" r="6" class="c0"/>
<circle cx="438" cy="1396" r="6" class="c0"/>
<circle cx="462" cy="1314" r="6" class="c0"/>
<circle cx="724" cy="1254" r="6" class="c0"/>
<circle cx="724" cy="1278" r="6" class="c0"/>
<circle cx="590" cy="1068" r="6" class="c0"/>
<circle cx="660" cy="1324" r="6" class="c0"/>
<circle cx="440" cy="1266" r="6" class="c0"/>
<circle cx="670" cy="856" r="6" class="c0"/>
<circle cx="610" cy="318" r="6" class="c0"/>
<circle cx="656" cy="1006" r="6" class="c0"/>
<circle cx="528" cy="442" r="6" class="c0"/>
<circle cx="558" cy="372" r="6" class="c0"/>
<circle cx="636" cy="494" r="6" class="c0"/>
<circle cx="464" cy="932" r="6" class="c0"/>
<circle cx="424" cy="1094" r="6" class="c0"/>
<circle cx="512" cy="340" r="6" class="c0"/>
<circle cx="480" cy="870" r="6" class="c0"/>
<circle cx="540" cy="1412" r="6" class="c0"/>
<circle cx="538" cy="606" r="6" class="c0"/>
<circle cx="724" cy="1362" r="6" class="c0"/>
<circle cx="578" cy="810" r="6" class="c0"/>
<circle cx="592" cy="610" r="6" class="c0"/>
<circle cx="500" cy="1296" r="6" class="c0"/>
<circle cx="542" cy="438" r="6" class="c0"/>
<circle cx="748" cy="1406" r="6" class="c0"/>
<circle cx="724" cy="1080" r="6" class="c0"/>
<circle cx="574" cy="400" r="6" class="c0"/>
<circle cx="490" cy="1084" r="6" class="c0"/>
<circle cx="1446" cy="1404" r="6" class="c0"/>
<circle cx="498" cy="412" r="6" class="c0"/>
<circle cx="708" cy="466" r="6" class="c0"/>
<circle cx="464" cy="1148" r="6" class="c0"/>
<circle cx="512" cy="1044" r="6" class="c0"/>
<circle cx="486" cy="704" r="6" class="c0"/>
<circle cx="602" cy="1356" r="6" class="c0"/>
<circle cx="504" cy="378" r="6" class="c0"/>
<circle cx="516" cy="590" r="6" class="c0"/>
<circle cx="536" cy="476" r="6" class="c0"/>
<circle cx="500" cy="992" r="6" class="c0"/>
<circle cx="678" cy="1184" r="6" class="c0"/>
<circle cx="636" cy="1038" r="6" class="c0"/>
<circle cx="694" cy="420" r="6" class="c0"/>
<circle cx="660" cy="684" r="6" class="c0"/>
<circle cx="604" cy="566" r="6" class="c0"/>
</svg>
