<?xml version="1.0" encoding="utf-8"?>
<svg xmlns="http://www.w3.org/2000/svg"
     xmlns:xlink="http://www.w3.org/1999/xlink" width="1920" height="1440" >

            <defs>
            <style type="text/css"><![CDATA[
circle {stroke: none;}
.c0 {fill: #000000;}
]]></style>
            </defs>
<rect x="0" y="0" width="1920" height="1440" fill="white"/>
<circle cx="1060" cy="378" r="14" class="c0"/>
<circle cx="1058" cy="774" r="14" class="c0"/>
<circle cx="966" cy="652" r="14" class="c0"/>
<circle cx="1066" cy="806" r="12" class="c0"/>
<circle cx="1224" cy="600" r="12" class="c0"/>
<circle cx="982" cy="458" r="12" class="c0"/>
<circle cx="838" cy="496" r="12" class="c0"/>
<circle cx="886" cy="346" r="12" class="c0"/>
<circle cx="1036" cy="648" r="12" class="c0"/>
<circle cx="846" cy="374" r="12" class="c0"/>
<circle cx="930" cy="718" r="12" class="c0"/>
<circle cx="772" cy="558" r="12" class="c0"/>
<circle cx="952" cy="748" r="12" class="c0"/>
<circle cx="890" cy="568" r="12" class="c0"/>
<circle cx="982" cy="534" r="12" class="c0"/>
<circle cx="914" cy="614" r="12" class="c0"/>
<circle cx="952" cy="598" r="12" class="c0"/>
<circle cx="1050" cy="664" r="12" class="c0"/>
<circle cx="790" cy="650" r="12" class="c0"/>
<circle cx="952" cy="796" r="12" class="c0"/>
<circle cx="1090" cy="798" r="12" class="c0"/>
<circle cx="992" cy="424" r="12" class="c0"/>
<circle cx="792" cy="690" r="12" class="c0"/>
<circle cx="980" cy="488" r="12" class="c0"/>
<circle cx="1102" cy="368" r="12" class="c0"/>
<circle cx="1134" cy="586" r="12" class="c0"/>
<circle cx="1064" cy="588" r="12" class="c0"/>
<circle cx="832" cy="436" r="12" class="c0"/>
<circle cx="806" cy="526" r="12" class="c0"/>
<circle cx="896" cy="426" r="12" class="c0"/>
<circle cx="952" cy="522" r="12" class="c0"/>
<circle cx="1028" cy="728" r="12" class="c0"/>
<circle cx="1040" cy="692" r="12" class="c0"/>
<circle cx="1016" cy="382" r="12" class="c0"/>
<circle cx="1006" cy="780" r="10" class="c0"/>
<circle cx="1002" cy="470" r="10" class="c0"/>
<circle cx="1102" cy="558" r="10" class="c0"/>
<circle cx="1132" cy="620" r="10" class="c0"/>
<circle cx="1228" cy="564" r="10" class="c0"/>
<circle cx="986" cy="336" r="10" class="c0"/>
<circle cx="1018" cy="430" r="10" class="c0"/>
<circle cx="1020" cy="516" r="10" class="c0"/>
<circle cx="756" cy="612" r="10" class="c0"/>
<circle cx="992" cy="696" r="10" class="c0"/>
<circle cx="1132" cy="526" r="10" class="c0"/>
<circle cx="834" cy="524" r="10" class="c0"/>
<circle cx="1146" cy="752" r="10" class="c0"/>
<circle cx="1128" cy="682" r="10" class="c0"/>
<circle cx="1026" cy="590" r="10" class="c0"/>
<circle cx="1108" cy="416" r="10" class="c0"/>
<circle cx="1024" cy="348" r="10" class="c0"/>
<circle cx="1180" cy="508" r="10" class="c0"/>
<circle cx="1202" cy="484" r="10" class="c0"/>
<circle cx="916" cy="692" r="10" class="c0"/>
<circle cx="1146" cy="550" r="10" class="c0"/>
<circle cx="1000" cy="814" r="10" class="c0"/>
<circle cx="1104" cy="628" r="10" class="c0"/>
<circle cx="1162" cy="646" r="10" class="c0"/>
<circle cx="906" cy="378" r="10" class="c0"/>
<circle cx="1188" cy="454" r="10" class="c0"/>
<circle cx="946" cy="368" r="10" class="c0"/>
<circle cx="1056" cy="456" r="10" class="c0"/>
<circle cx="1028" cy="786" r="10" class="c0"/>
<circle cx="1074" cy="430" r="10" class="c0"/>
<circle cx="1172" cy="712" r="10" class="c0"/>
<circle cx="1228" cy="520" r="10" class="c0"/>
<circle cx="1046" cy="424" r="10" class="c0"/>
<circle cx="956" cy="458" r="10" class="c0"/>
<circle cx="798" cy="564" r="10" class="c0"/>
<circle cx="1040" cy="624" r="10" class="c0"/>
<circle cx="1176" cy="548" r="10" class="c0"/>
<circle cx="1010" cy="664" r="10" class="c0"/>
<circle cx="936" cy="762" r="10" class="c0"/>
<circle cx="1246" cy="622" r="10" class="c0"/>
<circle cx="1112" cy="660" r="10" class="c0"/>
<circle cx="1210" cy="444" r="10" class="c0"/>
<circle cx="974" cy="586" r="10" class="c0"/>
<circle cx="888" cy="594" r="10" class="c0"/>
<circle cx="886" cy="502" r="10" class="c0"/>
<circle cx="774" cy="622" r="10" class="c0"/>
<circle cx="944" cy="852" r="10" class="c0"/>
<circle cx="856" cy="570" r="10" class="c0"/>
<circle cx="1178" cy="418" r="10" class="c0"/>
<circle cx="1176" cy="604" r="10" class="c0"/>
<circle cx="1156" cy="412" r="10" class="c0"/>
<circle cx="874" cy="696" r="10" class="c0"/>
<circle cx="778" cy="512" r="10" class="c0"/>
<circle cx="1202" cy="574" r="10" class="c0"/>
<circle cx="980" cy="790" r="10" class="c0"/>
<circle cx="750" cy="590" r="10" class="c0"/>
<circle cx="880" cy="644" r="10" class="c0"/>
<circle cx="1232" cy="466" r="10" class="c0"/>
<circle cx="866" cy="360" r="10" class="c0"/>
<circle cx="858" cy="776" r="10" class="c0"/>
<circle cx="876" cy="440" r="10" class="c0"/>
<circle cx="1028" cy="544" r="10" class="c0"/>
<circle cx="1126" cy="486" r="10" class="c0"/>
<circle cx="982" cy="672" r="10" class="c0"/>
<circle cx="1052" cy="546" r="10" class="c0"/>
<circle cx="918" cy="456" r="10" class="c0"/>
<circle cx="806" cy="718" r="10" class="c0"/>
<circle cx="950" cy="574" r="10" class="c0"/>
<circle cx="978" cy="850" r="10" class="c0"/>
<circle cx="844" cy="400" r="10" class="c0"/>
<circle cx="806" cy="454" r="10" class="c0"/>
<circle cx="940" cy="332" r="10" class="c0"/>
<circle cx="1000" cy="400" r="10" class="c0"/>
<circle cx="902" cy="720" r="10" class="c0"/>
<circle cx="1140" cy="462" r="10" class="c0"/>
<circle cx="1156" cy="700" r="10" class="c0"/>
<circle cx="1090" cy="466" r="10" class="c0"/>
<circle cx="1180" cy="688" r="10" class="c0"/>
<circle cx="1144" cy="386" r="10" class="c0"/>
<circle cx="804" cy="490" r="10" class="c0"/>
<circle cx="1082" cy="710" r="10" class="c0"/>
<circle cx="966" cy="388" r="10" class="c0"/>
<circle cx="1100" cy="754" r="10" class="c0"/>
<circle cx="1050" cy="512" r="10" class="c0"/>
<circle cx="1208" cy="652" r="10" class="c0"/>
<circle cx="832" cy="732" r="10" class="c0"/>
<circle cx="892" cy="540" r="10" class="c0"/>
<circle cx="752" cy="504" r="10" class="c0"/>
<circle cx="942" cy="626" r="10" class="c0"/>
<circle cx="994" cy="766" r="10" class="c0"/>
<circle cx="1202" cy="758" r="10" class="c0"/>
<circle cx="952" cy="430" r="10" class="c0"/>
<circle cx="902" cy="478" r="10" class="c0"/>
<circle cx="1016" cy="710" r="10" class="c0"/>
<circle cx="1092" cy="580" r="10" class="c0"/>
<circle cx="1198" cy="528" r="10" class="c0"/>
<circle cx="856" cy="620" r="10" class="c0"/>
<circle cx="854" cy="712" r="10" class="c0"/>
<circle cx="952" cy="696" r="10" class="c0"/>
<circle cx="1108" cy="690" r="10" class="c0"/>
<circle cx="1154" cy="438" r="10" class="c0"/>
<circle cx="752" cy="532" r="10" class="c0"/>
<circle cx="822" cy="642" r="10" class="c0"/>
<circle cx="810" cy="612" r="10" class="c0"/>
<circle cx="1208" cy="624" r="10" class="c0"/>
<circle cx="1002" cy="564" r="10" class="c0"/>
<circle cx="902" cy="756" r="10" class="c0"/>
<circle cx="1230" cy="492" r="10" class="c0"/>
<circle cx="904" cy="802" r="10" class="c0"/>
<circle cx="1006" cy="848" r="10" class="c0"/>
<circle cx="1158" cy="534" r="10" class="c0"/>
<circle cx="834" cy="574" r="10" class="c0"/>
<circle cx="1086" cy="618" r="10" class="c0"/>
<circle cx="1110" cy="500" r="10" class="c0"/>
<circle cx="1218" cy="776" r="10" class="c0"/>
<circle cx="1112" cy="716" r="10" class="c0"/>
<circle cx="778" cy="588" r="10" class="c0"/>
<circle cx="964" cy="708" r="10" class="c0"/>
<circle cx="1012" cy="620" r="10" class="c0"/>
<circle cx="1078" cy="406" r="8" class="c0"/>
<circle cx="1082" cy="546" r="8" class="c0"/>
<circle cx="906" cy="654" r="8" class="c0"/>
<circle cx="826" cy="414" r="8" class="c0"/>
<circle cx="900" cy="672" r="8" class="c0"/>
<circle cx="952" cy="348" r="8" class="c0"/>
<circle cx="1092" cy="440" r="8" class="c0"/>
<circle cx="824" cy="710" r="8" class="c0"/>
<circle cx="878" cy="464" r="8" class="c0"/>
<circle cx="1066" cy="632" r="8" class="c0"/>
<circle cx="866" cy="534" r="8" class="c0"/>
<circle cx="1216" cy="544" r="8" class="c0"/>
<circle cx="786" cy="538" r="8" class="c0"/>
<circle cx="912" cy="408" r="8" class="c0"/>
<circle cx="1240" cy="576" r="8" class="c0"/>
<circle cx="976" cy="364" r="8" class="c0"/>
<circle cx="946" cy="478" r="8" class="c0"/>
<circle cx="882" cy="734" r="8" class="c0"/>
<circle cx="914" cy="846" r="8" class="c0"/>
<circle cx="1086" cy="742" r="8" class="c0"/>
<circle cx="768" cy="492" r="8" class="c0"/>
<circle cx="1060" cy="724" r="8" class="c0"/>
<circle cx="1256" cy="602" r="8" class="c0"/>
<circle cx="1172" cy="572" r="8" class="c0"/>
<circle cx="1004" cy="490" r="8" class="c0"/>
<circle cx="1158" cy="620" r="8" class="c0"/>
<circle cx="856" cy="676" r="8" class="c0"/>
<circle cx="1262" cy="518" r="8" class="c0"/>
<circle cx="996" cy="366" r="8" class="c0"/>
<circle cx="930" cy="512" r="8" class="c0"/>
<circle cx="988" cy="386" r="8" class="c0"/>
<circle cx="1090" cy="644" r="8" class="c0"/>
<circle cx="1176" cy="476" r="8" class="c0"/>
<circle cx="1040" cy="466" r="8" class="c0"/>
<circle cx="926" cy="658" r="8" class="c0"/>
<circle cx="1000" cy="522" r="8" class="c0"/>
<circle cx="830" cy="610" r="8" class="c0"/>
<circle cx="1022" cy="456" r="8" class="c0"/>
<circle cx="1030" cy="824" r="8" class="c0"/>
<circle cx="962" cy="728" r="8" class="c0"/>
<circle cx="960" cy="552" r="8" class="c0"/>
<circle cx="1082" cy="388" r="8" class="c0"/>
<circle cx="916" cy="742" r="8" class="c0"/>
<circle cx="834" cy="668" r="8" class="c0"/>
<circle cx="864" cy="428" r="8" class="c0"/>
<circle cx="1118" cy="784" r="8" class="c0"/>
<circle cx="846" cy="600" r="8" class="c0"/>
<circle cx="1152" cy="572" r="8" class="c0"/>
<circle cx="854" cy="450" r="8" class="c0"/>
<circle cx="976" cy="812" r="8" class="c0"/>
<circle cx="1140" cy="426" r="8" class="c0"/>
<circle cx="972" cy="562" r="8" class="c0"/>
<circle cx="842" cy="466" r="8" class="c0"/>
<circle cx="1210" cy="694" r="8" class="c0"/>
<circle cx="864" cy="800" r="8" class="c0"/>
<circle cx="1146" cy="674" r="8" class="c0"/>
<circle cx="976" cy="742" r="8" class="c0"/>
<circle cx="758" cy="572" r="8" class="c0"/>
<circle cx="1072" cy="356" r="8" class="c0"/>
<circle cx="934" cy="488" r="8" class="c0"/>
<circle cx="924" cy="778" r="8" class="c0"/>
<circle cx="870" cy="664" r="8" class="c0"/>
<circle cx="1044" cy="714" r="8" class="c0"/>
<circle cx="1018" cy="688" r="8" class="c0"/>
<circle cx="980" cy="622" r="8" class="c0"/>
<circle cx="1118" cy="380" r="8" class="c0"/>
<circle cx="1092" cy="672" r="8" class="c0"/>
<circle cx="1078" cy="452" r="8" class="c0"/>
<circle cx="1206" cy="504" r="8" class="c0"/>
<circle cx="1036" cy="374" r="8" class="c0"/>
<circle cx="858" cy="518" r="8" class="c0"/>
<circle cx="1108" cy="528" r="8" class="c0"/>
<circle cx="1192" cy="664" r="8" class="c0"/>
<circle cx="1166" cy="744" r="8" class="c0"/>
<circle cx="846" cy="536" r="8" class="c0"/>
<circle cx="904" cy="554" r="8" class="c0"/>
<circle cx="1040" cy="572" r="8" class="c0"/>
<circle cx="812" cy="680" r="8" class="c0"/>
<circle cx="1002" cy="644" r="8" class="c0"/>
<circle cx="1072" cy="832" r="8" class="c0"/>
<circle cx="1118" cy="440" r="8" class="c0"/>
<circle cx="932" cy="426" r="8" class="c0"/>
<circle cx="1024" cy="482" r="8" class="c0"/>
<circle cx="1060" cy="492" r="8" class="c0"/>
<circle cx="936" cy="406" r="8" class="c0"/>
<circle cx="1240" cy="800" r="8" class="c0"/>
<circle cx="1112" cy="606" r="8" class="c0"/>
<circle cx="926" cy="820" r="8" class="c0"/>
<circle cx="1126" cy="562" r="8" class="c0"/>
<circle cx="1076" cy="526" r="8" class="c0"/>
<circle cx="1230" cy="656" r="8" class="c0"/>
<circle cx="1036" cy="396" r="8" class="c0"/>
<circle cx="848" cy="746" r="8" class="c0"/>
<circle cx="1124" cy="642" r="8" class="c0"/>
<circle cx="774" cy="674" r="8" class="c0"/>
<circle cx="1124" cy="746" r="8" class="c0"/>
<circle cx="1088" cy="418" r="8" class="c0"/>
<circle cx="1096" cy="518" r="8" class="c0"/>
<circle cx="978" cy="400" r="8" class="c0"/>
<circle cx="1076" cy="506" r="8" class="c0"/>
<circle cx="1040" cy="808" r="8" class="c0"/>
<circle cx="896" cy="834" r="8" class="c0"/>
<circle cx="996" cy="718" r="8" class="c0"/>
<circle cx="1078" cy="658" r="8" class="c0"/>
<circle cx="920" cy="436" r="8" class="c0"/>
<circle cx="858" cy="650" r="8" class="c0"/>
<circle cx="958" cy="324" r="8" class="c0"/>
<circle cx="1166" cy="490" r="8" class="c0"/>
<circle cx="1190" cy="588" r="8" class="c0"/>
<circle cx="922" cy="548" r="8" class="c0"/>
<circle cx="1140" cy="504" r="8" class="c0"/>
<circle cx="1264" cy="552" r="8" class="c0"/>
<circle cx="1050" cy="606" r="8" class="c0"/>
<circle cx="828" cy="546" r="8" class="c0"/>
<circle cx="904" cy="510" r="8" class="c0"/>
<circle cx="1126" cy="704" r="8" class="c0"/>
<circle cx="1146" cy="604" r="8" class="c0"/>
<circle cx="834" cy="772" r="8" class="c0"/>
<circle cx="1042" cy="484" r="8" class="c0"/>
<circle cx="1060" cy="340" r="8" class="c0"/>
<circle cx="1070" cy="674" r="8" class="c0"/>
<circle cx="814" cy="662" r="8" class="c0"/>
<circle cx="1160" cy="590" r="8" class="c0"/>
<circle cx="1244" cy="532" r="8" class="c0"/>
<circle cx="846" cy="638" r="8" class="c0"/>
<circle cx="1196" cy="606" r="8" class="c0"/>
<circle cx="1122" cy="544" r="8" class="c0"/>
<circle cx="914" cy="496" r="8" class="c0"/>
<circle cx="1110" cy="472" r="8" class="c0"/>
<circle cx="882" cy="676" r="8" class="c0"/>
<circle cx="830" cy="690" r="8" class="c0"/>
<circle cx="872" cy="390" r="8" class="c0"/>
<circle cx="882" cy="814" r="8" class="c0"/>
<circle cx="874" cy="750" r="8" class="c0"/>
<circle cx="1082" cy="686" r="8" class="c0"/>
<circle cx="890" cy="454" r="8" class="c0"/>
<circle cx="1052" cy="844" r="8" class="c0"/>
<circle cx="940" cy="556" r="8" class="c0"/>
<circle cx="884" cy="522" r="8" class="c0"/>
<circle cx="1138" cy="778" r="8" class="c0"/>
<circle cx="1166" cy="462" r="8" class="c0"/>
<circle cx="1250" cy="488" r="8" class="c0"/>
<circle cx="968" cy="472" r="8" class="c0"/>
<circle cx="880" cy="778" r="8" class="c0"/>
<circle cx="1084" cy="486" r="8" class="c0"/>
<circle cx="926" cy="344" r="8" class="c0"/>
<circle cx="762" cy="652" r="8" class="c0"/>
<circle cx="992" cy="604" r="8" class="c0"/>
<circle cx="820" cy="508" r="8" class="c0"/>
<circle cx="1068" cy="698" r="8" class="c0"/>
<circle cx="770" cy="474" r="8" class="c0"/>
<circle cx="872" cy="410" r="8" class="c0"/>
<circle cx="816" cy="478" r="8" class="c0"/>
<circle cx="738" cy="576" r="8" class="c0"/>
<circle cx="924" cy="568" r="8" class="c0"/>
<circle cx="1152" cy="478" r="8" class="c0"/>
<circle cx="1218" cy="674" r="8" class="c0"/>
<circle cx="950" cy="818" r="8" class="c0"/>
<circle cx="820" cy="586" r="8" class="c0"/>
<circle cx="1038" cy="748" r="8" class="c0"/>
<circle cx="1072" cy="566" r="8" class="c0"/>
<circle cx="954" cy="402" r="8" class="c0"/>
<circle cx="1074" cy="476" r="8" class="c0"/>
<circle cx="844" cy="558" r="8" class="c0"/>
<circle cx="970" cy="686" r="8" class="c0"/>
<circle cx="808" cy="742" r="8" class="c0"/>
<circle cx="1120" cy="398" r="8" class="c0"/>
<circle cx="968" cy="414" r="8" class="c0"/>
<circle cx="1086" cy="770" r="8" class="c0"/>
<circle cx="966" cy="834" r="8" class="c0"/>
<circle cx="972" cy="510" r="8" class="c0"/>
<circle cx="1006" cy="744" r="8" class="c0"/>
<circle cx="906" cy="584" r="8" class="c0"/>
<circle cx="1000" cy="446" r="8" class="c0"/>
<circle cx="940" cy="648" r="8" class="c0"/>
<circle cx="908" cy="336" r="8" class="c0"/>
<circle cx="1042" cy="338" r="8" class="c0"/>
<circle cx="870" cy="488" r="8" class="c0"/>
<circle cx="892" cy="622" r="8" class="c0"/>
<circle cx="1242" cy="644" r="8" class="c0"/>
<circle cx="1194" cy="556" r="8" class="c0"/>
<circle cx="1246" cy="506" r="8" class="c0"/>
<circle cx="1158" cy="512" r="8" class="c0"/>
<circle cx="1150" cy="724" r="8" class="c0"/>
<circle cx="822" cy="754" r="8" class="c0"/>
<circle cx="746" cy="556" r="8" class="c0"/>
<circle cx="906" cy="776" r="8" class="c0"/>
<circle cx="1054" cy="824" r="8" class="c0"/>
<circle cx="1026" cy="764" r="8" class="c0"/>
<circle cx="1130" cy="726" r="8" class="c0"/>
<circle cx="1004" cy="540" r="8" class="c0"/>
<circle cx="924" cy="366" r="8" class="c0"/>
<circle cx="1120" cy="460" r="8" class="c0"/>
<circle cx="960" cy="862" r="8" class="c0"/>
<circle cx="1050" cy="354" r="8" class="c0"/>
<circle cx="938" cy="680" r="8" class="c0"/>
<circle cx="778" cy="456" r="8" class="c0"/>
<circle cx="872" cy="584" r="8" class="c0"/>
<circle cx="932" cy="534" r="8" class="c0"/>
<circle cx="1026" cy="856" r="8" class="c0"/>
<circle cx="1190" cy="742" r="8" class="c0"/>
<circle cx="886" cy="708" r="8" class="c0"/>
<circle cx="1014" cy="802" r="8" class="c0"/>
<circle cx="1196" cy="638" r="8" class="c0"/>
<circle cx="1262" cy="570" r="8" class="c0"/>
<circle cx="890" cy="788" r="8" class="c0"/>
<circle cx="1114" cy="766" r="8" class="c0"/>
<circle cx="1058" cy="406" r="8" class="c0"/>
<circle cx="852" cy="478" r="8" class="c0"/>
<circle cx="924" cy="388" r="8" class="c0"/>
<circle cx="914" cy="638" r="8" class="c0"/>
<circle cx="788" cy="466" r="8" class="c0"/>
<circle cx="1198" cy="426" r="8" class="c0"/>
<circle cx="924" cy="592" r="8" class="c0"/>
<circle cx="1090" cy="822" r="6" class="c0"/>
<circle cx="1166" cy="678" r="6" class="c0"/>
<circle cx="1014" cy="832" r="6" class="c0"/>
<circle cx="786" cy="604" r="6" class="c0"/>
<circle cx="1068" cy="740" r="6" class="c0"/>
<circle cx="1088" cy="352" r="6" class="c0"/>
<circle cx="1246" cy="556" r="6" class="c0"/>
<circle cx="988" cy="508" r="6" class="c0"/>
<circle cx="996" cy="586" r="6" class="c0"/>
<circle cx="814" cy="428" r="6" class="c0"/>
<circle cx="1072" cy="760" r="6" class="c0"/>
<circle cx="882" cy="368" r="6" class="c0"/>
<circle cx="964" cy="782" r="6" class="c0"/>
<circle cx="906" cy="356" r="6" class="c0"/>
<circle cx="994" cy="864" r="6" class="c0"/>
<circle cx="974" cy="764" r="6" class="c0"/>
<circle cx="970" cy="348" r="6" class="c0"/>
<circle cx="1006" cy="342" r="6" class="c0"/>
<circle cx="1150" cy="634" r="6" class="c0"/>
<circle cx="1192" cy="706" r="6" class="c0"/>
<circle cx="1174" cy="526" r="6" class="c0"/>
<circle cx="804" cy="590" r="6" class="c0"/>
<circle cx="1182" cy="728" r="6" class="c0"/>
<circle cx="1136" cy="408" r="6" class="c0"/>
<circle cx="1174" cy="630" r="6" class="c0"/>
<circle cx="974" cy="606" r="6" class="c0"/>
<circle cx="1022" cy="564" r="6" class="c0"/>
<circle cx="1036" cy="846" r="6" class="c0"/>
<circle cx="826" cy="462" r="6" class="c0"/>
<circle cx="876" cy="606" r="6" class="c0"/>
<circle cx="1028" cy="500" r="6" class="c0"/>
<circle cx="1034" cy="440" r="6" class="c0"/>
<circle cx="756" cy="632" r="6" class="c0"/>
<circle cx="858" cy="730" r="6" class="c0"/>
<circle cx="950" cy="542" r="6" class="c0"/>
<circle cx="994" cy="832" r="6" class="c0"/>
<circle cx="1054" cy="744" r="6" class="c0"/>
<circle cx="1098" cy="540" r="6" class="c0"/>
<circle cx="948" cy="496" r="6" class="c0"/>
<circle cx="1030" cy="414" r="6" class="c0"/>
<circle cx="798" cy="628" r="6" class="c0"/>
<circle cx="894" cy="406" r="6" class="c0"/>
<circle cx="1088" cy="598" r="6" class="c0"/>
<circle cx="1184" cy="622" r="6" class="c0"/>
<circle cx="1092" cy="726" r="6" class="c0"/>
<circle cx="1214" cy="804" r="6" class="c0"/>
<circle cx="938" cy="832" r="6" class="c0"/>
<circle cx="884" cy="480" r="6" class="c0"/>
<circle cx="842" cy="792" r="6" class="c0"/>
<circle cx="940" cy="734" r="6" class="c0"/>
<circle cx="920" cy="522" r="6" class="c0"/>
<circle cx="1058" cy="646" r="6" class="c0"/>
<circle cx="1014" cy="576" r="6" class="c0"/>
<circle cx="1160" cy="394" r="6" class="c0"/>
<circle cx="942" cy="386" r="6" class="c0"/>
<circle cx="898" cy="696" r="6" class="c0"/>
<circle cx="820" cy="560" r="6" class="c0"/>
<circle cx="1174" cy="442" r="6" class="c0"/>
<circle cx="844" cy="698" r="6" class="c0"/>
<circle cx="936" cy="806" r="6" class="c0"/>
<circle cx="956" cy="678" r="6" class="c0"/>
<circle cx="952" cy="770" r="6" class="c0"/>
<circle cx="938" cy="446" r="6" class="c0"/>
<circle cx="906" cy="444" r="6" class="c0"/>
<circle cx="918" cy="672" r="6" class="c0"/>
<circle cx="1094" cy="398" r="6" class="c0"/>
<circle cx="1226" cy="628" r="6" class="c0"/>
<circle cx="754" cy="484" r="6" class="c0"/>
<circle cx="1036" cy="526" r="6" class="c0"/>
<circle cx="782" cy="484" r="6" class="c0"/>
<circle cx="1066" cy="614" r="6" class="c0"/>
<circle cx="948" cy="670" r="6" class="c0"/>
<circle cx="960" cy="624" r="6" class="c0"/>
<circle cx="1104" cy="734" r="6" class="c0"/>
<circle cx="984" cy="728" r="6" class="c0"/>
<circle cx="858" cy="548" r="6" class="c0"/>
<circle cx="920" cy="474" r="6" class="c0"/>
<circle cx="976" cy="436" r="6" class="c0"/>
<circle cx="906" cy="820" r="6" class="c0"/>
<circle cx="1142" cy="642" r="6" class="c0"/>
<circle cx="832" cy="386" r="6" class="c0"/>
<circle cx="1264" cy="588" r="6" class="c0"/>
<circle cx="1118" cy="576" r="6" class="c0"/>
<circle cx="874" cy="548" r="6" class="c0"/>
<circle cx="1150" cy="658" r="6" class="c0"/>
<circle cx="1186" cy="648" r="6" class="c0"/>
<circle cx="1026" cy="330" r="6" class="c0"/>
<circle cx="1000" cy="678" r="6" class="c0"/>
<circle cx="870" cy="722" r="6" class="c0"/>
<circle cx="986" cy="642" r="6" class="c0"/>
<circle cx="1104" cy="388" r="6" class="c0"/>
<circle cx="1110" cy="588" r="6" class="c0"/>
<circle cx="788" cy="446" r="6" class="c0"/>
<circle cx="932" cy="468" r="6" class="c0"/>
<circle cx="848" cy="426" r="6" class="c0"/>
<circle cx="1014" cy="410" r="6" class="c0"/>
<circle cx="1028" cy="678" r="6" class="c0"/>
<circle cx="1102" cy="452" r="6" class="c0"/>
<circle cx="1212" cy="468" r="6" class="c0"/>
<circle cx="924" cy="798" r="6" class="c0"/>
<circle cx="1102" cy="596" r="6" class="c0"/>
<circle cx="1008" cy="602" r="6" class="c0"/>
<circle cx="1236" cy="784" r="6" class="c0"/>
<circle cx="1060" cy="528" r="6" class="c0"/>
<circle cx="976" cy="720" r="6" class="c0"/>
<circle cx="810" cy="550" r="6" class="c0"/>
<circle cx="1232" cy="546" r="6" class="c0"/>
<circle cx="912" cy="532" r="6" class="c0"/>
<circle cx="1162" cy="562" r="6" class="c0"/>
<circle cx="994" cy="630" r="6" class="c0"/>
<circle cx="1102" cy="780" r="6" class="c0"/>
<circle cx="1198" cy="682" r="6" class="c0"/>
<circle cx="924" cy="836" r="6" class="c0"/>
<circle cx="868" cy="508" r="6" class="c0"/>
<circle cx="1032" cy="608" r="6" class="c0"/>
<circle cx="1172" cy="400" r="6" class="c0"/>
<circle cx="988" cy="554" r="6" class="c0"/>
<circle cx="890" cy="386" r="6" class="c0"/>
<circle cx="890" cy="768" r="6" class="c0"/>
<circle cx="772" cy="642" r="6" class="c0"/>
<circle cx="866" cy="556" r="6" class="c0"/>
<circle cx="836" cy="652" r="6" class="c0"/>
<circle cx="1058" cy="438" r="6" class="c0"/>
<circle cx="1020" cy="636" r="6" class="c0"/>
<circle cx="1112" cy="800" r="6" class="c0"/>
<circle cx="1176" cy="656" r="6" class="c0"/>
<circle cx="1154" cy="768" r="6" class="c0"/>
<circle cx="1228" cy="448" r="6" class="c0"/>
<circle cx="1074" cy="604" r="6" class="c0"/>
<circle cx="1132" cy="658" r="6" class="c0"/>
<circle cx="862" cy="602" r="6" class="c0"/>
<circle cx="898" cy="738" r="6" class="c0"/>
<circle cx="1142" cy="710" r="6" class="c0"/>
<circle cx="832" cy="476" r="6" class="c0"/>
<circle cx="1012" cy="360" r="6" class="c0"/>
<circle cx="848" cy="660" r="6" class="c0"/>
<circle cx="790" cy="710" r="6" class="c0"/>
<circle cx="1220" cy="640" r="6" class="c0"/>
<circle cx="1000" cy="326" r="6" class="c0"/>
<circle cx="988" cy="574" r="6" class="c0"/>
<circle cx="1080" cy="370" r="6" class="c0"/>
<circle cx="890" cy="662" r="6" class="c0"/>
<circle cx="1200" cy="818" r="6" class="c0"/>
<circle cx="1006" cy="506" r="6" class="c0"/>
<circle cx="796" cy="506" r="6" class="c0"/>
<circle cx="990" cy="656" r="6" class="c0"/>
<circle cx="1134" cy="442" r="6" class="c0"/>
<circle cx="940" cy="780" r="6" class="c0"/>
<circle cx="1060" cy="684" r="6" class="c0"/>
<circle cx="838" cy="756" r="6" class="c0"/>
<circle cx="770" cy="534" r="6" class="c0"/>
<circle cx="968" cy="334" r="6" class="c0"/>
<circle cx="922" cy="326" r="6" class="c0"/>
<circle cx="960" cy="486" r="6" class="c0"/>
<circle cx="796" cy="436" r="6" class="c0"/>
<circle cx="1244" cy="592" r="6" class="c0"/>
<circle cx="836" cy="628" r="6" class="c0"/>
<circle cx="986" cy="824" r="6" class="c0"/>
<circle cx="902" cy="398" r="6" class="c0"/>
<circle cx="934" cy="610" r="6" class="c0"/>
<circle cx="1076" cy="730" r="6" class="c0"/>
<circle cx="872" cy="628" r="6" class="c0"/>
<circle cx="1056" cy="568" r="6" class="c0"/>
<circle cx="932" cy="744" r="6" class="c0"/>
<circle cx="1264" cy="534" r="6" class="c0"/>
<circle cx="898" cy="640" r="6" class="c0"/>
<circle cx="936" cy="354" r="6" class="c0"/>
<circle cx="1168" cy="664" r="6" class="c0"/>
<circle cx="814" cy="700" r="6" class="c0"/>
<circle cx="1092" cy="502" r="6" class="c0"/>
<circle cx="1124" cy="424" r="6" class="c0"/>
<circle cx="858" cy="500" r="6" class="c0"/>
<circle cx="998" cy="350" r="6" class="c0"/>
<circle cx="1132" cy="762" r="6" class="c0"/>
<circle cx="1122" cy="512" r="6" class="c0"/>
<circle cx="798" cy="668" r="6" class="c0"/>
<circle cx="796" cy="582" r="6" class="c0"/>
<circle cx="1186" cy="436" r="6" class="c0"/>
<circle cx="1074" cy="788" r="6" class="c0"/>
<circle cx="966" cy="444" r="6" class="c0"/>
<circle cx="1058" cy="474" r="6" class="c0"/>
<circle cx="1220" cy="478" r="6" class="c0"/>
<circle cx="962" cy="500" r="6" class="c0"/>
<circle cx="1236" cy="674" r="6" class="c0"/>
<circle cx="896" cy="364" r="6" class="c0"/>
<circle cx="1050" cy="796" r="6" class="c0"/>
<circle cx="880" cy="798" r="6" class="c0"/>
<circle cx="788" cy="498" r="6" class="c0"/>
<circle cx="1024" cy="840" r="6" class="c0"/>
<circle cx="736" cy="540" r="6" class="c0"/>
<circle cx="1224" cy="796" r="6" class="c0"/>
<circle cx="1042" cy="834" r="6" class="c0"/>
<circle cx="1062" cy="752" r="6" class="c0"/>
<circle cx="934" cy="582" r="6" class="c0"/>
<circle cx="740" cy="516" r="6" class="c0"/>
<circle cx="1254" cy="542" r="6" class="c0"/>
<circle cx="1168" cy="764" r="6" class="c0"/>
<circle cx="1010" cy="866" r="6" class="c0"/>
<circle cx="856" cy="414" r="6" class="c0"/>
<circle cx="792" cy="616" r="6" class="c0"/>
<circle cx="882" cy="400" r="6" class="c0"/>
<circle cx="1184" cy="490" r="6" class="c0"/>
<circle cx="1100" cy="482" r="6" class="c0"/>
<circle cx="862" cy="466" r="6" class="c0"/>
</svg>
