<?xml version="1.0" encoding="utf-8"?>
<svg xmlns="http://www.w3.org/2000/svg"
     xmlns:xlink="http://www.w3.org/1999/xlink" width="1920" height="1440" >

            <defs>
            <style type="text/css"><![CDATA[
circle {stroke: none;}
.c0 {fill: #000000;}
]]></style>
            </defs>
<rect x="0" y="0" width="1920" height="1440" fill="white"/>
<circle cx="1094" cy="366" r="14" class="c0"/>
<circle cx="1136" cy="726" r="14" class="c0"/>
<circle cx="988" cy="374" r="12" class="c0"/>
<circle cx="950" cy="706" r="12" class="c0"/>
<circle cx="952" cy="430" r="12" class="c0"/>
<circle cx="950" cy="464" r="12" class="c0"/>
<circle cx="820" cy="698" r="12" class="c0"/>
<circle cx="922" cy="804" r="12" class="c0"/>
<circle cx="1088" cy="664" r="12" class="c0"/>
<circle cx="930" cy="776" r="12" class="c0"/>
<circle cx="1014" cy="710" r="12" class="c0"/>
<circle cx="1154" cy="754" r="12" class="c0"/>
<circle cx="846" cy="474" r="12" class="c0"/>
<circle cx="802" cy="552" r="12" class="c0"/>
<circle cx="986" cy="688" r="12" class="c0"/>
<circle cx="1100" cy="434" r="12" class="c0"/>
<circle cx="1188" cy="726" r="12" class="c0"/>
<circle cx="996" cy="502" r="12" class="c0"/>
<circle cx="856" cy="444" r="12" class="c0"/>
<circle cx="868" cy="590" r="12" class="c0"/>
<circle cx="810" cy="514" r="12" class="c0"/>
<circle cx="988" cy="822" r="12" class="c0"/>
<circle cx="1152" cy="492" r="12" class="c0"/>
<circle cx="1198" cy="508" r="12" class="c0"/>
<circle cx="1016" cy="798" r="12" class="c0"/>
<circle cx="772" cy="554" r="12" class="c0"/>
<circle cx="1166" cy="634" r="12" class="c0"/>
<circle cx="1200" cy="460" r="12" class="c0"/>
<circle cx="980" cy="642" r="12" class="c0"/>
<circle cx="894" cy="456" r="12" class="c0"/>
<circle cx="866" cy="636" r="12" class="c0"/>
<circle cx="1092" cy="462" r="12" class="c0"/>
<circle cx="962" cy="398" r="12" class="c0"/>
<circle cx="882" cy="664" r="10" class="c0"/>
<circle cx="814" cy="626" r="10" class="c0"/>
<circle cx="1032" cy="542" r="10" class="c0"/>
<circle cx="916" cy="410" r="10" class="c0"/>
<circle cx="1108" cy="728" r="10" class="c0"/>
<circle cx="1066" cy="778" r="10" class="c0"/>
<circle cx="1180" cy="798" r="10" class="c0"/>
<circle cx="838" cy="386" r="10" class="c0"/>
<circle cx="1178" cy="388" r="10" class="c0"/>
<circle cx="1108" cy="608" r="10" class="c0"/>
<circle cx="1134" cy="834" r="10" class="c0"/>
<circle cx="1196" cy="768" r="10" class="c0"/>
<circle cx="764" cy="652" r="10" class="c0"/>
<circle cx="1194" cy="636" r="10" class="c0"/>
<circle cx="884" cy="786" r="10" class="c0"/>
<circle cx="1202" cy="696" r="10" class="c0"/>
<circle cx="974" cy="458" r="10" class="c0"/>
<circle cx="786" cy="694" r="10" class="c0"/>
<circle cx="916" cy="688" r="10" class="c0"/>
<circle cx="1022" cy="764" r="10" class="c0"/>
<circle cx="1154" cy="606" r="10" class="c0"/>
<circle cx="778" cy="674" r="10" class="c0"/>
<circle cx="800" cy="438" r="10" class="c0"/>
<circle cx="1072" cy="642" r="10" class="c0"/>
<circle cx="1100" cy="844" r="10" class="c0"/>
<circle cx="1194" cy="544" r="10" class="c0"/>
<circle cx="1046" cy="808" r="10" class="c0"/>
<circle cx="1236" cy="614" r="10" class="c0"/>
<circle cx="1014" cy="738" r="10" class="c0"/>
<circle cx="1078" cy="684" r="10" class="c0"/>
<circle cx="1078" cy="524" r="10" class="c0"/>
<circle cx="820" cy="748" r="10" class="c0"/>
<circle cx="928" cy="750" r="10" class="c0"/>
<circle cx="966" cy="510" r="10" class="c0"/>
<circle cx="1152" cy="820" r="10" class="c0"/>
<circle cx="914" cy="538" r="10" class="c0"/>
<circle cx="876" cy="472" r="10" class="c0"/>
<circle cx="954" cy="526" r="10" class="c0"/>
<circle cx="826" cy="496" r="10" class="c0"/>
<circle cx="1050" cy="680" r="10" class="c0"/>
<circle cx="970" cy="352" r="10" class="c0"/>
<circle cx="1148" cy="518" r="10" class="c0"/>
<circle cx="1186" cy="612" r="10" class="c0"/>
<circle cx="854" cy="544" r="10" class="c0"/>
<circle cx="1034" cy="574" r="10" class="c0"/>
<circle cx="930" cy="362" r="10" class="c0"/>
<circle cx="1116" cy="666" r="10" class="c0"/>
<circle cx="1054" cy="366" r="10" class="c0"/>
<circle cx="832" cy="732" r="10" class="c0"/>
<circle cx="862" cy="386" r="10" class="c0"/>
<circle cx="1068" cy="450" r="10" class="c0"/>
<circle cx="908" cy="476" r="10" class="c0"/>
<circle cx="1236" cy="554" r="10" class="c0"/>
<circle cx="900" cy="372" r="10" class="c0"/>
<circle cx="784" cy="572" r="10" class="c0"/>
<circle cx="1060" cy="662" r="10" class="c0"/>
<circle cx="938" cy="548" r="10" class="c0"/>
<circle cx="1126" cy="814" r="10" class="c0"/>
<circle cx="742" cy="616" r="10" class="c0"/>
<circle cx="1160" cy="558" r="10" class="c0"/>
<circle cx="782" cy="498" r="10" class="c0"/>
<circle cx="1164" cy="588" r="10" class="c0"/>
<circle cx="1208" cy="652" r="10" class="c0"/>
<circle cx="950" cy="822" r="10" class="c0"/>
<circle cx="1236" cy="486" r="10" class="c0"/>
<circle cx="1120" cy="592" r="10" class="c0"/>
<circle cx="1054" cy="594" r="10" class="c0"/>
<circle cx="1020" cy="392" r="10" class="c0"/>
<circle cx="1086" cy="612" r="10" class="c0"/>
<circle cx="994" cy="420" r="10" class="c0"/>
<circle cx="978" cy="572" r="10" class="c0"/>
<circle cx="1004" cy="636" r="10" class="c0"/>
<circle cx="1208" cy="584" r="10" class="c0"/>
<circle cx="1088" cy="720" r="10" class="c0"/>
<circle cx="1064" cy="548" r="10" class="c0"/>
<circle cx="1170" cy="438" r="10" class="c0"/>
<circle cx="970" cy="774" r="10" class="c0"/>
<circle cx="1220" cy="672" r="10" class="c0"/>
<circle cx="782" cy="638" r="10" class="c0"/>
<circle cx="994" cy="664" r="10" class="c0"/>
<circle cx="1130" cy="426" r="10" class="c0"/>
<circle cx="842" cy="560" r="10" class="c0"/>
<circle cx="1002" cy="530" r="10" class="c0"/>
<circle cx="1146" cy="414" r="10" class="c0"/>
<circle cx="954" cy="746" r="10" class="c0"/>
<circle cx="1112" cy="694" r="10" class="c0"/>
<circle cx="1138" cy="696" r="10" class="c0"/>
<circle cx="948" cy="634" r="10" class="c0"/>
<circle cx="892" cy="526" r="10" class="c0"/>
<circle cx="1198" cy="404" r="10" class="c0"/>
<circle cx="1146" cy="462" r="10" class="c0"/>
<circle cx="812" cy="404" r="10" class="c0"/>
<circle cx="1026" cy="472" r="10" class="c0"/>
<circle cx="1048" cy="852" r="10" class="c0"/>
<circle cx="894" cy="722" r="10" class="c0"/>
<circle cx="930" cy="716" r="10" class="c0"/>
<circle cx="1122" cy="564" r="10" class="c0"/>
<circle cx="1186" cy="574" r="10" class="c0"/>
<circle cx="1026" cy="834" r="10" class="c0"/>
<circle cx="1034" cy="506" r="10" class="c0"/>
<circle cx="924" cy="648" r="10" class="c0"/>
<circle cx="1090" cy="578" r="8" class="c0"/>
<circle cx="1080" cy="482" r="8" class="c0"/>
<circle cx="830" cy="430" r="8" class="c0"/>
<circle cx="852" cy="706" r="8" class="c0"/>
<circle cx="1028" cy="448" r="8" class="c0"/>
<circle cx="972" cy="490" r="8" class="c0"/>
<circle cx="864" cy="734" r="8" class="c0"/>
<circle cx="1122" cy="778" r="8" class="c0"/>
<circle cx="994" cy="800" r="8" class="c0"/>
<circle cx="1228" cy="506" r="8" class="c0"/>
<circle cx="768" cy="466" r="8" class="c0"/>
<circle cx="1074" cy="834" r="8" class="c0"/>
<circle cx="928" cy="480" r="8" class="c0"/>
<circle cx="992" cy="716" r="8" class="c0"/>
<circle cx="1126" cy="636" r="8" class="c0"/>
<circle cx="950" cy="586" r="8" class="c0"/>
<circle cx="984" cy="518" r="8" class="c0"/>
<circle cx="992" cy="446" r="8" class="c0"/>
<circle cx="952" cy="614" r="8" class="c0"/>
<circle cx="762" cy="496" r="8" class="c0"/>
<circle cx="1046" cy="482" r="8" class="c0"/>
<circle cx="1004" cy="404" r="8" class="c0"/>
<circle cx="864" cy="790" r="8" class="c0"/>
<circle cx="1328" cy="648" r="8" class="c0"/>
<circle cx="892" cy="686" r="8" class="c0"/>
<circle cx="1198" cy="672" r="8" class="c0"/>
<circle cx="1100" cy="642" r="8" class="c0"/>
<circle cx="1064" cy="388" r="8" class="c0"/>
<circle cx="794" cy="732" r="8" class="c0"/>
<circle cx="1244" cy="586" r="8" class="c0"/>
<circle cx="1072" cy="566" r="8" class="c0"/>
<circle cx="1212" cy="492" r="8" class="c0"/>
<circle cx="942" cy="506" r="8" class="c0"/>
<circle cx="1138" cy="654" r="8" class="c0"/>
<circle cx="1224" cy="694" r="8" class="c0"/>
<circle cx="1024" cy="664" r="8" class="c0"/>
<circle cx="754" cy="514" r="8" class="c0"/>
<circle cx="1106" cy="796" r="8" class="c0"/>
<circle cx="780" cy="598" r="8" class="c0"/>
<circle cx="1106" cy="534" r="8" class="c0"/>
<circle cx="848" cy="674" r="8" class="c0"/>
<circle cx="1094" cy="774" r="8" class="c0"/>
<circle cx="878" cy="760" r="8" class="c0"/>
<circle cx="1058" cy="708" r="8" class="c0"/>
<circle cx="1010" cy="582" r="8" class="c0"/>
<circle cx="1142" cy="540" r="8" class="c0"/>
<circle cx="1172" cy="500" r="8" class="c0"/>
<circle cx="980" cy="738" r="8" class="c0"/>
<circle cx="1118" cy="456" r="8" class="c0"/>
<circle cx="1282" cy="628" r="8" class="c0"/>
<circle cx="1314" cy="634" r="8" class="c0"/>
<circle cx="874" cy="534" r="8" class="c0"/>
<circle cx="996" cy="598" r="8" class="c0"/>
<circle cx="826" cy="648" r="8" class="c0"/>
<circle cx="970" cy="838" r="8" class="c0"/>
<circle cx="1046" cy="396" r="8" class="c0"/>
<circle cx="980" cy="540" r="8" class="c0"/>
<circle cx="954" cy="666" r="8" class="c0"/>
<circle cx="1038" cy="650" r="8" class="c0"/>
<circle cx="1070" cy="424" r="8" class="c0"/>
<circle cx="780" cy="452" r="8" class="c0"/>
<circle cx="1054" cy="738" r="8" class="c0"/>
<circle cx="1246" cy="524" r="8" class="c0"/>
<circle cx="930" cy="594" r="8" class="c0"/>
<circle cx="1212" cy="628" r="8" class="c0"/>
<circle cx="1042" cy="752" r="8" class="c0"/>
<circle cx="850" cy="404" r="8" class="c0"/>
<circle cx="880" cy="574" r="8" class="c0"/>
<circle cx="848" cy="752" r="8" class="c0"/>
<circle cx="1022" cy="560" r="8" class="c0"/>
<circle cx="1108" cy="756" r="8" class="c0"/>
<circle cx="1054" cy="520" r="8" class="c0"/>
<circle cx="882" cy="440" r="8" class="c0"/>
<circle cx="1208" cy="558" r="8" class="c0"/>
<circle cx="848" cy="648" r="8" class="c0"/>
<circle cx="1222" cy="468" r="8" class="c0"/>
<circle cx="1182" cy="520" r="8" class="c0"/>
<circle cx="904" cy="820" r="8" class="c0"/>
<circle cx="838" cy="772" r="8" class="c0"/>
<circle cx="966" cy="600" r="8" class="c0"/>
<circle cx="1102" cy="818" r="8" class="c0"/>
<circle cx="806" cy="650" r="8" class="c0"/>
<circle cx="968" cy="806" r="8" class="c0"/>
<circle cx="1002" cy="784" r="8" class="c0"/>
<circle cx="922" cy="622" r="8" class="c0"/>
<circle cx="898" cy="426" r="8" class="c0"/>
<circle cx="1002" cy="760" r="8" class="c0"/>
<circle cx="1120" cy="848" r="8" class="c0"/>
<circle cx="1028" cy="348" r="8" class="c0"/>
<circle cx="1224" cy="538" r="8" class="c0"/>
<circle cx="844" cy="512" r="8" class="c0"/>
<circle cx="914" cy="726" r="8" class="c0"/>
<circle cx="1118" cy="354" r="8" class="c0"/>
<circle cx="1226" cy="644" r="8" class="c0"/>
<circle cx="1152" cy="392" r="8" class="c0"/>
<circle cx="858" cy="764" r="8" class="c0"/>
<circle cx="1228" cy="574" r="8" class="c0"/>
<circle cx="770" cy="710" r="8" class="c0"/>
<circle cx="876" cy="712" r="8" class="c0"/>
<circle cx="1180" cy="414" r="8" class="c0"/>
<circle cx="1178" cy="752" r="8" class="c0"/>
<circle cx="904" cy="760" r="8" class="c0"/>
<circle cx="798" cy="466" r="8" class="c0"/>
<circle cx="754" cy="670" r="8" class="c0"/>
<circle cx="1154" cy="374" r="8" class="c0"/>
<circle cx="914" cy="496" r="8" class="c0"/>
<circle cx="1128" cy="488" r="8" class="c0"/>
<circle cx="1108" cy="496" r="8" class="c0"/>
<circle cx="1142" cy="786" r="8" class="c0"/>
<circle cx="812" cy="588" r="8" class="c0"/>
<circle cx="922" cy="434" r="8" class="c0"/>
<circle cx="1132" cy="766" r="8" class="c0"/>
<circle cx="764" cy="620" r="8" class="c0"/>
<circle cx="1166" cy="714" r="8" class="c0"/>
<circle cx="946" cy="488" r="8" class="c0"/>
<circle cx="1086" cy="800" r="8" class="c0"/>
<circle cx="778" cy="524" r="8" class="c0"/>
<circle cx="1076" cy="704" r="8" class="c0"/>
<circle cx="900" cy="656" r="8" class="c0"/>
<circle cx="934" cy="678" r="8" class="c0"/>
<circle cx="1190" cy="434" r="8" class="c0"/>
<circle cx="1218" cy="712" r="8" class="c0"/>
<circle cx="1032" cy="720" r="8" class="c0"/>
<circle cx="1110" cy="472" r="8" class="c0"/>
<circle cx="1160" cy="694" r="8" class="c0"/>
<circle cx="1086" cy="396" r="8" class="c0"/>
<circle cx="1024" cy="426" r="8" class="c0"/>
<circle cx="1228" cy="444" r="8" class="c0"/>
<circle cx="1176" cy="674" r="8" class="c0"/>
<circle cx="818" cy="536" r="8" class="c0"/>
<circle cx="1300" cy="646" r="8" class="c0"/>
<circle cx="950" cy="794" r="8" class="c0"/>
<circle cx="980" cy="436" r="8" class="c0"/>
<circle cx="1052" cy="428" r="8" class="c0"/>
<circle cx="918" cy="514" r="8" class="c0"/>
<circle cx="1120" cy="386" r="8" class="c0"/>
<circle cx="1006" cy="352" r="8" class="c0"/>
<circle cx="1070" cy="752" r="8" class="c0"/>
<circle cx="1094" cy="514" r="8" class="c0"/>
<circle cx="916" cy="570" r="8" class="c0"/>
<circle cx="1176" cy="774" r="8" class="c0"/>
<circle cx="984" cy="620" r="8" class="c0"/>
<circle cx="1198" cy="482" r="8" class="c0"/>
<circle cx="1106" cy="412" r="8" class="c0"/>
<circle cx="1066" cy="502" r="8" class="c0"/>
<circle cx="882" cy="364" r="8" class="c0"/>
<circle cx="1124" cy="520" r="8" class="c0"/>
<circle cx="824" cy="476" r="8" class="c0"/>
<circle cx="958" cy="374" r="8" class="c0"/>
<circle cx="1200" cy="424" r="8" class="c0"/>
<circle cx="838" cy="620" r="8" class="c0"/>
<circle cx="912" cy="386" r="8" class="c0"/>
<circle cx="938" cy="388" r="8" class="c0"/>
<circle cx="1176" cy="704" r="8" class="c0"/>
<circle cx="1026" cy="594" r="8" class="c0"/>
<circle cx="1032" cy="690" r="8" class="c0"/>
<circle cx="1226" cy="594" r="8" class="c0"/>
<circle cx="1010" cy="454" r="8" class="c0"/>
<circle cx="1124" cy="618" r="8" class="c0"/>
<circle cx="862" cy="418" r="8" class="c0"/>
<circle cx="922" cy="830" r="8" class="c0"/>
<circle cx="934" cy="576" r="8" class="c0"/>
<circle cx="1150" cy="684" r="8" class="c0"/>
<circle cx="1010" cy="486" r="8" class="c0"/>
<circle cx="1032" cy="618" r="8" class="c0"/>
<circle cx="1004" cy="564" r="8" class="c0"/>
<circle cx="1142" cy="622" r="8" class="c0"/>
<circle cx="906" cy="786" r="8" class="c0"/>
<circle cx="1096" cy="548" r="8" class="c0"/>
<circle cx="982" cy="786" r="8" class="c0"/>
<circle cx="1204" cy="748" r="8" class="c0"/>
<circle cx="1066" cy="728" r="8" class="c0"/>
<circle cx="790" cy="608" r="8" class="c0"/>
<circle cx="826" cy="574" r="8" class="c0"/>
<circle cx="1052" cy="464" r="8" class="c0"/>
<circle cx="1176" cy="482" r="8" class="c0"/>
<circle cx="864" cy="686" r="8" class="c0"/>
<circle cx="1066" cy="346" r="8" class="c0"/>
<circle cx="1054" cy="634" r="8" class="c0"/>
<circle cx="768" cy="582" r="8" class="c0"/>
<circle cx="910" cy="592" r="8" class="c0"/>
<circle cx="1076" cy="596" r="8" class="c0"/>
<circle cx="1160" cy="794" r="8" class="c0"/>
<circle cx="992" cy="848" r="8" class="c0"/>
<circle cx="960" cy="688" r="8" class="c0"/>
<circle cx="930" cy="450" r="8" class="c0"/>
<circle cx="894" cy="406" r="8" class="c0"/>
<circle cx="1150" cy="442" r="8" class="c0"/>
<circle cx="1016" cy="608" r="8" class="c0"/>
<circle cx="894" cy="634" r="8" class="c0"/>
<circle cx="1096" cy="740" r="8" class="c0"/>
<circle cx="1124" cy="542" r="8" class="c0"/>
<circle cx="832" cy="524" r="8" class="c0"/>
<circle cx="900" cy="604" r="8" class="c0"/>
<circle cx="888" cy="488" r="8" class="c0"/>
<circle cx="1110" cy="576" r="8" class="c0"/>
<circle cx="870" cy="516" r="8" class="c0"/>
<circle cx="974" cy="416" r="8" class="c0"/>
<circle cx="890" cy="560" r="8" class="c0"/>
<circle cx="880" cy="622" r="8" class="c0"/>
<circle cx="896" cy="742" r="8" class="c0"/>
<circle cx="854" cy="502" r="8" class="c0"/>
<circle cx="1174" cy="464" r="8" class="c0"/>
<circle cx="1056" cy="824" r="8" class="c0"/>
<circle cx="826" cy="670" r="8" class="c0"/>
<circle cx="1066" cy="620" r="8" class="c0"/>
<circle cx="808" cy="676" r="8" class="c0"/>
<circle cx="826" cy="606" r="8" class="c0"/>
<circle cx="958" cy="552" r="8" class="c0"/>
<circle cx="754" cy="596" r="8" class="c0"/>
<circle cx="1014" cy="512" r="8" class="c0"/>
<circle cx="996" cy="464" r="8" class="c0"/>
<circle cx="1072" cy="852" r="8" class="c0"/>
<circle cx="1090" cy="632" r="8" class="c0"/>
<circle cx="800" cy="598" r="8" class="c0"/>
<circle cx="744" cy="636" r="8" class="c0"/>
<circle cx="1134" cy="364" r="8" class="c0"/>
<circle cx="984" cy="404" r="8" class="c0"/>
<circle cx="802" cy="708" r="8" class="c0"/>
<circle cx="832" cy="448" r="8" class="c0"/>
<circle cx="874" cy="406" r="8" class="c0"/>
<circle cx="850" cy="602" r="8" class="c0"/>
<circle cx="992" cy="552" r="8" class="c0"/>
<circle cx="1102" cy="678" r="8" class="c0"/>
<circle cx="862" cy="614" r="8" class="c0"/>
<circle cx="884" cy="388" r="8" class="c0"/>
<circle cx="1028" cy="854" r="8" class="c0"/>
<circle cx="966" cy="726" r="8" class="c0"/>
<circle cx="906" cy="706" r="8" class="c0"/>
<circle cx="1142" cy="574" r="8" class="c0"/>
<circle cx="1086" cy="416" r="8" class="c0"/>
<circle cx="758" cy="694" r="8" class="c0"/>
<circle cx="1160" cy="530" r="8" class="c0"/>
<circle cx="854" cy="572" r="8" class="c0"/>
<circle cx="788" cy="478" r="8" class="c0"/>
<circle cx="944" cy="410" r="8" class="c0"/>
<circle cx="1128" cy="402" r="8" class="c0"/>
<circle cx="830" cy="546" r="8" class="c0"/>
<circle cx="838" cy="588" r="8" class="c0"/>
<circle cx="1050" cy="768" r="8" class="c0"/>
<circle cx="1046" cy="346" r="8" class="c0"/>
<circle cx="1004" cy="836" r="8" class="c0"/>
<circle cx="818" cy="458" r="8" class="c0"/>
<circle cx="888" cy="812" r="8" class="c0"/>
<circle cx="906" cy="556" r="6" class="c0"/>
<circle cx="960" cy="574" r="6" class="c0"/>
<circle cx="1018" cy="364" r="6" class="c0"/>
<circle cx="1160" cy="666" r="6" class="c0"/>
<circle cx="894" cy="506" r="6" class="c0"/>
<circle cx="836" cy="714" r="6" class="c0"/>
<circle cx="914" cy="666" r="6" class="c0"/>
<circle cx="836" cy="638" r="6" class="c0"/>
<circle cx="1168" cy="812" r="6" class="c0"/>
<circle cx="868" cy="560" r="6" class="c0"/>
<circle cx="880" cy="736" r="6" class="c0"/>
<circle cx="1020" cy="496" r="6" class="c0"/>
<circle cx="986" cy="478" r="6" class="c0"/>
<circle cx="1240" cy="632" r="6" class="c0"/>
<circle cx="982" cy="340" r="6" class="c0"/>
<circle cx="1028" cy="634" r="6" class="c0"/>
<circle cx="808" cy="572" r="6" class="c0"/>
<circle cx="1136" cy="504" r="6" class="c0"/>
<circle cx="1164" cy="730" r="6" class="c0"/>
<circle cx="1212" cy="608" r="6" class="c0"/>
<circle cx="932" cy="424" r="6" class="c0"/>
<circle cx="976" cy="590" r="6" class="c0"/>
<circle cx="934" cy="610" r="6" class="c0"/>
<circle cx="1180" cy="650" r="6" class="c0"/>
<circle cx="1034" cy="364" r="6" class="c0"/>
<circle cx="1072" cy="816" r="6" class="c0"/>
<circle cx="1212" cy="438" r="6" class="c0"/>
<circle cx="868" cy="490" r="6" class="c0"/>
<circle cx="1264" cy="626" r="6" class="c0"/>
<circle cx="978" cy="756" r="6" class="c0"/>
<circle cx="1122" cy="708" r="6" class="c0"/>
<circle cx="796" cy="526" r="6" class="c0"/>
<circle cx="940" cy="736" r="6" class="c0"/>
<circle cx="882" cy="420" r="6" class="c0"/>
<circle cx="1220" cy="520" r="6" class="c0"/>
<circle cx="1138" cy="672" r="6" class="c0"/>
<circle cx="744" cy="586" r="6" class="c0"/>
<circle cx="1052" cy="564" r="6" class="c0"/>
<circle cx="756" cy="572" r="6" class="c0"/>
<circle cx="1156" cy="774" r="6" class="c0"/>
<circle cx="812" cy="730" r="6" class="c0"/>
<circle cx="972" cy="700" r="6" class="c0"/>
<circle cx="1008" cy="430" r="6" class="c0"/>
<circle cx="976" cy="672" r="6" class="c0"/>
<circle cx="906" cy="624" r="6" class="c0"/>
<circle cx="1044" cy="442" r="6" class="c0"/>
<circle cx="1088" cy="826" r="6" class="c0"/>
<circle cx="948" cy="566" r="6" class="c0"/>
<circle cx="1164" cy="402" r="6" class="c0"/>
<circle cx="1134" cy="606" r="6" class="c0"/>
<circle cx="928" cy="528" r="6" class="c0"/>
<circle cx="1064" cy="800" r="6" class="c0"/>
<circle cx="858" cy="662" r="6" class="c0"/>
<circle cx="1188" cy="492" r="6" class="c0"/>
<circle cx="1028" cy="812" r="6" class="c0"/>
<circle cx="1128" cy="470" r="6" class="c0"/>
<circle cx="1060" cy="404" r="6" class="c0"/>
<circle cx="892" cy="586" r="6" class="c0"/>
<circle cx="1214" cy="414" r="6" class="c0"/>
<circle cx="1002" cy="386" r="6" class="c0"/>
<circle cx="1086" cy="760" r="6" class="c0"/>
<circle cx="948" cy="346" r="6" class="c0"/>
<circle cx="1102" cy="394" r="6" class="c0"/>
<circle cx="950" cy="770" r="6" class="c0"/>
<circle cx="1062" cy="486" r="6" class="c0"/>
<circle cx="1040" cy="604" r="6" class="c0"/>
<circle cx="830" cy="402" r="6" class="c0"/>
<circle cx="792" cy="420" r="6" class="c0"/>
<circle cx="938" cy="662" r="6" class="c0"/>
<circle cx="1084" cy="784" r="6" class="c0"/>
<circle cx="964" cy="652" r="6" class="c0"/>
<circle cx="1210" cy="528" r="6" class="c0"/>
<circle cx="1248" cy="542" r="6" class="c0"/>
<circle cx="1138" cy="380" r="6" class="c0"/>
<circle cx="1018" cy="626" r="6" class="c0"/>
<circle cx="954" cy="840" r="6" class="c0"/>
<circle cx="1126" cy="680" r="6" class="c0"/>
<circle cx="756" cy="530" r="6" class="c0"/>
<circle cx="1034" cy="382" r="6" class="c0"/>
<circle cx="1014" cy="846" r="6" class="c0"/>
<circle cx="1074" cy="376" r="6" class="c0"/>
<circle cx="1016" cy="678" r="6" class="c0"/>
<circle cx="1034" cy="408" r="6" class="c0"/>
<circle cx="814" cy="424" r="6" class="c0"/>
<circle cx="884" cy="544" r="6" class="c0"/>
<circle cx="1012" cy="818" r="6" class="c0"/>
<circle cx="1002" cy="726" r="6" class="c0"/>
<circle cx="964" cy="626" r="6" class="c0"/>
<circle cx="1050" cy="538" r="6" class="c0"/>
<circle cx="810" cy="762" r="6" class="c0"/>
<circle cx="1208" cy="730" r="6" class="c0"/>
<circle cx="854" cy="780" r="6" class="c0"/>
<circle cx="892" cy="770" r="6" class="c0"/>
<circle cx="1236" cy="664" r="6" class="c0"/>
<circle cx="1026" cy="522" r="6" class="c0"/>
<circle cx="1116" cy="830" r="6" class="c0"/>
<circle cx="1178" cy="536" r="6" class="c0"/>
<circle cx="936" cy="694" r="6" class="c0"/>
<circle cx="1016" cy="338" r="6" class="c0"/>
<circle cx="1040" cy="788" r="6" class="c0"/>
<circle cx="996" cy="742" r="6" class="c0"/>
<circle cx="1250" cy="570" r="6" class="c0"/>
<circle cx="1224" cy="426" r="6" class="c0"/>
<circle cx="796" cy="624" r="6" class="c0"/>
<circle cx="780" cy="434" r="6" class="c0"/>
<circle cx="962" cy="446" r="6" class="c0"/>
<circle cx="1134" cy="450" r="6" class="c0"/>
<circle cx="1100" cy="564" r="6" class="c0"/>
<circle cx="802" cy="490" r="6" class="c0"/>
<circle cx="948" cy="364" r="6" class="c0"/>
<circle cx="1128" cy="748" r="6" class="c0"/>
<circle cx="1052" cy="612" r="6" class="c0"/>
<circle cx="1100" cy="588" r="6" class="c0"/>
<circle cx="920" cy="604" r="6" class="c0"/>
<circle cx="1006" cy="692" r="6" class="c0"/>
<circle cx="1070" cy="468" r="6" class="c0"/>
<circle cx="1154" cy="652" r="6" class="c0"/>
<circle cx="742" cy="654" r="6" class="c0"/>
<circle cx="798" cy="750" r="6" class="c0"/>
<circle cx="792" cy="658" r="6" class="c0"/>
<circle cx="1170" cy="544" r="6" class="c0"/>
<circle cx="846" cy="428" r="6" class="c0"/>
<circle cx="810" cy="608" r="6" class="c0"/>
<circle cx="1186" cy="686" r="6" class="c0"/>
<circle cx="788" cy="716" r="6" class="c0"/>
<circle cx="1042" cy="556" r="6" class="c0"/>
<circle cx="1110" cy="512" r="6" class="c0"/>
<circle cx="1186" cy="662" r="6" class="c0"/>
<circle cx="1110" cy="632" r="6" class="c0"/>
<circle cx="976" cy="714" r="6" class="c0"/>
<circle cx="1090" cy="858" r="6" class="c0"/>
<circle cx="1140" cy="558" r="6" class="c0"/>
<circle cx="788" cy="540" r="6" class="c0"/>
<circle cx="856" cy="524" r="6" class="c0"/>
<circle cx="1100" cy="482" r="6" class="c0"/>
<circle cx="942" cy="762" r="6" class="c0"/>
<circle cx="1042" cy="710" r="6" class="c0"/>
<circle cx="872" cy="806" r="6" class="c0"/>
<circle cx="1026" cy="374" r="6" class="c0"/>
<circle cx="938" cy="834" r="6" class="c0"/>
<circle cx="1082" cy="348" r="6" class="c0"/>
<circle cx="1120" cy="740" r="6" class="c0"/>
<circle cx="1184" cy="592" r="6" class="c0"/>
<circle cx="900" cy="576" r="6" class="c0"/>
<circle cx="1018" cy="648" r="6" class="c0"/>
<circle cx="836" cy="684" r="6" class="c0"/>
<circle cx="912" cy="448" r="6" class="c0"/>
<circle cx="1142" cy="592" r="6" class="c0"/>
<circle cx="992" cy="770" r="6" class="c0"/>
<circle cx="996" cy="342" r="6" class="c0"/>
<circle cx="1146" cy="638" r="6" class="c0"/>
<circle cx="880" cy="604" r="6" class="c0"/>
<circle cx="898" cy="546" r="6" class="c0"/>
<circle cx="1086" cy="498" r="6" class="c0"/>
<circle cx="910" cy="638" r="6" class="c0"/>
<circle cx="1196" cy="598" r="6" class="c0"/>
<circle cx="1082" cy="556" r="6" class="c0"/>
<circle cx="878" cy="696" r="6" class="c0"/>
<circle cx="1062" cy="576" r="6" class="c0"/>
<circle cx="1050" cy="412" r="6" class="c0"/>
<circle cx="780" cy="724" r="6" class="c0"/>
<circle cx="1128" cy="796" r="6" class="c0"/>
<circle cx="1034" cy="776" r="6" class="c0"/>
<circle cx="1078" cy="738" r="6" class="c0"/>
<circle cx="1248" cy="504" r="6" class="c0"/>
<circle cx="1162" cy="454" r="6" class="c0"/>
<circle cx="1054" cy="792" r="6" class="c0"/>
<circle cx="1000" cy="616" r="6" class="c0"/>
<circle cx="818" cy="440" r="6" class="c0"/>
<circle cx="1164" cy="420" r="6" class="c0"/>
<circle cx="884" cy="646" r="6" class="c0"/>
<circle cx="1010" cy="372" r="6" class="c0"/>
<circle cx="1012" cy="548" r="6" class="c0"/>
<circle cx="878" cy="498" r="6" class="c0"/>
<circle cx="898" cy="802" r="6" class="c0"/>
<circle cx="910" cy="356" r="6" class="c0"/>
<circle cx="890" cy="702" r="6" class="c0"/>
<circle cx="950" cy="728" r="6" class="c0"/>
<circle cx="1074" cy="406" r="6" class="c0"/>
<circle cx="1048" cy="698" r="6" class="c0"/>
<circle cx="906" cy="674" r="6" class="c0"/>
<circle cx="1104" cy="710" r="6" class="c0"/>
<circle cx="838" cy="414" r="6" class="c0"/>
<circle cx="920" cy="464" r="6" class="c0"/>
<circle cx="1094" cy="700" r="6" class="c0"/>
<circle cx="994" cy="580" r="6" class="c0"/>
<circle cx="1104" cy="346" r="6" class="c0"/>
<circle cx="842" cy="696" r="6" class="c0"/>
<circle cx="1014" cy="416" r="6" class="c0"/>
<circle cx="820" cy="720" r="6" class="c0"/>
<circle cx="1182" cy="556" r="6" class="c0"/>
<circle cx="932" cy="496" r="6" class="c0"/>
<circle cx="1150" cy="710" r="6" class="c0"/>
</svg>
