<?xml version="1.0" encoding="utf-8"?>
<svg xmlns="http://www.w3.org/2000/svg"
     xmlns:xlink="http://www.w3.org/1999/xlink" width="1920" height="1440" >

            <defs>
            <style type="text/css"><![CDATA[
circle {stroke: none;}
.c0 {fill: #000000;}
]]></style>
            </defs>
<rect x="0" y="0" width="1920" height="1440" fill="white"/>
<circle cx="1180" cy="898" r="14" class="c0"/>
<circle cx="1042" cy="610" r="12" class="c0"/>
<circle cx="1168" cy="822" r="12" class="c0"/>
<circle cx="994" cy="670" r="12" class="c0"/>
<circle cx="1100" cy="760" r="12" class="c0"/>
<circle cx="1318" cy="772" r="12" class="c0"/>
<circle cx="1026" cy="736" r="12" class="c0"/>
<circle cx="1168" cy="742" r="12" class="c0"/>
<circle cx="1262" cy="562" r="12" class="c0"/>
<circle cx="1054" cy="862" r="12" class="c0"/>
<circle cx="1208" cy="876" r="12" class="c0"/>
<circle cx="930" cy="508" r="12" class="c0"/>
<circle cx="1224" cy="462" r="12" class="c0"/>
<circle cx="922" cy="694" r="12" class="c0"/>
<circle cx="1026" cy="554" r="12" class="c0"/>
<circle cx="870" cy="754" r="12" class="c0"/>
<circle cx="1136" cy="652" r="12" class="c0"/>
<circle cx="878" cy="698" r="12" class="c0"/>
<circle cx="1216" cy="546" r="12" class="c0"/>
<circle cx="972" cy="828" r="12" class="c0"/>
<circle cx="1096" cy="420" r="12" class="c0"/>
<circle cx="904" cy="528" r="12" class="c0"/>
<circle cx="1216" cy="596" r="12" class="c0"/>
<circle cx="1048" cy="816" r="12" class="c0"/>
<circle cx="1236" cy="682" r="12" class="c0"/>
<circle cx="822" cy="752" r="12" class="c0"/>
<circle cx="1118" cy="724" r="12" class="c0"/>
<circle cx="1220" cy="662" r="12" class="c0"/>
<circle cx="1100" cy="472" r="12" class="c0"/>
<circle cx="1046" cy="924" r="12" class="c0"/>
<circle cx="1020" cy="644" r="12" class="c0"/>
<circle cx="1160" cy="520" r="12" class="c0"/>
<circle cx="1140" cy="494" r="12" class="c0"/>
<circle cx="1054" cy="766" r="12" class="c0"/>
<circle cx="916" cy="558" r="12" class="c0"/>
<circle cx="1134" cy="420" r="12" class="c0"/>
<circle cx="1142" cy="904" r="12" class="c0"/>
<circle cx="1284" cy="726" r="12" class="c0"/>
<circle cx="856" cy="584" r="12" class="c0"/>
<circle cx="974" cy="776" r="12" class="c0"/>
<circle cx="1130" cy="852" r="12" class="c0"/>
<circle cx="1110" cy="918" r="12" class="c0"/>
<circle cx="962" cy="674" r="12" class="c0"/>
<circle cx="786" cy="634" r="12" class="c0"/>
<circle cx="1032" cy="500" r="10" class="c0"/>
<circle cx="1116" cy="816" r="10" class="c0"/>
<circle cx="1238" cy="520" r="10" class="c0"/>
<circle cx="1080" cy="566" r="10" class="c0"/>
<circle cx="1058" cy="716" r="10" class="c0"/>
<circle cx="1088" cy="870" r="10" class="c0"/>
<circle cx="940" cy="890" r="10" class="c0"/>
<circle cx="1090" cy="664" r="10" class="c0"/>
<circle cx="1190" cy="472" r="10" class="c0"/>
<circle cx="1022" cy="596" r="10" class="c0"/>
<circle cx="1074" cy="824" r="10" class="c0"/>
<circle cx="1166" cy="560" r="10" class="c0"/>
<circle cx="1302" cy="682" r="10" class="c0"/>
<circle cx="1012" cy="516" r="10" class="c0"/>
<circle cx="974" cy="566" r="10" class="c0"/>
<circle cx="854" cy="704" r="10" class="c0"/>
<circle cx="950" cy="492" r="10" class="c0"/>
<circle cx="834" cy="734" r="10" class="c0"/>
<circle cx="1224" cy="714" r="10" class="c0"/>
<circle cx="846" cy="542" r="10" class="c0"/>
<circle cx="806" cy="598" r="10" class="c0"/>
<circle cx="882" cy="788" r="10" class="c0"/>
<circle cx="924" cy="734" r="10" class="c0"/>
<circle cx="802" cy="620" r="10" class="c0"/>
<circle cx="1260" cy="698" r="10" class="c0"/>
<circle cx="1288" cy="750" r="10" class="c0"/>
<circle cx="1126" cy="680" r="10" class="c0"/>
<circle cx="1148" cy="812" r="10" class="c0"/>
<circle cx="1130" cy="766" r="10" class="c0"/>
<circle cx="1098" cy="850" r="10" class="c0"/>
<circle cx="846" cy="662" r="10" class="c0"/>
<circle cx="1126" cy="576" r="10" class="c0"/>
<circle cx="1208" cy="826" r="10" class="c0"/>
<circle cx="1328" cy="678" r="10" class="c0"/>
<circle cx="1302" cy="642" r="10" class="c0"/>
<circle cx="956" cy="588" r="10" class="c0"/>
<circle cx="1052" cy="658" r="10" class="c0"/>
<circle cx="1234" cy="756" r="10" class="c0"/>
<circle cx="1268" cy="774" r="10" class="c0"/>
<circle cx="1282" cy="618" r="10" class="c0"/>
<circle cx="1282" cy="526" r="10" class="c0"/>
<circle cx="1128" cy="880" r="10" class="c0"/>
<circle cx="1118" cy="444" r="10" class="c0"/>
<circle cx="1258" cy="636" r="10" class="c0"/>
<circle cx="832" cy="618" r="10" class="c0"/>
<circle cx="1060" cy="548" r="10" class="c0"/>
<circle cx="1174" cy="496" r="10" class="c0"/>
<circle cx="904" cy="714" r="10" class="c0"/>
<circle cx="1308" cy="704" r="10" class="c0"/>
<circle cx="922" cy="876" r="10" class="c0"/>
<circle cx="996" cy="728" r="10" class="c0"/>
<circle cx="1278" cy="596" r="10" class="c0"/>
<circle cx="1094" cy="624" r="10" class="c0"/>
<circle cx="1262" cy="846" r="10" class="c0"/>
<circle cx="952" cy="554" r="10" class="c0"/>
<circle cx="1256" cy="610" r="10" class="c0"/>
<circle cx="1070" cy="800" r="10" class="c0"/>
<circle cx="1014" cy="784" r="10" class="c0"/>
<circle cx="1102" cy="892" r="10" class="c0"/>
<circle cx="932" cy="828" r="10" class="c0"/>
<circle cx="864" cy="636" r="10" class="c0"/>
<circle cx="992" cy="474" r="10" class="c0"/>
<circle cx="1164" cy="846" r="10" class="c0"/>
<circle cx="1200" cy="790" r="10" class="c0"/>
<circle cx="886" cy="582" r="10" class="c0"/>
<circle cx="1008" cy="688" r="10" class="c0"/>
<circle cx="1200" cy="514" r="10" class="c0"/>
<circle cx="976" cy="542" r="10" class="c0"/>
<circle cx="966" cy="920" r="10" class="c0"/>
<circle cx="1066" cy="432" r="10" class="c0"/>
<circle cx="1176" cy="422" r="10" class="c0"/>
<circle cx="908" cy="642" r="10" class="c0"/>
<circle cx="998" cy="440" r="10" class="c0"/>
<circle cx="1214" cy="802" r="10" class="c0"/>
<circle cx="1248" cy="794" r="10" class="c0"/>
<circle cx="894" cy="850" r="10" class="c0"/>
<circle cx="1290" cy="778" r="10" class="c0"/>
<circle cx="1184" cy="728" r="10" class="c0"/>
<circle cx="934" cy="656" r="10" class="c0"/>
<circle cx="928" cy="576" r="10" class="c0"/>
<circle cx="924" cy="476" r="10" class="c0"/>
<circle cx="1044" cy="842" r="10" class="c0"/>
<circle cx="894" cy="768" r="10" class="c0"/>
<circle cx="994" cy="934" r="10" class="c0"/>
<circle cx="880" cy="652" r="10" class="c0"/>
<circle cx="1090" cy="810" r="10" class="c0"/>
<circle cx="940" cy="528" r="10" class="c0"/>
<circle cx="1050" cy="586" r="10" class="c0"/>
<circle cx="1192" cy="642" r="10" class="c0"/>
<circle cx="1156" cy="406" r="10" class="c0"/>
<circle cx="828" cy="778" r="10" class="c0"/>
<circle cx="916" cy="620" r="10" class="c0"/>
<circle cx="942" cy="684" r="10" class="c0"/>
<circle cx="1282" cy="654" r="10" class="c0"/>
<circle cx="884" cy="604" r="10" class="c0"/>
<circle cx="1104" cy="586" r="10" class="c0"/>
<circle cx="1078" cy="492" r="10" class="c0"/>
<circle cx="1044" cy="534" r="10" class="c0"/>
<circle cx="1176" cy="584" r="10" class="c0"/>
<circle cx="1230" cy="620" r="10" class="c0"/>
<circle cx="1010" cy="760" r="10" class="c0"/>
<circle cx="1130" cy="542" r="10" class="c0"/>
<circle cx="1210" cy="424" r="10" class="c0"/>
<circle cx="1042" cy="696" r="10" class="c0"/>
<circle cx="1010" cy="816" r="10" class="c0"/>
<circle cx="1196" cy="758" r="10" class="c0"/>
<circle cx="1162" cy="636" r="10" class="c0"/>
<circle cx="1030" cy="682" r="10" class="c0"/>
<circle cx="1304" cy="598" r="10" class="c0"/>
<circle cx="1126" cy="474" r="10" class="c0"/>
<circle cx="1154" cy="670" r="10" class="c0"/>
<circle cx="1048" cy="466" r="10" class="c0"/>
<circle cx="896" cy="804" r="10" class="c0"/>
<circle cx="1108" cy="652" r="10" class="c0"/>
<circle cx="986" cy="890" r="10" class="c0"/>
<circle cx="1154" cy="726" r="10" class="c0"/>
<circle cx="1232" cy="576" r="10" class="c0"/>
<circle cx="1200" cy="580" r="10" class="c0"/>
<circle cx="948" cy="716" r="10" class="c0"/>
<circle cx="1142" cy="624" r="10" class="c0"/>
<circle cx="1204" cy="488" r="10" class="c0"/>
<circle cx="1122" cy="512" r="10" class="c0"/>
<circle cx="990" cy="578" r="10" class="c0"/>
<circle cx="958" cy="748" r="10" class="c0"/>
<circle cx="950" cy="778" r="10" class="c0"/>
<circle cx="1002" cy="494" r="10" class="c0"/>
<circle cx="1008" cy="916" r="8" class="c0"/>
<circle cx="1102" cy="688" r="8" class="c0"/>
<circle cx="1316" cy="742" r="8" class="c0"/>
<circle cx="994" cy="624" r="8" class="c0"/>
<circle cx="1038" cy="896" r="8" class="c0"/>
<circle cx="1122" cy="600" r="8" class="c0"/>
<circle cx="1154" cy="598" r="8" class="c0"/>
<circle cx="992" cy="870" r="8" class="c0"/>
<circle cx="1214" cy="848" r="8" class="c0"/>
<circle cx="1078" cy="954" r="8" class="c0"/>
<circle cx="910" cy="834" r="8" class="c0"/>
<circle cx="908" cy="862" r="8" class="c0"/>
<circle cx="938" cy="600" r="8" class="c0"/>
<circle cx="1260" cy="726" r="8" class="c0"/>
<circle cx="1068" cy="848" r="8" class="c0"/>
<circle cx="1212" cy="726" r="8" class="c0"/>
<circle cx="950" cy="466" r="8" class="c0"/>
<circle cx="818" cy="690" r="8" class="c0"/>
<circle cx="1114" cy="794" r="8" class="c0"/>
<circle cx="1260" cy="822" r="8" class="c0"/>
<circle cx="1110" cy="526" r="8" class="c0"/>
<circle cx="1128" cy="744" r="8" class="c0"/>
<circle cx="1154" cy="460" r="8" class="c0"/>
<circle cx="1252" cy="542" r="8" class="c0"/>
<circle cx="946" cy="618" r="8" class="c0"/>
<circle cx="1066" cy="518" r="8" class="c0"/>
<circle cx="998" cy="534" r="8" class="c0"/>
<circle cx="1188" cy="616" r="8" class="c0"/>
<circle cx="1172" cy="702" r="8" class="c0"/>
<circle cx="1170" cy="446" r="8" class="c0"/>
<circle cx="974" cy="854" r="8" class="c0"/>
<circle cx="800" cy="678" r="8" class="c0"/>
<circle cx="1230" cy="500" r="8" class="c0"/>
<circle cx="986" cy="752" r="8" class="c0"/>
<circle cx="1080" cy="768" r="8" class="c0"/>
<circle cx="1182" cy="860" r="8" class="c0"/>
<circle cx="858" cy="802" r="8" class="c0"/>
<circle cx="1238" cy="870" r="8" class="c0"/>
<circle cx="1238" cy="644" r="8" class="c0"/>
<circle cx="858" cy="676" r="8" class="c0"/>
<circle cx="1000" cy="840" r="8" class="c0"/>
<circle cx="904" cy="602" r="8" class="c0"/>
<circle cx="1026" cy="874" r="8" class="c0"/>
<circle cx="1084" cy="608" r="8" class="c0"/>
<circle cx="978" cy="688" r="8" class="c0"/>
<circle cx="1268" cy="510" r="8" class="c0"/>
<circle cx="1202" cy="738" r="8" class="c0"/>
<circle cx="1292" cy="830" r="8" class="c0"/>
<circle cx="1090" cy="740" r="8" class="c0"/>
<circle cx="1014" cy="884" r="8" class="c0"/>
<circle cx="1286" cy="550" r="8" class="c0"/>
<circle cx="1006" cy="708" r="8" class="c0"/>
<circle cx="1294" cy="572" r="8" class="c0"/>
<circle cx="914" cy="494" r="8" class="c0"/>
<circle cx="810" cy="710" r="8" class="c0"/>
<circle cx="1082" cy="542" r="8" class="c0"/>
<circle cx="1170" cy="792" r="8" class="c0"/>
<circle cx="1154" cy="542" r="8" class="c0"/>
<circle cx="1066" cy="880" r="8" class="c0"/>
<circle cx="968" cy="874" r="8" class="c0"/>
<circle cx="824" cy="646" r="8" class="c0"/>
<circle cx="1080" cy="912" r="8" class="c0"/>
<circle cx="926" cy="540" r="8" class="c0"/>
<circle cx="1058" cy="628" r="8" class="c0"/>
<circle cx="906" cy="670" r="8" class="c0"/>
<circle cx="832" cy="592" r="8" class="c0"/>
<circle cx="1068" cy="638" r="8" class="c0"/>
<circle cx="1278" cy="498" r="8" class="c0"/>
<circle cx="1116" cy="634" r="8" class="c0"/>
<circle cx="1190" cy="840" r="8" class="c0"/>
<circle cx="1250" cy="474" r="8" class="c0"/>
<circle cx="1170" cy="680" r="8" class="c0"/>
<circle cx="1182" cy="522" r="8" class="c0"/>
<circle cx="970" cy="458" r="8" class="c0"/>
<circle cx="1074" cy="706" r="8" class="c0"/>
<circle cx="1214" cy="632" r="8" class="c0"/>
<circle cx="994" cy="792" r="8" class="c0"/>
<circle cx="850" cy="522" r="8" class="c0"/>
<circle cx="890" cy="552" r="8" class="c0"/>
<circle cx="970" cy="490" r="8" class="c0"/>
<circle cx="802" cy="730" r="8" class="c0"/>
<circle cx="830" cy="706" r="8" class="c0"/>
<circle cx="1178" cy="606" r="8" class="c0"/>
<circle cx="1066" cy="600" r="8" class="c0"/>
<circle cx="884" cy="626" r="8" class="c0"/>
<circle cx="1242" cy="732" r="8" class="c0"/>
<circle cx="1050" cy="736" r="8" class="c0"/>
<circle cx="844" cy="768" r="8" class="c0"/>
<circle cx="1062" cy="936" r="8" class="c0"/>
<circle cx="1030" cy="954" r="8" class="c0"/>
<circle cx="1026" cy="458" r="8" class="c0"/>
<circle cx="810" cy="554" r="8" class="c0"/>
<circle cx="970" cy="734" r="8" class="c0"/>
<circle cx="1054" cy="684" r="8" class="c0"/>
<circle cx="1094" cy="786" r="8" class="c0"/>
<circle cx="990" cy="810" r="8" class="c0"/>
<circle cx="1040" cy="794" r="8" class="c0"/>
<circle cx="816" cy="670" r="8" class="c0"/>
<circle cx="968" cy="700" r="8" class="c0"/>
<circle cx="934" cy="790" r="8" class="c0"/>
<circle cx="1226" cy="858" r="8" class="c0"/>
<circle cx="940" cy="408" r="8" class="c0"/>
<circle cx="1022" cy="480" r="8" class="c0"/>
<circle cx="846" cy="748" r="8" class="c0"/>
<circle cx="972" cy="622" r="8" class="c0"/>
<circle cx="956" cy="840" r="8" class="c0"/>
<circle cx="1138" cy="786" r="8" class="c0"/>
<circle cx="1182" cy="550" r="8" class="c0"/>
<circle cx="1138" cy="522" r="8" class="c0"/>
<circle cx="862" cy="562" r="8" class="c0"/>
<circle cx="1096" cy="500" r="8" class="c0"/>
<circle cx="1214" cy="698" r="8" class="c0"/>
<circle cx="876" cy="524" r="8" class="c0"/>
<circle cx="958" cy="520" r="8" class="c0"/>
<circle cx="1260" cy="672" r="8" class="c0"/>
<circle cx="896" cy="686" r="8" class="c0"/>
<circle cx="1070" cy="410" r="8" class="c0"/>
<circle cx="1266" cy="482" r="8" class="c0"/>
<circle cx="1156" cy="882" r="8" class="c0"/>
<circle cx="1110" cy="566" r="8" class="c0"/>
<circle cx="1180" cy="806" r="8" class="c0"/>
<circle cx="1282" cy="848" r="8" class="c0"/>
<circle cx="1030" cy="768" r="8" class="c0"/>
<circle cx="1034" cy="714" r="8" class="c0"/>
<circle cx="1188" cy="674" r="8" class="c0"/>
<circle cx="1162" cy="482" r="8" class="c0"/>
<circle cx="1144" cy="838" r="8" class="c0"/>
<circle cx="1008" cy="460" r="8" class="c0"/>
<circle cx="1328" cy="714" r="8" class="c0"/>
<circle cx="1114" cy="494" r="8" class="c0"/>
<circle cx="956" cy="642" r="8" class="c0"/>
<circle cx="1210" cy="772" r="8" class="c0"/>
<circle cx="892" cy="870" r="8" class="c0"/>
<circle cx="1134" cy="824" r="8" class="c0"/>
<circle cx="878" cy="840" r="8" class="c0"/>
<circle cx="1254" cy="760" r="8" class="c0"/>
<circle cx="814" cy="632" r="8" class="c0"/>
<circle cx="1010" cy="948" r="8" class="c0"/>
<circle cx="882" cy="672" r="8" class="c0"/>
<circle cx="1042" cy="442" r="8" class="c0"/>
<circle cx="954" cy="864" r="8" class="c0"/>
<circle cx="1000" cy="562" r="8" class="c0"/>
<circle cx="974" cy="654" r="8" class="c0"/>
<circle cx="862" cy="826" r="8" class="c0"/>
<circle cx="872" cy="730" r="8" class="c0"/>
<circle cx="1084" cy="524" r="8" class="c0"/>
<circle cx="1116" cy="698" r="8" class="c0"/>
<circle cx="1074" cy="680" r="8" class="c0"/>
<circle cx="940" cy="852" r="8" class="c0"/>
<circle cx="996" cy="604" r="8" class="c0"/>
<circle cx="834" cy="676" r="8" class="c0"/>
<circle cx="1204" cy="444" r="8" class="c0"/>
<circle cx="862" cy="606" r="8" class="c0"/>
<circle cx="958" cy="802" r="8" class="c0"/>
<circle cx="904" cy="742" r="8" class="c0"/>
<circle cx="1150" cy="432" r="8" class="c0"/>
<circle cx="874" cy="812" r="8" class="c0"/>
<circle cx="952" cy="442" r="8" class="c0"/>
<circle cx="1240" cy="486" r="8" class="c0"/>
<circle cx="1092" cy="444" r="8" class="c0"/>
<circle cx="886" cy="510" r="8" class="c0"/>
<circle cx="952" cy="820" r="8" class="c0"/>
<circle cx="986" cy="708" r="8" class="c0"/>
<circle cx="1318" cy="660" r="8" class="c0"/>
<circle cx="1184" cy="770" r="8" class="c0"/>
<circle cx="1320" cy="632" r="8" class="c0"/>
<circle cx="920" cy="768" r="8" class="c0"/>
<circle cx="856" cy="778" r="8" class="c0"/>
<circle cx="1254" cy="588" r="8" class="c0"/>
<circle cx="1048" cy="422" r="8" class="c0"/>
<circle cx="1270" cy="804" r="8" class="c0"/>
<circle cx="1016" cy="864" r="8" class="c0"/>
<circle cx="1276" cy="680" r="8" class="c0"/>
<circle cx="1024" cy="848" r="8" class="c0"/>
<circle cx="1100" cy="710" r="8" class="c0"/>
<circle cx="1044" cy="566" r="8" class="c0"/>
<circle cx="1144" cy="558" r="8" class="c0"/>
<circle cx="1024" cy="576" r="8" class="c0"/>
<circle cx="1016" cy="666" r="8" class="c0"/>
<circle cx="1120" cy="404" r="8" class="c0"/>
<circle cx="1242" cy="828" r="8" class="c0"/>
<circle cx="1056" cy="956" r="8" class="c0"/>
<circle cx="842" cy="642" r="8" class="c0"/>
<circle cx="1190" cy="706" r="8" class="c0"/>
<circle cx="1102" cy="606" r="8" class="c0"/>
<circle cx="1058" cy="490" r="8" class="c0"/>
<circle cx="1246" cy="452" r="8" class="c0"/>
<circle cx="1252" cy="500" r="8" class="c0"/>
<circle cx="1074" cy="452" r="8" class="c0"/>
<circle cx="836" cy="570" r="8" class="c0"/>
<circle cx="1082" cy="930" r="8" class="c0"/>
<circle cx="1280" cy="816" r="8" class="c0"/>
<circle cx="1024" cy="802" r="8" class="c0"/>
<circle cx="1234" cy="778" r="8" class="c0"/>
<circle cx="1102" cy="830" r="8" class="c0"/>
<circle cx="782" cy="612" r="8" class="c0"/>
<circle cx="806" cy="656" r="8" class="c0"/>
<circle cx="816" cy="578" r="8" class="c0"/>
<circle cx="1138" cy="450" r="8" class="c0"/>
<circle cx="1190" cy="596" r="8" class="c0"/>
<circle cx="1128" cy="934" r="8" class="c0"/>
<circle cx="1018" cy="906" r="8" class="c0"/>
<circle cx="1196" cy="538" r="8" class="c0"/>
<circle cx="1068" cy="898" r="8" class="c0"/>
<circle cx="1038" cy="634" r="8" class="c0"/>
<circle cx="1154" cy="572" r="8" class="c0"/>
<circle cx="1234" cy="440" r="8" class="c0"/>
<circle cx="890" cy="830" r="8" class="c0"/>
<circle cx="1152" cy="762" r="8" class="c0"/>
<circle cx="1306" cy="820" r="8" class="c0"/>
<circle cx="1150" cy="704" r="8" class="c0"/>
<circle cx="1100" cy="938" r="8" class="c0"/>
<circle cx="1188" cy="434" r="8" class="c0"/>
<circle cx="912" cy="586" r="8" class="c0"/>
<circle cx="1284" cy="696" r="8" class="c0"/>
<circle cx="844" cy="790" r="8" class="c0"/>
<circle cx="922" cy="802" r="8" class="c0"/>
<circle cx="1018" cy="434" r="8" class="c0"/>
<circle cx="788" cy="688" r="8" class="c0"/>
<circle cx="1074" cy="472" r="8" class="c0"/>
<circle cx="1310" cy="724" r="8" class="c0"/>
<circle cx="1062" cy="574" r="8" class="c0"/>
<circle cx="938" cy="760" r="8" class="c0"/>
<circle cx="1066" cy="744" r="8" class="c0"/>
<circle cx="1252" cy="656" r="8" class="c0"/>
<circle cx="1022" cy="830" r="8" class="c0"/>
<circle cx="1018" cy="928" r="8" class="c0"/>
<circle cx="1160" cy="690" r="8" class="c0"/>
<circle cx="1162" cy="776" r="8" class="c0"/>
<circle cx="984" cy="520" r="8" class="c0"/>
<circle cx="984" cy="634" r="8" class="c0"/>
<circle cx="906" cy="782" r="8" class="c0"/>
<circle cx="942" cy="910" r="8" class="c0"/>
<circle cx="1306" cy="800" r="8" class="c0"/>
<circle cx="782" cy="658" r="8" class="c0"/>
<circle cx="1328" cy="752" r="8" class="c0"/>
<circle cx="930" cy="634" r="8" class="c0"/>
<circle cx="940" cy="808" r="8" class="c0"/>
<circle cx="790" cy="710" r="8" class="c0"/>
<circle cx="1176" cy="654" r="8" class="c0"/>
<circle cx="1238" cy="602" r="8" class="c0"/>
<circle cx="1238" cy="554" r="8" class="c0"/>
<circle cx="1098" cy="536" r="6" class="c0"/>
<circle cx="1078" cy="726" r="6" class="c0"/>
<circle cx="840" cy="810" r="6" class="c0"/>
<circle cx="1296" cy="540" r="6" class="c0"/>
<circle cx="1158" cy="918" r="6" class="c0"/>
<circle cx="1204" cy="680" r="6" class="c0"/>
<circle cx="886" cy="744" r="6" class="c0"/>
<circle cx="980" cy="600" r="6" class="c0"/>
<circle cx="1186" cy="454" r="6" class="c0"/>
<circle cx="1104" cy="402" r="6" class="c0"/>
<circle cx="1082" cy="890" r="6" class="c0"/>
<circle cx="1248" cy="714" r="6" class="c0"/>
<circle cx="900" cy="570" r="6" class="c0"/>
<circle cx="900" cy="484" r="6" class="c0"/>
<circle cx="980" cy="448" r="6" class="c0"/>
<circle cx="1086" cy="402" r="6" class="c0"/>
<circle cx="1088" cy="696" r="6" class="c0"/>
<circle cx="1302" cy="556" r="6" class="c0"/>
<circle cx="1246" cy="856" r="6" class="c0"/>
<circle cx="1130" cy="708" r="6" class="c0"/>
<circle cx="1226" cy="836" r="6" class="c0"/>
<circle cx="974" cy="902" r="6" class="c0"/>
<circle cx="852" cy="726" r="6" class="c0"/>
<circle cx="872" cy="544" r="6" class="c0"/>
<circle cx="1212" cy="750" r="6" class="c0"/>
<circle cx="1328" cy="788" r="6" class="c0"/>
<circle cx="1020" cy="618" r="6" class="c0"/>
<circle cx="1070" cy="780" r="6" class="c0"/>
<circle cx="992" cy="912" r="6" class="c0"/>
<circle cx="1268" cy="536" r="6" class="c0"/>
<circle cx="1258" cy="526" r="6" class="c0"/>
<circle cx="1192" cy="818" r="6" class="c0"/>
<circle cx="1172" cy="470" r="6" class="c0"/>
<circle cx="1136" cy="590" r="6" class="c0"/>
<circle cx="1112" cy="670" r="6" class="c0"/>
<circle cx="1060" cy="912" r="6" class="c0"/>
<circle cx="964" cy="474" r="6" class="c0"/>
<circle cx="964" cy="604" r="6" class="c0"/>
<circle cx="1196" cy="558" r="6" class="c0"/>
<circle cx="934" cy="424" r="6" class="c0"/>
<circle cx="1026" cy="530" r="6" class="c0"/>
<circle cx="1270" cy="714" r="6" class="c0"/>
<circle cx="1146" cy="742" r="6" class="c0"/>
<circle cx="1302" cy="622" r="6" class="c0"/>
<circle cx="884" cy="718" r="6" class="c0"/>
<circle cx="1034" cy="860" r="6" class="c0"/>
<circle cx="1182" cy="690" r="6" class="c0"/>
<circle cx="1162" cy="866" r="6" class="c0"/>
<circle cx="1326" cy="732" r="6" class="c0"/>
<circle cx="1316" cy="610" r="6" class="c0"/>
<circle cx="1186" cy="566" r="6" class="c0"/>
<circle cx="976" cy="718" r="6" class="c0"/>
<circle cx="1040" cy="754" r="6" class="c0"/>
<circle cx="1210" cy="566" r="6" class="c0"/>
<circle cx="946" cy="572" r="6" class="c0"/>
<circle cx="1238" cy="844" r="6" class="c0"/>
<circle cx="1210" cy="616" r="6" class="c0"/>
<circle cx="1162" cy="612" r="6" class="c0"/>
<circle cx="1072" cy="660" r="6" class="c0"/>
<circle cx="1226" cy="814" r="6" class="c0"/>
<circle cx="894" cy="732" r="6" class="c0"/>
<circle cx="1058" cy="450" r="6" class="c0"/>
<circle cx="1108" cy="864" r="6" class="c0"/>
<circle cx="1050" cy="882" r="6" class="c0"/>
<circle cx="960" cy="894" r="6" class="c0"/>
<circle cx="924" cy="848" r="6" class="c0"/>
<circle cx="1222" cy="742" r="6" class="c0"/>
<circle cx="922" cy="598" r="6" class="c0"/>
<circle cx="924" cy="898" r="6" class="c0"/>
<circle cx="948" cy="422" r="6" class="c0"/>
<circle cx="800" cy="700" r="6" class="c0"/>
<circle cx="818" cy="724" r="6" class="c0"/>
<circle cx="904" cy="880" r="6" class="c0"/>
<circle cx="898" cy="656" r="6" class="c0"/>
<circle cx="1094" cy="554" r="6" class="c0"/>
<circle cx="1078" cy="586" r="6" class="c0"/>
<circle cx="918" cy="818" r="6" class="c0"/>
<circle cx="840" cy="692" r="6" class="c0"/>
<circle cx="1278" cy="576" r="6" class="c0"/>
<circle cx="1002" cy="900" r="6" class="c0"/>
<circle cx="1268" cy="746" r="6" class="c0"/>
<circle cx="1112" cy="840" r="6" class="c0"/>
<circle cx="1110" cy="776" r="6" class="c0"/>
<circle cx="1194" cy="416" r="6" class="c0"/>
<circle cx="1288" cy="798" r="6" class="c0"/>
<circle cx="866" cy="662" r="6" class="c0"/>
<circle cx="1056" cy="790" r="6" class="c0"/>
<circle cx="872" cy="572" r="6" class="c0"/>
<circle cx="1276" cy="832" r="6" class="c0"/>
<circle cx="1142" cy="690" r="6" class="c0"/>
<circle cx="1138" cy="400" r="6" class="c0"/>
<circle cx="1216" cy="524" r="6" class="c0"/>
<circle cx="846" cy="604" r="6" class="c0"/>
<circle cx="938" cy="868" r="6" class="c0"/>
<circle cx="1172" cy="536" r="6" class="c0"/>
<circle cx="1040" cy="484" r="6" class="c0"/>
<circle cx="1028" cy="938" r="6" class="c0"/>
<circle cx="1214" cy="502" r="6" class="c0"/>
<circle cx="844" cy="718" r="6" class="c0"/>
<circle cx="1154" cy="790" r="6" class="c0"/>
<circle cx="1086" cy="642" r="6" class="c0"/>
<circle cx="1072" cy="618" r="6" class="c0"/>
<circle cx="896" cy="500" r="6" class="c0"/>
<circle cx="826" cy="556" r="6" class="c0"/>
<circle cx="1172" cy="878" r="6" class="c0"/>
<circle cx="1004" cy="634" r="6" class="c0"/>
<circle cx="986" cy="502" r="6" class="c0"/>
<circle cx="1310" cy="580" r="6" class="c0"/>
<circle cx="1118" cy="944" r="6" class="c0"/>
<circle cx="802" cy="568" r="6" class="c0"/>
<circle cx="990" cy="552" r="6" class="c0"/>
<circle cx="1000" cy="774" r="6" class="c0"/>
<circle cx="1014" cy="722" r="6" class="c0"/>
<circle cx="1200" cy="606" r="6" class="c0"/>
<circle cx="932" cy="384" r="6" class="c0"/>
<circle cx="1170" cy="620" r="6" class="c0"/>
<circle cx="1336" cy="700" r="6" class="c0"/>
<circle cx="1116" cy="616" r="6" class="c0"/>
<circle cx="1032" cy="664" r="6" class="c0"/>
<circle cx="1142" cy="866" r="6" class="c0"/>
<circle cx="1198" cy="856" r="6" class="c0"/>
<circle cx="978" cy="800" r="6" class="c0"/>
<circle cx="1110" cy="548" r="6" class="c0"/>
<circle cx="992" cy="826" r="6" class="c0"/>
<circle cx="1006" cy="588" r="6" class="c0"/>
<circle cx="914" cy="752" r="6" class="c0"/>
<circle cx="968" cy="510" r="6" class="c0"/>
<circle cx="1002" cy="856" r="6" class="c0"/>
<circle cx="1034" cy="518" r="6" class="c0"/>
<circle cx="1008" cy="546" r="6" class="c0"/>
<circle cx="1322" cy="804" r="6" class="c0"/>
<circle cx="942" cy="452" r="6" class="c0"/>
<circle cx="990" cy="650" r="6" class="c0"/>
<circle cx="1304" cy="760" r="6" class="c0"/>
<circle cx="1296" cy="810" r="6" class="c0"/>
<circle cx="1302" cy="662" r="6" class="c0"/>
<circle cx="1238" cy="702" r="6" class="c0"/>
<circle cx="1186" cy="876" r="6" class="c0"/>
<circle cx="906" cy="508" r="6" class="c0"/>
<circle cx="1050" cy="506" r="6" class="c0"/>
<circle cx="990" cy="850" r="6" class="c0"/>
<circle cx="1244" cy="812" r="6" class="c0"/>
<circle cx="1196" cy="660" r="6" class="c0"/>
<circle cx="1198" cy="692" r="6" class="c0"/>
<circle cx="926" cy="714" r="6" class="c0"/>
<circle cx="1138" cy="734" r="6" class="c0"/>
<circle cx="1032" cy="424" r="6" class="c0"/>
<circle cx="1284" cy="636" r="6" class="c0"/>
<circle cx="1222" cy="482" r="6" class="c0"/>
<circle cx="1152" cy="858" r="6" class="c0"/>
<circle cx="1330" cy="644" r="6" class="c0"/>
<circle cx="1138" cy="716" r="6" class="c0"/>
<circle cx="896" cy="616" r="6" class="c0"/>
<circle cx="794" cy="582" r="6" class="c0"/>
<circle cx="866" cy="512" r="6" class="c0"/>
<circle cx="1144" cy="472" r="6" class="c0"/>
<circle cx="1020" cy="700" r="6" class="c0"/>
<circle cx="1202" cy="460" r="6" class="c0"/>
<circle cx="1130" cy="802" r="6" class="c0"/>
<circle cx="1180" cy="630" r="6" class="c0"/>
<circle cx="1046" cy="946" r="6" class="c0"/>
<circle cx="926" cy="672" r="6" class="c0"/>
<circle cx="850" cy="626" r="6" class="c0"/>
<circle cx="1256" cy="866" r="6" class="c0"/>
<circle cx="990" cy="456" r="6" class="c0"/>
<circle cx="944" cy="734" r="6" class="c0"/>
<circle cx="1140" cy="606" r="6" class="c0"/>
<circle cx="1060" cy="834" r="6" class="c0"/>
<circle cx="802" cy="748" r="6" class="c0"/>
<circle cx="1118" cy="900" r="6" class="c0"/>
<circle cx="1300" cy="738" r="6" class="c0"/>
<circle cx="1096" cy="954" r="6" class="c0"/>
<circle cx="872" cy="774" r="6" class="c0"/>
<circle cx="916" cy="660" r="6" class="c0"/>
<circle cx="1006" cy="614" r="6" class="c0"/>
<circle cx="860" cy="532" r="6" class="c0"/>
<circle cx="1252" cy="744" r="6" class="c0"/>
<circle cx="1186" cy="408" r="6" class="c0"/>
<circle cx="1084" cy="462" r="6" class="c0"/>
<circle cx="832" cy="800" r="6" class="c0"/>
<circle cx="1200" cy="716" r="6" class="c0"/>
<circle cx="1226" cy="884" r="6" class="c0"/>
<circle cx="1064" cy="694" r="6" class="c0"/>
<circle cx="1100" cy="516" r="6" class="c0"/>
<circle cx="1108" cy="742" r="6" class="c0"/>
<circle cx="1234" cy="804" r="6" class="c0"/>
<circle cx="1144" cy="928" r="6" class="c0"/>
<circle cx="1006" cy="742" r="6" class="c0"/>
<circle cx="1028" cy="916" r="6" class="c0"/>
<circle cx="1016" cy="538" r="6" class="c0"/>
<circle cx="1084" cy="840" r="6" class="c0"/>
<circle cx="956" cy="536" r="6" class="c0"/>
<circle cx="880" cy="562" r="6" class="c0"/>
<circle cx="1206" cy="896" r="6" class="c0"/>
<circle cx="1090" cy="720" r="6" class="c0"/>
<circle cx="886" cy="536" r="6" class="c0"/>
<circle cx="1064" cy="670" r="6" class="c0"/>
<circle cx="974" cy="586" r="6" class="c0"/>
<circle cx="1236" cy="538" r="6" class="c0"/>
<circle cx="1012" cy="626" r="6" class="c0"/>
<circle cx="1120" cy="556" r="6" class="c0"/>
<circle cx="872" cy="616" r="6" class="c0"/>
<circle cx="952" cy="698" r="6" class="c0"/>
<circle cx="1006" cy="656" r="6" class="c0"/>
<circle cx="1290" cy="670" r="6" class="c0"/>
<circle cx="952" cy="658" r="6" class="c0"/>
<circle cx="1170" cy="762" r="6" class="c0"/>
<circle cx="880" cy="860" r="6" class="c0"/>
<circle cx="786" cy="594" r="6" class="c0"/>
<circle cx="1052" cy="904" r="6" class="c0"/>
<circle cx="1260" cy="464" r="6" class="c0"/>
<circle cx="848" cy="818" r="6" class="c0"/>
<circle cx="930" cy="398" r="6" class="c0"/>
<circle cx="936" cy="438" r="6" class="c0"/>
<circle cx="1224" cy="788" r="6" class="c0"/>
<circle cx="1278" cy="790" r="6" class="c0"/>
</svg>
