<?xml version="1.0" encoding="utf-8"?>
<svg xmlns="http://www.w3.org/2000/svg"
     xmlns:xlink="http://www.w3.org/1999/xlink" width="1920" height="1440" >

            <defs>
            <style type="text/css"><![CDATA[
circle {stroke: none;}
.c0 {fill: #000000;}
]]></style>
            </defs>
<rect x="0" y="0" width="1920" height="1440" fill="white"/>
<circle cx="700" cy="908" r="12" class="c0"/>
<circle cx="1274" cy="906" r="10" class="c0"/>
<circle cx="536" cy="852" r="10" class="c0"/>
<circle cx="764" cy="924" r="10" class="c0"/>
<circle cx="1304" cy="896" r="10" class="c0"/>
<circle cx="1462" cy="832" r="10" class="c0"/>
<circle cx="1164" cy="936" r="10" class="c0"/>
<circle cx="1364" cy="874" r="10" class="c0"/>
<circle cx="650" cy="892" r="10" class="c0"/>
<circle cx="482" cy="836" r="10" class="c0"/>
<circle cx="728" cy="914" r="10" class="c0"/>
<circle cx="1196" cy="930" r="10" class="c0"/>
<circle cx="456" cy="826" r="8" class="c0"/>
<circle cx="1424" cy="848" r="8" class="c0"/>
<circle cx="790" cy="930" r="8" class="c0"/>
<circle cx="630" cy="882" r="8" class="c0"/>
<circle cx="1222" cy="922" r="8" class="c0"/>
<circle cx="390" cy="810" r="8" class="c0"/>
<circle cx="670" cy="896" r="8" class="c0"/>
<circle cx="274" cy="774" r="8" class="c0"/>
<circle cx="1392" cy="864" r="8" class="c0"/>
<circle cx="152" cy="754" r="8" class="c0"/>
<circle cx="1250" cy="914" r="8" class="c0"/>
<circle cx="1538" cy="798" r="8" class="c0"/>
<circle cx="408" cy="814" r="8" class="c0"/>
<circle cx="310" cy="784" r="8" class="c0"/>
<circle cx="1332" cy="884" r="8" class="c0"/>
<circle cx="1040" cy="954" r="8" class="c0"/>
<circle cx="1144" cy="938" r="8" class="c0"/>
<circle cx="594" cy="870" r="8" class="c0"/>
<circle cx="210" cy="762" r="8" class="c0"/>
<circle cx="894" cy="950" r="8" class="c0"/>
<circle cx="556" cy="858" r="8" class="c0"/>
<circle cx="250" cy="768" r="8" class="c0"/>
<circle cx="1718" cy="752" r="8" class="c0"/>
<circle cx="832" cy="942" r="8" class="c0"/>
<circle cx="336" cy="790" r="8" class="c0"/>
<circle cx="1106" cy="948" r="8" class="c0"/>
<circle cx="1578" cy="782" r="8" class="c0"/>
<circle cx="1678" cy="758" r="8" class="c0"/>
<circle cx="1700" cy="754" r="8" class="c0"/>
<circle cx="362" cy="798" r="6" class="c0"/>
<circle cx="178" cy="756" r="6" class="c0"/>
<circle cx="1634" cy="770" r="6" class="c0"/>
<circle cx="1496" cy="816" r="6" class="c0"/>
<circle cx="816" cy="936" r="6" class="c0"/>
<circle cx="1614" cy="772" r="6" class="c0"/>
<circle cx="1444" cy="836" r="6" class="c0"/>
<circle cx="1090" cy="952" r="6" class="c0"/>
<circle cx="1510" cy="812" r="6" class="c0"/>
<circle cx="612" cy="874" r="6" class="c0"/>
<circle cx="576" cy="862" r="6" class="c0"/>
<circle cx="848" cy="940" r="6" class="c0"/>
<circle cx="502" cy="846" r="6" class="c0"/>
<circle cx="862" cy="944" r="6" class="c0"/>
<circle cx="1068" cy="952" r="6" class="c0"/>
<circle cx="292" cy="776" r="6" class="c0"/>
<circle cx="746" cy="922" r="6" class="c0"/>
<circle cx="516" cy="848" r="6" class="c0"/>
<circle cx="1650" cy="762" r="6" class="c0"/>
<circle cx="1756" cy="752" r="6" class="c0"/>
<circle cx="1126" cy="942" r="6" class="c0"/>
<circle cx="1562" cy="790" r="6" class="c0"/>
<circle cx="374" cy="806" r="6" class="c0"/>
<circle cx="426" cy="816" r="6" class="c0"/>
<circle cx="440" cy="822" r="6" class="c0"/>
<circle cx="232" cy="768" r="6" class="c0"/>
</svg>
