<?xml version="1.0" encoding="utf-8"?>
<svg xmlns="http://www.w3.org/2000/svg"
     xmlns:xlink="http://www.w3.org/1999/xlink" width="1920" height="1440" >

            <defs>
            <style type="text/css"><![CDATA[
circle {stroke: none;}
.c0 {fill: #000000;}
]]></style>
            </defs>
<rect x="0" y="0" width="1920" height="1440" fill="white"/>
<circle cx="1060" cy="958" r="12" class="c0"/>
<circle cx="1252" cy="914" r="12" class="c0"/>
<circle cx="1342" cy="882" r="12" class="c0"/>
<circle cx="1100" cy="926" r="12" class="c0"/>
<circle cx="686" cy="890" r="12" class="c0"/>
<circle cx="1306" cy="904" r="12" class="c0"/>
<circle cx="1192" cy="930" r="10" class="c0"/>
<circle cx="750" cy="918" r="10" class="c0"/>
<circle cx="1150" cy="918" r="10" class="c0"/>
<circle cx="1224" cy="908" r="10" class="c0"/>
<circle cx="1126" cy="954" r="10" class="c0"/>
<circle cx="1218" cy="944" r="10" class="c0"/>
<circle cx="1502" cy="800" r="10" class="c0"/>
<circle cx="1088" cy="970" r="10" class="c0"/>
<circle cx="702" cy="906" r="10" class="c0"/>
<circle cx="1174" cy="950" r="10" class="c0"/>
<circle cx="480" cy="840" r="10" class="c0"/>
<circle cx="644" cy="882" r="10" class="c0"/>
<circle cx="572" cy="872" r="10" class="c0"/>
<circle cx="1112" cy="972" r="10" class="c0"/>
<circle cx="842" cy="934" r="10" class="c0"/>
<circle cx="1078" cy="934" r="10" class="c0"/>
<circle cx="1016" cy="968" r="10" class="c0"/>
<circle cx="1176" cy="900" r="10" class="c0"/>
<circle cx="1466" cy="816" r="10" class="c0"/>
<circle cx="854" cy="952" r="10" class="c0"/>
<circle cx="614" cy="874" r="10" class="c0"/>
<circle cx="662" cy="914" r="10" class="c0"/>
<circle cx="778" cy="930" r="10" class="c0"/>
<circle cx="1488" cy="822" r="10" class="c0"/>
<circle cx="930" cy="970" r="10" class="c0"/>
<circle cx="972" cy="970" r="10" class="c0"/>
<circle cx="530" cy="842" r="10" class="c0"/>
<circle cx="734" cy="938" r="10" class="c0"/>
<circle cx="1098" cy="950" r="10" class="c0"/>
<circle cx="1310" cy="880" r="10" class="c0"/>
<circle cx="320" cy="786" r="10" class="c0"/>
<circle cx="1536" cy="798" r="8" class="c0"/>
<circle cx="1396" cy="874" r="8" class="c0"/>
<circle cx="876" cy="956" r="8" class="c0"/>
<circle cx="910" cy="962" r="8" class="c0"/>
<circle cx="820" cy="948" r="8" class="c0"/>
<circle cx="788" cy="950" r="8" class="c0"/>
<circle cx="1038" cy="946" r="8" class="c0"/>
<circle cx="1454" cy="842" r="8" class="c0"/>
<circle cx="418" cy="820" r="8" class="c0"/>
<circle cx="1358" cy="868" r="8" class="c0"/>
<circle cx="1284" cy="882" r="8" class="c0"/>
<circle cx="394" cy="802" r="8" class="c0"/>
<circle cx="1396" cy="842" r="8" class="c0"/>
<circle cx="1578" cy="776" r="8" class="c0"/>
<circle cx="444" cy="820" r="8" class="c0"/>
<circle cx="376" cy="808" r="8" class="c0"/>
<circle cx="1114" cy="912" r="8" class="c0"/>
<circle cx="950" cy="962" r="8" class="c0"/>
<circle cx="1288" cy="922" r="8" class="c0"/>
<circle cx="1406" cy="856" r="8" class="c0"/>
<circle cx="796" cy="912" r="8" class="c0"/>
<circle cx="1560" cy="778" r="8" class="c0"/>
<circle cx="350" cy="788" r="8" class="c0"/>
<circle cx="1130" cy="924" r="8" class="c0"/>
<circle cx="1230" cy="928" r="8" class="c0"/>
<circle cx="462" cy="832" r="8" class="c0"/>
<circle cx="764" cy="896" r="8" class="c0"/>
<circle cx="868" cy="938" r="8" class="c0"/>
<circle cx="1436" cy="850" r="8" class="c0"/>
<circle cx="776" cy="908" r="8" class="c0"/>
<circle cx="888" cy="976" r="8" class="c0"/>
<circle cx="596" cy="884" r="8" class="c0"/>
<circle cx="1654" cy="758" r="8" class="c0"/>
<circle cx="506" cy="850" r="8" class="c0"/>
<circle cx="1610" cy="770" r="8" class="c0"/>
<circle cx="714" cy="922" r="8" class="c0"/>
<circle cx="1386" cy="860" r="8" class="c0"/>
<circle cx="688" cy="926" r="8" class="c0"/>
<circle cx="1036" cy="976" r="8" class="c0"/>
<circle cx="832" cy="916" r="8" class="c0"/>
<circle cx="286" cy="774" r="8" class="c0"/>
<circle cx="580" cy="850" r="8" class="c0"/>
<circle cx="1374" cy="880" r="8" class="c0"/>
<circle cx="756" cy="942" r="8" class="c0"/>
<circle cx="1146" cy="964" r="8" class="c0"/>
<circle cx="992" cy="966" r="8" class="c0"/>
<circle cx="1132" cy="906" r="8" class="c0"/>
<circle cx="1146" cy="942" r="8" class="c0"/>
<circle cx="1328" cy="866" r="8" class="c0"/>
<circle cx="554" cy="842" r="8" class="c0"/>
<circle cx="1276" cy="906" r="8" class="c0"/>
<circle cx="866" cy="966" r="8" class="c0"/>
<circle cx="708" cy="880" r="8" class="c0"/>
<circle cx="1262" cy="888" r="8" class="c0"/>
<circle cx="600" cy="858" r="8" class="c0"/>
<circle cx="1206" cy="892" r="8" class="c0"/>
<circle cx="618" cy="898" r="8" class="c0"/>
<circle cx="1322" cy="892" r="8" class="c0"/>
<circle cx="1436" cy="824" r="8" class="c0"/>
<circle cx="1268" cy="930" r="8" class="c0"/>
<circle cx="728" cy="896" r="8" class="c0"/>
<circle cx="544" cy="854" r="8" class="c0"/>
<circle cx="1416" cy="832" r="8" class="c0"/>
<circle cx="262" cy="768" r="8" class="c0"/>
<circle cx="810" cy="934" r="8" class="c0"/>
<circle cx="1002" cy="980" r="8" class="c0"/>
<circle cx="662" cy="892" r="8" class="c0"/>
<circle cx="1172" cy="920" r="8" class="c0"/>
<circle cx="1240" cy="896" r="8" class="c0"/>
<circle cx="242" cy="764" r="8" class="c0"/>
<circle cx="832" cy="958" r="8" class="c0"/>
<circle cx="672" cy="874" r="8" class="c0"/>
<circle cx="1210" cy="920" r="8" class="c0"/>
<circle cx="1196" cy="902" r="8" class="c0"/>
<circle cx="514" cy="832" r="8" class="c0"/>
<circle cx="894" cy="946" r="8" class="c0"/>
<circle cx="630" cy="864" r="8" class="c0"/>
<circle cx="1636" cy="762" r="8" class="c0"/>
<circle cx="554" cy="864" r="8" class="c0"/>
<circle cx="220" cy="760" r="8" class="c0"/>
<circle cx="496" cy="830" r="8" class="c0"/>
<circle cx="1680" cy="754" r="8" class="c0"/>
<circle cx="1376" cy="850" r="8" class="c0"/>
<circle cx="360" cy="800" r="8" class="c0"/>
<circle cx="428" cy="808" r="8" class="c0"/>
<circle cx="844" cy="968" r="8" class="c0"/>
<circle cx="642" cy="904" r="8" class="c0"/>
<circle cx="1330" cy="908" r="8" class="c0"/>
<circle cx="1348" cy="858" r="6" class="c0"/>
<circle cx="1156" cy="952" r="6" class="c0"/>
<circle cx="1188" cy="960" r="6" class="c0"/>
<circle cx="1248" cy="942" r="6" class="c0"/>
<circle cx="1722" cy="750" r="6" class="c0"/>
<circle cx="1542" cy="782" r="6" class="c0"/>
<circle cx="1200" cy="954" r="6" class="c0"/>
<circle cx="1514" cy="812" r="6" class="c0"/>
<circle cx="1470" cy="836" r="6" class="c0"/>
<circle cx="1296" cy="868" r="6" class="c0"/>
<circle cx="946" cy="978" r="6" class="c0"/>
<circle cx="804" cy="962" r="6" class="c0"/>
<circle cx="536" cy="868" r="6" class="c0"/>
<circle cx="814" cy="908" r="6" class="c0"/>
<circle cx="1424" cy="860" r="6" class="c0"/>
<circle cx="1118" cy="938" r="6" class="c0"/>
<circle cx="1004" cy="954" r="6" class="c0"/>
<circle cx="460" cy="816" r="6" class="c0"/>
<circle cx="518" cy="862" r="6" class="c0"/>
<circle cx="1058" cy="978" r="6" class="c0"/>
<circle cx="1080" cy="954" r="6" class="c0"/>
<circle cx="564" cy="854" r="6" class="c0"/>
<circle cx="684" cy="910" r="6" class="c0"/>
<circle cx="302" cy="782" r="6" class="c0"/>
<circle cx="1162" cy="966" r="6" class="c0"/>
<circle cx="656" cy="868" r="6" class="c0"/>
<circle cx="200" cy="758" r="6" class="c0"/>
<circle cx="912" cy="978" r="6" class="c0"/>
<circle cx="986" cy="986" r="6" class="c0"/>
<circle cx="772" cy="948" r="6" class="c0"/>
<circle cx="1356" cy="894" r="6" class="c0"/>
<circle cx="920" cy="952" r="6" class="c0"/>
<circle cx="1058" cy="936" r="6" class="c0"/>
<circle cx="1132" cy="972" r="6" class="c0"/>
<circle cx="616" cy="856" r="6" class="c0"/>
<circle cx="1162" cy="934" r="6" class="c0"/>
<circle cx="1706" cy="750" r="6" class="c0"/>
<circle cx="1358" cy="850" r="6" class="c0"/>
<circle cx="398" cy="818" r="6" class="c0"/>
<circle cx="1522" cy="790" r="6" class="c0"/>
<circle cx="748" cy="890" r="6" class="c0"/>
<circle cx="1226" cy="888" r="6" class="c0"/>
<circle cx="1156" cy="896" r="6" class="c0"/>
<circle cx="1482" cy="804" r="6" class="c0"/>
<circle cx="730" cy="914" r="6" class="c0"/>
<circle cx="478" cy="822" r="6" class="c0"/>
<circle cx="1594" cy="772" r="6" class="c0"/>
<circle cx="982" cy="956" r="6" class="c0"/>
<circle cx="1022" cy="950" r="6" class="c0"/>
<circle cx="1738" cy="750" r="6" class="c0"/>
<circle cx="590" cy="868" r="6" class="c0"/>
<circle cx="336" cy="796" r="6" class="c0"/>
<circle cx="1550" cy="790" r="6" class="c0"/>
<circle cx="410" cy="804" r="6" class="c0"/>
<circle cx="1270" cy="874" r="6" class="c0"/>
<circle cx="1452" cy="826" r="6" class="c0"/>
<circle cx="446" cy="836" r="6" class="c0"/>
<circle cx="738" cy="906" r="6" class="c0"/>
<circle cx="434" cy="830" r="6" class="c0"/>
</svg>
