<?xml version="1.0" encoding="utf-8"?>
<svg xmlns="http://www.w3.org/2000/svg"
     xmlns:xlink="http://www.w3.org/1999/xlink" width="1920" height="1440" >

            <defs>
            <style type="text/css"><![CDATA[
circle {stroke: none;}
.c0 {fill: #000000;}
]]></style>
            </defs>
<rect x="0" y="0" width="1920" height="1440" fill="white"/>
<circle cx="1248" cy="888" r="12" class="c0"/>
<circle cx="1452" cy="822" r="12" class="c0"/>
<circle cx="1236" cy="934" r="12" class="c0"/>
<circle cx="1128" cy="888" r="12" class="c0"/>
<circle cx="1324" cy="826" r="12" class="c0"/>
<circle cx="1160" cy="972" r="12" class="c0"/>
<circle cx="1266" cy="830" r="12" class="c0"/>
<circle cx="698" cy="894" r="12" class="c0"/>
<circle cx="1264" cy="868" r="12" class="c0"/>
<circle cx="702" cy="860" r="12" class="c0"/>
<circle cx="720" cy="882" r="12" class="c0"/>
<circle cx="1156" cy="860" r="12" class="c0"/>
<circle cx="1578" cy="774" r="12" class="c0"/>
<circle cx="848" cy="932" r="12" class="c0"/>
<circle cx="1122" cy="994" r="12" class="c0"/>
<circle cx="608" cy="878" r="12" class="c0"/>
<circle cx="558" cy="862" r="12" class="c0"/>
<circle cx="1386" cy="852" r="12" class="c0"/>
<circle cx="918" cy="958" r="12" class="c0"/>
<circle cx="676" cy="922" r="12" class="c0"/>
<circle cx="776" cy="912" r="12" class="c0"/>
<circle cx="1080" cy="932" r="10" class="c0"/>
<circle cx="746" cy="962" r="10" class="c0"/>
<circle cx="1420" cy="864" r="10" class="c0"/>
<circle cx="1324" cy="854" r="10" class="c0"/>
<circle cx="1112" cy="936" r="10" class="c0"/>
<circle cx="1228" cy="854" r="10" class="c0"/>
<circle cx="682" cy="850" r="10" class="c0"/>
<circle cx="1444" cy="854" r="10" class="c0"/>
<circle cx="654" cy="848" r="10" class="c0"/>
<circle cx="1128" cy="958" r="10" class="c0"/>
<circle cx="600" cy="844" r="10" class="c0"/>
<circle cx="448" cy="798" r="10" class="c0"/>
<circle cx="556" cy="822" r="10" class="c0"/>
<circle cx="486" cy="858" r="10" class="c0"/>
<circle cx="1296" cy="898" r="10" class="c0"/>
<circle cx="570" cy="886" r="10" class="c0"/>
<circle cx="1384" cy="818" r="10" class="c0"/>
<circle cx="1260" cy="906" r="10" class="c0"/>
<circle cx="626" cy="900" r="10" class="c0"/>
<circle cx="1316" cy="890" r="10" class="c0"/>
<circle cx="374" cy="794" r="10" class="c0"/>
<circle cx="860" cy="986" r="10" class="c0"/>
<circle cx="1178" cy="922" r="10" class="c0"/>
<circle cx="870" cy="946" r="10" class="c0"/>
<circle cx="790" cy="892" r="10" class="c0"/>
<circle cx="1380" cy="880" r="10" class="c0"/>
<circle cx="1074" cy="978" r="10" class="c0"/>
<circle cx="842" cy="968" r="10" class="c0"/>
<circle cx="798" cy="932" r="10" class="c0"/>
<circle cx="1188" cy="976" r="10" class="c0"/>
<circle cx="1148" cy="930" r="10" class="c0"/>
<circle cx="976" cy="978" r="10" class="c0"/>
<circle cx="1292" cy="854" r="10" class="c0"/>
<circle cx="910" cy="982" r="10" class="c0"/>
<circle cx="668" cy="870" r="10" class="c0"/>
<circle cx="792" cy="964" r="10" class="c0"/>
<circle cx="1420" cy="802" r="10" class="c0"/>
<circle cx="440" cy="836" r="10" class="c0"/>
<circle cx="1356" cy="886" r="10" class="c0"/>
<circle cx="516" cy="814" r="10" class="c0"/>
<circle cx="1506" cy="776" r="10" class="c0"/>
<circle cx="750" cy="930" r="10" class="c0"/>
<circle cx="1028" cy="998" r="10" class="c0"/>
<circle cx="396" cy="800" r="10" class="c0"/>
<circle cx="1044" cy="946" r="10" class="c0"/>
<circle cx="422" cy="814" r="10" class="c0"/>
<circle cx="1214" cy="946" r="10" class="c0"/>
<circle cx="1522" cy="790" r="10" class="c0"/>
<circle cx="1052" cy="980" r="10" class="c0"/>
<circle cx="932" cy="974" r="10" class="c0"/>
<circle cx="810" cy="950" r="10" class="c0"/>
<circle cx="1174" cy="898" r="10" class="c0"/>
<circle cx="1352" cy="854" r="10" class="c0"/>
<circle cx="742" cy="868" r="10" class="c0"/>
<circle cx="598" cy="822" r="10" class="c0"/>
<circle cx="484" cy="808" r="10" class="c0"/>
<circle cx="1092" cy="966" r="10" class="c0"/>
<circle cx="830" cy="982" r="10" class="c0"/>
<circle cx="1600" cy="762" r="10" class="c0"/>
<circle cx="1544" cy="782" r="10" class="c0"/>
<circle cx="696" cy="948" r="8" class="c0"/>
<circle cx="626" cy="852" r="8" class="c0"/>
<circle cx="826" cy="916" r="8" class="c0"/>
<circle cx="582" cy="868" r="8" class="c0"/>
<circle cx="754" cy="886" r="8" class="c0"/>
<circle cx="1016" cy="968" r="8" class="c0"/>
<circle cx="1500" cy="810" r="8" class="c0"/>
<circle cx="1466" cy="792" r="8" class="c0"/>
<circle cx="1206" cy="902" r="8" class="c0"/>
<circle cx="664" cy="898" r="8" class="c0"/>
<circle cx="658" cy="936" r="8" class="c0"/>
<circle cx="1282" cy="932" r="8" class="c0"/>
<circle cx="1250" cy="956" r="8" class="c0"/>
<circle cx="706" cy="924" r="8" class="c0"/>
<circle cx="524" cy="840" r="8" class="c0"/>
<circle cx="818" cy="968" r="8" class="c0"/>
<circle cx="1188" cy="870" r="8" class="c0"/>
<circle cx="470" cy="824" r="8" class="c0"/>
<circle cx="1636" cy="760" r="8" class="c0"/>
<circle cx="894" cy="1004" r="8" class="c0"/>
<circle cx="934" cy="998" r="8" class="c0"/>
<circle cx="534" cy="858" r="8" class="c0"/>
<circle cx="764" cy="868" r="8" class="c0"/>
<circle cx="1282" cy="912" r="8" class="c0"/>
<circle cx="720" cy="948" r="8" class="c0"/>
<circle cx="1402" cy="810" r="8" class="c0"/>
<circle cx="632" cy="870" r="8" class="c0"/>
<circle cx="1398" cy="834" r="8" class="c0"/>
<circle cx="1226" cy="894" r="8" class="c0"/>
<circle cx="654" cy="918" r="8" class="c0"/>
<circle cx="534" cy="830" r="8" class="c0"/>
<circle cx="1094" cy="920" r="8" class="c0"/>
<circle cx="1352" cy="816" r="8" class="c0"/>
<circle cx="1102" cy="986" r="8" class="c0"/>
<circle cx="1134" cy="912" r="8" class="c0"/>
<circle cx="920" cy="1008" r="8" class="c0"/>
<circle cx="1230" cy="964" r="8" class="c0"/>
<circle cx="730" cy="912" r="8" class="c0"/>
<circle cx="1360" cy="836" r="8" class="c0"/>
<circle cx="350" cy="792" r="8" class="c0"/>
<circle cx="588" cy="902" r="8" class="c0"/>
<circle cx="668" cy="830" r="8" class="c0"/>
<circle cx="1176" cy="826" r="8" class="c0"/>
<circle cx="1204" cy="930" r="8" class="c0"/>
<circle cx="1304" cy="872" r="8" class="c0"/>
<circle cx="1510" cy="822" r="8" class="c0"/>
<circle cx="1138" cy="978" r="8" class="c0"/>
<circle cx="490" cy="836" r="8" class="c0"/>
<circle cx="1198" cy="860" r="8" class="c0"/>
<circle cx="1400" cy="886" r="8" class="c0"/>
<circle cx="710" cy="840" r="8" class="c0"/>
<circle cx="1112" cy="902" r="8" class="c0"/>
<circle cx="1198" cy="958" r="8" class="c0"/>
<circle cx="416" cy="790" r="8" class="c0"/>
<circle cx="776" cy="944" r="8" class="c0"/>
<circle cx="504" cy="800" r="8" class="c0"/>
<circle cx="1480" cy="782" r="8" class="c0"/>
<circle cx="1328" cy="916" r="8" class="c0"/>
<circle cx="1248" cy="844" r="8" class="c0"/>
<circle cx="1470" cy="842" r="8" class="c0"/>
<circle cx="788" cy="870" r="8" class="c0"/>
<circle cx="1094" cy="946" r="8" class="c0"/>
<circle cx="776" cy="856" r="8" class="c0"/>
<circle cx="998" cy="994" r="8" class="c0"/>
<circle cx="1474" cy="816" r="8" class="c0"/>
<circle cx="574" cy="836" r="8" class="c0"/>
<circle cx="618" cy="836" r="8" class="c0"/>
<circle cx="1336" cy="900" r="8" class="c0"/>
<circle cx="1208" cy="848" r="8" class="c0"/>
<circle cx="1152" cy="890" r="8" class="c0"/>
<circle cx="1560" cy="762" r="8" class="c0"/>
<circle cx="322" cy="782" r="8" class="c0"/>
<circle cx="754" cy="838" r="8" class="c0"/>
<circle cx="888" cy="976" r="8" class="c0"/>
<circle cx="1412" cy="822" r="8" class="c0"/>
<circle cx="1020" cy="1018" r="8" class="c0"/>
<circle cx="1208" cy="872" r="8" class="c0"/>
<circle cx="1672" cy="752" r="8" class="c0"/>
<circle cx="1482" cy="800" r="8" class="c0"/>
<circle cx="642" cy="834" r="8" class="c0"/>
<circle cx="1272" cy="950" r="8" class="c0"/>
<circle cx="1150" cy="992" r="8" class="c0"/>
<circle cx="952" cy="992" r="8" class="c0"/>
<circle cx="684" cy="880" r="8" class="c0"/>
<circle cx="804" cy="906" r="8" class="c0"/>
<circle cx="270" cy="764" r="8" class="c0"/>
<circle cx="1092" cy="1004" r="8" class="c0"/>
<circle cx="868" cy="1008" r="8" class="c0"/>
<circle cx="544" cy="882" r="8" class="c0"/>
<circle cx="1304" cy="840" r="8" class="c0"/>
<circle cx="1178" cy="960" r="8" class="c0"/>
<circle cx="954" cy="968" r="8" class="c0"/>
<circle cx="1302" cy="934" r="8" class="c0"/>
<circle cx="1050" cy="1004" r="8" class="c0"/>
<circle cx="792" cy="986" r="8" class="c0"/>
<circle cx="988" cy="1006" r="8" class="c0"/>
<circle cx="506" cy="852" r="8" class="c0"/>
<circle cx="728" cy="852" r="8" class="c0"/>
<circle cx="992" cy="966" r="8" class="c0"/>
<circle cx="304" cy="768" r="8" class="c0"/>
<circle cx="576" cy="814" r="8" class="c0"/>
<circle cx="696" cy="826" r="8" class="c0"/>
<circle cx="1032" cy="960" r="8" class="c0"/>
<circle cx="648" cy="886" r="8" class="c0"/>
<circle cx="748" cy="904" r="8" class="c0"/>
<circle cx="1528" cy="770" r="8" class="c0"/>
<circle cx="1174" cy="848" r="8" class="c0"/>
<circle cx="1184" cy="942" r="8" class="c0"/>
<circle cx="1344" cy="874" r="8" class="c0"/>
<circle cx="1196" cy="820" r="8" class="c0"/>
<circle cx="770" cy="974" r="8" class="c0"/>
<circle cx="878" cy="964" r="8" class="c0"/>
<circle cx="546" cy="842" r="8" class="c0"/>
<circle cx="536" cy="810" r="8" class="c0"/>
<circle cx="732" cy="938" r="8" class="c0"/>
<circle cx="1490" cy="830" r="8" class="c0"/>
<circle cx="1278" cy="882" r="8" class="c0"/>
<circle cx="968" cy="958" r="8" class="c0"/>
<circle cx="460" cy="846" r="8" class="c0"/>
<circle cx="1522" cy="812" r="8" class="c0"/>
<circle cx="1368" cy="868" r="8" class="c0"/>
<circle cx="394" cy="820" r="8" class="c0"/>
<circle cx="474" cy="792" r="8" class="c0"/>
<circle cx="1342" cy="838" r="8" class="c0"/>
<circle cx="1290" cy="828" r="8" class="c0"/>
<circle cx="1222" cy="918" r="8" class="c0"/>
<circle cx="844" cy="1000" r="8" class="c0"/>
<circle cx="1160" cy="910" r="8" class="c0"/>
<circle cx="834" cy="946" r="8" class="c0"/>
<circle cx="970" cy="1008" r="8" class="c0"/>
<circle cx="1220" cy="834" r="8" class="c0"/>
<circle cx="612" cy="912" r="8" class="c0"/>
<circle cx="1068" cy="1002" r="8" class="c0"/>
<circle cx="1372" cy="900" r="8" class="c0"/>
<circle cx="1214" cy="972" r="8" class="c0"/>
<circle cx="678" cy="944" r="8" class="c0"/>
<circle cx="1418" cy="840" r="8" class="c0"/>
<circle cx="1232" cy="874" r="8" class="c0"/>
<circle cx="1448" cy="794" r="8" class="c0"/>
<circle cx="632" cy="820" r="8" class="c0"/>
<circle cx="1378" cy="798" r="8" class="c0"/>
<circle cx="1174" cy="992" r="8" class="c0"/>
<circle cx="1262" cy="930" r="8" class="c0"/>
<circle cx="772" cy="884" r="8" class="c0"/>
<circle cx="636" cy="922" r="8" class="c0"/>
<circle cx="516" cy="872" r="8" class="c0"/>
<circle cx="1536" cy="802" r="8" class="c0"/>
<circle cx="942" cy="958" r="8" class="c0"/>
<circle cx="1348" cy="912" r="8" class="c0"/>
<circle cx="892" cy="950" r="8" class="c0"/>
<circle cx="1646" cy="750" r="8" class="c0"/>
<circle cx="1300" cy="818" r="8" class="c0"/>
<circle cx="1236" cy="822" r="8" class="c0"/>
<circle cx="1108" cy="956" r="8" class="c0"/>
<circle cx="240" cy="760" r="8" class="c0"/>
<circle cx="1192" cy="890" r="8" class="c0"/>
<circle cx="1010" cy="1008" r="8" class="c0"/>
<circle cx="1166" cy="946" r="8" class="c0"/>
<circle cx="364" cy="778" r="8" class="c0"/>
<circle cx="452" cy="822" r="8" class="c0"/>
<circle cx="1112" cy="976" r="8" class="c0"/>
<circle cx="222" cy="756" r="6" class="c0"/>
<circle cx="1194" cy="838" r="6" class="c0"/>
<circle cx="502" cy="826" r="6" class="c0"/>
<circle cx="380" cy="812" r="6" class="c0"/>
<circle cx="1002" cy="954" r="6" class="c0"/>
<circle cx="1428" cy="824" r="6" class="c0"/>
<circle cx="1072" cy="950" r="6" class="c0"/>
<circle cx="1002" cy="978" r="6" class="c0"/>
<circle cx="338" cy="778" r="6" class="c0"/>
<circle cx="880" cy="994" r="6" class="c0"/>
<circle cx="1620" cy="758" r="6" class="c0"/>
<circle cx="388" cy="784" r="6" class="c0"/>
<circle cx="1170" cy="880" r="6" class="c0"/>
<circle cx="1032" cy="980" r="6" class="c0"/>
<circle cx="562" cy="804" r="6" class="c0"/>
<circle cx="1060" cy="956" r="6" class="c0"/>
<circle cx="1398" cy="870" r="6" class="c0"/>
<circle cx="946" cy="1010" r="6" class="c0"/>
<circle cx="766" cy="958" r="6" class="c0"/>
<circle cx="1018" cy="950" r="6" class="c0"/>
<circle cx="1710" cy="752" r="6" class="c0"/>
<circle cx="1190" cy="908" r="6" class="c0"/>
<circle cx="1244" cy="914" r="6" class="c0"/>
<circle cx="1298" cy="916" r="6" class="c0"/>
<circle cx="1436" cy="810" r="6" class="c0"/>
<circle cx="288" cy="774" r="6" class="c0"/>
<circle cx="1114" cy="918" r="6" class="c0"/>
<circle cx="860" cy="960" r="6" class="c0"/>
<circle cx="1146" cy="950" r="6" class="c0"/>
<circle cx="1036" cy="1014" r="6" class="c0"/>
<circle cx="644" cy="908" r="6" class="c0"/>
<circle cx="590" cy="886" r="6" class="c0"/>
<circle cx="752" cy="854" r="6" class="c0"/>
<circle cx="1274" cy="850" r="6" class="c0"/>
<circle cx="1556" cy="794" r="6" class="c0"/>
<circle cx="1692" cy="754" r="6" class="c0"/>
<circle cx="648" cy="868" r="6" class="c0"/>
<circle cx="900" cy="966" r="6" class="c0"/>
<circle cx="1336" cy="808" r="6" class="c0"/>
<circle cx="1430" cy="784" r="6" class="c0"/>
<circle cx="1312" cy="908" r="6" class="c0"/>
<circle cx="726" cy="832" r="6" class="c0"/>
<circle cx="334" cy="794" r="6" class="c0"/>
<circle cx="734" cy="894" r="6" class="c0"/>
<circle cx="1436" cy="838" r="6" class="c0"/>
<circle cx="1062" cy="936" r="6" class="c0"/>
<circle cx="1406" cy="850" r="6" class="c0"/>
<circle cx="464" cy="806" r="6" class="c0"/>
<circle cx="616" cy="816" r="6" class="c0"/>
<circle cx="1144" cy="876" r="6" class="c0"/>
<circle cx="1236" cy="906" r="6" class="c0"/>
<circle cx="1320" cy="930" r="6" class="c0"/>
<circle cx="814" cy="896" r="6" class="c0"/>
<circle cx="808" cy="982" r="6" class="c0"/>
<circle cx="604" cy="898" r="6" class="c0"/>
<circle cx="824" cy="934" r="6" class="c0"/>
<circle cx="360" cy="808" r="6" class="c0"/>
<circle cx="714" cy="910" r="6" class="c0"/>
<circle cx="1290" cy="948" r="6" class="c0"/>
<circle cx="1466" cy="774" r="6" class="c0"/>
<circle cx="412" cy="828" r="6" class="c0"/>
<circle cx="1244" cy="864" r="6" class="c0"/>
<circle cx="1162" cy="838" r="6" class="c0"/>
<circle cx="1376" cy="834" r="6" class="c0"/>
<circle cx="1328" cy="876" r="6" class="c0"/>
<circle cx="582" cy="850" r="6" class="c0"/>
<circle cx="1404" cy="792" r="6" class="c0"/>
<circle cx="758" cy="946" r="6" class="c0"/>
<circle cx="1388" cy="896" r="6" class="c0"/>
<circle cx="680" cy="902" r="6" class="c0"/>
<circle cx="476" cy="844" r="6" class="c0"/>
<circle cx="1586" cy="752" r="6" class="c0"/>
<circle cx="818" cy="994" r="6" class="c0"/>
<circle cx="710" cy="960" r="6" class="c0"/>
<circle cx="1656" cy="760" r="6" class="c0"/>
<circle cx="1200" cy="988" r="6" class="c0"/>
<circle cx="1498" cy="792" r="6" class="c0"/>
<circle cx="1740" cy="748" r="6" class="c0"/>
<circle cx="306" cy="784" r="6" class="c0"/>
<circle cx="722" cy="926" r="6" class="c0"/>
<circle cx="694" cy="914" r="6" class="c0"/>
<circle cx="1012" cy="986" r="6" class="c0"/>
<circle cx="1108" cy="1008" r="6" class="c0"/>
<circle cx="432" cy="788" r="6" class="c0"/>
<circle cx="1002" cy="1022" r="6" class="c0"/>
<circle cx="526" cy="800" r="6" class="c0"/>
<circle cx="1082" cy="994" r="6" class="c0"/>
<circle cx="1078" cy="1012" r="6" class="c0"/>
<circle cx="1368" cy="810" r="6" class="c0"/>
<circle cx="1538" cy="760" r="6" class="c0"/>
<circle cx="648" cy="816" r="6" class="c0"/>
<circle cx="764" cy="898" r="6" class="c0"/>
<circle cx="598" cy="862" r="6" class="c0"/>
<circle cx="850" cy="952" r="6" class="c0"/>
<circle cx="816" cy="926" r="6" class="c0"/>
<circle cx="1564" cy="786" r="6" class="c0"/>
<circle cx="1130" cy="934" r="6" class="c0"/>
<circle cx="960" cy="1020" r="6" class="c0"/>
<circle cx="728" cy="964" r="6" class="c0"/>
<circle cx="692" cy="932" r="6" class="c0"/>
<circle cx="714" cy="820" r="6" class="c0"/>
<circle cx="1616" cy="772" r="6" class="c0"/>
<circle cx="938" cy="1018" r="6" class="c0"/>
<circle cx="802" cy="880" r="6" class="c0"/>
</svg>
