<?xml version="1.0" encoding="utf-8"?>
<svg xmlns="http://www.w3.org/2000/svg"
     xmlns:xlink="http://www.w3.org/1999/xlink" width="1920" height="1440" >

            <defs>
            <style type="text/css"><![CDATA[
circle {stroke: none;}
.c0 {fill: #000000;}
]]></style>
            </defs>
<rect x="0" y="0" width="1920" height="1440" fill="white"/>
<circle cx="1138" cy="720" r="12" class="c0"/>
<circle cx="840" cy="766" r="12" class="c0"/>
<circle cx="900" cy="728" r="12" class="c0"/>
<circle cx="1012" cy="716" r="12" class="c0"/>
<circle cx="1214" cy="710" r="12" class="c0"/>
<circle cx="1156" cy="566" r="12" class="c0"/>
<circle cx="1028" cy="488" r="12" class="c0"/>
<circle cx="1236" cy="880" r="12" class="c0"/>
<circle cx="1186" cy="682" r="12" class="c0"/>
<circle cx="1068" cy="656" r="12" class="c0"/>
<circle cx="960" cy="816" r="12" class="c0"/>
<circle cx="1092" cy="568" r="12" class="c0"/>
<circle cx="1082" cy="640" r="12" class="c0"/>
<circle cx="992" cy="728" r="12" class="c0"/>
<circle cx="1110" cy="700" r="12" class="c0"/>
<circle cx="866" cy="750" r="12" class="c0"/>
<circle cx="1000" cy="818" r="12" class="c0"/>
<circle cx="878" cy="666" r="12" class="c0"/>
<circle cx="1166" cy="528" r="12" class="c0"/>
<circle cx="1244" cy="682" r="12" class="c0"/>
<circle cx="810" cy="770" r="12" class="c0"/>
<circle cx="1210" cy="552" r="12" class="c0"/>
<circle cx="1098" cy="608" r="12" class="c0"/>
<circle cx="1172" cy="476" r="12" class="c0"/>
<circle cx="1008" cy="752" r="12" class="c0"/>
<circle cx="1248" cy="632" r="12" class="c0"/>
<circle cx="1252" cy="772" r="12" class="c0"/>
<circle cx="1020" cy="624" r="12" class="c0"/>
<circle cx="836" cy="610" r="12" class="c0"/>
<circle cx="938" cy="864" r="12" class="c0"/>
<circle cx="994" cy="902" r="12" class="c0"/>
<circle cx="1066" cy="934" r="12" class="c0"/>
<circle cx="1106" cy="866" r="12" class="c0"/>
<circle cx="808" cy="690" r="12" class="c0"/>
<circle cx="1118" cy="494" r="12" class="c0"/>
<circle cx="900" cy="520" r="12" class="c0"/>
<circle cx="1134" cy="750" r="12" class="c0"/>
<circle cx="1006" cy="570" r="12" class="c0"/>
<circle cx="1040" cy="666" r="12" class="c0"/>
<circle cx="1350" cy="728" r="12" class="c0"/>
<circle cx="976" cy="800" r="12" class="c0"/>
<circle cx="866" cy="566" r="12" class="c0"/>
<circle cx="872" cy="694" r="12" class="c0"/>
<circle cx="1180" cy="822" r="12" class="c0"/>
<circle cx="836" cy="714" r="12" class="c0"/>
<circle cx="1300" cy="652" r="10" class="c0"/>
<circle cx="1054" cy="502" r="10" class="c0"/>
<circle cx="1078" cy="696" r="10" class="c0"/>
<circle cx="1152" cy="462" r="10" class="c0"/>
<circle cx="858" cy="602" r="10" class="c0"/>
<circle cx="1216" cy="918" r="10" class="c0"/>
<circle cx="1096" cy="512" r="10" class="c0"/>
<circle cx="1288" cy="588" r="10" class="c0"/>
<circle cx="1148" cy="946" r="10" class="c0"/>
<circle cx="1314" cy="718" r="10" class="c0"/>
<circle cx="1278" cy="622" r="10" class="c0"/>
<circle cx="910" cy="804" r="10" class="c0"/>
<circle cx="918" cy="606" r="10" class="c0"/>
<circle cx="1284" cy="696" r="10" class="c0"/>
<circle cx="1056" cy="744" r="10" class="c0"/>
<circle cx="1154" cy="782" r="10" class="c0"/>
<circle cx="992" cy="608" r="10" class="c0"/>
<circle cx="996" cy="440" r="10" class="c0"/>
<circle cx="986" cy="840" r="10" class="c0"/>
<circle cx="1024" cy="938" r="10" class="c0"/>
<circle cx="1064" cy="598" r="10" class="c0"/>
<circle cx="1212" cy="518" r="10" class="c0"/>
<circle cx="800" cy="744" r="10" class="c0"/>
<circle cx="862" cy="818" r="10" class="c0"/>
<circle cx="1292" cy="762" r="10" class="c0"/>
<circle cx="1320" cy="754" r="10" class="c0"/>
<circle cx="866" cy="784" r="10" class="c0"/>
<circle cx="848" cy="664" r="10" class="c0"/>
<circle cx="932" cy="626" r="10" class="c0"/>
<circle cx="1046" cy="424" r="10" class="c0"/>
<circle cx="1028" cy="768" r="10" class="c0"/>
<circle cx="966" cy="696" r="10" class="c0"/>
<circle cx="1242" cy="496" r="10" class="c0"/>
<circle cx="948" cy="764" r="10" class="c0"/>
<circle cx="1282" cy="800" r="10" class="c0"/>
<circle cx="1108" cy="458" r="10" class="c0"/>
<circle cx="1078" cy="530" r="10" class="c0"/>
<circle cx="964" cy="466" r="10" class="c0"/>
<circle cx="830" cy="642" r="10" class="c0"/>
<circle cx="1302" cy="630" r="10" class="c0"/>
<circle cx="1066" cy="548" r="10" class="c0"/>
<circle cx="1126" cy="808" r="10" class="c0"/>
<circle cx="1192" cy="800" r="10" class="c0"/>
<circle cx="1098" cy="956" r="10" class="c0"/>
<circle cx="1298" cy="566" r="10" class="c0"/>
<circle cx="946" cy="896" r="10" class="c0"/>
<circle cx="1074" cy="482" r="10" class="c0"/>
<circle cx="800" cy="668" r="10" class="c0"/>
<circle cx="1204" cy="490" r="10" class="c0"/>
<circle cx="1028" cy="550" r="10" class="c0"/>
<circle cx="1296" cy="834" r="10" class="c0"/>
<circle cx="1010" cy="458" r="10" class="c0"/>
<circle cx="1002" cy="788" r="10" class="c0"/>
<circle cx="1146" cy="428" r="10" class="c0"/>
<circle cx="1068" cy="910" r="10" class="c0"/>
<circle cx="1134" cy="928" r="10" class="c0"/>
<circle cx="950" cy="586" r="10" class="c0"/>
<circle cx="1048" cy="452" r="10" class="c0"/>
<circle cx="1132" cy="442" r="10" class="c0"/>
<circle cx="1142" cy="690" r="10" class="c0"/>
<circle cx="986" cy="464" r="10" class="c0"/>
<circle cx="1106" cy="926" r="10" class="c0"/>
<circle cx="1216" cy="758" r="10" class="c0"/>
<circle cx="890" cy="792" r="10" class="c0"/>
<circle cx="1150" cy="912" r="10" class="c0"/>
<circle cx="1164" cy="640" r="10" class="c0"/>
<circle cx="896" cy="862" r="10" class="c0"/>
<circle cx="1080" cy="896" r="10" class="c0"/>
<circle cx="972" cy="672" r="10" class="c0"/>
<circle cx="912" cy="668" r="10" class="c0"/>
<circle cx="1174" cy="894" r="10" class="c0"/>
<circle cx="1116" cy="662" r="10" class="c0"/>
<circle cx="1228" cy="658" r="10" class="c0"/>
<circle cx="1246" cy="536" r="10" class="c0"/>
<circle cx="1044" cy="524" r="10" class="c0"/>
<circle cx="1008" cy="594" r="10" class="c0"/>
<circle cx="1344" cy="764" r="10" class="c0"/>
<circle cx="1246" cy="716" r="10" class="c0"/>
<circle cx="1030" cy="798" r="10" class="c0"/>
<circle cx="1124" cy="630" r="10" class="c0"/>
<circle cx="1084" cy="734" r="10" class="c0"/>
<circle cx="970" cy="916" r="10" class="c0"/>
<circle cx="998" cy="688" r="10" class="c0"/>
<circle cx="1140" cy="522" r="10" class="c0"/>
<circle cx="1172" cy="762" r="10" class="c0"/>
<circle cx="1056" cy="892" r="10" class="c0"/>
<circle cx="1128" cy="774" r="10" class="c0"/>
<circle cx="1172" cy="620" r="10" class="c0"/>
<circle cx="874" cy="624" r="10" class="c0"/>
<circle cx="1052" cy="714" r="10" class="c0"/>
<circle cx="1320" cy="812" r="10" class="c0"/>
<circle cx="916" cy="578" r="10" class="c0"/>
<circle cx="1164" cy="416" r="10" class="c0"/>
<circle cx="1090" cy="828" r="10" class="c0"/>
<circle cx="1332" cy="670" r="10" class="c0"/>
<circle cx="1198" cy="898" r="10" class="c0"/>
<circle cx="882" cy="594" r="10" class="c0"/>
<circle cx="1012" cy="890" r="10" class="c0"/>
<circle cx="890" cy="754" r="10" class="c0"/>
<circle cx="898" cy="698" r="10" class="c0"/>
<circle cx="1024" cy="828" r="10" class="c0"/>
<circle cx="906" cy="842" r="10" class="c0"/>
<circle cx="940" cy="716" r="10" class="c0"/>
<circle cx="948" cy="558" r="10" class="c0"/>
<circle cx="914" cy="760" r="10" class="c0"/>
<circle cx="1096" cy="440" r="10" class="c0"/>
<circle cx="846" cy="736" r="10" class="c0"/>
<circle cx="1078" cy="420" r="10" class="c0"/>
<circle cx="1332" cy="626" r="10" class="c0"/>
<circle cx="914" cy="506" r="10" class="c0"/>
<circle cx="1214" cy="820" r="10" class="c0"/>
<circle cx="1132" cy="878" r="10" class="c0"/>
<circle cx="1196" cy="736" r="10" class="c0"/>
<circle cx="968" cy="540" r="10" class="c0"/>
<circle cx="988" cy="766" r="10" class="c0"/>
<circle cx="928" cy="730" r="10" class="c0"/>
<circle cx="1058" cy="844" r="10" class="c0"/>
<circle cx="1068" cy="770" r="10" class="c0"/>
<circle cx="998" cy="492" r="10" class="c0"/>
<circle cx="902" cy="642" r="8" class="c0"/>
<circle cx="1156" cy="808" r="8" class="c0"/>
<circle cx="1094" cy="884" r="8" class="c0"/>
<circle cx="1234" cy="552" r="8" class="c0"/>
<circle cx="1112" cy="430" r="8" class="c0"/>
<circle cx="1218" cy="600" r="8" class="c0"/>
<circle cx="1024" cy="438" r="8" class="c0"/>
<circle cx="974" cy="588" r="8" class="c0"/>
<circle cx="1004" cy="872" r="8" class="c0"/>
<circle cx="1266" cy="540" r="8" class="c0"/>
<circle cx="878" cy="534" r="8" class="c0"/>
<circle cx="1176" cy="578" r="8" class="c0"/>
<circle cx="1218" cy="628" r="8" class="c0"/>
<circle cx="1230" cy="612" r="8" class="c0"/>
<circle cx="1268" cy="606" r="8" class="c0"/>
<circle cx="1198" cy="598" r="8" class="c0"/>
<circle cx="1184" cy="780" r="8" class="c0"/>
<circle cx="1236" cy="814" r="8" class="c0"/>
<circle cx="1170" cy="506" r="8" class="c0"/>
<circle cx="1042" cy="782" r="8" class="c0"/>
<circle cx="988" cy="538" r="8" class="c0"/>
<circle cx="930" cy="660" r="8" class="c0"/>
<circle cx="1262" cy="846" r="8" class="c0"/>
<circle cx="1112" cy="968" r="8" class="c0"/>
<circle cx="1254" cy="740" r="8" class="c0"/>
<circle cx="1274" cy="754" r="8" class="c0"/>
<circle cx="1220" cy="678" r="8" class="c0"/>
<circle cx="1262" cy="570" r="8" class="c0"/>
<circle cx="1184" cy="432" r="8" class="c0"/>
<circle cx="930" cy="836" r="8" class="c0"/>
<circle cx="844" cy="808" r="8" class="c0"/>
<circle cx="1170" cy="874" r="8" class="c0"/>
<circle cx="1154" cy="544" r="8" class="c0"/>
<circle cx="1200" cy="768" r="8" class="c0"/>
<circle cx="1006" cy="524" r="8" class="c0"/>
<circle cx="822" cy="662" r="8" class="c0"/>
<circle cx="1266" cy="790" r="8" class="c0"/>
<circle cx="1202" cy="876" r="8" class="c0"/>
<circle cx="1310" cy="738" r="8" class="c0"/>
<circle cx="1138" cy="648" r="8" class="c0"/>
<circle cx="900" cy="550" r="8" class="c0"/>
<circle cx="1340" cy="708" r="8" class="c0"/>
<circle cx="930" cy="544" r="8" class="c0"/>
<circle cx="970" cy="632" r="8" class="c0"/>
<circle cx="1074" cy="448" r="8" class="c0"/>
<circle cx="1090" cy="406" r="8" class="c0"/>
<circle cx="1204" cy="458" r="8" class="c0"/>
<circle cx="1038" cy="912" r="8" class="c0"/>
<circle cx="1116" cy="830" r="8" class="c0"/>
<circle cx="822" cy="790" r="8" class="c0"/>
<circle cx="932" cy="782" r="8" class="c0"/>
<circle cx="1276" cy="560" r="8" class="c0"/>
<circle cx="1196" cy="618" r="8" class="c0"/>
<circle cx="1058" cy="468" r="8" class="c0"/>
<circle cx="1264" cy="654" r="8" class="c0"/>
<circle cx="1148" cy="504" r="8" class="c0"/>
<circle cx="1314" cy="580" r="8" class="c0"/>
<circle cx="972" cy="882" r="8" class="c0"/>
<circle cx="1092" cy="790" r="8" class="c0"/>
<circle cx="996" cy="924" r="8" class="c0"/>
<circle cx="1014" cy="652" r="8" class="c0"/>
<circle cx="1176" cy="552" r="8" class="c0"/>
<circle cx="1144" cy="590" r="8" class="c0"/>
<circle cx="876" cy="768" r="8" class="c0"/>
<circle cx="1028" cy="574" r="8" class="c0"/>
<circle cx="794" cy="714" r="8" class="c0"/>
<circle cx="1134" cy="968" r="8" class="c0"/>
<circle cx="1178" cy="854" r="8" class="c0"/>
<circle cx="1120" cy="548" r="8" class="c0"/>
<circle cx="1338" cy="786" r="8" class="c0"/>
<circle cx="1106" cy="638" r="8" class="c0"/>
<circle cx="1032" cy="870" r="8" class="c0"/>
<circle cx="892" cy="472" r="8" class="c0"/>
<circle cx="1202" cy="832" r="8" class="c0"/>
<circle cx="1276" cy="734" r="8" class="c0"/>
<circle cx="1138" cy="554" r="8" class="c0"/>
<circle cx="1128" cy="854" r="8" class="c0"/>
<circle cx="1266" cy="718" r="8" class="c0"/>
<circle cx="1118" cy="738" r="8" class="c0"/>
<circle cx="1146" cy="830" r="8" class="c0"/>
<circle cx="1188" cy="924" r="8" class="c0"/>
<circle cx="1062" cy="572" r="8" class="c0"/>
<circle cx="1082" cy="864" r="8" class="c0"/>
<circle cx="818" cy="630" r="8" class="c0"/>
<circle cx="1230" cy="852" r="8" class="c0"/>
<circle cx="1074" cy="964" r="8" class="c0"/>
<circle cx="1170" cy="796" r="8" class="c0"/>
<circle cx="1270" cy="818" r="8" class="c0"/>
<circle cx="1316" cy="682" r="8" class="c0"/>
<circle cx="1024" cy="512" r="8" class="c0"/>
<circle cx="1268" cy="682" r="8" class="c0"/>
<circle cx="1254" cy="596" r="8" class="c0"/>
<circle cx="1104" cy="768" r="8" class="c0"/>
<circle cx="948" cy="676" r="8" class="c0"/>
<circle cx="964" cy="784" r="8" class="c0"/>
<circle cx="1166" cy="702" r="8" class="c0"/>
<circle cx="1016" cy="670" r="8" class="c0"/>
<circle cx="1234" cy="518" r="8" class="c0"/>
<circle cx="1282" cy="642" r="8" class="c0"/>
<circle cx="948" cy="504" r="8" class="c0"/>
<circle cx="1196" cy="852" r="8" class="c0"/>
<circle cx="1112" cy="786" r="8" class="c0"/>
<circle cx="974" cy="718" r="8" class="c0"/>
<circle cx="1130" cy="902" r="8" class="c0"/>
<circle cx="1236" cy="578" r="8" class="c0"/>
<circle cx="1092" cy="666" r="8" class="c0"/>
<circle cx="1226" cy="466" r="8" class="c0"/>
<circle cx="1166" cy="594" r="8" class="c0"/>
<circle cx="946" cy="694" r="8" class="c0"/>
<circle cx="1262" cy="498" r="8" class="c0"/>
<circle cx="1180" cy="454" r="8" class="c0"/>
<circle cx="1026" cy="740" r="8" class="c0"/>
<circle cx="906" cy="622" r="8" class="c0"/>
<circle cx="988" cy="864" r="8" class="c0"/>
<circle cx="786" cy="686" r="8" class="c0"/>
<circle cx="1198" cy="654" r="8" class="c0"/>
<circle cx="1100" cy="724" r="8" class="c0"/>
<circle cx="976" cy="488" r="8" class="c0"/>
<circle cx="1120" cy="592" r="8" class="c0"/>
<circle cx="1144" cy="892" r="8" class="c0"/>
<circle cx="1352" cy="688" r="8" class="c0"/>
<circle cx="1098" cy="846" r="8" class="c0"/>
<circle cx="926" cy="520" r="8" class="c0"/>
<circle cx="902" cy="882" r="8" class="c0"/>
<circle cx="878" cy="730" r="8" class="c0"/>
<circle cx="1166" cy="674" r="8" class="c0"/>
<circle cx="1130" cy="676" r="8" class="c0"/>
<circle cx="978" cy="516" r="8" class="c0"/>
<circle cx="1122" cy="566" r="8" class="c0"/>
<circle cx="1304" cy="788" r="8" class="c0"/>
<circle cx="1230" cy="734" r="8" class="c0"/>
<circle cx="942" cy="804" r="8" class="c0"/>
<circle cx="1044" cy="824" r="8" class="c0"/>
<circle cx="950" cy="654" r="8" class="c0"/>
<circle cx="1344" cy="658" r="8" class="c0"/>
<circle cx="1200" cy="574" r="8" class="c0"/>
<circle cx="1120" cy="890" r="8" class="c0"/>
<circle cx="964" cy="848" r="8" class="c0"/>
<circle cx="1052" cy="586" r="8" class="c0"/>
<circle cx="920" cy="710" r="8" class="c0"/>
<circle cx="1044" cy="932" r="8" class="c0"/>
<circle cx="852" cy="702" r="8" class="c0"/>
<circle cx="1056" cy="620" r="8" class="c0"/>
<circle cx="1082" cy="922" r="8" class="c0"/>
<circle cx="888" cy="834" r="8" class="c0"/>
<circle cx="840" cy="686" r="8" class="c0"/>
<circle cx="948" cy="528" r="8" class="c0"/>
<circle cx="1250" cy="866" r="8" class="c0"/>
<circle cx="996" cy="666" r="8" class="c0"/>
<circle cx="866" cy="720" r="8" class="c0"/>
<circle cx="1062" cy="798" r="8" class="c0"/>
<circle cx="922" cy="484" r="8" class="c0"/>
<circle cx="992" cy="648" r="8" class="c0"/>
<circle cx="980" cy="556" r="8" class="c0"/>
<circle cx="1284" cy="666" r="8" class="c0"/>
<circle cx="1130" cy="474" r="8" class="c0"/>
<circle cx="984" cy="704" r="8" class="c0"/>
<circle cx="1304" cy="698" r="8" class="c0"/>
<circle cx="1188" cy="634" r="8" class="c0"/>
<circle cx="808" cy="640" r="8" class="c0"/>
<circle cx="1132" cy="576" r="8" class="c0"/>
<circle cx="1158" cy="742" r="8" class="c0"/>
<circle cx="1152" cy="616" r="8" class="c0"/>
<circle cx="1162" cy="840" r="8" class="c0"/>
<circle cx="1140" cy="408" r="8" class="c0"/>
<circle cx="962" cy="608" r="8" class="c0"/>
<circle cx="1192" cy="528" r="8" class="c0"/>
<circle cx="982" cy="936" r="8" class="c0"/>
<circle cx="1216" cy="788" r="8" class="c0"/>
<circle cx="844" cy="586" r="8" class="c0"/>
<circle cx="966" cy="756" r="8" class="c0"/>
<circle cx="1174" cy="730" r="8" class="c0"/>
<circle cx="952" cy="618" r="8" class="c0"/>
<circle cx="820" cy="734" r="8" class="c0"/>
<circle cx="854" cy="634" r="8" class="c0"/>
<circle cx="1176" cy="652" r="8" class="c0"/>
<circle cx="1240" cy="754" r="8" class="c0"/>
<circle cx="940" cy="644" r="8" class="c0"/>
<circle cx="1078" cy="808" r="8" class="c0"/>
<circle cx="1008" cy="426" r="8" class="c0"/>
<circle cx="1272" cy="518" r="8" class="c0"/>
<circle cx="870" cy="644" r="8" class="c0"/>
<circle cx="1020" cy="910" r="8" class="c0"/>
<circle cx="1034" cy="640" r="8" class="c0"/>
<circle cx="974" cy="740" r="8" class="c0"/>
<circle cx="1186" cy="498" r="8" class="c0"/>
<circle cx="1038" cy="956" r="8" class="c0"/>
<circle cx="1004" cy="638" r="8" class="c0"/>
<circle cx="1012" cy="848" r="8" class="c0"/>
<circle cx="1242" cy="474" r="8" class="c0"/>
<circle cx="1294" cy="546" r="8" class="c0"/>
<circle cx="1292" cy="720" r="8" class="c0"/>
<circle cx="1040" cy="604" r="8" class="c0"/>
<circle cx="1326" cy="692" r="8" class="c0"/>
<circle cx="1190" cy="706" r="8" class="c0"/>
<circle cx="1244" cy="834" r="8" class="c0"/>
<circle cx="844" cy="832" r="8" class="c0"/>
<circle cx="884" cy="444" r="8" class="c0"/>
<circle cx="1172" cy="948" r="8" class="c0"/>
<circle cx="1152" cy="850" r="8" class="c0"/>
<circle cx="1032" cy="846" r="8" class="c0"/>
<circle cx="940" cy="476" r="8" class="c0"/>
<circle cx="1116" cy="522" r="8" class="c0"/>
<circle cx="1154" cy="662" r="8" class="c0"/>
<circle cx="1100" cy="482" r="8" class="c0"/>
<circle cx="1032" cy="700" r="8" class="c0"/>
<circle cx="930" cy="816" r="8" class="c0"/>
<circle cx="1122" cy="954" r="8" class="c0"/>
<circle cx="866" cy="846" r="8" class="c0"/>
<circle cx="928" cy="882" r="8" class="c0"/>
<circle cx="1162" cy="926" r="8" class="c0"/>
<circle cx="864" cy="544" r="8" class="c0"/>
<circle cx="918" cy="872" r="8" class="c0"/>
<circle cx="922" cy="792" r="8" class="c0"/>
<circle cx="958" cy="730" r="8" class="c0"/>
<circle cx="1100" cy="682" r="8" class="c0"/>
<circle cx="914" cy="824" r="8" class="c0"/>
<circle cx="1246" cy="794" r="8" class="c0"/>
<circle cx="1172" cy="916" r="8" class="c0"/>
<circle cx="1086" cy="592" r="8" class="c0"/>
<circle cx="1116" cy="404" r="8" class="c0"/>
<circle cx="1090" cy="466" r="8" class="c0"/>
<circle cx="1052" cy="688" r="8" class="c0"/>
<circle cx="1234" cy="784" r="8" class="c0"/>
<circle cx="902" cy="774" r="8" class="c0"/>
<circle cx="1088" cy="546" r="8" class="c0"/>
<circle cx="1102" cy="812" r="8" class="c0"/>
<circle cx="896" cy="818" r="8" class="c0"/>
<circle cx="1104" cy="900" r="8" class="c0"/>
<circle cx="974" cy="650" r="8" class="c0"/>
<circle cx="928" cy="684" r="8" class="c0"/>
<circle cx="958" cy="872" r="8" class="c0"/>
<circle cx="1284" cy="780" r="8" class="c0"/>
<circle cx="1046" cy="858" r="8" class="c0"/>
<circle cx="1202" cy="694" r="8" class="c0"/>
<circle cx="1090" cy="492" r="8" class="c0"/>
<circle cx="1142" cy="796" r="8" class="c0"/>
<circle cx="1216" cy="866" r="8" class="c0"/>
<circle cx="892" cy="570" r="8" class="c0"/>
<circle cx="1048" cy="562" r="8" class="c0"/>
<circle cx="1036" cy="466" r="8" class="c0"/>
<circle cx="874" cy="802" r="8" class="c0"/>
<circle cx="1042" cy="880" r="8" class="c0"/>
<circle cx="1074" cy="718" r="8" class="c0"/>
<circle cx="1082" cy="754" r="8" class="c0"/>
<circle cx="834" cy="818" r="8" class="c0"/>
<circle cx="1070" cy="824" r="8" class="c0"/>
<circle cx="1322" cy="608" r="8" class="c0"/>
<circle cx="950" cy="834" r="8" class="c0"/>
<circle cx="880" cy="552" r="8" class="c0"/>
<circle cx="938" cy="574" r="8" class="c0"/>
<circle cx="1004" cy="546" r="8" class="c0"/>
<circle cx="966" cy="566" r="8" class="c0"/>
<circle cx="1214" cy="646" r="8" class="c0"/>
<circle cx="894" cy="612" r="8" class="c0"/>
<circle cx="1208" cy="664" r="8" class="c0"/>
<circle cx="1054" cy="814" r="8" class="c0"/>
<circle cx="1070" cy="512" r="8" class="c0"/>
<circle cx="1304" cy="600" r="8" class="c0"/>
<circle cx="806" cy="726" r="6" class="c0"/>
<circle cx="1070" cy="398" r="6" class="c0"/>
<circle cx="1022" cy="532" r="6" class="c0"/>
<circle cx="826" cy="594" r="6" class="c0"/>
<circle cx="886" cy="640" r="6" class="c0"/>
<circle cx="1088" cy="938" r="6" class="c0"/>
<circle cx="1108" cy="578" r="6" class="c0"/>
<circle cx="1342" cy="746" r="6" class="c0"/>
<circle cx="1068" cy="874" r="6" class="c0"/>
<circle cx="1060" cy="954" r="6" class="c0"/>
<circle cx="884" cy="850" r="6" class="c0"/>
<circle cx="990" cy="584" r="6" class="c0"/>
<circle cx="1038" cy="726" r="6" class="c0"/>
<circle cx="894" cy="680" r="6" class="c0"/>
<circle cx="1098" cy="422" r="6" class="c0"/>
<circle cx="1326" cy="774" r="6" class="c0"/>
<circle cx="886" cy="716" r="6" class="c0"/>
<circle cx="1066" cy="678" r="6" class="c0"/>
<circle cx="1036" cy="750" r="6" class="c0"/>
<circle cx="1152" cy="876" r="6" class="c0"/>
<circle cx="1182" cy="596" r="6" class="c0"/>
<circle cx="1334" cy="644" r="6" class="c0"/>
<circle cx="1248" cy="658" r="6" class="c0"/>
<circle cx="1224" cy="532" r="6" class="c0"/>
<circle cx="814" cy="710" r="6" class="c0"/>
<circle cx="1146" cy="488" r="6" class="c0"/>
<circle cx="1102" cy="752" r="6" class="c0"/>
<circle cx="1128" cy="534" r="6" class="c0"/>
<circle cx="1220" cy="582" r="6" class="c0"/>
<circle cx="1168" cy="438" r="6" class="c0"/>
<circle cx="1216" cy="842" r="6" class="c0"/>
<circle cx="1320" cy="658" r="6" class="c0"/>
<circle cx="1292" cy="610" r="6" class="c0"/>
<circle cx="1194" cy="474" r="6" class="c0"/>
<circle cx="1010" cy="504" r="6" class="c0"/>
<circle cx="1222" cy="498" r="6" class="c0"/>
<circle cx="954" cy="636" r="6" class="c0"/>
<circle cx="1016" cy="808" r="6" class="c0"/>
<circle cx="1134" cy="602" r="6" class="c0"/>
<circle cx="1282" cy="530" r="6" class="c0"/>
<circle cx="916" cy="694" r="6" class="c0"/>
<circle cx="1162" cy="860" r="6" class="c0"/>
<circle cx="1236" cy="904" r="6" class="c0"/>
<circle cx="1206" cy="438" r="6" class="c0"/>
<circle cx="912" cy="534" r="6" class="c0"/>
<circle cx="1006" cy="934" r="6" class="c0"/>
<circle cx="938" cy="600" r="6" class="c0"/>
<circle cx="1190" cy="544" r="6" class="c0"/>
<circle cx="1154" cy="758" r="6" class="c0"/>
<circle cx="1036" cy="588" r="6" class="c0"/>
<circle cx="1296" cy="810" r="6" class="c0"/>
<circle cx="1234" cy="596" r="6" class="c0"/>
<circle cx="984" cy="624" r="6" class="c0"/>
<circle cx="1096" cy="532" r="6" class="c0"/>
<circle cx="1298" cy="680" r="6" class="c0"/>
<circle cx="814" cy="610" r="6" class="c0"/>
<circle cx="1056" cy="408" r="6" class="c0"/>
<circle cx="1258" cy="804" r="6" class="c0"/>
<circle cx="824" cy="678" r="6" class="c0"/>
<circle cx="1228" cy="696" r="6" class="c0"/>
<circle cx="928" cy="590" r="6" class="c0"/>
<circle cx="1220" cy="448" r="6" class="c0"/>
<circle cx="1030" cy="684" r="6" class="c0"/>
<circle cx="1050" cy="768" r="6" class="c0"/>
<circle cx="1250" cy="516" r="6" class="c0"/>
<circle cx="948" cy="916" r="6" class="c0"/>
<circle cx="1020" cy="784" r="6" class="c0"/>
<circle cx="920" cy="650" r="6" class="c0"/>
<circle cx="1086" cy="774" r="6" class="c0"/>
<circle cx="1356" cy="750" r="6" class="c0"/>
<circle cx="892" cy="490" r="6" class="c0"/>
<circle cx="846" cy="568" r="6" class="c0"/>
<circle cx="1310" cy="768" r="6" class="c0"/>
<circle cx="1104" cy="544" r="6" class="c0"/>
<circle cx="1160" cy="490" r="6" class="c0"/>
<circle cx="924" cy="560" r="6" class="c0"/>
<circle cx="1224" cy="482" r="6" class="c0"/>
<circle cx="968" cy="504" r="6" class="c0"/>
<circle cx="930" cy="498" r="6" class="c0"/>
<circle cx="1194" cy="512" r="6" class="c0"/>
<circle cx="988" cy="506" r="6" class="c0"/>
<circle cx="1078" cy="948" r="6" class="c0"/>
<circle cx="834" cy="576" r="6" class="c0"/>
<circle cx="1090" cy="710" r="6" class="c0"/>
<circle cx="856" cy="682" r="6" class="c0"/>
<circle cx="942" cy="744" r="6" class="c0"/>
<circle cx="1156" cy="712" r="6" class="c0"/>
<circle cx="960" cy="492" r="6" class="c0"/>
<circle cx="1062" cy="436" r="6" class="c0"/>
<circle cx="1046" cy="630" r="6" class="c0"/>
<circle cx="1294" cy="736" r="6" class="c0"/>
<circle cx="976" cy="450" r="6" class="c0"/>
<circle cx="876" cy="862" r="6" class="c0"/>
<circle cx="800" cy="624" r="6" class="c0"/>
<circle cx="1066" cy="630" r="6" class="c0"/>
<circle cx="914" cy="894" r="6" class="c0"/>
<circle cx="920" cy="856" r="6" class="c0"/>
<circle cx="1224" cy="894" r="6" class="c0"/>
<circle cx="1072" cy="618" r="6" class="c0"/>
<circle cx="918" cy="636" r="6" class="c0"/>
<circle cx="1186" cy="752" r="6" class="c0"/>
<circle cx="1030" cy="412" r="6" class="c0"/>
<circle cx="1214" cy="886" r="6" class="c0"/>
<circle cx="1160" cy="446" r="6" class="c0"/>
<circle cx="1032" cy="896" r="6" class="c0"/>
<circle cx="788" cy="732" r="6" class="c0"/>
<circle cx="990" cy="880" r="6" class="c0"/>
<circle cx="846" cy="788" r="6" class="c0"/>
<circle cx="1060" cy="866" r="6" class="c0"/>
<circle cx="1214" cy="738" r="6" class="c0"/>
<circle cx="968" cy="898" r="6" class="c0"/>
<circle cx="1264" cy="586" r="6" class="c0"/>
<circle cx="1046" cy="544" r="6" class="c0"/>
<circle cx="1082" cy="678" r="6" class="c0"/>
<circle cx="904" cy="592" r="6" class="c0"/>
<circle cx="1228" cy="836" r="6" class="c0"/>
<circle cx="1118" cy="760" r="6" class="c0"/>
<circle cx="978" cy="824" r="6" class="c0"/>
<circle cx="1054" cy="640" r="6" class="c0"/>
<circle cx="854" cy="796" r="6" class="c0"/>
<circle cx="930" cy="750" r="6" class="c0"/>
<circle cx="1018" cy="690" r="6" class="c0"/>
<circle cx="996" cy="514" r="6" class="c0"/>
<circle cx="1120" cy="912" r="6" class="c0"/>
<circle cx="1276" cy="836" r="6" class="c0"/>
<circle cx="1142" cy="626" r="6" class="c0"/>
<circle cx="906" cy="486" r="6" class="c0"/>
<circle cx="1186" cy="564" r="6" class="c0"/>
<circle cx="818" cy="752" r="6" class="c0"/>
<circle cx="1330" cy="732" r="6" class="c0"/>
<circle cx="1310" cy="666" r="6" class="c0"/>
<circle cx="1126" cy="612" r="6" class="c0"/>
<circle cx="928" cy="902" r="6" class="c0"/>
<circle cx="1258" cy="698" r="6" class="c0"/>
<circle cx="1126" cy="420" r="6" class="c0"/>
<circle cx="1322" cy="788" r="6" class="c0"/>
<circle cx="1080" cy="844" r="6" class="c0"/>
<circle cx="1146" cy="766" r="6" class="c0"/>
<circle cx="1012" cy="476" r="6" class="c0"/>
<circle cx="792" cy="652" r="6" class="c0"/>
<circle cx="1188" cy="866" r="6" class="c0"/>
<circle cx="1186" cy="882" r="6" class="c0"/>
<circle cx="1246" cy="562" r="6" class="c0"/>
<circle cx="1010" cy="772" r="6" class="c0"/>
<circle cx="1130" cy="702" r="6" class="c0"/>
<circle cx="1052" cy="484" r="6" class="c0"/>
<circle cx="1064" cy="728" r="6" class="c0"/>
<circle cx="1194" cy="446" r="6" class="c0"/>
<circle cx="1356" cy="704" r="6" class="c0"/>
<circle cx="1334" cy="802" r="6" class="c0"/>
<circle cx="880" cy="518" r="6" class="c0"/>
<circle cx="958" cy="514" r="6" class="c0"/>
<circle cx="1160" cy="958" r="6" class="c0"/>
<circle cx="1204" cy="636" r="6" class="c0"/>
<circle cx="1226" cy="800" r="6" class="c0"/>
<circle cx="952" cy="794" r="6" class="c0"/>
<circle cx="1260" cy="828" r="6" class="c0"/>
<circle cx="1110" cy="944" r="6" class="c0"/>
<circle cx="1252" cy="820" r="6" class="c0"/>
<circle cx="1132" cy="506" r="6" class="c0"/>
<circle cx="930" cy="700" r="6" class="c0"/>
<circle cx="1106" cy="414" r="6" class="c0"/>
<circle cx="1252" cy="580" r="6" class="c0"/>
<circle cx="880" cy="462" r="6" class="c0"/>
<circle cx="890" cy="504" r="6" class="c0"/>
<circle cx="824" cy="808" r="6" class="c0"/>
<circle cx="984" cy="572" r="6" class="c0"/>
<circle cx="958" cy="712" r="6" class="c0"/>
<circle cx="1224" cy="564" r="6" class="c0"/>
<circle cx="1054" cy="920" r="6" class="c0"/>
<circle cx="1136" cy="840" r="6" class="c0"/>
<circle cx="1010" cy="948" r="6" class="c0"/>
<circle cx="832" cy="746" r="6" class="c0"/>
<circle cx="1182" cy="518" r="6" class="c0"/>
<circle cx="1176" cy="714" r="6" class="c0"/>
<circle cx="1288" cy="818" r="6" class="c0"/>
<circle cx="1256" cy="550" r="6" class="c0"/>
<circle cx="1324" cy="590" r="6" class="c0"/>
<circle cx="896" cy="658" r="6" class="c0"/>
<circle cx="1116" cy="720" r="6" class="c0"/>
<circle cx="1144" cy="866" r="6" class="c0"/>
<circle cx="1024" cy="602" r="6" class="c0"/>
<circle cx="784" cy="704" r="6" class="c0"/>
<circle cx="970" cy="832" r="6" class="c0"/>
<circle cx="852" cy="554" r="6" class="c0"/>
<circle cx="1246" cy="610" r="6" class="c0"/>
<circle cx="1232" cy="768" r="6" class="c0"/>
<circle cx="1230" cy="640" r="6" class="c0"/>
<circle cx="1080" cy="502" r="6" class="c0"/>
<circle cx="1212" cy="474" r="6" class="c0"/>
<circle cx="1316" cy="644" r="6" class="c0"/>
<circle cx="828" cy="696" r="6" class="c0"/>
<circle cx="1072" cy="582" r="6" class="c0"/>
<circle cx="1022" cy="860" r="6" class="c0"/>
<circle cx="1072" cy="788" r="6" class="c0"/>
<circle cx="1258" cy="670" r="6" class="c0"/>
<circle cx="1072" cy="854" r="6" class="c0"/>
<circle cx="1272" cy="770" r="6" class="c0"/>
<circle cx="1052" cy="946" r="6" class="c0"/>
<circle cx="1092" cy="912" r="6" class="c0"/>
<circle cx="1096" cy="628" r="6" class="c0"/>
<circle cx="956" cy="746" r="6" class="c0"/>
<circle cx="1286" cy="744" r="6" class="c0"/>
<circle cx="976" cy="616" r="6" class="c0"/>
<circle cx="916" cy="742" r="6" class="c0"/>
<circle cx="886" cy="876" r="6" class="c0"/>
<circle cx="972" cy="862" r="6" class="c0"/>
<circle cx="1246" cy="850" r="6" class="c0"/>
<circle cx="1186" cy="940" r="6" class="c0"/>
<circle cx="1100" cy="396" r="6" class="c0"/>
<circle cx="1198" cy="934" r="6" class="c0"/>
<circle cx="1258" cy="616" r="6" class="c0"/>
<circle cx="1208" cy="588" r="6" class="c0"/>
<circle cx="998" cy="942" r="6" class="c0"/>
<circle cx="1042" cy="406" r="6" class="c0"/>
<circle cx="916" cy="552" r="6" class="c0"/>
</svg>
