<?xml version="1.0" encoding="utf-8"?>
<svg xmlns="http://www.w3.org/2000/svg"
     xmlns:xlink="http://www.w3.org/1999/xlink" width="1920" height="1440" >

            <defs>
            <style type="text/css"><![CDATA[
circle {stroke: none;}
.c0 {fill: #000000;}
]]></style>
            </defs>
<rect x="0" y="0" width="1920" height="1440" fill="white"/>
<circle cx="1474" cy="690" r="14" class="c0"/>
<circle cx="1422" cy="740" r="12" class="c0"/>
<circle cx="826" cy="584" r="12" class="c0"/>
<circle cx="340" cy="766" r="12" class="c0"/>
<circle cx="378" cy="776" r="12" class="c0"/>
<circle cx="1312" cy="758" r="12" class="c0"/>
<circle cx="1236" cy="774" r="12" class="c0"/>
<circle cx="1370" cy="700" r="12" class="c0"/>
<circle cx="1518" cy="764" r="12" class="c0"/>
<circle cx="772" cy="606" r="12" class="c0"/>
<circle cx="790" cy="566" r="12" class="c0"/>
<circle cx="1438" cy="704" r="12" class="c0"/>
<circle cx="596" cy="744" r="12" class="c0"/>
<circle cx="530" cy="754" r="12" class="c0"/>
<circle cx="298" cy="744" r="12" class="c0"/>
<circle cx="760" cy="646" r="12" class="c0"/>
<circle cx="1476" cy="754" r="12" class="c0"/>
<circle cx="1162" cy="586" r="12" class="c0"/>
<circle cx="402" cy="766" r="12" class="c0"/>
<circle cx="624" cy="826" r="12" class="c0"/>
<circle cx="368" cy="724" r="12" class="c0"/>
<circle cx="656" cy="746" r="12" class="c0"/>
<circle cx="1228" cy="838" r="12" class="c0"/>
<circle cx="1528" cy="712" r="12" class="c0"/>
<circle cx="616" cy="714" r="12" class="c0"/>
<circle cx="816" cy="902" r="12" class="c0"/>
<circle cx="1306" cy="852" r="12" class="c0"/>
<circle cx="1186" cy="738" r="12" class="c0"/>
<circle cx="632" cy="794" r="12" class="c0"/>
<circle cx="448" cy="784" r="12" class="c0"/>
<circle cx="688" cy="688" r="12" class="c0"/>
<circle cx="698" cy="750" r="12" class="c0"/>
<circle cx="434" cy="762" r="12" class="c0"/>
<circle cx="738" cy="704" r="12" class="c0"/>
<circle cx="1290" cy="834" r="12" class="c0"/>
<circle cx="554" cy="802" r="12" class="c0"/>
<circle cx="734" cy="820" r="10" class="c0"/>
<circle cx="474" cy="738" r="10" class="c0"/>
<circle cx="1562" cy="706" r="10" class="c0"/>
<circle cx="658" cy="626" r="10" class="c0"/>
<circle cx="1528" cy="684" r="10" class="c0"/>
<circle cx="1310" cy="634" r="10" class="c0"/>
<circle cx="1180" cy="852" r="10" class="c0"/>
<circle cx="1194" cy="576" r="10" class="c0"/>
<circle cx="668" cy="856" r="10" class="c0"/>
<circle cx="454" cy="728" r="10" class="c0"/>
<circle cx="1250" cy="816" r="10" class="c0"/>
<circle cx="750" cy="880" r="10" class="c0"/>
<circle cx="1414" cy="808" r="10" class="c0"/>
<circle cx="1194" cy="760" r="10" class="c0"/>
<circle cx="1166" cy="872" r="10" class="c0"/>
<circle cx="1460" cy="714" r="10" class="c0"/>
<circle cx="558" cy="762" r="10" class="c0"/>
<circle cx="1392" cy="744" r="10" class="c0"/>
<circle cx="1318" cy="828" r="10" class="c0"/>
<circle cx="1384" cy="652" r="10" class="c0"/>
<circle cx="1620" cy="738" r="10" class="c0"/>
<circle cx="1346" cy="774" r="10" class="c0"/>
<circle cx="388" cy="708" r="10" class="c0"/>
<circle cx="1330" cy="672" r="10" class="c0"/>
<circle cx="1420" cy="650" r="10" class="c0"/>
<circle cx="1102" cy="894" r="10" class="c0"/>
<circle cx="1202" cy="788" r="10" class="c0"/>
<circle cx="1128" cy="614" r="10" class="c0"/>
<circle cx="1152" cy="644" r="10" class="c0"/>
<circle cx="732" cy="648" r="10" class="c0"/>
<circle cx="1436" cy="792" r="10" class="c0"/>
<circle cx="1596" cy="750" r="10" class="c0"/>
<circle cx="584" cy="704" r="10" class="c0"/>
<circle cx="1236" cy="626" r="10" class="c0"/>
<circle cx="1242" cy="736" r="10" class="c0"/>
<circle cx="1364" cy="824" r="10" class="c0"/>
<circle cx="1224" cy="882" r="10" class="c0"/>
<circle cx="738" cy="578" r="10" class="c0"/>
<circle cx="606" cy="632" r="10" class="c0"/>
<circle cx="422" cy="716" r="10" class="c0"/>
<circle cx="1310" cy="688" r="10" class="c0"/>
<circle cx="1268" cy="868" r="10" class="c0"/>
<circle cx="856" cy="920" r="10" class="c0"/>
<circle cx="1412" cy="774" r="10" class="c0"/>
<circle cx="1216" cy="644" r="10" class="c0"/>
<circle cx="418" cy="784" r="10" class="c0"/>
<circle cx="514" cy="712" r="10" class="c0"/>
<circle cx="500" cy="684" r="10" class="c0"/>
<circle cx="1284" cy="694" r="10" class="c0"/>
<circle cx="1392" cy="678" r="10" class="c0"/>
<circle cx="1564" cy="768" r="10" class="c0"/>
<circle cx="1356" cy="632" r="10" class="c0"/>
<circle cx="1352" cy="724" r="10" class="c0"/>
<circle cx="1182" cy="604" r="10" class="c0"/>
<circle cx="808" cy="608" r="10" class="c0"/>
<circle cx="1158" cy="910" r="10" class="c0"/>
<circle cx="1192" cy="656" r="10" class="c0"/>
<circle cx="1244" cy="588" r="10" class="c0"/>
<circle cx="564" cy="692" r="10" class="c0"/>
<circle cx="1290" cy="598" r="10" class="c0"/>
<circle cx="700" cy="654" r="10" class="c0"/>
<circle cx="1304" cy="782" r="10" class="c0"/>
<circle cx="1436" cy="672" r="10" class="c0"/>
<circle cx="1282" cy="648" r="10" class="c0"/>
<circle cx="754" cy="776" r="10" class="c0"/>
<circle cx="1290" cy="876" r="10" class="c0"/>
<circle cx="552" cy="644" r="10" class="c0"/>
<circle cx="538" cy="692" r="10" class="c0"/>
<circle cx="1570" cy="728" r="10" class="c0"/>
<circle cx="1326" cy="800" r="10" class="c0"/>
<circle cx="672" cy="730" r="10" class="c0"/>
<circle cx="694" cy="616" r="10" class="c0"/>
<circle cx="1058" cy="548" r="10" class="c0"/>
<circle cx="736" cy="760" r="10" class="c0"/>
<circle cx="756" cy="812" r="10" class="c0"/>
<circle cx="554" cy="666" r="10" class="c0"/>
<circle cx="1442" cy="766" r="10" class="c0"/>
<circle cx="612" cy="776" r="10" class="c0"/>
<circle cx="638" cy="692" r="10" class="c0"/>
<circle cx="1174" cy="676" r="10" class="c0"/>
<circle cx="516" cy="820" r="10" class="c0"/>
<circle cx="1240" cy="896" r="10" class="c0"/>
<circle cx="1264" cy="730" r="10" class="c0"/>
<circle cx="818" cy="558" r="10" class="c0"/>
<circle cx="1396" cy="840" r="10" class="c0"/>
<circle cx="1210" cy="854" r="10" class="c0"/>
<circle cx="676" cy="796" r="10" class="c0"/>
<circle cx="602" cy="676" r="10" class="c0"/>
<circle cx="718" cy="800" r="10" class="c0"/>
<circle cx="1170" cy="824" r="10" class="c0"/>
<circle cx="1254" cy="786" r="10" class="c0"/>
<circle cx="1528" cy="784" r="10" class="c0"/>
<circle cx="452" cy="808" r="10" class="c0"/>
<circle cx="544" cy="778" r="10" class="c0"/>
<circle cx="596" cy="816" r="10" class="c0"/>
<circle cx="1264" cy="672" r="10" class="c0"/>
<circle cx="386" cy="740" r="10" class="c0"/>
<circle cx="732" cy="612" r="10" class="c0"/>
<circle cx="740" cy="794" r="10" class="c0"/>
<circle cx="1224" cy="796" r="10" class="c0"/>
<circle cx="1082" cy="562" r="10" class="c0"/>
<circle cx="432" cy="736" r="10" class="c0"/>
<circle cx="572" cy="822" r="10" class="c0"/>
<circle cx="656" cy="680" r="10" class="c0"/>
<circle cx="522" cy="678" r="10" class="c0"/>
<circle cx="1284" cy="720" r="10" class="c0"/>
<circle cx="798" cy="868" r="10" class="c0"/>
<circle cx="490" cy="822" r="10" class="c0"/>
<circle cx="1270" cy="798" r="10" class="c0"/>
<circle cx="504" cy="748" r="10" class="c0"/>
<circle cx="1334" cy="864" r="10" class="c0"/>
<circle cx="322" cy="722" r="10" class="c0"/>
<circle cx="768" cy="868" r="8" class="c0"/>
<circle cx="1470" cy="782" r="8" class="c0"/>
<circle cx="690" cy="776" r="8" class="c0"/>
<circle cx="1132" cy="898" r="8" class="c0"/>
<circle cx="226" cy="752" r="8" class="c0"/>
<circle cx="1206" cy="694" r="8" class="c0"/>
<circle cx="272" cy="756" r="8" class="c0"/>
<circle cx="1394" cy="716" r="8" class="c0"/>
<circle cx="578" cy="760" r="8" class="c0"/>
<circle cx="178" cy="746" r="8" class="c0"/>
<circle cx="844" cy="562" r="8" class="c0"/>
<circle cx="696" cy="800" r="8" class="c0"/>
<circle cx="1138" cy="586" r="8" class="c0"/>
<circle cx="674" cy="882" r="8" class="c0"/>
<circle cx="1170" cy="784" r="8" class="c0"/>
<circle cx="1376" cy="792" r="8" class="c0"/>
<circle cx="648" cy="826" r="8" class="c0"/>
<circle cx="1340" cy="696" r="8" class="c0"/>
<circle cx="540" cy="832" r="8" class="c0"/>
<circle cx="1362" cy="850" r="8" class="c0"/>
<circle cx="1312" cy="612" r="8" class="c0"/>
<circle cx="770" cy="824" r="8" class="c0"/>
<circle cx="640" cy="724" r="8" class="c0"/>
<circle cx="472" cy="762" r="8" class="c0"/>
<circle cx="470" cy="708" r="8" class="c0"/>
<circle cx="752" cy="680" r="8" class="c0"/>
<circle cx="1166" cy="802" r="8" class="c0"/>
<circle cx="626" cy="754" r="8" class="c0"/>
<circle cx="762" cy="702" r="8" class="c0"/>
<circle cx="1022" cy="932" r="8" class="c0"/>
<circle cx="1260" cy="614" r="8" class="c0"/>
<circle cx="1172" cy="638" r="8" class="c0"/>
<circle cx="1550" cy="718" r="8" class="c0"/>
<circle cx="1280" cy="760" r="8" class="c0"/>
<circle cx="208" cy="744" r="8" class="c0"/>
<circle cx="1214" cy="612" r="8" class="c0"/>
<circle cx="728" cy="880" r="8" class="c0"/>
<circle cx="1106" cy="572" r="8" class="c0"/>
<circle cx="1618" cy="716" r="8" class="c0"/>
<circle cx="1196" cy="882" r="8" class="c0"/>
<circle cx="604" cy="850" r="8" class="c0"/>
<circle cx="1190" cy="904" r="8" class="c0"/>
<circle cx="1232" cy="576" r="8" class="c0"/>
<circle cx="1334" cy="734" r="8" class="c0"/>
<circle cx="566" cy="842" r="8" class="c0"/>
<circle cx="1378" cy="624" r="8" class="c0"/>
<circle cx="710" cy="852" r="8" class="c0"/>
<circle cx="766" cy="574" r="8" class="c0"/>
<circle cx="1128" cy="568" r="8" class="c0"/>
<circle cx="518" cy="800" r="8" class="c0"/>
<circle cx="1458" cy="794" r="8" class="c0"/>
<circle cx="876" cy="548" r="8" class="c0"/>
<circle cx="1306" cy="808" r="8" class="c0"/>
<circle cx="1028" cy="544" r="8" class="c0"/>
<circle cx="722" cy="748" r="8" class="c0"/>
<circle cx="540" cy="722" r="8" class="c0"/>
<circle cx="1334" cy="756" r="8" class="c0"/>
<circle cx="708" cy="712" r="8" class="c0"/>
<circle cx="648" cy="652" r="8" class="c0"/>
<circle cx="412" cy="740" r="8" class="c0"/>
<circle cx="522" cy="654" r="8" class="c0"/>
<circle cx="760" cy="622" r="8" class="c0"/>
<circle cx="668" cy="774" r="8" class="c0"/>
<circle cx="672" cy="700" r="8" class="c0"/>
<circle cx="1672" cy="746" r="8" class="c0"/>
<circle cx="262" cy="740" r="8" class="c0"/>
<circle cx="1642" cy="716" r="8" class="c0"/>
<circle cx="646" cy="856" r="8" class="c0"/>
<circle cx="1480" cy="804" r="8" class="c0"/>
<circle cx="708" cy="768" r="8" class="c0"/>
<circle cx="1206" cy="730" r="8" class="c0"/>
<circle cx="1062" cy="930" r="8" class="c0"/>
<circle cx="1306" cy="718" r="8" class="c0"/>
<circle cx="886" cy="928" r="8" class="c0"/>
<circle cx="1686" cy="728" r="8" class="c0"/>
<circle cx="484" cy="800" r="8" class="c0"/>
<circle cx="1754" cy="740" r="8" class="c0"/>
<circle cx="580" cy="800" r="8" class="c0"/>
<circle cx="1390" cy="810" r="8" class="c0"/>
<circle cx="714" cy="668" r="8" class="c0"/>
<circle cx="696" cy="824" r="8" class="c0"/>
<circle cx="1532" cy="748" r="8" class="c0"/>
<circle cx="1490" cy="666" r="8" class="c0"/>
<circle cx="1376" cy="754" r="8" class="c0"/>
<circle cx="1332" cy="616" r="8" class="c0"/>
<circle cx="1646" cy="744" r="8" class="c0"/>
<circle cx="674" cy="648" r="8" class="c0"/>
<circle cx="1484" cy="712" r="8" class="c0"/>
<circle cx="1150" cy="624" r="8" class="c0"/>
<circle cx="1590" cy="710" r="8" class="c0"/>
<circle cx="830" cy="920" r="8" class="c0"/>
<circle cx="1104" cy="544" r="8" class="c0"/>
<circle cx="782" cy="638" r="8" class="c0"/>
<circle cx="1544" cy="770" r="8" class="c0"/>
<circle cx="1506" cy="704" r="8" class="c0"/>
<circle cx="756" cy="592" r="8" class="c0"/>
<circle cx="580" cy="778" r="8" class="c0"/>
<circle cx="1144" cy="882" r="8" class="c0"/>
<circle cx="1164" cy="758" r="8" class="c0"/>
<circle cx="1226" cy="694" r="8" class="c0"/>
<circle cx="1080" cy="920" r="8" class="c0"/>
<circle cx="638" cy="662" r="8" class="c0"/>
<circle cx="1122" cy="856" r="8" class="c0"/>
<circle cx="656" cy="798" r="8" class="c0"/>
<circle cx="1706" cy="734" r="8" class="c0"/>
<circle cx="1354" cy="686" r="8" class="c0"/>
<circle cx="638" cy="640" r="8" class="c0"/>
<circle cx="688" cy="854" r="8" class="c0"/>
<circle cx="1454" cy="818" r="8" class="c0"/>
<circle cx="1386" cy="782" r="8" class="c0"/>
<circle cx="722" cy="684" r="8" class="c0"/>
<circle cx="584" cy="660" r="8" class="c0"/>
<circle cx="1618" cy="758" r="8" class="c0"/>
<circle cx="1132" cy="924" r="8" class="c0"/>
<circle cx="750" cy="740" r="8" class="c0"/>
<circle cx="1256" cy="636" r="8" class="c0"/>
<circle cx="1658" cy="724" r="8" class="c0"/>
<circle cx="1358" cy="760" r="8" class="c0"/>
<circle cx="1158" cy="840" r="8" class="c0"/>
<circle cx="1692" cy="746" r="8" class="c0"/>
<circle cx="914" cy="538" r="8" class="c0"/>
<circle cx="784" cy="894" r="8" class="c0"/>
<circle cx="1188" cy="800" r="8" class="c0"/>
<circle cx="790" cy="594" r="8" class="c0"/>
<circle cx="496" cy="664" r="8" class="c0"/>
<circle cx="1282" cy="814" r="8" class="c0"/>
<circle cx="1108" cy="916" r="8" class="c0"/>
<circle cx="1200" cy="826" r="8" class="c0"/>
<circle cx="1468" cy="732" r="8" class="c0"/>
<circle cx="504" cy="790" r="8" class="c0"/>
<circle cx="1266" cy="710" r="8" class="c0"/>
<circle cx="658" cy="600" r="8" class="c0"/>
<circle cx="244" cy="750" r="8" class="c0"/>
<circle cx="570" cy="728" r="8" class="c0"/>
<circle cx="1508" cy="738" r="8" class="c0"/>
<circle cx="1182" cy="696" r="8" class="c0"/>
<circle cx="1226" cy="746" r="8" class="c0"/>
<circle cx="1208" cy="666" r="8" class="c0"/>
<circle cx="556" cy="738" r="8" class="c0"/>
<circle cx="1150" cy="570" r="8" class="c0"/>
<circle cx="1244" cy="858" r="8" class="c0"/>
<circle cx="1116" cy="596" r="8" class="c0"/>
<circle cx="738" cy="668" r="8" class="c0"/>
<circle cx="1204" cy="622" r="8" class="c0"/>
<circle cx="772" cy="906" r="8" class="c0"/>
<circle cx="1394" cy="766" r="8" class="c0"/>
<circle cx="840" cy="904" r="8" class="c0"/>
<circle cx="342" cy="732" r="8" class="c0"/>
<circle cx="440" cy="696" r="8" class="c0"/>
<circle cx="628" cy="852" r="8" class="c0"/>
<circle cx="1146" cy="864" r="8" class="c0"/>
<circle cx="1374" cy="772" r="8" class="c0"/>
<circle cx="672" cy="818" r="8" class="c0"/>
<circle cx="1266" cy="588" r="8" class="c0"/>
<circle cx="1554" cy="752" r="8" class="c0"/>
<circle cx="1230" cy="720" r="8" class="c0"/>
<circle cx="618" cy="686" r="8" class="c0"/>
<circle cx="1460" cy="662" r="8" class="c0"/>
<circle cx="678" cy="630" r="8" class="c0"/>
<circle cx="1114" cy="874" r="8" class="c0"/>
<circle cx="1356" cy="668" r="8" class="c0"/>
<circle cx="1222" cy="586" r="8" class="c0"/>
<circle cx="1214" cy="770" r="8" class="c0"/>
<circle cx="628" cy="616" r="8" class="c0"/>
<circle cx="1502" cy="792" r="8" class="c0"/>
<circle cx="712" cy="604" r="8" class="c0"/>
<circle cx="1262" cy="892" r="8" class="c0"/>
<circle cx="1228" cy="668" r="8" class="c0"/>
<circle cx="558" cy="716" r="8" class="c0"/>
<circle cx="466" cy="686" r="8" class="c0"/>
<circle cx="894" cy="544" r="8" class="c0"/>
<circle cx="714" cy="896" r="8" class="c0"/>
<circle cx="1374" cy="726" r="8" class="c0"/>
<circle cx="690" cy="722" r="8" class="c0"/>
<circle cx="1268" cy="750" r="8" class="c0"/>
<circle cx="744" cy="838" r="8" class="c0"/>
<circle cx="1554" cy="688" r="8" class="c0"/>
<circle cx="430" cy="802" r="8" class="c0"/>
<circle cx="1246" cy="700" r="8" class="c0"/>
<circle cx="714" cy="582" r="8" class="c0"/>
<circle cx="1332" cy="636" r="8" class="c0"/>
<circle cx="1250" cy="660" r="8" class="c0"/>
<circle cx="516" cy="774" r="8" class="c0"/>
<circle cx="724" cy="594" r="8" class="c0"/>
<circle cx="1422" cy="716" r="8" class="c0"/>
<circle cx="1490" cy="776" r="8" class="c0"/>
<circle cx="1094" cy="930" r="8" class="c0"/>
<circle cx="1572" cy="750" r="8" class="c0"/>
<circle cx="1340" cy="844" r="8" class="c0"/>
<circle cx="366" cy="754" r="8" class="c0"/>
<circle cx="1170" cy="620" r="8" class="c0"/>
<circle cx="1250" cy="876" r="8" class="c0"/>
<circle cx="1170" cy="656" r="8" class="c0"/>
<circle cx="408" cy="698" r="8" class="c0"/>
<circle cx="676" cy="836" r="8" class="c0"/>
<circle cx="498" cy="728" r="8" class="c0"/>
<circle cx="780" cy="854" r="8" class="c0"/>
<circle cx="794" cy="910" r="8" class="c0"/>
<circle cx="1448" cy="734" r="8" class="c0"/>
<circle cx="1416" cy="682" r="8" class="c0"/>
<circle cx="854" cy="548" r="8" class="c0"/>
<circle cx="698" cy="870" r="8" class="c0"/>
<circle cx="1216" cy="900" r="8" class="c0"/>
<circle cx="400" cy="722" r="8" class="c0"/>
<circle cx="1140" cy="838" r="8" class="c0"/>
<circle cx="790" cy="842" r="8" class="c0"/>
<circle cx="600" cy="796" r="8" class="c0"/>
<circle cx="746" cy="856" r="8" class="c0"/>
<circle cx="676" cy="604" r="8" class="c0"/>
<circle cx="1426" cy="828" r="8" class="c0"/>
<circle cx="1288" cy="740" r="8" class="c0"/>
<circle cx="712" cy="730" r="8" class="c0"/>
<circle cx="1252" cy="762" r="8" class="c0"/>
<circle cx="722" cy="836" r="8" class="c0"/>
<circle cx="1196" cy="684" r="8" class="c0"/>
<circle cx="1196" cy="716" r="8" class="c0"/>
<circle cx="648" cy="708" r="8" class="c0"/>
<circle cx="1396" cy="640" r="8" class="c0"/>
<circle cx="1490" cy="734" r="8" class="c0"/>
<circle cx="1502" cy="680" r="8" class="c0"/>
<circle cx="312" cy="760" r="8" class="c0"/>
<circle cx="608" cy="654" r="8" class="c0"/>
<circle cx="1364" cy="742" r="8" class="c0"/>
<circle cx="1584" cy="764" r="8" class="c0"/>
<circle cx="1410" cy="706" r="8" class="c0"/>
<circle cx="490" cy="780" r="8" class="c0"/>
<circle cx="1300" cy="670" r="8" class="c0"/>
<circle cx="1238" cy="682" r="8" class="c0"/>
<circle cx="1004" cy="534" r="8" class="c0"/>
<circle cx="1266" cy="836" r="8" class="c0"/>
<circle cx="502" cy="808" r="8" class="c0"/>
<circle cx="1724" cy="738" r="8" class="c0"/>
<circle cx="278" cy="730" r="8" class="c0"/>
<circle cx="482" cy="676" r="8" class="c0"/>
<circle cx="1448" cy="686" r="8" class="c0"/>
<circle cx="396" cy="788" r="8" class="c0"/>
<circle cx="332" cy="744" r="8" class="c0"/>
<circle cx="1192" cy="632" r="8" class="c0"/>
<circle cx="796" cy="622" r="8" class="c0"/>
<circle cx="654" cy="876" r="8" class="c0"/>
<circle cx="762" cy="670" r="8" class="c0"/>
<circle cx="672" cy="666" r="8" class="c0"/>
<circle cx="488" cy="704" r="8" class="c0"/>
<circle cx="804" cy="580" r="8" class="c0"/>
<circle cx="1404" cy="756" r="8" class="c0"/>
<circle cx="582" cy="632" r="8" class="c0"/>
<circle cx="522" cy="734" r="8" class="c0"/>
<circle cx="1310" cy="658" r="8" class="c0"/>
<circle cx="456" cy="754" r="8" class="c0"/>
<circle cx="1176" cy="718" r="8" class="c0"/>
<circle cx="706" cy="634" r="8" class="c0"/>
<circle cx="1352" cy="812" r="8" class="c0"/>
<circle cx="724" cy="720" r="8" class="c0"/>
<circle cx="406" cy="798" r="8" class="c0"/>
<circle cx="574" cy="676" r="8" class="c0"/>
<circle cx="696" cy="596" r="8" class="c0"/>
<circle cx="1174" cy="564" r="8" class="c0"/>
<circle cx="1262" cy="692" r="8" class="c0"/>
<circle cx="768" cy="686" r="6" class="c0"/>
<circle cx="1132" cy="546" r="6" class="c0"/>
<circle cx="1276" cy="624" r="6" class="c0"/>
<circle cx="752" cy="720" r="6" class="c0"/>
<circle cx="706" cy="696" r="6" class="c0"/>
<circle cx="1280" cy="854" r="6" class="c0"/>
<circle cx="1206" cy="748" r="6" class="c0"/>
<circle cx="1384" cy="828" r="6" class="c0"/>
<circle cx="706" cy="784" r="6" class="c0"/>
<circle cx="1170" cy="898" r="6" class="c0"/>
<circle cx="1372" cy="676" r="6" class="c0"/>
<circle cx="586" cy="834" r="6" class="c0"/>
<circle cx="1380" cy="852" r="6" class="c0"/>
<circle cx="442" cy="716" r="6" class="c0"/>
<circle cx="1226" cy="816" r="6" class="c0"/>
<circle cx="1608" cy="726" r="6" class="c0"/>
<circle cx="156" cy="744" r="6" class="c0"/>
<circle cx="1214" cy="712" r="6" class="c0"/>
<circle cx="734" cy="738" r="6" class="c0"/>
<circle cx="626" cy="868" r="6" class="c0"/>
<circle cx="1146" cy="552" r="6" class="c0"/>
<circle cx="1244" cy="608" r="6" class="c0"/>
<circle cx="1328" cy="776" r="6" class="c0"/>
<circle cx="1044" cy="538" r="6" class="c0"/>
<circle cx="1204" cy="810" r="6" class="c0"/>
<circle cx="1606" cy="706" r="6" class="c0"/>
<circle cx="1130" cy="872" r="6" class="c0"/>
<circle cx="1540" cy="728" r="6" class="c0"/>
<circle cx="1208" cy="594" r="6" class="c0"/>
<circle cx="582" cy="854" r="6" class="c0"/>
<circle cx="736" cy="894" r="6" class="c0"/>
<circle cx="1314" cy="880" r="6" class="c0"/>
<circle cx="1370" cy="642" r="6" class="c0"/>
<circle cx="1442" cy="652" r="6" class="c0"/>
<circle cx="744" cy="634" r="6" class="c0"/>
<circle cx="768" cy="840" r="6" class="c0"/>
<circle cx="652" cy="778" r="6" class="c0"/>
<circle cx="1240" cy="650" r="6" class="c0"/>
<circle cx="832" cy="548" r="6" class="c0"/>
<circle cx="1396" cy="696" r="6" class="c0"/>
<circle cx="1452" cy="752" r="6" class="c0"/>
<circle cx="774" cy="808" r="6" class="c0"/>
<circle cx="640" cy="812" r="6" class="c0"/>
<circle cx="1156" cy="668" r="6" class="c0"/>
<circle cx="1284" cy="782" r="6" class="c0"/>
<circle cx="1040" cy="928" r="6" class="c0"/>
<circle cx="638" cy="774" r="6" class="c0"/>
<circle cx="1404" cy="792" r="6" class="c0"/>
<circle cx="538" cy="656" r="6" class="c0"/>
<circle cx="1344" cy="654" r="6" class="c0"/>
<circle cx="564" cy="782" r="6" class="c0"/>
<circle cx="720" cy="866" r="6" class="c0"/>
<circle cx="1152" cy="604" r="6" class="c0"/>
<circle cx="1270" cy="776" r="6" class="c0"/>
<circle cx="620" cy="666" r="6" class="c0"/>
<circle cx="676" cy="752" r="6" class="c0"/>
<circle cx="626" cy="736" r="6" class="c0"/>
<circle cx="1324" cy="650" r="6" class="c0"/>
<circle cx="1362" cy="800" r="6" class="c0"/>
<circle cx="876" cy="916" r="6" class="c0"/>
<circle cx="1178" cy="884" r="6" class="c0"/>
<circle cx="724" cy="630" r="6" class="c0"/>
<circle cx="356" cy="744" r="6" class="c0"/>
<circle cx="620" cy="644" r="6" class="c0"/>
<circle cx="726" cy="854" r="6" class="c0"/>
<circle cx="300" cy="724" r="6" class="c0"/>
<circle cx="686" cy="810" r="6" class="c0"/>
<circle cx="1634" cy="754" r="6" class="c0"/>
<circle cx="1518" cy="728" r="6" class="c0"/>
<circle cx="1410" cy="666" r="6" class="c0"/>
<circle cx="816" cy="872" r="6" class="c0"/>
<circle cx="1118" cy="552" r="6" class="c0"/>
<circle cx="728" cy="782" r="6" class="c0"/>
<circle cx="470" cy="790" r="6" class="c0"/>
<circle cx="938" cy="534" r="6" class="c0"/>
<circle cx="1364" cy="616" r="6" class="c0"/>
<circle cx="984" cy="530" r="6" class="c0"/>
<circle cx="596" cy="768" r="6" class="c0"/>
<circle cx="1282" cy="676" r="6" class="c0"/>
<circle cx="448" cy="680" r="6" class="c0"/>
<circle cx="1216" cy="570" r="6" class="c0"/>
<circle cx="1250" cy="842" r="6" class="c0"/>
<circle cx="994" cy="936" r="6" class="c0"/>
<circle cx="488" cy="758" r="6" class="c0"/>
<circle cx="1290" cy="628" r="6" class="c0"/>
<circle cx="764" cy="730" r="6" class="c0"/>
<circle cx="536" cy="814" r="6" class="c0"/>
<circle cx="1324" cy="702" r="6" class="c0"/>
<circle cx="1376" cy="838" r="6" class="c0"/>
<circle cx="592" cy="722" r="6" class="c0"/>
<circle cx="1400" cy="820" r="6" class="c0"/>
<circle cx="760" cy="750" r="6" class="c0"/>
<circle cx="1332" cy="818" r="6" class="c0"/>
<circle cx="298" cy="770" r="6" class="c0"/>
<circle cx="658" cy="720" r="6" class="c0"/>
<circle cx="1150" cy="826" r="6" class="c0"/>
<circle cx="906" cy="930" r="6" class="c0"/>
<circle cx="566" cy="634" r="6" class="c0"/>
<circle cx="1334" cy="714" r="6" class="c0"/>
<circle cx="688" cy="640" r="6" class="c0"/>
<circle cx="1310" cy="734" r="6" class="c0"/>
<circle cx="358" cy="784" r="6" class="c0"/>
<circle cx="1586" cy="736" r="6" class="c0"/>
<circle cx="768" cy="890" r="6" class="c0"/>
<circle cx="1166" cy="728" r="6" class="c0"/>
<circle cx="644" cy="610" r="6" class="c0"/>
<circle cx="1504" cy="722" r="6" class="c0"/>
<circle cx="1136" cy="632" r="6" class="c0"/>
<circle cx="1324" cy="724" r="6" class="c0"/>
<circle cx="1324" cy="744" r="6" class="c0"/>
<circle cx="470" cy="814" r="6" class="c0"/>
<circle cx="630" cy="676" r="6" class="c0"/>
<circle cx="502" cy="766" r="6" class="c0"/>
<circle cx="570" cy="652" r="6" class="c0"/>
<circle cx="712" cy="818" r="6" class="c0"/>
<circle cx="778" cy="878" r="6" class="c0"/>
<circle cx="1438" cy="812" r="6" class="c0"/>
<circle cx="1180" cy="916" r="6" class="c0"/>
<circle cx="594" cy="646" r="6" class="c0"/>
<circle cx="1192" cy="840" r="6" class="c0"/>
<circle cx="758" cy="898" r="6" class="c0"/>
<circle cx="1460" cy="772" r="6" class="c0"/>
<circle cx="1264" cy="650" r="6" class="c0"/>
<circle cx="1434" cy="726" r="6" class="c0"/>
<circle cx="1074" cy="536" r="6" class="c0"/>
<circle cx="534" cy="794" r="6" class="c0"/>
<circle cx="1778" cy="744" r="6" class="c0"/>
<circle cx="1296" cy="708" r="6" class="c0"/>
<circle cx="1192" cy="866" r="6" class="c0"/>
<circle cx="1292" cy="794" r="6" class="c0"/>
<circle cx="656" cy="840" r="6" class="c0"/>
<circle cx="570" cy="746" r="6" class="c0"/>
<circle cx="1408" cy="828" r="6" class="c0"/>
<circle cx="548" cy="706" r="6" class="c0"/>
<circle cx="450" cy="706" r="6" class="c0"/>
<circle cx="1578" cy="694" r="6" class="c0"/>
<circle cx="354" cy="710" r="6" class="c0"/>
<circle cx="1358" cy="650" r="6" class="c0"/>
<circle cx="606" cy="834" r="6" class="c0"/>
<circle cx="550" cy="844" r="6" class="c0"/>
<circle cx="1518" cy="670" r="6" class="c0"/>
<circle cx="1216" cy="682" r="6" class="c0"/>
<circle cx="646" cy="762" r="6" class="c0"/>
<circle cx="1230" cy="600" r="6" class="c0"/>
<circle cx="1498" cy="756" r="6" class="c0"/>
<circle cx="1088" cy="542" r="6" class="c0"/>
<circle cx="1552" cy="734" r="6" class="c0"/>
<circle cx="754" cy="564" r="6" class="c0"/>
<circle cx="1404" cy="726" r="6" class="c0"/>
<circle cx="1248" cy="716" r="6" class="c0"/>
<circle cx="1542" cy="700" r="6" class="c0"/>
<circle cx="616" cy="804" r="6" class="c0"/>
<circle cx="710" cy="880" r="6" class="c0"/>
<circle cx="222" cy="734" r="6" class="c0"/>
<circle cx="740" cy="726" r="6" class="c0"/>
<circle cx="1594" cy="728" r="6" class="c0"/>
<circle cx="1124" cy="884" r="6" class="c0"/>
<circle cx="1360" cy="784" r="6" class="c0"/>
<circle cx="1478" cy="656" r="6" class="c0"/>
<circle cx="1602" cy="768" r="6" class="c0"/>
<circle cx="1092" cy="908" r="6" class="c0"/>
<circle cx="746" cy="602" r="6" class="c0"/>
<circle cx="772" cy="660" r="6" class="c0"/>
<circle cx="1162" cy="890" r="6" class="c0"/>
<circle cx="716" cy="622" r="6" class="c0"/>
<circle cx="238" cy="734" r="6" class="c0"/>
<circle cx="1350" cy="706" r="6" class="c0"/>
<circle cx="1186" cy="778" r="6" class="c0"/>
<circle cx="602" cy="702" r="6" class="c0"/>
<circle cx="696" cy="888" r="6" class="c0"/>
<circle cx="1340" cy="826" r="6" class="c0"/>
<circle cx="422" cy="690" r="6" class="c0"/>
<circle cx="550" cy="822" r="6" class="c0"/>
<circle cx="638" cy="838" r="6" class="c0"/>
<circle cx="1208" cy="872" r="6" class="c0"/>
<circle cx="1348" cy="744" r="6" class="c0"/>
<circle cx="750" cy="906" r="6" class="c0"/>
<circle cx="704" cy="678" r="6" class="c0"/>
<circle cx="1164" cy="554" r="6" class="c0"/>
<circle cx="686" cy="586" r="6" class="c0"/>
<circle cx="808" cy="882" r="6" class="c0"/>
<circle cx="1160" cy="774" r="6" class="c0"/>
<circle cx="138" cy="744" r="6" class="c0"/>
<circle cx="610" cy="756" r="6" class="c0"/>
<circle cx="482" cy="720" r="6" class="c0"/>
<circle cx="768" cy="794" r="6" class="c0"/>
<circle cx="1292" cy="770" r="6" class="c0"/>
<circle cx="1166" cy="706" r="6" class="c0"/>
<circle cx="1352" cy="860" r="6" class="c0"/>
<circle cx="1274" cy="606" r="6" class="c0"/>
<circle cx="1298" cy="620" r="6" class="c0"/>
<circle cx="256" cy="760" r="6" class="c0"/>
<circle cx="1278" cy="888" r="6" class="c0"/>
<circle cx="288" cy="760" r="6" class="c0"/>
<circle cx="340" cy="716" r="6" class="c0"/>
<circle cx="612" cy="864" r="6" class="c0"/>
<circle cx="1226" cy="864" r="6" class="c0"/>
<circle cx="1344" cy="794" r="6" class="c0"/>
<circle cx="1216" cy="824" r="6" class="c0"/>
<circle cx="736" cy="866" r="6" class="c0"/>
<circle cx="526" cy="784" r="6" class="c0"/>
<circle cx="1412" cy="634" r="6" class="c0"/>
<circle cx="700" cy="842" r="6" class="c0"/>
<circle cx="1424" cy="760" r="6" class="c0"/>
<circle cx="718" cy="702" r="6" class="c0"/>
<circle cx="612" cy="734" r="6" class="c0"/>
<circle cx="192" cy="738" r="6" class="c0"/>
<circle cx="1554" cy="782" r="6" class="c0"/>
<circle cx="800" cy="892" r="6" class="c0"/>
<circle cx="522" cy="838" r="6" class="c0"/>
<circle cx="1470" cy="814" r="6" class="c0"/>
<circle cx="1350" cy="612" r="6" class="c0"/>
<circle cx="1656" cy="758" r="6" class="c0"/>
<circle cx="1366" cy="658" r="6" class="c0"/>
<circle cx="462" cy="772" r="6" class="c0"/>
<circle cx="322" cy="776" r="6" class="c0"/>
<circle cx="1242" cy="798" r="6" class="c0"/>
<circle cx="1200" cy="602" r="6" class="c0"/>
<circle cx="1402" cy="658" r="6" class="c0"/>
<circle cx="1258" cy="850" r="6" class="c0"/>
<circle cx="636" cy="744" r="6" class="c0"/>
<circle cx="628" cy="652" r="6" class="c0"/>
<circle cx="1118" cy="906" r="6" class="c0"/>
<circle cx="1372" cy="808" r="6" class="c0"/>
<circle cx="1176" cy="768" r="6" class="c0"/>
<circle cx="1322" cy="602" r="6" class="c0"/>
<circle cx="690" cy="668" r="6" class="c0"/>
<circle cx="776" cy="584" r="6" class="c0"/>
<circle cx="1190" cy="816" r="6" class="c0"/>
<circle cx="808" cy="920" r="6" class="c0"/>
<circle cx="956" cy="534" r="6" class="c0"/>
<circle cx="1284" cy="616" r="6" class="c0"/>
<circle cx="588" cy="686" r="6" class="c0"/>
<circle cx="1632" cy="726" r="6" class="c0"/>
<circle cx="1050" cy="920" r="6" class="c0"/>
</svg>
