<?xml version="1.0" encoding="utf-8"?>
<svg xmlns="http://www.w3.org/2000/svg"
     xmlns:xlink="http://www.w3.org/1999/xlink" width="1920" height="1440" >

            <defs>
            <style type="text/css"><![CDATA[
circle {stroke: none;}
.c0 {fill: #000000;}
]]></style>
            </defs>
<rect x="0" y="0" width="1920" height="1440" fill="white"/>
<circle cx="638" cy="832" r="14" class="c0"/>
<circle cx="1500" cy="784" r="12" class="c0"/>
<circle cx="750" cy="738" r="12" class="c0"/>
<circle cx="774" cy="646" r="12" class="c0"/>
<circle cx="1354" cy="622" r="12" class="c0"/>
<circle cx="1220" cy="792" r="12" class="c0"/>
<circle cx="1118" cy="560" r="12" class="c0"/>
<circle cx="812" cy="582" r="12" class="c0"/>
<circle cx="1194" cy="892" r="12" class="c0"/>
<circle cx="354" cy="722" r="12" class="c0"/>
<circle cx="440" cy="798" r="12" class="c0"/>
<circle cx="1480" cy="796" r="12" class="c0"/>
<circle cx="1134" cy="870" r="12" class="c0"/>
<circle cx="1322" cy="760" r="12" class="c0"/>
<circle cx="1278" cy="772" r="12" class="c0"/>
<circle cx="746" cy="844" r="12" class="c0"/>
<circle cx="632" cy="726" r="12" class="c0"/>
<circle cx="1166" cy="876" r="12" class="c0"/>
<circle cx="684" cy="878" r="12" class="c0"/>
<circle cx="656" cy="862" r="12" class="c0"/>
<circle cx="1234" cy="686" r="12" class="c0"/>
<circle cx="458" cy="714" r="12" class="c0"/>
<circle cx="1540" cy="732" r="12" class="c0"/>
<circle cx="716" cy="644" r="12" class="c0"/>
<circle cx="1562" cy="698" r="12" class="c0"/>
<circle cx="1158" cy="638" r="12" class="c0"/>
<circle cx="1644" cy="732" r="12" class="c0"/>
<circle cx="652" cy="656" r="12" class="c0"/>
<circle cx="690" cy="688" r="12" class="c0"/>
<circle cx="576" cy="780" r="12" class="c0"/>
<circle cx="1368" cy="702" r="12" class="c0"/>
<circle cx="1240" cy="826" r="12" class="c0"/>
<circle cx="1342" cy="672" r="12" class="c0"/>
<circle cx="1302" cy="632" r="12" class="c0"/>
<circle cx="1438" cy="778" r="12" class="c0"/>
<circle cx="370" cy="770" r="12" class="c0"/>
<circle cx="1382" cy="814" r="12" class="c0"/>
<circle cx="1246" cy="666" r="12" class="c0"/>
<circle cx="574" cy="706" r="12" class="c0"/>
<circle cx="290" cy="760" r="12" class="c0"/>
<circle cx="1222" cy="732" r="12" class="c0"/>
<circle cx="702" cy="780" r="12" class="c0"/>
<circle cx="1182" cy="682" r="12" class="c0"/>
<circle cx="588" cy="752" r="12" class="c0"/>
<circle cx="724" cy="610" r="12" class="c0"/>
<circle cx="550" cy="762" r="12" class="c0"/>
<circle cx="1236" cy="642" r="12" class="c0"/>
<circle cx="1176" cy="622" r="12" class="c0"/>
<circle cx="1320" cy="854" r="12" class="c0"/>
<circle cx="1234" cy="612" r="12" class="c0"/>
<circle cx="1194" cy="656" r="12" class="c0"/>
<circle cx="1470" cy="738" r="12" class="c0"/>
<circle cx="750" cy="798" r="12" class="c0"/>
<circle cx="1276" cy="640" r="12" class="c0"/>
<circle cx="660" cy="744" r="12" class="c0"/>
<circle cx="1440" cy="708" r="10" class="c0"/>
<circle cx="788" cy="588" r="10" class="c0"/>
<circle cx="1408" cy="742" r="10" class="c0"/>
<circle cx="330" cy="752" r="10" class="c0"/>
<circle cx="1176" cy="782" r="10" class="c0"/>
<circle cx="672" cy="626" r="10" class="c0"/>
<circle cx="1208" cy="710" r="10" class="c0"/>
<circle cx="1316" cy="692" r="10" class="c0"/>
<circle cx="596" cy="680" r="10" class="c0"/>
<circle cx="518" cy="824" r="10" class="c0"/>
<circle cx="596" cy="720" r="10" class="c0"/>
<circle cx="576" cy="644" r="10" class="c0"/>
<circle cx="1572" cy="740" r="10" class="c0"/>
<circle cx="1268" cy="850" r="10" class="c0"/>
<circle cx="1260" cy="684" r="10" class="c0"/>
<circle cx="454" cy="688" r="10" class="c0"/>
<circle cx="1538" cy="708" r="10" class="c0"/>
<circle cx="416" cy="744" r="10" class="c0"/>
<circle cx="702" cy="744" r="10" class="c0"/>
<circle cx="1064" cy="550" r="10" class="c0"/>
<circle cx="762" cy="860" r="10" class="c0"/>
<circle cx="726" cy="826" r="10" class="c0"/>
<circle cx="1574" cy="766" r="10" class="c0"/>
<circle cx="1486" cy="678" r="10" class="c0"/>
<circle cx="548" cy="690" r="10" class="c0"/>
<circle cx="1414" cy="770" r="10" class="c0"/>
<circle cx="466" cy="756" r="10" class="c0"/>
<circle cx="1306" cy="732" r="10" class="c0"/>
<circle cx="1346" cy="780" r="10" class="c0"/>
<circle cx="1192" cy="808" r="10" class="c0"/>
<circle cx="1324" cy="830" r="10" class="c0"/>
<circle cx="734" cy="782" r="10" class="c0"/>
<circle cx="1146" cy="596" r="10" class="c0"/>
<circle cx="1320" cy="800" r="10" class="c0"/>
<circle cx="1518" cy="686" r="10" class="c0"/>
<circle cx="740" cy="698" r="10" class="c0"/>
<circle cx="1470" cy="774" r="10" class="c0"/>
<circle cx="1250" cy="754" r="10" class="c0"/>
<circle cx="810" cy="882" r="10" class="c0"/>
<circle cx="1372" cy="850" r="10" class="c0"/>
<circle cx="1254" cy="862" r="10" class="c0"/>
<circle cx="1044" cy="922" r="10" class="c0"/>
<circle cx="1242" cy="716" r="10" class="c0"/>
<circle cx="1130" cy="612" r="10" class="c0"/>
<circle cx="1344" cy="842" r="10" class="c0"/>
<circle cx="718" cy="804" r="10" class="c0"/>
<circle cx="490" cy="820" r="10" class="c0"/>
<circle cx="482" cy="682" r="10" class="c0"/>
<circle cx="684" cy="724" r="10" class="c0"/>
<circle cx="1462" cy="706" r="10" class="c0"/>
<circle cx="536" cy="734" r="10" class="c0"/>
<circle cx="646" cy="792" r="10" class="c0"/>
<circle cx="1374" cy="776" r="10" class="c0"/>
<circle cx="1400" cy="710" r="10" class="c0"/>
<circle cx="1278" cy="706" r="10" class="c0"/>
<circle cx="424" cy="716" r="10" class="c0"/>
<circle cx="732" cy="882" r="10" class="c0"/>
<circle cx="1592" cy="756" r="10" class="c0"/>
<circle cx="1254" cy="730" r="10" class="c0"/>
<circle cx="504" cy="692" r="10" class="c0"/>
<circle cx="784" cy="870" r="10" class="c0"/>
<circle cx="1126" cy="892" r="10" class="c0"/>
<circle cx="1376" cy="636" r="10" class="c0"/>
<circle cx="504" cy="750" r="10" class="c0"/>
<circle cx="1452" cy="816" r="10" class="c0"/>
<circle cx="546" cy="828" r="10" class="c0"/>
<circle cx="1206" cy="862" r="10" class="c0"/>
<circle cx="668" cy="790" r="10" class="c0"/>
<circle cx="534" cy="660" r="10" class="c0"/>
<circle cx="378" cy="728" r="10" class="c0"/>
<circle cx="1198" cy="630" r="10" class="c0"/>
<circle cx="524" cy="680" r="10" class="c0"/>
<circle cx="598" cy="820" r="10" class="c0"/>
<circle cx="1340" cy="816" r="10" class="c0"/>
<circle cx="766" cy="602" r="10" class="c0"/>
<circle cx="780" cy="824" r="10" class="c0"/>
<circle cx="444" cy="736" r="10" class="c0"/>
<circle cx="1250" cy="628" r="10" class="c0"/>
<circle cx="752" cy="582" r="10" class="c0"/>
<circle cx="656" cy="818" r="10" class="c0"/>
<circle cx="1684" cy="736" r="10" class="c0"/>
<circle cx="620" cy="618" r="10" class="c0"/>
<circle cx="1526" cy="768" r="10" class="c0"/>
<circle cx="1616" cy="708" r="10" class="c0"/>
<circle cx="1326" cy="628" r="10" class="c0"/>
<circle cx="1176" cy="586" r="10" class="c0"/>
<circle cx="386" cy="702" r="10" class="c0"/>
<circle cx="1440" cy="648" r="10" class="c0"/>
<circle cx="534" cy="810" r="10" class="c0"/>
<circle cx="272" cy="734" r="10" class="c0"/>
<circle cx="1290" cy="796" r="10" class="c0"/>
<circle cx="626" cy="806" r="10" class="c0"/>
<circle cx="1174" cy="724" r="10" class="c0"/>
<circle cx="730" cy="728" r="10" class="c0"/>
<circle cx="872" cy="548" r="10" class="c0"/>
<circle cx="1076" cy="920" r="10" class="c0"/>
<circle cx="1308" cy="672" r="10" class="c0"/>
<circle cx="810" cy="558" r="10" class="c0"/>
<circle cx="260" cy="758" r="10" class="c0"/>
<circle cx="710" cy="870" r="10" class="c0"/>
<circle cx="1410" cy="804" r="10" class="c0"/>
<circle cx="1184" cy="828" r="10" class="c0"/>
<circle cx="838" cy="560" r="10" class="c0"/>
<circle cx="690" cy="638" r="10" class="c0"/>
<circle cx="574" cy="736" r="10" class="c0"/>
<circle cx="686" cy="810" r="10" class="c0"/>
<circle cx="1344" cy="726" r="10" class="c0"/>
<circle cx="756" cy="674" r="10" class="c0"/>
<circle cx="454" cy="768" r="10" class="c0"/>
<circle cx="1134" cy="916" r="10" class="c0"/>
<circle cx="1372" cy="664" r="10" class="c0"/>
<circle cx="202" cy="742" r="10" class="c0"/>
<circle cx="786" cy="848" r="10" class="c0"/>
<circle cx="400" cy="788" r="10" class="c0"/>
<circle cx="1300" cy="710" r="10" class="c0"/>
<circle cx="494" cy="778" r="10" class="c0"/>
<circle cx="1216" cy="584" r="10" class="c0"/>
<circle cx="1158" cy="898" r="8" class="c0"/>
<circle cx="676" cy="828" r="8" class="c0"/>
<circle cx="1364" cy="832" r="8" class="c0"/>
<circle cx="1200" cy="766" r="8" class="c0"/>
<circle cx="500" cy="798" r="8" class="c0"/>
<circle cx="728" cy="678" r="8" class="c0"/>
<circle cx="1288" cy="820" r="8" class="c0"/>
<circle cx="1504" cy="714" r="8" class="c0"/>
<circle cx="1342" cy="748" r="8" class="c0"/>
<circle cx="1258" cy="796" r="8" class="c0"/>
<circle cx="1106" cy="904" r="8" class="c0"/>
<circle cx="1196" cy="784" r="8" class="c0"/>
<circle cx="830" cy="900" r="8" class="c0"/>
<circle cx="562" cy="658" r="8" class="c0"/>
<circle cx="812" cy="904" r="8" class="c0"/>
<circle cx="644" cy="690" r="8" class="c0"/>
<circle cx="692" cy="604" r="8" class="c0"/>
<circle cx="304" cy="744" r="8" class="c0"/>
<circle cx="436" cy="754" r="8" class="c0"/>
<circle cx="1176" cy="910" r="8" class="c0"/>
<circle cx="688" cy="856" r="8" class="c0"/>
<circle cx="580" cy="802" r="8" class="c0"/>
<circle cx="1132" cy="576" r="8" class="c0"/>
<circle cx="758" cy="890" r="8" class="c0"/>
<circle cx="472" cy="778" r="8" class="c0"/>
<circle cx="1086" cy="546" r="8" class="c0"/>
<circle cx="1436" cy="736" r="8" class="c0"/>
<circle cx="518" cy="788" r="8" class="c0"/>
<circle cx="1414" cy="688" r="8" class="c0"/>
<circle cx="1288" cy="854" r="8" class="c0"/>
<circle cx="508" cy="720" r="8" class="c0"/>
<circle cx="1038" cy="544" r="8" class="c0"/>
<circle cx="1132" cy="634" r="8" class="c0"/>
<circle cx="426" cy="774" r="8" class="c0"/>
<circle cx="764" cy="622" r="8" class="c0"/>
<circle cx="682" cy="592" r="8" class="c0"/>
<circle cx="1422" cy="834" r="8" class="c0"/>
<circle cx="1192" cy="568" r="8" class="c0"/>
<circle cx="1510" cy="736" r="8" class="c0"/>
<circle cx="590" cy="840" r="8" class="c0"/>
<circle cx="632" cy="640" r="8" class="c0"/>
<circle cx="760" cy="712" r="8" class="c0"/>
<circle cx="1402" cy="652" r="8" class="c0"/>
<circle cx="596" cy="640" r="8" class="c0"/>
<circle cx="620" cy="698" r="8" class="c0"/>
<circle cx="1270" cy="812" r="8" class="c0"/>
<circle cx="890" cy="922" r="8" class="c0"/>
<circle cx="1402" cy="842" r="8" class="c0"/>
<circle cx="1222" cy="842" r="8" class="c0"/>
<circle cx="348" cy="772" r="8" class="c0"/>
<circle cx="1166" cy="836" r="8" class="c0"/>
<circle cx="612" cy="772" r="8" class="c0"/>
<circle cx="1704" cy="734" r="8" class="c0"/>
<circle cx="1498" cy="762" r="8" class="c0"/>
<circle cx="1454" cy="790" r="8" class="c0"/>
<circle cx="1668" cy="720" r="8" class="c0"/>
<circle cx="1552" cy="766" r="8" class="c0"/>
<circle cx="664" cy="720" r="8" class="c0"/>
<circle cx="1426" cy="670" r="8" class="c0"/>
<circle cx="702" cy="704" r="8" class="c0"/>
<circle cx="676" cy="652" r="8" class="c0"/>
<circle cx="648" cy="632" r="8" class="c0"/>
<circle cx="234" cy="738" r="8" class="c0"/>
<circle cx="1300" cy="610" r="8" class="c0"/>
<circle cx="1172" cy="562" r="8" class="c0"/>
<circle cx="1272" cy="748" r="8" class="c0"/>
<circle cx="556" cy="722" r="8" class="c0"/>
<circle cx="1472" cy="666" r="8" class="c0"/>
<circle cx="1352" cy="650" r="8" class="c0"/>
<circle cx="1668" cy="748" r="8" class="c0"/>
<circle cx="1262" cy="602" r="8" class="c0"/>
<circle cx="476" cy="724" r="8" class="c0"/>
<circle cx="1210" cy="672" r="8" class="c0"/>
<circle cx="1284" cy="618" r="8" class="c0"/>
<circle cx="460" cy="812" r="8" class="c0"/>
<circle cx="1240" cy="880" r="8" class="c0"/>
<circle cx="1394" cy="684" r="8" class="c0"/>
<circle cx="146" cy="744" r="8" class="c0"/>
<circle cx="1304" cy="868" r="8" class="c0"/>
<circle cx="1382" cy="736" r="8" class="c0"/>
<circle cx="1178" cy="704" r="8" class="c0"/>
<circle cx="174" cy="746" r="8" class="c0"/>
<circle cx="1196" cy="596" r="8" class="c0"/>
<circle cx="792" cy="628" r="8" class="c0"/>
<circle cx="774" cy="576" r="8" class="c0"/>
<circle cx="1190" cy="746" r="8" class="c0"/>
<circle cx="696" cy="662" r="8" class="c0"/>
<circle cx="1596" cy="724" r="8" class="c0"/>
<circle cx="382" cy="750" r="8" class="c0"/>
<circle cx="1146" cy="832" r="8" class="c0"/>
<circle cx="706" cy="622" r="8" class="c0"/>
<circle cx="1624" cy="756" r="8" class="c0"/>
<circle cx="428" cy="686" r="8" class="c0"/>
<circle cx="1536" cy="788" r="8" class="c0"/>
<circle cx="1366" cy="748" r="8" class="c0"/>
<circle cx="1154" cy="576" r="8" class="c0"/>
<circle cx="1758" cy="740" r="8" class="c0"/>
<circle cx="402" cy="724" r="8" class="c0"/>
<circle cx="634" cy="750" r="8" class="c0"/>
<circle cx="1160" cy="812" r="8" class="c0"/>
<circle cx="680" cy="670" r="8" class="c0"/>
<circle cx="710" cy="592" r="8" class="c0"/>
<circle cx="554" cy="786" r="8" class="c0"/>
<circle cx="870" cy="922" r="8" class="c0"/>
<circle cx="1398" cy="760" r="8" class="c0"/>
<circle cx="1172" cy="760" r="8" class="c0"/>
<circle cx="1494" cy="696" r="8" class="c0"/>
<circle cx="1324" cy="716" r="8" class="c0"/>
<circle cx="658" cy="772" r="8" class="c0"/>
<circle cx="1332" cy="738" r="8" class="c0"/>
<circle cx="1262" cy="828" r="8" class="c0"/>
<circle cx="1150" cy="854" r="8" class="c0"/>
<circle cx="608" cy="858" r="8" class="c0"/>
<circle cx="1454" cy="676" r="8" class="c0"/>
<circle cx="532" cy="702" r="8" class="c0"/>
<circle cx="660" cy="700" r="8" class="c0"/>
<circle cx="1110" cy="596" r="8" class="c0"/>
<circle cx="338" cy="734" r="8" class="c0"/>
<circle cx="492" cy="708" r="8" class="c0"/>
<circle cx="1738" cy="742" r="8" class="c0"/>
<circle cx="642" cy="608" r="8" class="c0"/>
<circle cx="1578" cy="712" r="8" class="c0"/>
<circle cx="712" cy="762" r="8" class="c0"/>
<circle cx="1392" cy="786" r="8" class="c0"/>
<circle cx="318" cy="724" r="8" class="c0"/>
<circle cx="750" cy="644" r="8" class="c0"/>
<circle cx="614" cy="738" r="8" class="c0"/>
<circle cx="1286" cy="880" r="8" class="c0"/>
<circle cx="734" cy="760" r="8" class="c0"/>
<circle cx="1294" cy="752" r="8" class="c0"/>
<circle cx="500" cy="666" r="8" class="c0"/>
<circle cx="570" cy="842" r="8" class="c0"/>
<circle cx="1158" cy="664" r="8" class="c0"/>
<circle cx="222" cy="752" r="8" class="c0"/>
<circle cx="1092" cy="566" r="8" class="c0"/>
<circle cx="1218" cy="652" r="8" class="c0"/>
<circle cx="600" cy="800" r="8" class="c0"/>
<circle cx="1196" cy="698" r="8" class="c0"/>
<circle cx="736" cy="656" r="8" class="c0"/>
<circle cx="1342" cy="706" r="8" class="c0"/>
<circle cx="1428" cy="758" r="8" class="c0"/>
<circle cx="1446" cy="748" r="8" class="c0"/>
<circle cx="1400" cy="632" r="8" class="c0"/>
<circle cx="682" cy="748" r="8" class="c0"/>
<circle cx="1300" cy="654" r="8" class="c0"/>
<circle cx="584" cy="664" r="8" class="c0"/>
<circle cx="1286" cy="674" r="8" class="c0"/>
<circle cx="462" cy="792" r="8" class="c0"/>
<circle cx="634" cy="672" r="8" class="c0"/>
<circle cx="732" cy="578" r="8" class="c0"/>
<circle cx="780" cy="892" r="8" class="c0"/>
<circle cx="754" cy="772" r="8" class="c0"/>
<circle cx="1284" cy="738" r="8" class="c0"/>
<circle cx="1494" cy="728" r="8" class="c0"/>
<circle cx="1308" cy="818" r="8" class="c0"/>
<circle cx="1258" cy="892" r="8" class="c0"/>
<circle cx="1242" cy="776" r="8" class="c0"/>
<circle cx="726" cy="858" r="8" class="c0"/>
<circle cx="1184" cy="862" r="8" class="c0"/>
<circle cx="1418" cy="638" r="8" class="c0"/>
<circle cx="548" cy="642" r="8" class="c0"/>
<circle cx="678" cy="772" r="8" class="c0"/>
<circle cx="1432" cy="824" r="8" class="c0"/>
<circle cx="1614" cy="732" r="8" class="c0"/>
<circle cx="634" cy="774" r="8" class="c0"/>
<circle cx="852" cy="912" r="8" class="c0"/>
<circle cx="1338" cy="640" r="8" class="c0"/>
<circle cx="1206" cy="824" r="8" class="c0"/>
<circle cx="1224" cy="870" r="8" class="c0"/>
<circle cx="710" cy="726" r="8" class="c0"/>
<circle cx="306" cy="772" r="8" class="c0"/>
<circle cx="606" cy="630" r="8" class="c0"/>
<circle cx="708" cy="836" r="8" class="c0"/>
<circle cx="742" cy="866" r="8" class="c0"/>
<circle cx="802" cy="602" r="8" class="c0"/>
<circle cx="550" cy="670" r="8" class="c0"/>
<circle cx="1302" cy="784" r="8" class="c0"/>
<circle cx="758" cy="818" r="8" class="c0"/>
<circle cx="516" cy="736" r="8" class="c0"/>
<circle cx="1238" cy="586" r="8" class="c0"/>
<circle cx="632" cy="860" r="8" class="c0"/>
<circle cx="404" cy="758" r="8" class="c0"/>
<circle cx="748" cy="610" r="8" class="c0"/>
<circle cx="1222" cy="894" r="8" class="c0"/>
<circle cx="1356" cy="800" r="8" class="c0"/>
<circle cx="612" cy="838" r="8" class="c0"/>
<circle cx="1208" cy="606" r="8" class="c0"/>
<circle cx="1418" cy="722" r="8" class="c0"/>
<circle cx="1276" cy="868" r="8" class="c0"/>
<circle cx="350" cy="748" r="8" class="c0"/>
<circle cx="568" cy="818" r="8" class="c0"/>
<circle cx="1460" cy="654" r="8" class="c0"/>
<circle cx="1354" cy="858" r="8" class="c0"/>
<circle cx="1506" cy="670" r="8" class="c0"/>
<circle cx="1564" cy="722" r="8" class="c0"/>
<circle cx="662" cy="600" r="8" class="c0"/>
<circle cx="1114" cy="920" r="8" class="c0"/>
<circle cx="724" cy="708" r="8" class="c0"/>
<circle cx="406" cy="700" r="8" class="c0"/>
<circle cx="328" cy="772" r="8" class="c0"/>
<circle cx="1018" cy="928" r="8" class="c0"/>
<circle cx="618" cy="680" r="8" class="c0"/>
<circle cx="1488" cy="748" r="8" class="c0"/>
<circle cx="738" cy="814" r="8" class="c0"/>
<circle cx="646" cy="762" r="8" class="c0"/>
<circle cx="566" cy="678" r="8" class="c0"/>
<circle cx="1018" cy="540" r="8" class="c0"/>
<circle cx="698" cy="826" r="8" class="c0"/>
<circle cx="706" cy="890" r="8" class="c0"/>
<circle cx="1324" cy="654" r="8" class="c0"/>
<circle cx="606" cy="656" r="8" class="c0"/>
<circle cx="742" cy="898" r="8" class="c0"/>
<circle cx="1146" cy="560" r="8" class="c0"/>
<circle cx="1166" cy="604" r="8" class="c0"/>
<circle cx="1436" cy="682" r="8" class="c0"/>
<circle cx="1164" cy="744" r="8" class="c0"/>
<circle cx="1194" cy="728" r="8" class="c0"/>
<circle cx="646" cy="710" r="8" class="c0"/>
<circle cx="1300" cy="840" r="8" class="c0"/>
<circle cx="740" cy="634" r="8" class="c0"/>
<circle cx="1218" cy="762" r="8" class="c0"/>
<circle cx="526" cy="770" r="8" class="c0"/>
<circle cx="1458" cy="760" r="8" class="c0"/>
<circle cx="1592" cy="696" r="8" class="c0"/>
<circle cx="1130" cy="848" r="8" class="c0"/>
<circle cx="366" cy="740" r="8" class="c0"/>
<circle cx="1484" cy="712" r="8" class="c0"/>
<circle cx="664" cy="680" r="8" class="c0"/>
<circle cx="1096" cy="894" r="8" class="c0"/>
<circle cx="1274" cy="662" r="8" class="c0"/>
<circle cx="1212" cy="882" r="8" class="c0"/>
<circle cx="1726" cy="732" r="8" class="c0"/>
<circle cx="1352" cy="690" r="8" class="c0"/>
<circle cx="904" cy="542" r="8" class="c0"/>
<circle cx="668" cy="846" r="8" class="c0"/>
<circle cx="586" cy="628" r="8" class="c0"/>
<circle cx="768" cy="808" r="8" class="c0"/>
<circle cx="1434" cy="802" r="8" class="c0"/>
<circle cx="1354" cy="762" r="8" class="c0"/>
<circle cx="1372" cy="726" r="8" class="c0"/>
<circle cx="496" cy="730" r="8" class="c0"/>
<circle cx="1286" cy="596" r="8" class="c0"/>
<circle cx="1540" cy="680" r="8" class="c0"/>
<circle cx="1216" cy="814" r="8" class="c0"/>
<circle cx="784" cy="610" r="8" class="c0"/>
<circle cx="438" cy="700" r="8" class="c0"/>
<circle cx="1296" cy="690" r="8" class="c0"/>
<circle cx="602" cy="700" r="8" class="c0"/>
<circle cx="392" cy="768" r="8" class="c0"/>
<circle cx="482" cy="802" r="8" class="c0"/>
<circle cx="1218" cy="624" r="8" class="c0"/>
<circle cx="764" cy="566" r="8" class="c0"/>
<circle cx="1240" cy="802" r="8" class="c0"/>
<circle cx="822" cy="916" r="8" class="c0"/>
<circle cx="472" cy="700" r="8" class="c0"/>
<circle cx="792" cy="906" r="8" class="c0"/>
<circle cx="1396" cy="728" r="6" class="c0"/>
<circle cx="544" cy="796" r="6" class="c0"/>
<circle cx="252" cy="730" r="6" class="c0"/>
<circle cx="418" cy="790" r="6" class="c0"/>
<circle cx="1212" cy="690" r="6" class="c0"/>
<circle cx="1404" cy="826" r="6" class="c0"/>
<circle cx="526" cy="748" r="6" class="c0"/>
<circle cx="766" cy="690" r="6" class="c0"/>
<circle cx="1172" cy="656" r="6" class="c0"/>
<circle cx="1800" cy="742" r="6" class="c0"/>
<circle cx="554" cy="810" r="6" class="c0"/>
<circle cx="936" cy="540" r="6" class="c0"/>
<circle cx="1114" cy="872" r="6" class="c0"/>
<circle cx="1560" cy="780" r="6" class="c0"/>
<circle cx="1258" cy="586" r="6" class="c0"/>
<circle cx="534" cy="840" r="6" class="c0"/>
<circle cx="298" cy="722" r="6" class="c0"/>
<circle cx="1190" cy="846" r="6" class="c0"/>
<circle cx="1458" cy="724" r="6" class="c0"/>
<circle cx="1320" cy="606" r="6" class="c0"/>
<circle cx="1518" cy="800" r="6" class="c0"/>
<circle cx="1394" cy="666" r="6" class="c0"/>
<circle cx="1094" cy="926" r="6" class="c0"/>
<circle cx="642" cy="874" r="6" class="c0"/>
<circle cx="1548" cy="750" r="6" class="c0"/>
<circle cx="1224" cy="702" r="6" class="c0"/>
<circle cx="480" cy="742" r="6" class="c0"/>
<circle cx="994" cy="538" r="6" class="c0"/>
<circle cx="710" cy="676" r="6" class="c0"/>
<circle cx="1422" cy="790" r="6" class="c0"/>
<circle cx="374" cy="794" r="6" class="c0"/>
<circle cx="290" cy="730" r="6" class="c0"/>
<circle cx="1370" cy="682" r="6" class="c0"/>
<circle cx="1714" cy="746" r="6" class="c0"/>
<circle cx="1162" cy="708" r="6" class="c0"/>
<circle cx="410" cy="802" r="6" class="c0"/>
<circle cx="598" cy="780" r="6" class="c0"/>
<circle cx="662" cy="640" r="6" class="c0"/>
<circle cx="1522" cy="750" r="6" class="c0"/>
<circle cx="782" cy="560" r="6" class="c0"/>
<circle cx="550" cy="846" r="6" class="c0"/>
<circle cx="1776" cy="740" r="6" class="c0"/>
<circle cx="1610" cy="766" r="6" class="c0"/>
<circle cx="616" cy="792" r="6" class="c0"/>
<circle cx="1206" cy="742" r="6" class="c0"/>
<circle cx="834" cy="580" r="6" class="c0"/>
<circle cx="1276" cy="724" r="6" class="c0"/>
<circle cx="1144" cy="890" r="6" class="c0"/>
<circle cx="1410" cy="668" r="6" class="c0"/>
<circle cx="1628" cy="722" r="6" class="c0"/>
<circle cx="396" cy="742" r="6" class="c0"/>
<circle cx="1334" cy="690" r="6" class="c0"/>
<circle cx="1374" cy="796" r="6" class="c0"/>
<circle cx="502" cy="832" r="6" class="c0"/>
<circle cx="1210" cy="776" r="6" class="c0"/>
<circle cx="620" cy="758" r="6" class="c0"/>
<circle cx="328" cy="714" r="6" class="c0"/>
<circle cx="358" cy="784" r="6" class="c0"/>
<circle cx="1172" cy="802" r="6" class="c0"/>
<circle cx="1336" cy="866" r="6" class="c0"/>
<circle cx="540" cy="778" r="6" class="c0"/>
<circle cx="518" cy="710" r="6" class="c0"/>
<circle cx="1108" cy="576" r="6" class="c0"/>
<circle cx="624" cy="658" r="6" class="c0"/>
<circle cx="798" cy="860" r="6" class="c0"/>
<circle cx="1256" cy="706" r="6" class="c0"/>
<circle cx="570" cy="760" r="6" class="c0"/>
<circle cx="1100" cy="584" r="6" class="c0"/>
<circle cx="618" cy="714" r="6" class="c0"/>
<circle cx="1260" cy="654" r="6" class="c0"/>
<circle cx="720" cy="746" r="6" class="c0"/>
<circle cx="1520" cy="724" r="6" class="c0"/>
<circle cx="1360" cy="816" r="6" class="c0"/>
<circle cx="744" cy="718" r="6" class="c0"/>
<circle cx="518" cy="652" r="6" class="c0"/>
<circle cx="1386" cy="654" r="6" class="c0"/>
<circle cx="1174" cy="894" r="6" class="c0"/>
<circle cx="1382" cy="714" r="6" class="c0"/>
<circle cx="716" cy="688" r="6" class="c0"/>
<circle cx="1264" cy="618" r="6" class="c0"/>
<circle cx="682" cy="706" r="6" class="c0"/>
<circle cx="768" cy="902" r="6" class="c0"/>
<circle cx="738" cy="596" r="6" class="c0"/>
<circle cx="1636" cy="714" r="6" class="c0"/>
<circle cx="1418" cy="704" r="6" class="c0"/>
<circle cx="542" cy="714" r="6" class="c0"/>
<circle cx="1380" cy="758" r="6" class="c0"/>
<circle cx="1242" cy="846" r="6" class="c0"/>
<circle cx="770" cy="744" r="6" class="c0"/>
<circle cx="1176" cy="848" r="6" class="c0"/>
<circle cx="368" cy="710" r="6" class="c0"/>
<circle cx="1326" cy="782" r="6" class="c0"/>
<circle cx="796" cy="568" r="6" class="c0"/>
<circle cx="686" cy="838" r="6" class="c0"/>
<circle cx="1644" cy="756" r="6" class="c0"/>
<circle cx="1464" cy="688" r="6" class="c0"/>
<circle cx="820" cy="600" r="6" class="c0"/>
<circle cx="1478" cy="758" r="6" class="c0"/>
<circle cx="804" cy="618" r="6" class="c0"/>
<circle cx="1514" cy="704" r="6" class="c0"/>
<circle cx="584" cy="856" r="6" class="c0"/>
<circle cx="914" cy="930" r="6" class="c0"/>
<circle cx="1088" cy="908" r="6" class="c0"/>
<circle cx="1280" cy="834" r="6" class="c0"/>
<circle cx="1076" cy="562" r="6" class="c0"/>
<circle cx="1060" cy="930" r="6" class="c0"/>
<circle cx="426" cy="810" r="6" class="c0"/>
<circle cx="564" cy="798" r="6" class="c0"/>
<circle cx="472" cy="822" r="6" class="c0"/>
<circle cx="1160" cy="916" r="6" class="c0"/>
<circle cx="1382" cy="836" r="6" class="c0"/>
<circle cx="124" cy="744" r="6" class="c0"/>
<circle cx="1178" cy="642" r="6" class="c0"/>
<circle cx="1478" cy="694" r="6" class="c0"/>
<circle cx="770" cy="724" r="6" class="c0"/>
<circle cx="1160" cy="772" r="6" class="c0"/>
<circle cx="1164" cy="692" r="6" class="c0"/>
<circle cx="858" cy="562" r="6" class="c0"/>
<circle cx="1240" cy="740" r="6" class="c0"/>
<circle cx="468" cy="672" r="6" class="c0"/>
<circle cx="1152" cy="614" r="6" class="c0"/>
<circle cx="668" cy="762" r="6" class="c0"/>
<circle cx="1442" cy="666" r="6" class="c0"/>
<circle cx="1144" cy="652" r="6" class="c0"/>
<circle cx="238" cy="756" r="6" class="c0"/>
<circle cx="920" cy="540" r="6" class="c0"/>
<circle cx="556" cy="740" r="6" class="c0"/>
<circle cx="484" cy="664" r="6" class="c0"/>
<circle cx="1118" cy="858" r="6" class="c0"/>
<circle cx="890" cy="550" r="6" class="c0"/>
<circle cx="508" cy="768" r="6" class="c0"/>
<circle cx="692" cy="764" r="6" class="c0"/>
<circle cx="1144" cy="624" r="6" class="c0"/>
<circle cx="1304" cy="768" r="6" class="c0"/>
<circle cx="1420" cy="654" r="6" class="c0"/>
<circle cx="762" cy="754" r="6" class="c0"/>
<circle cx="1266" cy="878" r="6" class="c0"/>
<circle cx="486" cy="758" r="6" class="c0"/>
<circle cx="718" cy="666" r="6" class="c0"/>
<circle cx="524" cy="722" r="6" class="c0"/>
<circle cx="1210" cy="904" r="6" class="c0"/>
<circle cx="616" cy="644" r="6" class="c0"/>
<circle cx="466" cy="736" r="6" class="c0"/>
<circle cx="1472" cy="814" r="6" class="c0"/>
<circle cx="218" cy="734" r="6" class="c0"/>
<circle cx="1204" cy="844" r="6" class="c0"/>
<circle cx="1106" cy="546" r="6" class="c0"/>
<circle cx="1232" cy="750" r="6" class="c0"/>
<circle cx="1122" cy="586" r="6" class="c0"/>
<circle cx="338" cy="782" r="6" class="c0"/>
<circle cx="698" cy="582" r="6" class="c0"/>
<circle cx="1498" cy="804" r="6" class="c0"/>
<circle cx="1488" cy="658" r="6" class="c0"/>
<circle cx="1226" cy="668" r="6" class="c0"/>
<circle cx="1234" cy="856" r="6" class="c0"/>
<circle cx="1238" cy="898" r="6" class="c0"/>
<circle cx="1336" cy="612" r="6" class="c0"/>
<circle cx="1252" cy="812" r="6" class="c0"/>
<circle cx="1338" cy="798" r="6" class="c0"/>
<circle cx="1508" cy="752" r="6" class="c0"/>
<circle cx="1264" cy="716" r="6" class="c0"/>
<circle cx="246" cy="748" r="6" class="c0"/>
<circle cx="624" cy="784" r="6" class="c0"/>
<circle cx="1258" cy="774" r="6" class="c0"/>
<circle cx="764" cy="784" r="6" class="c0"/>
<circle cx="852" cy="548" r="6" class="c0"/>
<circle cx="1602" cy="742" r="6" class="c0"/>
<circle cx="618" cy="822" r="6" class="c0"/>
<circle cx="762" cy="834" r="6" class="c0"/>
<circle cx="622" cy="850" r="6" class="c0"/>
<circle cx="722" cy="896" r="6" class="c0"/>
<circle cx="688" cy="792" r="6" class="c0"/>
<circle cx="1694" cy="750" r="6" class="c0"/>
<circle cx="656" cy="616" r="6" class="c0"/>
<circle cx="1106" cy="884" r="6" class="c0"/>
<circle cx="1652" cy="714" r="6" class="c0"/>
<circle cx="1428" cy="696" r="6" class="c0"/>
<circle cx="1168" cy="856" r="6" class="c0"/>
<circle cx="514" cy="806" r="6" class="c0"/>
<circle cx="1186" cy="606" r="6" class="c0"/>
<circle cx="1450" cy="694" r="6" class="c0"/>
<circle cx="698" cy="846" r="6" class="c0"/>
<circle cx="578" cy="828" r="6" class="c0"/>
<circle cx="1274" cy="890" r="6" class="c0"/>
<circle cx="716" cy="576" r="6" class="c0"/>
<circle cx="1248" cy="698" r="6" class="c0"/>
<circle cx="382" cy="786" r="6" class="c0"/>
<circle cx="316" cy="762" r="6" class="c0"/>
<circle cx="676" cy="608" r="6" class="c0"/>
<circle cx="768" cy="878" r="6" class="c0"/>
<circle cx="664" cy="880" r="6" class="c0"/>
<circle cx="1520" cy="786" r="6" class="c0"/>
<circle cx="1356" cy="738" r="6" class="c0"/>
<circle cx="1048" cy="558" r="6" class="c0"/>
<circle cx="700" cy="800" r="6" class="c0"/>
<circle cx="1562" cy="754" r="6" class="c0"/>
<circle cx="1164" cy="794" r="6" class="c0"/>
</svg>
