<?xml version="1.0" encoding="utf-8"?>
<svg xmlns="http://www.w3.org/2000/svg"
     xmlns:xlink="http://www.w3.org/1999/xlink" width="1920" height="1440" >

            <defs>
            <style type="text/css"><![CDATA[
circle {stroke: none;}
.c0 {fill: #000000;}
]]></style>
            </defs>
<rect x="0" y="0" width="1920" height="1440" fill="white"/>
<circle cx="1074" cy="890" r="14" class="c0"/>
<circle cx="990" cy="668" r="12" class="c0"/>
<circle cx="1048" cy="842" r="12" class="c0"/>
<circle cx="1062" cy="926" r="12" class="c0"/>
<circle cx="954" cy="760" r="12" class="c0"/>
<circle cx="1124" cy="964" r="12" class="c0"/>
<circle cx="862" cy="580" r="12" class="c0"/>
<circle cx="1264" cy="790" r="12" class="c0"/>
<circle cx="962" cy="512" r="12" class="c0"/>
<circle cx="1078" cy="778" r="12" class="c0"/>
<circle cx="1202" cy="612" r="12" class="c0"/>
<circle cx="1370" cy="662" r="12" class="c0"/>
<circle cx="1156" cy="516" r="12" class="c0"/>
<circle cx="1302" cy="726" r="12" class="c0"/>
<circle cx="1006" cy="888" r="12" class="c0"/>
<circle cx="1046" cy="668" r="12" class="c0"/>
<circle cx="1098" cy="638" r="12" class="c0"/>
<circle cx="1336" cy="816" r="12" class="c0"/>
<circle cx="1120" cy="916" r="12" class="c0"/>
<circle cx="966" cy="734" r="12" class="c0"/>
<circle cx="1168" cy="820" r="12" class="c0"/>
<circle cx="1266" cy="726" r="12" class="c0"/>
<circle cx="1298" cy="832" r="12" class="c0"/>
<circle cx="1236" cy="794" r="12" class="c0"/>
<circle cx="908" cy="596" r="12" class="c0"/>
<circle cx="1314" cy="620" r="12" class="c0"/>
<circle cx="1028" cy="860" r="12" class="c0"/>
<circle cx="1186" cy="586" r="12" class="c0"/>
<circle cx="1132" cy="444" r="12" class="c0"/>
<circle cx="1338" cy="596" r="12" class="c0"/>
<circle cx="1224" cy="816" r="12" class="c0"/>
<circle cx="1282" cy="754" r="12" class="c0"/>
<circle cx="964" cy="618" r="12" class="c0"/>
<circle cx="1212" cy="880" r="12" class="c0"/>
<circle cx="1094" cy="876" r="12" class="c0"/>
<circle cx="848" cy="640" r="12" class="c0"/>
<circle cx="1140" cy="784" r="12" class="c0"/>
<circle cx="844" cy="822" r="10" class="c0"/>
<circle cx="1258" cy="550" r="10" class="c0"/>
<circle cx="1052" cy="572" r="10" class="c0"/>
<circle cx="1090" cy="728" r="10" class="c0"/>
<circle cx="874" cy="638" r="10" class="c0"/>
<circle cx="906" cy="834" r="10" class="c0"/>
<circle cx="1046" cy="638" r="10" class="c0"/>
<circle cx="1160" cy="574" r="10" class="c0"/>
<circle cx="1290" cy="566" r="10" class="c0"/>
<circle cx="1242" cy="690" r="10" class="c0"/>
<circle cx="1306" cy="654" r="10" class="c0"/>
<circle cx="1162" cy="966" r="10" class="c0"/>
<circle cx="980" cy="876" r="10" class="c0"/>
<circle cx="1162" cy="866" r="10" class="c0"/>
<circle cx="1104" cy="770" r="10" class="c0"/>
<circle cx="1338" cy="692" r="10" class="c0"/>
<circle cx="1292" cy="804" r="10" class="c0"/>
<circle cx="1018" cy="536" r="10" class="c0"/>
<circle cx="1016" cy="562" r="10" class="c0"/>
<circle cx="1182" cy="770" r="10" class="c0"/>
<circle cx="832" cy="778" r="10" class="c0"/>
<circle cx="1272" cy="588" r="10" class="c0"/>
<circle cx="1302" cy="676" r="10" class="c0"/>
<circle cx="1010" cy="920" r="10" class="c0"/>
<circle cx="1232" cy="894" r="10" class="c0"/>
<circle cx="832" cy="604" r="10" class="c0"/>
<circle cx="1026" cy="726" r="10" class="c0"/>
<circle cx="1082" cy="656" r="10" class="c0"/>
<circle cx="936" cy="532" r="10" class="c0"/>
<circle cx="1212" cy="718" r="10" class="c0"/>
<circle cx="1214" cy="758" r="10" class="c0"/>
<circle cx="1112" cy="472" r="10" class="c0"/>
<circle cx="962" cy="824" r="10" class="c0"/>
<circle cx="1278" cy="638" r="10" class="c0"/>
<circle cx="968" cy="932" r="10" class="c0"/>
<circle cx="976" cy="578" r="10" class="c0"/>
<circle cx="1006" cy="646" r="10" class="c0"/>
<circle cx="1072" cy="554" r="10" class="c0"/>
<circle cx="1172" cy="740" r="10" class="c0"/>
<circle cx="1146" cy="846" r="10" class="c0"/>
<circle cx="1072" cy="476" r="10" class="c0"/>
<circle cx="922" cy="516" r="10" class="c0"/>
<circle cx="1170" cy="698" r="10" class="c0"/>
<circle cx="1158" cy="938" r="10" class="c0"/>
<circle cx="1278" cy="700" r="10" class="c0"/>
<circle cx="1344" cy="726" r="10" class="c0"/>
<circle cx="960" cy="902" r="10" class="c0"/>
<circle cx="924" cy="900" r="10" class="c0"/>
<circle cx="1164" cy="538" r="10" class="c0"/>
<circle cx="1020" cy="748" r="10" class="c0"/>
<circle cx="1182" cy="560" r="10" class="c0"/>
<circle cx="870" cy="798" r="10" class="c0"/>
<circle cx="1058" cy="738" r="10" class="c0"/>
<circle cx="838" cy="852" r="10" class="c0"/>
<circle cx="1136" cy="638" r="10" class="c0"/>
<circle cx="1068" cy="818" r="10" class="c0"/>
<circle cx="1256" cy="912" r="10" class="c0"/>
<circle cx="1124" cy="612" r="10" class="c0"/>
<circle cx="978" cy="688" r="10" class="c0"/>
<circle cx="1212" cy="678" r="10" class="c0"/>
<circle cx="982" cy="812" r="10" class="c0"/>
<circle cx="1228" cy="856" r="10" class="c0"/>
<circle cx="1208" cy="648" r="10" class="c0"/>
<circle cx="1054" cy="764" r="10" class="c0"/>
<circle cx="888" cy="704" r="10" class="c0"/>
<circle cx="942" cy="488" r="10" class="c0"/>
<circle cx="904" cy="666" r="10" class="c0"/>
<circle cx="854" cy="870" r="10" class="c0"/>
<circle cx="1050" cy="488" r="10" class="c0"/>
<circle cx="1038" cy="444" r="10" class="c0"/>
<circle cx="1006" cy="794" r="10" class="c0"/>
<circle cx="1112" cy="848" r="10" class="c0"/>
<circle cx="1122" cy="660" r="10" class="c0"/>
<circle cx="1066" cy="616" r="10" class="c0"/>
<circle cx="1224" cy="510" r="10" class="c0"/>
<circle cx="1266" cy="524" r="10" class="c0"/>
<circle cx="1044" cy="552" r="10" class="c0"/>
<circle cx="1182" cy="500" r="10" class="c0"/>
<circle cx="972" cy="486" r="10" class="c0"/>
<circle cx="1148" cy="682" r="10" class="c0"/>
<circle cx="1178" cy="678" r="10" class="c0"/>
<circle cx="882" cy="848" r="10" class="c0"/>
<circle cx="856" cy="682" r="10" class="c0"/>
<circle cx="1246" cy="644" r="10" class="c0"/>
<circle cx="1070" cy="714" r="10" class="c0"/>
<circle cx="1198" cy="782" r="10" class="c0"/>
<circle cx="1316" cy="864" r="10" class="c0"/>
<circle cx="884" cy="824" r="10" class="c0"/>
<circle cx="914" cy="760" r="10" class="c0"/>
<circle cx="1212" cy="530" r="10" class="c0"/>
<circle cx="1246" cy="846" r="10" class="c0"/>
<circle cx="1052" cy="786" r="10" class="c0"/>
<circle cx="1302" cy="774" r="10" class="c0"/>
<circle cx="1316" cy="762" r="10" class="c0"/>
<circle cx="868" cy="694" r="10" class="c0"/>
<circle cx="874" cy="724" r="10" class="c0"/>
<circle cx="1194" cy="520" r="10" class="c0"/>
<circle cx="990" cy="528" r="10" class="c0"/>
<circle cx="1174" cy="922" r="10" class="c0"/>
<circle cx="1036" cy="886" r="10" class="c0"/>
<circle cx="864" cy="762" r="10" class="c0"/>
<circle cx="1036" cy="588" r="10" class="c0"/>
<circle cx="1072" cy="452" r="10" class="c0"/>
<circle cx="1106" cy="582" r="10" class="c0"/>
<circle cx="1080" cy="578" r="10" class="c0"/>
<circle cx="1124" cy="882" r="10" class="c0"/>
<circle cx="1200" cy="898" r="10" class="c0"/>
<circle cx="952" cy="874" r="10" class="c0"/>
<circle cx="898" cy="532" r="10" class="c0"/>
<circle cx="884" cy="774" r="10" class="c0"/>
<circle cx="942" cy="638" r="10" class="c0"/>
<circle cx="1000" cy="720" r="10" class="c0"/>
<circle cx="1152" cy="884" r="10" class="c0"/>
<circle cx="884" cy="610" r="10" class="c0"/>
<circle cx="1048" cy="520" r="10" class="c0"/>
<circle cx="888" cy="678" r="10" class="c0"/>
<circle cx="1096" cy="958" r="10" class="c0"/>
<circle cx="938" cy="682" r="10" class="c0"/>
<circle cx="1164" cy="788" r="10" class="c0"/>
<circle cx="1198" cy="866" r="10" class="c0"/>
<circle cx="980" cy="852" r="8" class="c0"/>
<circle cx="902" cy="886" r="8" class="c0"/>
<circle cx="1042" cy="950" r="8" class="c0"/>
<circle cx="1016" cy="680" r="8" class="c0"/>
<circle cx="1038" cy="930" r="8" class="c0"/>
<circle cx="1092" cy="510" r="8" class="c0"/>
<circle cx="1230" cy="710" r="8" class="c0"/>
<circle cx="932" cy="850" r="8" class="c0"/>
<circle cx="1112" cy="704" r="8" class="c0"/>
<circle cx="1124" cy="768" r="8" class="c0"/>
<circle cx="920" cy="928" r="8" class="c0"/>
<circle cx="1180" cy="658" r="8" class="c0"/>
<circle cx="1006" cy="856" r="8" class="c0"/>
<circle cx="1284" cy="858" r="8" class="c0"/>
<circle cx="1058" cy="598" r="8" class="c0"/>
<circle cx="876" cy="874" r="8" class="c0"/>
<circle cx="956" cy="852" r="8" class="c0"/>
<circle cx="822" cy="800" r="8" class="c0"/>
<circle cx="1268" cy="768" r="8" class="c0"/>
<circle cx="1114" cy="554" r="8" class="c0"/>
<circle cx="1162" cy="472" r="8" class="c0"/>
<circle cx="962" cy="670" r="8" class="c0"/>
<circle cx="1058" cy="694" r="8" class="c0"/>
<circle cx="1106" cy="742" r="8" class="c0"/>
<circle cx="954" cy="800" r="8" class="c0"/>
<circle cx="1102" cy="438" r="8" class="c0"/>
<circle cx="1338" cy="790" r="8" class="c0"/>
<circle cx="1236" cy="612" r="8" class="c0"/>
<circle cx="1356" cy="714" r="8" class="c0"/>
<circle cx="1060" cy="440" r="8" class="c0"/>
<circle cx="892" cy="582" r="8" class="c0"/>
<circle cx="1228" cy="548" r="8" class="c0"/>
<circle cx="1070" cy="640" r="8" class="c0"/>
<circle cx="1184" cy="836" r="8" class="c0"/>
<circle cx="1166" cy="628" r="8" class="c0"/>
<circle cx="890" cy="902" r="8" class="c0"/>
<circle cx="920" cy="704" r="8" class="c0"/>
<circle cx="1156" cy="750" r="8" class="c0"/>
<circle cx="1258" cy="606" r="8" class="c0"/>
<circle cx="1312" cy="566" r="8" class="c0"/>
<circle cx="1192" cy="726" r="8" class="c0"/>
<circle cx="958" cy="650" r="8" class="c0"/>
<circle cx="1320" cy="708" r="8" class="c0"/>
<circle cx="906" cy="788" r="8" class="c0"/>
<circle cx="1024" cy="836" r="8" class="c0"/>
<circle cx="1132" cy="834" r="8" class="c0"/>
<circle cx="914" cy="876" r="8" class="c0"/>
<circle cx="916" cy="652" r="8" class="c0"/>
<circle cx="1060" cy="652" r="8" class="c0"/>
<circle cx="1258" cy="888" r="8" class="c0"/>
<circle cx="1248" cy="778" r="8" class="c0"/>
<circle cx="994" cy="942" r="8" class="c0"/>
<circle cx="1070" cy="522" r="8" class="c0"/>
<circle cx="1356" cy="624" r="8" class="c0"/>
<circle cx="846" cy="722" r="8" class="c0"/>
<circle cx="840" cy="750" r="8" class="c0"/>
<circle cx="1296" cy="608" r="8" class="c0"/>
<circle cx="1104" cy="930" r="8" class="c0"/>
<circle cx="1200" cy="742" r="8" class="c0"/>
<circle cx="1334" cy="742" r="8" class="c0"/>
<circle cx="1148" cy="494" r="8" class="c0"/>
<circle cx="1110" cy="524" r="8" class="c0"/>
<circle cx="1150" cy="650" r="8" class="c0"/>
<circle cx="1016" cy="820" r="8" class="c0"/>
<circle cx="1266" cy="872" r="8" class="c0"/>
<circle cx="986" cy="912" r="8" class="c0"/>
<circle cx="1134" cy="752" r="8" class="c0"/>
<circle cx="902" cy="724" r="8" class="c0"/>
<circle cx="1054" cy="868" r="8" class="c0"/>
<circle cx="942" cy="920" r="8" class="c0"/>
<circle cx="1040" cy="908" r="8" class="c0"/>
<circle cx="960" cy="452" r="8" class="c0"/>
<circle cx="952" cy="598" r="8" class="c0"/>
<circle cx="1040" cy="798" r="8" class="c0"/>
<circle cx="922" cy="796" r="8" class="c0"/>
<circle cx="1194" cy="544" r="8" class="c0"/>
<circle cx="1200" cy="946" r="8" class="c0"/>
<circle cx="1150" cy="914" r="8" class="c0"/>
<circle cx="1076" cy="680" r="8" class="c0"/>
<circle cx="900" cy="552" r="8" class="c0"/>
<circle cx="918" cy="578" r="8" class="c0"/>
<circle cx="962" cy="546" r="8" class="c0"/>
<circle cx="1206" cy="492" r="8" class="c0"/>
<circle cx="870" cy="894" r="8" class="c0"/>
<circle cx="1014" cy="602" r="8" class="c0"/>
<circle cx="1206" cy="698" r="8" class="c0"/>
<circle cx="832" cy="704" r="8" class="c0"/>
<circle cx="1004" cy="436" r="8" class="c0"/>
<circle cx="1190" cy="818" r="8" class="c0"/>
<circle cx="1176" cy="880" r="8" class="c0"/>
<circle cx="1122" cy="572" r="8" class="c0"/>
<circle cx="898" cy="742" r="8" class="c0"/>
<circle cx="1242" cy="582" r="8" class="c0"/>
<circle cx="1326" cy="636" r="8" class="c0"/>
<circle cx="1224" cy="592" r="8" class="c0"/>
<circle cx="938" cy="588" r="8" class="c0"/>
<circle cx="1272" cy="924" r="8" class="c0"/>
<circle cx="992" cy="468" r="8" class="c0"/>
<circle cx="1118" cy="686" r="8" class="c0"/>
<circle cx="1136" cy="540" r="8" class="c0"/>
<circle cx="1096" cy="544" r="8" class="c0"/>
<circle cx="1274" cy="848" r="8" class="c0"/>
<circle cx="828" cy="732" r="8" class="c0"/>
<circle cx="1226" cy="928" r="8" class="c0"/>
<circle cx="1236" cy="668" r="8" class="c0"/>
<circle cx="1036" cy="826" r="8" class="c0"/>
<circle cx="1134" cy="810" r="8" class="c0"/>
<circle cx="1096" cy="910" r="8" class="c0"/>
<circle cx="990" cy="776" r="8" class="c0"/>
<circle cx="1276" cy="676" r="8" class="c0"/>
<circle cx="1012" cy="706" r="8" class="c0"/>
<circle cx="1108" cy="498" r="8" class="c0"/>
<circle cx="1080" cy="604" r="8" class="c0"/>
<circle cx="894" cy="870" r="8" class="c0"/>
<circle cx="1020" cy="936" r="8" class="c0"/>
<circle cx="1108" cy="800" r="8" class="c0"/>
<circle cx="1132" cy="512" r="8" class="c0"/>
<circle cx="1018" cy="484" r="8" class="c0"/>
<circle cx="892" cy="804" r="8" class="c0"/>
<circle cx="1262" cy="688" r="8" class="c0"/>
<circle cx="862" cy="840" r="8" class="c0"/>
<circle cx="1006" cy="760" r="8" class="c0"/>
<circle cx="1148" cy="726" r="8" class="c0"/>
<circle cx="1318" cy="802" r="8" class="c0"/>
<circle cx="1322" cy="670" r="8" class="c0"/>
<circle cx="1290" cy="900" r="8" class="c0"/>
<circle cx="930" cy="746" r="8" class="c0"/>
<circle cx="1170" cy="900" r="8" class="c0"/>
<circle cx="906" cy="636" r="8" class="c0"/>
<circle cx="1036" cy="504" r="8" class="c0"/>
<circle cx="1050" cy="712" r="8" class="c0"/>
<circle cx="1186" cy="800" r="8" class="c0"/>
<circle cx="854" cy="600" r="8" class="c0"/>
<circle cx="978" cy="786" r="8" class="c0"/>
<circle cx="1284" cy="878" r="8" class="c0"/>
<circle cx="1032" cy="704" r="8" class="c0"/>
<circle cx="1208" cy="580" r="8" class="c0"/>
<circle cx="1134" cy="714" r="8" class="c0"/>
<circle cx="1012" cy="504" r="8" class="c0"/>
<circle cx="1128" cy="696" r="8" class="c0"/>
<circle cx="1342" cy="846" r="8" class="c0"/>
<circle cx="1072" cy="966" r="8" class="c0"/>
<circle cx="994" cy="698" r="8" class="c0"/>
<circle cx="1302" cy="884" r="8" class="c0"/>
<circle cx="1348" cy="660" r="8" class="c0"/>
<circle cx="994" cy="632" r="8" class="c0"/>
<circle cx="952" cy="718" r="8" class="c0"/>
<circle cx="1020" cy="968" r="8" class="c0"/>
<circle cx="1240" cy="532" r="8" class="c0"/>
<circle cx="872" cy="664" r="8" class="c0"/>
<circle cx="1102" cy="612" r="8" class="c0"/>
<circle cx="1092" cy="468" r="8" class="c0"/>
<circle cx="1078" cy="432" r="8" class="c0"/>
<circle cx="1188" cy="960" r="8" class="c0"/>
<circle cx="1268" cy="816" r="8" class="c0"/>
<circle cx="1096" cy="694" r="8" class="c0"/>
<circle cx="910" cy="692" r="8" class="c0"/>
<circle cx="820" cy="692" r="8" class="c0"/>
<circle cx="1310" cy="698" r="8" class="c0"/>
<circle cx="986" cy="604" r="8" class="c0"/>
<circle cx="1168" cy="720" r="8" class="c0"/>
<circle cx="1062" cy="500" r="8" class="c0"/>
<circle cx="1136" cy="936" r="8" class="c0"/>
<circle cx="948" cy="574" r="8" class="c0"/>
<circle cx="1262" cy="662" r="8" class="c0"/>
<circle cx="1366" cy="686" r="8" class="c0"/>
<circle cx="934" cy="940" r="8" class="c0"/>
<circle cx="890" cy="650" r="8" class="c0"/>
<circle cx="1220" cy="948" r="8" class="c0"/>
<circle cx="1088" cy="754" r="8" class="c0"/>
<circle cx="982" cy="556" r="8" class="c0"/>
<circle cx="1112" cy="824" r="8" class="c0"/>
<circle cx="896" cy="624" r="8" class="c0"/>
<circle cx="1086" cy="848" r="8" class="c0"/>
<circle cx="1194" cy="634" r="8" class="c0"/>
<circle cx="996" cy="964" r="8" class="c0"/>
<circle cx="1124" cy="730" r="8" class="c0"/>
<circle cx="1318" cy="842" r="8" class="c0"/>
<circle cx="1074" cy="942" r="8" class="c0"/>
<circle cx="1294" cy="546" r="8" class="c0"/>
<circle cx="848" cy="664" r="8" class="c0"/>
<circle cx="1220" cy="780" r="8" class="c0"/>
<circle cx="1030" cy="786" r="8" class="c0"/>
<circle cx="1238" cy="726" r="8" class="c0"/>
<circle cx="1000" cy="576" r="8" class="c0"/>
<circle cx="1172" cy="846" r="8" class="c0"/>
<circle cx="1326" cy="580" r="8" class="c0"/>
<circle cx="1192" cy="478" r="8" class="c0"/>
<circle cx="1324" cy="728" r="8" class="c0"/>
<circle cx="914" cy="498" r="8" class="c0"/>
<circle cx="1152" cy="594" r="8" class="c0"/>
<circle cx="1030" cy="652" r="8" class="c0"/>
<circle cx="1184" cy="624" r="8" class="c0"/>
<circle cx="874" cy="558" r="8" class="c0"/>
<circle cx="1052" cy="964" r="8" class="c0"/>
<circle cx="1070" cy="840" r="8" class="c0"/>
<circle cx="994" cy="446" r="8" class="c0"/>
<circle cx="922" cy="548" r="8" class="c0"/>
<circle cx="998" cy="548" r="8" class="c0"/>
<circle cx="932" cy="616" r="8" class="c0"/>
<circle cx="1132" cy="860" r="8" class="c0"/>
<circle cx="1202" cy="928" r="8" class="c0"/>
<circle cx="982" cy="760" r="8" class="c0"/>
<circle cx="996" cy="488" r="8" class="c0"/>
<circle cx="932" cy="786" r="8" class="c0"/>
<circle cx="952" cy="698" r="8" class="c0"/>
<circle cx="1240" cy="754" r="8" class="c0"/>
<circle cx="1154" cy="804" r="8" class="c0"/>
<circle cx="1244" cy="944" r="8" class="c0"/>
<circle cx="1228" cy="570" r="8" class="c0"/>
<circle cx="1336" cy="760" r="8" class="c0"/>
<circle cx="902" cy="814" r="8" class="c0"/>
<circle cx="1140" cy="472" r="8" class="c0"/>
<circle cx="980" cy="646" r="8" class="c0"/>
<circle cx="934" cy="560" r="8" class="c0"/>
<circle cx="1148" cy="624" r="8" class="c0"/>
<circle cx="960" cy="952" r="8" class="c0"/>
<circle cx="1214" cy="628" r="8" class="c0"/>
<circle cx="1140" cy="560" r="8" class="c0"/>
<circle cx="954" cy="472" r="8" class="c0"/>
<circle cx="1254" cy="934" r="8" class="c0"/>
<circle cx="848" cy="788" r="8" class="c0"/>
<circle cx="926" cy="664" r="8" class="c0"/>
<circle cx="1092" cy="826" r="8" class="c0"/>
<circle cx="836" cy="680" r="8" class="c0"/>
<circle cx="1172" cy="608" r="8" class="c0"/>
<circle cx="974" cy="710" r="8" class="c0"/>
<circle cx="934" cy="808" r="8" class="c0"/>
<circle cx="978" cy="458" r="8" class="c0"/>
<circle cx="1028" cy="468" r="8" class="c0"/>
<circle cx="994" cy="508" r="8" class="c0"/>
<circle cx="924" cy="478" r="8" class="c0"/>
<circle cx="1152" cy="550" r="8" class="c0"/>
<circle cx="1360" cy="736" r="8" class="c0"/>
<circle cx="1240" cy="874" r="8" class="c0"/>
<circle cx="932" cy="722" r="8" class="c0"/>
<circle cx="1222" cy="734" r="8" class="c0"/>
<circle cx="1152" cy="768" r="8" class="c0"/>
<circle cx="1028" cy="624" r="8" class="c0"/>
<circle cx="1254" cy="708" r="8" class="c0"/>
<circle cx="1112" cy="894" r="8" class="c0"/>
<circle cx="1114" cy="940" r="8" class="c0"/>
<circle cx="1254" cy="742" r="8" class="c0"/>
<circle cx="1248" cy="622" r="8" class="c0"/>
<circle cx="1204" cy="806" r="8" class="c0"/>
<circle cx="1256" cy="570" r="8" class="c0"/>
<circle cx="928" cy="832" r="8" class="c0"/>
<circle cx="1034" cy="760" r="8" class="c0"/>
<circle cx="1090" cy="594" r="8" class="c0"/>
<circle cx="1300" cy="586" r="8" class="c0"/>
<circle cx="902" cy="922" r="8" class="c0"/>
<circle cx="1018" cy="450" r="8" class="c0"/>
<circle cx="884" cy="544" r="8" class="c0"/>
<circle cx="1204" cy="556" r="8" class="c0"/>
<circle cx="822" cy="756" r="8" class="c0"/>
<circle cx="1322" cy="884" r="8" class="c0"/>
<circle cx="1006" cy="834" r="8" class="c0"/>
<circle cx="1308" cy="814" r="8" class="c0"/>
<circle cx="1140" cy="582" r="8" class="c0"/>
<circle cx="972" cy="536" r="8" class="c0"/>
<circle cx="1040" cy="608" r="8" class="c0"/>
<circle cx="1010" cy="464" r="6" class="c0"/>
<circle cx="932" cy="766" r="6" class="c0"/>
<circle cx="1146" cy="956" r="6" class="c0"/>
<circle cx="1248" cy="824" r="6" class="c0"/>
<circle cx="866" cy="616" r="6" class="c0"/>
<circle cx="996" cy="738" r="6" class="c0"/>
<circle cx="1106" cy="972" r="6" class="c0"/>
<circle cx="918" cy="822" r="6" class="c0"/>
<circle cx="864" cy="740" r="6" class="c0"/>
<circle cx="946" cy="892" r="6" class="c0"/>
<circle cx="1138" cy="978" r="6" class="c0"/>
<circle cx="848" cy="700" r="6" class="c0"/>
<circle cx="1072" cy="800" r="6" class="c0"/>
<circle cx="1062" cy="854" r="6" class="c0"/>
<circle cx="846" cy="614" r="6" class="c0"/>
<circle cx="1284" cy="780" r="6" class="c0"/>
<circle cx="1142" cy="898" r="6" class="c0"/>
<circle cx="1018" cy="584" r="6" class="c0"/>
<circle cx="1088" cy="804" r="6" class="c0"/>
<circle cx="1100" cy="484" r="6" class="c0"/>
<circle cx="978" cy="832" r="6" class="c0"/>
<circle cx="1256" cy="862" r="6" class="c0"/>
<circle cx="1106" cy="454" r="6" class="c0"/>
<circle cx="1300" cy="746" r="6" class="c0"/>
<circle cx="942" cy="776" r="6" class="c0"/>
<circle cx="1084" cy="496" r="6" class="c0"/>
<circle cx="998" cy="820" r="6" class="c0"/>
<circle cx="828" cy="656" r="6" class="c0"/>
<circle cx="1150" cy="708" r="6" class="c0"/>
<circle cx="1184" cy="712" r="6" class="c0"/>
<circle cx="1320" cy="686" r="6" class="c0"/>
<circle cx="1230" cy="490" r="6" class="c0"/>
<circle cx="858" cy="712" r="6" class="c0"/>
<circle cx="1090" cy="528" r="6" class="c0"/>
<circle cx="852" cy="804" r="6" class="c0"/>
<circle cx="1336" cy="618" r="6" class="c0"/>
<circle cx="1358" cy="608" r="6" class="c0"/>
<circle cx="1250" cy="510" r="6" class="c0"/>
<circle cx="1224" cy="912" r="6" class="c0"/>
<circle cx="1016" cy="774" r="6" class="c0"/>
<circle cx="880" cy="744" r="6" class="c0"/>
<circle cx="1116" cy="786" r="6" class="c0"/>
<circle cx="1056" cy="804" r="6" class="c0"/>
<circle cx="940" cy="512" r="6" class="c0"/>
<circle cx="916" cy="778" r="6" class="c0"/>
<circle cx="1176" cy="518" r="6" class="c0"/>
<circle cx="918" cy="858" r="6" class="c0"/>
<circle cx="1316" cy="784" r="6" class="c0"/>
<circle cx="1180" cy="464" r="6" class="c0"/>
<circle cx="1114" cy="626" r="6" class="c0"/>
<circle cx="1092" cy="978" r="6" class="c0"/>
<circle cx="1226" cy="644" r="6" class="c0"/>
<circle cx="1018" cy="662" r="6" class="c0"/>
<circle cx="1204" cy="836" r="6" class="c0"/>
<circle cx="1046" cy="814" r="6" class="c0"/>
<circle cx="1272" cy="904" r="6" class="c0"/>
<circle cx="1162" cy="664" r="6" class="c0"/>
<circle cx="1038" cy="534" r="6" class="c0"/>
<circle cx="1050" cy="460" r="6" class="c0"/>
<circle cx="1208" cy="474" r="6" class="c0"/>
<circle cx="934" cy="870" r="6" class="c0"/>
<circle cx="998" cy="592" r="6" class="c0"/>
<circle cx="1336" cy="864" r="6" class="c0"/>
<circle cx="1158" cy="456" r="6" class="c0"/>
<circle cx="1128" cy="490" r="6" class="c0"/>
<circle cx="1372" cy="718" r="6" class="c0"/>
<circle cx="990" cy="862" r="6" class="c0"/>
<circle cx="1378" cy="696" r="6" class="c0"/>
<circle cx="1080" cy="536" r="6" class="c0"/>
<circle cx="1032" cy="686" r="6" class="c0"/>
<circle cx="1096" cy="788" r="6" class="c0"/>
<circle cx="1080" cy="630" r="6" class="c0"/>
<circle cx="1054" cy="900" r="6" class="c0"/>
<circle cx="1358" cy="646" r="6" class="c0"/>
<circle cx="1352" cy="764" r="6" class="c0"/>
<circle cx="1012" cy="950" r="6" class="c0"/>
<circle cx="1304" cy="908" r="6" class="c0"/>
<circle cx="1142" cy="870" r="6" class="c0"/>
<circle cx="1034" cy="568" r="6" class="c0"/>
<circle cx="1176" cy="642" r="6" class="c0"/>
<circle cx="1022" cy="904" r="6" class="c0"/>
<circle cx="1320" cy="826" r="6" class="c0"/>
<circle cx="982" cy="952" r="6" class="c0"/>
<circle cx="944" cy="462" r="6" class="c0"/>
<circle cx="1286" cy="654" r="6" class="c0"/>
<circle cx="1140" cy="604" r="6" class="c0"/>
<circle cx="1244" cy="598" r="6" class="c0"/>
<circle cx="1206" cy="964" r="6" class="c0"/>
<circle cx="1000" cy="612" r="6" class="c0"/>
<circle cx="1304" cy="792" r="6" class="c0"/>
<circle cx="968" cy="774" r="6" class="c0"/>
<circle cx="1344" cy="774" r="6" class="c0"/>
<circle cx="822" cy="716" r="6" class="c0"/>
<circle cx="1318" cy="594" r="6" class="c0"/>
<circle cx="904" cy="852" r="6" class="c0"/>
<circle cx="1278" cy="826" r="6" class="c0"/>
<circle cx="1080" cy="700" r="6" class="c0"/>
<circle cx="1010" cy="520" r="6" class="c0"/>
<circle cx="1132" cy="596" r="6" class="c0"/>
<circle cx="1022" cy="514" r="6" class="c0"/>
<circle cx="1090" cy="938" r="6" class="c0"/>
<circle cx="1188" cy="912" r="6" class="c0"/>
<circle cx="1336" cy="650" r="6" class="c0"/>
<circle cx="986" cy="730" r="6" class="c0"/>
<circle cx="1088" cy="562" r="6" class="c0"/>
<circle cx="826" cy="636" r="6" class="c0"/>
<circle cx="1238" cy="918" r="6" class="c0"/>
<circle cx="1066" cy="670" r="6" class="c0"/>
<circle cx="1174" cy="948" r="6" class="c0"/>
<circle cx="918" cy="626" r="6" class="c0"/>
<circle cx="1284" cy="534" r="6" class="c0"/>
<circle cx="1186" cy="934" r="6" class="c0"/>
<circle cx="1314" cy="740" r="6" class="c0"/>
<circle cx="1104" cy="674" r="6" class="c0"/>
<circle cx="1096" cy="666" r="6" class="c0"/>
<circle cx="1212" cy="846" r="6" class="c0"/>
<circle cx="1232" cy="836" r="6" class="c0"/>
<circle cx="1210" cy="914" r="6" class="c0"/>
<circle cx="968" cy="864" r="6" class="c0"/>
<circle cx="1062" cy="540" r="6" class="c0"/>
<circle cx="1280" cy="604" r="6" class="c0"/>
<circle cx="918" cy="732" r="6" class="c0"/>
<circle cx="944" cy="828" r="6" class="c0"/>
<circle cx="1114" cy="720" r="6" class="c0"/>
<circle cx="1240" cy="502" r="6" class="c0"/>
<circle cx="1086" cy="924" r="6" class="c0"/>
<circle cx="1278" cy="548" r="6" class="c0"/>
<circle cx="1036" cy="972" r="6" class="c0"/>
<circle cx="1034" cy="426" r="6" class="c0"/>
<circle cx="1260" cy="634" r="6" class="c0"/>
<circle cx="1150" cy="828" r="6" class="c0"/>
<circle cx="1132" cy="674" r="6" class="c0"/>
<circle cx="1356" cy="674" r="6" class="c0"/>
<circle cx="932" cy="502" r="6" class="c0"/>
<circle cx="904" cy="508" r="6" class="c0"/>
<circle cx="848" cy="770" r="6" class="c0"/>
<circle cx="1070" cy="864" r="6" class="c0"/>
<circle cx="856" cy="732" r="6" class="c0"/>
<circle cx="1092" cy="450" r="6" class="c0"/>
<circle cx="1300" cy="634" r="6" class="c0"/>
<circle cx="876" cy="592" r="6" class="c0"/>
<circle cx="976" cy="894" r="6" class="c0"/>
<circle cx="1300" cy="856" r="6" class="c0"/>
<circle cx="946" cy="736" r="6" class="c0"/>
<circle cx="890" cy="566" r="6" class="c0"/>
<circle cx="1272" cy="560" r="6" class="c0"/>
<circle cx="1188" cy="852" r="6" class="c0"/>
<circle cx="1344" cy="640" r="6" class="c0"/>
<circle cx="1312" cy="898" r="6" class="c0"/>
<circle cx="1168" cy="488" r="6" class="c0"/>
<circle cx="938" cy="706" r="6" class="c0"/>
<circle cx="1028" cy="918" r="6" class="c0"/>
<circle cx="1218" cy="482" r="6" class="c0"/>
<circle cx="1288" cy="622" r="6" class="c0"/>
<circle cx="1370" cy="636" r="6" class="c0"/>
<circle cx="1012" cy="626" r="6" class="c0"/>
<circle cx="1092" cy="710" r="6" class="c0"/>
<circle cx="1252" cy="672" r="6" class="c0"/>
<circle cx="1264" cy="832" r="6" class="c0"/>
<circle cx="864" cy="856" r="6" class="c0"/>
<circle cx="952" cy="556" r="6" class="c0"/>
<circle cx="826" cy="834" r="6" class="c0"/>
<circle cx="888" cy="752" r="6" class="c0"/>
<circle cx="1358" cy="752" r="6" class="c0"/>
<circle cx="1190" cy="696" r="6" class="c0"/>
<circle cx="984" cy="620" r="6" class="c0"/>
<circle cx="1120" cy="536" r="6" class="c0"/>
<circle cx="1224" cy="694" r="6" class="c0"/>
<circle cx="948" cy="662" r="6" class="c0"/>
<circle cx="822" cy="670" r="6" class="c0"/>
<circle cx="1284" cy="734" r="6" class="c0"/>
<circle cx="902" cy="572" r="6" class="c0"/>
<circle cx="1254" cy="806" r="6" class="c0"/>
<circle cx="1238" cy="558" r="6" class="c0"/>
<circle cx="970" cy="842" r="6" class="c0"/>
<circle cx="1270" cy="620" r="6" class="c0"/>
<circle cx="824" cy="818" r="6" class="c0"/>
<circle cx="1222" cy="660" r="6" class="c0"/>
<circle cx="942" cy="860" r="6" class="c0"/>
<circle cx="970" cy="442" r="6" class="c0"/>
<circle cx="1230" cy="630" r="6" class="c0"/>
<circle cx="832" cy="624" r="6" class="c0"/>
<circle cx="876" cy="910" r="6" class="c0"/>
<circle cx="1062" cy="952" r="6" class="c0"/>
<circle cx="1124" cy="588" r="6" class="c0"/>
<circle cx="994" cy="844" r="6" class="c0"/>
<circle cx="1198" cy="666" r="6" class="c0"/>
<circle cx="1026" cy="952" r="6" class="c0"/>
<circle cx="1356" cy="696" r="6" class="c0"/>
<circle cx="962" cy="566" r="6" class="c0"/>
<circle cx="1184" cy="752" r="6" class="c0"/>
<circle cx="1048" cy="424" r="6" class="c0"/>
<circle cx="954" cy="782" r="6" class="c0"/>
<circle cx="1022" cy="434" r="6" class="c0"/>
<circle cx="1330" cy="776" r="6" class="c0"/>
<circle cx="1074" cy="746" r="6" class="c0"/>
<circle cx="1044" cy="748" r="6" class="c0"/>
<circle cx="862" cy="816" r="6" class="c0"/>
<circle cx="1104" cy="564" r="6" class="c0"/>
<circle cx="1020" cy="804" r="6" class="c0"/>
<circle cx="1170" cy="758" r="6" class="c0"/>
<circle cx="1156" cy="610" r="6" class="c0"/>
<circle cx="1124" cy="796" r="6" class="c0"/>
<circle cx="1348" cy="802" r="6" class="c0"/>
<circle cx="1180" cy="864" r="6" class="c0"/>
<circle cx="1080" cy="912" r="6" class="c0"/>
<circle cx="1216" cy="796" r="6" class="c0"/>
<circle cx="1196" cy="760" r="6" class="c0"/>
<circle cx="906" cy="904" r="6" class="c0"/>
<circle cx="968" cy="596" r="6" class="c0"/>
<circle cx="934" cy="886" r="6" class="c0"/>
<circle cx="1114" cy="868" r="6" class="c0"/>
<circle cx="1010" cy="734" r="6" class="c0"/>
<circle cx="998" cy="870" r="6" class="c0"/>
<circle cx="1030" cy="524" r="6" class="c0"/>
<circle cx="1196" cy="570" r="6" class="c0"/>
<circle cx="1232" cy="768" r="6" class="c0"/>
<circle cx="1182" cy="532" r="6" class="c0"/>
<circle cx="896" cy="762" r="6" class="c0"/>
<circle cx="946" cy="842" r="6" class="c0"/>
<circle cx="1114" cy="756" r="6" class="c0"/>
<circle cx="860" cy="654" r="6" class="c0"/>
<circle cx="1350" cy="828" r="6" class="c0"/>
<circle cx="854" cy="890" r="6" class="c0"/>
</svg>
