<?xml version="1.0" encoding="utf-8"?>
<svg xmlns="http://www.w3.org/2000/svg"
     xmlns:xlink="http://www.w3.org/1999/xlink" width="1920" height="1440" >

            <defs>
            <style type="text/css"><![CDATA[
circle {stroke: none;}
.c0 {fill: #000000;}
]]></style>
            </defs>
<rect x="0" y="0" width="1920" height="1440" fill="white"/>
<circle cx="44" cy="736" r="14" class="c0"/>
<circle cx="486" cy="842" r="14" class="c0"/>
<circle cx="894" cy="510" r="14" class="c0"/>
<circle cx="1746" cy="688" r="12" class="c0"/>
<circle cx="1444" cy="860" r="12" class="c0"/>
<circle cx="706" cy="666" r="12" class="c0"/>
<circle cx="204" cy="714" r="12" class="c0"/>
<circle cx="500" cy="674" r="12" class="c0"/>
<circle cx="1254" cy="770" r="12" class="c0"/>
<circle cx="596" cy="716" r="12" class="c0"/>
<circle cx="1238" cy="662" r="12" class="c0"/>
<circle cx="590" cy="686" r="12" class="c0"/>
<circle cx="1608" cy="792" r="12" class="c0"/>
<circle cx="1562" cy="690" r="12" class="c0"/>
<circle cx="1040" cy="514" r="12" class="c0"/>
<circle cx="1652" cy="770" r="12" class="c0"/>
<circle cx="514" cy="736" r="12" class="c0"/>
<circle cx="1154" cy="826" r="12" class="c0"/>
<circle cx="1448" cy="770" r="12" class="c0"/>
<circle cx="598" cy="808" r="12" class="c0"/>
<circle cx="1700" cy="742" r="12" class="c0"/>
<circle cx="1470" cy="824" r="12" class="c0"/>
<circle cx="1314" cy="596" r="12" class="c0"/>
<circle cx="624" cy="824" r="12" class="c0"/>
<circle cx="1306" cy="670" r="12" class="c0"/>
<circle cx="1446" cy="704" r="12" class="c0"/>
<circle cx="114" cy="736" r="12" class="c0"/>
<circle cx="636" cy="744" r="12" class="c0"/>
<circle cx="672" cy="862" r="12" class="c0"/>
<circle cx="544" cy="616" r="12" class="c0"/>
<circle cx="744" cy="788" r="12" class="c0"/>
<circle cx="374" cy="756" r="12" class="c0"/>
<circle cx="1470" cy="682" r="12" class="c0"/>
<circle cx="1350" cy="742" r="12" class="c0"/>
<circle cx="726" cy="628" r="12" class="c0"/>
<circle cx="252" cy="752" r="12" class="c0"/>
<circle cx="1234" cy="608" r="12" class="c0"/>
<circle cx="1268" cy="646" r="12" class="c0"/>
<circle cx="1582" cy="720" r="12" class="c0"/>
<circle cx="752" cy="548" r="12" class="c0"/>
<circle cx="156" cy="730" r="12" class="c0"/>
<circle cx="308" cy="674" r="12" class="c0"/>
<circle cx="1596" cy="692" r="12" class="c0"/>
<circle cx="1094" cy="552" r="12" class="c0"/>
<circle cx="1634" cy="788" r="12" class="c0"/>
<circle cx="778" cy="908" r="12" class="c0"/>
<circle cx="520" cy="592" r="12" class="c0"/>
<circle cx="1334" cy="834" r="12" class="c0"/>
<circle cx="594" cy="618" r="12" class="c0"/>
<circle cx="566" cy="750" r="12" class="c0"/>
<circle cx="600" cy="772" r="12" class="c0"/>
<circle cx="1282" cy="736" r="12" class="c0"/>
<circle cx="740" cy="524" r="12" class="c0"/>
<circle cx="1384" cy="638" r="12" class="c0"/>
<circle cx="840" cy="548" r="12" class="c0"/>
<circle cx="928" cy="518" r="12" class="c0"/>
<circle cx="1200" cy="738" r="12" class="c0"/>
<circle cx="1378" cy="740" r="12" class="c0"/>
<circle cx="1274" cy="814" r="12" class="c0"/>
<circle cx="1750" cy="724" r="12" class="c0"/>
<circle cx="1236" cy="694" r="12" class="c0"/>
<circle cx="628" cy="686" r="12" class="c0"/>
<circle cx="1330" cy="624" r="12" class="c0"/>
<circle cx="700" cy="636" r="12" class="c0"/>
<circle cx="1098" cy="516" r="12" class="c0"/>
<circle cx="542" cy="838" r="12" class="c0"/>
<circle cx="700" cy="826" r="12" class="c0"/>
<circle cx="682" cy="652" r="12" class="c0"/>
<circle cx="1310" cy="770" r="10" class="c0"/>
<circle cx="722" cy="582" r="10" class="c0"/>
<circle cx="1544" cy="740" r="10" class="c0"/>
<circle cx="1260" cy="582" r="10" class="c0"/>
<circle cx="1512" cy="788" r="10" class="c0"/>
<circle cx="646" cy="798" r="10" class="c0"/>
<circle cx="432" cy="814" r="10" class="c0"/>
<circle cx="234" cy="694" r="10" class="c0"/>
<circle cx="1474" cy="708" r="10" class="c0"/>
<circle cx="78" cy="756" r="10" class="c0"/>
<circle cx="682" cy="678" r="10" class="c0"/>
<circle cx="1256" cy="712" r="10" class="c0"/>
<circle cx="524" cy="794" r="10" class="c0"/>
<circle cx="466" cy="718" r="10" class="c0"/>
<circle cx="1150" cy="548" r="10" class="c0"/>
<circle cx="1510" cy="812" r="10" class="c0"/>
<circle cx="1514" cy="612" r="10" class="c0"/>
<circle cx="1592" cy="756" r="10" class="c0"/>
<circle cx="1538" cy="638" r="10" class="c0"/>
<circle cx="1394" cy="724" r="10" class="c0"/>
<circle cx="1348" cy="676" r="10" class="c0"/>
<circle cx="322" cy="702" r="10" class="c0"/>
<circle cx="628" cy="878" r="10" class="c0"/>
<circle cx="1374" cy="584" r="10" class="c0"/>
<circle cx="1392" cy="758" r="10" class="c0"/>
<circle cx="1428" cy="636" r="10" class="c0"/>
<circle cx="1130" cy="882" r="10" class="c0"/>
<circle cx="1184" cy="722" r="10" class="c0"/>
<circle cx="1186" cy="618" r="10" class="c0"/>
<circle cx="396" cy="832" r="10" class="c0"/>
<circle cx="368" cy="668" r="10" class="c0"/>
<circle cx="476" cy="750" r="10" class="c0"/>
<circle cx="224" cy="740" r="10" class="c0"/>
<circle cx="554" cy="720" r="10" class="c0"/>
<circle cx="280" cy="690" r="10" class="c0"/>
<circle cx="654" cy="570" r="10" class="c0"/>
<circle cx="1270" cy="612" r="10" class="c0"/>
<circle cx="592" cy="562" r="10" class="c0"/>
<circle cx="1676" cy="664" r="10" class="c0"/>
<circle cx="1126" cy="558" r="10" class="c0"/>
<circle cx="730" cy="740" r="10" class="c0"/>
<circle cx="572" cy="578" r="10" class="c0"/>
<circle cx="676" cy="724" r="10" class="c0"/>
<circle cx="1506" cy="732" r="10" class="c0"/>
<circle cx="1396" cy="810" r="10" class="c0"/>
<circle cx="478" cy="688" r="10" class="c0"/>
<circle cx="846" cy="930" r="10" class="c0"/>
<circle cx="1262" cy="676" r="10" class="c0"/>
<circle cx="1176" cy="906" r="10" class="c0"/>
<circle cx="1434" cy="796" r="10" class="c0"/>
<circle cx="1776" cy="698" r="10" class="c0"/>
<circle cx="1008" cy="532" r="10" class="c0"/>
<circle cx="1358" cy="880" r="10" class="c0"/>
<circle cx="702" cy="554" r="10" class="c0"/>
<circle cx="420" cy="662" r="10" class="c0"/>
<circle cx="1234" cy="534" r="10" class="c0"/>
<circle cx="1320" cy="708" r="10" class="c0"/>
<circle cx="418" cy="844" r="10" class="c0"/>
<circle cx="124" cy="756" r="10" class="c0"/>
<circle cx="1164" cy="658" r="10" class="c0"/>
<circle cx="384" cy="724" r="10" class="c0"/>
<circle cx="744" cy="892" r="10" class="c0"/>
<circle cx="768" cy="528" r="10" class="c0"/>
<circle cx="1092" cy="930" r="10" class="c0"/>
<circle cx="238" cy="722" r="10" class="c0"/>
<circle cx="1600" cy="640" r="10" class="c0"/>
<circle cx="1262" cy="902" r="10" class="c0"/>
<circle cx="1284" cy="904" r="10" class="c0"/>
<circle cx="1410" cy="788" r="10" class="c0"/>
<circle cx="1238" cy="740" r="10" class="c0"/>
<circle cx="718" cy="808" r="10" class="c0"/>
<circle cx="576" cy="800" r="10" class="c0"/>
<circle cx="396" cy="800" r="10" class="c0"/>
<circle cx="800" cy="884" r="10" class="c0"/>
<circle cx="1624" cy="746" r="10" class="c0"/>
<circle cx="886" cy="540" r="10" class="c0"/>
<circle cx="1170" cy="600" r="10" class="c0"/>
<circle cx="1684" cy="686" r="10" class="c0"/>
<circle cx="700" cy="760" r="10" class="c0"/>
<circle cx="1348" cy="640" r="10" class="c0"/>
<circle cx="1120" cy="532" r="10" class="c0"/>
<circle cx="506" cy="706" r="10" class="c0"/>
<circle cx="1192" cy="822" r="10" class="c0"/>
<circle cx="1436" cy="674" r="10" class="c0"/>
<circle cx="1236" cy="558" r="10" class="c0"/>
<circle cx="758" cy="658" r="10" class="c0"/>
<circle cx="758" cy="622" r="10" class="c0"/>
<circle cx="828" cy="528" r="10" class="c0"/>
<circle cx="1420" cy="820" r="10" class="c0"/>
<circle cx="672" cy="594" r="10" class="c0"/>
<circle cx="1548" cy="718" r="10" class="c0"/>
<circle cx="344" cy="794" r="10" class="c0"/>
<circle cx="1146" cy="922" r="10" class="c0"/>
<circle cx="1398" cy="600" r="10" class="c0"/>
<circle cx="1672" cy="734" r="10" class="c0"/>
<circle cx="554" cy="680" r="10" class="c0"/>
<circle cx="302" cy="796" r="10" class="c0"/>
<circle cx="440" cy="854" r="10" class="c0"/>
<circle cx="476" cy="808" r="10" class="c0"/>
<circle cx="658" cy="702" r="10" class="c0"/>
<circle cx="1268" cy="846" r="10" class="c0"/>
<circle cx="598" cy="744" r="10" class="c0"/>
<circle cx="408" cy="774" r="10" class="c0"/>
<circle cx="962" cy="496" r="10" class="c0"/>
<circle cx="1336" cy="696" r="10" class="c0"/>
<circle cx="478" cy="618" r="10" class="c0"/>
<circle cx="1230" cy="886" r="10" class="c0"/>
<circle cx="976" cy="522" r="10" class="c0"/>
<circle cx="1486" cy="742" r="10" class="c0"/>
<circle cx="586" cy="880" r="10" class="c0"/>
<circle cx="1196" cy="774" r="10" class="c0"/>
<circle cx="1500" cy="836" r="10" class="c0"/>
<circle cx="1132" cy="906" r="10" class="c0"/>
<circle cx="728" cy="768" r="10" class="c0"/>
<circle cx="1210" cy="578" r="10" class="c0"/>
<circle cx="210" cy="762" r="10" class="c0"/>
<circle cx="730" cy="866" r="10" class="c0"/>
<circle cx="756" cy="834" r="10" class="c0"/>
<circle cx="616" cy="574" r="10" class="c0"/>
<circle cx="1102" cy="582" r="10" class="c0"/>
<circle cx="292" cy="754" r="10" class="c0"/>
<circle cx="320" cy="726" r="10" class="c0"/>
<circle cx="492" cy="594" r="10" class="c0"/>
<circle cx="1514" cy="692" r="10" class="c0"/>
<circle cx="1560" cy="646" r="10" class="c0"/>
<circle cx="1220" cy="922" r="10" class="c0"/>
<circle cx="156" cy="762" r="10" class="c0"/>
<circle cx="1646" cy="722" r="10" class="c0"/>
<circle cx="1452" cy="730" r="10" class="c0"/>
<circle cx="264" cy="668" r="10" class="c0"/>
<circle cx="1238" cy="822" r="10" class="c0"/>
<circle cx="1358" cy="610" r="10" class="c0"/>
<circle cx="1626" cy="680" r="10" class="c0"/>
<circle cx="460" cy="668" r="10" class="c0"/>
<circle cx="1356" cy="766" r="10" class="c0"/>
<circle cx="1464" cy="640" r="10" class="c0"/>
<circle cx="552" cy="868" r="10" class="c0"/>
<circle cx="740" cy="698" r="10" class="c0"/>
<circle cx="1196" cy="926" r="10" class="c0"/>
<circle cx="1466" cy="792" r="10" class="c0"/>
<circle cx="1900" cy="732" r="10" class="c0"/>
<circle cx="500" cy="758" r="10" class="c0"/>
<circle cx="1620" cy="658" r="10" class="c0"/>
<circle cx="348" cy="716" r="10" class="c0"/>
<circle cx="460" cy="768" r="10" class="c0"/>
<circle cx="1686" cy="712" r="10" class="c0"/>
<circle cx="370" cy="640" r="10" class="c0"/>
<circle cx="778" cy="860" r="10" class="c0"/>
<circle cx="854" cy="504" r="10" class="c0"/>
<circle cx="1194" cy="532" r="10" class="c0"/>
<circle cx="584" cy="660" r="10" class="c0"/>
<circle cx="776" cy="558" r="10" class="c0"/>
<circle cx="1282" cy="546" r="10" class="c0"/>
<circle cx="262" cy="776" r="10" class="c0"/>
<circle cx="1322" cy="862" r="10" class="c0"/>
<circle cx="820" cy="918" r="10" class="c0"/>
<circle cx="138" cy="742" r="10" class="c0"/>
<circle cx="1364" cy="716" r="10" class="c0"/>
<circle cx="644" cy="636" r="10" class="c0"/>
<circle cx="746" cy="670" r="10" class="c0"/>
<circle cx="1366" cy="664" r="10" class="c0"/>
<circle cx="648" cy="864" r="10" class="c0"/>
<circle cx="514" cy="854" r="10" class="c0"/>
<circle cx="664" cy="748" r="10" class="c0"/>
<circle cx="414" cy="696" r="10" class="c0"/>
<circle cx="716" cy="884" r="10" class="c0"/>
<circle cx="1448" cy="816" r="10" class="c0"/>
<circle cx="1252" cy="800" r="10" class="c0"/>
<circle cx="1212" cy="702" r="10" class="c0"/>
<circle cx="1644" cy="656" r="10" class="c0"/>
<circle cx="1226" cy="754" r="10" class="c0"/>
<circle cx="1390" cy="836" r="10" class="c0"/>
<circle cx="1416" cy="858" r="10" class="c0"/>
<circle cx="1562" cy="786" r="10" class="c0"/>
<circle cx="1240" cy="910" r="10" class="c0"/>
<circle cx="1210" cy="864" r="10" class="c0"/>
<circle cx="1720" cy="722" r="10" class="c0"/>
<circle cx="1272" cy="878" r="10" class="c0"/>
<circle cx="1304" cy="846" r="10" class="c0"/>
<circle cx="646" cy="722" r="10" class="c0"/>
<circle cx="610" cy="890" r="10" class="c0"/>
<circle cx="1856" cy="738" r="10" class="c0"/>
<circle cx="274" cy="734" r="8" class="c0"/>
<circle cx="1486" cy="624" r="8" class="c0"/>
<circle cx="1000" cy="496" r="8" class="c0"/>
<circle cx="402" cy="712" r="8" class="c0"/>
<circle cx="430" cy="620" r="8" class="c0"/>
<circle cx="172" cy="744" r="8" class="c0"/>
<circle cx="438" cy="782" r="8" class="c0"/>
<circle cx="286" cy="664" r="8" class="c0"/>
<circle cx="568" cy="836" r="8" class="c0"/>
<circle cx="448" cy="704" r="8" class="c0"/>
<circle cx="1530" cy="824" r="8" class="c0"/>
<circle cx="424" cy="640" r="8" class="c0"/>
<circle cx="1016" cy="510" r="8" class="c0"/>
<circle cx="450" cy="644" r="8" class="c0"/>
<circle cx="792" cy="522" r="8" class="c0"/>
<circle cx="1786" cy="714" r="8" class="c0"/>
<circle cx="1370" cy="798" r="8" class="c0"/>
<circle cx="1456" cy="842" r="8" class="c0"/>
<circle cx="444" cy="682" r="8" class="c0"/>
<circle cx="596" cy="830" r="8" class="c0"/>
<circle cx="1296" cy="886" r="8" class="c0"/>
<circle cx="1254" cy="548" r="8" class="c0"/>
<circle cx="192" cy="776" r="8" class="c0"/>
<circle cx="704" cy="738" r="8" class="c0"/>
<circle cx="402" cy="650" r="8" class="c0"/>
<circle cx="1666" cy="694" r="8" class="c0"/>
<circle cx="1828" cy="732" r="8" class="c0"/>
<circle cx="1138" cy="864" r="8" class="c0"/>
<circle cx="1186" cy="590" r="8" class="c0"/>
<circle cx="1280" cy="572" r="8" class="c0"/>
<circle cx="1516" cy="640" r="8" class="c0"/>
<circle cx="680" cy="896" r="8" class="c0"/>
<circle cx="1328" cy="754" r="8" class="c0"/>
<circle cx="1678" cy="764" r="8" class="c0"/>
<circle cx="1076" cy="944" r="8" class="c0"/>
<circle cx="1410" cy="750" r="8" class="c0"/>
<circle cx="720" cy="542" r="8" class="c0"/>
<circle cx="1338" cy="784" r="8" class="c0"/>
<circle cx="1424" cy="738" r="8" class="c0"/>
<circle cx="1382" cy="864" r="8" class="c0"/>
<circle cx="326" cy="646" r="8" class="c0"/>
<circle cx="1712" cy="758" r="8" class="c0"/>
<circle cx="1426" cy="772" r="8" class="c0"/>
<circle cx="480" cy="776" r="8" class="c0"/>
<circle cx="1182" cy="544" r="8" class="c0"/>
<circle cx="572" cy="776" r="8" class="c0"/>
<circle cx="1140" cy="530" r="8" class="c0"/>
<circle cx="426" cy="734" r="8" class="c0"/>
<circle cx="1170" cy="690" r="8" class="c0"/>
<circle cx="1074" cy="514" r="8" class="c0"/>
<circle cx="1548" cy="826" r="8" class="c0"/>
<circle cx="374" cy="800" r="8" class="c0"/>
<circle cx="1478" cy="762" r="8" class="c0"/>
<circle cx="1708" cy="670" r="8" class="c0"/>
<circle cx="614" cy="730" r="8" class="c0"/>
<circle cx="762" cy="572" r="8" class="c0"/>
<circle cx="386" cy="774" r="8" class="c0"/>
<circle cx="604" cy="644" r="8" class="c0"/>
<circle cx="1218" cy="788" r="8" class="c0"/>
<circle cx="1154" cy="904" r="8" class="c0"/>
<circle cx="102" cy="720" r="8" class="c0"/>
<circle cx="1332" cy="812" r="8" class="c0"/>
<circle cx="1232" cy="842" r="8" class="c0"/>
<circle cx="1192" cy="570" r="8" class="c0"/>
<circle cx="1126" cy="602" r="8" class="c0"/>
<circle cx="1426" cy="696" r="8" class="c0"/>
<circle cx="1420" cy="594" r="8" class="c0"/>
<circle cx="1220" cy="832" r="8" class="c0"/>
<circle cx="652" cy="778" r="8" class="c0"/>
<circle cx="1168" cy="630" r="8" class="c0"/>
<circle cx="1862" cy="716" r="8" class="c0"/>
<circle cx="782" cy="582" r="8" class="c0"/>
<circle cx="428" cy="716" r="8" class="c0"/>
<circle cx="1102" cy="912" r="8" class="c0"/>
<circle cx="1240" cy="578" r="8" class="c0"/>
<circle cx="1378" cy="818" r="8" class="c0"/>
<circle cx="804" cy="570" r="8" class="c0"/>
<circle cx="746" cy="854" r="8" class="c0"/>
<circle cx="1554" cy="626" r="8" class="c0"/>
<circle cx="538" cy="710" r="8" class="c0"/>
<circle cx="536" cy="748" r="8" class="c0"/>
<circle cx="662" cy="882" r="8" class="c0"/>
<circle cx="768" cy="884" r="8" class="c0"/>
<circle cx="1338" cy="594" r="8" class="c0"/>
<circle cx="1214" cy="524" r="8" class="c0"/>
<circle cx="676" cy="788" r="8" class="c0"/>
<circle cx="1246" cy="852" r="8" class="c0"/>
<circle cx="1514" cy="670" r="8" class="c0"/>
<circle cx="1492" cy="700" r="8" class="c0"/>
<circle cx="522" cy="764" r="8" class="c0"/>
<circle cx="668" cy="820" r="8" class="c0"/>
<circle cx="870" cy="528" r="8" class="c0"/>
<circle cx="430" cy="764" r="8" class="c0"/>
<circle cx="676" cy="768" r="8" class="c0"/>
<circle cx="1148" cy="848" r="8" class="c0"/>
<circle cx="706" cy="782" r="8" class="c0"/>
<circle cx="1228" cy="632" r="8" class="c0"/>
<circle cx="508" cy="608" r="8" class="c0"/>
<circle cx="288" cy="812" r="8" class="c0"/>
<circle cx="770" cy="928" r="8" class="c0"/>
<circle cx="1514" cy="750" r="8" class="c0"/>
<circle cx="1334" cy="568" r="8" class="c0"/>
<circle cx="712" cy="850" r="8" class="c0"/>
<circle cx="1880" cy="728" r="8" class="c0"/>
<circle cx="1380" cy="788" r="8" class="c0"/>
<circle cx="1492" cy="782" r="8" class="c0"/>
<circle cx="1700" cy="768" r="8" class="c0"/>
<circle cx="318" cy="818" r="8" class="c0"/>
<circle cx="1402" cy="576" r="8" class="c0"/>
<circle cx="462" cy="788" r="8" class="c0"/>
<circle cx="174" cy="770" r="8" class="c0"/>
<circle cx="324" cy="776" r="8" class="c0"/>
<circle cx="72" cy="734" r="8" class="c0"/>
<circle cx="292" cy="714" r="8" class="c0"/>
<circle cx="1114" cy="926" r="8" class="c0"/>
<circle cx="630" cy="546" r="8" class="c0"/>
<circle cx="1314" cy="810" r="8" class="c0"/>
<circle cx="702" cy="866" r="8" class="c0"/>
<circle cx="502" cy="820" r="8" class="c0"/>
<circle cx="1452" cy="596" r="8" class="c0"/>
<circle cx="1704" cy="692" r="8" class="c0"/>
<circle cx="1196" cy="634" r="8" class="c0"/>
<circle cx="512" cy="778" r="8" class="c0"/>
<circle cx="254" cy="698" r="8" class="c0"/>
<circle cx="1308" cy="744" r="8" class="c0"/>
<circle cx="1344" cy="854" r="8" class="c0"/>
<circle cx="1494" cy="656" r="8" class="c0"/>
<circle cx="520" cy="814" r="8" class="c0"/>
<circle cx="1600" cy="668" r="8" class="c0"/>
<circle cx="1400" cy="684" r="8" class="c0"/>
<circle cx="1628" cy="708" r="8" class="c0"/>
<circle cx="362" cy="832" r="8" class="c0"/>
<circle cx="708" cy="594" r="8" class="c0"/>
<circle cx="1786" cy="750" r="8" class="c0"/>
<circle cx="664" cy="908" r="8" class="c0"/>
<circle cx="818" cy="940" r="8" class="c0"/>
<circle cx="1374" cy="696" r="8" class="c0"/>
<circle cx="540" cy="582" r="8" class="c0"/>
<circle cx="726" cy="716" r="8" class="c0"/>
<circle cx="606" cy="844" r="8" class="c0"/>
<circle cx="1800" cy="728" r="8" class="c0"/>
<circle cx="1546" cy="670" r="8" class="c0"/>
<circle cx="266" cy="716" r="8" class="c0"/>
<circle cx="1370" cy="778" r="8" class="c0"/>
<circle cx="568" cy="598" r="8" class="c0"/>
<circle cx="738" cy="914" r="8" class="c0"/>
<circle cx="1208" cy="612" r="8" class="c0"/>
<circle cx="566" cy="856" r="8" class="c0"/>
<circle cx="692" cy="606" r="8" class="c0"/>
<circle cx="1212" cy="650" r="8" class="c0"/>
<circle cx="1144" cy="568" r="8" class="c0"/>
<circle cx="384" cy="816" r="8" class="c0"/>
<circle cx="1150" cy="876" r="8" class="c0"/>
<circle cx="392" cy="700" r="8" class="c0"/>
<circle cx="348" cy="686" r="8" class="c0"/>
<circle cx="1276" cy="758" r="8" class="c0"/>
<circle cx="372" cy="704" r="8" class="c0"/>
<circle cx="1158" cy="584" r="8" class="c0"/>
<circle cx="506" cy="630" r="8" class="c0"/>
<circle cx="1604" cy="736" r="8" class="c0"/>
<circle cx="562" cy="662" r="8" class="c0"/>
<circle cx="1072" cy="924" r="8" class="c0"/>
<circle cx="1278" cy="776" r="8" class="c0"/>
<circle cx="908" cy="526" r="8" class="c0"/>
<circle cx="786" cy="614" r="8" class="c0"/>
<circle cx="134" cy="712" r="8" class="c0"/>
<circle cx="1304" cy="570" r="8" class="c0"/>
<circle cx="1494" cy="682" r="8" class="c0"/>
<circle cx="664" cy="638" r="8" class="c0"/>
<circle cx="1180" cy="834" r="8" class="c0"/>
<circle cx="822" cy="564" r="8" class="c0"/>
<circle cx="1218" cy="682" r="8" class="c0"/>
<circle cx="852" cy="524" r="8" class="c0"/>
<circle cx="1318" cy="790" r="8" class="c0"/>
<circle cx="546" cy="782" r="8" class="c0"/>
<circle cx="714" cy="908" r="8" class="c0"/>
<circle cx="1584" cy="776" r="8" class="c0"/>
<circle cx="1318" cy="892" r="8" class="c0"/>
<circle cx="536" cy="650" r="8" class="c0"/>
<circle cx="604" cy="600" r="8" class="c0"/>
<circle cx="206" cy="684" r="8" class="c0"/>
<circle cx="1162" cy="796" r="8" class="c0"/>
<circle cx="280" cy="790" r="8" class="c0"/>
<circle cx="362" cy="774" r="8" class="c0"/>
<circle cx="1402" cy="626" r="8" class="c0"/>
<circle cx="1480" cy="600" r="8" class="c0"/>
<circle cx="658" cy="830" r="8" class="c0"/>
<circle cx="596" cy="858" r="8" class="c0"/>
<circle cx="444" cy="748" r="8" class="c0"/>
<circle cx="622" cy="764" r="8" class="c0"/>
<circle cx="1230" cy="722" r="8" class="c0"/>
<circle cx="748" cy="924" r="8" class="c0"/>
<circle cx="472" cy="862" r="8" class="c0"/>
<circle cx="456" cy="832" r="8" class="c0"/>
<circle cx="1564" cy="746" r="8" class="c0"/>
<circle cx="1314" cy="638" r="8" class="c0"/>
<circle cx="1192" cy="844" r="8" class="c0"/>
<circle cx="240" cy="800" r="8" class="c0"/>
<circle cx="1414" cy="714" r="8" class="c0"/>
<circle cx="564" cy="626" r="8" class="c0"/>
<circle cx="350" cy="814" r="8" class="c0"/>
<circle cx="20" cy="726" r="8" class="c0"/>
<circle cx="1426" cy="658" r="8" class="c0"/>
<circle cx="680" cy="616" r="8" class="c0"/>
<circle cx="458" cy="692" r="8" class="c0"/>
<circle cx="1554" cy="804" r="8" class="c0"/>
<circle cx="714" cy="692" r="8" class="c0"/>
<circle cx="868" cy="550" r="8" class="c0"/>
<circle cx="1212" cy="544" r="8" class="c0"/>
<circle cx="500" cy="788" r="8" class="c0"/>
<circle cx="1218" cy="902" r="8" class="c0"/>
<circle cx="192" cy="742" r="8" class="c0"/>
<circle cx="1332" cy="662" r="8" class="c0"/>
<circle cx="610" cy="668" r="8" class="c0"/>
<circle cx="624" cy="710" r="8" class="c0"/>
<circle cx="1408" cy="668" r="8" class="c0"/>
<circle cx="1726" cy="742" r="8" class="c0"/>
<circle cx="1428" cy="614" r="8" class="c0"/>
<circle cx="354" cy="740" r="8" class="c0"/>
<circle cx="1174" cy="526" r="8" class="c0"/>
<circle cx="758" cy="808" r="8" class="c0"/>
<circle cx="1336" cy="880" r="8" class="c0"/>
<circle cx="1320" cy="558" r="8" class="c0"/>
<circle cx="310" cy="744" r="8" class="c0"/>
<circle cx="1290" cy="858" r="8" class="c0"/>
<circle cx="1534" cy="756" r="8" class="c0"/>
<circle cx="1248" cy="624" r="8" class="c0"/>
<circle cx="1292" cy="648" r="8" class="c0"/>
<circle cx="1528" cy="716" r="8" class="c0"/>
<circle cx="392" cy="742" r="8" class="c0"/>
<circle cx="782" cy="512" r="8" class="c0"/>
<circle cx="636" cy="618" r="8" class="c0"/>
<circle cx="662" cy="612" r="8" class="c0"/>
<circle cx="1760" cy="752" r="8" class="c0"/>
<circle cx="1396" cy="878" r="8" class="c0"/>
<circle cx="1050" cy="532" r="8" class="c0"/>
<circle cx="652" cy="664" r="8" class="c0"/>
<circle cx="550" cy="762" r="8" class="c0"/>
<circle cx="1174" cy="876" r="8" class="c0"/>
<circle cx="656" cy="548" r="8" class="c0"/>
<circle cx="1590" cy="802" r="8" class="c0"/>
<circle cx="1284" cy="702" r="8" class="c0"/>
<circle cx="686" cy="540" r="8" class="c0"/>
<circle cx="1384" cy="676" r="8" class="c0"/>
<circle cx="996" cy="514" r="8" class="c0"/>
<circle cx="800" cy="552" r="8" class="c0"/>
<circle cx="180" cy="718" r="8" class="c0"/>
<circle cx="290" cy="774" r="8" class="c0"/>
<circle cx="1610" cy="712" r="8" class="c0"/>
<circle cx="640" cy="588" r="8" class="c0"/>
<circle cx="1290" cy="826" r="8" class="c0"/>
<circle cx="1352" cy="820" r="8" class="c0"/>
<circle cx="352" cy="760" r="8" class="c0"/>
<circle cx="1284" cy="600" r="8" class="c0"/>
<circle cx="498" cy="868" r="8" class="c0"/>
<circle cx="464" cy="634" r="8" class="c0"/>
<circle cx="744" cy="752" r="8" class="c0"/>
<circle cx="1566" cy="818" r="8" class="c0"/>
<circle cx="798" cy="916" r="8" class="c0"/>
<circle cx="642" cy="768" r="8" class="c0"/>
<circle cx="176" cy="690" r="8" class="c0"/>
<circle cx="650" cy="898" r="8" class="c0"/>
<circle cx="224" cy="778" r="8" class="c0"/>
<circle cx="1232" cy="864" r="8" class="c0"/>
<circle cx="1226" cy="806" r="8" class="c0"/>
<circle cx="1294" cy="622" r="8" class="c0"/>
<circle cx="1174" cy="812" r="8" class="c0"/>
<circle cx="684" cy="808" r="8" class="c0"/>
<circle cx="484" cy="652" r="8" class="c0"/>
<circle cx="1268" cy="790" r="8" class="c0"/>
<circle cx="1576" cy="666" r="8" class="c0"/>
<circle cx="680" cy="564" r="8" class="c0"/>
<circle cx="408" cy="752" r="8" class="c0"/>
<circle cx="692" cy="694" r="8" class="c0"/>
<circle cx="1536" cy="694" r="8" class="c0"/>
<circle cx="1552" cy="770" r="8" class="c0"/>
<circle cx="396" cy="670" r="8" class="c0"/>
<circle cx="1188" cy="794" r="8" class="c0"/>
<circle cx="1252" cy="834" r="8" class="c0"/>
<circle cx="732" cy="604" r="8" class="c0"/>
<circle cx="704" cy="710" r="8" class="c0"/>
<circle cx="614" cy="634" r="8" class="c0"/>
<circle cx="100" cy="752" r="8" class="c0"/>
<circle cx="1224" cy="590" r="8" class="c0"/>
<circle cx="566" cy="702" r="8" class="c0"/>
<circle cx="578" cy="732" r="8" class="c0"/>
<circle cx="700" cy="530" r="8" class="c0"/>
<circle cx="450" cy="622" r="8" class="c0"/>
<circle cx="1396" cy="658" r="8" class="c0"/>
<circle cx="526" cy="664" r="8" class="c0"/>
<circle cx="770" cy="636" r="8" class="c0"/>
<circle cx="1642" cy="698" r="8" class="c0"/>
<circle cx="1356" cy="564" r="8" class="c0"/>
<circle cx="1536" cy="778" r="8" class="c0"/>
<circle cx="114" cy="710" r="8" class="c0"/>
<circle cx="608" cy="698" r="8" class="c0"/>
<circle cx="556" cy="644" r="8" class="c0"/>
<circle cx="1198" cy="896" r="8" class="c0"/>
<circle cx="618" cy="854" r="8" class="c0"/>
<circle cx="704" cy="898" r="8" class="c0"/>
<circle cx="688" cy="918" r="8" class="c0"/>
<circle cx="738" cy="562" r="8" class="c0"/>
<circle cx="1324" cy="734" r="8" class="c0"/>
<circle cx="1334" cy="722" r="8" class="c0"/>
<circle cx="1058" cy="504" r="8" class="c0"/>
<circle cx="456" cy="812" r="8" class="c0"/>
<circle cx="1184" cy="660" r="8" class="c0"/>
<circle cx="1652" cy="674" r="8" class="c0"/>
<circle cx="452" cy="732" r="8" class="c0"/>
<circle cx="1502" cy="762" r="8" class="c0"/>
<circle cx="1248" cy="874" r="8" class="c0"/>
<circle cx="618" cy="798" r="8" class="c0"/>
<circle cx="692" cy="582" r="8" class="c0"/>
<circle cx="1122" cy="510" r="8" class="c0"/>
<circle cx="536" cy="806" r="8" class="c0"/>
<circle cx="1652" cy="746" r="8" class="c0"/>
<circle cx="520" cy="834" r="8" class="c0"/>
<circle cx="1450" cy="656" r="8" class="c0"/>
<circle cx="1210" cy="842" r="8" class="c0"/>
<circle cx="750" cy="596" r="8" class="c0"/>
<circle cx="356" cy="652" r="8" class="c0"/>
<circle cx="796" cy="594" r="8" class="c0"/>
<circle cx="520" cy="640" r="8" class="c0"/>
<circle cx="636" cy="842" r="8" class="c0"/>
<circle cx="1296" cy="714" r="8" class="c0"/>
<circle cx="586" cy="594" r="8" class="c0"/>
<circle cx="470" cy="596" r="8" class="c0"/>
<circle cx="1740" cy="760" r="8" class="c0"/>
<circle cx="816" cy="506" r="8" class="c0"/>
<circle cx="1536" cy="802" r="8" class="c0"/>
<circle cx="1348" cy="582" r="8" class="c0"/>
<circle cx="524" cy="692" r="8" class="c0"/>
<circle cx="1174" cy="930" r="8" class="c0"/>
<circle cx="1432" cy="842" r="8" class="c0"/>
<circle cx="626" cy="606" r="8" class="c0"/>
<circle cx="554" cy="802" r="8" class="c0"/>
<circle cx="756" cy="770" r="8" class="c0"/>
<circle cx="1072" cy="544" r="8" class="c0"/>
<circle cx="268" cy="804" r="8" class="c0"/>
<circle cx="1160" cy="860" r="8" class="c0"/>
<circle cx="950" cy="528" r="8" class="c0"/>
<circle cx="1054" cy="934" r="8" class="c0"/>
<circle cx="1148" cy="620" r="8" class="c0"/>
<circle cx="1736" cy="710" r="8" class="c0"/>
<circle cx="434" cy="694" r="8" class="c0"/>
<circle cx="526" cy="720" r="8" class="c0"/>
<circle cx="1444" cy="748" r="8" class="c0"/>
<circle cx="1448" cy="622" r="8" class="c0"/>
<circle cx="550" cy="570" r="8" class="c0"/>
<circle cx="420" cy="798" r="8" class="c0"/>
<circle cx="206" cy="790" r="8" class="c0"/>
<circle cx="1188" cy="700" r="8" class="c0"/>
<circle cx="1036" cy="936" r="8" class="c0"/>
<circle cx="1162" cy="886" r="8" class="c0"/>
<circle cx="1158" cy="512" r="8" class="c0"/>
<circle cx="1818" cy="714" r="8" class="c0"/>
<circle cx="1302" cy="798" r="8" class="c0"/>
<circle cx="818" cy="896" r="8" class="c0"/>
<circle cx="734" cy="826" r="8" class="c0"/>
<circle cx="752" cy="874" r="8" class="c0"/>
<circle cx="1114" cy="570" r="8" class="c0"/>
<circle cx="1146" cy="598" r="8" class="c0"/>
<circle cx="688" cy="876" r="8" class="c0"/>
<circle cx="1170" cy="848" r="8" class="c0"/>
<circle cx="496" cy="726" r="8" class="c0"/>
<circle cx="1724" cy="698" r="8" class="c0"/>
<circle cx="1836" cy="708" r="8" class="c0"/>
<circle cx="310" cy="764" r="8" class="c0"/>
<circle cx="16" cy="748" r="8" class="c0"/>
<circle cx="1810" cy="740" r="8" class="c0"/>
<circle cx="1796" cy="702" r="8" class="c0"/>
<circle cx="1284" cy="668" r="8" class="c0"/>
<circle cx="1488" cy="812" r="8" class="c0"/>
<circle cx="324" cy="798" r="8" class="c0"/>
<circle cx="768" cy="594" r="8" class="c0"/>
<circle cx="938" cy="500" r="8" class="c0"/>
<circle cx="244" cy="678" r="8" class="c0"/>
<circle cx="1614" cy="764" r="8" class="c0"/>
<circle cx="1170" cy="560" r="8" class="c0"/>
<circle cx="1468" cy="620" r="8" class="c0"/>
<circle cx="502" cy="650" r="8" class="c0"/>
<circle cx="1178" cy="784" r="8" class="c0"/>
<circle cx="1478" cy="844" r="8" class="c0"/>
<circle cx="1268" cy="560" r="8" class="c0"/>
<circle cx="1082" cy="910" r="8" class="c0"/>
<circle cx="1260" cy="740" r="8" class="c0"/>
<circle cx="92" cy="732" r="8" class="c0"/>
<circle cx="1112" cy="900" r="8" class="c0"/>
<circle cx="1306" cy="872" r="8" class="c0"/>
<circle cx="1310" cy="692" r="8" class="c0"/>
<circle cx="1366" cy="842" r="8" class="c0"/>
<circle cx="564" cy="816" r="8" class="c0"/>
<circle cx="364" cy="728" r="8" class="c0"/>
<circle cx="624" cy="904" r="8" class="c0"/>
<circle cx="626" cy="650" r="8" class="c0"/>
<circle cx="338" cy="666" r="8" class="c0"/>
<circle cx="380" cy="680" r="8" class="c0"/>
<circle cx="562" cy="888" r="8" class="c0"/>
<circle cx="1184" cy="750" r="8" class="c0"/>
<circle cx="712" cy="614" r="8" class="c0"/>
<circle cx="1124" cy="584" r="8" class="c0"/>
<circle cx="64" cy="718" r="8" class="c0"/>
<circle cx="392" cy="626" r="8" class="c0"/>
<circle cx="1378" cy="614" r="8" class="c0"/>
<circle cx="1180" cy="858" r="8" class="c0"/>
<circle cx="146" cy="702" r="8" class="c0"/>
<circle cx="1674" cy="782" r="8" class="c0"/>
<circle cx="412" cy="820" r="8" class="c0"/>
<circle cx="1106" cy="944" r="8" class="c0"/>
<circle cx="612" cy="548" r="8" class="c0"/>
<circle cx="1570" cy="764" r="8" class="c0"/>
<circle cx="726" cy="654" r="8" class="c0"/>
<circle cx="1498" cy="800" r="8" class="c0"/>
<circle cx="526" cy="866" r="8" class="c0"/>
<circle cx="1844" cy="724" r="8" class="c0"/>
<circle cx="1208" cy="886" r="8" class="c0"/>
<circle cx="332" cy="738" r="8" class="c0"/>
<circle cx="1306" cy="726" r="8" class="c0"/>
<circle cx="1412" cy="648" r="8" class="c0"/>
<circle cx="694" cy="796" r="8" class="c0"/>
<circle cx="328" cy="758" r="8" class="c0"/>
<circle cx="300" cy="734" r="8" class="c0"/>
<circle cx="1028" cy="530" r="8" class="c0"/>
<circle cx="1260" cy="864" r="8" class="c0"/>
<circle cx="1126" cy="940" r="8" class="c0"/>
<circle cx="1394" cy="778" r="8" class="c0"/>
<circle cx="632" cy="786" r="8" class="c0"/>
<circle cx="1200" cy="668" r="8" class="c0"/>
<circle cx="1192" cy="874" r="8" class="c0"/>
<circle cx="692" cy="854" r="8" class="c0"/>
<circle cx="812" cy="540" r="8" class="c0"/>
<circle cx="404" cy="728" r="6" class="c0"/>
<circle cx="1574" cy="634" r="6" class="c0"/>
<circle cx="1526" cy="650" r="6" class="c0"/>
<circle cx="1624" cy="724" r="6" class="c0"/>
<circle cx="1476" cy="660" r="6" class="c0"/>
<circle cx="834" cy="574" r="6" class="c0"/>
<circle cx="1466" cy="854" r="6" class="c0"/>
<circle cx="1256" cy="600" r="6" class="c0"/>
<circle cx="1724" cy="680" r="6" class="c0"/>
<circle cx="426" cy="680" r="6" class="c0"/>
<circle cx="272" cy="754" r="6" class="c0"/>
<circle cx="232" cy="758" r="6" class="c0"/>
<circle cx="860" cy="944" r="6" class="c0"/>
<circle cx="682" cy="836" r="6" class="c0"/>
<circle cx="988" cy="536" r="6" class="c0"/>
<circle cx="744" cy="636" r="6" class="c0"/>
<circle cx="726" cy="928" r="6" class="c0"/>
<circle cx="164" cy="702" r="6" class="c0"/>
<circle cx="800" cy="938" r="6" class="c0"/>
<circle cx="1784" cy="730" r="6" class="c0"/>
<circle cx="1502" cy="630" r="6" class="c0"/>
<circle cx="1496" cy="602" r="6" class="c0"/>
<circle cx="1344" cy="712" r="6" class="c0"/>
<circle cx="242" cy="780" r="6" class="c0"/>
<circle cx="582" cy="638" r="6" class="c0"/>
<circle cx="1218" cy="770" r="6" class="c0"/>
<circle cx="878" cy="944" r="6" class="c0"/>
<circle cx="1156" cy="642" r="6" class="c0"/>
<circle cx="1202" cy="718" r="6" class="c0"/>
<circle cx="1770" cy="722" r="6" class="c0"/>
<circle cx="216" cy="700" r="6" class="c0"/>
<circle cx="1028" cy="498" r="6" class="c0"/>
<circle cx="84" cy="710" r="6" class="c0"/>
<circle cx="408" cy="630" r="6" class="c0"/>
<circle cx="1230" cy="776" r="6" class="c0"/>
<circle cx="872" cy="498" r="6" class="c0"/>
<circle cx="720" cy="520" r="6" class="c0"/>
<circle cx="726" cy="842" r="6" class="c0"/>
<circle cx="1110" cy="598" r="6" class="c0"/>
<circle cx="412" cy="678" r="6" class="c0"/>
<circle cx="442" cy="660" r="6" class="c0"/>
<circle cx="576" cy="712" r="6" class="c0"/>
<circle cx="1490" cy="724" r="6" class="c0"/>
<circle cx="1378" cy="880" r="6" class="c0"/>
<circle cx="1184" cy="888" r="6" class="c0"/>
<circle cx="1218" cy="622" r="6" class="c0"/>
<circle cx="1156" cy="938" r="6" class="c0"/>
<circle cx="1356" cy="700" r="6" class="c0"/>
<circle cx="768" cy="846" r="6" class="c0"/>
<circle cx="580" cy="822" r="6" class="c0"/>
<circle cx="786" cy="544" r="6" class="c0"/>
<circle cx="944" cy="948" r="6" class="c0"/>
<circle cx="338" cy="826" r="6" class="c0"/>
<circle cx="584" cy="844" r="6" class="c0"/>
<circle cx="1084" cy="576" r="6" class="c0"/>
<circle cx="728" cy="684" r="6" class="c0"/>
<circle cx="1238" cy="790" r="6" class="c0"/>
<circle cx="1350" cy="796" r="6" class="c0"/>
<circle cx="484" cy="712" r="6" class="c0"/>
<circle cx="1180" cy="640" r="6" class="c0"/>
<circle cx="1382" cy="712" r="6" class="c0"/>
<circle cx="1200" cy="556" r="6" class="c0"/>
<circle cx="1306" cy="906" r="6" class="c0"/>
<circle cx="1174" cy="580" r="6" class="c0"/>
<circle cx="1534" cy="658" r="6" class="c0"/>
<circle cx="636" cy="660" r="6" class="c0"/>
<circle cx="1210" cy="812" r="6" class="c0"/>
<circle cx="1292" cy="560" r="6" class="c0"/>
<circle cx="1302" cy="548" r="6" class="c0"/>
<circle cx="1408" cy="766" r="6" class="c0"/>
<circle cx="1270" cy="918" r="6" class="c0"/>
<circle cx="834" cy="942" r="6" class="c0"/>
<circle cx="1398" cy="706" r="6" class="c0"/>
<circle cx="646" cy="536" r="6" class="c0"/>
<circle cx="1138" cy="512" r="6" class="c0"/>
<circle cx="670" cy="536" r="6" class="c0"/>
<circle cx="818" cy="582" r="6" class="c0"/>
<circle cx="594" cy="900" r="6" class="c0"/>
<circle cx="582" cy="760" r="6" class="c0"/>
<circle cx="222" cy="796" r="6" class="c0"/>
<circle cx="1184" cy="514" r="6" class="c0"/>
<circle cx="832" cy="508" r="6" class="c0"/>
<circle cx="58" cy="750" r="6" class="c0"/>
<circle cx="1426" cy="754" r="6" class="c0"/>
<circle cx="1166" cy="708" r="6" class="c0"/>
<circle cx="440" cy="834" r="6" class="c0"/>
<circle cx="1348" cy="894" r="6" class="c0"/>
<circle cx="460" cy="850" r="6" class="c0"/>
<circle cx="1760" cy="706" r="6" class="c0"/>
<circle cx="522" cy="622" r="6" class="c0"/>
<circle cx="302" cy="652" r="6" class="c0"/>
<circle cx="610" cy="870" r="6" class="c0"/>
<circle cx="660" cy="682" r="6" class="c0"/>
<circle cx="1564" cy="728" r="6" class="c0"/>
<circle cx="534" cy="680" r="6" class="c0"/>
<circle cx="1430" cy="716" r="6" class="c0"/>
<circle cx="1328" cy="774" r="6" class="c0"/>
<circle cx="916" cy="502" r="6" class="c0"/>
<circle cx="1664" cy="718" r="6" class="c0"/>
<circle cx="444" cy="606" r="6" class="c0"/>
<circle cx="894" cy="946" r="6" class="c0"/>
<circle cx="554" cy="590" r="6" class="c0"/>
<circle cx="660" cy="846" r="6" class="c0"/>
<circle cx="1582" cy="648" r="6" class="c0"/>
<circle cx="918" cy="948" r="6" class="c0"/>
<circle cx="596" cy="584" r="6" class="c0"/>
<circle cx="636" cy="572" r="6" class="c0"/>
<circle cx="1292" cy="766" r="6" class="c0"/>
<circle cx="754" cy="908" r="6" class="c0"/>
<circle cx="686" cy="748" r="6" class="c0"/>
<circle cx="1294" cy="752" r="6" class="c0"/>
<circle cx="330" cy="680" r="6" class="c0"/>
<circle cx="334" cy="810" r="6" class="c0"/>
<circle cx="546" cy="818" r="6" class="c0"/>
<circle cx="1600" cy="774" r="6" class="c0"/>
<circle cx="1206" cy="596" r="6" class="c0"/>
<circle cx="1472" cy="730" r="6" class="c0"/>
<circle cx="1294" cy="688" r="6" class="c0"/>
<circle cx="760" cy="512" r="6" class="c0"/>
<circle cx="1524" cy="736" r="6" class="c0"/>
<circle cx="1286" cy="790" r="6" class="c0"/>
<circle cx="1518" cy="770" r="6" class="c0"/>
<circle cx="460" cy="610" r="6" class="c0"/>
<circle cx="1070" cy="564" r="6" class="c0"/>
<circle cx="682" cy="704" r="6" class="c0"/>
<circle cx="386" cy="654" r="6" class="c0"/>
<circle cx="1638" cy="758" r="6" class="c0"/>
<circle cx="648" cy="688" r="6" class="c0"/>
<circle cx="1366" cy="628" r="6" class="c0"/>
<circle cx="1258" cy="694" r="6" class="c0"/>
<circle cx="1174" cy="674" r="6" class="c0"/>
<circle cx="650" cy="598" r="6" class="c0"/>
<circle cx="1590" cy="658" r="6" class="c0"/>
<circle cx="540" cy="884" r="6" class="c0"/>
<circle cx="1464" cy="746" r="6" class="c0"/>
<circle cx="1084" cy="504" r="6" class="c0"/>
<circle cx="486" cy="636" r="6" class="c0"/>
<circle cx="550" cy="738" r="6" class="c0"/>
<circle cx="1412" cy="836" r="6" class="c0"/>
<circle cx="974" cy="952" r="6" class="c0"/>
<circle cx="1766" cy="736" r="6" class="c0"/>
<circle cx="740" cy="724" r="6" class="c0"/>
<circle cx="342" cy="776" r="6" class="c0"/>
<circle cx="1502" cy="710" r="6" class="c0"/>
<circle cx="742" cy="582" r="6" class="c0"/>
<circle cx="590" cy="788" r="6" class="c0"/>
<circle cx="984" cy="500" r="6" class="c0"/>
<circle cx="366" cy="816" r="6" class="c0"/>
<circle cx="1278" cy="630" r="6" class="c0"/>
<circle cx="1198" cy="686" r="6" class="c0"/>
<circle cx="484" cy="792" r="6" class="c0"/>
<circle cx="1392" cy="854" r="6" class="c0"/>
<circle cx="1526" cy="624" r="6" class="c0"/>
<circle cx="298" cy="692" r="6" class="c0"/>
<circle cx="1410" cy="698" r="6" class="c0"/>
<circle cx="736" cy="806" r="6" class="c0"/>
<circle cx="952" cy="510" r="6" class="c0"/>
<circle cx="1278" cy="686" r="6" class="c0"/>
<circle cx="574" cy="674" r="6" class="c0"/>
<circle cx="240" cy="766" r="6" class="c0"/>
<circle cx="648" cy="818" r="6" class="c0"/>
<circle cx="532" cy="630" r="6" class="c0"/>
<circle cx="1246" cy="642" r="6" class="c0"/>
<circle cx="1518" cy="838" r="6" class="c0"/>
<circle cx="1328" cy="584" r="6" class="c0"/>
<circle cx="136" cy="768" r="6" class="c0"/>
<circle cx="1294" cy="782" r="6" class="c0"/>
<circle cx="190" cy="758" r="6" class="c0"/>
<circle cx="720" cy="564" r="6" class="c0"/>
<circle cx="1158" cy="700" r="6" class="c0"/>
<circle cx="1484" cy="642" r="6" class="c0"/>
<circle cx="1086" cy="532" r="6" class="c0"/>
<circle cx="448" cy="798" r="6" class="c0"/>
<circle cx="480" cy="732" r="6" class="c0"/>
<circle cx="1538" cy="618" r="6" class="c0"/>
<circle cx="1298" cy="586" r="6" class="c0"/>
<circle cx="616" cy="782" r="6" class="c0"/>
<circle cx="714" cy="726" r="6" class="c0"/>
<circle cx="808" cy="524" r="6" class="c0"/>
<circle cx="1428" cy="872" r="6" class="c0"/>
<circle cx="722" cy="786" r="6" class="c0"/>
<circle cx="1156" cy="682" r="6" class="c0"/>
<circle cx="658" cy="810" r="6" class="c0"/>
<circle cx="1306" cy="828" r="6" class="c0"/>
<circle cx="378" cy="838" r="6" class="c0"/>
<circle cx="1162" cy="536" r="6" class="c0"/>
<circle cx="1214" cy="724" r="6" class="c0"/>
<circle cx="1208" cy="760" r="6" class="c0"/>
<circle cx="638" cy="702" r="6" class="c0"/>
<circle cx="836" cy="906" r="6" class="c0"/>
<circle cx="1332" cy="900" r="6" class="c0"/>
<circle cx="562" cy="786" r="6" class="c0"/>
<circle cx="1574" cy="800" r="6" class="c0"/>
<circle cx="108" cy="768" r="6" class="c0"/>
<circle cx="1358" cy="788" r="6" class="c0"/>
<circle cx="544" cy="666" r="6" class="c0"/>
<circle cx="708" cy="924" r="6" class="c0"/>
<circle cx="308" cy="712" r="6" class="c0"/>
<circle cx="226" cy="676" r="6" class="c0"/>
<circle cx="1460" cy="666" r="6" class="c0"/>
<circle cx="1410" cy="612" r="6" class="c0"/>
<circle cx="1390" cy="698" r="6" class="c0"/>
<circle cx="1602" cy="812" r="6" class="c0"/>
<circle cx="1530" cy="676" r="6" class="c0"/>
<circle cx="194" cy="698" r="6" class="c0"/>
<circle cx="1360" cy="862" r="6" class="c0"/>
<circle cx="1254" cy="920" r="6" class="c0"/>
<circle cx="662" cy="654" r="6" class="c0"/>
<circle cx="640" cy="908" r="6" class="c0"/>
<circle cx="530" cy="570" r="6" class="c0"/>
<circle cx="396" cy="762" r="6" class="c0"/>
<circle cx="254" cy="732" r="6" class="c0"/>
<circle cx="1586" cy="676" r="6" class="c0"/>
<circle cx="1618" cy="698" r="6" class="c0"/>
<circle cx="852" cy="562" r="6" class="c0"/>
<circle cx="672" cy="550" r="6" class="c0"/>
<circle cx="1164" cy="918" r="6" class="c0"/>
<circle cx="706" cy="572" r="6" class="c0"/>
<circle cx="642" cy="558" r="6" class="c0"/>
<circle cx="666" cy="798" r="6" class="c0"/>
<circle cx="532" cy="774" r="6" class="c0"/>
<circle cx="1252" cy="532" r="6" class="c0"/>
<circle cx="786" cy="932" r="6" class="c0"/>
<circle cx="1432" cy="584" r="6" class="c0"/>
<circle cx="348" cy="638" r="6" class="c0"/>
<circle cx="550" cy="700" r="6" class="c0"/>
<circle cx="1206" cy="798" r="6" class="c0"/>
<circle cx="1322" cy="682" r="6" class="c0"/>
<circle cx="688" cy="778" r="6" class="c0"/>
<circle cx="1690" cy="778" r="6" class="c0"/>
<circle cx="316" cy="656" r="6" class="c0"/>
<circle cx="1706" cy="710" r="6" class="c0"/>
<circle cx="1578" cy="700" r="6" class="c0"/>
<circle cx="1022" cy="948" r="6" class="c0"/>
<circle cx="376" cy="784" r="6" class="c0"/>
<circle cx="146" cy="778" r="6" class="c0"/>
<circle cx="574" cy="646" r="6" class="c0"/>
<circle cx="760" cy="680" r="6" class="c0"/>
<circle cx="1218" cy="562" r="6" class="c0"/>
<circle cx="1064" cy="524" r="6" class="c0"/>
<circle cx="624" cy="590" r="6" class="c0"/>
<circle cx="800" cy="508" r="6" class="c0"/>
<circle cx="226" cy="710" r="6" class="c0"/>
<circle cx="358" cy="696" r="6" class="c0"/>
<circle cx="808" cy="930" r="6" class="c0"/>
<circle cx="614" cy="616" r="6" class="c0"/>
<circle cx="6" cy="734" r="6" class="c0"/>
<circle cx="516" cy="878" r="6" class="c0"/>
<circle cx="1566" cy="710" r="6" class="c0"/>
<circle cx="410" cy="614" r="6" class="c0"/>
<circle cx="434" cy="652" r="6" class="c0"/>
<circle cx="1374" cy="762" r="6" class="c0"/>
<circle cx="1178" cy="766" r="6" class="c0"/>
<circle cx="1186" cy="680" r="6" class="c0"/>
<circle cx="1304" cy="612" r="6" class="c0"/>
<circle cx="480" cy="668" r="6" class="c0"/>
<circle cx="1362" cy="686" r="6" class="c0"/>
<circle cx="572" cy="558" r="6" class="c0"/>
<circle cx="508" cy="802" r="6" class="c0"/>
<circle cx="1416" cy="682" r="6" class="c0"/>
<circle cx="256" cy="794" r="6" class="c0"/>
<circle cx="642" cy="674" r="6" class="c0"/>
<circle cx="340" cy="700" r="6" class="c0"/>
<circle cx="1172" cy="734" r="6" class="c0"/>
<circle cx="1322" cy="652" r="6" class="c0"/>
<circle cx="1194" cy="650" r="6" class="c0"/>
<circle cx="538" cy="732" r="6" class="c0"/>
<circle cx="1046" cy="494" r="6" class="c0"/>
<circle cx="716" cy="750" r="6" class="c0"/>
<circle cx="1274" cy="716" r="6" class="c0"/>
<circle cx="1722" cy="768" r="6" class="c0"/>
<circle cx="1266" cy="536" r="6" class="c0"/>
<circle cx="1384" cy="570" r="6" class="c0"/>
<circle cx="1338" cy="764" r="6" class="c0"/>
<circle cx="162" cy="780" r="6" class="c0"/>
<circle cx="672" cy="692" r="6" class="c0"/>
<circle cx="1630" cy="768" r="6" class="c0"/>
<circle cx="574" cy="616" r="6" class="c0"/>
<circle cx="728" cy="900" r="6" class="c0"/>
<circle cx="494" cy="804" r="6" class="c0"/>
<circle cx="694" cy="728" r="6" class="c0"/>
<circle cx="1144" cy="894" r="6" class="c0"/>
<circle cx="1152" cy="806" r="6" class="c0"/>
<circle cx="1250" cy="568" r="6" class="c0"/>
<circle cx="1436" cy="600" r="6" class="c0"/>
<circle cx="434" cy="672" r="6" class="c0"/>
<circle cx="1412" cy="876" r="6" class="c0"/>
<circle cx="1742" cy="744" r="6" class="c0"/>
<circle cx="472" cy="828" r="6" class="c0"/>
<circle cx="466" cy="650" r="6" class="c0"/>
<circle cx="342" cy="750" r="6" class="c0"/>
<circle cx="744" cy="816" r="6" class="c0"/>
<circle cx="1476" cy="778" r="6" class="c0"/>
<circle cx="1656" cy="708" r="6" class="c0"/>
<circle cx="206" cy="734" r="6" class="c0"/>
<circle cx="506" cy="580" r="6" class="c0"/>
<circle cx="1220" cy="736" r="6" class="c0"/>
<circle cx="1580" cy="744" r="6" class="c0"/>
<circle cx="736" cy="644" r="6" class="c0"/>
<circle cx="1668" cy="754" r="6" class="c0"/>
<circle cx="1404" cy="846" r="6" class="c0"/>
<circle cx="1628" cy="642" r="6" class="c0"/>
<circle cx="958" cy="950" r="6" class="c0"/>
<circle cx="1484" cy="670" r="6" class="c0"/>
<circle cx="1890" cy="718" r="6" class="c0"/>
<circle cx="628" cy="562" r="6" class="c0"/>
<circle cx="668" cy="666" r="6" class="c0"/>
<circle cx="440" cy="634" r="6" class="c0"/>
<circle cx="492" cy="742" r="6" class="c0"/>
<circle cx="576" cy="866" r="6" class="c0"/>
<circle cx="364" cy="790" r="6" class="c0"/>
<circle cx="1408" cy="734" r="6" class="c0"/>
<circle cx="1838" cy="744" r="6" class="c0"/>
<circle cx="400" cy="686" r="6" class="c0"/>
<circle cx="542" cy="692" r="6" class="c0"/>
<circle cx="1450" cy="684" r="6" class="c0"/>
<circle cx="1912" cy="720" r="6" class="c0"/>
<circle cx="496" cy="620" r="6" class="c0"/>
<circle cx="178" cy="786" r="6" class="c0"/>
<circle cx="1062" cy="556" r="6" class="c0"/>
<circle cx="1046" cy="948" r="6" class="c0"/>
<circle cx="1656" cy="790" r="6" class="c0"/>
<circle cx="742" cy="614" r="6" class="c0"/>
<circle cx="1446" cy="638" r="6" class="c0"/>
<circle cx="612" cy="754" r="6" class="c0"/>
<circle cx="1216" cy="666" r="6" class="c0"/>
<circle cx="1624" cy="804" r="6" class="c0"/>
<circle cx="1248" cy="892" r="6" class="c0"/>
<circle cx="1222" cy="852" r="6" class="c0"/>
<circle cx="1286" cy="842" r="6" class="c0"/>
<circle cx="808" cy="906" r="6" class="c0"/>
<circle cx="1206" cy="912" r="6" class="c0"/>
<circle cx="718" cy="834" r="6" class="c0"/>
<circle cx="858" cy="540" r="6" class="c0"/>
<circle cx="530" cy="824" r="6" class="c0"/>
<circle cx="1320" cy="576" r="6" class="c0"/>
<circle cx="1662" cy="654" r="6" class="c0"/>
<circle cx="366" cy="688" r="6" class="c0"/>
<circle cx="770" cy="610" r="6" class="c0"/>
</svg>
