<?xml version="1.0" encoding="utf-8"?>
<svg xmlns="http://www.w3.org/2000/svg"
     xmlns:xlink="http://www.w3.org/1999/xlink" width="1920" height="1440" >

            <defs>
            <style type="text/css"><![CDATA[
circle {stroke: none;}
.c0 {fill: #FFFFFF;}
]]></style>
            </defs>
<rect x="0" y="0" width="1920" height="1440" fill="black"/>
<circle cx="980" cy="186" r="14" class="c0"/>
<circle cx="1034" cy="780" r="12" class="c0"/>
<circle cx="1118" cy="330" r="12" class="c0"/>
<circle cx="1012" cy="1366" r="12" class="c0"/>
<circle cx="1180" cy="802" r="12" class="c0"/>
<circle cx="872" cy="828" r="12" class="c0"/>
<circle cx="904" cy="1036" r="12" class="c0"/>
<circle cx="816" cy="150" r="12" class="c0"/>
<circle cx="1006" cy="72" r="12" class="c0"/>
<circle cx="1206" cy="842" r="12" class="c0"/>
<circle cx="792" cy="192" r="12" class="c0"/>
<circle cx="1018" cy="356" r="12" class="c0"/>
<circle cx="1154" cy="884" r="12" class="c0"/>
<circle cx="968" cy="1180" r="12" class="c0"/>
<circle cx="920" cy="382" r="12" class="c0"/>
<circle cx="1018" cy="1406" r="12" class="c0"/>
<circle cx="978" cy="132" r="12" class="c0"/>
<circle cx="980" cy="674" r="12" class="c0"/>
<circle cx="960" cy="1372" r="12" class="c0"/>
<circle cx="1192" cy="858" r="12" class="c0"/>
<circle cx="1052" cy="852" r="12" class="c0"/>
<circle cx="858" cy="1340" r="12" class="c0"/>
<circle cx="916" cy="1372" r="12" class="c0"/>
<circle cx="1128" cy="40" r="12" class="c0"/>
<circle cx="816" cy="1400" r="12" class="c0"/>
<circle cx="862" cy="1308" r="12" class="c0"/>
<circle cx="1188" cy="160" r="12" class="c0"/>
<circle cx="1050" cy="1380" r="12" class="c0"/>
<circle cx="1022" cy="906" r="12" class="c0"/>
<circle cx="756" cy="140" r="12" class="c0"/>
<circle cx="874" cy="364" r="12" class="c0"/>
<circle cx="1086" cy="72" r="12" class="c0"/>
<circle cx="738" cy="116" r="12" class="c0"/>
<circle cx="862" cy="876" r="12" class="c0"/>
<circle cx="978" cy="702" r="12" class="c0"/>
<circle cx="872" cy="1210" r="12" class="c0"/>
<circle cx="1198" cy="788" r="12" class="c0"/>
<circle cx="1140" cy="102" r="12" class="c0"/>
<circle cx="918" cy="310" r="12" class="c0"/>
<circle cx="1048" cy="402" r="12" class="c0"/>
<circle cx="936" cy="900" r="12" class="c0"/>
<circle cx="850" cy="192" r="12" class="c0"/>
<circle cx="1068" cy="100" r="12" class="c0"/>
<circle cx="932" cy="1200" r="12" class="c0"/>
<circle cx="956" cy="294" r="12" class="c0"/>
<circle cx="922" cy="1064" r="12" class="c0"/>
<circle cx="1092" cy="230" r="12" class="c0"/>
<circle cx="1012" cy="286" r="12" class="c0"/>
<circle cx="792" cy="856" r="12" class="c0"/>
<circle cx="986" cy="1422" r="12" class="c0"/>
<circle cx="1100" cy="848" r="12" class="c0"/>
<circle cx="1084" cy="828" r="12" class="c0"/>
<circle cx="764" cy="864" r="12" class="c0"/>
<circle cx="1098" cy="794" r="12" class="c0"/>
<circle cx="896" cy="64" r="12" class="c0"/>
<circle cx="916" cy="176" r="12" class="c0"/>
<circle cx="948" cy="244" r="12" class="c0"/>
<circle cx="942" cy="148" r="12" class="c0"/>
<circle cx="994" cy="22" r="12" class="c0"/>
<circle cx="866" cy="208" r="12" class="c0"/>
<circle cx="1130" cy="126" r="12" class="c0"/>
<circle cx="1038" cy="936" r="12" class="c0"/>
<circle cx="1038" cy="224" r="12" class="c0"/>
<circle cx="976" cy="326" r="12" class="c0"/>
<circle cx="918" cy="228" r="12" class="c0"/>
<circle cx="1158" cy="224" r="12" class="c0"/>
<circle cx="824" cy="238" r="12" class="c0"/>
<circle cx="1116" cy="826" r="12" class="c0"/>
<circle cx="1232" cy="166" r="12" class="c0"/>
<circle cx="862" cy="258" r="10" class="c0"/>
<circle cx="978" cy="1058" r="10" class="c0"/>
<circle cx="978" cy="1348" r="10" class="c0"/>
<circle cx="900" cy="266" r="10" class="c0"/>
<circle cx="774" cy="178" r="10" class="c0"/>
<circle cx="790" cy="218" r="10" class="c0"/>
<circle cx="934" cy="790" r="10" class="c0"/>
<circle cx="846" cy="812" r="10" class="c0"/>
<circle cx="988" cy="240" r="10" class="c0"/>
<circle cx="952" cy="1124" r="10" class="c0"/>
<circle cx="956" cy="178" r="10" class="c0"/>
<circle cx="786" cy="100" r="10" class="c0"/>
<circle cx="1218" cy="124" r="10" class="c0"/>
<circle cx="982" cy="756" r="10" class="c0"/>
<circle cx="1010" cy="316" r="10" class="c0"/>
<circle cx="956" cy="1344" r="10" class="c0"/>
<circle cx="1074" cy="312" r="10" class="c0"/>
<circle cx="1062" cy="1402" r="10" class="c0"/>
<circle cx="928" cy="1336" r="10" class="c0"/>
<circle cx="1216" cy="70" r="10" class="c0"/>
<circle cx="1048" cy="1418" r="10" class="c0"/>
<circle cx="750" cy="46" r="10" class="c0"/>
<circle cx="1256" cy="42" r="10" class="c0"/>
<circle cx="974" cy="946" r="10" class="c0"/>
<circle cx="764" cy="26" r="10" class="c0"/>
<circle cx="874" cy="1404" r="10" class="c0"/>
<circle cx="850" cy="1194" r="10" class="c0"/>
<circle cx="1032" cy="32" r="10" class="c0"/>
<circle cx="1276" cy="72" r="10" class="c0"/>
<circle cx="1040" cy="164" r="10" class="c0"/>
<circle cx="912" cy="886" r="10" class="c0"/>
<circle cx="1010" cy="956" r="10" class="c0"/>
<circle cx="1206" cy="92" r="10" class="c0"/>
<circle cx="1168" cy="24" r="10" class="c0"/>
<circle cx="968" cy="1268" r="10" class="c0"/>
<circle cx="818" cy="830" r="10" class="c0"/>
<circle cx="974" cy="442" r="10" class="c0"/>
<circle cx="852" cy="1220" r="10" class="c0"/>
<circle cx="732" cy="66" r="10" class="c0"/>
<circle cx="1132" cy="172" r="10" class="c0"/>
<circle cx="1042" cy="896" r="10" class="c0"/>
<circle cx="1020" cy="1006" r="10" class="c0"/>
<circle cx="1114" cy="210" r="10" class="c0"/>
<circle cx="976" cy="1234" r="10" class="c0"/>
<circle cx="932" cy="1150" r="10" class="c0"/>
<circle cx="970" cy="858" r="10" class="c0"/>
<circle cx="888" cy="990" r="10" class="c0"/>
<circle cx="802" cy="892" r="10" class="c0"/>
<circle cx="890" cy="1296" r="10" class="c0"/>
<circle cx="996" cy="98" r="10" class="c0"/>
<circle cx="836" cy="290" r="10" class="c0"/>
<circle cx="1220" cy="34" r="10" class="c0"/>
<circle cx="882" cy="1338" r="10" class="c0"/>
<circle cx="880" cy="944" r="10" class="c0"/>
<circle cx="952" cy="1036" r="10" class="c0"/>
<circle cx="970" cy="1302" r="10" class="c0"/>
<circle cx="1080" cy="346" r="10" class="c0"/>
<circle cx="1080" cy="286" r="10" class="c0"/>
<circle cx="1184" cy="132" r="10" class="c0"/>
<circle cx="970" cy="84" r="10" class="c0"/>
<circle cx="900" cy="1320" r="10" class="c0"/>
<circle cx="1062" cy="56" r="10" class="c0"/>
<circle cx="1008" cy="186" r="10" class="c0"/>
<circle cx="826" cy="1348" r="10" class="c0"/>
<circle cx="836" cy="1322" r="10" class="c0"/>
<circle cx="1258" cy="148" r="10" class="c0"/>
<circle cx="1018" cy="234" r="10" class="c0"/>
<circle cx="834" cy="1300" r="10" class="c0"/>
<circle cx="1254" cy="104" r="10" class="c0"/>
<circle cx="862" cy="290" r="10" class="c0"/>
<circle cx="864" cy="1108" r="10" class="c0"/>
<circle cx="1050" cy="188" r="10" class="c0"/>
<circle cx="1068" cy="722" r="10" class="c0"/>
<circle cx="916" cy="982" r="10" class="c0"/>
<circle cx="988" cy="388" r="10" class="c0"/>
<circle cx="918" cy="938" r="10" class="c0"/>
<circle cx="794" cy="44" r="10" class="c0"/>
<circle cx="950" cy="450" r="10" class="c0"/>
<circle cx="1032" cy="434" r="10" class="c0"/>
<circle cx="1022" cy="1336" r="10" class="c0"/>
<circle cx="1086" cy="254" r="10" class="c0"/>
<circle cx="852" cy="1382" r="10" class="c0"/>
<circle cx="992" cy="1152" r="10" class="c0"/>
<circle cx="1120" cy="936" r="10" class="c0"/>
<circle cx="1138" cy="776" r="10" class="c0"/>
<circle cx="972" cy="352" r="10" class="c0"/>
<circle cx="982" cy="1104" r="10" class="c0"/>
<circle cx="950" cy="210" r="10" class="c0"/>
<circle cx="988" cy="1368" r="10" class="c0"/>
<circle cx="1160" cy="254" r="10" class="c0"/>
<circle cx="1256" cy="824" r="10" class="c0"/>
<circle cx="918" cy="96" r="10" class="c0"/>
<circle cx="832" cy="942" r="10" class="c0"/>
<circle cx="1118" cy="160" r="10" class="c0"/>
<circle cx="954" cy="1096" r="10" class="c0"/>
<circle cx="906" cy="1124" r="10" class="c0"/>
<circle cx="1002" cy="1042" r="10" class="c0"/>
<circle cx="882" cy="126" r="10" class="c0"/>
<circle cx="786" cy="940" r="10" class="c0"/>
<circle cx="766" cy="82" r="10" class="c0"/>
<circle cx="864" cy="802" r="10" class="c0"/>
<circle cx="886" cy="862" r="10" class="c0"/>
<circle cx="868" cy="138" r="10" class="c0"/>
<circle cx="1128" cy="800" r="10" class="c0"/>
<circle cx="926" cy="1104" r="10" class="c0"/>
<circle cx="954" cy="1062" r="10" class="c0"/>
<circle cx="1238" cy="884" r="10" class="c0"/>
<circle cx="944" cy="860" r="10" class="c0"/>
<circle cx="1230" cy="212" r="10" class="c0"/>
<circle cx="820" cy="178" r="10" class="c0"/>
<circle cx="1072" cy="394" r="10" class="c0"/>
<circle cx="1094" cy="298" r="10" class="c0"/>
<circle cx="1002" cy="338" r="10" class="c0"/>
<circle cx="872" cy="240" r="10" class="c0"/>
<circle cx="930" cy="1252" r="10" class="c0"/>
<circle cx="1064" cy="364" r="10" class="c0"/>
<circle cx="904" cy="12" r="10" class="c0"/>
<circle cx="942" cy="76" r="10" class="c0"/>
<circle cx="876" cy="1278" r="10" class="c0"/>
<circle cx="1184" cy="834" r="10" class="c0"/>
<circle cx="1132" cy="312" r="10" class="c0"/>
<circle cx="850" cy="924" r="10" class="c0"/>
<circle cx="932" cy="1302" r="10" class="c0"/>
<circle cx="800" cy="1342" r="10" class="c0"/>
<circle cx="980" cy="786" r="10" class="c0"/>
<circle cx="884" cy="82" r="10" class="c0"/>
<circle cx="1144" cy="276" r="10" class="c0"/>
<circle cx="1240" cy="24" r="10" class="c0"/>
<circle cx="968" cy="994" r="10" class="c0"/>
<circle cx="878" cy="1370" r="10" class="c0"/>
<circle cx="942" cy="718" r="10" class="c0"/>
<circle cx="922" cy="68" r="10" class="c0"/>
<circle cx="834" cy="1256" r="10" class="c0"/>
<circle cx="1240" cy="836" r="10" class="c0"/>
<circle cx="902" cy="1200" r="10" class="c0"/>
<circle cx="922" cy="426" r="10" class="c0"/>
<circle cx="902" cy="1248" r="10" class="c0"/>
<circle cx="1104" cy="278" r="10" class="c0"/>
<circle cx="918" cy="836" r="10" class="c0"/>
<circle cx="1086" cy="762" r="10" class="c0"/>
<circle cx="1126" cy="908" r="10" class="c0"/>
<circle cx="720" cy="28" r="10" class="c0"/>
<circle cx="866" cy="34" r="10" class="c0"/>
<circle cx="1064" cy="14" r="10" class="c0"/>
<circle cx="976" cy="224" r="10" class="c0"/>
<circle cx="882" cy="168" r="10" class="c0"/>
<circle cx="1004" cy="754" r="10" class="c0"/>
<circle cx="948" cy="52" r="10" class="c0"/>
<circle cx="1198" cy="56" r="10" class="c0"/>
<circle cx="908" cy="858" r="10" class="c0"/>
<circle cx="994" cy="1206" r="10" class="c0"/>
<circle cx="978" cy="302" r="10" class="c0"/>
<circle cx="1096" cy="46" r="10" class="c0"/>
<circle cx="890" cy="104" r="10" class="c0"/>
<circle cx="840" cy="900" r="10" class="c0"/>
<circle cx="1092" cy="322" r="10" class="c0"/>
<circle cx="1042" cy="294" r="10" class="c0"/>
<circle cx="998" cy="810" r="10" class="c0"/>
<circle cx="1120" cy="242" r="10" class="c0"/>
<circle cx="848" cy="104" r="10" class="c0"/>
<circle cx="990" cy="414" r="10" class="c0"/>
<circle cx="1130" cy="82" r="10" class="c0"/>
<circle cx="1062" cy="126" r="10" class="c0"/>
<circle cx="1128" cy="868" r="10" class="c0"/>
<circle cx="1282" cy="32" r="10" class="c0"/>
<circle cx="1086" cy="894" r="10" class="c0"/>
<circle cx="1300" cy="22" r="10" class="c0"/>
<circle cx="1228" cy="90" r="10" class="c0"/>
<circle cx="1172" cy="200" r="10" class="c0"/>
<circle cx="904" cy="330" r="10" class="c0"/>
<circle cx="834" cy="120" r="10" class="c0"/>
<circle cx="1100" cy="914" r="10" class="c0"/>
<circle cx="900" cy="752" r="10" class="c0"/>
<circle cx="826" cy="98" r="10" class="c0"/>
<circle cx="1006" cy="1096" r="10" class="c0"/>
<circle cx="842" cy="32" r="10" class="c0"/>
<circle cx="1060" cy="254" r="10" class="c0"/>
<circle cx="920" cy="730" r="10" class="c0"/>
<circle cx="898" cy="1424" r="10" class="c0"/>
<circle cx="912" cy="118" r="10" class="c0"/>
<circle cx="966" cy="966" r="10" class="c0"/>
<circle cx="826" cy="18" r="10" class="c0"/>
<circle cx="1044" cy="268" r="10" class="c0"/>
<circle cx="886" cy="310" r="10" class="c0"/>
<circle cx="860" cy="58" r="10" class="c0"/>
<circle cx="882" cy="1138" r="10" class="c0"/>
<circle cx="1014" cy="140" r="10" class="c0"/>
<circle cx="728" cy="900" r="8" class="c0"/>
<circle cx="948" cy="828" r="8" class="c0"/>
<circle cx="1062" cy="148" r="8" class="c0"/>
<circle cx="1076" cy="868" r="8" class="c0"/>
<circle cx="824" cy="210" r="8" class="c0"/>
<circle cx="896" cy="184" r="8" class="c0"/>
<circle cx="942" cy="1218" r="8" class="c0"/>
<circle cx="1008" cy="118" r="8" class="c0"/>
<circle cx="928" cy="288" r="8" class="c0"/>
<circle cx="910" cy="1158" r="8" class="c0"/>
<circle cx="862" cy="170" r="8" class="c0"/>
<circle cx="922" cy="772" r="8" class="c0"/>
<circle cx="1220" cy="796" r="8" class="c0"/>
<circle cx="866" cy="94" r="8" class="c0"/>
<circle cx="1102" cy="100" r="8" class="c0"/>
<circle cx="910" cy="912" r="8" class="c0"/>
<circle cx="752" cy="8" r="8" class="c0"/>
<circle cx="1006" cy="1258" r="8" class="c0"/>
<circle cx="1038" cy="334" r="8" class="c0"/>
<circle cx="1036" cy="1112" r="8" class="c0"/>
<circle cx="970" cy="912" r="8" class="c0"/>
<circle cx="1074" cy="796" r="8" class="c0"/>
<circle cx="1040" cy="366" r="8" class="c0"/>
<circle cx="1182" cy="906" r="8" class="c0"/>
<circle cx="1032" cy="736" r="8" class="c0"/>
<circle cx="952" cy="1004" r="8" class="c0"/>
<circle cx="1058" cy="878" r="8" class="c0"/>
<circle cx="1188" cy="36" r="8" class="c0"/>
<circle cx="966" cy="736" r="8" class="c0"/>
<circle cx="904" cy="158" r="8" class="c0"/>
<circle cx="1158" cy="178" r="8" class="c0"/>
<circle cx="1004" cy="264" r="8" class="c0"/>
<circle cx="1146" cy="148" r="8" class="c0"/>
<circle cx="1106" cy="176" r="8" class="c0"/>
<circle cx="896" cy="784" r="8" class="c0"/>
<circle cx="1108" cy="876" r="8" class="c0"/>
<circle cx="1002" cy="1318" r="8" class="c0"/>
<circle cx="1000" cy="890" r="8" class="c0"/>
<circle cx="1154" cy="44" r="8" class="c0"/>
<circle cx="1174" cy="116" r="8" class="c0"/>
<circle cx="910" cy="806" r="8" class="c0"/>
<circle cx="1020" cy="1076" r="8" class="c0"/>
<circle cx="1172" cy="774" r="8" class="c0"/>
<circle cx="940" cy="470" r="8" class="c0"/>
<circle cx="1180" cy="298" r="8" class="c0"/>
<circle cx="1030" cy="862" r="8" class="c0"/>
<circle cx="1190" cy="208" r="8" class="c0"/>
<circle cx="960" cy="392" r="8" class="c0"/>
<circle cx="962" cy="758" r="8" class="c0"/>
<circle cx="926" cy="200" r="8" class="c0"/>
<circle cx="1116" cy="302" r="8" class="c0"/>
<circle cx="1050" cy="766" r="8" class="c0"/>
<circle cx="888" cy="806" r="8" class="c0"/>
<circle cx="1214" cy="816" r="8" class="c0"/>
<circle cx="1138" cy="828" r="8" class="c0"/>
<circle cx="924" cy="696" r="8" class="c0"/>
<circle cx="824" cy="1370" r="8" class="c0"/>
<circle cx="744" cy="892" r="8" class="c0"/>
<circle cx="1030" cy="70" r="8" class="c0"/>
<circle cx="1088" cy="166" r="8" class="c0"/>
<circle cx="990" cy="366" r="8" class="c0"/>
<circle cx="998" cy="912" r="8" class="c0"/>
<circle cx="1100" cy="944" r="8" class="c0"/>
<circle cx="928" cy="402" r="8" class="c0"/>
<circle cx="1164" cy="852" r="8" class="c0"/>
<circle cx="980" cy="270" r="8" class="c0"/>
<circle cx="1158" cy="814" r="8" class="c0"/>
<circle cx="970" cy="48" r="8" class="c0"/>
<circle cx="1108" cy="770" r="8" class="c0"/>
<circle cx="882" cy="196" r="8" class="c0"/>
<circle cx="874" cy="976" r="8" class="c0"/>
<circle cx="786" cy="912" r="8" class="c0"/>
<circle cx="974" cy="1022" r="8" class="c0"/>
<circle cx="878" cy="788" r="8" class="c0"/>
<circle cx="770" cy="1412" r="8" class="c0"/>
<circle cx="876" cy="1076" r="8" class="c0"/>
<circle cx="842" cy="214" r="8" class="c0"/>
<circle cx="1026" cy="198" r="8" class="c0"/>
<circle cx="952" cy="690" r="8" class="c0"/>
<circle cx="1108" cy="58" r="8" class="c0"/>
<circle cx="984" cy="66" r="8" class="c0"/>
<circle cx="870" cy="1012" r="8" class="c0"/>
<circle cx="980" cy="476" r="8" class="c0"/>
<circle cx="1130" cy="288" r="8" class="c0"/>
<circle cx="1024" cy="104" r="8" class="c0"/>
<circle cx="800" cy="1370" r="8" class="c0"/>
<circle cx="858" cy="1414" r="8" class="c0"/>
<circle cx="1024" cy="1382" r="8" class="c0"/>
<circle cx="888" cy="842" r="8" class="c0"/>
<circle cx="1014" cy="1430" r="8" class="c0"/>
<circle cx="834" cy="1278" r="8" class="c0"/>
<circle cx="942" cy="18" r="8" class="c0"/>
<circle cx="942" cy="338" r="8" class="c0"/>
<circle cx="1208" cy="252" r="8" class="c0"/>
<circle cx="898" cy="1176" r="8" class="c0"/>
<circle cx="762" cy="104" r="8" class="c0"/>
<circle cx="846" cy="236" r="8" class="c0"/>
<circle cx="806" cy="262" r="8" class="c0"/>
<circle cx="882" cy="1166" r="8" class="c0"/>
<circle cx="802" cy="1426" r="8" class="c0"/>
<circle cx="1174" cy="266" r="8" class="c0"/>
<circle cx="946" cy="318" r="8" class="c0"/>
<circle cx="956" cy="1238" r="8" class="c0"/>
<circle cx="810" cy="114" r="8" class="c0"/>
<circle cx="902" cy="1274" r="8" class="c0"/>
<circle cx="1016" cy="800" r="8" class="c0"/>
<circle cx="778" cy="1392" r="8" class="c0"/>
<circle cx="952" cy="480" r="8" class="c0"/>
<circle cx="784" cy="28" r="8" class="c0"/>
<circle cx="1012" cy="408" r="8" class="c0"/>
<circle cx="1112" cy="364" r="8" class="c0"/>
<circle cx="970" cy="1150" r="8" class="c0"/>
<circle cx="902" cy="244" r="8" class="c0"/>
<circle cx="838" cy="1416" r="8" class="c0"/>
<circle cx="1002" cy="1018" r="8" class="c0"/>
<circle cx="896" cy="966" r="8" class="c0"/>
<circle cx="990" cy="1074" r="8" class="c0"/>
<circle cx="968" cy="1210" r="8" class="c0"/>
<circle cx="1114" cy="894" r="8" class="c0"/>
<circle cx="956" cy="810" r="8" class="c0"/>
<circle cx="1034" cy="710" r="8" class="c0"/>
<circle cx="1062" cy="1430" r="8" class="c0"/>
<circle cx="1192" cy="190" r="8" class="c0"/>
<circle cx="950" cy="1278" r="8" class="c0"/>
<circle cx="1226" cy="188" r="8" class="c0"/>
<circle cx="1000" cy="1348" r="8" class="c0"/>
<circle cx="938" cy="1052" r="8" class="c0"/>
<circle cx="924" cy="22" r="8" class="c0"/>
<circle cx="968" cy="530" r="8" class="c0"/>
<circle cx="1132" cy="346" r="8" class="c0"/>
<circle cx="918" cy="140" r="8" class="c0"/>
<circle cx="900" cy="1392" r="8" class="c0"/>
<circle cx="1210" cy="164" r="8" class="c0"/>
<circle cx="956" cy="892" r="8" class="c0"/>
<circle cx="1290" cy="58" r="8" class="c0"/>
<circle cx="816" cy="862" r="8" class="c0"/>
<circle cx="1176" cy="50" r="8" class="c0"/>
<circle cx="924" cy="448" r="8" class="c0"/>
<circle cx="874" cy="898" r="8" class="c0"/>
<circle cx="1106" cy="10" r="8" class="c0"/>
<circle cx="1244" cy="810" r="8" class="c0"/>
<circle cx="1072" cy="748" r="8" class="c0"/>
<circle cx="1024" cy="52" r="8" class="c0"/>
<circle cx="996" cy="848" r="8" class="c0"/>
<circle cx="952" cy="946" r="8" class="c0"/>
<circle cx="1118" cy="782" r="8" class="c0"/>
<circle cx="790" cy="1358" r="8" class="c0"/>
<circle cx="896" cy="30" r="8" class="c0"/>
<circle cx="992" cy="1392" r="8" class="c0"/>
<circle cx="1056" cy="790" r="8" class="c0"/>
<circle cx="1156" cy="318" r="8" class="c0"/>
<circle cx="906" cy="1080" r="8" class="c0"/>
<circle cx="1056" cy="280" r="8" class="c0"/>
<circle cx="900" cy="354" r="8" class="c0"/>
<circle cx="1092" cy="148" r="8" class="c0"/>
<circle cx="950" cy="110" r="8" class="c0"/>
<circle cx="794" cy="70" r="8" class="c0"/>
<circle cx="1034" cy="388" r="8" class="c0"/>
<circle cx="946" cy="1174" r="8" class="c0"/>
<circle cx="740" cy="20" r="8" class="c0"/>
<circle cx="1254" cy="174" r="8" class="c0"/>
<circle cx="1230" cy="110" r="8" class="c0"/>
<circle cx="1002" cy="458" r="8" class="c0"/>
<circle cx="966" cy="162" r="8" class="c0"/>
<circle cx="1044" cy="724" r="8" class="c0"/>
<circle cx="864" cy="322" r="8" class="c0"/>
<circle cx="1028" cy="1148" r="8" class="c0"/>
<circle cx="1006" cy="710" r="8" class="c0"/>
<circle cx="1204" cy="16" r="8" class="c0"/>
<circle cx="772" cy="128" r="8" class="c0"/>
<circle cx="984" cy="1252" r="8" class="c0"/>
<circle cx="894" cy="824" r="8" class="c0"/>
<circle cx="1270" cy="10" r="8" class="c0"/>
<circle cx="790" cy="146" r="8" class="c0"/>
<circle cx="854" cy="80" r="8" class="c0"/>
<circle cx="874" cy="1042" r="8" class="c0"/>
<circle cx="816" cy="46" r="8" class="c0"/>
<circle cx="1262" cy="128" r="8" class="c0"/>
<circle cx="858" cy="1270" r="8" class="c0"/>
<circle cx="814" cy="914" r="8" class="c0"/>
<circle cx="766" cy="910" r="8" class="c0"/>
<circle cx="1002" cy="868" r="8" class="c0"/>
<circle cx="930" cy="1036" r="8" class="c0"/>
<circle cx="998" cy="1234" r="8" class="c0"/>
<circle cx="884" cy="396" r="8" class="c0"/>
<circle cx="1006" cy="682" r="8" class="c0"/>
<circle cx="934" cy="1414" r="8" class="c0"/>
<circle cx="966" cy="1398" r="8" class="c0"/>
<circle cx="942" cy="274" r="8" class="c0"/>
<circle cx="848" cy="150" r="8" class="c0"/>
<circle cx="1280" cy="102" r="8" class="c0"/>
<circle cx="954" cy="928" r="8" class="c0"/>
<circle cx="986" cy="828" r="8" class="c0"/>
<circle cx="1058" cy="330" r="8" class="c0"/>
<circle cx="1084" cy="186" r="8" class="c0"/>
<circle cx="1184" cy="888" r="8" class="c0"/>
<circle cx="1070" cy="236" r="8" class="c0"/>
<circle cx="1064" cy="208" r="8" class="c0"/>
<circle cx="890" cy="918" r="8" class="c0"/>
<circle cx="842" cy="834" r="8" class="c0"/>
<circle cx="1186" cy="238" r="8" class="c0"/>
<circle cx="1006" cy="374" r="8" class="c0"/>
<circle cx="834" cy="256" r="8" class="c0"/>
<circle cx="1040" cy="826" r="8" class="c0"/>
<circle cx="880" cy="46" r="8" class="c0"/>
<circle cx="1024" cy="752" r="8" class="c0"/>
<circle cx="1168" cy="152" r="8" class="c0"/>
<circle cx="1238" cy="142" r="8" class="c0"/>
<circle cx="998" cy="1300" r="8" class="c0"/>
<circle cx="1066" cy="904" r="8" class="c0"/>
<circle cx="1146" cy="14" r="8" class="c0"/>
<circle cx="880" cy="1318" r="8" class="c0"/>
<circle cx="1162" cy="126" r="8" class="c0"/>
<circle cx="994" cy="970" r="8" class="c0"/>
<circle cx="1030" cy="130" r="8" class="c0"/>
<circle cx="954" cy="1416" r="8" class="c0"/>
<circle cx="938" cy="186" r="8" class="c0"/>
<circle cx="882" cy="334" r="8" class="c0"/>
<circle cx="1000" cy="152" r="8" class="c0"/>
<circle cx="1050" cy="82" r="8" class="c0"/>
<circle cx="1140" cy="932" r="8" class="c0"/>
<circle cx="1106" cy="120" r="8" class="c0"/>
<circle cx="932" cy="1126" r="8" class="c0"/>
<circle cx="926" cy="1174" r="8" class="c0"/>
<circle cx="1030" cy="180" r="8" class="c0"/>
<circle cx="1084" cy="128" r="8" class="c0"/>
<circle cx="1118" cy="186" r="8" class="c0"/>
<circle cx="1016" cy="1130" r="8" class="c0"/>
<circle cx="836" cy="1210" r="8" class="c0"/>
<circle cx="1140" cy="196" r="8" class="c0"/>
<circle cx="950" cy="362" r="8" class="c0"/>
<circle cx="978" cy="1124" r="8" class="c0"/>
<circle cx="796" cy="12" r="8" class="c0"/>
<circle cx="1164" cy="286" r="8" class="c0"/>
<circle cx="864" cy="1056" r="8" class="c0"/>
<circle cx="768" cy="890" r="8" class="c0"/>
<circle cx="1012" cy="1284" r="8" class="c0"/>
<circle cx="1262" cy="888" r="8" class="c0"/>
<circle cx="1154" cy="84" r="8" class="c0"/>
<circle cx="888" cy="1060" r="8" class="c0"/>
<circle cx="860" cy="908" r="8" class="c0"/>
<circle cx="1230" cy="864" r="8" class="c0"/>
<circle cx="942" cy="1080" r="8" class="c0"/>
<circle cx="966" cy="464" r="8" class="c0"/>
<circle cx="1248" cy="866" r="8" class="c0"/>
<circle cx="984" cy="924" r="8" class="c0"/>
<circle cx="798" cy="958" r="8" class="c0"/>
<circle cx="926" cy="962" r="8" class="c0"/>
<circle cx="1000" cy="206" r="8" class="c0"/>
<circle cx="910" cy="1218" r="8" class="c0"/>
<circle cx="816" cy="282" r="8" class="c0"/>
<circle cx="928" cy="348" r="8" class="c0"/>
<circle cx="1004" cy="438" r="8" class="c0"/>
<circle cx="770" cy="154" r="8" class="c0"/>
<circle cx="1012" cy="736" r="8" class="c0"/>
<circle cx="996" cy="50" r="8" class="c0"/>
<circle cx="964" cy="16" r="8" class="c0"/>
<circle cx="888" cy="1090" r="8" class="c0"/>
<circle cx="926" cy="262" r="8" class="c0"/>
<circle cx="1028" cy="844" r="8" class="c0"/>
<circle cx="880" cy="222" r="8" class="c0"/>
<circle cx="858" cy="1152" r="8" class="c0"/>
<circle cx="1058" cy="820" r="8" class="c0"/>
<circle cx="918" cy="1396" r="8" class="c0"/>
<circle cx="950" cy="420" r="8" class="c0"/>
<circle cx="946" cy="976" r="8" class="c0"/>
<circle cx="902" cy="1354" r="8" class="c0"/>
<circle cx="924" cy="1428" r="8" class="c0"/>
<circle cx="1164" cy="60" r="8" class="c0"/>
<circle cx="804" cy="932" r="8" class="c0"/>
<circle cx="932" cy="1004" r="8" class="c0"/>
<circle cx="926" cy="920" r="8" class="c0"/>
<circle cx="1006" cy="1170" r="8" class="c0"/>
<circle cx="1082" cy="206" r="8" class="c0"/>
<circle cx="910" cy="1008" r="8" class="c0"/>
<circle cx="1156" cy="918" r="8" class="c0"/>
<circle cx="970" cy="628" r="8" class="c0"/>
<circle cx="944" cy="1316" r="8" class="c0"/>
<circle cx="1136" cy="62" r="8" class="c0"/>
<circle cx="1094" cy="24" r="8" class="c0"/>
<circle cx="912" cy="410" r="8" class="c0"/>
<circle cx="782" cy="878" r="8" class="c0"/>
<circle cx="802" cy="816" r="8" class="c0"/>
<circle cx="966" cy="410" r="8" class="c0"/>
<circle cx="836" cy="76" r="8" class="c0"/>
<circle cx="882" cy="1022" r="8" class="c0"/>
<circle cx="1018" cy="1184" r="8" class="c0"/>
<circle cx="876" cy="16" r="8" class="c0"/>
<circle cx="856" cy="342" r="8" class="c0"/>
<circle cx="1096" cy="380" r="8" class="c0"/>
<circle cx="776" cy="924" r="8" class="c0"/>
<circle cx="856" cy="1246" r="8" class="c0"/>
<circle cx="1048" cy="692" r="8" class="c0"/>
<circle cx="1066" cy="170" r="8" class="c0"/>
<circle cx="984" cy="1006" r="8" class="c0"/>
<circle cx="1034" cy="1358" r="8" class="c0"/>
<circle cx="1004" cy="784" r="8" class="c0"/>
<circle cx="824" cy="64" r="8" class="c0"/>
<circle cx="940" cy="768" r="8" class="c0"/>
<circle cx="930" cy="750" r="8" class="c0"/>
<circle cx="920" cy="1284" r="8" class="c0"/>
<circle cx="1058" cy="922" r="8" class="c0"/>
<circle cx="1020" cy="160" r="8" class="c0"/>
<circle cx="986" cy="1286" r="8" class="c0"/>
<circle cx="806" cy="32" r="8" class="c0"/>
<circle cx="1110" cy="84" r="8" class="c0"/>
<circle cx="1038" cy="1132" r="8" class="c0"/>
<circle cx="1154" cy="766" r="8" class="c0"/>
<circle cx="1044" cy="114" r="8" class="c0"/>
<circle cx="1072" cy="844" r="8" class="c0"/>
<circle cx="776" cy="12" r="8" class="c0"/>
<circle cx="938" cy="812" r="8" class="c0"/>
<circle cx="1180" cy="92" r="8" class="c0"/>
<circle cx="1210" cy="886" r="8" class="c0"/>
<circle cx="900" cy="902" r="8" class="c0"/>
<circle cx="1000" cy="938" r="8" class="c0"/>
<circle cx="968" cy="646" r="8" class="c0"/>
<circle cx="728" cy="924" r="8" class="c0"/>
<circle cx="1268" cy="92" r="8" class="c0"/>
<circle cx="994" cy="990" r="8" class="c0"/>
<circle cx="1066" cy="938" r="8" class="c0"/>
<circle cx="1246" cy="66" r="8" class="c0"/>
<circle cx="800" cy="164" r="8" class="c0"/>
<circle cx="1028" cy="324" r="8" class="c0"/>
<circle cx="978" cy="506" r="8" class="c0"/>
<circle cx="934" cy="1356" r="8" class="c0"/>
<circle cx="906" cy="84" r="8" class="c0"/>
<circle cx="824" cy="890" r="8" class="c0"/>
<circle cx="864" cy="116" r="8" class="c0"/>
<circle cx="908" cy="204" r="8" class="c0"/>
<circle cx="856" cy="10" r="8" class="c0"/>
<circle cx="1200" cy="226" r="8" class="c0"/>
<circle cx="1054" cy="32" r="8" class="c0"/>
<circle cx="958" cy="782" r="8" class="c0"/>
<circle cx="956" cy="500" r="8" class="c0"/>
<circle cx="986" cy="162" r="8" class="c0"/>
<circle cx="740" cy="86" r="8" class="c0"/>
<circle cx="1182" cy="74" r="8" class="c0"/>
<circle cx="1022" cy="1312" r="8" class="c0"/>
<circle cx="804" cy="1322" r="8" class="c0"/>
<circle cx="1024" cy="302" r="8" class="c0"/>
<circle cx="854" cy="310" r="8" class="c0"/>
<circle cx="842" cy="1236" r="8" class="c0"/>
<circle cx="992" cy="1186" r="8" class="c0"/>
<circle cx="1010" cy="978" r="8" class="c0"/>
<circle cx="768" cy="1430" r="8" class="c0"/>
<circle cx="894" cy="382" r="8" class="c0"/>
<circle cx="1116" cy="110" r="8" class="c0"/>
<circle cx="956" cy="846" r="8" class="c0"/>
<circle cx="994" cy="660" r="8" class="c0"/>
<circle cx="1024" cy="262" r="8" class="c0"/>
<circle cx="998" cy="1126" r="8" class="c0"/>
<circle cx="844" cy="864" r="8" class="c0"/>
<circle cx="930" cy="876" r="8" class="c0"/>
<circle cx="798" cy="1390" r="8" class="c0"/>
<circle cx="1028" cy="682" r="8" class="c0"/>
<circle cx="1054" cy="380" r="8" class="c0"/>
<circle cx="1126" cy="266" r="8" class="c0"/>
<circle cx="860" cy="1132" r="8" class="c0"/>
<circle cx="1260" cy="22" r="8" class="c0"/>
<circle cx="1124" cy="14" r="8" class="c0"/>
<circle cx="802" cy="230" r="8" class="c0"/>
<circle cx="978" cy="894" r="8" class="c0"/>
<circle cx="1244" cy="122" r="8" class="c0"/>
<circle cx="1042" cy="804" r="8" class="c0"/>
<circle cx="1042" cy="14" r="8" class="c0"/>
<circle cx="868" cy="1258" r="8" class="c0"/>
<circle cx="764" cy="58" r="8" class="c0"/>
<circle cx="836" cy="164" r="8" class="c0"/>
<circle cx="844" cy="266" r="8" class="c0"/>
<circle cx="802" cy="130" r="8" class="c0"/>
<circle cx="916" cy="1264" r="8" class="c0"/>
<circle cx="1272" cy="840" r="8" class="c0"/>
<circle cx="1108" cy="140" r="8" class="c0"/>
<circle cx="926" cy="330" r="8" class="c0"/>
<circle cx="746" cy="160" r="8" class="c0"/>
<circle cx="944" cy="380" r="8" class="c0"/>
<circle cx="1010" cy="836" r="8" class="c0"/>
<circle cx="1084" cy="930" r="8" class="c0"/>
<circle cx="768" cy="202" r="8" class="c0"/>
<circle cx="920" cy="1232" r="8" class="c0"/>
<circle cx="976" cy="108" r="8" class="c0"/>
<circle cx="1158" cy="784" r="8" class="c0"/>
<circle cx="814" cy="880" r="8" class="c0"/>
<circle cx="868" cy="1234" r="8" class="c0"/>
<circle cx="822" cy="1424" r="8" class="c0"/>
<circle cx="1062" cy="298" r="8" class="c0"/>
<circle cx="1220" cy="146" r="8" class="c0"/>
<circle cx="1192" cy="112" r="8" class="c0"/>
<circle cx="948" cy="742" r="8" class="c0"/>
<circle cx="966" cy="260" r="8" class="c0"/>
<circle cx="906" cy="42" r="8" class="c0"/>
<circle cx="1186" cy="280" r="8" class="c0"/>
<circle cx="724" cy="8" r="8" class="c0"/>
<circle cx="978" cy="806" r="8" class="c0"/>
<circle cx="1186" cy="12" r="8" class="c0"/>
<circle cx="900" cy="292" r="8" class="c0"/>
<circle cx="886" cy="1262" r="8" class="c0"/>
<circle cx="1154" cy="942" r="8" class="c0"/>
<circle cx="970" cy="1084" r="8" class="c0"/>
<circle cx="966" cy="1328" r="8" class="c0"/>
<circle cx="870" cy="920" r="8" class="c0"/>
<circle cx="1058" cy="704" r="8" class="c0"/>
<circle cx="872" cy="1184" r="8" class="c0"/>
<circle cx="880" cy="274" r="8" class="c0"/>
<circle cx="810" cy="86" r="8" class="c0"/>
<circle cx="814" cy="1304" r="8" class="c0"/>
<circle cx="1008" cy="922" r="8" class="c0"/>
<circle cx="900" cy="928" r="8" class="c0"/>
<circle cx="824" cy="924" r="8" class="c0"/>
<circle cx="984" cy="1320" r="8" class="c0"/>
<circle cx="826" cy="810" r="8" class="c0"/>
<circle cx="954" cy="32" r="8" class="c0"/>
<circle cx="938" cy="838" r="8" class="c0"/>
<circle cx="936" cy="124" r="8" class="c0"/>
<circle cx="966" cy="836" r="8" class="c0"/>
<circle cx="892" cy="232" r="8" class="c0"/>
<circle cx="1144" cy="848" r="8" class="c0"/>
<circle cx="874" cy="1426" r="8" class="c0"/>
<circle cx="850" cy="1286" r="8" class="c0"/>
<circle cx="1032" cy="246" r="8" class="c0"/>
<circle cx="1192" cy="262" r="8" class="c0"/>
<circle cx="1022" cy="700" r="8" class="c0"/>
<circle cx="1298" cy="42" r="8" class="c0"/>
<circle cx="1048" cy="314" r="8" class="c0"/>
<circle cx="1040" cy="60" r="8" class="c0"/>
<circle cx="1016" cy="1056" r="8" class="c0"/>
<circle cx="940" cy="1392" r="8" class="c0"/>
<circle cx="952" cy="1154" r="8" class="c0"/>
<circle cx="994" cy="1268" r="8" class="c0"/>
<circle cx="1074" cy="42" r="8" class="c0"/>
<circle cx="796" cy="1408" r="8" class="c0"/>
<circle cx="744" cy="912" r="8" class="c0"/>
<circle cx="1268" cy="54" r="8" class="c0"/>
<circle cx="890" cy="768" r="6" class="c0"/>
<circle cx="1008" cy="220" r="6" class="c0"/>
<circle cx="1118" cy="68" r="6" class="c0"/>
<circle cx="940" cy="434" r="6" class="c0"/>
<circle cx="1262" cy="850" r="6" class="c0"/>
<circle cx="948" cy="878" r="6" class="c0"/>
<circle cx="1222" cy="232" r="6" class="c0"/>
<circle cx="916" cy="1414" r="6" class="c0"/>
<circle cx="848" cy="328" r="6" class="c0"/>
<circle cx="960" cy="70" r="6" class="c0"/>
<circle cx="1052" cy="748" r="6" class="c0"/>
<circle cx="838" cy="308" r="6" class="c0"/>
<circle cx="856" cy="224" r="6" class="c0"/>
<circle cx="1044" cy="144" r="6" class="c0"/>
<circle cx="1212" cy="196" r="6" class="c0"/>
<circle cx="1056" cy="734" r="6" class="c0"/>
<circle cx="788" cy="832" r="6" class="c0"/>
<circle cx="904" cy="392" r="6" class="c0"/>
<circle cx="928" cy="852" r="6" class="c0"/>
<circle cx="1040" cy="1396" r="6" class="c0"/>
<circle cx="1018" cy="424" r="6" class="c0"/>
<circle cx="1020" cy="722" r="6" class="c0"/>
<circle cx="850" cy="1168" r="6" class="c0"/>
<circle cx="1072" cy="774" r="6" class="c0"/>
<circle cx="1300" cy="86" r="6" class="c0"/>
<circle cx="1012" cy="852" r="6" class="c0"/>
<circle cx="1032" cy="412" r="6" class="c0"/>
<circle cx="1112" cy="30" r="6" class="c0"/>
<circle cx="1096" cy="354" r="6" class="c0"/>
<circle cx="1026" cy="1096" r="6" class="c0"/>
<circle cx="914" cy="1186" r="6" class="c0"/>
<circle cx="1242" cy="190" r="6" class="c0"/>
<circle cx="1074" cy="1418" r="6" class="c0"/>
<circle cx="950" cy="1192" r="6" class="c0"/>
<circle cx="1142" cy="336" r="6" class="c0"/>
<circle cx="1142" cy="898" r="6" class="c0"/>
<circle cx="1052" cy="352" r="6" class="c0"/>
<circle cx="964" cy="370" r="6" class="c0"/>
<circle cx="960" cy="712" r="6" class="c0"/>
<circle cx="836" cy="1390" r="6" class="c0"/>
<circle cx="1016" cy="90" r="6" class="c0"/>
<circle cx="1134" cy="886" r="6" class="c0"/>
<circle cx="966" cy="1112" r="6" class="c0"/>
<circle cx="884" cy="1390" r="6" class="c0"/>
<circle cx="1128" cy="220" r="6" class="c0"/>
<circle cx="752" cy="72" r="6" class="c0"/>
<circle cx="844" cy="1354" r="6" class="c0"/>
<circle cx="1088" cy="366" r="6" class="c0"/>
<circle cx="944" cy="400" r="6" class="c0"/>
<circle cx="1070" cy="272" r="6" class="c0"/>
<circle cx="854" cy="852" r="6" class="c0"/>
<circle cx="978" cy="876" r="6" class="c0"/>
<circle cx="1252" cy="84" r="6" class="c0"/>
<circle cx="994" cy="730" r="6" class="c0"/>
<circle cx="1026" cy="10" r="6" class="c0"/>
<circle cx="1030" cy="814" r="6" class="c0"/>
<circle cx="890" cy="1108" r="6" class="c0"/>
<circle cx="856" cy="948" r="6" class="c0"/>
<circle cx="712" cy="62" r="6" class="c0"/>
<circle cx="830" cy="846" r="6" class="c0"/>
<circle cx="1048" cy="240" r="6" class="c0"/>
<circle cx="1154" cy="162" r="6" class="c0"/>
<circle cx="882" cy="254" r="6" class="c0"/>
<circle cx="964" cy="1048" r="6" class="c0"/>
<circle cx="892" cy="208" r="6" class="c0"/>
<circle cx="1088" cy="110" r="6" class="c0"/>
<circle cx="1248" cy="210" r="6" class="c0"/>
<circle cx="852" cy="1430" r="6" class="c0"/>
<circle cx="784" cy="1424" r="6" class="c0"/>
<circle cx="730" cy="42" r="6" class="c0"/>
<circle cx="894" cy="1012" r="6" class="c0"/>
<circle cx="1224" cy="12" r="6" class="c0"/>
<circle cx="1006" cy="168" r="6" class="c0"/>
<circle cx="884" cy="1224" r="6" class="c0"/>
<circle cx="1166" cy="904" r="6" class="c0"/>
<circle cx="1210" cy="216" r="6" class="c0"/>
<circle cx="900" cy="1100" r="6" class="c0"/>
<circle cx="1008" cy="1194" r="6" class="c0"/>
<circle cx="982" cy="6" r="6" class="c0"/>
<circle cx="1160" cy="100" r="6" class="c0"/>
<circle cx="1202" cy="136" r="6" class="c0"/>
<circle cx="906" cy="1338" r="6" class="c0"/>
<circle cx="1008" cy="38" r="6" class="c0"/>
<circle cx="1032" cy="1426" r="6" class="c0"/>
<circle cx="1198" cy="818" r="6" class="c0"/>
<circle cx="756" cy="172" r="6" class="c0"/>
<circle cx="848" cy="1014" r="6" class="c0"/>
<circle cx="920" cy="1138" r="6" class="c0"/>
<circle cx="938" cy="938" r="6" class="c0"/>
<circle cx="920" cy="818" r="6" class="c0"/>
<circle cx="780" cy="56" r="6" class="c0"/>
<circle cx="834" cy="876" r="6" class="c0"/>
<circle cx="858" cy="1364" r="6" class="c0"/>
<circle cx="1220" cy="854" r="6" class="c0"/>
<circle cx="994" cy="1332" r="6" class="c0"/>
<circle cx="780" cy="1372" r="6" class="c0"/>
<circle cx="836" cy="54" r="6" class="c0"/>
<circle cx="1150" cy="294" r="6" class="c0"/>
<circle cx="840" cy="6" r="6" class="c0"/>
<circle cx="778" cy="956" r="6" class="c0"/>
<circle cx="920" cy="156" r="6" class="c0"/>
<circle cx="1154" cy="834" r="6" class="c0"/>
<circle cx="1008" cy="248" r="6" class="c0"/>
<circle cx="1172" cy="874" r="6" class="c0"/>
<circle cx="956" cy="132" r="6" class="c0"/>
<circle cx="994" cy="294" r="6" class="c0"/>
<circle cx="966" cy="200" r="6" class="c0"/>
<circle cx="1018" cy="1110" r="6" class="c0"/>
<circle cx="1048" cy="98" r="6" class="c0"/>
<circle cx="974" cy="722" r="6" class="c0"/>
<circle cx="1026" cy="1036" r="6" class="c0"/>
<circle cx="1018" cy="446" r="6" class="c0"/>
<circle cx="916" cy="712" r="6" class="c0"/>
<circle cx="894" cy="1232" r="6" class="c0"/>
<circle cx="806" cy="60" r="6" class="c0"/>
<circle cx="910" cy="1300" r="6" class="c0"/>
<circle cx="952" cy="94" r="6" class="c0"/>
<circle cx="772" cy="42" r="6" class="c0"/>
<circle cx="1022" cy="822" r="6" class="c0"/>
<circle cx="1024" cy="878" r="6" class="c0"/>
<circle cx="984" cy="960" r="6" class="c0"/>
<circle cx="814" cy="950" r="6" class="c0"/>
<circle cx="932" cy="40" r="6" class="c0"/>
<circle cx="1236" cy="234" r="6" class="c0"/>
<circle cx="946" cy="1260" r="6" class="c0"/>
<circle cx="978" cy="1382" r="6" class="c0"/>
<circle cx="1084" cy="806" r="6" class="c0"/>
<circle cx="1200" cy="174" r="6" class="c0"/>
<circle cx="1288" cy="8" r="6" class="c0"/>
<circle cx="942" cy="992" r="6" class="c0"/>
<circle cx="814" cy="196" r="6" class="c0"/>
<circle cx="1228" cy="54" r="6" class="c0"/>
<circle cx="952" cy="910" r="6" class="c0"/>
<circle cx="1092" cy="866" r="6" class="c0"/>
<circle cx="816" cy="1334" r="6" class="c0"/>
<circle cx="1146" cy="244" r="6" class="c0"/>
<circle cx="886" cy="1240" r="6" class="c0"/>
<circle cx="984" cy="1040" r="6" class="c0"/>
<circle cx="812" cy="1360" r="6" class="c0"/>
<circle cx="900" cy="134" r="6" class="c0"/>
<circle cx="842" cy="794" r="6" class="c0"/>
<circle cx="960" cy="338" r="6" class="c0"/>
<circle cx="970" cy="280" r="6" class="c0"/>
<circle cx="978" cy="978" r="6" class="c0"/>
<circle cx="974" cy="30" r="6" class="c0"/>
<circle cx="910" cy="280" r="6" class="c0"/>
<circle cx="846" cy="1400" r="6" class="c0"/>
<circle cx="1198" cy="900" r="6" class="c0"/>
<circle cx="940" cy="1432" r="6" class="c0"/>
<circle cx="966" cy="118" r="6" class="c0"/>
<circle cx="1170" cy="310" r="6" class="c0"/>
<circle cx="1016" cy="18" r="6" class="c0"/>
<circle cx="1104" cy="342" r="6" class="c0"/>
<circle cx="1182" cy="956" r="6" class="c0"/>
<circle cx="870" cy="850" r="6" class="c0"/>
<circle cx="936" cy="1376" r="6" class="c0"/>
<circle cx="942" cy="1014" r="6" class="c0"/>
<circle cx="888" cy="150" r="6" class="c0"/>
<circle cx="896" cy="1374" r="6" class="c0"/>
<circle cx="764" cy="218" r="6" class="c0"/>
<circle cx="1076" cy="914" r="6" class="c0"/>
<circle cx="1176" cy="182" r="6" class="c0"/>
<circle cx="1068" cy="192" r="6" class="c0"/>
<circle cx="998" cy="474" r="6" class="c0"/>
<circle cx="1094" cy="196" r="6" class="c0"/>
<circle cx="918" cy="1314" r="6" class="c0"/>
<circle cx="1274" cy="118" r="6" class="c0"/>
<circle cx="1212" cy="868" r="6" class="c0"/>
<circle cx="1278" cy="132" r="6" class="c0"/>
<circle cx="970" cy="490" r="6" class="c0"/>
<circle cx="878" cy="1120" r="6" class="c0"/>
<circle cx="820" cy="1286" r="6" class="c0"/>
<circle cx="1082" cy="738" r="6" class="c0"/>
<circle cx="1018" cy="392" r="6" class="c0"/>
<circle cx="1230" cy="818" r="6" class="c0"/>
<circle cx="916" cy="362" r="6" class="c0"/>
<circle cx="882" cy="1194" r="6" class="c0"/>
<circle cx="1016" cy="886" r="6" class="c0"/>
<circle cx="1146" cy="866" r="6" class="c0"/>
<circle cx="898" cy="1146" r="6" class="c0"/>
<circle cx="934" cy="368" r="6" class="c0"/>
<circle cx="798" cy="248" r="6" class="c0"/>
<circle cx="886" cy="888" r="6" class="c0"/>
<circle cx="744" cy="874" r="6" class="c0"/>
<circle cx="930" cy="164" r="6" class="c0"/>
<circle cx="848" cy="132" r="6" class="c0"/>
<circle cx="1018" cy="672" r="6" class="c0"/>
<circle cx="1086" cy="8" r="6" class="c0"/>
<circle cx="960" cy="1140" r="6" class="c0"/>
<circle cx="896" cy="876" r="6" class="c0"/>
<circle cx="1026" cy="1168" r="6" class="c0"/>
<circle cx="1030" cy="148" r="6" class="c0"/>
<circle cx="1088" cy="92" r="6" class="c0"/>
<circle cx="994" cy="770" r="6" class="c0"/>
<circle cx="1222" cy="830" r="6" class="c0"/>
<circle cx="1062" cy="414" r="6" class="c0"/>
<circle cx="1038" cy="876" r="6" class="c0"/>
<circle cx="914" cy="790" r="6" class="c0"/>
<circle cx="1016" cy="766" r="6" class="c0"/>
<circle cx="1066" cy="78" r="6" class="c0"/>
<circle cx="786" cy="238" r="6" class="c0"/>
<circle cx="1246" cy="6" r="6" class="c0"/>
<circle cx="940" cy="226" r="6" class="c0"/>
<circle cx="1124" cy="954" r="6" class="c0"/>
<circle cx="930" cy="6" r="6" class="c0"/>
<circle cx="1006" cy="1140" r="6" class="c0"/>
<circle cx="838" cy="1004" r="6" class="c0"/>
<circle cx="1166" cy="828" r="6" class="c0"/>
<circle cx="900" cy="950" r="6" class="c0"/>
<circle cx="794" cy="116" r="6" class="c0"/>
<circle cx="866" cy="1090" r="6" class="c0"/>
<circle cx="1044" cy="1348" r="6" class="c0"/>
<circle cx="1050" cy="422" r="6" class="c0"/>
<circle cx="862" cy="1026" r="6" class="c0"/>
<circle cx="962" cy="430" r="6" class="c0"/>
<circle cx="962" cy="146" r="6" class="c0"/>
<circle cx="736" cy="148" r="6" class="c0"/>
<circle cx="986" cy="738" r="6" class="c0"/>
<circle cx="834" cy="142" r="6" class="c0"/>
<circle cx="868" cy="994" r="6" class="c0"/>
<circle cx="1202" cy="272" r="6" class="c0"/>
<circle cx="1078" cy="26" r="6" class="c0"/>
<circle cx="978" cy="1198" r="6" class="c0"/>
<circle cx="774" cy="848" r="6" class="c0"/>
<circle cx="1128" cy="846" r="6" class="c0"/>
<circle cx="1170" cy="168" r="6" class="c0"/>
<circle cx="896" cy="420" r="6" class="c0"/>
<circle cx="998" cy="1408" r="6" class="c0"/>
<circle cx="1060" cy="224" r="6" class="c0"/>
<circle cx="802" cy="838" r="6" class="c0"/>
<circle cx="1146" cy="794" r="6" class="c0"/>
<circle cx="1006" cy="1066" r="6" class="c0"/>
<circle cx="1138" cy="234" r="6" class="c0"/>
<circle cx="924" cy="48" r="6" class="c0"/>
<circle cx="930" cy="1274" r="6" class="c0"/>
<circle cx="902" cy="728" r="6" class="c0"/>
<circle cx="962" cy="876" r="6" class="c0"/>
<circle cx="812" cy="6" r="6" class="c0"/>
<circle cx="1032" cy="86" r="6" class="c0"/>
<circle cx="932" cy="216" r="6" class="c0"/>
<circle cx="960" cy="676" r="6" class="c0"/>
<circle cx="984" cy="644" r="6" class="c0"/>
<circle cx="858" cy="1176" r="6" class="c0"/>
<circle cx="1112" cy="258" r="6" class="c0"/>
<circle cx="1160" cy="302" r="6" class="c0"/>
<circle cx="1044" cy="44" r="6" class="c0"/>
<circle cx="1014" cy="1028" r="6" class="c0"/>
<circle cx="868" cy="1356" r="6" class="c0"/>
<circle cx="1006" cy="6" r="6" class="c0"/>
<circle cx="1204" cy="964" r="6" class="c0"/>
<circle cx="1026" cy="374" r="6" class="c0"/>
<circle cx="922" cy="1022" r="6" class="c0"/>
<circle cx="984" cy="460" r="6" class="c0"/>
<circle cx="1170" cy="6" r="6" class="c0"/>
<circle cx="730" cy="96" r="6" class="c0"/>
<circle cx="964" cy="1430" r="6" class="c0"/>
<circle cx="1078" cy="374" r="6" class="c0"/>
<circle cx="938" cy="302" r="6" class="c0"/>
<circle cx="976" cy="424" r="6" class="c0"/>
<circle cx="864" cy="936" r="6" class="c0"/>
<circle cx="1294" cy="74" r="6" class="c0"/>
<circle cx="942" cy="680" r="6" class="c0"/>
<circle cx="806" cy="210" r="6" class="c0"/>
<circle cx="1142" cy="212" r="6" class="c0"/>
<circle cx="1126" cy="758" r="6" class="c0"/>
<circle cx="958" cy="518" r="6" class="c0"/>
<circle cx="976" cy="400" r="6" class="c0"/>
<circle cx="810" cy="1380" r="6" class="c0"/>
<circle cx="1074" cy="220" r="6" class="c0"/>
<circle cx="1196" cy="878" r="6" class="c0"/>
<circle cx="1142" cy="258" r="6" class="c0"/>
<circle cx="988" cy="82" r="6" class="c0"/>
<circle cx="872" cy="184" r="6" class="c0"/>
<circle cx="922" cy="1086" r="6" class="c0"/>
<circle cx="934" cy="106" r="6" class="c0"/>
<circle cx="988" cy="432" r="6" class="c0"/>
<circle cx="988" cy="492" r="6" class="c0"/>
<circle cx="1288" cy="120" r="6" class="c0"/>
<circle cx="870" cy="72" r="6" class="c0"/>
<circle cx="1022" cy="1294" r="6" class="c0"/>
<circle cx="722" cy="50" r="6" class="c0"/>
<circle cx="1036" cy="452" r="6" class="c0"/>
<circle cx="1152" cy="116" r="6" class="c0"/>
<circle cx="1180" cy="222" r="6" class="c0"/>
<circle cx="1078" cy="156" r="6" class="c0"/>
<circle cx="808" cy="298" r="6" class="c0"/>
<circle cx="904" cy="770" r="6" class="c0"/>
<circle cx="1046" cy="206" r="6" class="c0"/>
<circle cx="992" cy="120" r="6" class="c0"/>
<circle cx="1074" cy="138" r="6" class="c0"/>
<circle cx="758" cy="120" r="6" class="c0"/>
<circle cx="1236" cy="46" r="6" class="c0"/>
<circle cx="1084" cy="780" r="6" class="c0"/>
<circle cx="730" cy="960" r="6" class="c0"/>
<circle cx="960" cy="1288" r="6" class="c0"/>
<circle cx="1040" cy="756" r="6" class="c0"/>
<circle cx="958" cy="228" r="6" class="c0"/>
<circle cx="1144" cy="30" r="6" class="c0"/>
<circle cx="970" cy="244" r="6" class="c0"/>
<circle cx="984" cy="1168" r="6" class="c0"/>
<circle cx="1142" cy="810" r="6" class="c0"/>
<circle cx="1100" cy="814" r="6" class="c0"/>
<circle cx="766" cy="938" r="6" class="c0"/>
<circle cx="892" cy="1214" r="6" class="c0"/>
<circle cx="958" cy="1220" r="6" class="c0"/>
<circle cx="986" cy="866" r="6" class="c0"/>
<circle cx="1042" cy="916" r="6" class="c0"/>
<circle cx="1102" cy="246" r="6" class="c0"/>
<circle cx="870" cy="1386" r="6" class="c0"/>
<circle cx="942" cy="960" r="6" class="c0"/>
<circle cx="1080" cy="1432" r="6" class="c0"/>
<circle cx="882" cy="290" r="6" class="c0"/>
<circle cx="916" cy="252" r="6" class="c0"/>
<circle cx="950" cy="1296" r="6" class="c0"/>
<circle cx="990" cy="1028" r="6" class="c0"/>
<circle cx="1224" cy="896" r="6" class="c0"/>
<circle cx="892" cy="1406" r="6" class="c0"/>
<circle cx="766" cy="968" r="6" class="c0"/>
<circle cx="862" cy="784" r="6" class="c0"/>
<circle cx="828" cy="272" r="6" class="c0"/>
<circle cx="910" cy="958" r="6" class="c0"/>
<circle cx="928" cy="246" r="6" class="c0"/>
<circle cx="1198" cy="76" r="6" class="c0"/>
<circle cx="982" cy="38" r="6" class="c0"/>
<circle cx="1008" cy="1388" r="6" class="c0"/>
<circle cx="840" cy="1368" r="6" class="c0"/>
<circle cx="1018" cy="938" r="6" class="c0"/>
<circle cx="972" cy="380" r="6" class="c0"/>
<circle cx="1208" cy="182" r="6" class="c0"/>
<circle cx="904" cy="372" r="6" class="c0"/>
<circle cx="1016" cy="1158" r="6" class="c0"/>
<circle cx="870" cy="156" r="6" class="c0"/>
<circle cx="812" cy="984" r="6" class="c0"/>
<circle cx="996" cy="692" r="6" class="c0"/>
<circle cx="1020" cy="214" r="6" class="c0"/>
<circle cx="920" cy="476" r="6" class="c0"/>
<circle cx="990" cy="280" r="6" class="c0"/>
<circle cx="1274" cy="900" r="6" class="c0"/>
<circle cx="1032" cy="280" r="6" class="c0"/>
<circle cx="984" cy="208" r="6" class="c0"/>
<circle cx="1106" cy="312" r="6" class="c0"/>
<circle cx="990" cy="314" r="6" class="c0"/>
<circle cx="810" cy="846" r="6" class="c0"/>
<circle cx="938" cy="1236" r="6" class="c0"/>
<circle cx="958" cy="1200" r="6" class="c0"/>
<circle cx="990" cy="716" r="6" class="c0"/>
<circle cx="964" cy="312" r="6" class="c0"/>
<circle cx="866" cy="956" r="6" class="c0"/>
<circle cx="908" cy="1406" r="6" class="c0"/>
<circle cx="1032" cy="1322" r="6" class="c0"/>
<circle cx="954" cy="6" r="6" class="c0"/>
<circle cx="724" cy="84" r="6" class="c0"/>
<circle cx="970" cy="772" r="6" class="c0"/>
<circle cx="822" cy="1268" r="6" class="c0"/>
<circle cx="830" cy="194" r="6" class="c0"/>
<circle cx="992" cy="448" r="6" class="c0"/>
<circle cx="964" cy="662" r="6" class="c0"/>
<circle cx="784" cy="896" r="6" class="c0"/>
<circle cx="1000" cy="228" r="6" class="c0"/>
<circle cx="818" cy="128" r="6" class="c0"/>
<circle cx="980" cy="1140" r="6" class="c0"/>
<circle cx="918" cy="1352" r="6" class="c0"/>
<circle cx="982" cy="1402" r="6" class="c0"/>
<circle cx="1170" cy="240" r="6" class="c0"/>
<circle cx="1016" cy="468" r="6" class="c0"/>
<circle cx="1220" cy="876" r="6" class="c0"/>
<circle cx="1170" cy="946" r="6" class="c0"/>
<circle cx="832" cy="330" r="6" class="c0"/>
<circle cx="788" cy="1380" r="6" class="c0"/>
<circle cx="966" cy="796" r="6" class="c0"/>
<circle cx="814" cy="220" r="6" class="c0"/>
<circle cx="976" cy="152" r="6" class="c0"/>
<circle cx="866" cy="1168" r="6" class="c0"/>
<circle cx="900" cy="218" r="6" class="c0"/>
<circle cx="966" cy="1248" r="6" class="c0"/>
</svg>
