<?xml version="1.0" encoding="utf-8"?>
<svg xmlns="http://www.w3.org/2000/svg"
     xmlns:xlink="http://www.w3.org/1999/xlink" width="1920" height="1440" >

            <defs>
            <style type="text/css"><![CDATA[
circle {stroke: none;}
.c0 {fill: #FFFFFF;}
]]></style>
            </defs>
<rect x="0" y="0" width="1920" height="1440" fill="black"/>
<circle cx="800" cy="80" r="12" class="c0"/>
<circle cx="940" cy="316" r="12" class="c0"/>
<circle cx="1042" cy="1074" r="12" class="c0"/>
<circle cx="1060" cy="826" r="12" class="c0"/>
<circle cx="1034" cy="126" r="12" class="c0"/>
<circle cx="974" cy="868" r="12" class="c0"/>
<circle cx="892" cy="306" r="12" class="c0"/>
<circle cx="974" cy="996" r="12" class="c0"/>
<circle cx="866" cy="182" r="12" class="c0"/>
<circle cx="1052" cy="300" r="12" class="c0"/>
<circle cx="1018" cy="882" r="12" class="c0"/>
<circle cx="948" cy="1332" r="12" class="c0"/>
<circle cx="962" cy="900" r="12" class="c0"/>
<circle cx="830" cy="856" r="12" class="c0"/>
<circle cx="1024" cy="1310" r="12" class="c0"/>
<circle cx="1136" cy="750" r="12" class="c0"/>
<circle cx="1008" cy="994" r="12" class="c0"/>
<circle cx="1086" cy="1420" r="12" class="c0"/>
<circle cx="904" cy="30" r="12" class="c0"/>
<circle cx="1176" cy="802" r="12" class="c0"/>
<circle cx="1108" cy="876" r="12" class="c0"/>
<circle cx="1038" cy="1352" r="12" class="c0"/>
<circle cx="1004" cy="730" r="12" class="c0"/>
<circle cx="948" cy="1424" r="12" class="c0"/>
<circle cx="960" cy="1370" r="12" class="c0"/>
<circle cx="1014" cy="218" r="12" class="c0"/>
<circle cx="1122" cy="1376" r="12" class="c0"/>
<circle cx="1134" cy="798" r="12" class="c0"/>
<circle cx="1056" cy="1230" r="12" class="c0"/>
<circle cx="946" cy="746" r="12" class="c0"/>
<circle cx="956" cy="778" r="12" class="c0"/>
<circle cx="984" cy="1142" r="12" class="c0"/>
<circle cx="920" cy="346" r="12" class="c0"/>
<circle cx="806" cy="240" r="12" class="c0"/>
<circle cx="1004" cy="88" r="12" class="c0"/>
<circle cx="928" cy="1140" r="12" class="c0"/>
<circle cx="1016" cy="278" r="12" class="c0"/>
<circle cx="924" cy="70" r="12" class="c0"/>
<circle cx="1032" cy="1114" r="12" class="c0"/>
<circle cx="916" cy="136" r="12" class="c0"/>
<circle cx="852" cy="216" r="12" class="c0"/>
<circle cx="1058" cy="1326" r="12" class="c0"/>
<circle cx="1170" cy="746" r="12" class="c0"/>
<circle cx="1008" cy="784" r="12" class="c0"/>
<circle cx="1020" cy="252" r="12" class="c0"/>
<circle cx="1052" cy="168" r="12" class="c0"/>
<circle cx="932" cy="1318" r="12" class="c0"/>
<circle cx="1024" cy="966" r="12" class="c0"/>
<circle cx="936" cy="12" r="12" class="c0"/>
<circle cx="872" cy="898" r="12" class="c0"/>
<circle cx="912" cy="174" r="12" class="c0"/>
<circle cx="846" cy="146" r="12" class="c0"/>
<circle cx="904" cy="1336" r="12" class="c0"/>
<circle cx="876" cy="370" r="12" class="c0"/>
<circle cx="1058" cy="136" r="12" class="c0"/>
<circle cx="856" cy="314" r="12" class="c0"/>
<circle cx="832" cy="96" r="12" class="c0"/>
<circle cx="1072" cy="1288" r="12" class="c0"/>
<circle cx="952" cy="348" r="10" class="c0"/>
<circle cx="972" cy="714" r="10" class="c0"/>
<circle cx="1006" cy="1158" r="10" class="c0"/>
<circle cx="968" cy="1110" r="10" class="c0"/>
<circle cx="994" cy="148" r="10" class="c0"/>
<circle cx="890" cy="396" r="10" class="c0"/>
<circle cx="1056" cy="1388" r="10" class="c0"/>
<circle cx="950" cy="48" r="10" class="c0"/>
<circle cx="990" cy="1092" r="10" class="c0"/>
<circle cx="878" cy="346" r="10" class="c0"/>
<circle cx="994" cy="1280" r="10" class="c0"/>
<circle cx="986" cy="1036" r="10" class="c0"/>
<circle cx="1106" cy="788" r="10" class="c0"/>
<circle cx="800" cy="132" r="10" class="c0"/>
<circle cx="902" cy="1176" r="10" class="c0"/>
<circle cx="1118" cy="828" r="10" class="c0"/>
<circle cx="1024" cy="1060" r="10" class="c0"/>
<circle cx="1006" cy="176" r="10" class="c0"/>
<circle cx="826" cy="320" r="10" class="c0"/>
<circle cx="932" cy="948" r="10" class="c0"/>
<circle cx="1000" cy="384" r="10" class="c0"/>
<circle cx="1102" cy="1394" r="10" class="c0"/>
<circle cx="1070" cy="56" r="10" class="c0"/>
<circle cx="938" cy="1040" r="10" class="c0"/>
<circle cx="1010" cy="1252" r="10" class="c0"/>
<circle cx="984" cy="1380" r="10" class="c0"/>
<circle cx="834" cy="914" r="10" class="c0"/>
<circle cx="1158" cy="852" r="10" class="c0"/>
<circle cx="994" cy="320" r="10" class="c0"/>
<circle cx="1002" cy="1348" r="10" class="c0"/>
<circle cx="986" cy="62" r="10" class="c0"/>
<circle cx="1008" cy="648" r="10" class="c0"/>
<circle cx="972" cy="1412" r="10" class="c0"/>
<circle cx="1166" cy="828" r="10" class="c0"/>
<circle cx="956" cy="1262" r="10" class="c0"/>
<circle cx="844" cy="38" r="10" class="c0"/>
<circle cx="930" cy="830" r="10" class="c0"/>
<circle cx="1060" cy="1152" r="10" class="c0"/>
<circle cx="926" cy="886" r="10" class="c0"/>
<circle cx="916" cy="1028" r="10" class="c0"/>
<circle cx="1234" cy="772" r="10" class="c0"/>
<circle cx="972" cy="232" r="10" class="c0"/>
<circle cx="1102" cy="730" r="10" class="c0"/>
<circle cx="928" cy="1210" r="10" class="c0"/>
<circle cx="988" cy="964" r="10" class="c0"/>
<circle cx="1022" cy="1016" r="10" class="c0"/>
<circle cx="1042" cy="208" r="10" class="c0"/>
<circle cx="1072" cy="708" r="10" class="c0"/>
<circle cx="964" cy="1154" r="10" class="c0"/>
<circle cx="916" cy="48" r="10" class="c0"/>
<circle cx="870" cy="78" r="10" class="c0"/>
<circle cx="882" cy="822" r="10" class="c0"/>
<circle cx="996" cy="230" r="10" class="c0"/>
<circle cx="906" cy="102" r="10" class="c0"/>
<circle cx="994" cy="1320" r="10" class="c0"/>
<circle cx="794" cy="188" r="10" class="c0"/>
<circle cx="950" cy="98" r="10" class="c0"/>
<circle cx="1050" cy="326" r="10" class="c0"/>
<circle cx="1020" cy="74" r="10" class="c0"/>
<circle cx="1026" cy="1228" r="10" class="c0"/>
<circle cx="1036" cy="1276" r="10" class="c0"/>
<circle cx="814" cy="34" r="10" class="c0"/>
<circle cx="1042" cy="746" r="10" class="c0"/>
<circle cx="1068" cy="1254" r="10" class="c0"/>
<circle cx="1074" cy="78" r="10" class="c0"/>
<circle cx="1044" cy="1186" r="10" class="c0"/>
<circle cx="944" cy="264" r="10" class="c0"/>
<circle cx="950" cy="848" r="10" class="c0"/>
<circle cx="812" cy="838" r="10" class="c0"/>
<circle cx="914" cy="448" r="10" class="c0"/>
<circle cx="990" cy="938" r="10" class="c0"/>
<circle cx="908" cy="1272" r="10" class="c0"/>
<circle cx="1126" cy="848" r="10" class="c0"/>
<circle cx="958" cy="158" r="10" class="c0"/>
<circle cx="912" cy="972" r="10" class="c0"/>
<circle cx="1060" cy="1090" r="10" class="c0"/>
<circle cx="986" cy="692" r="10" class="c0"/>
<circle cx="896" cy="774" r="10" class="c0"/>
<circle cx="912" cy="234" r="10" class="c0"/>
<circle cx="1016" cy="1178" r="10" class="c0"/>
<circle cx="912" cy="1394" r="10" class="c0"/>
<circle cx="914" cy="1242" r="10" class="c0"/>
<circle cx="978" cy="1306" r="10" class="c0"/>
<circle cx="814" cy="216" r="10" class="c0"/>
<circle cx="1098" cy="1340" r="10" class="c0"/>
<circle cx="964" cy="962" r="10" class="c0"/>
<circle cx="1014" cy="1424" r="10" class="c0"/>
<circle cx="1212" cy="798" r="10" class="c0"/>
<circle cx="1040" cy="804" r="10" class="c0"/>
<circle cx="956" cy="814" r="10" class="c0"/>
<circle cx="982" cy="106" r="10" class="c0"/>
<circle cx="970" cy="16" r="10" class="c0"/>
<circle cx="1046" cy="1014" r="10" class="c0"/>
<circle cx="828" cy="228" r="10" class="c0"/>
<circle cx="806" cy="894" r="10" class="c0"/>
<circle cx="1122" cy="1324" r="10" class="c0"/>
<circle cx="1022" cy="1384" r="10" class="c0"/>
<circle cx="952" cy="1088" r="10" class="c0"/>
<circle cx="942" cy="690" r="10" class="c0"/>
<circle cx="996" cy="894" r="10" class="c0"/>
<circle cx="950" cy="1174" r="10" class="c0"/>
<circle cx="946" cy="384" r="10" class="c0"/>
<circle cx="1016" cy="18" r="10" class="c0"/>
<circle cx="1088" cy="848" r="10" class="c0"/>
<circle cx="912" cy="1092" r="10" class="c0"/>
<circle cx="1048" cy="34" r="10" class="c0"/>
<circle cx="968" cy="80" r="10" class="c0"/>
<circle cx="896" cy="76" r="10" class="c0"/>
<circle cx="928" cy="400" r="10" class="c0"/>
<circle cx="904" cy="1302" r="10" class="c0"/>
<circle cx="956" cy="668" r="10" class="c0"/>
<circle cx="984" cy="358" r="10" class="c0"/>
<circle cx="1080" cy="1112" r="10" class="c0"/>
<circle cx="1192" cy="774" r="10" class="c0"/>
<circle cx="1066" cy="112" r="10" class="c0"/>
<circle cx="1014" cy="1040" r="10" class="c0"/>
<circle cx="932" cy="1072" r="10" class="c0"/>
<circle cx="880" cy="1338" r="10" class="c0"/>
<circle cx="1046" cy="1302" r="10" class="c0"/>
<circle cx="1262" cy="792" r="10" class="c0"/>
<circle cx="1030" cy="152" r="10" class="c0"/>
<circle cx="974" cy="198" r="10" class="c0"/>
<circle cx="802" cy="168" r="10" class="c0"/>
<circle cx="1054" cy="1420" r="10" class="c0"/>
<circle cx="866" cy="18" r="10" class="c0"/>
<circle cx="970" cy="1226" r="10" class="c0"/>
<circle cx="864" cy="794" r="10" class="c0"/>
<circle cx="882" cy="156" r="10" class="c0"/>
<circle cx="928" cy="1264" r="10" class="c0"/>
<circle cx="1042" cy="268" r="10" class="c0"/>
<circle cx="964" cy="120" r="10" class="c0"/>
<circle cx="1200" cy="750" r="10" class="c0"/>
<circle cx="844" cy="1402" r="10" class="c0"/>
<circle cx="944" cy="170" r="10" class="c0"/>
<circle cx="984" cy="796" r="10" class="c0"/>
<circle cx="956" cy="220" r="10" class="c0"/>
<circle cx="930" cy="462" r="10" class="c0"/>
<circle cx="900" cy="204" r="10" class="c0"/>
<circle cx="1020" cy="370" r="10" class="c0"/>
<circle cx="860" cy="276" r="10" class="c0"/>
<circle cx="1092" cy="826" r="10" class="c0"/>
<circle cx="1040" cy="1406" r="10" class="c0"/>
<circle cx="1078" cy="272" r="10" class="c0"/>
<circle cx="1026" cy="674" r="10" class="c0"/>
<circle cx="984" cy="832" r="10" class="c0"/>
<circle cx="982" cy="176" r="10" class="c0"/>
<circle cx="1110" cy="1422" r="10" class="c0"/>
<circle cx="778" cy="880" r="10" class="c0"/>
<circle cx="932" cy="716" r="10" class="c0"/>
<circle cx="934" cy="228" r="10" class="c0"/>
<circle cx="908" cy="410" r="10" class="c0"/>
<circle cx="850" cy="350" r="10" class="c0"/>
<circle cx="1054" cy="866" r="10" class="c0"/>
<circle cx="1146" cy="890" r="8" class="c0"/>
<circle cx="1062" cy="1038" r="8" class="c0"/>
<circle cx="1070" cy="796" r="8" class="c0"/>
<circle cx="1062" cy="240" r="8" class="c0"/>
<circle cx="1190" cy="846" r="8" class="c0"/>
<circle cx="850" cy="72" r="8" class="c0"/>
<circle cx="1152" cy="778" r="8" class="c0"/>
<circle cx="962" cy="688" r="8" class="c0"/>
<circle cx="888" cy="128" r="8" class="c0"/>
<circle cx="1062" cy="1066" r="8" class="c0"/>
<circle cx="884" cy="1250" r="8" class="c0"/>
<circle cx="1062" cy="260" r="8" class="c0"/>
<circle cx="1002" cy="124" r="8" class="c0"/>
<circle cx="892" cy="240" r="8" class="c0"/>
<circle cx="938" cy="192" r="8" class="c0"/>
<circle cx="880" cy="108" r="8" class="c0"/>
<circle cx="1044" cy="708" r="8" class="c0"/>
<circle cx="870" cy="1320" r="8" class="c0"/>
<circle cx="904" cy="992" r="8" class="c0"/>
<circle cx="884" cy="10" r="8" class="c0"/>
<circle cx="976" cy="950" r="8" class="c0"/>
<circle cx="992" cy="772" r="8" class="c0"/>
<circle cx="948" cy="1022" r="8" class="c0"/>
<circle cx="860" cy="1420" r="8" class="c0"/>
<circle cx="952" cy="1284" r="8" class="c0"/>
<circle cx="1032" cy="844" r="8" class="c0"/>
<circle cx="860" cy="870" r="8" class="c0"/>
<circle cx="1056" cy="720" r="8" class="c0"/>
<circle cx="932" cy="1108" r="8" class="c0"/>
<circle cx="906" cy="876" r="8" class="c0"/>
<circle cx="1018" cy="716" r="8" class="c0"/>
<circle cx="886" cy="54" r="8" class="c0"/>
<circle cx="1022" cy="1084" r="8" class="c0"/>
<circle cx="1014" cy="750" r="8" class="c0"/>
<circle cx="1082" cy="132" r="8" class="c0"/>
<circle cx="1074" cy="1056" r="8" class="c0"/>
<circle cx="1016" cy="906" r="8" class="c0"/>
<circle cx="976" cy="920" r="8" class="c0"/>
<circle cx="1036" cy="920" r="8" class="c0"/>
<circle cx="916" cy="796" r="8" class="c0"/>
<circle cx="1066" cy="1366" r="8" class="c0"/>
<circle cx="1088" cy="228" r="8" class="c0"/>
<circle cx="1088" cy="100" r="8" class="c0"/>
<circle cx="876" cy="1402" r="8" class="c0"/>
<circle cx="884" cy="880" r="8" class="c0"/>
<circle cx="880" cy="256" r="8" class="c0"/>
<circle cx="1118" cy="770" r="8" class="c0"/>
<circle cx="1028" cy="774" r="8" class="c0"/>
<circle cx="984" cy="1188" r="8" class="c0"/>
<circle cx="920" cy="912" r="8" class="c0"/>
<circle cx="846" cy="902" r="8" class="c0"/>
<circle cx="776" cy="160" r="8" class="c0"/>
<circle cx="980" cy="1260" r="8" class="c0"/>
<circle cx="1042" cy="884" r="8" class="c0"/>
<circle cx="1132" cy="1410" r="8" class="c0"/>
<circle cx="910" cy="368" r="8" class="c0"/>
<circle cx="1062" cy="1128" r="8" class="c0"/>
<circle cx="960" cy="326" r="8" class="c0"/>
<circle cx="1036" cy="94" r="8" class="c0"/>
<circle cx="1078" cy="170" r="8" class="c0"/>
<circle cx="962" cy="296" r="8" class="c0"/>
<circle cx="1082" cy="872" r="8" class="c0"/>
<circle cx="1050" cy="668" r="8" class="c0"/>
<circle cx="1012" cy="848" r="8" class="c0"/>
<circle cx="1038" cy="1158" r="8" class="c0"/>
<circle cx="1028" cy="46" r="8" class="c0"/>
<circle cx="870" cy="46" r="8" class="c0"/>
<circle cx="996" cy="262" r="8" class="c0"/>
<circle cx="914" cy="766" r="8" class="c0"/>
<circle cx="956" cy="416" r="8" class="c0"/>
<circle cx="872" cy="842" r="8" class="c0"/>
<circle cx="904" cy="756" r="8" class="c0"/>
<circle cx="832" cy="810" r="8" class="c0"/>
<circle cx="906" cy="1420" r="8" class="c0"/>
<circle cx="1240" cy="806" r="8" class="c0"/>
<circle cx="858" cy="1380" r="8" class="c0"/>
<circle cx="1078" cy="780" r="8" class="c0"/>
<circle cx="1076" cy="1376" r="8" class="c0"/>
<circle cx="1126" cy="728" r="8" class="c0"/>
<circle cx="952" cy="1400" r="8" class="c0"/>
<circle cx="816" cy="258" r="8" class="c0"/>
<circle cx="974" cy="760" r="8" class="c0"/>
<circle cx="816" cy="876" r="8" class="c0"/>
<circle cx="1064" cy="740" r="8" class="c0"/>
<circle cx="1150" cy="872" r="8" class="c0"/>
<circle cx="920" cy="702" r="8" class="c0"/>
<circle cx="1142" cy="1364" r="8" class="c0"/>
<circle cx="1096" cy="202" r="8" class="c0"/>
<circle cx="942" cy="1240" r="8" class="c0"/>
<circle cx="934" cy="984" r="8" class="c0"/>
<circle cx="982" cy="248" r="8" class="c0"/>
<circle cx="1056" cy="10" r="8" class="c0"/>
<circle cx="862" cy="1356" r="8" class="c0"/>
<circle cx="860" cy="56" r="8" class="c0"/>
<circle cx="1018" cy="1198" r="8" class="c0"/>
<circle cx="958" cy="924" r="8" class="c0"/>
<circle cx="1098" cy="758" r="8" class="c0"/>
<circle cx="978" cy="662" r="8" class="c0"/>
<circle cx="906" cy="842" r="8" class="c0"/>
<circle cx="904" cy="1154" r="8" class="c0"/>
<circle cx="942" cy="482" r="8" class="c0"/>
<circle cx="998" cy="1120" r="8" class="c0"/>
<circle cx="926" cy="94" r="8" class="c0"/>
<circle cx="976" cy="1078" r="8" class="c0"/>
<circle cx="794" cy="848" r="8" class="c0"/>
<circle cx="912" cy="318" r="8" class="c0"/>
<circle cx="938" cy="790" r="8" class="c0"/>
<circle cx="930" cy="1354" r="8" class="c0"/>
<circle cx="994" cy="816" r="8" class="c0"/>
<circle cx="976" cy="412" r="8" class="c0"/>
<circle cx="916" cy="852" r="8" class="c0"/>
<circle cx="984" cy="1212" r="8" class="c0"/>
<circle cx="800" cy="108" r="8" class="c0"/>
<circle cx="822" cy="136" r="8" class="c0"/>
<circle cx="962" cy="1208" r="8" class="c0"/>
<circle cx="968" cy="276" r="8" class="c0"/>
<circle cx="966" cy="1130" r="8" class="c0"/>
<circle cx="1004" cy="760" r="8" class="c0"/>
<circle cx="1192" cy="816" r="8" class="c0"/>
<circle cx="1070" cy="188" r="8" class="c0"/>
<circle cx="980" cy="614" r="8" class="c0"/>
<circle cx="838" cy="198" r="8" class="c0"/>
<circle cx="892" cy="1380" r="8" class="c0"/>
<circle cx="902" cy="8" r="8" class="c0"/>
<circle cx="894" cy="1408" r="8" class="c0"/>
<circle cx="880" cy="220" r="8" class="c0"/>
<circle cx="826" cy="170" r="8" class="c0"/>
<circle cx="828" cy="188" r="8" class="c0"/>
<circle cx="790" cy="216" r="8" class="c0"/>
<circle cx="934" cy="1378" r="8" class="c0"/>
<circle cx="1226" cy="750" r="8" class="c0"/>
<circle cx="842" cy="796" r="8" class="c0"/>
<circle cx="1022" cy="1144" r="8" class="c0"/>
<circle cx="970" cy="1340" r="8" class="c0"/>
<circle cx="1004" cy="806" r="8" class="c0"/>
<circle cx="832" cy="268" r="8" class="c0"/>
<circle cx="900" cy="1360" r="8" class="c0"/>
<circle cx="1006" cy="58" r="8" class="c0"/>
<circle cx="922" cy="300" r="8" class="c0"/>
<circle cx="1006" cy="678" r="8" class="c0"/>
<circle cx="878" cy="320" r="8" class="c0"/>
<circle cx="1094" cy="180" r="8" class="c0"/>
<circle cx="1106" cy="1294" r="8" class="c0"/>
<circle cx="986" cy="1238" r="8" class="c0"/>
<circle cx="1034" cy="188" r="8" class="c0"/>
<circle cx="928" cy="1286" r="8" class="c0"/>
<circle cx="850" cy="240" r="8" class="c0"/>
<circle cx="1116" cy="1350" r="8" class="c0"/>
<circle cx="1220" cy="824" r="8" class="c0"/>
<circle cx="982" cy="306" r="8" class="c0"/>
<circle cx="942" cy="908" r="8" class="c0"/>
<circle cx="1038" cy="992" r="8" class="c0"/>
<circle cx="916" cy="260" r="8" class="c0"/>
<circle cx="902" cy="1126" r="8" class="c0"/>
<circle cx="1074" cy="150" r="8" class="c0"/>
<circle cx="1012" cy="938" r="8" class="c0"/>
<circle cx="1006" cy="1136" r="8" class="c0"/>
<circle cx="976" cy="436" r="8" class="c0"/>
<circle cx="984" cy="1428" r="8" class="c0"/>
<circle cx="1106" cy="1360" r="8" class="c0"/>
<circle cx="1048" cy="1140" r="8" class="c0"/>
<circle cx="852" cy="842" r="8" class="c0"/>
<circle cx="1026" cy="296" r="8" class="c0"/>
<circle cx="1068" cy="766" r="8" class="c0"/>
<circle cx="1078" cy="1356" r="8" class="c0"/>
<circle cx="834" cy="890" r="8" class="c0"/>
<circle cx="806" cy="276" r="8" class="c0"/>
<circle cx="932" cy="284" r="8" class="c0"/>
<circle cx="816" cy="288" r="8" class="c0"/>
<circle cx="1030" cy="1208" r="8" class="c0"/>
<circle cx="1020" cy="830" r="8" class="c0"/>
<circle cx="960" cy="396" r="8" class="c0"/>
<circle cx="840" cy="288" r="8" class="c0"/>
<circle cx="1016" cy="1404" r="8" class="c0"/>
<circle cx="924" cy="1430" r="8" class="c0"/>
<circle cx="994" cy="914" r="8" class="c0"/>
<circle cx="1204" cy="834" r="8" class="c0"/>
<circle cx="1010" cy="1094" r="8" class="c0"/>
<circle cx="956" cy="444" r="8" class="c0"/>
<circle cx="812" cy="150" r="8" class="c0"/>
<circle cx="1064" cy="218" r="8" class="c0"/>
<circle cx="1140" cy="834" r="8" class="c0"/>
<circle cx="1084" cy="1314" r="8" class="c0"/>
<circle cx="954" cy="986" r="8" class="c0"/>
<circle cx="940" cy="432" r="8" class="c0"/>
<circle cx="852" cy="816" r="8" class="c0"/>
<circle cx="1254" cy="766" r="8" class="c0"/>
<circle cx="804" cy="864" r="8" class="c0"/>
<circle cx="1002" cy="1018" r="8" class="c0"/>
<circle cx="1078" cy="294" r="8" class="c0"/>
<circle cx="948" cy="244" r="8" class="c0"/>
<circle cx="994" cy="750" r="8" class="c0"/>
<circle cx="1034" cy="948" r="8" class="c0"/>
<circle cx="986" cy="36" r="8" class="c0"/>
<circle cx="1002" cy="1072" r="8" class="c0"/>
<circle cx="866" cy="132" r="8" class="c0"/>
<circle cx="964" cy="460" r="8" class="c0"/>
<circle cx="1008" cy="1208" r="8" class="c0"/>
<circle cx="972" cy="258" r="8" class="c0"/>
<circle cx="820" cy="116" r="8" class="c0"/>
<circle cx="1016" cy="326" r="8" class="c0"/>
<circle cx="1034" cy="1330" r="8" class="c0"/>
<circle cx="1036" cy="658" r="8" class="c0"/>
<circle cx="772" cy="134" r="8" class="c0"/>
<circle cx="1092" cy="1278" r="8" class="c0"/>
<circle cx="820" cy="8" r="8" class="c0"/>
<circle cx="998" cy="860" r="8" class="c0"/>
<circle cx="878" cy="1294" r="8" class="c0"/>
<circle cx="1082" cy="746" r="8" class="c0"/>
<circle cx="946" cy="936" r="8" class="c0"/>
<circle cx="898" cy="340" r="8" class="c0"/>
<circle cx="1154" cy="732" r="8" class="c0"/>
<circle cx="996" cy="1414" r="8" class="c0"/>
<circle cx="934" cy="770" r="8" class="c0"/>
<circle cx="990" cy="290" r="8" class="c0"/>
<circle cx="998" cy="1394" r="8" class="c0"/>
<circle cx="1096" cy="806" r="8" class="c0"/>
<circle cx="1006" cy="354" r="8" class="c0"/>
<circle cx="1066" cy="1408" r="8" class="c0"/>
<circle cx="1150" cy="818" r="8" class="c0"/>
<circle cx="948" cy="72" r="8" class="c0"/>
<circle cx="1034" cy="902" r="8" class="c0"/>
<circle cx="1016" cy="1290" r="8" class="c0"/>
<circle cx="982" cy="130" r="8" class="c0"/>
<circle cx="818" cy="54" r="8" class="c0"/>
<circle cx="928" cy="204" r="8" class="c0"/>
<circle cx="932" cy="1396" r="8" class="c0"/>
<circle cx="930" cy="248" r="8" class="c0"/>
<circle cx="950" cy="878" r="8" class="c0"/>
<circle cx="1104" cy="1314" r="8" class="c0"/>
<circle cx="900" cy="1220" r="8" class="c0"/>
<circle cx="958" cy="728" r="8" class="c0"/>
<circle cx="976" cy="742" r="8" class="c0"/>
<circle cx="918" cy="932" r="8" class="c0"/>
<circle cx="920" cy="1366" r="8" class="c0"/>
<circle cx="1048" cy="1048" r="8" class="c0"/>
<circle cx="888" cy="1430" r="8" class="c0"/>
<circle cx="880" cy="858" r="8" class="c0"/>
<circle cx="1042" cy="1246" r="8" class="c0"/>
<circle cx="832" cy="68" r="8" class="c0"/>
<circle cx="1244" cy="824" r="8" class="c0"/>
<circle cx="1050" cy="82" r="8" class="c0"/>
<circle cx="956" cy="1302" r="8" class="c0"/>
<circle cx="880" cy="1366" r="8" class="c0"/>
<circle cx="890" cy="186" r="8" class="c0"/>
<circle cx="936" cy="1188" r="8" class="c0"/>
<circle cx="924" cy="1052" r="8" class="c0"/>
<circle cx="906" cy="282" r="8" class="c0"/>
<circle cx="784" cy="120" r="8" class="c0"/>
<circle cx="974" cy="1048" r="8" class="c0"/>
<circle cx="892" cy="1320" r="8" class="c0"/>
<circle cx="976" cy="1172" r="8" class="c0"/>
<circle cx="920" cy="814" r="8" class="c0"/>
<circle cx="956" cy="1054" r="8" class="c0"/>
<circle cx="1058" cy="1172" r="8" class="c0"/>
<circle cx="934" cy="362" r="8" class="c0"/>
<circle cx="1006" cy="308" r="8" class="c0"/>
<circle cx="1040" cy="228" r="8" class="c0"/>
<circle cx="896" cy="906" r="8" class="c0"/>
<circle cx="990" cy="640" r="8" class="c0"/>
<circle cx="922" cy="1002" r="8" class="c0"/>
<circle cx="1058" cy="688" r="8" class="c0"/>
<circle cx="1062" cy="1200" r="8" class="c0"/>
<circle cx="1060" cy="198" r="8" class="c0"/>
<circle cx="1020" cy="102" r="8" class="c0"/>
<circle cx="1054" cy="786" r="8" class="c0"/>
<circle cx="928" cy="158" r="8" class="c0"/>
<circle cx="920" cy="748" r="8" class="c0"/>
<circle cx="1136" cy="1346" r="8" class="c0"/>
<circle cx="936" cy="118" r="8" class="c0"/>
<circle cx="946" cy="500" r="8" class="c0"/>
<circle cx="914" cy="1194" r="8" class="c0"/>
<circle cx="974" cy="46" r="8" class="c0"/>
<circle cx="1034" cy="312" r="8" class="c0"/>
<circle cx="916" cy="728" r="8" class="c0"/>
<circle cx="966" cy="1068" r="8" class="c0"/>
<circle cx="964" cy="834" r="8" class="c0"/>
<circle cx="902" cy="820" r="8" class="c0"/>
<circle cx="836" cy="830" r="8" class="c0"/>
<circle cx="858" cy="96" r="8" class="c0"/>
<circle cx="1070" cy="882" r="8" class="c0"/>
<circle cx="1074" cy="1180" r="8" class="c0"/>
<circle cx="994" cy="192" r="8" class="c0"/>
<circle cx="896" cy="1202" r="8" class="c0"/>
<circle cx="970" cy="370" r="8" class="c0"/>
<circle cx="1024" cy="698" r="8" class="c0"/>
<circle cx="940" cy="146" r="8" class="c0"/>
<circle cx="1048" cy="982" r="8" class="c0"/>
<circle cx="998" cy="1050" r="8" class="c0"/>
<circle cx="952" cy="1004" r="8" class="c0"/>
<circle cx="796" cy="262" r="8" class="c0"/>
<circle cx="970" cy="1282" r="8" class="c0"/>
<circle cx="920" cy="422" r="8" class="c0"/>
<circle cx="1262" cy="820" r="8" class="c0"/>
<circle cx="1034" cy="346" r="8" class="c0"/>
<circle cx="1132" cy="868" r="8" class="c0"/>
<circle cx="850" cy="114" r="8" class="c0"/>
<circle cx="884" cy="1274" r="8" class="c0"/>
<circle cx="1048" cy="1210" r="8" class="c0"/>
<circle cx="986" cy="1064" r="8" class="c0"/>
<circle cx="862" cy="828" r="8" class="c0"/>
<circle cx="1070" cy="26" r="8" class="c0"/>
<circle cx="908" cy="894" r="8" class="c0"/>
<circle cx="944" cy="968" r="8" class="c0"/>
<circle cx="1006" cy="1368" r="8" class="c0"/>
<circle cx="790" cy="150" r="8" class="c0"/>
<circle cx="892" cy="426" r="8" class="c0"/>
<circle cx="880" cy="278" r="8" class="c0"/>
<circle cx="998" cy="1226" r="8" class="c0"/>
<circle cx="1092" cy="248" r="8" class="c0"/>
<circle cx="966" cy="1026" r="8" class="c0"/>
<circle cx="932" cy="36" r="8" class="c0"/>
<circle cx="930" cy="1162" r="8" class="c0"/>
<circle cx="822" cy="820" r="8" class="c0"/>
<circle cx="968" cy="1392" r="8" class="c0"/>
<circle cx="992" cy="8" r="8" class="c0"/>
<circle cx="1024" cy="200" r="8" class="c0"/>
<circle cx="994" cy="406" r="8" class="c0"/>
<circle cx="1008" cy="40" r="8" class="c0"/>
<circle cx="1004" cy="336" r="8" class="c0"/>
<circle cx="902" cy="152" r="8" class="c0"/>
<circle cx="870" cy="292" r="8" class="c0"/>
<circle cx="802" cy="302" r="8" class="c0"/>
<circle cx="998" cy="706" r="8" class="c0"/>
<circle cx="798" cy="46" r="8" class="c0"/>
<circle cx="1036" cy="724" r="8" class="c0"/>
<circle cx="860" cy="382" r="8" class="c0"/>
<circle cx="1080" cy="40" r="8" class="c0"/>
<circle cx="1172" cy="776" r="8" class="c0"/>
<circle cx="982" cy="332" r="8" class="c0"/>
<circle cx="842" cy="332" r="8" class="c0"/>
<circle cx="962" cy="1186" r="8" class="c0"/>
<circle cx="958" cy="28" r="8" class="c0"/>
<circle cx="858" cy="162" r="8" class="c0"/>
<circle cx="926" cy="862" r="8" class="c0"/>
<circle cx="844" cy="16" r="8" class="c0"/>
<circle cx="1018" cy="164" r="8" class="c0"/>
<circle cx="960" cy="184" r="8" class="c0"/>
<circle cx="890" cy="804" r="8" class="c0"/>
<circle cx="778" cy="204" r="8" class="c0"/>
<circle cx="970" cy="142" r="8" class="c0"/>
<circle cx="964" cy="60" r="8" class="c0"/>
<circle cx="1090" cy="160" r="8" class="c0"/>
<circle cx="1016" cy="1332" r="8" class="c0"/>
<circle cx="838" cy="124" r="8" class="c0"/>
<circle cx="1214" cy="770" r="8" class="c0"/>
<circle cx="996" cy="668" r="8" class="c0"/>
<circle cx="764" cy="896" r="8" class="c0"/>
<circle cx="1022" cy="858" r="8" class="c0"/>
<circle cx="1122" cy="1400" r="8" class="c0"/>
<circle cx="986" cy="1360" r="8" class="c0"/>
<circle cx="790" cy="98" r="8" class="c0"/>
<circle cx="866" cy="334" r="8" class="c0"/>
<circle cx="1018" cy="814" r="6" class="c0"/>
<circle cx="1176" cy="860" r="6" class="c0"/>
<circle cx="1042" cy="244" r="6" class="c0"/>
<circle cx="974" cy="846" r="6" class="c0"/>
<circle cx="832" cy="26" r="6" class="c0"/>
<circle cx="890" cy="838" r="6" class="c0"/>
<circle cx="852" cy="258" r="6" class="c0"/>
<circle cx="820" cy="924" r="6" class="c0"/>
<circle cx="1062" cy="994" r="6" class="c0"/>
<circle cx="842" cy="172" r="6" class="c0"/>
<circle cx="1096" cy="118" r="6" class="c0"/>
<circle cx="936" cy="670" r="6" class="c0"/>
<circle cx="1032" cy="1432" r="6" class="c0"/>
<circle cx="786" cy="864" r="6" class="c0"/>
<circle cx="1046" cy="960" r="6" class="c0"/>
<circle cx="850" cy="1432" r="6" class="c0"/>
<circle cx="970" cy="342" r="6" class="c0"/>
<circle cx="1006" cy="974" r="6" class="c0"/>
<circle cx="878" cy="1420" r="6" class="c0"/>
<circle cx="950" cy="708" r="6" class="c0"/>
<circle cx="944" cy="1130" r="6" class="c0"/>
<circle cx="986" cy="1162" r="6" class="c0"/>
<circle cx="1028" cy="1254" r="6" class="c0"/>
<circle cx="1064" cy="852" r="6" class="c0"/>
<circle cx="828" cy="154" r="6" class="c0"/>
<circle cx="1058" cy="278" r="6" class="c0"/>
<circle cx="964" cy="940" r="6" class="c0"/>
<circle cx="1038" cy="60" r="6" class="c0"/>
<circle cx="1038" cy="10" r="6" class="c0"/>
<circle cx="1142" cy="1394" r="6" class="c0"/>
<circle cx="950" cy="366" r="6" class="c0"/>
<circle cx="1076" cy="814" r="6" class="c0"/>
<circle cx="1084" cy="1076" r="6" class="c0"/>
<circle cx="1050" cy="940" r="6" class="c0"/>
<circle cx="986" cy="1010" r="6" class="c0"/>
<circle cx="976" cy="812" r="6" class="c0"/>
<circle cx="1052" cy="1110" r="6" class="c0"/>
<circle cx="1084" cy="1396" r="6" class="c0"/>
<circle cx="1074" cy="838" r="6" class="c0"/>
<circle cx="972" cy="1324" r="6" class="c0"/>
<circle cx="886" cy="1232" r="6" class="c0"/>
<circle cx="810" cy="912" r="6" class="c0"/>
<circle cx="1082" cy="1134" r="6" class="c0"/>
<circle cx="1052" cy="66" r="6" class="c0"/>
<circle cx="898" cy="222" r="6" class="c0"/>
<circle cx="1086" cy="1262" r="6" class="c0"/>
<circle cx="1184" cy="758" r="6" class="c0"/>
<circle cx="784" cy="242" r="6" class="c0"/>
<circle cx="1054" cy="1268" r="6" class="c0"/>
<circle cx="914" cy="1114" r="6" class="c0"/>
<circle cx="1112" cy="750" r="6" class="c0"/>
<circle cx="1154" cy="758" r="6" class="c0"/>
<circle cx="1062" cy="1348" r="6" class="c0"/>
<circle cx="1074" cy="686" r="6" class="c0"/>
<circle cx="878" cy="196" r="6" class="c0"/>
<circle cx="1002" cy="950" r="6" class="c0"/>
<circle cx="898" cy="380" r="6" class="c0"/>
<circle cx="1092" cy="1372" r="6" class="c0"/>
<circle cx="1048" cy="106" r="6" class="c0"/>
<circle cx="762" cy="202" r="6" class="c0"/>
<circle cx="1014" cy="140" r="6" class="c0"/>
<circle cx="966" cy="1432" r="6" class="c0"/>
<circle cx="1072" cy="862" r="6" class="c0"/>
<circle cx="956" cy="474" r="6" class="c0"/>
<circle cx="1080" cy="1090" r="6" class="c0"/>
<circle cx="836" cy="252" r="6" class="c0"/>
<circle cx="876" cy="238" r="6" class="c0"/>
<circle cx="912" cy="384" r="6" class="c0"/>
<circle cx="888" cy="330" r="6" class="c0"/>
<circle cx="930" cy="1230" r="6" class="c0"/>
<circle cx="984" cy="392" r="6" class="c0"/>
<circle cx="946" cy="292" r="6" class="c0"/>
<circle cx="1034" cy="870" r="6" class="c0"/>
<circle cx="970" cy="1246" r="6" class="c0"/>
<circle cx="1106" cy="850" r="6" class="c0"/>
<circle cx="876" cy="1384" r="6" class="c0"/>
<circle cx="1116" cy="810" r="6" class="c0"/>
<circle cx="950" cy="1108" r="6" class="c0"/>
<circle cx="1156" cy="794" r="6" class="c0"/>
<circle cx="900" cy="264" r="6" class="c0"/>
<circle cx="988" cy="1338" r="6" class="c0"/>
<circle cx="862" cy="914" r="6" class="c0"/>
<circle cx="772" cy="180" r="6" class="c0"/>
<circle cx="1084" cy="1166" r="6" class="c0"/>
<circle cx="1106" cy="168" r="6" class="c0"/>
<circle cx="946" cy="454" r="6" class="c0"/>
<circle cx="910" cy="952" r="6" class="c0"/>
<circle cx="1048" cy="356" r="6" class="c0"/>
<circle cx="1078" cy="730" r="6" class="c0"/>
<circle cx="1276" cy="830" r="6" class="c0"/>
<circle cx="972" cy="628" r="6" class="c0"/>
<circle cx="878" cy="776" r="6" class="c0"/>
<circle cx="1046" cy="52" r="6" class="c0"/>
<circle cx="1078" cy="210" r="6" class="c0"/>
<circle cx="1058" cy="96" r="6" class="c0"/>
<circle cx="1068" cy="1308" r="6" class="c0"/>
<circle cx="926" cy="1414" r="6" class="c0"/>
<circle cx="974" cy="598" r="6" class="c0"/>
<circle cx="988" cy="1110" r="6" class="c0"/>
<circle cx="848" cy="882" r="6" class="c0"/>
<circle cx="1086" cy="720" r="6" class="c0"/>
<circle cx="1094" cy="144" r="6" class="c0"/>
<circle cx="872" cy="1432" r="6" class="c0"/>
<circle cx="1040" cy="1372" r="6" class="c0"/>
<circle cx="952" cy="1198" r="6" class="c0"/>
<circle cx="1116" cy="1304" r="6" class="c0"/>
<circle cx="948" cy="202" r="6" class="c0"/>
<circle cx="1136" cy="774" r="6" class="c0"/>
<circle cx="1066" cy="1020" r="6" class="c0"/>
<circle cx="984" cy="272" r="6" class="c0"/>
<circle cx="1052" cy="760" r="6" class="c0"/>
<circle cx="986" cy="210" r="6" class="c0"/>
<circle cx="1050" cy="846" r="6" class="c0"/>
<circle cx="1032" cy="330" r="6" class="c0"/>
<circle cx="1144" cy="1380" r="6" class="c0"/>
<circle cx="1168" cy="870" r="6" class="c0"/>
<circle cx="892" cy="356" r="6" class="c0"/>
<circle cx="920" cy="112" r="6" class="c0"/>
<circle cx="1032" cy="1038" r="6" class="c0"/>
<circle cx="948" cy="1220" r="6" class="c0"/>
<circle cx="874" cy="412" r="6" class="c0"/>
<circle cx="948" cy="1144" r="6" class="c0"/>
<circle cx="998" cy="1176" r="6" class="c0"/>
<circle cx="942" cy="1274" r="6" class="c0"/>
<circle cx="778" cy="228" r="6" class="c0"/>
<circle cx="942" cy="864" r="6" class="c0"/>
<circle cx="940" cy="414" r="6" class="c0"/>
<circle cx="1038" cy="686" r="6" class="c0"/>
<circle cx="954" cy="134" r="6" class="c0"/>
<circle cx="1074" cy="250" r="6" class="c0"/>
<circle cx="902" cy="58" r="6" class="c0"/>
<circle cx="966" cy="426" r="6" class="c0"/>
<circle cx="1062" cy="342" r="6" class="c0"/>
<circle cx="1078" cy="1338" r="6" class="c0"/>
<circle cx="780" cy="72" r="6" class="c0"/>
<circle cx="828" cy="300" r="6" class="c0"/>
<circle cx="918" cy="194" r="6" class="c0"/>
<circle cx="882" cy="90" r="6" class="c0"/>
<circle cx="856" cy="1340" r="6" class="c0"/>
<circle cx="846" cy="1368" r="6" class="c0"/>
<circle cx="964" cy="798" r="6" class="c0"/>
<circle cx="1190" cy="736" r="6" class="c0"/>
<circle cx="1232" cy="834" r="6" class="c0"/>
<circle cx="1004" cy="924" r="6" class="c0"/>
<circle cx="814" cy="196" r="6" class="c0"/>
<circle cx="872" cy="392" r="6" class="c0"/>
<circle cx="950" cy="952" r="6" class="c0"/>
<circle cx="970" cy="648" r="6" class="c0"/>
<circle cx="1194" cy="794" r="6" class="c0"/>
<circle cx="796" cy="878" r="6" class="c0"/>
<circle cx="1184" cy="830" r="6" class="c0"/>
<circle cx="1018" cy="1268" r="6" class="c0"/>
<circle cx="884" cy="38" r="6" class="c0"/>
<circle cx="922" cy="780" r="6" class="c0"/>
<circle cx="938" cy="810" r="6" class="c0"/>
<circle cx="1016" cy="1358" r="6" class="c0"/>
<circle cx="916" cy="216" r="6" class="c0"/>
<circle cx="1086" cy="64" r="6" class="c0"/>
<circle cx="1000" cy="1300" r="6" class="c0"/>
<circle cx="770" cy="254" r="6" class="c0"/>
<circle cx="870" cy="206" r="6" class="c0"/>
<circle cx="914" cy="1070" r="6" class="c0"/>
<circle cx="1038" cy="764" r="6" class="c0"/>
<circle cx="1034" cy="822" r="6" class="c0"/>
<circle cx="1038" cy="364" r="6" class="c0"/>
<circle cx="898" cy="118" r="6" class="c0"/>
<circle cx="1244" cy="756" r="6" class="c0"/>
<circle cx="802" cy="14" r="6" class="c0"/>
<circle cx="956" cy="1036" r="6" class="c0"/>
<circle cx="1148" cy="1406" r="6" class="c0"/>
<circle cx="1088" cy="1298" r="6" class="c0"/>
<circle cx="1024" cy="794" r="6" class="c0"/>
<circle cx="992" cy="984" r="6" class="c0"/>
<circle cx="976" cy="780" r="6" class="c0"/>
<circle cx="788" cy="896" r="6" class="c0"/>
<circle cx="812" cy="94" r="6" class="c0"/>
<circle cx="894" cy="1240" r="6" class="c0"/>
<circle cx="1076" cy="1238" r="6" class="c0"/>
<circle cx="952" cy="1352" r="6" class="c0"/>
<circle cx="990" cy="426" r="6" class="c0"/>
<circle cx="938" cy="336" r="6" class="c0"/>
<circle cx="1018" cy="390" r="6" class="c0"/>
<circle cx="994" cy="1198" r="6" class="c0"/>
<circle cx="916" cy="1224" r="6" class="c0"/>
<circle cx="1244" cy="790" r="6" class="c0"/>
<circle cx="942" cy="1294" r="6" class="c0"/>
<circle cx="1230" cy="796" r="6" class="c0"/>
<circle cx="1070" cy="316" r="6" class="c0"/>
<circle cx="1000" cy="26" r="6" class="c0"/>
<circle cx="1004" cy="202" r="6" class="c0"/>
<circle cx="1002" cy="834" r="6" class="c0"/>
<circle cx="970" cy="316" r="6" class="c0"/>
<circle cx="1270" cy="776" r="6" class="c0"/>
<circle cx="932" cy="1014" r="6" class="c0"/>
<circle cx="922" cy="1176" r="6" class="c0"/>
<circle cx="1074" cy="1142" r="6" class="c0"/>
<circle cx="1052" cy="1284" r="6" class="c0"/>
<circle cx="1132" cy="818" r="6" class="c0"/>
<circle cx="976" cy="888" r="6" class="c0"/>
<circle cx="938" cy="84" r="6" class="c0"/>
<circle cx="896" cy="852" r="6" class="c0"/>
<circle cx="914" cy="1164" r="6" class="c0"/>
<circle cx="1088" cy="792" r="6" class="c0"/>
<circle cx="1024" cy="734" r="6" class="c0"/>
<circle cx="1024" cy="1366" r="6" class="c0"/>
<circle cx="868" cy="246" r="6" class="c0"/>
<circle cx="1128" cy="884" r="6" class="c0"/>
<circle cx="984" cy="728" r="6" class="c0"/>
<circle cx="792" cy="62" r="6" class="c0"/>
<circle cx="866" cy="228" r="6" class="c0"/>
<circle cx="1012" cy="1110" r="6" class="c0"/>
<circle cx="904" cy="250" r="6" class="c0"/>
<circle cx="972" cy="1198" r="6" class="c0"/>
<circle cx="894" cy="450" r="6" class="c0"/>
<circle cx="804" cy="318" r="6" class="c0"/>
<circle cx="926" cy="378" r="6" class="c0"/>
<circle cx="1094" cy="712" r="6" class="c0"/>
<circle cx="894" cy="1288" r="6" class="c0"/>
<circle cx="842" cy="1384" r="6" class="c0"/>
<circle cx="978" cy="156" r="6" class="c0"/>
<circle cx="862" cy="854" r="6" class="c0"/>
<circle cx="976" cy="678" r="6" class="c0"/>
<circle cx="840" cy="874" r="6" class="c0"/>
<circle cx="992" cy="876" r="6" class="c0"/>
<circle cx="828" cy="340" r="6" class="c0"/>
<circle cx="892" cy="170" r="6" class="c0"/>
<circle cx="1000" cy="108" r="6" class="c0"/>
<circle cx="886" cy="788" r="6" class="c0"/>
<circle cx="820" cy="82" r="6" class="c0"/>
<circle cx="1016" cy="1126" r="6" class="c0"/>
<circle cx="820" cy="904" r="6" class="c0"/>
<circle cx="1098" cy="90" r="6" class="c0"/>
<circle cx="930" cy="922" r="6" class="c0"/>
<circle cx="1096" cy="774" r="6" class="c0"/>
<circle cx="812" cy="182" r="6" class="c0"/>
<circle cx="894" cy="1260" r="6" class="c0"/>
<circle cx="1004" cy="1190" r="6" class="c0"/>
<circle cx="1040" cy="286" r="6" class="c0"/>
<circle cx="772" cy="102" r="6" class="c0"/>
<circle cx="894" cy="866" r="6" class="c0"/>
<circle cx="1010" cy="402" r="6" class="c0"/>
<circle cx="1020" cy="922" r="6" class="c0"/>
<circle cx="1042" cy="834" r="6" class="c0"/>
<circle cx="960" cy="1318" r="6" class="c0"/>
<circle cx="1042" cy="1096" r="6" class="c0"/>
<circle cx="842" cy="58" r="6" class="c0"/>
<circle cx="1030" cy="30" r="6" class="c0"/>
<circle cx="1070" cy="1430" r="6" class="c0"/>
<circle cx="882" cy="1310" r="6" class="c0"/>
<circle cx="900" cy="792" r="6" class="c0"/>
<circle cx="934" cy="1092" r="6" class="c0"/>
<circle cx="988" cy="850" r="6" class="c0"/>
<circle cx="928" cy="1338" r="6" class="c0"/>
<circle cx="1174" cy="844" r="6" class="c0"/>
<circle cx="944" cy="516" r="6" class="c0"/>
<circle cx="1008" cy="694" r="6" class="c0"/>
<circle cx="1090" cy="886" r="6" class="c0"/>
<circle cx="924" cy="686" r="6" class="c0"/>
<circle cx="902" cy="1106" r="6" class="c0"/>
<circle cx="802" cy="204" r="6" class="c0"/>
<circle cx="910" cy="1376" r="6" class="c0"/>
<circle cx="868" cy="812" r="6" class="c0"/>
<circle cx="1162" cy="766" r="6" class="c0"/>
<circle cx="980" cy="1122" r="6" class="c0"/>
<circle cx="1036" cy="382" r="6" class="c0"/>
<circle cx="902" cy="436" r="6" class="c0"/>
<circle cx="916" cy="16" r="6" class="c0"/>
<circle cx="930" cy="736" r="6" class="c0"/>
<circle cx="1058" cy="806" r="6" class="c0"/>
<circle cx="976" cy="976" r="6" class="c0"/>
<circle cx="784" cy="174" r="6" class="c0"/>
<circle cx="1042" cy="854" r="6" class="c0"/>
<circle cx="982" cy="904" r="6" class="c0"/>
<circle cx="1038" cy="784" r="6" class="c0"/>
<circle cx="952" cy="280" r="6" class="c0"/>
<circle cx="850" cy="860" r="6" class="c0"/>
<circle cx="912" cy="84" r="6" class="c0"/>
<circle cx="1018" cy="344" r="6" class="c0"/>
<circle cx="958" cy="1238" r="6" class="c0"/>
<circle cx="1032" cy="172" r="6" class="c0"/>
<circle cx="854" cy="196" r="6" class="c0"/>
<circle cx="1106" cy="150" r="6" class="c0"/>
<circle cx="758" cy="112" r="6" class="c0"/>
</svg>
