<?xml version="1.0" encoding="utf-8"?>
<svg xmlns="http://www.w3.org/2000/svg"
     xmlns:xlink="http://www.w3.org/1999/xlink" width="1920" height="1440" >

            <defs>
            <style type="text/css"><![CDATA[
circle {stroke: none;}
.c0 {fill: #FFFFFF;}
]]></style>
            </defs>
<rect x="0" y="0" width="1920" height="1440" fill="black"/>
<circle cx="864" cy="48" r="14" class="c0"/>
<circle cx="1172" cy="824" r="14" class="c0"/>
<circle cx="992" cy="320" r="12" class="c0"/>
<circle cx="922" cy="760" r="12" class="c0"/>
<circle cx="1028" cy="288" r="12" class="c0"/>
<circle cx="970" cy="774" r="12" class="c0"/>
<circle cx="998" cy="32" r="12" class="c0"/>
<circle cx="1002" cy="1350" r="12" class="c0"/>
<circle cx="934" cy="160" r="12" class="c0"/>
<circle cx="1000" cy="946" r="12" class="c0"/>
<circle cx="1082" cy="244" r="12" class="c0"/>
<circle cx="872" cy="338" r="12" class="c0"/>
<circle cx="914" cy="1160" r="12" class="c0"/>
<circle cx="1008" cy="1400" r="12" class="c0"/>
<circle cx="952" cy="350" r="12" class="c0"/>
<circle cx="978" cy="742" r="12" class="c0"/>
<circle cx="856" cy="918" r="12" class="c0"/>
<circle cx="838" cy="210" r="12" class="c0"/>
<circle cx="934" cy="894" r="12" class="c0"/>
<circle cx="1018" cy="970" r="12" class="c0"/>
<circle cx="910" cy="338" r="12" class="c0"/>
<circle cx="946" cy="90" r="12" class="c0"/>
<circle cx="1024" cy="908" r="12" class="c0"/>
<circle cx="1058" cy="112" r="12" class="c0"/>
<circle cx="1026" cy="1044" r="12" class="c0"/>
<circle cx="960" cy="1052" r="12" class="c0"/>
<circle cx="988" cy="1008" r="12" class="c0"/>
<circle cx="880" cy="788" r="12" class="c0"/>
<circle cx="878" cy="896" r="12" class="c0"/>
<circle cx="932" cy="1142" r="12" class="c0"/>
<circle cx="932" cy="1198" r="12" class="c0"/>
<circle cx="818" cy="890" r="12" class="c0"/>
<circle cx="926" cy="1424" r="12" class="c0"/>
<circle cx="930" cy="1008" r="12" class="c0"/>
<circle cx="1068" cy="824" r="12" class="c0"/>
<circle cx="800" cy="158" r="12" class="c0"/>
<circle cx="1092" cy="1300" r="12" class="c0"/>
<circle cx="990" cy="248" r="12" class="c0"/>
<circle cx="952" cy="960" r="12" class="c0"/>
<circle cx="1138" cy="1378" r="12" class="c0"/>
<circle cx="1028" cy="196" r="12" class="c0"/>
<circle cx="1060" cy="50" r="12" class="c0"/>
<circle cx="1042" cy="760" r="12" class="c0"/>
<circle cx="1066" cy="1194" r="12" class="c0"/>
<circle cx="1048" cy="1096" r="12" class="c0"/>
<circle cx="1016" cy="646" r="12" class="c0"/>
<circle cx="890" cy="294" r="12" class="c0"/>
<circle cx="1010" cy="1152" r="12" class="c0"/>
<circle cx="898" cy="878" r="12" class="c0"/>
<circle cx="1040" cy="1234" r="12" class="c0"/>
<circle cx="862" cy="838" r="12" class="c0"/>
<circle cx="996" cy="1248" r="12" class="c0"/>
<circle cx="982" cy="1336" r="12" class="c0"/>
<circle cx="996" cy="90" r="12" class="c0"/>
<circle cx="896" cy="850" r="12" class="c0"/>
<circle cx="1078" cy="800" r="12" class="c0"/>
<circle cx="812" cy="208" r="12" class="c0"/>
<circle cx="960" cy="1266" r="12" class="c0"/>
<circle cx="1162" cy="744" r="12" class="c0"/>
<circle cx="1038" cy="238" r="12" class="c0"/>
<circle cx="1036" cy="1000" r="12" class="c0"/>
<circle cx="1070" cy="148" r="12" class="c0"/>
<circle cx="882" cy="374" r="12" class="c0"/>
<circle cx="814" cy="92" r="12" class="c0"/>
<circle cx="968" cy="114" r="12" class="c0"/>
<circle cx="960" cy="1178" r="12" class="c0"/>
<circle cx="884" cy="1186" r="10" class="c0"/>
<circle cx="1004" cy="1296" r="10" class="c0"/>
<circle cx="1082" cy="1148" r="10" class="c0"/>
<circle cx="796" cy="224" r="10" class="c0"/>
<circle cx="890" cy="246" r="10" class="c0"/>
<circle cx="878" cy="1344" r="10" class="c0"/>
<circle cx="906" cy="36" r="10" class="c0"/>
<circle cx="994" cy="874" r="10" class="c0"/>
<circle cx="910" cy="712" r="10" class="c0"/>
<circle cx="1026" cy="1188" r="10" class="c0"/>
<circle cx="912" cy="952" r="10" class="c0"/>
<circle cx="922" cy="1040" r="10" class="c0"/>
<circle cx="1188" cy="756" r="10" class="c0"/>
<circle cx="986" cy="362" r="10" class="c0"/>
<circle cx="1042" cy="854" r="10" class="c0"/>
<circle cx="1078" cy="848" r="10" class="c0"/>
<circle cx="1000" cy="1194" r="10" class="c0"/>
<circle cx="1020" cy="312" r="10" class="c0"/>
<circle cx="904" cy="418" r="10" class="c0"/>
<circle cx="1236" cy="756" r="10" class="c0"/>
<circle cx="882" cy="1374" r="10" class="c0"/>
<circle cx="966" cy="1022" r="10" class="c0"/>
<circle cx="860" cy="108" r="10" class="c0"/>
<circle cx="840" cy="100" r="10" class="c0"/>
<circle cx="978" cy="62" r="10" class="c0"/>
<circle cx="834" cy="318" r="10" class="c0"/>
<circle cx="804" cy="834" r="10" class="c0"/>
<circle cx="1006" cy="770" r="10" class="c0"/>
<circle cx="936" cy="228" r="10" class="c0"/>
<circle cx="1144" cy="818" r="10" class="c0"/>
<circle cx="1046" cy="1330" r="10" class="c0"/>
<circle cx="838" cy="862" r="10" class="c0"/>
<circle cx="1042" cy="308" r="10" class="c0"/>
<circle cx="1046" cy="1394" r="10" class="c0"/>
<circle cx="1038" cy="822" r="10" class="c0"/>
<circle cx="958" cy="682" r="10" class="c0"/>
<circle cx="1144" cy="728" r="10" class="c0"/>
<circle cx="848" cy="268" r="10" class="c0"/>
<circle cx="1054" cy="276" r="10" class="c0"/>
<circle cx="880" cy="1258" r="10" class="c0"/>
<circle cx="998" cy="726" r="10" class="c0"/>
<circle cx="1092" cy="826" r="10" class="c0"/>
<circle cx="946" cy="386" r="10" class="c0"/>
<circle cx="988" cy="204" r="10" class="c0"/>
<circle cx="1044" cy="1126" r="10" class="c0"/>
<circle cx="1034" cy="1376" r="10" class="c0"/>
<circle cx="876" cy="1290" r="10" class="c0"/>
<circle cx="1066" cy="706" r="10" class="c0"/>
<circle cx="938" cy="776" r="10" class="c0"/>
<circle cx="828" cy="56" r="10" class="c0"/>
<circle cx="1054" cy="1252" r="10" class="c0"/>
<circle cx="912" cy="218" r="10" class="c0"/>
<circle cx="1006" cy="1374" r="10" class="c0"/>
<circle cx="882" cy="26" r="10" class="c0"/>
<circle cx="1016" cy="852" r="10" class="c0"/>
<circle cx="1136" cy="1336" r="10" class="c0"/>
<circle cx="902" cy="1290" r="10" class="c0"/>
<circle cx="878" cy="232" r="10" class="c0"/>
<circle cx="986" cy="1070" r="10" class="c0"/>
<circle cx="898" cy="1232" r="10" class="c0"/>
<circle cx="958" cy="1300" r="10" class="c0"/>
<circle cx="950" cy="1406" r="10" class="c0"/>
<circle cx="936" cy="726" r="10" class="c0"/>
<circle cx="1042" cy="666" r="10" class="c0"/>
<circle cx="1110" cy="1324" r="10" class="c0"/>
<circle cx="928" cy="1392" r="10" class="c0"/>
<circle cx="790" cy="882" r="10" class="c0"/>
<circle cx="964" cy="42" r="10" class="c0"/>
<circle cx="1226" cy="784" r="10" class="c0"/>
<circle cx="898" cy="144" r="10" class="c0"/>
<circle cx="972" cy="872" r="10" class="c0"/>
<circle cx="866" cy="802" r="10" class="c0"/>
<circle cx="854" cy="326" r="10" class="c0"/>
<circle cx="984" cy="160" r="10" class="c0"/>
<circle cx="964" cy="1142" r="10" class="c0"/>
<circle cx="958" cy="638" r="10" class="c0"/>
<circle cx="802" cy="40" r="10" class="c0"/>
<circle cx="1092" cy="1398" r="10" class="c0"/>
<circle cx="894" cy="82" r="10" class="c0"/>
<circle cx="1192" cy="796" r="10" class="c0"/>
<circle cx="1060" cy="868" r="10" class="c0"/>
<circle cx="1164" cy="858" r="10" class="c0"/>
<circle cx="1136" cy="792" r="10" class="c0"/>
<circle cx="952" cy="24" r="10" class="c0"/>
<circle cx="912" cy="1090" r="10" class="c0"/>
<circle cx="834" cy="814" r="10" class="c0"/>
<circle cx="984" cy="424" r="10" class="c0"/>
<circle cx="990" cy="1118" r="10" class="c0"/>
<circle cx="1122" cy="772" r="10" class="c0"/>
<circle cx="966" cy="1080" r="10" class="c0"/>
<circle cx="1018" cy="792" r="10" class="c0"/>
<circle cx="958" cy="836" r="10" class="c0"/>
<circle cx="1252" cy="776" r="10" class="c0"/>
<circle cx="922" cy="58" r="10" class="c0"/>
<circle cx="914" cy="992" r="10" class="c0"/>
<circle cx="1036" cy="346" r="10" class="c0"/>
<circle cx="928" cy="1274" r="10" class="c0"/>
<circle cx="1070" cy="1368" r="10" class="c0"/>
<circle cx="992" cy="280" r="10" class="c0"/>
<circle cx="998" cy="984" r="10" class="c0"/>
<circle cx="1016" cy="122" r="10" class="c0"/>
<circle cx="814" cy="250" r="10" class="c0"/>
<circle cx="1038" cy="886" r="10" class="c0"/>
<circle cx="874" cy="1402" r="10" class="c0"/>
<circle cx="1016" cy="1108" r="10" class="c0"/>
<circle cx="1082" cy="1106" r="10" class="c0"/>
<circle cx="1118" cy="720" r="10" class="c0"/>
<circle cx="958" cy="752" r="10" class="c0"/>
<circle cx="812" cy="810" r="10" class="c0"/>
<circle cx="1206" cy="774" r="10" class="c0"/>
<circle cx="1024" cy="1072" r="10" class="c0"/>
<circle cx="964" cy="176" r="10" class="c0"/>
<circle cx="910" cy="742" r="10" class="c0"/>
<circle cx="1112" cy="752" r="10" class="c0"/>
<circle cx="924" cy="184" r="10" class="c0"/>
<circle cx="776" cy="868" r="10" class="c0"/>
<circle cx="818" cy="172" r="10" class="c0"/>
<circle cx="880" cy="130" r="10" class="c0"/>
<circle cx="854" cy="884" r="10" class="c0"/>
<circle cx="870" cy="206" r="10" class="c0"/>
<circle cx="896" cy="814" r="10" class="c0"/>
<circle cx="962" cy="1118" r="10" class="c0"/>
<circle cx="1074" cy="1418" r="10" class="c0"/>
<circle cx="924" cy="1318" r="10" class="c0"/>
<circle cx="1210" cy="742" r="10" class="c0"/>
<circle cx="950" cy="132" r="10" class="c0"/>
<circle cx="952" cy="318" r="10" class="c0"/>
<circle cx="872" cy="158" r="10" class="c0"/>
<circle cx="852" cy="232" r="10" class="c0"/>
<circle cx="992" cy="1414" r="10" class="c0"/>
<circle cx="1032" cy="44" r="10" class="c0"/>
<circle cx="860" cy="284" r="10" class="c0"/>
<circle cx="980" cy="690" r="10" class="c0"/>
<circle cx="874" cy="868" r="10" class="c0"/>
<circle cx="850" cy="1368" r="10" class="c0"/>
<circle cx="908" cy="364" r="10" class="c0"/>
<circle cx="994" cy="758" r="10" class="c0"/>
<circle cx="932" cy="802" r="10" class="c0"/>
<circle cx="1118" cy="1350" r="10" class="c0"/>
<circle cx="904" cy="1128" r="10" class="c0"/>
<circle cx="1076" cy="1286" r="10" class="c0"/>
<circle cx="960" cy="442" r="10" class="c0"/>
<circle cx="972" cy="660" r="10" class="c0"/>
<circle cx="910" cy="1066" r="10" class="c0"/>
<circle cx="1050" cy="688" r="10" class="c0"/>
<circle cx="998" cy="898" r="10" class="c0"/>
<circle cx="940" cy="1220" r="10" class="c0"/>
<circle cx="814" cy="22" r="10" class="c0"/>
<circle cx="1270" cy="810" r="10" class="c0"/>
<circle cx="1014" cy="1278" r="10" class="c0"/>
<circle cx="892" cy="1312" r="10" class="c0"/>
<circle cx="1046" cy="136" r="10" class="c0"/>
<circle cx="1048" cy="82" r="10" class="c0"/>
<circle cx="954" cy="206" r="10" class="c0"/>
<circle cx="1236" cy="802" r="10" class="c0"/>
<circle cx="832" cy="240" r="8" class="c0"/>
<circle cx="1068" cy="220" r="8" class="c0"/>
<circle cx="1014" cy="272" r="8" class="c0"/>
<circle cx="834" cy="20" r="8" class="c0"/>
<circle cx="1098" cy="1346" r="8" class="c0"/>
<circle cx="1018" cy="150" r="8" class="c0"/>
<circle cx="1000" cy="800" r="8" class="c0"/>
<circle cx="1040" cy="734" r="8" class="c0"/>
<circle cx="850" cy="192" r="8" class="c0"/>
<circle cx="870" cy="264" r="8" class="c0"/>
<circle cx="1044" cy="790" r="8" class="c0"/>
<circle cx="1082" cy="108" r="8" class="c0"/>
<circle cx="844" cy="300" r="8" class="c0"/>
<circle cx="908" cy="1362" r="8" class="c0"/>
<circle cx="918" cy="100" r="8" class="c0"/>
<circle cx="950" cy="1366" r="8" class="c0"/>
<circle cx="1148" cy="758" r="8" class="c0"/>
<circle cx="1054" cy="320" r="8" class="c0"/>
<circle cx="876" cy="314" r="8" class="c0"/>
<circle cx="940" cy="1248" r="8" class="c0"/>
<circle cx="1076" cy="1324" r="8" class="c0"/>
<circle cx="1042" cy="1264" r="8" class="c0"/>
<circle cx="980" cy="1188" r="8" class="c0"/>
<circle cx="962" cy="616" r="8" class="c0"/>
<circle cx="974" cy="266" r="8" class="c0"/>
<circle cx="1090" cy="194" r="8" class="c0"/>
<circle cx="974" cy="1244" r="8" class="c0"/>
<circle cx="984" cy="790" r="8" class="c0"/>
<circle cx="1020" cy="224" r="8" class="c0"/>
<circle cx="914" cy="910" r="8" class="c0"/>
<circle cx="870" cy="8" r="8" class="c0"/>
<circle cx="968" cy="936" r="8" class="c0"/>
<circle cx="1008" cy="140" r="8" class="c0"/>
<circle cx="1024" cy="1318" r="8" class="c0"/>
<circle cx="1060" cy="1352" r="8" class="c0"/>
<circle cx="980" cy="1426" r="8" class="c0"/>
<circle cx="1012" cy="334" r="8" class="c0"/>
<circle cx="948" cy="274" r="8" class="c0"/>
<circle cx="978" cy="1382" r="8" class="c0"/>
<circle cx="986" cy="384" r="8" class="c0"/>
<circle cx="860" cy="1414" r="8" class="c0"/>
<circle cx="1008" cy="922" r="8" class="c0"/>
<circle cx="878" cy="70" r="8" class="c0"/>
<circle cx="980" cy="618" r="8" class="c0"/>
<circle cx="1044" cy="968" r="8" class="c0"/>
<circle cx="1008" cy="1084" r="8" class="c0"/>
<circle cx="1048" cy="1208" r="8" class="c0"/>
<circle cx="856" cy="24" r="8" class="c0"/>
<circle cx="916" cy="278" r="8" class="c0"/>
<circle cx="908" cy="1192" r="8" class="c0"/>
<circle cx="1058" cy="1140" r="8" class="c0"/>
<circle cx="816" cy="866" r="8" class="c0"/>
<circle cx="962" cy="406" r="8" class="c0"/>
<circle cx="1070" cy="1238" r="8" class="c0"/>
<circle cx="986" cy="1206" r="8" class="c0"/>
<circle cx="944" cy="252" r="8" class="c0"/>
<circle cx="1180" cy="732" r="8" class="c0"/>
<circle cx="1186" cy="846" r="8" class="c0"/>
<circle cx="1066" cy="1268" r="8" class="c0"/>
<circle cx="958" cy="920" r="8" class="c0"/>
<circle cx="918" cy="834" r="8" class="c0"/>
<circle cx="906" cy="260" r="8" class="c0"/>
<circle cx="1022" cy="932" r="8" class="c0"/>
<circle cx="1180" cy="778" r="8" class="c0"/>
<circle cx="1030" cy="724" r="8" class="c0"/>
<circle cx="824" cy="272" r="8" class="c0"/>
<circle cx="1044" cy="1414" r="8" class="c0"/>
<circle cx="924" cy="298" r="8" class="c0"/>
<circle cx="1026" cy="66" r="8" class="c0"/>
<circle cx="1016" cy="1010" r="8" class="c0"/>
<circle cx="918" cy="1228" r="8" class="c0"/>
<circle cx="882" cy="1210" r="8" class="c0"/>
<circle cx="950" cy="470" r="8" class="c0"/>
<circle cx="826" cy="150" r="8" class="c0"/>
<circle cx="1008" cy="706" r="8" class="c0"/>
<circle cx="1088" cy="174" r="8" class="c0"/>
<circle cx="892" cy="326" r="8" class="c0"/>
<circle cx="830" cy="844" r="8" class="c0"/>
<circle cx="986" cy="640" r="8" class="c0"/>
<circle cx="974" cy="910" r="8" class="c0"/>
<circle cx="818" cy="124" r="8" class="c0"/>
<circle cx="994" cy="1042" r="8" class="c0"/>
<circle cx="1032" cy="1160" r="8" class="c0"/>
<circle cx="1108" cy="842" r="8" class="c0"/>
<circle cx="998" cy="664" r="8" class="c0"/>
<circle cx="1198" cy="730" r="8" class="c0"/>
<circle cx="1056" cy="200" r="8" class="c0"/>
<circle cx="962" cy="1216" r="8" class="c0"/>
<circle cx="854" cy="1320" r="8" class="c0"/>
<circle cx="976" cy="986" r="8" class="c0"/>
<circle cx="1060" cy="1054" r="8" class="c0"/>
<circle cx="1010" cy="886" r="8" class="c0"/>
<circle cx="1016" cy="100" r="8" class="c0"/>
<circle cx="976" cy="1040" r="8" class="c0"/>
<circle cx="1010" cy="240" r="8" class="c0"/>
<circle cx="968" cy="1392" r="8" class="c0"/>
<circle cx="820" cy="294" r="8" class="c0"/>
<circle cx="932" cy="1088" r="8" class="c0"/>
<circle cx="908" cy="8" r="8" class="c0"/>
<circle cx="860" cy="360" r="8" class="c0"/>
<circle cx="928" cy="422" r="8" class="c0"/>
<circle cx="1086" cy="214" r="8" class="c0"/>
<circle cx="984" cy="846" r="8" class="c0"/>
<circle cx="966" cy="818" r="8" class="c0"/>
<circle cx="938" cy="1170" r="8" class="c0"/>
<circle cx="906" cy="126" r="8" class="c0"/>
<circle cx="1004" cy="176" r="8" class="c0"/>
<circle cx="984" cy="340" r="8" class="c0"/>
<circle cx="904" cy="170" r="8" class="c0"/>
<circle cx="932" cy="314" r="8" class="c0"/>
<circle cx="1160" cy="788" r="8" class="c0"/>
<circle cx="836" cy="284" r="8" class="c0"/>
<circle cx="980" cy="1298" r="8" class="c0"/>
<circle cx="892" cy="404" r="8" class="c0"/>
<circle cx="1216" cy="804" r="8" class="c0"/>
<circle cx="1000" cy="1134" r="8" class="c0"/>
<circle cx="942" cy="40" r="8" class="c0"/>
<circle cx="1000" cy="1220" r="8" class="c0"/>
<circle cx="948" cy="658" r="8" class="c0"/>
<circle cx="792" cy="192" r="8" class="c0"/>
<circle cx="786" cy="114" r="8" class="c0"/>
<circle cx="802" cy="68" r="8" class="c0"/>
<circle cx="996" cy="398" r="8" class="c0"/>
<circle cx="1112" cy="796" r="8" class="c0"/>
<circle cx="1100" cy="184" r="8" class="c0"/>
<circle cx="1032" cy="1290" r="8" class="c0"/>
<circle cx="950" cy="426" r="8" class="c0"/>
<circle cx="934" cy="456" r="8" class="c0"/>
<circle cx="1030" cy="18" r="8" class="c0"/>
<circle cx="1002" cy="60" r="8" class="c0"/>
<circle cx="1020" cy="1338" r="8" class="c0"/>
<circle cx="1056" cy="180" r="8" class="c0"/>
<circle cx="1064" cy="770" r="8" class="c0"/>
<circle cx="928" cy="926" r="8" class="c0"/>
<circle cx="938" cy="404" r="8" class="c0"/>
<circle cx="1052" cy="1294" r="8" class="c0"/>
<circle cx="1076" cy="1068" r="8" class="c0"/>
<circle cx="1058" cy="298" r="8" class="c0"/>
<circle cx="1098" cy="146" r="8" class="c0"/>
<circle cx="840" cy="40" r="8" class="c0"/>
<circle cx="902" cy="1384" r="8" class="c0"/>
<circle cx="934" cy="1106" r="8" class="c0"/>
<circle cx="1092" cy="1370" r="8" class="c0"/>
<circle cx="956" cy="728" r="8" class="c0"/>
<circle cx="1086" cy="764" r="8" class="c0"/>
<circle cx="1070" cy="1042" r="8" class="c0"/>
<circle cx="1114" cy="824" r="8" class="c0"/>
<circle cx="1066" cy="1160" r="8" class="c0"/>
<circle cx="894" cy="1406" r="8" class="c0"/>
<circle cx="1126" cy="856" r="8" class="c0"/>
<circle cx="986" cy="140" r="8" class="c0"/>
<circle cx="1088" cy="728" r="8" class="c0"/>
<circle cx="988" cy="962" r="8" class="c0"/>
<circle cx="1056" cy="1008" r="8" class="c0"/>
<circle cx="868" cy="1360" r="8" class="c0"/>
<circle cx="876" cy="762" r="8" class="c0"/>
<circle cx="784" cy="844" r="8" class="c0"/>
<circle cx="966" cy="718" r="8" class="c0"/>
<circle cx="1000" cy="826" r="8" class="c0"/>
<circle cx="942" cy="1336" r="8" class="c0"/>
<circle cx="1034" cy="160" r="8" class="c0"/>
<circle cx="926" cy="866" r="8" class="c0"/>
<circle cx="1070" cy="738" r="8" class="c0"/>
<circle cx="958" cy="886" r="8" class="c0"/>
<circle cx="924" cy="970" r="8" class="c0"/>
<circle cx="954" cy="1320" r="8" class="c0"/>
<circle cx="840" cy="140" r="8" class="c0"/>
<circle cx="1018" cy="1216" r="8" class="c0"/>
<circle cx="938" cy="1354" r="8" class="c0"/>
<circle cx="962" cy="796" r="8" class="c0"/>
<circle cx="914" cy="1338" r="8" class="c0"/>
<circle cx="912" cy="788" r="8" class="c0"/>
<circle cx="1144" cy="850" r="8" class="c0"/>
<circle cx="1054" cy="806" r="8" class="c0"/>
<circle cx="962" cy="286" r="8" class="c0"/>
<circle cx="1124" cy="808" r="8" class="c0"/>
<circle cx="956" cy="226" r="8" class="c0"/>
<circle cx="892" cy="58" r="8" class="c0"/>
<circle cx="986" cy="182" r="8" class="c0"/>
<circle cx="854" cy="1392" r="8" class="c0"/>
<circle cx="1066" cy="20" r="8" class="c0"/>
<circle cx="978" cy="306" r="8" class="c0"/>
<circle cx="928" cy="22" r="8" class="c0"/>
<circle cx="1260" cy="794" r="8" class="c0"/>
<circle cx="1006" cy="366" r="8" class="c0"/>
<circle cx="904" cy="1268" r="8" class="c0"/>
<circle cx="1064" cy="1312" r="8" class="c0"/>
<circle cx="1096" cy="224" r="8" class="c0"/>
<circle cx="842" cy="790" r="8" class="c0"/>
<circle cx="990" cy="918" r="8" class="c0"/>
<circle cx="964" cy="596" r="8" class="c0"/>
<circle cx="1072" cy="1388" r="8" class="c0"/>
<circle cx="978" cy="16" r="8" class="c0"/>
<circle cx="1060" cy="750" r="8" class="c0"/>
<circle cx="1000" cy="224" r="8" class="c0"/>
<circle cx="950" cy="494" r="8" class="c0"/>
<circle cx="1024" cy="1430" r="8" class="c0"/>
<circle cx="946" cy="1074" r="8" class="c0"/>
<circle cx="910" cy="396" r="8" class="c0"/>
<circle cx="906" cy="198" r="8" class="c0"/>
<circle cx="1066" cy="1024" r="8" class="c0"/>
<circle cx="1012" cy="384" r="8" class="c0"/>
<circle cx="978" cy="948" r="8" class="c0"/>
<circle cx="1074" cy="1126" r="8" class="c0"/>
<circle cx="822" cy="792" r="8" class="c0"/>
<circle cx="1050" cy="1042" r="8" class="c0"/>
<circle cx="1096" cy="778" r="8" class="c0"/>
<circle cx="1164" cy="770" r="8" class="c0"/>
<circle cx="876" cy="1322" r="8" class="c0"/>
<circle cx="1098" cy="866" r="8" class="c0"/>
<circle cx="1074" cy="288" r="8" class="c0"/>
<circle cx="974" cy="224" r="8" class="c0"/>
<circle cx="960" cy="154" r="8" class="c0"/>
<circle cx="926" cy="80" r="8" class="c0"/>
<circle cx="890" cy="348" r="8" class="c0"/>
<circle cx="1074" cy="184" r="8" class="c0"/>
<circle cx="952" cy="56" r="8" class="c0"/>
<circle cx="936" cy="112" r="8" class="c0"/>
<circle cx="1050" cy="720" r="8" class="c0"/>
<circle cx="900" cy="102" r="8" class="c0"/>
<circle cx="1024" cy="834" r="8" class="c0"/>
<circle cx="784" cy="90" r="8" class="c0"/>
<circle cx="908" cy="930" r="8" class="c0"/>
<circle cx="776" cy="156" r="8" class="c0"/>
<circle cx="794" cy="258" r="8" class="c0"/>
<circle cx="1206" cy="820" r="8" class="c0"/>
<circle cx="854" cy="80" r="8" class="c0"/>
<circle cx="978" cy="828" r="8" class="c0"/>
<circle cx="808" cy="114" r="8" class="c0"/>
<circle cx="1006" cy="1316" r="8" class="c0"/>
<circle cx="1086" cy="708" r="8" class="c0"/>
<circle cx="1048" cy="12" r="8" class="c0"/>
<circle cx="782" cy="174" r="8" class="c0"/>
<circle cx="928" cy="682" r="8" class="c0"/>
<circle cx="1116" cy="1382" r="8" class="c0"/>
<circle cx="916" cy="1116" r="8" class="c0"/>
<circle cx="1038" cy="706" r="8" class="c0"/>
<circle cx="942" cy="824" r="8" class="c0"/>
<circle cx="942" cy="66" r="8" class="c0"/>
<circle cx="936" cy="842" r="8" class="c0"/>
<circle cx="1102" cy="1150" r="8" class="c0"/>
<circle cx="942" cy="292" r="8" class="c0"/>
<circle cx="840" cy="160" r="8" class="c0"/>
<circle cx="882" cy="110" r="8" class="c0"/>
<circle cx="946" cy="702" r="8" class="c0"/>
<circle cx="900" cy="768" r="8" class="c0"/>
<circle cx="954" cy="1096" r="8" class="c0"/>
<circle cx="798" cy="130" r="8" class="c0"/>
<circle cx="1066" cy="92" r="8" class="c0"/>
<circle cx="772" cy="196" r="8" class="c0"/>
<circle cx="850" cy="1346" r="8" class="c0"/>
<circle cx="924" cy="386" r="8" class="c0"/>
<circle cx="880" cy="178" r="8" class="c0"/>
<circle cx="848" cy="62" r="8" class="c0"/>
<circle cx="1042" cy="946" r="8" class="c0"/>
<circle cx="940" cy="8" r="8" class="c0"/>
<circle cx="912" cy="240" r="8" class="c0"/>
<circle cx="1030" cy="1348" r="8" class="c0"/>
<circle cx="1134" cy="836" r="8" class="c0"/>
<circle cx="970" cy="1410" r="8" class="c0"/>
<circle cx="834" cy="904" r="8" class="c0"/>
<circle cx="908" cy="310" r="8" class="c0"/>
<circle cx="1042" cy="1172" r="8" class="c0"/>
<circle cx="994" cy="1170" r="8" class="c0"/>
<circle cx="1082" cy="74" r="8" class="c0"/>
<circle cx="1012" cy="742" r="8" class="c0"/>
<circle cx="1022" cy="876" r="8" class="c0"/>
<circle cx="982" cy="1158" r="8" class="c0"/>
<circle cx="862" cy="180" r="8" class="c0"/>
<circle cx="912" cy="1306" r="8" class="c0"/>
<circle cx="926" cy="126" r="8" class="c0"/>
<circle cx="1020" cy="356" r="8" class="c0"/>
<circle cx="894" cy="1104" r="8" class="c0"/>
<circle cx="914" cy="440" r="8" class="c0"/>
<circle cx="924" cy="262" r="8" class="c0"/>
<circle cx="1044" cy="1150" r="8" class="c0"/>
<circle cx="1158" cy="806" r="8" class="c0"/>
<circle cx="1012" cy="1028" r="8" class="c0"/>
<circle cx="840" cy="180" r="8" class="c0"/>
<circle cx="950" cy="982" r="8" class="c0"/>
<circle cx="904" cy="1422" r="8" class="c0"/>
<circle cx="1062" cy="1430" r="8" class="c0"/>
<circle cx="892" cy="214" r="8" class="c0"/>
<circle cx="968" cy="332" r="8" class="c0"/>
<circle cx="986" cy="1094" r="8" class="c0"/>
<circle cx="960" cy="1342" r="8" class="c0"/>
<circle cx="956" cy="1000" r="8" class="c0"/>
<circle cx="994" cy="112" r="8" class="c0"/>
<circle cx="980" cy="1358" r="8" class="c0"/>
<circle cx="1082" cy="270" r="8" class="c0"/>
<circle cx="1024" cy="688" r="8" class="c0"/>
<circle cx="1086" cy="1268" r="8" class="c0"/>
<circle cx="1016" cy="1256" r="8" class="c0"/>
<circle cx="1052" cy="256" r="8" class="c0"/>
<circle cx="902" cy="1328" r="8" class="c0"/>
<circle cx="1006" cy="194" r="8" class="c0"/>
<circle cx="1084" cy="126" r="8" class="c0"/>
<circle cx="982" cy="888" r="8" class="c0"/>
<circle cx="1040" cy="1022" r="8" class="c0"/>
<circle cx="1064" cy="1116" r="8" class="c0"/>
<circle cx="928" cy="204" r="8" class="c0"/>
<circle cx="1044" cy="1074" r="8" class="c0"/>
<circle cx="892" cy="272" r="8" class="c0"/>
<circle cx="892" cy="974" r="8" class="c0"/>
<circle cx="886" cy="1154" r="8" class="c0"/>
<circle cx="904" cy="1012" r="8" class="c0"/>
<circle cx="1074" cy="1088" r="8" class="c0"/>
<circle cx="1102" cy="810" r="8" class="c0"/>
<circle cx="988" cy="1272" r="8" class="c0"/>
<circle cx="1026" cy="86" r="8" class="c0"/>
<circle cx="1030" cy="776" r="8" class="c0"/>
<circle cx="1012" cy="674" r="8" class="c0"/>
<circle cx="1018" cy="816" r="8" class="c0"/>
<circle cx="1034" cy="110" r="8" class="c0"/>
<circle cx="980" cy="1226" r="8" class="c0"/>
<circle cx="918" cy="1182" r="8" class="c0"/>
<circle cx="966" cy="248" r="8" class="c0"/>
<circle cx="874" cy="90" r="8" class="c0"/>
<circle cx="930" cy="1064" r="8" class="c0"/>
<circle cx="950" cy="864" r="8" class="c0"/>
<circle cx="1108" cy="1412" r="8" class="c0"/>
<circle cx="970" cy="376" r="8" class="c0"/>
<circle cx="938" cy="668" r="6" class="c0"/>
<circle cx="1006" cy="1000" r="6" class="c0"/>
<circle cx="1044" cy="1432" r="6" class="c0"/>
<circle cx="796" cy="818" r="6" class="c0"/>
<circle cx="988" cy="1394" r="6" class="c0"/>
<circle cx="894" cy="750" r="6" class="c0"/>
<circle cx="976" cy="82" r="6" class="c0"/>
<circle cx="952" cy="1426" r="6" class="c0"/>
<circle cx="918" cy="692" r="6" class="c0"/>
<circle cx="964" cy="854" r="6" class="c0"/>
<circle cx="942" cy="1032" r="6" class="c0"/>
<circle cx="944" cy="1288" r="6" class="c0"/>
<circle cx="1050" cy="156" r="6" class="c0"/>
<circle cx="924" cy="354" r="6" class="c0"/>
<circle cx="980" cy="402" r="6" class="c0"/>
<circle cx="876" cy="1234" r="6" class="c0"/>
<circle cx="1016" cy="1130" r="6" class="c0"/>
<circle cx="856" cy="770" r="6" class="c0"/>
<circle cx="1044" cy="1356" r="6" class="c0"/>
<circle cx="826" cy="196" r="6" class="c0"/>
<circle cx="928" cy="1366" r="6" class="c0"/>
<circle cx="1058" cy="234" r="6" class="c0"/>
<circle cx="958" cy="1242" r="6" class="c0"/>
<circle cx="1002" cy="298" r="6" class="c0"/>
<circle cx="1086" cy="744" r="6" class="c0"/>
<circle cx="896" cy="1348" r="6" class="c0"/>
<circle cx="996" cy="680" r="6" class="c0"/>
<circle cx="908" cy="1248" r="6" class="c0"/>
<circle cx="1032" cy="266" r="6" class="c0"/>
<circle cx="858" cy="138" r="6" class="c0"/>
<circle cx="990" cy="812" r="6" class="c0"/>
<circle cx="918" cy="1260" r="6" class="c0"/>
<circle cx="1126" cy="1392" r="6" class="c0"/>
<circle cx="904" cy="1212" r="6" class="c0"/>
<circle cx="952" cy="1204" r="6" class="c0"/>
<circle cx="1014" cy="6" r="6" class="c0"/>
<circle cx="958" cy="1380" r="6" class="c0"/>
<circle cx="1054" cy="838" r="6" class="c0"/>
<circle cx="934" cy="334" r="6" class="c0"/>
<circle cx="1030" cy="956" r="6" class="c0"/>
<circle cx="790" cy="242" r="6" class="c0"/>
<circle cx="1006" cy="1060" r="6" class="c0"/>
<circle cx="1026" cy="1140" r="6" class="c0"/>
<circle cx="966" cy="972" r="6" class="c0"/>
<circle cx="798" cy="274" r="6" class="c0"/>
<circle cx="964" cy="76" r="6" class="c0"/>
<circle cx="944" cy="932" r="6" class="c0"/>
<circle cx="844" cy="346" r="6" class="c0"/>
<circle cx="830" cy="338" r="6" class="c0"/>
<circle cx="938" cy="750" r="6" class="c0"/>
<circle cx="1014" cy="1172" r="6" class="c0"/>
<circle cx="976" cy="1108" r="6" class="c0"/>
<circle cx="888" cy="1120" r="6" class="c0"/>
<circle cx="1014" cy="76" r="6" class="c0"/>
<circle cx="858" cy="254" r="6" class="c0"/>
<circle cx="1106" cy="734" r="6" class="c0"/>
<circle cx="1052" cy="988" r="6" class="c0"/>
<circle cx="1166" cy="720" r="6" class="c0"/>
<circle cx="912" cy="806" r="6" class="c0"/>
<circle cx="840" cy="832" r="6" class="c0"/>
<circle cx="998" cy="6" r="6" class="c0"/>
<circle cx="930" cy="660" r="6" class="c0"/>
<circle cx="1064" cy="788" r="6" class="c0"/>
<circle cx="938" cy="438" r="6" class="c0"/>
<circle cx="938" cy="364" r="6" class="c0"/>
<circle cx="876" cy="820" r="6" class="c0"/>
<circle cx="1078" cy="870" r="6" class="c0"/>
<circle cx="798" cy="862" r="6" class="c0"/>
<circle cx="942" cy="178" r="6" class="c0"/>
<circle cx="816" cy="232" r="6" class="c0"/>
<circle cx="1068" cy="1338" r="6" class="c0"/>
<circle cx="970" cy="1314" r="6" class="c0"/>
<circle cx="1134" cy="750" r="6" class="c0"/>
<circle cx="986" cy="1314" r="6" class="c0"/>
<circle cx="1064" cy="1402" r="6" class="c0"/>
<circle cx="914" cy="890" r="6" class="c0"/>
<circle cx="858" cy="784" r="6" class="c0"/>
<circle cx="1010" cy="1234" r="6" class="c0"/>
<circle cx="1044" cy="330" r="6" class="c0"/>
<circle cx="864" cy="1334" r="6" class="c0"/>
<circle cx="1030" cy="370" r="6" class="c0"/>
<circle cx="984" cy="124" r="6" class="c0"/>
<circle cx="772" cy="892" r="6" class="c0"/>
<circle cx="992" cy="704" r="6" class="c0"/>
<circle cx="1006" cy="1424" r="6" class="c0"/>
<circle cx="1020" cy="1362" r="6" class="c0"/>
<circle cx="1000" cy="844" r="6" class="c0"/>
<circle cx="932" cy="1294" r="6" class="c0"/>
<circle cx="1026" cy="252" r="6" class="c0"/>
<circle cx="920" cy="142" r="6" class="c0"/>
<circle cx="1008" cy="256" r="6" class="c0"/>
<circle cx="1100" cy="716" r="6" class="c0"/>
<circle cx="1016" cy="52" r="6" class="c0"/>
<circle cx="1066" cy="1220" r="6" class="c0"/>
<circle cx="1024" cy="174" r="6" class="c0"/>
<circle cx="1034" cy="1306" r="6" class="c0"/>
<circle cx="858" cy="858" r="6" class="c0"/>
<circle cx="1114" cy="1306" r="6" class="c0"/>
<circle cx="950" cy="1130" r="6" class="c0"/>
<circle cx="1092" cy="1326" r="6" class="c0"/>
<circle cx="1072" cy="64" r="6" class="c0"/>
<circle cx="1038" cy="646" r="6" class="c0"/>
<circle cx="898" cy="18" r="6" class="c0"/>
<circle cx="786" cy="52" r="6" class="c0"/>
<circle cx="1138" cy="1356" r="6" class="c0"/>
<circle cx="1118" cy="1402" r="6" class="c0"/>
<circle cx="798" cy="102" r="6" class="c0"/>
<circle cx="950" cy="1234" r="6" class="c0"/>
<circle cx="898" cy="900" r="6" class="c0"/>
<circle cx="948" cy="910" r="6" class="c0"/>
<circle cx="972" cy="394" r="6" class="c0"/>
<circle cx="858" cy="1304" r="6" class="c0"/>
<circle cx="1026" cy="1246" r="6" class="c0"/>
<circle cx="1046" cy="28" r="6" class="c0"/>
<circle cx="838" cy="1384" r="6" class="c0"/>
<circle cx="920" cy="1376" r="6" class="c0"/>
<circle cx="1078" cy="1352" r="6" class="c0"/>
<circle cx="918" cy="1210" r="6" class="c0"/>
<circle cx="952" cy="1154" r="6" class="c0"/>
<circle cx="862" cy="306" r="6" class="c0"/>
<circle cx="824" cy="222" r="6" class="c0"/>
<circle cx="856" cy="818" r="6" class="c0"/>
<circle cx="836" cy="880" r="6" class="c0"/>
<circle cx="1052" cy="1182" r="6" class="c0"/>
<circle cx="876" cy="410" r="6" class="c0"/>
<circle cx="1034" cy="804" r="6" class="c0"/>
<circle cx="910" cy="862" r="6" class="c0"/>
<circle cx="1026" cy="1092" r="6" class="c0"/>
<circle cx="864" cy="1278" r="6" class="c0"/>
<circle cx="900" cy="382" r="6" class="c0"/>
<circle cx="928" cy="710" r="6" class="c0"/>
<circle cx="866" cy="244" r="6" class="c0"/>
<circle cx="1028" cy="1406" r="6" class="c0"/>
<circle cx="758" cy="898" r="6" class="c0"/>
<circle cx="786" cy="828" r="6" class="c0"/>
<circle cx="972" cy="1280" r="6" class="c0"/>
<circle cx="910" cy="1402" r="6" class="c0"/>
<circle cx="942" cy="1382" r="6" class="c0"/>
<circle cx="934" cy="986" r="6" class="c0"/>
<circle cx="932" cy="952" r="6" class="c0"/>
<circle cx="976" cy="808" r="6" class="c0"/>
<circle cx="838" cy="78" r="6" class="c0"/>
<circle cx="1028" cy="330" r="6" class="c0"/>
<circle cx="968" cy="140" r="6" class="c0"/>
<circle cx="1052" cy="222" r="6" class="c0"/>
<circle cx="954" cy="370" r="6" class="c0"/>
<circle cx="966" cy="464" r="6" class="c0"/>
<circle cx="828" cy="112" r="6" class="c0"/>
<circle cx="1084" cy="92" r="6" class="c0"/>
<circle cx="782" cy="214" r="6" class="c0"/>
<circle cx="1040" cy="1058" r="6" class="c0"/>
<circle cx="1036" cy="922" r="6" class="c0"/>
<circle cx="1218" cy="758" r="6" class="c0"/>
<circle cx="918" cy="668" r="6" class="c0"/>
<circle cx="936" cy="1122" r="6" class="c0"/>
<circle cx="1020" cy="760" r="6" class="c0"/>
<circle cx="950" cy="806" r="6" class="c0"/>
<circle cx="940" cy="480" r="6" class="c0"/>
<circle cx="886" cy="1426" r="6" class="c0"/>
<circle cx="776" cy="238" r="6" class="c0"/>
<circle cx="980" cy="1132" r="6" class="c0"/>
<circle cx="834" cy="256" r="6" class="c0"/>
<circle cx="914" cy="156" r="6" class="c0"/>
<circle cx="782" cy="138" r="6" class="c0"/>
<circle cx="1002" cy="344" r="6" class="c0"/>
<circle cx="808" cy="282" r="6" class="c0"/>
<circle cx="1028" cy="744" r="6" class="c0"/>
<circle cx="846" cy="6" r="6" class="c0"/>
<circle cx="838" cy="122" r="6" class="c0"/>
<circle cx="1082" cy="1052" r="6" class="c0"/>
<circle cx="1056" cy="1378" r="6" class="c0"/>
<circle cx="1044" cy="100" r="6" class="c0"/>
<circle cx="1038" cy="212" r="6" class="c0"/>
<circle cx="890" cy="190" r="6" class="c0"/>
<circle cx="1116" cy="866" r="6" class="c0"/>
<circle cx="1044" cy="1280" r="6" class="c0"/>
<circle cx="982" cy="714" r="6" class="c0"/>
<circle cx="1080" cy="1168" r="6" class="c0"/>
<circle cx="1144" cy="776" r="6" class="c0"/>
<circle cx="808" cy="852" r="6" class="c0"/>
<circle cx="890" cy="1278" r="6" class="c0"/>
<circle cx="958" cy="6" r="6" class="c0"/>
<circle cx="1070" cy="260" r="6" class="c0"/>
<circle cx="1020" cy="948" r="6" class="c0"/>
<circle cx="816" cy="310" r="6" class="c0"/>
<circle cx="972" cy="352" r="6" class="c0"/>
<circle cx="982" cy="44" r="6" class="c0"/>
<circle cx="1060" cy="674" r="6" class="c0"/>
<circle cx="864" cy="1382" r="6" class="c0"/>
<circle cx="922" cy="466" r="6" class="c0"/>
<circle cx="910" cy="72" r="6" class="c0"/>
<circle cx="882" cy="834" r="6" class="c0"/>
<circle cx="1082" cy="1252" r="6" class="c0"/>
<circle cx="990" cy="1144" r="6" class="c0"/>
<circle cx="1076" cy="780" r="6" class="c0"/>
<circle cx="1068" cy="686" r="6" class="c0"/>
<circle cx="1040" cy="178" r="6" class="c0"/>
<circle cx="1126" cy="742" r="6" class="c0"/>
<circle cx="1012" cy="210" r="6" class="c0"/>
<circle cx="922" cy="816" r="6" class="c0"/>
<circle cx="1108" cy="1290" r="6" class="c0"/>
<circle cx="938" cy="1306" r="6" class="c0"/>
<circle cx="1128" cy="1316" r="6" class="c0"/>
<circle cx="922" cy="1246" r="6" class="c0"/>
<circle cx="1060" cy="164" r="6" class="c0"/>
<circle cx="894" cy="1084" r="6" class="c0"/>
<circle cx="1004" cy="158" r="6" class="c0"/>
<circle cx="984" cy="672" r="6" class="c0"/>
<circle cx="970" cy="196" r="6" class="c0"/>
<circle cx="822" cy="826" r="6" class="c0"/>
<circle cx="1060" cy="1076" r="6" class="c0"/>
<circle cx="912" cy="456" r="6" class="c0"/>
<circle cx="1020" cy="1414" r="6" class="c0"/>
<circle cx="890" cy="162" r="6" class="c0"/>
<circle cx="878" cy="394" r="6" class="c0"/>
<circle cx="926" cy="370" r="6" class="c0"/>
<circle cx="924" cy="40" r="6" class="c0"/>
<circle cx="1026" cy="1392" r="6" class="c0"/>
<circle cx="802" cy="180" r="6" class="c0"/>
<circle cx="898" cy="796" r="6" class="c0"/>
<circle cx="1074" cy="202" r="6" class="c0"/>
<circle cx="920" cy="406" r="6" class="c0"/>
<circle cx="900" cy="1176" r="6" class="c0"/>
<circle cx="890" cy="10" r="6" class="c0"/>
<circle cx="896" cy="944" r="6" class="c0"/>
<circle cx="886" cy="1134" r="6" class="c0"/>
<circle cx="998" cy="130" r="6" class="c0"/>
<circle cx="1042" cy="60" r="6" class="c0"/>
<circle cx="1064" cy="74" r="6" class="c0"/>
<circle cx="822" cy="6" r="6" class="c0"/>
<circle cx="816" cy="140" r="6" class="c0"/>
<circle cx="1028" cy="1206" r="6" class="c0"/>
<circle cx="940" cy="1048" r="6" class="c0"/>
<circle cx="1152" cy="834" r="6" class="c0"/>
<circle cx="852" cy="170" r="6" class="c0"/>
<circle cx="1060" cy="338" r="6" class="c0"/>
<circle cx="964" cy="1432" r="6" class="c0"/>
<circle cx="966" cy="422" r="6" class="c0"/>
<circle cx="980" cy="100" r="6" class="c0"/>
<circle cx="1010" cy="406" r="6" class="c0"/>
<circle cx="1084" cy="1338" r="6" class="c0"/>
<circle cx="824" cy="74" r="6" class="c0"/>
<circle cx="946" cy="792" r="6" class="c0"/>
<circle cx="1028" cy="140" r="6" class="c0"/>
<circle cx="862" cy="378" r="6" class="c0"/>
<circle cx="1100" cy="1278" r="6" class="c0"/>
<circle cx="1054" cy="780" r="6" class="c0"/>
<circle cx="822" cy="38" r="6" class="c0"/>
<circle cx="1108" cy="1364" r="6" class="c0"/>
<circle cx="964" cy="700" r="6" class="c0"/>
<circle cx="894" cy="1200" r="6" class="c0"/>
<circle cx="1016" cy="166" r="6" class="c0"/>
<circle cx="970" cy="1368" r="6" class="c0"/>
<circle cx="774" cy="222" r="6" class="c0"/>
<circle cx="970" cy="1202" r="6" class="c0"/>
<circle cx="852" cy="150" r="6" class="c0"/>
<circle cx="810" cy="188" r="6" class="c0"/>
<circle cx="940" cy="194" r="6" class="c0"/>
<circle cx="912" cy="1026" r="6" class="c0"/>
<circle cx="850" cy="1426" r="6" class="c0"/>
<circle cx="946" cy="1018" r="6" class="c0"/>
<circle cx="1044" cy="1192" r="6" class="c0"/>
<circle cx="986" cy="934" r="6" class="c0"/>
<circle cx="1020" cy="990" r="6" class="c0"/>
<circle cx="902" cy="1146" r="6" class="c0"/>
<circle cx="764" cy="884" r="6" class="c0"/>
<circle cx="924" cy="6" r="6" class="c0"/>
<circle cx="1018" cy="28" r="6" class="c0"/>
<circle cx="1194" cy="830" r="6" class="c0"/>
<circle cx="946" cy="740" r="6" class="c0"/>
<circle cx="958" cy="262" r="6" class="c0"/>
<circle cx="908" cy="972" r="6" class="c0"/>
<circle cx="1092" cy="1162" r="6" class="c0"/>
<circle cx="1068" cy="128" r="6" class="c0"/>
<circle cx="968" cy="90" r="6" class="c0"/>
<circle cx="988" cy="1372" r="6" class="c0"/>
<circle cx="1090" cy="1130" r="6" class="c0"/>
<circle cx="1048" cy="1310" r="6" class="c0"/>
<circle cx="950" cy="186" r="6" class="c0"/>
<circle cx="1024" cy="664" r="6" class="c0"/>
<circle cx="1174" cy="798" r="6" class="c0"/>
<circle cx="1070" cy="308" r="6" class="c0"/>
<circle cx="1088" cy="156" r="6" class="c0"/>
<circle cx="928" cy="246" r="6" class="c0"/>
<circle cx="1004" cy="690" r="6" class="c0"/>
<circle cx="976" cy="450" r="6" class="c0"/>
<circle cx="1022" cy="1300" r="6" class="c0"/>
<circle cx="1100" cy="164" r="6" class="c0"/>
<circle cx="850" cy="128" r="6" class="c0"/>
<circle cx="870" cy="298" r="6" class="c0"/>
<circle cx="932" cy="276" r="6" class="c0"/>
<circle cx="1086" cy="300" r="6" class="c0"/>
<circle cx="918" cy="852" r="6" class="c0"/>
<circle cx="1072" cy="36" r="6" class="c0"/>
<circle cx="960" cy="902" r="6" class="c0"/>
<circle cx="922" cy="1352" r="6" class="c0"/>
<circle cx="1034" cy="1110" r="6" class="c0"/>
<circle cx="916" cy="116" r="6" class="c0"/>
<circle cx="1026" cy="1266" r="6" class="c0"/>
<circle cx="1026" cy="1122" r="6" class="c0"/>
<circle cx="906" cy="1048" r="6" class="c0"/>
<circle cx="930" cy="1238" r="6" class="c0"/>
<circle cx="1080" cy="52" r="6" class="c0"/>
<circle cx="1006" cy="14" r="6" class="c0"/>
<circle cx="878" cy="280" r="6" class="c0"/>
</svg>
