<?xml version="1.0" encoding="utf-8"?>
<svg xmlns="http://www.w3.org/2000/svg"
     xmlns:xlink="http://www.w3.org/1999/xlink" width="1920" height="1440" >

            <defs>
            <style type="text/css"><![CDATA[
circle {stroke: none;}
.c0 {fill: #FFFFFF;}
]]></style>
            </defs>
<rect x="0" y="0" width="1920" height="1440" fill="black"/>
<circle cx="962" cy="744" r="14" class="c0"/>
<circle cx="998" cy="212" r="14" class="c0"/>
<circle cx="910" cy="186" r="12" class="c0"/>
<circle cx="948" cy="992" r="12" class="c0"/>
<circle cx="992" cy="150" r="12" class="c0"/>
<circle cx="1012" cy="188" r="12" class="c0"/>
<circle cx="942" cy="74" r="12" class="c0"/>
<circle cx="912" cy="302" r="12" class="c0"/>
<circle cx="1038" cy="846" r="12" class="c0"/>
<circle cx="876" cy="44" r="12" class="c0"/>
<circle cx="936" cy="950" r="12" class="c0"/>
<circle cx="786" cy="840" r="12" class="c0"/>
<circle cx="1020" cy="894" r="12" class="c0"/>
<circle cx="960" cy="192" r="12" class="c0"/>
<circle cx="952" cy="1340" r="12" class="c0"/>
<circle cx="922" cy="670" r="12" class="c0"/>
<circle cx="912" cy="932" r="12" class="c0"/>
<circle cx="1032" cy="200" r="12" class="c0"/>
<circle cx="984" cy="1108" r="12" class="c0"/>
<circle cx="954" cy="1310" r="12" class="c0"/>
<circle cx="1028" cy="784" r="12" class="c0"/>
<circle cx="986" cy="28" r="12" class="c0"/>
<circle cx="934" cy="1398" r="12" class="c0"/>
<circle cx="1064" cy="1414" r="12" class="c0"/>
<circle cx="1002" cy="1156" r="12" class="c0"/>
<circle cx="1074" cy="104" r="12" class="c0"/>
<circle cx="802" cy="70" r="12" class="c0"/>
<circle cx="970" cy="824" r="12" class="c0"/>
<circle cx="956" cy="1212" r="12" class="c0"/>
<circle cx="880" cy="262" r="12" class="c0"/>
<circle cx="1050" cy="732" r="12" class="c0"/>
<circle cx="950" cy="32" r="12" class="c0"/>
<circle cx="1158" cy="814" r="12" class="c0"/>
<circle cx="896" cy="844" r="12" class="c0"/>
<circle cx="1176" cy="736" r="12" class="c0"/>
<circle cx="846" cy="772" r="12" class="c0"/>
<circle cx="1018" cy="674" r="12" class="c0"/>
<circle cx="812" cy="274" r="12" class="c0"/>
<circle cx="1082" cy="1390" r="12" class="c0"/>
<circle cx="882" cy="358" r="12" class="c0"/>
<circle cx="1066" cy="844" r="12" class="c0"/>
<circle cx="968" cy="94" r="12" class="c0"/>
<circle cx="1060" cy="1312" r="12" class="c0"/>
<circle cx="852" cy="820" r="12" class="c0"/>
<circle cx="918" cy="338" r="12" class="c0"/>
<circle cx="850" cy="1368" r="12" class="c0"/>
<circle cx="876" cy="186" r="12" class="c0"/>
<circle cx="1054" cy="792" r="12" class="c0"/>
<circle cx="1148" cy="770" r="12" class="c0"/>
<circle cx="896" cy="278" r="12" class="c0"/>
<circle cx="830" cy="46" r="12" class="c0"/>
<circle cx="826" cy="246" r="12" class="c0"/>
<circle cx="876" cy="1384" r="12" class="c0"/>
<circle cx="982" cy="276" r="12" class="c0"/>
<circle cx="1014" cy="960" r="12" class="c0"/>
<circle cx="910" cy="884" r="10" class="c0"/>
<circle cx="900" cy="1320" r="10" class="c0"/>
<circle cx="878" cy="896" r="10" class="c0"/>
<circle cx="932" cy="1036" r="10" class="c0"/>
<circle cx="876" cy="154" r="10" class="c0"/>
<circle cx="1034" cy="700" r="10" class="c0"/>
<circle cx="908" cy="694" r="10" class="c0"/>
<circle cx="946" cy="830" r="10" class="c0"/>
<circle cx="902" cy="1084" r="10" class="c0"/>
<circle cx="1060" cy="696" r="10" class="c0"/>
<circle cx="854" cy="110" r="10" class="c0"/>
<circle cx="1018" cy="1192" r="10" class="c0"/>
<circle cx="908" cy="1258" r="10" class="c0"/>
<circle cx="1020" cy="1102" r="10" class="c0"/>
<circle cx="948" cy="1272" r="10" class="c0"/>
<circle cx="1000" cy="758" r="10" class="c0"/>
<circle cx="916" cy="24" r="10" class="c0"/>
<circle cx="1012" cy="1372" r="10" class="c0"/>
<circle cx="998" cy="246" r="10" class="c0"/>
<circle cx="1028" cy="24" r="10" class="c0"/>
<circle cx="934" cy="898" r="10" class="c0"/>
<circle cx="1080" cy="816" r="10" class="c0"/>
<circle cx="1214" cy="740" r="10" class="c0"/>
<circle cx="972" cy="1296" r="10" class="c0"/>
<circle cx="910" cy="1008" r="10" class="c0"/>
<circle cx="1010" cy="60" r="10" class="c0"/>
<circle cx="828" cy="200" r="10" class="c0"/>
<circle cx="1076" cy="1166" r="10" class="c0"/>
<circle cx="1112" cy="1370" r="10" class="c0"/>
<circle cx="938" cy="106" r="10" class="c0"/>
<circle cx="1212" cy="778" r="10" class="c0"/>
<circle cx="962" cy="1388" r="10" class="c0"/>
<circle cx="942" cy="412" r="10" class="c0"/>
<circle cx="990" cy="992" r="10" class="c0"/>
<circle cx="908" cy="380" r="10" class="c0"/>
<circle cx="1106" cy="740" r="10" class="c0"/>
<circle cx="1052" cy="1084" r="10" class="c0"/>
<circle cx="1034" cy="1318" r="10" class="c0"/>
<circle cx="952" cy="658" r="10" class="c0"/>
<circle cx="898" cy="124" r="10" class="c0"/>
<circle cx="858" cy="1300" r="10" class="c0"/>
<circle cx="832" cy="830" r="10" class="c0"/>
<circle cx="1052" cy="302" r="10" class="c0"/>
<circle cx="1082" cy="712" r="10" class="c0"/>
<circle cx="880" cy="1154" r="10" class="c0"/>
<circle cx="990" cy="366" r="10" class="c0"/>
<circle cx="902" cy="1282" r="10" class="c0"/>
<circle cx="1024" cy="1278" r="10" class="c0"/>
<circle cx="1036" cy="1238" r="10" class="c0"/>
<circle cx="970" cy="1144" r="10" class="c0"/>
<circle cx="882" cy="320" r="10" class="c0"/>
<circle cx="922" cy="1196" r="10" class="c0"/>
<circle cx="916" cy="424" r="10" class="c0"/>
<circle cx="1054" cy="252" r="10" class="c0"/>
<circle cx="1120" cy="784" r="10" class="c0"/>
<circle cx="1000" cy="116" r="10" class="c0"/>
<circle cx="1000" cy="866" r="10" class="c0"/>
<circle cx="980" cy="1372" r="10" class="c0"/>
<circle cx="1026" cy="346" r="10" class="c0"/>
<circle cx="918" cy="810" r="10" class="c0"/>
<circle cx="1256" cy="784" r="10" class="c0"/>
<circle cx="984" cy="716" r="10" class="c0"/>
<circle cx="1132" cy="756" r="10" class="c0"/>
<circle cx="952" cy="1368" r="10" class="c0"/>
<circle cx="1160" cy="788" r="10" class="c0"/>
<circle cx="904" cy="404" r="10" class="c0"/>
<circle cx="970" cy="118" r="10" class="c0"/>
<circle cx="1084" cy="1320" r="10" class="c0"/>
<circle cx="882" cy="822" r="10" class="c0"/>
<circle cx="1064" cy="1038" r="10" class="c0"/>
<circle cx="1050" cy="120" r="10" class="c0"/>
<circle cx="1000" cy="408" r="10" class="c0"/>
<circle cx="1076" cy="254" r="10" class="c0"/>
<circle cx="1008" cy="1218" r="10" class="c0"/>
<circle cx="868" cy="1410" r="10" class="c0"/>
<circle cx="884" cy="100" r="10" class="c0"/>
<circle cx="994" cy="1206" r="10" class="c0"/>
<circle cx="970" cy="334" r="10" class="c0"/>
<circle cx="1052" cy="1220" r="10" class="c0"/>
<circle cx="928" cy="448" r="10" class="c0"/>
<circle cx="1000" cy="842" r="10" class="c0"/>
<circle cx="970" cy="870" r="10" class="c0"/>
<circle cx="846" cy="890" r="10" class="c0"/>
<circle cx="788" cy="106" r="10" class="c0"/>
<circle cx="920" cy="1160" r="10" class="c0"/>
<circle cx="910" cy="1368" r="10" class="c0"/>
<circle cx="910" cy="1048" r="10" class="c0"/>
<circle cx="836" cy="794" r="10" class="c0"/>
<circle cx="920" cy="840" r="10" class="c0"/>
<circle cx="992" cy="812" r="10" class="c0"/>
<circle cx="902" cy="910" r="10" class="c0"/>
<circle cx="882" cy="1228" r="10" class="c0"/>
<circle cx="902" cy="1218" r="10" class="c0"/>
<circle cx="816" cy="878" r="10" class="c0"/>
<circle cx="1012" cy="276" r="10" class="c0"/>
<circle cx="1004" cy="302" r="10" class="c0"/>
<circle cx="896" cy="1136" r="10" class="c0"/>
<circle cx="882" cy="16" r="10" class="c0"/>
<circle cx="950" cy="172" r="10" class="c0"/>
<circle cx="948" cy="1424" r="10" class="c0"/>
<circle cx="1114" cy="1304" r="10" class="c0"/>
<circle cx="1206" cy="802" r="10" class="c0"/>
<circle cx="1014" cy="1258" r="10" class="c0"/>
<circle cx="1088" cy="142" r="10" class="c0"/>
<circle cx="1038" cy="1122" r="10" class="c0"/>
<circle cx="1062" cy="44" r="10" class="c0"/>
<circle cx="864" cy="1340" r="10" class="c0"/>
<circle cx="994" cy="1332" r="10" class="c0"/>
<circle cx="964" cy="1244" r="10" class="c0"/>
<circle cx="998" cy="1400" r="10" class="c0"/>
<circle cx="824" cy="10" r="10" class="c0"/>
<circle cx="1186" cy="766" r="10" class="c0"/>
<circle cx="1080" cy="1118" r="10" class="c0"/>
<circle cx="912" cy="1424" r="10" class="c0"/>
<circle cx="1074" cy="1284" r="10" class="c0"/>
<circle cx="914" cy="98" r="10" class="c0"/>
<circle cx="888" cy="874" r="10" class="c0"/>
<circle cx="1126" cy="1320" r="10" class="c0"/>
<circle cx="1020" cy="1394" r="10" class="c0"/>
<circle cx="1064" cy="132" r="10" class="c0"/>
<circle cx="1090" cy="192" r="10" class="c0"/>
<circle cx="912" cy="1338" r="10" class="c0"/>
<circle cx="938" cy="14" r="10" class="c0"/>
<circle cx="976" cy="1042" r="10" class="c0"/>
<circle cx="1140" cy="1348" r="10" class="c0"/>
<circle cx="954" cy="308" r="10" class="c0"/>
<circle cx="850" cy="12" r="10" class="c0"/>
<circle cx="1010" cy="1068" r="10" class="c0"/>
<circle cx="1096" cy="762" r="10" class="c0"/>
<circle cx="946" cy="360" r="10" class="c0"/>
<circle cx="894" cy="1170" r="10" class="c0"/>
<circle cx="994" cy="1306" r="10" class="c0"/>
<circle cx="950" cy="486" r="10" class="c0"/>
<circle cx="872" cy="238" r="10" class="c0"/>
<circle cx="984" cy="1180" r="10" class="c0"/>
<circle cx="934" cy="692" r="10" class="c0"/>
<circle cx="974" cy="1428" r="10" class="c0"/>
<circle cx="894" cy="1244" r="10" class="c0"/>
<circle cx="1034" cy="1418" r="10" class="c0"/>
<circle cx="958" cy="844" r="10" class="c0"/>
<circle cx="994" cy="684" r="10" class="c0"/>
<circle cx="936" cy="144" r="10" class="c0"/>
<circle cx="954" cy="260" r="8" class="c0"/>
<circle cx="1096" cy="858" r="8" class="c0"/>
<circle cx="876" cy="1262" r="8" class="c0"/>
<circle cx="844" cy="88" r="8" class="c0"/>
<circle cx="1176" cy="836" r="8" class="c0"/>
<circle cx="790" cy="230" r="8" class="c0"/>
<circle cx="1198" cy="752" r="8" class="c0"/>
<circle cx="964" cy="50" r="8" class="c0"/>
<circle cx="944" cy="230" r="8" class="c0"/>
<circle cx="898" cy="84" r="8" class="c0"/>
<circle cx="1040" cy="1364" r="8" class="c0"/>
<circle cx="914" cy="44" r="8" class="c0"/>
<circle cx="1048" cy="98" r="8" class="c0"/>
<circle cx="912" cy="714" r="8" class="c0"/>
<circle cx="848" cy="194" r="8" class="c0"/>
<circle cx="864" cy="918" r="8" class="c0"/>
<circle cx="992" cy="734" r="8" class="c0"/>
<circle cx="776" cy="874" r="8" class="c0"/>
<circle cx="958" cy="1158" r="8" class="c0"/>
<circle cx="818" cy="852" r="8" class="c0"/>
<circle cx="808" cy="146" r="8" class="c0"/>
<circle cx="950" cy="1084" r="8" class="c0"/>
<circle cx="910" cy="218" r="8" class="c0"/>
<circle cx="984" cy="172" r="8" class="c0"/>
<circle cx="1092" cy="830" r="8" class="c0"/>
<circle cx="820" cy="102" r="8" class="c0"/>
<circle cx="980" cy="648" r="8" class="c0"/>
<circle cx="966" cy="410" r="8" class="c0"/>
<circle cx="874" cy="782" r="8" class="c0"/>
<circle cx="922" cy="1224" r="8" class="c0"/>
<circle cx="1100" cy="804" r="8" class="c0"/>
<circle cx="916" cy="736" r="8" class="c0"/>
<circle cx="1018" cy="130" r="8" class="c0"/>
<circle cx="868" cy="1214" r="8" class="c0"/>
<circle cx="982" cy="1132" r="8" class="c0"/>
<circle cx="1006" cy="1346" r="8" class="c0"/>
<circle cx="844" cy="174" r="8" class="c0"/>
<circle cx="922" cy="756" r="8" class="c0"/>
<circle cx="924" cy="402" r="8" class="c0"/>
<circle cx="1016" cy="744" r="8" class="c0"/>
<circle cx="840" cy="68" r="8" class="c0"/>
<circle cx="1034" cy="1064" r="8" class="c0"/>
<circle cx="882" cy="766" r="8" class="c0"/>
<circle cx="814" cy="810" r="8" class="c0"/>
<circle cx="1038" cy="1182" r="8" class="c0"/>
<circle cx="864" cy="140" r="8" class="c0"/>
<circle cx="892" cy="32" r="8" class="c0"/>
<circle cx="1138" cy="724" r="8" class="c0"/>
<circle cx="988" cy="954" r="8" class="c0"/>
<circle cx="850" cy="1392" r="8" class="c0"/>
<circle cx="1112" cy="814" r="8" class="c0"/>
<circle cx="1054" cy="1248" r="8" class="c0"/>
<circle cx="930" cy="718" r="8" class="c0"/>
<circle cx="1054" cy="1380" r="8" class="c0"/>
<circle cx="1014" cy="716" r="8" class="c0"/>
<circle cx="964" cy="920" r="8" class="c0"/>
<circle cx="980" cy="300" r="8" class="c0"/>
<circle cx="960" cy="972" r="8" class="c0"/>
<circle cx="1090" cy="788" r="8" class="c0"/>
<circle cx="1030" cy="258" r="8" class="c0"/>
<circle cx="970" cy="240" r="8" class="c0"/>
<circle cx="1114" cy="710" r="8" class="c0"/>
<circle cx="972" cy="776" r="8" class="c0"/>
<circle cx="842" cy="224" r="8" class="c0"/>
<circle cx="956" cy="434" r="8" class="c0"/>
<circle cx="1070" cy="768" r="8" class="c0"/>
<circle cx="1022" cy="1046" r="8" class="c0"/>
<circle cx="986" cy="912" r="8" class="c0"/>
<circle cx="880" cy="1202" r="8" class="c0"/>
<circle cx="902" cy="144" r="8" class="c0"/>
<circle cx="934" cy="54" r="8" class="c0"/>
<circle cx="980" cy="72" r="8" class="c0"/>
<circle cx="920" cy="246" r="8" class="c0"/>
<circle cx="962" cy="634" r="8" class="c0"/>
<circle cx="1232" cy="796" r="8" class="c0"/>
<circle cx="930" cy="204" r="8" class="c0"/>
<circle cx="922" cy="162" r="8" class="c0"/>
<circle cx="888" cy="62" r="8" class="c0"/>
<circle cx="844" cy="320" r="8" class="c0"/>
<circle cx="1154" cy="734" r="8" class="c0"/>
<circle cx="1040" cy="10" r="8" class="c0"/>
<circle cx="998" cy="338" r="8" class="c0"/>
<circle cx="824" cy="136" r="8" class="c0"/>
<circle cx="920" cy="76" r="8" class="c0"/>
<circle cx="962" cy="142" r="8" class="c0"/>
<circle cx="1048" cy="64" r="8" class="c0"/>
<circle cx="1022" cy="824" r="8" class="c0"/>
<circle cx="1058" cy="176" r="8" class="c0"/>
<circle cx="1038" cy="986" r="8" class="c0"/>
<circle cx="914" cy="1072" r="8" class="c0"/>
<circle cx="908" cy="974" r="8" class="c0"/>
<circle cx="1194" cy="848" r="8" class="c0"/>
<circle cx="950" cy="380" r="8" class="c0"/>
<circle cx="902" cy="792" r="8" class="c0"/>
<circle cx="972" cy="1168" r="8" class="c0"/>
<circle cx="826" cy="300" r="8" class="c0"/>
<circle cx="964" cy="1094" r="8" class="c0"/>
<circle cx="944" cy="1252" r="8" class="c0"/>
<circle cx="998" cy="652" r="8" class="c0"/>
<circle cx="910" cy="262" r="8" class="c0"/>
<circle cx="792" cy="210" r="8" class="c0"/>
<circle cx="898" cy="1402" r="8" class="c0"/>
<circle cx="1040" cy="324" r="8" class="c0"/>
<circle cx="1054" cy="1058" r="8" class="c0"/>
<circle cx="938" cy="1322" r="8" class="c0"/>
<circle cx="978" cy="976" r="8" class="c0"/>
<circle cx="852" cy="282" r="8" class="c0"/>
<circle cx="876" cy="1324" r="8" class="c0"/>
<circle cx="1004" cy="942" r="8" class="c0"/>
<circle cx="940" cy="326" r="8" class="c0"/>
<circle cx="984" cy="936" r="8" class="c0"/>
<circle cx="1006" cy="14" r="8" class="c0"/>
<circle cx="880" cy="1354" r="8" class="c0"/>
<circle cx="1098" cy="1152" r="8" class="c0"/>
<circle cx="960" cy="1072" r="8" class="c0"/>
<circle cx="1062" cy="80" r="8" class="c0"/>
<circle cx="874" cy="216" r="8" class="c0"/>
<circle cx="1022" cy="1334" r="8" class="c0"/>
<circle cx="1020" cy="1132" r="8" class="c0"/>
<circle cx="936" cy="1064" r="8" class="c0"/>
<circle cx="954" cy="1038" r="8" class="c0"/>
<circle cx="790" cy="810" r="8" class="c0"/>
<circle cx="864" cy="872" r="8" class="c0"/>
<circle cx="1050" cy="1428" r="8" class="c0"/>
<circle cx="1026" cy="88" r="8" class="c0"/>
<circle cx="966" cy="1192" r="8" class="c0"/>
<circle cx="1052" cy="1110" r="8" class="c0"/>
<circle cx="798" cy="886" r="8" class="c0"/>
<circle cx="1130" cy="818" r="8" class="c0"/>
<circle cx="992" cy="1252" r="8" class="c0"/>
<circle cx="1232" cy="772" r="8" class="c0"/>
<circle cx="808" cy="236" r="8" class="c0"/>
<circle cx="854" cy="848" r="8" class="c0"/>
<circle cx="936" cy="274" r="8" class="c0"/>
<circle cx="852" cy="38" r="8" class="c0"/>
<circle cx="988" cy="424" r="8" class="c0"/>
<circle cx="974" cy="1334" r="8" class="c0"/>
<circle cx="1050" cy="228" r="8" class="c0"/>
<circle cx="840" cy="1342" r="8" class="c0"/>
<circle cx="846" cy="914" r="8" class="c0"/>
<circle cx="812" cy="210" r="8" class="c0"/>
<circle cx="988" cy="1018" r="8" class="c0"/>
<circle cx="946" cy="1168" r="8" class="c0"/>
<circle cx="1078" cy="1340" r="8" class="c0"/>
<circle cx="1034" cy="1382" r="8" class="c0"/>
<circle cx="974" cy="386" r="8" class="c0"/>
<circle cx="920" cy="1138" r="8" class="c0"/>
<circle cx="1052" cy="678" r="8" class="c0"/>
<circle cx="1116" cy="852" r="8" class="c0"/>
<circle cx="1036" cy="1162" r="8" class="c0"/>
<circle cx="1052" cy="760" r="8" class="c0"/>
<circle cx="934" cy="650" r="8" class="c0"/>
<circle cx="874" cy="292" r="8" class="c0"/>
<circle cx="876" cy="382" r="8" class="c0"/>
<circle cx="1072" cy="730" r="8" class="c0"/>
<circle cx="1062" cy="196" r="8" class="c0"/>
<circle cx="998" cy="88" r="8" class="c0"/>
<circle cx="932" cy="1292" r="8" class="c0"/>
<circle cx="1042" cy="824" r="8" class="c0"/>
<circle cx="1000" cy="1276" r="8" class="c0"/>
<circle cx="858" cy="348" r="8" class="c0"/>
<circle cx="858" cy="1268" r="8" class="c0"/>
<circle cx="942" cy="792" r="8" class="c0"/>
<circle cx="842" cy="860" r="8" class="c0"/>
<circle cx="928" cy="1112" r="8" class="c0"/>
<circle cx="872" cy="70" r="8" class="c0"/>
<circle cx="1106" cy="1390" r="8" class="c0"/>
<circle cx="1072" cy="1256" r="8" class="c0"/>
<circle cx="928" cy="1086" r="8" class="c0"/>
<circle cx="998" cy="890" r="8" class="c0"/>
<circle cx="1022" cy="322" r="8" class="c0"/>
<circle cx="1046" cy="1288" r="8" class="c0"/>
<circle cx="1028" cy="1216" r="8" class="c0"/>
<circle cx="870" cy="1242" r="8" class="c0"/>
<circle cx="898" cy="236" r="8" class="c0"/>
<circle cx="1060" cy="878" r="8" class="c0"/>
<circle cx="1028" cy="942" r="8" class="c0"/>
<circle cx="790" cy="864" r="8" class="c0"/>
<circle cx="928" cy="314" r="8" class="c0"/>
<circle cx="992" cy="778" r="8" class="c0"/>
<circle cx="866" cy="330" r="8" class="c0"/>
<circle cx="1192" cy="826" r="8" class="c0"/>
<circle cx="1140" cy="848" r="8" class="c0"/>
<circle cx="1060" cy="1198" r="8" class="c0"/>
<circle cx="996" cy="1424" r="8" class="c0"/>
<circle cx="842" cy="154" r="8" class="c0"/>
<circle cx="940" cy="1144" r="8" class="c0"/>
<circle cx="988" cy="1060" r="8" class="c0"/>
<circle cx="1104" cy="1350" r="8" class="c0"/>
<circle cx="1002" cy="1128" r="8" class="c0"/>
<circle cx="904" cy="164" r="8" class="c0"/>
<circle cx="1012" cy="160" r="8" class="c0"/>
<circle cx="1012" cy="34" r="8" class="c0"/>
<circle cx="1076" cy="166" r="8" class="c0"/>
<circle cx="1010" cy="1318" r="8" class="c0"/>
<circle cx="964" cy="1408" r="8" class="c0"/>
<circle cx="948" cy="1112" r="8" class="c0"/>
<circle cx="788" cy="170" r="8" class="c0"/>
<circle cx="1038" cy="288" r="8" class="c0"/>
<circle cx="1044" cy="1034" r="8" class="c0"/>
<circle cx="1080" cy="226" r="8" class="c0"/>
<circle cx="1040" cy="962" r="8" class="c0"/>
<circle cx="858" cy="206" r="8" class="c0"/>
<circle cx="982" cy="696" r="8" class="c0"/>
<circle cx="1132" cy="1368" r="8" class="c0"/>
<circle cx="934" cy="860" r="8" class="c0"/>
<circle cx="820" cy="156" r="8" class="c0"/>
<circle cx="924" cy="132" r="8" class="c0"/>
<circle cx="1080" cy="78" r="8" class="c0"/>
<circle cx="1066" cy="1130" r="8" class="c0"/>
<circle cx="1074" cy="1370" r="8" class="c0"/>
<circle cx="1070" cy="1076" r="8" class="c0"/>
<circle cx="848" cy="130" r="8" class="c0"/>
<circle cx="1076" cy="286" r="8" class="c0"/>
<circle cx="1086" cy="1140" r="8" class="c0"/>
<circle cx="890" cy="1340" r="8" class="c0"/>
<circle cx="1094" cy="1278" r="8" class="c0"/>
<circle cx="858" cy="790" r="8" class="c0"/>
<circle cx="980" cy="1268" r="8" class="c0"/>
<circle cx="962" cy="894" r="8" class="c0"/>
<circle cx="886" cy="1102" r="8" class="c0"/>
<circle cx="970" cy="16" r="8" class="c0"/>
<circle cx="1058" cy="1152" r="8" class="c0"/>
<circle cx="1012" cy="806" r="8" class="c0"/>
<circle cx="946" cy="286" r="8" class="c0"/>
<circle cx="936" cy="1356" r="8" class="c0"/>
<circle cx="1044" cy="662" r="8" class="c0"/>
<circle cx="960" cy="1012" r="8" class="c0"/>
<circle cx="1012" cy="1412" r="8" class="c0"/>
<circle cx="806" cy="186" r="8" class="c0"/>
<circle cx="1018" cy="988" r="8" class="c0"/>
<circle cx="1046" cy="156" r="8" class="c0"/>
<circle cx="864" cy="166" r="8" class="c0"/>
<circle cx="928" cy="1270" r="8" class="c0"/>
<circle cx="934" cy="1242" r="8" class="c0"/>
<circle cx="954" cy="1130" r="8" class="c0"/>
<circle cx="870" cy="836" r="8" class="c0"/>
<circle cx="904" cy="1112" r="8" class="c0"/>
<circle cx="772" cy="854" r="8" class="c0"/>
<circle cx="926" cy="226" r="8" class="c0"/>
<circle cx="844" cy="264" r="8" class="c0"/>
<circle cx="912" cy="766" r="8" class="c0"/>
<circle cx="1016" cy="1236" r="8" class="c0"/>
<circle cx="1100" cy="162" r="8" class="c0"/>
<circle cx="866" cy="90" r="8" class="c0"/>
<circle cx="1046" cy="270" r="8" class="c0"/>
<circle cx="948" cy="1232" r="8" class="c0"/>
<circle cx="984" cy="228" r="8" class="c0"/>
<circle cx="932" cy="918" r="8" class="c0"/>
<circle cx="988" cy="1232" r="8" class="c0"/>
<circle cx="908" cy="860" r="8" class="c0"/>
<circle cx="894" cy="752" r="8" class="c0"/>
<circle cx="914" cy="1102" r="8" class="c0"/>
<circle cx="1012" cy="1024" r="8" class="c0"/>
<circle cx="788" cy="142" r="8" class="c0"/>
<circle cx="882" cy="1306" r="8" class="c0"/>
<circle cx="1186" cy="790" r="8" class="c0"/>
<circle cx="934" cy="186" r="8" class="c0"/>
<circle cx="1018" cy="922" r="8" class="c0"/>
<circle cx="890" cy="338" r="8" class="c0"/>
<circle cx="888" cy="226" r="8" class="c0"/>
<circle cx="1028" cy="114" r="8" class="c0"/>
<circle cx="804" cy="118" r="8" class="c0"/>
<circle cx="1022" cy="646" r="8" class="c0"/>
<circle cx="1038" cy="48" r="8" class="c0"/>
<circle cx="872" cy="1286" r="8" class="c0"/>
<circle cx="1080" cy="748" r="8" class="c0"/>
<circle cx="1046" cy="1264" r="8" class="c0"/>
<circle cx="1032" cy="810" r="8" class="c0"/>
<circle cx="940" cy="752" r="8" class="c0"/>
<circle cx="918" cy="784" r="8" class="c0"/>
<circle cx="1080" cy="1096" r="8" class="c0"/>
<circle cx="904" cy="324" r="8" class="c0"/>
<circle cx="954" cy="464" r="8" class="c0"/>
<circle cx="874" cy="854" r="8" class="c0"/>
<circle cx="1200" cy="728" r="8" class="c0"/>
<circle cx="932" cy="1180" r="8" class="c0"/>
<circle cx="1044" cy="1012" r="8" class="c0"/>
<circle cx="856" cy="306" r="8" class="c0"/>
<circle cx="852" cy="234" r="8" class="c0"/>
<circle cx="870" cy="120" r="8" class="c0"/>
<circle cx="952" cy="212" r="8" class="c0"/>
<circle cx="832" cy="116" r="8" class="c0"/>
<circle cx="992" cy="1080" r="8" class="c0"/>
<circle cx="870" cy="804" r="8" class="c0"/>
<circle cx="962" cy="796" r="8" class="c0"/>
<circle cx="1006" cy="1002" r="8" class="c0"/>
<circle cx="1040" cy="180" r="8" class="c0"/>
<circle cx="932" cy="976" r="8" class="c0"/>
<circle cx="1030" cy="68" r="8" class="c0"/>
<circle cx="1000" cy="1044" r="8" class="c0"/>
<circle cx="1138" cy="796" r="8" class="c0"/>
<circle cx="1054" cy="1338" r="8" class="c0"/>
<circle cx="906" cy="826" r="8" class="c0"/>
<circle cx="1008" cy="698" r="8" class="c0"/>
<circle cx="960" cy="602" r="8" class="c0"/>
<circle cx="1028" cy="1084" r="8" class="c0"/>
<circle cx="944" cy="1048" r="8" class="c0"/>
<circle cx="958" cy="698" r="8" class="c0"/>
<circle cx="1034" cy="758" r="8" class="c0"/>
<circle cx="940" cy="772" r="8" class="c0"/>
<circle cx="766" cy="884" r="8" class="c0"/>
<circle cx="968" cy="948" r="8" class="c0"/>
<circle cx="1016" cy="376" r="8" class="c0"/>
<circle cx="888" cy="204" r="8" class="c0"/>
<circle cx="1032" cy="238" r="8" class="c0"/>
<circle cx="1022" cy="858" r="8" class="c0"/>
<circle cx="950" cy="936" r="8" class="c0"/>
<circle cx="994" cy="1360" r="8" class="c0"/>
<circle cx="898" cy="724" r="8" class="c0"/>
<circle cx="1078" cy="1202" r="8" class="c0"/>
<circle cx="1034" cy="1144" r="8" class="c0"/>
<circle cx="910" cy="1304" r="8" class="c0"/>
<circle cx="958" cy="678" r="8" class="c0"/>
<circle cx="808" cy="832" r="8" class="c0"/>
<circle cx="1014" cy="236" r="8" class="c0"/>
<circle cx="836" cy="342" r="8" class="c0"/>
<circle cx="1066" cy="1018" r="8" class="c0"/>
<circle cx="1106" cy="1136" r="8" class="c0"/>
<circle cx="938" cy="1014" r="8" class="c0"/>
<circle cx="950" cy="122" r="8" class="c0"/>
<circle cx="894" cy="962" r="8" class="c0"/>
<circle cx="952" cy="910" r="8" class="c0"/>
<circle cx="966" cy="1120" r="8" class="c0"/>
<circle cx="1068" cy="214" r="8" class="c0"/>
<circle cx="1056" cy="994" r="8" class="c0"/>
<circle cx="954" cy="398" r="8" class="c0"/>
<circle cx="814" cy="26" r="8" class="c0"/>
<circle cx="898" cy="1380" r="8" class="c0"/>
<circle cx="1130" cy="838" r="8" class="c0"/>
<circle cx="1024" cy="1302" r="8" class="c0"/>
<circle cx="1054" cy="1170" r="8" class="c0"/>
<circle cx="926" cy="284" r="8" class="c0"/>
<circle cx="936" cy="468" r="8" class="c0"/>
<circle cx="1094" cy="724" r="8" class="c0"/>
<circle cx="914" cy="956" r="8" class="c0"/>
<circle cx="1004" cy="1092" r="8" class="c0"/>
<circle cx="966" cy="354" r="8" class="c0"/>
<circle cx="1056" cy="282" r="8" class="c0"/>
<circle cx="912" cy="1392" r="8" class="c0"/>
<circle cx="1010" cy="100" r="8" class="c0"/>
<circle cx="1000" cy="44" r="8" class="c0"/>
<circle cx="912" cy="1180" r="8" class="c0"/>
<circle cx="798" cy="252" r="8" class="c0"/>
<circle cx="826" cy="898" r="8" class="c0"/>
<circle cx="1074" cy="868" r="8" class="c0"/>
<circle cx="980" cy="846" r="8" class="c0"/>
<circle cx="1016" cy="1430" r="8" class="c0"/>
<circle cx="1028" cy="998" r="8" class="c0"/>
<circle cx="890" cy="804" r="8" class="c0"/>
<circle cx="854" cy="254" r="8" class="c0"/>
<circle cx="826" cy="80" r="8" class="c0"/>
<circle cx="972" cy="666" r="8" class="c0"/>
<circle cx="968" cy="1354" r="8" class="c0"/>
<circle cx="820" cy="784" r="8" class="c0"/>
<circle cx="846" cy="1320" r="8" class="c0"/>
<circle cx="764" cy="902" r="8" class="c0"/>
<circle cx="1028" cy="302" r="8" class="c0"/>
<circle cx="914" cy="1028" r="8" class="c0"/>
<circle cx="1172" cy="776" r="6" class="c0"/>
<circle cx="908" cy="66" r="6" class="c0"/>
<circle cx="1064" cy="1360" r="6" class="c0"/>
<circle cx="1058" cy="816" r="6" class="c0"/>
<circle cx="1064" cy="1098" r="6" class="c0"/>
<circle cx="1022" cy="6" r="6" class="c0"/>
<circle cx="968" cy="986" r="6" class="c0"/>
<circle cx="972" cy="430" r="6" class="c0"/>
<circle cx="936" cy="252" r="6" class="c0"/>
<circle cx="1052" cy="1354" r="6" class="c0"/>
<circle cx="884" cy="1120" r="6" class="c0"/>
<circle cx="1090" cy="1362" r="6" class="c0"/>
<circle cx="926" cy="874" r="6" class="c0"/>
<circle cx="1106" cy="1324" r="6" class="c0"/>
<circle cx="1030" cy="1020" r="6" class="c0"/>
<circle cx="1070" cy="1188" r="6" class="c0"/>
<circle cx="1072" cy="58" r="6" class="c0"/>
<circle cx="1042" cy="1098" r="6" class="c0"/>
<circle cx="926" cy="992" r="6" class="c0"/>
<circle cx="1070" cy="310" r="6" class="c0"/>
<circle cx="862" cy="58" r="6" class="c0"/>
<circle cx="804" cy="800" r="6" class="c0"/>
<circle cx="902" cy="362" r="6" class="c0"/>
<circle cx="1012" cy="360" r="6" class="c0"/>
<circle cx="980" cy="756" r="6" class="c0"/>
<circle cx="1030" cy="162" r="6" class="c0"/>
<circle cx="986" cy="878" r="6" class="c0"/>
<circle cx="886" cy="170" r="6" class="c0"/>
<circle cx="1038" cy="1340" r="6" class="c0"/>
<circle cx="1164" cy="714" r="6" class="c0"/>
<circle cx="1006" cy="388" r="6" class="c0"/>
<circle cx="980" cy="196" r="6" class="c0"/>
<circle cx="906" cy="1150" r="6" class="c0"/>
<circle cx="930" cy="1428" r="6" class="c0"/>
<circle cx="1162" cy="752" r="6" class="c0"/>
<circle cx="806" cy="42" r="6" class="c0"/>
<circle cx="896" cy="1196" r="6" class="c0"/>
<circle cx="1122" cy="1356" r="6" class="c0"/>
<circle cx="1066" cy="234" r="6" class="c0"/>
<circle cx="1026" cy="726" r="6" class="c0"/>
<circle cx="1040" cy="896" r="6" class="c0"/>
<circle cx="756" cy="214" r="6" class="c0"/>
<circle cx="872" cy="1172" r="6" class="c0"/>
<circle cx="1008" cy="910" r="6" class="c0"/>
<circle cx="838" cy="26" r="6" class="c0"/>
<circle cx="1018" cy="874" r="6" class="c0"/>
<circle cx="1114" cy="766" r="6" class="c0"/>
<circle cx="1006" cy="1180" r="6" class="c0"/>
<circle cx="1080" cy="1066" r="6" class="c0"/>
<circle cx="946" cy="1196" r="6" class="c0"/>
<circle cx="990" cy="130" r="6" class="c0"/>
<circle cx="932" cy="1338" r="6" class="c0"/>
<circle cx="1108" cy="838" r="6" class="c0"/>
<circle cx="944" cy="876" r="6" class="c0"/>
<circle cx="1038" cy="1400" r="6" class="c0"/>
<circle cx="1062" cy="326" r="6" class="c0"/>
<circle cx="1040" cy="1202" r="6" class="c0"/>
<circle cx="1160" cy="846" r="6" class="c0"/>
<circle cx="996" cy="974" r="6" class="c0"/>
<circle cx="984" cy="104" r="6" class="c0"/>
<circle cx="778" cy="192" r="6" class="c0"/>
<circle cx="1178" cy="812" r="6" class="c0"/>
<circle cx="1066" cy="1234" r="6" class="c0"/>
<circle cx="1074" cy="790" r="6" class="c0"/>
<circle cx="1018" cy="762" r="6" class="c0"/>
<circle cx="818" cy="226" r="6" class="c0"/>
<circle cx="1034" cy="222" r="6" class="c0"/>
<circle cx="1012" cy="78" r="6" class="c0"/>
<circle cx="898" cy="48" r="6" class="c0"/>
<circle cx="1222" cy="758" r="6" class="c0"/>
<circle cx="894" cy="776" r="6" class="c0"/>
<circle cx="966" cy="286" r="6" class="c0"/>
<circle cx="1050" cy="1136" r="6" class="c0"/>
<circle cx="864" cy="26" r="6" class="c0"/>
<circle cx="816" cy="172" r="6" class="c0"/>
<circle cx="972" cy="208" r="6" class="c0"/>
<circle cx="1076" cy="1050" r="6" class="c0"/>
<circle cx="1000" cy="920" r="6" class="c0"/>
<circle cx="872" cy="756" r="6" class="c0"/>
<circle cx="984" cy="1350" r="6" class="c0"/>
<circle cx="968" cy="616" r="6" class="c0"/>
<circle cx="982" cy="1408" r="6" class="c0"/>
<circle cx="1090" cy="212" r="6" class="c0"/>
<circle cx="902" cy="14" r="6" class="c0"/>
<circle cx="988" cy="324" r="6" class="c0"/>
<circle cx="952" cy="868" r="6" class="c0"/>
<circle cx="924" cy="358" r="6" class="c0"/>
<circle cx="898" cy="1066" r="6" class="c0"/>
<circle cx="910" cy="1234" r="6" class="c0"/>
<circle cx="790" cy="126" r="6" class="c0"/>
<circle cx="942" cy="812" r="6" class="c0"/>
<circle cx="1020" cy="1166" r="6" class="c0"/>
<circle cx="1060" cy="12" r="6" class="c0"/>
<circle cx="1000" cy="632" r="6" class="c0"/>
<circle cx="778" cy="822" r="6" class="c0"/>
<circle cx="1052" cy="30" r="6" class="c0"/>
<circle cx="874" cy="1186" r="6" class="c0"/>
<circle cx="902" cy="1352" r="6" class="c0"/>
<circle cx="970" cy="262" r="6" class="c0"/>
<circle cx="930" cy="822" r="6" class="c0"/>
<circle cx="1050" cy="210" r="6" class="c0"/>
<circle cx="898" cy="946" r="6" class="c0"/>
<circle cx="956" cy="722" r="6" class="c0"/>
<circle cx="1032" cy="740" r="6" class="c0"/>
<circle cx="1150" cy="712" r="6" class="c0"/>
<circle cx="886" cy="392" r="6" class="c0"/>
<circle cx="918" cy="6" r="6" class="c0"/>
<circle cx="980" cy="402" r="6" class="c0"/>
<circle cx="924" cy="1312" r="6" class="c0"/>
<circle cx="970" cy="1226" r="6" class="c0"/>
<circle cx="888" cy="302" r="6" class="c0"/>
<circle cx="848" cy="1414" r="6" class="c0"/>
<circle cx="982" cy="892" r="6" class="c0"/>
<circle cx="834" cy="278" r="6" class="c0"/>
<circle cx="1078" cy="204" r="6" class="c0"/>
<circle cx="982" cy="48" r="6" class="c0"/>
<circle cx="984" cy="794" r="6" class="c0"/>
<circle cx="912" cy="990" r="6" class="c0"/>
<circle cx="1054" cy="1398" r="6" class="c0"/>
<circle cx="938" cy="1122" r="6" class="c0"/>
<circle cx="978" cy="316" r="6" class="c0"/>
<circle cx="1028" cy="140" r="6" class="c0"/>
<circle cx="834" cy="1380" r="6" class="c0"/>
<circle cx="1048" cy="140" r="6" class="c0"/>
<circle cx="1038" cy="880" r="6" class="c0"/>
<circle cx="1148" cy="832" r="6" class="c0"/>
<circle cx="1094" cy="124" r="6" class="c0"/>
<circle cx="952" cy="154" r="6" class="c0"/>
<circle cx="990" cy="58" r="6" class="c0"/>
<circle cx="972" cy="370" r="6" class="c0"/>
<circle cx="1054" cy="336" r="6" class="c0"/>
<circle cx="930" cy="382" r="6" class="c0"/>
<circle cx="798" cy="156" r="6" class="c0"/>
<circle cx="966" cy="224" r="6" class="c0"/>
<circle cx="956" cy="770" r="6" class="c0"/>
<circle cx="990" cy="1286" r="6" class="c0"/>
<circle cx="936" cy="296" r="6" class="c0"/>
<circle cx="938" cy="434" r="6" class="c0"/>
<circle cx="866" cy="768" r="6" class="c0"/>
<circle cx="826" cy="180" r="6" class="c0"/>
<circle cx="1116" cy="1336" r="6" class="c0"/>
<circle cx="806" cy="92" r="6" class="c0"/>
<circle cx="896" cy="252" r="6" class="c0"/>
<circle cx="1084" cy="270" r="6" class="c0"/>
<circle cx="1090" cy="1298" r="6" class="c0"/>
<circle cx="980" cy="630" r="6" class="c0"/>
<circle cx="1014" cy="256" r="6" class="c0"/>
<circle cx="1000" cy="174" r="6" class="c0"/>
<circle cx="1038" cy="132" r="6" class="c0"/>
<circle cx="1048" cy="710" r="6" class="c0"/>
<circle cx="970" cy="1002" r="6" class="c0"/>
<circle cx="1030" cy="1348" r="6" class="c0"/>
<circle cx="1062" cy="152" r="6" class="c0"/>
<circle cx="952" cy="342" r="6" class="c0"/>
<circle cx="968" cy="688" r="6" class="c0"/>
<circle cx="962" cy="66" r="6" class="c0"/>
<circle cx="802" cy="220" r="6" class="c0"/>
<circle cx="928" cy="1376" r="6" class="c0"/>
<circle cx="992" cy="392" r="6" class="c0"/>
<circle cx="982" cy="350" r="6" class="c0"/>
<circle cx="1026" cy="974" r="6" class="c0"/>
<circle cx="1102" cy="1406" r="6" class="c0"/>
<circle cx="978" cy="1070" r="6" class="c0"/>
<circle cx="1070" cy="1218" r="6" class="c0"/>
<circle cx="1122" cy="1384" r="6" class="c0"/>
<circle cx="818" cy="60" r="6" class="c0"/>
<circle cx="1118" cy="728" r="6" class="c0"/>
<circle cx="888" cy="1414" r="6" class="c0"/>
<circle cx="944" cy="710" r="6" class="c0"/>
<circle cx="856" cy="78" r="6" class="c0"/>
<circle cx="882" cy="82" r="6" class="c0"/>
<circle cx="940" cy="732" r="6" class="c0"/>
<circle cx="936" cy="346" r="6" class="c0"/>
<circle cx="962" cy="1054" r="6" class="c0"/>
<circle cx="1004" cy="1112" r="6" class="c0"/>
<circle cx="1072" cy="24" r="6" class="c0"/>
<circle cx="860" cy="902" r="6" class="c0"/>
<circle cx="952" cy="1290" r="6" class="c0"/>
<circle cx="946" cy="444" r="6" class="c0"/>
<circle cx="800" cy="854" r="6" class="c0"/>
<circle cx="834" cy="812" r="6" class="c0"/>
<circle cx="1050" cy="860" r="6" class="c0"/>
<circle cx="958" cy="6" r="6" class="c0"/>
<circle cx="1130" cy="708" r="6" class="c0"/>
<circle cx="1036" cy="718" r="6" class="c0"/>
<circle cx="1004" cy="824" r="6" class="c0"/>
<circle cx="936" cy="1214" r="6" class="c0"/>
<circle cx="972" cy="904" r="6" class="c0"/>
<circle cx="890" cy="934" r="6" class="c0"/>
<circle cx="922" cy="704" r="6" class="c0"/>
<circle cx="920" cy="1354" r="6" class="c0"/>
<circle cx="860" cy="368" r="6" class="c0"/>
<circle cx="984" cy="256" r="6" class="c0"/>
<circle cx="992" cy="6" r="6" class="c0"/>
<circle cx="950" cy="614" r="6" class="c0"/>
<circle cx="1142" cy="1378" r="6" class="c0"/>
<circle cx="962" cy="450" r="6" class="c0"/>
<circle cx="1088" cy="240" r="6" class="c0"/>
<circle cx="966" cy="712" r="6" class="c0"/>
<circle cx="880" cy="132" r="6" class="c0"/>
<circle cx="804" cy="294" r="6" class="c0"/>
<circle cx="978" cy="1316" r="6" class="c0"/>
<circle cx="968" cy="170" r="6" class="c0"/>
<circle cx="938" cy="1098" r="6" class="c0"/>
<circle cx="886" cy="1272" r="6" class="c0"/>
<circle cx="1006" cy="324" r="6" class="c0"/>
<circle cx="922" cy="114" r="6" class="c0"/>
<circle cx="888" cy="1368" r="6" class="c0"/>
<circle cx="828" cy="326" r="6" class="c0"/>
<circle cx="1050" cy="976" r="6" class="c0"/>
<circle cx="834" cy="874" r="6" class="c0"/>
<circle cx="1064" cy="746" r="6" class="c0"/>
<circle cx="840" cy="292" r="6" class="c0"/>
<circle cx="1094" cy="1334" r="6" class="c0"/>
<circle cx="1074" cy="184" r="6" class="c0"/>
<circle cx="938" cy="390" r="6" class="c0"/>
<circle cx="1122" cy="802" r="6" class="c0"/>
<circle cx="1104" cy="1288" r="6" class="c0"/>
<circle cx="1062" cy="1270" r="6" class="c0"/>
<circle cx="964" cy="1028" r="6" class="c0"/>
<circle cx="1230" cy="748" r="6" class="c0"/>
<circle cx="1066" cy="268" r="6" class="c0"/>
<circle cx="1086" cy="1080" r="6" class="c0"/>
<circle cx="1002" cy="792" r="6" class="c0"/>
<circle cx="1064" cy="716" r="6" class="c0"/>
<circle cx="976" cy="1210" r="6" class="c0"/>
<circle cx="990" cy="188" r="6" class="c0"/>
<circle cx="950" cy="962" r="6" class="c0"/>
<circle cx="1116" cy="830" r="6" class="c0"/>
<circle cx="1036" cy="866" r="6" class="c0"/>
<circle cx="976" cy="804" r="6" class="c0"/>
<circle cx="964" cy="1264" r="6" class="c0"/>
<circle cx="1044" cy="356" r="6" class="c0"/>
<circle cx="944" cy="636" r="6" class="c0"/>
<circle cx="954" cy="586" r="6" class="c0"/>
<circle cx="1008" cy="1290" r="6" class="c0"/>
<circle cx="1022" cy="170" r="6" class="c0"/>
<circle cx="790" cy="88" r="6" class="c0"/>
<circle cx="1010" cy="776" r="6" class="c0"/>
<circle cx="914" cy="1122" r="6" class="c0"/>
<circle cx="862" cy="272" r="6" class="c0"/>
<circle cx="928" cy="36" r="6" class="c0"/>
<circle cx="1048" cy="888" r="6" class="c0"/>
<circle cx="1238" cy="756" r="6" class="c0"/>
<circle cx="1042" cy="82" r="6" class="c0"/>
<circle cx="942" cy="672" r="6" class="c0"/>
<circle cx="970" cy="156" r="6" class="c0"/>
<circle cx="890" cy="416" r="6" class="c0"/>
<circle cx="1096" cy="250" r="6" class="c0"/>
<circle cx="1084" cy="1268" r="6" class="c0"/>
<circle cx="1020" cy="218" r="6" class="c0"/>
<circle cx="982" cy="1158" r="6" class="c0"/>
<circle cx="1026" cy="366" r="6" class="c0"/>
<circle cx="1044" cy="774" r="6" class="c0"/>
<circle cx="1144" cy="744" r="6" class="c0"/>
<circle cx="778" cy="218" r="6" class="c0"/>
<circle cx="816" cy="312" r="6" class="c0"/>
<circle cx="868" cy="6" r="6" class="c0"/>
<circle cx="964" cy="1280" r="6" class="c0"/>
<circle cx="956" cy="1182" r="6" class="c0"/>
<circle cx="984" cy="1390" r="6" class="c0"/>
<circle cx="1022" cy="44" r="6" class="c0"/>
<circle cx="970" cy="1062" r="6" class="c0"/>
<circle cx="782" cy="890" r="6" class="c0"/>
<circle cx="1036" cy="682" r="6" class="c0"/>
<circle cx="930" cy="88" r="6" class="c0"/>
<circle cx="1094" cy="1376" r="6" class="c0"/>
<circle cx="1128" cy="738" r="6" class="c0"/>
<circle cx="996" cy="1380" r="6" class="c0"/>
<circle cx="888" cy="1188" r="6" class="c0"/>
<circle cx="1268" cy="798" r="6" class="c0"/>
<circle cx="1244" cy="852" r="6" class="c0"/>
<circle cx="1172" cy="800" r="6" class="c0"/>
<circle cx="978" cy="136" r="6" class="c0"/>
<circle cx="926" cy="264" r="6" class="c0"/>
<circle cx="900" cy="348" r="6" class="c0"/>
<circle cx="810" cy="896" r="6" class="c0"/>
<circle cx="1068" cy="804" r="6" class="c0"/>
<circle cx="788" cy="274" r="6" class="c0"/>
<circle cx="878" cy="400" r="6" class="c0"/>
<circle cx="1020" cy="1356" r="6" class="c0"/>
<circle cx="1076" cy="1302" r="6" class="c0"/>
<circle cx="892" cy="978" r="6" class="c0"/>
<circle cx="908" cy="444" r="6" class="c0"/>
<circle cx="848" cy="54" r="6" class="c0"/>
<circle cx="990" cy="666" r="6" class="c0"/>
<circle cx="1008" cy="140" r="6" class="c0"/>
<circle cx="1096" cy="94" r="6" class="c0"/>
<circle cx="1000" cy="264" r="6" class="c0"/>
<circle cx="1068" cy="1330" r="6" class="c0"/>
<circle cx="860" cy="1252" r="6" class="c0"/>
<circle cx="952" cy="884" r="6" class="c0"/>
<circle cx="1032" cy="1256" r="6" class="c0"/>
<circle cx="974" cy="1084" r="6" class="c0"/>
<circle cx="996" cy="70" r="6" class="c0"/>
<circle cx="954" cy="242" r="6" class="c0"/>
<circle cx="956" cy="276" r="6" class="c0"/>
</svg>
