<?xml version="1.0" encoding="utf-8"?>
<svg xmlns="http://www.w3.org/2000/svg"
     xmlns:xlink="http://www.w3.org/1999/xlink" width="1920" height="1440" >

            <defs>
            <style type="text/css"><![CDATA[
circle {stroke: none;}
.c0 {fill: #FFFFFF;}
]]></style>
            </defs>
<rect x="0" y="0" width="1920" height="1440" fill="black"/>
<circle cx="798" cy="796" r="14" class="c0"/>
<circle cx="1012" cy="1318" r="12" class="c0"/>
<circle cx="1028" cy="1290" r="12" class="c0"/>
<circle cx="1074" cy="752" r="12" class="c0"/>
<circle cx="1006" cy="1070" r="12" class="c0"/>
<circle cx="912" cy="644" r="12" class="c0"/>
<circle cx="928" cy="778" r="12" class="c0"/>
<circle cx="1028" cy="1132" r="12" class="c0"/>
<circle cx="944" cy="900" r="12" class="c0"/>
<circle cx="1000" cy="944" r="12" class="c0"/>
<circle cx="904" cy="24" r="12" class="c0"/>
<circle cx="1216" cy="748" r="12" class="c0"/>
<circle cx="1054" cy="804" r="12" class="c0"/>
<circle cx="996" cy="1288" r="12" class="c0"/>
<circle cx="826" cy="48" r="12" class="c0"/>
<circle cx="996" cy="1364" r="12" class="c0"/>
<circle cx="872" cy="356" r="12" class="c0"/>
<circle cx="860" cy="184" r="12" class="c0"/>
<circle cx="1194" cy="770" r="12" class="c0"/>
<circle cx="934" cy="1332" r="12" class="c0"/>
<circle cx="1110" cy="704" r="12" class="c0"/>
<circle cx="796" cy="158" r="12" class="c0"/>
<circle cx="1034" cy="690" r="12" class="c0"/>
<circle cx="940" cy="330" r="12" class="c0"/>
<circle cx="1042" cy="1146" r="12" class="c0"/>
<circle cx="1044" cy="1400" r="12" class="c0"/>
<circle cx="1064" cy="1368" r="12" class="c0"/>
<circle cx="1030" cy="1360" r="12" class="c0"/>
<circle cx="982" cy="374" r="12" class="c0"/>
<circle cx="902" cy="1162" r="12" class="c0"/>
<circle cx="856" cy="1330" r="12" class="c0"/>
<circle cx="1010" cy="86" r="12" class="c0"/>
<circle cx="1002" cy="784" r="12" class="c0"/>
<circle cx="996" cy="856" r="12" class="c0"/>
<circle cx="882" cy="762" r="12" class="c0"/>
<circle cx="1082" cy="148" r="12" class="c0"/>
<circle cx="1008" cy="388" r="12" class="c0"/>
<circle cx="828" cy="16" r="12" class="c0"/>
<circle cx="918" cy="1116" r="12" class="c0"/>
<circle cx="1078" cy="228" r="12" class="c0"/>
<circle cx="1050" cy="208" r="12" class="c0"/>
<circle cx="1050" cy="1244" r="12" class="c0"/>
<circle cx="870" cy="1316" r="12" class="c0"/>
<circle cx="886" cy="790" r="12" class="c0"/>
<circle cx="1026" cy="1052" r="12" class="c0"/>
<circle cx="826" cy="194" r="12" class="c0"/>
<circle cx="876" cy="1172" r="12" class="c0"/>
<circle cx="890" cy="112" r="12" class="c0"/>
<circle cx="884" cy="1264" r="12" class="c0"/>
<circle cx="844" cy="886" r="12" class="c0"/>
<circle cx="998" cy="638" r="12" class="c0"/>
<circle cx="852" cy="1288" r="10" class="c0"/>
<circle cx="1004" cy="258" r="10" class="c0"/>
<circle cx="960" cy="408" r="10" class="c0"/>
<circle cx="896" cy="854" r="10" class="c0"/>
<circle cx="860" cy="1238" r="10" class="c0"/>
<circle cx="1092" cy="838" r="10" class="c0"/>
<circle cx="1008" cy="1036" r="10" class="c0"/>
<circle cx="1078" cy="724" r="10" class="c0"/>
<circle cx="876" cy="290" r="10" class="c0"/>
<circle cx="888" cy="698" r="10" class="c0"/>
<circle cx="1066" cy="1150" r="10" class="c0"/>
<circle cx="882" cy="1128" r="10" class="c0"/>
<circle cx="994" cy="752" r="10" class="c0"/>
<circle cx="1018" cy="722" r="10" class="c0"/>
<circle cx="1030" cy="944" r="10" class="c0"/>
<circle cx="918" cy="1180" r="10" class="c0"/>
<circle cx="962" cy="1088" r="10" class="c0"/>
<circle cx="1014" cy="994" r="10" class="c0"/>
<circle cx="976" cy="846" r="10" class="c0"/>
<circle cx="1160" cy="736" r="10" class="c0"/>
<circle cx="910" cy="180" r="10" class="c0"/>
<circle cx="1002" cy="1106" r="10" class="c0"/>
<circle cx="974" cy="1176" r="10" class="c0"/>
<circle cx="958" cy="302" r="10" class="c0"/>
<circle cx="810" cy="68" r="10" class="c0"/>
<circle cx="938" cy="1296" r="10" class="c0"/>
<circle cx="1074" cy="1348" r="10" class="c0"/>
<circle cx="958" cy="988" r="10" class="c0"/>
<circle cx="800" cy="850" r="10" class="c0"/>
<circle cx="940" cy="706" r="10" class="c0"/>
<circle cx="876" cy="316" r="10" class="c0"/>
<circle cx="822" cy="834" r="10" class="c0"/>
<circle cx="956" cy="210" r="10" class="c0"/>
<circle cx="944" cy="664" r="10" class="c0"/>
<circle cx="982" cy="900" r="10" class="c0"/>
<circle cx="878" cy="884" r="10" class="c0"/>
<circle cx="1112" cy="1336" r="10" class="c0"/>
<circle cx="948" cy="1222" r="10" class="c0"/>
<circle cx="916" cy="1270" r="10" class="c0"/>
<circle cx="1140" cy="818" r="10" class="c0"/>
<circle cx="1036" cy="106" r="10" class="c0"/>
<circle cx="988" cy="310" r="10" class="c0"/>
<circle cx="978" cy="930" r="10" class="c0"/>
<circle cx="966" cy="1066" r="10" class="c0"/>
<circle cx="1060" cy="30" r="10" class="c0"/>
<circle cx="888" cy="1296" r="10" class="c0"/>
<circle cx="1024" cy="26" r="10" class="c0"/>
<circle cx="956" cy="18" r="10" class="c0"/>
<circle cx="900" cy="726" r="10" class="c0"/>
<circle cx="988" cy="1256" r="10" class="c0"/>
<circle cx="950" cy="150" r="10" class="c0"/>
<circle cx="848" cy="1358" r="10" class="c0"/>
<circle cx="1000" cy="226" r="10" class="c0"/>
<circle cx="1028" cy="1196" r="10" class="c0"/>
<circle cx="966" cy="700" r="10" class="c0"/>
<circle cx="1080" cy="1310" r="10" class="c0"/>
<circle cx="1038" cy="758" r="10" class="c0"/>
<circle cx="866" cy="44" r="10" class="c0"/>
<circle cx="960" cy="734" r="10" class="c0"/>
<circle cx="1042" cy="1274" r="10" class="c0"/>
<circle cx="1020" cy="236" r="10" class="c0"/>
<circle cx="914" cy="342" r="10" class="c0"/>
<circle cx="972" cy="278" r="10" class="c0"/>
<circle cx="974" cy="1202" r="10" class="c0"/>
<circle cx="958" cy="1156" r="10" class="c0"/>
<circle cx="928" cy="970" r="10" class="c0"/>
<circle cx="920" cy="318" r="10" class="c0"/>
<circle cx="878" cy="1204" r="10" class="c0"/>
<circle cx="1022" cy="1022" r="10" class="c0"/>
<circle cx="936" cy="936" r="10" class="c0"/>
<circle cx="886" cy="1358" r="10" class="c0"/>
<circle cx="1056" cy="868" r="10" class="c0"/>
<circle cx="1132" cy="760" r="10" class="c0"/>
<circle cx="1012" cy="1410" r="10" class="c0"/>
<circle cx="934" cy="414" r="10" class="c0"/>
<circle cx="978" cy="1040" r="10" class="c0"/>
<circle cx="1112" cy="1362" r="10" class="c0"/>
<circle cx="920" cy="382" r="10" class="c0"/>
<circle cx="932" cy="1168" r="10" class="c0"/>
<circle cx="1068" cy="820" r="10" class="c0"/>
<circle cx="834" cy="806" r="10" class="c0"/>
<circle cx="934" cy="248" r="10" class="c0"/>
<circle cx="824" cy="1352" r="10" class="c0"/>
<circle cx="1032" cy="176" r="10" class="c0"/>
<circle cx="1004" cy="810" r="10" class="c0"/>
<circle cx="1034" cy="332" r="10" class="c0"/>
<circle cx="870" cy="820" r="10" class="c0"/>
<circle cx="938" cy="1400" r="10" class="c0"/>
<circle cx="1036" cy="990" r="10" class="c0"/>
<circle cx="814" cy="244" r="10" class="c0"/>
<circle cx="802" cy="230" r="10" class="c0"/>
<circle cx="864" cy="150" r="10" class="c0"/>
<circle cx="948" cy="1382" r="10" class="c0"/>
<circle cx="1034" cy="736" r="10" class="c0"/>
<circle cx="1156" cy="804" r="10" class="c0"/>
<circle cx="806" cy="128" r="10" class="c0"/>
<circle cx="970" cy="344" r="10" class="c0"/>
<circle cx="962" cy="770" r="10" class="c0"/>
<circle cx="952" cy="268" r="10" class="c0"/>
<circle cx="886" cy="64" r="10" class="c0"/>
<circle cx="958" cy="1130" r="10" class="c0"/>
<circle cx="1054" cy="1076" r="10" class="c0"/>
<circle cx="954" cy="840" r="10" class="c0"/>
<circle cx="1018" cy="768" r="10" class="c0"/>
<circle cx="1058" cy="1174" r="10" class="c0"/>
<circle cx="1082" cy="1288" r="10" class="c0"/>
<circle cx="902" cy="138" r="10" class="c0"/>
<circle cx="928" cy="440" r="10" class="c0"/>
<circle cx="912" cy="710" r="10" class="c0"/>
<circle cx="922" cy="114" r="10" class="c0"/>
<circle cx="1200" cy="812" r="10" class="c0"/>
<circle cx="970" cy="646" r="10" class="c0"/>
<circle cx="984" cy="26" r="10" class="c0"/>
<circle cx="906" cy="1378" r="10" class="c0"/>
<circle cx="908" cy="1046" r="10" class="c0"/>
<circle cx="896" cy="1326" r="10" class="c0"/>
<circle cx="1058" cy="1110" r="10" class="c0"/>
<circle cx="1022" cy="274" r="10" class="c0"/>
<circle cx="838" cy="304" r="10" class="c0"/>
<circle cx="926" cy="682" r="10" class="c0"/>
<circle cx="996" cy="1398" r="10" class="c0"/>
<circle cx="936" cy="634" r="10" class="c0"/>
<circle cx="962" cy="874" r="10" class="c0"/>
<circle cx="954" cy="964" r="10" class="c0"/>
<circle cx="1178" cy="718" r="10" class="c0"/>
<circle cx="908" cy="284" r="10" class="c0"/>
<circle cx="966" cy="170" r="10" class="c0"/>
<circle cx="992" cy="678" r="10" class="c0"/>
<circle cx="982" cy="992" r="10" class="c0"/>
<circle cx="1070" cy="1090" r="10" class="c0"/>
<circle cx="1050" cy="1300" r="10" class="c0"/>
<circle cx="900" cy="210" r="10" class="c0"/>
<circle cx="892" cy="264" r="10" class="c0"/>
<circle cx="762" cy="854" r="10" class="c0"/>
<circle cx="1208" cy="784" r="10" class="c0"/>
<circle cx="856" cy="220" r="10" class="c0"/>
<circle cx="1058" cy="294" r="10" class="c0"/>
<circle cx="1076" cy="98" r="10" class="c0"/>
<circle cx="902" cy="1216" r="10" class="c0"/>
<circle cx="1020" cy="48" r="10" class="c0"/>
<circle cx="944" cy="358" r="10" class="c0"/>
<circle cx="902" cy="946" r="10" class="c0"/>
<circle cx="998" cy="1008" r="10" class="c0"/>
<circle cx="932" cy="820" r="10" class="c0"/>
<circle cx="932" cy="1074" r="10" class="c0"/>
<circle cx="942" cy="224" r="10" class="c0"/>
<circle cx="1012" cy="188" r="10" class="c0"/>
<circle cx="912" cy="800" r="10" class="c0"/>
<circle cx="1050" cy="1332" r="10" class="c0"/>
<circle cx="886" cy="178" r="10" class="c0"/>
<circle cx="926" cy="728" r="10" class="c0"/>
<circle cx="836" cy="132" r="10" class="c0"/>
<circle cx="986" cy="800" r="10" class="c0"/>
<circle cx="1016" cy="842" r="10" class="c0"/>
<circle cx="996" cy="886" r="10" class="c0"/>
<circle cx="998" cy="708" r="10" class="c0"/>
<circle cx="990" cy="1132" r="10" class="c0"/>
<circle cx="910" cy="756" r="10" class="c0"/>
<circle cx="1104" cy="732" r="10" class="c0"/>
<circle cx="1064" cy="264" r="10" class="c0"/>
<circle cx="896" cy="816" r="8" class="c0"/>
<circle cx="976" cy="1306" r="8" class="c0"/>
<circle cx="884" cy="1380" r="8" class="c0"/>
<circle cx="840" cy="236" r="8" class="c0"/>
<circle cx="960" cy="46" r="8" class="c0"/>
<circle cx="938" cy="1240" r="8" class="c0"/>
<circle cx="982" cy="132" r="8" class="c0"/>
<circle cx="834" cy="264" r="8" class="c0"/>
<circle cx="994" cy="1196" r="8" class="c0"/>
<circle cx="986" cy="48" r="8" class="c0"/>
<circle cx="1070" cy="64" r="8" class="c0"/>
<circle cx="974" cy="1112" r="8" class="c0"/>
<circle cx="876" cy="128" r="8" class="c0"/>
<circle cx="1044" cy="138" r="8" class="c0"/>
<circle cx="990" cy="162" r="8" class="c0"/>
<circle cx="970" cy="222" r="8" class="c0"/>
<circle cx="1048" cy="1042" r="8" class="c0"/>
<circle cx="976" cy="1400" r="8" class="c0"/>
<circle cx="1048" cy="706" r="8" class="c0"/>
<circle cx="854" cy="66" r="8" class="c0"/>
<circle cx="946" cy="452" r="8" class="c0"/>
<circle cx="1062" cy="132" r="8" class="c0"/>
<circle cx="1028" cy="786" r="8" class="c0"/>
<circle cx="848" cy="26" r="8" class="c0"/>
<circle cx="938" cy="796" r="8" class="c0"/>
<circle cx="874" cy="1108" r="8" class="c0"/>
<circle cx="1010" cy="1252" r="8" class="c0"/>
<circle cx="838" cy="1276" r="8" class="c0"/>
<circle cx="900" cy="900" r="8" class="c0"/>
<circle cx="838" cy="854" r="8" class="c0"/>
<circle cx="1018" cy="974" r="8" class="c0"/>
<circle cx="1060" cy="1284" r="8" class="c0"/>
<circle cx="998" cy="144" r="8" class="c0"/>
<circle cx="1086" cy="1380" r="8" class="c0"/>
<circle cx="1058" cy="686" r="8" class="c0"/>
<circle cx="1038" cy="1100" r="8" class="c0"/>
<circle cx="796" cy="820" r="8" class="c0"/>
<circle cx="908" cy="924" r="8" class="c0"/>
<circle cx="930" cy="1014" r="8" class="c0"/>
<circle cx="922" cy="998" r="8" class="c0"/>
<circle cx="976" cy="68" r="8" class="c0"/>
<circle cx="1096" cy="798" r="8" class="c0"/>
<circle cx="940" cy="740" r="8" class="c0"/>
<circle cx="952" cy="1198" r="8" class="c0"/>
<circle cx="1010" cy="208" r="8" class="c0"/>
<circle cx="934" cy="284" r="8" class="c0"/>
<circle cx="936" cy="876" r="8" class="c0"/>
<circle cx="824" cy="224" r="8" class="c0"/>
<circle cx="1180" cy="818" r="8" class="c0"/>
<circle cx="1018" cy="352" r="8" class="c0"/>
<circle cx="920" cy="904" r="8" class="c0"/>
<circle cx="882" cy="912" r="8" class="c0"/>
<circle cx="778" cy="878" r="8" class="c0"/>
<circle cx="878" cy="1082" r="8" class="c0"/>
<circle cx="1048" cy="840" r="8" class="c0"/>
<circle cx="1058" cy="244" r="8" class="c0"/>
<circle cx="814" cy="816" r="8" class="c0"/>
<circle cx="1024" cy="1262" r="8" class="c0"/>
<circle cx="950" cy="1318" r="8" class="c0"/>
<circle cx="1128" cy="802" r="8" class="c0"/>
<circle cx="854" cy="1268" r="8" class="c0"/>
<circle cx="1034" cy="862" r="8" class="c0"/>
<circle cx="1102" cy="1320" r="8" class="c0"/>
<circle cx="928" cy="140" r="8" class="c0"/>
<circle cx="856" cy="104" r="8" class="c0"/>
<circle cx="1012" cy="900" r="8" class="c0"/>
<circle cx="970" cy="1012" r="8" class="c0"/>
<circle cx="930" cy="44" r="8" class="c0"/>
<circle cx="856" cy="862" r="8" class="c0"/>
<circle cx="1204" cy="730" r="8" class="c0"/>
<circle cx="956" cy="816" r="8" class="c0"/>
<circle cx="964" cy="440" r="8" class="c0"/>
<circle cx="906" cy="1350" r="8" class="c0"/>
<circle cx="838" cy="1304" r="8" class="c0"/>
<circle cx="994" cy="282" r="8" class="c0"/>
<circle cx="916" cy="882" r="8" class="c0"/>
<circle cx="934" cy="198" r="8" class="c0"/>
<circle cx="958" cy="1242" r="8" class="c0"/>
<circle cx="844" cy="770" r="8" class="c0"/>
<circle cx="902" cy="1408" r="8" class="c0"/>
<circle cx="926" cy="168" r="8" class="c0"/>
<circle cx="874" cy="1226" r="8" class="c0"/>
<circle cx="894" cy="672" r="8" class="c0"/>
<circle cx="814" cy="880" r="8" class="c0"/>
<circle cx="1174" cy="794" r="8" class="c0"/>
<circle cx="978" cy="96" r="8" class="c0"/>
<circle cx="1126" cy="726" r="8" class="c0"/>
<circle cx="894" cy="376" r="8" class="c0"/>
<circle cx="948" cy="80" r="8" class="c0"/>
<circle cx="998" cy="1174" r="8" class="c0"/>
<circle cx="998" cy="1430" r="8" class="c0"/>
<circle cx="1040" cy="76" r="8" class="c0"/>
<circle cx="920" cy="232" r="8" class="c0"/>
<circle cx="1096" cy="756" r="8" class="c0"/>
<circle cx="836" cy="170" r="8" class="c0"/>
<circle cx="910" cy="244" r="8" class="c0"/>
<circle cx="996" cy="60" r="8" class="c0"/>
<circle cx="934" cy="1148" r="8" class="c0"/>
<circle cx="962" cy="1280" r="8" class="c0"/>
<circle cx="836" cy="86" r="8" class="c0"/>
<circle cx="898" cy="1096" r="8" class="c0"/>
<circle cx="844" cy="1218" r="8" class="c0"/>
<circle cx="880" cy="12" r="8" class="c0"/>
<circle cx="840" cy="826" r="8" class="c0"/>
<circle cx="1078" cy="804" r="8" class="c0"/>
<circle cx="930" cy="94" r="8" class="c0"/>
<circle cx="1044" cy="266" r="8" class="c0"/>
<circle cx="1066" cy="1062" r="8" class="c0"/>
<circle cx="1074" cy="198" r="8" class="c0"/>
<circle cx="898" cy="1000" r="8" class="c0"/>
<circle cx="1118" cy="784" r="8" class="c0"/>
<circle cx="926" cy="1312" r="8" class="c0"/>
<circle cx="898" cy="1246" r="8" class="c0"/>
<circle cx="886" cy="834" r="8" class="c0"/>
<circle cx="1060" cy="1200" r="8" class="c0"/>
<circle cx="866" cy="114" r="8" class="c0"/>
<circle cx="972" cy="1364" r="8" class="c0"/>
<circle cx="896" cy="320" r="8" class="c0"/>
<circle cx="956" cy="632" r="8" class="c0"/>
<circle cx="1154" cy="778" r="8" class="c0"/>
<circle cx="954" cy="606" r="8" class="c0"/>
<circle cx="1006" cy="734" r="8" class="c0"/>
<circle cx="936" cy="1354" r="8" class="c0"/>
<circle cx="796" cy="204" r="8" class="c0"/>
<circle cx="1082" cy="776" r="8" class="c0"/>
<circle cx="1010" cy="920" r="8" class="c0"/>
<circle cx="998" cy="982" r="8" class="c0"/>
<circle cx="986" cy="1152" r="8" class="c0"/>
<circle cx="1028" cy="200" r="8" class="c0"/>
<circle cx="992" cy="1088" r="8" class="c0"/>
<circle cx="974" cy="256" r="8" class="c0"/>
<circle cx="910" cy="82" r="8" class="c0"/>
<circle cx="998" cy="356" r="8" class="c0"/>
<circle cx="948" cy="118" r="8" class="c0"/>
<circle cx="940" cy="1040" r="8" class="c0"/>
<circle cx="1088" cy="1330" r="8" class="c0"/>
<circle cx="1050" cy="94" r="8" class="c0"/>
<circle cx="846" cy="254" r="8" class="c0"/>
<circle cx="952" cy="1412" r="8" class="c0"/>
<circle cx="858" cy="1192" r="8" class="c0"/>
<circle cx="922" cy="1430" r="8" class="c0"/>
<circle cx="954" cy="1356" r="8" class="c0"/>
<circle cx="800" cy="90" r="8" class="c0"/>
<circle cx="980" cy="1328" r="8" class="c0"/>
<circle cx="868" cy="266" r="8" class="c0"/>
<circle cx="944" cy="1110" r="8" class="c0"/>
<circle cx="976" cy="1228" r="8" class="c0"/>
<circle cx="976" cy="190" r="8" class="c0"/>
<circle cx="948" cy="786" r="8" class="c0"/>
<circle cx="986" cy="822" r="8" class="c0"/>
<circle cx="826" cy="870" r="8" class="c0"/>
<circle cx="926" cy="8" r="8" class="c0"/>
<circle cx="922" cy="856" r="8" class="c0"/>
<circle cx="952" cy="388" r="8" class="c0"/>
<circle cx="814" cy="178" r="8" class="c0"/>
<circle cx="1050" cy="1012" r="8" class="c0"/>
<circle cx="860" cy="8" r="8" class="c0"/>
<circle cx="760" cy="896" r="8" class="c0"/>
<circle cx="916" cy="1302" r="8" class="c0"/>
<circle cx="750" cy="832" r="8" class="c0"/>
<circle cx="1014" cy="134" r="8" class="c0"/>
<circle cx="1014" cy="1162" r="8" class="c0"/>
<circle cx="968" cy="1260" r="8" class="c0"/>
<circle cx="938" cy="1264" r="8" class="c0"/>
<circle cx="944" cy="62" r="8" class="c0"/>
<circle cx="1074" cy="42" r="8" class="c0"/>
<circle cx="1048" cy="50" r="8" class="c0"/>
<circle cx="812" cy="104" r="8" class="c0"/>
<circle cx="1010" cy="330" r="8" class="c0"/>
<circle cx="868" cy="1140" r="8" class="c0"/>
<circle cx="888" cy="1188" r="8" class="c0"/>
<circle cx="822" cy="766" r="8" class="c0"/>
<circle cx="1008" cy="1346" r="8" class="c0"/>
<circle cx="1018" cy="162" r="8" class="c0"/>
<circle cx="774" cy="824" r="8" class="c0"/>
<circle cx="890" cy="38" r="8" class="c0"/>
<circle cx="1084" cy="78" r="8" class="c0"/>
<circle cx="836" cy="1370" r="8" class="c0"/>
<circle cx="1056" cy="164" r="8" class="c0"/>
<circle cx="1030" cy="254" r="8" class="c0"/>
<circle cx="926" cy="1388" r="8" class="c0"/>
<circle cx="1242" cy="764" r="8" class="c0"/>
<circle cx="1144" cy="708" r="8" class="c0"/>
<circle cx="906" cy="984" r="8" class="c0"/>
<circle cx="1078" cy="176" r="8" class="c0"/>
<circle cx="982" cy="398" r="8" class="c0"/>
<circle cx="1108" cy="822" r="8" class="c0"/>
<circle cx="1092" cy="1132" r="8" class="c0"/>
<circle cx="936" cy="988" r="8" class="c0"/>
<circle cx="1030" cy="1176" r="8" class="c0"/>
<circle cx="964" cy="678" r="8" class="c0"/>
<circle cx="790" cy="114" r="8" class="c0"/>
<circle cx="918" cy="268" r="8" class="c0"/>
<circle cx="828" cy="1318" r="8" class="c0"/>
<circle cx="904" cy="392" r="8" class="c0"/>
<circle cx="1004" cy="1148" r="8" class="c0"/>
<circle cx="1028" cy="1238" r="8" class="c0"/>
<circle cx="1042" cy="664" r="8" class="c0"/>
<circle cx="950" cy="190" r="8" class="c0"/>
<circle cx="972" cy="150" r="8" class="c0"/>
<circle cx="1010" cy="1232" r="8" class="c0"/>
<circle cx="990" cy="1054" r="8" class="c0"/>
<circle cx="1050" cy="312" r="8" class="c0"/>
<circle cx="884" cy="736" r="8" class="c0"/>
<circle cx="978" cy="968" r="8" class="c0"/>
<circle cx="1138" cy="786" r="8" class="c0"/>
<circle cx="866" cy="896" r="8" class="c0"/>
<circle cx="914" cy="1398" r="8" class="c0"/>
<circle cx="932" cy="842" r="8" class="c0"/>
<circle cx="1020" cy="1386" r="8" class="c0"/>
<circle cx="852" cy="840" r="8" class="c0"/>
<circle cx="1116" cy="744" r="8" class="c0"/>
<circle cx="1084" cy="258" r="8" class="c0"/>
<circle cx="918" cy="1248" r="8" class="c0"/>
<circle cx="912" cy="1010" r="8" class="c0"/>
<circle cx="982" cy="768" r="8" class="c0"/>
<circle cx="958" cy="1298" r="8" class="c0"/>
<circle cx="988" cy="334" r="8" class="c0"/>
<circle cx="1070" cy="1272" r="8" class="c0"/>
<circle cx="958" cy="1038" r="8" class="c0"/>
<circle cx="998" cy="910" r="8" class="c0"/>
<circle cx="874" cy="1342" r="8" class="c0"/>
<circle cx="1042" cy="882" r="8" class="c0"/>
<circle cx="966" cy="1390" r="8" class="c0"/>
<circle cx="998" cy="10" r="8" class="c0"/>
<circle cx="1096" cy="168" r="8" class="c0"/>
<circle cx="824" cy="1292" r="8" class="c0"/>
<circle cx="890" cy="1072" r="8" class="c0"/>
<circle cx="782" cy="182" r="8" class="c0"/>
<circle cx="886" cy="240" r="8" class="c0"/>
<circle cx="990" cy="726" r="8" class="c0"/>
<circle cx="888" cy="198" r="8" class="c0"/>
<circle cx="866" cy="800" r="8" class="c0"/>
<circle cx="1030" cy="804" r="8" class="c0"/>
<circle cx="1220" cy="770" r="8" class="c0"/>
<circle cx="1030" cy="308" r="8" class="c0"/>
<circle cx="924" cy="1370" r="8" class="c0"/>
<circle cx="872" cy="84" r="8" class="c0"/>
<circle cx="1000" cy="174" r="8" class="c0"/>
<circle cx="890" cy="962" r="8" class="c0"/>
<circle cx="1054" cy="734" r="8" class="c0"/>
<circle cx="846" cy="274" r="8" class="c0"/>
<circle cx="948" cy="1180" r="8" class="c0"/>
<circle cx="1052" cy="778" r="8" class="c0"/>
<circle cx="1034" cy="964" r="8" class="c0"/>
<circle cx="938" cy="304" r="8" class="c0"/>
<circle cx="924" cy="1138" r="8" class="c0"/>
<circle cx="968" cy="792" r="8" class="c0"/>
<circle cx="1070" cy="786" r="8" class="c0"/>
<circle cx="1170" cy="762" r="8" class="c0"/>
<circle cx="884" cy="334" r="8" class="c0"/>
<circle cx="846" cy="1386" r="8" class="c0"/>
<circle cx="1032" cy="826" r="8" class="c0"/>
<circle cx="966" cy="122" r="8" class="c0"/>
<circle cx="1088" cy="816" r="8" class="c0"/>
<circle cx="832" cy="106" r="8" class="c0"/>
<circle cx="946" cy="686" r="8" class="c0"/>
<circle cx="956" cy="916" r="8" class="c0"/>
<circle cx="1152" cy="758" r="8" class="c0"/>
<circle cx="948" cy="758" r="8" class="c0"/>
<circle cx="950" cy="1022" r="8" class="c0"/>
<circle cx="998" cy="1222" r="8" class="c0"/>
<circle cx="972" cy="720" r="8" class="c0"/>
<circle cx="876" cy="250" r="8" class="c0"/>
<circle cx="990" cy="208" r="8" class="c0"/>
<circle cx="1040" cy="14" r="8" class="c0"/>
<circle cx="872" cy="844" r="8" class="c0"/>
<circle cx="1086" cy="1360" r="8" class="c0"/>
<circle cx="990" cy="1342" r="8" class="c0"/>
<circle cx="1072" cy="858" r="8" class="c0"/>
<circle cx="914" cy="1084" r="8" class="c0"/>
<circle cx="1004" cy="122" r="8" class="c0"/>
<circle cx="1040" cy="234" r="8" class="c0"/>
<circle cx="858" cy="782" r="8" class="c0"/>
<circle cx="786" cy="836" r="8" class="c0"/>
<circle cx="912" cy="826" r="8" class="c0"/>
<circle cx="900" cy="164" r="8" class="c0"/>
<circle cx="812" cy="780" r="8" class="c0"/>
<circle cx="1032" cy="1220" r="8" class="c0"/>
<circle cx="966" cy="82" r="8" class="c0"/>
<circle cx="1054" cy="186" r="8" class="c0"/>
<circle cx="1060" cy="1316" r="8" class="c0"/>
<circle cx="1014" cy="300" r="8" class="c0"/>
<circle cx="848" cy="200" r="8" class="c0"/>
<circle cx="900" cy="774" r="8" class="c0"/>
<circle cx="968" cy="322" r="8" class="c0"/>
<circle cx="1088" cy="1110" r="8" class="c0"/>
<circle cx="952" cy="98" r="8" class="c0"/>
<circle cx="822" cy="794" r="8" class="c0"/>
<circle cx="1022" cy="118" r="8" class="c0"/>
<circle cx="1014" cy="680" r="8" class="c0"/>
<circle cx="918" cy="1062" r="8" class="c0"/>
<circle cx="1012" cy="1272" r="8" class="c0"/>
<circle cx="1020" cy="654" r="8" class="c0"/>
<circle cx="1184" cy="748" r="8" class="c0"/>
<circle cx="1050" cy="118" r="8" class="c0"/>
<circle cx="1086" cy="122" r="8" class="c0"/>
<circle cx="926" cy="1206" r="8" class="c0"/>
<circle cx="908" cy="420" r="8" class="c0"/>
<circle cx="986" cy="622" r="8" class="c0"/>
<circle cx="860" cy="744" r="8" class="c0"/>
<circle cx="814" cy="146" r="8" class="c0"/>
<circle cx="920" cy="56" r="8" class="c0"/>
<circle cx="854" cy="292" r="8" class="c0"/>
<circle cx="886" cy="1054" r="8" class="c0"/>
<circle cx="1086" cy="1180" r="8" class="c0"/>
<circle cx="1028" cy="1074" r="8" class="c0"/>
<circle cx="992" cy="244" r="8" class="c0"/>
<circle cx="1060" cy="76" r="8" class="c0"/>
<circle cx="814" cy="212" r="8" class="c0"/>
<circle cx="1022" cy="70" r="8" class="c0"/>
<circle cx="912" cy="670" r="8" class="c0"/>
<circle cx="934" cy="1100" r="8" class="c0"/>
<circle cx="880" cy="214" r="8" class="c0"/>
<circle cx="952" cy="428" r="8" class="c0"/>
<circle cx="1076" cy="702" r="8" class="c0"/>
<circle cx="956" cy="944" r="8" class="c0"/>
<circle cx="1004" cy="664" r="8" class="c0"/>
<circle cx="976" cy="8" r="8" class="c0"/>
<circle cx="856" cy="322" r="8" class="c0"/>
<circle cx="1074" cy="1130" r="8" class="c0"/>
<circle cx="982" cy="1382" r="8" class="c0"/>
<circle cx="884" cy="154" r="8" class="c0"/>
<circle cx="1058" cy="328" r="8" class="c0"/>
<circle cx="1008" cy="1186" r="8" class="c0"/>
<circle cx="898" cy="230" r="8" class="c0"/>
<circle cx="894" cy="300" r="8" class="c0"/>
<circle cx="788" cy="138" r="8" class="c0"/>
<circle cx="826" cy="156" r="8" class="c0"/>
<circle cx="1082" cy="1074" r="8" class="c0"/>
<circle cx="974" cy="420" r="8" class="c0"/>
<circle cx="930" cy="1052" r="8" class="c0"/>
<circle cx="796" cy="870" r="8" class="c0"/>
<circle cx="936" cy="602" r="8" class="c0"/>
<circle cx="1020" cy="748" r="8" class="c0"/>
<circle cx="826" cy="290" r="8" class="c0"/>
<circle cx="908" cy="364" r="8" class="c0"/>
<circle cx="740" cy="856" r="8" class="c0"/>
<circle cx="844" cy="152" r="8" class="c0"/>
<circle cx="914" cy="1230" r="8" class="c0"/>
<circle cx="988" cy="78" r="8" class="c0"/>
<circle cx="986" cy="112" r="8" class="c0"/>
<circle cx="874" cy="1282" r="8" class="c0"/>
<circle cx="1062" cy="1026" r="8" class="c0"/>
<circle cx="922" cy="212" r="8" class="c0"/>
<circle cx="886" cy="390" r="6" class="c0"/>
<circle cx="1042" cy="286" r="6" class="c0"/>
<circle cx="1008" cy="1204" r="6" class="c0"/>
<circle cx="962" cy="1332" r="6" class="c0"/>
<circle cx="798" cy="252" r="6" class="c0"/>
<circle cx="916" cy="154" r="6" class="c0"/>
<circle cx="900" cy="1028" r="6" class="c0"/>
<circle cx="886" cy="1152" r="6" class="c0"/>
<circle cx="1070" cy="1328" r="6" class="c0"/>
<circle cx="876" cy="1400" r="6" class="c0"/>
<circle cx="992" cy="1312" r="6" class="c0"/>
<circle cx="1094" cy="716" r="6" class="c0"/>
<circle cx="862" cy="1384" r="6" class="c0"/>
<circle cx="1018" cy="1116" r="6" class="c0"/>
<circle cx="848" cy="796" r="6" class="c0"/>
<circle cx="838" cy="1234" r="6" class="c0"/>
<circle cx="908" cy="1198" r="6" class="c0"/>
<circle cx="906" cy="1292" r="6" class="c0"/>
<circle cx="970" cy="1342" r="6" class="c0"/>
<circle cx="918" cy="402" r="6" class="c0"/>
<circle cx="1064" cy="844" r="6" class="c0"/>
<circle cx="1004" cy="690" r="6" class="c0"/>
<circle cx="844" cy="1258" r="6" class="c0"/>
<circle cx="906" cy="1432" r="6" class="c0"/>
<circle cx="832" cy="68" r="6" class="c0"/>
<circle cx="948" cy="1254" r="6" class="c0"/>
<circle cx="1004" cy="30" r="6" class="c0"/>
<circle cx="1018" cy="876" r="6" class="c0"/>
<circle cx="988" cy="656" r="6" class="c0"/>
<circle cx="856" cy="342" r="6" class="c0"/>
<circle cx="936" cy="1192" r="6" class="c0"/>
<circle cx="860" cy="1370" r="6" class="c0"/>
<circle cx="1028" cy="1340" r="6" class="c0"/>
<circle cx="812" cy="274" r="6" class="c0"/>
<circle cx="876" cy="376" r="6" class="c0"/>
<circle cx="1130" cy="834" r="6" class="c0"/>
<circle cx="1078" cy="276" r="6" class="c0"/>
<circle cx="858" cy="1164" r="6" class="c0"/>
<circle cx="938" cy="578" r="6" class="c0"/>
<circle cx="1038" cy="1380" r="6" class="c0"/>
<circle cx="916" cy="1028" r="6" class="c0"/>
<circle cx="896" cy="882" r="6" class="c0"/>
<circle cx="1160" cy="822" r="6" class="c0"/>
<circle cx="914" cy="1336" r="6" class="c0"/>
<circle cx="1026" cy="218" r="6" class="c0"/>
<circle cx="940" cy="180" r="6" class="c0"/>
<circle cx="816" cy="88" r="6" class="c0"/>
<circle cx="940" cy="1126" r="6" class="c0"/>
<circle cx="960" cy="232" r="6" class="c0"/>
<circle cx="874" cy="864" r="6" class="c0"/>
<circle cx="938" cy="860" r="6" class="c0"/>
<circle cx="758" cy="818" r="6" class="c0"/>
<circle cx="1142" cy="732" r="6" class="c0"/>
<circle cx="1110" cy="840" r="6" class="c0"/>
<circle cx="1016" cy="956" r="6" class="c0"/>
<circle cx="914" cy="960" r="6" class="c0"/>
<circle cx="908" cy="842" r="6" class="c0"/>
<circle cx="1024" cy="6" r="6" class="c0"/>
<circle cx="926" cy="660" r="6" class="c0"/>
<circle cx="1028" cy="292" r="6" class="c0"/>
<circle cx="864" cy="304" r="6" class="c0"/>
<circle cx="888" cy="88" r="6" class="c0"/>
<circle cx="930" cy="754" r="6" class="c0"/>
<circle cx="974" cy="948" r="6" class="c0"/>
<circle cx="894" cy="746" r="6" class="c0"/>
<circle cx="860" cy="130" r="6" class="c0"/>
<circle cx="1046" cy="1192" r="6" class="c0"/>
<circle cx="978" cy="1278" r="6" class="c0"/>
<circle cx="1014" cy="1428" r="6" class="c0"/>
<circle cx="974" cy="754" r="6" class="c0"/>
<circle cx="982" cy="868" r="6" class="c0"/>
<circle cx="906" cy="1132" r="6" class="c0"/>
<circle cx="1002" cy="44" r="6" class="c0"/>
<circle cx="1102" cy="774" r="6" class="c0"/>
<circle cx="1158" cy="716" r="6" class="c0"/>
<circle cx="780" cy="808" r="6" class="c0"/>
<circle cx="926" cy="950" r="6" class="c0"/>
<circle cx="1068" cy="1256" r="6" class="c0"/>
<circle cx="944" cy="724" r="6" class="c0"/>
<circle cx="924" cy="296" r="6" class="c0"/>
<circle cx="904" cy="58" r="6" class="c0"/>
<circle cx="948" cy="478" r="6" class="c0"/>
<circle cx="1096" cy="1344" r="6" class="c0"/>
<circle cx="832" cy="780" r="6" class="c0"/>
<circle cx="800" cy="186" r="6" class="c0"/>
<circle cx="830" cy="1334" r="6" class="c0"/>
<circle cx="834" cy="326" r="6" class="c0"/>
<circle cx="1040" cy="1116" r="6" class="c0"/>
<circle cx="1098" cy="1296" r="6" class="c0"/>
<circle cx="924" cy="26" r="6" class="c0"/>
<circle cx="1090" cy="210" r="6" class="c0"/>
<circle cx="890" cy="408" r="6" class="c0"/>
<circle cx="1032" cy="1310" r="6" class="c0"/>
<circle cx="1026" cy="916" r="6" class="c0"/>
<circle cx="858" cy="242" r="6" class="c0"/>
<circle cx="1056" cy="10" r="6" class="c0"/>
<circle cx="946" cy="1006" r="6" class="c0"/>
<circle cx="1028" cy="142" r="6" class="c0"/>
<circle cx="866" cy="24" r="6" class="c0"/>
<circle cx="964" cy="892" r="6" class="c0"/>
<circle cx="1064" cy="768" r="6" class="c0"/>
<circle cx="980" cy="736" r="6" class="c0"/>
<circle cx="844" cy="334" r="6" class="c0"/>
<circle cx="1018" cy="636" r="6" class="c0"/>
<circle cx="898" cy="1140" r="6" class="c0"/>
<circle cx="852" cy="84" r="6" class="c0"/>
<circle cx="984" cy="1022" r="6" class="c0"/>
<circle cx="938" cy="20" r="6" class="c0"/>
<circle cx="780" cy="856" r="6" class="c0"/>
<circle cx="912" cy="738" r="6" class="c0"/>
<circle cx="1010" cy="1376" r="6" class="c0"/>
<circle cx="1006" cy="1124" r="6" class="c0"/>
<circle cx="994" cy="836" r="6" class="c0"/>
<circle cx="1034" cy="1008" r="6" class="c0"/>
<circle cx="954" cy="372" r="6" class="c0"/>
<circle cx="1088" cy="186" r="6" class="c0"/>
<circle cx="934" cy="1420" r="6" class="c0"/>
<circle cx="988" cy="1416" r="6" class="c0"/>
<circle cx="928" cy="920" r="6" class="c0"/>
<circle cx="926" cy="78" r="6" class="c0"/>
<circle cx="1072" cy="1046" r="6" class="c0"/>
<circle cx="1040" cy="158" r="6" class="c0"/>
<circle cx="996" cy="1240" r="6" class="c0"/>
<circle cx="1112" cy="800" r="6" class="c0"/>
<circle cx="894" cy="350" r="6" class="c0"/>
<circle cx="804" cy="48" r="6" class="c0"/>
<circle cx="1068" cy="116" r="6" class="c0"/>
<circle cx="1112" cy="760" r="6" class="c0"/>
<circle cx="926" cy="1284" r="6" class="c0"/>
<circle cx="972" cy="1142" r="6" class="c0"/>
<circle cx="1058" cy="1134" r="6" class="c0"/>
<circle cx="860" cy="764" r="6" class="c0"/>
<circle cx="856" cy="810" r="6" class="c0"/>
<circle cx="952" cy="1340" r="6" class="c0"/>
<circle cx="820" cy="854" r="6" class="c0"/>
<circle cx="1010" cy="868" r="6" class="c0"/>
<circle cx="1070" cy="1186" r="6" class="c0"/>
<circle cx="1006" cy="314" r="6" class="c0"/>
<circle cx="964" cy="246" r="6" class="c0"/>
<circle cx="816" cy="1330" r="6" class="c0"/>
<circle cx="874" cy="230" r="6" class="c0"/>
<circle cx="1040" cy="1166" r="6" class="c0"/>
<circle cx="1080" cy="1164" r="6" class="c0"/>
<circle cx="1068" cy="1298" r="6" class="c0"/>
<circle cx="878" cy="1244" r="6" class="c0"/>
<circle cx="1050" cy="1218" r="6" class="c0"/>
<circle cx="1018" cy="702" r="6" class="c0"/>
<circle cx="864" cy="1256" r="6" class="c0"/>
<circle cx="1060" cy="106" r="6" class="c0"/>
<circle cx="882" cy="716" r="6" class="c0"/>
<circle cx="922" cy="1346" r="6" class="c0"/>
<circle cx="834" cy="212" r="6" class="c0"/>
<circle cx="878" cy="950" r="6" class="c0"/>
<circle cx="790" cy="890" r="6" class="c0"/>
<circle cx="1048" cy="1350" r="6" class="c0"/>
<circle cx="854" cy="164" r="6" class="c0"/>
<circle cx="946" cy="34" r="6" class="c0"/>
<circle cx="976" cy="296" r="6" class="c0"/>
<circle cx="912" cy="42" r="6" class="c0"/>
<circle cx="1096" cy="1370" r="6" class="c0"/>
<circle cx="906" cy="1312" r="6" class="c0"/>
<circle cx="964" cy="364" r="6" class="c0"/>
<circle cx="890" cy="930" r="6" class="c0"/>
<circle cx="1064" cy="712" r="6" class="c0"/>
<circle cx="910" cy="304" r="6" class="c0"/>
<circle cx="1008" cy="366" r="6" class="c0"/>
<circle cx="1030" cy="88" r="6" class="c0"/>
<circle cx="834" cy="756" r="6" class="c0"/>
<circle cx="846" cy="52" r="6" class="c0"/>
<circle cx="762" cy="880" r="6" class="c0"/>
<circle cx="1016" cy="1086" r="6" class="c0"/>
<circle cx="1000" cy="102" r="6" class="c0"/>
<circle cx="930" cy="396" r="6" class="c0"/>
<circle cx="970" cy="36" r="6" class="c0"/>
<circle cx="1102" cy="1122" r="6" class="c0"/>
<circle cx="1034" cy="128" r="6" class="c0"/>
<circle cx="832" cy="1396" r="6" class="c0"/>
<circle cx="1016" cy="796" r="6" class="c0"/>
<circle cx="868" cy="202" r="6" class="c0"/>
<circle cx="950" cy="1054" r="6" class="c0"/>
<circle cx="1006" cy="964" r="6" class="c0"/>
<circle cx="1192" cy="796" r="6" class="c0"/>
<circle cx="920" cy="1414" r="6" class="c0"/>
<circle cx="926" cy="360" r="6" class="c0"/>
<circle cx="1034" cy="1324" r="6" class="c0"/>
<circle cx="1042" cy="1062" r="6" class="c0"/>
<circle cx="984" cy="696" r="6" class="c0"/>
<circle cx="1030" cy="1414" r="6" class="c0"/>
<circle cx="976" cy="664" r="6" class="c0"/>
<circle cx="978" cy="1096" r="6" class="c0"/>
<circle cx="898" cy="1120" r="6" class="c0"/>
<circle cx="924" cy="1036" r="6" class="c0"/>
<circle cx="972" cy="814" r="6" class="c0"/>
<circle cx="1040" cy="1024" r="6" class="c0"/>
<circle cx="896" cy="656" r="6" class="c0"/>
<circle cx="1016" cy="1212" r="6" class="c0"/>
<circle cx="896" cy="6" r="6" class="c0"/>
<circle cx="952" cy="240" r="6" class="c0"/>
<circle cx="988" cy="1212" r="6" class="c0"/>
<circle cx="1066" cy="1390" r="6" class="c0"/>
<circle cx="1048" cy="1124" r="6" class="c0"/>
<circle cx="808" cy="290" r="6" class="c0"/>
<circle cx="1172" cy="778" r="6" class="c0"/>
<circle cx="1020" cy="320" r="6" class="c0"/>
<circle cx="1092" cy="696" r="6" class="c0"/>
<circle cx="984" cy="266" r="6" class="c0"/>
<circle cx="1072" cy="1210" r="6" class="c0"/>
<circle cx="832" cy="1252" r="6" class="c0"/>
<circle cx="1042" cy="1210" r="6" class="c0"/>
<circle cx="1076" cy="876" r="6" class="c0"/>
<circle cx="1056" cy="1264" r="6" class="c0"/>
<circle cx="1104" cy="120" r="6" class="c0"/>
<circle cx="940" cy="376" r="6" class="c0"/>
<circle cx="852" cy="122" r="6" class="c0"/>
<circle cx="948" cy="172" r="6" class="c0"/>
<circle cx="844" cy="6" r="6" class="c0"/>
<circle cx="954" cy="466" r="6" class="c0"/>
<circle cx="1022" cy="1098" r="6" class="c0"/>
<circle cx="966" cy="1316" r="6" class="c0"/>
<circle cx="906" cy="692" r="6" class="c0"/>
<circle cx="906" cy="98" r="6" class="c0"/>
<circle cx="912" cy="198" r="6" class="c0"/>
<circle cx="894" cy="1392" r="6" class="c0"/>
<circle cx="952" cy="648" r="6" class="c0"/>
<circle cx="854" cy="1208" r="6" class="c0"/>
<circle cx="970" cy="620" r="6" class="c0"/>
<circle cx="982" cy="1074" r="6" class="c0"/>
<circle cx="994" cy="192" r="6" class="c0"/>
<circle cx="816" cy="32" r="6" class="c0"/>
<circle cx="1036" cy="38" r="6" class="c0"/>
<circle cx="890" cy="1230" r="6" class="c0"/>
<circle cx="866" cy="1156" r="6" class="c0"/>
<circle cx="944" cy="1086" r="6" class="c0"/>
<circle cx="960" cy="66" r="6" class="c0"/>
<circle cx="1012" cy="108" r="6" class="c0"/>
<circle cx="892" cy="1038" r="6" class="c0"/>
<circle cx="974" cy="1244" r="6" class="c0"/>
<circle cx="1098" cy="88" r="6" class="c0"/>
<circle cx="968" cy="1414" r="6" class="c0"/>
<circle cx="898" cy="1280" r="6" class="c0"/>
<circle cx="904" cy="870" r="6" class="c0"/>
<circle cx="966" cy="1218" r="6" class="c0"/>
<circle cx="1074" cy="248" r="6" class="c0"/>
<circle cx="972" cy="1290" r="6" class="c0"/>
<circle cx="918" cy="938" r="6" class="c0"/>
<circle cx="752" cy="872" r="6" class="c0"/>
<circle cx="1038" cy="716" r="6" class="c0"/>
<circle cx="1134" cy="740" r="6" class="c0"/>
<circle cx="866" cy="332" r="6" class="c0"/>
<circle cx="1112" cy="1310" r="6" class="c0"/>
<circle cx="1252" cy="774" r="6" class="c0"/>
<circle cx="974" cy="206" r="6" class="c0"/>
<circle cx="778" cy="128" r="6" class="c0"/>
<circle cx="1006" cy="828" r="6" class="c0"/>
<circle cx="982" cy="234" r="6" class="c0"/>
<circle cx="962" cy="662" r="6" class="c0"/>
<circle cx="828" cy="1266" r="6" class="c0"/>
<circle cx="1060" cy="148" r="6" class="c0"/>
<circle cx="956" cy="716" r="6" class="c0"/>
<circle cx="996" cy="414" r="6" class="c0"/>
<circle cx="874" cy="164" r="6" class="c0"/>
<circle cx="1088" cy="740" r="6" class="c0"/>
<circle cx="944" cy="618" r="6" class="c0"/>
<circle cx="1132" cy="698" r="6" class="c0"/>
<circle cx="968" cy="828" r="6" class="c0"/>
<circle cx="820" cy="118" r="6" class="c0"/>
<circle cx="900" cy="1062" r="6" class="c0"/>
<circle cx="944" cy="6" r="6" class="c0"/>
<circle cx="876" cy="100" r="6" class="c0"/>
<circle cx="930" cy="1226" r="6" class="c0"/>
<circle cx="806" cy="262" r="6" class="c0"/>
<circle cx="1050" cy="824" r="6" class="c0"/>
<circle cx="1028" cy="362" r="6" class="c0"/>
<circle cx="868" cy="1360" r="6" class="c0"/>
<circle cx="766" cy="810" r="6" class="c0"/>
<circle cx="946" cy="588" r="6" class="c0"/>
<circle cx="940" cy="954" r="6" class="c0"/>
<circle cx="812" cy="862" r="6" class="c0"/>
<circle cx="784" cy="214" r="6" class="c0"/>
<circle cx="962" cy="1188" r="6" class="c0"/>
<circle cx="962" cy="138" r="6" class="c0"/>
<circle cx="1096" cy="112" r="6" class="c0"/>
<circle cx="1050" cy="66" r="6" class="c0"/>
<circle cx="1056" cy="760" r="6" class="c0"/>
<circle cx="1020" cy="930" r="6" class="c0"/>
<circle cx="890" cy="1112" r="6" class="c0"/>
<circle cx="1104" cy="884" r="6" class="c0"/>
<circle cx="988" cy="958" r="6" class="c0"/>
<circle cx="1058" cy="226" r="6" class="c0"/>
<circle cx="1032" cy="60" r="6" class="c0"/>
<circle cx="824" cy="316" r="6" class="c0"/>
<circle cx="1188" cy="732" r="6" class="c0"/>
<circle cx="1042" cy="350" r="6" class="c0"/>
<circle cx="1118" cy="812" r="6" class="c0"/>
<circle cx="1000" cy="1332" r="6" class="c0"/>
<circle cx="874" cy="400" r="6" class="c0"/>
<circle cx="888" cy="870" r="6" class="c0"/>
<circle cx="838" cy="1342" r="6" class="c0"/>
</svg>
