<?xml version="1.0" encoding="utf-8"?>
<svg xmlns="http://www.w3.org/2000/svg"
     xmlns:xlink="http://www.w3.org/1999/xlink" width="1920" height="1440" >

            <defs>
            <style type="text/css"><![CDATA[
circle {stroke: none;}
.c0 {fill: #FFFFFF;}
]]></style>
            </defs>
<rect x="0" y="0" width="1920" height="1440" fill="black"/>
<circle cx="944" cy="358" r="12" class="c0"/>
<circle cx="924" cy="532" r="12" class="c0"/>
<circle cx="1006" cy="292" r="12" class="c0"/>
<circle cx="968" cy="70" r="12" class="c0"/>
<circle cx="950" cy="1136" r="12" class="c0"/>
<circle cx="956" cy="1082" r="12" class="c0"/>
<circle cx="826" cy="1248" r="12" class="c0"/>
<circle cx="898" cy="628" r="12" class="c0"/>
<circle cx="898" cy="256" r="12" class="c0"/>
<circle cx="964" cy="944" r="12" class="c0"/>
<circle cx="930" cy="1194" r="12" class="c0"/>
<circle cx="1046" cy="672" r="12" class="c0"/>
<circle cx="922" cy="346" r="12" class="c0"/>
<circle cx="852" cy="204" r="12" class="c0"/>
<circle cx="970" cy="802" r="12" class="c0"/>
<circle cx="934" cy="608" r="12" class="c0"/>
<circle cx="1018" cy="1222" r="12" class="c0"/>
<circle cx="1004" cy="90" r="12" class="c0"/>
<circle cx="948" cy="1058" r="12" class="c0"/>
<circle cx="1150" cy="672" r="12" class="c0"/>
<circle cx="974" cy="182" r="12" class="c0"/>
<circle cx="1034" cy="244" r="12" class="c0"/>
<circle cx="994" cy="150" r="12" class="c0"/>
<circle cx="1072" cy="136" r="12" class="c0"/>
<circle cx="1016" cy="22" r="12" class="c0"/>
<circle cx="846" cy="1108" r="12" class="c0"/>
<circle cx="950" cy="576" r="12" class="c0"/>
<circle cx="984" cy="1388" r="12" class="c0"/>
<circle cx="1012" cy="1286" r="12" class="c0"/>
<circle cx="844" cy="718" r="12" class="c0"/>
<circle cx="912" cy="670" r="12" class="c0"/>
<circle cx="756" cy="738" r="12" class="c0"/>
<circle cx="832" cy="150" r="12" class="c0"/>
<circle cx="824" cy="1314" r="12" class="c0"/>
<circle cx="794" cy="1236" r="12" class="c0"/>
<circle cx="994" cy="696" r="12" class="c0"/>
<circle cx="1082" cy="164" r="12" class="c0"/>
<circle cx="872" cy="632" r="12" class="c0"/>
<circle cx="970" cy="40" r="12" class="c0"/>
<circle cx="852" cy="256" r="12" class="c0"/>
<circle cx="914" cy="1168" r="12" class="c0"/>
<circle cx="850" cy="48" r="12" class="c0"/>
<circle cx="880" cy="1202" r="12" class="c0"/>
<circle cx="866" cy="970" r="12" class="c0"/>
<circle cx="926" cy="132" r="12" class="c0"/>
<circle cx="884" cy="1176" r="12" class="c0"/>
<circle cx="872" cy="166" r="12" class="c0"/>
<circle cx="954" cy="1304" r="12" class="c0"/>
<circle cx="964" cy="100" r="12" class="c0"/>
<circle cx="900" cy="1012" r="12" class="c0"/>
<circle cx="926" cy="798" r="10" class="c0"/>
<circle cx="880" cy="88" r="10" class="c0"/>
<circle cx="756" cy="794" r="10" class="c0"/>
<circle cx="740" cy="780" r="10" class="c0"/>
<circle cx="940" cy="236" r="10" class="c0"/>
<circle cx="788" cy="812" r="10" class="c0"/>
<circle cx="874" cy="128" r="10" class="c0"/>
<circle cx="1076" cy="752" r="10" class="c0"/>
<circle cx="1000" cy="596" r="10" class="c0"/>
<circle cx="988" cy="672" r="10" class="c0"/>
<circle cx="946" cy="968" r="10" class="c0"/>
<circle cx="1072" cy="100" r="10" class="c0"/>
<circle cx="982" cy="332" r="10" class="c0"/>
<circle cx="1060" cy="28" r="10" class="c0"/>
<circle cx="1004" cy="58" r="10" class="c0"/>
<circle cx="910" cy="1092" r="10" class="c0"/>
<circle cx="870" cy="1306" r="10" class="c0"/>
<circle cx="1020" cy="760" r="10" class="c0"/>
<circle cx="938" cy="710" r="10" class="c0"/>
<circle cx="854" cy="672" r="10" class="c0"/>
<circle cx="976" cy="252" r="10" class="c0"/>
<circle cx="938" cy="816" r="10" class="c0"/>
<circle cx="896" cy="770" r="10" class="c0"/>
<circle cx="1008" cy="940" r="10" class="c0"/>
<circle cx="912" cy="1408" r="10" class="c0"/>
<circle cx="1038" cy="208" r="10" class="c0"/>
<circle cx="892" cy="1296" r="10" class="c0"/>
<circle cx="970" cy="1232" r="10" class="c0"/>
<circle cx="848" cy="762" r="10" class="c0"/>
<circle cx="1024" cy="156" r="10" class="c0"/>
<circle cx="906" cy="1048" r="10" class="c0"/>
<circle cx="988" cy="836" r="10" class="c0"/>
<circle cx="892" cy="706" r="10" class="c0"/>
<circle cx="986" cy="926" r="10" class="c0"/>
<circle cx="896" cy="1066" r="10" class="c0"/>
<circle cx="926" cy="1232" r="10" class="c0"/>
<circle cx="1004" cy="224" r="10" class="c0"/>
<circle cx="914" cy="900" r="10" class="c0"/>
<circle cx="918" cy="736" r="10" class="c0"/>
<circle cx="952" cy="1172" r="10" class="c0"/>
<circle cx="1032" cy="62" r="10" class="c0"/>
<circle cx="934" cy="1264" r="10" class="c0"/>
<circle cx="970" cy="632" r="10" class="c0"/>
<circle cx="792" cy="776" r="10" class="c0"/>
<circle cx="846" cy="1218" r="10" class="c0"/>
<circle cx="984" cy="768" r="10" class="c0"/>
<circle cx="764" cy="1220" r="10" class="c0"/>
<circle cx="862" cy="748" r="10" class="c0"/>
<circle cx="884" cy="296" r="10" class="c0"/>
<circle cx="948" cy="638" r="10" class="c0"/>
<circle cx="1060" cy="628" r="10" class="c0"/>
<circle cx="1066" cy="730" r="10" class="c0"/>
<circle cx="758" cy="764" r="10" class="c0"/>
<circle cx="820" cy="40" r="10" class="c0"/>
<circle cx="1118" cy="692" r="10" class="c0"/>
<circle cx="904" cy="172" r="10" class="c0"/>
<circle cx="892" cy="14" r="10" class="c0"/>
<circle cx="818" cy="132" r="10" class="c0"/>
<circle cx="878" cy="876" r="10" class="c0"/>
<circle cx="974" cy="730" r="10" class="c0"/>
<circle cx="810" cy="676" r="10" class="c0"/>
<circle cx="914" cy="948" r="10" class="c0"/>
<circle cx="854" cy="994" r="10" class="c0"/>
<circle cx="954" cy="336" r="10" class="c0"/>
<circle cx="990" cy="566" r="10" class="c0"/>
<circle cx="954" cy="850" r="10" class="c0"/>
<circle cx="960" cy="206" r="10" class="c0"/>
<circle cx="1080" cy="74" r="10" class="c0"/>
<circle cx="820" cy="740" r="10" class="c0"/>
<circle cx="900" cy="868" r="10" class="c0"/>
<circle cx="856" cy="1192" r="10" class="c0"/>
<circle cx="910" cy="842" r="10" class="c0"/>
<circle cx="1016" cy="116" r="10" class="c0"/>
<circle cx="934" cy="1016" r="10" class="c0"/>
<circle cx="900" cy="580" r="10" class="c0"/>
<circle cx="888" cy="604" r="10" class="c0"/>
<circle cx="950" cy="86" r="10" class="c0"/>
<circle cx="832" cy="64" r="10" class="c0"/>
<circle cx="984" cy="648" r="10" class="c0"/>
<circle cx="808" cy="758" r="10" class="c0"/>
<circle cx="864" cy="928" r="10" class="c0"/>
<circle cx="962" cy="1032" r="10" class="c0"/>
<circle cx="912" cy="1272" r="10" class="c0"/>
<circle cx="876" cy="1044" r="10" class="c0"/>
<circle cx="1030" cy="630" r="10" class="c0"/>
<circle cx="1020" cy="612" r="10" class="c0"/>
<circle cx="1042" cy="744" r="10" class="c0"/>
<circle cx="1130" cy="662" r="10" class="c0"/>
<circle cx="922" cy="760" r="10" class="c0"/>
<circle cx="886" cy="918" r="10" class="c0"/>
<circle cx="978" cy="1090" r="10" class="c0"/>
<circle cx="776" cy="696" r="10" class="c0"/>
<circle cx="804" cy="1294" r="10" class="c0"/>
<circle cx="820" cy="1124" r="10" class="c0"/>
<circle cx="894" cy="980" r="10" class="c0"/>
<circle cx="822" cy="800" r="10" class="c0"/>
<circle cx="774" cy="1246" r="10" class="c0"/>
<circle cx="940" cy="866" r="10" class="c0"/>
<circle cx="954" cy="674" r="10" class="c0"/>
<circle cx="926" cy="582" r="10" class="c0"/>
<circle cx="958" cy="1274" r="10" class="c0"/>
<circle cx="922" cy="42" r="10" class="c0"/>
<circle cx="1098" cy="144" r="10" class="c0"/>
<circle cx="1036" cy="268" r="10" class="c0"/>
<circle cx="874" cy="1238" r="10" class="c0"/>
<circle cx="934" cy="20" r="10" class="c0"/>
<circle cx="730" cy="760" r="10" class="c0"/>
<circle cx="840" cy="176" r="10" class="c0"/>
<circle cx="990" cy="1112" r="10" class="c0"/>
<circle cx="980" cy="228" r="10" class="c0"/>
<circle cx="988" cy="1190" r="10" class="c0"/>
<circle cx="894" cy="552" r="10" class="c0"/>
<circle cx="918" cy="1000" r="10" class="c0"/>
<circle cx="948" cy="180" r="10" class="c0"/>
<circle cx="990" cy="1154" r="10" class="c0"/>
<circle cx="836" cy="1286" r="10" class="c0"/>
<circle cx="890" cy="1150" r="10" class="c0"/>
<circle cx="786" cy="718" r="10" class="c0"/>
<circle cx="874" cy="222" r="10" class="c0"/>
<circle cx="1074" cy="684" r="10" class="c0"/>
<circle cx="802" cy="1214" r="10" class="c0"/>
<circle cx="962" cy="1200" r="10" class="c0"/>
<circle cx="802" cy="1168" r="10" class="c0"/>
<circle cx="784" cy="752" r="10" class="c0"/>
<circle cx="950" cy="728" r="10" class="c0"/>
<circle cx="956" cy="884" r="10" class="c0"/>
<circle cx="1172" cy="656" r="10" class="c0"/>
<circle cx="1004" cy="722" r="10" class="c0"/>
<circle cx="954" cy="550" r="10" class="c0"/>
<circle cx="926" cy="1112" r="10" class="c0"/>
<circle cx="862" cy="1134" r="10" class="c0"/>
<circle cx="920" cy="224" r="10" class="c0"/>
<circle cx="872" cy="1266" r="10" class="c0"/>
<circle cx="876" cy="736" r="10" class="c0"/>
<circle cx="886" cy="1100" r="10" class="c0"/>
<circle cx="844" cy="1082" r="10" class="c0"/>
<circle cx="1190" cy="702" r="10" class="c0"/>
<circle cx="1058" cy="178" r="10" class="c0"/>
<circle cx="852" cy="940" r="10" class="c0"/>
<circle cx="832" cy="664" r="10" class="c0"/>
<circle cx="992" cy="866" r="10" class="c0"/>
<circle cx="940" cy="838" r="10" class="c0"/>
<circle cx="1052" cy="698" r="10" class="c0"/>
<circle cx="898" cy="216" r="10" class="c0"/>
<circle cx="1042" cy="716" r="10" class="c0"/>
<circle cx="872" cy="1116" r="8" class="c0"/>
<circle cx="850" cy="1062" r="8" class="c0"/>
<circle cx="814" cy="698" r="8" class="c0"/>
<circle cx="824" cy="772" r="8" class="c0"/>
<circle cx="952" cy="750" r="8" class="c0"/>
<circle cx="898" cy="1240" r="8" class="c0"/>
<circle cx="1104" cy="624" r="8" class="c0"/>
<circle cx="846" cy="1144" r="8" class="c0"/>
<circle cx="936" cy="1156" r="8" class="c0"/>
<circle cx="1054" cy="108" r="8" class="c0"/>
<circle cx="1006" cy="1174" r="8" class="c0"/>
<circle cx="1104" cy="676" r="8" class="c0"/>
<circle cx="992" cy="1326" r="8" class="c0"/>
<circle cx="958" cy="596" r="8" class="c0"/>
<circle cx="1014" cy="704" r="8" class="c0"/>
<circle cx="994" cy="750" r="8" class="c0"/>
<circle cx="886" cy="186" r="8" class="c0"/>
<circle cx="1198" cy="650" r="8" class="c0"/>
<circle cx="900" cy="796" r="8" class="c0"/>
<circle cx="926" cy="1038" r="8" class="c0"/>
<circle cx="1024" cy="184" r="8" class="c0"/>
<circle cx="860" cy="20" r="8" class="c0"/>
<circle cx="918" cy="700" r="8" class="c0"/>
<circle cx="864" cy="706" r="8" class="c0"/>
<circle cx="822" cy="98" r="8" class="c0"/>
<circle cx="780" cy="1198" r="8" class="c0"/>
<circle cx="910" cy="820" r="8" class="c0"/>
<circle cx="1026" cy="84" r="8" class="c0"/>
<circle cx="1072" cy="220" r="8" class="c0"/>
<circle cx="998" cy="620" r="8" class="c0"/>
<circle cx="856" cy="1154" r="8" class="c0"/>
<circle cx="810" cy="724" r="8" class="c0"/>
<circle cx="1112" cy="756" r="8" class="c0"/>
<circle cx="1078" cy="36" r="8" class="c0"/>
<circle cx="898" cy="1112" r="8" class="c0"/>
<circle cx="1084" cy="962" r="8" class="c0"/>
<circle cx="880" cy="52" r="8" class="c0"/>
<circle cx="934" cy="562" r="8" class="c0"/>
<circle cx="1126" cy="620" r="8" class="c0"/>
<circle cx="1002" cy="1130" r="8" class="c0"/>
<circle cx="1050" cy="132" r="8" class="c0"/>
<circle cx="780" cy="1284" r="8" class="c0"/>
<circle cx="1042" cy="18" r="8" class="c0"/>
<circle cx="840" cy="784" r="8" class="c0"/>
<circle cx="1022" cy="656" r="8" class="c0"/>
<circle cx="894" cy="1262" r="8" class="c0"/>
<circle cx="846" cy="1264" r="8" class="c0"/>
<circle cx="874" cy="670" r="8" class="c0"/>
<circle cx="972" cy="1290" r="8" class="c0"/>
<circle cx="848" cy="696" r="8" class="c0"/>
<circle cx="946" cy="66" r="8" class="c0"/>
<circle cx="1072" cy="192" r="8" class="c0"/>
<circle cx="1052" cy="650" r="8" class="c0"/>
<circle cx="986" cy="1354" r="8" class="c0"/>
<circle cx="970" cy="300" r="8" class="c0"/>
<circle cx="968" cy="1258" r="8" class="c0"/>
<circle cx="900" cy="124" r="8" class="c0"/>
<circle cx="800" cy="150" r="8" class="c0"/>
<circle cx="880" cy="820" r="8" class="c0"/>
<circle cx="1004" cy="1306" r="8" class="c0"/>
<circle cx="962" cy="368" r="8" class="c0"/>
<circle cx="980" cy="988" r="8" class="c0"/>
<circle cx="1030" cy="36" r="8" class="c0"/>
<circle cx="848" cy="1244" r="8" class="c0"/>
<circle cx="868" cy="898" r="8" class="c0"/>
<circle cx="960" cy="702" r="8" class="c0"/>
<circle cx="972" cy="1140" r="8" class="c0"/>
<circle cx="946" cy="994" r="8" class="c0"/>
<circle cx="1022" cy="584" r="8" class="c0"/>
<circle cx="1054" cy="756" r="8" class="c0"/>
<circle cx="1004" cy="254" r="8" class="c0"/>
<circle cx="1100" cy="702" r="8" class="c0"/>
<circle cx="994" cy="1226" r="8" class="c0"/>
<circle cx="812" cy="192" r="8" class="c0"/>
<circle cx="948" cy="384" r="8" class="c0"/>
<circle cx="848" cy="232" r="8" class="c0"/>
<circle cx="890" cy="1128" r="8" class="c0"/>
<circle cx="928" cy="1296" r="8" class="c0"/>
<circle cx="956" cy="136" r="8" class="c0"/>
<circle cx="970" cy="146" r="8" class="c0"/>
<circle cx="928" cy="1140" r="8" class="c0"/>
<circle cx="800" cy="1274" r="8" class="c0"/>
<circle cx="888" cy="1418" r="8" class="c0"/>
<circle cx="902" cy="688" r="8" class="c0"/>
<circle cx="980" cy="1270" r="8" class="c0"/>
<circle cx="934" cy="106" r="8" class="c0"/>
<circle cx="1084" cy="710" r="8" class="c0"/>
<circle cx="1174" cy="634" r="8" class="c0"/>
<circle cx="916" cy="156" r="8" class="c0"/>
<circle cx="978" cy="854" r="8" class="c0"/>
<circle cx="1096" cy="96" r="8" class="c0"/>
<circle cx="1046" cy="228" r="8" class="c0"/>
<circle cx="738" cy="1232" r="8" class="c0"/>
<circle cx="848" cy="84" r="8" class="c0"/>
<circle cx="908" cy="102" r="8" class="c0"/>
<circle cx="1060" cy="76" r="8" class="c0"/>
<circle cx="812" cy="62" r="8" class="c0"/>
<circle cx="1006" cy="910" r="8" class="c0"/>
<circle cx="1074" cy="642" r="8" class="c0"/>
<circle cx="1102" cy="650" r="8" class="c0"/>
<circle cx="910" cy="60" r="8" class="c0"/>
<circle cx="898" cy="150" r="8" class="c0"/>
<circle cx="1050" cy="608" r="8" class="c0"/>
<circle cx="780" cy="1176" r="8" class="c0"/>
<circle cx="804" cy="116" r="8" class="c0"/>
<circle cx="936" cy="1400" r="8" class="c0"/>
<circle cx="984" cy="82" r="8" class="c0"/>
<circle cx="926" cy="278" r="8" class="c0"/>
<circle cx="1018" cy="276" r="8" class="c0"/>
<circle cx="964" cy="1112" r="8" class="c0"/>
<circle cx="878" cy="990" r="8" class="c0"/>
<circle cx="1132" cy="722" r="8" class="c0"/>
<circle cx="852" cy="652" r="8" class="c0"/>
<circle cx="870" cy="36" r="8" class="c0"/>
<circle cx="896" cy="38" r="8" class="c0"/>
<circle cx="858" cy="1290" r="8" class="c0"/>
<circle cx="822" cy="1174" r="8" class="c0"/>
<circle cx="854" cy="1318" r="8" class="c0"/>
<circle cx="868" cy="72" r="8" class="c0"/>
<circle cx="962" cy="984" r="8" class="c0"/>
<circle cx="1008" cy="1248" r="8" class="c0"/>
<circle cx="908" cy="1318" r="8" class="c0"/>
<circle cx="870" cy="582" r="8" class="c0"/>
<circle cx="912" cy="614" r="8" class="c0"/>
<circle cx="996" cy="118" r="8" class="c0"/>
<circle cx="1080" cy="772" r="8" class="c0"/>
<circle cx="936" cy="262" r="8" class="c0"/>
<circle cx="800" cy="86" r="8" class="c0"/>
<circle cx="906" cy="304" r="8" class="c0"/>
<circle cx="930" cy="314" r="8" class="c0"/>
<circle cx="944" cy="300" r="8" class="c0"/>
<circle cx="980" cy="204" r="8" class="c0"/>
<circle cx="980" cy="582" r="8" class="c0"/>
<circle cx="980" cy="278" r="8" class="c0"/>
<circle cx="1002" cy="316" r="8" class="c0"/>
<circle cx="1094" cy="730" r="8" class="c0"/>
<circle cx="1084" cy="632" r="8" class="c0"/>
<circle cx="1156" cy="702" r="8" class="c0"/>
<circle cx="1006" cy="188" r="8" class="c0"/>
<circle cx="798" cy="690" r="8" class="c0"/>
<circle cx="958" cy="922" r="8" class="c0"/>
<circle cx="986" cy="1064" r="8" class="c0"/>
<circle cx="864" cy="110" r="8" class="c0"/>
<circle cx="742" cy="1276" r="8" class="c0"/>
<circle cx="1028" cy="1256" r="8" class="c0"/>
<circle cx="1082" cy="666" r="8" class="c0"/>
<circle cx="878" cy="1080" r="8" class="c0"/>
<circle cx="918" cy="84" r="8" class="c0"/>
<circle cx="1030" cy="694" r="8" class="c0"/>
<circle cx="826" cy="1192" r="8" class="c0"/>
<circle cx="928" cy="922" r="8" class="c0"/>
<circle cx="926" cy="174" r="8" class="c0"/>
<circle cx="968" cy="1320" r="8" class="c0"/>
<circle cx="946" cy="1244" r="8" class="c0"/>
<circle cx="864" cy="802" r="8" class="c0"/>
<circle cx="900" cy="322" r="8" class="c0"/>
<circle cx="892" cy="952" r="8" class="c0"/>
<circle cx="1094" cy="610" r="8" class="c0"/>
<circle cx="844" cy="1170" r="8" class="c0"/>
<circle cx="760" cy="1264" r="8" class="c0"/>
<circle cx="960" cy="232" r="8" class="c0"/>
<circle cx="932" cy="1086" r="8" class="c0"/>
<circle cx="1010" cy="646" r="8" class="c0"/>
<circle cx="876" cy="762" r="8" class="c0"/>
<circle cx="1174" cy="714" r="8" class="c0"/>
<circle cx="818" cy="170" r="8" class="c0"/>
<circle cx="982" cy="882" r="8" class="c0"/>
<circle cx="950" cy="782" r="8" class="c0"/>
<circle cx="850" cy="1020" r="8" class="c0"/>
<circle cx="920" cy="1376" r="8" class="c0"/>
<circle cx="954" cy="290" r="8" class="c0"/>
<circle cx="1022" cy="676" r="8" class="c0"/>
<circle cx="962" cy="764" r="8" class="c0"/>
<circle cx="1196" cy="678" r="8" class="c0"/>
<circle cx="918" cy="968" r="8" class="c0"/>
<circle cx="962" cy="652" r="8" class="c0"/>
<circle cx="828" cy="8" r="8" class="c0"/>
<circle cx="958" cy="272" r="8" class="c0"/>
<circle cx="950" cy="1226" r="8" class="c0"/>
<circle cx="758" cy="1286" r="8" class="c0"/>
<circle cx="1022" cy="736" r="8" class="c0"/>
<circle cx="924" cy="250" r="8" class="c0"/>
<circle cx="978" cy="1168" r="8" class="c0"/>
<circle cx="1052" cy="152" r="8" class="c0"/>
<circle cx="876" cy="264" r="8" class="c0"/>
<circle cx="918" cy="1074" r="8" class="c0"/>
<circle cx="1124" cy="642" r="8" class="c0"/>
<circle cx="922" cy="874" r="8" class="c0"/>
<circle cx="1166" cy="688" r="8" class="c0"/>
<circle cx="1154" cy="642" r="8" class="c0"/>
<circle cx="840" cy="124" r="8" class="c0"/>
<circle cx="908" cy="1140" r="8" class="c0"/>
<circle cx="876" cy="854" r="8" class="c0"/>
<circle cx="1024" cy="1306" r="8" class="c0"/>
<circle cx="900" cy="278" r="8" class="c0"/>
<circle cx="944" cy="154" r="8" class="c0"/>
<circle cx="872" cy="8" r="8" class="c0"/>
<circle cx="940" cy="772" r="8" class="c0"/>
<circle cx="932" cy="688" r="8" class="c0"/>
<circle cx="916" cy="506" r="8" class="c0"/>
<circle cx="988" cy="30" r="8" class="c0"/>
<circle cx="984" cy="1034" r="8" class="c0"/>
<circle cx="966" cy="832" r="8" class="c0"/>
<circle cx="908" cy="648" r="8" class="c0"/>
<circle cx="926" cy="628" r="8" class="c0"/>
<circle cx="1002" cy="1266" r="8" class="c0"/>
<circle cx="1052" cy="256" r="8" class="c0"/>
<circle cx="952" cy="8" r="8" class="c0"/>
<circle cx="984" cy="1300" r="8" class="c0"/>
<circle cx="1066" cy="996" r="8" class="c0"/>
<circle cx="942" cy="40" r="8" class="c0"/>
<circle cx="1040" cy="770" r="8" class="c0"/>
<circle cx="968" cy="686" r="8" class="c0"/>
<circle cx="1042" cy="96" r="8" class="c0"/>
<circle cx="920" cy="1328" r="8" class="c0"/>
<circle cx="1010" cy="574" r="8" class="c0"/>
<circle cx="912" cy="564" r="8" class="c0"/>
<circle cx="1148" cy="624" r="8" class="c0"/>
<circle cx="922" cy="296" r="8" class="c0"/>
<circle cx="886" cy="240" r="8" class="c0"/>
<circle cx="862" cy="1090" r="8" class="c0"/>
<circle cx="862" cy="600" r="8" class="c0"/>
<circle cx="826" cy="204" r="8" class="c0"/>
<circle cx="1032" cy="138" r="8" class="c0"/>
<circle cx="892" cy="1326" r="8" class="c0"/>
<circle cx="910" cy="202" r="8" class="c0"/>
<circle cx="772" cy="784" r="8" class="c0"/>
<circle cx="716" cy="784" r="8" class="c0"/>
<circle cx="860" cy="142" r="8" class="c0"/>
<circle cx="984" cy="130" r="8" class="c0"/>
<circle cx="868" cy="1018" r="8" class="c0"/>
<circle cx="1210" cy="660" r="8" class="c0"/>
<circle cx="940" cy="908" r="8" class="c0"/>
<circle cx="912" cy="20" r="8" class="c0"/>
<circle cx="1004" cy="168" r="8" class="c0"/>
<circle cx="838" cy="686" r="8" class="c0"/>
<circle cx="814" cy="1228" r="8" class="c0"/>
<circle cx="888" cy="1030" r="8" class="c0"/>
<circle cx="1082" cy="202" r="8" class="c0"/>
<circle cx="1014" cy="208" r="8" class="c0"/>
<circle cx="904" cy="1192" r="8" class="c0"/>
<circle cx="1146" cy="712" r="8" class="c0"/>
<circle cx="912" cy="1250" r="8" class="c0"/>
<circle cx="916" cy="1348" r="8" class="c0"/>
<circle cx="1184" cy="668" r="8" class="c0"/>
<circle cx="986" cy="790" r="8" class="c0"/>
<circle cx="1008" cy="772" r="8" class="c0"/>
<circle cx="890" cy="66" r="8" class="c0"/>
<circle cx="1092" cy="122" r="8" class="c0"/>
<circle cx="1002" cy="8" r="8" class="c0"/>
<circle cx="1054" cy="54" r="8" class="c0"/>
<circle cx="792" cy="1188" r="8" class="c0"/>
<circle cx="954" cy="1014" r="8" class="c0"/>
<circle cx="804" cy="1148" r="8" class="c0"/>
<circle cx="976" cy="610" r="8" class="c0"/>
<circle cx="1064" cy="660" r="8" class="c0"/>
<circle cx="976" cy="1006" r="8" class="c0"/>
<circle cx="938" cy="206" r="8" class="c0"/>
<circle cx="916" cy="782" r="8" class="c0"/>
<circle cx="878" cy="688" r="8" class="c0"/>
<circle cx="808" cy="786" r="8" class="c0"/>
<circle cx="764" cy="710" r="8" class="c0"/>
<circle cx="906" cy="1222" r="8" class="c0"/>
<circle cx="968" cy="902" r="8" class="c0"/>
<circle cx="936" cy="666" r="8" class="c0"/>
<circle cx="888" cy="648" r="8" class="c0"/>
<circle cx="836" cy="1048" r="8" class="c0"/>
<circle cx="1120" cy="740" r="8" class="c0"/>
<circle cx="1008" cy="1196" r="8" class="c0"/>
<circle cx="768" cy="810" r="8" class="c0"/>
<circle cx="936" cy="1320" r="8" class="c0"/>
<circle cx="976" cy="966" r="8" class="c0"/>
<circle cx="1082" cy="984" r="8" class="c0"/>
<circle cx="908" cy="920" r="8" class="c0"/>
<circle cx="900" cy="744" r="8" class="c0"/>
<circle cx="844" cy="966" r="8" class="c0"/>
<circle cx="1136" cy="702" r="8" class="c0"/>
<circle cx="1018" cy="46" r="8" class="c0"/>
<circle cx="888" cy="836" r="8" class="c0"/>
<circle cx="988" cy="906" r="8" class="c0"/>
<circle cx="1108" cy="720" r="8" class="c0"/>
<circle cx="1210" cy="712" r="8" class="c0"/>
<circle cx="860" cy="784" r="8" class="c0"/>
<circle cx="856" cy="864" r="8" class="c0"/>
<circle cx="988" cy="546" r="8" class="c0"/>
<circle cx="944" cy="1102" r="8" class="c0"/>
<circle cx="982" cy="10" r="8" class="c0"/>
<circle cx="986" cy="1244" r="8" class="c0"/>
<circle cx="840" cy="104" r="8" class="c0"/>
<circle cx="968" cy="868" r="8" class="c0"/>
<circle cx="1094" cy="760" r="8" class="c0"/>
<circle cx="970" cy="1054" r="8" class="c0"/>
<circle cx="1066" cy="242" r="8" class="c0"/>
<circle cx="826" cy="1146" r="8" class="c0"/>
<circle cx="1026" cy="970" r="8" class="c0"/>
<circle cx="942" cy="324" r="8" class="c0"/>
<circle cx="888" cy="344" r="8" class="c0"/>
<circle cx="820" cy="224" r="6" class="c0"/>
<circle cx="802" cy="710" r="6" class="c0"/>
<circle cx="882" cy="786" r="6" class="c0"/>
<circle cx="914" cy="266" r="6" class="c0"/>
<circle cx="884" cy="110" r="6" class="c0"/>
<circle cx="786" cy="1302" r="6" class="c0"/>
<circle cx="886" cy="1276" r="6" class="c0"/>
<circle cx="970" cy="666" r="6" class="c0"/>
<circle cx="1088" cy="56" r="6" class="c0"/>
<circle cx="1040" cy="166" r="6" class="c0"/>
<circle cx="864" cy="1216" r="6" class="c0"/>
<circle cx="904" cy="236" r="6" class="c0"/>
<circle cx="894" cy="724" r="6" class="c0"/>
<circle cx="1090" cy="188" r="6" class="c0"/>
<circle cx="1074" cy="12" r="6" class="c0"/>
<circle cx="822" cy="1268" r="6" class="c0"/>
<circle cx="982" cy="108" r="6" class="c0"/>
<circle cx="1006" cy="834" r="6" class="c0"/>
<circle cx="868" cy="188" r="6" class="c0"/>
<circle cx="960" cy="618" r="6" class="c0"/>
<circle cx="836" cy="244" r="6" class="c0"/>
<circle cx="844" cy="18" r="6" class="c0"/>
<circle cx="774" cy="730" r="6" class="c0"/>
<circle cx="798" cy="176" r="6" class="c0"/>
<circle cx="864" cy="236" r="6" class="c0"/>
<circle cx="934" cy="1214" r="6" class="c0"/>
<circle cx="970" cy="1182" r="6" class="c0"/>
<circle cx="1004" cy="1390" r="6" class="c0"/>
<circle cx="974" cy="538" r="6" class="c0"/>
<circle cx="1048" cy="282" r="6" class="c0"/>
<circle cx="820" cy="114" r="6" class="c0"/>
<circle cx="1042" cy="186" r="6" class="c0"/>
<circle cx="886" cy="1224" r="6" class="c0"/>
<circle cx="1034" cy="1280" r="6" class="c0"/>
<circle cx="864" cy="1174" r="6" class="c0"/>
<circle cx="932" cy="648" r="6" class="c0"/>
<circle cx="1024" cy="224" r="6" class="c0"/>
<circle cx="966" cy="324" r="6" class="c0"/>
<circle cx="988" cy="812" r="6" class="c0"/>
<circle cx="874" cy="280" r="6" class="c0"/>
<circle cx="1060" cy="772" r="6" class="c0"/>
<circle cx="1028" cy="292" r="6" class="c0"/>
<circle cx="940" cy="1282" r="6" class="c0"/>
<circle cx="1002" cy="852" r="6" class="c0"/>
<circle cx="1008" cy="882" r="6" class="c0"/>
<circle cx="958" cy="312" r="6" class="c0"/>
<circle cx="800" cy="40" r="6" class="c0"/>
<circle cx="748" cy="1254" r="6" class="c0"/>
<circle cx="826" cy="1102" r="6" class="c0"/>
<circle cx="840" cy="1010" r="6" class="c0"/>
<circle cx="970" cy="562" r="6" class="c0"/>
<circle cx="834" cy="752" r="6" class="c0"/>
<circle cx="860" cy="1032" r="6" class="c0"/>
<circle cx="986" cy="298" r="6" class="c0"/>
<circle cx="928" cy="1054" r="6" class="c0"/>
<circle cx="1040" cy="992" r="6" class="c0"/>
<circle cx="796" cy="1256" r="6" class="c0"/>
<circle cx="934" cy="940" r="6" class="c0"/>
<circle cx="956" cy="814" r="6" class="c0"/>
<circle cx="836" cy="222" r="6" class="c0"/>
<circle cx="752" cy="1206" r="6" class="c0"/>
<circle cx="982" cy="1210" r="6" class="c0"/>
<circle cx="808" cy="1194" r="6" class="c0"/>
<circle cx="938" cy="1384" r="6" class="c0"/>
<circle cx="870" cy="834" r="6" class="c0"/>
<circle cx="846" cy="1302" r="6" class="c0"/>
<circle cx="858" cy="276" r="6" class="c0"/>
<circle cx="898" cy="80" r="6" class="c0"/>
<circle cx="914" cy="598" r="6" class="c0"/>
<circle cx="974" cy="1372" r="6" class="c0"/>
<circle cx="1004" cy="38" r="6" class="c0"/>
<circle cx="1002" cy="272" r="6" class="c0"/>
<circle cx="892" cy="674" r="6" class="c0"/>
<circle cx="954" cy="52" r="6" class="c0"/>
<circle cx="876" cy="716" r="6" class="c0"/>
<circle cx="916" cy="716" r="6" class="c0"/>
<circle cx="894" cy="900" r="6" class="c0"/>
<circle cx="790" cy="106" r="6" class="c0"/>
<circle cx="876" cy="204" r="6" class="c0"/>
<circle cx="806" cy="22" r="6" class="c0"/>
<circle cx="860" cy="180" r="6" class="c0"/>
<circle cx="986" cy="718" r="6" class="c0"/>
<circle cx="976" cy="708" r="6" class="c0"/>
<circle cx="892" cy="100" r="6" class="c0"/>
<circle cx="974" cy="752" r="6" class="c0"/>
<circle cx="1012" cy="628" r="6" class="c0"/>
<circle cx="856" cy="1046" r="6" class="c0"/>
<circle cx="1078" cy="608" r="6" class="c0"/>
<circle cx="970" cy="354" r="6" class="c0"/>
<circle cx="944" cy="930" r="6" class="c0"/>
<circle cx="920" cy="856" r="6" class="c0"/>
<circle cx="964" cy="20" r="6" class="c0"/>
<circle cx="990" cy="264" r="6" class="c0"/>
<circle cx="818" cy="78" r="6" class="c0"/>
<circle cx="1008" cy="666" r="6" class="c0"/>
<circle cx="796" cy="1310" r="6" class="c0"/>
<circle cx="1060" cy="8" r="6" class="c0"/>
<circle cx="1022" cy="718" r="6" class="c0"/>
<circle cx="990" cy="46" r="6" class="c0"/>
<circle cx="948" cy="122" r="6" class="c0"/>
<circle cx="1008" cy="1150" r="6" class="c0"/>
<circle cx="868" cy="1068" r="6" class="c0"/>
<circle cx="1040" cy="120" r="6" class="c0"/>
<circle cx="1002" cy="1376" r="6" class="c0"/>
<circle cx="994" cy="242" r="6" class="c0"/>
<circle cx="856" cy="126" r="6" class="c0"/>
<circle cx="944" cy="1038" r="6" class="c0"/>
<circle cx="780" cy="1264" r="6" class="c0"/>
<circle cx="856" cy="622" r="6" class="c0"/>
<circle cx="794" cy="794" r="6" class="c0"/>
<circle cx="968" cy="1158" r="6" class="c0"/>
<circle cx="948" cy="1210" r="6" class="c0"/>
<circle cx="958" cy="250" r="6" class="c0"/>
<circle cx="924" cy="656" r="6" class="c0"/>
<circle cx="736" cy="742" r="6" class="c0"/>
<circle cx="1026" cy="948" r="6" class="c0"/>
<circle cx="898" cy="934" r="6" class="c0"/>
<circle cx="830" cy="702" r="6" class="c0"/>
<circle cx="1070" cy="50" r="6" class="c0"/>
<circle cx="1032" cy="1236" r="6" class="c0"/>
<circle cx="826" cy="1212" r="6" class="c0"/>
<circle cx="1016" cy="958" r="6" class="c0"/>
<circle cx="772" cy="1298" r="6" class="c0"/>
<circle cx="916" cy="1210" r="6" class="c0"/>
<circle cx="984" cy="166" r="6" class="c0"/>
<circle cx="964" cy="162" r="6" class="c0"/>
<circle cx="842" cy="742" r="6" class="c0"/>
<circle cx="1030" cy="106" r="6" class="c0"/>
<circle cx="996" cy="1094" r="6" class="c0"/>
<circle cx="850" cy="158" r="6" class="c0"/>
<circle cx="1034" cy="600" r="6" class="c0"/>
<circle cx="838" cy="1202" r="6" class="c0"/>
<circle cx="924" cy="68" r="6" class="c0"/>
<circle cx="904" cy="886" r="6" class="c0"/>
<circle cx="994" cy="1080" r="6" class="c0"/>
<circle cx="932" cy="978" r="6" class="c0"/>
<circle cx="782" cy="1216" r="6" class="c0"/>
<circle cx="876" cy="1286" r="6" class="c0"/>
<circle cx="924" cy="192" r="6" class="c0"/>
<circle cx="912" cy="1030" r="6" class="c0"/>
<circle cx="918" cy="1128" r="6" class="c0"/>
<circle cx="842" cy="1336" r="6" class="c0"/>
<circle cx="824" cy="238" r="6" class="c0"/>
<circle cx="878" cy="146" r="6" class="c0"/>
<circle cx="1056" cy="198" r="6" class="c0"/>
<circle cx="828" cy="188" r="6" class="c0"/>
<circle cx="860" cy="880" r="6" class="c0"/>
<circle cx="974" cy="1124" r="6" class="c0"/>
<circle cx="988" cy="1018" r="6" class="c0"/>
<circle cx="928" cy="890" r="6" class="c0"/>
<circle cx="1012" cy="868" r="6" class="c0"/>
<circle cx="978" cy="822" r="6" class="c0"/>
<circle cx="976" cy="1340" r="6" class="c0"/>
<circle cx="984" cy="948" r="6" class="c0"/>
<circle cx="990" cy="1280" r="6" class="c0"/>
<circle cx="896" cy="1212" r="6" class="c0"/>
<circle cx="1016" cy="140" r="6" class="c0"/>
<circle cx="1028" cy="986" r="6" class="c0"/>
<circle cx="938" cy="740" r="6" class="c0"/>
<circle cx="930" cy="956" r="6" class="c0"/>
<circle cx="950" cy="692" r="6" class="c0"/>
<circle cx="798" cy="734" r="6" class="c0"/>
<circle cx="874" cy="944" r="6" class="c0"/>
<circle cx="832" cy="24" r="6" class="c0"/>
<circle cx="1064" cy="712" r="6" class="c0"/>
<circle cx="860" cy="1254" r="6" class="c0"/>
<circle cx="966" cy="120" r="6" class="c0"/>
<circle cx="1002" cy="1212" r="6" class="c0"/>
<circle cx="864" cy="1330" r="6" class="c0"/>
<circle cx="848" cy="800" r="6" class="c0"/>
<circle cx="1056" cy="218" r="6" class="c0"/>
<circle cx="912" cy="1292" r="6" class="c0"/>
<circle cx="858" cy="730" r="6" class="c0"/>
<circle cx="936" cy="546" r="6" class="c0"/>
<circle cx="1006" cy="680" r="6" class="c0"/>
<circle cx="874" cy="1158" r="6" class="c0"/>
<circle cx="958" cy="398" r="6" class="c0"/>
<circle cx="948" cy="532" r="6" class="c0"/>
<circle cx="1000" cy="656" r="6" class="c0"/>
<circle cx="1130" cy="768" r="6" class="c0"/>
<circle cx="934" cy="78" r="6" class="c0"/>
<circle cx="902" cy="962" r="6" class="c0"/>
<circle cx="858" cy="908" r="6" class="c0"/>
<circle cx="896" cy="812" r="6" class="c0"/>
<circle cx="794" cy="832" r="6" class="c0"/>
<circle cx="970" cy="780" r="6" class="c0"/>
<circle cx="950" cy="220" r="6" class="c0"/>
<circle cx="836" cy="1028" r="6" class="c0"/>
<circle cx="834" cy="1160" r="6" class="c0"/>
<circle cx="798" cy="132" r="6" class="c0"/>
<circle cx="998" cy="890" r="6" class="c0"/>
<circle cx="830" cy="84" r="6" class="c0"/>
<circle cx="756" cy="1240" r="6" class="c0"/>
<circle cx="858" cy="1230" r="6" class="c0"/>
<circle cx="902" cy="1336" r="6" class="c0"/>
<circle cx="840" cy="1128" r="6" class="c0"/>
<circle cx="918" cy="112" r="6" class="c0"/>
<circle cx="882" cy="570" r="6" class="c0"/>
<circle cx="788" cy="680" r="6" class="c0"/>
<circle cx="770" cy="1188" r="6" class="c0"/>
<circle cx="1092" cy="686" r="6" class="c0"/>
<circle cx="1144" cy="652" r="6" class="c0"/>
<circle cx="994" cy="72" r="6" class="c0"/>
<circle cx="1156" cy="724" r="6" class="c0"/>
<circle cx="1134" cy="684" r="6" class="c0"/>
<circle cx="918" cy="326" r="6" class="c0"/>
<circle cx="1026" cy="1272" r="6" class="c0"/>
<circle cx="838" cy="1234" r="6" class="c0"/>
<circle cx="1044" cy="74" r="6" class="c0"/>
<circle cx="882" cy="804" r="6" class="c0"/>
<circle cx="996" cy="206" r="6" class="c0"/>
<circle cx="1000" cy="342" r="6" class="c0"/>
<circle cx="880" cy="1008" r="6" class="c0"/>
<circle cx="868" cy="654" r="6" class="c0"/>
<circle cx="936" cy="56" r="6" class="c0"/>
<circle cx="1014" cy="240" r="6" class="c0"/>
<circle cx="836" cy="982" r="6" class="c0"/>
<circle cx="974" cy="316" r="6" class="c0"/>
<circle cx="934" cy="1070" r="6" class="c0"/>
<circle cx="906" cy="1390" r="6" class="c0"/>
<circle cx="858" cy="94" r="6" class="c0"/>
<circle cx="982" cy="56" r="6" class="c0"/>
<circle cx="926" cy="828" r="6" class="c0"/>
<circle cx="882" cy="936" r="6" class="c0"/>
<circle cx="1032" cy="8" r="6" class="c0"/>
<circle cx="822" cy="712" r="6" class="c0"/>
<circle cx="834" cy="1064" r="6" class="c0"/>
<circle cx="746" cy="1218" r="6" class="c0"/>
<circle cx="946" cy="798" r="6" class="c0"/>
<circle cx="840" cy="808" r="6" class="c0"/>
<circle cx="1008" cy="132" r="6" class="c0"/>
<circle cx="1104" cy="186" r="6" class="c0"/>
<circle cx="1104" cy="742" r="6" class="c0"/>
<circle cx="856" cy="1274" r="6" class="c0"/>
<circle cx="890" cy="136" r="6" class="c0"/>
<circle cx="952" cy="26" r="6" class="c0"/>
<circle cx="1150" cy="780" r="6" class="c0"/>
<circle cx="804" cy="1318" r="6" class="c0"/>
<circle cx="804" cy="804" r="6" class="c0"/>
<circle cx="894" cy="1084" r="6" class="c0"/>
<circle cx="810" cy="1260" r="6" class="c0"/>
<circle cx="776" cy="768" r="6" class="c0"/>
<circle cx="870" cy="248" r="6" class="c0"/>
<circle cx="944" cy="948" r="6" class="c0"/>
<circle cx="990" cy="194" r="6" class="c0"/>
<circle cx="922" cy="552" r="6" class="c0"/>
<circle cx="1120" cy="710" r="6" class="c0"/>
<circle cx="1182" cy="686" r="6" class="c0"/>
<circle cx="880" cy="26" r="6" class="c0"/>
<circle cx="846" cy="1038" r="6" class="c0"/>
<circle cx="1090" cy="24" r="6" class="c0"/>
<circle cx="994" cy="178" r="6" class="c0"/>
<circle cx="992" cy="734" r="6" class="c0"/>
<circle cx="1208" cy="694" r="6" class="c0"/>
<circle cx="994" cy="1368" r="6" class="c0"/>
<circle cx="932" cy="514" r="6" class="c0"/>
<circle cx="1010" cy="746" r="6" class="c0"/>
<circle cx="850" cy="6" r="6" class="c0"/>
<circle cx="1022" cy="258" r="6" class="c0"/>
<circle cx="918" cy="1306" r="6" class="c0"/>
<circle cx="884" cy="1252" r="6" class="c0"/>
<circle cx="816" cy="856" r="6" class="c0"/>
<circle cx="1138" cy="634" r="6" class="c0"/>
<circle cx="764" cy="1200" r="6" class="c0"/>
<circle cx="852" cy="68" r="6" class="c0"/>
<circle cx="1026" cy="778" r="6" class="c0"/>
<circle cx="818" cy="1282" r="6" class="c0"/>
<circle cx="810" cy="216" r="6" class="c0"/>
<circle cx="920" cy="6" r="6" class="c0"/>
<circle cx="912" cy="490" r="6" class="c0"/>
<circle cx="1014" cy="328" r="6" class="c0"/>
<circle cx="816" cy="1158" r="6" class="c0"/>
<circle cx="1000" cy="636" r="6" class="c0"/>
<circle cx="1020" cy="1186" r="6" class="c0"/>
<circle cx="886" cy="752" r="6" class="c0"/>
<circle cx="942" cy="280" r="6" class="c0"/>
<circle cx="910" cy="1366" r="6" class="c0"/>
<circle cx="892" cy="852" r="6" class="c0"/>
<circle cx="1102" cy="76" r="6" class="c0"/>
<circle cx="898" cy="658" r="6" class="c0"/>
<circle cx="910" cy="544" r="6" class="c0"/>
<circle cx="1016" cy="70" r="6" class="c0"/>
<circle cx="1064" cy="118" r="6" class="c0"/>
<circle cx="874" cy="562" r="6" class="c0"/>
<circle cx="916" cy="184" r="6" class="c0"/>
<circle cx="908" cy="522" r="6" class="c0"/>
<circle cx="816" cy="1202" r="6" class="c0"/>
<circle cx="1040" cy="46" r="6" class="c0"/>
<circle cx="876" cy="1324" r="6" class="c0"/>
</svg>
