<?xml version="1.0" encoding="utf-8"?>
<svg xmlns="http://www.w3.org/2000/svg"
     xmlns:xlink="http://www.w3.org/1999/xlink" width="1920" height="1440" >

            <defs>
            <style type="text/css"><![CDATA[
circle {stroke: none;}
.c0 {fill: #000000;}
]]></style>
            </defs>
<rect x="0" y="0" width="1920" height="1440" fill="white"/>
<circle cx="1366" cy="758" r="12" class="c0"/>
<circle cx="1316" cy="950" r="12" class="c0"/>
<circle cx="942" cy="846" r="12" class="c0"/>
<circle cx="944" cy="934" r="12" class="c0"/>
<circle cx="1216" cy="782" r="12" class="c0"/>
<circle cx="1144" cy="1024" r="12" class="c0"/>
<circle cx="1168" cy="712" r="12" class="c0"/>
<circle cx="1174" cy="574" r="12" class="c0"/>
<circle cx="922" cy="770" r="12" class="c0"/>
<circle cx="1054" cy="676" r="12" class="c0"/>
<circle cx="1064" cy="612" r="12" class="c0"/>
<circle cx="902" cy="724" r="12" class="c0"/>
<circle cx="1124" cy="542" r="12" class="c0"/>
<circle cx="988" cy="992" r="12" class="c0"/>
<circle cx="1292" cy="668" r="12" class="c0"/>
<circle cx="1324" cy="634" r="12" class="c0"/>
<circle cx="1058" cy="772" r="12" class="c0"/>
<circle cx="1110" cy="912" r="12" class="c0"/>
<circle cx="910" cy="888" r="12" class="c0"/>
<circle cx="918" cy="646" r="12" class="c0"/>
<circle cx="1152" cy="762" r="12" class="c0"/>
<circle cx="1152" cy="798" r="12" class="c0"/>
<circle cx="1052" cy="740" r="12" class="c0"/>
<circle cx="1284" cy="556" r="12" class="c0"/>
<circle cx="1340" cy="754" r="12" class="c0"/>
<circle cx="998" cy="736" r="12" class="c0"/>
<circle cx="972" cy="910" r="12" class="c0"/>
<circle cx="1034" cy="970" r="12" class="c0"/>
<circle cx="1184" cy="1038" r="12" class="c0"/>
<circle cx="1086" cy="782" r="12" class="c0"/>
<circle cx="1100" cy="850" r="12" class="c0"/>
<circle cx="1036" cy="1026" r="12" class="c0"/>
<circle cx="1286" cy="850" r="12" class="c0"/>
<circle cx="1030" cy="726" r="12" class="c0"/>
<circle cx="1176" cy="928" r="12" class="c0"/>
<circle cx="1250" cy="930" r="12" class="c0"/>
<circle cx="1360" cy="916" r="12" class="c0"/>
<circle cx="1298" cy="896" r="12" class="c0"/>
<circle cx="1078" cy="630" r="12" class="c0"/>
<circle cx="1266" cy="664" r="12" class="c0"/>
<circle cx="1212" cy="640" r="10" class="c0"/>
<circle cx="972" cy="568" r="10" class="c0"/>
<circle cx="1018" cy="794" r="10" class="c0"/>
<circle cx="1044" cy="924" r="10" class="c0"/>
<circle cx="886" cy="758" r="10" class="c0"/>
<circle cx="1314" cy="834" r="10" class="c0"/>
<circle cx="1306" cy="780" r="10" class="c0"/>
<circle cx="1116" cy="656" r="10" class="c0"/>
<circle cx="1010" cy="680" r="10" class="c0"/>
<circle cx="1102" cy="592" r="10" class="c0"/>
<circle cx="1152" cy="622" r="10" class="c0"/>
<circle cx="1376" cy="848" r="10" class="c0"/>
<circle cx="1222" cy="596" r="10" class="c0"/>
<circle cx="1116" cy="1002" r="10" class="c0"/>
<circle cx="942" cy="896" r="10" class="c0"/>
<circle cx="1080" cy="724" r="10" class="c0"/>
<circle cx="1148" cy="570" r="10" class="c0"/>
<circle cx="1134" cy="810" r="10" class="c0"/>
<circle cx="1160" cy="848" r="10" class="c0"/>
<circle cx="1188" cy="612" r="10" class="c0"/>
<circle cx="1028" cy="762" r="10" class="c0"/>
<circle cx="1122" cy="584" r="10" class="c0"/>
<circle cx="1108" cy="976" r="10" class="c0"/>
<circle cx="1114" cy="680" r="10" class="c0"/>
<circle cx="1178" cy="986" r="10" class="c0"/>
<circle cx="1276" cy="744" r="10" class="c0"/>
<circle cx="1270" cy="910" r="10" class="c0"/>
<circle cx="1252" cy="1022" r="10" class="c0"/>
<circle cx="1250" cy="732" r="10" class="c0"/>
<circle cx="1340" cy="792" r="10" class="c0"/>
<circle cx="980" cy="786" r="10" class="c0"/>
<circle cx="1114" cy="606" r="10" class="c0"/>
<circle cx="1126" cy="890" r="10" class="c0"/>
<circle cx="1222" cy="896" r="10" class="c0"/>
<circle cx="1036" cy="556" r="10" class="c0"/>
<circle cx="1300" cy="870" r="10" class="c0"/>
<circle cx="990" cy="848" r="10" class="c0"/>
<circle cx="1108" cy="632" r="10" class="c0"/>
<circle cx="1240" cy="612" r="10" class="c0"/>
<circle cx="948" cy="994" r="10" class="c0"/>
<circle cx="948" cy="582" r="10" class="c0"/>
<circle cx="1324" cy="724" r="10" class="c0"/>
<circle cx="1140" cy="594" r="10" class="c0"/>
<circle cx="1110" cy="876" r="10" class="c0"/>
<circle cx="1190" cy="648" r="10" class="c0"/>
<circle cx="964" cy="864" r="10" class="c0"/>
<circle cx="1232" cy="760" r="10" class="c0"/>
<circle cx="876" cy="734" r="10" class="c0"/>
<circle cx="1340" cy="700" r="10" class="c0"/>
<circle cx="1206" cy="540" r="10" class="c0"/>
<circle cx="1268" cy="696" r="10" class="c0"/>
<circle cx="1336" cy="910" r="10" class="c0"/>
<circle cx="1116" cy="798" r="10" class="c0"/>
<circle cx="906" cy="974" r="10" class="c0"/>
<circle cx="1342" cy="834" r="10" class="c0"/>
<circle cx="910" cy="840" r="10" class="c0"/>
<circle cx="1164" cy="888" r="10" class="c0"/>
<circle cx="1222" cy="684" r="10" class="c0"/>
<circle cx="1158" cy="530" r="10" class="c0"/>
<circle cx="1200" cy="688" r="10" class="c0"/>
<circle cx="1196" cy="828" r="10" class="c0"/>
<circle cx="996" cy="710" r="10" class="c0"/>
<circle cx="1044" cy="1000" r="10" class="c0"/>
<circle cx="1126" cy="708" r="10" class="c0"/>
<circle cx="1084" cy="978" r="10" class="c0"/>
<circle cx="1352" cy="668" r="10" class="c0"/>
<circle cx="888" cy="866" r="10" class="c0"/>
<circle cx="1088" cy="1040" r="10" class="c0"/>
<circle cx="1144" cy="720" r="10" class="c0"/>
<circle cx="1146" cy="994" r="10" class="c0"/>
<circle cx="1246" cy="776" r="10" class="c0"/>
<circle cx="1254" cy="564" r="10" class="c0"/>
<circle cx="912" cy="684" r="10" class="c0"/>
<circle cx="1006" cy="566" r="10" class="c0"/>
<circle cx="1376" cy="894" r="10" class="c0"/>
<circle cx="1072" cy="814" r="10" class="c0"/>
<circle cx="1242" cy="532" r="10" class="c0"/>
<circle cx="1136" cy="670" r="10" class="c0"/>
<circle cx="1308" cy="596" r="10" class="c0"/>
<circle cx="1036" cy="820" r="10" class="c0"/>
<circle cx="1330" cy="822" r="10" class="c0"/>
<circle cx="1276" cy="1006" r="10" class="c0"/>
<circle cx="1082" cy="538" r="10" class="c0"/>
<circle cx="1216" cy="838" r="10" class="c0"/>
<circle cx="1120" cy="750" r="10" class="c0"/>
<circle cx="1224" cy="732" r="10" class="c0"/>
<circle cx="868" cy="878" r="10" class="c0"/>
<circle cx="1294" cy="992" r="10" class="c0"/>
<circle cx="1044" cy="868" r="10" class="c0"/>
<circle cx="1056" cy="528" r="10" class="c0"/>
<circle cx="1028" cy="692" r="10" class="c0"/>
<circle cx="1070" cy="888" r="10" class="c0"/>
<circle cx="1314" cy="690" r="10" class="c0"/>
<circle cx="964" cy="1008" r="10" class="c0"/>
<circle cx="1254" cy="632" r="10" class="c0"/>
<circle cx="1242" cy="1040" r="10" class="c0"/>
<circle cx="848" cy="812" r="10" class="c0"/>
<circle cx="1198" cy="1010" r="10" class="c0"/>
<circle cx="960" cy="612" r="10" class="c0"/>
<circle cx="1270" cy="536" r="10" class="c0"/>
<circle cx="910" cy="934" r="10" class="c0"/>
<circle cx="942" cy="670" r="10" class="c0"/>
<circle cx="962" cy="822" r="10" class="c0"/>
<circle cx="1316" cy="664" r="10" class="c0"/>
<circle cx="1050" cy="840" r="10" class="c0"/>
<circle cx="1382" cy="744" r="10" class="c0"/>
<circle cx="914" cy="794" r="10" class="c0"/>
<circle cx="1242" cy="828" r="10" class="c0"/>
<circle cx="960" cy="726" r="10" class="c0"/>
<circle cx="1226" cy="956" r="10" class="c0"/>
<circle cx="1304" cy="572" r="10" class="c0"/>
<circle cx="980" cy="952" r="10" class="c0"/>
<circle cx="1386" cy="782" r="10" class="c0"/>
<circle cx="1252" cy="960" r="10" class="c0"/>
<circle cx="1008" cy="1006" r="10" class="c0"/>
<circle cx="1248" cy="676" r="10" class="c0"/>
<circle cx="914" cy="864" r="10" class="c0"/>
<circle cx="1350" cy="812" r="10" class="c0"/>
<circle cx="1298" cy="634" r="10" class="c0"/>
<circle cx="1070" cy="754" r="10" class="c0"/>
<circle cx="1006" cy="806" r="10" class="c0"/>
<circle cx="1000" cy="960" r="10" class="c0"/>
<circle cx="1002" cy="776" r="10" class="c0"/>
<circle cx="1018" cy="930" r="10" class="c0"/>
<circle cx="872" cy="810" r="8" class="c0"/>
<circle cx="1212" cy="716" r="8" class="c0"/>
<circle cx="1072" cy="586" r="8" class="c0"/>
<circle cx="1164" cy="636" r="8" class="c0"/>
<circle cx="1042" cy="948" r="8" class="c0"/>
<circle cx="990" cy="536" r="8" class="c0"/>
<circle cx="1248" cy="702" r="8" class="c0"/>
<circle cx="1070" cy="1026" r="8" class="c0"/>
<circle cx="1170" cy="744" r="8" class="c0"/>
<circle cx="1092" cy="740" r="8" class="c0"/>
<circle cx="1128" cy="1054" r="8" class="c0"/>
<circle cx="864" cy="906" r="8" class="c0"/>
<circle cx="1046" cy="578" r="8" class="c0"/>
<circle cx="988" cy="828" r="8" class="c0"/>
<circle cx="874" cy="700" r="8" class="c0"/>
<circle cx="996" cy="644" r="8" class="c0"/>
<circle cx="1394" cy="820" r="8" class="c0"/>
<circle cx="1012" cy="1044" r="8" class="c0"/>
<circle cx="1224" cy="980" r="8" class="c0"/>
<circle cx="1316" cy="858" r="8" class="c0"/>
<circle cx="908" cy="756" r="8" class="c0"/>
<circle cx="1368" cy="822" r="8" class="c0"/>
<circle cx="1208" cy="560" r="8" class="c0"/>
<circle cx="1088" cy="932" r="8" class="c0"/>
<circle cx="1176" cy="676" r="8" class="c0"/>
<circle cx="1018" cy="868" r="8" class="c0"/>
<circle cx="880" cy="922" r="8" class="c0"/>
<circle cx="948" cy="742" r="8" class="c0"/>
<circle cx="890" cy="798" r="8" class="c0"/>
<circle cx="1310" cy="976" r="8" class="c0"/>
<circle cx="1132" cy="914" r="8" class="c0"/>
<circle cx="1064" cy="856" r="8" class="c0"/>
<circle cx="1192" cy="748" r="8" class="c0"/>
<circle cx="1314" cy="762" r="8" class="c0"/>
<circle cx="1240" cy="852" r="8" class="c0"/>
<circle cx="986" cy="592" r="8" class="c0"/>
<circle cx="956" cy="688" r="8" class="c0"/>
<circle cx="1212" cy="864" r="8" class="c0"/>
<circle cx="1166" cy="1050" r="8" class="c0"/>
<circle cx="1260" cy="838" r="8" class="c0"/>
<circle cx="1222" cy="808" r="8" class="c0"/>
<circle cx="1094" cy="696" r="8" class="c0"/>
<circle cx="1062" cy="702" r="8" class="c0"/>
<circle cx="1096" cy="520" r="8" class="c0"/>
<circle cx="994" cy="554" r="8" class="c0"/>
<circle cx="992" cy="614" r="8" class="c0"/>
<circle cx="1238" cy="876" r="8" class="c0"/>
<circle cx="1160" cy="950" r="8" class="c0"/>
<circle cx="974" cy="976" r="8" class="c0"/>
<circle cx="1268" cy="600" r="8" class="c0"/>
<circle cx="928" cy="588" r="8" class="c0"/>
<circle cx="1216" cy="620" r="8" class="c0"/>
<circle cx="1080" cy="1014" r="8" class="c0"/>
<circle cx="1072" cy="960" r="8" class="c0"/>
<circle cx="1082" cy="668" r="8" class="c0"/>
<circle cx="1142" cy="740" r="8" class="c0"/>
<circle cx="1102" cy="546" r="8" class="c0"/>
<circle cx="1356" cy="864" r="8" class="c0"/>
<circle cx="1282" cy="974" r="8" class="c0"/>
<circle cx="952" cy="708" r="8" class="c0"/>
<circle cx="1020" cy="638" r="8" class="c0"/>
<circle cx="1292" cy="816" r="8" class="c0"/>
<circle cx="980" cy="1034" r="8" class="c0"/>
<circle cx="1036" cy="604" r="8" class="c0"/>
<circle cx="1176" cy="778" r="8" class="c0"/>
<circle cx="1154" cy="968" r="8" class="c0"/>
<circle cx="1008" cy="828" r="8" class="c0"/>
<circle cx="1280" cy="766" r="8" class="c0"/>
<circle cx="1104" cy="726" r="8" class="c0"/>
<circle cx="1252" cy="588" r="8" class="c0"/>
<circle cx="1026" cy="896" r="8" class="c0"/>
<circle cx="1212" cy="1040" r="8" class="c0"/>
<circle cx="1242" cy="654" r="8" class="c0"/>
<circle cx="1162" cy="664" r="8" class="c0"/>
<circle cx="932" cy="622" r="8" class="c0"/>
<circle cx="882" cy="666" r="8" class="c0"/>
<circle cx="1090" cy="804" r="8" class="c0"/>
<circle cx="1140" cy="958" r="8" class="c0"/>
<circle cx="1184" cy="528" r="8" class="c0"/>
<circle cx="988" cy="756" r="8" class="c0"/>
<circle cx="1056" cy="900" r="8" class="c0"/>
<circle cx="1194" cy="888" r="8" class="c0"/>
<circle cx="1142" cy="924" r="8" class="c0"/>
<circle cx="1282" cy="614" r="8" class="c0"/>
<circle cx="932" cy="686" r="8" class="c0"/>
<circle cx="1218" cy="570" r="8" class="c0"/>
<circle cx="1024" cy="534" r="8" class="c0"/>
<circle cx="1166" cy="1028" r="8" class="c0"/>
<circle cx="1010" cy="626" r="8" class="c0"/>
<circle cx="1300" cy="718" r="8" class="c0"/>
<circle cx="1362" cy="782" r="8" class="c0"/>
<circle cx="852" cy="842" r="8" class="c0"/>
<circle cx="900" cy="662" r="8" class="c0"/>
<circle cx="1038" cy="630" r="8" class="c0"/>
<circle cx="1068" cy="566" r="8" class="c0"/>
<circle cx="1040" cy="788" r="8" class="c0"/>
<circle cx="1180" cy="550" r="8" class="c0"/>
<circle cx="1288" cy="692" r="8" class="c0"/>
<circle cx="936" cy="566" r="8" class="c0"/>
<circle cx="1184" cy="850" r="8" class="c0"/>
<circle cx="1016" cy="844" r="8" class="c0"/>
<circle cx="1002" cy="906" r="8" class="c0"/>
<circle cx="1300" cy="922" r="8" class="c0"/>
<circle cx="1204" cy="978" r="8" class="c0"/>
<circle cx="1020" cy="954" r="8" class="c0"/>
<circle cx="888" cy="824" r="8" class="c0"/>
<circle cx="1202" cy="934" r="8" class="c0"/>
<circle cx="1146" cy="876" r="8" class="c0"/>
<circle cx="994" cy="666" r="8" class="c0"/>
<circle cx="938" cy="810" r="8" class="c0"/>
<circle cx="1252" cy="992" r="8" class="c0"/>
<circle cx="876" cy="842" r="8" class="c0"/>
<circle cx="1368" cy="682" r="8" class="c0"/>
<circle cx="1020" cy="984" r="8" class="c0"/>
<circle cx="980" cy="700" r="8" class="c0"/>
<circle cx="1364" cy="880" r="8" class="c0"/>
<circle cx="1014" cy="750" r="8" class="c0"/>
<circle cx="1272" cy="796" r="8" class="c0"/>
<circle cx="978" cy="642" r="8" class="c0"/>
<circle cx="1024" cy="594" r="8" class="c0"/>
<circle cx="956" cy="760" r="8" class="c0"/>
<circle cx="932" cy="880" r="8" class="c0"/>
<circle cx="1000" cy="938" r="8" class="c0"/>
<circle cx="1220" cy="926" r="8" class="c0"/>
<circle cx="956" cy="640" r="8" class="c0"/>
<circle cx="862" cy="762" r="8" class="c0"/>
<circle cx="930" cy="974" r="8" class="c0"/>
<circle cx="1354" cy="738" r="8" class="c0"/>
<circle cx="888" cy="648" r="8" class="c0"/>
<circle cx="1152" cy="830" r="8" class="c0"/>
<circle cx="1186" cy="592" r="8" class="c0"/>
<circle cx="1002" cy="884" r="8" class="c0"/>
<circle cx="1144" cy="644" r="8" class="c0"/>
<circle cx="1096" cy="654" r="8" class="c0"/>
<circle cx="1012" cy="658" r="8" class="c0"/>
<circle cx="1228" cy="706" r="8" class="c0"/>
<circle cx="1262" cy="892" r="8" class="c0"/>
<circle cx="980" cy="624" r="8" class="c0"/>
<circle cx="1370" cy="710" r="8" class="c0"/>
<circle cx="1204" cy="584" r="8" class="c0"/>
<circle cx="970" cy="744" r="8" class="c0"/>
<circle cx="982" cy="884" r="8" class="c0"/>
<circle cx="1188" cy="958" r="8" class="c0"/>
<circle cx="1148" cy="1048" r="8" class="c0"/>
<circle cx="1324" cy="874" r="8" class="c0"/>
<circle cx="1196" cy="798" r="8" class="c0"/>
<circle cx="1192" cy="910" r="8" class="c0"/>
<circle cx="1030" cy="670" r="8" class="c0"/>
<circle cx="968" cy="544" r="8" class="c0"/>
<circle cx="922" cy="608" r="8" class="c0"/>
<circle cx="1100" cy="1014" r="8" class="c0"/>
<circle cx="1294" cy="796" r="8" class="c0"/>
<circle cx="1118" cy="824" r="8" class="c0"/>
<circle cx="1106" cy="572" r="8" class="c0"/>
<circle cx="1262" cy="756" r="8" class="c0"/>
<circle cx="896" cy="946" r="8" class="c0"/>
<circle cx="1082" cy="860" r="8" class="c0"/>
<circle cx="896" cy="624" r="8" class="c0"/>
<circle cx="934" cy="732" r="8" class="c0"/>
<circle cx="848" cy="782" r="8" class="c0"/>
<circle cx="1110" cy="1050" r="8" class="c0"/>
<circle cx="1190" cy="730" r="8" class="c0"/>
<circle cx="1338" cy="932" r="8" class="c0"/>
<circle cx="1282" cy="936" r="8" class="c0"/>
<circle cx="1242" cy="1002" r="8" class="c0"/>
<circle cx="1346" cy="878" r="8" class="c0"/>
<circle cx="1058" cy="1036" r="8" class="c0"/>
<circle cx="1158" cy="688" r="8" class="c0"/>
<circle cx="1060" cy="936" r="8" class="c0"/>
<circle cx="862" cy="824" r="8" class="c0"/>
<circle cx="966" cy="938" r="8" class="c0"/>
<circle cx="1074" cy="516" r="8" class="c0"/>
<circle cx="884" cy="892" r="8" class="c0"/>
<circle cx="1090" cy="878" r="8" class="c0"/>
<circle cx="1252" cy="866" r="8" class="c0"/>
<circle cx="1134" cy="982" r="8" class="c0"/>
<circle cx="854" cy="860" r="8" class="c0"/>
<circle cx="1334" cy="612" r="8" class="c0"/>
<circle cx="938" cy="790" r="8" class="c0"/>
<circle cx="1098" cy="944" r="8" class="c0"/>
<circle cx="1184" cy="808" r="8" class="c0"/>
<circle cx="1272" cy="874" r="8" class="c0"/>
<circle cx="918" cy="910" r="8" class="c0"/>
<circle cx="1334" cy="656" r="8" class="c0"/>
<circle cx="1004" cy="588" r="8" class="c0"/>
<circle cx="968" cy="676" r="8" class="c0"/>
<circle cx="1058" cy="802" r="8" class="c0"/>
<circle cx="1088" cy="902" r="8" class="c0"/>
<circle cx="1298" cy="748" r="8" class="c0"/>
<circle cx="968" cy="800" r="8" class="c0"/>
<circle cx="1210" cy="1022" r="8" class="c0"/>
<circle cx="1066" cy="910" r="8" class="c0"/>
<circle cx="1064" cy="990" r="8" class="c0"/>
<circle cx="1220" cy="520" r="8" class="c0"/>
<circle cx="1116" cy="958" r="8" class="c0"/>
<circle cx="1062" cy="644" r="8" class="c0"/>
<circle cx="1026" cy="574" r="8" class="c0"/>
<circle cx="1380" cy="808" r="8" class="c0"/>
<circle cx="1280" cy="722" r="8" class="c0"/>
<circle cx="1194" cy="770" r="8" class="c0"/>
<circle cx="1168" cy="868" r="8" class="c0"/>
<circle cx="1132" cy="862" r="8" class="c0"/>
<circle cx="1108" cy="764" r="8" class="c0"/>
<circle cx="1346" cy="950" r="8" class="c0"/>
<circle cx="1174" cy="796" r="8" class="c0"/>
<circle cx="1088" cy="998" r="8" class="c0"/>
<circle cx="914" cy="706" r="8" class="c0"/>
<circle cx="958" cy="554" r="8" class="c0"/>
<circle cx="928" cy="948" r="8" class="c0"/>
<circle cx="1332" cy="674" r="8" class="c0"/>
<circle cx="990" cy="1016" r="8" class="c0"/>
<circle cx="1270" cy="948" r="8" class="c0"/>
<circle cx="1248" cy="904" r="8" class="c0"/>
<circle cx="1232" cy="1014" r="8" class="c0"/>
<circle cx="940" cy="600" r="8" class="c0"/>
<circle cx="1320" cy="800" r="8" class="c0"/>
<circle cx="1334" cy="966" r="8" class="c0"/>
<circle cx="1128" cy="628" r="8" class="c0"/>
<circle cx="1120" cy="1028" r="8" class="c0"/>
<circle cx="934" cy="1012" r="8" class="c0"/>
<circle cx="1072" cy="836" r="8" class="c0"/>
<circle cx="960" cy="778" r="8" class="c0"/>
<circle cx="1034" cy="524" r="8" class="c0"/>
<circle cx="1274" cy="580" r="8" class="c0"/>
<circle cx="1172" cy="826" r="8" class="c0"/>
<circle cx="1310" cy="810" r="8" class="c0"/>
<circle cx="1218" cy="1004" r="8" class="c0"/>
<circle cx="1278" cy="636" r="8" class="c0"/>
<circle cx="1054" cy="718" r="8" class="c0"/>
<circle cx="1046" cy="652" r="8" class="c0"/>
<circle cx="1198" cy="1054" r="8" class="c0"/>
<circle cx="1088" cy="612" r="8" class="c0"/>
<circle cx="1162" cy="600" r="8" class="c0"/>
<circle cx="1140" cy="844" r="8" class="c0"/>
<circle cx="1224" cy="664" r="8" class="c0"/>
<circle cx="1098" cy="824" r="8" class="c0"/>
<circle cx="1072" cy="654" r="8" class="c0"/>
<circle cx="1042" cy="888" r="8" class="c0"/>
<circle cx="1278" cy="830" r="8" class="c0"/>
<circle cx="1192" cy="710" r="8" class="c0"/>
<circle cx="1122" cy="774" r="8" class="c0"/>
<circle cx="1120" cy="842" r="8" class="c0"/>
<circle cx="920" cy="744" r="8" class="c0"/>
<circle cx="954" cy="1024" r="8" class="c0"/>
<circle cx="1336" cy="856" r="8" class="c0"/>
<circle cx="1074" cy="684" r="8" class="c0"/>
<circle cx="894" cy="902" r="8" class="c0"/>
<circle cx="1130" cy="936" r="6" class="c0"/>
<circle cx="964" cy="886" r="6" class="c0"/>
<circle cx="852" cy="742" r="6" class="c0"/>
<circle cx="1172" cy="652" r="6" class="c0"/>
<circle cx="950" cy="874" r="6" class="c0"/>
<circle cx="1244" cy="804" r="6" class="c0"/>
<circle cx="1264" cy="972" r="6" class="c0"/>
<circle cx="966" cy="660" r="6" class="c0"/>
<circle cx="1308" cy="618" r="6" class="c0"/>
<circle cx="1350" cy="722" r="6" class="c0"/>
<circle cx="864" cy="924" r="6" class="c0"/>
<circle cx="896" cy="704" r="6" class="c0"/>
<circle cx="1124" cy="520" r="6" class="c0"/>
<circle cx="952" cy="656" r="6" class="c0"/>
<circle cx="1010" cy="606" r="6" class="c0"/>
<circle cx="970" cy="844" r="6" class="c0"/>
<circle cx="1016" cy="706" r="6" class="c0"/>
<circle cx="1050" cy="982" r="6" class="c0"/>
<circle cx="864" cy="778" r="6" class="c0"/>
<circle cx="956" cy="974" r="6" class="c0"/>
<circle cx="940" cy="964" r="6" class="c0"/>
<circle cx="1326" cy="846" r="6" class="c0"/>
<circle cx="1240" cy="718" r="6" class="c0"/>
<circle cx="982" cy="926" r="6" class="c0"/>
<circle cx="938" cy="914" r="6" class="c0"/>
<circle cx="872" cy="936" r="6" class="c0"/>
<circle cx="1246" cy="750" r="6" class="c0"/>
<circle cx="1316" cy="906" r="6" class="c0"/>
<circle cx="1060" cy="546" r="6" class="c0"/>
<circle cx="1170" cy="618" r="6" class="c0"/>
<circle cx="1200" cy="600" r="6" class="c0"/>
<circle cx="1284" cy="590" r="6" class="c0"/>
<circle cx="1138" cy="556" r="6" class="c0"/>
<circle cx="1202" cy="662" r="6" class="c0"/>
<circle cx="1190" cy="560" r="6" class="c0"/>
<circle cx="1366" cy="726" r="6" class="c0"/>
<circle cx="966" cy="588" r="6" class="c0"/>
<circle cx="1322" cy="930" r="6" class="c0"/>
<circle cx="1044" cy="702" r="6" class="c0"/>
<circle cx="884" cy="960" r="6" class="c0"/>
<circle cx="1102" cy="710" r="6" class="c0"/>
<circle cx="1138" cy="696" r="6" class="c0"/>
<circle cx="1056" cy="822" r="6" class="c0"/>
<circle cx="1002" cy="862" r="6" class="c0"/>
<circle cx="1230" cy="636" r="6" class="c0"/>
<circle cx="1314" cy="742" r="6" class="c0"/>
<circle cx="1156" cy="1008" r="6" class="c0"/>
<circle cx="954" cy="952" r="6" class="c0"/>
<circle cx="972" cy="766" r="6" class="c0"/>
<circle cx="1004" cy="1030" r="6" class="c0"/>
<circle cx="1144" cy="900" r="6" class="c0"/>
<circle cx="1268" cy="988" r="6" class="c0"/>
<circle cx="994" cy="870" r="6" class="c0"/>
<circle cx="1180" cy="878" r="6" class="c0"/>
<circle cx="1234" cy="554" r="6" class="c0"/>
<circle cx="1084" cy="570" r="6" class="c0"/>
<circle cx="900" cy="774" r="6" class="c0"/>
<circle cx="1148" cy="546" r="6" class="c0"/>
<circle cx="920" cy="826" r="6" class="c0"/>
<circle cx="1178" cy="762" r="6" class="c0"/>
<circle cx="1162" cy="912" r="6" class="c0"/>
<circle cx="1296" cy="966" r="6" class="c0"/>
<circle cx="940" cy="758" r="6" class="c0"/>
<circle cx="1356" cy="936" r="6" class="c0"/>
<circle cx="1270" cy="814" r="6" class="c0"/>
<circle cx="1108" cy="934" r="6" class="c0"/>
<circle cx="906" cy="810" r="6" class="c0"/>
<circle cx="1074" cy="944" r="6" class="c0"/>
<circle cx="1146" cy="940" r="6" class="c0"/>
<circle cx="1352" cy="642" r="6" class="c0"/>
<circle cx="880" cy="784" r="6" class="c0"/>
<circle cx="884" cy="712" r="6" class="c0"/>
<circle cx="930" cy="992" r="6" class="c0"/>
<circle cx="1294" cy="946" r="6" class="c0"/>
<circle cx="1120" cy="728" r="6" class="c0"/>
<circle cx="952" cy="916" r="6" class="c0"/>
<circle cx="1238" cy="576" r="6" class="c0"/>
<circle cx="992" cy="916" r="6" class="c0"/>
<circle cx="1174" cy="1012" r="6" class="c0"/>
<circle cx="972" cy="600" r="6" class="c0"/>
<circle cx="866" cy="794" r="6" class="c0"/>
<circle cx="1026" cy="618" r="6" class="c0"/>
<circle cx="1326" cy="774" r="6" class="c0"/>
<circle cx="1234" cy="790" r="6" class="c0"/>
<circle cx="1334" cy="888" r="6" class="c0"/>
<circle cx="1388" cy="864" r="6" class="c0"/>
<circle cx="1032" cy="912" r="6" class="c0"/>
<circle cx="890" cy="692" r="6" class="c0"/>
<circle cx="1046" cy="514" r="6" class="c0"/>
<circle cx="1004" cy="980" r="6" class="c0"/>
<circle cx="1204" cy="758" r="6" class="c0"/>
<circle cx="1350" cy="686" r="6" class="c0"/>
<circle cx="856" cy="720" r="6" class="c0"/>
<circle cx="872" cy="858" r="6" class="c0"/>
<circle cx="1198" cy="520" r="6" class="c0"/>
<circle cx="1258" cy="716" r="6" class="c0"/>
<circle cx="994" cy="688" r="6" class="c0"/>
<circle cx="1310" cy="708" r="6" class="c0"/>
<circle cx="1138" cy="612" r="6" class="c0"/>
<circle cx="984" cy="724" r="6" class="c0"/>
<circle cx="1276" cy="1026" r="6" class="c0"/>
<circle cx="1028" cy="652" r="6" class="c0"/>
<circle cx="1204" cy="850" r="6" class="c0"/>
<circle cx="1056" cy="956" r="6" class="c0"/>
<circle cx="1264" cy="854" r="6" class="c0"/>
<circle cx="1032" cy="854" r="6" class="c0"/>
<circle cx="1026" cy="1010" r="6" class="c0"/>
<circle cx="1268" cy="778" r="6" class="c0"/>
<circle cx="854" cy="892" r="6" class="c0"/>
<circle cx="1262" cy="822" r="6" class="c0"/>
<circle cx="1072" cy="794" r="6" class="c0"/>
<circle cx="1092" cy="556" r="6" class="c0"/>
<circle cx="924" cy="718" r="6" class="c0"/>
<circle cx="1284" cy="782" r="6" class="c0"/>
<circle cx="1140" cy="526" r="6" class="c0"/>
<circle cx="1106" cy="784" r="6" class="c0"/>
<circle cx="1088" cy="760" r="6" class="c0"/>
<circle cx="1232" cy="916" r="6" class="c0"/>
<circle cx="1030" cy="878" r="6" class="c0"/>
<circle cx="1224" cy="1030" r="6" class="c0"/>
<circle cx="1060" cy="1010" r="6" class="c0"/>
<circle cx="1322" cy="988" r="6" class="c0"/>
<circle cx="1128" cy="566" r="6" class="c0"/>
<circle cx="1234" cy="940" r="6" class="c0"/>
<circle cx="1162" cy="814" r="6" class="c0"/>
<circle cx="914" cy="992" r="6" class="c0"/>
<circle cx="1354" cy="846" r="6" class="c0"/>
<circle cx="898" cy="918" r="6" class="c0"/>
<circle cx="1094" cy="960" r="6" class="c0"/>
<circle cx="1240" cy="978" r="6" class="c0"/>
<circle cx="1158" cy="734" r="6" class="c0"/>
<circle cx="1038" cy="1046" r="6" class="c0"/>
<circle cx="976" cy="716" r="6" class="c0"/>
<circle cx="1206" cy="918" r="6" class="c0"/>
<circle cx="1358" cy="896" r="6" class="c0"/>
<circle cx="1206" cy="812" r="6" class="c0"/>
<circle cx="1364" cy="798" r="6" class="c0"/>
<circle cx="1216" cy="748" r="6" class="c0"/>
<circle cx="1040" cy="904" r="6" class="c0"/>
<circle cx="1210" cy="884" r="6" class="c0"/>
<circle cx="1008" cy="530" r="6" class="c0"/>
<circle cx="1052" cy="596" r="6" class="c0"/>
<circle cx="1254" cy="812" r="6" class="c0"/>
<circle cx="1346" cy="774" r="6" class="c0"/>
<circle cx="1106" cy="530" r="6" class="c0"/>
<circle cx="1016" cy="550" r="6" class="c0"/>
<circle cx="1016" cy="1024" r="6" class="c0"/>
<circle cx="946" cy="630" r="6" class="c0"/>
<circle cx="908" cy="598" r="6" class="c0"/>
<circle cx="1256" cy="546" r="6" class="c0"/>
<circle cx="1192" cy="670" r="6" class="c0"/>
<circle cx="1156" cy="554" r="6" class="c0"/>
<circle cx="918" cy="578" r="6" class="c0"/>
<circle cx="930" cy="702" r="6" class="c0"/>
<circle cx="1286" cy="958" r="6" class="c0"/>
<circle cx="1314" cy="884" r="6" class="c0"/>
<circle cx="992" cy="894" r="6" class="c0"/>
<circle cx="1208" cy="962" r="6" class="c0"/>
<circle cx="908" cy="956" r="6" class="c0"/>
<circle cx="1264" cy="618" r="6" class="c0"/>
<circle cx="950" cy="800" r="6" class="c0"/>
<circle cx="994" cy="1042" r="6" class="c0"/>
<circle cx="938" cy="652" r="6" class="c0"/>
<circle cx="1388" cy="836" r="6" class="c0"/>
<circle cx="1228" cy="542" r="6" class="c0"/>
<circle cx="1102" cy="1030" r="6" class="c0"/>
<circle cx="1358" cy="698" r="6" class="c0"/>
<circle cx="1324" cy="586" r="6" class="c0"/>
<circle cx="1176" cy="902" r="6" class="c0"/>
<circle cx="1188" cy="870" r="6" class="c0"/>
<circle cx="1390" cy="760" r="6" class="c0"/>
<circle cx="1382" cy="876" r="6" class="c0"/>
<circle cx="962" cy="962" r="6" class="c0"/>
<circle cx="1396" cy="852" r="6" class="c0"/>
<circle cx="1288" cy="648" r="6" class="c0"/>
<circle cx="1068" cy="1048" r="6" class="c0"/>
<circle cx="1196" cy="860" r="6" class="c0"/>
<circle cx="1230" cy="862" r="6" class="c0"/>
<circle cx="1178" cy="948" r="6" class="c0"/>
<circle cx="892" cy="846" r="6" class="c0"/>
<circle cx="1178" cy="696" r="6" class="c0"/>
<circle cx="1150" cy="702" r="6" class="c0"/>
<circle cx="1046" cy="542" r="6" class="c0"/>
<circle cx="1058" cy="974" r="6" class="c0"/>
<circle cx="1212" cy="946" r="6" class="c0"/>
<circle cx="978" cy="810" r="6" class="c0"/>
<circle cx="1344" cy="630" r="6" class="c0"/>
<circle cx="1374" cy="866" r="6" class="c0"/>
<circle cx="1110" cy="698" r="6" class="c0"/>
<circle cx="1310" cy="1000" r="6" class="c0"/>
<circle cx="1170" cy="970" r="6" class="c0"/>
<circle cx="1206" cy="994" r="6" class="c0"/>
<circle cx="1164" cy="998" r="6" class="c0"/>
<circle cx="880" cy="684" r="6" class="c0"/>
<circle cx="920" cy="964" r="6" class="c0"/>
<circle cx="1284" cy="920" r="6" class="c0"/>
<circle cx="1178" cy="628" r="6" class="c0"/>
<circle cx="1278" cy="682" r="6" class="c0"/>
<circle cx="900" cy="854" r="6" class="c0"/>
<circle cx="870" cy="676" r="6" class="c0"/>
<circle cx="898" cy="746" r="6" class="c0"/>
<circle cx="1032" cy="838" r="6" class="c0"/>
<circle cx="1380" cy="724" r="6" class="c0"/>
<circle cx="990" cy="574" r="6" class="c0"/>
<circle cx="1124" cy="1072" r="6" class="c0"/>
<circle cx="1102" cy="894" r="6" class="c0"/>
<circle cx="1132" cy="1010" r="6" class="c0"/>
<circle cx="1206" cy="738" r="6" class="c0"/>
<circle cx="1132" cy="1038" r="6" class="c0"/>
<circle cx="1116" cy="510" r="6" class="c0"/>
<circle cx="1254" cy="794" r="6" class="c0"/>
<circle cx="928" cy="924" r="6" class="c0"/>
<circle cx="980" cy="658" r="6" class="c0"/>
<circle cx="1008" cy="698" r="6" class="c0"/>
<circle cx="942" cy="718" r="6" class="c0"/>
<circle cx="1290" cy="732" r="6" class="c0"/>
<circle cx="1394" cy="800" r="6" class="c0"/>
<circle cx="1096" cy="678" r="6" class="c0"/>
<circle cx="924" cy="666" r="6" class="c0"/>
<circle cx="1018" cy="910" r="6" class="c0"/>
<circle cx="1134" cy="788" r="6" class="c0"/>
<circle cx="1160" cy="984" r="6" class="c0"/>
<circle cx="1280" cy="888" r="6" class="c0"/>
<circle cx="912" cy="626" r="6" class="c0"/>
<circle cx="1196" cy="630" r="6" class="c0"/>
<circle cx="1148" cy="860" r="6" class="c0"/>
<circle cx="1070" cy="926" r="6" class="c0"/>
<circle cx="848" cy="878" r="6" class="c0"/>
<circle cx="1080" cy="918" r="6" class="c0"/>
<circle cx="932" cy="862" r="6" class="c0"/>
<circle cx="1272" cy="964" r="6" class="c0"/>
</svg>
