<?xml version="1.0" encoding="utf-8"?>
<svg xmlns="http://www.w3.org/2000/svg"
     xmlns:xlink="http://www.w3.org/1999/xlink" width="1920" height="1440" >

            <defs>
            <style type="text/css"><![CDATA[
circle {stroke: none;}
.c0 {fill: #FFFFFF;}
]]></style>
            </defs>
<rect x="0" y="0" width="1920" height="1440" fill="black"/>
<circle cx="1174" cy="576" r="14" class="c0"/>
<circle cx="1050" cy="540" r="12" class="c0"/>
<circle cx="1022" cy="96" r="12" class="c0"/>
<circle cx="930" cy="1160" r="12" class="c0"/>
<circle cx="940" cy="180" r="12" class="c0"/>
<circle cx="902" cy="994" r="12" class="c0"/>
<circle cx="942" cy="300" r="12" class="c0"/>
<circle cx="898" cy="810" r="12" class="c0"/>
<circle cx="976" cy="734" r="12" class="c0"/>
<circle cx="930" cy="642" r="12" class="c0"/>
<circle cx="852" cy="16" r="12" class="c0"/>
<circle cx="1050" cy="42" r="12" class="c0"/>
<circle cx="802" cy="724" r="12" class="c0"/>
<circle cx="910" cy="1200" r="12" class="c0"/>
<circle cx="982" cy="130" r="12" class="c0"/>
<circle cx="1172" cy="606" r="12" class="c0"/>
<circle cx="960" cy="70" r="12" class="c0"/>
<circle cx="954" cy="560" r="12" class="c0"/>
<circle cx="978" cy="800" r="12" class="c0"/>
<circle cx="910" cy="910" r="12" class="c0"/>
<circle cx="776" cy="1178" r="12" class="c0"/>
<circle cx="936" cy="92" r="12" class="c0"/>
<circle cx="864" cy="876" r="12" class="c0"/>
<circle cx="962" cy="778" r="12" class="c0"/>
<circle cx="864" cy="206" r="12" class="c0"/>
<circle cx="820" cy="624" r="12" class="c0"/>
<circle cx="1068" cy="640" r="12" class="c0"/>
<circle cx="828" cy="896" r="12" class="c0"/>
<circle cx="856" cy="1200" r="12" class="c0"/>
<circle cx="1048" cy="150" r="12" class="c0"/>
<circle cx="994" cy="474" r="12" class="c0"/>
<circle cx="914" cy="796" r="12" class="c0"/>
<circle cx="1036" cy="1156" r="12" class="c0"/>
<circle cx="1012" cy="866" r="12" class="c0"/>
<circle cx="908" cy="268" r="12" class="c0"/>
<circle cx="974" cy="1272" r="12" class="c0"/>
<circle cx="988" cy="598" r="12" class="c0"/>
<circle cx="916" cy="608" r="12" class="c0"/>
<circle cx="862" cy="110" r="12" class="c0"/>
<circle cx="988" cy="1178" r="12" class="c0"/>
<circle cx="810" cy="1138" r="12" class="c0"/>
<circle cx="894" cy="620" r="12" class="c0"/>
<circle cx="982" cy="1070" r="12" class="c0"/>
<circle cx="846" cy="1062" r="12" class="c0"/>
<circle cx="852" cy="166" r="12" class="c0"/>
<circle cx="842" cy="666" r="12" class="c0"/>
<circle cx="1008" cy="530" r="12" class="c0"/>
<circle cx="1018" cy="668" r="12" class="c0"/>
<circle cx="1046" cy="1186" r="12" class="c0"/>
<circle cx="1138" cy="570" r="12" class="c0"/>
<circle cx="868" cy="574" r="12" class="c0"/>
<circle cx="926" cy="1028" r="12" class="c0"/>
<circle cx="918" cy="1304" r="12" class="c0"/>
<circle cx="972" cy="952" r="12" class="c0"/>
<circle cx="980" cy="164" r="12" class="c0"/>
<circle cx="1074" cy="110" r="12" class="c0"/>
<circle cx="746" cy="690" r="12" class="c0"/>
<circle cx="894" cy="528" r="12" class="c0"/>
<circle cx="1084" cy="584" r="12" class="c0"/>
<circle cx="872" cy="1144" r="12" class="c0"/>
<circle cx="856" cy="140" r="10" class="c0"/>
<circle cx="952" cy="604" r="10" class="c0"/>
<circle cx="876" cy="776" r="10" class="c0"/>
<circle cx="1124" cy="590" r="10" class="c0"/>
<circle cx="800" cy="1220" r="10" class="c0"/>
<circle cx="938" cy="512" r="10" class="c0"/>
<circle cx="886" cy="686" r="10" class="c0"/>
<circle cx="956" cy="850" r="10" class="c0"/>
<circle cx="912" cy="1240" r="10" class="c0"/>
<circle cx="1012" cy="138" r="10" class="c0"/>
<circle cx="1050" cy="574" r="10" class="c0"/>
<circle cx="1024" cy="44" r="10" class="c0"/>
<circle cx="1024" cy="642" r="10" class="c0"/>
<circle cx="1062" cy="560" r="10" class="c0"/>
<circle cx="858" cy="86" r="10" class="c0"/>
<circle cx="980" cy="88" r="10" class="c0"/>
<circle cx="1034" cy="600" r="10" class="c0"/>
<circle cx="980" cy="882" r="10" class="c0"/>
<circle cx="1156" cy="558" r="10" class="c0"/>
<circle cx="874" cy="808" r="10" class="c0"/>
<circle cx="934" cy="866" r="10" class="c0"/>
<circle cx="872" cy="838" r="10" class="c0"/>
<circle cx="896" cy="220" r="10" class="c0"/>
<circle cx="1012" cy="564" r="10" class="c0"/>
<circle cx="780" cy="674" r="10" class="c0"/>
<circle cx="884" cy="190" r="10" class="c0"/>
<circle cx="958" cy="42" r="10" class="c0"/>
<circle cx="1034" cy="174" r="10" class="c0"/>
<circle cx="946" cy="1050" r="10" class="c0"/>
<circle cx="890" cy="930" r="10" class="c0"/>
<circle cx="1020" cy="1134" r="10" class="c0"/>
<circle cx="956" cy="982" r="10" class="c0"/>
<circle cx="866" cy="1240" r="10" class="c0"/>
<circle cx="1104" cy="656" r="10" class="c0"/>
<circle cx="1046" cy="108" r="10" class="c0"/>
<circle cx="810" cy="16" r="10" class="c0"/>
<circle cx="982" cy="632" r="10" class="c0"/>
<circle cx="1022" cy="1108" r="10" class="c0"/>
<circle cx="904" cy="1130" r="10" class="c0"/>
<circle cx="938" cy="578" r="10" class="c0"/>
<circle cx="930" cy="682" r="10" class="c0"/>
<circle cx="800" cy="50" r="10" class="c0"/>
<circle cx="1010" cy="1210" r="10" class="c0"/>
<circle cx="930" cy="718" r="10" class="c0"/>
<circle cx="1058" cy="608" r="10" class="c0"/>
<circle cx="940" cy="1012" r="10" class="c0"/>
<circle cx="848" cy="1102" r="10" class="c0"/>
<circle cx="932" cy="436" r="10" class="c0"/>
<circle cx="936" cy="64" r="10" class="c0"/>
<circle cx="892" cy="876" r="10" class="c0"/>
<circle cx="780" cy="1146" r="10" class="c0"/>
<circle cx="814" cy="1084" r="10" class="c0"/>
<circle cx="842" cy="42" r="10" class="c0"/>
<circle cx="1000" cy="1036" r="10" class="c0"/>
<circle cx="918" cy="740" r="10" class="c0"/>
<circle cx="1008" cy="62" r="10" class="c0"/>
<circle cx="1016" cy="702" r="10" class="c0"/>
<circle cx="876" cy="716" r="10" class="c0"/>
<circle cx="1014" cy="1178" r="10" class="c0"/>
<circle cx="976" cy="278" r="10" class="c0"/>
<circle cx="932" cy="24" r="10" class="c0"/>
<circle cx="848" cy="724" r="10" class="c0"/>
<circle cx="922" cy="1088" r="10" class="c0"/>
<circle cx="892" cy="556" r="10" class="c0"/>
<circle cx="1002" cy="1152" r="10" class="c0"/>
<circle cx="974" cy="188" r="10" class="c0"/>
<circle cx="874" cy="512" r="10" class="c0"/>
<circle cx="982" cy="1018" r="10" class="c0"/>
<circle cx="1014" cy="222" r="10" class="c0"/>
<circle cx="1140" cy="636" r="10" class="c0"/>
<circle cx="892" cy="64" r="10" class="c0"/>
<circle cx="978" cy="1308" r="10" class="c0"/>
<circle cx="1048" cy="74" r="10" class="c0"/>
<circle cx="988" cy="210" r="10" class="c0"/>
<circle cx="984" cy="558" r="10" class="c0"/>
<circle cx="866" cy="952" r="10" class="c0"/>
<circle cx="850" cy="964" r="10" class="c0"/>
<circle cx="1076" cy="86" r="10" class="c0"/>
<circle cx="1128" cy="676" r="10" class="c0"/>
<circle cx="1028" cy="688" r="10" class="c0"/>
<circle cx="1128" cy="542" r="10" class="c0"/>
<circle cx="950" cy="910" r="10" class="c0"/>
<circle cx="898" cy="1072" r="10" class="c0"/>
<circle cx="816" cy="100" r="10" class="c0"/>
<circle cx="940" cy="1202" r="10" class="c0"/>
<circle cx="988" cy="1094" r="10" class="c0"/>
<circle cx="942" cy="1112" r="10" class="c0"/>
<circle cx="858" cy="1172" r="10" class="c0"/>
<circle cx="878" cy="1052" r="10" class="c0"/>
<circle cx="980" cy="984" r="10" class="c0"/>
<circle cx="928" cy="1262" r="10" class="c0"/>
<circle cx="938" cy="536" r="10" class="c0"/>
<circle cx="986" cy="682" r="10" class="c0"/>
<circle cx="996" cy="938" r="10" class="c0"/>
<circle cx="992" cy="826" r="10" class="c0"/>
<circle cx="924" cy="462" r="10" class="c0"/>
<circle cx="898" cy="1182" r="10" class="c0"/>
<circle cx="936" cy="928" r="10" class="c0"/>
<circle cx="894" cy="752" r="10" class="c0"/>
<circle cx="914" cy="152" r="10" class="c0"/>
<circle cx="924" cy="194" r="10" class="c0"/>
<circle cx="836" cy="90" r="10" class="c0"/>
<circle cx="874" cy="152" r="10" class="c0"/>
<circle cx="1206" cy="602" r="10" class="c0"/>
<circle cx="868" cy="1000" r="10" class="c0"/>
<circle cx="1058" cy="182" r="10" class="c0"/>
<circle cx="858" cy="1124" r="10" class="c0"/>
<circle cx="1044" cy="18" r="10" class="c0"/>
<circle cx="976" cy="1114" r="10" class="c0"/>
<circle cx="882" cy="1208" r="10" class="c0"/>
<circle cx="1102" cy="598" r="10" class="c0"/>
<circle cx="950" cy="748" r="10" class="c0"/>
<circle cx="958" cy="674" r="10" class="c0"/>
<circle cx="1062" cy="680" r="10" class="c0"/>
<circle cx="1084" cy="672" r="10" class="c0"/>
<circle cx="1002" cy="996" r="10" class="c0"/>
<circle cx="978" cy="500" r="10" class="c0"/>
<circle cx="768" cy="698" r="10" class="c0"/>
<circle cx="812" cy="1178" r="10" class="c0"/>
<circle cx="1010" cy="198" r="10" class="c0"/>
<circle cx="920" cy="954" r="10" class="c0"/>
<circle cx="926" cy="552" r="10" class="c0"/>
<circle cx="1024" cy="126" r="10" class="c0"/>
<circle cx="874" cy="1088" r="10" class="c0"/>
<circle cx="960" cy="1150" r="10" class="c0"/>
<circle cx="1144" cy="602" r="10" class="c0"/>
<circle cx="906" cy="182" r="10" class="c0"/>
<circle cx="1068" cy="30" r="10" class="c0"/>
<circle cx="1070" cy="138" r="10" class="c0"/>
<circle cx="968" cy="702" r="10" class="c0"/>
<circle cx="958" cy="202" r="10" class="c0"/>
<circle cx="1086" cy="10" r="10" class="c0"/>
<circle cx="1106" cy="574" r="10" class="c0"/>
<circle cx="802" cy="604" r="10" class="c0"/>
<circle cx="952" cy="126" r="10" class="c0"/>
<circle cx="894" cy="594" r="10" class="c0"/>
<circle cx="1014" cy="490" r="10" class="c0"/>
<circle cx="1126" cy="624" r="10" class="c0"/>
<circle cx="1050" cy="658" r="10" class="c0"/>
<circle cx="1074" cy="548" r="10" class="c0"/>
<circle cx="1088" cy="128" r="10" class="c0"/>
<circle cx="976" cy="1240" r="10" class="c0"/>
<circle cx="852" cy="604" r="10" class="c0"/>
<circle cx="966" cy="518" r="8" class="c0"/>
<circle cx="890" cy="170" r="8" class="c0"/>
<circle cx="850" cy="912" r="8" class="c0"/>
<circle cx="834" cy="1114" r="8" class="c0"/>
<circle cx="870" cy="974" r="8" class="c0"/>
<circle cx="958" cy="1228" r="8" class="c0"/>
<circle cx="862" cy="652" r="8" class="c0"/>
<circle cx="908" cy="886" r="8" class="c0"/>
<circle cx="986" cy="774" r="8" class="c0"/>
<circle cx="848" cy="690" r="8" class="c0"/>
<circle cx="940" cy="770" r="8" class="c0"/>
<circle cx="1014" cy="1066" r="8" class="c0"/>
<circle cx="966" cy="1084" r="8" class="c0"/>
<circle cx="994" cy="856" r="8" class="c0"/>
<circle cx="926" cy="894" r="8" class="c0"/>
<circle cx="886" cy="484" r="8" class="c0"/>
<circle cx="936" cy="250" r="8" class="c0"/>
<circle cx="860" cy="926" r="8" class="c0"/>
<circle cx="998" cy="648" r="8" class="c0"/>
<circle cx="922" cy="234" r="8" class="c0"/>
<circle cx="994" cy="104" r="8" class="c0"/>
<circle cx="912" cy="52" r="8" class="c0"/>
<circle cx="912" cy="486" r="8" class="c0"/>
<circle cx="982" cy="40" r="8" class="c0"/>
<circle cx="836" cy="638" r="8" class="c0"/>
<circle cx="1092" cy="622" r="8" class="c0"/>
<circle cx="1040" cy="632" r="8" class="c0"/>
<circle cx="1014" cy="244" r="8" class="c0"/>
<circle cx="1000" cy="86" r="8" class="c0"/>
<circle cx="840" cy="872" r="8" class="c0"/>
<circle cx="940" cy="1224" r="8" class="c0"/>
<circle cx="950" cy="624" r="8" class="c0"/>
<circle cx="1066" cy="868" r="8" class="c0"/>
<circle cx="838" cy="924" r="8" class="c0"/>
<circle cx="906" cy="638" r="8" class="c0"/>
<circle cx="908" cy="574" r="8" class="c0"/>
<circle cx="928" cy="122" r="8" class="c0"/>
<circle cx="1010" cy="604" r="8" class="c0"/>
<circle cx="850" cy="1030" r="8" class="c0"/>
<circle cx="1094" cy="28" r="8" class="c0"/>
<circle cx="940" cy="146" r="8" class="c0"/>
<circle cx="762" cy="666" r="8" class="c0"/>
<circle cx="1024" cy="580" r="8" class="c0"/>
<circle cx="826" cy="162" r="8" class="c0"/>
<circle cx="850" cy="584" r="8" class="c0"/>
<circle cx="840" cy="1180" r="8" class="c0"/>
<circle cx="890" cy="502" r="8" class="c0"/>
<circle cx="854" cy="626" r="8" class="c0"/>
<circle cx="788" cy="710" r="8" class="c0"/>
<circle cx="1036" cy="1204" r="8" class="c0"/>
<circle cx="910" cy="720" r="8" class="c0"/>
<circle cx="1030" cy="524" r="8" class="c0"/>
<circle cx="958" cy="160" r="8" class="c0"/>
<circle cx="830" cy="126" r="8" class="c0"/>
<circle cx="790" cy="632" r="8" class="c0"/>
<circle cx="1004" cy="166" r="8" class="c0"/>
<circle cx="1034" cy="1232" r="8" class="c0"/>
<circle cx="732" cy="710" r="8" class="c0"/>
<circle cx="940" cy="1250" r="8" class="c0"/>
<circle cx="1074" cy="58" r="8" class="c0"/>
<circle cx="946" cy="1076" r="8" class="c0"/>
<circle cx="912" cy="934" r="8" class="c0"/>
<circle cx="1014" cy="18" r="8" class="c0"/>
<circle cx="888" cy="1036" r="8" class="c0"/>
<circle cx="942" cy="230" r="8" class="c0"/>
<circle cx="772" cy="718" r="8" class="c0"/>
<circle cx="996" cy="254" r="8" class="c0"/>
<circle cx="992" cy="1226" r="8" class="c0"/>
<circle cx="924" cy="1052" r="8" class="c0"/>
<circle cx="902" cy="1108" r="8" class="c0"/>
<circle cx="966" cy="1006" r="8" class="c0"/>
<circle cx="926" cy="986" r="8" class="c0"/>
<circle cx="804" cy="696" r="8" class="c0"/>
<circle cx="776" cy="646" r="8" class="c0"/>
<circle cx="828" cy="970" r="8" class="c0"/>
<circle cx="960" cy="636" r="8" class="c0"/>
<circle cx="898" cy="662" r="8" class="c0"/>
<circle cx="878" cy="46" r="8" class="c0"/>
<circle cx="922" cy="498" r="8" class="c0"/>
<circle cx="922" cy="78" r="8" class="c0"/>
<circle cx="828" cy="60" r="8" class="c0"/>
<circle cx="916" cy="110" r="8" class="c0"/>
<circle cx="982" cy="530" r="8" class="c0"/>
<circle cx="844" cy="1146" r="8" class="c0"/>
<circle cx="884" cy="850" r="8" class="c0"/>
<circle cx="750" cy="644" r="8" class="c0"/>
<circle cx="894" cy="104" r="8" class="c0"/>
<circle cx="1102" cy="636" r="8" class="c0"/>
<circle cx="820" cy="584" r="8" class="c0"/>
<circle cx="814" cy="1204" r="8" class="c0"/>
<circle cx="954" cy="252" r="8" class="c0"/>
<circle cx="884" cy="650" r="8" class="c0"/>
<circle cx="900" cy="474" r="8" class="c0"/>
<circle cx="922" cy="524" r="8" class="c0"/>
<circle cx="952" cy="456" r="8" class="c0"/>
<circle cx="1100" cy="542" r="8" class="c0"/>
<circle cx="894" cy="1226" r="8" class="c0"/>
<circle cx="946" cy="888" r="8" class="c0"/>
<circle cx="1188" cy="560" r="8" class="c0"/>
<circle cx="882" cy="244" r="8" class="c0"/>
<circle cx="822" cy="648" r="8" class="c0"/>
<circle cx="882" cy="908" r="8" class="c0"/>
<circle cx="988" cy="706" r="8" class="c0"/>
<circle cx="762" cy="620" r="8" class="c0"/>
<circle cx="850" cy="828" r="8" class="c0"/>
<circle cx="962" cy="1038" r="8" class="c0"/>
<circle cx="1058" cy="122" r="8" class="c0"/>
<circle cx="876" cy="634" r="8" class="c0"/>
<circle cx="1156" cy="626" r="8" class="c0"/>
<circle cx="1082" cy="154" r="8" class="c0"/>
<circle cx="1004" cy="1084" r="8" class="c0"/>
<circle cx="890" cy="26" r="8" class="c0"/>
<circle cx="944" cy="946" r="8" class="c0"/>
<circle cx="808" cy="662" r="8" class="c0"/>
<circle cx="888" cy="966" r="8" class="c0"/>
<circle cx="872" cy="546" r="8" class="c0"/>
<circle cx="960" cy="314" r="8" class="c0"/>
<circle cx="938" cy="820" r="8" class="c0"/>
<circle cx="1200" cy="628" r="8" class="c0"/>
<circle cx="990" cy="904" r="8" class="c0"/>
<circle cx="908" cy="126" r="8" class="c0"/>
<circle cx="940" cy="1138" r="8" class="c0"/>
<circle cx="896" cy="732" r="8" class="c0"/>
<circle cx="1090" cy="48" r="8" class="c0"/>
<circle cx="792" cy="1110" r="8" class="c0"/>
<circle cx="974" cy="758" r="8" class="c0"/>
<circle cx="978" cy="20" r="8" class="c0"/>
<circle cx="818" cy="1236" r="8" class="c0"/>
<circle cx="864" cy="740" r="8" class="c0"/>
<circle cx="880" cy="1252" r="8" class="c0"/>
<circle cx="1026" cy="618" r="8" class="c0"/>
<circle cx="942" cy="794" r="8" class="c0"/>
<circle cx="810" cy="70" r="8" class="c0"/>
<circle cx="950" cy="1028" r="8" class="c0"/>
<circle cx="882" cy="94" r="8" class="c0"/>
<circle cx="834" cy="1158" r="8" class="c0"/>
<circle cx="958" cy="494" r="8" class="c0"/>
<circle cx="860" cy="758" r="8" class="c0"/>
<circle cx="916" cy="850" r="8" class="c0"/>
<circle cx="842" cy="1216" r="8" class="c0"/>
<circle cx="1002" cy="278" r="8" class="c0"/>
<circle cx="812" cy="1110" r="8" class="c0"/>
<circle cx="1054" cy="902" r="8" class="c0"/>
<circle cx="918" cy="1180" r="8" class="c0"/>
<circle cx="1002" cy="506" r="8" class="c0"/>
<circle cx="1042" cy="212" r="8" class="c0"/>
<circle cx="1004" cy="804" r="8" class="c0"/>
<circle cx="852" cy="854" r="8" class="c0"/>
<circle cx="824" cy="684" r="8" class="c0"/>
<circle cx="1006" cy="1016" r="8" class="c0"/>
<circle cx="968" cy="832" r="8" class="c0"/>
<circle cx="894" cy="148" r="8" class="c0"/>
<circle cx="970" cy="864" r="8" class="c0"/>
<circle cx="964" cy="108" r="8" class="c0"/>
<circle cx="782" cy="1206" r="8" class="c0"/>
<circle cx="764" cy="1162" r="8" class="c0"/>
<circle cx="862" cy="1040" r="8" class="c0"/>
<circle cx="902" cy="838" r="8" class="c0"/>
<circle cx="898" cy="1020" r="8" class="c0"/>
<circle cx="878" cy="130" r="8" class="c0"/>
<circle cx="974" cy="246" r="8" class="c0"/>
<circle cx="962" cy="470" r="8" class="c0"/>
<circle cx="972" cy="1194" r="8" class="c0"/>
<circle cx="998" cy="26" r="8" class="c0"/>
<circle cx="818" cy="140" r="8" class="c0"/>
<circle cx="966" cy="144" r="8" class="c0"/>
<circle cx="1116" cy="84" r="8" class="c0"/>
<circle cx="916" cy="656" r="8" class="c0"/>
<circle cx="974" cy="1218" r="8" class="c0"/>
<circle cx="896" cy="1152" r="8" class="c0"/>
<circle cx="990" cy="234" r="8" class="c0"/>
<circle cx="976" cy="918" r="8" class="c0"/>
<circle cx="980" cy="1142" r="8" class="c0"/>
<circle cx="938" cy="488" r="8" class="c0"/>
<circle cx="902" cy="244" r="8" class="c0"/>
<circle cx="1036" cy="62" r="8" class="c0"/>
<circle cx="1100" cy="76" r="8" class="c0"/>
<circle cx="1006" cy="584" r="8" class="c0"/>
<circle cx="930" cy="1128" r="8" class="c0"/>
<circle cx="1038" cy="910" r="8" class="c0"/>
<circle cx="1152" cy="584" r="8" class="c0"/>
<circle cx="962" cy="1176" r="8" class="c0"/>
<circle cx="948" cy="274" r="8" class="c0"/>
<circle cx="846" cy="1242" r="8" class="c0"/>
<circle cx="906" cy="764" r="8" class="c0"/>
<circle cx="1182" cy="634" r="8" class="c0"/>
<circle cx="1004" cy="690" r="8" class="c0"/>
<circle cx="1206" cy="580" r="8" class="c0"/>
<circle cx="850" cy="62" r="8" class="c0"/>
<circle cx="868" cy="28" r="8" class="c0"/>
<circle cx="1106" cy="38" r="8" class="c0"/>
<circle cx="972" cy="1048" r="8" class="c0"/>
<circle cx="1044" cy="194" r="8" class="c0"/>
<circle cx="998" cy="618" r="8" class="c0"/>
<circle cx="966" cy="930" r="8" class="c0"/>
<circle cx="850" cy="938" r="8" class="c0"/>
<circle cx="868" cy="674" r="8" class="c0"/>
<circle cx="830" cy="706" r="8" class="c0"/>
<circle cx="1048" cy="692" r="8" class="c0"/>
<circle cx="744" cy="668" r="8" class="c0"/>
<circle cx="826" cy="734" r="8" class="c0"/>
<circle cx="972" cy="480" r="8" class="c0"/>
<circle cx="958" cy="876" r="8" class="c0"/>
<circle cx="830" cy="600" r="8" class="c0"/>
<circle cx="940" cy="970" r="8" class="c0"/>
<circle cx="1118" cy="560" r="8" class="c0"/>
<circle cx="1138" cy="660" r="8" class="c0"/>
<circle cx="838" cy="110" r="8" class="c0"/>
<circle cx="924" cy="42" r="8" class="c0"/>
<circle cx="804" cy="118" r="8" class="c0"/>
<circle cx="854" cy="984" r="8" class="c0"/>
<circle cx="832" cy="1092" r="8" class="c0"/>
<circle cx="950" cy="650" r="8" class="c0"/>
<circle cx="926" cy="1282" r="8" class="c0"/>
<circle cx="800" cy="1156" r="8" class="c0"/>
<circle cx="906" cy="1040" r="8" class="c0"/>
<circle cx="976" cy="576" r="8" class="c0"/>
<circle cx="938" cy="1316" r="8" class="c0"/>
<circle cx="1010" cy="1310" r="8" class="c0"/>
<circle cx="900" cy="710" r="8" class="c0"/>
<circle cx="960" cy="1206" r="8" class="c0"/>
<circle cx="986" cy="68" r="8" class="c0"/>
<circle cx="958" cy="1252" r="8" class="c0"/>
<circle cx="910" cy="686" r="8" class="c0"/>
<circle cx="1022" cy="890" r="8" class="c0"/>
<circle cx="862" cy="1074" r="8" class="c0"/>
<circle cx="938" cy="662" r="8" class="c0"/>
<circle cx="886" cy="794" r="8" class="c0"/>
<circle cx="1094" cy="98" r="8" class="c0"/>
<circle cx="1000" cy="1128" r="8" class="c0"/>
<circle cx="1032" cy="550" r="8" class="c0"/>
<circle cx="1154" cy="648" r="8" class="c0"/>
<circle cx="860" cy="790" r="8" class="c0"/>
<circle cx="928" cy="832" r="8" class="c0"/>
<circle cx="928" cy="1214" r="8" class="c0"/>
<circle cx="842" cy="844" r="8" class="c0"/>
<circle cx="1008" cy="116" r="8" class="c0"/>
<circle cx="832" cy="1048" r="8" class="c0"/>
<circle cx="884" cy="826" r="8" class="c0"/>
<circle cx="998" cy="976" r="8" class="c0"/>
<circle cx="824" cy="1192" r="8" class="c0"/>
<circle cx="868" cy="68" r="8" class="c0"/>
<circle cx="1024" cy="1076" r="8" class="c0"/>
<circle cx="960" cy="232" r="8" class="c0"/>
<circle cx="976" cy="222" r="8" class="c0"/>
<circle cx="956" cy="1310" r="8" class="c0"/>
<circle cx="946" cy="10" r="8" class="c0"/>
<circle cx="1080" cy="606" r="8" class="c0"/>
<circle cx="856" cy="1012" r="8" class="c0"/>
<circle cx="934" cy="214" r="8" class="c0"/>
<circle cx="1222" cy="628" r="8" class="c0"/>
<circle cx="926" cy="1326" r="8" class="c0"/>
<circle cx="1016" cy="1048" r="8" class="c0"/>
<circle cx="998" cy="1336" r="8" class="c0"/>
<circle cx="960" cy="720" r="8" class="c0"/>
<circle cx="908" cy="542" r="8" class="c0"/>
<circle cx="836" cy="574" r="8" class="c0"/>
<circle cx="918" cy="876" r="8" class="c0"/>
<circle cx="906" cy="10" r="8" class="c0"/>
<circle cx="918" cy="818" r="8" class="c0"/>
<circle cx="866" cy="900" r="8" class="c0"/>
<circle cx="830" cy="14" r="8" class="c0"/>
<circle cx="964" cy="296" r="8" class="c0"/>
<circle cx="792" cy="1190" r="8" class="c0"/>
<circle cx="884" cy="1112" r="8" class="c0"/>
<circle cx="904" cy="1258" r="8" class="c0"/>
<circle cx="936" cy="1182" r="8" class="c0"/>
<circle cx="1000" cy="958" r="8" class="c0"/>
<circle cx="966" cy="616" r="8" class="c0"/>
<circle cx="838" cy="950" r="8" class="c0"/>
<circle cx="1084" cy="68" r="8" class="c0"/>
<circle cx="1064" cy="886" r="8" class="c0"/>
<circle cx="1120" cy="644" r="8" class="c0"/>
<circle cx="976" cy="456" r="8" class="c0"/>
<circle cx="976" cy="1162" r="8" class="c0"/>
<circle cx="1100" cy="692" r="8" class="c0"/>
<circle cx="1086" cy="532" r="8" class="c0"/>
<circle cx="850" cy="770" r="8" class="c0"/>
<circle cx="998" cy="786" r="8" class="c0"/>
<circle cx="912" cy="210" r="8" class="c0"/>
<circle cx="968" cy="8" r="8" class="c0"/>
<circle cx="1000" cy="1194" r="8" class="c0"/>
<circle cx="930" cy="760" r="8" class="c0"/>
<circle cx="956" cy="822" r="8" class="c0"/>
<circle cx="992" cy="752" r="8" class="c0"/>
<circle cx="922" cy="700" r="8" class="c0"/>
<circle cx="1086" cy="560" r="8" class="c0"/>
<circle cx="882" cy="984" r="8" class="c0"/>
<circle cx="778" cy="608" r="8" class="c0"/>
<circle cx="992" cy="8" r="8" class="c0"/>
<circle cx="848" cy="810" r="8" class="c0"/>
<circle cx="876" cy="1020" r="8" class="c0"/>
<circle cx="904" cy="84" r="8" class="c0"/>
<circle cx="1046" cy="1214" r="8" class="c0"/>
<circle cx="902" cy="36" r="8" class="c0"/>
<circle cx="986" cy="1208" r="8" class="c0"/>
<circle cx="872" cy="616" r="8" class="c0"/>
<circle cx="966" cy="542" r="8" class="c0"/>
<circle cx="1066" cy="164" r="8" class="c0"/>
<circle cx="1190" cy="590" r="8" class="c0"/>
<circle cx="1014" cy="178" r="8" class="c0"/>
<circle cx="886" cy="1010" r="8" class="c0"/>
<circle cx="880" cy="16" r="8" class="c0"/>
<circle cx="942" cy="696" r="8" class="c0"/>
<circle cx="934" cy="1066" r="8" class="c0"/>
<circle cx="886" cy="1164" r="8" class="c0"/>
<circle cx="756" cy="710" r="8" class="c0"/>
<circle cx="964" cy="896" r="8" class="c0"/>
<circle cx="840" cy="616" r="8" class="c0"/>
<circle cx="1000" cy="44" r="8" class="c0"/>
<circle cx="1074" cy="694" r="8" class="c0"/>
<circle cx="790" cy="656" r="8" class="c0"/>
<circle cx="930" cy="784" r="8" class="c0"/>
<circle cx="954" cy="804" r="8" class="c0"/>
<circle cx="820" cy="34" r="8" class="c0"/>
<circle cx="1012" cy="1232" r="8" class="c0"/>
<circle cx="868" cy="696" r="8" class="c0"/>
<circle cx="1190" cy="616" r="8" class="c0"/>
<circle cx="1150" cy="670" r="6" class="c0"/>
<circle cx="1102" cy="58" r="6" class="c0"/>
<circle cx="1028" cy="6" r="6" class="c0"/>
<circle cx="862" cy="44" r="6" class="c0"/>
<circle cx="946" cy="728" r="6" class="c0"/>
<circle cx="764" cy="636" r="6" class="c0"/>
<circle cx="966" cy="586" r="6" class="c0"/>
<circle cx="898" cy="200" r="6" class="c0"/>
<circle cx="846" cy="186" r="6" class="c0"/>
<circle cx="936" cy="612" r="6" class="c0"/>
<circle cx="898" cy="946" r="6" class="c0"/>
<circle cx="922" cy="422" r="6" class="c0"/>
<circle cx="878" cy="1186" r="6" class="c0"/>
<circle cx="792" cy="1130" r="6" class="c0"/>
<circle cx="1062" cy="586" r="6" class="c0"/>
<circle cx="858" cy="1222" r="6" class="c0"/>
<circle cx="942" cy="472" r="6" class="c0"/>
<circle cx="874" cy="594" r="6" class="c0"/>
<circle cx="826" cy="76" r="6" class="c0"/>
<circle cx="842" cy="994" r="6" class="c0"/>
<circle cx="828" cy="858" r="6" class="c0"/>
<circle cx="992" cy="190" r="6" class="c0"/>
<circle cx="876" cy="222" r="6" class="c0"/>
<circle cx="898" cy="896" r="6" class="c0"/>
<circle cx="908" cy="512" r="6" class="c0"/>
<circle cx="978" cy="842" r="6" class="c0"/>
<circle cx="950" cy="1096" r="6" class="c0"/>
<circle cx="988" cy="658" r="6" class="c0"/>
<circle cx="776" cy="1124" r="6" class="c0"/>
<circle cx="884" cy="950" r="6" class="c0"/>
<circle cx="1042" cy="1136" r="6" class="c0"/>
<circle cx="994" cy="574" r="6" class="c0"/>
<circle cx="998" cy="716" r="6" class="c0"/>
<circle cx="1010" cy="846" r="6" class="c0"/>
<circle cx="1028" cy="148" r="6" class="c0"/>
<circle cx="834" cy="1232" r="6" class="c0"/>
<circle cx="726" cy="694" r="6" class="c0"/>
<circle cx="932" cy="272" r="6" class="c0"/>
<circle cx="998" cy="1112" r="6" class="c0"/>
<circle cx="1172" cy="550" r="6" class="c0"/>
<circle cx="890" cy="576" r="6" class="c0"/>
<circle cx="928" cy="288" r="6" class="c0"/>
<circle cx="906" cy="866" r="6" class="c0"/>
<circle cx="900" cy="784" r="6" class="c0"/>
<circle cx="1132" cy="694" r="6" class="c0"/>
<circle cx="920" cy="1108" r="6" class="c0"/>
<circle cx="1000" cy="550" r="6" class="c0"/>
<circle cx="808" cy="640" r="6" class="c0"/>
<circle cx="962" cy="1058" r="6" class="c0"/>
<circle cx="1036" cy="1124" r="6" class="c0"/>
<circle cx="828" cy="1074" r="6" class="c0"/>
<circle cx="1066" cy="526" r="6" class="c0"/>
<circle cx="960" cy="332" r="6" class="c0"/>
<circle cx="802" cy="86" r="6" class="c0"/>
<circle cx="798" cy="102" r="6" class="c0"/>
<circle cx="1000" cy="1056" r="6" class="c0"/>
<circle cx="962" cy="176" r="6" class="c0"/>
<circle cx="1104" cy="108" r="6" class="c0"/>
<circle cx="950" cy="524" r="6" class="c0"/>
<circle cx="892" cy="1098" r="6" class="c0"/>
<circle cx="870" cy="174" r="6" class="c0"/>
<circle cx="1028" cy="502" r="6" class="c0"/>
<circle cx="812" cy="1066" r="6" class="c0"/>
<circle cx="1058" cy="1200" r="6" class="c0"/>
<circle cx="1030" cy="230" r="6" class="c0"/>
<circle cx="1044" cy="676" r="6" class="c0"/>
<circle cx="946" cy="834" r="6" class="c0"/>
<circle cx="966" cy="654" r="6" class="c0"/>
<circle cx="1110" cy="674" r="6" class="c0"/>
<circle cx="764" cy="1198" r="6" class="c0"/>
<circle cx="912" cy="1220" r="6" class="c0"/>
<circle cx="966" cy="1130" r="6" class="c0"/>
<circle cx="1146" cy="544" r="6" class="c0"/>
<circle cx="848" cy="892" r="6" class="c0"/>
<circle cx="914" cy="1012" r="6" class="c0"/>
<circle cx="834" cy="1032" r="6" class="c0"/>
<circle cx="992" cy="518" r="6" class="c0"/>
<circle cx="976" cy="664" r="6" class="c0"/>
<circle cx="926" cy="260" r="6" class="c0"/>
<circle cx="800" cy="744" r="6" class="c0"/>
<circle cx="962" cy="266" r="6" class="c0"/>
<circle cx="852" cy="1084" r="6" class="c0"/>
<circle cx="918" cy="586" r="6" class="c0"/>
<circle cx="868" cy="1106" r="6" class="c0"/>
<circle cx="918" cy="170" r="6" class="c0"/>
<circle cx="860" cy="184" r="6" class="c0"/>
<circle cx="880" cy="738" r="6" class="c0"/>
<circle cx="1052" cy="1166" r="6" class="c0"/>
<circle cx="838" cy="980" r="6" class="c0"/>
<circle cx="996" cy="1302" r="6" class="c0"/>
<circle cx="1006" cy="1100" r="6" class="c0"/>
<circle cx="856" cy="558" r="6" class="c0"/>
<circle cx="716" cy="716" r="6" class="c0"/>
<circle cx="1026" cy="1192" r="6" class="c0"/>
<circle cx="928" cy="162" r="6" class="c0"/>
<circle cx="998" cy="666" r="6" class="c0"/>
<circle cx="966" cy="1320" r="6" class="c0"/>
<circle cx="1026" cy="72" r="6" class="c0"/>
<circle cx="884" cy="1236" r="6" class="c0"/>
<circle cx="1116" cy="694" r="6" class="c0"/>
<circle cx="992" cy="1318" r="6" class="c0"/>
<circle cx="902" cy="1090" r="6" class="c0"/>
<circle cx="914" cy="1064" r="6" class="c0"/>
<circle cx="1060" cy="210" r="6" class="c0"/>
<circle cx="824" cy="874" r="6" class="c0"/>
<circle cx="1056" cy="90" r="6" class="c0"/>
<circle cx="936" cy="736" r="6" class="c0"/>
<circle cx="944" cy="320" r="6" class="c0"/>
<circle cx="1066" cy="10" r="6" class="c0"/>
<circle cx="870" cy="1264" r="6" class="c0"/>
<circle cx="952" cy="1186" r="6" class="c0"/>
<circle cx="800" cy="680" r="6" class="c0"/>
<circle cx="1054" cy="1230" r="6" class="c0"/>
<circle cx="926" cy="408" r="6" class="c0"/>
<circle cx="834" cy="1134" r="6" class="c0"/>
<circle cx="802" cy="1100" r="6" class="c0"/>
<circle cx="802" cy="32" r="6" class="c0"/>
<circle cx="974" cy="54" r="6" class="c0"/>
<circle cx="876" cy="754" r="6" class="c0"/>
<circle cx="836" cy="142" r="6" class="c0"/>
<circle cx="914" cy="1272" r="6" class="c0"/>
<circle cx="934" cy="598" r="6" class="c0"/>
<circle cx="956" cy="94" r="6" class="c0"/>
<circle cx="1034" cy="566" r="6" class="c0"/>
<circle cx="1080" cy="654" r="6" class="c0"/>
<circle cx="878" cy="78" r="6" class="c0"/>
<circle cx="914" cy="1146" r="6" class="c0"/>
<circle cx="992" cy="148" r="6" class="c0"/>
<circle cx="1018" cy="510" r="6" class="c0"/>
<circle cx="906" cy="1162" r="6" class="c0"/>
<circle cx="790" cy="1166" r="6" class="c0"/>
<circle cx="936" cy="1296" r="6" class="c0"/>
<circle cx="986" cy="1288" r="6" class="c0"/>
<circle cx="908" cy="972" r="6" class="c0"/>
<circle cx="940" cy="46" r="6" class="c0"/>
<circle cx="820" cy="1220" r="6" class="c0"/>
<circle cx="950" cy="1128" r="6" class="c0"/>
<circle cx="964" cy="1100" r="6" class="c0"/>
<circle cx="1026" cy="208" r="6" class="c0"/>
<circle cx="996" cy="736" r="6" class="c0"/>
<circle cx="994" cy="920" r="6" class="c0"/>
<circle cx="816" cy="744" r="6" class="c0"/>
<circle cx="956" cy="22" r="6" class="c0"/>
<circle cx="932" cy="848" r="6" class="c0"/>
<circle cx="852" cy="706" r="6" class="c0"/>
<circle cx="788" cy="692" r="6" class="c0"/>
<circle cx="818" cy="1156" r="6" class="c0"/>
<circle cx="1026" cy="190" r="6" class="c0"/>
<circle cx="922" cy="8" r="6" class="c0"/>
<circle cx="948" cy="106" r="6" class="c0"/>
<circle cx="848" cy="122" r="6" class="c0"/>
<circle cx="1054" cy="750" r="6" class="c0"/>
<circle cx="1166" cy="636" r="6" class="c0"/>
<circle cx="834" cy="1202" r="6" class="c0"/>
<circle cx="930" cy="1236" r="6" class="c0"/>
<circle cx="854" cy="1262" r="6" class="c0"/>
<circle cx="1020" cy="156" r="6" class="c0"/>
<circle cx="882" cy="890" r="6" class="c0"/>
<circle cx="970" cy="1292" r="6" class="c0"/>
<circle cx="918" cy="628" r="6" class="c0"/>
<circle cx="824" cy="1126" r="6" class="c0"/>
<circle cx="928" cy="808" r="6" class="c0"/>
<circle cx="886" cy="1132" r="6" class="c0"/>
<circle cx="802" cy="1120" r="6" class="c0"/>
<circle cx="1114" cy="610" r="6" class="c0"/>
<circle cx="924" cy="138" r="6" class="c0"/>
<circle cx="918" cy="250" r="6" class="c0"/>
<circle cx="984" cy="1256" r="6" class="c0"/>
<circle cx="986" cy="264" r="6" class="c0"/>
<circle cx="836" cy="176" r="6" class="c0"/>
<circle cx="1112" cy="532" r="6" class="c0"/>
<circle cx="922" cy="1004" r="6" class="c0"/>
<circle cx="946" cy="1172" r="6" class="c0"/>
<circle cx="732" cy="678" r="6" class="c0"/>
<circle cx="950" cy="710" r="6" class="c0"/>
<circle cx="1008" cy="628" r="6" class="c0"/>
<circle cx="1086" cy="170" r="6" class="c0"/>
<circle cx="988" cy="1050" r="6" class="c0"/>
<circle cx="1106" cy="14" r="6" class="c0"/>
<circle cx="920" cy="774" r="6" class="c0"/>
<circle cx="1070" cy="596" r="6" class="c0"/>
<circle cx="980" cy="650" r="6" class="c0"/>
<circle cx="1070" cy="662" r="6" class="c0"/>
<circle cx="958" cy="964" r="6" class="c0"/>
<circle cx="876" cy="494" r="6" class="c0"/>
<circle cx="792" cy="76" r="6" class="c0"/>
<circle cx="994" cy="176" r="6" class="c0"/>
<circle cx="1042" cy="616" r="6" class="c0"/>
<circle cx="980" cy="300" r="6" class="c0"/>
<circle cx="876" cy="1226" r="6" class="c0"/>
<circle cx="992" cy="540" r="6" class="c0"/>
<circle cx="870" cy="6" r="6" class="c0"/>
<circle cx="882" cy="666" r="6" class="c0"/>
<circle cx="1072" cy="620" r="6" class="c0"/>
<circle cx="920" cy="304" r="6" class="c0"/>
<circle cx="820" cy="1058" r="6" class="c0"/>
<circle cx="942" cy="992" r="6" class="c0"/>
<circle cx="980" cy="1328" r="6" class="c0"/>
<circle cx="986" cy="966" r="6" class="c0"/>
<circle cx="890" cy="6" r="6" class="c0"/>
<circle cx="868" cy="530" r="6" class="c0"/>
<circle cx="958" cy="1120" r="6" class="c0"/>
<circle cx="1220" cy="612" r="6" class="c0"/>
<circle cx="898" cy="858" r="6" class="c0"/>
<circle cx="1042" cy="128" r="6" class="c0"/>
<circle cx="892" cy="120" r="6" class="c0"/>
<circle cx="788" cy="736" r="6" class="c0"/>
<circle cx="910" cy="1324" r="6" class="c0"/>
<circle cx="852" cy="642" r="6" class="c0"/>
<circle cx="814" cy="710" r="6" class="c0"/>
<circle cx="982" cy="1038" r="6" class="c0"/>
<circle cx="800" cy="622" r="6" class="c0"/>
<circle cx="914" cy="26" r="6" class="c0"/>
<circle cx="1088" cy="646" r="6" class="c0"/>
<circle cx="808" cy="150" r="6" class="c0"/>
<circle cx="874" cy="860" r="6" class="c0"/>
<circle cx="910" cy="68" r="6" class="c0"/>
<circle cx="840" cy="1016" r="6" class="c0"/>
<circle cx="826" cy="756" r="6" class="c0"/>
<circle cx="1022" cy="260" r="6" class="c0"/>
<circle cx="1056" cy="626" r="6" class="c0"/>
<circle cx="1022" cy="1222" r="6" class="c0"/>
<circle cx="880" cy="1070" r="6" class="c0"/>
<circle cx="1070" cy="196" r="6" class="c0"/>
<circle cx="914" cy="94" r="6" class="c0"/>
<circle cx="1170" cy="690" r="6" class="c0"/>
<circle cx="832" cy="194" r="6" class="c0"/>
<circle cx="768" cy="1134" r="6" class="c0"/>
<circle cx="1058" cy="60" r="6" class="c0"/>
<circle cx="1154" cy="684" r="6" class="c0"/>
<circle cx="1066" cy="72" r="6" class="c0"/>
<circle cx="896" cy="1050" r="6" class="c0"/>
<circle cx="840" cy="72" r="6" class="c0"/>
<circle cx="1076" cy="178" r="6" class="c0"/>
<circle cx="1028" cy="26" r="6" class="c0"/>
<circle cx="882" cy="606" r="6" class="c0"/>
<circle cx="894" cy="1244" r="6" class="c0"/>
</svg>
