<?xml version="1.0" encoding="utf-8"?>
<svg xmlns="http://www.w3.org/2000/svg"
     xmlns:xlink="http://www.w3.org/1999/xlink" width="1920" height="1440" >

            <defs>
            <style type="text/css"><![CDATA[
circle {stroke: none;}
.c0 {fill: #FFFFFF;}
]]></style>
            </defs>
<rect x="0" y="0" width="1920" height="1440" fill="black"/>
<circle cx="1030" cy="1208" r="14" class="c0"/>
<circle cx="942" cy="896" r="14" class="c0"/>
<circle cx="888" cy="784" r="12" class="c0"/>
<circle cx="1038" cy="1158" r="12" class="c0"/>
<circle cx="920" cy="70" r="12" class="c0"/>
<circle cx="964" cy="1142" r="12" class="c0"/>
<circle cx="1064" cy="136" r="12" class="c0"/>
<circle cx="924" cy="1060" r="12" class="c0"/>
<circle cx="940" cy="182" r="12" class="c0"/>
<circle cx="876" cy="1200" r="12" class="c0"/>
<circle cx="934" cy="126" r="12" class="c0"/>
<circle cx="876" cy="652" r="12" class="c0"/>
<circle cx="1032" cy="584" r="12" class="c0"/>
<circle cx="838" cy="632" r="12" class="c0"/>
<circle cx="856" cy="54" r="12" class="c0"/>
<circle cx="964" cy="228" r="12" class="c0"/>
<circle cx="1080" cy="120" r="12" class="c0"/>
<circle cx="1140" cy="562" r="12" class="c0"/>
<circle cx="996" cy="12" r="12" class="c0"/>
<circle cx="1036" cy="186" r="12" class="c0"/>
<circle cx="998" cy="530" r="12" class="c0"/>
<circle cx="994" cy="732" r="12" class="c0"/>
<circle cx="1110" cy="568" r="12" class="c0"/>
<circle cx="862" cy="846" r="12" class="c0"/>
<circle cx="914" cy="672" r="12" class="c0"/>
<circle cx="1042" cy="562" r="12" class="c0"/>
<circle cx="854" cy="744" r="12" class="c0"/>
<circle cx="944" cy="38" r="12" class="c0"/>
<circle cx="746" cy="706" r="12" class="c0"/>
<circle cx="968" cy="1212" r="12" class="c0"/>
<circle cx="1162" cy="612" r="12" class="c0"/>
<circle cx="862" cy="964" r="12" class="c0"/>
<circle cx="880" cy="580" r="12" class="c0"/>
<circle cx="1036" cy="1084" r="12" class="c0"/>
<circle cx="992" cy="936" r="12" class="c0"/>
<circle cx="894" cy="686" r="12" class="c0"/>
<circle cx="932" cy="626" r="12" class="c0"/>
<circle cx="958" cy="736" r="12" class="c0"/>
<circle cx="902" cy="104" r="12" class="c0"/>
<circle cx="994" cy="1004" r="12" class="c0"/>
<circle cx="1010" cy="40" r="12" class="c0"/>
<circle cx="1150" cy="538" r="12" class="c0"/>
<circle cx="924" cy="706" r="12" class="c0"/>
<circle cx="946" cy="648" r="12" class="c0"/>
<circle cx="1064" cy="528" r="12" class="c0"/>
<circle cx="978" cy="132" r="12" class="c0"/>
<circle cx="868" cy="206" r="12" class="c0"/>
<circle cx="1012" cy="170" r="12" class="c0"/>
<circle cx="876" cy="124" r="12" class="c0"/>
<circle cx="888" cy="520" r="12" class="c0"/>
<circle cx="1098" cy="598" r="12" class="c0"/>
<circle cx="944" cy="806" r="12" class="c0"/>
<circle cx="966" cy="1092" r="12" class="c0"/>
<circle cx="1058" cy="578" r="12" class="c0"/>
<circle cx="960" cy="880" r="12" class="c0"/>
<circle cx="936" cy="238" r="12" class="c0"/>
<circle cx="1104" cy="36" r="10" class="c0"/>
<circle cx="978" cy="484" r="10" class="c0"/>
<circle cx="814" cy="708" r="10" class="c0"/>
<circle cx="1022" cy="1120" r="10" class="c0"/>
<circle cx="962" cy="556" r="10" class="c0"/>
<circle cx="784" cy="660" r="10" class="c0"/>
<circle cx="884" cy="26" r="10" class="c0"/>
<circle cx="838" cy="678" r="10" class="c0"/>
<circle cx="908" cy="728" r="10" class="c0"/>
<circle cx="930" cy="1094" r="10" class="c0"/>
<circle cx="1004" cy="656" r="10" class="c0"/>
<circle cx="1022" cy="690" r="10" class="c0"/>
<circle cx="1044" cy="90" r="10" class="c0"/>
<circle cx="842" cy="1186" r="10" class="c0"/>
<circle cx="856" cy="1128" r="10" class="c0"/>
<circle cx="944" cy="962" r="10" class="c0"/>
<circle cx="902" cy="974" r="10" class="c0"/>
<circle cx="1010" cy="1026" r="10" class="c0"/>
<circle cx="1106" cy="630" r="10" class="c0"/>
<circle cx="1014" cy="614" r="10" class="c0"/>
<circle cx="998" cy="770" r="10" class="c0"/>
<circle cx="1034" cy="112" r="10" class="c0"/>
<circle cx="980" cy="1058" r="10" class="c0"/>
<circle cx="980" cy="518" r="10" class="c0"/>
<circle cx="862" cy="796" r="10" class="c0"/>
<circle cx="1000" cy="826" r="10" class="c0"/>
<circle cx="956" cy="992" r="10" class="c0"/>
<circle cx="948" cy="686" r="10" class="c0"/>
<circle cx="888" cy="1130" r="10" class="c0"/>
<circle cx="1006" cy="82" r="10" class="c0"/>
<circle cx="882" cy="1062" r="10" class="c0"/>
<circle cx="1020" cy="136" r="10" class="c0"/>
<circle cx="976" cy="606" r="10" class="c0"/>
<circle cx="776" cy="1152" r="10" class="c0"/>
<circle cx="1130" cy="648" r="10" class="c0"/>
<circle cx="968" cy="108" r="10" class="c0"/>
<circle cx="966" cy="182" r="10" class="c0"/>
<circle cx="978" cy="676" r="10" class="c0"/>
<circle cx="1044" cy="22" r="10" class="c0"/>
<circle cx="916" cy="820" r="10" class="c0"/>
<circle cx="914" cy="1024" r="10" class="c0"/>
<circle cx="868" cy="1144" r="10" class="c0"/>
<circle cx="924" cy="880" r="10" class="c0"/>
<circle cx="816" cy="1140" r="10" class="c0"/>
<circle cx="804" cy="1160" r="10" class="c0"/>
<circle cx="976" cy="74" r="10" class="c0"/>
<circle cx="1002" cy="230" r="10" class="c0"/>
<circle cx="938" cy="1178" r="10" class="c0"/>
<circle cx="882" cy="60" r="10" class="c0"/>
<circle cx="836" cy="32" r="10" class="c0"/>
<circle cx="846" cy="704" r="10" class="c0"/>
<circle cx="914" cy="138" r="10" class="c0"/>
<circle cx="1026" cy="1054" r="10" class="c0"/>
<circle cx="1194" cy="614" r="10" class="c0"/>
<circle cx="988" cy="100" r="10" class="c0"/>
<circle cx="1000" cy="688" r="10" class="c0"/>
<circle cx="986" cy="1106" r="10" class="c0"/>
<circle cx="870" cy="1168" r="10" class="c0"/>
<circle cx="834" cy="74" r="10" class="c0"/>
<circle cx="916" cy="908" r="10" class="c0"/>
<circle cx="882" cy="886" r="10" class="c0"/>
<circle cx="776" cy="622" r="10" class="c0"/>
<circle cx="952" cy="472" r="10" class="c0"/>
<circle cx="914" cy="1242" r="10" class="c0"/>
<circle cx="786" cy="602" r="10" class="c0"/>
<circle cx="892" cy="638" r="10" class="c0"/>
<circle cx="968" cy="780" r="10" class="c0"/>
<circle cx="800" cy="1202" r="10" class="c0"/>
<circle cx="1034" cy="1108" r="10" class="c0"/>
<circle cx="1004" cy="902" r="10" class="c0"/>
<circle cx="898" cy="804" r="10" class="c0"/>
<circle cx="852" cy="18" r="10" class="c0"/>
<circle cx="850" cy="918" r="10" class="c0"/>
<circle cx="1046" cy="64" r="10" class="c0"/>
<circle cx="1012" cy="1146" r="10" class="c0"/>
<circle cx="1000" cy="112" r="10" class="c0"/>
<circle cx="914" cy="1120" r="10" class="c0"/>
<circle cx="1068" cy="76" r="10" class="c0"/>
<circle cx="876" cy="96" r="10" class="c0"/>
<circle cx="890" cy="226" r="10" class="c0"/>
<circle cx="1004" cy="1168" r="10" class="c0"/>
<circle cx="898" cy="760" r="10" class="c0"/>
<circle cx="958" cy="510" r="10" class="c0"/>
<circle cx="1020" cy="860" r="10" class="c0"/>
<circle cx="902" cy="1180" r="10" class="c0"/>
<circle cx="886" cy="612" r="10" class="c0"/>
<circle cx="832" cy="1090" r="10" class="c0"/>
<circle cx="812" cy="596" r="10" class="c0"/>
<circle cx="924" cy="764" r="10" class="c0"/>
<circle cx="872" cy="694" r="10" class="c0"/>
<circle cx="988" cy="1304" r="10" class="c0"/>
<circle cx="928" cy="1218" r="10" class="c0"/>
<circle cx="980" cy="898" r="10" class="c0"/>
<circle cx="994" cy="460" r="10" class="c0"/>
<circle cx="1070" cy="12" r="10" class="c0"/>
<circle cx="1036" cy="612" r="10" class="c0"/>
<circle cx="854" cy="568" r="10" class="c0"/>
<circle cx="906" cy="1100" r="10" class="c0"/>
<circle cx="914" cy="274" r="10" class="c0"/>
<circle cx="894" cy="202" r="10" class="c0"/>
<circle cx="808" cy="624" r="10" class="c0"/>
<circle cx="990" cy="554" r="10" class="c0"/>
<circle cx="1022" cy="200" r="10" class="c0"/>
<circle cx="846" cy="1078" r="10" class="c0"/>
<circle cx="878" cy="980" r="10" class="c0"/>
<circle cx="974" cy="578" r="10" class="c0"/>
<circle cx="948" cy="446" r="10" class="c0"/>
<circle cx="956" cy="826" r="10" class="c0"/>
<circle cx="1000" cy="596" r="10" class="c0"/>
<circle cx="980" cy="166" r="10" class="c0"/>
<circle cx="920" cy="942" r="10" class="c0"/>
<circle cx="954" cy="1074" r="10" class="c0"/>
<circle cx="818" cy="658" r="10" class="c0"/>
<circle cx="1080" cy="54" r="10" class="c0"/>
<circle cx="940" cy="858" r="10" class="c0"/>
<circle cx="960" cy="146" r="10" class="c0"/>
<circle cx="922" cy="598" r="10" class="c0"/>
<circle cx="930" cy="534" r="10" class="c0"/>
<circle cx="906" cy="562" r="10" class="c0"/>
<circle cx="870" cy="72" r="10" class="c0"/>
<circle cx="1072" cy="594" r="10" class="c0"/>
<circle cx="1182" cy="584" r="10" class="c0"/>
<circle cx="812" cy="56" r="10" class="c0"/>
<circle cx="1062" cy="642" r="10" class="c0"/>
<circle cx="882" cy="1028" r="10" class="c0"/>
<circle cx="1200" cy="568" r="10" class="c0"/>
<circle cx="750" cy="638" r="10" class="c0"/>
<circle cx="934" cy="1008" r="10" class="c0"/>
<circle cx="1016" cy="644" r="10" class="c0"/>
<circle cx="886" cy="1228" r="10" class="c0"/>
<circle cx="1132" cy="586" r="10" class="c0"/>
<circle cx="962" cy="260" r="10" class="c0"/>
<circle cx="804" cy="688" r="10" class="c0"/>
<circle cx="930" cy="1286" r="10" class="c0"/>
<circle cx="782" cy="686" r="10" class="c0"/>
<circle cx="884" cy="1002" r="10" class="c0"/>
<circle cx="960" cy="1172" r="10" class="c0"/>
<circle cx="904" cy="1154" r="10" class="c0"/>
<circle cx="898" cy="932" r="10" class="c0"/>
<circle cx="846" cy="104" r="8" class="c0"/>
<circle cx="882" cy="816" r="8" class="c0"/>
<circle cx="980" cy="952" r="8" class="c0"/>
<circle cx="994" cy="1200" r="8" class="c0"/>
<circle cx="990" cy="846" r="8" class="c0"/>
<circle cx="980" cy="202" r="8" class="c0"/>
<circle cx="908" cy="54" r="8" class="c0"/>
<circle cx="882" cy="716" r="8" class="c0"/>
<circle cx="968" cy="850" r="8" class="c0"/>
<circle cx="1122" cy="524" r="8" class="c0"/>
<circle cx="1006" cy="1094" r="8" class="c0"/>
<circle cx="1062" cy="1178" r="8" class="c0"/>
<circle cx="818" cy="98" r="8" class="c0"/>
<circle cx="938" cy="836" r="8" class="c0"/>
<circle cx="914" cy="172" r="8" class="c0"/>
<circle cx="856" cy="174" r="8" class="c0"/>
<circle cx="946" cy="1038" r="8" class="c0"/>
<circle cx="956" cy="946" r="8" class="c0"/>
<circle cx="982" cy="264" r="8" class="c0"/>
<circle cx="824" cy="896" r="8" class="c0"/>
<circle cx="1032" cy="524" r="8" class="c0"/>
<circle cx="968" cy="930" r="8" class="c0"/>
<circle cx="948" cy="770" r="8" class="c0"/>
<circle cx="1210" cy="592" r="8" class="c0"/>
<circle cx="1000" cy="188" r="8" class="c0"/>
<circle cx="800" cy="30" r="8" class="c0"/>
<circle cx="940" cy="428" r="8" class="c0"/>
<circle cx="874" cy="756" r="8" class="c0"/>
<circle cx="930" cy="576" r="8" class="c0"/>
<circle cx="970" cy="54" r="8" class="c0"/>
<circle cx="1092" cy="556" r="8" class="c0"/>
<circle cx="910" cy="992" r="8" class="c0"/>
<circle cx="1054" cy="666" r="8" class="c0"/>
<circle cx="912" cy="512" r="8" class="c0"/>
<circle cx="854" cy="660" r="8" class="c0"/>
<circle cx="882" cy="178" r="8" class="c0"/>
<circle cx="950" cy="214" r="8" class="c0"/>
<circle cx="1002" cy="566" r="8" class="c0"/>
<circle cx="1168" cy="648" r="8" class="c0"/>
<circle cx="796" cy="1114" r="8" class="c0"/>
<circle cx="884" cy="160" r="8" class="c0"/>
<circle cx="1014" cy="550" r="8" class="c0"/>
<circle cx="916" cy="456" r="8" class="c0"/>
<circle cx="904" cy="838" r="8" class="c0"/>
<circle cx="984" cy="1240" r="8" class="c0"/>
<circle cx="940" cy="930" r="8" class="c0"/>
<circle cx="834" cy="1214" r="8" class="c0"/>
<circle cx="930" cy="486" r="8" class="c0"/>
<circle cx="998" cy="962" r="8" class="c0"/>
<circle cx="822" cy="862" r="8" class="c0"/>
<circle cx="982" cy="754" r="8" class="c0"/>
<circle cx="902" cy="870" r="8" class="c0"/>
<circle cx="934" cy="284" r="8" class="c0"/>
<circle cx="1102" cy="62" r="8" class="c0"/>
<circle cx="826" cy="942" r="8" class="c0"/>
<circle cx="1002" cy="146" r="8" class="c0"/>
<circle cx="926" cy="260" r="8" class="c0"/>
<circle cx="1076" cy="154" r="8" class="c0"/>
<circle cx="916" cy="788" r="8" class="c0"/>
<circle cx="870" cy="1050" r="8" class="c0"/>
<circle cx="1026" cy="224" r="8" class="c0"/>
<circle cx="1120" cy="542" r="8" class="c0"/>
<circle cx="1100" cy="530" r="8" class="c0"/>
<circle cx="870" cy="40" r="8" class="c0"/>
<circle cx="1092" cy="86" r="8" class="c0"/>
<circle cx="836" cy="1120" r="8" class="c0"/>
<circle cx="1014" cy="982" r="8" class="c0"/>
<circle cx="1150" cy="654" r="8" class="c0"/>
<circle cx="966" cy="26" r="8" class="c0"/>
<circle cx="830" cy="970" r="8" class="c0"/>
<circle cx="1074" cy="552" r="8" class="c0"/>
<circle cx="894" cy="1048" r="8" class="c0"/>
<circle cx="894" cy="10" r="8" class="c0"/>
<circle cx="894" cy="486" r="8" class="c0"/>
<circle cx="836" cy="874" r="8" class="c0"/>
<circle cx="978" cy="648" r="8" class="c0"/>
<circle cx="858" cy="994" r="8" class="c0"/>
<circle cx="978" cy="860" r="8" class="c0"/>
<circle cx="942" cy="552" r="8" class="c0"/>
<circle cx="942" cy="268" r="8" class="c0"/>
<circle cx="842" cy="986" r="8" class="c0"/>
<circle cx="1046" cy="1190" r="8" class="c0"/>
<circle cx="912" cy="20" r="8" class="c0"/>
<circle cx="824" cy="1158" r="8" class="c0"/>
<circle cx="916" cy="1310" r="8" class="c0"/>
<circle cx="986" cy="814" r="8" class="c0"/>
<circle cx="956" cy="704" r="8" class="c0"/>
<circle cx="874" cy="866" r="8" class="c0"/>
<circle cx="888" cy="738" r="8" class="c0"/>
<circle cx="1058" cy="160" r="8" class="c0"/>
<circle cx="816" cy="10" r="8" class="c0"/>
<circle cx="818" cy="1180" r="8" class="c0"/>
<circle cx="930" cy="214" r="8" class="c0"/>
<circle cx="954" cy="70" r="8" class="c0"/>
<circle cx="894" cy="1080" r="8" class="c0"/>
<circle cx="1156" cy="576" r="8" class="c0"/>
<circle cx="960" cy="758" r="8" class="c0"/>
<circle cx="842" cy="820" r="8" class="c0"/>
<circle cx="862" cy="1108" r="8" class="c0"/>
<circle cx="980" cy="834" r="8" class="c0"/>
<circle cx="836" cy="1040" r="8" class="c0"/>
<circle cx="846" cy="1018" r="8" class="c0"/>
<circle cx="994" cy="1280" r="8" class="c0"/>
<circle cx="864" cy="548" r="8" class="c0"/>
<circle cx="954" cy="610" r="8" class="c0"/>
<circle cx="1054" cy="690" r="8" class="c0"/>
<circle cx="960" cy="1022" r="8" class="c0"/>
<circle cx="1188" cy="552" r="8" class="c0"/>
<circle cx="1026" cy="1016" r="8" class="c0"/>
<circle cx="922" cy="34" r="8" class="c0"/>
<circle cx="1056" cy="606" r="8" class="c0"/>
<circle cx="844" cy="1160" r="8" class="c0"/>
<circle cx="846" cy="588" r="8" class="c0"/>
<circle cx="1108" cy="666" r="8" class="c0"/>
<circle cx="940" cy="1152" r="8" class="c0"/>
<circle cx="868" cy="626" r="8" class="c0"/>
<circle cx="1006" cy="1210" r="8" class="c0"/>
<circle cx="850" cy="948" r="8" class="c0"/>
<circle cx="852" cy="898" r="8" class="c0"/>
<circle cx="874" cy="920" r="8" class="c0"/>
<circle cx="1078" cy="34" r="8" class="c0"/>
<circle cx="1040" cy="1134" r="8" class="c0"/>
<circle cx="942" cy="60" r="8" class="c0"/>
<circle cx="834" cy="142" r="8" class="c0"/>
<circle cx="1150" cy="594" r="8" class="c0"/>
<circle cx="988" cy="244" r="8" class="c0"/>
<circle cx="996" cy="1078" r="8" class="c0"/>
<circle cx="816" cy="126" r="8" class="c0"/>
<circle cx="1230" cy="602" r="8" class="c0"/>
<circle cx="978" cy="1192" r="8" class="c0"/>
<circle cx="840" cy="608" r="8" class="c0"/>
<circle cx="864" cy="768" r="8" class="c0"/>
<circle cx="952" cy="1192" r="8" class="c0"/>
<circle cx="950" cy="536" r="8" class="c0"/>
<circle cx="794" cy="706" r="8" class="c0"/>
<circle cx="770" cy="672" r="8" class="c0"/>
<circle cx="872" cy="1092" r="8" class="c0"/>
<circle cx="1056" cy="178" r="8" class="c0"/>
<circle cx="844" cy="1230" r="8" class="c0"/>
<circle cx="954" cy="1114" r="8" class="c0"/>
<circle cx="1034" cy="872" r="8" class="c0"/>
<circle cx="1002" cy="506" r="8" class="c0"/>
<circle cx="960" cy="280" r="8" class="c0"/>
<circle cx="840" cy="854" r="8" class="c0"/>
<circle cx="1000" cy="1126" r="8" class="c0"/>
<circle cx="1014" cy="932" r="8" class="c0"/>
<circle cx="972" cy="1294" r="8" class="c0"/>
<circle cx="1072" cy="680" r="8" class="c0"/>
<circle cx="754" cy="686" r="8" class="c0"/>
<circle cx="958" cy="1308" r="8" class="c0"/>
<circle cx="860" cy="598" r="8" class="c0"/>
<circle cx="994" cy="64" r="8" class="c0"/>
<circle cx="920" cy="854" r="8" class="c0"/>
<circle cx="816" cy="1076" r="8" class="c0"/>
<circle cx="994" cy="634" r="8" class="c0"/>
<circle cx="1012" cy="800" r="8" class="c0"/>
<circle cx="836" cy="576" r="8" class="c0"/>
<circle cx="928" cy="658" r="8" class="c0"/>
<circle cx="910" cy="542" r="8" class="c0"/>
<circle cx="992" cy="708" r="8" class="c0"/>
<circle cx="924" cy="108" r="8" class="c0"/>
<circle cx="946" cy="296" r="8" class="c0"/>
<circle cx="798" cy="642" r="8" class="c0"/>
<circle cx="1164" cy="554" r="8" class="c0"/>
<circle cx="1056" cy="1144" r="8" class="c0"/>
<circle cx="1176" cy="540" r="8" class="c0"/>
<circle cx="996" cy="1254" r="8" class="c0"/>
<circle cx="944" cy="88" r="8" class="c0"/>
<circle cx="980" cy="1168" r="8" class="c0"/>
<circle cx="1032" cy="78" r="8" class="c0"/>
<circle cx="826" cy="1060" r="8" class="c0"/>
<circle cx="806" cy="80" r="8" class="c0"/>
<circle cx="924" cy="1262" r="8" class="c0"/>
<circle cx="940" cy="498" r="8" class="c0"/>
<circle cx="1082" cy="572" r="8" class="c0"/>
<circle cx="904" cy="1214" r="8" class="c0"/>
<circle cx="978" cy="444" r="8" class="c0"/>
<circle cx="826" cy="916" r="8" class="c0"/>
<circle cx="804" cy="958" r="8" class="c0"/>
<circle cx="836" cy="728" r="8" class="c0"/>
<circle cx="876" cy="536" r="8" class="c0"/>
<circle cx="914" cy="494" r="8" class="c0"/>
<circle cx="938" cy="1234" r="8" class="c0"/>
<circle cx="996" cy="792" r="8" class="c0"/>
<circle cx="864" cy="1226" r="8" class="c0"/>
<circle cx="988" cy="974" r="8" class="c0"/>
<circle cx="902" cy="600" r="8" class="c0"/>
<circle cx="926" cy="10" r="8" class="c0"/>
<circle cx="854" cy="130" r="8" class="c0"/>
<circle cx="962" cy="1050" r="8" class="c0"/>
<circle cx="904" cy="952" r="8" class="c0"/>
<circle cx="1016" cy="1000" r="8" class="c0"/>
<circle cx="858" cy="88" r="8" class="c0"/>
<circle cx="844" cy="162" r="8" class="c0"/>
<circle cx="766" cy="1174" r="8" class="c0"/>
<circle cx="940" cy="750" r="8" class="c0"/>
<circle cx="1126" cy="618" r="8" class="c0"/>
<circle cx="1082" cy="662" r="8" class="c0"/>
<circle cx="988" cy="1038" r="8" class="c0"/>
<circle cx="920" cy="742" r="8" class="c0"/>
<circle cx="992" cy="876" r="8" class="c0"/>
<circle cx="958" cy="664" r="8" class="c0"/>
<circle cx="1034" cy="704" r="8" class="c0"/>
<circle cx="882" cy="948" r="8" class="c0"/>
<circle cx="1030" cy="10" r="8" class="c0"/>
<circle cx="958" cy="592" r="8" class="c0"/>
<circle cx="1014" cy="1184" r="8" class="c0"/>
<circle cx="870" cy="146" r="8" class="c0"/>
<circle cx="954" cy="1226" r="8" class="c0"/>
<circle cx="968" cy="716" r="8" class="c0"/>
<circle cx="960" cy="630" r="8" class="c0"/>
<circle cx="910" cy="476" r="8" class="c0"/>
<circle cx="1068" cy="98" r="8" class="c0"/>
<circle cx="968" cy="910" r="8" class="c0"/>
<circle cx="1020" cy="472" r="8" class="c0"/>
<circle cx="928" cy="986" r="8" class="c0"/>
<circle cx="952" cy="16" r="8" class="c0"/>
<circle cx="1020" cy="496" r="8" class="c0"/>
<circle cx="912" cy="242" r="8" class="c0"/>
<circle cx="1002" cy="1058" r="8" class="c0"/>
<circle cx="944" cy="1132" r="8" class="c0"/>
<circle cx="924" cy="194" r="8" class="c0"/>
<circle cx="898" cy="72" r="8" class="c0"/>
<circle cx="1010" cy="716" r="8" class="c0"/>
<circle cx="1002" cy="208" r="8" class="c0"/>
<circle cx="942" cy="720" r="8" class="c0"/>
<circle cx="1044" cy="632" r="8" class="c0"/>
<circle cx="894" cy="140" r="8" class="c0"/>
<circle cx="910" cy="624" r="8" class="c0"/>
<circle cx="990" cy="1220" r="8" class="c0"/>
<circle cx="1044" cy="508" r="8" class="c0"/>
<circle cx="1150" cy="632" r="8" class="c0"/>
<circle cx="784" cy="1132" r="8" class="c0"/>
<circle cx="854" cy="872" r="8" class="c0"/>
<circle cx="770" cy="642" r="8" class="c0"/>
<circle cx="882" cy="496" r="8" class="c0"/>
<circle cx="806" cy="1124" r="8" class="c0"/>
<circle cx="1018" cy="102" r="8" class="c0"/>
<circle cx="1028" cy="670" r="8" class="c0"/>
<circle cx="1180" cy="626" r="8" class="c0"/>
<circle cx="1022" cy="66" r="8" class="c0"/>
<circle cx="906" cy="156" r="8" class="c0"/>
<circle cx="1030" cy="158" r="8" class="c0"/>
<circle cx="1074" cy="618" r="8" class="c0"/>
<circle cx="962" cy="304" r="8" class="c0"/>
<circle cx="946" cy="1296" r="8" class="c0"/>
<circle cx="1002" cy="478" r="8" class="c0"/>
<circle cx="968" cy="460" r="8" class="c0"/>
<circle cx="900" cy="894" r="8" class="c0"/>
<circle cx="1070" cy="872" r="8" class="c0"/>
<circle cx="980" cy="286" r="8" class="c0"/>
<circle cx="848" cy="1056" r="8" class="c0"/>
<circle cx="948" cy="158" r="8" class="c0"/>
<circle cx="982" cy="38" r="8" class="c0"/>
<circle cx="948" cy="582" r="8" class="c0"/>
<circle cx="1054" cy="44" r="8" class="c0"/>
<circle cx="930" cy="160" r="8" class="c0"/>
<circle cx="1092" cy="24" r="8" class="c0"/>
<circle cx="1036" cy="212" r="8" class="c0"/>
<circle cx="816" cy="1106" r="8" class="c0"/>
<circle cx="864" cy="724" r="8" class="c0"/>
<circle cx="858" cy="682" r="8" class="c0"/>
<circle cx="776" cy="1186" r="8" class="c0"/>
<circle cx="880" cy="556" r="8" class="c0"/>
<circle cx="854" cy="1198" r="8" class="c0"/>
<circle cx="968" cy="978" r="8" class="c0"/>
<circle cx="1086" cy="142" r="8" class="c0"/>
<circle cx="920" cy="1192" r="8" class="c0"/>
<circle cx="1018" cy="514" r="8" class="c0"/>
<circle cx="768" cy="700" r="8" class="c0"/>
<circle cx="828" cy="996" r="8" class="c0"/>
<circle cx="1224" cy="582" r="8" class="c0"/>
<circle cx="742" cy="666" r="8" class="c0"/>
<circle cx="926" cy="1036" r="8" class="c0"/>
<circle cx="1008" cy="1290" r="8" class="c0"/>
<circle cx="1032" cy="896" r="8" class="c0"/>
<circle cx="968" cy="8" r="8" class="c0"/>
<circle cx="906" cy="190" r="8" class="c0"/>
<circle cx="922" cy="968" r="8" class="c0"/>
<circle cx="830" cy="836" r="8" class="c0"/>
<circle cx="986" cy="1136" r="8" class="c0"/>
<circle cx="890" cy="910" r="8" class="c0"/>
<circle cx="1058" cy="890" r="8" class="c0"/>
<circle cx="882" cy="838" r="8" class="c0"/>
<circle cx="1006" cy="750" r="8" class="c0"/>
<circle cx="902" cy="34" r="8" class="c0"/>
<circle cx="820" cy="1198" r="8" class="c0"/>
<circle cx="1016" cy="1074" r="8" class="c0"/>
<circle cx="992" cy="1180" r="8" class="c0"/>
<circle cx="914" cy="1082" r="8" class="c0"/>
<circle cx="1034" cy="44" r="8" class="c0"/>
<circle cx="836" cy="118" r="8" class="c0"/>
<circle cx="886" cy="856" r="8" class="c0"/>
<circle cx="1024" cy="1172" r="8" class="c0"/>
<circle cx="852" cy="1098" r="8" class="c0"/>
<circle cx="860" cy="822" r="8" class="c0"/>
<circle cx="916" cy="224" r="8" class="c0"/>
<circle cx="938" cy="1202" r="6" class="c0"/>
<circle cx="932" cy="410" r="6" class="c0"/>
<circle cx="1084" cy="644" r="6" class="c0"/>
<circle cx="1090" cy="6" r="6" class="c0"/>
<circle cx="1134" cy="666" r="6" class="c0"/>
<circle cx="894" cy="662" r="6" class="c0"/>
<circle cx="1174" cy="568" r="6" class="c0"/>
<circle cx="968" cy="806" r="6" class="c0"/>
<circle cx="952" cy="918" r="6" class="c0"/>
<circle cx="864" cy="936" r="6" class="c0"/>
<circle cx="962" cy="88" r="6" class="c0"/>
<circle cx="872" cy="900" r="6" class="c0"/>
<circle cx="970" cy="1010" r="6" class="c0"/>
<circle cx="766" cy="1138" r="6" class="c0"/>
<circle cx="924" cy="1142" r="6" class="c0"/>
<circle cx="922" cy="1170" r="6" class="c0"/>
<circle cx="1178" cy="658" r="6" class="c0"/>
<circle cx="1054" cy="622" r="6" class="c0"/>
<circle cx="902" cy="580" r="6" class="c0"/>
<circle cx="1106" cy="650" r="6" class="c0"/>
<circle cx="1100" cy="104" r="6" class="c0"/>
<circle cx="970" cy="1116" r="6" class="c0"/>
<circle cx="834" cy="52" r="6" class="c0"/>
<circle cx="886" cy="1102" r="6" class="c0"/>
<circle cx="1070" cy="852" r="6" class="c0"/>
<circle cx="888" cy="1170" r="6" class="c0"/>
<circle cx="890" cy="252" r="6" class="c0"/>
<circle cx="1028" cy="842" r="6" class="c0"/>
<circle cx="978" cy="538" r="6" class="c0"/>
<circle cx="860" cy="1030" r="6" class="c0"/>
<circle cx="912" cy="1288" r="6" class="c0"/>
<circle cx="1050" cy="122" r="6" class="c0"/>
<circle cx="1044" cy="542" r="6" class="c0"/>
<circle cx="970" cy="1036" r="6" class="c0"/>
<circle cx="980" cy="694" r="6" class="c0"/>
<circle cx="872" cy="12" r="6" class="c0"/>
<circle cx="830" cy="170" r="6" class="c0"/>
<circle cx="798" cy="1182" r="6" class="c0"/>
<circle cx="844" cy="1002" r="6" class="c0"/>
<circle cx="1054" cy="1208" r="6" class="c0"/>
<circle cx="932" cy="782" r="6" class="c0"/>
<circle cx="878" cy="1112" r="6" class="c0"/>
<circle cx="1052" cy="196" r="6" class="c0"/>
<circle cx="900" cy="1010" r="6" class="c0"/>
<circle cx="932" cy="514" r="6" class="c0"/>
<circle cx="844" cy="802" r="6" class="c0"/>
<circle cx="980" cy="990" r="6" class="c0"/>
<circle cx="1016" cy="962" r="6" class="c0"/>
<circle cx="1088" cy="540" r="6" class="c0"/>
<circle cx="818" cy="36" r="6" class="c0"/>
<circle cx="956" cy="124" r="6" class="c0"/>
<circle cx="1058" cy="1160" r="6" class="c0"/>
<circle cx="866" cy="1242" r="6" class="c0"/>
<circle cx="800" cy="96" r="6" class="c0"/>
<circle cx="734" cy="720" r="6" class="c0"/>
<circle cx="836" cy="1140" r="6" class="c0"/>
<circle cx="884" cy="1154" r="6" class="c0"/>
<circle cx="1028" cy="1032" r="6" class="c0"/>
<circle cx="1038" cy="682" r="6" class="c0"/>
<circle cx="796" cy="1144" r="6" class="c0"/>
<circle cx="786" cy="1172" r="6" class="c0"/>
<circle cx="1140" cy="604" r="6" class="c0"/>
<circle cx="838" cy="906" r="6" class="c0"/>
<circle cx="892" cy="706" r="6" class="c0"/>
<circle cx="804" cy="1096" r="6" class="c0"/>
<circle cx="994" cy="614" r="6" class="c0"/>
<circle cx="992" cy="576" r="6" class="c0"/>
<circle cx="1030" cy="544" r="6" class="c0"/>
<circle cx="1088" cy="516" r="6" class="c0"/>
<circle cx="868" cy="1012" r="6" class="c0"/>
<circle cx="858" cy="642" r="6" class="c0"/>
<circle cx="920" cy="644" r="6" class="c0"/>
<circle cx="966" cy="532" r="6" class="c0"/>
<circle cx="854" cy="152" r="6" class="c0"/>
<circle cx="1046" cy="596" r="6" class="c0"/>
<circle cx="1012" cy="676" r="6" class="c0"/>
<circle cx="1214" cy="608" r="6" class="c0"/>
<circle cx="1050" cy="1120" r="6" class="c0"/>
<circle cx="834" cy="14" r="6" class="c0"/>
<circle cx="898" cy="464" r="6" class="c0"/>
<circle cx="1026" cy="30" r="6" class="c0"/>
<circle cx="906" cy="1068" r="6" class="c0"/>
<circle cx="1012" cy="582" r="6" class="c0"/>
<circle cx="820" cy="574" r="6" class="c0"/>
<circle cx="992" cy="1154" r="6" class="c0"/>
<circle cx="760" cy="652" r="6" class="c0"/>
<circle cx="1014" cy="778" r="6" class="c0"/>
<circle cx="1044" cy="138" r="6" class="c0"/>
<circle cx="926" cy="558" r="6" class="c0"/>
<circle cx="928" cy="466" r="6" class="c0"/>
<circle cx="1052" cy="6" r="6" class="c0"/>
<circle cx="1008" cy="952" r="6" class="c0"/>
<circle cx="978" cy="794" r="6" class="c0"/>
<circle cx="998" cy="254" r="6" class="c0"/>
<circle cx="926" cy="726" r="6" class="c0"/>
<circle cx="990" cy="916" r="6" class="c0"/>
<circle cx="982" cy="1018" r="6" class="c0"/>
<circle cx="1036" cy="654" r="6" class="c0"/>
<circle cx="984" cy="622" r="6" class="c0"/>
<circle cx="738" cy="650" r="6" class="c0"/>
<circle cx="962" cy="202" r="6" class="c0"/>
<circle cx="938" cy="1310" r="6" class="c0"/>
<circle cx="916" cy="92" r="6" class="c0"/>
<circle cx="868" cy="1074" r="6" class="c0"/>
<circle cx="906" cy="648" r="6" class="c0"/>
<circle cx="1014" cy="816" r="6" class="c0"/>
<circle cx="824" cy="694" r="6" class="c0"/>
<circle cx="890" cy="544" r="6" class="c0"/>
<circle cx="1056" cy="110" r="6" class="c0"/>
<circle cx="912" cy="1046" r="6" class="c0"/>
<circle cx="944" cy="520" r="6" class="c0"/>
<circle cx="866" cy="184" r="6" class="c0"/>
<circle cx="940" cy="596" r="6" class="c0"/>
<circle cx="1008" cy="880" r="6" class="c0"/>
<circle cx="854" cy="618" r="6" class="c0"/>
<circle cx="986" cy="222" r="6" class="c0"/>
<circle cx="936" cy="1116" r="6" class="c0"/>
<circle cx="958" cy="490" r="6" class="c0"/>
<circle cx="824" cy="152" r="6" class="c0"/>
<circle cx="736" cy="688" r="6" class="c0"/>
<circle cx="834" cy="1170" r="6" class="c0"/>
<circle cx="1088" cy="70" r="6" class="c0"/>
<circle cx="890" cy="86" r="6" class="c0"/>
<circle cx="796" cy="46" r="6" class="c0"/>
<circle cx="894" cy="826" r="6" class="c0"/>
<circle cx="936" cy="20" r="6" class="c0"/>
<circle cx="980" cy="1080" r="6" class="c0"/>
<circle cx="1044" cy="168" r="6" class="c0"/>
<circle cx="1004" cy="922" r="6" class="c0"/>
<circle cx="958" cy="860" r="6" class="c0"/>
<circle cx="934" cy="734" r="6" class="c0"/>
<circle cx="808" cy="112" r="6" class="c0"/>
<circle cx="816" cy="640" r="6" class="c0"/>
<circle cx="864" cy="888" r="6" class="c0"/>
<circle cx="1020" cy="566" r="6" class="c0"/>
<circle cx="858" cy="1066" r="6" class="c0"/>
<circle cx="836" cy="660" r="6" class="c0"/>
<circle cx="874" cy="672" r="6" class="c0"/>
<circle cx="936" cy="1076" r="6" class="c0"/>
<circle cx="932" cy="916" r="6" class="c0"/>
<circle cx="1086" cy="628" r="6" class="c0"/>
<circle cx="888" cy="964" r="6" class="c0"/>
<circle cx="838" cy="930" r="6" class="c0"/>
<circle cx="1018" cy="534" r="6" class="c0"/>
<circle cx="1014" cy="20" r="6" class="c0"/>
<circle cx="822" cy="612" r="6" class="c0"/>
<circle cx="832" cy="746" r="6" class="c0"/>
<circle cx="1036" cy="494" r="6" class="c0"/>
<circle cx="930" cy="448" r="6" class="c0"/>
<circle cx="898" cy="502" r="6" class="c0"/>
<circle cx="1198" cy="658" r="6" class="c0"/>
<circle cx="1002" cy="1230" r="6" class="c0"/>
<circle cx="1186" cy="650" r="6" class="c0"/>
<circle cx="774" cy="1122" r="6" class="c0"/>
<circle cx="1026" cy="628" r="6" class="c0"/>
<circle cx="906" cy="776" r="6" class="c0"/>
<circle cx="1012" cy="1044" r="6" class="c0"/>
<circle cx="998" cy="860" r="6" class="c0"/>
<circle cx="1180" cy="602" r="6" class="c0"/>
<circle cx="816" cy="676" r="6" class="c0"/>
<circle cx="1092" cy="652" r="6" class="c0"/>
<circle cx="936" cy="1026" r="6" class="c0"/>
<circle cx="928" cy="50" r="6" class="c0"/>
<circle cx="1008" cy="844" r="6" class="c0"/>
<circle cx="1104" cy="546" r="6" class="c0"/>
<circle cx="906" cy="214" r="6" class="c0"/>
<circle cx="950" cy="786" r="6" class="c0"/>
<circle cx="1080" cy="728" r="6" class="c0"/>
<circle cx="962" cy="326" r="6" class="c0"/>
<circle cx="1056" cy="548" r="6" class="c0"/>
<circle cx="1020" cy="246" r="6" class="c0"/>
<circle cx="854" cy="780" r="6" class="c0"/>
<circle cx="1118" cy="604" r="6" class="c0"/>
<circle cx="894" cy="1112" r="6" class="c0"/>
<circle cx="758" cy="620" r="6" class="c0"/>
<circle cx="804" cy="668" r="6" class="c0"/>
<circle cx="958" cy="794" r="6" class="c0"/>
<circle cx="1062" cy="30" r="6" class="c0"/>
<circle cx="1080" cy="170" r="6" class="c0"/>
<circle cx="900" cy="1198" r="6" class="c0"/>
<circle cx="944" cy="1058" r="6" class="c0"/>
<circle cx="976" cy="632" r="6" class="c0"/>
<circle cx="940" cy="670" r="6" class="c0"/>
<circle cx="1094" cy="618" r="6" class="c0"/>
<circle cx="946" cy="1212" r="6" class="c0"/>
<circle cx="998" cy="130" r="6" class="c0"/>
<circle cx="948" cy="106" r="6" class="c0"/>
<circle cx="1110" cy="18" r="6" class="c0"/>
<circle cx="984" cy="1270" r="6" class="c0"/>
<circle cx="1170" cy="670" r="6" class="c0"/>
<circle cx="1018" cy="832" r="6" class="c0"/>
<circle cx="884" cy="476" r="6" class="c0"/>
<circle cx="924" cy="802" r="6" class="c0"/>
<circle cx="902" cy="126" r="6" class="c0"/>
<circle cx="1048" cy="902" r="6" class="c0"/>
<circle cx="852" cy="1216" r="6" class="c0"/>
<circle cx="1016" cy="914" r="6" class="c0"/>
<circle cx="904" cy="1038" r="6" class="c0"/>
<circle cx="836" cy="92" r="6" class="c0"/>
<circle cx="1004" cy="1110" r="6" class="c0"/>
<circle cx="864" cy="110" r="6" class="c0"/>
<circle cx="1110" cy="612" r="6" class="c0"/>
<circle cx="898" cy="170" r="6" class="c0"/>
<circle cx="966" cy="688" r="6" class="c0"/>
<circle cx="852" cy="1038" r="6" class="c0"/>
<circle cx="992" cy="494" r="6" class="c0"/>
<circle cx="1140" cy="522" r="6" class="c0"/>
<circle cx="1066" cy="718" r="6" class="c0"/>
<circle cx="890" cy="44" r="6" class="c0"/>
<circle cx="942" cy="6" r="6" class="c0"/>
<circle cx="1098" cy="676" r="6" class="c0"/>
<circle cx="840" cy="960" r="6" class="c0"/>
<circle cx="926" cy="686" r="6" class="c0"/>
<circle cx="984" cy="186" r="6" class="c0"/>
<circle cx="952" cy="314" r="6" class="c0"/>
<circle cx="794" cy="108" r="6" class="c0"/>
<circle cx="868" cy="164" r="6" class="c0"/>
<circle cx="1068" cy="188" r="6" class="c0"/>
<circle cx="1112" cy="52" r="6" class="c0"/>
<circle cx="796" cy="68" r="6" class="c0"/>
<circle cx="790" cy="86" r="6" class="c0"/>
<circle cx="970" cy="962" r="6" class="c0"/>
<circle cx="940" cy="204" r="6" class="c0"/>
<circle cx="818" cy="726" r="6" class="c0"/>
<circle cx="830" cy="594" r="6" class="c0"/>
<circle cx="972" cy="246" r="6" class="c0"/>
<circle cx="1114" cy="588" r="6" class="c0"/>
<circle cx="902" cy="258" r="6" class="c0"/>
<circle cx="914" cy="118" r="6" class="c0"/>
<circle cx="914" cy="206" r="6" class="c0"/>
<circle cx="938" cy="146" r="6" class="c0"/>
<circle cx="934" cy="98" r="6" class="c0"/>
<circle cx="1084" cy="100" r="6" class="c0"/>
<circle cx="930" cy="1162" r="6" class="c0"/>
<circle cx="816" cy="1214" r="6" class="c0"/>
<circle cx="998" cy="984" r="6" class="c0"/>
<circle cx="860" cy="1182" r="6" class="c0"/>
<circle cx="1206" cy="668" r="6" class="c0"/>
<circle cx="952" cy="844" r="6" class="c0"/>
<circle cx="856" cy="192" r="6" class="c0"/>
<circle cx="986" cy="782" r="6" class="c0"/>
<circle cx="1022" cy="1096" r="6" class="c0"/>
<circle cx="992" cy="48" r="6" class="c0"/>
<circle cx="954" cy="194" r="6" class="c0"/>
<circle cx="924" cy="924" r="6" class="c0"/>
<circle cx="906" cy="1136" r="6" class="c0"/>
<circle cx="864" cy="908" r="6" class="c0"/>
<circle cx="1166" cy="592" r="6" class="c0"/>
<circle cx="922" cy="838" r="6" class="c0"/>
<circle cx="908" cy="84" r="6" class="c0"/>
<circle cx="846" cy="184" r="6" class="c0"/>
<circle cx="786" cy="1104" r="6" class="c0"/>
</svg>
