<?xml version="1.0" encoding="utf-8"?>
<svg xmlns="http://www.w3.org/2000/svg"
     xmlns:xlink="http://www.w3.org/1999/xlink" width="1920" height="1440" >

            <defs>
            <style type="text/css"><![CDATA[
circle {stroke: none;}
.c0 {fill: #FFFFFF;}
]]></style>
            </defs>
<rect x="0" y="0" width="1920" height="1440" fill="black"/>
<circle cx="942" cy="1010" r="12" class="c0"/>
<circle cx="1016" cy="204" r="12" class="c0"/>
<circle cx="1048" cy="1080" r="12" class="c0"/>
<circle cx="1092" cy="542" r="12" class="c0"/>
<circle cx="1232" cy="578" r="12" class="c0"/>
<circle cx="1010" cy="848" r="12" class="c0"/>
<circle cx="1018" cy="786" r="12" class="c0"/>
<circle cx="1134" cy="644" r="12" class="c0"/>
<circle cx="964" cy="214" r="12" class="c0"/>
<circle cx="896" cy="138" r="12" class="c0"/>
<circle cx="948" cy="658" r="12" class="c0"/>
<circle cx="992" cy="568" r="12" class="c0"/>
<circle cx="852" cy="1088" r="12" class="c0"/>
<circle cx="830" cy="1132" r="12" class="c0"/>
<circle cx="924" cy="804" r="12" class="c0"/>
<circle cx="908" cy="854" r="12" class="c0"/>
<circle cx="1016" cy="926" r="12" class="c0"/>
<circle cx="1038" cy="560" r="12" class="c0"/>
<circle cx="1022" cy="1106" r="12" class="c0"/>
<circle cx="828" cy="1170" r="12" class="c0"/>
<circle cx="1132" cy="566" r="12" class="c0"/>
<circle cx="1004" cy="620" r="12" class="c0"/>
<circle cx="1004" cy="38" r="12" class="c0"/>
<circle cx="996" cy="1162" r="12" class="c0"/>
<circle cx="978" cy="864" r="12" class="c0"/>
<circle cx="1058" cy="572" r="12" class="c0"/>
<circle cx="994" cy="682" r="12" class="c0"/>
<circle cx="894" cy="1164" r="12" class="c0"/>
<circle cx="922" cy="474" r="12" class="c0"/>
<circle cx="896" cy="528" r="12" class="c0"/>
<circle cx="892" cy="1102" r="12" class="c0"/>
<circle cx="988" cy="504" r="12" class="c0"/>
<circle cx="812" cy="66" r="12" class="c0"/>
<circle cx="966" cy="930" r="12" class="c0"/>
<circle cx="866" cy="818" r="12" class="c0"/>
<circle cx="978" cy="532" r="12" class="c0"/>
<circle cx="1036" cy="610" r="12" class="c0"/>
<circle cx="928" cy="1216" r="12" class="c0"/>
<circle cx="924" cy="914" r="12" class="c0"/>
<circle cx="936" cy="230" r="12" class="c0"/>
<circle cx="940" cy="1062" r="12" class="c0"/>
<circle cx="882" cy="956" r="12" class="c0"/>
<circle cx="946" cy="744" r="12" class="c0"/>
<circle cx="1010" cy="492" r="12" class="c0"/>
<circle cx="1016" cy="1052" r="12" class="c0"/>
<circle cx="990" cy="146" r="12" class="c0"/>
<circle cx="1016" cy="526" r="12" class="c0"/>
<circle cx="1086" cy="16" r="12" class="c0"/>
<circle cx="942" cy="1114" r="12" class="c0"/>
<circle cx="1016" cy="166" r="12" class="c0"/>
<circle cx="1162" cy="544" r="12" class="c0"/>
<circle cx="1040" cy="1044" r="12" class="c0"/>
<circle cx="908" cy="26" r="12" class="c0"/>
<circle cx="956" cy="496" r="12" class="c0"/>
<circle cx="1024" cy="744" r="12" class="c0"/>
<circle cx="990" cy="728" r="12" class="c0"/>
<circle cx="966" cy="984" r="12" class="c0"/>
<circle cx="878" cy="82" r="12" class="c0"/>
<circle cx="918" cy="622" r="12" class="c0"/>
<circle cx="880" cy="584" r="12" class="c0"/>
<circle cx="884" cy="652" r="10" class="c0"/>
<circle cx="826" cy="92" r="10" class="c0"/>
<circle cx="1008" cy="658" r="10" class="c0"/>
<circle cx="858" cy="1148" r="10" class="c0"/>
<circle cx="972" cy="764" r="10" class="c0"/>
<circle cx="886" cy="1052" r="10" class="c0"/>
<circle cx="986" cy="92" r="10" class="c0"/>
<circle cx="878" cy="1134" r="10" class="c0"/>
<circle cx="1246" cy="562" r="10" class="c0"/>
<circle cx="858" cy="1000" r="10" class="c0"/>
<circle cx="1046" cy="530" r="10" class="c0"/>
<circle cx="870" cy="610" r="10" class="c0"/>
<circle cx="964" cy="588" r="10" class="c0"/>
<circle cx="1010" cy="1176" r="10" class="c0"/>
<circle cx="972" cy="80" r="10" class="c0"/>
<circle cx="1022" cy="452" r="10" class="c0"/>
<circle cx="1048" cy="858" r="10" class="c0"/>
<circle cx="1020" cy="1078" r="10" class="c0"/>
<circle cx="1004" cy="1244" r="10" class="c0"/>
<circle cx="1000" cy="118" r="10" class="c0"/>
<circle cx="1108" cy="558" r="10" class="c0"/>
<circle cx="956" cy="616" r="10" class="c0"/>
<circle cx="892" cy="916" r="10" class="c0"/>
<circle cx="1044" cy="488" r="10" class="c0"/>
<circle cx="938" cy="128" r="10" class="c0"/>
<circle cx="970" cy="52" r="10" class="c0"/>
<circle cx="1008" cy="818" r="10" class="c0"/>
<circle cx="1196" cy="602" r="10" class="c0"/>
<circle cx="956" cy="282" r="10" class="c0"/>
<circle cx="956" cy="1142" r="10" class="c0"/>
<circle cx="898" cy="98" r="10" class="c0"/>
<circle cx="1020" cy="110" r="10" class="c0"/>
<circle cx="954" cy="164" r="10" class="c0"/>
<circle cx="934" cy="446" r="10" class="c0"/>
<circle cx="1160" cy="580" r="10" class="c0"/>
<circle cx="938" cy="1160" r="10" class="c0"/>
<circle cx="990" cy="1186" r="10" class="c0"/>
<circle cx="1160" cy="614" r="10" class="c0"/>
<circle cx="896" cy="62" r="10" class="c0"/>
<circle cx="746" cy="662" r="10" class="c0"/>
<circle cx="1068" cy="110" r="10" class="c0"/>
<circle cx="814" cy="928" r="10" class="c0"/>
<circle cx="1040" cy="672" r="10" class="c0"/>
<circle cx="1200" cy="566" r="10" class="c0"/>
<circle cx="912" cy="82" r="10" class="c0"/>
<circle cx="840" cy="674" r="10" class="c0"/>
<circle cx="1186" cy="578" r="10" class="c0"/>
<circle cx="938" cy="16" r="10" class="c0"/>
<circle cx="922" cy="1144" r="10" class="c0"/>
<circle cx="960" cy="1034" r="10" class="c0"/>
<circle cx="962" cy="454" r="10" class="c0"/>
<circle cx="1112" cy="624" r="10" class="c0"/>
<circle cx="892" cy="750" r="10" class="c0"/>
<circle cx="994" cy="984" r="10" class="c0"/>
<circle cx="918" cy="774" r="10" class="c0"/>
<circle cx="940" cy="860" r="10" class="c0"/>
<circle cx="1040" cy="1130" r="10" class="c0"/>
<circle cx="1182" cy="554" r="10" class="c0"/>
<circle cx="862" cy="22" r="10" class="c0"/>
<circle cx="890" cy="212" r="10" class="c0"/>
<circle cx="844" cy="978" r="10" class="c0"/>
<circle cx="1060" cy="640" r="10" class="c0"/>
<circle cx="1056" cy="1144" r="10" class="c0"/>
<circle cx="1108" cy="514" r="10" class="c0"/>
<circle cx="818" cy="616" r="10" class="c0"/>
<circle cx="918" cy="198" r="10" class="c0"/>
<circle cx="886" cy="830" r="10" class="c0"/>
<circle cx="776" cy="654" r="10" class="c0"/>
<circle cx="1086" cy="44" r="10" class="c0"/>
<circle cx="926" cy="94" r="10" class="c0"/>
<circle cx="1026" cy="14" r="10" class="c0"/>
<circle cx="954" cy="700" r="10" class="c0"/>
<circle cx="890" cy="776" r="10" class="c0"/>
<circle cx="850" cy="130" r="10" class="c0"/>
<circle cx="1000" cy="1208" r="10" class="c0"/>
<circle cx="906" cy="946" r="10" class="c0"/>
<circle cx="844" cy="48" r="10" class="c0"/>
<circle cx="882" cy="860" r="10" class="c0"/>
<circle cx="1068" cy="602" r="10" class="c0"/>
<circle cx="924" cy="832" r="10" class="c0"/>
<circle cx="988" cy="922" r="10" class="c0"/>
<circle cx="1182" cy="624" r="10" class="c0"/>
<circle cx="874" cy="1020" r="10" class="c0"/>
<circle cx="956" cy="252" r="10" class="c0"/>
<circle cx="920" cy="1290" r="10" class="c0"/>
<circle cx="940" cy="930" r="10" class="c0"/>
<circle cx="1030" cy="820" r="10" class="c0"/>
<circle cx="810" cy="676" r="10" class="c0"/>
<circle cx="1028" cy="966" r="10" class="c0"/>
<circle cx="908" cy="1206" r="10" class="c0"/>
<circle cx="962" cy="790" r="10" class="c0"/>
<circle cx="1030" cy="1160" r="10" class="c0"/>
<circle cx="976" cy="638" r="10" class="c0"/>
<circle cx="782" cy="706" r="10" class="c0"/>
<circle cx="910" cy="692" r="10" class="c0"/>
<circle cx="888" cy="994" r="10" class="c0"/>
<circle cx="1044" cy="1186" r="10" class="c0"/>
<circle cx="794" cy="616" r="10" class="c0"/>
<circle cx="968" cy="960" r="10" class="c0"/>
<circle cx="928" cy="40" r="10" class="c0"/>
<circle cx="984" cy="190" r="10" class="c0"/>
<circle cx="1074" cy="1106" r="10" class="c0"/>
<circle cx="814" cy="1118" r="10" class="c0"/>
<circle cx="1106" cy="596" r="10" class="c0"/>
<circle cx="1054" cy="88" r="10" class="c0"/>
<circle cx="968" cy="830" r="10" class="c0"/>
<circle cx="870" cy="918" r="10" class="c0"/>
<circle cx="978" cy="1050" r="10" class="c0"/>
<circle cx="1086" cy="646" r="10" class="c0"/>
<circle cx="934" cy="722" r="10" class="c0"/>
<circle cx="982" cy="1072" r="10" class="c0"/>
<circle cx="910" cy="230" r="10" class="c0"/>
<circle cx="990" cy="788" r="10" class="c0"/>
<circle cx="922" cy="170" r="10" class="c0"/>
<circle cx="1072" cy="868" r="10" class="c0"/>
<circle cx="938" cy="590" r="10" class="c0"/>
<circle cx="912" cy="1006" r="10" class="c0"/>
<circle cx="938" cy="542" r="10" class="c0"/>
<circle cx="886" cy="682" r="10" class="c0"/>
<circle cx="1016" cy="596" r="10" class="c0"/>
<circle cx="1096" cy="664" r="10" class="c0"/>
<circle cx="856" cy="574" r="10" class="c0"/>
<circle cx="798" cy="656" r="10" class="c0"/>
<circle cx="922" cy="886" r="10" class="c0"/>
<circle cx="916" cy="538" r="10" class="c0"/>
<circle cx="946" cy="78" r="10" class="c0"/>
<circle cx="954" cy="1172" r="10" class="c0"/>
<circle cx="882" cy="898" r="10" class="c0"/>
<circle cx="990" cy="434" r="10" class="c0"/>
<circle cx="1024" cy="1022" r="10" class="c0"/>
<circle cx="1230" cy="548" r="10" class="c0"/>
<circle cx="912" cy="114" r="10" class="c0"/>
<circle cx="948" cy="812" r="10" class="c0"/>
<circle cx="1110" cy="650" r="10" class="c0"/>
<circle cx="870" cy="872" r="10" class="c0"/>
<circle cx="864" cy="144" r="10" class="c0"/>
<circle cx="946" cy="198" r="10" class="c0"/>
<circle cx="972" cy="670" r="10" class="c0"/>
<circle cx="1018" cy="84" r="10" class="c0"/>
<circle cx="854" cy="1056" r="10" class="c0"/>
<circle cx="838" cy="600" r="10" class="c0"/>
<circle cx="840" cy="104" r="10" class="c0"/>
<circle cx="1044" cy="70" r="10" class="c0"/>
<circle cx="980" cy="1146" r="8" class="c0"/>
<circle cx="1040" cy="466" r="8" class="c0"/>
<circle cx="828" cy="638" r="8" class="c0"/>
<circle cx="912" cy="650" r="8" class="c0"/>
<circle cx="898" cy="474" r="8" class="c0"/>
<circle cx="832" cy="122" r="8" class="c0"/>
<circle cx="802" cy="1164" r="8" class="c0"/>
<circle cx="926" cy="1252" r="8" class="c0"/>
<circle cx="986" cy="470" r="8" class="c0"/>
<circle cx="882" cy="166" r="8" class="c0"/>
<circle cx="958" cy="848" r="8" class="c0"/>
<circle cx="894" cy="720" r="8" class="c0"/>
<circle cx="1024" cy="142" r="8" class="c0"/>
<circle cx="1010" cy="904" r="8" class="c0"/>
<circle cx="970" cy="1108" r="8" class="c0"/>
<circle cx="978" cy="168" r="8" class="c0"/>
<circle cx="884" cy="18" r="8" class="c0"/>
<circle cx="970" cy="268" r="8" class="c0"/>
<circle cx="986" cy="212" r="8" class="c0"/>
<circle cx="848" cy="866" r="8" class="c0"/>
<circle cx="988" cy="946" r="8" class="c0"/>
<circle cx="924" cy="956" r="8" class="c0"/>
<circle cx="1054" cy="138" r="8" class="c0"/>
<circle cx="1158" cy="638" r="8" class="c0"/>
<circle cx="924" cy="746" r="8" class="c0"/>
<circle cx="874" cy="1196" r="8" class="c0"/>
<circle cx="938" cy="686" r="8" class="c0"/>
<circle cx="1038" cy="194" r="8" class="c0"/>
<circle cx="778" cy="626" r="8" class="c0"/>
<circle cx="1058" cy="680" r="8" class="c0"/>
<circle cx="904" cy="1062" r="8" class="c0"/>
<circle cx="840" cy="910" r="8" class="c0"/>
<circle cx="918" cy="596" r="8" class="c0"/>
<circle cx="1008" cy="756" r="8" class="c0"/>
<circle cx="1004" cy="882" r="8" class="c0"/>
<circle cx="850" cy="158" r="8" class="c0"/>
<circle cx="966" cy="900" r="8" class="c0"/>
<circle cx="1080" cy="682" r="8" class="c0"/>
<circle cx="880" cy="798" r="8" class="c0"/>
<circle cx="974" cy="740" r="8" class="c0"/>
<circle cx="988" cy="1130" r="8" class="c0"/>
<circle cx="906" cy="1180" r="8" class="c0"/>
<circle cx="916" cy="58" r="8" class="c0"/>
<circle cx="992" cy="10" r="8" class="c0"/>
<circle cx="948" cy="1208" r="8" class="c0"/>
<circle cx="1072" cy="1056" r="8" class="c0"/>
<circle cx="916" cy="1030" r="8" class="c0"/>
<circle cx="912" cy="514" r="8" class="c0"/>
<circle cx="940" cy="632" r="8" class="c0"/>
<circle cx="1062" cy="662" r="8" class="c0"/>
<circle cx="966" cy="142" r="8" class="c0"/>
<circle cx="1024" cy="888" r="8" class="c0"/>
<circle cx="960" cy="12" r="8" class="c0"/>
<circle cx="938" cy="1032" r="8" class="c0"/>
<circle cx="1058" cy="36" r="8" class="c0"/>
<circle cx="1204" cy="626" r="8" class="c0"/>
<circle cx="914" cy="1100" r="8" class="c0"/>
<circle cx="974" cy="1170" r="8" class="c0"/>
<circle cx="868" cy="692" r="8" class="c0"/>
<circle cx="938" cy="512" r="8" class="c0"/>
<circle cx="1040" cy="836" r="8" class="c0"/>
<circle cx="764" cy="680" r="8" class="c0"/>
<circle cx="1016" cy="1262" r="8" class="c0"/>
<circle cx="884" cy="562" r="8" class="c0"/>
<circle cx="930" cy="1186" r="8" class="c0"/>
<circle cx="836" cy="576" r="8" class="c0"/>
<circle cx="800" cy="1134" r="8" class="c0"/>
<circle cx="842" cy="942" r="8" class="c0"/>
<circle cx="1018" cy="1196" r="8" class="c0"/>
<circle cx="1004" cy="1142" r="8" class="c0"/>
<circle cx="1064" cy="516" r="8" class="c0"/>
<circle cx="850" cy="958" r="8" class="c0"/>
<circle cx="998" cy="1106" r="8" class="c0"/>
<circle cx="942" cy="58" r="8" class="c0"/>
<circle cx="1002" cy="64" r="8" class="c0"/>
<circle cx="970" cy="1016" r="8" class="c0"/>
<circle cx="1082" cy="84" r="8" class="c0"/>
<circle cx="836" cy="14" r="8" class="c0"/>
<circle cx="1000" cy="1024" r="8" class="c0"/>
<circle cx="1142" cy="522" r="8" class="c0"/>
<circle cx="846" cy="1182" r="8" class="c0"/>
<circle cx="954" cy="946" r="8" class="c0"/>
<circle cx="878" cy="188" r="8" class="c0"/>
<circle cx="1082" cy="126" r="8" class="c0"/>
<circle cx="962" cy="1192" r="8" class="c0"/>
<circle cx="862" cy="672" r="8" class="c0"/>
<circle cx="1076" cy="64" r="8" class="c0"/>
<circle cx="944" cy="462" r="8" class="c0"/>
<circle cx="1032" cy="906" r="8" class="c0"/>
<circle cx="1080" cy="850" r="8" class="c0"/>
<circle cx="1038" cy="50" r="8" class="c0"/>
<circle cx="1034" cy="650" r="8" class="c0"/>
<circle cx="1028" cy="542" r="8" class="c0"/>
<circle cx="888" cy="628" r="8" class="c0"/>
<circle cx="786" cy="682" r="8" class="c0"/>
<circle cx="860" cy="892" r="8" class="c0"/>
<circle cx="906" cy="668" r="8" class="c0"/>
<circle cx="828" cy="694" r="8" class="c0"/>
<circle cx="930" cy="648" r="8" class="c0"/>
<circle cx="862" cy="60" r="8" class="c0"/>
<circle cx="1064" cy="156" r="8" class="c0"/>
<circle cx="884" cy="118" r="8" class="c0"/>
<circle cx="1038" cy="118" r="8" class="c0"/>
<circle cx="1064" cy="1174" r="8" class="c0"/>
<circle cx="1200" cy="534" r="8" class="c0"/>
<circle cx="940" cy="896" r="8" class="c0"/>
<circle cx="972" cy="718" r="8" class="c0"/>
<circle cx="942" cy="106" r="8" class="c0"/>
<circle cx="964" cy="558" r="8" class="c0"/>
<circle cx="942" cy="964" r="8" class="c0"/>
<circle cx="1024" cy="506" r="8" class="c0"/>
<circle cx="1120" cy="536" r="8" class="c0"/>
<circle cx="860" cy="944" r="8" class="c0"/>
<circle cx="966" cy="102" r="8" class="c0"/>
<circle cx="1210" cy="586" r="8" class="c0"/>
<circle cx="1044" cy="1018" r="8" class="c0"/>
<circle cx="882" cy="1082" r="8" class="c0"/>
<circle cx="960" cy="1098" r="8" class="c0"/>
<circle cx="1068" cy="498" r="8" class="c0"/>
<circle cx="834" cy="886" r="8" class="c0"/>
<circle cx="806" cy="636" r="8" class="c0"/>
<circle cx="900" cy="794" r="8" class="c0"/>
<circle cx="988" cy="808" r="8" class="c0"/>
<circle cx="952" cy="28" r="8" class="c0"/>
<circle cx="810" cy="34" r="8" class="c0"/>
<circle cx="1006" cy="1124" r="8" class="c0"/>
<circle cx="912" cy="1118" r="8" class="c0"/>
<circle cx="850" cy="652" r="8" class="c0"/>
<circle cx="812" cy="584" r="8" class="c0"/>
<circle cx="820" cy="24" r="8" class="c0"/>
<circle cx="936" cy="564" r="8" class="c0"/>
<circle cx="980" cy="604" r="8" class="c0"/>
<circle cx="898" cy="606" r="8" class="c0"/>
<circle cx="912" cy="1080" r="8" class="c0"/>
<circle cx="1044" cy="1104" r="8" class="c0"/>
<circle cx="1056" cy="8" r="8" class="c0"/>
<circle cx="898" cy="640" r="8" class="c0"/>
<circle cx="962" cy="184" r="8" class="c0"/>
<circle cx="856" cy="1170" r="8" class="c0"/>
<circle cx="1076" cy="1126" r="8" class="c0"/>
<circle cx="976" cy="886" r="8" class="c0"/>
<circle cx="878" cy="544" r="8" class="c0"/>
<circle cx="1222" cy="612" r="8" class="c0"/>
<circle cx="900" cy="504" r="8" class="c0"/>
<circle cx="1006" cy="232" r="8" class="c0"/>
<circle cx="996" cy="962" r="8" class="c0"/>
<circle cx="872" cy="638" r="8" class="c0"/>
<circle cx="1006" cy="470" r="8" class="c0"/>
<circle cx="862" cy="110" r="8" class="c0"/>
<circle cx="1052" cy="998" r="8" class="c0"/>
<circle cx="924" cy="500" r="8" class="c0"/>
<circle cx="1020" cy="570" r="8" class="c0"/>
<circle cx="918" cy="136" r="8" class="c0"/>
<circle cx="1014" cy="982" r="8" class="c0"/>
<circle cx="1032" cy="990" r="8" class="c0"/>
<circle cx="1020" cy="680" r="8" class="c0"/>
<circle cx="1094" cy="574" r="8" class="c0"/>
<circle cx="980" cy="234" r="8" class="c0"/>
<circle cx="908" cy="966" r="8" class="c0"/>
<circle cx="844" cy="84" r="8" class="c0"/>
<circle cx="918" cy="710" r="8" class="c0"/>
<circle cx="822" cy="664" r="8" class="c0"/>
<circle cx="998" cy="546" r="8" class="c0"/>
<circle cx="852" cy="928" r="8" class="c0"/>
<circle cx="932" cy="986" r="8" class="c0"/>
<circle cx="894" cy="876" r="8" class="c0"/>
<circle cx="1002" cy="1294" r="8" class="c0"/>
<circle cx="830" cy="952" r="8" class="c0"/>
<circle cx="1118" cy="672" r="8" class="c0"/>
<circle cx="1000" cy="710" r="8" class="c0"/>
<circle cx="864" cy="974" r="8" class="c0"/>
<circle cx="1032" cy="940" r="8" class="c0"/>
<circle cx="914" cy="734" r="8" class="c0"/>
<circle cx="864" cy="1118" r="8" class="c0"/>
<circle cx="864" cy="554" r="8" class="c0"/>
<circle cx="848" cy="834" r="8" class="c0"/>
<circle cx="982" cy="706" r="8" class="c0"/>
<circle cx="1082" cy="626" r="8" class="c0"/>
<circle cx="940" cy="786" r="8" class="c0"/>
<circle cx="920" cy="8" r="8" class="c0"/>
<circle cx="954" cy="404" r="8" class="c0"/>
<circle cx="1074" cy="526" r="8" class="c0"/>
<circle cx="894" cy="1024" r="8" class="c0"/>
<circle cx="930" cy="148" r="8" class="c0"/>
<circle cx="910" cy="574" r="8" class="c0"/>
<circle cx="930" cy="668" r="8" class="c0"/>
<circle cx="1172" cy="526" r="8" class="c0"/>
<circle cx="888" cy="1212" r="8" class="c0"/>
<circle cx="972" cy="124" r="8" class="c0"/>
<circle cx="898" cy="182" r="8" class="c0"/>
<circle cx="1034" cy="1066" r="8" class="c0"/>
<circle cx="952" cy="884" r="8" class="c0"/>
<circle cx="878" cy="38" r="8" class="c0"/>
<circle cx="1052" cy="506" r="8" class="c0"/>
<circle cx="948" cy="1284" r="8" class="c0"/>
<circle cx="898" cy="1138" r="8" class="c0"/>
<circle cx="1088" cy="512" r="8" class="c0"/>
<circle cx="1124" cy="504" r="8" class="c0"/>
<circle cx="1136" cy="616" r="8" class="c0"/>
<circle cx="1078" cy="1152" r="8" class="c0"/>
<circle cx="806" cy="702" r="8" class="c0"/>
<circle cx="874" cy="710" r="8" class="c0"/>
<circle cx="762" cy="636" r="8" class="c0"/>
<circle cx="1062" cy="550" r="8" class="c0"/>
<circle cx="1050" cy="592" r="8" class="c0"/>
<circle cx="856" cy="630" r="8" class="c0"/>
<circle cx="954" cy="724" r="8" class="c0"/>
<circle cx="1176" cy="600" r="8" class="c0"/>
<circle cx="832" cy="1080" r="8" class="c0"/>
<circle cx="1042" cy="28" r="8" class="c0"/>
<circle cx="906" cy="820" r="8" class="c0"/>
<circle cx="1076" cy="1082" r="8" class="c0"/>
<circle cx="974" cy="486" r="8" class="c0"/>
<circle cx="1046" cy="170" r="8" class="c0"/>
<circle cx="986" cy="902" r="8" class="c0"/>
<circle cx="1056" cy="1116" r="8" class="c0"/>
<circle cx="842" cy="1114" r="8" class="c0"/>
<circle cx="872" cy="1064" r="8" class="c0"/>
<circle cx="944" cy="1086" r="8" class="c0"/>
<circle cx="838" cy="628" r="8" class="c0"/>
<circle cx="934" cy="610" r="8" class="c0"/>
<circle cx="850" cy="698" r="8" class="c0"/>
<circle cx="952" cy="524" r="8" class="c0"/>
<circle cx="1022" cy="62" r="8" class="c0"/>
<circle cx="920" cy="1054" r="8" class="c0"/>
<circle cx="940" cy="178" r="8" class="c0"/>
<circle cx="1002" cy="450" r="8" class="c0"/>
<circle cx="982" cy="1026" r="8" class="c0"/>
<circle cx="1014" cy="1220" r="8" class="c0"/>
<circle cx="896" cy="552" r="8" class="c0"/>
<circle cx="988" cy="252" r="8" class="c0"/>
<circle cx="1034" cy="154" r="8" class="c0"/>
<circle cx="970" cy="430" r="8" class="c0"/>
<circle cx="1142" cy="588" r="8" class="c0"/>
<circle cx="1032" cy="216" r="8" class="c0"/>
<circle cx="870" cy="846" r="8" class="c0"/>
<circle cx="976" cy="32" r="8" class="c0"/>
<circle cx="1014" cy="132" r="8" class="c0"/>
<circle cx="1048" cy="976" r="8" class="c0"/>
<circle cx="1026" cy="480" r="8" class="c0"/>
<circle cx="908" cy="1228" r="8" class="c0"/>
<circle cx="922" cy="248" r="8" class="c0"/>
<circle cx="1034" cy="764" r="8" class="c0"/>
<circle cx="1028" cy="184" r="8" class="c0"/>
<circle cx="904" cy="902" r="8" class="c0"/>
<circle cx="1014" cy="1280" r="8" class="c0"/>
<circle cx="924" cy="1270" r="8" class="c0"/>
<circle cx="888" cy="1186" r="8" class="c0"/>
<circle cx="1058" cy="58" r="8" class="c0"/>
<circle cx="846" cy="1012" r="8" class="c0"/>
<circle cx="930" cy="68" r="8" class="c0"/>
<circle cx="986" cy="840" r="8" class="c0"/>
<circle cx="962" cy="1070" r="8" class="c0"/>
<circle cx="1116" cy="580" r="8" class="c0"/>
<circle cx="1034" cy="98" r="8" class="c0"/>
<circle cx="948" cy="144" r="8" class="c0"/>
<circle cx="1006" cy="1004" r="8" class="c0"/>
<circle cx="1020" cy="720" r="8" class="c0"/>
<circle cx="1014" cy="870" r="8" class="c0"/>
<circle cx="1052" cy="1164" r="8" class="c0"/>
<circle cx="816" cy="1150" r="8" class="c0"/>
<circle cx="878" cy="764" r="8" class="c0"/>
<circle cx="1098" cy="62" r="8" class="c0"/>
<circle cx="1018" cy="634" r="8" class="c0"/>
<circle cx="996" cy="830" r="8" class="c0"/>
<circle cx="968" cy="1126" r="8" class="c0"/>
<circle cx="1006" cy="186" r="8" class="c0"/>
<circle cx="946" cy="424" r="8" class="c0"/>
<circle cx="950" cy="912" r="8" class="c0"/>
<circle cx="940" cy="484" r="8" class="c0"/>
<circle cx="832" cy="1104" r="8" class="c0"/>
<circle cx="986" cy="752" r="8" class="c0"/>
<circle cx="868" cy="1100" r="8" class="c0"/>
<circle cx="918" cy="1164" r="8" class="c0"/>
<circle cx="996" cy="176" r="8" class="c0"/>
<circle cx="964" cy="474" r="8" class="c0"/>
<circle cx="914" cy="450" r="8" class="c0"/>
<circle cx="928" cy="700" r="8" class="c0"/>
<circle cx="970" cy="690" r="8" class="c0"/>
<circle cx="836" cy="854" r="8" class="c0"/>
<circle cx="972" cy="1212" r="8" class="c0"/>
<circle cx="996" cy="1270" r="8" class="c0"/>
<circle cx="944" cy="266" r="8" class="c0"/>
<circle cx="950" cy="768" r="8" class="c0"/>
<circle cx="1124" cy="604" r="8" class="c0"/>
<circle cx="998" cy="770" r="8" class="c0"/>
<circle cx="982" cy="64" r="8" class="c0"/>
<circle cx="1008" cy="1092" r="8" class="c0"/>
<circle cx="954" cy="568" r="8" class="c0"/>
<circle cx="1050" cy="878" r="6" class="c0"/>
<circle cx="884" cy="512" r="6" class="c0"/>
<circle cx="996" cy="524" r="6" class="c0"/>
<circle cx="862" cy="172" r="6" class="c0"/>
<circle cx="932" cy="760" r="6" class="c0"/>
<circle cx="828" cy="968" r="6" class="c0"/>
<circle cx="1006" cy="942" r="6" class="c0"/>
<circle cx="996" cy="594" r="6" class="c0"/>
<circle cx="1030" cy="586" r="6" class="c0"/>
<circle cx="1216" cy="558" r="6" class="c0"/>
<circle cx="974" cy="286" r="6" class="c0"/>
<circle cx="992" cy="54" r="6" class="c0"/>
<circle cx="968" cy="810" r="6" class="c0"/>
<circle cx="1056" cy="122" r="6" class="c0"/>
<circle cx="822" cy="48" r="6" class="c0"/>
<circle cx="864" cy="796" r="6" class="c0"/>
<circle cx="1062" cy="1026" r="6" class="c0"/>
<circle cx="996" cy="1046" r="6" class="c0"/>
<circle cx="1060" cy="1012" r="6" class="c0"/>
<circle cx="1152" cy="512" r="6" class="c0"/>
<circle cx="1088" cy="592" r="6" class="c0"/>
<circle cx="950" cy="44" r="6" class="c0"/>
<circle cx="1082" cy="558" r="6" class="c0"/>
<circle cx="884" cy="730" r="6" class="c0"/>
<circle cx="978" cy="1002" r="6" class="c0"/>
<circle cx="840" cy="30" r="6" class="c0"/>
<circle cx="1076" cy="584" r="6" class="c0"/>
<circle cx="920" cy="976" r="6" class="c0"/>
<circle cx="890" cy="492" r="6" class="c0"/>
<circle cx="1018" cy="554" r="6" class="c0"/>
<circle cx="862" cy="92" r="6" class="c0"/>
<circle cx="906" cy="1042" r="6" class="c0"/>
<circle cx="1208" cy="550" r="6" class="c0"/>
<circle cx="958" cy="1052" r="6" class="c0"/>
<circle cx="958" cy="308" r="6" class="c0"/>
<circle cx="854" cy="1130" r="6" class="c0"/>
<circle cx="850" cy="882" r="6" class="c0"/>
<circle cx="810" cy="8" r="6" class="c0"/>
<circle cx="822" cy="1094" r="6" class="c0"/>
<circle cx="928" cy="522" r="6" class="c0"/>
<circle cx="1040" cy="632" r="6" class="c0"/>
<circle cx="832" cy="62" r="6" class="c0"/>
<circle cx="894" cy="934" r="6" class="c0"/>
<circle cx="944" cy="830" r="6" class="c0"/>
<circle cx="1086" cy="608" r="6" class="c0"/>
<circle cx="900" cy="982" r="6" class="c0"/>
<circle cx="984" cy="452" r="6" class="c0"/>
<circle cx="994" cy="640" r="6" class="c0"/>
<circle cx="1054" cy="190" r="6" class="c0"/>
<circle cx="866" cy="656" r="6" class="c0"/>
<circle cx="980" cy="1094" r="6" class="c0"/>
<circle cx="1058" cy="1096" r="6" class="c0"/>
<circle cx="832" cy="1194" r="6" class="c0"/>
<circle cx="836" cy="1152" r="6" class="c0"/>
<circle cx="1234" cy="624" r="6" class="c0"/>
<circle cx="958" cy="636" r="6" class="c0"/>
<circle cx="838" cy="1064" r="6" class="c0"/>
<circle cx="956" cy="232" r="6" class="c0"/>
<circle cx="1142" cy="548" r="6" class="c0"/>
<circle cx="1018" cy="952" r="6" class="c0"/>
<circle cx="844" cy="562" r="6" class="c0"/>
<circle cx="1146" cy="628" r="6" class="c0"/>
<circle cx="1032" cy="800" r="6" class="c0"/>
<circle cx="958" cy="66" r="6" class="c0"/>
<circle cx="798" cy="592" r="6" class="c0"/>
<circle cx="1002" cy="1074" r="6" class="c0"/>
<circle cx="1086" cy="102" r="6" class="c0"/>
<circle cx="912" cy="558" r="6" class="c0"/>
<circle cx="1096" cy="616" r="6" class="c0"/>
<circle cx="840" cy="148" r="6" class="c0"/>
<circle cx="928" cy="1126" r="6" class="c0"/>
<circle cx="1090" cy="1136" r="6" class="c0"/>
<circle cx="868" cy="1042" r="6" class="c0"/>
<circle cx="900" cy="166" r="6" class="c0"/>
<circle cx="964" cy="414" r="6" class="c0"/>
<circle cx="854" cy="592" r="6" class="c0"/>
<circle cx="1068" cy="48" r="6" class="c0"/>
<circle cx="928" cy="1092" r="6" class="c0"/>
<circle cx="998" cy="1060" r="6" class="c0"/>
<circle cx="1064" cy="622" r="6" class="c0"/>
<circle cx="1024" cy="36" r="6" class="c0"/>
<circle cx="870" cy="1160" r="6" class="c0"/>
<circle cx="930" cy="210" r="6" class="c0"/>
<circle cx="1066" cy="22" r="6" class="c0"/>
<circle cx="958" cy="868" r="6" class="c0"/>
<circle cx="898" cy="704" r="6" class="c0"/>
<circle cx="798" cy="728" r="6" class="c0"/>
<circle cx="1146" cy="604" r="6" class="c0"/>
<circle cx="970" cy="512" r="6" class="c0"/>
<circle cx="980" cy="110" r="6" class="c0"/>
<circle cx="956" cy="540" r="6" class="c0"/>
<circle cx="1004" cy="582" r="6" class="c0"/>
<circle cx="954" cy="680" r="6" class="c0"/>
<circle cx="984" cy="588" r="6" class="c0"/>
<circle cx="810" cy="1100" r="6" class="c0"/>
<circle cx="944" cy="392" r="6" class="c0"/>
<circle cx="906" cy="154" r="6" class="c0"/>
<circle cx="856" cy="1192" r="6" class="c0"/>
<circle cx="1004" cy="94" r="6" class="c0"/>
<circle cx="1076" cy="144" r="6" class="c0"/>
<circle cx="824" cy="898" r="6" class="c0"/>
<circle cx="862" cy="42" r="6" class="c0"/>
<circle cx="846" cy="68" r="6" class="c0"/>
<circle cx="910" cy="490" r="6" class="c0"/>
<circle cx="990" cy="660" r="6" class="c0"/>
<circle cx="998" cy="1226" r="6" class="c0"/>
<circle cx="1064" cy="74" r="6" class="c0"/>
<circle cx="976" cy="14" r="6" class="c0"/>
<circle cx="832" cy="930" r="6" class="c0"/>
<circle cx="866" cy="1180" r="6" class="c0"/>
<circle cx="894" cy="1122" r="6" class="c0"/>
<circle cx="954" cy="438" r="6" class="c0"/>
<circle cx="918" cy="934" r="6" class="c0"/>
<circle cx="858" cy="76" r="6" class="c0"/>
<circle cx="896" cy="6" r="6" class="c0"/>
<circle cx="1080" cy="830" r="6" class="c0"/>
<circle cx="860" cy="1032" r="6" class="c0"/>
<circle cx="1010" cy="696" r="6" class="c0"/>
<circle cx="900" cy="586" r="6" class="c0"/>
<circle cx="1036" cy="922" r="6" class="c0"/>
<circle cx="910" cy="758" r="6" class="c0"/>
<circle cx="936" cy="1298" r="6" class="c0"/>
<circle cx="954" cy="120" r="6" class="c0"/>
<circle cx="982" cy="552" r="6" class="c0"/>
<circle cx="998" cy="862" r="6" class="c0"/>
<circle cx="1020" cy="1134" r="6" class="c0"/>
<circle cx="1008" cy="6" r="6" class="c0"/>
<circle cx="926" cy="1020" r="6" class="c0"/>
<circle cx="892" cy="808" r="6" class="c0"/>
<circle cx="980" cy="972" r="6" class="c0"/>
<circle cx="850" cy="6" r="6" class="c0"/>
<circle cx="914" cy="988" r="6" class="c0"/>
<circle cx="852" cy="850" r="6" class="c0"/>
<circle cx="878" cy="1174" r="6" class="c0"/>
<circle cx="986" cy="1282" r="6" class="c0"/>
<circle cx="896" cy="40" r="6" class="c0"/>
<circle cx="1098" cy="32" r="6" class="c0"/>
<circle cx="848" cy="614" r="6" class="c0"/>
<circle cx="1054" cy="1058" r="6" class="c0"/>
<circle cx="878" cy="934" r="6" class="c0"/>
<circle cx="920" cy="868" r="6" class="c0"/>
<circle cx="880" cy="54" r="6" class="c0"/>
<circle cx="892" cy="974" r="6" class="c0"/>
<circle cx="806" cy="604" r="6" class="c0"/>
<circle cx="982" cy="1202" r="6" class="c0"/>
<circle cx="1034" cy="1092" r="6" class="c0"/>
<circle cx="884" cy="1034" r="6" class="c0"/>
<circle cx="1060" cy="1046" r="6" class="c0"/>
<circle cx="1098" cy="634" r="6" class="c0"/>
<circle cx="930" cy="1236" r="6" class="c0"/>
<circle cx="838" cy="998" r="6" class="c0"/>
<circle cx="994" cy="1084" r="6" class="c0"/>
<circle cx="790" cy="638" r="6" class="c0"/>
<circle cx="930" cy="1078" r="6" class="c0"/>
<circle cx="1220" cy="596" r="6" class="c0"/>
<circle cx="1024" cy="1292" r="6" class="c0"/>
<circle cx="832" cy="654" r="6" class="c0"/>
<circle cx="922" cy="218" r="6" class="c0"/>
<circle cx="874" cy="204" r="6" class="c0"/>
<circle cx="1080" cy="1168" r="6" class="c0"/>
<circle cx="1022" cy="1002" r="6" class="c0"/>
<circle cx="1056" cy="614" r="6" class="c0"/>
<circle cx="796" cy="692" r="6" class="c0"/>
<circle cx="1100" cy="682" r="6" class="c0"/>
<circle cx="1000" cy="80" r="6" class="c0"/>
<circle cx="1074" cy="32" r="6" class="c0"/>
<circle cx="928" cy="264" r="6" class="c0"/>
<circle cx="872" cy="8" r="6" class="c0"/>
<circle cx="990" cy="1012" r="6" class="c0"/>
<circle cx="984" cy="622" r="6" class="c0"/>
<circle cx="1062" cy="884" r="6" class="c0"/>
<circle cx="972" cy="572" r="6" class="c0"/>
<circle cx="996" cy="202" r="6" class="c0"/>
<circle cx="1184" cy="536" r="6" class="c0"/>
<circle cx="902" cy="254" r="6" class="c0"/>
<circle cx="1042" cy="954" r="6" class="c0"/>
<circle cx="880" cy="1152" r="6" class="c0"/>
<circle cx="1066" cy="1072" r="6" class="c0"/>
<circle cx="964" cy="1158" r="6" class="c0"/>
<circle cx="1050" cy="108" r="6" class="c0"/>
<circle cx="1034" cy="1008" r="6" class="c0"/>
<circle cx="1006" cy="800" r="6" class="c0"/>
<circle cx="938" cy="250" r="6" class="c0"/>
<circle cx="1086" cy="1094" r="6" class="c0"/>
<circle cx="1076" cy="1184" r="6" class="c0"/>
<circle cx="1068" cy="1038" r="6" class="c0"/>
<circle cx="824" cy="914" r="6" class="c0"/>
<circle cx="1048" cy="624" r="6" class="c0"/>
<circle cx="1034" cy="516" r="6" class="c0"/>
<circle cx="818" cy="110" r="6" class="c0"/>
<circle cx="1006" cy="250" r="6" class="c0"/>
<circle cx="892" cy="1072" r="6" class="c0"/>
<circle cx="818" cy="648" r="6" class="c0"/>
<circle cx="972" cy="1086" r="6" class="c0"/>
<circle cx="1126" cy="520" r="6" class="c0"/>
<circle cx="908" cy="924" r="6" class="c0"/>
<circle cx="938" cy="1136" r="6" class="c0"/>
<circle cx="1014" cy="436" r="6" class="c0"/>
<circle cx="1226" cy="632" r="6" class="c0"/>
<circle cx="1028" cy="1142" r="6" class="c0"/>
<circle cx="1020" cy="806" r="6" class="c0"/>
<circle cx="1216" cy="538" r="6" class="c0"/>
<circle cx="906" cy="48" r="6" class="c0"/>
<circle cx="740" cy="680" r="6" class="c0"/>
<circle cx="1142" cy="504" r="6" class="c0"/>
<circle cx="880" cy="102" r="6" class="c0"/>
<circle cx="796" cy="44" r="6" class="c0"/>
<circle cx="1010" cy="732" r="6" class="c0"/>
<circle cx="1062" cy="178" r="6" class="c0"/>
<circle cx="1152" cy="562" r="6" class="c0"/>
<circle cx="806" cy="88" r="6" class="c0"/>
<circle cx="1142" cy="686" r="6" class="c0"/>
<circle cx="830" cy="988" r="6" class="c0"/>
<circle cx="894" cy="572" r="6" class="c0"/>
<circle cx="1062" cy="1190" r="6" class="c0"/>
<circle cx="1078" cy="666" r="6" class="c0"/>
<circle cx="848" cy="176" r="6" class="c0"/>
<circle cx="996" cy="222" r="6" class="c0"/>
<circle cx="872" cy="780" r="6" class="c0"/>
<circle cx="966" cy="296" r="6" class="c0"/>
<circle cx="926" cy="578" r="6" class="c0"/>
<circle cx="956" cy="92" r="6" class="c0"/>
<circle cx="820" cy="598" r="6" class="c0"/>
<circle cx="1056" cy="842" r="6" class="c0"/>
<circle cx="946" cy="1190" r="6" class="c0"/>
<circle cx="876" cy="132" r="6" class="c0"/>
<circle cx="1190" cy="524" r="6" class="c0"/>
<circle cx="846" cy="1160" r="6" class="c0"/>
<circle cx="1172" cy="568" r="6" class="c0"/>
<circle cx="1100" cy="116" r="6" class="c0"/>
<circle cx="1088" cy="1116" r="6" class="c0"/>
<circle cx="922" cy="1070" r="6" class="c0"/>
<circle cx="860" cy="192" r="6" class="c0"/>
<circle cx="874" cy="984" r="6" class="c0"/>
<circle cx="856" cy="908" r="6" class="c0"/>
<circle cx="862" cy="758" r="6" class="c0"/>
<circle cx="830" cy="38" r="6" class="c0"/>
<circle cx="996" cy="480" r="6" class="c0"/>
<circle cx="880" cy="1116" r="6" class="c0"/>
<circle cx="884" cy="700" r="6" class="c0"/>
<circle cx="1028" cy="1178" r="6" class="c0"/>
<circle cx="1014" cy="1152" r="6" class="c0"/>
<circle cx="926" cy="554" r="6" class="c0"/>
<circle cx="1094" cy="94" r="6" class="c0"/>
<circle cx="938" cy="842" r="6" class="c0"/>
<circle cx="810" cy="744" r="6" class="c0"/>
<circle cx="938" cy="948" r="6" class="c0"/>
<circle cx="920" cy="678" r="6" class="c0"/>
</svg>
