<?xml version="1.0" encoding="utf-8"?>
<svg xmlns="http://www.w3.org/2000/svg"
     xmlns:xlink="http://www.w3.org/1999/xlink" width="1920" height="1440" >

            <defs>
            <style type="text/css"><![CDATA[
circle {stroke: none;}
.c0 {fill: #FFFFFF;}
]]></style>
            </defs>
<rect x="0" y="0" width="1920" height="1440" fill="black"/>
<circle cx="948" cy="1108" r="14" class="c0"/>
<circle cx="870" cy="142" r="12" class="c0"/>
<circle cx="900" cy="630" r="12" class="c0"/>
<circle cx="1040" cy="604" r="12" class="c0"/>
<circle cx="1024" cy="1192" r="12" class="c0"/>
<circle cx="970" cy="1082" r="12" class="c0"/>
<circle cx="864" cy="26" r="12" class="c0"/>
<circle cx="1120" cy="592" r="12" class="c0"/>
<circle cx="918" cy="720" r="12" class="c0"/>
<circle cx="898" cy="602" r="12" class="c0"/>
<circle cx="884" cy="44" r="12" class="c0"/>
<circle cx="1058" cy="490" r="12" class="c0"/>
<circle cx="1036" cy="1030" r="12" class="c0"/>
<circle cx="924" cy="584" r="12" class="c0"/>
<circle cx="988" cy="168" r="12" class="c0"/>
<circle cx="1012" cy="736" r="12" class="c0"/>
<circle cx="1086" cy="610" r="12" class="c0"/>
<circle cx="998" cy="1050" r="12" class="c0"/>
<circle cx="982" cy="498" r="12" class="c0"/>
<circle cx="1128" cy="1050" r="12" class="c0"/>
<circle cx="1024" cy="480" r="12" class="c0"/>
<circle cx="938" cy="452" r="12" class="c0"/>
<circle cx="1214" cy="536" r="12" class="c0"/>
<circle cx="836" cy="610" r="12" class="c0"/>
<circle cx="934" cy="62" r="12" class="c0"/>
<circle cx="962" cy="1048" r="12" class="c0"/>
<circle cx="1112" cy="634" r="12" class="c0"/>
<circle cx="1114" cy="1096" r="12" class="c0"/>
<circle cx="998" cy="644" r="12" class="c0"/>
<circle cx="1054" cy="14" r="12" class="c0"/>
<circle cx="1098" cy="522" r="12" class="c0"/>
<circle cx="1008" cy="436" r="12" class="c0"/>
<circle cx="930" cy="928" r="12" class="c0"/>
<circle cx="878" cy="564" r="12" class="c0"/>
<circle cx="944" cy="856" r="12" class="c0"/>
<circle cx="1084" cy="500" r="12" class="c0"/>
<circle cx="1140" cy="622" r="12" class="c0"/>
<circle cx="1024" cy="32" r="12" class="c0"/>
<circle cx="1090" cy="1008" r="12" class="c0"/>
<circle cx="926" cy="634" r="12" class="c0"/>
<circle cx="1096" cy="1056" r="12" class="c0"/>
<circle cx="940" cy="760" r="12" class="c0"/>
<circle cx="900" cy="1068" r="12" class="c0"/>
<circle cx="978" cy="544" r="10" class="c0"/>
<circle cx="882" cy="1142" r="10" class="c0"/>
<circle cx="1036" cy="668" r="10" class="c0"/>
<circle cx="1024" cy="798" r="10" class="c0"/>
<circle cx="1010" cy="106" r="10" class="c0"/>
<circle cx="990" cy="844" r="10" class="c0"/>
<circle cx="916" cy="1220" r="10" class="c0"/>
<circle cx="870" cy="84" r="10" class="c0"/>
<circle cx="970" cy="226" r="10" class="c0"/>
<circle cx="1144" cy="512" r="10" class="c0"/>
<circle cx="1032" cy="910" r="10" class="c0"/>
<circle cx="1056" cy="684" r="10" class="c0"/>
<circle cx="1212" cy="590" r="10" class="c0"/>
<circle cx="1044" cy="894" r="10" class="c0"/>
<circle cx="1010" cy="666" r="10" class="c0"/>
<circle cx="1064" cy="520" r="10" class="c0"/>
<circle cx="1080" cy="1128" r="10" class="c0"/>
<circle cx="960" cy="100" r="10" class="c0"/>
<circle cx="1022" cy="82" r="10" class="c0"/>
<circle cx="1054" cy="836" r="10" class="c0"/>
<circle cx="970" cy="20" r="10" class="c0"/>
<circle cx="1054" cy="798" r="10" class="c0"/>
<circle cx="1094" cy="1178" r="10" class="c0"/>
<circle cx="992" cy="970" r="10" class="c0"/>
<circle cx="956" cy="668" r="10" class="c0"/>
<circle cx="916" cy="176" r="10" class="c0"/>
<circle cx="986" cy="924" r="10" class="c0"/>
<circle cx="1054" cy="552" r="10" class="c0"/>
<circle cx="1066" cy="1026" r="10" class="c0"/>
<circle cx="1084" cy="1096" r="10" class="c0"/>
<circle cx="984" cy="1190" r="10" class="c0"/>
<circle cx="950" cy="476" r="10" class="c0"/>
<circle cx="962" cy="748" r="10" class="c0"/>
<circle cx="944" cy="654" r="10" class="c0"/>
<circle cx="970" cy="986" r="10" class="c0"/>
<circle cx="998" cy="1082" r="10" class="c0"/>
<circle cx="946" cy="798" r="10" class="c0"/>
<circle cx="962" cy="912" r="10" class="c0"/>
<circle cx="1156" cy="494" r="10" class="c0"/>
<circle cx="926" cy="1042" r="10" class="c0"/>
<circle cx="792" cy="650" r="10" class="c0"/>
<circle cx="1182" cy="528" r="10" class="c0"/>
<circle cx="1064" cy="1084" r="10" class="c0"/>
<circle cx="1038" cy="770" r="10" class="c0"/>
<circle cx="988" cy="664" r="10" class="c0"/>
<circle cx="922" cy="32" r="10" class="c0"/>
<circle cx="962" cy="616" r="10" class="c0"/>
<circle cx="846" cy="48" r="10" class="c0"/>
<circle cx="962" cy="1006" r="10" class="c0"/>
<circle cx="922" cy="1084" r="10" class="c0"/>
<circle cx="940" cy="1270" r="10" class="c0"/>
<circle cx="892" cy="1100" r="10" class="c0"/>
<circle cx="984" cy="40" r="10" class="c0"/>
<circle cx="944" cy="158" r="10" class="c0"/>
<circle cx="1006" cy="932" r="10" class="c0"/>
<circle cx="932" cy="1124" r="10" class="c0"/>
<circle cx="906" cy="1278" r="10" class="c0"/>
<circle cx="968" cy="1160" r="10" class="c0"/>
<circle cx="980" cy="778" r="10" class="c0"/>
<circle cx="1076" cy="1208" r="10" class="c0"/>
<circle cx="1012" cy="1210" r="10" class="c0"/>
<circle cx="912" cy="102" r="10" class="c0"/>
<circle cx="934" cy="994" r="10" class="c0"/>
<circle cx="924" cy="664" r="10" class="c0"/>
<circle cx="860" cy="588" r="10" class="c0"/>
<circle cx="1040" cy="730" r="10" class="c0"/>
<circle cx="1212" cy="564" r="10" class="c0"/>
<circle cx="1066" cy="822" r="10" class="c0"/>
<circle cx="968" cy="432" r="10" class="c0"/>
<circle cx="986" cy="72" r="10" class="c0"/>
<circle cx="944" cy="1176" r="10" class="c0"/>
<circle cx="1024" cy="144" r="10" class="c0"/>
<circle cx="864" cy="114" r="10" class="c0"/>
<circle cx="900" cy="82" r="10" class="c0"/>
<circle cx="926" cy="1254" r="10" class="c0"/>
<circle cx="990" cy="1118" r="10" class="c0"/>
<circle cx="1080" cy="636" r="10" class="c0"/>
<circle cx="944" cy="826" r="10" class="c0"/>
<circle cx="1154" cy="1106" r="10" class="c0"/>
<circle cx="810" cy="610" r="10" class="c0"/>
<circle cx="1034" cy="1102" r="10" class="c0"/>
<circle cx="1016" cy="536" r="10" class="c0"/>
<circle cx="998" cy="144" r="10" class="c0"/>
<circle cx="1012" cy="1064" r="10" class="c0"/>
<circle cx="982" cy="1024" r="10" class="c0"/>
<circle cx="912" cy="202" r="10" class="c0"/>
<circle cx="826" cy="662" r="10" class="c0"/>
<circle cx="1068" cy="668" r="10" class="c0"/>
<circle cx="942" cy="510" r="10" class="c0"/>
<circle cx="1170" cy="620" r="10" class="c0"/>
<circle cx="782" cy="668" r="10" class="c0"/>
<circle cx="922" cy="782" r="10" class="c0"/>
<circle cx="950" cy="584" r="10" class="c0"/>
<circle cx="920" cy="470" r="10" class="c0"/>
<circle cx="966" cy="52" r="10" class="c0"/>
<circle cx="1012" cy="618" r="10" class="c0"/>
<circle cx="1050" cy="1192" r="10" class="c0"/>
<circle cx="1244" cy="550" r="10" class="c0"/>
<circle cx="1048" cy="988" r="10" class="c0"/>
<circle cx="936" cy="184" r="10" class="c0"/>
<circle cx="1016" cy="764" r="10" class="c0"/>
<circle cx="1176" cy="1118" r="10" class="c0"/>
<circle cx="838" cy="580" r="10" class="c0"/>
<circle cx="1230" cy="520" r="10" class="c0"/>
<circle cx="968" cy="684" r="10" class="c0"/>
<circle cx="1062" cy="1174" r="10" class="c0"/>
<circle cx="954" cy="134" r="10" class="c0"/>
<circle cx="1030" cy="1152" r="10" class="c0"/>
<circle cx="958" cy="246" r="10" class="c0"/>
<circle cx="982" cy="728" r="10" class="c0"/>
<circle cx="1002" cy="994" r="10" class="c0"/>
<circle cx="876" cy="1176" r="10" class="c0"/>
<circle cx="944" cy="1060" r="10" class="c0"/>
<circle cx="1014" cy="204" r="10" class="c0"/>
<circle cx="942" cy="682" r="10" class="c0"/>
<circle cx="908" cy="1136" r="10" class="c0"/>
<circle cx="880" cy="640" r="10" class="c0"/>
<circle cx="924" cy="1168" r="10" class="c0"/>
<circle cx="1020" cy="1266" r="10" class="c0"/>
<circle cx="904" cy="546" r="10" class="c0"/>
<circle cx="1142" cy="550" r="10" class="c0"/>
<circle cx="1062" cy="1146" r="10" class="c0"/>
<circle cx="1012" cy="1138" r="10" class="c0"/>
<circle cx="1018" cy="564" r="10" class="c0"/>
<circle cx="906" cy="152" r="10" class="c0"/>
<circle cx="884" cy="682" r="10" class="c0"/>
<circle cx="840" cy="76" r="10" class="c0"/>
<circle cx="960" cy="74" r="10" class="c0"/>
<circle cx="1106" cy="1122" r="10" class="c0"/>
<circle cx="1030" cy="708" r="10" class="c0"/>
<circle cx="1040" cy="530" r="10" class="c0"/>
<circle cx="1168" cy="560" r="10" class="c0"/>
<circle cx="1002" cy="806" r="10" class="c0"/>
<circle cx="1194" cy="618" r="10" class="c0"/>
<circle cx="1000" cy="594" r="10" class="c0"/>
<circle cx="1030" cy="640" r="10" class="c0"/>
<circle cx="1006" cy="180" r="10" class="c0"/>
<circle cx="1038" cy="434" r="8" class="c0"/>
<circle cx="894" cy="116" r="8" class="c0"/>
<circle cx="864" cy="696" r="8" class="c0"/>
<circle cx="976" cy="598" r="8" class="c0"/>
<circle cx="914" cy="52" r="8" class="c0"/>
<circle cx="966" cy="888" r="8" class="c0"/>
<circle cx="1154" cy="604" r="8" class="c0"/>
<circle cx="910" cy="12" r="8" class="c0"/>
<circle cx="1086" cy="540" r="8" class="c0"/>
<circle cx="1052" cy="632" r="8" class="c0"/>
<circle cx="1096" cy="1142" r="8" class="c0"/>
<circle cx="1020" cy="1090" r="8" class="c0"/>
<circle cx="1240" cy="578" r="8" class="c0"/>
<circle cx="1004" cy="1256" r="8" class="c0"/>
<circle cx="1002" cy="704" r="8" class="c0"/>
<circle cx="1034" cy="834" r="8" class="c0"/>
<circle cx="1016" cy="862" r="8" class="c0"/>
<circle cx="928" cy="814" r="8" class="c0"/>
<circle cx="998" cy="18" r="8" class="c0"/>
<circle cx="988" cy="822" r="8" class="c0"/>
<circle cx="990" cy="196" r="8" class="c0"/>
<circle cx="946" cy="736" r="8" class="c0"/>
<circle cx="1044" cy="58" r="8" class="c0"/>
<circle cx="1008" cy="1030" r="8" class="c0"/>
<circle cx="1156" cy="636" r="8" class="c0"/>
<circle cx="838" cy="688" r="8" class="c0"/>
<circle cx="904" cy="758" r="8" class="c0"/>
<circle cx="928" cy="1204" r="8" class="c0"/>
<circle cx="1046" cy="944" r="8" class="c0"/>
<circle cx="1026" cy="878" r="8" class="c0"/>
<circle cx="970" cy="712" r="8" class="c0"/>
<circle cx="1000" cy="786" r="8" class="c0"/>
<circle cx="1068" cy="46" r="8" class="c0"/>
<circle cx="1126" cy="498" r="8" class="c0"/>
<circle cx="1126" cy="1166" r="8" class="c0"/>
<circle cx="928" cy="1020" r="8" class="c0"/>
<circle cx="1194" cy="552" r="8" class="c0"/>
<circle cx="1148" cy="1162" r="8" class="c0"/>
<circle cx="952" cy="1144" r="8" class="c0"/>
<circle cx="878" cy="712" r="8" class="c0"/>
<circle cx="1072" cy="594" r="8" class="c0"/>
<circle cx="1162" cy="520" r="8" class="c0"/>
<circle cx="1006" cy="514" r="8" class="c0"/>
<circle cx="924" cy="128" r="8" class="c0"/>
<circle cx="950" cy="898" r="8" class="c0"/>
<circle cx="1058" cy="74" r="8" class="c0"/>
<circle cx="890" cy="164" r="8" class="c0"/>
<circle cx="1068" cy="568" r="8" class="c0"/>
<circle cx="878" cy="614" r="8" class="c0"/>
<circle cx="1094" cy="590" r="8" class="c0"/>
<circle cx="1064" cy="1046" r="8" class="c0"/>
<circle cx="1150" cy="1076" r="8" class="c0"/>
<circle cx="1072" cy="64" r="8" class="c0"/>
<circle cx="924" cy="550" r="8" class="c0"/>
<circle cx="966" cy="164" r="8" class="c0"/>
<circle cx="902" cy="1038" r="8" class="c0"/>
<circle cx="1054" cy="1062" r="8" class="c0"/>
<circle cx="974" cy="130" r="8" class="c0"/>
<circle cx="1192" cy="500" r="8" class="c0"/>
<circle cx="938" cy="252" r="8" class="c0"/>
<circle cx="954" cy="1200" r="8" class="c0"/>
<circle cx="998" cy="870" r="8" class="c0"/>
<circle cx="1038" cy="116" r="8" class="c0"/>
<circle cx="1008" cy="884" r="8" class="c0"/>
<circle cx="974" cy="940" r="8" class="c0"/>
<circle cx="1156" cy="1126" r="8" class="c0"/>
<circle cx="984" cy="458" r="8" class="c0"/>
<circle cx="1120" cy="1184" r="8" class="c0"/>
<circle cx="1072" cy="844" r="8" class="c0"/>
<circle cx="1036" cy="1078" r="8" class="c0"/>
<circle cx="970" cy="826" r="8" class="c0"/>
<circle cx="1040" cy="504" r="8" class="c0"/>
<circle cx="932" cy="704" r="8" class="c0"/>
<circle cx="1022" cy="948" r="8" class="c0"/>
<circle cx="850" cy="648" r="8" class="c0"/>
<circle cx="1080" cy="1070" r="8" class="c0"/>
<circle cx="1030" cy="450" r="8" class="c0"/>
<circle cx="1066" cy="958" r="8" class="c0"/>
<circle cx="1052" cy="448" r="8" class="c0"/>
<circle cx="1114" cy="1072" r="8" class="c0"/>
<circle cx="1182" cy="632" r="8" class="c0"/>
<circle cx="860" cy="626" r="8" class="c0"/>
<circle cx="940" cy="880" r="8" class="c0"/>
<circle cx="926" cy="146" r="8" class="c0"/>
<circle cx="898" cy="1190" r="8" class="c0"/>
<circle cx="936" cy="966" r="8" class="c0"/>
<circle cx="980" cy="578" r="8" class="c0"/>
<circle cx="962" cy="508" r="8" class="c0"/>
<circle cx="1070" cy="998" r="8" class="c0"/>
<circle cx="1030" cy="1124" r="8" class="c0"/>
<circle cx="1164" cy="540" r="8" class="c0"/>
<circle cx="954" cy="288" r="8" class="c0"/>
<circle cx="920" cy="510" r="8" class="c0"/>
<circle cx="936" cy="606" r="8" class="c0"/>
<circle cx="868" cy="1158" r="8" class="c0"/>
<circle cx="1132" cy="1134" r="8" class="c0"/>
<circle cx="908" cy="1002" r="8" class="c0"/>
<circle cx="1116" cy="508" r="8" class="c0"/>
<circle cx="904" cy="1158" r="8" class="c0"/>
<circle cx="1038" cy="1174" r="8" class="c0"/>
<circle cx="940" cy="530" r="8" class="c0"/>
<circle cx="950" cy="942" r="8" class="c0"/>
<circle cx="1028" cy="980" r="8" class="c0"/>
<circle cx="866" cy="656" r="8" class="c0"/>
<circle cx="1060" cy="584" r="8" class="c0"/>
<circle cx="1054" cy="916" r="8" class="c0"/>
<circle cx="928" cy="236" r="8" class="c0"/>
<circle cx="866" cy="58" r="8" class="c0"/>
<circle cx="1014" cy="688" r="8" class="c0"/>
<circle cx="1146" cy="588" r="8" class="c0"/>
<circle cx="1118" cy="534" r="8" class="c0"/>
<circle cx="960" cy="450" r="8" class="c0"/>
<circle cx="958" cy="542" r="8" class="c0"/>
<circle cx="1050" cy="40" r="8" class="c0"/>
<circle cx="986" cy="102" r="8" class="c0"/>
<circle cx="774" cy="700" r="8" class="c0"/>
<circle cx="1026" cy="998" r="8" class="c0"/>
<circle cx="962" cy="270" r="8" class="c0"/>
<circle cx="1020" cy="58" r="8" class="c0"/>
<circle cx="946" cy="1028" r="8" class="c0"/>
<circle cx="1048" cy="1216" r="8" class="c0"/>
<circle cx="998" cy="574" r="8" class="c0"/>
<circle cx="1000" cy="1174" r="8" class="c0"/>
<circle cx="856" cy="558" r="8" class="c0"/>
<circle cx="972" cy="522" r="8" class="c0"/>
<circle cx="806" cy="630" r="8" class="c0"/>
<circle cx="1002" cy="476" r="8" class="c0"/>
<circle cx="926" cy="898" r="8" class="c0"/>
<circle cx="1044" cy="140" r="8" class="c0"/>
<circle cx="1116" cy="564" r="8" class="c0"/>
<circle cx="998" cy="894" r="8" class="c0"/>
<circle cx="982" cy="414" r="8" class="c0"/>
<circle cx="1030" cy="752" r="8" class="c0"/>
<circle cx="1050" cy="1112" r="8" class="c0"/>
<circle cx="1018" cy="1042" r="8" class="c0"/>
<circle cx="978" cy="958" r="8" class="c0"/>
<circle cx="1040" cy="574" r="8" class="c0"/>
<circle cx="1014" cy="1008" r="8" class="c0"/>
<circle cx="950" cy="224" r="8" class="c0"/>
<circle cx="948" cy="198" r="8" class="c0"/>
<circle cx="970" cy="802" r="8" class="c0"/>
<circle cx="1010" cy="132" r="8" class="c0"/>
<circle cx="916" cy="694" r="8" class="c0"/>
<circle cx="948" cy="714" r="8" class="c0"/>
<circle cx="1014" cy="1236" r="8" class="c0"/>
<circle cx="1176" cy="590" r="8" class="c0"/>
<circle cx="1084" cy="1038" r="8" class="c0"/>
<circle cx="912" cy="526" r="8" class="c0"/>
<circle cx="970" cy="1116" r="8" class="c0"/>
<circle cx="804" cy="678" r="8" class="c0"/>
<circle cx="1104" cy="578" r="8" class="c0"/>
<circle cx="970" cy="1136" r="8" class="c0"/>
<circle cx="920" cy="956" r="8" class="c0"/>
<circle cx="964" cy="566" r="8" class="c0"/>
<circle cx="912" cy="1102" r="8" class="c0"/>
<circle cx="936" cy="90" r="8" class="c0"/>
<circle cx="1014" cy="1116" r="8" class="c0"/>
<circle cx="1042" cy="1134" r="8" class="c0"/>
<circle cx="960" cy="642" r="8" class="c0"/>
<circle cx="1074" cy="862" r="8" class="c0"/>
<circle cx="934" cy="10" r="8" class="c0"/>
<circle cx="968" cy="860" r="8" class="c0"/>
<circle cx="1134" cy="1104" r="8" class="c0"/>
<circle cx="1004" cy="548" r="8" class="c0"/>
<circle cx="900" cy="568" r="8" class="c0"/>
<circle cx="1032" cy="1056" r="8" class="c0"/>
<circle cx="1014" cy="826" r="8" class="c0"/>
<circle cx="852" cy="678" r="8" class="c0"/>
<circle cx="1082" cy="578" r="8" class="c0"/>
<circle cx="996" cy="948" r="8" class="c0"/>
<circle cx="1010" cy="910" r="8" class="c0"/>
<circle cx="1034" cy="932" r="8" class="c0"/>
<circle cx="892" cy="656" r="8" class="c0"/>
<circle cx="996" cy="528" r="8" class="c0"/>
<circle cx="990" cy="624" r="8" class="c0"/>
<circle cx="1132" cy="1074" r="8" class="c0"/>
<circle cx="992" cy="222" r="8" class="c0"/>
<circle cx="1100" cy="550" r="8" class="c0"/>
<circle cx="854" cy="8" r="8" class="c0"/>
<circle cx="886" cy="68" r="8" class="c0"/>
<circle cx="960" cy="408" r="8" class="c0"/>
<circle cx="948" cy="20" r="8" class="c0"/>
<circle cx="1062" cy="108" r="8" class="c0"/>
<circle cx="1192" cy="582" r="8" class="c0"/>
<circle cx="1256" cy="564" r="8" class="c0"/>
<circle cx="992" cy="1148" r="8" class="c0"/>
<circle cx="894" cy="26" r="8" class="c0"/>
<circle cx="1060" cy="616" r="8" class="c0"/>
<circle cx="1142" cy="1144" r="8" class="c0"/>
<circle cx="1270" cy="576" r="8" class="c0"/>
<circle cx="1106" cy="1152" r="8" class="c0"/>
<circle cx="1204" cy="516" r="8" class="c0"/>
<circle cx="1026" cy="586" r="8" class="c0"/>
<circle cx="906" cy="676" r="8" class="c0"/>
<circle cx="1048" cy="1010" r="8" class="c0"/>
<circle cx="904" cy="62" r="8" class="c0"/>
<circle cx="956" cy="970" r="8" class="c0"/>
<circle cx="906" cy="796" r="8" class="c0"/>
<circle cx="948" cy="632" r="8" class="c0"/>
<circle cx="966" cy="390" r="8" class="c0"/>
<circle cx="882" cy="102" r="8" class="c0"/>
<circle cx="986" cy="1068" r="8" class="c0"/>
<circle cx="992" cy="1212" r="8" class="c0"/>
<circle cx="960" cy="210" r="8" class="c0"/>
<circle cx="948" cy="558" r="8" class="c0"/>
<circle cx="1058" cy="778" r="8" class="c0"/>
<circle cx="960" cy="768" r="8" class="c0"/>
<circle cx="1138" cy="1178" r="8" class="c0"/>
<circle cx="828" cy="640" r="8" class="c0"/>
<circle cx="972" cy="112" r="8" class="c0"/>
<circle cx="946" cy="1080" r="8" class="c0"/>
<circle cx="976" cy="898" r="8" class="c0"/>
<circle cx="1016" cy="500" r="8" class="c0"/>
<circle cx="936" cy="210" r="8" class="c0"/>
<circle cx="924" cy="492" r="8" class="c0"/>
<circle cx="1040" cy="964" r="8" class="c0"/>
<circle cx="1052" cy="652" r="8" class="c0"/>
<circle cx="1026" cy="166" r="8" class="c0"/>
<circle cx="1082" cy="970" r="8" class="c0"/>
<circle cx="906" cy="1020" r="8" class="c0"/>
<circle cx="994" cy="120" r="8" class="c0"/>
<circle cx="1106" cy="1036" r="8" class="c0"/>
<circle cx="1062" cy="934" r="8" class="c0"/>
<circle cx="1066" cy="470" r="8" class="c0"/>
<circle cx="916" cy="1188" r="8" class="c0"/>
<circle cx="1000" cy="84" r="8" class="c0"/>
<circle cx="890" cy="582" r="8" class="c0"/>
<circle cx="1108" cy="488" r="8" class="c0"/>
<circle cx="1042" cy="862" r="8" class="c0"/>
<circle cx="878" cy="1118" r="8" class="c0"/>
<circle cx="1030" cy="548" r="8" class="c0"/>
<circle cx="966" cy="1212" r="8" class="c0"/>
<circle cx="960" cy="812" r="8" class="c0"/>
<circle cx="926" cy="740" r="8" class="c0"/>
<circle cx="896" cy="134" r="8" class="c0"/>
<circle cx="1024" cy="844" r="8" class="c0"/>
<circle cx="950" cy="38" r="8" class="c0"/>
<circle cx="1014" cy="1286" r="8" class="c0"/>
<circle cx="968" cy="186" r="8" class="c0"/>
<circle cx="914" cy="984" r="8" class="c0"/>
<circle cx="1040" cy="468" r="8" class="c0"/>
<circle cx="1174" cy="502" r="8" class="c0"/>
<circle cx="898" cy="1120" r="8" class="c0"/>
<circle cx="914" cy="1054" r="8" class="c0"/>
<circle cx="1086" cy="560" r="8" class="c0"/>
<circle cx="1174" cy="1148" r="8" class="c0"/>
<circle cx="1214" cy="612" r="8" class="c0"/>
<circle cx="974" cy="474" r="8" class="c0"/>
<circle cx="960" cy="312" r="8" class="c0"/>
<circle cx="790" cy="616" r="8" class="c0"/>
<circle cx="1046" cy="164" r="8" class="c0"/>
<circle cx="1084" cy="1162" r="8" class="c0"/>
<circle cx="976" cy="88" r="8" class="c0"/>
<circle cx="916" cy="616" r="8" class="c0"/>
<circle cx="1098" cy="648" r="8" class="c0"/>
<circle cx="1006" cy="42" r="8" class="c0"/>
<circle cx="1072" cy="1110" r="8" class="c0"/>
<circle cx="944" cy="114" r="8" class="c0"/>
<circle cx="1038" cy="812" r="8" class="c0"/>
<circle cx="1020" cy="1168" r="8" class="c0"/>
<circle cx="1164" cy="580" r="8" class="c0"/>
<circle cx="1046" cy="88" r="8" class="c0"/>
<circle cx="988" cy="248" r="8" class="c0"/>
<circle cx="894" cy="182" r="8" class="c0"/>
<circle cx="1010" cy="1158" r="8" class="c0"/>
<circle cx="928" cy="1148" r="8" class="c0"/>
<circle cx="938" cy="570" r="8" class="c0"/>
<circle cx="888" cy="8" r="8" class="c0"/>
<circle cx="1056" cy="758" r="8" class="c0"/>
<circle cx="894" cy="722" r="8" class="c0"/>
<circle cx="1014" cy="966" r="8" class="c0"/>
<circle cx="978" cy="208" r="8" class="c0"/>
<circle cx="990" cy="758" r="8" class="c0"/>
<circle cx="1076" cy="550" r="8" class="c0"/>
<circle cx="1038" cy="1206" r="8" class="c0"/>
<circle cx="1206" cy="638" r="8" class="c0"/>
<circle cx="1018" cy="894" r="8" class="c0"/>
<circle cx="868" cy="1128" r="8" class="c0"/>
<circle cx="970" cy="656" r="8" class="c0"/>
<circle cx="1000" cy="60" r="8" class="c0"/>
<circle cx="1020" cy="122" r="8" class="c0"/>
<circle cx="816" cy="590" r="8" class="c0"/>
<circle cx="996" cy="1274" r="8" class="c0"/>
<circle cx="998" cy="1012" r="6" class="c0"/>
<circle cx="998" cy="680" r="6" class="c0"/>
<circle cx="978" cy="1102" r="6" class="c0"/>
<circle cx="1012" cy="156" r="6" class="c0"/>
<circle cx="1056" cy="870" r="6" class="c0"/>
<circle cx="1046" cy="1160" r="6" class="c0"/>
<circle cx="848" cy="106" r="6" class="c0"/>
<circle cx="978" cy="640" r="6" class="c0"/>
<circle cx="886" cy="544" r="6" class="c0"/>
<circle cx="986" cy="436" r="6" class="c0"/>
<circle cx="956" cy="696" r="6" class="c0"/>
<circle cx="1056" cy="130" r="6" class="c0"/>
<circle cx="1140" cy="572" r="6" class="c0"/>
<circle cx="892" cy="704" r="6" class="c0"/>
<circle cx="988" cy="690" r="6" class="c0"/>
<circle cx="1044" cy="698" r="6" class="c0"/>
<circle cx="994" cy="558" r="6" class="c0"/>
<circle cx="818" cy="688" r="6" class="c0"/>
<circle cx="1020" cy="602" r="6" class="c0"/>
<circle cx="1082" cy="480" r="6" class="c0"/>
<circle cx="984" cy="998" r="6" class="c0"/>
<circle cx="1110" cy="1018" r="6" class="c0"/>
<circle cx="1136" cy="488" r="6" class="c0"/>
<circle cx="976" cy="878" r="6" class="c0"/>
<circle cx="1130" cy="646" r="6" class="c0"/>
<circle cx="1096" cy="1084" r="6" class="c0"/>
<circle cx="914" cy="1118" r="6" class="c0"/>
<circle cx="910" cy="650" r="6" class="c0"/>
<circle cx="844" cy="632" r="6" class="c0"/>
<circle cx="1066" cy="538" r="6" class="c0"/>
<circle cx="1048" cy="1092" r="6" class="c0"/>
<circle cx="946" cy="982" r="6" class="c0"/>
<circle cx="854" cy="92" r="6" class="c0"/>
<circle cx="1214" cy="506" r="6" class="c0"/>
<circle cx="1036" cy="72" r="6" class="c0"/>
<circle cx="960" cy="1126" r="6" class="c0"/>
<circle cx="1032" cy="98" r="6" class="c0"/>
<circle cx="1010" cy="1100" r="6" class="c0"/>
<circle cx="1038" cy="624" r="6" class="c0"/>
<circle cx="988" cy="8" r="6" class="c0"/>
<circle cx="944" cy="432" r="6" class="c0"/>
<circle cx="918" cy="72" r="6" class="c0"/>
<circle cx="1086" cy="852" r="6" class="c0"/>
<circle cx="1246" cy="532" r="6" class="c0"/>
<circle cx="892" cy="1168" r="6" class="c0"/>
<circle cx="1126" cy="1118" r="6" class="c0"/>
<circle cx="1232" cy="594" r="6" class="c0"/>
<circle cx="1086" cy="830" r="6" class="c0"/>
<circle cx="1224" cy="552" r="6" class="c0"/>
<circle cx="1084" cy="658" r="6" class="c0"/>
<circle cx="1148" cy="532" r="6" class="c0"/>
<circle cx="952" cy="602" r="6" class="c0"/>
<circle cx="1106" cy="612" r="6" class="c0"/>
<circle cx="974" cy="760" r="6" class="c0"/>
<circle cx="932" cy="1228" r="6" class="c0"/>
<circle cx="1028" cy="514" r="6" class="c0"/>
<circle cx="998" cy="420" r="6" class="c0"/>
<circle cx="878" cy="592" r="6" class="c0"/>
<circle cx="780" cy="632" r="6" class="c0"/>
<circle cx="978" cy="150" r="6" class="c0"/>
<circle cx="1024" cy="184" r="6" class="c0"/>
<circle cx="868" cy="604" r="6" class="c0"/>
<circle cx="928" cy="836" r="6" class="c0"/>
<circle cx="942" cy="1158" r="6" class="c0"/>
<circle cx="1060" cy="1124" r="6" class="c0"/>
<circle cx="1056" cy="972" r="6" class="c0"/>
<circle cx="962" cy="1026" r="6" class="c0"/>
<circle cx="1034" cy="690" r="6" class="c0"/>
<circle cx="958" cy="6" r="6" class="c0"/>
<circle cx="1012" cy="10" r="6" class="c0"/>
<circle cx="1158" cy="1142" r="6" class="c0"/>
<circle cx="918" cy="1238" r="6" class="c0"/>
<circle cx="926" cy="1288" r="6" class="c0"/>
<circle cx="882" cy="1084" r="6" class="c0"/>
<circle cx="970" cy="1180" r="6" class="c0"/>
<circle cx="784" cy="690" r="6" class="c0"/>
<circle cx="946" cy="266" r="6" class="c0"/>
<circle cx="988" cy="796" r="6" class="c0"/>
<circle cx="806" cy="660" r="6" class="c0"/>
<circle cx="840" cy="24" r="6" class="c0"/>
<circle cx="1190" cy="598" r="6" class="c0"/>
<circle cx="918" cy="220" r="6" class="c0"/>
<circle cx="830" cy="40" r="6" class="c0"/>
<circle cx="938" cy="1216" r="6" class="c0"/>
<circle cx="1046" cy="748" r="6" class="c0"/>
<circle cx="960" cy="490" r="6" class="c0"/>
<circle cx="926" cy="872" r="6" class="c0"/>
<circle cx="1098" cy="1196" r="6" class="c0"/>
<circle cx="938" cy="908" r="6" class="c0"/>
<circle cx="1004" cy="456" r="6" class="c0"/>
<circle cx="960" cy="844" r="6" class="c0"/>
<circle cx="1080" cy="1188" r="6" class="c0"/>
<circle cx="958" cy="726" r="6" class="c0"/>
<circle cx="1142" cy="1118" r="6" class="c0"/>
<circle cx="1088" cy="986" r="6" class="c0"/>
<circle cx="1034" cy="12" r="6" class="c0"/>
<circle cx="888" cy="756" r="6" class="c0"/>
<circle cx="1004" cy="1190" r="6" class="c0"/>
<circle cx="1154" cy="570" r="6" class="c0"/>
<circle cx="904" cy="1088" r="6" class="c0"/>
<circle cx="1024" cy="420" r="6" class="c0"/>
<circle cx="942" cy="780" r="6" class="c0"/>
<circle cx="926" cy="112" r="6" class="c0"/>
<circle cx="1076" cy="944" r="6" class="c0"/>
<circle cx="1122" cy="1150" r="6" class="c0"/>
<circle cx="1008" cy="846" r="6" class="c0"/>
<circle cx="866" cy="548" r="6" class="c0"/>
<circle cx="1164" cy="1088" r="6" class="c0"/>
<circle cx="822" cy="622" r="6" class="c0"/>
<circle cx="980" cy="614" r="6" class="c0"/>
<circle cx="1120" cy="614" r="6" class="c0"/>
<circle cx="904" cy="42" r="6" class="c0"/>
<circle cx="1108" cy="1168" r="6" class="c0"/>
<circle cx="962" cy="786" r="6" class="c0"/>
<circle cx="908" cy="498" r="6" class="c0"/>
<circle cx="1086" cy="872" r="6" class="c0"/>
<circle cx="986" cy="706" r="6" class="c0"/>
<circle cx="1074" cy="6" r="6" class="c0"/>
<circle cx="1232" cy="562" r="6" class="c0"/>
<circle cx="920" cy="756" r="6" class="c0"/>
<circle cx="984" cy="1170" r="6" class="c0"/>
<circle cx="1072" cy="980" r="6" class="c0"/>
<circle cx="1072" cy="24" r="6" class="c0"/>
<circle cx="1090" cy="1114" r="6" class="c0"/>
<circle cx="1026" cy="1222" r="6" class="c0"/>
<circle cx="994" cy="1100" r="6" class="c0"/>
<circle cx="1130" cy="522" r="6" class="c0"/>
<circle cx="812" cy="646" r="6" class="c0"/>
<circle cx="880" cy="124" r="6" class="c0"/>
<circle cx="1116" cy="1138" r="6" class="c0"/>
<circle cx="1014" cy="464" r="6" class="c0"/>
<circle cx="1078" cy="686" r="6" class="c0"/>
<circle cx="960" cy="930" r="6" class="c0"/>
<circle cx="964" cy="148" r="6" class="c0"/>
<circle cx="1046" cy="1046" r="6" class="c0"/>
<circle cx="1180" cy="572" r="6" class="c0"/>
<circle cx="938" cy="1194" r="6" class="c0"/>
<circle cx="1054" cy="150" r="6" class="c0"/>
<circle cx="956" cy="874" r="6" class="c0"/>
<circle cx="872" cy="6" r="6" class="c0"/>
<circle cx="900" cy="742" r="6" class="c0"/>
<circle cx="964" cy="950" r="6" class="c0"/>
<circle cx="1032" cy="1280" r="6" class="c0"/>
<circle cx="908" cy="1202" r="6" class="c0"/>
<circle cx="914" cy="940" r="6" class="c0"/>
<circle cx="856" cy="68" r="6" class="c0"/>
<circle cx="868" cy="674" r="6" class="c0"/>
<circle cx="898" cy="692" r="6" class="c0"/>
<circle cx="942" cy="1010" r="6" class="c0"/>
<circle cx="1144" cy="1060" r="6" class="c0"/>
<circle cx="882" cy="1194" r="6" class="c0"/>
<circle cx="896" cy="530" r="6" class="c0"/>
<circle cx="1068" cy="88" r="6" class="c0"/>
<circle cx="1164" cy="1158" r="6" class="c0"/>
<circle cx="844" cy="664" r="6" class="c0"/>
<circle cx="1082" cy="814" r="6" class="c0"/>
<circle cx="774" cy="648" r="6" class="c0"/>
<circle cx="1056" cy="854" r="6" class="c0"/>
<circle cx="962" cy="372" r="6" class="c0"/>
<circle cx="920" cy="86" r="6" class="c0"/>
<circle cx="994" cy="448" r="6" class="c0"/>
<circle cx="840" cy="96" r="6" class="c0"/>
<circle cx="854" cy="130" r="6" class="c0"/>
<circle cx="1272" cy="560" r="6" class="c0"/>
<circle cx="972" cy="256" r="6" class="c0"/>
<circle cx="998" cy="720" r="6" class="c0"/>
<circle cx="1180" cy="606" r="6" class="c0"/>
<circle cx="992" cy="742" r="6" class="c0"/>
<circle cx="970" cy="632" r="6" class="c0"/>
<circle cx="906" cy="1176" r="6" class="c0"/>
<circle cx="1216" cy="628" r="6" class="c0"/>
<circle cx="1040" cy="788" r="6" class="c0"/>
<circle cx="1140" cy="1088" r="6" class="c0"/>
<circle cx="1068" cy="648" r="6" class="c0"/>
<circle cx="934" cy="948" r="6" class="c0"/>
<circle cx="848" cy="698" r="6" class="c0"/>
<circle cx="952" cy="174" r="6" class="c0"/>
<circle cx="1020" cy="922" r="6" class="c0"/>
<circle cx="1010" cy="70" r="6" class="c0"/>
<circle cx="980" cy="398" r="6" class="c0"/>
<circle cx="1034" cy="48" r="6" class="c0"/>
<circle cx="1014" cy="716" r="6" class="c0"/>
<circle cx="940" cy="490" r="6" class="c0"/>
<circle cx="926" cy="1066" r="6" class="c0"/>
<circle cx="1224" cy="576" r="6" class="c0"/>
<circle cx="1098" cy="1106" r="6" class="c0"/>
<circle cx="884" cy="1160" r="6" class="c0"/>
<circle cx="956" cy="526" r="6" class="c0"/>
<circle cx="802" cy="694" r="6" class="c0"/>
<circle cx="984" cy="862" r="6" class="c0"/>
<circle cx="916" cy="564" r="6" class="c0"/>
<circle cx="838" cy="6" r="6" class="c0"/>
<circle cx="902" cy="218" r="6" class="c0"/>
<circle cx="876" cy="666" r="6" class="c0"/>
<circle cx="910" cy="120" r="6" class="c0"/>
<circle cx="1224" cy="602" r="6" class="c0"/>
<circle cx="988" cy="884" r="6" class="c0"/>
<circle cx="952" cy="424" r="6" class="c0"/>
<circle cx="920" cy="254" r="6" class="c0"/>
<circle cx="872" cy="162" r="6" class="c0"/>
<circle cx="1118" cy="1026" r="6" class="c0"/>
<circle cx="892" cy="1048" r="6" class="c0"/>
<circle cx="906" cy="706" r="6" class="c0"/>
<circle cx="906" cy="774" r="6" class="c0"/>
<circle cx="1136" cy="602" r="6" class="c0"/>
<circle cx="1094" cy="666" r="6" class="c0"/>
<circle cx="910" cy="484" r="6" class="c0"/>
<circle cx="1172" cy="1100" r="6" class="c0"/>
</svg>
