<?xml version="1.0" encoding="utf-8"?>
<svg xmlns="http://www.w3.org/2000/svg"
     xmlns:xlink="http://www.w3.org/1999/xlink" width="1920" height="1440" >

            <defs>
            <style type="text/css"><![CDATA[
circle {stroke: none;}
.c0 {fill: #000000;}
]]></style>
            </defs>
<rect x="0" y="0" width="1920" height="1440" fill="white"/>
<circle cx="1116" cy="838" r="14" class="c0"/>
<circle cx="1278" cy="596" r="12" class="c0"/>
<circle cx="916" cy="898" r="12" class="c0"/>
<circle cx="1020" cy="878" r="12" class="c0"/>
<circle cx="1068" cy="978" r="12" class="c0"/>
<circle cx="1136" cy="620" r="12" class="c0"/>
<circle cx="1286" cy="890" r="12" class="c0"/>
<circle cx="1336" cy="726" r="12" class="c0"/>
<circle cx="1008" cy="582" r="12" class="c0"/>
<circle cx="1320" cy="868" r="12" class="c0"/>
<circle cx="1338" cy="884" r="12" class="c0"/>
<circle cx="1260" cy="738" r="12" class="c0"/>
<circle cx="1140" cy="690" r="12" class="c0"/>
<circle cx="1336" cy="916" r="12" class="c0"/>
<circle cx="1242" cy="984" r="12" class="c0"/>
<circle cx="1196" cy="718" r="12" class="c0"/>
<circle cx="902" cy="828" r="12" class="c0"/>
<circle cx="1154" cy="806" r="12" class="c0"/>
<circle cx="1100" cy="692" r="12" class="c0"/>
<circle cx="1070" cy="724" r="12" class="c0"/>
<circle cx="1154" cy="864" r="12" class="c0"/>
<circle cx="940" cy="874" r="12" class="c0"/>
<circle cx="1292" cy="708" r="12" class="c0"/>
<circle cx="1150" cy="1014" r="12" class="c0"/>
<circle cx="1124" cy="792" r="12" class="c0"/>
<circle cx="1292" cy="780" r="12" class="c0"/>
<circle cx="1378" cy="794" r="12" class="c0"/>
<circle cx="1014" cy="796" r="12" class="c0"/>
<circle cx="1276" cy="656" r="12" class="c0"/>
<circle cx="1232" cy="906" r="12" class="c0"/>
<circle cx="1196" cy="790" r="12" class="c0"/>
<circle cx="1216" cy="632" r="12" class="c0"/>
<circle cx="1348" cy="816" r="12" class="c0"/>
<circle cx="1314" cy="834" r="12" class="c0"/>
<circle cx="1114" cy="712" r="12" class="c0"/>
<circle cx="1012" cy="1050" r="12" class="c0"/>
<circle cx="916" cy="748" r="12" class="c0"/>
<circle cx="1032" cy="950" r="12" class="c0"/>
<circle cx="974" cy="972" r="12" class="c0"/>
<circle cx="966" cy="840" r="12" class="c0"/>
<circle cx="1234" cy="690" r="12" class="c0"/>
<circle cx="1060" cy="946" r="12" class="c0"/>
<circle cx="1086" cy="582" r="12" class="c0"/>
<circle cx="1216" cy="858" r="12" class="c0"/>
<circle cx="1112" cy="540" r="12" class="c0"/>
<circle cx="1054" cy="1022" r="12" class="c0"/>
<circle cx="1176" cy="932" r="10" class="c0"/>
<circle cx="1224" cy="1014" r="10" class="c0"/>
<circle cx="1210" cy="578" r="10" class="c0"/>
<circle cx="1094" cy="758" r="10" class="c0"/>
<circle cx="1150" cy="528" r="10" class="c0"/>
<circle cx="1042" cy="674" r="10" class="c0"/>
<circle cx="906" cy="988" r="10" class="c0"/>
<circle cx="1338" cy="772" r="10" class="c0"/>
<circle cx="1094" cy="982" r="10" class="c0"/>
<circle cx="1022" cy="636" r="10" class="c0"/>
<circle cx="1186" cy="758" r="10" class="c0"/>
<circle cx="1078" cy="886" r="10" class="c0"/>
<circle cx="1210" cy="970" r="10" class="c0"/>
<circle cx="1186" cy="610" r="10" class="c0"/>
<circle cx="1128" cy="956" r="10" class="c0"/>
<circle cx="1368" cy="854" r="10" class="c0"/>
<circle cx="972" cy="880" r="10" class="c0"/>
<circle cx="990" cy="698" r="10" class="c0"/>
<circle cx="912" cy="700" r="10" class="c0"/>
<circle cx="876" cy="926" r="10" class="c0"/>
<circle cx="1134" cy="746" r="10" class="c0"/>
<circle cx="1300" cy="614" r="10" class="c0"/>
<circle cx="964" cy="786" r="10" class="c0"/>
<circle cx="940" cy="968" r="10" class="c0"/>
<circle cx="954" cy="924" r="10" class="c0"/>
<circle cx="1138" cy="658" r="10" class="c0"/>
<circle cx="1158" cy="770" r="10" class="c0"/>
<circle cx="1154" cy="974" r="10" class="c0"/>
<circle cx="1136" cy="508" r="10" class="c0"/>
<circle cx="1044" cy="986" r="10" class="c0"/>
<circle cx="992" cy="632" r="10" class="c0"/>
<circle cx="1232" cy="664" r="10" class="c0"/>
<circle cx="894" cy="662" r="10" class="c0"/>
<circle cx="950" cy="802" r="10" class="c0"/>
<circle cx="1086" cy="526" r="10" class="c0"/>
<circle cx="1182" cy="856" r="10" class="c0"/>
<circle cx="1278" cy="628" r="10" class="c0"/>
<circle cx="1076" cy="858" r="10" class="c0"/>
<circle cx="1274" cy="752" r="10" class="c0"/>
<circle cx="876" cy="626" r="10" class="c0"/>
<circle cx="1238" cy="566" r="10" class="c0"/>
<circle cx="1312" cy="748" r="10" class="c0"/>
<circle cx="1064" cy="566" r="10" class="c0"/>
<circle cx="948" cy="640" r="10" class="c0"/>
<circle cx="1038" cy="810" r="10" class="c0"/>
<circle cx="1082" cy="912" r="10" class="c0"/>
<circle cx="1230" cy="768" r="10" class="c0"/>
<circle cx="1190" cy="816" r="10" class="c0"/>
<circle cx="1016" cy="996" r="10" class="c0"/>
<circle cx="1190" cy="526" r="10" class="c0"/>
<circle cx="1022" cy="838" r="10" class="c0"/>
<circle cx="1266" cy="946" r="10" class="c0"/>
<circle cx="1254" cy="678" r="10" class="c0"/>
<circle cx="1208" cy="738" r="10" class="c0"/>
<circle cx="916" cy="664" r="10" class="c0"/>
<circle cx="864" cy="790" r="10" class="c0"/>
<circle cx="888" cy="796" r="10" class="c0"/>
<circle cx="988" cy="608" r="10" class="c0"/>
<circle cx="964" cy="662" r="10" class="c0"/>
<circle cx="1112" cy="768" r="10" class="c0"/>
<circle cx="1158" cy="890" r="10" class="c0"/>
<circle cx="910" cy="620" r="10" class="c0"/>
<circle cx="842" cy="770" r="10" class="c0"/>
<circle cx="1122" cy="600" r="10" class="c0"/>
<circle cx="1240" cy="934" r="10" class="c0"/>
<circle cx="1292" cy="808" r="10" class="c0"/>
<circle cx="1066" cy="826" r="10" class="c0"/>
<circle cx="1232" cy="794" r="10" class="c0"/>
<circle cx="962" cy="694" r="10" class="c0"/>
<circle cx="868" cy="838" r="10" class="c0"/>
<circle cx="1060" cy="616" r="10" class="c0"/>
<circle cx="998" cy="854" r="10" class="c0"/>
<circle cx="1134" cy="562" r="10" class="c0"/>
<circle cx="1092" cy="736" r="10" class="c0"/>
<circle cx="1334" cy="664" r="10" class="c0"/>
<circle cx="928" cy="982" r="10" class="c0"/>
<circle cx="988" cy="1028" r="10" class="c0"/>
<circle cx="1106" cy="928" r="10" class="c0"/>
<circle cx="1004" cy="904" r="10" class="c0"/>
<circle cx="940" cy="822" r="10" class="c0"/>
<circle cx="1080" cy="640" r="10" class="c0"/>
<circle cx="1014" cy="546" r="10" class="c0"/>
<circle cx="940" cy="702" r="10" class="c0"/>
<circle cx="892" cy="962" r="10" class="c0"/>
<circle cx="1052" cy="888" r="10" class="c0"/>
<circle cx="1044" cy="832" r="10" class="c0"/>
<circle cx="1248" cy="642" r="10" class="c0"/>
<circle cx="870" cy="878" r="10" class="c0"/>
<circle cx="1028" cy="908" r="10" class="c0"/>
<circle cx="1160" cy="948" r="10" class="c0"/>
<circle cx="982" cy="674" r="10" class="c0"/>
<circle cx="1312" cy="640" r="10" class="c0"/>
<circle cx="1038" cy="614" r="10" class="c0"/>
<circle cx="916" cy="970" r="10" class="c0"/>
<circle cx="1248" cy="848" r="10" class="c0"/>
<circle cx="990" cy="1000" r="10" class="c0"/>
<circle cx="1116" cy="576" r="10" class="c0"/>
<circle cx="1044" cy="548" r="10" class="c0"/>
<circle cx="1166" cy="592" r="10" class="c0"/>
<circle cx="1186" cy="578" r="10" class="c0"/>
<circle cx="1296" cy="910" r="10" class="c0"/>
<circle cx="1030" cy="698" r="10" class="c0"/>
<circle cx="890" cy="940" r="10" class="c0"/>
<circle cx="1218" cy="602" r="10" class="c0"/>
<circle cx="860" cy="670" r="10" class="c0"/>
<circle cx="1038" cy="726" r="10" class="c0"/>
<circle cx="912" cy="860" r="10" class="c0"/>
<circle cx="1166" cy="720" r="10" class="c0"/>
<circle cx="1130" cy="914" r="10" class="c0"/>
<circle cx="1320" cy="806" r="10" class="c0"/>
<circle cx="1200" cy="656" r="10" class="c0"/>
<circle cx="1172" cy="986" r="10" class="c0"/>
<circle cx="994" cy="738" r="10" class="c0"/>
<circle cx="1202" cy="844" r="10" class="c0"/>
<circle cx="1044" cy="1056" r="10" class="c0"/>
<circle cx="1106" cy="998" r="10" class="c0"/>
<circle cx="858" cy="748" r="10" class="c0"/>
<circle cx="1316" cy="774" r="10" class="c0"/>
<circle cx="882" cy="818" r="10" class="c0"/>
<circle cx="1110" cy="654" r="10" class="c0"/>
<circle cx="1308" cy="670" r="10" class="c0"/>
<circle cx="888" cy="772" r="10" class="c0"/>
<circle cx="972" cy="740" r="10" class="c0"/>
<circle cx="1252" cy="712" r="10" class="c0"/>
<circle cx="1014" cy="766" r="10" class="c0"/>
<circle cx="1052" cy="644" r="8" class="c0"/>
<circle cx="1186" cy="954" r="8" class="c0"/>
<circle cx="1372" cy="772" r="8" class="c0"/>
<circle cx="882" cy="718" r="8" class="c0"/>
<circle cx="998" cy="952" r="8" class="c0"/>
<circle cx="1156" cy="556" r="8" class="c0"/>
<circle cx="1232" cy="954" r="8" class="c0"/>
<circle cx="1012" cy="710" r="8" class="c0"/>
<circle cx="1024" cy="746" r="8" class="c0"/>
<circle cx="948" cy="568" r="8" class="c0"/>
<circle cx="1064" cy="694" r="8" class="c0"/>
<circle cx="1294" cy="732" r="8" class="c0"/>
<circle cx="1088" cy="840" r="8" class="c0"/>
<circle cx="1190" cy="552" r="8" class="c0"/>
<circle cx="1138" cy="716" r="8" class="c0"/>
<circle cx="968" cy="630" r="8" class="c0"/>
<circle cx="1022" cy="968" r="8" class="c0"/>
<circle cx="950" cy="944" r="8" class="c0"/>
<circle cx="1012" cy="612" r="8" class="c0"/>
<circle cx="1078" cy="806" r="8" class="c0"/>
<circle cx="1278" cy="918" r="8" class="c0"/>
<circle cx="980" cy="570" r="8" class="c0"/>
<circle cx="1066" cy="1002" r="8" class="c0"/>
<circle cx="1006" cy="680" r="8" class="c0"/>
<circle cx="954" cy="760" r="8" class="c0"/>
<circle cx="1294" cy="944" r="8" class="c0"/>
<circle cx="1104" cy="634" r="8" class="c0"/>
<circle cx="938" cy="774" r="8" class="c0"/>
<circle cx="1258" cy="616" r="8" class="c0"/>
<circle cx="1260" cy="898" r="8" class="c0"/>
<circle cx="928" cy="936" r="8" class="c0"/>
<circle cx="1184" cy="1014" r="8" class="c0"/>
<circle cx="1356" cy="786" r="8" class="c0"/>
<circle cx="1174" cy="676" r="8" class="c0"/>
<circle cx="976" cy="802" r="8" class="c0"/>
<circle cx="1256" cy="918" r="8" class="c0"/>
<circle cx="912" cy="726" r="8" class="c0"/>
<circle cx="1106" cy="1050" r="8" class="c0"/>
<circle cx="1050" cy="744" r="8" class="c0"/>
<circle cx="888" cy="914" r="8" class="c0"/>
<circle cx="1270" cy="834" r="8" class="c0"/>
<circle cx="1010" cy="936" r="8" class="c0"/>
<circle cx="1092" cy="792" r="8" class="c0"/>
<circle cx="1322" cy="936" r="8" class="c0"/>
<circle cx="1050" cy="580" r="8" class="c0"/>
<circle cx="1364" cy="830" r="8" class="c0"/>
<circle cx="1044" cy="786" r="8" class="c0"/>
<circle cx="1002" cy="560" r="8" class="c0"/>
<circle cx="1236" cy="620" r="8" class="c0"/>
<circle cx="892" cy="740" r="8" class="c0"/>
<circle cx="934" cy="618" r="8" class="c0"/>
<circle cx="1064" cy="670" r="8" class="c0"/>
<circle cx="952" cy="1006" r="8" class="c0"/>
<circle cx="890" cy="866" r="8" class="c0"/>
<circle cx="1088" cy="946" r="8" class="c0"/>
<circle cx="1134" cy="998" r="8" class="c0"/>
<circle cx="998" cy="882" r="8" class="c0"/>
<circle cx="914" cy="788" r="8" class="c0"/>
<circle cx="954" cy="980" r="8" class="c0"/>
<circle cx="950" cy="900" r="8" class="c0"/>
<circle cx="1108" cy="518" r="8" class="c0"/>
<circle cx="1210" cy="776" r="8" class="c0"/>
<circle cx="878" cy="896" r="8" class="c0"/>
<circle cx="1210" cy="694" r="8" class="c0"/>
<circle cx="1202" cy="540" r="8" class="c0"/>
<circle cx="1378" cy="744" r="8" class="c0"/>
<circle cx="1096" cy="1030" r="8" class="c0"/>
<circle cx="1330" cy="690" r="8" class="c0"/>
<circle cx="1028" cy="568" r="8" class="c0"/>
<circle cx="1278" cy="682" r="8" class="c0"/>
<circle cx="938" cy="750" r="8" class="c0"/>
<circle cx="848" cy="844" r="8" class="c0"/>
<circle cx="1204" cy="940" r="8" class="c0"/>
<circle cx="1138" cy="584" r="8" class="c0"/>
<circle cx="1056" cy="534" r="8" class="c0"/>
<circle cx="1180" cy="888" r="8" class="c0"/>
<circle cx="902" cy="596" r="8" class="c0"/>
<circle cx="1284" cy="962" r="8" class="c0"/>
<circle cx="1068" cy="924" r="8" class="c0"/>
<circle cx="1270" cy="806" r="8" class="c0"/>
<circle cx="878" cy="700" r="8" class="c0"/>
<circle cx="1016" cy="658" r="8" class="c0"/>
<circle cx="982" cy="720" r="8" class="c0"/>
<circle cx="1204" cy="892" r="8" class="c0"/>
<circle cx="974" cy="1044" r="8" class="c0"/>
<circle cx="908" cy="640" r="8" class="c0"/>
<circle cx="986" cy="818" r="8" class="c0"/>
<circle cx="962" cy="594" r="8" class="c0"/>
<circle cx="1016" cy="728" r="8" class="c0"/>
<circle cx="1122" cy="1010" r="8" class="c0"/>
<circle cx="872" cy="736" r="8" class="c0"/>
<circle cx="1056" cy="776" r="8" class="c0"/>
<circle cx="1360" cy="752" r="8" class="c0"/>
<circle cx="848" cy="726" r="8" class="c0"/>
<circle cx="1036" cy="530" r="8" class="c0"/>
<circle cx="940" cy="1018" r="8" class="c0"/>
<circle cx="1004" cy="644" r="8" class="c0"/>
<circle cx="1220" cy="542" r="8" class="c0"/>
<circle cx="982" cy="764" r="8" class="c0"/>
<circle cx="1074" cy="1042" r="8" class="c0"/>
<circle cx="1346" cy="838" r="8" class="c0"/>
<circle cx="1100" cy="868" r="8" class="c0"/>
<circle cx="1348" cy="694" r="8" class="c0"/>
<circle cx="1088" cy="818" r="8" class="c0"/>
<circle cx="1190" cy="696" r="8" class="c0"/>
<circle cx="1170" cy="844" r="8" class="c0"/>
<circle cx="1098" cy="960" r="8" class="c0"/>
<circle cx="1156" cy="742" r="8" class="c0"/>
<circle cx="1080" cy="606" r="8" class="c0"/>
<circle cx="844" cy="700" r="8" class="c0"/>
<circle cx="1042" cy="858" r="8" class="c0"/>
<circle cx="1166" cy="646" r="8" class="c0"/>
<circle cx="1360" cy="886" r="8" class="c0"/>
<circle cx="1030" cy="1022" r="8" class="c0"/>
<circle cx="1254" cy="782" r="8" class="c0"/>
<circle cx="1094" cy="558" r="8" class="c0"/>
<circle cx="1310" cy="698" r="8" class="c0"/>
<circle cx="1236" cy="726" r="8" class="c0"/>
<circle cx="1082" cy="664" r="8" class="c0"/>
<circle cx="1332" cy="850" r="8" class="c0"/>
<circle cx="1136" cy="816" r="8" class="c0"/>
<circle cx="1208" cy="996" r="8" class="c0"/>
<circle cx="1128" cy="980" r="8" class="c0"/>
<circle cx="986" cy="550" r="8" class="c0"/>
<circle cx="1376" cy="818" r="8" class="c0"/>
<circle cx="1198" cy="678" r="8" class="c0"/>
<circle cx="1248" cy="962" r="8" class="c0"/>
<circle cx="1284" cy="864" r="8" class="c0"/>
<circle cx="986" cy="924" r="8" class="c0"/>
<circle cx="1362" cy="714" r="8" class="c0"/>
<circle cx="1260" cy="872" r="8" class="c0"/>
<circle cx="860" cy="898" r="8" class="c0"/>
<circle cx="1228" cy="816" r="8" class="c0"/>
<circle cx="1036" cy="654" r="8" class="c0"/>
<circle cx="1070" cy="786" r="8" class="c0"/>
<circle cx="1122" cy="674" r="8" class="c0"/>
<circle cx="1224" cy="708" r="8" class="c0"/>
<circle cx="1148" cy="636" r="8" class="c0"/>
<circle cx="1002" cy="780" r="8" class="c0"/>
<circle cx="1190" cy="902" r="8" class="c0"/>
<circle cx="1156" cy="926" r="8" class="c0"/>
<circle cx="1212" cy="920" r="8" class="c0"/>
<circle cx="1240" cy="878" r="8" class="c0"/>
<circle cx="1112" cy="812" r="8" class="c0"/>
<circle cx="942" cy="996" r="8" class="c0"/>
<circle cx="886" cy="682" r="8" class="c0"/>
<circle cx="1336" cy="796" r="8" class="c0"/>
<circle cx="954" cy="724" r="8" class="c0"/>
<circle cx="1102" cy="608" r="8" class="c0"/>
<circle cx="1152" cy="842" r="8" class="c0"/>
<circle cx="922" cy="814" r="8" class="c0"/>
<circle cx="1240" cy="592" r="8" class="c0"/>
<circle cx="880" cy="854" r="8" class="c0"/>
<circle cx="1314" cy="900" r="8" class="c0"/>
<circle cx="1276" cy="722" r="8" class="c0"/>
<circle cx="1304" cy="932" r="8" class="c0"/>
<circle cx="1112" cy="890" r="8" class="c0"/>
<circle cx="902" cy="882" r="8" class="c0"/>
<circle cx="1050" cy="918" r="8" class="c0"/>
<circle cx="882" cy="646" r="8" class="c0"/>
<circle cx="1224" cy="838" r="8" class="c0"/>
<circle cx="1088" cy="1010" r="8" class="c0"/>
<circle cx="1172" cy="796" r="8" class="c0"/>
<circle cx="1130" cy="880" r="8" class="c0"/>
<circle cx="854" cy="644" r="8" class="c0"/>
<circle cx="1082" cy="774" r="8" class="c0"/>
<circle cx="1036" cy="756" r="8" class="c0"/>
<circle cx="976" cy="648" r="8" class="c0"/>
<circle cx="1072" cy="754" r="8" class="c0"/>
<circle cx="1166" cy="752" r="8" class="c0"/>
<circle cx="942" cy="668" r="8" class="c0"/>
<circle cx="1220" cy="750" r="8" class="c0"/>
<circle cx="846" cy="814" r="8" class="c0"/>
<circle cx="966" cy="1022" r="8" class="c0"/>
<circle cx="968" cy="902" r="8" class="c0"/>
<circle cx="1142" cy="902" r="8" class="c0"/>
<circle cx="1164" cy="692" r="8" class="c0"/>
<circle cx="1280" cy="820" r="8" class="c0"/>
<circle cx="1240" cy="746" r="8" class="c0"/>
<circle cx="1160" cy="624" r="8" class="c0"/>
<circle cx="1128" cy="1040" r="8" class="c0"/>
<circle cx="902" cy="924" r="8" class="c0"/>
<circle cx="1174" cy="540" r="8" class="c0"/>
<circle cx="920" cy="1010" r="8" class="c0"/>
<circle cx="920" cy="838" r="8" class="c0"/>
<circle cx="1124" cy="860" r="8" class="c0"/>
<circle cx="1260" cy="820" r="8" class="c0"/>
<circle cx="934" cy="724" r="8" class="c0"/>
<circle cx="944" cy="844" r="8" class="c0"/>
<circle cx="1086" cy="1052" r="8" class="c0"/>
<circle cx="1180" cy="706" r="8" class="c0"/>
<circle cx="1072" cy="548" r="8" class="c0"/>
<circle cx="1154" cy="674" r="8" class="c0"/>
<circle cx="954" cy="1032" r="8" class="c0"/>
<circle cx="934" cy="916" r="8" class="c0"/>
<circle cx="966" cy="814" r="8" class="c0"/>
<circle cx="1110" cy="744" r="8" class="c0"/>
<circle cx="1266" cy="978" r="8" class="c0"/>
<circle cx="1168" cy="516" r="8" class="c0"/>
<circle cx="1196" cy="868" r="8" class="c0"/>
<circle cx="1270" cy="854" r="8" class="c0"/>
<circle cx="1280" cy="844" r="8" class="c0"/>
<circle cx="1086" cy="708" r="8" class="c0"/>
<circle cx="1108" cy="908" r="8" class="c0"/>
<circle cx="1314" cy="722" r="8" class="c0"/>
<circle cx="954" cy="858" r="8" class="c0"/>
<circle cx="930" cy="586" r="8" class="c0"/>
<circle cx="992" cy="656" r="8" class="c0"/>
<circle cx="912" cy="946" r="8" class="c0"/>
<circle cx="848" cy="682" r="8" class="c0"/>
<circle cx="890" cy="610" r="8" class="c0"/>
<circle cx="1368" cy="732" r="8" class="c0"/>
<circle cx="944" cy="604" r="8" class="c0"/>
<circle cx="1010" cy="1024" r="8" class="c0"/>
<circle cx="1260" cy="586" r="8" class="c0"/>
<circle cx="876" cy="760" r="8" class="c0"/>
<circle cx="1210" cy="814" r="8" class="c0"/>
<circle cx="1090" cy="618" r="8" class="c0"/>
<circle cx="1012" cy="818" r="8" class="c0"/>
<circle cx="1190" cy="974" r="8" class="c0"/>
<circle cx="1176" cy="742" r="8" class="c0"/>
<circle cx="1264" cy="770" r="8" class="c0"/>
<circle cx="956" cy="620" r="8" class="c0"/>
<circle cx="1148" cy="602" r="8" class="c0"/>
<circle cx="1128" cy="640" r="8" class="c0"/>
<circle cx="1024" cy="598" r="8" class="c0"/>
<circle cx="968" cy="940" r="8" class="c0"/>
<circle cx="1146" cy="936" r="8" class="c0"/>
<circle cx="926" cy="636" r="8" class="c0"/>
<circle cx="1110" cy="970" r="8" class="c0"/>
<circle cx="1110" cy="1020" r="8" class="c0"/>
<circle cx="1292" cy="832" r="8" class="c0"/>
<circle cx="836" cy="750" r="8" class="c0"/>
<circle cx="1176" cy="964" r="8" class="c0"/>
<circle cx="910" cy="770" r="8" class="c0"/>
<circle cx="1154" cy="576" r="8" class="c0"/>
<circle cx="1168" cy="824" r="8" class="c0"/>
<circle cx="1054" cy="868" r="8" class="c0"/>
<circle cx="1186" cy="644" r="8" class="c0"/>
<circle cx="1238" cy="1044" r="8" class="c0"/>
<circle cx="1244" cy="808" r="8" class="c0"/>
<circle cx="1068" cy="1060" r="8" class="c0"/>
<circle cx="1356" cy="674" r="8" class="c0"/>
<circle cx="1098" cy="508" r="8" class="c0"/>
<circle cx="1220" cy="882" r="8" class="c0"/>
<circle cx="968" cy="996" r="8" class="c0"/>
<circle cx="1000" cy="832" r="8" class="c0"/>
<circle cx="1354" cy="866" r="8" class="c0"/>
<circle cx="1000" cy="976" r="8" class="c0"/>
<circle cx="1240" cy="828" r="8" class="c0"/>
<circle cx="838" cy="794" r="8" class="c0"/>
<circle cx="1212" cy="668" r="8" class="c0"/>
<circle cx="1094" cy="898" r="8" class="c0"/>
<circle cx="1026" cy="778" r="8" class="c0"/>
<circle cx="1126" cy="526" r="8" class="c0"/>
<circle cx="1350" cy="740" r="8" class="c0"/>
<circle cx="1252" cy="1086" r="8" class="c0"/>
<circle cx="1220" cy="1036" r="8" class="c0"/>
<circle cx="1194" cy="628" r="8" class="c0"/>
<circle cx="1324" cy="710" r="8" class="c0"/>
<circle cx="1260" cy="566" r="8" class="c0"/>
<circle cx="1056" cy="796" r="8" class="c0"/>
<circle cx="856" cy="864" r="8" class="c0"/>
<circle cx="1050" cy="964" r="8" class="c0"/>
<circle cx="1176" cy="660" r="6" class="c0"/>
<circle cx="1180" cy="914" r="6" class="c0"/>
<circle cx="1214" cy="558" r="6" class="c0"/>
<circle cx="1172" cy="872" r="6" class="c0"/>
<circle cx="1300" cy="760" r="6" class="c0"/>
<circle cx="856" cy="826" r="6" class="c0"/>
<circle cx="986" cy="896" r="6" class="c0"/>
<circle cx="1062" cy="654" r="6" class="c0"/>
<circle cx="1284" cy="934" r="6" class="c0"/>
<circle cx="1056" cy="708" r="6" class="c0"/>
<circle cx="1146" cy="826" r="6" class="c0"/>
<circle cx="1332" cy="748" r="6" class="c0"/>
<circle cx="1300" cy="856" r="6" class="c0"/>
<circle cx="1250" cy="1064" r="6" class="c0"/>
<circle cx="920" cy="602" r="6" class="c0"/>
<circle cx="1092" cy="652" r="6" class="c0"/>
<circle cx="1296" cy="650" r="6" class="c0"/>
<circle cx="1032" cy="1042" r="6" class="c0"/>
<circle cx="906" cy="804" r="6" class="c0"/>
<circle cx="1176" cy="780" r="6" class="c0"/>
<circle cx="1064" cy="904" r="6" class="c0"/>
<circle cx="998" cy="756" r="6" class="c0"/>
<circle cx="1066" cy="522" r="6" class="c0"/>
<circle cx="1184" cy="834" r="6" class="c0"/>
<circle cx="992" cy="790" r="6" class="c0"/>
<circle cx="1124" cy="732" r="6" class="c0"/>
<circle cx="1076" cy="1020" r="6" class="c0"/>
<circle cx="1214" cy="950" r="6" class="c0"/>
<circle cx="834" cy="734" r="6" class="c0"/>
<circle cx="1168" cy="1024" r="6" class="c0"/>
<circle cx="1166" cy="906" r="6" class="c0"/>
<circle cx="966" cy="578" r="6" class="c0"/>
<circle cx="1146" cy="788" r="6" class="c0"/>
<circle cx="1146" cy="1038" r="6" class="c0"/>
<circle cx="1150" cy="706" r="6" class="c0"/>
<circle cx="978" cy="860" r="6" class="c0"/>
<circle cx="1064" cy="598" r="6" class="c0"/>
<circle cx="1058" cy="850" r="6" class="c0"/>
<circle cx="932" cy="804" r="6" class="c0"/>
<circle cx="930" cy="858" r="6" class="c0"/>
<circle cx="1388" cy="778" r="6" class="c0"/>
<circle cx="862" cy="698" r="6" class="c0"/>
<circle cx="1132" cy="772" r="6" class="c0"/>
<circle cx="910" cy="682" r="6" class="c0"/>
<circle cx="864" cy="720" r="6" class="c0"/>
<circle cx="1028" cy="930" r="6" class="c0"/>
<circle cx="1298" cy="684" r="6" class="c0"/>
<circle cx="844" cy="658" r="6" class="c0"/>
<circle cx="1076" cy="510" r="6" class="c0"/>
<circle cx="1200" cy="592" r="6" class="c0"/>
<circle cx="1204" cy="756" r="6" class="c0"/>
<circle cx="1114" cy="946" r="6" class="c0"/>
<circle cx="936" cy="652" r="6" class="c0"/>
<circle cx="1146" cy="958" r="6" class="c0"/>
<circle cx="1074" cy="680" r="6" class="c0"/>
<circle cx="1322" cy="626" r="6" class="c0"/>
<circle cx="966" cy="712" r="6" class="c0"/>
<circle cx="988" cy="940" r="6" class="c0"/>
<circle cx="1102" cy="672" r="6" class="c0"/>
<circle cx="1138" cy="542" r="6" class="c0"/>
<circle cx="1230" cy="644" r="6" class="c0"/>
<circle cx="1270" cy="786" r="6" class="c0"/>
<circle cx="1114" cy="622" r="6" class="c0"/>
<circle cx="1266" cy="698" r="6" class="c0"/>
<circle cx="1040" cy="1010" r="6" class="c0"/>
<circle cx="1004" cy="532" r="6" class="c0"/>
<circle cx="1192" cy="920" r="6" class="c0"/>
<circle cx="1306" cy="882" r="6" class="c0"/>
<circle cx="1024" cy="680" r="6" class="c0"/>
<circle cx="1248" cy="766" r="6" class="c0"/>
<circle cx="956" cy="960" r="6" class="c0"/>
<circle cx="1370" cy="696" r="6" class="c0"/>
<circle cx="1222" cy="942" r="6" class="c0"/>
<circle cx="1372" cy="874" r="6" class="c0"/>
<circle cx="1326" cy="760" r="6" class="c0"/>
<circle cx="1040" cy="634" r="6" class="c0"/>
<circle cx="1040" cy="594" r="6" class="c0"/>
<circle cx="1080" cy="992" r="6" class="c0"/>
<circle cx="966" cy="610" r="6" class="c0"/>
<circle cx="1066" cy="584" r="6" class="c0"/>
<circle cx="980" cy="588" r="6" class="c0"/>
<circle cx="920" cy="878" r="6" class="c0"/>
<circle cx="1306" cy="792" r="6" class="c0"/>
<circle cx="1160" cy="998" r="6" class="c0"/>
<circle cx="1176" cy="564" r="6" class="c0"/>
<circle cx="980" cy="950" r="6" class="c0"/>
<circle cx="1382" cy="836" r="6" class="c0"/>
<circle cx="864" cy="812" r="6" class="c0"/>
<circle cx="1048" cy="700" r="6" class="c0"/>
<circle cx="930" cy="688" r="6" class="c0"/>
<circle cx="856" cy="712" r="6" class="c0"/>
<circle cx="1146" cy="730" r="6" class="c0"/>
<circle cx="970" cy="560" r="6" class="c0"/>
<circle cx="1390" cy="756" r="6" class="c0"/>
<circle cx="1130" cy="934" r="6" class="c0"/>
<circle cx="1040" cy="1034" r="6" class="c0"/>
<circle cx="1362" cy="804" r="6" class="c0"/>
<circle cx="1076" cy="960" r="6" class="c0"/>
<circle cx="1098" cy="850" r="6" class="c0"/>
<circle cx="896" cy="710" r="6" class="c0"/>
<circle cx="1380" cy="720" r="6" class="c0"/>
<circle cx="984" cy="782" r="6" class="c0"/>
<circle cx="1346" cy="710" r="6" class="c0"/>
<circle cx="1018" cy="922" r="6" class="c0"/>
<circle cx="918" cy="920" r="6" class="c0"/>
<circle cx="1084" cy="968" r="6" class="c0"/>
<circle cx="894" cy="630" r="6" class="c0"/>
<circle cx="1020" cy="856" r="6" class="c0"/>
<circle cx="990" cy="1050" r="6" class="c0"/>
<circle cx="988" cy="870" r="6" class="c0"/>
<circle cx="1106" cy="592" r="6" class="c0"/>
<circle cx="1352" cy="902" r="6" class="c0"/>
<circle cx="1304" cy="958" r="6" class="c0"/>
<circle cx="1114" cy="502" r="6" class="c0"/>
<circle cx="1176" cy="628" r="6" class="c0"/>
<circle cx="870" cy="684" r="6" class="c0"/>
<circle cx="872" cy="658" r="6" class="c0"/>
<circle cx="896" cy="692" r="6" class="c0"/>
<circle cx="1312" cy="918" r="6" class="c0"/>
<circle cx="832" cy="718" r="6" class="c0"/>
<circle cx="1008" cy="748" r="6" class="c0"/>
<circle cx="1330" cy="644" r="6" class="c0"/>
<circle cx="1236" cy="862" r="6" class="c0"/>
<circle cx="888" cy="840" r="6" class="c0"/>
<circle cx="924" cy="714" r="6" class="c0"/>
<circle cx="996" cy="806" r="6" class="c0"/>
<circle cx="1034" cy="890" r="6" class="c0"/>
<circle cx="926" cy="954" r="6" class="c0"/>
<circle cx="1054" cy="760" r="6" class="c0"/>
<circle cx="1226" cy="994" r="6" class="c0"/>
<circle cx="1292" cy="750" r="6" class="c0"/>
<circle cx="896" cy="900" r="6" class="c0"/>
<circle cx="1188" cy="998" r="6" class="c0"/>
<circle cx="952" cy="742" r="6" class="c0"/>
<circle cx="1044" cy="936" r="6" class="c0"/>
<circle cx="1220" cy="724" r="6" class="c0"/>
<circle cx="1140" cy="764" r="6" class="c0"/>
<circle cx="952" cy="584" r="6" class="c0"/>
<circle cx="986" cy="842" r="6" class="c0"/>
<circle cx="976" cy="1012" r="6" class="c0"/>
<circle cx="1252" cy="660" r="6" class="c0"/>
<circle cx="1328" cy="822" r="6" class="c0"/>
<circle cx="862" cy="772" r="6" class="c0"/>
<circle cx="952" cy="680" r="6" class="c0"/>
<circle cx="1086" cy="930" r="6" class="c0"/>
<circle cx="1134" cy="850" r="6" class="c0"/>
<circle cx="1130" cy="1024" r="6" class="c0"/>
<circle cx="1198" cy="1006" r="6" class="c0"/>
<circle cx="1248" cy="606" r="6" class="c0"/>
<circle cx="1102" cy="802" r="6" class="c0"/>
<circle cx="1228" cy="972" r="6" class="c0"/>
<circle cx="1312" cy="946" r="6" class="c0"/>
<circle cx="1250" cy="888" r="6" class="c0"/>
<circle cx="1052" cy="518" r="6" class="c0"/>
<circle cx="1290" cy="672" r="6" class="c0"/>
<circle cx="1228" cy="582" r="6" class="c0"/>
<circle cx="1062" cy="634" r="6" class="c0"/>
<circle cx="896" cy="850" r="6" class="c0"/>
<circle cx="1236" cy="544" r="6" class="c0"/>
<circle cx="936" cy="790" r="6" class="c0"/>
<circle cx="898" cy="756" r="6" class="c0"/>
<circle cx="1156" cy="504" r="6" class="c0"/>
<circle cx="1138" cy="834" r="6" class="c0"/>
<circle cx="1026" cy="1062" r="6" class="c0"/>
<circle cx="1058" cy="1044" r="6" class="c0"/>
<circle cx="1280" cy="794" r="6" class="c0"/>
<circle cx="1294" cy="636" r="6" class="c0"/>
<circle cx="1298" cy="872" r="6" class="c0"/>
<circle cx="928" cy="764" r="6" class="c0"/>
<circle cx="1000" cy="1014" r="6" class="c0"/>
<circle cx="1156" cy="656" r="6" class="c0"/>
<circle cx="1170" cy="1006" r="6" class="c0"/>
<circle cx="1204" cy="616" r="6" class="c0"/>
<circle cx="1200" cy="562" r="6" class="c0"/>
<circle cx="1040" cy="876" r="6" class="c0"/>
<circle cx="1102" cy="782" r="6" class="c0"/>
<circle cx="1272" cy="576" r="6" class="c0"/>
<circle cx="1148" cy="756" r="6" class="c0"/>
<circle cx="1002" cy="720" r="6" class="c0"/>
<circle cx="1158" cy="1032" r="6" class="c0"/>
<circle cx="1218" cy="986" r="6" class="c0"/>
<circle cx="1390" cy="808" r="6" class="c0"/>
<circle cx="1220" cy="652" r="6" class="c0"/>
<circle cx="1188" cy="668" r="6" class="c0"/>
<circle cx="944" cy="734" r="6" class="c0"/>
<circle cx="1266" cy="640" r="6" class="c0"/>
<circle cx="996" cy="540" r="6" class="c0"/>
<circle cx="1268" cy="928" r="6" class="c0"/>
<circle cx="1002" cy="922" r="6" class="c0"/>
<circle cx="1144" cy="988" r="6" class="c0"/>
<circle cx="1032" cy="584" r="6" class="c0"/>
</svg>
