<?xml version="1.0" encoding="utf-8"?>
<svg xmlns="http://www.w3.org/2000/svg"
     xmlns:xlink="http://www.w3.org/1999/xlink" width="1920" height="1440" >

            <defs>
            <style type="text/css"><![CDATA[
circle {stroke: none;}
.c0 {fill: #FFFFFF;}
]]></style>
            </defs>
<rect x="0" y="0" width="1920" height="1440" fill="black"/>
<circle cx="978" cy="470" r="14" class="c0"/>
<circle cx="1054" cy="550" r="12" class="c0"/>
<circle cx="1042" cy="1022" r="12" class="c0"/>
<circle cx="1106" cy="1034" r="12" class="c0"/>
<circle cx="1090" cy="1176" r="12" class="c0"/>
<circle cx="1144" cy="1090" r="12" class="c0"/>
<circle cx="1104" cy="1152" r="12" class="c0"/>
<circle cx="1062" cy="914" r="12" class="c0"/>
<circle cx="1014" cy="470" r="12" class="c0"/>
<circle cx="924" cy="1024" r="12" class="c0"/>
<circle cx="952" cy="498" r="12" class="c0"/>
<circle cx="958" cy="754" r="12" class="c0"/>
<circle cx="1120" cy="650" r="12" class="c0"/>
<circle cx="922" cy="1060" r="12" class="c0"/>
<circle cx="1122" cy="558" r="12" class="c0"/>
<circle cx="936" cy="582" r="12" class="c0"/>
<circle cx="906" cy="40" r="12" class="c0"/>
<circle cx="950" cy="1252" r="12" class="c0"/>
<circle cx="936" cy="636" r="12" class="c0"/>
<circle cx="1078" cy="1038" r="12" class="c0"/>
<circle cx="1016" cy="936" r="12" class="c0"/>
<circle cx="894" cy="662" r="12" class="c0"/>
<circle cx="1070" cy="866" r="12" class="c0"/>
<circle cx="922" cy="1128" r="12" class="c0"/>
<circle cx="994" cy="1186" r="12" class="c0"/>
<circle cx="1200" cy="546" r="12" class="c0"/>
<circle cx="1038" cy="896" r="12" class="c0"/>
<circle cx="992" cy="1010" r="12" class="c0"/>
<circle cx="882" cy="638" r="12" class="c0"/>
<circle cx="970" cy="832" r="12" class="c0"/>
<circle cx="1042" cy="1146" r="12" class="c0"/>
<circle cx="1004" cy="520" r="12" class="c0"/>
<circle cx="930" cy="988" r="12" class="c0"/>
<circle cx="1156" cy="1126" r="12" class="c0"/>
<circle cx="1006" cy="110" r="12" class="c0"/>
<circle cx="1018" cy="64" r="12" class="c0"/>
<circle cx="1042" cy="812" r="12" class="c0"/>
<circle cx="956" cy="1130" r="12" class="c0"/>
<circle cx="960" cy="952" r="12" class="c0"/>
<circle cx="1262" cy="534" r="12" class="c0"/>
<circle cx="1000" cy="136" r="12" class="c0"/>
<circle cx="1172" cy="530" r="12" class="c0"/>
<circle cx="1030" cy="560" r="12" class="c0"/>
<circle cx="916" cy="556" r="12" class="c0"/>
<circle cx="950" cy="70" r="12" class="c0"/>
<circle cx="1100" cy="1078" r="12" class="c0"/>
<circle cx="1020" cy="1004" r="12" class="c0"/>
<circle cx="1114" cy="1174" r="10" class="c0"/>
<circle cx="1158" cy="500" r="10" class="c0"/>
<circle cx="940" cy="782" r="10" class="c0"/>
<circle cx="960" cy="1162" r="10" class="c0"/>
<circle cx="890" cy="550" r="10" class="c0"/>
<circle cx="1040" cy="592" r="10" class="c0"/>
<circle cx="1022" cy="720" r="10" class="c0"/>
<circle cx="998" cy="200" r="10" class="c0"/>
<circle cx="1216" cy="610" r="10" class="c0"/>
<circle cx="1044" cy="1120" r="10" class="c0"/>
<circle cx="1034" cy="744" r="10" class="c0"/>
<circle cx="1232" cy="540" r="10" class="c0"/>
<circle cx="950" cy="818" r="10" class="c0"/>
<circle cx="930" cy="128" r="10" class="c0"/>
<circle cx="970" cy="158" r="10" class="c0"/>
<circle cx="1036" cy="492" r="10" class="c0"/>
<circle cx="854" cy="662" r="10" class="c0"/>
<circle cx="1032" cy="852" r="10" class="c0"/>
<circle cx="934" cy="536" r="10" class="c0"/>
<circle cx="1024" cy="634" r="10" class="c0"/>
<circle cx="900" cy="110" r="10" class="c0"/>
<circle cx="864" cy="622" r="10" class="c0"/>
<circle cx="968" cy="112" r="10" class="c0"/>
<circle cx="1020" cy="766" r="10" class="c0"/>
<circle cx="1142" cy="578" r="10" class="c0"/>
<circle cx="1012" cy="598" r="10" class="c0"/>
<circle cx="932" cy="16" r="10" class="c0"/>
<circle cx="1000" cy="872" r="10" class="c0"/>
<circle cx="940" cy="462" r="10" class="c0"/>
<circle cx="802" cy="676" r="10" class="c0"/>
<circle cx="1072" cy="632" r="10" class="c0"/>
<circle cx="1088" cy="1136" r="10" class="c0"/>
<circle cx="878" cy="1152" r="10" class="c0"/>
<circle cx="1060" cy="474" r="10" class="c0"/>
<circle cx="1028" cy="964" r="10" class="c0"/>
<circle cx="978" cy="684" r="10" class="c0"/>
<circle cx="966" cy="1060" r="10" class="c0"/>
<circle cx="832" cy="694" r="10" class="c0"/>
<circle cx="1146" cy="530" r="10" class="c0"/>
<circle cx="866" cy="60" r="10" class="c0"/>
<circle cx="846" cy="596" r="10" class="c0"/>
<circle cx="996" cy="628" r="10" class="c0"/>
<circle cx="964" cy="882" r="10" class="c0"/>
<circle cx="1254" cy="598" r="10" class="c0"/>
<circle cx="1080" cy="1000" r="10" class="c0"/>
<circle cx="1008" cy="1024" r="10" class="c0"/>
<circle cx="1220" cy="564" r="10" class="c0"/>
<circle cx="1258" cy="570" r="10" class="c0"/>
<circle cx="1018" cy="1180" r="10" class="c0"/>
<circle cx="952" cy="702" r="10" class="c0"/>
<circle cx="908" cy="746" r="10" class="c0"/>
<circle cx="918" cy="668" r="10" class="c0"/>
<circle cx="1006" cy="38" r="10" class="c0"/>
<circle cx="880" cy="100" r="10" class="c0"/>
<circle cx="1054" cy="832" r="10" class="c0"/>
<circle cx="1014" cy="656" r="10" class="c0"/>
<circle cx="978" cy="76" r="10" class="c0"/>
<circle cx="1048" cy="662" r="10" class="c0"/>
<circle cx="1186" cy="588" r="10" class="c0"/>
<circle cx="930" cy="220" r="10" class="c0"/>
<circle cx="978" cy="1172" r="10" class="c0"/>
<circle cx="952" cy="1048" r="10" class="c0"/>
<circle cx="968" cy="252" r="10" class="c0"/>
<circle cx="972" cy="1020" r="10" class="c0"/>
<circle cx="1058" cy="504" r="10" class="c0"/>
<circle cx="830" cy="628" r="10" class="c0"/>
<circle cx="910" cy="1164" r="10" class="c0"/>
<circle cx="902" cy="72" r="10" class="c0"/>
<circle cx="1150" cy="636" r="10" class="c0"/>
<circle cx="1094" cy="482" r="10" class="c0"/>
<circle cx="978" cy="1116" r="10" class="c0"/>
<circle cx="980" cy="514" r="10" class="c0"/>
<circle cx="900" cy="1098" r="10" class="c0"/>
<circle cx="1006" cy="1162" r="10" class="c0"/>
<circle cx="1170" cy="622" r="10" class="c0"/>
<circle cx="1050" cy="720" r="10" class="c0"/>
<circle cx="1072" cy="532" r="10" class="c0"/>
<circle cx="1042" cy="460" r="10" class="c0"/>
<circle cx="1068" cy="814" r="10" class="c0"/>
<circle cx="962" cy="1190" r="10" class="c0"/>
<circle cx="888" cy="14" r="10" class="c0"/>
<circle cx="1138" cy="1066" r="10" class="c0"/>
<circle cx="930" cy="152" r="10" class="c0"/>
<circle cx="904" cy="152" r="10" class="c0"/>
<circle cx="1040" cy="432" r="10" class="c0"/>
<circle cx="826" cy="660" r="10" class="c0"/>
<circle cx="1090" cy="554" r="10" class="c0"/>
<circle cx="950" cy="1106" r="10" class="c0"/>
<circle cx="1130" cy="612" r="10" class="c0"/>
<circle cx="974" cy="586" r="10" class="c0"/>
<circle cx="1010" cy="850" r="10" class="c0"/>
<circle cx="1054" cy="610" r="10" class="c0"/>
<circle cx="886" cy="140" r="10" class="c0"/>
<circle cx="946" cy="246" r="10" class="c0"/>
<circle cx="1020" cy="686" r="10" class="c0"/>
<circle cx="952" cy="546" r="10" class="c0"/>
<circle cx="1076" cy="1162" r="10" class="c0"/>
<circle cx="918" cy="710" r="10" class="c0"/>
<circle cx="1020" cy="1086" r="10" class="c0"/>
<circle cx="882" cy="1128" r="10" class="c0"/>
<circle cx="966" cy="228" r="10" class="c0"/>
<circle cx="986" cy="784" r="10" class="c0"/>
<circle cx="1042" cy="58" r="10" class="c0"/>
<circle cx="954" cy="1006" r="10" class="c0"/>
<circle cx="1050" cy="1098" r="10" class="c0"/>
<circle cx="1142" cy="1156" r="10" class="c0"/>
<circle cx="1176" cy="568" r="10" class="c0"/>
<circle cx="1066" cy="1020" r="10" class="c0"/>
<circle cx="1230" cy="586" r="10" class="c0"/>
<circle cx="926" cy="64" r="10" class="c0"/>
<circle cx="1000" cy="980" r="10" class="c0"/>
<circle cx="1066" cy="1202" r="10" class="c0"/>
<circle cx="1028" cy="122" r="10" class="c0"/>
<circle cx="1010" cy="802" r="10" class="c0"/>
<circle cx="968" cy="428" r="10" class="c0"/>
<circle cx="966" cy="640" r="10" class="c0"/>
<circle cx="1012" cy="12" r="10" class="c0"/>
<circle cx="992" cy="1074" r="8" class="c0"/>
<circle cx="1042" cy="12" r="8" class="c0"/>
<circle cx="1044" cy="870" r="8" class="c0"/>
<circle cx="948" cy="612" r="8" class="c0"/>
<circle cx="924" cy="798" r="8" class="c0"/>
<circle cx="924" cy="756" r="8" class="c0"/>
<circle cx="966" cy="800" r="8" class="c0"/>
<circle cx="1020" cy="878" r="8" class="c0"/>
<circle cx="1014" cy="1270" r="8" class="c0"/>
<circle cx="958" cy="444" r="8" class="c0"/>
<circle cx="1194" cy="504" r="8" class="c0"/>
<circle cx="876" cy="598" r="8" class="c0"/>
<circle cx="992" cy="574" r="8" class="c0"/>
<circle cx="866" cy="572" r="8" class="c0"/>
<circle cx="948" cy="850" r="8" class="c0"/>
<circle cx="994" cy="666" r="8" class="c0"/>
<circle cx="1164" cy="1152" r="8" class="c0"/>
<circle cx="962" cy="52" r="8" class="c0"/>
<circle cx="1154" cy="606" r="8" class="c0"/>
<circle cx="810" cy="630" r="8" class="c0"/>
<circle cx="970" cy="1080" r="8" class="c0"/>
<circle cx="1042" cy="1060" r="8" class="c0"/>
<circle cx="1110" cy="1126" r="8" class="c0"/>
<circle cx="1108" cy="634" r="8" class="c0"/>
<circle cx="902" cy="534" r="8" class="c0"/>
<circle cx="978" cy="538" r="8" class="c0"/>
<circle cx="980" cy="896" r="8" class="c0"/>
<circle cx="1026" cy="914" r="8" class="c0"/>
<circle cx="966" cy="908" r="8" class="c0"/>
<circle cx="1208" cy="592" r="8" class="c0"/>
<circle cx="1062" cy="450" r="8" class="c0"/>
<circle cx="1040" cy="1078" r="8" class="c0"/>
<circle cx="1038" cy="992" r="8" class="c0"/>
<circle cx="1016" cy="1234" r="8" class="c0"/>
<circle cx="1062" cy="1134" r="8" class="c0"/>
<circle cx="1036" cy="94" r="8" class="c0"/>
<circle cx="948" cy="142" r="8" class="c0"/>
<circle cx="926" cy="618" r="8" class="c0"/>
<circle cx="982" cy="864" r="8" class="c0"/>
<circle cx="988" cy="436" r="8" class="c0"/>
<circle cx="1008" cy="418" r="8" class="c0"/>
<circle cx="1058" cy="580" r="8" class="c0"/>
<circle cx="900" cy="688" r="8" class="c0"/>
<circle cx="948" cy="1086" r="8" class="c0"/>
<circle cx="990" cy="736" r="8" class="c0"/>
<circle cx="1050" cy="1042" r="8" class="c0"/>
<circle cx="1122" cy="1046" r="8" class="c0"/>
<circle cx="1050" cy="762" r="8" class="c0"/>
<circle cx="1028" cy="668" r="8" class="c0"/>
<circle cx="1020" cy="1216" r="8" class="c0"/>
<circle cx="1116" cy="590" r="8" class="c0"/>
<circle cx="1024" cy="1112" r="8" class="c0"/>
<circle cx="1056" cy="960" r="8" class="c0"/>
<circle cx="888" cy="610" r="8" class="c0"/>
<circle cx="1002" cy="916" r="8" class="c0"/>
<circle cx="990" cy="960" r="8" class="c0"/>
<circle cx="936" cy="874" r="8" class="c0"/>
<circle cx="1074" cy="494" r="8" class="c0"/>
<circle cx="1100" cy="598" r="8" class="c0"/>
<circle cx="910" cy="178" r="8" class="c0"/>
<circle cx="970" cy="718" r="8" class="c0"/>
<circle cx="1030" cy="790" r="8" class="c0"/>
<circle cx="782" cy="654" r="8" class="c0"/>
<circle cx="966" cy="528" r="8" class="c0"/>
<circle cx="938" cy="1192" r="8" class="c0"/>
<circle cx="982" cy="934" r="8" class="c0"/>
<circle cx="900" cy="1180" r="8" class="c0"/>
<circle cx="1014" cy="1066" r="8" class="c0"/>
<circle cx="1090" cy="648" r="8" class="c0"/>
<circle cx="926" cy="200" r="8" class="c0"/>
<circle cx="930" cy="1094" r="8" class="c0"/>
<circle cx="954" cy="658" r="8" class="c0"/>
<circle cx="966" cy="192" r="8" class="c0"/>
<circle cx="898" cy="1050" r="8" class="c0"/>
<circle cx="954" cy="566" r="8" class="c0"/>
<circle cx="1160" cy="588" r="8" class="c0"/>
<circle cx="872" cy="672" r="8" class="c0"/>
<circle cx="1116" cy="1064" r="8" class="c0"/>
<circle cx="922" cy="512" r="8" class="c0"/>
<circle cx="954" cy="898" r="8" class="c0"/>
<circle cx="1008" cy="440" r="8" class="c0"/>
<circle cx="986" cy="10" r="8" class="c0"/>
<circle cx="906" cy="576" r="8" class="c0"/>
<circle cx="936" cy="660" r="8" class="c0"/>
<circle cx="1024" cy="1036" r="8" class="c0"/>
<circle cx="934" cy="690" r="8" class="c0"/>
<circle cx="1066" cy="794" r="8" class="c0"/>
<circle cx="1190" cy="616" r="8" class="c0"/>
<circle cx="804" cy="650" r="8" class="c0"/>
<circle cx="996" cy="1272" r="8" class="c0"/>
<circle cx="1028" cy="1164" r="8" class="c0"/>
<circle cx="990" cy="762" r="8" class="c0"/>
<circle cx="1090" cy="504" r="8" class="c0"/>
<circle cx="936" cy="484" r="8" class="c0"/>
<circle cx="902" cy="626" r="8" class="c0"/>
<circle cx="948" cy="722" r="8" class="c0"/>
<circle cx="1034" cy="702" r="8" class="c0"/>
<circle cx="1102" cy="574" r="8" class="c0"/>
<circle cx="1100" cy="662" r="8" class="c0"/>
<circle cx="982" cy="1044" r="8" class="c0"/>
<circle cx="998" cy="838" r="8" class="c0"/>
<circle cx="992" cy="604" r="8" class="c0"/>
<circle cx="1032" cy="1192" r="8" class="c0"/>
<circle cx="904" cy="1140" r="8" class="c0"/>
<circle cx="1036" cy="928" r="8" class="c0"/>
<circle cx="922" cy="734" r="8" class="c0"/>
<circle cx="944" cy="910" r="8" class="c0"/>
<circle cx="790" cy="638" r="8" class="c0"/>
<circle cx="1012" cy="1134" r="8" class="c0"/>
<circle cx="1112" cy="500" r="8" class="c0"/>
<circle cx="1124" cy="520" r="8" class="c0"/>
<circle cx="924" cy="100" r="8" class="c0"/>
<circle cx="960" cy="90" r="8" class="c0"/>
<circle cx="978" cy="134" r="8" class="c0"/>
<circle cx="988" cy="120" r="8" class="c0"/>
<circle cx="1214" cy="528" r="8" class="c0"/>
<circle cx="952" cy="680" r="8" class="c0"/>
<circle cx="982" cy="656" r="8" class="c0"/>
<circle cx="952" cy="972" r="8" class="c0"/>
<circle cx="1032" cy="518" r="8" class="c0"/>
<circle cx="1112" cy="536" r="8" class="c0"/>
<circle cx="912" cy="600" r="8" class="c0"/>
<circle cx="1072" cy="1074" r="8" class="c0"/>
<circle cx="972" cy="1148" r="8" class="c0"/>
<circle cx="942" cy="110" r="8" class="c0"/>
<circle cx="1044" cy="638" r="8" class="c0"/>
<circle cx="1090" cy="842" r="8" class="c0"/>
<circle cx="994" cy="50" r="8" class="c0"/>
<circle cx="958" cy="30" r="8" class="c0"/>
<circle cx="1006" cy="1252" r="8" class="c0"/>
<circle cx="998" cy="178" r="8" class="c0"/>
<circle cx="878" cy="48" r="8" class="c0"/>
<circle cx="1092" cy="1098" r="8" class="c0"/>
<circle cx="1140" cy="1112" r="8" class="c0"/>
<circle cx="926" cy="1152" r="8" class="c0"/>
<circle cx="980" cy="214" r="8" class="c0"/>
<circle cx="950" cy="1212" r="8" class="c0"/>
<circle cx="978" cy="406" r="8" class="c0"/>
<circle cx="970" cy="976" r="8" class="c0"/>
<circle cx="926" cy="948" r="8" class="c0"/>
<circle cx="890" cy="584" r="8" class="c0"/>
<circle cx="994" cy="494" r="8" class="c0"/>
<circle cx="1216" cy="510" r="8" class="c0"/>
<circle cx="1026" cy="830" r="8" class="c0"/>
<circle cx="950" cy="218" r="8" class="c0"/>
<circle cx="1068" cy="976" r="8" class="c0"/>
<circle cx="800" cy="620" r="8" class="c0"/>
<circle cx="1064" cy="652" r="8" class="c0"/>
<circle cx="940" cy="52" r="8" class="c0"/>
<circle cx="968" cy="772" r="8" class="c0"/>
<circle cx="1242" cy="524" r="8" class="c0"/>
<circle cx="1094" cy="622" r="8" class="c0"/>
<circle cx="928" cy="1176" r="8" class="c0"/>
<circle cx="1010" cy="546" r="8" class="c0"/>
<circle cx="1078" cy="458" r="8" class="c0"/>
<circle cx="946" cy="524" r="8" class="c0"/>
<circle cx="1168" cy="1094" r="8" class="c0"/>
<circle cx="996" cy="1098" r="8" class="c0"/>
<circle cx="838" cy="578" r="8" class="c0"/>
<circle cx="958" cy="278" r="8" class="c0"/>
<circle cx="952" cy="180" r="8" class="c0"/>
<circle cx="916" cy="972" r="8" class="c0"/>
<circle cx="1274" cy="554" r="8" class="c0"/>
<circle cx="1082" cy="572" r="8" class="c0"/>
<circle cx="850" cy="642" r="8" class="c0"/>
<circle cx="1058" cy="1182" r="8" class="c0"/>
<circle cx="1000" cy="898" r="8" class="c0"/>
<circle cx="1090" cy="1018" r="8" class="c0"/>
<circle cx="1030" cy="610" r="8" class="c0"/>
<circle cx="904" cy="1072" r="8" class="c0"/>
<circle cx="1010" cy="576" r="8" class="c0"/>
<circle cx="884" cy="120" r="8" class="c0"/>
<circle cx="1002" cy="774" r="8" class="c0"/>
<circle cx="1136" cy="666" r="8" class="c0"/>
<circle cx="1080" cy="602" r="8" class="c0"/>
<circle cx="1008" cy="166" r="8" class="c0"/>
<circle cx="1124" cy="1098" r="8" class="c0"/>
<circle cx="1004" cy="704" r="8" class="c0"/>
<circle cx="1150" cy="552" r="8" class="c0"/>
<circle cx="1084" cy="1062" r="8" class="c0"/>
<circle cx="940" cy="168" r="8" class="c0"/>
<circle cx="938" cy="960" r="8" class="c0"/>
<circle cx="920" cy="774" r="8" class="c0"/>
<circle cx="1008" cy="1202" r="8" class="c0"/>
<circle cx="912" cy="644" r="8" class="c0"/>
<circle cx="852" cy="42" r="8" class="c0"/>
<circle cx="966" cy="8" r="8" class="c0"/>
<circle cx="1136" cy="490" r="8" class="c0"/>
<circle cx="938" cy="1166" r="8" class="c0"/>
<circle cx="1246" cy="556" r="8" class="c0"/>
<circle cx="976" cy="618" r="8" class="c0"/>
<circle cx="1060" cy="940" r="8" class="c0"/>
<circle cx="816" cy="710" r="8" class="c0"/>
<circle cx="980" cy="814" r="8" class="c0"/>
<circle cx="1072" cy="1098" r="8" class="c0"/>
<circle cx="1032" cy="38" r="8" class="c0"/>
<circle cx="1132" cy="1130" r="8" class="c0"/>
<circle cx="1058" cy="986" r="8" class="c0"/>
<circle cx="1054" cy="1006" r="8" class="c0"/>
<circle cx="1048" cy="782" r="8" class="c0"/>
<circle cx="826" cy="590" r="8" class="c0"/>
<circle cx="844" cy="616" r="8" class="c0"/>
<circle cx="958" cy="598" r="8" class="c0"/>
<circle cx="854" cy="686" r="8" class="c0"/>
<circle cx="982" cy="706" r="8" class="c0"/>
<circle cx="928" cy="36" r="8" class="c0"/>
<circle cx="994" cy="1136" r="8" class="c0"/>
<circle cx="1002" cy="1044" r="8" class="c0"/>
<circle cx="1002" cy="724" r="8" class="c0"/>
<circle cx="1024" cy="146" r="8" class="c0"/>
<circle cx="948" cy="1026" r="8" class="c0"/>
<circle cx="942" cy="930" r="8" class="c0"/>
<circle cx="908" cy="12" r="8" class="c0"/>
<circle cx="960" cy="862" r="8" class="c0"/>
<circle cx="974" cy="40" r="8" class="c0"/>
<circle cx="1006" cy="1108" r="8" class="c0"/>
<circle cx="1076" cy="950" r="8" class="c0"/>
<circle cx="1056" cy="740" r="8" class="c0"/>
<circle cx="1094" cy="1050" r="8" class="c0"/>
<circle cx="892" cy="88" r="8" class="c0"/>
<circle cx="1092" cy="524" r="8" class="c0"/>
<circle cx="884" cy="1108" r="8" class="c0"/>
<circle cx="970" cy="996" r="8" class="c0"/>
<circle cx="1008" cy="828" r="8" class="c0"/>
<circle cx="916" cy="140" r="8" class="c0"/>
<circle cx="942" cy="190" r="8" class="c0"/>
<circle cx="1176" cy="1116" r="8" class="c0"/>
<circle cx="1004" cy="676" r="8" class="c0"/>
<circle cx="1046" cy="974" r="8" class="c0"/>
<circle cx="874" cy="80" r="8" class="c0"/>
<circle cx="1062" cy="886" r="8" class="c0"/>
<circle cx="970" cy="554" r="8" class="c0"/>
<circle cx="976" cy="386" r="8" class="c0"/>
<circle cx="928" cy="180" r="8" class="c0"/>
<circle cx="1014" cy="498" r="8" class="c0"/>
<circle cx="932" cy="826" r="8" class="c0"/>
<circle cx="914" cy="1190" r="8" class="c0"/>
<circle cx="810" cy="610" r="8" class="c0"/>
<circle cx="870" cy="22" r="8" class="c0"/>
<circle cx="940" cy="1226" r="8" class="c0"/>
<circle cx="1086" cy="1204" r="8" class="c0"/>
<circle cx="912" cy="88" r="8" class="c0"/>
<circle cx="958" cy="132" r="8" class="c0"/>
<circle cx="986" cy="188" r="8" class="c0"/>
<circle cx="876" cy="562" r="8" class="c0"/>
<circle cx="1016" cy="92" r="8" class="c0"/>
<circle cx="1084" cy="1114" r="8" class="c0"/>
<circle cx="936" cy="746" r="8" class="c0"/>
<circle cx="948" cy="1176" r="8" class="c0"/>
<circle cx="1072" cy="670" r="8" class="c0"/>
<circle cx="932" cy="900" r="8" class="c0"/>
<circle cx="922" cy="924" r="8" class="c0"/>
<circle cx="986" cy="94" r="8" class="c0"/>
<circle cx="1006" cy="750" r="8" class="c0"/>
<circle cx="926" cy="1266" r="8" class="c0"/>
<circle cx="890" cy="1168" r="8" class="c0"/>
<circle cx="1034" cy="538" r="8" class="c0"/>
<circle cx="1078" cy="928" r="8" class="c0"/>
<circle cx="1198" cy="576" r="8" class="c0"/>
<circle cx="1024" cy="448" r="8" class="c0"/>
<circle cx="1174" cy="1138" r="8" class="c0"/>
<circle cx="988" cy="552" r="8" class="c0"/>
<circle cx="866" cy="6" r="6" class="c0"/>
<circle cx="990" cy="804" r="6" class="c0"/>
<circle cx="1076" cy="830" r="6" class="c0"/>
<circle cx="1024" cy="164" r="6" class="c0"/>
<circle cx="916" cy="118" r="6" class="c0"/>
<circle cx="1076" cy="894" r="6" class="c0"/>
<circle cx="1154" cy="1170" r="6" class="c0"/>
<circle cx="848" cy="566" r="6" class="c0"/>
<circle cx="916" cy="1000" r="6" class="c0"/>
<circle cx="998" cy="944" r="6" class="c0"/>
<circle cx="1022" cy="28" r="6" class="c0"/>
<circle cx="1062" cy="848" r="6" class="c0"/>
<circle cx="926" cy="496" r="6" class="c0"/>
<circle cx="900" cy="130" r="6" class="c0"/>
<circle cx="906" cy="196" r="6" class="c0"/>
<circle cx="934" cy="1008" r="6" class="c0"/>
<circle cx="834" cy="676" r="6" class="c0"/>
<circle cx="1106" cy="516" r="6" class="c0"/>
<circle cx="1050" cy="1164" r="6" class="c0"/>
<circle cx="1024" cy="1054" r="6" class="c0"/>
<circle cx="960" cy="986" r="6" class="c0"/>
<circle cx="1060" cy="434" r="6" class="c0"/>
<circle cx="1026" cy="982" r="6" class="c0"/>
<circle cx="934" cy="1042" r="6" class="c0"/>
<circle cx="932" cy="84" r="6" class="c0"/>
<circle cx="1026" cy="420" r="6" class="c0"/>
<circle cx="948" cy="268" r="6" class="c0"/>
<circle cx="1042" cy="78" r="6" class="c0"/>
<circle cx="1140" cy="1174" r="6" class="c0"/>
<circle cx="900" cy="1120" r="6" class="c0"/>
<circle cx="964" cy="932" r="6" class="c0"/>
<circle cx="994" cy="156" r="6" class="c0"/>
<circle cx="956" cy="1272" r="6" class="c0"/>
<circle cx="978" cy="746" r="6" class="c0"/>
<circle cx="932" cy="1112" r="6" class="c0"/>
<circle cx="1060" cy="1054" r="6" class="c0"/>
<circle cx="1046" cy="692" r="6" class="c0"/>
<circle cx="986" cy="914" r="6" class="c0"/>
<circle cx="1034" cy="1046" r="6" class="c0"/>
<circle cx="1006" cy="1284" r="6" class="c0"/>
<circle cx="992" cy="66" r="6" class="c0"/>
<circle cx="996" cy="456" r="6" class="c0"/>
<circle cx="902" cy="1030" r="6" class="c0"/>
<circle cx="784" cy="670" r="6" class="c0"/>
<circle cx="858" cy="86" r="6" class="c0"/>
<circle cx="1234" cy="604" r="6" class="c0"/>
<circle cx="1132" cy="540" r="6" class="c0"/>
<circle cx="916" cy="1106" r="6" class="c0"/>
<circle cx="1042" cy="1178" r="6" class="c0"/>
<circle cx="986" cy="30" r="6" class="c0"/>
<circle cx="988" cy="1154" r="6" class="c0"/>
<circle cx="1108" cy="1104" r="6" class="c0"/>
<circle cx="1104" cy="1190" r="6" class="c0"/>
<circle cx="888" cy="58" r="6" class="c0"/>
<circle cx="1090" cy="588" r="6" class="c0"/>
<circle cx="964" cy="1036" r="6" class="c0"/>
<circle cx="932" cy="1078" r="6" class="c0"/>
<circle cx="1158" cy="1106" r="6" class="c0"/>
<circle cx="1044" cy="28" r="6" class="c0"/>
<circle cx="984" cy="1088" r="6" class="c0"/>
<circle cx="1052" cy="856" r="6" class="c0"/>
<circle cx="1056" cy="1076" r="6" class="c0"/>
<circle cx="980" cy="1200" r="6" class="c0"/>
<circle cx="1070" cy="560" r="6" class="c0"/>
<circle cx="996" cy="1118" r="6" class="c0"/>
<circle cx="946" cy="1066" r="6" class="c0"/>
<circle cx="1020" cy="530" r="6" class="c0"/>
<circle cx="1100" cy="1004" r="6" class="c0"/>
<circle cx="906" cy="1016" r="6" class="c0"/>
<circle cx="1138" cy="512" r="6" class="c0"/>
<circle cx="1024" cy="1258" r="6" class="c0"/>
<circle cx="1034" cy="650" r="6" class="c0"/>
<circle cx="926" cy="884" r="6" class="c0"/>
<circle cx="1012" cy="734" r="6" class="c0"/>
<circle cx="1052" cy="42" r="6" class="c0"/>
<circle cx="994" cy="1210" r="6" class="c0"/>
<circle cx="1046" cy="528" r="6" class="c0"/>
<circle cx="934" cy="1210" r="6" class="c0"/>
<circle cx="1112" cy="614" r="6" class="c0"/>
<circle cx="1040" cy="680" r="6" class="c0"/>
<circle cx="994" cy="400" r="6" class="c0"/>
<circle cx="974" cy="492" r="6" class="c0"/>
<circle cx="1178" cy="496" r="6" class="c0"/>
<circle cx="954" cy="472" r="6" class="c0"/>
<circle cx="990" cy="886" r="6" class="c0"/>
<circle cx="930" cy="848" r="6" class="c0"/>
<circle cx="1128" cy="504" r="6" class="c0"/>
<circle cx="914" cy="1042" r="6" class="c0"/>
<circle cx="1176" cy="510" r="6" class="c0"/>
<circle cx="918" cy="1080" r="6" class="c0"/>
<circle cx="1076" cy="514" r="6" class="c0"/>
<circle cx="1146" cy="654" r="6" class="c0"/>
<circle cx="922" cy="468" r="6" class="c0"/>
<circle cx="990" cy="418" r="6" class="c0"/>
<circle cx="1004" cy="78" r="6" class="c0"/>
<circle cx="1090" cy="986" r="6" class="c0"/>
<circle cx="946" cy="1148" r="6" class="c0"/>
<circle cx="936" cy="558" r="6" class="c0"/>
<circle cx="1066" cy="760" r="6" class="c0"/>
<circle cx="882" cy="682" r="6" class="c0"/>
<circle cx="966" cy="1096" r="6" class="c0"/>
<circle cx="1026" cy="1282" r="6" class="c0"/>
<circle cx="978" cy="174" r="6" class="c0"/>
<circle cx="986" cy="148" r="6" class="c0"/>
<circle cx="950" cy="158" r="6" class="c0"/>
<circle cx="814" cy="690" r="6" class="c0"/>
<circle cx="962" cy="734" r="6" class="c0"/>
<circle cx="962" cy="208" r="6" class="c0"/>
<circle cx="890" cy="1080" r="6" class="c0"/>
<circle cx="1126" cy="1078" r="6" class="c0"/>
<circle cx="1064" cy="1112" r="6" class="c0"/>
<circle cx="1192" cy="520" r="6" class="c0"/>
<circle cx="1076" cy="1188" r="6" class="c0"/>
<circle cx="1026" cy="104" r="6" class="c0"/>
<circle cx="1074" cy="1124" r="6" class="c0"/>
<circle cx="984" cy="988" r="6" class="c0"/>
<circle cx="1082" cy="1086" r="6" class="c0"/>
<circle cx="1198" cy="602" r="6" class="c0"/>
<circle cx="996" cy="538" r="6" class="c0"/>
<circle cx="950" cy="798" r="6" class="c0"/>
<circle cx="1132" cy="594" r="6" class="c0"/>
<circle cx="932" cy="602" r="6" class="c0"/>
<circle cx="938" cy="806" r="6" class="c0"/>
<circle cx="912" cy="522" r="6" class="c0"/>
<circle cx="1172" cy="604" r="6" class="c0"/>
<circle cx="888" cy="164" r="6" class="c0"/>
<circle cx="998" cy="648" r="6" class="c0"/>
<circle cx="1002" cy="560" r="6" class="c0"/>
<circle cx="1008" cy="960" r="6" class="c0"/>
<circle cx="1156" cy="568" r="6" class="c0"/>
<circle cx="1040" cy="946" r="6" class="c0"/>
<circle cx="1026" cy="580" r="6" class="c0"/>
<circle cx="942" cy="440" r="6" class="c0"/>
<circle cx="1100" cy="1116" r="6" class="c0"/>
<circle cx="820" cy="678" r="6" class="c0"/>
<circle cx="886" cy="34" r="6" class="c0"/>
<circle cx="1066" cy="594" r="6" class="c0"/>
<circle cx="1068" cy="778" r="6" class="c0"/>
<circle cx="934" cy="1242" r="6" class="c0"/>
<circle cx="870" cy="652" r="6" class="c0"/>
<circle cx="976" cy="20" r="6" class="c0"/>
<circle cx="1118" cy="672" r="6" class="c0"/>
<circle cx="1084" cy="972" r="6" class="c0"/>
<circle cx="978" cy="56" r="6" class="c0"/>
<circle cx="992" cy="1034" r="6" class="c0"/>
<circle cx="1028" cy="1128" r="6" class="c0"/>
<circle cx="1010" cy="616" r="6" class="c0"/>
<circle cx="966" cy="1262" r="6" class="c0"/>
<circle cx="1124" cy="1154" r="6" class="c0"/>
<circle cx="1174" cy="550" r="6" class="c0"/>
<circle cx="910" cy="764" r="6" class="c0"/>
<circle cx="1012" cy="784" r="6" class="c0"/>
<circle cx="1032" cy="1266" r="6" class="c0"/>
<circle cx="944" cy="94" r="6" class="c0"/>
<circle cx="1018" cy="900" r="6" class="c0"/>
<circle cx="1086" cy="818" r="6" class="c0"/>
<circle cx="948" cy="6" r="6" class="c0"/>
<circle cx="1036" cy="1210" r="6" class="c0"/>
<circle cx="992" cy="694" r="6" class="c0"/>
<circle cx="1012" cy="188" r="6" class="c0"/>
<circle cx="870" cy="690" r="6" class="c0"/>
<circle cx="988" cy="238" r="6" class="c0"/>
<circle cx="964" cy="484" r="6" class="c0"/>
<circle cx="1074" cy="586" r="6" class="c0"/>
<circle cx="892" cy="568" r="6" class="c0"/>
<circle cx="1124" cy="1116" r="6" class="c0"/>
<circle cx="918" cy="164" r="6" class="c0"/>
<circle cx="1000" cy="224" r="6" class="c0"/>
<circle cx="862" cy="554" r="6" class="c0"/>
<circle cx="1040" cy="110" r="6" class="c0"/>
<circle cx="970" cy="668" r="6" class="c0"/>
<circle cx="996" cy="20" r="6" class="c0"/>
<circle cx="938" cy="1138" r="6" class="c0"/>
<circle cx="890" cy="1190" r="6" class="c0"/>
<circle cx="984" cy="846" r="6" class="c0"/>
<circle cx="1044" cy="572" r="6" class="c0"/>
<circle cx="932" cy="720" r="6" class="c0"/>
<circle cx="1064" cy="1150" r="6" class="c0"/>
<circle cx="946" cy="884" r="6" class="c0"/>
<circle cx="1020" cy="1148" r="6" class="c0"/>
<circle cx="940" cy="762" r="6" class="c0"/>
<circle cx="1010" cy="888" r="6" class="c0"/>
<circle cx="1132" cy="630" r="6" class="c0"/>
<circle cx="956" cy="922" r="6" class="c0"/>
<circle cx="1018" cy="428" r="6" class="c0"/>
<circle cx="954" cy="628" r="6" class="c0"/>
<circle cx="1048" cy="1204" r="6" class="c0"/>
<circle cx="992" cy="1054" r="6" class="c0"/>
<circle cx="958" cy="786" r="6" class="c0"/>
<circle cx="974" cy="448" r="6" class="c0"/>
<circle cx="1040" cy="622" r="6" class="c0"/>
<circle cx="1184" cy="632" r="6" class="c0"/>
<circle cx="1120" cy="486" r="6" class="c0"/>
<circle cx="992" cy="854" r="6" class="c0"/>
<circle cx="1156" cy="664" r="6" class="c0"/>
<circle cx="920" cy="482" r="6" class="c0"/>
<circle cx="1004" cy="1220" r="6" class="c0"/>
<circle cx="892" cy="756" r="6" class="c0"/>
<circle cx="998" cy="814" r="6" class="c0"/>
<circle cx="894" cy="176" r="6" class="c0"/>
<circle cx="940" cy="1276" r="6" class="c0"/>
<circle cx="938" cy="510" r="6" class="c0"/>
<circle cx="974" cy="370" r="6" class="c0"/>
<circle cx="1238" cy="570" r="6" class="c0"/>
<circle cx="828" cy="608" r="6" class="c0"/>
<circle cx="1028" cy="80" r="6" class="c0"/>
<circle cx="952" cy="200" r="6" class="c0"/>
<circle cx="862" cy="588" r="6" class="c0"/>
<circle cx="924" cy="242" r="6" class="c0"/>
<circle cx="1038" cy="772" r="6" class="c0"/>
<circle cx="986" cy="166" r="6" class="c0"/>
<circle cx="820" cy="642" r="6" class="c0"/>
<circle cx="918" cy="688" r="6" class="c0"/>
</svg>
