<?xml version="1.0" encoding="utf-8"?>
<svg xmlns="http://www.w3.org/2000/svg"
     xmlns:xlink="http://www.w3.org/1999/xlink" width="1920" height="1440" >

            <defs>
            <style type="text/css"><![CDATA[
circle {stroke: none;}
.c0 {fill: #FFFFFF;}
]]></style>
            </defs>
<rect x="0" y="0" width="1920" height="1440" fill="black"/>
<circle cx="986" cy="680" r="12" class="c0"/>
<circle cx="1008" cy="608" r="12" class="c0"/>
<circle cx="1000" cy="1156" r="12" class="c0"/>
<circle cx="952" cy="680" r="12" class="c0"/>
<circle cx="1240" cy="580" r="12" class="c0"/>
<circle cx="998" cy="26" r="12" class="c0"/>
<circle cx="1006" cy="138" r="12" class="c0"/>
<circle cx="880" cy="1132" r="12" class="c0"/>
<circle cx="1034" cy="962" r="12" class="c0"/>
<circle cx="1030" cy="1130" r="12" class="c0"/>
<circle cx="958" cy="944" r="12" class="c0"/>
<circle cx="936" cy="898" r="12" class="c0"/>
<circle cx="962" cy="864" r="12" class="c0"/>
<circle cx="1062" cy="780" r="12" class="c0"/>
<circle cx="982" cy="834" r="12" class="c0"/>
<circle cx="960" cy="720" r="12" class="c0"/>
<circle cx="1070" cy="1068" r="12" class="c0"/>
<circle cx="1018" cy="722" r="12" class="c0"/>
<circle cx="976" cy="126" r="12" class="c0"/>
<circle cx="1016" cy="1216" r="12" class="c0"/>
<circle cx="982" cy="506" r="12" class="c0"/>
<circle cx="892" cy="592" r="12" class="c0"/>
<circle cx="1044" cy="830" r="12" class="c0"/>
<circle cx="1158" cy="570" r="12" class="c0"/>
<circle cx="1090" cy="1120" r="12" class="c0"/>
<circle cx="968" cy="100" r="12" class="c0"/>
<circle cx="1082" cy="588" r="12" class="c0"/>
<circle cx="1024" cy="470" r="12" class="c0"/>
<circle cx="1208" cy="638" r="12" class="c0"/>
<circle cx="984" cy="1278" r="12" class="c0"/>
<circle cx="1146" cy="642" r="12" class="c0"/>
<circle cx="1202" cy="560" r="12" class="c0"/>
<circle cx="1090" cy="1186" r="12" class="c0"/>
<circle cx="916" cy="1102" r="12" class="c0"/>
<circle cx="924" cy="958" r="12" class="c0"/>
<circle cx="876" cy="554" r="12" class="c0"/>
<circle cx="1058" cy="1116" r="12" class="c0"/>
<circle cx="1018" cy="1040" r="12" class="c0"/>
<circle cx="912" cy="568" r="12" class="c0"/>
<circle cx="1134" cy="540" r="12" class="c0"/>
<circle cx="1008" cy="1264" r="12" class="c0"/>
<circle cx="926" cy="678" r="12" class="c0"/>
<circle cx="930" cy="200" r="12" class="c0"/>
<circle cx="986" cy="796" r="12" class="c0"/>
<circle cx="920" cy="142" r="12" class="c0"/>
<circle cx="1060" cy="1188" r="12" class="c0"/>
<circle cx="1014" cy="1110" r="12" class="c0"/>
<circle cx="1184" cy="540" r="10" class="c0"/>
<circle cx="1000" cy="560" r="10" class="c0"/>
<circle cx="910" cy="1174" r="10" class="c0"/>
<circle cx="966" cy="1082" r="10" class="c0"/>
<circle cx="940" cy="1076" r="10" class="c0"/>
<circle cx="938" cy="86" r="10" class="c0"/>
<circle cx="948" cy="476" r="10" class="c0"/>
<circle cx="1262" cy="570" r="10" class="c0"/>
<circle cx="992" cy="1024" r="10" class="c0"/>
<circle cx="1146" cy="588" r="10" class="c0"/>
<circle cx="1074" cy="1044" r="10" class="c0"/>
<circle cx="1130" cy="618" r="10" class="c0"/>
<circle cx="1010" cy="838" r="10" class="c0"/>
<circle cx="1000" cy="450" r="10" class="c0"/>
<circle cx="942" cy="542" r="10" class="c0"/>
<circle cx="1014" cy="902" r="10" class="c0"/>
<circle cx="1174" cy="638" r="10" class="c0"/>
<circle cx="1060" cy="972" r="10" class="c0"/>
<circle cx="964" cy="1152" r="10" class="c0"/>
<circle cx="1260" cy="544" r="10" class="c0"/>
<circle cx="946" cy="788" r="10" class="c0"/>
<circle cx="1134" cy="1154" r="10" class="c0"/>
<circle cx="1112" cy="1078" r="10" class="c0"/>
<circle cx="1016" cy="796" r="10" class="c0"/>
<circle cx="1072" cy="804" r="10" class="c0"/>
<circle cx="912" cy="692" r="10" class="c0"/>
<circle cx="996" cy="484" r="10" class="c0"/>
<circle cx="1008" cy="968" r="10" class="c0"/>
<circle cx="952" cy="574" r="10" class="c0"/>
<circle cx="976" cy="756" r="10" class="c0"/>
<circle cx="986" cy="950" r="10" class="c0"/>
<circle cx="1098" cy="484" r="10" class="c0"/>
<circle cx="1236" cy="540" r="10" class="c0"/>
<circle cx="1096" cy="636" r="10" class="c0"/>
<circle cx="1106" cy="1106" r="10" class="c0"/>
<circle cx="1190" cy="514" r="10" class="c0"/>
<circle cx="934" cy="622" r="10" class="c0"/>
<circle cx="1076" cy="998" r="10" class="c0"/>
<circle cx="976" cy="208" r="10" class="c0"/>
<circle cx="960" cy="652" r="10" class="c0"/>
<circle cx="986" cy="66" r="10" class="c0"/>
<circle cx="982" cy="1196" r="10" class="c0"/>
<circle cx="996" cy="1086" r="10" class="c0"/>
<circle cx="1036" cy="854" r="10" class="c0"/>
<circle cx="1082" cy="500" r="10" class="c0"/>
<circle cx="1018" cy="1078" r="10" class="c0"/>
<circle cx="942" cy="1184" r="10" class="c0"/>
<circle cx="1094" cy="1154" r="10" class="c0"/>
<circle cx="1006" cy="740" r="10" class="c0"/>
<circle cx="1160" cy="536" r="10" class="c0"/>
<circle cx="1034" cy="1192" r="10" class="c0"/>
<circle cx="996" cy="882" r="10" class="c0"/>
<circle cx="950" cy="1034" r="10" class="c0"/>
<circle cx="938" cy="742" r="10" class="c0"/>
<circle cx="1108" cy="538" r="10" class="c0"/>
<circle cx="1058" cy="464" r="10" class="c0"/>
<circle cx="912" cy="1052" r="10" class="c0"/>
<circle cx="1110" cy="504" r="10" class="c0"/>
<circle cx="940" cy="116" r="10" class="c0"/>
<circle cx="952" cy="1260" r="10" class="c0"/>
<circle cx="1226" cy="566" r="10" class="c0"/>
<circle cx="1124" cy="1118" r="10" class="c0"/>
<circle cx="972" cy="10" r="10" class="c0"/>
<circle cx="1020" cy="674" r="10" class="c0"/>
<circle cx="1208" cy="608" r="10" class="c0"/>
<circle cx="914" cy="994" r="10" class="c0"/>
<circle cx="998" cy="586" r="10" class="c0"/>
<circle cx="1084" cy="542" r="10" class="c0"/>
<circle cx="856" cy="580" r="10" class="c0"/>
<circle cx="922" cy="16" r="10" class="c0"/>
<circle cx="984" cy="632" r="10" class="c0"/>
<circle cx="1002" cy="704" r="10" class="c0"/>
<circle cx="906" cy="1140" r="10" class="c0"/>
<circle cx="1042" cy="696" r="10" class="c0"/>
<circle cx="968" cy="784" r="10" class="c0"/>
<circle cx="1036" cy="662" r="10" class="c0"/>
<circle cx="1024" cy="884" r="10" class="c0"/>
<circle cx="1112" cy="606" r="10" class="c0"/>
<circle cx="818" cy="650" r="10" class="c0"/>
<circle cx="1034" cy="1094" r="10" class="c0"/>
<circle cx="1002" cy="416" r="10" class="c0"/>
<circle cx="934" cy="714" r="10" class="c0"/>
<circle cx="944" cy="506" r="10" class="c0"/>
<circle cx="1210" cy="506" r="10" class="c0"/>
<circle cx="950" cy="230" r="10" class="c0"/>
<circle cx="1074" cy="852" r="10" class="c0"/>
<circle cx="1132" cy="1088" r="10" class="c0"/>
<circle cx="1028" cy="784" r="10" class="c0"/>
<circle cx="996" cy="1056" r="10" class="c0"/>
<circle cx="994" cy="852" r="10" class="c0"/>
<circle cx="1064" cy="524" r="10" class="c0"/>
<circle cx="1214" cy="538" r="10" class="c0"/>
<circle cx="1012" cy="1180" r="10" class="c0"/>
<circle cx="1018" cy="752" r="10" class="c0"/>
<circle cx="994" cy="178" r="10" class="c0"/>
<circle cx="920" cy="44" r="10" class="c0"/>
<circle cx="956" cy="440" r="10" class="c0"/>
<circle cx="992" cy="152" r="10" class="c0"/>
<circle cx="1012" cy="870" r="10" class="c0"/>
<circle cx="920" cy="926" r="10" class="c0"/>
<circle cx="964" cy="1014" r="10" class="c0"/>
<circle cx="1180" cy="584" r="10" class="c0"/>
<circle cx="960" cy="594" r="10" class="c0"/>
<circle cx="1018" cy="588" r="8" class="c0"/>
<circle cx="1042" cy="1210" r="8" class="c0"/>
<circle cx="1038" cy="1152" r="8" class="c0"/>
<circle cx="1116" cy="654" r="8" class="c0"/>
<circle cx="1042" cy="1072" r="8" class="c0"/>
<circle cx="942" cy="1010" r="8" class="c0"/>
<circle cx="804" cy="666" r="8" class="c0"/>
<circle cx="1112" cy="564" r="8" class="c0"/>
<circle cx="1116" cy="1138" r="8" class="c0"/>
<circle cx="868" cy="664" r="8" class="c0"/>
<circle cx="970" cy="566" r="8" class="c0"/>
<circle cx="902" cy="536" r="8" class="c0"/>
<circle cx="1058" cy="620" r="8" class="c0"/>
<circle cx="1042" cy="592" r="8" class="c0"/>
<circle cx="1000" cy="1006" r="8" class="c0"/>
<circle cx="962" cy="32" r="8" class="c0"/>
<circle cx="1028" cy="1168" r="8" class="c0"/>
<circle cx="1046" cy="722" r="8" class="c0"/>
<circle cx="974" cy="176" r="8" class="c0"/>
<circle cx="834" cy="678" r="8" class="c0"/>
<circle cx="914" cy="646" r="8" class="c0"/>
<circle cx="1086" cy="660" r="8" class="c0"/>
<circle cx="1022" cy="526" r="8" class="c0"/>
<circle cx="928" cy="1040" r="8" class="c0"/>
<circle cx="966" cy="1130" r="8" class="c0"/>
<circle cx="938" cy="852" r="8" class="c0"/>
<circle cx="844" cy="620" r="8" class="c0"/>
<circle cx="1056" cy="712" r="8" class="c0"/>
<circle cx="1006" cy="74" r="8" class="c0"/>
<circle cx="862" cy="646" r="8" class="c0"/>
<circle cx="824" cy="612" r="8" class="c0"/>
<circle cx="964" cy="990" r="8" class="c0"/>
<circle cx="1018" cy="998" r="8" class="c0"/>
<circle cx="1066" cy="754" r="8" class="c0"/>
<circle cx="944" cy="1112" r="8" class="c0"/>
<circle cx="872" cy="634" r="8" class="c0"/>
<circle cx="886" cy="1078" r="8" class="c0"/>
<circle cx="974" cy="928" r="8" class="c0"/>
<circle cx="1020" cy="938" r="8" class="c0"/>
<circle cx="816" cy="628" r="8" class="c0"/>
<circle cx="1170" cy="516" r="8" class="c0"/>
<circle cx="1048" cy="866" r="8" class="c0"/>
<circle cx="950" cy="824" r="8" class="c0"/>
<circle cx="950" cy="20" r="8" class="c0"/>
<circle cx="1064" cy="690" r="8" class="c0"/>
<circle cx="964" cy="1214" r="8" class="c0"/>
<circle cx="876" cy="686" r="8" class="c0"/>
<circle cx="1072" cy="672" r="8" class="c0"/>
<circle cx="1274" cy="556" r="8" class="c0"/>
<circle cx="958" cy="68" r="8" class="c0"/>
<circle cx="902" cy="28" r="8" class="c0"/>
<circle cx="854" cy="688" r="8" class="c0"/>
<circle cx="948" cy="758" r="8" class="c0"/>
<circle cx="944" cy="186" r="8" class="c0"/>
<circle cx="1114" cy="1156" r="8" class="c0"/>
<circle cx="1028" cy="494" r="8" class="c0"/>
<circle cx="970" cy="1182" r="8" class="c0"/>
<circle cx="1230" cy="618" r="8" class="c0"/>
<circle cx="984" cy="534" r="8" class="c0"/>
<circle cx="990" cy="102" r="8" class="c0"/>
<circle cx="1068" cy="650" r="8" class="c0"/>
<circle cx="1146" cy="508" r="8" class="c0"/>
<circle cx="986" cy="466" r="8" class="c0"/>
<circle cx="990" cy="976" r="8" class="c0"/>
<circle cx="1282" cy="572" r="8" class="c0"/>
<circle cx="1048" cy="938" r="8" class="c0"/>
<circle cx="984" cy="46" r="8" class="c0"/>
<circle cx="952" cy="842" r="8" class="c0"/>
<circle cx="958" cy="254" r="8" class="c0"/>
<circle cx="912" cy="88" r="8" class="c0"/>
<circle cx="1008" cy="52" r="8" class="c0"/>
<circle cx="1074" cy="1146" r="8" class="c0"/>
<circle cx="944" cy="978" r="8" class="c0"/>
<circle cx="896" cy="630" r="8" class="c0"/>
<circle cx="980" cy="446" r="8" class="c0"/>
<circle cx="974" cy="1114" r="8" class="c0"/>
<circle cx="1046" cy="444" r="8" class="c0"/>
<circle cx="1260" cy="592" r="8" class="c0"/>
<circle cx="944" cy="1150" r="8" class="c0"/>
<circle cx="1040" cy="1038" r="8" class="c0"/>
<circle cx="1012" cy="116" r="8" class="c0"/>
<circle cx="886" cy="672" r="8" class="c0"/>
<circle cx="974" cy="702" r="8" class="c0"/>
<circle cx="1062" cy="490" r="8" class="c0"/>
<circle cx="1040" cy="1010" r="8" class="c0"/>
<circle cx="1036" cy="808" r="8" class="c0"/>
<circle cx="1190" cy="622" r="8" class="c0"/>
<circle cx="958" cy="156" r="8" class="c0"/>
<circle cx="1176" cy="608" r="8" class="c0"/>
<circle cx="1038" cy="542" r="8" class="c0"/>
<circle cx="1170" cy="552" r="8" class="c0"/>
<circle cx="932" cy="56" r="8" class="c0"/>
<circle cx="1052" cy="424" r="8" class="c0"/>
<circle cx="970" cy="1250" r="8" class="c0"/>
<circle cx="924" cy="1022" r="8" class="c0"/>
<circle cx="1250" cy="520" r="8" class="c0"/>
<circle cx="1026" cy="630" r="8" class="c0"/>
<circle cx="952" cy="634" r="8" class="c0"/>
<circle cx="972" cy="1034" r="8" class="c0"/>
<circle cx="960" cy="804" r="8" class="c0"/>
<circle cx="934" cy="176" r="8" class="c0"/>
<circle cx="868" cy="612" r="8" class="c0"/>
<circle cx="922" cy="730" r="8" class="c0"/>
<circle cx="1094" cy="1038" r="8" class="c0"/>
<circle cx="978" cy="732" r="8" class="c0"/>
<circle cx="886" cy="1176" r="8" class="c0"/>
<circle cx="998" cy="758" r="8" class="c0"/>
<circle cx="1092" cy="844" r="8" class="c0"/>
<circle cx="930" cy="1060" r="8" class="c0"/>
<circle cx="1058" cy="1158" r="8" class="c0"/>
<circle cx="1050" cy="638" r="8" class="c0"/>
<circle cx="880" cy="576" r="8" class="c0"/>
<circle cx="1076" cy="610" r="8" class="c0"/>
<circle cx="1046" cy="510" r="8" class="c0"/>
<circle cx="1074" cy="960" r="8" class="c0"/>
<circle cx="1156" cy="622" r="8" class="c0"/>
<circle cx="1028" cy="434" r="8" class="c0"/>
<circle cx="1076" cy="476" r="8" class="c0"/>
<circle cx="1072" cy="828" r="8" class="c0"/>
<circle cx="936" cy="870" r="8" class="c0"/>
<circle cx="898" cy="52" r="8" class="c0"/>
<circle cx="976" cy="232" r="8" class="c0"/>
<circle cx="928" cy="1120" r="8" class="c0"/>
<circle cx="1066" cy="550" r="8" class="c0"/>
<circle cx="1040" cy="988" r="8" class="c0"/>
<circle cx="952" cy="526" r="8" class="c0"/>
<circle cx="1000" cy="666" r="8" class="c0"/>
<circle cx="1050" cy="1028" r="8" class="c0"/>
<circle cx="1064" cy="598" r="8" class="c0"/>
<circle cx="1002" cy="528" r="8" class="c0"/>
<circle cx="958" cy="914" r="8" class="c0"/>
<circle cx="1056" cy="742" r="8" class="c0"/>
<circle cx="968" cy="890" r="8" class="c0"/>
<circle cx="1136" cy="1130" r="8" class="c0"/>
<circle cx="1020" cy="648" r="8" class="c0"/>
<circle cx="1038" cy="760" r="8" class="c0"/>
<circle cx="1066" cy="936" r="8" class="c0"/>
<circle cx="846" cy="658" r="8" class="c0"/>
<circle cx="1124" cy="522" r="8" class="c0"/>
<circle cx="968" cy="486" r="8" class="c0"/>
<circle cx="948" cy="48" r="8" class="c0"/>
<circle cx="1052" cy="908" r="8" class="c0"/>
<circle cx="1066" cy="1090" r="8" class="c0"/>
<circle cx="1080" cy="1018" r="8" class="c0"/>
<circle cx="1110" cy="1058" r="8" class="c0"/>
<circle cx="834" cy="582" r="8" class="c0"/>
<circle cx="990" cy="1126" r="8" class="c0"/>
<circle cx="1020" cy="554" r="8" class="c0"/>
<circle cx="922" cy="602" r="8" class="c0"/>
<circle cx="906" cy="1032" r="8" class="c0"/>
<circle cx="870" cy="1150" r="8" class="c0"/>
<circle cx="974" cy="964" r="8" class="c0"/>
<circle cx="974" cy="1062" r="8" class="c0"/>
<circle cx="1204" cy="586" r="8" class="c0"/>
<circle cx="1014" cy="818" r="8" class="c0"/>
<circle cx="1220" cy="596" r="8" class="c0"/>
<circle cx="1004" cy="504" r="8" class="c0"/>
<circle cx="1124" cy="580" r="8" class="c0"/>
<circle cx="1064" cy="878" r="8" class="c0"/>
<circle cx="998" cy="778" r="8" class="c0"/>
<circle cx="1086" cy="562" r="8" class="c0"/>
<circle cx="1132" cy="562" r="8" class="c0"/>
<circle cx="1000" cy="928" r="8" class="c0"/>
<circle cx="1094" cy="520" r="8" class="c0"/>
<circle cx="886" cy="650" r="8" class="c0"/>
<circle cx="866" cy="700" r="8" class="c0"/>
<circle cx="970" cy="456" r="8" class="c0"/>
<circle cx="1024" cy="18" r="8" class="c0"/>
<circle cx="868" cy="1116" r="8" class="c0"/>
<circle cx="932" cy="644" r="8" class="c0"/>
<circle cx="1002" cy="1200" r="8" class="c0"/>
<circle cx="922" cy="1160" r="8" class="c0"/>
<circle cx="1022" cy="1018" r="8" class="c0"/>
<circle cx="1034" cy="926" r="8" class="c0"/>
<circle cx="964" cy="546" r="8" class="c0"/>
<circle cx="980" cy="606" r="8" class="c0"/>
<circle cx="906" cy="670" r="8" class="c0"/>
<circle cx="976" cy="424" r="8" class="c0"/>
<circle cx="1088" cy="1082" r="8" class="c0"/>
<circle cx="910" cy="112" r="8" class="c0"/>
<circle cx="964" cy="614" r="8" class="c0"/>
<circle cx="886" cy="1108" r="8" class="c0"/>
<circle cx="1122" cy="488" r="8" class="c0"/>
<circle cx="1022" cy="700" r="8" class="c0"/>
<circle cx="920" cy="1074" r="8" class="c0"/>
<circle cx="978" cy="1000" r="8" class="c0"/>
<circle cx="1246" cy="602" r="8" class="c0"/>
<circle cx="988" cy="378" r="8" class="c0"/>
<circle cx="1052" cy="1140" r="8" class="c0"/>
<circle cx="936" cy="590" r="8" class="c0"/>
<circle cx="898" cy="74" r="8" class="c0"/>
<circle cx="1044" cy="892" r="8" class="c0"/>
<circle cx="958" cy="748" r="8" class="c0"/>
<circle cx="1036" cy="562" r="8" class="c0"/>
<circle cx="1080" cy="1166" r="8" class="c0"/>
<circle cx="1070" cy="442" r="8" class="c0"/>
<circle cx="948" cy="138" r="8" class="c0"/>
<circle cx="934" cy="992" r="8" class="c0"/>
<circle cx="1162" cy="500" r="8" class="c0"/>
<circle cx="1046" cy="476" r="8" class="c0"/>
<circle cx="914" cy="620" r="8" class="c0"/>
<circle cx="902" cy="1070" r="8" class="c0"/>
<circle cx="962" cy="274" r="8" class="c0"/>
<circle cx="956" cy="198" r="8" class="c0"/>
<circle cx="1034" cy="740" r="8" class="c0"/>
<circle cx="928" cy="104" r="8" class="c0"/>
<circle cx="958" cy="1194" r="8" class="c0"/>
<circle cx="850" cy="602" r="8" class="c0"/>
<circle cx="792" cy="684" r="8" class="c0"/>
<circle cx="936" cy="158" r="8" class="c0"/>
<circle cx="960" cy="1102" r="8" class="c0"/>
<circle cx="1040" cy="614" r="8" class="c0"/>
<circle cx="934" cy="802" r="8" class="c0"/>
<circle cx="944" cy="456" r="8" class="c0"/>
<circle cx="1194" cy="596" r="8" class="c0"/>
<circle cx="1008" cy="636" r="8" class="c0"/>
<circle cx="1058" cy="1012" r="8" class="c0"/>
<circle cx="1102" cy="576" r="8" class="c0"/>
<circle cx="980" cy="556" r="8" class="c0"/>
<circle cx="934" cy="564" r="8" class="c0"/>
<circle cx="1058" cy="574" r="8" class="c0"/>
<circle cx="990" cy="400" r="8" class="c0"/>
<circle cx="1146" cy="1118" r="8" class="c0"/>
<circle cx="1078" cy="1100" r="8" class="c0"/>
<circle cx="974" cy="664" r="8" class="c0"/>
<circle cx="926" cy="524" r="8" class="c0"/>
<circle cx="1026" cy="46" r="8" class="c0"/>
<circle cx="1008" cy="1134" r="8" class="c0"/>
<circle cx="1056" cy="1300" r="8" class="c0"/>
<circle cx="916" cy="756" r="8" class="c0"/>
<circle cx="952" cy="1056" r="8" class="c0"/>
<circle cx="1098" cy="1014" r="8" class="c0"/>
<circle cx="976" cy="1164" r="8" class="c0"/>
<circle cx="1050" cy="1050" r="8" class="c0"/>
<circle cx="890" cy="700" r="8" class="c0"/>
<circle cx="902" cy="610" r="8" class="c0"/>
<circle cx="886" cy="620" r="8" class="c0"/>
<circle cx="900" cy="1120" r="8" class="c0"/>
<circle cx="976" cy="584" r="8" class="c0"/>
<circle cx="896" cy="1162" r="8" class="c0"/>
<circle cx="1072" cy="630" r="8" class="c0"/>
<circle cx="804" cy="638" r="8" class="c0"/>
<circle cx="932" cy="832" r="8" class="c0"/>
<circle cx="890" cy="1056" r="8" class="c0"/>
<circle cx="1004" cy="988" r="8" class="c0"/>
<circle cx="822" cy="594" r="8" class="c0"/>
<circle cx="1080" cy="460" r="6" class="c0"/>
<circle cx="916" cy="64" r="6" class="c0"/>
<circle cx="896" cy="684" r="6" class="c0"/>
<circle cx="994" cy="86" r="6" class="c0"/>
<circle cx="958" cy="496" r="6" class="c0"/>
<circle cx="936" cy="1094" r="6" class="c0"/>
<circle cx="938" cy="694" r="6" class="c0"/>
<circle cx="1020" cy="1060" r="6" class="c0"/>
<circle cx="978" cy="876" r="6" class="c0"/>
<circle cx="1138" cy="494" r="6" class="c0"/>
<circle cx="1094" cy="616" r="6" class="c0"/>
<circle cx="890" cy="38" r="6" class="c0"/>
<circle cx="874" cy="1098" r="6" class="c0"/>
<circle cx="898" cy="1088" r="6" class="c0"/>
<circle cx="870" cy="1168" r="6" class="c0"/>
<circle cx="938" cy="772" r="6" class="c0"/>
<circle cx="1096" cy="466" r="6" class="c0"/>
<circle cx="1166" cy="596" r="6" class="c0"/>
<circle cx="1248" cy="560" r="6" class="c0"/>
<circle cx="980" cy="900" r="6" class="c0"/>
<circle cx="996" cy="906" r="6" class="c0"/>
<circle cx="970" cy="522" r="6" class="c0"/>
<circle cx="954" cy="700" r="6" class="c0"/>
<circle cx="906" cy="1014" r="6" class="c0"/>
<circle cx="1010" cy="768" r="6" class="c0"/>
<circle cx="1028" cy="1270" r="6" class="c0"/>
<circle cx="970" cy="54" r="6" class="c0"/>
<circle cx="948" cy="880" r="6" class="c0"/>
<circle cx="1058" cy="992" r="6" class="c0"/>
<circle cx="1006" cy="96" r="6" class="c0"/>
<circle cx="970" cy="1232" r="6" class="c0"/>
<circle cx="824" cy="668" r="6" class="c0"/>
<circle cx="1024" cy="414" r="6" class="c0"/>
<circle cx="938" cy="1274" r="6" class="c0"/>
<circle cx="924" cy="544" r="6" class="c0"/>
<circle cx="1006" cy="948" r="6" class="c0"/>
<circle cx="946" cy="958" r="6" class="c0"/>
<circle cx="1284" cy="590" r="6" class="c0"/>
<circle cx="954" cy="1166" r="6" class="c0"/>
<circle cx="1044" cy="1172" r="6" class="c0"/>
<circle cx="942" cy="920" r="6" class="c0"/>
<circle cx="1084" cy="976" r="6" class="c0"/>
<circle cx="946" cy="1128" r="6" class="c0"/>
<circle cx="984" cy="916" r="6" class="c0"/>
<circle cx="1038" cy="524" r="6" class="c0"/>
<circle cx="958" cy="1278" r="6" class="c0"/>
<circle cx="926" cy="882" r="6" class="c0"/>
<circle cx="858" cy="562" r="6" class="c0"/>
<circle cx="946" cy="604" r="6" class="c0"/>
<circle cx="1106" cy="1176" r="6" class="c0"/>
<circle cx="1054" cy="806" r="6" class="c0"/>
<circle cx="1220" cy="520" r="6" class="c0"/>
<circle cx="938" cy="8" r="6" class="c0"/>
<circle cx="978" cy="1096" r="6" class="c0"/>
<circle cx="978" cy="84" r="6" class="c0"/>
<circle cx="1048" cy="552" r="6" class="c0"/>
<circle cx="958" cy="214" r="6" class="c0"/>
<circle cx="1234" cy="518" r="6" class="c0"/>
<circle cx="962" cy="512" r="6" class="c0"/>
<circle cx="900" cy="100" r="6" class="c0"/>
<circle cx="1056" cy="924" r="6" class="c0"/>
<circle cx="1000" cy="810" r="6" class="c0"/>
<circle cx="1182" cy="562" r="6" class="c0"/>
<circle cx="1146" cy="608" r="6" class="c0"/>
<circle cx="982" cy="1146" r="6" class="c0"/>
<circle cx="900" cy="12" r="6" class="c0"/>
<circle cx="990" cy="1104" r="6" class="c0"/>
<circle cx="1050" cy="672" r="6" class="c0"/>
<circle cx="992" cy="1178" r="6" class="c0"/>
<circle cx="830" cy="638" r="6" class="c0"/>
<circle cx="1090" cy="828" r="6" class="c0"/>
<circle cx="1116" cy="628" r="6" class="c0"/>
<circle cx="872" cy="594" r="6" class="c0"/>
<circle cx="928" cy="786" r="6" class="c0"/>
<circle cx="990" cy="716" r="6" class="c0"/>
<circle cx="1016" cy="36" r="6" class="c0"/>
<circle cx="996" cy="6" r="6" class="c0"/>
<circle cx="796" cy="652" r="6" class="c0"/>
<circle cx="802" cy="620" r="6" class="c0"/>
<circle cx="988" cy="656" r="6" class="c0"/>
<circle cx="1034" cy="906" r="6" class="c0"/>
<circle cx="1006" cy="392" r="6" class="c0"/>
<circle cx="924" cy="1138" r="6" class="c0"/>
<circle cx="1016" cy="1282" r="6" class="c0"/>
<circle cx="968" cy="146" r="6" class="c0"/>
<circle cx="1020" cy="448" r="6" class="c0"/>
<circle cx="1266" cy="526" r="6" class="c0"/>
<circle cx="956" cy="968" r="6" class="c0"/>
<circle cx="940" cy="662" r="6" class="c0"/>
<circle cx="932" cy="488" r="6" class="c0"/>
<circle cx="958" cy="118" r="6" class="c0"/>
<circle cx="1022" cy="978" r="6" class="c0"/>
<circle cx="1082" cy="874" r="6" class="c0"/>
<circle cx="978" cy="28" r="6" class="c0"/>
<circle cx="1012" cy="540" r="6" class="c0"/>
<circle cx="1048" cy="532" r="6" class="c0"/>
<circle cx="1126" cy="1064" r="6" class="c0"/>
<circle cx="1102" cy="662" r="6" class="c0"/>
<circle cx="914" cy="588" r="6" class="c0"/>
<circle cx="950" cy="170" r="6" class="c0"/>
<circle cx="922" cy="1188" r="6" class="c0"/>
<circle cx="958" cy="768" r="6" class="c0"/>
<circle cx="1030" cy="604" r="6" class="c0"/>
<circle cx="1086" cy="1058" r="6" class="c0"/>
<circle cx="912" cy="976" r="6" class="c0"/>
<circle cx="974" cy="816" r="6" class="c0"/>
<circle cx="1058" cy="662" r="6" class="c0"/>
<circle cx="896" cy="660" r="6" class="c0"/>
<circle cx="924" cy="72" r="6" class="c0"/>
<circle cx="1020" cy="1250" r="6" class="c0"/>
<circle cx="914" cy="164" r="6" class="c0"/>
<circle cx="1056" cy="848" r="6" class="c0"/>
<circle cx="1296" cy="580" r="6" class="c0"/>
<circle cx="984" cy="1074" r="6" class="c0"/>
<circle cx="1048" cy="794" r="6" class="c0"/>
<circle cx="934" cy="940" r="6" class="c0"/>
<circle cx="898" cy="556" r="6" class="c0"/>
<circle cx="998" cy="824" r="6" class="c0"/>
<circle cx="1020" cy="1146" r="6" class="c0"/>
<circle cx="938" cy="1166" r="6" class="c0"/>
<circle cx="1044" cy="492" r="6" class="c0"/>
<circle cx="844" cy="642" r="6" class="c0"/>
<circle cx="1056" cy="954" r="6" class="c0"/>
<circle cx="1126" cy="636" r="6" class="c0"/>
<circle cx="1114" cy="1042" r="6" class="c0"/>
<circle cx="854" cy="630" r="6" class="c0"/>
<circle cx="1022" cy="64" r="6" class="c0"/>
<circle cx="992" cy="196" r="6" class="c0"/>
<circle cx="1056" cy="540" r="6" class="c0"/>
<circle cx="1018" cy="570" r="6" class="c0"/>
<circle cx="1036" cy="456" r="6" class="c0"/>
<circle cx="932" cy="222" r="6" class="c0"/>
<circle cx="1024" cy="828" r="6" class="c0"/>
<circle cx="1178" cy="496" r="6" class="c0"/>
<circle cx="1014" cy="8" r="6" class="c0"/>
<circle cx="860" cy="1138" r="6" class="c0"/>
<circle cx="992" cy="434" r="6" class="c0"/>
<circle cx="1030" cy="578" r="6" class="c0"/>
<circle cx="1152" cy="488" r="6" class="c0"/>
<circle cx="808" cy="608" r="6" class="c0"/>
<circle cx="1010" cy="432" r="6" class="c0"/>
<circle cx="1128" cy="596" r="6" class="c0"/>
<circle cx="1020" cy="82" r="6" class="c0"/>
<circle cx="974" cy="158" r="6" class="c0"/>
<circle cx="996" cy="118" r="6" class="c0"/>
<circle cx="1108" cy="1028" r="6" class="c0"/>
<circle cx="1014" cy="1236" r="6" class="c0"/>
<circle cx="1034" cy="1056" r="6" class="c0"/>
<circle cx="940" cy="34" r="6" class="c0"/>
<circle cx="986" cy="574" r="6" class="c0"/>
<circle cx="966" cy="222" r="6" class="c0"/>
<circle cx="950" cy="1092" r="6" class="c0"/>
<circle cx="912" cy="942" r="6" class="c0"/>
<circle cx="988" cy="742" r="6" class="c0"/>
<circle cx="1100" cy="1136" r="6" class="c0"/>
<circle cx="958" cy="178" r="6" class="c0"/>
<circle cx="816" cy="676" r="6" class="c0"/>
<circle cx="968" cy="1268" r="6" class="c0"/>
<circle cx="1060" cy="818" r="6" class="c0"/>
<circle cx="998" cy="648" r="6" class="c0"/>
<circle cx="986" cy="1258" r="6" class="c0"/>
<circle cx="1082" cy="818" r="6" class="c0"/>
<circle cx="1032" cy="710" r="6" class="c0"/>
<circle cx="962" cy="1046" r="6" class="c0"/>
<circle cx="878" cy="710" r="6" class="c0"/>
<circle cx="1144" cy="524" r="6" class="c0"/>
<circle cx="954" cy="1000" r="6" class="c0"/>
<circle cx="926" cy="580" r="6" class="c0"/>
<circle cx="954" cy="556" r="6" class="c0"/>
<circle cx="842" cy="568" r="6" class="c0"/>
<circle cx="998" cy="724" r="6" class="c0"/>
<circle cx="1134" cy="656" r="6" class="c0"/>
<circle cx="906" cy="128" r="6" class="c0"/>
<circle cx="892" cy="126" r="6" class="c0"/>
<circle cx="890" cy="566" r="6" class="c0"/>
<circle cx="926" cy="978" r="6" class="c0"/>
<circle cx="1128" cy="506" r="6" class="c0"/>
<circle cx="886" cy="1152" r="6" class="c0"/>
<circle cx="1096" cy="1068" r="6" class="c0"/>
<circle cx="1098" cy="552" r="6" class="c0"/>
<circle cx="1204" cy="524" r="6" class="c0"/>
<circle cx="1072" cy="1128" r="6" class="c0"/>
<circle cx="1038" cy="1112" r="6" class="c0"/>
<circle cx="1196" cy="496" r="6" class="c0"/>
<circle cx="1018" cy="920" r="6" class="c0"/>
<circle cx="1038" cy="416" r="6" class="c0"/>
<circle cx="982" cy="1046" r="6" class="c0"/>
<circle cx="986" cy="868" r="6" class="c0"/>
<circle cx="916" cy="178" r="6" class="c0"/>
<circle cx="1150" cy="552" r="6" class="c0"/>
<circle cx="1014" cy="486" r="6" class="c0"/>
<circle cx="956" cy="84" r="6" class="c0"/>
<circle cx="1026" cy="510" r="6" class="c0"/>
<circle cx="1058" cy="1208" r="6" class="c0"/>
<circle cx="868" cy="1182" r="6" class="c0"/>
<circle cx="1136" cy="1106" r="6" class="c0"/>
<circle cx="932" cy="760" r="6" class="c0"/>
<circle cx="1052" cy="1082" r="6" class="c0"/>
<circle cx="1006" cy="684" r="6" class="c0"/>
<circle cx="944" cy="212" r="6" class="c0"/>
<circle cx="1004" cy="468" r="6" class="c0"/>
<circle cx="936" cy="250" r="6" class="c0"/>
<circle cx="982" cy="774" r="6" class="c0"/>
<circle cx="942" cy="66" r="6" class="c0"/>
<circle cx="926" cy="1006" r="6" class="c0"/>
<circle cx="1088" cy="862" r="6" class="c0"/>
<circle cx="922" cy="122" r="6" class="c0"/>
<circle cx="892" cy="90" r="6" class="c0"/>
<circle cx="924" cy="658" r="6" class="c0"/>
<circle cx="1066" cy="1026" r="6" class="c0"/>
<circle cx="898" cy="1186" r="6" class="c0"/>
<circle cx="1032" cy="74" r="6" class="c0"/>
</svg>
