<?xml version="1.0" encoding="utf-8"?>
<svg xmlns="http://www.w3.org/2000/svg"
     xmlns:xlink="http://www.w3.org/1999/xlink" width="1920" height="1440" >

            <defs>
            <style type="text/css"><![CDATA[
circle {stroke: none;}
.c0 {fill: #FFFFFF;}
]]></style>
            </defs>
<rect x="0" y="0" width="1920" height="1440" fill="black"/>
<circle cx="992" cy="1014" r="14" class="c0"/>
<circle cx="948" cy="968" r="12" class="c0"/>
<circle cx="1024" cy="934" r="12" class="c0"/>
<circle cx="970" cy="632" r="12" class="c0"/>
<circle cx="952" cy="38" r="12" class="c0"/>
<circle cx="1050" cy="928" r="12" class="c0"/>
<circle cx="924" cy="900" r="12" class="c0"/>
<circle cx="1112" cy="1092" r="12" class="c0"/>
<circle cx="1064" cy="1154" r="12" class="c0"/>
<circle cx="1080" cy="592" r="12" class="c0"/>
<circle cx="1044" cy="890" r="12" class="c0"/>
<circle cx="1154" cy="586" r="12" class="c0"/>
<circle cx="1012" cy="710" r="12" class="c0"/>
<circle cx="1098" cy="494" r="12" class="c0"/>
<circle cx="848" cy="634" r="12" class="c0"/>
<circle cx="1194" cy="562" r="12" class="c0"/>
<circle cx="964" cy="740" r="12" class="c0"/>
<circle cx="956" cy="770" r="12" class="c0"/>
<circle cx="798" cy="634" r="12" class="c0"/>
<circle cx="974" cy="894" r="12" class="c0"/>
<circle cx="950" cy="870" r="12" class="c0"/>
<circle cx="972" cy="164" r="12" class="c0"/>
<circle cx="1034" cy="538" r="12" class="c0"/>
<circle cx="1028" cy="638" r="12" class="c0"/>
<circle cx="936" cy="1134" r="12" class="c0"/>
<circle cx="1078" cy="566" r="12" class="c0"/>
<circle cx="1134" cy="566" r="12" class="c0"/>
<circle cx="960" cy="520" r="12" class="c0"/>
<circle cx="1088" cy="526" r="12" class="c0"/>
<circle cx="866" cy="562" r="12" class="c0"/>
<circle cx="1002" cy="948" r="12" class="c0"/>
<circle cx="994" cy="1182" r="12" class="c0"/>
<circle cx="920" cy="556" r="12" class="c0"/>
<circle cx="1094" cy="1050" r="12" class="c0"/>
<circle cx="974" cy="948" r="12" class="c0"/>
<circle cx="1042" cy="578" r="12" class="c0"/>
<circle cx="1026" cy="446" r="12" class="c0"/>
<circle cx="1274" cy="558" r="12" class="c0"/>
<circle cx="1000" cy="588" r="12" class="c0"/>
<circle cx="1016" cy="842" r="12" class="c0"/>
<circle cx="1022" cy="1126" r="12" class="c0"/>
<circle cx="964" cy="1220" r="12" class="c0"/>
<circle cx="900" cy="1120" r="12" class="c0"/>
<circle cx="1060" cy="868" r="12" class="c0"/>
<circle cx="834" cy="652" r="12" class="c0"/>
<circle cx="1226" cy="602" r="12" class="c0"/>
<circle cx="932" cy="142" r="12" class="c0"/>
<circle cx="1120" cy="1134" r="12" class="c0"/>
<circle cx="1106" cy="572" r="12" class="c0"/>
<circle cx="1012" cy="1266" r="12" class="c0"/>
<circle cx="944" cy="500" r="10" class="c0"/>
<circle cx="810" cy="658" r="10" class="c0"/>
<circle cx="910" cy="1018" r="10" class="c0"/>
<circle cx="994" cy="974" r="10" class="c0"/>
<circle cx="1142" cy="534" r="10" class="c0"/>
<circle cx="944" cy="724" r="10" class="c0"/>
<circle cx="998" cy="462" r="10" class="c0"/>
<circle cx="900" cy="1068" r="10" class="c0"/>
<circle cx="952" cy="1154" r="10" class="c0"/>
<circle cx="1016" cy="1238" r="10" class="c0"/>
<circle cx="1240" cy="544" r="10" class="c0"/>
<circle cx="1020" cy="1186" r="10" class="c0"/>
<circle cx="1064" cy="1052" r="10" class="c0"/>
<circle cx="1118" cy="644" r="10" class="c0"/>
<circle cx="1094" cy="676" r="10" class="c0"/>
<circle cx="968" cy="1042" r="10" class="c0"/>
<circle cx="974" cy="594" r="10" class="c0"/>
<circle cx="820" cy="680" r="10" class="c0"/>
<circle cx="962" cy="82" r="10" class="c0"/>
<circle cx="1260" cy="580" r="10" class="c0"/>
<circle cx="872" cy="1146" r="10" class="c0"/>
<circle cx="1040" cy="788" r="10" class="c0"/>
<circle cx="1096" cy="1170" r="10" class="c0"/>
<circle cx="1190" cy="626" r="10" class="c0"/>
<circle cx="972" cy="692" r="10" class="c0"/>
<circle cx="882" cy="624" r="10" class="c0"/>
<circle cx="944" cy="100" r="10" class="c0"/>
<circle cx="996" cy="692" r="10" class="c0"/>
<circle cx="1122" cy="1176" r="10" class="c0"/>
<circle cx="966" cy="1078" r="10" class="c0"/>
<circle cx="900" cy="636" r="10" class="c0"/>
<circle cx="1022" cy="904" r="10" class="c0"/>
<circle cx="896" cy="554" r="10" class="c0"/>
<circle cx="1050" cy="694" r="10" class="c0"/>
<circle cx="968" cy="1254" r="10" class="c0"/>
<circle cx="1032" cy="740" r="10" class="c0"/>
<circle cx="1156" cy="628" r="10" class="c0"/>
<circle cx="962" cy="254" r="10" class="c0"/>
<circle cx="960" cy="448" r="10" class="c0"/>
<circle cx="982" cy="504" r="10" class="c0"/>
<circle cx="968" cy="1000" r="10" class="c0"/>
<circle cx="1132" cy="1114" r="10" class="c0"/>
<circle cx="958" cy="578" r="10" class="c0"/>
<circle cx="994" cy="792" r="10" class="c0"/>
<circle cx="1000" cy="906" r="10" class="c0"/>
<circle cx="1018" cy="662" r="10" class="c0"/>
<circle cx="1046" cy="960" r="10" class="c0"/>
<circle cx="886" cy="588" r="10" class="c0"/>
<circle cx="914" cy="594" r="10" class="c0"/>
<circle cx="1082" cy="850" r="10" class="c0"/>
<circle cx="1204" cy="536" r="10" class="c0"/>
<circle cx="942" cy="1202" r="10" class="c0"/>
<circle cx="922" cy="1038" r="10" class="c0"/>
<circle cx="1118" cy="518" r="10" class="c0"/>
<circle cx="1046" cy="614" r="10" class="c0"/>
<circle cx="1036" cy="1214" r="10" class="c0"/>
<circle cx="982" cy="36" r="10" class="c0"/>
<circle cx="1052" cy="826" r="10" class="c0"/>
<circle cx="860" cy="594" r="10" class="c0"/>
<circle cx="994" cy="1154" r="10" class="c0"/>
<circle cx="1082" cy="466" r="10" class="c0"/>
<circle cx="1008" cy="488" r="10" class="c0"/>
<circle cx="950" cy="658" r="10" class="c0"/>
<circle cx="996" cy="654" r="10" class="c0"/>
<circle cx="1004" cy="400" r="10" class="c0"/>
<circle cx="1078" cy="1192" r="10" class="c0"/>
<circle cx="962" cy="802" r="10" class="c0"/>
<circle cx="982" cy="94" r="10" class="c0"/>
<circle cx="960" cy="606" r="10" class="c0"/>
<circle cx="1090" cy="1118" r="10" class="c0"/>
<circle cx="980" cy="562" r="10" class="c0"/>
<circle cx="1150" cy="508" r="10" class="c0"/>
<circle cx="1234" cy="568" r="10" class="c0"/>
<circle cx="930" cy="514" r="10" class="c0"/>
<circle cx="934" cy="848" r="10" class="c0"/>
<circle cx="970" cy="1170" r="10" class="c0"/>
<circle cx="964" cy="712" r="10" class="c0"/>
<circle cx="854" cy="666" r="10" class="c0"/>
<circle cx="988" cy="842" r="10" class="c0"/>
<circle cx="1024" cy="1160" r="10" class="c0"/>
<circle cx="978" cy="126" r="10" class="c0"/>
<circle cx="942" cy="992" r="10" class="c0"/>
<circle cx="924" cy="942" r="10" class="c0"/>
<circle cx="1092" cy="1020" r="10" class="c0"/>
<circle cx="1056" cy="804" r="10" class="c0"/>
<circle cx="1062" cy="1098" r="10" class="c0"/>
<circle cx="1048" cy="1120" r="10" class="c0"/>
<circle cx="1008" cy="1110" r="10" class="c0"/>
<circle cx="974" cy="1124" r="10" class="c0"/>
<circle cx="1080" cy="630" r="10" class="c0"/>
<circle cx="920" cy="1152" r="10" class="c0"/>
<circle cx="1060" cy="736" r="10" class="c0"/>
<circle cx="1008" cy="1038" r="10" class="c0"/>
<circle cx="1104" cy="546" r="10" class="c0"/>
<circle cx="884" cy="1094" r="10" class="c0"/>
<circle cx="952" cy="130" r="10" class="c0"/>
<circle cx="840" cy="604" r="10" class="c0"/>
<circle cx="944" cy="1042" r="10" class="c0"/>
<circle cx="1120" cy="1058" r="10" class="c0"/>
<circle cx="1046" cy="1174" r="10" class="c0"/>
<circle cx="1044" cy="478" r="10" class="c0"/>
<circle cx="1014" cy="880" r="10" class="c0"/>
<circle cx="1064" cy="784" r="10" class="c0"/>
<circle cx="1138" cy="1090" r="10" class="c0"/>
<circle cx="956" cy="12" r="10" class="c0"/>
<circle cx="978" cy="778" r="10" class="c0"/>
<circle cx="932" cy="700" r="10" class="c0"/>
<circle cx="966" cy="838" r="10" class="c0"/>
<circle cx="1208" cy="582" r="10" class="c0"/>
<circle cx="1106" cy="1190" r="10" class="c0"/>
<circle cx="912" cy="650" r="10" class="c0"/>
<circle cx="1260" cy="616" r="10" class="c0"/>
<circle cx="1114" cy="604" r="10" class="c0"/>
<circle cx="1024" cy="1082" r="10" class="c0"/>
<circle cx="1004" cy="1210" r="10" class="c0"/>
<circle cx="950" cy="930" r="10" class="c0"/>
<circle cx="880" cy="650" r="10" class="c0"/>
<circle cx="976" cy="920" r="10" class="c0"/>
<circle cx="890" cy="1158" r="10" class="c0"/>
<circle cx="1034" cy="766" r="10" class="c0"/>
<circle cx="874" cy="1174" r="10" class="c0"/>
<circle cx="942" cy="206" r="10" class="c0"/>
<circle cx="1062" cy="1014" r="10" class="c0"/>
<circle cx="994" cy="1050" r="10" class="c0"/>
<circle cx="816" cy="602" r="8" class="c0"/>
<circle cx="1062" cy="518" r="8" class="c0"/>
<circle cx="984" cy="1070" r="8" class="c0"/>
<circle cx="1026" cy="986" r="8" class="c0"/>
<circle cx="992" cy="730" r="8" class="c0"/>
<circle cx="1052" cy="1068" r="8" class="c0"/>
<circle cx="988" cy="758" r="8" class="c0"/>
<circle cx="960" cy="910" r="8" class="c0"/>
<circle cx="948" cy="1118" r="8" class="c0"/>
<circle cx="1184" cy="598" r="8" class="c0"/>
<circle cx="1010" cy="1070" r="8" class="c0"/>
<circle cx="940" cy="598" r="8" class="c0"/>
<circle cx="1170" cy="542" r="8" class="c0"/>
<circle cx="1042" cy="996" r="8" class="c0"/>
<circle cx="976" cy="10" r="8" class="c0"/>
<circle cx="978" cy="540" r="8" class="c0"/>
<circle cx="994" cy="818" r="8" class="c0"/>
<circle cx="928" cy="788" r="8" class="c0"/>
<circle cx="1248" cy="604" r="8" class="c0"/>
<circle cx="932" cy="48" r="8" class="c0"/>
<circle cx="1074" cy="502" r="8" class="c0"/>
<circle cx="938" cy="680" r="8" class="c0"/>
<circle cx="1036" cy="424" r="8" class="c0"/>
<circle cx="1062" cy="1132" r="8" class="c0"/>
<circle cx="918" cy="756" r="8" class="c0"/>
<circle cx="962" cy="198" r="8" class="c0"/>
<circle cx="1106" cy="626" r="8" class="c0"/>
<circle cx="908" cy="670" r="8" class="c0"/>
<circle cx="930" cy="610" r="8" class="c0"/>
<circle cx="946" cy="752" r="8" class="c0"/>
<circle cx="1130" cy="502" r="8" class="c0"/>
<circle cx="996" cy="1134" r="8" class="c0"/>
<circle cx="818" cy="624" r="8" class="c0"/>
<circle cx="1040" cy="856" r="8" class="c0"/>
<circle cx="880" cy="676" r="8" class="c0"/>
<circle cx="922" cy="1172" r="8" class="c0"/>
<circle cx="1050" cy="456" r="8" class="c0"/>
<circle cx="1052" cy="982" r="8" class="c0"/>
<circle cx="1018" cy="568" r="8" class="c0"/>
<circle cx="1006" cy="746" r="8" class="c0"/>
<circle cx="978" cy="1204" r="8" class="c0"/>
<circle cx="1018" cy="1008" r="8" class="c0"/>
<circle cx="992" cy="378" r="8" class="c0"/>
<circle cx="1040" cy="1146" r="8" class="c0"/>
<circle cx="904" cy="1142" r="8" class="c0"/>
<circle cx="908" cy="990" r="8" class="c0"/>
<circle cx="1022" cy="586" r="8" class="c0"/>
<circle cx="962" cy="1138" r="8" class="c0"/>
<circle cx="1146" cy="608" r="8" class="c0"/>
<circle cx="1002" cy="612" r="8" class="c0"/>
<circle cx="918" cy="966" r="8" class="c0"/>
<circle cx="1020" cy="616" r="8" class="c0"/>
<circle cx="1002" cy="512" r="8" class="c0"/>
<circle cx="1076" cy="900" r="8" class="c0"/>
<circle cx="940" cy="72" r="8" class="c0"/>
<circle cx="1058" cy="492" r="8" class="c0"/>
<circle cx="920" cy="626" r="8" class="c0"/>
<circle cx="1078" cy="1140" r="8" class="c0"/>
<circle cx="988" cy="1088" r="8" class="c0"/>
<circle cx="1034" cy="674" r="8" class="c0"/>
<circle cx="942" cy="162" r="8" class="c0"/>
<circle cx="1156" cy="558" r="8" class="c0"/>
<circle cx="952" cy="474" r="8" class="c0"/>
<circle cx="946" cy="832" r="8" class="c0"/>
<circle cx="1072" cy="432" r="8" class="c0"/>
<circle cx="994" cy="628" r="8" class="c0"/>
<circle cx="1244" cy="524" r="8" class="c0"/>
<circle cx="1062" cy="470" r="8" class="c0"/>
<circle cx="958" cy="1016" r="8" class="c0"/>
<circle cx="984" cy="442" r="8" class="c0"/>
<circle cx="910" cy="1052" r="8" class="c0"/>
<circle cx="1058" cy="1210" r="8" class="c0"/>
<circle cx="1006" cy="676" r="8" class="c0"/>
<circle cx="1102" cy="1074" r="8" class="c0"/>
<circle cx="930" cy="18" r="8" class="c0"/>
<circle cx="1124" cy="666" r="8" class="c0"/>
<circle cx="1044" cy="1090" r="8" class="c0"/>
<circle cx="898" cy="1192" r="8" class="c0"/>
<circle cx="1018" cy="688" r="8" class="c0"/>
<circle cx="972" cy="872" r="8" class="c0"/>
<circle cx="1204" cy="606" r="8" class="c0"/>
<circle cx="1004" cy="858" r="8" class="c0"/>
<circle cx="948" cy="1260" r="8" class="c0"/>
<circle cx="1046" cy="554" r="8" class="c0"/>
<circle cx="1068" cy="608" r="8" class="c0"/>
<circle cx="1000" cy="542" r="8" class="c0"/>
<circle cx="1028" cy="1056" r="8" class="c0"/>
<circle cx="938" cy="1080" r="8" class="c0"/>
<circle cx="932" cy="1102" r="8" class="c0"/>
<circle cx="922" cy="1118" r="8" class="c0"/>
<circle cx="956" cy="546" r="8" class="c0"/>
<circle cx="1082" cy="650" r="8" class="c0"/>
<circle cx="954" cy="178" r="8" class="c0"/>
<circle cx="934" cy="570" r="8" class="c0"/>
<circle cx="1016" cy="428" r="8" class="c0"/>
<circle cx="942" cy="460" r="8" class="c0"/>
<circle cx="960" cy="58" r="8" class="c0"/>
<circle cx="1216" cy="548" r="8" class="c0"/>
<circle cx="902" cy="608" r="8" class="c0"/>
<circle cx="844" cy="574" r="8" class="c0"/>
<circle cx="962" cy="674" r="8" class="c0"/>
<circle cx="1162" cy="520" r="8" class="c0"/>
<circle cx="1184" cy="500" r="8" class="c0"/>
<circle cx="1004" cy="994" r="8" class="c0"/>
<circle cx="1080" cy="814" r="8" class="c0"/>
<circle cx="1038" cy="706" r="8" class="c0"/>
<circle cx="938" cy="1022" r="8" class="c0"/>
<circle cx="1034" cy="810" r="8" class="c0"/>
<circle cx="1054" cy="654" r="8" class="c0"/>
<circle cx="1144" cy="1160" r="8" class="c0"/>
<circle cx="1044" cy="724" r="8" class="c0"/>
<circle cx="984" cy="678" r="8" class="c0"/>
<circle cx="990" cy="1270" r="8" class="c0"/>
<circle cx="1078" cy="930" r="8" class="c0"/>
<circle cx="1046" cy="1040" r="8" class="c0"/>
<circle cx="986" cy="476" r="8" class="c0"/>
<circle cx="940" cy="912" r="8" class="c0"/>
<circle cx="920" cy="1092" r="8" class="c0"/>
<circle cx="1070" cy="960" r="8" class="c0"/>
<circle cx="930" cy="1004" r="8" class="c0"/>
<circle cx="1026" cy="966" r="8" class="c0"/>
<circle cx="944" cy="1176" r="8" class="c0"/>
<circle cx="984" cy="72" r="8" class="c0"/>
<circle cx="1062" cy="542" r="8" class="c0"/>
<circle cx="1012" cy="780" r="8" class="c0"/>
<circle cx="1028" cy="514" r="8" class="c0"/>
<circle cx="898" cy="688" r="8" class="c0"/>
<circle cx="1214" cy="510" r="8" class="c0"/>
<circle cx="924" cy="1190" r="8" class="c0"/>
<circle cx="962" cy="1188" r="8" class="c0"/>
<circle cx="950" cy="226" r="8" class="c0"/>
<circle cx="1072" cy="660" r="8" class="c0"/>
<circle cx="968" cy="1276" r="8" class="c0"/>
<circle cx="1066" cy="764" r="8" class="c0"/>
<circle cx="940" cy="536" r="8" class="c0"/>
<circle cx="924" cy="1064" r="8" class="c0"/>
<circle cx="994" cy="418" r="8" class="c0"/>
<circle cx="1014" cy="800" r="8" class="c0"/>
<circle cx="1046" cy="434" r="8" class="c0"/>
<circle cx="926" cy="666" r="8" class="c0"/>
<circle cx="960" cy="112" r="8" class="c0"/>
<circle cx="1152" cy="1132" r="8" class="c0"/>
<circle cx="940" cy="624" r="8" class="c0"/>
<circle cx="1126" cy="626" r="8" class="c0"/>
<circle cx="1064" cy="994" r="8" class="c0"/>
<circle cx="1026" cy="1030" r="8" class="c0"/>
<circle cx="1044" cy="1194" r="8" class="c0"/>
<circle cx="974" cy="486" r="8" class="c0"/>
<circle cx="972" cy="428" r="8" class="c0"/>
<circle cx="902" cy="1174" r="8" class="c0"/>
<circle cx="1074" cy="1076" r="8" class="c0"/>
<circle cx="858" cy="616" r="8" class="c0"/>
<circle cx="948" cy="1068" r="8" class="c0"/>
<circle cx="992" cy="112" r="8" class="c0"/>
<circle cx="1234" cy="624" r="8" class="c0"/>
<circle cx="900" cy="1038" r="8" class="c0"/>
<circle cx="930" cy="736" r="8" class="c0"/>
<circle cx="972" cy="1102" r="8" class="c0"/>
<circle cx="1158" cy="648" r="8" class="c0"/>
<circle cx="1140" cy="650" r="8" class="c0"/>
<circle cx="932" cy="880" r="8" class="c0"/>
<circle cx="1012" cy="530" r="8" class="c0"/>
<circle cx="1058" cy="626" r="8" class="c0"/>
<circle cx="1082" cy="988" r="8" class="c0"/>
<circle cx="1224" cy="526" r="8" class="c0"/>
<circle cx="916" cy="528" r="8" class="c0"/>
<circle cx="1014" cy="762" r="8" class="c0"/>
<circle cx="978" cy="826" r="8" class="c0"/>
<circle cx="1030" cy="1106" r="8" class="c0"/>
<circle cx="970" cy="972" r="8" class="c0"/>
<circle cx="1114" cy="1158" r="8" class="c0"/>
<circle cx="1166" cy="610" r="8" class="c0"/>
<circle cx="1068" cy="838" r="8" class="c0"/>
<circle cx="936" cy="120" r="8" class="c0"/>
<circle cx="1098" cy="1150" r="8" class="c0"/>
<circle cx="1176" cy="574" r="8" class="c0"/>
<circle cx="1060" cy="948" r="8" class="c0"/>
<circle cx="872" cy="1118" r="8" class="c0"/>
<circle cx="1074" cy="1036" r="8" class="c0"/>
<circle cx="988" cy="1112" r="8" class="c0"/>
<circle cx="938" cy="806" r="8" class="c0"/>
<circle cx="1028" cy="868" r="8" class="c0"/>
<circle cx="1124" cy="548" r="8" class="c0"/>
<circle cx="1126" cy="588" r="8" class="c0"/>
<circle cx="1264" cy="538" r="8" class="c0"/>
<circle cx="1004" cy="438" r="8" class="c0"/>
<circle cx="1080" cy="882" r="8" class="c0"/>
<circle cx="1094" cy="614" r="8" class="c0"/>
<circle cx="1048" cy="752" r="8" class="c0"/>
<circle cx="1086" cy="1094" r="8" class="c0"/>
<circle cx="856" cy="1158" r="8" class="c0"/>
<circle cx="928" cy="976" r="8" class="c0"/>
<circle cx="1102" cy="472" r="8" class="c0"/>
<circle cx="968" cy="142" r="8" class="c0"/>
<circle cx="932" cy="640" r="8" class="c0"/>
<circle cx="928" cy="86" r="8" class="c0"/>
<circle cx="982" cy="862" r="8" class="c0"/>
<circle cx="974" cy="656" r="8" class="c0"/>
<circle cx="1102" cy="658" r="8" class="c0"/>
<circle cx="1060" cy="676" r="8" class="c0"/>
<circle cx="1046" cy="508" r="8" class="c0"/>
<circle cx="1084" cy="444" r="8" class="c0"/>
<circle cx="832" cy="586" r="8" class="c0"/>
<circle cx="960" cy="216" r="8" class="c0"/>
<circle cx="900" cy="574" r="8" class="c0"/>
<circle cx="988" cy="934" r="8" class="c0"/>
<circle cx="980" cy="986" r="8" class="c0"/>
<circle cx="956" cy="1094" r="8" class="c0"/>
<circle cx="992" cy="882" r="8" class="c0"/>
<circle cx="1106" cy="1034" r="8" class="c0"/>
<circle cx="1110" cy="1114" r="8" class="c0"/>
<circle cx="1160" cy="492" r="8" class="c0"/>
<circle cx="1194" cy="514" r="8" class="c0"/>
<circle cx="1182" cy="528" r="8" class="c0"/>
<circle cx="874" cy="606" r="8" class="c0"/>
<circle cx="1032" cy="828" r="8" class="c0"/>
<circle cx="974" cy="460" r="8" class="c0"/>
<circle cx="970" cy="228" r="8" class="c0"/>
<circle cx="1006" cy="1090" r="8" class="c0"/>
<circle cx="1064" cy="580" r="8" class="c0"/>
<circle cx="1060" cy="910" r="8" class="c0"/>
<circle cx="1058" cy="422" r="8" class="c0"/>
<circle cx="934" cy="766" r="8" class="c0"/>
<circle cx="984" cy="614" r="8" class="c0"/>
<circle cx="1036" cy="1020" r="8" class="c0"/>
<circle cx="1072" cy="482" r="8" class="c0"/>
<circle cx="1114" cy="680" r="8" class="c0"/>
<circle cx="1054" cy="596" r="8" class="c0"/>
<circle cx="1034" cy="602" r="8" class="c0"/>
<circle cx="944" cy="560" r="8" class="c0"/>
<circle cx="1014" cy="976" r="8" class="c0"/>
<circle cx="922" cy="922" r="8" class="c0"/>
<circle cx="990" cy="522" r="8" class="c0"/>
<circle cx="1134" cy="1148" r="8" class="c0"/>
<circle cx="970" cy="48" r="8" class="c0"/>
<circle cx="884" cy="1132" r="8" class="c0"/>
<circle cx="994" cy="16" r="8" class="c0"/>
<circle cx="1018" cy="466" r="8" class="c0"/>
<circle cx="948" cy="896" r="8" class="c0"/>
<circle cx="1176" cy="640" r="8" class="c0"/>
<circle cx="998" cy="770" r="8" class="c0"/>
<circle cx="842" cy="684" r="8" class="c0"/>
<circle cx="952" cy="690" r="8" class="c0"/>
<circle cx="786" cy="652" r="8" class="c0"/>
<circle cx="1064" cy="644" r="8" class="c0"/>
<circle cx="1034" cy="1270" r="8" class="c0"/>
<circle cx="924" cy="64" r="8" class="c0"/>
<circle cx="990" cy="142" r="8" class="c0"/>
<circle cx="986" cy="712" r="8" class="c0"/>
<circle cx="918" cy="688" r="8" class="c0"/>
<circle cx="1058" cy="712" r="8" class="c0"/>
<circle cx="1070" cy="1116" r="8" class="c0"/>
<circle cx="1012" cy="1144" r="8" class="c0"/>
<circle cx="1014" cy="820" r="8" class="c0"/>
<circle cx="998" cy="52" r="8" class="c0"/>
<circle cx="884" cy="542" r="8" class="c0"/>
<circle cx="1080" cy="1006" r="8" class="c0"/>
<circle cx="978" cy="188" r="8" class="c0"/>
<circle cx="1214" cy="620" r="8" class="c0"/>
<circle cx="1020" cy="412" r="6" class="c0"/>
<circle cx="956" cy="152" r="6" class="c0"/>
<circle cx="1118" cy="488" r="6" class="c0"/>
<circle cx="960" cy="982" r="6" class="c0"/>
<circle cx="1132" cy="1070" r="6" class="c0"/>
<circle cx="1010" cy="1172" r="6" class="c0"/>
<circle cx="1078" cy="544" r="6" class="c0"/>
<circle cx="1052" cy="530" r="6" class="c0"/>
<circle cx="1010" cy="626" r="6" class="c0"/>
<circle cx="1236" cy="586" r="6" class="c0"/>
<circle cx="1148" cy="1104" r="6" class="c0"/>
<circle cx="862" cy="1132" r="6" class="c0"/>
<circle cx="1062" cy="442" r="6" class="c0"/>
<circle cx="998" cy="566" r="6" class="c0"/>
<circle cx="1028" cy="722" r="6" class="c0"/>
<circle cx="1038" cy="656" r="6" class="c0"/>
<circle cx="1070" cy="454" r="6" class="c0"/>
<circle cx="1138" cy="488" r="6" class="c0"/>
<circle cx="1068" cy="1176" r="6" class="c0"/>
<circle cx="984" cy="1034" r="6" class="c0"/>
<circle cx="1076" cy="796" r="6" class="c0"/>
<circle cx="932" cy="486" r="6" class="c0"/>
<circle cx="1096" cy="638" r="6" class="c0"/>
<circle cx="806" cy="614" r="6" class="c0"/>
<circle cx="918" cy="102" r="6" class="c0"/>
<circle cx="944" cy="790" r="6" class="c0"/>
<circle cx="1030" cy="558" r="6" class="c0"/>
<circle cx="1140" cy="672" r="6" class="c0"/>
<circle cx="1024" cy="496" r="6" class="c0"/>
<circle cx="1050" cy="774" r="6" class="c0"/>
<circle cx="918" cy="38" r="6" class="c0"/>
<circle cx="866" cy="686" r="6" class="c0"/>
<circle cx="1010" cy="922" r="6" class="c0"/>
<circle cx="880" cy="1192" r="6" class="c0"/>
<circle cx="1300" cy="564" r="6" class="c0"/>
<circle cx="1016" cy="730" r="6" class="c0"/>
<circle cx="938" cy="952" r="6" class="c0"/>
<circle cx="1014" cy="1286" r="6" class="c0"/>
<circle cx="938" cy="1270" r="6" class="c0"/>
<circle cx="1080" cy="948" r="6" class="c0"/>
<circle cx="1014" cy="550" r="6" class="c0"/>
<circle cx="974" cy="1060" r="6" class="c0"/>
<circle cx="950" cy="638" r="6" class="c0"/>
<circle cx="910" cy="1104" r="6" class="c0"/>
<circle cx="1092" cy="866" r="6" class="c0"/>
<circle cx="1084" cy="830" r="6" class="c0"/>
<circle cx="1254" cy="560" r="6" class="c0"/>
<circle cx="982" cy="804" r="6" class="c0"/>
<circle cx="1204" cy="500" r="6" class="c0"/>
<circle cx="952" cy="1280" r="6" class="c0"/>
<circle cx="976" cy="724" r="6" class="c0"/>
<circle cx="904" cy="1086" r="6" class="c0"/>
<circle cx="1052" cy="846" r="6" class="c0"/>
<circle cx="982" cy="1142" r="6" class="c0"/>
<circle cx="964" cy="856" r="6" class="c0"/>
<circle cx="1058" cy="564" r="6" class="c0"/>
<circle cx="1172" cy="510" r="6" class="c0"/>
<circle cx="1060" cy="1186" r="6" class="c0"/>
<circle cx="860" cy="648" r="6" class="c0"/>
<circle cx="1034" cy="464" r="6" class="c0"/>
<circle cx="936" cy="178" r="6" class="c0"/>
<circle cx="906" cy="538" r="6" class="c0"/>
<circle cx="818" cy="698" r="6" class="c0"/>
<circle cx="1100" cy="1132" r="6" class="c0"/>
<circle cx="1068" cy="976" r="6" class="c0"/>
<circle cx="1214" cy="564" r="6" class="c0"/>
<circle cx="958" cy="1058" r="6" class="c0"/>
<circle cx="950" cy="816" r="6" class="c0"/>
<circle cx="972" cy="1152" r="6" class="c0"/>
<circle cx="952" cy="948" r="6" class="c0"/>
<circle cx="968" cy="24" r="6" class="c0"/>
<circle cx="964" cy="498" r="6" class="c0"/>
<circle cx="1026" cy="482" r="6" class="c0"/>
<circle cx="1012" cy="602" r="6" class="c0"/>
<circle cx="1038" cy="912" r="6" class="c0"/>
<circle cx="1084" cy="1066" r="6" class="c0"/>
<circle cx="1018" cy="1220" r="6" class="c0"/>
<circle cx="1004" cy="638" r="6" class="c0"/>
<circle cx="974" cy="1236" r="6" class="c0"/>
<circle cx="972" cy="760" r="6" class="c0"/>
<circle cx="960" cy="272" r="6" class="c0"/>
<circle cx="978" cy="208" r="6" class="c0"/>
<circle cx="930" cy="586" r="6" class="c0"/>
<circle cx="890" cy="1054" r="6" class="c0"/>
<circle cx="868" cy="638" r="6" class="c0"/>
<circle cx="998" cy="1254" r="6" class="c0"/>
<circle cx="1288" cy="572" r="6" class="c0"/>
<circle cx="1174" cy="558" r="6" class="c0"/>
<circle cx="918" cy="576" r="6" class="c0"/>
<circle cx="896" cy="660" r="6" class="c0"/>
<circle cx="862" cy="1186" r="6" class="c0"/>
<circle cx="986" cy="402" r="6" class="c0"/>
<circle cx="1124" cy="1078" r="6" class="c0"/>
<circle cx="1036" cy="976" r="6" class="c0"/>
<circle cx="952" cy="850" r="6" class="c0"/>
<circle cx="1066" cy="890" r="6" class="c0"/>
<circle cx="1006" cy="558" r="6" class="c0"/>
<circle cx="1022" cy="1204" r="6" class="c0"/>
<circle cx="1016" cy="504" r="6" class="c0"/>
<circle cx="1186" cy="544" r="6" class="c0"/>
<circle cx="884" cy="570" r="6" class="c0"/>
<circle cx="1136" cy="598" r="6" class="c0"/>
<circle cx="972" cy="1024" r="6" class="c0"/>
<circle cx="1078" cy="1168" r="6" class="c0"/>
<circle cx="1036" cy="1070" r="6" class="c0"/>
<circle cx="936" cy="1162" r="6" class="c0"/>
<circle cx="1000" cy="1280" r="6" class="c0"/>
<circle cx="926" cy="864" r="6" class="c0"/>
<circle cx="820" cy="640" r="6" class="c0"/>
<circle cx="1048" cy="636" r="6" class="c0"/>
<circle cx="1088" cy="940" r="6" class="c0"/>
<circle cx="834" cy="622" r="6" class="c0"/>
<circle cx="1102" cy="592" r="6" class="c0"/>
<circle cx="914" cy="1132" r="6" class="c0"/>
</svg>
