<?xml version="1.0" encoding="utf-8"?>
<svg xmlns="http://www.w3.org/2000/svg"
     xmlns:xlink="http://www.w3.org/1999/xlink" width="1920" height="1440" >

            <defs>
            <style type="text/css"><![CDATA[
circle {stroke: none;}
.c0 {fill: #FFFFFF;}
]]></style>
            </defs>
<rect x="0" y="0" width="1920" height="1440" fill="black"/>
<circle cx="976" cy="916" r="14" class="c0"/>
<circle cx="1114" cy="1082" r="14" class="c0"/>
<circle cx="1006" cy="466" r="14" class="c0"/>
<circle cx="926" cy="540" r="12" class="c0"/>
<circle cx="1018" cy="702" r="12" class="c0"/>
<circle cx="1038" cy="1110" r="12" class="c0"/>
<circle cx="902" cy="998" r="12" class="c0"/>
<circle cx="962" cy="1100" r="12" class="c0"/>
<circle cx="1126" cy="1106" r="12" class="c0"/>
<circle cx="964" cy="468" r="12" class="c0"/>
<circle cx="912" cy="690" r="12" class="c0"/>
<circle cx="942" cy="20" r="12" class="c0"/>
<circle cx="1036" cy="642" r="12" class="c0"/>
<circle cx="1092" cy="552" r="12" class="c0"/>
<circle cx="918" cy="658" r="12" class="c0"/>
<circle cx="1038" cy="674" r="12" class="c0"/>
<circle cx="1064" cy="472" r="12" class="c0"/>
<circle cx="982" cy="566" r="12" class="c0"/>
<circle cx="1182" cy="574" r="12" class="c0"/>
<circle cx="922" cy="868" r="12" class="c0"/>
<circle cx="1240" cy="592" r="12" class="c0"/>
<circle cx="1170" cy="506" r="12" class="c0"/>
<circle cx="1124" cy="524" r="12" class="c0"/>
<circle cx="1048" cy="748" r="12" class="c0"/>
<circle cx="1032" cy="594" r="12" class="c0"/>
<circle cx="988" cy="734" r="12" class="c0"/>
<circle cx="990" cy="1174" r="12" class="c0"/>
<circle cx="1010" cy="840" r="12" class="c0"/>
<circle cx="942" cy="926" r="12" class="c0"/>
<circle cx="1004" cy="904" r="12" class="c0"/>
<circle cx="914" cy="1120" r="12" class="c0"/>
<circle cx="804" cy="640" r="12" class="c0"/>
<circle cx="1040" cy="1188" r="12" class="c0"/>
<circle cx="1060" cy="954" r="12" class="c0"/>
<circle cx="980" cy="1084" r="12" class="c0"/>
<circle cx="1000" cy="544" r="12" class="c0"/>
<circle cx="932" cy="814" r="12" class="c0"/>
<circle cx="902" cy="586" r="12" class="c0"/>
<circle cx="1078" cy="936" r="12" class="c0"/>
<circle cx="944" cy="708" r="12" class="c0"/>
<circle cx="970" cy="36" r="10" class="c0"/>
<circle cx="960" cy="1060" r="10" class="c0"/>
<circle cx="1078" cy="1088" r="10" class="c0"/>
<circle cx="1014" cy="1272" r="10" class="c0"/>
<circle cx="1034" cy="986" r="10" class="c0"/>
<circle cx="942" cy="878" r="10" class="c0"/>
<circle cx="1016" cy="1152" r="10" class="c0"/>
<circle cx="1224" cy="538" r="10" class="c0"/>
<circle cx="1224" cy="572" r="10" class="c0"/>
<circle cx="1112" cy="572" r="10" class="c0"/>
<circle cx="980" cy="1036" r="10" class="c0"/>
<circle cx="872" cy="572" r="10" class="c0"/>
<circle cx="978" cy="614" r="10" class="c0"/>
<circle cx="1244" cy="530" r="10" class="c0"/>
<circle cx="1012" cy="794" r="10" class="c0"/>
<circle cx="1170" cy="632" r="10" class="c0"/>
<circle cx="954" cy="120" r="10" class="c0"/>
<circle cx="998" cy="1198" r="10" class="c0"/>
<circle cx="864" cy="1142" r="10" class="c0"/>
<circle cx="1036" cy="566" r="10" class="c0"/>
<circle cx="808" cy="676" r="10" class="c0"/>
<circle cx="974" cy="858" r="10" class="c0"/>
<circle cx="1152" cy="552" r="10" class="c0"/>
<circle cx="1010" cy="620" r="10" class="c0"/>
<circle cx="988" cy="498" r="10" class="c0"/>
<circle cx="1090" cy="1048" r="10" class="c0"/>
<circle cx="1074" cy="1036" r="10" class="c0"/>
<circle cx="1008" cy="1026" r="10" class="c0"/>
<circle cx="894" cy="666" r="10" class="c0"/>
<circle cx="898" cy="1084" r="10" class="c0"/>
<circle cx="1030" cy="426" r="10" class="c0"/>
<circle cx="1032" cy="492" r="10" class="c0"/>
<circle cx="930" cy="972" r="10" class="c0"/>
<circle cx="938" cy="1106" r="10" class="c0"/>
<circle cx="1084" cy="530" r="10" class="c0"/>
<circle cx="1266" cy="542" r="10" class="c0"/>
<circle cx="852" cy="558" r="10" class="c0"/>
<circle cx="1054" cy="576" r="10" class="c0"/>
<circle cx="1080" cy="502" r="10" class="c0"/>
<circle cx="1040" cy="840" r="10" class="c0"/>
<circle cx="906" cy="930" r="10" class="c0"/>
<circle cx="1144" cy="1128" r="10" class="c0"/>
<circle cx="954" cy="1008" r="10" class="c0"/>
<circle cx="1094" cy="918" r="10" class="c0"/>
<circle cx="1072" cy="896" r="10" class="c0"/>
<circle cx="982" cy="662" r="10" class="c0"/>
<circle cx="944" cy="644" r="10" class="c0"/>
<circle cx="842" cy="660" r="10" class="c0"/>
<circle cx="1000" cy="1100" r="10" class="c0"/>
<circle cx="928" cy="1142" r="10" class="c0"/>
<circle cx="952" cy="220" r="10" class="c0"/>
<circle cx="992" cy="872" r="10" class="c0"/>
<circle cx="1040" cy="900" r="10" class="c0"/>
<circle cx="1020" cy="972" r="10" class="c0"/>
<circle cx="1006" cy="576" r="10" class="c0"/>
<circle cx="1038" cy="768" r="10" class="c0"/>
<circle cx="1026" cy="818" r="10" class="c0"/>
<circle cx="1018" cy="1000" r="10" class="c0"/>
<circle cx="812" cy="614" r="10" class="c0"/>
<circle cx="866" cy="652" r="10" class="c0"/>
<circle cx="1220" cy="606" r="10" class="c0"/>
<circle cx="900" cy="1160" r="10" class="c0"/>
<circle cx="1046" cy="972" r="10" class="c0"/>
<circle cx="1088" cy="1144" r="10" class="c0"/>
<circle cx="972" cy="518" r="10" class="c0"/>
<circle cx="1080" cy="1112" r="10" class="c0"/>
<circle cx="968" cy="892" r="10" class="c0"/>
<circle cx="880" cy="552" r="10" class="c0"/>
<circle cx="828" cy="628" r="10" class="c0"/>
<circle cx="968" cy="1198" r="10" class="c0"/>
<circle cx="922" cy="632" r="10" class="c0"/>
<circle cx="1002" cy="1258" r="10" class="c0"/>
<circle cx="918" cy="754" r="10" class="c0"/>
<circle cx="940" cy="952" r="10" class="c0"/>
<circle cx="1026" cy="538" r="10" class="c0"/>
<circle cx="1022" cy="450" r="10" class="c0"/>
<circle cx="1018" cy="1074" r="10" class="c0"/>
<circle cx="1010" cy="948" r="10" class="c0"/>
<circle cx="1066" cy="868" r="10" class="c0"/>
<circle cx="992" cy="992" r="10" class="c0"/>
<circle cx="1128" cy="644" r="10" class="c0"/>
<circle cx="970" cy="996" r="10" class="c0"/>
<circle cx="1094" cy="1176" r="10" class="c0"/>
<circle cx="942" cy="1240" r="10" class="c0"/>
<circle cx="950" cy="1156" r="10" class="c0"/>
<circle cx="978" cy="974" r="10" class="c0"/>
<circle cx="954" cy="432" r="10" class="c0"/>
<circle cx="944" cy="504" r="10" class="c0"/>
<circle cx="1122" cy="596" r="10" class="c0"/>
<circle cx="988" cy="1132" r="10" class="c0"/>
<circle cx="954" cy="676" r="10" class="c0"/>
<circle cx="1190" cy="598" r="10" class="c0"/>
<circle cx="1142" cy="586" r="10" class="c0"/>
<circle cx="942" cy="64" r="10" class="c0"/>
<circle cx="1046" cy="710" r="10" class="c0"/>
<circle cx="1042" cy="1070" r="10" class="c0"/>
<circle cx="1124" cy="556" r="10" class="c0"/>
<circle cx="1044" cy="520" r="10" class="c0"/>
<circle cx="1072" cy="990" r="10" class="c0"/>
<circle cx="1066" cy="1198" r="10" class="c0"/>
<circle cx="1058" cy="1142" r="10" class="c0"/>
<circle cx="968" cy="540" r="10" class="c0"/>
<circle cx="920" cy="1046" r="10" class="c0"/>
<circle cx="1066" cy="1058" r="10" class="c0"/>
<circle cx="886" cy="1050" r="10" class="c0"/>
<circle cx="934" cy="586" r="10" class="c0"/>
<circle cx="906" cy="616" r="10" class="c0"/>
<circle cx="930" cy="1174" r="10" class="c0"/>
<circle cx="1070" cy="560" r="10" class="c0"/>
<circle cx="972" cy="836" r="10" class="c0"/>
<circle cx="1036" cy="464" r="10" class="c0"/>
<circle cx="844" cy="612" r="10" class="c0"/>
<circle cx="1038" cy="870" r="10" class="c0"/>
<circle cx="1020" cy="1248" r="10" class="c0"/>
<circle cx="898" cy="1024" r="10" class="c0"/>
<circle cx="914" cy="560" r="10" class="c0"/>
<circle cx="1078" cy="966" r="10" class="c0"/>
<circle cx="1028" cy="1134" r="10" class="c0"/>
<circle cx="944" cy="1266" r="10" class="c0"/>
<circle cx="1182" cy="618" r="10" class="c0"/>
<circle cx="1054" cy="1014" r="10" class="c0"/>
<circle cx="938" cy="474" r="10" class="c0"/>
<circle cx="1056" cy="1090" r="10" class="c0"/>
<circle cx="1102" cy="1124" r="10" class="c0"/>
<circle cx="956" cy="792" r="10" class="c0"/>
<circle cx="1090" cy="876" r="10" class="c0"/>
<circle cx="1058" cy="1174" r="10" class="c0"/>
<circle cx="946" cy="748" r="8" class="c0"/>
<circle cx="1142" cy="608" r="8" class="c0"/>
<circle cx="874" cy="600" r="8" class="c0"/>
<circle cx="1080" cy="802" r="8" class="c0"/>
<circle cx="1004" cy="748" r="8" class="c0"/>
<circle cx="944" cy="1046" r="8" class="c0"/>
<circle cx="988" cy="696" r="8" class="c0"/>
<circle cx="906" cy="1182" r="8" class="c0"/>
<circle cx="944" cy="526" r="8" class="c0"/>
<circle cx="1244" cy="558" r="8" class="c0"/>
<circle cx="874" cy="676" r="8" class="c0"/>
<circle cx="1192" cy="548" r="8" class="c0"/>
<circle cx="1146" cy="502" r="8" class="c0"/>
<circle cx="1070" cy="766" r="8" class="c0"/>
<circle cx="1060" cy="632" r="8" class="c0"/>
<circle cx="1202" cy="558" r="8" class="c0"/>
<circle cx="1154" cy="530" r="8" class="c0"/>
<circle cx="1020" cy="512" r="8" class="c0"/>
<circle cx="1036" cy="1032" r="8" class="c0"/>
<circle cx="978" cy="428" r="8" class="c0"/>
<circle cx="1008" cy="682" r="8" class="c0"/>
<circle cx="1108" cy="614" r="8" class="c0"/>
<circle cx="1010" cy="864" r="8" class="c0"/>
<circle cx="952" cy="598" r="8" class="c0"/>
<circle cx="1040" cy="942" r="8" class="c0"/>
<circle cx="1088" cy="1016" r="8" class="c0"/>
<circle cx="882" cy="1134" r="8" class="c0"/>
<circle cx="940" cy="1078" r="8" class="c0"/>
<circle cx="1116" cy="1152" r="8" class="c0"/>
<circle cx="844" cy="588" r="8" class="c0"/>
<circle cx="964" cy="766" r="8" class="c0"/>
<circle cx="874" cy="1114" r="8" class="c0"/>
<circle cx="930" cy="786" r="8" class="c0"/>
<circle cx="1070" cy="662" r="8" class="c0"/>
<circle cx="910" cy="1096" r="8" class="c0"/>
<circle cx="1120" cy="500" r="8" class="c0"/>
<circle cx="1036" cy="1166" r="8" class="c0"/>
<circle cx="1022" cy="660" r="8" class="c0"/>
<circle cx="1072" cy="846" r="8" class="c0"/>
<circle cx="1070" cy="448" r="8" class="c0"/>
<circle cx="1072" cy="786" r="8" class="c0"/>
<circle cx="1016" cy="1044" r="8" class="c0"/>
<circle cx="1040" cy="804" r="8" class="c0"/>
<circle cx="1064" cy="812" r="8" class="c0"/>
<circle cx="1002" cy="664" r="8" class="c0"/>
<circle cx="1026" cy="732" r="8" class="c0"/>
<circle cx="968" cy="80" r="8" class="c0"/>
<circle cx="990" cy="822" r="8" class="c0"/>
<circle cx="1020" cy="884" r="8" class="c0"/>
<circle cx="1258" cy="602" r="8" class="c0"/>
<circle cx="1204" cy="534" r="8" class="c0"/>
<circle cx="918" cy="904" r="8" class="c0"/>
<circle cx="1000" cy="430" r="8" class="c0"/>
<circle cx="1012" cy="1122" r="8" class="c0"/>
<circle cx="916" cy="1072" r="8" class="c0"/>
<circle cx="938" cy="904" r="8" class="c0"/>
<circle cx="1004" cy="520" r="8" class="c0"/>
<circle cx="1064" cy="540" r="8" class="c0"/>
<circle cx="956" cy="822" r="8" class="c0"/>
<circle cx="946" cy="160" r="8" class="c0"/>
<circle cx="930" cy="606" r="8" class="c0"/>
<circle cx="890" cy="536" r="8" class="c0"/>
<circle cx="940" cy="996" r="8" class="c0"/>
<circle cx="896" cy="962" r="8" class="c0"/>
<circle cx="966" cy="728" r="8" class="c0"/>
<circle cx="1012" cy="768" r="8" class="c0"/>
<circle cx="1050" cy="884" r="8" class="c0"/>
<circle cx="934" cy="1058" r="8" class="c0"/>
<circle cx="1132" cy="666" r="8" class="c0"/>
<circle cx="1082" cy="462" r="8" class="c0"/>
<circle cx="792" cy="662" r="8" class="c0"/>
<circle cx="964" cy="1140" r="8" class="c0"/>
<circle cx="932" cy="676" r="8" class="c0"/>
<circle cx="962" cy="958" r="8" class="c0"/>
<circle cx="962" cy="1176" r="8" class="c0"/>
<circle cx="922" cy="484" r="8" class="c0"/>
<circle cx="822" cy="594" r="8" class="c0"/>
<circle cx="978" cy="1016" r="8" class="c0"/>
<circle cx="874" cy="1072" r="8" class="c0"/>
<circle cx="950" cy="86" r="8" class="c0"/>
<circle cx="946" cy="140" r="8" class="c0"/>
<circle cx="1068" cy="610" r="8" class="c0"/>
<circle cx="1024" cy="912" r="8" class="c0"/>
<circle cx="1114" cy="924" r="8" class="c0"/>
<circle cx="838" cy="570" r="8" class="c0"/>
<circle cx="966" cy="652" r="8" class="c0"/>
<circle cx="858" cy="632" r="8" class="c0"/>
<circle cx="1042" cy="614" r="8" class="c0"/>
<circle cx="882" cy="618" r="8" class="c0"/>
<circle cx="892" cy="644" r="8" class="c0"/>
<circle cx="930" cy="1008" r="8" class="c0"/>
<circle cx="992" cy="790" r="8" class="c0"/>
<circle cx="974" cy="776" r="8" class="c0"/>
<circle cx="966" cy="144" r="8" class="c0"/>
<circle cx="1090" cy="630" r="8" class="c0"/>
<circle cx="892" cy="1108" r="8" class="c0"/>
<circle cx="1214" cy="520" r="8" class="c0"/>
<circle cx="984" cy="398" r="8" class="c0"/>
<circle cx="1062" cy="726" r="8" class="c0"/>
<circle cx="1022" cy="1208" r="8" class="c0"/>
<circle cx="1008" cy="724" r="8" class="c0"/>
<circle cx="1098" cy="484" r="8" class="c0"/>
<circle cx="1106" cy="662" r="8" class="c0"/>
<circle cx="1068" cy="1124" r="8" class="c0"/>
<circle cx="1052" cy="436" r="8" class="c0"/>
<circle cx="954" cy="572" r="8" class="c0"/>
<circle cx="998" cy="1046" r="8" class="c0"/>
<circle cx="906" cy="882" r="8" class="c0"/>
<circle cx="942" cy="848" r="8" class="c0"/>
<circle cx="1084" cy="602" r="8" class="c0"/>
<circle cx="944" cy="1132" r="8" class="c0"/>
<circle cx="1108" cy="640" r="8" class="c0"/>
<circle cx="944" cy="1202" r="8" class="c0"/>
<circle cx="830" cy="674" r="8" class="c0"/>
<circle cx="1162" cy="592" r="8" class="c0"/>
<circle cx="1050" cy="858" r="8" class="c0"/>
<circle cx="1072" cy="584" r="8" class="c0"/>
<circle cx="1130" cy="624" r="8" class="c0"/>
<circle cx="1006" cy="640" r="8" class="c0"/>
<circle cx="872" cy="1096" r="8" class="c0"/>
<circle cx="968" cy="12" r="8" class="c0"/>
<circle cx="1054" cy="932" r="8" class="c0"/>
<circle cx="1172" cy="550" r="8" class="c0"/>
<circle cx="926" cy="940" r="8" class="c0"/>
<circle cx="980" cy="642" r="8" class="c0"/>
<circle cx="958" cy="632" r="8" class="c0"/>
<circle cx="822" cy="694" r="8" class="c0"/>
<circle cx="1154" cy="652" r="8" class="c0"/>
<circle cx="1086" cy="574" r="8" class="c0"/>
<circle cx="1120" cy="1132" r="8" class="c0"/>
<circle cx="998" cy="710" r="8" class="c0"/>
<circle cx="1078" cy="640" r="8" class="c0"/>
<circle cx="1046" cy="1046" r="8" class="c0"/>
<circle cx="966" cy="938" r="8" class="c0"/>
<circle cx="906" cy="526" r="8" class="c0"/>
<circle cx="1094" cy="834" r="8" class="c0"/>
<circle cx="1152" cy="1150" r="8" class="c0"/>
<circle cx="942" cy="1028" r="8" class="c0"/>
<circle cx="964" cy="184" r="8" class="c0"/>
<circle cx="918" cy="838" r="8" class="c0"/>
<circle cx="988" cy="942" r="8" class="c0"/>
<circle cx="1056" cy="494" r="8" class="c0"/>
<circle cx="1008" cy="494" r="8" class="c0"/>
<circle cx="916" cy="508" r="8" class="c0"/>
<circle cx="980" cy="800" r="8" class="c0"/>
<circle cx="962" cy="102" r="8" class="c0"/>
<circle cx="970" cy="166" r="8" class="c0"/>
<circle cx="880" cy="1154" r="8" class="c0"/>
<circle cx="974" cy="410" r="8" class="c0"/>
<circle cx="980" cy="376" r="8" class="c0"/>
<circle cx="1182" cy="536" r="8" class="c0"/>
<circle cx="880" cy="1182" r="8" class="c0"/>
<circle cx="946" cy="552" r="8" class="c0"/>
<circle cx="946" cy="1184" r="8" class="c0"/>
<circle cx="960" cy="1122" r="8" class="c0"/>
<circle cx="962" cy="872" r="8" class="c0"/>
<circle cx="956" cy="200" r="8" class="c0"/>
<circle cx="852" cy="686" r="8" class="c0"/>
<circle cx="1150" cy="628" r="8" class="c0"/>
<circle cx="1040" cy="922" r="8" class="c0"/>
<circle cx="892" cy="604" r="8" class="c0"/>
<circle cx="1026" cy="852" r="8" class="c0"/>
<circle cx="934" cy="738" r="8" class="c0"/>
<circle cx="940" cy="770" r="8" class="c0"/>
<circle cx="992" cy="766" r="8" class="c0"/>
<circle cx="958" cy="54" r="8" class="c0"/>
<circle cx="824" cy="652" r="8" class="c0"/>
<circle cx="1110" cy="1058" r="8" class="c0"/>
<circle cx="1078" cy="1160" r="8" class="c0"/>
<circle cx="984" cy="1110" r="8" class="c0"/>
<circle cx="1006" cy="926" r="8" class="c0"/>
<circle cx="988" cy="440" r="8" class="c0"/>
<circle cx="1258" cy="572" r="8" class="c0"/>
<circle cx="942" cy="446" r="8" class="c0"/>
<circle cx="946" cy="622" r="8" class="c0"/>
<circle cx="1140" cy="1088" r="8" class="c0"/>
<circle cx="968" cy="700" r="8" class="c0"/>
<circle cx="980" cy="1156" r="8" class="c0"/>
<circle cx="1102" cy="940" r="8" class="c0"/>
<circle cx="1094" cy="590" r="8" class="c0"/>
<circle cx="1192" cy="512" r="8" class="c0"/>
<circle cx="920" cy="988" r="8" class="c0"/>
<circle cx="1006" cy="598" r="8" class="c0"/>
<circle cx="1102" cy="522" r="8" class="c0"/>
<circle cx="956" cy="490" r="8" class="c0"/>
<circle cx="1054" cy="654" r="8" class="c0"/>
<circle cx="966" cy="812" r="8" class="c0"/>
<circle cx="902" cy="1136" r="8" class="c0"/>
<circle cx="1084" cy="820" r="8" class="c0"/>
<circle cx="994" cy="412" r="8" class="c0"/>
<circle cx="1096" cy="650" r="8" class="c0"/>
<circle cx="1118" cy="1176" r="8" class="c0"/>
<circle cx="1014" cy="1172" r="8" class="c0"/>
<circle cx="1006" cy="814" r="8" class="c0"/>
<circle cx="922" cy="718" r="8" class="c0"/>
<circle cx="1212" cy="584" r="8" class="c0"/>
<circle cx="1052" cy="782" r="8" class="c0"/>
<circle cx="1046" cy="542" r="8" class="c0"/>
<circle cx="1088" cy="668" r="8" class="c0"/>
<circle cx="1082" cy="856" r="8" class="c0"/>
<circle cx="956" cy="246" r="8" class="c0"/>
<circle cx="1056" cy="914" r="8" class="c0"/>
<circle cx="974" cy="450" r="8" class="c0"/>
<circle cx="988" cy="1064" r="8" class="c0"/>
<circle cx="1090" cy="1076" r="8" class="c0"/>
<circle cx="964" cy="584" r="8" class="c0"/>
<circle cx="988" cy="590" r="8" class="c0"/>
<circle cx="790" cy="626" r="8" class="c0"/>
<circle cx="996" cy="962" r="8" class="c0"/>
<circle cx="976" cy="684" r="8" class="c0"/>
<circle cx="1012" cy="1230" r="8" class="c0"/>
<circle cx="988" cy="846" r="8" class="c0"/>
<circle cx="914" cy="958" r="8" class="c0"/>
<circle cx="1110" cy="540" r="8" class="c0"/>
<circle cx="956" cy="982" r="8" class="c0"/>
<circle cx="1156" cy="574" r="8" class="c0"/>
<circle cx="978" cy="712" r="8" class="c0"/>
<circle cx="920" cy="1024" r="8" class="c0"/>
<circle cx="1152" cy="1110" r="8" class="c0"/>
<circle cx="948" cy="44" r="8" class="c0"/>
<circle cx="776" cy="646" r="8" class="c0"/>
<circle cx="1078" cy="1186" r="8" class="c0"/>
<circle cx="1058" cy="1278" r="8" class="c0"/>
<circle cx="984" cy="1274" r="8" class="c0"/>
<circle cx="1058" cy="600" r="8" class="c0"/>
<circle cx="1030" cy="1086" r="8" class="c0"/>
<circle cx="952" cy="862" r="8" class="c0"/>
<circle cx="1098" cy="1104" r="8" class="c0"/>
<circle cx="1030" cy="952" r="8" class="c0"/>
<circle cx="1062" cy="832" r="8" class="c0"/>
<circle cx="1028" cy="1016" r="8" class="c0"/>
<circle cx="1024" cy="750" r="8" class="c0"/>
<circle cx="960" cy="1034" r="8" class="c0"/>
<circle cx="976" cy="486" r="8" class="c0"/>
<circle cx="1012" cy="416" r="8" class="c0"/>
<circle cx="986" cy="102" r="8" class="c0"/>
<circle cx="1098" cy="896" r="8" class="c0"/>
<circle cx="892" cy="568" r="8" class="c0"/>
<circle cx="930" cy="1254" r="8" class="c0"/>
<circle cx="936" cy="566" r="8" class="c0"/>
<circle cx="900" cy="548" r="8" class="c0"/>
<circle cx="960" cy="1256" r="8" class="c0"/>
<circle cx="1032" cy="788" r="8" class="c0"/>
<circle cx="1064" cy="514" r="8" class="c0"/>
<circle cx="1052" cy="994" r="8" class="c0"/>
<circle cx="906" cy="1058" r="8" class="c0"/>
<circle cx="984" cy="530" r="8" class="c0"/>
<circle cx="910" cy="976" r="8" class="c0"/>
<circle cx="990" cy="628" r="8" class="c0"/>
<circle cx="978" cy="68" r="8" class="c0"/>
<circle cx="1140" cy="540" r="8" class="c0"/>
<circle cx="862" cy="1124" r="6" class="c0"/>
<circle cx="1016" cy="556" r="6" class="c0"/>
<circle cx="1160" cy="608" r="6" class="c0"/>
<circle cx="892" cy="978" r="6" class="c0"/>
<circle cx="990" cy="892" r="6" class="c0"/>
<circle cx="844" cy="642" r="6" class="c0"/>
<circle cx="1042" cy="728" r="6" class="c0"/>
<circle cx="998" cy="1154" r="6" class="c0"/>
<circle cx="962" cy="744" r="6" class="c0"/>
<circle cx="1032" cy="1056" r="6" class="c0"/>
<circle cx="1016" cy="1192" r="6" class="c0"/>
<circle cx="926" cy="456" r="6" class="c0"/>
<circle cx="1036" cy="694" r="6" class="c0"/>
<circle cx="950" cy="730" r="6" class="c0"/>
<circle cx="1020" cy="1098" r="6" class="c0"/>
<circle cx="1046" cy="482" r="6" class="c0"/>
<circle cx="770" cy="664" r="6" class="c0"/>
<circle cx="924" cy="1086" r="6" class="c0"/>
<circle cx="1062" cy="1108" r="6" class="c0"/>
<circle cx="1138" cy="566" r="6" class="c0"/>
<circle cx="1268" cy="562" r="6" class="c0"/>
<circle cx="1048" cy="1206" r="6" class="c0"/>
<circle cx="932" cy="694" r="6" class="c0"/>
<circle cx="934" cy="1212" r="6" class="c0"/>
<circle cx="1006" cy="1214" r="6" class="c0"/>
<circle cx="1020" cy="934" r="6" class="c0"/>
<circle cx="950" cy="1218" r="6" class="c0"/>
<circle cx="922" cy="772" r="6" class="c0"/>
<circle cx="1100" cy="502" r="6" class="c0"/>
<circle cx="972" cy="122" r="6" class="c0"/>
<circle cx="902" cy="898" r="6" class="c0"/>
<circle cx="920" cy="596" r="6" class="c0"/>
<circle cx="886" cy="1010" r="6" class="c0"/>
<circle cx="862" cy="610" r="6" class="c0"/>
<circle cx="1134" cy="1152" r="6" class="c0"/>
<circle cx="876" cy="634" r="6" class="c0"/>
<circle cx="998" cy="1074" r="6" class="c0"/>
<circle cx="994" cy="1012" r="6" class="c0"/>
<circle cx="1056" cy="1032" r="6" class="c0"/>
<circle cx="862" cy="590" r="6" class="c0"/>
<circle cx="928" cy="890" r="6" class="c0"/>
<circle cx="1054" cy="452" r="6" class="c0"/>
<circle cx="1006" cy="982" r="6" class="c0"/>
<circle cx="1042" cy="1150" r="6" class="c0"/>
<circle cx="1136" cy="492" r="6" class="c0"/>
<circle cx="1200" cy="622" r="6" class="c0"/>
<circle cx="928" cy="518" r="6" class="c0"/>
<circle cx="1104" cy="1038" r="6" class="c0"/>
<circle cx="902" cy="634" r="6" class="c0"/>
<circle cx="1058" cy="672" r="6" class="c0"/>
<circle cx="1044" cy="820" r="6" class="c0"/>
<circle cx="838" cy="696" r="6" class="c0"/>
<circle cx="940" cy="662" r="6" class="c0"/>
<circle cx="1144" cy="520" r="6" class="c0"/>
<circle cx="958" cy="1080" r="6" class="c0"/>
<circle cx="1050" cy="1158" r="6" class="c0"/>
<circle cx="918" cy="734" r="6" class="c0"/>
<circle cx="1046" cy="1128" r="6" class="c0"/>
<circle cx="942" cy="102" r="6" class="c0"/>
<circle cx="882" cy="1032" r="6" class="c0"/>
<circle cx="980" cy="754" r="6" class="c0"/>
<circle cx="1062" cy="796" r="6" class="c0"/>
<circle cx="954" cy="838" r="6" class="c0"/>
<circle cx="892" cy="688" r="6" class="c0"/>
<circle cx="898" cy="946" r="6" class="c0"/>
<circle cx="1080" cy="620" r="6" class="c0"/>
<circle cx="898" cy="748" r="6" class="c0"/>
<circle cx="1282" cy="554" r="6" class="c0"/>
<circle cx="994" cy="650" r="6" class="c0"/>
<circle cx="1008" cy="1060" r="6" class="c0"/>
<circle cx="1038" cy="1006" r="6" class="c0"/>
<circle cx="900" cy="912" r="6" class="c0"/>
<circle cx="966" cy="500" r="6" class="c0"/>
<circle cx="982" cy="20" r="6" class="c0"/>
<circle cx="1004" cy="1140" r="6" class="c0"/>
<circle cx="854" cy="578" r="6" class="c0"/>
<circle cx="1128" cy="1164" r="6" class="c0"/>
<circle cx="934" cy="834" r="6" class="c0"/>
<circle cx="956" cy="908" r="6" class="c0"/>
<circle cx="858" cy="670" r="6" class="c0"/>
<circle cx="1002" cy="780" r="6" class="c0"/>
<circle cx="1106" cy="1142" r="6" class="c0"/>
<circle cx="1100" cy="1156" r="6" class="c0"/>
<circle cx="1130" cy="574" r="6" class="c0"/>
<circle cx="920" cy="1160" r="6" class="c0"/>
<circle cx="1074" cy="916" r="6" class="c0"/>
<circle cx="1082" cy="482" r="6" class="c0"/>
<circle cx="870" cy="1164" r="6" class="c0"/>
<circle cx="992" cy="680" r="6" class="c0"/>
<circle cx="928" cy="914" r="6" class="c0"/>
<circle cx="1230" cy="516" r="6" class="c0"/>
<circle cx="1148" cy="668" r="6" class="c0"/>
<circle cx="1072" cy="1018" r="6" class="c0"/>
<circle cx="964" cy="558" r="6" class="c0"/>
<circle cx="992" cy="480" r="6" class="c0"/>
<circle cx="890" cy="1068" r="6" class="c0"/>
<circle cx="1052" cy="558" r="6" class="c0"/>
<circle cx="984" cy="472" r="6" class="c0"/>
<circle cx="1102" cy="854" r="6" class="c0"/>
<circle cx="978" cy="954" r="6" class="c0"/>
<circle cx="1032" cy="1266" r="6" class="c0"/>
<circle cx="1042" cy="446" r="6" class="c0"/>
<circle cx="948" cy="968" r="6" class="c0"/>
<circle cx="932" cy="1192" r="6" class="c0"/>
<circle cx="978" cy="1054" r="6" class="c0"/>
<circle cx="1158" cy="492" r="6" class="c0"/>
<circle cx="982" cy="52" r="6" class="c0"/>
<circle cx="1020" cy="480" r="6" class="c0"/>
<circle cx="1028" cy="622" r="6" class="c0"/>
<circle cx="1022" cy="778" r="6" class="c0"/>
<circle cx="980" cy="134" r="6" class="c0"/>
<circle cx="868" cy="692" r="6" class="c0"/>
<circle cx="950" cy="894" r="6" class="c0"/>
<circle cx="910" cy="854" r="6" class="c0"/>
<circle cx="1172" cy="526" r="6" class="c0"/>
<circle cx="960" cy="612" r="6" class="c0"/>
<circle cx="968" cy="600" r="6" class="c0"/>
<circle cx="1108" cy="1166" r="6" class="c0"/>
<circle cx="982" cy="1208" r="6" class="c0"/>
<circle cx="902" cy="1042" r="6" class="c0"/>
<circle cx="996" cy="610" r="6" class="c0"/>
<circle cx="954" cy="174" r="6" class="c0"/>
<circle cx="958" cy="1276" r="6" class="c0"/>
<circle cx="1096" cy="1030" r="6" class="c0"/>
<circle cx="854" cy="598" r="6" class="c0"/>
<circle cx="1172" cy="602" r="6" class="c0"/>
</svg>
