<?xml version="1.0" encoding="utf-8"?>
<svg xmlns="http://www.w3.org/2000/svg"
     xmlns:xlink="http://www.w3.org/1999/xlink" width="1920" height="1440" >

            <defs>
            <style type="text/css"><![CDATA[
circle {stroke: none;}
.c0 {fill: #FFFFFF;}
]]></style>
            </defs>
<rect x="0" y="0" width="1920" height="1440" fill="black"/>
<circle cx="1014" cy="736" r="12" class="c0"/>
<circle cx="1082" cy="518" r="12" class="c0"/>
<circle cx="1064" cy="590" r="12" class="c0"/>
<circle cx="1014" cy="440" r="12" class="c0"/>
<circle cx="762" cy="610" r="12" class="c0"/>
<circle cx="1064" cy="662" r="12" class="c0"/>
<circle cx="940" cy="704" r="12" class="c0"/>
<circle cx="966" cy="976" r="12" class="c0"/>
<circle cx="1022" cy="568" r="12" class="c0"/>
<circle cx="916" cy="1222" r="12" class="c0"/>
<circle cx="974" cy="532" r="12" class="c0"/>
<circle cx="868" cy="920" r="12" class="c0"/>
<circle cx="876" cy="1012" r="12" class="c0"/>
<circle cx="930" cy="1182" r="12" class="c0"/>
<circle cx="842" cy="684" r="12" class="c0"/>
<circle cx="1032" cy="1134" r="12" class="c0"/>
<circle cx="1136" cy="502" r="12" class="c0"/>
<circle cx="868" cy="538" r="12" class="c0"/>
<circle cx="810" cy="1160" r="12" class="c0"/>
<circle cx="898" cy="846" r="12" class="c0"/>
<circle cx="996" cy="1242" r="12" class="c0"/>
<circle cx="1200" cy="596" r="12" class="c0"/>
<circle cx="1190" cy="502" r="12" class="c0"/>
<circle cx="782" cy="592" r="12" class="c0"/>
<circle cx="928" cy="1330" r="12" class="c0"/>
<circle cx="888" cy="674" r="12" class="c0"/>
<circle cx="810" cy="1224" r="12" class="c0"/>
<circle cx="954" cy="568" r="12" class="c0"/>
<circle cx="894" cy="756" r="12" class="c0"/>
<circle cx="742" cy="636" r="12" class="c0"/>
<circle cx="914" cy="1156" r="12" class="c0"/>
<circle cx="880" cy="570" r="12" class="c0"/>
<circle cx="982" cy="688" r="12" class="c0"/>
<circle cx="876" cy="1110" r="12" class="c0"/>
<circle cx="856" cy="832" r="12" class="c0"/>
<circle cx="882" cy="808" r="12" class="c0"/>
<circle cx="1052" cy="1336" r="12" class="c0"/>
<circle cx="928" cy="1000" r="12" class="c0"/>
<circle cx="864" cy="510" r="12" class="c0"/>
<circle cx="998" cy="1036" r="12" class="c0"/>
<circle cx="984" cy="426" r="12" class="c0"/>
<circle cx="1184" cy="542" r="12" class="c0"/>
<circle cx="1138" cy="584" r="12" class="c0"/>
<circle cx="1158" cy="596" r="10" class="c0"/>
<circle cx="864" cy="952" r="10" class="c0"/>
<circle cx="958" cy="1096" r="10" class="c0"/>
<circle cx="822" cy="1184" r="10" class="c0"/>
<circle cx="926" cy="606" r="10" class="c0"/>
<circle cx="990" cy="1160" r="10" class="c0"/>
<circle cx="838" cy="1158" r="10" class="c0"/>
<circle cx="952" cy="482" r="10" class="c0"/>
<circle cx="846" cy="1220" r="10" class="c0"/>
<circle cx="940" cy="850" r="10" class="c0"/>
<circle cx="952" cy="440" r="10" class="c0"/>
<circle cx="898" cy="554" r="10" class="c0"/>
<circle cx="1006" cy="784" r="10" class="c0"/>
<circle cx="846" cy="970" r="10" class="c0"/>
<circle cx="998" cy="1140" r="10" class="c0"/>
<circle cx="1048" cy="472" r="10" class="c0"/>
<circle cx="908" cy="466" r="10" class="c0"/>
<circle cx="930" cy="524" r="10" class="c0"/>
<circle cx="948" cy="1030" r="10" class="c0"/>
<circle cx="1084" cy="568" r="10" class="c0"/>
<circle cx="970" cy="1234" r="10" class="c0"/>
<circle cx="1036" cy="452" r="10" class="c0"/>
<circle cx="960" cy="866" r="10" class="c0"/>
<circle cx="1112" cy="520" r="10" class="c0"/>
<circle cx="820" cy="608" r="10" class="c0"/>
<circle cx="956" cy="1218" r="10" class="c0"/>
<circle cx="918" cy="794" r="10" class="c0"/>
<circle cx="842" cy="1074" r="10" class="c0"/>
<circle cx="990" cy="802" r="10" class="c0"/>
<circle cx="992" cy="602" r="10" class="c0"/>
<circle cx="1180" cy="616" r="10" class="c0"/>
<circle cx="962" cy="844" r="10" class="c0"/>
<circle cx="806" cy="1102" r="10" class="c0"/>
<circle cx="1016" cy="1216" r="10" class="c0"/>
<circle cx="896" cy="942" r="10" class="c0"/>
<circle cx="790" cy="1214" r="10" class="c0"/>
<circle cx="960" cy="738" r="10" class="c0"/>
<circle cx="840" cy="860" r="10" class="c0"/>
<circle cx="1152" cy="524" r="10" class="c0"/>
<circle cx="1038" cy="842" r="10" class="c0"/>
<circle cx="1006" cy="488" r="10" class="c0"/>
<circle cx="862" cy="674" r="10" class="c0"/>
<circle cx="962" cy="1060" r="10" class="c0"/>
<circle cx="826" cy="654" r="10" class="c0"/>
<circle cx="1120" cy="596" r="10" class="c0"/>
<circle cx="862" cy="1142" r="10" class="c0"/>
<circle cx="874" cy="1158" r="10" class="c0"/>
<circle cx="904" cy="990" r="10" class="c0"/>
<circle cx="930" cy="1044" r="10" class="c0"/>
<circle cx="986" cy="1208" r="10" class="c0"/>
<circle cx="850" cy="1254" r="10" class="c0"/>
<circle cx="732" cy="664" r="10" class="c0"/>
<circle cx="958" cy="400" r="10" class="c0"/>
<circle cx="1092" cy="482" r="10" class="c0"/>
<circle cx="902" cy="1190" r="10" class="c0"/>
<circle cx="816" cy="1058" r="10" class="c0"/>
<circle cx="1168" cy="578" r="10" class="c0"/>
<circle cx="956" cy="512" r="10" class="c0"/>
<circle cx="956" cy="1188" r="10" class="c0"/>
<circle cx="1142" cy="548" r="10" class="c0"/>
<circle cx="934" cy="952" r="10" class="c0"/>
<circle cx="754" cy="1116" r="10" class="c0"/>
<circle cx="1130" cy="532" r="10" class="c0"/>
<circle cx="758" cy="672" r="10" class="c0"/>
<circle cx="802" cy="1198" r="10" class="c0"/>
<circle cx="978" cy="646" r="10" class="c0"/>
<circle cx="948" cy="1150" r="10" class="c0"/>
<circle cx="1116" cy="572" r="10" class="c0"/>
<circle cx="876" cy="1062" r="10" class="c0"/>
<circle cx="820" cy="570" r="10" class="c0"/>
<circle cx="1014" cy="806" r="10" class="c0"/>
<circle cx="928" cy="650" r="10" class="c0"/>
<circle cx="1002" cy="464" r="10" class="c0"/>
<circle cx="922" cy="1098" r="10" class="c0"/>
<circle cx="956" cy="664" r="10" class="c0"/>
<circle cx="1046" cy="1164" r="10" class="c0"/>
<circle cx="1118" cy="478" r="10" class="c0"/>
<circle cx="964" cy="792" r="10" class="c0"/>
<circle cx="874" cy="712" r="10" class="c0"/>
<circle cx="918" cy="828" r="10" class="c0"/>
<circle cx="1032" cy="532" r="10" class="c0"/>
<circle cx="1026" cy="654" r="10" class="c0"/>
<circle cx="996" cy="710" r="10" class="c0"/>
<circle cx="914" cy="772" r="10" class="c0"/>
<circle cx="980" cy="774" r="10" class="c0"/>
<circle cx="1074" cy="642" r="10" class="c0"/>
<circle cx="1018" cy="514" r="10" class="c0"/>
<circle cx="842" cy="932" r="10" class="c0"/>
<circle cx="788" cy="674" r="10" class="c0"/>
<circle cx="994" cy="1002" r="10" class="c0"/>
<circle cx="894" cy="910" r="10" class="c0"/>
<circle cx="1210" cy="576" r="10" class="c0"/>
<circle cx="780" cy="1088" r="10" class="c0"/>
<circle cx="760" cy="1192" r="10" class="c0"/>
<circle cx="992" cy="752" r="10" class="c0"/>
<circle cx="1036" cy="1198" r="10" class="c0"/>
<circle cx="928" cy="756" r="10" class="c0"/>
<circle cx="866" cy="888" r="10" class="c0"/>
<circle cx="1100" cy="548" r="10" class="c0"/>
<circle cx="922" cy="1300" r="10" class="c0"/>
<circle cx="1160" cy="486" r="10" class="c0"/>
<circle cx="986" cy="400" r="10" class="c0"/>
<circle cx="1046" cy="612" r="10" class="c0"/>
<circle cx="882" cy="610" r="10" class="c0"/>
<circle cx="904" cy="1062" r="10" class="c0"/>
<circle cx="940" cy="458" r="10" class="c0"/>
<circle cx="1122" cy="620" r="10" class="c0"/>
<circle cx="836" cy="1202" r="10" class="c0"/>
<circle cx="934" cy="922" r="10" class="c0"/>
<circle cx="1018" cy="1176" r="10" class="c0"/>
<circle cx="1020" cy="1074" r="10" class="c0"/>
<circle cx="798" cy="616" r="10" class="c0"/>
<circle cx="996" cy="960" r="10" class="c0"/>
<circle cx="974" cy="480" r="10" class="c0"/>
<circle cx="1026" cy="470" r="10" class="c0"/>
<circle cx="976" cy="1126" r="10" class="c0"/>
<circle cx="974" cy="718" r="10" class="c0"/>
<circle cx="1044" cy="1226" r="10" class="c0"/>
<circle cx="916" cy="574" r="10" class="c0"/>
<circle cx="866" cy="1034" r="10" class="c0"/>
<circle cx="968" cy="622" r="10" class="c0"/>
<circle cx="900" cy="880" r="10" class="c0"/>
<circle cx="822" cy="1250" r="10" class="c0"/>
<circle cx="834" cy="586" r="10" class="c0"/>
<circle cx="896" cy="722" r="10" class="c0"/>
<circle cx="876" cy="442" r="10" class="c0"/>
<circle cx="894" cy="632" r="10" class="c0"/>
<circle cx="830" cy="1008" r="10" class="c0"/>
<circle cx="1230" cy="534" r="10" class="c0"/>
<circle cx="816" cy="534" r="10" class="c0"/>
<circle cx="898" cy="414" r="10" class="c0"/>
<circle cx="854" cy="704" r="10" class="c0"/>
<circle cx="1202" cy="520" r="10" class="c0"/>
<circle cx="930" cy="1252" r="10" class="c0"/>
<circle cx="922" cy="502" r="10" class="c0"/>
<circle cx="872" cy="464" r="10" class="c0"/>
<circle cx="838" cy="1044" r="10" class="c0"/>
<circle cx="738" cy="1176" r="10" class="c0"/>
<circle cx="864" cy="752" r="8" class="c0"/>
<circle cx="1010" cy="638" r="8" class="c0"/>
<circle cx="1034" cy="552" r="8" class="c0"/>
<circle cx="1032" cy="1086" r="8" class="c0"/>
<circle cx="740" cy="600" r="8" class="c0"/>
<circle cx="902" cy="1244" r="8" class="c0"/>
<circle cx="870" cy="792" r="8" class="c0"/>
<circle cx="878" cy="872" r="8" class="c0"/>
<circle cx="888" cy="430" r="8" class="c0"/>
<circle cx="1154" cy="566" r="8" class="c0"/>
<circle cx="754" cy="584" r="8" class="c0"/>
<circle cx="836" cy="558" r="8" class="c0"/>
<circle cx="948" cy="760" r="8" class="c0"/>
<circle cx="978" cy="818" r="8" class="c0"/>
<circle cx="832" cy="630" r="8" class="c0"/>
<circle cx="1006" cy="526" r="8" class="c0"/>
<circle cx="1026" cy="766" r="8" class="c0"/>
<circle cx="938" cy="1074" r="8" class="c0"/>
<circle cx="916" cy="966" r="8" class="c0"/>
<circle cx="1028" cy="634" r="8" class="c0"/>
<circle cx="804" cy="550" r="8" class="c0"/>
<circle cx="962" cy="592" r="8" class="c0"/>
<circle cx="972" cy="880" r="8" class="c0"/>
<circle cx="874" cy="1258" r="8" class="c0"/>
<circle cx="942" cy="1112" r="8" class="c0"/>
<circle cx="744" cy="1144" r="8" class="c0"/>
<circle cx="780" cy="1180" r="8" class="c0"/>
<circle cx="916" cy="436" r="8" class="c0"/>
<circle cx="876" cy="966" r="8" class="c0"/>
<circle cx="924" cy="544" r="8" class="c0"/>
<circle cx="1004" cy="1096" r="8" class="c0"/>
<circle cx="1012" cy="1118" r="8" class="c0"/>
<circle cx="1022" cy="1244" r="8" class="c0"/>
<circle cx="850" cy="1108" r="8" class="c0"/>
<circle cx="1006" cy="550" r="8" class="c0"/>
<circle cx="1016" cy="1280" r="8" class="c0"/>
<circle cx="956" cy="910" r="8" class="c0"/>
<circle cx="832" cy="1128" r="8" class="c0"/>
<circle cx="1024" cy="598" r="8" class="c0"/>
<circle cx="856" cy="998" r="8" class="c0"/>
<circle cx="1214" cy="610" r="8" class="c0"/>
<circle cx="944" cy="368" r="8" class="c0"/>
<circle cx="910" cy="680" r="8" class="c0"/>
<circle cx="996" cy="574" r="8" class="c0"/>
<circle cx="1008" cy="1062" r="8" class="c0"/>
<circle cx="808" cy="582" r="8" class="c0"/>
<circle cx="1038" cy="492" r="8" class="c0"/>
<circle cx="1040" cy="680" r="8" class="c0"/>
<circle cx="1022" cy="1100" r="8" class="c0"/>
<circle cx="1040" cy="582" r="8" class="c0"/>
<circle cx="728" cy="696" r="8" class="c0"/>
<circle cx="840" cy="538" r="8" class="c0"/>
<circle cx="990" cy="906" r="8" class="c0"/>
<circle cx="938" cy="972" r="8" class="c0"/>
<circle cx="942" cy="584" r="8" class="c0"/>
<circle cx="790" cy="1126" r="8" class="c0"/>
<circle cx="1260" cy="552" r="8" class="c0"/>
<circle cx="900" cy="516" r="8" class="c0"/>
<circle cx="986" cy="516" r="8" class="c0"/>
<circle cx="1034" cy="866" r="8" class="c0"/>
<circle cx="786" cy="652" r="8" class="c0"/>
<circle cx="858" cy="618" r="8" class="c0"/>
<circle cx="818" cy="1138" r="8" class="c0"/>
<circle cx="1240" cy="558" r="8" class="c0"/>
<circle cx="880" cy="1190" r="8" class="c0"/>
<circle cx="922" cy="876" r="8" class="c0"/>
<circle cx="1062" cy="530" r="8" class="c0"/>
<circle cx="774" cy="1148" r="8" class="c0"/>
<circle cx="762" cy="652" r="8" class="c0"/>
<circle cx="910" cy="1014" r="8" class="c0"/>
<circle cx="724" cy="1158" r="8" class="c0"/>
<circle cx="878" cy="494" r="8" class="c0"/>
<circle cx="972" cy="950" r="8" class="c0"/>
<circle cx="1090" cy="606" r="8" class="c0"/>
<circle cx="998" cy="848" r="8" class="c0"/>
<circle cx="894" cy="1080" r="8" class="c0"/>
<circle cx="980" cy="584" r="8" class="c0"/>
<circle cx="1020" cy="890" r="8" class="c0"/>
<circle cx="948" cy="642" r="8" class="c0"/>
<circle cx="928" cy="1278" r="8" class="c0"/>
<circle cx="870" cy="1082" r="8" class="c0"/>
<circle cx="900" cy="1102" r="8" class="c0"/>
<circle cx="904" cy="660" r="8" class="c0"/>
<circle cx="892" cy="1140" r="8" class="c0"/>
<circle cx="912" cy="702" r="8" class="c0"/>
<circle cx="900" cy="594" r="8" class="c0"/>
<circle cx="958" cy="1000" r="8" class="c0"/>
<circle cx="1012" cy="1322" r="8" class="c0"/>
<circle cx="984" cy="1074" r="8" class="c0"/>
<circle cx="808" cy="636" r="8" class="c0"/>
<circle cx="876" cy="852" r="8" class="c0"/>
<circle cx="1072" cy="616" r="8" class="c0"/>
<circle cx="1058" cy="506" r="8" class="c0"/>
<circle cx="760" cy="1214" r="8" class="c0"/>
<circle cx="932" cy="404" r="8" class="c0"/>
<circle cx="1004" cy="676" r="8" class="c0"/>
<circle cx="740" cy="1200" r="8" class="c0"/>
<circle cx="950" cy="1240" r="8" class="c0"/>
<circle cx="1052" cy="568" r="8" class="c0"/>
<circle cx="944" cy="896" r="8" class="c0"/>
<circle cx="956" cy="1320" r="8" class="c0"/>
<circle cx="1228" cy="568" r="8" class="c0"/>
<circle cx="810" cy="1082" r="8" class="c0"/>
<circle cx="1012" cy="406" r="8" class="c0"/>
<circle cx="858" cy="1054" r="8" class="c0"/>
<circle cx="980" cy="1102" r="8" class="c0"/>
<circle cx="850" cy="602" r="8" class="c0"/>
<circle cx="976" cy="930" r="8" class="c0"/>
<circle cx="864" cy="650" r="8" class="c0"/>
<circle cx="926" cy="354" r="8" class="c0"/>
<circle cx="994" cy="658" r="8" class="c0"/>
<circle cx="882" cy="772" r="8" class="c0"/>
<circle cx="848" cy="522" r="8" class="c0"/>
<circle cx="778" cy="632" r="8" class="c0"/>
<circle cx="1206" cy="544" r="8" class="c0"/>
<circle cx="920" cy="852" r="8" class="c0"/>
<circle cx="858" cy="578" r="8" class="c0"/>
<circle cx="754" cy="1158" r="8" class="c0"/>
<circle cx="998" cy="924" r="8" class="c0"/>
<circle cx="968" cy="1154" r="8" class="c0"/>
<circle cx="854" cy="1016" r="8" class="c0"/>
<circle cx="944" cy="784" r="8" class="c0"/>
<circle cx="994" cy="1084" r="8" class="c0"/>
<circle cx="910" cy="1130" r="8" class="c0"/>
<circle cx="868" cy="1214" r="8" class="c0"/>
<circle cx="918" cy="740" r="8" class="c0"/>
<circle cx="1010" cy="1256" r="8" class="c0"/>
<circle cx="1004" cy="1302" r="8" class="c0"/>
<circle cx="1068" cy="480" r="8" class="c0"/>
<circle cx="1138" cy="474" r="8" class="c0"/>
<circle cx="786" cy="1108" r="8" class="c0"/>
<circle cx="916" cy="912" r="8" class="c0"/>
<circle cx="816" cy="678" r="8" class="c0"/>
<circle cx="1188" cy="580" r="8" class="c0"/>
<circle cx="932" cy="672" r="8" class="c0"/>
<circle cx="728" cy="618" r="8" class="c0"/>
<circle cx="986" cy="1020" r="8" class="c0"/>
<circle cx="844" cy="900" r="8" class="c0"/>
<circle cx="896" cy="1034" r="8" class="c0"/>
<circle cx="858" cy="1200" r="8" class="c0"/>
<circle cx="924" cy="722" r="8" class="c0"/>
<circle cx="940" cy="1202" r="8" class="c0"/>
<circle cx="912" cy="620" r="8" class="c0"/>
<circle cx="718" cy="652" r="8" class="c0"/>
<circle cx="948" cy="804" r="8" class="c0"/>
<circle cx="830" cy="1088" r="8" class="c0"/>
<circle cx="1092" cy="628" r="8" class="c0"/>
<circle cx="1002" cy="1188" r="8" class="c0"/>
<circle cx="728" cy="1134" r="8" class="c0"/>
<circle cx="984" cy="560" r="8" class="c0"/>
<circle cx="942" cy="616" r="8" class="c0"/>
<circle cx="990" cy="628" r="8" class="c0"/>
<circle cx="798" cy="690" r="8" class="c0"/>
<circle cx="770" cy="1166" r="8" class="c0"/>
<circle cx="942" cy="826" r="8" class="c0"/>
<circle cx="890" cy="696" r="8" class="c0"/>
<circle cx="918" cy="934" r="8" class="c0"/>
<circle cx="964" cy="1040" r="8" class="c0"/>
<circle cx="990" cy="1312" r="8" class="c0"/>
<circle cx="854" cy="1176" r="8" class="c0"/>
<circle cx="870" cy="596" r="8" class="c0"/>
<circle cx="1178" cy="520" r="8" class="c0"/>
<circle cx="952" cy="606" r="8" class="c0"/>
<circle cx="1030" cy="690" r="8" class="c0"/>
<circle cx="1020" cy="830" r="8" class="c0"/>
<circle cx="976" cy="1176" r="8" class="c0"/>
<circle cx="844" cy="640" r="8" class="c0"/>
<circle cx="1018" cy="700" r="8" class="c0"/>
<circle cx="992" cy="446" r="8" class="c0"/>
<circle cx="1154" cy="622" r="8" class="c0"/>
<circle cx="1110" cy="642" r="8" class="c0"/>
<circle cx="786" cy="552" r="8" class="c0"/>
<circle cx="1014" cy="1022" r="8" class="c0"/>
<circle cx="890" cy="504" r="8" class="c0"/>
<circle cx="1100" cy="508" r="8" class="c0"/>
<circle cx="942" cy="424" r="8" class="c0"/>
<circle cx="890" cy="536" r="8" class="c0"/>
<circle cx="774" cy="566" r="8" class="c0"/>
<circle cx="812" cy="1038" r="8" class="c0"/>
<circle cx="944" cy="1304" r="8" class="c0"/>
<circle cx="900" cy="784" r="8" class="c0"/>
<circle cx="928" cy="476" r="8" class="c0"/>
<circle cx="862" cy="1234" r="8" class="c0"/>
<circle cx="958" cy="772" r="8" class="c0"/>
<circle cx="1012" cy="620" r="8" class="c0"/>
<circle cx="1072" cy="546" r="8" class="c0"/>
<circle cx="1000" cy="880" r="8" class="c0"/>
<circle cx="794" cy="570" r="8" class="c0"/>
<circle cx="1016" cy="1148" r="8" class="c0"/>
<circle cx="958" cy="818" r="8" class="c0"/>
<circle cx="764" cy="1100" r="8" class="c0"/>
<circle cx="912" cy="532" r="8" class="c0"/>
<circle cx="962" cy="890" r="8" class="c0"/>
<circle cx="936" cy="558" r="8" class="c0"/>
<circle cx="970" cy="458" r="8" class="c0"/>
<circle cx="956" cy="690" r="8" class="c0"/>
<circle cx="946" cy="536" r="8" class="c0"/>
<circle cx="896" cy="972" r="8" class="c0"/>
<circle cx="938" cy="1230" r="8" class="c0"/>
<circle cx="938" cy="740" r="8" class="c0"/>
<circle cx="932" cy="1140" r="8" class="c0"/>
<circle cx="1024" cy="1312" r="8" class="c0"/>
<circle cx="1050" cy="542" r="8" class="c0"/>
<circle cx="794" cy="1236" r="8" class="c0"/>
<circle cx="922" cy="692" r="8" class="c0"/>
<circle cx="962" cy="1018" r="8" class="c0"/>
<circle cx="894" cy="1210" r="8" class="c0"/>
<circle cx="1056" cy="632" r="8" class="c0"/>
<circle cx="1040" cy="510" r="8" class="c0"/>
<circle cx="912" cy="894" r="8" class="c0"/>
<circle cx="882" cy="738" r="8" class="c0"/>
<circle cx="854" cy="556" r="8" class="c0"/>
<circle cx="828" cy="702" r="8" class="c0"/>
<circle cx="1102" cy="618" r="8" class="c0"/>
<circle cx="894" cy="824" r="8" class="c0"/>
<circle cx="1004" cy="984" r="8" class="c0"/>
<circle cx="862" cy="480" r="8" class="c0"/>
<circle cx="900" cy="494" r="8" class="c0"/>
<circle cx="898" cy="446" r="8" class="c0"/>
<circle cx="928" cy="386" r="8" class="c0"/>
<circle cx="986" cy="834" r="8" class="c0"/>
<circle cx="890" cy="1172" r="8" class="c0"/>
<circle cx="986" cy="860" r="8" class="c0"/>
<circle cx="740" cy="682" r="8" class="c0"/>
<circle cx="910" cy="1318" r="8" class="c0"/>
<circle cx="880" cy="1238" r="8" class="c0"/>
<circle cx="906" cy="1264" r="8" class="c0"/>
<circle cx="870" cy="988" r="8" class="c0"/>
<circle cx="882" cy="652" r="8" class="c0"/>
<circle cx="904" cy="806" r="8" class="c0"/>
<circle cx="870" cy="692" r="8" class="c0"/>
<circle cx="982" cy="1048" r="8" class="c0"/>
<circle cx="840" cy="990" r="8" class="c0"/>
<circle cx="990" cy="732" r="8" class="c0"/>
<circle cx="1012" cy="588" r="8" class="c0"/>
<circle cx="714" cy="630" r="8" class="c0"/>
<circle cx="910" cy="642" r="8" class="c0"/>
<circle cx="990" cy="498" r="8" class="c0"/>
<circle cx="770" cy="1128" r="8" class="c0"/>
<circle cx="806" cy="660" r="8" class="c0"/>
<circle cx="884" cy="1044" r="8" class="c0"/>
<circle cx="1092" cy="588" r="8" class="c0"/>
<circle cx="722" cy="1186" r="8" class="c0"/>
<circle cx="816" cy="1118" r="8" class="c0"/>
<circle cx="794" cy="1070" r="8" class="c0"/>
<circle cx="1026" cy="422" r="8" class="c0"/>
<circle cx="1138" cy="608" r="8" class="c0"/>
<circle cx="922" cy="1024" r="8" class="c0"/>
<circle cx="1056" cy="1202" r="8" class="c0"/>
<circle cx="1198" cy="564" r="8" class="c0"/>
<circle cx="860" cy="1122" r="8" class="c0"/>
<circle cx="822" cy="1026" r="8" class="c0"/>
<circle cx="770" cy="1224" r="8" class="c0"/>
<circle cx="972" cy="750" r="8" class="c0"/>
<circle cx="892" cy="478" r="8" class="c0"/>
<circle cx="1172" cy="558" r="8" class="c0"/>
<circle cx="958" cy="938" r="8" class="c0"/>
<circle cx="920" cy="1200" r="8" class="c0"/>
<circle cx="1034" cy="1110" r="8" class="c0"/>
<circle cx="792" cy="1170" r="8" class="c0"/>
<circle cx="1202" cy="620" r="8" class="c0"/>
<circle cx="706" cy="678" r="8" class="c0"/>
<circle cx="1016" cy="1046" r="8" class="c0"/>
<circle cx="860" cy="1092" r="8" class="c0"/>
<circle cx="1166" cy="506" r="8" class="c0"/>
<circle cx="1054" cy="1182" r="8" class="c0"/>
<circle cx="1078" cy="494" r="8" class="c0"/>
<circle cx="770" cy="684" r="8" class="c0"/>
<circle cx="994" cy="1112" r="8" class="c0"/>
<circle cx="932" cy="814" r="6" class="c0"/>
<circle cx="800" cy="1140" r="6" class="c0"/>
<circle cx="924" cy="1116" r="6" class="c0"/>
<circle cx="1106" cy="694" r="6" class="c0"/>
<circle cx="852" cy="872" r="6" class="c0"/>
<circle cx="836" cy="950" r="6" class="c0"/>
<circle cx="976" cy="1000" r="6" class="c0"/>
<circle cx="942" cy="878" r="6" class="c0"/>
<circle cx="1176" cy="598" r="6" class="c0"/>
<circle cx="1044" cy="656" r="6" class="c0"/>
<circle cx="994" cy="1330" r="6" class="c0"/>
<circle cx="848" cy="664" r="6" class="c0"/>
<circle cx="862" cy="810" r="6" class="c0"/>
<circle cx="862" cy="634" r="6" class="c0"/>
<circle cx="1138" cy="630" r="6" class="c0"/>
<circle cx="884" cy="1222" r="6" class="c0"/>
<circle cx="928" cy="630" r="6" class="c0"/>
<circle cx="958" cy="546" r="6" class="c0"/>
<circle cx="890" cy="1254" r="6" class="c0"/>
<circle cx="946" cy="1132" r="6" class="c0"/>
<circle cx="892" cy="1122" r="6" class="c0"/>
<circle cx="988" cy="940" r="6" class="c0"/>
<circle cx="1122" cy="550" r="6" class="c0"/>
<circle cx="956" cy="1166" r="6" class="c0"/>
<circle cx="938" cy="1164" r="6" class="c0"/>
<circle cx="964" cy="422" r="6" class="c0"/>
<circle cx="928" cy="1064" r="6" class="c0"/>
<circle cx="1024" cy="672" r="6" class="c0"/>
<circle cx="972" cy="1198" r="6" class="c0"/>
<circle cx="932" cy="434" r="6" class="c0"/>
<circle cx="910" cy="864" r="6" class="c0"/>
<circle cx="830" cy="1266" r="6" class="c0"/>
<circle cx="984" cy="890" r="6" class="c0"/>
<circle cx="982" cy="986" r="6" class="c0"/>
<circle cx="954" cy="956" r="6" class="c0"/>
<circle cx="954" cy="1076" r="6" class="c0"/>
<circle cx="948" cy="990" r="6" class="c0"/>
<circle cx="842" cy="716" r="6" class="c0"/>
<circle cx="776" cy="1202" r="6" class="c0"/>
<circle cx="944" cy="1010" r="6" class="c0"/>
<circle cx="960" cy="1114" r="6" class="c0"/>
<circle cx="906" cy="1044" r="6" class="c0"/>
<circle cx="830" cy="1110" r="6" class="c0"/>
<circle cx="972" cy="504" r="6" class="c0"/>
<circle cx="914" cy="1080" r="6" class="c0"/>
<circle cx="946" cy="384" r="6" class="c0"/>
<circle cx="800" cy="1050" r="6" class="c0"/>
<circle cx="876" cy="828" r="6" class="c0"/>
<circle cx="1004" cy="824" r="6" class="c0"/>
<circle cx="910" cy="400" r="6" class="c0"/>
<circle cx="1128" cy="640" r="6" class="c0"/>
<circle cx="1028" cy="1160" r="6" class="c0"/>
<circle cx="1024" cy="1332" r="6" class="c0"/>
<circle cx="974" cy="670" r="6" class="c0"/>
<circle cx="844" cy="882" r="6" class="c0"/>
<circle cx="1160" cy="542" r="6" class="c0"/>
<circle cx="1002" cy="766" r="6" class="c0"/>
<circle cx="1006" cy="898" r="6" class="c0"/>
<circle cx="862" cy="860" r="6" class="c0"/>
<circle cx="952" cy="718" r="6" class="c0"/>
<circle cx="804" cy="1180" r="6" class="c0"/>
<circle cx="1012" cy="1006" r="6" class="c0"/>
<circle cx="886" cy="928" r="6" class="c0"/>
<circle cx="1048" cy="858" r="6" class="c0"/>
<circle cx="790" cy="1154" r="6" class="c0"/>
<circle cx="844" cy="1186" r="6" class="c0"/>
<circle cx="968" cy="1082" r="6" class="c0"/>
<circle cx="1036" cy="1178" r="6" class="c0"/>
<circle cx="1248" cy="542" r="6" class="c0"/>
<circle cx="1224" cy="516" r="6" class="c0"/>
<circle cx="1016" cy="540" r="6" class="c0"/>
<circle cx="838" cy="1238" r="6" class="c0"/>
<circle cx="878" cy="902" r="6" class="c0"/>
<circle cx="894" cy="1004" r="6" class="c0"/>
<circle cx="1236" cy="622" r="6" class="c0"/>
<circle cx="940" cy="504" r="6" class="c0"/>
<circle cx="880" cy="1130" r="6" class="c0"/>
<circle cx="1020" cy="716" r="6" class="c0"/>
<circle cx="998" cy="1266" r="6" class="c0"/>
<circle cx="974" cy="904" r="6" class="c0"/>
<circle cx="872" cy="626" r="6" class="c0"/>
<circle cx="968" cy="700" r="6" class="c0"/>
<circle cx="880" cy="520" r="6" class="c0"/>
<circle cx="922" cy="416" r="6" class="c0"/>
<circle cx="960" cy="708" r="6" class="c0"/>
<circle cx="1256" cy="590" r="6" class="c0"/>
<circle cx="1030" cy="820" r="6" class="c0"/>
<circle cx="928" cy="892" r="6" class="c0"/>
<circle cx="1028" cy="614" r="6" class="c0"/>
<circle cx="830" cy="1228" r="6" class="c0"/>
<circle cx="814" cy="694" r="6" class="c0"/>
<circle cx="962" cy="1136" r="6" class="c0"/>
<circle cx="1086" cy="538" r="6" class="c0"/>
<circle cx="886" cy="982" r="6" class="c0"/>
<circle cx="1092" cy="646" r="6" class="c0"/>
<circle cx="972" cy="388" r="6" class="c0"/>
<circle cx="842" cy="620" r="6" class="c0"/>
<circle cx="1012" cy="758" r="6" class="c0"/>
<circle cx="1188" cy="662" r="6" class="c0"/>
<circle cx="918" cy="372" r="6" class="c0"/>
<circle cx="1084" cy="658" r="6" class="c0"/>
<circle cx="1216" cy="554" r="6" class="c0"/>
<circle cx="860" cy="1072" r="6" class="c0"/>
<circle cx="894" cy="1230" r="6" class="c0"/>
<circle cx="972" cy="442" r="6" class="c0"/>
<circle cx="1132" cy="562" r="6" class="c0"/>
<circle cx="1026" cy="786" r="6" class="c0"/>
<circle cx="1110" cy="494" r="6" class="c0"/>
<circle cx="872" cy="1176" r="6" class="c0"/>
<circle cx="1048" cy="1146" r="6" class="c0"/>
<circle cx="986" cy="1186" r="6" class="c0"/>
<circle cx="1178" cy="488" r="6" class="c0"/>
<circle cx="924" cy="450" r="6" class="c0"/>
<circle cx="976" cy="1030" r="6" class="c0"/>
<circle cx="1036" cy="884" r="6" class="c0"/>
<circle cx="924" cy="338" r="6" class="c0"/>
<circle cx="966" cy="920" r="6" class="c0"/>
<circle cx="964" cy="494" r="6" class="c0"/>
<circle cx="992" cy="478" r="6" class="c0"/>
<circle cx="1084" cy="684" r="6" class="c0"/>
<circle cx="886" cy="1094" r="6" class="c0"/>
<circle cx="966" cy="678" r="6" class="c0"/>
<circle cx="756" cy="1174" r="6" class="c0"/>
<circle cx="1096" cy="530" r="6" class="c0"/>
<circle cx="1016" cy="1196" r="6" class="c0"/>
<circle cx="802" cy="598" r="6" class="c0"/>
<circle cx="1192" cy="630" r="6" class="c0"/>
<circle cx="1050" cy="520" r="6" class="c0"/>
<circle cx="946" cy="1338" r="6" class="c0"/>
<circle cx="936" cy="490" r="6" class="c0"/>
<circle cx="996" cy="538" r="6" class="c0"/>
<circle cx="944" cy="1054" r="6" class="c0"/>
<circle cx="968" cy="556" r="6" class="c0"/>
<circle cx="1004" cy="1204" r="6" class="c0"/>
<circle cx="1022" cy="1296" r="6" class="c0"/>
<circle cx="890" cy="462" r="6" class="c0"/>
<circle cx="806" cy="1128" r="6" class="c0"/>
<circle cx="830" cy="522" r="6" class="c0"/>
<circle cx="912" cy="484" r="6" class="c0"/>
<circle cx="1052" cy="648" r="6" class="c0"/>
<circle cx="940" cy="1094" r="6" class="c0"/>
<circle cx="1062" cy="558" r="6" class="c0"/>
<circle cx="840" cy="1098" r="6" class="c0"/>
<circle cx="912" cy="950" r="6" class="c0"/>
<circle cx="876" cy="940" r="6" class="c0"/>
<circle cx="984" cy="466" r="6" class="c0"/>
<circle cx="738" cy="1124" r="6" class="c0"/>
<circle cx="1054" cy="490" r="6" class="c0"/>
<circle cx="992" cy="1060" r="6" class="c0"/>
<circle cx="888" cy="862" r="6" class="c0"/>
<circle cx="1004" cy="420" r="6" class="c0"/>
<circle cx="1168" cy="532" r="6" class="c0"/>
<circle cx="934" cy="774" r="6" class="c0"/>
<circle cx="842" cy="1140" r="6" class="c0"/>
<circle cx="1034" cy="1322" r="6" class="c0"/>
<circle cx="1078" cy="468" r="6" class="c0"/>
<circle cx="1004" cy="944" r="6" class="c0"/>
<circle cx="904" cy="924" r="6" class="c0"/>
<circle cx="972" cy="602" r="6" class="c0"/>
<circle cx="844" cy="1026" r="6" class="c0"/>
<circle cx="898" cy="578" r="6" class="c0"/>
<circle cx="826" cy="548" r="6" class="c0"/>
<circle cx="998" cy="1222" r="6" class="c0"/>
<circle cx="1162" cy="690" r="6" class="c0"/>
<circle cx="980" cy="1144" r="6" class="c0"/>
<circle cx="902" cy="610" r="6" class="c0"/>
<circle cx="1008" cy="1162" r="6" class="c0"/>
<circle cx="1000" cy="508" r="6" class="c0"/>
<circle cx="942" cy="682" r="6" class="c0"/>
<circle cx="818" cy="1206" r="6" class="c0"/>
<circle cx="762" cy="634" r="6" class="c0"/>
<circle cx="1212" cy="506" r="6" class="c0"/>
<circle cx="772" cy="662" r="6" class="c0"/>
<circle cx="722" cy="680" r="6" class="c0"/>
<circle cx="760" cy="1140" r="6" class="c0"/>
<circle cx="1038" cy="434" r="6" class="c0"/>
<circle cx="700" cy="704" r="6" class="c0"/>
<circle cx="920" cy="982" r="6" class="c0"/>
<circle cx="886" cy="892" r="6" class="c0"/>
<circle cx="886" cy="956" r="6" class="c0"/>
<circle cx="972" cy="410" r="6" class="c0"/>
<circle cx="1028" cy="748" r="6" class="c0"/>
<circle cx="1220" cy="590" r="6" class="c0"/>
<circle cx="1170" cy="680" r="6" class="c0"/>
<circle cx="804" cy="1246" r="6" class="c0"/>
<circle cx="1002" cy="692" r="6" class="c0"/>
<circle cx="1022" cy="496" r="6" class="c0"/>
<circle cx="856" cy="1160" r="6" class="c0"/>
<circle cx="932" cy="866" r="6" class="c0"/>
<circle cx="910" cy="1112" r="6" class="c0"/>
</svg>
