<?xml version="1.0" encoding="utf-8"?>
<svg xmlns="http://www.w3.org/2000/svg"
     xmlns:xlink="http://www.w3.org/1999/xlink" width="1920" height="1440" >

            <defs>
            <style type="text/css"><![CDATA[
circle {stroke: none;}
.c0 {fill: #000000;}
]]></style>
            </defs>
<rect x="0" y="0" width="1920" height="1440" fill="white"/>
<circle cx="822" cy="724" r="14" class="c0"/>
<circle cx="974" cy="586" r="12" class="c0"/>
<circle cx="996" cy="1012" r="12" class="c0"/>
<circle cx="908" cy="814" r="12" class="c0"/>
<circle cx="964" cy="786" r="12" class="c0"/>
<circle cx="1200" cy="576" r="12" class="c0"/>
<circle cx="1230" cy="630" r="12" class="c0"/>
<circle cx="908" cy="990" r="12" class="c0"/>
<circle cx="1020" cy="720" r="12" class="c0"/>
<circle cx="1024" cy="998" r="12" class="c0"/>
<circle cx="1202" cy="970" r="12" class="c0"/>
<circle cx="878" cy="850" r="12" class="c0"/>
<circle cx="1042" cy="672" r="12" class="c0"/>
<circle cx="886" cy="892" r="12" class="c0"/>
<circle cx="1046" cy="946" r="12" class="c0"/>
<circle cx="1308" cy="940" r="12" class="c0"/>
<circle cx="1000" cy="744" r="12" class="c0"/>
<circle cx="1054" cy="706" r="12" class="c0"/>
<circle cx="1018" cy="950" r="12" class="c0"/>
<circle cx="1174" cy="614" r="12" class="c0"/>
<circle cx="1262" cy="718" r="12" class="c0"/>
<circle cx="990" cy="904" r="12" class="c0"/>
<circle cx="1044" cy="758" r="12" class="c0"/>
<circle cx="1082" cy="656" r="12" class="c0"/>
<circle cx="1166" cy="898" r="12" class="c0"/>
<circle cx="1304" cy="886" r="12" class="c0"/>
<circle cx="1084" cy="820" r="12" class="c0"/>
<circle cx="1050" cy="796" r="12" class="c0"/>
<circle cx="1106" cy="882" r="12" class="c0"/>
<circle cx="964" cy="1008" r="12" class="c0"/>
<circle cx="936" cy="782" r="12" class="c0"/>
<circle cx="1100" cy="722" r="12" class="c0"/>
<circle cx="1236" cy="934" r="12" class="c0"/>
<circle cx="966" cy="716" r="12" class="c0"/>
<circle cx="968" cy="958" r="10" class="c0"/>
<circle cx="1166" cy="742" r="10" class="c0"/>
<circle cx="1264" cy="848" r="10" class="c0"/>
<circle cx="1326" cy="716" r="10" class="c0"/>
<circle cx="1222" cy="776" r="10" class="c0"/>
<circle cx="1228" cy="734" r="10" class="c0"/>
<circle cx="1348" cy="820" r="10" class="c0"/>
<circle cx="1154" cy="926" r="10" class="c0"/>
<circle cx="932" cy="972" r="10" class="c0"/>
<circle cx="1086" cy="760" r="10" class="c0"/>
<circle cx="1042" cy="1042" r="10" class="c0"/>
<circle cx="1066" cy="918" r="10" class="c0"/>
<circle cx="1014" cy="664" r="10" class="c0"/>
<circle cx="1194" cy="882" r="10" class="c0"/>
<circle cx="1036" cy="908" r="10" class="c0"/>
<circle cx="1148" cy="700" r="10" class="c0"/>
<circle cx="1132" cy="814" r="10" class="c0"/>
<circle cx="1096" cy="622" r="10" class="c0"/>
<circle cx="922" cy="848" r="10" class="c0"/>
<circle cx="1188" cy="758" r="10" class="c0"/>
<circle cx="936" cy="1030" r="10" class="c0"/>
<circle cx="1230" cy="686" r="10" class="c0"/>
<circle cx="1016" cy="596" r="10" class="c0"/>
<circle cx="1142" cy="762" r="10" class="c0"/>
<circle cx="1172" cy="560" r="10" class="c0"/>
<circle cx="1052" cy="856" r="10" class="c0"/>
<circle cx="1266" cy="892" r="10" class="c0"/>
<circle cx="1194" cy="722" r="10" class="c0"/>
<circle cx="960" cy="634" r="10" class="c0"/>
<circle cx="1158" cy="670" r="10" class="c0"/>
<circle cx="1140" cy="562" r="10" class="c0"/>
<circle cx="1090" cy="692" r="10" class="c0"/>
<circle cx="988" cy="788" r="10" class="c0"/>
<circle cx="1146" cy="646" r="10" class="c0"/>
<circle cx="1310" cy="842" r="10" class="c0"/>
<circle cx="1190" cy="806" r="10" class="c0"/>
<circle cx="1328" cy="864" r="10" class="c0"/>
<circle cx="920" cy="736" r="10" class="c0"/>
<circle cx="1066" cy="592" r="10" class="c0"/>
<circle cx="1074" cy="1052" r="10" class="c0"/>
<circle cx="1348" cy="780" r="10" class="c0"/>
<circle cx="986" cy="838" r="10" class="c0"/>
<circle cx="1054" cy="552" r="10" class="c0"/>
<circle cx="982" cy="926" r="10" class="c0"/>
<circle cx="1278" cy="786" r="10" class="c0"/>
<circle cx="950" cy="748" r="10" class="c0"/>
<circle cx="880" cy="624" r="10" class="c0"/>
<circle cx="1102" cy="746" r="10" class="c0"/>
<circle cx="936" cy="704" r="10" class="c0"/>
<circle cx="1166" cy="824" r="10" class="c0"/>
<circle cx="1122" cy="622" r="10" class="c0"/>
<circle cx="912" cy="1018" r="10" class="c0"/>
<circle cx="1188" cy="850" r="10" class="c0"/>
<circle cx="1204" cy="604" r="10" class="c0"/>
<circle cx="1122" cy="1018" r="10" class="c0"/>
<circle cx="1110" cy="528" r="10" class="c0"/>
<circle cx="1264" cy="770" r="10" class="c0"/>
<circle cx="810" cy="844" r="10" class="c0"/>
<circle cx="1200" cy="836" r="10" class="c0"/>
<circle cx="906" cy="924" r="10" class="c0"/>
<circle cx="970" cy="760" r="10" class="c0"/>
<circle cx="1036" cy="578" r="10" class="c0"/>
<circle cx="1204" cy="918" r="10" class="c0"/>
<circle cx="1150" cy="600" r="10" class="c0"/>
<circle cx="1272" cy="820" r="10" class="c0"/>
<circle cx="1202" cy="1028" r="10" class="c0"/>
<circle cx="1302" cy="748" r="10" class="c0"/>
<circle cx="1226" cy="812" r="10" class="c0"/>
<circle cx="1032" cy="810" r="10" class="c0"/>
<circle cx="1244" cy="836" r="10" class="c0"/>
<circle cx="918" cy="906" r="10" class="c0"/>
<circle cx="1022" cy="974" r="10" class="c0"/>
<circle cx="852" cy="834" r="10" class="c0"/>
<circle cx="1186" cy="950" r="10" class="c0"/>
<circle cx="818" cy="752" r="10" class="c0"/>
<circle cx="1078" cy="864" r="10" class="c0"/>
<circle cx="804" cy="810" r="10" class="c0"/>
<circle cx="962" cy="828" r="10" class="c0"/>
<circle cx="1170" cy="768" r="10" class="c0"/>
<circle cx="1068" cy="972" r="10" class="c0"/>
<circle cx="926" cy="588" r="10" class="c0"/>
<circle cx="1224" cy="1012" r="10" class="c0"/>
<circle cx="994" cy="602" r="10" class="c0"/>
<circle cx="1112" cy="988" r="10" class="c0"/>
<circle cx="942" cy="884" r="10" class="c0"/>
<circle cx="1288" cy="838" r="10" class="c0"/>
<circle cx="1216" cy="854" r="10" class="c0"/>
<circle cx="1152" cy="884" r="10" class="c0"/>
<circle cx="926" cy="630" r="10" class="c0"/>
<circle cx="872" cy="968" r="10" class="c0"/>
<circle cx="992" cy="624" r="10" class="c0"/>
<circle cx="850" cy="756" r="10" class="c0"/>
<circle cx="924" cy="672" r="10" class="c0"/>
<circle cx="1228" cy="982" r="10" class="c0"/>
<circle cx="1290" cy="696" r="10" class="c0"/>
<circle cx="1204" cy="656" r="10" class="c0"/>
<circle cx="1054" cy="622" r="10" class="c0"/>
<circle cx="862" cy="652" r="10" class="c0"/>
<circle cx="1280" cy="668" r="10" class="c0"/>
<circle cx="1004" cy="772" r="10" class="c0"/>
<circle cx="1086" cy="1022" r="10" class="c0"/>
<circle cx="892" cy="864" r="10" class="c0"/>
<circle cx="1028" cy="836" r="10" class="c0"/>
<circle cx="954" cy="564" r="10" class="c0"/>
<circle cx="1132" cy="538" r="10" class="c0"/>
<circle cx="868" cy="684" r="10" class="c0"/>
<circle cx="1260" cy="628" r="10" class="c0"/>
<circle cx="1260" cy="996" r="10" class="c0"/>
<circle cx="1284" cy="932" r="10" class="c0"/>
<circle cx="888" cy="798" r="10" class="c0"/>
<circle cx="1110" cy="804" r="10" class="c0"/>
<circle cx="1128" cy="908" r="10" class="c0"/>
<circle cx="976" cy="690" r="10" class="c0"/>
<circle cx="1098" cy="958" r="10" class="c0"/>
<circle cx="942" cy="662" r="10" class="c0"/>
<circle cx="924" cy="874" r="10" class="c0"/>
<circle cx="1042" cy="640" r="10" class="c0"/>
<circle cx="902" cy="760" r="10" class="c0"/>
<circle cx="1248" cy="756" r="10" class="c0"/>
<circle cx="834" cy="902" r="10" class="c0"/>
<circle cx="1226" cy="876" r="10" class="c0"/>
<circle cx="1138" cy="730" r="10" class="c0"/>
<circle cx="1162" cy="968" r="10" class="c0"/>
<circle cx="950" cy="686" r="10" class="c0"/>
<circle cx="878" cy="760" r="8" class="c0"/>
<circle cx="1136" cy="582" r="8" class="c0"/>
<circle cx="1102" cy="856" r="8" class="c0"/>
<circle cx="1104" cy="640" r="8" class="c0"/>
<circle cx="958" cy="856" r="8" class="c0"/>
<circle cx="1018" cy="544" r="8" class="c0"/>
<circle cx="1290" cy="652" r="8" class="c0"/>
<circle cx="886" cy="718" r="8" class="c0"/>
<circle cx="998" cy="850" r="8" class="c0"/>
<circle cx="1132" cy="968" r="8" class="c0"/>
<circle cx="918" cy="956" r="8" class="c0"/>
<circle cx="1098" cy="562" r="8" class="c0"/>
<circle cx="1224" cy="578" r="8" class="c0"/>
<circle cx="984" cy="660" r="8" class="c0"/>
<circle cx="1254" cy="676" r="8" class="c0"/>
<circle cx="1166" cy="1050" r="8" class="c0"/>
<circle cx="1328" cy="756" r="8" class="c0"/>
<circle cx="1190" cy="1014" r="8" class="c0"/>
<circle cx="1128" cy="1038" r="8" class="c0"/>
<circle cx="976" cy="874" r="8" class="c0"/>
<circle cx="938" cy="910" r="8" class="c0"/>
<circle cx="1026" cy="744" r="8" class="c0"/>
<circle cx="1024" cy="682" r="8" class="c0"/>
<circle cx="1152" cy="626" r="8" class="c0"/>
<circle cx="1164" cy="1028" r="8" class="c0"/>
<circle cx="1104" cy="776" r="8" class="c0"/>
<circle cx="1014" cy="882" r="8" class="c0"/>
<circle cx="1056" cy="882" r="8" class="c0"/>
<circle cx="1118" cy="686" r="8" class="c0"/>
<circle cx="862" cy="738" r="8" class="c0"/>
<circle cx="1112" cy="582" r="8" class="c0"/>
<circle cx="1004" cy="564" r="8" class="c0"/>
<circle cx="830" cy="848" r="8" class="c0"/>
<circle cx="1206" cy="698" r="8" class="c0"/>
<circle cx="1018" cy="632" r="8" class="c0"/>
<circle cx="796" cy="832" r="8" class="c0"/>
<circle cx="1244" cy="664" r="8" class="c0"/>
<circle cx="922" cy="768" r="8" class="c0"/>
<circle cx="1272" cy="966" r="8" class="c0"/>
<circle cx="848" cy="884" r="8" class="c0"/>
<circle cx="1078" cy="794" r="8" class="c0"/>
<circle cx="1186" cy="676" r="8" class="c0"/>
<circle cx="1008" cy="818" r="8" class="c0"/>
<circle cx="1228" cy="958" r="8" class="c0"/>
<circle cx="1202" cy="744" r="8" class="c0"/>
<circle cx="1276" cy="750" r="8" class="c0"/>
<circle cx="972" cy="988" r="8" class="c0"/>
<circle cx="1148" cy="852" r="8" class="c0"/>
<circle cx="1110" cy="1034" r="8" class="c0"/>
<circle cx="1022" cy="1048" r="8" class="c0"/>
<circle cx="1264" cy="590" r="8" class="c0"/>
<circle cx="940" cy="930" r="8" class="c0"/>
<circle cx="1148" cy="1000" r="8" class="c0"/>
<circle cx="1232" cy="606" r="8" class="c0"/>
<circle cx="1032" cy="556" r="8" class="c0"/>
<circle cx="968" cy="1038" r="8" class="c0"/>
<circle cx="992" cy="714" r="8" class="c0"/>
<circle cx="1086" cy="596" r="8" class="c0"/>
<circle cx="862" cy="928" r="8" class="c0"/>
<circle cx="1018" cy="862" r="8" class="c0"/>
<circle cx="1290" cy="870" r="8" class="c0"/>
<circle cx="1320" cy="920" r="8" class="c0"/>
<circle cx="1248" cy="866" r="8" class="c0"/>
<circle cx="1148" cy="946" r="8" class="c0"/>
<circle cx="1164" cy="992" r="8" class="c0"/>
<circle cx="946" cy="726" r="8" class="c0"/>
<circle cx="914" cy="690" r="8" class="c0"/>
<circle cx="1340" cy="838" r="8" class="c0"/>
<circle cx="1170" cy="800" r="8" class="c0"/>
<circle cx="1114" cy="760" r="8" class="c0"/>
<circle cx="1310" cy="706" r="8" class="c0"/>
<circle cx="1248" cy="978" r="8" class="c0"/>
<circle cx="1054" cy="740" r="8" class="c0"/>
<circle cx="862" cy="866" r="8" class="c0"/>
<circle cx="984" cy="730" r="8" class="c0"/>
<circle cx="1292" cy="732" r="8" class="c0"/>
<circle cx="844" cy="708" r="8" class="c0"/>
<circle cx="1332" cy="906" r="8" class="c0"/>
<circle cx="1090" cy="1002" r="8" class="c0"/>
<circle cx="1146" cy="1040" r="8" class="c0"/>
<circle cx="1088" cy="898" r="8" class="c0"/>
<circle cx="1264" cy="688" r="8" class="c0"/>
<circle cx="1130" cy="788" r="8" class="c0"/>
<circle cx="1112" cy="840" r="8" class="c0"/>
<circle cx="800" cy="788" r="8" class="c0"/>
<circle cx="854" cy="808" r="8" class="c0"/>
<circle cx="1272" cy="608" r="8" class="c0"/>
<circle cx="1280" cy="630" r="8" class="c0"/>
<circle cx="1178" cy="712" r="8" class="c0"/>
<circle cx="1206" cy="636" r="8" class="c0"/>
<circle cx="1236" cy="710" r="8" class="c0"/>
<circle cx="988" cy="550" r="8" class="c0"/>
<circle cx="986" cy="860" r="8" class="c0"/>
<circle cx="1296" cy="908" r="8" class="c0"/>
<circle cx="1186" cy="992" r="8" class="c0"/>
<circle cx="1250" cy="918" r="8" class="c0"/>
<circle cx="900" cy="608" r="8" class="c0"/>
<circle cx="1324" cy="810" r="8" class="c0"/>
<circle cx="1076" cy="552" r="8" class="c0"/>
<circle cx="1108" cy="606" r="8" class="c0"/>
<circle cx="1096" cy="978" r="8" class="c0"/>
<circle cx="898" cy="706" r="8" class="c0"/>
<circle cx="994" cy="878" r="8" class="c0"/>
<circle cx="1166" cy="942" r="8" class="c0"/>
<circle cx="842" cy="926" r="8" class="c0"/>
<circle cx="1048" cy="980" r="8" class="c0"/>
<circle cx="956" cy="908" r="8" class="c0"/>
<circle cx="1294" cy="798" r="8" class="c0"/>
<circle cx="1076" cy="888" r="8" class="c0"/>
<circle cx="1012" cy="1026" r="8" class="c0"/>
<circle cx="1254" cy="798" r="8" class="c0"/>
<circle cx="1030" cy="614" r="8" class="c0"/>
<circle cx="968" cy="614" r="8" class="c0"/>
<circle cx="1320" cy="740" r="8" class="c0"/>
<circle cx="860" cy="906" r="8" class="c0"/>
<circle cx="998" cy="686" r="8" class="c0"/>
<circle cx="1042" cy="1014" r="8" class="c0"/>
<circle cx="1042" cy="600" r="8" class="c0"/>
<circle cx="1108" cy="550" r="8" class="c0"/>
<circle cx="984" cy="972" r="8" class="c0"/>
<circle cx="1342" cy="800" r="8" class="c0"/>
<circle cx="1124" cy="872" r="8" class="c0"/>
<circle cx="1244" cy="574" r="8" class="c0"/>
<circle cx="1280" cy="990" r="8" class="c0"/>
<circle cx="940" cy="606" r="8" class="c0"/>
<circle cx="1064" cy="522" r="8" class="c0"/>
<circle cx="872" cy="942" r="8" class="c0"/>
<circle cx="1246" cy="886" r="8" class="c0"/>
<circle cx="892" cy="640" r="8" class="c0"/>
<circle cx="1094" cy="928" r="8" class="c0"/>
<circle cx="962" cy="886" r="8" class="c0"/>
<circle cx="1070" cy="838" r="8" class="c0"/>
<circle cx="1174" cy="866" r="8" class="c0"/>
<circle cx="1212" cy="900" r="8" class="c0"/>
<circle cx="1268" cy="946" r="8" class="c0"/>
<circle cx="998" cy="648" r="8" class="c0"/>
<circle cx="1258" cy="650" r="8" class="c0"/>
<circle cx="832" cy="770" r="8" class="c0"/>
<circle cx="820" cy="886" r="8" class="c0"/>
<circle cx="1058" cy="1024" r="8" class="c0"/>
<circle cx="836" cy="690" r="8" class="c0"/>
<circle cx="884" cy="738" r="8" class="c0"/>
<circle cx="910" cy="642" r="8" class="c0"/>
<circle cx="1244" cy="596" r="8" class="c0"/>
<circle cx="912" cy="790" r="8" class="c0"/>
<circle cx="846" cy="856" r="8" class="c0"/>
<circle cx="798" cy="770" r="8" class="c0"/>
<circle cx="1152" cy="782" r="8" class="c0"/>
<circle cx="1008" cy="916" r="8" class="c0"/>
<circle cx="924" cy="826" r="8" class="c0"/>
<circle cx="1124" cy="644" r="8" class="c0"/>
<circle cx="1178" cy="644" r="8" class="c0"/>
<circle cx="884" cy="822" r="8" class="c0"/>
<circle cx="1130" cy="710" r="8" class="c0"/>
<circle cx="1342" cy="890" r="8" class="c0"/>
<circle cx="1224" cy="664" r="8" class="c0"/>
<circle cx="842" cy="948" r="8" class="c0"/>
<circle cx="898" cy="668" r="8" class="c0"/>
<circle cx="1208" cy="998" r="8" class="c0"/>
<circle cx="856" cy="958" r="8" class="c0"/>
<circle cx="1070" cy="682" r="8" class="c0"/>
<circle cx="1038" cy="530" r="8" class="c0"/>
<circle cx="896" cy="950" r="8" class="c0"/>
<circle cx="928" cy="944" r="8" class="c0"/>
<circle cx="996" cy="1038" r="8" class="c0"/>
<circle cx="1058" cy="818" r="8" class="c0"/>
<circle cx="914" cy="714" r="8" class="c0"/>
<circle cx="874" cy="786" r="8" class="c0"/>
<circle cx="1212" cy="792" r="8" class="c0"/>
<circle cx="1004" cy="584" r="8" class="c0"/>
<circle cx="996" cy="938" r="8" class="c0"/>
<circle cx="1024" cy="786" r="8" class="c0"/>
<circle cx="1120" cy="938" r="8" class="c0"/>
<circle cx="1066" cy="570" r="8" class="c0"/>
<circle cx="842" cy="670" r="8" class="c0"/>
<circle cx="970" cy="670" r="8" class="c0"/>
<circle cx="1136" cy="688" r="8" class="c0"/>
<circle cx="828" cy="816" r="8" class="c0"/>
<circle cx="1024" cy="926" r="8" class="c0"/>
<circle cx="1066" cy="776" r="8" class="c0"/>
<circle cx="1178" cy="590" r="8" class="c0"/>
<circle cx="942" cy="820" r="8" class="c0"/>
<circle cx="1140" cy="832" r="8" class="c0"/>
<circle cx="1068" cy="724" r="8" class="c0"/>
<circle cx="1072" cy="996" r="8" class="c0"/>
<circle cx="1144" cy="980" r="8" class="c0"/>
<circle cx="1210" cy="558" r="8" class="c0"/>
<circle cx="1182" cy="926" r="8" class="c0"/>
<circle cx="878" cy="988" r="8" class="c0"/>
<circle cx="826" cy="700" r="8" class="c0"/>
<circle cx="976" cy="804" r="8" class="c0"/>
<circle cx="1108" cy="670" r="8" class="c0"/>
<circle cx="852" cy="776" r="8" class="c0"/>
<circle cx="1308" cy="768" r="8" class="c0"/>
<circle cx="1038" cy="694" r="8" class="c0"/>
<circle cx="1238" cy="904" r="8" class="c0"/>
<circle cx="1076" cy="616" r="8" class="c0"/>
<circle cx="1056" cy="658" r="8" class="c0"/>
<circle cx="1304" cy="684" r="8" class="c0"/>
<circle cx="1008" cy="794" r="8" class="c0"/>
<circle cx="1322" cy="896" r="8" class="c0"/>
<circle cx="1300" cy="816" r="8" class="c0"/>
<circle cx="1160" cy="584" r="8" class="c0"/>
<circle cx="880" cy="916" r="8" class="c0"/>
<circle cx="902" cy="836" r="8" class="c0"/>
<circle cx="1210" cy="762" r="8" class="c0"/>
<circle cx="1156" cy="536" r="8" class="c0"/>
<circle cx="1036" cy="878" r="8" class="c0"/>
<circle cx="1272" cy="912" r="8" class="c0"/>
<circle cx="1120" cy="560" r="8" class="c0"/>
<circle cx="1314" cy="790" r="8" class="c0"/>
<circle cx="1242" cy="780" r="8" class="c0"/>
<circle cx="994" cy="982" r="8" class="c0"/>
<circle cx="1182" cy="782" r="8" class="c0"/>
<circle cx="1180" cy="1036" r="8" class="c0"/>
<circle cx="870" cy="706" r="8" class="c0"/>
<circle cx="836" cy="744" r="8" class="c0"/>
<circle cx="1080" cy="710" r="8" class="c0"/>
<circle cx="1138" cy="666" r="8" class="c0"/>
<circle cx="1206" cy="946" r="8" class="c0"/>
<circle cx="1138" cy="862" r="8" class="c0"/>
<circle cx="1272" cy="868" r="8" class="c0"/>
<circle cx="1078" cy="534" r="8" class="c0"/>
<circle cx="906" cy="966" r="8" class="c0"/>
<circle cx="1288" cy="952" r="8" class="c0"/>
<circle cx="1192" cy="552" r="8" class="c0"/>
<circle cx="954" cy="942" r="8" class="c0"/>
<circle cx="896" cy="728" r="8" class="c0"/>
<circle cx="1324" cy="780" r="8" class="c0"/>
<circle cx="872" cy="876" r="8" class="c0"/>
<circle cx="1048" cy="832" r="8" class="c0"/>
<circle cx="942" cy="992" r="8" class="c0"/>
<circle cx="1244" cy="1006" r="8" class="c0"/>
<circle cx="930" cy="1004" r="8" class="c0"/>
<circle cx="1052" cy="1062" r="8" class="c0"/>
<circle cx="800" cy="862" r="8" class="c0"/>
<circle cx="1066" cy="638" r="8" class="c0"/>
<circle cx="968" cy="738" r="8" class="c0"/>
<circle cx="1074" cy="938" r="8" class="c0"/>
<circle cx="892" cy="1006" r="8" class="c0"/>
<circle cx="1194" cy="624" r="8" class="c0"/>
<circle cx="1082" cy="736" r="8" class="c0"/>
<circle cx="994" cy="962" r="8" class="c0"/>
<circle cx="1108" cy="912" r="8" class="c0"/>
<circle cx="822" cy="786" r="8" class="c0"/>
<circle cx="1190" cy="904" r="8" class="c0"/>
<circle cx="1126" cy="748" r="8" class="c0"/>
<circle cx="1134" cy="990" r="8" class="c0"/>
<circle cx="1290" cy="970" r="8" class="c0"/>
<circle cx="1208" cy="676" r="8" class="c0"/>
<circle cx="1160" cy="724" r="6" class="c0"/>
<circle cx="1100" cy="1066" r="6" class="c0"/>
<circle cx="946" cy="840" r="6" class="c0"/>
<circle cx="1114" cy="1062" r="6" class="c0"/>
<circle cx="882" cy="696" r="6" class="c0"/>
<circle cx="910" cy="888" r="6" class="c0"/>
<circle cx="1266" cy="740" r="6" class="c0"/>
<circle cx="1010" cy="698" r="6" class="c0"/>
<circle cx="1304" cy="960" r="6" class="c0"/>
<circle cx="902" cy="628" r="6" class="c0"/>
<circle cx="1348" cy="872" r="6" class="c0"/>
<circle cx="1044" cy="892" r="6" class="c0"/>
<circle cx="1018" cy="898" r="6" class="c0"/>
<circle cx="1094" cy="838" r="6" class="c0"/>
<circle cx="1298" cy="856" r="6" class="c0"/>
<circle cx="1338" cy="730" r="6" class="c0"/>
<circle cx="1348" cy="852" r="6" class="c0"/>
<circle cx="996" cy="804" r="6" class="c0"/>
<circle cx="1284" cy="766" r="6" class="c0"/>
<circle cx="1006" cy="1050" r="6" class="c0"/>
<circle cx="1108" cy="1006" r="6" class="c0"/>
<circle cx="1178" cy="730" r="6" class="c0"/>
<circle cx="1168" cy="844" r="6" class="c0"/>
<circle cx="1034" cy="1058" r="6" class="c0"/>
<circle cx="1176" cy="980" r="6" class="c0"/>
<circle cx="1056" cy="994" r="6" class="c0"/>
<circle cx="896" cy="782" r="6" class="c0"/>
<circle cx="806" cy="878" r="6" class="c0"/>
<circle cx="1218" cy="594" r="6" class="c0"/>
<circle cx="1066" cy="756" r="6" class="c0"/>
<circle cx="1256" cy="960" r="6" class="c0"/>
<circle cx="894" cy="688" r="6" class="c0"/>
<circle cx="1168" cy="656" r="6" class="c0"/>
<circle cx="888" cy="934" r="6" class="c0"/>
<circle cx="854" cy="720" r="6" class="c0"/>
<circle cx="1180" cy="692" r="6" class="c0"/>
<circle cx="1022" cy="762" r="6" class="c0"/>
<circle cx="880" cy="654" r="6" class="c0"/>
<circle cx="1146" cy="800" r="6" class="c0"/>
<circle cx="1124" cy="602" r="6" class="c0"/>
<circle cx="1246" cy="694" r="6" class="c0"/>
<circle cx="1218" cy="748" r="6" class="c0"/>
<circle cx="1230" cy="758" r="6" class="c0"/>
<circle cx="948" cy="798" r="6" class="c0"/>
<circle cx="1148" cy="1060" r="6" class="c0"/>
<circle cx="940" cy="860" r="6" class="c0"/>
<circle cx="864" cy="796" r="6" class="c0"/>
<circle cx="1266" cy="928" r="6" class="c0"/>
<circle cx="986" cy="676" r="6" class="c0"/>
<circle cx="958" cy="924" r="6" class="c0"/>
<circle cx="940" cy="762" r="6" class="c0"/>
<circle cx="986" cy="818" r="6" class="c0"/>
<circle cx="1086" cy="1064" r="6" class="c0"/>
<circle cx="1096" cy="1052" r="6" class="c0"/>
<circle cx="930" cy="810" r="6" class="c0"/>
<circle cx="1014" cy="846" r="6" class="c0"/>
<circle cx="1152" cy="1018" r="6" class="c0"/>
<circle cx="1120" cy="732" r="6" class="c0"/>
<circle cx="1086" cy="574" r="6" class="c0"/>
<circle cx="986" cy="948" r="6" class="c0"/>
<circle cx="1330" cy="826" r="6" class="c0"/>
<circle cx="1284" cy="890" r="6" class="c0"/>
<circle cx="1034" cy="860" r="6" class="c0"/>
<circle cx="1162" cy="1010" r="6" class="c0"/>
<circle cx="1222" cy="914" r="6" class="c0"/>
<circle cx="1292" cy="714" r="6" class="c0"/>
<circle cx="946" cy="586" r="6" class="c0"/>
<circle cx="1188" cy="700" r="6" class="c0"/>
<circle cx="1094" cy="1038" r="6" class="c0"/>
<circle cx="888" cy="978" r="6" class="c0"/>
<circle cx="950" cy="1020" r="6" class="c0"/>
<circle cx="886" cy="774" r="6" class="c0"/>
<circle cx="1350" cy="760" r="6" class="c0"/>
<circle cx="1128" cy="848" r="6" class="c0"/>
<circle cx="1190" cy="1046" r="6" class="c0"/>
<circle cx="1226" cy="1032" r="6" class="c0"/>
<circle cx="994" cy="574" r="6" class="c0"/>
<circle cx="960" cy="974" r="6" class="c0"/>
<circle cx="900" cy="880" r="6" class="c0"/>
<circle cx="968" cy="552" r="6" class="c0"/>
<circle cx="1298" cy="666" r="6" class="c0"/>
<circle cx="1244" cy="954" r="6" class="c0"/>
<circle cx="930" cy="648" r="6" class="c0"/>
<circle cx="1116" cy="964" r="6" class="c0"/>
<circle cx="1154" cy="810" r="6" class="c0"/>
<circle cx="1210" cy="820" r="6" class="c0"/>
<circle cx="1320" cy="692" r="6" class="c0"/>
<circle cx="1086" cy="914" r="6" class="c0"/>
<circle cx="930" cy="750" r="6" class="c0"/>
<circle cx="1290" cy="614" r="6" class="c0"/>
<circle cx="824" cy="918" r="6" class="c0"/>
<circle cx="1086" cy="520" r="6" class="c0"/>
<circle cx="946" cy="644" r="6" class="c0"/>
<circle cx="1216" cy="936" r="6" class="c0"/>
<circle cx="948" cy="958" r="6" class="c0"/>
<circle cx="1054" cy="902" r="6" class="c0"/>
<circle cx="930" cy="722" r="6" class="c0"/>
<circle cx="1120" cy="856" r="6" class="c0"/>
<circle cx="868" cy="722" r="6" class="c0"/>
<circle cx="1096" cy="790" r="6" class="c0"/>
<circle cx="914" cy="658" r="6" class="c0"/>
<circle cx="1128" cy="1058" r="6" class="c0"/>
<circle cx="948" cy="622" r="6" class="c0"/>
<circle cx="1028" cy="1022" r="6" class="c0"/>
<circle cx="1048" cy="920" r="6" class="c0"/>
<circle cx="1176" cy="666" r="6" class="c0"/>
<circle cx="982" cy="642" r="6" class="c0"/>
<circle cx="1248" cy="736" r="6" class="c0"/>
<circle cx="984" cy="998" r="6" class="c0"/>
<circle cx="1198" cy="780" r="6" class="c0"/>
<circle cx="822" cy="862" r="6" class="c0"/>
<circle cx="834" cy="870" r="6" class="c0"/>
<circle cx="1246" cy="816" r="6" class="c0"/>
<circle cx="1130" cy="928" r="6" class="c0"/>
<circle cx="1110" cy="700" r="6" class="c0"/>
<circle cx="1084" cy="948" r="6" class="c0"/>
<circle cx="1012" cy="616" r="6" class="c0"/>
<circle cx="900" cy="904" r="6" class="c0"/>
<circle cx="1138" cy="936" r="6" class="c0"/>
<circle cx="1222" cy="702" r="6" class="c0"/>
<circle cx="998" cy="540" r="6" class="c0"/>
<circle cx="1246" cy="614" r="6" class="c0"/>
<circle cx="1214" cy="1042" r="6" class="c0"/>
<circle cx="804" cy="738" r="6" class="c0"/>
<circle cx="844" cy="792" r="6" class="c0"/>
<circle cx="1330" cy="936" r="6" class="c0"/>
<circle cx="966" cy="652" r="6" class="c0"/>
<circle cx="1214" cy="712" r="6" class="c0"/>
<circle cx="1218" cy="614" r="6" class="c0"/>
<circle cx="1262" cy="1014" r="6" class="c0"/>
<circle cx="958" cy="808" r="6" class="c0"/>
<circle cx="1020" cy="568" r="6" class="c0"/>
<circle cx="978" cy="566" r="6" class="c0"/>
<circle cx="986" cy="1050" r="6" class="c0"/>
<circle cx="1226" cy="562" r="6" class="c0"/>
<circle cx="1136" cy="892" r="6" class="c0"/>
<circle cx="874" cy="808" r="6" class="c0"/>
<circle cx="856" cy="978" r="6" class="c0"/>
<circle cx="1040" cy="722" r="6" class="c0"/>
<circle cx="1146" cy="910" r="6" class="c0"/>
<circle cx="1092" cy="672" r="6" class="c0"/>
<circle cx="860" cy="634" r="6" class="c0"/>
<circle cx="1136" cy="632" r="6" class="c0"/>
<circle cx="1036" cy="962" r="6" class="c0"/>
<circle cx="1296" cy="780" r="6" class="c0"/>
<circle cx="876" cy="668" r="6" class="c0"/>
<circle cx="980" cy="1026" r="6" class="c0"/>
<circle cx="1004" cy="834" r="6" class="c0"/>
<circle cx="1218" cy="646" r="6" class="c0"/>
<circle cx="1070" cy="1014" r="6" class="c0"/>
<circle cx="918" cy="604" r="6" class="c0"/>
<circle cx="954" cy="872" r="6" class="c0"/>
<circle cx="956" cy="602" r="6" class="c0"/>
<circle cx="1030" cy="770" r="6" class="c0"/>
<circle cx="1122" cy="828" r="6" class="c0"/>
<circle cx="1086" cy="848" r="6" class="c0"/>
<circle cx="834" cy="800" r="6" class="c0"/>
<circle cx="1066" cy="952" r="6" class="c0"/>
<circle cx="1222" cy="836" r="6" class="c0"/>
<circle cx="1234" cy="652" r="6" class="c0"/>
<circle cx="1238" cy="800" r="6" class="c0"/>
<circle cx="1104" cy="822" r="6" class="c0"/>
<circle cx="904" cy="852" r="6" class="c0"/>
<circle cx="1162" cy="638" r="6" class="c0"/>
<circle cx="1082" cy="986" r="6" class="c0"/>
<circle cx="1086" cy="636" r="6" class="c0"/>
<circle cx="904" cy="592" r="6" class="c0"/>
<circle cx="1200" cy="864" r="6" class="c0"/>
<circle cx="864" cy="822" r="6" class="c0"/>
<circle cx="814" cy="870" r="6" class="c0"/>
<circle cx="1276" cy="730" r="6" class="c0"/>
<circle cx="1118" cy="660" r="6" class="c0"/>
<circle cx="1172" cy="540" r="6" class="c0"/>
<circle cx="1212" cy="726" r="6" class="c0"/>
<circle cx="1166" cy="698" r="6" class="c0"/>
<circle cx="1312" cy="906" r="6" class="c0"/>
<circle cx="1126" cy="772" r="6" class="c0"/>
<circle cx="1276" cy="706" r="6" class="c0"/>
<circle cx="932" cy="570" r="6" class="c0"/>
<circle cx="1030" cy="654" r="6" class="c0"/>
<circle cx="1138" cy="1010" r="6" class="c0"/>
<circle cx="846" cy="728" r="6" class="c0"/>
<circle cx="1344" cy="748" r="6" class="c0"/>
<circle cx="926" cy="922" r="6" class="c0"/>
<circle cx="822" cy="832" r="6" class="c0"/>
<circle cx="910" cy="620" r="6" class="c0"/>
<circle cx="1062" cy="1006" r="6" class="c0"/>
<circle cx="1242" cy="644" r="6" class="c0"/>
<circle cx="1238" cy="968" r="6" class="c0"/>
<circle cx="1140" cy="1024" r="6" class="c0"/>
<circle cx="1328" cy="682" r="6" class="c0"/>
<circle cx="1068" cy="804" r="6" class="c0"/>
<circle cx="1240" cy="1022" r="6" class="c0"/>
<circle cx="1310" cy="724" r="6" class="c0"/>
<circle cx="886" cy="678" r="6" class="c0"/>
<circle cx="1174" cy="1016" r="6" class="c0"/>
<circle cx="1230" cy="792" r="6" class="c0"/>
<circle cx="868" cy="770" r="6" class="c0"/>
<circle cx="1062" cy="1040" r="6" class="c0"/>
<circle cx="1238" cy="854" r="6" class="c0"/>
<circle cx="1094" cy="542" r="6" class="c0"/>
<circle cx="910" cy="942" r="6" class="c0"/>
<circle cx="1054" cy="532" r="6" class="c0"/>
<circle cx="814" cy="772" r="6" class="c0"/>
<circle cx="1282" cy="856" r="6" class="c0"/>
<circle cx="1196" cy="688" r="6" class="c0"/>
<circle cx="1186" cy="826" r="6" class="c0"/>
<circle cx="1186" cy="658" r="6" class="c0"/>
<circle cx="1274" cy="646" r="6" class="c0"/>
<circle cx="970" cy="938" r="6" class="c0"/>
<circle cx="952" cy="982" r="6" class="c0"/>
<circle cx="1186" cy="738" r="6" class="c0"/>
<circle cx="1124" cy="1000" r="6" class="c0"/>
<circle cx="952" cy="1040" r="6" class="c0"/>
<circle cx="970" cy="900" r="6" class="c0"/>
<circle cx="1096" cy="586" r="6" class="c0"/>
<circle cx="922" cy="800" r="6" class="c0"/>
<circle cx="988" cy="762" r="6" class="c0"/>
<circle cx="1172" cy="684" r="6" class="c0"/>
<circle cx="1142" cy="616" r="6" class="c0"/>
<circle cx="1004" cy="992" r="6" class="c0"/>
<circle cx="1196" cy="934" r="6" class="c0"/>
<circle cx="1156" cy="866" r="6" class="c0"/>
<circle cx="1306" cy="864" r="6" class="c0"/>
<circle cx="1176" cy="1002" r="6" class="c0"/>
<circle cx="954" cy="768" r="6" class="c0"/>
<circle cx="1228" cy="894" r="6" class="c0"/>
<circle cx="1338" cy="766" r="6" class="c0"/>
<circle cx="1130" cy="950" r="6" class="c0"/>
<circle cx="1336" cy="922" r="6" class="c0"/>
<circle cx="1284" cy="808" r="6" class="c0"/>
<circle cx="1156" cy="838" r="6" class="c0"/>
<circle cx="1004" cy="972" r="6" class="c0"/>
<circle cx="1318" cy="958" r="6" class="c0"/>
</svg>
