<?xml version="1.0" encoding="utf-8"?>
<svg xmlns="http://www.w3.org/2000/svg"
     xmlns:xlink="http://www.w3.org/1999/xlink" width="1920" height="1440" >

            <defs>
            <style type="text/css"><![CDATA[
circle {stroke: none;}
.c0 {fill: #000000;}
]]></style>
            </defs>
<rect x="0" y="0" width="1920" height="1440" fill="white"/>
<circle cx="1038" cy="770" r="14" class="c0"/>
<circle cx="960" cy="36" r="14" class="c0"/>
<circle cx="1218" cy="716" r="12" class="c0"/>
<circle cx="996" cy="1010" r="12" class="c0"/>
<circle cx="1292" cy="796" r="12" class="c0"/>
<circle cx="1644" cy="44" r="12" class="c0"/>
<circle cx="1044" cy="800" r="12" class="c0"/>
<circle cx="1076" cy="640" r="12" class="c0"/>
<circle cx="1076" cy="42" r="12" class="c0"/>
<circle cx="832" cy="924" r="12" class="c0"/>
<circle cx="1006" cy="750" r="12" class="c0"/>
<circle cx="1196" cy="684" r="12" class="c0"/>
<circle cx="1788" cy="38" r="12" class="c0"/>
<circle cx="1118" cy="560" r="12" class="c0"/>
<circle cx="924" cy="754" r="12" class="c0"/>
<circle cx="962" cy="1014" r="12" class="c0"/>
<circle cx="1658" cy="88" r="12" class="c0"/>
<circle cx="1110" cy="654" r="12" class="c0"/>
<circle cx="1170" cy="672" r="12" class="c0"/>
<circle cx="1236" cy="934" r="12" class="c0"/>
<circle cx="836" cy="878" r="12" class="c0"/>
<circle cx="1874" cy="76" r="12" class="c0"/>
<circle cx="976" cy="574" r="12" class="c0"/>
<circle cx="932" cy="602" r="12" class="c0"/>
<circle cx="836" cy="688" r="12" class="c0"/>
<circle cx="1008" cy="968" r="12" class="c0"/>
<circle cx="1520" cy="24" r="12" class="c0"/>
<circle cx="1084" cy="766" r="12" class="c0"/>
<circle cx="1120" cy="1046" r="12" class="c0"/>
<circle cx="1386" cy="20" r="12" class="c0"/>
<circle cx="1248" cy="908" r="12" class="c0"/>
<circle cx="1124" cy="950" r="12" class="c0"/>
<circle cx="890" cy="752" r="12" class="c0"/>
<circle cx="1044" cy="716" r="12" class="c0"/>
<circle cx="1098" cy="622" r="12" class="c0"/>
<circle cx="1042" cy="652" r="12" class="c0"/>
<circle cx="1738" cy="54" r="12" class="c0"/>
<circle cx="898" cy="826" r="12" class="c0"/>
<circle cx="1142" cy="976" r="12" class="c0"/>
<circle cx="904" cy="1010" r="12" class="c0"/>
<circle cx="1148" cy="796" r="12" class="c0"/>
<circle cx="860" cy="812" r="12" class="c0"/>
<circle cx="1106" cy="60" r="12" class="c0"/>
<circle cx="924" cy="980" r="12" class="c0"/>
<circle cx="1228" cy="964" r="12" class="c0"/>
<circle cx="1208" cy="872" r="12" class="c0"/>
<circle cx="1700" cy="30" r="12" class="c0"/>
<circle cx="958" cy="632" r="12" class="c0"/>
<circle cx="1024" cy="590" r="12" class="c0"/>
<circle cx="926" cy="70" r="12" class="c0"/>
<circle cx="1266" cy="652" r="12" class="c0"/>
<circle cx="950" cy="776" r="12" class="c0"/>
<circle cx="1164" cy="846" r="12" class="c0"/>
<circle cx="1232" cy="618" r="12" class="c0"/>
<circle cx="1290" cy="906" r="12" class="c0"/>
<circle cx="1854" cy="18" r="12" class="c0"/>
<circle cx="1546" cy="74" r="12" class="c0"/>
<circle cx="1098" cy="16" r="12" class="c0"/>
<circle cx="1202" cy="600" r="12" class="c0"/>
<circle cx="1034" cy="902" r="12" class="c0"/>
<circle cx="986" cy="716" r="12" class="c0"/>
<circle cx="938" cy="812" r="12" class="c0"/>
<circle cx="1142" cy="862" r="12" class="c0"/>
<circle cx="1264" cy="722" r="12" class="c0"/>
<circle cx="1206" cy="810" r="10" class="c0"/>
<circle cx="1284" cy="638" r="10" class="c0"/>
<circle cx="1150" cy="938" r="10" class="c0"/>
<circle cx="1100" cy="1012" r="10" class="c0"/>
<circle cx="1806" cy="90" r="10" class="c0"/>
<circle cx="1040" cy="994" r="10" class="c0"/>
<circle cx="1236" cy="40" r="10" class="c0"/>
<circle cx="1690" cy="52" r="10" class="c0"/>
<circle cx="982" cy="768" r="10" class="c0"/>
<circle cx="1124" cy="830" r="10" class="c0"/>
<circle cx="914" cy="872" r="10" class="c0"/>
<circle cx="1334" cy="12" r="10" class="c0"/>
<circle cx="1308" cy="64" r="10" class="c0"/>
<circle cx="1126" cy="910" r="10" class="c0"/>
<circle cx="906" cy="674" r="10" class="c0"/>
<circle cx="1004" cy="806" r="10" class="c0"/>
<circle cx="1276" cy="696" r="10" class="c0"/>
<circle cx="858" cy="642" r="10" class="c0"/>
<circle cx="1326" cy="830" r="10" class="c0"/>
<circle cx="800" cy="782" r="10" class="c0"/>
<circle cx="1082" cy="878" r="10" class="c0"/>
<circle cx="1328" cy="728" r="10" class="c0"/>
<circle cx="826" cy="856" r="10" class="c0"/>
<circle cx="1180" cy="878" r="10" class="c0"/>
<circle cx="1266" cy="26" r="10" class="c0"/>
<circle cx="970" cy="874" r="10" class="c0"/>
<circle cx="938" cy="694" r="10" class="c0"/>
<circle cx="1706" cy="74" r="10" class="c0"/>
<circle cx="970" cy="744" r="10" class="c0"/>
<circle cx="876" cy="658" r="10" class="c0"/>
<circle cx="1184" cy="704" r="10" class="c0"/>
<circle cx="982" cy="648" r="10" class="c0"/>
<circle cx="944" cy="1028" r="10" class="c0"/>
<circle cx="1232" cy="734" r="10" class="c0"/>
<circle cx="1344" cy="44" r="10" class="c0"/>
<circle cx="1502" cy="74" r="10" class="c0"/>
<circle cx="1250" cy="858" r="10" class="c0"/>
<circle cx="876" cy="850" r="10" class="c0"/>
<circle cx="1182" cy="574" r="10" class="c0"/>
<circle cx="1076" cy="1058" r="10" class="c0"/>
<circle cx="1316" cy="32" r="10" class="c0"/>
<circle cx="910" cy="726" r="10" class="c0"/>
<circle cx="1836" cy="52" r="10" class="c0"/>
<circle cx="1036" cy="684" r="10" class="c0"/>
<circle cx="968" cy="932" r="10" class="c0"/>
<circle cx="960" cy="1042" r="10" class="c0"/>
<circle cx="1258" cy="54" r="10" class="c0"/>
<circle cx="966" cy="690" r="10" class="c0"/>
<circle cx="1218" cy="674" r="10" class="c0"/>
<circle cx="1876" cy="30" r="10" class="c0"/>
<circle cx="982" cy="1036" r="10" class="c0"/>
<circle cx="1010" cy="1042" r="10" class="c0"/>
<circle cx="824" cy="902" r="10" class="c0"/>
<circle cx="866" cy="878" r="10" class="c0"/>
<circle cx="888" cy="602" r="10" class="c0"/>
<circle cx="932" cy="636" r="10" class="c0"/>
<circle cx="966" cy="842" r="10" class="c0"/>
<circle cx="888" cy="950" r="10" class="c0"/>
<circle cx="1570" cy="60" r="10" class="c0"/>
<circle cx="928" cy="836" r="10" class="c0"/>
<circle cx="1068" cy="922" r="10" class="c0"/>
<circle cx="1098" cy="704" r="10" class="c0"/>
<circle cx="1302" cy="670" r="10" class="c0"/>
<circle cx="1240" cy="824" r="10" class="c0"/>
<circle cx="1164" cy="992" r="10" class="c0"/>
<circle cx="1558" cy="36" r="10" class="c0"/>
<circle cx="1044" cy="610" r="10" class="c0"/>
<circle cx="1066" cy="20" r="10" class="c0"/>
<circle cx="1054" cy="34" r="10" class="c0"/>
<circle cx="834" cy="656" r="10" class="c0"/>
<circle cx="1058" cy="692" r="10" class="c0"/>
<circle cx="1314" cy="766" r="10" class="c0"/>
<circle cx="1032" cy="942" r="10" class="c0"/>
<circle cx="1180" cy="632" r="10" class="c0"/>
<circle cx="1112" cy="926" r="10" class="c0"/>
<circle cx="998" cy="44" r="10" class="c0"/>
<circle cx="1044" cy="1042" r="10" class="c0"/>
<circle cx="870" cy="970" r="10" class="c0"/>
<circle cx="1436" cy="18" r="10" class="c0"/>
<circle cx="936" cy="882" r="10" class="c0"/>
<circle cx="976" cy="544" r="10" class="c0"/>
<circle cx="1268" cy="948" r="10" class="c0"/>
<circle cx="950" cy="962" r="10" class="c0"/>
<circle cx="1300" cy="820" r="10" class="c0"/>
<circle cx="1196" cy="754" r="10" class="c0"/>
<circle cx="1244" cy="692" r="10" class="c0"/>
<circle cx="792" cy="24" r="10" class="c0"/>
<circle cx="1256" cy="620" r="10" class="c0"/>
<circle cx="902" cy="26" r="10" class="c0"/>
<circle cx="1036" cy="738" r="10" class="c0"/>
<circle cx="1194" cy="936" r="10" class="c0"/>
<circle cx="1074" cy="848" r="10" class="c0"/>
<circle cx="1164" cy="724" r="10" class="c0"/>
<circle cx="948" cy="740" r="10" class="c0"/>
<circle cx="866" cy="614" r="10" class="c0"/>
<circle cx="978" cy="966" r="10" class="c0"/>
<circle cx="904" cy="936" r="10" class="c0"/>
<circle cx="1852" cy="66" r="10" class="c0"/>
<circle cx="1752" cy="78" r="10" class="c0"/>
<circle cx="858" cy="908" r="10" class="c0"/>
<circle cx="1774" cy="58" r="10" class="c0"/>
<circle cx="1084" cy="974" r="10" class="c0"/>
<circle cx="940" cy="566" r="10" class="c0"/>
<circle cx="810" cy="722" r="10" class="c0"/>
<circle cx="1014" cy="1078" r="10" class="c0"/>
<circle cx="1156" cy="1044" r="10" class="c0"/>
<circle cx="1112" cy="864" r="10" class="c0"/>
<circle cx="1070" cy="788" r="10" class="c0"/>
<circle cx="846" cy="848" r="10" class="c0"/>
<circle cx="978" cy="990" r="10" class="c0"/>
<circle cx="1278" cy="774" r="10" class="c0"/>
<circle cx="1168" cy="746" r="10" class="c0"/>
<circle cx="952" cy="666" r="10" class="c0"/>
<circle cx="810" cy="874" r="10" class="c0"/>
<circle cx="1102" cy="780" r="10" class="c0"/>
<circle cx="1814" cy="46" r="10" class="c0"/>
<circle cx="1000" cy="782" r="10" class="c0"/>
<circle cx="1052" cy="972" r="10" class="c0"/>
<circle cx="1600" cy="54" r="10" class="c0"/>
<circle cx="1376" cy="50" r="10" class="c0"/>
<circle cx="1434" cy="62" r="10" class="c0"/>
<circle cx="1622" cy="22" r="10" class="c0"/>
<circle cx="1544" cy="48" r="10" class="c0"/>
<circle cx="1110" cy="894" r="10" class="c0"/>
<circle cx="1152" cy="16" r="10" class="c0"/>
<circle cx="1050" cy="548" r="10" class="c0"/>
<circle cx="1192" cy="988" r="10" class="c0"/>
<circle cx="1094" cy="554" r="10" class="c0"/>
<circle cx="910" cy="898" r="10" class="c0"/>
<circle cx="1070" cy="996" r="10" class="c0"/>
<circle cx="1840" cy="88" r="10" class="c0"/>
<circle cx="1230" cy="884" r="10" class="c0"/>
<circle cx="1242" cy="760" r="10" class="c0"/>
<circle cx="1210" cy="848" r="10" class="c0"/>
<circle cx="1144" cy="574" r="10" class="c0"/>
<circle cx="854" cy="700" r="10" class="c0"/>
<circle cx="1124" cy="758" r="10" class="c0"/>
<circle cx="1124" cy="720" r="10" class="c0"/>
<circle cx="958" cy="898" r="10" class="c0"/>
<circle cx="966" cy="814" r="10" class="c0"/>
<circle cx="1114" cy="600" r="10" class="c0"/>
<circle cx="1802" cy="16" r="10" class="c0"/>
<circle cx="1170" cy="964" r="10" class="c0"/>
<circle cx="1012" cy="654" r="10" class="c0"/>
<circle cx="1052" cy="876" r="10" class="c0"/>
<circle cx="910" cy="798" r="10" class="c0"/>
<circle cx="1004" cy="852" r="10" class="c0"/>
<circle cx="834" cy="30" r="10" class="c0"/>
<circle cx="1196" cy="778" r="10" class="c0"/>
<circle cx="1274" cy="806" r="8" class="c0"/>
<circle cx="856" cy="784" r="8" class="c0"/>
<circle cx="1202" cy="1008" r="8" class="c0"/>
<circle cx="1018" cy="1000" r="8" class="c0"/>
<circle cx="1184" cy="34" r="8" class="c0"/>
<circle cx="1174" cy="898" r="8" class="c0"/>
<circle cx="1334" cy="796" r="8" class="c0"/>
<circle cx="1198" cy="724" r="8" class="c0"/>
<circle cx="910" cy="956" r="8" class="c0"/>
<circle cx="996" cy="924" r="8" class="c0"/>
<circle cx="1016" cy="612" r="8" class="c0"/>
<circle cx="1064" cy="942" r="8" class="c0"/>
<circle cx="1180" cy="818" r="8" class="c0"/>
<circle cx="580" cy="26" r="8" class="c0"/>
<circle cx="1086" cy="716" r="8" class="c0"/>
<circle cx="916" cy="582" r="8" class="c0"/>
<circle cx="876" cy="22" r="8" class="c0"/>
<circle cx="1214" cy="764" r="8" class="c0"/>
<circle cx="1200" cy="24" r="8" class="c0"/>
<circle cx="1016" cy="706" r="8" class="c0"/>
<circle cx="1224" cy="784" r="8" class="c0"/>
<circle cx="1146" cy="762" r="8" class="c0"/>
<circle cx="1140" cy="1032" r="8" class="c0"/>
<circle cx="1048" cy="1062" r="8" class="c0"/>
<circle cx="858" cy="930" r="8" class="c0"/>
<circle cx="1086" cy="930" r="8" class="c0"/>
<circle cx="1278" cy="10" r="8" class="c0"/>
<circle cx="866" cy="946" r="8" class="c0"/>
<circle cx="1094" cy="1040" r="8" class="c0"/>
<circle cx="1152" cy="1016" r="8" class="c0"/>
<circle cx="1482" cy="16" r="8" class="c0"/>
<circle cx="792" cy="800" r="8" class="c0"/>
<circle cx="1110" cy="744" r="8" class="c0"/>
<circle cx="1894" cy="52" r="8" class="c0"/>
<circle cx="1266" cy="786" r="8" class="c0"/>
<circle cx="862" cy="738" r="8" class="c0"/>
<circle cx="1516" cy="60" r="8" class="c0"/>
<circle cx="1294" cy="48" r="8" class="c0"/>
<circle cx="1128" cy="586" r="8" class="c0"/>
<circle cx="1006" cy="892" r="8" class="c0"/>
<circle cx="1004" cy="24" r="8" class="c0"/>
<circle cx="1054" cy="828" r="8" class="c0"/>
<circle cx="1302" cy="720" r="8" class="c0"/>
<circle cx="1578" cy="24" r="8" class="c0"/>
<circle cx="922" cy="1038" r="8" class="c0"/>
<circle cx="1274" cy="832" r="8" class="c0"/>
<circle cx="1138" cy="650" r="8" class="c0"/>
<circle cx="950" cy="714" r="8" class="c0"/>
<circle cx="1164" cy="776" r="8" class="c0"/>
<circle cx="1178" cy="766" r="8" class="c0"/>
<circle cx="1148" cy="834" r="8" class="c0"/>
<circle cx="1244" cy="798" r="8" class="c0"/>
<circle cx="1632" cy="72" r="8" class="c0"/>
<circle cx="858" cy="680" r="8" class="c0"/>
<circle cx="938" cy="946" r="8" class="c0"/>
<circle cx="1298" cy="740" r="8" class="c0"/>
<circle cx="988" cy="606" r="8" class="c0"/>
<circle cx="832" cy="952" r="8" class="c0"/>
<circle cx="1068" cy="750" r="8" class="c0"/>
<circle cx="996" cy="904" r="8" class="c0"/>
<circle cx="1270" cy="882" r="8" class="c0"/>
<circle cx="1318" cy="712" r="8" class="c0"/>
<circle cx="956" cy="600" r="8" class="c0"/>
<circle cx="824" cy="710" r="8" class="c0"/>
<circle cx="1132" cy="36" r="8" class="c0"/>
<circle cx="1120" cy="624" r="8" class="c0"/>
<circle cx="960" cy="8" r="8" class="c0"/>
<circle cx="992" cy="832" r="8" class="c0"/>
<circle cx="1060" cy="732" r="8" class="c0"/>
<circle cx="888" cy="8" r="8" class="c0"/>
<circle cx="888" cy="710" r="8" class="c0"/>
<circle cx="924" cy="926" r="8" class="c0"/>
<circle cx="1454" cy="34" r="8" class="c0"/>
<circle cx="978" cy="894" r="8" class="c0"/>
<circle cx="918" cy="700" r="8" class="c0"/>
<circle cx="1176" cy="1004" r="8" class="c0"/>
<circle cx="1806" cy="66" r="8" class="c0"/>
<circle cx="1152" cy="58" r="8" class="c0"/>
<circle cx="998" cy="1060" r="8" class="c0"/>
<circle cx="834" cy="784" r="8" class="c0"/>
<circle cx="872" cy="794" r="8" class="c0"/>
<circle cx="1548" cy="20" r="8" class="c0"/>
<circle cx="1218" cy="900" r="8" class="c0"/>
<circle cx="1062" cy="596" r="8" class="c0"/>
<circle cx="1602" cy="76" r="8" class="c0"/>
<circle cx="1386" cy="66" r="8" class="c0"/>
<circle cx="1156" cy="896" r="8" class="c0"/>
<circle cx="1058" cy="576" r="8" class="c0"/>
<circle cx="1110" cy="986" r="8" class="c0"/>
<circle cx="880" cy="1004" r="8" class="c0"/>
<circle cx="1120" cy="688" r="8" class="c0"/>
<circle cx="1002" cy="630" r="8" class="c0"/>
<circle cx="1190" cy="12" r="8" class="c0"/>
<circle cx="1198" cy="828" r="8" class="c0"/>
<circle cx="1360" cy="34" r="8" class="c0"/>
<circle cx="1906" cy="80" r="8" class="c0"/>
<circle cx="916" cy="648" r="8" class="c0"/>
<circle cx="1330" cy="748" r="8" class="c0"/>
<circle cx="1146" cy="696" r="8" class="c0"/>
<circle cx="1058" cy="664" r="8" class="c0"/>
<circle cx="1196" cy="904" r="8" class="c0"/>
<circle cx="1172" cy="926" r="8" class="c0"/>
<circle cx="828" cy="804" r="8" class="c0"/>
<circle cx="1092" cy="806" r="8" class="c0"/>
<circle cx="816" cy="748" r="8" class="c0"/>
<circle cx="1286" cy="870" r="8" class="c0"/>
<circle cx="1090" cy="584" r="8" class="c0"/>
<circle cx="1658" cy="16" r="8" class="c0"/>
<circle cx="1034" cy="1026" r="8" class="c0"/>
<circle cx="1174" cy="20" r="8" class="c0"/>
<circle cx="1488" cy="36" r="8" class="c0"/>
<circle cx="884" cy="686" r="8" class="c0"/>
<circle cx="1690" cy="10" r="8" class="c0"/>
<circle cx="1198" cy="656" r="8" class="c0"/>
<circle cx="1200" cy="636" r="8" class="c0"/>
<circle cx="882" cy="928" r="8" class="c0"/>
<circle cx="1124" cy="782" r="8" class="c0"/>
<circle cx="1280" cy="934" r="8" class="c0"/>
<circle cx="934" cy="1010" r="8" class="c0"/>
<circle cx="1890" cy="102" r="8" class="c0"/>
<circle cx="1218" cy="58" r="8" class="c0"/>
<circle cx="1098" cy="852" r="8" class="c0"/>
<circle cx="1274" cy="740" r="8" class="c0"/>
<circle cx="1026" cy="852" r="8" class="c0"/>
<circle cx="974" cy="62" r="8" class="c0"/>
<circle cx="1028" cy="636" r="8" class="c0"/>
<circle cx="806" cy="760" r="8" class="c0"/>
<circle cx="1030" cy="28" r="8" class="c0"/>
<circle cx="1746" cy="14" r="8" class="c0"/>
<circle cx="850" cy="766" r="8" class="c0"/>
<circle cx="1232" cy="660" r="8" class="c0"/>
<circle cx="976" cy="16" r="8" class="c0"/>
<circle cx="898" cy="882" r="8" class="c0"/>
<circle cx="846" cy="826" r="8" class="c0"/>
<circle cx="1344" cy="66" r="8" class="c0"/>
<circle cx="1154" cy="530" r="8" class="c0"/>
<circle cx="1036" cy="832" r="8" class="c0"/>
<circle cx="1402" cy="46" r="8" class="c0"/>
<circle cx="1726" cy="72" r="8" class="c0"/>
<circle cx="1772" cy="20" r="8" class="c0"/>
<circle cx="666" cy="16" r="8" class="c0"/>
<circle cx="1318" cy="788" r="8" class="c0"/>
<circle cx="798" cy="744" r="8" class="c0"/>
<circle cx="1154" cy="916" r="8" class="c0"/>
<circle cx="902" cy="976" r="8" class="c0"/>
<circle cx="1670" cy="58" r="8" class="c0"/>
<circle cx="1294" cy="848" r="8" class="c0"/>
<circle cx="760" cy="14" r="8" class="c0"/>
<circle cx="1040" cy="864" r="8" class="c0"/>
<circle cx="1184" cy="856" r="8" class="c0"/>
<circle cx="1044" cy="12" r="8" class="c0"/>
<circle cx="1068" cy="714" r="8" class="c0"/>
<circle cx="1026" cy="882" r="8" class="c0"/>
<circle cx="1130" cy="538" r="8" class="c0"/>
<circle cx="1222" cy="640" r="8" class="c0"/>
<circle cx="1072" cy="1038" r="8" class="c0"/>
<circle cx="996" cy="556" r="8" class="c0"/>
<circle cx="948" cy="858" r="8" class="c0"/>
<circle cx="942" cy="16" r="8" class="c0"/>
<circle cx="808" cy="834" r="8" class="c0"/>
<circle cx="1248" cy="14" r="8" class="c0"/>
<circle cx="910" cy="610" r="8" class="c0"/>
<circle cx="1020" cy="788" r="8" class="c0"/>
<circle cx="1024" cy="816" r="8" class="c0"/>
<circle cx="1252" cy="878" r="8" class="c0"/>
<circle cx="1196" cy="960" r="8" class="c0"/>
<circle cx="1186" cy="1024" r="8" class="c0"/>
<circle cx="1150" cy="38" r="8" class="c0"/>
<circle cx="1084" cy="828" r="8" class="c0"/>
<circle cx="906" cy="764" r="8" class="c0"/>
<circle cx="962" cy="726" r="8" class="c0"/>
<circle cx="1868" cy="100" r="8" class="c0"/>
<circle cx="1464" cy="24" r="8" class="c0"/>
<circle cx="1716" cy="16" r="8" class="c0"/>
<circle cx="1020" cy="558" r="8" class="c0"/>
<circle cx="1276" cy="46" r="8" class="c0"/>
<circle cx="1098" cy="670" r="8" class="c0"/>
<circle cx="1306" cy="698" r="8" class="c0"/>
<circle cx="1134" cy="814" r="8" class="c0"/>
<circle cx="1172" cy="602" r="8" class="c0"/>
<circle cx="822" cy="824" r="8" class="c0"/>
<circle cx="854" cy="12" r="8" class="c0"/>
<circle cx="1142" cy="606" r="8" class="c0"/>
<circle cx="1184" cy="790" r="8" class="c0"/>
<circle cx="976" cy="1068" r="8" class="c0"/>
<circle cx="1070" cy="538" r="8" class="c0"/>
<circle cx="1828" cy="12" r="8" class="c0"/>
<circle cx="1184" cy="60" r="8" class="c0"/>
<circle cx="1492" cy="58" r="8" class="c0"/>
<circle cx="894" cy="778" r="8" class="c0"/>
<circle cx="986" cy="940" r="8" class="c0"/>
<circle cx="738" cy="8" r="8" class="c0"/>
<circle cx="1472" cy="82" r="8" class="c0"/>
<circle cx="1126" cy="10" r="8" class="c0"/>
<circle cx="850" cy="728" r="8" class="c0"/>
<circle cx="988" cy="882" r="8" class="c0"/>
<circle cx="1254" cy="748" r="8" class="c0"/>
<circle cx="1230" cy="8" r="8" class="c0"/>
<circle cx="948" cy="930" r="8" class="c0"/>
<circle cx="982" cy="672" r="8" class="c0"/>
<circle cx="892" cy="648" r="8" class="c0"/>
<circle cx="1524" cy="76" r="8" class="c0"/>
<circle cx="986" cy="864" r="8" class="c0"/>
<circle cx="1896" cy="24" r="8" class="c0"/>
<circle cx="1000" cy="584" r="8" class="c0"/>
<circle cx="902" cy="852" r="8" class="c0"/>
<circle cx="1008" cy="684" r="8" class="c0"/>
<circle cx="954" cy="578" r="8" class="c0"/>
<circle cx="1316" cy="854" r="8" class="c0"/>
<circle cx="922" cy="776" r="8" class="c0"/>
<circle cx="1870" cy="50" r="8" class="c0"/>
<circle cx="1264" cy="760" r="8" class="c0"/>
<circle cx="1058" cy="622" r="8" class="c0"/>
<circle cx="1010" cy="936" r="8" class="c0"/>
<circle cx="1304" cy="866" r="8" class="c0"/>
<circle cx="1138" cy="998" r="8" class="c0"/>
<circle cx="818" cy="678" r="8" class="c0"/>
<circle cx="650" cy="8" r="8" class="c0"/>
<circle cx="1084" cy="660" r="8" class="c0"/>
<circle cx="1076" cy="66" r="8" class="c0"/>
<circle cx="1310" cy="884" r="8" class="c0"/>
<circle cx="1094" cy="1068" r="8" class="c0"/>
<circle cx="1210" cy="978" r="8" class="c0"/>
<circle cx="1174" cy="48" r="8" class="c0"/>
<circle cx="692" cy="22" r="8" class="c0"/>
<circle cx="1324" cy="50" r="8" class="c0"/>
<circle cx="1366" cy="68" r="8" class="c0"/>
<circle cx="1162" cy="648" r="8" class="c0"/>
<circle cx="1276" cy="70" r="8" class="c0"/>
<circle cx="1058" cy="1072" r="8" class="c0"/>
<circle cx="978" cy="618" r="8" class="c0"/>
<circle cx="832" cy="732" r="8" class="c0"/>
<circle cx="954" cy="982" r="8" class="c0"/>
<circle cx="930" cy="724" r="8" class="c0"/>
<circle cx="722" cy="18" r="8" class="c0"/>
<circle cx="1262" cy="822" r="8" class="c0"/>
<circle cx="1680" cy="84" r="8" class="c0"/>
<circle cx="1670" cy="34" r="8" class="c0"/>
<circle cx="674" cy="36" r="8" class="c0"/>
<circle cx="882" cy="578" r="8" class="c0"/>
<circle cx="1722" cy="42" r="8" class="c0"/>
<circle cx="1026" cy="1064" r="8" class="c0"/>
<circle cx="1118" cy="806" r="8" class="c0"/>
<circle cx="922" cy="556" r="8" class="c0"/>
<circle cx="1024" cy="62" r="8" class="c0"/>
<circle cx="1074" cy="560" r="8" class="c0"/>
<circle cx="1640" cy="10" r="8" class="c0"/>
<circle cx="1104" cy="574" r="8" class="c0"/>
<circle cx="854" cy="662" r="8" class="c0"/>
<circle cx="1252" cy="958" r="8" class="c0"/>
<circle cx="1454" cy="60" r="8" class="c0"/>
<circle cx="1782" cy="84" r="8" class="c0"/>
<circle cx="1072" cy="898" r="8" class="c0"/>
<circle cx="976" cy="914" r="8" class="c0"/>
<circle cx="858" cy="990" r="8" class="c0"/>
<circle cx="1010" cy="830" r="8" class="c0"/>
<circle cx="1148" cy="670" r="8" class="c0"/>
<circle cx="890" cy="906" r="8" class="c0"/>
<circle cx="630" cy="12" r="8" class="c0"/>
<circle cx="1176" cy="554" r="8" class="c0"/>
<circle cx="874" cy="898" r="8" class="c0"/>
<circle cx="1886" cy="14" r="8" class="c0"/>
<circle cx="968" cy="792" r="8" class="c0"/>
<circle cx="1204" cy="920" r="8" class="c0"/>
<circle cx="886" cy="986" r="8" class="c0"/>
<circle cx="1244" cy="650" r="8" class="c0"/>
<circle cx="896" cy="622" r="8" class="c0"/>
<circle cx="1130" cy="54" r="8" class="c0"/>
<circle cx="1270" cy="862" r="8" class="c0"/>
<circle cx="814" cy="10" r="8" class="c0"/>
<circle cx="1586" cy="84" r="8" class="c0"/>
<circle cx="1558" cy="94" r="8" class="c0"/>
<circle cx="1058" cy="62" r="8" class="c0"/>
<circle cx="1238" cy="844" r="8" class="c0"/>
<circle cx="878" cy="724" r="8" class="c0"/>
<circle cx="1604" cy="32" r="8" class="c0"/>
<circle cx="928" cy="26" r="8" class="c0"/>
<circle cx="844" cy="968" r="8" class="c0"/>
<circle cx="1650" cy="68" r="8" class="c0"/>
<circle cx="1828" cy="74" r="8" class="c0"/>
<circle cx="928" cy="674" r="8" class="c0"/>
<circle cx="1156" cy="622" r="8" class="c0"/>
<circle cx="1018" cy="14" r="8" class="c0"/>
<circle cx="600" cy="26" r="8" class="c0"/>
<circle cx="982" cy="802" r="8" class="c0"/>
<circle cx="870" cy="770" r="8" class="c0"/>
<circle cx="1568" cy="10" r="8" class="c0"/>
<circle cx="1274" cy="674" r="8" class="c0"/>
<circle cx="1112" cy="536" r="8" class="c0"/>
<circle cx="1074" cy="612" r="8" class="c0"/>
<circle cx="1156" cy="552" r="8" class="c0"/>
<circle cx="1086" cy="742" r="8" class="c0"/>
<circle cx="1084" cy="690" r="8" class="c0"/>
<circle cx="1426" cy="44" r="8" class="c0"/>
<circle cx="890" cy="802" r="8" class="c0"/>
<circle cx="1502" cy="10" r="8" class="c0"/>
<circle cx="702" cy="10" r="8" class="c0"/>
<circle cx="1138" cy="626" r="8" class="c0"/>
<circle cx="1220" cy="30" r="8" class="c0"/>
<circle cx="1248" cy="976" r="8" class="c0"/>
<circle cx="1322" cy="806" r="8" class="c0"/>
<circle cx="836" cy="756" r="8" class="c0"/>
<circle cx="808" cy="696" r="8" class="c0"/>
<circle cx="1290" cy="762" r="8" class="c0"/>
<circle cx="1226" cy="992" r="8" class="c0"/>
<circle cx="1302" cy="10" r="8" class="c0"/>
<circle cx="1228" cy="806" r="8" class="c0"/>
<circle cx="934" cy="50" r="8" class="c0"/>
<circle cx="958" cy="1066" r="8" class="c0"/>
<circle cx="884" cy="40" r="8" class="c0"/>
<circle cx="1104" cy="960" r="8" class="c0"/>
<circle cx="1124" cy="668" r="8" class="c0"/>
<circle cx="1036" cy="46" r="8" class="c0"/>
<circle cx="1298" cy="650" r="8" class="c0"/>
<circle cx="1074" cy="672" r="8" class="c0"/>
<circle cx="1112" cy="842" r="8" class="c0"/>
<circle cx="1206" cy="42" r="8" class="c0"/>
<circle cx="1592" cy="10" r="8" class="c0"/>
<circle cx="1620" cy="58" r="8" class="c0"/>
<circle cx="1098" cy="732" r="8" class="c0"/>
<circle cx="930" cy="792" r="8" class="c0"/>
<circle cx="806" cy="852" r="8" class="c0"/>
<circle cx="1124" cy="852" r="8" class="c0"/>
<circle cx="1062" cy="1020" r="8" class="c0"/>
<circle cx="1038" cy="1074" r="8" class="c0"/>
<circle cx="1240" cy="66" r="8" class="c0"/>
<circle cx="590" cy="12" r="8" class="c0"/>
<circle cx="1134" cy="884" r="8" class="c0"/>
<circle cx="1064" cy="814" r="8" class="c0"/>
<circle cx="1044" cy="1016" r="8" class="c0"/>
<circle cx="890" cy="862" r="8" class="c0"/>
<circle cx="1106" cy="816" r="8" class="c0"/>
<circle cx="1392" cy="84" r="8" class="c0"/>
<circle cx="1256" cy="672" r="8" class="c0"/>
<circle cx="844" cy="46" r="8" class="c0"/>
<circle cx="548" cy="16" r="8" class="c0"/>
<circle cx="1030" cy="970" r="8" class="c0"/>
<circle cx="1154" cy="878" r="8" class="c0"/>
<circle cx="804" cy="816" r="8" class="c0"/>
<circle cx="1012" cy="728" r="8" class="c0"/>
<circle cx="1758" cy="32" r="8" class="c0"/>
<circle cx="1114" cy="40" r="8" class="c0"/>
<circle cx="1750" cy="98" r="8" class="c0"/>
<circle cx="874" cy="696" r="8" class="c0"/>
<circle cx="894" cy="62" r="8" class="c0"/>
<circle cx="1162" cy="582" r="8" class="c0"/>
<circle cx="1092" cy="910" r="8" class="c0"/>
<circle cx="1212" cy="12" r="8" class="c0"/>
<circle cx="1726" cy="92" r="8" class="c0"/>
<circle cx="1144" cy="744" r="8" class="c0"/>
<circle cx="818" cy="792" r="8" class="c0"/>
<circle cx="1466" cy="50" r="8" class="c0"/>
<circle cx="1124" cy="1020" r="8" class="c0"/>
<circle cx="848" cy="602" r="8" class="c0"/>
<circle cx="1412" cy="72" r="8" class="c0"/>
<circle cx="954" cy="828" r="8" class="c0"/>
<circle cx="914" cy="14" r="8" class="c0"/>
<circle cx="1908" cy="40" r="8" class="c0"/>
<circle cx="1036" cy="568" r="8" class="c0"/>
<circle cx="1408" cy="16" r="8" class="c0"/>
<circle cx="1354" cy="16" r="8" class="c0"/>
<circle cx="1072" cy="962" r="8" class="c0"/>
<circle cx="1506" cy="40" r="8" class="c0"/>
<circle cx="1024" cy="922" r="8" class="c0"/>
<circle cx="1736" cy="32" r="8" class="c0"/>
<circle cx="940" cy="1052" r="8" class="c0"/>
<circle cx="630" cy="32" r="8" class="c0"/>
<circle cx="1050" cy="930" r="8" class="c0"/>
<circle cx="1164" cy="700" r="8" class="c0"/>
<circle cx="962" cy="556" r="8" class="c0"/>
<circle cx="842" cy="622" r="8" class="c0"/>
<circle cx="856" cy="958" r="8" class="c0"/>
<circle cx="1242" cy="718" r="8" class="c0"/>
<circle cx="820" cy="770" r="8" class="c0"/>
<circle cx="1228" cy="864" r="8" class="c0"/>
<circle cx="1220" cy="746" r="8" class="c0"/>
<circle cx="1288" cy="684" r="8" class="c0"/>
<circle cx="1286" cy="660" r="8" class="c0"/>
<circle cx="1284" cy="714" r="8" class="c0"/>
<circle cx="1004" cy="990" r="8" class="c0"/>
<circle cx="998" cy="698" r="8" class="c0"/>
<circle cx="1332" cy="774" r="8" class="c0"/>
<circle cx="876" cy="630" r="8" class="c0"/>
<circle cx="1214" cy="932" r="8" class="c0"/>
<circle cx="990" cy="978" r="8" class="c0"/>
<circle cx="1316" cy="688" r="8" class="c0"/>
<circle cx="994" cy="12" r="8" class="c0"/>
<circle cx="900" cy="696" r="8" class="c0"/>
<circle cx="1152" cy="596" r="8" class="c0"/>
<circle cx="1032" cy="540" r="8" class="c0"/>
<circle cx="1160" cy="816" r="8" class="c0"/>
<circle cx="612" cy="10" r="8" class="c0"/>
<circle cx="1120" cy="972" r="8" class="c0"/>
<circle cx="1532" cy="8" r="8" class="c0"/>
<circle cx="900" cy="590" r="8" class="c0"/>
<circle cx="1586" cy="40" r="8" class="c0"/>
<circle cx="1444" cy="46" r="8" class="c0"/>
<circle cx="1176" cy="1038" r="8" class="c0"/>
<circle cx="1440" cy="88" r="8" class="c0"/>
<circle cx="1288" cy="22" r="8" class="c0"/>
<circle cx="794" cy="62" r="8" class="c0"/>
<circle cx="1246" cy="780" r="8" class="c0"/>
<circle cx="876" cy="824" r="8" class="c0"/>
<circle cx="1112" cy="1064" r="6" class="c0"/>
<circle cx="1210" cy="624" r="6" class="c0"/>
<circle cx="1398" cy="6" r="6" class="c0"/>
<circle cx="1832" cy="34" r="6" class="c0"/>
<circle cx="1134" cy="926" r="6" class="c0"/>
<circle cx="1184" cy="838" r="6" class="c0"/>
<circle cx="1328" cy="70" r="6" class="c0"/>
<circle cx="1012" cy="1024" r="6" class="c0"/>
<circle cx="986" cy="26" r="6" class="c0"/>
<circle cx="950" cy="544" r="6" class="c0"/>
<circle cx="1064" cy="862" r="6" class="c0"/>
<circle cx="920" cy="946" r="6" class="c0"/>
<circle cx="846" cy="794" r="6" class="c0"/>
<circle cx="1046" cy="632" r="6" class="c0"/>
<circle cx="1714" cy="58" r="6" class="c0"/>
<circle cx="872" cy="590" r="6" class="c0"/>
<circle cx="1018" cy="868" r="6" class="c0"/>
<circle cx="994" cy="68" r="6" class="c0"/>
<circle cx="848" cy="892" r="6" class="c0"/>
<circle cx="952" cy="998" r="6" class="c0"/>
<circle cx="1010" cy="570" r="6" class="c0"/>
<circle cx="994" cy="662" r="6" class="c0"/>
<circle cx="920" cy="854" r="6" class="c0"/>
<circle cx="1344" cy="786" r="6" class="c0"/>
<circle cx="1006" cy="602" r="6" class="c0"/>
<circle cx="780" cy="8" r="6" class="c0"/>
<circle cx="836" cy="10" r="6" class="c0"/>
<circle cx="930" cy="862" r="6" class="c0"/>
<circle cx="1316" cy="740" r="6" class="c0"/>
<circle cx="904" cy="560" r="6" class="c0"/>
<circle cx="1062" cy="1048" r="6" class="c0"/>
<circle cx="1216" cy="948" r="6" class="c0"/>
<circle cx="1678" cy="20" r="6" class="c0"/>
<circle cx="1264" cy="930" r="6" class="c0"/>
<circle cx="1098" cy="942" r="6" class="c0"/>
<circle cx="1908" cy="62" r="6" class="c0"/>
<circle cx="1908" cy="12" r="6" class="c0"/>
<circle cx="1004" cy="872" r="6" class="c0"/>
<circle cx="1100" cy="686" r="6" class="c0"/>
<circle cx="1108" cy="1030" r="6" class="c0"/>
<circle cx="848" cy="942" r="6" class="c0"/>
<circle cx="1084" cy="946" r="6" class="c0"/>
<circle cx="1270" cy="918" r="6" class="c0"/>
<circle cx="1214" cy="696" r="6" class="c0"/>
<circle cx="934" cy="912" r="6" class="c0"/>
<circle cx="904" cy="638" r="6" class="c0"/>
<circle cx="990" cy="738" r="6" class="c0"/>
<circle cx="1266" cy="898" r="6" class="c0"/>
<circle cx="1010" cy="544" r="6" class="c0"/>
<circle cx="796" cy="6" r="6" class="c0"/>
<circle cx="1216" cy="656" r="6" class="c0"/>
<circle cx="1084" cy="1020" r="6" class="c0"/>
<circle cx="1174" cy="802" r="6" class="c0"/>
<circle cx="1166" cy="868" r="6" class="c0"/>
<circle cx="1154" cy="710" r="6" class="c0"/>
<circle cx="1706" cy="6" r="6" class="c0"/>
<circle cx="1056" cy="844" r="6" class="c0"/>
<circle cx="1170" cy="942" r="6" class="c0"/>
<circle cx="1006" cy="60" r="6" class="c0"/>
<circle cx="1138" cy="682" r="6" class="c0"/>
<circle cx="810" cy="30" r="6" class="c0"/>
<circle cx="1460" cy="6" r="6" class="c0"/>
<circle cx="1672" cy="6" r="6" class="c0"/>
<circle cx="992" cy="1076" r="6" class="c0"/>
<circle cx="1368" cy="8" r="6" class="c0"/>
<circle cx="1078" cy="6" r="6" class="c0"/>
<circle cx="896" cy="568" r="6" class="c0"/>
<circle cx="900" cy="918" r="6" class="c0"/>
<circle cx="1016" cy="48" r="6" class="c0"/>
<circle cx="962" cy="652" r="6" class="c0"/>
<circle cx="678" cy="6" r="6" class="c0"/>
<circle cx="1126" cy="738" r="6" class="c0"/>
<circle cx="1138" cy="72" r="6" class="c0"/>
<circle cx="1136" cy="1058" r="6" class="c0"/>
<circle cx="806" cy="892" r="6" class="c0"/>
<circle cx="1090" cy="998" r="6" class="c0"/>
<circle cx="1630" cy="92" r="6" class="c0"/>
<circle cx="978" cy="594" r="6" class="c0"/>
<circle cx="1356" cy="56" r="6" class="c0"/>
<circle cx="860" cy="754" r="6" class="c0"/>
<circle cx="1144" cy="726" r="6" class="c0"/>
<circle cx="1424" cy="6" r="6" class="c0"/>
<circle cx="1616" cy="42" r="6" class="c0"/>
<circle cx="1156" cy="686" r="6" class="c0"/>
<circle cx="1164" cy="566" r="6" class="c0"/>
<circle cx="1128" cy="702" r="6" class="c0"/>
<circle cx="832" cy="834" r="6" class="c0"/>
<circle cx="930" cy="658" r="6" class="c0"/>
<circle cx="1138" cy="556" r="6" class="c0"/>
<circle cx="1044" cy="584" r="6" class="c0"/>
<circle cx="654" cy="26" r="6" class="c0"/>
<circle cx="1022" cy="1016" r="6" class="c0"/>
<circle cx="1216" cy="828" r="6" class="c0"/>
<circle cx="1184" cy="916" r="6" class="c0"/>
<circle cx="948" cy="648" r="6" class="c0"/>
<circle cx="1476" cy="64" r="6" class="c0"/>
<circle cx="1184" cy="732" r="6" class="c0"/>
<circle cx="1868" cy="6" r="6" class="c0"/>
<circle cx="1178" cy="654" r="6" class="c0"/>
<circle cx="1102" cy="832" r="6" class="c0"/>
<circle cx="804" cy="42" r="6" class="c0"/>
<circle cx="1414" cy="32" r="6" class="c0"/>
<circle cx="862" cy="34" r="6" class="c0"/>
<circle cx="1730" cy="8" r="6" class="c0"/>
<circle cx="836" cy="638" r="6" class="c0"/>
<circle cx="1116" cy="1002" r="6" class="c0"/>
<circle cx="564" cy="12" r="6" class="c0"/>
<circle cx="722" cy="36" r="6" class="c0"/>
<circle cx="1058" cy="906" r="6" class="c0"/>
<circle cx="1818" cy="26" r="6" class="c0"/>
<circle cx="1014" cy="770" r="6" class="c0"/>
<circle cx="918" cy="820" r="6" class="c0"/>
<circle cx="966" cy="952" r="6" class="c0"/>
<circle cx="1052" cy="756" r="6" class="c0"/>
<circle cx="1706" cy="94" r="6" class="c0"/>
<circle cx="1152" cy="956" r="6" class="c0"/>
<circle cx="1186" cy="612" r="6" class="c0"/>
<circle cx="1228" cy="700" r="6" class="c0"/>
<circle cx="1610" cy="10" r="6" class="c0"/>
<circle cx="1052" cy="952" r="6" class="c0"/>
<circle cx="1080" cy="596" r="6" class="c0"/>
<circle cx="1180" cy="950" r="6" class="c0"/>
<circle cx="920" cy="40" r="6" class="c0"/>
<circle cx="746" cy="24" r="6" class="c0"/>
<circle cx="816" cy="662" r="6" class="c0"/>
<circle cx="870" cy="6" r="6" class="c0"/>
<circle cx="972" cy="662" r="6" class="c0"/>
<circle cx="1170" cy="68" r="6" class="c0"/>
<circle cx="1026" cy="664" r="6" class="c0"/>
<circle cx="944" cy="588" r="6" class="c0"/>
<circle cx="814" cy="916" r="6" class="c0"/>
<circle cx="1786" cy="8" r="6" class="c0"/>
<circle cx="1194" cy="70" r="6" class="c0"/>
<circle cx="1096" cy="752" r="6" class="c0"/>
<circle cx="1220" cy="916" r="6" class="c0"/>
<circle cx="874" cy="676" r="6" class="c0"/>
<circle cx="730" cy="50" r="6" class="c0"/>
<circle cx="1048" cy="914" r="6" class="c0"/>
<circle cx="868" cy="712" r="6" class="c0"/>
<circle cx="1008" cy="914" r="6" class="c0"/>
<circle cx="850" cy="866" r="6" class="c0"/>
<circle cx="1018" cy="672" r="6" class="c0"/>
<circle cx="1224" cy="600" r="6" class="c0"/>
<circle cx="1324" cy="872" r="6" class="c0"/>
<circle cx="820" cy="42" r="6" class="c0"/>
<circle cx="840" cy="718" r="6" class="c0"/>
<circle cx="1164" cy="1028" r="6" class="c0"/>
<circle cx="1416" cy="54" r="6" class="c0"/>
<circle cx="1340" cy="812" r="6" class="c0"/>
<circle cx="1296" cy="80" r="6" class="c0"/>
<circle cx="1252" cy="836" r="6" class="c0"/>
<circle cx="736" cy="32" r="6" class="c0"/>
<circle cx="1858" cy="86" r="6" class="c0"/>
<circle cx="1074" cy="1080" r="6" class="c0"/>
<circle cx="1252" cy="708" r="6" class="c0"/>
<circle cx="928" cy="956" r="6" class="c0"/>
<circle cx="942" cy="622" r="6" class="c0"/>
<circle cx="1086" cy="536" r="6" class="c0"/>
<circle cx="860" cy="858" r="6" class="c0"/>
<circle cx="1856" cy="42" r="6" class="c0"/>
<circle cx="1770" cy="96" r="6" class="c0"/>
<circle cx="1032" cy="702" r="6" class="c0"/>
<circle cx="1074" cy="582" r="6" class="c0"/>
<circle cx="858" cy="836" r="6" class="c0"/>
<circle cx="1792" cy="100" r="6" class="c0"/>
<circle cx="1208" cy="734" r="6" class="c0"/>
<circle cx="1194" cy="888" r="6" class="c0"/>
<circle cx="1090" cy="604" r="6" class="c0"/>
<circle cx="906" cy="1030" r="6" class="c0"/>
<circle cx="1796" cy="56" r="6" class="c0"/>
<circle cx="1304" cy="780" r="6" class="c0"/>
<circle cx="1764" cy="6" r="6" class="c0"/>
<circle cx="1096" cy="38" r="6" class="c0"/>
<circle cx="1304" cy="838" r="6" class="c0"/>
<circle cx="1426" cy="80" r="6" class="c0"/>
<circle cx="912" cy="628" r="6" class="c0"/>
<circle cx="956" cy="916" r="6" class="c0"/>
<circle cx="1200" cy="58" r="6" class="c0"/>
<circle cx="1060" cy="772" r="6" class="c0"/>
<circle cx="1000" cy="950" r="6" class="c0"/>
<circle cx="1184" cy="592" r="6" class="c0"/>
<circle cx="952" cy="796" r="6" class="c0"/>
<circle cx="914" cy="916" r="6" class="c0"/>
<circle cx="928" cy="6" r="6" class="c0"/>
<circle cx="920" cy="1022" r="6" class="c0"/>
<circle cx="1126" cy="988" r="6" class="c0"/>
<circle cx="912" cy="58" r="6" class="c0"/>
<circle cx="1020" cy="984" r="6" class="c0"/>
<circle cx="988" cy="688" r="6" class="c0"/>
<circle cx="1186" cy="536" r="6" class="c0"/>
<circle cx="960" cy="760" r="6" class="c0"/>
<circle cx="1202" cy="578" r="6" class="c0"/>
<circle cx="1408" cy="90" r="6" class="c0"/>
<circle cx="1908" cy="116" r="6" class="c0"/>
<circle cx="1128" cy="640" r="6" class="c0"/>
<circle cx="928" cy="900" r="6" class="c0"/>
<circle cx="1526" cy="46" r="6" class="c0"/>
<circle cx="1208" cy="68" r="6" class="c0"/>
<circle cx="822" cy="644" r="6" class="c0"/>
<circle cx="1054" cy="1004" r="6" class="c0"/>
<circle cx="920" cy="1000" r="6" class="c0"/>
<circle cx="774" cy="22" r="6" class="c0"/>
<circle cx="1892" cy="68" r="6" class="c0"/>
<circle cx="990" cy="816" r="6" class="c0"/>
<circle cx="1254" cy="638" r="6" class="c0"/>
<circle cx="888" cy="670" r="6" class="c0"/>
<circle cx="794" cy="826" r="6" class="c0"/>
<circle cx="1260" cy="844" r="6" class="c0"/>
<circle cx="1294" cy="886" r="6" class="c0"/>
<circle cx="1166" cy="6" r="6" class="c0"/>
<circle cx="1140" cy="900" r="6" class="c0"/>
<circle cx="1286" cy="730" r="6" class="c0"/>
<circle cx="1164" cy="30" r="6" class="c0"/>
<circle cx="968" cy="708" r="6" class="c0"/>
<circle cx="974" cy="1052" r="6" class="c0"/>
<circle cx="1152" cy="638" r="6" class="c0"/>
<circle cx="956" cy="944" r="6" class="c0"/>
<circle cx="1454" cy="78" r="6" class="c0"/>
<circle cx="1792" cy="74" r="6" class="c0"/>
<circle cx="984" cy="848" r="6" class="c0"/>
<circle cx="774" cy="40" r="6" class="c0"/>
<circle cx="1218" cy="1006" r="6" class="c0"/>
<circle cx="1136" cy="772" r="6" class="c0"/>
<circle cx="1104" cy="762" r="6" class="c0"/>
<circle cx="1520" cy="98" r="6" class="c0"/>
<circle cx="1194" cy="620" r="6" class="c0"/>
<circle cx="1092" cy="76" r="6" class="c0"/>
<circle cx="1254" cy="808" r="6" class="c0"/>
<circle cx="1100" cy="880" r="6" class="c0"/>
<circle cx="1820" cy="100" r="6" class="c0"/>
<circle cx="1042" cy="848" r="6" class="c0"/>
<circle cx="846" cy="744" r="6" class="c0"/>
<circle cx="1020" cy="954" r="6" class="c0"/>
<circle cx="754" cy="38" r="6" class="c0"/>
<circle cx="1026" cy="752" r="6" class="c0"/>
<circle cx="1208" cy="790" r="6" class="c0"/>
<circle cx="1164" cy="520" r="6" class="c0"/>
<circle cx="938" cy="992" r="6" class="c0"/>
<circle cx="858" cy="592" r="6" class="c0"/>
<circle cx="1138" cy="710" r="6" class="c0"/>
<circle cx="1122" cy="72" r="6" class="c0"/>
<circle cx="1118" cy="24" r="6" class="c0"/>
<circle cx="1090" cy="894" r="6" class="c0"/>
<circle cx="996" cy="538" r="6" class="c0"/>
<circle cx="976" cy="828" r="6" class="c0"/>
<circle cx="1040" cy="958" r="6" class="c0"/>
<circle cx="1568" cy="78" r="6" class="c0"/>
<circle cx="1484" cy="72" r="6" class="c0"/>
<circle cx="1716" cy="106" r="6" class="c0"/>
<circle cx="1616" cy="84" r="6" class="c0"/>
<circle cx="958" cy="60" r="6" class="c0"/>
<circle cx="706" cy="32" r="6" class="c0"/>
<circle cx="1076" cy="728" r="6" class="c0"/>
<circle cx="920" cy="620" r="6" class="c0"/>
<circle cx="762" cy="52" r="6" class="c0"/>
<circle cx="1342" cy="760" r="6" class="c0"/>
<circle cx="1620" cy="102" r="6" class="c0"/>
<circle cx="1588" cy="68" r="6" class="c0"/>
<circle cx="1204" cy="704" r="6" class="c0"/>
<circle cx="1262" cy="6" r="6" class="c0"/>
<circle cx="1328" cy="698" r="6" class="c0"/>
<circle cx="1758" cy="50" r="6" class="c0"/>
<circle cx="1682" cy="68" r="6" class="c0"/>
<circle cx="1236" cy="676" r="6" class="c0"/>
<circle cx="820" cy="938" r="6" class="c0"/>
<circle cx="1104" cy="1056" r="6" class="c0"/>
<circle cx="1014" cy="34" r="6" class="c0"/>
<circle cx="1224" cy="836" r="6" class="c0"/>
<circle cx="908" cy="744" r="6" class="c0"/>
</svg>
