<?xml version="1.0" encoding="utf-8"?>
<svg xmlns="http://www.w3.org/2000/svg"
     xmlns:xlink="http://www.w3.org/1999/xlink" width="1920" height="1440" >

            <defs>
            <style type="text/css"><![CDATA[
circle {stroke: none;}
.c0 {fill: #FFFFFF;}
]]></style>
            </defs>
<rect x="0" y="0" width="1920" height="1440" fill="black"/>
<circle cx="1750" cy="294" r="14" class="c0"/>
<circle cx="816" cy="886" r="12" class="c0"/>
<circle cx="1538" cy="116" r="12" class="c0"/>
<circle cx="1414" cy="138" r="12" class="c0"/>
<circle cx="848" cy="562" r="12" class="c0"/>
<circle cx="894" cy="966" r="12" class="c0"/>
<circle cx="1270" cy="78" r="12" class="c0"/>
<circle cx="1712" cy="198" r="12" class="c0"/>
<circle cx="1676" cy="210" r="12" class="c0"/>
<circle cx="1862" cy="482" r="12" class="c0"/>
<circle cx="1490" cy="200" r="12" class="c0"/>
<circle cx="1902" cy="450" r="12" class="c0"/>
<circle cx="1650" cy="368" r="12" class="c0"/>
<circle cx="1796" cy="278" r="12" class="c0"/>
<circle cx="900" cy="550" r="12" class="c0"/>
<circle cx="804" cy="710" r="12" class="c0"/>
<circle cx="820" cy="570" r="12" class="c0"/>
<circle cx="1904" cy="566" r="12" class="c0"/>
<circle cx="1528" cy="52" r="12" class="c0"/>
<circle cx="1418" cy="38" r="12" class="c0"/>
<circle cx="888" cy="624" r="12" class="c0"/>
<circle cx="888" cy="476" r="12" class="c0"/>
<circle cx="1238" cy="98" r="12" class="c0"/>
<circle cx="884" cy="684" r="12" class="c0"/>
<circle cx="1474" cy="256" r="12" class="c0"/>
<circle cx="930" cy="882" r="12" class="c0"/>
<circle cx="954" cy="558" r="12" class="c0"/>
<circle cx="1624" cy="306" r="12" class="c0"/>
<circle cx="846" cy="770" r="12" class="c0"/>
<circle cx="1568" cy="164" r="12" class="c0"/>
<circle cx="1590" cy="246" r="12" class="c0"/>
<circle cx="1582" cy="302" r="12" class="c0"/>
<circle cx="1384" cy="82" r="12" class="c0"/>
<circle cx="876" cy="530" r="12" class="c0"/>
<circle cx="1756" cy="354" r="12" class="c0"/>
<circle cx="1848" cy="416" r="12" class="c0"/>
<circle cx="1544" cy="68" r="12" class="c0"/>
<circle cx="1440" cy="234" r="12" class="c0"/>
<circle cx="1538" cy="172" r="12" class="c0"/>
<circle cx="1594" cy="170" r="12" class="c0"/>
<circle cx="1238" cy="20" r="12" class="c0"/>
<circle cx="838" cy="958" r="12" class="c0"/>
<circle cx="798" cy="800" r="12" class="c0"/>
<circle cx="1568" cy="218" r="12" class="c0"/>
<circle cx="1580" cy="92" r="12" class="c0"/>
<circle cx="1508" cy="144" r="12" class="c0"/>
<circle cx="968" cy="884" r="12" class="c0"/>
<circle cx="850" cy="712" r="10" class="c0"/>
<circle cx="1750" cy="226" r="10" class="c0"/>
<circle cx="1484" cy="138" r="10" class="c0"/>
<circle cx="1450" cy="150" r="10" class="c0"/>
<circle cx="1828" cy="394" r="10" class="c0"/>
<circle cx="1338" cy="30" r="10" class="c0"/>
<circle cx="1388" cy="184" r="10" class="c0"/>
<circle cx="950" cy="766" r="10" class="c0"/>
<circle cx="924" cy="938" r="10" class="c0"/>
<circle cx="804" cy="532" r="10" class="c0"/>
<circle cx="758" cy="936" r="10" class="c0"/>
<circle cx="904" cy="414" r="10" class="c0"/>
<circle cx="1520" cy="244" r="10" class="c0"/>
<circle cx="1678" cy="280" r="10" class="c0"/>
<circle cx="1554" cy="298" r="10" class="c0"/>
<circle cx="914" cy="532" r="10" class="c0"/>
<circle cx="1200" cy="32" r="10" class="c0"/>
<circle cx="1558" cy="136" r="10" class="c0"/>
<circle cx="1172" cy="18" r="10" class="c0"/>
<circle cx="1820" cy="356" r="10" class="c0"/>
<circle cx="868" cy="448" r="10" class="c0"/>
<circle cx="836" cy="876" r="10" class="c0"/>
<circle cx="1632" cy="224" r="10" class="c0"/>
<circle cx="894" cy="774" r="10" class="c0"/>
<circle cx="1438" cy="76" r="10" class="c0"/>
<circle cx="878" cy="424" r="10" class="c0"/>
<circle cx="1684" cy="302" r="10" class="c0"/>
<circle cx="1556" cy="236" r="10" class="c0"/>
<circle cx="846" cy="464" r="10" class="c0"/>
<circle cx="906" cy="494" r="10" class="c0"/>
<circle cx="1676" cy="252" r="10" class="c0"/>
<circle cx="794" cy="936" r="10" class="c0"/>
<circle cx="824" cy="638" r="10" class="c0"/>
<circle cx="764" cy="1046" r="10" class="c0"/>
<circle cx="856" cy="806" r="10" class="c0"/>
<circle cx="806" cy="600" r="10" class="c0"/>
<circle cx="1688" cy="382" r="10" class="c0"/>
<circle cx="890" cy="918" r="10" class="c0"/>
<circle cx="1216" cy="62" r="10" class="c0"/>
<circle cx="1362" cy="32" r="10" class="c0"/>
<circle cx="948" cy="852" r="10" class="c0"/>
<circle cx="852" cy="644" r="10" class="c0"/>
<circle cx="924" cy="820" r="10" class="c0"/>
<circle cx="1196" cy="54" r="10" class="c0"/>
<circle cx="868" cy="610" r="10" class="c0"/>
<circle cx="1846" cy="464" r="10" class="c0"/>
<circle cx="926" cy="750" r="10" class="c0"/>
<circle cx="1742" cy="428" r="10" class="c0"/>
<circle cx="778" cy="690" r="10" class="c0"/>
<circle cx="778" cy="980" r="10" class="c0"/>
<circle cx="1890" cy="524" r="10" class="c0"/>
<circle cx="1742" cy="368" r="10" class="c0"/>
<circle cx="1304" cy="36" r="10" class="c0"/>
<circle cx="1740" cy="260" r="10" class="c0"/>
<circle cx="1606" cy="226" r="10" class="c0"/>
<circle cx="768" cy="844" r="10" class="c0"/>
<circle cx="1854" cy="336" r="10" class="c0"/>
<circle cx="848" cy="498" r="10" class="c0"/>
<circle cx="1536" cy="218" r="10" class="c0"/>
<circle cx="900" cy="824" r="10" class="c0"/>
<circle cx="1656" cy="224" r="10" class="c0"/>
<circle cx="778" cy="642" r="10" class="c0"/>
<circle cx="848" cy="376" r="10" class="c0"/>
<circle cx="912" cy="860" r="10" class="c0"/>
<circle cx="1448" cy="106" r="10" class="c0"/>
<circle cx="1336" cy="64" r="10" class="c0"/>
<circle cx="1238" cy="68" r="10" class="c0"/>
<circle cx="1722" cy="298" r="10" class="c0"/>
<circle cx="870" cy="852" r="10" class="c0"/>
<circle cx="1468" cy="60" r="10" class="c0"/>
<circle cx="1838" cy="490" r="10" class="c0"/>
<circle cx="1876" cy="340" r="10" class="c0"/>
<circle cx="1624" cy="146" r="10" class="c0"/>
<circle cx="1632" cy="356" r="10" class="c0"/>
<circle cx="1362" cy="188" r="10" class="c0"/>
<circle cx="878" cy="502" r="10" class="c0"/>
<circle cx="798" cy="580" r="10" class="c0"/>
<circle cx="972" cy="826" r="10" class="c0"/>
<circle cx="1894" cy="598" r="10" class="c0"/>
<circle cx="752" cy="908" r="10" class="c0"/>
<circle cx="904" cy="904" r="10" class="c0"/>
<circle cx="1856" cy="438" r="10" class="c0"/>
<circle cx="1424" cy="210" r="10" class="c0"/>
<circle cx="1698" cy="352" r="10" class="c0"/>
<circle cx="1548" cy="196" r="10" class="c0"/>
<circle cx="1488" cy="24" r="10" class="c0"/>
<circle cx="1696" cy="184" r="10" class="c0"/>
<circle cx="1326" cy="104" r="10" class="c0"/>
<circle cx="872" cy="370" r="10" class="c0"/>
<circle cx="1772" cy="276" r="10" class="c0"/>
<circle cx="806" cy="922" r="10" class="c0"/>
<circle cx="1396" cy="106" r="10" class="c0"/>
<circle cx="1366" cy="96" r="10" class="c0"/>
<circle cx="892" cy="728" r="10" class="c0"/>
<circle cx="1802" cy="422" r="10" class="c0"/>
<circle cx="1768" cy="416" r="10" class="c0"/>
<circle cx="846" cy="936" r="10" class="c0"/>
<circle cx="1292" cy="108" r="10" class="c0"/>
<circle cx="862" cy="916" r="10" class="c0"/>
<circle cx="1314" cy="132" r="10" class="c0"/>
<circle cx="1654" cy="186" r="10" class="c0"/>
<circle cx="1658" cy="322" r="10" class="c0"/>
<circle cx="1908" cy="362" r="10" class="c0"/>
<circle cx="1702" cy="274" r="10" class="c0"/>
<circle cx="928" cy="612" r="10" class="c0"/>
<circle cx="946" cy="904" r="10" class="c0"/>
<circle cx="1624" cy="192" r="10" class="c0"/>
<circle cx="1290" cy="62" r="10" class="c0"/>
<circle cx="1266" cy="10" r="10" class="c0"/>
<circle cx="1888" cy="480" r="10" class="c0"/>
<circle cx="828" cy="426" r="10" class="c0"/>
<circle cx="1516" cy="274" r="10" class="c0"/>
<circle cx="1728" cy="394" r="10" class="c0"/>
<circle cx="1824" cy="284" r="10" class="c0"/>
<circle cx="1778" cy="312" r="10" class="c0"/>
<circle cx="928" cy="794" r="10" class="c0"/>
<circle cx="762" cy="992" r="10" class="c0"/>
<circle cx="880" cy="578" r="10" class="c0"/>
<circle cx="1856" cy="390" r="10" class="c0"/>
<circle cx="1824" cy="454" r="10" class="c0"/>
<circle cx="1422" cy="104" r="10" class="c0"/>
<circle cx="904" cy="752" r="10" class="c0"/>
<circle cx="1536" cy="92" r="10" class="c0"/>
<circle cx="782" cy="832" r="10" class="c0"/>
<circle cx="1566" cy="272" r="10" class="c0"/>
<circle cx="1642" cy="164" r="10" class="c0"/>
<circle cx="902" cy="448" r="10" class="c0"/>
<circle cx="1002" cy="886" r="10" class="c0"/>
<circle cx="864" cy="828" r="10" class="c0"/>
<circle cx="822" cy="668" r="10" class="c0"/>
<circle cx="850" cy="428" r="10" class="c0"/>
<circle cx="876" cy="946" r="10" class="c0"/>
<circle cx="792" cy="744" r="10" class="c0"/>
<circle cx="834" cy="528" r="10" class="c0"/>
<circle cx="776" cy="918" r="10" class="c0"/>
<circle cx="908" cy="1024" r="10" class="c0"/>
<circle cx="1814" cy="472" r="10" class="c0"/>
<circle cx="1486" cy="236" r="10" class="c0"/>
<circle cx="1704" cy="394" r="10" class="c0"/>
<circle cx="808" cy="680" r="10" class="c0"/>
<circle cx="1404" cy="202" r="10" class="c0"/>
<circle cx="930" cy="726" r="10" class="c0"/>
<circle cx="1612" cy="120" r="10" class="c0"/>
<circle cx="770" cy="958" r="10" class="c0"/>
<circle cx="1444" cy="202" r="10" class="c0"/>
<circle cx="1782" cy="346" r="10" class="c0"/>
<circle cx="1464" cy="30" r="8" class="c0"/>
<circle cx="906" cy="606" r="8" class="c0"/>
<circle cx="1708" cy="310" r="8" class="c0"/>
<circle cx="1210" cy="12" r="8" class="c0"/>
<circle cx="1442" cy="52" r="8" class="c0"/>
<circle cx="1478" cy="90" r="8" class="c0"/>
<circle cx="1714" cy="370" r="8" class="c0"/>
<circle cx="1354" cy="14" r="8" class="c0"/>
<circle cx="818" cy="510" r="8" class="c0"/>
<circle cx="828" cy="494" r="8" class="c0"/>
<circle cx="1522" cy="130" r="8" class="c0"/>
<circle cx="794" cy="968" r="8" class="c0"/>
<circle cx="828" cy="818" r="8" class="c0"/>
<circle cx="1406" cy="166" r="8" class="c0"/>
<circle cx="1532" cy="294" r="8" class="c0"/>
<circle cx="820" cy="612" r="8" class="c0"/>
<circle cx="808" cy="760" r="8" class="c0"/>
<circle cx="1436" cy="22" r="8" class="c0"/>
<circle cx="1820" cy="306" r="8" class="c0"/>
<circle cx="1776" cy="376" r="8" class="c0"/>
<circle cx="1394" cy="14" r="8" class="c0"/>
<circle cx="994" cy="854" r="8" class="c0"/>
<circle cx="1380" cy="140" r="8" class="c0"/>
<circle cx="1360" cy="54" r="8" class="c0"/>
<circle cx="1316" cy="8" r="8" class="c0"/>
<circle cx="1894" cy="422" r="8" class="c0"/>
<circle cx="1346" cy="92" r="8" class="c0"/>
<circle cx="892" cy="648" r="8" class="c0"/>
<circle cx="1454" cy="172" r="8" class="c0"/>
<circle cx="778" cy="886" r="8" class="c0"/>
<circle cx="1286" cy="22" r="8" class="c0"/>
<circle cx="850" cy="622" r="8" class="c0"/>
<circle cx="860" cy="668" r="8" class="c0"/>
<circle cx="1712" cy="234" r="8" class="c0"/>
<circle cx="828" cy="746" r="8" class="c0"/>
<circle cx="1796" cy="400" r="8" class="c0"/>
<circle cx="1818" cy="332" r="8" class="c0"/>
<circle cx="774" cy="1062" r="8" class="c0"/>
<circle cx="798" cy="898" r="8" class="c0"/>
<circle cx="816" cy="938" r="8" class="c0"/>
<circle cx="1382" cy="160" r="8" class="c0"/>
<circle cx="1846" cy="368" r="8" class="c0"/>
<circle cx="828" cy="794" r="8" class="c0"/>
<circle cx="806" cy="412" r="8" class="c0"/>
<circle cx="816" cy="828" r="8" class="c0"/>
<circle cx="1478" cy="172" r="8" class="c0"/>
<circle cx="1612" cy="260" r="8" class="c0"/>
<circle cx="1868" cy="456" r="8" class="c0"/>
<circle cx="878" cy="552" r="8" class="c0"/>
<circle cx="864" cy="484" r="8" class="c0"/>
<circle cx="754" cy="866" r="8" class="c0"/>
<circle cx="1504" cy="100" r="8" class="c0"/>
<circle cx="1416" cy="82" r="8" class="c0"/>
<circle cx="1858" cy="358" r="8" class="c0"/>
<circle cx="1798" cy="456" r="8" class="c0"/>
<circle cx="1258" cy="56" r="8" class="c0"/>
<circle cx="774" cy="756" r="8" class="c0"/>
<circle cx="766" cy="1022" r="8" class="c0"/>
<circle cx="878" cy="872" r="8" class="c0"/>
<circle cx="870" cy="782" r="8" class="c0"/>
<circle cx="1838" cy="314" r="8" class="c0"/>
<circle cx="842" cy="602" r="8" class="c0"/>
<circle cx="1558" cy="82" r="8" class="c0"/>
<circle cx="794" cy="668" r="8" class="c0"/>
<circle cx="1344" cy="148" r="8" class="c0"/>
<circle cx="802" cy="386" r="8" class="c0"/>
<circle cx="932" cy="706" r="8" class="c0"/>
<circle cx="1730" cy="224" r="8" class="c0"/>
<circle cx="820" cy="394" r="8" class="c0"/>
<circle cx="1590" cy="210" r="8" class="c0"/>
<circle cx="1824" cy="418" r="8" class="c0"/>
<circle cx="1346" cy="124" r="8" class="c0"/>
<circle cx="824" cy="860" r="8" class="c0"/>
<circle cx="1146" cy="32" r="8" class="c0"/>
<circle cx="1910" cy="410" r="8" class="c0"/>
<circle cx="1648" cy="284" r="8" class="c0"/>
<circle cx="924" cy="644" r="8" class="c0"/>
<circle cx="1536" cy="140" r="8" class="c0"/>
<circle cx="964" cy="862" r="8" class="c0"/>
<circle cx="1904" cy="386" r="8" class="c0"/>
<circle cx="860" cy="742" r="8" class="c0"/>
<circle cx="1684" cy="230" r="8" class="c0"/>
<circle cx="1326" cy="152" r="8" class="c0"/>
<circle cx="1506" cy="76" r="8" class="c0"/>
<circle cx="1270" cy="116" r="8" class="c0"/>
<circle cx="916" cy="964" r="8" class="c0"/>
<circle cx="898" cy="876" r="8" class="c0"/>
<circle cx="792" cy="860" r="8" class="c0"/>
<circle cx="1318" cy="84" r="8" class="c0"/>
<circle cx="914" cy="776" r="8" class="c0"/>
<circle cx="1798" cy="362" r="8" class="c0"/>
<circle cx="1468" cy="188" r="8" class="c0"/>
<circle cx="992" cy="904" r="8" class="c0"/>
<circle cx="1188" cy="8" r="8" class="c0"/>
<circle cx="860" cy="582" r="8" class="c0"/>
<circle cx="1470" cy="124" r="8" class="c0"/>
<circle cx="1434" cy="184" r="8" class="c0"/>
<circle cx="1724" cy="338" r="8" class="c0"/>
<circle cx="868" cy="966" r="8" class="c0"/>
<circle cx="876" cy="392" r="8" class="c0"/>
<circle cx="1882" cy="384" r="8" class="c0"/>
<circle cx="1576" cy="324" r="8" class="c0"/>
<circle cx="1384" cy="24" r="8" class="c0"/>
<circle cx="908" cy="670" r="8" class="c0"/>
<circle cx="1718" cy="252" r="8" class="c0"/>
<circle cx="778" cy="722" r="8" class="c0"/>
<circle cx="1298" cy="146" r="8" class="c0"/>
<circle cx="832" cy="904" r="8" class="c0"/>
<circle cx="900" cy="586" r="8" class="c0"/>
<circle cx="804" cy="654" r="8" class="c0"/>
<circle cx="874" cy="640" r="8" class="c0"/>
<circle cx="1606" cy="316" r="8" class="c0"/>
<circle cx="912" cy="1048" r="8" class="c0"/>
<circle cx="1526" cy="192" r="8" class="c0"/>
<circle cx="816" cy="736" r="8" class="c0"/>
<circle cx="1486" cy="112" r="8" class="c0"/>
<circle cx="1590" cy="118" r="8" class="c0"/>
<circle cx="1880" cy="440" r="8" class="c0"/>
<circle cx="938" cy="508" r="8" class="c0"/>
<circle cx="1496" cy="268" r="8" class="c0"/>
<circle cx="1786" cy="446" r="8" class="c0"/>
<circle cx="1384" cy="50" r="8" class="c0"/>
<circle cx="1658" cy="268" r="8" class="c0"/>
<circle cx="846" cy="846" r="8" class="c0"/>
<circle cx="948" cy="592" r="8" class="c0"/>
<circle cx="1566" cy="116" r="8" class="c0"/>
<circle cx="910" cy="1078" r="8" class="c0"/>
<circle cx="912" cy="380" r="8" class="c0"/>
<circle cx="1134" cy="14" r="8" class="c0"/>
<circle cx="956" cy="814" r="8" class="c0"/>
<circle cx="894" cy="802" r="8" class="c0"/>
<circle cx="1784" cy="466" r="8" class="c0"/>
<circle cx="1906" cy="504" r="8" class="c0"/>
<circle cx="1748" cy="388" r="8" class="c0"/>
<circle cx="796" cy="634" r="8" class="c0"/>
<circle cx="874" cy="706" r="8" class="c0"/>
<circle cx="928" cy="670" r="8" class="c0"/>
<circle cx="1222" cy="32" r="8" class="c0"/>
<circle cx="916" cy="994" r="8" class="c0"/>
<circle cx="1636" cy="272" r="8" class="c0"/>
<circle cx="946" cy="742" r="8" class="c0"/>
<circle cx="1642" cy="200" r="8" class="c0"/>
<circle cx="1594" cy="328" r="8" class="c0"/>
<circle cx="1886" cy="406" r="8" class="c0"/>
<circle cx="942" cy="526" r="8" class="c0"/>
<circle cx="1686" cy="402" r="8" class="c0"/>
<circle cx="908" cy="718" r="8" class="c0"/>
<circle cx="1318" cy="48" r="8" class="c0"/>
<circle cx="1596" cy="276" r="8" class="c0"/>
<circle cx="1868" cy="524" r="8" class="c0"/>
<circle cx="1398" cy="68" r="8" class="c0"/>
<circle cx="842" cy="674" r="8" class="c0"/>
<circle cx="1300" cy="82" r="8" class="c0"/>
<circle cx="1384" cy="120" r="8" class="c0"/>
<circle cx="1836" cy="440" r="8" class="c0"/>
<circle cx="1516" cy="166" r="8" class="c0"/>
<circle cx="1434" cy="124" r="8" class="c0"/>
<circle cx="960" cy="790" r="8" class="c0"/>
<circle cx="1856" cy="310" r="8" class="c0"/>
<circle cx="1554" cy="256" r="8" class="c0"/>
<circle cx="912" cy="634" r="8" class="c0"/>
<circle cx="830" cy="726" r="8" class="c0"/>
<circle cx="832" cy="694" r="8" class="c0"/>
<circle cx="1740" cy="316" r="8" class="c0"/>
<circle cx="1344" cy="174" r="8" class="c0"/>
<circle cx="1766" cy="334" r="8" class="c0"/>
<circle cx="1396" cy="40" r="8" class="c0"/>
<circle cx="1500" cy="36" r="8" class="c0"/>
<circle cx="932" cy="540" r="8" class="c0"/>
<circle cx="1814" cy="408" r="8" class="c0"/>
<circle cx="886" cy="836" r="8" class="c0"/>
<circle cx="1472" cy="224" r="8" class="c0"/>
<circle cx="866" cy="884" r="8" class="c0"/>
<circle cx="986" cy="872" r="8" class="c0"/>
<circle cx="1668" cy="346" r="8" class="c0"/>
<circle cx="1808" cy="382" r="8" class="c0"/>
<circle cx="926" cy="404" r="8" class="c0"/>
<circle cx="906" cy="946" r="8" class="c0"/>
<circle cx="950" cy="872" r="8" class="c0"/>
<circle cx="1356" cy="72" r="8" class="c0"/>
<circle cx="778" cy="1012" r="8" class="c0"/>
<circle cx="1750" cy="448" r="8" class="c0"/>
<circle cx="916" cy="698" r="8" class="c0"/>
<circle cx="1910" cy="532" r="8" class="c0"/>
<circle cx="1238" cy="44" r="8" class="c0"/>
<circle cx="1616" cy="342" r="8" class="c0"/>
<circle cx="1800" cy="302" r="8" class="c0"/>
<circle cx="1216" cy="86" r="8" class="c0"/>
<circle cx="1690" cy="326" r="8" class="c0"/>
<circle cx="1178" cy="64" r="8" class="c0"/>
<circle cx="1764" cy="244" r="8" class="c0"/>
<circle cx="898" cy="992" r="8" class="c0"/>
<circle cx="1656" cy="248" r="8" class="c0"/>
<circle cx="822" cy="548" r="8" class="c0"/>
<circle cx="858" cy="694" r="8" class="c0"/>
<circle cx="1538" cy="266" r="8" class="c0"/>
<circle cx="1888" cy="364" r="8" class="c0"/>
<circle cx="1466" cy="160" r="8" class="c0"/>
<circle cx="1598" cy="138" r="8" class="c0"/>
<circle cx="1434" cy="164" r="8" class="c0"/>
<circle cx="1580" cy="140" r="8" class="c0"/>
<circle cx="822" cy="770" r="8" class="c0"/>
<circle cx="1746" cy="334" r="8" class="c0"/>
<circle cx="1772" cy="436" r="8" class="c0"/>
<circle cx="1884" cy="504" r="8" class="c0"/>
<circle cx="1508" cy="218" r="8" class="c0"/>
<circle cx="1678" cy="364" r="8" class="c0"/>
<circle cx="1786" cy="388" r="8" class="c0"/>
<circle cx="1580" cy="198" r="8" class="c0"/>
<circle cx="1790" cy="252" r="8" class="c0"/>
<circle cx="842" cy="404" r="8" class="c0"/>
<circle cx="1262" cy="100" r="8" class="c0"/>
<circle cx="896" cy="1064" r="8" class="c0"/>
<circle cx="1644" cy="236" r="8" class="c0"/>
<circle cx="832" cy="588" r="8" class="c0"/>
<circle cx="1476" cy="40" r="8" class="c0"/>
<circle cx="1624" cy="244" r="8" class="c0"/>
<circle cx="1674" cy="172" r="8" class="c0"/>
<circle cx="1494" cy="160" r="8" class="c0"/>
<circle cx="1664" cy="160" r="8" class="c0"/>
<circle cx="894" cy="396" r="8" class="c0"/>
<circle cx="1802" cy="320" r="8" class="c0"/>
<circle cx="1840" cy="348" r="8" class="c0"/>
<circle cx="962" cy="916" r="8" class="c0"/>
<circle cx="1276" cy="46" r="8" class="c0"/>
<circle cx="878" cy="658" r="8" class="c0"/>
<circle cx="1164" cy="48" r="8" class="c0"/>
<circle cx="1414" cy="10" r="8" class="c0"/>
<circle cx="1190" cy="84" r="8" class="c0"/>
<circle cx="1722" cy="422" r="8" class="c0"/>
<circle cx="1132" cy="42" r="8" class="c0"/>
<circle cx="1668" cy="390" r="8" class="c0"/>
<circle cx="1488" cy="70" r="8" class="c0"/>
<circle cx="858" cy="864" r="8" class="c0"/>
<circle cx="1308" cy="158" r="8" class="c0"/>
<circle cx="1364" cy="120" r="8" class="c0"/>
<circle cx="862" cy="516" r="8" class="c0"/>
<circle cx="868" cy="726" r="8" class="c0"/>
<circle cx="884" cy="598" r="8" class="c0"/>
<circle cx="1868" cy="402" r="8" class="c0"/>
<circle cx="786" cy="622" r="8" class="c0"/>
<circle cx="1362" cy="144" r="8" class="c0"/>
<circle cx="1622" cy="166" r="8" class="c0"/>
<circle cx="882" cy="750" r="8" class="c0"/>
<circle cx="804" cy="844" r="8" class="c0"/>
<circle cx="1252" cy="34" r="8" class="c0"/>
<circle cx="1498" cy="126" r="8" class="c0"/>
<circle cx="1396" cy="150" r="8" class="c0"/>
<circle cx="1782" cy="292" r="8" class="c0"/>
<circle cx="976" cy="852" r="8" class="c0"/>
<circle cx="1506" cy="258" r="8" class="c0"/>
<circle cx="1620" cy="212" r="8" class="c0"/>
<circle cx="816" cy="966" r="8" class="c0"/>
<circle cx="932" cy="840" r="8" class="c0"/>
<circle cx="1856" cy="506" r="8" class="c0"/>
<circle cx="740" cy="1062" r="8" class="c0"/>
<circle cx="1868" cy="370" r="8" class="c0"/>
<circle cx="810" cy="784" r="8" class="c0"/>
<circle cx="1362" cy="166" r="8" class="c0"/>
<circle cx="1468" cy="12" r="8" class="c0"/>
<circle cx="938" cy="926" r="8" class="c0"/>
<circle cx="780" cy="786" r="8" class="c0"/>
<circle cx="1638" cy="320" r="8" class="c0"/>
<circle cx="760" cy="1074" r="8" class="c0"/>
<circle cx="1648" cy="344" r="8" class="c0"/>
<circle cx="1908" cy="666" r="8" class="c0"/>
<circle cx="926" cy="908" r="8" class="c0"/>
<circle cx="1604" cy="188" r="8" class="c0"/>
<circle cx="1872" cy="422" r="8" class="c0"/>
<circle cx="896" cy="520" r="8" class="c0"/>
<circle cx="1506" cy="56" r="8" class="c0"/>
<circle cx="832" cy="836" r="8" class="c0"/>
<circle cx="1604" cy="294" r="8" class="c0"/>
<circle cx="1666" cy="294" r="8" class="c0"/>
<circle cx="824" cy="460" r="8" class="c0"/>
<circle cx="784" cy="768" r="8" class="c0"/>
<circle cx="1414" cy="60" r="8" class="c0"/>
<circle cx="1698" cy="254" r="8" class="c0"/>
<circle cx="1526" cy="156" r="8" class="c0"/>
<circle cx="918" cy="596" r="8" class="c0"/>
<circle cx="1502" cy="178" r="8" class="c0"/>
<circle cx="886" cy="894" r="8" class="c0"/>
<circle cx="1888" cy="546" r="8" class="c0"/>
<circle cx="1740" cy="408" r="8" class="c0"/>
<circle cx="1182" cy="40" r="8" class="c0"/>
<circle cx="1152" cy="8" r="8" class="c0"/>
<circle cx="752" cy="886" r="8" class="c0"/>
<circle cx="880" cy="792" r="8" class="c0"/>
<circle cx="778" cy="810" r="8" class="c0"/>
<circle cx="886" cy="1078" r="8" class="c0"/>
<circle cx="838" cy="444" r="8" class="c0"/>
<circle cx="858" cy="394" r="8" class="c0"/>
<circle cx="826" cy="924" r="8" class="c0"/>
<circle cx="1556" cy="106" r="8" class="c0"/>
<circle cx="1700" cy="218" r="8" class="c0"/>
<circle cx="852" cy="974" r="8" class="c0"/>
<circle cx="1374" cy="64" r="8" class="c0"/>
<circle cx="848" cy="732" r="8" class="c0"/>
<circle cx="1620" cy="282" r="8" class="c0"/>
<circle cx="826" cy="376" r="8" class="c0"/>
<circle cx="1724" cy="272" r="8" class="c0"/>
<circle cx="898" cy="704" r="8" class="c0"/>
<circle cx="1814" cy="434" r="8" class="c0"/>
<circle cx="1518" cy="208" r="8" class="c0"/>
<circle cx="896" cy="846" r="8" class="c0"/>
<circle cx="946" cy="802" r="8" class="c0"/>
<circle cx="864" cy="410" r="6" class="c0"/>
<circle cx="1446" cy="254" r="6" class="c0"/>
<circle cx="824" cy="708" r="6" class="c0"/>
<circle cx="1538" cy="240" r="6" class="c0"/>
<circle cx="914" cy="510" r="6" class="c0"/>
<circle cx="1552" cy="316" r="6" class="c0"/>
<circle cx="1448" cy="34" r="6" class="c0"/>
<circle cx="1524" cy="76" r="6" class="c0"/>
<circle cx="838" cy="808" r="6" class="c0"/>
<circle cx="938" cy="780" r="6" class="c0"/>
<circle cx="908" cy="922" r="6" class="c0"/>
<circle cx="1800" cy="338" r="6" class="c0"/>
<circle cx="1456" cy="246" r="6" class="c0"/>
<circle cx="890" cy="378" r="6" class="c0"/>
<circle cx="918" cy="682" r="6" class="c0"/>
<circle cx="798" cy="552" r="6" class="c0"/>
<circle cx="1892" cy="348" r="6" class="c0"/>
<circle cx="870" cy="468" r="6" class="c0"/>
<circle cx="1900" cy="338" r="6" class="c0"/>
<circle cx="1642" cy="144" r="6" class="c0"/>
<circle cx="1630" cy="126" r="6" class="c0"/>
<circle cx="914" cy="842" r="6" class="c0"/>
<circle cx="1758" cy="262" r="6" class="c0"/>
<circle cx="1458" cy="78" r="6" class="c0"/>
<circle cx="1336" cy="8" r="6" class="c0"/>
<circle cx="1112" cy="8" r="6" class="c0"/>
<circle cx="1772" cy="398" r="6" class="c0"/>
<circle cx="972" cy="804" r="6" class="c0"/>
<circle cx="1782" cy="426" r="6" class="c0"/>
<circle cx="1350" cy="44" r="6" class="c0"/>
<circle cx="896" cy="1012" r="6" class="c0"/>
<circle cx="1826" cy="376" r="6" class="c0"/>
<circle cx="1452" cy="6" r="6" class="c0"/>
<circle cx="1094" cy="8" r="6" class="c0"/>
<circle cx="884" cy="406" r="6" class="c0"/>
<circle cx="1764" cy="386" r="6" class="c0"/>
<circle cx="1464" cy="208" r="6" class="c0"/>
<circle cx="1768" cy="458" r="6" class="c0"/>
<circle cx="1730" cy="356" r="6" class="c0"/>
<circle cx="1320" cy="26" r="6" class="c0"/>
<circle cx="1468" cy="100" r="6" class="c0"/>
<circle cx="1702" cy="418" r="6" class="c0"/>
<circle cx="920" cy="1010" r="6" class="c0"/>
<circle cx="1494" cy="88" r="6" class="c0"/>
<circle cx="1372" cy="12" r="6" class="c0"/>
<circle cx="774" cy="866" r="6" class="c0"/>
<circle cx="822" cy="476" r="6" class="c0"/>
<circle cx="1118" cy="24" r="6" class="c0"/>
<circle cx="904" cy="688" r="6" class="c0"/>
<circle cx="1434" cy="142" r="6" class="c0"/>
<circle cx="1404" cy="24" r="6" class="c0"/>
<circle cx="1910" cy="588" r="6" class="c0"/>
<circle cx="1628" cy="330" r="6" class="c0"/>
<circle cx="1880" cy="322" r="6" class="c0"/>
<circle cx="1758" cy="320" r="6" class="c0"/>
<circle cx="866" cy="758" r="6" class="c0"/>
<circle cx="924" cy="500" r="6" class="c0"/>
<circle cx="1418" cy="192" r="6" class="c0"/>
<circle cx="894" cy="1048" r="6" class="c0"/>
<circle cx="1718" cy="322" r="6" class="c0"/>
<circle cx="952" cy="834" r="6" class="c0"/>
<circle cx="1708" cy="330" r="6" class="c0"/>
<circle cx="1650" cy="304" r="6" class="c0"/>
<circle cx="846" cy="542" r="6" class="c0"/>
<circle cx="908" cy="570" r="6" class="c0"/>
<circle cx="910" cy="734" r="6" class="c0"/>
<circle cx="1404" cy="122" r="6" class="c0"/>
<circle cx="1272" cy="30" r="6" class="c0"/>
<circle cx="920" cy="1064" r="6" class="c0"/>
<circle cx="1316" cy="68" r="6" class="c0"/>
<circle cx="840" cy="656" r="6" class="c0"/>
<circle cx="908" cy="652" r="6" class="c0"/>
<circle cx="862" cy="546" r="6" class="c0"/>
<circle cx="1394" cy="130" r="6" class="c0"/>
<circle cx="810" cy="622" r="6" class="c0"/>
<circle cx="1912" cy="484" r="6" class="c0"/>
<circle cx="832" cy="978" r="6" class="c0"/>
<circle cx="1520" cy="106" r="6" class="c0"/>
<circle cx="1834" cy="330" r="6" class="c0"/>
<circle cx="848" cy="894" r="6" class="c0"/>
<circle cx="1704" cy="292" r="6" class="c0"/>
<circle cx="884" cy="812" r="6" class="c0"/>
<circle cx="776" cy="664" r="6" class="c0"/>
<circle cx="938" cy="582" r="6" class="c0"/>
<circle cx="1288" cy="126" r="6" class="c0"/>
<circle cx="988" cy="834" r="6" class="c0"/>
<circle cx="1912" cy="432" r="6" class="c0"/>
<circle cx="802" cy="820" r="6" class="c0"/>
<circle cx="1284" cy="6" r="6" class="c0"/>
<circle cx="770" cy="900" r="6" class="c0"/>
<circle cx="1456" cy="216" r="6" class="c0"/>
<circle cx="794" cy="878" r="6" class="c0"/>
<circle cx="1308" cy="58" r="6" class="c0"/>
<circle cx="1866" cy="324" r="6" class="c0"/>
<circle cx="1758" cy="402" r="6" class="c0"/>
<circle cx="1516" cy="86" r="6" class="c0"/>
<circle cx="768" cy="708" r="6" class="c0"/>
<circle cx="1550" cy="280" r="6" class="c0"/>
<circle cx="810" cy="372" r="6" class="c0"/>
<circle cx="794" cy="778" r="6" class="c0"/>
<circle cx="1562" cy="184" r="6" class="c0"/>
<circle cx="1740" cy="212" r="6" class="c0"/>
<circle cx="960" cy="578" r="6" class="c0"/>
<circle cx="904" cy="790" r="6" class="c0"/>
<circle cx="856" cy="950" r="6" class="c0"/>
<circle cx="1780" cy="242" r="6" class="c0"/>
<circle cx="1350" cy="108" r="6" class="c0"/>
<circle cx="766" cy="876" r="6" class="c0"/>
<circle cx="928" cy="374" r="6" class="c0"/>
<circle cx="1910" cy="614" r="6" class="c0"/>
<circle cx="1678" cy="336" r="6" class="c0"/>
<circle cx="1676" cy="318" r="6" class="c0"/>
<circle cx="1420" cy="174" r="6" class="c0"/>
<circle cx="842" cy="916" r="6" class="c0"/>
<circle cx="864" cy="934" r="6" class="c0"/>
<circle cx="846" cy="824" r="6" class="c0"/>
<circle cx="1732" cy="244" r="6" class="c0"/>
<circle cx="1460" cy="136" r="6" class="c0"/>
<circle cx="972" cy="904" r="6" class="c0"/>
<circle cx="912" cy="806" r="6" class="c0"/>
<circle cx="808" cy="868" r="6" class="c0"/>
<circle cx="1676" cy="188" r="6" class="c0"/>
<circle cx="1486" cy="50" r="6" class="c0"/>
<circle cx="816" cy="696" r="6" class="c0"/>
<circle cx="1844" cy="294" r="6" class="c0"/>
<circle cx="1432" cy="6" r="6" class="c0"/>
<circle cx="740" cy="920" r="6" class="c0"/>
<circle cx="1518" cy="36" r="6" class="c0"/>
<circle cx="804" cy="954" r="6" class="c0"/>
<circle cx="1912" cy="468" r="6" class="c0"/>
<circle cx="1418" cy="232" r="6" class="c0"/>
<circle cx="1460" cy="270" r="6" class="c0"/>
<circle cx="1882" cy="562" r="6" class="c0"/>
<circle cx="848" cy="790" r="6" class="c0"/>
<circle cx="1606" cy="156" r="6" class="c0"/>
<circle cx="1552" cy="154" r="6" class="c0"/>
<circle cx="1786" cy="328" r="6" class="c0"/>
<circle cx="1314" cy="174" r="6" class="c0"/>
<circle cx="768" cy="822" r="6" class="c0"/>
<circle cx="1570" cy="344" r="6" class="c0"/>
<circle cx="1334" cy="134" r="6" class="c0"/>
<circle cx="876" cy="766" r="6" class="c0"/>
<circle cx="906" cy="1096" r="6" class="c0"/>
<circle cx="1300" cy="10" r="6" class="c0"/>
<circle cx="906" cy="468" r="6" class="c0"/>
<circle cx="962" cy="842" r="6" class="c0"/>
<circle cx="1522" cy="310" r="6" class="c0"/>
<circle cx="1310" cy="114" r="6" class="c0"/>
<circle cx="1600" cy="106" r="6" class="c0"/>
<circle cx="818" cy="806" r="6" class="c0"/>
<circle cx="1574" cy="256" r="6" class="c0"/>
<circle cx="876" cy="904" r="6" class="c0"/>
<circle cx="778" cy="1032" r="6" class="c0"/>
<circle cx="1328" cy="122" r="6" class="c0"/>
<circle cx="1884" cy="458" r="6" class="c0"/>
<circle cx="1464" cy="238" r="6" class="c0"/>
<circle cx="1278" cy="96" r="6" class="c0"/>
<circle cx="1576" cy="182" r="6" class="c0"/>
<circle cx="786" cy="604" r="6" class="c0"/>
<circle cx="1154" cy="68" r="6" class="c0"/>
<circle cx="942" cy="646" r="6" class="c0"/>
<circle cx="1512" cy="118" r="6" class="c0"/>
<circle cx="1786" cy="412" r="6" class="c0"/>
<circle cx="838" cy="480" r="6" class="c0"/>
<circle cx="1640" cy="252" r="6" class="c0"/>
<circle cx="916" cy="562" r="6" class="c0"/>
<circle cx="1586" cy="266" r="6" class="c0"/>
<circle cx="890" cy="436" r="6" class="c0"/>
<circle cx="926" cy="518" r="6" class="c0"/>
<circle cx="834" cy="620" r="6" class="c0"/>
<circle cx="952" cy="538" r="6" class="c0"/>
<circle cx="1504" cy="234" r="6" class="c0"/>
<circle cx="1460" cy="92" r="6" class="c0"/>
<circle cx="1094" cy="26" r="6" class="c0"/>
<circle cx="1308" cy="100" r="6" class="c0"/>
<circle cx="1410" cy="182" r="6" class="c0"/>
<circle cx="794" cy="726" r="6" class="c0"/>
<circle cx="1356" cy="208" r="6" class="c0"/>
<circle cx="1504" cy="286" r="6" class="c0"/>
<circle cx="1638" cy="294" r="6" class="c0"/>
<circle cx="890" cy="862" r="6" class="c0"/>
<circle cx="1166" cy="76" r="6" class="c0"/>
<circle cx="930" cy="856" r="6" class="c0"/>
<circle cx="766" cy="770" r="6" class="c0"/>
<circle cx="774" cy="738" r="6" class="c0"/>
<circle cx="816" cy="908" r="6" class="c0"/>
<circle cx="928" cy="768" r="6" class="c0"/>
<circle cx="1122" cy="56" r="6" class="c0"/>
<circle cx="1584" cy="338" r="6" class="c0"/>
<circle cx="768" cy="628" r="6" class="c0"/>
<circle cx="1774" cy="258" r="6" class="c0"/>
<circle cx="852" cy="530" r="6" class="c0"/>
<circle cx="1206" cy="76" r="6" class="c0"/>
<circle cx="1586" cy="226" r="6" class="c0"/>
<circle cx="1334" cy="82" r="6" class="c0"/>
<circle cx="1212" cy="44" r="6" class="c0"/>
<circle cx="844" cy="750" r="6" class="c0"/>
<circle cx="1452" cy="126" r="6" class="c0"/>
<circle cx="1878" cy="576" r="6" class="c0"/>
<circle cx="1668" cy="236" r="6" class="c0"/>
<circle cx="1270" cy="150" r="6" class="c0"/>
<circle cx="1004" cy="868" r="6" class="c0"/>
<circle cx="1814" cy="270" r="6" class="c0"/>
<circle cx="1226" cy="6" r="6" class="c0"/>
<circle cx="908" cy="978" r="6" class="c0"/>
<circle cx="776" cy="938" r="6" class="c0"/>
<circle cx="892" cy="936" r="6" class="c0"/>
<circle cx="1458" cy="46" r="6" class="c0"/>
<circle cx="934" cy="654" r="6" class="c0"/>
<circle cx="868" cy="566" r="6" class="c0"/>
<circle cx="1516" cy="66" r="6" class="c0"/>
<circle cx="1454" cy="20" r="6" class="c0"/>
<circle cx="908" cy="886" r="6" class="c0"/>
<circle cx="1656" cy="146" r="6" class="c0"/>
<circle cx="1912" cy="548" r="6" class="c0"/>
<circle cx="892" cy="666" r="6" class="c0"/>
<circle cx="864" cy="630" r="6" class="c0"/>
<circle cx="810" cy="428" r="6" class="c0"/>
<circle cx="794" cy="400" r="6" class="c0"/>
<circle cx="918" cy="660" r="6" class="c0"/>
<circle cx="1538" cy="310" r="6" class="c0"/>
<circle cx="784" cy="1072" r="6" class="c0"/>
<circle cx="1324" cy="184" r="6" class="c0"/>
<circle cx="926" cy="1076" r="6" class="c0"/>
<circle cx="1200" cy="106" r="6" class="c0"/>
<circle cx="1328" cy="170" r="6" class="c0"/>
<circle cx="1820" cy="492" r="6" class="c0"/>
<circle cx="942" cy="824" r="6" class="c0"/>
<circle cx="1840" cy="510" r="6" class="c0"/>
<circle cx="1106" cy="38" r="6" class="c0"/>
<circle cx="1716" cy="354" r="6" class="c0"/>
<circle cx="1252" cy="112" r="6" class="c0"/>
<circle cx="796" cy="692" r="6" class="c0"/>
<circle cx="1424" cy="154" r="6" class="c0"/>
<circle cx="886" cy="456" r="6" class="c0"/>
<circle cx="1250" cy="82" r="6" class="c0"/>
<circle cx="786" cy="388" r="6" class="c0"/>
<circle cx="1688" cy="264" r="6" class="c0"/>
<circle cx="1892" cy="580" r="6" class="c0"/>
<circle cx="1890" cy="330" r="6" class="c0"/>
<circle cx="1716" cy="406" r="6" class="c0"/>
<circle cx="1606" cy="204" r="6" class="c0"/>
<circle cx="1592" cy="346" r="6" class="c0"/>
<circle cx="776" cy="1080" r="6" class="c0"/>
<circle cx="922" cy="550" r="6" class="c0"/>
<circle cx="1102" cy="16" r="6" class="c0"/>
<circle cx="1220" cy="110" r="6" class="c0"/>
<circle cx="1510" cy="194" r="6" class="c0"/>
<circle cx="1566" cy="314" r="6" class="c0"/>
<circle cx="836" cy="388" r="6" class="c0"/>
<circle cx="1276" cy="134" r="6" class="c0"/>
<circle cx="1608" cy="370" r="6" class="c0"/>
<circle cx="1406" cy="92" r="6" class="c0"/>
<circle cx="916" cy="580" r="6" class="c0"/>
<circle cx="1436" cy="94" r="6" class="c0"/>
</svg>
