<?xml version="1.0" encoding="utf-8"?>
<svg xmlns="http://www.w3.org/2000/svg"
     xmlns:xlink="http://www.w3.org/1999/xlink" width="1920" height="1440" >

            <defs>
            <style type="text/css"><![CDATA[
circle {stroke: none;}
.c0 {fill: #FFFFFF;}
]]></style>
            </defs>
<rect x="0" y="0" width="1920" height="1440" fill="black"/>
<circle cx="1714" cy="198" r="12" class="c0"/>
<circle cx="1758" cy="106" r="12" class="c0"/>
<circle cx="884" cy="438" r="12" class="c0"/>
<circle cx="1846" cy="228" r="12" class="c0"/>
<circle cx="1730" cy="28" r="12" class="c0"/>
<circle cx="1650" cy="114" r="12" class="c0"/>
<circle cx="780" cy="858" r="12" class="c0"/>
<circle cx="1678" cy="74" r="12" class="c0"/>
<circle cx="788" cy="934" r="12" class="c0"/>
<circle cx="822" cy="592" r="12" class="c0"/>
<circle cx="1868" cy="84" r="12" class="c0"/>
<circle cx="1818" cy="218" r="12" class="c0"/>
<circle cx="854" cy="962" r="12" class="c0"/>
<circle cx="1658" cy="56" r="12" class="c0"/>
<circle cx="1862" cy="116" r="12" class="c0"/>
<circle cx="1906" cy="242" r="12" class="c0"/>
<circle cx="896" cy="732" r="12" class="c0"/>
<circle cx="860" cy="746" r="12" class="c0"/>
<circle cx="1800" cy="122" r="12" class="c0"/>
<circle cx="844" cy="650" r="12" class="c0"/>
<circle cx="934" cy="622" r="12" class="c0"/>
<circle cx="1804" cy="178" r="12" class="c0"/>
<circle cx="890" cy="958" r="12" class="c0"/>
<circle cx="832" cy="522" r="12" class="c0"/>
<circle cx="864" cy="712" r="12" class="c0"/>
<circle cx="1756" cy="202" r="12" class="c0"/>
<circle cx="916" cy="478" r="12" class="c0"/>
<circle cx="826" cy="896" r="12" class="c0"/>
<circle cx="1714" cy="104" r="12" class="c0"/>
<circle cx="918" cy="786" r="12" class="c0"/>
<circle cx="828" cy="926" r="10" class="c0"/>
<circle cx="1886" cy="258" r="10" class="c0"/>
<circle cx="892" cy="512" r="10" class="c0"/>
<circle cx="844" cy="464" r="10" class="c0"/>
<circle cx="982" cy="814" r="10" class="c0"/>
<circle cx="868" cy="634" r="10" class="c0"/>
<circle cx="882" cy="684" r="10" class="c0"/>
<circle cx="968" cy="774" r="10" class="c0"/>
<circle cx="902" cy="450" r="10" class="c0"/>
<circle cx="922" cy="884" r="10" class="c0"/>
<circle cx="932" cy="1070" r="10" class="c0"/>
<circle cx="1856" cy="140" r="10" class="c0"/>
<circle cx="1830" cy="108" r="10" class="c0"/>
<circle cx="930" cy="552" r="10" class="c0"/>
<circle cx="894" cy="706" r="10" class="c0"/>
<circle cx="868" cy="554" r="10" class="c0"/>
<circle cx="780" cy="1018" r="10" class="c0"/>
<circle cx="1668" cy="154" r="10" class="c0"/>
<circle cx="1832" cy="162" r="10" class="c0"/>
<circle cx="1632" cy="80" r="10" class="c0"/>
<circle cx="1874" cy="290" r="10" class="c0"/>
<circle cx="770" cy="902" r="10" class="c0"/>
<circle cx="1758" cy="160" r="10" class="c0"/>
<circle cx="870" cy="672" r="10" class="c0"/>
<circle cx="870" cy="478" r="10" class="c0"/>
<circle cx="1786" cy="150" r="10" class="c0"/>
<circle cx="1844" cy="184" r="10" class="c0"/>
<circle cx="1638" cy="40" r="10" class="c0"/>
<circle cx="1570" cy="76" r="10" class="c0"/>
<circle cx="970" cy="798" r="10" class="c0"/>
<circle cx="934" cy="766" r="10" class="c0"/>
<circle cx="1804" cy="238" r="10" class="c0"/>
<circle cx="1794" cy="80" r="10" class="c0"/>
<circle cx="1544" cy="44" r="10" class="c0"/>
<circle cx="834" cy="744" r="10" class="c0"/>
<circle cx="834" cy="556" r="10" class="c0"/>
<circle cx="942" cy="932" r="10" class="c0"/>
<circle cx="1570" cy="20" r="10" class="c0"/>
<circle cx="916" cy="608" r="10" class="c0"/>
<circle cx="858" cy="842" r="10" class="c0"/>
<circle cx="888" cy="604" r="10" class="c0"/>
<circle cx="1690" cy="34" r="10" class="c0"/>
<circle cx="946" cy="522" r="10" class="c0"/>
<circle cx="884" cy="916" r="10" class="c0"/>
<circle cx="1744" cy="88" r="10" class="c0"/>
<circle cx="830" cy="864" r="10" class="c0"/>
<circle cx="892" cy="874" r="10" class="c0"/>
<circle cx="1788" cy="10" r="10" class="c0"/>
<circle cx="892" cy="376" r="10" class="c0"/>
<circle cx="1820" cy="86" r="10" class="c0"/>
<circle cx="888" cy="402" r="10" class="c0"/>
<circle cx="832" cy="806" r="10" class="c0"/>
<circle cx="916" cy="436" r="10" class="c0"/>
<circle cx="802" cy="616" r="10" class="c0"/>
<circle cx="1898" cy="44" r="10" class="c0"/>
<circle cx="1724" cy="148" r="10" class="c0"/>
<circle cx="978" cy="748" r="10" class="c0"/>
<circle cx="974" cy="890" r="10" class="c0"/>
<circle cx="816" cy="844" r="10" class="c0"/>
<circle cx="1754" cy="52" r="10" class="c0"/>
<circle cx="832" cy="832" r="10" class="c0"/>
<circle cx="934" cy="838" r="10" class="c0"/>
<circle cx="1706" cy="162" r="10" class="c0"/>
<circle cx="824" cy="770" r="10" class="c0"/>
<circle cx="1784" cy="46" r="10" class="c0"/>
<circle cx="810" cy="540" r="10" class="c0"/>
<circle cx="1902" cy="174" r="10" class="c0"/>
<circle cx="1584" cy="96" r="10" class="c0"/>
<circle cx="1882" cy="98" r="10" class="c0"/>
<circle cx="982" cy="840" r="10" class="c0"/>
<circle cx="894" cy="572" r="10" class="c0"/>
<circle cx="1880" cy="130" r="10" class="c0"/>
<circle cx="790" cy="814" r="10" class="c0"/>
<circle cx="956" cy="754" r="10" class="c0"/>
<circle cx="1518" cy="10" r="10" class="c0"/>
<circle cx="912" cy="388" r="10" class="c0"/>
<circle cx="1878" cy="196" r="10" class="c0"/>
<circle cx="930" cy="738" r="10" class="c0"/>
<circle cx="1898" cy="316" r="10" class="c0"/>
<circle cx="876" cy="794" r="10" class="c0"/>
<circle cx="914" cy="824" r="10" class="c0"/>
<circle cx="1684" cy="108" r="10" class="c0"/>
<circle cx="948" cy="854" r="10" class="c0"/>
<circle cx="1820" cy="46" r="8" class="c0"/>
<circle cx="962" cy="866" r="8" class="c0"/>
<circle cx="874" cy="730" r="8" class="c0"/>
<circle cx="1654" cy="10" r="8" class="c0"/>
<circle cx="1896" cy="220" r="8" class="c0"/>
<circle cx="1904" cy="294" r="8" class="c0"/>
<circle cx="948" cy="794" r="8" class="c0"/>
<circle cx="788" cy="642" r="8" class="c0"/>
<circle cx="900" cy="644" r="8" class="c0"/>
<circle cx="842" cy="444" r="8" class="c0"/>
<circle cx="834" cy="708" r="8" class="c0"/>
<circle cx="1856" cy="162" r="8" class="c0"/>
<circle cx="846" cy="598" r="8" class="c0"/>
<circle cx="1884" cy="32" r="8" class="c0"/>
<circle cx="1878" cy="60" r="8" class="c0"/>
<circle cx="902" cy="670" r="8" class="c0"/>
<circle cx="916" cy="684" r="8" class="c0"/>
<circle cx="942" cy="652" r="8" class="c0"/>
<circle cx="792" cy="698" r="8" class="c0"/>
<circle cx="1008" cy="846" r="8" class="c0"/>
<circle cx="856" cy="378" r="8" class="c0"/>
<circle cx="930" cy="574" r="8" class="c0"/>
<circle cx="796" cy="978" r="8" class="c0"/>
<circle cx="1888" cy="158" r="8" class="c0"/>
<circle cx="1906" cy="128" r="8" class="c0"/>
<circle cx="1682" cy="170" r="8" class="c0"/>
<circle cx="800" cy="714" r="8" class="c0"/>
<circle cx="1540" cy="16" r="8" class="c0"/>
<circle cx="1842" cy="274" r="8" class="c0"/>
<circle cx="772" cy="1036" r="8" class="c0"/>
<circle cx="1782" cy="204" r="8" class="c0"/>
<circle cx="1842" cy="54" r="8" class="c0"/>
<circle cx="1892" cy="72" r="8" class="c0"/>
<circle cx="956" cy="916" r="8" class="c0"/>
<circle cx="814" cy="878" r="8" class="c0"/>
<circle cx="1826" cy="138" r="8" class="c0"/>
<circle cx="1438" cy="8" r="8" class="c0"/>
<circle cx="1460" cy="18" r="8" class="c0"/>
<circle cx="1722" cy="174" r="8" class="c0"/>
<circle cx="980" cy="910" r="8" class="c0"/>
<circle cx="1606" cy="90" r="8" class="c0"/>
<circle cx="900" cy="620" r="8" class="c0"/>
<circle cx="1542" cy="68" r="8" class="c0"/>
<circle cx="858" cy="492" r="8" class="c0"/>
<circle cx="1028" cy="874" r="8" class="c0"/>
<circle cx="900" cy="852" r="8" class="c0"/>
<circle cx="862" cy="774" r="8" class="c0"/>
<circle cx="804" cy="750" r="8" class="c0"/>
<circle cx="942" cy="890" r="8" class="c0"/>
<circle cx="872" cy="928" r="8" class="c0"/>
<circle cx="904" cy="894" r="8" class="c0"/>
<circle cx="1726" cy="214" r="8" class="c0"/>
<circle cx="1906" cy="108" r="8" class="c0"/>
<circle cx="814" cy="954" r="8" class="c0"/>
<circle cx="826" cy="384" r="8" class="c0"/>
<circle cx="854" cy="884" r="8" class="c0"/>
<circle cx="922" cy="1054" r="8" class="c0"/>
<circle cx="1792" cy="102" r="8" class="c0"/>
<circle cx="1016" cy="864" r="8" class="c0"/>
<circle cx="1834" cy="70" r="8" class="c0"/>
<circle cx="852" cy="564" r="8" class="c0"/>
<circle cx="918" cy="642" r="8" class="c0"/>
<circle cx="788" cy="1066" r="8" class="c0"/>
<circle cx="814" cy="788" r="8" class="c0"/>
<circle cx="938" cy="816" r="8" class="c0"/>
<circle cx="1004" cy="822" r="8" class="c0"/>
<circle cx="1484" cy="38" r="8" class="c0"/>
<circle cx="1506" cy="24" r="8" class="c0"/>
<circle cx="1732" cy="60" r="8" class="c0"/>
<circle cx="1010" cy="900" r="8" class="c0"/>
<circle cx="1644" cy="152" r="8" class="c0"/>
<circle cx="1598" cy="64" r="8" class="c0"/>
<circle cx="1738" cy="132" r="8" class="c0"/>
<circle cx="896" cy="548" r="8" class="c0"/>
<circle cx="918" cy="518" r="8" class="c0"/>
<circle cx="1720" cy="128" r="8" class="c0"/>
<circle cx="806" cy="636" r="8" class="c0"/>
<circle cx="934" cy="990" r="8" class="c0"/>
<circle cx="910" cy="716" r="8" class="c0"/>
<circle cx="816" cy="670" r="8" class="c0"/>
<circle cx="912" cy="936" r="8" class="c0"/>
<circle cx="892" cy="936" r="8" class="c0"/>
<circle cx="922" cy="910" r="8" class="c0"/>
<circle cx="1628" cy="112" r="8" class="c0"/>
<circle cx="1910" cy="86" r="8" class="c0"/>
<circle cx="922" cy="1012" r="8" class="c0"/>
<circle cx="1698" cy="8" r="8" class="c0"/>
<circle cx="1876" cy="170" r="8" class="c0"/>
<circle cx="1868" cy="222" r="8" class="c0"/>
<circle cx="1594" cy="22" r="8" class="c0"/>
<circle cx="1622" cy="50" r="8" class="c0"/>
<circle cx="1768" cy="64" r="8" class="c0"/>
<circle cx="1864" cy="38" r="8" class="c0"/>
<circle cx="932" cy="950" r="8" class="c0"/>
<circle cx="1768" cy="184" r="8" class="c0"/>
<circle cx="964" cy="824" r="8" class="c0"/>
<circle cx="1708" cy="62" r="8" class="c0"/>
<circle cx="878" cy="496" r="8" class="c0"/>
<circle cx="962" cy="570" r="8" class="c0"/>
<circle cx="966" cy="540" r="8" class="c0"/>
<circle cx="934" cy="688" r="8" class="c0"/>
<circle cx="852" cy="618" r="8" class="c0"/>
<circle cx="910" cy="414" r="8" class="c0"/>
<circle cx="854" cy="524" r="8" class="c0"/>
<circle cx="768" cy="874" r="8" class="c0"/>
<circle cx="762" cy="934" r="8" class="c0"/>
<circle cx="912" cy="956" r="8" class="c0"/>
<circle cx="940" cy="708" r="8" class="c0"/>
<circle cx="1596" cy="108" r="8" class="c0"/>
<circle cx="920" cy="976" r="8" class="c0"/>
<circle cx="1848" cy="98" r="8" class="c0"/>
<circle cx="894" cy="766" r="8" class="c0"/>
<circle cx="850" cy="406" r="8" class="c0"/>
<circle cx="814" cy="732" r="8" class="c0"/>
<circle cx="914" cy="862" r="8" class="c0"/>
<circle cx="1766" cy="138" r="8" class="c0"/>
<circle cx="1776" cy="224" r="8" class="c0"/>
<circle cx="870" cy="368" r="8" class="c0"/>
<circle cx="904" cy="802" r="8" class="c0"/>
<circle cx="840" cy="948" r="8" class="c0"/>
<circle cx="800" cy="866" r="8" class="c0"/>
<circle cx="832" cy="408" r="8" class="c0"/>
<circle cx="1832" cy="254" r="8" class="c0"/>
<circle cx="1682" cy="130" r="8" class="c0"/>
<circle cx="996" cy="864" r="8" class="c0"/>
<circle cx="1616" cy="14" r="8" class="c0"/>
<circle cx="980" cy="566" r="8" class="c0"/>
<circle cx="860" cy="438" r="8" class="c0"/>
<circle cx="928" cy="1032" r="8" class="c0"/>
<circle cx="874" cy="386" r="8" class="c0"/>
<circle cx="1858" cy="212" r="8" class="c0"/>
<circle cx="1608" cy="36" r="8" class="c0"/>
<circle cx="806" cy="656" r="8" class="c0"/>
<circle cx="798" cy="892" r="8" class="c0"/>
<circle cx="1020" cy="890" r="8" class="c0"/>
<circle cx="1736" cy="186" r="8" class="c0"/>
<circle cx="884" cy="756" r="8" class="c0"/>
<circle cx="786" cy="988" r="8" class="c0"/>
<circle cx="1568" cy="52" r="8" class="c0"/>
<circle cx="1756" cy="10" r="8" class="c0"/>
<circle cx="928" cy="404" r="8" class="c0"/>
<circle cx="796" cy="786" r="8" class="c0"/>
<circle cx="1666" cy="100" r="8" class="c0"/>
<circle cx="920" cy="588" r="8" class="c0"/>
<circle cx="874" cy="864" r="8" class="c0"/>
<circle cx="1884" cy="232" r="8" class="c0"/>
<circle cx="1736" cy="114" r="8" class="c0"/>
<circle cx="844" cy="764" r="8" class="c0"/>
<circle cx="812" cy="400" r="8" class="c0"/>
<circle cx="962" cy="596" r="8" class="c0"/>
<circle cx="888" cy="818" r="8" class="c0"/>
<circle cx="828" cy="636" r="8" class="c0"/>
<circle cx="902" cy="926" r="8" class="c0"/>
<circle cx="1624" cy="130" r="8" class="c0"/>
<circle cx="1664" cy="134" r="8" class="c0"/>
<circle cx="1846" cy="28" r="8" class="c0"/>
<circle cx="806" cy="920" r="8" class="c0"/>
<circle cx="872" cy="888" r="8" class="c0"/>
<circle cx="1830" cy="20" r="8" class="c0"/>
<circle cx="1516" cy="52" r="8" class="c0"/>
<circle cx="1812" cy="150" r="8" class="c0"/>
<circle cx="786" cy="960" r="8" class="c0"/>
<circle cx="846" cy="906" r="8" class="c0"/>
<circle cx="880" cy="540" r="8" class="c0"/>
<circle cx="1652" cy="28" r="8" class="c0"/>
<circle cx="1802" cy="60" r="8" class="c0"/>
<circle cx="910" cy="1084" r="8" class="c0"/>
<circle cx="1722" cy="80" r="8" class="c0"/>
<circle cx="1758" cy="76" r="8" class="c0"/>
<circle cx="784" cy="762" r="8" class="c0"/>
<circle cx="754" cy="1058" r="8" class="c0"/>
<circle cx="812" cy="814" r="8" class="c0"/>
<circle cx="790" cy="680" r="8" class="c0"/>
<circle cx="1840" cy="206" r="8" class="c0"/>
<circle cx="1708" cy="26" r="8" class="c0"/>
<circle cx="894" cy="480" r="8" class="c0"/>
<circle cx="810" cy="700" r="8" class="c0"/>
<circle cx="848" cy="784" r="8" class="c0"/>
<circle cx="1846" cy="8" r="8" class="c0"/>
<circle cx="932" cy="868" r="8" class="c0"/>
<circle cx="1472" cy="28" r="8" class="c0"/>
<circle cx="1770" cy="34" r="8" class="c0"/>
<circle cx="792" cy="740" r="8" class="c0"/>
<circle cx="802" cy="386" r="8" class="c0"/>
<circle cx="1900" cy="194" r="8" class="c0"/>
<circle cx="1782" cy="170" r="8" class="c0"/>
<circle cx="1800" cy="34" r="8" class="c0"/>
<circle cx="1582" cy="32" r="8" class="c0"/>
<circle cx="864" cy="574" r="8" class="c0"/>
<circle cx="928" cy="508" r="8" class="c0"/>
<circle cx="1866" cy="246" r="8" class="c0"/>
<circle cx="1908" cy="24" r="8" class="c0"/>
<circle cx="880" cy="842" r="8" class="c0"/>
<circle cx="904" cy="498" r="8" class="c0"/>
<circle cx="906" cy="694" r="8" class="c0"/>
<circle cx="1676" cy="20" r="8" class="c0"/>
<circle cx="842" cy="576" r="8" class="c0"/>
<circle cx="1910" cy="264" r="8" class="c0"/>
<circle cx="796" cy="910" r="8" class="c0"/>
<circle cx="1698" cy="138" r="8" class="c0"/>
<circle cx="914" cy="996" r="8" class="c0"/>
<circle cx="836" cy="682" r="8" class="c0"/>
<circle cx="904" cy="752" r="8" class="c0"/>
<circle cx="1810" cy="18" r="8" class="c0"/>
<circle cx="1888" cy="10" r="8" class="c0"/>
<circle cx="864" cy="818" r="8" class="c0"/>
<circle cx="840" cy="426" r="8" class="c0"/>
<circle cx="822" cy="418" r="8" class="c0"/>
<circle cx="1696" cy="120" r="8" class="c0"/>
<circle cx="1488" cy="10" r="8" class="c0"/>
<circle cx="1000" cy="910" r="8" class="c0"/>
<circle cx="1528" cy="32" r="8" class="c0"/>
<circle cx="998" cy="888" r="8" class="c0"/>
<circle cx="864" cy="944" r="8" class="c0"/>
<circle cx="786" cy="1048" r="8" class="c0"/>
<circle cx="864" cy="458" r="8" class="c0"/>
<circle cx="864" cy="904" r="8" class="c0"/>
<circle cx="1898" cy="146" r="8" class="c0"/>
<circle cx="870" cy="420" r="8" class="c0"/>
<circle cx="878" cy="588" r="8" class="c0"/>
<circle cx="856" cy="802" r="8" class="c0"/>
<circle cx="1806" cy="258" r="8" class="c0"/>
<circle cx="834" cy="498" r="8" class="c0"/>
<circle cx="1852" cy="64" r="8" class="c0"/>
<circle cx="796" cy="1000" r="8" class="c0"/>
<circle cx="1558" cy="8" r="8" class="c0"/>
<circle cx="1784" cy="244" r="8" class="c0"/>
<circle cx="886" cy="460" r="8" class="c0"/>
<circle cx="944" cy="590" r="8" class="c0"/>
<circle cx="812" cy="572" r="8" class="c0"/>
<circle cx="1852" cy="262" r="8" class="c0"/>
<circle cx="850" cy="934" r="8" class="c0"/>
<circle cx="800" cy="834" r="8" class="c0"/>
<circle cx="1688" cy="54" r="8" class="c0"/>
<circle cx="854" cy="692" r="8" class="c0"/>
<circle cx="1776" cy="88" r="8" class="c0"/>
<circle cx="774" cy="998" r="8" class="c0"/>
<circle cx="790" cy="876" r="8" class="c0"/>
<circle cx="1700" cy="182" r="8" class="c0"/>
<circle cx="1872" cy="22" r="8" class="c0"/>
<circle cx="1636" cy="16" r="8" class="c0"/>
<circle cx="920" cy="754" r="6" class="c0"/>
<circle cx="1656" cy="86" r="6" class="c0"/>
<circle cx="1798" cy="212" r="6" class="c0"/>
<circle cx="1892" cy="282" r="6" class="c0"/>
<circle cx="1698" cy="72" r="6" class="c0"/>
<circle cx="998" cy="798" r="6" class="c0"/>
<circle cx="1740" cy="168" r="6" class="c0"/>
<circle cx="1754" cy="126" r="6" class="c0"/>
<circle cx="1836" cy="128" r="6" class="c0"/>
<circle cx="944" cy="540" r="6" class="c0"/>
<circle cx="916" cy="536" r="6" class="c0"/>
<circle cx="898" cy="832" r="6" class="c0"/>
<circle cx="920" cy="662" r="6" class="c0"/>
<circle cx="928" cy="1088" r="6" class="c0"/>
<circle cx="882" cy="624" r="6" class="c0"/>
<circle cx="958" cy="882" r="6" class="c0"/>
<circle cx="1584" cy="50" r="6" class="c0"/>
<circle cx="1862" cy="178" r="6" class="c0"/>
<circle cx="1784" cy="186" r="6" class="c0"/>
<circle cx="932" cy="534" r="6" class="c0"/>
<circle cx="964" cy="732" r="6" class="c0"/>
<circle cx="856" cy="540" r="6" class="c0"/>
<circle cx="820" cy="620" r="6" class="c0"/>
<circle cx="774" cy="1076" r="6" class="c0"/>
<circle cx="882" cy="648" r="6" class="c0"/>
<circle cx="782" cy="890" r="6" class="c0"/>
<circle cx="952" cy="606" r="6" class="c0"/>
<circle cx="1906" cy="60" r="6" class="c0"/>
<circle cx="1696" cy="86" r="6" class="c0"/>
<circle cx="1844" cy="80" r="6" class="c0"/>
<circle cx="870" cy="614" r="6" class="c0"/>
<circle cx="1722" cy="46" r="6" class="c0"/>
<circle cx="932" cy="798" r="6" class="c0"/>
<circle cx="824" cy="722" r="6" class="c0"/>
<circle cx="1614" cy="68" r="6" class="c0"/>
<circle cx="978" cy="858" r="6" class="c0"/>
<circle cx="1810" cy="102" r="6" class="c0"/>
<circle cx="1820" cy="268" r="6" class="c0"/>
<circle cx="850" cy="674" r="6" class="c0"/>
<circle cx="1626" cy="28" r="6" class="c0"/>
<circle cx="932" cy="668" r="6" class="c0"/>
<circle cx="776" cy="834" r="6" class="c0"/>
<circle cx="1556" cy="88" r="6" class="c0"/>
<circle cx="770" cy="948" r="6" class="c0"/>
<circle cx="1912" cy="212" r="6" class="c0"/>
<circle cx="1666" cy="38" r="6" class="c0"/>
<circle cx="830" cy="958" r="6" class="c0"/>
<circle cx="806" cy="774" r="6" class="c0"/>
<circle cx="934" cy="376" r="6" class="c0"/>
<circle cx="858" cy="868" r="6" class="c0"/>
<circle cx="944" cy="728" r="6" class="c0"/>
<circle cx="1862" cy="272" r="6" class="c0"/>
<circle cx="958" cy="720" r="6" class="c0"/>
<circle cx="1522" cy="74" r="6" class="c0"/>
<circle cx="914" cy="572" r="6" class="c0"/>
<circle cx="908" cy="1024" r="6" class="c0"/>
<circle cx="1618" cy="102" r="6" class="c0"/>
<circle cx="1634" cy="60" r="6" class="c0"/>
<circle cx="1752" cy="178" r="6" class="c0"/>
<circle cx="880" cy="776" r="6" class="c0"/>
<circle cx="1606" cy="124" r="6" class="c0"/>
<circle cx="1750" cy="32" r="6" class="c0"/>
<circle cx="910" cy="1038" r="6" class="c0"/>
<circle cx="986" cy="874" r="6" class="c0"/>
<circle cx="1740" cy="8" r="6" class="c0"/>
<circle cx="1854" cy="284" r="6" class="c0"/>
<circle cx="864" cy="510" r="6" class="c0"/>
<circle cx="1500" cy="40" r="6" class="c0"/>
<circle cx="772" cy="924" r="6" class="c0"/>
<circle cx="804" cy="964" r="6" class="c0"/>
<circle cx="896" cy="424" r="6" class="c0"/>
<circle cx="1900" cy="274" r="6" class="c0"/>
<circle cx="832" cy="786" r="6" class="c0"/>
<circle cx="904" cy="590" r="6" class="c0"/>
<circle cx="984" cy="782" r="6" class="c0"/>
<circle cx="848" cy="728" r="6" class="c0"/>
<circle cx="1722" cy="10" r="6" class="c0"/>
<circle cx="960" cy="842" r="6" class="c0"/>
<circle cx="1642" cy="94" r="6" class="c0"/>
<circle cx="840" cy="392" r="6" class="c0"/>
<circle cx="1742" cy="218" r="6" class="c0"/>
<circle cx="1592" cy="42" r="6" class="c0"/>
<circle cx="1862" cy="12" r="6" class="c0"/>
<circle cx="834" cy="612" r="6" class="c0"/>
<circle cx="784" cy="624" r="6" class="c0"/>
<circle cx="1886" cy="304" r="6" class="c0"/>
<circle cx="896" cy="786" r="6" class="c0"/>
<circle cx="1648" cy="72" r="6" class="c0"/>
<circle cx="948" cy="874" r="6" class="c0"/>
<circle cx="874" cy="518" r="6" class="c0"/>
<circle cx="1814" cy="198" r="6" class="c0"/>
<circle cx="824" cy="652" r="6" class="c0"/>
<circle cx="1754" cy="226" r="6" class="c0"/>
<circle cx="1558" cy="32" r="6" class="c0"/>
<circle cx="958" cy="898" r="6" class="c0"/>
<circle cx="1588" cy="6" r="6" class="c0"/>
<circle cx="1796" cy="196" r="6" class="c0"/>
<circle cx="1912" cy="280" r="6" class="c0"/>
<circle cx="856" cy="918" r="6" class="c0"/>
<circle cx="758" cy="918" r="6" class="c0"/>
<circle cx="1906" cy="334" r="6" class="c0"/>
<circle cx="1774" cy="118" r="6" class="c0"/>
<circle cx="1828" cy="194" r="6" class="c0"/>
<circle cx="1870" cy="150" r="6" class="c0"/>
<circle cx="972" cy="584" r="6" class="c0"/>
<circle cx="860" cy="396" r="6" class="c0"/>
<circle cx="1592" cy="80" r="6" class="c0"/>
<circle cx="846" cy="856" r="6" class="c0"/>
<circle cx="910" cy="842" r="6" class="c0"/>
<circle cx="920" cy="702" r="6" class="c0"/>
<circle cx="886" cy="898" r="6" class="c0"/>
<circle cx="812" cy="938" r="6" class="c0"/>
<circle cx="866" cy="600" r="6" class="c0"/>
<circle cx="772" cy="980" r="6" class="c0"/>
<circle cx="934" cy="966" r="6" class="c0"/>
<circle cx="1008" cy="878" r="6" class="c0"/>
<circle cx="1024" cy="840" r="6" class="c0"/>
<circle cx="1784" cy="66" r="6" class="c0"/>
<circle cx="952" cy="548" r="6" class="c0"/>
<circle cx="910" cy="1064" r="6" class="c0"/>
<circle cx="1706" cy="46" r="6" class="c0"/>
<circle cx="1558" cy="62" r="6" class="c0"/>
<circle cx="772" cy="1056" r="6" class="c0"/>
<circle cx="1030" cy="854" r="6" class="c0"/>
<circle cx="846" cy="510" r="6" class="c0"/>
<circle cx="842" cy="538" r="6" class="c0"/>
<circle cx="1742" cy="150" r="6" class="c0"/>
<circle cx="792" cy="1032" r="6" class="c0"/>
<circle cx="1828" cy="236" r="6" class="c0"/>
<circle cx="874" cy="968" r="6" class="c0"/>
<circle cx="954" cy="814" r="6" class="c0"/>
<circle cx="782" cy="716" r="6" class="c0"/>
<circle cx="930" cy="420" r="6" class="c0"/>
<circle cx="1686" cy="148" r="6" class="c0"/>
<circle cx="946" cy="778" r="6" class="c0"/>
<circle cx="1860" cy="192" r="6" class="c0"/>
<circle cx="924" cy="808" r="6" class="c0"/>
<circle cx="904" cy="526" r="6" class="c0"/>
<circle cx="948" cy="636" r="6" class="c0"/>
<circle cx="944" cy="504" r="6" class="c0"/>
<circle cx="846" cy="818" r="6" class="c0"/>
<circle cx="932" cy="900" r="6" class="c0"/>
<circle cx="912" cy="766" r="6" class="c0"/>
<circle cx="920" cy="458" r="6" class="c0"/>
<circle cx="1812" cy="70" r="6" class="c0"/>
<circle cx="938" cy="912" r="6" class="c0"/>
<circle cx="866" cy="978" r="6" class="c0"/>
<circle cx="790" cy="662" r="6" class="c0"/>
<circle cx="964" cy="524" r="6" class="c0"/>
<circle cx="912" cy="558" r="6" class="c0"/>
<circle cx="1750" cy="142" r="6" class="c0"/>
<circle cx="820" cy="688" r="6" class="c0"/>
<circle cx="840" cy="376" r="6" class="c0"/>
<circle cx="1528" cy="88" r="6" class="c0"/>
<circle cx="1034" cy="902" r="6" class="c0"/>
<circle cx="1472" cy="6" r="6" class="c0"/>
<circle cx="1502" cy="60" r="6" class="c0"/>
<circle cx="802" cy="802" r="6" class="c0"/>
<circle cx="888" cy="662" r="6" class="c0"/>
<circle cx="752" cy="906" r="6" class="c0"/>
<circle cx="786" cy="1086" r="6" class="c0"/>
<circle cx="930" cy="598" r="6" class="c0"/>
<circle cx="938" cy="394" r="6" class="c0"/>
<circle cx="890" cy="530" r="6" class="c0"/>
<circle cx="1646" cy="136" r="6" class="c0"/>
<circle cx="926" cy="720" r="6" class="c0"/>
<circle cx="842" cy="628" r="6" class="c0"/>
<circle cx="966" cy="928" r="6" class="c0"/>
<circle cx="1910" cy="158" r="6" class="c0"/>
<circle cx="924" cy="926" r="6" class="c0"/>
<circle cx="1892" cy="116" r="6" class="c0"/>
<circle cx="948" cy="826" r="6" class="c0"/>
<circle cx="938" cy="1010" r="6" class="c0"/>
<circle cx="834" cy="666" r="6" class="c0"/>
<circle cx="1824" cy="180" r="6" class="c0"/>
<circle cx="798" cy="850" r="6" class="c0"/>
<circle cx="1742" cy="70" r="6" class="c0"/>
<circle cx="780" cy="916" r="6" class="c0"/>
<circle cx="1782" cy="130" r="6" class="c0"/>
<circle cx="758" cy="884" r="6" class="c0"/>
<circle cx="868" cy="654" r="6" class="c0"/>
<circle cx="766" cy="1068" r="6" class="c0"/>
<circle cx="1836" cy="38" r="6" class="c0"/>
<circle cx="1566" cy="100" r="6" class="c0"/>
<circle cx="1856" cy="298" r="6" class="c0"/>
<circle cx="820" cy="368" r="6" class="c0"/>
<circle cx="842" cy="482" r="6" class="c0"/>
<circle cx="968" cy="850" r="6" class="c0"/>
<circle cx="1772" cy="18" r="6" class="c0"/>
<circle cx="838" cy="882" r="6" class="c0"/>
<circle cx="924" cy="852" r="6" class="c0"/>
<circle cx="1820" cy="6" r="6" class="c0"/>
<circle cx="790" cy="724" r="6" class="c0"/>
<circle cx="958" cy="510" r="6" class="c0"/>
<circle cx="890" cy="632" r="6" class="c0"/>
<circle cx="1764" cy="238" r="6" class="c0"/>
<circle cx="1448" cy="30" r="6" class="c0"/>
<circle cx="1792" cy="226" r="6" class="c0"/>
<circle cx="978" cy="550" r="6" class="c0"/>
<circle cx="1670" cy="118" r="6" class="c0"/>
<circle cx="1532" cy="56" r="6" class="c0"/>
<circle cx="1492" cy="52" r="6" class="c0"/>
<circle cx="1634" cy="142" r="6" class="c0"/>
<circle cx="856" cy="588" r="6" class="c0"/>
<circle cx="798" cy="950" r="6" class="c0"/>
<circle cx="806" cy="682" r="6" class="c0"/>
<circle cx="1016" cy="832" r="6" class="c0"/>
<circle cx="1422" cy="6" r="6" class="c0"/>
</svg>
