<?xml version="1.0" encoding="utf-8"?>
<svg xmlns="http://www.w3.org/2000/svg"
     xmlns:xlink="http://www.w3.org/1999/xlink" width="1920" height="1440" >

            <defs>
            <style type="text/css"><![CDATA[
circle {stroke: none;}
.c0 {fill: #FFFFFF;}
]]></style>
            </defs>
<rect x="0" y="0" width="1920" height="1440" fill="black"/>
<circle cx="924" cy="818" r="12" class="c0"/>
<circle cx="894" cy="546" r="12" class="c0"/>
<circle cx="860" cy="518" r="12" class="c0"/>
<circle cx="888" cy="820" r="12" class="c0"/>
<circle cx="838" cy="782" r="12" class="c0"/>
<circle cx="940" cy="624" r="12" class="c0"/>
<circle cx="870" cy="734" r="12" class="c0"/>
<circle cx="940" cy="1034" r="12" class="c0"/>
<circle cx="1028" cy="812" r="12" class="c0"/>
<circle cx="962" cy="812" r="12" class="c0"/>
<circle cx="882" cy="908" r="12" class="c0"/>
<circle cx="902" cy="378" r="12" class="c0"/>
<circle cx="818" cy="698" r="12" class="c0"/>
<circle cx="888" cy="512" r="12" class="c0"/>
<circle cx="802" cy="900" r="12" class="c0"/>
<circle cx="886" cy="868" r="10" class="c0"/>
<circle cx="926" cy="642" r="10" class="c0"/>
<circle cx="994" cy="750" r="10" class="c0"/>
<circle cx="940" cy="508" r="10" class="c0"/>
<circle cx="1006" cy="804" r="10" class="c0"/>
<circle cx="982" cy="872" r="10" class="c0"/>
<circle cx="968" cy="512" r="10" class="c0"/>
<circle cx="972" cy="610" r="10" class="c0"/>
<circle cx="916" cy="930" r="10" class="c0"/>
<circle cx="894" cy="662" r="10" class="c0"/>
<circle cx="794" cy="850" r="10" class="c0"/>
<circle cx="962" cy="656" r="10" class="c0"/>
<circle cx="950" cy="680" r="10" class="c0"/>
<circle cx="822" cy="766" r="10" class="c0"/>
<circle cx="890" cy="752" r="10" class="c0"/>
<circle cx="916" cy="472" r="10" class="c0"/>
<circle cx="918" cy="888" r="10" class="c0"/>
<circle cx="804" cy="998" r="10" class="c0"/>
<circle cx="848" cy="926" r="10" class="c0"/>
<circle cx="826" cy="924" r="10" class="c0"/>
<circle cx="888" cy="606" r="10" class="c0"/>
<circle cx="984" cy="592" r="10" class="c0"/>
<circle cx="934" cy="962" r="10" class="c0"/>
<circle cx="946" cy="846" r="10" class="c0"/>
<circle cx="1044" cy="832" r="10" class="c0"/>
<circle cx="922" cy="696" r="10" class="c0"/>
<circle cx="828" cy="968" r="10" class="c0"/>
<circle cx="894" cy="576" r="10" class="c0"/>
<circle cx="852" cy="648" r="10" class="c0"/>
<circle cx="948" cy="756" r="10" class="c0"/>
<circle cx="838" cy="564" r="10" class="c0"/>
<circle cx="954" cy="384" r="10" class="c0"/>
<circle cx="894" cy="686" r="10" class="c0"/>
<circle cx="840" cy="618" r="10" class="c0"/>
<circle cx="864" cy="686" r="10" class="c0"/>
<circle cx="874" cy="374" r="10" class="c0"/>
<circle cx="966" cy="930" r="10" class="c0"/>
<circle cx="982" cy="842" r="10" class="c0"/>
<circle cx="996" cy="896" r="10" class="c0"/>
<circle cx="860" cy="942" r="10" class="c0"/>
<circle cx="804" cy="828" r="10" class="c0"/>
<circle cx="878" cy="454" r="10" class="c0"/>
<circle cx="930" cy="916" r="10" class="c0"/>
<circle cx="906" cy="834" r="10" class="c0"/>
<circle cx="844" cy="536" r="10" class="c0"/>
<circle cx="874" cy="630" r="10" class="c0"/>
<circle cx="858" cy="856" r="10" class="c0"/>
<circle cx="1024" cy="856" r="10" class="c0"/>
<circle cx="900" cy="430" r="10" class="c0"/>
<circle cx="906" cy="526" r="10" class="c0"/>
<circle cx="828" cy="838" r="10" class="c0"/>
<circle cx="910" cy="504" r="10" class="c0"/>
<circle cx="816" cy="982" r="10" class="c0"/>
<circle cx="1904" cy="46" r="10" class="c0"/>
<circle cx="922" cy="860" r="10" class="c0"/>
<circle cx="962" cy="720" r="10" class="c0"/>
<circle cx="810" cy="1034" r="10" class="c0"/>
<circle cx="858" cy="716" r="10" class="c0"/>
<circle cx="928" cy="396" r="10" class="c0"/>
<circle cx="848" cy="406" r="10" class="c0"/>
<circle cx="926" cy="536" r="10" class="c0"/>
<circle cx="962" cy="882" r="10" class="c0"/>
<circle cx="940" cy="886" r="10" class="c0"/>
<circle cx="878" cy="422" r="10" class="c0"/>
<circle cx="860" cy="560" r="10" class="c0"/>
<circle cx="878" cy="674" r="10" class="c0"/>
<circle cx="918" cy="606" r="10" class="c0"/>
<circle cx="848" cy="744" r="8" class="c0"/>
<circle cx="844" cy="824" r="8" class="c0"/>
<circle cx="906" cy="726" r="8" class="c0"/>
<circle cx="820" cy="884" r="8" class="c0"/>
<circle cx="998" cy="852" r="8" class="c0"/>
<circle cx="876" cy="774" r="8" class="c0"/>
<circle cx="834" cy="384" r="8" class="c0"/>
<circle cx="888" cy="486" r="8" class="c0"/>
<circle cx="922" cy="562" r="8" class="c0"/>
<circle cx="984" cy="768" r="8" class="c0"/>
<circle cx="1876" cy="18" r="8" class="c0"/>
<circle cx="1834" cy="10" r="8" class="c0"/>
<circle cx="924" cy="752" r="8" class="c0"/>
<circle cx="878" cy="848" r="8" class="c0"/>
<circle cx="1020" cy="890" r="8" class="c0"/>
<circle cx="868" cy="800" r="8" class="c0"/>
<circle cx="948" cy="1000" r="8" class="c0"/>
<circle cx="908" cy="804" r="8" class="c0"/>
<circle cx="860" cy="784" r="8" class="c0"/>
<circle cx="982" cy="738" r="8" class="c0"/>
<circle cx="966" cy="748" r="8" class="c0"/>
<circle cx="912" cy="676" r="8" class="c0"/>
<circle cx="890" cy="404" r="8" class="c0"/>
<circle cx="816" cy="738" r="8" class="c0"/>
<circle cx="868" cy="490" r="8" class="c0"/>
<circle cx="896" cy="922" r="8" class="c0"/>
<circle cx="1004" cy="874" r="8" class="c0"/>
<circle cx="824" cy="800" r="8" class="c0"/>
<circle cx="894" cy="946" r="8" class="c0"/>
<circle cx="940" cy="938" r="8" class="c0"/>
<circle cx="862" cy="590" r="8" class="c0"/>
<circle cx="940" cy="558" r="8" class="c0"/>
<circle cx="850" cy="430" r="8" class="c0"/>
<circle cx="996" cy="572" r="8" class="c0"/>
<circle cx="1866" cy="38" r="8" class="c0"/>
<circle cx="934" cy="740" r="8" class="c0"/>
<circle cx="784" cy="876" r="8" class="c0"/>
<circle cx="1040" cy="892" r="8" class="c0"/>
<circle cx="792" cy="940" r="8" class="c0"/>
<circle cx="908" cy="624" r="8" class="c0"/>
<circle cx="948" cy="1056" r="8" class="c0"/>
<circle cx="986" cy="544" r="8" class="c0"/>
<circle cx="1008" cy="826" r="8" class="c0"/>
<circle cx="862" cy="466" r="8" class="c0"/>
<circle cx="816" cy="860" r="8" class="c0"/>
<circle cx="944" cy="708" r="8" class="c0"/>
<circle cx="832" cy="714" r="8" class="c0"/>
<circle cx="1886" cy="32" r="8" class="c0"/>
<circle cx="936" cy="1012" r="8" class="c0"/>
<circle cx="854" cy="894" r="8" class="c0"/>
<circle cx="944" cy="728" r="8" class="c0"/>
<circle cx="800" cy="1056" r="8" class="c0"/>
<circle cx="1842" cy="34" r="8" class="c0"/>
<circle cx="958" cy="906" r="8" class="c0"/>
<circle cx="938" cy="1078" r="8" class="c0"/>
<circle cx="908" cy="412" r="8" class="c0"/>
<circle cx="832" cy="946" r="8" class="c0"/>
<circle cx="778" cy="926" r="8" class="c0"/>
<circle cx="970" cy="638" r="8" class="c0"/>
<circle cx="782" cy="1050" r="8" class="c0"/>
<circle cx="812" cy="640" r="8" class="c0"/>
<circle cx="950" cy="492" r="8" class="c0"/>
<circle cx="948" cy="590" r="8" class="c0"/>
<circle cx="1064" cy="856" r="8" class="c0"/>
<circle cx="928" cy="430" r="8" class="c0"/>
<circle cx="1056" cy="882" r="8" class="c0"/>
<circle cx="840" cy="694" r="8" class="c0"/>
<circle cx="914" cy="584" r="8" class="c0"/>
<circle cx="964" cy="534" r="8" class="c0"/>
<circle cx="994" cy="788" r="8" class="c0"/>
<circle cx="896" cy="634" r="8" class="c0"/>
<circle cx="880" cy="704" r="8" class="c0"/>
<circle cx="944" cy="786" r="8" class="c0"/>
<circle cx="892" cy="786" r="8" class="c0"/>
<circle cx="840" cy="868" r="8" class="c0"/>
<circle cx="864" cy="818" r="8" class="c0"/>
<circle cx="846" cy="674" r="8" class="c0"/>
<circle cx="924" cy="730" r="8" class="c0"/>
<circle cx="974" cy="556" r="8" class="c0"/>
<circle cx="1018" cy="912" r="8" class="c0"/>
<circle cx="822" cy="660" r="8" class="c0"/>
<circle cx="976" cy="908" r="8" class="c0"/>
<circle cx="926" cy="492" r="8" class="c0"/>
<circle cx="882" cy="650" r="8" class="c0"/>
<circle cx="802" cy="1078" r="8" class="c0"/>
<circle cx="944" cy="406" r="8" class="c0"/>
<circle cx="1900" cy="78" r="8" class="c0"/>
<circle cx="1046" cy="854" r="8" class="c0"/>
<circle cx="958" cy="564" r="8" class="c0"/>
<circle cx="898" cy="890" r="8" class="c0"/>
<circle cx="950" cy="950" r="8" class="c0"/>
<circle cx="862" cy="878" r="8" class="c0"/>
<circle cx="842" cy="590" r="8" class="c0"/>
<circle cx="946" cy="974" r="8" class="c0"/>
<circle cx="902" cy="962" r="8" class="c0"/>
<circle cx="1904" cy="8" r="8" class="c0"/>
<circle cx="874" cy="574" r="8" class="c0"/>
<circle cx="940" cy="470" r="8" class="c0"/>
<circle cx="828" cy="678" r="8" class="c0"/>
<circle cx="918" cy="440" r="8" class="c0"/>
<circle cx="938" cy="448" r="8" class="c0"/>
<circle cx="804" cy="872" r="8" class="c0"/>
<circle cx="972" cy="786" r="8" class="c0"/>
<circle cx="982" cy="798" r="8" class="c0"/>
<circle cx="832" cy="650" r="8" class="c0"/>
<circle cx="902" cy="774" r="8" class="c0"/>
<circle cx="870" cy="404" r="8" class="c0"/>
<circle cx="922" cy="770" r="8" class="c0"/>
<circle cx="912" cy="950" r="8" class="c0"/>
<circle cx="804" cy="782" r="8" class="c0"/>
<circle cx="784" cy="1076" r="8" class="c0"/>
<circle cx="966" cy="858" r="8" class="c0"/>
<circle cx="998" cy="918" r="8" class="c0"/>
<circle cx="1038" cy="874" r="8" class="c0"/>
<circle cx="830" cy="902" r="8" class="c0"/>
<circle cx="878" cy="886" r="8" class="c0"/>
<circle cx="934" cy="984" r="8" class="c0"/>
<circle cx="778" cy="898" r="8" class="c0"/>
<circle cx="868" cy="610" r="8" class="c0"/>
<circle cx="932" cy="576" r="8" class="c0"/>
<circle cx="892" cy="466" r="8" class="c0"/>
<circle cx="808" cy="952" r="8" class="c0"/>
<circle cx="902" cy="594" r="8" class="c0"/>
<circle cx="1856" cy="18" r="8" class="c0"/>
<circle cx="988" cy="820" r="8" class="c0"/>
<circle cx="878" cy="534" r="8" class="c0"/>
<circle cx="814" cy="810" r="8" class="c0"/>
<circle cx="928" cy="460" r="8" class="c0"/>
<circle cx="906" cy="912" r="8" class="c0"/>
<circle cx="898" cy="856" r="8" class="c0"/>
<circle cx="930" cy="674" r="8" class="c0"/>
<circle cx="1030" cy="902" r="8" class="c0"/>
<circle cx="924" cy="792" r="8" class="c0"/>
<circle cx="1002" cy="770" r="8" class="c0"/>
<circle cx="914" cy="658" r="8" class="c0"/>
<circle cx="886" cy="970" r="8" class="c0"/>
<circle cx="924" cy="376" r="8" class="c0"/>
<circle cx="808" cy="722" r="8" class="c0"/>
<circle cx="836" cy="734" r="8" class="c0"/>
<circle cx="1882" cy="54" r="8" class="c0"/>
<circle cx="844" cy="804" r="8" class="c0"/>
<circle cx="884" cy="932" r="8" class="c0"/>
<circle cx="860" cy="392" r="8" class="c0"/>
<circle cx="960" cy="1070" r="8" class="c0"/>
<circle cx="854" cy="836" r="8" class="c0"/>
<circle cx="952" cy="640" r="8" class="c0"/>
<circle cx="842" cy="510" r="6" class="c0"/>
<circle cx="814" cy="936" r="6" class="c0"/>
<circle cx="838" cy="758" r="6" class="c0"/>
<circle cx="898" cy="448" r="6" class="c0"/>
<circle cx="956" cy="774" r="6" class="c0"/>
<circle cx="906" cy="870" r="6" class="c0"/>
<circle cx="1020" cy="838" r="6" class="c0"/>
<circle cx="866" cy="438" r="6" class="c0"/>
<circle cx="864" cy="960" r="6" class="c0"/>
<circle cx="774" cy="1066" r="6" class="c0"/>
<circle cx="952" cy="1018" r="6" class="c0"/>
<circle cx="886" cy="724" r="6" class="c0"/>
<circle cx="856" cy="764" r="6" class="c0"/>
<circle cx="954" cy="524" r="6" class="c0"/>
<circle cx="942" cy="650" r="6" class="c0"/>
<circle cx="972" cy="706" r="6" class="c0"/>
<circle cx="826" cy="628" r="6" class="c0"/>
<circle cx="972" cy="828" r="6" class="c0"/>
<circle cx="816" cy="1058" r="6" class="c0"/>
<circle cx="966" cy="694" r="6" class="c0"/>
<circle cx="906" cy="708" r="6" class="c0"/>
<circle cx="818" cy="1010" r="6" class="c0"/>
<circle cx="926" cy="838" r="6" class="c0"/>
<circle cx="954" cy="548" r="6" class="c0"/>
<circle cx="844" cy="956" r="6" class="c0"/>
<circle cx="908" cy="754" r="6" class="c0"/>
<circle cx="1906" cy="28" r="6" class="c0"/>
<circle cx="794" cy="922" r="6" class="c0"/>
<circle cx="818" cy="618" r="6" class="c0"/>
<circle cx="800" cy="968" r="6" class="c0"/>
<circle cx="1006" cy="556" r="6" class="c0"/>
<circle cx="830" cy="412" r="6" class="c0"/>
<circle cx="904" cy="484" r="6" class="c0"/>
<circle cx="910" cy="454" r="6" class="c0"/>
<circle cx="952" cy="868" r="6" class="c0"/>
<circle cx="914" cy="742" r="6" class="c0"/>
<circle cx="806" cy="928" r="6" class="c0"/>
<circle cx="1808" cy="10" r="6" class="c0"/>
<circle cx="944" cy="824" r="6" class="c0"/>
<circle cx="980" cy="718" r="6" class="c0"/>
<circle cx="1068" cy="892" r="6" class="c0"/>
<circle cx="850" cy="380" r="6" class="c0"/>
<circle cx="968" cy="766" r="6" class="c0"/>
<circle cx="934" cy="718" r="6" class="c0"/>
<circle cx="798" cy="1016" r="6" class="c0"/>
<circle cx="956" cy="738" r="6" class="c0"/>
<circle cx="1016" cy="790" r="6" class="c0"/>
<circle cx="878" cy="954" r="6" class="c0"/>
<circle cx="942" cy="904" r="6" class="c0"/>
<circle cx="924" cy="414" r="6" class="c0"/>
<circle cx="844" cy="846" r="6" class="c0"/>
<circle cx="1794" cy="6" r="6" class="c0"/>
<circle cx="860" cy="914" r="6" class="c0"/>
<circle cx="864" cy="756" r="6" class="c0"/>
<circle cx="796" cy="982" r="6" class="c0"/>
<circle cx="984" cy="524" r="6" class="c0"/>
<circle cx="864" cy="662" r="6" class="c0"/>
<circle cx="770" cy="912" r="6" class="c0"/>
<circle cx="962" cy="582" r="6" class="c0"/>
<circle cx="940" cy="664" r="6" class="c0"/>
<circle cx="962" cy="402" r="6" class="c0"/>
<circle cx="786" cy="912" r="6" class="c0"/>
<circle cx="868" cy="544" r="6" class="c0"/>
<circle cx="870" cy="922" r="6" class="c0"/>
<circle cx="852" cy="602" r="6" class="c0"/>
<circle cx="934" cy="598" r="6" class="c0"/>
<circle cx="934" cy="802" r="6" class="c0"/>
<circle cx="826" cy="596" r="6" class="c0"/>
<circle cx="1912" cy="68" r="6" class="c0"/>
<circle cx="986" cy="930" r="6" class="c0"/>
<circle cx="820" cy="1072" r="6" class="c0"/>
<circle cx="944" cy="538" r="6" class="c0"/>
<circle cx="1886" cy="8" r="6" class="c0"/>
<circle cx="946" cy="432" r="6" class="c0"/>
<circle cx="918" cy="714" r="6" class="c0"/>
<circle cx="952" cy="606" r="6" class="c0"/>
<circle cx="948" cy="920" r="6" class="c0"/>
<circle cx="830" cy="548" r="6" class="c0"/>
<circle cx="978" cy="890" r="6" class="c0"/>
<circle cx="856" cy="626" r="6" class="c0"/>
<circle cx="962" cy="838" r="6" class="c0"/>
<circle cx="808" cy="756" r="6" class="c0"/>
<circle cx="824" cy="820" r="6" class="c0"/>
<circle cx="810" cy="680" r="6" class="c0"/>
<circle cx="904" cy="562" r="6" class="c0"/>
<circle cx="952" cy="1086" r="6" class="c0"/>
<circle cx="850" cy="576" r="6" class="c0"/>
<circle cx="920" cy="1080" r="6" class="c0"/>
<circle cx="838" cy="420" r="6" class="c0"/>
<circle cx="882" cy="560" r="6" class="c0"/>
<circle cx="1866" cy="8" r="6" class="c0"/>
<circle cx="958" cy="1042" r="6" class="c0"/>
<circle cx="1896" cy="62" r="6" class="c0"/>
<circle cx="932" cy="1062" r="6" class="c0"/>
<circle cx="880" cy="392" r="6" class="c0"/>
<circle cx="960" cy="1026" r="6" class="c0"/>
<circle cx="860" cy="420" r="6" class="c0"/>
<circle cx="836" cy="886" r="6" class="c0"/>
<circle cx="906" cy="644" r="6" class="c0"/>
<circle cx="954" cy="416" r="6" class="c0"/>
<circle cx="878" cy="474" r="6" class="c0"/>
<circle cx="858" cy="446" r="6" class="c0"/>
<circle cx="894" cy="716" r="6" class="c0"/>
<circle cx="960" cy="626" r="6" class="c0"/>
<circle cx="826" cy="748" r="6" class="c0"/>
<circle cx="980" cy="574" r="6" class="c0"/>
<circle cx="924" cy="516" r="6" class="c0"/>
<circle cx="792" cy="1028" r="6" class="c0"/>
<circle cx="874" cy="832" r="6" class="c0"/>
<circle cx="878" cy="592" r="6" class="c0"/>
<circle cx="914" cy="548" r="6" class="c0"/>
<circle cx="956" cy="984" r="6" class="c0"/>
<circle cx="942" cy="810" r="6" class="c0"/>
<circle cx="846" cy="908" r="6" class="c0"/>
<circle cx="782" cy="950" r="6" class="c0"/>
<circle cx="850" cy="502" r="6" class="c0"/>
<circle cx="830" cy="580" r="6" class="c0"/>
<circle cx="958" cy="964" r="6" class="c0"/>
<circle cx="1066" cy="872" r="6" class="c0"/>
<circle cx="1894" cy="18" r="6" class="c0"/>
<circle cx="1862" cy="62" r="6" class="c0"/>
</svg>
