<?xml version="1.0" encoding="utf-8"?>
<svg xmlns="http://www.w3.org/2000/svg"
     xmlns:xlink="http://www.w3.org/1999/xlink" width="1920" height="1440" >

            <defs>
            <style type="text/css"><![CDATA[
circle {stroke: none;}
.c0 {fill: #FFFFFF;}
]]></style>
            </defs>
<rect x="0" y="0" width="1920" height="1440" fill="black"/>
<circle cx="872" cy="958" r="14" class="c0"/>
<circle cx="850" cy="740" r="12" class="c0"/>
<circle cx="888" cy="532" r="12" class="c0"/>
<circle cx="940" cy="608" r="12" class="c0"/>
<circle cx="884" cy="842" r="12" class="c0"/>
<circle cx="928" cy="378" r="12" class="c0"/>
<circle cx="898" cy="810" r="12" class="c0"/>
<circle cx="960" cy="766" r="12" class="c0"/>
<circle cx="962" cy="912" r="12" class="c0"/>
<circle cx="860" cy="710" r="12" class="c0"/>
<circle cx="878" cy="682" r="12" class="c0"/>
<circle cx="852" cy="666" r="12" class="c0"/>
<circle cx="800" cy="1078" r="12" class="c0"/>
<circle cx="816" cy="946" r="12" class="c0"/>
<circle cx="872" cy="778" r="12" class="c0"/>
<circle cx="1016" cy="856" r="12" class="c0"/>
<circle cx="878" cy="438" r="12" class="c0"/>
<circle cx="946" cy="706" r="12" class="c0"/>
<circle cx="860" cy="584" r="12" class="c0"/>
<circle cx="944" cy="506" r="12" class="c0"/>
<circle cx="992" cy="848" r="12" class="c0"/>
<circle cx="880" cy="382" r="10" class="c0"/>
<circle cx="960" cy="562" r="10" class="c0"/>
<circle cx="860" cy="910" r="10" class="c0"/>
<circle cx="998" cy="778" r="10" class="c0"/>
<circle cx="952" cy="420" r="10" class="c0"/>
<circle cx="928" cy="860" r="10" class="c0"/>
<circle cx="922" cy="524" r="10" class="c0"/>
<circle cx="934" cy="730" r="10" class="c0"/>
<circle cx="792" cy="900" r="10" class="c0"/>
<circle cx="888" cy="724" r="10" class="c0"/>
<circle cx="948" cy="680" r="10" class="c0"/>
<circle cx="1068" cy="862" r="10" class="c0"/>
<circle cx="862" cy="544" r="10" class="c0"/>
<circle cx="828" cy="814" r="10" class="c0"/>
<circle cx="930" cy="938" r="10" class="c0"/>
<circle cx="844" cy="932" r="10" class="c0"/>
<circle cx="958" cy="942" r="10" class="c0"/>
<circle cx="816" cy="888" r="10" class="c0"/>
<circle cx="1024" cy="882" r="10" class="c0"/>
<circle cx="960" cy="736" r="10" class="c0"/>
<circle cx="940" cy="396" r="10" class="c0"/>
<circle cx="958" cy="1058" r="10" class="c0"/>
<circle cx="904" cy="492" r="10" class="c0"/>
<circle cx="970" cy="670" r="10" class="c0"/>
<circle cx="808" cy="986" r="10" class="c0"/>
<circle cx="836" cy="794" r="10" class="c0"/>
<circle cx="830" cy="648" r="10" class="c0"/>
<circle cx="922" cy="700" r="10" class="c0"/>
<circle cx="932" cy="756" r="10" class="c0"/>
<circle cx="894" cy="902" r="10" class="c0"/>
<circle cx="948" cy="464" r="10" class="c0"/>
<circle cx="980" cy="828" r="10" class="c0"/>
<circle cx="880" cy="624" r="10" class="c0"/>
<circle cx="936" cy="664" r="10" class="c0"/>
<circle cx="882" cy="406" r="10" class="c0"/>
<circle cx="930" cy="416" r="10" class="c0"/>
<circle cx="920" cy="824" r="10" class="c0"/>
<circle cx="950" cy="1028" r="10" class="c0"/>
<circle cx="798" cy="932" r="10" class="c0"/>
<circle cx="950" cy="876" r="10" class="c0"/>
<circle cx="892" cy="584" r="10" class="c0"/>
<circle cx="932" cy="582" r="10" class="c0"/>
<circle cx="840" cy="894" r="10" class="c0"/>
<circle cx="1046" cy="848" r="10" class="c0"/>
<circle cx="796" cy="866" r="10" class="c0"/>
<circle cx="842" cy="392" r="10" class="c0"/>
<circle cx="942" cy="544" r="10" class="c0"/>
<circle cx="830" cy="962" r="10" class="c0"/>
<circle cx="908" cy="436" r="10" class="c0"/>
<circle cx="874" cy="652" r="10" class="c0"/>
<circle cx="882" cy="924" r="10" class="c0"/>
<circle cx="810" cy="910" r="10" class="c0"/>
<circle cx="838" cy="854" r="10" class="c0"/>
<circle cx="934" cy="810" r="10" class="c0"/>
<circle cx="922" cy="774" r="10" class="c0"/>
<circle cx="1036" cy="826" r="10" class="c0"/>
<circle cx="1034" cy="902" r="10" class="c0"/>
<circle cx="912" cy="656" r="10" class="c0"/>
<circle cx="908" cy="876" r="10" class="c0"/>
<circle cx="830" cy="706" r="10" class="c0"/>
<circle cx="904" cy="558" r="10" class="c0"/>
<circle cx="986" cy="934" r="10" class="c0"/>
<circle cx="946" cy="842" r="10" class="c0"/>
<circle cx="822" cy="748" r="10" class="c0"/>
<circle cx="982" cy="612" r="8" class="c0"/>
<circle cx="822" cy="842" r="8" class="c0"/>
<circle cx="918" cy="894" r="8" class="c0"/>
<circle cx="824" cy="686" r="8" class="c0"/>
<circle cx="986" cy="894" r="8" class="c0"/>
<circle cx="1066" cy="886" r="8" class="c0"/>
<circle cx="888" cy="508" r="8" class="c0"/>
<circle cx="972" cy="858" r="8" class="c0"/>
<circle cx="842" cy="532" r="8" class="c0"/>
<circle cx="992" cy="538" r="8" class="c0"/>
<circle cx="876" cy="748" r="8" class="c0"/>
<circle cx="980" cy="648" r="8" class="c0"/>
<circle cx="820" cy="1066" r="8" class="c0"/>
<circle cx="912" cy="618" r="8" class="c0"/>
<circle cx="994" cy="734" r="8" class="c0"/>
<circle cx="916" cy="454" r="8" class="c0"/>
<circle cx="844" cy="772" r="8" class="c0"/>
<circle cx="910" cy="678" r="8" class="c0"/>
<circle cx="972" cy="784" r="8" class="c0"/>
<circle cx="906" cy="382" r="8" class="c0"/>
<circle cx="1010" cy="818" r="8" class="c0"/>
<circle cx="950" cy="822" r="8" class="c0"/>
<circle cx="938" cy="784" r="8" class="c0"/>
<circle cx="970" cy="508" r="8" class="c0"/>
<circle cx="950" cy="630" r="8" class="c0"/>
<circle cx="818" cy="866" r="8" class="c0"/>
<circle cx="890" cy="764" r="8" class="c0"/>
<circle cx="818" cy="726" r="8" class="c0"/>
<circle cx="856" cy="790" r="8" class="c0"/>
<circle cx="900" cy="608" r="8" class="c0"/>
<circle cx="932" cy="1092" r="8" class="c0"/>
<circle cx="952" cy="986" r="8" class="c0"/>
<circle cx="974" cy="802" r="8" class="c0"/>
<circle cx="920" cy="636" r="8" class="c0"/>
<circle cx="868" cy="506" r="8" class="c0"/>
<circle cx="984" cy="724" r="8" class="c0"/>
<circle cx="918" cy="404" r="8" class="c0"/>
<circle cx="934" cy="910" r="8" class="c0"/>
<circle cx="910" cy="918" r="8" class="c0"/>
<circle cx="838" cy="588" r="8" class="c0"/>
<circle cx="900" cy="968" r="8" class="c0"/>
<circle cx="820" cy="784" r="8" class="c0"/>
<circle cx="860" cy="384" r="8" class="c0"/>
<circle cx="890" cy="466" r="8" class="c0"/>
<circle cx="900" cy="688" r="8" class="c0"/>
<circle cx="860" cy="886" r="8" class="c0"/>
<circle cx="784" cy="1058" r="8" class="c0"/>
<circle cx="868" cy="608" r="8" class="c0"/>
<circle cx="952" cy="382" r="8" class="c0"/>
<circle cx="992" cy="754" r="8" class="c0"/>
<circle cx="912" cy="952" r="8" class="c0"/>
<circle cx="960" cy="692" r="8" class="c0"/>
<circle cx="858" cy="840" r="8" class="c0"/>
<circle cx="1042" cy="870" r="8" class="c0"/>
<circle cx="804" cy="844" r="8" class="c0"/>
<circle cx="804" cy="1022" r="8" class="c0"/>
<circle cx="990" cy="578" r="8" class="c0"/>
<circle cx="1008" cy="796" r="8" class="c0"/>
<circle cx="942" cy="970" r="8" class="c0"/>
<circle cx="838" cy="628" r="8" class="c0"/>
<circle cx="882" cy="878" r="8" class="c0"/>
<circle cx="956" cy="1008" r="8" class="c0"/>
<circle cx="1006" cy="560" r="8" class="c0"/>
<circle cx="912" cy="844" r="8" class="c0"/>
<circle cx="916" cy="504" r="8" class="c0"/>
<circle cx="870" cy="858" r="8" class="c0"/>
<circle cx="838" cy="412" r="8" class="c0"/>
<circle cx="1018" cy="786" r="8" class="c0"/>
<circle cx="936" cy="486" r="8" class="c0"/>
<circle cx="816" cy="1040" r="8" class="c0"/>
<circle cx="798" cy="1044" r="8" class="c0"/>
<circle cx="872" cy="820" r="8" class="c0"/>
<circle cx="894" cy="666" r="8" class="c0"/>
<circle cx="910" cy="760" r="8" class="c0"/>
<circle cx="910" cy="596" r="8" class="c0"/>
<circle cx="850" cy="604" r="8" class="c0"/>
<circle cx="962" cy="968" r="8" class="c0"/>
<circle cx="960" cy="650" r="8" class="c0"/>
<circle cx="1002" cy="882" r="8" class="c0"/>
<circle cx="994" cy="916" r="8" class="c0"/>
<circle cx="874" cy="480" r="8" class="c0"/>
<circle cx="842" cy="694" r="8" class="c0"/>
<circle cx="940" cy="438" r="8" class="c0"/>
<circle cx="900" cy="414" r="8" class="c0"/>
<circle cx="822" cy="1012" r="8" class="c0"/>
<circle cx="960" cy="812" r="8" class="c0"/>
<circle cx="836" cy="874" r="8" class="c0"/>
<circle cx="962" cy="536" r="8" class="c0"/>
<circle cx="918" cy="544" r="8" class="c0"/>
<circle cx="960" cy="588" r="8" class="c0"/>
<circle cx="874" cy="556" r="8" class="c0"/>
<circle cx="972" cy="624" r="8" class="c0"/>
<circle cx="854" cy="424" r="8" class="c0"/>
<circle cx="844" cy="828" r="8" class="c0"/>
<circle cx="916" cy="720" r="8" class="c0"/>
<circle cx="982" cy="876" r="8" class="c0"/>
<circle cx="936" cy="892" r="8" class="c0"/>
<circle cx="1022" cy="808" r="8" class="c0"/>
<circle cx="912" cy="740" r="8" class="c0"/>
<circle cx="1010" cy="900" r="8" class="c0"/>
<circle cx="884" cy="794" r="8" class="c0"/>
<circle cx="892" cy="370" r="8" class="c0"/>
<circle cx="890" cy="944" r="8" class="c0"/>
<circle cx="900" cy="856" r="8" class="c0"/>
<circle cx="856" cy="644" r="8" class="c0"/>
<circle cx="980" cy="518" r="8" class="c0"/>
<circle cx="854" cy="522" r="8" class="c0"/>
<circle cx="900" cy="786" r="8" class="c0"/>
<circle cx="948" cy="798" r="8" class="c0"/>
<circle cx="782" cy="916" r="8" class="c0"/>
<circle cx="892" cy="642" r="8" class="c0"/>
<circle cx="946" cy="1074" r="8" class="c0"/>
<circle cx="862" cy="404" r="8" class="c0"/>
<circle cx="998" cy="808" r="8" class="c0"/>
<circle cx="928" cy="466" r="8" class="c0"/>
<circle cx="816" cy="632" r="8" class="c0"/>
<circle cx="970" cy="708" r="8" class="c0"/>
<circle cx="970" cy="1086" r="8" class="c0"/>
<circle cx="918" cy="570" r="8" class="c0"/>
<circle cx="962" cy="392" r="8" class="c0"/>
<circle cx="968" cy="840" r="8" class="c0"/>
<circle cx="858" cy="626" r="8" class="c0"/>
<circle cx="1020" cy="914" r="8" class="c0"/>
<circle cx="840" cy="552" r="8" class="c0"/>
<circle cx="832" cy="912" r="8" class="c0"/>
<circle cx="922" cy="962" r="8" class="c0"/>
<circle cx="862" cy="758" r="8" class="c0"/>
<circle cx="1046" cy="890" r="8" class="c0"/>
<circle cx="866" cy="800" r="8" class="c0"/>
<circle cx="902" cy="518" r="8" class="c0"/>
<circle cx="962" cy="606" r="8" class="c0"/>
<circle cx="942" cy="1046" r="8" class="c0"/>
<circle cx="1008" cy="762" r="8" class="c0"/>
<circle cx="828" cy="618" r="8" class="c0"/>
<circle cx="848" cy="808" r="8" class="c0"/>
<circle cx="918" cy="480" r="8" class="c0"/>
<circle cx="900" cy="932" r="8" class="c0"/>
<circle cx="976" cy="546" r="8" class="c0"/>
<circle cx="828" cy="670" r="6" class="c0"/>
<circle cx="952" cy="482" r="6" class="c0"/>
<circle cx="960" cy="518" r="6" class="c0"/>
<circle cx="990" cy="794" r="6" class="c0"/>
<circle cx="966" cy="1038" r="6" class="c0"/>
<circle cx="1058" cy="836" r="6" class="c0"/>
<circle cx="992" cy="602" r="6" class="c0"/>
<circle cx="964" cy="892" r="6" class="c0"/>
<circle cx="892" cy="706" r="6" class="c0"/>
<circle cx="896" cy="746" r="6" class="c0"/>
<circle cx="854" cy="562" r="6" class="c0"/>
<circle cx="848" cy="954" r="6" class="c0"/>
<circle cx="856" cy="870" r="6" class="c0"/>
<circle cx="950" cy="926" r="6" class="c0"/>
<circle cx="918" cy="796" r="6" class="c0"/>
<circle cx="784" cy="884" r="6" class="c0"/>
<circle cx="830" cy="990" r="6" class="c0"/>
<circle cx="938" cy="1004" r="6" class="c0"/>
<circle cx="908" cy="366" r="6" class="c0"/>
<circle cx="1028" cy="842" r="6" class="c0"/>
<circle cx="862" cy="930" r="6" class="c0"/>
<circle cx="934" cy="560" r="6" class="c0"/>
<circle cx="968" cy="998" r="6" class="c0"/>
<circle cx="906" cy="468" r="6" class="c0"/>
<circle cx="946" cy="526" r="6" class="c0"/>
<circle cx="926" cy="680" r="6" class="c0"/>
<circle cx="1010" cy="836" r="6" class="c0"/>
<circle cx="834" cy="728" r="6" class="c0"/>
<circle cx="878" cy="894" r="6" class="c0"/>
<circle cx="902" cy="830" r="6" class="c0"/>
<circle cx="940" cy="952" r="6" class="c0"/>
<circle cx="902" cy="628" r="6" class="c0"/>
<circle cx="972" cy="750" r="6" class="c0"/>
<circle cx="822" cy="926" r="6" class="c0"/>
<circle cx="950" cy="576" r="6" class="c0"/>
<circle cx="984" cy="768" r="6" class="c0"/>
<circle cx="976" cy="592" r="6" class="c0"/>
<circle cx="868" cy="732" r="6" class="c0"/>
<circle cx="828" cy="768" r="6" class="c0"/>
<circle cx="810" cy="828" r="6" class="c0"/>
<circle cx="858" cy="686" r="6" class="c0"/>
<circle cx="950" cy="1094" r="6" class="c0"/>
<circle cx="838" cy="756" r="6" class="c0"/>
<circle cx="808" cy="1056" r="6" class="c0"/>
<circle cx="810" cy="770" r="6" class="c0"/>
<circle cx="1006" cy="746" r="6" class="c0"/>
<circle cx="1000" cy="588" r="6" class="c0"/>
<circle cx="882" cy="570" r="6" class="c0"/>
<circle cx="884" cy="604" r="6" class="c0"/>
<circle cx="938" cy="646" r="6" class="c0"/>
<circle cx="842" cy="568" r="6" class="c0"/>
<circle cx="884" cy="492" r="6" class="c0"/>
<circle cx="970" cy="954" r="6" class="c0"/>
<circle cx="926" cy="878" r="6" class="c0"/>
<circle cx="810" cy="968" r="6" class="c0"/>
<circle cx="932" cy="626" r="6" class="c0"/>
<circle cx="870" cy="418" r="6" class="c0"/>
<circle cx="898" cy="450" r="6" class="c0"/>
<circle cx="902" cy="398" r="6" class="c0"/>
<circle cx="908" cy="534" r="6" class="c0"/>
<circle cx="960" cy="496" r="6" class="c0"/>
<circle cx="1008" cy="578" r="6" class="c0"/>
<circle cx="890" cy="424" r="6" class="c0"/>
<circle cx="966" cy="1020" r="6" class="c0"/>
<circle cx="876" cy="594" r="6" class="c0"/>
<circle cx="796" cy="950" r="6" class="c0"/>
<circle cx="950" cy="750" r="6" class="c0"/>
<circle cx="870" cy="456" r="6" class="c0"/>
<circle cx="942" cy="568" r="6" class="c0"/>
<circle cx="928" cy="840" r="6" class="c0"/>
<circle cx="970" cy="406" r="6" class="c0"/>
<circle cx="1000" cy="866" r="6" class="c0"/>
<circle cx="858" cy="944" r="6" class="c0"/>
<circle cx="842" cy="718" r="6" class="c0"/>
<circle cx="804" cy="1004" r="6" class="c0"/>
<circle cx="990" cy="558" r="6" class="c0"/>
<circle cx="814" cy="804" r="6" class="c0"/>
<circle cx="870" cy="524" r="6" class="c0"/>
<circle cx="850" cy="374" r="6" class="c0"/>
<circle cx="1000" cy="828" r="6" class="c0"/>
<circle cx="838" cy="678" r="6" class="c0"/>
<circle cx="954" cy="858" r="6" class="c0"/>
<circle cx="906" cy="710" r="6" class="c0"/>
<circle cx="970" cy="378" r="6" class="c0"/>
<circle cx="980" cy="742" r="6" class="c0"/>
</svg>
