<?xml version="1.0" encoding="utf-8"?>
<svg xmlns="http://www.w3.org/2000/svg"
     xmlns:xlink="http://www.w3.org/1999/xlink" width="1920" height="1440" >

            <defs>
            <style type="text/css"><![CDATA[
circle {stroke: none;}
.c0 {fill: #FFFFFF;}
]]></style>
            </defs>
<rect x="0" y="0" width="1920" height="1440" fill="black"/>
<circle cx="948" cy="568" r="14" class="c0"/>
<circle cx="972" cy="518" r="14" class="c0"/>
<circle cx="950" cy="456" r="12" class="c0"/>
<circle cx="884" cy="762" r="12" class="c0"/>
<circle cx="872" cy="674" r="12" class="c0"/>
<circle cx="838" cy="628" r="12" class="c0"/>
<circle cx="964" cy="796" r="12" class="c0"/>
<circle cx="888" cy="464" r="12" class="c0"/>
<circle cx="790" cy="1058" r="12" class="c0"/>
<circle cx="810" cy="886" r="12" class="c0"/>
<circle cx="896" cy="740" r="12" class="c0"/>
<circle cx="976" cy="906" r="12" class="c0"/>
<circle cx="844" cy="878" r="12" class="c0"/>
<circle cx="930" cy="730" r="12" class="c0"/>
<circle cx="826" cy="722" r="12" class="c0"/>
<circle cx="1022" cy="876" r="12" class="c0"/>
<circle cx="840" cy="682" r="12" class="c0"/>
<circle cx="892" cy="528" r="10" class="c0"/>
<circle cx="878" cy="852" r="10" class="c0"/>
<circle cx="852" cy="534" r="10" class="c0"/>
<circle cx="942" cy="924" r="10" class="c0"/>
<circle cx="946" cy="680" r="10" class="c0"/>
<circle cx="836" cy="944" r="10" class="c0"/>
<circle cx="886" cy="576" r="10" class="c0"/>
<circle cx="852" cy="732" r="10" class="c0"/>
<circle cx="1064" cy="854" r="10" class="c0"/>
<circle cx="966" cy="610" r="10" class="c0"/>
<circle cx="940" cy="640" r="10" class="c0"/>
<circle cx="876" cy="484" r="10" class="c0"/>
<circle cx="1010" cy="850" r="10" class="c0"/>
<circle cx="844" cy="774" r="10" class="c0"/>
<circle cx="972" cy="648" r="10" class="c0"/>
<circle cx="912" cy="808" r="10" class="c0"/>
<circle cx="914" cy="596" r="10" class="c0"/>
<circle cx="910" cy="486" r="10" class="c0"/>
<circle cx="950" cy="486" r="10" class="c0"/>
<circle cx="880" cy="632" r="10" class="c0"/>
<circle cx="934" cy="820" r="10" class="c0"/>
<circle cx="910" cy="558" r="10" class="c0"/>
<circle cx="956" cy="858" r="10" class="c0"/>
<circle cx="916" cy="926" r="10" class="c0"/>
<circle cx="1040" cy="858" r="10" class="c0"/>
<circle cx="916" cy="436" r="10" class="c0"/>
<circle cx="934" cy="890" r="10" class="c0"/>
<circle cx="914" cy="784" r="10" class="c0"/>
<circle cx="996" cy="774" r="10" class="c0"/>
<circle cx="826" cy="748" r="10" class="c0"/>
<circle cx="894" cy="398" r="10" class="c0"/>
<circle cx="928" cy="506" r="10" class="c0"/>
<circle cx="1004" cy="912" r="10" class="c0"/>
<circle cx="834" cy="812" r="10" class="c0"/>
<circle cx="852" cy="918" r="10" class="c0"/>
<circle cx="860" cy="946" r="10" class="c0"/>
<circle cx="1054" cy="890" r="10" class="c0"/>
<circle cx="910" cy="644" r="10" class="c0"/>
<circle cx="1030" cy="826" r="10" class="c0"/>
<circle cx="886" cy="428" r="10" class="c0"/>
<circle cx="820" cy="1066" r="10" class="c0"/>
<circle cx="856" cy="708" r="10" class="c0"/>
<circle cx="878" cy="702" r="10" class="c0"/>
<circle cx="856" cy="754" r="10" class="c0"/>
<circle cx="832" cy="848" r="10" class="c0"/>
<circle cx="966" cy="820" r="10" class="c0"/>
<circle cx="1008" cy="550" r="10" class="c0"/>
<circle cx="856" cy="794" r="10" class="c0"/>
<circle cx="910" cy="870" r="10" class="c0"/>
<circle cx="902" cy="700" r="10" class="c0"/>
<circle cx="990" cy="882" r="10" class="c0"/>
<circle cx="852" cy="398" r="10" class="c0"/>
<circle cx="798" cy="938" r="10" class="c0"/>
<circle cx="804" cy="910" r="10" class="c0"/>
<circle cx="806" cy="856" r="10" class="c0"/>
<circle cx="872" cy="962" r="10" class="c0"/>
<circle cx="880" cy="910" r="10" class="c0"/>
<circle cx="886" cy="940" r="10" class="c0"/>
<circle cx="910" cy="898" r="10" class="c0"/>
<circle cx="996" cy="592" r="10" class="c0"/>
<circle cx="860" cy="610" r="10" class="c0"/>
<circle cx="926" cy="402" r="10" class="c0"/>
<circle cx="912" cy="760" r="10" class="c0"/>
<circle cx="940" cy="390" r="10" class="c0"/>
<circle cx="880" cy="554" r="10" class="c0"/>
<circle cx="956" cy="884" r="10" class="c0"/>
<circle cx="932" cy="848" r="8" class="c0"/>
<circle cx="920" cy="532" r="8" class="c0"/>
<circle cx="902" cy="678" r="8" class="c0"/>
<circle cx="924" cy="616" r="8" class="c0"/>
<circle cx="894" cy="886" r="8" class="c0"/>
<circle cx="892" cy="660" r="8" class="c0"/>
<circle cx="960" cy="728" r="8" class="c0"/>
<circle cx="944" cy="1064" r="8" class="c0"/>
<circle cx="964" cy="950" r="8" class="c0"/>
<circle cx="814" cy="830" r="8" class="c0"/>
<circle cx="984" cy="760" r="8" class="c0"/>
<circle cx="966" cy="394" r="8" class="c0"/>
<circle cx="952" cy="658" r="8" class="c0"/>
<circle cx="958" cy="546" r="8" class="c0"/>
<circle cx="992" cy="824" r="8" class="c0"/>
<circle cx="840" cy="412" r="8" class="c0"/>
<circle cx="930" cy="768" r="8" class="c0"/>
<circle cx="962" cy="1006" r="8" class="c0"/>
<circle cx="806" cy="1018" r="8" class="c0"/>
<circle cx="902" cy="840" r="8" class="c0"/>
<circle cx="942" cy="780" r="8" class="c0"/>
<circle cx="902" cy="448" r="8" class="c0"/>
<circle cx="876" cy="810" r="8" class="c0"/>
<circle cx="956" cy="984" r="8" class="c0"/>
<circle cx="916" cy="716" r="8" class="c0"/>
<circle cx="864" cy="644" r="8" class="c0"/>
<circle cx="866" cy="876" r="8" class="c0"/>
<circle cx="932" cy="954" r="8" class="c0"/>
<circle cx="964" cy="766" r="8" class="c0"/>
<circle cx="962" cy="1036" r="8" class="c0"/>
<circle cx="996" cy="744" r="8" class="c0"/>
<circle cx="956" cy="702" r="8" class="c0"/>
<circle cx="918" cy="458" r="8" class="c0"/>
<circle cx="906" cy="956" r="8" class="c0"/>
<circle cx="928" cy="692" r="8" class="c0"/>
<circle cx="860" cy="562" r="8" class="c0"/>
<circle cx="952" cy="1020" r="8" class="c0"/>
<circle cx="950" cy="528" r="8" class="c0"/>
<circle cx="808" cy="998" r="8" class="c0"/>
<circle cx="872" cy="380" r="8" class="c0"/>
<circle cx="944" cy="964" r="8" class="c0"/>
<circle cx="1010" cy="796" r="8" class="c0"/>
<circle cx="990" cy="848" r="8" class="c0"/>
<circle cx="986" cy="924" r="8" class="c0"/>
<circle cx="948" cy="746" r="8" class="c0"/>
<circle cx="826" cy="980" r="8" class="c0"/>
<circle cx="884" cy="510" r="8" class="c0"/>
<circle cx="986" cy="800" r="8" class="c0"/>
<circle cx="896" cy="608" r="8" class="c0"/>
<circle cx="856" cy="514" r="8" class="c0"/>
<circle cx="940" cy="868" r="8" class="c0"/>
<circle cx="940" cy="606" r="8" class="c0"/>
<circle cx="846" cy="836" r="8" class="c0"/>
<circle cx="950" cy="420" r="8" class="c0"/>
<circle cx="782" cy="924" r="8" class="c0"/>
<circle cx="850" cy="584" r="8" class="c0"/>
<circle cx="824" cy="870" r="8" class="c0"/>
<circle cx="964" cy="630" r="8" class="c0"/>
<circle cx="858" cy="822" r="8" class="c0"/>
<circle cx="1040" cy="902" r="8" class="c0"/>
<circle cx="1008" cy="576" r="8" class="c0"/>
<circle cx="824" cy="698" r="8" class="c0"/>
<circle cx="930" cy="374" r="8" class="c0"/>
<circle cx="838" cy="604" r="8" class="c0"/>
<circle cx="988" cy="728" r="8" class="c0"/>
<circle cx="960" cy="1086" r="8" class="c0"/>
<circle cx="948" cy="904" r="8" class="c0"/>
<circle cx="926" cy="656" r="8" class="c0"/>
<circle cx="894" cy="796" r="8" class="c0"/>
<circle cx="842" cy="902" r="8" class="c0"/>
<circle cx="826" cy="1002" r="8" class="c0"/>
<circle cx="826" cy="960" r="8" class="c0"/>
<circle cx="906" cy="380" r="8" class="c0"/>
<circle cx="850" cy="658" r="8" class="c0"/>
<circle cx="928" cy="550" r="8" class="c0"/>
<circle cx="850" cy="962" r="8" class="c0"/>
<circle cx="938" cy="438" r="8" class="c0"/>
<circle cx="954" cy="592" r="8" class="c0"/>
<circle cx="824" cy="932" r="8" class="c0"/>
<circle cx="820" cy="640" r="8" class="c0"/>
<circle cx="902" cy="626" r="8" class="c0"/>
<circle cx="1070" cy="874" r="8" class="c0"/>
<circle cx="858" cy="424" r="8" class="c0"/>
<circle cx="902" cy="508" r="8" class="c0"/>
<circle cx="824" cy="900" r="8" class="c0"/>
<circle cx="952" cy="940" r="8" class="c0"/>
<circle cx="1008" cy="760" r="8" class="c0"/>
<circle cx="974" cy="706" r="8" class="c0"/>
<circle cx="832" cy="656" r="8" class="c0"/>
<circle cx="990" cy="536" r="8" class="c0"/>
<circle cx="816" cy="1038" r="8" class="c0"/>
<circle cx="840" cy="386" r="8" class="c0"/>
<circle cx="786" cy="902" r="8" class="c0"/>
<circle cx="896" cy="968" r="8" class="c0"/>
<circle cx="932" cy="794" r="8" class="c0"/>
<circle cx="928" cy="422" r="8" class="c0"/>
<circle cx="818" cy="774" r="8" class="c0"/>
<circle cx="858" cy="846" r="8" class="c0"/>
<circle cx="876" cy="722" r="8" class="c0"/>
<circle cx="874" cy="442" r="8" class="c0"/>
<circle cx="950" cy="838" r="8" class="c0"/>
<circle cx="964" cy="670" r="8" class="c0"/>
<circle cx="1008" cy="814" r="8" class="c0"/>
<circle cx="970" cy="580" r="8" class="c0"/>
<circle cx="970" cy="870" r="8" class="c0"/>
<circle cx="868" cy="524" r="8" class="c0"/>
<circle cx="968" cy="926" r="8" class="c0"/>
<circle cx="978" cy="740" r="8" class="c0"/>
<circle cx="930" cy="472" r="8" class="c0"/>
<circle cx="944" cy="712" r="8" class="c0"/>
<circle cx="920" cy="838" r="8" class="c0"/>
<circle cx="868" cy="414" r="8" class="c0"/>
<circle cx="930" cy="910" r="8" class="c0"/>
<circle cx="906" cy="412" r="8" class="c0"/>
<circle cx="806" cy="980" r="8" class="c0"/>
<circle cx="948" cy="622" r="8" class="c0"/>
<circle cx="898" cy="918" r="8" class="c0"/>
<circle cx="986" cy="612" r="8" class="c0"/>
<circle cx="976" cy="548" r="8" class="c0"/>
<circle cx="926" cy="578" r="8" class="c0"/>
<circle cx="938" cy="538" r="8" class="c0"/>
<circle cx="952" cy="1046" r="8" class="c0"/>
<circle cx="826" cy="794" r="8" class="c0"/>
<circle cx="870" cy="776" r="8" class="c0"/>
<circle cx="1052" cy="840" r="8" class="c0"/>
<circle cx="870" cy="594" r="8" class="c0"/>
<circle cx="916" cy="966" r="8" class="c0"/>
<circle cx="816" cy="948" r="8" class="c0"/>
<circle cx="974" cy="1074" r="8" class="c0"/>
<circle cx="948" cy="508" r="8" class="c0"/>
<circle cx="996" cy="564" r="8" class="c0"/>
<circle cx="868" cy="898" r="8" class="c0"/>
<circle cx="824" cy="1020" r="8" class="c0"/>
<circle cx="942" cy="1000" r="8" class="c0"/>
<circle cx="804" cy="1078" r="8" class="c0"/>
<circle cx="1020" cy="902" r="8" class="c0"/>
<circle cx="978" cy="782" r="8" class="c0"/>
<circle cx="890" cy="824" r="8" class="c0"/>
<circle cx="978" cy="940" r="8" class="c0"/>
<circle cx="916" cy="668" r="8" class="c0"/>
<circle cx="946" cy="808" r="8" class="c0"/>
<circle cx="976" cy="836" r="8" class="c0"/>
<circle cx="890" cy="372" r="8" class="c0"/>
<circle cx="884" cy="872" r="8" class="c0"/>
<circle cx="892" cy="494" r="8" class="c0"/>
<circle cx="870" cy="926" r="8" class="c0"/>
<circle cx="962" cy="1064" r="6" class="c0"/>
<circle cx="844" cy="564" r="6" class="c0"/>
<circle cx="1030" cy="804" r="6" class="c0"/>
<circle cx="814" cy="810" r="6" class="c0"/>
<circle cx="936" cy="666" r="6" class="c0"/>
<circle cx="1010" cy="890" r="6" class="c0"/>
<circle cx="886" cy="598" r="6" class="c0"/>
<circle cx="1014" cy="780" r="6" class="c0"/>
<circle cx="968" cy="972" r="6" class="c0"/>
<circle cx="962" cy="410" r="6" class="c0"/>
<circle cx="972" cy="690" r="6" class="c0"/>
<circle cx="962" cy="498" r="6" class="c0"/>
<circle cx="944" cy="1082" r="6" class="c0"/>
<circle cx="788" cy="882" r="6" class="c0"/>
<circle cx="912" cy="518" r="6" class="c0"/>
<circle cx="864" cy="692" r="6" class="c0"/>
<circle cx="868" cy="742" r="6" class="c0"/>
<circle cx="932" cy="752" r="6" class="c0"/>
<circle cx="852" cy="376" r="6" class="c0"/>
<circle cx="960" cy="378" r="6" class="c0"/>
<circle cx="836" cy="970" r="6" class="c0"/>
<circle cx="946" cy="762" r="6" class="c0"/>
<circle cx="878" cy="608" r="6" class="c0"/>
<circle cx="872" cy="832" r="6" class="c0"/>
<circle cx="896" cy="718" r="6" class="c0"/>
<circle cx="818" cy="624" r="6" class="c0"/>
<circle cx="866" cy="500" r="6" class="c0"/>
<circle cx="902" cy="542" r="6" class="c0"/>
<circle cx="870" cy="540" r="6" class="c0"/>
<circle cx="898" cy="776" r="6" class="c0"/>
<circle cx="1076" cy="894" r="6" class="c0"/>
<circle cx="968" cy="750" r="6" class="c0"/>
<circle cx="928" cy="448" r="6" class="c0"/>
<circle cx="840" cy="550" r="6" class="c0"/>
<circle cx="974" cy="852" r="6" class="c0"/>
<circle cx="954" cy="436" r="6" class="c0"/>
<circle cx="1054" cy="868" r="6" class="c0"/>
<circle cx="832" cy="914" r="6" class="c0"/>
<circle cx="874" cy="396" r="6" class="c0"/>
<circle cx="866" cy="578" r="6" class="c0"/>
<circle cx="918" cy="946" r="6" class="c0"/>
<circle cx="916" cy="366" r="6" class="c0"/>
<circle cx="1000" cy="864" r="6" class="c0"/>
<circle cx="1030" cy="912" r="6" class="c0"/>
<circle cx="890" cy="688" r="6" class="c0"/>
<circle cx="1000" cy="526" r="6" class="c0"/>
<circle cx="878" cy="790" r="6" class="c0"/>
<circle cx="928" cy="938" r="6" class="c0"/>
<circle cx="916" cy="742" r="6" class="c0"/>
<circle cx="1048" cy="822" r="6" class="c0"/>
<circle cx="1040" cy="812" r="6" class="c0"/>
<circle cx="794" cy="870" r="6" class="c0"/>
<circle cx="846" cy="858" r="6" class="c0"/>
<circle cx="910" cy="826" r="6" class="c0"/>
<circle cx="806" cy="1048" r="6" class="c0"/>
<circle cx="908" cy="578" r="6" class="c0"/>
<circle cx="896" cy="856" r="6" class="c0"/>
<circle cx="938" cy="588" r="6" class="c0"/>
<circle cx="958" cy="916" r="6" class="c0"/>
<circle cx="822" cy="674" r="6" class="c0"/>
<circle cx="1010" cy="830" r="6" class="c0"/>
<circle cx="912" cy="852" r="6" class="c0"/>
<circle cx="900" cy="586" r="6" class="c0"/>
<circle cx="882" cy="650" r="6" class="c0"/>
<circle cx="1044" cy="876" r="6" class="c0"/>
<circle cx="862" cy="628" r="6" class="c0"/>
<circle cx="886" cy="782" r="6" class="c0"/>
<circle cx="1024" cy="788" r="6" class="c0"/>
<circle cx="952" cy="402" r="6" class="c0"/>
<circle cx="922" cy="632" r="6" class="c0"/>
<circle cx="1028" cy="846" r="6" class="c0"/>
<circle cx="838" cy="706" r="6" class="c0"/>
<circle cx="978" cy="596" r="6" class="c0"/>
<circle cx="942" cy="1032" r="6" class="c0"/>
<circle cx="908" cy="468" r="6" class="c0"/>
<circle cx="970" cy="992" r="6" class="c0"/>
<circle cx="932" cy="488" r="6" class="c0"/>
<circle cx="904" cy="938" r="6" class="c0"/>
<circle cx="816" cy="970" r="6" class="c0"/>
<circle cx="878" cy="888" r="6" class="c0"/>
</svg>
