<?xml version="1.0" encoding="utf-8"?>
<svg xmlns="http://www.w3.org/2000/svg"
     xmlns:xlink="http://www.w3.org/1999/xlink" width="1920" height="1440" >

            <defs>
            <style type="text/css"><![CDATA[
circle {stroke: none;}
.c0 {fill: #FFFFFF;}
]]></style>
            </defs>
<rect x="0" y="0" width="1920" height="1440" fill="black"/>
<circle cx="780" cy="1004" r="14" class="c0"/>
<circle cx="1000" cy="988" r="12" class="c0"/>
<circle cx="810" cy="662" r="12" class="c0"/>
<circle cx="842" cy="784" r="12" class="c0"/>
<circle cx="902" cy="796" r="12" class="c0"/>
<circle cx="954" cy="1092" r="12" class="c0"/>
<circle cx="1012" cy="948" r="12" class="c0"/>
<circle cx="950" cy="958" r="12" class="c0"/>
<circle cx="970" cy="844" r="12" class="c0"/>
<circle cx="914" cy="482" r="12" class="c0"/>
<circle cx="870" cy="716" r="12" class="c0"/>
<circle cx="914" cy="1024" r="12" class="c0"/>
<circle cx="852" cy="950" r="12" class="c0"/>
<circle cx="858" cy="1054" r="12" class="c0"/>
<circle cx="838" cy="714" r="12" class="c0"/>
<circle cx="972" cy="1176" r="12" class="c0"/>
<circle cx="886" cy="402" r="12" class="c0"/>
<circle cx="824" cy="1076" r="12" class="c0"/>
<circle cx="978" cy="820" r="12" class="c0"/>
<circle cx="978" cy="912" r="12" class="c0"/>
<circle cx="910" cy="618" r="12" class="c0"/>
<circle cx="932" cy="914" r="12" class="c0"/>
<circle cx="892" cy="1080" r="12" class="c0"/>
<circle cx="794" cy="940" r="12" class="c0"/>
<circle cx="956" cy="620" r="12" class="c0"/>
<circle cx="1026" cy="990" r="12" class="c0"/>
<circle cx="898" cy="870" r="12" class="c0"/>
<circle cx="834" cy="604" r="12" class="c0"/>
<circle cx="902" cy="690" r="12" class="c0"/>
<circle cx="976" cy="596" r="12" class="c0"/>
<circle cx="802" cy="1020" r="12" class="c0"/>
<circle cx="780" cy="890" r="12" class="c0"/>
<circle cx="864" cy="902" r="12" class="c0"/>
<circle cx="920" cy="508" r="12" class="c0"/>
<circle cx="852" cy="750" r="12" class="c0"/>
<circle cx="796" cy="1152" r="10" class="c0"/>
<circle cx="870" cy="432" r="10" class="c0"/>
<circle cx="866" cy="800" r="10" class="c0"/>
<circle cx="820" cy="620" r="10" class="c0"/>
<circle cx="920" cy="878" r="10" class="c0"/>
<circle cx="1054" cy="1018" r="10" class="c0"/>
<circle cx="974" cy="998" r="10" class="c0"/>
<circle cx="848" cy="414" r="10" class="c0"/>
<circle cx="786" cy="1220" r="10" class="c0"/>
<circle cx="1006" cy="918" r="10" class="c0"/>
<circle cx="860" cy="878" r="10" class="c0"/>
<circle cx="900" cy="580" r="10" class="c0"/>
<circle cx="1014" cy="858" r="10" class="c0"/>
<circle cx="850" cy="462" r="10" class="c0"/>
<circle cx="806" cy="908" r="10" class="c0"/>
<circle cx="758" cy="1016" r="10" class="c0"/>
<circle cx="956" cy="764" r="10" class="c0"/>
<circle cx="944" cy="822" r="10" class="c0"/>
<circle cx="956" cy="734" r="10" class="c0"/>
<circle cx="1078" cy="1006" r="10" class="c0"/>
<circle cx="796" cy="678" r="10" class="c0"/>
<circle cx="938" cy="782" r="10" class="c0"/>
<circle cx="950" cy="670" r="10" class="c0"/>
<circle cx="876" cy="988" r="10" class="c0"/>
<circle cx="810" cy="816" r="10" class="c0"/>
<circle cx="814" cy="844" r="10" class="c0"/>
<circle cx="888" cy="494" r="10" class="c0"/>
<circle cx="968" cy="386" r="10" class="c0"/>
<circle cx="798" cy="770" r="10" class="c0"/>
<circle cx="1008" cy="618" r="10" class="c0"/>
<circle cx="872" cy="584" r="10" class="c0"/>
<circle cx="814" cy="930" r="10" class="c0"/>
<circle cx="902" cy="1046" r="10" class="c0"/>
<circle cx="786" cy="1122" r="10" class="c0"/>
<circle cx="938" cy="652" r="10" class="c0"/>
<circle cx="772" cy="1196" r="10" class="c0"/>
<circle cx="1028" cy="886" r="10" class="c0"/>
<circle cx="892" cy="428" r="10" class="c0"/>
<circle cx="840" cy="986" r="10" class="c0"/>
<circle cx="866" cy="506" r="10" class="c0"/>
<circle cx="828" cy="374" r="10" class="c0"/>
<circle cx="1058" cy="948" r="10" class="c0"/>
<circle cx="854" cy="392" r="10" class="c0"/>
<circle cx="928" cy="1068" r="10" class="c0"/>
<circle cx="950" cy="876" r="10" class="c0"/>
<circle cx="850" cy="1010" r="10" class="c0"/>
<circle cx="934" cy="542" r="10" class="c0"/>
<circle cx="1008" cy="1026" r="10" class="c0"/>
<circle cx="846" cy="578" r="10" class="c0"/>
<circle cx="958" cy="1122" r="10" class="c0"/>
<circle cx="904" cy="770" r="10" class="c0"/>
<circle cx="842" cy="520" r="10" class="c0"/>
<circle cx="892" cy="522" r="10" class="c0"/>
<circle cx="792" cy="1178" r="10" class="c0"/>
<circle cx="872" cy="614" r="10" class="c0"/>
<circle cx="878" cy="768" r="10" class="c0"/>
<circle cx="960" cy="512" r="10" class="c0"/>
<circle cx="916" cy="658" r="10" class="c0"/>
<circle cx="930" cy="464" r="10" class="c0"/>
<circle cx="950" cy="1212" r="10" class="c0"/>
<circle cx="880" cy="842" r="10" class="c0"/>
<circle cx="900" cy="454" r="10" class="c0"/>
<circle cx="960" cy="698" r="10" class="c0"/>
<circle cx="848" cy="486" r="10" class="c0"/>
<circle cx="1042" cy="962" r="10" class="c0"/>
<circle cx="858" cy="682" r="10" class="c0"/>
<circle cx="882" cy="1032" r="10" class="c0"/>
<circle cx="922" cy="400" r="10" class="c0"/>
<circle cx="942" cy="574" r="10" class="c0"/>
<circle cx="916" cy="708" r="10" class="c0"/>
<circle cx="788" cy="1088" r="10" class="c0"/>
<circle cx="934" cy="760" r="10" class="c0"/>
<circle cx="900" cy="986" r="10" class="c0"/>
<circle cx="786" cy="1048" r="10" class="c0"/>
<circle cx="822" cy="728" r="10" class="c0"/>
<circle cx="960" cy="406" r="10" class="c0"/>
<circle cx="866" cy="1088" r="10" class="c0"/>
<circle cx="870" cy="928" r="10" class="c0"/>
<circle cx="982" cy="1050" r="10" class="c0"/>
<circle cx="982" cy="548" r="10" class="c0"/>
<circle cx="842" cy="854" r="10" class="c0"/>
<circle cx="968" cy="648" r="10" class="c0"/>
<circle cx="848" cy="824" r="10" class="c0"/>
<circle cx="854" cy="534" r="10" class="c0"/>
<circle cx="1002" cy="586" r="10" class="c0"/>
<circle cx="750" cy="1202" r="10" class="c0"/>
<circle cx="972" cy="748" r="10" class="c0"/>
<circle cx="974" cy="1230" r="10" class="c0"/>
<circle cx="826" cy="552" r="10" class="c0"/>
<circle cx="824" cy="890" r="10" class="c0"/>
<circle cx="896" cy="716" r="10" class="c0"/>
<circle cx="980" cy="678" r="10" class="c0"/>
<circle cx="942" cy="498" r="10" class="c0"/>
<circle cx="954" cy="1020" r="10" class="c0"/>
<circle cx="926" cy="964" r="10" class="c0"/>
<circle cx="1030" cy="928" r="10" class="c0"/>
<circle cx="932" cy="358" r="10" class="c0"/>
<circle cx="1064" cy="994" r="10" class="c0"/>
<circle cx="916" cy="428" r="10" class="c0"/>
<circle cx="904" cy="352" r="10" class="c0"/>
<circle cx="840" cy="658" r="10" class="c0"/>
<circle cx="770" cy="938" r="10" class="c0"/>
<circle cx="948" cy="1050" r="10" class="c0"/>
<circle cx="986" cy="786" r="10" class="c0"/>
<circle cx="748" cy="988" r="10" class="c0"/>
<circle cx="986" cy="884" r="8" class="c0"/>
<circle cx="936" cy="712" r="8" class="c0"/>
<circle cx="920" cy="636" r="8" class="c0"/>
<circle cx="948" cy="930" r="8" class="c0"/>
<circle cx="932" cy="1040" r="8" class="c0"/>
<circle cx="958" cy="1192" r="8" class="c0"/>
<circle cx="812" cy="792" r="8" class="c0"/>
<circle cx="968" cy="564" r="8" class="c0"/>
<circle cx="1084" cy="982" r="8" class="c0"/>
<circle cx="980" cy="1024" r="8" class="c0"/>
<circle cx="876" cy="364" r="8" class="c0"/>
<circle cx="802" cy="990" r="8" class="c0"/>
<circle cx="926" cy="940" r="8" class="c0"/>
<circle cx="894" cy="946" r="8" class="c0"/>
<circle cx="1008" cy="836" r="8" class="c0"/>
<circle cx="962" cy="804" r="8" class="c0"/>
<circle cx="776" cy="820" r="8" class="c0"/>
<circle cx="874" cy="660" r="8" class="c0"/>
<circle cx="1028" cy="1016" r="8" class="c0"/>
<circle cx="792" cy="700" r="8" class="c0"/>
<circle cx="884" cy="540" r="8" class="c0"/>
<circle cx="974" cy="872" r="8" class="c0"/>
<circle cx="894" cy="738" r="8" class="c0"/>
<circle cx="816" cy="956" r="8" class="c0"/>
<circle cx="796" cy="872" r="8" class="c0"/>
<circle cx="874" cy="1220" r="8" class="c0"/>
<circle cx="910" cy="818" r="8" class="c0"/>
<circle cx="760" cy="970" r="8" class="c0"/>
<circle cx="934" cy="1010" r="8" class="c0"/>
<circle cx="922" cy="746" r="8" class="c0"/>
<circle cx="872" cy="550" r="8" class="c0"/>
<circle cx="840" cy="880" r="8" class="c0"/>
<circle cx="860" cy="638" r="8" class="c0"/>
<circle cx="934" cy="384" r="8" class="c0"/>
<circle cx="938" cy="888" r="8" class="c0"/>
<circle cx="952" cy="354" r="8" class="c0"/>
<circle cx="794" cy="964" r="8" class="c0"/>
<circle cx="890" cy="964" r="8" class="c0"/>
<circle cx="906" cy="1066" r="8" class="c0"/>
<circle cx="996" cy="644" r="8" class="c0"/>
<circle cx="824" cy="972" r="8" class="c0"/>
<circle cx="872" cy="862" r="8" class="c0"/>
<circle cx="846" cy="1082" r="8" class="c0"/>
<circle cx="822" cy="998" r="8" class="c0"/>
<circle cx="990" cy="934" r="8" class="c0"/>
<circle cx="938" cy="440" r="8" class="c0"/>
<circle cx="838" cy="438" r="8" class="c0"/>
<circle cx="900" cy="904" r="8" class="c0"/>
<circle cx="922" cy="838" r="8" class="c0"/>
<circle cx="820" cy="680" r="8" class="c0"/>
<circle cx="938" cy="420" r="8" class="c0"/>
<circle cx="994" cy="864" r="8" class="c0"/>
<circle cx="862" cy="374" r="8" class="c0"/>
<circle cx="822" cy="698" r="8" class="c0"/>
<circle cx="790" cy="794" r="8" class="c0"/>
<circle cx="986" cy="632" r="8" class="c0"/>
<circle cx="826" cy="764" r="8" class="c0"/>
<circle cx="734" cy="1022" r="8" class="c0"/>
<circle cx="912" cy="538" r="8" class="c0"/>
<circle cx="1002" cy="810" r="8" class="c0"/>
<circle cx="896" cy="558" r="8" class="c0"/>
<circle cx="878" cy="462" r="8" class="c0"/>
<circle cx="840" cy="626" r="8" class="c0"/>
<circle cx="938" cy="858" r="8" class="c0"/>
<circle cx="786" cy="918" r="8" class="c0"/>
<circle cx="944" cy="984" r="8" class="c0"/>
<circle cx="988" cy="958" r="8" class="c0"/>
<circle cx="946" cy="478" r="8" class="c0"/>
<circle cx="898" cy="924" r="8" class="c0"/>
<circle cx="860" cy="562" r="8" class="c0"/>
<circle cx="814" cy="1058" r="8" class="c0"/>
<circle cx="924" cy="998" r="8" class="c0"/>
<circle cx="810" cy="750" r="8" class="c0"/>
<circle cx="812" cy="396" r="8" class="c0"/>
<circle cx="830" cy="1040" r="8" class="c0"/>
<circle cx="772" cy="960" r="8" class="c0"/>
<circle cx="766" cy="1044" r="8" class="c0"/>
<circle cx="810" cy="566" r="8" class="c0"/>
<circle cx="864" cy="976" r="8" class="c0"/>
<circle cx="892" cy="638" r="8" class="c0"/>
<circle cx="924" cy="594" r="8" class="c0"/>
<circle cx="934" cy="624" r="8" class="c0"/>
<circle cx="778" cy="1164" r="8" class="c0"/>
<circle cx="884" cy="678" r="8" class="c0"/>
<circle cx="980" cy="974" r="8" class="c0"/>
<circle cx="968" cy="942" r="8" class="c0"/>
<circle cx="890" cy="818" r="8" class="c0"/>
<circle cx="876" cy="1064" r="8" class="c0"/>
<circle cx="822" cy="1100" r="8" class="c0"/>
<circle cx="968" cy="1202" r="8" class="c0"/>
<circle cx="880" cy="696" r="8" class="c0"/>
<circle cx="966" cy="1060" r="8" class="c0"/>
<circle cx="766" cy="1218" r="8" class="c0"/>
<circle cx="942" cy="604" r="8" class="c0"/>
<circle cx="884" cy="884" r="8" class="c0"/>
<circle cx="884" cy="570" r="8" class="c0"/>
<circle cx="950" cy="1238" r="8" class="c0"/>
<circle cx="810" cy="1116" r="8" class="c0"/>
<circle cx="1052" cy="978" r="8" class="c0"/>
<circle cx="900" cy="376" r="8" class="c0"/>
<circle cx="926" cy="802" r="8" class="c0"/>
<circle cx="952" cy="1148" r="8" class="c0"/>
<circle cx="912" cy="852" r="8" class="c0"/>
<circle cx="930" cy="676" r="8" class="c0"/>
<circle cx="830" cy="800" r="8" class="c0"/>
<circle cx="830" cy="398" r="8" class="c0"/>
<circle cx="990" cy="610" r="8" class="c0"/>
<circle cx="1034" cy="908" r="8" class="c0"/>
<circle cx="950" cy="556" r="8" class="c0"/>
<circle cx="1052" cy="924" r="8" class="c0"/>
<circle cx="918" cy="558" r="8" class="c0"/>
<circle cx="938" cy="522" r="8" class="c0"/>
<circle cx="870" cy="1020" r="8" class="c0"/>
<circle cx="858" cy="842" r="8" class="c0"/>
<circle cx="794" cy="834" r="8" class="c0"/>
<circle cx="892" cy="474" r="8" class="c0"/>
<circle cx="810" cy="542" r="8" class="c0"/>
<circle cx="826" cy="910" r="8" class="c0"/>
<circle cx="812" cy="592" r="8" class="c0"/>
<circle cx="804" cy="1068" r="8" class="c0"/>
<circle cx="974" cy="1102" r="8" class="c0"/>
<circle cx="772" cy="670" r="8" class="c0"/>
<circle cx="902" cy="1008" r="8" class="c0"/>
<circle cx="874" cy="954" r="8" class="c0"/>
<circle cx="952" cy="902" r="8" class="c0"/>
<circle cx="748" cy="1032" r="8" class="c0"/>
<circle cx="854" cy="728" r="8" class="c0"/>
<circle cx="992" cy="568" r="8" class="c0"/>
<circle cx="994" cy="1012" r="8" class="c0"/>
<circle cx="856" cy="594" r="8" class="c0"/>
<circle cx="786" cy="856" r="8" class="c0"/>
<circle cx="810" cy="716" r="8" class="c0"/>
<circle cx="824" cy="862" r="8" class="c0"/>
<circle cx="898" cy="834" r="8" class="c0"/>
<circle cx="788" cy="720" r="8" class="c0"/>
<circle cx="1068" cy="968" r="8" class="c0"/>
<circle cx="756" cy="1056" r="8" class="c0"/>
<circle cx="760" cy="1180" r="8" class="c0"/>
<circle cx="822" cy="644" r="8" class="c0"/>
<circle cx="944" cy="1284" r="8" class="c0"/>
<circle cx="948" cy="374" r="8" class="c0"/>
<circle cx="802" cy="1194" r="8" class="c0"/>
<circle cx="946" cy="842" r="8" class="c0"/>
<circle cx="820" cy="524" r="8" class="c0"/>
<circle cx="844" cy="924" r="8" class="c0"/>
<circle cx="882" cy="1100" r="8" class="c0"/>
<circle cx="1006" cy="878" r="8" class="c0"/>
<circle cx="964" cy="1248" r="8" class="c0"/>
<circle cx="964" cy="890" r="8" class="c0"/>
<circle cx="866" cy="354" r="8" class="c0"/>
<circle cx="810" cy="1040" r="8" class="c0"/>
<circle cx="996" cy="846" r="8" class="c0"/>
<circle cx="1016" cy="972" r="8" class="c0"/>
<circle cx="826" cy="582" r="8" class="c0"/>
<circle cx="972" cy="1144" r="8" class="c0"/>
<circle cx="974" cy="524" r="8" class="c0"/>
<circle cx="946" cy="1174" r="8" class="c0"/>
<circle cx="874" cy="482" r="8" class="c0"/>
<circle cx="842" cy="900" r="8" class="c0"/>
<circle cx="918" cy="370" r="8" class="c0"/>
<circle cx="828" cy="946" r="8" class="c0"/>
<circle cx="960" cy="534" r="8" class="c0"/>
<circle cx="908" cy="936" r="8" class="c0"/>
<circle cx="874" cy="740" r="8" class="c0"/>
<circle cx="914" cy="728" r="8" class="c0"/>
<circle cx="964" cy="782" r="8" class="c0"/>
<circle cx="830" cy="1016" r="8" class="c0"/>
<circle cx="882" cy="1010" r="8" class="c0"/>
<circle cx="954" cy="590" r="8" class="c0"/>
<circle cx="752" cy="950" r="8" class="c0"/>
<circle cx="782" cy="1028" r="8" class="c0"/>
<circle cx="810" cy="1090" r="8" class="c0"/>
<circle cx="808" cy="1216" r="8" class="c0"/>
<circle cx="1012" cy="1006" r="8" class="c0"/>
<circle cx="780" cy="688" r="8" class="c0"/>
<circle cx="934" cy="1228" r="8" class="c0"/>
<circle cx="826" cy="830" r="8" class="c0"/>
<circle cx="898" cy="666" r="8" class="c0"/>
<circle cx="852" cy="1032" r="8" class="c0"/>
<circle cx="950" cy="460" r="8" class="c0"/>
<circle cx="890" cy="598" r="8" class="c0"/>
<circle cx="836" cy="962" r="8" class="c0"/>
<circle cx="932" cy="732" r="8" class="c0"/>
<circle cx="892" cy="756" r="8" class="c0"/>
<circle cx="966" cy="1034" r="8" class="c0"/>
<circle cx="994" cy="900" r="8" class="c0"/>
<circle cx="962" cy="976" r="8" class="c0"/>
<circle cx="848" cy="362" r="8" class="c0"/>
<circle cx="778" cy="978" r="8" class="c0"/>
<circle cx="778" cy="1140" r="6" class="c0"/>
<circle cx="826" cy="356" r="6" class="c0"/>
<circle cx="932" cy="696" r="6" class="c0"/>
<circle cx="802" cy="1134" r="6" class="c0"/>
<circle cx="912" cy="1082" r="6" class="c0"/>
<circle cx="1076" cy="954" r="6" class="c0"/>
<circle cx="838" cy="1062" r="6" class="c0"/>
<circle cx="1022" cy="1040" r="6" class="c0"/>
<circle cx="976" cy="1076" r="6" class="c0"/>
<circle cx="874" cy="822" r="6" class="c0"/>
<circle cx="966" cy="344" r="6" class="c0"/>
<circle cx="884" cy="910" r="6" class="c0"/>
<circle cx="882" cy="788" r="6" class="c0"/>
<circle cx="844" cy="692" r="6" class="c0"/>
<circle cx="942" cy="1134" r="6" class="c0"/>
<circle cx="806" cy="888" r="6" class="c0"/>
<circle cx="984" cy="656" r="6" class="c0"/>
<circle cx="910" cy="954" r="6" class="c0"/>
<circle cx="1036" cy="1034" r="6" class="c0"/>
<circle cx="920" cy="446" r="6" class="c0"/>
<circle cx="952" cy="432" r="6" class="c0"/>
<circle cx="770" cy="916" r="6" class="c0"/>
<circle cx="944" cy="800" r="6" class="c0"/>
<circle cx="1048" cy="900" r="6" class="c0"/>
<circle cx="876" cy="344" r="6" class="c0"/>
<circle cx="884" cy="1050" r="6" class="c0"/>
<circle cx="798" cy="1232" r="6" class="c0"/>
<circle cx="1040" cy="1002" r="6" class="c0"/>
<circle cx="1032" cy="946" r="6" class="c0"/>
<circle cx="890" cy="616" r="6" class="c0"/>
<circle cx="806" cy="1168" r="6" class="c0"/>
<circle cx="920" cy="778" r="6" class="c0"/>
<circle cx="978" cy="1126" r="6" class="c0"/>
<circle cx="860" cy="996" r="6" class="c0"/>
<circle cx="854" cy="700" r="6" class="c0"/>
<circle cx="850" cy="614" r="6" class="c0"/>
<circle cx="800" cy="732" r="6" class="c0"/>
<circle cx="860" cy="770" r="6" class="c0"/>
<circle cx="840" cy="736" r="6" class="c0"/>
<circle cx="972" cy="710" r="6" class="c0"/>
<circle cx="872" cy="530" r="6" class="c0"/>
<circle cx="740" cy="1004" r="6" class="c0"/>
<circle cx="872" cy="414" r="6" class="c0"/>
<circle cx="796" cy="1106" r="6" class="c0"/>
<circle cx="912" cy="974" r="6" class="c0"/>
<circle cx="944" cy="690" r="6" class="c0"/>
<circle cx="782" cy="1066" r="6" class="c0"/>
<circle cx="828" cy="748" r="6" class="c0"/>
<circle cx="1014" cy="598" r="6" class="c0"/>
<circle cx="872" cy="388" r="6" class="c0"/>
<circle cx="864" cy="1106" r="6" class="c0"/>
<circle cx="806" cy="634" r="6" class="c0"/>
<circle cx="964" cy="426" r="6" class="c0"/>
<circle cx="956" cy="1000" r="6" class="c0"/>
<circle cx="948" cy="1072" r="6" class="c0"/>
<circle cx="944" cy="1112" r="6" class="c0"/>
<circle cx="978" cy="404" r="6" class="c0"/>
<circle cx="954" cy="716" r="6" class="c0"/>
<circle cx="974" cy="1278" r="6" class="c0"/>
<circle cx="776" cy="1106" r="6" class="c0"/>
<circle cx="918" cy="898" r="6" class="c0"/>
<circle cx="832" cy="422" r="6" class="c0"/>
<circle cx="848" cy="1100" r="6" class="c0"/>
<circle cx="904" cy="410" r="6" class="c0"/>
<circle cx="960" cy="920" r="6" class="c0"/>
<circle cx="804" cy="974" r="6" class="c0"/>
<circle cx="802" cy="386" r="6" class="c0"/>
<circle cx="994" cy="1036" r="6" class="c0"/>
<circle cx="880" cy="380" r="6" class="c0"/>
<circle cx="1088" cy="1022" r="6" class="c0"/>
<circle cx="858" cy="656" r="6" class="c0"/>
<circle cx="970" cy="962" r="6" class="c0"/>
<circle cx="1018" cy="906" r="6" class="c0"/>
<circle cx="866" cy="452" r="6" class="c0"/>
<circle cx="770" cy="836" r="6" class="c0"/>
<circle cx="920" cy="576" r="6" class="c0"/>
<circle cx="948" cy="638" r="6" class="c0"/>
<circle cx="830" cy="534" r="6" class="c0"/>
<circle cx="984" cy="764" r="6" class="c0"/>
<circle cx="788" cy="1244" r="6" class="c0"/>
<circle cx="940" cy="404" r="6" class="c0"/>
<circle cx="920" cy="982" r="6" class="c0"/>
<circle cx="836" cy="682" r="6" class="c0"/>
<circle cx="788" cy="662" r="6" class="c0"/>
<circle cx="906" cy="392" r="6" class="c0"/>
<circle cx="766" cy="990" r="6" class="c0"/>
<circle cx="808" cy="690" r="6" class="c0"/>
<circle cx="956" cy="856" r="6" class="c0"/>
<circle cx="982" cy="696" r="6" class="c0"/>
<circle cx="844" cy="556" r="6" class="c0"/>
<circle cx="920" cy="344" r="6" class="c0"/>
<circle cx="976" cy="772" r="6" class="c0"/>
<circle cx="918" cy="1054" r="6" class="c0"/>
<circle cx="918" cy="926" r="6" class="c0"/>
<circle cx="976" cy="622" r="6" class="c0"/>
<circle cx="1010" cy="896" r="6" class="c0"/>
<circle cx="806" cy="862" r="6" class="c0"/>
<circle cx="814" cy="874" r="6" class="c0"/>
<circle cx="864" cy="472" r="6" class="c0"/>
<circle cx="998" cy="968" r="6" class="c0"/>
<circle cx="972" cy="418" r="6" class="c0"/>
<circle cx="876" cy="636" r="6" class="c0"/>
<circle cx="846" cy="804" r="6" class="c0"/>
<circle cx="858" cy="444" r="6" class="c0"/>
<circle cx="962" cy="1158" r="6" class="c0"/>
<circle cx="950" cy="392" r="6" class="c0"/>
<circle cx="792" cy="814" r="6" class="c0"/>
<circle cx="752" cy="1254" r="6" class="c0"/>
<circle cx="980" cy="1158" r="6" class="c0"/>
<circle cx="908" cy="596" r="6" class="c0"/>
<circle cx="950" cy="1264" r="6" class="c0"/>
<circle cx="816" cy="774" r="6" class="c0"/>
<circle cx="882" cy="444" r="6" class="c0"/>
<circle cx="824" cy="414" r="6" class="c0"/>
<circle cx="820" cy="1028" r="6" class="c0"/>
<circle cx="978" cy="576" r="6" class="c0"/>
<circle cx="902" cy="648" r="6" class="c0"/>
<circle cx="908" cy="890" r="6" class="c0"/>
<circle cx="1084" cy="964" r="6" class="c0"/>
<circle cx="910" cy="914" r="6" class="c0"/>
<circle cx="900" cy="506" r="6" class="c0"/>
<circle cx="1024" cy="844" r="6" class="c0"/>
<circle cx="764" cy="1240" r="6" class="c0"/>
<circle cx="786" cy="1262" r="6" class="c0"/>
<circle cx="946" cy="748" r="6" class="c0"/>
<circle cx="952" cy="792" r="6" class="c0"/>
<circle cx="1036" cy="870" r="6" class="c0"/>
<circle cx="836" cy="1092" r="6" class="c0"/>
<circle cx="962" cy="366" r="6" class="c0"/>
<circle cx="998" cy="826" r="6" class="c0"/>
<circle cx="896" cy="850" r="6" class="c0"/>
<circle cx="940" cy="1080" r="6" class="c0"/>
<circle cx="840" cy="502" r="6" class="c0"/>
<circle cx="1066" cy="932" r="6" class="c0"/>
<circle cx="978" cy="1264" r="6" class="c0"/>
<circle cx="760" cy="924" r="6" class="c0"/>
<circle cx="890" cy="780" r="6" class="c0"/>
<circle cx="796" cy="1252" r="6" class="c0"/>
<circle cx="828" cy="510" r="6" class="c0"/>
<circle cx="1044" cy="938" r="6" class="c0"/>
<circle cx="922" cy="528" r="6" class="c0"/>
<circle cx="986" cy="388" r="6" class="c0"/>
<circle cx="864" cy="406" r="6" class="c0"/>
<circle cx="978" cy="1212" r="6" class="c0"/>
<circle cx="886" cy="354" r="6" class="c0"/>
<circle cx="906" cy="748" r="6" class="c0"/>
<circle cx="780" cy="804" r="6" class="c0"/>
<circle cx="1012" cy="820" r="6" class="c0"/>
<circle cx="926" cy="820" r="6" class="c0"/>
<circle cx="884" cy="728" r="6" class="c0"/>
</svg>
