<?xml version="1.0" encoding="utf-8"?>
<svg xmlns="http://www.w3.org/2000/svg"
     xmlns:xlink="http://www.w3.org/1999/xlink" width="1920" height="1440" >

            <defs>
            <style type="text/css"><![CDATA[
circle {stroke: none;}
.c0 {fill: #FFFFFF;}
]]></style>
            </defs>
<rect x="0" y="0" width="1920" height="1440" fill="black"/>
<circle cx="876" cy="826" r="12" class="c0"/>
<circle cx="910" cy="898" r="12" class="c0"/>
<circle cx="918" cy="1010" r="12" class="c0"/>
<circle cx="836" cy="794" r="12" class="c0"/>
<circle cx="836" cy="624" r="12" class="c0"/>
<circle cx="830" cy="980" r="12" class="c0"/>
<circle cx="832" cy="578" r="12" class="c0"/>
<circle cx="912" cy="960" r="12" class="c0"/>
<circle cx="958" cy="416" r="12" class="c0"/>
<circle cx="824" cy="384" r="12" class="c0"/>
<circle cx="868" cy="660" r="12" class="c0"/>
<circle cx="838" cy="894" r="12" class="c0"/>
<circle cx="834" cy="948" r="12" class="c0"/>
<circle cx="794" cy="1088" r="12" class="c0"/>
<circle cx="938" cy="1078" r="12" class="c0"/>
<circle cx="978" cy="400" r="12" class="c0"/>
<circle cx="932" cy="728" r="12" class="c0"/>
<circle cx="996" cy="900" r="12" class="c0"/>
<circle cx="822" cy="700" r="12" class="c0"/>
<circle cx="968" cy="1284" r="12" class="c0"/>
<circle cx="846" cy="476" r="12" class="c0"/>
<circle cx="970" cy="880" r="12" class="c0"/>
<circle cx="962" cy="1150" r="12" class="c0"/>
<circle cx="882" cy="562" r="12" class="c0"/>
<circle cx="740" cy="1258" r="12" class="c0"/>
<circle cx="986" cy="862" r="12" class="c0"/>
<circle cx="806" cy="634" r="12" class="c0"/>
<circle cx="924" cy="398" r="12" class="c0"/>
<circle cx="896" cy="756" r="12" class="c0"/>
<circle cx="934" cy="378" r="10" class="c0"/>
<circle cx="1006" cy="616" r="10" class="c0"/>
<circle cx="942" cy="854" r="10" class="c0"/>
<circle cx="822" cy="728" r="10" class="c0"/>
<circle cx="938" cy="618" r="10" class="c0"/>
<circle cx="970" cy="1028" r="10" class="c0"/>
<circle cx="978" cy="942" r="10" class="c0"/>
<circle cx="922" cy="652" r="10" class="c0"/>
<circle cx="744" cy="1024" r="10" class="c0"/>
<circle cx="880" cy="406" r="10" class="c0"/>
<circle cx="848" cy="1016" r="10" class="c0"/>
<circle cx="852" cy="860" r="10" class="c0"/>
<circle cx="866" cy="762" r="10" class="c0"/>
<circle cx="896" cy="1050" r="10" class="c0"/>
<circle cx="880" cy="1066" r="10" class="c0"/>
<circle cx="948" cy="1006" r="10" class="c0"/>
<circle cx="950" cy="652" r="10" class="c0"/>
<circle cx="774" cy="1236" r="10" class="c0"/>
<circle cx="848" cy="1066" r="10" class="c0"/>
<circle cx="854" cy="690" r="10" class="c0"/>
<circle cx="986" cy="824" r="10" class="c0"/>
<circle cx="960" cy="380" r="10" class="c0"/>
<circle cx="878" cy="494" r="10" class="c0"/>
<circle cx="922" cy="356" r="10" class="c0"/>
<circle cx="776" cy="1030" r="10" class="c0"/>
<circle cx="1076" cy="1016" r="10" class="c0"/>
<circle cx="850" cy="432" r="10" class="c0"/>
<circle cx="962" cy="826" r="10" class="c0"/>
<circle cx="798" cy="1156" r="10" class="c0"/>
<circle cx="874" cy="1010" r="10" class="c0"/>
<circle cx="948" cy="360" r="10" class="c0"/>
<circle cx="836" cy="748" r="10" class="c0"/>
<circle cx="954" cy="1208" r="10" class="c0"/>
<circle cx="890" cy="812" r="10" class="c0"/>
<circle cx="902" cy="616" r="10" class="c0"/>
<circle cx="908" cy="532" r="10" class="c0"/>
<circle cx="912" cy="932" r="10" class="c0"/>
<circle cx="760" cy="700" r="10" class="c0"/>
<circle cx="974" cy="646" r="10" class="c0"/>
<circle cx="1014" cy="1060" r="10" class="c0"/>
<circle cx="840" cy="516" r="10" class="c0"/>
<circle cx="896" cy="676" r="10" class="c0"/>
<circle cx="918" cy="584" r="10" class="c0"/>
<circle cx="1020" cy="1008" r="10" class="c0"/>
<circle cx="972" cy="1070" r="10" class="c0"/>
<circle cx="1058" cy="1040" r="10" class="c0"/>
<circle cx="812" cy="992" r="10" class="c0"/>
<circle cx="870" cy="788" r="10" class="c0"/>
<circle cx="772" cy="1158" r="10" class="c0"/>
<circle cx="948" cy="1176" r="10" class="c0"/>
<circle cx="860" cy="1124" r="10" class="c0"/>
<circle cx="754" cy="960" r="10" class="c0"/>
<circle cx="934" cy="902" r="10" class="c0"/>
<circle cx="836" cy="1038" r="10" class="c0"/>
<circle cx="884" cy="460" r="10" class="c0"/>
<circle cx="810" cy="918" r="10" class="c0"/>
<circle cx="872" cy="712" r="10" class="c0"/>
<circle cx="814" cy="532" r="10" class="c0"/>
<circle cx="776" cy="1058" r="10" class="c0"/>
<circle cx="878" cy="596" r="10" class="c0"/>
<circle cx="814" cy="610" r="10" class="c0"/>
<circle cx="808" cy="560" r="10" class="c0"/>
<circle cx="900" cy="850" r="10" class="c0"/>
<circle cx="968" cy="682" r="10" class="c0"/>
<circle cx="776" cy="1006" r="10" class="c0"/>
<circle cx="934" cy="504" r="10" class="c0"/>
<circle cx="998" cy="842" r="10" class="c0"/>
<circle cx="988" cy="668" r="10" class="c0"/>
<circle cx="982" cy="578" r="10" class="c0"/>
<circle cx="774" cy="1110" r="10" class="c0"/>
<circle cx="838" cy="450" r="10" class="c0"/>
<circle cx="882" cy="628" r="10" class="c0"/>
<circle cx="968" cy="730" r="10" class="c0"/>
<circle cx="784" cy="882" r="10" class="c0"/>
<circle cx="854" cy="596" r="10" class="c0"/>
<circle cx="938" cy="1110" r="10" class="c0"/>
<circle cx="962" cy="626" r="10" class="c0"/>
<circle cx="1002" cy="1044" r="10" class="c0"/>
<circle cx="976" cy="802" r="10" class="c0"/>
<circle cx="960" cy="568" r="10" class="c0"/>
<circle cx="956" cy="894" r="10" class="c0"/>
<circle cx="1020" cy="962" r="10" class="c0"/>
<circle cx="956" cy="1094" r="10" class="c0"/>
<circle cx="776" cy="1204" r="10" class="c0"/>
<circle cx="776" cy="980" r="10" class="c0"/>
<circle cx="842" cy="1138" r="10" class="c0"/>
<circle cx="824" cy="1108" r="10" class="c0"/>
<circle cx="802" cy="714" r="10" class="c0"/>
<circle cx="864" cy="732" r="10" class="c0"/>
<circle cx="824" cy="1022" r="10" class="c0"/>
<circle cx="938" cy="554" r="10" class="c0"/>
<circle cx="956" cy="932" r="10" class="c0"/>
<circle cx="932" cy="464" r="10" class="c0"/>
<circle cx="1082" cy="1038" r="10" class="c0"/>
<circle cx="840" cy="1094" r="10" class="c0"/>
<circle cx="802" cy="688" r="10" class="c0"/>
<circle cx="1030" cy="934" r="10" class="c0"/>
<circle cx="990" cy="1000" r="10" class="c0"/>
<circle cx="866" cy="446" r="10" class="c0"/>
<circle cx="796" cy="1122" r="10" class="c0"/>
<circle cx="864" cy="388" r="10" class="c0"/>
<circle cx="852" cy="824" r="10" class="c0"/>
<circle cx="806" cy="762" r="10" class="c0"/>
<circle cx="944" cy="972" r="10" class="c0"/>
<circle cx="952" cy="1060" r="10" class="c0"/>
<circle cx="908" cy="416" r="10" class="c0"/>
<circle cx="896" cy="1128" r="10" class="c0"/>
<circle cx="854" cy="538" r="10" class="c0"/>
<circle cx="828" cy="874" r="10" class="c0"/>
<circle cx="820" cy="1086" r="10" class="c0"/>
<circle cx="862" cy="960" r="10" class="c0"/>
<circle cx="968" cy="780" r="8" class="c0"/>
<circle cx="758" cy="1038" r="8" class="c0"/>
<circle cx="856" cy="568" r="8" class="c0"/>
<circle cx="738" cy="1236" r="8" class="c0"/>
<circle cx="920" cy="864" r="8" class="c0"/>
<circle cx="802" cy="582" r="8" class="c0"/>
<circle cx="952" cy="1130" r="8" class="c0"/>
<circle cx="1026" cy="1040" r="8" class="c0"/>
<circle cx="944" cy="686" r="8" class="c0"/>
<circle cx="794" cy="744" r="8" class="c0"/>
<circle cx="790" cy="944" r="8" class="c0"/>
<circle cx="936" cy="952" r="8" class="c0"/>
<circle cx="730" cy="1072" r="8" class="c0"/>
<circle cx="768" cy="926" r="8" class="c0"/>
<circle cx="986" cy="546" r="8" class="c0"/>
<circle cx="972" cy="1194" r="8" class="c0"/>
<circle cx="794" cy="908" r="8" class="c0"/>
<circle cx="842" cy="398" r="8" class="c0"/>
<circle cx="928" cy="812" r="8" class="c0"/>
<circle cx="942" cy="774" r="8" class="c0"/>
<circle cx="870" cy="1144" r="8" class="c0"/>
<circle cx="810" cy="1136" r="8" class="c0"/>
<circle cx="826" cy="662" r="8" class="c0"/>
<circle cx="808" cy="952" r="8" class="c0"/>
<circle cx="856" cy="502" r="8" class="c0"/>
<circle cx="904" cy="1092" r="8" class="c0"/>
<circle cx="878" cy="928" r="8" class="c0"/>
<circle cx="902" cy="476" r="8" class="c0"/>
<circle cx="984" cy="1120" r="8" class="c0"/>
<circle cx="876" cy="684" r="8" class="c0"/>
<circle cx="892" cy="950" r="8" class="c0"/>
<circle cx="952" cy="1296" r="8" class="c0"/>
<circle cx="884" cy="904" r="8" class="c0"/>
<circle cx="858" cy="922" r="8" class="c0"/>
<circle cx="1010" cy="942" r="8" class="c0"/>
<circle cx="896" cy="394" r="8" class="c0"/>
<circle cx="938" cy="594" r="8" class="c0"/>
<circle cx="894" cy="788" r="8" class="c0"/>
<circle cx="816" cy="780" r="8" class="c0"/>
<circle cx="938" cy="1048" r="8" class="c0"/>
<circle cx="778" cy="724" r="8" class="c0"/>
<circle cx="888" cy="988" r="8" class="c0"/>
<circle cx="724" cy="1026" r="8" class="c0"/>
<circle cx="820" cy="1056" r="8" class="c0"/>
<circle cx="860" cy="884" r="8" class="c0"/>
<circle cx="760" cy="1278" r="8" class="c0"/>
<circle cx="918" cy="1122" r="8" class="c0"/>
<circle cx="806" cy="834" r="8" class="c0"/>
<circle cx="946" cy="708" r="8" class="c0"/>
<circle cx="946" cy="806" r="8" class="c0"/>
<circle cx="990" cy="628" r="8" class="c0"/>
<circle cx="1016" cy="922" r="8" class="c0"/>
<circle cx="1036" cy="900" r="8" class="c0"/>
<circle cx="746" cy="1088" r="8" class="c0"/>
<circle cx="1004" cy="980" r="8" class="c0"/>
<circle cx="910" cy="822" r="8" class="c0"/>
<circle cx="1052" cy="988" r="8" class="c0"/>
<circle cx="986" cy="600" r="8" class="c0"/>
<circle cx="874" cy="1038" r="8" class="c0"/>
<circle cx="948" cy="398" r="8" class="c0"/>
<circle cx="1020" cy="866" r="8" class="c0"/>
<circle cx="902" cy="1026" r="8" class="c0"/>
<circle cx="920" cy="834" r="8" class="c0"/>
<circle cx="940" cy="430" r="8" class="c0"/>
<circle cx="1072" cy="978" r="8" class="c0"/>
<circle cx="972" cy="526" r="8" class="c0"/>
<circle cx="918" cy="682" r="8" class="c0"/>
<circle cx="750" cy="996" r="8" class="c0"/>
<circle cx="918" cy="772" r="8" class="c0"/>
<circle cx="936" cy="664" r="8" class="c0"/>
<circle cx="732" cy="1008" r="8" class="c0"/>
<circle cx="1002" cy="582" r="8" class="c0"/>
<circle cx="874" cy="872" r="8" class="c0"/>
<circle cx="930" cy="762" r="8" class="c0"/>
<circle cx="790" cy="852" r="8" class="c0"/>
<circle cx="898" cy="696" r="8" class="c0"/>
<circle cx="918" cy="552" r="8" class="c0"/>
<circle cx="800" cy="668" r="8" class="c0"/>
<circle cx="972" cy="842" r="8" class="c0"/>
<circle cx="948" cy="1038" r="8" class="c0"/>
<circle cx="990" cy="1280" r="8" class="c0"/>
<circle cx="1060" cy="1062" r="8" class="c0"/>
<circle cx="762" cy="1184" r="8" class="c0"/>
<circle cx="1042" cy="1050" r="8" class="c0"/>
<circle cx="964" cy="992" r="8" class="c0"/>
<circle cx="1042" cy="922" r="8" class="c0"/>
<circle cx="772" cy="824" r="8" class="c0"/>
<circle cx="848" cy="640" r="8" class="c0"/>
<circle cx="912" cy="718" r="8" class="c0"/>
<circle cx="934" cy="992" r="8" class="c0"/>
<circle cx="832" cy="834" r="8" class="c0"/>
<circle cx="996" cy="808" r="8" class="c0"/>
<circle cx="910" cy="452" r="8" class="c0"/>
<circle cx="926" cy="1058" r="8" class="c0"/>
<circle cx="984" cy="1056" r="8" class="c0"/>
<circle cx="894" cy="880" r="8" class="c0"/>
<circle cx="1056" cy="1010" r="8" class="c0"/>
<circle cx="996" cy="1070" r="8" class="c0"/>
<circle cx="1090" cy="1064" r="8" class="c0"/>
<circle cx="984" cy="706" r="8" class="c0"/>
<circle cx="764" cy="1084" r="8" class="c0"/>
<circle cx="764" cy="1256" r="8" class="c0"/>
<circle cx="772" cy="946" r="8" class="c0"/>
<circle cx="946" cy="1258" r="8" class="c0"/>
<circle cx="838" cy="364" r="8" class="c0"/>
<circle cx="820" cy="934" r="8" class="c0"/>
<circle cx="862" cy="624" r="8" class="c0"/>
<circle cx="976" cy="1242" r="8" class="c0"/>
<circle cx="742" cy="980" r="8" class="c0"/>
<circle cx="976" cy="344" r="8" class="c0"/>
<circle cx="882" cy="536" r="8" class="c0"/>
<circle cx="896" cy="442" r="8" class="c0"/>
<circle cx="766" cy="854" r="8" class="c0"/>
<circle cx="894" cy="512" r="8" class="c0"/>
<circle cx="978" cy="1174" r="8" class="c0"/>
<circle cx="896" cy="646" r="8" class="c0"/>
<circle cx="1038" cy="1068" r="8" class="c0"/>
<circle cx="816" cy="846" r="8" class="c0"/>
<circle cx="794" cy="1186" r="8" class="c0"/>
<circle cx="930" cy="440" r="8" class="c0"/>
<circle cx="792" cy="1048" r="8" class="c0"/>
<circle cx="784" cy="794" r="8" class="c0"/>
<circle cx="990" cy="970" r="8" class="c0"/>
<circle cx="900" cy="346" r="8" class="c0"/>
<circle cx="976" cy="428" r="8" class="c0"/>
<circle cx="880" cy="344" r="8" class="c0"/>
<circle cx="852" cy="352" r="8" class="c0"/>
<circle cx="914" cy="490" r="8" class="c0"/>
<circle cx="806" cy="812" r="8" class="c0"/>
<circle cx="910" cy="738" r="8" class="c0"/>
<circle cx="864" cy="1082" r="8" class="c0"/>
<circle cx="964" cy="594" r="8" class="c0"/>
<circle cx="952" cy="526" r="8" class="c0"/>
<circle cx="1058" cy="942" r="8" class="c0"/>
<circle cx="880" cy="1092" r="8" class="c0"/>
<circle cx="890" cy="1104" r="8" class="c0"/>
<circle cx="954" cy="750" r="8" class="c0"/>
<circle cx="944" cy="476" r="8" class="c0"/>
<circle cx="784" cy="1140" r="8" class="c0"/>
<circle cx="976" cy="1090" r="8" class="c0"/>
<circle cx="876" cy="368" r="8" class="c0"/>
<circle cx="962" cy="852" r="8" class="c0"/>
<circle cx="834" cy="546" r="8" class="c0"/>
<circle cx="976" cy="1212" r="8" class="c0"/>
<circle cx="942" cy="576" r="8" class="c0"/>
<circle cx="966" cy="972" r="8" class="c0"/>
<circle cx="872" cy="424" r="8" class="c0"/>
<circle cx="858" cy="986" r="8" class="c0"/>
<circle cx="900" cy="592" r="8" class="c0"/>
<circle cx="940" cy="834" r="8" class="c0"/>
<circle cx="734" cy="1054" r="8" class="c0"/>
<circle cx="1044" cy="1026" r="8" class="c0"/>
<circle cx="862" cy="842" r="8" class="c0"/>
<circle cx="968" cy="906" r="8" class="c0"/>
<circle cx="1032" cy="976" r="8" class="c0"/>
<circle cx="966" cy="762" r="8" class="c0"/>
<circle cx="1016" cy="594" r="8" class="c0"/>
<circle cx="810" cy="886" r="8" class="c0"/>
<circle cx="862" cy="1104" r="8" class="c0"/>
<circle cx="798" cy="978" r="8" class="c0"/>
<circle cx="876" cy="1114" r="8" class="c0"/>
<circle cx="1024" cy="1078" r="8" class="c0"/>
<circle cx="772" cy="908" r="8" class="c0"/>
<circle cx="926" cy="792" r="8" class="c0"/>
<circle cx="910" cy="982" r="8" class="c0"/>
<circle cx="1006" cy="638" r="8" class="c0"/>
<circle cx="968" cy="1258" r="8" class="c0"/>
<circle cx="962" cy="1330" r="8" class="c0"/>
<circle cx="1014" cy="890" r="8" class="c0"/>
<circle cx="1088" cy="1004" r="8" class="c0"/>
<circle cx="864" cy="466" r="8" class="c0"/>
<circle cx="796" cy="1256" r="8" class="c0"/>
<circle cx="908" cy="382" r="8" class="c0"/>
<circle cx="994" cy="562" r="8" class="c0"/>
<circle cx="924" cy="700" r="8" class="c0"/>
<circle cx="782" cy="700" r="8" class="c0"/>
<circle cx="936" cy="924" r="8" class="c0"/>
<circle cx="856" cy="412" r="8" class="c0"/>
<circle cx="976" cy="1306" r="8" class="c0"/>
<circle cx="920" cy="1038" r="8" class="c0"/>
<circle cx="1040" cy="952" r="8" class="c0"/>
<circle cx="966" cy="1116" r="8" class="c0"/>
<circle cx="962" cy="1226" r="8" class="c0"/>
<circle cx="1040" cy="1002" r="8" class="c0"/>
<circle cx="986" cy="786" r="8" class="c0"/>
<circle cx="1000" cy="956" r="8" class="c0"/>
<circle cx="958" cy="548" r="8" class="c0"/>
<circle cx="786" cy="1276" r="8" class="c0"/>
<circle cx="792" cy="1220" r="8" class="c0"/>
<circle cx="844" cy="672" r="8" class="c0"/>
<circle cx="830" cy="770" r="8" class="c0"/>
<circle cx="770" cy="684" r="8" class="c0"/>
<circle cx="924" cy="604" r="8" class="c0"/>
<circle cx="800" cy="386" r="8" class="c0"/>
<circle cx="864" cy="904" r="8" class="c0"/>
<circle cx="792" cy="774" r="8" class="c0"/>
<circle cx="760" cy="1224" r="8" class="c0"/>
<circle cx="916" cy="1080" r="8" class="c0"/>
<circle cx="838" cy="496" r="8" class="c0"/>
<circle cx="800" cy="934" r="8" class="c0"/>
<circle cx="874" cy="948" r="8" class="c0"/>
<circle cx="936" cy="638" r="8" class="c0"/>
<circle cx="804" cy="1034" r="8" class="c0"/>
<circle cx="792" cy="996" r="8" class="c0"/>
<circle cx="794" cy="822" r="8" class="c0"/>
<circle cx="818" cy="678" r="8" class="c0"/>
<circle cx="994" cy="1026" r="8" class="c0"/>
<circle cx="798" cy="1016" r="8" class="c0"/>
<circle cx="898" cy="914" r="8" class="c0"/>
<circle cx="1094" cy="1026" r="8" class="c0"/>
<circle cx="826" cy="642" r="8" class="c0"/>
<circle cx="836" cy="926" r="8" class="c0"/>
<circle cx="822" cy="822" r="8" class="c0"/>
<circle cx="902" cy="1070" r="8" class="c0"/>
<circle cx="794" cy="1238" r="8" class="c0"/>
<circle cx="870" cy="514" r="8" class="c0"/>
<circle cx="904" cy="364" r="8" class="c0"/>
<circle cx="900" cy="572" r="8" class="c0"/>
<circle cx="1068" cy="998" r="8" class="c0"/>
<circle cx="806" cy="1066" r="8" class="c0"/>
<circle cx="878" cy="972" r="8" class="c0"/>
<circle cx="754" cy="1056" r="8" class="c0"/>
<circle cx="912" cy="508" r="8" class="c0"/>
<circle cx="806" cy="792" r="8" class="c0"/>
<circle cx="828" cy="354" r="8" class="c0"/>
<circle cx="756" cy="938" r="8" class="c0"/>
<circle cx="728" cy="1092" r="6" class="c0"/>
<circle cx="774" cy="1130" r="6" class="c0"/>
<circle cx="756" cy="1098" r="6" class="c0"/>
<circle cx="780" cy="1176" r="6" class="c0"/>
<circle cx="886" cy="728" r="6" class="c0"/>
<circle cx="854" cy="940" r="6" class="c0"/>
<circle cx="838" cy="1002" r="6" class="c0"/>
<circle cx="972" cy="1046" r="6" class="c0"/>
<circle cx="944" cy="1274" r="6" class="c0"/>
<circle cx="974" cy="558" r="6" class="c0"/>
<circle cx="778" cy="1322" r="6" class="c0"/>
<circle cx="896" cy="974" r="6" class="c0"/>
<circle cx="856" cy="372" r="6" class="c0"/>
<circle cx="942" cy="880" r="6" class="c0"/>
<circle cx="914" cy="436" r="6" class="c0"/>
<circle cx="980" cy="1140" r="6" class="c0"/>
<circle cx="870" cy="578" r="6" class="c0"/>
<circle cx="974" cy="922" r="6" class="c0"/>
<circle cx="984" cy="380" r="6" class="c0"/>
<circle cx="886" cy="860" r="6" class="c0"/>
<circle cx="958" cy="444" r="6" class="c0"/>
<circle cx="786" cy="926" r="6" class="c0"/>
<circle cx="842" cy="966" r="6" class="c0"/>
<circle cx="784" cy="676" r="6" class="c0"/>
<circle cx="986" cy="1318" r="6" class="c0"/>
<circle cx="892" cy="374" r="6" class="c0"/>
<circle cx="924" cy="1094" r="6" class="c0"/>
<circle cx="850" cy="774" r="6" class="c0"/>
<circle cx="992" cy="924" r="6" class="c0"/>
<circle cx="774" cy="740" r="6" class="c0"/>
<circle cx="884" cy="1026" r="6" class="c0"/>
<circle cx="994" cy="880" r="6" class="c0"/>
<circle cx="932" cy="486" r="6" class="c0"/>
<circle cx="794" cy="962" r="6" class="c0"/>
<circle cx="816" cy="652" r="6" class="c0"/>
<circle cx="948" cy="1240" r="6" class="c0"/>
<circle cx="930" cy="534" r="6" class="c0"/>
<circle cx="776" cy="864" r="6" class="c0"/>
<circle cx="856" cy="804" r="6" class="c0"/>
<circle cx="808" cy="870" r="6" class="c0"/>
<circle cx="858" cy="1046" r="6" class="c0"/>
<circle cx="958" cy="956" r="6" class="c0"/>
<circle cx="916" cy="338" r="6" class="c0"/>
<circle cx="970" cy="664" r="6" class="c0"/>
<circle cx="800" cy="1202" r="6" class="c0"/>
<circle cx="872" cy="856" r="6" class="c0"/>
<circle cx="834" cy="852" r="6" class="c0"/>
<circle cx="832" cy="424" r="6" class="c0"/>
<circle cx="836" cy="718" r="6" class="c0"/>
<circle cx="876" cy="744" r="6" class="c0"/>
<circle cx="926" cy="882" r="6" class="c0"/>
<circle cx="1010" cy="1022" r="6" class="c0"/>
<circle cx="780" cy="1258" r="6" class="c0"/>
<circle cx="880" cy="774" r="6" class="c0"/>
<circle cx="760" cy="1298" r="6" class="c0"/>
<circle cx="896" cy="1004" r="6" class="c0"/>
<circle cx="854" cy="1150" r="6" class="c0"/>
<circle cx="850" cy="716" r="6" class="c0"/>
<circle cx="936" cy="1282" r="6" class="c0"/>
<circle cx="904" cy="1112" r="6" class="c0"/>
<circle cx="816" cy="746" r="6" class="c0"/>
<circle cx="922" cy="628" r="6" class="c0"/>
<circle cx="862" cy="1028" r="6" class="c0"/>
<circle cx="998" cy="1086" r="6" class="c0"/>
<circle cx="878" cy="888" r="6" class="c0"/>
<circle cx="938" cy="1144" r="6" class="c0"/>
<circle cx="842" cy="730" r="6" class="c0"/>
<circle cx="868" cy="550" r="6" class="c0"/>
<circle cx="960" cy="342" r="6" class="c0"/>
<circle cx="968" cy="710" r="6" class="c0"/>
<circle cx="796" cy="650" r="6" class="c0"/>
<circle cx="880" cy="846" r="6" class="c0"/>
<circle cx="774" cy="1294" r="6" class="c0"/>
<circle cx="718" cy="1046" r="6" class="c0"/>
<circle cx="954" cy="672" r="6" class="c0"/>
<circle cx="952" cy="784" r="6" class="c0"/>
<circle cx="982" cy="1266" r="6" class="c0"/>
<circle cx="804" cy="732" r="6" class="c0"/>
<circle cx="910" cy="876" r="6" class="c0"/>
<circle cx="718" cy="1062" r="6" class="c0"/>
<circle cx="890" cy="356" r="6" class="c0"/>
<circle cx="896" cy="720" r="6" class="c0"/>
<circle cx="916" cy="1102" r="6" class="c0"/>
<circle cx="826" cy="474" r="6" class="c0"/>
<circle cx="928" cy="420" r="6" class="c0"/>
<circle cx="834" cy="598" r="6" class="c0"/>
<circle cx="914" cy="636" r="6" class="c0"/>
<circle cx="882" cy="384" r="6" class="c0"/>
<circle cx="824" cy="1128" r="6" class="c0"/>
<circle cx="854" cy="746" r="6" class="c0"/>
<circle cx="836" cy="688" r="6" class="c0"/>
<circle cx="934" cy="1026" r="6" class="c0"/>
<circle cx="830" cy="1070" r="6" class="c0"/>
<circle cx="908" cy="664" r="6" class="c0"/>
<circle cx="828" cy="408" r="6" class="c0"/>
<circle cx="1008" cy="826" r="6" class="c0"/>
<circle cx="986" cy="686" r="6" class="c0"/>
<circle cx="984" cy="1228" r="6" class="c0"/>
<circle cx="866" cy="1056" r="6" class="c0"/>
<circle cx="992" cy="388" r="6" class="c0"/>
<circle cx="800" cy="862" r="6" class="c0"/>
<circle cx="842" cy="560" r="6" class="c0"/>
<circle cx="896" cy="548" r="6" class="c0"/>
<circle cx="762" cy="1020" r="6" class="c0"/>
<circle cx="896" cy="496" r="6" class="c0"/>
<circle cx="1056" cy="962" r="6" class="c0"/>
<circle cx="848" cy="760" r="6" class="c0"/>
<circle cx="910" cy="804" r="6" class="c0"/>
<circle cx="826" cy="910" r="6" class="c0"/>
<circle cx="956" cy="696" r="6" class="c0"/>
<circle cx="890" cy="582" r="6" class="c0"/>
<circle cx="938" cy="346" r="6" class="c0"/>
<circle cx="890" cy="1080" r="6" class="c0"/>
<circle cx="934" cy="872" r="6" class="c0"/>
<circle cx="982" cy="1156" r="6" class="c0"/>
<circle cx="808" cy="1100" r="6" class="c0"/>
<circle cx="892" cy="424" r="6" class="c0"/>
<circle cx="956" cy="1248" r="6" class="c0"/>
<circle cx="844" cy="1116" r="6" class="c0"/>
<circle cx="980" cy="770" r="6" class="c0"/>
<circle cx="916" cy="754" r="6" class="c0"/>
<circle cx="758" cy="1206" r="6" class="c0"/>
<circle cx="960" cy="1310" r="6" class="c0"/>
<circle cx="1002" cy="658" r="6" class="c0"/>
<circle cx="782" cy="812" r="6" class="c0"/>
<circle cx="846" cy="912" r="6" class="c0"/>
<circle cx="980" cy="982" r="6" class="c0"/>
<circle cx="926" cy="520" r="6" class="c0"/>
<circle cx="730" cy="992" r="6" class="c0"/>
<circle cx="816" cy="590" r="6" class="c0"/>
<circle cx="786" cy="836" r="6" class="c0"/>
<circle cx="994" cy="650" r="6" class="c0"/>
<circle cx="886" cy="478" r="6" class="c0"/>
<circle cx="1004" cy="872" r="6" class="c0"/>
<circle cx="972" cy="1006" r="6" class="c0"/>
<circle cx="972" cy="1132" r="6" class="c0"/>
<circle cx="952" cy="608" r="6" class="c0"/>
<circle cx="740" cy="1290" r="6" class="c0"/>
<circle cx="926" cy="942" r="6" class="c0"/>
<circle cx="762" cy="1312" r="6" class="c0"/>
<circle cx="840" cy="416" r="6" class="c0"/>
<circle cx="936" cy="1128" r="6" class="c0"/>
<circle cx="928" cy="568" r="6" class="c0"/>
<circle cx="1020" cy="986" r="6" class="c0"/>
<circle cx="812" cy="968" r="6" class="c0"/>
<circle cx="956" cy="718" r="6" class="c0"/>
<circle cx="750" cy="1306" r="6" class="c0"/>
<circle cx="864" cy="484" r="6" class="c0"/>
<circle cx="790" cy="1068" r="6" class="c0"/>
<circle cx="980" cy="1014" r="6" class="c0"/>
<circle cx="926" cy="974" r="6" class="c0"/>
<circle cx="966" cy="354" r="6" class="c0"/>
<circle cx="758" cy="982" r="6" class="c0"/>
<circle cx="952" cy="868" r="6" class="c0"/>
<circle cx="826" cy="1146" r="6" class="c0"/>
<circle cx="980" cy="616" r="6" class="c0"/>
<circle cx="750" cy="1214" r="6" class="c0"/>
<circle cx="836" cy="652" r="6" class="c0"/>
<circle cx="778" cy="1076" r="6" class="c0"/>
<circle cx="972" cy="608" r="6" class="c0"/>
<circle cx="1032" cy="880" r="6" class="c0"/>
<circle cx="946" cy="914" r="6" class="c0"/>
<circle cx="752" cy="1244" r="6" class="c0"/>
<circle cx="1012" cy="852" r="6" class="c0"/>
<circle cx="980" cy="960" r="6" class="c0"/>
<circle cx="944" cy="1226" r="6" class="c0"/>
<circle cx="866" cy="608" r="6" class="c0"/>
<circle cx="1084" cy="988" r="6" class="c0"/>
<circle cx="748" cy="1072" r="6" class="c0"/>
<circle cx="994" cy="410" r="6" class="c0"/>
<circle cx="1070" cy="958" r="6" class="c0"/>
<circle cx="958" cy="796" r="6" class="c0"/>
<circle cx="1076" cy="1056" r="6" class="c0"/>
<circle cx="802" cy="1272" r="6" class="c0"/>
<circle cx="898" cy="832" r="6" class="c0"/>
<circle cx="1008" cy="996" r="6" class="c0"/>
<circle cx="920" cy="914" r="6" class="c0"/>
<circle cx="936" cy="412" r="6" class="c0"/>
<circle cx="946" cy="1322" r="6" class="c0"/>
<circle cx="818" cy="902" r="6" class="c0"/>
<circle cx="976" cy="372" r="6" class="c0"/>
<circle cx="842" cy="706" r="6" class="c0"/>
<circle cx="1022" cy="626" r="6" class="c0"/>
<circle cx="800" cy="600" r="6" class="c0"/>
<circle cx="844" cy="380" r="6" class="c0"/>
<circle cx="1026" cy="912" r="6" class="c0"/>
<circle cx="844" cy="844" r="6" class="c0"/>
<circle cx="764" cy="1140" r="6" class="c0"/>
<circle cx="982" cy="914" r="6" class="c0"/>
<circle cx="780" cy="1306" r="6" class="c0"/>
<circle cx="768" cy="892" r="6" class="c0"/>
<circle cx="1048" cy="972" r="6" class="c0"/>
<circle cx="986" cy="1080" r="6" class="c0"/>
<circle cx="878" cy="1130" r="6" class="c0"/>
<circle cx="918" cy="474" r="6" class="c0"/>
<circle cx="734" cy="1302" r="6" class="c0"/>
<circle cx="894" cy="930" r="6" class="c0"/>
<circle cx="944" cy="450" r="6" class="c0"/>
<circle cx="942" cy="1158" r="6" class="c0"/>
<circle cx="958" cy="1268" r="6" class="c0"/>
<circle cx="986" cy="418" r="6" class="c0"/>
<circle cx="820" cy="804" r="6" class="c0"/>
<circle cx="1002" cy="1012" r="6" class="c0"/>
<circle cx="852" cy="614" r="6" class="c0"/>
<circle cx="838" cy="814" r="6" class="c0"/>
</svg>
