<?xml version="1.0" encoding="utf-8"?>
<svg xmlns="http://www.w3.org/2000/svg"
     xmlns:xlink="http://www.w3.org/1999/xlink" width="1920" height="1440" >

            <defs>
            <style type="text/css"><![CDATA[
circle {stroke: none;}
.c0 {fill: #FFFFFF;}
]]></style>
            </defs>
<rect x="0" y="0" width="1920" height="1440" fill="black"/>
<circle cx="876" cy="346" r="12" class="c0"/>
<circle cx="816" cy="538" r="12" class="c0"/>
<circle cx="782" cy="640" r="12" class="c0"/>
<circle cx="840" cy="1258" r="12" class="c0"/>
<circle cx="1022" cy="982" r="12" class="c0"/>
<circle cx="888" cy="376" r="12" class="c0"/>
<circle cx="708" cy="1246" r="12" class="c0"/>
<circle cx="936" cy="1116" r="12" class="c0"/>
<circle cx="742" cy="1132" r="12" class="c0"/>
<circle cx="838" cy="772" r="12" class="c0"/>
<circle cx="926" cy="590" r="12" class="c0"/>
<circle cx="1002" cy="884" r="12" class="c0"/>
<circle cx="724" cy="1118" r="12" class="c0"/>
<circle cx="892" cy="556" r="12" class="c0"/>
<circle cx="904" cy="1118" r="12" class="c0"/>
<circle cx="904" cy="792" r="12" class="c0"/>
<circle cx="970" cy="792" r="12" class="c0"/>
<circle cx="838" cy="636" r="12" class="c0"/>
<circle cx="912" cy="852" r="12" class="c0"/>
<circle cx="898" cy="900" r="12" class="c0"/>
<circle cx="896" cy="446" r="12" class="c0"/>
<circle cx="926" cy="1218" r="12" class="c0"/>
<circle cx="978" cy="966" r="12" class="c0"/>
<circle cx="870" cy="578" r="12" class="c0"/>
<circle cx="902" cy="746" r="12" class="c0"/>
<circle cx="868" cy="946" r="12" class="c0"/>
<circle cx="898" cy="1258" r="12" class="c0"/>
<circle cx="902" cy="996" r="12" class="c0"/>
<circle cx="748" cy="1062" r="12" class="c0"/>
<circle cx="882" cy="660" r="12" class="c0"/>
<circle cx="908" cy="540" r="12" class="c0"/>
<circle cx="834" cy="486" r="12" class="c0"/>
<circle cx="828" cy="794" r="12" class="c0"/>
<circle cx="970" cy="1398" r="12" class="c0"/>
<circle cx="994" cy="1054" r="12" class="c0"/>
<circle cx="780" cy="750" r="12" class="c0"/>
<circle cx="738" cy="1396" r="12" class="c0"/>
<circle cx="904" cy="700" r="12" class="c0"/>
<circle cx="1002" cy="610" r="12" class="c0"/>
<circle cx="886" cy="600" r="12" class="c0"/>
<circle cx="856" cy="380" r="12" class="c0"/>
<circle cx="882" cy="512" r="12" class="c0"/>
<circle cx="956" cy="1276" r="12" class="c0"/>
<circle cx="1014" cy="914" r="12" class="c0"/>
<circle cx="1026" cy="676" r="12" class="c0"/>
<circle cx="998" cy="674" r="10" class="c0"/>
<circle cx="1018" cy="1072" r="10" class="c0"/>
<circle cx="712" cy="1272" r="10" class="c0"/>
<circle cx="694" cy="1168" r="10" class="c0"/>
<circle cx="830" cy="1056" r="10" class="c0"/>
<circle cx="882" cy="860" r="10" class="c0"/>
<circle cx="846" cy="976" r="10" class="c0"/>
<circle cx="994" cy="582" r="10" class="c0"/>
<circle cx="780" cy="1200" r="10" class="c0"/>
<circle cx="778" cy="846" r="10" class="c0"/>
<circle cx="718" cy="1078" r="10" class="c0"/>
<circle cx="826" cy="1192" r="10" class="c0"/>
<circle cx="914" cy="1086" r="10" class="c0"/>
<circle cx="808" cy="1206" r="10" class="c0"/>
<circle cx="1058" cy="1074" r="10" class="c0"/>
<circle cx="992" cy="644" r="10" class="c0"/>
<circle cx="770" cy="1046" r="10" class="c0"/>
<circle cx="852" cy="416" r="10" class="c0"/>
<circle cx="814" cy="1072" r="10" class="c0"/>
<circle cx="852" cy="716" r="10" class="c0"/>
<circle cx="928" cy="552" r="10" class="c0"/>
<circle cx="772" cy="1314" r="10" class="c0"/>
<circle cx="950" cy="942" r="10" class="c0"/>
<circle cx="844" cy="696" r="10" class="c0"/>
<circle cx="942" cy="1190" r="10" class="c0"/>
<circle cx="788" cy="1162" r="10" class="c0"/>
<circle cx="730" cy="1008" r="10" class="c0"/>
<circle cx="766" cy="1424" r="10" class="c0"/>
<circle cx="894" cy="928" r="10" class="c0"/>
<circle cx="782" cy="1078" r="10" class="c0"/>
<circle cx="788" cy="1288" r="10" class="c0"/>
<circle cx="812" cy="742" r="10" class="c0"/>
<circle cx="936" cy="526" r="10" class="c0"/>
<circle cx="716" cy="1172" r="10" class="c0"/>
<circle cx="760" cy="884" r="10" class="c0"/>
<circle cx="980" cy="1028" r="10" class="c0"/>
<circle cx="1032" cy="1012" r="10" class="c0"/>
<circle cx="938" cy="658" r="10" class="c0"/>
<circle cx="950" cy="542" r="10" class="c0"/>
<circle cx="724" cy="1416" r="10" class="c0"/>
<circle cx="940" cy="374" r="10" class="c0"/>
<circle cx="838" cy="1108" r="10" class="c0"/>
<circle cx="978" cy="1174" r="10" class="c0"/>
<circle cx="978" cy="1250" r="10" class="c0"/>
<circle cx="990" cy="908" r="10" class="c0"/>
<circle cx="710" cy="1144" r="10" class="c0"/>
<circle cx="896" cy="1152" r="10" class="c0"/>
<circle cx="1010" cy="948" r="10" class="c0"/>
<circle cx="930" cy="1148" r="10" class="c0"/>
<circle cx="916" cy="672" r="10" class="c0"/>
<circle cx="1026" cy="1128" r="10" class="c0"/>
<circle cx="872" cy="1104" r="10" class="c0"/>
<circle cx="1104" cy="1154" r="10" class="c0"/>
<circle cx="954" cy="410" r="10" class="c0"/>
<circle cx="982" cy="560" r="10" class="c0"/>
<circle cx="964" cy="590" r="10" class="c0"/>
<circle cx="966" cy="1208" r="10" class="c0"/>
<circle cx="806" cy="458" r="10" class="c0"/>
<circle cx="950" cy="610" r="10" class="c0"/>
<circle cx="690" cy="1260" r="10" class="c0"/>
<circle cx="902" cy="632" r="10" class="c0"/>
<circle cx="1094" cy="1190" r="10" class="c0"/>
<circle cx="758" cy="1232" r="10" class="c0"/>
<circle cx="924" cy="636" r="10" class="c0"/>
<circle cx="780" cy="952" r="10" class="c0"/>
<circle cx="772" cy="664" r="10" class="c0"/>
<circle cx="918" cy="720" r="10" class="c0"/>
<circle cx="976" cy="1294" r="10" class="c0"/>
<circle cx="864" cy="612" r="10" class="c0"/>
<circle cx="872" cy="1258" r="10" class="c0"/>
<circle cx="996" cy="1110" r="10" class="c0"/>
<circle cx="764" cy="1144" r="10" class="c0"/>
<circle cx="924" cy="954" r="10" class="c0"/>
<circle cx="782" cy="682" r="10" class="c0"/>
<circle cx="1024" cy="1150" r="10" class="c0"/>
<circle cx="966" cy="1136" r="10" class="c0"/>
<circle cx="988" cy="1368" r="10" class="c0"/>
<circle cx="850" cy="662" r="10" class="c0"/>
<circle cx="832" cy="1134" r="10" class="c0"/>
<circle cx="1050" cy="1154" r="10" class="c0"/>
<circle cx="874" cy="734" r="10" class="c0"/>
<circle cx="734" cy="1296" r="10" class="c0"/>
<circle cx="970" cy="830" r="10" class="c0"/>
<circle cx="792" cy="902" r="10" class="c0"/>
<circle cx="916" cy="1036" r="10" class="c0"/>
<circle cx="830" cy="434" r="10" class="c0"/>
<circle cx="1020" cy="1204" r="10" class="c0"/>
<circle cx="838" cy="944" r="10" class="c0"/>
<circle cx="944" cy="978" r="10" class="c0"/>
<circle cx="776" cy="796" r="10" class="c0"/>
<circle cx="940" cy="798" r="10" class="c0"/>
<circle cx="854" cy="802" r="10" class="c0"/>
<circle cx="880" cy="1082" r="10" class="c0"/>
<circle cx="764" cy="1256" r="10" class="c0"/>
<circle cx="798" cy="936" r="10" class="c0"/>
<circle cx="672" cy="1222" r="10" class="c0"/>
<circle cx="916" cy="768" r="10" class="c0"/>
<circle cx="712" cy="1020" r="10" class="c0"/>
<circle cx="932" cy="836" r="10" class="c0"/>
<circle cx="660" cy="1194" r="10" class="c0"/>
<circle cx="820" cy="576" r="10" class="c0"/>
<circle cx="968" cy="924" r="10" class="c0"/>
<circle cx="808" cy="954" r="10" class="c0"/>
<circle cx="950" cy="440" r="10" class="c0"/>
<circle cx="880" cy="636" r="10" class="c0"/>
<circle cx="968" cy="736" r="10" class="c0"/>
<circle cx="744" cy="1214" r="10" class="c0"/>
<circle cx="794" cy="818" r="10" class="c0"/>
<circle cx="800" cy="608" r="10" class="c0"/>
<circle cx="1070" cy="1096" r="10" class="c0"/>
<circle cx="818" cy="902" r="10" class="c0"/>
<circle cx="816" cy="1022" r="10" class="c0"/>
<circle cx="740" cy="1090" r="10" class="c0"/>
<circle cx="814" cy="1252" r="10" class="c0"/>
<circle cx="854" cy="1032" r="10" class="c0"/>
<circle cx="726" cy="1200" r="10" class="c0"/>
<circle cx="718" cy="1226" r="10" class="c0"/>
<circle cx="958" cy="360" r="10" class="c0"/>
<circle cx="812" cy="1148" r="10" class="c0"/>
<circle cx="896" cy="316" r="10" class="c0"/>
<circle cx="686" cy="1194" r="10" class="c0"/>
<circle cx="814" cy="620" r="10" class="c0"/>
<circle cx="850" cy="546" r="10" class="c0"/>
<circle cx="654" cy="1152" r="10" class="c0"/>
<circle cx="1014" cy="634" r="10" class="c0"/>
<circle cx="1048" cy="1184" r="10" class="c0"/>
<circle cx="846" cy="1000" r="10" class="c0"/>
<circle cx="952" cy="1226" r="10" class="c0"/>
<circle cx="700" cy="1110" r="10" class="c0"/>
<circle cx="754" cy="950" r="10" class="c0"/>
<circle cx="948" cy="1046" r="10" class="c0"/>
<circle cx="924" cy="1266" r="10" class="c0"/>
<circle cx="764" cy="1088" r="10" class="c0"/>
<circle cx="920" cy="464" r="10" class="c0"/>
<circle cx="750" cy="1328" r="10" class="c0"/>
<circle cx="980" cy="602" r="10" class="c0"/>
<circle cx="992" cy="1150" r="8" class="c0"/>
<circle cx="856" cy="1178" r="8" class="c0"/>
<circle cx="798" cy="788" r="8" class="c0"/>
<circle cx="792" cy="872" r="8" class="c0"/>
<circle cx="840" cy="732" r="8" class="c0"/>
<circle cx="902" cy="342" r="8" class="c0"/>
<circle cx="1036" cy="1222" r="8" class="c0"/>
<circle cx="1004" cy="696" r="8" class="c0"/>
<circle cx="858" cy="760" r="8" class="c0"/>
<circle cx="808" cy="658" r="8" class="c0"/>
<circle cx="992" cy="854" r="8" class="c0"/>
<circle cx="990" cy="1308" r="8" class="c0"/>
<circle cx="994" cy="996" r="8" class="c0"/>
<circle cx="818" cy="1284" r="8" class="c0"/>
<circle cx="826" cy="862" r="8" class="c0"/>
<circle cx="1058" cy="1132" r="8" class="c0"/>
<circle cx="760" cy="922" r="8" class="c0"/>
<circle cx="868" cy="876" r="8" class="c0"/>
<circle cx="896" cy="1054" r="8" class="c0"/>
<circle cx="950" cy="714" r="8" class="c0"/>
<circle cx="968" cy="1358" r="8" class="c0"/>
<circle cx="960" cy="1102" r="8" class="c0"/>
<circle cx="786" cy="992" r="8" class="c0"/>
<circle cx="872" cy="432" r="8" class="c0"/>
<circle cx="842" cy="816" r="8" class="c0"/>
<circle cx="744" cy="1156" r="8" class="c0"/>
<circle cx="940" cy="680" r="8" class="c0"/>
<circle cx="988" cy="766" r="8" class="c0"/>
<circle cx="832" cy="352" r="8" class="c0"/>
<circle cx="950" cy="908" r="8" class="c0"/>
<circle cx="844" cy="1282" r="8" class="c0"/>
<circle cx="894" cy="422" r="8" class="c0"/>
<circle cx="844" cy="462" r="8" class="c0"/>
<circle cx="940" cy="918" r="8" class="c0"/>
<circle cx="996" cy="1404" r="8" class="c0"/>
<circle cx="738" cy="1030" r="8" class="c0"/>
<circle cx="758" cy="1276" r="8" class="c0"/>
<circle cx="746" cy="1422" r="8" class="c0"/>
<circle cx="916" cy="1178" r="8" class="c0"/>
<circle cx="806" cy="696" r="8" class="c0"/>
<circle cx="992" cy="1430" r="8" class="c0"/>
<circle cx="832" cy="606" r="8" class="c0"/>
<circle cx="768" cy="1010" r="8" class="c0"/>
<circle cx="926" cy="786" r="8" class="c0"/>
<circle cx="832" cy="382" r="8" class="c0"/>
<circle cx="830" cy="1162" r="8" class="c0"/>
<circle cx="996" cy="424" r="8" class="c0"/>
<circle cx="988" cy="440" r="8" class="c0"/>
<circle cx="742" cy="896" r="8" class="c0"/>
<circle cx="870" cy="1132" r="8" class="c0"/>
<circle cx="1002" cy="1238" r="8" class="c0"/>
<circle cx="790" cy="560" r="8" class="c0"/>
<circle cx="988" cy="1078" r="8" class="c0"/>
<circle cx="988" cy="398" r="8" class="c0"/>
<circle cx="764" cy="980" r="8" class="c0"/>
<circle cx="700" cy="1042" r="8" class="c0"/>
<circle cx="876" cy="688" r="8" class="c0"/>
<circle cx="784" cy="708" r="8" class="c0"/>
<circle cx="956" cy="990" r="8" class="c0"/>
<circle cx="912" cy="1066" r="8" class="c0"/>
<circle cx="788" cy="524" r="8" class="c0"/>
<circle cx="746" cy="742" r="8" class="c0"/>
<circle cx="1076" cy="1144" r="8" class="c0"/>
<circle cx="734" cy="1238" r="8" class="c0"/>
<circle cx="1036" cy="1108" r="8" class="c0"/>
<circle cx="784" cy="974" r="8" class="c0"/>
<circle cx="1012" cy="1170" r="8" class="c0"/>
<circle cx="966" cy="1014" r="8" class="c0"/>
<circle cx="1018" cy="1226" r="8" class="c0"/>
<circle cx="914" cy="568" r="8" class="c0"/>
<circle cx="794" cy="1050" r="8" class="c0"/>
<circle cx="762" cy="904" r="8" class="c0"/>
<circle cx="1006" cy="1192" r="8" class="c0"/>
<circle cx="944" cy="1244" r="8" class="c0"/>
<circle cx="788" cy="1256" r="8" class="c0"/>
<circle cx="1046" cy="1088" r="8" class="c0"/>
<circle cx="914" cy="934" r="8" class="c0"/>
<circle cx="844" cy="1086" r="8" class="c0"/>
<circle cx="750" cy="794" r="8" class="c0"/>
<circle cx="818" cy="824" r="8" class="c0"/>
<circle cx="886" cy="802" r="8" class="c0"/>
<circle cx="990" cy="930" r="8" class="c0"/>
<circle cx="1044" cy="1040" r="8" class="c0"/>
<circle cx="876" cy="456" r="8" class="c0"/>
<circle cx="944" cy="1066" r="8" class="c0"/>
<circle cx="848" cy="848" r="8" class="c0"/>
<circle cx="890" cy="398" r="8" class="c0"/>
<circle cx="890" cy="824" r="8" class="c0"/>
<circle cx="854" cy="920" r="8" class="c0"/>
<circle cx="1026" cy="1092" r="8" class="c0"/>
<circle cx="788" cy="1014" r="8" class="c0"/>
<circle cx="994" cy="1272" r="8" class="c0"/>
<circle cx="948" cy="1302" r="8" class="c0"/>
<circle cx="702" cy="1064" r="8" class="c0"/>
<circle cx="862" cy="782" r="8" class="c0"/>
<circle cx="1002" cy="1022" r="8" class="c0"/>
<circle cx="756" cy="694" r="8" class="c0"/>
<circle cx="850" cy="1064" r="8" class="c0"/>
<circle cx="828" cy="684" r="8" class="c0"/>
<circle cx="912" cy="974" r="8" class="c0"/>
<circle cx="972" cy="622" r="8" class="c0"/>
<circle cx="920" cy="344" r="8" class="c0"/>
<circle cx="954" cy="1150" r="8" class="c0"/>
<circle cx="866" cy="526" r="8" class="c0"/>
<circle cx="760" cy="1372" r="8" class="c0"/>
<circle cx="854" cy="566" r="8" class="c0"/>
<circle cx="956" cy="764" r="8" class="c0"/>
<circle cx="914" cy="652" r="8" class="c0"/>
<circle cx="850" cy="1220" r="8" class="c0"/>
<circle cx="822" cy="928" r="8" class="c0"/>
<circle cx="942" cy="774" r="8" class="c0"/>
<circle cx="882" cy="986" r="8" class="c0"/>
<circle cx="914" cy="492" r="8" class="c0"/>
<circle cx="964" cy="1334" r="8" class="c0"/>
<circle cx="874" cy="1170" r="8" class="c0"/>
<circle cx="852" cy="598" r="8" class="c0"/>
<circle cx="754" cy="1194" r="8" class="c0"/>
<circle cx="930" cy="330" r="8" class="c0"/>
<circle cx="922" cy="818" r="8" class="c0"/>
<circle cx="762" cy="616" r="8" class="c0"/>
<circle cx="800" cy="478" r="8" class="c0"/>
<circle cx="816" cy="1044" r="8" class="c0"/>
<circle cx="928" cy="420" r="8" class="c0"/>
<circle cx="738" cy="960" r="8" class="c0"/>
<circle cx="920" cy="882" r="8" class="c0"/>
<circle cx="786" cy="1110" r="8" class="c0"/>
<circle cx="732" cy="988" r="8" class="c0"/>
<circle cx="990" cy="1214" r="8" class="c0"/>
<circle cx="884" cy="1222" r="8" class="c0"/>
<circle cx="686" cy="1236" r="8" class="c0"/>
<circle cx="826" cy="1216" r="8" class="c0"/>
<circle cx="930" cy="738" r="8" class="c0"/>
<circle cx="764" cy="1346" r="8" class="c0"/>
<circle cx="1070" cy="1176" r="8" class="c0"/>
<circle cx="968" cy="320" r="8" class="c0"/>
<circle cx="980" cy="942" r="8" class="c0"/>
<circle cx="696" cy="1414" r="8" class="c0"/>
<circle cx="968" cy="884" r="8" class="c0"/>
<circle cx="778" cy="574" r="8" class="c0"/>
<circle cx="692" cy="1088" r="8" class="c0"/>
<circle cx="740" cy="932" r="8" class="c0"/>
<circle cx="902" cy="1198" r="8" class="c0"/>
<circle cx="748" cy="764" r="8" class="c0"/>
<circle cx="930" cy="692" r="8" class="c0"/>
<circle cx="866" cy="974" r="8" class="c0"/>
<circle cx="824" cy="982" r="8" class="c0"/>
<circle cx="882" cy="1042" r="8" class="c0"/>
<circle cx="870" cy="548" r="8" class="c0"/>
<circle cx="946" cy="508" r="8" class="c0"/>
<circle cx="872" cy="412" r="8" class="c0"/>
<circle cx="812" cy="878" r="8" class="c0"/>
<circle cx="864" cy="1012" r="8" class="c0"/>
<circle cx="822" cy="396" r="8" class="c0"/>
<circle cx="666" cy="1140" r="8" class="c0"/>
<circle cx="904" cy="1230" r="8" class="c0"/>
<circle cx="972" cy="1424" r="8" class="c0"/>
<circle cx="948" cy="576" r="8" class="c0"/>
<circle cx="1026" cy="1044" r="8" class="c0"/>
<circle cx="868" cy="472" r="8" class="c0"/>
<circle cx="844" cy="1146" r="8" class="c0"/>
<circle cx="956" cy="1076" r="8" class="c0"/>
<circle cx="874" cy="390" r="8" class="c0"/>
<circle cx="978" cy="388" r="8" class="c0"/>
<circle cx="1044" cy="1060" r="8" class="c0"/>
<circle cx="750" cy="1016" r="8" class="c0"/>
<circle cx="880" cy="538" r="8" class="c0"/>
<circle cx="818" cy="646" r="8" class="c0"/>
<circle cx="868" cy="1054" r="8" class="c0"/>
<circle cx="1022" cy="426" r="8" class="c0"/>
<circle cx="852" cy="884" r="8" class="c0"/>
<circle cx="826" cy="1238" r="8" class="c0"/>
<circle cx="886" cy="484" r="8" class="c0"/>
<circle cx="952" cy="864" r="8" class="c0"/>
<circle cx="944" cy="1000" r="8" class="c0"/>
<circle cx="908" cy="608" r="8" class="c0"/>
<circle cx="840" cy="578" r="8" class="c0"/>
<circle cx="800" cy="1240" r="8" class="c0"/>
<circle cx="912" cy="406" r="8" class="c0"/>
<circle cx="778" cy="924" r="8" class="c0"/>
<circle cx="882" cy="770" r="8" class="c0"/>
<circle cx="970" cy="448" r="8" class="c0"/>
<circle cx="810" cy="1098" r="8" class="c0"/>
<circle cx="1088" cy="1218" r="8" class="c0"/>
<circle cx="896" cy="876" r="8" class="c0"/>
<circle cx="840" cy="908" r="8" class="c0"/>
<circle cx="810" cy="1126" r="8" class="c0"/>
<circle cx="934" cy="450" r="8" class="c0"/>
<circle cx="788" cy="496" r="8" class="c0"/>
<circle cx="848" cy="342" r="8" class="c0"/>
<circle cx="916" cy="364" r="8" class="c0"/>
<circle cx="858" cy="498" r="8" class="c0"/>
<circle cx="942" cy="468" r="8" class="c0"/>
<circle cx="1056" cy="1202" r="8" class="c0"/>
<circle cx="726" cy="922" r="8" class="c0"/>
<circle cx="780" cy="888" r="8" class="c0"/>
<circle cx="1046" cy="1122" r="8" class="c0"/>
<circle cx="698" cy="1218" r="8" class="c0"/>
<circle cx="860" cy="828" r="8" class="c0"/>
<circle cx="854" cy="1244" r="8" class="c0"/>
<circle cx="858" cy="356" r="8" class="c0"/>
<circle cx="896" cy="1024" r="8" class="c0"/>
<circle cx="946" cy="1322" r="8" class="c0"/>
<circle cx="730" cy="1362" r="8" class="c0"/>
<circle cx="858" cy="1118" r="8" class="c0"/>
<circle cx="746" cy="1354" r="8" class="c0"/>
<circle cx="774" cy="776" r="8" class="c0"/>
<circle cx="752" cy="638" r="8" class="c0"/>
<circle cx="796" cy="762" r="8" class="c0"/>
<circle cx="838" cy="508" r="8" class="c0"/>
<circle cx="882" cy="1188" r="8" class="c0"/>
<circle cx="900" cy="468" r="8" class="c0"/>
<circle cx="674" cy="1156" r="8" class="c0"/>
<circle cx="950" cy="882" r="8" class="c0"/>
<circle cx="782" cy="1238" r="8" class="c0"/>
<circle cx="678" cy="1122" r="8" class="c0"/>
<circle cx="846" cy="1202" r="8" class="c0"/>
<circle cx="802" cy="1266" r="8" class="c0"/>
<circle cx="770" cy="718" r="8" class="c0"/>
<circle cx="938" cy="346" r="8" class="c0"/>
<circle cx="942" cy="1166" r="8" class="c0"/>
<circle cx="812" cy="994" r="8" class="c0"/>
<circle cx="972" cy="428" r="8" class="c0"/>
<circle cx="730" cy="752" r="8" class="c0"/>
<circle cx="790" cy="732" r="8" class="c0"/>
<circle cx="934" cy="1022" r="8" class="c0"/>
<circle cx="816" cy="422" r="8" class="c0"/>
<circle cx="992" cy="740" r="8" class="c0"/>
<circle cx="810" cy="842" r="8" class="c0"/>
<circle cx="950" cy="1374" r="8" class="c0"/>
<circle cx="868" cy="1208" r="8" class="c0"/>
<circle cx="708" cy="1208" r="8" class="c0"/>
<circle cx="758" cy="1108" r="8" class="c0"/>
<circle cx="810" cy="1178" r="8" class="c0"/>
<circle cx="914" cy="1012" r="8" class="c0"/>
<circle cx="918" cy="320" r="8" class="c0"/>
<circle cx="974" cy="1116" r="8" class="c0"/>
<circle cx="932" cy="892" r="8" class="c0"/>
<circle cx="960" cy="558" r="8" class="c0"/>
<circle cx="1014" cy="658" r="8" class="c0"/>
<circle cx="910" cy="916" r="8" class="c0"/>
<circle cx="1108" cy="1210" r="8" class="c0"/>
<circle cx="982" cy="698" r="8" class="c0"/>
<circle cx="880" cy="1284" r="8" class="c0"/>
<circle cx="900" cy="834" r="8" class="c0"/>
<circle cx="832" cy="834" r="8" class="c0"/>
<circle cx="726" cy="1154" r="8" class="c0"/>
<circle cx="902" cy="814" r="8" class="c0"/>
<circle cx="1054" cy="1220" r="8" class="c0"/>
<circle cx="838" cy="1180" r="8" class="c0"/>
<circle cx="978" cy="1344" r="8" class="c0"/>
<circle cx="968" cy="852" r="8" class="c0"/>
<circle cx="870" cy="846" r="8" class="c0"/>
<circle cx="942" cy="320" r="8" class="c0"/>
<circle cx="904" cy="518" r="8" class="c0"/>
<circle cx="780" cy="544" r="8" class="c0"/>
<circle cx="816" cy="774" r="8" class="c0"/>
<circle cx="924" cy="384" r="8" class="c0"/>
<circle cx="884" cy="962" r="8" class="c0"/>
<circle cx="928" cy="864" r="8" class="c0"/>
<circle cx="1036" cy="964" r="8" class="c0"/>
<circle cx="782" cy="1134" r="8" class="c0"/>
<circle cx="804" cy="508" r="8" class="c0"/>
<circle cx="704" cy="1396" r="8" class="c0"/>
<circle cx="980" cy="346" r="8" class="c0"/>
<circle cx="648" cy="1180" r="8" class="c0"/>
<circle cx="640" cy="1164" r="8" class="c0"/>
<circle cx="1084" cy="1108" r="8" class="c0"/>
<circle cx="968" cy="1058" r="8" class="c0"/>
<circle cx="772" cy="1180" r="8" class="c0"/>
<circle cx="770" cy="1402" r="8" class="c0"/>
<circle cx="864" cy="698" r="8" class="c0"/>
<circle cx="834" cy="1014" r="8" class="c0"/>
<circle cx="1034" cy="1168" r="8" class="c0"/>
<circle cx="984" cy="722" r="8" class="c0"/>
<circle cx="940" cy="1084" r="8" class="c0"/>
<circle cx="708" cy="1430" r="8" class="c0"/>
<circle cx="792" cy="590" r="8" class="c0"/>
<circle cx="1108" cy="1174" r="8" class="c0"/>
<circle cx="1000" cy="1134" r="8" class="c0"/>
<circle cx="770" cy="600" r="8" class="c0"/>
<circle cx="1004" cy="1092" r="8" class="c0"/>
<circle cx="978" cy="366" r="8" class="c0"/>
<circle cx="852" cy="446" r="8" class="c0"/>
<circle cx="690" cy="1136" r="8" class="c0"/>
<circle cx="866" cy="910" r="8" class="c0"/>
<circle cx="980" cy="874" r="8" class="c0"/>
<circle cx="748" cy="664" r="8" class="c0"/>
<circle cx="1090" cy="1168" r="8" class="c0"/>
<circle cx="716" cy="1372" r="8" class="c0"/>
<circle cx="718" cy="1056" r="8" class="c0"/>
<circle cx="798" cy="668" r="8" class="c0"/>
<circle cx="844" cy="398" r="8" class="c0"/>
<circle cx="924" cy="998" r="8" class="c0"/>
<circle cx="658" cy="1120" r="8" class="c0"/>
<circle cx="778" cy="1024" r="8" class="c0"/>
<circle cx="842" cy="872" r="8" class="c0"/>
<circle cx="742" cy="1254" r="8" class="c0"/>
<circle cx="680" cy="1072" r="8" class="c0"/>
<circle cx="874" cy="708" r="8" class="c0"/>
<circle cx="776" cy="1272" r="8" class="c0"/>
<circle cx="914" cy="1240" r="8" class="c0"/>
<circle cx="836" cy="528" r="8" class="c0"/>
<circle cx="966" cy="1160" r="8" class="c0"/>
<circle cx="732" cy="732" r="8" class="c0"/>
<circle cx="732" cy="1318" r="8" class="c0"/>
<circle cx="1002" cy="970" r="8" class="c0"/>
<circle cx="812" cy="720" r="8" class="c0"/>
<circle cx="772" cy="1122" r="8" class="c0"/>
<circle cx="956" cy="330" r="8" class="c0"/>
<circle cx="864" cy="1230" r="8" class="c0"/>
<circle cx="780" cy="610" r="8" class="c0"/>
<circle cx="956" cy="388" r="8" class="c0"/>
<circle cx="934" cy="402" r="8" class="c0"/>
<circle cx="876" cy="1150" r="8" class="c0"/>
<circle cx="1098" cy="1128" r="8" class="c0"/>
<circle cx="892" cy="1174" r="8" class="c0"/>
<circle cx="978" cy="754" r="8" class="c0"/>
<circle cx="772" cy="816" r="8" class="c0"/>
<circle cx="926" cy="504" r="8" class="c0"/>
<circle cx="1024" cy="1182" r="8" class="c0"/>
<circle cx="946" cy="824" r="8" class="c0"/>
<circle cx="934" cy="486" r="8" class="c0"/>
<circle cx="1058" cy="1110" r="8" class="c0"/>
<circle cx="674" cy="1178" r="8" class="c0"/>
<circle cx="832" cy="548" r="6" class="c0"/>
<circle cx="794" cy="1186" r="6" class="c0"/>
<circle cx="898" cy="650" r="6" class="c0"/>
<circle cx="948" cy="1428" r="6" class="c0"/>
<circle cx="1014" cy="1002" r="6" class="c0"/>
<circle cx="862" cy="674" r="6" class="c0"/>
<circle cx="954" cy="844" r="6" class="c0"/>
<circle cx="944" cy="754" r="6" class="c0"/>
<circle cx="948" cy="630" r="6" class="c0"/>
<circle cx="720" cy="1098" r="6" class="c0"/>
<circle cx="756" cy="994" r="6" class="c0"/>
<circle cx="822" cy="1088" r="6" class="c0"/>
<circle cx="898" cy="952" r="6" class="c0"/>
<circle cx="802" cy="918" r="6" class="c0"/>
<circle cx="742" cy="1180" r="6" class="c0"/>
<circle cx="976" cy="408" r="6" class="c0"/>
<circle cx="1036" cy="1078" r="6" class="c0"/>
<circle cx="1080" cy="1204" r="6" class="c0"/>
<circle cx="884" cy="720" r="6" class="c0"/>
<circle cx="988" cy="1194" r="6" class="c0"/>
<circle cx="866" cy="992" r="6" class="c0"/>
<circle cx="816" cy="338" r="6" class="c0"/>
<circle cx="970" cy="1042" r="6" class="c0"/>
<circle cx="916" cy="440" r="6" class="c0"/>
<circle cx="956" cy="1412" r="6" class="c0"/>
<circle cx="876" cy="792" r="6" class="c0"/>
<circle cx="990" cy="1334" r="6" class="c0"/>
<circle cx="982" cy="1094" r="6" class="c0"/>
<circle cx="1052" cy="1008" r="6" class="c0"/>
<circle cx="802" cy="1224" r="6" class="c0"/>
<circle cx="1016" cy="1034" r="6" class="c0"/>
<circle cx="830" cy="710" r="6" class="c0"/>
<circle cx="1068" cy="1158" r="6" class="c0"/>
<circle cx="1058" cy="1050" r="6" class="c0"/>
<circle cx="930" cy="614" r="6" class="c0"/>
<circle cx="806" cy="1298" r="6" class="c0"/>
<circle cx="1024" cy="648" r="6" class="c0"/>
<circle cx="980" cy="1230" r="6" class="c0"/>
<circle cx="862" cy="1284" r="6" class="c0"/>
<circle cx="826" cy="456" r="6" class="c0"/>
<circle cx="962" cy="1310" r="6" class="c0"/>
<circle cx="906" cy="384" r="6" class="c0"/>
<circle cx="1010" cy="412" r="6" class="c0"/>
<circle cx="770" cy="870" r="6" class="c0"/>
<circle cx="900" cy="1098" r="6" class="c0"/>
<circle cx="736" cy="1276" r="6" class="c0"/>
<circle cx="804" cy="552" r="6" class="c0"/>
<circle cx="888" cy="1242" r="6" class="c0"/>
<circle cx="670" cy="1092" r="6" class="c0"/>
<circle cx="1078" cy="1124" r="6" class="c0"/>
<circle cx="942" cy="1264" r="6" class="c0"/>
<circle cx="1034" cy="658" r="6" class="c0"/>
<circle cx="756" cy="1304" r="6" class="c0"/>
<circle cx="760" cy="1392" r="6" class="c0"/>
<circle cx="658" cy="1170" r="6" class="c0"/>
<circle cx="946" cy="734" r="6" class="c0"/>
<circle cx="896" cy="1072" r="6" class="c0"/>
<circle cx="838" cy="674" r="6" class="c0"/>
<circle cx="760" cy="1168" r="6" class="c0"/>
<circle cx="828" cy="412" r="6" class="c0"/>
<circle cx="812" cy="806" r="6" class="c0"/>
<circle cx="766" cy="736" r="6" class="c0"/>
<circle cx="734" cy="1050" r="6" class="c0"/>
<circle cx="906" cy="1284" r="6" class="c0"/>
<circle cx="792" cy="1092" r="6" class="c0"/>
<circle cx="920" cy="1134" r="6" class="c0"/>
<circle cx="800" cy="976" r="6" class="c0"/>
<circle cx="882" cy="916" r="6" class="c0"/>
<circle cx="852" cy="958" r="6" class="c0"/>
<circle cx="844" cy="752" r="6" class="c0"/>
<circle cx="896" cy="972" r="6" class="c0"/>
<circle cx="802" cy="580" r="6" class="c0"/>
<circle cx="972" cy="986" r="6" class="c0"/>
<circle cx="946" cy="1208" r="6" class="c0"/>
<circle cx="830" cy="964" r="6" class="c0"/>
<circle cx="774" cy="1362" r="6" class="c0"/>
<circle cx="1072" cy="1214" r="6" class="c0"/>
<circle cx="966" cy="376" r="6" class="c0"/>
<circle cx="900" cy="584" r="6" class="c0"/>
<circle cx="884" cy="1116" r="6" class="c0"/>
<circle cx="952" cy="1348" r="6" class="c0"/>
<circle cx="682" cy="1100" r="6" class="c0"/>
<circle cx="884" cy="1004" r="6" class="c0"/>
<circle cx="864" cy="1074" r="6" class="c0"/>
<circle cx="766" cy="1070" r="6" class="c0"/>
<circle cx="828" cy="882" r="6" class="c0"/>
<circle cx="890" cy="678" r="6" class="c0"/>
<circle cx="982" cy="1326" r="6" class="c0"/>
<circle cx="942" cy="1340" r="6" class="c0"/>
<circle cx="1018" cy="1112" r="6" class="c0"/>
<circle cx="972" cy="902" r="6" class="c0"/>
<circle cx="878" cy="890" r="6" class="c0"/>
<circle cx="874" cy="818" r="6" class="c0"/>
<circle cx="750" cy="868" r="6" class="c0"/>
<circle cx="926" cy="910" r="6" class="c0"/>
<circle cx="858" cy="1158" r="6" class="c0"/>
<circle cx="900" cy="722" r="6" class="c0"/>
<circle cx="958" cy="808" r="6" class="c0"/>
<circle cx="994" cy="1386" r="6" class="c0"/>
<circle cx="812" cy="494" r="6" class="c0"/>
<circle cx="760" cy="844" r="6" class="c0"/>
<circle cx="820" cy="758" r="6" class="c0"/>
<circle cx="736" cy="1344" r="6" class="c0"/>
<circle cx="748" cy="726" r="6" class="c0"/>
<circle cx="964" cy="954" r="6" class="c0"/>
<circle cx="668" cy="1106" r="6" class="c0"/>
<circle cx="880" cy="754" r="6" class="c0"/>
<circle cx="992" cy="1012" r="6" class="c0"/>
<circle cx="962" cy="1184" r="6" class="c0"/>
<circle cx="708" cy="1092" r="6" class="c0"/>
<circle cx="768" cy="832" r="6" class="c0"/>
<circle cx="866" cy="1190" r="6" class="c0"/>
<circle cx="928" cy="1070" r="6" class="c0"/>
<circle cx="954" cy="1256" r="6" class="c0"/>
<circle cx="646" cy="1216" r="6" class="c0"/>
<circle cx="976" cy="1272" r="6" class="c0"/>
<circle cx="802" cy="1032" r="6" class="c0"/>
<circle cx="1048" cy="1022" r="6" class="c0"/>
<circle cx="886" cy="1064" r="6" class="c0"/>
<circle cx="886" cy="1134" r="6" class="c0"/>
<circle cx="838" cy="332" r="6" class="c0"/>
<circle cx="978" cy="810" r="6" class="c0"/>
<circle cx="758" cy="676" r="6" class="c0"/>
<circle cx="874" cy="1022" r="6" class="c0"/>
<circle cx="816" cy="600" r="6" class="c0"/>
<circle cx="928" cy="1098" r="6" class="c0"/>
<circle cx="834" cy="1036" r="6" class="c0"/>
<circle cx="854" cy="742" r="6" class="c0"/>
<circle cx="948" cy="960" r="6" class="c0"/>
<circle cx="1026" cy="938" r="6" class="c0"/>
<circle cx="984" cy="840" r="6" class="c0"/>
<circle cx="918" cy="1196" r="6" class="c0"/>
<circle cx="736" cy="778" r="6" class="c0"/>
<circle cx="830" cy="746" r="6" class="c0"/>
<circle cx="930" cy="928" r="6" class="c0"/>
<circle cx="1006" cy="434" r="6" class="c0"/>
<circle cx="818" cy="558" r="6" class="c0"/>
<circle cx="800" cy="852" r="6" class="c0"/>
<circle cx="956" cy="1030" r="6" class="c0"/>
<circle cx="816" cy="472" r="6" class="c0"/>
<circle cx="976" cy="1000" r="6" class="c0"/>
<circle cx="968" cy="398" r="6" class="c0"/>
<circle cx="898" cy="670" r="6" class="c0"/>
<circle cx="818" cy="670" r="6" class="c0"/>
<circle cx="814" cy="972" r="6" class="c0"/>
<circle cx="986" cy="1414" r="6" class="c0"/>
<circle cx="832" cy="658" r="6" class="c0"/>
<circle cx="984" cy="1128" r="6" class="c0"/>
<circle cx="996" cy="1166" r="6" class="c0"/>
<circle cx="880" cy="836" r="6" class="c0"/>
<circle cx="726" cy="1262" r="6" class="c0"/>
<circle cx="752" cy="968" r="6" class="c0"/>
<circle cx="766" cy="938" r="6" class="c0"/>
<circle cx="852" cy="518" r="6" class="c0"/>
<circle cx="804" cy="638" r="6" class="c0"/>
<circle cx="932" cy="1054" r="6" class="c0"/>
<circle cx="842" cy="1044" r="6" class="c0"/>
<circle cx="758" cy="1032" r="6" class="c0"/>
<circle cx="764" cy="766" r="6" class="c0"/>
<circle cx="824" cy="1118" r="6" class="c0"/>
<circle cx="758" cy="780" r="6" class="c0"/>
<circle cx="970" cy="304" r="6" class="c0"/>
<circle cx="1038" cy="994" r="6" class="c0"/>
<circle cx="992" cy="954" r="6" class="c0"/>
<circle cx="860" cy="1144" r="6" class="c0"/>
<circle cx="898" cy="498" r="6" class="c0"/>
<circle cx="874" cy="494" r="6" class="c0"/>
<circle cx="970" cy="540" r="6" class="c0"/>
<circle cx="802" cy="1084" r="6" class="c0"/>
<circle cx="898" cy="772" r="6" class="c0"/>
<circle cx="778" cy="1218" r="6" class="c0"/>
<circle cx="856" cy="1272" r="6" class="c0"/>
<circle cx="804" cy="438" r="6" class="c0"/>
<circle cx="748" cy="986" r="6" class="c0"/>
<circle cx="944" cy="1134" r="6" class="c0"/>
<circle cx="968" cy="1088" r="6" class="c0"/>
<circle cx="866" cy="646" r="6" class="c0"/>
<circle cx="764" cy="1294" r="6" class="c0"/>
<circle cx="974" cy="1378" r="6" class="c0"/>
<circle cx="888" cy="332" r="6" class="c0"/>
<circle cx="844" cy="366" r="6" class="c0"/>
<circle cx="874" cy="324" r="6" class="c0"/>
<circle cx="820" cy="504" r="6" class="c0"/>
<circle cx="738" cy="912" r="6" class="c0"/>
<circle cx="972" cy="710" r="6" class="c0"/>
<circle cx="816" cy="444" r="6" class="c0"/>
<circle cx="798" cy="1136" r="6" class="c0"/>
<circle cx="846" cy="1166" r="6" class="c0"/>
<circle cx="766" cy="1212" r="6" class="c0"/>
<circle cx="912" cy="1142" r="6" class="c0"/>
<circle cx="998" cy="756" r="6" class="c0"/>
<circle cx="1040" cy="1200" r="6" class="c0"/>
<circle cx="940" cy="852" r="6" class="c0"/>
<circle cx="838" cy="892" r="6" class="c0"/>
<circle cx="858" cy="632" r="6" class="c0"/>
<circle cx="702" cy="1186" r="6" class="c0"/>
<circle cx="892" cy="356" r="6" class="c0"/>
<circle cx="998" cy="1352" r="6" class="c0"/>
<circle cx="718" cy="1038" r="6" class="c0"/>
<circle cx="802" cy="888" r="6" class="c0"/>
<circle cx="978" cy="1068" r="6" class="c0"/>
<circle cx="890" cy="844" r="6" class="c0"/>
<circle cx="1006" cy="712" r="6" class="c0"/>
<circle cx="936" cy="722" r="6" class="c0"/>
<circle cx="870" cy="926" r="6" class="c0"/>
<circle cx="996" cy="1182" r="6" class="c0"/>
<circle cx="750" cy="1042" r="6" class="c0"/>
<circle cx="688" cy="1056" r="6" class="c0"/>
<circle cx="860" cy="1092" r="6" class="c0"/>
<circle cx="872" cy="366" r="6" class="c0"/>
<circle cx="862" cy="894" r="6" class="c0"/>
<circle cx="860" cy="858" r="6" class="c0"/>
<circle cx="802" cy="1006" r="6" class="c0"/>
<circle cx="970" cy="1318" r="6" class="c0"/>
<circle cx="1034" cy="946" r="6" class="c0"/>
<circle cx="774" cy="1336" r="6" class="c0"/>
<circle cx="930" cy="758" r="6" class="c0"/>
<circle cx="978" cy="330" r="6" class="c0"/>
<circle cx="754" cy="812" r="6" class="c0"/>
<circle cx="920" cy="1106" r="6" class="c0"/>
<circle cx="760" cy="752" r="6" class="c0"/>
<circle cx="1066" cy="1192" r="6" class="c0"/>
<circle cx="1004" cy="730" r="6" class="c0"/>
<circle cx="950" cy="1016" r="6" class="c0"/>
<circle cx="976" cy="578" r="6" class="c0"/>
<circle cx="908" cy="432" r="6" class="c0"/>
<circle cx="756" cy="1410" r="6" class="c0"/>
<circle cx="742" cy="1374" r="6" class="c0"/>
<circle cx="916" cy="1160" r="6" class="c0"/>
<circle cx="768" cy="964" r="6" class="c0"/>
<circle cx="736" cy="1432" r="6" class="c0"/>
<circle cx="950" cy="1392" r="6" class="c0"/>
<circle cx="830" cy="1274" r="6" class="c0"/>
<circle cx="770" cy="1382" r="6" class="c0"/>
<circle cx="718" cy="996" r="6" class="c0"/>
<circle cx="890" cy="576" r="6" class="c0"/>
<circle cx="958" cy="1118" r="6" class="c0"/>
<circle cx="818" cy="518" r="6" class="c0"/>
<circle cx="954" cy="746" r="6" class="c0"/>
<circle cx="802" cy="1112" r="6" class="c0"/>
<circle cx="972" cy="770" r="6" class="c0"/>
<circle cx="792" cy="836" r="6" class="c0"/>
<circle cx="862" cy="402" r="6" class="c0"/>
<circle cx="1010" cy="1120" r="6" class="c0"/>
<circle cx="740" cy="804" r="6" class="c0"/>
<circle cx="794" cy="626" r="6" class="c0"/>
<circle cx="780" cy="1060" r="6" class="c0"/>
<circle cx="808" cy="678" r="6" class="c0"/>
<circle cx="838" cy="924" r="6" class="c0"/>
<circle cx="988" cy="624" r="6" class="c0"/>
<circle cx="854" cy="480" r="6" class="c0"/>
<circle cx="958" cy="460" r="6" class="c0"/>
<circle cx="952" cy="1176" r="6" class="c0"/>
<circle cx="762" cy="650" r="6" class="c0"/>
<circle cx="932" cy="708" r="6" class="c0"/>
<circle cx="1020" cy="1242" r="6" class="c0"/>
<circle cx="774" cy="698" r="6" class="c0"/>
<circle cx="938" cy="566" r="6" class="c0"/>
<circle cx="1060" cy="1034" r="6" class="c0"/>
<circle cx="958" cy="968" r="6" class="c0"/>
<circle cx="734" cy="1170" r="6" class="c0"/>
<circle cx="792" cy="1214" r="6" class="c0"/>
<circle cx="1068" cy="1058" r="6" class="c0"/>
<circle cx="952" cy="784" r="6" class="c0"/>
<circle cx="988" cy="378" r="6" class="c0"/>
<circle cx="890" cy="620" r="6" class="c0"/>
<circle cx="974" cy="1192" r="6" class="c0"/>
<circle cx="888" cy="1206" r="6" class="c0"/>
<circle cx="842" cy="616" r="6" class="c0"/>
<circle cx="862" cy="334" r="6" class="c0"/>
<circle cx="1040" cy="1138" r="6" class="c0"/>
<circle cx="900" cy="1214" r="6" class="c0"/>
<circle cx="824" cy="1004" r="6" class="c0"/>
<circle cx="750" cy="1382" r="6" class="c0"/>
<circle cx="838" cy="560" r="6" class="c0"/>
<circle cx="1016" cy="1054" r="6" class="c0"/>
<circle cx="834" cy="1074" r="6" class="c0"/>
<circle cx="918" cy="902" r="6" class="c0"/>
<circle cx="928" cy="1248" r="6" class="c0"/>
<circle cx="1076" cy="1078" r="6" class="c0"/>
</svg>
