<?xml version="1.0" encoding="utf-8"?>
<svg xmlns="http://www.w3.org/2000/svg"
     xmlns:xlink="http://www.w3.org/1999/xlink" width="1920" height="1440" >

            <defs>
            <style type="text/css"><![CDATA[
circle {stroke: none;}
.c0 {fill: #FFFFFF;}
]]></style>
            </defs>
<rect x="0" y="0" width="1920" height="1440" fill="black"/>
<circle cx="914" cy="356" r="14" class="c0"/>
<circle cx="972" cy="418" r="14" class="c0"/>
<circle cx="976" cy="904" r="12" class="c0"/>
<circle cx="664" cy="1144" r="12" class="c0"/>
<circle cx="932" cy="478" r="12" class="c0"/>
<circle cx="876" cy="542" r="12" class="c0"/>
<circle cx="1002" cy="656" r="12" class="c0"/>
<circle cx="824" cy="526" r="12" class="c0"/>
<circle cx="768" cy="888" r="12" class="c0"/>
<circle cx="870" cy="906" r="12" class="c0"/>
<circle cx="706" cy="1294" r="12" class="c0"/>
<circle cx="884" cy="1186" r="12" class="c0"/>
<circle cx="896" cy="380" r="12" class="c0"/>
<circle cx="836" cy="988" r="12" class="c0"/>
<circle cx="904" cy="524" r="12" class="c0"/>
<circle cx="698" cy="1210" r="12" class="c0"/>
<circle cx="914" cy="632" r="12" class="c0"/>
<circle cx="760" cy="758" r="12" class="c0"/>
<circle cx="978" cy="624" r="12" class="c0"/>
<circle cx="762" cy="652" r="12" class="c0"/>
<circle cx="880" cy="480" r="12" class="c0"/>
<circle cx="884" cy="890" r="12" class="c0"/>
<circle cx="772" cy="1206" r="12" class="c0"/>
<circle cx="1034" cy="1124" r="12" class="c0"/>
<circle cx="854" cy="1062" r="12" class="c0"/>
<circle cx="922" cy="1108" r="12" class="c0"/>
<circle cx="982" cy="1268" r="12" class="c0"/>
<circle cx="996" cy="604" r="12" class="c0"/>
<circle cx="938" cy="586" r="12" class="c0"/>
<circle cx="766" cy="1166" r="12" class="c0"/>
<circle cx="956" cy="640" r="12" class="c0"/>
<circle cx="796" cy="614" r="12" class="c0"/>
<circle cx="1044" cy="1020" r="12" class="c0"/>
<circle cx="822" cy="1178" r="12" class="c0"/>
<circle cx="782" cy="488" r="12" class="c0"/>
<circle cx="710" cy="1148" r="12" class="c0"/>
<circle cx="994" cy="1086" r="12" class="c0"/>
<circle cx="832" cy="786" r="12" class="c0"/>
<circle cx="958" cy="1324" r="12" class="c0"/>
<circle cx="978" cy="770" r="12" class="c0"/>
<circle cx="958" cy="1378" r="12" class="c0"/>
<circle cx="1070" cy="1236" r="12" class="c0"/>
<circle cx="752" cy="1128" r="10" class="c0"/>
<circle cx="802" cy="1070" r="10" class="c0"/>
<circle cx="886" cy="334" r="10" class="c0"/>
<circle cx="760" cy="590" r="10" class="c0"/>
<circle cx="942" cy="1282" r="10" class="c0"/>
<circle cx="764" cy="1002" r="10" class="c0"/>
<circle cx="850" cy="726" r="10" class="c0"/>
<circle cx="842" cy="1190" r="10" class="c0"/>
<circle cx="754" cy="1184" r="10" class="c0"/>
<circle cx="940" cy="1168" r="10" class="c0"/>
<circle cx="828" cy="892" r="10" class="c0"/>
<circle cx="874" cy="454" r="10" class="c0"/>
<circle cx="1082" cy="1206" r="10" class="c0"/>
<circle cx="838" cy="846" r="10" class="c0"/>
<circle cx="950" cy="1016" r="10" class="c0"/>
<circle cx="866" cy="952" r="10" class="c0"/>
<circle cx="858" cy="866" r="10" class="c0"/>
<circle cx="1006" cy="624" r="10" class="c0"/>
<circle cx="768" cy="914" r="10" class="c0"/>
<circle cx="886" cy="1084" r="10" class="c0"/>
<circle cx="1098" cy="1258" r="10" class="c0"/>
<circle cx="922" cy="388" r="10" class="c0"/>
<circle cx="854" cy="370" r="10" class="c0"/>
<circle cx="910" cy="856" r="10" class="c0"/>
<circle cx="1014" cy="1142" r="10" class="c0"/>
<circle cx="912" cy="1042" r="10" class="c0"/>
<circle cx="718" cy="1102" r="10" class="c0"/>
<circle cx="822" cy="410" r="10" class="c0"/>
<circle cx="912" cy="1068" r="10" class="c0"/>
<circle cx="942" cy="624" r="10" class="c0"/>
<circle cx="902" cy="1198" r="10" class="c0"/>
<circle cx="926" cy="938" r="10" class="c0"/>
<circle cx="790" cy="740" r="10" class="c0"/>
<circle cx="924" cy="326" r="10" class="c0"/>
<circle cx="902" cy="794" r="10" class="c0"/>
<circle cx="992" cy="714" r="10" class="c0"/>
<circle cx="1024" cy="698" r="10" class="c0"/>
<circle cx="730" cy="1318" r="10" class="c0"/>
<circle cx="904" cy="670" r="10" class="c0"/>
<circle cx="960" cy="794" r="10" class="c0"/>
<circle cx="638" cy="1192" r="10" class="c0"/>
<circle cx="774" cy="624" r="10" class="c0"/>
<circle cx="842" cy="1086" r="10" class="c0"/>
<circle cx="812" cy="1302" r="10" class="c0"/>
<circle cx="1038" cy="1252" r="10" class="c0"/>
<circle cx="808" cy="1128" r="10" class="c0"/>
<circle cx="758" cy="934" r="10" class="c0"/>
<circle cx="822" cy="340" r="10" class="c0"/>
<circle cx="876" cy="608" r="10" class="c0"/>
<circle cx="744" cy="984" r="10" class="c0"/>
<circle cx="716" cy="1022" r="10" class="c0"/>
<circle cx="956" cy="1068" r="10" class="c0"/>
<circle cx="808" cy="1272" r="10" class="c0"/>
<circle cx="778" cy="860" r="10" class="c0"/>
<circle cx="926" cy="1136" r="10" class="c0"/>
<circle cx="868" cy="1040" r="10" class="c0"/>
<circle cx="686" cy="1158" r="10" class="c0"/>
<circle cx="670" cy="1106" r="10" class="c0"/>
<circle cx="968" cy="828" r="10" class="c0"/>
<circle cx="786" cy="512" r="10" class="c0"/>
<circle cx="962" cy="994" r="10" class="c0"/>
<circle cx="976" cy="966" r="10" class="c0"/>
<circle cx="1016" cy="984" r="10" class="c0"/>
<circle cx="790" cy="646" r="10" class="c0"/>
<circle cx="962" cy="746" r="10" class="c0"/>
<circle cx="1006" cy="920" r="10" class="c0"/>
<circle cx="956" cy="376" r="10" class="c0"/>
<circle cx="742" cy="1164" r="10" class="c0"/>
<circle cx="822" cy="748" r="10" class="c0"/>
<circle cx="864" cy="1206" r="10" class="c0"/>
<circle cx="776" cy="534" r="10" class="c0"/>
<circle cx="976" cy="1146" r="10" class="c0"/>
<circle cx="734" cy="796" r="10" class="c0"/>
<circle cx="982" cy="938" r="10" class="c0"/>
<circle cx="826" cy="1024" r="10" class="c0"/>
<circle cx="802" cy="932" r="10" class="c0"/>
<circle cx="984" cy="1408" r="10" class="c0"/>
<circle cx="1000" cy="680" r="10" class="c0"/>
<circle cx="894" cy="1292" r="10" class="c0"/>
<circle cx="660" cy="1298" r="10" class="c0"/>
<circle cx="858" cy="618" r="10" class="c0"/>
<circle cx="918" cy="958" r="10" class="c0"/>
<circle cx="792" cy="790" r="10" class="c0"/>
<circle cx="858" cy="500" r="10" class="c0"/>
<circle cx="1034" cy="1192" r="10" class="c0"/>
<circle cx="728" cy="1222" r="10" class="c0"/>
<circle cx="960" cy="600" r="10" class="c0"/>
<circle cx="934" cy="400" r="10" class="c0"/>
<circle cx="724" cy="758" r="10" class="c0"/>
<circle cx="732" cy="940" r="10" class="c0"/>
<circle cx="714" cy="1236" r="10" class="c0"/>
<circle cx="900" cy="316" r="10" class="c0"/>
<circle cx="724" cy="1382" r="10" class="c0"/>
<circle cx="946" cy="430" r="10" class="c0"/>
<circle cx="1074" cy="1268" r="10" class="c0"/>
<circle cx="954" cy="874" r="10" class="c0"/>
<circle cx="850" cy="680" r="10" class="c0"/>
<circle cx="804" cy="502" r="10" class="c0"/>
<circle cx="1026" cy="1236" r="10" class="c0"/>
<circle cx="842" cy="950" r="10" class="c0"/>
<circle cx="906" cy="1018" r="10" class="c0"/>
<circle cx="642" cy="1238" r="10" class="c0"/>
<circle cx="870" cy="642" r="10" class="c0"/>
<circle cx="924" cy="712" r="10" class="c0"/>
<circle cx="800" cy="716" r="10" class="c0"/>
<circle cx="1042" cy="1076" r="10" class="c0"/>
<circle cx="874" cy="1224" r="10" class="c0"/>
<circle cx="716" cy="1408" r="10" class="c0"/>
<circle cx="832" cy="1248" r="10" class="c0"/>
<circle cx="920" cy="1220" r="10" class="c0"/>
<circle cx="864" cy="742" r="10" class="c0"/>
<circle cx="772" cy="576" r="10" class="c0"/>
<circle cx="874" cy="842" r="10" class="c0"/>
<circle cx="908" cy="458" r="10" class="c0"/>
<circle cx="732" cy="688" r="10" class="c0"/>
<circle cx="884" cy="718" r="10" class="c0"/>
<circle cx="980" cy="1242" r="10" class="c0"/>
<circle cx="898" cy="594" r="10" class="c0"/>
<circle cx="666" cy="1230" r="10" class="c0"/>
<circle cx="986" cy="1190" r="10" class="c0"/>
<circle cx="826" cy="574" r="10" class="c0"/>
<circle cx="796" cy="1218" r="10" class="c0"/>
<circle cx="1012" cy="1018" r="10" class="c0"/>
<circle cx="806" cy="692" r="10" class="c0"/>
<circle cx="758" cy="1048" r="10" class="c0"/>
<circle cx="966" cy="562" r="10" class="c0"/>
<circle cx="844" cy="1166" r="10" class="c0"/>
<circle cx="750" cy="1310" r="10" class="c0"/>
<circle cx="784" cy="1268" r="10" class="c0"/>
<circle cx="730" cy="996" r="10" class="c0"/>
<circle cx="688" cy="1066" r="10" class="c0"/>
<circle cx="1018" cy="1084" r="10" class="c0"/>
<circle cx="972" cy="1220" r="10" class="c0"/>
<circle cx="824" cy="968" r="10" class="c0"/>
<circle cx="828" cy="712" r="10" class="c0"/>
<circle cx="848" cy="1274" r="10" class="c0"/>
<circle cx="870" cy="412" r="10" class="c0"/>
<circle cx="952" cy="1204" r="10" class="c0"/>
<circle cx="938" cy="664" r="10" class="c0"/>
<circle cx="850" cy="572" r="10" class="c0"/>
<circle cx="752" cy="1088" r="10" class="c0"/>
<circle cx="1008" cy="1204" r="10" class="c0"/>
<circle cx="884" cy="1058" r="10" class="c0"/>
<circle cx="778" cy="724" r="10" class="c0"/>
<circle cx="744" cy="1372" r="10" class="c0"/>
<circle cx="790" cy="680" r="10" class="c0"/>
<circle cx="906" cy="562" r="10" class="c0"/>
<circle cx="938" cy="560" r="10" class="c0"/>
<circle cx="984" cy="1338" r="10" class="c0"/>
<circle cx="684" cy="1308" r="8" class="c0"/>
<circle cx="700" cy="1176" r="8" class="c0"/>
<circle cx="804" cy="594" r="8" class="c0"/>
<circle cx="856" cy="1308" r="8" class="c0"/>
<circle cx="858" cy="1020" r="8" class="c0"/>
<circle cx="924" cy="778" r="8" class="c0"/>
<circle cx="956" cy="340" r="8" class="c0"/>
<circle cx="976" cy="1066" r="8" class="c0"/>
<circle cx="732" cy="1196" r="8" class="c0"/>
<circle cx="884" cy="994" r="8" class="c0"/>
<circle cx="948" cy="916" r="8" class="c0"/>
<circle cx="1028" cy="1002" r="8" class="c0"/>
<circle cx="708" cy="1074" r="8" class="c0"/>
<circle cx="884" cy="672" r="8" class="c0"/>
<circle cx="750" cy="1404" r="8" class="c0"/>
<circle cx="896" cy="1256" r="8" class="c0"/>
<circle cx="806" cy="474" r="8" class="c0"/>
<circle cx="744" cy="628" r="8" class="c0"/>
<circle cx="740" cy="1030" r="8" class="c0"/>
<circle cx="774" cy="1300" r="8" class="c0"/>
<circle cx="944" cy="350" r="8" class="c0"/>
<circle cx="1022" cy="664" r="8" class="c0"/>
<circle cx="962" cy="1176" r="8" class="c0"/>
<circle cx="678" cy="1268" r="8" class="c0"/>
<circle cx="858" cy="778" r="8" class="c0"/>
<circle cx="1046" cy="1208" r="8" class="c0"/>
<circle cx="890" cy="1118" r="8" class="c0"/>
<circle cx="990" cy="1362" r="8" class="c0"/>
<circle cx="1036" cy="1166" r="8" class="c0"/>
<circle cx="922" cy="888" r="8" class="c0"/>
<circle cx="1062" cy="1092" r="8" class="c0"/>
<circle cx="918" cy="1174" r="8" class="c0"/>
<circle cx="1004" cy="896" r="8" class="c0"/>
<circle cx="982" cy="340" r="8" class="c0"/>
<circle cx="870" cy="806" r="8" class="c0"/>
<circle cx="660" cy="1178" r="8" class="c0"/>
<circle cx="918" cy="1248" r="8" class="c0"/>
<circle cx="792" cy="882" r="8" class="c0"/>
<circle cx="924" cy="816" r="8" class="c0"/>
<circle cx="938" cy="1030" r="8" class="c0"/>
<circle cx="876" cy="1134" r="8" class="c0"/>
<circle cx="922" cy="684" r="8" class="c0"/>
<circle cx="806" cy="820" r="8" class="c0"/>
<circle cx="992" cy="866" r="8" class="c0"/>
<circle cx="996" cy="1062" r="8" class="c0"/>
<circle cx="810" cy="642" r="8" class="c0"/>
<circle cx="784" cy="824" r="8" class="c0"/>
<circle cx="940" cy="1000" r="8" class="c0"/>
<circle cx="1094" cy="1154" r="8" class="c0"/>
<circle cx="740" cy="670" r="8" class="c0"/>
<circle cx="976" cy="1036" r="8" class="c0"/>
<circle cx="792" cy="1292" r="8" class="c0"/>
<circle cx="788" cy="460" r="8" class="c0"/>
<circle cx="1018" cy="1260" r="8" class="c0"/>
<circle cx="776" cy="988" r="8" class="c0"/>
<circle cx="1104" cy="1188" r="8" class="c0"/>
<circle cx="948" cy="316" r="8" class="c0"/>
<circle cx="988" cy="998" r="8" class="c0"/>
<circle cx="936" cy="452" r="8" class="c0"/>
<circle cx="950" cy="1238" r="8" class="c0"/>
<circle cx="1002" cy="1252" r="8" class="c0"/>
<circle cx="756" cy="1348" r="8" class="c0"/>
<circle cx="830" cy="1310" r="8" class="c0"/>
<circle cx="860" cy="598" r="8" class="c0"/>
<circle cx="718" cy="1178" r="8" class="c0"/>
<circle cx="914" cy="912" r="8" class="c0"/>
<circle cx="966" cy="1422" r="8" class="c0"/>
<circle cx="748" cy="1276" r="8" class="c0"/>
<circle cx="900" cy="928" r="8" class="c0"/>
<circle cx="928" cy="512" r="8" class="c0"/>
<circle cx="690" cy="1248" r="8" class="c0"/>
<circle cx="726" cy="1274" r="8" class="c0"/>
<circle cx="1074" cy="1114" r="8" class="c0"/>
<circle cx="1050" cy="1050" r="8" class="c0"/>
<circle cx="718" cy="1050" r="8" class="c0"/>
<circle cx="908" cy="998" r="8" class="c0"/>
<circle cx="740" cy="1424" r="8" class="c0"/>
<circle cx="926" cy="976" r="8" class="c0"/>
<circle cx="1010" cy="412" r="8" class="c0"/>
<circle cx="780" cy="1344" r="8" class="c0"/>
<circle cx="946" cy="944" r="8" class="c0"/>
<circle cx="954" cy="764" r="8" class="c0"/>
<circle cx="798" cy="1034" r="8" class="c0"/>
<circle cx="828" cy="1046" r="8" class="c0"/>
<circle cx="938" cy="1254" r="8" class="c0"/>
<circle cx="730" cy="1360" r="8" class="c0"/>
<circle cx="980" cy="1166" r="8" class="c0"/>
<circle cx="874" cy="1270" r="8" class="c0"/>
<circle cx="956" cy="398" r="8" class="c0"/>
<circle cx="940" cy="1058" r="8" class="c0"/>
<circle cx="846" cy="764" r="8" class="c0"/>
<circle cx="830" cy="378" r="8" class="c0"/>
<circle cx="1070" cy="1192" r="8" class="c0"/>
<circle cx="814" cy="1096" r="8" class="c0"/>
<circle cx="878" cy="506" r="8" class="c0"/>
<circle cx="822" cy="836" r="8" class="c0"/>
<circle cx="808" cy="540" r="8" class="c0"/>
<circle cx="812" cy="916" r="8" class="c0"/>
<circle cx="964" cy="1108" r="8" class="c0"/>
<circle cx="996" cy="1034" r="8" class="c0"/>
<circle cx="980" cy="1122" r="8" class="c0"/>
<circle cx="680" cy="1184" r="8" class="c0"/>
<circle cx="940" cy="830" r="8" class="c0"/>
<circle cx="830" cy="502" r="8" class="c0"/>
<circle cx="758" cy="1244" r="8" class="c0"/>
<circle cx="784" cy="1324" r="8" class="c0"/>
<circle cx="980" cy="1014" r="8" class="c0"/>
<circle cx="842" cy="542" r="8" class="c0"/>
<circle cx="848" cy="444" r="8" class="c0"/>
<circle cx="876" cy="574" r="8" class="c0"/>
<circle cx="922" cy="734" r="8" class="c0"/>
<circle cx="734" cy="1248" r="8" class="c0"/>
<circle cx="768" cy="1074" r="8" class="c0"/>
<circle cx="674" cy="1202" r="8" class="c0"/>
<circle cx="1072" cy="1148" r="8" class="c0"/>
<circle cx="824" cy="680" r="8" class="c0"/>
<circle cx="882" cy="1304" r="8" class="c0"/>
<circle cx="802" cy="1248" r="8" class="c0"/>
<circle cx="982" cy="1316" r="8" class="c0"/>
<circle cx="1006" cy="1282" r="8" class="c0"/>
<circle cx="988" cy="374" r="8" class="c0"/>
<circle cx="894" cy="692" r="8" class="c0"/>
<circle cx="974" cy="1296" r="8" class="c0"/>
<circle cx="780" cy="806" r="8" class="c0"/>
<circle cx="830" cy="1108" r="8" class="c0"/>
<circle cx="746" cy="810" r="8" class="c0"/>
<circle cx="796" cy="572" r="8" class="c0"/>
<circle cx="1112" cy="1216" r="8" class="c0"/>
<circle cx="888" cy="762" r="8" class="c0"/>
<circle cx="896" cy="946" r="8" class="c0"/>
<circle cx="866" cy="1288" r="8" class="c0"/>
<circle cx="1000" cy="1128" r="8" class="c0"/>
<circle cx="804" cy="1004" r="8" class="c0"/>
<circle cx="846" cy="408" r="8" class="c0"/>
<circle cx="854" cy="968" r="8" class="c0"/>
<circle cx="836" cy="1210" r="8" class="c0"/>
<circle cx="850" cy="894" r="8" class="c0"/>
<circle cx="906" cy="418" r="8" class="c0"/>
<circle cx="906" cy="1306" r="8" class="c0"/>
<circle cx="1086" cy="1136" r="8" class="c0"/>
<circle cx="802" cy="658" r="8" class="c0"/>
<circle cx="954" cy="540" r="8" class="c0"/>
<circle cx="852" cy="1246" r="8" class="c0"/>
<circle cx="744" cy="888" r="8" class="c0"/>
<circle cx="830" cy="924" r="8" class="c0"/>
<circle cx="790" cy="1174" r="8" class="c0"/>
<circle cx="788" cy="1094" r="8" class="c0"/>
<circle cx="730" cy="1294" r="8" class="c0"/>
<circle cx="796" cy="1146" r="8" class="c0"/>
<circle cx="1022" cy="644" r="8" class="c0"/>
<circle cx="840" cy="642" r="8" class="c0"/>
<circle cx="770" cy="952" r="8" class="c0"/>
<circle cx="884" cy="432" r="8" class="c0"/>
<circle cx="620" cy="1216" r="8" class="c0"/>
<circle cx="936" cy="746" r="8" class="c0"/>
<circle cx="814" cy="800" r="8" class="c0"/>
<circle cx="698" cy="1100" r="8" class="c0"/>
<circle cx="866" cy="668" r="8" class="c0"/>
<circle cx="918" cy="610" r="8" class="c0"/>
<circle cx="868" cy="1324" r="8" class="c0"/>
<circle cx="718" cy="1256" r="8" class="c0"/>
<circle cx="976" cy="846" r="8" class="c0"/>
<circle cx="860" cy="338" r="8" class="c0"/>
<circle cx="828" cy="1156" r="8" class="c0"/>
<circle cx="794" cy="762" r="8" class="c0"/>
<circle cx="760" cy="550" r="8" class="c0"/>
<circle cx="996" cy="1294" r="8" class="c0"/>
<circle cx="866" cy="696" r="8" class="c0"/>
<circle cx="902" cy="1138" r="8" class="c0"/>
<circle cx="978" cy="364" r="8" class="c0"/>
<circle cx="854" cy="424" r="8" class="c0"/>
<circle cx="798" cy="440" r="8" class="c0"/>
<circle cx="1016" cy="1056" r="8" class="c0"/>
<circle cx="902" cy="818" r="8" class="c0"/>
<circle cx="1054" cy="1152" r="8" class="c0"/>
<circle cx="864" cy="1152" r="8" class="c0"/>
<circle cx="882" cy="364" r="8" class="c0"/>
<circle cx="768" cy="1102" r="8" class="c0"/>
<circle cx="798" cy="960" r="8" class="c0"/>
<circle cx="856" cy="834" r="8" class="c0"/>
<circle cx="756" cy="1020" r="8" class="c0"/>
<circle cx="806" cy="846" r="8" class="c0"/>
<circle cx="1036" cy="1098" r="8" class="c0"/>
<circle cx="888" cy="808" r="8" class="c0"/>
<circle cx="946" cy="1092" r="8" class="c0"/>
<circle cx="822" cy="660" r="8" class="c0"/>
<circle cx="760" cy="1286" r="8" class="c0"/>
<circle cx="874" cy="392" r="8" class="c0"/>
<circle cx="1098" cy="1236" r="8" class="c0"/>
<circle cx="780" cy="968" r="8" class="c0"/>
<circle cx="914" cy="754" r="8" class="c0"/>
<circle cx="780" cy="556" r="8" class="c0"/>
<circle cx="900" cy="492" r="8" class="c0"/>
<circle cx="766" cy="1260" r="8" class="c0"/>
<circle cx="906" cy="1232" r="8" class="c0"/>
<circle cx="758" cy="788" r="8" class="c0"/>
<circle cx="826" cy="1220" r="8" class="c0"/>
<circle cx="896" cy="838" r="8" class="c0"/>
<circle cx="748" cy="962" r="8" class="c0"/>
<circle cx="964" cy="1356" r="8" class="c0"/>
<circle cx="864" cy="1086" r="8" class="c0"/>
<circle cx="814" cy="776" r="8" class="c0"/>
<circle cx="678" cy="1124" r="8" class="c0"/>
<circle cx="854" cy="1124" r="8" class="c0"/>
<circle cx="938" cy="798" r="8" class="c0"/>
<circle cx="902" cy="900" r="8" class="c0"/>
<circle cx="866" cy="982" r="8" class="c0"/>
<circle cx="854" cy="478" r="8" class="c0"/>
<circle cx="958" cy="894" r="8" class="c0"/>
<circle cx="934" cy="866" r="8" class="c0"/>
<circle cx="986" cy="558" r="8" class="c0"/>
<circle cx="766" cy="1386" r="8" class="c0"/>
<circle cx="984" cy="580" r="8" class="c0"/>
<circle cx="872" cy="1170" r="8" class="c0"/>
<circle cx="970" cy="1396" r="8" class="c0"/>
<circle cx="846" cy="1324" r="8" class="c0"/>
<circle cx="852" cy="528" r="8" class="c0"/>
<circle cx="760" cy="708" r="8" class="c0"/>
<circle cx="820" cy="946" r="8" class="c0"/>
<circle cx="730" cy="1064" r="8" class="c0"/>
<circle cx="1064" cy="1126" r="8" class="c0"/>
<circle cx="926" cy="534" r="8" class="c0"/>
<circle cx="846" cy="814" r="8" class="c0"/>
<circle cx="906" cy="1276" r="8" class="c0"/>
<circle cx="738" cy="1338" r="8" class="c0"/>
<circle cx="766" cy="846" r="8" class="c0"/>
<circle cx="936" cy="1082" r="8" class="c0"/>
<circle cx="760" cy="676" r="8" class="c0"/>
<circle cx="828" cy="1292" r="8" class="c0"/>
<circle cx="926" cy="432" r="8" class="c0"/>
<circle cx="700" cy="1042" r="8" class="c0"/>
<circle cx="1088" cy="1172" r="8" class="c0"/>
<circle cx="892" cy="742" r="8" class="c0"/>
<circle cx="796" cy="1112" r="8" class="c0"/>
<circle cx="748" cy="1232" r="8" class="c0"/>
<circle cx="774" cy="1128" r="8" class="c0"/>
<circle cx="780" cy="930" r="8" class="c0"/>
<circle cx="964" cy="1280" r="8" class="c0"/>
<circle cx="948" cy="1040" r="8" class="c0"/>
<circle cx="692" cy="1280" r="8" class="c0"/>
<circle cx="770" cy="1362" r="8" class="c0"/>
<circle cx="844" cy="462" r="8" class="c0"/>
<circle cx="860" cy="796" r="8" class="c0"/>
<circle cx="634" cy="1160" r="8" class="c0"/>
<circle cx="958" cy="1406" r="8" class="c0"/>
<circle cx="830" cy="472" r="8" class="c0"/>
<circle cx="948" cy="462" r="8" class="c0"/>
<circle cx="1018" cy="940" r="8" class="c0"/>
<circle cx="836" cy="1136" r="8" class="c0"/>
<circle cx="876" cy="1018" r="8" class="c0"/>
<circle cx="952" cy="970" r="8" class="c0"/>
<circle cx="854" cy="1222" r="8" class="c0"/>
<circle cx="910" cy="724" r="8" class="c0"/>
<circle cx="886" cy="560" r="8" class="c0"/>
<circle cx="756" cy="610" r="8" class="c0"/>
<circle cx="984" cy="1430" r="8" class="c0"/>
<circle cx="976" cy="446" r="8" class="c0"/>
<circle cx="1002" cy="964" r="8" class="c0"/>
<circle cx="752" cy="572" r="8" class="c0"/>
<circle cx="886" cy="968" r="8" class="c0"/>
<circle cx="924" cy="1270" r="8" class="c0"/>
<circle cx="828" cy="440" r="8" class="c0"/>
<circle cx="814" cy="1056" r="8" class="c0"/>
<circle cx="816" cy="486" r="8" class="c0"/>
<circle cx="772" cy="698" r="8" class="c0"/>
<circle cx="996" cy="1222" r="8" class="c0"/>
<circle cx="936" cy="1192" r="8" class="c0"/>
<circle cx="1006" cy="1234" r="8" class="c0"/>
<circle cx="942" cy="692" r="8" class="c0"/>
<circle cx="990" cy="978" r="8" class="c0"/>
<circle cx="836" cy="590" r="8" class="c0"/>
<circle cx="786" cy="1056" r="8" class="c0"/>
<circle cx="916" cy="1288" r="8" class="c0"/>
<circle cx="1014" cy="720" r="8" class="c0"/>
<circle cx="816" cy="606" r="8" class="c0"/>
<circle cx="748" cy="778" r="8" class="c0"/>
<circle cx="968" cy="328" r="8" class="c0"/>
<circle cx="896" cy="442" r="8" class="c0"/>
<circle cx="784" cy="1230" r="8" class="c0"/>
<circle cx="778" cy="778" r="8" class="c0"/>
<circle cx="812" cy="1206" r="8" class="c0"/>
<circle cx="914" cy="832" r="8" class="c0"/>
<circle cx="892" cy="642" r="8" class="c0"/>
<circle cx="874" cy="348" r="8" class="c0"/>
<circle cx="910" cy="1090" r="8" class="c0"/>
<circle cx="872" cy="1102" r="8" class="c0"/>
<circle cx="960" cy="954" r="8" class="c0"/>
<circle cx="842" cy="878" r="8" class="c0"/>
<circle cx="734" cy="640" r="8" class="c0"/>
<circle cx="890" cy="404" r="8" class="c0"/>
<circle cx="726" cy="1084" r="8" class="c0"/>
<circle cx="794" cy="912" r="8" class="c0"/>
<circle cx="646" cy="1218" r="8" class="c0"/>
<circle cx="1000" cy="946" r="8" class="c0"/>
<circle cx="1034" cy="976" r="8" class="c0"/>
<circle cx="882" cy="936" r="8" class="c0"/>
<circle cx="948" cy="1420" r="8" class="c0"/>
<circle cx="952" cy="1300" r="8" class="c0"/>
<circle cx="962" cy="1128" r="8" class="c0"/>
<circle cx="784" cy="1024" r="8" class="c0"/>
<circle cx="894" cy="1320" r="8" class="c0"/>
<circle cx="734" cy="1116" r="8" class="c0"/>
<circle cx="668" cy="1254" r="8" class="c0"/>
<circle cx="806" cy="1162" r="8" class="c0"/>
<circle cx="1008" cy="1166" r="8" class="c0"/>
<circle cx="756" cy="870" r="8" class="c0"/>
<circle cx="952" cy="1150" r="8" class="c0"/>
<circle cx="818" cy="1146" r="8" class="c0"/>
<circle cx="822" cy="1076" r="8" class="c0"/>
<circle cx="986" cy="644" r="8" class="c0"/>
<circle cx="842" cy="346" r="8" class="c0"/>
<circle cx="966" cy="928" r="8" class="c0"/>
<circle cx="952" cy="818" r="8" class="c0"/>
<circle cx="906" cy="770" r="8" class="c0"/>
<circle cx="938" cy="1124" r="8" class="c0"/>
<circle cx="1026" cy="960" r="8" class="c0"/>
<circle cx="962" cy="1254" r="8" class="c0"/>
<circle cx="654" cy="1122" r="8" class="c0"/>
<circle cx="848" cy="702" r="8" class="c0"/>
<circle cx="982" cy="1102" r="8" class="c0"/>
<circle cx="902" cy="978" r="8" class="c0"/>
<circle cx="742" cy="916" r="8" class="c0"/>
<circle cx="846" cy="1010" r="8" class="c0"/>
<circle cx="826" cy="632" r="8" class="c0"/>
<circle cx="956" cy="848" r="8" class="c0"/>
<circle cx="736" cy="1138" r="8" class="c0"/>
<circle cx="850" cy="932" r="8" class="c0"/>
<circle cx="880" cy="784" r="8" class="c0"/>
<circle cx="888" cy="1148" r="8" class="c0"/>
<circle cx="992" cy="744" r="8" class="c0"/>
<circle cx="976" cy="390" r="8" class="c0"/>
<circle cx="700" cy="1262" r="8" class="c0"/>
<circle cx="1028" cy="1216" r="8" class="c0"/>
<circle cx="836" cy="398" r="8" class="c0"/>
<circle cx="996" cy="1420" r="8" class="c0"/>
<circle cx="1016" cy="1112" r="8" class="c0"/>
<circle cx="902" cy="1158" r="8" class="c0"/>
<circle cx="758" cy="730" r="8" class="c0"/>
<circle cx="1004" cy="702" r="8" class="c0"/>
<circle cx="670" cy="1168" r="8" class="c0"/>
<circle cx="826" cy="862" r="8" class="c0"/>
<circle cx="766" cy="1228" r="8" class="c0"/>
<circle cx="856" cy="1178" r="8" class="c0"/>
<circle cx="890" cy="1038" r="8" class="c0"/>
<circle cx="702" cy="1320" r="8" class="c0"/>
<circle cx="994" cy="1386" r="8" class="c0"/>
<circle cx="998" cy="430" r="8" class="c0"/>
<circle cx="890" cy="914" r="8" class="c0"/>
<circle cx="998" cy="1176" r="8" class="c0"/>
<circle cx="1056" cy="1170" r="8" class="c0"/>
<circle cx="882" cy="868" r="8" class="c0"/>
<circle cx="786" cy="596" r="8" class="c0"/>
<circle cx="750" cy="1068" r="8" class="c0"/>
<circle cx="776" cy="1284" r="6" class="c0"/>
<circle cx="766" cy="1422" r="6" class="c0"/>
<circle cx="874" cy="316" r="6" class="c0"/>
<circle cx="938" cy="896" r="6" class="c0"/>
<circle cx="658" cy="1280" r="6" class="c0"/>
<circle cx="872" cy="1246" r="6" class="c0"/>
<circle cx="814" cy="1036" r="6" class="c0"/>
<circle cx="978" cy="814" r="6" class="c0"/>
<circle cx="906" cy="876" r="6" class="c0"/>
<circle cx="1046" cy="1110" r="6" class="c0"/>
<circle cx="882" cy="522" r="6" class="c0"/>
<circle cx="998" cy="1156" r="6" class="c0"/>
<circle cx="1064" cy="1208" r="6" class="c0"/>
<circle cx="938" cy="722" r="6" class="c0"/>
<circle cx="856" cy="654" r="6" class="c0"/>
<circle cx="840" cy="660" r="6" class="c0"/>
<circle cx="890" cy="1238" r="6" class="c0"/>
<circle cx="978" cy="736" r="6" class="c0"/>
<circle cx="800" cy="554" r="6" class="c0"/>
<circle cx="710" cy="1118" r="6" class="c0"/>
<circle cx="740" cy="1054" r="6" class="c0"/>
<circle cx="802" cy="1324" r="6" class="c0"/>
<circle cx="930" cy="908" r="6" class="c0"/>
<circle cx="860" cy="552" r="6" class="c0"/>
<circle cx="766" cy="818" r="6" class="c0"/>
<circle cx="756" cy="1146" r="6" class="c0"/>
<circle cx="946" cy="526" r="6" class="c0"/>
<circle cx="746" cy="830" r="6" class="c0"/>
<circle cx="846" cy="916" r="6" class="c0"/>
<circle cx="968" cy="1050" r="6" class="c0"/>
<circle cx="1052" cy="1226" r="6" class="c0"/>
<circle cx="764" cy="970" r="6" class="c0"/>
<circle cx="762" cy="1330" r="6" class="c0"/>
<circle cx="856" cy="1100" r="6" class="c0"/>
<circle cx="968" cy="1080" r="6" class="c0"/>
<circle cx="966" cy="1194" r="6" class="c0"/>
<circle cx="792" cy="1190" r="6" class="c0"/>
<circle cx="868" cy="516" r="6" class="c0"/>
<circle cx="916" cy="586" r="6" class="c0"/>
<circle cx="758" cy="530" r="6" class="c0"/>
<circle cx="960" cy="448" r="6" class="c0"/>
<circle cx="744" cy="1260" r="6" class="c0"/>
<circle cx="932" cy="646" r="6" class="c0"/>
<circle cx="922" cy="800" r="6" class="c0"/>
<circle cx="892" cy="616" r="6" class="c0"/>
<circle cx="732" cy="824" r="6" class="c0"/>
<circle cx="738" cy="740" r="6" class="c0"/>
<circle cx="1062" cy="1070" r="6" class="c0"/>
<circle cx="982" cy="884" r="6" class="c0"/>
<circle cx="1026" cy="1032" r="6" class="c0"/>
<circle cx="986" cy="790" r="6" class="c0"/>
<circle cx="936" cy="964" r="6" class="c0"/>
<circle cx="926" cy="1302" r="6" class="c0"/>
<circle cx="832" cy="608" r="6" class="c0"/>
<circle cx="912" cy="476" r="6" class="c0"/>
<circle cx="856" cy="392" r="6" class="c0"/>
<circle cx="732" cy="656" r="6" class="c0"/>
<circle cx="714" cy="1340" r="6" class="c0"/>
<circle cx="952" cy="1268" r="6" class="c0"/>
<circle cx="924" cy="992" r="6" class="c0"/>
<circle cx="784" cy="1078" r="6" class="c0"/>
<circle cx="820" cy="392" r="6" class="c0"/>
<circle cx="1092" cy="1220" r="6" class="c0"/>
<circle cx="656" cy="1196" r="6" class="c0"/>
<circle cx="878" cy="752" r="6" class="c0"/>
<circle cx="950" cy="1344" r="6" class="c0"/>
<circle cx="770" cy="1036" r="6" class="c0"/>
<circle cx="916" cy="654" r="6" class="c0"/>
<circle cx="646" cy="1262" r="6" class="c0"/>
<circle cx="1028" cy="1272" r="6" class="c0"/>
<circle cx="868" cy="822" r="6" class="c0"/>
<circle cx="652" cy="1164" r="6" class="c0"/>
<circle cx="1034" cy="676" r="6" class="c0"/>
<circle cx="1038" cy="1146" r="6" class="c0"/>
<circle cx="804" cy="976" r="6" class="c0"/>
<circle cx="952" cy="572" r="6" class="c0"/>
<circle cx="786" cy="1000" r="6" class="c0"/>
<circle cx="818" cy="1326" r="6" class="c0"/>
<circle cx="908" cy="1122" r="6" class="c0"/>
<circle cx="724" cy="668" r="6" class="c0"/>
<circle cx="808" cy="894" r="6" class="c0"/>
<circle cx="780" cy="664" r="6" class="c0"/>
<circle cx="718" cy="954" r="6" class="c0"/>
<circle cx="804" cy="864" r="6" class="c0"/>
<circle cx="788" cy="700" r="6" class="c0"/>
<circle cx="940" cy="1222" r="6" class="c0"/>
<circle cx="950" cy="734" r="6" class="c0"/>
<circle cx="730" cy="972" r="6" class="c0"/>
<circle cx="922" cy="308" r="6" class="c0"/>
<circle cx="816" cy="876" r="6" class="c0"/>
<circle cx="794" cy="986" r="6" class="c0"/>
<circle cx="820" cy="458" r="6" class="c0"/>
<circle cx="892" cy="1222" r="6" class="c0"/>
<circle cx="1052" cy="1264" r="6" class="c0"/>
<circle cx="744" cy="1212" r="6" class="c0"/>
<circle cx="970" cy="862" r="6" class="c0"/>
<circle cx="826" cy="1124" r="6" class="c0"/>
<circle cx="908" cy="704" r="6" class="c0"/>
<circle cx="860" cy="998" r="6" class="c0"/>
<circle cx="946" cy="712" r="6" class="c0"/>
<circle cx="644" cy="1136" r="6" class="c0"/>
<circle cx="824" cy="1004" r="6" class="c0"/>
<circle cx="968" cy="584" r="6" class="c0"/>
<circle cx="940" cy="1312" r="6" class="c0"/>
<circle cx="836" cy="422" r="6" class="c0"/>
<circle cx="920" cy="1196" r="6" class="c0"/>
<circle cx="732" cy="1398" r="6" class="c0"/>
<circle cx="1102" cy="1206" r="6" class="c0"/>
<circle cx="818" cy="726" r="6" class="c0"/>
<circle cx="842" cy="516" r="6" class="c0"/>
<circle cx="832" cy="554" r="6" class="c0"/>
<circle cx="786" cy="1156" r="6" class="c0"/>
<circle cx="750" cy="1108" r="6" class="c0"/>
<circle cx="1006" cy="1046" r="6" class="c0"/>
<circle cx="804" cy="522" r="6" class="c0"/>
<circle cx="786" cy="1250" r="6" class="c0"/>
<circle cx="688" cy="1086" r="6" class="c0"/>
<circle cx="922" cy="1156" r="6" class="c0"/>
<circle cx="950" cy="296" r="6" class="c0"/>
<circle cx="914" cy="500" r="6" class="c0"/>
<circle cx="936" cy="766" r="6" class="c0"/>
<circle cx="824" cy="818" r="6" class="c0"/>
<circle cx="788" cy="944" r="6" class="c0"/>
<circle cx="772" cy="1146" r="6" class="c0"/>
<circle cx="726" cy="922" r="6" class="c0"/>
<circle cx="988" cy="1048" r="6" class="c0"/>
<circle cx="942" cy="366" r="6" class="c0"/>
<circle cx="924" cy="1012" r="6" class="c0"/>
<circle cx="868" cy="434" r="6" class="c0"/>
<circle cx="846" cy="1148" r="6" class="c0"/>
<circle cx="940" cy="496" r="6" class="c0"/>
<circle cx="906" cy="336" r="6" class="c0"/>
<circle cx="952" cy="482" r="6" class="c0"/>
<circle cx="894" cy="508" r="6" class="c0"/>
<circle cx="942" cy="982" r="6" class="c0"/>
<circle cx="1004" cy="996" r="6" class="c0"/>
<circle cx="924" cy="414" r="6" class="c0"/>
<circle cx="734" cy="1180" r="6" class="c0"/>
<circle cx="884" cy="1210" r="6" class="c0"/>
<circle cx="814" cy="426" r="6" class="c0"/>
<circle cx="864" cy="1260" r="6" class="c0"/>
<circle cx="812" cy="988" r="6" class="c0"/>
<circle cx="792" cy="544" r="6" class="c0"/>
<circle cx="718" cy="1204" r="6" class="c0"/>
<circle cx="900" cy="1106" r="6" class="c0"/>
<circle cx="842" cy="1034" r="6" class="c0"/>
<circle cx="830" cy="1062" r="6" class="c0"/>
<circle cx="790" cy="844" r="6" class="c0"/>
<circle cx="910" cy="400" r="6" class="c0"/>
<circle cx="742" cy="602" r="6" class="c0"/>
<circle cx="844" cy="490" r="6" class="c0"/>
<circle cx="948" cy="1114" r="6" class="c0"/>
<circle cx="846" cy="606" r="6" class="c0"/>
<circle cx="966" cy="352" r="6" class="c0"/>
<circle cx="768" cy="518" r="6" class="c0"/>
<circle cx="970" cy="728" r="6" class="c0"/>
<circle cx="882" cy="824" r="6" class="c0"/>
<circle cx="896" cy="470" r="6" class="c0"/>
<circle cx="698" cy="1128" r="6" class="c0"/>
<circle cx="1044" cy="1234" r="6" class="c0"/>
<circle cx="1016" cy="1182" r="6" class="c0"/>
<circle cx="840" cy="744" r="6" class="c0"/>
<circle cx="932" cy="850" r="6" class="c0"/>
<circle cx="872" cy="770" r="6" class="c0"/>
<circle cx="996" cy="404" r="6" class="c0"/>
<circle cx="630" cy="1226" r="6" class="c0"/>
<circle cx="932" cy="1208" r="6" class="c0"/>
<circle cx="844" cy="1232" r="6" class="c0"/>
<circle cx="816" cy="1236" r="6" class="c0"/>
<circle cx="802" cy="420" r="6" class="c0"/>
<circle cx="806" cy="456" r="6" class="c0"/>
<circle cx="708" cy="1194" r="6" class="c0"/>
<circle cx="910" cy="544" r="6" class="c0"/>
<circle cx="886" cy="304" r="6" class="c0"/>
<circle cx="670" cy="1086" r="6" class="c0"/>
<circle cx="744" cy="1006" r="6" class="c0"/>
<circle cx="1016" cy="428" r="6" class="c0"/>
<circle cx="836" cy="622" r="6" class="c0"/>
<circle cx="896" cy="548" r="6" class="c0"/>
<circle cx="944" cy="778" r="6" class="c0"/>
<circle cx="942" cy="1392" r="6" class="c0"/>
<circle cx="996" cy="1112" r="6" class="c0"/>
<circle cx="922" cy="550" r="6" class="c0"/>
<circle cx="978" cy="1380" r="6" class="c0"/>
<circle cx="738" cy="1098" r="6" class="c0"/>
<circle cx="680" cy="1220" r="6" class="c0"/>
<circle cx="1056" cy="1034" r="6" class="c0"/>
<circle cx="784" cy="902" r="6" class="c0"/>
<circle cx="880" cy="626" r="6" class="c0"/>
<circle cx="1006" cy="1100" r="6" class="c0"/>
<circle cx="664" cy="1212" r="6" class="c0"/>
<circle cx="1032" cy="1048" r="6" class="c0"/>
<circle cx="1032" cy="654" r="6" class="c0"/>
<circle cx="716" cy="1432" r="6" class="c0"/>
<circle cx="1104" cy="1170" r="6" class="c0"/>
<circle cx="922" cy="572" r="6" class="c0"/>
<circle cx="974" cy="1366" r="6" class="c0"/>
<circle cx="942" cy="332" r="6" class="c0"/>
<circle cx="826" cy="1198" r="6" class="c0"/>
<circle cx="938" cy="380" r="6" class="c0"/>
<circle cx="690" cy="1140" r="6" class="c0"/>
<circle cx="1038" cy="992" r="6" class="c0"/>
<circle cx="754" cy="900" r="6" class="c0"/>
<circle cx="794" cy="1334" r="6" class="c0"/>
<circle cx="1004" cy="574" r="6" class="c0"/>
<circle cx="850" cy="1292" r="6" class="c0"/>
<circle cx="902" cy="1178" r="6" class="c0"/>
<circle cx="718" cy="1126" r="6" class="c0"/>
<circle cx="1002" cy="878" r="6" class="c0"/>
<circle cx="928" cy="1236" r="6" class="c0"/>
<circle cx="1026" cy="420" r="6" class="c0"/>
<circle cx="834" cy="360" r="6" class="c0"/>
<circle cx="930" cy="1048" r="6" class="c0"/>
<circle cx="806" cy="1020" r="6" class="c0"/>
<circle cx="628" cy="1176" r="6" class="c0"/>
<circle cx="944" cy="1356" r="6" class="c0"/>
<circle cx="1002" cy="734" r="6" class="c0"/>
<circle cx="944" cy="510" r="6" class="c0"/>
<circle cx="726" cy="706" r="6" class="c0"/>
<circle cx="836" cy="692" r="6" class="c0"/>
<circle cx="866" cy="716" r="6" class="c0"/>
<circle cx="696" cy="1232" r="6" class="c0"/>
<circle cx="834" cy="826" r="6" class="c0"/>
<circle cx="796" cy="1312" r="6" class="c0"/>
<circle cx="672" cy="1286" r="6" class="c0"/>
<circle cx="750" cy="686" r="6" class="c0"/>
<circle cx="816" cy="556" r="6" class="c0"/>
<circle cx="804" cy="752" r="6" class="c0"/>
<circle cx="722" cy="1162" r="6" class="c0"/>
<circle cx="730" cy="1040" r="6" class="c0"/>
<circle cx="616" cy="1198" r="6" class="c0"/>
<circle cx="830" cy="732" r="6" class="c0"/>
<circle cx="1040" cy="1040" r="6" class="c0"/>
<circle cx="988" cy="918" r="6" class="c0"/>
<circle cx="994" cy="760" r="6" class="c0"/>
<circle cx="868" cy="928" r="6" class="c0"/>
<circle cx="890" cy="1274" r="6" class="c0"/>
<circle cx="778" cy="1184" r="6" class="c0"/>
<circle cx="688" cy="1110" r="6" class="c0"/>
<circle cx="1062" cy="1254" r="6" class="c0"/>
<circle cx="622" cy="1240" r="6" class="c0"/>
<circle cx="866" cy="882" r="6" class="c0"/>
<circle cx="984" cy="1208" r="6" class="c0"/>
<circle cx="776" cy="606" r="6" class="c0"/>
<circle cx="1050" cy="1134" r="6" class="c0"/>
<circle cx="810" cy="672" r="6" class="c0"/>
<circle cx="718" cy="788" r="6" class="c0"/>
<circle cx="736" cy="1014" r="6" class="c0"/>
<circle cx="630" cy="1250" r="6" class="c0"/>
<circle cx="1094" cy="1276" r="6" class="c0"/>
<circle cx="936" cy="606" r="6" class="c0"/>
<circle cx="726" cy="776" r="6" class="c0"/>
<circle cx="810" cy="734" r="6" class="c0"/>
<circle cx="862" cy="760" r="6" class="c0"/>
<circle cx="986" cy="836" r="6" class="c0"/>
<circle cx="1072" cy="1166" r="6" class="c0"/>
<circle cx="992" cy="848" r="6" class="c0"/>
<circle cx="794" cy="1014" r="6" class="c0"/>
<circle cx="756" cy="1218" r="6" class="c0"/>
<circle cx="1046" cy="1180" r="6" class="c0"/>
<circle cx="870" cy="1118" r="6" class="c0"/>
<circle cx="770" cy="504" r="6" class="c0"/>
<circle cx="808" cy="330" r="6" class="c0"/>
<circle cx="790" cy="1130" r="6" class="c0"/>
<circle cx="836" cy="908" r="6" class="c0"/>
<circle cx="758" cy="1432" r="6" class="c0"/>
<circle cx="888" cy="1166" r="6" class="c0"/>
<circle cx="1114" cy="1198" r="6" class="c0"/>
<circle cx="740" cy="1390" r="6" class="c0"/>
<circle cx="828" cy="1270" r="6" class="c0"/>
<circle cx="764" cy="804" r="6" class="c0"/>
<circle cx="872" cy="376" r="6" class="c0"/>
<circle cx="890" cy="1010" r="6" class="c0"/>
<circle cx="866" cy="564" r="6" class="c0"/>
<circle cx="796" cy="808" r="6" class="c0"/>
<circle cx="796" cy="530" r="6" class="c0"/>
<circle cx="1018" cy="1040" r="6" class="c0"/>
<circle cx="832" cy="1332" r="6" class="c0"/>
<circle cx="894" cy="574" r="6" class="c0"/>
<circle cx="770" cy="1316" r="6" class="c0"/>
<circle cx="994" cy="390" r="6" class="c0"/>
<circle cx="892" cy="354" r="6" class="c0"/>
<circle cx="1082" cy="1250" r="6" class="c0"/>
<circle cx="644" cy="1172" r="6" class="c0"/>
<circle cx="986" cy="690" r="6" class="c0"/>
<circle cx="848" cy="1108" r="6" class="c0"/>
<circle cx="872" cy="1072" r="6" class="c0"/>
<circle cx="876" cy="686" r="6" class="c0"/>
<circle cx="738" cy="768" r="6" class="c0"/>
<circle cx="752" cy="1202" r="6" class="c0"/>
<circle cx="770" cy="740" r="6" class="c0"/>
<circle cx="700" cy="1430" r="6" class="c0"/>
<circle cx="998" cy="1348" r="6" class="c0"/>
<circle cx="964" cy="1026" r="6" class="c0"/>
<circle cx="878" cy="590" r="6" class="c0"/>
<circle cx="1006" cy="1072" r="6" class="c0"/>
<circle cx="748" cy="1328" r="6" class="c0"/>
<circle cx="888" cy="852" r="6" class="c0"/>
<circle cx="934" cy="340" r="6" class="c0"/>
<circle cx="774" cy="1242" r="6" class="c0"/>
<circle cx="1028" cy="1066" r="6" class="c0"/>
<circle cx="922" cy="1026" r="6" class="c0"/>
<circle cx="1086" cy="1188" r="6" class="c0"/>
<circle cx="974" cy="876" r="6" class="c0"/>
<circle cx="820" cy="1260" r="6" class="c0"/>
<circle cx="880" cy="656" r="6" class="c0"/>
<circle cx="808" cy="1190" r="6" class="c0"/>
<circle cx="964" cy="1160" r="6" class="c0"/>
<circle cx="864" cy="468" r="6" class="c0"/>
<circle cx="814" cy="622" r="6" class="c0"/>
<circle cx="884" cy="1330" r="6" class="c0"/>
<circle cx="1016" cy="610" r="6" class="c0"/>
</svg>
