<?xml version="1.0" encoding="utf-8"?>
<svg xmlns="http://www.w3.org/2000/svg"
     xmlns:xlink="http://www.w3.org/1999/xlink" width="1920" height="1440" >

            <defs>
            <style type="text/css"><![CDATA[
circle {stroke: none;}
.c0 {fill: #FFFFFF;}
]]></style>
            </defs>
<rect x="0" y="0" width="1920" height="1440" fill="black"/>
<circle cx="1040" cy="1262" r="14" class="c0"/>
<circle cx="862" cy="1050" r="14" class="c0"/>
<circle cx="860" cy="672" r="12" class="c0"/>
<circle cx="1028" cy="1010" r="12" class="c0"/>
<circle cx="940" cy="1182" r="12" class="c0"/>
<circle cx="874" cy="580" r="12" class="c0"/>
<circle cx="734" cy="662" r="12" class="c0"/>
<circle cx="1004" cy="720" r="12" class="c0"/>
<circle cx="908" cy="992" r="12" class="c0"/>
<circle cx="606" cy="1226" r="12" class="c0"/>
<circle cx="882" cy="618" r="12" class="c0"/>
<circle cx="764" cy="798" r="12" class="c0"/>
<circle cx="878" cy="974" r="12" class="c0"/>
<circle cx="780" cy="698" r="12" class="c0"/>
<circle cx="930" cy="324" r="12" class="c0"/>
<circle cx="790" cy="894" r="12" class="c0"/>
<circle cx="1002" cy="1024" r="12" class="c0"/>
<circle cx="818" cy="1216" r="12" class="c0"/>
<circle cx="782" cy="1164" r="12" class="c0"/>
<circle cx="704" cy="1364" r="12" class="c0"/>
<circle cx="856" cy="526" r="12" class="c0"/>
<circle cx="720" cy="1072" r="12" class="c0"/>
<circle cx="962" cy="1326" r="12" class="c0"/>
<circle cx="990" cy="1376" r="12" class="c0"/>
<circle cx="986" cy="404" r="12" class="c0"/>
<circle cx="910" cy="648" r="12" class="c0"/>
<circle cx="822" cy="1320" r="12" class="c0"/>
<circle cx="684" cy="1100" r="12" class="c0"/>
<circle cx="782" cy="1370" r="12" class="c0"/>
<circle cx="664" cy="1286" r="12" class="c0"/>
<circle cx="826" cy="494" r="12" class="c0"/>
<circle cx="662" cy="1198" r="12" class="c0"/>
<circle cx="822" cy="1064" r="12" class="c0"/>
<circle cx="952" cy="590" r="12" class="c0"/>
<circle cx="948" cy="854" r="12" class="c0"/>
<circle cx="792" cy="662" r="12" class="c0"/>
<circle cx="784" cy="1042" r="12" class="c0"/>
<circle cx="950" cy="1276" r="12" class="c0"/>
<circle cx="906" cy="1132" r="12" class="c0"/>
<circle cx="800" cy="810" r="12" class="c0"/>
<circle cx="638" cy="1212" r="12" class="c0"/>
<circle cx="818" cy="1162" r="12" class="c0"/>
<circle cx="676" cy="686" r="12" class="c0"/>
<circle cx="744" cy="988" r="12" class="c0"/>
<circle cx="790" cy="998" r="12" class="c0"/>
<circle cx="920" cy="510" r="12" class="c0"/>
<circle cx="1000" cy="962" r="12" class="c0"/>
<circle cx="832" cy="1248" r="12" class="c0"/>
<circle cx="754" cy="1354" r="12" class="c0"/>
<circle cx="962" cy="936" r="12" class="c0"/>
<circle cx="658" cy="1132" r="12" class="c0"/>
<circle cx="1004" cy="990" r="12" class="c0"/>
<circle cx="828" cy="1360" r="12" class="c0"/>
<circle cx="746" cy="1202" r="12" class="c0"/>
<circle cx="906" cy="1226" r="12" class="c0"/>
<circle cx="882" cy="726" r="12" class="c0"/>
<circle cx="1016" cy="940" r="12" class="c0"/>
<circle cx="920" cy="938" r="12" class="c0"/>
<circle cx="844" cy="686" r="12" class="c0"/>
<circle cx="954" cy="382" r="12" class="c0"/>
<circle cx="870" cy="494" r="12" class="c0"/>
<circle cx="942" cy="680" r="12" class="c0"/>
<circle cx="746" cy="1124" r="12" class="c0"/>
<circle cx="914" cy="376" r="12" class="c0"/>
<circle cx="808" cy="468" r="12" class="c0"/>
<circle cx="800" cy="434" r="12" class="c0"/>
<circle cx="934" cy="1322" r="10" class="c0"/>
<circle cx="620" cy="1200" r="10" class="c0"/>
<circle cx="700" cy="1214" r="10" class="c0"/>
<circle cx="804" cy="1120" r="10" class="c0"/>
<circle cx="986" cy="1082" r="10" class="c0"/>
<circle cx="954" cy="1208" r="10" class="c0"/>
<circle cx="924" cy="1060" r="10" class="c0"/>
<circle cx="980" cy="434" r="10" class="c0"/>
<circle cx="830" cy="446" r="10" class="c0"/>
<circle cx="978" cy="842" r="10" class="c0"/>
<circle cx="954" cy="1364" r="10" class="c0"/>
<circle cx="630" cy="1320" r="10" class="c0"/>
<circle cx="810" cy="1042" r="10" class="c0"/>
<circle cx="772" cy="1018" r="10" class="c0"/>
<circle cx="1010" cy="1308" r="10" class="c0"/>
<circle cx="1030" cy="1162" r="10" class="c0"/>
<circle cx="842" cy="1018" r="10" class="c0"/>
<circle cx="836" cy="966" r="10" class="c0"/>
<circle cx="818" cy="1018" r="10" class="c0"/>
<circle cx="664" cy="1332" r="10" class="c0"/>
<circle cx="774" cy="572" r="10" class="c0"/>
<circle cx="716" cy="688" r="10" class="c0"/>
<circle cx="906" cy="730" r="10" class="c0"/>
<circle cx="998" cy="1266" r="10" class="c0"/>
<circle cx="920" cy="1276" r="10" class="c0"/>
<circle cx="840" cy="568" r="10" class="c0"/>
<circle cx="770" cy="1284" r="10" class="c0"/>
<circle cx="778" cy="956" r="10" class="c0"/>
<circle cx="910" cy="882" r="10" class="c0"/>
<circle cx="888" cy="820" r="10" class="c0"/>
<circle cx="956" cy="1238" r="10" class="c0"/>
<circle cx="814" cy="530" r="10" class="c0"/>
<circle cx="856" cy="1224" r="10" class="c0"/>
<circle cx="898" cy="1280" r="10" class="c0"/>
<circle cx="852" cy="396" r="10" class="c0"/>
<circle cx="984" cy="336" r="10" class="c0"/>
<circle cx="704" cy="708" r="10" class="c0"/>
<circle cx="792" cy="510" r="10" class="c0"/>
<circle cx="698" cy="1314" r="10" class="c0"/>
<circle cx="760" cy="618" r="10" class="c0"/>
<circle cx="688" cy="1174" r="10" class="c0"/>
<circle cx="806" cy="1306" r="10" class="c0"/>
<circle cx="898" cy="1024" r="10" class="c0"/>
<circle cx="806" cy="396" r="10" class="c0"/>
<circle cx="940" cy="1002" r="10" class="c0"/>
<circle cx="770" cy="1112" r="10" class="c0"/>
<circle cx="844" cy="712" r="10" class="c0"/>
<circle cx="756" cy="1174" r="10" class="c0"/>
<circle cx="762" cy="1084" r="10" class="c0"/>
<circle cx="976" cy="980" r="10" class="c0"/>
<circle cx="738" cy="508" r="10" class="c0"/>
<circle cx="932" cy="966" r="10" class="c0"/>
<circle cx="968" cy="1226" r="10" class="c0"/>
<circle cx="878" cy="300" r="10" class="c0"/>
<circle cx="816" cy="904" r="10" class="c0"/>
<circle cx="992" cy="668" r="10" class="c0"/>
<circle cx="758" cy="590" r="10" class="c0"/>
<circle cx="1030" cy="1118" r="10" class="c0"/>
<circle cx="1002" cy="1150" r="10" class="c0"/>
<circle cx="792" cy="1092" r="10" class="c0"/>
<circle cx="852" cy="1000" r="10" class="c0"/>
<circle cx="860" cy="600" r="10" class="c0"/>
<circle cx="764" cy="828" r="10" class="c0"/>
<circle cx="788" cy="926" r="10" class="c0"/>
<circle cx="776" cy="534" r="10" class="c0"/>
<circle cx="930" cy="1250" r="10" class="c0"/>
<circle cx="656" cy="1224" r="10" class="c0"/>
<circle cx="722" cy="742" r="10" class="c0"/>
<circle cx="882" cy="380" r="10" class="c0"/>
<circle cx="804" cy="564" r="10" class="c0"/>
<circle cx="678" cy="1356" r="10" class="c0"/>
<circle cx="1018" cy="1078" r="10" class="c0"/>
<circle cx="938" cy="718" r="10" class="c0"/>
<circle cx="904" cy="848" r="10" class="c0"/>
<circle cx="812" cy="790" r="10" class="c0"/>
<circle cx="694" cy="642" r="10" class="c0"/>
<circle cx="656" cy="1308" r="10" class="c0"/>
<circle cx="846" cy="746" r="10" class="c0"/>
<circle cx="1020" cy="650" r="10" class="c0"/>
<circle cx="798" cy="846" r="10" class="c0"/>
<circle cx="760" cy="898" r="10" class="c0"/>
<circle cx="960" cy="622" r="10" class="c0"/>
<circle cx="666" cy="652" r="10" class="c0"/>
<circle cx="692" cy="736" r="10" class="c0"/>
<circle cx="1030" cy="1238" r="10" class="c0"/>
<circle cx="750" cy="1016" r="10" class="c0"/>
<circle cx="878" cy="1090" r="10" class="c0"/>
<circle cx="1084" cy="1286" r="10" class="c0"/>
<circle cx="1066" cy="1146" r="10" class="c0"/>
<circle cx="986" cy="1210" r="10" class="c0"/>
<circle cx="764" cy="1238" r="10" class="c0"/>
<circle cx="736" cy="540" r="10" class="c0"/>
<circle cx="1004" cy="608" r="10" class="c0"/>
<circle cx="970" cy="1102" r="10" class="c0"/>
<circle cx="872" cy="556" r="10" class="c0"/>
<circle cx="870" cy="1158" r="10" class="c0"/>
<circle cx="718" cy="954" r="10" class="c0"/>
<circle cx="940" cy="804" r="10" class="c0"/>
<circle cx="730" cy="836" r="10" class="c0"/>
<circle cx="882" cy="646" r="10" class="c0"/>
<circle cx="984" cy="648" r="10" class="c0"/>
<circle cx="842" cy="348" r="10" class="c0"/>
<circle cx="672" cy="1252" r="10" class="c0"/>
<circle cx="910" cy="690" r="10" class="c0"/>
<circle cx="1086" cy="1250" r="10" class="c0"/>
<circle cx="814" cy="880" r="10" class="c0"/>
<circle cx="748" cy="526" r="10" class="c0"/>
<circle cx="904" cy="798" r="10" class="c0"/>
<circle cx="706" cy="768" r="10" class="c0"/>
<circle cx="1026" cy="1034" r="10" class="c0"/>
<circle cx="864" cy="1340" r="10" class="c0"/>
<circle cx="796" cy="614" r="10" class="c0"/>
<circle cx="952" cy="1128" r="10" class="c0"/>
<circle cx="958" cy="322" r="10" class="c0"/>
<circle cx="856" cy="422" r="10" class="c0"/>
<circle cx="752" cy="938" r="10" class="c0"/>
<circle cx="964" cy="1180" r="10" class="c0"/>
<circle cx="692" cy="1384" r="10" class="c0"/>
<circle cx="732" cy="1334" r="10" class="c0"/>
<circle cx="710" cy="600" r="10" class="c0"/>
<circle cx="850" cy="1310" r="10" class="c0"/>
<circle cx="914" cy="458" r="10" class="c0"/>
<circle cx="852" cy="908" r="10" class="c0"/>
<circle cx="778" cy="1066" r="10" class="c0"/>
<circle cx="992" cy="780" r="10" class="c0"/>
<circle cx="694" cy="588" r="10" class="c0"/>
<circle cx="926" cy="600" r="10" class="c0"/>
<circle cx="962" cy="888" r="10" class="c0"/>
<circle cx="938" cy="760" r="10" class="c0"/>
<circle cx="692" cy="1336" r="10" class="c0"/>
<circle cx="780" cy="1210" r="10" class="c0"/>
<circle cx="708" cy="1140" r="10" class="c0"/>
<circle cx="882" cy="884" r="10" class="c0"/>
<circle cx="738" cy="758" r="10" class="c0"/>
<circle cx="806" cy="636" r="10" class="c0"/>
<circle cx="730" cy="1234" r="10" class="c0"/>
<circle cx="944" cy="564" r="10" class="c0"/>
<circle cx="858" cy="1176" r="10" class="c0"/>
<circle cx="748" cy="1044" r="10" class="c0"/>
<circle cx="848" cy="884" r="10" class="c0"/>
<circle cx="704" cy="622" r="10" class="c0"/>
<circle cx="718" cy="1098" r="10" class="c0"/>
<circle cx="752" cy="734" r="10" class="c0"/>
<circle cx="830" cy="666" r="10" class="c0"/>
<circle cx="814" cy="926" r="10" class="c0"/>
<circle cx="936" cy="420" r="10" class="c0"/>
<circle cx="1004" cy="1196" r="10" class="c0"/>
<circle cx="872" cy="806" r="10" class="c0"/>
<circle cx="970" cy="348" r="10" class="c0"/>
<circle cx="792" cy="1242" r="10" class="c0"/>
<circle cx="894" cy="1304" r="10" class="c0"/>
<circle cx="826" cy="1108" r="10" class="c0"/>
<circle cx="896" cy="952" r="10" class="c0"/>
<circle cx="726" cy="780" r="10" class="c0"/>
<circle cx="876" cy="1208" r="10" class="c0"/>
<circle cx="938" cy="448" r="10" class="c0"/>
<circle cx="1058" cy="1098" r="10" class="c0"/>
<circle cx="980" cy="1130" r="10" class="c0"/>
<circle cx="770" cy="1188" r="10" class="c0"/>
<circle cx="906" cy="590" r="10" class="c0"/>
<circle cx="950" cy="1038" r="10" class="c0"/>
<circle cx="984" cy="864" r="10" class="c0"/>
<circle cx="824" cy="830" r="10" class="c0"/>
<circle cx="1044" cy="1196" r="10" class="c0"/>
<circle cx="982" cy="918" r="10" class="c0"/>
<circle cx="842" cy="796" r="10" class="c0"/>
<circle cx="850" cy="628" r="10" class="c0"/>
<circle cx="880" cy="932" r="10" class="c0"/>
<circle cx="854" cy="1132" r="10" class="c0"/>
<circle cx="760" cy="642" r="10" class="c0"/>
<circle cx="804" cy="984" r="10" class="c0"/>
<circle cx="1056" cy="1242" r="10" class="c0"/>
<circle cx="750" cy="1388" r="10" class="c0"/>
<circle cx="782" cy="1272" r="10" class="c0"/>
<circle cx="874" cy="1010" r="10" class="c0"/>
<circle cx="716" cy="1120" r="10" class="c0"/>
<circle cx="994" cy="1108" r="10" class="c0"/>
<circle cx="828" cy="1188" r="10" class="c0"/>
<circle cx="838" cy="380" r="10" class="c0"/>
<circle cx="636" cy="1246" r="10" class="c0"/>
<circle cx="752" cy="1250" r="10" class="c0"/>
<circle cx="852" cy="846" r="10" class="c0"/>
<circle cx="752" cy="1320" r="10" class="c0"/>
<circle cx="704" cy="1050" r="10" class="c0"/>
<circle cx="988" cy="1324" r="10" class="c0"/>
<circle cx="706" cy="562" r="10" class="c0"/>
<circle cx="974" cy="578" r="8" class="c0"/>
<circle cx="864" cy="358" r="8" class="c0"/>
<circle cx="812" cy="1374" r="8" class="c0"/>
<circle cx="986" cy="1284" r="8" class="c0"/>
<circle cx="826" cy="630" r="8" class="c0"/>
<circle cx="870" cy="1260" r="8" class="c0"/>
<circle cx="818" cy="338" r="8" class="c0"/>
<circle cx="948" cy="408" r="8" class="c0"/>
<circle cx="908" cy="1174" r="8" class="c0"/>
<circle cx="894" cy="1254" r="8" class="c0"/>
<circle cx="830" cy="1034" r="8" class="c0"/>
<circle cx="1058" cy="1166" r="8" class="c0"/>
<circle cx="932" cy="394" r="8" class="c0"/>
<circle cx="880" cy="766" r="8" class="c0"/>
<circle cx="740" cy="1416" r="8" class="c0"/>
<circle cx="994" cy="902" r="8" class="c0"/>
<circle cx="834" cy="522" r="8" class="c0"/>
<circle cx="728" cy="562" r="8" class="c0"/>
<circle cx="966" cy="996" r="8" class="c0"/>
<circle cx="780" cy="492" r="8" class="c0"/>
<circle cx="712" cy="656" r="8" class="c0"/>
<circle cx="942" cy="950" r="8" class="c0"/>
<circle cx="958" cy="912" r="8" class="c0"/>
<circle cx="722" cy="646" r="8" class="c0"/>
<circle cx="676" cy="1146" r="8" class="c0"/>
<circle cx="710" cy="1172" r="8" class="c0"/>
<circle cx="846" cy="508" r="8" class="c0"/>
<circle cx="772" cy="1326" r="8" class="c0"/>
<circle cx="1072" cy="1214" r="8" class="c0"/>
<circle cx="892" cy="1058" r="8" class="c0"/>
<circle cx="960" cy="1146" r="8" class="c0"/>
<circle cx="1044" cy="1296" r="8" class="c0"/>
<circle cx="880" cy="1120" r="8" class="c0"/>
<circle cx="772" cy="754" r="8" class="c0"/>
<circle cx="702" cy="1088" r="8" class="c0"/>
<circle cx="966" cy="756" r="8" class="c0"/>
<circle cx="928" cy="788" r="8" class="c0"/>
<circle cx="852" cy="1096" r="8" class="c0"/>
<circle cx="854" cy="450" r="8" class="c0"/>
<circle cx="1032" cy="678" r="8" class="c0"/>
<circle cx="992" cy="1058" r="8" class="c0"/>
<circle cx="882" cy="514" r="8" class="c0"/>
<circle cx="994" cy="1416" r="8" class="c0"/>
<circle cx="736" cy="1276" r="8" class="c0"/>
<circle cx="954" cy="648" r="8" class="c0"/>
<circle cx="912" cy="302" r="8" class="c0"/>
<circle cx="896" cy="562" r="8" class="c0"/>
<circle cx="788" cy="596" r="8" class="c0"/>
<circle cx="922" cy="486" r="8" class="c0"/>
<circle cx="916" cy="810" r="8" class="c0"/>
<circle cx="926" cy="544" r="8" class="c0"/>
<circle cx="876" cy="456" r="8" class="c0"/>
<circle cx="732" cy="610" r="8" class="c0"/>
<circle cx="712" cy="540" r="8" class="c0"/>
<circle cx="890" cy="674" r="8" class="c0"/>
<circle cx="908" cy="758" r="8" class="c0"/>
<circle cx="1076" cy="1318" r="8" class="c0"/>
<circle cx="958" cy="542" r="8" class="c0"/>
<circle cx="1038" cy="1056" r="8" class="c0"/>
<circle cx="880" cy="692" r="8" class="c0"/>
<circle cx="918" cy="566" r="8" class="c0"/>
<circle cx="770" cy="868" r="8" class="c0"/>
<circle cx="660" cy="1176" r="8" class="c0"/>
<circle cx="756" cy="1142" r="8" class="c0"/>
<circle cx="680" cy="724" r="8" class="c0"/>
<circle cx="1022" cy="1208" r="8" class="c0"/>
<circle cx="880" cy="538" r="8" class="c0"/>
<circle cx="904" cy="1082" r="8" class="c0"/>
<circle cx="832" cy="1136" r="8" class="c0"/>
<circle cx="900" cy="484" r="8" class="c0"/>
<circle cx="714" cy="1244" r="8" class="c0"/>
<circle cx="690" cy="1074" r="8" class="c0"/>
<circle cx="694" cy="1194" r="8" class="c0"/>
<circle cx="922" cy="860" r="8" class="c0"/>
<circle cx="914" cy="434" r="8" class="c0"/>
<circle cx="980" cy="1006" r="8" class="c0"/>
<circle cx="744" cy="1300" r="8" class="c0"/>
<circle cx="940" cy="352" r="8" class="c0"/>
<circle cx="680" cy="762" r="8" class="c0"/>
<circle cx="918" cy="770" r="8" class="c0"/>
<circle cx="874" cy="1306" r="8" class="c0"/>
<circle cx="894" cy="1192" r="8" class="c0"/>
<circle cx="870" cy="868" r="8" class="c0"/>
<circle cx="928" cy="634" r="8" class="c0"/>
<circle cx="866" cy="710" r="8" class="c0"/>
<circle cx="884" cy="856" r="8" class="c0"/>
<circle cx="956" cy="816" r="8" class="c0"/>
<circle cx="726" cy="1314" r="8" class="c0"/>
<circle cx="830" cy="612" r="8" class="c0"/>
<circle cx="964" cy="568" r="8" class="c0"/>
<circle cx="1026" cy="1286" r="8" class="c0"/>
<circle cx="596" cy="1252" r="8" class="c0"/>
<circle cx="836" cy="868" r="8" class="c0"/>
<circle cx="838" cy="640" r="8" class="c0"/>
<circle cx="868" cy="436" r="8" class="c0"/>
<circle cx="652" cy="668" r="8" class="c0"/>
<circle cx="720" cy="1400" r="8" class="c0"/>
<circle cx="954" cy="970" r="8" class="c0"/>
<circle cx="796" cy="1286" r="8" class="c0"/>
<circle cx="1002" cy="688" r="8" class="c0"/>
<circle cx="978" cy="1268" r="8" class="c0"/>
<circle cx="696" cy="1268" r="8" class="c0"/>
<circle cx="814" cy="1280" r="8" class="c0"/>
<circle cx="858" cy="946" r="8" class="c0"/>
<circle cx="912" cy="902" r="8" class="c0"/>
<circle cx="832" cy="422" r="8" class="c0"/>
<circle cx="1042" cy="1086" r="8" class="c0"/>
<circle cx="716" cy="1202" r="8" class="c0"/>
<circle cx="894" cy="744" r="8" class="c0"/>
<circle cx="764" cy="506" r="8" class="c0"/>
<circle cx="1056" cy="1126" r="8" class="c0"/>
<circle cx="742" cy="912" r="8" class="c0"/>
<circle cx="840" cy="480" r="8" class="c0"/>
<circle cx="938" cy="470" r="8" class="c0"/>
<circle cx="890" cy="470" r="8" class="c0"/>
<circle cx="728" cy="1378" r="8" class="c0"/>
<circle cx="996" cy="746" r="8" class="c0"/>
<circle cx="966" cy="1402" r="8" class="c0"/>
<circle cx="846" cy="1262" r="8" class="c0"/>
<circle cx="1080" cy="1178" r="8" class="c0"/>
<circle cx="946" cy="1084" r="8" class="c0"/>
<circle cx="636" cy="1152" r="8" class="c0"/>
<circle cx="888" cy="786" r="8" class="c0"/>
<circle cx="928" cy="1222" r="8" class="c0"/>
<circle cx="892" cy="336" r="8" class="c0"/>
<circle cx="1092" cy="1218" r="8" class="c0"/>
<circle cx="984" cy="1350" r="8" class="c0"/>
<circle cx="970" cy="1052" r="8" class="c0"/>
<circle cx="1068" cy="1258" r="8" class="c0"/>
<circle cx="714" cy="1020" r="8" class="c0"/>
<circle cx="918" cy="710" r="8" class="c0"/>
<circle cx="1038" cy="1216" r="8" class="c0"/>
<circle cx="736" cy="798" r="8" class="c0"/>
<circle cx="870" cy="752" r="8" class="c0"/>
<circle cx="898" cy="1108" r="8" class="c0"/>
<circle cx="928" cy="1018" r="8" class="c0"/>
<circle cx="726" cy="1258" r="8" class="c0"/>
<circle cx="810" cy="946" r="8" class="c0"/>
<circle cx="878" cy="402" r="8" class="c0"/>
<circle cx="956" cy="1426" r="8" class="c0"/>
<circle cx="986" cy="1166" r="8" class="c0"/>
<circle cx="982" cy="366" r="8" class="c0"/>
<circle cx="1000" cy="378" r="8" class="c0"/>
<circle cx="810" cy="602" r="8" class="c0"/>
<circle cx="870" cy="318" r="8" class="c0"/>
<circle cx="922" cy="1150" r="8" class="c0"/>
<circle cx="714" cy="1426" r="8" class="c0"/>
<circle cx="950" cy="1344" r="8" class="c0"/>
<circle cx="776" cy="734" r="8" class="c0"/>
<circle cx="756" cy="690" r="8" class="c0"/>
<circle cx="770" cy="848" r="8" class="c0"/>
<circle cx="1094" cy="1268" r="8" class="c0"/>
<circle cx="984" cy="890" r="8" class="c0"/>
<circle cx="988" cy="1232" r="8" class="c0"/>
<circle cx="910" cy="1326" r="8" class="c0"/>
<circle cx="936" cy="1292" r="8" class="c0"/>
<circle cx="926" cy="1094" r="8" class="c0"/>
<circle cx="1008" cy="1288" r="8" class="c0"/>
<circle cx="930" cy="894" r="8" class="c0"/>
<circle cx="826" cy="704" r="8" class="c0"/>
<circle cx="684" cy="564" r="8" class="c0"/>
<circle cx="624" cy="1170" r="8" class="c0"/>
<circle cx="758" cy="666" r="8" class="c0"/>
<circle cx="878" cy="838" r="8" class="c0"/>
<circle cx="1010" cy="1226" r="8" class="c0"/>
<circle cx="960" cy="798" r="8" class="c0"/>
<circle cx="642" cy="1280" r="8" class="c0"/>
<circle cx="726" cy="1164" r="8" class="c0"/>
<circle cx="682" cy="618" r="8" class="c0"/>
<circle cx="832" cy="936" r="8" class="c0"/>
<circle cx="670" cy="746" r="8" class="c0"/>
<circle cx="908" cy="398" r="8" class="c0"/>
<circle cx="880" cy="910" r="8" class="c0"/>
<circle cx="838" cy="1298" r="8" class="c0"/>
<circle cx="728" cy="1192" r="8" class="c0"/>
<circle cx="746" cy="564" r="8" class="c0"/>
<circle cx="770" cy="914" r="8" class="c0"/>
<circle cx="898" cy="362" r="8" class="c0"/>
<circle cx="676" cy="1318" r="8" class="c0"/>
<circle cx="752" cy="842" r="8" class="c0"/>
<circle cx="810" cy="1340" r="8" class="c0"/>
<circle cx="696" cy="664" r="8" class="c0"/>
<circle cx="1032" cy="708" r="8" class="c0"/>
<circle cx="620" cy="1268" r="8" class="c0"/>
<circle cx="868" cy="1236" r="8" class="c0"/>
<circle cx="746" cy="786" r="8" class="c0"/>
<circle cx="836" cy="540" r="8" class="c0"/>
<circle cx="678" cy="600" r="8" class="c0"/>
<circle cx="824" cy="1086" r="8" class="c0"/>
<circle cx="920" cy="408" r="8" class="c0"/>
<circle cx="1060" cy="1278" r="8" class="c0"/>
<circle cx="812" cy="1138" r="8" class="c0"/>
<circle cx="962" cy="1026" r="8" class="c0"/>
<circle cx="1000" cy="630" r="8" class="c0"/>
<circle cx="890" cy="1168" r="8" class="c0"/>
<circle cx="794" cy="1146" r="8" class="c0"/>
<circle cx="832" cy="1272" r="8" class="c0"/>
<circle cx="1058" cy="1070" r="8" class="c0"/>
<circle cx="958" cy="422" r="8" class="c0"/>
<circle cx="724" cy="976" r="8" class="c0"/>
<circle cx="772" cy="464" r="8" class="c0"/>
<circle cx="890" cy="422" r="8" class="c0"/>
<circle cx="926" cy="1198" r="8" class="c0"/>
<circle cx="814" cy="688" r="8" class="c0"/>
<circle cx="980" cy="822" r="8" class="c0"/>
<circle cx="672" cy="1380" r="8" class="c0"/>
<circle cx="788" cy="1338" r="8" class="c0"/>
<circle cx="898" cy="314" r="8" class="c0"/>
<circle cx="1020" cy="1138" r="8" class="c0"/>
<circle cx="958" cy="836" r="8" class="c0"/>
<circle cx="848" cy="772" r="8" class="c0"/>
<circle cx="768" cy="1404" r="8" class="c0"/>
<circle cx="762" cy="718" r="8" class="c0"/>
<circle cx="1010" cy="414" r="8" class="c0"/>
<circle cx="740" cy="702" r="8" class="c0"/>
<circle cx="760" cy="970" r="8" class="c0"/>
<circle cx="724" cy="1008" r="8" class="c0"/>
<circle cx="1016" cy="1054" r="8" class="c0"/>
<circle cx="710" cy="1302" r="8" class="c0"/>
<circle cx="796" cy="1020" r="8" class="c0"/>
<circle cx="826" cy="776" r="8" class="c0"/>
<circle cx="958" cy="1296" r="8" class="c0"/>
<circle cx="696" cy="1124" r="8" class="c0"/>
<circle cx="636" cy="1190" r="8" class="c0"/>
<circle cx="1032" cy="1098" r="8" class="c0"/>
<circle cx="852" cy="330" r="8" class="c0"/>
<circle cx="908" cy="346" r="8" class="c0"/>
<circle cx="850" cy="980" r="8" class="c0"/>
<circle cx="788" cy="972" r="8" class="c0"/>
<circle cx="1054" cy="1314" r="8" class="c0"/>
<circle cx="744" cy="958" r="8" class="c0"/>
<circle cx="884" cy="1342" r="8" class="c0"/>
<circle cx="680" cy="1300" r="8" class="c0"/>
<circle cx="720" cy="1352" r="8" class="c0"/>
<circle cx="976" cy="1294" r="8" class="c0"/>
<circle cx="832" cy="1338" r="8" class="c0"/>
<circle cx="984" cy="1428" r="8" class="c0"/>
<circle cx="746" cy="820" r="8" class="c0"/>
<circle cx="868" cy="1110" r="8" class="c0"/>
<circle cx="758" cy="1422" r="8" class="c0"/>
<circle cx="874" cy="1280" r="8" class="c0"/>
<circle cx="790" cy="552" r="8" class="c0"/>
<circle cx="912" cy="532" r="8" class="c0"/>
<circle cx="918" cy="668" r="8" class="c0"/>
<circle cx="1042" cy="1146" r="8" class="c0"/>
<circle cx="980" cy="614" r="8" class="c0"/>
<circle cx="944" cy="1102" r="8" class="c0"/>
<circle cx="972" cy="1156" r="8" class="c0"/>
<circle cx="780" cy="1136" r="8" class="c0"/>
<circle cx="780" cy="838" r="8" class="c0"/>
<circle cx="772" cy="774" r="8" class="c0"/>
<circle cx="928" cy="742" r="8" class="c0"/>
<circle cx="872" cy="1188" r="8" class="c0"/>
<circle cx="910" cy="968" r="8" class="c0"/>
<circle cx="986" cy="804" r="8" class="c0"/>
<circle cx="922" cy="1310" r="8" class="c0"/>
<circle cx="792" cy="480" r="8" class="c0"/>
<circle cx="812" cy="584" r="8" class="c0"/>
<circle cx="1104" cy="1298" r="8" class="c0"/>
<circle cx="808" cy="1180" r="8" class="c0"/>
<circle cx="936" cy="874" r="8" class="c0"/>
<circle cx="978" cy="768" r="8" class="c0"/>
<circle cx="950" cy="744" r="8" class="c0"/>
<circle cx="916" cy="618" r="8" class="c0"/>
<circle cx="938" cy="826" r="8" class="c0"/>
<circle cx="992" cy="586" r="8" class="c0"/>
<circle cx="742" cy="634" r="8" class="c0"/>
<circle cx="718" cy="1284" r="8" class="c0"/>
<circle cx="1012" cy="676" r="8" class="c0"/>
<circle cx="900" cy="922" r="8" class="c0"/>
<circle cx="918" cy="1030" r="8" class="c0"/>
<circle cx="616" cy="1298" r="8" class="c0"/>
<circle cx="990" cy="940" r="8" class="c0"/>
<circle cx="844" cy="1116" r="8" class="c0"/>
<circle cx="812" cy="1256" r="8" class="c0"/>
<circle cx="776" cy="1252" r="8" class="c0"/>
<circle cx="932" cy="916" r="8" class="c0"/>
<circle cx="746" cy="1096" r="8" class="c0"/>
<circle cx="830" cy="998" r="8" class="c0"/>
<circle cx="652" cy="1348" r="8" class="c0"/>
<circle cx="754" cy="878" r="8" class="c0"/>
<circle cx="756" cy="544" r="8" class="c0"/>
<circle cx="848" cy="1078" r="8" class="c0"/>
<circle cx="696" cy="1240" r="8" class="c0"/>
<circle cx="888" cy="1150" r="8" class="c0"/>
<circle cx="684" cy="706" r="8" class="c0"/>
<circle cx="858" cy="762" r="8" class="c0"/>
<circle cx="848" cy="1160" r="8" class="c0"/>
<circle cx="730" cy="1030" r="8" class="c0"/>
<circle cx="848" cy="1352" r="8" class="c0"/>
<circle cx="1010" cy="1174" r="8" class="c0"/>
<circle cx="1006" cy="1096" r="8" class="c0"/>
<circle cx="814" cy="766" r="8" class="c0"/>
<circle cx="844" cy="1206" r="8" class="c0"/>
<circle cx="738" cy="684" r="8" class="c0"/>
<circle cx="858" cy="726" r="8" class="c0"/>
<circle cx="958" cy="360" r="8" class="c0"/>
<circle cx="782" cy="626" r="8" class="c0"/>
<circle cx="762" cy="486" r="8" class="c0"/>
<circle cx="774" cy="984" r="8" class="c0"/>
<circle cx="1064" cy="1304" r="8" class="c0"/>
<circle cx="870" cy="780" r="8" class="c0"/>
<circle cx="694" cy="548" r="8" class="c0"/>
<circle cx="722" cy="520" r="8" class="c0"/>
<circle cx="982" cy="1190" r="8" class="c0"/>
<circle cx="760" cy="1032" r="8" class="c0"/>
<circle cx="886" cy="596" r="8" class="c0"/>
<circle cx="982" cy="1042" r="8" class="c0"/>
<circle cx="1022" cy="696" r="8" class="c0"/>
<circle cx="966" cy="448" r="8" class="c0"/>
<circle cx="758" cy="1064" r="8" class="c0"/>
<circle cx="696" cy="1152" r="8" class="c0"/>
<circle cx="798" cy="1056" r="8" class="c0"/>
<circle cx="784" cy="788" r="8" class="c0"/>
<circle cx="728" cy="932" r="8" class="c0"/>
<circle cx="660" cy="1366" r="8" class="c0"/>
<circle cx="976" cy="954" r="8" class="c0"/>
<circle cx="654" cy="638" r="8" class="c0"/>
<circle cx="1010" cy="1122" r="8" class="c0"/>
<circle cx="954" cy="1062" r="8" class="c0"/>
<circle cx="948" cy="786" r="8" class="c0"/>
<circle cx="1112" cy="1260" r="8" class="c0"/>
<circle cx="720" cy="582" r="8" class="c0"/>
<circle cx="938" cy="624" r="8" class="c0"/>
<circle cx="784" cy="1304" r="8" class="c0"/>
<circle cx="960" cy="776" r="8" class="c0"/>
<circle cx="610" cy="1280" r="8" class="c0"/>
<circle cx="824" cy="404" r="8" class="c0"/>
<circle cx="820" cy="648" r="8" class="c0"/>
<circle cx="714" cy="1324" r="8" class="c0"/>
<circle cx="1004" cy="892" r="8" class="c0"/>
<circle cx="878" cy="1032" r="8" class="c0"/>
<circle cx="934" cy="1118" r="8" class="c0"/>
<circle cx="824" cy="554" r="8" class="c0"/>
<circle cx="666" cy="714" r="8" class="c0"/>
<circle cx="788" cy="452" r="8" class="c0"/>
<circle cx="950" cy="1388" r="8" class="c0"/>
<circle cx="846" cy="656" r="8" class="c0"/>
<circle cx="976" cy="1412" r="8" class="c0"/>
<circle cx="798" cy="962" r="8" class="c0"/>
<circle cx="652" cy="1268" r="8" class="c0"/>
<circle cx="856" cy="468" r="8" class="c0"/>
<circle cx="788" cy="870" r="8" class="c0"/>
<circle cx="720" cy="1040" r="8" class="c0"/>
<circle cx="818" cy="850" r="8" class="c0"/>
<circle cx="736" cy="1060" r="8" class="c0"/>
<circle cx="904" cy="1048" r="8" class="c0"/>
<circle cx="890" cy="702" r="8" class="c0"/>
<circle cx="876" cy="344" r="8" class="c0"/>
<circle cx="1008" cy="1246" r="8" class="c0"/>
<circle cx="734" cy="592" r="8" class="c0"/>
<circle cx="1022" cy="1184" r="8" class="c0"/>
<circle cx="898" cy="502" r="8" class="c0"/>
<circle cx="818" cy="378" r="8" class="c0"/>
<circle cx="804" cy="1358" r="8" class="c0"/>
<circle cx="818" cy="738" r="8" class="c0"/>
<circle cx="930" cy="842" r="8" class="c0"/>
<circle cx="728" cy="720" r="8" class="c0"/>
<circle cx="862" cy="830" r="8" class="c0"/>
<circle cx="868" cy="956" r="8" class="c0"/>
<circle cx="640" cy="1338" r="8" class="c0"/>
<circle cx="780" cy="818" r="8" class="c0"/>
<circle cx="996" cy="876" r="8" class="c0"/>
<circle cx="834" cy="588" r="8" class="c0"/>
<circle cx="644" cy="1168" r="8" class="c0"/>
<circle cx="1006" cy="920" r="8" class="c0"/>
<circle cx="828" cy="364" r="8" class="c0"/>
<circle cx="744" cy="1154" r="8" class="c0"/>
<circle cx="660" cy="1156" r="8" class="c0"/>
<circle cx="666" cy="1110" r="8" class="c0"/>
<circle cx="794" cy="1320" r="8" class="c0"/>
<circle cx="728" cy="814" r="8" class="c0"/>
<circle cx="842" cy="1328" r="8" class="c0"/>
<circle cx="1026" cy="978" r="8" class="c0"/>
<circle cx="898" cy="768" r="8" class="c0"/>
<circle cx="878" cy="1140" r="8" class="c0"/>
<circle cx="856" cy="1290" r="8" class="c0"/>
<circle cx="982" cy="736" r="8" class="c0"/>
<circle cx="876" cy="1066" r="8" class="c0"/>
<circle cx="894" cy="450" r="8" class="c0"/>
<circle cx="1018" cy="628" r="8" class="c0"/>
<circle cx="1060" cy="1186" r="8" class="c0"/>
<circle cx="618" cy="1332" r="8" class="c0"/>
<circle cx="984" cy="568" r="8" class="c0"/>
<circle cx="952" cy="1016" r="8" class="c0"/>
<circle cx="1104" cy="1278" r="8" class="c0"/>
<circle cx="838" cy="816" r="8" class="c0"/>
<circle cx="892" cy="526" r="8" class="c0"/>
<circle cx="676" cy="1222" r="8" class="c0"/>
<circle cx="798" cy="1196" r="8" class="c0"/>
<circle cx="1048" cy="1176" r="8" class="c0"/>
<circle cx="880" cy="1324" r="8" class="c0"/>
<circle cx="976" cy="1250" r="8" class="c0"/>
<circle cx="770" cy="676" r="8" class="c0"/>
<circle cx="870" cy="896" r="8" class="c0"/>
<circle cx="910" cy="1294" r="8" class="c0"/>
<circle cx="938" cy="370" r="8" class="c0"/>
<circle cx="850" cy="928" r="8" class="c0"/>
<circle cx="802" cy="1074" r="8" class="c0"/>
<circle cx="868" cy="920" r="8" class="c0"/>
<circle cx="934" cy="1138" r="8" class="c0"/>
<circle cx="676" cy="1122" r="6" class="c0"/>
<circle cx="662" cy="618" r="6" class="c0"/>
<circle cx="964" cy="864" r="6" class="c0"/>
<circle cx="726" cy="626" r="6" class="c0"/>
<circle cx="800" cy="1266" r="6" class="c0"/>
<circle cx="796" cy="534" r="6" class="c0"/>
<circle cx="716" cy="1222" r="6" class="c0"/>
<circle cx="910" cy="1196" r="6" class="c0"/>
<circle cx="808" cy="860" r="6" class="c0"/>
<circle cx="746" cy="1224" r="6" class="c0"/>
<circle cx="910" cy="550" r="6" class="c0"/>
<circle cx="864" cy="638" r="6" class="c0"/>
<circle cx="978" cy="1024" r="6" class="c0"/>
<circle cx="956" cy="698" r="6" class="c0"/>
<circle cx="602" cy="1204" r="6" class="c0"/>
<circle cx="616" cy="1244" r="6" class="c0"/>
<circle cx="686" cy="1134" r="6" class="c0"/>
<circle cx="884" cy="1268" r="6" class="c0"/>
<circle cx="1046" cy="1110" r="6" class="c0"/>
<circle cx="972" cy="1310" r="6" class="c0"/>
<circle cx="972" cy="634" r="6" class="c0"/>
<circle cx="816" cy="968" r="6" class="c0"/>
<circle cx="948" cy="1312" r="6" class="c0"/>
<circle cx="734" cy="1110" r="6" class="c0"/>
<circle cx="796" cy="582" r="6" class="c0"/>
<circle cx="798" cy="776" r="6" class="c0"/>
<circle cx="738" cy="1180" r="6" class="c0"/>
<circle cx="1042" cy="1024" r="6" class="c0"/>
<circle cx="1076" cy="1232" r="6" class="c0"/>
<circle cx="944" cy="608" r="6" class="c0"/>
<circle cx="1006" cy="1432" r="6" class="c0"/>
<circle cx="674" cy="1184" r="6" class="c0"/>
<circle cx="816" cy="512" r="6" class="c0"/>
<circle cx="992" cy="698" r="6" class="c0"/>
<circle cx="716" cy="1268" r="6" class="c0"/>
<circle cx="886" cy="1232" r="6" class="c0"/>
<circle cx="1088" cy="1198" r="6" class="c0"/>
<circle cx="630" cy="1290" r="6" class="c0"/>
<circle cx="734" cy="854" r="6" class="c0"/>
<circle cx="920" cy="1078" r="6" class="c0"/>
<circle cx="878" cy="1246" r="6" class="c0"/>
<circle cx="938" cy="490" r="6" class="c0"/>
<circle cx="748" cy="1432" r="6" class="c0"/>
<circle cx="942" cy="982" r="6" class="c0"/>
<circle cx="842" cy="432" r="6" class="c0"/>
<circle cx="674" cy="636" r="6" class="c0"/>
<circle cx="762" cy="996" r="6" class="c0"/>
<circle cx="926" cy="360" r="6" class="c0"/>
<circle cx="756" cy="1268" r="6" class="c0"/>
<circle cx="756" cy="764" r="6" class="c0"/>
<circle cx="952" cy="438" r="6" class="c0"/>
<circle cx="750" cy="1284" r="6" class="c0"/>
<circle cx="958" cy="1258" r="6" class="c0"/>
<circle cx="896" cy="868" r="6" class="c0"/>
<circle cx="852" cy="554" r="6" class="c0"/>
<circle cx="646" cy="690" r="6" class="c0"/>
<circle cx="740" cy="1080" r="6" class="c0"/>
<circle cx="726" cy="1142" r="6" class="c0"/>
<circle cx="974" cy="784" r="6" class="c0"/>
<circle cx="1002" cy="766" r="6" class="c0"/>
<circle cx="988" cy="1398" r="6" class="c0"/>
<circle cx="688" cy="1282" r="6" class="c0"/>
<circle cx="812" cy="664" r="6" class="c0"/>
<circle cx="984" cy="384" r="6" class="c0"/>
<circle cx="818" cy="718" r="6" class="c0"/>
<circle cx="874" cy="474" r="6" class="c0"/>
<circle cx="718" cy="796" r="6" class="c0"/>
<circle cx="938" cy="644" r="6" class="c0"/>
<circle cx="860" cy="1028" r="6" class="c0"/>
<circle cx="746" cy="490" r="6" class="c0"/>
<circle cx="894" cy="900" r="6" class="c0"/>
<circle cx="790" cy="768" r="6" class="c0"/>
<circle cx="728" cy="1214" r="6" class="c0"/>
<circle cx="802" cy="490" r="6" class="c0"/>
<circle cx="1088" cy="1308" r="6" class="c0"/>
<circle cx="944" cy="532" r="6" class="c0"/>
<circle cx="904" cy="628" r="6" class="c0"/>
<circle cx="712" cy="726" r="6" class="c0"/>
<circle cx="948" cy="336" r="6" class="c0"/>
<circle cx="628" cy="1228" r="6" class="c0"/>
<circle cx="832" cy="466" r="6" class="c0"/>
<circle cx="902" cy="610" r="6" class="c0"/>
<circle cx="1104" cy="1246" r="6" class="c0"/>
<circle cx="912" cy="1258" r="6" class="c0"/>
<circle cx="966" cy="1376" r="6" class="c0"/>
<circle cx="830" cy="726" r="6" class="c0"/>
<circle cx="916" cy="1114" r="6" class="c0"/>
<circle cx="766" cy="1050" r="6" class="c0"/>
<circle cx="902" cy="1158" r="6" class="c0"/>
<circle cx="890" cy="1000" r="6" class="c0"/>
<circle cx="866" cy="1076" r="6" class="c0"/>
<circle cx="680" cy="1270" r="6" class="c0"/>
<circle cx="656" cy="1244" r="6" class="c0"/>
<circle cx="1018" cy="1260" r="6" class="c0"/>
<circle cx="696" cy="688" r="6" class="c0"/>
<circle cx="826" cy="754" r="6" class="c0"/>
<circle cx="1014" cy="738" r="6" class="c0"/>
<circle cx="814" cy="420" r="6" class="c0"/>
<circle cx="880" cy="362" r="6" class="c0"/>
<circle cx="1028" cy="1306" r="6" class="c0"/>
<circle cx="934" cy="700" r="6" class="c0"/>
<circle cx="788" cy="1110" r="6" class="c0"/>
<circle cx="1024" cy="958" r="6" class="c0"/>
<circle cx="970" cy="1072" r="6" class="c0"/>
<circle cx="842" cy="1062" r="6" class="c0"/>
<circle cx="854" cy="578" r="6" class="c0"/>
<circle cx="1070" cy="1196" r="6" class="c0"/>
<circle cx="828" cy="892" r="6" class="c0"/>
<circle cx="888" cy="1076" r="6" class="c0"/>
<circle cx="998" cy="1340" r="6" class="c0"/>
<circle cx="930" cy="654" r="6" class="c0"/>
<circle cx="774" cy="604" r="6" class="c0"/>
<circle cx="788" cy="718" r="6" class="c0"/>
<circle cx="902" cy="830" r="6" class="c0"/>
<circle cx="774" cy="884" r="6" class="c0"/>
<circle cx="968" cy="1354" r="6" class="c0"/>
<circle cx="942" cy="1156" r="6" class="c0"/>
<circle cx="930" cy="1040" r="6" class="c0"/>
<circle cx="744" cy="718" r="6" class="c0"/>
<circle cx="1000" cy="1132" r="6" class="c0"/>
<circle cx="860" cy="1272" r="6" class="c0"/>
<circle cx="764" cy="1302" r="6" class="c0"/>
<circle cx="774" cy="1346" r="6" class="c0"/>
<circle cx="1066" cy="1116" r="6" class="c0"/>
<circle cx="974" cy="1386" r="6" class="c0"/>
<circle cx="792" cy="1222" r="6" class="c0"/>
<circle cx="1056" cy="1218" r="6" class="c0"/>
<circle cx="1074" cy="1162" r="6" class="c0"/>
<circle cx="974" cy="556" r="6" class="c0"/>
<circle cx="900" cy="1336" r="6" class="c0"/>
<circle cx="764" cy="1218" r="6" class="c0"/>
<circle cx="642" cy="1298" r="6" class="c0"/>
<circle cx="848" cy="1190" r="6" class="c0"/>
<circle cx="772" cy="1388" r="6" class="c0"/>
<circle cx="1034" cy="660" r="6" class="c0"/>
<circle cx="972" cy="598" r="6" class="c0"/>
<circle cx="884" cy="1290" r="6" class="c0"/>
<circle cx="940" cy="932" r="6" class="c0"/>
<circle cx="744" cy="1370" r="6" class="c0"/>
<circle cx="962" cy="400" r="6" class="c0"/>
<circle cx="852" cy="1242" r="6" class="c0"/>
<circle cx="636" cy="678" r="6" class="c0"/>
<circle cx="704" cy="1108" r="6" class="c0"/>
<circle cx="944" cy="310" r="6" class="c0"/>
<circle cx="922" cy="1340" r="6" class="c0"/>
<circle cx="824" cy="1290" r="6" class="c0"/>
<circle cx="1002" cy="1070" r="6" class="c0"/>
<circle cx="780" cy="644" r="6" class="c0"/>
<circle cx="772" cy="654" r="6" class="c0"/>
<circle cx="1066" cy="1328" r="6" class="c0"/>
<circle cx="928" cy="984" r="6" class="c0"/>
<circle cx="1024" cy="722" r="6" class="c0"/>
<circle cx="940" cy="1430" r="6" class="c0"/>
<circle cx="600" cy="1268" r="6" class="c0"/>
<circle cx="948" cy="898" r="6" class="c0"/>
<circle cx="702" cy="1286" r="6" class="c0"/>
<circle cx="954" cy="468" r="6" class="c0"/>
<circle cx="996" cy="424" r="6" class="c0"/>
<circle cx="926" cy="344" r="6" class="c0"/>
<circle cx="682" cy="1204" r="6" class="c0"/>
<circle cx="822" cy="980" r="6" class="c0"/>
<circle cx="792" cy="684" r="6" class="c0"/>
<circle cx="732" cy="1362" r="6" class="c0"/>
<circle cx="850" cy="368" r="6" class="c0"/>
<circle cx="846" cy="1036" r="6" class="c0"/>
<circle cx="1006" cy="398" r="6" class="c0"/>
<circle cx="930" cy="528" r="6" class="c0"/>
<circle cx="894" cy="1212" r="6" class="c0"/>
<circle cx="918" cy="832" r="6" class="c0"/>
<circle cx="908" cy="1098" r="6" class="c0"/>
<circle cx="842" cy="1282" r="6" class="c0"/>
<circle cx="956" cy="666" r="6" class="c0"/>
<circle cx="794" cy="412" r="6" class="c0"/>
<circle cx="934" cy="1074" r="6" class="c0"/>
<circle cx="906" cy="328" r="6" class="c0"/>
<circle cx="1060" cy="1204" r="6" class="c0"/>
<circle cx="944" cy="1226" r="6" class="c0"/>
<circle cx="712" cy="1382" r="6" class="c0"/>
<circle cx="766" cy="554" r="6" class="c0"/>
<circle cx="1098" cy="1234" r="6" class="c0"/>
<circle cx="810" cy="1240" r="6" class="c0"/>
<circle cx="874" cy="420" r="6" class="c0"/>
<circle cx="934" cy="302" r="6" class="c0"/>
<circle cx="862" cy="652" r="6" class="c0"/>
<circle cx="854" cy="964" r="6" class="c0"/>
<circle cx="864" cy="382" r="6" class="c0"/>
<circle cx="892" cy="394" r="6" class="c0"/>
<circle cx="674" cy="578" r="6" class="c0"/>
<circle cx="864" cy="694" r="6" class="c0"/>
<circle cx="926" cy="1168" r="6" class="c0"/>
<circle cx="896" cy="636" r="6" class="c0"/>
<circle cx="842" cy="948" r="6" class="c0"/>
<circle cx="762" cy="1376" r="6" class="c0"/>
<circle cx="810" cy="1098" r="6" class="c0"/>
<circle cx="910" cy="418" r="6" class="c0"/>
<circle cx="854" cy="866" r="6" class="c0"/>
<circle cx="710" cy="1342" r="6" class="c0"/>
<circle cx="674" cy="1164" r="6" class="c0"/>
<circle cx="732" cy="1432" r="6" class="c0"/>
<circle cx="972" cy="902" r="6" class="c0"/>
<circle cx="774" cy="516" r="6" class="c0"/>
<circle cx="756" cy="858" r="6" class="c0"/>
<circle cx="820" cy="808" r="6" class="c0"/>
<circle cx="1038" cy="994" r="6" class="c0"/>
<circle cx="1048" cy="1226" r="6" class="c0"/>
<circle cx="800" cy="914" r="6" class="c0"/>
<circle cx="838" cy="1222" r="6" class="c0"/>
<circle cx="1002" cy="576" r="6" class="c0"/>
<circle cx="1068" cy="1080" r="6" class="c0"/>
<circle cx="706" cy="1258" r="6" class="c0"/>
<circle cx="772" cy="936" r="6" class="c0"/>
<circle cx="804" cy="676" r="6" class="c0"/>
<circle cx="830" cy="918" r="6" class="c0"/>
<circle cx="664" cy="730" r="6" class="c0"/>
<circle cx="858" cy="1198" r="6" class="c0"/>
<circle cx="992" cy="1306" r="6" class="c0"/>
<circle cx="694" cy="608" r="6" class="c0"/>
<circle cx="950" cy="1406" r="6" class="c0"/>
<circle cx="916" cy="1208" r="6" class="c0"/>
<circle cx="962" cy="1082" r="6" class="c0"/>
<circle cx="934" cy="580" r="6" class="c0"/>
<circle cx="746" cy="602" r="6" class="c0"/>
<circle cx="704" cy="748" r="6" class="c0"/>
<circle cx="778" cy="1228" r="6" class="c0"/>
<circle cx="792" cy="946" r="6" class="c0"/>
<circle cx="788" cy="1184" r="6" class="c0"/>
<circle cx="938" cy="1050" r="6" class="c0"/>
<circle cx="880" cy="664" r="6" class="c0"/>
<circle cx="1048" cy="1038" r="6" class="c0"/>
<circle cx="826" cy="952" r="6" class="c0"/>
<circle cx="1028" cy="416" r="6" class="c0"/>
<circle cx="952" cy="728" r="6" class="c0"/>
<circle cx="1038" cy="1316" r="6" class="c0"/>
<circle cx="950" cy="1164" r="6" class="c0"/>
<circle cx="614" cy="1182" r="6" class="c0"/>
<circle cx="864" cy="988" r="6" class="c0"/>
<circle cx="812" cy="448" r="6" class="c0"/>
<circle cx="894" cy="578" r="6" class="c0"/>
<circle cx="840" cy="1048" r="6" class="c0"/>
<circle cx="836" cy="1172" r="6" class="c0"/>
<circle cx="992" cy="1248" r="6" class="c0"/>
<circle cx="944" cy="660" r="6" class="c0"/>
<circle cx="972" cy="1200" r="6" class="c0"/>
<circle cx="896" cy="296" r="6" class="c0"/>
<circle cx="728" cy="1298" r="6" class="c0"/>
<circle cx="674" cy="1084" r="6" class="c0"/>
<circle cx="706" cy="674" r="6" class="c0"/>
<circle cx="792" cy="828" r="6" class="c0"/>
<circle cx="970" cy="392" r="6" class="c0"/>
<circle cx="984" cy="718" r="6" class="c0"/>
<circle cx="900" cy="712" r="6" class="c0"/>
<circle cx="766" cy="1152" r="6" class="c0"/>
<circle cx="908" cy="780" r="6" class="c0"/>
<circle cx="918" cy="1008" r="6" class="c0"/>
<circle cx="1002" cy="654" r="6" class="c0"/>
<circle cx="976" cy="1364" r="6" class="c0"/>
<circle cx="834" cy="852" r="6" class="c0"/>
<circle cx="850" cy="490" r="6" class="c0"/>
<circle cx="856" cy="814" r="6" class="c0"/>
<circle cx="948" cy="924" r="6" class="c0"/>
<circle cx="1016" cy="1106" r="6" class="c0"/>
<circle cx="802" cy="332" r="6" class="c0"/>
<circle cx="842" cy="602" r="6" class="c0"/>
<circle cx="860" cy="794" r="6" class="c0"/>
<circle cx="762" cy="1336" r="6" class="c0"/>
<circle cx="678" cy="666" r="6" class="c0"/>
<circle cx="898" cy="542" r="6" class="c0"/>
<circle cx="1040" cy="694" r="6" class="c0"/>
<circle cx="778" cy="440" r="6" class="c0"/>
<circle cx="804" cy="544" r="6" class="c0"/>
<circle cx="926" cy="294" r="6" class="c0"/>
<circle cx="612" cy="1314" r="6" class="c0"/>
<circle cx="814" cy="618" r="6" class="c0"/>
<circle cx="820" cy="432" r="6" class="c0"/>
<circle cx="710" cy="1410" r="6" class="c0"/>
<circle cx="970" cy="808" r="6" class="c0"/>
<circle cx="836" cy="762" r="6" class="c0"/>
<circle cx="744" cy="580" r="6" class="c0"/>
<circle cx="842" cy="410" r="6" class="c0"/>
<circle cx="822" cy="1126" r="6" class="c0"/>
<circle cx="804" cy="1228" r="6" class="c0"/>
<circle cx="864" cy="1320" r="6" class="c0"/>
<circle cx="810" cy="1002" r="6" class="c0"/>
<circle cx="968" cy="412" r="6" class="c0"/>
<circle cx="956" cy="986" r="6" class="c0"/>
<circle cx="738" cy="1400" r="6" class="c0"/>
<circle cx="1000" cy="1044" r="6" class="c0"/>
<circle cx="590" cy="1236" r="6" class="c0"/>
<circle cx="894" cy="658" r="6" class="c0"/>
<circle cx="906" cy="1066" r="6" class="c0"/>
<circle cx="808" cy="502" r="6" class="c0"/>
<circle cx="888" cy="1042" r="6" class="c0"/>
<circle cx="648" cy="1324" r="6" class="c0"/>
<circle cx="916" cy="918" r="6" class="c0"/>
<circle cx="836" cy="900" r="6" class="c0"/>
<circle cx="822" cy="570" r="6" class="c0"/>
<circle cx="724" cy="704" r="6" class="c0"/>
<circle cx="860" cy="1250" r="6" class="c0"/>
<circle cx="898" cy="408" r="6" class="c0"/>
<circle cx="796" cy="1382" r="6" class="c0"/>
<circle cx="918" cy="1184" r="6" class="c0"/>
<circle cx="884" cy="440" r="6" class="c0"/>
<circle cx="942" cy="546" r="6" class="c0"/>
<circle cx="842" cy="832" r="6" class="c0"/>
<circle cx="644" cy="652" r="6" class="c0"/>
<circle cx="940" cy="1354" r="6" class="c0"/>
<circle cx="974" cy="1340" r="6" class="c0"/>
<circle cx="752" cy="1406" r="6" class="c0"/>
<circle cx="1016" cy="1274" r="6" class="c0"/>
<circle cx="732" cy="1088" r="6" class="c0"/>
<circle cx="834" cy="1152" r="6" class="c0"/>
</svg>
