<?xml version="1.0" encoding="utf-8"?>
<svg xmlns="http://www.w3.org/2000/svg"
     xmlns:xlink="http://www.w3.org/1999/xlink" width="1920" height="1440" >

            <defs>
            <style type="text/css"><![CDATA[
circle {stroke: none;}
.c0 {fill: #FFFFFF;}
]]></style>
            </defs>
<rect x="0" y="0" width="1920" height="1440" fill="black"/>
<circle cx="982" cy="1062" r="14" class="c0"/>
<circle cx="844" cy="562" r="14" class="c0"/>
<circle cx="1144" cy="1144" r="12" class="c0"/>
<circle cx="924" cy="1020" r="12" class="c0"/>
<circle cx="1040" cy="554" r="12" class="c0"/>
<circle cx="1102" cy="920" r="12" class="c0"/>
<circle cx="1048" cy="316" r="12" class="c0"/>
<circle cx="1086" cy="768" r="12" class="c0"/>
<circle cx="1012" cy="366" r="12" class="c0"/>
<circle cx="1068" cy="986" r="12" class="c0"/>
<circle cx="876" cy="748" r="12" class="c0"/>
<circle cx="858" cy="1386" r="12" class="c0"/>
<circle cx="980" cy="342" r="12" class="c0"/>
<circle cx="920" cy="1068" r="12" class="c0"/>
<circle cx="1052" cy="404" r="12" class="c0"/>
<circle cx="940" cy="644" r="12" class="c0"/>
<circle cx="1106" cy="1066" r="12" class="c0"/>
<circle cx="890" cy="538" r="12" class="c0"/>
<circle cx="774" cy="1216" r="12" class="c0"/>
<circle cx="1012" cy="1004" r="12" class="c0"/>
<circle cx="794" cy="1312" r="12" class="c0"/>
<circle cx="1050" cy="1312" r="12" class="c0"/>
<circle cx="1054" cy="1380" r="12" class="c0"/>
<circle cx="976" cy="482" r="12" class="c0"/>
<circle cx="982" cy="1282" r="12" class="c0"/>
<circle cx="848" cy="1156" r="12" class="c0"/>
<circle cx="1070" cy="830" r="12" class="c0"/>
<circle cx="822" cy="662" r="12" class="c0"/>
<circle cx="1104" cy="1220" r="12" class="c0"/>
<circle cx="778" cy="1296" r="12" class="c0"/>
<circle cx="868" cy="1206" r="12" class="c0"/>
<circle cx="832" cy="1362" r="12" class="c0"/>
<circle cx="1016" cy="960" r="12" class="c0"/>
<circle cx="1140" cy="1198" r="12" class="c0"/>
<circle cx="952" cy="744" r="12" class="c0"/>
<circle cx="1146" cy="1280" r="12" class="c0"/>
<circle cx="1060" cy="362" r="12" class="c0"/>
<circle cx="968" cy="1184" r="12" class="c0"/>
<circle cx="986" cy="390" r="12" class="c0"/>
<circle cx="872" cy="864" r="12" class="c0"/>
<circle cx="1008" cy="496" r="12" class="c0"/>
<circle cx="892" cy="884" r="12" class="c0"/>
<circle cx="864" cy="1280" r="12" class="c0"/>
<circle cx="1008" cy="818" r="12" class="c0"/>
<circle cx="986" cy="808" r="12" class="c0"/>
<circle cx="988" cy="712" r="12" class="c0"/>
<circle cx="1118" cy="1098" r="12" class="c0"/>
<circle cx="796" cy="1194" r="12" class="c0"/>
<circle cx="952" cy="1066" r="12" class="c0"/>
<circle cx="1012" cy="1242" r="12" class="c0"/>
<circle cx="1062" cy="612" r="12" class="c0"/>
<circle cx="798" cy="1338" r="12" class="c0"/>
<circle cx="838" cy="696" r="12" class="c0"/>
<circle cx="940" cy="1180" r="12" class="c0"/>
<circle cx="946" cy="1152" r="12" class="c0"/>
<circle cx="1088" cy="1332" r="12" class="c0"/>
<circle cx="930" cy="1130" r="12" class="c0"/>
<circle cx="1078" cy="650" r="12" class="c0"/>
<circle cx="870" cy="520" r="12" class="c0"/>
<circle cx="956" cy="436" r="12" class="c0"/>
<circle cx="1052" cy="1132" r="10" class="c0"/>
<circle cx="928" cy="840" r="10" class="c0"/>
<circle cx="916" cy="798" r="10" class="c0"/>
<circle cx="854" cy="588" r="10" class="c0"/>
<circle cx="1012" cy="1268" r="10" class="c0"/>
<circle cx="930" cy="1282" r="10" class="c0"/>
<circle cx="792" cy="1270" r="10" class="c0"/>
<circle cx="1132" cy="1050" r="10" class="c0"/>
<circle cx="1022" cy="310" r="10" class="c0"/>
<circle cx="1076" cy="1106" r="10" class="c0"/>
<circle cx="860" cy="782" r="10" class="c0"/>
<circle cx="964" cy="856" r="10" class="c0"/>
<circle cx="946" cy="918" r="10" class="c0"/>
<circle cx="782" cy="1138" r="10" class="c0"/>
<circle cx="994" cy="1112" r="10" class="c0"/>
<circle cx="948" cy="1354" r="10" class="c0"/>
<circle cx="764" cy="1242" r="10" class="c0"/>
<circle cx="954" cy="504" r="10" class="c0"/>
<circle cx="810" cy="1244" r="10" class="c0"/>
<circle cx="842" cy="1124" r="10" class="c0"/>
<circle cx="1048" cy="1264" r="10" class="c0"/>
<circle cx="1036" cy="852" r="10" class="c0"/>
<circle cx="1094" cy="952" r="10" class="c0"/>
<circle cx="930" cy="672" r="10" class="c0"/>
<circle cx="862" cy="658" r="10" class="c0"/>
<circle cx="878" cy="1370" r="10" class="c0"/>
<circle cx="1092" cy="1084" r="10" class="c0"/>
<circle cx="1176" cy="1248" r="10" class="c0"/>
<circle cx="948" cy="826" r="10" class="c0"/>
<circle cx="1032" cy="1286" r="10" class="c0"/>
<circle cx="1006" cy="870" r="10" class="c0"/>
<circle cx="816" cy="1038" r="10" class="c0"/>
<circle cx="1034" cy="436" r="10" class="c0"/>
<circle cx="1034" cy="1040" r="10" class="c0"/>
<circle cx="856" cy="1012" r="10" class="c0"/>
<circle cx="884" cy="1008" r="10" class="c0"/>
<circle cx="888" cy="1074" r="10" class="c0"/>
<circle cx="958" cy="562" r="10" class="c0"/>
<circle cx="876" cy="1030" r="10" class="c0"/>
<circle cx="976" cy="574" r="10" class="c0"/>
<circle cx="918" cy="1250" r="10" class="c0"/>
<circle cx="894" cy="680" r="10" class="c0"/>
<circle cx="836" cy="778" r="10" class="c0"/>
<circle cx="898" cy="1110" r="10" class="c0"/>
<circle cx="944" cy="882" r="10" class="c0"/>
<circle cx="748" cy="1266" r="10" class="c0"/>
<circle cx="822" cy="1106" r="10" class="c0"/>
<circle cx="922" cy="992" r="10" class="c0"/>
<circle cx="934" cy="344" r="10" class="c0"/>
<circle cx="1148" cy="1110" r="10" class="c0"/>
<circle cx="930" cy="762" r="10" class="c0"/>
<circle cx="922" cy="362" r="10" class="c0"/>
<circle cx="892" cy="482" r="10" class="c0"/>
<circle cx="1088" cy="594" r="10" class="c0"/>
<circle cx="1004" cy="748" r="10" class="c0"/>
<circle cx="986" cy="1168" r="10" class="c0"/>
<circle cx="828" cy="1422" r="10" class="c0"/>
<circle cx="888" cy="1128" r="10" class="c0"/>
<circle cx="992" cy="610" r="10" class="c0"/>
<circle cx="1014" cy="1178" r="10" class="c0"/>
<circle cx="1178" cy="1290" r="10" class="c0"/>
<circle cx="1030" cy="930" r="10" class="c0"/>
<circle cx="1008" cy="1218" r="10" class="c0"/>
<circle cx="740" cy="1234" r="10" class="c0"/>
<circle cx="1006" cy="430" r="10" class="c0"/>
<circle cx="910" cy="1188" r="10" class="c0"/>
<circle cx="1072" cy="330" r="10" class="c0"/>
<circle cx="836" cy="620" r="10" class="c0"/>
<circle cx="1084" cy="734" r="10" class="c0"/>
<circle cx="936" cy="1314" r="10" class="c0"/>
<circle cx="830" cy="1254" r="10" class="c0"/>
<circle cx="1046" cy="1224" r="10" class="c0"/>
<circle cx="964" cy="714" r="10" class="c0"/>
<circle cx="1080" cy="390" r="10" class="c0"/>
<circle cx="1108" cy="698" r="10" class="c0"/>
<circle cx="972" cy="1216" r="10" class="c0"/>
<circle cx="896" cy="618" r="10" class="c0"/>
<circle cx="854" cy="1094" r="10" class="c0"/>
<circle cx="878" cy="1318" r="10" class="c0"/>
<circle cx="1096" cy="1034" r="10" class="c0"/>
<circle cx="958" cy="1020" r="10" class="c0"/>
<circle cx="1202" cy="1300" r="10" class="c0"/>
<circle cx="1100" cy="1000" r="10" class="c0"/>
<circle cx="842" cy="1342" r="10" class="c0"/>
<circle cx="828" cy="1212" r="10" class="c0"/>
<circle cx="832" cy="1004" r="10" class="c0"/>
<circle cx="1000" cy="896" r="10" class="c0"/>
<circle cx="904" cy="1050" r="10" class="c0"/>
<circle cx="822" cy="730" r="10" class="c0"/>
<circle cx="1000" cy="1294" r="10" class="c0"/>
<circle cx="1112" cy="664" r="10" class="c0"/>
<circle cx="982" cy="1348" r="10" class="c0"/>
<circle cx="1082" cy="1236" r="10" class="c0"/>
<circle cx="1174" cy="1198" r="10" class="c0"/>
<circle cx="1128" cy="990" r="10" class="c0"/>
<circle cx="976" cy="772" r="10" class="c0"/>
<circle cx="1132" cy="1250" r="10" class="c0"/>
<circle cx="850" cy="672" r="10" class="c0"/>
<circle cx="962" cy="526" r="10" class="c0"/>
<circle cx="1122" cy="1026" r="10" class="c0"/>
<circle cx="812" cy="972" r="10" class="c0"/>
<circle cx="830" cy="808" r="10" class="c0"/>
<circle cx="888" cy="646" r="10" class="c0"/>
<circle cx="1042" cy="946" r="10" class="c0"/>
<circle cx="862" cy="956" r="10" class="c0"/>
<circle cx="958" cy="626" r="10" class="c0"/>
<circle cx="880" cy="920" r="10" class="c0"/>
<circle cx="1162" cy="1172" r="10" class="c0"/>
<circle cx="1000" cy="312" r="10" class="c0"/>
<circle cx="1052" cy="642" r="10" class="c0"/>
<circle cx="1084" cy="1386" r="10" class="c0"/>
<circle cx="1156" cy="1086" r="10" class="c0"/>
<circle cx="876" cy="1174" r="10" class="c0"/>
<circle cx="1206" cy="1226" r="10" class="c0"/>
<circle cx="882" cy="694" r="10" class="c0"/>
<circle cx="942" cy="372" r="10" class="c0"/>
<circle cx="1030" cy="380" r="10" class="c0"/>
<circle cx="1036" cy="704" r="10" class="c0"/>
<circle cx="780" cy="1108" r="10" class="c0"/>
<circle cx="870" cy="1232" r="10" class="c0"/>
<circle cx="830" cy="1074" r="10" class="c0"/>
<circle cx="878" cy="1262" r="10" class="c0"/>
<circle cx="848" cy="844" r="10" class="c0"/>
<circle cx="912" cy="860" r="10" class="c0"/>
<circle cx="1046" cy="448" r="10" class="c0"/>
<circle cx="916" cy="514" r="10" class="c0"/>
<circle cx="1058" cy="572" r="10" class="c0"/>
<circle cx="1030" cy="794" r="10" class="c0"/>
<circle cx="874" cy="820" r="10" class="c0"/>
<circle cx="808" cy="1142" r="10" class="c0"/>
<circle cx="920" cy="904" r="10" class="c0"/>
<circle cx="1034" cy="1210" r="10" class="c0"/>
<circle cx="1038" cy="664" r="10" class="c0"/>
<circle cx="904" cy="462" r="10" class="c0"/>
<circle cx="934" cy="978" r="10" class="c0"/>
<circle cx="908" cy="592" r="10" class="c0"/>
<circle cx="1040" cy="1080" r="10" class="c0"/>
<circle cx="908" cy="420" r="10" class="c0"/>
<circle cx="982" cy="656" r="10" class="c0"/>
<circle cx="904" cy="982" r="10" class="c0"/>
<circle cx="992" cy="942" r="10" class="c0"/>
<circle cx="812" cy="1164" r="10" class="c0"/>
<circle cx="1124" cy="716" r="10" class="c0"/>
<circle cx="986" cy="634" r="10" class="c0"/>
<circle cx="1094" cy="1272" r="10" class="c0"/>
<circle cx="862" cy="612" r="10" class="c0"/>
<circle cx="1114" cy="1282" r="10" class="c0"/>
<circle cx="946" cy="1238" r="10" class="c0"/>
<circle cx="1030" cy="746" r="10" class="c0"/>
<circle cx="926" cy="694" r="10" class="c0"/>
<circle cx="1152" cy="1234" r="10" class="c0"/>
<circle cx="814" cy="710" r="10" class="c0"/>
<circle cx="966" cy="1304" r="10" class="c0"/>
<circle cx="974" cy="1146" r="10" class="c0"/>
<circle cx="1088" cy="1294" r="10" class="c0"/>
<circle cx="1082" cy="564" r="10" class="c0"/>
<circle cx="932" cy="1366" r="10" class="c0"/>
<circle cx="1028" cy="898" r="10" class="c0"/>
<circle cx="1012" cy="406" r="10" class="c0"/>
<circle cx="900" cy="1156" r="10" class="c0"/>
<circle cx="828" cy="836" r="10" class="c0"/>
<circle cx="924" cy="1204" r="10" class="c0"/>
<circle cx="1064" cy="1020" r="10" class="c0"/>
<circle cx="1064" cy="1194" r="10" class="c0"/>
<circle cx="976" cy="920" r="10" class="c0"/>
<circle cx="998" cy="1040" r="10" class="c0"/>
<circle cx="990" cy="512" r="10" class="c0"/>
<circle cx="930" cy="1044" r="10" class="c0"/>
<circle cx="852" cy="1310" r="10" class="c0"/>
<circle cx="964" cy="794" r="10" class="c0"/>
<circle cx="934" cy="530" r="10" class="c0"/>
<circle cx="1118" cy="1312" r="10" class="c0"/>
<circle cx="844" cy="1038" r="10" class="c0"/>
<circle cx="842" cy="964" r="10" class="c0"/>
<circle cx="1070" cy="1260" r="10" class="c0"/>
<circle cx="1058" cy="1416" r="10" class="c0"/>
<circle cx="1076" cy="1310" r="10" class="c0"/>
<circle cx="1018" cy="466" r="10" class="c0"/>
<circle cx="1018" cy="1060" r="10" class="c0"/>
<circle cx="974" cy="458" r="10" class="c0"/>
<circle cx="902" cy="1310" r="10" class="c0"/>
<circle cx="840" cy="1188" r="10" class="c0"/>
<circle cx="1036" cy="818" r="10" class="c0"/>
<circle cx="1098" cy="1164" r="10" class="c0"/>
<circle cx="934" cy="784" r="10" class="c0"/>
<circle cx="928" cy="584" r="10" class="c0"/>
<circle cx="1056" cy="1288" r="10" class="c0"/>
<circle cx="1070" cy="1080" r="10" class="c0"/>
<circle cx="800" cy="1074" r="10" class="c0"/>
<circle cx="1086" cy="868" r="10" class="c0"/>
<circle cx="928" cy="490" r="10" class="c0"/>
<circle cx="818" cy="1392" r="10" class="c0"/>
<circle cx="730" cy="1274" r="8" class="c0"/>
<circle cx="1194" cy="1274" r="8" class="c0"/>
<circle cx="956" cy="332" r="8" class="c0"/>
<circle cx="852" cy="824" r="8" class="c0"/>
<circle cx="1130" cy="1166" r="8" class="c0"/>
<circle cx="744" cy="1194" r="8" class="c0"/>
<circle cx="848" cy="990" r="8" class="c0"/>
<circle cx="878" cy="772" r="8" class="c0"/>
<circle cx="1026" cy="580" r="8" class="c0"/>
<circle cx="878" cy="1112" r="8" class="c0"/>
<circle cx="910" cy="960" r="8" class="c0"/>
<circle cx="1002" cy="562" r="8" class="c0"/>
<circle cx="1088" cy="418" r="8" class="c0"/>
<circle cx="970" cy="312" r="8" class="c0"/>
<circle cx="890" cy="1210" r="8" class="c0"/>
<circle cx="1040" cy="1114" r="8" class="c0"/>
<circle cx="810" cy="636" r="8" class="c0"/>
<circle cx="1074" cy="1150" r="8" class="c0"/>
<circle cx="1104" cy="636" r="8" class="c0"/>
<circle cx="970" cy="994" r="8" class="c0"/>
<circle cx="848" cy="752" r="8" class="c0"/>
<circle cx="852" cy="882" r="8" class="c0"/>
<circle cx="880" cy="566" r="8" class="c0"/>
<circle cx="948" cy="1200" r="8" class="c0"/>
<circle cx="1066" cy="952" r="8" class="c0"/>
<circle cx="1082" cy="964" r="8" class="c0"/>
<circle cx="838" cy="944" r="8" class="c0"/>
<circle cx="850" cy="638" r="8" class="c0"/>
<circle cx="864" cy="1078" r="8" class="c0"/>
<circle cx="942" cy="1106" r="8" class="c0"/>
<circle cx="966" cy="1250" r="8" class="c0"/>
<circle cx="1064" cy="430" r="8" class="c0"/>
<circle cx="908" cy="772" r="8" class="c0"/>
<circle cx="894" cy="1286" r="8" class="c0"/>
<circle cx="916" cy="1102" r="8" class="c0"/>
<circle cx="856" cy="1418" r="8" class="c0"/>
<circle cx="1038" cy="1352" r="8" class="c0"/>
<circle cx="998" cy="1370" r="8" class="c0"/>
<circle cx="1024" cy="1310" r="8" class="c0"/>
<circle cx="966" cy="672" r="8" class="c0"/>
<circle cx="858" cy="728" r="8" class="c0"/>
<circle cx="936" cy="1004" r="8" class="c0"/>
<circle cx="986" cy="850" r="8" class="c0"/>
<circle cx="972" cy="420" r="8" class="c0"/>
<circle cx="918" cy="392" r="8" class="c0"/>
<circle cx="874" cy="490" r="8" class="c0"/>
<circle cx="944" cy="574" r="8" class="c0"/>
<circle cx="1014" cy="666" r="8" class="c0"/>
<circle cx="1112" cy="618" r="8" class="c0"/>
<circle cx="944" cy="956" r="8" class="c0"/>
<circle cx="1022" cy="334" r="8" class="c0"/>
<circle cx="840" cy="1322" r="8" class="c0"/>
<circle cx="1088" cy="1118" r="8" class="c0"/>
<circle cx="868" cy="546" r="8" class="c0"/>
<circle cx="1002" cy="920" r="8" class="c0"/>
<circle cx="1098" cy="576" r="8" class="c0"/>
<circle cx="860" cy="936" r="8" class="c0"/>
<circle cx="844" cy="1266" r="8" class="c0"/>
<circle cx="966" cy="892" r="8" class="c0"/>
<circle cx="956" cy="412" r="8" class="c0"/>
<circle cx="804" cy="1428" r="8" class="c0"/>
<circle cx="1050" cy="1000" r="8" class="c0"/>
<circle cx="1148" cy="1068" r="8" class="c0"/>
<circle cx="1010" cy="1122" r="8" class="c0"/>
<circle cx="1092" cy="1362" r="8" class="c0"/>
<circle cx="1100" cy="400" r="8" class="c0"/>
<circle cx="794" cy="1052" r="8" class="c0"/>
<circle cx="886" cy="790" r="8" class="c0"/>
<circle cx="892" cy="1244" r="8" class="c0"/>
<circle cx="962" cy="646" r="8" class="c0"/>
<circle cx="1178" cy="1156" r="8" class="c0"/>
<circle cx="940" cy="712" r="8" class="c0"/>
<circle cx="1098" cy="714" r="8" class="c0"/>
<circle cx="1056" cy="1164" r="8" class="c0"/>
<circle cx="1012" cy="602" r="8" class="c0"/>
<circle cx="868" cy="1146" r="8" class="c0"/>
<circle cx="904" cy="744" r="8" class="c0"/>
<circle cx="748" cy="1148" r="8" class="c0"/>
<circle cx="1120" cy="1156" r="8" class="c0"/>
<circle cx="1130" cy="1296" r="8" class="c0"/>
<circle cx="970" cy="1324" r="8" class="c0"/>
<circle cx="1038" cy="1166" r="8" class="c0"/>
<circle cx="1094" cy="1250" r="8" class="c0"/>
<circle cx="786" cy="1168" r="8" class="c0"/>
<circle cx="1162" cy="1302" r="8" class="c0"/>
<circle cx="1034" cy="600" r="8" class="c0"/>
<circle cx="944" cy="1296" r="8" class="c0"/>
<circle cx="1124" cy="640" r="8" class="c0"/>
<circle cx="768" cy="1326" r="8" class="c0"/>
<circle cx="1034" cy="876" r="8" class="c0"/>
<circle cx="1092" cy="1194" r="8" class="c0"/>
<circle cx="1000" cy="768" r="8" class="c0"/>
<circle cx="830" cy="1300" r="8" class="c0"/>
<circle cx="974" cy="1372" r="8" class="c0"/>
<circle cx="852" cy="804" r="8" class="c0"/>
<circle cx="958" cy="1270" r="8" class="c0"/>
<circle cx="864" cy="1126" r="8" class="c0"/>
<circle cx="1102" cy="1128" r="8" class="c0"/>
<circle cx="1120" cy="960" r="8" class="c0"/>
<circle cx="936" cy="860" r="8" class="c0"/>
<circle cx="894" cy="824" r="8" class="c0"/>
<circle cx="880" cy="1052" r="8" class="c0"/>
<circle cx="1076" cy="1430" r="8" class="c0"/>
<circle cx="820" cy="1278" r="8" class="c0"/>
<circle cx="916" cy="820" r="8" class="c0"/>
<circle cx="1026" cy="724" r="8" class="c0"/>
<circle cx="1068" cy="1362" r="8" class="c0"/>
<circle cx="840" cy="906" r="8" class="c0"/>
<circle cx="748" cy="1176" r="8" class="c0"/>
<circle cx="954" cy="1120" r="8" class="c0"/>
<circle cx="834" cy="1234" r="8" class="c0"/>
<circle cx="934" cy="564" r="8" class="c0"/>
<circle cx="786" cy="1086" r="8" class="c0"/>
<circle cx="946" cy="478" r="8" class="c0"/>
<circle cx="918" cy="726" r="8" class="c0"/>
<circle cx="828" cy="1026" r="8" class="c0"/>
<circle cx="946" cy="1332" r="8" class="c0"/>
<circle cx="1054" cy="912" r="8" class="c0"/>
<circle cx="990" cy="292" r="8" class="c0"/>
<circle cx="940" cy="1262" r="8" class="c0"/>
<circle cx="1016" cy="1334" r="8" class="c0"/>
<circle cx="1072" cy="1220" r="8" class="c0"/>
<circle cx="1016" cy="1148" r="8" class="c0"/>
<circle cx="846" cy="864" r="8" class="c0"/>
<circle cx="990" cy="1198" r="8" class="c0"/>
<circle cx="920" cy="1152" r="8" class="c0"/>
<circle cx="994" cy="590" r="8" class="c0"/>
<circle cx="978" cy="1238" r="8" class="c0"/>
<circle cx="1062" cy="1052" r="8" class="c0"/>
<circle cx="1036" cy="766" r="8" class="c0"/>
<circle cx="982" cy="1124" r="8" class="c0"/>
<circle cx="898" cy="1348" r="8" class="c0"/>
<circle cx="992" cy="980" r="8" class="c0"/>
<circle cx="968" cy="400" r="8" class="c0"/>
<circle cx="1030" cy="1132" r="8" class="c0"/>
<circle cx="750" cy="1216" r="8" class="c0"/>
<circle cx="916" cy="934" r="8" class="c0"/>
<circle cx="988" cy="1254" r="8" class="c0"/>
<circle cx="1020" cy="840" r="8" class="c0"/>
<circle cx="1024" cy="642" r="8" class="c0"/>
<circle cx="930" cy="470" r="8" class="c0"/>
<circle cx="822" cy="1334" r="8" class="c0"/>
<circle cx="750" cy="1300" r="8" class="c0"/>
<circle cx="1184" cy="1174" r="8" class="c0"/>
<circle cx="1004" cy="644" r="8" class="c0"/>
<circle cx="1058" cy="1348" r="8" class="c0"/>
<circle cx="1132" cy="1218" r="8" class="c0"/>
<circle cx="884" cy="964" r="8" class="c0"/>
<circle cx="998" cy="1136" r="8" class="c0"/>
<circle cx="1020" cy="690" r="8" class="c0"/>
<circle cx="994" cy="674" r="8" class="c0"/>
<circle cx="856" cy="534" r="8" class="c0"/>
<circle cx="1032" cy="1098" r="8" class="c0"/>
<circle cx="900" cy="1018" r="8" class="c0"/>
<circle cx="986" cy="874" r="8" class="c0"/>
<circle cx="876" cy="1346" r="8" class="c0"/>
<circle cx="1142" cy="1314" r="8" class="c0"/>
<circle cx="810" cy="952" r="8" class="c0"/>
<circle cx="882" cy="940" r="8" class="c0"/>
<circle cx="894" cy="1380" r="8" class="c0"/>
<circle cx="952" cy="768" r="8" class="c0"/>
<circle cx="1028" cy="484" r="8" class="c0"/>
<circle cx="1038" cy="1018" r="8" class="c0"/>
<circle cx="868" cy="986" r="8" class="c0"/>
<circle cx="770" cy="1154" r="8" class="c0"/>
<circle cx="912" cy="342" r="8" class="c0"/>
<circle cx="1164" cy="1130" r="8" class="c0"/>
<circle cx="1082" cy="890" r="8" class="c0"/>
<circle cx="1076" cy="910" r="8" class="c0"/>
<circle cx="880" cy="604" r="8" class="c0"/>
<circle cx="982" cy="438" r="8" class="c0"/>
<circle cx="934" cy="440" r="8" class="c0"/>
<circle cx="906" cy="440" r="8" class="c0"/>
<circle cx="1080" cy="934" r="8" class="c0"/>
<circle cx="1046" cy="726" r="8" class="c0"/>
<circle cx="956" cy="468" r="8" class="c0"/>
<circle cx="1058" cy="868" r="8" class="c0"/>
<circle cx="1100" cy="978" r="8" class="c0"/>
<circle cx="954" cy="1088" r="8" class="c0"/>
<circle cx="864" cy="1044" r="8" class="c0"/>
<circle cx="1082" cy="792" r="8" class="c0"/>
<circle cx="868" cy="896" r="8" class="c0"/>
<circle cx="766" cy="1274" r="8" class="c0"/>
<circle cx="862" cy="1358" r="8" class="c0"/>
<circle cx="972" cy="734" r="8" class="c0"/>
<circle cx="768" cy="1350" r="8" class="c0"/>
<circle cx="764" cy="1196" r="8" class="c0"/>
<circle cx="978" cy="1038" r="8" class="c0"/>
<circle cx="1058" cy="930" r="8" class="c0"/>
<circle cx="1136" cy="1080" r="8" class="c0"/>
<circle cx="982" cy="960" r="8" class="c0"/>
<circle cx="1054" cy="340" r="8" class="c0"/>
<circle cx="1146" cy="1036" r="8" class="c0"/>
<circle cx="954" cy="692" r="8" class="c0"/>
<circle cx="1046" cy="968" r="8" class="c0"/>
<circle cx="900" cy="1088" r="8" class="c0"/>
<circle cx="988" cy="1024" r="8" class="c0"/>
<circle cx="902" cy="1230" r="8" class="c0"/>
<circle cx="808" cy="1356" r="8" class="c0"/>
<circle cx="964" cy="944" r="8" class="c0"/>
<circle cx="990" cy="736" r="8" class="c0"/>
<circle cx="822" cy="790" r="8" class="c0"/>
<circle cx="996" cy="1088" r="8" class="c0"/>
<circle cx="960" cy="1042" r="8" class="c0"/>
<circle cx="1084" cy="1014" r="8" class="c0"/>
<circle cx="808" cy="780" r="8" class="c0"/>
<circle cx="1044" cy="1058" r="8" class="c0"/>
<circle cx="918" cy="638" r="8" class="c0"/>
<circle cx="1172" cy="1224" r="8" class="c0"/>
<circle cx="758" cy="1126" r="8" class="c0"/>
<circle cx="1002" cy="526" r="8" class="c0"/>
<circle cx="834" cy="1402" r="8" class="c0"/>
<circle cx="1134" cy="694" r="8" class="c0"/>
<circle cx="1048" cy="886" r="8" class="c0"/>
<circle cx="860" cy="912" r="8" class="c0"/>
<circle cx="902" cy="660" r="8" class="c0"/>
<circle cx="1084" cy="366" r="8" class="c0"/>
<circle cx="1192" cy="1210" r="8" class="c0"/>
<circle cx="900" cy="922" r="8" class="c0"/>
<circle cx="1012" cy="544" r="8" class="c0"/>
<circle cx="998" cy="476" r="8" class="c0"/>
<circle cx="1114" cy="938" r="8" class="c0"/>
<circle cx="1022" cy="1110" r="8" class="c0"/>
<circle cx="1058" cy="804" r="8" class="c0"/>
<circle cx="1040" cy="684" r="8" class="c0"/>
<circle cx="944" cy="802" r="8" class="c0"/>
<circle cx="784" cy="1234" r="8" class="c0"/>
<circle cx="874" cy="470" r="8" class="c0"/>
<circle cx="968" cy="608" r="8" class="c0"/>
<circle cx="878" cy="842" r="8" class="c0"/>
<circle cx="1068" cy="854" r="8" class="c0"/>
<circle cx="812" cy="1222" r="8" class="c0"/>
<circle cx="942" cy="422" r="8" class="c0"/>
<circle cx="1022" cy="982" r="8" class="c0"/>
<circle cx="1070" cy="1404" r="8" class="c0"/>
<circle cx="1122" cy="1138" r="8" class="c0"/>
<circle cx="1082" cy="1066" r="8" class="c0"/>
<circle cx="1084" cy="622" r="8" class="c0"/>
<circle cx="984" cy="546" r="8" class="c0"/>
<circle cx="946" cy="396" r="8" class="c0"/>
<circle cx="782" cy="1252" r="8" class="c0"/>
<circle cx="986" cy="1314" r="8" class="c0"/>
<circle cx="954" cy="980" r="8" class="c0"/>
<circle cx="884" cy="722" r="8" class="c0"/>
<circle cx="1000" cy="696" r="8" class="c0"/>
<circle cx="1134" cy="1014" r="8" class="c0"/>
<circle cx="1010" cy="1360" r="8" class="c0"/>
<circle cx="774" cy="1186" r="8" class="c0"/>
<circle cx="1112" cy="728" r="8" class="c0"/>
<circle cx="1180" cy="1310" r="8" class="c0"/>
<circle cx="832" cy="600" r="8" class="c0"/>
<circle cx="806" cy="1122" r="8" class="c0"/>
<circle cx="1106" cy="752" r="8" class="c0"/>
<circle cx="820" cy="990" r="8" class="c0"/>
<circle cx="826" cy="932" r="8" class="c0"/>
<circle cx="818" cy="1058" r="8" class="c0"/>
<circle cx="964" cy="1162" r="8" class="c0"/>
<circle cx="856" cy="706" r="8" class="c0"/>
<circle cx="1198" cy="1250" r="8" class="c0"/>
<circle cx="818" cy="820" r="8" class="c0"/>
<circle cx="988" cy="784" r="8" class="c0"/>
<circle cx="1078" cy="1168" r="8" class="c0"/>
<circle cx="786" cy="1354" r="8" class="c0"/>
<circle cx="934" cy="612" r="8" class="c0"/>
<circle cx="1098" cy="1430" r="8" class="c0"/>
<circle cx="898" cy="504" r="8" class="c0"/>
<circle cx="886" cy="446" r="8" class="c0"/>
<circle cx="1000" cy="1324" r="8" class="c0"/>
<circle cx="714" cy="1238" r="8" class="c0"/>
<circle cx="1024" cy="622" r="8" class="c0"/>
<circle cx="1120" cy="1190" r="8" class="c0"/>
<circle cx="898" cy="572" r="8" class="c0"/>
<circle cx="966" cy="1106" r="8" class="c0"/>
<circle cx="726" cy="1216" r="8" class="c0"/>
<circle cx="1080" cy="440" r="8" class="c0"/>
<circle cx="956" cy="902" r="8" class="c0"/>
<circle cx="1028" cy="532" r="8" class="c0"/>
<circle cx="984" cy="754" r="8" class="c0"/>
<circle cx="914" cy="544" r="8" class="c0"/>
<circle cx="1200" cy="1320" r="8" class="c0"/>
<circle cx="940" cy="1218" r="8" class="c0"/>
<circle cx="972" cy="834" r="8" class="c0"/>
<circle cx="968" cy="366" r="8" class="c0"/>
<circle cx="1076" cy="350" r="8" class="c0"/>
<circle cx="866" cy="1336" r="8" class="c0"/>
<circle cx="980" cy="684" r="8" class="c0"/>
<circle cx="1034" cy="1248" r="8" class="c0"/>
<circle cx="870" cy="676" r="8" class="c0"/>
<circle cx="928" cy="412" r="8" class="c0"/>
<circle cx="920" cy="880" r="8" class="c0"/>
<circle cx="1054" cy="1096" r="8" class="c0"/>
<circle cx="910" cy="1364" r="8" class="c0"/>
<circle cx="1218" cy="1250" r="8" class="c0"/>
<circle cx="842" cy="1284" r="8" class="c0"/>
<circle cx="878" cy="1294" r="8" class="c0"/>
<circle cx="852" cy="1062" r="8" class="c0"/>
<circle cx="1076" cy="1282" r="8" class="c0"/>
<circle cx="824" cy="762" r="8" class="c0"/>
<circle cx="890" cy="1186" r="8" class="c0"/>
<circle cx="992" cy="832" r="8" class="c0"/>
<circle cx="920" cy="1348" r="8" class="c0"/>
<circle cx="1068" cy="588" r="8" class="c0"/>
<circle cx="1002" cy="1158" r="8" class="c0"/>
<circle cx="930" cy="1086" r="8" class="c0"/>
<circle cx="924" cy="1226" r="8" class="c0"/>
<circle cx="1088" cy="1420" r="8" class="c0"/>
<circle cx="908" cy="1274" r="8" class="c0"/>
<circle cx="1034" cy="360" r="8" class="c0"/>
<circle cx="724" cy="1252" r="8" class="c0"/>
<circle cx="1064" cy="778" r="8" class="c0"/>
<circle cx="1072" cy="1042" r="8" class="c0"/>
<circle cx="1124" cy="678" r="8" class="c0"/>
<circle cx="910" cy="562" r="8" class="c0"/>
<circle cx="1044" cy="470" r="8" class="c0"/>
<circle cx="1100" cy="896" r="8" class="c0"/>
<circle cx="1082" cy="1208" r="8" class="c0"/>
<circle cx="1012" cy="710" r="8" class="c0"/>
<circle cx="918" cy="1298" r="8" class="c0"/>
<circle cx="960" cy="350" r="8" class="c0"/>
<circle cx="910" cy="1328" r="8" class="c0"/>
<circle cx="1156" cy="1214" r="8" class="c0"/>
<circle cx="982" cy="1006" r="8" class="c0"/>
<circle cx="892" cy="762" r="8" class="c0"/>
<circle cx="900" cy="944" r="8" class="c0"/>
<circle cx="796" cy="1098" r="8" class="c0"/>
<circle cx="944" cy="454" r="8" class="c0"/>
<circle cx="1106" cy="1260" r="8" class="c0"/>
<circle cx="972" cy="972" r="8" class="c0"/>
<circle cx="996" cy="448" r="8" class="c0"/>
<circle cx="802" cy="1288" r="8" class="c0"/>
<circle cx="858" cy="1246" r="8" class="c0"/>
<circle cx="850" cy="926" r="8" class="c0"/>
<circle cx="808" cy="684" r="8" class="c0"/>
<circle cx="830" cy="1142" r="8" class="c0"/>
<circle cx="868" cy="576" r="8" class="c0"/>
<circle cx="1048" cy="1180" r="8" class="c0"/>
<circle cx="1054" cy="768" r="8" class="c0"/>
<circle cx="852" cy="1220" r="8" class="c0"/>
<circle cx="1084" cy="810" r="8" class="c0"/>
<circle cx="1194" cy="1190" r="8" class="c0"/>
<circle cx="1064" cy="1330" r="8" class="c0"/>
<circle cx="908" cy="492" r="8" class="c0"/>
<circle cx="1038" cy="1330" r="8" class="c0"/>
<circle cx="902" cy="710" r="8" class="c0"/>
<circle cx="1134" cy="1122" r="8" class="c0"/>
<circle cx="1016" cy="1198" r="8" class="c0"/>
<circle cx="1112" cy="414" r="8" class="c0"/>
<circle cx="1046" cy="1400" r="8" class="c0"/>
<circle cx="962" cy="814" r="8" class="c0"/>
<circle cx="1052" cy="840" r="8" class="c0"/>
<circle cx="956" cy="592" r="8" class="c0"/>
<circle cx="1214" cy="1274" r="8" class="c0"/>
<circle cx="916" cy="616" r="8" class="c0"/>
<circle cx="922" cy="1170" r="8" class="c0"/>
<circle cx="898" cy="806" r="8" class="c0"/>
<circle cx="972" cy="1086" r="8" class="c0"/>
<circle cx="1188" cy="1236" r="8" class="c0"/>
<circle cx="1134" cy="662" r="8" class="c0"/>
<circle cx="1006" cy="1074" r="8" class="c0"/>
<circle cx="898" cy="1264" r="8" class="c0"/>
<circle cx="1168" cy="1272" r="8" class="c0"/>
<circle cx="1032" cy="412" r="8" class="c0"/>
<circle cx="1012" cy="786" r="8" class="c0"/>
<circle cx="1012" cy="910" r="8" class="c0"/>
<circle cx="876" cy="1090" r="8" class="c0"/>
<circle cx="1002" cy="348" r="8" class="c0"/>
<circle cx="1232" cy="1262" r="6" class="c0"/>
<circle cx="1030" cy="996" r="6" class="c0"/>
<circle cx="824" cy="1316" r="6" class="c0"/>
<circle cx="872" cy="632" r="6" class="c0"/>
<circle cx="900" cy="844" r="6" class="c0"/>
<circle cx="1118" cy="1236" r="6" class="c0"/>
<circle cx="1082" cy="1134" r="6" class="c0"/>
<circle cx="804" cy="1380" r="6" class="c0"/>
<circle cx="822" cy="1180" r="6" class="c0"/>
<circle cx="1100" cy="792" r="6" class="c0"/>
<circle cx="814" cy="1410" r="6" class="c0"/>
<circle cx="966" cy="874" r="6" class="c0"/>
<circle cx="948" cy="936" r="6" class="c0"/>
<circle cx="918" cy="1378" r="6" class="c0"/>
<circle cx="994" cy="996" r="6" class="c0"/>
<circle cx="928" cy="628" r="6" class="c0"/>
<circle cx="986" cy="368" r="6" class="c0"/>
<circle cx="1064" cy="892" r="6" class="c0"/>
<circle cx="950" cy="674" r="6" class="c0"/>
<circle cx="912" cy="674" r="6" class="c0"/>
<circle cx="906" cy="1136" r="6" class="c0"/>
<circle cx="1102" cy="680" r="6" class="c0"/>
<circle cx="1042" cy="1146" r="6" class="c0"/>
<circle cx="1124" cy="1334" r="6" class="c0"/>
<circle cx="894" cy="1034" r="6" class="c0"/>
<circle cx="1044" cy="626" r="6" class="c0"/>
<circle cx="1012" cy="1030" r="6" class="c0"/>
<circle cx="758" cy="1316" r="6" class="c0"/>
<circle cx="1022" cy="1020" r="6" class="c0"/>
<circle cx="1008" cy="296" r="6" class="c0"/>
<circle cx="862" cy="1184" r="6" class="c0"/>
<circle cx="1042" cy="1430" r="6" class="c0"/>
<circle cx="928" cy="950" r="6" class="c0"/>
<circle cx="814" cy="1012" r="6" class="c0"/>
<circle cx="1104" cy="602" r="6" class="c0"/>
<circle cx="1102" cy="1110" r="6" class="c0"/>
<circle cx="1064" cy="1240" r="6" class="c0"/>
<circle cx="1106" cy="1298" r="6" class="c0"/>
<circle cx="950" cy="1374" r="6" class="c0"/>
<circle cx="1038" cy="914" r="6" class="c0"/>
<circle cx="836" cy="648" r="6" class="c0"/>
<circle cx="922" cy="456" r="6" class="c0"/>
<circle cx="1008" cy="386" r="6" class="c0"/>
<circle cx="728" cy="1190" r="6" class="c0"/>
<circle cx="1070" cy="878" r="6" class="c0"/>
<circle cx="1006" cy="622" r="6" class="c0"/>
<circle cx="792" cy="1152" r="6" class="c0"/>
<circle cx="1158" cy="1256" r="6" class="c0"/>
<circle cx="898" cy="404" r="6" class="c0"/>
<circle cx="1046" cy="424" r="6" class="c0"/>
<circle cx="834" cy="716" r="6" class="c0"/>
<circle cx="1098" cy="652" r="6" class="c0"/>
<circle cx="1010" cy="940" r="6" class="c0"/>
<circle cx="1018" cy="764" r="6" class="c0"/>
<circle cx="900" cy="388" r="6" class="c0"/>
<circle cx="854" cy="1136" r="6" class="c0"/>
<circle cx="836" cy="1384" r="6" class="c0"/>
<circle cx="1140" cy="1176" r="6" class="c0"/>
<circle cx="1004" cy="330" r="6" class="c0"/>
<circle cx="1104" cy="1342" r="6" class="c0"/>
<circle cx="826" cy="638" r="6" class="c0"/>
<circle cx="1000" cy="726" r="6" class="c0"/>
<circle cx="954" cy="1316" r="6" class="c0"/>
<circle cx="762" cy="1110" r="6" class="c0"/>
<circle cx="1098" cy="1308" r="6" class="c0"/>
<circle cx="1092" cy="672" r="6" class="c0"/>
<circle cx="1032" cy="1186" r="6" class="c0"/>
<circle cx="830" cy="916" r="6" class="c0"/>
<circle cx="966" cy="1356" r="6" class="c0"/>
<circle cx="886" cy="582" r="6" class="c0"/>
<circle cx="902" cy="332" r="6" class="c0"/>
<circle cx="958" cy="384" r="6" class="c0"/>
<circle cx="1070" cy="756" r="6" class="c0"/>
<circle cx="864" cy="764" r="6" class="c0"/>
<circle cx="860" cy="690" r="6" class="c0"/>
<circle cx="734" cy="1292" r="6" class="c0"/>
<circle cx="1096" cy="1144" r="6" class="c0"/>
<circle cx="944" cy="1030" r="6" class="c0"/>
<circle cx="820" cy="1088" r="6" class="c0"/>
<circle cx="914" cy="1036" r="6" class="c0"/>
<circle cx="814" cy="1298" r="6" class="c0"/>
<circle cx="958" cy="964" r="6" class="c0"/>
<circle cx="890" cy="854" r="6" class="c0"/>
<circle cx="828" cy="582" r="6" class="c0"/>
<circle cx="1000" cy="1342" r="6" class="c0"/>
<circle cx="890" cy="426" r="6" class="c0"/>
<circle cx="858" cy="502" r="6" class="c0"/>
<circle cx="1178" cy="1138" r="6" class="c0"/>
<circle cx="910" cy="1122" r="6" class="c0"/>
<circle cx="934" cy="728" r="6" class="c0"/>
<circle cx="998" cy="794" r="6" class="c0"/>
<circle cx="756" cy="1284" r="6" class="c0"/>
<circle cx="886" cy="1336" r="6" class="c0"/>
<circle cx="1042" cy="582" r="6" class="c0"/>
<circle cx="1018" cy="516" r="6" class="c0"/>
<circle cx="816" cy="616" r="6" class="c0"/>
<circle cx="934" cy="814" r="6" class="c0"/>
<circle cx="1046" cy="1196" r="6" class="c0"/>
<circle cx="1128" cy="1272" r="6" class="c0"/>
<circle cx="840" cy="738" r="6" class="c0"/>
<circle cx="1052" cy="592" r="6" class="c0"/>
<circle cx="952" cy="1002" r="6" class="c0"/>
<circle cx="984" cy="904" r="6" class="c0"/>
<circle cx="1006" cy="1100" r="6" class="c0"/>
<circle cx="1044" cy="782" r="6" class="c0"/>
<circle cx="908" cy="1212" r="6" class="c0"/>
<circle cx="1080" cy="1350" r="6" class="c0"/>
<circle cx="1020" cy="1350" r="6" class="c0"/>
<circle cx="988" cy="410" r="6" class="c0"/>
<circle cx="922" cy="430" r="6" class="c0"/>
<circle cx="1068" cy="414" r="6" class="c0"/>
<circle cx="1094" cy="378" r="6" class="c0"/>
<circle cx="1122" cy="738" r="6" class="c0"/>
<circle cx="982" cy="528" r="6" class="c0"/>
<circle cx="836" cy="1170" r="6" class="c0"/>
<circle cx="948" cy="1280" r="6" class="c0"/>
<circle cx="938" cy="512" r="6" class="c0"/>
<circle cx="946" cy="850" r="6" class="c0"/>
<circle cx="1044" cy="984" r="6" class="c0"/>
<circle cx="908" cy="834" r="6" class="c0"/>
<circle cx="1054" cy="384" r="6" class="c0"/>
<circle cx="982" cy="1096" r="6" class="c0"/>
<circle cx="1102" cy="778" r="6" class="c0"/>
<circle cx="874" cy="710" r="6" class="c0"/>
<circle cx="830" cy="1048" r="6" class="c0"/>
<circle cx="990" cy="1222" r="6" class="c0"/>
<circle cx="946" cy="322" r="6" class="c0"/>
<circle cx="1056" cy="1070" r="6" class="c0"/>
<circle cx="812" cy="804" r="6" class="c0"/>
<circle cx="1024" cy="1226" r="6" class="c0"/>
<circle cx="816" cy="1200" r="6" class="c0"/>
<circle cx="814" cy="1372" r="6" class="c0"/>
<circle cx="1018" cy="1090" r="6" class="c0"/>
<circle cx="778" cy="1336" r="6" class="c0"/>
<circle cx="950" cy="610" r="6" class="c0"/>
<circle cx="752" cy="1334" r="6" class="c0"/>
<circle cx="920" cy="656" r="6" class="c0"/>
<circle cx="802" cy="1402" r="6" class="c0"/>
<circle cx="926" cy="922" r="6" class="c0"/>
<circle cx="1050" cy="750" r="6" class="c0"/>
<circle cx="946" cy="544" r="6" class="c0"/>
<circle cx="900" cy="904" r="6" class="c0"/>
<circle cx="870" cy="798" r="6" class="c0"/>
<circle cx="1096" cy="612" r="6" class="c0"/>
<circle cx="956" cy="662" r="6" class="c0"/>
<circle cx="1074" cy="1126" r="6" class="c0"/>
<circle cx="836" cy="1096" r="6" class="c0"/>
<circle cx="960" cy="1286" r="6" class="c0"/>
<circle cx="978" cy="598" r="6" class="c0"/>
<circle cx="858" cy="974" r="6" class="c0"/>
<circle cx="972" cy="296" r="6" class="c0"/>
<circle cx="1088" cy="988" r="6" class="c0"/>
<circle cx="1018" cy="566" r="6" class="c0"/>
<circle cx="794" cy="1218" r="6" class="c0"/>
<circle cx="910" cy="1004" r="6" class="c0"/>
<circle cx="880" cy="666" r="6" class="c0"/>
<circle cx="1094" cy="1404" r="6" class="c0"/>
<circle cx="812" cy="1322" r="6" class="c0"/>
<circle cx="1052" cy="1038" r="6" class="c0"/>
<circle cx="1018" cy="856" r="6" class="c0"/>
<circle cx="1166" cy="1146" r="6" class="c0"/>
<circle cx="756" cy="1162" r="6" class="c0"/>
<circle cx="1018" cy="884" r="6" class="c0"/>
<circle cx="932" cy="548" r="6" class="c0"/>
<circle cx="988" cy="324" r="6" class="c0"/>
<circle cx="974" cy="1264" r="6" class="c0"/>
<circle cx="886" cy="984" r="6" class="c0"/>
<circle cx="962" cy="1230" r="6" class="c0"/>
<circle cx="834" cy="980" r="6" class="c0"/>
<circle cx="922" cy="742" r="6" class="c0"/>
<circle cx="1106" cy="1182" r="6" class="c0"/>
<circle cx="1022" cy="448" r="6" class="c0"/>
<circle cx="914" cy="754" r="6" class="c0"/>
<circle cx="1118" cy="1120" r="6" class="c0"/>
<circle cx="1114" cy="1046" r="6" class="c0"/>
<circle cx="1110" cy="1330" r="6" class="c0"/>
<circle cx="960" cy="928" r="6" class="c0"/>
<circle cx="846" cy="1430" r="6" class="c0"/>
<circle cx="1064" cy="552" r="6" class="c0"/>
<circle cx="1092" cy="1052" r="6" class="c0"/>
<circle cx="1116" cy="976" r="6" class="c0"/>
<circle cx="782" cy="1070" r="6" class="c0"/>
<circle cx="1142" cy="680" r="6" class="c0"/>
<circle cx="910" cy="376" r="6" class="c0"/>
<circle cx="1008" cy="578" r="6" class="c0"/>
<circle cx="1068" cy="742" r="6" class="c0"/>
<circle cx="862" cy="834" r="6" class="c0"/>
<circle cx="1024" cy="350" r="6" class="c0"/>
<circle cx="964" cy="1340" r="6" class="c0"/>
<circle cx="738" cy="1164" r="6" class="c0"/>
<circle cx="884" cy="1148" r="6" class="c0"/>
<circle cx="936" cy="1342" r="6" class="c0"/>
<circle cx="766" cy="1170" r="6" class="c0"/>
<circle cx="964" cy="1132" r="6" class="c0"/>
<circle cx="1056" cy="1210" r="6" class="c0"/>
<circle cx="1084" cy="844" r="6" class="c0"/>
<circle cx="796" cy="962" r="6" class="c0"/>
<circle cx="1068" cy="632" r="6" class="c0"/>
<circle cx="878" cy="1390" r="6" class="c0"/>
<circle cx="854" cy="1176" r="6" class="c0"/>
<circle cx="1102" cy="1392" r="6" class="c0"/>
<circle cx="838" cy="890" r="6" class="c0"/>
<circle cx="1050" cy="1242" r="6" class="c0"/>
<circle cx="902" cy="524" r="6" class="c0"/>
<circle cx="812" cy="1264" r="6" class="c0"/>
<circle cx="970" cy="696" r="6" class="c0"/>
<circle cx="1044" cy="534" r="6" class="c0"/>
<circle cx="974" cy="504" r="6" class="c0"/>
<circle cx="824" cy="960" r="6" class="c0"/>
<circle cx="1064" cy="1118" r="6" class="c0"/>
<circle cx="1036" cy="344" r="6" class="c0"/>
<circle cx="1126" cy="1068" r="6" class="c0"/>
<circle cx="938" cy="900" r="6" class="c0"/>
<circle cx="798" cy="1368" r="6" class="c0"/>
<circle cx="1220" cy="1306" r="6" class="c0"/>
<circle cx="1094" cy="688" r="6" class="c0"/>
<circle cx="1098" cy="880" r="6" class="c0"/>
<circle cx="1064" cy="450" r="6" class="c0"/>
<circle cx="1012" cy="732" r="6" class="c0"/>
<circle cx="1158" cy="1190" r="6" class="c0"/>
<circle cx="1110" cy="1200" r="6" class="c0"/>
<circle cx="934" cy="932" r="6" class="c0"/>
<circle cx="968" cy="756" r="6" class="c0"/>
<circle cx="1004" cy="846" r="6" class="c0"/>
<circle cx="926" cy="1332" r="6" class="c0"/>
<circle cx="884" cy="902" r="6" class="c0"/>
<circle cx="1000" cy="1188" r="6" class="c0"/>
<circle cx="908" cy="692" r="6" class="c0"/>
<circle cx="878" cy="620" r="6" class="c0"/>
<circle cx="862" cy="1110" r="6" class="c0"/>
<circle cx="1146" cy="1164" r="6" class="c0"/>
<circle cx="924" cy="602" r="6" class="c0"/>
<circle cx="1054" cy="698" r="6" class="c0"/>
<circle cx="1024" cy="776" r="6" class="c0"/>
<circle cx="808" cy="742" r="6" class="c0"/>
<circle cx="826" cy="682" r="6" class="c0"/>
<circle cx="824" cy="1126" r="6" class="c0"/>
<circle cx="968" cy="548" r="6" class="c0"/>
<circle cx="1118" cy="1008" r="6" class="c0"/>
<circle cx="1088" cy="1178" r="6" class="c0"/>
<circle cx="1014" cy="632" r="6" class="c0"/>
<circle cx="804" cy="1026" r="6" class="c0"/>
<circle cx="842" cy="724" r="6" class="c0"/>
<circle cx="1056" cy="542" r="6" class="c0"/>
<circle cx="1138" cy="1096" r="6" class="c0"/>
<circle cx="1094" cy="1102" r="6" class="c0"/>
<circle cx="850" cy="768" r="6" class="c0"/>
<circle cx="1166" cy="1112" r="6" class="c0"/>
<circle cx="902" cy="636" r="6" class="c0"/>
<circle cx="1184" cy="1264" r="6" class="c0"/>
<circle cx="916" cy="478" r="6" class="c0"/>
<circle cx="958" cy="1382" r="6" class="c0"/>
<circle cx="1130" cy="970" r="6" class="c0"/>
<circle cx="1108" cy="1016" r="6" class="c0"/>
<circle cx="832" cy="856" r="6" class="c0"/>
<circle cx="770" cy="1092" r="6" class="c0"/>
<circle cx="1102" cy="1376" r="6" class="c0"/>
<circle cx="1036" cy="1372" r="6" class="c0"/>
<circle cx="894" cy="1326" r="6" class="c0"/>
<circle cx="900" cy="728" r="6" class="c0"/>
<circle cx="1114" cy="1172" r="6" class="c0"/>
<circle cx="1132" cy="1324" r="6" class="c0"/>
<circle cx="1004" cy="1022" r="6" class="c0"/>
<circle cx="982" cy="890" r="6" class="c0"/>
<circle cx="1022" cy="422" r="6" class="c0"/>
<circle cx="954" cy="314" r="6" class="c0"/>
<circle cx="870" cy="1062" r="6" class="c0"/>
<circle cx="1122" cy="1208" r="6" class="c0"/>
<circle cx="950" cy="724" r="6" class="c0"/>
<circle cx="1146" cy="704" r="6" class="c0"/>
<circle cx="866" cy="1404" r="6" class="c0"/>
<circle cx="940" cy="596" r="6" class="c0"/>
<circle cx="1110" cy="1244" r="6" class="c0"/>
<circle cx="1054" cy="820" r="6" class="c0"/>
<circle cx="1030" cy="1266" r="6" class="c0"/>
<circle cx="928" cy="382" r="6" class="c0"/>
<circle cx="882" cy="506" r="6" class="c0"/>
<circle cx="832" cy="748" r="6" class="c0"/>
<circle cx="848" cy="1204" r="6" class="c0"/>
<circle cx="1088" cy="704" r="6" class="c0"/>
<circle cx="1054" cy="674" r="6" class="c0"/>
</svg>
