<?xml version="1.0" encoding="utf-8"?>
<svg xmlns="http://www.w3.org/2000/svg"
     xmlns:xlink="http://www.w3.org/1999/xlink" width="1920" height="1440" >

            <defs>
            <style type="text/css"><![CDATA[
circle {stroke: none;}
.c0 {fill: #FFFFFF;}
]]></style>
            </defs>
<rect x="0" y="0" width="1920" height="1440" fill="black"/>
<circle cx="1050" cy="666" r="14" class="c0"/>
<circle cx="1032" cy="522" r="12" class="c0"/>
<circle cx="1044" cy="430" r="12" class="c0"/>
<circle cx="1278" cy="1058" r="12" class="c0"/>
<circle cx="1010" cy="922" r="12" class="c0"/>
<circle cx="924" cy="1308" r="12" class="c0"/>
<circle cx="1222" cy="1054" r="12" class="c0"/>
<circle cx="1260" cy="942" r="12" class="c0"/>
<circle cx="1210" cy="956" r="12" class="c0"/>
<circle cx="1000" cy="1342" r="12" class="c0"/>
<circle cx="928" cy="1204" r="12" class="c0"/>
<circle cx="1214" cy="1288" r="12" class="c0"/>
<circle cx="1074" cy="802" r="12" class="c0"/>
<circle cx="970" cy="1104" r="12" class="c0"/>
<circle cx="1056" cy="1166" r="12" class="c0"/>
<circle cx="1310" cy="596" r="12" class="c0"/>
<circle cx="954" cy="994" r="12" class="c0"/>
<circle cx="1062" cy="1036" r="12" class="c0"/>
<circle cx="1186" cy="1170" r="12" class="c0"/>
<circle cx="1312" cy="1088" r="12" class="c0"/>
<circle cx="1052" cy="934" r="12" class="c0"/>
<circle cx="1096" cy="634" r="12" class="c0"/>
<circle cx="1316" cy="544" r="12" class="c0"/>
<circle cx="1124" cy="1224" r="12" class="c0"/>
<circle cx="974" cy="1076" r="12" class="c0"/>
<circle cx="1110" cy="348" r="12" class="c0"/>
<circle cx="1052" cy="1416" r="12" class="c0"/>
<circle cx="1056" cy="816" r="12" class="c0"/>
<circle cx="1094" cy="510" r="12" class="c0"/>
<circle cx="1204" cy="1326" r="12" class="c0"/>
<circle cx="1076" cy="1102" r="12" class="c0"/>
<circle cx="1134" cy="884" r="12" class="c0"/>
<circle cx="1038" cy="1048" r="12" class="c0"/>
<circle cx="1190" cy="538" r="12" class="c0"/>
<circle cx="1162" cy="1216" r="12" class="c0"/>
<circle cx="1100" cy="1332" r="12" class="c0"/>
<circle cx="1182" cy="794" r="12" class="c0"/>
<circle cx="1106" cy="480" r="12" class="c0"/>
<circle cx="940" cy="640" r="12" class="c0"/>
<circle cx="1036" cy="1142" r="12" class="c0"/>
<circle cx="984" cy="1126" r="12" class="c0"/>
<circle cx="1106" cy="810" r="12" class="c0"/>
<circle cx="1154" cy="1078" r="12" class="c0"/>
<circle cx="1288" cy="580" r="12" class="c0"/>
<circle cx="1096" cy="592" r="12" class="c0"/>
<circle cx="998" cy="686" r="12" class="c0"/>
<circle cx="1130" cy="520" r="12" class="c0"/>
<circle cx="1030" cy="1022" r="12" class="c0"/>
<circle cx="1174" cy="854" r="12" class="c0"/>
<circle cx="1016" cy="1178" r="12" class="c0"/>
<circle cx="1132" cy="954" r="12" class="c0"/>
<circle cx="1022" cy="600" r="12" class="c0"/>
<circle cx="1084" cy="914" r="12" class="c0"/>
<circle cx="1074" cy="866" r="12" class="c0"/>
<circle cx="942" cy="764" r="12" class="c0"/>
<circle cx="1286" cy="1116" r="12" class="c0"/>
<circle cx="1240" cy="1328" r="12" class="c0"/>
<circle cx="1110" cy="1204" r="12" class="c0"/>
<circle cx="1074" cy="1238" r="12" class="c0"/>
<circle cx="1270" cy="1182" r="12" class="c0"/>
<circle cx="1038" cy="1078" r="12" class="c0"/>
<circle cx="1050" cy="486" r="12" class="c0"/>
<circle cx="1038" cy="1310" r="12" class="c0"/>
<circle cx="1126" cy="1074" r="12" class="c0"/>
<circle cx="1174" cy="1032" r="12" class="c0"/>
<circle cx="1092" cy="962" r="12" class="c0"/>
<circle cx="1046" cy="1360" r="10" class="c0"/>
<circle cx="992" cy="984" r="10" class="c0"/>
<circle cx="1198" cy="1020" r="10" class="c0"/>
<circle cx="1156" cy="776" r="10" class="c0"/>
<circle cx="1214" cy="1112" r="10" class="c0"/>
<circle cx="1084" cy="1314" r="10" class="c0"/>
<circle cx="1086" cy="1154" r="10" class="c0"/>
<circle cx="1078" cy="1400" r="10" class="c0"/>
<circle cx="1000" cy="372" r="10" class="c0"/>
<circle cx="1136" cy="836" r="10" class="c0"/>
<circle cx="1100" cy="442" r="10" class="c0"/>
<circle cx="1158" cy="626" r="10" class="c0"/>
<circle cx="1252" cy="1134" r="10" class="c0"/>
<circle cx="1206" cy="1184" r="10" class="c0"/>
<circle cx="1192" cy="638" r="10" class="c0"/>
<circle cx="1324" cy="1286" r="10" class="c0"/>
<circle cx="1162" cy="900" r="10" class="c0"/>
<circle cx="1298" cy="1000" r="10" class="c0"/>
<circle cx="1174" cy="502" r="10" class="c0"/>
<circle cx="1036" cy="846" r="10" class="c0"/>
<circle cx="920" cy="780" r="10" class="c0"/>
<circle cx="1210" cy="330" r="10" class="c0"/>
<circle cx="1166" cy="700" r="10" class="c0"/>
<circle cx="1088" cy="1428" r="10" class="c0"/>
<circle cx="1242" cy="998" r="10" class="c0"/>
<circle cx="1220" cy="582" r="10" class="c0"/>
<circle cx="1226" cy="1136" r="10" class="c0"/>
<circle cx="1062" cy="410" r="10" class="c0"/>
<circle cx="1142" cy="608" r="10" class="c0"/>
<circle cx="1092" cy="696" r="10" class="c0"/>
<circle cx="1216" cy="1084" r="10" class="c0"/>
<circle cx="952" cy="1244" r="10" class="c0"/>
<circle cx="1152" cy="1342" r="10" class="c0"/>
<circle cx="1118" cy="1250" r="10" class="c0"/>
<circle cx="1044" cy="1220" r="10" class="c0"/>
<circle cx="984" cy="790" r="10" class="c0"/>
<circle cx="1186" cy="770" r="10" class="c0"/>
<circle cx="904" cy="1324" r="10" class="c0"/>
<circle cx="1190" cy="820" r="10" class="c0"/>
<circle cx="1220" cy="904" r="10" class="c0"/>
<circle cx="1034" cy="1108" r="10" class="c0"/>
<circle cx="998" cy="1046" r="10" class="c0"/>
<circle cx="922" cy="1132" r="10" class="c0"/>
<circle cx="1030" cy="346" r="10" class="c0"/>
<circle cx="1132" cy="476" r="10" class="c0"/>
<circle cx="984" cy="942" r="10" class="c0"/>
<circle cx="1048" cy="692" r="10" class="c0"/>
<circle cx="1064" cy="466" r="10" class="c0"/>
<circle cx="1008" cy="736" r="10" class="c0"/>
<circle cx="1078" cy="614" r="10" class="c0"/>
<circle cx="1278" cy="1210" r="10" class="c0"/>
<circle cx="1262" cy="1314" r="10" class="c0"/>
<circle cx="1176" cy="886" r="10" class="c0"/>
<circle cx="1000" cy="592" r="10" class="c0"/>
<circle cx="1340" cy="1180" r="10" class="c0"/>
<circle cx="1156" cy="324" r="10" class="c0"/>
<circle cx="1188" cy="1054" r="10" class="c0"/>
<circle cx="1138" cy="1184" r="10" class="c0"/>
<circle cx="1270" cy="1004" r="10" class="c0"/>
<circle cx="1370" cy="1252" r="10" class="c0"/>
<circle cx="1046" cy="784" r="10" class="c0"/>
<circle cx="1182" cy="472" r="10" class="c0"/>
<circle cx="1024" cy="966" r="10" class="c0"/>
<circle cx="958" cy="860" r="10" class="c0"/>
<circle cx="1128" cy="758" r="10" class="c0"/>
<circle cx="1022" cy="632" r="10" class="c0"/>
<circle cx="1118" cy="570" r="10" class="c0"/>
<circle cx="1012" cy="1228" r="10" class="c0"/>
<circle cx="1038" cy="894" r="10" class="c0"/>
<circle cx="972" cy="1254" r="10" class="c0"/>
<circle cx="1098" cy="322" r="10" class="c0"/>
<circle cx="1166" cy="1256" r="10" class="c0"/>
<circle cx="1146" cy="1124" r="10" class="c0"/>
<circle cx="1062" cy="368" r="10" class="c0"/>
<circle cx="1170" cy="966" r="10" class="c0"/>
<circle cx="956" cy="716" r="10" class="c0"/>
<circle cx="1270" cy="1334" r="10" class="c0"/>
<circle cx="1006" cy="560" r="10" class="c0"/>
<circle cx="1122" cy="1032" r="10" class="c0"/>
<circle cx="1042" cy="1386" r="10" class="c0"/>
<circle cx="1140" cy="1092" r="10" class="c0"/>
<circle cx="1012" cy="664" r="10" class="c0"/>
<circle cx="1084" cy="1284" r="10" class="c0"/>
<circle cx="1184" cy="996" r="10" class="c0"/>
<circle cx="1094" cy="722" r="10" class="c0"/>
<circle cx="1158" cy="1054" r="10" class="c0"/>
<circle cx="1226" cy="1164" r="10" class="c0"/>
<circle cx="1170" cy="748" r="10" class="c0"/>
<circle cx="1126" cy="430" r="10" class="c0"/>
<circle cx="1198" cy="1354" r="10" class="c0"/>
<circle cx="940" cy="1122" r="10" class="c0"/>
<circle cx="1026" cy="454" r="10" class="c0"/>
<circle cx="1102" cy="1296" r="10" class="c0"/>
<circle cx="1182" cy="1076" r="10" class="c0"/>
<circle cx="1308" cy="1212" r="10" class="c0"/>
<circle cx="1316" cy="1124" r="10" class="c0"/>
<circle cx="954" cy="1322" r="10" class="c0"/>
<circle cx="986" cy="648" r="10" class="c0"/>
<circle cx="998" cy="1262" r="10" class="c0"/>
<circle cx="904" cy="1226" r="10" class="c0"/>
<circle cx="954" cy="1144" r="10" class="c0"/>
<circle cx="1130" cy="334" r="10" class="c0"/>
<circle cx="1076" cy="1056" r="10" class="c0"/>
<circle cx="1058" cy="1088" r="10" class="c0"/>
<circle cx="986" cy="1318" r="10" class="c0"/>
<circle cx="1184" cy="340" r="10" class="c0"/>
<circle cx="996" cy="892" r="10" class="c0"/>
<circle cx="984" cy="1208" r="10" class="c0"/>
<circle cx="1054" cy="588" r="10" class="c0"/>
<circle cx="1124" cy="398" r="10" class="c0"/>
<circle cx="1126" cy="734" r="10" class="c0"/>
<circle cx="1140" cy="1320" r="10" class="c0"/>
<circle cx="1100" cy="1372" r="10" class="c0"/>
<circle cx="1290" cy="1244" r="10" class="c0"/>
<circle cx="1198" cy="568" r="10" class="c0"/>
<circle cx="1114" cy="1346" r="10" class="c0"/>
<circle cx="1340" cy="1204" r="10" class="c0"/>
<circle cx="1242" cy="1276" r="10" class="c0"/>
<circle cx="1182" cy="1240" r="10" class="c0"/>
<circle cx="1288" cy="1084" r="10" class="c0"/>
<circle cx="1198" cy="848" r="10" class="c0"/>
<circle cx="1156" cy="1150" r="10" class="c0"/>
<circle cx="930" cy="666" r="10" class="c0"/>
<circle cx="1002" cy="618" r="10" class="c0"/>
<circle cx="1158" cy="396" r="10" class="c0"/>
<circle cx="1362" cy="1160" r="10" class="c0"/>
<circle cx="1252" cy="582" r="10" class="c0"/>
<circle cx="1172" cy="658" r="10" class="c0"/>
<circle cx="984" cy="1176" r="10" class="c0"/>
<circle cx="990" cy="1236" r="10" class="c0"/>
<circle cx="1084" cy="666" r="10" class="c0"/>
<circle cx="1314" cy="1040" r="10" class="c0"/>
<circle cx="1182" cy="1336" r="10" class="c0"/>
<circle cx="1228" cy="1236" r="10" class="c0"/>
<circle cx="1272" cy="542" r="10" class="c0"/>
<circle cx="1144" cy="450" r="10" class="c0"/>
<circle cx="1034" cy="768" r="10" class="c0"/>
<circle cx="1074" cy="708" r="10" class="c0"/>
<circle cx="1176" cy="420" r="10" class="c0"/>
<circle cx="1106" cy="870" r="10" class="c0"/>
<circle cx="1282" cy="502" r="10" class="c0"/>
<circle cx="918" cy="1238" r="10" class="c0"/>
<circle cx="1028" cy="1332" r="10" class="c0"/>
<circle cx="1074" cy="1136" r="10" class="c0"/>
<circle cx="1168" cy="450" r="10" class="c0"/>
<circle cx="1090" cy="1078" r="10" class="c0"/>
<circle cx="1162" cy="372" r="10" class="c0"/>
<circle cx="1214" cy="604" r="10" class="c0"/>
<circle cx="1008" cy="1306" r="10" class="c0"/>
<circle cx="1080" cy="1180" r="10" class="c0"/>
<circle cx="966" cy="760" r="10" class="c0"/>
<circle cx="1360" cy="1110" r="10" class="c0"/>
<circle cx="1102" cy="1236" r="10" class="c0"/>
<circle cx="1116" cy="664" r="10" class="c0"/>
<circle cx="1376" cy="1180" r="10" class="c0"/>
<circle cx="1332" cy="1144" r="10" class="c0"/>
<circle cx="1164" cy="1294" r="10" class="c0"/>
<circle cx="1172" cy="1114" r="10" class="c0"/>
<circle cx="1158" cy="558" r="10" class="c0"/>
<circle cx="1318" cy="572" r="10" class="c0"/>
<circle cx="1352" cy="1288" r="10" class="c0"/>
<circle cx="1328" cy="1312" r="10" class="c0"/>
<circle cx="1342" cy="1126" r="10" class="c0"/>
<circle cx="1292" cy="1310" r="10" class="c0"/>
<circle cx="1128" cy="692" r="10" class="c0"/>
<circle cx="1164" cy="1360" r="10" class="c0"/>
<circle cx="922" cy="1338" r="10" class="c0"/>
<circle cx="1078" cy="1020" r="10" class="c0"/>
<circle cx="1104" cy="998" r="10" class="c0"/>
<circle cx="1122" cy="1284" r="10" class="c0"/>
<circle cx="1194" cy="1274" r="10" class="c0"/>
<circle cx="1078" cy="1364" r="10" class="c0"/>
<circle cx="1060" cy="890" r="10" class="c0"/>
<circle cx="1042" cy="562" r="10" class="c0"/>
<circle cx="968" cy="1028" r="10" class="c0"/>
<circle cx="1088" cy="1252" r="10" class="c0"/>
<circle cx="956" cy="680" r="10" class="c0"/>
<circle cx="1146" cy="638" r="10" class="c0"/>
<circle cx="1144" cy="924" r="10" class="c0"/>
<circle cx="1304" cy="1156" r="10" class="c0"/>
<circle cx="944" cy="824" r="10" class="c0"/>
<circle cx="896" cy="1280" r="10" class="c0"/>
<circle cx="1050" cy="908" r="10" class="c0"/>
<circle cx="1158" cy="810" r="10" class="c0"/>
<circle cx="1264" cy="520" r="10" class="c0"/>
<circle cx="1040" cy="394" r="10" class="c0"/>
<circle cx="1060" cy="1198" r="10" class="c0"/>
<circle cx="940" cy="704" r="10" class="c0"/>
<circle cx="1206" cy="1066" r="8" class="c0"/>
<circle cx="946" cy="1288" r="8" class="c0"/>
<circle cx="978" cy="842" r="8" class="c0"/>
<circle cx="1140" cy="1252" r="8" class="c0"/>
<circle cx="1200" cy="384" r="8" class="c0"/>
<circle cx="1198" cy="1142" r="8" class="c0"/>
<circle cx="1096" cy="892" r="8" class="c0"/>
<circle cx="1302" cy="562" r="8" class="c0"/>
<circle cx="930" cy="1280" r="8" class="c0"/>
<circle cx="1080" cy="314" r="8" class="c0"/>
<circle cx="1052" cy="1010" r="8" class="c0"/>
<circle cx="1256" cy="1250" r="8" class="c0"/>
<circle cx="1238" cy="1176" r="8" class="c0"/>
<circle cx="1102" cy="942" r="8" class="c0"/>
<circle cx="874" cy="1234" r="8" class="c0"/>
<circle cx="1018" cy="498" r="8" class="c0"/>
<circle cx="1096" cy="1134" r="8" class="c0"/>
<circle cx="1170" cy="824" r="8" class="c0"/>
<circle cx="1142" cy="990" r="8" class="c0"/>
<circle cx="1238" cy="1200" r="8" class="c0"/>
<circle cx="966" cy="962" r="8" class="c0"/>
<circle cx="1056" cy="962" r="8" class="c0"/>
<circle cx="1120" cy="1104" r="8" class="c0"/>
<circle cx="1156" cy="1014" r="8" class="c0"/>
<circle cx="1200" cy="930" r="8" class="c0"/>
<circle cx="1022" cy="694" r="8" class="c0"/>
<circle cx="1180" cy="726" r="8" class="c0"/>
<circle cx="1260" cy="980" r="8" class="c0"/>
<circle cx="1052" cy="750" r="8" class="c0"/>
<circle cx="954" cy="1044" r="8" class="c0"/>
<circle cx="890" cy="1250" r="8" class="c0"/>
<circle cx="1224" cy="928" r="8" class="c0"/>
<circle cx="1052" cy="350" r="8" class="c0"/>
<circle cx="1276" cy="1138" r="8" class="c0"/>
<circle cx="1248" cy="1066" r="8" class="c0"/>
<circle cx="1210" cy="1252" r="8" class="c0"/>
<circle cx="1030" cy="722" r="8" class="c0"/>
<circle cx="930" cy="1250" r="8" class="c0"/>
<circle cx="1030" cy="1278" r="8" class="c0"/>
<circle cx="1112" cy="1172" r="8" class="c0"/>
<circle cx="1020" cy="874" r="8" class="c0"/>
<circle cx="1198" cy="510" r="8" class="c0"/>
<circle cx="946" cy="1344" r="8" class="c0"/>
<circle cx="1008" cy="850" r="8" class="c0"/>
<circle cx="1114" cy="918" r="8" class="c0"/>
<circle cx="1188" cy="672" r="8" class="c0"/>
<circle cx="1166" cy="350" r="8" class="c0"/>
<circle cx="986" cy="814" r="8" class="c0"/>
<circle cx="988" cy="748" r="8" class="c0"/>
<circle cx="1072" cy="530" r="8" class="c0"/>
<circle cx="1302" cy="1292" r="8" class="c0"/>
<circle cx="1084" cy="990" r="8" class="c0"/>
<circle cx="1130" cy="312" r="8" class="c0"/>
<circle cx="1044" cy="972" r="8" class="c0"/>
<circle cx="1106" cy="1262" r="8" class="c0"/>
<circle cx="1184" cy="1208" r="8" class="c0"/>
<circle cx="1322" cy="1196" r="8" class="c0"/>
<circle cx="980" cy="1294" r="8" class="c0"/>
<circle cx="1336" cy="1106" r="8" class="c0"/>
<circle cx="1016" cy="362" r="8" class="c0"/>
<circle cx="1028" cy="1000" r="8" class="c0"/>
<circle cx="1240" cy="1218" r="8" class="c0"/>
<circle cx="1088" cy="390" r="8" class="c0"/>
<circle cx="1024" cy="800" r="8" class="c0"/>
<circle cx="1324" cy="1264" r="8" class="c0"/>
<circle cx="1254" cy="1296" r="8" class="c0"/>
<circle cx="1146" cy="1034" r="8" class="c0"/>
<circle cx="1150" cy="1238" r="8" class="c0"/>
<circle cx="1010" cy="1144" r="8" class="c0"/>
<circle cx="944" cy="1080" r="8" class="c0"/>
<circle cx="1110" cy="1154" r="8" class="c0"/>
<circle cx="1004" cy="780" r="8" class="c0"/>
<circle cx="1022" cy="904" r="8" class="c0"/>
<circle cx="1366" cy="1304" r="8" class="c0"/>
<circle cx="1176" cy="1142" r="8" class="c0"/>
<circle cx="944" cy="1102" r="8" class="c0"/>
<circle cx="992" cy="312" r="8" class="c0"/>
<circle cx="1182" cy="926" r="8" class="c0"/>
<circle cx="896" cy="1306" r="8" class="c0"/>
<circle cx="1058" cy="722" r="8" class="c0"/>
<circle cx="938" cy="1176" r="8" class="c0"/>
<circle cx="1134" cy="794" r="8" class="c0"/>
<circle cx="996" cy="864" r="8" class="c0"/>
<circle cx="1084" cy="846" r="8" class="c0"/>
<circle cx="982" cy="726" r="8" class="c0"/>
<circle cx="1016" cy="1358" r="8" class="c0"/>
<circle cx="1000" cy="964" r="8" class="c0"/>
<circle cx="1196" cy="364" r="8" class="c0"/>
<circle cx="1088" cy="460" r="8" class="c0"/>
<circle cx="1056" cy="550" r="8" class="c0"/>
<circle cx="1268" cy="1078" r="8" class="c0"/>
<circle cx="1382" cy="1288" r="8" class="c0"/>
<circle cx="1272" cy="1280" r="8" class="c0"/>
<circle cx="1366" cy="1226" r="8" class="c0"/>
<circle cx="1176" cy="584" r="8" class="c0"/>
<circle cx="1300" cy="524" r="8" class="c0"/>
<circle cx="1298" cy="1270" r="8" class="c0"/>
<circle cx="972" cy="572" r="8" class="c0"/>
<circle cx="944" cy="618" r="8" class="c0"/>
<circle cx="1134" cy="1048" r="8" class="c0"/>
<circle cx="1062" cy="1298" r="8" class="c0"/>
<circle cx="972" cy="1330" r="8" class="c0"/>
<circle cx="1156" cy="532" r="8" class="c0"/>
<circle cx="1106" cy="834" r="8" class="c0"/>
<circle cx="1056" cy="510" r="8" class="c0"/>
<circle cx="1000" cy="1006" r="8" class="c0"/>
<circle cx="1194" cy="1104" r="8" class="c0"/>
<circle cx="1196" cy="1124" r="8" class="c0"/>
<circle cx="872" cy="1298" r="8" class="c0"/>
<circle cx="938" cy="982" r="8" class="c0"/>
<circle cx="1052" cy="1256" r="8" class="c0"/>
<circle cx="966" cy="646" r="8" class="c0"/>
<circle cx="1182" cy="954" r="8" class="c0"/>
<circle cx="1088" cy="1214" r="8" class="c0"/>
<circle cx="1336" cy="1080" r="8" class="c0"/>
<circle cx="1188" cy="402" r="8" class="c0"/>
<circle cx="1012" cy="472" r="8" class="c0"/>
<circle cx="918" cy="1168" r="8" class="c0"/>
<circle cx="1176" cy="604" r="8" class="c0"/>
<circle cx="1112" cy="416" r="8" class="c0"/>
<circle cx="1316" cy="1244" r="8" class="c0"/>
<circle cx="1194" cy="1222" r="8" class="c0"/>
<circle cx="1148" cy="860" r="8" class="c0"/>
<circle cx="956" cy="802" r="8" class="c0"/>
<circle cx="1058" cy="844" r="8" class="c0"/>
<circle cx="1232" cy="386" r="8" class="c0"/>
<circle cx="1054" cy="642" r="8" class="c0"/>
<circle cx="1096" cy="1272" r="8" class="c0"/>
<circle cx="1116" cy="1318" r="8" class="c0"/>
<circle cx="1282" cy="1022" r="8" class="c0"/>
<circle cx="1076" cy="450" r="8" class="c0"/>
<circle cx="1286" cy="970" r="8" class="c0"/>
<circle cx="1088" cy="750" r="8" class="c0"/>
<circle cx="1106" cy="1062" r="8" class="c0"/>
<circle cx="1132" cy="1006" r="8" class="c0"/>
<circle cx="1232" cy="344" r="8" class="c0"/>
<circle cx="1298" cy="1334" r="8" class="c0"/>
<circle cx="1076" cy="764" r="8" class="c0"/>
<circle cx="1340" cy="1326" r="8" class="c0"/>
<circle cx="1082" cy="782" r="8" class="c0"/>
<circle cx="956" cy="1178" r="8" class="c0"/>
<circle cx="1078" cy="478" r="8" class="c0"/>
<circle cx="1084" cy="550" r="8" class="c0"/>
<circle cx="1234" cy="568" r="8" class="c0"/>
<circle cx="928" cy="750" r="8" class="c0"/>
<circle cx="1010" cy="340" r="8" class="c0"/>
<circle cx="1042" cy="330" r="8" class="c0"/>
<circle cx="1130" cy="814" r="8" class="c0"/>
<circle cx="1084" cy="414" r="8" class="c0"/>
<circle cx="1062" cy="568" r="8" class="c0"/>
<circle cx="1138" cy="1300" r="8" class="c0"/>
<circle cx="1270" cy="1236" r="8" class="c0"/>
<circle cx="1114" cy="614" r="8" class="c0"/>
<circle cx="1206" cy="302" r="8" class="c0"/>
<circle cx="908" cy="1194" r="8" class="c0"/>
<circle cx="1190" cy="1304" r="8" class="c0"/>
<circle cx="1210" cy="834" r="8" class="c0"/>
<circle cx="1076" cy="498" r="8" class="c0"/>
<circle cx="1166" cy="1316" r="8" class="c0"/>
<circle cx="970" cy="614" r="8" class="c0"/>
<circle cx="1152" cy="430" r="8" class="c0"/>
<circle cx="1012" cy="530" r="8" class="c0"/>
<circle cx="1256" cy="1204" r="8" class="c0"/>
<circle cx="1358" cy="1088" r="8" class="c0"/>
<circle cx="944" cy="734" r="8" class="c0"/>
<circle cx="938" cy="788" r="8" class="c0"/>
<circle cx="1210" cy="998" r="8" class="c0"/>
<circle cx="976" cy="664" r="8" class="c0"/>
<circle cx="1146" cy="682" r="8" class="c0"/>
<circle cx="998" cy="1290" r="8" class="c0"/>
<circle cx="1240" cy="1120" r="8" class="c0"/>
<circle cx="1142" cy="568" r="8" class="c0"/>
<circle cx="1334" cy="526" r="8" class="c0"/>
<circle cx="1042" cy="612" r="8" class="c0"/>
<circle cx="1156" cy="880" r="8" class="c0"/>
<circle cx="962" cy="738" r="8" class="c0"/>
<circle cx="1362" cy="1272" r="8" class="c0"/>
<circle cx="1048" cy="1276" r="8" class="c0"/>
<circle cx="1056" cy="448" r="8" class="c0"/>
<circle cx="1160" cy="992" r="8" class="c0"/>
<circle cx="1260" cy="1152" r="8" class="c0"/>
<circle cx="1254" cy="1352" r="8" class="c0"/>
<circle cx="876" cy="1262" r="8" class="c0"/>
<circle cx="934" cy="1092" r="8" class="c0"/>
<circle cx="1012" cy="708" r="8" class="c0"/>
<circle cx="1124" cy="642" r="8" class="c0"/>
<circle cx="1326" cy="1220" r="8" class="c0"/>
<circle cx="1190" cy="616" r="8" class="c0"/>
<circle cx="1106" cy="744" r="8" class="c0"/>
<circle cx="1218" cy="1198" r="8" class="c0"/>
<circle cx="1214" cy="360" r="8" class="c0"/>
<circle cx="1010" cy="830" r="8" class="c0"/>
<circle cx="980" cy="368" r="8" class="c0"/>
<circle cx="1354" cy="1240" r="8" class="c0"/>
<circle cx="1152" cy="738" r="8" class="c0"/>
<circle cx="1352" cy="1314" r="8" class="c0"/>
<circle cx="1068" cy="740" r="8" class="c0"/>
<circle cx="1194" cy="314" r="8" class="c0"/>
<circle cx="1056" cy="1064" r="8" class="c0"/>
<circle cx="1222" cy="884" r="8" class="c0"/>
<circle cx="908" cy="1158" r="8" class="c0"/>
<circle cx="1148" cy="360" r="8" class="c0"/>
<circle cx="1266" cy="1102" r="8" class="c0"/>
<circle cx="1030" cy="1370" r="8" class="c0"/>
<circle cx="1250" cy="894" r="8" class="c0"/>
<circle cx="1008" cy="1088" r="8" class="c0"/>
<circle cx="1146" cy="1274" r="8" class="c0"/>
<circle cx="990" cy="1024" r="8" class="c0"/>
<circle cx="1070" cy="688" r="8" class="c0"/>
<circle cx="944" cy="1222" r="8" class="c0"/>
<circle cx="1024" cy="1124" r="8" class="c0"/>
<circle cx="1220" cy="1014" r="8" class="c0"/>
<circle cx="1032" cy="1426" r="8" class="c0"/>
<circle cx="1026" cy="546" r="8" class="c0"/>
<circle cx="1324" cy="1334" r="8" class="c0"/>
<circle cx="1036" cy="922" r="8" class="c0"/>
<circle cx="994" cy="524" r="8" class="c0"/>
<circle cx="974" cy="592" r="8" class="c0"/>
<circle cx="1292" cy="1188" r="8" class="c0"/>
<circle cx="964" cy="1304" r="8" class="c0"/>
<circle cx="1232" cy="596" r="8" class="c0"/>
<circle cx="1240" cy="1034" r="8" class="c0"/>
<circle cx="1122" cy="1134" r="8" class="c0"/>
<circle cx="906" cy="1260" r="8" class="c0"/>
<circle cx="1058" cy="1376" r="8" class="c0"/>
<circle cx="1104" cy="774" r="8" class="c0"/>
<circle cx="1140" cy="548" r="8" class="c0"/>
<circle cx="1100" cy="368" r="8" class="c0"/>
<circle cx="1226" cy="1354" r="8" class="c0"/>
<circle cx="970" cy="1222" r="8" class="c0"/>
<circle cx="1344" cy="1268" r="8" class="c0"/>
<circle cx="1082" cy="344" r="8" class="c0"/>
<circle cx="996" cy="542" r="8" class="c0"/>
<circle cx="1130" cy="1154" r="8" class="c0"/>
<circle cx="1134" cy="1350" r="8" class="c0"/>
<circle cx="1108" cy="974" r="8" class="c0"/>
<circle cx="1174" cy="1198" r="8" class="c0"/>
<circle cx="1222" cy="972" r="8" class="c0"/>
<circle cx="1064" cy="1320" r="8" class="c0"/>
<circle cx="1208" cy="1040" r="8" class="c0"/>
<circle cx="1014" cy="762" r="8" class="c0"/>
<circle cx="1142" cy="718" r="8" class="c0"/>
<circle cx="1238" cy="948" r="8" class="c0"/>
<circle cx="992" cy="1154" r="8" class="c0"/>
<circle cx="1112" cy="378" r="8" class="c0"/>
<circle cx="1310" cy="1012" r="8" class="c0"/>
<circle cx="1088" cy="1118" r="8" class="c0"/>
<circle cx="1034" cy="1248" r="8" class="c0"/>
<circle cx="1258" cy="916" r="8" class="c0"/>
<circle cx="1118" cy="464" r="8" class="c0"/>
<circle cx="924" cy="1112" r="8" class="c0"/>
<circle cx="1092" cy="1032" r="8" class="c0"/>
<circle cx="1054" cy="314" r="8" class="c0"/>
<circle cx="970" cy="1154" r="8" class="c0"/>
<circle cx="1194" cy="598" r="8" class="c0"/>
<circle cx="1136" cy="658" r="8" class="c0"/>
<circle cx="978" cy="996" r="8" class="c0"/>
<circle cx="1050" cy="1338" r="8" class="c0"/>
<circle cx="1100" cy="1098" r="8" class="c0"/>
<circle cx="976" cy="914" r="8" class="c0"/>
<circle cx="1140" cy="386" r="8" class="c0"/>
<circle cx="892" cy="1208" r="8" class="c0"/>
<circle cx="1040" cy="990" r="8" class="c0"/>
<circle cx="1094" cy="540" r="8" class="c0"/>
<circle cx="1070" cy="326" r="8" class="c0"/>
<circle cx="968" cy="694" r="8" class="c0"/>
<circle cx="1152" cy="490" r="8" class="c0"/>
<circle cx="1026" cy="310" r="8" class="c0"/>
<circle cx="1108" cy="1116" r="8" class="c0"/>
<circle cx="1198" cy="892" r="8" class="c0"/>
<circle cx="1258" cy="1016" r="8" class="c0"/>
<circle cx="1270" cy="562" r="8" class="c0"/>
<circle cx="990" cy="1096" r="8" class="c0"/>
<circle cx="1046" cy="872" r="8" class="c0"/>
<circle cx="1050" cy="1120" r="8" class="c0"/>
<circle cx="1074" cy="1264" r="8" class="c0"/>
<circle cx="1078" cy="378" r="8" class="c0"/>
<circle cx="1122" cy="782" r="8" class="c0"/>
<circle cx="984" cy="582" r="8" class="c0"/>
<circle cx="1072" cy="970" r="8" class="c0"/>
<circle cx="952" cy="1200" r="8" class="c0"/>
<circle cx="1128" cy="498" r="8" class="c0"/>
<circle cx="1236" cy="868" r="8" class="c0"/>
<circle cx="1204" cy="656" r="8" class="c0"/>
<circle cx="1118" cy="712" r="8" class="c0"/>
<circle cx="1196" cy="704" r="8" class="c0"/>
<circle cx="1144" cy="1204" r="8" class="c0"/>
<circle cx="1234" cy="368" r="8" class="c0"/>
<circle cx="1214" cy="1152" r="8" class="c0"/>
<circle cx="910" cy="762" r="8" class="c0"/>
<circle cx="978" cy="972" r="8" class="c0"/>
<circle cx="1026" cy="744" r="8" class="c0"/>
<circle cx="1160" cy="1186" r="8" class="c0"/>
<circle cx="988" cy="704" r="8" class="c0"/>
<circle cx="1014" cy="790" r="8" class="c0"/>
<circle cx="1064" cy="988" r="8" class="c0"/>
<circle cx="1176" cy="388" r="8" class="c0"/>
<circle cx="1014" cy="1068" r="8" class="c0"/>
<circle cx="1040" cy="300" r="8" class="c0"/>
<circle cx="1022" cy="1202" r="8" class="c0"/>
<circle cx="966" cy="1056" r="8" class="c0"/>
<circle cx="950" cy="972" r="8" class="c0"/>
<circle cx="1192" cy="914" r="8" class="c0"/>
<circle cx="972" cy="308" r="8" class="c0"/>
<circle cx="970" cy="872" r="8" class="c0"/>
<circle cx="1236" cy="1098" r="8" class="c0"/>
<circle cx="1046" cy="1186" r="8" class="c0"/>
<circle cx="892" cy="1186" r="8" class="c0"/>
<circle cx="944" cy="1268" r="8" class="c0"/>
<circle cx="1072" cy="1342" r="8" class="c0"/>
<circle cx="1030" cy="1404" r="8" class="c0"/>
<circle cx="958" cy="778" r="8" class="c0"/>
<circle cx="1218" cy="854" r="8" class="c0"/>
<circle cx="1320" cy="1174" r="8" class="c0"/>
<circle cx="1114" cy="538" r="8" class="c0"/>
<circle cx="1336" cy="1230" r="8" class="c0"/>
<circle cx="1006" cy="322" r="8" class="c0"/>
<circle cx="1018" cy="1288" r="8" class="c0"/>
<circle cx="1022" cy="818" r="8" class="c0"/>
<circle cx="1120" cy="898" r="8" class="c0"/>
<circle cx="1014" cy="1114" r="8" class="c0"/>
<circle cx="1194" cy="492" r="8" class="c0"/>
<circle cx="1290" cy="1040" r="8" class="c0"/>
<circle cx="1106" cy="1020" r="8" class="c0"/>
<circle cx="1040" cy="712" r="8" class="c0"/>
<circle cx="992" cy="768" r="8" class="c0"/>
<circle cx="1320" cy="1062" r="8" class="c0"/>
<circle cx="1274" cy="1258" r="8" class="c0"/>
<circle cx="1170" cy="944" r="8" class="c0"/>
<circle cx="1030" cy="946" r="8" class="c0"/>
<circle cx="1014" cy="1248" r="8" class="c0"/>
<circle cx="1164" cy="1168" r="8" class="c0"/>
<circle cx="1200" cy="974" r="8" class="c0"/>
<circle cx="1338" cy="550" r="8" class="c0"/>
<circle cx="996" cy="1078" r="8" class="c0"/>
<circle cx="1306" cy="1254" r="8" class="c0"/>
<circle cx="1144" cy="506" r="8" class="c0"/>
<circle cx="1278" cy="952" r="8" class="c0"/>
<circle cx="1084" cy="938" r="8" class="c0"/>
<circle cx="1128" cy="364" r="8" class="c0"/>
<circle cx="956" cy="604" r="8" class="c0"/>
<circle cx="1012" cy="990" r="8" class="c0"/>
<circle cx="944" cy="1058" r="8" class="c0"/>
<circle cx="1024" cy="676" r="8" class="c0"/>
<circle cx="1032" cy="372" r="8" class="c0"/>
<circle cx="1010" cy="954" r="8" class="c0"/>
<circle cx="1068" cy="1430" r="8" class="c0"/>
<circle cx="1100" cy="560" r="8" class="c0"/>
<circle cx="1190" cy="450" r="8" class="c0"/>
<circle cx="1292" cy="548" r="8" class="c0"/>
<circle cx="1334" cy="1052" r="8" class="c0"/>
<circle cx="1154" cy="586" r="8" class="c0"/>
<circle cx="1000" cy="506" r="8" class="c0"/>
<circle cx="1126" cy="624" r="8" class="c0"/>
<circle cx="982" cy="562" r="8" class="c0"/>
<circle cx="1200" cy="872" r="8" class="c0"/>
<circle cx="1038" cy="466" r="8" class="c0"/>
<circle cx="1076" cy="648" r="8" class="c0"/>
<circle cx="998" cy="1190" r="8" class="c0"/>
<circle cx="1250" cy="356" r="8" class="c0"/>
<circle cx="876" cy="1318" r="8" class="c0"/>
<circle cx="1076" cy="830" r="8" class="c0"/>
<circle cx="1298" cy="1134" r="8" class="c0"/>
<circle cx="1076" cy="578" r="8" class="c0"/>
<circle cx="1356" cy="1140" r="8" class="c0"/>
<circle cx="1120" cy="594" r="8" class="c0"/>
<circle cx="1254" cy="1092" r="8" class="c0"/>
<circle cx="1018" cy="1040" r="8" class="c0"/>
<circle cx="1234" cy="1306" r="8" class="c0"/>
<circle cx="968" cy="822" r="8" class="c0"/>
<circle cx="1358" cy="1192" r="8" class="c0"/>
<circle cx="1156" cy="668" r="8" class="c0"/>
<circle cx="964" cy="1346" r="8" class="c0"/>
<circle cx="1268" cy="1032" r="8" class="c0"/>
<circle cx="1274" cy="1298" r="8" class="c0"/>
<circle cx="1102" cy="400" r="8" class="c0"/>
<circle cx="1132" cy="584" r="8" class="c0"/>
<circle cx="1302" cy="1232" r="8" class="c0"/>
<circle cx="922" cy="716" r="8" class="c0"/>
<circle cx="1268" cy="598" r="8" class="c0"/>
<circle cx="964" cy="1272" r="8" class="c0"/>
<circle cx="930" cy="688" r="8" class="c0"/>
<circle cx="1276" cy="1160" r="8" class="c0"/>
<circle cx="1126" cy="1334" r="8" class="c0"/>
<circle cx="1178" cy="682" r="8" class="c0"/>
<circle cx="1042" cy="734" r="8" class="c0"/>
<circle cx="1024" cy="572" r="8" class="c0"/>
<circle cx="1120" cy="852" r="8" class="c0"/>
<circle cx="1294" cy="1172" r="6" class="c0"/>
<circle cx="1160" cy="1100" r="6" class="c0"/>
<circle cx="1098" cy="1402" r="6" class="c0"/>
<circle cx="1242" cy="1050" r="6" class="c0"/>
<circle cx="1030" cy="288" r="6" class="c0"/>
<circle cx="1036" cy="584" r="6" class="c0"/>
<circle cx="1150" cy="966" r="6" class="c0"/>
<circle cx="1260" cy="1048" r="6" class="c0"/>
<circle cx="928" cy="1156" r="6" class="c0"/>
<circle cx="1058" cy="618" r="6" class="c0"/>
<circle cx="1200" cy="1242" r="6" class="c0"/>
<circle cx="1046" cy="1292" r="6" class="c0"/>
<circle cx="876" cy="1282" r="6" class="c0"/>
<circle cx="1256" cy="1168" r="6" class="c0"/>
<circle cx="1206" cy="548" r="6" class="c0"/>
<circle cx="1152" cy="758" r="6" class="c0"/>
<circle cx="1260" cy="1266" r="6" class="c0"/>
<circle cx="1108" cy="1046" r="6" class="c0"/>
<circle cx="1064" cy="774" r="6" class="c0"/>
<circle cx="1038" cy="824" r="6" class="c0"/>
<circle cx="1218" cy="1338" r="6" class="c0"/>
<circle cx="1070" cy="948" r="6" class="c0"/>
<circle cx="1250" cy="1228" r="6" class="c0"/>
<circle cx="1022" cy="482" r="6" class="c0"/>
<circle cx="1064" cy="388" r="6" class="c0"/>
<circle cx="862" cy="1272" r="6" class="c0"/>
<circle cx="1090" cy="1196" r="6" class="c0"/>
<circle cx="1040" cy="802" r="6" class="c0"/>
<circle cx="1152" cy="470" r="6" class="c0"/>
<circle cx="1074" cy="1382" r="6" class="c0"/>
<circle cx="1144" cy="344" r="6" class="c0"/>
<circle cx="1040" cy="628" r="6" class="c0"/>
<circle cx="1136" cy="412" r="6" class="c0"/>
<circle cx="1118" cy="1370" r="6" class="c0"/>
<circle cx="1066" cy="600" r="6" class="c0"/>
<circle cx="1144" cy="1360" r="6" class="c0"/>
<circle cx="1002" cy="1166" r="6" class="c0"/>
<circle cx="1290" cy="1222" r="6" class="c0"/>
<circle cx="1242" cy="922" r="6" class="c0"/>
<circle cx="974" cy="776" r="6" class="c0"/>
<circle cx="986" cy="874" r="6" class="c0"/>
<circle cx="1236" cy="1078" r="6" class="c0"/>
<circle cx="1146" cy="310" r="6" class="c0"/>
<circle cx="1208" cy="524" r="6" class="c0"/>
<circle cx="1120" cy="986" r="6" class="c0"/>
<circle cx="1256" cy="554" r="6" class="c0"/>
<circle cx="984" cy="1278" r="6" class="c0"/>
<circle cx="922" cy="1266" r="6" class="c0"/>
<circle cx="1340" cy="510" r="6" class="c0"/>
<circle cx="1254" cy="962" r="6" class="c0"/>
<circle cx="1092" cy="792" r="6" class="c0"/>
<circle cx="1110" cy="310" r="6" class="c0"/>
<circle cx="996" cy="352" r="6" class="c0"/>
<circle cx="1030" cy="414" r="6" class="c0"/>
<circle cx="1336" cy="1252" r="6" class="c0"/>
<circle cx="1036" cy="1174" r="6" class="c0"/>
<circle cx="964" cy="630" r="6" class="c0"/>
<circle cx="1108" cy="522" r="6" class="c0"/>
<circle cx="1300" cy="1104" r="6" class="c0"/>
<circle cx="1262" cy="1220" r="6" class="c0"/>
<circle cx="1182" cy="836" r="6" class="c0"/>
<circle cx="1186" cy="1258" r="6" class="c0"/>
<circle cx="1218" cy="1222" r="6" class="c0"/>
<circle cx="1118" cy="322" r="6" class="c0"/>
<circle cx="1240" cy="1016" r="6" class="c0"/>
<circle cx="1004" cy="1104" r="6" class="c0"/>
<circle cx="1058" cy="1394" r="6" class="c0"/>
<circle cx="1224" cy="1262" r="6" class="c0"/>
<circle cx="1170" cy="1090" r="6" class="c0"/>
<circle cx="1120" cy="1188" r="6" class="c0"/>
<circle cx="1172" cy="316" r="6" class="c0"/>
<circle cx="1162" cy="516" r="6" class="c0"/>
<circle cx="960" cy="838" r="6" class="c0"/>
<circle cx="1378" cy="1270" r="6" class="c0"/>
<circle cx="1198" cy="1200" r="6" class="c0"/>
<circle cx="960" cy="1120" r="6" class="c0"/>
<circle cx="1026" cy="1158" r="6" class="c0"/>
<circle cx="1178" cy="626" r="6" class="c0"/>
<circle cx="1176" cy="1276" r="6" class="c0"/>
<circle cx="1242" cy="1148" r="6" class="c0"/>
<circle cx="1064" cy="1274" r="6" class="c0"/>
<circle cx="948" cy="844" r="6" class="c0"/>
<circle cx="1174" cy="640" r="6" class="c0"/>
<circle cx="1252" cy="1110" r="6" class="c0"/>
<circle cx="1194" cy="750" r="6" class="c0"/>
<circle cx="914" cy="1292" r="6" class="c0"/>
<circle cx="1030" cy="658" r="6" class="c0"/>
<circle cx="1122" cy="934" r="6" class="c0"/>
<circle cx="1254" cy="534" r="6" class="c0"/>
<circle cx="1308" cy="1324" r="6" class="c0"/>
<circle cx="1086" cy="816" r="6" class="c0"/>
<circle cx="1240" cy="972" r="6" class="c0"/>
<circle cx="1136" cy="1022" r="6" class="c0"/>
<circle cx="1032" cy="1232" r="6" class="c0"/>
<circle cx="1190" cy="1192" r="6" class="c0"/>
<circle cx="1138" cy="778" r="6" class="c0"/>
<circle cx="990" cy="1062" r="6" class="c0"/>
<circle cx="986" cy="626" r="6" class="c0"/>
<circle cx="1130" cy="914" r="6" class="c0"/>
<circle cx="1098" cy="656" r="6" class="c0"/>
<circle cx="970" cy="1188" r="6" class="c0"/>
<circle cx="1050" cy="1238" r="6" class="c0"/>
<circle cx="1140" cy="1142" r="6" class="c0"/>
<circle cx="1102" cy="1182" r="6" class="c0"/>
<circle cx="1120" cy="824" r="6" class="c0"/>
<circle cx="1088" cy="1386" r="6" class="c0"/>
<circle cx="936" cy="1148" r="6" class="c0"/>
<circle cx="1100" cy="674" r="6" class="c0"/>
<circle cx="1264" cy="1122" r="6" class="c0"/>
<circle cx="1158" cy="840" r="6" class="c0"/>
<circle cx="1038" cy="644" r="6" class="c0"/>
<circle cx="1032" cy="864" r="6" class="c0"/>
<circle cx="1006" cy="814" r="6" class="c0"/>
<circle cx="1016" cy="1266" r="6" class="c0"/>
<circle cx="1162" cy="718" r="6" class="c0"/>
<circle cx="940" cy="806" r="6" class="c0"/>
<circle cx="1074" cy="514" r="6" class="c0"/>
<circle cx="1072" cy="1076" r="6" class="c0"/>
<circle cx="1322" cy="1024" r="6" class="c0"/>
<circle cx="1070" cy="1212" r="6" class="c0"/>
<circle cx="1180" cy="562" r="6" class="c0"/>
<circle cx="1074" cy="428" r="6" class="c0"/>
<circle cx="912" cy="798" r="6" class="c0"/>
<circle cx="950" cy="1162" r="6" class="c0"/>
<circle cx="1002" cy="1214" r="6" class="c0"/>
<circle cx="1232" cy="982" r="6" class="c0"/>
<circle cx="906" cy="1178" r="6" class="c0"/>
<circle cx="958" cy="660" r="6" class="c0"/>
<circle cx="1108" cy="682" r="6" class="c0"/>
<circle cx="1062" cy="1224" r="6" class="c0"/>
<circle cx="1002" cy="490" r="6" class="c0"/>
<circle cx="994" cy="912" r="6" class="c0"/>
<circle cx="1210" cy="1232" r="6" class="c0"/>
<circle cx="1148" cy="824" r="6" class="c0"/>
<circle cx="998" cy="840" r="6" class="c0"/>
<circle cx="1166" cy="922" r="6" class="c0"/>
<circle cx="1168" cy="544" r="6" class="c0"/>
<circle cx="958" cy="586" r="6" class="c0"/>
<circle cx="1082" cy="884" r="6" class="c0"/>
<circle cx="1198" cy="804" r="6" class="c0"/>
<circle cx="1104" cy="908" r="6" class="c0"/>
<circle cx="1094" cy="424" r="6" class="c0"/>
<circle cx="1042" cy="542" r="6" class="c0"/>
<circle cx="1174" cy="522" r="6" class="c0"/>
<circle cx="1198" cy="784" r="6" class="c0"/>
<circle cx="1008" cy="1276" r="6" class="c0"/>
<circle cx="1198" cy="1088" r="6" class="c0"/>
<circle cx="1208" cy="626" r="6" class="c0"/>
<circle cx="1360" cy="1208" r="6" class="c0"/>
<circle cx="1250" cy="1186" r="6" class="c0"/>
<circle cx="1300" cy="1056" r="6" class="c0"/>
<circle cx="1236" cy="1252" r="6" class="c0"/>
<circle cx="1140" cy="904" r="6" class="c0"/>
<circle cx="952" cy="748" r="6" class="c0"/>
<circle cx="1146" cy="700" r="6" class="c0"/>
<circle cx="1318" cy="520" r="6" class="c0"/>
<circle cx="1348" cy="1220" r="6" class="c0"/>
<circle cx="1230" cy="1024" r="6" class="c0"/>
<circle cx="1010" cy="1026" r="6" class="c0"/>
<circle cx="1216" cy="1312" r="6" class="c0"/>
<circle cx="1006" cy="640" r="6" class="c0"/>
<circle cx="1134" cy="1368" r="6" class="c0"/>
<circle cx="1066" cy="436" r="6" class="c0"/>
<circle cx="922" cy="1184" r="6" class="c0"/>
<circle cx="1024" cy="428" r="6" class="c0"/>
<circle cx="966" cy="936" r="6" class="c0"/>
<circle cx="984" cy="606" r="6" class="c0"/>
<circle cx="990" cy="830" r="6" class="c0"/>
<circle cx="1024" cy="1258" r="6" class="c0"/>
<circle cx="1182" cy="978" r="6" class="c0"/>
<circle cx="1268" cy="964" r="6" class="c0"/>
<circle cx="1088" cy="488" r="6" class="c0"/>
<circle cx="1342" cy="1160" r="6" class="c0"/>
<circle cx="1176" cy="1012" r="6" class="c0"/>
<circle cx="1052" cy="530" r="6" class="c0"/>
<circle cx="914" cy="1276" r="6" class="c0"/>
<circle cx="1130" cy="1116" r="6" class="c0"/>
<circle cx="1094" cy="824" r="6" class="c0"/>
<circle cx="1154" cy="938" r="6" class="c0"/>
<circle cx="1184" cy="374" r="6" class="c0"/>
<circle cx="1204" cy="1212" r="6" class="c0"/>
<circle cx="1314" cy="1302" r="6" class="c0"/>
<circle cx="1332" cy="1034" r="6" class="c0"/>
<circle cx="1238" cy="906" r="6" class="c0"/>
<circle cx="1100" cy="850" r="6" class="c0"/>
<circle cx="1034" cy="502" r="6" class="c0"/>
<circle cx="1298" cy="1026" r="6" class="c0"/>
<circle cx="1184" cy="1288" r="6" class="c0"/>
<circle cx="1090" cy="1350" r="6" class="c0"/>
<circle cx="1142" cy="1062" r="6" class="c0"/>
<circle cx="980" cy="1348" r="6" class="c0"/>
<circle cx="972" cy="804" r="6" class="c0"/>
<circle cx="1216" cy="562" r="6" class="c0"/>
<circle cx="1144" cy="1164" r="6" class="c0"/>
<circle cx="1008" cy="306" r="6" class="c0"/>
<circle cx="1212" cy="1268" r="6" class="c0"/>
<circle cx="878" cy="1218" r="6" class="c0"/>
<circle cx="1068" cy="628" r="6" class="c0"/>
<circle cx="1180" cy="360" r="6" class="c0"/>
<circle cx="934" cy="1326" r="6" class="c0"/>
<circle cx="1218" cy="1030" r="6" class="c0"/>
<circle cx="1168" cy="482" r="6" class="c0"/>
<circle cx="1202" cy="348" r="6" class="c0"/>
<circle cx="1204" cy="1162" r="6" class="c0"/>
<circle cx="996" cy="802" r="6" class="c0"/>
<circle cx="1022" cy="330" r="6" class="c0"/>
<circle cx="1090" cy="570" r="6" class="c0"/>
<circle cx="1094" cy="304" r="6" class="c0"/>
<circle cx="1112" cy="1088" r="6" class="c0"/>
<circle cx="980" cy="1014" r="6" class="c0"/>
<circle cx="1160" cy="606" r="6" class="c0"/>
<circle cx="946" cy="1306" r="6" class="c0"/>
<circle cx="1190" cy="940" r="6" class="c0"/>
<circle cx="1084" cy="362" r="6" class="c0"/>
<circle cx="1288" cy="986" r="6" class="c0"/>
<circle cx="1000" cy="720" r="6" class="c0"/>
<circle cx="1346" cy="1064" r="6" class="c0"/>
<circle cx="980" cy="322" r="6" class="c0"/>
<circle cx="1094" cy="1170" r="6" class="c0"/>
<circle cx="1300" cy="504" r="6" class="c0"/>
<circle cx="1182" cy="1364" r="6" class="c0"/>
<circle cx="1072" cy="1002" r="6" class="c0"/>
<circle cx="1220" cy="376" r="6" class="c0"/>
<circle cx="952" cy="1018" r="6" class="c0"/>
<circle cx="1332" cy="582" r="6" class="c0"/>
<circle cx="1048" cy="834" r="6" class="c0"/>
<circle cx="1282" cy="524" r="6" class="c0"/>
<circle cx="1182" cy="904" r="6" class="c0"/>
<circle cx="1208" cy="916" r="6" class="c0"/>
<circle cx="1130" cy="976" r="6" class="c0"/>
<circle cx="1288" cy="1148" r="6" class="c0"/>
<circle cx="978" cy="680" r="6" class="c0"/>
<circle cx="1200" cy="474" r="6" class="c0"/>
<circle cx="1308" cy="1186" r="6" class="c0"/>
<circle cx="1022" cy="382" r="6" class="c0"/>
<circle cx="1336" cy="566" r="6" class="c0"/>
<circle cx="1040" cy="1202" r="6" class="c0"/>
<circle cx="1094" cy="1052" r="6" class="c0"/>
<circle cx="980" cy="1040" r="6" class="c0"/>
<circle cx="1024" cy="1090" r="6" class="c0"/>
<circle cx="1150" cy="414" r="6" class="c0"/>
<circle cx="968" cy="1008" r="6" class="c0"/>
<circle cx="1032" cy="1350" r="6" class="c0"/>
<circle cx="1012" cy="1324" r="6" class="c0"/>
<circle cx="1130" cy="674" r="6" class="c0"/>
<circle cx="1192" cy="428" r="6" class="c0"/>
<circle cx="1126" cy="1266" r="6" class="c0"/>
<circle cx="1198" cy="684" r="6" class="c0"/>
<circle cx="1362" cy="1324" r="6" class="c0"/>
<circle cx="1130" cy="862" r="6" class="c0"/>
<circle cx="918" cy="740" r="6" class="c0"/>
<circle cx="968" cy="982" r="6" class="c0"/>
<circle cx="986" cy="924" r="6" class="c0"/>
<circle cx="1100" cy="926" r="6" class="c0"/>
<circle cx="1288" cy="1282" r="6" class="c0"/>
<circle cx="1314" cy="1142" r="6" class="c0"/>
<circle cx="1078" cy="730" r="6" class="c0"/>
<circle cx="1052" cy="382" r="6" class="c0"/>
<circle cx="1142" cy="748" r="6" class="c0"/>
<circle cx="1286" cy="600" r="6" class="c0"/>
<circle cx="1112" cy="958" r="6" class="c0"/>
<circle cx="1228" cy="1186" r="6" class="c0"/>
<circle cx="1116" cy="508" r="6" class="c0"/>
<circle cx="954" cy="1070" r="6" class="c0"/>
<circle cx="1152" cy="1308" r="6" class="c0"/>
<circle cx="1128" cy="1170" r="6" class="c0"/>
<circle cx="1078" cy="1202" r="6" class="c0"/>
<circle cx="1064" cy="304" r="6" class="c0"/>
<circle cx="1304" cy="1070" r="6" class="c0"/>
<circle cx="1174" cy="912" r="6" class="c0"/>
<circle cx="1130" cy="558" r="6" class="c0"/>
<circle cx="1098" cy="612" r="6" class="c0"/>
<circle cx="1004" cy="1128" r="6" class="c0"/>
<circle cx="994" cy="572" r="6" class="c0"/>
<circle cx="956" cy="1092" r="6" class="c0"/>
<circle cx="860" cy="1288" r="6" class="c0"/>
<circle cx="1180" cy="438" r="6" class="c0"/>
<circle cx="862" cy="1308" r="6" class="c0"/>
<circle cx="1116" cy="1010" r="6" class="c0"/>
<circle cx="1118" cy="446" r="6" class="c0"/>
<circle cx="994" cy="666" r="6" class="c0"/>
<circle cx="1062" cy="1352" r="6" class="c0"/>
<circle cx="1192" cy="736" r="6" class="c0"/>
<circle cx="1068" cy="924" r="6" class="c0"/>
<circle cx="1042" cy="360" r="6" class="c0"/>
<circle cx="982" cy="1054" r="6" class="c0"/>
<circle cx="974" cy="712" r="6" class="c0"/>
<circle cx="1156" cy="954" r="6" class="c0"/>
<circle cx="1056" cy="1138" r="6" class="c0"/>
<circle cx="1166" cy="574" r="6" class="c0"/>
<circle cx="1092" cy="1010" r="6" class="c0"/>
<circle cx="1326" cy="512" r="6" class="c0"/>
<circle cx="1246" cy="604" r="6" class="c0"/>
<circle cx="1014" cy="514" r="6" class="c0"/>
<circle cx="1040" cy="956" r="6" class="c0"/>
<circle cx="980" cy="862" r="6" class="c0"/>
<circle cx="1054" cy="766" r="6" class="c0"/>
<circle cx="1338" cy="1298" r="6" class="c0"/>
<circle cx="1074" cy="398" r="6" class="c0"/>
<circle cx="918" cy="698" r="6" class="c0"/>
<circle cx="966" cy="792" r="6" class="c0"/>
<circle cx="1166" cy="1132" r="6" class="c0"/>
<circle cx="934" cy="998" r="6" class="c0"/>
<circle cx="1038" cy="1264" r="6" class="c0"/>
<circle cx="1240" cy="884" r="6" class="c0"/>
<circle cx="1272" cy="1352" r="6" class="c0"/>
<circle cx="928" cy="732" r="6" class="c0"/>
<circle cx="1060" cy="336" r="6" class="c0"/>
<circle cx="1014" cy="582" r="6" class="c0"/>
<circle cx="1224" cy="990" r="6" class="c0"/>
<circle cx="1184" cy="870" r="6" class="c0"/>
<circle cx="1120" cy="1302" r="6" class="c0"/>
<circle cx="1014" cy="890" r="6" class="c0"/>
<circle cx="1026" cy="1218" r="6" class="c0"/>
<circle cx="1322" cy="1158" r="6" class="c0"/>
<circle cx="1108" cy="648" r="6" class="c0"/>
<circle cx="1184" cy="1094" r="6" class="c0"/>
<circle cx="1002" cy="940" r="6" class="c0"/>
<circle cx="996" cy="1112" r="6" class="c0"/>
<circle cx="1108" cy="790" r="6" class="c0"/>
<circle cx="992" cy="332" r="6" class="c0"/>
<circle cx="896" cy="1170" r="6" class="c0"/>
<circle cx="1016" cy="1010" r="6" class="c0"/>
<circle cx="1072" cy="354" r="6" class="c0"/>
</svg>
