<?xml version="1.0" encoding="utf-8"?>
<svg xmlns="http://www.w3.org/2000/svg"
     xmlns:xlink="http://www.w3.org/1999/xlink" width="1920" height="1440" >

            <defs>
            <style type="text/css"><![CDATA[
circle {stroke: none;}
.c0 {fill: #FFFFFF;}
]]></style>
            </defs>
<rect x="0" y="0" width="1920" height="1440" fill="black"/>
<circle cx="974" cy="1096" r="14" class="c0"/>
<circle cx="912" cy="418" r="14" class="c0"/>
<circle cx="1022" cy="568" r="14" class="c0"/>
<circle cx="1018" cy="378" r="14" class="c0"/>
<circle cx="1136" cy="438" r="12" class="c0"/>
<circle cx="1270" cy="1072" r="12" class="c0"/>
<circle cx="832" cy="1044" r="12" class="c0"/>
<circle cx="1014" cy="1102" r="12" class="c0"/>
<circle cx="936" cy="1064" r="12" class="c0"/>
<circle cx="1126" cy="970" r="12" class="c0"/>
<circle cx="1042" cy="938" r="12" class="c0"/>
<circle cx="1154" cy="1016" r="12" class="c0"/>
<circle cx="952" cy="1018" r="12" class="c0"/>
<circle cx="1112" cy="802" r="12" class="c0"/>
<circle cx="1078" cy="854" r="12" class="c0"/>
<circle cx="626" cy="1026" r="12" class="c0"/>
<circle cx="600" cy="964" r="12" class="c0"/>
<circle cx="958" cy="570" r="12" class="c0"/>
<circle cx="986" cy="342" r="12" class="c0"/>
<circle cx="1028" cy="258" r="12" class="c0"/>
<circle cx="1006" cy="520" r="12" class="c0"/>
<circle cx="652" cy="970" r="12" class="c0"/>
<circle cx="998" cy="496" r="12" class="c0"/>
<circle cx="930" cy="342" r="12" class="c0"/>
<circle cx="966" cy="946" r="12" class="c0"/>
<circle cx="978" cy="588" r="12" class="c0"/>
<circle cx="1102" cy="486" r="12" class="c0"/>
<circle cx="930" cy="648" r="12" class="c0"/>
<circle cx="1064" cy="434" r="12" class="c0"/>
<circle cx="1198" cy="554" r="12" class="c0"/>
<circle cx="892" cy="1008" r="12" class="c0"/>
<circle cx="994" cy="958" r="12" class="c0"/>
<circle cx="956" cy="1262" r="12" class="c0"/>
<circle cx="964" cy="602" r="12" class="c0"/>
<circle cx="986" cy="1244" r="12" class="c0"/>
<circle cx="1012" cy="292" r="12" class="c0"/>
<circle cx="904" cy="750" r="12" class="c0"/>
<circle cx="1120" cy="392" r="12" class="c0"/>
<circle cx="1194" cy="1020" r="12" class="c0"/>
<circle cx="1064" cy="992" r="12" class="c0"/>
<circle cx="910" cy="898" r="12" class="c0"/>
<circle cx="980" cy="1380" r="12" class="c0"/>
<circle cx="1026" cy="622" r="12" class="c0"/>
<circle cx="994" cy="1300" r="12" class="c0"/>
<circle cx="1232" cy="824" r="12" class="c0"/>
<circle cx="1042" cy="1072" r="12" class="c0"/>
<circle cx="1046" cy="1306" r="12" class="c0"/>
<circle cx="1078" cy="1040" r="12" class="c0"/>
<circle cx="742" cy="978" r="12" class="c0"/>
<circle cx="970" cy="1314" r="12" class="c0"/>
<circle cx="1024" cy="960" r="12" class="c0"/>
<circle cx="960" cy="1352" r="12" class="c0"/>
<circle cx="558" cy="978" r="12" class="c0"/>
<circle cx="978" cy="840" r="12" class="c0"/>
<circle cx="670" cy="1014" r="12" class="c0"/>
<circle cx="996" cy="880" r="12" class="c0"/>
<circle cx="816" cy="876" r="12" class="c0"/>
<circle cx="1164" cy="596" r="12" class="c0"/>
<circle cx="1064" cy="320" r="12" class="c0"/>
<circle cx="1156" cy="1068" r="12" class="c0"/>
<circle cx="964" cy="480" r="12" class="c0"/>
<circle cx="966" cy="394" r="12" class="c0"/>
<circle cx="950" cy="1186" r="12" class="c0"/>
<circle cx="1094" cy="818" r="12" class="c0"/>
<circle cx="942" cy="822" r="12" class="c0"/>
<circle cx="596" cy="1040" r="12" class="c0"/>
<circle cx="924" cy="612" r="10" class="c0"/>
<circle cx="996" cy="728" r="10" class="c0"/>
<circle cx="982" cy="258" r="10" class="c0"/>
<circle cx="996" cy="410" r="10" class="c0"/>
<circle cx="1180" cy="658" r="10" class="c0"/>
<circle cx="778" cy="978" r="10" class="c0"/>
<circle cx="982" cy="772" r="10" class="c0"/>
<circle cx="1008" cy="794" r="10" class="c0"/>
<circle cx="1040" cy="554" r="10" class="c0"/>
<circle cx="1194" cy="630" r="10" class="c0"/>
<circle cx="568" cy="1048" r="10" class="c0"/>
<circle cx="684" cy="958" r="10" class="c0"/>
<circle cx="982" cy="468" r="10" class="c0"/>
<circle cx="538" cy="948" r="10" class="c0"/>
<circle cx="612" cy="518" r="10" class="c0"/>
<circle cx="1074" cy="520" r="10" class="c0"/>
<circle cx="916" cy="510" r="10" class="c0"/>
<circle cx="988" cy="984" r="10" class="c0"/>
<circle cx="884" cy="738" r="10" class="c0"/>
<circle cx="660" cy="1102" r="10" class="c0"/>
<circle cx="638" cy="988" r="10" class="c0"/>
<circle cx="1216" cy="480" r="10" class="c0"/>
<circle cx="1048" cy="878" r="10" class="c0"/>
<circle cx="930" cy="802" r="10" class="c0"/>
<circle cx="736" cy="926" r="10" class="c0"/>
<circle cx="946" cy="320" r="10" class="c0"/>
<circle cx="930" cy="486" r="10" class="c0"/>
<circle cx="1006" cy="1400" r="10" class="c0"/>
<circle cx="966" cy="884" r="10" class="c0"/>
<circle cx="1038" cy="334" r="10" class="c0"/>
<circle cx="864" cy="1104" r="10" class="c0"/>
<circle cx="690" cy="930" r="10" class="c0"/>
<circle cx="864" cy="820" r="10" class="c0"/>
<circle cx="1028" cy="1088" r="10" class="c0"/>
<circle cx="1340" cy="1064" r="10" class="c0"/>
<circle cx="880" cy="834" r="10" class="c0"/>
<circle cx="1242" cy="608" r="10" class="c0"/>
<circle cx="1240" cy="1078" r="10" class="c0"/>
<circle cx="1026" cy="920" r="10" class="c0"/>
<circle cx="1054" cy="580" r="10" class="c0"/>
<circle cx="816" cy="582" r="10" class="c0"/>
<circle cx="722" cy="1056" r="10" class="c0"/>
<circle cx="862" cy="1082" r="10" class="c0"/>
<circle cx="1218" cy="1008" r="10" class="c0"/>
<circle cx="1054" cy="966" r="10" class="c0"/>
<circle cx="1052" cy="506" r="10" class="c0"/>
<circle cx="1076" cy="798" r="10" class="c0"/>
<circle cx="1110" cy="752" r="10" class="c0"/>
<circle cx="804" cy="1026" r="10" class="c0"/>
<circle cx="944" cy="370" r="10" class="c0"/>
<circle cx="946" cy="634" r="10" class="c0"/>
<circle cx="942" cy="398" r="10" class="c0"/>
<circle cx="750" cy="892" r="10" class="c0"/>
<circle cx="1172" cy="492" r="10" class="c0"/>
<circle cx="896" cy="810" r="10" class="c0"/>
<circle cx="1050" cy="1184" r="10" class="c0"/>
<circle cx="890" cy="276" r="10" class="c0"/>
<circle cx="1112" cy="1068" r="10" class="c0"/>
<circle cx="1040" cy="818" r="10" class="c0"/>
<circle cx="954" cy="896" r="10" class="c0"/>
<circle cx="1036" cy="1254" r="10" class="c0"/>
<circle cx="1016" cy="1226" r="10" class="c0"/>
<circle cx="906" cy="1184" r="10" class="c0"/>
<circle cx="756" cy="572" r="10" class="c0"/>
<circle cx="978" cy="868" r="10" class="c0"/>
<circle cx="982" cy="618" r="10" class="c0"/>
<circle cx="1202" cy="452" r="10" class="c0"/>
<circle cx="914" cy="546" r="10" class="c0"/>
<circle cx="1042" cy="1384" r="10" class="c0"/>
<circle cx="914" cy="1136" r="10" class="c0"/>
<circle cx="1054" cy="1038" r="10" class="c0"/>
<circle cx="736" cy="1042" r="10" class="c0"/>
<circle cx="1110" cy="844" r="10" class="c0"/>
<circle cx="946" cy="1330" r="10" class="c0"/>
<circle cx="890" cy="1032" r="10" class="c0"/>
<circle cx="1040" cy="402" r="10" class="c0"/>
<circle cx="930" cy="748" r="10" class="c0"/>
<circle cx="930" cy="1110" r="10" class="c0"/>
<circle cx="842" cy="932" r="10" class="c0"/>
<circle cx="1094" cy="528" r="10" class="c0"/>
<circle cx="888" cy="1114" r="10" class="c0"/>
<circle cx="966" cy="1226" r="10" class="c0"/>
<circle cx="1022" cy="696" r="10" class="c0"/>
<circle cx="924" cy="688" r="10" class="c0"/>
<circle cx="908" cy="700" r="10" class="c0"/>
<circle cx="972" cy="430" r="10" class="c0"/>
<circle cx="906" cy="1058" r="10" class="c0"/>
<circle cx="754" cy="548" r="10" class="c0"/>
<circle cx="848" cy="988" r="10" class="c0"/>
<circle cx="1212" cy="572" r="10" class="c0"/>
<circle cx="1074" cy="492" r="10" class="c0"/>
<circle cx="1022" cy="672" r="10" class="c0"/>
<circle cx="956" cy="780" r="10" class="c0"/>
<circle cx="688" cy="532" r="10" class="c0"/>
<circle cx="1030" cy="1000" r="10" class="c0"/>
<circle cx="1098" cy="560" r="10" class="c0"/>
<circle cx="948" cy="514" r="10" class="c0"/>
<circle cx="996" cy="644" r="10" class="c0"/>
<circle cx="908" cy="378" r="10" class="c0"/>
<circle cx="904" cy="522" r="10" class="c0"/>
<circle cx="894" cy="950" r="10" class="c0"/>
<circle cx="1054" cy="1276" r="10" class="c0"/>
<circle cx="894" cy="396" r="10" class="c0"/>
<circle cx="906" cy="256" r="10" class="c0"/>
<circle cx="942" cy="422" r="10" class="c0"/>
<circle cx="574" cy="1012" r="10" class="c0"/>
<circle cx="1042" cy="778" r="10" class="c0"/>
<circle cx="738" cy="1020" r="10" class="c0"/>
<circle cx="842" cy="824" r="10" class="c0"/>
<circle cx="594" cy="928" r="10" class="c0"/>
<circle cx="974" cy="1168" r="10" class="c0"/>
<circle cx="982" cy="664" r="10" class="c0"/>
<circle cx="1102" cy="986" r="10" class="c0"/>
<circle cx="896" cy="594" r="10" class="c0"/>
<circle cx="1036" cy="458" r="10" class="c0"/>
<circle cx="1256" cy="520" r="10" class="c0"/>
<circle cx="922" cy="320" r="10" class="c0"/>
<circle cx="1088" cy="392" r="10" class="c0"/>
<circle cx="988" cy="366" r="10" class="c0"/>
<circle cx="860" cy="506" r="10" class="c0"/>
<circle cx="1026" cy="1288" r="10" class="c0"/>
<circle cx="996" cy="1366" r="10" class="c0"/>
<circle cx="1218" cy="612" r="10" class="c0"/>
<circle cx="1000" cy="1196" r="10" class="c0"/>
<circle cx="912" cy="928" r="10" class="c0"/>
<circle cx="764" cy="1064" r="10" class="c0"/>
<circle cx="1024" cy="718" r="10" class="c0"/>
<circle cx="1198" cy="684" r="10" class="c0"/>
<circle cx="922" cy="1170" r="10" class="c0"/>
<circle cx="870" cy="930" r="10" class="c0"/>
<circle cx="1078" cy="920" r="10" class="c0"/>
<circle cx="1214" cy="1064" r="10" class="c0"/>
<circle cx="958" cy="1138" r="10" class="c0"/>
<circle cx="624" cy="972" r="10" class="c0"/>
<circle cx="950" cy="700" r="10" class="c0"/>
<circle cx="996" cy="908" r="10" class="c0"/>
<circle cx="994" cy="1150" r="10" class="c0"/>
<circle cx="964" cy="526" r="10" class="c0"/>
<circle cx="946" cy="982" r="10" class="c0"/>
<circle cx="668" cy="1078" r="10" class="c0"/>
<circle cx="916" cy="990" r="10" class="c0"/>
<circle cx="808" cy="532" r="10" class="c0"/>
<circle cx="846" cy="870" r="10" class="c0"/>
<circle cx="1236" cy="492" r="10" class="c0"/>
<circle cx="706" cy="552" r="10" class="c0"/>
<circle cx="958" cy="758" r="10" class="c0"/>
<circle cx="1072" cy="882" r="10" class="c0"/>
<circle cx="1164" cy="530" r="10" class="c0"/>
<circle cx="1122" cy="510" r="10" class="c0"/>
<circle cx="1236" cy="1030" r="10" class="c0"/>
<circle cx="882" cy="768" r="10" class="c0"/>
<circle cx="810" cy="954" r="10" class="c0"/>
<circle cx="908" cy="856" r="10" class="c0"/>
<circle cx="1202" cy="512" r="10" class="c0"/>
<circle cx="928" cy="1088" r="10" class="c0"/>
<circle cx="1048" cy="1206" r="10" class="c0"/>
<circle cx="798" cy="560" r="10" class="c0"/>
<circle cx="956" cy="656" r="10" class="c0"/>
<circle cx="1062" cy="740" r="10" class="c0"/>
<circle cx="904" cy="970" r="10" class="c0"/>
<circle cx="866" cy="1040" r="10" class="c0"/>
<circle cx="1006" cy="1328" r="10" class="c0"/>
<circle cx="900" cy="338" r="10" class="c0"/>
<circle cx="1066" cy="954" r="10" class="c0"/>
<circle cx="1118" cy="536" r="10" class="c0"/>
<circle cx="1228" cy="636" r="10" class="c0"/>
<circle cx="868" cy="966" r="10" class="c0"/>
<circle cx="1014" cy="862" r="10" class="c0"/>
<circle cx="1004" cy="1028" r="10" class="c0"/>
<circle cx="970" cy="818" r="10" class="c0"/>
<circle cx="1304" cy="1072" r="10" class="c0"/>
<circle cx="1008" cy="840" r="10" class="c0"/>
<circle cx="1116" cy="328" r="10" class="c0"/>
<circle cx="616" cy="1064" r="10" class="c0"/>
<circle cx="1016" cy="818" r="10" class="c0"/>
<circle cx="756" cy="950" r="10" class="c0"/>
<circle cx="966" cy="996" r="10" class="c0"/>
<circle cx="1030" cy="1172" r="10" class="c0"/>
<circle cx="830" cy="912" r="10" class="c0"/>
<circle cx="948" cy="256" r="10" class="c0"/>
<circle cx="1228" cy="594" r="10" class="c0"/>
<circle cx="1124" cy="830" r="10" class="c0"/>
<circle cx="862" cy="542" r="10" class="c0"/>
<circle cx="848" cy="574" r="10" class="c0"/>
<circle cx="882" cy="980" r="10" class="c0"/>
<circle cx="1066" cy="368" r="10" class="c0"/>
<circle cx="820" cy="974" r="10" class="c0"/>
<circle cx="878" cy="294" r="10" class="c0"/>
<circle cx="1318" cy="1092" r="10" class="c0"/>
<circle cx="652" cy="564" r="10" class="c0"/>
<circle cx="1136" cy="1042" r="10" class="c0"/>
<circle cx="1048" cy="1018" r="8" class="c0"/>
<circle cx="1076" cy="300" r="8" class="c0"/>
<circle cx="854" cy="792" r="8" class="c0"/>
<circle cx="624" cy="1086" r="8" class="c0"/>
<circle cx="970" cy="922" r="8" class="c0"/>
<circle cx="634" cy="956" r="8" class="c0"/>
<circle cx="952" cy="918" r="8" class="c0"/>
<circle cx="1098" cy="368" r="8" class="c0"/>
<circle cx="988" cy="446" r="8" class="c0"/>
<circle cx="1182" cy="828" r="8" class="c0"/>
<circle cx="818" cy="556" r="8" class="c0"/>
<circle cx="1108" cy="780" r="8" class="c0"/>
<circle cx="1196" cy="582" r="8" class="c0"/>
<circle cx="1348" cy="1116" r="8" class="c0"/>
<circle cx="1032" cy="426" r="8" class="c0"/>
<circle cx="1006" cy="448" r="8" class="c0"/>
<circle cx="714" cy="1024" r="8" class="c0"/>
<circle cx="1042" cy="482" r="8" class="c0"/>
<circle cx="974" cy="546" r="8" class="c0"/>
<circle cx="988" cy="1128" r="8" class="c0"/>
<circle cx="1084" cy="976" r="8" class="c0"/>
<circle cx="986" cy="1050" r="8" class="c0"/>
<circle cx="1234" cy="522" r="8" class="c0"/>
<circle cx="730" cy="1082" r="8" class="c0"/>
<circle cx="1148" cy="464" r="8" class="c0"/>
<circle cx="968" cy="798" r="8" class="c0"/>
<circle cx="1094" cy="902" r="8" class="c0"/>
<circle cx="780" cy="900" r="8" class="c0"/>
<circle cx="1120" cy="1004" r="8" class="c0"/>
<circle cx="1022" cy="310" r="8" class="c0"/>
<circle cx="1066" cy="472" r="8" class="c0"/>
<circle cx="972" cy="1196" r="8" class="c0"/>
<circle cx="1006" cy="686" r="8" class="c0"/>
<circle cx="892" cy="556" r="8" class="c0"/>
<circle cx="972" cy="296" r="8" class="c0"/>
<circle cx="1176" cy="1038" r="8" class="c0"/>
<circle cx="854" cy="846" r="8" class="c0"/>
<circle cx="704" cy="1046" r="8" class="c0"/>
<circle cx="1026" cy="1414" r="8" class="c0"/>
<circle cx="890" cy="534" r="8" class="c0"/>
<circle cx="1004" cy="248" r="8" class="c0"/>
<circle cx="900" cy="1092" r="8" class="c0"/>
<circle cx="1062" cy="770" r="8" class="c0"/>
<circle cx="1206" cy="600" r="8" class="c0"/>
<circle cx="1130" cy="606" r="8" class="c0"/>
<circle cx="1258" cy="482" r="8" class="c0"/>
<circle cx="1264" cy="596" r="8" class="c0"/>
<circle cx="1144" cy="528" r="8" class="c0"/>
<circle cx="1048" cy="1430" r="8" class="c0"/>
<circle cx="1024" cy="1202" r="8" class="c0"/>
<circle cx="1292" cy="1088" r="8" class="c0"/>
<circle cx="720" cy="1004" r="8" class="c0"/>
<circle cx="880" cy="858" r="8" class="c0"/>
<circle cx="1036" cy="756" r="8" class="c0"/>
<circle cx="1052" cy="354" r="8" class="c0"/>
<circle cx="966" cy="684" r="8" class="c0"/>
<circle cx="694" cy="976" r="8" class="c0"/>
<circle cx="1012" cy="1072" r="8" class="c0"/>
<circle cx="1166" cy="638" r="8" class="c0"/>
<circle cx="830" cy="542" r="8" class="c0"/>
<circle cx="1242" cy="562" r="8" class="c0"/>
<circle cx="694" cy="1068" r="8" class="c0"/>
<circle cx="820" cy="830" r="8" class="c0"/>
<circle cx="1050" cy="1230" r="8" class="c0"/>
<circle cx="1362" cy="1060" r="8" class="c0"/>
<circle cx="926" cy="710" r="8" class="c0"/>
<circle cx="1118" cy="594" r="8" class="c0"/>
<circle cx="1062" cy="1250" r="8" class="c0"/>
<circle cx="938" cy="544" r="8" class="c0"/>
<circle cx="1124" cy="572" r="8" class="c0"/>
<circle cx="924" cy="1030" r="8" class="c0"/>
<circle cx="1258" cy="1036" r="8" class="c0"/>
<circle cx="1092" cy="744" r="8" class="c0"/>
<circle cx="688" cy="1088" r="8" class="c0"/>
<circle cx="730" cy="558" r="8" class="c0"/>
<circle cx="1166" cy="814" r="8" class="c0"/>
<circle cx="972" cy="1062" r="8" class="c0"/>
<circle cx="610" cy="990" r="8" class="c0"/>
<circle cx="916" cy="592" r="8" class="c0"/>
<circle cx="566" cy="940" r="8" class="c0"/>
<circle cx="614" cy="946" r="8" class="c0"/>
<circle cx="678" cy="550" r="8" class="c0"/>
<circle cx="940" cy="1278" r="8" class="c0"/>
<circle cx="1090" cy="328" r="8" class="c0"/>
<circle cx="932" cy="578" r="8" class="c0"/>
<circle cx="1210" cy="1034" r="8" class="c0"/>
<circle cx="810" cy="994" r="8" class="c0"/>
<circle cx="1242" cy="1054" r="8" class="c0"/>
<circle cx="1048" cy="1110" r="8" class="c0"/>
<circle cx="1116" cy="468" r="8" class="c0"/>
<circle cx="1184" cy="568" r="8" class="c0"/>
<circle cx="1084" cy="462" r="8" class="c0"/>
<circle cx="1156" cy="482" r="8" class="c0"/>
<circle cx="646" cy="530" r="8" class="c0"/>
<circle cx="798" cy="906" r="8" class="c0"/>
<circle cx="934" cy="884" r="8" class="c0"/>
<circle cx="1270" cy="496" r="8" class="c0"/>
<circle cx="1260" cy="560" r="8" class="c0"/>
<circle cx="1250" cy="540" r="8" class="c0"/>
<circle cx="978" cy="1340" r="8" class="c0"/>
<circle cx="1018" cy="596" r="8" class="c0"/>
<circle cx="1134" cy="498" r="8" class="c0"/>
<circle cx="1258" cy="632" r="8" class="c0"/>
<circle cx="1354" cy="1076" r="8" class="c0"/>
<circle cx="1156" cy="556" r="8" class="c0"/>
<circle cx="944" cy="1212" r="8" class="c0"/>
<circle cx="1064" cy="1056" r="8" class="c0"/>
<circle cx="866" cy="1012" r="8" class="c0"/>
<circle cx="848" cy="530" r="8" class="c0"/>
<circle cx="1102" cy="422" r="8" class="c0"/>
<circle cx="784" cy="866" r="8" class="c0"/>
<circle cx="1166" cy="1048" r="8" class="c0"/>
<circle cx="898" cy="916" r="8" class="c0"/>
<circle cx="1018" cy="470" r="8" class="c0"/>
<circle cx="1278" cy="520" r="8" class="c0"/>
<circle cx="940" cy="846" r="8" class="c0"/>
<circle cx="774" cy="564" r="8" class="c0"/>
<circle cx="830" cy="856" r="8" class="c0"/>
<circle cx="782" cy="1050" r="8" class="c0"/>
<circle cx="1088" cy="1008" r="8" class="c0"/>
<circle cx="646" cy="946" r="8" class="c0"/>
<circle cx="1032" cy="530" r="8" class="c0"/>
<circle cx="1050" cy="1408" r="8" class="c0"/>
<circle cx="1134" cy="776" r="8" class="c0"/>
<circle cx="720" cy="960" r="8" class="c0"/>
<circle cx="1192" cy="474" r="8" class="c0"/>
<circle cx="1030" cy="1346" r="8" class="c0"/>
<circle cx="912" cy="820" r="8" class="c0"/>
<circle cx="984" cy="284" r="8" class="c0"/>
<circle cx="1174" cy="456" r="8" class="c0"/>
<circle cx="962" cy="1400" r="8" class="c0"/>
<circle cx="1374" cy="1088" r="8" class="c0"/>
<circle cx="990" cy="1180" r="8" class="c0"/>
<circle cx="1016" cy="980" r="8" class="c0"/>
<circle cx="1318" cy="1046" r="8" class="c0"/>
<circle cx="984" cy="1282" r="8" class="c0"/>
<circle cx="1046" cy="304" r="8" class="c0"/>
<circle cx="952" cy="1042" r="8" class="c0"/>
<circle cx="1084" cy="358" r="8" class="c0"/>
<circle cx="952" cy="1374" r="8" class="c0"/>
<circle cx="1028" cy="494" r="8" class="c0"/>
<circle cx="1086" cy="1066" r="8" class="c0"/>
<circle cx="912" cy="278" r="8" class="c0"/>
<circle cx="828" cy="1000" r="8" class="c0"/>
<circle cx="1002" cy="1260" r="8" class="c0"/>
<circle cx="600" cy="1000" r="8" class="c0"/>
<circle cx="760" cy="996" r="8" class="c0"/>
<circle cx="972" cy="1036" r="8" class="c0"/>
<circle cx="1202" cy="840" r="8" class="c0"/>
<circle cx="1050" cy="1162" r="8" class="c0"/>
<circle cx="902" cy="656" r="8" class="c0"/>
<circle cx="872" cy="1124" r="8" class="c0"/>
<circle cx="980" cy="738" r="8" class="c0"/>
<circle cx="914" cy="636" r="8" class="c0"/>
<circle cx="1148" cy="572" r="8" class="c0"/>
<circle cx="1296" cy="1054" r="8" class="c0"/>
<circle cx="998" cy="544" r="8" class="c0"/>
<circle cx="588" cy="986" r="8" class="c0"/>
<circle cx="926" cy="1228" r="8" class="c0"/>
<circle cx="994" cy="930" r="8" class="c0"/>
<circle cx="974" cy="700" r="8" class="c0"/>
<circle cx="888" cy="878" r="8" class="c0"/>
<circle cx="1176" cy="1004" r="8" class="c0"/>
<circle cx="1036" cy="280" r="8" class="c0"/>
<circle cx="1108" cy="922" r="8" class="c0"/>
<circle cx="904" cy="616" r="8" class="c0"/>
<circle cx="1186" cy="528" r="8" class="c0"/>
<circle cx="746" cy="1074" r="8" class="c0"/>
<circle cx="954" cy="720" r="8" class="c0"/>
<circle cx="800" cy="926" r="8" class="c0"/>
<circle cx="1156" cy="508" r="8" class="c0"/>
<circle cx="1134" cy="408" r="8" class="c0"/>
<circle cx="1074" cy="338" r="8" class="c0"/>
<circle cx="682" cy="1038" r="8" class="c0"/>
<circle cx="996" cy="304" r="8" class="c0"/>
<circle cx="1242" cy="472" r="8" class="c0"/>
<circle cx="704" cy="1014" r="8" class="c0"/>
<circle cx="954" cy="1430" r="8" class="c0"/>
<circle cx="968" cy="372" r="8" class="c0"/>
<circle cx="764" cy="930" r="8" class="c0"/>
<circle cx="634" cy="1046" r="8" class="c0"/>
<circle cx="840" cy="1016" r="8" class="c0"/>
<circle cx="974" cy="1016" r="8" class="c0"/>
<circle cx="1150" cy="416" r="8" class="c0"/>
<circle cx="780" cy="1022" r="8" class="c0"/>
<circle cx="904" cy="574" r="8" class="c0"/>
<circle cx="928" cy="938" r="8" class="c0"/>
<circle cx="1280" cy="556" r="8" class="c0"/>
<circle cx="878" cy="1066" r="8" class="c0"/>
<circle cx="1104" cy="314" r="8" class="c0"/>
<circle cx="872" cy="586" r="8" class="c0"/>
<circle cx="940" cy="1298" r="8" class="c0"/>
<circle cx="1124" cy="1028" r="8" class="c0"/>
<circle cx="1022" cy="1044" r="8" class="c0"/>
<circle cx="1024" cy="446" r="8" class="c0"/>
<circle cx="1066" cy="832" r="8" class="c0"/>
<circle cx="950" cy="1082" r="8" class="c0"/>
<circle cx="1010" cy="770" r="8" class="c0"/>
<circle cx="1044" cy="842" r="8" class="c0"/>
<circle cx="828" cy="1066" r="8" class="c0"/>
<circle cx="1152" cy="988" r="8" class="c0"/>
<circle cx="604" cy="1084" r="8" class="c0"/>
<circle cx="714" cy="980" r="8" class="c0"/>
<circle cx="782" cy="918" r="8" class="c0"/>
<circle cx="886" cy="900" r="8" class="c0"/>
<circle cx="1062" cy="1088" r="8" class="c0"/>
<circle cx="1106" cy="1014" r="8" class="c0"/>
<circle cx="1006" cy="612" r="8" class="c0"/>
<circle cx="1080" cy="540" r="8" class="c0"/>
<circle cx="988" cy="388" r="8" class="c0"/>
<circle cx="1020" cy="342" r="8" class="c0"/>
<circle cx="896" cy="504" r="8" class="c0"/>
<circle cx="784" cy="950" r="8" class="c0"/>
<circle cx="708" cy="1088" r="8" class="c0"/>
<circle cx="1182" cy="432" r="8" class="c0"/>
<circle cx="906" cy="358" r="8" class="c0"/>
<circle cx="1078" cy="280" r="8" class="c0"/>
<circle cx="1064" cy="410" r="8" class="c0"/>
<circle cx="1080" cy="728" r="8" class="c0"/>
<circle cx="844" cy="1106" r="8" class="c0"/>
<circle cx="1386" cy="1068" r="8" class="c0"/>
<circle cx="1146" cy="824" r="8" class="c0"/>
<circle cx="770" cy="876" r="8" class="c0"/>
<circle cx="998" cy="708" r="8" class="c0"/>
<circle cx="626" cy="1002" r="8" class="c0"/>
<circle cx="1018" cy="1150" r="8" class="c0"/>
<circle cx="1100" cy="954" r="8" class="c0"/>
<circle cx="982" cy="1424" r="8" class="c0"/>
<circle cx="946" cy="1244" r="8" class="c0"/>
<circle cx="958" cy="444" r="8" class="c0"/>
<circle cx="1210" cy="538" r="8" class="c0"/>
<circle cx="852" cy="1058" r="8" class="c0"/>
<circle cx="926" cy="1248" r="8" class="c0"/>
<circle cx="856" cy="918" r="8" class="c0"/>
<circle cx="1268" cy="538" r="8" class="c0"/>
<circle cx="1062" cy="562" r="8" class="c0"/>
<circle cx="1128" cy="1078" r="8" class="c0"/>
<circle cx="1090" cy="766" r="8" class="c0"/>
<circle cx="832" cy="518" r="8" class="c0"/>
<circle cx="908" cy="792" r="8" class="c0"/>
<circle cx="1036" cy="904" r="8" class="c0"/>
<circle cx="936" cy="298" r="8" class="c0"/>
<circle cx="966" cy="326" r="8" class="c0"/>
<circle cx="820" cy="938" r="8" class="c0"/>
<circle cx="934" cy="906" r="8" class="c0"/>
<circle cx="1284" cy="600" r="8" class="c0"/>
<circle cx="586" cy="950" r="8" class="c0"/>
<circle cx="938" cy="1400" r="8" class="c0"/>
<circle cx="804" cy="1056" r="8" class="c0"/>
<circle cx="878" cy="1092" r="8" class="c0"/>
<circle cx="1054" cy="916" r="8" class="c0"/>
<circle cx="762" cy="904" r="8" class="c0"/>
<circle cx="1178" cy="802" r="8" class="c0"/>
<circle cx="872" cy="796" r="8" class="c0"/>
<circle cx="1086" cy="506" r="8" class="c0"/>
<circle cx="938" cy="280" r="8" class="c0"/>
<circle cx="946" cy="1120" r="8" class="c0"/>
<circle cx="1234" cy="444" r="8" class="c0"/>
<circle cx="1062" cy="1336" r="8" class="c0"/>
<circle cx="702" cy="946" r="8" class="c0"/>
<circle cx="1084" cy="940" r="8" class="c0"/>
<circle cx="1030" cy="1396" r="8" class="c0"/>
<circle cx="932" cy="1198" r="8" class="c0"/>
<circle cx="670" cy="988" r="8" class="c0"/>
<circle cx="560" cy="1000" r="8" class="c0"/>
<circle cx="664" cy="1036" r="8" class="c0"/>
<circle cx="862" cy="314" r="8" class="c0"/>
<circle cx="1008" cy="1162" r="8" class="c0"/>
<circle cx="1110" cy="1048" r="8" class="c0"/>
<circle cx="866" cy="562" r="8" class="c0"/>
<circle cx="1000" cy="1000" r="8" class="c0"/>
<circle cx="648" cy="1090" r="8" class="c0"/>
<circle cx="790" cy="1002" r="8" class="c0"/>
<circle cx="1186" cy="610" r="8" class="c0"/>
<circle cx="1034" cy="1218" r="8" class="c0"/>
<circle cx="1154" cy="618" r="8" class="c0"/>
<circle cx="638" cy="548" r="8" class="c0"/>
<circle cx="846" cy="966" r="8" class="c0"/>
<circle cx="872" cy="726" r="8" class="c0"/>
<circle cx="680" cy="570" r="8" class="c0"/>
<circle cx="1030" cy="1122" r="8" class="c0"/>
<circle cx="896" cy="1168" r="8" class="c0"/>
<circle cx="890" cy="318" r="8" class="c0"/>
<circle cx="1208" cy="798" r="8" class="c0"/>
<circle cx="1010" cy="750" r="8" class="c0"/>
<circle cx="888" cy="1138" r="8" class="c0"/>
<circle cx="1006" cy="1126" r="8" class="c0"/>
<circle cx="1034" cy="1366" r="8" class="c0"/>
<circle cx="858" cy="894" r="8" class="c0"/>
<circle cx="772" cy="1006" r="8" class="c0"/>
<circle cx="718" cy="896" r="8" class="c0"/>
<circle cx="710" cy="920" r="8" class="c0"/>
<circle cx="912" cy="774" r="8" class="c0"/>
<circle cx="990" cy="562" r="8" class="c0"/>
<circle cx="1022" cy="1314" r="8" class="c0"/>
<circle cx="634" cy="926" r="8" class="c0"/>
<circle cx="1230" cy="552" r="8" class="c0"/>
<circle cx="1054" cy="542" r="8" class="c0"/>
<circle cx="1096" cy="1082" r="8" class="c0"/>
<circle cx="592" cy="1062" r="8" class="c0"/>
<circle cx="1174" cy="548" r="8" class="c0"/>
<circle cx="986" cy="1208" r="8" class="c0"/>
<circle cx="960" cy="356" r="8" class="c0"/>
<circle cx="786" cy="1068" r="8" class="c0"/>
<circle cx="1006" cy="324" r="8" class="c0"/>
<circle cx="930" cy="1006" r="8" class="c0"/>
<circle cx="984" cy="688" r="8" class="c0"/>
<circle cx="914" cy="1076" r="8" class="c0"/>
<circle cx="1008" cy="352" r="8" class="c0"/>
<circle cx="972" cy="646" r="8" class="c0"/>
<circle cx="900" cy="720" r="8" class="c0"/>
<circle cx="836" cy="886" r="8" class="c0"/>
<circle cx="892" cy="784" r="8" class="c0"/>
<circle cx="1158" cy="440" r="8" class="c0"/>
<circle cx="1360" cy="1104" r="8" class="c0"/>
<circle cx="1062" cy="812" r="8" class="c0"/>
<circle cx="946" cy="872" r="8" class="c0"/>
<circle cx="1254" cy="578" r="8" class="c0"/>
<circle cx="812" cy="850" r="8" class="c0"/>
<circle cx="1236" cy="654" r="8" class="c0"/>
<circle cx="720" cy="538" r="8" class="c0"/>
<circle cx="946" cy="1150" r="8" class="c0"/>
<circle cx="1200" cy="1046" r="8" class="c0"/>
<circle cx="986" cy="512" r="8" class="c0"/>
<circle cx="964" cy="276" r="8" class="c0"/>
<circle cx="782" cy="532" r="8" class="c0"/>
<circle cx="1342" cy="1044" r="8" class="c0"/>
<circle cx="900" cy="680" r="8" class="c0"/>
<circle cx="628" cy="536" r="8" class="c0"/>
<circle cx="920" cy="728" r="8" class="c0"/>
<circle cx="642" cy="1068" r="8" class="c0"/>
<circle cx="990" cy="752" r="8" class="c0"/>
<circle cx="1022" cy="1018" r="8" class="c0"/>
<circle cx="1076" cy="1018" r="8" class="c0"/>
<circle cx="1038" cy="1150" r="8" class="c0"/>
<circle cx="1274" cy="586" r="8" class="c0"/>
<circle cx="756" cy="1028" r="8" class="c0"/>
<circle cx="968" cy="502" r="8" class="c0"/>
<circle cx="710" cy="528" r="8" class="c0"/>
<circle cx="670" cy="524" r="8" class="c0"/>
<circle cx="820" cy="1090" r="8" class="c0"/>
<circle cx="1148" cy="842" r="8" class="c0"/>
<circle cx="878" cy="524" r="8" class="c0"/>
<circle cx="958" cy="1296" r="8" class="c0"/>
<circle cx="926" cy="956" r="8" class="c0"/>
<circle cx="1268" cy="1050" r="8" class="c0"/>
<circle cx="1170" cy="840" r="8" class="c0"/>
<circle cx="1004" cy="1422" r="8" class="c0"/>
<circle cx="1212" cy="436" r="8" class="c0"/>
<circle cx="952" cy="340" r="8" class="c0"/>
<circle cx="1024" cy="880" r="8" class="c0"/>
<circle cx="1202" cy="986" r="8" class="c0"/>
<circle cx="1034" cy="660" r="8" class="c0"/>
<circle cx="1050" cy="386" r="8" class="c0"/>
<circle cx="1006" cy="1280" r="8" class="c0"/>
<circle cx="670" cy="946" r="8" class="c0"/>
<circle cx="1008" cy="656" r="8" class="c0"/>
<circle cx="692" cy="1002" r="8" class="c0"/>
<circle cx="970" cy="968" r="8" class="c0"/>
<circle cx="1022" cy="1268" r="8" class="c0"/>
<circle cx="1114" cy="730" r="8" class="c0"/>
<circle cx="1136" cy="996" r="8" class="c0"/>
<circle cx="916" cy="300" r="8" class="c0"/>
<circle cx="926" cy="268" r="8" class="c0"/>
<circle cx="1022" cy="416" r="8" class="c0"/>
<circle cx="650" cy="1026" r="8" class="c0"/>
<circle cx="942" cy="596" r="8" class="c0"/>
<circle cx="1036" cy="732" r="8" class="c0"/>
<circle cx="986" cy="804" r="8" class="c0"/>
<circle cx="1022" cy="1376" r="8" class="c0"/>
<circle cx="1074" cy="1076" r="8" class="c0"/>
<circle cx="736" cy="948" r="8" class="c0"/>
<circle cx="1088" cy="436" r="8" class="c0"/>
<circle cx="1016" cy="904" r="8" class="c0"/>
<circle cx="926" cy="532" r="8" class="c0"/>
<circle cx="1036" cy="600" r="8" class="c0"/>
<circle cx="1272" cy="616" r="8" class="c0"/>
<circle cx="792" cy="580" r="8" class="c0"/>
<circle cx="940" cy="442" r="8" class="c0"/>
<circle cx="1204" cy="818" r="8" class="c0"/>
<circle cx="1032" cy="360" r="8" class="c0"/>
<circle cx="922" cy="1208" r="8" class="c0"/>
<circle cx="1012" cy="934" r="8" class="c0"/>
<circle cx="1014" cy="1358" r="8" class="c0"/>
<circle cx="656" cy="928" r="8" class="c0"/>
<circle cx="926" cy="1150" r="8" class="c0"/>
<circle cx="1008" cy="428" r="8" class="c0"/>
<circle cx="984" cy="316" r="8" class="c0"/>
<circle cx="944" cy="670" r="8" class="c0"/>
<circle cx="928" cy="782" r="8" class="c0"/>
<circle cx="984" cy="534" r="8" class="c0"/>
<circle cx="660" cy="542" r="8" class="c0"/>
<circle cx="1128" cy="480" r="8" class="c0"/>
<circle cx="1054" cy="1356" r="8" class="c0"/>
<circle cx="938" cy="766" r="8" class="c0"/>
<circle cx="1030" cy="790" r="8" class="c0"/>
<circle cx="730" cy="528" r="8" class="c0"/>
<circle cx="1284" cy="1040" r="8" class="c0"/>
<circle cx="622" cy="562" r="8" class="c0"/>
<circle cx="840" cy="1086" r="8" class="c0"/>
<circle cx="962" cy="1052" r="8" class="c0"/>
<circle cx="1122" cy="286" r="8" class="c0"/>
<circle cx="1074" cy="754" r="8" class="c0"/>
<circle cx="1344" cy="1090" r="8" class="c0"/>
<circle cx="1020" cy="644" r="8" class="c0"/>
<circle cx="1256" cy="1094" r="8" class="c0"/>
<circle cx="1134" cy="548" r="8" class="c0"/>
<circle cx="1290" cy="578" r="8" class="c0"/>
<circle cx="1306" cy="1036" r="8" class="c0"/>
<circle cx="906" cy="230" r="8" class="c0"/>
<circle cx="692" cy="1028" r="8" class="c0"/>
<circle cx="732" cy="906" r="8" class="c0"/>
<circle cx="1050" cy="800" r="8" class="c0"/>
<circle cx="1000" cy="1088" r="8" class="c0"/>
<circle cx="1328" cy="1112" r="8" class="c0"/>
<circle cx="906" cy="1154" r="8" class="c0"/>
<circle cx="1300" cy="1104" r="8" class="c0"/>
<circle cx="1062" cy="898" r="8" class="c0"/>
<circle cx="646" cy="1006" r="8" class="c0"/>
<circle cx="1056" cy="270" r="8" class="c0"/>
<circle cx="1056" cy="456" r="8" class="c0"/>
<circle cx="1160" cy="858" r="8" class="c0"/>
<circle cx="1036" cy="1052" r="6" class="c0"/>
<circle cx="604" cy="1022" r="6" class="c0"/>
<circle cx="740" cy="1000" r="6" class="c0"/>
<circle cx="1060" cy="866" r="6" class="c0"/>
<circle cx="632" cy="1100" r="6" class="c0"/>
<circle cx="1252" cy="460" r="6" class="c0"/>
<circle cx="1000" cy="268" r="6" class="c0"/>
<circle cx="710" cy="1070" r="6" class="c0"/>
<circle cx="1022" cy="542" r="6" class="c0"/>
<circle cx="994" cy="1072" r="6" class="c0"/>
<circle cx="882" cy="572" r="6" class="c0"/>
<circle cx="1292" cy="536" r="6" class="c0"/>
<circle cx="738" cy="1096" r="6" class="c0"/>
<circle cx="800" cy="864" r="6" class="c0"/>
<circle cx="676" cy="1062" r="6" class="c0"/>
<circle cx="958" cy="306" r="6" class="c0"/>
<circle cx="600" cy="558" r="6" class="c0"/>
<circle cx="1168" cy="574" r="6" class="c0"/>
<circle cx="942" cy="962" r="6" class="c0"/>
<circle cx="854" cy="948" r="6" class="c0"/>
<circle cx="1126" cy="454" r="6" class="c0"/>
<circle cx="1124" cy="764" r="6" class="c0"/>
<circle cx="1040" cy="976" r="6" class="c0"/>
<circle cx="1094" cy="278" r="6" class="c0"/>
<circle cx="1120" cy="418" r="6" class="c0"/>
<circle cx="1054" cy="286" r="6" class="c0"/>
<circle cx="926" cy="866" r="6" class="c0"/>
<circle cx="1026" cy="846" r="6" class="c0"/>
<circle cx="878" cy="260" r="6" class="c0"/>
<circle cx="958" cy="548" r="6" class="c0"/>
<circle cx="1064" cy="932" r="6" class="c0"/>
<circle cx="990" cy="1408" r="6" class="c0"/>
<circle cx="718" cy="944" r="6" class="c0"/>
<circle cx="716" cy="566" r="6" class="c0"/>
<circle cx="1168" cy="978" r="6" class="c0"/>
<circle cx="872" cy="884" r="6" class="c0"/>
<circle cx="918" cy="442" r="6" class="c0"/>
<circle cx="830" cy="958" r="6" class="c0"/>
<circle cx="1190" cy="1064" r="6" class="c0"/>
<circle cx="1130" cy="850" r="6" class="c0"/>
<circle cx="1108" cy="584" r="6" class="c0"/>
<circle cx="1048" cy="524" r="6" class="c0"/>
<circle cx="796" cy="1042" r="6" class="c0"/>
<circle cx="964" cy="856" r="6" class="c0"/>
<circle cx="804" cy="890" r="6" class="c0"/>
<circle cx="1012" cy="1184" r="6" class="c0"/>
<circle cx="704" cy="964" r="6" class="c0"/>
<circle cx="1102" cy="404" r="6" class="c0"/>
<circle cx="1136" cy="808" r="6" class="c0"/>
<circle cx="538" cy="970" r="6" class="c0"/>
<circle cx="1176" cy="514" r="6" class="c0"/>
<circle cx="862" cy="266" r="6" class="c0"/>
<circle cx="1100" cy="1032" r="6" class="c0"/>
<circle cx="564" cy="1028" r="6" class="c0"/>
<circle cx="956" cy="1164" r="6" class="c0"/>
<circle cx="642" cy="514" r="6" class="c0"/>
<circle cx="1116" cy="370" r="6" class="c0"/>
<circle cx="1090" cy="874" r="6" class="c0"/>
<circle cx="916" cy="564" r="6" class="c0"/>
<circle cx="1036" cy="856" r="6" class="c0"/>
<circle cx="1190" cy="996" r="6" class="c0"/>
<circle cx="964" cy="1416" r="6" class="c0"/>
<circle cx="866" cy="780" r="6" class="c0"/>
<circle cx="1090" cy="410" r="6" class="c0"/>
<circle cx="1000" cy="1346" r="6" class="c0"/>
<circle cx="840" cy="552" r="6" class="c0"/>
<circle cx="796" cy="982" r="6" class="c0"/>
<circle cx="1192" cy="792" r="6" class="c0"/>
<circle cx="1216" cy="652" r="6" class="c0"/>
<circle cx="1276" cy="1106" r="6" class="c0"/>
<circle cx="990" cy="854" r="6" class="c0"/>
<circle cx="1132" cy="726" r="6" class="c0"/>
<circle cx="988" cy="238" r="6" class="c0"/>
<circle cx="1008" cy="1244" r="6" class="c0"/>
<circle cx="986" cy="1266" r="6" class="c0"/>
<circle cx="1178" cy="676" r="6" class="c0"/>
<circle cx="864" cy="860" r="6" class="c0"/>
<circle cx="706" cy="994" r="6" class="c0"/>
<circle cx="962" cy="738" r="6" class="c0"/>
<circle cx="1372" cy="1050" r="6" class="c0"/>
<circle cx="1218" cy="462" r="6" class="c0"/>
<circle cx="914" cy="1102" r="6" class="c0"/>
<circle cx="1024" cy="742" r="6" class="c0"/>
<circle cx="946" cy="1098" r="6" class="c0"/>
<circle cx="1140" cy="588" r="6" class="c0"/>
<circle cx="582" cy="1072" r="6" class="c0"/>
<circle cx="1254" cy="498" r="6" class="c0"/>
<circle cx="1066" cy="1288" r="6" class="c0"/>
<circle cx="550" cy="934" r="6" class="c0"/>
<circle cx="1274" cy="1092" r="6" class="c0"/>
<circle cx="698" cy="572" r="6" class="c0"/>
<circle cx="824" cy="1018" r="6" class="c0"/>
<circle cx="920" cy="246" r="6" class="c0"/>
<circle cx="662" cy="1052" r="6" class="c0"/>
<circle cx="952" cy="1410" r="6" class="c0"/>
<circle cx="1004" cy="582" r="6" class="c0"/>
<circle cx="1114" cy="436" r="6" class="c0"/>
<circle cx="1010" cy="400" r="6" class="c0"/>
<circle cx="752" cy="914" r="6" class="c0"/>
<circle cx="924" cy="838" r="6" class="c0"/>
<circle cx="908" cy="1114" r="6" class="c0"/>
<circle cx="988" cy="824" r="6" class="c0"/>
<circle cx="956" cy="292" r="6" class="c0"/>
<circle cx="852" cy="1120" r="6" class="c0"/>
<circle cx="1194" cy="492" r="6" class="c0"/>
<circle cx="1330" cy="1034" r="6" class="c0"/>
<circle cx="978" cy="412" r="6" class="c0"/>
<circle cx="1052" cy="1326" r="6" class="c0"/>
<circle cx="928" cy="380" r="6" class="c0"/>
<circle cx="922" cy="972" r="6" class="c0"/>
<circle cx="1082" cy="420" r="6" class="c0"/>
<circle cx="944" cy="496" r="6" class="c0"/>
<circle cx="794" cy="878" r="6" class="c0"/>
<circle cx="928" cy="1046" r="6" class="c0"/>
<circle cx="812" cy="1074" r="6" class="c0"/>
<circle cx="942" cy="560" r="6" class="c0"/>
<circle cx="864" cy="996" r="6" class="c0"/>
<circle cx="1108" cy="448" r="6" class="c0"/>
<circle cx="610" cy="1010" r="6" class="c0"/>
<circle cx="874" cy="948" r="6" class="c0"/>
<circle cx="886" cy="1050" r="6" class="c0"/>
<circle cx="624" cy="936" r="6" class="c0"/>
<circle cx="1078" cy="1092" r="6" class="c0"/>
<circle cx="1180" cy="1056" r="6" class="c0"/>
<circle cx="1000" cy="476" r="6" class="c0"/>
<circle cx="1124" cy="1056" r="6" class="c0"/>
<circle cx="974" cy="906" r="6" class="c0"/>
<circle cx="1006" cy="1052" r="6" class="c0"/>
<circle cx="986" cy="1026" r="6" class="c0"/>
<circle cx="1038" cy="1028" r="6" class="c0"/>
<circle cx="1054" cy="1130" r="6" class="c0"/>
<circle cx="996" cy="674" r="6" class="c0"/>
<circle cx="906" cy="494" r="6" class="c0"/>
<circle cx="1224" cy="506" r="6" class="c0"/>
<circle cx="972" cy="1120" r="6" class="c0"/>
<circle cx="964" cy="238" r="6" class="c0"/>
<circle cx="1090" cy="838" r="6" class="c0"/>
<circle cx="960" cy="1208" r="6" class="c0"/>
<circle cx="922" cy="366" r="6" class="c0"/>
<circle cx="1102" cy="294" r="6" class="c0"/>
<circle cx="864" cy="876" r="6" class="c0"/>
<circle cx="1230" cy="574" r="6" class="c0"/>
<circle cx="938" cy="926" r="6" class="c0"/>
<circle cx="554" cy="958" r="6" class="c0"/>
<circle cx="898" cy="302" r="6" class="c0"/>
<circle cx="1046" cy="370" r="6" class="c0"/>
<circle cx="1026" cy="510" r="6" class="c0"/>
<circle cx="1100" cy="722" r="6" class="c0"/>
<circle cx="990" cy="1010" r="6" class="c0"/>
<circle cx="940" cy="948" r="6" class="c0"/>
<circle cx="828" cy="570" r="6" class="c0"/>
<circle cx="910" cy="670" r="6" class="c0"/>
<circle cx="1378" cy="1110" r="6" class="c0"/>
<circle cx="758" cy="1084" r="6" class="c0"/>
<circle cx="768" cy="962" r="6" class="c0"/>
<circle cx="1086" cy="312" r="6" class="c0"/>
<circle cx="754" cy="1046" r="6" class="c0"/>
<circle cx="902" cy="830" r="6" class="c0"/>
<circle cx="978" cy="716" r="6" class="c0"/>
<circle cx="1034" cy="1236" r="6" class="c0"/>
<circle cx="920" cy="398" r="6" class="c0"/>
<circle cx="1198" cy="662" r="6" class="c0"/>
<circle cx="574" cy="966" r="6" class="c0"/>
<circle cx="1066" cy="394" r="6" class="c0"/>
<circle cx="1060" cy="786" r="6" class="c0"/>
<circle cx="1172" cy="622" r="6" class="c0"/>
<circle cx="1188" cy="812" r="6" class="c0"/>
<circle cx="848" cy="1030" r="6" class="c0"/>
<circle cx="1054" cy="854" r="6" class="c0"/>
<circle cx="674" cy="920" r="6" class="c0"/>
<circle cx="1118" cy="556" r="6" class="c0"/>
<circle cx="878" cy="330" r="6" class="c0"/>
<circle cx="1266" cy="462" r="6" class="c0"/>
<circle cx="746" cy="1056" r="6" class="c0"/>
<circle cx="994" cy="1104" r="6" class="c0"/>
<circle cx="1360" cy="1042" r="6" class="c0"/>
<circle cx="1100" cy="466" r="6" class="c0"/>
<circle cx="1390" cy="1098" r="6" class="c0"/>
<circle cx="996" cy="782" r="6" class="c0"/>
<circle cx="868" cy="906" r="6" class="c0"/>
<circle cx="1092" cy="786" r="6" class="c0"/>
<circle cx="684" cy="1054" r="6" class="c0"/>
<circle cx="1212" cy="498" r="6" class="c0"/>
<circle cx="998" cy="1220" r="6" class="c0"/>
<circle cx="1046" cy="1340" r="6" class="c0"/>
<circle cx="1392" cy="1084" r="6" class="c0"/>
<circle cx="710" cy="578" r="6" class="c0"/>
<circle cx="888" cy="1080" r="6" class="c0"/>
<circle cx="760" cy="970" r="6" class="c0"/>
<circle cx="812" cy="916" r="6" class="c0"/>
<circle cx="1130" cy="742" r="6" class="c0"/>
<circle cx="914" cy="1018" r="6" class="c0"/>
<circle cx="942" cy="790" r="6" class="c0"/>
<circle cx="578" cy="1032" r="6" class="c0"/>
<circle cx="1100" cy="342" r="6" class="c0"/>
<circle cx="616" cy="1042" r="6" class="c0"/>
<circle cx="1182" cy="850" r="6" class="c0"/>
<circle cx="772" cy="546" r="6" class="c0"/>
<circle cx="1044" cy="614" r="6" class="c0"/>
<circle cx="908" cy="878" r="6" class="c0"/>
<circle cx="974" cy="1146" r="6" class="c0"/>
<circle cx="882" cy="918" r="6" class="c0"/>
<circle cx="1026" cy="1330" r="6" class="c0"/>
<circle cx="818" cy="900" r="6" class="c0"/>
<circle cx="1178" cy="986" r="6" class="c0"/>
<circle cx="936" cy="1260" r="6" class="c0"/>
<circle cx="986" cy="1324" r="6" class="c0"/>
<circle cx="1170" cy="474" r="6" class="c0"/>
<circle cx="834" cy="840" r="6" class="c0"/>
<circle cx="774" cy="1084" r="6" class="c0"/>
<circle cx="878" cy="496" r="6" class="c0"/>
<circle cx="1222" cy="1048" r="6" class="c0"/>
<circle cx="734" cy="574" r="6" class="c0"/>
<circle cx="966" cy="1246" r="6" class="c0"/>
<circle cx="950" cy="804" r="6" class="c0"/>
<circle cx="1134" cy="646" r="6" class="c0"/>
<circle cx="924" cy="916" r="6" class="c0"/>
<circle cx="956" cy="834" r="6" class="c0"/>
<circle cx="1028" cy="830" r="6" class="c0"/>
<circle cx="1010" cy="632" r="6" class="c0"/>
<circle cx="856" cy="1022" r="6" class="c0"/>
<circle cx="1174" cy="1022" r="6" class="c0"/>
<circle cx="892" cy="846" r="6" class="c0"/>
<circle cx="940" cy="460" r="6" class="c0"/>
<circle cx="908" cy="1036" r="6" class="c0"/>
<circle cx="1032" cy="296" r="6" class="c0"/>
<circle cx="770" cy="1036" r="6" class="c0"/>
<circle cx="974" cy="1272" r="6" class="c0"/>
<circle cx="1094" cy="304" r="6" class="c0"/>
<circle cx="836" cy="806" r="6" class="c0"/>
<circle cx="1114" cy="1086" r="6" class="c0"/>
<circle cx="1048" cy="424" r="6" class="c0"/>
<circle cx="1020" cy="760" r="6" class="c0"/>
<circle cx="1322" cy="1062" r="6" class="c0"/>
<circle cx="1080" cy="778" r="6" class="c0"/>
<circle cx="936" cy="1314" r="6" class="c0"/>
<circle cx="936" cy="1132" r="6" class="c0"/>
<circle cx="948" cy="468" r="6" class="c0"/>
<circle cx="950" cy="1312" r="6" class="c0"/>
<circle cx="1130" cy="628" r="6" class="c0"/>
<circle cx="1040" cy="440" r="6" class="c0"/>
<circle cx="698" cy="1100" r="6" class="c0"/>
<circle cx="970" cy="724" r="6" class="c0"/>
<circle cx="1246" cy="644" r="6" class="c0"/>
<circle cx="924" cy="1288" r="6" class="c0"/>
<circle cx="906" cy="312" r="6" class="c0"/>
<circle cx="1020" cy="1134" r="6" class="c0"/>
<circle cx="1134" cy="1012" r="6" class="c0"/>
<circle cx="1064" cy="1104" r="6" class="c0"/>
<circle cx="1108" cy="276" r="6" class="c0"/>
<circle cx="896" cy="634" r="6" class="c0"/>
<circle cx="1224" cy="806" r="6" class="c0"/>
<circle cx="656" cy="996" r="6" class="c0"/>
<circle cx="1020" cy="1430" r="6" class="c0"/>
<circle cx="1072" cy="452" r="6" class="c0"/>
<circle cx="968" cy="454" r="6" class="c0"/>
<circle cx="948" cy="938" r="6" class="c0"/>
<circle cx="1136" cy="1062" r="6" class="c0"/>
<circle cx="586" cy="1024" r="6" class="c0"/>
<circle cx="936" cy="240" r="6" class="c0"/>
<circle cx="886" cy="1154" r="6" class="c0"/>
<circle cx="1014" cy="734" r="6" class="c0"/>
<circle cx="996" cy="602" r="6" class="c0"/>
<circle cx="960" cy="1072" r="6" class="c0"/>
<circle cx="964" cy="710" r="6" class="c0"/>
<circle cx="1028" cy="806" r="6" class="c0"/>
<circle cx="576" cy="930" r="6" class="c0"/>
<circle cx="1184" cy="592" r="6" class="c0"/>
<circle cx="926" cy="668" r="6" class="c0"/>
<circle cx="890" cy="930" r="6" class="c0"/>
<circle cx="978" cy="1360" r="6" class="c0"/>
<circle cx="1166" cy="414" r="6" class="c0"/>
<circle cx="960" cy="622" r="6" class="c0"/>
<circle cx="1008" cy="554" r="6" class="c0"/>
<circle cx="510" cy="514" r="6" class="c0"/>
<circle cx="898" cy="1328" r="6" class="c0"/>
<circle cx="876" cy="552" r="6" class="c0"/>
<circle cx="1156" cy="1038" r="6" class="c0"/>
<circle cx="980" cy="894" r="6" class="c0"/>
<circle cx="1060" cy="1220" r="6" class="c0"/>
<circle cx="1020" cy="780" r="6" class="c0"/>
<circle cx="906" cy="1204" r="6" class="c0"/>
<circle cx="1034" cy="684" r="6" class="c0"/>
<circle cx="1058" cy="1376" r="6" class="c0"/>
<circle cx="992" cy="430" r="6" class="c0"/>
<circle cx="692" cy="912" r="6" class="c0"/>
<circle cx="834" cy="584" r="6" class="c0"/>
<circle cx="792" cy="542" r="6" class="c0"/>
<circle cx="740" cy="538" r="6" class="c0"/>
<circle cx="936" cy="722" r="6" class="c0"/>
<circle cx="720" cy="1098" r="6" class="c0"/>
<circle cx="844" cy="902" r="6" class="c0"/>
<circle cx="816" cy="1010" r="6" class="c0"/>
<circle cx="974" cy="1294" r="6" class="c0"/>
<circle cx="978" cy="492" r="6" class="c0"/>
<circle cx="1146" cy="972" r="6" class="c0"/>
<circle cx="678" cy="1098" r="6" class="c0"/>
<circle cx="702" cy="904" r="6" class="c0"/>
<circle cx="798" cy="942" r="6" class="c0"/>
<circle cx="956" cy="1108" r="6" class="c0"/>
<circle cx="792" cy="964" r="6" class="c0"/>
<circle cx="1176" cy="1070" r="6" class="c0"/>
<circle cx="922" cy="764" r="6" class="c0"/>
<circle cx="1092" cy="1024" r="6" class="c0"/>
<circle cx="962" cy="416" r="6" class="c0"/>
<circle cx="1052" cy="254" r="6" class="c0"/>
<circle cx="1184" cy="504" r="6" class="c0"/>
<circle cx="616" cy="926" r="6" class="c0"/>
<circle cx="1330" cy="1080" r="6" class="c0"/>
<circle cx="922" cy="1274" r="6" class="c0"/>
<circle cx="1124" cy="788" r="6" class="c0"/>
<circle cx="926" cy="434" r="6" class="c0"/>
<circle cx="1024" cy="1062" r="6" class="c0"/>
<circle cx="1040" cy="1134" r="6" class="c0"/>
<circle cx="1038" cy="636" r="6" class="c0"/>
<circle cx="948" cy="616" r="6" class="c0"/>
<circle cx="968" cy="630" r="6" class="c0"/>
<circle cx="910" cy="1222" r="6" class="c0"/>
<circle cx="1198" cy="424" r="6" class="c0"/>
<circle cx="1016" cy="1252" r="6" class="c0"/>
<circle cx="912" cy="948" r="6" class="c0"/>
<circle cx="872" cy="274" r="6" class="c0"/>
<circle cx="1310" cy="1114" r="6" class="c0"/>
<circle cx="572" cy="990" r="6" class="c0"/>
<circle cx="1038" cy="1324" r="6" class="c0"/>
<circle cx="944" cy="738" r="6" class="c0"/>
<circle cx="1062" cy="1318" r="6" class="c0"/>
<circle cx="942" cy="1168" r="6" class="c0"/>
<circle cx="772" cy="580" r="6" class="c0"/>
<circle cx="898" cy="1128" r="6" class="c0"/>
<circle cx="630" cy="520" r="6" class="c0"/>
<circle cx="1138" cy="620" r="6" class="c0"/>
<circle cx="1102" cy="512" r="6" class="c0"/>
<circle cx="1066" cy="1304" r="6" class="c0"/>
<circle cx="898" cy="988" r="6" class="c0"/>
<circle cx="1220" cy="842" r="6" class="c0"/>
<circle cx="650" cy="1044" r="6" class="c0"/>
<circle cx="1368" cy="1118" r="6" class="c0"/>
<circle cx="998" cy="626" r="6" class="c0"/>
<circle cx="1208" cy="640" r="6" class="c0"/>
<circle cx="728" cy="990" r="6" class="c0"/>
<circle cx="940" cy="1032" r="6" class="c0"/>
<circle cx="1112" cy="354" r="6" class="c0"/>
<circle cx="1108" cy="378" r="6" class="c0"/>
<circle cx="1056" cy="338" r="6" class="c0"/>
<circle cx="1270" cy="570" r="6" class="c0"/>
<circle cx="836" cy="416" r="6" class="c0"/>
<circle cx="1080" cy="558" r="6" class="c0"/>
<circle cx="1014" cy="486" r="6" class="c0"/>
<circle cx="752" cy="1010" r="6" class="c0"/>
<circle cx="928" cy="558" r="6" class="c0"/>
<circle cx="942" cy="1362" r="6" class="c0"/>
<circle cx="1104" cy="938" r="6" class="c0"/>
<circle cx="752" cy="530" r="6" class="c0"/>
<circle cx="1226" cy="536" r="6" class="c0"/>
<circle cx="890" cy="710" r="6" class="c0"/>
<circle cx="996" cy="816" r="6" class="c0"/>
<circle cx="656" cy="516" r="6" class="c0"/>
<circle cx="766" cy="534" r="6" class="c0"/>
<circle cx="1094" cy="1052" r="6" class="c0"/>
<circle cx="774" cy="940" r="6" class="c0"/>
<circle cx="978" cy="1402" r="6" class="c0"/>
<circle cx="1044" cy="990" r="6" class="c0"/>
<circle cx="948" cy="1228" r="6" class="c0"/>
<circle cx="870" cy="848" r="6" class="c0"/>
<circle cx="852" cy="808" r="6" class="c0"/>
<circle cx="1218" cy="520" r="6" class="c0"/>
<circle cx="1152" cy="804" r="6" class="c0"/>
<circle cx="1244" cy="508" r="6" class="c0"/>
<circle cx="1006" cy="1380" r="6" class="c0"/>
<circle cx="1052" cy="760" r="6" class="c0"/>
<circle cx="1232" cy="460" r="6" class="c0"/>
<circle cx="966" cy="1280" r="6" class="c0"/>
<circle cx="1046" cy="1092" r="6" class="c0"/>
<circle cx="840" cy="950" r="6" class="c0"/>
<circle cx="850" cy="1006" r="6" class="c0"/>
<circle cx="1054" cy="1146" r="6" class="c0"/>
<circle cx="690" cy="560" r="6" class="c0"/>
<circle cx="812" cy="1042" r="6" class="c0"/>
<circle cx="786" cy="934" r="6" class="c0"/>
<circle cx="518" cy="934" r="6" class="c0"/>
</svg>
