<?xml version="1.0" encoding="utf-8"?>
<svg xmlns="http://www.w3.org/2000/svg"
     xmlns:xlink="http://www.w3.org/1999/xlink" width="1920" height="1440" >

            <defs>
            <style type="text/css"><![CDATA[
circle {stroke: none;}
.c0 {fill: #FFFFFF;}
]]></style>
            </defs>
<rect x="0" y="0" width="1920" height="1440" fill="black"/>
<circle cx="1810" cy="844" r="12" class="c0"/>
<circle cx="1878" cy="748" r="12" class="c0"/>
<circle cx="1800" cy="226" r="12" class="c0"/>
<circle cx="1874" cy="558" r="12" class="c0"/>
<circle cx="1856" cy="862" r="12" class="c0"/>
<circle cx="1828" cy="728" r="12" class="c0"/>
<circle cx="1872" cy="442" r="12" class="c0"/>
<circle cx="1892" cy="984" r="12" class="c0"/>
<circle cx="1782" cy="934" r="12" class="c0"/>
<circle cx="1828" cy="932" r="12" class="c0"/>
<circle cx="1774" cy="726" r="12" class="c0"/>
<circle cx="1746" cy="678" r="12" class="c0"/>
<circle cx="1706" cy="866" r="12" class="c0"/>
<circle cx="1794" cy="870" r="12" class="c0"/>
<circle cx="1894" cy="930" r="12" class="c0"/>
<circle cx="1784" cy="656" r="12" class="c0"/>
<circle cx="1754" cy="606" r="12" class="c0"/>
<circle cx="1832" cy="658" r="12" class="c0"/>
<circle cx="1788" cy="516" r="12" class="c0"/>
<circle cx="1768" cy="994" r="12" class="c0"/>
<circle cx="1776" cy="630" r="12" class="c0"/>
<circle cx="1888" cy="1034" r="12" class="c0"/>
<circle cx="1762" cy="124" r="12" class="c0"/>
<circle cx="1810" cy="260" r="12" class="c0"/>
<circle cx="1786" cy="568" r="12" class="c0"/>
<circle cx="1860" cy="362" r="10" class="c0"/>
<circle cx="1848" cy="564" r="10" class="c0"/>
<circle cx="1704" cy="836" r="10" class="c0"/>
<circle cx="1824" cy="480" r="10" class="c0"/>
<circle cx="1818" cy="792" r="10" class="c0"/>
<circle cx="1758" cy="182" r="10" class="c0"/>
<circle cx="1792" cy="798" r="10" class="c0"/>
<circle cx="1802" cy="386" r="10" class="c0"/>
<circle cx="1864" cy="764" r="10" class="c0"/>
<circle cx="1906" cy="702" r="10" class="c0"/>
<circle cx="1842" cy="312" r="10" class="c0"/>
<circle cx="1812" cy="946" r="10" class="c0"/>
<circle cx="1898" cy="476" r="10" class="c0"/>
<circle cx="1816" cy="588" r="10" class="c0"/>
<circle cx="1796" cy="490" r="10" class="c0"/>
<circle cx="1850" cy="408" r="10" class="c0"/>
<circle cx="1850" cy="490" r="10" class="c0"/>
<circle cx="1866" cy="792" r="10" class="c0"/>
<circle cx="1816" cy="672" r="10" class="c0"/>
<circle cx="1888" cy="1092" r="10" class="c0"/>
<circle cx="1772" cy="466" r="10" class="c0"/>
<circle cx="1818" cy="988" r="10" class="c0"/>
<circle cx="1794" cy="460" r="10" class="c0"/>
<circle cx="1870" cy="680" r="10" class="c0"/>
<circle cx="1800" cy="718" r="10" class="c0"/>
<circle cx="1898" cy="1060" r="10" class="c0"/>
<circle cx="1876" cy="394" r="10" class="c0"/>
<circle cx="1714" cy="924" r="10" class="c0"/>
<circle cx="1778" cy="766" r="10" class="c0"/>
<circle cx="1844" cy="884" r="10" class="c0"/>
<circle cx="1878" cy="854" r="10" class="c0"/>
<circle cx="1896" cy="600" r="10" class="c0"/>
<circle cx="1826" cy="822" r="10" class="c0"/>
<circle cx="1838" cy="450" r="10" class="c0"/>
<circle cx="1806" cy="296" r="10" class="c0"/>
<circle cx="1824" cy="332" r="10" class="c0"/>
<circle cx="1846" cy="916" r="10" class="c0"/>
<circle cx="1854" cy="596" r="10" class="c0"/>
<circle cx="1846" cy="978" r="10" class="c0"/>
<circle cx="1892" cy="882" r="10" class="c0"/>
<circle cx="1784" cy="604" r="10" class="c0"/>
<circle cx="1870" cy="1006" r="10" class="c0"/>
<circle cx="1848" cy="838" r="10" class="c0"/>
<circle cx="1832" cy="392" r="10" class="c0"/>
<circle cx="1716" cy="970" r="10" class="c0"/>
<circle cx="1782" cy="434" r="10" class="c0"/>
<circle cx="1826" cy="864" r="10" class="c0"/>
<circle cx="1886" cy="512" r="10" class="c0"/>
<circle cx="1810" cy="648" r="10" class="c0"/>
<circle cx="1768" cy="906" r="10" class="c0"/>
<circle cx="1746" cy="714" r="10" class="c0"/>
<circle cx="1752" cy="644" r="10" class="c0"/>
<circle cx="1754" cy="776" r="10" class="c0"/>
<circle cx="1734" cy="658" r="10" class="c0"/>
<circle cx="1864" cy="470" r="10" class="c0"/>
<circle cx="1902" cy="810" r="10" class="c0"/>
<circle cx="1824" cy="1018" r="10" class="c0"/>
<circle cx="1888" cy="536" r="10" class="c0"/>
<circle cx="1792" cy="698" r="10" class="c0"/>
<circle cx="1882" cy="630" r="10" class="c0"/>
<circle cx="1698" cy="958" r="10" class="c0"/>
<circle cx="1802" cy="618" r="10" class="c0"/>
<circle cx="1766" cy="960" r="10" class="c0"/>
<circle cx="1768" cy="698" r="10" class="c0"/>
<circle cx="1830" cy="282" r="10" class="c0"/>
<circle cx="1884" cy="904" r="10" class="c0"/>
<circle cx="1730" cy="946" r="10" class="c0"/>
<circle cx="1862" cy="508" r="10" class="c0"/>
<circle cx="1800" cy="908" r="10" class="c0"/>
<circle cx="1908" cy="1002" r="10" class="c0"/>
<circle cx="1788" cy="360" r="10" class="c0"/>
<circle cx="1882" cy="692" r="10" class="c0"/>
<circle cx="1850" cy="336" r="10" class="c0"/>
<circle cx="1814" cy="534" r="10" class="c0"/>
<circle cx="1854" cy="648" r="10" class="c0"/>
<circle cx="1834" cy="758" r="10" class="c0"/>
<circle cx="1820" cy="510" r="8" class="c0"/>
<circle cx="1856" cy="696" r="8" class="c0"/>
<circle cx="1826" cy="702" r="8" class="c0"/>
<circle cx="1810" cy="770" r="8" class="c0"/>
<circle cx="1790" cy="168" r="8" class="c0"/>
<circle cx="1864" cy="816" r="8" class="c0"/>
<circle cx="1752" cy="800" r="8" class="c0"/>
<circle cx="1824" cy="568" r="8" class="c0"/>
<circle cx="1840" cy="686" r="8" class="c0"/>
<circle cx="1788" cy="314" r="8" class="c0"/>
<circle cx="1836" cy="1044" r="8" class="c0"/>
<circle cx="1770" cy="554" r="8" class="c0"/>
<circle cx="1758" cy="854" r="8" class="c0"/>
<circle cx="1904" cy="1130" r="8" class="c0"/>
<circle cx="1768" cy="158" r="8" class="c0"/>
<circle cx="1766" cy="348" r="8" class="c0"/>
<circle cx="1696" cy="900" r="8" class="c0"/>
<circle cx="1782" cy="382" r="8" class="c0"/>
<circle cx="1792" cy="402" r="8" class="c0"/>
<circle cx="1770" cy="232" r="8" class="c0"/>
<circle cx="1746" cy="74" r="8" class="c0"/>
<circle cx="1898" cy="652" r="8" class="c0"/>
<circle cx="1778" cy="202" r="8" class="c0"/>
<circle cx="1766" cy="668" r="8" class="c0"/>
<circle cx="1882" cy="420" r="8" class="c0"/>
<circle cx="1854" cy="528" r="8" class="c0"/>
<circle cx="1778" cy="286" r="8" class="c0"/>
<circle cx="1806" cy="414" r="8" class="c0"/>
<circle cx="1854" cy="1028" r="8" class="c0"/>
<circle cx="1910" cy="524" r="8" class="c0"/>
<circle cx="1754" cy="272" r="8" class="c0"/>
<circle cx="1760" cy="526" r="8" class="c0"/>
<circle cx="1832" cy="604" r="8" class="c0"/>
<circle cx="1880" cy="586" r="8" class="c0"/>
<circle cx="1744" cy="970" r="8" class="c0"/>
<circle cx="1838" cy="582" r="8" class="c0"/>
<circle cx="1866" cy="982" r="8" class="c0"/>
<circle cx="1784" cy="1010" r="8" class="c0"/>
<circle cx="1828" cy="424" r="8" class="c0"/>
<circle cx="1756" cy="834" r="8" class="c0"/>
<circle cx="1872" cy="614" r="8" class="c0"/>
<circle cx="1826" cy="892" r="8" class="c0"/>
<circle cx="1870" cy="918" r="8" class="c0"/>
<circle cx="1802" cy="1036" r="8" class="c0"/>
<circle cx="1910" cy="560" r="8" class="c0"/>
<circle cx="1782" cy="824" r="8" class="c0"/>
<circle cx="1798" cy="742" r="8" class="c0"/>
<circle cx="1788" cy="186" r="8" class="c0"/>
<circle cx="1742" cy="622" r="8" class="c0"/>
<circle cx="1896" cy="572" r="8" class="c0"/>
<circle cx="1884" cy="772" r="8" class="c0"/>
<circle cx="1876" cy="962" r="8" class="c0"/>
<circle cx="1838" cy="366" r="8" class="c0"/>
<circle cx="1766" cy="748" r="8" class="c0"/>
<circle cx="1868" cy="886" r="8" class="c0"/>
<circle cx="1822" cy="310" r="8" class="c0"/>
<circle cx="1844" cy="622" r="8" class="c0"/>
<circle cx="1908" cy="744" r="8" class="c0"/>
<circle cx="1880" cy="712" r="8" class="c0"/>
<circle cx="1876" cy="1060" r="8" class="c0"/>
<circle cx="1906" cy="1100" r="8" class="c0"/>
<circle cx="1770" cy="814" r="8" class="c0"/>
<circle cx="1846" cy="788" r="8" class="c0"/>
<circle cx="1812" cy="692" r="8" class="c0"/>
<circle cx="1758" cy="930" r="8" class="c0"/>
<circle cx="1906" cy="628" r="8" class="c0"/>
<circle cx="1830" cy="966" r="8" class="c0"/>
<circle cx="1780" cy="684" r="8" class="c0"/>
<circle cx="1810" cy="556" r="8" class="c0"/>
<circle cx="1774" cy="264" r="8" class="c0"/>
<circle cx="1838" cy="1002" r="8" class="c0"/>
<circle cx="1910" cy="726" r="8" class="c0"/>
<circle cx="1888" cy="836" r="8" class="c0"/>
<circle cx="1798" cy="278" r="8" class="c0"/>
<circle cx="1882" cy="460" r="8" class="c0"/>
<circle cx="1840" cy="1064" r="8" class="c0"/>
<circle cx="1804" cy="1016" r="8" class="c0"/>
<circle cx="1768" cy="882" r="8" class="c0"/>
<circle cx="1910" cy="764" r="8" class="c0"/>
<circle cx="1896" cy="1014" r="8" class="c0"/>
<circle cx="1778" cy="976" r="8" class="c0"/>
<circle cx="1804" cy="336" r="8" class="c0"/>
<circle cx="1848" cy="1094" r="8" class="c0"/>
<circle cx="1740" cy="590" r="8" class="c0"/>
<circle cx="1906" cy="1152" r="8" class="c0"/>
<circle cx="1838" cy="538" r="8" class="c0"/>
<circle cx="1882" cy="804" r="8" class="c0"/>
<circle cx="1868" cy="1078" r="8" class="c0"/>
<circle cx="1856" cy="744" r="8" class="c0"/>
<circle cx="1716" cy="892" r="8" class="c0"/>
<circle cx="1800" cy="960" r="8" class="c0"/>
<circle cx="1902" cy="952" r="8" class="c0"/>
<circle cx="1812" cy="366" r="8" class="c0"/>
<circle cx="1858" cy="964" r="8" class="c0"/>
<circle cx="1898" cy="498" r="8" class="c0"/>
<circle cx="1890" cy="728" r="8" class="c0"/>
<circle cx="1686" cy="910" r="8" class="c0"/>
<circle cx="1844" cy="714" r="8" class="c0"/>
<circle cx="1894" cy="448" r="8" class="c0"/>
<circle cx="1910" cy="856" r="8" class="c0"/>
<circle cx="1868" cy="936" r="8" class="c0"/>
<circle cx="1906" cy="902" r="8" class="c0"/>
<circle cx="1760" cy="220" r="8" class="c0"/>
<circle cx="1764" cy="306" r="8" class="c0"/>
<circle cx="1802" cy="440" r="8" class="c0"/>
<circle cx="1892" cy="1118" r="8" class="c0"/>
<circle cx="1900" cy="548" r="8" class="c0"/>
<circle cx="1850" cy="944" r="8" class="c0"/>
<circle cx="1866" cy="1050" r="8" class="c0"/>
<circle cx="1768" cy="396" r="8" class="c0"/>
<circle cx="1800" cy="816" r="8" class="c0"/>
<circle cx="1908" cy="670" r="8" class="c0"/>
<circle cx="1778" cy="332" r="8" class="c0"/>
<circle cx="1786" cy="254" r="8" class="c0"/>
<circle cx="1808" cy="886" r="8" class="c0"/>
<circle cx="1778" cy="846" r="8" class="c0"/>
<circle cx="1908" cy="1078" r="8" class="c0"/>
<circle cx="1838" cy="514" r="8" class="c0"/>
<circle cx="1820" cy="1052" r="8" class="c0"/>
<circle cx="1766" cy="578" r="8" class="c0"/>
<circle cx="1784" cy="538" r="8" class="c0"/>
<circle cx="1680" cy="940" r="8" class="c0"/>
<circle cx="1910" cy="828" r="8" class="c0"/>
<circle cx="1746" cy="758" r="8" class="c0"/>
<circle cx="1784" cy="890" r="8" class="c0"/>
<circle cx="1742" cy="52" r="8" class="c0"/>
<circle cx="1896" cy="788" r="8" class="c0"/>
<circle cx="1768" cy="496" r="8" class="c0"/>
<circle cx="1746" cy="990" r="8" class="c0"/>
<circle cx="1692" cy="930" r="8" class="c0"/>
<circle cx="1854" cy="726" r="8" class="c0"/>
<circle cx="1754" cy="94" r="8" class="c0"/>
<circle cx="1866" cy="1102" r="8" class="c0"/>
<circle cx="1734" cy="922" r="8" class="c0"/>
<circle cx="1844" cy="810" r="8" class="c0"/>
<circle cx="1878" cy="652" r="8" class="c0"/>
<circle cx="1818" cy="748" r="8" class="c0"/>
<circle cx="1800" cy="202" r="8" class="c0"/>
<circle cx="1796" cy="984" r="8" class="c0"/>
<circle cx="1806" cy="318" r="8" class="c0"/>
<circle cx="1526" cy="702" r="8" class="c0"/>
<circle cx="1750" cy="152" r="8" class="c0"/>
<circle cx="1770" cy="372" r="8" class="c0"/>
<circle cx="1886" cy="670" r="8" class="c0"/>
<circle cx="1796" cy="676" r="8" class="c0"/>
<circle cx="1752" cy="204" r="8" class="c0"/>
<circle cx="1744" cy="560" r="8" class="c0"/>
<circle cx="1850" cy="1074" r="8" class="c0"/>
<circle cx="1724" cy="908" r="8" class="c0"/>
<circle cx="1770" cy="416" r="8" class="c0"/>
<circle cx="1850" cy="436" r="8" class="c0"/>
<circle cx="1880" cy="488" r="8" class="c0"/>
<circle cx="1774" cy="1020" r="8" class="c0"/>
<circle cx="1766" cy="790" r="8" class="c0"/>
<circle cx="1818" cy="448" r="8" class="c0"/>
<circle cx="1818" cy="630" r="8" class="c0"/>
<circle cx="1784" cy="478" r="8" class="c0"/>
<circle cx="1856" cy="896" r="8" class="c0"/>
<circle cx="1752" cy="254" r="8" class="c0"/>
<circle cx="1848" cy="670" r="8" class="c0"/>
<circle cx="1756" cy="894" r="8" class="c0"/>
<circle cx="1748" cy="734" r="8" class="c0"/>
<circle cx="1874" cy="1120" r="8" class="c0"/>
<circle cx="1860" cy="424" r="8" class="c0"/>
<circle cx="1824" cy="910" r="8" class="c0"/>
<circle cx="1822" cy="376" r="8" class="c0"/>
<circle cx="1818" cy="404" r="8" class="c0"/>
<circle cx="1796" cy="586" r="8" class="c0"/>
<circle cx="1756" cy="872" r="8" class="c0"/>
<circle cx="1680" cy="892" r="8" class="c0"/>
<circle cx="1818" cy="240" r="8" class="c0"/>
<circle cx="1862" cy="626" r="8" class="c0"/>
<circle cx="1856" cy="382" r="8" class="c0"/>
<circle cx="1908" cy="1026" r="8" class="c0"/>
<circle cx="1870" cy="834" r="8" class="c0"/>
<circle cx="1906" cy="582" r="8" class="c0"/>
<circle cx="1696" cy="882" r="6" class="c0"/>
<circle cx="1750" cy="952" r="6" class="c0"/>
<circle cx="1838" cy="470" r="6" class="c0"/>
<circle cx="1808" cy="472" r="6" class="c0"/>
<circle cx="1882" cy="946" r="6" class="c0"/>
<circle cx="1912" cy="780" r="6" class="c0"/>
<circle cx="1830" cy="552" r="6" class="c0"/>
<circle cx="1778" cy="140" r="6" class="c0"/>
<circle cx="1848" cy="772" r="6" class="c0"/>
<circle cx="1812" cy="430" r="6" class="c0"/>
<circle cx="1816" cy="350" r="6" class="c0"/>
<circle cx="1670" cy="950" r="6" class="c0"/>
<circle cx="1856" cy="548" r="6" class="c0"/>
<circle cx="1830" cy="846" r="6" class="c0"/>
<circle cx="1886" cy="1074" r="6" class="c0"/>
<circle cx="1754" cy="544" r="6" class="c0"/>
<circle cx="1784" cy="152" r="6" class="c0"/>
<circle cx="1894" cy="862" r="6" class="c0"/>
<circle cx="1912" cy="920" r="6" class="c0"/>
<circle cx="1872" cy="728" r="6" class="c0"/>
<circle cx="1912" cy="490" r="6" class="c0"/>
<circle cx="1774" cy="862" r="6" class="c0"/>
<circle cx="1804" cy="998" r="6" class="c0"/>
<circle cx="1910" cy="610" r="6" class="c0"/>
<circle cx="1912" cy="874" r="6" class="c0"/>
<circle cx="1864" cy="662" r="6" class="c0"/>
<circle cx="1838" cy="348" r="6" class="c0"/>
<circle cx="1864" cy="582" r="6" class="c0"/>
<circle cx="1898" cy="682" r="6" class="c0"/>
<circle cx="1828" cy="778" r="6" class="c0"/>
<circle cx="1816" cy="608" r="6" class="c0"/>
<circle cx="1788" cy="752" r="6" class="c0"/>
<circle cx="1850" cy="1052" r="6" class="c0"/>
<circle cx="1912" cy="644" r="6" class="c0"/>
<circle cx="1800" cy="544" r="6" class="c0"/>
<circle cx="1708" cy="942" r="6" class="c0"/>
<circle cx="1786" cy="1032" r="6" class="c0"/>
<circle cx="1910" cy="970" r="6" class="c0"/>
<circle cx="1816" cy="464" r="6" class="c0"/>
<circle cx="1894" cy="618" r="6" class="c0"/>
<circle cx="1868" cy="536" r="6" class="c0"/>
<circle cx="1686" cy="860" r="6" class="c0"/>
<circle cx="1798" cy="780" r="6" class="c0"/>
<circle cx="1852" cy="1010" r="6" class="c0"/>
<circle cx="1758" cy="332" r="6" class="c0"/>
<circle cx="1804" cy="506" r="6" class="c0"/>
<circle cx="1864" cy="710" r="6" class="c0"/>
<circle cx="1884" cy="820" r="6" class="c0"/>
<circle cx="1722" cy="876" r="6" class="c0"/>
<circle cx="1896" cy="430" r="6" class="c0"/>
<circle cx="1812" cy="212" r="6" class="c0"/>
<circle cx="1732" cy="638" r="6" class="c0"/>
<circle cx="1912" cy="508" r="6" class="c0"/>
<circle cx="1702" cy="816" r="6" class="c0"/>
<circle cx="1798" cy="760" r="6" class="c0"/>
<circle cx="1806" cy="926" r="6" class="c0"/>
<circle cx="1808" cy="572" r="6" class="c0"/>
<circle cx="1894" cy="758" r="6" class="c0"/>
<circle cx="1728" cy="986" r="6" class="c0"/>
<circle cx="1912" cy="1116" r="6" class="c0"/>
<circle cx="1836" cy="638" r="6" class="c0"/>
<circle cx="1814" cy="494" r="6" class="c0"/>
<circle cx="1756" cy="506" r="6" class="c0"/>
<circle cx="1796" cy="424" r="6" class="c0"/>
<circle cx="1906" cy="1042" r="6" class="c0"/>
<circle cx="1872" cy="522" r="6" class="c0"/>
<circle cx="1776" cy="588" r="6" class="c0"/>
<circle cx="1856" cy="992" r="6" class="c0"/>
<circle cx="1794" cy="834" r="6" class="c0"/>
<circle cx="1762" cy="290" r="6" class="c0"/>
<circle cx="1870" cy="1026" r="6" class="c0"/>
<circle cx="1814" cy="970" r="6" class="c0"/>
<circle cx="1760" cy="480" r="6" class="c0"/>
<circle cx="1754" cy="1008" r="6" class="c0"/>
<circle cx="1856" cy="452" r="6" class="c0"/>
<circle cx="1890" cy="1138" r="6" class="c0"/>
<circle cx="1754" cy="816" r="6" class="c0"/>
<circle cx="1840" cy="954" r="6" class="c0"/>
<circle cx="1768" cy="448" r="6" class="c0"/>
<circle cx="1750" cy="576" r="6" class="c0"/>
<circle cx="1904" cy="458" r="6" class="c0"/>
<circle cx="1776" cy="176" r="6" class="c0"/>
<circle cx="1912" cy="796" r="6" class="c0"/>
<circle cx="1898" cy="846" r="6" class="c0"/>
<circle cx="1764" cy="104" r="6" class="c0"/>
<circle cx="1742" cy="122" r="6" class="c0"/>
<circle cx="1780" cy="220" r="6" class="c0"/>
<circle cx="1834" cy="800" r="6" class="c0"/>
<circle cx="1768" cy="248" r="6" class="c0"/>
<circle cx="1830" cy="500" r="6" class="c0"/>
<circle cx="1784" cy="958" r="6" class="c0"/>
<circle cx="1874" cy="376" r="6" class="c0"/>
<circle cx="1754" cy="468" r="6" class="c0"/>
<circle cx="1828" cy="620" r="6" class="c0"/>
<circle cx="1744" cy="172" r="6" class="c0"/>
<circle cx="1744" cy="498" r="6" class="c0"/>
<circle cx="1756" cy="980" r="6" class="c0"/>
<circle cx="1794" cy="638" r="6" class="c0"/>
<circle cx="1736" cy="696" r="6" class="c0"/>
<circle cx="1766" cy="322" r="6" class="c0"/>
<circle cx="1804" cy="600" r="6" class="c0"/>
<circle cx="1782" cy="784" r="6" class="c0"/>
<circle cx="1828" cy="524" r="6" class="c0"/>
<circle cx="1806" cy="1060" r="6" class="c0"/>
<circle cx="1832" cy="1086" r="6" class="c0"/>
<circle cx="1912" cy="942" r="6" class="c0"/>
<circle cx="1876" cy="872" r="6" class="c0"/>
<circle cx="1868" cy="410" r="6" class="c0"/>
<circle cx="1732" cy="18" r="6" class="c0"/>
</svg>
