<?xml version="1.0" encoding="utf-8"?>
<svg xmlns="http://www.w3.org/2000/svg"
     xmlns:xlink="http://www.w3.org/1999/xlink" width="1920" height="1440" >

            <defs>
            <style type="text/css"><![CDATA[
circle {stroke: none;}
.c0 {fill: #000000;}
]]></style>
            </defs>
<rect x="0" y="0" width="1920" height="1440" fill="white"/>
<circle cx="1174" cy="1238" r="14" class="c0"/>
<circle cx="1062" cy="1234" r="14" class="c0"/>
<circle cx="498" cy="146" r="12" class="c0"/>
<circle cx="1132" cy="906" r="12" class="c0"/>
<circle cx="1104" cy="1036" r="12" class="c0"/>
<circle cx="826" cy="1142" r="12" class="c0"/>
<circle cx="1148" cy="1094" r="12" class="c0"/>
<circle cx="948" cy="1134" r="12" class="c0"/>
<circle cx="1856" cy="850" r="12" class="c0"/>
<circle cx="1084" cy="1080" r="12" class="c0"/>
<circle cx="956" cy="254" r="12" class="c0"/>
<circle cx="886" cy="1166" r="12" class="c0"/>
<circle cx="740" cy="212" r="12" class="c0"/>
<circle cx="1232" cy="1300" r="12" class="c0"/>
<circle cx="1200" cy="1230" r="12" class="c0"/>
<circle cx="790" cy="1204" r="12" class="c0"/>
<circle cx="904" cy="1090" r="12" class="c0"/>
<circle cx="894" cy="1068" r="12" class="c0"/>
<circle cx="908" cy="1150" r="12" class="c0"/>
<circle cx="1040" cy="996" r="12" class="c0"/>
<circle cx="936" cy="928" r="12" class="c0"/>
<circle cx="986" cy="1198" r="12" class="c0"/>
<circle cx="958" cy="984" r="12" class="c0"/>
<circle cx="658" cy="180" r="12" class="c0"/>
<circle cx="468" cy="172" r="12" class="c0"/>
<circle cx="990" cy="1022" r="12" class="c0"/>
<circle cx="972" cy="1082" r="12" class="c0"/>
<circle cx="1246" cy="1280" r="12" class="c0"/>
<circle cx="902" cy="230" r="12" class="c0"/>
<circle cx="268" cy="142" r="12" class="c0"/>
<circle cx="848" cy="1030" r="12" class="c0"/>
<circle cx="1132" cy="1424" r="12" class="c0"/>
<circle cx="1006" cy="1112" r="12" class="c0"/>
<circle cx="1076" cy="1054" r="12" class="c0"/>
<circle cx="1110" cy="1102" r="12" class="c0"/>
<circle cx="884" cy="984" r="12" class="c0"/>
<circle cx="784" cy="1066" r="12" class="c0"/>
<circle cx="932" cy="1244" r="12" class="c0"/>
<circle cx="1214" cy="1364" r="12" class="c0"/>
<circle cx="1030" cy="1098" r="12" class="c0"/>
<circle cx="1024" cy="1048" r="12" class="c0"/>
<circle cx="1190" cy="1398" r="12" class="c0"/>
<circle cx="726" cy="766" r="12" class="c0"/>
<circle cx="776" cy="1096" r="12" class="c0"/>
<circle cx="364" cy="152" r="12" class="c0"/>
<circle cx="616" cy="198" r="12" class="c0"/>
<circle cx="1030" cy="1144" r="12" class="c0"/>
<circle cx="1036" cy="1026" r="12" class="c0"/>
<circle cx="1088" cy="1204" r="12" class="c0"/>
<circle cx="1132" cy="960" r="12" class="c0"/>
<circle cx="1030" cy="1302" r="12" class="c0"/>
<circle cx="930" cy="886" r="12" class="c0"/>
<circle cx="614" cy="166" r="12" class="c0"/>
<circle cx="1186" cy="1346" r="12" class="c0"/>
<circle cx="840" cy="1208" r="12" class="c0"/>
<circle cx="898" cy="1020" r="12" class="c0"/>
<circle cx="1906" cy="1082" r="12" class="c0"/>
<circle cx="1054" cy="1112" r="12" class="c0"/>
<circle cx="258" cy="82" r="12" class="c0"/>
<circle cx="1264" cy="1370" r="10" class="c0"/>
<circle cx="1100" cy="980" r="10" class="c0"/>
<circle cx="796" cy="202" r="10" class="c0"/>
<circle cx="912" cy="1002" r="10" class="c0"/>
<circle cx="808" cy="1074" r="10" class="c0"/>
<circle cx="800" cy="834" r="10" class="c0"/>
<circle cx="952" cy="1020" r="10" class="c0"/>
<circle cx="864" cy="1110" r="10" class="c0"/>
<circle cx="1894" cy="964" r="10" class="c0"/>
<circle cx="942" cy="1058" r="10" class="c0"/>
<circle cx="522" cy="158" r="10" class="c0"/>
<circle cx="826" cy="234" r="10" class="c0"/>
<circle cx="1122" cy="1302" r="10" class="c0"/>
<circle cx="788" cy="1150" r="10" class="c0"/>
<circle cx="400" cy="106" r="10" class="c0"/>
<circle cx="1302" cy="1348" r="10" class="c0"/>
<circle cx="1846" cy="944" r="10" class="c0"/>
<circle cx="460" cy="148" r="10" class="c0"/>
<circle cx="1326" cy="1418" r="10" class="c0"/>
<circle cx="1186" cy="1128" r="10" class="c0"/>
<circle cx="1004" cy="1258" r="10" class="c0"/>
<circle cx="1094" cy="1228" r="10" class="c0"/>
<circle cx="926" cy="976" r="10" class="c0"/>
<circle cx="1152" cy="1260" r="10" class="c0"/>
<circle cx="1114" cy="992" r="10" class="c0"/>
<circle cx="444" cy="162" r="10" class="c0"/>
<circle cx="196" cy="74" r="10" class="c0"/>
<circle cx="1096" cy="1152" r="10" class="c0"/>
<circle cx="1144" cy="1148" r="10" class="c0"/>
<circle cx="1034" cy="1200" r="10" class="c0"/>
<circle cx="298" cy="142" r="10" class="c0"/>
<circle cx="340" cy="100" r="10" class="c0"/>
<circle cx="856" cy="1066" r="10" class="c0"/>
<circle cx="1880" cy="906" r="10" class="c0"/>
<circle cx="866" cy="230" r="10" class="c0"/>
<circle cx="1884" cy="834" r="10" class="c0"/>
<circle cx="1872" cy="968" r="10" class="c0"/>
<circle cx="838" cy="856" r="10" class="c0"/>
<circle cx="1860" cy="826" r="10" class="c0"/>
<circle cx="1014" cy="1226" r="10" class="c0"/>
<circle cx="1102" cy="1290" r="10" class="c0"/>
<circle cx="1126" cy="1066" r="10" class="c0"/>
<circle cx="844" cy="1080" r="10" class="c0"/>
<circle cx="880" cy="868" r="10" class="c0"/>
<circle cx="476" cy="128" r="10" class="c0"/>
<circle cx="966" cy="948" r="10" class="c0"/>
<circle cx="410" cy="166" r="10" class="c0"/>
<circle cx="1098" cy="1366" r="10" class="c0"/>
<circle cx="1274" cy="1390" r="10" class="c0"/>
<circle cx="162" cy="80" r="10" class="c0"/>
<circle cx="386" cy="142" r="10" class="c0"/>
<circle cx="220" cy="108" r="10" class="c0"/>
<circle cx="1874" cy="772" r="10" class="c0"/>
<circle cx="832" cy="1244" r="10" class="c0"/>
<circle cx="1156" cy="1324" r="10" class="c0"/>
<circle cx="1248" cy="1240" r="10" class="c0"/>
<circle cx="1080" cy="1284" r="10" class="c0"/>
<circle cx="1152" cy="892" r="10" class="c0"/>
<circle cx="1128" cy="1120" r="10" class="c0"/>
<circle cx="1164" cy="1156" r="10" class="c0"/>
<circle cx="1126" cy="1202" r="10" class="c0"/>
<circle cx="584" cy="180" r="10" class="c0"/>
<circle cx="992" cy="1056" r="10" class="c0"/>
<circle cx="828" cy="976" r="10" class="c0"/>
<circle cx="1100" cy="934" r="10" class="c0"/>
<circle cx="682" cy="220" r="10" class="c0"/>
<circle cx="830" cy="1050" r="10" class="c0"/>
<circle cx="1856" cy="912" r="10" class="c0"/>
<circle cx="1060" cy="1188" r="10" class="c0"/>
<circle cx="886" cy="936" r="10" class="c0"/>
<circle cx="1128" cy="1380" r="10" class="c0"/>
<circle cx="1906" cy="814" r="10" class="c0"/>
<circle cx="948" cy="1108" r="10" class="c0"/>
<circle cx="860" cy="1192" r="10" class="c0"/>
<circle cx="1260" cy="1320" r="10" class="c0"/>
<circle cx="778" cy="810" r="10" class="c0"/>
<circle cx="1258" cy="1416" r="10" class="c0"/>
<circle cx="818" cy="1230" r="10" class="c0"/>
<circle cx="966" cy="1222" r="10" class="c0"/>
<circle cx="974" cy="1042" r="10" class="c0"/>
<circle cx="876" cy="314" r="10" class="c0"/>
<circle cx="1158" cy="1428" r="10" class="c0"/>
<circle cx="76" cy="62" r="10" class="c0"/>
<circle cx="1036" cy="1278" r="10" class="c0"/>
<circle cx="1136" cy="880" r="10" class="c0"/>
<circle cx="902" cy="1238" r="10" class="c0"/>
<circle cx="882" cy="898" r="10" class="c0"/>
<circle cx="716" cy="182" r="10" class="c0"/>
<circle cx="810" cy="1022" r="10" class="c0"/>
<circle cx="882" cy="1042" r="10" class="c0"/>
<circle cx="1188" cy="1308" r="10" class="c0"/>
<circle cx="812" cy="796" r="10" class="c0"/>
<circle cx="766" cy="1044" r="10" class="c0"/>
<circle cx="1878" cy="994" r="10" class="c0"/>
<circle cx="232" cy="124" r="10" class="c0"/>
<circle cx="1076" cy="1012" r="10" class="c0"/>
<circle cx="1232" cy="1254" r="10" class="c0"/>
<circle cx="1084" cy="1116" r="10" class="c0"/>
<circle cx="1048" cy="1058" r="10" class="c0"/>
<circle cx="810" cy="1174" r="10" class="c0"/>
<circle cx="858" cy="880" r="10" class="c0"/>
<circle cx="1088" cy="1254" r="10" class="c0"/>
<circle cx="446" cy="132" r="10" class="c0"/>
<circle cx="990" cy="1272" r="10" class="c0"/>
<circle cx="1202" cy="1178" r="10" class="c0"/>
<circle cx="1082" cy="1350" r="10" class="c0"/>
<circle cx="1250" cy="1384" r="10" class="c0"/>
<circle cx="572" cy="148" r="10" class="c0"/>
<circle cx="800" cy="1124" r="10" class="c0"/>
<circle cx="1908" cy="868" r="10" class="c0"/>
<circle cx="590" cy="158" r="10" class="c0"/>
<circle cx="1070" cy="1130" r="10" class="c0"/>
<circle cx="340" cy="144" r="10" class="c0"/>
<circle cx="1166" cy="1186" r="10" class="c0"/>
<circle cx="1014" cy="972" r="10" class="c0"/>
<circle cx="552" cy="176" r="10" class="c0"/>
<circle cx="1116" cy="1180" r="10" class="c0"/>
<circle cx="778" cy="220" r="10" class="c0"/>
<circle cx="1906" cy="944" r="10" class="c0"/>
<circle cx="1224" cy="1394" r="10" class="c0"/>
<circle cx="354" cy="118" r="10" class="c0"/>
<circle cx="1146" cy="1174" r="10" class="c0"/>
<circle cx="900" cy="910" r="10" class="c0"/>
<circle cx="758" cy="230" r="10" class="c0"/>
<circle cx="746" cy="814" r="10" class="c0"/>
<circle cx="454" cy="190" r="10" class="c0"/>
<circle cx="732" cy="796" r="10" class="c0"/>
<circle cx="980" cy="1144" r="10" class="c0"/>
<circle cx="1242" cy="1216" r="10" class="c0"/>
<circle cx="1884" cy="882" r="10" class="c0"/>
<circle cx="908" cy="1182" r="10" class="c0"/>
<circle cx="960" cy="1194" r="10" class="c0"/>
<circle cx="894" cy="846" r="10" class="c0"/>
<circle cx="90" cy="78" r="10" class="c0"/>
<circle cx="848" cy="1156" r="10" class="c0"/>
<circle cx="1068" cy="1302" r="10" class="c0"/>
<circle cx="798" cy="1038" r="10" class="c0"/>
<circle cx="1144" cy="1398" r="10" class="c0"/>
<circle cx="1136" cy="1342" r="8" class="c0"/>
<circle cx="1888" cy="788" r="8" class="c0"/>
<circle cx="40" cy="62" r="8" class="c0"/>
<circle cx="854" cy="810" r="8" class="c0"/>
<circle cx="876" cy="1216" r="8" class="c0"/>
<circle cx="160" cy="106" r="8" class="c0"/>
<circle cx="1086" cy="1378" r="8" class="c0"/>
<circle cx="858" cy="1220" r="8" class="c0"/>
<circle cx="828" cy="1164" r="8" class="c0"/>
<circle cx="776" cy="758" r="8" class="c0"/>
<circle cx="1124" cy="1028" r="8" class="c0"/>
<circle cx="848" cy="290" r="8" class="c0"/>
<circle cx="512" cy="174" r="8" class="c0"/>
<circle cx="932" cy="1182" r="8" class="c0"/>
<circle cx="644" cy="164" r="8" class="c0"/>
<circle cx="1124" cy="1324" r="8" class="c0"/>
<circle cx="416" cy="146" r="8" class="c0"/>
<circle cx="790" cy="236" r="8" class="c0"/>
<circle cx="1140" cy="1366" r="8" class="c0"/>
<circle cx="1190" cy="1254" r="8" class="c0"/>
<circle cx="1162" cy="1294" r="8" class="c0"/>
<circle cx="882" cy="1188" r="8" class="c0"/>
<circle cx="1174" cy="1098" r="8" class="c0"/>
<circle cx="774" cy="1138" r="8" class="c0"/>
<circle cx="1902" cy="924" r="8" class="c0"/>
<circle cx="1048" cy="1082" r="8" class="c0"/>
<circle cx="756" cy="794" r="8" class="c0"/>
<circle cx="1060" cy="1166" r="8" class="c0"/>
<circle cx="1116" cy="1234" r="8" class="c0"/>
<circle cx="1032" cy="1180" r="8" class="c0"/>
<circle cx="1094" cy="1174" r="8" class="c0"/>
<circle cx="1862" cy="874" r="8" class="c0"/>
<circle cx="1176" cy="1276" r="8" class="c0"/>
<circle cx="1308" cy="1410" r="8" class="c0"/>
<circle cx="1062" cy="1034" r="8" class="c0"/>
<circle cx="522" cy="188" r="8" class="c0"/>
<circle cx="750" cy="756" r="8" class="c0"/>
<circle cx="894" cy="1206" r="8" class="c0"/>
<circle cx="1900" cy="1028" r="8" class="c0"/>
<circle cx="918" cy="1046" r="8" class="c0"/>
<circle cx="1238" cy="1352" r="8" class="c0"/>
<circle cx="772" cy="252" r="8" class="c0"/>
<circle cx="826" cy="888" r="8" class="c0"/>
<circle cx="388" cy="166" r="8" class="c0"/>
<circle cx="280" cy="126" r="8" class="c0"/>
<circle cx="1906" cy="890" r="8" class="c0"/>
<circle cx="836" cy="830" r="8" class="c0"/>
<circle cx="926" cy="1028" r="8" class="c0"/>
<circle cx="1146" cy="938" r="8" class="c0"/>
<circle cx="1896" cy="1004" r="8" class="c0"/>
<circle cx="1076" cy="1156" r="8" class="c0"/>
<circle cx="702" cy="210" r="8" class="c0"/>
<circle cx="1294" cy="1400" r="8" class="c0"/>
<circle cx="1048" cy="1258" r="8" class="c0"/>
<circle cx="776" cy="780" r="8" class="c0"/>
<circle cx="682" cy="178" r="8" class="c0"/>
<circle cx="1222" cy="1232" r="8" class="c0"/>
<circle cx="290" cy="108" r="8" class="c0"/>
<circle cx="788" cy="1006" r="8" class="c0"/>
<circle cx="530" cy="136" r="8" class="c0"/>
<circle cx="718" cy="744" r="8" class="c0"/>
<circle cx="848" cy="996" r="8" class="c0"/>
<circle cx="1206" cy="1270" r="8" class="c0"/>
<circle cx="1210" cy="1204" r="8" class="c0"/>
<circle cx="718" cy="218" r="8" class="c0"/>
<circle cx="902" cy="1122" r="8" class="c0"/>
<circle cx="842" cy="1108" r="8" class="c0"/>
<circle cx="1204" cy="1426" r="8" class="c0"/>
<circle cx="558" cy="216" r="8" class="c0"/>
<circle cx="1102" cy="908" r="8" class="c0"/>
<circle cx="1166" cy="1212" r="8" class="c0"/>
<circle cx="990" cy="1100" r="8" class="c0"/>
<circle cx="1278" cy="1328" r="8" class="c0"/>
<circle cx="318" cy="132" r="8" class="c0"/>
<circle cx="284" cy="156" r="8" class="c0"/>
<circle cx="876" cy="1016" r="8" class="c0"/>
<circle cx="764" cy="208" r="8" class="c0"/>
<circle cx="1128" cy="1158" r="8" class="c0"/>
<circle cx="944" cy="948" r="8" class="c0"/>
<circle cx="1000" cy="1298" r="8" class="c0"/>
<circle cx="1104" cy="1328" r="8" class="c0"/>
<circle cx="1102" cy="1004" r="8" class="c0"/>
<circle cx="1222" cy="1182" r="8" class="c0"/>
<circle cx="1236" cy="1418" r="8" class="c0"/>
<circle cx="990" cy="1234" r="8" class="c0"/>
<circle cx="1148" cy="1218" r="8" class="c0"/>
<circle cx="1890" cy="860" r="8" class="c0"/>
<circle cx="866" cy="1004" r="8" class="c0"/>
<circle cx="1186" cy="1286" r="8" class="c0"/>
<circle cx="1012" cy="1180" r="8" class="c0"/>
<circle cx="916" cy="944" r="8" class="c0"/>
<circle cx="32" cy="46" r="8" class="c0"/>
<circle cx="1052" cy="1314" r="8" class="c0"/>
<circle cx="1296" cy="1372" r="8" class="c0"/>
<circle cx="904" cy="964" r="8" class="c0"/>
<circle cx="1258" cy="1262" r="8" class="c0"/>
<circle cx="784" cy="1180" r="8" class="c0"/>
<circle cx="924" cy="228" r="8" class="c0"/>
<circle cx="1104" cy="954" r="8" class="c0"/>
<circle cx="968" cy="926" r="8" class="c0"/>
<circle cx="1900" cy="766" r="8" class="c0"/>
<circle cx="860" cy="1248" r="8" class="c0"/>
<circle cx="920" cy="1168" r="8" class="c0"/>
<circle cx="1010" cy="1136" r="8" class="c0"/>
<circle cx="776" cy="1018" r="8" class="c0"/>
<circle cx="240" cy="98" r="8" class="c0"/>
<circle cx="1904" cy="984" r="8" class="c0"/>
<circle cx="486" cy="186" r="8" class="c0"/>
<circle cx="754" cy="196" r="8" class="c0"/>
<circle cx="1268" cy="1288" r="8" class="c0"/>
<circle cx="796" cy="760" r="8" class="c0"/>
<circle cx="840" cy="1182" r="8" class="c0"/>
<circle cx="796" cy="260" r="8" class="c0"/>
<circle cx="304" cy="118" r="8" class="c0"/>
<circle cx="930" cy="250" r="8" class="c0"/>
<circle cx="372" cy="128" r="8" class="c0"/>
<circle cx="916" cy="1110" r="8" class="c0"/>
<circle cx="1152" cy="1068" r="8" class="c0"/>
<circle cx="180" cy="64" r="8" class="c0"/>
<circle cx="780" cy="268" r="8" class="c0"/>
<circle cx="1284" cy="1302" r="8" class="c0"/>
<circle cx="866" cy="910" r="8" class="c0"/>
<circle cx="868" cy="1134" r="8" class="c0"/>
<circle cx="202" cy="122" r="8" class="c0"/>
<circle cx="966" cy="1008" r="8" class="c0"/>
<circle cx="1152" cy="1128" r="8" class="c0"/>
<circle cx="816" cy="820" r="8" class="c0"/>
<circle cx="1226" cy="1336" r="8" class="c0"/>
<circle cx="1212" cy="1290" r="8" class="c0"/>
<circle cx="864" cy="856" r="8" class="c0"/>
<circle cx="984" cy="976" r="8" class="c0"/>
<circle cx="914" cy="1212" r="8" class="c0"/>
<circle cx="880" cy="824" r="8" class="c0"/>
<circle cx="1126" cy="1252" r="8" class="c0"/>
<circle cx="818" cy="1112" r="8" class="c0"/>
<circle cx="692" cy="198" r="8" class="c0"/>
<circle cx="1012" cy="1088" r="8" class="c0"/>
<circle cx="1042" cy="970" r="8" class="c0"/>
<circle cx="976" cy="1294" r="8" class="c0"/>
<circle cx="964" cy="1118" r="8" class="c0"/>
<circle cx="1048" cy="1218" r="8" class="c0"/>
<circle cx="1184" cy="1428" r="8" class="c0"/>
<circle cx="1160" cy="1354" r="8" class="c0"/>
<circle cx="1876" cy="812" r="8" class="c0"/>
<circle cx="846" cy="1130" r="8" class="c0"/>
<circle cx="1042" cy="1168" r="8" class="c0"/>
<circle cx="924" cy="912" r="8" class="c0"/>
<circle cx="1872" cy="862" r="8" class="c0"/>
<circle cx="144" cy="60" r="8" class="c0"/>
<circle cx="816" cy="218" r="8" class="c0"/>
<circle cx="798" cy="854" r="8" class="c0"/>
<circle cx="1150" cy="1240" r="8" class="c0"/>
<circle cx="876" cy="1082" r="8" class="c0"/>
<circle cx="668" cy="232" r="8" class="c0"/>
<circle cx="1844" cy="878" r="8" class="c0"/>
<circle cx="304" cy="96" r="8" class="c0"/>
<circle cx="54" cy="52" r="8" class="c0"/>
<circle cx="1060" cy="1274" r="8" class="c0"/>
<circle cx="916" cy="872" r="8" class="c0"/>
<circle cx="354" cy="174" r="8" class="c0"/>
<circle cx="1854" cy="976" r="8" class="c0"/>
<circle cx="976" cy="1168" r="8" class="c0"/>
<circle cx="1868" cy="924" r="8" class="c0"/>
<circle cx="1238" cy="1372" r="8" class="c0"/>
<circle cx="1188" cy="1368" r="8" class="c0"/>
<circle cx="1162" cy="1374" r="8" class="c0"/>
<circle cx="942" cy="1080" r="8" class="c0"/>
<circle cx="880" cy="1100" r="8" class="c0"/>
<circle cx="1008" cy="1066" r="8" class="c0"/>
<circle cx="956" cy="1264" r="8" class="c0"/>
<circle cx="826" cy="808" r="8" class="c0"/>
<circle cx="928" cy="1200" r="8" class="c0"/>
<circle cx="1100" cy="1398" r="8" class="c0"/>
<circle cx="1122" cy="1274" r="8" class="c0"/>
<circle cx="1100" cy="1270" r="8" class="c0"/>
<circle cx="1014" cy="1030" r="8" class="c0"/>
<circle cx="844" cy="892" r="8" class="c0"/>
<circle cx="282" cy="86" r="8" class="c0"/>
<circle cx="814" cy="990" r="8" class="c0"/>
<circle cx="970" cy="1274" r="8" class="c0"/>
<circle cx="994" cy="958" r="8" class="c0"/>
<circle cx="866" cy="296" r="8" class="c0"/>
<circle cx="986" cy="248" r="8" class="c0"/>
<circle cx="988" cy="930" r="8" class="c0"/>
<circle cx="116" cy="84" r="8" class="c0"/>
<circle cx="936" cy="1006" r="8" class="c0"/>
<circle cx="428" cy="114" r="8" class="c0"/>
<circle cx="934" cy="1120" r="8" class="c0"/>
<circle cx="846" cy="218" r="8" class="c0"/>
<circle cx="920" cy="1068" r="8" class="c0"/>
<circle cx="774" cy="1118" r="8" class="c0"/>
<circle cx="1208" cy="1312" r="8" class="c0"/>
<circle cx="986" cy="996" r="8" class="c0"/>
<circle cx="1076" cy="988" r="8" class="c0"/>
<circle cx="1062" cy="1324" r="8" class="c0"/>
<circle cx="414" cy="190" r="8" class="c0"/>
<circle cx="1038" cy="1230" r="8" class="c0"/>
<circle cx="1114" cy="1410" r="8" class="c0"/>
<circle cx="1168" cy="1336" r="8" class="c0"/>
<circle cx="1028" cy="1248" r="8" class="c0"/>
<circle cx="1176" cy="1412" r="8" class="c0"/>
<circle cx="1134" cy="990" r="8" class="c0"/>
<circle cx="550" cy="146" r="8" class="c0"/>
<circle cx="1908" cy="712" r="8" class="c0"/>
<circle cx="134" cy="78" r="8" class="c0"/>
<circle cx="216" cy="88" r="8" class="c0"/>
<circle cx="1046" cy="1132" r="8" class="c0"/>
<circle cx="194" cy="106" r="8" class="c0"/>
<circle cx="1320" cy="1392" r="8" class="c0"/>
<circle cx="1144" cy="1286" r="8" class="c0"/>
<circle cx="672" cy="200" r="8" class="c0"/>
<circle cx="1882" cy="1024" r="8" class="c0"/>
<circle cx="1014" cy="1156" r="8" class="c0"/>
<circle cx="1098" cy="1064" r="8" class="c0"/>
<circle cx="640" cy="194" r="8" class="c0"/>
<circle cx="404" cy="128" r="8" class="c0"/>
<circle cx="652" cy="214" r="8" class="c0"/>
<circle cx="996" cy="1158" r="8" class="c0"/>
<circle cx="1902" cy="844" r="8" class="c0"/>
<circle cx="1160" cy="1110" r="8" class="c0"/>
<circle cx="946" cy="1210" r="8" class="c0"/>
<circle cx="378" cy="104" r="8" class="c0"/>
<circle cx="814" cy="868" r="8" class="c0"/>
<circle cx="1008" cy="1000" r="8" class="c0"/>
<circle cx="586" cy="244" r="8" class="c0"/>
<circle cx="940" cy="1154" r="8" class="c0"/>
<circle cx="252" cy="110" r="8" class="c0"/>
<circle cx="570" cy="192" r="8" class="c0"/>
<circle cx="848" cy="1232" r="8" class="c0"/>
<circle cx="1156" cy="858" r="8" class="c0"/>
<circle cx="704" cy="754" r="8" class="c0"/>
<circle cx="1066" cy="1094" r="8" class="c0"/>
<circle cx="1878" cy="936" r="8" class="c0"/>
<circle cx="108" cy="62" r="8" class="c0"/>
<circle cx="1180" cy="1200" r="8" class="c0"/>
<circle cx="1314" cy="1370" r="8" class="c0"/>
<circle cx="1100" cy="1128" r="8" class="c0"/>
<circle cx="880" cy="248" r="8" class="c0"/>
<circle cx="880" cy="1124" r="8" class="c0"/>
<circle cx="1282" cy="1356" r="8" class="c0"/>
<circle cx="1126" cy="1354" r="8" class="c0"/>
<circle cx="1128" cy="928" r="8" class="c0"/>
<circle cx="954" cy="916" r="8" class="c0"/>
<circle cx="1066" cy="1210" r="8" class="c0"/>
<circle cx="798" cy="1090" r="8" class="c0"/>
<circle cx="960" cy="1156" r="8" class="c0"/>
<circle cx="994" cy="1076" r="8" class="c0"/>
<circle cx="760" cy="726" r="8" class="c0"/>
<circle cx="1222" cy="1430" r="8" class="c0"/>
<circle cx="980" cy="1252" r="8" class="c0"/>
<circle cx="826" cy="1012" r="8" class="c0"/>
<circle cx="1086" cy="958" r="8" class="c0"/>
<circle cx="178" cy="94" r="8" class="c0"/>
<circle cx="1200" cy="1152" r="8" class="c0"/>
<circle cx="898" cy="878" r="8" class="c0"/>
<circle cx="614" cy="236" r="8" class="c0"/>
<circle cx="1010" cy="1278" r="8" class="c0"/>
<circle cx="486" cy="162" r="8" class="c0"/>
<circle cx="1006" cy="944" r="8" class="c0"/>
<circle cx="1272" cy="1428" r="8" class="c0"/>
<circle cx="830" cy="1092" r="8" class="c0"/>
<circle cx="1202" cy="1380" r="8" class="c0"/>
<circle cx="744" cy="782" r="8" class="c0"/>
<circle cx="1116" cy="1142" r="8" class="c0"/>
<circle cx="584" cy="208" r="8" class="c0"/>
<circle cx="952" cy="1236" r="8" class="c0"/>
<circle cx="1190" cy="1210" r="8" class="c0"/>
<circle cx="856" cy="978" r="8" class="c0"/>
<circle cx="770" cy="838" r="8" class="c0"/>
<circle cx="762" cy="280" r="8" class="c0"/>
<circle cx="1284" cy="1412" r="8" class="c0"/>
<circle cx="1062" cy="1070" r="8" class="c0"/>
<circle cx="818" cy="1202" r="8" class="c0"/>
<circle cx="836" cy="206" r="8" class="c0"/>
<circle cx="730" cy="194" r="8" class="c0"/>
<circle cx="1082" cy="1314" r="8" class="c0"/>
<circle cx="878" cy="1238" r="8" class="c0"/>
<circle cx="1910" cy="1018" r="8" class="c0"/>
<circle cx="1058" cy="1142" r="8" class="c0"/>
<circle cx="860" cy="828" r="8" class="c0"/>
<circle cx="1114" cy="1016" r="8" class="c0"/>
<circle cx="1858" cy="806" r="8" class="c0"/>
<circle cx="1144" cy="1194" r="8" class="c0"/>
<circle cx="1172" cy="1388" r="8" class="c0"/>
<circle cx="954" cy="1046" r="8" class="c0"/>
<circle cx="1096" cy="1420" r="8" class="c0"/>
<circle cx="328" cy="88" r="8" class="c0"/>
<circle cx="710" cy="238" r="8" class="c0"/>
<circle cx="1116" cy="888" r="8" class="c0"/>
<circle cx="1178" cy="1172" r="8" class="c0"/>
<circle cx="882" cy="276" r="8" class="c0"/>
<circle cx="320" cy="164" r="8" class="c0"/>
<circle cx="1894" cy="1046" r="8" class="c0"/>
<circle cx="1134" cy="1046" r="8" class="c0"/>
<circle cx="226" cy="74" r="8" class="c0"/>
<circle cx="800" cy="778" r="8" class="c0"/>
<circle cx="178" cy="118" r="8" class="c0"/>
<circle cx="908" cy="890" r="8" class="c0"/>
<circle cx="772" cy="192" r="8" class="c0"/>
<circle cx="1022" cy="1266" r="8" class="c0"/>
<circle cx="956" cy="1070" r="8" class="c0"/>
<circle cx="1154" cy="912" r="8" class="c0"/>
<circle cx="1124" cy="1400" r="8" class="c0"/>
<circle cx="912" cy="922" r="8" class="c0"/>
<circle cx="1106" cy="1430" r="8" class="c0"/>
<circle cx="808" cy="1152" r="8" class="c0"/>
<circle cx="738" cy="730" r="8" class="c0"/>
<circle cx="890" cy="1136" r="8" class="c0"/>
<circle cx="1906" cy="1118" r="8" class="c0"/>
<circle cx="628" cy="180" r="8" class="c0"/>
<circle cx="1022" cy="1124" r="8" class="c0"/>
<circle cx="1906" cy="1058" r="8" class="c0"/>
<circle cx="500" cy="202" r="8" class="c0"/>
<circle cx="324" cy="110" r="8" class="c0"/>
<circle cx="1008" cy="1202" r="8" class="c0"/>
<circle cx="1298" cy="1426" r="8" class="c0"/>
<circle cx="828" cy="1192" r="8" class="c0"/>
<circle cx="1230" cy="1198" r="8" class="c0"/>
<circle cx="758" cy="828" r="8" class="c0"/>
<circle cx="1116" cy="944" r="8" class="c0"/>
<circle cx="876" cy="962" r="8" class="c0"/>
<circle cx="1198" cy="1324" r="8" class="c0"/>
<circle cx="800" cy="1222" r="8" class="c0"/>
<circle cx="920" cy="1130" r="8" class="c0"/>
<circle cx="820" cy="764" r="8" class="c0"/>
<circle cx="928" cy="1098" r="8" class="c0"/>
<circle cx="1000" cy="984" r="8" class="c0"/>
<circle cx="1124" cy="1088" r="8" class="c0"/>
<circle cx="810" cy="1054" r="8" class="c0"/>
<circle cx="628" cy="226" r="8" class="c0"/>
<circle cx="1056" cy="1010" r="8" class="c0"/>
<circle cx="942" cy="236" r="8" class="c0"/>
<circle cx="1256" cy="1298" r="8" class="c0"/>
<circle cx="1166" cy="868" r="8" class="c0"/>
<circle cx="144" cy="90" r="8" class="c0"/>
<circle cx="872" cy="1152" r="8" class="c0"/>
<circle cx="870" cy="838" r="8" class="c0"/>
<circle cx="1136" cy="1230" r="8" class="c0"/>
<circle cx="692" cy="244" r="8" class="c0"/>
<circle cx="398" cy="154" r="8" class="c0"/>
<circle cx="808" cy="290" r="8" class="c0"/>
<circle cx="540" cy="198" r="8" class="c0"/>
<circle cx="1128" cy="862" r="8" class="c0"/>
<circle cx="1132" cy="1008" r="8" class="c0"/>
<circle cx="776" cy="996" r="8" class="c0"/>
<circle cx="836" cy="796" r="8" class="c0"/>
<circle cx="1268" cy="1344" r="6" class="c0"/>
<circle cx="1862" cy="954" r="6" class="c0"/>
<circle cx="1156" cy="928" r="6" class="c0"/>
<circle cx="1912" cy="832" r="6" class="c0"/>
<circle cx="1108" cy="1382" r="6" class="c0"/>
<circle cx="970" cy="968" r="6" class="c0"/>
<circle cx="1834" cy="850" r="6" class="c0"/>
<circle cx="1114" cy="1216" r="6" class="c0"/>
<circle cx="776" cy="1162" r="6" class="c0"/>
<circle cx="1110" cy="1348" r="6" class="c0"/>
<circle cx="1222" cy="1272" r="6" class="c0"/>
<circle cx="1138" cy="1316" r="6" class="c0"/>
<circle cx="1162" cy="1400" r="6" class="c0"/>
<circle cx="1052" cy="1288" r="6" class="c0"/>
<circle cx="716" cy="202" r="6" class="c0"/>
<circle cx="1826" cy="882" r="6" class="c0"/>
<circle cx="996" cy="1176" r="6" class="c0"/>
<circle cx="882" cy="222" r="6" class="c0"/>
<circle cx="538" cy="166" r="6" class="c0"/>
<circle cx="900" cy="948" r="6" class="c0"/>
<circle cx="928" cy="1224" r="6" class="c0"/>
<circle cx="566" cy="166" r="6" class="c0"/>
<circle cx="944" cy="902" r="6" class="c0"/>
<circle cx="1026" cy="1068" r="6" class="c0"/>
<circle cx="1206" cy="1250" r="6" class="c0"/>
<circle cx="1182" cy="1146" r="6" class="c0"/>
<circle cx="728" cy="246" r="6" class="c0"/>
<circle cx="1844" cy="924" r="6" class="c0"/>
<circle cx="1076" cy="1180" r="6" class="c0"/>
<circle cx="1108" cy="1196" r="6" class="c0"/>
<circle cx="942" cy="1192" r="6" class="c0"/>
<circle cx="1912" cy="750" r="6" class="c0"/>
<circle cx="10" cy="44" r="6" class="c0"/>
<circle cx="802" cy="1190" r="6" class="c0"/>
<circle cx="986" cy="1122" r="6" class="c0"/>
<circle cx="828" cy="1032" r="6" class="c0"/>
<circle cx="1208" cy="1406" r="6" class="c0"/>
<circle cx="1026" cy="960" r="6" class="c0"/>
<circle cx="250" cy="126" r="6" class="c0"/>
<circle cx="1336" cy="1432" r="6" class="c0"/>
<circle cx="1870" cy="1010" r="6" class="c0"/>
<circle cx="984" cy="946" r="6" class="c0"/>
<circle cx="1072" cy="1364" r="6" class="c0"/>
<circle cx="1908" cy="796" r="6" class="c0"/>
<circle cx="826" cy="844" r="6" class="c0"/>
<circle cx="740" cy="260" r="6" class="c0"/>
<circle cx="1082" cy="1400" r="6" class="c0"/>
<circle cx="768" cy="1078" r="6" class="c0"/>
<circle cx="818" cy="836" r="6" class="c0"/>
<circle cx="900" cy="1040" r="6" class="c0"/>
<circle cx="1016" cy="1314" r="6" class="c0"/>
<circle cx="890" cy="1226" r="6" class="c0"/>
<circle cx="644" cy="234" r="6" class="c0"/>
<circle cx="788" cy="796" r="6" class="c0"/>
<circle cx="1094" cy="1338" r="6" class="c0"/>
<circle cx="702" cy="172" r="6" class="c0"/>
<circle cx="906" cy="858" r="6" class="c0"/>
<circle cx="946" cy="1274" r="6" class="c0"/>
<circle cx="1148" cy="1304" r="6" class="c0"/>
<circle cx="866" cy="930" r="6" class="c0"/>
<circle cx="520" cy="204" r="6" class="c0"/>
<circle cx="850" cy="838" r="6" class="c0"/>
<circle cx="870" cy="1176" r="6" class="c0"/>
<circle cx="1168" cy="1138" r="6" class="c0"/>
<circle cx="740" cy="184" r="6" class="c0"/>
<circle cx="1904" cy="908" r="6" class="c0"/>
<circle cx="270" cy="112" r="6" class="c0"/>
<circle cx="1858" cy="994" r="6" class="c0"/>
<circle cx="1846" cy="896" r="6" class="c0"/>
<circle cx="1836" cy="910" r="6" class="c0"/>
<circle cx="912" cy="246" r="6" class="c0"/>
<circle cx="456" cy="116" r="6" class="c0"/>
<circle cx="916" cy="266" r="6" class="c0"/>
<circle cx="1238" cy="1324" r="6" class="c0"/>
<circle cx="864" cy="212" r="6" class="c0"/>
<circle cx="1304" cy="1390" r="6" class="c0"/>
<circle cx="950" cy="966" r="6" class="c0"/>
<circle cx="914" cy="1252" r="6" class="c0"/>
<circle cx="964" cy="1056" r="6" class="c0"/>
<circle cx="1116" cy="1052" r="6" class="c0"/>
<circle cx="886" cy="1006" r="6" class="c0"/>
<circle cx="852" cy="240" r="6" class="c0"/>
<circle cx="1252" cy="1342" r="6" class="c0"/>
<circle cx="494" cy="126" r="6" class="c0"/>
<circle cx="1270" cy="1272" r="6" class="c0"/>
<circle cx="1052" cy="982" r="6" class="c0"/>
<circle cx="1292" cy="1316" r="6" class="c0"/>
<circle cx="760" cy="766" r="6" class="c0"/>
<circle cx="1076" cy="1332" r="6" class="c0"/>
<circle cx="930" cy="1142" r="6" class="c0"/>
<circle cx="364" cy="94" r="6" class="c0"/>
<circle cx="1076" cy="1220" r="6" class="c0"/>
<circle cx="818" cy="852" r="6" class="c0"/>
<circle cx="1876" cy="750" r="6" class="c0"/>
<circle cx="1108" cy="1248" r="6" class="c0"/>
<circle cx="628" cy="250" r="6" class="c0"/>
<circle cx="1102" cy="1312" r="6" class="c0"/>
<circle cx="808" cy="232" r="6" class="c0"/>
<circle cx="780" cy="1034" r="6" class="c0"/>
<circle cx="1024" cy="1166" r="6" class="c0"/>
<circle cx="1116" cy="970" r="6" class="c0"/>
<circle cx="850" cy="908" r="6" class="c0"/>
<circle cx="1106" cy="1078" r="6" class="c0"/>
<circle cx="726" cy="686" r="6" class="c0"/>
<circle cx="978" cy="914" r="6" class="c0"/>
<circle cx="1144" cy="922" r="6" class="c0"/>
<circle cx="930" cy="958" r="6" class="c0"/>
<circle cx="1214" cy="1162" r="6" class="c0"/>
<circle cx="892" cy="1112" r="6" class="c0"/>
<circle cx="954" cy="1282" r="6" class="c0"/>
<circle cx="950" cy="1178" r="6" class="c0"/>
<circle cx="514" cy="132" r="6" class="c0"/>
<circle cx="908" cy="982" r="6" class="c0"/>
<circle cx="836" cy="876" r="6" class="c0"/>
<circle cx="1116" cy="916" r="6" class="c0"/>
<circle cx="1088" cy="1026" r="6" class="c0"/>
<circle cx="796" cy="816" r="6" class="c0"/>
<circle cx="1060" cy="994" r="6" class="c0"/>
<circle cx="432" cy="150" r="6" class="c0"/>
<circle cx="602" cy="182" r="6" class="c0"/>
<circle cx="914" cy="282" r="6" class="c0"/>
<circle cx="866" cy="1092" r="6" class="c0"/>
<circle cx="132" cy="102" r="6" class="c0"/>
<circle cx="900" cy="272" r="6" class="c0"/>
<circle cx="378" cy="194" r="6" class="c0"/>
<circle cx="1138" cy="1270" r="6" class="c0"/>
<circle cx="1866" cy="890" r="6" class="c0"/>
<circle cx="952" cy="1090" r="6" class="c0"/>
<circle cx="768" cy="740" r="6" class="c0"/>
<circle cx="396" cy="184" r="6" class="c0"/>
<circle cx="1166" cy="1310" r="6" class="c0"/>
<circle cx="764" cy="1006" r="6" class="c0"/>
<circle cx="980" cy="1110" r="6" class="c0"/>
<circle cx="1000" cy="1038" r="6" class="c0"/>
<circle cx="1206" cy="1344" r="6" class="c0"/>
<circle cx="1912" cy="970" r="6" class="c0"/>
<circle cx="798" cy="222" r="6" class="c0"/>
<circle cx="964" cy="1246" r="6" class="c0"/>
<circle cx="942" cy="1226" r="6" class="c0"/>
<circle cx="740" cy="236" r="6" class="c0"/>
<circle cx="1020" cy="1014" r="6" class="c0"/>
<circle cx="1176" cy="1322" r="6" class="c0"/>
<circle cx="790" cy="1110" r="6" class="c0"/>
<circle cx="606" cy="216" r="6" class="c0"/>
<circle cx="718" cy="254" r="6" class="c0"/>
<circle cx="1244" cy="1404" r="6" class="c0"/>
<circle cx="1042" cy="1326" r="6" class="c0"/>
<circle cx="1870" cy="794" r="6" class="c0"/>
<circle cx="1064" cy="1344" r="6" class="c0"/>
<circle cx="1904" cy="732" r="6" class="c0"/>
<circle cx="868" cy="1054" r="6" class="c0"/>
<circle cx="1892" cy="746" r="6" class="c0"/>
<circle cx="814" cy="1094" r="6" class="c0"/>
<circle cx="1028" cy="982" r="6" class="c0"/>
<circle cx="1020" cy="990" r="6" class="c0"/>
<circle cx="734" cy="746" r="6" class="c0"/>
<circle cx="1832" cy="864" r="6" class="c0"/>
<circle cx="636" cy="210" r="6" class="c0"/>
<circle cx="1220" cy="1216" r="6" class="c0"/>
<circle cx="1072" cy="1262" r="6" class="c0"/>
<circle cx="820" cy="202" r="6" class="c0"/>
<circle cx="862" cy="1168" r="6" class="c0"/>
<circle cx="532" cy="178" r="6" class="c0"/>
<circle cx="832" cy="994" r="6" class="c0"/>
<circle cx="958" cy="900" r="6" class="c0"/>
<circle cx="336" cy="122" r="6" class="c0"/>
<circle cx="434" cy="184" r="6" class="c0"/>
<circle cx="1188" cy="1162" r="6" class="c0"/>
<circle cx="928" cy="1264" r="6" class="c0"/>
<circle cx="1294" cy="1332" r="6" class="c0"/>
<circle cx="1842" cy="834" r="6" class="c0"/>
<circle cx="426" cy="132" r="6" class="c0"/>
<circle cx="782" cy="850" r="6" class="c0"/>
<circle cx="750" cy="252" r="6" class="c0"/>
<circle cx="1852" cy="784" r="6" class="c0"/>
<circle cx="712" cy="780" r="6" class="c0"/>
<circle cx="52" cy="72" r="6" class="c0"/>
<circle cx="160" cy="56" r="6" class="c0"/>
<circle cx="1890" cy="804" r="6" class="c0"/>
<circle cx="1910" cy="1102" r="6" class="c0"/>
<circle cx="1908" cy="780" r="6" class="c0"/>
<circle cx="994" cy="1216" r="6" class="c0"/>
<circle cx="970" cy="240" r="6" class="c0"/>
<circle cx="994" cy="1134" r="6" class="c0"/>
<circle cx="944" cy="1036" r="6" class="c0"/>
<circle cx="764" cy="1064" r="6" class="c0"/>
<circle cx="1124" cy="978" r="6" class="c0"/>
<circle cx="1826" cy="898" r="6" class="c0"/>
<circle cx="1882" cy="952" r="6" class="c0"/>
<circle cx="272" cy="98" r="6" class="c0"/>
<circle cx="844" cy="968" r="6" class="c0"/>
<circle cx="210" cy="64" r="6" class="c0"/>
<circle cx="864" cy="1040" r="6" class="c0"/>
<circle cx="1144" cy="974" r="6" class="c0"/>
<circle cx="502" cy="184" r="6" class="c0"/>
<circle cx="1076" cy="1388" r="6" class="c0"/>
<circle cx="938" cy="988" r="6" class="c0"/>
<circle cx="1246" cy="1430" r="6" class="c0"/>
<circle cx="1260" cy="1352" r="6" class="c0"/>
<circle cx="974" cy="900" r="6" class="c0"/>
<circle cx="1112" cy="1160" r="6" class="c0"/>
<circle cx="672" cy="166" r="6" class="c0"/>
<circle cx="970" cy="1102" r="6" class="c0"/>
<circle cx="1216" cy="1326" r="6" class="c0"/>
<circle cx="428" cy="172" r="6" class="c0"/>
<circle cx="1164" cy="1082" r="6" class="c0"/>
<circle cx="472" cy="212" r="6" class="c0"/>
<circle cx="300" cy="80" r="6" class="c0"/>
<circle cx="782" cy="828" r="6" class="c0"/>
<circle cx="1172" cy="1364" r="6" class="c0"/>
<circle cx="978" cy="960" r="6" class="c0"/>
<circle cx="428" cy="202" r="6" class="c0"/>
<circle cx="796" cy="986" r="6" class="c0"/>
<circle cx="1248" cy="1362" r="6" class="c0"/>
<circle cx="826" cy="1068" r="6" class="c0"/>
<circle cx="1050" cy="1340" r="6" class="c0"/>
<circle cx="242" cy="70" r="6" class="c0"/>
<circle cx="386" cy="120" r="6" class="c0"/>
<circle cx="372" cy="176" r="6" class="c0"/>
<circle cx="948" cy="320" r="6" class="c0"/>
<circle cx="830" cy="1122" r="6" class="c0"/>
<circle cx="524" cy="226" r="6" class="c0"/>
<circle cx="496" cy="172" r="6" class="c0"/>
<circle cx="594" cy="194" r="6" class="c0"/>
<circle cx="1912" cy="1042" r="6" class="c0"/>
<circle cx="224" cy="148" r="6" class="c0"/>
<circle cx="880" cy="918" r="6" class="c0"/>
<circle cx="1152" cy="954" r="6" class="c0"/>
<circle cx="1224" cy="1318" r="6" class="c0"/>
<circle cx="316" cy="148" r="6" class="c0"/>
<circle cx="100" cy="94" r="6" class="c0"/>
<circle cx="1170" cy="1120" r="6" class="c0"/>
<circle cx="244" cy="138" r="6" class="c0"/>
<circle cx="496" cy="222" r="6" class="c0"/>
<circle cx="1314" cy="1430" r="6" class="c0"/>
<circle cx="126" cy="64" r="6" class="c0"/>
<circle cx="1912" cy="1002" r="6" class="c0"/>
<circle cx="1218" cy="1414" r="6" class="c0"/>
<circle cx="1084" cy="1140" r="6" class="c0"/>
<circle cx="1884" cy="1056" r="6" class="c0"/>
<circle cx="932" cy="320" r="6" class="c0"/>
<circle cx="716" cy="710" r="6" class="c0"/>
<circle cx="1092" cy="1304" r="6" class="c0"/>
<circle cx="750" cy="710" r="6" class="c0"/>
<circle cx="342" cy="162" r="6" class="c0"/>
<circle cx="1116" cy="1368" r="6" class="c0"/>
<circle cx="908" cy="296" r="6" class="c0"/>
<circle cx="1172" cy="1260" r="6" class="c0"/>
<circle cx="802" cy="972" r="6" class="c0"/>
<circle cx="928" cy="852" r="6" class="c0"/>
<circle cx="1886" cy="726" r="6" class="c0"/>
<circle cx="1830" cy="930" r="6" class="c0"/>
<circle cx="630" cy="156" r="6" class="c0"/>
<circle cx="722" cy="270" r="6" class="c0"/>
<circle cx="872" cy="946" r="6" class="c0"/>
<circle cx="1138" cy="1078" r="6" class="c0"/>
<circle cx="942" cy="1170" r="6" class="c0"/>
<circle cx="66" cy="76" r="6" class="c0"/>
<circle cx="574" cy="224" r="6" class="c0"/>
<circle cx="1158" cy="1278" r="6" class="c0"/>
<circle cx="790" cy="744" r="6" class="c0"/>
<circle cx="852" cy="1096" r="6" class="c0"/>
<circle cx="848" cy="254" r="6" class="c0"/>
<circle cx="804" cy="1004" r="6" class="c0"/>
<circle cx="1912" cy="678" r="6" class="c0"/>
<circle cx="566" cy="238" r="6" class="c0"/>
<circle cx="762" cy="1026" r="6" class="c0"/>
<circle cx="262" cy="120" r="6" class="c0"/>
<circle cx="974" cy="1184" r="6" class="c0"/>
<circle cx="752" cy="692" r="6" class="c0"/>
<circle cx="1086" cy="998" r="6" class="c0"/>
<circle cx="970" cy="1024" r="6" class="c0"/>
<circle cx="510" cy="224" r="6" class="c0"/>
<circle cx="590" cy="226" r="6" class="c0"/>
<circle cx="840" cy="776" r="6" class="c0"/>
<circle cx="1190" cy="1190" r="6" class="c0"/>
<circle cx="786" cy="770" r="6" class="c0"/>
<circle cx="674" cy="250" r="6" class="c0"/>
<circle cx="826" cy="782" r="6" class="c0"/>
<circle cx="742" cy="278" r="6" class="c0"/>
<circle cx="902" cy="320" r="6" class="c0"/>
<circle cx="908" cy="1056" r="6" class="c0"/>
<circle cx="1118" cy="1340" r="6" class="c0"/>
<circle cx="1912" cy="1142" r="6" class="c0"/>
<circle cx="530" cy="212" r="6" class="c0"/>
<circle cx="846" cy="1256" r="6" class="c0"/>
<circle cx="214" cy="132" r="6" class="c0"/>
<circle cx="1048" cy="1152" r="6" class="c0"/>
<circle cx="768" cy="968" r="6" class="c0"/>
</svg>
