<?xml version="1.0" encoding="utf-8"?>
<svg xmlns="http://www.w3.org/2000/svg"
     xmlns:xlink="http://www.w3.org/1999/xlink" width="1920" height="1440" >

            <defs>
            <style type="text/css"><![CDATA[
circle {stroke: none;}
.c0 {fill: #000000;}
]]></style>
            </defs>
<rect x="0" y="0" width="1920" height="1440" fill="white"/>
<circle cx="1358" cy="1398" r="14" class="c0"/>
<circle cx="1086" cy="1316" r="12" class="c0"/>
<circle cx="212" cy="24" r="12" class="c0"/>
<circle cx="156" cy="18" r="12" class="c0"/>
<circle cx="1004" cy="1000" r="12" class="c0"/>
<circle cx="890" cy="1274" r="12" class="c0"/>
<circle cx="1216" cy="1264" r="12" class="c0"/>
<circle cx="1340" cy="1374" r="12" class="c0"/>
<circle cx="920" cy="1184" r="12" class="c0"/>
<circle cx="956" cy="1152" r="12" class="c0"/>
<circle cx="888" cy="944" r="12" class="c0"/>
<circle cx="28" cy="14" r="12" class="c0"/>
<circle cx="902" cy="1298" r="12" class="c0"/>
<circle cx="872" cy="920" r="12" class="c0"/>
<circle cx="868" cy="1284" r="12" class="c0"/>
<circle cx="652" cy="34" r="12" class="c0"/>
<circle cx="1308" cy="1338" r="12" class="c0"/>
<circle cx="1122" cy="1100" r="12" class="c0"/>
<circle cx="994" cy="1138" r="12" class="c0"/>
<circle cx="1036" cy="1056" r="12" class="c0"/>
<circle cx="896" cy="1216" r="12" class="c0"/>
<circle cx="1204" cy="1108" r="12" class="c0"/>
<circle cx="276" cy="46" r="12" class="c0"/>
<circle cx="1022" cy="1194" r="12" class="c0"/>
<circle cx="954" cy="1292" r="12" class="c0"/>
<circle cx="894" cy="1106" r="12" class="c0"/>
<circle cx="496" cy="54" r="12" class="c0"/>
<circle cx="942" cy="1096" r="12" class="c0"/>
<circle cx="932" cy="1324" r="12" class="c0"/>
<circle cx="1124" cy="1322" r="12" class="c0"/>
<circle cx="1096" cy="1076" r="12" class="c0"/>
<circle cx="1026" cy="1122" r="12" class="c0"/>
<circle cx="1208" cy="1198" r="12" class="c0"/>
<circle cx="482" cy="84" r="12" class="c0"/>
<circle cx="1154" cy="1230" r="12" class="c0"/>
<circle cx="1278" cy="1376" r="12" class="c0"/>
<circle cx="856" cy="1152" r="12" class="c0"/>
<circle cx="1228" cy="1406" r="12" class="c0"/>
<circle cx="874" cy="1128" r="12" class="c0"/>
<circle cx="998" cy="1042" r="12" class="c0"/>
<circle cx="1286" cy="1404" r="10" class="c0"/>
<circle cx="1102" cy="1214" r="10" class="c0"/>
<circle cx="474" cy="30" r="10" class="c0"/>
<circle cx="1104" cy="1114" r="10" class="c0"/>
<circle cx="1280" cy="1288" r="10" class="c0"/>
<circle cx="392" cy="18" r="10" class="c0"/>
<circle cx="1234" cy="1354" r="10" class="c0"/>
<circle cx="1070" cy="1248" r="10" class="c0"/>
<circle cx="1164" cy="1388" r="10" class="c0"/>
<circle cx="970" cy="1006" r="10" class="c0"/>
<circle cx="850" cy="1100" r="10" class="c0"/>
<circle cx="350" cy="52" r="10" class="c0"/>
<circle cx="1178" cy="1056" r="10" class="c0"/>
<circle cx="1184" cy="1262" r="10" class="c0"/>
<circle cx="874" cy="1184" r="10" class="c0"/>
<circle cx="1008" cy="1094" r="10" class="c0"/>
<circle cx="1020" cy="1166" r="10" class="c0"/>
<circle cx="1034" cy="1146" r="10" class="c0"/>
<circle cx="1208" cy="1046" r="10" class="c0"/>
<circle cx="1146" cy="1102" r="10" class="c0"/>
<circle cx="1908" cy="1024" r="10" class="c0"/>
<circle cx="1146" cy="1164" r="10" class="c0"/>
<circle cx="894" cy="1172" r="10" class="c0"/>
<circle cx="1120" cy="1198" r="10" class="c0"/>
<circle cx="416" cy="36" r="10" class="c0"/>
<circle cx="1100" cy="1158" r="10" class="c0"/>
<circle cx="752" cy="26" r="10" class="c0"/>
<circle cx="968" cy="1314" r="10" class="c0"/>
<circle cx="1032" cy="1312" r="10" class="c0"/>
<circle cx="1270" cy="1322" r="10" class="c0"/>
<circle cx="1304" cy="1384" r="10" class="c0"/>
<circle cx="1054" cy="1072" r="10" class="c0"/>
<circle cx="956" cy="1076" r="10" class="c0"/>
<circle cx="610" cy="36" r="10" class="c0"/>
<circle cx="458" cy="60" r="10" class="c0"/>
<circle cx="650" cy="70" r="10" class="c0"/>
<circle cx="970" cy="972" r="10" class="c0"/>
<circle cx="1174" cy="1146" r="10" class="c0"/>
<circle cx="970" cy="1176" r="10" class="c0"/>
<circle cx="1294" cy="1276" r="10" class="c0"/>
<circle cx="930" cy="932" r="10" class="c0"/>
<circle cx="1118" cy="1356" r="10" class="c0"/>
<circle cx="158" cy="54" r="10" class="c0"/>
<circle cx="244" cy="24" r="10" class="c0"/>
<circle cx="1210" cy="1428" r="10" class="c0"/>
<circle cx="942" cy="948" r="10" class="c0"/>
<circle cx="296" cy="12" r="10" class="c0"/>
<circle cx="1188" cy="1032" r="10" class="c0"/>
<circle cx="1040" cy="1258" r="10" class="c0"/>
<circle cx="1168" cy="1290" r="10" class="c0"/>
<circle cx="54" cy="26" r="10" class="c0"/>
<circle cx="574" cy="32" r="10" class="c0"/>
<circle cx="392" cy="50" r="10" class="c0"/>
<circle cx="1208" cy="1004" r="10" class="c0"/>
<circle cx="1026" cy="1272" r="10" class="c0"/>
<circle cx="1064" cy="1098" r="10" class="c0"/>
<circle cx="1074" cy="1042" r="10" class="c0"/>
<circle cx="794" cy="64" r="10" class="c0"/>
<circle cx="896" cy="916" r="10" class="c0"/>
<circle cx="968" cy="1208" r="10" class="c0"/>
<circle cx="974" cy="1260" r="10" class="c0"/>
<circle cx="1220" cy="992" r="10" class="c0"/>
<circle cx="930" cy="960" r="10" class="c0"/>
<circle cx="1190" cy="1070" r="10" class="c0"/>
<circle cx="780" cy="40" r="10" class="c0"/>
<circle cx="850" cy="1218" r="10" class="c0"/>
<circle cx="1168" cy="1320" r="10" class="c0"/>
<circle cx="108" cy="10" r="10" class="c0"/>
<circle cx="1002" cy="1238" r="10" class="c0"/>
<circle cx="1186" cy="1132" r="10" class="c0"/>
<circle cx="846" cy="1248" r="10" class="c0"/>
<circle cx="926" cy="1286" r="10" class="c0"/>
<circle cx="812" cy="882" r="10" class="c0"/>
<circle cx="978" cy="1090" r="10" class="c0"/>
<circle cx="308" cy="44" r="10" class="c0"/>
<circle cx="182" cy="34" r="10" class="c0"/>
<circle cx="626" cy="24" r="10" class="c0"/>
<circle cx="446" cy="42" r="10" class="c0"/>
<circle cx="920" cy="1250" r="10" class="c0"/>
<circle cx="948" cy="970" r="10" class="c0"/>
<circle cx="1264" cy="1360" r="10" class="c0"/>
<circle cx="730" cy="34" r="10" class="c0"/>
<circle cx="1040" cy="1032" r="10" class="c0"/>
<circle cx="1046" cy="1280" r="10" class="c0"/>
<circle cx="996" cy="1268" r="10" class="c0"/>
<circle cx="1224" cy="1182" r="10" class="c0"/>
<circle cx="914" cy="980" r="10" class="c0"/>
<circle cx="882" cy="1080" r="10" class="c0"/>
<circle cx="442" cy="12" r="10" class="c0"/>
<circle cx="1094" cy="1288" r="10" class="c0"/>
<circle cx="1198" cy="1326" r="10" class="c0"/>
<circle cx="266" cy="10" r="10" class="c0"/>
<circle cx="692" cy="22" r="10" class="c0"/>
<circle cx="1120" cy="1134" r="10" class="c0"/>
<circle cx="1250" cy="1250" r="10" class="c0"/>
<circle cx="1232" cy="1330" r="10" class="c0"/>
<circle cx="1176" cy="1190" r="10" class="c0"/>
<circle cx="1262" cy="1274" r="10" class="c0"/>
<circle cx="1326" cy="1414" r="10" class="c0"/>
<circle cx="948" cy="1252" r="10" class="c0"/>
<circle cx="1082" cy="1384" r="10" class="c0"/>
<circle cx="1204" cy="1368" r="10" class="c0"/>
<circle cx="1124" cy="1280" r="10" class="c0"/>
<circle cx="938" cy="1224" r="10" class="c0"/>
<circle cx="1046" cy="1112" r="10" class="c0"/>
<circle cx="968" cy="1056" r="10" class="c0"/>
<circle cx="1060" cy="1372" r="10" class="c0"/>
<circle cx="840" cy="852" r="10" class="c0"/>
<circle cx="402" cy="72" r="10" class="c0"/>
<circle cx="860" cy="1260" r="10" class="c0"/>
<circle cx="1316" cy="1360" r="10" class="c0"/>
<circle cx="1176" cy="1342" r="10" class="c0"/>
<circle cx="1182" cy="1376" r="10" class="c0"/>
<circle cx="1082" cy="1264" r="10" class="c0"/>
<circle cx="834" cy="876" r="10" class="c0"/>
<circle cx="1316" cy="1300" r="10" class="c0"/>
<circle cx="840" cy="1176" r="10" class="c0"/>
<circle cx="1006" cy="1310" r="10" class="c0"/>
<circle cx="1168" cy="1422" r="8" class="c0"/>
<circle cx="920" cy="1094" r="8" class="c0"/>
<circle cx="990" cy="1198" r="8" class="c0"/>
<circle cx="316" cy="10" r="8" class="c0"/>
<circle cx="1112" cy="1302" r="8" class="c0"/>
<circle cx="810" cy="28" r="8" class="c0"/>
<circle cx="1232" cy="1292" r="8" class="c0"/>
<circle cx="1258" cy="1398" r="8" class="c0"/>
<circle cx="294" cy="58" r="8" class="c0"/>
<circle cx="1038" cy="1090" r="8" class="c0"/>
<circle cx="136" cy="34" r="8" class="c0"/>
<circle cx="974" cy="1236" r="8" class="c0"/>
<circle cx="872" cy="880" r="8" class="c0"/>
<circle cx="1050" cy="1346" r="8" class="c0"/>
<circle cx="1194" cy="984" r="8" class="c0"/>
<circle cx="1284" cy="1350" r="8" class="c0"/>
<circle cx="108" cy="42" r="8" class="c0"/>
<circle cx="240" cy="46" r="8" class="c0"/>
<circle cx="558" cy="58" r="8" class="c0"/>
<circle cx="1000" cy="1164" r="8" class="c0"/>
<circle cx="1134" cy="1116" r="8" class="c0"/>
<circle cx="1204" cy="1302" r="8" class="c0"/>
<circle cx="1218" cy="1150" r="8" class="c0"/>
<circle cx="1140" cy="1136" r="8" class="c0"/>
<circle cx="1098" cy="1250" r="8" class="c0"/>
<circle cx="1282" cy="1244" r="8" class="c0"/>
<circle cx="1040" cy="1232" r="8" class="c0"/>
<circle cx="860" cy="862" r="8" class="c0"/>
<circle cx="880" cy="1238" r="8" class="c0"/>
<circle cx="1186" cy="1004" r="8" class="c0"/>
<circle cx="1032" cy="1010" r="8" class="c0"/>
<circle cx="1192" cy="1284" r="8" class="c0"/>
<circle cx="990" cy="1320" r="8" class="c0"/>
<circle cx="952" cy="1186" r="8" class="c0"/>
<circle cx="1176" cy="1224" r="8" class="c0"/>
<circle cx="1026" cy="1354" r="8" class="c0"/>
<circle cx="188" cy="54" r="8" class="c0"/>
<circle cx="1124" cy="1404" r="8" class="c0"/>
<circle cx="1138" cy="1346" r="8" class="c0"/>
<circle cx="350" cy="26" r="8" class="c0"/>
<circle cx="320" cy="68" r="8" class="c0"/>
<circle cx="212" cy="48" r="8" class="c0"/>
<circle cx="1138" cy="1188" r="8" class="c0"/>
<circle cx="1244" cy="1202" r="8" class="c0"/>
<circle cx="1374" cy="1422" r="8" class="c0"/>
<circle cx="1070" cy="1152" r="8" class="c0"/>
<circle cx="1158" cy="1088" r="8" class="c0"/>
<circle cx="812" cy="836" r="8" class="c0"/>
<circle cx="968" cy="1026" r="8" class="c0"/>
<circle cx="1088" cy="1362" r="8" class="c0"/>
<circle cx="988" cy="1066" r="8" class="c0"/>
<circle cx="1210" cy="1168" r="8" class="c0"/>
<circle cx="718" cy="16" r="8" class="c0"/>
<circle cx="992" cy="1288" r="8" class="c0"/>
<circle cx="1016" cy="1222" r="8" class="c0"/>
<circle cx="1086" cy="1188" r="8" class="c0"/>
<circle cx="922" cy="1160" r="8" class="c0"/>
<circle cx="846" cy="1120" r="8" class="c0"/>
<circle cx="1016" cy="1288" r="8" class="c0"/>
<circle cx="950" cy="1022" r="8" class="c0"/>
<circle cx="1166" cy="1254" r="8" class="c0"/>
<circle cx="1076" cy="1120" r="8" class="c0"/>
<circle cx="870" cy="1224" r="8" class="c0"/>
<circle cx="1142" cy="1246" r="8" class="c0"/>
<circle cx="1146" cy="1422" r="8" class="c0"/>
<circle cx="1268" cy="1226" r="8" class="c0"/>
<circle cx="1166" cy="1170" r="8" class="c0"/>
<circle cx="502" cy="18" r="8" class="c0"/>
<circle cx="1910" cy="942" r="8" class="c0"/>
<circle cx="1076" cy="1206" r="8" class="c0"/>
<circle cx="864" cy="900" r="8" class="c0"/>
<circle cx="1240" cy="1308" r="8" class="c0"/>
<circle cx="1188" cy="1172" r="8" class="c0"/>
<circle cx="852" cy="890" r="8" class="c0"/>
<circle cx="1068" cy="1300" r="8" class="c0"/>
<circle cx="1012" cy="1338" r="8" class="c0"/>
<circle cx="1156" cy="1354" r="8" class="c0"/>
<circle cx="1260" cy="1418" r="8" class="c0"/>
<circle cx="1184" cy="1240" r="8" class="c0"/>
<circle cx="940" cy="994" r="8" class="c0"/>
<circle cx="380" cy="64" r="8" class="c0"/>
<circle cx="1338" cy="1426" r="8" class="c0"/>
<circle cx="1116" cy="1378" r="8" class="c0"/>
<circle cx="1330" cy="1332" r="8" class="c0"/>
<circle cx="374" cy="34" r="8" class="c0"/>
<circle cx="982" cy="1114" r="8" class="c0"/>
<circle cx="1108" cy="1180" r="8" class="c0"/>
<circle cx="548" cy="24" r="8" class="c0"/>
<circle cx="866" cy="1090" r="8" class="c0"/>
<circle cx="1098" cy="1344" r="8" class="c0"/>
<circle cx="1078" cy="1340" r="8" class="c0"/>
<circle cx="1162" cy="1006" r="8" class="c0"/>
<circle cx="1220" cy="1318" r="8" class="c0"/>
<circle cx="1186" cy="1420" r="8" class="c0"/>
<circle cx="1058" cy="1314" r="8" class="c0"/>
<circle cx="428" cy="60" r="8" class="c0"/>
<circle cx="914" cy="950" r="8" class="c0"/>
<circle cx="1058" cy="1216" r="8" class="c0"/>
<circle cx="514" cy="36" r="8" class="c0"/>
<circle cx="1104" cy="1394" r="8" class="c0"/>
<circle cx="1082" cy="1140" r="8" class="c0"/>
<circle cx="1212" cy="1386" r="8" class="c0"/>
<circle cx="488" cy="8" r="8" class="c0"/>
<circle cx="888" cy="894" r="8" class="c0"/>
<circle cx="1198" cy="1224" r="8" class="c0"/>
<circle cx="1010" cy="1068" r="8" class="c0"/>
<circle cx="1066" cy="1182" r="8" class="c0"/>
<circle cx="1000" cy="1112" r="8" class="c0"/>
<circle cx="1156" cy="1192" r="8" class="c0"/>
<circle cx="938" cy="1126" r="8" class="c0"/>
<circle cx="1288" cy="1424" r="8" class="c0"/>
<circle cx="1054" cy="1194" r="8" class="c0"/>
<circle cx="908" cy="1234" r="8" class="c0"/>
<circle cx="792" cy="822" r="8" class="c0"/>
<circle cx="822" cy="1164" r="8" class="c0"/>
<circle cx="1042" cy="1182" r="8" class="c0"/>
<circle cx="1164" cy="1120" r="8" class="c0"/>
<circle cx="1000" cy="1210" r="8" class="c0"/>
<circle cx="1214" cy="1238" r="8" class="c0"/>
<circle cx="530" cy="12" r="8" class="c0"/>
<circle cx="1218" cy="1076" r="8" class="c0"/>
<circle cx="296" cy="78" r="8" class="c0"/>
<circle cx="992" cy="982" r="8" class="c0"/>
<circle cx="76" cy="8" r="8" class="c0"/>
<circle cx="130" cy="16" r="8" class="c0"/>
<circle cx="628" cy="94" r="8" class="c0"/>
<circle cx="1166" cy="1042" r="8" class="c0"/>
<circle cx="926" cy="1206" r="8" class="c0"/>
<circle cx="418" cy="10" r="8" class="c0"/>
<circle cx="1236" cy="1374" r="8" class="c0"/>
<circle cx="1090" cy="1234" r="8" class="c0"/>
<circle cx="1022" cy="1040" r="8" class="c0"/>
<circle cx="1234" cy="1022" r="8" class="c0"/>
<circle cx="370" cy="10" r="8" class="c0"/>
<circle cx="86" cy="24" r="8" class="c0"/>
<circle cx="836" cy="26" r="8" class="c0"/>
<circle cx="672" cy="18" r="8" class="c0"/>
<circle cx="896" cy="1150" r="8" class="c0"/>
<circle cx="1294" cy="1364" r="8" class="c0"/>
<circle cx="1154" cy="1278" r="8" class="c0"/>
<circle cx="956" cy="1234" r="8" class="c0"/>
<circle cx="786" cy="850" r="8" class="c0"/>
<circle cx="1238" cy="1274" r="8" class="c0"/>
<circle cx="946" cy="1272" r="8" class="c0"/>
<circle cx="1000" cy="1184" r="8" class="c0"/>
<circle cx="1168" cy="1100" r="8" class="c0"/>
<circle cx="1140" cy="1386" r="8" class="c0"/>
<circle cx="1062" cy="1132" r="8" class="c0"/>
<circle cx="776" cy="800" r="8" class="c0"/>
<circle cx="1204" cy="1408" r="8" class="c0"/>
<circle cx="70" cy="40" r="8" class="c0"/>
<circle cx="876" cy="30" r="8" class="c0"/>
<circle cx="1230" cy="1212" r="8" class="c0"/>
<circle cx="792" cy="22" r="8" class="c0"/>
<circle cx="844" cy="920" r="8" class="c0"/>
<circle cx="1148" cy="1404" r="8" class="c0"/>
<circle cx="1250" cy="1290" r="8" class="c0"/>
<circle cx="1018" cy="1254" r="8" class="c0"/>
<circle cx="1138" cy="1208" r="8" class="c0"/>
<circle cx="330" cy="22" r="8" class="c0"/>
<circle cx="774" cy="834" r="8" class="c0"/>
<circle cx="650" cy="10" r="8" class="c0"/>
<circle cx="1122" cy="1158" r="8" class="c0"/>
<circle cx="1306" cy="1418" r="8" class="c0"/>
<circle cx="1328" cy="1394" r="8" class="c0"/>
<circle cx="592" cy="10" r="8" class="c0"/>
<circle cx="984" cy="1220" r="8" class="c0"/>
<circle cx="1152" cy="1304" r="8" class="c0"/>
<circle cx="746" cy="46" r="8" class="c0"/>
<circle cx="852" cy="1196" r="8" class="c0"/>
<circle cx="686" cy="68" r="8" class="c0"/>
<circle cx="990" cy="1022" r="8" class="c0"/>
<circle cx="1056" cy="1170" r="8" class="c0"/>
<circle cx="1040" cy="1368" r="8" class="c0"/>
<circle cx="828" cy="898" r="8" class="c0"/>
<circle cx="1110" cy="1232" r="8" class="c0"/>
<circle cx="874" cy="1310" r="8" class="c0"/>
<circle cx="982" cy="1154" r="8" class="c0"/>
<circle cx="958" cy="1128" r="8" class="c0"/>
<circle cx="904" cy="1328" r="8" class="c0"/>
<circle cx="940" cy="1170" r="8" class="c0"/>
<circle cx="1134" cy="1302" r="8" class="c0"/>
<circle cx="1288" cy="1314" r="8" class="c0"/>
<circle cx="920" cy="1072" r="8" class="c0"/>
<circle cx="1204" cy="974" r="8" class="c0"/>
<circle cx="178" cy="10" r="8" class="c0"/>
<circle cx="1238" cy="1004" r="8" class="c0"/>
<circle cx="844" cy="1276" r="8" class="c0"/>
<circle cx="912" cy="1126" r="8" class="c0"/>
<circle cx="1248" cy="1224" r="8" class="c0"/>
<circle cx="798" cy="866" r="8" class="c0"/>
<circle cx="826" cy="1118" r="8" class="c0"/>
<circle cx="964" cy="1110" r="8" class="c0"/>
<circle cx="1164" cy="1210" r="8" class="c0"/>
<circle cx="1060" cy="1030" r="8" class="c0"/>
<circle cx="572" cy="86" r="8" class="c0"/>
<circle cx="1176" cy="1406" r="8" class="c0"/>
<circle cx="1910" cy="984" r="8" class="c0"/>
<circle cx="1220" cy="1058" r="8" class="c0"/>
<circle cx="536" cy="38" r="8" class="c0"/>
<circle cx="524" cy="62" r="8" class="c0"/>
<circle cx="678" cy="52" r="8" class="c0"/>
<circle cx="134" cy="52" r="8" class="c0"/>
<circle cx="1032" cy="1336" r="8" class="c0"/>
<circle cx="330" cy="50" r="8" class="c0"/>
<circle cx="894" cy="1248" r="8" class="c0"/>
<circle cx="852" cy="1080" r="8" class="c0"/>
<circle cx="1078" cy="1086" r="8" class="c0"/>
<circle cx="862" cy="40" r="8" class="c0"/>
<circle cx="712" cy="46" r="8" class="c0"/>
<circle cx="1252" cy="1342" r="8" class="c0"/>
<circle cx="466" cy="12" r="8" class="c0"/>
<circle cx="1108" cy="1270" r="8" class="c0"/>
<circle cx="1168" cy="1078" r="8" class="c0"/>
<circle cx="830" cy="1096" r="8" class="c0"/>
<circle cx="1224" cy="1034" r="8" class="c0"/>
<circle cx="606" cy="56" r="8" class="c0"/>
<circle cx="882" cy="122" r="8" class="c0"/>
<circle cx="1214" cy="1024" r="8" class="c0"/>
<circle cx="970" cy="1138" r="8" class="c0"/>
<circle cx="512" cy="90" r="8" class="c0"/>
<circle cx="934" cy="1146" r="8" class="c0"/>
<circle cx="1908" cy="962" r="8" class="c0"/>
<circle cx="1082" cy="1060" r="8" class="c0"/>
<circle cx="1262" cy="1304" r="8" class="c0"/>
<circle cx="572" cy="10" r="8" class="c0"/>
<circle cx="1194" cy="1150" r="8" class="c0"/>
<circle cx="1046" cy="1160" r="8" class="c0"/>
<circle cx="626" cy="48" r="8" class="c0"/>
<circle cx="908" cy="1264" r="8" class="c0"/>
<circle cx="1066" cy="1278" r="8" class="c0"/>
<circle cx="1014" cy="1018" r="8" class="c0"/>
<circle cx="292" cy="34" r="8" class="c0"/>
<circle cx="1142" cy="1364" r="8" class="c0"/>
<circle cx="1130" cy="1234" r="8" class="c0"/>
<circle cx="1890" cy="968" r="8" class="c0"/>
<circle cx="908" cy="932" r="8" class="c0"/>
<circle cx="1184" cy="964" r="8" class="c0"/>
<circle cx="894" cy="1318" r="8" class="c0"/>
<circle cx="1214" cy="1350" r="8" class="c0"/>
<circle cx="592" cy="46" r="8" class="c0"/>
<circle cx="1208" cy="1132" r="8" class="c0"/>
<circle cx="810" cy="76" r="8" class="c0"/>
<circle cx="816" cy="856" r="8" class="c0"/>
<circle cx="724" cy="62" r="8" class="c0"/>
<circle cx="922" cy="1114" r="8" class="c0"/>
<circle cx="860" cy="1236" r="8" class="c0"/>
<circle cx="1116" cy="1254" r="8" class="c0"/>
<circle cx="1190" cy="1356" r="8" class="c0"/>
<circle cx="610" cy="8" r="8" class="c0"/>
<circle cx="1072" cy="1070" r="6" class="c0"/>
<circle cx="1072" cy="1230" r="6" class="c0"/>
<circle cx="836" cy="1132" r="6" class="c0"/>
<circle cx="1338" cy="1346" r="6" class="c0"/>
<circle cx="834" cy="1200" r="6" class="c0"/>
<circle cx="1032" cy="1292" r="6" class="c0"/>
<circle cx="588" cy="64" r="6" class="c0"/>
<circle cx="1046" cy="1324" r="6" class="c0"/>
<circle cx="914" cy="1316" r="6" class="c0"/>
<circle cx="852" cy="30" r="6" class="c0"/>
<circle cx="1086" cy="1106" r="6" class="c0"/>
<circle cx="834" cy="42" r="6" class="c0"/>
<circle cx="1176" cy="1014" r="6" class="c0"/>
<circle cx="770" cy="20" r="6" class="c0"/>
<circle cx="1042" cy="1212" r="6" class="c0"/>
<circle cx="1050" cy="1300" r="6" class="c0"/>
<circle cx="974" cy="1280" r="6" class="c0"/>
<circle cx="1192" cy="1208" r="6" class="c0"/>
<circle cx="1060" cy="1054" r="6" class="c0"/>
<circle cx="1028" cy="1080" r="6" class="c0"/>
<circle cx="1238" cy="1430" r="6" class="c0"/>
<circle cx="1182" cy="1114" r="6" class="c0"/>
<circle cx="1280" cy="1262" r="6" class="c0"/>
<circle cx="1140" cy="1078" r="6" class="c0"/>
<circle cx="872" cy="1162" r="6" class="c0"/>
<circle cx="250" cy="66" r="6" class="c0"/>
<circle cx="1236" cy="1236" r="6" class="c0"/>
<circle cx="892" cy="964" r="6" class="c0"/>
<circle cx="942" cy="1200" r="6" class="c0"/>
<circle cx="896" cy="30" r="6" class="c0"/>
<circle cx="774" cy="816" r="6" class="c0"/>
<circle cx="1100" cy="1328" r="6" class="c0"/>
<circle cx="1068" cy="1354" r="6" class="c0"/>
<circle cx="456" cy="24" r="6" class="c0"/>
<circle cx="1250" cy="1382" r="6" class="c0"/>
<circle cx="1218" cy="1096" r="6" class="c0"/>
<circle cx="886" cy="40" r="6" class="c0"/>
<circle cx="864" cy="1208" r="6" class="c0"/>
<circle cx="342" cy="6" r="6" class="c0"/>
<circle cx="1356" cy="1432" r="6" class="c0"/>
<circle cx="1250" cy="1320" r="6" class="c0"/>
<circle cx="1030" cy="1242" r="6" class="c0"/>
<circle cx="1304" cy="1318" r="6" class="c0"/>
<circle cx="894" cy="1192" r="6" class="c0"/>
<circle cx="1068" cy="1326" r="6" class="c0"/>
<circle cx="256" cy="44" r="6" class="c0"/>
<circle cx="906" cy="1198" r="6" class="c0"/>
<circle cx="950" cy="1212" r="6" class="c0"/>
<circle cx="1180" cy="1088" r="6" class="c0"/>
<circle cx="226" cy="36" r="6" class="c0"/>
<circle cx="820" cy="66" r="6" class="c0"/>
<circle cx="228" cy="6" r="6" class="c0"/>
<circle cx="982" cy="1304" r="6" class="c0"/>
<circle cx="822" cy="1144" r="6" class="c0"/>
<circle cx="370" cy="74" r="6" class="c0"/>
<circle cx="862" cy="1114" r="6" class="c0"/>
<circle cx="1102" cy="1132" r="6" class="c0"/>
<circle cx="568" cy="68" r="6" class="c0"/>
<circle cx="944" cy="1310" r="6" class="c0"/>
<circle cx="1166" cy="1022" r="6" class="c0"/>
<circle cx="1156" cy="1142" r="6" class="c0"/>
<circle cx="604" cy="76" r="6" class="c0"/>
<circle cx="554" cy="76" r="6" class="c0"/>
<circle cx="1232" cy="980" r="6" class="c0"/>
<circle cx="378" cy="86" r="6" class="c0"/>
<circle cx="1174" cy="984" r="6" class="c0"/>
<circle cx="348" cy="70" r="6" class="c0"/>
<circle cx="1908" cy="1004" r="6" class="c0"/>
<circle cx="230" cy="56" r="6" class="c0"/>
<circle cx="952" cy="1004" r="6" class="c0"/>
<circle cx="1098" cy="1376" r="6" class="c0"/>
<circle cx="10" cy="26" r="6" class="c0"/>
<circle cx="902" cy="1082" r="6" class="c0"/>
<circle cx="1186" cy="1100" r="6" class="c0"/>
<circle cx="1324" cy="1316" r="6" class="c0"/>
<circle cx="1016" cy="1142" r="6" class="c0"/>
<circle cx="434" cy="76" r="6" class="c0"/>
<circle cx="878" cy="1150" r="6" class="c0"/>
<circle cx="1910" cy="924" r="6" class="c0"/>
<circle cx="960" cy="988" r="6" class="c0"/>
<circle cx="632" cy="78" r="6" class="c0"/>
<circle cx="1272" cy="1432" r="6" class="c0"/>
<circle cx="548" cy="6" r="6" class="c0"/>
<circle cx="368" cy="50" r="6" class="c0"/>
<circle cx="264" cy="28" r="6" class="c0"/>
<circle cx="494" cy="32" r="6" class="c0"/>
<circle cx="1120" cy="1076" r="6" class="c0"/>
<circle cx="800" cy="38" r="6" class="c0"/>
<circle cx="930" cy="1304" r="6" class="c0"/>
<circle cx="1188" cy="1308" r="6" class="c0"/>
<circle cx="1148" cy="1324" r="6" class="c0"/>
<circle cx="1152" cy="1016" r="6" class="c0"/>
<circle cx="1262" cy="1208" r="6" class="c0"/>
<circle cx="1214" cy="1292" r="6" class="c0"/>
<circle cx="988" cy="1248" r="6" class="c0"/>
<circle cx="282" cy="24" r="6" class="c0"/>
<circle cx="1314" cy="1282" r="6" class="c0"/>
<circle cx="1194" cy="1090" r="6" class="c0"/>
<circle cx="918" cy="1222" r="6" class="c0"/>
<circle cx="828" cy="834" r="6" class="c0"/>
<circle cx="1298" cy="1298" r="6" class="c0"/>
<circle cx="696" cy="48" r="6" class="c0"/>
<circle cx="956" cy="1328" r="6" class="c0"/>
<circle cx="1154" cy="1058" r="6" class="c0"/>
<circle cx="1136" cy="1262" r="6" class="c0"/>
<circle cx="1056" cy="1266" r="6" class="c0"/>
<circle cx="260" cy="58" r="6" class="c0"/>
<circle cx="1050" cy="1018" r="6" class="c0"/>
<circle cx="1154" cy="1338" r="6" class="c0"/>
<circle cx="202" cy="8" r="6" class="c0"/>
<circle cx="854" cy="930" r="6" class="c0"/>
<circle cx="320" cy="32" r="6" class="c0"/>
<circle cx="866" cy="942" r="6" class="c0"/>
<circle cx="1196" cy="1390" r="6" class="c0"/>
<circle cx="116" cy="28" r="6" class="c0"/>
<circle cx="6" cy="8" r="6" class="c0"/>
<circle cx="1198" cy="1182" r="6" class="c0"/>
<circle cx="796" cy="840" r="6" class="c0"/>
<circle cx="988" cy="1174" r="6" class="c0"/>
<circle cx="802" cy="92" r="6" class="c0"/>
<circle cx="984" cy="996" r="6" class="c0"/>
<circle cx="1098" cy="1056" r="6" class="c0"/>
<circle cx="1296" cy="1254" r="6" class="c0"/>
<circle cx="1208" cy="1088" r="6" class="c0"/>
<circle cx="54" cy="6" r="6" class="c0"/>
<circle cx="580" cy="56" r="6" class="c0"/>
<circle cx="978" cy="1040" r="6" class="c0"/>
<circle cx="878" cy="1202" r="6" class="c0"/>
<circle cx="862" cy="1172" r="6" class="c0"/>
<circle cx="1122" cy="1220" r="6" class="c0"/>
<circle cx="928" cy="1266" r="6" class="c0"/>
<circle cx="1230" cy="1252" r="6" class="c0"/>
<circle cx="1156" cy="1030" r="6" class="c0"/>
<circle cx="430" cy="26" r="6" class="c0"/>
<circle cx="478" cy="62" r="6" class="c0"/>
<circle cx="90" cy="42" r="6" class="c0"/>
<circle cx="1052" cy="1246" r="6" class="c0"/>
<circle cx="540" cy="96" r="6" class="c0"/>
<circle cx="878" cy="1256" r="6" class="c0"/>
<circle cx="1316" cy="1428" r="6" class="c0"/>
<circle cx="940" cy="1062" r="6" class="c0"/>
<circle cx="996" cy="1336" r="6" class="c0"/>
<circle cx="1100" cy="1096" r="6" class="c0"/>
<circle cx="914" cy="914" r="6" class="c0"/>
<circle cx="1082" cy="1162" r="6" class="c0"/>
<circle cx="556" cy="38" r="6" class="c0"/>
<circle cx="910" cy="1142" r="6" class="c0"/>
<circle cx="760" cy="820" r="6" class="c0"/>
<circle cx="634" cy="6" r="6" class="c0"/>
<circle cx="644" cy="100" r="6" class="c0"/>
<circle cx="896" cy="1130" r="6" class="c0"/>
<circle cx="1222" cy="1366" r="6" class="c0"/>
<circle cx="836" cy="1150" r="6" class="c0"/>
<circle cx="476" cy="48" r="6" class="c0"/>
<circle cx="968" cy="954" r="6" class="c0"/>
<circle cx="1152" cy="1262" r="6" class="c0"/>
<circle cx="1200" cy="1248" r="6" class="c0"/>
<circle cx="24" cy="34" r="6" class="c0"/>
<circle cx="164" cy="36" r="6" class="c0"/>
<circle cx="1268" cy="1256" r="6" class="c0"/>
<circle cx="1270" cy="1342" r="6" class="c0"/>
<circle cx="1174" cy="1360" r="6" class="c0"/>
<circle cx="682" cy="36" r="6" class="c0"/>
<circle cx="948" cy="1116" r="6" class="c0"/>
<circle cx="1350" cy="1358" r="6" class="c0"/>
<circle cx="1314" cy="1402" r="6" class="c0"/>
<circle cx="1282" cy="1334" r="6" class="c0"/>
<circle cx="766" cy="50" r="6" class="c0"/>
<circle cx="328" cy="82" r="6" class="c0"/>
<circle cx="410" cy="54" r="6" class="c0"/>
<circle cx="540" cy="56" r="6" class="c0"/>
<circle cx="1124" cy="1178" r="6" class="c0"/>
<circle cx="1242" cy="1180" r="6" class="c0"/>
<circle cx="1052" cy="1144" r="6" class="c0"/>
<circle cx="1266" cy="1242" r="6" class="c0"/>
<circle cx="1112" cy="1062" r="6" class="c0"/>
<circle cx="510" cy="72" r="6" class="c0"/>
<circle cx="1244" cy="1416" r="6" class="c0"/>
<circle cx="722" cy="104" r="6" class="c0"/>
<circle cx="512" cy="8" r="6" class="c0"/>
<circle cx="1904" cy="912" r="6" class="c0"/>
<circle cx="1020" cy="1324" r="6" class="c0"/>
<circle cx="1158" cy="1370" r="6" class="c0"/>
<circle cx="1060" cy="1334" r="6" class="c0"/>
<circle cx="1044" cy="1130" r="6" class="c0"/>
<circle cx="666" cy="98" r="6" class="c0"/>
<circle cx="922" cy="1136" r="6" class="c0"/>
<circle cx="810" cy="820" r="6" class="c0"/>
<circle cx="548" cy="48" r="6" class="c0"/>
<circle cx="594" cy="26" r="6" class="c0"/>
<circle cx="738" cy="16" r="6" class="c0"/>
<circle cx="668" cy="84" r="6" class="c0"/>
<circle cx="246" cy="6" r="6" class="c0"/>
<circle cx="1214" cy="1218" r="6" class="c0"/>
<circle cx="708" cy="30" r="6" class="c0"/>
<circle cx="1228" cy="1164" r="6" class="c0"/>
<circle cx="616" cy="66" r="6" class="c0"/>
<circle cx="858" cy="1300" r="6" class="c0"/>
<circle cx="456" cy="80" r="6" class="c0"/>
<circle cx="192" cy="18" r="6" class="c0"/>
<circle cx="962" cy="1274" r="6" class="c0"/>
<circle cx="998" cy="1078" r="6" class="c0"/>
<circle cx="924" cy="996" r="6" class="c0"/>
<circle cx="1180" cy="948" r="6" class="c0"/>
<circle cx="236" cy="74" r="6" class="c0"/>
<circle cx="1170" cy="1272" r="6" class="c0"/>
<circle cx="1106" cy="1368" r="6" class="c0"/>
<circle cx="142" cy="6" r="6" class="c0"/>
<circle cx="340" cy="38" r="6" class="c0"/>
<circle cx="940" cy="1012" r="6" class="c0"/>
<circle cx="582" cy="76" r="6" class="c0"/>
<circle cx="1028" cy="1102" r="6" class="c0"/>
<circle cx="1228" cy="1228" r="6" class="c0"/>
<circle cx="1222" cy="1302" r="6" class="c0"/>
<circle cx="932" cy="978" r="6" class="c0"/>
<circle cx="1144" cy="1288" r="6" class="c0"/>
<circle cx="1052" cy="1046" r="6" class="c0"/>
<circle cx="1238" cy="1390" r="6" class="c0"/>
<circle cx="974" cy="1296" r="6" class="c0"/>
<circle cx="682" cy="8" r="6" class="c0"/>
<circle cx="1224" cy="1012" r="6" class="c0"/>
<circle cx="1146" cy="1066" r="6" class="c0"/>
<circle cx="874" cy="1104" r="6" class="c0"/>
<circle cx="1202" cy="956" r="6" class="c0"/>
<circle cx="1100" cy="1196" r="6" class="c0"/>
<circle cx="1008" cy="1150" r="6" class="c0"/>
<circle cx="1196" cy="1016" r="6" class="c0"/>
<circle cx="850" cy="80" r="6" class="c0"/>
<circle cx="1158" cy="1432" r="6" class="c0"/>
<circle cx="930" cy="1082" r="6" class="c0"/>
<circle cx="278" cy="66" r="6" class="c0"/>
<circle cx="638" cy="58" r="6" class="c0"/>
</svg>
