<?xml version="1.0" encoding="utf-8"?>
<svg xmlns="http://www.w3.org/2000/svg"
     xmlns:xlink="http://www.w3.org/1999/xlink" width="1920" height="1440" >

            <defs>
            <style type="text/css"><![CDATA[
circle {stroke: none;}
.c0 {fill: #000000;}
]]></style>
            </defs>
<rect x="0" y="0" width="1920" height="1440" fill="white"/>
<circle cx="988" cy="1050" r="14" class="c0"/>
<circle cx="1296" cy="1374" r="12" class="c0"/>
<circle cx="1020" cy="1236" r="12" class="c0"/>
<circle cx="1258" cy="1092" r="12" class="c0"/>
<circle cx="1114" cy="1348" r="12" class="c0"/>
<circle cx="1290" cy="1162" r="12" class="c0"/>
<circle cx="1320" cy="1406" r="12" class="c0"/>
<circle cx="1028" cy="1276" r="12" class="c0"/>
<circle cx="1174" cy="1168" r="12" class="c0"/>
<circle cx="1146" cy="1310" r="12" class="c0"/>
<circle cx="1242" cy="1276" r="12" class="c0"/>
<circle cx="1234" cy="1420" r="12" class="c0"/>
<circle cx="886" cy="960" r="12" class="c0"/>
<circle cx="946" cy="1284" r="12" class="c0"/>
<circle cx="1342" cy="1384" r="12" class="c0"/>
<circle cx="1142" cy="1210" r="12" class="c0"/>
<circle cx="944" cy="1348" r="12" class="c0"/>
<circle cx="1370" cy="1414" r="12" class="c0"/>
<circle cx="1124" cy="1122" r="12" class="c0"/>
<circle cx="1086" cy="1286" r="12" class="c0"/>
<circle cx="1192" cy="1378" r="12" class="c0"/>
<circle cx="1142" cy="1370" r="12" class="c0"/>
<circle cx="1158" cy="1408" r="12" class="c0"/>
<circle cx="968" cy="1370" r="12" class="c0"/>
<circle cx="1286" cy="1416" r="12" class="c0"/>
<circle cx="988" cy="1200" r="12" class="c0"/>
<circle cx="1148" cy="1338" r="12" class="c0"/>
<circle cx="1224" cy="1246" r="12" class="c0"/>
<circle cx="1036" cy="1108" r="12" class="c0"/>
<circle cx="1116" cy="1384" r="10" class="c0"/>
<circle cx="910" cy="946" r="10" class="c0"/>
<circle cx="1264" cy="1116" r="10" class="c0"/>
<circle cx="1180" cy="1292" r="10" class="c0"/>
<circle cx="1038" cy="1336" r="10" class="c0"/>
<circle cx="936" cy="1218" r="10" class="c0"/>
<circle cx="1014" cy="1080" r="10" class="c0"/>
<circle cx="1050" cy="1258" r="10" class="c0"/>
<circle cx="1244" cy="1334" r="10" class="c0"/>
<circle cx="1312" cy="1092" r="10" class="c0"/>
<circle cx="1080" cy="1420" r="10" class="c0"/>
<circle cx="1288" cy="1292" r="10" class="c0"/>
<circle cx="1192" cy="1276" r="10" class="c0"/>
<circle cx="1132" cy="1234" r="10" class="c0"/>
<circle cx="1046" cy="1388" r="10" class="c0"/>
<circle cx="870" cy="944" r="10" class="c0"/>
<circle cx="1258" cy="1380" r="10" class="c0"/>
<circle cx="1144" cy="1426" r="10" class="c0"/>
<circle cx="1030" cy="1408" r="10" class="c0"/>
<circle cx="1016" cy="1344" r="10" class="c0"/>
<circle cx="1052" cy="1324" r="10" class="c0"/>
<circle cx="1120" cy="1288" r="10" class="c0"/>
<circle cx="1092" cy="1096" r="10" class="c0"/>
<circle cx="1218" cy="1318" r="10" class="c0"/>
<circle cx="1012" cy="1312" r="10" class="c0"/>
<circle cx="960" cy="1222" r="10" class="c0"/>
<circle cx="1338" cy="1346" r="10" class="c0"/>
<circle cx="1110" cy="1218" r="10" class="c0"/>
<circle cx="984" cy="1412" r="10" class="c0"/>
<circle cx="1050" cy="1122" r="10" class="c0"/>
<circle cx="1060" cy="1162" r="10" class="c0"/>
<circle cx="1138" cy="1276" r="10" class="c0"/>
<circle cx="970" cy="1006" r="10" class="c0"/>
<circle cx="1178" cy="1220" r="10" class="c0"/>
<circle cx="1306" cy="1348" r="10" class="c0"/>
<circle cx="1216" cy="1408" r="10" class="c0"/>
<circle cx="1270" cy="1218" r="10" class="c0"/>
<circle cx="962" cy="974" r="10" class="c0"/>
<circle cx="1088" cy="1124" r="10" class="c0"/>
<circle cx="1144" cy="1170" r="10" class="c0"/>
<circle cx="994" cy="1248" r="10" class="c0"/>
<circle cx="1022" cy="1052" r="10" class="c0"/>
<circle cx="1096" cy="1360" r="10" class="c0"/>
<circle cx="1288" cy="1264" r="10" class="c0"/>
<circle cx="932" cy="956" r="10" class="c0"/>
<circle cx="1138" cy="1396" r="10" class="c0"/>
<circle cx="1092" cy="1242" r="10" class="c0"/>
<circle cx="950" cy="1386" r="10" class="c0"/>
<circle cx="1252" cy="1404" r="10" class="c0"/>
<circle cx="986" cy="1282" r="10" class="c0"/>
<circle cx="1096" cy="1160" r="10" class="c0"/>
<circle cx="1086" cy="1186" r="10" class="c0"/>
<circle cx="1008" cy="1414" r="10" class="c0"/>
<circle cx="1064" cy="1210" r="10" class="c0"/>
<circle cx="1036" cy="1162" r="10" class="c0"/>
<circle cx="1114" cy="1092" r="10" class="c0"/>
<circle cx="958" cy="1194" r="10" class="c0"/>
<circle cx="1106" cy="1268" r="10" class="c0"/>
<circle cx="1368" cy="1358" r="10" class="c0"/>
<circle cx="1262" cy="1354" r="10" class="c0"/>
<circle cx="1202" cy="1202" r="10" class="c0"/>
<circle cx="1298" cy="1244" r="10" class="c0"/>
<circle cx="1272" cy="1196" r="10" class="c0"/>
<circle cx="958" cy="1250" r="10" class="c0"/>
<circle cx="1012" cy="1386" r="10" class="c0"/>
<circle cx="1342" cy="1308" r="10" class="c0"/>
<circle cx="1160" cy="1356" r="10" class="c0"/>
<circle cx="1058" cy="1072" r="10" class="c0"/>
<circle cx="1036" cy="1368" r="10" class="c0"/>
<circle cx="984" cy="1350" r="10" class="c0"/>
<circle cx="1184" cy="1338" r="10" class="c0"/>
<circle cx="984" cy="1018" r="10" class="c0"/>
<circle cx="1032" cy="1212" r="10" class="c0"/>
<circle cx="1356" cy="1332" r="10" class="c0"/>
<circle cx="1070" cy="1088" r="10" class="c0"/>
<circle cx="1074" cy="1320" r="10" class="c0"/>
<circle cx="896" cy="982" r="10" class="c0"/>
<circle cx="1260" cy="1158" r="10" class="c0"/>
<circle cx="1286" cy="1336" r="8" class="c0"/>
<circle cx="1098" cy="1430" r="8" class="c0"/>
<circle cx="1162" cy="1236" r="8" class="c0"/>
<circle cx="1272" cy="1142" r="8" class="c0"/>
<circle cx="1136" cy="1188" r="8" class="c0"/>
<circle cx="924" cy="1242" r="8" class="c0"/>
<circle cx="1124" cy="1166" r="8" class="c0"/>
<circle cx="994" cy="1178" r="8" class="c0"/>
<circle cx="916" cy="1208" r="8" class="c0"/>
<circle cx="1216" cy="1222" r="8" class="c0"/>
<circle cx="1102" cy="1322" r="8" class="c0"/>
<circle cx="1080" cy="1350" r="8" class="c0"/>
<circle cx="1414" cy="1430" r="8" class="c0"/>
<circle cx="846" cy="926" r="8" class="c0"/>
<circle cx="1334" cy="1420" r="8" class="c0"/>
<circle cx="1222" cy="1348" r="8" class="c0"/>
<circle cx="1384" cy="1428" r="8" class="c0"/>
<circle cx="1396" cy="1384" r="8" class="c0"/>
<circle cx="926" cy="1330" r="8" class="c0"/>
<circle cx="1240" cy="1388" r="8" class="c0"/>
<circle cx="1402" cy="1410" r="8" class="c0"/>
<circle cx="1204" cy="1296" r="8" class="c0"/>
<circle cx="1244" cy="1198" r="8" class="c0"/>
<circle cx="972" cy="1300" r="8" class="c0"/>
<circle cx="1042" cy="1234" r="8" class="c0"/>
<circle cx="1090" cy="1404" r="8" class="c0"/>
<circle cx="1156" cy="1386" r="8" class="c0"/>
<circle cx="1320" cy="1322" r="8" class="c0"/>
<circle cx="1146" cy="1148" r="8" class="c0"/>
<circle cx="912" cy="1226" r="8" class="c0"/>
<circle cx="992" cy="1228" r="8" class="c0"/>
<circle cx="1282" cy="1060" r="8" class="c0"/>
<circle cx="970" cy="1238" r="8" class="c0"/>
<circle cx="1326" cy="1358" r="8" class="c0"/>
<circle cx="1052" cy="1408" r="8" class="c0"/>
<circle cx="1080" cy="1392" r="8" class="c0"/>
<circle cx="1248" cy="1172" r="8" class="c0"/>
<circle cx="1048" cy="1054" r="8" class="c0"/>
<circle cx="1324" cy="1274" r="8" class="c0"/>
<circle cx="1266" cy="1308" r="8" class="c0"/>
<circle cx="1082" cy="1260" r="8" class="c0"/>
<circle cx="988" cy="1384" r="8" class="c0"/>
<circle cx="1172" cy="1266" r="8" class="c0"/>
<circle cx="880" cy="910" r="8" class="c0"/>
<circle cx="1376" cy="1386" r="8" class="c0"/>
<circle cx="1292" cy="1124" r="8" class="c0"/>
<circle cx="944" cy="1018" r="8" class="c0"/>
<circle cx="1022" cy="1030" r="8" class="c0"/>
<circle cx="1308" cy="1428" r="8" class="c0"/>
<circle cx="914" cy="1186" r="8" class="c0"/>
<circle cx="1316" cy="1298" r="8" class="c0"/>
<circle cx="1148" cy="1254" r="8" class="c0"/>
<circle cx="1294" cy="1076" r="8" class="c0"/>
<circle cx="944" cy="992" r="8" class="c0"/>
<circle cx="1192" cy="1252" r="8" class="c0"/>
<circle cx="1210" cy="1264" r="8" class="c0"/>
<circle cx="1388" cy="1400" r="8" class="c0"/>
<circle cx="1038" cy="1312" r="8" class="c0"/>
<circle cx="1242" cy="1364" r="8" class="c0"/>
<circle cx="1168" cy="1426" r="8" class="c0"/>
<circle cx="920" cy="1004" r="8" class="c0"/>
<circle cx="1160" cy="1198" r="8" class="c0"/>
<circle cx="1188" cy="1410" r="8" class="c0"/>
<circle cx="960" cy="1034" r="8" class="c0"/>
<circle cx="1122" cy="1198" r="8" class="c0"/>
<circle cx="1222" cy="1190" r="8" class="c0"/>
<circle cx="1264" cy="1422" r="8" class="c0"/>
<circle cx="932" cy="1298" r="8" class="c0"/>
<circle cx="922" cy="980" r="8" class="c0"/>
<circle cx="1052" cy="1292" r="8" class="c0"/>
<circle cx="1260" cy="1246" r="8" class="c0"/>
<circle cx="862" cy="904" r="8" class="c0"/>
<circle cx="1230" cy="1166" r="8" class="c0"/>
<circle cx="1120" cy="1250" r="8" class="c0"/>
<circle cx="926" cy="1272" r="8" class="c0"/>
<circle cx="1196" cy="1312" r="8" class="c0"/>
<circle cx="900" cy="928" r="8" class="c0"/>
<circle cx="1064" cy="1234" r="8" class="c0"/>
<circle cx="1220" cy="1378" r="8" class="c0"/>
<circle cx="1062" cy="1372" r="8" class="c0"/>
<circle cx="1246" cy="1220" r="8" class="c0"/>
<circle cx="960" cy="1336" r="8" class="c0"/>
<circle cx="1204" cy="1420" r="8" class="c0"/>
<circle cx="1012" cy="1190" r="8" class="c0"/>
<circle cx="1240" cy="1102" r="8" class="c0"/>
<circle cx="1022" cy="1178" r="8" class="c0"/>
<circle cx="1268" cy="1270" r="8" class="c0"/>
<circle cx="994" cy="1328" r="8" class="c0"/>
<circle cx="1250" cy="1136" r="8" class="c0"/>
<circle cx="1108" cy="1302" r="8" class="c0"/>
<circle cx="1090" cy="1336" r="8" class="c0"/>
<circle cx="1198" cy="1400" r="8" class="c0"/>
<circle cx="1206" cy="1178" r="8" class="c0"/>
<circle cx="1006" cy="1020" r="8" class="c0"/>
<circle cx="1048" cy="1174" r="8" class="c0"/>
<circle cx="1282" cy="1358" r="8" class="c0"/>
<circle cx="1000" cy="1366" r="8" class="c0"/>
<circle cx="1150" cy="1120" r="8" class="c0"/>
<circle cx="934" cy="1198" r="8" class="c0"/>
<circle cx="1236" cy="1308" r="8" class="c0"/>
<circle cx="1156" cy="1286" r="8" class="c0"/>
<circle cx="1182" cy="1240" r="8" class="c0"/>
<circle cx="978" cy="1258" r="8" class="c0"/>
<circle cx="1050" cy="1356" r="8" class="c0"/>
<circle cx="1122" cy="1316" r="8" class="c0"/>
<circle cx="1062" cy="1110" r="8" class="c0"/>
<circle cx="1316" cy="1120" r="8" class="c0"/>
<circle cx="1352" cy="1404" r="8" class="c0"/>
<circle cx="1118" cy="1404" r="8" class="c0"/>
<circle cx="958" cy="1172" r="8" class="c0"/>
<circle cx="1184" cy="1192" r="8" class="c0"/>
<circle cx="1176" cy="1318" r="8" class="c0"/>
<circle cx="1290" cy="1216" r="8" class="c0"/>
<circle cx="1060" cy="1140" r="8" class="c0"/>
<circle cx="938" cy="1316" r="8" class="c0"/>
<circle cx="1276" cy="1388" r="8" class="c0"/>
<circle cx="1004" cy="1064" r="8" class="c0"/>
<circle cx="914" cy="1254" r="8" class="c0"/>
<circle cx="1280" cy="1104" r="8" class="c0"/>
<circle cx="1196" cy="1160" r="8" class="c0"/>
<circle cx="1110" cy="1180" r="8" class="c0"/>
<circle cx="1008" cy="1214" r="8" class="c0"/>
<circle cx="1120" cy="1146" r="8" class="c0"/>
<circle cx="832" cy="884" r="8" class="c0"/>
<circle cx="1304" cy="1110" r="8" class="c0"/>
<circle cx="1208" cy="1334" r="8" class="c0"/>
<circle cx="1290" cy="1312" r="8" class="c0"/>
<circle cx="1040" cy="1086" r="8" class="c0"/>
<circle cx="946" cy="1236" r="8" class="c0"/>
<circle cx="1006" cy="1290" r="8" class="c0"/>
<circle cx="926" cy="1368" r="8" class="c0"/>
<circle cx="976" cy="1184" r="8" class="c0"/>
<circle cx="1102" cy="1196" r="8" class="c0"/>
<circle cx="1082" cy="1074" r="8" class="c0"/>
<circle cx="1086" cy="1208" r="8" class="c0"/>
<circle cx="998" cy="1152" r="8" class="c0"/>
<circle cx="1166" cy="1136" r="8" class="c0"/>
<circle cx="982" cy="1314" r="8" class="c0"/>
<circle cx="1204" cy="1360" r="8" class="c0"/>
<circle cx="1038" cy="1040" r="8" class="c0"/>
<circle cx="1108" cy="1414" r="8" class="c0"/>
<circle cx="1006" cy="1262" r="8" class="c0"/>
<circle cx="1190" cy="1430" r="8" class="c0"/>
<circle cx="1028" cy="1302" r="8" class="c0"/>
<circle cx="1354" cy="1426" r="8" class="c0"/>
<circle cx="966" cy="1402" r="8" class="c0"/>
<circle cx="982" cy="1160" r="8" class="c0"/>
<circle cx="1080" cy="1370" r="8" class="c0"/>
<circle cx="1224" cy="1286" r="8" class="c0"/>
<circle cx="1298" cy="1186" r="8" class="c0"/>
<circle cx="1066" cy="1272" r="8" class="c0"/>
<circle cx="1276" cy="1080" r="8" class="c0"/>
<circle cx="1172" cy="1394" r="8" class="c0"/>
<circle cx="986" cy="996" r="8" class="c0"/>
<circle cx="1386" cy="1372" r="8" class="c0"/>
<circle cx="960" cy="1314" r="8" class="c0"/>
<circle cx="942" cy="972" r="8" class="c0"/>
<circle cx="1280" cy="1236" r="8" class="c0"/>
<circle cx="1304" cy="1138" r="8" class="c0"/>
<circle cx="1300" cy="1278" r="8" class="c0"/>
<circle cx="1194" cy="1230" r="8" class="c0"/>
<circle cx="1060" cy="1190" r="8" class="c0"/>
<circle cx="1166" cy="1328" r="8" class="c0"/>
<circle cx="1070" cy="1404" r="8" class="c0"/>
<circle cx="1088" cy="1308" r="8" class="c0"/>
<circle cx="1298" cy="1396" r="8" class="c0"/>
<circle cx="930" cy="1174" r="8" class="c0"/>
<circle cx="1180" cy="1358" r="8" class="c0"/>
<circle cx="1100" cy="1140" r="8" class="c0"/>
<circle cx="1264" cy="1326" r="8" class="c0"/>
<circle cx="996" cy="1400" r="8" class="c0"/>
<circle cx="1314" cy="1264" r="8" class="c0"/>
<circle cx="840" cy="904" r="8" class="c0"/>
<circle cx="908" cy="1352" r="8" class="c0"/>
<circle cx="1068" cy="1340" r="6" class="c0"/>
<circle cx="1118" cy="1424" r="6" class="c0"/>
<circle cx="1022" cy="1326" r="6" class="c0"/>
<circle cx="1300" cy="1328" r="6" class="c0"/>
<circle cx="1068" cy="1296" r="6" class="c0"/>
<circle cx="1080" cy="1226" r="6" class="c0"/>
<circle cx="912" cy="964" r="6" class="c0"/>
<circle cx="1262" cy="1286" r="6" class="c0"/>
<circle cx="978" cy="1332" r="6" class="c0"/>
<circle cx="994" cy="1302" r="6" class="c0"/>
<circle cx="1252" cy="1296" r="6" class="c0"/>
<circle cx="854" cy="886" r="6" class="c0"/>
<circle cx="974" cy="1212" r="6" class="c0"/>
<circle cx="1042" cy="1196" r="6" class="c0"/>
<circle cx="1312" cy="1386" r="6" class="c0"/>
<circle cx="1272" cy="1174" r="6" class="c0"/>
<circle cx="868" cy="920" r="6" class="c0"/>
<circle cx="1164" cy="1152" r="6" class="c0"/>
<circle cx="1322" cy="1338" r="6" class="c0"/>
<circle cx="1130" cy="1330" r="6" class="c0"/>
<circle cx="1104" cy="1110" r="6" class="c0"/>
<circle cx="1032" cy="1254" r="6" class="c0"/>
<circle cx="1294" cy="1096" r="6" class="c0"/>
<circle cx="1098" cy="1380" r="6" class="c0"/>
<circle cx="1308" cy="1312" r="6" class="c0"/>
<circle cx="934" cy="1252" r="6" class="c0"/>
<circle cx="1044" cy="1144" r="6" class="c0"/>
<circle cx="964" cy="1274" r="6" class="c0"/>
<circle cx="1072" cy="1248" r="6" class="c0"/>
<circle cx="1218" cy="1430" r="6" class="c0"/>
<circle cx="1318" cy="1372" r="6" class="c0"/>
<circle cx="952" cy="960" r="6" class="c0"/>
<circle cx="1308" cy="1154" r="6" class="c0"/>
<circle cx="1250" cy="1316" r="6" class="c0"/>
<circle cx="1038" cy="1068" r="6" class="c0"/>
<circle cx="1244" cy="1252" r="6" class="c0"/>
<circle cx="1334" cy="1288" r="6" class="c0"/>
<circle cx="1082" cy="1146" r="6" class="c0"/>
<circle cx="1170" cy="1376" r="6" class="c0"/>
<circle cx="1136" cy="1106" r="6" class="c0"/>
<circle cx="996" cy="1006" r="6" class="c0"/>
<circle cx="976" cy="984" r="6" class="c0"/>
<circle cx="884" cy="930" r="6" class="c0"/>
<circle cx="942" cy="1262" r="6" class="c0"/>
<circle cx="1052" cy="1098" r="6" class="c0"/>
<circle cx="912" cy="1286" r="6" class="c0"/>
<circle cx="1350" cy="1366" r="6" class="c0"/>
<circle cx="1052" cy="1222" r="6" class="c0"/>
<circle cx="1230" cy="1208" r="6" class="c0"/>
<circle cx="1362" cy="1394" r="6" class="c0"/>
<circle cx="1020" cy="1430" r="6" class="c0"/>
<circle cx="1008" cy="1162" r="6" class="c0"/>
<circle cx="1184" cy="1146" r="6" class="c0"/>
<circle cx="1032" cy="1188" r="6" class="c0"/>
<circle cx="902" cy="1236" r="6" class="c0"/>
<circle cx="910" cy="994" r="6" class="c0"/>
<circle cx="1080" cy="1108" r="6" class="c0"/>
<circle cx="1336" cy="1328" r="6" class="c0"/>
<circle cx="1074" cy="1172" r="6" class="c0"/>
<circle cx="1170" cy="1250" r="6" class="c0"/>
<circle cx="1260" cy="1182" r="6" class="c0"/>
<circle cx="916" cy="1300" r="6" class="c0"/>
<circle cx="1074" cy="1060" r="6" class="c0"/>
<circle cx="1016" cy="1364" r="6" class="c0"/>
<circle cx="1018" cy="1098" r="6" class="c0"/>
<circle cx="1204" cy="1242" r="6" class="c0"/>
<circle cx="1282" cy="1182" r="6" class="c0"/>
<circle cx="944" cy="1182" r="6" class="c0"/>
<circle cx="1304" cy="1064" r="6" class="c0"/>
<circle cx="1138" cy="1134" r="6" class="c0"/>
<circle cx="1208" cy="1388" r="6" class="c0"/>
<circle cx="1022" cy="1148" r="6" class="c0"/>
<circle cx="1130" cy="1260" r="6" class="c0"/>
<circle cx="1364" cy="1376" r="6" class="c0"/>
<circle cx="1130" cy="1414" r="6" class="c0"/>
<circle cx="1240" cy="1156" r="6" class="c0"/>
<circle cx="946" cy="1368" r="6" class="c0"/>
<circle cx="924" cy="1350" r="6" class="c0"/>
<circle cx="1324" cy="1430" r="6" class="c0"/>
<circle cx="1060" cy="1308" r="6" class="c0"/>
<circle cx="1312" cy="1072" r="6" class="c0"/>
<circle cx="1266" cy="1054" r="6" class="c0"/>
<circle cx="1102" cy="1394" r="6" class="c0"/>
<circle cx="1168" cy="1304" r="6" class="c0"/>
<circle cx="1238" cy="1182" r="6" class="c0"/>
<circle cx="896" cy="1172" r="6" class="c0"/>
<circle cx="1122" cy="1366" r="6" class="c0"/>
<circle cx="1274" cy="1372" r="6" class="c0"/>
<circle cx="1070" cy="1130" r="6" class="c0"/>
<circle cx="1234" cy="1230" r="6" class="c0"/>
<circle cx="950" cy="1326" r="6" class="c0"/>
<circle cx="1230" cy="1398" r="6" class="c0"/>
<circle cx="1062" cy="1418" r="6" class="c0"/>
<circle cx="1276" cy="1252" r="6" class="c0"/>
<circle cx="1262" cy="1070" r="6" class="c0"/>
<circle cx="1156" cy="1182" r="6" class="c0"/>
<circle cx="926" cy="938" r="6" class="c0"/>
<circle cx="1008" cy="1038" r="6" class="c0"/>
<circle cx="942" cy="1160" r="6" class="c0"/>
<circle cx="1248" cy="1432" r="6" class="c0"/>
<circle cx="1156" cy="1268" r="6" class="c0"/>
<circle cx="1232" cy="1148" r="6" class="c0"/>
<circle cx="1292" cy="1050" r="6" class="c0"/>
<circle cx="1246" cy="1048" r="6" class="c0"/>
<circle cx="1248" cy="1236" r="6" class="c0"/>
<circle cx="1242" cy="1118" r="6" class="c0"/>
<circle cx="1032" cy="1138" r="6" class="c0"/>
<circle cx="1276" cy="1432" r="6" class="c0"/>
<circle cx="950" cy="1304" r="6" class="c0"/>
<circle cx="1240" cy="1060" r="6" class="c0"/>
<circle cx="1160" cy="1218" r="6" class="c0"/>
<circle cx="1214" cy="1160" r="6" class="c0"/>
<circle cx="970" cy="1324" r="6" class="c0"/>
<circle cx="1254" cy="1262" r="6" class="c0"/>
<circle cx="904" cy="1276" r="6" class="c0"/>
<circle cx="1216" cy="1126" r="6" class="c0"/>
<circle cx="1406" cy="1394" r="6" class="c0"/>
<circle cx="928" cy="1154" r="6" class="c0"/>
<circle cx="1098" cy="1078" r="6" class="c0"/>
<circle cx="1300" cy="1204" r="6" class="c0"/>
<circle cx="994" cy="1074" r="6" class="c0"/>
<circle cx="1126" cy="1432" r="6" class="c0"/>
<circle cx="1112" cy="1236" r="6" class="c0"/>
<circle cx="996" cy="1030" r="6" class="c0"/>
<circle cx="918" cy="930" r="6" class="c0"/>
<circle cx="1226" cy="1266" r="6" class="c0"/>
<circle cx="1258" cy="1206" r="6" class="c0"/>
<circle cx="1300" cy="1226" r="6" class="c0"/>
<circle cx="1134" cy="1350" r="6" class="c0"/>
<circle cx="1270" cy="1406" r="6" class="c0"/>
<circle cx="1244" cy="1076" r="6" class="c0"/>
<circle cx="1288" cy="1140" r="6" class="c0"/>
<circle cx="1152" cy="1226" r="6" class="c0"/>
<circle cx="892" cy="1254" r="6" class="c0"/>
</svg>
