<?xml version="1.0" encoding="utf-8"?>
<svg xmlns="http://www.w3.org/2000/svg"
     xmlns:xlink="http://www.w3.org/1999/xlink" width="1920" height="1440" >

            <defs>
            <style type="text/css"><![CDATA[
circle {stroke: none;}
.c0 {fill: #000000;}
]]></style>
            </defs>
<rect x="0" y="0" width="1920" height="1440" fill="white"/>
<circle cx="22" cy="42" r="14" class="c0"/>
<circle cx="28" cy="98" r="12" class="c0"/>
<circle cx="1338" cy="1410" r="12" class="c0"/>
<circle cx="1244" cy="1356" r="12" class="c0"/>
<circle cx="1298" cy="1390" r="10" class="c0"/>
<circle cx="44" cy="80" r="10" class="c0"/>
<circle cx="1302" cy="1428" r="10" class="c0"/>
<circle cx="12" cy="74" r="10" class="c0"/>
<circle cx="54" cy="42" r="10" class="c0"/>
<circle cx="24" cy="10" r="10" class="c0"/>
<circle cx="1284" cy="1404" r="10" class="c0"/>
<circle cx="1260" cy="1368" r="8" class="c0"/>
<circle cx="1284" cy="1358" r="8" class="c0"/>
<circle cx="1330" cy="1388" r="8" class="c0"/>
<circle cx="1314" cy="1408" r="8" class="c0"/>
<circle cx="1360" cy="1414" r="8" class="c0"/>
<circle cx="1314" cy="1374" r="8" class="c0"/>
<circle cx="70" cy="24" r="8" class="c0"/>
<circle cx="1278" cy="1376" r="8" class="c0"/>
<circle cx="36" cy="58" r="8" class="c0"/>
<circle cx="1256" cy="1386" r="8" class="c0"/>
<circle cx="10" cy="144" r="8" class="c0"/>
<circle cx="44" cy="22" r="8" class="c0"/>
<circle cx="16" cy="118" r="8" class="c0"/>
<circle cx="1270" cy="1342" r="8" class="c0"/>
<circle cx="58" cy="10" r="8" class="c0"/>
<circle cx="1296" cy="1370" r="8" class="c0"/>
<circle cx="8" cy="24" r="8" class="c0"/>
<circle cx="1326" cy="1426" r="8" class="c0"/>
<circle cx="1376" cy="1430" r="8" class="c0"/>
<circle cx="1346" cy="1430" r="8" class="c0"/>
<circle cx="1230" cy="1332" r="8" class="c0"/>
<circle cx="1252" cy="1336" r="8" class="c0"/>
<circle cx="80" cy="8" r="8" class="c0"/>
<circle cx="56" cy="62" r="8" class="c0"/>
<circle cx="1266" cy="1396" r="8" class="c0"/>
<circle cx="6" cy="104" r="6" class="c0"/>
<circle cx="42" cy="6" r="6" class="c0"/>
<circle cx="6" cy="160" r="6" class="c0"/>
<circle cx="20" cy="134" r="6" class="c0"/>
<circle cx="8" cy="56" r="6" class="c0"/>
<circle cx="6" cy="128" r="6" class="c0"/>
<circle cx="6" cy="6" r="6" class="c0"/>
</svg>
