<?xml version="1.0" encoding="utf-8"?>
<svg xmlns="http://www.w3.org/2000/svg"
     xmlns:xlink="http://www.w3.org/1999/xlink" width="1920" height="1440" >

            <defs>
            <style type="text/css"><![CDATA[
circle {stroke: none;}
.c0 {fill: #000000;}
]]></style>
            </defs>
<rect x="0" y="0" width="1920" height="1440" fill="white"/>
<circle cx="230" cy="100" r="12" class="c0"/>
<circle cx="254" cy="350" r="12" class="c0"/>
<circle cx="266" cy="198" r="12" class="c0"/>
<circle cx="256" cy="28" r="12" class="c0"/>
<circle cx="224" cy="260" r="12" class="c0"/>
<circle cx="252" cy="126" r="12" class="c0"/>
<circle cx="232" cy="46" r="10" class="c0"/>
<circle cx="240" cy="170" r="10" class="c0"/>
<circle cx="270" cy="68" r="10" class="c0"/>
<circle cx="232" cy="304" r="10" class="c0"/>
<circle cx="228" cy="146" r="10" class="c0"/>
<circle cx="238" cy="14" r="10" class="c0"/>
<circle cx="230" cy="346" r="10" class="c0"/>
<circle cx="260" cy="286" r="10" class="c0"/>
<circle cx="274" cy="98" r="10" class="c0"/>
<circle cx="268" cy="252" r="10" class="c0"/>
<circle cx="212" cy="224" r="10" class="c0"/>
<circle cx="236" cy="282" r="10" class="c0"/>
<circle cx="268" cy="224" r="10" class="c0"/>
<circle cx="252" cy="326" r="10" class="c0"/>
<circle cx="212" cy="84" r="10" class="c0"/>
<circle cx="236" cy="390" r="10" class="c0"/>
<circle cx="260" cy="174" r="8" class="c0"/>
<circle cx="234" cy="190" r="8" class="c0"/>
<circle cx="250" cy="378" r="8" class="c0"/>
<circle cx="276" cy="48" r="8" class="c0"/>
<circle cx="254" cy="414" r="8" class="c0"/>
<circle cx="250" cy="210" r="8" class="c0"/>
<circle cx="270" cy="14" r="8" class="c0"/>
<circle cx="226" cy="238" r="8" class="c0"/>
<circle cx="250" cy="58" r="8" class="c0"/>
<circle cx="268" cy="140" r="8" class="c0"/>
<circle cx="246" cy="436" r="8" class="c0"/>
<circle cx="272" cy="302" r="8" class="c0"/>
<circle cx="216" cy="126" r="8" class="c0"/>
<circle cx="252" cy="92" r="8" class="c0"/>
<circle cx="232" cy="216" r="8" class="c0"/>
<circle cx="200" cy="114" r="8" class="c0"/>
<circle cx="238" cy="74" r="8" class="c0"/>
<circle cx="250" cy="262" r="8" class="c0"/>
<circle cx="218" cy="24" r="8" class="c0"/>
<circle cx="244" cy="232" r="8" class="c0"/>
<circle cx="230" cy="326" r="6" class="c0"/>
<circle cx="238" cy="412" r="6" class="c0"/>
<circle cx="268" cy="338" r="6" class="c0"/>
<circle cx="270" cy="160" r="6" class="c0"/>
<circle cx="222" cy="206" r="6" class="c0"/>
<circle cx="220" cy="164" r="6" class="c0"/>
<circle cx="210" cy="280" r="6" class="c0"/>
<circle cx="280" cy="30" r="6" class="c0"/>
<circle cx="266" cy="114" r="6" class="c0"/>
<circle cx="210" cy="44" r="6" class="c0"/>
<circle cx="250" cy="460" r="6" class="c0"/>
<circle cx="256" cy="6" r="6" class="c0"/>
<circle cx="204" cy="178" r="6" class="c0"/>
<circle cx="252" cy="302" r="6" class="c0"/>
<circle cx="278" cy="130" r="6" class="c0"/>
<circle cx="224" cy="64" r="6" class="c0"/>
<circle cx="196" cy="164" r="6" class="c0"/>
<circle cx="212" cy="306" r="6" class="c0"/>
<circle cx="240" cy="250" r="6" class="c0"/>
<circle cx="272" cy="272" r="6" class="c0"/>
<circle cx="202" cy="242" r="6" class="c0"/>
<circle cx="192" cy="364" r="6" class="c0"/>
<circle cx="276" cy="178" r="6" class="c0"/>
<circle cx="182" cy="384" r="6" class="c0"/>
<circle cx="256" cy="158" r="6" class="c0"/>
<circle cx="240" cy="368" r="6" class="c0"/>
<circle cx="210" cy="200" r="6" class="c0"/>
<circle cx="224" cy="180" r="6" class="c0"/>
<circle cx="186" cy="320" r="6" class="c0"/>
</svg>
