<?xml version="1.0" encoding="utf-8"?>
<svg xmlns="http://www.w3.org/2000/svg"
     xmlns:xlink="http://www.w3.org/1999/xlink" width="1920" height="1440" >

            <defs>
            <style type="text/css"><![CDATA[
circle {stroke: none;}
.c0 {fill: #000000;}
]]></style>
            </defs>
<rect x="0" y="0" width="1920" height="1440" fill="white"/>
<circle cx="458" cy="600" r="14" class="c0"/>
<circle cx="814" cy="632" r="14" class="c0"/>
<circle cx="700" cy="598" r="12" class="c0"/>
<circle cx="836" cy="610" r="12" class="c0"/>
<circle cx="884" cy="622" r="12" class="c0"/>
<circle cx="786" cy="606" r="12" class="c0"/>
<circle cx="534" cy="614" r="12" class="c0"/>
<circle cx="754" cy="626" r="12" class="c0"/>
<circle cx="674" cy="592" r="12" class="c0"/>
<circle cx="1078" cy="636" r="12" class="c0"/>
<circle cx="754" cy="590" r="12" class="c0"/>
<circle cx="724" cy="626" r="12" class="c0"/>
<circle cx="588" cy="620" r="12" class="c0"/>
<circle cx="914" cy="640" r="12" class="c0"/>
<circle cx="428" cy="606" r="12" class="c0"/>
<circle cx="1116" cy="648" r="10" class="c0"/>
<circle cx="972" cy="636" r="10" class="c0"/>
<circle cx="670" cy="616" r="10" class="c0"/>
<circle cx="940" cy="620" r="10" class="c0"/>
<circle cx="638" cy="610" r="10" class="c0"/>
<circle cx="996" cy="652" r="10" class="c0"/>
<circle cx="866" cy="610" r="10" class="c0"/>
<circle cx="782" cy="636" r="10" class="c0"/>
<circle cx="1034" cy="624" r="10" class="c0"/>
<circle cx="490" cy="600" r="10" class="c0"/>
<circle cx="996" cy="616" r="10" class="c0"/>
<circle cx="1030" cy="648" r="10" class="c0"/>
<circle cx="848" cy="634" r="10" class="c0"/>
<circle cx="478" cy="616" r="10" class="c0"/>
<circle cx="614" cy="590" r="10" class="c0"/>
<circle cx="552" cy="598" r="10" class="c0"/>
<circle cx="730" cy="600" r="10" class="c0"/>
<circle cx="514" cy="598" r="10" class="c0"/>
<circle cx="902" cy="606" r="10" class="c0"/>
<circle cx="872" cy="640" r="10" class="c0"/>
<circle cx="970" cy="614" r="10" class="c0"/>
<circle cx="552" cy="568" r="10" class="c0"/>
<circle cx="1050" cy="638" r="10" class="c0"/>
<circle cx="700" cy="624" r="10" class="c0"/>
<circle cx="1086" cy="660" r="10" class="c0"/>
<circle cx="1176" cy="648" r="10" class="c0"/>
<circle cx="812" cy="600" r="10" class="c0"/>
<circle cx="592" cy="588" r="8" class="c0"/>
<circle cx="504" cy="618" r="8" class="c0"/>
<circle cx="946" cy="646" r="8" class="c0"/>
<circle cx="1066" cy="654" r="8" class="c0"/>
<circle cx="1100" cy="634" r="8" class="c0"/>
<circle cx="610" cy="622" r="8" class="c0"/>
<circle cx="1018" cy="660" r="8" class="c0"/>
<circle cx="896" cy="650" r="8" class="c0"/>
<circle cx="1204" cy="656" r="8" class="c0"/>
<circle cx="652" cy="586" r="8" class="c0"/>
<circle cx="566" cy="582" r="8" class="c0"/>
<circle cx="648" cy="632" r="8" class="c0"/>
<circle cx="574" cy="604" r="8" class="c0"/>
<circle cx="484" cy="556" r="8" class="c0"/>
<circle cx="1156" cy="652" r="8" class="c0"/>
<circle cx="468" cy="570" r="8" class="c0"/>
<circle cx="520" cy="572" r="8" class="c0"/>
<circle cx="402" cy="602" r="8" class="c0"/>
<circle cx="380" cy="600" r="8" class="c0"/>
<circle cx="586" cy="568" r="8" class="c0"/>
<circle cx="570" cy="552" r="8" class="c0"/>
<circle cx="968" cy="658" r="8" class="c0"/>
<circle cx="602" cy="602" r="8" class="c0"/>
<circle cx="922" cy="610" r="8" class="c0"/>
<circle cx="452" cy="544" r="8" class="c0"/>
<circle cx="634" cy="582" r="8" class="c0"/>
<circle cx="348" cy="598" r="8" class="c0"/>
<circle cx="882" cy="596" r="8" class="c0"/>
<circle cx="1012" cy="636" r="8" class="c0"/>
<circle cx="448" cy="574" r="8" class="c0"/>
<circle cx="566" cy="624" r="8" class="c0"/>
<circle cx="686" cy="636" r="8" class="c0"/>
<circle cx="424" cy="558" r="8" class="c0"/>
<circle cx="1042" cy="660" r="8" class="c0"/>
<circle cx="628" cy="628" r="8" class="c0"/>
<circle cx="602" cy="576" r="8" class="c0"/>
<circle cx="424" cy="584" r="8" class="c0"/>
<circle cx="404" cy="578" r="8" class="c0"/>
<circle cx="930" cy="654" r="8" class="c0"/>
<circle cx="852" cy="598" r="8" class="c0"/>
<circle cx="830" cy="646" r="8" class="c0"/>
<circle cx="538" cy="584" r="8" class="c0"/>
<circle cx="796" cy="588" r="8" class="c0"/>
<circle cx="740" cy="640" r="8" class="c0"/>
<circle cx="364" cy="588" r="8" class="c0"/>
<circle cx="1136" cy="650" r="8" class="c0"/>
<circle cx="504" cy="562" r="8" class="c0"/>
<circle cx="718" cy="586" r="8" class="c0"/>
<circle cx="488" cy="580" r="8" class="c0"/>
<circle cx="1062" cy="624" r="8" class="c0"/>
<circle cx="824" cy="586" r="8" class="c0"/>
<circle cx="764" cy="644" r="8" class="c0"/>
<circle cx="776" cy="588" r="8" class="c0"/>
<circle cx="686" cy="576" r="8" class="c0"/>
<circle cx="708" cy="574" r="8" class="c0"/>
<circle cx="658" cy="604" r="8" class="c0"/>
<circle cx="624" cy="572" r="6" class="c0"/>
<circle cx="846" cy="652" r="6" class="c0"/>
<circle cx="958" cy="626" r="6" class="c0"/>
<circle cx="912" cy="620" r="6" class="c0"/>
<circle cx="990" cy="634" r="6" class="c0"/>
<circle cx="668" cy="634" r="6" class="c0"/>
<circle cx="380" cy="548" r="6" class="c0"/>
<circle cx="766" cy="610" r="6" class="c0"/>
<circle cx="1120" cy="630" r="6" class="c0"/>
<circle cx="1014" cy="620" r="6" class="c0"/>
<circle cx="664" cy="574" r="6" class="c0"/>
<circle cx="950" cy="606" r="6" class="c0"/>
<circle cx="380" cy="572" r="6" class="c0"/>
<circle cx="744" cy="610" r="6" class="c0"/>
<circle cx="1104" cy="662" r="6" class="c0"/>
<circle cx="712" cy="642" r="6" class="c0"/>
<circle cx="734" cy="582" r="6" class="c0"/>
<circle cx="796" cy="646" r="6" class="c0"/>
<circle cx="800" cy="618" r="6" class="c0"/>
<circle cx="620" cy="612" r="6" class="c0"/>
<circle cx="1188" cy="660" r="6" class="c0"/>
<circle cx="444" cy="616" r="6" class="c0"/>
<circle cx="714" cy="610" r="6" class="c0"/>
<circle cx="688" cy="612" r="6" class="c0"/>
<circle cx="1146" cy="640" r="6" class="c0"/>
<circle cx="550" cy="626" r="6" class="c0"/>
<circle cx="394" cy="542" r="6" class="c0"/>
<circle cx="774" cy="620" r="6" class="c0"/>
<circle cx="504" cy="584" r="6" class="c0"/>
</svg>
