<?xml version="1.0" encoding="utf-8"?>
<svg xmlns="http://www.w3.org/2000/svg"
     xmlns:xlink="http://www.w3.org/1999/xlink" width="1920" height="1440" >

            <defs>
            <style type="text/css"><![CDATA[
circle {stroke: none;}
.c0 {fill: #000000;}
]]></style>
            </defs>
<rect x="0" y="0" width="1920" height="1440" fill="white"/>
<circle cx="916" cy="744" r="12" class="c0"/>
<circle cx="890" cy="724" r="12" class="c0"/>
<circle cx="724" cy="802" r="12" class="c0"/>
<circle cx="1004" cy="704" r="12" class="c0"/>
<circle cx="948" cy="708" r="12" class="c0"/>
<circle cx="1080" cy="668" r="12" class="c0"/>
<circle cx="794" cy="756" r="12" class="c0"/>
<circle cx="1006" cy="674" r="12" class="c0"/>
<circle cx="702" cy="820" r="12" class="c0"/>
<circle cx="1042" cy="672" r="10" class="c0"/>
<circle cx="650" cy="820" r="10" class="c0"/>
<circle cx="804" cy="732" r="10" class="c0"/>
<circle cx="866" cy="758" r="10" class="c0"/>
<circle cx="770" cy="792" r="10" class="c0"/>
<circle cx="1120" cy="646" r="10" class="c0"/>
<circle cx="634" cy="846" r="10" class="c0"/>
<circle cx="1266" cy="594" r="10" class="c0"/>
<circle cx="828" cy="778" r="10" class="c0"/>
<circle cx="1062" cy="690" r="10" class="c0"/>
<circle cx="1142" cy="658" r="10" class="c0"/>
<circle cx="1178" cy="630" r="10" class="c0"/>
<circle cx="1118" cy="668" r="10" class="c0"/>
<circle cx="962" cy="734" r="10" class="c0"/>
<circle cx="504" cy="886" r="10" class="c0"/>
<circle cx="698" cy="782" r="10" class="c0"/>
<circle cx="574" cy="868" r="10" class="c0"/>
<circle cx="1078" cy="642" r="8" class="c0"/>
<circle cx="724" cy="770" r="8" class="c0"/>
<circle cx="868" cy="726" r="8" class="c0"/>
<circle cx="604" cy="852" r="8" class="c0"/>
<circle cx="822" cy="746" r="8" class="c0"/>
<circle cx="660" cy="798" r="8" class="c0"/>
<circle cx="1164" cy="646" r="8" class="c0"/>
<circle cx="836" cy="724" r="8" class="c0"/>
<circle cx="916" cy="710" r="8" class="c0"/>
<circle cx="1100" cy="638" r="8" class="c0"/>
<circle cx="744" cy="748" r="8" class="c0"/>
<circle cx="526" cy="882" r="8" class="c0"/>
<circle cx="932" cy="692" r="8" class="c0"/>
<circle cx="956" cy="688" r="8" class="c0"/>
<circle cx="878" cy="708" r="8" class="c0"/>
<circle cx="1202" cy="630" r="8" class="c0"/>
<circle cx="758" cy="804" r="8" class="c0"/>
<circle cx="1160" cy="618" r="8" class="c0"/>
<circle cx="652" cy="774" r="8" class="c0"/>
<circle cx="848" cy="772" r="8" class="c0"/>
<circle cx="688" cy="798" r="8" class="c0"/>
<circle cx="810" cy="790" r="8" class="c0"/>
<circle cx="846" cy="744" r="8" class="c0"/>
<circle cx="976" cy="680" r="8" class="c0"/>
<circle cx="1066" cy="652" r="8" class="c0"/>
<circle cx="982" cy="714" r="8" class="c0"/>
<circle cx="1232" cy="612" r="8" class="c0"/>
<circle cx="902" cy="698" r="8" class="c0"/>
<circle cx="1088" cy="688" r="8" class="c0"/>
<circle cx="970" cy="698" r="8" class="c0"/>
<circle cx="926" cy="724" r="8" class="c0"/>
<circle cx="656" cy="840" r="8" class="c0"/>
<circle cx="1250" cy="606" r="8" class="c0"/>
<circle cx="1026" cy="692" r="8" class="c0"/>
<circle cx="746" cy="766" r="8" class="c0"/>
<circle cx="1150" cy="634" r="8" class="c0"/>
<circle cx="792" cy="796" r="8" class="c0"/>
<circle cx="546" cy="860" r="8" class="c0"/>
<circle cx="990" cy="662" r="8" class="c0"/>
<circle cx="614" cy="832" r="8" class="c0"/>
<circle cx="594" cy="862" r="8" class="c0"/>
<circle cx="1042" cy="702" r="8" class="c0"/>
<circle cx="784" cy="780" r="8" class="c0"/>
<circle cx="770" cy="770" r="8" class="c0"/>
<circle cx="1188" cy="646" r="8" class="c0"/>
<circle cx="746" cy="794" r="8" class="c0"/>
<circle cx="554" cy="878" r="8" class="c0"/>
<circle cx="1196" cy="612" r="8" class="c0"/>
<circle cx="806" cy="772" r="8" class="c0"/>
<circle cx="678" cy="820" r="8" class="c0"/>
<circle cx="832" cy="756" r="8" class="c0"/>
<circle cx="890" cy="762" r="8" class="c0"/>
<circle cx="1020" cy="658" r="8" class="c0"/>
<circle cx="1046" cy="650" r="8" class="c0"/>
<circle cx="762" cy="754" r="8" class="c0"/>
<circle cx="536" cy="870" r="8" class="c0"/>
<circle cx="1106" cy="682" r="6" class="c0"/>
<circle cx="992" cy="728" r="6" class="c0"/>
<circle cx="576" cy="850" r="6" class="c0"/>
<circle cx="878" cy="738" r="6" class="c0"/>
<circle cx="986" cy="690" r="6" class="c0"/>
<circle cx="1290" cy="596" r="6" class="c0"/>
<circle cx="734" cy="782" r="6" class="c0"/>
<circle cx="622" cy="858" r="6" class="c0"/>
<circle cx="688" cy="836" r="6" class="c0"/>
<circle cx="1024" cy="714" r="6" class="c0"/>
<circle cx="1214" cy="614" r="6" class="c0"/>
<circle cx="722" cy="824" r="6" class="c0"/>
<circle cx="1140" cy="624" r="6" class="c0"/>
<circle cx="894" cy="746" r="6" class="c0"/>
<circle cx="516" cy="826" r="6" class="c0"/>
<circle cx="740" cy="812" r="6" class="c0"/>
<circle cx="858" cy="712" r="6" class="c0"/>
<circle cx="544" cy="808" r="6" class="c0"/>
<circle cx="638" cy="806" r="6" class="c0"/>
<circle cx="488" cy="896" r="6" class="c0"/>
<circle cx="1098" cy="654" r="6" class="c0"/>
<circle cx="672" cy="842" r="6" class="c0"/>
<circle cx="706" cy="762" r="6" class="c0"/>
<circle cx="678" cy="786" r="6" class="c0"/>
<circle cx="1178" cy="610" r="6" class="c0"/>
<circle cx="940" cy="740" r="6" class="c0"/>
<circle cx="756" cy="782" r="6" class="c0"/>
<circle cx="1220" cy="626" r="6" class="c0"/>
<circle cx="1282" cy="604" r="6" class="c0"/>
<circle cx="602" cy="814" r="6" class="c0"/>
<circle cx="1126" cy="626" r="6" class="c0"/>
<circle cx="966" cy="716" r="6" class="c0"/>
<circle cx="550" cy="824" r="6" class="c0"/>
<circle cx="816" cy="762" r="6" class="c0"/>
<circle cx="774" cy="738" r="6" class="c0"/>
<circle cx="962" cy="672" r="6" class="c0"/>
<circle cx="572" cy="828" r="6" class="c0"/>
<circle cx="632" cy="826" r="6" class="c0"/>
<circle cx="704" cy="800" r="6" class="c0"/>
<circle cx="1100" cy="670" r="6" class="c0"/>
<circle cx="558" cy="802" r="6" class="c0"/>
<circle cx="586" cy="842" r="6" class="c0"/>
<circle cx="1304" cy="594" r="6" class="c0"/>
<circle cx="1110" cy="628" r="6" class="c0"/>
<circle cx="946" cy="676" r="6" class="c0"/>
<circle cx="526" cy="836" r="6" class="c0"/>
<circle cx="598" cy="834" r="6" class="c0"/>
<circle cx="1160" cy="662" r="6" class="c0"/>
<circle cx="516" cy="860" r="6" class="c0"/>
<circle cx="916" cy="690" r="6" class="c0"/>
<circle cx="1060" cy="670" r="6" class="c0"/>
<circle cx="716" cy="784" r="6" class="c0"/>
<circle cx="1134" cy="636" r="6" class="c0"/>
<circle cx="626" cy="796" r="6" class="c0"/>
<circle cx="666" cy="830" r="6" class="c0"/>
<circle cx="1176" cy="656" r="6" class="c0"/>
<circle cx="532" cy="820" r="6" class="c0"/>
</svg>
