<?xml version="1.0" encoding="utf-8"?>
<svg xmlns="http://www.w3.org/2000/svg"
     xmlns:xlink="http://www.w3.org/1999/xlink" width="1920" height="1440" >

            <defs>
            <style type="text/css"><![CDATA[
circle {stroke: none;}
.c0 {fill: #000000;}
]]></style>
            </defs>
<rect x="0" y="0" width="1920" height="1440" fill="white"/>
<circle cx="1002" cy="886" r="14" class="c0"/>
<circle cx="1096" cy="762" r="12" class="c0"/>
<circle cx="1030" cy="846" r="12" class="c0"/>
<circle cx="1154" cy="690" r="12" class="c0"/>
<circle cx="864" cy="1110" r="12" class="c0"/>
<circle cx="1262" cy="520" r="12" class="c0"/>
<circle cx="852" cy="1082" r="12" class="c0"/>
<circle cx="1080" cy="786" r="12" class="c0"/>
<circle cx="1186" cy="596" r="12" class="c0"/>
<circle cx="1046" cy="806" r="12" class="c0"/>
<circle cx="978" cy="942" r="12" class="c0"/>
<circle cx="1118" cy="698" r="12" class="c0"/>
<circle cx="1130" cy="736" r="10" class="c0"/>
<circle cx="888" cy="1054" r="10" class="c0"/>
<circle cx="918" cy="960" r="10" class="c0"/>
<circle cx="1170" cy="630" r="10" class="c0"/>
<circle cx="942" cy="964" r="10" class="c0"/>
<circle cx="840" cy="1130" r="10" class="c0"/>
<circle cx="1218" cy="574" r="10" class="c0"/>
<circle cx="868" cy="1034" r="10" class="c0"/>
<circle cx="918" cy="1040" r="10" class="c0"/>
<circle cx="790" cy="1160" r="10" class="c0"/>
<circle cx="1150" cy="718" r="10" class="c0"/>
<circle cx="914" cy="1012" r="10" class="c0"/>
<circle cx="774" cy="1226" r="10" class="c0"/>
<circle cx="944" cy="928" r="10" class="c0"/>
<circle cx="1092" cy="710" r="10" class="c0"/>
<circle cx="1160" cy="648" r="10" class="c0"/>
<circle cx="814" cy="1154" r="10" class="c0"/>
<circle cx="1120" cy="760" r="10" class="c0"/>
<circle cx="1282" cy="494" r="10" class="c0"/>
<circle cx="788" cy="1212" r="10" class="c0"/>
<circle cx="1016" cy="832" r="10" class="c0"/>
<circle cx="814" cy="1182" r="10" class="c0"/>
<circle cx="1194" cy="628" r="10" class="c0"/>
<circle cx="912" cy="988" r="10" class="c0"/>
<circle cx="1076" cy="810" r="10" class="c0"/>
<circle cx="1046" cy="860" r="10" class="c0"/>
<circle cx="1148" cy="660" r="10" class="c0"/>
<circle cx="976" cy="910" r="10" class="c0"/>
<circle cx="1110" cy="778" r="10" class="c0"/>
<circle cx="948" cy="994" r="10" class="c0"/>
<circle cx="1244" cy="568" r="10" class="c0"/>
<circle cx="1130" cy="670" r="10" class="c0"/>
<circle cx="842" cy="1102" r="10" class="c0"/>
<circle cx="800" cy="1108" r="10" class="c0"/>
<circle cx="1060" cy="830" r="10" class="c0"/>
<circle cx="1178" cy="672" r="8" class="c0"/>
<circle cx="1052" cy="780" r="8" class="c0"/>
<circle cx="934" cy="1010" r="8" class="c0"/>
<circle cx="884" cy="1074" r="8" class="c0"/>
<circle cx="1248" cy="540" r="8" class="c0"/>
<circle cx="1228" cy="602" r="8" class="c0"/>
<circle cx="902" cy="1028" r="8" class="c0"/>
<circle cx="984" cy="858" r="8" class="c0"/>
<circle cx="1108" cy="746" r="8" class="c0"/>
<circle cx="1022" cy="898" r="8" class="c0"/>
<circle cx="1236" cy="586" r="8" class="c0"/>
<circle cx="964" cy="980" r="8" class="c0"/>
<circle cx="1002" cy="920" r="8" class="c0"/>
<circle cx="1114" cy="720" r="8" class="c0"/>
<circle cx="1012" cy="858" r="8" class="c0"/>
<circle cx="1210" cy="604" r="8" class="c0"/>
<circle cx="1190" cy="650" r="8" class="c0"/>
<circle cx="952" cy="904" r="8" class="c0"/>
<circle cx="1074" cy="754" r="8" class="c0"/>
<circle cx="864" cy="1060" r="8" class="c0"/>
<circle cx="1090" cy="730" r="8" class="c0"/>
<circle cx="1228" cy="548" r="8" class="c0"/>
<circle cx="1064" cy="766" r="8" class="c0"/>
<circle cx="884" cy="1022" r="8" class="c0"/>
<circle cx="1098" cy="800" r="8" class="c0"/>
<circle cx="876" cy="1094" r="8" class="c0"/>
<circle cx="1030" cy="876" r="8" class="c0"/>
<circle cx="960" cy="886" r="8" class="c0"/>
<circle cx="928" cy="942" r="8" class="c0"/>
<circle cx="1300" cy="484" r="8" class="c0"/>
<circle cx="824" cy="1114" r="8" class="c0"/>
<circle cx="1002" cy="846" r="8" class="c0"/>
<circle cx="1218" cy="624" r="8" class="c0"/>
<circle cx="904" cy="1064" r="8" class="c0"/>
<circle cx="952" cy="948" r="8" class="c0"/>
<circle cx="816" cy="1134" r="8" class="c0"/>
<circle cx="964" cy="958" r="8" class="c0"/>
<circle cx="764" cy="1162" r="8" class="c0"/>
<circle cx="894" cy="1010" r="8" class="c0"/>
<circle cx="1022" cy="810" r="8" class="c0"/>
<circle cx="812" cy="1096" r="8" class="c0"/>
<circle cx="882" cy="1000" r="8" class="c0"/>
<circle cx="802" cy="1196" r="8" class="c0"/>
<circle cx="896" cy="978" r="8" class="c0"/>
<circle cx="1288" cy="518" r="8" class="c0"/>
<circle cx="1040" cy="828" r="8" class="c0"/>
<circle cx="1206" cy="640" r="8" class="c0"/>
<circle cx="838" cy="1154" r="8" class="c0"/>
<circle cx="778" cy="1144" r="8" class="c0"/>
<circle cx="930" cy="980" r="8" class="c0"/>
<circle cx="1012" cy="910" r="8" class="c0"/>
<circle cx="978" cy="878" r="8" class="c0"/>
<circle cx="966" cy="926" r="8" class="c0"/>
<circle cx="1196" cy="578" r="8" class="c0"/>
<circle cx="774" cy="1202" r="6" class="c0"/>
<circle cx="1172" cy="612" r="6" class="c0"/>
<circle cx="826" cy="1084" r="6" class="c0"/>
<circle cx="1208" cy="588" r="6" class="c0"/>
<circle cx="792" cy="1186" r="6" class="c0"/>
<circle cx="1258" cy="554" r="6" class="c0"/>
<circle cx="826" cy="1168" r="6" class="c0"/>
<circle cx="992" cy="930" r="6" class="c0"/>
<circle cx="1176" cy="690" r="6" class="c0"/>
<circle cx="1064" cy="798" r="6" class="c0"/>
<circle cx="1072" cy="738" r="6" class="c0"/>
<circle cx="764" cy="1192" r="6" class="c0"/>
<circle cx="980" cy="962" r="6" class="c0"/>
<circle cx="1168" cy="702" r="6" class="c0"/>
<circle cx="1064" cy="848" r="6" class="c0"/>
<circle cx="762" cy="1238" r="6" class="c0"/>
<circle cx="1266" cy="540" r="6" class="c0"/>
<circle cx="1132" cy="716" r="6" class="c0"/>
<circle cx="1036" cy="788" r="6" class="c0"/>
<circle cx="926" cy="1024" r="6" class="c0"/>
<circle cx="994" cy="906" r="6" class="c0"/>
<circle cx="848" cy="1058" r="6" class="c0"/>
<circle cx="1138" cy="700" r="6" class="c0"/>
<circle cx="856" cy="1014" r="6" class="c0"/>
<circle cx="1078" cy="832" r="6" class="c0"/>
<circle cx="1150" cy="634" r="6" class="c0"/>
<circle cx="1114" cy="678" r="6" class="c0"/>
<circle cx="1162" cy="670" r="6" class="c0"/>
<circle cx="754" cy="1182" r="6" class="c0"/>
<circle cx="1242" cy="524" r="6" class="c0"/>
<circle cx="828" cy="1144" r="6" class="c0"/>
<circle cx="854" cy="1046" r="6" class="c0"/>
<circle cx="1060" cy="746" r="6" class="c0"/>
</svg>
