<?xml version="1.0" encoding="utf-8"?>
<svg xmlns="http://www.w3.org/2000/svg"
     xmlns:xlink="http://www.w3.org/1999/xlink" width="1920" height="1440" >

            <defs>
            <style type="text/css"><![CDATA[
circle {stroke: none;}
.c0 {fill: #000000;}
]]></style>
            </defs>
<rect x="0" y="0" width="1920" height="1440" fill="white"/>
<circle cx="1162" cy="462" r="12" class="c0"/>
<circle cx="1116" cy="718" r="12" class="c0"/>
<circle cx="1142" cy="630" r="12" class="c0"/>
<circle cx="1142" cy="890" r="12" class="c0"/>
<circle cx="1102" cy="1032" r="12" class="c0"/>
<circle cx="1092" cy="1170" r="12" class="c0"/>
<circle cx="1094" cy="912" r="12" class="c0"/>
<circle cx="1172" cy="604" r="12" class="c0"/>
<circle cx="1140" cy="526" r="12" class="c0"/>
<circle cx="1096" cy="854" r="10" class="c0"/>
<circle cx="1100" cy="822" r="10" class="c0"/>
<circle cx="1096" cy="958" r="10" class="c0"/>
<circle cx="1124" cy="690" r="10" class="c0"/>
<circle cx="1118" cy="1002" r="10" class="c0"/>
<circle cx="1122" cy="798" r="10" class="c0"/>
<circle cx="1156" cy="684" r="10" class="c0"/>
<circle cx="1086" cy="1234" r="10" class="c0"/>
<circle cx="1092" cy="888" r="10" class="c0"/>
<circle cx="1088" cy="1256" r="10" class="c0"/>
<circle cx="1130" cy="748" r="10" class="c0"/>
<circle cx="1130" cy="564" r="10" class="c0"/>
<circle cx="1114" cy="1068" r="10" class="c0"/>
<circle cx="1078" cy="1328" r="10" class="c0"/>
<circle cx="1128" cy="824" r="10" class="c0"/>
<circle cx="1118" cy="934" r="10" class="c0"/>
<circle cx="1156" cy="510" r="10" class="c0"/>
<circle cx="1080" cy="1206" r="10" class="c0"/>
<circle cx="1102" cy="1216" r="10" class="c0"/>
<circle cx="1162" cy="656" r="10" class="c0"/>
<circle cx="1120" cy="1136" r="10" class="c0"/>
<circle cx="1116" cy="766" r="10" class="c0"/>
<circle cx="1098" cy="1300" r="10" class="c0"/>
<circle cx="1096" cy="1362" r="8" class="c0"/>
<circle cx="1122" cy="914" r="8" class="c0"/>
<circle cx="1142" cy="604" r="8" class="c0"/>
<circle cx="1136" cy="490" r="8" class="c0"/>
<circle cx="1126" cy="616" r="8" class="c0"/>
<circle cx="1154" cy="744" r="8" class="c0"/>
<circle cx="1134" cy="784" r="8" class="c0"/>
<circle cx="1136" cy="468" r="8" class="c0"/>
<circle cx="1116" cy="974" r="8" class="c0"/>
<circle cx="1160" cy="534" r="8" class="c0"/>
<circle cx="1086" cy="1390" r="8" class="c0"/>
<circle cx="1126" cy="1022" r="8" class="c0"/>
<circle cx="1128" cy="950" r="8" class="c0"/>
<circle cx="1114" cy="890" r="8" class="c0"/>
<circle cx="1078" cy="1134" r="8" class="c0"/>
<circle cx="1116" cy="662" r="8" class="c0"/>
<circle cx="1104" cy="988" r="8" class="c0"/>
<circle cx="1138" cy="978" r="8" class="c0"/>
<circle cx="1098" cy="1196" r="8" class="c0"/>
<circle cx="1082" cy="1040" r="8" class="c0"/>
<circle cx="1118" cy="842" r="8" class="c0"/>
<circle cx="1122" cy="1046" r="8" class="c0"/>
<circle cx="1154" cy="578" r="8" class="c0"/>
<circle cx="1140" cy="926" r="8" class="c0"/>
<circle cx="1100" cy="1334" r="8" class="c0"/>
<circle cx="1142" cy="702" r="8" class="c0"/>
<circle cx="1160" cy="434" r="8" class="c0"/>
<circle cx="1112" cy="1104" r="8" class="c0"/>
<circle cx="1114" cy="1156" r="8" class="c0"/>
<circle cx="1148" cy="856" r="8" class="c0"/>
<circle cx="1086" cy="1102" r="8" class="c0"/>
<circle cx="1100" cy="1142" r="8" class="c0"/>
<circle cx="1082" cy="1080" r="8" class="c0"/>
<circle cx="1166" cy="554" r="8" class="c0"/>
<circle cx="1090" cy="1416" r="8" class="c0"/>
<circle cx="1152" cy="716" r="8" class="c0"/>
<circle cx="1084" cy="972" r="8" class="c0"/>
<circle cx="1144" cy="802" r="8" class="c0"/>
<circle cx="1154" cy="774" r="8" class="c0"/>
<circle cx="1124" cy="596" r="8" class="c0"/>
<circle cx="1126" cy="1094" r="8" class="c0"/>
<circle cx="1064" cy="1358" r="8" class="c0"/>
<circle cx="1102" cy="1274" r="8" class="c0"/>
<circle cx="1074" cy="1268" r="8" class="c0"/>
<circle cx="1082" cy="1348" r="8" class="c0"/>
<circle cx="1094" cy="1122" r="8" class="c0"/>
<circle cx="1154" cy="818" r="8" class="c0"/>
<circle cx="1168" cy="634" r="8" class="c0"/>
<circle cx="1110" cy="740" r="8" class="c0"/>
<circle cx="1122" cy="638" r="8" class="c0"/>
<circle cx="1086" cy="1006" r="8" class="c0"/>
<circle cx="1144" cy="732" r="8" class="c0"/>
<circle cx="1088" cy="938" r="8" class="c0"/>
<circle cx="1140" cy="672" r="8" class="c0"/>
<circle cx="1168" cy="484" r="8" class="c0"/>
<circle cx="1174" cy="500" r="6" class="c0"/>
<circle cx="1084" cy="1286" r="6" class="c0"/>
<circle cx="1110" cy="1182" r="6" class="c0"/>
<circle cx="1120" cy="870" r="6" class="c0"/>
<circle cx="1106" cy="872" r="6" class="c0"/>
<circle cx="1164" cy="728" r="6" class="c0"/>
<circle cx="1108" cy="1086" r="6" class="c0"/>
<circle cx="1100" cy="796" r="6" class="c0"/>
<circle cx="1146" cy="550" r="6" class="c0"/>
<circle cx="1084" cy="1188" r="6" class="c0"/>
<circle cx="1070" cy="1300" r="6" class="c0"/>
<circle cx="1082" cy="1154" r="6" class="c0"/>
<circle cx="1092" cy="1070" r="6" class="c0"/>
<circle cx="1108" cy="1256" r="6" class="c0"/>
<circle cx="1112" cy="1236" r="6" class="c0"/>
<circle cx="1062" cy="1380" r="6" class="c0"/>
<circle cx="1138" cy="586" r="6" class="c0"/>
<circle cx="1172" cy="578" r="6" class="c0"/>
<circle cx="1140" cy="764" r="6" class="c0"/>
<circle cx="1068" cy="1402" r="6" class="c0"/>
<circle cx="1166" cy="698" r="6" class="c0"/>
<circle cx="1162" cy="418" r="6" class="c0"/>
<circle cx="1096" cy="1052" r="6" class="c0"/>
<circle cx="1116" cy="1206" r="6" class="c0"/>
<circle cx="1144" cy="652" r="6" class="c0"/>
<circle cx="1176" cy="446" r="6" class="c0"/>
<circle cx="1150" cy="476" r="6" class="c0"/>
<circle cx="1128" cy="1114" r="6" class="c0"/>
<circle cx="1134" cy="844" r="6" class="c0"/>
<circle cx="1102" cy="776" r="6" class="c0"/>
<circle cx="1076" cy="990" r="6" class="c0"/>
<circle cx="1078" cy="1308" r="6" class="c0"/>
<circle cx="1138" cy="910" r="6" class="c0"/>
<circle cx="1106" cy="692" r="6" class="c0"/>
<circle cx="1062" cy="1314" r="6" class="c0"/>
<circle cx="1126" cy="858" r="6" class="c0"/>
<circle cx="1160" cy="620" r="6" class="c0"/>
<circle cx="1156" cy="594" r="6" class="c0"/>
<circle cx="1132" cy="546" r="6" class="c0"/>
<circle cx="1096" cy="1318" r="6" class="c0"/>
<circle cx="1138" cy="960" r="6" class="c0"/>
<circle cx="1146" cy="446" r="6" class="c0"/>
<circle cx="1144" cy="834" r="6" class="c0"/>
<circle cx="1068" cy="1226" r="6" class="c0"/>
<circle cx="1104" cy="1012" r="6" class="c0"/>
<circle cx="1134" cy="994" r="6" class="c0"/>
<circle cx="1180" cy="470" r="6" class="c0"/>
<circle cx="1096" cy="1092" r="6" class="c0"/>
<circle cx="1138" cy="868" r="6" class="c0"/>
<circle cx="1072" cy="1248" r="6" class="c0"/>
<circle cx="1118" cy="1190" r="6" class="c0"/>
<circle cx="1100" cy="1078" r="6" class="c0"/>
<circle cx="1082" cy="1372" r="6" class="c0"/>
<circle cx="1136" cy="1012" r="6" class="c0"/>
<circle cx="1142" cy="942" r="6" class="c0"/>
</svg>
