<?xml version="1.0" encoding="utf-8"?>
<svg xmlns="http://www.w3.org/2000/svg"
     xmlns:xlink="http://www.w3.org/1999/xlink" width="1920" height="1440" >

            <defs>
            <style type="text/css"><![CDATA[
circle {stroke: none;}
.c0 {fill: #000000;}
]]></style>
            </defs>
<rect x="0" y="0" width="1920" height="1440" fill="white"/>
<circle cx="1146" cy="46" r="14" class="c0"/>
<circle cx="1018" cy="768" r="14" class="c0"/>
<circle cx="906" cy="780" r="12" class="c0"/>
<circle cx="1024" cy="704" r="12" class="c0"/>
<circle cx="1032" cy="672" r="12" class="c0"/>
<circle cx="992" cy="808" r="12" class="c0"/>
<circle cx="944" cy="734" r="12" class="c0"/>
<circle cx="986" cy="620" r="12" class="c0"/>
<circle cx="896" cy="754" r="12" class="c0"/>
<circle cx="1120" cy="28" r="12" class="c0"/>
<circle cx="918" cy="678" r="10" class="c0"/>
<circle cx="950" cy="808" r="10" class="c0"/>
<circle cx="994" cy="24" r="10" class="c0"/>
<circle cx="1008" cy="632" r="10" class="c0"/>
<circle cx="902" cy="690" r="10" class="c0"/>
<circle cx="948" cy="786" r="10" class="c0"/>
<circle cx="1020" cy="736" r="10" class="c0"/>
<circle cx="1052" cy="744" r="10" class="c0"/>
<circle cx="934" cy="32" r="10" class="c0"/>
<circle cx="1180" cy="40" r="10" class="c0"/>
<circle cx="1216" cy="20" r="10" class="c0"/>
<circle cx="984" cy="698" r="10" class="c0"/>
<circle cx="1068" cy="14" r="10" class="c0"/>
<circle cx="930" cy="828" r="10" class="c0"/>
<circle cx="1272" cy="12" r="10" class="c0"/>
<circle cx="942" cy="694" r="10" class="c0"/>
<circle cx="958" cy="748" r="10" class="c0"/>
<circle cx="1060" cy="688" r="10" class="c0"/>
<circle cx="1154" cy="20" r="10" class="c0"/>
<circle cx="980" cy="788" r="10" class="c0"/>
<circle cx="1190" cy="10" r="10" class="c0"/>
<circle cx="918" cy="798" r="10" class="c0"/>
<circle cx="1034" cy="54" r="10" class="c0"/>
<circle cx="1004" cy="54" r="10" class="c0"/>
<circle cx="1058" cy="54" r="10" class="c0"/>
<circle cx="958" cy="50" r="10" class="c0"/>
<circle cx="938" cy="644" r="10" class="c0"/>
<circle cx="1002" cy="722" r="10" class="c0"/>
<circle cx="1012" cy="658" r="8" class="c0"/>
<circle cx="848" cy="10" r="8" class="c0"/>
<circle cx="952" cy="24" r="8" class="c0"/>
<circle cx="1034" cy="648" r="8" class="c0"/>
<circle cx="1018" cy="812" r="8" class="c0"/>
<circle cx="974" cy="830" r="8" class="c0"/>
<circle cx="874" cy="28" r="8" class="c0"/>
<circle cx="916" cy="648" r="8" class="c0"/>
<circle cx="972" cy="10" r="8" class="c0"/>
<circle cx="926" cy="748" r="8" class="c0"/>
<circle cx="982" cy="40" r="8" class="c0"/>
<circle cx="950" cy="664" r="8" class="c0"/>
<circle cx="1080" cy="42" r="8" class="c0"/>
<circle cx="1040" cy="16" r="8" class="c0"/>
<circle cx="884" cy="38" r="8" class="c0"/>
<circle cx="1240" cy="32" r="8" class="c0"/>
<circle cx="888" cy="726" r="8" class="c0"/>
<circle cx="998" cy="756" r="8" class="c0"/>
<circle cx="914" cy="50" r="8" class="c0"/>
<circle cx="964" cy="820" r="8" class="c0"/>
<circle cx="922" cy="718" r="8" class="c0"/>
<circle cx="1332" cy="10" r="8" class="c0"/>
<circle cx="1140" cy="8" r="8" class="c0"/>
<circle cx="1200" cy="44" r="8" class="c0"/>
<circle cx="996" cy="646" r="8" class="c0"/>
<circle cx="956" cy="714" r="8" class="c0"/>
<circle cx="978" cy="732" r="8" class="c0"/>
<circle cx="930" cy="772" r="8" class="c0"/>
<circle cx="960" cy="640" r="8" class="c0"/>
<circle cx="884" cy="8" r="8" class="c0"/>
<circle cx="1034" cy="754" r="8" class="c0"/>
<circle cx="976" cy="656" r="8" class="c0"/>
<circle cx="1058" cy="708" r="8" class="c0"/>
<circle cx="1044" cy="790" r="8" class="c0"/>
<circle cx="1078" cy="64" r="8" class="c0"/>
<circle cx="1168" cy="8" r="8" class="c0"/>
<circle cx="936" cy="56" r="8" class="c0"/>
<circle cx="1248" cy="12" r="8" class="c0"/>
<circle cx="1294" cy="22" r="8" class="c0"/>
<circle cx="992" cy="670" r="8" class="c0"/>
<circle cx="1050" cy="772" r="8" class="c0"/>
<circle cx="966" cy="676" r="8" class="c0"/>
<circle cx="1040" cy="724" r="8" class="c0"/>
<circle cx="908" cy="8" r="8" class="c0"/>
<circle cx="1064" cy="726" r="8" class="c0"/>
<circle cx="1056" cy="34" r="8" class="c0"/>
<circle cx="960" cy="774" r="8" class="c0"/>
<circle cx="988" cy="746" r="8" class="c0"/>
<circle cx="978" cy="762" r="8" class="c0"/>
<circle cx="1094" cy="28" r="8" class="c0"/>
<circle cx="918" cy="22" r="8" class="c0"/>
<circle cx="976" cy="66" r="8" class="c0"/>
<circle cx="1272" cy="34" r="8" class="c0"/>
<circle cx="1006" cy="684" r="8" class="c0"/>
<circle cx="902" cy="30" r="8" class="c0"/>
<circle cx="1018" cy="36" r="8" class="c0"/>
<circle cx="1124" cy="54" r="8" class="c0"/>
<circle cx="1026" cy="796" r="8" class="c0"/>
<circle cx="910" cy="816" r="8" class="c0"/>
<circle cx="1028" cy="26" r="8" class="c0"/>
<circle cx="904" cy="710" r="8" class="c0"/>
<circle cx="1008" cy="8" r="6" class="c0"/>
<circle cx="968" cy="28" r="6" class="c0"/>
<circle cx="1006" cy="822" r="6" class="c0"/>
<circle cx="1000" cy="788" r="6" class="c0"/>
<circle cx="960" cy="622" r="6" class="c0"/>
<circle cx="934" cy="10" r="6" class="c0"/>
<circle cx="1218" cy="40" r="6" class="c0"/>
<circle cx="1352" cy="8" r="6" class="c0"/>
<circle cx="1052" cy="666" r="6" class="c0"/>
<circle cx="1094" cy="54" r="6" class="c0"/>
<circle cx="902" cy="664" r="6" class="c0"/>
<circle cx="1030" cy="6" r="6" class="c0"/>
<circle cx="878" cy="710" r="6" class="c0"/>
<circle cx="958" cy="836" r="6" class="c0"/>
<circle cx="964" cy="796" r="6" class="c0"/>
<circle cx="904" cy="728" r="6" class="c0"/>
<circle cx="924" cy="702" r="6" class="c0"/>
<circle cx="1310" cy="10" r="6" class="c0"/>
<circle cx="1228" cy="8" r="6" class="c0"/>
<circle cx="914" cy="762" r="6" class="c0"/>
<circle cx="916" cy="738" r="6" class="c0"/>
<circle cx="882" cy="768" r="6" class="c0"/>
<circle cx="1102" cy="10" r="6" class="c0"/>
<circle cx="882" cy="694" r="6" class="c0"/>
<circle cx="946" cy="628" r="6" class="c0"/>
<circle cx="930" cy="662" r="6" class="c0"/>
<circle cx="866" cy="10" r="6" class="c0"/>
<circle cx="1104" cy="40" r="6" class="c0"/>
<circle cx="1040" cy="692" r="6" class="c0"/>
<circle cx="888" cy="680" r="6" class="c0"/>
<circle cx="962" cy="692" r="6" class="c0"/>
<circle cx="990" cy="828" r="6" class="c0"/>
<circle cx="876" cy="744" r="6" class="c0"/>
<circle cx="976" cy="636" r="6" class="c0"/>
<circle cx="976" cy="716" r="6" class="c0"/>
<circle cx="946" cy="764" r="6" class="c0"/>
<circle cx="1052" cy="6" r="6" class="c0"/>
<circle cx="1086" cy="6" r="6" class="c0"/>
<circle cx="858" cy="36" r="6" class="c0"/>
<circle cx="932" cy="810" r="6" class="c0"/>
<circle cx="1022" cy="66" r="6" class="c0"/>
<circle cx="988" cy="6" r="6" class="c0"/>
<circle cx="1256" cy="28" r="6" class="c0"/>
</svg>
