<?xml version="1.0" encoding="utf-8"?>
<svg xmlns="http://www.w3.org/2000/svg"
     xmlns:xlink="http://www.w3.org/1999/xlink" width="1920" height="1440" >

            <defs>
            <style type="text/css"><![CDATA[
circle {stroke: none;}
.c0 {fill: #000000;}
]]></style>
            </defs>
<rect x="0" y="0" width="1920" height="1440" fill="white"/>
<circle cx="1008" cy="842" r="14" class="c0"/>
<circle cx="1080" cy="834" r="12" class="c0"/>
<circle cx="936" cy="750" r="12" class="c0"/>
<circle cx="896" cy="866" r="12" class="c0"/>
<circle cx="924" cy="712" r="12" class="c0"/>
<circle cx="940" cy="828" r="12" class="c0"/>
<circle cx="892" cy="766" r="12" class="c0"/>
<circle cx="1058" cy="754" r="12" class="c0"/>
<circle cx="908" cy="836" r="12" class="c0"/>
<circle cx="1004" cy="880" r="10" class="c0"/>
<circle cx="894" cy="740" r="10" class="c0"/>
<circle cx="880" cy="834" r="10" class="c0"/>
<circle cx="1032" cy="914" r="10" class="c0"/>
<circle cx="938" cy="778" r="10" class="c0"/>
<circle cx="942" cy="924" r="10" class="c0"/>
<circle cx="1022" cy="804" r="10" class="c0"/>
<circle cx="1004" cy="682" r="10" class="c0"/>
<circle cx="926" cy="804" r="10" class="c0"/>
<circle cx="1006" cy="912" r="10" class="c0"/>
<circle cx="982" cy="806" r="10" class="c0"/>
<circle cx="1042" cy="768" r="10" class="c0"/>
<circle cx="1084" cy="790" r="10" class="c0"/>
<circle cx="946" cy="698" r="10" class="c0"/>
<circle cx="1014" cy="752" r="10" class="c0"/>
<circle cx="984" cy="702" r="10" class="c0"/>
<circle cx="1032" cy="740" r="10" class="c0"/>
<circle cx="986" cy="928" r="10" class="c0"/>
<circle cx="860" cy="808" r="10" class="c0"/>
<circle cx="964" cy="822" r="10" class="c0"/>
<circle cx="958" cy="866" r="10" class="c0"/>
<circle cx="982" cy="862" r="10" class="c0"/>
<circle cx="934" cy="856" r="10" class="c0"/>
<circle cx="1012" cy="730" r="10" class="c0"/>
<circle cx="904" cy="788" r="8" class="c0"/>
<circle cx="964" cy="676" r="8" class="c0"/>
<circle cx="1004" cy="710" r="8" class="c0"/>
<circle cx="850" cy="832" r="8" class="c0"/>
<circle cx="978" cy="774" r="8" class="c0"/>
<circle cx="924" cy="682" r="8" class="c0"/>
<circle cx="952" cy="900" r="8" class="c0"/>
<circle cx="1060" cy="878" r="8" class="c0"/>
<circle cx="950" cy="722" r="8" class="c0"/>
<circle cx="1070" cy="814" r="8" class="c0"/>
<circle cx="1054" cy="796" r="8" class="c0"/>
<circle cx="1030" cy="870" r="8" class="c0"/>
<circle cx="1046" cy="698" r="8" class="c0"/>
<circle cx="988" cy="730" r="8" class="c0"/>
<circle cx="1024" cy="684" r="8" class="c0"/>
<circle cx="1068" cy="854" r="8" class="c0"/>
<circle cx="892" cy="818" r="8" class="c0"/>
<circle cx="972" cy="842" r="8" class="c0"/>
<circle cx="1006" cy="770" r="8" class="c0"/>
<circle cx="1036" cy="822" r="8" class="c0"/>
<circle cx="926" cy="896" r="8" class="c0"/>
<circle cx="882" cy="798" r="8" class="c0"/>
<circle cx="1048" cy="722" r="8" class="c0"/>
<circle cx="866" cy="852" r="8" class="c0"/>
<circle cx="894" cy="898" r="8" class="c0"/>
<circle cx="1032" cy="890" r="8" class="c0"/>
<circle cx="1038" cy="852" r="8" class="c0"/>
<circle cx="860" cy="770" r="8" class="c0"/>
<circle cx="956" cy="800" r="8" class="c0"/>
<circle cx="974" cy="742" r="8" class="c0"/>
<circle cx="986" cy="890" r="8" class="c0"/>
<circle cx="910" cy="754" r="8" class="c0"/>
<circle cx="982" cy="680" r="8" class="c0"/>
<circle cx="988" cy="826" r="8" class="c0"/>
<circle cx="1060" cy="776" r="8" class="c0"/>
<circle cx="952" cy="766" r="8" class="c0"/>
<circle cx="936" cy="878" r="8" class="c0"/>
<circle cx="856" cy="866" r="8" class="c0"/>
<circle cx="882" cy="888" r="8" class="c0"/>
<circle cx="1028" cy="718" r="8" class="c0"/>
<circle cx="964" cy="706" r="8" class="c0"/>
<circle cx="872" cy="744" r="8" class="c0"/>
<circle cx="1004" cy="792" r="8" class="c0"/>
<circle cx="884" cy="722" r="8" class="c0"/>
<circle cx="990" cy="760" r="8" class="c0"/>
<circle cx="868" cy="876" r="8" class="c0"/>
<circle cx="954" cy="846" r="8" class="c0"/>
<circle cx="1028" cy="780" r="8" class="c0"/>
<circle cx="906" cy="700" r="8" class="c0"/>
<circle cx="974" cy="900" r="8" class="c0"/>
<circle cx="1058" cy="842" r="8" class="c0"/>
<circle cx="910" cy="886" r="8" class="c0"/>
<circle cx="910" cy="916" r="8" class="c0"/>
<circle cx="1064" cy="732" r="8" class="c0"/>
<circle cx="902" cy="808" r="8" class="c0"/>
<circle cx="920" cy="870" r="8" class="c0"/>
<circle cx="966" cy="884" r="8" class="c0"/>
<circle cx="1048" cy="868" r="8" class="c0"/>
<circle cx="966" cy="924" r="8" class="c0"/>
<circle cx="872" cy="780" r="8" class="c0"/>
<circle cx="918" cy="736" r="8" class="c0"/>
<circle cx="936" cy="906" r="6" class="c0"/>
<circle cx="1040" cy="806" r="6" class="c0"/>
<circle cx="1016" cy="862" r="6" class="c0"/>
<circle cx="902" cy="724" r="6" class="c0"/>
<circle cx="852" cy="790" r="6" class="c0"/>
<circle cx="948" cy="680" r="6" class="c0"/>
<circle cx="1044" cy="902" r="6" class="c0"/>
<circle cx="922" cy="770" r="6" class="c0"/>
<circle cx="1004" cy="812" r="6" class="c0"/>
<circle cx="956" cy="738" r="6" class="c0"/>
<circle cx="974" cy="716" r="6" class="c0"/>
<circle cx="1004" cy="930" r="6" class="c0"/>
<circle cx="1090" cy="816" r="6" class="c0"/>
<circle cx="1052" cy="820" r="6" class="c0"/>
<circle cx="970" cy="788" r="6" class="c0"/>
<circle cx="1078" cy="756" r="6" class="c0"/>
<circle cx="1060" cy="896" r="6" class="c0"/>
<circle cx="920" cy="784" r="6" class="c0"/>
<circle cx="964" cy="756" r="6" class="c0"/>
<circle cx="998" cy="742" r="6" class="c0"/>
<circle cx="966" cy="726" r="6" class="c0"/>
<circle cx="938" cy="672" r="6" class="c0"/>
<circle cx="1016" cy="698" r="6" class="c0"/>
<circle cx="1080" cy="772" r="6" class="c0"/>
<circle cx="848" cy="852" r="6" class="c0"/>
<circle cx="1018" cy="924" r="6" class="c0"/>
<circle cx="862" cy="754" r="6" class="c0"/>
<circle cx="1078" cy="866" r="6" class="c0"/>
<circle cx="1018" cy="822" r="6" class="c0"/>
<circle cx="972" cy="690" r="6" class="c0"/>
<circle cx="928" cy="914" r="6" class="c0"/>
<circle cx="962" cy="776" r="6" class="c0"/>
<circle cx="1022" cy="900" r="6" class="c0"/>
<circle cx="916" cy="818" r="6" class="c0"/>
<circle cx="986" cy="788" r="6" class="c0"/>
<circle cx="952" cy="938" r="6" class="c0"/>
<circle cx="876" cy="862" r="6" class="c0"/>
<circle cx="884" cy="852" r="6" class="c0"/>
<circle cx="1048" cy="888" r="6" class="c0"/>
<circle cx="892" cy="708" r="6" class="c0"/>
<circle cx="1030" cy="702" r="6" class="c0"/>
<circle cx="1058" cy="712" r="6" class="c0"/>
<circle cx="912" cy="856" r="6" class="c0"/>
<circle cx="934" cy="730" r="6" class="c0"/>
<circle cx="984" cy="910" r="6" class="c0"/>
<circle cx="1044" cy="786" r="6" class="c0"/>
</svg>
