<?xml version="1.0" encoding="utf-8"?>
<svg xmlns="http://www.w3.org/2000/svg"
     xmlns:xlink="http://www.w3.org/1999/xlink" width="1920" height="1440" >

            <defs>
            <style type="text/css"><![CDATA[
circle {stroke: none;}
.c0 {fill: #000000;}
]]></style>
            </defs>
<rect x="0" y="0" width="1920" height="1440" fill="white"/>
<circle cx="1018" cy="712" r="12" class="c0"/>
<circle cx="960" cy="708" r="12" class="c0"/>
<circle cx="942" cy="920" r="12" class="c0"/>
<circle cx="1020" cy="768" r="12" class="c0"/>
<circle cx="858" cy="832" r="12" class="c0"/>
<circle cx="978" cy="686" r="12" class="c0"/>
<circle cx="916" cy="742" r="12" class="c0"/>
<circle cx="964" cy="798" r="10" class="c0"/>
<circle cx="938" cy="848" r="10" class="c0"/>
<circle cx="1074" cy="780" r="10" class="c0"/>
<circle cx="966" cy="666" r="10" class="c0"/>
<circle cx="882" cy="812" r="10" class="c0"/>
<circle cx="990" cy="856" r="10" class="c0"/>
<circle cx="922" cy="910" r="10" class="c0"/>
<circle cx="880" cy="734" r="10" class="c0"/>
<circle cx="972" cy="902" r="10" class="c0"/>
<circle cx="1054" cy="772" r="10" class="c0"/>
<circle cx="1048" cy="888" r="10" class="c0"/>
<circle cx="958" cy="826" r="10" class="c0"/>
<circle cx="902" cy="722" r="10" class="c0"/>
<circle cx="1028" cy="830" r="10" class="c0"/>
<circle cx="1016" cy="890" r="10" class="c0"/>
<circle cx="864" cy="774" r="10" class="c0"/>
<circle cx="1078" cy="824" r="10" class="c0"/>
<circle cx="962" cy="884" r="10" class="c0"/>
<circle cx="910" cy="842" r="10" class="c0"/>
<circle cx="936" cy="752" r="10" class="c0"/>
<circle cx="998" cy="918" r="10" class="c0"/>
<circle cx="1014" cy="684" r="10" class="c0"/>
<circle cx="1062" cy="846" r="10" class="c0"/>
<circle cx="940" cy="796" r="8" class="c0"/>
<circle cx="1056" cy="808" r="8" class="c0"/>
<circle cx="1034" cy="784" r="8" class="c0"/>
<circle cx="990" cy="670" r="8" class="c0"/>
<circle cx="1010" cy="838" r="8" class="c0"/>
<circle cx="980" cy="814" r="8" class="c0"/>
<circle cx="904" cy="862" r="8" class="c0"/>
<circle cx="1092" cy="794" r="8" class="c0"/>
<circle cx="892" cy="898" r="8" class="c0"/>
<circle cx="1002" cy="784" r="8" class="c0"/>
<circle cx="926" cy="698" r="8" class="c0"/>
<circle cx="892" cy="784" r="8" class="c0"/>
<circle cx="848" cy="814" r="8" class="c0"/>
<circle cx="948" cy="726" r="8" class="c0"/>
<circle cx="880" cy="850" r="8" class="c0"/>
<circle cx="924" cy="864" r="8" class="c0"/>
<circle cx="992" cy="800" r="8" class="c0"/>
<circle cx="862" cy="794" r="8" class="c0"/>
<circle cx="1048" cy="826" r="8" class="c0"/>
<circle cx="962" cy="770" r="8" class="c0"/>
<circle cx="994" cy="880" r="8" class="c0"/>
<circle cx="902" cy="690" r="8" class="c0"/>
<circle cx="856" cy="756" r="8" class="c0"/>
<circle cx="1040" cy="730" r="8" class="c0"/>
<circle cx="902" cy="806" r="8" class="c0"/>
<circle cx="1002" cy="812" r="8" class="c0"/>
<circle cx="1064" cy="868" r="8" class="c0"/>
<circle cx="990" cy="754" r="8" class="c0"/>
<circle cx="890" cy="876" r="8" class="c0"/>
<circle cx="900" cy="768" r="8" class="c0"/>
<circle cx="860" cy="888" r="8" class="c0"/>
<circle cx="894" cy="748" r="8" class="c0"/>
<circle cx="1022" cy="930" r="8" class="c0"/>
<circle cx="972" cy="840" r="8" class="c0"/>
<circle cx="1040" cy="758" r="8" class="c0"/>
<circle cx="1074" cy="756" r="8" class="c0"/>
<circle cx="940" cy="774" r="8" class="c0"/>
<circle cx="942" cy="666" r="8" class="c0"/>
<circle cx="1076" cy="804" r="8" class="c0"/>
<circle cx="1038" cy="848" r="8" class="c0"/>
<circle cx="1024" cy="868" r="8" class="c0"/>
<circle cx="968" cy="730" r="8" class="c0"/>
<circle cx="880" cy="886" r="8" class="c0"/>
<circle cx="1038" cy="700" r="8" class="c0"/>
<circle cx="998" cy="734" r="8" class="c0"/>
<circle cx="924" cy="938" r="8" class="c0"/>
<circle cx="1022" cy="746" r="8" class="c0"/>
<circle cx="1084" cy="846" r="8" class="c0"/>
<circle cx="928" cy="822" r="8" class="c0"/>
<circle cx="850" cy="868" r="8" class="c0"/>
<circle cx="1052" cy="912" r="8" class="c0"/>
<circle cx="914" cy="792" r="8" class="c0"/>
<circle cx="956" cy="684" r="8" class="c0"/>
<circle cx="982" cy="776" r="8" class="c0"/>
<circle cx="1038" cy="904" r="6" class="c0"/>
<circle cx="1004" cy="936" r="6" class="c0"/>
<circle cx="954" cy="868" r="6" class="c0"/>
<circle cx="984" cy="726" r="6" class="c0"/>
<circle cx="1058" cy="714" r="6" class="c0"/>
<circle cx="958" cy="850" r="6" class="c0"/>
<circle cx="840" cy="800" r="6" class="c0"/>
<circle cx="888" cy="916" r="6" class="c0"/>
<circle cx="938" cy="708" r="6" class="c0"/>
<circle cx="904" cy="924" r="6" class="c0"/>
<circle cx="944" cy="900" r="6" class="c0"/>
<circle cx="946" cy="814" r="6" class="c0"/>
<circle cx="1016" cy="912" r="6" class="c0"/>
<circle cx="1004" cy="870" r="6" class="c0"/>
<circle cx="952" cy="940" r="6" class="c0"/>
<circle cx="1070" cy="738" r="6" class="c0"/>
<circle cx="846" cy="850" r="6" class="c0"/>
<circle cx="1074" cy="880" r="6" class="c0"/>
<circle cx="914" cy="874" r="6" class="c0"/>
<circle cx="996" cy="700" r="6" class="c0"/>
<circle cx="1018" cy="788" r="6" class="c0"/>
<circle cx="922" cy="882" r="6" class="c0"/>
<circle cx="836" cy="838" r="6" class="c0"/>
<circle cx="972" cy="858" r="6" class="c0"/>
<circle cx="880" cy="832" r="6" class="c0"/>
<circle cx="920" cy="808" r="6" class="c0"/>
<circle cx="972" cy="926" r="6" class="c0"/>
<circle cx="978" cy="946" r="6" class="c0"/>
<circle cx="922" cy="714" r="6" class="c0"/>
<circle cx="992" cy="714" r="6" class="c0"/>
<circle cx="1020" cy="810" r="6" class="c0"/>
<circle cx="972" cy="756" r="6" class="c0"/>
<circle cx="888" cy="712" r="6" class="c0"/>
<circle cx="990" cy="938" r="6" class="c0"/>
<circle cx="1032" cy="802" r="6" class="c0"/>
<circle cx="922" cy="772" r="6" class="c0"/>
<circle cx="896" cy="822" r="6" class="c0"/>
<circle cx="930" cy="894" r="6" class="c0"/>
<circle cx="954" cy="784" r="6" class="c0"/>
<circle cx="916" cy="676" r="6" class="c0"/>
<circle cx="960" cy="746" r="6" class="c0"/>
<circle cx="912" cy="824" r="6" class="c0"/>
<circle cx="902" cy="888" r="6" class="c0"/>
<circle cx="930" cy="784" r="6" class="c0"/>
<circle cx="982" cy="706" r="6" class="c0"/>
<circle cx="996" cy="896" r="6" class="c0"/>
<circle cx="1056" cy="736" r="6" class="c0"/>
<circle cx="860" cy="854" r="6" class="c0"/>
<circle cx="992" cy="830" r="6" class="c0"/>
<circle cx="930" cy="726" r="6" class="c0"/>
<circle cx="1080" cy="862" r="6" class="c0"/>
<circle cx="878" cy="792" r="6" class="c0"/>
<circle cx="940" cy="872" r="6" class="c0"/>
<circle cx="874" cy="866" r="6" class="c0"/>
<circle cx="910" cy="704" r="6" class="c0"/>
<circle cx="930" cy="682" r="6" class="c0"/>
<circle cx="872" cy="750" r="6" class="c0"/>
<circle cx="980" cy="872" r="6" class="c0"/>
</svg>
