<?xml version="1.0" encoding="utf-8"?>
<svg xmlns="http://www.w3.org/2000/svg"
     xmlns:xlink="http://www.w3.org/1999/xlink" width="1920" height="1440" >

            <defs>
            <style type="text/css"><![CDATA[
circle {stroke: none;}
.c0 {fill: #000000;}
]]></style>
            </defs>
<rect x="0" y="0" width="1920" height="1440" fill="white"/>
<circle cx="1060" cy="924" r="12" class="c0"/>
<circle cx="914" cy="940" r="12" class="c0"/>
<circle cx="930" cy="820" r="12" class="c0"/>
<circle cx="958" cy="864" r="12" class="c0"/>
<circle cx="1072" cy="886" r="12" class="c0"/>
<circle cx="922" cy="896" r="12" class="c0"/>
<circle cx="866" cy="802" r="12" class="c0"/>
<circle cx="1036" cy="860" r="12" class="c0"/>
<circle cx="988" cy="940" r="12" class="c0"/>
<circle cx="1060" cy="774" r="12" class="c0"/>
<circle cx="892" cy="798" r="12" class="c0"/>
<circle cx="1018" cy="882" r="10" class="c0"/>
<circle cx="1062" cy="856" r="10" class="c0"/>
<circle cx="1020" cy="920" r="10" class="c0"/>
<circle cx="1040" cy="884" r="10" class="c0"/>
<circle cx="834" cy="864" r="10" class="c0"/>
<circle cx="958" cy="968" r="10" class="c0"/>
<circle cx="1094" cy="900" r="10" class="c0"/>
<circle cx="1050" cy="796" r="10" class="c0"/>
<circle cx="946" cy="758" r="10" class="c0"/>
<circle cx="994" cy="916" r="10" class="c0"/>
<circle cx="1098" cy="876" r="10" class="c0"/>
<circle cx="898" cy="914" r="10" class="c0"/>
<circle cx="1028" cy="952" r="10" class="c0"/>
<circle cx="1030" cy="828" r="10" class="c0"/>
<circle cx="836" cy="896" r="10" class="c0"/>
<circle cx="996" cy="800" r="10" class="c0"/>
<circle cx="868" cy="876" r="10" class="c0"/>
<circle cx="1082" cy="916" r="10" class="c0"/>
<circle cx="924" cy="980" r="10" class="c0"/>
<circle cx="958" cy="738" r="10" class="c0"/>
<circle cx="852" cy="922" r="10" class="c0"/>
<circle cx="828" cy="836" r="10" class="c0"/>
<circle cx="984" cy="968" r="10" class="c0"/>
<circle cx="988" cy="840" r="10" class="c0"/>
<circle cx="882" cy="758" r="10" class="c0"/>
<circle cx="1092" cy="832" r="8" class="c0"/>
<circle cx="1020" cy="742" r="8" class="c0"/>
<circle cx="1084" cy="790" r="8" class="c0"/>
<circle cx="1024" cy="784" r="8" class="c0"/>
<circle cx="1010" cy="968" r="8" class="c0"/>
<circle cx="898" cy="860" r="8" class="c0"/>
<circle cx="882" cy="936" r="8" class="c0"/>
<circle cx="942" cy="918" r="8" class="c0"/>
<circle cx="940" cy="950" r="8" class="c0"/>
<circle cx="880" cy="858" r="8" class="c0"/>
<circle cx="900" cy="890" r="8" class="c0"/>
<circle cx="966" cy="780" r="8" class="c0"/>
<circle cx="932" cy="746" r="8" class="c0"/>
<circle cx="910" cy="778" r="8" class="c0"/>
<circle cx="1006" cy="732" r="8" class="c0"/>
<circle cx="928" cy="790" r="8" class="c0"/>
<circle cx="948" cy="842" r="8" class="c0"/>
<circle cx="996" cy="760" r="8" class="c0"/>
<circle cx="928" cy="856" r="8" class="c0"/>
<circle cx="898" cy="746" r="8" class="c0"/>
<circle cx="986" cy="866" r="8" class="c0"/>
<circle cx="850" cy="848" r="8" class="c0"/>
<circle cx="968" cy="928" r="8" class="c0"/>
<circle cx="848" cy="792" r="8" class="c0"/>
<circle cx="1032" cy="808" r="8" class="c0"/>
<circle cx="970" cy="812" r="8" class="c0"/>
<circle cx="960" cy="990" r="8" class="c0"/>
<circle cx="998" cy="824" r="8" class="c0"/>
<circle cx="980" cy="746" r="8" class="c0"/>
<circle cx="1062" cy="808" r="8" class="c0"/>
<circle cx="970" cy="906" r="8" class="c0"/>
<circle cx="892" cy="950" r="8" class="c0"/>
<circle cx="1054" cy="834" r="8" class="c0"/>
<circle cx="966" cy="888" r="8" class="c0"/>
<circle cx="1038" cy="906" r="8" class="c0"/>
<circle cx="1052" cy="956" r="8" class="c0"/>
<circle cx="848" cy="884" r="8" class="c0"/>
<circle cx="996" cy="882" r="8" class="c0"/>
<circle cx="914" cy="876" r="8" class="c0"/>
<circle cx="1042" cy="966" r="8" class="c0"/>
<circle cx="910" cy="808" r="8" class="c0"/>
<circle cx="912" cy="760" r="8" class="c0"/>
<circle cx="1092" cy="810" r="8" class="c0"/>
<circle cx="1004" cy="854" r="8" class="c0"/>
<circle cx="1092" cy="854" r="8" class="c0"/>
<circle cx="874" cy="834" r="8" class="c0"/>
<circle cx="928" cy="770" r="8" class="c0"/>
<circle cx="858" cy="896" r="8" class="c0"/>
<circle cx="964" cy="946" r="8" class="c0"/>
<circle cx="860" cy="776" r="8" class="c0"/>
<circle cx="848" cy="820" r="8" class="c0"/>
<circle cx="1006" cy="778" r="6" class="c0"/>
<circle cx="1070" cy="940" r="6" class="c0"/>
<circle cx="1022" cy="766" r="6" class="c0"/>
<circle cx="940" cy="728" r="6" class="c0"/>
<circle cx="902" cy="824" r="6" class="c0"/>
<circle cx="952" cy="810" r="6" class="c0"/>
<circle cx="1042" cy="756" r="6" class="c0"/>
<circle cx="966" cy="754" r="6" class="c0"/>
<circle cx="1076" cy="866" r="6" class="c0"/>
<circle cx="968" cy="840" r="6" class="c0"/>
<circle cx="988" cy="726" r="6" class="c0"/>
<circle cx="982" cy="992" r="6" class="c0"/>
<circle cx="942" cy="976" r="6" class="c0"/>
<circle cx="840" cy="806" r="6" class="c0"/>
<circle cx="868" cy="914" r="6" class="c0"/>
<circle cx="896" cy="836" r="6" class="c0"/>
<circle cx="1070" cy="830" r="6" class="c0"/>
<circle cx="948" cy="898" r="6" class="c0"/>
<circle cx="956" cy="718" r="6" class="c0"/>
<circle cx="908" cy="966" r="6" class="c0"/>
<circle cx="1042" cy="938" r="6" class="c0"/>
<circle cx="1036" cy="744" r="6" class="c0"/>
<circle cx="956" cy="794" r="6" class="c0"/>
<circle cx="934" cy="876" r="6" class="c0"/>
<circle cx="954" cy="936" r="6" class="c0"/>
<circle cx="1040" cy="922" r="6" class="c0"/>
<circle cx="1014" cy="836" r="6" class="c0"/>
<circle cx="986" cy="770" r="6" class="c0"/>
<circle cx="976" cy="792" r="6" class="c0"/>
<circle cx="932" cy="930" r="6" class="c0"/>
<circle cx="1014" cy="986" r="6" class="c0"/>
<circle cx="1054" cy="894" r="6" class="c0"/>
<circle cx="822" cy="880" r="6" class="c0"/>
<circle cx="944" cy="802" r="6" class="c0"/>
<circle cx="918" cy="838" r="6" class="c0"/>
<circle cx="854" cy="866" r="6" class="c0"/>
<circle cx="1022" cy="848" r="6" class="c0"/>
<circle cx="876" cy="906" r="6" class="c0"/>
<circle cx="1014" cy="942" r="6" class="c0"/>
<circle cx="942" cy="886" r="6" class="c0"/>
<circle cx="1064" cy="904" r="6" class="c0"/>
<circle cx="946" cy="780" r="6" class="c0"/>
<circle cx="1078" cy="818" r="6" class="c0"/>
<circle cx="818" cy="854" r="6" class="c0"/>
<circle cx="916" cy="740" r="6" class="c0"/>
<circle cx="832" cy="816" r="6" class="c0"/>
<circle cx="1006" cy="898" r="6" class="c0"/>
<circle cx="974" cy="724" r="6" class="c0"/>
<circle cx="894" cy="774" r="6" class="c0"/>
<circle cx="958" cy="830" r="6" class="c0"/>
<circle cx="978" cy="762" r="6" class="c0"/>
<circle cx="1014" cy="802" r="6" class="c0"/>
<circle cx="996" cy="742" r="6" class="c0"/>
<circle cx="882" cy="818" r="6" class="c0"/>
<circle cx="866" cy="942" r="6" class="c0"/>
</svg>
