<?xml version="1.0" encoding="utf-8"?>
<svg xmlns="http://www.w3.org/2000/svg"
     xmlns:xlink="http://www.w3.org/1999/xlink" width="1920" height="1440" >

            <defs>
            <style type="text/css"><![CDATA[
circle {stroke: none;}
.c0 {fill: #000000;}
]]></style>
            </defs>
<rect x="0" y="0" width="1920" height="1440" fill="white"/>
<circle cx="1026" cy="862" r="14" class="c0"/>
<circle cx="1006" cy="900" r="14" class="c0"/>
<circle cx="934" cy="898" r="12" class="c0"/>
<circle cx="1066" cy="780" r="12" class="c0"/>
<circle cx="972" cy="746" r="12" class="c0"/>
<circle cx="960" cy="944" r="12" class="c0"/>
<circle cx="1012" cy="836" r="12" class="c0"/>
<circle cx="1090" cy="910" r="12" class="c0"/>
<circle cx="1044" cy="824" r="12" class="c0"/>
<circle cx="920" cy="850" r="12" class="c0"/>
<circle cx="1068" cy="848" r="12" class="c0"/>
<circle cx="1004" cy="794" r="10" class="c0"/>
<circle cx="964" cy="852" r="10" class="c0"/>
<circle cx="892" cy="936" r="10" class="c0"/>
<circle cx="888" cy="814" r="10" class="c0"/>
<circle cx="954" cy="790" r="10" class="c0"/>
<circle cx="838" cy="860" r="10" class="c0"/>
<circle cx="1038" cy="924" r="10" class="c0"/>
<circle cx="894" cy="856" r="10" class="c0"/>
<circle cx="828" cy="840" r="10" class="c0"/>
<circle cx="860" cy="872" r="10" class="c0"/>
<circle cx="876" cy="772" r="10" class="c0"/>
<circle cx="998" cy="950" r="10" class="c0"/>
<circle cx="1086" cy="814" r="10" class="c0"/>
<circle cx="1040" cy="960" r="10" class="c0"/>
<circle cx="910" cy="826" r="10" class="c0"/>
<circle cx="1034" cy="786" r="10" class="c0"/>
<circle cx="1062" cy="948" r="10" class="c0"/>
<circle cx="882" cy="880" r="10" class="c0"/>
<circle cx="924" cy="958" r="10" class="c0"/>
<circle cx="1052" cy="910" r="10" class="c0"/>
<circle cx="858" cy="792" r="10" class="c0"/>
<circle cx="902" cy="780" r="10" class="c0"/>
<circle cx="918" cy="910" r="8" class="c0"/>
<circle cx="858" cy="942" r="8" class="c0"/>
<circle cx="942" cy="970" r="8" class="c0"/>
<circle cx="910" cy="974" r="8" class="c0"/>
<circle cx="992" cy="930" r="8" class="c0"/>
<circle cx="916" cy="756" r="8" class="c0"/>
<circle cx="1072" cy="932" r="8" class="c0"/>
<circle cx="950" cy="834" r="8" class="c0"/>
<circle cx="978" cy="970" r="8" class="c0"/>
<circle cx="926" cy="936" r="8" class="c0"/>
<circle cx="850" cy="902" r="8" class="c0"/>
<circle cx="962" cy="894" r="8" class="c0"/>
<circle cx="934" cy="814" r="8" class="c0"/>
<circle cx="1008" cy="988" r="8" class="c0"/>
<circle cx="896" cy="900" r="8" class="c0"/>
<circle cx="1010" cy="766" r="8" class="c0"/>
<circle cx="888" cy="972" r="8" class="c0"/>
<circle cx="1096" cy="838" r="8" class="c0"/>
<circle cx="962" cy="812" r="8" class="c0"/>
<circle cx="842" cy="820" r="8" class="c0"/>
<circle cx="870" cy="912" r="8" class="c0"/>
<circle cx="1004" cy="742" r="8" class="c0"/>
<circle cx="1030" cy="980" r="8" class="c0"/>
<circle cx="1084" cy="888" r="8" class="c0"/>
<circle cx="1048" cy="762" r="8" class="c0"/>
<circle cx="1098" cy="858" r="8" class="c0"/>
<circle cx="936" cy="736" r="8" class="c0"/>
<circle cx="868" cy="836" r="8" class="c0"/>
<circle cx="866" cy="810" r="8" class="c0"/>
<circle cx="1058" cy="882" r="8" class="c0"/>
<circle cx="952" cy="996" r="8" class="c0"/>
<circle cx="988" cy="860" r="8" class="c0"/>
<circle cx="922" cy="804" r="8" class="c0"/>
<circle cx="942" cy="764" r="8" class="c0"/>
<circle cx="1078" cy="868" r="8" class="c0"/>
<circle cx="928" cy="984" r="8" class="c0"/>
<circle cx="938" cy="862" r="8" class="c0"/>
<circle cx="990" cy="986" r="8" class="c0"/>
<circle cx="1014" cy="964" r="8" class="c0"/>
<circle cx="1046" cy="850" r="8" class="c0"/>
<circle cx="988" cy="810" r="8" class="c0"/>
<circle cx="838" cy="922" r="8" class="c0"/>
<circle cx="1086" cy="792" r="8" class="c0"/>
<circle cx="972" cy="990" r="8" class="c0"/>
<circle cx="1100" cy="876" r="8" class="c0"/>
<circle cx="974" cy="770" r="8" class="c0"/>
<circle cx="878" cy="950" r="8" class="c0"/>
<circle cx="1022" cy="946" r="8" class="c0"/>
<circle cx="1042" cy="894" r="8" class="c0"/>
<circle cx="984" cy="788" r="8" class="c0"/>
<circle cx="1024" cy="750" r="8" class="c0"/>
<circle cx="928" cy="776" r="8" class="c0"/>
<circle cx="968" cy="924" r="8" class="c0"/>
<circle cx="980" cy="834" r="8" class="c0"/>
<circle cx="970" cy="872" r="6" class="c0"/>
<circle cx="904" cy="802" r="6" class="c0"/>
<circle cx="972" cy="802" r="6" class="c0"/>
<circle cx="944" cy="930" r="6" class="c0"/>
<circle cx="1070" cy="900" r="6" class="c0"/>
<circle cx="894" cy="764" r="6" class="c0"/>
<circle cx="950" cy="880" r="6" class="c0"/>
<circle cx="1022" cy="814" r="6" class="c0"/>
<circle cx="908" cy="888" r="6" class="c0"/>
<circle cx="926" cy="878" r="6" class="c0"/>
<circle cx="820" cy="882" r="6" class="c0"/>
<circle cx="980" cy="884" r="6" class="c0"/>
<circle cx="1036" cy="804" r="6" class="c0"/>
<circle cx="884" cy="920" r="6" class="c0"/>
<circle cx="980" cy="914" r="6" class="c0"/>
<circle cx="952" cy="738" r="6" class="c0"/>
<circle cx="1012" cy="930" r="6" class="c0"/>
<circle cx="1026" cy="892" r="6" class="c0"/>
<circle cx="994" cy="774" r="6" class="c0"/>
<circle cx="1060" cy="802" r="6" class="c0"/>
<circle cx="1046" cy="870" r="6" class="c0"/>
<circle cx="1066" cy="816" r="6" class="c0"/>
<circle cx="1002" cy="876" r="6" class="c0"/>
<circle cx="830" cy="906" r="6" class="c0"/>
<circle cx="1002" cy="820" r="6" class="c0"/>
<circle cx="976" cy="954" r="6" class="c0"/>
<circle cx="946" cy="916" r="6" class="c0"/>
<circle cx="840" cy="882" r="6" class="c0"/>
<circle cx="848" cy="838" r="6" class="c0"/>
<circle cx="898" cy="916" r="6" class="c0"/>
<circle cx="888" cy="836" r="6" class="c0"/>
<circle cx="900" cy="750" r="6" class="c0"/>
<circle cx="868" cy="894" r="6" class="c0"/>
<circle cx="1114" cy="862" r="6" class="c0"/>
<circle cx="876" cy="852" r="6" class="c0"/>
<circle cx="910" cy="866" r="6" class="c0"/>
<circle cx="982" cy="942" r="6" class="c0"/>
<circle cx="898" cy="956" r="6" class="c0"/>
<circle cx="982" cy="1000" r="6" class="c0"/>
<circle cx="952" cy="754" r="6" class="c0"/>
<circle cx="1104" cy="894" r="6" class="c0"/>
<circle cx="1104" cy="818" r="6" class="c0"/>
<circle cx="988" cy="762" r="6" class="c0"/>
<circle cx="988" cy="736" r="6" class="c0"/>
<circle cx="1032" cy="764" r="6" class="c0"/>
<circle cx="854" cy="926" r="6" class="c0"/>
<circle cx="842" cy="800" r="6" class="c0"/>
<circle cx="828" cy="892" r="6" class="c0"/>
<circle cx="908" cy="926" r="6" class="c0"/>
<circle cx="1112" cy="846" r="6" class="c0"/>
<circle cx="954" cy="980" r="6" class="c0"/>
<circle cx="880" cy="792" r="6" class="c0"/>
<circle cx="1054" cy="970" r="6" class="c0"/>
<circle cx="1078" cy="830" r="6" class="c0"/>
<circle cx="958" cy="966" r="6" class="c0"/>
</svg>
