<?xml version="1.0" encoding="utf-8"?>
<svg xmlns="http://www.w3.org/2000/svg"
     xmlns:xlink="http://www.w3.org/1999/xlink" width="1920" height="1440" >

            <defs>
            <style type="text/css"><![CDATA[
circle {stroke: none;}
.c0 {fill: #000000;}
]]></style>
            </defs>
<rect x="0" y="0" width="1920" height="1440" fill="white"/>
<circle cx="932" cy="784" r="12" class="c0"/>
<circle cx="872" cy="842" r="12" class="c0"/>
<circle cx="914" cy="958" r="12" class="c0"/>
<circle cx="988" cy="930" r="12" class="c0"/>
<circle cx="938" cy="900" r="12" class="c0"/>
<circle cx="1096" cy="916" r="12" class="c0"/>
<circle cx="900" cy="878" r="12" class="c0"/>
<circle cx="964" cy="796" r="12" class="c0"/>
<circle cx="1042" cy="818" r="12" class="c0"/>
<circle cx="904" cy="784" r="10" class="c0"/>
<circle cx="1002" cy="998" r="10" class="c0"/>
<circle cx="936" cy="988" r="10" class="c0"/>
<circle cx="1100" cy="886" r="10" class="c0"/>
<circle cx="908" cy="928" r="10" class="c0"/>
<circle cx="954" cy="952" r="10" class="c0"/>
<circle cx="914" cy="856" r="10" class="c0"/>
<circle cx="1020" cy="878" r="10" class="c0"/>
<circle cx="1024" cy="940" r="10" class="c0"/>
<circle cx="960" cy="928" r="10" class="c0"/>
<circle cx="950" cy="832" r="10" class="c0"/>
<circle cx="850" cy="916" r="10" class="c0"/>
<circle cx="846" cy="854" r="10" class="c0"/>
<circle cx="870" cy="880" r="10" class="c0"/>
<circle cx="938" cy="934" r="10" class="c0"/>
<circle cx="936" cy="850" r="10" class="c0"/>
<circle cx="1070" cy="896" r="10" class="c0"/>
<circle cx="880" cy="790" r="10" class="c0"/>
<circle cx="920" cy="832" r="10" class="c0"/>
<circle cx="1048" cy="862" r="10" class="c0"/>
<circle cx="1020" cy="986" r="10" class="c0"/>
<circle cx="1024" cy="838" r="10" class="c0"/>
<circle cx="868" cy="904" r="10" class="c0"/>
<circle cx="960" cy="1002" r="10" class="c0"/>
<circle cx="1022" cy="964" r="8" class="c0"/>
<circle cx="1084" cy="830" r="8" class="c0"/>
<circle cx="1026" cy="912" r="8" class="c0"/>
<circle cx="878" cy="966" r="8" class="c0"/>
<circle cx="968" cy="972" r="8" class="c0"/>
<circle cx="842" cy="832" r="8" class="c0"/>
<circle cx="1060" cy="802" r="8" class="c0"/>
<circle cx="978" cy="882" r="8" class="c0"/>
<circle cx="822" cy="868" r="8" class="c0"/>
<circle cx="1074" cy="954" r="8" class="c0"/>
<circle cx="1104" cy="842" r="8" class="c0"/>
<circle cx="994" cy="970" r="8" class="c0"/>
<circle cx="1042" cy="884" r="8" class="c0"/>
<circle cx="1046" cy="950" r="8" class="c0"/>
<circle cx="1024" cy="784" r="8" class="c0"/>
<circle cx="940" cy="1008" r="8" class="c0"/>
<circle cx="886" cy="892" r="8" class="c0"/>
<circle cx="846" cy="938" r="8" class="c0"/>
<circle cx="860" cy="812" r="8" class="c0"/>
<circle cx="978" cy="844" r="8" class="c0"/>
<circle cx="982" cy="760" r="8" class="c0"/>
<circle cx="1078" cy="860" r="8" class="c0"/>
<circle cx="1058" cy="832" r="8" class="c0"/>
<circle cx="898" cy="972" r="8" class="c0"/>
<circle cx="1062" cy="934" r="8" class="c0"/>
<circle cx="866" cy="934" r="8" class="c0"/>
<circle cx="924" cy="754" r="8" class="c0"/>
<circle cx="906" cy="908" r="8" class="c0"/>
<circle cx="972" cy="1014" r="8" class="c0"/>
<circle cx="1094" cy="852" r="8" class="c0"/>
<circle cx="986" cy="800" r="8" class="c0"/>
<circle cx="1004" cy="756" r="8" class="c0"/>
<circle cx="1004" cy="790" r="8" class="c0"/>
<circle cx="996" cy="896" r="8" class="c0"/>
<circle cx="966" cy="820" r="8" class="c0"/>
<circle cx="888" cy="916" r="8" class="c0"/>
<circle cx="910" cy="988" r="8" class="c0"/>
<circle cx="930" cy="870" r="8" class="c0"/>
<circle cx="1048" cy="908" r="8" class="c0"/>
<circle cx="1104" cy="866" r="8" class="c0"/>
<circle cx="972" cy="776" r="8" class="c0"/>
<circle cx="900" cy="814" r="8" class="c0"/>
<circle cx="956" cy="764" r="8" class="c0"/>
<circle cx="1014" cy="900" r="8" class="c0"/>
<circle cx="1008" cy="950" r="8" class="c0"/>
<circle cx="1006" cy="918" r="8" class="c0"/>
<circle cx="1086" cy="800" r="8" class="c0"/>
<circle cx="1094" cy="818" r="8" class="c0"/>
<circle cx="840" cy="892" r="8" class="c0"/>
<circle cx="998" cy="820" r="8" class="c0"/>
<circle cx="1064" cy="876" r="8" class="c0"/>
<circle cx="1034" cy="796" r="8" class="c0"/>
<circle cx="980" cy="950" r="8" class="c0"/>
<circle cx="942" cy="810" r="8" class="c0"/>
<circle cx="884" cy="862" r="8" class="c0"/>
<circle cx="1022" cy="766" r="8" class="c0"/>
<circle cx="1068" cy="818" r="8" class="c0"/>
<circle cx="896" cy="764" r="8" class="c0"/>
<circle cx="1046" cy="978" r="8" class="c0"/>
<circle cx="970" cy="862" r="8" class="c0"/>
<circle cx="922" cy="802" r="8" class="c0"/>
<circle cx="890" cy="946" r="8" class="c0"/>
<circle cx="1004" cy="866" r="8" class="c0"/>
<circle cx="950" cy="884" r="8" class="c0"/>
<circle cx="1014" cy="822" r="6" class="c0"/>
<circle cx="1034" cy="898" r="6" class="c0"/>
<circle cx="890" cy="826" r="6" class="c0"/>
<circle cx="964" cy="900" r="6" class="c0"/>
<circle cx="856" cy="890" r="6" class="c0"/>
<circle cx="1058" cy="968" r="6" class="c0"/>
<circle cx="1006" cy="844" r="6" class="c0"/>
<circle cx="1048" cy="774" r="6" class="c0"/>
<circle cx="986" cy="988" r="6" class="c0"/>
<circle cx="816" cy="852" r="6" class="c0"/>
<circle cx="834" cy="816" r="6" class="c0"/>
<circle cx="848" cy="874" r="6" class="c0"/>
<circle cx="896" cy="848" r="6" class="c0"/>
<circle cx="982" cy="824" r="6" class="c0"/>
<circle cx="968" cy="744" r="6" class="c0"/>
<circle cx="920" cy="998" r="6" class="c0"/>
<circle cx="824" cy="908" r="6" class="c0"/>
<circle cx="1022" cy="810" r="6" class="c0"/>
<circle cx="942" cy="756" r="6" class="c0"/>
<circle cx="1088" cy="942" r="6" class="c0"/>
<circle cx="934" cy="956" r="6" class="c0"/>
<circle cx="976" cy="908" r="6" class="c0"/>
<circle cx="914" cy="890" r="6" class="c0"/>
<circle cx="986" cy="1006" r="6" class="c0"/>
<circle cx="862" cy="960" r="6" class="c0"/>
<circle cx="820" cy="886" r="6" class="c0"/>
<circle cx="920" cy="770" r="6" class="c0"/>
<circle cx="1064" cy="784" r="6" class="c0"/>
<circle cx="946" cy="866" r="6" class="c0"/>
<circle cx="952" cy="748" r="6" class="c0"/>
<circle cx="954" cy="984" r="6" class="c0"/>
<circle cx="1066" cy="846" r="6" class="c0"/>
<circle cx="880" cy="812" r="6" class="c0"/>
<circle cx="824" cy="834" r="6" class="c0"/>
<circle cx="1082" cy="878" r="6" class="c0"/>
<circle cx="892" cy="988" r="6" class="c0"/>
<circle cx="862" cy="788" r="6" class="c0"/>
<circle cx="1052" cy="924" r="6" class="c0"/>
<circle cx="924" cy="918" r="6" class="c0"/>
<circle cx="992" cy="778" r="6" class="c0"/>
<circle cx="1074" cy="918" r="6" class="c0"/>
<circle cx="900" cy="834" r="6" class="c0"/>
<circle cx="1042" cy="844" r="6" class="c0"/>
<circle cx="1030" cy="864" r="6" class="c0"/>
<circle cx="988" cy="862" r="6" class="c0"/>
</svg>
