<?xml version="1.0" encoding="utf-8"?>
<svg xmlns="http://www.w3.org/2000/svg"
     xmlns:xlink="http://www.w3.org/1999/xlink" width="1920" height="1440" >

            <defs>
            <style type="text/css"><![CDATA[
circle {stroke: none;}
.c0 {fill: #000000;}
]]></style>
            </defs>
<rect x="0" y="0" width="1920" height="1440" fill="white"/>
<circle cx="1004" cy="946" r="12" class="c0"/>
<circle cx="886" cy="832" r="12" class="c0"/>
<circle cx="926" cy="950" r="12" class="c0"/>
<circle cx="956" cy="1048" r="12" class="c0"/>
<circle cx="834" cy="910" r="12" class="c0"/>
<circle cx="866" cy="892" r="12" class="c0"/>
<circle cx="1038" cy="812" r="12" class="c0"/>
<circle cx="966" cy="910" r="12" class="c0"/>
<circle cx="1052" cy="982" r="12" class="c0"/>
<circle cx="874" cy="932" r="12" class="c0"/>
<circle cx="952" cy="800" r="10" class="c0"/>
<circle cx="1068" cy="944" r="10" class="c0"/>
<circle cx="970" cy="1012" r="10" class="c0"/>
<circle cx="1046" cy="914" r="10" class="c0"/>
<circle cx="1010" cy="1012" r="10" class="c0"/>
<circle cx="830" cy="874" r="10" class="c0"/>
<circle cx="1036" cy="836" r="10" class="c0"/>
<circle cx="986" cy="996" r="10" class="c0"/>
<circle cx="988" cy="808" r="10" class="c0"/>
<circle cx="932" cy="888" r="10" class="c0"/>
<circle cx="990" cy="1020" r="10" class="c0"/>
<circle cx="840" cy="960" r="10" class="c0"/>
<circle cx="1094" cy="962" r="10" class="c0"/>
<circle cx="910" cy="830" r="10" class="c0"/>
<circle cx="852" cy="848" r="10" class="c0"/>
<circle cx="854" cy="946" r="10" class="c0"/>
<circle cx="930" cy="1002" r="10" class="c0"/>
<circle cx="1106" cy="912" r="10" class="c0"/>
<circle cx="1034" cy="1020" r="10" class="c0"/>
<circle cx="958" cy="880" r="10" class="c0"/>
<circle cx="1076" cy="914" r="10" class="c0"/>
<circle cx="918" cy="920" r="10" class="c0"/>
<circle cx="956" cy="972" r="10" class="c0"/>
<circle cx="946" cy="1016" r="10" class="c0"/>
<circle cx="898" cy="976" r="8" class="c0"/>
<circle cx="918" cy="854" r="8" class="c0"/>
<circle cx="976" cy="942" r="8" class="c0"/>
<circle cx="954" cy="850" r="8" class="c0"/>
<circle cx="946" cy="942" r="8" class="c0"/>
<circle cx="1034" cy="996" r="8" class="c0"/>
<circle cx="970" cy="864" r="8" class="c0"/>
<circle cx="1012" cy="886" r="8" class="c0"/>
<circle cx="1016" cy="984" r="8" class="c0"/>
<circle cx="896" cy="1010" r="8" class="c0"/>
<circle cx="900" cy="954" r="8" class="c0"/>
<circle cx="940" cy="916" r="8" class="c0"/>
<circle cx="948" cy="822" r="8" class="c0"/>
<circle cx="1006" cy="912" r="8" class="c0"/>
<circle cx="1068" cy="880" r="8" class="c0"/>
<circle cx="1022" cy="904" r="8" class="c0"/>
<circle cx="874" cy="872" r="8" class="c0"/>
<circle cx="882" cy="908" r="8" class="c0"/>
<circle cx="1020" cy="826" r="8" class="c0"/>
<circle cx="1024" cy="860" r="8" class="c0"/>
<circle cx="880" cy="992" r="8" class="c0"/>
<circle cx="1094" cy="858" r="8" class="c0"/>
<circle cx="1002" cy="870" r="8" class="c0"/>
<circle cx="900" cy="808" r="8" class="c0"/>
<circle cx="900" cy="912" r="8" class="c0"/>
<circle cx="1088" cy="894" r="8" class="c0"/>
<circle cx="1000" cy="834" r="8" class="c0"/>
<circle cx="976" cy="980" r="8" class="c0"/>
<circle cx="992" cy="928" r="8" class="c0"/>
<circle cx="978" cy="892" r="8" class="c0"/>
<circle cx="1058" cy="824" r="8" class="c0"/>
<circle cx="940" cy="864" r="8" class="c0"/>
<circle cx="1074" cy="968" r="8" class="c0"/>
<circle cx="1052" cy="860" r="8" class="c0"/>
<circle cx="1048" cy="936" r="8" class="c0"/>
<circle cx="864" cy="978" r="8" class="c0"/>
<circle cx="920" cy="814" r="8" class="c0"/>
<circle cx="1098" cy="942" r="8" class="c0"/>
<circle cx="862" cy="1000" r="8" class="c0"/>
<circle cx="936" cy="844" r="8" class="c0"/>
<circle cx="906" cy="874" r="8" class="c0"/>
<circle cx="932" cy="1030" r="8" class="c0"/>
<circle cx="894" cy="854" r="8" class="c0"/>
<circle cx="914" cy="968" r="8" class="c0"/>
<circle cx="954" cy="998" r="8" class="c0"/>
<circle cx="928" cy="794" r="8" class="c0"/>
<circle cx="1000" cy="968" r="8" class="c0"/>
<circle cx="1030" cy="878" r="8" class="c0"/>
<circle cx="966" cy="782" r="8" class="c0"/>
<circle cx="840" cy="934" r="8" class="c0"/>
<circle cx="986" cy="856" r="8" class="c0"/>
<circle cx="962" cy="834" r="8" class="c0"/>
<circle cx="990" cy="882" r="8" class="c0"/>
<circle cx="822" cy="938" r="8" class="c0"/>
<circle cx="862" cy="830" r="8" class="c0"/>
<circle cx="1074" cy="856" r="8" class="c0"/>
<circle cx="1030" cy="938" r="8" class="c0"/>
<circle cx="908" cy="1032" r="8" class="c0"/>
<circle cx="1070" cy="1000" r="8" class="c0"/>
<circle cx="1028" cy="964" r="8" class="c0"/>
<circle cx="904" cy="934" r="8" class="c0"/>
<circle cx="872" cy="846" r="8" class="c0"/>
<circle cx="1064" cy="900" r="8" class="c0"/>
<circle cx="894" cy="886" r="8" class="c0"/>
<circle cx="850" cy="874" r="6" class="c0"/>
<circle cx="1106" cy="876" r="6" class="c0"/>
<circle cx="848" cy="980" r="6" class="c0"/>
<circle cx="870" cy="960" r="6" class="c0"/>
<circle cx="906" cy="990" r="6" class="c0"/>
<circle cx="946" cy="782" r="6" class="c0"/>
<circle cx="1046" cy="962" r="6" class="c0"/>
<circle cx="1008" cy="1032" r="6" class="c0"/>
<circle cx="978" cy="1052" r="6" class="c0"/>
<circle cx="860" cy="920" r="6" class="c0"/>
<circle cx="1046" cy="882" r="6" class="c0"/>
<circle cx="1052" cy="1014" r="6" class="c0"/>
<circle cx="914" cy="890" r="6" class="c0"/>
<circle cx="992" cy="790" r="6" class="c0"/>
<circle cx="952" cy="898" r="6" class="c0"/>
<circle cx="970" cy="806" r="6" class="c0"/>
<circle cx="932" cy="972" r="6" class="c0"/>
<circle cx="878" cy="1016" r="6" class="c0"/>
<circle cx="1090" cy="838" r="6" class="c0"/>
<circle cx="936" cy="808" r="6" class="c0"/>
<circle cx="1014" cy="798" r="6" class="c0"/>
<circle cx="918" cy="1014" r="6" class="c0"/>
<circle cx="1088" cy="982" r="6" class="c0"/>
<circle cx="1024" cy="922" r="6" class="c0"/>
<circle cx="986" cy="1040" r="6" class="c0"/>
<circle cx="962" cy="1028" r="6" class="c0"/>
<circle cx="986" cy="826" r="6" class="c0"/>
<circle cx="928" cy="828" r="6" class="c0"/>
<circle cx="1002" cy="1048" r="6" class="c0"/>
<circle cx="944" cy="986" r="6" class="c0"/>
<circle cx="820" cy="892" r="6" class="c0"/>
<circle cx="958" cy="954" r="6" class="c0"/>
<circle cx="1066" cy="840" r="6" class="c0"/>
<circle cx="990" cy="902" r="6" class="c0"/>
<circle cx="944" cy="958" r="6" class="c0"/>
<circle cx="886" cy="962" r="6" class="c0"/>
<circle cx="838" cy="890" r="6" class="c0"/>
<circle cx="984" cy="964" r="6" class="c0"/>
<circle cx="952" cy="926" r="6" class="c0"/>
<circle cx="882" cy="812" r="6" class="c0"/>
<circle cx="832" cy="856" r="6" class="c0"/>
<circle cx="1082" cy="872" r="6" class="c0"/>
<circle cx="1110" cy="930" r="6" class="c0"/>
<circle cx="922" cy="1040" r="6" class="c0"/>
</svg>
