<?xml version="1.0" encoding="utf-8"?>
<svg xmlns="http://www.w3.org/2000/svg"
     xmlns:xlink="http://www.w3.org/1999/xlink" width="1920" height="1440" >

            <defs>
            <style type="text/css"><![CDATA[
circle {stroke: none;}
.c0 {fill: #000000;}
]]></style>
            </defs>
<rect x="0" y="0" width="1920" height="1440" fill="white"/>
<circle cx="1048" cy="1036" r="12" class="c0"/>
<circle cx="1022" cy="1070" r="12" class="c0"/>
<circle cx="970" cy="972" r="12" class="c0"/>
<circle cx="912" cy="942" r="12" class="c0"/>
<circle cx="908" cy="1020" r="12" class="c0"/>
<circle cx="1076" cy="1004" r="12" class="c0"/>
<circle cx="970" cy="1008" r="12" class="c0"/>
<circle cx="1018" cy="1014" r="12" class="c0"/>
<circle cx="910" cy="966" r="10" class="c0"/>
<circle cx="954" cy="1110" r="10" class="c0"/>
<circle cx="1004" cy="942" r="10" class="c0"/>
<circle cx="878" cy="1006" r="10" class="c0"/>
<circle cx="884" cy="1096" r="10" class="c0"/>
<circle cx="976" cy="1118" r="10" class="c0"/>
<circle cx="964" cy="884" r="10" class="c0"/>
<circle cx="1042" cy="974" r="10" class="c0"/>
<circle cx="956" cy="1084" r="10" class="c0"/>
<circle cx="996" cy="992" r="10" class="c0"/>
<circle cx="942" cy="988" r="10" class="c0"/>
<circle cx="1082" cy="956" r="10" class="c0"/>
<circle cx="1058" cy="906" r="10" class="c0"/>
<circle cx="900" cy="1064" r="10" class="c0"/>
<circle cx="958" cy="946" r="10" class="c0"/>
<circle cx="852" cy="992" r="10" class="c0"/>
<circle cx="986" cy="904" r="10" class="c0"/>
<circle cx="1080" cy="1044" r="10" class="c0"/>
<circle cx="928" cy="1052" r="10" class="c0"/>
<circle cx="904" cy="1118" r="10" class="c0"/>
<circle cx="888" cy="1040" r="10" class="c0"/>
<circle cx="942" cy="964" r="10" class="c0"/>
<circle cx="940" cy="1070" r="10" class="c0"/>
<circle cx="902" cy="994" r="10" class="c0"/>
<circle cx="968" cy="1072" r="8" class="c0"/>
<circle cx="1018" cy="1040" r="8" class="c0"/>
<circle cx="1048" cy="1102" r="8" class="c0"/>
<circle cx="938" cy="926" r="8" class="c0"/>
<circle cx="964" cy="1132" r="8" class="c0"/>
<circle cx="1024" cy="950" r="8" class="c0"/>
<circle cx="994" cy="1096" r="8" class="c0"/>
<circle cx="884" cy="956" r="8" class="c0"/>
<circle cx="868" cy="970" r="8" class="c0"/>
<circle cx="942" cy="906" r="8" class="c0"/>
<circle cx="880" cy="982" r="8" class="c0"/>
<circle cx="936" cy="1026" r="8" class="c0"/>
<circle cx="978" cy="922" r="8" class="c0"/>
<circle cx="1002" cy="1078" r="8" class="c0"/>
<circle cx="846" cy="1036" r="8" class="c0"/>
<circle cx="1022" cy="982" r="8" class="c0"/>
<circle cx="966" cy="1050" r="8" class="c0"/>
<circle cx="982" cy="1062" r="8" class="c0"/>
<circle cx="854" cy="1056" r="8" class="c0"/>
<circle cx="1010" cy="1122" r="8" class="c0"/>
<circle cx="920" cy="1004" r="8" class="c0"/>
<circle cx="928" cy="1110" r="8" class="c0"/>
<circle cx="1008" cy="1056" r="8" class="c0"/>
<circle cx="856" cy="1078" r="8" class="c0"/>
<circle cx="996" cy="964" r="8" class="c0"/>
<circle cx="968" cy="1030" r="8" class="c0"/>
<circle cx="992" cy="1026" r="8" class="c0"/>
<circle cx="1060" cy="990" r="8" class="c0"/>
<circle cx="968" cy="1098" r="8" class="c0"/>
<circle cx="924" cy="1128" r="8" class="c0"/>
<circle cx="1062" cy="1072" r="8" class="c0"/>
<circle cx="982" cy="948" r="8" class="c0"/>
<circle cx="858" cy="1026" r="8" class="c0"/>
<circle cx="1030" cy="1090" r="8" class="c0"/>
<circle cx="1044" cy="1000" r="8" class="c0"/>
<circle cx="880" cy="1068" r="8" class="c0"/>
<circle cx="922" cy="1088" r="8" class="c0"/>
<circle cx="960" cy="912" r="8" class="c0"/>
<circle cx="868" cy="1044" r="8" class="c0"/>
<circle cx="1010" cy="912" r="8" class="c0"/>
<circle cx="1090" cy="1020" r="8" class="c0"/>
<circle cx="982" cy="1082" r="8" class="c0"/>
<circle cx="1044" cy="1060" r="8" class="c0"/>
<circle cx="920" cy="982" r="8" class="c0"/>
<circle cx="946" cy="1008" r="8" class="c0"/>
<circle cx="1074" cy="980" r="8" class="c0"/>
<circle cx="1012" cy="1088" r="8" class="c0"/>
<circle cx="902" cy="1088" r="8" class="c0"/>
<circle cx="1072" cy="1026" r="8" class="c0"/>
<circle cx="842" cy="1018" r="8" class="c0"/>
<circle cx="912" cy="1100" r="8" class="c0"/>
<circle cx="1072" cy="1062" r="8" class="c0"/>
<circle cx="946" cy="1044" r="8" class="c0"/>
<circle cx="930" cy="952" r="8" class="c0"/>
<circle cx="1032" cy="1050" r="8" class="c0"/>
<circle cx="940" cy="1138" r="8" class="c0"/>
<circle cx="1054" cy="1012" r="8" class="c0"/>
<circle cx="1060" cy="1092" r="8" class="c0"/>
<circle cx="982" cy="876" r="8" class="c0"/>
<circle cx="1024" cy="1112" r="8" class="c0"/>
<circle cx="1062" cy="1052" r="8" class="c0"/>
<circle cx="1046" cy="1082" r="8" class="c0"/>
<circle cx="908" cy="1044" r="8" class="c0"/>
<circle cx="990" cy="1044" r="8" class="c0"/>
<circle cx="1000" cy="922" r="8" class="c0"/>
<circle cx="992" cy="1130" r="8" class="c0"/>
<circle cx="1080" cy="1076" r="6" class="c0"/>
<circle cx="956" cy="928" r="6" class="c0"/>
<circle cx="994" cy="1010" r="6" class="c0"/>
<circle cx="916" cy="1072" r="6" class="c0"/>
<circle cx="1014" cy="964" r="6" class="c0"/>
<circle cx="1006" cy="974" r="6" class="c0"/>
<circle cx="962" cy="990" r="6" class="c0"/>
<circle cx="974" cy="1142" r="6" class="c0"/>
<circle cx="1032" cy="1026" r="6" class="c0"/>
<circle cx="926" cy="914" r="6" class="c0"/>
<circle cx="988" cy="932" r="6" class="c0"/>
<circle cx="956" cy="1020" r="6" class="c0"/>
<circle cx="876" cy="1028" r="6" class="c0"/>
<circle cx="872" cy="1082" r="6" class="c0"/>
<circle cx="1008" cy="1030" r="6" class="c0"/>
<circle cx="892" cy="972" r="6" class="c0"/>
<circle cx="956" cy="1060" r="6" class="c0"/>
<circle cx="864" cy="1092" r="6" class="c0"/>
<circle cx="994" cy="888" r="6" class="c0"/>
<circle cx="1092" cy="972" r="6" class="c0"/>
<circle cx="922" cy="1034" r="6" class="c0"/>
<circle cx="1060" cy="968" r="6" class="c0"/>
<circle cx="938" cy="1096" r="6" class="c0"/>
<circle cx="1106" cy="1012" r="6" class="c0"/>
<circle cx="856" cy="1010" r="6" class="c0"/>
<circle cx="938" cy="1120" r="6" class="c0"/>
<circle cx="1008" cy="1106" r="6" class="c0"/>
<circle cx="940" cy="942" r="6" class="c0"/>
<circle cx="1028" cy="998" r="6" class="c0"/>
<circle cx="978" cy="990" r="6" class="c0"/>
<circle cx="994" cy="1114" r="6" class="c0"/>
<circle cx="890" cy="1078" r="6" class="c0"/>
<circle cx="1092" cy="1060" r="6" class="c0"/>
<circle cx="952" cy="896" r="6" class="c0"/>
<circle cx="1040" cy="956" r="6" class="c0"/>
<circle cx="1030" cy="894" r="6" class="c0"/>
<circle cx="1106" cy="1044" r="6" class="c0"/>
</svg>
