<?xml version="1.0" encoding="utf-8"?>
<svg xmlns="http://www.w3.org/2000/svg"
     xmlns:xlink="http://www.w3.org/1999/xlink" width="1920" height="1440" >

            <defs>
            <style type="text/css"><![CDATA[
circle {stroke: none;}
.c0 {fill: #000000;}
]]></style>
            </defs>
<rect x="0" y="0" width="1920" height="1440" fill="white"/>
<circle cx="980" cy="884" r="12" class="c0"/>
<circle cx="972" cy="1018" r="12" class="c0"/>
<circle cx="1070" cy="1034" r="12" class="c0"/>
<circle cx="1052" cy="976" r="12" class="c0"/>
<circle cx="888" cy="1054" r="12" class="c0"/>
<circle cx="934" cy="970" r="12" class="c0"/>
<circle cx="942" cy="1096" r="12" class="c0"/>
<circle cx="978" cy="1094" r="10" class="c0"/>
<circle cx="1004" cy="1034" r="10" class="c0"/>
<circle cx="1036" cy="1096" r="10" class="c0"/>
<circle cx="926" cy="946" r="10" class="c0"/>
<circle cx="960" cy="1074" r="10" class="c0"/>
<circle cx="1020" cy="1016" r="10" class="c0"/>
<circle cx="1008" cy="1086" r="10" class="c0"/>
<circle cx="978" cy="984" r="10" class="c0"/>
<circle cx="986" cy="1128" r="10" class="c0"/>
<circle cx="956" cy="1110" r="10" class="c0"/>
<circle cx="900" cy="1078" r="10" class="c0"/>
<circle cx="964" cy="972" r="10" class="c0"/>
<circle cx="954" cy="934" r="10" class="c0"/>
<circle cx="932" cy="924" r="10" class="c0"/>
<circle cx="918" cy="1028" r="10" class="c0"/>
<circle cx="986" cy="950" r="10" class="c0"/>
<circle cx="878" cy="994" r="10" class="c0"/>
<circle cx="1054" cy="1006" r="10" class="c0"/>
<circle cx="988" cy="1046" r="10" class="c0"/>
<circle cx="926" cy="994" r="10" class="c0"/>
<circle cx="922" cy="1056" r="10" class="c0"/>
<circle cx="1016" cy="954" r="10" class="c0"/>
<circle cx="1076" cy="1010" r="10" class="c0"/>
<circle cx="1048" cy="1058" r="10" class="c0"/>
<circle cx="892" cy="1104" r="10" class="c0"/>
<circle cx="1064" cy="1088" r="10" class="c0"/>
<circle cx="922" cy="1080" r="10" class="c0"/>
<circle cx="918" cy="1118" r="10" class="c0"/>
<circle cx="1030" cy="990" r="10" class="c0"/>
<circle cx="996" cy="1108" r="10" class="c0"/>
<circle cx="878" cy="972" r="8" class="c0"/>
<circle cx="904" cy="1002" r="8" class="c0"/>
<circle cx="1000" cy="992" r="8" class="c0"/>
<circle cx="1056" cy="950" r="8" class="c0"/>
<circle cx="856" cy="982" r="8" class="c0"/>
<circle cx="966" cy="912" r="8" class="c0"/>
<circle cx="1012" cy="1062" r="8" class="c0"/>
<circle cx="886" cy="1028" r="8" class="c0"/>
<circle cx="964" cy="1054" r="8" class="c0"/>
<circle cx="994" cy="918" r="8" class="c0"/>
<circle cx="1070" cy="988" r="8" class="c0"/>
<circle cx="1018" cy="904" r="8" class="c0"/>
<circle cx="900" cy="962" r="8" class="c0"/>
<circle cx="940" cy="1038" r="8" class="c0"/>
<circle cx="1086" cy="1066" r="8" class="c0"/>
<circle cx="844" cy="1020" r="8" class="c0"/>
<circle cx="1024" cy="1074" r="8" class="c0"/>
<circle cx="948" cy="1010" r="8" class="c0"/>
<circle cx="948" cy="954" r="8" class="c0"/>
<circle cx="1032" cy="964" r="8" class="c0"/>
<circle cx="1030" cy="1044" r="8" class="c0"/>
<circle cx="954" cy="1140" r="8" class="c0"/>
<circle cx="1006" cy="936" r="8" class="c0"/>
<circle cx="880" cy="1088" r="8" class="c0"/>
<circle cx="946" cy="1056" r="8" class="c0"/>
<circle cx="868" cy="1018" r="8" class="c0"/>
<circle cx="1006" cy="972" r="8" class="c0"/>
<circle cx="986" cy="1076" r="8" class="c0"/>
<circle cx="944" cy="1124" r="8" class="c0"/>
<circle cx="1076" cy="954" r="8" class="c0"/>
<circle cx="902" cy="982" r="8" class="c0"/>
<circle cx="850" cy="1054" r="8" class="c0"/>
<circle cx="1024" cy="1120" r="8" class="c0"/>
<circle cx="954" cy="896" r="8" class="c0"/>
<circle cx="854" cy="1008" r="8" class="c0"/>
<circle cx="960" cy="994" r="8" class="c0"/>
<circle cx="1034" cy="922" r="8" class="c0"/>
<circle cx="866" cy="1074" r="8" class="c0"/>
<circle cx="904" cy="1040" r="8" class="c0"/>
<circle cx="932" cy="1134" r="8" class="c0"/>
<circle cx="976" cy="928" r="8" class="c0"/>
<circle cx="938" cy="1020" r="8" class="c0"/>
<circle cx="1068" cy="1060" r="8" class="c0"/>
<circle cx="988" cy="1006" r="8" class="c0"/>
<circle cx="1098" cy="1000" r="8" class="c0"/>
<circle cx="862" cy="1036" r="8" class="c0"/>
<circle cx="958" cy="1032" r="8" class="c0"/>
<circle cx="910" cy="1096" r="8" class="c0"/>
<circle cx="960" cy="876" r="8" class="c0"/>
<circle cx="944" cy="906" r="8" class="c0"/>
<circle cx="976" cy="1064" r="8" class="c0"/>
<circle cx="1060" cy="894" r="8" class="c0"/>
<circle cx="1044" cy="1032" r="8" class="c0"/>
<circle cx="1098" cy="980" r="8" class="c0"/>
<circle cx="896" cy="1018" r="8" class="c0"/>
<circle cx="1058" cy="926" r="8" class="c0"/>
<circle cx="1000" cy="900" r="8" class="c0"/>
<circle cx="1046" cy="1080" r="8" class="c0"/>
<circle cx="966" cy="1130" r="8" class="c0"/>
<circle cx="1006" cy="1122" r="6" class="c0"/>
<circle cx="1054" cy="1102" r="6" class="c0"/>
<circle cx="1090" cy="1038" r="6" class="c0"/>
<circle cx="1082" cy="1048" r="6" class="c0"/>
<circle cx="998" cy="1016" r="6" class="c0"/>
<circle cx="866" cy="1056" r="6" class="c0"/>
<circle cx="968" cy="944" r="6" class="c0"/>
<circle cx="916" cy="932" r="6" class="c0"/>
<circle cx="950" cy="984" r="6" class="c0"/>
<circle cx="996" cy="1066" r="6" class="c0"/>
<circle cx="1046" cy="1110" r="6" class="c0"/>
<circle cx="1014" cy="1106" r="6" class="c0"/>
<circle cx="908" cy="944" r="6" class="c0"/>
<circle cx="936" cy="1068" r="6" class="c0"/>
<circle cx="846" cy="1038" r="6" class="c0"/>
<circle cx="864" cy="1090" r="6" class="c0"/>
<circle cx="1022" cy="974" r="6" class="c0"/>
<circle cx="974" cy="1116" r="6" class="c0"/>
<circle cx="990" cy="970" r="6" class="c0"/>
<circle cx="1040" cy="1016" r="6" class="c0"/>
<circle cx="1088" cy="1024" r="6" class="c0"/>
<circle cx="912" cy="972" r="6" class="c0"/>
<circle cx="900" cy="1120" r="6" class="c0"/>
<circle cx="982" cy="904" r="6" class="c0"/>
<circle cx="884" cy="956" r="6" class="c0"/>
<circle cx="1104" cy="942" r="6" class="c0"/>
<circle cx="846" cy="994" r="6" class="c0"/>
<circle cx="1010" cy="1002" r="6" class="c0"/>
</svg>
