<?xml version="1.0" encoding="utf-8"?>
<svg xmlns="http://www.w3.org/2000/svg"
     xmlns:xlink="http://www.w3.org/1999/xlink" width="1920" height="1440" >

            <defs>
            <style type="text/css"><![CDATA[
circle {stroke: none;}
.c0 {fill: #000000;}
]]></style>
            </defs>
<rect x="0" y="0" width="1920" height="1440" fill="white"/>
<circle cx="894" cy="1020" r="14" class="c0"/>
<circle cx="946" cy="1080" r="12" class="c0"/>
<circle cx="948" cy="910" r="12" class="c0"/>
<circle cx="944" cy="1112" r="12" class="c0"/>
<circle cx="974" cy="994" r="12" class="c0"/>
<circle cx="924" cy="940" r="12" class="c0"/>
<circle cx="856" cy="1024" r="12" class="c0"/>
<circle cx="978" cy="938" r="12" class="c0"/>
<circle cx="942" cy="992" r="12" class="c0"/>
<circle cx="964" cy="972" r="10" class="c0"/>
<circle cx="1000" cy="970" r="10" class="c0"/>
<circle cx="1052" cy="1032" r="10" class="c0"/>
<circle cx="1018" cy="1068" r="10" class="c0"/>
<circle cx="968" cy="1110" r="10" class="c0"/>
<circle cx="1046" cy="1060" r="10" class="c0"/>
<circle cx="1058" cy="1002" r="10" class="c0"/>
<circle cx="928" cy="1096" r="10" class="c0"/>
<circle cx="932" cy="962" r="10" class="c0"/>
<circle cx="860" cy="1052" r="10" class="c0"/>
<circle cx="1000" cy="1032" r="10" class="c0"/>
<circle cx="1004" cy="1080" r="10" class="c0"/>
<circle cx="1048" cy="1082" r="10" class="c0"/>
<circle cx="1034" cy="1104" r="10" class="c0"/>
<circle cx="992" cy="924" r="10" class="c0"/>
<circle cx="1012" cy="1046" r="10" class="c0"/>
<circle cx="924" cy="1132" r="10" class="c0"/>
<circle cx="990" cy="890" r="10" class="c0"/>
<circle cx="972" cy="1082" r="10" class="c0"/>
<circle cx="942" cy="1020" r="10" class="c0"/>
<circle cx="884" cy="1074" r="10" class="c0"/>
<circle cx="1002" cy="944" r="10" class="c0"/>
<circle cx="920" cy="1018" r="10" class="c0"/>
<circle cx="900" cy="1104" r="10" class="c0"/>
<circle cx="872" cy="1088" r="10" class="c0"/>
<circle cx="916" cy="1052" r="10" class="c0"/>
<circle cx="1004" cy="990" r="8" class="c0"/>
<circle cx="968" cy="894" r="8" class="c0"/>
<circle cx="980" cy="1022" r="8" class="c0"/>
<circle cx="992" cy="868" r="8" class="c0"/>
<circle cx="952" cy="1048" r="8" class="c0"/>
<circle cx="982" cy="1058" r="8" class="c0"/>
<circle cx="1024" cy="1028" r="8" class="c0"/>
<circle cx="910" cy="964" r="8" class="c0"/>
<circle cx="982" cy="1126" r="8" class="c0"/>
<circle cx="1082" cy="1040" r="8" class="c0"/>
<circle cx="1070" cy="1084" r="8" class="c0"/>
<circle cx="1024" cy="1126" r="8" class="c0"/>
<circle cx="996" cy="1106" r="8" class="c0"/>
<circle cx="904" cy="990" r="8" class="c0"/>
<circle cx="916" cy="916" r="8" class="c0"/>
<circle cx="870" cy="1004" r="8" class="c0"/>
<circle cx="1068" cy="1018" r="8" class="c0"/>
<circle cx="854" cy="992" r="8" class="c0"/>
<circle cx="1066" cy="1050" r="8" class="c0"/>
<circle cx="962" cy="1028" r="8" class="c0"/>
<circle cx="1040" cy="1018" r="8" class="c0"/>
<circle cx="858" cy="1074" r="8" class="c0"/>
<circle cx="1082" cy="910" r="8" class="c0"/>
<circle cx="892" cy="978" r="8" class="c0"/>
<circle cx="906" cy="1070" r="8" class="c0"/>
<circle cx="1022" cy="980" r="8" class="c0"/>
<circle cx="874" cy="986" r="8" class="c0"/>
<circle cx="1004" cy="1124" r="8" class="c0"/>
<circle cx="950" cy="1146" r="8" class="c0"/>
<circle cx="926" cy="894" r="8" class="c0"/>
<circle cx="912" cy="1116" r="8" class="c0"/>
<circle cx="976" cy="914" r="8" class="c0"/>
<circle cx="842" cy="1044" r="8" class="c0"/>
<circle cx="978" cy="1146" r="8" class="c0"/>
<circle cx="1040" cy="988" r="8" class="c0"/>
<circle cx="1030" cy="946" r="8" class="c0"/>
<circle cx="952" cy="932" r="8" class="c0"/>
<circle cx="896" cy="1056" r="8" class="c0"/>
<circle cx="918" cy="980" r="8" class="c0"/>
<circle cx="1010" cy="1010" r="8" class="c0"/>
<circle cx="932" cy="1040" r="8" class="c0"/>
<circle cx="872" cy="1040" r="8" class="c0"/>
<circle cx="1060" cy="932" r="8" class="c0"/>
<circle cx="1010" cy="876" r="8" class="c0"/>
<circle cx="1078" cy="936" r="8" class="c0"/>
<circle cx="1016" cy="1096" r="8" class="c0"/>
<circle cx="992" cy="1006" r="8" class="c0"/>
<circle cx="972" cy="1046" r="8" class="c0"/>
<circle cx="1006" cy="900" r="8" class="c0"/>
<circle cx="1040" cy="926" r="8" class="c0"/>
<circle cx="900" cy="946" r="8" class="c0"/>
<circle cx="1096" cy="964" r="8" class="c0"/>
<circle cx="1080" cy="1060" r="8" class="c0"/>
<circle cx="1042" cy="1122" r="8" class="c0"/>
<circle cx="960" cy="1064" r="8" class="c0"/>
<circle cx="954" cy="950" r="8" class="c0"/>
<circle cx="960" cy="1136" r="8" class="c0"/>
<circle cx="988" cy="956" r="8" class="c0"/>
<circle cx="1028" cy="1000" r="8" class="c0"/>
<circle cx="1014" cy="960" r="6" class="c0"/>
<circle cx="1000" cy="1062" r="6" class="c0"/>
<circle cx="952" cy="886" r="6" class="c0"/>
<circle cx="886" cy="998" r="6" class="c0"/>
<circle cx="934" cy="1066" r="6" class="c0"/>
<circle cx="1002" cy="1140" r="6" class="c0"/>
<circle cx="1010" cy="920" r="6" class="c0"/>
<circle cx="936" cy="884" r="6" class="c0"/>
<circle cx="904" cy="930" r="6" class="c0"/>
<circle cx="974" cy="870" r="6" class="c0"/>
<circle cx="1062" cy="1068" r="6" class="c0"/>
<circle cx="1066" cy="904" r="6" class="c0"/>
<circle cx="1084" cy="1020" r="6" class="c0"/>
<circle cx="1034" cy="1048" r="6" class="c0"/>
<circle cx="880" cy="968" r="6" class="c0"/>
<circle cx="934" cy="924" r="6" class="c0"/>
<circle cx="986" cy="1092" r="6" class="c0"/>
<circle cx="900" cy="1126" r="6" class="c0"/>
<circle cx="1030" cy="1086" r="6" class="c0"/>
<circle cx="960" cy="1094" r="6" class="c0"/>
<circle cx="894" cy="962" r="6" class="c0"/>
<circle cx="908" cy="1036" r="6" class="c0"/>
<circle cx="982" cy="974" r="6" class="c0"/>
<circle cx="1056" cy="1098" r="6" class="c0"/>
<circle cx="992" cy="1048" r="6" class="c0"/>
<circle cx="956" cy="1008" r="6" class="c0"/>
<circle cx="920" cy="998" r="6" class="c0"/>
<circle cx="896" cy="1086" r="6" class="c0"/>
<circle cx="922" cy="1076" r="6" class="c0"/>
<circle cx="846" cy="1062" r="6" class="c0"/>
<circle cx="914" cy="1086" r="6" class="c0"/>
<circle cx="1032" cy="970" r="6" class="c0"/>
<circle cx="880" cy="1104" r="6" class="c0"/>
<circle cx="1014" cy="1114" r="6" class="c0"/>
<circle cx="846" cy="1006" r="6" class="c0"/>
<circle cx="1084" cy="1076" r="6" class="c0"/>
<circle cx="878" cy="1056" r="6" class="c0"/>
<circle cx="1062" cy="960" r="6" class="c0"/>
<circle cx="962" cy="922" r="6" class="c0"/>
<circle cx="890" cy="1118" r="6" class="c0"/>
<circle cx="966" cy="878" r="6" class="c0"/>
<circle cx="1056" cy="1114" r="6" class="c0"/>
<circle cx="908" cy="1006" r="6" class="c0"/>
<circle cx="942" cy="1058" r="6" class="c0"/>
</svg>
