<?xml version="1.0" encoding="utf-8"?>
<svg xmlns="http://www.w3.org/2000/svg"
     xmlns:xlink="http://www.w3.org/1999/xlink" width="1920" height="1440" >

            <defs>
            <style type="text/css"><![CDATA[
circle {stroke: none;}
.c0 {fill: #000000;}
]]></style>
            </defs>
<rect x="0" y="0" width="1920" height="1440" fill="white"/>
<circle cx="1014" cy="948" r="12" class="c0"/>
<circle cx="916" cy="986" r="12" class="c0"/>
<circle cx="994" cy="908" r="12" class="c0"/>
<circle cx="1034" cy="872" r="12" class="c0"/>
<circle cx="914" cy="1090" r="12" class="c0"/>
<circle cx="894" cy="1108" r="12" class="c0"/>
<circle cx="1000" cy="1150" r="12" class="c0"/>
<circle cx="882" cy="1036" r="12" class="c0"/>
<circle cx="880" cy="1068" r="12" class="c0"/>
<circle cx="1022" cy="912" r="12" class="c0"/>
<circle cx="1006" cy="1018" r="12" class="c0"/>
<circle cx="962" cy="976" r="12" class="c0"/>
<circle cx="930" cy="1110" r="12" class="c0"/>
<circle cx="906" cy="960" r="10" class="c0"/>
<circle cx="908" cy="1044" r="10" class="c0"/>
<circle cx="960" cy="1154" r="10" class="c0"/>
<circle cx="1044" cy="1100" r="10" class="c0"/>
<circle cx="856" cy="1044" r="10" class="c0"/>
<circle cx="916" cy="906" r="10" class="c0"/>
<circle cx="932" cy="924" r="10" class="c0"/>
<circle cx="974" cy="840" r="10" class="c0"/>
<circle cx="960" cy="852" r="10" class="c0"/>
<circle cx="946" cy="1096" r="10" class="c0"/>
<circle cx="998" cy="1086" r="10" class="c0"/>
<circle cx="994" cy="1122" r="10" class="c0"/>
<circle cx="916" cy="1166" r="10" class="c0"/>
<circle cx="952" cy="874" r="10" class="c0"/>
<circle cx="1004" cy="1050" r="10" class="c0"/>
<circle cx="978" cy="1042" r="10" class="c0"/>
<circle cx="956" cy="1024" r="10" class="c0"/>
<circle cx="862" cy="1104" r="8" class="c0"/>
<circle cx="1022" cy="1060" r="8" class="c0"/>
<circle cx="962" cy="952" r="8" class="c0"/>
<circle cx="982" cy="954" r="8" class="c0"/>
<circle cx="1014" cy="862" r="8" class="c0"/>
<circle cx="1042" cy="1132" r="8" class="c0"/>
<circle cx="920" cy="868" r="8" class="c0"/>
<circle cx="984" cy="1162" r="8" class="c0"/>
<circle cx="1016" cy="1102" r="8" class="c0"/>
<circle cx="964" cy="924" r="8" class="c0"/>
<circle cx="980" cy="988" r="8" class="c0"/>
<circle cx="942" cy="1046" r="8" class="c0"/>
<circle cx="948" cy="1128" r="8" class="c0"/>
<circle cx="944" cy="822" r="8" class="c0"/>
<circle cx="958" cy="808" r="8" class="c0"/>
<circle cx="978" cy="1080" r="8" class="c0"/>
<circle cx="920" cy="1132" r="8" class="c0"/>
<circle cx="902" cy="1130" r="8" class="c0"/>
<circle cx="996" cy="842" r="8" class="c0"/>
<circle cx="1032" cy="1044" r="8" class="c0"/>
<circle cx="902" cy="878" r="8" class="c0"/>
<circle cx="932" cy="958" r="8" class="c0"/>
<circle cx="924" cy="1062" r="8" class="c0"/>
<circle cx="960" cy="1110" r="8" class="c0"/>
<circle cx="1058" cy="1084" r="8" class="c0"/>
<circle cx="846" cy="1066" r="8" class="c0"/>
<circle cx="996" cy="882" r="8" class="c0"/>
<circle cx="984" cy="1102" r="8" class="c0"/>
<circle cx="938" cy="1016" r="8" class="c0"/>
<circle cx="1030" cy="1084" r="8" class="c0"/>
<circle cx="1032" cy="934" r="8" class="c0"/>
<circle cx="970" cy="890" r="8" class="c0"/>
<circle cx="908" cy="1148" r="8" class="c0"/>
<circle cx="922" cy="846" r="8" class="c0"/>
<circle cx="900" cy="1024" r="8" class="c0"/>
<circle cx="950" cy="1004" r="8" class="c0"/>
<circle cx="976" cy="1006" r="8" class="c0"/>
<circle cx="976" cy="1062" r="8" class="c0"/>
<circle cx="926" cy="828" r="8" class="c0"/>
<circle cx="984" cy="936" r="8" class="c0"/>
<circle cx="1022" cy="1124" r="8" class="c0"/>
<circle cx="1004" cy="930" r="8" class="c0"/>
<circle cx="928" cy="1154" r="8" class="c0"/>
<circle cx="1052" cy="1052" r="8" class="c0"/>
<circle cx="1020" cy="1162" r="8" class="c0"/>
<circle cx="896" cy="976" r="8" class="c0"/>
<circle cx="872" cy="996" r="8" class="c0"/>
<circle cx="1020" cy="1182" r="8" class="c0"/>
<circle cx="986" cy="822" r="8" class="c0"/>
<circle cx="998" cy="994" r="8" class="c0"/>
<circle cx="904" cy="1068" r="8" class="c0"/>
<circle cx="950" cy="936" r="8" class="c0"/>
<circle cx="856" cy="1014" r="8" class="c0"/>
<circle cx="1102" cy="1010" r="8" class="c0"/>
<circle cx="872" cy="1122" r="8" class="c0"/>
<circle cx="1062" cy="1108" r="8" class="c0"/>
<circle cx="976" cy="872" r="8" class="c0"/>
<circle cx="1034" cy="896" r="8" class="c0"/>
<circle cx="1028" cy="1020" r="8" class="c0"/>
<circle cx="970" cy="1138" r="8" class="c0"/>
<circle cx="1008" cy="894" r="8" class="c0"/>
<circle cx="1074" cy="1072" r="8" class="c0"/>
<circle cx="962" cy="1052" r="8" class="c0"/>
<circle cx="934" cy="858" r="8" class="c0"/>
<circle cx="938" cy="886" r="6" class="c0"/>
<circle cx="894" cy="1006" r="6" class="c0"/>
<circle cx="988" cy="862" r="6" class="c0"/>
<circle cx="920" cy="1014" r="6" class="c0"/>
<circle cx="964" cy="1094" r="6" class="c0"/>
<circle cx="940" cy="1078" r="6" class="c0"/>
<circle cx="1026" cy="1144" r="6" class="c0"/>
<circle cx="856" cy="1078" r="6" class="c0"/>
<circle cx="914" cy="926" r="6" class="c0"/>
<circle cx="1014" cy="1074" r="6" class="c0"/>
<circle cx="938" cy="994" r="6" class="c0"/>
<circle cx="954" cy="834" r="6" class="c0"/>
<circle cx="870" cy="1086" r="6" class="c0"/>
<circle cx="1014" cy="1138" r="6" class="c0"/>
<circle cx="1044" cy="1072" r="6" class="c0"/>
<circle cx="948" cy="894" r="6" class="c0"/>
<circle cx="930" cy="974" r="6" class="c0"/>
<circle cx="898" cy="1158" r="6" class="c0"/>
<circle cx="882" cy="1014" r="6" class="c0"/>
<circle cx="890" cy="1144" r="6" class="c0"/>
<circle cx="892" cy="1052" r="6" class="c0"/>
<circle cx="944" cy="912" r="6" class="c0"/>
<circle cx="958" cy="1078" r="6" class="c0"/>
<circle cx="894" cy="1080" r="6" class="c0"/>
<circle cx="960" cy="902" r="6" class="c0"/>
<circle cx="844" cy="1030" r="6" class="c0"/>
<circle cx="1016" cy="880" r="6" class="c0"/>
<circle cx="918" cy="886" r="6" class="c0"/>
<circle cx="948" cy="960" r="6" class="c0"/>
<circle cx="1012" cy="846" r="6" class="c0"/>
<circle cx="972" cy="1120" r="6" class="c0"/>
<circle cx="870" cy="1022" r="6" class="c0"/>
<circle cx="920" cy="940" r="6" class="c0"/>
<circle cx="946" cy="1064" r="6" class="c0"/>
<circle cx="926" cy="1032" r="6" class="c0"/>
<circle cx="1016" cy="1034" r="6" class="c0"/>
<circle cx="992" cy="976" r="6" class="c0"/>
<circle cx="940" cy="838" r="6" class="c0"/>
<circle cx="972" cy="910" r="6" class="c0"/>
<circle cx="1030" cy="1110" r="6" class="c0"/>
<circle cx="944" cy="1146" r="6" class="c0"/>
<circle cx="990" cy="1070" r="6" class="c0"/>
<circle cx="936" cy="1138" r="6" class="c0"/>
<circle cx="946" cy="1164" r="6" class="c0"/>
<circle cx="934" cy="942" r="6" class="c0"/>
<circle cx="968" cy="820" r="6" class="c0"/>
<circle cx="1050" cy="1118" r="6" class="c0"/>
<circle cx="880" cy="978" r="6" class="c0"/>
</svg>
