<?xml version="1.0" encoding="utf-8"?>
<svg xmlns="http://www.w3.org/2000/svg"
     xmlns:xlink="http://www.w3.org/1999/xlink" width="1920" height="1440" >

            <defs>
            <style type="text/css"><![CDATA[
circle {stroke: none;}
.c0 {fill: #000000;}
]]></style>
            </defs>
<rect x="0" y="0" width="1920" height="1440" fill="white"/>
<circle cx="928" cy="880" r="12" class="c0"/>
<circle cx="994" cy="926" r="12" class="c0"/>
<circle cx="902" cy="1160" r="12" class="c0"/>
<circle cx="970" cy="1018" r="12" class="c0"/>
<circle cx="958" cy="1048" r="12" class="c0"/>
<circle cx="980" cy="828" r="12" class="c0"/>
<circle cx="944" cy="844" r="12" class="c0"/>
<circle cx="984" cy="950" r="12" class="c0"/>
<circle cx="1006" cy="1116" r="10" class="c0"/>
<circle cx="1014" cy="896" r="10" class="c0"/>
<circle cx="928" cy="916" r="10" class="c0"/>
<circle cx="960" cy="1110" r="10" class="c0"/>
<circle cx="932" cy="1004" r="10" class="c0"/>
<circle cx="922" cy="1086" r="10" class="c0"/>
<circle cx="884" cy="1106" r="10" class="c0"/>
<circle cx="868" cy="1010" r="10" class="c0"/>
<circle cx="1016" cy="1078" r="10" class="c0"/>
<circle cx="928" cy="1140" r="10" class="c0"/>
<circle cx="910" cy="1020" r="10" class="c0"/>
<circle cx="978" cy="1158" r="10" class="c0"/>
<circle cx="912" cy="824" r="10" class="c0"/>
<circle cx="940" cy="782" r="10" class="c0"/>
<circle cx="872" cy="1066" r="10" class="c0"/>
<circle cx="956" cy="918" r="10" class="c0"/>
<circle cx="882" cy="1148" r="10" class="c0"/>
<circle cx="984" cy="996" r="10" class="c0"/>
<circle cx="984" cy="1124" r="10" class="c0"/>
<circle cx="934" cy="808" r="10" class="c0"/>
<circle cx="948" cy="958" r="10" class="c0"/>
<circle cx="950" cy="1080" r="10" class="c0"/>
<circle cx="988" cy="1070" r="10" class="c0"/>
<circle cx="942" cy="1162" r="10" class="c0"/>
<circle cx="992" cy="1104" r="10" class="c0"/>
<circle cx="1036" cy="946" r="10" class="c0"/>
<circle cx="942" cy="986" r="10" class="c0"/>
<circle cx="888" cy="986" r="10" class="c0"/>
<circle cx="888" cy="1018" r="10" class="c0"/>
<circle cx="1000" cy="1016" r="10" class="c0"/>
<circle cx="1006" cy="1162" r="10" class="c0"/>
<circle cx="972" cy="1180" r="10" class="c0"/>
<circle cx="852" cy="1096" r="10" class="c0"/>
<circle cx="970" cy="882" r="10" class="c0"/>
<circle cx="988" cy="1040" r="10" class="c0"/>
<circle cx="1036" cy="1128" r="10" class="c0"/>
<circle cx="1016" cy="1046" r="10" class="c0"/>
<circle cx="918" cy="948" r="8" class="c0"/>
<circle cx="974" cy="856" r="8" class="c0"/>
<circle cx="940" cy="898" r="8" class="c0"/>
<circle cx="1040" cy="1082" r="8" class="c0"/>
<circle cx="974" cy="774" r="8" class="c0"/>
<circle cx="1006" cy="960" r="8" class="c0"/>
<circle cx="1050" cy="878" r="8" class="c0"/>
<circle cx="910" cy="1070" r="8" class="c0"/>
<circle cx="1042" cy="1148" r="8" class="c0"/>
<circle cx="930" cy="970" r="8" class="c0"/>
<circle cx="930" cy="1056" r="8" class="c0"/>
<circle cx="992" cy="1212" r="8" class="c0"/>
<circle cx="912" cy="866" r="8" class="c0"/>
<circle cx="962" cy="788" r="8" class="c0"/>
<circle cx="950" cy="878" r="8" class="c0"/>
<circle cx="1030" cy="1158" r="8" class="c0"/>
<circle cx="888" cy="1046" r="8" class="c0"/>
<circle cx="902" cy="998" r="8" class="c0"/>
<circle cx="978" cy="800" r="8" class="c0"/>
<circle cx="926" cy="1112" r="8" class="c0"/>
<circle cx="908" cy="1128" r="8" class="c0"/>
<circle cx="854" cy="1044" r="8" class="c0"/>
<circle cx="912" cy="978" r="8" class="c0"/>
<circle cx="1012" cy="1190" r="8" class="c0"/>
<circle cx="914" cy="1040" r="8" class="c0"/>
<circle cx="970" cy="1088" r="8" class="c0"/>
<circle cx="962" cy="818" r="8" class="c0"/>
<circle cx="938" cy="1034" r="8" class="c0"/>
<circle cx="1026" cy="928" r="8" class="c0"/>
<circle cx="1036" cy="858" r="8" class="c0"/>
<circle cx="972" cy="932" r="8" class="c0"/>
<circle cx="886" cy="1086" r="8" class="c0"/>
<circle cx="996" cy="804" r="8" class="c0"/>
<circle cx="868" cy="1134" r="8" class="c0"/>
<circle cx="972" cy="904" r="8" class="c0"/>
<circle cx="902" cy="964" r="8" class="c0"/>
<circle cx="1018" cy="1144" r="8" class="c0"/>
<circle cx="1028" cy="1062" r="8" class="c0"/>
<circle cx="972" cy="970" r="8" class="c0"/>
<circle cx="1032" cy="1108" r="8" class="c0"/>
<circle cx="854" cy="1120" r="8" class="c0"/>
<circle cx="1062" cy="1090" r="8" class="c0"/>
<circle cx="1036" cy="894" r="8" class="c0"/>
<circle cx="1050" cy="1116" r="8" class="c0"/>
<circle cx="948" cy="1122" r="8" class="c0"/>
<circle cx="1050" cy="1168" r="8" class="c0"/>
<circle cx="872" cy="1032" r="8" class="c0"/>
<circle cx="918" cy="898" r="8" class="c0"/>
<circle cx="938" cy="934" r="8" class="c0"/>
<circle cx="1044" cy="922" r="8" class="c0"/>
<circle cx="904" cy="1102" r="8" class="c0"/>
<circle cx="964" cy="994" r="8" class="c0"/>
<circle cx="1098" cy="1104" r="8" class="c0"/>
<circle cx="1016" cy="940" r="8" class="c0"/>
<circle cx="1024" cy="878" r="8" class="c0"/>
<circle cx="922" cy="842" r="8" class="c0"/>
<circle cx="1024" cy="1216" r="8" class="c0"/>
<circle cx="918" cy="1174" r="8" class="c0"/>
<circle cx="934" cy="1198" r="8" class="c0"/>
<circle cx="952" cy="1006" r="8" class="c0"/>
<circle cx="986" cy="892" r="8" class="c0"/>
<circle cx="944" cy="1100" r="8" class="c0"/>
<circle cx="1010" cy="1230" r="8" class="c0"/>
<circle cx="1016" cy="916" r="8" class="c0"/>
<circle cx="886" cy="1128" r="8" class="c0"/>
<circle cx="960" cy="1144" r="8" class="c0"/>
<circle cx="916" cy="792" r="8" class="c0"/>
<circle cx="988" cy="784" r="8" class="c0"/>
<circle cx="1028" cy="966" r="8" class="c0"/>
<circle cx="950" cy="798" r="8" class="c0"/>
<circle cx="996" cy="1144" r="8" class="c0"/>
<circle cx="954" cy="1200" r="8" class="c0"/>
<circle cx="850" cy="1074" r="8" class="c0"/>
<circle cx="992" cy="1188" r="8" class="c0"/>
<circle cx="948" cy="1182" r="8" class="c0"/>
<circle cx="864" cy="1108" r="8" class="c0"/>
<circle cx="1118" cy="1096" r="8" class="c0"/>
<circle cx="1072" cy="1110" r="8" class="c0"/>
<circle cx="1000" cy="1058" r="8" class="c0"/>
<circle cx="902" cy="848" r="8" class="c0"/>
<circle cx="1088" cy="1090" r="8" class="c0"/>
<circle cx="900" cy="1060" r="8" class="c0"/>
<circle cx="974" cy="1216" r="8" class="c0"/>
<circle cx="1020" cy="1174" r="8" class="c0"/>
<circle cx="896" cy="1118" r="8" class="c0"/>
<circle cx="956" cy="1230" r="8" class="c0"/>
<circle cx="894" cy="1196" r="8" class="c0"/>
<circle cx="956" cy="940" r="8" class="c0"/>
<circle cx="856" cy="1024" r="8" class="c0"/>
<circle cx="932" cy="828" r="8" class="c0"/>
<circle cx="1004" cy="1092" r="8" class="c0"/>
<circle cx="956" cy="860" r="8" class="c0"/>
<circle cx="922" cy="1158" r="6" class="c0"/>
<circle cx="946" cy="1062" r="6" class="c0"/>
<circle cx="954" cy="770" r="6" class="c0"/>
<circle cx="870" cy="1090" r="6" class="c0"/>
<circle cx="936" cy="862" r="6" class="c0"/>
<circle cx="964" cy="838" r="6" class="c0"/>
<circle cx="966" cy="1128" r="6" class="c0"/>
<circle cx="898" cy="1140" r="6" class="c0"/>
<circle cx="990" cy="1170" r="6" class="c0"/>
<circle cx="958" cy="894" r="6" class="c0"/>
<circle cx="1048" cy="958" r="6" class="c0"/>
<circle cx="962" cy="1068" r="6" class="c0"/>
<circle cx="1030" cy="1092" r="6" class="c0"/>
<circle cx="1050" cy="904" r="6" class="c0"/>
<circle cx="990" cy="848" r="6" class="c0"/>
<circle cx="1032" cy="912" r="6" class="c0"/>
<circle cx="1000" cy="830" r="6" class="c0"/>
<circle cx="918" cy="1208" r="6" class="c0"/>
<circle cx="948" cy="1024" r="6" class="c0"/>
<circle cx="846" cy="1058" r="6" class="c0"/>
<circle cx="922" cy="988" r="6" class="c0"/>
<circle cx="956" cy="974" r="6" class="c0"/>
<circle cx="972" cy="1060" r="6" class="c0"/>
<circle cx="908" cy="806" r="6" class="c0"/>
<circle cx="996" cy="906" r="6" class="c0"/>
<circle cx="864" cy="1150" r="6" class="c0"/>
<circle cx="986" cy="978" r="6" class="c0"/>
<circle cx="886" cy="1170" r="6" class="c0"/>
<circle cx="890" cy="1070" r="6" class="c0"/>
<circle cx="1012" cy="1028" r="6" class="c0"/>
<circle cx="870" cy="1048" r="6" class="c0"/>
<circle cx="1068" cy="1162" r="6" class="c0"/>
<circle cx="960" cy="1166" r="6" class="c0"/>
<circle cx="1008" cy="1134" r="6" class="c0"/>
<circle cx="920" cy="932" r="6" class="c0"/>
<circle cx="1016" cy="1102" r="6" class="c0"/>
<circle cx="946" cy="820" r="6" class="c0"/>
<circle cx="932" cy="1072" r="6" class="c0"/>
<circle cx="898" cy="1032" r="6" class="c0"/>
<circle cx="928" cy="1024" r="6" class="c0"/>
<circle cx="908" cy="886" r="6" class="c0"/>
<circle cx="998" cy="1240" r="6" class="c0"/>
<circle cx="902" cy="1084" r="6" class="c0"/>
<circle cx="1054" cy="1198" r="6" class="c0"/>
<circle cx="1088" cy="1116" r="6" class="c0"/>
<circle cx="976" cy="1140" r="6" class="c0"/>
</svg>
