<?xml version="1.0" encoding="utf-8"?>
<svg xmlns="http://www.w3.org/2000/svg"
     xmlns:xlink="http://www.w3.org/1999/xlink" width="1920" height="1440" >

            <defs>
            <style type="text/css"><![CDATA[
circle {stroke: none;}
.c0 {fill: #000000;}
]]></style>
            </defs>
<rect x="0" y="0" width="1920" height="1440" fill="white"/>
<circle cx="966" cy="980" r="12" class="c0"/>
<circle cx="940" cy="798" r="12" class="c0"/>
<circle cx="950" cy="874" r="12" class="c0"/>
<circle cx="920" cy="856" r="12" class="c0"/>
<circle cx="1022" cy="956" r="12" class="c0"/>
<circle cx="876" cy="1108" r="12" class="c0"/>
<circle cx="1010" cy="934" r="12" class="c0"/>
<circle cx="932" cy="898" r="12" class="c0"/>
<circle cx="982" cy="1068" r="12" class="c0"/>
<circle cx="946" cy="1074" r="12" class="c0"/>
<circle cx="968" cy="1084" r="12" class="c0"/>
<circle cx="960" cy="1036" r="12" class="c0"/>
<circle cx="860" cy="1040" r="12" class="c0"/>
<circle cx="1018" cy="1120" r="12" class="c0"/>
<circle cx="980" cy="1202" r="12" class="c0"/>
<circle cx="990" cy="1156" r="12" class="c0"/>
<circle cx="922" cy="1100" r="12" class="c0"/>
<circle cx="1010" cy="1042" r="12" class="c0"/>
<circle cx="980" cy="924" r="12" class="c0"/>
<circle cx="1042" cy="970" r="10" class="c0"/>
<circle cx="932" cy="1152" r="10" class="c0"/>
<circle cx="1012" cy="1184" r="10" class="c0"/>
<circle cx="940" cy="1022" r="10" class="c0"/>
<circle cx="980" cy="892" r="10" class="c0"/>
<circle cx="922" cy="1046" r="10" class="c0"/>
<circle cx="950" cy="1112" r="10" class="c0"/>
<circle cx="990" cy="818" r="10" class="c0"/>
<circle cx="1050" cy="906" r="10" class="c0"/>
<circle cx="956" cy="934" r="10" class="c0"/>
<circle cx="926" cy="772" r="10" class="c0"/>
<circle cx="1022" cy="908" r="10" class="c0"/>
<circle cx="898" cy="1020" r="10" class="c0"/>
<circle cx="862" cy="1080" r="10" class="c0"/>
<circle cx="898" cy="996" r="10" class="c0"/>
<circle cx="900" cy="1080" r="10" class="c0"/>
<circle cx="992" cy="786" r="10" class="c0"/>
<circle cx="1036" cy="938" r="10" class="c0"/>
<circle cx="912" cy="1064" r="10" class="c0"/>
<circle cx="954" cy="850" r="10" class="c0"/>
<circle cx="880" cy="1060" r="10" class="c0"/>
<circle cx="1010" cy="1074" r="10" class="c0"/>
<circle cx="954" cy="780" r="10" class="c0"/>
<circle cx="972" cy="758" r="10" class="c0"/>
<circle cx="914" cy="830" r="10" class="c0"/>
<circle cx="952" cy="1170" r="10" class="c0"/>
<circle cx="1038" cy="880" r="10" class="c0"/>
<circle cx="994" cy="1108" r="10" class="c0"/>
<circle cx="986" cy="994" r="10" class="c0"/>
<circle cx="962" cy="1132" r="10" class="c0"/>
<circle cx="938" cy="972" r="10" class="c0"/>
<circle cx="946" cy="992" r="10" class="c0"/>
<circle cx="916" cy="976" r="10" class="c0"/>
<circle cx="1034" cy="1098" r="10" class="c0"/>
<circle cx="958" cy="1210" r="10" class="c0"/>
<circle cx="900" cy="1130" r="10" class="c0"/>
<circle cx="880" cy="1144" r="10" class="c0"/>
<circle cx="938" cy="1190" r="10" class="c0"/>
<circle cx="966" cy="834" r="10" class="c0"/>
<circle cx="920" cy="934" r="10" class="c0"/>
<circle cx="914" cy="1182" r="10" class="c0"/>
<circle cx="978" cy="804" r="10" class="c0"/>
<circle cx="976" cy="1020" r="8" class="c0"/>
<circle cx="878" cy="1018" r="8" class="c0"/>
<circle cx="992" cy="1178" r="8" class="c0"/>
<circle cx="982" cy="1134" r="8" class="c0"/>
<circle cx="930" cy="1132" r="8" class="c0"/>
<circle cx="1054" cy="1196" r="8" class="c0"/>
<circle cx="1084" cy="1128" r="8" class="c0"/>
<circle cx="942" cy="1050" r="8" class="c0"/>
<circle cx="852" cy="1120" r="8" class="c0"/>
<circle cx="956" cy="812" r="8" class="c0"/>
<circle cx="846" cy="1064" r="8" class="c0"/>
<circle cx="1038" cy="1162" r="8" class="c0"/>
<circle cx="900" cy="1048" r="8" class="c0"/>
<circle cx="980" cy="870" r="8" class="c0"/>
<circle cx="846" cy="1094" r="8" class="c0"/>
<circle cx="964" cy="956" r="8" class="c0"/>
<circle cx="1034" cy="1184" r="8" class="c0"/>
<circle cx="974" cy="1172" r="8" class="c0"/>
<circle cx="956" cy="1012" r="8" class="c0"/>
<circle cx="1008" cy="1214" r="8" class="c0"/>
<circle cx="1016" cy="1150" r="8" class="c0"/>
<circle cx="996" cy="1012" r="8" class="c0"/>
<circle cx="930" cy="950" r="8" class="c0"/>
<circle cx="914" cy="1142" r="8" class="c0"/>
<circle cx="934" cy="1212" r="8" class="c0"/>
<circle cx="944" cy="760" r="8" class="c0"/>
<circle cx="1034" cy="1220" r="8" class="c0"/>
<circle cx="912" cy="876" r="8" class="c0"/>
<circle cx="904" cy="1152" r="8" class="c0"/>
<circle cx="930" cy="1002" r="8" class="c0"/>
<circle cx="962" cy="912" r="8" class="c0"/>
<circle cx="888" cy="1166" r="8" class="c0"/>
<circle cx="900" cy="846" r="8" class="c0"/>
<circle cx="962" cy="1186" r="8" class="c0"/>
<circle cx="926" cy="818" r="8" class="c0"/>
<circle cx="1058" cy="1142" r="8" class="c0"/>
<circle cx="984" cy="1254" r="8" class="c0"/>
<circle cx="976" cy="1116" r="8" class="c0"/>
<circle cx="978" cy="946" r="8" class="c0"/>
<circle cx="944" cy="916" r="8" class="c0"/>
<circle cx="902" cy="962" r="8" class="c0"/>
<circle cx="1112" cy="1136" r="8" class="c0"/>
<circle cx="920" cy="1122" r="8" class="c0"/>
<circle cx="986" cy="1038" r="8" class="c0"/>
<circle cx="914" cy="796" r="8" class="c0"/>
<circle cx="934" cy="840" r="8" class="c0"/>
<circle cx="1008" cy="894" r="8" class="c0"/>
<circle cx="1002" cy="1132" r="8" class="c0"/>
<circle cx="964" cy="1152" r="8" class="c0"/>
<circle cx="1012" cy="1098" r="8" class="c0"/>
<circle cx="1064" cy="1106" r="8" class="c0"/>
<circle cx="1040" cy="858" r="8" class="c0"/>
<circle cx="964" cy="1058" r="8" class="c0"/>
<circle cx="918" cy="1026" r="8" class="c0"/>
<circle cx="902" cy="812" r="8" class="c0"/>
<circle cx="1030" cy="1078" r="8" class="c0"/>
<circle cx="1050" cy="952" r="8" class="c0"/>
<circle cx="974" cy="778" r="8" class="c0"/>
<circle cx="924" cy="1078" r="8" class="c0"/>
<circle cx="970" cy="1234" r="8" class="c0"/>
<circle cx="944" cy="828" r="8" class="c0"/>
<circle cx="910" cy="1008" r="8" class="c0"/>
<circle cx="968" cy="1002" r="8" class="c0"/>
<circle cx="852" cy="1140" r="8" class="c0"/>
<circle cx="996" cy="910" r="8" class="c0"/>
<circle cx="918" cy="912" r="8" class="c0"/>
<circle cx="914" cy="1212" r="8" class="c0"/>
<circle cx="980" cy="848" r="8" class="c0"/>
<circle cx="992" cy="1222" r="8" class="c0"/>
<circle cx="862" cy="1130" r="8" class="c0"/>
<circle cx="1022" cy="1062" r="8" class="c0"/>
<circle cx="986" cy="968" r="8" class="c0"/>
<circle cx="996" cy="1086" r="8" class="c0"/>
<circle cx="958" cy="894" r="8" class="c0"/>
<circle cx="1046" cy="1130" r="8" class="c0"/>
<circle cx="894" cy="1194" r="8" class="c0"/>
<circle cx="888" cy="1092" r="8" class="c0"/>
<circle cx="1036" cy="1240" r="8" class="c0"/>
<circle cx="1038" cy="918" r="8" class="c0"/>
<circle cx="1090" cy="1146" r="8" class="c0"/>
<circle cx="938" cy="1234" r="8" class="c0"/>
<circle cx="904" cy="1110" r="8" class="c0"/>
<circle cx="1024" cy="978" r="8" class="c0"/>
<circle cx="1102" cy="1122" r="8" class="c0"/>
<circle cx="888" cy="1038" r="8" class="c0"/>
<circle cx="1074" cy="1118" r="8" class="c0"/>
<circle cx="954" cy="1252" r="8" class="c0"/>
<circle cx="878" cy="998" r="6" class="c0"/>
<circle cx="1000" cy="804" r="6" class="c0"/>
<circle cx="1010" cy="970" r="6" class="c0"/>
<circle cx="928" cy="1172" r="6" class="c0"/>
<circle cx="918" cy="1162" r="6" class="c0"/>
<circle cx="968" cy="860" r="6" class="c0"/>
<circle cx="1002" cy="954" r="6" class="c0"/>
<circle cx="914" cy="952" r="6" class="c0"/>
<circle cx="976" cy="1048" r="6" class="c0"/>
<circle cx="994" cy="1052" r="6" class="c0"/>
<circle cx="1056" cy="886" r="6" class="c0"/>
<circle cx="890" cy="976" r="6" class="c0"/>
<circle cx="1000" cy="1196" r="6" class="c0"/>
<circle cx="948" cy="958" r="6" class="c0"/>
<circle cx="946" cy="1142" r="6" class="c0"/>
<circle cx="1006" cy="1022" r="6" class="c0"/>
<circle cx="930" cy="1062" r="6" class="c0"/>
<circle cx="986" cy="768" r="6" class="c0"/>
<circle cx="910" cy="894" r="6" class="c0"/>
<circle cx="862" cy="1020" r="6" class="c0"/>
<circle cx="942" cy="1096" r="6" class="c0"/>
<circle cx="864" cy="1152" r="6" class="c0"/>
<circle cx="884" cy="1206" r="6" class="c0"/>
<circle cx="1008" cy="1166" r="6" class="c0"/>
<circle cx="938" cy="932" r="6" class="c0"/>
<circle cx="980" cy="1098" r="6" class="c0"/>
<circle cx="1024" cy="890" r="6" class="c0"/>
<circle cx="1052" cy="868" r="6" class="c0"/>
<circle cx="936" cy="1252" r="6" class="c0"/>
<circle cx="964" cy="794" r="6" class="c0"/>
<circle cx="1050" cy="928" r="6" class="c0"/>
<circle cx="966" cy="1104" r="6" class="c0"/>
<circle cx="856" cy="1104" r="6" class="c0"/>
<circle cx="928" cy="878" r="6" class="c0"/>
<circle cx="1028" cy="1136" r="6" class="c0"/>
<circle cx="842" cy="1110" r="6" class="c0"/>
<circle cx="902" cy="1224" r="6" class="c0"/>
<circle cx="1074" cy="1144" r="6" class="c0"/>
</svg>
