<?xml version="1.0" encoding="utf-8"?>
<svg xmlns="http://www.w3.org/2000/svg"
     xmlns:xlink="http://www.w3.org/1999/xlink" width="1920" height="1440" >

            <defs>
            <style type="text/css"><![CDATA[
circle {stroke: none;}
.c0 {fill: #000000;}
]]></style>
            </defs>
<rect x="0" y="0" width="1920" height="1440" fill="white"/>
<circle cx="1044" cy="964" r="12" class="c0"/>
<circle cx="964" cy="1206" r="12" class="c0"/>
<circle cx="1012" cy="882" r="12" class="c0"/>
<circle cx="1010" cy="994" r="12" class="c0"/>
<circle cx="974" cy="1148" r="12" class="c0"/>
<circle cx="1000" cy="1032" r="12" class="c0"/>
<circle cx="898" cy="1112" r="12" class="c0"/>
<circle cx="950" cy="966" r="12" class="c0"/>
<circle cx="866" cy="1064" r="12" class="c0"/>
<circle cx="982" cy="798" r="12" class="c0"/>
<circle cx="906" cy="1010" r="12" class="c0"/>
<circle cx="982" cy="724" r="12" class="c0"/>
<circle cx="998" cy="1112" r="12" class="c0"/>
<circle cx="900" cy="982" r="12" class="c0"/>
<circle cx="908" cy="834" r="12" class="c0"/>
<circle cx="944" cy="922" r="10" class="c0"/>
<circle cx="962" cy="1080" r="10" class="c0"/>
<circle cx="958" cy="846" r="10" class="c0"/>
<circle cx="990" cy="910" r="10" class="c0"/>
<circle cx="964" cy="1020" r="10" class="c0"/>
<circle cx="1018" cy="942" r="10" class="c0"/>
<circle cx="886" cy="1178" r="10" class="c0"/>
<circle cx="930" cy="990" r="10" class="c0"/>
<circle cx="898" cy="958" r="10" class="c0"/>
<circle cx="996" cy="1178" r="10" class="c0"/>
<circle cx="948" cy="1050" r="10" class="c0"/>
<circle cx="992" cy="1216" r="10" class="c0"/>
<circle cx="966" cy="692" r="10" class="c0"/>
<circle cx="1000" cy="932" r="10" class="c0"/>
<circle cx="922" cy="1102" r="10" class="c0"/>
<circle cx="906" cy="1064" r="10" class="c0"/>
<circle cx="934" cy="814" r="10" class="c0"/>
<circle cx="948" cy="1244" r="10" class="c0"/>
<circle cx="936" cy="788" r="10" class="c0"/>
<circle cx="988" cy="1244" r="10" class="c0"/>
<circle cx="990" cy="958" r="10" class="c0"/>
<circle cx="920" cy="718" r="10" class="c0"/>
<circle cx="942" cy="1156" r="10" class="c0"/>
<circle cx="952" cy="738" r="10" class="c0"/>
<circle cx="998" cy="864" r="10" class="c0"/>
<circle cx="944" cy="870" r="10" class="c0"/>
<circle cx="960" cy="1266" r="10" class="c0"/>
<circle cx="966" cy="822" r="10" class="c0"/>
<circle cx="912" cy="1140" r="10" class="c0"/>
<circle cx="1016" cy="1156" r="10" class="c0"/>
<circle cx="914" cy="938" r="10" class="c0"/>
<circle cx="1036" cy="1084" r="10" class="c0"/>
<circle cx="968" cy="904" r="10" class="c0"/>
<circle cx="966" cy="950" r="10" class="c0"/>
<circle cx="858" cy="1126" r="10" class="c0"/>
<circle cx="918" cy="864" r="10" class="c0"/>
<circle cx="1032" cy="1144" r="10" class="c0"/>
<circle cx="946" cy="770" r="10" class="c0"/>
<circle cx="986" cy="750" r="10" class="c0"/>
<circle cx="974" cy="1106" r="10" class="c0"/>
<circle cx="880" cy="1026" r="10" class="c0"/>
<circle cx="944" cy="898" r="10" class="c0"/>
<circle cx="1010" cy="1084" r="10" class="c0"/>
<circle cx="980" cy="874" r="10" class="c0"/>
<circle cx="956" cy="798" r="10" class="c0"/>
<circle cx="998" cy="1138" r="10" class="c0"/>
<circle cx="1020" cy="972" r="10" class="c0"/>
<circle cx="918" cy="900" r="10" class="c0"/>
<circle cx="1046" cy="940" r="10" class="c0"/>
<circle cx="952" cy="1112" r="10" class="c0"/>
<circle cx="876" cy="1144" r="10" class="c0"/>
<circle cx="908" cy="762" r="10" class="c0"/>
<circle cx="932" cy="1206" r="10" class="c0"/>
<circle cx="846" cy="1100" r="10" class="c0"/>
<circle cx="892" cy="1052" r="10" class="c0"/>
<circle cx="928" cy="1058" r="10" class="c0"/>
<circle cx="1018" cy="1058" r="10" class="c0"/>
<circle cx="952" cy="998" r="10" class="c0"/>
<circle cx="922" cy="970" r="10" class="c0"/>
<circle cx="972" cy="1232" r="10" class="c0"/>
<circle cx="918" cy="1184" r="8" class="c0"/>
<circle cx="1034" cy="858" r="8" class="c0"/>
<circle cx="974" cy="992" r="8" class="c0"/>
<circle cx="914" cy="810" r="8" class="c0"/>
<circle cx="948" cy="1180" r="8" class="c0"/>
<circle cx="970" cy="776" r="8" class="c0"/>
<circle cx="944" cy="1024" r="8" class="c0"/>
<circle cx="968" cy="1054" r="8" class="c0"/>
<circle cx="978" cy="842" r="8" class="c0"/>
<circle cx="942" cy="708" r="8" class="c0"/>
<circle cx="924" cy="1230" r="8" class="c0"/>
<circle cx="910" cy="1160" r="8" class="c0"/>
<circle cx="1030" cy="910" r="8" class="c0"/>
<circle cx="890" cy="1074" r="8" class="c0"/>
<circle cx="1034" cy="892" r="8" class="c0"/>
<circle cx="954" cy="1294" r="8" class="c0"/>
<circle cx="1038" cy="1178" r="8" class="c0"/>
<circle cx="986" cy="1092" r="8" class="c0"/>
<circle cx="1026" cy="1100" r="8" class="c0"/>
<circle cx="838" cy="1076" r="8" class="c0"/>
<circle cx="918" cy="746" r="8" class="c0"/>
<circle cx="864" cy="1040" r="8" class="c0"/>
<circle cx="940" cy="1072" r="8" class="c0"/>
<circle cx="1056" cy="982" r="8" class="c0"/>
<circle cx="962" cy="756" r="8" class="c0"/>
<circle cx="972" cy="1296" r="8" class="c0"/>
<circle cx="966" cy="1176" r="8" class="c0"/>
<circle cx="946" cy="828" r="8" class="c0"/>
<circle cx="928" cy="1122" r="8" class="c0"/>
<circle cx="984" cy="1278" r="8" class="c0"/>
<circle cx="1010" cy="912" r="8" class="c0"/>
<circle cx="908" cy="1198" r="8" class="c0"/>
<circle cx="990" cy="1068" r="8" class="c0"/>
<circle cx="876" cy="1114" r="8" class="c0"/>
<circle cx="900" cy="1032" r="8" class="c0"/>
<circle cx="1002" cy="736" r="8" class="c0"/>
<circle cx="920" cy="1040" r="8" class="c0"/>
<circle cx="1054" cy="1210" r="8" class="c0"/>
<circle cx="984" cy="1012" r="8" class="c0"/>
<circle cx="932" cy="842" r="8" class="c0"/>
<circle cx="838" cy="1134" r="8" class="c0"/>
<circle cx="946" cy="690" r="8" class="c0"/>
<circle cx="988" cy="700" r="8" class="c0"/>
<circle cx="988" cy="826" r="8" class="c0"/>
<circle cx="908" cy="1258" r="8" class="c0"/>
<circle cx="952" cy="1134" r="8" class="c0"/>
<circle cx="1028" cy="1122" r="8" class="c0"/>
<circle cx="1084" cy="1226" r="8" class="c0"/>
<circle cx="1016" cy="856" r="8" class="c0"/>
<circle cx="876" cy="1094" r="8" class="c0"/>
<circle cx="978" cy="1040" r="8" class="c0"/>
<circle cx="1030" cy="1258" r="8" class="c0"/>
<circle cx="878" cy="1002" r="8" class="c0"/>
<circle cx="930" cy="886" r="8" class="c0"/>
<circle cx="1010" cy="1288" r="8" class="c0"/>
<circle cx="1018" cy="1020" r="8" class="c0"/>
<circle cx="956" cy="934" r="8" class="c0"/>
<circle cx="1028" cy="1036" r="8" class="c0"/>
<circle cx="934" cy="1012" r="8" class="c0"/>
<circle cx="924" cy="776" r="8" class="c0"/>
<circle cx="956" cy="884" r="8" class="c0"/>
<circle cx="906" cy="1218" r="8" class="c0"/>
<circle cx="888" cy="1156" r="8" class="c0"/>
<circle cx="978" cy="972" r="8" class="c0"/>
<circle cx="978" cy="1188" r="8" class="c0"/>
<circle cx="914" cy="1084" r="8" class="c0"/>
<circle cx="1064" cy="1198" r="8" class="c0"/>
<circle cx="854" cy="1164" r="8" class="c0"/>
<circle cx="928" cy="1258" r="8" class="c0"/>
<circle cx="888" cy="1130" r="8" class="c0"/>
<circle cx="956" cy="718" r="8" class="c0"/>
<circle cx="914" cy="786" r="8" class="c0"/>
<circle cx="990" cy="770" r="8" class="c0"/>
<circle cx="848" cy="1050" r="8" class="c0"/>
<circle cx="972" cy="1254" r="8" class="c0"/>
<circle cx="970" cy="924" r="8" class="c0"/>
<circle cx="1092" cy="1252" r="8" class="c0"/>
<circle cx="1008" cy="1192" r="8" class="c0"/>
<circle cx="966" cy="1124" r="8" class="c0"/>
<circle cx="1112" cy="1226" r="8" class="c0"/>
<circle cx="1014" cy="1242" r="8" class="c0"/>
<circle cx="1036" cy="988" r="8" class="c0"/>
<circle cx="1044" cy="876" r="8" class="c0"/>
<circle cx="1002" cy="712" r="8" class="c0"/>
<circle cx="1002" cy="1258" r="8" class="c0"/>
<circle cx="936" cy="948" r="8" class="c0"/>
<circle cx="940" cy="726" r="8" class="c0"/>
<circle cx="942" cy="1092" r="8" class="c0"/>
<circle cx="930" cy="1172" r="8" class="c0"/>
<circle cx="948" cy="1218" r="8" class="c0"/>
<circle cx="992" cy="890" r="8" class="c0"/>
<circle cx="1034" cy="1204" r="8" class="c0"/>
<circle cx="900" cy="1238" r="8" class="c0"/>
<circle cx="1048" cy="912" r="8" class="c0"/>
<circle cx="930" cy="1290" r="8" class="c0"/>
<circle cx="928" cy="736" r="8" class="c0"/>
<circle cx="1000" cy="974" r="8" class="c0"/>
<circle cx="1122" cy="1254" r="8" class="c0"/>
<circle cx="940" cy="750" r="8" class="c0"/>
<circle cx="1086" cy="1194" r="8" class="c0"/>
<circle cx="982" cy="940" r="8" class="c0"/>
<circle cx="894" cy="850" r="8" class="c0"/>
<circle cx="1020" cy="922" r="8" class="c0"/>
<circle cx="892" cy="822" r="8" class="c0"/>
<circle cx="850" cy="1144" r="8" class="c0"/>
<circle cx="1060" cy="952" r="8" class="c0"/>
<circle cx="888" cy="1258" r="8" class="c0"/>
<circle cx="1066" cy="968" r="6" class="c0"/>
<circle cx="840" cy="1118" r="6" class="c0"/>
<circle cx="1016" cy="1134" r="6" class="c0"/>
<circle cx="980" cy="1168" r="6" class="c0"/>
<circle cx="906" cy="878" r="6" class="c0"/>
<circle cx="936" cy="1136" r="6" class="c0"/>
<circle cx="998" cy="844" r="6" class="c0"/>
<circle cx="994" cy="1158" r="6" class="c0"/>
<circle cx="1026" cy="1004" r="6" class="c0"/>
<circle cx="926" cy="918" r="6" class="c0"/>
<circle cx="906" cy="734" r="6" class="c0"/>
<circle cx="930" cy="696" r="6" class="c0"/>
<circle cx="872" cy="1162" r="6" class="c0"/>
<circle cx="998" cy="810" r="6" class="c0"/>
<circle cx="1020" cy="1180" r="6" class="c0"/>
<circle cx="1038" cy="1110" r="6" class="c0"/>
<circle cx="866" cy="1174" r="6" class="c0"/>
<circle cx="986" cy="1126" r="6" class="c0"/>
<circle cx="894" cy="1090" r="6" class="c0"/>
<circle cx="854" cy="1084" r="6" class="c0"/>
<circle cx="986" cy="1262" r="6" class="c0"/>
<circle cx="994" cy="1290" r="6" class="c0"/>
<circle cx="988" cy="1052" r="6" class="c0"/>
<circle cx="1026" cy="1220" r="6" class="c0"/>
<circle cx="854" cy="1030" r="6" class="c0"/>
<circle cx="962" cy="864" r="6" class="c0"/>
<circle cx="868" cy="1012" r="6" class="c0"/>
<circle cx="1046" cy="1252" r="6" class="c0"/>
<circle cx="990" cy="990" r="6" class="c0"/>
<circle cx="962" cy="982" r="6" class="c0"/>
<circle cx="1036" cy="926" r="6" class="c0"/>
<circle cx="1010" cy="750" r="6" class="c0"/>
<circle cx="1000" cy="760" r="6" class="c0"/>
<circle cx="924" cy="800" r="6" class="c0"/>
<circle cx="930" cy="760" r="6" class="c0"/>
<circle cx="1020" cy="900" r="6" class="c0"/>
<circle cx="942" cy="1268" r="6" class="c0"/>
<circle cx="918" cy="1024" r="6" class="c0"/>
<circle cx="1036" cy="1062" r="6" class="c0"/>
<circle cx="1050" cy="896" r="6" class="c0"/>
<circle cx="1040" cy="1288" r="6" class="c0"/>
<circle cx="970" cy="710" r="6" class="c0"/>
<circle cx="960" cy="1160" r="6" class="c0"/>
<circle cx="936" cy="1038" r="6" class="c0"/>
<circle cx="866" cy="1104" r="6" class="c0"/>
<circle cx="924" cy="1152" r="6" class="c0"/>
<circle cx="1036" cy="1162" r="6" class="c0"/>
<circle cx="938" cy="1308" r="6" class="c0"/>
<circle cx="934" cy="1188" r="6" class="c0"/>
<circle cx="970" cy="742" r="6" class="c0"/>
<circle cx="1000" cy="1276" r="6" class="c0"/>
<circle cx="832" cy="1110" r="6" class="c0"/>
<circle cx="946" cy="1196" r="6" class="c0"/>
<circle cx="904" cy="1176" r="6" class="c0"/>
<circle cx="1008" cy="960" r="6" class="c0"/>
<circle cx="1042" cy="1130" r="6" class="c0"/>
<circle cx="970" cy="1314" r="6" class="c0"/>
<circle cx="1058" cy="1276" r="6" class="c0"/>
<circle cx="1076" cy="1184" r="6" class="c0"/>
<circle cx="1000" cy="1010" r="6" class="c0"/>
<circle cx="930" cy="1082" r="6" class="c0"/>
<circle cx="962" cy="1038" r="6" class="c0"/>
</svg>
