<?xml version="1.0" encoding="utf-8"?>
<svg xmlns="http://www.w3.org/2000/svg"
     xmlns:xlink="http://www.w3.org/1999/xlink" width="1920" height="1440" >

            <defs>
            <style type="text/css"><![CDATA[
circle {stroke: none;}
.c0 {fill: #000000;}
]]></style>
            </defs>
<rect x="0" y="0" width="1920" height="1440" fill="white"/>
<circle cx="1110" cy="1124" r="12" class="c0"/>
<circle cx="1002" cy="1222" r="12" class="c0"/>
<circle cx="906" cy="1222" r="12" class="c0"/>
<circle cx="1062" cy="1058" r="12" class="c0"/>
<circle cx="1022" cy="1202" r="12" class="c0"/>
<circle cx="1028" cy="610" r="12" class="c0"/>
<circle cx="952" cy="660" r="12" class="c0"/>
<circle cx="1014" cy="974" r="12" class="c0"/>
<circle cx="912" cy="1006" r="12" class="c0"/>
<circle cx="1034" cy="1030" r="12" class="c0"/>
<circle cx="1020" cy="1006" r="12" class="c0"/>
<circle cx="980" cy="612" r="12" class="c0"/>
<circle cx="1104" cy="1402" r="12" class="c0"/>
<circle cx="960" cy="690" r="12" class="c0"/>
<circle cx="942" cy="882" r="12" class="c0"/>
<circle cx="980" cy="1038" r="12" class="c0"/>
<circle cx="934" cy="1232" r="12" class="c0"/>
<circle cx="928" cy="978" r="12" class="c0"/>
<circle cx="1036" cy="1100" r="12" class="c0"/>
<circle cx="860" cy="1108" r="12" class="c0"/>
<circle cx="1012" cy="756" r="12" class="c0"/>
<circle cx="910" cy="1070" r="12" class="c0"/>
<circle cx="994" cy="1080" r="12" class="c0"/>
<circle cx="1016" cy="934" r="12" class="c0"/>
<circle cx="974" cy="1152" r="12" class="c0"/>
<circle cx="852" cy="1210" r="12" class="c0"/>
<circle cx="976" cy="992" r="12" class="c0"/>
<circle cx="1006" cy="638" r="12" class="c0"/>
<circle cx="1048" cy="1178" r="12" class="c0"/>
<circle cx="1040" cy="784" r="12" class="c0"/>
<circle cx="1050" cy="952" r="12" class="c0"/>
<circle cx="992" cy="784" r="10" class="c0"/>
<circle cx="910" cy="1110" r="10" class="c0"/>
<circle cx="1054" cy="1148" r="10" class="c0"/>
<circle cx="1082" cy="1172" r="10" class="c0"/>
<circle cx="942" cy="1192" r="10" class="c0"/>
<circle cx="1002" cy="1118" r="10" class="c0"/>
<circle cx="944" cy="1054" r="10" class="c0"/>
<circle cx="1046" cy="988" r="10" class="c0"/>
<circle cx="1028" cy="1134" r="10" class="c0"/>
<circle cx="878" cy="1164" r="10" class="c0"/>
<circle cx="974" cy="896" r="10" class="c0"/>
<circle cx="946" cy="606" r="10" class="c0"/>
<circle cx="916" cy="818" r="10" class="c0"/>
<circle cx="912" cy="1138" r="10" class="c0"/>
<circle cx="998" cy="1186" r="10" class="c0"/>
<circle cx="972" cy="752" r="10" class="c0"/>
<circle cx="990" cy="680" r="10" class="c0"/>
<circle cx="934" cy="1152" r="10" class="c0"/>
<circle cx="1030" cy="852" r="10" class="c0"/>
<circle cx="994" cy="1378" r="10" class="c0"/>
<circle cx="940" cy="680" r="10" class="c0"/>
<circle cx="948" cy="1256" r="10" class="c0"/>
<circle cx="1024" cy="1256" r="10" class="c0"/>
<circle cx="960" cy="976" r="10" class="c0"/>
<circle cx="1008" cy="1066" r="10" class="c0"/>
<circle cx="984" cy="1200" r="10" class="c0"/>
<circle cx="994" cy="720" r="10" class="c0"/>
<circle cx="948" cy="992" r="10" class="c0"/>
<circle cx="1082" cy="1202" r="10" class="c0"/>
<circle cx="958" cy="798" r="10" class="c0"/>
<circle cx="880" cy="1130" r="10" class="c0"/>
<circle cx="1026" cy="908" r="10" class="c0"/>
<circle cx="964" cy="938" r="10" class="c0"/>
<circle cx="930" cy="916" r="10" class="c0"/>
<circle cx="1038" cy="810" r="10" class="c0"/>
<circle cx="894" cy="1204" r="10" class="c0"/>
<circle cx="946" cy="1394" r="10" class="c0"/>
<circle cx="1022" cy="824" r="10" class="c0"/>
<circle cx="1062" cy="1032" r="10" class="c0"/>
<circle cx="958" cy="1124" r="10" class="c0"/>
<circle cx="990" cy="860" r="10" class="c0"/>
<circle cx="1112" cy="1154" r="10" class="c0"/>
<circle cx="832" cy="1136" r="10" class="c0"/>
<circle cx="950" cy="844" r="10" class="c0"/>
<circle cx="958" cy="1342" r="10" class="c0"/>
<circle cx="880" cy="1096" r="10" class="c0"/>
<circle cx="1006" cy="880" r="10" class="c0"/>
<circle cx="842" cy="1160" r="10" class="c0"/>
<circle cx="1048" cy="864" r="10" class="c0"/>
<circle cx="954" cy="1016" r="10" class="c0"/>
<circle cx="1060" cy="974" r="10" class="c0"/>
<circle cx="956" cy="1314" r="10" class="c0"/>
<circle cx="936" cy="754" r="10" class="c0"/>
<circle cx="956" cy="1284" r="10" class="c0"/>
<circle cx="976" cy="810" r="10" class="c0"/>
<circle cx="920" cy="1032" r="10" class="c0"/>
<circle cx="974" cy="1090" r="10" class="c0"/>
<circle cx="990" cy="910" r="10" class="c0"/>
<circle cx="920" cy="738" r="10" class="c0"/>
<circle cx="894" cy="1176" r="10" class="c0"/>
<circle cx="952" cy="1098" r="10" class="c0"/>
<circle cx="944" cy="1296" r="10" class="c0"/>
<circle cx="912" cy="764" r="10" class="c0"/>
<circle cx="956" cy="624" r="10" class="c0"/>
<circle cx="1000" cy="1332" r="10" class="c0"/>
<circle cx="1032" cy="1058" r="10" class="c0"/>
<circle cx="934" cy="630" r="10" class="c0"/>
<circle cx="918" cy="1198" r="10" class="c0"/>
<circle cx="954" cy="742" r="10" class="c0"/>
<circle cx="914" cy="796" r="10" class="c0"/>
<circle cx="1026" cy="1336" r="10" class="c0"/>
<circle cx="990" cy="1134" r="10" class="c0"/>
<circle cx="1004" cy="1308" r="10" class="c0"/>
<circle cx="846" cy="1094" r="10" class="c0"/>
<circle cx="894" cy="992" r="10" class="c0"/>
<circle cx="884" cy="1018" r="10" class="c0"/>
<circle cx="982" cy="1248" r="10" class="c0"/>
<circle cx="1048" cy="834" r="10" class="c0"/>
<circle cx="1038" cy="750" r="10" class="c0"/>
<circle cx="980" cy="1350" r="10" class="c0"/>
<circle cx="1040" cy="1358" r="10" class="c0"/>
<circle cx="866" cy="1046" r="10" class="c0"/>
<circle cx="954" cy="774" r="10" class="c0"/>
<circle cx="862" cy="1068" r="10" class="c0"/>
<circle cx="970" cy="1298" r="10" class="c0"/>
<circle cx="1014" cy="1160" r="10" class="c0"/>
<circle cx="1072" cy="1078" r="10" class="c0"/>
<circle cx="1048" cy="1238" r="10" class="c0"/>
<circle cx="916" cy="1164" r="10" class="c0"/>
<circle cx="982" cy="966" r="10" class="c0"/>
<circle cx="974" cy="1398" r="8" class="c0"/>
<circle cx="1088" cy="1102" r="8" class="c0"/>
<circle cx="924" cy="956" r="8" class="c0"/>
<circle cx="942" cy="714" r="8" class="c0"/>
<circle cx="956" cy="1204" r="8" class="c0"/>
<circle cx="950" cy="1368" r="8" class="c0"/>
<circle cx="1050" cy="1306" r="8" class="c0"/>
<circle cx="1004" cy="1098" r="8" class="c0"/>
<circle cx="1070" cy="1100" r="8" class="c0"/>
<circle cx="924" cy="836" r="8" class="c0"/>
<circle cx="1022" cy="662" r="8" class="c0"/>
<circle cx="968" cy="1374" r="8" class="c0"/>
<circle cx="1078" cy="1016" r="8" class="c0"/>
<circle cx="978" cy="664" r="8" class="c0"/>
<circle cx="996" cy="1268" r="8" class="c0"/>
<circle cx="990" cy="948" r="8" class="c0"/>
<circle cx="858" cy="1136" r="8" class="c0"/>
<circle cx="1126" cy="1338" r="8" class="c0"/>
<circle cx="1018" cy="786" r="8" class="c0"/>
<circle cx="1074" cy="1322" r="8" class="c0"/>
<circle cx="1160" cy="1422" r="8" class="c0"/>
<circle cx="894" cy="1082" r="8" class="c0"/>
<circle cx="984" cy="1108" r="8" class="c0"/>
<circle cx="1008" cy="1246" r="8" class="c0"/>
<circle cx="1130" cy="1376" r="8" class="c0"/>
<circle cx="970" cy="1270" r="8" class="c0"/>
<circle cx="1046" cy="1046" r="8" class="c0"/>
<circle cx="1024" cy="694" r="8" class="c0"/>
<circle cx="1024" cy="1372" r="8" class="c0"/>
<circle cx="922" cy="934" r="8" class="c0"/>
<circle cx="1036" cy="970" r="8" class="c0"/>
<circle cx="968" cy="1070" r="8" class="c0"/>
<circle cx="1098" cy="1330" r="8" class="c0"/>
<circle cx="1012" cy="684" r="8" class="c0"/>
<circle cx="934" cy="1082" r="8" class="c0"/>
<circle cx="894" cy="1154" r="8" class="c0"/>
<circle cx="1170" cy="1360" r="8" class="c0"/>
<circle cx="832" cy="1200" r="8" class="c0"/>
<circle cx="1050" cy="1204" r="8" class="c0"/>
<circle cx="962" cy="828" r="8" class="c0"/>
<circle cx="924" cy="1096" r="8" class="c0"/>
<circle cx="1006" cy="804" r="8" class="c0"/>
<circle cx="1010" cy="708" r="8" class="c0"/>
<circle cx="972" cy="644" r="8" class="c0"/>
<circle cx="1042" cy="924" r="8" class="c0"/>
<circle cx="980" cy="770" r="8" class="c0"/>
<circle cx="870" cy="1186" r="8" class="c0"/>
<circle cx="954" cy="1172" r="8" class="c0"/>
<circle cx="970" cy="856" r="8" class="c0"/>
<circle cx="934" cy="798" r="8" class="c0"/>
<circle cx="842" cy="1120" r="8" class="c0"/>
<circle cx="1064" cy="1344" r="8" class="c0"/>
<circle cx="974" cy="586" r="8" class="c0"/>
<circle cx="938" cy="1274" r="8" class="c0"/>
<circle cx="892" cy="1056" r="8" class="c0"/>
<circle cx="852" cy="1178" r="8" class="c0"/>
<circle cx="1038" cy="682" r="8" class="c0"/>
<circle cx="1090" cy="1064" r="8" class="c0"/>
<circle cx="1108" cy="1096" r="8" class="c0"/>
<circle cx="988" cy="1166" r="8" class="c0"/>
<circle cx="1068" cy="998" r="8" class="c0"/>
<circle cx="906" cy="960" r="8" class="c0"/>
<circle cx="1032" cy="888" r="8" class="c0"/>
<circle cx="1030" cy="1406" r="8" class="c0"/>
<circle cx="986" cy="700" r="8" class="c0"/>
<circle cx="1060" cy="1090" r="8" class="c0"/>
<circle cx="984" cy="1062" r="8" class="c0"/>
<circle cx="1050" cy="1010" r="8" class="c0"/>
<circle cx="966" cy="1192" r="8" class="c0"/>
<circle cx="970" cy="1230" r="8" class="c0"/>
<circle cx="1010" cy="1030" r="8" class="c0"/>
<circle cx="1058" cy="1414" r="8" class="c0"/>
<circle cx="1074" cy="1138" r="8" class="c0"/>
<circle cx="934" cy="1120" r="8" class="c0"/>
<circle cx="1024" cy="1306" r="8" class="c0"/>
<circle cx="1092" cy="1134" r="8" class="c0"/>
<circle cx="924" cy="664" r="8" class="c0"/>
<circle cx="1014" cy="1350" r="8" class="c0"/>
<circle cx="1012" cy="732" r="8" class="c0"/>
<circle cx="998" cy="994" r="8" class="c0"/>
<circle cx="1098" cy="1084" r="8" class="c0"/>
<circle cx="1048" cy="1078" r="8" class="c0"/>
<circle cx="822" cy="1166" r="8" class="c0"/>
<circle cx="1100" cy="1188" r="8" class="c0"/>
<circle cx="1004" cy="612" r="8" class="c0"/>
<circle cx="940" cy="828" r="8" class="c0"/>
<circle cx="1070" cy="1216" r="8" class="c0"/>
<circle cx="1076" cy="1416" r="8" class="c0"/>
<circle cx="952" cy="864" r="8" class="c0"/>
<circle cx="940" cy="1034" r="8" class="c0"/>
<circle cx="984" cy="832" r="8" class="c0"/>
<circle cx="948" cy="1140" r="8" class="c0"/>
<circle cx="1026" cy="956" r="8" class="c0"/>
<circle cx="1000" cy="1046" r="8" class="c0"/>
<circle cx="942" cy="964" r="8" class="c0"/>
<circle cx="976" cy="1176" r="8" class="c0"/>
<circle cx="1066" cy="1120" r="8" class="c0"/>
<circle cx="1120" cy="1356" r="8" class="c0"/>
<circle cx="1002" cy="1286" r="8" class="c0"/>
<circle cx="1026" cy="1080" r="8" class="c0"/>
<circle cx="1002" cy="826" r="8" class="c0"/>
<circle cx="978" cy="1014" r="8" class="c0"/>
<circle cx="1086" cy="1036" r="8" class="c0"/>
<circle cx="972" cy="720" r="8" class="c0"/>
<circle cx="896" cy="970" r="8" class="c0"/>
<circle cx="1032" cy="1228" r="8" class="c0"/>
<circle cx="994" cy="588" r="8" class="c0"/>
<circle cx="832" cy="1180" r="8" class="c0"/>
<circle cx="966" cy="1052" r="8" class="c0"/>
<circle cx="906" cy="1328" r="8" class="c0"/>
<circle cx="1062" cy="1192" r="8" class="c0"/>
<circle cx="1074" cy="1368" r="8" class="c0"/>
<circle cx="944" cy="946" r="8" class="c0"/>
<circle cx="1032" cy="636" r="8" class="c0"/>
<circle cx="922" cy="1054" r="8" class="c0"/>
<circle cx="1012" cy="840" r="8" class="c0"/>
<circle cx="900" cy="1040" r="8" class="c0"/>
<circle cx="876" cy="1222" r="8" class="c0"/>
<circle cx="1154" cy="1368" r="8" class="c0"/>
<circle cx="952" cy="902" r="8" class="c0"/>
<circle cx="930" cy="860" r="8" class="c0"/>
<circle cx="830" cy="1106" r="8" class="c0"/>
<circle cx="932" cy="1016" r="8" class="c0"/>
<circle cx="882" cy="1066" r="8" class="c0"/>
<circle cx="932" cy="776" r="8" class="c0"/>
<circle cx="932" cy="1174" r="8" class="c0"/>
<circle cx="998" cy="1358" r="8" class="c0"/>
<circle cx="1042" cy="1122" r="8" class="c0"/>
<circle cx="1018" cy="1180" r="8" class="c0"/>
<circle cx="1158" cy="1334" r="8" class="c0"/>
<circle cx="976" cy="924" r="8" class="c0"/>
<circle cx="1028" cy="724" r="8" class="c0"/>
<circle cx="994" cy="1022" r="8" class="c0"/>
<circle cx="868" cy="1146" r="8" class="c0"/>
<circle cx="986" cy="882" r="8" class="c0"/>
<circle cx="916" cy="1338" r="8" class="c0"/>
<circle cx="966" cy="876" r="8" class="c0"/>
<circle cx="960" cy="1244" r="8" class="c0"/>
<circle cx="940" cy="1334" r="8" class="c0"/>
<circle cx="1012" cy="860" r="8" class="c0"/>
<circle cx="842" cy="1072" r="8" class="c0"/>
<circle cx="1026" cy="1286" r="8" class="c0"/>
<circle cx="1020" cy="1044" r="8" class="c0"/>
<circle cx="1046" cy="1338" r="8" class="c0"/>
<circle cx="994" cy="746" r="8" class="c0"/>
<circle cx="940" cy="1354" r="8" class="c0"/>
<circle cx="1132" cy="1402" r="8" class="c0"/>
<circle cx="1046" cy="730" r="8" class="c0"/>
<circle cx="1066" cy="1162" r="8" class="c0"/>
<circle cx="1198" cy="1370" r="8" class="c0"/>
<circle cx="1122" cy="1314" r="8" class="c0"/>
<circle cx="972" cy="1328" r="8" class="c0"/>
<circle cx="994" cy="656" r="8" class="c0"/>
<circle cx="958" cy="1036" r="8" class="c0"/>
<circle cx="1040" cy="656" r="8" class="c0"/>
<circle cx="992" cy="1400" r="8" class="c0"/>
<circle cx="1110" cy="1178" r="8" class="c0"/>
<circle cx="970" cy="786" r="8" class="c0"/>
<circle cx="994" cy="930" r="8" class="c0"/>
<circle cx="1152" cy="1386" r="8" class="c0"/>
<circle cx="1102" cy="1428" r="8" class="c0"/>
<circle cx="972" cy="1212" r="8" class="c0"/>
<circle cx="1146" cy="1350" r="8" class="c0"/>
<circle cx="1012" cy="1276" r="8" class="c0"/>
<circle cx="932" cy="726" r="8" class="c0"/>
<circle cx="962" cy="598" r="6" class="c0"/>
<circle cx="950" cy="928" r="6" class="c0"/>
<circle cx="1032" cy="1156" r="6" class="c0"/>
<circle cx="952" cy="1156" r="6" class="c0"/>
<circle cx="984" cy="632" r="6" class="c0"/>
<circle cx="1068" cy="1234" r="6" class="c0"/>
<circle cx="934" cy="650" r="6" class="c0"/>
<circle cx="1046" cy="1220" r="6" class="c0"/>
<circle cx="1004" cy="1146" r="6" class="c0"/>
<circle cx="1052" cy="766" r="6" class="c0"/>
<circle cx="1106" cy="1308" r="6" class="c0"/>
<circle cx="1084" cy="1154" r="6" class="c0"/>
<circle cx="914" cy="1244" r="6" class="c0"/>
<circle cx="1082" cy="1394" r="6" class="c0"/>
<circle cx="884" cy="1042" r="6" class="c0"/>
<circle cx="948" cy="1218" r="6" class="c0"/>
<circle cx="1052" cy="884" r="6" class="c0"/>
<circle cx="994" cy="978" r="6" class="c0"/>
<circle cx="864" cy="1086" r="6" class="c0"/>
<circle cx="1012" cy="1386" r="6" class="c0"/>
<circle cx="926" cy="1214" r="6" class="c0"/>
<circle cx="966" cy="1108" r="6" class="c0"/>
<circle cx="872" cy="1204" r="6" class="c0"/>
<circle cx="1022" cy="1238" r="6" class="c0"/>
<circle cx="818" cy="1148" r="6" class="c0"/>
<circle cx="900" cy="736" r="6" class="c0"/>
<circle cx="1010" cy="898" r="6" class="c0"/>
<circle cx="994" cy="624" r="6" class="c0"/>
<circle cx="920" cy="870" r="6" class="c0"/>
<circle cx="1034" cy="942" r="6" class="c0"/>
<circle cx="936" cy="698" r="6" class="c0"/>
<circle cx="1006" cy="668" r="6" class="c0"/>
<circle cx="964" cy="958" r="6" class="c0"/>
<circle cx="922" cy="684" r="6" class="c0"/>
<circle cx="1000" cy="958" r="6" class="c0"/>
<circle cx="944" cy="810" r="6" class="c0"/>
<circle cx="956" cy="724" r="6" class="c0"/>
<circle cx="1022" cy="870" r="6" class="c0"/>
<circle cx="980" cy="736" r="6" class="c0"/>
<circle cx="1014" cy="1322" r="6" class="c0"/>
<circle cx="1056" cy="808" r="6" class="c0"/>
<circle cx="950" cy="1080" r="6" class="c0"/>
<circle cx="1026" cy="772" r="6" class="c0"/>
<circle cx="868" cy="1028" r="6" class="c0"/>
<circle cx="910" cy="944" r="6" class="c0"/>
<circle cx="1040" cy="1274" r="6" class="c0"/>
<circle cx="892" cy="1114" r="6" class="c0"/>
<circle cx="902" cy="1022" r="6" class="c0"/>
<circle cx="1020" cy="1112" r="6" class="c0"/>
<circle cx="1010" cy="596" r="6" class="c0"/>
<circle cx="1028" cy="1170" r="6" class="c0"/>
<circle cx="898" cy="1128" r="6" class="c0"/>
<circle cx="956" cy="1408" r="6" class="c0"/>
<circle cx="890" cy="1232" r="6" class="c0"/>
<circle cx="1008" cy="914" r="6" class="c0"/>
<circle cx="1060" cy="1226" r="6" class="c0"/>
<circle cx="1008" cy="1368" r="6" class="c0"/>
<circle cx="906" cy="1092" r="6" class="c0"/>
<circle cx="1052" cy="1110" r="6" class="c0"/>
<circle cx="820" cy="1124" r="6" class="c0"/>
<circle cx="1042" cy="622" r="6" class="c0"/>
<circle cx="1194" cy="1390" r="6" class="c0"/>
<circle cx="930" cy="1252" r="6" class="c0"/>
<circle cx="952" cy="818" r="6" class="c0"/>
<circle cx="842" cy="1190" r="6" class="c0"/>
<circle cx="1102" cy="1204" r="6" class="c0"/>
<circle cx="888" cy="1372" r="6" class="c0"/>
<circle cx="932" cy="1066" r="6" class="c0"/>
<circle cx="1028" cy="986" r="6" class="c0"/>
<circle cx="948" cy="640" r="6" class="c0"/>
<circle cx="958" cy="710" r="6" class="c0"/>
<circle cx="958" cy="920" r="6" class="c0"/>
<circle cx="1038" cy="1324" r="6" class="c0"/>
<circle cx="908" cy="982" r="6" class="c0"/>
<circle cx="890" cy="1386" r="6" class="c0"/>
<circle cx="1100" cy="1168" r="6" class="c0"/>
<circle cx="1086" cy="1220" r="6" class="c0"/>
<circle cx="1084" cy="1120" r="6" class="c0"/>
<circle cx="846" cy="1056" r="6" class="c0"/>
<circle cx="1008" cy="776" r="6" class="c0"/>
<circle cx="940" cy="1210" r="6" class="c0"/>
<circle cx="832" cy="1084" r="6" class="c0"/>
<circle cx="938" cy="1316" r="6" class="c0"/>
<circle cx="932" cy="898" r="6" class="c0"/>
<circle cx="992" cy="1296" r="6" class="c0"/>
<circle cx="1112" cy="1380" r="6" class="c0"/>
<circle cx="966" cy="912" r="6" class="c0"/>
<circle cx="1022" cy="802" r="6" class="c0"/>
<circle cx="994" cy="842" r="6" class="c0"/>
<circle cx="996" cy="766" r="6" class="c0"/>
<circle cx="1056" cy="1130" r="6" class="c0"/>
<circle cx="1088" cy="1314" r="6" class="c0"/>
<circle cx="1076" cy="1046" r="6" class="c0"/>
<circle cx="1060" cy="876" r="6" class="c0"/>
<circle cx="860" cy="1162" r="6" class="c0"/>
<circle cx="976" cy="1122" r="6" class="c0"/>
<circle cx="924" cy="1356" r="6" class="c0"/>
<circle cx="930" cy="998" r="6" class="c0"/>
<circle cx="916" cy="850" r="6" class="c0"/>
<circle cx="944" cy="788" r="6" class="c0"/>
<circle cx="1002" cy="694" r="6" class="c0"/>
</svg>
