<?xml version="1.0" encoding="utf-8"?>
<svg xmlns="http://www.w3.org/2000/svg"
     xmlns:xlink="http://www.w3.org/1999/xlink" width="1920" height="1440" >

            <defs>
            <style type="text/css"><![CDATA[
circle {stroke: none;}
.c0 {fill: #000000;}
]]></style>
            </defs>
<rect x="0" y="0" width="1920" height="1440" fill="white"/>
<circle cx="1124" cy="1212" r="12" class="c0"/>
<circle cx="1062" cy="890" r="12" class="c0"/>
<circle cx="1000" cy="946" r="12" class="c0"/>
<circle cx="1056" cy="1036" r="12" class="c0"/>
<circle cx="1156" cy="1162" r="12" class="c0"/>
<circle cx="1074" cy="1058" r="12" class="c0"/>
<circle cx="968" cy="698" r="12" class="c0"/>
<circle cx="888" cy="1218" r="12" class="c0"/>
<circle cx="1012" cy="756" r="12" class="c0"/>
<circle cx="1072" cy="1148" r="12" class="c0"/>
<circle cx="982" cy="1010" r="12" class="c0"/>
<circle cx="1006" cy="1256" r="12" class="c0"/>
<circle cx="1114" cy="1144" r="12" class="c0"/>
<circle cx="992" cy="1058" r="12" class="c0"/>
<circle cx="1036" cy="588" r="12" class="c0"/>
<circle cx="1102" cy="1222" r="12" class="c0"/>
<circle cx="1026" cy="1274" r="12" class="c0"/>
<circle cx="942" cy="1142" r="12" class="c0"/>
<circle cx="1028" cy="1408" r="12" class="c0"/>
<circle cx="1034" cy="552" r="12" class="c0"/>
<circle cx="1038" cy="962" r="12" class="c0"/>
<circle cx="996" cy="834" r="12" class="c0"/>
<circle cx="1002" cy="1214" r="12" class="c0"/>
<circle cx="1040" cy="1292" r="12" class="c0"/>
<circle cx="940" cy="1252" r="12" class="c0"/>
<circle cx="1090" cy="1188" r="12" class="c0"/>
<circle cx="1134" cy="1116" r="12" class="c0"/>
<circle cx="908" cy="1248" r="12" class="c0"/>
<circle cx="938" cy="926" r="12" class="c0"/>
<circle cx="1050" cy="1180" r="12" class="c0"/>
<circle cx="1038" cy="614" r="12" class="c0"/>
<circle cx="1050" cy="1386" r="12" class="c0"/>
<circle cx="974" cy="1316" r="12" class="c0"/>
<circle cx="1012" cy="668" r="12" class="c0"/>
<circle cx="1090" cy="1244" r="12" class="c0"/>
<circle cx="872" cy="1150" r="12" class="c0"/>
<circle cx="1038" cy="698" r="12" class="c0"/>
<circle cx="1102" cy="1040" r="12" class="c0"/>
<circle cx="970" cy="774" r="12" class="c0"/>
<circle cx="864" cy="1126" r="12" class="c0"/>
<circle cx="952" cy="1120" r="10" class="c0"/>
<circle cx="1050" cy="1236" r="10" class="c0"/>
<circle cx="968" cy="988" r="10" class="c0"/>
<circle cx="1030" cy="1028" r="10" class="c0"/>
<circle cx="864" cy="1230" r="10" class="c0"/>
<circle cx="1108" cy="1074" r="10" class="c0"/>
<circle cx="846" cy="1240" r="10" class="c0"/>
<circle cx="934" cy="1306" r="10" class="c0"/>
<circle cx="998" cy="890" r="10" class="c0"/>
<circle cx="988" cy="666" r="10" class="c0"/>
<circle cx="1062" cy="1124" r="10" class="c0"/>
<circle cx="936" cy="798" r="10" class="c0"/>
<circle cx="1000" cy="642" r="10" class="c0"/>
<circle cx="948" cy="600" r="10" class="c0"/>
<circle cx="864" cy="1180" r="10" class="c0"/>
<circle cx="1142" cy="1094" r="10" class="c0"/>
<circle cx="1026" cy="836" r="10" class="c0"/>
<circle cx="1078" cy="720" r="10" class="c0"/>
<circle cx="978" cy="724" r="10" class="c0"/>
<circle cx="1082" cy="1022" r="10" class="c0"/>
<circle cx="1024" cy="1200" r="10" class="c0"/>
<circle cx="1002" cy="786" r="10" class="c0"/>
<circle cx="1050" cy="792" r="10" class="c0"/>
<circle cx="996" cy="864" r="10" class="c0"/>
<circle cx="938" cy="1026" r="10" class="c0"/>
<circle cx="1010" cy="714" r="10" class="c0"/>
<circle cx="1050" cy="1260" r="10" class="c0"/>
<circle cx="980" cy="572" r="10" class="c0"/>
<circle cx="1152" cy="1228" r="10" class="c0"/>
<circle cx="932" cy="1282" r="10" class="c0"/>
<circle cx="1006" cy="1126" r="10" class="c0"/>
<circle cx="984" cy="928" r="10" class="c0"/>
<circle cx="960" cy="738" r="10" class="c0"/>
<circle cx="948" cy="634" r="10" class="c0"/>
<circle cx="1024" cy="780" r="10" class="c0"/>
<circle cx="1134" cy="1188" r="10" class="c0"/>
<circle cx="968" cy="1384" r="10" class="c0"/>
<circle cx="924" cy="968" r="10" class="c0"/>
<circle cx="1060" cy="1100" r="10" class="c0"/>
<circle cx="1036" cy="1320" r="10" class="c0"/>
<circle cx="978" cy="1154" r="10" class="c0"/>
<circle cx="1060" cy="762" r="10" class="c0"/>
<circle cx="958" cy="1052" r="10" class="c0"/>
<circle cx="1024" cy="734" r="10" class="c0"/>
<circle cx="972" cy="854" r="10" class="c0"/>
<circle cx="1034" cy="1070" r="10" class="c0"/>
<circle cx="1074" cy="746" r="10" class="c0"/>
<circle cx="952" cy="1080" r="10" class="c0"/>
<circle cx="900" cy="1088" r="10" class="c0"/>
<circle cx="1056" cy="656" r="10" class="c0"/>
<circle cx="860" cy="1252" r="10" class="c0"/>
<circle cx="946" cy="758" r="10" class="c0"/>
<circle cx="1118" cy="1056" r="10" class="c0"/>
<circle cx="824" cy="1184" r="10" class="c0"/>
<circle cx="1108" cy="1098" r="10" class="c0"/>
<circle cx="1066" cy="936" r="10" class="c0"/>
<circle cx="1042" cy="1144" r="10" class="c0"/>
<circle cx="920" cy="1064" r="10" class="c0"/>
<circle cx="962" cy="1262" r="10" class="c0"/>
<circle cx="1002" cy="602" r="10" class="c0"/>
<circle cx="1022" cy="634" r="10" class="c0"/>
<circle cx="986" cy="1412" r="10" class="c0"/>
<circle cx="1086" cy="968" r="10" class="c0"/>
<circle cx="996" cy="552" r="10" class="c0"/>
<circle cx="956" cy="568" r="10" class="c0"/>
<circle cx="946" cy="844" r="10" class="c0"/>
<circle cx="1082" cy="1092" r="10" class="c0"/>
<circle cx="1092" cy="1126" r="10" class="c0"/>
<circle cx="1018" cy="934" r="10" class="c0"/>
<circle cx="840" cy="1198" r="10" class="c0"/>
<circle cx="964" cy="956" r="10" class="c0"/>
<circle cx="930" cy="1178" r="10" class="c0"/>
<circle cx="1016" cy="1092" r="10" class="c0"/>
<circle cx="978" cy="1362" r="10" class="c0"/>
<circle cx="974" cy="1034" r="10" class="c0"/>
<circle cx="1002" cy="1316" r="10" class="c0"/>
<circle cx="1022" cy="1306" r="10" class="c0"/>
<circle cx="1036" cy="768" r="10" class="c0"/>
<circle cx="914" cy="1190" r="10" class="c0"/>
<circle cx="974" cy="886" r="10" class="c0"/>
<circle cx="976" cy="602" r="10" class="c0"/>
<circle cx="1064" cy="836" r="10" class="c0"/>
<circle cx="992" cy="1184" r="10" class="c0"/>
<circle cx="1086" cy="1162" r="10" class="c0"/>
<circle cx="970" cy="800" r="10" class="c0"/>
<circle cx="1024" cy="1052" r="10" class="c0"/>
<circle cx="860" cy="1104" r="8" class="c0"/>
<circle cx="904" cy="1276" r="8" class="c0"/>
<circle cx="1004" cy="1292" r="8" class="c0"/>
<circle cx="988" cy="1102" r="8" class="c0"/>
<circle cx="964" cy="658" r="8" class="c0"/>
<circle cx="888" cy="1134" r="8" class="c0"/>
<circle cx="1036" cy="876" r="8" class="c0"/>
<circle cx="834" cy="1160" r="8" class="c0"/>
<circle cx="1018" cy="902" r="8" class="c0"/>
<circle cx="1052" cy="630" r="8" class="c0"/>
<circle cx="960" cy="1216" r="8" class="c0"/>
<circle cx="964" cy="588" r="8" class="c0"/>
<circle cx="990" cy="690" r="8" class="c0"/>
<circle cx="1096" cy="1382" r="8" class="c0"/>
<circle cx="942" cy="718" r="8" class="c0"/>
<circle cx="1066" cy="1272" r="8" class="c0"/>
<circle cx="1018" cy="1236" r="8" class="c0"/>
<circle cx="956" cy="788" r="8" class="c0"/>
<circle cx="1112" cy="1408" r="8" class="c0"/>
<circle cx="896" cy="1046" r="8" class="c0"/>
<circle cx="1026" cy="1128" r="8" class="c0"/>
<circle cx="1168" cy="1208" r="8" class="c0"/>
<circle cx="950" cy="974" r="8" class="c0"/>
<circle cx="1036" cy="1114" r="8" class="c0"/>
<circle cx="1150" cy="1128" r="8" class="c0"/>
<circle cx="1084" cy="800" r="8" class="c0"/>
<circle cx="876" cy="1078" r="8" class="c0"/>
<circle cx="906" cy="1124" r="8" class="c0"/>
<circle cx="942" cy="1194" r="8" class="c0"/>
<circle cx="930" cy="994" r="8" class="c0"/>
<circle cx="966" cy="1236" r="8" class="c0"/>
<circle cx="1130" cy="1410" r="8" class="c0"/>
<circle cx="974" cy="1132" r="8" class="c0"/>
<circle cx="1042" cy="928" r="8" class="c0"/>
<circle cx="984" cy="758" r="8" class="c0"/>
<circle cx="1038" cy="1216" r="8" class="c0"/>
<circle cx="870" cy="1206" r="8" class="c0"/>
<circle cx="968" cy="1094" r="8" class="c0"/>
<circle cx="1122" cy="1276" r="8" class="c0"/>
<circle cx="1048" cy="1084" r="8" class="c0"/>
<circle cx="924" cy="870" r="8" class="c0"/>
<circle cx="1032" cy="676" r="8" class="c0"/>
<circle cx="896" cy="1022" r="8" class="c0"/>
<circle cx="1072" cy="598" r="8" class="c0"/>
<circle cx="928" cy="1414" r="8" class="c0"/>
<circle cx="1048" cy="1332" r="8" class="c0"/>
<circle cx="912" cy="1168" r="8" class="c0"/>
<circle cx="994" cy="1390" r="8" class="c0"/>
<circle cx="944" cy="822" r="8" class="c0"/>
<circle cx="1124" cy="1242" r="8" class="c0"/>
<circle cx="940" cy="882" r="8" class="c0"/>
<circle cx="1030" cy="804" r="8" class="c0"/>
<circle cx="1080" cy="780" r="8" class="c0"/>
<circle cx="1084" cy="1294" r="8" class="c0"/>
<circle cx="1072" cy="992" r="8" class="c0"/>
<circle cx="890" cy="1190" r="8" class="c0"/>
<circle cx="954" cy="1334" r="8" class="c0"/>
<circle cx="1036" cy="904" r="8" class="c0"/>
<circle cx="990" cy="808" r="8" class="c0"/>
<circle cx="968" cy="830" r="8" class="c0"/>
<circle cx="988" cy="590" r="8" class="c0"/>
<circle cx="1018" cy="984" r="8" class="c0"/>
<circle cx="1000" cy="978" r="8" class="c0"/>
<circle cx="960" cy="930" r="8" class="c0"/>
<circle cx="978" cy="1114" r="8" class="c0"/>
<circle cx="1004" cy="1150" r="8" class="c0"/>
<circle cx="1068" cy="1370" r="8" class="c0"/>
<circle cx="892" cy="1168" r="8" class="c0"/>
<circle cx="972" cy="1428" r="8" class="c0"/>
<circle cx="876" cy="1058" r="8" class="c0"/>
<circle cx="952" cy="1014" r="8" class="c0"/>
<circle cx="1054" cy="1204" r="8" class="c0"/>
<circle cx="976" cy="644" r="8" class="c0"/>
<circle cx="1070" cy="870" r="8" class="c0"/>
<circle cx="1072" cy="1212" r="8" class="c0"/>
<circle cx="1116" cy="1176" r="8" class="c0"/>
<circle cx="1054" cy="564" r="8" class="c0"/>
<circle cx="968" cy="1184" r="8" class="c0"/>
<circle cx="1044" cy="1356" r="8" class="c0"/>
<circle cx="1060" cy="912" r="8" class="c0"/>
<circle cx="1098" cy="1012" r="8" class="c0"/>
<circle cx="1010" cy="582" r="8" class="c0"/>
<circle cx="1008" cy="1072" r="8" class="c0"/>
<circle cx="1002" cy="1168" r="8" class="c0"/>
<circle cx="988" cy="624" r="8" class="c0"/>
<circle cx="922" cy="1220" r="8" class="c0"/>
<circle cx="1154" cy="1250" r="8" class="c0"/>
<circle cx="1054" cy="858" r="8" class="c0"/>
<circle cx="1060" cy="814" r="8" class="c0"/>
<circle cx="976" cy="906" r="8" class="c0"/>
<circle cx="1040" cy="642" r="8" class="c0"/>
<circle cx="956" cy="894" r="8" class="c0"/>
<circle cx="890" cy="1258" r="8" class="c0"/>
<circle cx="1012" cy="1038" r="8" class="c0"/>
<circle cx="954" cy="1414" r="8" class="c0"/>
<circle cx="1160" cy="1138" r="8" class="c0"/>
<circle cx="998" cy="730" r="8" class="c0"/>
<circle cx="1094" cy="1272" r="8" class="c0"/>
<circle cx="974" cy="1278" r="8" class="c0"/>
<circle cx="1090" cy="996" r="8" class="c0"/>
<circle cx="1052" cy="600" r="8" class="c0"/>
<circle cx="988" cy="1230" r="8" class="c0"/>
<circle cx="1008" cy="1020" r="8" class="c0"/>
<circle cx="1018" cy="854" r="8" class="c0"/>
<circle cx="1052" cy="728" r="8" class="c0"/>
<circle cx="1014" cy="692" r="8" class="c0"/>
<circle cx="900" cy="1202" r="8" class="c0"/>
<circle cx="844" cy="1174" r="8" class="c0"/>
<circle cx="910" cy="1104" r="8" class="c0"/>
<circle cx="990" cy="1084" r="8" class="c0"/>
<circle cx="1058" cy="1422" r="8" class="c0"/>
<circle cx="986" cy="960" r="8" class="c0"/>
<circle cx="940" cy="958" r="8" class="c0"/>
<circle cx="928" cy="706" r="8" class="c0"/>
<circle cx="890" cy="1108" r="8" class="c0"/>
<circle cx="1036" cy="852" r="8" class="c0"/>
<circle cx="1044" cy="1016" r="8" class="c0"/>
<circle cx="922" cy="1010" r="8" class="c0"/>
<circle cx="1016" cy="872" r="8" class="c0"/>
<circle cx="1064" cy="974" r="8" class="c0"/>
<circle cx="1082" cy="946" r="8" class="c0"/>
<circle cx="1006" cy="622" r="8" class="c0"/>
<circle cx="1030" cy="1344" r="8" class="c0"/>
<circle cx="1046" cy="996" r="8" class="c0"/>
<circle cx="1016" cy="814" r="8" class="c0"/>
<circle cx="1022" cy="1002" r="8" class="c0"/>
<circle cx="940" cy="1222" r="8" class="c0"/>
<circle cx="1170" cy="1186" r="8" class="c0"/>
<circle cx="924" cy="1154" r="8" class="c0"/>
<circle cx="1076" cy="1400" r="8" class="c0"/>
<circle cx="892" cy="1070" r="8" class="c0"/>
<circle cx="954" cy="1302" r="8" class="c0"/>
<circle cx="934" cy="832" r="8" class="c0"/>
<circle cx="1066" cy="620" r="8" class="c0"/>
<circle cx="876" cy="1276" r="8" class="c0"/>
<circle cx="844" cy="1144" r="8" class="c0"/>
<circle cx="1040" cy="1428" r="8" class="c0"/>
<circle cx="938" cy="740" r="8" class="c0"/>
<circle cx="938" cy="616" r="8" class="c0"/>
<circle cx="1080" cy="854" r="8" class="c0"/>
<circle cx="1072" cy="1176" r="8" class="c0"/>
<circle cx="1126" cy="1082" r="8" class="c0"/>
<circle cx="880" cy="1240" r="8" class="c0"/>
<circle cx="938" cy="1102" r="8" class="c0"/>
<circle cx="1042" cy="826" r="8" class="c0"/>
<circle cx="962" cy="1352" r="8" class="c0"/>
<circle cx="928" cy="1118" r="8" class="c0"/>
<circle cx="1000" cy="998" r="8" class="c0"/>
<circle cx="972" cy="544" r="8" class="c0"/>
<circle cx="960" cy="618" r="8" class="c0"/>
<circle cx="1106" cy="1164" r="8" class="c0"/>
<circle cx="1004" cy="1426" r="8" class="c0"/>
<circle cx="976" cy="1204" r="8" class="c0"/>
<circle cx="1068" cy="1250" r="8" class="c0"/>
<circle cx="914" cy="1300" r="8" class="c0"/>
<circle cx="1036" cy="1372" r="8" class="c0"/>
<circle cx="920" cy="1090" r="8" class="c0"/>
<circle cx="1050" cy="946" r="8" class="c0"/>
<circle cx="990" cy="1344" r="8" class="c0"/>
<circle cx="1024" cy="1170" r="8" class="c0"/>
<circle cx="956" cy="874" r="8" class="c0"/>
<circle cx="1058" cy="1320" r="8" class="c0"/>
<circle cx="1112" cy="1122" r="8" class="c0"/>
<circle cx="1052" cy="1060" r="8" class="c0"/>
<circle cx="1064" cy="574" r="8" class="c0"/>
<circle cx="1004" cy="914" r="8" class="c0"/>
<circle cx="906" cy="996" r="8" class="c0"/>
<circle cx="920" cy="1134" r="8" class="c0"/>
<circle cx="924" cy="760" r="8" class="c0"/>
<circle cx="1064" cy="1292" r="8" class="c0"/>
<circle cx="1074" cy="1230" r="8" class="c0"/>
<circle cx="842" cy="1220" r="8" class="c0"/>
<circle cx="928" cy="946" r="8" class="c0"/>
<circle cx="1136" cy="1138" r="8" class="c0"/>
<circle cx="1060" cy="1008" r="8" class="c0"/>
<circle cx="922" cy="1038" r="8" class="c0"/>
<circle cx="1014" cy="564" r="8" class="c0"/>
<circle cx="1084" cy="762" r="8" class="c0"/>
<circle cx="972" cy="1076" r="8" class="c0"/>
<circle cx="1068" cy="1194" r="8" class="c0"/>
<circle cx="996" cy="1276" r="8" class="c0"/>
<circle cx="1070" cy="790" r="8" class="c0"/>
<circle cx="830" cy="1230" r="8" class="c0"/>
<circle cx="1130" cy="1166" r="8" class="c0"/>
<circle cx="990" cy="710" r="8" class="c0"/>
<circle cx="988" cy="1300" r="8" class="c0"/>
<circle cx="852" cy="1210" r="8" class="c0"/>
<circle cx="976" cy="1250" r="8" class="c0"/>
<circle cx="1106" cy="1258" r="8" class="c0"/>
<circle cx="1158" cy="1196" r="6" class="c0"/>
<circle cx="960" cy="1168" r="6" class="c0"/>
<circle cx="934" cy="900" r="6" class="c0"/>
<circle cx="1030" cy="1254" r="6" class="c0"/>
<circle cx="1090" cy="1070" r="6" class="c0"/>
<circle cx="908" cy="1146" r="6" class="c0"/>
<circle cx="1016" cy="1184" r="6" class="c0"/>
<circle cx="1084" cy="878" r="6" class="c0"/>
<circle cx="964" cy="1292" r="6" class="c0"/>
<circle cx="930" cy="780" r="6" class="c0"/>
<circle cx="1082" cy="1112" r="6" class="c0"/>
<circle cx="954" cy="910" r="6" class="c0"/>
<circle cx="1090" cy="734" r="6" class="c0"/>
<circle cx="950" cy="1318" r="6" class="c0"/>
<circle cx="1144" cy="1260" r="6" class="c0"/>
<circle cx="1028" cy="1154" r="6" class="c0"/>
<circle cx="1020" cy="600" r="6" class="c0"/>
<circle cx="1082" cy="820" r="6" class="c0"/>
<circle cx="934" cy="1050" r="6" class="c0"/>
<circle cx="946" cy="1166" r="6" class="c0"/>
<circle cx="1034" cy="720" r="6" class="c0"/>
<circle cx="946" cy="992" r="6" class="c0"/>
<circle cx="1008" cy="1108" r="6" class="c0"/>
<circle cx="952" cy="1432" r="6" class="c0"/>
<circle cx="1108" cy="1292" r="6" class="c0"/>
<circle cx="1026" cy="652" r="6" class="c0"/>
<circle cx="890" cy="1284" r="6" class="c0"/>
<circle cx="984" cy="1266" r="6" class="c0"/>
<circle cx="1016" cy="536" r="6" class="c0"/>
<circle cx="926" cy="850" r="6" class="c0"/>
<circle cx="1046" cy="842" r="6" class="c0"/>
<circle cx="1016" cy="960" r="6" class="c0"/>
<circle cx="900" cy="1292" r="6" class="c0"/>
<circle cx="840" cy="1122" r="6" class="c0"/>
<circle cx="902" cy="1158" r="6" class="c0"/>
<circle cx="1136" cy="1252" r="6" class="c0"/>
<circle cx="1060" cy="710" r="6" class="c0"/>
<circle cx="952" cy="1182" r="6" class="c0"/>
<circle cx="1038" cy="746" r="6" class="c0"/>
<circle cx="938" cy="576" r="6" class="c0"/>
<circle cx="940" cy="864" r="6" class="c0"/>
<circle cx="996" cy="768" r="6" class="c0"/>
<circle cx="1134" cy="1230" r="6" class="c0"/>
<circle cx="976" cy="970" r="6" class="c0"/>
<circle cx="1036" cy="1096" r="6" class="c0"/>
<circle cx="986" cy="742" r="6" class="c0"/>
<circle cx="974" cy="748" r="6" class="c0"/>
<circle cx="990" cy="1134" r="6" class="c0"/>
<circle cx="956" cy="1370" r="6" class="c0"/>
<circle cx="1054" cy="1406" r="6" class="c0"/>
<circle cx="1144" cy="1204" r="6" class="c0"/>
<circle cx="1048" cy="680" r="6" class="c0"/>
<circle cx="1154" cy="1110" r="6" class="c0"/>
<circle cx="926" cy="1204" r="6" class="c0"/>
<circle cx="920" cy="1264" r="6" class="c0"/>
<circle cx="878" cy="1094" r="6" class="c0"/>
<circle cx="828" cy="1212" r="6" class="c0"/>
<circle cx="1068" cy="636" r="6" class="c0"/>
<circle cx="1020" cy="1144" r="6" class="c0"/>
<circle cx="1052" cy="1158" r="6" class="c0"/>
<circle cx="1014" cy="798" r="6" class="c0"/>
<circle cx="950" cy="1276" r="6" class="c0"/>
<circle cx="926" cy="724" r="6" class="c0"/>
<circle cx="1062" cy="1072" r="6" class="c0"/>
<circle cx="902" cy="1178" r="6" class="c0"/>
<circle cx="938" cy="1068" r="6" class="c0"/>
<circle cx="1098" cy="1060" r="6" class="c0"/>
<circle cx="854" cy="1162" r="6" class="c0"/>
<circle cx="978" cy="820" r="6" class="c0"/>
<circle cx="952" cy="708" r="6" class="c0"/>
<circle cx="984" cy="790" r="6" class="c0"/>
<circle cx="1116" cy="1028" r="6" class="c0"/>
<circle cx="1112" cy="1194" r="6" class="c0"/>
<circle cx="952" cy="944" r="6" class="c0"/>
<circle cx="894" cy="1430" r="6" class="c0"/>
<circle cx="864" cy="1088" r="6" class="c0"/>
<circle cx="1056" cy="1346" r="6" class="c0"/>
<circle cx="946" cy="660" r="6" class="c0"/>
<circle cx="962" cy="1146" r="6" class="c0"/>
<circle cx="974" cy="1342" r="6" class="c0"/>
<circle cx="976" cy="944" r="6" class="c0"/>
<circle cx="1084" cy="838" r="6" class="c0"/>
<circle cx="1066" cy="956" r="6" class="c0"/>
<circle cx="1026" cy="888" r="6" class="c0"/>
<circle cx="1074" cy="920" r="6" class="c0"/>
<circle cx="1026" cy="918" r="6" class="c0"/>
<circle cx="994" cy="1034" r="6" class="c0"/>
<circle cx="1028" cy="1226" r="6" class="c0"/>
<circle cx="1100" cy="982" r="6" class="c0"/>
<circle cx="958" cy="720" r="6" class="c0"/>
<circle cx="930" cy="1078" r="6" class="c0"/>
<circle cx="1064" cy="1354" r="6" class="c0"/>
<circle cx="958" cy="1198" r="6" class="c0"/>
<circle cx="992" cy="1374" r="6" class="c0"/>
<circle cx="956" cy="1032" r="6" class="c0"/>
<circle cx="976" cy="678" r="6" class="c0"/>
<circle cx="952" cy="808" r="6" class="c0"/>
<circle cx="1036" cy="984" r="6" class="c0"/>
<circle cx="980" cy="1172" r="6" class="c0"/>
<circle cx="912" cy="1024" r="6" class="c0"/>
<circle cx="968" cy="1404" r="6" class="c0"/>
<circle cx="914" cy="982" r="6" class="c0"/>
<circle cx="904" cy="1228" r="6" class="c0"/>
<circle cx="990" cy="534" r="6" class="c0"/>
<circle cx="1040" cy="1164" r="6" class="c0"/>
<circle cx="1042" cy="1050" r="6" class="c0"/>
<circle cx="1018" cy="1326" r="6" class="c0"/>
<circle cx="1006" cy="1194" r="6" class="c0"/>
<circle cx="1106" cy="998" r="6" class="c0"/>
<circle cx="954" cy="1156" r="6" class="c0"/>
<circle cx="1158" cy="1388" r="6" class="c0"/>
<circle cx="1080" cy="1264" r="6" class="c0"/>
<circle cx="1154" cy="1182" r="6" class="c0"/>
<circle cx="1020" cy="1432" r="6" class="c0"/>
<circle cx="1020" cy="1366" r="6" class="c0"/>
<circle cx="944" cy="700" r="6" class="c0"/>
<circle cx="970" cy="628" r="6" class="c0"/>
<circle cx="944" cy="776" r="6" class="c0"/>
<circle cx="934" cy="590" r="6" class="c0"/>
<circle cx="924" cy="1238" r="6" class="c0"/>
<circle cx="894" cy="1150" r="6" class="c0"/>
<circle cx="1138" cy="1272" r="6" class="c0"/>
<circle cx="940" cy="1004" r="6" class="c0"/>
<circle cx="1058" cy="1220" r="6" class="c0"/>
<circle cx="1132" cy="1066" r="6" class="c0"/>
<circle cx="1054" cy="744" r="6" class="c0"/>
<circle cx="1026" cy="1388" r="6" class="c0"/>
<circle cx="1112" cy="1372" r="6" class="c0"/>
<circle cx="928" cy="816" r="6" class="c0"/>
<circle cx="1036" cy="660" r="6" class="c0"/>
<circle cx="1088" cy="1210" r="6" class="c0"/>
<circle cx="1014" cy="1396" r="6" class="c0"/>
<circle cx="1054" cy="1304" r="6" class="c0"/>
<circle cx="960" cy="816" r="6" class="c0"/>
<circle cx="886" cy="1034" r="6" class="c0"/>
<circle cx="1034" cy="942" r="6" class="c0"/>
<circle cx="986" cy="986" r="6" class="c0"/>
<circle cx="988" cy="1430" r="6" class="c0"/>
<circle cx="950" cy="1232" r="6" class="c0"/>
<circle cx="1068" cy="702" r="6" class="c0"/>
<circle cx="906" cy="1036" r="6" class="c0"/>
<circle cx="1024" cy="574" r="6" class="c0"/>
<circle cx="912" cy="1048" r="6" class="c0"/>
<circle cx="1000" cy="572" r="6" class="c0"/>
<circle cx="930" cy="1398" r="6" class="c0"/>
<circle cx="1000" cy="700" r="6" class="c0"/>
<circle cx="1128" cy="1260" r="6" class="c0"/>
<circle cx="1096" cy="722" r="6" class="c0"/>
<circle cx="1048" cy="978" r="6" class="c0"/>
<circle cx="1070" cy="1080" r="6" class="c0"/>
<circle cx="988" cy="1328" r="6" class="c0"/>
<circle cx="848" cy="1114" r="6" class="c0"/>
<circle cx="1052" cy="874" r="6" class="c0"/>
<circle cx="1094" cy="1146" r="6" class="c0"/>
<circle cx="1164" cy="1402" r="6" class="c0"/>
<circle cx="978" cy="1220" r="6" class="c0"/>
<circle cx="948" cy="1394" r="6" class="c0"/>
<circle cx="1062" cy="1166" r="6" class="c0"/>
</svg>
