<?xml version="1.0" encoding="utf-8"?>
<svg xmlns="http://www.w3.org/2000/svg"
     xmlns:xlink="http://www.w3.org/1999/xlink" width="1920" height="1440" >

            <defs>
            <style type="text/css"><![CDATA[
circle {stroke: none;}
.c0 {fill: #000000;}
]]></style>
            </defs>
<rect x="0" y="0" width="1920" height="1440" fill="white"/>
<circle cx="950" cy="810" r="12" class="c0"/>
<circle cx="906" cy="930" r="12" class="c0"/>
<circle cx="876" cy="1280" r="12" class="c0"/>
<circle cx="1108" cy="1094" r="12" class="c0"/>
<circle cx="974" cy="1292" r="12" class="c0"/>
<circle cx="1126" cy="1058" r="12" class="c0"/>
<circle cx="1092" cy="1080" r="12" class="c0"/>
<circle cx="1080" cy="1306" r="12" class="c0"/>
<circle cx="938" cy="760" r="12" class="c0"/>
<circle cx="902" cy="1192" r="12" class="c0"/>
<circle cx="1112" cy="1038" r="12" class="c0"/>
<circle cx="912" cy="1114" r="12" class="c0"/>
<circle cx="1090" cy="790" r="12" class="c0"/>
<circle cx="1052" cy="648" r="12" class="c0"/>
<circle cx="1042" cy="1106" r="12" class="c0"/>
<circle cx="1050" cy="752" r="12" class="c0"/>
<circle cx="988" cy="494" r="12" class="c0"/>
<circle cx="868" cy="1250" r="12" class="c0"/>
<circle cx="920" cy="844" r="12" class="c0"/>
<circle cx="1066" cy="1146" r="12" class="c0"/>
<circle cx="1076" cy="548" r="12" class="c0"/>
<circle cx="1052" cy="990" r="12" class="c0"/>
<circle cx="1054" cy="1192" r="12" class="c0"/>
<circle cx="1042" cy="508" r="12" class="c0"/>
<circle cx="1078" cy="1124" r="12" class="c0"/>
<circle cx="990" cy="1202" r="12" class="c0"/>
<circle cx="996" cy="1052" r="12" class="c0"/>
<circle cx="1032" cy="482" r="12" class="c0"/>
<circle cx="1064" cy="1404" r="12" class="c0"/>
<circle cx="960" cy="1154" r="12" class="c0"/>
<circle cx="942" cy="1272" r="12" class="c0"/>
<circle cx="966" cy="872" r="12" class="c0"/>
<circle cx="958" cy="504" r="12" class="c0"/>
<circle cx="1144" cy="1186" r="12" class="c0"/>
<circle cx="1050" cy="686" r="12" class="c0"/>
<circle cx="1002" cy="1094" r="12" class="c0"/>
<circle cx="922" cy="886" r="12" class="c0"/>
<circle cx="998" cy="1396" r="12" class="c0"/>
<circle cx="1020" cy="1000" r="12" class="c0"/>
<circle cx="1130" cy="1108" r="12" class="c0"/>
<circle cx="1130" cy="1352" r="12" class="c0"/>
<circle cx="1016" cy="792" r="12" class="c0"/>
<circle cx="1082" cy="1362" r="12" class="c0"/>
<circle cx="1158" cy="1286" r="12" class="c0"/>
<circle cx="1030" cy="1422" r="12" class="c0"/>
<circle cx="1102" cy="974" r="12" class="c0"/>
<circle cx="970" cy="698" r="12" class="c0"/>
<circle cx="1004" cy="918" r="12" class="c0"/>
<circle cx="1010" cy="628" r="12" class="c0"/>
<circle cx="1060" cy="528" r="12" class="c0"/>
<circle cx="986" cy="1018" r="12" class="c0"/>
<circle cx="1058" cy="892" r="12" class="c0"/>
<circle cx="1104" cy="1254" r="12" class="c0"/>
<circle cx="1208" cy="1200" r="12" class="c0"/>
<circle cx="1002" cy="572" r="10" class="c0"/>
<circle cx="992" cy="1146" r="10" class="c0"/>
<circle cx="1022" cy="1354" r="10" class="c0"/>
<circle cx="988" cy="798" r="10" class="c0"/>
<circle cx="1196" cy="1276" r="10" class="c0"/>
<circle cx="1048" cy="1070" r="10" class="c0"/>
<circle cx="1130" cy="1278" r="10" class="c0"/>
<circle cx="998" cy="536" r="10" class="c0"/>
<circle cx="918" cy="1318" r="10" class="c0"/>
<circle cx="1008" cy="1220" r="10" class="c0"/>
<circle cx="1148" cy="1258" r="10" class="c0"/>
<circle cx="1006" cy="1278" r="10" class="c0"/>
<circle cx="936" cy="1366" r="10" class="c0"/>
<circle cx="1022" cy="818" r="10" class="c0"/>
<circle cx="900" cy="1328" r="10" class="c0"/>
<circle cx="1208" cy="1328" r="10" class="c0"/>
<circle cx="1050" cy="1254" r="10" class="c0"/>
<circle cx="930" cy="970" r="10" class="c0"/>
<circle cx="1098" cy="526" r="10" class="c0"/>
<circle cx="1134" cy="1162" r="10" class="c0"/>
<circle cx="1012" cy="1162" r="10" class="c0"/>
<circle cx="874" cy="1208" r="10" class="c0"/>
<circle cx="1190" cy="1142" r="10" class="c0"/>
<circle cx="1066" cy="934" r="10" class="c0"/>
<circle cx="1072" cy="978" r="10" class="c0"/>
<circle cx="1130" cy="1206" r="10" class="c0"/>
<circle cx="1116" cy="726" r="10" class="c0"/>
<circle cx="986" cy="882" r="10" class="c0"/>
<circle cx="1030" cy="594" r="10" class="c0"/>
<circle cx="1040" cy="952" r="10" class="c0"/>
<circle cx="910" cy="962" r="10" class="c0"/>
<circle cx="992" cy="676" r="10" class="c0"/>
<circle cx="1022" cy="1056" r="10" class="c0"/>
<circle cx="1152" cy="1330" r="10" class="c0"/>
<circle cx="1074" cy="844" r="10" class="c0"/>
<circle cx="936" cy="1094" r="10" class="c0"/>
<circle cx="1050" cy="620" r="10" class="c0"/>
<circle cx="888" cy="1228" r="10" class="c0"/>
<circle cx="1082" cy="890" r="10" class="c0"/>
<circle cx="1078" cy="1282" r="10" class="c0"/>
<circle cx="990" cy="938" r="10" class="c0"/>
<circle cx="1036" cy="1170" r="10" class="c0"/>
<circle cx="984" cy="990" r="10" class="c0"/>
<circle cx="960" cy="846" r="10" class="c0"/>
<circle cx="954" cy="784" r="10" class="c0"/>
<circle cx="954" cy="972" r="10" class="c0"/>
<circle cx="1168" cy="1230" r="10" class="c0"/>
<circle cx="1190" cy="1342" r="10" class="c0"/>
<circle cx="1112" cy="1012" r="10" class="c0"/>
<circle cx="1024" cy="760" r="10" class="c0"/>
<circle cx="1028" cy="642" r="10" class="c0"/>
<circle cx="1208" cy="1236" r="10" class="c0"/>
<circle cx="880" cy="1178" r="10" class="c0"/>
<circle cx="1038" cy="1328" r="10" class="c0"/>
<circle cx="950" cy="556" r="10" class="c0"/>
<circle cx="1064" cy="810" r="10" class="c0"/>
<circle cx="1168" cy="1112" r="10" class="c0"/>
<circle cx="932" cy="1016" r="10" class="c0"/>
<circle cx="944" cy="1070" r="10" class="c0"/>
<circle cx="1076" cy="498" r="10" class="c0"/>
<circle cx="970" cy="1330" r="10" class="c0"/>
<circle cx="978" cy="1416" r="10" class="c0"/>
<circle cx="1088" cy="1234" r="10" class="c0"/>
<circle cx="998" cy="854" r="10" class="c0"/>
<circle cx="1108" cy="1284" r="10" class="c0"/>
<circle cx="958" cy="1006" r="10" class="c0"/>
<circle cx="966" cy="1370" r="10" class="c0"/>
<circle cx="902" cy="788" r="10" class="c0"/>
<circle cx="1110" cy="604" r="10" class="c0"/>
<circle cx="1090" cy="1178" r="10" class="c0"/>
<circle cx="1106" cy="1196" r="10" class="c0"/>
<circle cx="1026" cy="894" r="10" class="c0"/>
<circle cx="1098" cy="1348" r="10" class="c0"/>
<circle cx="1100" cy="1144" r="10" class="c0"/>
<circle cx="1116" cy="988" r="10" class="c0"/>
<circle cx="1112" cy="1318" r="10" class="c0"/>
<circle cx="864" cy="1300" r="10" class="c0"/>
<circle cx="1056" cy="1042" r="10" class="c0"/>
<circle cx="916" cy="752" r="10" class="c0"/>
<circle cx="838" cy="1238" r="10" class="c0"/>
<circle cx="974" cy="1068" r="10" class="c0"/>
<circle cx="1170" cy="1166" r="10" class="c0"/>
<circle cx="1016" cy="1330" r="10" class="c0"/>
<circle cx="1104" cy="580" r="10" class="c0"/>
<circle cx="932" cy="1198" r="10" class="c0"/>
<circle cx="1012" cy="958" r="10" class="c0"/>
<circle cx="952" cy="910" r="10" class="c0"/>
<circle cx="1046" cy="796" r="10" class="c0"/>
<circle cx="1148" cy="1220" r="10" class="c0"/>
<circle cx="1016" cy="524" r="10" class="c0"/>
<circle cx="1072" cy="1060" r="10" class="c0"/>
<circle cx="1074" cy="1022" r="10" class="c0"/>
<circle cx="1004" cy="474" r="10" class="c0"/>
<circle cx="960" cy="1230" r="10" class="c0"/>
<circle cx="900" cy="1140" r="10" class="c0"/>
<circle cx="878" cy="1138" r="10" class="c0"/>
<circle cx="924" cy="1240" r="10" class="c0"/>
<circle cx="874" cy="1318" r="10" class="c0"/>
<circle cx="1032" cy="930" r="10" class="c0"/>
<circle cx="1044" cy="1014" r="10" class="c0"/>
<circle cx="972" cy="948" r="10" class="c0"/>
<circle cx="1170" cy="1306" r="10" class="c0"/>
<circle cx="1182" cy="1318" r="10" class="c0"/>
<circle cx="988" cy="1248" r="10" class="c0"/>
<circle cx="1140" cy="1140" r="10" class="c0"/>
<circle cx="1034" cy="860" r="10" class="c0"/>
<circle cx="1020" cy="700" r="10" class="c0"/>
<circle cx="952" cy="728" r="10" class="c0"/>
<circle cx="946" cy="890" r="8" class="c0"/>
<circle cx="1034" cy="1382" r="8" class="c0"/>
<circle cx="1180" cy="1184" r="8" class="c0"/>
<circle cx="958" cy="752" r="8" class="c0"/>
<circle cx="930" cy="910" r="8" class="c0"/>
<circle cx="1080" cy="732" r="8" class="c0"/>
<circle cx="930" cy="824" r="8" class="c0"/>
<circle cx="1032" cy="970" r="8" class="c0"/>
<circle cx="1042" cy="666" r="8" class="c0"/>
<circle cx="940" cy="1146" r="8" class="c0"/>
<circle cx="924" cy="716" r="8" class="c0"/>
<circle cx="956" cy="1202" r="8" class="c0"/>
<circle cx="1146" cy="1096" r="8" class="c0"/>
<circle cx="932" cy="1162" r="8" class="c0"/>
<circle cx="1038" cy="570" r="8" class="c0"/>
<circle cx="1018" cy="1124" r="8" class="c0"/>
<circle cx="850" cy="1212" r="8" class="c0"/>
<circle cx="1100" cy="674" r="8" class="c0"/>
<circle cx="1138" cy="1300" r="8" class="c0"/>
<circle cx="1074" cy="952" r="8" class="c0"/>
<circle cx="942" cy="1038" r="8" class="c0"/>
<circle cx="988" cy="740" r="8" class="c0"/>
<circle cx="896" cy="1162" r="8" class="c0"/>
<circle cx="1084" cy="962" r="8" class="c0"/>
<circle cx="1034" cy="1136" r="8" class="c0"/>
<circle cx="984" cy="612" r="8" class="c0"/>
<circle cx="938" cy="872" r="8" class="c0"/>
<circle cx="896" cy="762" r="8" class="c0"/>
<circle cx="1038" cy="834" r="8" class="c0"/>
<circle cx="982" cy="920" r="8" class="c0"/>
<circle cx="964" cy="1044" r="8" class="c0"/>
<circle cx="922" cy="1032" r="8" class="c0"/>
<circle cx="1164" cy="1082" r="8" class="c0"/>
<circle cx="1232" cy="1266" r="8" class="c0"/>
<circle cx="1056" cy="836" r="8" class="c0"/>
<circle cx="944" cy="1328" r="8" class="c0"/>
<circle cx="1200" cy="1180" r="8" class="c0"/>
<circle cx="1130" cy="698" r="8" class="c0"/>
<circle cx="1098" cy="826" r="8" class="c0"/>
<circle cx="1172" cy="1262" r="8" class="c0"/>
<circle cx="1120" cy="960" r="8" class="c0"/>
<circle cx="1066" cy="670" r="8" class="c0"/>
<circle cx="1020" cy="1260" r="8" class="c0"/>
<circle cx="860" cy="1184" r="8" class="c0"/>
<circle cx="1034" cy="1232" r="8" class="c0"/>
<circle cx="1100" cy="918" r="8" class="c0"/>
<circle cx="950" cy="1380" r="8" class="c0"/>
<circle cx="1140" cy="1024" r="8" class="c0"/>
<circle cx="1026" cy="544" r="8" class="c0"/>
<circle cx="1002" cy="1310" r="8" class="c0"/>
<circle cx="1010" cy="882" r="8" class="c0"/>
<circle cx="1136" cy="1318" r="8" class="c0"/>
<circle cx="980" cy="1348" r="8" class="c0"/>
<circle cx="1060" cy="1090" r="8" class="c0"/>
<circle cx="954" cy="1348" r="8" class="c0"/>
<circle cx="1108" cy="752" r="8" class="c0"/>
<circle cx="1108" cy="1372" r="8" class="c0"/>
<circle cx="1136" cy="1238" r="8" class="c0"/>
<circle cx="1080" cy="656" r="8" class="c0"/>
<circle cx="918" cy="1280" r="8" class="c0"/>
<circle cx="1096" cy="694" r="8" class="c0"/>
<circle cx="1062" cy="1330" r="8" class="c0"/>
<circle cx="1054" cy="858" r="8" class="c0"/>
<circle cx="1082" cy="818" r="8" class="c0"/>
<circle cx="1200" cy="1160" r="8" class="c0"/>
<circle cx="1046" cy="462" r="8" class="c0"/>
<circle cx="1092" cy="1208" r="8" class="c0"/>
<circle cx="1094" cy="564" r="8" class="c0"/>
<circle cx="1016" cy="1198" r="8" class="c0"/>
<circle cx="1202" cy="1296" r="8" class="c0"/>
<circle cx="972" cy="1092" r="8" class="c0"/>
<circle cx="992" cy="770" r="8" class="c0"/>
<circle cx="1008" cy="654" r="8" class="c0"/>
<circle cx="962" cy="1128" r="8" class="c0"/>
<circle cx="1054" cy="1356" r="8" class="c0"/>
<circle cx="904" cy="1078" r="8" class="c0"/>
<circle cx="1088" cy="936" r="8" class="c0"/>
<circle cx="1122" cy="1226" r="8" class="c0"/>
<circle cx="976" cy="724" r="8" class="c0"/>
<circle cx="1024" cy="1080" r="8" class="c0"/>
<circle cx="978" cy="1388" r="8" class="c0"/>
<circle cx="902" cy="1356" r="8" class="c0"/>
<circle cx="922" cy="1064" r="8" class="c0"/>
<circle cx="992" cy="714" r="8" class="c0"/>
<circle cx="840" cy="1276" r="8" class="c0"/>
<circle cx="1032" cy="716" r="8" class="c0"/>
<circle cx="1068" cy="700" r="8" class="c0"/>
<circle cx="1094" cy="1054" r="8" class="c0"/>
<circle cx="952" cy="1106" r="8" class="c0"/>
<circle cx="892" cy="952" r="8" class="c0"/>
<circle cx="1096" cy="856" r="8" class="c0"/>
<circle cx="964" cy="662" r="8" class="c0"/>
<circle cx="948" cy="692" r="8" class="c0"/>
<circle cx="974" cy="538" r="8" class="c0"/>
<circle cx="1042" cy="1272" r="8" class="c0"/>
<circle cx="1052" cy="582" r="8" class="c0"/>
<circle cx="960" cy="1252" r="8" class="c0"/>
<circle cx="996" cy="1124" r="8" class="c0"/>
<circle cx="1068" cy="1220" r="8" class="c0"/>
<circle cx="1000" cy="594" r="8" class="c0"/>
<circle cx="980" cy="1314" r="8" class="c0"/>
<circle cx="1048" cy="1392" r="8" class="c0"/>
<circle cx="952" cy="946" r="8" class="c0"/>
<circle cx="1098" cy="998" r="8" class="c0"/>
<circle cx="1136" cy="974" r="8" class="c0"/>
<circle cx="1082" cy="1098" r="8" class="c0"/>
<circle cx="938" cy="1220" r="8" class="c0"/>
<circle cx="922" cy="1338" r="8" class="c0"/>
<circle cx="852" cy="1266" r="8" class="c0"/>
<circle cx="1020" cy="504" r="8" class="c0"/>
<circle cx="936" cy="792" r="8" class="c0"/>
<circle cx="1074" cy="1430" r="8" class="c0"/>
<circle cx="1086" cy="620" r="8" class="c0"/>
<circle cx="1042" cy="776" r="8" class="c0"/>
<circle cx="928" cy="950" r="8" class="c0"/>
<circle cx="954" cy="528" r="8" class="c0"/>
<circle cx="966" cy="1272" r="8" class="c0"/>
<circle cx="918" cy="994" r="8" class="c0"/>
<circle cx="958" cy="1184" r="8" class="c0"/>
<circle cx="1064" cy="596" r="8" class="c0"/>
<circle cx="1084" cy="584" r="8" class="c0"/>
<circle cx="1160" cy="1044" r="8" class="c0"/>
<circle cx="1018" cy="1240" r="8" class="c0"/>
<circle cx="1022" cy="562" r="8" class="c0"/>
<circle cx="986" cy="832" r="8" class="c0"/>
<circle cx="1134" cy="1000" r="8" class="c0"/>
<circle cx="1040" cy="1210" r="8" class="c0"/>
<circle cx="900" cy="736" r="8" class="c0"/>
<circle cx="1020" cy="728" r="8" class="c0"/>
<circle cx="896" cy="1246" r="8" class="c0"/>
<circle cx="1028" cy="1286" r="8" class="c0"/>
<circle cx="1014" cy="836" r="8" class="c0"/>
<circle cx="1074" cy="1200" r="8" class="c0"/>
<circle cx="1074" cy="758" r="8" class="c0"/>
<circle cx="1076" cy="776" r="8" class="c0"/>
<circle cx="1070" cy="720" r="8" class="c0"/>
<circle cx="1220" cy="1280" r="8" class="c0"/>
<circle cx="912" cy="1052" r="8" class="c0"/>
<circle cx="1026" cy="1310" r="8" class="c0"/>
<circle cx="914" cy="1090" r="8" class="c0"/>
<circle cx="984" cy="1168" r="8" class="c0"/>
<circle cx="1150" cy="1012" r="8" class="c0"/>
<circle cx="890" cy="972" r="8" class="c0"/>
<circle cx="932" cy="700" r="8" class="c0"/>
<circle cx="1088" cy="1392" r="8" class="c0"/>
<circle cx="1196" cy="1218" r="8" class="c0"/>
<circle cx="1116" cy="1172" r="8" class="c0"/>
<circle cx="1020" cy="1024" r="8" class="c0"/>
<circle cx="904" cy="826" r="8" class="c0"/>
<circle cx="1046" cy="912" r="8" class="c0"/>
<circle cx="984" cy="1226" r="8" class="c0"/>
<circle cx="1108" cy="842" r="8" class="c0"/>
<circle cx="1092" cy="1428" r="8" class="c0"/>
<circle cx="1042" cy="1296" r="8" class="c0"/>
<circle cx="1018" cy="1374" r="8" class="c0"/>
<circle cx="890" cy="1120" r="8" class="c0"/>
<circle cx="1064" cy="480" r="8" class="c0"/>
<circle cx="1074" cy="1382" r="8" class="c0"/>
<circle cx="920" cy="1212" r="8" class="c0"/>
<circle cx="996" cy="970" r="8" class="c0"/>
<circle cx="1096" cy="714" r="8" class="c0"/>
<circle cx="1090" cy="646" r="8" class="c0"/>
<circle cx="1142" cy="1042" r="8" class="c0"/>
<circle cx="928" cy="1136" r="8" class="c0"/>
<circle cx="1210" cy="1256" r="8" class="c0"/>
<circle cx="970" cy="480" r="8" class="c0"/>
<circle cx="1008" cy="748" r="8" class="c0"/>
<circle cx="1156" cy="1064" r="8" class="c0"/>
<circle cx="974" cy="782" r="8" class="c0"/>
<circle cx="892" cy="1308" r="8" class="c0"/>
<circle cx="910" cy="904" r="8" class="c0"/>
<circle cx="984" cy="1274" r="8" class="c0"/>
<circle cx="996" cy="1356" r="8" class="c0"/>
<circle cx="1074" cy="630" r="8" class="c0"/>
<circle cx="966" cy="898" r="8" class="c0"/>
<circle cx="1052" cy="708" r="8" class="c0"/>
<circle cx="1110" cy="806" r="8" class="c0"/>
<circle cx="1090" cy="746" r="8" class="c0"/>
<circle cx="1160" cy="1132" r="8" class="c0"/>
<circle cx="1030" cy="738" r="8" class="c0"/>
<circle cx="1068" cy="912" r="8" class="c0"/>
<circle cx="1068" cy="574" r="8" class="c0"/>
<circle cx="1104" cy="878" r="8" class="c0"/>
<circle cx="898" cy="1272" r="8" class="c0"/>
<circle cx="942" cy="710" r="8" class="c0"/>
<circle cx="1058" cy="1236" r="8" class="c0"/>
<circle cx="1048" cy="560" r="8" class="c0"/>
<circle cx="1070" cy="1174" r="8" class="c0"/>
<circle cx="1184" cy="1288" r="8" class="c0"/>
<circle cx="1106" cy="552" r="8" class="c0"/>
<circle cx="1030" cy="618" r="8" class="c0"/>
<circle cx="922" cy="782" r="8" class="c0"/>
<circle cx="1004" cy="512" r="8" class="c0"/>
<circle cx="906" cy="808" r="8" class="c0"/>
<circle cx="974" cy="974" r="8" class="c0"/>
<circle cx="990" cy="1338" r="8" class="c0"/>
<circle cx="1214" cy="1170" r="8" class="c0"/>
<circle cx="1054" cy="1130" r="8" class="c0"/>
<circle cx="904" cy="714" r="8" class="c0"/>
<circle cx="1072" cy="1246" r="8" class="c0"/>
<circle cx="1180" cy="1246" r="8" class="c0"/>
<circle cx="1032" cy="1034" r="8" class="c0"/>
<circle cx="1014" cy="604" r="8" class="c0"/>
<circle cx="908" cy="1224" r="8" class="c0"/>
<circle cx="974" cy="822" r="8" class="c0"/>
<circle cx="954" cy="674" r="8" class="c0"/>
<circle cx="1164" cy="1356" r="8" class="c0"/>
<circle cx="932" cy="1302" r="8" class="c0"/>
<circle cx="1114" cy="1132" r="8" class="c0"/>
<circle cx="986" cy="524" r="8" class="c0"/>
<circle cx="1228" cy="1224" r="8" class="c0"/>
<circle cx="1108" cy="704" r="8" class="c0"/>
<circle cx="1048" cy="1158" r="8" class="c0"/>
<circle cx="988" cy="1108" r="8" class="c0"/>
<circle cx="1056" cy="1374" r="8" class="c0"/>
<circle cx="1080" cy="1338" r="8" class="c0"/>
<circle cx="944" cy="834" r="8" class="c0"/>
<circle cx="1110" cy="938" r="8" class="c0"/>
<circle cx="986" cy="584" r="8" class="c0"/>
<circle cx="1120" cy="686" r="8" class="c0"/>
<circle cx="1058" cy="1312" r="8" class="c0"/>
<circle cx="998" cy="1180" r="8" class="c0"/>
<circle cx="912" cy="868" r="8" class="c0"/>
<circle cx="888" cy="1098" r="8" class="c0"/>
<circle cx="1104" cy="1218" r="8" class="c0"/>
<circle cx="1112" cy="1072" r="8" class="c0"/>
<circle cx="1058" cy="730" r="8" class="c0"/>
<circle cx="1188" cy="1110" r="8" class="c0"/>
<circle cx="1004" cy="810" r="8" class="c0"/>
<circle cx="1084" cy="1262" r="8" class="c0"/>
<circle cx="970" cy="1212" r="8" class="c0"/>
<circle cx="1236" cy="1244" r="8" class="c0"/>
<circle cx="1184" cy="1202" r="8" class="c0"/>
<circle cx="1020" cy="672" r="8" class="c0"/>
<circle cx="986" cy="1368" r="8" class="c0"/>
<circle cx="986" cy="554" r="8" class="c0"/>
<circle cx="862" cy="1162" r="8" class="c0"/>
<circle cx="964" cy="570" r="8" class="c0"/>
<circle cx="948" cy="858" r="8" class="c0"/>
<circle cx="1094" cy="1110" r="8" class="c0"/>
<circle cx="1020" cy="1392" r="8" class="c0"/>
<circle cx="1072" cy="872" r="8" class="c0"/>
<circle cx="1092" cy="1328" r="8" class="c0"/>
<circle cx="1092" cy="764" r="8" class="c0"/>
<circle cx="940" cy="934" r="8" class="c0"/>
<circle cx="936" cy="996" r="8" class="c0"/>
<circle cx="1066" cy="1004" r="8" class="c0"/>
<circle cx="1006" cy="1070" r="8" class="c0"/>
<circle cx="974" cy="760" r="8" class="c0"/>
<circle cx="1178" cy="1096" r="8" class="c0"/>
<circle cx="1054" cy="1284" r="8" class="c0"/>
<circle cx="914" cy="1170" r="8" class="c0"/>
<circle cx="1154" cy="1154" r="8" class="c0"/>
<circle cx="994" cy="900" r="8" class="c0"/>
<circle cx="946" cy="1174" r="8" class="c0"/>
<circle cx="1120" cy="1150" r="8" class="c0"/>
<circle cx="1140" cy="1076" r="8" class="c0"/>
<circle cx="1104" cy="1122" r="8" class="c0"/>
<circle cx="1116" cy="780" r="8" class="c0"/>
<circle cx="840" cy="1256" r="6" class="c0"/>
<circle cx="958" cy="1080" r="6" class="c0"/>
<circle cx="948" cy="1306" r="6" class="c0"/>
<circle cx="1146" cy="1120" r="6" class="c0"/>
<circle cx="1012" cy="1140" r="6" class="c0"/>
<circle cx="906" cy="1256" r="6" class="c0"/>
<circle cx="944" cy="1126" r="6" class="c0"/>
<circle cx="996" cy="1430" r="6" class="c0"/>
<circle cx="922" cy="810" r="6" class="c0"/>
<circle cx="1086" cy="682" r="6" class="c0"/>
<circle cx="1056" cy="964" r="6" class="c0"/>
<circle cx="888" cy="1340" r="6" class="c0"/>
<circle cx="1064" cy="1346" r="6" class="c0"/>
<circle cx="934" cy="1348" r="6" class="c0"/>
<circle cx="966" cy="1028" r="6" class="c0"/>
<circle cx="1054" cy="1428" r="6" class="c0"/>
<circle cx="1060" cy="782" r="6" class="c0"/>
<circle cx="1012" cy="490" r="6" class="c0"/>
<circle cx="1228" cy="1206" r="6" class="c0"/>
<circle cx="1090" cy="1410" r="6" class="c0"/>
<circle cx="1006" cy="1114" r="6" class="c0"/>
<circle cx="1222" cy="1296" r="6" class="c0"/>
<circle cx="1118" cy="1298" r="6" class="c0"/>
<circle cx="1020" cy="1180" r="6" class="c0"/>
<circle cx="972" cy="602" r="6" class="c0"/>
<circle cx="850" cy="1288" r="6" class="c0"/>
<circle cx="930" cy="738" r="6" class="c0"/>
<circle cx="1008" cy="1014" r="6" class="c0"/>
<circle cx="1156" cy="1204" r="6" class="c0"/>
<circle cx="1094" cy="1020" r="6" class="c0"/>
<circle cx="944" cy="1250" r="6" class="c0"/>
<circle cx="972" cy="1138" r="6" class="c0"/>
<circle cx="1092" cy="598" r="6" class="c0"/>
<circle cx="1008" cy="686" r="6" class="c0"/>
<circle cx="976" cy="856" r="6" class="c0"/>
<circle cx="1016" cy="852" r="6" class="c0"/>
<circle cx="1052" cy="492" r="6" class="c0"/>
<circle cx="1002" cy="704" r="6" class="c0"/>
<circle cx="1098" cy="502" r="6" class="c0"/>
<circle cx="976" cy="1260" r="6" class="c0"/>
<circle cx="1052" cy="1340" r="6" class="c0"/>
<circle cx="1102" cy="952" r="6" class="c0"/>
<circle cx="1100" cy="900" r="6" class="c0"/>
<circle cx="1126" cy="1248" r="6" class="c0"/>
<circle cx="1064" cy="1266" r="6" class="c0"/>
<circle cx="1080" cy="524" r="6" class="c0"/>
<circle cx="912" cy="1154" r="6" class="c0"/>
<circle cx="1006" cy="1344" r="6" class="c0"/>
<circle cx="968" cy="800" r="6" class="c0"/>
<circle cx="1022" cy="1096" r="6" class="c0"/>
<circle cx="1086" cy="908" r="6" class="c0"/>
<circle cx="982" cy="652" r="6" class="c0"/>
<circle cx="1010" cy="552" r="6" class="c0"/>
<circle cx="1004" cy="1256" r="6" class="c0"/>
<circle cx="1022" cy="1148" r="6" class="c0"/>
<circle cx="1002" cy="986" r="6" class="c0"/>
<circle cx="908" cy="984" r="6" class="c0"/>
<circle cx="1050" cy="874" r="6" class="c0"/>
<circle cx="1062" cy="1114" r="6" class="c0"/>
<circle cx="988" cy="1080" r="6" class="c0"/>
<circle cx="1026" cy="460" r="6" class="c0"/>
<circle cx="1070" cy="1078" r="6" class="c0"/>
<circle cx="1050" cy="1220" r="6" class="c0"/>
<circle cx="1080" cy="1040" r="6" class="c0"/>
<circle cx="1176" cy="1130" r="6" class="c0"/>
<circle cx="1062" cy="768" r="6" class="c0"/>
<circle cx="908" cy="1300" r="6" class="c0"/>
<circle cx="996" cy="1294" r="6" class="c0"/>
<circle cx="936" cy="1118" r="6" class="c0"/>
<circle cx="1086" cy="512" r="6" class="c0"/>
<circle cx="898" cy="1290" r="6" class="c0"/>
<circle cx="1046" cy="816" r="6" class="c0"/>
<circle cx="1066" cy="612" r="6" class="c0"/>
<circle cx="1044" cy="544" r="6" class="c0"/>
<circle cx="1124" cy="1082" r="6" class="c0"/>
<circle cx="1004" cy="732" r="6" class="c0"/>
<circle cx="1012" cy="1038" r="6" class="c0"/>
<circle cx="1010" cy="772" r="6" class="c0"/>
<circle cx="1156" cy="1242" r="6" class="c0"/>
<circle cx="1082" cy="1006" r="6" class="c0"/>
<circle cx="1038" cy="1364" r="6" class="c0"/>
<circle cx="970" cy="930" r="6" class="c0"/>
<circle cx="1016" cy="978" r="6" class="c0"/>
<circle cx="1024" cy="914" r="6" class="c0"/>
<circle cx="954" cy="1056" r="6" class="c0"/>
<circle cx="1040" cy="1052" r="6" class="c0"/>
<circle cx="970" cy="1108" r="6" class="c0"/>
<circle cx="930" cy="1178" r="6" class="c0"/>
<circle cx="1020" cy="942" r="6" class="c0"/>
<circle cx="970" cy="586" r="6" class="c0"/>
<circle cx="1150" cy="1348" r="6" class="c0"/>
<circle cx="1030" cy="1190" r="6" class="c0"/>
<circle cx="854" cy="1230" r="6" class="c0"/>
<circle cx="1068" cy="790" r="6" class="c0"/>
<circle cx="1004" cy="1420" r="6" class="c0"/>
<circle cx="926" cy="926" r="6" class="c0"/>
<circle cx="1100" cy="736" r="6" class="c0"/>
<circle cx="898" cy="846" r="6" class="c0"/>
<circle cx="944" cy="538" r="6" class="c0"/>
<circle cx="1000" cy="872" r="6" class="c0"/>
<circle cx="1222" cy="1316" r="6" class="c0"/>
<circle cx="1020" cy="870" r="6" class="c0"/>
<circle cx="848" cy="1194" r="6" class="c0"/>
<circle cx="950" cy="1292" r="6" class="c0"/>
<circle cx="830" cy="1266" r="6" class="c0"/>
<circle cx="1018" cy="1296" r="6" class="c0"/>
<circle cx="1014" cy="1412" r="6" class="c0"/>
<circle cx="998" cy="1234" r="6" class="c0"/>
<circle cx="1004" cy="1030" r="6" class="c0"/>
<circle cx="1100" cy="1304" r="6" class="c0"/>
<circle cx="1174" cy="1334" r="6" class="c0"/>
<circle cx="1120" cy="1336" r="6" class="c0"/>
<circle cx="1026" cy="1218" r="6" class="c0"/>
<circle cx="1170" cy="1212" r="6" class="c0"/>
<circle cx="1040" cy="530" r="6" class="c0"/>
<circle cx="1010" cy="718" r="6" class="c0"/>
<circle cx="1086" cy="1160" r="6" class="c0"/>
<circle cx="832" cy="1210" r="6" class="c0"/>
<circle cx="1226" cy="1192" r="6" class="c0"/>
<circle cx="962" cy="1312" r="6" class="c0"/>
<circle cx="866" cy="1224" r="6" class="c0"/>
<circle cx="918" cy="1364" r="6" class="c0"/>
<circle cx="1172" cy="1068" r="6" class="c0"/>
<circle cx="1040" cy="1086" r="6" class="c0"/>
<circle cx="934" cy="1052" r="6" class="c0"/>
<circle cx="1018" cy="582" r="6" class="c0"/>
<circle cx="968" cy="740" r="6" class="c0"/>
<circle cx="1084" cy="704" r="6" class="c0"/>
<circle cx="1192" cy="1256" r="6" class="c0"/>
<circle cx="1170" cy="1194" r="6" class="c0"/>
<circle cx="1002" cy="826" r="6" class="c0"/>
<circle cx="920" cy="1260" r="6" class="c0"/>
<circle cx="974" cy="1188" r="6" class="c0"/>
<circle cx="964" cy="988" r="6" class="c0"/>
<circle cx="878" cy="1158" r="6" class="c0"/>
<circle cx="952" cy="1026" r="6" class="c0"/>
<circle cx="972" cy="678" r="6" class="c0"/>
<circle cx="964" cy="770" r="6" class="c0"/>
<circle cx="1000" cy="1004" r="6" class="c0"/>
<circle cx="1150" cy="1310" r="6" class="c0"/>
<circle cx="1044" cy="1408" r="6" class="c0"/>
<circle cx="1042" cy="726" r="6" class="c0"/>
<circle cx="1118" cy="1266" r="6" class="c0"/>
<circle cx="1188" cy="1232" r="6" class="c0"/>
<circle cx="982" cy="1038" r="6" class="c0"/>
<circle cx="1064" cy="1294" r="6" class="c0"/>
<circle cx="1172" cy="1146" r="6" class="c0"/>
<circle cx="896" cy="1212" r="6" class="c0"/>
<circle cx="1122" cy="1188" r="6" class="c0"/>
<circle cx="884" cy="1262" r="6" class="c0"/>
<circle cx="1078" cy="606" r="6" class="c0"/>
<circle cx="1040" cy="882" r="6" class="c0"/>
<circle cx="980" cy="1128" r="6" class="c0"/>
<circle cx="1068" cy="742" r="6" class="c0"/>
<circle cx="1108" cy="510" r="6" class="c0"/>
<circle cx="1048" cy="602" r="6" class="c0"/>
<circle cx="1094" cy="1274" r="6" class="c0"/>
<circle cx="1100" cy="630" r="6" class="c0"/>
<circle cx="976" cy="512" r="6" class="c0"/>
<circle cx="916" cy="732" r="6" class="c0"/>
<circle cx="928" cy="862" r="6" class="c0"/>
<circle cx="1202" cy="1130" r="6" class="c0"/>
<circle cx="894" cy="916" r="6" class="c0"/>
<circle cx="956" cy="928" r="6" class="c0"/>
<circle cx="994" cy="696" r="6" class="c0"/>
<circle cx="984" cy="472" r="6" class="c0"/>
<circle cx="1114" cy="864" r="6" class="c0"/>
<circle cx="1092" cy="1292" r="6" class="c0"/>
<circle cx="912" cy="772" r="6" class="c0"/>
<circle cx="1208" cy="1144" r="6" class="c0"/>
<circle cx="1002" cy="1372" r="6" class="c0"/>
<circle cx="996" cy="1264" r="6" class="c0"/>
<circle cx="1084" cy="990" r="6" class="c0"/>
<circle cx="942" cy="1236" r="6" class="c0"/>
<circle cx="1126" cy="944" r="6" class="c0"/>
<circle cx="986" cy="960" r="6" class="c0"/>
<circle cx="942" cy="958" r="6" class="c0"/>
<circle cx="1144" cy="1366" r="6" class="c0"/>
<circle cx="1118" cy="764" r="6" class="c0"/>
<circle cx="1122" cy="744" r="6" class="c0"/>
<circle cx="1212" cy="1308" r="6" class="c0"/>
<circle cx="984" cy="864" r="6" class="c0"/>
<circle cx="1088" cy="1032" r="6" class="c0"/>
<circle cx="968" cy="554" r="6" class="c0"/>
<circle cx="924" cy="1080" r="6" class="c0"/>
<circle cx="1032" cy="1250" r="6" class="c0"/>
<circle cx="902" cy="890" r="6" class="c0"/>
<circle cx="1114" cy="822" r="6" class="c0"/>
<circle cx="1088" cy="486" r="6" class="c0"/>
<circle cx="1030" cy="684" r="6" class="c0"/>
<circle cx="1040" cy="1348" r="6" class="c0"/>
<circle cx="1078" cy="922" r="6" class="c0"/>
<circle cx="1116" cy="670" r="6" class="c0"/>
<circle cx="1130" cy="716" r="6" class="c0"/>
<circle cx="1010" cy="1432" r="6" class="c0"/>
<circle cx="1102" cy="1162" r="6" class="c0"/>
<circle cx="1078" cy="690" r="6" class="c0"/>
<circle cx="968" cy="520" r="6" class="c0"/>
<circle cx="840" cy="1202" r="6" class="c0"/>
<circle cx="1002" cy="780" r="6" class="c0"/>
<circle cx="916" cy="798" r="6" class="c0"/>
<circle cx="900" cy="1062" r="6" class="c0"/>
<circle cx="1108" cy="1234" r="6" class="c0"/>
<circle cx="1088" cy="870" r="6" class="c0"/>
<circle cx="1144" cy="988" r="6" class="c0"/>
<circle cx="988" cy="628" r="6" class="c0"/>
<circle cx="1156" cy="1028" r="6" class="c0"/>
<circle cx="914" cy="704" r="6" class="c0"/>
</svg>
