<?xml version="1.0" encoding="utf-8"?>
<svg xmlns="http://www.w3.org/2000/svg"
     xmlns:xlink="http://www.w3.org/1999/xlink" width="1920" height="1440" >

            <defs>
            <style type="text/css"><![CDATA[
circle {stroke: none;}
.c0 {fill: #000000;}
]]></style>
            </defs>
<rect x="0" y="0" width="1920" height="1440" fill="white"/>
<circle cx="990" cy="480" r="12" class="c0"/>
<circle cx="1642" cy="722" r="12" class="c0"/>
<circle cx="1210" cy="444" r="12" class="c0"/>
<circle cx="1234" cy="814" r="12" class="c0"/>
<circle cx="1478" cy="846" r="12" class="c0"/>
<circle cx="1422" cy="692" r="12" class="c0"/>
<circle cx="1212" cy="710" r="12" class="c0"/>
<circle cx="1102" cy="688" r="12" class="c0"/>
<circle cx="1576" cy="856" r="12" class="c0"/>
<circle cx="1286" cy="784" r="12" class="c0"/>
<circle cx="1272" cy="770" r="12" class="c0"/>
<circle cx="1490" cy="722" r="12" class="c0"/>
<circle cx="1164" cy="790" r="12" class="c0"/>
<circle cx="1362" cy="650" r="12" class="c0"/>
<circle cx="1044" cy="514" r="12" class="c0"/>
<circle cx="1448" cy="638" r="12" class="c0"/>
<circle cx="1506" cy="942" r="12" class="c0"/>
<circle cx="1440" cy="960" r="12" class="c0"/>
<circle cx="1018" cy="550" r="12" class="c0"/>
<circle cx="1634" cy="760" r="12" class="c0"/>
<circle cx="1436" cy="662" r="12" class="c0"/>
<circle cx="1004" cy="532" r="12" class="c0"/>
<circle cx="1554" cy="758" r="12" class="c0"/>
<circle cx="1118" cy="806" r="12" class="c0"/>
<circle cx="1468" cy="656" r="12" class="c0"/>
<circle cx="1260" cy="732" r="12" class="c0"/>
<circle cx="1336" cy="838" r="12" class="c0"/>
<circle cx="900" cy="436" r="12" class="c0"/>
<circle cx="934" cy="608" r="12" class="c0"/>
<circle cx="988" cy="600" r="12" class="c0"/>
<circle cx="832" cy="510" r="12" class="c0"/>
<circle cx="906" cy="520" r="12" class="c0"/>
<circle cx="1054" cy="628" r="12" class="c0"/>
<circle cx="1464" cy="752" r="12" class="c0"/>
<circle cx="1320" cy="698" r="12" class="c0"/>
<circle cx="946" cy="336" r="12" class="c0"/>
<circle cx="1310" cy="894" r="12" class="c0"/>
<circle cx="1506" cy="896" r="12" class="c0"/>
<circle cx="1458" cy="818" r="12" class="c0"/>
<circle cx="1320" cy="756" r="12" class="c0"/>
<circle cx="898" cy="330" r="12" class="c0"/>
<circle cx="1258" cy="880" r="12" class="c0"/>
<circle cx="1064" cy="576" r="12" class="c0"/>
<circle cx="1318" cy="652" r="12" class="c0"/>
<circle cx="1186" cy="456" r="10" class="c0"/>
<circle cx="876" cy="478" r="10" class="c0"/>
<circle cx="880" cy="520" r="10" class="c0"/>
<circle cx="1218" cy="648" r="10" class="c0"/>
<circle cx="1310" cy="842" r="10" class="c0"/>
<circle cx="1450" cy="912" r="10" class="c0"/>
<circle cx="960" cy="554" r="10" class="c0"/>
<circle cx="1110" cy="476" r="10" class="c0"/>
<circle cx="1378" cy="918" r="10" class="c0"/>
<circle cx="1630" cy="648" r="10" class="c0"/>
<circle cx="1366" cy="846" r="10" class="c0"/>
<circle cx="962" cy="384" r="10" class="c0"/>
<circle cx="1578" cy="780" r="10" class="c0"/>
<circle cx="1130" cy="544" r="10" class="c0"/>
<circle cx="1292" cy="870" r="10" class="c0"/>
<circle cx="1430" cy="794" r="10" class="c0"/>
<circle cx="1004" cy="506" r="10" class="c0"/>
<circle cx="1602" cy="784" r="10" class="c0"/>
<circle cx="1386" cy="866" r="10" class="c0"/>
<circle cx="1082" cy="518" r="10" class="c0"/>
<circle cx="868" cy="354" r="10" class="c0"/>
<circle cx="1016" cy="590" r="10" class="c0"/>
<circle cx="1342" cy="896" r="10" class="c0"/>
<circle cx="1626" cy="782" r="10" class="c0"/>
<circle cx="1206" cy="668" r="10" class="c0"/>
<circle cx="1026" cy="492" r="10" class="c0"/>
<circle cx="1212" cy="744" r="10" class="c0"/>
<circle cx="1554" cy="904" r="10" class="c0"/>
<circle cx="914" cy="366" r="10" class="c0"/>
<circle cx="1430" cy="834" r="10" class="c0"/>
<circle cx="1356" cy="710" r="10" class="c0"/>
<circle cx="1094" cy="554" r="10" class="c0"/>
<circle cx="1484" cy="960" r="10" class="c0"/>
<circle cx="1628" cy="842" r="10" class="c0"/>
<circle cx="1460" cy="596" r="10" class="c0"/>
<circle cx="1608" cy="812" r="10" class="c0"/>
<circle cx="1444" cy="888" r="10" class="c0"/>
<circle cx="1256" cy="696" r="10" class="c0"/>
<circle cx="810" cy="448" r="10" class="c0"/>
<circle cx="1524" cy="786" r="10" class="c0"/>
<circle cx="1438" cy="742" r="10" class="c0"/>
<circle cx="1162" cy="764" r="10" class="c0"/>
<circle cx="1376" cy="824" r="10" class="c0"/>
<circle cx="1218" cy="570" r="10" class="c0"/>
<circle cx="1262" cy="828" r="10" class="c0"/>
<circle cx="1600" cy="840" r="10" class="c0"/>
<circle cx="1326" cy="630" r="10" class="c0"/>
<circle cx="1226" cy="732" r="10" class="c0"/>
<circle cx="1264" cy="652" r="10" class="c0"/>
<circle cx="1546" cy="634" r="10" class="c0"/>
<circle cx="1386" cy="612" r="10" class="c0"/>
<circle cx="1090" cy="776" r="10" class="c0"/>
<circle cx="922" cy="552" r="10" class="c0"/>
<circle cx="1078" cy="652" r="10" class="c0"/>
<circle cx="972" cy="536" r="10" class="c0"/>
<circle cx="910" cy="602" r="10" class="c0"/>
<circle cx="1464" cy="722" r="10" class="c0"/>
<circle cx="1026" cy="700" r="10" class="c0"/>
<circle cx="844" cy="424" r="10" class="c0"/>
<circle cx="1468" cy="902" r="10" class="c0"/>
<circle cx="1610" cy="762" r="10" class="c0"/>
<circle cx="1564" cy="718" r="10" class="c0"/>
<circle cx="1592" cy="692" r="10" class="c0"/>
<circle cx="1614" cy="686" r="10" class="c0"/>
<circle cx="1176" cy="694" r="10" class="c0"/>
<circle cx="1344" cy="740" r="10" class="c0"/>
<circle cx="1606" cy="940" r="10" class="c0"/>
<circle cx="1160" cy="716" r="10" class="c0"/>
<circle cx="1188" cy="750" r="10" class="c0"/>
<circle cx="912" cy="400" r="10" class="c0"/>
<circle cx="1184" cy="606" r="10" class="c0"/>
<circle cx="1076" cy="688" r="10" class="c0"/>
<circle cx="888" cy="462" r="10" class="c0"/>
<circle cx="1476" cy="934" r="10" class="c0"/>
<circle cx="914" cy="460" r="10" class="c0"/>
<circle cx="948" cy="456" r="10" class="c0"/>
<circle cx="1432" cy="926" r="10" class="c0"/>
<circle cx="934" cy="494" r="10" class="c0"/>
<circle cx="1200" cy="628" r="10" class="c0"/>
<circle cx="1048" cy="462" r="10" class="c0"/>
<circle cx="1616" cy="622" r="10" class="c0"/>
<circle cx="1354" cy="872" r="10" class="c0"/>
<circle cx="1398" cy="842" r="10" class="c0"/>
<circle cx="1034" cy="610" r="10" class="c0"/>
<circle cx="1448" cy="692" r="10" class="c0"/>
<circle cx="1218" cy="874" r="10" class="c0"/>
<circle cx="1360" cy="674" r="10" class="c0"/>
<circle cx="922" cy="296" r="10" class="c0"/>
<circle cx="1558" cy="932" r="10" class="c0"/>
<circle cx="1534" cy="880" r="10" class="c0"/>
<circle cx="1328" cy="810" r="10" class="c0"/>
<circle cx="1254" cy="670" r="10" class="c0"/>
<circle cx="1280" cy="684" r="10" class="c0"/>
<circle cx="1088" cy="744" r="10" class="c0"/>
<circle cx="1430" cy="626" r="10" class="c0"/>
<circle cx="1110" cy="666" r="10" class="c0"/>
<circle cx="1610" cy="730" r="10" class="c0"/>
<circle cx="1374" cy="948" r="10" class="c0"/>
<circle cx="1054" cy="534" r="10" class="c0"/>
<circle cx="1420" cy="990" r="10" class="c0"/>
<circle cx="1196" cy="572" r="10" class="c0"/>
<circle cx="1448" cy="848" r="10" class="c0"/>
<circle cx="896" cy="584" r="10" class="c0"/>
<circle cx="1184" cy="520" r="10" class="c0"/>
<circle cx="994" cy="670" r="10" class="c0"/>
<circle cx="1356" cy="762" r="10" class="c0"/>
<circle cx="1540" cy="952" r="10" class="c0"/>
<circle cx="1590" cy="878" r="10" class="c0"/>
<circle cx="1410" cy="908" r="10" class="c0"/>
<circle cx="1002" cy="638" r="10" class="c0"/>
<circle cx="1498" cy="616" r="10" class="c0"/>
<circle cx="1242" cy="770" r="10" class="c0"/>
<circle cx="1576" cy="584" r="10" class="c0"/>
<circle cx="1400" cy="966" r="10" class="c0"/>
<circle cx="1508" cy="866" r="10" class="c0"/>
<circle cx="1162" cy="642" r="10" class="c0"/>
<circle cx="1408" cy="728" r="10" class="c0"/>
<circle cx="1194" cy="540" r="10" class="c0"/>
<circle cx="1056" cy="676" r="10" class="c0"/>
<circle cx="1034" cy="666" r="10" class="c0"/>
<circle cx="956" cy="480" r="10" class="c0"/>
<circle cx="1542" cy="820" r="10" class="c0"/>
<circle cx="1154" cy="470" r="10" class="c0"/>
<circle cx="1498" cy="788" r="10" class="c0"/>
<circle cx="1122" cy="758" r="10" class="c0"/>
<circle cx="1518" cy="922" r="10" class="c0"/>
<circle cx="1040" cy="718" r="10" class="c0"/>
<circle cx="944" cy="522" r="10" class="c0"/>
<circle cx="1308" cy="672" r="10" class="c0"/>
<circle cx="1254" cy="784" r="10" class="c0"/>
<circle cx="1142" cy="498" r="10" class="c0"/>
<circle cx="1366" cy="622" r="10" class="c0"/>
<circle cx="980" cy="514" r="10" class="c0"/>
<circle cx="900" cy="382" r="10" class="c0"/>
<circle cx="866" cy="502" r="10" class="c0"/>
<circle cx="1396" cy="812" r="10" class="c0"/>
<circle cx="1512" cy="708" r="10" class="c0"/>
<circle cx="1194" cy="852" r="10" class="c0"/>
<circle cx="1176" cy="728" r="10" class="c0"/>
<circle cx="892" cy="354" r="10" class="c0"/>
<circle cx="1334" cy="788" r="10" class="c0"/>
<circle cx="932" cy="470" r="8" class="c0"/>
<circle cx="1350" cy="806" r="8" class="c0"/>
<circle cx="1562" cy="800" r="8" class="c0"/>
<circle cx="1392" cy="682" r="8" class="c0"/>
<circle cx="1144" cy="754" r="8" class="c0"/>
<circle cx="1094" cy="620" r="8" class="c0"/>
<circle cx="810" cy="420" r="8" class="c0"/>
<circle cx="1890" cy="658" r="8" class="c0"/>
<circle cx="1088" cy="574" r="8" class="c0"/>
<circle cx="1420" cy="880" r="8" class="c0"/>
<circle cx="1140" cy="774" r="8" class="c0"/>
<circle cx="878" cy="384" r="8" class="c0"/>
<circle cx="1384" cy="764" r="8" class="c0"/>
<circle cx="892" cy="564" r="8" class="c0"/>
<circle cx="1126" cy="580" r="8" class="c0"/>
<circle cx="1240" cy="746" r="8" class="c0"/>
<circle cx="1568" cy="652" r="8" class="c0"/>
<circle cx="1524" cy="668" r="8" class="c0"/>
<circle cx="1086" cy="704" r="8" class="c0"/>
<circle cx="1390" cy="634" r="8" class="c0"/>
<circle cx="1588" cy="720" r="8" class="c0"/>
<circle cx="1320" cy="922" r="8" class="c0"/>
<circle cx="1458" cy="780" r="8" class="c0"/>
<circle cx="898" cy="490" r="8" class="c0"/>
<circle cx="1062" cy="700" r="8" class="c0"/>
<circle cx="1498" cy="680" r="8" class="c0"/>
<circle cx="1116" cy="732" r="8" class="c0"/>
<circle cx="1396" cy="700" r="8" class="c0"/>
<circle cx="1480" cy="690" r="8" class="c0"/>
<circle cx="1182" cy="832" r="8" class="c0"/>
<circle cx="1130" cy="718" r="8" class="c0"/>
<circle cx="930" cy="570" r="8" class="c0"/>
<circle cx="1132" cy="520" r="8" class="c0"/>
<circle cx="1554" cy="580" r="8" class="c0"/>
<circle cx="970" cy="582" r="8" class="c0"/>
<circle cx="1194" cy="778" r="8" class="c0"/>
<circle cx="1284" cy="620" r="8" class="c0"/>
<circle cx="1648" cy="662" r="8" class="c0"/>
<circle cx="824" cy="392" r="8" class="c0"/>
<circle cx="1524" cy="696" r="8" class="c0"/>
<circle cx="1346" cy="626" r="8" class="c0"/>
<circle cx="1076" cy="488" r="8" class="c0"/>
<circle cx="1590" cy="658" r="8" class="c0"/>
<circle cx="1562" cy="826" r="8" class="c0"/>
<circle cx="944" cy="364" r="8" class="c0"/>
<circle cx="1510" cy="802" r="8" class="c0"/>
<circle cx="1224" cy="846" r="8" class="c0"/>
<circle cx="880" cy="420" r="8" class="c0"/>
<circle cx="1198" cy="796" r="8" class="c0"/>
<circle cx="1232" cy="702" r="8" class="c0"/>
<circle cx="1544" cy="682" r="8" class="c0"/>
<circle cx="984" cy="624" r="8" class="c0"/>
<circle cx="1902" cy="670" r="8" class="c0"/>
<circle cx="1504" cy="834" r="8" class="c0"/>
<circle cx="1364" cy="732" r="8" class="c0"/>
<circle cx="984" cy="446" r="8" class="c0"/>
<circle cx="844" cy="448" r="8" class="c0"/>
<circle cx="1104" cy="498" r="8" class="c0"/>
<circle cx="1300" cy="710" r="8" class="c0"/>
<circle cx="1496" cy="750" r="8" class="c0"/>
<circle cx="1596" cy="922" r="8" class="c0"/>
<circle cx="862" cy="546" r="8" class="c0"/>
<circle cx="1214" cy="602" r="8" class="c0"/>
<circle cx="866" cy="410" r="8" class="c0"/>
<circle cx="940" cy="580" r="8" class="c0"/>
<circle cx="1296" cy="740" r="8" class="c0"/>
<circle cx="1526" cy="650" r="8" class="c0"/>
<circle cx="1250" cy="842" r="8" class="c0"/>
<circle cx="1156" cy="614" r="8" class="c0"/>
<circle cx="1174" cy="424" r="8" class="c0"/>
<circle cx="1138" cy="684" r="8" class="c0"/>
<circle cx="1218" cy="780" r="8" class="c0"/>
<circle cx="1646" cy="684" r="8" class="c0"/>
<circle cx="1570" cy="746" r="8" class="c0"/>
<circle cx="1376" cy="898" r="8" class="c0"/>
<circle cx="1194" cy="680" r="8" class="c0"/>
<circle cx="1502" cy="970" r="8" class="c0"/>
<circle cx="1566" cy="626" r="8" class="c0"/>
<circle cx="1208" cy="822" r="8" class="c0"/>
<circle cx="876" cy="442" r="8" class="c0"/>
<circle cx="1258" cy="804" r="8" class="c0"/>
<circle cx="1486" cy="886" r="8" class="c0"/>
<circle cx="964" cy="600" r="8" class="c0"/>
<circle cx="1282" cy="660" r="8" class="c0"/>
<circle cx="1530" cy="614" r="8" class="c0"/>
<circle cx="1396" cy="780" r="8" class="c0"/>
<circle cx="1530" cy="970" r="8" class="c0"/>
<circle cx="1476" cy="636" r="8" class="c0"/>
<circle cx="850" cy="482" r="8" class="c0"/>
<circle cx="1482" cy="982" r="8" class="c0"/>
<circle cx="1014" cy="664" r="8" class="c0"/>
<circle cx="1542" cy="860" r="8" class="c0"/>
<circle cx="1380" cy="742" r="8" class="c0"/>
<circle cx="842" cy="466" r="8" class="c0"/>
<circle cx="1082" cy="724" r="8" class="c0"/>
<circle cx="1154" cy="570" r="8" class="c0"/>
<circle cx="858" cy="338" r="8" class="c0"/>
<circle cx="928" cy="424" r="8" class="c0"/>
<circle cx="1226" cy="530" r="8" class="c0"/>
<circle cx="1576" cy="682" r="8" class="c0"/>
<circle cx="1516" cy="762" r="8" class="c0"/>
<circle cx="1542" cy="720" r="8" class="c0"/>
<circle cx="1420" cy="854" r="8" class="c0"/>
<circle cx="1050" cy="592" r="8" class="c0"/>
<circle cx="1064" cy="734" r="8" class="c0"/>
<circle cx="1154" cy="532" r="8" class="c0"/>
<circle cx="1412" cy="942" r="8" class="c0"/>
<circle cx="968" cy="352" r="8" class="c0"/>
<circle cx="1230" cy="632" r="8" class="c0"/>
<circle cx="996" cy="564" r="8" class="c0"/>
<circle cx="1538" cy="774" r="8" class="c0"/>
<circle cx="860" cy="462" r="8" class="c0"/>
<circle cx="1524" cy="828" r="8" class="c0"/>
<circle cx="1106" cy="586" r="8" class="c0"/>
<circle cx="1052" cy="556" r="8" class="c0"/>
<circle cx="846" cy="402" r="8" class="c0"/>
<circle cx="1342" cy="936" r="8" class="c0"/>
<circle cx="1446" cy="986" r="8" class="c0"/>
<circle cx="1224" cy="680" r="8" class="c0"/>
<circle cx="1176" cy="562" r="8" class="c0"/>
<circle cx="842" cy="378" r="8" class="c0"/>
<circle cx="1092" cy="596" r="8" class="c0"/>
<circle cx="1054" cy="492" r="8" class="c0"/>
<circle cx="1396" cy="884" r="8" class="c0"/>
<circle cx="908" cy="480" r="8" class="c0"/>
<circle cx="806" cy="474" r="8" class="c0"/>
<circle cx="826" cy="432" r="8" class="c0"/>
<circle cx="1310" cy="728" r="8" class="c0"/>
<circle cx="1412" cy="768" r="8" class="c0"/>
<circle cx="1520" cy="740" r="8" class="c0"/>
<circle cx="1242" cy="654" r="8" class="c0"/>
<circle cx="1488" cy="600" r="8" class="c0"/>
<circle cx="1172" cy="538" r="8" class="c0"/>
<circle cx="1160" cy="674" r="8" class="c0"/>
<circle cx="1420" cy="752" r="8" class="c0"/>
<circle cx="1360" cy="792" r="8" class="c0"/>
<circle cx="1170" cy="842" r="8" class="c0"/>
<circle cx="1124" cy="606" r="8" class="c0"/>
<circle cx="1900" cy="628" r="8" class="c0"/>
<circle cx="1124" cy="640" r="8" class="c0"/>
<circle cx="1616" cy="870" r="8" class="c0"/>
<circle cx="1162" cy="506" r="8" class="c0"/>
<circle cx="958" cy="624" r="8" class="c0"/>
<circle cx="900" cy="292" r="8" class="c0"/>
<circle cx="1464" cy="682" r="8" class="c0"/>
<circle cx="1216" cy="802" r="8" class="c0"/>
<circle cx="1136" cy="830" r="8" class="c0"/>
<circle cx="1056" cy="654" r="8" class="c0"/>
<circle cx="1192" cy="814" r="8" class="c0"/>
<circle cx="1042" cy="572" r="8" class="c0"/>
<circle cx="884" cy="544" r="8" class="c0"/>
<circle cx="1370" cy="782" r="8" class="c0"/>
<circle cx="1074" cy="558" r="8" class="c0"/>
<circle cx="1494" cy="652" r="8" class="c0"/>
<circle cx="1884" cy="682" r="8" class="c0"/>
<circle cx="1352" cy="914" r="8" class="c0"/>
<circle cx="974" cy="494" r="8" class="c0"/>
<circle cx="1584" cy="826" r="8" class="c0"/>
<circle cx="1102" cy="714" r="8" class="c0"/>
<circle cx="1464" cy="980" r="8" class="c0"/>
<circle cx="1132" cy="660" r="8" class="c0"/>
<circle cx="1158" cy="832" r="8" class="c0"/>
<circle cx="1588" cy="620" r="8" class="c0"/>
<circle cx="1406" cy="670" r="8" class="c0"/>
<circle cx="1534" cy="750" r="8" class="c0"/>
<circle cx="1382" cy="668" r="8" class="c0"/>
<circle cx="1438" cy="868" r="8" class="c0"/>
<circle cx="1210" cy="420" r="8" class="c0"/>
<circle cx="1146" cy="628" r="8" class="c0"/>
<circle cx="1322" cy="872" r="8" class="c0"/>
<circle cx="1440" cy="774" r="8" class="c0"/>
<circle cx="1542" cy="798" r="8" class="c0"/>
<circle cx="1550" cy="608" r="8" class="c0"/>
<circle cx="1412" cy="826" r="8" class="c0"/>
<circle cx="1296" cy="640" r="8" class="c0"/>
<circle cx="1520" cy="594" r="8" class="c0"/>
<circle cx="1032" cy="634" r="8" class="c0"/>
<circle cx="1626" cy="668" r="8" class="c0"/>
<circle cx="1134" cy="618" r="8" class="c0"/>
<circle cx="1634" cy="698" r="8" class="c0"/>
<circle cx="1106" cy="526" r="8" class="c0"/>
<circle cx="1590" cy="742" r="8" class="c0"/>
<circle cx="1418" cy="638" r="8" class="c0"/>
<circle cx="1028" cy="470" r="8" class="c0"/>
<circle cx="1596" cy="604" r="8" class="c0"/>
<circle cx="1004" cy="616" r="8" class="c0"/>
<circle cx="1430" cy="590" r="8" class="c0"/>
<circle cx="836" cy="538" r="8" class="c0"/>
<circle cx="1488" cy="910" r="8" class="c0"/>
<circle cx="1014" cy="460" r="8" class="c0"/>
<circle cx="1554" cy="702" r="8" class="c0"/>
<circle cx="1628" cy="924" r="8" class="c0"/>
<circle cx="1202" cy="468" r="8" class="c0"/>
<circle cx="1176" cy="490" r="8" class="c0"/>
<circle cx="1378" cy="694" r="8" class="c0"/>
<circle cx="978" cy="408" r="8" class="c0"/>
<circle cx="1278" cy="910" r="8" class="c0"/>
<circle cx="1190" cy="654" r="8" class="c0"/>
<circle cx="1464" cy="882" r="8" class="c0"/>
<circle cx="890" cy="410" r="8" class="c0"/>
<circle cx="1448" cy="612" r="8" class="c0"/>
<circle cx="1576" cy="914" r="8" class="c0"/>
<circle cx="828" cy="488" r="8" class="c0"/>
<circle cx="1566" cy="692" r="8" class="c0"/>
<circle cx="932" cy="394" r="8" class="c0"/>
<circle cx="1436" cy="716" r="8" class="c0"/>
<circle cx="1220" cy="548" r="8" class="c0"/>
<circle cx="1118" cy="556" r="8" class="c0"/>
<circle cx="1582" cy="804" r="8" class="c0"/>
<circle cx="940" cy="308" r="8" class="c0"/>
<circle cx="1106" cy="608" r="8" class="c0"/>
<circle cx="914" cy="278" r="8" class="c0"/>
<circle cx="860" cy="310" r="8" class="c0"/>
<circle cx="1154" cy="448" r="8" class="c0"/>
<circle cx="1200" cy="508" r="8" class="c0"/>
<circle cx="1408" cy="616" r="8" class="c0"/>
<circle cx="1270" cy="708" r="8" class="c0"/>
<circle cx="1352" cy="826" r="8" class="c0"/>
<circle cx="1138" cy="592" r="8" class="c0"/>
<circle cx="1220" cy="762" r="8" class="c0"/>
<circle cx="1422" cy="606" r="8" class="c0"/>
<circle cx="1594" cy="640" r="8" class="c0"/>
<circle cx="1478" cy="782" r="8" class="c0"/>
<circle cx="1584" cy="936" r="8" class="c0"/>
<circle cx="1064" cy="472" r="8" class="c0"/>
<circle cx="954" cy="420" r="8" class="c0"/>
<circle cx="1494" cy="810" r="8" class="c0"/>
<circle cx="1284" cy="822" r="8" class="c0"/>
<circle cx="1508" cy="582" r="8" class="c0"/>
<circle cx="1476" cy="616" r="8" class="c0"/>
<circle cx="1234" cy="614" r="8" class="c0"/>
<circle cx="1576" cy="894" r="8" class="c0"/>
<circle cx="1308" cy="780" r="8" class="c0"/>
<circle cx="846" cy="524" r="8" class="c0"/>
<circle cx="1154" cy="808" r="8" class="c0"/>
<circle cx="1298" cy="766" r="8" class="c0"/>
<circle cx="1470" cy="702" r="8" class="c0"/>
<circle cx="1516" cy="636" r="8" class="c0"/>
<circle cx="926" cy="328" r="8" class="c0"/>
<circle cx="1122" cy="494" r="8" class="c0"/>
<circle cx="902" cy="268" r="8" class="c0"/>
<circle cx="1174" cy="622" r="8" class="c0"/>
<circle cx="1278" cy="742" r="8" class="c0"/>
<circle cx="1076" cy="606" r="8" class="c0"/>
<circle cx="1232" cy="664" r="8" class="c0"/>
<circle cx="1544" cy="840" r="8" class="c0"/>
<circle cx="1174" cy="588" r="8" class="c0"/>
<circle cx="1334" cy="676" r="8" class="c0"/>
<circle cx="1652" cy="702" r="8" class="c0"/>
<circle cx="1302" cy="814" r="8" class="c0"/>
<circle cx="912" cy="572" r="8" class="c0"/>
<circle cx="1476" cy="736" r="8" class="c0"/>
<circle cx="1532" cy="582" r="8" class="c0"/>
<circle cx="1308" cy="620" r="8" class="c0"/>
<circle cx="876" cy="318" r="8" class="c0"/>
<circle cx="1462" cy="954" r="8" class="c0"/>
<circle cx="1332" cy="722" r="8" class="c0"/>
<circle cx="1152" cy="550" r="8" class="c0"/>
<circle cx="1190" cy="416" r="8" class="c0"/>
<circle cx="1410" cy="800" r="8" class="c0"/>
<circle cx="1140" cy="736" r="8" class="c0"/>
<circle cx="1136" cy="564" r="8" class="c0"/>
<circle cx="1552" cy="660" r="8" class="c0"/>
<circle cx="1538" cy="916" r="8" class="c0"/>
<circle cx="1604" cy="668" r="8" class="c0"/>
<circle cx="1218" cy="482" r="8" class="c0"/>
<circle cx="944" cy="290" r="8" class="c0"/>
<circle cx="820" cy="362" r="8" class="c0"/>
<circle cx="1240" cy="720" r="8" class="c0"/>
<circle cx="1032" cy="536" r="8" class="c0"/>
<circle cx="1250" cy="634" r="8" class="c0"/>
<circle cx="1512" cy="982" r="8" class="c0"/>
<circle cx="974" cy="464" r="8" class="c0"/>
<circle cx="872" cy="568" r="8" class="c0"/>
<circle cx="1266" cy="852" r="8" class="c0"/>
<circle cx="916" cy="344" r="8" class="c0"/>
<circle cx="1038" cy="688" r="8" class="c0"/>
<circle cx="1170" cy="816" r="8" class="c0"/>
<circle cx="1274" cy="636" r="8" class="c0"/>
<circle cx="838" cy="306" r="8" class="c0"/>
<circle cx="1100" cy="650" r="8" class="c0"/>
<circle cx="1172" cy="660" r="8" class="c0"/>
<circle cx="1164" cy="598" r="8" class="c0"/>
<circle cx="1144" cy="706" r="8" class="c0"/>
<circle cx="1102" cy="756" r="8" class="c0"/>
<circle cx="1194" cy="486" r="8" class="c0"/>
<circle cx="1110" cy="628" r="8" class="c0"/>
<circle cx="1586" cy="762" r="8" class="c0"/>
<circle cx="1558" cy="876" r="8" class="c0"/>
<circle cx="1528" cy="938" r="8" class="c0"/>
<circle cx="1066" cy="502" r="8" class="c0"/>
<circle cx="1626" cy="822" r="8" class="c0"/>
<circle cx="1610" cy="708" r="8" class="c0"/>
<circle cx="1574" cy="606" r="8" class="c0"/>
<circle cx="1098" cy="794" r="8" class="c0"/>
<circle cx="974" cy="428" r="8" class="c0"/>
<circle cx="860" cy="380" r="8" class="c0"/>
<circle cx="1484" cy="800" r="8" class="c0"/>
<circle cx="1012" cy="684" r="8" class="c0"/>
<circle cx="1396" cy="750" r="8" class="c0"/>
<circle cx="1374" cy="718" r="8" class="c0"/>
<circle cx="1456" cy="996" r="8" class="c0"/>
<circle cx="1346" cy="690" r="8" class="c0"/>
<circle cx="966" cy="448" r="8" class="c0"/>
<circle cx="1624" cy="954" r="6" class="c0"/>
<circle cx="1324" cy="852" r="6" class="c0"/>
<circle cx="804" cy="400" r="6" class="c0"/>
<circle cx="1500" cy="766" r="6" class="c0"/>
<circle cx="1124" cy="786" r="6" class="c0"/>
<circle cx="1254" cy="754" r="6" class="c0"/>
<circle cx="800" cy="430" r="6" class="c0"/>
<circle cx="1610" cy="648" r="6" class="c0"/>
<circle cx="1484" cy="820" r="6" class="c0"/>
<circle cx="862" cy="522" r="6" class="c0"/>
<circle cx="1158" cy="736" r="6" class="c0"/>
<circle cx="1136" cy="466" r="6" class="c0"/>
<circle cx="1478" cy="764" r="6" class="c0"/>
<circle cx="1074" cy="624" r="6" class="c0"/>
<circle cx="910" cy="312" r="6" class="c0"/>
<circle cx="922" cy="506" r="6" class="c0"/>
<circle cx="850" cy="320" r="6" class="c0"/>
<circle cx="1342" cy="648" r="6" class="c0"/>
<circle cx="1574" cy="836" r="6" class="c0"/>
<circle cx="1912" cy="496" r="6" class="c0"/>
<circle cx="1120" cy="700" r="6" class="c0"/>
<circle cx="1400" cy="932" r="6" class="c0"/>
<circle cx="1290" cy="698" r="6" class="c0"/>
<circle cx="1026" cy="446" r="6" class="c0"/>
<circle cx="1024" cy="512" r="6" class="c0"/>
<circle cx="942" cy="542" r="6" class="c0"/>
<circle cx="1366" cy="884" r="6" class="c0"/>
<circle cx="1212" cy="520" r="6" class="c0"/>
<circle cx="1284" cy="720" r="6" class="c0"/>
<circle cx="1280" cy="806" r="6" class="c0"/>
<circle cx="1376" cy="968" r="6" class="c0"/>
<circle cx="1282" cy="854" r="6" class="c0"/>
<circle cx="1174" cy="472" r="6" class="c0"/>
<circle cx="984" cy="648" r="6" class="c0"/>
<circle cx="1534" cy="706" r="6" class="c0"/>
<circle cx="1280" cy="892" r="6" class="c0"/>
<circle cx="1236" cy="864" r="6" class="c0"/>
<circle cx="968" cy="636" r="6" class="c0"/>
<circle cx="878" cy="340" r="6" class="c0"/>
<circle cx="930" cy="444" r="6" class="c0"/>
<circle cx="1324" cy="736" r="6" class="c0"/>
<circle cx="1912" cy="524" r="6" class="c0"/>
<circle cx="1554" cy="784" r="6" class="c0"/>
<circle cx="1088" cy="666" r="6" class="c0"/>
<circle cx="1490" cy="862" r="6" class="c0"/>
<circle cx="1392" cy="720" r="6" class="c0"/>
<circle cx="1524" cy="904" r="6" class="c0"/>
<circle cx="944" cy="434" r="6" class="c0"/>
<circle cx="1572" cy="950" r="6" class="c0"/>
<circle cx="1026" cy="574" r="6" class="c0"/>
<circle cx="934" cy="274" r="6" class="c0"/>
<circle cx="1466" cy="796" r="6" class="c0"/>
<circle cx="1600" cy="862" r="6" class="c0"/>
<circle cx="982" cy="368" r="6" class="c0"/>
<circle cx="1492" cy="700" r="6" class="c0"/>
<circle cx="1426" cy="816" r="6" class="c0"/>
<circle cx="1454" cy="932" r="6" class="c0"/>
<circle cx="1362" cy="692" r="6" class="c0"/>
<circle cx="1182" cy="438" r="6" class="c0"/>
<circle cx="1184" cy="670" r="6" class="c0"/>
<circle cx="1912" cy="590" r="6" class="c0"/>
<circle cx="1310" cy="862" r="6" class="c0"/>
<circle cx="1636" cy="624" r="6" class="c0"/>
<circle cx="1416" cy="658" r="6" class="c0"/>
<circle cx="1596" cy="964" r="6" class="c0"/>
<circle cx="1158" cy="696" r="6" class="c0"/>
<circle cx="1644" cy="834" r="6" class="c0"/>
<circle cx="922" cy="590" r="6" class="c0"/>
<circle cx="1108" cy="778" r="6" class="c0"/>
<circle cx="1382" cy="796" r="6" class="c0"/>
<circle cx="1082" cy="542" r="6" class="c0"/>
<circle cx="826" cy="470" r="6" class="c0"/>
<circle cx="1622" cy="718" r="6" class="c0"/>
<circle cx="836" cy="360" r="6" class="c0"/>
<circle cx="1266" cy="898" r="6" class="c0"/>
<circle cx="1100" cy="730" r="6" class="c0"/>
<circle cx="1132" cy="484" r="6" class="c0"/>
<circle cx="980" cy="572" r="6" class="c0"/>
<circle cx="1138" cy="810" r="6" class="c0"/>
<circle cx="1524" cy="724" r="6" class="c0"/>
<circle cx="1078" cy="464" r="6" class="c0"/>
<circle cx="982" cy="554" r="6" class="c0"/>
<circle cx="910" cy="418" r="6" class="c0"/>
<circle cx="1430" cy="976" r="6" class="c0"/>
<circle cx="1626" cy="740" r="6" class="c0"/>
<circle cx="1210" cy="496" r="6" class="c0"/>
<circle cx="1462" cy="860" r="6" class="c0"/>
<circle cx="1404" cy="860" r="6" class="c0"/>
<circle cx="810" cy="384" r="6" class="c0"/>
<circle cx="1058" cy="608" r="6" class="c0"/>
<circle cx="854" cy="364" r="6" class="c0"/>
<circle cx="1912" cy="638" r="6" class="c0"/>
<circle cx="1344" cy="666" r="6" class="c0"/>
<circle cx="854" cy="568" r="6" class="c0"/>
<circle cx="1182" cy="640" r="6" class="c0"/>
<circle cx="1334" cy="914" r="6" class="c0"/>
<circle cx="1910" cy="654" r="6" class="c0"/>
<circle cx="998" cy="462" r="6" class="c0"/>
<circle cx="1234" cy="460" r="6" class="c0"/>
<circle cx="1316" cy="796" r="6" class="c0"/>
<circle cx="1022" cy="648" r="6" class="c0"/>
<circle cx="1402" cy="646" r="6" class="c0"/>
<circle cx="1448" cy="796" r="6" class="c0"/>
<circle cx="1536" cy="598" r="6" class="c0"/>
<circle cx="846" cy="498" r="6" class="c0"/>
<circle cx="880" cy="366" r="6" class="c0"/>
<circle cx="1442" cy="940" r="6" class="c0"/>
<circle cx="1092" cy="478" r="6" class="c0"/>
<circle cx="974" cy="660" r="6" class="c0"/>
<circle cx="894" cy="506" r="6" class="c0"/>
<circle cx="962" cy="506" r="6" class="c0"/>
<circle cx="1362" cy="934" r="6" class="c0"/>
<circle cx="942" cy="380" r="6" class="c0"/>
<circle cx="1236" cy="834" r="6" class="c0"/>
<circle cx="1580" cy="704" r="6" class="c0"/>
<circle cx="1428" cy="944" r="6" class="c0"/>
<circle cx="1368" cy="806" r="6" class="c0"/>
<circle cx="1088" cy="500" r="6" class="c0"/>
<circle cx="1290" cy="846" r="6" class="c0"/>
<circle cx="1000" cy="580" r="6" class="c0"/>
<circle cx="828" cy="454" r="6" class="c0"/>
<circle cx="1300" cy="910" r="6" class="c0"/>
<circle cx="1188" cy="712" r="6" class="c0"/>
<circle cx="1906" cy="508" r="6" class="c0"/>
<circle cx="1520" cy="958" r="6" class="c0"/>
<circle cx="1412" cy="710" r="6" class="c0"/>
<circle cx="1316" cy="824" r="6" class="c0"/>
<circle cx="1212" cy="856" r="6" class="c0"/>
<circle cx="1240" cy="518" r="6" class="c0"/>
<circle cx="1148" cy="664" r="6" class="c0"/>
<circle cx="908" cy="500" r="6" class="c0"/>
<circle cx="1426" cy="730" r="6" class="c0"/>
<circle cx="1174" cy="858" r="6" class="c0"/>
<circle cx="1488" cy="772" r="6" class="c0"/>
<circle cx="940" cy="408" r="6" class="c0"/>
<circle cx="1486" cy="670" r="6" class="c0"/>
<circle cx="1072" cy="714" r="6" class="c0"/>
<circle cx="1526" cy="856" r="6" class="c0"/>
<circle cx="1898" cy="644" r="6" class="c0"/>
<circle cx="924" cy="380" r="6" class="c0"/>
<circle cx="1652" cy="634" r="6" class="c0"/>
<circle cx="962" cy="406" r="6" class="c0"/>
<circle cx="1076" cy="760" r="6" class="c0"/>
<circle cx="830" cy="408" r="6" class="c0"/>
<circle cx="1386" cy="936" r="6" class="c0"/>
<circle cx="1464" cy="626" r="6" class="c0"/>
<circle cx="1240" cy="794" r="6" class="c0"/>
<circle cx="1234" cy="596" r="6" class="c0"/>
<circle cx="934" cy="350" r="6" class="c0"/>
<circle cx="1124" cy="676" r="6" class="c0"/>
<circle cx="1236" cy="566" r="6" class="c0"/>
<circle cx="862" cy="432" r="6" class="c0"/>
<circle cx="1004" cy="450" r="6" class="c0"/>
<circle cx="1616" cy="796" r="6" class="c0"/>
<circle cx="844" cy="554" r="6" class="c0"/>
<circle cx="1398" cy="986" r="6" class="c0"/>
<circle cx="902" cy="552" r="6" class="c0"/>
<circle cx="808" cy="490" r="6" class="c0"/>
<circle cx="932" cy="630" r="6" class="c0"/>
<circle cx="1338" cy="770" r="6" class="c0"/>
<circle cx="1096" cy="536" r="6" class="c0"/>
<circle cx="1552" cy="738" r="6" class="c0"/>
<circle cx="944" cy="562" r="6" class="c0"/>
<circle cx="1392" cy="654" r="6" class="c0"/>
<circle cx="948" cy="396" r="6" class="c0"/>
<circle cx="1274" cy="866" r="6" class="c0"/>
<circle cx="1446" cy="726" r="6" class="c0"/>
<circle cx="1086" cy="634" r="6" class="c0"/>
<circle cx="1550" cy="972" r="6" class="c0"/>
<circle cx="1204" cy="556" r="6" class="c0"/>
<circle cx="1232" cy="886" r="6" class="c0"/>
<circle cx="924" cy="534" r="6" class="c0"/>
<circle cx="1898" cy="554" r="6" class="c0"/>
<circle cx="1348" cy="854" r="6" class="c0"/>
<circle cx="1588" cy="952" r="6" class="c0"/>
<circle cx="1900" cy="538" r="6" class="c0"/>
<circle cx="1514" cy="848" r="6" class="c0"/>
<circle cx="1410" cy="596" r="6" class="c0"/>
<circle cx="1206" cy="588" r="6" class="c0"/>
<circle cx="1298" cy="688" r="6" class="c0"/>
<circle cx="1298" cy="798" r="6" class="c0"/>
<circle cx="1208" cy="840" r="6" class="c0"/>
<circle cx="1508" cy="730" r="6" class="c0"/>
<circle cx="1910" cy="610" r="6" class="c0"/>
<circle cx="1022" cy="624" r="6" class="c0"/>
<circle cx="1500" cy="850" r="6" class="c0"/>
<circle cx="1228" cy="584" r="6" class="c0"/>
<circle cx="1120" cy="510" r="6" class="c0"/>
<circle cx="956" cy="574" r="6" class="c0"/>
<circle cx="1494" cy="928" r="6" class="c0"/>
<circle cx="1564" cy="596" r="6" class="c0"/>
<circle cx="1202" cy="728" r="6" class="c0"/>
<circle cx="1244" cy="684" r="6" class="c0"/>
<circle cx="1276" cy="840" r="6" class="c0"/>
<circle cx="810" cy="510" r="6" class="c0"/>
<circle cx="1068" cy="750" r="6" class="c0"/>
<circle cx="948" cy="594" r="6" class="c0"/>
<circle cx="1580" cy="962" r="6" class="c0"/>
<circle cx="922" cy="264" r="6" class="c0"/>
<circle cx="1572" cy="972" r="6" class="c0"/>
<circle cx="1440" cy="808" r="6" class="c0"/>
<circle cx="1144" cy="792" r="6" class="c0"/>
<circle cx="1356" cy="950" r="6" class="c0"/>
<circle cx="1142" cy="646" r="6" class="c0"/>
<circle cx="1560" cy="956" r="6" class="c0"/>
<circle cx="1178" cy="802" r="6" class="c0"/>
<circle cx="1248" cy="858" r="6" class="c0"/>
<circle cx="1392" cy="904" r="6" class="c0"/>
<circle cx="1526" cy="810" r="6" class="c0"/>
<circle cx="1644" cy="744" r="6" class="c0"/>
<circle cx="990" cy="546" r="6" class="c0"/>
<circle cx="848" cy="352" r="6" class="c0"/>
<circle cx="1510" cy="654" r="6" class="c0"/>
<circle cx="1238" cy="480" r="6" class="c0"/>
<circle cx="1290" cy="900" r="6" class="c0"/>
<circle cx="1176" cy="774" r="6" class="c0"/>
<circle cx="1264" cy="620" r="6" class="c0"/>
<circle cx="1492" cy="584" r="6" class="c0"/>
<circle cx="1220" cy="512" r="6" class="c0"/>
<circle cx="892" cy="310" r="6" class="c0"/>
<circle cx="1108" cy="570" r="6" class="c0"/>
<circle cx="1338" cy="862" r="6" class="c0"/>
<circle cx="1012" cy="482" r="6" class="c0"/>
<circle cx="1418" cy="970" r="6" class="c0"/>
<circle cx="974" cy="614" r="6" class="c0"/>
<circle cx="1394" cy="946" r="6" class="c0"/>
<circle cx="1578" cy="642" r="6" class="c0"/>
<circle cx="1158" cy="490" r="6" class="c0"/>
<circle cx="1298" cy="658" r="6" class="c0"/>
<circle cx="1428" cy="898" r="6" class="c0"/>
<circle cx="1042" cy="482" r="6" class="c0"/>
<circle cx="1610" cy="958" r="6" class="c0"/>
<circle cx="1248" cy="532" r="6" class="c0"/>
<circle cx="1196" cy="696" r="6" class="c0"/>
<circle cx="1560" cy="676" r="6" class="c0"/>
<circle cx="1170" cy="746" r="6" class="c0"/>
<circle cx="1148" cy="846" r="6" class="c0"/>
<circle cx="1164" cy="522" r="6" class="c0"/>
<circle cx="1510" cy="604" r="6" class="c0"/>
<circle cx="884" cy="596" r="6" class="c0"/>
<circle cx="894" cy="534" r="6" class="c0"/>
<circle cx="1496" cy="634" r="6" class="c0"/>
<circle cx="996" cy="434" r="6" class="c0"/>
<circle cx="1558" cy="848" r="6" class="c0"/>
<circle cx="1098" cy="814" r="6" class="c0"/>
<circle cx="918" cy="620" r="6" class="c0"/>
<circle cx="1576" cy="730" r="6" class="c0"/>
<circle cx="1086" cy="806" r="6" class="c0"/>
<circle cx="818" cy="498" r="6" class="c0"/>
<circle cx="1324" cy="906" r="6" class="c0"/>
<circle cx="966" cy="332" r="6" class="c0"/>
<circle cx="1474" cy="586" r="6" class="c0"/>
<circle cx="1450" cy="674" r="6" class="c0"/>
<circle cx="1210" cy="688" r="6" class="c0"/>
<circle cx="1612" cy="596" r="6" class="c0"/>
<circle cx="1358" cy="606" r="6" class="c0"/>
<circle cx="1010" cy="572" r="6" class="c0"/>
<circle cx="1164" cy="436" r="6" class="c0"/>
<circle cx="1268" cy="794" r="6" class="c0"/>
<circle cx="1334" cy="612" r="6" class="c0"/>
<circle cx="1430" cy="764" r="6" class="c0"/>
<circle cx="1512" cy="818" r="6" class="c0"/>
<circle cx="818" cy="524" r="6" class="c0"/>
<circle cx="948" cy="504" r="6" class="c0"/>
<circle cx="1514" cy="678" r="6" class="c0"/>
<circle cx="1294" cy="832" r="6" class="c0"/>
<circle cx="1478" cy="868" r="6" class="c0"/>
<circle cx="1454" cy="870" r="6" class="c0"/>
<circle cx="1078" cy="588" r="6" class="c0"/>
<circle cx="1072" cy="532" r="6" class="c0"/>
<circle cx="1612" cy="852" r="6" class="c0"/>
<circle cx="824" cy="296" r="6" class="c0"/>
<circle cx="1414" cy="784" r="6" class="c0"/>
<circle cx="958" cy="322" r="6" class="c0"/>
<circle cx="908" cy="540" r="6" class="c0"/>
<circle cx="1644" cy="852" r="6" class="c0"/>
<circle cx="1110" cy="542" r="6" class="c0"/>
<circle cx="960" cy="366" r="6" class="c0"/>
<circle cx="1906" cy="688" r="6" class="c0"/>
<circle cx="1194" cy="432" r="6" class="c0"/>
<circle cx="1042" cy="644" r="6" class="c0"/>
<circle cx="1288" cy="756" r="6" class="c0"/>
<circle cx="1058" cy="716" r="6" class="c0"/>
<circle cx="1498" cy="990" r="6" class="c0"/>
<circle cx="1630" cy="942" r="6" class="c0"/>
<circle cx="1370" cy="752" r="6" class="c0"/>
<circle cx="1420" cy="956" r="6" class="c0"/>
<circle cx="1466" cy="920" r="6" class="c0"/>
<circle cx="1204" cy="768" r="6" class="c0"/>
<circle cx="1508" cy="690" r="6" class="c0"/>
<circle cx="1034" cy="586" r="6" class="c0"/>
<circle cx="1240" cy="546" r="6" class="c0"/>
<circle cx="1626" cy="860" r="6" class="c0"/>
<circle cx="1218" cy="618" r="6" class="c0"/>
<circle cx="978" cy="342" r="6" class="c0"/>
</svg>
