<?xml version="1.0" encoding="utf-8"?>
<svg xmlns="http://www.w3.org/2000/svg"
     xmlns:xlink="http://www.w3.org/1999/xlink" width="1920" height="1440" >

            <defs>
            <style type="text/css"><![CDATA[
circle {stroke: none;}
.c0 {fill: #000000;}
]]></style>
            </defs>
<rect x="0" y="0" width="1920" height="1440" fill="white"/>
<circle cx="1306" cy="696" r="14" class="c0"/>
<circle cx="1138" cy="818" r="14" class="c0"/>
<circle cx="1334" cy="874" r="12" class="c0"/>
<circle cx="948" cy="502" r="12" class="c0"/>
<circle cx="1044" cy="628" r="12" class="c0"/>
<circle cx="1392" cy="836" r="12" class="c0"/>
<circle cx="918" cy="416" r="12" class="c0"/>
<circle cx="1434" cy="1010" r="12" class="c0"/>
<circle cx="1132" cy="492" r="12" class="c0"/>
<circle cx="1470" cy="634" r="12" class="c0"/>
<circle cx="930" cy="548" r="12" class="c0"/>
<circle cx="826" cy="502" r="12" class="c0"/>
<circle cx="994" cy="526" r="12" class="c0"/>
<circle cx="1530" cy="932" r="12" class="c0"/>
<circle cx="1420" cy="718" r="12" class="c0"/>
<circle cx="1270" cy="766" r="12" class="c0"/>
<circle cx="1498" cy="650" r="12" class="c0"/>
<circle cx="1392" cy="700" r="12" class="c0"/>
<circle cx="1144" cy="746" r="12" class="c0"/>
<circle cx="1224" cy="876" r="12" class="c0"/>
<circle cx="1346" cy="946" r="12" class="c0"/>
<circle cx="1382" cy="864" r="12" class="c0"/>
<circle cx="1532" cy="976" r="12" class="c0"/>
<circle cx="1094" cy="568" r="12" class="c0"/>
<circle cx="1312" cy="860" r="12" class="c0"/>
<circle cx="1448" cy="898" r="12" class="c0"/>
<circle cx="982" cy="558" r="12" class="c0"/>
<circle cx="1448" cy="672" r="12" class="c0"/>
<circle cx="1418" cy="992" r="12" class="c0"/>
<circle cx="1380" cy="672" r="12" class="c0"/>
<circle cx="1346" cy="842" r="12" class="c0"/>
<circle cx="1488" cy="748" r="12" class="c0"/>
<circle cx="1106" cy="852" r="12" class="c0"/>
<circle cx="1464" cy="872" r="12" class="c0"/>
<circle cx="1434" cy="804" r="12" class="c0"/>
<circle cx="1170" cy="796" r="12" class="c0"/>
<circle cx="856" cy="612" r="12" class="c0"/>
<circle cx="1466" cy="986" r="12" class="c0"/>
<circle cx="1516" cy="856" r="12" class="c0"/>
<circle cx="1528" cy="808" r="12" class="c0"/>
<circle cx="954" cy="608" r="12" class="c0"/>
<circle cx="1110" cy="542" r="12" class="c0"/>
<circle cx="858" cy="560" r="12" class="c0"/>
<circle cx="1280" cy="868" r="12" class="c0"/>
<circle cx="994" cy="716" r="12" class="c0"/>
<circle cx="1556" cy="770" r="12" class="c0"/>
<circle cx="1424" cy="960" r="12" class="c0"/>
<circle cx="1328" cy="910" r="12" class="c0"/>
<circle cx="1394" cy="946" r="12" class="c0"/>
<circle cx="1382" cy="768" r="12" class="c0"/>
<circle cx="1350" cy="894" r="12" class="c0"/>
<circle cx="994" cy="652" r="12" class="c0"/>
<circle cx="1552" cy="702" r="12" class="c0"/>
<circle cx="912" cy="442" r="12" class="c0"/>
<circle cx="1062" cy="690" r="12" class="c0"/>
<circle cx="928" cy="574" r="12" class="c0"/>
<circle cx="1532" cy="634" r="12" class="c0"/>
<circle cx="1408" cy="904" r="12" class="c0"/>
<circle cx="972" cy="692" r="12" class="c0"/>
<circle cx="1634" cy="702" r="12" class="c0"/>
<circle cx="1160" cy="678" r="12" class="c0"/>
<circle cx="1222" cy="914" r="12" class="c0"/>
<circle cx="846" cy="414" r="12" class="c0"/>
<circle cx="880" cy="430" r="12" class="c0"/>
<circle cx="1026" cy="758" r="12" class="c0"/>
<circle cx="1356" cy="724" r="12" class="c0"/>
<circle cx="1510" cy="704" r="12" class="c0"/>
<circle cx="1048" cy="574" r="12" class="c0"/>
<circle cx="1232" cy="812" r="12" class="c0"/>
<circle cx="1014" cy="604" r="12" class="c0"/>
<circle cx="1142" cy="664" r="12" class="c0"/>
<circle cx="1152" cy="566" r="10" class="c0"/>
<circle cx="1070" cy="760" r="10" class="c0"/>
<circle cx="890" cy="530" r="10" class="c0"/>
<circle cx="1588" cy="824" r="10" class="c0"/>
<circle cx="1464" cy="826" r="10" class="c0"/>
<circle cx="1468" cy="960" r="10" class="c0"/>
<circle cx="1164" cy="716" r="10" class="c0"/>
<circle cx="1630" cy="856" r="10" class="c0"/>
<circle cx="1216" cy="750" r="10" class="c0"/>
<circle cx="1258" cy="898" r="10" class="c0"/>
<circle cx="1250" cy="800" r="10" class="c0"/>
<circle cx="1248" cy="734" r="10" class="c0"/>
<circle cx="1130" cy="862" r="10" class="c0"/>
<circle cx="1614" cy="736" r="10" class="c0"/>
<circle cx="1456" cy="1018" r="10" class="c0"/>
<circle cx="1310" cy="758" r="10" class="c0"/>
<circle cx="870" cy="492" r="10" class="c0"/>
<circle cx="1222" cy="608" r="10" class="c0"/>
<circle cx="1536" cy="866" r="10" class="c0"/>
<circle cx="1090" cy="522" r="10" class="c0"/>
<circle cx="1442" cy="698" r="10" class="c0"/>
<circle cx="1552" cy="878" r="10" class="c0"/>
<circle cx="912" cy="488" r="10" class="c0"/>
<circle cx="1464" cy="928" r="10" class="c0"/>
<circle cx="1390" cy="886" r="10" class="c0"/>
<circle cx="1526" cy="748" r="10" class="c0"/>
<circle cx="936" cy="434" r="10" class="c0"/>
<circle cx="826" cy="458" r="10" class="c0"/>
<circle cx="1626" cy="670" r="10" class="c0"/>
<circle cx="812" cy="540" r="10" class="c0"/>
<circle cx="940" cy="624" r="10" class="c0"/>
<circle cx="1038" cy="554" r="10" class="c0"/>
<circle cx="862" cy="378" r="10" class="c0"/>
<circle cx="1382" cy="808" r="10" class="c0"/>
<circle cx="1506" cy="926" r="10" class="c0"/>
<circle cx="1112" cy="658" r="10" class="c0"/>
<circle cx="926" cy="372" r="10" class="c0"/>
<circle cx="1610" cy="656" r="10" class="c0"/>
<circle cx="804" cy="440" r="10" class="c0"/>
<circle cx="1582" cy="774" r="10" class="c0"/>
<circle cx="890" cy="468" r="10" class="c0"/>
<circle cx="1414" cy="928" r="10" class="c0"/>
<circle cx="1166" cy="522" r="10" class="c0"/>
<circle cx="1090" cy="712" r="10" class="c0"/>
<circle cx="1616" cy="880" r="10" class="c0"/>
<circle cx="1396" cy="974" r="10" class="c0"/>
<circle cx="1462" cy="764" r="10" class="c0"/>
<circle cx="858" cy="438" r="10" class="c0"/>
<circle cx="1448" cy="732" r="10" class="c0"/>
<circle cx="1518" cy="992" r="10" class="c0"/>
<circle cx="1020" cy="654" r="10" class="c0"/>
<circle cx="1336" cy="692" r="10" class="c0"/>
<circle cx="814" cy="476" r="10" class="c0"/>
<circle cx="1102" cy="788" r="10" class="c0"/>
<circle cx="1024" cy="540" r="10" class="c0"/>
<circle cx="1516" cy="766" r="10" class="c0"/>
<circle cx="1274" cy="734" r="10" class="c0"/>
<circle cx="962" cy="436" r="10" class="c0"/>
<circle cx="850" cy="534" r="10" class="c0"/>
<circle cx="1068" cy="786" r="10" class="c0"/>
<circle cx="1552" cy="824" r="10" class="c0"/>
<circle cx="1194" cy="818" r="10" class="c0"/>
<circle cx="1182" cy="848" r="10" class="c0"/>
<circle cx="884" cy="358" r="10" class="c0"/>
<circle cx="838" cy="366" r="10" class="c0"/>
<circle cx="1538" cy="902" r="10" class="c0"/>
<circle cx="962" cy="516" r="10" class="c0"/>
<circle cx="836" cy="594" r="10" class="c0"/>
<circle cx="1122" cy="694" r="10" class="c0"/>
<circle cx="1596" cy="894" r="10" class="c0"/>
<circle cx="1500" cy="816" r="10" class="c0"/>
<circle cx="1090" cy="682" r="10" class="c0"/>
<circle cx="1588" cy="646" r="10" class="c0"/>
<circle cx="1482" cy="948" r="10" class="c0"/>
<circle cx="1368" cy="750" r="10" class="c0"/>
<circle cx="1534" cy="684" r="10" class="c0"/>
<circle cx="1206" cy="796" r="10" class="c0"/>
<circle cx="1514" cy="888" r="10" class="c0"/>
<circle cx="1098" cy="644" r="10" class="c0"/>
<circle cx="1460" cy="788" r="10" class="c0"/>
<circle cx="1078" cy="550" r="10" class="c0"/>
<circle cx="1016" cy="704" r="10" class="c0"/>
<circle cx="1420" cy="788" r="10" class="c0"/>
<circle cx="932" cy="598" r="10" class="c0"/>
<circle cx="1410" cy="816" r="10" class="c0"/>
<circle cx="1284" cy="716" r="10" class="c0"/>
<circle cx="1584" cy="976" r="10" class="c0"/>
<circle cx="944" cy="476" r="10" class="c0"/>
<circle cx="1012" cy="512" r="10" class="c0"/>
<circle cx="1052" cy="712" r="10" class="c0"/>
<circle cx="1612" cy="812" r="10" class="c0"/>
<circle cx="1360" cy="810" r="10" class="c0"/>
<circle cx="1236" cy="782" r="10" class="c0"/>
<circle cx="1566" cy="742" r="10" class="c0"/>
<circle cx="1162" cy="832" r="10" class="c0"/>
<circle cx="1274" cy="916" r="10" class="c0"/>
<circle cx="1196" cy="876" r="10" class="c0"/>
<circle cx="1548" cy="996" r="10" class="c0"/>
<circle cx="852" cy="476" r="10" class="c0"/>
<circle cx="1112" cy="594" r="10" class="c0"/>
<circle cx="1162" cy="460" r="10" class="c0"/>
<circle cx="1266" cy="822" r="10" class="c0"/>
<circle cx="1334" cy="792" r="10" class="c0"/>
<circle cx="1196" cy="584" r="10" class="c0"/>
<circle cx="1046" cy="742" r="10" class="c0"/>
<circle cx="1452" cy="946" r="10" class="c0"/>
<circle cx="912" cy="590" r="10" class="c0"/>
<circle cx="1126" cy="724" r="10" class="c0"/>
<circle cx="1180" cy="492" r="10" class="c0"/>
<circle cx="1168" cy="880" r="10" class="c0"/>
<circle cx="1274" cy="842" r="10" class="c0"/>
<circle cx="1488" cy="1002" r="10" class="c0"/>
<circle cx="1366" cy="784" r="8" class="c0"/>
<circle cx="1422" cy="642" r="8" class="c0"/>
<circle cx="1002" cy="690" r="8" class="c0"/>
<circle cx="1106" cy="722" r="8" class="c0"/>
<circle cx="1062" cy="664" r="8" class="c0"/>
<circle cx="1124" cy="572" r="8" class="c0"/>
<circle cx="990" cy="616" r="8" class="c0"/>
<circle cx="1644" cy="744" r="8" class="c0"/>
<circle cx="1294" cy="818" r="8" class="c0"/>
<circle cx="974" cy="598" r="8" class="c0"/>
<circle cx="1084" cy="806" r="8" class="c0"/>
<circle cx="1436" cy="924" r="8" class="c0"/>
<circle cx="1268" cy="944" r="8" class="c0"/>
<circle cx="1140" cy="614" r="8" class="c0"/>
<circle cx="1232" cy="724" r="8" class="c0"/>
<circle cx="1314" cy="674" r="8" class="c0"/>
<circle cx="1340" cy="746" r="8" class="c0"/>
<circle cx="1580" cy="882" r="8" class="c0"/>
<circle cx="1246" cy="846" r="8" class="c0"/>
<circle cx="1570" cy="944" r="8" class="c0"/>
<circle cx="1158" cy="624" r="8" class="c0"/>
<circle cx="1314" cy="938" r="8" class="c0"/>
<circle cx="1510" cy="958" r="8" class="c0"/>
<circle cx="1398" cy="728" r="8" class="c0"/>
<circle cx="1282" cy="796" r="8" class="c0"/>
<circle cx="1450" cy="848" r="8" class="c0"/>
<circle cx="1132" cy="520" r="8" class="c0"/>
<circle cx="1542" cy="788" r="8" class="c0"/>
<circle cx="1574" cy="678" r="8" class="c0"/>
<circle cx="1366" cy="930" r="8" class="c0"/>
<circle cx="1054" cy="532" r="8" class="c0"/>
<circle cx="974" cy="500" r="8" class="c0"/>
<circle cx="1076" cy="634" r="8" class="c0"/>
<circle cx="890" cy="498" r="8" class="c0"/>
<circle cx="1182" cy="746" r="8" class="c0"/>
<circle cx="1234" cy="694" r="8" class="c0"/>
<circle cx="884" cy="562" r="8" class="c0"/>
<circle cx="1552" cy="916" r="8" class="c0"/>
<circle cx="1602" cy="778" r="8" class="c0"/>
<circle cx="1194" cy="652" r="8" class="c0"/>
<circle cx="1610" cy="714" r="8" class="c0"/>
<circle cx="984" cy="588" r="8" class="c0"/>
<circle cx="1566" cy="796" r="8" class="c0"/>
<circle cx="1028" cy="720" r="8" class="c0"/>
<circle cx="886" cy="580" r="8" class="c0"/>
<circle cx="1358" cy="682" r="8" class="c0"/>
<circle cx="1058" cy="610" r="8" class="c0"/>
<circle cx="1136" cy="766" r="8" class="c0"/>
<circle cx="1472" cy="724" r="8" class="c0"/>
<circle cx="956" cy="656" r="8" class="c0"/>
<circle cx="1100" cy="740" r="8" class="c0"/>
<circle cx="900" cy="628" r="8" class="c0"/>
<circle cx="922" cy="352" r="8" class="c0"/>
<circle cx="1554" cy="958" r="8" class="c0"/>
<circle cx="924" cy="504" r="8" class="c0"/>
<circle cx="1318" cy="826" r="8" class="c0"/>
<circle cx="1632" cy="760" r="8" class="c0"/>
<circle cx="904" cy="554" r="8" class="c0"/>
<circle cx="1278" cy="674" r="8" class="c0"/>
<circle cx="1406" cy="676" r="8" class="c0"/>
<circle cx="1184" cy="560" r="8" class="c0"/>
<circle cx="1538" cy="844" r="8" class="c0"/>
<circle cx="1220" cy="574" r="8" class="c0"/>
<circle cx="1264" cy="706" r="8" class="c0"/>
<circle cx="1498" cy="626" r="8" class="c0"/>
<circle cx="1358" cy="870" r="8" class="c0"/>
<circle cx="1208" cy="636" r="8" class="c0"/>
<circle cx="1504" cy="976" r="8" class="c0"/>
<circle cx="824" cy="434" r="8" class="c0"/>
<circle cx="968" cy="480" r="8" class="c0"/>
<circle cx="872" cy="518" r="8" class="c0"/>
<circle cx="1124" cy="840" r="8" class="c0"/>
<circle cx="1246" cy="672" r="8" class="c0"/>
<circle cx="1368" cy="706" r="8" class="c0"/>
<circle cx="1352" cy="664" r="8" class="c0"/>
<circle cx="1366" cy="850" r="8" class="c0"/>
<circle cx="1322" cy="744" r="8" class="c0"/>
<circle cx="1478" cy="696" r="8" class="c0"/>
<circle cx="1314" cy="894" r="8" class="c0"/>
<circle cx="1388" cy="1002" r="8" class="c0"/>
<circle cx="1508" cy="674" r="8" class="c0"/>
<circle cx="1442" cy="982" r="8" class="c0"/>
<circle cx="1214" cy="850" r="8" class="c0"/>
<circle cx="1420" cy="840" r="8" class="c0"/>
<circle cx="1532" cy="718" r="8" class="c0"/>
<circle cx="1044" cy="668" r="8" class="c0"/>
<circle cx="1012" cy="554" r="8" class="c0"/>
<circle cx="1290" cy="664" r="8" class="c0"/>
<circle cx="1560" cy="618" r="8" class="c0"/>
<circle cx="1118" cy="802" r="8" class="c0"/>
<circle cx="1068" cy="594" r="8" class="c0"/>
<circle cx="1104" cy="764" r="8" class="c0"/>
<circle cx="1486" cy="884" r="8" class="c0"/>
<circle cx="1150" cy="598" r="8" class="c0"/>
<circle cx="1434" cy="772" r="8" class="c0"/>
<circle cx="1140" cy="546" r="8" class="c0"/>
<circle cx="1290" cy="938" r="8" class="c0"/>
<circle cx="890" cy="314" r="8" class="c0"/>
<circle cx="1490" cy="908" r="8" class="c0"/>
<circle cx="1030" cy="586" r="8" class="c0"/>
<circle cx="944" cy="394" r="8" class="c0"/>
<circle cx="1328" cy="766" r="8" class="c0"/>
<circle cx="1570" cy="910" r="8" class="c0"/>
<circle cx="1430" cy="682" r="8" class="c0"/>
<circle cx="1580" cy="702" r="8" class="c0"/>
<circle cx="1426" cy="872" r="8" class="c0"/>
<circle cx="1302" cy="904" r="8" class="c0"/>
<circle cx="1304" cy="720" r="8" class="c0"/>
<circle cx="1120" cy="780" r="8" class="c0"/>
<circle cx="858" cy="584" r="8" class="c0"/>
<circle cx="1164" cy="648" r="8" class="c0"/>
<circle cx="904" cy="380" r="8" class="c0"/>
<circle cx="932" cy="646" r="8" class="c0"/>
<circle cx="1146" cy="880" r="8" class="c0"/>
<circle cx="956" cy="546" r="8" class="c0"/>
<circle cx="1210" cy="724" r="8" class="c0"/>
<circle cx="956" cy="676" r="8" class="c0"/>
<circle cx="1250" cy="924" r="8" class="c0"/>
<circle cx="870" cy="462" r="8" class="c0"/>
<circle cx="1396" cy="790" r="8" class="c0"/>
<circle cx="1438" cy="826" r="8" class="c0"/>
<circle cx="884" cy="390" r="8" class="c0"/>
<circle cx="1204" cy="454" r="8" class="c0"/>
<circle cx="1022" cy="624" r="8" class="c0"/>
<circle cx="960" cy="586" r="8" class="c0"/>
<circle cx="1364" cy="970" r="8" class="c0"/>
<circle cx="1594" cy="672" r="8" class="c0"/>
<circle cx="1434" cy="658" r="8" class="c0"/>
<circle cx="1214" cy="680" r="8" class="c0"/>
<circle cx="1424" cy="740" r="8" class="c0"/>
<circle cx="1568" cy="644" r="8" class="c0"/>
<circle cx="1150" cy="474" r="8" class="c0"/>
<circle cx="878" cy="618" r="8" class="c0"/>
<circle cx="1412" cy="652" r="8" class="c0"/>
<circle cx="1148" cy="702" r="8" class="c0"/>
<circle cx="1480" cy="780" r="8" class="c0"/>
<circle cx="1572" cy="840" r="8" class="c0"/>
<circle cx="968" cy="666" r="8" class="c0"/>
<circle cx="794" cy="458" r="8" class="c0"/>
<circle cx="906" cy="328" r="8" class="c0"/>
<circle cx="1328" cy="710" r="8" class="c0"/>
<circle cx="1414" cy="862" r="8" class="c0"/>
<circle cx="926" cy="664" r="8" class="c0"/>
<circle cx="792" cy="488" r="8" class="c0"/>
<circle cx="1588" cy="912" r="8" class="c0"/>
<circle cx="1184" cy="706" r="8" class="c0"/>
<circle cx="1138" cy="584" r="8" class="c0"/>
<circle cx="1110" cy="516" r="8" class="c0"/>
<circle cx="1162" cy="756" r="8" class="c0"/>
<circle cx="1102" cy="812" r="8" class="c0"/>
<circle cx="1198" cy="622" r="8" class="c0"/>
<circle cx="1578" cy="862" r="8" class="c0"/>
<circle cx="1158" cy="864" r="8" class="c0"/>
<circle cx="1056" cy="646" r="8" class="c0"/>
<circle cx="802" cy="512" r="8" class="c0"/>
<circle cx="1440" cy="750" r="8" class="c0"/>
<circle cx="1122" cy="622" r="8" class="c0"/>
<circle cx="874" cy="592" r="8" class="c0"/>
<circle cx="1548" cy="670" r="8" class="c0"/>
<circle cx="1494" cy="868" r="8" class="c0"/>
<circle cx="846" cy="390" r="8" class="c0"/>
<circle cx="1012" cy="730" r="8" class="c0"/>
<circle cx="1056" cy="506" r="8" class="c0"/>
<circle cx="1530" cy="660" r="8" class="c0"/>
<circle cx="1386" cy="908" r="8" class="c0"/>
<circle cx="1564" cy="984" r="8" class="c0"/>
<circle cx="1264" cy="684" r="8" class="c0"/>
<circle cx="1348" cy="922" r="8" class="c0"/>
<circle cx="864" cy="400" r="8" class="c0"/>
<circle cx="1602" cy="992" r="8" class="c0"/>
<circle cx="946" cy="376" r="8" class="c0"/>
<circle cx="1636" cy="782" r="8" class="c0"/>
<circle cx="932" cy="458" r="8" class="c0"/>
<circle cx="1608" cy="688" r="8" class="c0"/>
<circle cx="1088" cy="600" r="8" class="c0"/>
<circle cx="1176" cy="600" r="8" class="c0"/>
<circle cx="1038" cy="522" r="8" class="c0"/>
<circle cx="958" cy="458" r="8" class="c0"/>
<circle cx="1088" cy="776" r="8" class="c0"/>
<circle cx="1170" cy="578" r="8" class="c0"/>
<circle cx="1350" cy="760" r="8" class="c0"/>
<circle cx="1124" cy="640" r="8" class="c0"/>
<circle cx="1332" cy="816" r="8" class="c0"/>
<circle cx="1460" cy="710" r="8" class="c0"/>
<circle cx="1084" cy="830" r="8" class="c0"/>
<circle cx="904" cy="646" r="8" class="c0"/>
<circle cx="1290" cy="754" r="8" class="c0"/>
<circle cx="1312" cy="786" r="8" class="c0"/>
<circle cx="1428" cy="890" r="8" class="c0"/>
<circle cx="1020" cy="572" r="8" class="c0"/>
<circle cx="1028" cy="682" r="8" class="c0"/>
<circle cx="1594" cy="760" r="8" class="c0"/>
<circle cx="1488" cy="686" r="8" class="c0"/>
<circle cx="1394" cy="638" r="8" class="c0"/>
<circle cx="1308" cy="804" r="8" class="c0"/>
<circle cx="1194" cy="688" r="8" class="c0"/>
<circle cx="1516" cy="790" r="8" class="c0"/>
<circle cx="1606" cy="964" r="8" class="c0"/>
<circle cx="1214" cy="778" r="8" class="c0"/>
<circle cx="1612" cy="844" r="8" class="c0"/>
<circle cx="1528" cy="1008" r="8" class="c0"/>
<circle cx="1412" cy="1026" r="8" class="c0"/>
<circle cx="1184" cy="764" r="8" class="c0"/>
<circle cx="1494" cy="842" r="8" class="c0"/>
<circle cx="900" cy="348" r="8" class="c0"/>
<circle cx="1474" cy="804" r="8" class="c0"/>
<circle cx="978" cy="638" r="8" class="c0"/>
<circle cx="990" cy="678" r="8" class="c0"/>
<circle cx="792" cy="522" r="8" class="c0"/>
<circle cx="1500" cy="722" r="8" class="c0"/>
<circle cx="1300" cy="842" r="8" class="c0"/>
<circle cx="1594" cy="848" r="8" class="c0"/>
<circle cx="1402" cy="750" r="8" class="c0"/>
<circle cx="834" cy="552" r="8" class="c0"/>
<circle cx="888" cy="336" r="8" class="c0"/>
<circle cx="1196" cy="670" r="8" class="c0"/>
<circle cx="1598" cy="698" r="8" class="c0"/>
<circle cx="1594" cy="802" r="8" class="c0"/>
<circle cx="1154" cy="508" r="8" class="c0"/>
<circle cx="846" cy="450" r="8" class="c0"/>
<circle cx="1498" cy="774" r="8" class="c0"/>
<circle cx="956" cy="412" r="8" class="c0"/>
<circle cx="812" cy="408" r="8" class="c0"/>
<circle cx="966" cy="624" r="8" class="c0"/>
<circle cx="1144" cy="634" r="8" class="c0"/>
<circle cx="1486" cy="978" r="8" class="c0"/>
<circle cx="1004" cy="584" r="8" class="c0"/>
<circle cx="1188" cy="786" r="8" class="c0"/>
<circle cx="1548" cy="730" r="8" class="c0"/>
<circle cx="1206" cy="700" r="8" class="c0"/>
<circle cx="1246" cy="886" r="8" class="c0"/>
<circle cx="1190" cy="514" r="8" class="c0"/>
<circle cx="1118" cy="746" r="8" class="c0"/>
<circle cx="1430" cy="1032" r="8" class="c0"/>
<circle cx="1080" cy="732" r="8" class="c0"/>
<circle cx="850" cy="496" r="8" class="c0"/>
<circle cx="1380" cy="724" r="8" class="c0"/>
<circle cx="1070" cy="576" r="8" class="c0"/>
<circle cx="888" cy="602" r="8" class="c0"/>
<circle cx="1524" cy="832" r="8" class="c0"/>
<circle cx="1546" cy="648" r="8" class="c0"/>
<circle cx="1322" cy="658" r="8" class="c0"/>
<circle cx="1596" cy="726" r="8" class="c0"/>
<circle cx="1008" cy="488" r="8" class="c0"/>
<circle cx="1070" cy="524" r="8" class="c0"/>
<circle cx="842" cy="516" r="8" class="c0"/>
<circle cx="1334" cy="668" r="8" class="c0"/>
<circle cx="1176" cy="636" r="8" class="c0"/>
<circle cx="1080" cy="616" r="8" class="c0"/>
<circle cx="1262" cy="788" r="8" class="c0"/>
<circle cx="1460" cy="656" r="8" class="c0"/>
<circle cx="816" cy="578" r="8" class="c0"/>
<circle cx="914" cy="526" r="8" class="c0"/>
<circle cx="1592" cy="872" r="8" class="c0"/>
<circle cx="1418" cy="762" r="8" class="c0"/>
<circle cx="1568" cy="814" r="8" class="c0"/>
<circle cx="1362" cy="912" r="8" class="c0"/>
<circle cx="1254" cy="864" r="8" class="c0"/>
<circle cx="1508" cy="1018" r="8" class="c0"/>
<circle cx="1084" cy="656" r="8" class="c0"/>
<circle cx="1102" cy="698" r="8" class="c0"/>
<circle cx="1334" cy="968" r="8" class="c0"/>
<circle cx="1488" cy="1026" r="8" class="c0"/>
<circle cx="1372" cy="650" r="8" class="c0"/>
<circle cx="920" cy="630" r="8" class="c0"/>
<circle cx="1232" cy="760" r="8" class="c0"/>
<circle cx="1558" cy="858" r="8" class="c0"/>
<circle cx="1066" cy="816" r="8" class="c0"/>
<circle cx="1476" cy="676" r="8" class="c0"/>
<circle cx="1224" cy="706" r="8" class="c0"/>
<circle cx="914" cy="468" r="8" class="c0"/>
<circle cx="1202" cy="906" r="8" class="c0"/>
<circle cx="1512" cy="736" r="8" class="c0"/>
<circle cx="1304" cy="924" r="8" class="c0"/>
<circle cx="1292" cy="894" r="8" class="c0"/>
<circle cx="1312" cy="962" r="8" class="c0"/>
<circle cx="1188" cy="894" r="8" class="c0"/>
<circle cx="1190" cy="724" r="8" class="c0"/>
<circle cx="924" cy="334" r="8" class="c0"/>
<circle cx="986" cy="482" r="8" class="c0"/>
<circle cx="1280" cy="696" r="8" class="c0"/>
<circle cx="1570" cy="1004" r="8" class="c0"/>
<circle cx="892" cy="414" r="8" class="c0"/>
<circle cx="1418" cy="694" r="8" class="c0"/>
<circle cx="1352" cy="982" r="8" class="c0"/>
<circle cx="1408" cy="774" r="8" class="c0"/>
<circle cx="962" cy="568" r="8" class="c0"/>
<circle cx="946" cy="532" r="8" class="c0"/>
<circle cx="1626" cy="792" r="8" class="c0"/>
<circle cx="1480" cy="856" r="8" class="c0"/>
<circle cx="1570" cy="720" r="8" class="c0"/>
<circle cx="1142" cy="844" r="8" class="c0"/>
<circle cx="1170" cy="550" r="8" class="c0"/>
<circle cx="838" cy="574" r="8" class="c0"/>
<circle cx="916" cy="610" r="8" class="c0"/>
<circle cx="1184" cy="534" r="8" class="c0"/>
<circle cx="882" cy="636" r="8" class="c0"/>
<circle cx="1618" cy="976" r="8" class="c0"/>
<circle cx="1000" cy="628" r="8" class="c0"/>
<circle cx="1372" cy="988" r="8" class="c0"/>
<circle cx="902" cy="512" r="8" class="c0"/>
<circle cx="1430" cy="850" r="8" class="c0"/>
<circle cx="1446" cy="642" r="8" class="c0"/>
<circle cx="1640" cy="880" r="8" class="c0"/>
<circle cx="1176" cy="472" r="8" class="c0"/>
<circle cx="1104" cy="614" r="8" class="c0"/>
<circle cx="1208" cy="598" r="6" class="c0"/>
<circle cx="820" cy="358" r="6" class="c0"/>
<circle cx="1042" cy="772" r="6" class="c0"/>
<circle cx="878" cy="542" r="6" class="c0"/>
<circle cx="1392" cy="656" r="6" class="c0"/>
<circle cx="1142" cy="788" r="6" class="c0"/>
<circle cx="1212" cy="824" r="6" class="c0"/>
<circle cx="1176" cy="666" r="6" class="c0"/>
<circle cx="1370" cy="880" r="6" class="c0"/>
<circle cx="1158" cy="490" r="6" class="c0"/>
<circle cx="1090" cy="626" r="6" class="c0"/>
<circle cx="1206" cy="508" r="6" class="c0"/>
<circle cx="1036" cy="698" r="6" class="c0"/>
<circle cx="946" cy="562" r="6" class="c0"/>
<circle cx="1376" cy="920" r="6" class="c0"/>
<circle cx="1432" cy="632" r="6" class="c0"/>
<circle cx="1642" cy="726" r="6" class="c0"/>
<circle cx="1446" cy="964" r="6" class="c0"/>
<circle cx="1324" cy="844" r="6" class="c0"/>
<circle cx="1140" cy="688" r="6" class="c0"/>
<circle cx="1234" cy="744" r="6" class="c0"/>
<circle cx="1044" cy="602" r="6" class="c0"/>
<circle cx="1576" cy="630" r="6" class="c0"/>
<circle cx="1240" cy="902" r="6" class="c0"/>
<circle cx="1304" cy="878" r="6" class="c0"/>
<circle cx="902" cy="572" r="6" class="c0"/>
<circle cx="926" cy="478" r="6" class="c0"/>
<circle cx="1470" cy="896" r="6" class="c0"/>
<circle cx="1378" cy="962" r="6" class="c0"/>
<circle cx="1200" cy="524" r="6" class="c0"/>
<circle cx="1296" cy="782" r="6" class="c0"/>
<circle cx="1194" cy="606" r="6" class="c0"/>
<circle cx="1546" cy="752" r="6" class="c0"/>
<circle cx="1150" cy="534" r="6" class="c0"/>
<circle cx="958" cy="640" r="6" class="c0"/>
<circle cx="1366" cy="954" r="6" class="c0"/>
<circle cx="1396" cy="922" r="6" class="c0"/>
<circle cx="1588" cy="740" r="6" class="c0"/>
<circle cx="880" cy="452" r="6" class="c0"/>
<circle cx="1612" cy="902" r="6" class="c0"/>
<circle cx="1444" cy="876" r="6" class="c0"/>
<circle cx="1208" cy="560" r="6" class="c0"/>
<circle cx="1050" cy="762" r="6" class="c0"/>
<circle cx="1182" cy="450" r="6" class="c0"/>
<circle cx="1620" cy="770" r="6" class="c0"/>
<circle cx="1568" cy="968" r="6" class="c0"/>
<circle cx="1538" cy="952" r="6" class="c0"/>
<circle cx="1160" cy="780" r="6" class="c0"/>
<circle cx="1162" cy="900" r="6" class="c0"/>
<circle cx="1324" cy="948" r="6" class="c0"/>
<circle cx="1578" cy="926" r="6" class="c0"/>
<circle cx="932" cy="520" r="6" class="c0"/>
<circle cx="948" cy="446" r="6" class="c0"/>
<circle cx="1370" cy="826" r="6" class="c0"/>
<circle cx="1476" cy="840" r="6" class="c0"/>
<circle cx="1388" cy="740" r="6" class="c0"/>
<circle cx="1354" cy="648" r="6" class="c0"/>
<circle cx="1160" cy="812" r="6" class="c0"/>
<circle cx="1168" cy="614" r="6" class="c0"/>
<circle cx="1352" cy="794" r="6" class="c0"/>
<circle cx="1626" cy="722" r="6" class="c0"/>
<circle cx="908" cy="396" r="6" class="c0"/>
<circle cx="1194" cy="472" r="6" class="c0"/>
<circle cx="1506" cy="906" r="6" class="c0"/>
<circle cx="1210" cy="890" r="6" class="c0"/>
<circle cx="1024" cy="494" r="6" class="c0"/>
<circle cx="978" cy="536" r="6" class="c0"/>
<circle cx="1454" cy="810" r="6" class="c0"/>
<circle cx="994" cy="504" r="6" class="c0"/>
<circle cx="806" cy="558" r="6" class="c0"/>
<circle cx="1586" cy="1002" r="6" class="c0"/>
<circle cx="1168" cy="442" r="6" class="c0"/>
<circle cx="1070" cy="722" r="6" class="c0"/>
<circle cx="968" cy="402" r="6" class="c0"/>
<circle cx="1228" cy="842" r="6" class="c0"/>
<circle cx="1564" cy="662" r="6" class="c0"/>
<circle cx="1518" cy="622" r="6" class="c0"/>
<circle cx="1116" cy="820" r="6" class="c0"/>
<circle cx="1252" cy="752" r="6" class="c0"/>
<circle cx="1230" cy="856" r="6" class="c0"/>
<circle cx="1270" cy="884" r="6" class="c0"/>
<circle cx="1248" cy="770" r="6" class="c0"/>
<circle cx="1300" cy="744" r="6" class="c0"/>
<circle cx="870" cy="534" r="6" class="c0"/>
<circle cx="926" cy="396" r="6" class="c0"/>
<circle cx="1236" cy="834" r="6" class="c0"/>
<circle cx="1352" cy="776" r="6" class="c0"/>
<circle cx="1498" cy="794" r="6" class="c0"/>
<circle cx="1174" cy="696" r="6" class="c0"/>
<circle cx="1384" cy="930" r="6" class="c0"/>
<circle cx="1040" cy="650" r="6" class="c0"/>
<circle cx="1250" cy="830" r="6" class="c0"/>
<circle cx="946" cy="666" r="6" class="c0"/>
<circle cx="1210" cy="662" r="6" class="c0"/>
<circle cx="1332" cy="932" r="6" class="c0"/>
<circle cx="1466" cy="744" r="6" class="c0"/>
<circle cx="1492" cy="962" r="6" class="c0"/>
<circle cx="1608" cy="638" r="6" class="c0"/>
<circle cx="1602" cy="862" r="6" class="c0"/>
<circle cx="1482" cy="822" r="6" class="c0"/>
<circle cx="1484" cy="712" r="6" class="c0"/>
<circle cx="1084" cy="748" r="6" class="c0"/>
<circle cx="1144" cy="718" r="6" class="c0"/>
<circle cx="870" cy="574" r="6" class="c0"/>
<circle cx="818" cy="522" r="6" class="c0"/>
<circle cx="1428" cy="910" r="6" class="c0"/>
<circle cx="1058" cy="548" r="6" class="c0"/>
<circle cx="1442" cy="862" r="6" class="c0"/>
<circle cx="1102" cy="832" r="6" class="c0"/>
<circle cx="1550" cy="804" r="6" class="c0"/>
<circle cx="1108" cy="630" r="6" class="c0"/>
<circle cx="1130" cy="536" r="6" class="c0"/>
<circle cx="1560" cy="932" r="6" class="c0"/>
<circle cx="1156" cy="732" r="6" class="c0"/>
<circle cx="1200" cy="766" r="6" class="c0"/>
<circle cx="1006" cy="668" r="6" class="c0"/>
<circle cx="1482" cy="924" r="6" class="c0"/>
<circle cx="834" cy="474" r="6" class="c0"/>
<circle cx="1562" cy="894" r="6" class="c0"/>
<circle cx="1110" cy="682" r="6" class="c0"/>
<circle cx="1346" cy="708" r="6" class="c0"/>
<circle cx="1476" cy="658" r="6" class="c0"/>
<circle cx="1242" cy="714" r="6" class="c0"/>
<circle cx="996" cy="546" r="6" class="c0"/>
<circle cx="1232" cy="894" r="6" class="c0"/>
<circle cx="1036" cy="610" r="6" class="c0"/>
<circle cx="1520" cy="650" r="6" class="c0"/>
<circle cx="828" cy="404" r="6" class="c0"/>
<circle cx="1212" cy="488" r="6" class="c0"/>
<circle cx="1214" cy="466" r="6" class="c0"/>
<circle cx="1204" cy="840" r="6" class="c0"/>
<circle cx="1408" cy="1008" r="6" class="c0"/>
<circle cx="1536" cy="764" r="6" class="c0"/>
<circle cx="1250" cy="696" r="6" class="c0"/>
<circle cx="822" cy="418" r="6" class="c0"/>
<circle cx="1528" cy="780" r="6" class="c0"/>
<circle cx="910" cy="364" r="6" class="c0"/>
<circle cx="1302" cy="952" r="6" class="c0"/>
<circle cx="940" cy="410" r="6" class="c0"/>
<circle cx="906" cy="308" r="6" class="c0"/>
<circle cx="1180" cy="868" r="6" class="c0"/>
<circle cx="1370" cy="898" r="6" class="c0"/>
<circle cx="1050" cy="780" r="6" class="c0"/>
<circle cx="1624" cy="644" r="6" class="c0"/>
<circle cx="1474" cy="1012" r="6" class="c0"/>
<circle cx="1586" cy="950" r="6" class="c0"/>
<circle cx="1174" cy="774" r="6" class="c0"/>
<circle cx="1558" cy="634" r="6" class="c0"/>
<circle cx="1580" cy="730" r="6" class="c0"/>
<circle cx="832" cy="536" r="6" class="c0"/>
<circle cx="1320" cy="724" r="6" class="c0"/>
<circle cx="1192" cy="440" r="6" class="c0"/>
<circle cx="1128" cy="604" r="6" class="c0"/>
<circle cx="1572" cy="760" r="6" class="c0"/>
<circle cx="1492" cy="670" r="6" class="c0"/>
<circle cx="1532" cy="884" r="6" class="c0"/>
<circle cx="1264" cy="666" r="6" class="c0"/>
<circle cx="1122" cy="674" r="6" class="c0"/>
<circle cx="1036" cy="500" r="6" class="c0"/>
<circle cx="1632" cy="808" r="6" class="c0"/>
<circle cx="1354" cy="698" r="6" class="c0"/>
<circle cx="1404" cy="876" r="6" class="c0"/>
<circle cx="1174" cy="730" r="6" class="c0"/>
<circle cx="1542" cy="618" r="6" class="c0"/>
<circle cx="1198" cy="542" r="6" class="c0"/>
<circle cx="1612" cy="758" r="6" class="c0"/>
<circle cx="1548" cy="940" r="6" class="c0"/>
<circle cx="1512" cy="638" r="6" class="c0"/>
<circle cx="1218" cy="518" r="6" class="c0"/>
<circle cx="1520" cy="914" r="6" class="c0"/>
<circle cx="1246" cy="560" r="6" class="c0"/>
<circle cx="1420" cy="668" r="6" class="c0"/>
<circle cx="1462" cy="684" r="6" class="c0"/>
<circle cx="788" cy="504" r="6" class="c0"/>
<circle cx="802" cy="422" r="6" class="c0"/>
<circle cx="1084" cy="584" r="6" class="c0"/>
<circle cx="1174" cy="820" r="6" class="c0"/>
<circle cx="1442" cy="786" r="6" class="c0"/>
<circle cx="1064" cy="736" r="6" class="c0"/>
<circle cx="1576" cy="960" r="6" class="c0"/>
<circle cx="1202" cy="738" r="6" class="c0"/>
<circle cx="1604" cy="750" r="6" class="c0"/>
<circle cx="940" cy="358" r="6" class="c0"/>
<circle cx="1404" cy="852" r="6" class="c0"/>
<circle cx="1334" cy="728" r="6" class="c0"/>
<circle cx="910" cy="670" r="6" class="c0"/>
<circle cx="1448" cy="1034" r="6" class="c0"/>
<circle cx="1292" cy="682" r="6" class="c0"/>
<circle cx="1182" cy="678" r="6" class="c0"/>
<circle cx="1134" cy="562" r="6" class="c0"/>
<circle cx="1612" cy="1002" r="6" class="c0"/>
<circle cx="1268" cy="804" r="6" class="c0"/>
<circle cx="902" cy="426" r="6" class="c0"/>
<circle cx="1490" cy="802" r="6" class="c0"/>
<circle cx="1432" cy="942" r="6" class="c0"/>
<circle cx="822" cy="562" r="6" class="c0"/>
<circle cx="1166" cy="482" r="6" class="c0"/>
<circle cx="1204" cy="860" r="6" class="c0"/>
<circle cx="1312" cy="734" r="6" class="c0"/>
<circle cx="1182" cy="620" r="6" class="c0"/>
<circle cx="1626" cy="960" r="6" class="c0"/>
<circle cx="852" cy="356" r="6" class="c0"/>
<circle cx="1454" cy="972" r="6" class="c0"/>
<circle cx="816" cy="344" r="6" class="c0"/>
<circle cx="1230" cy="588" r="6" class="c0"/>
<circle cx="1554" cy="842" r="6" class="c0"/>
<circle cx="1230" cy="666" r="6" class="c0"/>
<circle cx="1580" cy="752" r="6" class="c0"/>
<circle cx="1500" cy="946" r="6" class="c0"/>
<circle cx="1508" cy="834" r="6" class="c0"/>
<circle cx="1010" cy="746" r="6" class="c0"/>
<circle cx="1276" cy="896" r="6" class="c0"/>
<circle cx="1152" cy="770" r="6" class="c0"/>
<circle cx="1218" cy="626" r="6" class="c0"/>
<circle cx="1066" cy="624" r="6" class="c0"/>
<circle cx="1464" cy="908" r="6" class="c0"/>
<circle cx="1452" cy="998" r="6" class="c0"/>
<circle cx="994" cy="598" r="6" class="c0"/>
<circle cx="1564" cy="688" r="6" class="c0"/>
<circle cx="1012" cy="638" r="6" class="c0"/>
<circle cx="858" cy="510" r="6" class="c0"/>
<circle cx="1152" cy="804" r="6" class="c0"/>
<circle cx="1134" cy="796" r="6" class="c0"/>
<circle cx="960" cy="388" r="6" class="c0"/>
<circle cx="1002" cy="566" r="6" class="c0"/>
<circle cx="1072" cy="674" r="6" class="c0"/>
<circle cx="974" cy="578" r="6" class="c0"/>
<circle cx="830" cy="350" r="6" class="c0"/>
<circle cx="1114" cy="562" r="6" class="c0"/>
<circle cx="892" cy="446" r="6" class="c0"/>
<circle cx="1062" cy="562" r="6" class="c0"/>
<circle cx="1120" cy="506" r="6" class="c0"/>
<circle cx="1074" cy="704" r="6" class="c0"/>
<circle cx="1530" cy="702" r="6" class="c0"/>
<circle cx="1580" cy="662" r="6" class="c0"/>
<circle cx="1482" cy="614" r="6" class="c0"/>
<circle cx="1332" cy="854" r="6" class="c0"/>
<circle cx="1292" cy="732" r="6" class="c0"/>
<circle cx="1220" cy="832" r="6" class="c0"/>
<circle cx="866" cy="416" r="6" class="c0"/>
<circle cx="1012" cy="680" r="6" class="c0"/>
<circle cx="1290" cy="852" r="6" class="c0"/>
<circle cx="918" cy="388" r="6" class="c0"/>
<circle cx="1524" cy="608" r="6" class="c0"/>
<circle cx="1058" cy="772" r="6" class="c0"/>
<circle cx="1508" cy="612" r="6" class="c0"/>
<circle cx="866" cy="360" r="6" class="c0"/>
<circle cx="994" cy="574" r="6" class="c0"/>
<circle cx="1348" cy="822" r="6" class="c0"/>
<circle cx="1640" cy="680" r="6" class="c0"/>
<circle cx="868" cy="628" r="6" class="c0"/>
<circle cx="1638" cy="658" r="6" class="c0"/>
<circle cx="1622" cy="826" r="6" class="c0"/>
<circle cx="1602" cy="834" r="6" class="c0"/>
<circle cx="794" cy="538" r="6" class="c0"/>
<circle cx="1372" cy="690" r="6" class="c0"/>
<circle cx="944" cy="584" r="6" class="c0"/>
<circle cx="1552" cy="974" r="6" class="c0"/>
<circle cx="1220" cy="504" r="6" class="c0"/>
<circle cx="1120" cy="762" r="6" class="c0"/>
<circle cx="1374" cy="944" r="6" class="c0"/>
<circle cx="1028" cy="738" r="6" class="c0"/>
<circle cx="1286" cy="954" r="6" class="c0"/>
<circle cx="936" cy="680" r="6" class="c0"/>
<circle cx="1080" cy="508" r="6" class="c0"/>
<circle cx="1166" cy="740" r="6" class="c0"/>
<circle cx="1514" cy="942" r="6" class="c0"/>
<circle cx="1222" cy="558" r="6" class="c0"/>
<circle cx="1634" cy="734" r="6" class="c0"/>
<circle cx="1462" cy="1038" r="6" class="c0"/>
<circle cx="806" cy="496" r="6" class="c0"/>
<circle cx="1160" cy="588" r="6" class="c0"/>
<circle cx="818" cy="392" r="6" class="c0"/>
<circle cx="1584" cy="792" r="6" class="c0"/>
<circle cx="1650" cy="716" r="6" class="c0"/>
<circle cx="1620" cy="994" r="6" class="c0"/>
<circle cx="1610" cy="794" r="6" class="c0"/>
<circle cx="920" cy="316" r="6" class="c0"/>
<circle cx="1556" cy="1012" r="6" class="c0"/>
<circle cx="1604" cy="910" r="6" class="c0"/>
<circle cx="1124" cy="554" r="6" class="c0"/>
<circle cx="1288" cy="774" r="6" class="c0"/>
<circle cx="1292" cy="914" r="6" class="c0"/>
<circle cx="1284" cy="828" r="6" class="c0"/>
<circle cx="934" cy="490" r="6" class="c0"/>
<circle cx="1030" cy="640" r="6" class="c0"/>
</svg>
