<?xml version="1.0" encoding="utf-8"?>
<svg xmlns="http://www.w3.org/2000/svg"
     xmlns:xlink="http://www.w3.org/1999/xlink" width="1920" height="1440" >

            <defs>
            <style type="text/css"><![CDATA[
circle {stroke: none;}
.c0 {fill: #000000;}
]]></style>
            </defs>
<rect x="0" y="0" width="1920" height="1440" fill="white"/>
<circle cx="1104" cy="898" r="14" class="c0"/>
<circle cx="1412" cy="758" r="12" class="c0"/>
<circle cx="1056" cy="580" r="12" class="c0"/>
<circle cx="1516" cy="694" r="12" class="c0"/>
<circle cx="1466" cy="934" r="12" class="c0"/>
<circle cx="1602" cy="758" r="12" class="c0"/>
<circle cx="1448" cy="850" r="12" class="c0"/>
<circle cx="1366" cy="978" r="12" class="c0"/>
<circle cx="1306" cy="818" r="12" class="c0"/>
<circle cx="824" cy="444" r="12" class="c0"/>
<circle cx="1506" cy="914" r="12" class="c0"/>
<circle cx="962" cy="676" r="12" class="c0"/>
<circle cx="984" cy="590" r="12" class="c0"/>
<circle cx="1052" cy="634" r="12" class="c0"/>
<circle cx="1172" cy="714" r="12" class="c0"/>
<circle cx="1414" cy="784" r="12" class="c0"/>
<circle cx="1108" cy="628" r="12" class="c0"/>
<circle cx="1566" cy="868" r="12" class="c0"/>
<circle cx="1526" cy="1000" r="12" class="c0"/>
<circle cx="1450" cy="998" r="12" class="c0"/>
<circle cx="1418" cy="1002" r="12" class="c0"/>
<circle cx="846" cy="668" r="12" class="c0"/>
<circle cx="1154" cy="680" r="12" class="c0"/>
<circle cx="1598" cy="790" r="12" class="c0"/>
<circle cx="1226" cy="822" r="12" class="c0"/>
<circle cx="900" cy="674" r="12" class="c0"/>
<circle cx="1584" cy="926" r="12" class="c0"/>
<circle cx="1000" cy="626" r="12" class="c0"/>
<circle cx="1408" cy="842" r="12" class="c0"/>
<circle cx="850" cy="640" r="12" class="c0"/>
<circle cx="1042" cy="752" r="12" class="c0"/>
<circle cx="1382" cy="894" r="12" class="c0"/>
<circle cx="1178" cy="762" r="12" class="c0"/>
<circle cx="1596" cy="888" r="12" class="c0"/>
<circle cx="1556" cy="682" r="12" class="c0"/>
<circle cx="1504" cy="838" r="12" class="c0"/>
<circle cx="1236" cy="722" r="12" class="c0"/>
<circle cx="1526" cy="890" r="12" class="c0"/>
<circle cx="1522" cy="754" r="12" class="c0"/>
<circle cx="1578" cy="692" r="12" class="c0"/>
<circle cx="1300" cy="922" r="12" class="c0"/>
<circle cx="1050" cy="720" r="12" class="c0"/>
<circle cx="1318" cy="988" r="12" class="c0"/>
<circle cx="1602" cy="712" r="12" class="c0"/>
<circle cx="828" cy="558" r="12" class="c0"/>
<circle cx="1244" cy="846" r="12" class="c0"/>
<circle cx="1402" cy="700" r="12" class="c0"/>
<circle cx="1092" cy="604" r="12" class="c0"/>
<circle cx="1552" cy="720" r="12" class="c0"/>
<circle cx="898" cy="382" r="12" class="c0"/>
<circle cx="1186" cy="572" r="12" class="c0"/>
<circle cx="1350" cy="810" r="10" class="c0"/>
<circle cx="1112" cy="734" r="10" class="c0"/>
<circle cx="1438" cy="898" r="10" class="c0"/>
<circle cx="890" cy="694" r="10" class="c0"/>
<circle cx="1014" cy="688" r="10" class="c0"/>
<circle cx="1130" cy="780" r="10" class="c0"/>
<circle cx="1528" cy="806" r="10" class="c0"/>
<circle cx="932" cy="530" r="10" class="c0"/>
<circle cx="1554" cy="816" r="10" class="c0"/>
<circle cx="852" cy="506" r="10" class="c0"/>
<circle cx="1080" cy="878" r="10" class="c0"/>
<circle cx="1476" cy="792" r="10" class="c0"/>
<circle cx="1274" cy="960" r="10" class="c0"/>
<circle cx="900" cy="622" r="10" class="c0"/>
<circle cx="924" cy="586" r="10" class="c0"/>
<circle cx="1020" cy="720" r="10" class="c0"/>
<circle cx="1504" cy="772" r="10" class="c0"/>
<circle cx="1130" cy="886" r="10" class="c0"/>
<circle cx="1222" cy="920" r="10" class="c0"/>
<circle cx="1226" cy="874" r="10" class="c0"/>
<circle cx="1346" cy="888" r="10" class="c0"/>
<circle cx="1106" cy="668" r="10" class="c0"/>
<circle cx="1458" cy="876" r="10" class="c0"/>
<circle cx="1292" cy="876" r="10" class="c0"/>
<circle cx="1158" cy="512" r="10" class="c0"/>
<circle cx="858" cy="568" r="10" class="c0"/>
<circle cx="1384" cy="734" r="10" class="c0"/>
<circle cx="1024" cy="662" r="10" class="c0"/>
<circle cx="824" cy="526" r="10" class="c0"/>
<circle cx="804" cy="554" r="10" class="c0"/>
<circle cx="1104" cy="768" r="10" class="c0"/>
<circle cx="1228" cy="944" r="10" class="c0"/>
<circle cx="1302" cy="952" r="10" class="c0"/>
<circle cx="1142" cy="756" r="10" class="c0"/>
<circle cx="1584" cy="834" r="10" class="c0"/>
<circle cx="1120" cy="820" r="10" class="c0"/>
<circle cx="1158" cy="778" r="10" class="c0"/>
<circle cx="1590" cy="1002" r="10" class="c0"/>
<circle cx="1232" cy="898" r="10" class="c0"/>
<circle cx="978" cy="744" r="10" class="c0"/>
<circle cx="832" cy="616" r="10" class="c0"/>
<circle cx="940" cy="498" r="10" class="c0"/>
<circle cx="1236" cy="792" r="10" class="c0"/>
<circle cx="1452" cy="682" r="10" class="c0"/>
<circle cx="1076" cy="620" r="10" class="c0"/>
<circle cx="1196" cy="680" r="10" class="c0"/>
<circle cx="1498" cy="946" r="10" class="c0"/>
<circle cx="988" cy="542" r="10" class="c0"/>
<circle cx="1132" cy="538" r="10" class="c0"/>
<circle cx="926" cy="638" r="10" class="c0"/>
<circle cx="1134" cy="854" r="10" class="c0"/>
<circle cx="1070" cy="696" r="10" class="c0"/>
<circle cx="1078" cy="820" r="10" class="c0"/>
<circle cx="804" cy="456" r="10" class="c0"/>
<circle cx="956" cy="516" r="10" class="c0"/>
<circle cx="1214" cy="734" r="10" class="c0"/>
<circle cx="1570" cy="892" r="10" class="c0"/>
<circle cx="1198" cy="890" r="10" class="c0"/>
<circle cx="1174" cy="902" r="10" class="c0"/>
<circle cx="1146" cy="814" r="10" class="c0"/>
<circle cx="874" cy="628" r="10" class="c0"/>
<circle cx="1064" cy="662" r="10" class="c0"/>
<circle cx="920" cy="430" r="10" class="c0"/>
<circle cx="1338" cy="714" r="10" class="c0"/>
<circle cx="1444" cy="814" r="10" class="c0"/>
<circle cx="882" cy="606" r="10" class="c0"/>
<circle cx="880" cy="500" r="10" class="c0"/>
<circle cx="1022" cy="600" r="10" class="c0"/>
<circle cx="1028" cy="788" r="10" class="c0"/>
<circle cx="934" cy="562" r="10" class="c0"/>
<circle cx="1252" cy="932" r="10" class="c0"/>
<circle cx="1488" cy="734" r="10" class="c0"/>
<circle cx="1182" cy="638" r="10" class="c0"/>
<circle cx="1378" cy="790" r="10" class="c0"/>
<circle cx="1494" cy="806" r="10" class="c0"/>
<circle cx="856" cy="442" r="10" class="c0"/>
<circle cx="1302" cy="760" r="10" class="c0"/>
<circle cx="1122" cy="580" r="10" class="c0"/>
<circle cx="1474" cy="686" r="10" class="c0"/>
<circle cx="1406" cy="932" r="10" class="c0"/>
<circle cx="1408" cy="878" r="10" class="c0"/>
<circle cx="1318" cy="778" r="10" class="c0"/>
<circle cx="1512" cy="794" r="10" class="c0"/>
<circle cx="1158" cy="834" r="10" class="c0"/>
<circle cx="1000" cy="762" r="10" class="c0"/>
<circle cx="874" cy="546" r="10" class="c0"/>
<circle cx="926" cy="714" r="10" class="c0"/>
<circle cx="1348" cy="942" r="10" class="c0"/>
<circle cx="1484" cy="958" r="10" class="c0"/>
<circle cx="1296" cy="796" r="10" class="c0"/>
<circle cx="1514" cy="662" r="10" class="c0"/>
<circle cx="964" cy="558" r="10" class="c0"/>
<circle cx="1456" cy="1044" r="10" class="c0"/>
<circle cx="1582" cy="722" r="10" class="c0"/>
<circle cx="1056" cy="834" r="10" class="c0"/>
<circle cx="1340" cy="962" r="10" class="c0"/>
<circle cx="1088" cy="574" r="10" class="c0"/>
<circle cx="1184" cy="942" r="10" class="c0"/>
<circle cx="1554" cy="1018" r="10" class="c0"/>
<circle cx="860" cy="482" r="10" class="c0"/>
<circle cx="1342" cy="912" r="10" class="c0"/>
<circle cx="1126" cy="682" r="10" class="c0"/>
<circle cx="1480" cy="878" r="10" class="c0"/>
<circle cx="1084" cy="734" r="10" class="c0"/>
<circle cx="1372" cy="712" r="10" class="c0"/>
<circle cx="976" cy="638" r="10" class="c0"/>
<circle cx="1364" cy="1016" r="10" class="c0"/>
<circle cx="1468" cy="1012" r="10" class="c0"/>
<circle cx="804" cy="626" r="10" class="c0"/>
<circle cx="1224" cy="768" r="10" class="c0"/>
<circle cx="1258" cy="896" r="10" class="c0"/>
<circle cx="1108" cy="566" r="10" class="c0"/>
<circle cx="1062" cy="608" r="10" class="c0"/>
<circle cx="1282" cy="830" r="10" class="c0"/>
<circle cx="984" cy="664" r="10" class="c0"/>
<circle cx="1450" cy="750" r="10" class="c0"/>
<circle cx="882" cy="434" r="10" class="c0"/>
<circle cx="1182" cy="820" r="10" class="c0"/>
<circle cx="1284" cy="722" r="10" class="c0"/>
<circle cx="1194" cy="612" r="10" class="c0"/>
<circle cx="1514" cy="964" r="10" class="c0"/>
<circle cx="1076" cy="768" r="10" class="c0"/>
<circle cx="1334" cy="866" r="10" class="c0"/>
<circle cx="1572" cy="948" r="10" class="c0"/>
<circle cx="1510" cy="724" r="10" class="c0"/>
<circle cx="1436" cy="704" r="8" class="c0"/>
<circle cx="1168" cy="594" r="8" class="c0"/>
<circle cx="946" cy="542" r="8" class="c0"/>
<circle cx="1530" cy="850" r="8" class="c0"/>
<circle cx="1468" cy="910" r="8" class="c0"/>
<circle cx="1548" cy="986" r="8" class="c0"/>
<circle cx="1080" cy="790" r="8" class="c0"/>
<circle cx="864" cy="590" r="8" class="c0"/>
<circle cx="920" cy="686" r="8" class="c0"/>
<circle cx="1456" cy="958" r="8" class="c0"/>
<circle cx="894" cy="556" r="8" class="c0"/>
<circle cx="892" cy="412" r="8" class="c0"/>
<circle cx="1274" cy="866" r="8" class="c0"/>
<circle cx="1616" cy="908" r="8" class="c0"/>
<circle cx="896" cy="588" r="8" class="c0"/>
<circle cx="1080" cy="652" r="8" class="c0"/>
<circle cx="1410" cy="1052" r="8" class="c0"/>
<circle cx="1536" cy="664" r="8" class="c0"/>
<circle cx="1014" cy="742" r="8" class="c0"/>
<circle cx="1278" cy="980" r="8" class="c0"/>
<circle cx="1280" cy="890" r="8" class="c0"/>
<circle cx="1256" cy="804" r="8" class="c0"/>
<circle cx="1392" cy="1006" r="8" class="c0"/>
<circle cx="1148" cy="706" r="8" class="c0"/>
<circle cx="1346" cy="758" r="8" class="c0"/>
<circle cx="1370" cy="814" r="8" class="c0"/>
<circle cx="1552" cy="950" r="8" class="c0"/>
<circle cx="928" cy="660" r="8" class="c0"/>
<circle cx="1360" cy="846" r="8" class="c0"/>
<circle cx="1624" cy="796" r="8" class="c0"/>
<circle cx="1430" cy="802" r="8" class="c0"/>
<circle cx="1040" cy="702" r="8" class="c0"/>
<circle cx="786" cy="538" r="8" class="c0"/>
<circle cx="1188" cy="844" r="8" class="c0"/>
<circle cx="1332" cy="790" r="8" class="c0"/>
<circle cx="1352" cy="686" r="8" class="c0"/>
<circle cx="1080" cy="844" r="8" class="c0"/>
<circle cx="1424" cy="686" r="8" class="c0"/>
<circle cx="1162" cy="918" r="8" class="c0"/>
<circle cx="1264" cy="762" r="8" class="c0"/>
<circle cx="1492" cy="860" r="8" class="c0"/>
<circle cx="1574" cy="1016" r="8" class="c0"/>
<circle cx="1192" cy="924" r="8" class="c0"/>
<circle cx="1398" cy="974" r="8" class="c0"/>
<circle cx="816" cy="598" r="8" class="c0"/>
<circle cx="1254" cy="776" r="8" class="c0"/>
<circle cx="806" cy="586" r="8" class="c0"/>
<circle cx="1594" cy="814" r="8" class="c0"/>
<circle cx="852" cy="600" r="8" class="c0"/>
<circle cx="1022" cy="816" r="8" class="c0"/>
<circle cx="848" cy="536" r="8" class="c0"/>
<circle cx="1326" cy="756" r="8" class="c0"/>
<circle cx="1156" cy="578" r="8" class="c0"/>
<circle cx="1198" cy="868" r="8" class="c0"/>
<circle cx="1330" cy="934" r="8" class="c0"/>
<circle cx="896" cy="528" r="8" class="c0"/>
<circle cx="1268" cy="786" r="8" class="c0"/>
<circle cx="1380" cy="754" r="8" class="c0"/>
<circle cx="1366" cy="774" r="8" class="c0"/>
<circle cx="1028" cy="620" r="8" class="c0"/>
<circle cx="1308" cy="734" r="8" class="c0"/>
<circle cx="972" cy="612" r="8" class="c0"/>
<circle cx="1430" cy="1020" r="8" class="c0"/>
<circle cx="950" cy="600" r="8" class="c0"/>
<circle cx="950" cy="692" r="8" class="c0"/>
<circle cx="1628" cy="750" r="8" class="c0"/>
<circle cx="1612" cy="1006" r="8" class="c0"/>
<circle cx="1116" cy="706" r="8" class="c0"/>
<circle cx="894" cy="454" r="8" class="c0"/>
<circle cx="1432" cy="930" r="8" class="c0"/>
<circle cx="946" cy="664" r="8" class="c0"/>
<circle cx="1414" cy="908" r="8" class="c0"/>
<circle cx="906" cy="510" r="8" class="c0"/>
<circle cx="1438" cy="1036" r="8" class="c0"/>
<circle cx="1444" cy="948" r="8" class="c0"/>
<circle cx="1156" cy="878" r="8" class="c0"/>
<circle cx="782" cy="576" r="8" class="c0"/>
<circle cx="1206" cy="832" r="8" class="c0"/>
<circle cx="1092" cy="856" r="8" class="c0"/>
<circle cx="1370" cy="682" r="8" class="c0"/>
<circle cx="1050" cy="688" r="8" class="c0"/>
<circle cx="1422" cy="864" r="8" class="c0"/>
<circle cx="1512" cy="818" r="8" class="c0"/>
<circle cx="1016" cy="774" r="8" class="c0"/>
<circle cx="884" cy="570" r="8" class="c0"/>
<circle cx="1462" cy="832" r="8" class="c0"/>
<circle cx="1388" cy="860" r="8" class="c0"/>
<circle cx="1476" cy="758" r="8" class="c0"/>
<circle cx="1394" cy="944" r="8" class="c0"/>
<circle cx="870" cy="412" r="8" class="c0"/>
<circle cx="1570" cy="762" r="8" class="c0"/>
<circle cx="1520" cy="1032" r="8" class="c0"/>
<circle cx="918" cy="496" r="8" class="c0"/>
<circle cx="1386" cy="922" r="8" class="c0"/>
<circle cx="1440" cy="792" r="8" class="c0"/>
<circle cx="1542" cy="866" r="8" class="c0"/>
<circle cx="982" cy="694" r="8" class="c0"/>
<circle cx="1136" cy="726" r="8" class="c0"/>
<circle cx="822" cy="646" r="8" class="c0"/>
<circle cx="860" cy="616" r="8" class="c0"/>
<circle cx="1432" cy="722" r="8" class="c0"/>
<circle cx="1062" cy="808" r="8" class="c0"/>
<circle cx="1536" cy="786" r="8" class="c0"/>
<circle cx="1442" cy="772" r="8" class="c0"/>
<circle cx="1580" cy="854" r="8" class="c0"/>
<circle cx="1384" cy="1026" r="8" class="c0"/>
<circle cx="1150" cy="648" r="8" class="c0"/>
<circle cx="1514" cy="866" r="8" class="c0"/>
<circle cx="1002" cy="676" r="8" class="c0"/>
<circle cx="1476" cy="816" r="8" class="c0"/>
<circle cx="1166" cy="860" r="8" class="c0"/>
<circle cx="808" cy="504" r="8" class="c0"/>
<circle cx="1464" cy="714" r="8" class="c0"/>
<circle cx="796" cy="486" r="8" class="c0"/>
<circle cx="1308" cy="846" r="8" class="c0"/>
<circle cx="904" cy="466" r="8" class="c0"/>
<circle cx="1558" cy="774" r="8" class="c0"/>
<circle cx="1476" cy="1040" r="8" class="c0"/>
<circle cx="1170" cy="796" r="8" class="c0"/>
<circle cx="1558" cy="996" r="8" class="c0"/>
<circle cx="1408" cy="1022" r="8" class="c0"/>
<circle cx="1372" cy="948" r="8" class="c0"/>
<circle cx="996" cy="574" r="8" class="c0"/>
<circle cx="1420" cy="1042" r="8" class="c0"/>
<circle cx="1166" cy="494" r="8" class="c0"/>
<circle cx="1196" cy="776" r="8" class="c0"/>
<circle cx="1434" cy="874" r="8" class="c0"/>
<circle cx="1532" cy="832" r="8" class="c0"/>
<circle cx="916" cy="476" r="8" class="c0"/>
<circle cx="1040" cy="568" r="8" class="c0"/>
<circle cx="1136" cy="624" r="8" class="c0"/>
<circle cx="1312" cy="872" r="8" class="c0"/>
<circle cx="1548" cy="924" r="8" class="c0"/>
<circle cx="1630" cy="770" r="8" class="c0"/>
<circle cx="1574" cy="802" r="8" class="c0"/>
<circle cx="1358" cy="726" r="8" class="c0"/>
<circle cx="820" cy="472" r="8" class="c0"/>
<circle cx="1438" cy="670" r="8" class="c0"/>
<circle cx="1114" cy="872" r="8" class="c0"/>
<circle cx="876" cy="458" r="8" class="c0"/>
<circle cx="1400" cy="812" r="8" class="c0"/>
<circle cx="1206" cy="798" r="8" class="c0"/>
<circle cx="1000" cy="788" r="8" class="c0"/>
<circle cx="1338" cy="824" r="8" class="c0"/>
<circle cx="1616" cy="730" r="8" class="c0"/>
<circle cx="906" cy="652" r="8" class="c0"/>
<circle cx="1380" cy="826" r="8" class="c0"/>
<circle cx="1536" cy="708" r="8" class="c0"/>
<circle cx="940" cy="464" r="8" class="c0"/>
<circle cx="824" cy="412" r="8" class="c0"/>
<circle cx="1084" cy="554" r="8" class="c0"/>
<circle cx="1208" cy="634" r="8" class="c0"/>
<circle cx="954" cy="580" r="8" class="c0"/>
<circle cx="1004" cy="730" r="8" class="c0"/>
<circle cx="1538" cy="964" r="8" class="c0"/>
<circle cx="1100" cy="830" r="8" class="c0"/>
<circle cx="1274" cy="914" r="8" class="c0"/>
<circle cx="1126" cy="646" r="8" class="c0"/>
<circle cx="1568" cy="742" r="8" class="c0"/>
<circle cx="1300" cy="706" r="8" class="c0"/>
<circle cx="1298" cy="976" r="8" class="c0"/>
<circle cx="1318" cy="802" r="8" class="c0"/>
<circle cx="1502" cy="876" r="8" class="c0"/>
<circle cx="1146" cy="906" r="8" class="c0"/>
<circle cx="1566" cy="1034" r="8" class="c0"/>
<circle cx="788" cy="518" r="8" class="c0"/>
<circle cx="1214" cy="850" r="8" class="c0"/>
<circle cx="1364" cy="904" r="8" class="c0"/>
<circle cx="1542" cy="1032" r="8" class="c0"/>
<circle cx="1348" cy="736" r="8" class="c0"/>
<circle cx="1062" cy="736" r="8" class="c0"/>
<circle cx="1094" cy="706" r="8" class="c0"/>
<circle cx="888" cy="646" r="8" class="c0"/>
<circle cx="1164" cy="658" r="8" class="c0"/>
<circle cx="886" cy="476" r="8" class="c0"/>
<circle cx="1160" cy="740" r="8" class="c0"/>
<circle cx="838" cy="578" r="8" class="c0"/>
<circle cx="866" cy="526" r="8" class="c0"/>
<circle cx="1008" cy="564" r="8" class="c0"/>
<circle cx="1498" cy="678" r="8" class="c0"/>
<circle cx="1198" cy="658" r="8" class="c0"/>
<circle cx="1098" cy="648" r="8" class="c0"/>
<circle cx="1002" cy="712" r="8" class="c0"/>
<circle cx="1440" cy="1056" r="8" class="c0"/>
<circle cx="1556" cy="842" r="8" class="c0"/>
<circle cx="1606" cy="826" r="8" class="c0"/>
<circle cx="1496" cy="704" r="8" class="c0"/>
<circle cx="1356" cy="788" r="8" class="c0"/>
<circle cx="1428" cy="958" r="8" class="c0"/>
<circle cx="1044" cy="600" r="8" class="c0"/>
<circle cx="1264" cy="856" r="8" class="c0"/>
<circle cx="1262" cy="948" r="8" class="c0"/>
<circle cx="1054" cy="776" r="8" class="c0"/>
<circle cx="880" cy="392" r="8" class="c0"/>
<circle cx="876" cy="362" r="8" class="c0"/>
<circle cx="1424" cy="826" r="8" class="c0"/>
<circle cx="1184" cy="736" r="8" class="c0"/>
<circle cx="928" cy="408" r="8" class="c0"/>
<circle cx="804" cy="406" r="8" class="c0"/>
<circle cx="1088" cy="678" r="8" class="c0"/>
<circle cx="1456" cy="800" r="8" class="c0"/>
<circle cx="1208" cy="960" r="8" class="c0"/>
<circle cx="938" cy="444" r="8" class="c0"/>
<circle cx="1536" cy="914" r="8" class="c0"/>
<circle cx="1260" cy="742" r="8" class="c0"/>
<circle cx="804" cy="532" r="8" class="c0"/>
<circle cx="1404" cy="732" r="8" class="c0"/>
<circle cx="1230" cy="748" r="8" class="c0"/>
<circle cx="1348" cy="1000" r="8" class="c0"/>
<circle cx="1034" cy="646" r="8" class="c0"/>
<circle cx="1140" cy="666" r="8" class="c0"/>
<circle cx="1496" cy="992" r="8" class="c0"/>
<circle cx="1466" cy="662" r="8" class="c0"/>
<circle cx="1248" cy="752" r="8" class="c0"/>
<circle cx="1486" cy="1030" r="8" class="c0"/>
<circle cx="1116" cy="792" r="8" class="c0"/>
<circle cx="1286" cy="776" r="8" class="c0"/>
<circle cx="1256" cy="828" r="8" class="c0"/>
<circle cx="1138" cy="922" r="8" class="c0"/>
<circle cx="1518" cy="936" r="8" class="c0"/>
<circle cx="852" cy="462" r="8" class="c0"/>
<circle cx="1176" cy="880" r="8" class="c0"/>
<circle cx="966" cy="710" r="8" class="c0"/>
<circle cx="960" cy="652" r="8" class="c0"/>
<circle cx="978" cy="766" r="8" class="c0"/>
<circle cx="1132" cy="800" r="8" class="c0"/>
<circle cx="1370" cy="870" r="8" class="c0"/>
<circle cx="916" cy="548" r="8" class="c0"/>
<circle cx="866" cy="684" r="8" class="c0"/>
<circle cx="948" cy="736" r="8" class="c0"/>
<circle cx="934" cy="618" r="8" class="c0"/>
<circle cx="970" cy="534" r="8" class="c0"/>
<circle cx="1580" cy="752" r="8" class="c0"/>
<circle cx="1142" cy="590" r="8" class="c0"/>
<circle cx="832" cy="494" r="8" class="c0"/>
<circle cx="1146" cy="500" r="8" class="c0"/>
<circle cx="1186" cy="514" r="8" class="c0"/>
<circle cx="1462" cy="982" r="8" class="c0"/>
<circle cx="1330" cy="898" r="8" class="c0"/>
<circle cx="1196" cy="708" r="8" class="c0"/>
<circle cx="778" cy="500" r="8" class="c0"/>
<circle cx="1158" cy="610" r="8" class="c0"/>
<circle cx="1606" cy="850" r="8" class="c0"/>
<circle cx="1592" cy="866" r="8" class="c0"/>
<circle cx="1130" cy="602" r="8" class="c0"/>
<circle cx="1122" cy="752" r="8" class="c0"/>
<circle cx="1552" cy="794" r="8" class="c0"/>
<circle cx="1114" cy="846" r="8" class="c0"/>
<circle cx="1288" cy="744" r="8" class="c0"/>
<circle cx="1388" cy="964" r="8" class="c0"/>
<circle cx="878" cy="664" r="8" class="c0"/>
<circle cx="946" cy="712" r="8" class="c0"/>
<circle cx="1306" cy="896" r="8" class="c0"/>
<circle cx="1410" cy="956" r="8" class="c0"/>
<circle cx="1426" cy="742" r="8" class="c0"/>
<circle cx="1538" cy="934" r="8" class="c0"/>
<circle cx="1334" cy="842" r="8" class="c0"/>
<circle cx="1510" cy="1022" r="8" class="c0"/>
<circle cx="1460" cy="774" r="8" class="c0"/>
<circle cx="862" cy="656" r="8" class="c0"/>
<circle cx="796" cy="602" r="8" class="c0"/>
<circle cx="1466" cy="736" r="8" class="c0"/>
<circle cx="1206" cy="756" r="8" class="c0"/>
<circle cx="1018" cy="580" r="8" class="c0"/>
<circle cx="1480" cy="838" r="8" class="c0"/>
<circle cx="1262" cy="972" r="8" class="c0"/>
<circle cx="1602" cy="1018" r="8" class="c0"/>
<circle cx="1196" cy="498" r="8" class="c0"/>
<circle cx="1584" cy="1026" r="8" class="c0"/>
<circle cx="1444" cy="920" r="8" class="c0"/>
<circle cx="1544" cy="752" r="8" class="c0"/>
<circle cx="1360" cy="924" r="8" class="c0"/>
<circle cx="1096" cy="812" r="8" class="c0"/>
<circle cx="1258" cy="720" r="8" class="c0"/>
<circle cx="1092" cy="756" r="8" class="c0"/>
<circle cx="898" cy="490" r="8" class="c0"/>
<circle cx="1560" cy="914" r="8" class="c0"/>
<circle cx="1320" cy="704" r="8" class="c0"/>
<circle cx="1452" cy="1024" r="8" class="c0"/>
<circle cx="1028" cy="556" r="8" class="c0"/>
<circle cx="1488" cy="896" r="8" class="c0"/>
<circle cx="988" cy="722" r="8" class="c0"/>
<circle cx="1252" cy="958" r="8" class="c0"/>
<circle cx="1132" cy="564" r="8" class="c0"/>
<circle cx="1362" cy="748" r="8" class="c0"/>
<circle cx="1484" cy="660" r="8" class="c0"/>
<circle cx="1432" cy="980" r="8" class="c0"/>
<circle cx="1278" cy="940" r="8" class="c0"/>
<circle cx="1396" cy="912" r="8" class="c0"/>
<circle cx="1278" cy="804" r="8" class="c0"/>
<circle cx="934" cy="698" r="6" class="c0"/>
<circle cx="1320" cy="924" r="6" class="c0"/>
<circle cx="1620" cy="838" r="6" class="c0"/>
<circle cx="1166" cy="624" r="6" class="c0"/>
<circle cx="1242" cy="918" r="6" class="c0"/>
<circle cx="1098" cy="790" r="6" class="c0"/>
<circle cx="1396" cy="792" r="6" class="c0"/>
<circle cx="1492" cy="1050" r="6" class="c0"/>
<circle cx="1530" cy="736" r="6" class="c0"/>
<circle cx="1186" cy="698" r="6" class="c0"/>
<circle cx="1270" cy="710" r="6" class="c0"/>
<circle cx="1180" cy="656" r="6" class="c0"/>
<circle cx="1422" cy="712" r="6" class="c0"/>
<circle cx="1060" cy="792" r="6" class="c0"/>
<circle cx="1560" cy="974" r="6" class="c0"/>
<circle cx="1566" cy="830" r="6" class="c0"/>
<circle cx="1128" cy="908" r="6" class="c0"/>
<circle cx="1318" cy="960" r="6" class="c0"/>
<circle cx="1608" cy="924" r="6" class="c0"/>
<circle cx="1020" cy="634" r="6" class="c0"/>
<circle cx="1610" cy="806" r="6" class="c0"/>
<circle cx="814" cy="570" r="6" class="c0"/>
<circle cx="1214" cy="784" r="6" class="c0"/>
<circle cx="1322" cy="830" r="6" class="c0"/>
<circle cx="1390" cy="776" r="6" class="c0"/>
<circle cx="1314" cy="940" r="6" class="c0"/>
<circle cx="1288" cy="904" r="6" class="c0"/>
<circle cx="1524" cy="774" r="6" class="c0"/>
<circle cx="1232" cy="968" r="6" class="c0"/>
<circle cx="1324" cy="724" r="6" class="c0"/>
<circle cx="1604" cy="992" r="6" class="c0"/>
<circle cx="1334" cy="688" r="6" class="c0"/>
<circle cx="1616" cy="780" r="6" class="c0"/>
<circle cx="1328" cy="738" r="6" class="c0"/>
<circle cx="1114" cy="604" r="6" class="c0"/>
<circle cx="1102" cy="690" r="6" class="c0"/>
<circle cx="1488" cy="1010" r="6" class="c0"/>
<circle cx="916" cy="570" r="6" class="c0"/>
<circle cx="1074" cy="748" r="6" class="c0"/>
<circle cx="1310" cy="718" r="6" class="c0"/>
<circle cx="1506" cy="744" r="6" class="c0"/>
<circle cx="1338" cy="990" r="6" class="c0"/>
<circle cx="1456" cy="900" r="6" class="c0"/>
<circle cx="1424" cy="888" r="6" class="c0"/>
<circle cx="904" cy="708" r="6" class="c0"/>
<circle cx="932" cy="480" r="6" class="c0"/>
<circle cx="1560" cy="934" r="6" class="c0"/>
<circle cx="1618" cy="816" r="6" class="c0"/>
<circle cx="1568" cy="966" r="6" class="c0"/>
<circle cx="1504" cy="894" r="6" class="c0"/>
<circle cx="1548" cy="884" r="6" class="c0"/>
<circle cx="1416" cy="978" r="6" class="c0"/>
<circle cx="1100" cy="586" r="6" class="c0"/>
<circle cx="1294" cy="992" r="6" class="c0"/>
<circle cx="1450" cy="730" r="6" class="c0"/>
<circle cx="1594" cy="942" r="6" class="c0"/>
<circle cx="1062" cy="556" r="6" class="c0"/>
<circle cx="1146" cy="790" r="6" class="c0"/>
<circle cx="1032" cy="768" r="6" class="c0"/>
<circle cx="838" cy="478" r="6" class="c0"/>
<circle cx="1040" cy="822" r="6" class="c0"/>
<circle cx="1104" cy="546" r="6" class="c0"/>
<circle cx="1278" cy="848" r="6" class="c0"/>
<circle cx="848" cy="420" r="6" class="c0"/>
<circle cx="1352" cy="862" r="6" class="c0"/>
<circle cx="1574" cy="778" r="6" class="c0"/>
<circle cx="1510" cy="1048" r="6" class="c0"/>
<circle cx="1372" cy="1000" r="6" class="c0"/>
<circle cx="1158" cy="560" r="6" class="c0"/>
<circle cx="1394" cy="1044" r="6" class="c0"/>
<circle cx="910" cy="404" r="6" class="c0"/>
<circle cx="1330" cy="1002" r="6" class="c0"/>
<circle cx="1488" cy="978" r="6" class="c0"/>
<circle cx="1612" cy="694" r="6" class="c0"/>
<circle cx="1072" cy="592" r="6" class="c0"/>
<circle cx="1068" cy="856" r="6" class="c0"/>
<circle cx="1038" cy="678" r="6" class="c0"/>
<circle cx="982" cy="566" r="6" class="c0"/>
<circle cx="1254" cy="868" r="6" class="c0"/>
<circle cx="1002" cy="652" r="6" class="c0"/>
<circle cx="986" cy="780" r="6" class="c0"/>
<circle cx="1488" cy="924" r="6" class="c0"/>
<circle cx="924" cy="462" r="6" class="c0"/>
<circle cx="1046" cy="666" r="6" class="c0"/>
<circle cx="1000" cy="604" r="6" class="c0"/>
<circle cx="870" cy="378" r="6" class="c0"/>
<circle cx="1362" cy="958" r="6" class="c0"/>
<circle cx="1344" cy="776" r="6" class="c0"/>
<circle cx="954" cy="454" r="6" class="c0"/>
<circle cx="1626" cy="890" r="6" class="c0"/>
<circle cx="1102" cy="720" r="6" class="c0"/>
<circle cx="1584" cy="670" r="6" class="c0"/>
<circle cx="1388" cy="686" r="6" class="c0"/>
<circle cx="902" cy="438" r="6" class="c0"/>
<circle cx="1220" cy="548" r="6" class="c0"/>
<circle cx="1204" cy="564" r="6" class="c0"/>
<circle cx="1280" cy="760" r="6" class="c0"/>
<circle cx="1006" cy="590" r="6" class="c0"/>
<circle cx="1548" cy="902" r="6" class="c0"/>
<circle cx="1510" cy="982" r="6" class="c0"/>
<circle cx="1246" cy="816" r="6" class="c0"/>
<circle cx="1344" cy="1016" r="6" class="c0"/>
<circle cx="1592" cy="738" r="6" class="c0"/>
<circle cx="1178" cy="672" r="6" class="c0"/>
<circle cx="1176" cy="926" r="6" class="c0"/>
<circle cx="1176" cy="504" r="6" class="c0"/>
<circle cx="836" cy="430" r="6" class="c0"/>
<circle cx="1468" cy="854" r="6" class="c0"/>
<circle cx="1138" cy="518" r="6" class="c0"/>
<circle cx="776" cy="558" r="6" class="c0"/>
<circle cx="1494" cy="758" r="6" class="c0"/>
<circle cx="1562" cy="702" r="6" class="c0"/>
<circle cx="1168" cy="934" r="6" class="c0"/>
<circle cx="796" cy="392" r="6" class="c0"/>
<circle cx="1392" cy="718" r="6" class="c0"/>
<circle cx="946" cy="634" r="6" class="c0"/>
<circle cx="1090" cy="780" r="6" class="c0"/>
<circle cx="946" cy="428" r="6" class="c0"/>
<circle cx="1182" cy="482" r="6" class="c0"/>
<circle cx="1218" cy="604" r="6" class="c0"/>
<circle cx="908" cy="604" r="6" class="c0"/>
<circle cx="1470" cy="894" r="6" class="c0"/>
<circle cx="1502" cy="648" r="6" class="c0"/>
<circle cx="1598" cy="912" r="6" class="c0"/>
<circle cx="1432" cy="760" r="6" class="c0"/>
<circle cx="968" cy="728" r="6" class="c0"/>
<circle cx="1152" cy="626" r="6" class="c0"/>
<circle cx="780" cy="484" r="6" class="c0"/>
<circle cx="1132" cy="708" r="6" class="c0"/>
<circle cx="1210" cy="934" r="6" class="c0"/>
<circle cx="1482" cy="774" r="6" class="c0"/>
<circle cx="1214" cy="902" r="6" class="c0"/>
<circle cx="1178" cy="690" r="6" class="c0"/>
<circle cx="918" cy="614" r="6" class="c0"/>
<circle cx="952" cy="616" r="6" class="c0"/>
<circle cx="914" cy="526" r="6" class="c0"/>
<circle cx="1434" cy="838" r="6" class="c0"/>
<circle cx="908" cy="418" r="6" class="c0"/>
<circle cx="1038" cy="802" r="6" class="c0"/>
<circle cx="1214" cy="686" r="6" class="c0"/>
<circle cx="960" cy="754" r="6" class="c0"/>
<circle cx="1120" cy="552" r="6" class="c0"/>
<circle cx="974" cy="574" r="6" class="c0"/>
<circle cx="1322" cy="884" r="6" class="c0"/>
<circle cx="912" cy="446" r="6" class="c0"/>
<circle cx="1054" cy="854" r="6" class="c0"/>
<circle cx="1528" cy="980" r="6" class="c0"/>
<circle cx="956" cy="722" r="6" class="c0"/>
<circle cx="1124" cy="662" r="6" class="c0"/>
<circle cx="1540" cy="770" r="6" class="c0"/>
<circle cx="1182" cy="864" r="6" class="c0"/>
<circle cx="834" cy="464" r="6" class="c0"/>
<circle cx="962" cy="626" r="6" class="c0"/>
<circle cx="1446" cy="970" r="6" class="c0"/>
<circle cx="1322" cy="854" r="6" class="c0"/>
<circle cx="1190" cy="800" r="6" class="c0"/>
<circle cx="1010" cy="800" r="6" class="c0"/>
<circle cx="1380" cy="696" r="6" class="c0"/>
<circle cx="1138" cy="830" r="6" class="c0"/>
<circle cx="1358" cy="830" r="6" class="c0"/>
<circle cx="1034" cy="732" r="6" class="c0"/>
<circle cx="1396" cy="990" r="6" class="c0"/>
<circle cx="1302" cy="862" r="6" class="c0"/>
<circle cx="1532" cy="1022" r="6" class="c0"/>
<circle cx="926" cy="512" r="6" class="c0"/>
<circle cx="1020" cy="758" r="6" class="c0"/>
<circle cx="1262" cy="876" r="6" class="c0"/>
<circle cx="1072" cy="566" r="6" class="c0"/>
<circle cx="1480" cy="988" r="6" class="c0"/>
<circle cx="1196" cy="746" r="6" class="c0"/>
<circle cx="1378" cy="848" r="6" class="c0"/>
<circle cx="1140" cy="692" r="6" class="c0"/>
<circle cx="1114" cy="918" r="6" class="c0"/>
<circle cx="834" cy="596" r="6" class="c0"/>
<circle cx="1490" cy="826" r="6" class="c0"/>
<circle cx="1174" cy="612" r="6" class="c0"/>
<circle cx="812" cy="488" r="6" class="c0"/>
<circle cx="1074" cy="716" r="6" class="c0"/>
<circle cx="1204" cy="814" r="6" class="c0"/>
<circle cx="1598" cy="688" r="6" class="c0"/>
<circle cx="1476" cy="704" r="6" class="c0"/>
<circle cx="1336" cy="746" r="6" class="c0"/>
<circle cx="1416" cy="810" r="6" class="c0"/>
<circle cx="1292" cy="850" r="6" class="c0"/>
<circle cx="1144" cy="554" r="6" class="c0"/>
<circle cx="1164" cy="812" r="6" class="c0"/>
<circle cx="1036" cy="586" r="6" class="c0"/>
<circle cx="890" cy="714" r="6" class="c0"/>
<circle cx="894" cy="362" r="6" class="c0"/>
<circle cx="1064" cy="870" r="6" class="c0"/>
<circle cx="1328" cy="812" r="6" class="c0"/>
<circle cx="882" cy="518" r="6" class="c0"/>
<circle cx="1012" cy="642" r="6" class="c0"/>
<circle cx="1400" cy="672" r="6" class="c0"/>
<circle cx="1158" cy="894" r="6" class="c0"/>
<circle cx="1420" cy="942" r="6" class="c0"/>
<circle cx="1304" cy="1000" r="6" class="c0"/>
<circle cx="1072" cy="638" r="6" class="c0"/>
<circle cx="1154" cy="534" r="6" class="c0"/>
<circle cx="1624" cy="716" r="6" class="c0"/>
<circle cx="842" cy="452" r="6" class="c0"/>
<circle cx="1470" cy="968" r="6" class="c0"/>
<circle cx="1346" cy="980" r="6" class="c0"/>
<circle cx="772" cy="530" r="6" class="c0"/>
<circle cx="1532" cy="684" r="6" class="c0"/>
<circle cx="934" cy="678" r="6" class="c0"/>
<circle cx="1344" cy="852" r="6" class="c0"/>
<circle cx="1580" cy="906" r="6" class="c0"/>
<circle cx="1150" cy="932" r="6" class="c0"/>
<circle cx="842" cy="520" r="6" class="c0"/>
<circle cx="1396" cy="748" r="6" class="c0"/>
<circle cx="848" cy="554" r="6" class="c0"/>
<circle cx="1502" cy="1008" r="6" class="c0"/>
<circle cx="1244" cy="882" r="6" class="c0"/>
<circle cx="1122" cy="524" r="6" class="c0"/>
<circle cx="840" cy="410" r="6" class="c0"/>
<circle cx="1110" cy="534" r="6" class="c0"/>
<circle cx="1586" cy="768" r="6" class="c0"/>
<circle cx="834" cy="512" r="6" class="c0"/>
<circle cx="1270" cy="818" r="6" class="c0"/>
<circle cx="1222" cy="802" r="6" class="c0"/>
<circle cx="1446" cy="714" r="6" class="c0"/>
<circle cx="1414" cy="674" r="6" class="c0"/>
<circle cx="1326" cy="952" r="6" class="c0"/>
<circle cx="1486" cy="714" r="6" class="c0"/>
<circle cx="1500" cy="1040" r="6" class="c0"/>
<circle cx="1180" cy="784" r="6" class="c0"/>
<circle cx="1208" cy="668" r="6" class="c0"/>
<circle cx="1154" cy="724" r="6" class="c0"/>
<circle cx="1380" cy="992" r="6" class="c0"/>
<circle cx="1196" cy="552" r="6" class="c0"/>
<circle cx="1354" cy="704" r="6" class="c0"/>
<circle cx="1062" cy="754" r="6" class="c0"/>
<circle cx="1196" cy="726" r="6" class="c0"/>
<circle cx="1088" cy="632" r="6" class="c0"/>
<circle cx="822" cy="582" r="6" class="c0"/>
<circle cx="1454" cy="704" r="6" class="c0"/>
<circle cx="1142" cy="870" r="6" class="c0"/>
<circle cx="1316" cy="910" r="6" class="c0"/>
<circle cx="1632" cy="902" r="6" class="c0"/>
<circle cx="816" cy="542" r="6" class="c0"/>
<circle cx="964" cy="592" r="6" class="c0"/>
<circle cx="1370" cy="836" r="6" class="c0"/>
<circle cx="1166" cy="528" r="6" class="c0"/>
<circle cx="1576" cy="818" r="6" class="c0"/>
<circle cx="1452" cy="1066" r="6" class="c0"/>
<circle cx="1214" cy="650" r="6" class="c0"/>
<circle cx="1204" cy="910" r="6" class="c0"/>
</svg>
