<?xml version="1.0" encoding="utf-8"?>
<svg xmlns="http://www.w3.org/2000/svg"
     xmlns:xlink="http://www.w3.org/1999/xlink" width="1920" height="1440" >

            <defs>
            <style type="text/css"><![CDATA[
circle {stroke: none;}
.c0 {fill: #000000;}
]]></style>
            </defs>
<rect x="0" y="0" width="1920" height="1440" fill="white"/>
<circle cx="1014" cy="948" r="14" class="c0"/>
<circle cx="802" cy="690" r="12" class="c0"/>
<circle cx="702" cy="704" r="12" class="c0"/>
<circle cx="910" cy="854" r="12" class="c0"/>
<circle cx="1054" cy="1262" r="12" class="c0"/>
<circle cx="972" cy="1080" r="12" class="c0"/>
<circle cx="1204" cy="1102" r="12" class="c0"/>
<circle cx="1246" cy="970" r="12" class="c0"/>
<circle cx="976" cy="978" r="12" class="c0"/>
<circle cx="800" cy="748" r="12" class="c0"/>
<circle cx="1056" cy="1200" r="12" class="c0"/>
<circle cx="1110" cy="958" r="12" class="c0"/>
<circle cx="1078" cy="994" r="12" class="c0"/>
<circle cx="918" cy="890" r="12" class="c0"/>
<circle cx="1156" cy="1018" r="12" class="c0"/>
<circle cx="1262" cy="1018" r="12" class="c0"/>
<circle cx="1028" cy="1026" r="12" class="c0"/>
<circle cx="852" cy="798" r="12" class="c0"/>
<circle cx="1120" cy="990" r="12" class="c0"/>
<circle cx="1118" cy="1194" r="12" class="c0"/>
<circle cx="772" cy="804" r="12" class="c0"/>
<circle cx="976" cy="950" r="12" class="c0"/>
<circle cx="1068" cy="1134" r="12" class="c0"/>
<circle cx="764" cy="686" r="12" class="c0"/>
<circle cx="892" cy="992" r="12" class="c0"/>
<circle cx="1028" cy="890" r="12" class="c0"/>
<circle cx="942" cy="878" r="12" class="c0"/>
<circle cx="840" cy="818" r="12" class="c0"/>
<circle cx="1238" cy="1166" r="12" class="c0"/>
<circle cx="828" cy="764" r="12" class="c0"/>
<circle cx="1184" cy="1180" r="12" class="c0"/>
<circle cx="1402" cy="1156" r="12" class="c0"/>
<circle cx="1246" cy="1134" r="12" class="c0"/>
<circle cx="866" cy="966" r="12" class="c0"/>
<circle cx="1202" cy="986" r="10" class="c0"/>
<circle cx="804" cy="946" r="10" class="c0"/>
<circle cx="886" cy="886" r="10" class="c0"/>
<circle cx="1134" cy="1058" r="10" class="c0"/>
<circle cx="1184" cy="1080" r="10" class="c0"/>
<circle cx="1160" cy="1070" r="10" class="c0"/>
<circle cx="1008" cy="1218" r="10" class="c0"/>
<circle cx="1238" cy="1036" r="10" class="c0"/>
<circle cx="1302" cy="1136" r="10" class="c0"/>
<circle cx="1154" cy="1224" r="10" class="c0"/>
<circle cx="1336" cy="1158" r="10" class="c0"/>
<circle cx="734" cy="746" r="10" class="c0"/>
<circle cx="1334" cy="1024" r="10" class="c0"/>
<circle cx="1404" cy="1230" r="10" class="c0"/>
<circle cx="846" cy="932" r="10" class="c0"/>
<circle cx="716" cy="616" r="10" class="c0"/>
<circle cx="974" cy="906" r="10" class="c0"/>
<circle cx="834" cy="734" r="10" class="c0"/>
<circle cx="1214" cy="1056" r="10" class="c0"/>
<circle cx="1364" cy="1228" r="10" class="c0"/>
<circle cx="840" cy="664" r="10" class="c0"/>
<circle cx="736" cy="608" r="10" class="c0"/>
<circle cx="716" cy="648" r="10" class="c0"/>
<circle cx="744" cy="700" r="10" class="c0"/>
<circle cx="926" cy="952" r="10" class="c0"/>
<circle cx="934" cy="804" r="10" class="c0"/>
<circle cx="1104" cy="1240" r="10" class="c0"/>
<circle cx="1290" cy="1084" r="10" class="c0"/>
<circle cx="994" cy="1126" r="10" class="c0"/>
<circle cx="714" cy="732" r="10" class="c0"/>
<circle cx="990" cy="756" r="10" class="c0"/>
<circle cx="1124" cy="1142" r="10" class="c0"/>
<circle cx="1166" cy="1106" r="10" class="c0"/>
<circle cx="1022" cy="1196" r="10" class="c0"/>
<circle cx="778" cy="628" r="10" class="c0"/>
<circle cx="760" cy="862" r="10" class="c0"/>
<circle cx="1044" cy="1012" r="10" class="c0"/>
<circle cx="832" cy="844" r="10" class="c0"/>
<circle cx="772" cy="890" r="10" class="c0"/>
<circle cx="1212" cy="1026" r="10" class="c0"/>
<circle cx="950" cy="1020" r="10" class="c0"/>
<circle cx="1260" cy="990" r="10" class="c0"/>
<circle cx="1042" cy="1106" r="10" class="c0"/>
<circle cx="1162" cy="946" r="10" class="c0"/>
<circle cx="876" cy="760" r="10" class="c0"/>
<circle cx="952" cy="722" r="10" class="c0"/>
<circle cx="1032" cy="1230" r="10" class="c0"/>
<circle cx="1016" cy="1108" r="10" class="c0"/>
<circle cx="912" cy="924" r="10" class="c0"/>
<circle cx="886" cy="810" r="10" class="c0"/>
<circle cx="1096" cy="972" r="10" class="c0"/>
<circle cx="862" cy="872" r="10" class="c0"/>
<circle cx="1156" cy="1176" r="10" class="c0"/>
<circle cx="996" cy="1246" r="10" class="c0"/>
<circle cx="798" cy="908" r="10" class="c0"/>
<circle cx="1182" cy="1144" r="10" class="c0"/>
<circle cx="952" cy="968" r="10" class="c0"/>
<circle cx="1288" cy="1018" r="10" class="c0"/>
<circle cx="1040" cy="1066" r="10" class="c0"/>
<circle cx="882" cy="722" r="10" class="c0"/>
<circle cx="732" cy="686" r="10" class="c0"/>
<circle cx="1082" cy="1096" r="10" class="c0"/>
<circle cx="912" cy="820" r="10" class="c0"/>
<circle cx="980" cy="1220" r="10" class="c0"/>
<circle cx="746" cy="794" r="10" class="c0"/>
<circle cx="1156" cy="1128" r="10" class="c0"/>
<circle cx="692" cy="632" r="10" class="c0"/>
<circle cx="830" cy="700" r="10" class="c0"/>
<circle cx="1034" cy="964" r="10" class="c0"/>
<circle cx="1224" cy="1142" r="10" class="c0"/>
<circle cx="1028" cy="1144" r="10" class="c0"/>
<circle cx="1274" cy="1054" r="10" class="c0"/>
<circle cx="920" cy="746" r="10" class="c0"/>
<circle cx="1082" cy="916" r="10" class="c0"/>
<circle cx="1184" cy="1012" r="10" class="c0"/>
<circle cx="688" cy="718" r="10" class="c0"/>
<circle cx="1008" cy="1170" r="10" class="c0"/>
<circle cx="1310" cy="1094" r="10" class="c0"/>
<circle cx="876" cy="850" r="10" class="c0"/>
<circle cx="1212" cy="956" r="10" class="c0"/>
<circle cx="1242" cy="1102" r="10" class="c0"/>
<circle cx="716" cy="766" r="10" class="c0"/>
<circle cx="922" cy="1008" r="10" class="c0"/>
<circle cx="1084" cy="1190" r="10" class="c0"/>
<circle cx="1350" cy="1204" r="10" class="c0"/>
<circle cx="776" cy="716" r="10" class="c0"/>
<circle cx="968" cy="1002" r="10" class="c0"/>
<circle cx="744" cy="674" r="10" class="c0"/>
<circle cx="1106" cy="926" r="10" class="c0"/>
<circle cx="1094" cy="1114" r="10" class="c0"/>
<circle cx="1052" cy="722" r="10" class="c0"/>
<circle cx="1102" cy="1064" r="10" class="c0"/>
<circle cx="1308" cy="1046" r="10" class="c0"/>
<circle cx="1022" cy="916" r="10" class="c0"/>
<circle cx="874" cy="790" r="10" class="c0"/>
<circle cx="1028" cy="992" r="10" class="c0"/>
<circle cx="1074" cy="1046" r="10" class="c0"/>
<circle cx="768" cy="658" r="10" class="c0"/>
<circle cx="734" cy="634" r="10" class="c0"/>
<circle cx="1210" cy="1158" r="10" class="c0"/>
<circle cx="1064" cy="964" r="10" class="c0"/>
<circle cx="892" cy="748" r="10" class="c0"/>
<circle cx="1366" cy="1010" r="10" class="c0"/>
<circle cx="1014" cy="762" r="10" class="c0"/>
<circle cx="1056" cy="1030" r="10" class="c0"/>
<circle cx="1006" cy="880" r="10" class="c0"/>
<circle cx="690" cy="682" r="8" class="c0"/>
<circle cx="1186" cy="1386" r="8" class="c0"/>
<circle cx="842" cy="886" r="8" class="c0"/>
<circle cx="966" cy="1040" r="8" class="c0"/>
<circle cx="1352" cy="1168" r="8" class="c0"/>
<circle cx="888" cy="1022" r="8" class="c0"/>
<circle cx="822" cy="628" r="8" class="c0"/>
<circle cx="690" cy="748" r="8" class="c0"/>
<circle cx="1034" cy="744" r="8" class="c0"/>
<circle cx="1256" cy="1360" r="8" class="c0"/>
<circle cx="1394" cy="1206" r="8" class="c0"/>
<circle cx="1218" cy="998" r="8" class="c0"/>
<circle cx="1000" cy="1024" r="8" class="c0"/>
<circle cx="774" cy="826" r="8" class="c0"/>
<circle cx="1116" cy="1022" r="8" class="c0"/>
<circle cx="1134" cy="1108" r="8" class="c0"/>
<circle cx="1184" cy="1042" r="8" class="c0"/>
<circle cx="1236" cy="938" r="8" class="c0"/>
<circle cx="944" cy="902" r="8" class="c0"/>
<circle cx="1144" cy="1162" r="8" class="c0"/>
<circle cx="786" cy="648" r="8" class="c0"/>
<circle cx="874" cy="926" r="8" class="c0"/>
<circle cx="1100" cy="1044" r="8" class="c0"/>
<circle cx="960" cy="742" r="8" class="c0"/>
<circle cx="1078" cy="1218" r="8" class="c0"/>
<circle cx="1332" cy="1080" r="8" class="c0"/>
<circle cx="1082" cy="1246" r="8" class="c0"/>
<circle cx="1342" cy="986" r="8" class="c0"/>
<circle cx="920" cy="1054" r="8" class="c0"/>
<circle cx="1100" cy="1174" r="8" class="c0"/>
<circle cx="1274" cy="1312" r="8" class="c0"/>
<circle cx="1264" cy="944" r="8" class="c0"/>
<circle cx="988" cy="1038" r="8" class="c0"/>
<circle cx="908" cy="780" r="8" class="c0"/>
<circle cx="778" cy="920" r="8" class="c0"/>
<circle cx="1226" cy="1328" r="8" class="c0"/>
<circle cx="932" cy="1040" r="8" class="c0"/>
<circle cx="904" cy="1038" r="8" class="c0"/>
<circle cx="808" cy="778" r="8" class="c0"/>
<circle cx="864" cy="738" r="8" class="c0"/>
<circle cx="952" cy="760" r="8" class="c0"/>
<circle cx="832" cy="900" r="8" class="c0"/>
<circle cx="1438" cy="1210" r="8" class="c0"/>
<circle cx="938" cy="834" r="8" class="c0"/>
<circle cx="976" cy="1186" r="8" class="c0"/>
<circle cx="1104" cy="1096" r="8" class="c0"/>
<circle cx="886" cy="936" r="8" class="c0"/>
<circle cx="1290" cy="1106" r="8" class="c0"/>
<circle cx="1434" cy="1176" r="8" class="c0"/>
<circle cx="1028" cy="1258" r="8" class="c0"/>
<circle cx="900" cy="832" r="8" class="c0"/>
<circle cx="1076" cy="950" r="8" class="c0"/>
<circle cx="1260" cy="1082" r="8" class="c0"/>
<circle cx="674" cy="672" r="8" class="c0"/>
<circle cx="1058" cy="742" r="8" class="c0"/>
<circle cx="906" cy="800" r="8" class="c0"/>
<circle cx="1462" cy="1178" r="8" class="c0"/>
<circle cx="1184" cy="1116" r="8" class="c0"/>
<circle cx="954" cy="862" r="8" class="c0"/>
<circle cx="996" cy="1098" r="8" class="c0"/>
<circle cx="982" cy="1150" r="8" class="c0"/>
<circle cx="808" cy="822" r="8" class="c0"/>
<circle cx="1402" cy="1180" r="8" class="c0"/>
<circle cx="1298" cy="1002" r="8" class="c0"/>
<circle cx="1100" cy="1142" r="8" class="c0"/>
<circle cx="1416" cy="1194" r="8" class="c0"/>
<circle cx="1000" cy="926" r="8" class="c0"/>
<circle cx="1422" cy="1124" r="8" class="c0"/>
<circle cx="1052" cy="1052" r="8" class="c0"/>
<circle cx="1046" cy="1162" r="8" class="c0"/>
<circle cx="1140" cy="1192" r="8" class="c0"/>
<circle cx="828" cy="920" r="8" class="c0"/>
<circle cx="1192" cy="954" r="8" class="c0"/>
<circle cx="810" cy="728" r="8" class="c0"/>
<circle cx="846" cy="748" r="8" class="c0"/>
<circle cx="1024" cy="1080" r="8" class="c0"/>
<circle cx="1030" cy="1286" r="8" class="c0"/>
<circle cx="1312" cy="1014" r="8" class="c0"/>
<circle cx="806" cy="844" r="8" class="c0"/>
<circle cx="1204" cy="1138" r="8" class="c0"/>
<circle cx="946" cy="1052" r="8" class="c0"/>
<circle cx="782" cy="786" r="8" class="c0"/>
<circle cx="1214" cy="1084" r="8" class="c0"/>
<circle cx="1140" cy="966" r="8" class="c0"/>
<circle cx="1308" cy="1116" r="8" class="c0"/>
<circle cx="1262" cy="1100" r="8" class="c0"/>
<circle cx="1032" cy="1174" r="8" class="c0"/>
<circle cx="1286" cy="1280" r="8" class="c0"/>
<circle cx="1216" cy="1364" r="8" class="c0"/>
<circle cx="1330" cy="1056" r="8" class="c0"/>
<circle cx="1066" cy="1086" r="8" class="c0"/>
<circle cx="1236" cy="1078" r="8" class="c0"/>
<circle cx="1084" cy="1030" r="8" class="c0"/>
<circle cx="800" cy="806" r="8" class="c0"/>
<circle cx="1280" cy="1000" r="8" class="c0"/>
<circle cx="1056" cy="928" r="8" class="c0"/>
<circle cx="1098" cy="1016" r="8" class="c0"/>
<circle cx="1266" cy="1268" r="8" class="c0"/>
<circle cx="810" cy="886" r="8" class="c0"/>
<circle cx="1130" cy="1178" r="8" class="c0"/>
<circle cx="980" cy="868" r="8" class="c0"/>
<circle cx="1268" cy="1126" r="8" class="c0"/>
<circle cx="1360" cy="1188" r="8" class="c0"/>
<circle cx="1082" cy="1168" r="8" class="c0"/>
<circle cx="766" cy="608" r="8" class="c0"/>
<circle cx="1178" cy="1212" r="8" class="c0"/>
<circle cx="996" cy="990" r="8" class="c0"/>
<circle cx="1052" cy="904" r="8" class="c0"/>
<circle cx="890" cy="774" r="8" class="c0"/>
<circle cx="1042" cy="946" r="8" class="c0"/>
<circle cx="1164" cy="1048" r="8" class="c0"/>
<circle cx="1182" cy="984" r="8" class="c0"/>
<circle cx="858" cy="916" r="8" class="c0"/>
<circle cx="738" cy="772" r="8" class="c0"/>
<circle cx="966" cy="844" r="8" class="c0"/>
<circle cx="1114" cy="1164" r="8" class="c0"/>
<circle cx="1290" cy="950" r="8" class="c0"/>
<circle cx="1172" cy="962" r="8" class="c0"/>
<circle cx="1260" cy="1040" r="8" class="c0"/>
<circle cx="1058" cy="1174" r="8" class="c0"/>
<circle cx="1216" cy="1184" r="8" class="c0"/>
<circle cx="1362" cy="980" r="8" class="c0"/>
<circle cx="764" cy="738" r="8" class="c0"/>
<circle cx="934" cy="992" r="8" class="c0"/>
<circle cx="1336" cy="1238" r="8" class="c0"/>
<circle cx="996" cy="1198" r="8" class="c0"/>
<circle cx="1308" cy="1162" r="8" class="c0"/>
<circle cx="752" cy="758" r="8" class="c0"/>
<circle cx="976" cy="1026" r="8" class="c0"/>
<circle cx="822" cy="788" r="8" class="c0"/>
<circle cx="1066" cy="1238" r="8" class="c0"/>
<circle cx="1294" cy="970" r="8" class="c0"/>
<circle cx="786" cy="850" r="8" class="c0"/>
<circle cx="1000" cy="1054" r="8" class="c0"/>
<circle cx="980" cy="1110" r="8" class="c0"/>
<circle cx="1206" cy="1194" r="8" class="c0"/>
<circle cx="928" cy="974" r="8" class="c0"/>
<circle cx="802" cy="638" r="8" class="c0"/>
<circle cx="1258" cy="1064" r="8" class="c0"/>
<circle cx="1056" cy="1118" r="8" class="c0"/>
<circle cx="1284" cy="982" r="8" class="c0"/>
<circle cx="1010" cy="1280" r="8" class="c0"/>
<circle cx="832" cy="646" r="8" class="c0"/>
<circle cx="1022" cy="1058" r="8" class="c0"/>
<circle cx="1146" cy="1096" r="8" class="c0"/>
<circle cx="854" cy="850" r="8" class="c0"/>
<circle cx="848" cy="954" r="8" class="c0"/>
<circle cx="796" cy="614" r="8" class="c0"/>
<circle cx="1330" cy="1136" r="8" class="c0"/>
<circle cx="768" cy="772" r="8" class="c0"/>
<circle cx="1086" cy="940" r="8" class="c0"/>
<circle cx="1310" cy="1276" r="8" class="c0"/>
<circle cx="856" cy="774" r="8" class="c0"/>
<circle cx="1372" cy="1202" r="8" class="c0"/>
<circle cx="1128" cy="930" r="8" class="c0"/>
<circle cx="1264" cy="1156" r="8" class="c0"/>
<circle cx="908" cy="722" r="8" class="c0"/>
<circle cx="1038" cy="770" r="8" class="c0"/>
<circle cx="1460" cy="1196" r="8" class="c0"/>
<circle cx="1074" cy="1068" r="8" class="c0"/>
<circle cx="1122" cy="1218" r="8" class="c0"/>
<circle cx="812" cy="666" r="8" class="c0"/>
<circle cx="1012" cy="978" r="8" class="c0"/>
<circle cx="842" cy="972" r="8" class="c0"/>
<circle cx="960" cy="928" r="8" class="c0"/>
<circle cx="1314" cy="988" r="8" class="c0"/>
<circle cx="1324" cy="1186" r="8" class="c0"/>
<circle cx="1270" cy="966" r="8" class="c0"/>
<circle cx="1158" cy="980" r="8" class="c0"/>
<circle cx="1172" cy="998" r="8" class="c0"/>
<circle cx="952" cy="946" r="8" class="c0"/>
<circle cx="686" cy="652" r="8" class="c0"/>
<circle cx="1382" cy="1186" r="8" class="c0"/>
<circle cx="1310" cy="1072" r="8" class="c0"/>
<circle cx="1136" cy="1028" r="8" class="c0"/>
<circle cx="898" cy="898" r="8" class="c0"/>
<circle cx="832" cy="872" r="8" class="c0"/>
<circle cx="1312" cy="1218" r="8" class="c0"/>
<circle cx="1194" cy="1054" r="8" class="c0"/>
<circle cx="980" cy="740" r="8" class="c0"/>
<circle cx="1282" cy="1260" r="8" class="c0"/>
<circle cx="826" cy="680" r="8" class="c0"/>
<circle cx="826" cy="964" r="8" class="c0"/>
<circle cx="820" cy="856" r="8" class="c0"/>
<circle cx="732" cy="712" r="8" class="c0"/>
<circle cx="940" cy="920" r="8" class="c0"/>
<circle cx="1134" cy="1006" r="8" class="c0"/>
<circle cx="752" cy="718" r="8" class="c0"/>
<circle cx="996" cy="908" r="8" class="c0"/>
<circle cx="776" cy="748" r="8" class="c0"/>
<circle cx="712" cy="680" r="8" class="c0"/>
<circle cx="1204" cy="1310" r="8" class="c0"/>
<circle cx="1094" cy="1260" r="8" class="c0"/>
<circle cx="1072" cy="724" r="8" class="c0"/>
<circle cx="784" cy="670" r="8" class="c0"/>
<circle cx="1318" cy="1150" r="8" class="c0"/>
<circle cx="762" cy="838" r="8" class="c0"/>
<circle cx="1434" cy="1148" r="8" class="c0"/>
<circle cx="986" cy="894" r="8" class="c0"/>
<circle cx="978" cy="768" r="8" class="c0"/>
<circle cx="1118" cy="1076" r="8" class="c0"/>
<circle cx="914" cy="1026" r="8" class="c0"/>
<circle cx="1280" cy="1136" r="8" class="c0"/>
<circle cx="1174" cy="1356" r="8" class="c0"/>
<circle cx="1136" cy="1236" r="8" class="c0"/>
<circle cx="876" cy="826" r="8" class="c0"/>
<circle cx="1354" cy="1146" r="8" class="c0"/>
<circle cx="1304" cy="960" r="8" class="c0"/>
<circle cx="1168" cy="1194" r="8" class="c0"/>
<circle cx="1216" cy="1118" r="8" class="c0"/>
<circle cx="978" cy="1050" r="8" class="c0"/>
<circle cx="814" cy="612" r="8" class="c0"/>
<circle cx="918" cy="790" r="8" class="c0"/>
<circle cx="1328" cy="1310" r="8" class="c0"/>
<circle cx="988" cy="1176" r="8" class="c0"/>
<circle cx="1102" cy="1218" r="8" class="c0"/>
<circle cx="1300" cy="1310" r="8" class="c0"/>
<circle cx="926" cy="718" r="8" class="c0"/>
<circle cx="874" cy="904" r="8" class="c0"/>
<circle cx="1150" cy="996" r="8" class="c0"/>
<circle cx="1066" cy="938" r="8" class="c0"/>
<circle cx="1364" cy="1156" r="8" class="c0"/>
<circle cx="1032" cy="934" r="8" class="c0"/>
<circle cx="1236" cy="1056" r="8" class="c0"/>
<circle cx="1016" cy="1240" r="8" class="c0"/>
<circle cx="998" cy="1080" r="8" class="c0"/>
<circle cx="1242" cy="1004" r="8" class="c0"/>
<circle cx="814" cy="930" r="8" class="c0"/>
<circle cx="1122" cy="1046" r="8" class="c0"/>
<circle cx="1324" cy="976" r="8" class="c0"/>
<circle cx="1114" cy="1112" r="8" class="c0"/>
<circle cx="1352" cy="1048" r="8" class="c0"/>
<circle cx="1052" cy="976" r="8" class="c0"/>
<circle cx="1032" cy="726" r="8" class="c0"/>
<circle cx="956" cy="1066" r="8" class="c0"/>
<circle cx="784" cy="876" r="8" class="c0"/>
<circle cx="734" cy="658" r="8" class="c0"/>
<circle cx="1018" cy="1128" r="8" class="c0"/>
<circle cx="824" cy="806" r="8" class="c0"/>
<circle cx="1334" cy="1002" r="8" class="c0"/>
<circle cx="852" cy="984" r="8" class="c0"/>
<circle cx="1182" cy="934" r="8" class="c0"/>
<circle cx="814" cy="710" r="8" class="c0"/>
<circle cx="698" cy="662" r="8" class="c0"/>
<circle cx="742" cy="728" r="8" class="c0"/>
<circle cx="1012" cy="1006" r="8" class="c0"/>
<circle cx="814" cy="974" r="8" class="c0"/>
<circle cx="1122" cy="1094" r="8" class="c0"/>
<circle cx="1250" cy="1300" r="8" class="c0"/>
<circle cx="1374" cy="1166" r="8" class="c0"/>
<circle cx="1206" cy="1394" r="8" class="c0"/>
<circle cx="918" cy="768" r="8" class="c0"/>
<circle cx="1292" cy="1154" r="8" class="c0"/>
<circle cx="856" cy="834" r="6" class="c0"/>
<circle cx="870" cy="988" r="6" class="c0"/>
<circle cx="1120" cy="1248" r="6" class="c0"/>
<circle cx="828" cy="938" r="6" class="c0"/>
<circle cx="992" cy="940" r="6" class="c0"/>
<circle cx="1144" cy="1140" r="6" class="c0"/>
<circle cx="1162" cy="1146" r="6" class="c0"/>
<circle cx="1386" cy="1224" r="6" class="c0"/>
<circle cx="796" cy="714" r="6" class="c0"/>
<circle cx="1294" cy="1064" r="6" class="c0"/>
<circle cx="986" cy="1014" r="6" class="c0"/>
<circle cx="720" cy="666" r="6" class="c0"/>
<circle cx="1148" cy="1046" r="6" class="c0"/>
<circle cx="876" cy="1006" r="6" class="c0"/>
<circle cx="1176" cy="1060" r="6" class="c0"/>
<circle cx="782" cy="694" r="6" class="c0"/>
<circle cx="706" cy="750" r="6" class="c0"/>
<circle cx="1054" cy="994" r="6" class="c0"/>
<circle cx="944" cy="818" r="6" class="c0"/>
<circle cx="966" cy="1176" r="6" class="c0"/>
<circle cx="1000" cy="1150" r="6" class="c0"/>
<circle cx="964" cy="888" r="6" class="c0"/>
<circle cx="1442" cy="1192" r="6" class="c0"/>
<circle cx="1040" cy="1246" r="6" class="c0"/>
<circle cx="1204" cy="1072" r="6" class="c0"/>
<circle cx="930" cy="930" r="6" class="c0"/>
<circle cx="1132" cy="1126" r="6" class="c0"/>
<circle cx="906" cy="942" r="6" class="c0"/>
<circle cx="892" cy="916" r="6" class="c0"/>
<circle cx="1062" cy="1006" r="6" class="c0"/>
<circle cx="780" cy="600" r="6" class="c0"/>
<circle cx="956" cy="912" r="6" class="c0"/>
<circle cx="1138" cy="982" r="6" class="c0"/>
<circle cx="1290" cy="1042" r="6" class="c0"/>
<circle cx="974" cy="1168" r="6" class="c0"/>
<circle cx="680" cy="694" r="6" class="c0"/>
<circle cx="862" cy="940" r="6" class="c0"/>
<circle cx="1224" cy="970" r="6" class="c0"/>
<circle cx="928" cy="864" r="6" class="c0"/>
<circle cx="754" cy="618" r="6" class="c0"/>
<circle cx="1136" cy="946" r="6" class="c0"/>
<circle cx="1014" cy="1042" r="6" class="c0"/>
<circle cx="1346" cy="970" r="6" class="c0"/>
<circle cx="858" cy="896" r="6" class="c0"/>
<circle cx="1138" cy="1208" r="6" class="c0"/>
<circle cx="816" cy="650" r="6" class="c0"/>
<circle cx="1040" cy="1088" r="6" class="c0"/>
<circle cx="992" cy="962" r="6" class="c0"/>
<circle cx="1072" cy="1270" r="6" class="c0"/>
<circle cx="784" cy="944" r="6" class="c0"/>
<circle cx="1048" cy="1238" r="6" class="c0"/>
<circle cx="1050" cy="1282" r="6" class="c0"/>
<circle cx="994" cy="1006" r="6" class="c0"/>
<circle cx="1084" cy="1078" r="6" class="c0"/>
<circle cx="890" cy="862" r="6" class="c0"/>
<circle cx="864" cy="1000" r="6" class="c0"/>
<circle cx="704" cy="602" r="6" class="c0"/>
<circle cx="792" cy="824" r="6" class="c0"/>
<circle cx="914" cy="966" r="6" class="c0"/>
<circle cx="902" cy="764" r="6" class="c0"/>
<circle cx="1138" cy="1080" r="6" class="c0"/>
<circle cx="1042" cy="914" r="6" class="c0"/>
<circle cx="1324" cy="1038" r="6" class="c0"/>
<circle cx="1090" cy="1154" r="6" class="c0"/>
<circle cx="1052" cy="1144" r="6" class="c0"/>
<circle cx="1234" cy="1018" r="6" class="c0"/>
<circle cx="810" cy="866" r="6" class="c0"/>
<circle cx="1016" cy="732" r="6" class="c0"/>
<circle cx="1468" cy="1092" r="6" class="c0"/>
<circle cx="982" cy="928" r="6" class="c0"/>
<circle cx="1352" cy="1026" r="6" class="c0"/>
<circle cx="1228" cy="984" r="6" class="c0"/>
<circle cx="1060" cy="1152" r="6" class="c0"/>
<circle cx="748" cy="646" r="6" class="c0"/>
<circle cx="882" cy="952" r="6" class="c0"/>
<circle cx="1330" cy="1098" r="6" class="c0"/>
<circle cx="974" cy="1202" r="6" class="c0"/>
<circle cx="754" cy="814" r="6" class="c0"/>
<circle cx="852" cy="728" r="6" class="c0"/>
<circle cx="1012" cy="780" r="6" class="c0"/>
<circle cx="762" cy="638" r="6" class="c0"/>
<circle cx="1068" cy="1160" r="6" class="c0"/>
<circle cx="1192" cy="1160" r="6" class="c0"/>
<circle cx="1054" cy="1226" r="6" class="c0"/>
<circle cx="1346" cy="1012" r="6" class="c0"/>
<circle cx="1144" cy="936" r="6" class="c0"/>
<circle cx="1174" cy="1126" r="6" class="c0"/>
<circle cx="1320" cy="1126" r="6" class="c0"/>
<circle cx="720" cy="784" r="6" class="c0"/>
<circle cx="726" cy="594" r="6" class="c0"/>
<circle cx="1082" cy="1014" r="6" class="c0"/>
<circle cx="1342" cy="1070" r="6" class="c0"/>
<circle cx="944" cy="738" r="6" class="c0"/>
<circle cx="1000" cy="1266" r="6" class="c0"/>
<circle cx="1224" cy="1100" r="6" class="c0"/>
<circle cx="898" cy="1012" r="6" class="c0"/>
<circle cx="1344" cy="1184" r="6" class="c0"/>
<circle cx="850" cy="688" r="6" class="c0"/>
<circle cx="1240" cy="1288" r="6" class="c0"/>
<circle cx="784" cy="734" r="6" class="c0"/>
<circle cx="1422" cy="1212" r="6" class="c0"/>
<circle cx="938" cy="856" r="6" class="c0"/>
<circle cx="978" cy="1134" r="6" class="c0"/>
<circle cx="1194" cy="1126" r="6" class="c0"/>
<circle cx="798" cy="928" r="6" class="c0"/>
<circle cx="1248" cy="1340" r="6" class="c0"/>
<circle cx="1102" cy="1000" r="6" class="c0"/>
<circle cx="694" cy="764" r="6" class="c0"/>
<circle cx="792" cy="960" r="6" class="c0"/>
<circle cx="1068" cy="1108" r="6" class="c0"/>
<circle cx="860" cy="816" r="6" class="c0"/>
<circle cx="1092" cy="1208" r="6" class="c0"/>
<circle cx="1012" cy="1260" r="6" class="c0"/>
<circle cx="1246" cy="948" r="6" class="c0"/>
<circle cx="934" cy="760" r="6" class="c0"/>
<circle cx="918" cy="984" r="6" class="c0"/>
<circle cx="1154" cy="1204" r="6" class="c0"/>
<circle cx="818" cy="834" r="6" class="c0"/>
<circle cx="904" cy="874" r="6" class="c0"/>
<circle cx="998" cy="740" r="6" class="c0"/>
<circle cx="954" cy="986" r="6" class="c0"/>
<circle cx="846" cy="864" r="6" class="c0"/>
<circle cx="1464" cy="1116" r="6" class="c0"/>
<circle cx="1172" cy="1030" r="6" class="c0"/>
<circle cx="1202" cy="942" r="6" class="c0"/>
<circle cx="790" cy="766" r="6" class="c0"/>
<circle cx="1278" cy="1096" r="6" class="c0"/>
<circle cx="1424" cy="1098" r="6" class="c0"/>
<circle cx="950" cy="1000" r="6" class="c0"/>
<circle cx="1230" cy="958" r="6" class="c0"/>
<circle cx="1394" cy="1114" r="6" class="c0"/>
<circle cx="1218" cy="938" r="6" class="c0"/>
<circle cx="864" cy="720" r="6" class="c0"/>
<circle cx="1254" cy="1116" r="6" class="c0"/>
<circle cx="1416" cy="1172" r="6" class="c0"/>
<circle cx="1442" cy="1162" r="6" class="c0"/>
<circle cx="1174" cy="1164" r="6" class="c0"/>
<circle cx="988" cy="1064" r="6" class="c0"/>
<circle cx="1322" cy="1170" r="6" class="c0"/>
<circle cx="1032" cy="1210" r="6" class="c0"/>
<circle cx="1298" cy="1174" r="6" class="c0"/>
<circle cx="962" cy="1196" r="6" class="c0"/>
<circle cx="1288" cy="1122" r="6" class="c0"/>
<circle cx="796" cy="862" r="6" class="c0"/>
<circle cx="1046" cy="754" r="6" class="c0"/>
<circle cx="1208" cy="1008" r="6" class="c0"/>
<circle cx="970" cy="1234" r="6" class="c0"/>
<circle cx="722" cy="702" r="6" class="c0"/>
<circle cx="950" cy="846" r="6" class="c0"/>
<circle cx="696" cy="614" r="6" class="c0"/>
<circle cx="996" cy="778" r="6" class="c0"/>
<circle cx="752" cy="600" r="6" class="c0"/>
<circle cx="1200" cy="1038" r="6" class="c0"/>
<circle cx="1182" cy="1410" r="6" class="c0"/>
<circle cx="956" cy="834" r="6" class="c0"/>
<circle cx="1088" cy="1132" r="6" class="c0"/>
<circle cx="1108" cy="1128" r="6" class="c0"/>
<circle cx="790" cy="892" r="6" class="c0"/>
<circle cx="842" cy="910" r="6" class="c0"/>
<circle cx="1040" cy="1188" r="6" class="c0"/>
<circle cx="1040" cy="1124" r="6" class="c0"/>
<circle cx="1034" cy="1046" r="6" class="c0"/>
<circle cx="818" cy="908" r="6" class="c0"/>
<circle cx="936" cy="730" r="6" class="c0"/>
<circle cx="1012" cy="902" r="6" class="c0"/>
<circle cx="1346" cy="1290" r="6" class="c0"/>
<circle cx="1300" cy="1030" r="6" class="c0"/>
<circle cx="1424" cy="1226" r="6" class="c0"/>
<circle cx="962" cy="1214" r="6" class="c0"/>
<circle cx="928" cy="906" r="6" class="c0"/>
<circle cx="762" cy="706" r="6" class="c0"/>
<circle cx="676" cy="640" r="6" class="c0"/>
<circle cx="1244" cy="1252" r="6" class="c0"/>
<circle cx="962" cy="770" r="6" class="c0"/>
<circle cx="1012" cy="1068" r="6" class="c0"/>
<circle cx="802" cy="656" r="6" class="c0"/>
<circle cx="1014" cy="1090" r="6" class="c0"/>
<circle cx="1036" cy="710" r="6" class="c0"/>
<circle cx="1052" cy="1078" r="6" class="c0"/>
<circle cx="798" cy="790" r="6" class="c0"/>
<circle cx="1194" cy="1206" r="6" class="c0"/>
<circle cx="678" cy="734" r="6" class="c0"/>
<circle cx="1384" cy="1238" r="6" class="c0"/>
<circle cx="892" cy="792" r="6" class="c0"/>
<circle cx="838" cy="630" r="6" class="c0"/>
<circle cx="1076" cy="1116" r="6" class="c0"/>
<circle cx="824" cy="720" r="6" class="c0"/>
<circle cx="1008" cy="1142" r="6" class="c0"/>
<circle cx="1088" cy="1230" r="6" class="c0"/>
<circle cx="1360" cy="1034" r="6" class="c0"/>
<circle cx="886" cy="972" r="6" class="c0"/>
<circle cx="1312" cy="1330" r="6" class="c0"/>
<circle cx="1276" cy="1036" r="6" class="c0"/>
<circle cx="1352" cy="1000" r="6" class="c0"/>
<circle cx="758" cy="782" r="6" class="c0"/>
<circle cx="744" cy="592" r="6" class="c0"/>
<circle cx="1046" cy="1216" r="6" class="c0"/>
<circle cx="1272" cy="1072" r="6" class="c0"/>
<circle cx="922" cy="836" r="6" class="c0"/>
<circle cx="1332" cy="1200" r="6" class="c0"/>
<circle cx="1076" cy="1152" r="6" class="c0"/>
<circle cx="1118" cy="940" r="6" class="c0"/>
<circle cx="878" cy="980" r="6" class="c0"/>
<circle cx="1292" cy="1236" r="6" class="c0"/>
<circle cx="1168" cy="1088" r="6" class="c0"/>
<circle cx="1190" cy="970" r="6" class="c0"/>
<circle cx="1272" cy="1110" r="6" class="c0"/>
<circle cx="1284" cy="1334" r="6" class="c0"/>
<circle cx="1040" cy="1274" r="6" class="c0"/>
<circle cx="1234" cy="1118" r="6" class="c0"/>
<circle cx="1326" cy="1294" r="6" class="c0"/>
<circle cx="840" cy="778" r="6" class="c0"/>
<circle cx="942" cy="936" r="6" class="c0"/>
<circle cx="1272" cy="1236" r="6" class="c0"/>
<circle cx="970" cy="754" r="6" class="c0"/>
<circle cx="858" cy="758" r="6" class="c0"/>
<circle cx="1070" cy="904" r="6" class="c0"/>
<circle cx="1362" cy="1130" r="6" class="c0"/>
<circle cx="1226" cy="1068" r="6" class="c0"/>
<circle cx="1316" cy="1030" r="6" class="c0"/>
<circle cx="1452" cy="1152" r="6" class="c0"/>
<circle cx="1364" cy="1266" r="6" class="c0"/>
<circle cx="868" cy="1016" r="6" class="c0"/>
<circle cx="868" cy="808" r="6" class="c0"/>
<circle cx="970" cy="728" r="6" class="c0"/>
<circle cx="1192" cy="1028" r="6" class="c0"/>
<circle cx="1156" cy="964" r="6" class="c0"/>
<circle cx="1028" cy="1096" r="6" class="c0"/>
<circle cx="1064" cy="1278" r="6" class="c0"/>
<circle cx="1306" cy="1186" r="6" class="c0"/>
<circle cx="1070" cy="1020" r="6" class="c0"/>
<circle cx="1440" cy="1096" r="6" class="c0"/>
<circle cx="978" cy="1244" r="6" class="c0"/>
<circle cx="1318" cy="1234" r="6" class="c0"/>
<circle cx="768" cy="908" r="6" class="c0"/>
<circle cx="1254" cy="934" r="6" class="c0"/>
<circle cx="1334" cy="1176" r="6" class="c0"/>
<circle cx="970" cy="1100" r="6" class="c0"/>
<circle cx="1006" cy="1188" r="6" class="c0"/>
<circle cx="992" cy="1160" r="6" class="c0"/>
<circle cx="1232" cy="1260" r="6" class="c0"/>
<circle cx="1124" cy="970" r="6" class="c0"/>
<circle cx="1348" cy="1258" r="6" class="c0"/>
</svg>
