<?xml version="1.0" encoding="utf-8"?>
<svg xmlns="http://www.w3.org/2000/svg"
     xmlns:xlink="http://www.w3.org/1999/xlink" width="1920" height="1440" >

            <defs>
            <style type="text/css"><![CDATA[
circle {stroke: none;}
.c0 {fill: #000000;}
]]></style>
            </defs>
<rect x="0" y="0" width="1920" height="1440" fill="white"/>
<circle cx="878" cy="768" r="14" class="c0"/>
<circle cx="1214" cy="916" r="14" class="c0"/>
<circle cx="842" cy="560" r="12" class="c0"/>
<circle cx="906" cy="788" r="12" class="c0"/>
<circle cx="1078" cy="884" r="12" class="c0"/>
<circle cx="918" cy="726" r="12" class="c0"/>
<circle cx="1146" cy="1032" r="12" class="c0"/>
<circle cx="1064" cy="1134" r="12" class="c0"/>
<circle cx="998" cy="916" r="12" class="c0"/>
<circle cx="970" cy="1192" r="12" class="c0"/>
<circle cx="704" cy="516" r="12" class="c0"/>
<circle cx="986" cy="1032" r="12" class="c0"/>
<circle cx="1106" cy="1192" r="12" class="c0"/>
<circle cx="864" cy="696" r="12" class="c0"/>
<circle cx="1156" cy="946" r="12" class="c0"/>
<circle cx="1010" cy="1188" r="12" class="c0"/>
<circle cx="1226" cy="1092" r="12" class="c0"/>
<circle cx="990" cy="956" r="12" class="c0"/>
<circle cx="1146" cy="1130" r="12" class="c0"/>
<circle cx="788" cy="796" r="12" class="c0"/>
<circle cx="1210" cy="1018" r="12" class="c0"/>
<circle cx="808" cy="600" r="12" class="c0"/>
<circle cx="742" cy="600" r="12" class="c0"/>
<circle cx="960" cy="1014" r="12" class="c0"/>
<circle cx="1030" cy="1104" r="12" class="c0"/>
<circle cx="870" cy="798" r="12" class="c0"/>
<circle cx="1136" cy="1074" r="12" class="c0"/>
<circle cx="1052" cy="1160" r="12" class="c0"/>
<circle cx="1168" cy="1088" r="12" class="c0"/>
<circle cx="790" cy="854" r="12" class="c0"/>
<circle cx="1004" cy="1156" r="12" class="c0"/>
<circle cx="1242" cy="894" r="12" class="c0"/>
<circle cx="1234" cy="948" r="12" class="c0"/>
<circle cx="818" cy="574" r="12" class="c0"/>
<circle cx="786" cy="722" r="12" class="c0"/>
<circle cx="1154" cy="900" r="12" class="c0"/>
<circle cx="1258" cy="990" r="12" class="c0"/>
<circle cx="780" cy="626" r="12" class="c0"/>
<circle cx="1280" cy="922" r="12" class="c0"/>
<circle cx="744" cy="674" r="12" class="c0"/>
<circle cx="956" cy="914" r="12" class="c0"/>
<circle cx="1106" cy="1044" r="12" class="c0"/>
<circle cx="758" cy="582" r="12" class="c0"/>
<circle cx="1080" cy="1092" r="12" class="c0"/>
<circle cx="696" cy="570" r="12" class="c0"/>
<circle cx="920" cy="1126" r="12" class="c0"/>
<circle cx="990" cy="802" r="12" class="c0"/>
<circle cx="770" cy="814" r="10" class="c0"/>
<circle cx="752" cy="796" r="10" class="c0"/>
<circle cx="1042" cy="1072" r="10" class="c0"/>
<circle cx="708" cy="608" r="10" class="c0"/>
<circle cx="1000" cy="1088" r="10" class="c0"/>
<circle cx="976" cy="876" r="10" class="c0"/>
<circle cx="1044" cy="880" r="10" class="c0"/>
<circle cx="1242" cy="1150" r="10" class="c0"/>
<circle cx="1012" cy="966" r="10" class="c0"/>
<circle cx="1130" cy="1172" r="10" class="c0"/>
<circle cx="848" cy="672" r="10" class="c0"/>
<circle cx="1022" cy="906" r="10" class="c0"/>
<circle cx="1126" cy="900" r="10" class="c0"/>
<circle cx="1110" cy="968" r="10" class="c0"/>
<circle cx="758" cy="690" r="10" class="c0"/>
<circle cx="964" cy="1220" r="10" class="c0"/>
<circle cx="880" cy="672" r="10" class="c0"/>
<circle cx="1126" cy="870" r="10" class="c0"/>
<circle cx="1104" cy="902" r="10" class="c0"/>
<circle cx="948" cy="802" r="10" class="c0"/>
<circle cx="1100" cy="1070" r="10" class="c0"/>
<circle cx="958" cy="848" r="10" class="c0"/>
<circle cx="1084" cy="1156" r="10" class="c0"/>
<circle cx="1338" cy="868" r="10" class="c0"/>
<circle cx="912" cy="842" r="10" class="c0"/>
<circle cx="772" cy="840" r="10" class="c0"/>
<circle cx="1274" cy="1048" r="10" class="c0"/>
<circle cx="780" cy="748" r="10" class="c0"/>
<circle cx="1076" cy="1050" r="10" class="c0"/>
<circle cx="758" cy="774" r="10" class="c0"/>
<circle cx="1144" cy="1154" r="10" class="c0"/>
<circle cx="934" cy="940" r="10" class="c0"/>
<circle cx="932" cy="1164" r="10" class="c0"/>
<circle cx="1168" cy="992" r="10" class="c0"/>
<circle cx="680" cy="598" r="10" class="c0"/>
<circle cx="1082" cy="1024" r="10" class="c0"/>
<circle cx="712" cy="490" r="10" class="c0"/>
<circle cx="1220" cy="1040" r="10" class="c0"/>
<circle cx="824" cy="868" r="10" class="c0"/>
<circle cx="686" cy="534" r="10" class="c0"/>
<circle cx="1094" cy="1010" r="10" class="c0"/>
<circle cx="828" cy="750" r="10" class="c0"/>
<circle cx="950" cy="992" r="10" class="c0"/>
<circle cx="750" cy="554" r="10" class="c0"/>
<circle cx="922" cy="1076" r="10" class="c0"/>
<circle cx="684" cy="626" r="10" class="c0"/>
<circle cx="1202" cy="844" r="10" class="c0"/>
<circle cx="814" cy="728" r="10" class="c0"/>
<circle cx="1124" cy="1294" r="10" class="c0"/>
<circle cx="994" cy="1058" r="10" class="c0"/>
<circle cx="1036" cy="1206" r="10" class="c0"/>
<circle cx="1122" cy="1146" r="10" class="c0"/>
<circle cx="858" cy="726" r="10" class="c0"/>
<circle cx="1198" cy="1150" r="10" class="c0"/>
<circle cx="830" cy="526" r="10" class="c0"/>
<circle cx="1022" cy="772" r="10" class="c0"/>
<circle cx="736" cy="482" r="10" class="c0"/>
<circle cx="1178" cy="1050" r="10" class="c0"/>
<circle cx="1044" cy="920" r="10" class="c0"/>
<circle cx="1082" cy="1194" r="10" class="c0"/>
<circle cx="920" cy="876" r="10" class="c0"/>
<circle cx="784" cy="514" r="10" class="c0"/>
<circle cx="1082" cy="956" r="10" class="c0"/>
<circle cx="804" cy="748" r="10" class="c0"/>
<circle cx="900" cy="890" r="10" class="c0"/>
<circle cx="718" cy="554" r="10" class="c0"/>
<circle cx="904" cy="746" r="10" class="c0"/>
<circle cx="966" cy="1154" r="10" class="c0"/>
<circle cx="1018" cy="1022" r="10" class="c0"/>
<circle cx="1188" cy="1008" r="10" class="c0"/>
<circle cx="892" cy="850" r="10" class="c0"/>
<circle cx="1054" cy="858" r="10" class="c0"/>
<circle cx="1014" cy="1122" r="10" class="c0"/>
<circle cx="922" cy="1026" r="10" class="c0"/>
<circle cx="956" cy="1096" r="10" class="c0"/>
<circle cx="868" cy="654" r="10" class="c0"/>
<circle cx="1190" cy="902" r="10" class="c0"/>
<circle cx="1218" cy="884" r="10" class="c0"/>
<circle cx="1082" cy="998" r="10" class="c0"/>
<circle cx="1274" cy="850" r="10" class="c0"/>
<circle cx="928" cy="1052" r="10" class="c0"/>
<circle cx="1182" cy="972" r="10" class="c0"/>
<circle cx="1286" cy="956" r="10" class="c0"/>
<circle cx="732" cy="626" r="10" class="c0"/>
<circle cx="1270" cy="892" r="10" class="c0"/>
<circle cx="1028" cy="984" r="10" class="c0"/>
<circle cx="790" cy="568" r="10" class="c0"/>
<circle cx="1182" cy="860" r="10" class="c0"/>
<circle cx="812" cy="694" r="10" class="c0"/>
<circle cx="1150" cy="876" r="10" class="c0"/>
<circle cx="1310" cy="852" r="10" class="c0"/>
<circle cx="1198" cy="1076" r="10" class="c0"/>
<circle cx="990" cy="1004" r="10" class="c0"/>
<circle cx="1306" cy="946" r="10" class="c0"/>
<circle cx="1004" cy="880" r="10" class="c0"/>
<circle cx="1282" cy="1022" r="10" class="c0"/>
<circle cx="958" cy="748" r="10" class="c0"/>
<circle cx="1104" cy="992" r="10" class="c0"/>
<circle cx="1066" cy="1208" r="10" class="c0"/>
<circle cx="784" cy="668" r="10" class="c0"/>
<circle cx="1052" cy="966" r="10" class="c0"/>
<circle cx="926" cy="752" r="10" class="c0"/>
<circle cx="864" cy="828" r="10" class="c0"/>
<circle cx="1318" cy="1296" r="10" class="c0"/>
<circle cx="1294" cy="870" r="10" class="c0"/>
<circle cx="1138" cy="1278" r="10" class="c0"/>
<circle cx="1308" cy="1234" r="8" class="c0"/>
<circle cx="890" cy="872" r="8" class="c0"/>
<circle cx="750" cy="736" r="8" class="c0"/>
<circle cx="812" cy="800" r="8" class="c0"/>
<circle cx="734" cy="568" r="8" class="c0"/>
<circle cx="1272" cy="968" r="8" class="c0"/>
<circle cx="1118" cy="1114" r="8" class="c0"/>
<circle cx="760" cy="520" r="8" class="c0"/>
<circle cx="984" cy="842" r="8" class="c0"/>
<circle cx="1224" cy="1158" r="8" class="c0"/>
<circle cx="784" cy="486" r="8" class="c0"/>
<circle cx="1090" cy="1122" r="8" class="c0"/>
<circle cx="1032" cy="956" r="8" class="c0"/>
<circle cx="800" cy="770" r="8" class="c0"/>
<circle cx="1214" cy="1136" r="8" class="c0"/>
<circle cx="1216" cy="1110" r="8" class="c0"/>
<circle cx="1034" cy="862" r="8" class="c0"/>
<circle cx="1126" cy="1264" r="8" class="c0"/>
<circle cx="1068" cy="1182" r="8" class="c0"/>
<circle cx="1084" cy="976" r="8" class="c0"/>
<circle cx="760" cy="660" r="8" class="c0"/>
<circle cx="1176" cy="930" r="8" class="c0"/>
<circle cx="1060" cy="1232" r="8" class="c0"/>
<circle cx="1162" cy="850" r="8" class="c0"/>
<circle cx="814" cy="544" r="8" class="c0"/>
<circle cx="946" cy="1146" r="8" class="c0"/>
<circle cx="782" cy="534" r="8" class="c0"/>
<circle cx="734" cy="766" r="8" class="c0"/>
<circle cx="1126" cy="1018" r="8" class="c0"/>
<circle cx="1124" cy="982" r="8" class="c0"/>
<circle cx="1026" cy="832" r="8" class="c0"/>
<circle cx="1256" cy="1062" r="8" class="c0"/>
<circle cx="1216" cy="1062" r="8" class="c0"/>
<circle cx="890" cy="908" r="8" class="c0"/>
<circle cx="1068" cy="928" r="8" class="c0"/>
<circle cx="1134" cy="966" r="8" class="c0"/>
<circle cx="910" cy="1060" r="8" class="c0"/>
<circle cx="898" cy="814" r="8" class="c0"/>
<circle cx="992" cy="768" r="8" class="c0"/>
<circle cx="1046" cy="1184" r="8" class="c0"/>
<circle cx="1106" cy="1282" r="8" class="c0"/>
<circle cx="962" cy="1040" r="8" class="c0"/>
<circle cx="1246" cy="854" r="8" class="c0"/>
<circle cx="802" cy="832" r="8" class="c0"/>
<circle cx="928" cy="1200" r="8" class="c0"/>
<circle cx="784" cy="698" r="8" class="c0"/>
<circle cx="840" cy="814" r="8" class="c0"/>
<circle cx="856" cy="752" r="8" class="c0"/>
<circle cx="1180" cy="1026" r="8" class="c0"/>
<circle cx="1038" cy="1030" r="8" class="c0"/>
<circle cx="1346" cy="886" r="8" class="c0"/>
<circle cx="1232" cy="866" r="8" class="c0"/>
<circle cx="1352" cy="856" r="8" class="c0"/>
<circle cx="844" cy="856" r="8" class="c0"/>
<circle cx="998" cy="1206" r="8" class="c0"/>
<circle cx="908" cy="974" r="8" class="c0"/>
<circle cx="918" cy="914" r="8" class="c0"/>
<circle cx="942" cy="1108" r="8" class="c0"/>
<circle cx="1090" cy="1262" r="8" class="c0"/>
<circle cx="1328" cy="966" r="8" class="c0"/>
<circle cx="842" cy="780" r="8" class="c0"/>
<circle cx="838" cy="838" r="8" class="c0"/>
<circle cx="914" cy="678" r="8" class="c0"/>
<circle cx="920" cy="1002" r="8" class="c0"/>
<circle cx="728" cy="502" r="8" class="c0"/>
<circle cx="1212" cy="1250" r="8" class="c0"/>
<circle cx="684" cy="502" r="8" class="c0"/>
<circle cx="1198" cy="934" r="8" class="c0"/>
<circle cx="1124" cy="926" r="8" class="c0"/>
<circle cx="1252" cy="1284" r="8" class="c0"/>
<circle cx="1028" cy="1162" r="8" class="c0"/>
<circle cx="1350" cy="1178" r="8" class="c0"/>
<circle cx="1050" cy="1218" r="8" class="c0"/>
<circle cx="1250" cy="1168" r="8" class="c0"/>
<circle cx="982" cy="1096" r="8" class="c0"/>
<circle cx="1188" cy="1134" r="8" class="c0"/>
<circle cx="872" cy="856" r="8" class="c0"/>
<circle cx="1242" cy="1032" r="8" class="c0"/>
<circle cx="1158" cy="1314" r="8" class="c0"/>
<circle cx="966" cy="972" r="8" class="c0"/>
<circle cx="1198" cy="1278" r="8" class="c0"/>
<circle cx="738" cy="784" r="8" class="c0"/>
<circle cx="1130" cy="1044" r="8" class="c0"/>
<circle cx="1202" cy="1120" r="8" class="c0"/>
<circle cx="964" cy="814" r="8" class="c0"/>
<circle cx="1412" cy="1220" r="8" class="c0"/>
<circle cx="834" cy="688" r="8" class="c0"/>
<circle cx="952" cy="1208" r="8" class="c0"/>
<circle cx="942" cy="772" r="8" class="c0"/>
<circle cx="1282" cy="986" r="8" class="c0"/>
<circle cx="1398" cy="1150" r="8" class="c0"/>
<circle cx="1062" cy="984" r="8" class="c0"/>
<circle cx="1254" cy="956" r="8" class="c0"/>
<circle cx="1306" cy="1272" r="8" class="c0"/>
<circle cx="1242" cy="1076" r="8" class="c0"/>
<circle cx="722" cy="588" r="8" class="c0"/>
<circle cx="1194" cy="958" r="8" class="c0"/>
<circle cx="964" cy="1070" r="8" class="c0"/>
<circle cx="752" cy="842" r="8" class="c0"/>
<circle cx="800" cy="642" r="8" class="c0"/>
<circle cx="776" cy="868" r="8" class="c0"/>
<circle cx="1294" cy="906" r="8" class="c0"/>
<circle cx="976" cy="984" r="8" class="c0"/>
<circle cx="1302" cy="966" r="8" class="c0"/>
<circle cx="704" cy="634" r="8" class="c0"/>
<circle cx="1100" cy="1240" r="8" class="c0"/>
<circle cx="964" cy="1114" r="8" class="c0"/>
<circle cx="1052" cy="1018" r="8" class="c0"/>
<circle cx="1176" cy="1316" r="8" class="c0"/>
<circle cx="812" cy="500" r="8" class="c0"/>
<circle cx="996" cy="858" r="8" class="c0"/>
<circle cx="892" cy="688" r="8" class="c0"/>
<circle cx="964" cy="790" r="8" class="c0"/>
<circle cx="936" cy="818" r="8" class="c0"/>
<circle cx="1012" cy="1228" r="8" class="c0"/>
<circle cx="1022" cy="1056" r="8" class="c0"/>
<circle cx="884" cy="704" r="8" class="c0"/>
<circle cx="790" cy="820" r="8" class="c0"/>
<circle cx="1052" cy="1100" r="8" class="c0"/>
<circle cx="1230" cy="840" r="8" class="c0"/>
<circle cx="1164" cy="1142" r="8" class="c0"/>
<circle cx="936" cy="838" r="8" class="c0"/>
<circle cx="1184" cy="1104" r="8" class="c0"/>
<circle cx="826" cy="826" r="8" class="c0"/>
<circle cx="1040" cy="790" r="8" class="c0"/>
<circle cx="918" cy="770" r="8" class="c0"/>
<circle cx="1234" cy="1130" r="8" class="c0"/>
<circle cx="936" cy="736" r="8" class="c0"/>
<circle cx="1062" cy="900" r="8" class="c0"/>
<circle cx="996" cy="1130" r="8" class="c0"/>
<circle cx="908" cy="928" r="8" class="c0"/>
<circle cx="826" cy="632" r="8" class="c0"/>
<circle cx="1208" cy="970" r="8" class="c0"/>
<circle cx="1100" cy="940" r="8" class="c0"/>
<circle cx="724" cy="532" r="8" class="c0"/>
<circle cx="944" cy="864" r="8" class="c0"/>
<circle cx="1036" cy="1132" r="8" class="c0"/>
<circle cx="1260" cy="872" r="8" class="c0"/>
<circle cx="1282" cy="1236" r="8" class="c0"/>
<circle cx="752" cy="638" r="8" class="c0"/>
<circle cx="954" cy="888" r="8" class="c0"/>
<circle cx="1244" cy="922" r="8" class="c0"/>
<circle cx="1024" cy="936" r="8" class="c0"/>
<circle cx="962" cy="936" r="8" class="c0"/>
<circle cx="734" cy="646" r="8" class="c0"/>
<circle cx="1000" cy="828" r="8" class="c0"/>
<circle cx="1116" cy="1348" r="8" class="c0"/>
<circle cx="928" cy="856" r="8" class="c0"/>
<circle cx="830" cy="706" r="8" class="c0"/>
<circle cx="1052" cy="1040" r="8" class="c0"/>
<circle cx="1316" cy="978" r="8" class="c0"/>
<circle cx="946" cy="964" r="8" class="c0"/>
<circle cx="780" cy="602" r="8" class="c0"/>
<circle cx="820" cy="674" r="8" class="c0"/>
<circle cx="674" cy="576" r="8" class="c0"/>
<circle cx="1006" cy="758" r="8" class="c0"/>
<circle cx="824" cy="654" r="8" class="c0"/>
<circle cx="958" cy="1176" r="8" class="c0"/>
<circle cx="770" cy="556" r="8" class="c0"/>
<circle cx="1232" cy="1310" r="8" class="c0"/>
<circle cx="1332" cy="902" r="8" class="c0"/>
<circle cx="1204" cy="864" r="8" class="c0"/>
<circle cx="928" cy="1220" r="8" class="c0"/>
<circle cx="1160" cy="1272" r="8" class="c0"/>
<circle cx="938" cy="1186" r="8" class="c0"/>
<circle cx="1264" cy="942" r="8" class="c0"/>
<circle cx="1148" cy="1294" r="8" class="c0"/>
<circle cx="842" cy="880" r="8" class="c0"/>
<circle cx="1142" cy="990" r="8" class="c0"/>
<circle cx="1112" cy="1254" r="8" class="c0"/>
<circle cx="1332" cy="926" r="8" class="c0"/>
<circle cx="912" cy="1152" r="8" class="c0"/>
<circle cx="812" cy="848" r="8" class="c0"/>
<circle cx="1100" cy="862" r="8" class="c0"/>
<circle cx="728" cy="692" r="8" class="c0"/>
<circle cx="842" cy="652" r="8" class="c0"/>
<circle cx="1180" cy="948" r="8" class="c0"/>
<circle cx="1358" cy="1206" r="8" class="c0"/>
<circle cx="1232" cy="976" r="8" class="c0"/>
<circle cx="1362" cy="1158" r="8" class="c0"/>
<circle cx="1224" cy="1004" r="8" class="c0"/>
<circle cx="730" cy="728" r="8" class="c0"/>
<circle cx="1212" cy="946" r="8" class="c0"/>
<circle cx="1390" cy="1214" r="8" class="c0"/>
<circle cx="822" cy="780" r="8" class="c0"/>
<circle cx="738" cy="746" r="8" class="c0"/>
<circle cx="1196" cy="1302" r="8" class="c0"/>
<circle cx="898" cy="1080" r="8" class="c0"/>
<circle cx="786" cy="880" r="8" class="c0"/>
<circle cx="1314" cy="1000" r="8" class="c0"/>
<circle cx="1308" cy="882" r="8" class="c0"/>
<circle cx="888" cy="732" r="8" class="c0"/>
<circle cx="1032" cy="1010" r="8" class="c0"/>
<circle cx="810" cy="664" r="8" class="c0"/>
<circle cx="760" cy="618" r="8" class="c0"/>
<circle cx="750" cy="714" r="8" class="c0"/>
<circle cx="678" cy="554" r="8" class="c0"/>
<circle cx="956" cy="1132" r="8" class="c0"/>
<circle cx="890" cy="934" r="8" class="c0"/>
<circle cx="1250" cy="1304" r="8" class="c0"/>
<circle cx="900" cy="666" r="8" class="c0"/>
<circle cx="760" cy="754" r="8" class="c0"/>
<circle cx="926" cy="800" r="8" class="c0"/>
<circle cx="1242" cy="1002" r="8" class="c0"/>
<circle cx="1172" cy="878" r="8" class="c0"/>
<circle cx="1330" cy="1260" r="8" class="c0"/>
<circle cx="1038" cy="812" r="8" class="c0"/>
<circle cx="1172" cy="1122" r="8" class="c0"/>
<circle cx="1486" cy="1126" r="8" class="c0"/>
<circle cx="1320" cy="1196" r="8" class="c0"/>
<circle cx="1070" cy="1012" r="8" class="c0"/>
<circle cx="1122" cy="1096" r="8" class="c0"/>
<circle cx="988" cy="1174" r="8" class="c0"/>
<circle cx="1476" cy="1148" r="8" class="c0"/>
<circle cx="852" cy="642" r="8" class="c0"/>
<circle cx="896" cy="1112" r="8" class="c0"/>
<circle cx="1124" cy="950" r="8" class="c0"/>
<circle cx="1022" cy="1080" r="8" class="c0"/>
<circle cx="842" cy="592" r="8" class="c0"/>
<circle cx="802" cy="556" r="8" class="c0"/>
<circle cx="1252" cy="1022" r="8" class="c0"/>
<circle cx="1078" cy="914" r="8" class="c0"/>
<circle cx="918" cy="820" r="8" class="c0"/>
<circle cx="766" cy="496" r="8" class="c0"/>
<circle cx="1100" cy="1146" r="8" class="c0"/>
<circle cx="900" cy="712" r="8" class="c0"/>
<circle cx="886" cy="830" r="8" class="c0"/>
<circle cx="768" cy="706" r="8" class="c0"/>
<circle cx="1310" cy="918" r="8" class="c0"/>
<circle cx="796" cy="684" r="8" class="c0"/>
<circle cx="928" cy="980" r="8" class="c0"/>
<circle cx="1240" cy="1052" r="8" class="c0"/>
<circle cx="912" cy="954" r="8" class="c0"/>
<circle cx="1074" cy="1252" r="8" class="c0"/>
<circle cx="1332" cy="1170" r="8" class="c0"/>
<circle cx="1156" cy="1056" r="8" class="c0"/>
<circle cx="1162" cy="968" r="8" class="c0"/>
<circle cx="856" cy="846" r="8" class="c0"/>
<circle cx="944" cy="1038" r="8" class="c0"/>
<circle cx="934" cy="894" r="8" class="c0"/>
<circle cx="918" cy="1100" r="8" class="c0"/>
<circle cx="822" cy="888" r="8" class="c0"/>
<circle cx="756" cy="484" r="8" class="c0"/>
<circle cx="1222" cy="986" r="8" class="c0"/>
<circle cx="742" cy="536" r="8" class="c0"/>
<circle cx="882" cy="636" r="8" class="c0"/>
<circle cx="746" cy="498" r="8" class="c0"/>
<circle cx="1006" cy="1042" r="8" class="c0"/>
<circle cx="1206" cy="996" r="8" class="c0"/>
<circle cx="1280" cy="1262" r="8" class="c0"/>
<circle cx="1300" cy="1012" r="8" class="c0"/>
<circle cx="802" cy="488" r="8" class="c0"/>
<circle cx="798" cy="894" r="8" class="c0"/>
<circle cx="1192" cy="882" r="8" class="c0"/>
<circle cx="816" cy="622" r="8" class="c0"/>
<circle cx="1024" cy="882" r="8" class="c0"/>
<circle cx="1238" cy="1274" r="8" class="c0"/>
<circle cx="1502" cy="1110" r="8" class="c0"/>
<circle cx="840" cy="622" r="8" class="c0"/>
<circle cx="1112" cy="884" r="8" class="c0"/>
<circle cx="1092" cy="1174" r="8" class="c0"/>
<circle cx="1144" cy="924" r="8" class="c0"/>
<circle cx="1292" cy="976" r="8" class="c0"/>
<circle cx="1006" cy="848" r="8" class="c0"/>
<circle cx="1110" cy="1168" r="8" class="c0"/>
<circle cx="1164" cy="920" r="8" class="c0"/>
<circle cx="1084" cy="1216" r="8" class="c0"/>
<circle cx="1014" cy="864" r="8" class="c0"/>
<circle cx="1156" cy="1104" r="8" class="c0"/>
<circle cx="976" cy="1136" r="8" class="c0"/>
<circle cx="990" cy="1230" r="8" class="c0"/>
<circle cx="726" cy="662" r="8" class="c0"/>
<circle cx="1166" cy="1014" r="8" class="c0"/>
<circle cx="1048" cy="1122" r="8" class="c0"/>
<circle cx="706" cy="542" r="8" class="c0"/>
<circle cx="1008" cy="990" r="8" class="c0"/>
<circle cx="980" cy="934" r="8" class="c0"/>
<circle cx="1046" cy="946" r="8" class="c0"/>
<circle cx="840" cy="716" r="8" class="c0"/>
<circle cx="1152" cy="980" r="8" class="c0"/>
<circle cx="970" cy="764" r="8" class="c0"/>
<circle cx="828" cy="612" r="8" class="c0"/>
<circle cx="878" cy="888" r="8" class="c0"/>
<circle cx="1240" cy="1242" r="8" class="c0"/>
<circle cx="946" cy="1074" r="8" class="c0"/>
<circle cx="1178" cy="1270" r="8" class="c0"/>
<circle cx="1318" cy="870" r="8" class="c0"/>
<circle cx="1326" cy="1236" r="8" class="c0"/>
<circle cx="980" cy="752" r="8" class="c0"/>
<circle cx="1338" cy="954" r="8" class="c0"/>
<circle cx="1164" cy="1346" r="8" class="c0"/>
<circle cx="804" cy="534" r="8" class="c0"/>
<circle cx="758" cy="860" r="8" class="c0"/>
<circle cx="1450" cy="1136" r="8" class="c0"/>
<circle cx="780" cy="776" r="8" class="c0"/>
<circle cx="920" cy="704" r="8" class="c0"/>
<circle cx="906" cy="864" r="8" class="c0"/>
<circle cx="1318" cy="892" r="8" class="c0"/>
<circle cx="1342" cy="1244" r="8" class="c0"/>
<circle cx="674" cy="514" r="8" class="c0"/>
<circle cx="760" cy="726" r="8" class="c0"/>
<circle cx="808" cy="878" r="8" class="c0"/>
<circle cx="918" cy="1176" r="8" class="c0"/>
<circle cx="1380" cy="1160" r="8" class="c0"/>
<circle cx="1296" cy="1284" r="8" class="c0"/>
<circle cx="1098" cy="1102" r="8" class="c0"/>
<circle cx="1048" cy="998" r="8" class="c0"/>
<circle cx="988" cy="892" r="8" class="c0"/>
<circle cx="986" cy="1146" r="8" class="c0"/>
<circle cx="1136" cy="1310" r="8" class="c0"/>
<circle cx="1252" cy="1262" r="8" class="c0"/>
<circle cx="1290" cy="1198" r="8" class="c0"/>
<circle cx="1240" cy="1178" r="6" class="c0"/>
<circle cx="766" cy="536" r="6" class="c0"/>
<circle cx="1108" cy="1022" r="6" class="c0"/>
<circle cx="1146" cy="856" r="6" class="c0"/>
<circle cx="862" cy="874" r="6" class="c0"/>
<circle cx="1144" cy="1094" r="6" class="c0"/>
<circle cx="898" cy="1142" r="6" class="c0"/>
<circle cx="956" cy="1056" r="6" class="c0"/>
<circle cx="834" cy="796" r="6" class="c0"/>
<circle cx="1202" cy="1102" r="6" class="c0"/>
<circle cx="1196" cy="1056" r="6" class="c0"/>
<circle cx="958" cy="954" r="6" class="c0"/>
<circle cx="750" cy="820" r="6" class="c0"/>
<circle cx="992" cy="986" r="6" class="c0"/>
<circle cx="872" cy="736" r="6" class="c0"/>
<circle cx="1326" cy="942" r="6" class="c0"/>
<circle cx="930" cy="1142" r="6" class="c0"/>
<circle cx="854" cy="578" r="6" class="c0"/>
<circle cx="936" cy="788" r="6" class="c0"/>
<circle cx="976" cy="1080" r="6" class="c0"/>
<circle cx="866" cy="632" r="6" class="c0"/>
<circle cx="932" cy="1012" r="6" class="c0"/>
<circle cx="1120" cy="1056" r="6" class="c0"/>
<circle cx="768" cy="640" r="6" class="c0"/>
<circle cx="1064" cy="952" r="6" class="c0"/>
<circle cx="1046" cy="902" r="6" class="c0"/>
<circle cx="890" cy="654" r="6" class="c0"/>
<circle cx="1040" cy="846" r="6" class="c0"/>
<circle cx="1114" cy="1080" r="6" class="c0"/>
<circle cx="1266" cy="1030" r="6" class="c0"/>
<circle cx="874" cy="718" r="6" class="c0"/>
<circle cx="1098" cy="922" r="6" class="c0"/>
<circle cx="1022" cy="1216" r="6" class="c0"/>
<circle cx="1220" cy="854" r="6" class="c0"/>
<circle cx="1458" cy="1114" r="6" class="c0"/>
<circle cx="1116" cy="1006" r="6" class="c0"/>
<circle cx="1138" cy="1112" r="6" class="c0"/>
<circle cx="1134" cy="936" r="6" class="c0"/>
<circle cx="988" cy="1114" r="6" class="c0"/>
<circle cx="968" cy="900" r="6" class="c0"/>
<circle cx="896" cy="960" r="6" class="c0"/>
<circle cx="958" cy="872" r="6" class="c0"/>
<circle cx="1002" cy="940" r="6" class="c0"/>
<circle cx="716" cy="652" r="6" class="c0"/>
<circle cx="814" cy="516" r="6" class="c0"/>
<circle cx="904" cy="642" r="6" class="c0"/>
<circle cx="1290" cy="938" r="6" class="c0"/>
<circle cx="1038" cy="1052" r="6" class="c0"/>
<circle cx="1408" cy="1132" r="6" class="c0"/>
<circle cx="1060" cy="1074" r="6" class="c0"/>
<circle cx="1290" cy="842" r="6" class="c0"/>
<circle cx="1136" cy="1008" r="6" class="c0"/>
<circle cx="1050" cy="802" r="6" class="c0"/>
<circle cx="846" cy="764" r="6" class="c0"/>
<circle cx="842" cy="736" r="6" class="c0"/>
<circle cx="848" cy="798" r="6" class="c0"/>
<circle cx="786" cy="550" r="6" class="c0"/>
<circle cx="1082" cy="936" r="6" class="c0"/>
<circle cx="1164" cy="1040" r="6" class="c0"/>
<circle cx="1296" cy="996" r="6" class="c0"/>
<circle cx="972" cy="1052" r="6" class="c0"/>
<circle cx="910" cy="694" r="6" class="c0"/>
<circle cx="1024" cy="850" r="6" class="c0"/>
<circle cx="910" cy="990" r="6" class="c0"/>
<circle cx="1242" cy="966" r="6" class="c0"/>
<circle cx="742" cy="514" r="6" class="c0"/>
<circle cx="1054" cy="1056" r="6" class="c0"/>
<circle cx="1330" cy="852" r="6" class="c0"/>
<circle cx="1526" cy="1108" r="6" class="c0"/>
<circle cx="728" cy="710" r="6" class="c0"/>
<circle cx="1018" cy="1144" r="6" class="c0"/>
<circle cx="1064" cy="1030" r="6" class="c0"/>
<circle cx="806" cy="712" r="6" class="c0"/>
<circle cx="974" cy="830" r="6" class="c0"/>
<circle cx="1230" cy="1022" r="6" class="c0"/>
<circle cx="1196" cy="982" r="6" class="c0"/>
<circle cx="1032" cy="1224" r="6" class="c0"/>
<circle cx="1278" cy="1002" r="6" class="c0"/>
<circle cx="1074" cy="864" r="6" class="c0"/>
<circle cx="936" cy="916" r="6" class="c0"/>
<circle cx="1152" cy="1172" r="6" class="c0"/>
<circle cx="774" cy="682" r="6" class="c0"/>
<circle cx="1076" cy="1114" r="6" class="c0"/>
<circle cx="1078" cy="1232" r="6" class="c0"/>
<circle cx="928" cy="960" r="6" class="c0"/>
<circle cx="704" cy="588" r="6" class="c0"/>
<circle cx="928" cy="780" r="6" class="c0"/>
<circle cx="1018" cy="1000" r="6" class="c0"/>
<circle cx="792" cy="590" r="6" class="c0"/>
<circle cx="1260" cy="914" r="6" class="c0"/>
<circle cx="1166" cy="1068" r="6" class="c0"/>
<circle cx="666" cy="536" r="6" class="c0"/>
<circle cx="1008" cy="1068" r="6" class="c0"/>
<circle cx="832" cy="770" r="6" class="c0"/>
<circle cx="1214" cy="1280" r="6" class="c0"/>
<circle cx="1254" cy="1044" r="6" class="c0"/>
<circle cx="906" cy="1010" r="6" class="c0"/>
<circle cx="940" cy="1124" r="6" class="c0"/>
<circle cx="950" cy="828" r="6" class="c0"/>
<circle cx="1254" cy="838" r="6" class="c0"/>
<circle cx="972" cy="1000" r="6" class="c0"/>
<circle cx="1254" cy="932" r="6" class="c0"/>
<circle cx="802" cy="510" r="6" class="c0"/>
<circle cx="1078" cy="1072" r="6" class="c0"/>
<circle cx="1534" cy="1082" r="6" class="c0"/>
<circle cx="1214" cy="1170" r="6" class="c0"/>
<circle cx="816" cy="764" r="6" class="c0"/>
<circle cx="1002" cy="1108" r="6" class="c0"/>
<circle cx="860" cy="780" r="6" class="c0"/>
<circle cx="1014" cy="820" r="6" class="c0"/>
<circle cx="1320" cy="1314" r="6" class="c0"/>
<circle cx="1186" cy="920" r="6" class="c0"/>
<circle cx="978" cy="912" r="6" class="c0"/>
<circle cx="1196" cy="1036" r="6" class="c0"/>
<circle cx="692" cy="646" r="6" class="c0"/>
<circle cx="770" cy="884" r="6" class="c0"/>
<circle cx="938" cy="1092" r="6" class="c0"/>
<circle cx="738" cy="702" r="6" class="c0"/>
<circle cx="778" cy="580" r="6" class="c0"/>
<circle cx="854" cy="866" r="6" class="c0"/>
<circle cx="742" cy="812" r="6" class="c0"/>
<circle cx="894" cy="1096" r="6" class="c0"/>
<circle cx="852" cy="890" r="6" class="c0"/>
<circle cx="774" cy="652" r="6" class="c0"/>
<circle cx="1110" cy="1130" r="6" class="c0"/>
<circle cx="940" cy="1020" r="6" class="c0"/>
<circle cx="1150" cy="1006" r="6" class="c0"/>
<circle cx="882" cy="812" r="6" class="c0"/>
<circle cx="804" cy="786" r="6" class="c0"/>
<circle cx="902" cy="766" r="6" class="c0"/>
<circle cx="734" cy="522" r="6" class="c0"/>
<circle cx="1178" cy="842" r="6" class="c0"/>
<circle cx="1456" cy="1172" r="6" class="c0"/>
<circle cx="1266" cy="1012" r="6" class="c0"/>
<circle cx="982" cy="1216" r="6" class="c0"/>
<circle cx="1106" cy="1088" r="6" class="c0"/>
<circle cx="720" cy="638" r="6" class="c0"/>
<circle cx="808" cy="816" r="6" class="c0"/>
<circle cx="1128" cy="1190" r="6" class="c0"/>
<circle cx="1140" cy="1054" r="6" class="c0"/>
<circle cx="1030" cy="1178" r="6" class="c0"/>
<circle cx="974" cy="858" r="6" class="c0"/>
<circle cx="980" cy="778" r="6" class="c0"/>
<circle cx="902" cy="944" r="6" class="c0"/>
<circle cx="720" cy="474" r="6" class="c0"/>
<circle cx="846" cy="534" r="6" class="c0"/>
<circle cx="760" cy="828" r="6" class="c0"/>
<circle cx="1014" cy="946" r="6" class="c0"/>
<circle cx="770" cy="788" r="6" class="c0"/>
<circle cx="960" cy="774" r="6" class="c0"/>
<circle cx="914" cy="1042" r="6" class="c0"/>
<circle cx="1292" cy="890" r="6" class="c0"/>
<circle cx="672" cy="614" r="6" class="c0"/>
<circle cx="860" cy="590" r="6" class="c0"/>
<circle cx="800" cy="582" r="6" class="c0"/>
<circle cx="1318" cy="934" r="6" class="c0"/>
<circle cx="1182" cy="1068" r="6" class="c0"/>
<circle cx="694" cy="486" r="6" class="c0"/>
<circle cx="1128" cy="998" r="6" class="c0"/>
<circle cx="856" cy="624" r="6" class="c0"/>
<circle cx="944" cy="1226" r="6" class="c0"/>
<circle cx="798" cy="618" r="6" class="c0"/>
<circle cx="824" cy="810" r="6" class="c0"/>
<circle cx="1342" cy="914" r="6" class="c0"/>
<circle cx="1356" cy="872" r="6" class="c0"/>
<circle cx="1070" cy="968" r="6" class="c0"/>
<circle cx="1204" cy="1048" r="6" class="c0"/>
<circle cx="1328" cy="882" r="6" class="c0"/>
<circle cx="972" cy="948" r="6" class="c0"/>
<circle cx="1298" cy="930" r="6" class="c0"/>
<circle cx="1062" cy="874" r="6" class="c0"/>
<circle cx="830" cy="546" r="6" class="c0"/>
<circle cx="1296" cy="1252" r="6" class="c0"/>
<circle cx="1260" cy="1316" r="6" class="c0"/>
<circle cx="1026" cy="1040" r="6" class="c0"/>
<circle cx="1086" cy="1138" r="6" class="c0"/>
<circle cx="856" cy="812" r="6" class="c0"/>
<circle cx="892" cy="1128" r="6" class="c0"/>
<circle cx="1126" cy="1128" r="6" class="c0"/>
<circle cx="1316" cy="1252" r="6" class="c0"/>
<circle cx="1142" cy="1184" r="6" class="c0"/>
<circle cx="1034" cy="894" r="6" class="c0"/>
<circle cx="1138" cy="888" r="6" class="c0"/>
<circle cx="1068" cy="1106" r="6" class="c0"/>
<circle cx="1430" cy="1170" r="6" class="c0"/>
<circle cx="1164" cy="1292" r="6" class="c0"/>
<circle cx="1204" cy="1322" r="6" class="c0"/>
<circle cx="980" cy="818" r="6" class="c0"/>
<circle cx="1262" cy="1214" r="6" class="c0"/>
<circle cx="890" cy="800" r="6" class="c0"/>
<circle cx="876" cy="840" r="6" class="c0"/>
<circle cx="1382" cy="1136" r="6" class="c0"/>
<circle cx="1432" cy="1154" r="6" class="c0"/>
<circle cx="1304" cy="988" r="6" class="c0"/>
<circle cx="1504" cy="1134" r="6" class="c0"/>
<circle cx="1114" cy="916" r="6" class="c0"/>
<circle cx="1006" cy="812" r="6" class="c0"/>
<circle cx="880" cy="746" r="6" class="c0"/>
<circle cx="1000" cy="1020" r="6" class="c0"/>
<circle cx="916" cy="898" r="6" class="c0"/>
<circle cx="1450" cy="1200" r="6" class="c0"/>
<circle cx="1416" cy="1154" r="6" class="c0"/>
<circle cx="950" cy="1162" r="6" class="c0"/>
<circle cx="1174" cy="894" r="6" class="c0"/>
<circle cx="1342" cy="1304" r="6" class="c0"/>
<circle cx="1276" cy="874" r="6" class="c0"/>
<circle cx="1096" cy="1352" r="6" class="c0"/>
<circle cx="1222" cy="962" r="6" class="c0"/>
<circle cx="1196" cy="1246" r="6" class="c0"/>
<circle cx="1294" cy="1034" r="6" class="c0"/>
<circle cx="762" cy="602" r="6" class="c0"/>
<circle cx="990" cy="1190" r="6" class="c0"/>
<circle cx="828" cy="850" r="6" class="c0"/>
<circle cx="716" cy="572" r="6" class="c0"/>
<circle cx="1350" cy="1144" r="6" class="c0"/>
<circle cx="1270" cy="1250" r="6" class="c0"/>
<circle cx="984" cy="1072" r="6" class="c0"/>
<circle cx="908" cy="1090" r="6" class="c0"/>
<circle cx="1334" cy="1222" r="6" class="c0"/>
<circle cx="1056" cy="1194" r="6" class="c0"/>
<circle cx="826" cy="508" r="6" class="c0"/>
<circle cx="1038" cy="1148" r="6" class="c0"/>
<circle cx="1288" cy="1324" r="6" class="c0"/>
<circle cx="1342" cy="846" r="6" class="c0"/>
<circle cx="844" cy="698" r="6" class="c0"/>
<circle cx="1194" cy="1094" r="6" class="c0"/>
<circle cx="1260" cy="1158" r="6" class="c0"/>
</svg>
