<?xml version="1.0" encoding="utf-8"?>
<svg xmlns="http://www.w3.org/2000/svg"
     xmlns:xlink="http://www.w3.org/1999/xlink" width="1920" height="1440" >

            <defs>
            <style type="text/css"><![CDATA[
circle {stroke: none;}
.c0 {fill: #000000;}
]]></style>
            </defs>
<rect x="0" y="0" width="1920" height="1440" fill="white"/>
<circle cx="1728" cy="748" r="14" class="c0"/>
<circle cx="1504" cy="868" r="12" class="c0"/>
<circle cx="786" cy="678" r="12" class="c0"/>
<circle cx="1556" cy="722" r="12" class="c0"/>
<circle cx="756" cy="522" r="12" class="c0"/>
<circle cx="1288" cy="680" r="12" class="c0"/>
<circle cx="1034" cy="574" r="12" class="c0"/>
<circle cx="1636" cy="876" r="12" class="c0"/>
<circle cx="1566" cy="806" r="12" class="c0"/>
<circle cx="1310" cy="770" r="12" class="c0"/>
<circle cx="1548" cy="918" r="12" class="c0"/>
<circle cx="902" cy="542" r="12" class="c0"/>
<circle cx="1258" cy="856" r="12" class="c0"/>
<circle cx="1394" cy="706" r="12" class="c0"/>
<circle cx="1454" cy="866" r="12" class="c0"/>
<circle cx="1878" cy="878" r="12" class="c0"/>
<circle cx="888" cy="640" r="12" class="c0"/>
<circle cx="1896" cy="774" r="12" class="c0"/>
<circle cx="1820" cy="984" r="12" class="c0"/>
<circle cx="1768" cy="824" r="12" class="c0"/>
<circle cx="1126" cy="714" r="12" class="c0"/>
<circle cx="1692" cy="948" r="12" class="c0"/>
<circle cx="1618" cy="778" r="12" class="c0"/>
<circle cx="1786" cy="810" r="12" class="c0"/>
<circle cx="864" cy="648" r="12" class="c0"/>
<circle cx="1718" cy="704" r="12" class="c0"/>
<circle cx="1166" cy="744" r="12" class="c0"/>
<circle cx="1332" cy="696" r="12" class="c0"/>
<circle cx="1228" cy="664" r="12" class="c0"/>
<circle cx="1302" cy="868" r="12" class="c0"/>
<circle cx="1358" cy="774" r="12" class="c0"/>
<circle cx="1900" cy="952" r="12" class="c0"/>
<circle cx="1474" cy="732" r="12" class="c0"/>
<circle cx="1336" cy="892" r="12" class="c0"/>
<circle cx="1022" cy="554" r="12" class="c0"/>
<circle cx="1276" cy="830" r="12" class="c0"/>
<circle cx="1876" cy="796" r="12" class="c0"/>
<circle cx="930" cy="634" r="12" class="c0"/>
<circle cx="814" cy="608" r="12" class="c0"/>
<circle cx="1156" cy="678" r="12" class="c0"/>
<circle cx="1044" cy="642" r="12" class="c0"/>
<circle cx="1738" cy="818" r="12" class="c0"/>
<circle cx="1892" cy="898" r="12" class="c0"/>
<circle cx="1418" cy="658" r="12" class="c0"/>
<circle cx="1652" cy="726" r="12" class="c0"/>
<circle cx="1478" cy="786" r="12" class="c0"/>
<circle cx="1084" cy="680" r="12" class="c0"/>
<circle cx="1060" cy="668" r="12" class="c0"/>
<circle cx="840" cy="752" r="12" class="c0"/>
<circle cx="1812" cy="852" r="12" class="c0"/>
<circle cx="1766" cy="874" r="12" class="c0"/>
<circle cx="966" cy="704" r="12" class="c0"/>
<circle cx="1594" cy="758" r="12" class="c0"/>
<circle cx="1462" cy="812" r="12" class="c0"/>
<circle cx="1790" cy="870" r="10" class="c0"/>
<circle cx="1592" cy="894" r="10" class="c0"/>
<circle cx="856" cy="550" r="10" class="c0"/>
<circle cx="1460" cy="718" r="10" class="c0"/>
<circle cx="752" cy="602" r="10" class="c0"/>
<circle cx="1174" cy="650" r="10" class="c0"/>
<circle cx="842" cy="524" r="10" class="c0"/>
<circle cx="1280" cy="714" r="10" class="c0"/>
<circle cx="1040" cy="614" r="10" class="c0"/>
<circle cx="1296" cy="730" r="10" class="c0"/>
<circle cx="1228" cy="788" r="10" class="c0"/>
<circle cx="1198" cy="634" r="10" class="c0"/>
<circle cx="1776" cy="726" r="10" class="c0"/>
<circle cx="1392" cy="750" r="10" class="c0"/>
<circle cx="678" cy="600" r="10" class="c0"/>
<circle cx="1856" cy="992" r="10" class="c0"/>
<circle cx="1530" cy="738" r="10" class="c0"/>
<circle cx="834" cy="638" r="10" class="c0"/>
<circle cx="1018" cy="716" r="10" class="c0"/>
<circle cx="1000" cy="700" r="10" class="c0"/>
<circle cx="934" cy="696" r="10" class="c0"/>
<circle cx="1746" cy="982" r="10" class="c0"/>
<circle cx="1406" cy="636" r="10" class="c0"/>
<circle cx="888" cy="612" r="10" class="c0"/>
<circle cx="1360" cy="640" r="10" class="c0"/>
<circle cx="1360" cy="854" r="10" class="c0"/>
<circle cx="898" cy="590" r="10" class="c0"/>
<circle cx="1888" cy="844" r="10" class="c0"/>
<circle cx="1692" cy="790" r="10" class="c0"/>
<circle cx="1208" cy="702" r="10" class="c0"/>
<circle cx="712" cy="692" r="10" class="c0"/>
<circle cx="978" cy="666" r="10" class="c0"/>
<circle cx="954" cy="686" r="10" class="c0"/>
<circle cx="1770" cy="928" r="10" class="c0"/>
<circle cx="1026" cy="684" r="10" class="c0"/>
<circle cx="1838" cy="896" r="10" class="c0"/>
<circle cx="1766" cy="760" r="10" class="c0"/>
<circle cx="1872" cy="922" r="10" class="c0"/>
<circle cx="944" cy="526" r="10" class="c0"/>
<circle cx="1846" cy="970" r="10" class="c0"/>
<circle cx="1572" cy="846" r="10" class="c0"/>
<circle cx="982" cy="564" r="10" class="c0"/>
<circle cx="1908" cy="994" r="10" class="c0"/>
<circle cx="1682" cy="840" r="10" class="c0"/>
<circle cx="1860" cy="948" r="10" class="c0"/>
<circle cx="886" cy="674" r="10" class="c0"/>
<circle cx="754" cy="684" r="10" class="c0"/>
<circle cx="1550" cy="790" r="10" class="c0"/>
<circle cx="1526" cy="892" r="10" class="c0"/>
<circle cx="1512" cy="702" r="10" class="c0"/>
<circle cx="1536" cy="812" r="10" class="c0"/>
<circle cx="770" cy="580" r="10" class="c0"/>
<circle cx="1642" cy="808" r="10" class="c0"/>
<circle cx="1850" cy="836" r="10" class="c0"/>
<circle cx="1828" cy="744" r="10" class="c0"/>
<circle cx="1152" cy="646" r="10" class="c0"/>
<circle cx="710" cy="476" r="10" class="c0"/>
<circle cx="1618" cy="828" r="10" class="c0"/>
<circle cx="1904" cy="856" r="10" class="c0"/>
<circle cx="1738" cy="784" r="10" class="c0"/>
<circle cx="1710" cy="854" r="10" class="c0"/>
<circle cx="1352" cy="820" r="10" class="c0"/>
<circle cx="686" cy="492" r="10" class="c0"/>
<circle cx="1584" cy="712" r="10" class="c0"/>
<circle cx="1310" cy="894" r="10" class="c0"/>
<circle cx="1652" cy="688" r="10" class="c0"/>
<circle cx="1392" cy="774" r="10" class="c0"/>
<circle cx="980" cy="618" r="10" class="c0"/>
<circle cx="938" cy="666" r="10" class="c0"/>
<circle cx="1744" cy="862" r="10" class="c0"/>
<circle cx="1842" cy="804" r="10" class="c0"/>
<circle cx="962" cy="588" r="10" class="c0"/>
<circle cx="1672" cy="892" r="10" class="c0"/>
<circle cx="732" cy="506" r="10" class="c0"/>
<circle cx="1090" cy="742" r="10" class="c0"/>
<circle cx="1774" cy="968" r="10" class="c0"/>
<circle cx="1462" cy="918" r="10" class="c0"/>
<circle cx="1352" cy="748" r="10" class="c0"/>
<circle cx="1826" cy="824" r="10" class="c0"/>
<circle cx="1746" cy="908" r="10" class="c0"/>
<circle cx="1366" cy="676" r="10" class="c0"/>
<circle cx="1448" cy="698" r="10" class="c0"/>
<circle cx="1246" cy="768" r="10" class="c0"/>
<circle cx="1858" cy="756" r="10" class="c0"/>
<circle cx="1494" cy="658" r="10" class="c0"/>
<circle cx="1600" cy="812" r="10" class="c0"/>
<circle cx="866" cy="726" r="10" class="c0"/>
<circle cx="1338" cy="666" r="10" class="c0"/>
<circle cx="810" cy="582" r="10" class="c0"/>
<circle cx="988" cy="596" r="10" class="c0"/>
<circle cx="1560" cy="760" r="10" class="c0"/>
<circle cx="1720" cy="892" r="10" class="c0"/>
<circle cx="1710" cy="772" r="10" class="c0"/>
<circle cx="1236" cy="704" r="10" class="c0"/>
<circle cx="1530" cy="682" r="10" class="c0"/>
<circle cx="1136" cy="590" r="10" class="c0"/>
<circle cx="1336" cy="788" r="10" class="c0"/>
<circle cx="1206" cy="610" r="10" class="c0"/>
<circle cx="1458" cy="652" r="10" class="c0"/>
<circle cx="1374" cy="734" r="10" class="c0"/>
<circle cx="1020" cy="628" r="10" class="c0"/>
<circle cx="1128" cy="656" r="10" class="c0"/>
<circle cx="1496" cy="890" r="10" class="c0"/>
<circle cx="1198" cy="668" r="10" class="c0"/>
<circle cx="876" cy="750" r="10" class="c0"/>
<circle cx="1626" cy="964" r="10" class="c0"/>
<circle cx="1312" cy="644" r="10" class="c0"/>
<circle cx="1876" cy="960" r="10" class="c0"/>
<circle cx="1662" cy="788" r="10" class="c0"/>
<circle cx="992" cy="544" r="10" class="c0"/>
<circle cx="1572" cy="924" r="10" class="c0"/>
<circle cx="1688" cy="768" r="10" class="c0"/>
<circle cx="866" cy="520" r="10" class="c0"/>
<circle cx="1862" cy="820" r="10" class="c0"/>
<circle cx="1426" cy="892" r="10" class="c0"/>
<circle cx="786" cy="484" r="10" class="c0"/>
<circle cx="1546" cy="670" r="10" class="c0"/>
<circle cx="1388" cy="840" r="10" class="c0"/>
<circle cx="1428" cy="848" r="10" class="c0"/>
<circle cx="1362" cy="718" r="10" class="c0"/>
<circle cx="1066" cy="578" r="10" class="c0"/>
<circle cx="1794" cy="998" r="10" class="c0"/>
<circle cx="1672" cy="930" r="10" class="c0"/>
<circle cx="1542" cy="838" r="10" class="c0"/>
<circle cx="1638" cy="946" r="10" class="c0"/>
<circle cx="1412" cy="682" r="10" class="c0"/>
<circle cx="1318" cy="716" r="10" class="c0"/>
<circle cx="1660" cy="858" r="10" class="c0"/>
<circle cx="1712" cy="832" r="10" class="c0"/>
<circle cx="1666" cy="752" r="10" class="c0"/>
<circle cx="708" cy="726" r="10" class="c0"/>
<circle cx="644" cy="612" r="10" class="c0"/>
<circle cx="644" cy="498" r="10" class="c0"/>
<circle cx="706" cy="504" r="10" class="c0"/>
<circle cx="1718" cy="944" r="10" class="c0"/>
<circle cx="1558" cy="860" r="10" class="c0"/>
<circle cx="1804" cy="942" r="10" class="c0"/>
<circle cx="1302" cy="664" r="10" class="c0"/>
<circle cx="864" cy="576" r="10" class="c0"/>
<circle cx="718" cy="570" r="10" class="c0"/>
<circle cx="964" cy="652" r="10" class="c0"/>
<circle cx="922" cy="528" r="10" class="c0"/>
<circle cx="1312" cy="684" r="10" class="c0"/>
<circle cx="1790" cy="738" r="10" class="c0"/>
<circle cx="1400" cy="812" r="10" class="c0"/>
<circle cx="832" cy="776" r="10" class="c0"/>
<circle cx="1908" cy="918" r="10" class="c0"/>
<circle cx="1134" cy="626" r="10" class="c0"/>
<circle cx="1692" cy="698" r="10" class="c0"/>
<circle cx="1124" cy="794" r="10" class="c0"/>
<circle cx="1390" cy="906" r="10" class="c0"/>
<circle cx="1098" cy="638" r="10" class="c0"/>
<circle cx="1904" cy="810" r="10" class="c0"/>
<circle cx="696" cy="578" r="10" class="c0"/>
<circle cx="1006" cy="668" r="10" class="c0"/>
<circle cx="1692" cy="910" r="10" class="c0"/>
<circle cx="1358" cy="882" r="10" class="c0"/>
<circle cx="1844" cy="928" r="10" class="c0"/>
<circle cx="1606" cy="840" r="10" class="c0"/>
<circle cx="724" cy="610" r="10" class="c0"/>
<circle cx="840" cy="598" r="10" class="c0"/>
<circle cx="1836" cy="854" r="10" class="c0"/>
<circle cx="1396" cy="884" r="10" class="c0"/>
<circle cx="1616" cy="914" r="10" class="c0"/>
<circle cx="1452" cy="770" r="8" class="c0"/>
<circle cx="1538" cy="762" r="8" class="c0"/>
<circle cx="1330" cy="626" r="8" class="c0"/>
<circle cx="1430" cy="822" r="8" class="c0"/>
<circle cx="1580" cy="682" r="8" class="c0"/>
<circle cx="1536" cy="654" r="8" class="c0"/>
<circle cx="1578" cy="734" r="8" class="c0"/>
<circle cx="784" cy="534" r="8" class="c0"/>
<circle cx="1472" cy="688" r="8" class="c0"/>
<circle cx="1050" cy="740" r="8" class="c0"/>
<circle cx="1162" cy="594" r="8" class="c0"/>
<circle cx="1254" cy="794" r="8" class="c0"/>
<circle cx="1616" cy="800" r="8" class="c0"/>
<circle cx="840" cy="676" r="8" class="c0"/>
<circle cx="1896" cy="976" r="8" class="c0"/>
<circle cx="842" cy="618" r="8" class="c0"/>
<circle cx="1170" cy="620" r="8" class="c0"/>
<circle cx="1520" cy="822" r="8" class="c0"/>
<circle cx="868" cy="608" r="8" class="c0"/>
<circle cx="1618" cy="706" r="8" class="c0"/>
<circle cx="1124" cy="680" r="8" class="c0"/>
<circle cx="848" cy="692" r="8" class="c0"/>
<circle cx="1178" cy="762" r="8" class="c0"/>
<circle cx="1782" cy="840" r="8" class="c0"/>
<circle cx="1208" cy="732" r="8" class="c0"/>
<circle cx="1514" cy="778" r="8" class="c0"/>
<circle cx="1416" cy="736" r="8" class="c0"/>
<circle cx="1374" cy="790" r="8" class="c0"/>
<circle cx="1258" cy="630" r="8" class="c0"/>
<circle cx="1366" cy="908" r="8" class="c0"/>
<circle cx="1506" cy="746" r="8" class="c0"/>
<circle cx="666" cy="584" r="8" class="c0"/>
<circle cx="1478" cy="668" r="8" class="c0"/>
<circle cx="734" cy="482" r="8" class="c0"/>
<circle cx="1602" cy="790" r="8" class="c0"/>
<circle cx="1650" cy="962" r="8" class="c0"/>
<circle cx="1158" cy="714" r="8" class="c0"/>
<circle cx="1276" cy="748" r="8" class="c0"/>
<circle cx="1630" cy="694" r="8" class="c0"/>
<circle cx="1602" cy="872" r="8" class="c0"/>
<circle cx="1446" cy="834" r="8" class="c0"/>
<circle cx="1140" cy="768" r="8" class="c0"/>
<circle cx="1062" cy="718" r="8" class="c0"/>
<circle cx="1442" cy="798" r="8" class="c0"/>
<circle cx="1100" cy="714" r="8" class="c0"/>
<circle cx="1810" cy="800" r="8" class="c0"/>
<circle cx="906" cy="672" r="8" class="c0"/>
<circle cx="1204" cy="766" r="8" class="c0"/>
<circle cx="890" cy="572" r="8" class="c0"/>
<circle cx="1012" cy="610" r="8" class="c0"/>
<circle cx="952" cy="614" r="8" class="c0"/>
<circle cx="1792" cy="958" r="8" class="c0"/>
<circle cx="1002" cy="646" r="8" class="c0"/>
<circle cx="1370" cy="828" r="8" class="c0"/>
<circle cx="1470" cy="892" r="8" class="c0"/>
<circle cx="1738" cy="962" r="8" class="c0"/>
<circle cx="1866" cy="862" r="8" class="c0"/>
<circle cx="1736" cy="842" r="8" class="c0"/>
<circle cx="1166" cy="788" r="8" class="c0"/>
<circle cx="882" cy="556" r="8" class="c0"/>
<circle cx="1236" cy="644" r="8" class="c0"/>
<circle cx="1750" cy="796" r="8" class="c0"/>
<circle cx="1468" cy="756" r="8" class="c0"/>
<circle cx="1696" cy="888" r="8" class="c0"/>
<circle cx="1498" cy="690" r="8" class="c0"/>
<circle cx="1394" cy="670" r="8" class="c0"/>
<circle cx="1718" cy="804" r="8" class="c0"/>
<circle cx="1028" cy="596" r="8" class="c0"/>
<circle cx="1684" cy="742" r="8" class="c0"/>
<circle cx="1600" cy="940" r="8" class="c0"/>
<circle cx="1530" cy="712" r="8" class="c0"/>
<circle cx="822" cy="802" r="8" class="c0"/>
<circle cx="1076" cy="626" r="8" class="c0"/>
<circle cx="1386" cy="866" r="8" class="c0"/>
<circle cx="1442" cy="756" r="8" class="c0"/>
<circle cx="1362" cy="802" r="8" class="c0"/>
<circle cx="1758" cy="844" r="8" class="c0"/>
<circle cx="1108" cy="688" r="8" class="c0"/>
<circle cx="1420" cy="758" r="8" class="c0"/>
<circle cx="1478" cy="824" r="8" class="c0"/>
<circle cx="1070" cy="602" r="8" class="c0"/>
<circle cx="812" cy="674" r="8" class="c0"/>
<circle cx="1812" cy="960" r="8" class="c0"/>
<circle cx="806" cy="694" r="8" class="c0"/>
<circle cx="796" cy="780" r="8" class="c0"/>
<circle cx="950" cy="556" r="8" class="c0"/>
<circle cx="1812" cy="900" r="8" class="c0"/>
<circle cx="1178" cy="714" r="8" class="c0"/>
<circle cx="1772" cy="992" r="8" class="c0"/>
<circle cx="1642" cy="904" r="8" class="c0"/>
<circle cx="922" cy="680" r="8" class="c0"/>
<circle cx="1558" cy="698" r="8" class="c0"/>
<circle cx="722" cy="710" r="8" class="c0"/>
<circle cx="1008" cy="586" r="8" class="c0"/>
<circle cx="1342" cy="868" r="8" class="c0"/>
<circle cx="750" cy="474" r="8" class="c0"/>
<circle cx="774" cy="604" r="8" class="c0"/>
<circle cx="1780" cy="784" r="8" class="c0"/>
<circle cx="1488" cy="710" r="8" class="c0"/>
<circle cx="652" cy="518" r="8" class="c0"/>
<circle cx="1816" cy="918" r="8" class="c0"/>
<circle cx="1530" cy="792" r="8" class="c0"/>
<circle cx="1324" cy="828" r="8" class="c0"/>
<circle cx="1172" cy="694" r="8" class="c0"/>
<circle cx="1798" cy="786" r="8" class="c0"/>
<circle cx="1184" cy="790" r="8" class="c0"/>
<circle cx="1886" cy="1002" r="8" class="c0"/>
<circle cx="1118" cy="750" r="8" class="c0"/>
<circle cx="934" cy="720" r="8" class="c0"/>
<circle cx="1908" cy="758" r="8" class="c0"/>
<circle cx="934" cy="570" r="8" class="c0"/>
<circle cx="1516" cy="844" r="8" class="c0"/>
<circle cx="1342" cy="714" r="8" class="c0"/>
<circle cx="676" cy="472" r="8" class="c0"/>
<circle cx="1410" cy="860" r="8" class="c0"/>
<circle cx="1782" cy="888" r="8" class="c0"/>
<circle cx="1296" cy="700" r="8" class="c0"/>
<circle cx="778" cy="552" r="8" class="c0"/>
<circle cx="838" cy="576" r="8" class="c0"/>
<circle cx="1604" cy="678" r="8" class="c0"/>
<circle cx="1104" cy="572" r="8" class="c0"/>
<circle cx="1570" cy="668" r="8" class="c0"/>
<circle cx="1826" cy="790" r="8" class="c0"/>
<circle cx="1384" cy="642" r="8" class="c0"/>
<circle cx="914" cy="712" r="8" class="c0"/>
<circle cx="1910" cy="788" r="8" class="c0"/>
<circle cx="922" cy="592" r="8" class="c0"/>
<circle cx="1232" cy="744" r="8" class="c0"/>
<circle cx="958" cy="632" r="8" class="c0"/>
<circle cx="1318" cy="796" r="8" class="c0"/>
<circle cx="734" cy="584" r="8" class="c0"/>
<circle cx="1114" cy="772" r="8" class="c0"/>
<circle cx="1072" cy="752" r="8" class="c0"/>
<circle cx="784" cy="512" r="8" class="c0"/>
<circle cx="1852" cy="1016" r="8" class="c0"/>
<circle cx="1462" cy="676" r="8" class="c0"/>
<circle cx="1740" cy="716" r="8" class="c0"/>
<circle cx="814" cy="534" r="8" class="c0"/>
<circle cx="1680" cy="964" r="8" class="c0"/>
<circle cx="1444" cy="736" r="8" class="c0"/>
<circle cx="1504" cy="830" r="8" class="c0"/>
<circle cx="1076" cy="774" r="8" class="c0"/>
<circle cx="774" cy="694" r="8" class="c0"/>
<circle cx="1492" cy="920" r="8" class="c0"/>
<circle cx="1312" cy="844" r="8" class="c0"/>
<circle cx="1286" cy="782" r="8" class="c0"/>
<circle cx="1846" cy="874" r="8" class="c0"/>
<circle cx="1268" cy="618" r="8" class="c0"/>
<circle cx="1378" cy="812" r="8" class="c0"/>
<circle cx="1908" cy="878" r="8" class="c0"/>
<circle cx="750" cy="574" r="8" class="c0"/>
<circle cx="762" cy="486" r="8" class="c0"/>
<circle cx="1630" cy="738" r="8" class="c0"/>
<circle cx="1034" cy="748" r="8" class="c0"/>
<circle cx="1248" cy="898" r="8" class="c0"/>
<circle cx="1814" cy="768" r="8" class="c0"/>
<circle cx="1530" cy="936" r="8" class="c0"/>
<circle cx="1634" cy="924" r="8" class="c0"/>
<circle cx="1044" cy="548" r="8" class="c0"/>
<circle cx="854" cy="768" r="8" class="c0"/>
<circle cx="988" cy="716" r="8" class="c0"/>
<circle cx="1652" cy="894" r="8" class="c0"/>
<circle cx="1530" cy="872" r="8" class="c0"/>
<circle cx="826" cy="660" r="8" class="c0"/>
<circle cx="1298" cy="796" r="8" class="c0"/>
<circle cx="1042" cy="706" r="8" class="c0"/>
<circle cx="1486" cy="854" r="8" class="c0"/>
<circle cx="1302" cy="820" r="8" class="c0"/>
<circle cx="632" cy="514" r="8" class="c0"/>
<circle cx="802" cy="508" r="8" class="c0"/>
<circle cx="1582" cy="786" r="8" class="c0"/>
<circle cx="1424" cy="792" r="8" class="c0"/>
<circle cx="1500" cy="804" r="8" class="c0"/>
<circle cx="1230" cy="612" r="8" class="c0"/>
<circle cx="1274" cy="872" r="8" class="c0"/>
<circle cx="918" cy="610" r="8" class="c0"/>
<circle cx="1256" cy="694" r="8" class="c0"/>
<circle cx="1188" cy="684" r="8" class="c0"/>
<circle cx="1870" cy="1020" r="8" class="c0"/>
<circle cx="1146" cy="790" r="8" class="c0"/>
<circle cx="1866" cy="736" r="8" class="c0"/>
<circle cx="1290" cy="632" r="8" class="c0"/>
<circle cx="1108" cy="666" r="8" class="c0"/>
<circle cx="1874" cy="984" r="8" class="c0"/>
<circle cx="1520" cy="756" r="8" class="c0"/>
<circle cx="1480" cy="872" r="8" class="c0"/>
<circle cx="1562" cy="898" r="8" class="c0"/>
<circle cx="1666" cy="822" r="8" class="c0"/>
<circle cx="1620" cy="892" r="8" class="c0"/>
<circle cx="1094" cy="780" r="8" class="c0"/>
<circle cx="1406" cy="726" r="8" class="c0"/>
<circle cx="1258" cy="732" r="8" class="c0"/>
<circle cx="1054" cy="558" r="8" class="c0"/>
<circle cx="1750" cy="738" r="8" class="c0"/>
<circle cx="1158" cy="770" r="8" class="c0"/>
<circle cx="1698" cy="722" r="8" class="c0"/>
<circle cx="1222" cy="688" r="8" class="c0"/>
<circle cx="626" cy="602" r="8" class="c0"/>
<circle cx="1388" cy="614" r="8" class="c0"/>
<circle cx="1092" cy="582" r="8" class="c0"/>
<circle cx="1862" cy="778" r="8" class="c0"/>
<circle cx="1422" cy="716" r="8" class="c0"/>
<circle cx="856" cy="628" r="8" class="c0"/>
<circle cx="774" cy="500" r="8" class="c0"/>
<circle cx="1510" cy="910" r="8" class="c0"/>
<circle cx="1866" cy="900" r="8" class="c0"/>
<circle cx="1716" cy="912" r="8" class="c0"/>
<circle cx="1246" cy="678" r="8" class="c0"/>
<circle cx="1088" cy="606" r="8" class="c0"/>
<circle cx="1438" cy="878" r="8" class="c0"/>
<circle cx="1770" cy="906" r="8" class="c0"/>
<circle cx="902" cy="728" r="8" class="c0"/>
<circle cx="648" cy="474" r="8" class="c0"/>
<circle cx="1654" cy="766" r="8" class="c0"/>
<circle cx="1794" cy="762" r="8" class="c0"/>
<circle cx="1500" cy="766" r="8" class="c0"/>
<circle cx="1058" cy="770" r="8" class="c0"/>
<circle cx="864" cy="676" r="8" class="c0"/>
<circle cx="708" cy="590" r="8" class="c0"/>
<circle cx="1058" cy="624" r="8" class="c0"/>
<circle cx="1794" cy="914" r="8" class="c0"/>
<circle cx="1630" cy="760" r="8" class="c0"/>
<circle cx="1114" cy="598" r="8" class="c0"/>
<circle cx="868" cy="706" r="8" class="c0"/>
<circle cx="1560" cy="942" r="8" class="c0"/>
<circle cx="1586" cy="834" r="8" class="c0"/>
<circle cx="1834" cy="944" r="8" class="c0"/>
<circle cx="1354" cy="692" r="8" class="c0"/>
<circle cx="1758" cy="714" r="8" class="c0"/>
<circle cx="1664" cy="700" r="8" class="c0"/>
<circle cx="1596" cy="958" r="8" class="c0"/>
<circle cx="1134" cy="740" r="8" class="c0"/>
<circle cx="1376" cy="764" r="8" class="c0"/>
<circle cx="1822" cy="724" r="8" class="c0"/>
<circle cx="840" cy="494" r="8" class="c0"/>
<circle cx="1642" cy="848" r="8" class="c0"/>
<circle cx="1194" cy="722" r="8" class="c0"/>
<circle cx="794" cy="596" r="8" class="c0"/>
<circle cx="1708" cy="878" r="8" class="c0"/>
<circle cx="1030" cy="730" r="8" class="c0"/>
<circle cx="1662" cy="912" r="8" class="c0"/>
<circle cx="670" cy="508" r="8" class="c0"/>
<circle cx="1074" cy="700" r="8" class="c0"/>
<circle cx="1416" cy="924" r="8" class="c0"/>
<circle cx="806" cy="652" r="8" class="c0"/>
<circle cx="1622" cy="856" r="8" class="c0"/>
<circle cx="1412" cy="830" r="8" class="c0"/>
<circle cx="792" cy="574" r="8" class="c0"/>
<circle cx="1836" cy="768" r="8" class="c0"/>
<circle cx="1830" cy="1012" r="8" class="c0"/>
<circle cx="1802" cy="830" r="8" class="c0"/>
<circle cx="740" cy="714" r="8" class="c0"/>
<circle cx="970" cy="538" r="8" class="c0"/>
<circle cx="1330" cy="746" r="8" class="c0"/>
<circle cx="1374" cy="628" r="8" class="c0"/>
<circle cx="1340" cy="638" r="8" class="c0"/>
<circle cx="688" cy="522" r="8" class="c0"/>
<circle cx="892" cy="508" r="8" class="c0"/>
<circle cx="1446" cy="664" r="8" class="c0"/>
<circle cx="1892" cy="746" r="8" class="c0"/>
<circle cx="828" cy="510" r="8" class="c0"/>
<circle cx="720" cy="530" r="8" class="c0"/>
<circle cx="1140" cy="698" r="8" class="c0"/>
<circle cx="1574" cy="872" r="8" class="c0"/>
<circle cx="612" cy="618" r="8" class="c0"/>
<circle cx="1742" cy="942" r="8" class="c0"/>
<circle cx="1258" cy="884" r="8" class="c0"/>
<circle cx="1372" cy="656" r="8" class="c0"/>
<circle cx="1194" cy="754" r="8" class="c0"/>
<circle cx="1616" cy="750" r="8" class="c0"/>
<circle cx="1720" cy="976" r="8" class="c0"/>
<circle cx="1254" cy="828" r="8" class="c0"/>
<circle cx="976" cy="638" r="8" class="c0"/>
<circle cx="1874" cy="832" r="8" class="c0"/>
<circle cx="1350" cy="616" r="8" class="c0"/>
<circle cx="1270" cy="650" r="8" class="c0"/>
<circle cx="998" cy="726" r="8" class="c0"/>
<circle cx="1432" cy="726" r="8" class="c0"/>
<circle cx="1082" cy="654" r="8" class="c0"/>
<circle cx="1178" cy="674" r="8" class="c0"/>
<circle cx="1446" cy="640" r="8" class="c0"/>
<circle cx="1468" cy="848" r="8" class="c0"/>
<circle cx="894" cy="692" r="8" class="c0"/>
<circle cx="1678" cy="724" r="8" class="c0"/>
<circle cx="1232" cy="868" r="8" class="c0"/>
<circle cx="1796" cy="978" r="8" class="c0"/>
<circle cx="1432" cy="628" r="8" class="c0"/>
<circle cx="920" cy="656" r="8" class="c0"/>
<circle cx="1212" cy="650" r="8" class="c0"/>
<circle cx="1220" cy="628" r="8" class="c0"/>
<circle cx="1286" cy="854" r="8" class="c0"/>
<circle cx="1518" cy="652" r="8" class="c0"/>
<circle cx="1434" cy="776" r="8" class="c0"/>
<circle cx="1764" cy="948" r="8" class="c0"/>
<circle cx="1692" cy="820" r="8" class="c0"/>
<circle cx="1222" cy="756" r="8" class="c0"/>
<circle cx="664" cy="614" r="8" class="c0"/>
<circle cx="1146" cy="610" r="8" class="c0"/>
<circle cx="1346" cy="842" r="8" class="c0"/>
<circle cx="1726" cy="926" r="8" class="c0"/>
<circle cx="666" cy="488" r="8" class="c0"/>
<circle cx="938" cy="600" r="8" class="c0"/>
<circle cx="1804" cy="884" r="8" class="c0"/>
<circle cx="694" cy="614" r="8" class="c0"/>
<circle cx="1450" cy="892" r="8" class="c0"/>
<circle cx="892" cy="710" r="8" class="c0"/>
<circle cx="1050" cy="594" r="8" class="c0"/>
<circle cx="830" cy="560" r="8" class="c0"/>
<circle cx="1202" cy="792" r="8" class="c0"/>
<circle cx="1188" cy="592" r="8" class="c0"/>
<circle cx="920" cy="554" r="8" class="c0"/>
<circle cx="1112" cy="626" r="8" class="c0"/>
<circle cx="764" cy="706" r="8" class="c0"/>
<circle cx="1734" cy="878" r="8" class="c0"/>
<circle cx="1906" cy="830" r="8" class="c0"/>
<circle cx="1440" cy="904" r="8" class="c0"/>
<circle cx="1810" cy="734" r="8" class="c0"/>
<circle cx="1602" cy="696" r="8" class="c0"/>
<circle cx="1638" cy="712" r="8" class="c0"/>
<circle cx="908" cy="566" r="8" class="c0"/>
<circle cx="906" cy="624" r="8" class="c0"/>
<circle cx="1270" cy="670" r="8" class="c0"/>
<circle cx="998" cy="628" r="8" class="c0"/>
<circle cx="1008" cy="738" r="8" class="c0"/>
<circle cx="1406" cy="790" r="8" class="c0"/>
<circle cx="854" cy="508" r="8" class="c0"/>
<circle cx="1334" cy="812" r="8" class="c0"/>
<circle cx="1272" cy="798" r="8" class="c0"/>
<circle cx="962" cy="566" r="8" class="c0"/>
<circle cx="884" cy="528" r="8" class="c0"/>
<circle cx="1024" cy="650" r="8" class="c0"/>
<circle cx="1288" cy="758" r="8" class="c0"/>
<circle cx="1486" cy="754" r="8" class="c0"/>
<circle cx="1660" cy="950" r="8" class="c0"/>
<circle cx="784" cy="706" r="8" class="c0"/>
<circle cx="640" cy="592" r="8" class="c0"/>
<circle cx="1896" cy="1014" r="8" class="c0"/>
<circle cx="1270" cy="770" r="8" class="c0"/>
<circle cx="1512" cy="728" r="8" class="c0"/>
<circle cx="1270" cy="906" r="8" class="c0"/>
<circle cx="1848" cy="734" r="8" class="c0"/>
<circle cx="1506" cy="936" r="8" class="c0"/>
<circle cx="1554" cy="824" r="8" class="c0"/>
<circle cx="800" cy="802" r="8" class="c0"/>
<circle cx="1080" cy="558" r="8" class="c0"/>
<circle cx="1456" cy="788" r="8" class="c0"/>
<circle cx="1246" cy="620" r="8" class="c0"/>
<circle cx="1614" cy="726" r="8" class="c0"/>
<circle cx="828" cy="686" r="8" class="c0"/>
<circle cx="796" cy="626" r="8" class="c0"/>
<circle cx="1686" cy="866" r="8" class="c0"/>
<circle cx="1240" cy="724" r="8" class="c0"/>
<circle cx="1434" cy="674" r="8" class="c0"/>
<circle cx="910" cy="514" r="8" class="c0"/>
<circle cx="1580" cy="906" r="8" class="c0"/>
<circle cx="1182" cy="732" r="8" class="c0"/>
<circle cx="980" cy="688" r="8" class="c0"/>
<circle cx="1704" cy="930" r="8" class="c0"/>
<circle cx="804" cy="560" r="8" class="c0"/>
<circle cx="1622" cy="936" r="8" class="c0"/>
<circle cx="1306" cy="748" r="8" class="c0"/>
<circle cx="1482" cy="910" r="8" class="c0"/>
<circle cx="1856" cy="910" r="8" class="c0"/>
<circle cx="1644" cy="780" r="8" class="c0"/>
<circle cx="1124" cy="610" r="8" class="c0"/>
<circle cx="806" cy="490" r="8" class="c0"/>
<circle cx="936" cy="546" r="8" class="c0"/>
<circle cx="1326" cy="860" r="8" class="c0"/>
<circle cx="1698" cy="982" r="8" class="c0"/>
<circle cx="766" cy="668" r="8" class="c0"/>
<circle cx="1150" cy="730" r="8" class="c0"/>
<circle cx="1380" cy="690" r="8" class="c0"/>
<circle cx="1594" cy="920" r="8" class="c0"/>
<circle cx="730" cy="682" r="8" class="c0"/>
<circle cx="1724" cy="868" r="8" class="c0"/>
<circle cx="1068" cy="642" r="8" class="c0"/>
<circle cx="1844" cy="784" r="8" class="c0"/>
<circle cx="1004" cy="564" r="8" class="c0"/>
<circle cx="1758" cy="894" r="8" class="c0"/>
<circle cx="1496" cy="732" r="6" class="c0"/>
<circle cx="886" cy="726" r="6" class="c0"/>
<circle cx="616" cy="486" r="6" class="c0"/>
<circle cx="1350" cy="906" r="6" class="c0"/>
<circle cx="834" cy="544" r="6" class="c0"/>
<circle cx="690" cy="716" r="6" class="c0"/>
<circle cx="1286" cy="888" r="6" class="c0"/>
<circle cx="1218" cy="774" r="6" class="c0"/>
<circle cx="958" cy="722" r="6" class="c0"/>
<circle cx="1836" cy="994" r="6" class="c0"/>
<circle cx="1720" cy="726" r="6" class="c0"/>
<circle cx="782" cy="618" r="6" class="c0"/>
<circle cx="1376" cy="884" r="6" class="c0"/>
<circle cx="1588" cy="668" r="6" class="c0"/>
<circle cx="1488" cy="678" r="6" class="c0"/>
<circle cx="968" cy="606" r="6" class="c0"/>
<circle cx="1754" cy="772" r="6" class="c0"/>
<circle cx="1290" cy="902" r="6" class="c0"/>
<circle cx="1086" cy="722" r="6" class="c0"/>
<circle cx="1520" cy="668" r="6" class="c0"/>
<circle cx="790" cy="656" r="6" class="c0"/>
<circle cx="1256" cy="660" r="6" class="c0"/>
<circle cx="1710" cy="960" r="6" class="c0"/>
<circle cx="1550" cy="880" r="6" class="c0"/>
<circle cx="1574" cy="772" r="6" class="c0"/>
<circle cx="1296" cy="914" r="6" class="c0"/>
<circle cx="996" cy="682" r="6" class="c0"/>
<circle cx="824" cy="488" r="6" class="c0"/>
<circle cx="1062" cy="690" r="6" class="c0"/>
<circle cx="1702" cy="740" r="6" class="c0"/>
<circle cx="1502" cy="788" r="6" class="c0"/>
<circle cx="1282" cy="810" r="6" class="c0"/>
<circle cx="874" cy="688" r="6" class="c0"/>
<circle cx="738" cy="564" r="6" class="c0"/>
<circle cx="1196" cy="812" r="6" class="c0"/>
<circle cx="1800" cy="722" r="6" class="c0"/>
<circle cx="1528" cy="854" r="6" class="c0"/>
<circle cx="1822" cy="872" r="6" class="c0"/>
<circle cx="856" cy="742" r="6" class="c0"/>
<circle cx="1146" cy="576" r="6" class="c0"/>
<circle cx="1418" cy="876" r="6" class="c0"/>
<circle cx="1602" cy="738" r="6" class="c0"/>
<circle cx="1492" cy="640" r="6" class="c0"/>
<circle cx="1456" cy="938" r="6" class="c0"/>
<circle cx="1120" cy="582" r="6" class="c0"/>
<circle cx="1878" cy="760" r="6" class="c0"/>
<circle cx="1776" cy="856" r="6" class="c0"/>
<circle cx="1762" cy="786" r="6" class="c0"/>
<circle cx="1784" cy="942" r="6" class="c0"/>
<circle cx="1810" cy="1010" r="6" class="c0"/>
<circle cx="1578" cy="946" r="6" class="c0"/>
<circle cx="1656" cy="840" r="6" class="c0"/>
<circle cx="858" cy="594" r="6" class="c0"/>
<circle cx="1176" cy="602" r="6" class="c0"/>
<circle cx="1830" cy="880" r="6" class="c0"/>
<circle cx="1768" cy="798" r="6" class="c0"/>
<circle cx="1912" cy="1012" r="6" class="c0"/>
<circle cx="1334" cy="762" r="6" class="c0"/>
<circle cx="1528" cy="910" r="6" class="c0"/>
<circle cx="1892" cy="930" r="6" class="c0"/>
<circle cx="1614" cy="950" r="6" class="c0"/>
<circle cx="1654" cy="928" r="6" class="c0"/>
<circle cx="1278" cy="696" r="6" class="c0"/>
<circle cx="1832" cy="916" r="6" class="c0"/>
<circle cx="1598" cy="724" r="6" class="c0"/>
<circle cx="848" cy="732" r="6" class="c0"/>
<circle cx="1506" cy="670" r="6" class="c0"/>
<circle cx="1590" cy="858" r="6" class="c0"/>
<circle cx="794" cy="524" r="6" class="c0"/>
<circle cx="1250" cy="810" r="6" class="c0"/>
<circle cx="1520" cy="922" r="6" class="c0"/>
<circle cx="1636" cy="830" r="6" class="c0"/>
<circle cx="1102" cy="794" r="6" class="c0"/>
<circle cx="920" cy="730" r="6" class="c0"/>
<circle cx="1222" cy="724" r="6" class="c0"/>
<circle cx="1322" cy="658" r="6" class="c0"/>
<circle cx="870" cy="538" r="6" class="c0"/>
<circle cx="1310" cy="626" r="6" class="c0"/>
<circle cx="1702" cy="808" r="6" class="c0"/>
<circle cx="1038" cy="666" r="6" class="c0"/>
<circle cx="1100" cy="616" r="6" class="c0"/>
<circle cx="1320" cy="612" r="6" class="c0"/>
<circle cx="1366" cy="614" r="6" class="c0"/>
<circle cx="818" cy="500" r="6" class="c0"/>
<circle cx="1490" cy="838" r="6" class="c0"/>
<circle cx="1756" cy="996" r="6" class="c0"/>
<circle cx="1476" cy="650" r="6" class="c0"/>
<circle cx="1514" cy="796" r="6" class="c0"/>
<circle cx="1044" cy="758" r="6" class="c0"/>
<circle cx="1256" cy="714" r="6" class="c0"/>
<circle cx="1410" cy="906" r="6" class="c0"/>
<circle cx="1068" cy="736" r="6" class="c0"/>
<circle cx="1430" cy="744" r="6" class="c0"/>
<circle cx="1154" cy="628" r="6" class="c0"/>
<circle cx="1344" cy="732" r="6" class="c0"/>
<circle cx="810" cy="788" r="6" class="c0"/>
<circle cx="1044" cy="680" r="6" class="c0"/>
<circle cx="972" cy="726" r="6" class="c0"/>
<circle cx="1194" cy="776" r="6" class="c0"/>
<circle cx="1322" cy="910" r="6" class="c0"/>
<circle cx="1890" cy="826" r="6" class="c0"/>
<circle cx="720" cy="490" r="6" class="c0"/>
<circle cx="1180" cy="630" r="6" class="c0"/>
<circle cx="1576" cy="750" r="6" class="c0"/>
<circle cx="1186" cy="610" r="6" class="c0"/>
<circle cx="1648" cy="746" r="6" class="c0"/>
<circle cx="1168" cy="724" r="6" class="c0"/>
<circle cx="870" cy="502" r="6" class="c0"/>
<circle cx="658" cy="598" r="6" class="c0"/>
<circle cx="1760" cy="806" r="6" class="c0"/>
<circle cx="1104" cy="730" r="6" class="c0"/>
<circle cx="1426" cy="696" r="6" class="c0"/>
<circle cx="844" cy="660" r="6" class="c0"/>
<circle cx="1682" cy="806" r="6" class="c0"/>
<circle cx="1284" cy="660" r="6" class="c0"/>
<circle cx="828" cy="586" r="6" class="c0"/>
<circle cx="910" cy="646" r="6" class="c0"/>
<circle cx="1742" cy="762" r="6" class="c0"/>
<circle cx="754" cy="500" r="6" class="c0"/>
<circle cx="1116" cy="644" r="6" class="c0"/>
<circle cx="1912" cy="968" r="6" class="c0"/>
<circle cx="946" cy="650" r="6" class="c0"/>
<circle cx="844" cy="788" r="6" class="c0"/>
<circle cx="816" cy="752" r="6" class="c0"/>
<circle cx="1490" cy="814" r="6" class="c0"/>
<circle cx="660" cy="464" r="6" class="c0"/>
<circle cx="768" cy="624" r="6" class="c0"/>
<circle cx="1660" cy="880" r="6" class="c0"/>
<circle cx="1856" cy="888" r="6" class="c0"/>
<circle cx="634" cy="484" r="6" class="c0"/>
<circle cx="1264" cy="812" r="6" class="c0"/>
<circle cx="1126" cy="570" r="6" class="c0"/>
<circle cx="1482" cy="936" r="6" class="c0"/>
<circle cx="1418" cy="808" r="6" class="c0"/>
<circle cx="740" cy="670" r="6" class="c0"/>
<circle cx="1632" cy="794" r="6" class="c0"/>
<circle cx="1322" cy="880" r="6" class="c0"/>
<circle cx="1150" cy="754" r="6" class="c0"/>
<circle cx="876" cy="624" r="6" class="c0"/>
<circle cx="736" cy="528" r="6" class="c0"/>
<circle cx="1550" cy="746" r="6" class="c0"/>
<circle cx="1706" cy="754" r="6" class="c0"/>
<circle cx="1334" cy="606" r="6" class="c0"/>
<circle cx="768" cy="562" r="6" class="c0"/>
<circle cx="894" cy="742" r="6" class="c0"/>
<circle cx="1676" cy="690" r="6" class="c0"/>
<circle cx="944" cy="584" r="6" class="c0"/>
<circle cx="1864" cy="974" r="6" class="c0"/>
<circle cx="626" cy="494" r="6" class="c0"/>
<circle cx="738" cy="696" r="6" class="c0"/>
<circle cx="1792" cy="930" r="6" class="c0"/>
<circle cx="684" cy="728" r="6" class="c0"/>
<circle cx="810" cy="772" r="6" class="c0"/>
<circle cx="1414" cy="620" r="6" class="c0"/>
<circle cx="692" cy="474" r="6" class="c0"/>
<circle cx="1348" cy="652" r="6" class="c0"/>
<circle cx="980" cy="528" r="6" class="c0"/>
<circle cx="1880" cy="938" r="6" class="c0"/>
<circle cx="1540" cy="698" r="6" class="c0"/>
<circle cx="876" cy="592" r="6" class="c0"/>
<circle cx="1464" cy="832" r="6" class="c0"/>
<circle cx="1316" cy="738" r="6" class="c0"/>
<circle cx="914" cy="694" r="6" class="c0"/>
<circle cx="1104" cy="758" r="6" class="c0"/>
<circle cx="1174" cy="584" r="6" class="c0"/>
<circle cx="1750" cy="926" r="6" class="c0"/>
<circle cx="1404" cy="762" r="6" class="c0"/>
<circle cx="1458" cy="746" r="6" class="c0"/>
<circle cx="1856" cy="794" r="6" class="c0"/>
<circle cx="1190" cy="704" r="6" class="c0"/>
<circle cx="1880" cy="816" r="6" class="c0"/>
<circle cx="1624" cy="678" r="6" class="c0"/>
<circle cx="806" cy="818" r="6" class="c0"/>
<circle cx="1328" cy="730" r="6" class="c0"/>
<circle cx="698" cy="708" r="6" class="c0"/>
<circle cx="1220" cy="812" r="6" class="c0"/>
<circle cx="1044" cy="722" r="6" class="c0"/>
<circle cx="1250" cy="748" r="6" class="c0"/>
<circle cx="1580" cy="818" r="6" class="c0"/>
<circle cx="1398" cy="652" r="6" class="c0"/>
<circle cx="1570" cy="826" r="6" class="c0"/>
<circle cx="948" cy="730" r="6" class="c0"/>
<circle cx="1472" cy="636" r="6" class="c0"/>
<circle cx="1442" cy="920" r="6" class="c0"/>
<circle cx="1262" cy="756" r="6" class="c0"/>
<circle cx="1330" cy="648" r="6" class="c0"/>
<circle cx="1110" cy="704" r="6" class="c0"/>
<circle cx="726" cy="728" r="6" class="c0"/>
<circle cx="812" cy="518" r="6" class="c0"/>
<circle cx="642" cy="528" r="6" class="c0"/>
<circle cx="1368" cy="700" r="6" class="c0"/>
<circle cx="726" cy="468" r="6" class="c0"/>
<circle cx="1330" cy="844" r="6" class="c0"/>
<circle cx="1560" cy="682" r="6" class="c0"/>
<circle cx="1216" cy="840" r="6" class="c0"/>
<circle cx="1388" cy="800" r="6" class="c0"/>
<circle cx="1096" cy="698" r="6" class="c0"/>
<circle cx="1426" cy="912" r="6" class="c0"/>
<circle cx="918" cy="576" r="6" class="c0"/>
<circle cx="1370" cy="870" r="6" class="c0"/>
<circle cx="912" cy="740" r="6" class="c0"/>
<circle cx="1806" cy="750" r="6" class="c0"/>
<circle cx="1820" cy="934" r="6" class="c0"/>
<circle cx="1292" cy="648" r="6" class="c0"/>
<circle cx="1228" cy="898" r="6" class="c0"/>
<circle cx="1832" cy="960" r="6" class="c0"/>
<circle cx="946" cy="710" r="6" class="c0"/>
<circle cx="1670" cy="872" r="6" class="c0"/>
<circle cx="1138" cy="670" r="6" class="c0"/>
<circle cx="986" cy="648" r="6" class="c0"/>
<circle cx="1792" cy="898" r="6" class="c0"/>
<circle cx="1548" cy="772" r="6" class="c0"/>
<circle cx="1088" cy="764" r="6" class="c0"/>
<circle cx="1558" cy="658" r="6" class="c0"/>
<circle cx="1296" cy="838" r="6" class="c0"/>
<circle cx="1664" cy="806" r="6" class="c0"/>
<circle cx="1356" cy="660" r="6" class="c0"/>
<circle cx="608" cy="498" r="6" class="c0"/>
<circle cx="1278" cy="732" r="6" class="c0"/>
<circle cx="824" cy="742" r="6" class="c0"/>
<circle cx="782" cy="802" r="6" class="c0"/>
<circle cx="1670" cy="770" r="6" class="c0"/>
<circle cx="1756" cy="964" r="6" class="c0"/>
<circle cx="1910" cy="1026" r="6" class="c0"/>
<circle cx="1236" cy="806" r="6" class="c0"/>
<circle cx="1316" cy="812" r="6" class="c0"/>
<circle cx="1010" cy="536" r="6" class="c0"/>
<circle cx="1036" cy="774" r="6" class="c0"/>
<circle cx="1416" cy="776" r="6" class="c0"/>
<circle cx="1254" cy="646" r="6" class="c0"/>
<circle cx="776" cy="658" r="6" class="c0"/>
<circle cx="1566" cy="780" r="6" class="c0"/>
<circle cx="1546" cy="896" r="6" class="c0"/>
<circle cx="994" cy="578" r="6" class="c0"/>
<circle cx="1912" cy="896" r="6" class="c0"/>
<circle cx="852" cy="710" r="6" class="c0"/>
<circle cx="1240" cy="820" r="6" class="c0"/>
<circle cx="1426" cy="866" r="6" class="c0"/>
<circle cx="1472" cy="706" r="6" class="c0"/>
<circle cx="1442" cy="716" r="6" class="c0"/>
<circle cx="1910" cy="742" r="6" class="c0"/>
<circle cx="1564" cy="742" r="6" class="c0"/>
<circle cx="954" cy="540" r="6" class="c0"/>
<circle cx="1564" cy="882" r="6" class="c0"/>
<circle cx="1822" cy="888" r="6" class="c0"/>
<circle cx="628" cy="624" r="6" class="c0"/>
<circle cx="746" cy="492" r="6" class="c0"/>
<circle cx="848" cy="566" r="6" class="c0"/>
<circle cx="1432" cy="932" r="6" class="c0"/>
<circle cx="820" cy="628" r="6" class="c0"/>
<circle cx="1430" cy="644" r="6" class="c0"/>
<circle cx="650" cy="736" r="6" class="c0"/>
<circle cx="1650" cy="826" r="6" class="c0"/>
<circle cx="1730" cy="990" r="6" class="c0"/>
<circle cx="898" cy="656" r="6" class="c0"/>
<circle cx="1868" cy="1004" r="6" class="c0"/>
<circle cx="746" cy="620" r="6" class="c0"/>
<circle cx="1720" cy="788" r="6" class="c0"/>
<circle cx="1242" cy="840" r="6" class="c0"/>
<circle cx="1500" cy="846" r="6" class="c0"/>
<circle cx="1766" cy="740" r="6" class="c0"/>
<circle cx="1206" cy="684" r="6" class="c0"/>
<circle cx="1672" cy="978" r="6" class="c0"/>
<circle cx="816" cy="642" r="6" class="c0"/>
<circle cx="962" cy="524" r="6" class="c0"/>
<circle cx="1240" cy="914" r="6" class="c0"/>
<circle cx="1502" cy="718" r="6" class="c0"/>
<circle cx="1548" cy="688" r="6" class="c0"/>
<circle cx="1912" cy="938" r="6" class="c0"/>
<circle cx="1792" cy="850" r="6" class="c0"/>
<circle cx="1274" cy="634" r="6" class="c0"/>
<circle cx="1220" cy="600" r="6" class="c0"/>
<circle cx="1586" cy="802" r="6" class="c0"/>
<circle cx="1482" cy="806" r="6" class="c0"/>
<circle cx="1864" cy="846" r="6" class="c0"/>
<circle cx="764" cy="544" r="6" class="c0"/>
<circle cx="1178" cy="806" r="6" class="c0"/>
<circle cx="798" cy="542" r="6" class="c0"/>
<circle cx="956" cy="668" r="6" class="c0"/>
<circle cx="704" cy="528" r="6" class="c0"/>
<circle cx="1080" cy="792" r="6" class="c0"/>
<circle cx="1540" cy="862" r="6" class="c0"/>
<circle cx="1266" cy="704" r="6" class="c0"/>
<circle cx="692" cy="736" r="6" class="c0"/>
<circle cx="672" cy="736" r="6" class="c0"/>
<circle cx="1788" cy="714" r="6" class="c0"/>
<circle cx="1886" cy="1024" r="6" class="c0"/>
<circle cx="680" cy="624" r="6" class="c0"/>
<circle cx="1118" cy="732" r="6" class="c0"/>
<circle cx="1414" cy="702" r="6" class="c0"/>
<circle cx="1080" cy="592" r="6" class="c0"/>
<circle cx="1156" cy="800" r="6" class="c0"/>
</svg>
