<?xml version="1.0" encoding="utf-8"?>
<svg xmlns="http://www.w3.org/2000/svg"
     xmlns:xlink="http://www.w3.org/1999/xlink" width="1920" height="1440" >

            <defs>
            <style type="text/css"><![CDATA[
circle {stroke: none;}
.c0 {fill: #000000;}
]]></style>
            </defs>
<rect x="0" y="0" width="1920" height="1440" fill="white"/>
<circle cx="1794" cy="770" r="14" class="c0"/>
<circle cx="1582" cy="754" r="12" class="c0"/>
<circle cx="1028" cy="538" r="12" class="c0"/>
<circle cx="1162" cy="692" r="12" class="c0"/>
<circle cx="558" cy="558" r="12" class="c0"/>
<circle cx="930" cy="556" r="12" class="c0"/>
<circle cx="982" cy="556" r="12" class="c0"/>
<circle cx="1214" cy="684" r="12" class="c0"/>
<circle cx="1582" cy="850" r="12" class="c0"/>
<circle cx="1874" cy="790" r="12" class="c0"/>
<circle cx="1086" cy="602" r="12" class="c0"/>
<circle cx="1850" cy="858" r="12" class="c0"/>
<circle cx="1156" cy="566" r="12" class="c0"/>
<circle cx="1620" cy="816" r="12" class="c0"/>
<circle cx="1612" cy="616" r="12" class="c0"/>
<circle cx="494" cy="406" r="12" class="c0"/>
<circle cx="1500" cy="738" r="12" class="c0"/>
<circle cx="590" cy="394" r="12" class="c0"/>
<circle cx="1266" cy="734" r="12" class="c0"/>
<circle cx="1738" cy="714" r="12" class="c0"/>
<circle cx="1326" cy="690" r="12" class="c0"/>
<circle cx="1734" cy="814" r="12" class="c0"/>
<circle cx="1906" cy="802" r="12" class="c0"/>
<circle cx="748" cy="672" r="12" class="c0"/>
<circle cx="560" cy="396" r="12" class="c0"/>
<circle cx="942" cy="588" r="12" class="c0"/>
<circle cx="1450" cy="780" r="12" class="c0"/>
<circle cx="1074" cy="534" r="12" class="c0"/>
<circle cx="992" cy="606" r="12" class="c0"/>
<circle cx="1632" cy="846" r="12" class="c0"/>
<circle cx="994" cy="528" r="12" class="c0"/>
<circle cx="1520" cy="856" r="12" class="c0"/>
<circle cx="1282" cy="808" r="12" class="c0"/>
<circle cx="906" cy="548" r="12" class="c0"/>
<circle cx="782" cy="678" r="12" class="c0"/>
<circle cx="1184" cy="658" r="12" class="c0"/>
<circle cx="1268" cy="534" r="12" class="c0"/>
<circle cx="854" cy="540" r="12" class="c0"/>
<circle cx="674" cy="422" r="12" class="c0"/>
<circle cx="1250" cy="756" r="12" class="c0"/>
<circle cx="1376" cy="610" r="12" class="c0"/>
<circle cx="1728" cy="856" r="12" class="c0"/>
<circle cx="820" cy="450" r="12" class="c0"/>
<circle cx="1762" cy="696" r="12" class="c0"/>
<circle cx="1842" cy="636" r="12" class="c0"/>
<circle cx="1004" cy="572" r="12" class="c0"/>
<circle cx="848" cy="482" r="12" class="c0"/>
<circle cx="1846" cy="906" r="12" class="c0"/>
<circle cx="1662" cy="718" r="12" class="c0"/>
<circle cx="1312" cy="652" r="12" class="c0"/>
<circle cx="1752" cy="914" r="12" class="c0"/>
<circle cx="1154" cy="722" r="12" class="c0"/>
<circle cx="1772" cy="852" r="12" class="c0"/>
<circle cx="1708" cy="744" r="12" class="c0"/>
<circle cx="1434" cy="638" r="12" class="c0"/>
<circle cx="1214" cy="622" r="12" class="c0"/>
<circle cx="632" cy="516" r="12" class="c0"/>
<circle cx="1502" cy="596" r="12" class="c0"/>
<circle cx="898" cy="474" r="12" class="c0"/>
<circle cx="998" cy="654" r="12" class="c0"/>
<circle cx="1206" cy="516" r="12" class="c0"/>
<circle cx="592" cy="664" r="12" class="c0"/>
<circle cx="1528" cy="590" r="12" class="c0"/>
<circle cx="1382" cy="680" r="12" class="c0"/>
<circle cx="806" cy="646" r="12" class="c0"/>
<circle cx="1016" cy="678" r="12" class="c0"/>
<circle cx="1878" cy="704" r="12" class="c0"/>
<circle cx="886" cy="652" r="12" class="c0"/>
<circle cx="898" cy="510" r="12" class="c0"/>
<circle cx="782" cy="632" r="12" class="c0"/>
<circle cx="1832" cy="934" r="12" class="c0"/>
<circle cx="1626" cy="728" r="12" class="c0"/>
<circle cx="1310" cy="576" r="12" class="c0"/>
<circle cx="1374" cy="572" r="12" class="c0"/>
<circle cx="1230" cy="532" r="12" class="c0"/>
<circle cx="1390" cy="774" r="12" class="c0"/>
<circle cx="790" cy="546" r="10" class="c0"/>
<circle cx="1414" cy="690" r="10" class="c0"/>
<circle cx="874" cy="490" r="10" class="c0"/>
<circle cx="1762" cy="786" r="10" class="c0"/>
<circle cx="1694" cy="884" r="10" class="c0"/>
<circle cx="1866" cy="732" r="10" class="c0"/>
<circle cx="1656" cy="678" r="10" class="c0"/>
<circle cx="1552" cy="814" r="10" class="c0"/>
<circle cx="932" cy="484" r="10" class="c0"/>
<circle cx="1400" cy="734" r="10" class="c0"/>
<circle cx="1200" cy="546" r="10" class="c0"/>
<circle cx="774" cy="512" r="10" class="c0"/>
<circle cx="1420" cy="750" r="10" class="c0"/>
<circle cx="968" cy="602" r="10" class="c0"/>
<circle cx="1488" cy="778" r="10" class="c0"/>
<circle cx="550" cy="532" r="10" class="c0"/>
<circle cx="1244" cy="614" r="10" class="c0"/>
<circle cx="624" cy="648" r="10" class="c0"/>
<circle cx="674" cy="614" r="10" class="c0"/>
<circle cx="908" cy="624" r="10" class="c0"/>
<circle cx="1888" cy="754" r="10" class="c0"/>
<circle cx="1170" cy="786" r="10" class="c0"/>
<circle cx="876" cy="612" r="10" class="c0"/>
<circle cx="1552" cy="596" r="10" class="c0"/>
<circle cx="1572" cy="698" r="10" class="c0"/>
<circle cx="1392" cy="556" r="10" class="c0"/>
<circle cx="740" cy="724" r="10" class="c0"/>
<circle cx="1752" cy="842" r="10" class="c0"/>
<circle cx="1656" cy="878" r="10" class="c0"/>
<circle cx="1688" cy="852" r="10" class="c0"/>
<circle cx="1186" cy="568" r="10" class="c0"/>
<circle cx="1716" cy="826" r="10" class="c0"/>
<circle cx="1142" cy="778" r="10" class="c0"/>
<circle cx="1888" cy="826" r="10" class="c0"/>
<circle cx="714" cy="546" r="10" class="c0"/>
<circle cx="1576" cy="596" r="10" class="c0"/>
<circle cx="526" cy="388" r="10" class="c0"/>
<circle cx="1150" cy="534" r="10" class="c0"/>
<circle cx="1448" cy="686" r="10" class="c0"/>
<circle cx="1038" cy="582" r="10" class="c0"/>
<circle cx="664" cy="540" r="10" class="c0"/>
<circle cx="1692" cy="790" r="10" class="c0"/>
<circle cx="1300" cy="600" r="10" class="c0"/>
<circle cx="1510" cy="674" r="10" class="c0"/>
<circle cx="1684" cy="756" r="10" class="c0"/>
<circle cx="1836" cy="804" r="10" class="c0"/>
<circle cx="1394" cy="710" r="10" class="c0"/>
<circle cx="1870" cy="836" r="10" class="c0"/>
<circle cx="1214" cy="562" r="10" class="c0"/>
<circle cx="756" cy="414" r="10" class="c0"/>
<circle cx="1404" cy="816" r="10" class="c0"/>
<circle cx="1248" cy="582" r="10" class="c0"/>
<circle cx="1180" cy="532" r="10" class="c0"/>
<circle cx="1502" cy="824" r="10" class="c0"/>
<circle cx="754" cy="562" r="10" class="c0"/>
<circle cx="1096" cy="636" r="10" class="c0"/>
<circle cx="1592" cy="820" r="10" class="c0"/>
<circle cx="1662" cy="856" r="10" class="c0"/>
<circle cx="954" cy="692" r="10" class="c0"/>
<circle cx="1542" cy="794" r="10" class="c0"/>
<circle cx="562" cy="424" r="10" class="c0"/>
<circle cx="1814" cy="824" r="10" class="c0"/>
<circle cx="794" cy="590" r="10" class="c0"/>
<circle cx="1326" cy="786" r="10" class="c0"/>
<circle cx="1676" cy="830" r="10" class="c0"/>
<circle cx="1530" cy="704" r="10" class="c0"/>
<circle cx="1560" cy="772" r="10" class="c0"/>
<circle cx="1898" cy="892" r="10" class="c0"/>
<circle cx="1014" cy="594" r="10" class="c0"/>
<circle cx="1402" cy="636" r="10" class="c0"/>
<circle cx="720" cy="614" r="10" class="c0"/>
<circle cx="1552" cy="656" r="10" class="c0"/>
<circle cx="1698" cy="652" r="10" class="c0"/>
<circle cx="1424" cy="774" r="10" class="c0"/>
<circle cx="1234" cy="660" r="10" class="c0"/>
<circle cx="1656" cy="650" r="10" class="c0"/>
<circle cx="1504" cy="700" r="10" class="c0"/>
<circle cx="934" cy="658" r="10" class="c0"/>
<circle cx="1300" cy="520" r="10" class="c0"/>
<circle cx="798" cy="568" r="10" class="c0"/>
<circle cx="1108" cy="682" r="10" class="c0"/>
<circle cx="1592" cy="774" r="10" class="c0"/>
<circle cx="1880" cy="918" r="10" class="c0"/>
<circle cx="1134" cy="518" r="10" class="c0"/>
<circle cx="774" cy="438" r="10" class="c0"/>
<circle cx="822" cy="568" r="10" class="c0"/>
<circle cx="1690" cy="614" r="10" class="c0"/>
<circle cx="712" cy="454" r="10" class="c0"/>
<circle cx="1410" cy="580" r="10" class="c0"/>
<circle cx="1342" cy="618" r="10" class="c0"/>
<circle cx="1776" cy="650" r="10" class="c0"/>
<circle cx="710" cy="522" r="10" class="c0"/>
<circle cx="1092" cy="570" r="10" class="c0"/>
<circle cx="916" cy="524" r="10" class="c0"/>
<circle cx="1714" cy="786" r="10" class="c0"/>
<circle cx="1638" cy="612" r="10" class="c0"/>
<circle cx="880" cy="586" r="10" class="c0"/>
<circle cx="1272" cy="576" r="10" class="c0"/>
<circle cx="1370" cy="794" r="10" class="c0"/>
<circle cx="740" cy="530" r="10" class="c0"/>
<circle cx="1750" cy="774" r="10" class="c0"/>
<circle cx="1588" cy="656" r="10" class="c0"/>
<circle cx="1882" cy="660" r="10" class="c0"/>
<circle cx="734" cy="430" r="10" class="c0"/>
<circle cx="844" cy="570" r="10" class="c0"/>
<circle cx="1066" cy="688" r="10" class="c0"/>
<circle cx="1018" cy="618" r="10" class="c0"/>
<circle cx="1576" cy="642" r="10" class="c0"/>
<circle cx="708" cy="632" r="10" class="c0"/>
<circle cx="1258" cy="556" r="10" class="c0"/>
<circle cx="1084" cy="500" r="10" class="c0"/>
<circle cx="1794" cy="662" r="10" class="c0"/>
<circle cx="730" cy="686" r="10" class="c0"/>
<circle cx="1806" cy="868" r="10" class="c0"/>
<circle cx="1552" cy="624" r="10" class="c0"/>
<circle cx="1200" cy="742" r="10" class="c0"/>
<circle cx="1632" cy="784" r="10" class="c0"/>
<circle cx="1174" cy="624" r="10" class="c0"/>
<circle cx="944" cy="542" r="10" class="c0"/>
<circle cx="1562" cy="734" r="10" class="c0"/>
<circle cx="1780" cy="720" r="10" class="c0"/>
<circle cx="1500" cy="570" r="10" class="c0"/>
<circle cx="1052" cy="650" r="10" class="c0"/>
<circle cx="1334" cy="742" r="10" class="c0"/>
<circle cx="1898" cy="674" r="10" class="c0"/>
<circle cx="640" cy="618" r="10" class="c0"/>
<circle cx="678" cy="524" r="10" class="c0"/>
<circle cx="1476" cy="630" r="10" class="c0"/>
<circle cx="1484" cy="722" r="10" class="c0"/>
<circle cx="1754" cy="644" r="10" class="c0"/>
<circle cx="1778" cy="628" r="10" class="c0"/>
<circle cx="1510" cy="650" r="10" class="c0"/>
<circle cx="1366" cy="544" r="10" class="c0"/>
<circle cx="808" cy="426" r="10" class="c0"/>
<circle cx="1488" cy="684" r="10" class="c0"/>
<circle cx="642" cy="542" r="10" class="c0"/>
<circle cx="1328" cy="550" r="10" class="c0"/>
<circle cx="1374" cy="728" r="10" class="c0"/>
<circle cx="792" cy="486" r="10" class="c0"/>
<circle cx="1830" cy="844" r="10" class="c0"/>
<circle cx="644" cy="422" r="10" class="c0"/>
<circle cx="956" cy="514" r="10" class="c0"/>
<circle cx="832" cy="626" r="10" class="c0"/>
<circle cx="1328" cy="592" r="10" class="c0"/>
<circle cx="1692" cy="706" r="10" class="c0"/>
<circle cx="812" cy="472" r="10" class="c0"/>
<circle cx="844" cy="518" r="10" class="c0"/>
<circle cx="934" cy="614" r="10" class="c0"/>
<circle cx="764" cy="658" r="10" class="c0"/>
<circle cx="1358" cy="756" r="10" class="c0"/>
<circle cx="1272" cy="622" r="10" class="c0"/>
<circle cx="740" cy="506" r="10" class="c0"/>
<circle cx="1884" cy="878" r="10" class="c0"/>
<circle cx="1350" cy="710" r="10" class="c0"/>
<circle cx="948" cy="630" r="10" class="c0"/>
<circle cx="1124" cy="588" r="10" class="c0"/>
<circle cx="1836" cy="746" r="10" class="c0"/>
<circle cx="1262" cy="794" r="10" class="c0"/>
<circle cx="1212" cy="594" r="10" class="c0"/>
<circle cx="640" cy="660" r="10" class="c0"/>
<circle cx="1250" cy="690" r="10" class="c0"/>
<circle cx="854" cy="588" r="10" class="c0"/>
<circle cx="1486" cy="656" r="10" class="c0"/>
<circle cx="844" cy="606" r="10" class="c0"/>
<circle cx="660" cy="514" r="10" class="c0"/>
<circle cx="1310" cy="720" r="10" class="c0"/>
<circle cx="1296" cy="746" r="10" class="c0"/>
<circle cx="570" cy="674" r="10" class="c0"/>
<circle cx="1864" cy="670" r="10" class="c0"/>
<circle cx="1568" cy="834" r="10" class="c0"/>
<circle cx="1726" cy="630" r="10" class="c0"/>
<circle cx="1178" cy="750" r="10" class="c0"/>
<circle cx="1126" cy="634" r="10" class="c0"/>
<circle cx="1422" cy="606" r="10" class="c0"/>
<circle cx="1302" cy="772" r="10" class="c0"/>
<circle cx="970" cy="486" r="10" class="c0"/>
<circle cx="1244" cy="724" r="10" class="c0"/>
<circle cx="1144" cy="598" r="10" class="c0"/>
<circle cx="1596" cy="708" r="10" class="c0"/>
<circle cx="1802" cy="686" r="10" class="c0"/>
<circle cx="912" cy="496" r="10" class="c0"/>
<circle cx="968" cy="540" r="10" class="c0"/>
<circle cx="1436" cy="594" r="8" class="c0"/>
<circle cx="1550" cy="752" r="8" class="c0"/>
<circle cx="770" cy="706" r="8" class="c0"/>
<circle cx="1604" cy="734" r="8" class="c0"/>
<circle cx="894" cy="568" r="8" class="c0"/>
<circle cx="1034" cy="500" r="8" class="c0"/>
<circle cx="1474" cy="836" r="8" class="c0"/>
<circle cx="1606" cy="688" r="8" class="c0"/>
<circle cx="1064" cy="636" r="8" class="c0"/>
<circle cx="1078" cy="664" r="8" class="c0"/>
<circle cx="840" cy="656" r="8" class="c0"/>
<circle cx="1660" cy="792" r="8" class="c0"/>
<circle cx="676" cy="444" r="8" class="c0"/>
<circle cx="1902" cy="708" r="8" class="c0"/>
<circle cx="1420" cy="554" r="8" class="c0"/>
<circle cx="1452" cy="752" r="8" class="c0"/>
<circle cx="1714" cy="688" r="8" class="c0"/>
<circle cx="1000" cy="630" r="8" class="c0"/>
<circle cx="1752" cy="890" r="8" class="c0"/>
<circle cx="1250" cy="808" r="8" class="c0"/>
<circle cx="1836" cy="672" r="8" class="c0"/>
<circle cx="1662" cy="756" r="8" class="c0"/>
<circle cx="1826" cy="730" r="8" class="c0"/>
<circle cx="1774" cy="896" r="8" class="c0"/>
<circle cx="1630" cy="670" r="8" class="c0"/>
<circle cx="1538" cy="672" r="8" class="c0"/>
<circle cx="738" cy="600" r="8" class="c0"/>
<circle cx="1282" cy="698" r="8" class="c0"/>
<circle cx="1438" cy="560" r="8" class="c0"/>
<circle cx="1144" cy="642" r="8" class="c0"/>
<circle cx="1448" cy="718" r="8" class="c0"/>
<circle cx="1604" cy="790" r="8" class="c0"/>
<circle cx="1606" cy="852" r="8" class="c0"/>
<circle cx="798" cy="452" r="8" class="c0"/>
<circle cx="864" cy="626" r="8" class="c0"/>
<circle cx="1756" cy="734" r="8" class="c0"/>
<circle cx="1284" cy="642" r="8" class="c0"/>
<circle cx="518" cy="548" r="8" class="c0"/>
<circle cx="1744" cy="872" r="8" class="c0"/>
<circle cx="1610" cy="752" r="8" class="c0"/>
<circle cx="1060" cy="578" r="8" class="c0"/>
<circle cx="1226" cy="742" r="8" class="c0"/>
<circle cx="1188" cy="606" r="8" class="c0"/>
<circle cx="884" cy="554" r="8" class="c0"/>
<circle cx="1348" cy="678" r="8" class="c0"/>
<circle cx="1400" cy="792" r="8" class="c0"/>
<circle cx="1774" cy="678" r="8" class="c0"/>
<circle cx="1076" cy="646" r="8" class="c0"/>
<circle cx="534" cy="420" r="8" class="c0"/>
<circle cx="1390" cy="658" r="8" class="c0"/>
<circle cx="846" cy="458" r="8" class="c0"/>
<circle cx="1780" cy="800" r="8" class="c0"/>
<circle cx="1616" cy="864" r="8" class="c0"/>
<circle cx="1870" cy="638" r="8" class="c0"/>
<circle cx="700" cy="502" r="8" class="c0"/>
<circle cx="1668" cy="808" r="8" class="c0"/>
<circle cx="1164" cy="640" r="8" class="c0"/>
<circle cx="1634" cy="708" r="8" class="c0"/>
<circle cx="808" cy="514" r="8" class="c0"/>
<circle cx="1744" cy="660" r="8" class="c0"/>
<circle cx="516" cy="416" r="8" class="c0"/>
<circle cx="1232" cy="708" r="8" class="c0"/>
<circle cx="784" cy="418" r="8" class="c0"/>
<circle cx="612" cy="440" r="8" class="c0"/>
<circle cx="830" cy="540" r="8" class="c0"/>
<circle cx="1310" cy="630" r="8" class="c0"/>
<circle cx="1098" cy="662" r="8" class="c0"/>
<circle cx="1722" cy="886" r="8" class="c0"/>
<circle cx="1470" cy="562" r="8" class="c0"/>
<circle cx="1818" cy="766" r="8" class="c0"/>
<circle cx="1128" cy="566" r="8" class="c0"/>
<circle cx="1778" cy="824" r="8" class="c0"/>
<circle cx="618" cy="412" r="8" class="c0"/>
<circle cx="1890" cy="722" r="8" class="c0"/>
<circle cx="1550" cy="848" r="8" class="c0"/>
<circle cx="966" cy="622" r="8" class="c0"/>
<circle cx="1012" cy="514" r="8" class="c0"/>
<circle cx="1444" cy="842" r="8" class="c0"/>
<circle cx="1060" cy="558" r="8" class="c0"/>
<circle cx="1874" cy="860" r="8" class="c0"/>
<circle cx="680" cy="644" r="8" class="c0"/>
<circle cx="1534" cy="638" r="8" class="c0"/>
<circle cx="1900" cy="862" r="8" class="c0"/>
<circle cx="1518" cy="768" r="8" class="c0"/>
<circle cx="770" cy="612" r="8" class="c0"/>
<circle cx="1784" cy="910" r="8" class="c0"/>
<circle cx="1120" cy="694" r="8" class="c0"/>
<circle cx="1550" cy="708" r="8" class="c0"/>
<circle cx="868" cy="510" r="8" class="c0"/>
<circle cx="1154" cy="766" r="8" class="c0"/>
<circle cx="1216" cy="766" r="8" class="c0"/>
<circle cx="762" cy="484" r="8" class="c0"/>
<circle cx="1364" cy="698" r="8" class="c0"/>
<circle cx="1028" cy="702" r="8" class="c0"/>
<circle cx="662" cy="404" r="8" class="c0"/>
<circle cx="1464" cy="710" r="8" class="c0"/>
<circle cx="722" cy="742" r="8" class="c0"/>
<circle cx="968" cy="640" r="8" class="c0"/>
<circle cx="952" cy="478" r="8" class="c0"/>
<circle cx="1636" cy="748" r="8" class="c0"/>
<circle cx="584" cy="560" r="8" class="c0"/>
<circle cx="1048" cy="624" r="8" class="c0"/>
<circle cx="1388" cy="828" r="8" class="c0"/>
<circle cx="1708" cy="720" r="8" class="c0"/>
<circle cx="600" cy="522" r="8" class="c0"/>
<circle cx="1824" cy="910" r="8" class="c0"/>
<circle cx="1024" cy="484" r="8" class="c0"/>
<circle cx="1164" cy="596" r="8" class="c0"/>
<circle cx="698" cy="762" r="8" class="c0"/>
<circle cx="760" cy="720" r="8" class="c0"/>
<circle cx="1050" cy="546" r="8" class="c0"/>
<circle cx="1440" cy="804" r="8" class="c0"/>
<circle cx="1278" cy="662" r="8" class="c0"/>
<circle cx="1244" cy="512" r="8" class="c0"/>
<circle cx="1528" cy="820" r="8" class="c0"/>
<circle cx="1212" cy="654" r="8" class="c0"/>
<circle cx="808" cy="620" r="8" class="c0"/>
<circle cx="1130" cy="670" r="8" class="c0"/>
<circle cx="966" cy="668" r="8" class="c0"/>
<circle cx="1832" cy="880" r="8" class="c0"/>
<circle cx="750" cy="442" r="8" class="c0"/>
<circle cx="1668" cy="616" r="8" class="c0"/>
<circle cx="1500" cy="798" r="8" class="c0"/>
<circle cx="1854" cy="768" r="8" class="c0"/>
<circle cx="1582" cy="682" r="8" class="c0"/>
<circle cx="1356" cy="584" r="8" class="c0"/>
<circle cx="708" cy="596" r="8" class="c0"/>
<circle cx="1226" cy="798" r="8" class="c0"/>
<circle cx="1626" cy="598" r="8" class="c0"/>
<circle cx="742" cy="550" r="8" class="c0"/>
<circle cx="1306" cy="800" r="8" class="c0"/>
<circle cx="1464" cy="674" r="8" class="c0"/>
<circle cx="1800" cy="630" r="8" class="c0"/>
<circle cx="1902" cy="780" r="8" class="c0"/>
<circle cx="702" cy="436" r="8" class="c0"/>
<circle cx="1734" cy="612" r="8" class="c0"/>
<circle cx="742" cy="482" r="8" class="c0"/>
<circle cx="1850" cy="818" r="8" class="c0"/>
<circle cx="1828" cy="652" r="8" class="c0"/>
<circle cx="1688" cy="680" r="8" class="c0"/>
<circle cx="1618" cy="654" r="8" class="c0"/>
<circle cx="730" cy="634" r="8" class="c0"/>
<circle cx="680" cy="504" r="8" class="c0"/>
<circle cx="1842" cy="696" r="8" class="c0"/>
<circle cx="1762" cy="754" r="8" class="c0"/>
<circle cx="496" cy="568" r="8" class="c0"/>
<circle cx="1824" cy="692" r="8" class="c0"/>
<circle cx="584" cy="530" r="8" class="c0"/>
<circle cx="1910" cy="850" r="8" class="c0"/>
<circle cx="1860" cy="926" r="8" class="c0"/>
<circle cx="1234" cy="594" r="8" class="c0"/>
<circle cx="1198" cy="780" r="8" class="c0"/>
<circle cx="1252" cy="632" r="8" class="c0"/>
<circle cx="1812" cy="746" r="8" class="c0"/>
<circle cx="1094" cy="694" r="8" class="c0"/>
<circle cx="1604" cy="644" r="8" class="c0"/>
<circle cx="732" cy="458" r="8" class="c0"/>
<circle cx="1774" cy="876" r="8" class="c0"/>
<circle cx="1108" cy="540" r="8" class="c0"/>
<circle cx="1782" cy="746" r="8" class="c0"/>
<circle cx="632" cy="446" r="8" class="c0"/>
<circle cx="1456" cy="828" r="8" class="c0"/>
<circle cx="1626" cy="638" r="8" class="c0"/>
<circle cx="1348" cy="646" r="8" class="c0"/>
<circle cx="1210" cy="708" r="8" class="c0"/>
<circle cx="1496" cy="624" r="8" class="c0"/>
<circle cx="1732" cy="750" r="8" class="c0"/>
<circle cx="872" cy="458" r="8" class="c0"/>
<circle cx="760" cy="524" r="8" class="c0"/>
<circle cx="1036" cy="670" r="8" class="c0"/>
<circle cx="1290" cy="678" r="8" class="c0"/>
<circle cx="564" cy="514" r="8" class="c0"/>
<circle cx="1348" cy="554" r="8" class="c0"/>
<circle cx="1848" cy="716" r="8" class="c0"/>
<circle cx="1572" cy="798" r="8" class="c0"/>
<circle cx="1236" cy="784" r="8" class="c0"/>
<circle cx="1120" cy="610" r="8" class="c0"/>
<circle cx="984" cy="474" r="8" class="c0"/>
<circle cx="1036" cy="638" r="8" class="c0"/>
<circle cx="1188" cy="688" r="8" class="c0"/>
<circle cx="836" cy="434" r="8" class="c0"/>
<circle cx="1722" cy="910" r="8" class="c0"/>
<circle cx="756" cy="586" r="8" class="c0"/>
<circle cx="1678" cy="776" r="8" class="c0"/>
<circle cx="766" cy="464" r="8" class="c0"/>
<circle cx="830" cy="668" r="8" class="c0"/>
<circle cx="1786" cy="866" r="8" class="c0"/>
<circle cx="1116" cy="650" r="8" class="c0"/>
<circle cx="1196" cy="718" r="8" class="c0"/>
<circle cx="1594" cy="628" r="8" class="c0"/>
<circle cx="592" cy="690" r="8" class="c0"/>
<circle cx="1352" cy="732" r="8" class="c0"/>
<circle cx="1402" cy="608" r="8" class="c0"/>
<circle cx="1532" cy="746" r="8" class="c0"/>
<circle cx="1140" cy="550" r="8" class="c0"/>
<circle cx="1004" cy="484" r="8" class="c0"/>
<circle cx="1366" cy="656" r="8" class="c0"/>
<circle cx="608" cy="552" r="8" class="c0"/>
<circle cx="1724" cy="650" r="8" class="c0"/>
<circle cx="1376" cy="646" r="8" class="c0"/>
<circle cx="930" cy="504" r="8" class="c0"/>
<circle cx="1420" cy="670" r="8" class="c0"/>
<circle cx="1136" cy="706" r="8" class="c0"/>
<circle cx="1536" cy="610" r="8" class="c0"/>
<circle cx="712" cy="416" r="8" class="c0"/>
<circle cx="1558" cy="682" r="8" class="c0"/>
<circle cx="908" cy="602" r="8" class="c0"/>
<circle cx="1668" cy="696" r="8" class="c0"/>
<circle cx="1294" cy="546" r="8" class="c0"/>
<circle cx="1352" cy="820" r="8" class="c0"/>
<circle cx="1318" cy="760" r="8" class="c0"/>
<circle cx="1806" cy="904" r="8" class="c0"/>
<circle cx="642" cy="398" r="8" class="c0"/>
<circle cx="1594" cy="800" r="8" class="c0"/>
<circle cx="1386" cy="590" r="8" class="c0"/>
<circle cx="1354" cy="606" r="8" class="c0"/>
<circle cx="1626" cy="878" r="8" class="c0"/>
<circle cx="1366" cy="632" r="8" class="c0"/>
<circle cx="914" cy="572" r="8" class="c0"/>
<circle cx="810" cy="676" r="8" class="c0"/>
<circle cx="1790" cy="840" r="8" class="c0"/>
<circle cx="1648" cy="830" r="8" class="c0"/>
<circle cx="1410" cy="658" r="8" class="c0"/>
<circle cx="1674" cy="870" r="8" class="c0"/>
<circle cx="1060" cy="600" r="8" class="c0"/>
<circle cx="1266" cy="768" r="8" class="c0"/>
<circle cx="866" cy="560" r="8" class="c0"/>
<circle cx="1184" cy="728" r="8" class="c0"/>
<circle cx="1068" cy="616" r="8" class="c0"/>
<circle cx="864" cy="660" r="8" class="c0"/>
<circle cx="1044" cy="510" r="8" class="c0"/>
<circle cx="1462" cy="738" r="8" class="c0"/>
<circle cx="1830" cy="782" r="8" class="c0"/>
<circle cx="1540" cy="722" r="8" class="c0"/>
<circle cx="1024" cy="650" r="8" class="c0"/>
<circle cx="1266" cy="602" r="8" class="c0"/>
<circle cx="976" cy="584" r="8" class="c0"/>
<circle cx="1140" cy="752" r="8" class="c0"/>
<circle cx="992" cy="504" r="8" class="c0"/>
<circle cx="1386" cy="808" r="8" class="c0"/>
<circle cx="1382" cy="750" r="8" class="c0"/>
<circle cx="1172" cy="580" r="8" class="c0"/>
<circle cx="1668" cy="892" r="8" class="c0"/>
<circle cx="804" cy="534" r="8" class="c0"/>
<circle cx="1450" cy="576" r="8" class="c0"/>
<circle cx="988" cy="698" r="8" class="c0"/>
<circle cx="530" cy="568" r="8" class="c0"/>
<circle cx="1810" cy="642" r="8" class="c0"/>
<circle cx="1006" cy="544" r="8" class="c0"/>
<circle cx="812" cy="496" r="8" class="c0"/>
<circle cx="676" cy="552" r="8" class="c0"/>
<circle cx="1106" cy="510" r="8" class="c0"/>
<circle cx="1804" cy="712" r="8" class="c0"/>
<circle cx="1870" cy="890" r="8" class="c0"/>
<circle cx="618" cy="670" r="8" class="c0"/>
<circle cx="880" cy="536" r="8" class="c0"/>
<circle cx="1724" cy="700" r="8" class="c0"/>
<circle cx="1598" cy="592" r="8" class="c0"/>
<circle cx="1038" cy="558" r="8" class="c0"/>
<circle cx="1060" cy="492" r="8" class="c0"/>
<circle cx="586" cy="426" r="8" class="c0"/>
<circle cx="1600" cy="872" r="8" class="c0"/>
<circle cx="746" cy="700" r="8" class="c0"/>
<circle cx="780" cy="474" r="8" class="c0"/>
<circle cx="1084" cy="706" r="8" class="c0"/>
<circle cx="1682" cy="734" r="8" class="c0"/>
<circle cx="900" cy="670" r="8" class="c0"/>
<circle cx="844" cy="638" r="8" class="c0"/>
<circle cx="1640" cy="806" r="8" class="c0"/>
<circle cx="716" cy="700" r="8" class="c0"/>
<circle cx="1508" cy="758" r="8" class="c0"/>
<circle cx="1702" cy="630" r="8" class="c0"/>
<circle cx="1190" cy="762" r="8" class="c0"/>
<circle cx="1236" cy="562" r="8" class="c0"/>
<circle cx="1654" cy="772" r="8" class="c0"/>
<circle cx="1328" cy="810" r="8" class="c0"/>
<circle cx="1698" cy="816" r="8" class="c0"/>
<circle cx="1462" cy="810" r="8" class="c0"/>
<circle cx="776" cy="560" r="8" class="c0"/>
<circle cx="962" cy="572" r="8" class="c0"/>
<circle cx="1652" cy="628" r="8" class="c0"/>
<circle cx="916" cy="642" r="8" class="c0"/>
<circle cx="814" cy="598" r="8" class="c0"/>
<circle cx="754" cy="630" r="8" class="c0"/>
<circle cx="1266" cy="672" r="8" class="c0"/>
<circle cx="1902" cy="742" r="8" class="c0"/>
<circle cx="1910" cy="690" r="8" class="c0"/>
<circle cx="614" cy="394" r="8" class="c0"/>
<circle cx="1876" cy="814" r="8" class="c0"/>
<circle cx="1480" cy="594" r="8" class="c0"/>
<circle cx="1522" cy="624" r="8" class="c0"/>
<circle cx="622" cy="540" r="8" class="c0"/>
<circle cx="1156" cy="614" r="8" class="c0"/>
<circle cx="1444" cy="616" r="8" class="c0"/>
<circle cx="1458" cy="604" r="8" class="c0"/>
<circle cx="978" cy="688" r="8" class="c0"/>
<circle cx="622" cy="430" r="8" class="c0"/>
<circle cx="1754" cy="862" r="8" class="c0"/>
<circle cx="1732" cy="670" r="8" class="c0"/>
<circle cx="648" cy="640" r="8" class="c0"/>
<circle cx="1438" cy="762" r="8" class="c0"/>
<circle cx="1814" cy="666" r="8" class="c0"/>
<circle cx="1742" cy="686" r="8" class="c0"/>
<circle cx="1866" cy="758" r="8" class="c0"/>
<circle cx="1786" cy="930" r="8" class="c0"/>
<circle cx="666" cy="660" r="8" class="c0"/>
<circle cx="1798" cy="796" r="8" class="c0"/>
<circle cx="1652" cy="738" r="8" class="c0"/>
<circle cx="1256" cy="654" r="8" class="c0"/>
<circle cx="1792" cy="814" r="8" class="c0"/>
<circle cx="1464" cy="586" r="8" class="c0"/>
<circle cx="800" cy="690" r="8" class="c0"/>
<circle cx="1762" cy="666" r="8" class="c0"/>
<circle cx="1092" cy="522" r="8" class="c0"/>
<circle cx="1420" cy="724" r="8" class="c0"/>
<circle cx="1674" cy="670" r="8" class="c0"/>
<circle cx="1290" cy="566" r="8" class="c0"/>
<circle cx="1578" cy="618" r="8" class="c0"/>
<circle cx="1518" cy="804" r="8" class="c0"/>
<circle cx="610" cy="628" r="8" class="c0"/>
<circle cx="688" cy="600" r="8" class="c0"/>
<circle cx="1316" cy="536" r="8" class="c0"/>
<circle cx="1706" cy="842" r="8" class="c0"/>
<circle cx="858" cy="500" r="8" class="c0"/>
<circle cx="1616" cy="710" r="8" class="c0"/>
<circle cx="1756" cy="822" r="8" class="c0"/>
<circle cx="1102" cy="616" r="8" class="c0"/>
<circle cx="1110" cy="560" r="8" class="c0"/>
<circle cx="1062" cy="512" r="8" class="c0"/>
<circle cx="600" cy="638" r="8" class="c0"/>
<circle cx="1288" cy="586" r="8" class="c0"/>
<circle cx="1284" cy="786" r="8" class="c0"/>
<circle cx="1538" cy="770" r="8" class="c0"/>
<circle cx="1714" cy="606" r="8" class="c0"/>
<circle cx="1514" cy="720" r="8" class="c0"/>
<circle cx="1292" cy="712" r="8" class="c0"/>
<circle cx="1704" cy="904" r="8" class="c0"/>
<circle cx="1660" cy="600" r="8" class="c0"/>
<circle cx="1488" cy="810" r="8" class="c0"/>
<circle cx="1146" cy="680" r="8" class="c0"/>
<circle cx="1640" cy="866" r="8" class="c0"/>
<circle cx="1474" cy="762" r="8" class="c0"/>
<circle cx="1048" cy="706" r="8" class="c0"/>
<circle cx="1340" cy="536" r="8" class="c0"/>
<circle cx="780" cy="602" r="8" class="c0"/>
<circle cx="1432" cy="698" r="8" class="c0"/>
<circle cx="774" cy="578" r="8" class="c0"/>
<circle cx="1910" cy="656" r="8" class="c0"/>
<circle cx="1162" cy="520" r="8" class="c0"/>
<circle cx="1408" cy="544" r="8" class="c0"/>
<circle cx="1338" cy="800" r="8" class="c0"/>
<circle cx="1876" cy="768" r="8" class="c0"/>
<circle cx="920" cy="676" r="8" class="c0"/>
<circle cx="1308" cy="676" r="8" class="c0"/>
<circle cx="740" cy="618" r="8" class="c0"/>
<circle cx="1170" cy="548" r="8" class="c0"/>
<circle cx="1754" cy="618" r="8" class="c0"/>
<circle cx="1526" cy="684" r="8" class="c0"/>
<circle cx="1360" cy="776" r="8" class="c0"/>
<circle cx="582" cy="512" r="8" class="c0"/>
<circle cx="494" cy="550" r="8" class="c0"/>
<circle cx="1326" cy="526" r="8" class="c0"/>
<circle cx="1220" cy="498" r="8" class="c0"/>
<circle cx="1154" cy="654" r="8" class="c0"/>
<circle cx="1434" cy="734" r="8" class="c0"/>
<circle cx="1810" cy="930" r="8" class="c0"/>
<circle cx="1798" cy="734" r="8" class="c0"/>
<circle cx="1454" cy="648" r="8" class="c0"/>
<circle cx="1910" cy="872" r="8" class="c0"/>
<circle cx="1718" cy="764" r="8" class="c0"/>
<circle cx="712" cy="724" r="8" class="c0"/>
<circle cx="1744" cy="796" r="8" class="c0"/>
<circle cx="604" cy="680" r="8" class="c0"/>
<circle cx="760" cy="688" r="8" class="c0"/>
<circle cx="766" cy="546" r="8" class="c0"/>
<circle cx="1294" cy="622" r="8" class="c0"/>
<circle cx="1638" cy="686" r="8" class="c0"/>
<circle cx="1334" cy="570" r="8" class="c0"/>
<circle cx="1420" cy="794" r="8" class="c0"/>
<circle cx="576" cy="412" r="8" class="c0"/>
<circle cx="1268" cy="710" r="8" class="c0"/>
<circle cx="1528" cy="660" r="8" class="c0"/>
<circle cx="1428" cy="822" r="8" class="c0"/>
<circle cx="700" cy="612" r="8" class="c0"/>
<circle cx="1682" cy="638" r="8" class="c0"/>
<circle cx="1200" cy="640" r="8" class="c0"/>
<circle cx="700" cy="740" r="8" class="c0"/>
<circle cx="538" cy="402" r="8" class="c0"/>
<circle cx="1036" cy="604" r="8" class="c0"/>
<circle cx="1472" cy="798" r="8" class="c0"/>
<circle cx="1570" cy="868" r="8" class="c0"/>
<circle cx="1518" cy="834" r="8" class="c0"/>
<circle cx="976" cy="658" r="8" class="c0"/>
<circle cx="1104" cy="590" r="8" class="c0"/>
<circle cx="1490" cy="848" r="8" class="c0"/>
<circle cx="1280" cy="518" r="8" class="c0"/>
<circle cx="1330" cy="634" r="8" class="c0"/>
<circle cx="1480" cy="702" r="8" class="c0"/>
<circle cx="990" cy="678" r="8" class="c0"/>
<circle cx="1796" cy="884" r="8" class="c0"/>
<circle cx="1040" cy="690" r="8" class="c0"/>
<circle cx="832" cy="504" r="8" class="c0"/>
<circle cx="692" cy="410" r="8" class="c0"/>
<circle cx="1078" cy="556" r="8" class="c0"/>
<circle cx="798" cy="666" r="8" class="c0"/>
<circle cx="1542" cy="830" r="8" class="c0"/>
<circle cx="504" cy="388" r="8" class="c0"/>
<circle cx="698" cy="654" r="8" class="c0"/>
<circle cx="1008" cy="700" r="6" class="c0"/>
<circle cx="1202" cy="798" r="6" class="c0"/>
<circle cx="1510" cy="788" r="6" class="c0"/>
<circle cx="1830" cy="708" r="6" class="c0"/>
<circle cx="1198" cy="672" r="6" class="c0"/>
<circle cx="1648" cy="696" r="6" class="c0"/>
<circle cx="1714" cy="668" r="6" class="c0"/>
<circle cx="1342" cy="766" r="6" class="c0"/>
<circle cx="1672" cy="744" r="6" class="c0"/>
<circle cx="1188" cy="588" r="6" class="c0"/>
<circle cx="924" cy="596" r="6" class="c0"/>
<circle cx="1896" cy="640" r="6" class="c0"/>
<circle cx="594" cy="442" r="6" class="c0"/>
<circle cx="902" cy="586" r="6" class="c0"/>
<circle cx="1184" cy="800" r="6" class="c0"/>
<circle cx="652" cy="450" r="6" class="c0"/>
<circle cx="1816" cy="888" r="6" class="c0"/>
<circle cx="1582" cy="732" r="6" class="c0"/>
<circle cx="1404" cy="762" r="6" class="c0"/>
<circle cx="1550" cy="572" r="6" class="c0"/>
<circle cx="1180" cy="712" r="6" class="c0"/>
<circle cx="1704" cy="676" r="6" class="c0"/>
<circle cx="1384" cy="538" r="6" class="c0"/>
<circle cx="1236" cy="642" r="6" class="c0"/>
<circle cx="814" cy="552" r="6" class="c0"/>
<circle cx="1054" cy="674" r="6" class="c0"/>
<circle cx="1024" cy="568" r="6" class="c0"/>
<circle cx="662" cy="626" r="6" class="c0"/>
<circle cx="830" cy="646" r="6" class="c0"/>
<circle cx="566" cy="540" r="6" class="c0"/>
<circle cx="1912" cy="732" r="6" class="c0"/>
<circle cx="1730" cy="776" r="6" class="c0"/>
<circle cx="960" cy="462" r="6" class="c0"/>
<circle cx="1168" cy="672" r="6" class="c0"/>
<circle cx="526" cy="530" r="6" class="c0"/>
<circle cx="822" cy="522" r="6" class="c0"/>
<circle cx="758" cy="502" r="6" class="c0"/>
<circle cx="1858" cy="702" r="6" class="c0"/>
<circle cx="1054" cy="528" r="6" class="c0"/>
<circle cx="1866" cy="690" r="6" class="c0"/>
<circle cx="1124" cy="534" r="6" class="c0"/>
<circle cx="1600" cy="668" r="6" class="c0"/>
<circle cx="604" cy="420" r="6" class="c0"/>
<circle cx="724" cy="494" r="6" class="c0"/>
<circle cx="1402" cy="678" r="6" class="c0"/>
<circle cx="734" cy="410" r="6" class="c0"/>
<circle cx="1470" cy="690" r="6" class="c0"/>
<circle cx="480" cy="562" r="6" class="c0"/>
<circle cx="1438" cy="662" r="6" class="c0"/>
<circle cx="830" cy="584" r="6" class="c0"/>
<circle cx="788" cy="522" r="6" class="c0"/>
<circle cx="652" cy="556" r="6" class="c0"/>
<circle cx="1902" cy="922" r="6" class="c0"/>
<circle cx="1852" cy="652" r="6" class="c0"/>
<circle cx="1908" cy="826" r="6" class="c0"/>
<circle cx="860" cy="444" r="6" class="c0"/>
<circle cx="1764" cy="804" r="6" class="c0"/>
<circle cx="1076" cy="580" r="6" class="c0"/>
<circle cx="700" cy="536" r="6" class="c0"/>
<circle cx="1328" cy="668" r="6" class="c0"/>
<circle cx="1478" cy="576" r="6" class="c0"/>
<circle cx="1310" cy="554" r="6" class="c0"/>
<circle cx="1824" cy="866" r="6" class="c0"/>
<circle cx="1410" cy="836" r="6" class="c0"/>
<circle cx="1116" cy="710" r="6" class="c0"/>
<circle cx="690" cy="622" r="6" class="c0"/>
<circle cx="1142" cy="578" r="6" class="c0"/>
<circle cx="930" cy="634" r="6" class="c0"/>
<circle cx="750" cy="468" r="6" class="c0"/>
<circle cx="1886" cy="848" r="6" class="c0"/>
<circle cx="1220" cy="782" r="6" class="c0"/>
<circle cx="1330" cy="720" r="6" class="c0"/>
<circle cx="1738" cy="900" r="6" class="c0"/>
<circle cx="1614" cy="770" r="6" class="c0"/>
<circle cx="534" cy="552" r="6" class="c0"/>
<circle cx="1262" cy="508" r="6" class="c0"/>
<circle cx="1626" cy="760" r="6" class="c0"/>
<circle cx="658" cy="434" r="6" class="c0"/>
<circle cx="910" cy="658" r="6" class="c0"/>
<circle cx="1380" cy="700" r="6" class="c0"/>
<circle cx="696" cy="556" r="6" class="c0"/>
<circle cx="1420" cy="624" r="6" class="c0"/>
<circle cx="1490" cy="756" r="6" class="c0"/>
<circle cx="694" cy="452" r="6" class="c0"/>
<circle cx="736" cy="582" r="6" class="c0"/>
<circle cx="1566" cy="578" r="6" class="c0"/>
<circle cx="1564" cy="716" r="6" class="c0"/>
<circle cx="1736" cy="834" r="6" class="c0"/>
<circle cx="514" cy="400" r="6" class="c0"/>
<circle cx="1368" cy="822" r="6" class="c0"/>
<circle cx="1706" cy="868" r="6" class="c0"/>
<circle cx="1846" cy="834" r="6" class="c0"/>
<circle cx="1912" cy="910" r="6" class="c0"/>
<circle cx="708" cy="774" r="6" class="c0"/>
<circle cx="1518" cy="572" r="6" class="c0"/>
<circle cx="1302" cy="692" r="6" class="c0"/>
<circle cx="1316" cy="740" r="6" class="c0"/>
<circle cx="1908" cy="764" r="6" class="c0"/>
<circle cx="1850" cy="794" r="6" class="c0"/>
<circle cx="730" cy="708" r="6" class="c0"/>
<circle cx="796" cy="504" r="6" class="c0"/>
<circle cx="974" cy="518" r="6" class="c0"/>
<circle cx="828" cy="488" r="6" class="c0"/>
<circle cx="1042" cy="482" r="6" class="c0"/>
<circle cx="1480" cy="744" r="6" class="c0"/>
<circle cx="718" cy="766" r="6" class="c0"/>
<circle cx="1710" cy="806" r="6" class="c0"/>
<circle cx="948" cy="498" r="6" class="c0"/>
<circle cx="782" cy="456" r="6" class="c0"/>
<circle cx="792" cy="612" r="6" class="c0"/>
<circle cx="1818" cy="806" r="6" class="c0"/>
<circle cx="1866" cy="908" r="6" class="c0"/>
<circle cx="1826" cy="626" r="6" class="c0"/>
<circle cx="1614" cy="674" r="6" class="c0"/>
<circle cx="1278" cy="552" r="6" class="c0"/>
<circle cx="952" cy="562" r="6" class="c0"/>
<circle cx="1744" cy="628" r="6" class="c0"/>
<circle cx="722" cy="588" r="6" class="c0"/>
<circle cx="726" cy="758" r="6" class="c0"/>
<circle cx="1300" cy="816" r="6" class="c0"/>
<circle cx="1222" cy="644" r="6" class="c0"/>
<circle cx="1486" cy="614" r="6" class="c0"/>
<circle cx="938" cy="464" r="6" class="c0"/>
<circle cx="1682" cy="900" r="6" class="c0"/>
<circle cx="1858" cy="876" r="6" class="c0"/>
<circle cx="982" cy="626" r="6" class="c0"/>
<circle cx="1788" cy="698" r="6" class="c0"/>
<circle cx="1892" cy="930" r="6" class="c0"/>
<circle cx="1604" cy="836" r="6" class="c0"/>
<circle cx="1888" cy="688" r="6" class="c0"/>
<circle cx="1338" cy="658" r="6" class="c0"/>
<circle cx="1282" cy="604" r="6" class="c0"/>
<circle cx="1726" cy="734" r="6" class="c0"/>
<circle cx="1700" cy="764" r="6" class="c0"/>
<circle cx="1140" cy="618" r="6" class="c0"/>
<circle cx="1468" cy="658" r="6" class="c0"/>
<circle cx="952" cy="652" r="6" class="c0"/>
<circle cx="878" cy="634" r="6" class="c0"/>
<circle cx="748" cy="740" r="6" class="c0"/>
<circle cx="914" cy="460" r="6" class="c0"/>
<circle cx="616" cy="506" r="6" class="c0"/>
<circle cx="1574" cy="816" r="6" class="c0"/>
<circle cx="1452" cy="664" r="6" class="c0"/>
<circle cx="1696" cy="832" r="6" class="c0"/>
<circle cx="1570" cy="670" r="6" class="c0"/>
<circle cx="664" cy="642" r="6" class="c0"/>
<circle cx="1288" cy="728" r="6" class="c0"/>
<circle cx="594" cy="544" r="6" class="c0"/>
<circle cx="1542" cy="688" r="6" class="c0"/>
<circle cx="942" cy="524" r="6" class="c0"/>
<circle cx="1276" cy="752" r="6" class="c0"/>
<circle cx="870" cy="526" r="6" class="c0"/>
<circle cx="1312" cy="612" r="6" class="c0"/>
<circle cx="1850" cy="682" r="6" class="c0"/>
<circle cx="1808" cy="846" r="6" class="c0"/>
<circle cx="1582" cy="788" r="6" class="c0"/>
<circle cx="1814" cy="784" r="6" class="c0"/>
<circle cx="1642" cy="660" r="6" class="c0"/>
<circle cx="784" cy="656" r="6" class="c0"/>
<circle cx="1246" cy="672" r="6" class="c0"/>
<circle cx="1886" cy="804" r="6" class="c0"/>
<circle cx="1526" cy="784" r="6" class="c0"/>
<circle cx="1798" cy="918" r="6" class="c0"/>
<circle cx="942" cy="676" r="6" class="c0"/>
<circle cx="1848" cy="886" r="6" class="c0"/>
<circle cx="1116" cy="522" r="6" class="c0"/>
<circle cx="1622" cy="684" r="6" class="c0"/>
<circle cx="726" cy="474" r="6" class="c0"/>
<circle cx="1214" cy="732" r="6" class="c0"/>
<circle cx="1774" cy="920" r="6" class="c0"/>
<circle cx="686" cy="542" r="6" class="c0"/>
<circle cx="1078" cy="628" r="6" class="c0"/>
<circle cx="1028" cy="516" r="6" class="c0"/>
<circle cx="652" cy="672" r="6" class="c0"/>
<circle cx="1084" cy="680" r="6" class="c0"/>
<circle cx="1590" cy="608" r="6" class="c0"/>
<circle cx="1880" cy="678" r="6" class="c0"/>
<circle cx="1278" cy="720" r="6" class="c0"/>
<circle cx="1516" cy="608" r="6" class="c0"/>
<circle cx="794" cy="436" r="6" class="c0"/>
<circle cx="1192" cy="626" r="6" class="c0"/>
<circle cx="1836" cy="766" r="6" class="c0"/>
<circle cx="1396" cy="692" r="6" class="c0"/>
<circle cx="1538" cy="868" r="6" class="c0"/>
<circle cx="1834" cy="826" r="6" class="c0"/>
<circle cx="772" cy="404" r="6" class="c0"/>
<circle cx="862" cy="470" r="6" class="c0"/>
<circle cx="1564" cy="608" r="6" class="c0"/>
<circle cx="1122" cy="548" r="6" class="c0"/>
<circle cx="1268" cy="644" r="6" class="c0"/>
<circle cx="1150" cy="742" r="6" class="c0"/>
<circle cx="892" cy="452" r="6" class="c0"/>
<circle cx="846" cy="674" r="6" class="c0"/>
<circle cx="934" cy="688" r="6" class="c0"/>
<circle cx="1762" cy="930" r="6" class="c0"/>
<circle cx="922" cy="468" r="6" class="c0"/>
<circle cx="1050" cy="568" r="6" class="c0"/>
<circle cx="952" cy="612" r="6" class="c0"/>
<circle cx="626" cy="558" r="6" class="c0"/>
<circle cx="1684" cy="806" r="6" class="c0"/>
<circle cx="1470" cy="782" r="6" class="c0"/>
<circle cx="1294" cy="660" r="6" class="c0"/>
<circle cx="1610" cy="882" r="6" class="c0"/>
<circle cx="1164" cy="740" r="6" class="c0"/>
<circle cx="1856" cy="748" r="6" class="c0"/>
<circle cx="1758" cy="716" r="6" class="c0"/>
<circle cx="1174" cy="768" r="6" class="c0"/>
<circle cx="662" cy="602" r="6" class="c0"/>
<circle cx="1284" cy="760" r="6" class="c0"/>
<circle cx="1356" cy="804" r="6" class="c0"/>
<circle cx="1678" cy="600" r="6" class="c0"/>
<circle cx="1092" cy="542" r="6" class="c0"/>
<circle cx="1062" cy="666" r="6" class="c0"/>
<circle cx="1554" cy="866" r="6" class="c0"/>
<circle cx="1478" cy="820" r="6" class="c0"/>
<circle cx="1458" cy="626" r="6" class="c0"/>
<circle cx="1224" cy="724" r="6" class="c0"/>
<circle cx="1222" cy="580" r="6" class="c0"/>
<circle cx="896" cy="530" r="6" class="c0"/>
<circle cx="1614" cy="588" r="6" class="c0"/>
<circle cx="548" cy="434" r="6" class="c0"/>
<circle cx="534" cy="522" r="6" class="c0"/>
<circle cx="506" cy="538" r="6" class="c0"/>
<circle cx="1198" cy="698" r="6" class="c0"/>
<circle cx="1644" cy="594" r="6" class="c0"/>
<circle cx="1016" cy="558" r="6" class="c0"/>
<circle cx="1580" cy="718" r="6" class="c0"/>
<circle cx="1010" cy="640" r="6" class="c0"/>
<circle cx="840" cy="552" r="6" class="c0"/>
<circle cx="1200" cy="578" r="6" class="c0"/>
<circle cx="720" cy="508" r="6" class="c0"/>
<circle cx="890" cy="628" r="6" class="c0"/>
<circle cx="1454" cy="556" r="6" class="c0"/>
<circle cx="1642" cy="896" r="6" class="c0"/>
<circle cx="1430" cy="574" r="6" class="c0"/>
<circle cx="1392" cy="622" r="6" class="c0"/>
<circle cx="862" cy="642" r="6" class="c0"/>
<circle cx="508" cy="558" r="6" class="c0"/>
<circle cx="824" cy="610" r="6" class="c0"/>
<circle cx="1014" cy="494" r="6" class="c0"/>
<circle cx="1122" cy="506" r="6" class="c0"/>
<circle cx="1772" cy="736" r="6" class="c0"/>
<circle cx="598" cy="506" r="6" class="c0"/>
<circle cx="830" cy="466" r="6" class="c0"/>
<circle cx="1658" cy="820" r="6" class="c0"/>
<circle cx="1344" cy="780" r="6" class="c0"/>
<circle cx="1858" cy="802" r="6" class="c0"/>
<circle cx="1234" cy="682" r="6" class="c0"/>
<circle cx="1154" cy="630" r="6" class="c0"/>
<circle cx="1770" cy="768" r="6" class="c0"/>
<circle cx="1252" cy="780" r="6" class="c0"/>
<circle cx="1790" cy="640" r="6" class="c0"/>
<circle cx="1270" cy="688" r="6" class="c0"/>
<circle cx="810" cy="580" r="6" class="c0"/>
<circle cx="1896" cy="910" r="6" class="c0"/>
<circle cx="1322" cy="620" r="6" class="c0"/>
<circle cx="1468" cy="614" r="6" class="c0"/>
<circle cx="1506" cy="844" r="6" class="c0"/>
<circle cx="1678" cy="654" r="6" class="c0"/>
<circle cx="1352" cy="790" r="6" class="c0"/>
<circle cx="646" cy="504" r="6" class="c0"/>
<circle cx="1152" cy="792" r="6" class="c0"/>
<circle cx="776" cy="536" r="6" class="c0"/>
<circle cx="1646" cy="758" r="6" class="c0"/>
<circle cx="754" cy="608" r="6" class="c0"/>
<circle cx="1524" cy="730" r="6" class="c0"/>
<circle cx="1666" cy="636" r="6" class="c0"/>
<circle cx="892" cy="598" r="6" class="c0"/>
<circle cx="1212" cy="806" r="6" class="c0"/>
<circle cx="712" cy="754" r="6" class="c0"/>
<circle cx="514" cy="570" r="6" class="c0"/>
<circle cx="1534" cy="570" r="6" class="c0"/>
<circle cx="1494" cy="640" r="6" class="c0"/>
<circle cx="728" cy="558" r="6" class="c0"/>
<circle cx="900" cy="640" r="6" class="c0"/>
<circle cx="1486" cy="560" r="6" class="c0"/>
<circle cx="882" cy="520" r="6" class="c0"/>
<circle cx="1912" cy="930" r="6" class="c0"/>
<circle cx="1132" cy="652" r="6" class="c0"/>
<circle cx="1416" cy="708" r="6" class="c0"/>
<circle cx="1100" cy="710" r="6" class="c0"/>
<circle cx="738" cy="748" r="6" class="c0"/>
<circle cx="950" cy="666" r="6" class="c0"/>
<circle cx="1796" cy="944" r="6" class="c0"/>
<circle cx="1586" cy="580" r="6" class="c0"/>
<circle cx="1234" cy="628" r="6" class="c0"/>
<circle cx="1316" cy="820" r="6" class="c0"/>
<circle cx="972" cy="504" r="6" class="c0"/>
<circle cx="1878" cy="940" r="6" class="c0"/>
<circle cx="1740" cy="736" r="6" class="c0"/>
<circle cx="1246" cy="544" r="6" class="c0"/>
<circle cx="576" cy="692" r="6" class="c0"/>
<circle cx="776" cy="722" r="6" class="c0"/>
<circle cx="1066" cy="708" r="6" class="c0"/>
<circle cx="894" cy="614" r="6" class="c0"/>
<circle cx="574" cy="384" r="6" class="c0"/>
<circle cx="1384" cy="632" r="6" class="c0"/>
<circle cx="1186" cy="514" r="6" class="c0"/>
<circle cx="1234" cy="766" r="6" class="c0"/>
<circle cx="574" cy="548" r="6" class="c0"/>
<circle cx="984" cy="642" r="6" class="c0"/>
<circle cx="1210" cy="790" r="6" class="c0"/>
<circle cx="574" cy="436" r="6" class="c0"/>
<circle cx="826" cy="422" r="6" class="c0"/>
<circle cx="1254" cy="522" r="6" class="c0"/>
<circle cx="820" cy="658" r="6" class="c0"/>
<circle cx="1430" cy="680" r="6" class="c0"/>
<circle cx="1814" cy="702" r="6" class="c0"/>
<circle cx="1634" cy="652" r="6" class="c0"/>
<circle cx="544" cy="386" r="6" class="c0"/>
<circle cx="1462" cy="848" r="6" class="c0"/>
<circle cx="1112" cy="576" r="6" class="c0"/>
<circle cx="1312" cy="702" r="6" class="c0"/>
<circle cx="916" cy="588" r="6" class="c0"/>
<circle cx="634" cy="680" r="6" class="c0"/>
<circle cx="1642" cy="640" r="6" class="c0"/>
<circle cx="626" cy="630" r="6" class="c0"/>
<circle cx="1882" cy="900" r="6" class="c0"/>
<circle cx="1752" cy="676" r="6" class="c0"/>
<circle cx="772" cy="494" r="6" class="c0"/>
<circle cx="1252" cy="708" r="6" class="c0"/>
<circle cx="1848" cy="734" r="6" class="c0"/>
<circle cx="1638" cy="766" r="6" class="c0"/>
<circle cx="1226" cy="608" r="6" class="c0"/>
<circle cx="1366" cy="594" r="6" class="c0"/>
</svg>
