<?xml version="1.0" encoding="utf-8"?>
<svg xmlns="http://www.w3.org/2000/svg"
     xmlns:xlink="http://www.w3.org/1999/xlink" width="1920" height="1440" >

            <defs>
            <style type="text/css"><![CDATA[
circle {stroke: none;}
.c0 {fill: #000000;}
]]></style>
            </defs>
<rect x="0" y="0" width="1920" height="1440" fill="white"/>
<circle cx="1036" cy="122" r="14" class="c0"/>
<circle cx="1140" cy="96" r="14" class="c0"/>
<circle cx="918" cy="114" r="14" class="c0"/>
<circle cx="900" cy="962" r="14" class="c0"/>
<circle cx="960" cy="402" r="12" class="c0"/>
<circle cx="794" cy="1076" r="12" class="c0"/>
<circle cx="1176" cy="288" r="12" class="c0"/>
<circle cx="870" cy="346" r="12" class="c0"/>
<circle cx="1068" cy="306" r="12" class="c0"/>
<circle cx="924" cy="614" r="12" class="c0"/>
<circle cx="894" cy="130" r="12" class="c0"/>
<circle cx="1068" cy="136" r="12" class="c0"/>
<circle cx="766" cy="178" r="12" class="c0"/>
<circle cx="918" cy="814" r="12" class="c0"/>
<circle cx="818" cy="462" r="12" class="c0"/>
<circle cx="1126" cy="382" r="12" class="c0"/>
<circle cx="706" cy="468" r="12" class="c0"/>
<circle cx="966" cy="240" r="12" class="c0"/>
<circle cx="922" cy="580" r="12" class="c0"/>
<circle cx="1170" cy="330" r="12" class="c0"/>
<circle cx="840" cy="434" r="12" class="c0"/>
<circle cx="952" cy="588" r="12" class="c0"/>
<circle cx="844" cy="654" r="12" class="c0"/>
<circle cx="904" cy="294" r="12" class="c0"/>
<circle cx="788" cy="354" r="12" class="c0"/>
<circle cx="754" cy="626" r="12" class="c0"/>
<circle cx="936" cy="392" r="12" class="c0"/>
<circle cx="810" cy="706" r="12" class="c0"/>
<circle cx="732" cy="552" r="12" class="c0"/>
<circle cx="896" cy="558" r="12" class="c0"/>
<circle cx="878" cy="930" r="12" class="c0"/>
<circle cx="844" cy="1038" r="12" class="c0"/>
<circle cx="1008" cy="220" r="12" class="c0"/>
<circle cx="850" cy="48" r="12" class="c0"/>
<circle cx="768" cy="1176" r="12" class="c0"/>
<circle cx="824" cy="1004" r="12" class="c0"/>
<circle cx="926" cy="736" r="12" class="c0"/>
<circle cx="654" cy="580" r="12" class="c0"/>
<circle cx="958" cy="184" r="12" class="c0"/>
<circle cx="1224" cy="44" r="12" class="c0"/>
<circle cx="1128" cy="32" r="12" class="c0"/>
<circle cx="590" cy="494" r="12" class="c0"/>
<circle cx="1076" cy="82" r="12" class="c0"/>
<circle cx="718" cy="170" r="12" class="c0"/>
<circle cx="1020" cy="106" r="12" class="c0"/>
<circle cx="870" cy="482" r="12" class="c0"/>
<circle cx="728" cy="76" r="12" class="c0"/>
<circle cx="844" cy="154" r="12" class="c0"/>
<circle cx="942" cy="804" r="12" class="c0"/>
<circle cx="628" cy="534" r="12" class="c0"/>
<circle cx="1022" cy="382" r="12" class="c0"/>
<circle cx="1184" cy="98" r="12" class="c0"/>
<circle cx="736" cy="212" r="12" class="c0"/>
<circle cx="1204" cy="252" r="12" class="c0"/>
<circle cx="1130" cy="282" r="12" class="c0"/>
<circle cx="808" cy="108" r="12" class="c0"/>
<circle cx="1072" cy="356" r="12" class="c0"/>
<circle cx="774" cy="110" r="12" class="c0"/>
<circle cx="892" cy="724" r="12" class="c0"/>
<circle cx="1030" cy="44" r="12" class="c0"/>
<circle cx="838" cy="92" r="12" class="c0"/>
<circle cx="1280" cy="94" r="12" class="c0"/>
<circle cx="858" cy="570" r="12" class="c0"/>
<circle cx="970" cy="292" r="12" class="c0"/>
<circle cx="896" cy="856" r="12" class="c0"/>
<circle cx="744" cy="264" r="12" class="c0"/>
<circle cx="908" cy="422" r="12" class="c0"/>
<circle cx="1098" cy="254" r="12" class="c0"/>
<circle cx="962" cy="698" r="12" class="c0"/>
<circle cx="816" cy="594" r="12" class="c0"/>
<circle cx="758" cy="280" r="12" class="c0"/>
<circle cx="770" cy="18" r="12" class="c0"/>
<circle cx="788" cy="32" r="12" class="c0"/>
<circle cx="896" cy="452" r="12" class="c0"/>
<circle cx="708" cy="504" r="12" class="c0"/>
<circle cx="730" cy="680" r="10" class="c0"/>
<circle cx="578" cy="530" r="10" class="c0"/>
<circle cx="996" cy="134" r="10" class="c0"/>
<circle cx="884" cy="256" r="10" class="c0"/>
<circle cx="930" cy="328" r="10" class="c0"/>
<circle cx="832" cy="920" r="10" class="c0"/>
<circle cx="914" cy="46" r="10" class="c0"/>
<circle cx="930" cy="10" r="10" class="c0"/>
<circle cx="784" cy="470" r="10" class="c0"/>
<circle cx="870" cy="992" r="10" class="c0"/>
<circle cx="924" cy="524" r="10" class="c0"/>
<circle cx="776" cy="594" r="10" class="c0"/>
<circle cx="1154" cy="62" r="10" class="c0"/>
<circle cx="956" cy="46" r="10" class="c0"/>
<circle cx="704" cy="638" r="10" class="c0"/>
<circle cx="740" cy="500" r="10" class="c0"/>
<circle cx="1190" cy="68" r="10" class="c0"/>
<circle cx="750" cy="578" r="10" class="c0"/>
<circle cx="688" cy="548" r="10" class="c0"/>
<circle cx="1258" cy="122" r="10" class="c0"/>
<circle cx="736" cy="734" r="10" class="c0"/>
<circle cx="700" cy="694" r="10" class="c0"/>
<circle cx="930" cy="68" r="10" class="c0"/>
<circle cx="1072" cy="16" r="10" class="c0"/>
<circle cx="1306" cy="50" r="10" class="c0"/>
<circle cx="808" cy="188" r="10" class="c0"/>
<circle cx="734" cy="284" r="10" class="c0"/>
<circle cx="798" cy="398" r="10" class="c0"/>
<circle cx="898" cy="882" r="10" class="c0"/>
<circle cx="802" cy="314" r="10" class="c0"/>
<circle cx="902" cy="752" r="10" class="c0"/>
<circle cx="840" cy="536" r="10" class="c0"/>
<circle cx="840" cy="18" r="10" class="c0"/>
<circle cx="846" cy="934" r="10" class="c0"/>
<circle cx="1116" cy="228" r="10" class="c0"/>
<circle cx="718" cy="722" r="10" class="c0"/>
<circle cx="768" cy="136" r="10" class="c0"/>
<circle cx="886" cy="212" r="10" class="c0"/>
<circle cx="768" cy="370" r="10" class="c0"/>
<circle cx="1132" cy="198" r="10" class="c0"/>
<circle cx="844" cy="228" r="10" class="c0"/>
<circle cx="716" cy="304" r="10" class="c0"/>
<circle cx="806" cy="1030" r="10" class="c0"/>
<circle cx="948" cy="712" r="10" class="c0"/>
<circle cx="1028" cy="20" r="10" class="c0"/>
<circle cx="766" cy="672" r="10" class="c0"/>
<circle cx="636" cy="602" r="10" class="c0"/>
<circle cx="650" cy="514" r="10" class="c0"/>
<circle cx="778" cy="424" r="10" class="c0"/>
<circle cx="818" cy="1092" r="10" class="c0"/>
<circle cx="1098" cy="392" r="10" class="c0"/>
<circle cx="672" cy="404" r="10" class="c0"/>
<circle cx="768" cy="1116" r="10" class="c0"/>
<circle cx="636" cy="678" r="10" class="c0"/>
<circle cx="1196" cy="34" r="10" class="c0"/>
<circle cx="858" cy="630" r="10" class="c0"/>
<circle cx="864" cy="958" r="10" class="c0"/>
<circle cx="768" cy="642" r="10" class="c0"/>
<circle cx="886" cy="684" r="10" class="c0"/>
<circle cx="936" cy="270" r="10" class="c0"/>
<circle cx="770" cy="230" r="10" class="c0"/>
<circle cx="1090" cy="288" r="10" class="c0"/>
<circle cx="1104" cy="332" r="10" class="c0"/>
<circle cx="1342" cy="14" r="10" class="c0"/>
<circle cx="964" cy="662" r="10" class="c0"/>
<circle cx="870" cy="134" r="10" class="c0"/>
<circle cx="814" cy="34" r="10" class="c0"/>
<circle cx="926" cy="498" r="10" class="c0"/>
<circle cx="760" cy="338" r="10" class="c0"/>
<circle cx="622" cy="450" r="10" class="c0"/>
<circle cx="920" cy="672" r="10" class="c0"/>
<circle cx="1302" cy="82" r="10" class="c0"/>
<circle cx="1040" cy="232" r="10" class="c0"/>
<circle cx="744" cy="10" r="10" class="c0"/>
<circle cx="1288" cy="12" r="10" class="c0"/>
<circle cx="928" cy="200" r="10" class="c0"/>
<circle cx="984" cy="28" r="10" class="c0"/>
<circle cx="602" cy="556" r="10" class="c0"/>
<circle cx="1110" cy="66" r="10" class="c0"/>
<circle cx="750" cy="164" r="10" class="c0"/>
<circle cx="988" cy="352" r="10" class="c0"/>
<circle cx="846" cy="312" r="10" class="c0"/>
<circle cx="876" cy="298" r="10" class="c0"/>
<circle cx="776" cy="1148" r="10" class="c0"/>
<circle cx="1192" cy="316" r="10" class="c0"/>
<circle cx="1128" cy="346" r="10" class="c0"/>
<circle cx="1176" cy="254" r="10" class="c0"/>
<circle cx="756" cy="412" r="10" class="c0"/>
<circle cx="840" cy="698" r="10" class="c0"/>
<circle cx="1008" cy="310" r="10" class="c0"/>
<circle cx="742" cy="450" r="10" class="c0"/>
<circle cx="794" cy="450" r="10" class="c0"/>
<circle cx="1148" cy="134" r="10" class="c0"/>
<circle cx="802" cy="288" r="10" class="c0"/>
<circle cx="1052" cy="28" r="10" class="c0"/>
<circle cx="996" cy="194" r="10" class="c0"/>
<circle cx="796" cy="238" r="10" class="c0"/>
<circle cx="1054" cy="220" r="10" class="c0"/>
<circle cx="814" cy="644" r="10" class="c0"/>
<circle cx="1248" cy="32" r="10" class="c0"/>
<circle cx="808" cy="672" r="10" class="c0"/>
<circle cx="646" cy="416" r="10" class="c0"/>
<circle cx="1040" cy="284" r="10" class="c0"/>
<circle cx="936" cy="96" r="10" class="c0"/>
<circle cx="1070" cy="38" r="10" class="c0"/>
<circle cx="902" cy="504" r="10" class="c0"/>
<circle cx="896" cy="352" r="10" class="c0"/>
<circle cx="1006" cy="262" r="10" class="c0"/>
<circle cx="798" cy="562" r="10" class="c0"/>
<circle cx="838" cy="1072" r="10" class="c0"/>
<circle cx="714" cy="54" r="10" class="c0"/>
<circle cx="778" cy="60" r="10" class="c0"/>
<circle cx="1186" cy="228" r="10" class="c0"/>
<circle cx="972" cy="442" r="10" class="c0"/>
<circle cx="868" cy="392" r="10" class="c0"/>
<circle cx="930" cy="304" r="10" class="c0"/>
<circle cx="952" cy="506" r="10" class="c0"/>
<circle cx="680" cy="596" r="10" class="c0"/>
<circle cx="936" cy="160" r="10" class="c0"/>
<circle cx="680" cy="376" r="10" class="c0"/>
<circle cx="872" cy="834" r="10" class="c0"/>
<circle cx="1218" cy="86" r="10" class="c0"/>
<circle cx="830" cy="560" r="10" class="c0"/>
<circle cx="900" cy="482" r="10" class="c0"/>
<circle cx="1432" cy="36" r="10" class="c0"/>
<circle cx="802" cy="1148" r="10" class="c0"/>
<circle cx="1106" cy="158" r="10" class="c0"/>
<circle cx="736" cy="604" r="10" class="c0"/>
<circle cx="988" cy="420" r="10" class="c0"/>
<circle cx="788" cy="260" r="10" class="c0"/>
<circle cx="1400" cy="30" r="10" class="c0"/>
<circle cx="748" cy="378" r="10" class="c0"/>
<circle cx="1018" cy="76" r="10" class="c0"/>
<circle cx="1220" cy="180" r="10" class="c0"/>
<circle cx="888" cy="796" r="10" class="c0"/>
<circle cx="870" cy="892" r="10" class="c0"/>
<circle cx="1160" cy="232" r="10" class="c0"/>
<circle cx="994" cy="328" r="10" class="c0"/>
<circle cx="958" cy="358" r="10" class="c0"/>
<circle cx="732" cy="478" r="10" class="c0"/>
<circle cx="826" cy="346" r="10" class="c0"/>
<circle cx="1366" cy="14" r="10" class="c0"/>
<circle cx="882" cy="744" r="10" class="c0"/>
<circle cx="994" cy="444" r="10" class="c0"/>
<circle cx="872" cy="32" r="10" class="c0"/>
<circle cx="856" cy="406" r="10" class="c0"/>
<circle cx="872" cy="82" r="10" class="c0"/>
<circle cx="784" cy="1098" r="10" class="c0"/>
<circle cx="864" cy="446" r="10" class="c0"/>
<circle cx="680" cy="568" r="10" class="c0"/>
<circle cx="664" cy="528" r="10" class="c0"/>
<circle cx="848" cy="996" r="10" class="c0"/>
<circle cx="922" cy="790" r="10" class="c0"/>
<circle cx="906" cy="708" r="10" class="c0"/>
<circle cx="1098" cy="96" r="10" class="c0"/>
<circle cx="848" cy="360" r="10" class="c0"/>
<circle cx="1074" cy="108" r="10" class="c0"/>
<circle cx="840" cy="970" r="10" class="c0"/>
<circle cx="936" cy="352" r="10" class="c0"/>
<circle cx="596" cy="632" r="10" class="c0"/>
<circle cx="708" cy="406" r="10" class="c0"/>
<circle cx="972" cy="64" r="10" class="c0"/>
<circle cx="764" cy="542" r="10" class="c0"/>
<circle cx="798" cy="144" r="10" class="c0"/>
<circle cx="914" cy="258" r="10" class="c0"/>
<circle cx="880" cy="654" r="10" class="c0"/>
<circle cx="858" cy="598" r="10" class="c0"/>
<circle cx="756" cy="464" r="10" class="c0"/>
<circle cx="1328" cy="48" r="10" class="c0"/>
<circle cx="796" cy="632" r="10" class="c0"/>
<circle cx="1010" cy="56" r="10" class="c0"/>
<circle cx="1084" cy="238" r="10" class="c0"/>
<circle cx="716" cy="196" r="10" class="c0"/>
<circle cx="862" cy="206" r="10" class="c0"/>
<circle cx="1074" cy="270" r="10" class="c0"/>
<circle cx="854" cy="862" r="10" class="c0"/>
<circle cx="1218" cy="126" r="10" class="c0"/>
<circle cx="920" cy="874" r="10" class="c0"/>
<circle cx="1050" cy="194" r="10" class="c0"/>
<circle cx="936" cy="134" r="10" class="c0"/>
<circle cx="912" cy="158" r="10" class="c0"/>
<circle cx="754" cy="98" r="10" class="c0"/>
<circle cx="774" cy="496" r="10" class="c0"/>
<circle cx="1164" cy="150" r="10" class="c0"/>
<circle cx="1142" cy="16" r="8" class="c0"/>
<circle cx="774" cy="574" r="8" class="c0"/>
<circle cx="1232" cy="196" r="8" class="c0"/>
<circle cx="1136" cy="322" r="8" class="c0"/>
<circle cx="786" cy="676" r="8" class="c0"/>
<circle cx="656" cy="690" r="8" class="c0"/>
<circle cx="1018" cy="162" r="8" class="c0"/>
<circle cx="758" cy="720" r="8" class="c0"/>
<circle cx="686" cy="662" r="8" class="c0"/>
<circle cx="818" cy="130" r="8" class="c0"/>
<circle cx="702" cy="566" r="8" class="c0"/>
<circle cx="1044" cy="96" r="8" class="c0"/>
<circle cx="758" cy="50" r="8" class="c0"/>
<circle cx="1040" cy="310" r="8" class="c0"/>
<circle cx="1118" cy="176" r="8" class="c0"/>
<circle cx="780" cy="1056" r="8" class="c0"/>
<circle cx="892" cy="188" r="8" class="c0"/>
<circle cx="814" cy="496" r="8" class="c0"/>
<circle cx="1202" cy="12" r="8" class="c0"/>
<circle cx="1250" cy="52" r="8" class="c0"/>
<circle cx="1348" cy="74" r="8" class="c0"/>
<circle cx="944" cy="216" r="8" class="c0"/>
<circle cx="730" cy="318" r="8" class="c0"/>
<circle cx="1090" cy="124" r="8" class="c0"/>
<circle cx="592" cy="516" r="8" class="c0"/>
<circle cx="816" cy="224" r="8" class="c0"/>
<circle cx="1018" cy="344" r="8" class="c0"/>
<circle cx="794" cy="512" r="8" class="c0"/>
<circle cx="782" cy="522" r="8" class="c0"/>
<circle cx="764" cy="514" r="8" class="c0"/>
<circle cx="840" cy="502" r="8" class="c0"/>
<circle cx="1016" cy="290" r="8" class="c0"/>
<circle cx="836" cy="124" r="8" class="c0"/>
<circle cx="766" cy="308" r="8" class="c0"/>
<circle cx="1190" cy="122" r="8" class="c0"/>
<circle cx="658" cy="472" r="8" class="c0"/>
<circle cx="844" cy="464" r="8" class="c0"/>
<circle cx="870" cy="372" r="8" class="c0"/>
<circle cx="788" cy="326" r="8" class="c0"/>
<circle cx="710" cy="244" r="8" class="c0"/>
<circle cx="1124" cy="256" r="8" class="c0"/>
<circle cx="998" cy="166" r="8" class="c0"/>
<circle cx="684" cy="444" r="8" class="c0"/>
<circle cx="684" cy="522" r="8" class="c0"/>
<circle cx="904" cy="72" r="8" class="c0"/>
<circle cx="676" cy="478" r="8" class="c0"/>
<circle cx="794" cy="582" r="8" class="c0"/>
<circle cx="890" cy="384" r="8" class="c0"/>
<circle cx="1086" cy="408" r="8" class="c0"/>
<circle cx="1366" cy="46" r="8" class="c0"/>
<circle cx="654" cy="642" r="8" class="c0"/>
<circle cx="894" cy="608" r="8" class="c0"/>
<circle cx="1100" cy="180" r="8" class="c0"/>
<circle cx="1006" cy="12" r="8" class="c0"/>
<circle cx="798" cy="420" r="8" class="c0"/>
<circle cx="1216" cy="204" r="8" class="c0"/>
<circle cx="932" cy="858" r="8" class="c0"/>
<circle cx="742" cy="754" r="8" class="c0"/>
<circle cx="1044" cy="376" r="8" class="c0"/>
<circle cx="1120" cy="300" r="8" class="c0"/>
<circle cx="958" cy="18" r="8" class="c0"/>
<circle cx="1144" cy="370" r="8" class="c0"/>
<circle cx="794" cy="1126" r="8" class="c0"/>
<circle cx="782" cy="286" r="8" class="c0"/>
<circle cx="882" cy="536" r="8" class="c0"/>
<circle cx="830" cy="260" r="8" class="c0"/>
<circle cx="894" cy="234" r="8" class="c0"/>
<circle cx="1020" cy="406" r="8" class="c0"/>
<circle cx="952" cy="746" r="8" class="c0"/>
<circle cx="934" cy="474" r="8" class="c0"/>
<circle cx="880" cy="102" r="8" class="c0"/>
<circle cx="1052" cy="70" r="8" class="c0"/>
<circle cx="994" cy="290" r="8" class="c0"/>
<circle cx="706" cy="530" r="8" class="c0"/>
<circle cx="1492" cy="10" r="8" class="c0"/>
<circle cx="1146" cy="334" r="8" class="c0"/>
<circle cx="970" cy="514" r="8" class="c0"/>
<circle cx="938" cy="456" r="8" class="c0"/>
<circle cx="1068" cy="162" r="8" class="c0"/>
<circle cx="1084" cy="56" r="8" class="c0"/>
<circle cx="798" cy="1050" r="8" class="c0"/>
<circle cx="1028" cy="438" r="8" class="c0"/>
<circle cx="1218" cy="268" r="8" class="c0"/>
<circle cx="838" cy="896" r="8" class="c0"/>
<circle cx="860" cy="68" r="8" class="c0"/>
<circle cx="892" cy="18" r="8" class="c0"/>
<circle cx="1048" cy="326" r="8" class="c0"/>
<circle cx="1324" cy="78" r="8" class="c0"/>
<circle cx="614" cy="648" r="8" class="c0"/>
<circle cx="1042" cy="420" r="8" class="c0"/>
<circle cx="642" cy="656" r="8" class="c0"/>
<circle cx="1084" cy="214" r="8" class="c0"/>
<circle cx="976" cy="602" r="8" class="c0"/>
<circle cx="734" cy="108" r="8" class="c0"/>
<circle cx="1422" cy="52" r="8" class="c0"/>
<circle cx="956" cy="466" r="8" class="c0"/>
<circle cx="888" cy="982" r="8" class="c0"/>
<circle cx="590" cy="606" r="8" class="c0"/>
<circle cx="714" cy="262" r="8" class="c0"/>
<circle cx="874" cy="192" r="8" class="c0"/>
<circle cx="682" cy="634" r="8" class="c0"/>
<circle cx="934" cy="552" r="8" class="c0"/>
<circle cx="632" cy="646" r="8" class="c0"/>
<circle cx="1214" cy="234" r="8" class="c0"/>
<circle cx="1192" cy="196" r="8" class="c0"/>
<circle cx="1200" cy="296" r="8" class="c0"/>
<circle cx="1092" cy="344" r="8" class="c0"/>
<circle cx="848" cy="264" r="8" class="c0"/>
<circle cx="716" cy="582" r="8" class="c0"/>
<circle cx="1176" cy="172" r="8" class="c0"/>
<circle cx="950" cy="628" r="8" class="c0"/>
<circle cx="824" cy="396" r="8" class="c0"/>
<circle cx="918" cy="224" r="8" class="c0"/>
<circle cx="1048" cy="156" r="8" class="c0"/>
<circle cx="866" cy="522" r="8" class="c0"/>
<circle cx="1072" cy="388" r="8" class="c0"/>
<circle cx="778" cy="706" r="8" class="c0"/>
<circle cx="1218" cy="148" r="8" class="c0"/>
<circle cx="1242" cy="170" r="8" class="c0"/>
<circle cx="622" cy="510" r="8" class="c0"/>
<circle cx="1158" cy="298" r="8" class="c0"/>
<circle cx="800" cy="536" r="8" class="c0"/>
<circle cx="978" cy="86" r="8" class="c0"/>
<circle cx="866" cy="788" r="8" class="c0"/>
<circle cx="1466" cy="30" r="8" class="c0"/>
<circle cx="736" cy="640" r="8" class="c0"/>
<circle cx="1100" cy="38" r="8" class="c0"/>
<circle cx="910" cy="178" r="8" class="c0"/>
<circle cx="900" cy="630" r="8" class="c0"/>
<circle cx="882" cy="412" r="8" class="c0"/>
<circle cx="968" cy="316" r="8" class="c0"/>
<circle cx="1204" cy="162" r="8" class="c0"/>
<circle cx="912" cy="540" r="8" class="c0"/>
<circle cx="936" cy="234" r="8" class="c0"/>
<circle cx="1144" cy="252" r="8" class="c0"/>
<circle cx="808" cy="64" r="8" class="c0"/>
<circle cx="696" cy="434" r="8" class="c0"/>
<circle cx="952" cy="772" r="8" class="c0"/>
<circle cx="900" cy="584" r="8" class="c0"/>
<circle cx="746" cy="34" r="8" class="c0"/>
<circle cx="1150" cy="34" r="8" class="c0"/>
<circle cx="946" cy="288" r="8" class="c0"/>
<circle cx="1022" cy="206" r="8" class="c0"/>
<circle cx="602" cy="460" r="8" class="c0"/>
<circle cx="692" cy="616" r="8" class="c0"/>
<circle cx="954" cy="430" r="8" class="c0"/>
<circle cx="1132" cy="166" r="8" class="c0"/>
<circle cx="708" cy="8" r="8" class="c0"/>
<circle cx="716" cy="668" r="8" class="c0"/>
<circle cx="818" cy="248" r="8" class="c0"/>
<circle cx="1128" cy="142" r="8" class="c0"/>
<circle cx="900" cy="932" r="8" class="c0"/>
<circle cx="1232" cy="64" r="8" class="c0"/>
<circle cx="718" cy="432" r="8" class="c0"/>
<circle cx="726" cy="42" r="8" class="c0"/>
<circle cx="838" cy="284" r="8" class="c0"/>
<circle cx="1254" cy="100" r="8" class="c0"/>
<circle cx="610" cy="432" r="8" class="c0"/>
<circle cx="888" cy="44" r="8" class="c0"/>
<circle cx="762" cy="442" r="8" class="c0"/>
<circle cx="720" cy="350" r="8" class="c0"/>
<circle cx="742" cy="62" r="8" class="c0"/>
<circle cx="752" cy="700" r="8" class="c0"/>
<circle cx="1048" cy="350" r="8" class="c0"/>
<circle cx="764" cy="202" r="8" class="c0"/>
<circle cx="858" cy="324" r="8" class="c0"/>
<circle cx="742" cy="128" r="8" class="c0"/>
<circle cx="1108" cy="202" r="8" class="c0"/>
<circle cx="1188" cy="154" r="8" class="c0"/>
<circle cx="1270" cy="34" r="8" class="c0"/>
<circle cx="1046" cy="394" r="8" class="c0"/>
<circle cx="818" cy="1062" r="8" class="c0"/>
<circle cx="788" cy="652" r="8" class="c0"/>
<circle cx="860" cy="918" r="8" class="c0"/>
<circle cx="986" cy="118" r="8" class="c0"/>
<circle cx="578" cy="562" r="8" class="c0"/>
<circle cx="1114" cy="358" r="8" class="c0"/>
<circle cx="806" cy="210" r="8" class="c0"/>
<circle cx="788" cy="216" r="8" class="c0"/>
<circle cx="814" cy="366" r="8" class="c0"/>
<circle cx="872" cy="170" r="8" class="c0"/>
<circle cx="914" cy="912" r="8" class="c0"/>
<circle cx="898" cy="318" r="8" class="c0"/>
<circle cx="1034" cy="254" r="8" class="c0"/>
<circle cx="1156" cy="344" r="8" class="c0"/>
<circle cx="788" cy="78" r="8" class="c0"/>
<circle cx="640" cy="460" r="8" class="c0"/>
<circle cx="864" cy="678" r="8" class="c0"/>
<circle cx="870" cy="422" r="8" class="c0"/>
<circle cx="830" cy="56" r="8" class="c0"/>
<circle cx="788" cy="612" r="8" class="c0"/>
<circle cx="600" cy="582" r="8" class="c0"/>
<circle cx="858" cy="498" r="8" class="c0"/>
<circle cx="892" cy="92" r="8" class="c0"/>
<circle cx="636" cy="562" r="8" class="c0"/>
<circle cx="652" cy="548" r="8" class="c0"/>
<circle cx="940" cy="834" r="8" class="c0"/>
<circle cx="1372" cy="68" r="8" class="c0"/>
<circle cx="586" cy="470" r="8" class="c0"/>
<circle cx="1390" cy="14" r="8" class="c0"/>
<circle cx="1010" cy="428" r="8" class="c0"/>
<circle cx="1174" cy="214" r="8" class="c0"/>
<circle cx="734" cy="364" r="8" class="c0"/>
<circle cx="666" cy="668" r="8" class="c0"/>
<circle cx="662" cy="496" r="8" class="c0"/>
<circle cx="1070" cy="204" r="8" class="c0"/>
<circle cx="822" cy="620" r="8" class="c0"/>
<circle cx="1024" cy="142" r="8" class="c0"/>
<circle cx="1270" cy="62" r="8" class="c0"/>
<circle cx="1130" cy="56" r="8" class="c0"/>
<circle cx="772" cy="454" r="8" class="c0"/>
<circle cx="1148" cy="270" r="8" class="c0"/>
<circle cx="750" cy="656" r="8" class="c0"/>
<circle cx="814" cy="386" r="8" class="c0"/>
<circle cx="1248" cy="188" r="8" class="c0"/>
<circle cx="1316" cy="32" r="8" class="c0"/>
<circle cx="1408" cy="10" r="8" class="c0"/>
<circle cx="1172" cy="80" r="8" class="c0"/>
<circle cx="1226" cy="108" r="8" class="c0"/>
<circle cx="888" cy="280" r="8" class="c0"/>
<circle cx="878" cy="462" r="8" class="c0"/>
<circle cx="1144" cy="220" r="8" class="c0"/>
<circle cx="764" cy="1072" r="8" class="c0"/>
<circle cx="776" cy="392" r="8" class="c0"/>
<circle cx="956" cy="206" r="8" class="c0"/>
<circle cx="1224" cy="220" r="8" class="c0"/>
<circle cx="824" cy="314" r="8" class="c0"/>
<circle cx="860" cy="542" r="8" class="c0"/>
<circle cx="1354" cy="28" r="8" class="c0"/>
<circle cx="946" cy="538" r="8" class="c0"/>
<circle cx="712" cy="114" r="8" class="c0"/>
<circle cx="816" cy="414" r="8" class="c0"/>
<circle cx="980" cy="384" r="8" class="c0"/>
<circle cx="830" cy="1052" r="8" class="c0"/>
<circle cx="908" cy="772" r="8" class="c0"/>
<circle cx="894" cy="822" r="8" class="c0"/>
<circle cx="638" cy="438" r="8" class="c0"/>
<circle cx="1024" cy="320" r="8" class="c0"/>
<circle cx="1464" cy="12" r="8" class="c0"/>
<circle cx="646" cy="622" r="8" class="c0"/>
<circle cx="1150" cy="188" r="8" class="c0"/>
<circle cx="670" cy="430" r="8" class="c0"/>
<circle cx="974" cy="152" r="8" class="c0"/>
<circle cx="742" cy="528" r="8" class="c0"/>
<circle cx="1428" cy="16" r="8" class="c0"/>
<circle cx="740" cy="340" r="8" class="c0"/>
<circle cx="1078" cy="176" r="8" class="c0"/>
<circle cx="880" cy="574" r="8" class="c0"/>
<circle cx="966" cy="126" r="8" class="c0"/>
<circle cx="1516" cy="8" r="8" class="c0"/>
<circle cx="1244" cy="142" r="8" class="c0"/>
<circle cx="706" cy="380" r="8" class="c0"/>
<circle cx="792" cy="376" r="8" class="c0"/>
<circle cx="838" cy="484" r="8" class="c0"/>
<circle cx="1178" cy="24" r="8" class="c0"/>
<circle cx="624" cy="614" r="8" class="c0"/>
<circle cx="1174" cy="132" r="8" class="c0"/>
<circle cx="614" cy="482" r="8" class="c0"/>
<circle cx="1050" cy="262" r="8" class="c0"/>
<circle cx="1226" cy="12" r="8" class="c0"/>
<circle cx="978" cy="474" r="8" class="c0"/>
<circle cx="984" cy="264" r="8" class="c0"/>
<circle cx="638" cy="484" r="8" class="c0"/>
<circle cx="1082" cy="374" r="8" class="c0"/>
<circle cx="862" cy="114" r="8" class="c0"/>
<circle cx="820" cy="540" r="8" class="c0"/>
<circle cx="818" cy="954" r="8" class="c0"/>
<circle cx="944" cy="676" r="8" class="c0"/>
<circle cx="1164" cy="118" r="8" class="c0"/>
<circle cx="878" cy="972" r="8" class="c0"/>
<circle cx="720" cy="232" r="8" class="c0"/>
<circle cx="676" cy="690" r="8" class="c0"/>
<circle cx="708" cy="32" r="8" class="c0"/>
<circle cx="840" cy="584" r="8" class="c0"/>
<circle cx="652" cy="380" r="8" class="c0"/>
<circle cx="1026" cy="272" r="8" class="c0"/>
<circle cx="908" cy="394" r="8" class="c0"/>
<circle cx="796" cy="10" r="8" class="c0"/>
<circle cx="910" cy="372" r="8" class="c0"/>
<circle cx="936" cy="44" r="8" class="c0"/>
<circle cx="952" cy="332" r="8" class="c0"/>
<circle cx="798" cy="172" r="8" class="c0"/>
<circle cx="966" cy="572" r="8" class="c0"/>
<circle cx="1270" cy="138" r="8" class="c0"/>
<circle cx="976" cy="626" r="8" class="c0"/>
<circle cx="738" cy="428" r="8" class="c0"/>
<circle cx="664" cy="448" r="8" class="c0"/>
<circle cx="1068" cy="186" r="8" class="c0"/>
<circle cx="864" cy="272" r="8" class="c0"/>
<circle cx="1386" cy="48" r="8" class="c0"/>
<circle cx="996" cy="100" r="8" class="c0"/>
<circle cx="754" cy="242" r="8" class="c0"/>
<circle cx="996" cy="396" r="8" class="c0"/>
<circle cx="720" cy="140" r="8" class="c0"/>
<circle cx="1254" cy="10" r="8" class="c0"/>
<circle cx="844" cy="192" r="8" class="c0"/>
<circle cx="1058" cy="246" r="8" class="c0"/>
<circle cx="628" cy="584" r="8" class="c0"/>
<circle cx="1156" cy="206" r="8" class="c0"/>
<circle cx="1258" cy="76" r="8" class="c0"/>
<circle cx="946" cy="114" r="8" class="c0"/>
<circle cx="932" cy="688" r="8" class="c0"/>
<circle cx="672" cy="614" r="8" class="c0"/>
<circle cx="972" cy="338" r="8" class="c0"/>
<circle cx="1108" cy="312" r="8" class="c0"/>
<circle cx="726" cy="702" r="8" class="c0"/>
<circle cx="1296" cy="30" r="8" class="c0"/>
<circle cx="914" cy="470" r="8" class="c0"/>
<circle cx="1134" cy="122" r="8" class="c0"/>
<circle cx="956" cy="162" r="8" class="c0"/>
<circle cx="1024" cy="182" r="8" class="c0"/>
<circle cx="976" cy="196" r="8" class="c0"/>
<circle cx="728" cy="408" r="8" class="c0"/>
<circle cx="1002" cy="374" r="8" class="c0"/>
<circle cx="1194" cy="270" r="8" class="c0"/>
<circle cx="754" cy="484" r="8" class="c0"/>
<circle cx="954" cy="82" r="8" class="c0"/>
<circle cx="968" cy="106" r="8" class="c0"/>
<circle cx="834" cy="384" r="8" class="c0"/>
<circle cx="694" cy="484" r="8" class="c0"/>
<circle cx="886" cy="768" r="8" class="c0"/>
<circle cx="972" cy="214" r="8" class="c0"/>
<circle cx="1068" cy="412" r="8" class="c0"/>
<circle cx="790" cy="720" r="8" class="c0"/>
<circle cx="1316" cy="8" r="8" class="c0"/>
<circle cx="1202" cy="214" r="8" class="c0"/>
<circle cx="1404" cy="56" r="8" class="c0"/>
<circle cx="936" cy="428" r="8" class="c0"/>
<circle cx="794" cy="694" r="8" class="c0"/>
<circle cx="796" cy="124" r="8" class="c0"/>
<circle cx="968" cy="550" r="8" class="c0"/>
<circle cx="742" cy="186" r="8" class="c0"/>
<circle cx="864" cy="234" r="8" class="c0"/>
<circle cx="914" cy="840" r="8" class="c0"/>
<circle cx="964" cy="616" r="8" class="c0"/>
<circle cx="1294" cy="62" r="8" class="c0"/>
<circle cx="842" cy="878" r="8" class="c0"/>
<circle cx="658" cy="602" r="8" class="c0"/>
<circle cx="788" cy="1160" r="8" class="c0"/>
<circle cx="710" cy="600" r="8" class="c0"/>
<circle cx="746" cy="1144" r="8" class="c0"/>
<circle cx="1168" cy="48" r="8" class="c0"/>
<circle cx="860" cy="20" r="8" class="c0"/>
<circle cx="904" cy="652" r="8" class="c0"/>
<circle cx="1094" cy="20" r="8" class="c0"/>
<circle cx="994" cy="72" r="8" class="c0"/>
<circle cx="818" cy="172" r="8" class="c0"/>
<circle cx="884" cy="598" r="8" class="c0"/>
<circle cx="1110" cy="270" r="8" class="c0"/>
<circle cx="690" cy="392" r="8" class="c0"/>
<circle cx="924" cy="446" r="8" class="c0"/>
<circle cx="826" cy="518" r="8" class="c0"/>
<circle cx="872" cy="554" r="8" class="c0"/>
<circle cx="756" cy="72" r="8" class="c0"/>
<circle cx="828" cy="674" r="8" class="c0"/>
<circle cx="956" cy="306" r="8" class="c0"/>
<circle cx="804" cy="1116" r="8" class="c0"/>
<circle cx="922" cy="638" r="8" class="c0"/>
<circle cx="724" cy="518" r="8" class="c0"/>
<circle cx="1242" cy="224" r="8" class="c0"/>
<circle cx="802" cy="486" r="8" class="c0"/>
<circle cx="788" cy="162" r="8" class="c0"/>
<circle cx="878" cy="872" r="8" class="c0"/>
<circle cx="834" cy="410" r="8" class="c0"/>
<circle cx="784" cy="544" r="8" class="c0"/>
<circle cx="734" cy="244" r="8" class="c0"/>
<circle cx="916" cy="22" r="8" class="c0"/>
<circle cx="1146" cy="312" r="8" class="c0"/>
<circle cx="880" cy="622" r="8" class="c0"/>
<circle cx="1286" cy="46" r="8" class="c0"/>
<circle cx="1034" cy="360" r="8" class="c0"/>
<circle cx="752" cy="1098" r="8" class="c0"/>
<circle cx="1240" cy="82" r="8" class="c0"/>
<circle cx="862" cy="1012" r="8" class="c0"/>
<circle cx="582" cy="584" r="8" class="c0"/>
<circle cx="616" cy="668" r="8" class="c0"/>
<circle cx="816" cy="272" r="8" class="c0"/>
<circle cx="958" cy="144" r="8" class="c0"/>
<circle cx="1014" cy="454" r="8" class="c0"/>
<circle cx="962" cy="484" r="8" class="c0"/>
<circle cx="972" cy="494" r="8" class="c0"/>
<circle cx="1082" cy="152" r="8" class="c0"/>
<circle cx="956" cy="378" r="8" class="c0"/>
<circle cx="786" cy="190" r="8" class="c0"/>
<circle cx="752" cy="358" r="8" class="c0"/>
<circle cx="834" cy="610" r="8" class="c0"/>
<circle cx="1260" cy="154" r="8" class="c0"/>
<circle cx="1082" cy="324" r="8" class="c0"/>
<circle cx="864" cy="806" r="8" class="c0"/>
<circle cx="930" cy="760" r="8" class="c0"/>
<circle cx="850" cy="514" r="8" class="c0"/>
<circle cx="1040" cy="172" r="8" class="c0"/>
<circle cx="974" cy="8" r="8" class="c0"/>
<circle cx="718" cy="390" r="8" class="c0"/>
<circle cx="820" cy="148" r="8" class="c0"/>
<circle cx="726" cy="630" r="8" class="c0"/>
<circle cx="828" cy="982" r="8" class="c0"/>
<circle cx="720" cy="454" r="8" class="c0"/>
<circle cx="602" cy="528" r="8" class="c0"/>
<circle cx="820" cy="936" r="8" class="c0"/>
<circle cx="994" cy="46" r="8" class="c0"/>
<circle cx="1060" cy="432" r="8" class="c0"/>
<circle cx="944" cy="28" r="8" class="c0"/>
<circle cx="886" cy="432" r="8" class="c0"/>
<circle cx="878" cy="506" r="8" class="c0"/>
<circle cx="1092" cy="364" r="8" class="c0"/>
<circle cx="1112" cy="12" r="8" class="c0"/>
<circle cx="1206" cy="108" r="8" class="c0"/>
<circle cx="816" cy="330" r="8" class="c0"/>
<circle cx="898" cy="528" r="8" class="c0"/>
<circle cx="756" cy="1154" r="8" class="c0"/>
<circle cx="874" cy="58" r="8" class="c0"/>
<circle cx="822" cy="202" r="8" class="c0"/>
<circle cx="984" cy="180" r="8" class="c0"/>
<circle cx="988" cy="228" r="8" class="c0"/>
<circle cx="720" cy="22" r="8" class="c0"/>
<circle cx="854" cy="172" r="8" class="c0"/>
<circle cx="886" cy="910" r="8" class="c0"/>
<circle cx="898" cy="992" r="8" class="c0"/>
<circle cx="1006" cy="36" r="8" class="c0"/>
<circle cx="1020" cy="240" r="8" class="c0"/>
<circle cx="778" cy="622" r="8" class="c0"/>
<circle cx="1108" cy="132" r="8" class="c0"/>
<circle cx="684" cy="496" r="8" class="c0"/>
<circle cx="1120" cy="110" r="8" class="c0"/>
<circle cx="1348" cy="52" r="8" class="c0"/>
<circle cx="818" cy="84" r="8" class="c0"/>
<circle cx="634" cy="402" r="8" class="c0"/>
<circle cx="618" cy="570" r="8" class="c0"/>
<circle cx="910" cy="340" r="8" class="c0"/>
<circle cx="944" cy="648" r="8" class="c0"/>
<circle cx="1062" cy="378" r="8" class="c0"/>
<circle cx="1194" cy="176" r="8" class="c0"/>
<circle cx="614" cy="624" r="8" class="c0"/>
<circle cx="828" cy="184" r="8" class="c0"/>
<circle cx="746" cy="300" r="8" class="c0"/>
<circle cx="1132" cy="238" r="8" class="c0"/>
<circle cx="946" cy="564" r="8" class="c0"/>
<circle cx="914" cy="82" r="8" class="c0"/>
<circle cx="786" cy="304" r="8" class="c0"/>
<circle cx="962" cy="642" r="8" class="c0"/>
<circle cx="1280" cy="72" r="6" class="c0"/>
<circle cx="1042" cy="60" r="6" class="c0"/>
<circle cx="906" cy="8" r="6" class="c0"/>
<circle cx="770" cy="258" r="6" class="c0"/>
<circle cx="922" cy="242" r="6" class="c0"/>
<circle cx="1064" cy="286" r="6" class="c0"/>
<circle cx="848" cy="680" r="6" class="c0"/>
<circle cx="1450" cy="20" r="6" class="c0"/>
<circle cx="818" cy="574" r="6" class="c0"/>
<circle cx="1048" cy="444" r="6" class="c0"/>
<circle cx="850" cy="134" r="6" class="c0"/>
<circle cx="1098" cy="226" r="6" class="c0"/>
<circle cx="1018" cy="362" r="6" class="c0"/>
<circle cx="908" cy="202" r="6" class="c0"/>
<circle cx="1004" cy="116" r="6" class="c0"/>
<circle cx="844" cy="334" r="6" class="c0"/>
<circle cx="674" cy="648" r="6" class="c0"/>
<circle cx="694" cy="676" r="6" class="c0"/>
<circle cx="928" cy="176" r="6" class="c0"/>
<circle cx="906" cy="682" r="6" class="c0"/>
<circle cx="1004" cy="410" r="6" class="c0"/>
<circle cx="814" cy="438" r="6" class="c0"/>
<circle cx="732" cy="576" r="6" class="c0"/>
<circle cx="806" cy="340" r="6" class="c0"/>
<circle cx="982" cy="308" r="6" class="c0"/>
<circle cx="830" cy="634" r="6" class="c0"/>
<circle cx="924" cy="714" r="6" class="c0"/>
<circle cx="608" cy="598" r="6" class="c0"/>
<circle cx="820" cy="8" r="6" class="c0"/>
<circle cx="1312" cy="98" r="6" class="c0"/>
<circle cx="1438" cy="6" r="6" class="c0"/>
<circle cx="1330" cy="94" r="6" class="c0"/>
<circle cx="914" cy="598" r="6" class="c0"/>
<circle cx="1178" cy="188" r="6" class="c0"/>
<circle cx="1194" cy="138" r="6" class="c0"/>
<circle cx="956" cy="266" r="6" class="c0"/>
<circle cx="940" cy="604" r="6" class="c0"/>
<circle cx="900" cy="670" r="6" class="c0"/>
<circle cx="862" cy="976" r="6" class="c0"/>
<circle cx="884" cy="704" r="6" class="c0"/>
<circle cx="716" cy="278" r="6" class="c0"/>
<circle cx="1066" cy="330" r="6" class="c0"/>
<circle cx="832" cy="214" r="6" class="c0"/>
<circle cx="724" cy="748" r="6" class="c0"/>
<circle cx="932" cy="660" r="6" class="c0"/>
<circle cx="876" cy="152" r="6" class="c0"/>
<circle cx="712" cy="546" r="6" class="c0"/>
<circle cx="744" cy="1170" r="6" class="c0"/>
<circle cx="882" cy="950" r="6" class="c0"/>
<circle cx="712" cy="322" r="6" class="c0"/>
<circle cx="916" cy="894" r="6" class="c0"/>
<circle cx="684" cy="462" r="6" class="c0"/>
<circle cx="976" cy="368" r="6" class="c0"/>
<circle cx="598" cy="650" r="6" class="c0"/>
<circle cx="996" cy="246" r="6" class="c0"/>
<circle cx="776" cy="686" r="6" class="c0"/>
<circle cx="732" cy="662" r="6" class="c0"/>
<circle cx="1124" cy="76" r="6" class="c0"/>
<circle cx="858" cy="288" r="6" class="c0"/>
<circle cx="1186" cy="6" r="6" class="c0"/>
<circle cx="1160" cy="20" r="6" class="c0"/>
<circle cx="872" cy="6" r="6" class="c0"/>
<circle cx="1378" cy="26" r="6" class="c0"/>
<circle cx="898" cy="34" r="6" class="c0"/>
<circle cx="1050" cy="50" r="6" class="c0"/>
<circle cx="1148" cy="162" r="6" class="c0"/>
<circle cx="928" cy="412" r="6" class="c0"/>
<circle cx="1216" cy="22" r="6" class="c0"/>
<circle cx="748" cy="676" r="6" class="c0"/>
<circle cx="622" cy="422" r="6" class="c0"/>
<circle cx="898" cy="268" r="6" class="c0"/>
<circle cx="606" cy="508" r="6" class="c0"/>
<circle cx="700" cy="588" r="6" class="c0"/>
<circle cx="1068" cy="230" r="6" class="c0"/>
<circle cx="872" cy="854" r="6" class="c0"/>
<circle cx="1060" cy="92" r="6" class="c0"/>
<circle cx="970" cy="720" r="6" class="c0"/>
<circle cx="870" cy="612" r="6" class="c0"/>
<circle cx="1392" cy="68" r="6" class="c0"/>
<circle cx="832" cy="328" r="6" class="c0"/>
<circle cx="956" cy="524" r="6" class="c0"/>
<circle cx="1008" cy="90" r="6" class="c0"/>
<circle cx="756" cy="1128" r="6" class="c0"/>
<circle cx="720" cy="566" r="6" class="c0"/>
<circle cx="1036" cy="340" r="6" class="c0"/>
<circle cx="902" cy="902" r="6" class="c0"/>
<circle cx="942" cy="250" r="6" class="c0"/>
<circle cx="918" cy="358" r="6" class="c0"/>
<circle cx="728" cy="380" r="6" class="c0"/>
<circle cx="760" cy="390" r="6" class="c0"/>
<circle cx="922" cy="700" r="6" class="c0"/>
<circle cx="1056" cy="114" r="6" class="c0"/>
<circle cx="1170" cy="6" r="6" class="c0"/>
<circle cx="752" cy="146" r="6" class="c0"/>
<circle cx="964" cy="760" r="6" class="c0"/>
<circle cx="1154" cy="82" r="6" class="c0"/>
<circle cx="898" cy="406" r="6" class="c0"/>
<circle cx="1338" cy="86" r="6" class="c0"/>
<circle cx="1128" cy="216" r="6" class="c0"/>
<circle cx="714" cy="98" r="6" class="c0"/>
<circle cx="1208" cy="60" r="6" class="c0"/>
<circle cx="654" cy="434" r="6" class="c0"/>
<circle cx="1234" cy="154" r="6" class="c0"/>
<circle cx="1216" cy="68" r="6" class="c0"/>
<circle cx="1092" cy="310" r="6" class="c0"/>
<circle cx="900" cy="56" r="6" class="c0"/>
<circle cx="672" cy="510" r="6" class="c0"/>
<circle cx="812" cy="1164" r="6" class="c0"/>
<circle cx="1480" cy="20" r="6" class="c0"/>
<circle cx="934" cy="372" r="6" class="c0"/>
<circle cx="990" cy="462" r="6" class="c0"/>
<circle cx="738" cy="392" r="6" class="c0"/>
<circle cx="836" cy="36" r="6" class="c0"/>
<circle cx="866" cy="252" r="6" class="c0"/>
<circle cx="948" cy="62" r="6" class="c0"/>
<circle cx="1118" cy="94" r="6" class="c0"/>
<circle cx="836" cy="948" r="6" class="c0"/>
<circle cx="720" cy="648" r="6" class="c0"/>
<circle cx="872" cy="316" r="6" class="c0"/>
<circle cx="1204" cy="280" r="6" class="c0"/>
<circle cx="800" cy="50" r="6" class="c0"/>
<circle cx="760" cy="602" r="6" class="c0"/>
<circle cx="1102" cy="374" r="6" class="c0"/>
<circle cx="708" cy="444" r="6" class="c0"/>
<circle cx="850" cy="908" r="6" class="c0"/>
<circle cx="870" cy="586" r="6" class="c0"/>
<circle cx="768" cy="1088" r="6" class="c0"/>
<circle cx="964" cy="736" r="6" class="c0"/>
<circle cx="1162" cy="98" r="6" class="c0"/>
<circle cx="738" cy="712" r="6" class="c0"/>
<circle cx="1166" cy="354" r="6" class="c0"/>
<circle cx="892" cy="160" r="6" class="c0"/>
<circle cx="882" cy="330" r="6" class="c0"/>
<circle cx="842" cy="1018" r="6" class="c0"/>
<circle cx="820" cy="1040" r="6" class="c0"/>
<circle cx="806" cy="258" r="6" class="c0"/>
<circle cx="918" cy="278" r="6" class="c0"/>
<circle cx="686" cy="418" r="6" class="c0"/>
<circle cx="852" cy="380" r="6" class="c0"/>
<circle cx="856" cy="844" r="6" class="c0"/>
<circle cx="862" cy="96" r="6" class="c0"/>
<circle cx="622" cy="554" r="6" class="c0"/>
<circle cx="990" cy="10" r="6" class="c0"/>
<circle cx="836" cy="72" r="6" class="c0"/>
<circle cx="770" cy="90" r="6" class="c0"/>
<circle cx="738" cy="150" r="6" class="c0"/>
<circle cx="1188" cy="50" r="6" class="c0"/>
<circle cx="1078" cy="426" r="6" class="c0"/>
<circle cx="878" cy="118" r="6" class="c0"/>
<circle cx="1026" cy="302" r="6" class="c0"/>
<circle cx="750" cy="316" r="6" class="c0"/>
<circle cx="942" cy="316" r="6" class="c0"/>
<circle cx="916" cy="556" r="6" class="c0"/>
<circle cx="810" cy="524" r="6" class="c0"/>
<circle cx="888" cy="518" r="6" class="c0"/>
<circle cx="820" cy="688" r="6" class="c0"/>
<circle cx="916" cy="138" r="6" class="c0"/>
<circle cx="1008" cy="178" r="6" class="c0"/>
<circle cx="916" cy="318" r="6" class="c0"/>
<circle cx="768" cy="696" r="6" class="c0"/>
<circle cx="1008" cy="152" r="6" class="c0"/>
<circle cx="852" cy="104" r="6" class="c0"/>
<circle cx="774" cy="556" r="6" class="c0"/>
<circle cx="888" cy="68" r="6" class="c0"/>
<circle cx="838" cy="174" r="6" class="c0"/>
<circle cx="834" cy="242" r="6" class="c0"/>
<circle cx="1092" cy="140" r="6" class="c0"/>
<circle cx="870" cy="772" r="6" class="c0"/>
<circle cx="1092" cy="194" r="6" class="c0"/>
<circle cx="1200" cy="82" r="6" class="c0"/>
<circle cx="806" cy="614" r="6" class="c0"/>
<circle cx="772" cy="42" r="6" class="c0"/>
<circle cx="788" cy="1186" r="6" class="c0"/>
<circle cx="710" cy="130" r="6" class="c0"/>
<circle cx="778" cy="150" r="6" class="c0"/>
<circle cx="590" cy="544" r="6" class="c0"/>
<circle cx="1044" cy="10" r="6" class="c0"/>
<circle cx="1068" cy="62" r="6" class="c0"/>
<circle cx="1268" cy="18" r="6" class="c0"/>
<circle cx="766" cy="156" r="6" class="c0"/>
<circle cx="1032" cy="86" r="6" class="c0"/>
<circle cx="974" cy="170" r="6" class="c0"/>
<circle cx="974" cy="532" r="6" class="c0"/>
<circle cx="664" cy="560" r="6" class="c0"/>
<circle cx="808" cy="162" r="6" class="c0"/>
<circle cx="1340" cy="36" r="6" class="c0"/>
<circle cx="914" cy="942" r="6" class="c0"/>
<circle cx="1240" cy="124" r="6" class="c0"/>
<circle cx="752" cy="222" r="6" class="c0"/>
<circle cx="708" cy="216" r="6" class="c0"/>
<circle cx="668" cy="704" r="6" class="c0"/>
<circle cx="1026" cy="422" r="6" class="c0"/>
<circle cx="1038" cy="212" r="6" class="c0"/>
<circle cx="820" cy="298" r="6" class="c0"/>
<circle cx="834" cy="300" r="6" class="c0"/>
<circle cx="976" cy="46" r="6" class="c0"/>
<circle cx="852" cy="244" r="6" class="c0"/>
<circle cx="1032" cy="196" r="6" class="c0"/>
<circle cx="714" cy="620" r="6" class="c0"/>
<circle cx="1108" cy="290" r="6" class="c0"/>
<circle cx="1170" cy="196" r="6" class="c0"/>
<circle cx="932" cy="776" r="6" class="c0"/>
<circle cx="756" cy="558" r="6" class="c0"/>
<circle cx="904" cy="788" r="6" class="c0"/>
<circle cx="886" cy="492" r="6" class="c0"/>
<circle cx="1338" cy="62" r="6" class="c0"/>
<circle cx="1166" cy="268" r="6" class="c0"/>
<circle cx="796" cy="598" r="6" class="c0"/>
<circle cx="828" cy="110" r="6" class="c0"/>
<circle cx="856" cy="824" r="6" class="c0"/>
<circle cx="1202" cy="146" r="6" class="c0"/>
<circle cx="798" cy="88" r="6" class="c0"/>
<circle cx="822" cy="482" r="6" class="c0"/>
<circle cx="770" cy="324" r="6" class="c0"/>
<circle cx="826" cy="1028" r="6" class="c0"/>
<circle cx="1172" cy="308" r="6" class="c0"/>
<circle cx="734" cy="768" r="6" class="c0"/>
<circle cx="802" cy="1100" r="6" class="c0"/>
<circle cx="718" cy="334" r="6" class="c0"/>
<circle cx="628" cy="470" r="6" class="c0"/>
<circle cx="1138" cy="70" r="6" class="c0"/>
<circle cx="802" cy="1012" r="6" class="c0"/>
<circle cx="744" cy="232" r="6" class="c0"/>
<circle cx="860" cy="1028" r="6" class="c0"/>
<circle cx="756" cy="120" r="6" class="c0"/>
<circle cx="824" cy="658" r="6" class="c0"/>
<circle cx="926" cy="34" r="6" class="c0"/>
<circle cx="1058" cy="174" r="6" class="c0"/>
<circle cx="954" cy="450" r="6" class="c0"/>
<circle cx="1332" cy="28" r="6" class="c0"/>
<circle cx="1034" cy="68" r="6" class="c0"/>
<circle cx="980" cy="404" r="6" class="c0"/>
<circle cx="1314" cy="68" r="6" class="c0"/>
<circle cx="1360" cy="84" r="6" class="c0"/>
<circle cx="876" cy="816" r="6" class="c0"/>
<circle cx="886" cy="366" r="6" class="c0"/>
<circle cx="634" cy="500" r="6" class="c0"/>
<circle cx="1112" cy="48" r="6" class="c0"/>
<circle cx="1244" cy="110" r="6" class="c0"/>
<circle cx="1014" cy="128" r="6" class="c0"/>
<circle cx="1140" cy="46" r="6" class="c0"/>
<circle cx="786" cy="1038" r="6" class="c0"/>
<circle cx="946" cy="488" r="6" class="c0"/>
<circle cx="710" cy="150" r="6" class="c0"/>
<circle cx="1008" cy="354" r="6" class="c0"/>
<circle cx="668" cy="546" r="6" class="c0"/>
<circle cx="1142" cy="296" r="6" class="c0"/>
<circle cx="724" cy="6" r="6" class="c0"/>
<circle cx="1152" cy="6" r="6" class="c0"/>
<circle cx="816" cy="970" r="6" class="c0"/>
<circle cx="1092" cy="72" r="6" class="c0"/>
<circle cx="968" cy="420" r="6" class="c0"/>
<circle cx="722" cy="534" r="6" class="c0"/>
<circle cx="694" cy="346" r="6" class="c0"/>
<circle cx="662" cy="628" r="6" class="c0"/>
<circle cx="976" cy="136" r="6" class="c0"/>
<circle cx="826" cy="234" r="6" class="c0"/>
<circle cx="1058" cy="340" r="6" class="c0"/>
<circle cx="950" cy="730" r="6" class="c0"/>
<circle cx="954" cy="790" r="6" class="c0"/>
<circle cx="578" cy="508" r="6" class="c0"/>
<circle cx="1226" cy="252" r="6" class="c0"/>
<circle cx="902" cy="220" r="6" class="c0"/>
<circle cx="670" cy="358" r="6" class="c0"/>
<circle cx="1158" cy="170" r="6" class="c0"/>
<circle cx="650" cy="398" r="6" class="c0"/>
<circle cx="1216" cy="286" r="6" class="c0"/>
<circle cx="850" cy="1058" r="6" class="c0"/>
<circle cx="1452" cy="38" r="6" class="c0"/>
<circle cx="760" cy="1194" r="6" class="c0"/>
<circle cx="946" cy="416" r="6" class="c0"/>
<circle cx="862" cy="662" r="6" class="c0"/>
<circle cx="702" cy="660" r="6" class="c0"/>
<circle cx="1298" cy="106" r="6" class="c0"/>
<circle cx="1272" cy="112" r="6" class="c0"/>
<circle cx="630" cy="630" r="6" class="c0"/>
<circle cx="972" cy="682" r="6" class="c0"/>
<circle cx="860" cy="466" r="6" class="c0"/>
<circle cx="624" cy="492" r="6" class="c0"/>
<circle cx="914" cy="692" r="6" class="c0"/>
<circle cx="768" cy="610" r="6" class="c0"/>
<circle cx="1086" cy="6" r="6" class="c0"/>
<circle cx="752" cy="1186" r="6" class="c0"/>
<circle cx="1158" cy="260" r="6" class="c0"/>
<circle cx="990" cy="212" r="6" class="c0"/>
<circle cx="926" cy="286" r="6" class="c0"/>
<circle cx="710" cy="364" r="6" class="c0"/>
<circle cx="1236" cy="98" r="6" class="c0"/>
<circle cx="786" cy="96" r="6" class="c0"/>
<circle cx="968" cy="260" r="6" class="c0"/>
<circle cx="764" cy="1136" r="6" class="c0"/>
<circle cx="1032" cy="454" r="6" class="c0"/>
<circle cx="1140" cy="152" r="6" class="c0"/>
<circle cx="708" cy="288" r="6" class="c0"/>
<circle cx="924" cy="146" r="6" class="c0"/>
<circle cx="1118" cy="322" r="6" class="c0"/>
<circle cx="916" cy="928" r="6" class="c0"/>
<circle cx="778" cy="1130" r="6" class="c0"/>
<circle cx="774" cy="724" r="6" class="c0"/>
<circle cx="918" cy="404" r="6" class="c0"/>
<circle cx="1050" cy="298" r="6" class="c0"/>
<circle cx="718" cy="488" r="6" class="c0"/>
<circle cx="592" cy="444" r="6" class="c0"/>
<circle cx="976" cy="584" r="6" class="c0"/>
<circle cx="604" cy="614" r="6" class="c0"/>
<circle cx="662" cy="390" r="6" class="c0"/>
<circle cx="840" cy="626" r="6" class="c0"/>
<circle cx="812" cy="16" r="6" class="c0"/>
<circle cx="724" cy="124" r="6" class="c0"/>
<circle cx="1132" cy="6" r="6" class="c0"/>
<circle cx="720" cy="372" r="6" class="c0"/>
<circle cx="954" cy="226" r="6" class="c0"/>
<circle cx="876" cy="712" r="6" class="c0"/>
<circle cx="948" cy="6" r="6" class="c0"/>
<circle cx="852" cy="6" r="6" class="c0"/>
<circle cx="1306" cy="20" r="6" class="c0"/>
<circle cx="904" cy="244" r="6" class="c0"/>
<circle cx="696" cy="366" r="6" class="c0"/>
<circle cx="694" cy="454" r="6" class="c0"/>
<circle cx="1102" cy="114" r="6" class="c0"/>
<circle cx="942" cy="522" r="6" class="c0"/>
<circle cx="1052" cy="410" r="6" class="c0"/>
<circle cx="874" cy="224" r="6" class="c0"/>
<circle cx="896" cy="108" r="6" class="c0"/>
<circle cx="938" cy="186" r="6" class="c0"/>
<circle cx="1090" cy="166" r="6" class="c0"/>
<circle cx="948" cy="612" r="6" class="c0"/>
<circle cx="850" cy="78" r="6" class="c0"/>
<circle cx="844" cy="394" r="6" class="c0"/>
<circle cx="852" cy="888" r="6" class="c0"/>
<circle cx="850" cy="614" r="6" class="c0"/>
<circle cx="1036" cy="404" r="6" class="c0"/>
<circle cx="692" cy="580" r="6" class="c0"/>
<circle cx="830" cy="368" r="6" class="c0"/>
<circle cx="848" cy="552" r="6" class="c0"/>
<circle cx="932" cy="596" r="6" class="c0"/>
<circle cx="1158" cy="280" r="6" class="c0"/>
<circle cx="890" cy="640" r="6" class="c0"/>
<circle cx="608" cy="416" r="6" class="c0"/>
<circle cx="1166" cy="182" r="6" class="c0"/>
<circle cx="872" cy="758" r="6" class="c0"/>
<circle cx="1058" cy="6" r="6" class="c0"/>
<circle cx="966" cy="32" r="6" class="c0"/>
<circle cx="568" cy="550" r="6" class="c0"/>
<circle cx="1154" cy="360" r="6" class="c0"/>
<circle cx="940" cy="784" r="6" class="c0"/>
<circle cx="1014" cy="192" r="6" class="c0"/>
<circle cx="810" cy="550" r="6" class="c0"/>
<circle cx="812" cy="990" r="6" class="c0"/>
<circle cx="796" cy="200" r="6" class="c0"/>
</svg>
