<?xml version="1.0" encoding="utf-8"?>
<svg xmlns="http://www.w3.org/2000/svg"
     xmlns:xlink="http://www.w3.org/1999/xlink" width="1920" height="1440" >

            <defs>
            <style type="text/css"><![CDATA[
circle {stroke: none;}
.c0 {fill: #000000;}
]]></style>
            </defs>
<rect x="0" y="0" width="1920" height="1440" fill="white"/>
<circle cx="754" cy="662" r="12" class="c0"/>
<circle cx="802" cy="578" r="12" class="c0"/>
<circle cx="792" cy="236" r="12" class="c0"/>
<circle cx="862" cy="434" r="12" class="c0"/>
<circle cx="830" cy="524" r="12" class="c0"/>
<circle cx="804" cy="122" r="12" class="c0"/>
<circle cx="980" cy="178" r="12" class="c0"/>
<circle cx="822" cy="634" r="12" class="c0"/>
<circle cx="980" cy="52" r="12" class="c0"/>
<circle cx="796" cy="442" r="12" class="c0"/>
<circle cx="816" cy="406" r="12" class="c0"/>
<circle cx="822" cy="160" r="12" class="c0"/>
<circle cx="824" cy="342" r="12" class="c0"/>
<circle cx="814" cy="60" r="12" class="c0"/>
<circle cx="860" cy="264" r="12" class="c0"/>
<circle cx="786" cy="208" r="12" class="c0"/>
<circle cx="776" cy="426" r="12" class="c0"/>
<circle cx="830" cy="450" r="12" class="c0"/>
<circle cx="800" cy="44" r="12" class="c0"/>
<circle cx="764" cy="354" r="12" class="c0"/>
<circle cx="1030" cy="104" r="12" class="c0"/>
<circle cx="834" cy="318" r="12" class="c0"/>
<circle cx="844" cy="380" r="12" class="c0"/>
<circle cx="974" cy="10" r="10" class="c0"/>
<circle cx="868" cy="154" r="10" class="c0"/>
<circle cx="870" cy="378" r="10" class="c0"/>
<circle cx="866" cy="122" r="10" class="c0"/>
<circle cx="882" cy="362" r="10" class="c0"/>
<circle cx="924" cy="24" r="10" class="c0"/>
<circle cx="746" cy="160" r="10" class="c0"/>
<circle cx="782" cy="110" r="10" class="c0"/>
<circle cx="798" cy="670" r="10" class="c0"/>
<circle cx="774" cy="476" r="10" class="c0"/>
<circle cx="886" cy="62" r="10" class="c0"/>
<circle cx="828" cy="488" r="10" class="c0"/>
<circle cx="882" cy="12" r="10" class="c0"/>
<circle cx="752" cy="478" r="10" class="c0"/>
<circle cx="938" cy="220" r="10" class="c0"/>
<circle cx="752" cy="442" r="10" class="c0"/>
<circle cx="908" cy="150" r="10" class="c0"/>
<circle cx="698" cy="382" r="10" class="c0"/>
<circle cx="848" cy="418" r="10" class="c0"/>
<circle cx="934" cy="186" r="10" class="c0"/>
<circle cx="838" cy="662" r="10" class="c0"/>
<circle cx="810" cy="376" r="10" class="c0"/>
<circle cx="938" cy="156" r="10" class="c0"/>
<circle cx="882" cy="292" r="10" class="c0"/>
<circle cx="882" cy="202" r="10" class="c0"/>
<circle cx="794" cy="700" r="10" class="c0"/>
<circle cx="894" cy="398" r="10" class="c0"/>
<circle cx="764" cy="402" r="10" class="c0"/>
<circle cx="816" cy="748" r="10" class="c0"/>
<circle cx="984" cy="110" r="10" class="c0"/>
<circle cx="852" cy="298" r="10" class="c0"/>
<circle cx="694" cy="442" r="10" class="c0"/>
<circle cx="802" cy="766" r="10" class="c0"/>
<circle cx="776" cy="74" r="10" class="c0"/>
<circle cx="904" cy="320" r="10" class="c0"/>
<circle cx="860" cy="688" r="10" class="c0"/>
<circle cx="836" cy="284" r="10" class="c0"/>
<circle cx="960" cy="200" r="10" class="c0"/>
<circle cx="964" cy="238" r="10" class="c0"/>
<circle cx="998" cy="144" r="10" class="c0"/>
<circle cx="694" cy="410" r="10" class="c0"/>
<circle cx="772" cy="382" r="10" class="c0"/>
<circle cx="820" cy="686" r="10" class="c0"/>
<circle cx="762" cy="556" r="10" class="c0"/>
<circle cx="758" cy="42" r="10" class="c0"/>
<circle cx="780" cy="686" r="10" class="c0"/>
<circle cx="862" cy="488" r="10" class="c0"/>
<circle cx="836" cy="18" r="10" class="c0"/>
<circle cx="812" cy="508" r="10" class="c0"/>
<circle cx="706" cy="362" r="10" class="c0"/>
<circle cx="920" cy="172" r="10" class="c0"/>
<circle cx="764" cy="518" r="10" class="c0"/>
<circle cx="778" cy="150" r="10" class="c0"/>
<circle cx="840" cy="130" r="10" class="c0"/>
<circle cx="826" cy="186" r="10" class="c0"/>
<circle cx="838" cy="236" r="10" class="c0"/>
<circle cx="972" cy="212" r="10" class="c0"/>
<circle cx="868" cy="510" r="10" class="c0"/>
<circle cx="822" cy="270" r="10" class="c0"/>
<circle cx="920" cy="118" r="10" class="c0"/>
<circle cx="828" cy="780" r="10" class="c0"/>
<circle cx="834" cy="214" r="10" class="c0"/>
<circle cx="778" cy="30" r="10" class="c0"/>
<circle cx="860" cy="346" r="10" class="c0"/>
<circle cx="738" cy="420" r="10" class="c0"/>
<circle cx="796" cy="618" r="10" class="c0"/>
<circle cx="838" cy="86" r="10" class="c0"/>
<circle cx="860" cy="32" r="10" class="c0"/>
<circle cx="894" cy="134" r="10" class="c0"/>
<circle cx="810" cy="550" r="10" class="c0"/>
<circle cx="852" cy="712" r="10" class="c0"/>
<circle cx="914" cy="258" r="10" class="c0"/>
<circle cx="716" cy="124" r="10" class="c0"/>
<circle cx="744" cy="136" r="10" class="c0"/>
<circle cx="730" cy="496" r="10" class="c0"/>
<circle cx="848" cy="616" r="10" class="c0"/>
<circle cx="710" cy="480" r="10" class="c0"/>
<circle cx="830" cy="602" r="10" class="c0"/>
<circle cx="902" cy="182" r="10" class="c0"/>
<circle cx="876" cy="248" r="10" class="c0"/>
<circle cx="988" cy="84" r="10" class="c0"/>
<circle cx="966" cy="36" r="10" class="c0"/>
<circle cx="728" cy="470" r="10" class="c0"/>
<circle cx="948" cy="112" r="10" class="c0"/>
<circle cx="770" cy="648" r="10" class="c0"/>
<circle cx="744" cy="94" r="8" class="c0"/>
<circle cx="850" cy="202" r="8" class="c0"/>
<circle cx="780" cy="546" r="8" class="c0"/>
<circle cx="850" cy="146" r="8" class="c0"/>
<circle cx="742" cy="508" r="8" class="c0"/>
<circle cx="890" cy="442" r="8" class="c0"/>
<circle cx="884" cy="108" r="8" class="c0"/>
<circle cx="924" cy="90" r="8" class="c0"/>
<circle cx="946" cy="264" r="8" class="c0"/>
<circle cx="740" cy="568" r="8" class="c0"/>
<circle cx="848" cy="590" r="8" class="c0"/>
<circle cx="798" cy="308" r="8" class="c0"/>
<circle cx="888" cy="490" r="8" class="c0"/>
<circle cx="724" cy="104" r="8" class="c0"/>
<circle cx="918" cy="358" r="8" class="c0"/>
<circle cx="1000" cy="124" r="8" class="c0"/>
<circle cx="912" cy="204" r="8" class="c0"/>
<circle cx="818" cy="26" r="8" class="c0"/>
<circle cx="802" cy="94" r="8" class="c0"/>
<circle cx="782" cy="724" r="8" class="c0"/>
<circle cx="798" cy="490" r="8" class="c0"/>
<circle cx="928" cy="72" r="8" class="c0"/>
<circle cx="736" cy="550" r="8" class="c0"/>
<circle cx="1012" cy="160" r="8" class="c0"/>
<circle cx="966" cy="120" r="8" class="c0"/>
<circle cx="800" cy="170" r="8" class="c0"/>
<circle cx="740" cy="400" r="8" class="c0"/>
<circle cx="788" cy="600" r="8" class="c0"/>
<circle cx="968" cy="144" r="8" class="c0"/>
<circle cx="1002" cy="184" r="8" class="c0"/>
<circle cx="862" cy="322" r="8" class="c0"/>
<circle cx="894" cy="96" r="8" class="c0"/>
<circle cx="830" cy="726" r="8" class="c0"/>
<circle cx="888" cy="270" r="8" class="c0"/>
<circle cx="894" cy="222" r="8" class="c0"/>
<circle cx="776" cy="502" r="8" class="c0"/>
<circle cx="758" cy="698" r="8" class="c0"/>
<circle cx="878" cy="44" r="8" class="c0"/>
<circle cx="890" cy="162" r="8" class="c0"/>
<circle cx="722" cy="514" r="8" class="c0"/>
<circle cx="1004" cy="66" r="8" class="c0"/>
<circle cx="868" cy="456" r="8" class="c0"/>
<circle cx="728" cy="150" r="8" class="c0"/>
<circle cx="1014" cy="20" r="8" class="c0"/>
<circle cx="842" cy="66" r="8" class="c0"/>
<circle cx="756" cy="110" r="8" class="c0"/>
<circle cx="772" cy="618" r="8" class="c0"/>
<circle cx="942" cy="54" r="8" class="c0"/>
<circle cx="854" cy="652" r="8" class="c0"/>
<circle cx="860" cy="220" r="8" class="c0"/>
<circle cx="840" cy="502" r="8" class="c0"/>
<circle cx="776" cy="52" r="8" class="c0"/>
<circle cx="1034" cy="60" r="8" class="c0"/>
<circle cx="856" cy="550" r="8" class="c0"/>
<circle cx="736" cy="352" r="8" class="c0"/>
<circle cx="932" cy="318" r="8" class="c0"/>
<circle cx="726" cy="80" r="8" class="c0"/>
<circle cx="926" cy="270" r="8" class="c0"/>
<circle cx="746" cy="364" r="8" class="c0"/>
<circle cx="1022" cy="140" r="8" class="c0"/>
<circle cx="836" cy="258" r="8" class="c0"/>
<circle cx="896" cy="350" r="8" class="c0"/>
<circle cx="784" cy="632" r="8" class="c0"/>
<circle cx="900" cy="378" r="8" class="c0"/>
<circle cx="918" cy="308" r="8" class="c0"/>
<circle cx="992" cy="34" r="8" class="c0"/>
<circle cx="716" cy="424" r="8" class="c0"/>
<circle cx="710" cy="92" r="8" class="c0"/>
<circle cx="800" cy="472" r="8" class="c0"/>
<circle cx="910" cy="80" r="8" class="c0"/>
<circle cx="712" cy="452" r="8" class="c0"/>
<circle cx="810" cy="604" r="8" class="c0"/>
<circle cx="784" cy="460" r="8" class="c0"/>
<circle cx="802" cy="532" r="8" class="c0"/>
<circle cx="852" cy="174" r="8" class="c0"/>
<circle cx="888" cy="422" r="8" class="c0"/>
<circle cx="1018" cy="38" r="8" class="c0"/>
<circle cx="846" cy="478" r="8" class="c0"/>
<circle cx="916" cy="54" r="8" class="c0"/>
<circle cx="852" cy="56" r="8" class="c0"/>
<circle cx="956" cy="176" r="8" class="c0"/>
<circle cx="906" cy="232" r="8" class="c0"/>
<circle cx="714" cy="394" r="8" class="c0"/>
<circle cx="812" cy="226" r="8" class="c0"/>
<circle cx="804" cy="794" r="8" class="c0"/>
<circle cx="792" cy="734" r="8" class="c0"/>
<circle cx="796" cy="336" r="8" class="c0"/>
<circle cx="820" cy="294" r="8" class="c0"/>
<circle cx="774" cy="708" r="8" class="c0"/>
<circle cx="906" cy="340" r="8" class="c0"/>
<circle cx="774" cy="448" r="8" class="c0"/>
<circle cx="964" cy="84" r="8" class="c0"/>
<circle cx="800" cy="274" r="8" class="c0"/>
<circle cx="720" cy="532" r="8" class="c0"/>
<circle cx="698" cy="464" r="8" class="c0"/>
<circle cx="952" cy="132" r="8" class="c0"/>
<circle cx="796" cy="650" r="8" class="c0"/>
<circle cx="904" cy="42" r="8" class="c0"/>
<circle cx="824" cy="816" r="8" class="c0"/>
<circle cx="784" cy="370" r="8" class="c0"/>
<circle cx="766" cy="192" r="8" class="c0"/>
<circle cx="880" cy="528" r="8" class="c0"/>
<circle cx="1036" cy="80" r="8" class="c0"/>
<circle cx="824" cy="568" r="8" class="c0"/>
<circle cx="798" cy="358" r="8" class="c0"/>
<circle cx="844" cy="538" r="8" class="c0"/>
<circle cx="840" cy="684" r="8" class="c0"/>
<circle cx="884" cy="326" r="8" class="c0"/>
<circle cx="858" cy="100" r="8" class="c0"/>
<circle cx="726" cy="52" r="8" class="c0"/>
<circle cx="878" cy="472" r="8" class="c0"/>
<circle cx="910" cy="8" r="8" class="c0"/>
<circle cx="746" cy="62" r="8" class="c0"/>
<circle cx="904" cy="284" r="8" class="c0"/>
<circle cx="818" cy="664" r="8" class="c0"/>
<circle cx="1014" cy="76" r="8" class="c0"/>
<circle cx="948" cy="282" r="8" class="c0"/>
<circle cx="716" cy="68" r="8" class="c0"/>
<circle cx="866" cy="188" r="8" class="c0"/>
<circle cx="852" cy="8" r="8" class="c0"/>
<circle cx="860" cy="530" r="8" class="c0"/>
<circle cx="948" cy="28" r="8" class="c0"/>
<circle cx="944" cy="92" r="8" class="c0"/>
<circle cx="1014" cy="56" r="8" class="c0"/>
<circle cx="814" cy="208" r="8" class="c0"/>
<circle cx="814" cy="840" r="8" class="c0"/>
<circle cx="872" cy="310" r="8" class="c0"/>
<circle cx="880" cy="176" r="8" class="c0"/>
<circle cx="866" cy="66" r="8" class="c0"/>
<circle cx="790" cy="410" r="8" class="c0"/>
<circle cx="752" cy="386" r="8" class="c0"/>
<circle cx="758" cy="636" r="8" class="c0"/>
<circle cx="872" cy="412" r="8" class="c0"/>
<circle cx="750" cy="578" r="8" class="c0"/>
<circle cx="728" cy="378" r="8" class="c0"/>
<circle cx="812" cy="322" r="8" class="c0"/>
<circle cx="950" cy="70" r="8" class="c0"/>
<circle cx="924" cy="338" r="8" class="c0"/>
<circle cx="750" cy="536" r="8" class="c0"/>
<circle cx="768" cy="172" r="8" class="c0"/>
<circle cx="730" cy="442" r="8" class="c0"/>
<circle cx="848" cy="332" r="8" class="c0"/>
<circle cx="892" cy="516" r="8" class="c0"/>
<circle cx="874" cy="88" r="8" class="c0"/>
<circle cx="1000" cy="10" r="8" class="c0"/>
<circle cx="986" cy="200" r="8" class="c0"/>
<circle cx="978" cy="154" r="8" class="c0"/>
<circle cx="790" cy="260" r="8" class="c0"/>
<circle cx="780" cy="576" r="8" class="c0"/>
<circle cx="930" cy="246" r="8" class="c0"/>
<circle cx="828" cy="108" r="8" class="c0"/>
<circle cx="804" cy="718" r="8" class="c0"/>
<circle cx="796" cy="70" r="8" class="c0"/>
<circle cx="816" cy="82" r="8" class="c0"/>
<circle cx="1008" cy="98" r="8" class="c0"/>
<circle cx="808" cy="248" r="6" class="c0"/>
<circle cx="834" cy="430" r="6" class="c0"/>
<circle cx="960" cy="100" r="6" class="c0"/>
<circle cx="784" cy="522" r="6" class="c0"/>
<circle cx="902" cy="114" r="6" class="c0"/>
<circle cx="948" cy="248" r="6" class="c0"/>
<circle cx="816" cy="466" r="6" class="c0"/>
<circle cx="742" cy="456" r="6" class="c0"/>
<circle cx="834" cy="50" r="6" class="c0"/>
<circle cx="740" cy="524" r="6" class="c0"/>
<circle cx="768" cy="94" r="6" class="c0"/>
<circle cx="820" cy="714" r="6" class="c0"/>
<circle cx="832" cy="360" r="6" class="c0"/>
<circle cx="860" cy="636" r="6" class="c0"/>
<circle cx="724" cy="410" r="6" class="c0"/>
<circle cx="850" cy="518" r="6" class="c0"/>
<circle cx="924" cy="138" r="6" class="c0"/>
<circle cx="798" cy="144" r="6" class="c0"/>
<circle cx="792" cy="288" r="6" class="c0"/>
<circle cx="974" cy="74" r="6" class="c0"/>
<circle cx="738" cy="118" r="6" class="c0"/>
<circle cx="1026" cy="124" r="6" class="c0"/>
<circle cx="858" cy="80" r="6" class="c0"/>
<circle cx="842" cy="642" r="6" class="c0"/>
<circle cx="1002" cy="46" r="6" class="c0"/>
<circle cx="848" cy="460" r="6" class="c0"/>
<circle cx="818" cy="8" r="6" class="c0"/>
<circle cx="778" cy="250" r="6" class="c0"/>
<circle cx="850" cy="360" r="6" class="c0"/>
<circle cx="818" cy="434" r="6" class="c0"/>
<circle cx="838" cy="560" r="6" class="c0"/>
<circle cx="862" cy="670" r="6" class="c0"/>
<circle cx="754" cy="714" r="6" class="c0"/>
<circle cx="806" cy="818" r="6" class="c0"/>
<circle cx="770" cy="126" r="6" class="c0"/>
<circle cx="848" cy="110" r="6" class="c0"/>
<circle cx="784" cy="180" r="6" class="c0"/>
<circle cx="904" cy="64" r="6" class="c0"/>
<circle cx="944" cy="298" r="6" class="c0"/>
<circle cx="966" cy="166" r="6" class="c0"/>
<circle cx="898" cy="250" r="6" class="c0"/>
<circle cx="682" cy="424" r="6" class="c0"/>
<circle cx="898" cy="476" r="6" class="c0"/>
<circle cx="940" cy="12" r="6" class="c0"/>
<circle cx="794" cy="388" r="6" class="c0"/>
<circle cx="788" cy="86" r="6" class="c0"/>
<circle cx="934" cy="130" r="6" class="c0"/>
<circle cx="756" cy="72" r="6" class="c0"/>
<circle cx="742" cy="32" r="6" class="c0"/>
<circle cx="830" cy="858" r="6" class="c0"/>
<circle cx="822" cy="800" r="6" class="c0"/>
<circle cx="830" cy="36" r="6" class="c0"/>
<circle cx="766" cy="588" r="6" class="c0"/>
<circle cx="758" cy="496" r="6" class="c0"/>
<circle cx="928" cy="288" r="6" class="c0"/>
<circle cx="840" cy="576" r="6" class="c0"/>
<circle cx="810" cy="454" r="6" class="c0"/>
<circle cx="874" cy="548" r="6" class="c0"/>
<circle cx="804" cy="422" r="6" class="c0"/>
<circle cx="836" cy="742" r="6" class="c0"/>
<circle cx="982" cy="134" r="6" class="c0"/>
<circle cx="928" cy="42" r="6" class="c0"/>
<circle cx="858" cy="394" r="6" class="c0"/>
<circle cx="910" cy="102" r="6" class="c0"/>
<circle cx="802" cy="198" r="6" class="c0"/>
<circle cx="762" cy="458" r="6" class="c0"/>
<circle cx="708" cy="48" r="6" class="c0"/>
<circle cx="854" cy="570" r="6" class="c0"/>
<circle cx="800" cy="18" r="6" class="c0"/>
<circle cx="962" cy="258" r="6" class="c0"/>
<circle cx="744" cy="646" r="6" class="c0"/>
<circle cx="866" cy="284" r="6" class="c0"/>
<circle cx="794" cy="188" r="6" class="c0"/>
<circle cx="814" cy="730" r="6" class="c0"/>
<circle cx="942" cy="202" r="6" class="c0"/>
<circle cx="822" cy="138" r="6" class="c0"/>
<circle cx="838" cy="702" r="6" class="c0"/>
<circle cx="746" cy="680" r="6" class="c0"/>
<circle cx="892" cy="464" r="6" class="c0"/>
<circle cx="762" cy="142" r="6" class="c0"/>
<circle cx="960" cy="54" r="6" class="c0"/>
<circle cx="886" cy="30" r="6" class="c0"/>
<circle cx="684" cy="394" r="6" class="c0"/>
<circle cx="828" cy="760" r="6" class="c0"/>
<circle cx="958" cy="154" r="6" class="c0"/>
<circle cx="858" cy="242" r="6" class="c0"/>
<circle cx="708" cy="502" r="6" class="c0"/>
<circle cx="762" cy="682" r="6" class="c0"/>
<circle cx="792" cy="558" r="6" class="c0"/>
<circle cx="756" cy="182" r="6" class="c0"/>
<circle cx="928" cy="6" r="6" class="c0"/>
<circle cx="792" cy="508" r="6" class="c0"/>
<circle cx="952" cy="6" r="6" class="c0"/>
<circle cx="1034" cy="40" r="6" class="c0"/>
<circle cx="784" cy="280" r="6" class="c0"/>
<circle cx="878" cy="344" r="6" class="c0"/>
<circle cx="810" cy="284" r="6" class="c0"/>
<circle cx="826" cy="584" r="6" class="c0"/>
<circle cx="774" cy="226" r="6" class="c0"/>
<circle cx="776" cy="668" r="6" class="c0"/>
<circle cx="740" cy="694" r="6" class="c0"/>
<circle cx="840" cy="402" r="6" class="c0"/>
<circle cx="842" cy="352" r="6" class="c0"/>
<circle cx="896" cy="302" r="6" class="c0"/>
<circle cx="878" cy="230" r="6" class="c0"/>
<circle cx="830" cy="394" r="6" class="c0"/>
<circle cx="1028" cy="158" r="6" class="c0"/>
<circle cx="756" cy="424" r="6" class="c0"/>
<circle cx="824" cy="246" r="6" class="c0"/>
<circle cx="706" cy="110" r="6" class="c0"/>
<circle cx="898" cy="22" r="6" class="c0"/>
<circle cx="902" cy="498" r="6" class="c0"/>
<circle cx="838" cy="868" r="6" class="c0"/>
<circle cx="1010" cy="114" r="6" class="c0"/>
<circle cx="828" cy="544" r="6" class="c0"/>
<circle cx="994" cy="164" r="6" class="c0"/>
<circle cx="890" cy="80" r="6" class="c0"/>
<circle cx="918" cy="220" r="6" class="c0"/>
<circle cx="794" cy="782" r="6" class="c0"/>
<circle cx="856" cy="468" r="6" class="c0"/>
<circle cx="786" cy="132" r="6" class="c0"/>
<circle cx="838" cy="794" r="6" class="c0"/>
<circle cx="842" cy="164" r="6" class="c0"/>
<circle cx="812" cy="702" r="6" class="c0"/>
<circle cx="932" cy="104" r="6" class="c0"/>
<circle cx="726" cy="362" r="6" class="c0"/>
<circle cx="764" cy="724" r="6" class="c0"/>
<circle cx="770" cy="536" r="6" class="c0"/>
<circle cx="956" cy="222" r="6" class="c0"/>
<circle cx="738" cy="672" r="6" class="c0"/>
<circle cx="876" cy="138" r="6" class="c0"/>
<circle cx="832" cy="470" r="6" class="c0"/>
<circle cx="844" cy="40" r="6" class="c0"/>
<circle cx="890" cy="238" r="6" class="c0"/>
<circle cx="808" cy="184" r="6" class="c0"/>
<circle cx="716" cy="40" r="6" class="c0"/>
<circle cx="904" cy="414" r="6" class="c0"/>
<circle cx="784" cy="660" r="6" class="c0"/>
<circle cx="758" cy="86" r="6" class="c0"/>
<circle cx="876" cy="396" r="6" class="c0"/>
<circle cx="812" cy="104" r="6" class="c0"/>
<circle cx="826" cy="422" r="6" class="c0"/>
<circle cx="868" cy="644" r="6" class="c0"/>
<circle cx="764" cy="62" r="6" class="c0"/>
<circle cx="866" cy="622" r="6" class="c0"/>
<circle cx="902" cy="430" r="6" class="c0"/>
<circle cx="726" cy="560" r="6" class="c0"/>
<circle cx="966" cy="66" r="6" class="c0"/>
<circle cx="916" cy="374" r="6" class="c0"/>
<circle cx="720" cy="350" r="6" class="c0"/>
<circle cx="782" cy="396" r="6" class="c0"/>
<circle cx="866" cy="560" r="6" class="c0"/>
<circle cx="974" cy="96" r="6" class="c0"/>
<circle cx="928" cy="206" r="6" class="c0"/>
<circle cx="1016" cy="176" r="6" class="c0"/>
</svg>
