<?xml version="1.0" encoding="utf-8"?>
<svg xmlns="http://www.w3.org/2000/svg"
     xmlns:xlink="http://www.w3.org/1999/xlink" width="1920" height="1440" >

            <defs>
            <style type="text/css"><![CDATA[
circle {stroke: none;}
.c0 {fill: #000000;}
]]></style>
            </defs>
<rect x="0" y="0" width="1920" height="1440" fill="white"/>
<circle cx="834" cy="340" r="14" class="c0"/>
<circle cx="860" cy="242" r="12" class="c0"/>
<circle cx="960" cy="84" r="12" class="c0"/>
<circle cx="808" cy="246" r="12" class="c0"/>
<circle cx="720" cy="98" r="12" class="c0"/>
<circle cx="838" cy="506" r="12" class="c0"/>
<circle cx="798" cy="650" r="12" class="c0"/>
<circle cx="856" cy="372" r="12" class="c0"/>
<circle cx="766" cy="526" r="12" class="c0"/>
<circle cx="788" cy="350" r="12" class="c0"/>
<circle cx="896" cy="156" r="12" class="c0"/>
<circle cx="860" cy="142" r="12" class="c0"/>
<circle cx="766" cy="26" r="12" class="c0"/>
<circle cx="934" cy="132" r="12" class="c0"/>
<circle cx="852" cy="440" r="12" class="c0"/>
<circle cx="812" cy="198" r="12" class="c0"/>
<circle cx="802" cy="386" r="12" class="c0"/>
<circle cx="820" cy="64" r="12" class="c0"/>
<circle cx="760" cy="166" r="12" class="c0"/>
<circle cx="770" cy="402" r="12" class="c0"/>
<circle cx="760" cy="54" r="12" class="c0"/>
<circle cx="780" cy="626" r="12" class="c0"/>
<circle cx="764" cy="366" r="12" class="c0"/>
<circle cx="794" cy="518" r="12" class="c0"/>
<circle cx="810" cy="484" r="12" class="c0"/>
<circle cx="738" cy="134" r="12" class="c0"/>
<circle cx="944" cy="200" r="12" class="c0"/>
<circle cx="994" cy="104" r="12" class="c0"/>
<circle cx="878" cy="22" r="12" class="c0"/>
<circle cx="868" cy="318" r="12" class="c0"/>
<circle cx="860" cy="654" r="12" class="c0"/>
<circle cx="752" cy="564" r="12" class="c0"/>
<circle cx="768" cy="490" r="10" class="c0"/>
<circle cx="924" cy="56" r="10" class="c0"/>
<circle cx="804" cy="112" r="10" class="c0"/>
<circle cx="964" cy="130" r="10" class="c0"/>
<circle cx="978" cy="28" r="10" class="c0"/>
<circle cx="920" cy="160" r="10" class="c0"/>
<circle cx="838" cy="596" r="10" class="c0"/>
<circle cx="840" cy="570" r="10" class="c0"/>
<circle cx="878" cy="470" r="10" class="c0"/>
<circle cx="806" cy="302" r="10" class="c0"/>
<circle cx="896" cy="260" r="10" class="c0"/>
<circle cx="890" cy="436" r="10" class="c0"/>
<circle cx="824" cy="818" r="10" class="c0"/>
<circle cx="800" cy="150" r="10" class="c0"/>
<circle cx="756" cy="78" r="10" class="c0"/>
<circle cx="1002" cy="70" r="10" class="c0"/>
<circle cx="882" cy="174" r="10" class="c0"/>
<circle cx="898" cy="368" r="10" class="c0"/>
<circle cx="924" cy="262" r="10" class="c0"/>
<circle cx="842" cy="32" r="10" class="c0"/>
<circle cx="960" cy="240" r="10" class="c0"/>
<circle cx="832" cy="236" r="10" class="c0"/>
<circle cx="788" cy="698" r="10" class="c0"/>
<circle cx="900" cy="46" r="10" class="c0"/>
<circle cx="812" cy="556" r="10" class="c0"/>
<circle cx="848" cy="272" r="10" class="c0"/>
<circle cx="844" cy="390" r="10" class="c0"/>
<circle cx="864" cy="612" r="10" class="c0"/>
<circle cx="734" cy="480" r="10" class="c0"/>
<circle cx="756" cy="698" r="10" class="c0"/>
<circle cx="934" cy="292" r="10" class="c0"/>
<circle cx="746" cy="430" r="10" class="c0"/>
<circle cx="1006" cy="18" r="10" class="c0"/>
<circle cx="912" cy="94" r="10" class="c0"/>
<circle cx="800" cy="598" r="10" class="c0"/>
<circle cx="722" cy="358" r="10" class="c0"/>
<circle cx="874" cy="262" r="10" class="c0"/>
<circle cx="940" cy="96" r="10" class="c0"/>
<circle cx="762" cy="126" r="10" class="c0"/>
<circle cx="966" cy="214" r="10" class="c0"/>
<circle cx="716" cy="72" r="10" class="c0"/>
<circle cx="692" cy="372" r="10" class="c0"/>
<circle cx="872" cy="64" r="10" class="c0"/>
<circle cx="748" cy="114" r="10" class="c0"/>
<circle cx="908" cy="226" r="10" class="c0"/>
<circle cx="778" cy="464" r="10" class="c0"/>
<circle cx="864" cy="516" r="10" class="c0"/>
<circle cx="758" cy="648" r="10" class="c0"/>
<circle cx="806" cy="730" r="10" class="c0"/>
<circle cx="830" cy="92" r="10" class="c0"/>
<circle cx="858" cy="188" r="10" class="c0"/>
<circle cx="804" cy="450" r="10" class="c0"/>
<circle cx="742" cy="522" r="10" class="c0"/>
<circle cx="1012" cy="162" r="10" class="c0"/>
<circle cx="854" cy="110" r="10" class="c0"/>
<circle cx="846" cy="80" r="10" class="c0"/>
<circle cx="886" cy="280" r="10" class="c0"/>
<circle cx="846" cy="700" r="10" class="c0"/>
<circle cx="832" cy="654" r="10" class="c0"/>
<circle cx="810" cy="270" r="10" class="c0"/>
<circle cx="874" cy="222" r="10" class="c0"/>
<circle cx="854" cy="412" r="10" class="c0"/>
<circle cx="808" cy="416" r="10" class="c0"/>
<circle cx="854" cy="484" r="10" class="c0"/>
<circle cx="782" cy="670" r="10" class="c0"/>
<circle cx="788" cy="542" r="10" class="c0"/>
<circle cx="736" cy="372" r="10" class="c0"/>
<circle cx="784" cy="132" r="10" class="c0"/>
<circle cx="774" cy="436" r="10" class="c0"/>
<circle cx="704" cy="398" r="10" class="c0"/>
<circle cx="920" cy="314" r="10" class="c0"/>
<circle cx="810" cy="788" r="10" class="c0"/>
<circle cx="732" cy="448" r="10" class="c0"/>
<circle cx="830" cy="536" r="10" class="c0"/>
<circle cx="894" cy="204" r="10" class="c0"/>
<circle cx="954" cy="166" r="10" class="c0"/>
<circle cx="780" cy="572" r="10" class="c0"/>
<circle cx="942" cy="154" r="10" class="c0"/>
<circle cx="800" cy="38" r="10" class="c0"/>
<circle cx="948" cy="276" r="10" class="c0"/>
<circle cx="834" cy="260" r="10" class="c0"/>
<circle cx="922" cy="240" r="10" class="c0"/>
<circle cx="890" cy="340" r="10" class="c0"/>
<circle cx="918" cy="340" r="10" class="c0"/>
<circle cx="846" cy="630" r="10" class="c0"/>
<circle cx="942" cy="250" r="10" class="c0"/>
<circle cx="890" cy="510" r="10" class="c0"/>
<circle cx="820" cy="848" r="10" class="c0"/>
<circle cx="816" cy="712" r="10" class="c0"/>
<circle cx="864" cy="38" r="10" class="c0"/>
<circle cx="862" cy="210" r="10" class="c0"/>
<circle cx="828" cy="182" r="10" class="c0"/>
<circle cx="822" cy="434" r="10" class="c0"/>
<circle cx="888" cy="100" r="10" class="c0"/>
<circle cx="1022" cy="106" r="10" class="c0"/>
<circle cx="1024" cy="50" r="10" class="c0"/>
<circle cx="972" cy="186" r="10" class="c0"/>
<circle cx="816" cy="368" r="8" class="c0"/>
<circle cx="886" cy="238" r="8" class="c0"/>
<circle cx="992" cy="128" r="8" class="c0"/>
<circle cx="916" cy="204" r="8" class="c0"/>
<circle cx="810" cy="686" r="8" class="c0"/>
<circle cx="854" cy="56" r="8" class="c0"/>
<circle cx="792" cy="70" r="8" class="c0"/>
<circle cx="778" cy="220" r="8" class="c0"/>
<circle cx="734" cy="554" r="8" class="c0"/>
<circle cx="830" cy="404" r="8" class="c0"/>
<circle cx="870" cy="428" r="8" class="c0"/>
<circle cx="992" cy="184" r="8" class="c0"/>
<circle cx="740" cy="64" r="8" class="c0"/>
<circle cx="818" cy="758" r="8" class="c0"/>
<circle cx="684" cy="404" r="8" class="c0"/>
<circle cx="722" cy="426" r="8" class="c0"/>
<circle cx="752" cy="348" r="8" class="c0"/>
<circle cx="804" cy="626" r="8" class="c0"/>
<circle cx="818" cy="124" r="8" class="c0"/>
<circle cx="858" cy="300" r="8" class="c0"/>
<circle cx="976" cy="58" r="8" class="c0"/>
<circle cx="790" cy="278" r="8" class="c0"/>
<circle cx="868" cy="398" r="8" class="c0"/>
<circle cx="912" cy="22" r="8" class="c0"/>
<circle cx="762" cy="100" r="8" class="c0"/>
<circle cx="1024" cy="82" r="8" class="c0"/>
<circle cx="1000" cy="146" r="8" class="c0"/>
<circle cx="782" cy="194" r="8" class="c0"/>
<circle cx="830" cy="296" r="8" class="c0"/>
<circle cx="1014" cy="134" r="8" class="c0"/>
<circle cx="846" cy="128" r="8" class="c0"/>
<circle cx="720" cy="388" r="8" class="c0"/>
<circle cx="942" cy="28" r="8" class="c0"/>
<circle cx="844" cy="668" r="8" class="c0"/>
<circle cx="830" cy="680" r="8" class="c0"/>
<circle cx="806" cy="174" r="8" class="c0"/>
<circle cx="890" cy="386" r="8" class="c0"/>
<circle cx="836" cy="164" r="8" class="c0"/>
<circle cx="824" cy="620" r="8" class="c0"/>
<circle cx="780" cy="106" r="8" class="c0"/>
<circle cx="958" cy="110" r="8" class="c0"/>
<circle cx="808" cy="84" r="8" class="c0"/>
<circle cx="780" cy="86" r="8" class="c0"/>
<circle cx="736" cy="28" r="8" class="c0"/>
<circle cx="760" cy="676" r="8" class="c0"/>
<circle cx="828" cy="144" r="8" class="c0"/>
<circle cx="712" cy="450" r="8" class="c0"/>
<circle cx="702" cy="426" r="8" class="c0"/>
<circle cx="846" cy="526" r="8" class="c0"/>
<circle cx="834" cy="454" r="8" class="c0"/>
<circle cx="880" cy="126" r="8" class="c0"/>
<circle cx="810" cy="346" r="8" class="c0"/>
<circle cx="926" cy="8" r="8" class="c0"/>
<circle cx="876" cy="492" r="8" class="c0"/>
<circle cx="930" cy="220" r="8" class="c0"/>
<circle cx="912" cy="282" r="8" class="c0"/>
<circle cx="714" cy="52" r="8" class="c0"/>
<circle cx="842" cy="200" r="8" class="c0"/>
<circle cx="900" cy="78" r="8" class="c0"/>
<circle cx="782" cy="240" r="8" class="c0"/>
<circle cx="898" cy="10" r="8" class="c0"/>
<circle cx="926" cy="188" r="8" class="c0"/>
<circle cx="894" cy="298" r="8" class="c0"/>
<circle cx="902" cy="414" r="8" class="c0"/>
<circle cx="848" cy="552" r="8" class="c0"/>
<circle cx="726" cy="498" r="8" class="c0"/>
<circle cx="858" cy="540" r="8" class="c0"/>
<circle cx="782" cy="12" r="8" class="c0"/>
<circle cx="802" cy="222" r="8" class="c0"/>
<circle cx="938" cy="72" r="8" class="c0"/>
<circle cx="880" cy="360" r="8" class="c0"/>
<circle cx="752" cy="388" r="8" class="c0"/>
<circle cx="702" cy="462" r="8" class="c0"/>
<circle cx="734" cy="408" r="8" class="c0"/>
<circle cx="898" cy="134" r="8" class="c0"/>
<circle cx="716" cy="510" r="8" class="c0"/>
<circle cx="912" cy="118" r="8" class="c0"/>
<circle cx="980" cy="156" r="8" class="c0"/>
<circle cx="856" cy="16" r="8" class="c0"/>
<circle cx="1002" cy="48" r="8" class="c0"/>
<circle cx="878" cy="534" r="8" class="c0"/>
<circle cx="894" cy="460" r="8" class="c0"/>
<circle cx="770" cy="550" r="8" class="c0"/>
<circle cx="790" cy="496" r="8" class="c0"/>
<circle cx="840" cy="308" r="8" class="c0"/>
<circle cx="822" cy="464" r="8" class="c0"/>
<circle cx="932" cy="326" r="8" class="c0"/>
<circle cx="918" cy="362" r="8" class="c0"/>
<circle cx="844" cy="466" r="8" class="c0"/>
<circle cx="800" cy="764" r="8" class="c0"/>
<circle cx="838" cy="8" r="8" class="c0"/>
<circle cx="784" cy="726" r="8" class="c0"/>
<circle cx="866" cy="682" r="8" class="c0"/>
<circle cx="808" cy="580" r="8" class="c0"/>
<circle cx="818" cy="668" r="8" class="c0"/>
<circle cx="822" cy="36" r="8" class="c0"/>
<circle cx="750" cy="502" r="8" class="c0"/>
<circle cx="812" cy="508" r="8" class="c0"/>
<circle cx="962" cy="46" r="8" class="c0"/>
<circle cx="1018" cy="30" r="8" class="c0"/>
<circle cx="908" cy="180" r="8" class="c0"/>
<circle cx="834" cy="862" r="8" class="c0"/>
<circle cx="832" cy="734" r="8" class="c0"/>
<circle cx="798" cy="326" r="8" class="c0"/>
<circle cx="900" cy="488" r="8" class="c0"/>
<circle cx="952" cy="62" r="8" class="c0"/>
<circle cx="742" cy="90" r="8" class="c0"/>
<circle cx="864" cy="348" r="8" class="c0"/>
<circle cx="862" cy="166" r="8" class="c0"/>
<circle cx="840" cy="424" r="8" class="c0"/>
<circle cx="1040" cy="64" r="8" class="c0"/>
<circle cx="818" cy="322" r="8" class="c0"/>
<circle cx="718" cy="120" r="8" class="c0"/>
<circle cx="782" cy="162" r="8" class="c0"/>
<circle cx="872" cy="448" r="8" class="c0"/>
<circle cx="956" cy="10" r="8" class="c0"/>
<circle cx="782" cy="48" r="8" class="c0"/>
<circle cx="806" cy="14" r="8" class="c0"/>
<circle cx="824" cy="214" r="8" class="c0"/>
<circle cx="844" cy="222" r="8" class="c0"/>
<circle cx="774" cy="68" r="8" class="c0"/>
<circle cx="710" cy="488" r="8" class="c0"/>
<circle cx="756" cy="452" r="8" class="c0"/>
<circle cx="1026" cy="148" r="8" class="c0"/>
<circle cx="754" cy="472" r="8" class="c0"/>
<circle cx="768" cy="710" r="8" class="c0"/>
<circle cx="948" cy="224" r="8" class="c0"/>
<circle cx="748" cy="666" r="8" class="c0"/>
<circle cx="792" cy="208" r="8" class="c0"/>
<circle cx="902" cy="322" r="8" class="c0"/>
<circle cx="884" cy="416" r="8" class="c0"/>
<circle cx="882" cy="80" r="8" class="c0"/>
<circle cx="820" cy="638" r="8" class="c0"/>
<circle cx="868" cy="552" r="8" class="c0"/>
<circle cx="726" cy="538" r="8" class="c0"/>
<circle cx="772" cy="686" r="8" class="c0"/>
<circle cx="836" cy="364" r="8" class="c0"/>
<circle cx="704" cy="350" r="8" class="c0"/>
<circle cx="936" cy="174" r="8" class="c0"/>
<circle cx="802" cy="814" r="8" class="c0"/>
<circle cx="828" cy="18" r="8" class="c0"/>
<circle cx="782" cy="378" r="8" class="c0"/>
<circle cx="720" cy="466" r="8" class="c0"/>
<circle cx="926" cy="108" r="8" class="c0"/>
<circle cx="924" cy="34" r="8" class="c0"/>
<circle cx="704" cy="86" r="8" class="c0"/>
<circle cx="958" cy="260" r="8" class="c0"/>
<circle cx="768" cy="146" r="8" class="c0"/>
<circle cx="778" cy="602" r="8" class="c0"/>
<circle cx="826" cy="382" r="8" class="c0"/>
<circle cx="980" cy="118" r="8" class="c0"/>
<circle cx="826" cy="798" r="8" class="c0"/>
<circle cx="868" cy="634" r="8" class="c0"/>
<circle cx="808" cy="832" r="8" class="c0"/>
<circle cx="872" cy="90" r="8" class="c0"/>
<circle cx="1008" cy="90" r="8" class="c0"/>
<circle cx="980" cy="8" r="8" class="c0"/>
<circle cx="790" cy="426" r="8" class="c0"/>
<circle cx="770" cy="184" r="8" class="c0"/>
<circle cx="876" cy="296" r="8" class="c0"/>
<circle cx="792" cy="258" r="8" class="c0"/>
<circle cx="862" cy="712" r="8" class="c0"/>
<circle cx="808" cy="536" r="8" class="c0"/>
<circle cx="746" cy="40" r="8" class="c0"/>
<circle cx="744" cy="542" r="8" class="c0"/>
<circle cx="818" cy="590" r="8" class="c0"/>
<circle cx="1036" cy="34" r="6" class="c0"/>
<circle cx="984" cy="200" r="6" class="c0"/>
<circle cx="858" cy="568" r="6" class="c0"/>
<circle cx="982" cy="88" r="6" class="c0"/>
<circle cx="818" cy="164" r="6" class="c0"/>
<circle cx="694" cy="442" r="6" class="c0"/>
<circle cx="958" cy="30" r="6" class="c0"/>
<circle cx="832" cy="112" r="6" class="c0"/>
<circle cx="742" cy="462" r="6" class="c0"/>
<circle cx="882" cy="42" r="6" class="c0"/>
<circle cx="710" cy="36" r="6" class="c0"/>
<circle cx="854" cy="332" r="6" class="c0"/>
<circle cx="1010" cy="118" r="6" class="c0"/>
<circle cx="684" cy="422" r="6" class="c0"/>
<circle cx="776" cy="510" r="6" class="c0"/>
<circle cx="850" cy="584" r="6" class="c0"/>
<circle cx="920" cy="78" r="6" class="c0"/>
<circle cx="768" cy="346" r="6" class="c0"/>
<circle cx="834" cy="480" r="6" class="c0"/>
<circle cx="824" cy="280" r="6" class="c0"/>
<circle cx="910" cy="66" r="6" class="c0"/>
<circle cx="912" cy="142" r="6" class="c0"/>
<circle cx="840" cy="718" r="6" class="c0"/>
<circle cx="776" cy="646" r="6" class="c0"/>
<circle cx="792" cy="404" r="6" class="c0"/>
<circle cx="814" cy="608" r="6" class="c0"/>
<circle cx="712" cy="374" r="6" class="c0"/>
<circle cx="802" cy="56" r="6" class="c0"/>
<circle cx="734" cy="342" r="6" class="c0"/>
<circle cx="1032" cy="128" r="6" class="c0"/>
<circle cx="848" cy="354" r="6" class="c0"/>
<circle cx="824" cy="696" r="6" class="c0"/>
<circle cx="724" cy="38" r="6" class="c0"/>
<circle cx="962" cy="148" r="6" class="c0"/>
<circle cx="880" cy="192" r="6" class="c0"/>
<circle cx="912" cy="378" r="6" class="c0"/>
<circle cx="942" cy="46" r="6" class="c0"/>
<circle cx="908" cy="392" r="6" class="c0"/>
<circle cx="874" cy="110" r="6" class="c0"/>
<circle cx="978" cy="74" r="6" class="c0"/>
<circle cx="904" cy="470" r="6" class="c0"/>
<circle cx="874" cy="156" r="6" class="c0"/>
<circle cx="864" cy="282" r="6" class="c0"/>
<circle cx="838" cy="54" r="6" class="c0"/>
<circle cx="792" cy="560" r="6" class="c0"/>
<circle cx="986" cy="44" r="6" class="c0"/>
<circle cx="746" cy="684" r="6" class="c0"/>
<circle cx="768" cy="202" r="6" class="c0"/>
<circle cx="824" cy="778" r="6" class="c0"/>
<circle cx="752" cy="410" r="6" class="c0"/>
<circle cx="848" cy="174" r="6" class="c0"/>
<circle cx="884" cy="142" r="6" class="c0"/>
<circle cx="974" cy="98" r="6" class="c0"/>
<circle cx="730" cy="50" r="6" class="c0"/>
<circle cx="726" cy="148" r="6" class="c0"/>
<circle cx="1028" cy="20" r="6" class="c0"/>
<circle cx="802" cy="670" r="6" class="c0"/>
<circle cx="804" cy="132" r="6" class="c0"/>
<circle cx="942" cy="308" r="6" class="c0"/>
<circle cx="874" cy="380" r="6" class="c0"/>
<circle cx="712" cy="414" r="6" class="c0"/>
<circle cx="1040" cy="88" r="6" class="c0"/>
<circle cx="796" cy="472" r="6" class="c0"/>
<circle cx="894" cy="118" r="6" class="c0"/>
<circle cx="762" cy="580" r="6" class="c0"/>
<circle cx="990" cy="168" r="6" class="c0"/>
<circle cx="786" cy="480" r="6" class="c0"/>
<circle cx="1042" cy="46" r="6" class="c0"/>
<circle cx="798" cy="714" r="6" class="c0"/>
<circle cx="682" cy="386" r="6" class="c0"/>
<circle cx="760" cy="420" r="6" class="c0"/>
<circle cx="818" cy="524" r="6" class="c0"/>
<circle cx="792" cy="182" r="6" class="c0"/>
<circle cx="798" cy="748" r="6" class="c0"/>
<circle cx="796" cy="94" r="6" class="c0"/>
<circle cx="904" cy="350" r="6" class="c0"/>
<circle cx="860" cy="464" r="6" class="c0"/>
<circle cx="892" cy="64" r="6" class="c0"/>
<circle cx="942" cy="114" r="6" class="c0"/>
<circle cx="982" cy="140" r="6" class="c0"/>
<circle cx="904" cy="244" r="6" class="c0"/>
<circle cx="846" cy="154" r="6" class="c0"/>
<circle cx="746" cy="152" r="6" class="c0"/>
<circle cx="800" cy="366" r="6" class="c0"/>
<circle cx="910" cy="300" r="6" class="c0"/>
<circle cx="732" cy="80" r="6" class="c0"/>
<circle cx="822" cy="572" r="6" class="c0"/>
<circle cx="832" cy="554" r="6" class="c0"/>
<circle cx="786" cy="448" r="6" class="c0"/>
<circle cx="892" cy="402" r="6" class="c0"/>
<circle cx="792" cy="22" r="6" class="c0"/>
<circle cx="736" cy="392" r="6" class="c0"/>
<circle cx="846" cy="290" r="6" class="c0"/>
<circle cx="704" cy="108" r="6" class="c0"/>
<circle cx="888" cy="314" r="6" class="c0"/>
<circle cx="760" cy="628" r="6" class="c0"/>
<circle cx="868" cy="6" r="6" class="c0"/>
<circle cx="870" cy="698" r="6" class="c0"/>
<circle cx="816" cy="288" r="6" class="c0"/>
<circle cx="876" cy="670" r="6" class="c0"/>
<circle cx="788" cy="294" r="6" class="c0"/>
<circle cx="996" cy="32" r="6" class="c0"/>
<circle cx="1008" cy="180" r="6" class="c0"/>
</svg>
