<?xml version="1.0" encoding="utf-8"?>
<svg xmlns="http://www.w3.org/2000/svg"
     xmlns:xlink="http://www.w3.org/1999/xlink" width="1920" height="1440" >

            <defs>
            <style type="text/css"><![CDATA[
circle {stroke: none;}
.c0 {fill: #000000;}
]]></style>
            </defs>
<rect x="0" y="0" width="1920" height="1440" fill="white"/>
<circle cx="788" cy="272" r="12" class="c0"/>
<circle cx="850" cy="20" r="12" class="c0"/>
<circle cx="770" cy="732" r="12" class="c0"/>
<circle cx="770" cy="324" r="12" class="c0"/>
<circle cx="858" cy="514" r="12" class="c0"/>
<circle cx="814" cy="736" r="12" class="c0"/>
<circle cx="878" cy="492" r="12" class="c0"/>
<circle cx="856" cy="560" r="12" class="c0"/>
<circle cx="804" cy="784" r="12" class="c0"/>
<circle cx="856" cy="238" r="12" class="c0"/>
<circle cx="868" cy="164" r="12" class="c0"/>
<circle cx="834" cy="588" r="12" class="c0"/>
<circle cx="850" cy="292" r="12" class="c0"/>
<circle cx="876" cy="418" r="12" class="c0"/>
<circle cx="910" cy="352" r="12" class="c0"/>
<circle cx="728" cy="304" r="12" class="c0"/>
<circle cx="870" cy="546" r="12" class="c0"/>
<circle cx="1000" cy="156" r="12" class="c0"/>
<circle cx="826" cy="328" r="12" class="c0"/>
<circle cx="808" cy="606" r="12" class="c0"/>
<circle cx="758" cy="272" r="12" class="c0"/>
<circle cx="834" cy="1022" r="12" class="c0"/>
<circle cx="914" cy="858" r="12" class="c0"/>
<circle cx="1008" cy="322" r="12" class="c0"/>
<circle cx="856" cy="1046" r="12" class="c0"/>
<circle cx="804" cy="466" r="10" class="c0"/>
<circle cx="1030" cy="258" r="10" class="c0"/>
<circle cx="820" cy="704" r="10" class="c0"/>
<circle cx="1030" cy="198" r="10" class="c0"/>
<circle cx="722" cy="548" r="10" class="c0"/>
<circle cx="876" cy="84" r="10" class="c0"/>
<circle cx="898" cy="588" r="10" class="c0"/>
<circle cx="844" cy="640" r="10" class="c0"/>
<circle cx="898" cy="522" r="10" class="c0"/>
<circle cx="928" cy="298" r="10" class="c0"/>
<circle cx="838" cy="964" r="10" class="c0"/>
<circle cx="846" cy="360" r="10" class="c0"/>
<circle cx="814" cy="570" r="10" class="c0"/>
<circle cx="828" cy="430" r="10" class="c0"/>
<circle cx="854" cy="846" r="10" class="c0"/>
<circle cx="864" cy="212" r="10" class="c0"/>
<circle cx="898" cy="222" r="10" class="c0"/>
<circle cx="834" cy="196" r="10" class="c0"/>
<circle cx="816" cy="232" r="10" class="c0"/>
<circle cx="928" cy="428" r="10" class="c0"/>
<circle cx="854" cy="480" r="10" class="c0"/>
<circle cx="772" cy="674" r="10" class="c0"/>
<circle cx="894" cy="164" r="10" class="c0"/>
<circle cx="960" cy="334" r="10" class="c0"/>
<circle cx="994" cy="186" r="10" class="c0"/>
<circle cx="890" cy="450" r="10" class="c0"/>
<circle cx="798" cy="850" r="10" class="c0"/>
<circle cx="934" cy="502" r="10" class="c0"/>
<circle cx="884" cy="318" r="10" class="c0"/>
<circle cx="922" cy="462" r="10" class="c0"/>
<circle cx="956" cy="396" r="10" class="c0"/>
<circle cx="842" cy="254" r="10" class="c0"/>
<circle cx="884" cy="366" r="10" class="c0"/>
<circle cx="892" cy="136" r="10" class="c0"/>
<circle cx="922" cy="226" r="10" class="c0"/>
<circle cx="780" cy="296" r="10" class="c0"/>
<circle cx="792" cy="200" r="10" class="c0"/>
<circle cx="732" cy="660" r="10" class="c0"/>
<circle cx="756" cy="710" r="10" class="c0"/>
<circle cx="700" cy="566" r="10" class="c0"/>
<circle cx="864" cy="684" r="10" class="c0"/>
<circle cx="844" cy="820" r="10" class="c0"/>
<circle cx="856" cy="790" r="10" class="c0"/>
<circle cx="962" cy="272" r="10" class="c0"/>
<circle cx="988" cy="258" r="10" class="c0"/>
<circle cx="946" cy="240" r="10" class="c0"/>
<circle cx="796" cy="650" r="10" class="c0"/>
<circle cx="816" cy="660" r="10" class="c0"/>
<circle cx="930" cy="182" r="10" class="c0"/>
<circle cx="958" cy="156" r="10" class="c0"/>
<circle cx="824" cy="860" r="10" class="c0"/>
<circle cx="818" cy="276" r="10" class="c0"/>
<circle cx="800" cy="528" r="10" class="c0"/>
<circle cx="768" cy="196" r="10" class="c0"/>
<circle cx="834" cy="404" r="10" class="c0"/>
<circle cx="828" cy="156" r="10" class="c0"/>
<circle cx="756" cy="554" r="10" class="c0"/>
<circle cx="838" cy="724" r="10" class="c0"/>
<circle cx="860" cy="452" r="10" class="c0"/>
<circle cx="750" cy="638" r="10" class="c0"/>
<circle cx="856" cy="118" r="10" class="c0"/>
<circle cx="830" cy="912" r="10" class="c0"/>
<circle cx="884" cy="272" r="10" class="c0"/>
<circle cx="774" cy="612" r="10" class="c0"/>
<circle cx="862" cy="894" r="10" class="c0"/>
<circle cx="854" cy="1012" r="10" class="c0"/>
<circle cx="742" cy="530" r="10" class="c0"/>
<circle cx="910" cy="628" r="10" class="c0"/>
<circle cx="800" cy="422" r="10" class="c0"/>
<circle cx="928" cy="326" r="10" class="c0"/>
<circle cx="728" cy="266" r="10" class="c0"/>
<circle cx="800" cy="316" r="10" class="c0"/>
<circle cx="830" cy="750" r="10" class="c0"/>
<circle cx="820" cy="510" r="10" class="c0"/>
<circle cx="794" cy="704" r="10" class="c0"/>
<circle cx="916" cy="266" r="10" class="c0"/>
<circle cx="788" cy="374" r="10" class="c0"/>
<circle cx="934" cy="358" r="10" class="c0"/>
<circle cx="880" cy="722" r="10" class="c0"/>
<circle cx="876" cy="200" r="10" class="c0"/>
<circle cx="818" cy="934" r="10" class="c0"/>
<circle cx="708" cy="240" r="10" class="c0"/>
<circle cx="890" cy="904" r="10" class="c0"/>
<circle cx="852" cy="766" r="10" class="c0"/>
<circle cx="900" cy="426" r="10" class="c0"/>
<circle cx="938" cy="210" r="10" class="c0"/>
<circle cx="894" cy="612" r="10" class="c0"/>
<circle cx="912" cy="192" r="10" class="c0"/>
<circle cx="904" cy="328" r="10" class="c0"/>
<circle cx="822" cy="634" r="10" class="c0"/>
<circle cx="904" cy="558" r="10" class="c0"/>
<circle cx="902" cy="498" r="10" class="c0"/>
<circle cx="972" cy="196" r="10" class="c0"/>
<circle cx="892" cy="694" r="10" class="c0"/>
<circle cx="978" cy="146" r="10" class="c0"/>
<circle cx="752" cy="220" r="8" class="c0"/>
<circle cx="796" cy="352" r="8" class="c0"/>
<circle cx="752" cy="294" r="8" class="c0"/>
<circle cx="716" cy="624" r="8" class="c0"/>
<circle cx="788" cy="566" r="8" class="c0"/>
<circle cx="916" cy="406" r="8" class="c0"/>
<circle cx="732" cy="242" r="8" class="c0"/>
<circle cx="892" cy="108" r="8" class="c0"/>
<circle cx="788" cy="226" r="8" class="c0"/>
<circle cx="852" cy="430" r="8" class="c0"/>
<circle cx="832" cy="44" r="8" class="c0"/>
<circle cx="846" cy="876" r="8" class="c0"/>
<circle cx="872" cy="914" r="8" class="c0"/>
<circle cx="876" cy="882" r="8" class="c0"/>
<circle cx="754" cy="660" r="8" class="c0"/>
<circle cx="894" cy="392" r="8" class="c0"/>
<circle cx="852" cy="152" r="8" class="c0"/>
<circle cx="848" cy="330" r="8" class="c0"/>
<circle cx="738" cy="606" r="8" class="c0"/>
<circle cx="884" cy="836" r="8" class="c0"/>
<circle cx="934" cy="394" r="8" class="c0"/>
<circle cx="998" cy="282" r="8" class="c0"/>
<circle cx="774" cy="236" r="8" class="c0"/>
<circle cx="868" cy="620" r="8" class="c0"/>
<circle cx="908" cy="478" r="8" class="c0"/>
<circle cx="934" cy="140" r="8" class="c0"/>
<circle cx="726" cy="220" r="8" class="c0"/>
<circle cx="822" cy="550" r="8" class="c0"/>
<circle cx="862" cy="868" r="8" class="c0"/>
<circle cx="844" cy="84" r="8" class="c0"/>
<circle cx="1036" cy="218" r="8" class="c0"/>
<circle cx="754" cy="592" r="8" class="c0"/>
<circle cx="906" cy="250" r="8" class="c0"/>
<circle cx="898" cy="644" r="8" class="c0"/>
<circle cx="856" cy="980" r="8" class="c0"/>
<circle cx="816" cy="176" r="8" class="c0"/>
<circle cx="804" cy="876" r="8" class="c0"/>
<circle cx="914" cy="602" r="8" class="c0"/>
<circle cx="822" cy="834" r="8" class="c0"/>
<circle cx="792" cy="814" r="8" class="c0"/>
<circle cx="708" cy="536" r="8" class="c0"/>
<circle cx="888" cy="346" r="8" class="c0"/>
<circle cx="874" cy="644" r="8" class="c0"/>
<circle cx="910" cy="676" r="8" class="c0"/>
<circle cx="840" cy="930" r="8" class="c0"/>
<circle cx="1020" cy="282" r="8" class="c0"/>
<circle cx="774" cy="530" r="8" class="c0"/>
<circle cx="908" cy="826" r="8" class="c0"/>
<circle cx="740" cy="202" r="8" class="c0"/>
<circle cx="790" cy="546" r="8" class="c0"/>
<circle cx="942" cy="464" r="8" class="c0"/>
<circle cx="936" cy="268" r="8" class="c0"/>
<circle cx="986" cy="212" r="8" class="c0"/>
<circle cx="868" cy="334" r="8" class="c0"/>
<circle cx="900" cy="874" r="8" class="c0"/>
<circle cx="822" cy="388" r="8" class="c0"/>
<circle cx="874" cy="798" r="8" class="c0"/>
<circle cx="876" cy="48" r="8" class="c0"/>
<circle cx="788" cy="396" r="8" class="c0"/>
<circle cx="862" cy="66" r="8" class="c0"/>
<circle cx="754" cy="614" r="8" class="c0"/>
<circle cx="884" cy="768" r="8" class="c0"/>
<circle cx="836" cy="688" r="8" class="c0"/>
<circle cx="828" cy="462" r="8" class="c0"/>
<circle cx="840" cy="504" r="8" class="c0"/>
<circle cx="818" cy="370" r="8" class="c0"/>
<circle cx="772" cy="584" r="8" class="c0"/>
<circle cx="800" cy="502" r="8" class="c0"/>
<circle cx="820" cy="10" r="8" class="c0"/>
<circle cx="958" cy="300" r="8" class="c0"/>
<circle cx="824" cy="486" r="8" class="c0"/>
<circle cx="874" cy="572" r="8" class="c0"/>
<circle cx="886" cy="864" r="8" class="c0"/>
<circle cx="848" cy="672" r="8" class="c0"/>
<circle cx="812" cy="400" r="8" class="c0"/>
<circle cx="958" cy="224" r="8" class="c0"/>
<circle cx="750" cy="680" r="8" class="c0"/>
<circle cx="988" cy="332" r="8" class="c0"/>
<circle cx="846" cy="388" r="8" class="c0"/>
<circle cx="930" cy="480" r="8" class="c0"/>
<circle cx="832" cy="220" r="8" class="c0"/>
<circle cx="812" cy="304" r="8" class="c0"/>
<circle cx="984" cy="306" r="8" class="c0"/>
<circle cx="798" cy="672" r="8" class="c0"/>
<circle cx="1028" cy="168" r="8" class="c0"/>
<circle cx="704" cy="608" r="8" class="c0"/>
<circle cx="890" cy="298" r="8" class="c0"/>
<circle cx="716" cy="592" r="8" class="c0"/>
<circle cx="924" cy="156" r="8" class="c0"/>
<circle cx="896" cy="786" r="8" class="c0"/>
<circle cx="690" cy="548" r="8" class="c0"/>
<circle cx="912" cy="388" r="8" class="c0"/>
<circle cx="854" cy="46" r="8" class="c0"/>
<circle cx="830" cy="990" r="8" class="c0"/>
<circle cx="886" cy="668" r="8" class="c0"/>
<circle cx="810" cy="36" r="8" class="c0"/>
<circle cx="910" cy="308" r="8" class="c0"/>
<circle cx="860" cy="372" r="8" class="c0"/>
<circle cx="920" cy="534" r="8" class="c0"/>
<circle cx="706" cy="516" r="8" class="c0"/>
<circle cx="876" cy="246" r="8" class="c0"/>
<circle cx="782" cy="752" r="8" class="c0"/>
<circle cx="742" cy="582" r="8" class="c0"/>
<circle cx="862" cy="736" r="8" class="c0"/>
<circle cx="726" cy="570" r="8" class="c0"/>
<circle cx="872" cy="754" r="8" class="c0"/>
<circle cx="818" cy="972" r="8" class="c0"/>
<circle cx="736" cy="700" r="8" class="c0"/>
<circle cx="852" cy="916" r="8" class="c0"/>
<circle cx="768" cy="348" r="8" class="c0"/>
<circle cx="788" cy="170" r="8" class="c0"/>
<circle cx="830" cy="530" r="8" class="c0"/>
<circle cx="908" cy="290" r="8" class="c0"/>
<circle cx="784" cy="628" r="8" class="c0"/>
<circle cx="802" cy="830" r="8" class="c0"/>
<circle cx="860" cy="310" r="8" class="c0"/>
<circle cx="790" cy="586" r="8" class="c0"/>
<circle cx="818" cy="814" r="8" class="c0"/>
<circle cx="952" cy="424" r="8" class="c0"/>
<circle cx="846" cy="176" r="8" class="c0"/>
<circle cx="968" cy="382" r="8" class="c0"/>
<circle cx="886" cy="470" r="8" class="c0"/>
<circle cx="984" cy="234" r="8" class="c0"/>
<circle cx="822" cy="352" r="8" class="c0"/>
<circle cx="694" cy="586" r="8" class="c0"/>
<circle cx="970" cy="352" r="8" class="c0"/>
<circle cx="796" cy="444" r="8" class="c0"/>
<circle cx="874" cy="18" r="8" class="c0"/>
<circle cx="872" cy="826" r="8" class="c0"/>
<circle cx="964" cy="178" r="8" class="c0"/>
<circle cx="864" cy="654" r="8" class="c0"/>
<circle cx="902" cy="374" r="8" class="c0"/>
<circle cx="714" cy="644" r="8" class="c0"/>
<circle cx="1014" cy="240" r="8" class="c0"/>
<circle cx="860" cy="712" r="8" class="c0"/>
<circle cx="834" cy="564" r="8" class="c0"/>
<circle cx="960" cy="132" r="8" class="c0"/>
<circle cx="800" cy="756" r="8" class="c0"/>
<circle cx="816" cy="898" r="8" class="c0"/>
<circle cx="838" cy="614" r="8" class="c0"/>
<circle cx="858" cy="596" r="8" class="c0"/>
<circle cx="972" cy="248" r="8" class="c0"/>
<circle cx="706" cy="210" r="8" class="c0"/>
<circle cx="760" cy="500" r="8" class="c0"/>
<circle cx="942" cy="314" r="8" class="c0"/>
<circle cx="894" cy="816" r="8" class="c0"/>
<circle cx="872" cy="394" r="8" class="c0"/>
<circle cx="1036" cy="238" r="8" class="c0"/>
<circle cx="1018" cy="222" r="8" class="c0"/>
<circle cx="836" cy="786" r="8" class="c0"/>
<circle cx="772" cy="258" r="8" class="c0"/>
<circle cx="872" cy="132" r="8" class="c0"/>
<circle cx="1014" cy="300" r="8" class="c0"/>
<circle cx="748" cy="320" r="8" class="c0"/>
<circle cx="752" cy="242" r="8" class="c0"/>
<circle cx="806" cy="340" r="8" class="c0"/>
<circle cx="866" cy="36" r="8" class="c0"/>
<circle cx="816" cy="684" r="8" class="c0"/>
<circle cx="730" cy="512" r="8" class="c0"/>
<circle cx="858" cy="406" r="8" class="c0"/>
<circle cx="840" cy="542" r="8" class="c0"/>
<circle cx="722" cy="184" r="8" class="c0"/>
<circle cx="840" cy="66" r="8" class="c0"/>
<circle cx="708" cy="274" r="8" class="c0"/>
<circle cx="916" cy="654" r="8" class="c0"/>
<circle cx="1004" cy="204" r="8" class="c0"/>
<circle cx="950" cy="448" r="8" class="c0"/>
<circle cx="800" cy="252" r="8" class="c0"/>
<circle cx="854" cy="94" r="8" class="c0"/>
<circle cx="748" cy="186" r="8" class="c0"/>
<circle cx="818" cy="206" r="8" class="c0"/>
<circle cx="912" cy="142" r="8" class="c0"/>
<circle cx="766" cy="648" r="8" class="c0"/>
<circle cx="856" cy="268" r="8" class="c0"/>
<circle cx="910" cy="444" r="8" class="c0"/>
<circle cx="842" cy="134" r="8" class="c0"/>
<circle cx="896" cy="202" r="8" class="c0"/>
<circle cx="784" cy="662" r="8" class="c0"/>
<circle cx="914" cy="118" r="8" class="c0"/>
<circle cx="1018" cy="178" r="8" class="c0"/>
<circle cx="946" cy="346" r="8" class="c0"/>
<circle cx="800" cy="288" r="8" class="c0"/>
<circle cx="798" cy="180" r="8" class="c0"/>
<circle cx="836" cy="308" r="8" class="c0"/>
<circle cx="758" cy="518" r="8" class="c0"/>
<circle cx="726" cy="634" r="8" class="c0"/>
<circle cx="818" cy="446" r="8" class="c0"/>
<circle cx="982" cy="174" r="8" class="c0"/>
<circle cx="788" cy="514" r="8" class="c0"/>
<circle cx="948" cy="288" r="8" class="c0"/>
<circle cx="822" cy="774" r="8" class="c0"/>
<circle cx="926" cy="378" r="8" class="c0"/>
<circle cx="850" cy="698" r="8" class="c0"/>
<circle cx="820" cy="256" r="8" class="c0"/>
<circle cx="946" cy="378" r="8" class="c0"/>
<circle cx="828" cy="880" r="8" class="c0"/>
<circle cx="918" cy="514" r="8" class="c0"/>
<circle cx="768" cy="696" r="8" class="c0"/>
<circle cx="900" cy="844" r="8" class="c0"/>
<circle cx="732" cy="174" r="8" class="c0"/>
<circle cx="776" cy="216" r="8" class="c0"/>
<circle cx="742" cy="722" r="8" class="c0"/>
<circle cx="882" cy="600" r="8" class="c0"/>
<circle cx="866" cy="994" r="8" class="c0"/>
<circle cx="998" cy="132" r="8" class="c0"/>
<circle cx="884" cy="180" r="8" class="c0"/>
<circle cx="740" cy="282" r="8" class="c0"/>
<circle cx="908" cy="802" r="8" class="c0"/>
<circle cx="838" cy="450" r="8" class="c0"/>
<circle cx="842" cy="896" r="8" class="c0"/>
<circle cx="842" cy="1000" r="8" class="c0"/>
<circle cx="762" cy="166" r="8" class="c0"/>
<circle cx="1008" cy="270" r="8" class="c0"/>
<circle cx="742" cy="502" r="8" class="c0"/>
<circle cx="794" cy="726" r="8" class="c0"/>
<circle cx="880" cy="148" r="8" class="c0"/>
<circle cx="958" cy="364" r="6" class="c0"/>
<circle cx="888" cy="634" r="6" class="c0"/>
<circle cx="872" cy="228" r="6" class="c0"/>
<circle cx="716" cy="200" r="6" class="c0"/>
<circle cx="758" cy="572" r="6" class="c0"/>
<circle cx="920" cy="838" r="6" class="c0"/>
<circle cx="876" cy="702" r="6" class="c0"/>
<circle cx="980" cy="364" r="6" class="c0"/>
<circle cx="836" cy="476" r="6" class="c0"/>
<circle cx="916" cy="584" r="6" class="c0"/>
<circle cx="884" cy="560" r="6" class="c0"/>
<circle cx="910" cy="172" r="6" class="c0"/>
<circle cx="784" cy="414" r="6" class="c0"/>
<circle cx="890" cy="254" r="6" class="c0"/>
<circle cx="798" cy="486" r="6" class="c0"/>
<circle cx="876" cy="114" r="6" class="c0"/>
<circle cx="866" cy="278" r="6" class="c0"/>
<circle cx="872" cy="296" r="6" class="c0"/>
<circle cx="946" cy="194" r="6" class="c0"/>
<circle cx="926" cy="246" r="6" class="c0"/>
<circle cx="874" cy="852" r="6" class="c0"/>
<circle cx="768" cy="632" r="6" class="c0"/>
<circle cx="836" cy="842" r="6" class="c0"/>
<circle cx="846" cy="464" r="6" class="c0"/>
<circle cx="802" cy="626" r="6" class="c0"/>
<circle cx="888" cy="538" r="6" class="c0"/>
<circle cx="836" cy="946" r="6" class="c0"/>
<circle cx="728" cy="686" r="6" class="c0"/>
<circle cx="812" cy="914" r="6" class="c0"/>
<circle cx="858" cy="190" r="6" class="c0"/>
<circle cx="816" cy="52" r="6" class="c0"/>
<circle cx="790" cy="332" r="6" class="c0"/>
<circle cx="824" cy="1006" r="6" class="c0"/>
<circle cx="704" cy="258" r="6" class="c0"/>
<circle cx="924" cy="128" r="6" class="c0"/>
<circle cx="948" cy="174" r="6" class="c0"/>
<circle cx="810" cy="192" r="6" class="c0"/>
<circle cx="836" cy="236" r="6" class="c0"/>
<circle cx="704" cy="186" r="6" class="c0"/>
<circle cx="800" cy="556" r="6" class="c0"/>
<circle cx="714" cy="292" r="6" class="c0"/>
<circle cx="862" cy="810" r="6" class="c0"/>
<circle cx="878" cy="518" r="6" class="c0"/>
<circle cx="870" cy="776" r="6" class="c0"/>
<circle cx="778" cy="180" r="6" class="c0"/>
<circle cx="842" cy="802" r="6" class="c0"/>
<circle cx="886" cy="236" r="6" class="c0"/>
<circle cx="790" cy="686" r="6" class="c0"/>
<circle cx="820" cy="794" r="6" class="c0"/>
<circle cx="838" cy="344" r="6" class="c0"/>
<circle cx="998" cy="222" r="6" class="c0"/>
<circle cx="868" cy="358" r="6" class="c0"/>
<circle cx="778" cy="360" r="6" class="c0"/>
<circle cx="776" cy="710" r="6" class="c0"/>
<circle cx="940" cy="410" r="6" class="c0"/>
<circle cx="978" cy="282" r="6" class="c0"/>
<circle cx="892" cy="408" r="6" class="c0"/>
<circle cx="890" cy="72" r="6" class="c0"/>
<circle cx="812" cy="954" r="6" class="c0"/>
<circle cx="956" cy="206" r="6" class="c0"/>
<circle cx="834" cy="656" r="6" class="c0"/>
<circle cx="970" cy="316" r="6" class="c0"/>
<circle cx="846" cy="742" r="6" class="c0"/>
<circle cx="910" cy="210" r="6" class="c0"/>
<circle cx="834" cy="378" r="6" class="c0"/>
<circle cx="764" cy="304" r="6" class="c0"/>
<circle cx="868" cy="102" r="6" class="c0"/>
<circle cx="926" cy="876" r="6" class="c0"/>
<circle cx="850" cy="532" r="6" class="c0"/>
<circle cx="802" cy="218" r="6" class="c0"/>
<circle cx="828" cy="294" r="6" class="c0"/>
<circle cx="902" cy="890" r="6" class="c0"/>
<circle cx="828" cy="28" r="6" class="c0"/>
<circle cx="940" cy="158" r="6" class="c0"/>
<circle cx="944" cy="108" r="6" class="c0"/>
<circle cx="876" cy="460" r="6" class="c0"/>
<circle cx="868" cy="436" r="6" class="c0"/>
<circle cx="742" cy="564" r="6" class="c0"/>
<circle cx="798" cy="236" r="6" class="c0"/>
<circle cx="830" cy="670" r="6" class="c0"/>
<circle cx="840" cy="276" r="6" class="c0"/>
<circle cx="836" cy="1044" r="6" class="c0"/>
<circle cx="722" cy="284" r="6" class="c0"/>
<circle cx="802" cy="384" r="6" class="c0"/>
<circle cx="812" cy="540" r="6" class="c0"/>
<circle cx="884" cy="742" r="6" class="c0"/>
<circle cx="998" cy="242" r="6" class="c0"/>
<circle cx="970" cy="214" r="6" class="c0"/>
<circle cx="864" cy="6" r="6" class="c0"/>
<circle cx="844" cy="106" r="6" class="c0"/>
<circle cx="920" cy="490" r="6" class="c0"/>
<circle cx="758" cy="746" r="6" class="c0"/>
<circle cx="856" cy="344" r="6" class="c0"/>
<circle cx="952" cy="258" r="6" class="c0"/>
<circle cx="736" cy="622" r="6" class="c0"/>
<circle cx="852" cy="580" r="6" class="c0"/>
<circle cx="986" cy="348" r="6" class="c0"/>
<circle cx="852" cy="946" r="6" class="c0"/>
<circle cx="862" cy="142" r="6" class="c0"/>
<circle cx="852" cy="622" r="6" class="c0"/>
<circle cx="904" cy="460" r="6" class="c0"/>
<circle cx="742" cy="232" r="6" class="c0"/>
<circle cx="970" cy="290" r="6" class="c0"/>
<circle cx="788" cy="602" r="6" class="c0"/>
<circle cx="774" cy="558" r="6" class="c0"/>
<circle cx="968" cy="408" r="6" class="c0"/>
<circle cx="722" cy="526" r="6" class="c0"/>
<circle cx="742" cy="256" r="6" class="c0"/>
<circle cx="880" cy="220" r="6" class="c0"/>
<circle cx="882" cy="64" r="6" class="c0"/>
<circle cx="784" cy="248" r="6" class="c0"/>
<circle cx="750" cy="738" r="6" class="c0"/>
<circle cx="844" cy="860" r="6" class="c0"/>
<circle cx="820" cy="414" r="6" class="c0"/>
<circle cx="808" cy="716" r="6" class="c0"/>
<circle cx="934" cy="446" r="6" class="c0"/>
<circle cx="896" cy="712" r="6" class="c0"/>
<circle cx="794" cy="618" r="6" class="c0"/>
<circle cx="718" cy="166" r="6" class="c0"/>
<circle cx="870" cy="472" r="6" class="c0"/>
<circle cx="946" cy="122" r="6" class="c0"/>
<circle cx="722" cy="608" r="6" class="c0"/>
<circle cx="808" cy="804" r="6" class="c0"/>
<circle cx="920" cy="816" r="6" class="c0"/>
<circle cx="806" cy="158" r="6" class="c0"/>
<circle cx="838" cy="6" r="6" class="c0"/>
<circle cx="1006" cy="254" r="6" class="c0"/>
<circle cx="784" cy="836" r="6" class="c0"/>
<circle cx="772" cy="152" r="6" class="c0"/>
<circle cx="842" cy="420" r="6" class="c0"/>
<circle cx="780" cy="490" r="6" class="c0"/>
<circle cx="844" cy="210" r="6" class="c0"/>
<circle cx="828" cy="804" r="6" class="c0"/>
<circle cx="690" cy="528" r="6" class="c0"/>
<circle cx="790" cy="868" r="6" class="c0"/>
<circle cx="776" cy="386" r="6" class="c0"/>
<circle cx="888" cy="508" r="6" class="c0"/>
<circle cx="900" cy="660" r="6" class="c0"/>
<circle cx="892" cy="570" r="6" class="c0"/>
<circle cx="980" cy="128" r="6" class="c0"/>
<circle cx="866" cy="256" r="6" class="c0"/>
<circle cx="758" cy="338" r="6" class="c0"/>
<circle cx="792" cy="742" r="6" class="c0"/>
<circle cx="926" cy="280" r="6" class="c0"/>
<circle cx="782" cy="340" r="6" class="c0"/>
<circle cx="902" cy="540" r="6" class="c0"/>
<circle cx="872" cy="588" r="6" class="c0"/>
<circle cx="894" cy="758" r="6" class="c0"/>
<circle cx="884" cy="34" r="6" class="c0"/>
</svg>
