<?xml version="1.0" encoding="utf-8"?>
<svg xmlns="http://www.w3.org/2000/svg"
     xmlns:xlink="http://www.w3.org/1999/xlink" width="1920" height="1440" >

            <defs>
            <style type="text/css"><![CDATA[
circle {stroke: none;}
.c0 {fill: #000000;}
]]></style>
            </defs>
<rect x="0" y="0" width="1920" height="1440" fill="white"/>
<circle cx="770" cy="410" r="14" class="c0"/>
<circle cx="832" cy="230" r="12" class="c0"/>
<circle cx="880" cy="678" r="12" class="c0"/>
<circle cx="884" cy="784" r="12" class="c0"/>
<circle cx="878" cy="512" r="12" class="c0"/>
<circle cx="904" cy="348" r="12" class="c0"/>
<circle cx="844" cy="134" r="12" class="c0"/>
<circle cx="862" cy="714" r="12" class="c0"/>
<circle cx="888" cy="826" r="12" class="c0"/>
<circle cx="830" cy="644" r="12" class="c0"/>
<circle cx="842" cy="1200" r="12" class="c0"/>
<circle cx="774" cy="888" r="12" class="c0"/>
<circle cx="810" cy="690" r="12" class="c0"/>
<circle cx="750" cy="478" r="12" class="c0"/>
<circle cx="820" cy="544" r="12" class="c0"/>
<circle cx="812" cy="948" r="12" class="c0"/>
<circle cx="858" cy="368" r="12" class="c0"/>
<circle cx="914" cy="524" r="12" class="c0"/>
<circle cx="876" cy="296" r="12" class="c0"/>
<circle cx="808" cy="900" r="12" class="c0"/>
<circle cx="880" cy="154" r="12" class="c0"/>
<circle cx="866" cy="870" r="12" class="c0"/>
<circle cx="984" cy="412" r="12" class="c0"/>
<circle cx="850" cy="968" r="12" class="c0"/>
<circle cx="796" cy="614" r="12" class="c0"/>
<circle cx="778" cy="502" r="12" class="c0"/>
<circle cx="878" cy="986" r="12" class="c0"/>
<circle cx="820" cy="482" r="12" class="c0"/>
<circle cx="808" cy="414" r="12" class="c0"/>
<circle cx="910" cy="1066" r="12" class="c0"/>
<circle cx="890" cy="324" r="12" class="c0"/>
<circle cx="856" cy="656" r="12" class="c0"/>
<circle cx="840" cy="608" r="12" class="c0"/>
<circle cx="862" cy="936" r="12" class="c0"/>
<circle cx="950" cy="370" r="12" class="c0"/>
<circle cx="1004" cy="486" r="12" class="c0"/>
<circle cx="870" cy="592" r="12" class="c0"/>
<circle cx="882" cy="572" r="10" class="c0"/>
<circle cx="900" cy="404" r="10" class="c0"/>
<circle cx="946" cy="604" r="10" class="c0"/>
<circle cx="830" cy="1002" r="10" class="c0"/>
<circle cx="722" cy="388" r="10" class="c0"/>
<circle cx="856" cy="108" r="10" class="c0"/>
<circle cx="848" cy="582" r="10" class="c0"/>
<circle cx="790" cy="524" r="10" class="c0"/>
<circle cx="782" cy="924" r="10" class="c0"/>
<circle cx="822" cy="722" r="10" class="c0"/>
<circle cx="820" cy="1114" r="10" class="c0"/>
<circle cx="940" cy="522" r="10" class="c0"/>
<circle cx="960" cy="578" r="10" class="c0"/>
<circle cx="966" cy="352" r="10" class="c0"/>
<circle cx="762" cy="772" r="10" class="c0"/>
<circle cx="950" cy="550" r="10" class="c0"/>
<circle cx="840" cy="776" r="10" class="c0"/>
<circle cx="974" cy="540" r="10" class="c0"/>
<circle cx="856" cy="328" r="10" class="c0"/>
<circle cx="798" cy="648" r="10" class="c0"/>
<circle cx="844" cy="1022" r="10" class="c0"/>
<circle cx="960" cy="432" r="10" class="c0"/>
<circle cx="878" cy="118" r="10" class="c0"/>
<circle cx="816" cy="448" r="10" class="c0"/>
<circle cx="916" cy="718" r="10" class="c0"/>
<circle cx="856" cy="1082" r="10" class="c0"/>
<circle cx="866" cy="416" r="10" class="c0"/>
<circle cx="750" cy="728" r="10" class="c0"/>
<circle cx="1022" cy="436" r="10" class="c0"/>
<circle cx="766" cy="812" r="10" class="c0"/>
<circle cx="794" cy="810" r="10" class="c0"/>
<circle cx="924" cy="558" r="10" class="c0"/>
<circle cx="822" cy="1032" r="10" class="c0"/>
<circle cx="886" cy="760" r="10" class="c0"/>
<circle cx="992" cy="458" r="10" class="c0"/>
<circle cx="842" cy="700" r="10" class="c0"/>
<circle cx="876" cy="238" r="10" class="c0"/>
<circle cx="902" cy="488" r="10" class="c0"/>
<circle cx="906" cy="742" r="10" class="c0"/>
<circle cx="722" cy="796" r="10" class="c0"/>
<circle cx="822" cy="1068" r="10" class="c0"/>
<circle cx="928" cy="340" r="10" class="c0"/>
<circle cx="912" cy="456" r="10" class="c0"/>
<circle cx="850" cy="284" r="10" class="c0"/>
<circle cx="836" cy="392" r="10" class="c0"/>
<circle cx="880" cy="626" r="10" class="c0"/>
<circle cx="932" cy="626" r="10" class="c0"/>
<circle cx="918" cy="1010" r="10" class="c0"/>
<circle cx="864" cy="196" r="10" class="c0"/>
<circle cx="836" cy="1170" r="10" class="c0"/>
<circle cx="882" cy="1096" r="10" class="c0"/>
<circle cx="790" cy="444" r="10" class="c0"/>
<circle cx="938" cy="452" r="10" class="c0"/>
<circle cx="922" cy="652" r="10" class="c0"/>
<circle cx="898" cy="558" r="10" class="c0"/>
<circle cx="868" cy="1042" r="10" class="c0"/>
<circle cx="814" cy="216" r="10" class="c0"/>
<circle cx="896" cy="426" r="10" class="c0"/>
<circle cx="942" cy="1042" r="10" class="c0"/>
<circle cx="1010" cy="408" r="10" class="c0"/>
<circle cx="724" cy="826" r="10" class="c0"/>
<circle cx="844" cy="458" r="10" class="c0"/>
<circle cx="742" cy="880" r="10" class="c0"/>
<circle cx="726" cy="454" r="10" class="c0"/>
<circle cx="886" cy="1056" r="10" class="c0"/>
<circle cx="844" cy="522" r="10" class="c0"/>
<circle cx="870" cy="846" r="10" class="c0"/>
<circle cx="910" cy="856" r="10" class="c0"/>
<circle cx="736" cy="814" r="10" class="c0"/>
<circle cx="802" cy="584" r="10" class="c0"/>
<circle cx="922" cy="382" r="10" class="c0"/>
<circle cx="798" cy="760" r="10" class="c0"/>
<circle cx="824" cy="198" r="10" class="c0"/>
<circle cx="738" cy="442" r="10" class="c0"/>
<circle cx="788" cy="714" r="10" class="c0"/>
<circle cx="938" cy="1002" r="10" class="c0"/>
<circle cx="862" cy="1228" r="10" class="c0"/>
<circle cx="884" cy="1012" r="10" class="c0"/>
<circle cx="912" cy="770" r="10" class="c0"/>
<circle cx="714" cy="440" r="10" class="c0"/>
<circle cx="838" cy="1104" r="10" class="c0"/>
<circle cx="906" cy="694" r="10" class="c0"/>
<circle cx="712" cy="756" r="10" class="c0"/>
<circle cx="922" cy="606" r="10" class="c0"/>
<circle cx="774" cy="458" r="10" class="c0"/>
<circle cx="826" cy="884" r="10" class="c0"/>
<circle cx="842" cy="162" r="10" class="c0"/>
<circle cx="766" cy="752" r="8" class="c0"/>
<circle cx="866" cy="1248" r="8" class="c0"/>
<circle cx="974" cy="390" r="8" class="c0"/>
<circle cx="872" cy="176" r="8" class="c0"/>
<circle cx="858" cy="996" r="8" class="c0"/>
<circle cx="986" cy="518" r="8" class="c0"/>
<circle cx="840" cy="668" r="8" class="c0"/>
<circle cx="920" cy="1040" r="8" class="c0"/>
<circle cx="806" cy="562" r="8" class="c0"/>
<circle cx="992" cy="372" r="8" class="c0"/>
<circle cx="818" cy="1088" r="8" class="c0"/>
<circle cx="732" cy="776" r="8" class="c0"/>
<circle cx="908" cy="628" r="8" class="c0"/>
<circle cx="848" cy="254" r="8" class="c0"/>
<circle cx="746" cy="794" r="8" class="c0"/>
<circle cx="878" cy="452" r="8" class="c0"/>
<circle cx="878" cy="476" r="8" class="c0"/>
<circle cx="816" cy="662" r="8" class="c0"/>
<circle cx="764" cy="916" r="8" class="c0"/>
<circle cx="854" cy="820" r="8" class="c0"/>
<circle cx="882" cy="958" r="8" class="c0"/>
<circle cx="862" cy="738" r="8" class="c0"/>
<circle cx="866" cy="914" r="8" class="c0"/>
<circle cx="906" cy="576" r="8" class="c0"/>
<circle cx="906" cy="958" r="8" class="c0"/>
<circle cx="820" cy="774" r="8" class="c0"/>
<circle cx="1008" cy="358" r="8" class="c0"/>
<circle cx="858" cy="1170" r="8" class="c0"/>
<circle cx="860" cy="772" r="8" class="c0"/>
<circle cx="892" cy="924" r="8" class="c0"/>
<circle cx="786" cy="560" r="8" class="c0"/>
<circle cx="814" cy="818" r="8" class="c0"/>
<circle cx="918" cy="418" r="8" class="c0"/>
<circle cx="760" cy="872" r="8" class="c0"/>
<circle cx="688" cy="746" r="8" class="c0"/>
<circle cx="726" cy="712" r="8" class="c0"/>
<circle cx="748" cy="854" r="8" class="c0"/>
<circle cx="814" cy="510" r="8" class="c0"/>
<circle cx="832" cy="572" r="8" class="c0"/>
<circle cx="882" cy="346" r="8" class="c0"/>
<circle cx="816" cy="386" r="8" class="c0"/>
<circle cx="788" cy="844" r="8" class="c0"/>
<circle cx="988" cy="342" r="8" class="c0"/>
<circle cx="888" cy="376" r="8" class="c0"/>
<circle cx="902" cy="996" r="8" class="c0"/>
<circle cx="930" cy="488" r="8" class="c0"/>
<circle cx="838" cy="420" r="8" class="c0"/>
<circle cx="786" cy="792" r="8" class="c0"/>
<circle cx="848" cy="184" r="8" class="c0"/>
<circle cx="862" cy="536" r="8" class="c0"/>
<circle cx="846" cy="898" r="8" class="c0"/>
<circle cx="948" cy="492" r="8" class="c0"/>
<circle cx="782" cy="770" r="8" class="c0"/>
<circle cx="816" cy="842" r="8" class="c0"/>
<circle cx="728" cy="482" r="8" class="c0"/>
<circle cx="914" cy="676" r="8" class="c0"/>
<circle cx="862" cy="1014" r="8" class="c0"/>
<circle cx="970" cy="452" r="8" class="c0"/>
<circle cx="1024" cy="458" r="8" class="c0"/>
<circle cx="984" cy="494" r="8" class="c0"/>
<circle cx="846" cy="500" r="8" class="c0"/>
<circle cx="790" cy="942" r="8" class="c0"/>
<circle cx="746" cy="392" r="8" class="c0"/>
<circle cx="978" cy="322" r="8" class="c0"/>
<circle cx="1022" cy="372" r="8" class="c0"/>
<circle cx="864" cy="1190" r="8" class="c0"/>
<circle cx="824" cy="1142" r="8" class="c0"/>
<circle cx="810" cy="1006" r="8" class="c0"/>
<circle cx="744" cy="832" r="8" class="c0"/>
<circle cx="758" cy="432" r="8" class="c0"/>
<circle cx="850" cy="218" r="8" class="c0"/>
<circle cx="994" cy="390" r="8" class="c0"/>
<circle cx="752" cy="702" r="8" class="c0"/>
<circle cx="832" cy="738" r="8" class="c0"/>
<circle cx="866" cy="490" r="8" class="c0"/>
<circle cx="888" cy="466" r="8" class="c0"/>
<circle cx="796" cy="350" r="8" class="c0"/>
<circle cx="852" cy="684" r="8" class="c0"/>
<circle cx="832" cy="814" r="8" class="c0"/>
<circle cx="846" cy="858" r="8" class="c0"/>
<circle cx="974" cy="474" r="8" class="c0"/>
<circle cx="778" cy="388" r="8" class="c0"/>
<circle cx="806" cy="740" r="8" class="c0"/>
<circle cx="936" cy="668" r="8" class="c0"/>
<circle cx="820" cy="982" r="8" class="c0"/>
<circle cx="748" cy="900" r="8" class="c0"/>
<circle cx="886" cy="536" r="8" class="c0"/>
<circle cx="704" cy="818" r="8" class="c0"/>
<circle cx="822" cy="624" r="8" class="c0"/>
<circle cx="844" cy="342" r="8" class="c0"/>
<circle cx="790" cy="876" r="8" class="c0"/>
<circle cx="722" cy="412" r="8" class="c0"/>
<circle cx="822" cy="924" r="8" class="c0"/>
<circle cx="722" cy="850" r="8" class="c0"/>
<circle cx="946" cy="646" r="8" class="c0"/>
<circle cx="886" cy="888" r="8" class="c0"/>
<circle cx="840" cy="754" r="8" class="c0"/>
<circle cx="798" cy="378" r="8" class="c0"/>
<circle cx="998" cy="326" r="8" class="c0"/>
<circle cx="804" cy="790" r="8" class="c0"/>
<circle cx="808" cy="366" r="8" class="c0"/>
<circle cx="774" cy="702" r="8" class="c0"/>
<circle cx="800" cy="858" r="8" class="c0"/>
<circle cx="862" cy="802" r="8" class="c0"/>
<circle cx="846" cy="1060" r="8" class="c0"/>
<circle cx="846" cy="1126" r="8" class="c0"/>
<circle cx="858" cy="632" r="8" class="c0"/>
<circle cx="698" cy="720" r="8" class="c0"/>
<circle cx="762" cy="844" r="8" class="c0"/>
<circle cx="898" cy="1030" r="8" class="c0"/>
<circle cx="900" cy="598" r="8" class="c0"/>
<circle cx="922" cy="360" r="8" class="c0"/>
<circle cx="896" cy="876" r="8" class="c0"/>
<circle cx="874" cy="1072" r="8" class="c0"/>
<circle cx="846" cy="546" r="8" class="c0"/>
<circle cx="894" cy="128" r="8" class="c0"/>
<circle cx="916" cy="822" r="8" class="c0"/>
<circle cx="892" cy="1078" r="8" class="c0"/>
<circle cx="770" cy="938" r="8" class="c0"/>
<circle cx="724" cy="736" r="8" class="c0"/>
<circle cx="868" cy="438" r="8" class="c0"/>
<circle cx="752" cy="372" r="8" class="c0"/>
<circle cx="732" cy="422" r="8" class="c0"/>
<circle cx="862" cy="1108" r="8" class="c0"/>
<circle cx="946" cy="418" r="8" class="c0"/>
<circle cx="868" cy="388" r="8" class="c0"/>
<circle cx="896" cy="666" r="8" class="c0"/>
<circle cx="892" cy="646" r="8" class="c0"/>
<circle cx="936" cy="570" r="8" class="c0"/>
<circle cx="790" cy="484" r="8" class="c0"/>
<circle cx="826" cy="796" r="8" class="c0"/>
<circle cx="932" cy="432" r="8" class="c0"/>
<circle cx="898" cy="804" r="8" class="c0"/>
<circle cx="1034" cy="418" r="8" class="c0"/>
<circle cx="890" cy="710" r="8" class="c0"/>
<circle cx="966" cy="500" r="8" class="c0"/>
<circle cx="776" cy="738" r="8" class="c0"/>
<circle cx="886" cy="278" r="8" class="c0"/>
<circle cx="860" cy="560" r="8" class="c0"/>
<circle cx="814" cy="1050" r="8" class="c0"/>
<circle cx="840" cy="942" r="8" class="c0"/>
<circle cx="742" cy="410" r="8" class="c0"/>
<circle cx="886" cy="732" r="8" class="c0"/>
<circle cx="956" cy="398" r="8" class="c0"/>
<circle cx="912" cy="982" r="8" class="c0"/>
<circle cx="702" cy="786" r="8" class="c0"/>
<circle cx="1034" cy="398" r="8" class="c0"/>
<circle cx="738" cy="746" r="8" class="c0"/>
<circle cx="688" cy="776" r="8" class="c0"/>
<circle cx="1002" cy="426" r="8" class="c0"/>
<circle cx="930" cy="1054" r="8" class="c0"/>
<circle cx="904" cy="1094" r="8" class="c0"/>
<circle cx="804" cy="464" r="8" class="c0"/>
<circle cx="866" cy="462" r="8" class="c0"/>
<circle cx="990" cy="436" r="8" class="c0"/>
<circle cx="866" cy="262" r="8" class="c0"/>
<circle cx="728" cy="366" r="8" class="c0"/>
<circle cx="834" cy="908" r="8" class="c0"/>
<circle cx="950" cy="342" r="8" class="c0"/>
<circle cx="778" cy="542" r="8" class="c0"/>
<circle cx="880" cy="400" r="8" class="c0"/>
<circle cx="982" cy="362" r="8" class="c0"/>
<circle cx="932" cy="540" r="8" class="c0"/>
<circle cx="846" cy="310" r="8" class="c0"/>
<circle cx="924" cy="584" r="8" class="c0"/>
<circle cx="842" cy="988" r="8" class="c0"/>
<circle cx="738" cy="494" r="8" class="c0"/>
<circle cx="856" cy="150" r="8" class="c0"/>
<circle cx="970" cy="560" r="8" class="c0"/>
<circle cx="810" cy="182" r="8" class="c0"/>
<circle cx="856" cy="400" r="8" class="c0"/>
<circle cx="782" cy="824" r="8" class="c0"/>
<circle cx="804" cy="500" r="8" class="c0"/>
<circle cx="830" cy="960" r="8" class="c0"/>
<circle cx="846" cy="918" r="8" class="c0"/>
<circle cx="914" cy="328" r="8" class="c0"/>
<circle cx="776" cy="858" r="8" class="c0"/>
<circle cx="762" cy="714" r="8" class="c0"/>
<circle cx="954" cy="630" r="8" class="c0"/>
<circle cx="1026" cy="352" r="8" class="c0"/>
<circle cx="850" cy="1146" r="8" class="c0"/>
<circle cx="818" cy="600" r="8" class="c0"/>
<circle cx="932" cy="1022" r="8" class="c0"/>
<circle cx="896" cy="902" r="8" class="c0"/>
<circle cx="818" cy="860" r="8" class="c0"/>
<circle cx="956" cy="472" r="8" class="c0"/>
<circle cx="848" cy="438" r="8" class="c0"/>
<circle cx="874" cy="98" r="8" class="c0"/>
<circle cx="956" cy="510" r="8" class="c0"/>
<circle cx="834" cy="844" r="8" class="c0"/>
<circle cx="862" cy="614" r="8" class="c0"/>
<circle cx="796" cy="546" r="8" class="c0"/>
<circle cx="804" cy="830" r="8" class="c0"/>
<circle cx="920" cy="498" r="8" class="c0"/>
<circle cx="966" cy="522" r="8" class="c0"/>
<circle cx="960" cy="614" r="6" class="c0"/>
<circle cx="872" cy="644" r="6" class="c0"/>
<circle cx="838" cy="268" r="6" class="c0"/>
<circle cx="844" cy="796" r="6" class="c0"/>
<circle cx="816" cy="750" r="6" class="c0"/>
<circle cx="824" cy="170" r="6" class="c0"/>
<circle cx="1012" cy="504" r="6" class="c0"/>
<circle cx="844" cy="202" r="6" class="c0"/>
<circle cx="760" cy="494" r="6" class="c0"/>
<circle cx="940" cy="478" r="6" class="c0"/>
<circle cx="938" cy="326" r="6" class="c0"/>
<circle cx="896" cy="946" r="6" class="c0"/>
<circle cx="930" cy="688" r="6" class="c0"/>
<circle cx="762" cy="514" r="6" class="c0"/>
<circle cx="800" cy="932" r="6" class="c0"/>
<circle cx="902" cy="838" r="6" class="c0"/>
<circle cx="904" cy="786" r="6" class="c0"/>
<circle cx="878" cy="362" r="6" class="c0"/>
<circle cx="784" cy="578" r="6" class="c0"/>
<circle cx="852" cy="234" r="6" class="c0"/>
<circle cx="884" cy="862" r="6" class="c0"/>
<circle cx="748" cy="684" r="6" class="c0"/>
<circle cx="712" cy="698" r="6" class="c0"/>
<circle cx="868" cy="898" r="6" class="c0"/>
<circle cx="864" cy="754" r="6" class="c0"/>
<circle cx="806" cy="974" r="6" class="c0"/>
<circle cx="798" cy="676" r="6" class="c0"/>
<circle cx="834" cy="868" r="6" class="c0"/>
<circle cx="822" cy="430" r="6" class="c0"/>
<circle cx="828" cy="374" r="6" class="c0"/>
<circle cx="692" cy="796" r="6" class="c0"/>
<circle cx="1010" cy="386" r="6" class="c0"/>
<circle cx="830" cy="148" r="6" class="c0"/>
<circle cx="866" cy="224" r="6" class="c0"/>
<circle cx="878" cy="656" r="6" class="c0"/>
<circle cx="848" cy="482" r="6" class="c0"/>
<circle cx="770" cy="526" r="6" class="c0"/>
<circle cx="700" cy="736" r="6" class="c0"/>
<circle cx="904" cy="384" r="6" class="c0"/>
<circle cx="900" cy="508" r="6" class="c0"/>
<circle cx="864" cy="348" r="6" class="c0"/>
<circle cx="870" cy="694" r="6" class="c0"/>
<circle cx="770" cy="794" r="6" class="c0"/>
<circle cx="878" cy="208" r="6" class="c0"/>
<circle cx="716" cy="778" r="6" class="c0"/>
<circle cx="806" cy="878" r="6" class="c0"/>
<circle cx="894" cy="106" r="6" class="c0"/>
<circle cx="828" cy="1186" r="6" class="c0"/>
<circle cx="762" cy="692" r="6" class="c0"/>
<circle cx="880" cy="1030" r="6" class="c0"/>
<circle cx="830" cy="682" r="6" class="c0"/>
<circle cx="914" cy="434" r="6" class="c0"/>
<circle cx="896" cy="968" r="6" class="c0"/>
<circle cx="872" cy="136" r="6" class="c0"/>
<circle cx="840" cy="1042" r="6" class="c0"/>
<circle cx="894" cy="846" r="6" class="c0"/>
<circle cx="928" cy="402" r="6" class="c0"/>
<circle cx="1006" cy="448" r="6" class="c0"/>
<circle cx="926" cy="470" r="6" class="c0"/>
<circle cx="844" cy="1232" r="6" class="c0"/>
<circle cx="1002" cy="512" r="6" class="c0"/>
<circle cx="916" cy="800" r="6" class="c0"/>
<circle cx="822" cy="524" r="6" class="c0"/>
<circle cx="898" cy="618" r="6" class="c0"/>
<circle cx="870" cy="550" r="6" class="c0"/>
<circle cx="826" cy="462" r="6" class="c0"/>
<circle cx="956" cy="326" r="6" class="c0"/>
<circle cx="842" cy="358" r="6" class="c0"/>
<circle cx="854" cy="884" r="6" class="c0"/>
<circle cx="888" cy="442" r="6" class="c0"/>
<circle cx="812" cy="634" r="6" class="c0"/>
<circle cx="844" cy="562" r="6" class="c0"/>
<circle cx="756" cy="452" r="6" class="c0"/>
<circle cx="930" cy="984" r="6" class="c0"/>
<circle cx="830" cy="1052" r="6" class="c0"/>
<circle cx="878" cy="428" r="6" class="c0"/>
<circle cx="788" cy="596" r="6" class="c0"/>
<circle cx="848" cy="730" r="6" class="c0"/>
<circle cx="876" cy="810" r="6" class="c0"/>
<circle cx="774" cy="478" r="6" class="c0"/>
<circle cx="866" cy="1210" r="6" class="c0"/>
<circle cx="1024" cy="478" r="6" class="c0"/>
<circle cx="772" cy="684" r="6" class="c0"/>
<circle cx="832" cy="180" r="6" class="c0"/>
<circle cx="866" cy="956" r="6" class="c0"/>
<circle cx="968" cy="596" r="6" class="c0"/>
<circle cx="718" cy="470" r="6" class="c0"/>
<circle cx="746" cy="760" r="6" class="c0"/>
<circle cx="778" cy="432" r="6" class="c0"/>
<circle cx="924" cy="700" r="6" class="c0"/>
<circle cx="792" cy="402" r="6" class="c0"/>
<circle cx="798" cy="964" r="6" class="c0"/>
<circle cx="732" cy="866" r="6" class="c0"/>
<circle cx="922" cy="1082" r="6" class="c0"/>
<circle cx="808" cy="530" r="6" class="c0"/>
<circle cx="910" cy="884" r="6" class="c0"/>
<circle cx="798" cy="916" r="6" class="c0"/>
<circle cx="962" cy="414" r="6" class="c0"/>
<circle cx="828" cy="410" r="6" class="c0"/>
<circle cx="808" cy="710" r="6" class="c0"/>
<circle cx="830" cy="438" r="6" class="c0"/>
<circle cx="856" cy="510" r="6" class="c0"/>
<circle cx="714" cy="726" r="6" class="c0"/>
<circle cx="786" cy="904" r="6" class="c0"/>
<circle cx="894" cy="304" r="6" class="c0"/>
<circle cx="890" cy="608" r="6" class="c0"/>
<circle cx="880" cy="906" r="6" class="c0"/>
<circle cx="862" cy="126" r="6" class="c0"/>
<circle cx="868" cy="314" r="6" class="c0"/>
<circle cx="938" cy="504" r="6" class="c0"/>
<circle cx="884" cy="940" r="6" class="c0"/>
<circle cx="868" cy="278" r="6" class="c0"/>
<circle cx="854" cy="838" r="6" class="c0"/>
<circle cx="884" cy="260" r="6" class="c0"/>
<circle cx="940" cy="394" r="6" class="c0"/>
<circle cx="860" cy="166" r="6" class="c0"/>
<circle cx="956" cy="532" r="6" class="c0"/>
<circle cx="838" cy="1076" r="6" class="c0"/>
<circle cx="896" cy="72" r="6" class="c0"/>
<circle cx="816" cy="574" r="6" class="c0"/>
<circle cx="762" cy="390" r="6" class="c0"/>
<circle cx="790" cy="666" r="6" class="c0"/>
<circle cx="908" cy="370" r="6" class="c0"/>
<circle cx="836" cy="1222" r="6" class="c0"/>
<circle cx="824" cy="360" r="6" class="c0"/>
<circle cx="972" cy="372" r="6" class="c0"/>
<circle cx="922" cy="442" r="6" class="c0"/>
<circle cx="840" cy="828" r="6" class="c0"/>
<circle cx="900" cy="1046" r="6" class="c0"/>
<circle cx="902" cy="538" r="6" class="c0"/>
<circle cx="918" cy="838" r="6" class="c0"/>
<circle cx="806" cy="434" r="6" class="c0"/>
<circle cx="858" cy="448" r="6" class="c0"/>
<circle cx="838" cy="326" r="6" class="c0"/>
<circle cx="712" cy="838" r="6" class="c0"/>
<circle cx="894" cy="522" r="6" class="c0"/>
<circle cx="830" cy="506" r="6" class="c0"/>
<circle cx="862" cy="1062" r="6" class="c0"/>
<circle cx="796" cy="730" r="6" class="c0"/>
<circle cx="772" cy="364" r="6" class="c0"/>
<circle cx="854" cy="788" r="6" class="c0"/>
<circle cx="940" cy="586" r="6" class="c0"/>
<circle cx="1014" cy="470" r="6" class="c0"/>
<circle cx="1016" cy="338" r="6" class="c0"/>
<circle cx="730" cy="684" r="6" class="c0"/>
<circle cx="1034" cy="448" r="6" class="c0"/>
<circle cx="736" cy="698" r="6" class="c0"/>
<circle cx="790" cy="424" r="6" class="c0"/>
<circle cx="826" cy="830" r="6" class="c0"/>
<circle cx="842" cy="630" r="6" class="c0"/>
<circle cx="808" cy="1022" r="6" class="c0"/>
<circle cx="910" cy="546" r="6" class="c0"/>
<circle cx="822" cy="1160" r="6" class="c0"/>
<circle cx="698" cy="766" r="6" class="c0"/>
<circle cx="940" cy="352" r="6" class="c0"/>
<circle cx="730" cy="760" r="6" class="c0"/>
<circle cx="868" cy="828" r="6" class="c0"/>
<circle cx="856" cy="80" r="6" class="c0"/>
<circle cx="948" cy="314" r="6" class="c0"/>
<circle cx="714" cy="356" r="6" class="c0"/>
<circle cx="970" cy="302" r="6" class="c0"/>
<circle cx="788" cy="368" r="6" class="c0"/>
<circle cx="856" cy="472" r="6" class="c0"/>
<circle cx="802" cy="394" r="6" class="c0"/>
<circle cx="832" cy="590" r="6" class="c0"/>
<circle cx="834" cy="1152" r="6" class="c0"/>
<circle cx="804" cy="202" r="6" class="c0"/>
<circle cx="918" cy="478" r="6" class="c0"/>
<circle cx="1024" cy="388" r="6" class="c0"/>
<circle cx="836" cy="210" r="6" class="c0"/>
<circle cx="756" cy="348" r="6" class="c0"/>
<circle cx="1000" cy="310" r="6" class="c0"/>
<circle cx="844" cy="876" r="6" class="c0"/>
<circle cx="964" cy="334" r="6" class="c0"/>
<circle cx="928" cy="970" r="6" class="c0"/>
<circle cx="786" cy="748" r="6" class="c0"/>
<circle cx="804" cy="230" r="6" class="c0"/>
<circle cx="752" cy="502" r="6" class="c0"/>
<circle cx="884" cy="492" r="6" class="c0"/>
<circle cx="840" cy="720" r="6" class="c0"/>
</svg>
