<?xml version="1.0" encoding="utf-8"?>
<svg xmlns="http://www.w3.org/2000/svg"
     xmlns:xlink="http://www.w3.org/1999/xlink" width="1920" height="1440" >

            <defs>
            <style type="text/css"><![CDATA[
circle {stroke: none;}
.c0 {fill: #FFFFFF;}
]]></style>
            </defs>
<rect x="0" y="0" width="1920" height="1440" fill="black"/>
<circle cx="1852" cy="16" r="14" class="c0"/>
<circle cx="416" cy="12" r="12" class="c0"/>
<circle cx="362" cy="18" r="12" class="c0"/>
<circle cx="438" cy="24" r="12" class="c0"/>
<circle cx="396" cy="38" r="12" class="c0"/>
<circle cx="1460" cy="18" r="12" class="c0"/>
<circle cx="326" cy="20" r="10" class="c0"/>
<circle cx="344" cy="34" r="10" class="c0"/>
<circle cx="296" cy="14" r="10" class="c0"/>
<circle cx="1430" cy="12" r="10" class="c0"/>
<circle cx="1908" cy="12" r="10" class="c0"/>
<circle cx="1826" cy="14" r="10" class="c0"/>
<circle cx="1492" cy="14" r="10" class="c0"/>
<circle cx="370" cy="40" r="10" class="c0"/>
<circle cx="1534" cy="12" r="10" class="c0"/>
<circle cx="386" cy="10" r="10" class="c0"/>
<circle cx="1878" cy="10" r="10" class="c0"/>
<circle cx="1400" cy="12" r="10" class="c0"/>
<circle cx="1802" cy="10" r="10" class="c0"/>
<circle cx="422" cy="38" r="10" class="c0"/>
<circle cx="1378" cy="12" r="8" class="c0"/>
<circle cx="274" cy="8" r="8" class="c0"/>
<circle cx="732" cy="860" r="8" class="c0"/>
<circle cx="1554" cy="10" r="8" class="c0"/>
<circle cx="1352" cy="8" r="8" class="c0"/>
<circle cx="930" cy="1294" r="8" class="c0"/>
<circle cx="898" cy="1278" r="8" class="c0"/>
<circle cx="1512" cy="12" r="8" class="c0"/>
<circle cx="342" cy="10" r="8" class="c0"/>
<circle cx="844" cy="580" r="8" class="c0"/>
<circle cx="1100" cy="798" r="8" class="c0"/>
<circle cx="934" cy="1194" r="8" class="c0"/>
<circle cx="1010" cy="590" r="8" class="c0"/>
<circle cx="1112" cy="928" r="8" class="c0"/>
<circle cx="978" cy="978" r="6" class="c0"/>
<circle cx="1892" cy="20" r="6" class="c0"/>
<circle cx="314" cy="6" r="6" class="c0"/>
<circle cx="850" cy="1104" r="6" class="c0"/>
<circle cx="864" cy="992" r="6" class="c0"/>
<circle cx="880" cy="862" r="6" class="c0"/>
<circle cx="946" cy="1024" r="6" class="c0"/>
<circle cx="748" cy="818" r="6" class="c0"/>
<circle cx="1474" cy="6" r="6" class="c0"/>
<circle cx="998" cy="1206" r="6" class="c0"/>
<circle cx="1020" cy="1122" r="6" class="c0"/>
<circle cx="258" cy="6" r="6" class="c0"/>
<circle cx="786" cy="752" r="6" class="c0"/>
<circle cx="1124" cy="1000" r="6" class="c0"/>
<circle cx="452" cy="12" r="6" class="c0"/>
<circle cx="798" cy="540" r="6" class="c0"/>
<circle cx="844" cy="832" r="6" class="c0"/>
<circle cx="880" cy="882" r="6" class="c0"/>
<circle cx="984" cy="1064" r="6" class="c0"/>
<circle cx="934" cy="1248" r="6" class="c0"/>
<circle cx="1060" cy="854" r="6" class="c0"/>
<circle cx="836" cy="842" r="6" class="c0"/>
<circle cx="380" cy="54" r="6" class="c0"/>
<circle cx="1106" cy="1018" r="6" class="c0"/>
<circle cx="1570" cy="6" r="6" class="c0"/>
<circle cx="954" cy="1112" r="6" class="c0"/>
<circle cx="912" cy="1104" r="6" class="c0"/>
</svg>
