<?xml version="1.0" encoding="utf-8"?>
<svg xmlns="http://www.w3.org/2000/svg"
     xmlns:xlink="http://www.w3.org/1999/xlink" width="1920" height="1440" >

            <defs>
            <style type="text/css"><![CDATA[
circle {stroke: none;}
.c0 {fill: #FFFFFF;}
]]></style>
            </defs>
<rect x="0" y="0" width="1920" height="1440" fill="black"/>
<circle cx="1146" cy="844" r="12" class="c0"/>
<circle cx="1546" cy="800" r="12" class="c0"/>
<circle cx="1416" cy="802" r="12" class="c0"/>
<circle cx="670" cy="826" r="12" class="c0"/>
<circle cx="1026" cy="512" r="12" class="c0"/>
<circle cx="1148" cy="944" r="12" class="c0"/>
<circle cx="1402" cy="778" r="12" class="c0"/>
<circle cx="1164" cy="716" r="12" class="c0"/>
<circle cx="1470" cy="862" r="12" class="c0"/>
<circle cx="1384" cy="856" r="12" class="c0"/>
<circle cx="1094" cy="796" r="12" class="c0"/>
<circle cx="1174" cy="556" r="12" class="c0"/>
<circle cx="1484" cy="824" r="12" class="c0"/>
<circle cx="1300" cy="820" r="12" class="c0"/>
<circle cx="1172" cy="514" r="12" class="c0"/>
<circle cx="1208" cy="510" r="12" class="c0"/>
<circle cx="1000" cy="460" r="12" class="c0"/>
<circle cx="888" cy="378" r="12" class="c0"/>
<circle cx="966" cy="408" r="12" class="c0"/>
<circle cx="1556" cy="898" r="12" class="c0"/>
<circle cx="1162" cy="784" r="12" class="c0"/>
<circle cx="1504" cy="896" r="12" class="c0"/>
<circle cx="1216" cy="886" r="12" class="c0"/>
<circle cx="1254" cy="882" r="12" class="c0"/>
<circle cx="1638" cy="966" r="12" class="c0"/>
<circle cx="1510" cy="842" r="12" class="c0"/>
<circle cx="996" cy="364" r="12" class="c0"/>
<circle cx="1276" cy="514" r="12" class="c0"/>
<circle cx="1624" cy="788" r="12" class="c0"/>
<circle cx="1132" cy="456" r="12" class="c0"/>
<circle cx="1120" cy="658" r="12" class="c0"/>
<circle cx="1072" cy="484" r="12" class="c0"/>
<circle cx="1354" cy="868" r="12" class="c0"/>
<circle cx="1388" cy="736" r="12" class="c0"/>
<circle cx="940" cy="424" r="12" class="c0"/>
<circle cx="1254" cy="800" r="12" class="c0"/>
<circle cx="1200" cy="652" r="12" class="c0"/>
<circle cx="1182" cy="882" r="12" class="c0"/>
<circle cx="1226" cy="538" r="12" class="c0"/>
<circle cx="1044" cy="804" r="12" class="c0"/>
<circle cx="1610" cy="894" r="12" class="c0"/>
<circle cx="1108" cy="552" r="12" class="c0"/>
<circle cx="1236" cy="510" r="12" class="c0"/>
<circle cx="1020" cy="850" r="12" class="c0"/>
<circle cx="1440" cy="900" r="12" class="c0"/>
<circle cx="1020" cy="418" r="12" class="c0"/>
<circle cx="1516" cy="774" r="12" class="c0"/>
<circle cx="1638" cy="820" r="12" class="c0"/>
<circle cx="1748" cy="870" r="12" class="c0"/>
<circle cx="1056" cy="324" r="10" class="c0"/>
<circle cx="1082" cy="876" r="10" class="c0"/>
<circle cx="508" cy="784" r="10" class="c0"/>
<circle cx="1304" cy="720" r="10" class="c0"/>
<circle cx="1002" cy="508" r="10" class="c0"/>
<circle cx="1198" cy="686" r="10" class="c0"/>
<circle cx="1528" cy="880" r="10" class="c0"/>
<circle cx="914" cy="330" r="10" class="c0"/>
<circle cx="1190" cy="374" r="10" class="c0"/>
<circle cx="924" cy="530" r="10" class="c0"/>
<circle cx="1116" cy="714" r="10" class="c0"/>
<circle cx="960" cy="834" r="10" class="c0"/>
<circle cx="972" cy="746" r="10" class="c0"/>
<circle cx="1610" cy="936" r="10" class="c0"/>
<circle cx="1630" cy="926" r="10" class="c0"/>
<circle cx="756" cy="902" r="10" class="c0"/>
<circle cx="1144" cy="692" r="10" class="c0"/>
<circle cx="1044" cy="350" r="10" class="c0"/>
<circle cx="994" cy="432" r="10" class="c0"/>
<circle cx="994" cy="614" r="10" class="c0"/>
<circle cx="1228" cy="696" r="10" class="c0"/>
<circle cx="466" cy="812" r="10" class="c0"/>
<circle cx="1114" cy="830" r="10" class="c0"/>
<circle cx="1492" cy="780" r="10" class="c0"/>
<circle cx="1644" cy="940" r="10" class="c0"/>
<circle cx="1684" cy="912" r="10" class="c0"/>
<circle cx="1090" cy="856" r="10" class="c0"/>
<circle cx="1430" cy="774" r="10" class="c0"/>
<circle cx="1084" cy="366" r="10" class="c0"/>
<circle cx="1324" cy="840" r="10" class="c0"/>
<circle cx="1168" cy="464" r="10" class="c0"/>
<circle cx="954" cy="370" r="10" class="c0"/>
<circle cx="708" cy="830" r="10" class="c0"/>
<circle cx="1084" cy="548" r="10" class="c0"/>
<circle cx="1336" cy="730" r="10" class="c0"/>
<circle cx="784" cy="824" r="10" class="c0"/>
<circle cx="1174" cy="858" r="10" class="c0"/>
<circle cx="1530" cy="858" r="10" class="c0"/>
<circle cx="1144" cy="534" r="10" class="c0"/>
<circle cx="1034" cy="438" r="10" class="c0"/>
<circle cx="1160" cy="740" r="10" class="c0"/>
<circle cx="518" cy="820" r="10" class="c0"/>
<circle cx="1078" cy="572" r="10" class="c0"/>
<circle cx="1202" cy="478" r="10" class="c0"/>
<circle cx="1210" cy="760" r="10" class="c0"/>
<circle cx="1028" cy="564" r="10" class="c0"/>
<circle cx="1054" cy="428" r="10" class="c0"/>
<circle cx="1062" cy="560" r="10" class="c0"/>
<circle cx="1708" cy="858" r="10" class="c0"/>
<circle cx="1556" cy="754" r="10" class="c0"/>
<circle cx="1416" cy="882" r="10" class="c0"/>
<circle cx="1106" cy="876" r="10" class="c0"/>
<circle cx="736" cy="816" r="10" class="c0"/>
<circle cx="1294" cy="772" r="10" class="c0"/>
<circle cx="1496" cy="928" r="10" class="c0"/>
<circle cx="656" cy="852" r="10" class="c0"/>
<circle cx="1268" cy="540" r="10" class="c0"/>
<circle cx="936" cy="834" r="10" class="c0"/>
<circle cx="610" cy="802" r="10" class="c0"/>
<circle cx="988" cy="724" r="10" class="c0"/>
<circle cx="1670" cy="900" r="10" class="c0"/>
<circle cx="1394" cy="816" r="10" class="c0"/>
<circle cx="1188" cy="946" r="10" class="c0"/>
<circle cx="1022" cy="378" r="10" class="c0"/>
<circle cx="1286" cy="846" r="10" class="c0"/>
<circle cx="806" cy="830" r="10" class="c0"/>
<circle cx="1188" cy="530" r="10" class="c0"/>
<circle cx="1550" cy="828" r="10" class="c0"/>
<circle cx="586" cy="842" r="10" class="c0"/>
<circle cx="1678" cy="802" r="10" class="c0"/>
<circle cx="1096" cy="514" r="10" class="c0"/>
<circle cx="1232" cy="758" r="10" class="c0"/>
<circle cx="1200" cy="964" r="10" class="c0"/>
<circle cx="554" cy="840" r="10" class="c0"/>
<circle cx="1250" cy="524" r="10" class="c0"/>
<circle cx="924" cy="816" r="10" class="c0"/>
<circle cx="1696" cy="900" r="10" class="c0"/>
<circle cx="850" cy="820" r="10" class="c0"/>
<circle cx="1078" cy="778" r="10" class="c0"/>
<circle cx="1134" cy="894" r="10" class="c0"/>
<circle cx="646" cy="828" r="10" class="c0"/>
<circle cx="930" cy="386" r="10" class="c0"/>
<circle cx="442" cy="792" r="10" class="c0"/>
<circle cx="950" cy="448" r="10" class="c0"/>
<circle cx="1664" cy="928" r="10" class="c0"/>
<circle cx="1020" cy="348" r="10" class="c0"/>
<circle cx="1724" cy="916" r="10" class="c0"/>
<circle cx="558" cy="814" r="10" class="c0"/>
<circle cx="978" cy="660" r="10" class="c0"/>
<circle cx="1136" cy="744" r="10" class="c0"/>
<circle cx="1124" cy="790" r="10" class="c0"/>
<circle cx="1342" cy="808" r="10" class="c0"/>
<circle cx="1522" cy="816" r="10" class="c0"/>
<circle cx="1508" cy="940" r="10" class="c0"/>
<circle cx="1252" cy="636" r="10" class="c0"/>
<circle cx="408" cy="780" r="10" class="c0"/>
<circle cx="1414" cy="918" r="10" class="c0"/>
<circle cx="1098" cy="638" r="10" class="c0"/>
<circle cx="896" cy="352" r="10" class="c0"/>
<circle cx="916" cy="404" r="10" class="c0"/>
<circle cx="854" cy="380" r="10" class="c0"/>
<circle cx="1606" cy="850" r="10" class="c0"/>
<circle cx="1106" cy="482" r="10" class="c0"/>
<circle cx="1006" cy="890" r="10" class="c0"/>
<circle cx="1650" cy="860" r="10" class="c0"/>
<circle cx="1066" cy="896" r="10" class="c0"/>
<circle cx="1128" cy="574" r="10" class="c0"/>
<circle cx="886" cy="308" r="10" class="c0"/>
<circle cx="1054" cy="518" r="10" class="c0"/>
<circle cx="1084" cy="684" r="10" class="c0"/>
<circle cx="1010" cy="798" r="10" class="c0"/>
<circle cx="1114" cy="504" r="10" class="c0"/>
<circle cx="1594" cy="956" r="10" class="c0"/>
<circle cx="990" cy="684" r="10" class="c0"/>
<circle cx="730" cy="894" r="10" class="c0"/>
<circle cx="1218" cy="718" r="10" class="c0"/>
<circle cx="1282" cy="878" r="10" class="c0"/>
<circle cx="1060" cy="374" r="10" class="c0"/>
<circle cx="1594" cy="800" r="10" class="c0"/>
<circle cx="1036" cy="776" r="10" class="c0"/>
<circle cx="1048" cy="668" r="10" class="c0"/>
<circle cx="1122" cy="864" r="10" class="c0"/>
<circle cx="1056" cy="748" r="10" class="c0"/>
<circle cx="1068" cy="402" r="10" class="c0"/>
<circle cx="1182" cy="800" r="10" class="c0"/>
<circle cx="1152" cy="810" r="10" class="c0"/>
<circle cx="1746" cy="914" r="10" class="c0"/>
<circle cx="1112" cy="342" r="10" class="c0"/>
<circle cx="1030" cy="830" r="10" class="c0"/>
<circle cx="1136" cy="822" r="10" class="c0"/>
<circle cx="990" cy="492" r="10" class="c0"/>
<circle cx="1064" cy="604" r="10" class="c0"/>
<circle cx="1102" cy="430" r="10" class="c0"/>
<circle cx="1034" cy="592" r="10" class="c0"/>
<circle cx="1326" cy="784" r="10" class="c0"/>
<circle cx="1316" cy="806" r="10" class="c0"/>
<circle cx="938" cy="800" r="10" class="c0"/>
<circle cx="1704" cy="880" r="10" class="c0"/>
<circle cx="1506" cy="802" r="10" class="c0"/>
<circle cx="998" cy="864" r="10" class="c0"/>
<circle cx="1114" cy="442" r="10" class="c0"/>
<circle cx="1080" cy="454" r="10" class="c0"/>
<circle cx="836" cy="364" r="10" class="c0"/>
<circle cx="1180" cy="828" r="10" class="c0"/>
<circle cx="1172" cy="926" r="10" class="c0"/>
<circle cx="1256" cy="768" r="10" class="c0"/>
<circle cx="1142" cy="668" r="10" class="c0"/>
<circle cx="1474" cy="904" r="10" class="c0"/>
<circle cx="986" cy="902" r="10" class="c0"/>
<circle cx="1110" cy="528" r="10" class="c0"/>
<circle cx="1082" cy="754" r="10" class="c0"/>
<circle cx="1568" cy="946" r="8" class="c0"/>
<circle cx="984" cy="396" r="8" class="c0"/>
<circle cx="1430" cy="858" r="8" class="c0"/>
<circle cx="680" cy="866" r="8" class="c0"/>
<circle cx="714" cy="884" r="8" class="c0"/>
<circle cx="1064" cy="682" r="8" class="c0"/>
<circle cx="866" cy="840" r="8" class="c0"/>
<circle cx="1284" cy="722" r="8" class="c0"/>
<circle cx="994" cy="808" r="8" class="c0"/>
<circle cx="1266" cy="710" r="8" class="c0"/>
<circle cx="1614" cy="808" r="8" class="c0"/>
<circle cx="1450" cy="812" r="8" class="c0"/>
<circle cx="1040" cy="386" r="8" class="c0"/>
<circle cx="1470" cy="788" r="8" class="c0"/>
<circle cx="1440" cy="824" r="8" class="c0"/>
<circle cx="1512" cy="918" r="8" class="c0"/>
<circle cx="1136" cy="916" r="8" class="c0"/>
<circle cx="1378" cy="798" r="8" class="c0"/>
<circle cx="1378" cy="916" r="8" class="c0"/>
<circle cx="1416" cy="846" r="8" class="c0"/>
<circle cx="1636" cy="884" r="8" class="c0"/>
<circle cx="882" cy="828" r="8" class="c0"/>
<circle cx="1076" cy="520" r="8" class="c0"/>
<circle cx="1024" cy="320" r="8" class="c0"/>
<circle cx="1152" cy="358" r="8" class="c0"/>
<circle cx="1092" cy="326" r="8" class="c0"/>
<circle cx="1190" cy="494" r="8" class="c0"/>
<circle cx="998" cy="576" r="8" class="c0"/>
<circle cx="1242" cy="612" r="8" class="c0"/>
<circle cx="924" cy="788" r="8" class="c0"/>
<circle cx="1198" cy="922" r="8" class="c0"/>
<circle cx="1080" cy="822" r="8" class="c0"/>
<circle cx="1146" cy="974" r="8" class="c0"/>
<circle cx="1212" cy="864" r="8" class="c0"/>
<circle cx="872" cy="324" r="8" class="c0"/>
<circle cx="1098" cy="462" r="8" class="c0"/>
<circle cx="1244" cy="842" r="8" class="c0"/>
<circle cx="1576" cy="788" r="8" class="c0"/>
<circle cx="1090" cy="606" r="8" class="c0"/>
<circle cx="576" cy="822" r="8" class="c0"/>
<circle cx="692" cy="856" r="8" class="c0"/>
<circle cx="1580" cy="924" r="8" class="c0"/>
<circle cx="1132" cy="494" r="8" class="c0"/>
<circle cx="1580" cy="770" r="8" class="c0"/>
<circle cx="1760" cy="886" r="8" class="c0"/>
<circle cx="1212" cy="840" r="8" class="c0"/>
<circle cx="1454" cy="928" r="8" class="c0"/>
<circle cx="1038" cy="546" r="8" class="c0"/>
<circle cx="956" cy="390" r="8" class="c0"/>
<circle cx="1366" cy="720" r="8" class="c0"/>
<circle cx="1024" cy="654" r="8" class="c0"/>
<circle cx="1234" cy="674" r="8" class="c0"/>
<circle cx="1272" cy="832" r="8" class="c0"/>
<circle cx="1638" cy="774" r="8" class="c0"/>
<circle cx="1348" cy="846" r="8" class="c0"/>
<circle cx="898" cy="526" r="8" class="c0"/>
<circle cx="970" cy="438" r="8" class="c0"/>
<circle cx="1072" cy="630" r="8" class="c0"/>
<circle cx="1228" cy="818" r="8" class="c0"/>
<circle cx="1546" cy="920" r="8" class="c0"/>
<circle cx="1050" cy="492" r="8" class="c0"/>
<circle cx="1120" cy="608" r="8" class="c0"/>
<circle cx="1446" cy="878" r="8" class="c0"/>
<circle cx="1342" cy="884" r="8" class="c0"/>
<circle cx="1142" cy="868" r="8" class="c0"/>
<circle cx="1182" cy="702" r="8" class="c0"/>
<circle cx="988" cy="642" r="8" class="c0"/>
<circle cx="1216" cy="980" r="8" class="c0"/>
<circle cx="1546" cy="948" r="8" class="c0"/>
<circle cx="608" cy="840" r="8" class="c0"/>
<circle cx="1592" cy="862" r="8" class="c0"/>
<circle cx="1368" cy="772" r="8" class="c0"/>
<circle cx="1018" cy="816" r="8" class="c0"/>
<circle cx="1732" cy="838" r="8" class="c0"/>
<circle cx="1616" cy="762" r="8" class="c0"/>
<circle cx="1588" cy="752" r="8" class="c0"/>
<circle cx="596" cy="822" r="8" class="c0"/>
<circle cx="1144" cy="510" r="8" class="c0"/>
<circle cx="1354" cy="898" r="8" class="c0"/>
<circle cx="906" cy="828" r="8" class="c0"/>
<circle cx="1222" cy="796" r="8" class="c0"/>
<circle cx="1204" cy="570" r="8" class="c0"/>
<circle cx="966" cy="624" r="8" class="c0"/>
<circle cx="624" cy="856" r="8" class="c0"/>
<circle cx="1198" cy="850" r="8" class="c0"/>
<circle cx="964" cy="572" r="8" class="c0"/>
<circle cx="1094" cy="726" r="8" class="c0"/>
<circle cx="1572" cy="878" r="8" class="c0"/>
<circle cx="1104" cy="900" r="8" class="c0"/>
<circle cx="1732" cy="898" r="8" class="c0"/>
<circle cx="1080" cy="390" r="8" class="c0"/>
<circle cx="1066" cy="660" r="8" class="c0"/>
<circle cx="1204" cy="740" r="8" class="c0"/>
<circle cx="1356" cy="732" r="8" class="c0"/>
<circle cx="1714" cy="820" r="8" class="c0"/>
<circle cx="536" cy="856" r="8" class="c0"/>
<circle cx="972" cy="870" r="8" class="c0"/>
<circle cx="1344" cy="774" r="8" class="c0"/>
<circle cx="584" cy="794" r="8" class="c0"/>
<circle cx="1698" cy="940" r="8" class="c0"/>
<circle cx="1212" cy="674" r="8" class="c0"/>
<circle cx="1086" cy="710" r="8" class="c0"/>
<circle cx="1504" cy="758" r="8" class="c0"/>
<circle cx="1208" cy="912" r="8" class="c0"/>
<circle cx="1606" cy="872" r="8" class="c0"/>
<circle cx="1122" cy="760" r="8" class="c0"/>
<circle cx="1650" cy="838" r="8" class="c0"/>
<circle cx="1212" cy="952" r="8" class="c0"/>
<circle cx="1292" cy="798" r="8" class="c0"/>
<circle cx="1468" cy="840" r="8" class="c0"/>
<circle cx="768" cy="812" r="8" class="c0"/>
<circle cx="928" cy="506" r="8" class="c0"/>
<circle cx="486" cy="810" r="8" class="c0"/>
<circle cx="1676" cy="842" r="8" class="c0"/>
<circle cx="1632" cy="848" r="8" class="c0"/>
<circle cx="1168" cy="956" r="8" class="c0"/>
<circle cx="1174" cy="682" r="8" class="c0"/>
<circle cx="948" cy="862" r="8" class="c0"/>
<circle cx="1150" cy="568" r="8" class="c0"/>
<circle cx="1054" cy="882" r="8" class="c0"/>
<circle cx="990" cy="842" r="8" class="c0"/>
<circle cx="438" cy="816" r="8" class="c0"/>
<circle cx="1562" cy="850" r="8" class="c0"/>
<circle cx="922" cy="436" r="8" class="c0"/>
<circle cx="1254" cy="680" r="8" class="c0"/>
<circle cx="1180" cy="644" r="8" class="c0"/>
<circle cx="1028" cy="632" r="8" class="c0"/>
<circle cx="1406" cy="864" r="8" class="c0"/>
<circle cx="1656" cy="978" r="8" class="c0"/>
<circle cx="1674" cy="866" r="8" class="c0"/>
<circle cx="894" cy="842" r="8" class="c0"/>
<circle cx="1674" cy="950" r="8" class="c0"/>
<circle cx="420" cy="808" r="8" class="c0"/>
<circle cx="1694" cy="818" r="8" class="c0"/>
<circle cx="1600" cy="778" r="8" class="c0"/>
<circle cx="910" cy="384" r="8" class="c0"/>
<circle cx="964" cy="894" r="8" class="c0"/>
<circle cx="898" cy="424" r="8" class="c0"/>
<circle cx="1628" cy="866" r="8" class="c0"/>
<circle cx="1200" cy="624" r="8" class="c0"/>
<circle cx="1158" cy="492" r="8" class="c0"/>
<circle cx="964" cy="472" r="8" class="c0"/>
<circle cx="1054" cy="832" r="8" class="c0"/>
<circle cx="762" cy="840" r="8" class="c0"/>
<circle cx="1112" cy="738" r="8" class="c0"/>
<circle cx="1154" cy="760" r="8" class="c0"/>
<circle cx="1526" cy="900" r="8" class="c0"/>
<circle cx="1496" cy="866" r="8" class="c0"/>
<circle cx="1326" cy="900" r="8" class="c0"/>
<circle cx="1212" cy="782" r="8" class="c0"/>
<circle cx="1530" cy="834" r="8" class="c0"/>
<circle cx="1068" cy="852" r="8" class="c0"/>
<circle cx="962" cy="598" r="8" class="c0"/>
<circle cx="920" cy="550" r="8" class="c0"/>
<circle cx="1188" cy="726" r="8" class="c0"/>
<circle cx="1174" cy="760" r="8" class="c0"/>
<circle cx="930" cy="560" r="8" class="c0"/>
<circle cx="1376" cy="888" r="8" class="c0"/>
<circle cx="1642" cy="906" r="8" class="c0"/>
<circle cx="1682" cy="882" r="8" class="c0"/>
<circle cx="1226" cy="656" r="8" class="c0"/>
<circle cx="950" cy="528" r="8" class="c0"/>
<circle cx="1152" cy="906" r="8" class="c0"/>
<circle cx="820" cy="844" r="8" class="c0"/>
<circle cx="1106" cy="780" r="8" class="c0"/>
<circle cx="1616" cy="830" r="8" class="c0"/>
<circle cx="1056" cy="646" r="8" class="c0"/>
<circle cx="1014" cy="594" r="8" class="c0"/>
<circle cx="1588" cy="838" r="8" class="c0"/>
<circle cx="1222" cy="936" r="8" class="c0"/>
<circle cx="1022" cy="474" r="8" class="c0"/>
<circle cx="486" cy="784" r="8" class="c0"/>
<circle cx="744" cy="836" r="8" class="c0"/>
<circle cx="1302" cy="862" r="8" class="c0"/>
<circle cx="1738" cy="936" r="8" class="c0"/>
<circle cx="1002" cy="332" r="8" class="c0"/>
<circle cx="1100" cy="672" r="8" class="c0"/>
<circle cx="1230" cy="624" r="8" class="c0"/>
<circle cx="1318" cy="878" r="8" class="c0"/>
<circle cx="1244" cy="658" r="8" class="c0"/>
<circle cx="692" cy="816" r="8" class="c0"/>
<circle cx="950" cy="550" r="8" class="c0"/>
<circle cx="1582" cy="814" r="8" class="c0"/>
<circle cx="1000" cy="830" r="8" class="c0"/>
<circle cx="1108" cy="584" r="8" class="c0"/>
<circle cx="1090" cy="494" r="8" class="c0"/>
<circle cx="982" cy="450" r="8" class="c0"/>
<circle cx="1398" cy="842" r="8" class="c0"/>
<circle cx="1080" cy="338" r="8" class="c0"/>
<circle cx="1080" cy="418" r="8" class="c0"/>
<circle cx="1282" cy="810" r="8" class="c0"/>
<circle cx="1116" cy="688" r="8" class="c0"/>
<circle cx="1050" cy="858" r="8" class="c0"/>
<circle cx="1040" cy="868" r="8" class="c0"/>
<circle cx="1204" cy="542" r="8" class="c0"/>
<circle cx="894" cy="332" r="8" class="c0"/>
<circle cx="1356" cy="784" r="8" class="c0"/>
<circle cx="1452" cy="778" r="8" class="c0"/>
<circle cx="1194" cy="898" r="8" class="c0"/>
<circle cx="1356" cy="916" r="8" class="c0"/>
<circle cx="622" cy="822" r="8" class="c0"/>
<circle cx="1062" cy="704" r="8" class="c0"/>
<circle cx="1238" cy="736" r="8" class="c0"/>
<circle cx="1338" cy="856" r="8" class="c0"/>
<circle cx="1228" cy="856" r="8" class="c0"/>
<circle cx="694" cy="884" r="8" class="c0"/>
<circle cx="854" cy="342" r="8" class="c0"/>
<circle cx="1004" cy="632" r="8" class="c0"/>
<circle cx="1136" cy="710" r="8" class="c0"/>
<circle cx="1460" cy="890" r="8" class="c0"/>
<circle cx="846" cy="322" r="8" class="c0"/>
<circle cx="712" cy="810" r="8" class="c0"/>
<circle cx="1250" cy="822" r="8" class="c0"/>
<circle cx="1158" cy="888" r="8" class="c0"/>
<circle cx="974" cy="382" r="8" class="c0"/>
<circle cx="1592" cy="884" r="8" class="c0"/>
<circle cx="1542" cy="766" r="8" class="c0"/>
<circle cx="1154" cy="448" r="8" class="c0"/>
<circle cx="1304" cy="892" r="8" class="c0"/>
<circle cx="660" cy="802" r="8" class="c0"/>
<circle cx="958" cy="734" r="8" class="c0"/>
<circle cx="1000" cy="410" r="8" class="c0"/>
<circle cx="1662" cy="814" r="8" class="c0"/>
<circle cx="1028" cy="534" r="8" class="c0"/>
<circle cx="1146" cy="476" r="8" class="c0"/>
<circle cx="1156" cy="986" r="8" class="c0"/>
<circle cx="1598" cy="824" r="8" class="c0"/>
<circle cx="996" cy="706" r="8" class="c0"/>
<circle cx="1222" cy="496" r="8" class="c0"/>
<circle cx="1548" cy="874" r="8" class="c0"/>
<circle cx="464" cy="784" r="8" class="c0"/>
<circle cx="1164" cy="372" r="8" class="c0"/>
<circle cx="882" cy="402" r="8" class="c0"/>
<circle cx="1434" cy="930" r="8" class="c0"/>
<circle cx="942" cy="402" r="8" class="c0"/>
<circle cx="1054" cy="456" r="8" class="c0"/>
<circle cx="1476" cy="924" r="8" class="c0"/>
<circle cx="1274" cy="782" r="8" class="c0"/>
<circle cx="1484" cy="800" r="8" class="c0"/>
<circle cx="1056" cy="788" r="8" class="c0"/>
<circle cx="1044" cy="904" r="8" class="c0"/>
<circle cx="1240" cy="718" r="8" class="c0"/>
<circle cx="912" cy="856" r="8" class="c0"/>
<circle cx="862" cy="360" r="8" class="c0"/>
<circle cx="1006" cy="652" r="8" class="c0"/>
<circle cx="1526" cy="948" r="8" class="c0"/>
<circle cx="542" cy="794" r="8" class="c0"/>
<circle cx="1134" cy="552" r="8" class="c0"/>
<circle cx="840" cy="836" r="8" class="c0"/>
<circle cx="1032" cy="460" r="8" class="c0"/>
<circle cx="1214" cy="556" r="8" class="c0"/>
<circle cx="1130" cy="628" r="8" class="c0"/>
<circle cx="520" cy="840" r="8" class="c0"/>
<circle cx="1468" cy="808" r="8" class="c0"/>
<circle cx="1028" cy="884" r="8" class="c0"/>
<circle cx="1110" cy="852" r="8" class="c0"/>
<circle cx="1204" cy="802" r="8" class="c0"/>
<circle cx="1650" cy="800" r="8" class="c0"/>
<circle cx="1096" cy="382" r="8" class="c0"/>
<circle cx="1108" cy="620" r="8" class="c0"/>
<circle cx="1232" cy="780" r="8" class="c0"/>
<circle cx="1080" cy="316" r="8" class="c0"/>
<circle cx="1024" cy="610" r="8" class="c0"/>
<circle cx="1390" cy="904" r="8" class="c0"/>
<circle cx="1228" cy="960" r="8" class="c0"/>
<circle cx="978" cy="506" r="8" class="c0"/>
<circle cx="1050" cy="624" r="8" class="c0"/>
<circle cx="1376" cy="828" r="8" class="c0"/>
<circle cx="1614" cy="960" r="8" class="c0"/>
<circle cx="1196" cy="774" r="8" class="c0"/>
<circle cx="1044" cy="474" r="8" class="c0"/>
<circle cx="988" cy="882" r="8" class="c0"/>
<circle cx="1086" cy="656" r="8" class="c0"/>
<circle cx="942" cy="762" r="8" class="c0"/>
<circle cx="930" cy="854" r="8" class="c0"/>
<circle cx="948" cy="818" r="8" class="c0"/>
<circle cx="1074" cy="722" r="8" class="c0"/>
<circle cx="1656" cy="762" r="8" class="c0"/>
<circle cx="1170" cy="898" r="8" class="c0"/>
<circle cx="1040" cy="406" r="8" class="c0"/>
<circle cx="506" cy="804" r="8" class="c0"/>
<circle cx="1206" cy="706" r="8" class="c0"/>
<circle cx="1050" cy="572" r="8" class="c0"/>
<circle cx="1138" cy="338" r="8" class="c0"/>
<circle cx="1074" cy="804" r="8" class="c0"/>
<circle cx="1068" cy="442" r="8" class="c0"/>
<circle cx="1110" cy="322" r="8" class="c0"/>
<circle cx="1656" cy="886" r="8" class="c0"/>
<circle cx="1394" cy="886" r="8" class="c0"/>
<circle cx="1202" cy="828" r="8" class="c0"/>
<circle cx="1104" cy="360" r="8" class="c0"/>
<circle cx="638" cy="806" r="8" class="c0"/>
<circle cx="1062" cy="814" r="8" class="c0"/>
<circle cx="512" cy="856" r="8" class="c0"/>
<circle cx="1486" cy="760" r="8" class="c0"/>
<circle cx="974" cy="356" r="8" class="c0"/>
<circle cx="1190" cy="750" r="8" class="c0"/>
<circle cx="950" cy="778" r="8" class="c0"/>
<circle cx="1578" cy="896" r="8" class="c0"/>
<circle cx="542" cy="824" r="8" class="c0"/>
<circle cx="1058" cy="768" r="8" class="c0"/>
<circle cx="1366" cy="810" r="8" class="c0"/>
<circle cx="1022" cy="904" r="8" class="c0"/>
<circle cx="1262" cy="844" r="8" class="c0"/>
<circle cx="862" cy="300" r="8" class="c0"/>
<circle cx="1658" cy="782" r="8" class="c0"/>
<circle cx="1140" cy="648" r="8" class="c0"/>
<circle cx="1232" cy="640" r="6" class="c0"/>
<circle cx="1696" cy="840" r="6" class="c0"/>
<circle cx="1534" cy="930" r="6" class="c0"/>
<circle cx="1706" cy="922" r="6" class="c0"/>
<circle cx="982" cy="470" r="6" class="c0"/>
<circle cx="1018" cy="578" r="6" class="c0"/>
<circle cx="1004" cy="908" r="6" class="c0"/>
<circle cx="1118" cy="470" r="6" class="c0"/>
<circle cx="1656" cy="952" r="6" class="c0"/>
<circle cx="820" cy="820" r="6" class="c0"/>
<circle cx="1230" cy="874" r="6" class="c0"/>
<circle cx="794" cy="844" r="6" class="c0"/>
<circle cx="958" cy="760" r="6" class="c0"/>
<circle cx="646" cy="868" r="6" class="c0"/>
<circle cx="1248" cy="544" r="6" class="c0"/>
<circle cx="1088" cy="904" r="6" class="c0"/>
<circle cx="1014" cy="446" r="6" class="c0"/>
<circle cx="1012" cy="488" r="6" class="c0"/>
<circle cx="1096" cy="570" r="6" class="c0"/>
<circle cx="710" cy="862" r="6" class="c0"/>
<circle cx="1162" cy="664" r="6" class="c0"/>
<circle cx="1238" cy="552" r="6" class="c0"/>
<circle cx="1678" cy="822" r="6" class="c0"/>
<circle cx="1562" cy="810" r="6" class="c0"/>
<circle cx="1252" cy="700" r="6" class="c0"/>
<circle cx="1328" cy="710" r="6" class="c0"/>
<circle cx="1042" cy="844" r="6" class="c0"/>
<circle cx="968" cy="640" r="6" class="c0"/>
<circle cx="1030" cy="396" r="6" class="c0"/>
<circle cx="558" cy="790" r="6" class="c0"/>
<circle cx="876" cy="350" r="6" class="c0"/>
<circle cx="1732" cy="880" r="6" class="c0"/>
<circle cx="1004" cy="384" r="6" class="c0"/>
<circle cx="1128" cy="728" r="6" class="c0"/>
<circle cx="1140" cy="798" r="6" class="c0"/>
<circle cx="908" cy="366" r="6" class="c0"/>
<circle cx="1402" cy="722" r="6" class="c0"/>
<circle cx="1232" cy="984" r="6" class="c0"/>
<circle cx="1168" cy="840" r="6" class="c0"/>
<circle cx="980" cy="708" r="6" class="c0"/>
<circle cx="1366" cy="838" r="6" class="c0"/>
<circle cx="1380" cy="782" r="6" class="c0"/>
<circle cx="1016" cy="552" r="6" class="c0"/>
<circle cx="1094" cy="890" r="6" class="c0"/>
<circle cx="968" cy="724" r="6" class="c0"/>
<circle cx="1626" cy="950" r="6" class="c0"/>
<circle cx="1428" cy="836" r="6" class="c0"/>
<circle cx="1252" cy="856" r="6" class="c0"/>
<circle cx="632" cy="842" r="6" class="c0"/>
<circle cx="1220" cy="614" r="6" class="c0"/>
<circle cx="1178" cy="662" r="6" class="c0"/>
<circle cx="1172" cy="482" r="6" class="c0"/>
<circle cx="1406" cy="900" r="6" class="c0"/>
<circle cx="1188" cy="468" r="6" class="c0"/>
<circle cx="1166" cy="696" r="6" class="c0"/>
<circle cx="1200" cy="588" r="6" class="c0"/>
<circle cx="1598" cy="914" r="6" class="c0"/>
<circle cx="1372" cy="748" r="6" class="c0"/>
<circle cx="1330" cy="820" r="6" class="c0"/>
<circle cx="1400" cy="932" r="6" class="c0"/>
<circle cx="1562" cy="926" r="6" class="c0"/>
<circle cx="1150" cy="924" r="6" class="c0"/>
<circle cx="1306" cy="842" r="6" class="c0"/>
<circle cx="1182" cy="578" r="6" class="c0"/>
<circle cx="1704" cy="830" r="6" class="c0"/>
<circle cx="906" cy="804" r="6" class="c0"/>
<circle cx="1010" cy="682" r="6" class="c0"/>
<circle cx="976" cy="850" r="6" class="c0"/>
<circle cx="422" cy="792" r="6" class="c0"/>
<circle cx="832" cy="812" r="6" class="c0"/>
<circle cx="526" cy="790" r="6" class="c0"/>
<circle cx="1414" cy="828" r="6" class="c0"/>
<circle cx="1130" cy="524" r="6" class="c0"/>
<circle cx="1126" cy="538" r="6" class="c0"/>
<circle cx="1386" cy="714" r="6" class="c0"/>
<circle cx="978" cy="606" r="6" class="c0"/>
<circle cx="1520" cy="752" r="6" class="c0"/>
<circle cx="962" cy="854" r="6" class="c0"/>
<circle cx="1716" cy="892" r="6" class="c0"/>
<circle cx="1512" cy="868" r="6" class="c0"/>
<circle cx="1064" cy="532" r="6" class="c0"/>
<circle cx="1726" cy="856" r="6" class="c0"/>
<circle cx="1164" cy="576" r="6" class="c0"/>
<circle cx="606" cy="856" r="6" class="c0"/>
<circle cx="796" cy="812" r="6" class="c0"/>
<circle cx="984" cy="342" r="6" class="c0"/>
<circle cx="1092" cy="836" r="6" class="c0"/>
<circle cx="1676" cy="776" r="6" class="c0"/>
<circle cx="1094" cy="766" r="6" class="c0"/>
<circle cx="1030" cy="490" r="6" class="c0"/>
<circle cx="1636" cy="754" r="6" class="c0"/>
<circle cx="860" cy="402" r="6" class="c0"/>
<circle cx="1180" cy="910" r="6" class="c0"/>
<circle cx="980" cy="828" r="6" class="c0"/>
<circle cx="1142" cy="782" r="6" class="c0"/>
<circle cx="728" cy="834" r="6" class="c0"/>
<circle cx="1098" cy="820" r="6" class="c0"/>
<circle cx="1722" cy="870" r="6" class="c0"/>
<circle cx="1214" cy="638" r="6" class="c0"/>
<circle cx="1714" cy="840" r="6" class="c0"/>
<circle cx="966" cy="494" r="6" class="c0"/>
<circle cx="1148" cy="728" r="6" class="c0"/>
<circle cx="1164" cy="534" r="6" class="c0"/>
<circle cx="566" cy="798" r="6" class="c0"/>
<circle cx="1684" cy="784" r="6" class="c0"/>
<circle cx="1094" cy="398" r="6" class="c0"/>
<circle cx="1444" cy="764" r="6" class="c0"/>
<circle cx="1066" cy="350" r="6" class="c0"/>
<circle cx="1092" cy="532" r="6" class="c0"/>
<circle cx="1350" cy="826" r="6" class="c0"/>
<circle cx="898" cy="544" r="6" class="c0"/>
<circle cx="1486" cy="880" r="6" class="c0"/>
<circle cx="1264" cy="864" r="6" class="c0"/>
<circle cx="1766" cy="928" r="6" class="c0"/>
<circle cx="1524" cy="794" r="6" class="c0"/>
<circle cx="1124" cy="330" r="6" class="c0"/>
<circle cx="1132" cy="354" r="6" class="c0"/>
<circle cx="498" cy="822" r="6" class="c0"/>
<circle cx="1490" cy="844" r="6" class="c0"/>
<circle cx="1122" cy="808" r="6" class="c0"/>
<circle cx="1060" cy="582" r="6" class="c0"/>
<circle cx="1318" cy="734" r="6" class="c0"/>
<circle cx="1576" cy="962" r="6" class="c0"/>
<circle cx="1552" cy="780" r="6" class="c0"/>
<circle cx="904" cy="316" r="6" class="c0"/>
<circle cx="878" cy="850" r="6" class="c0"/>
<circle cx="1198" cy="872" r="6" class="c0"/>
<circle cx="1118" cy="910" r="6" class="c0"/>
<circle cx="1458" cy="830" r="6" class="c0"/>
<circle cx="1446" cy="854" r="6" class="c0"/>
<circle cx="1276" cy="760" r="6" class="c0"/>
<circle cx="1690" cy="868" r="6" class="c0"/>
<circle cx="850" cy="850" r="6" class="c0"/>
<circle cx="1152" cy="550" r="6" class="c0"/>
<circle cx="1170" cy="814" r="6" class="c0"/>
<circle cx="1190" cy="670" r="6" class="c0"/>
<circle cx="942" cy="514" r="6" class="c0"/>
<circle cx="936" cy="542" r="6" class="c0"/>
<circle cx="982" cy="626" r="6" class="c0"/>
<circle cx="1062" cy="868" r="6" class="c0"/>
<circle cx="1436" cy="792" r="6" class="c0"/>
<circle cx="898" cy="394" r="6" class="c0"/>
<circle cx="1688" cy="930" r="6" class="c0"/>
<circle cx="1750" cy="846" r="6" class="c0"/>
<circle cx="872" cy="392" r="6" class="c0"/>
<circle cx="1452" cy="796" r="6" class="c0"/>
<circle cx="1492" cy="910" r="6" class="c0"/>
<circle cx="1468" cy="772" r="6" class="c0"/>
<circle cx="1272" cy="856" r="6" class="c0"/>
<circle cx="1040" cy="756" r="6" class="c0"/>
<circle cx="1210" cy="376" r="6" class="c0"/>
<circle cx="934" cy="368" r="6" class="c0"/>
<circle cx="1686" cy="832" r="6" class="c0"/>
<circle cx="1100" cy="696" r="6" class="c0"/>
<circle cx="1034" cy="332" r="6" class="c0"/>
<circle cx="946" cy="566" r="6" class="c0"/>
<circle cx="1034" cy="364" r="6" class="c0"/>
<circle cx="432" cy="776" r="6" class="c0"/>
<circle cx="1318" cy="766" r="6" class="c0"/>
<circle cx="1070" cy="738" r="6" class="c0"/>
<circle cx="756" cy="824" r="6" class="c0"/>
<circle cx="1158" cy="866" r="6" class="c0"/>
<circle cx="778" cy="846" r="6" class="c0"/>
<circle cx="670" cy="878" r="6" class="c0"/>
<circle cx="1074" cy="646" r="6" class="c0"/>
<circle cx="898" cy="814" r="6" class="c0"/>
<circle cx="1674" cy="972" r="6" class="c0"/>
<circle cx="1568" cy="822" r="6" class="c0"/>
<circle cx="1106" cy="758" r="6" class="c0"/>
<circle cx="1004" cy="668" r="6" class="c0"/>
<circle cx="1014" cy="872" r="6" class="c0"/>
<circle cx="1534" cy="786" r="6" class="c0"/>
<circle cx="1248" cy="746" r="6" class="c0"/>
<circle cx="1080" cy="592" r="6" class="c0"/>
<circle cx="974" cy="482" r="6" class="c0"/>
<circle cx="1560" cy="772" r="6" class="c0"/>
<circle cx="1046" cy="608" r="6" class="c0"/>
<circle cx="1078" cy="842" r="6" class="c0"/>
<circle cx="1572" cy="860" r="6" class="c0"/>
<circle cx="1684" cy="856" r="6" class="c0"/>
<circle cx="1256" cy="726" r="6" class="c0"/>
<circle cx="960" cy="428" r="6" class="c0"/>
<circle cx="1474" cy="940" r="6" class="c0"/>
<circle cx="912" cy="518" r="6" class="c0"/>
<circle cx="1134" cy="774" r="6" class="c0"/>
<circle cx="1168" cy="356" r="6" class="c0"/>
<circle cx="954" cy="884" r="6" class="c0"/>
<circle cx="1138" cy="588" r="6" class="c0"/>
<circle cx="1396" cy="798" r="6" class="c0"/>
<circle cx="476" cy="796" r="6" class="c0"/>
<circle cx="1292" cy="528" r="6" class="c0"/>
<circle cx="868" cy="410" r="6" class="c0"/>
<circle cx="826" cy="378" r="6" class="c0"/>
<circle cx="1008" cy="564" r="6" class="c0"/>
<circle cx="1340" cy="910" r="6" class="c0"/>
<circle cx="1042" cy="314" r="6" class="c0"/>
<circle cx="1028" cy="792" r="6" class="c0"/>
<circle cx="1160" cy="830" r="6" class="c0"/>
<circle cx="1720" cy="934" r="6" class="c0"/>
<circle cx="1588" cy="938" r="6" class="c0"/>
<circle cx="720" cy="842" r="6" class="c0"/>
<circle cx="1116" cy="636" r="6" class="c0"/>
<circle cx="1606" cy="752" r="6" class="c0"/>
<circle cx="528" cy="804" r="6" class="c0"/>
<circle cx="1220" cy="746" r="6" class="c0"/>
<circle cx="1304" cy="788" r="6" class="c0"/>
<circle cx="1192" cy="814" r="6" class="c0"/>
<circle cx="1048" cy="536" r="6" class="c0"/>
<circle cx="1014" cy="622" r="6" class="c0"/>
<circle cx="1020" cy="784" r="6" class="c0"/>
<circle cx="1288" cy="542" r="6" class="c0"/>
<circle cx="1012" cy="528" r="6" class="c0"/>
<circle cx="992" cy="596" r="6" class="c0"/>
<circle cx="910" cy="560" r="6" class="c0"/>
<circle cx="1530" cy="916" r="6" class="c0"/>
<circle cx="1152" cy="586" r="6" class="c0"/>
<circle cx="690" cy="836" r="6" class="c0"/>
<circle cx="1444" cy="840" r="6" class="c0"/>
<circle cx="1228" cy="838" r="6" class="c0"/>
<circle cx="916" cy="840" r="6" class="c0"/>
<circle cx="1084" cy="436" r="6" class="c0"/>
<circle cx="1040" cy="648" r="6" class="c0"/>
<circle cx="1224" cy="918" r="6" class="c0"/>
<circle cx="1546" cy="848" r="6" class="c0"/>
<circle cx="1088" cy="472" r="6" class="c0"/>
<circle cx="930" cy="450" r="6" class="c0"/>
<circle cx="1584" cy="970" r="6" class="c0"/>
<circle cx="1068" cy="504" r="6" class="c0"/>
<circle cx="1626" cy="908" r="6" class="c0"/>
<circle cx="1348" cy="718" r="6" class="c0"/>
<circle cx="678" cy="808" r="6" class="c0"/>
<circle cx="972" cy="820" r="6" class="c0"/>
<circle cx="1622" cy="976" r="6" class="c0"/>
<circle cx="1010" cy="398" r="6" class="c0"/>
<circle cx="1098" cy="746" r="6" class="c0"/>
<circle cx="1170" cy="654" r="6" class="c0"/>
<circle cx="1242" cy="866" r="6" class="c0"/>
<circle cx="952" cy="588" r="6" class="c0"/>
<circle cx="702" cy="870" r="6" class="c0"/>
<circle cx="920" cy="372" r="6" class="c0"/>
<circle cx="1614" cy="916" r="6" class="c0"/>
<circle cx="1248" cy="496" r="6" class="c0"/>
<circle cx="1256" cy="552" r="6" class="c0"/>
<circle cx="1090" cy="584" r="6" class="c0"/>
<circle cx="1666" cy="852" r="6" class="c0"/>
<circle cx="1156" cy="680" r="6" class="c0"/>
<circle cx="1284" cy="704" r="6" class="c0"/>
<circle cx="1136" cy="436" r="6" class="c0"/>
<circle cx="1320" cy="862" r="6" class="c0"/>
<circle cx="1128" cy="478" r="6" class="c0"/>
<circle cx="932" cy="772" r="6" class="c0"/>
<circle cx="980" cy="422" r="6" class="c0"/>
<circle cx="1368" cy="906" r="6" class="c0"/>
<circle cx="752" cy="806" r="6" class="c0"/>
<circle cx="1190" cy="634" r="6" class="c0"/>
<circle cx="1652" cy="916" r="6" class="c0"/>
<circle cx="1138" cy="366" r="6" class="c0"/>
<circle cx="1598" cy="762" r="6" class="c0"/>
<circle cx="872" cy="818" r="6" class="c0"/>
<circle cx="1088" cy="622" r="6" class="c0"/>
<circle cx="1106" cy="810" r="6" class="c0"/>
<circle cx="1504" cy="822" r="6" class="c0"/>
<circle cx="1178" cy="736" r="6" class="c0"/>
<circle cx="1222" cy="996" r="6" class="c0"/>
<circle cx="478" cy="824" r="6" class="c0"/>
<circle cx="1590" cy="906" r="6" class="c0"/>
<circle cx="836" cy="386" r="6" class="c0"/>
<circle cx="1392" cy="924" r="6" class="c0"/>
<circle cx="1460" cy="764" r="6" class="c0"/>
<circle cx="878" cy="292" r="6" class="c0"/>
<circle cx="914" cy="422" r="6" class="c0"/>
<circle cx="1204" cy="938" r="6" class="c0"/>
<circle cx="628" cy="796" r="6" class="c0"/>
<circle cx="1374" cy="872" r="6" class="c0"/>
<circle cx="1572" cy="836" r="6" class="c0"/>
<circle cx="1266" cy="814" r="6" class="c0"/>
<circle cx="1004" cy="480" r="6" class="c0"/>
<circle cx="574" cy="806" r="6" class="c0"/>
</svg>
