<?xml version="1.0" encoding="utf-8"?>
<svg xmlns="http://www.w3.org/2000/svg"
     xmlns:xlink="http://www.w3.org/1999/xlink" width="1920" height="1440" >

            <defs>
            <style type="text/css"><![CDATA[
circle {stroke: none;}
.c0 {fill: #FFFFFF;}
]]></style>
            </defs>
<rect x="0" y="0" width="1920" height="1440" fill="black"/>
<circle cx="886" cy="1372" r="12" class="c0"/>
<circle cx="552" cy="588" r="12" class="c0"/>
<circle cx="1360" cy="840" r="12" class="c0"/>
<circle cx="1284" cy="1190" r="12" class="c0"/>
<circle cx="904" cy="652" r="12" class="c0"/>
<circle cx="1320" cy="1184" r="12" class="c0"/>
<circle cx="1220" cy="990" r="12" class="c0"/>
<circle cx="954" cy="180" r="12" class="c0"/>
<circle cx="1374" cy="826" r="12" class="c0"/>
<circle cx="622" cy="10" r="10" class="c0"/>
<circle cx="508" cy="152" r="10" class="c0"/>
<circle cx="924" cy="930" r="10" class="c0"/>
<circle cx="1438" cy="182" r="10" class="c0"/>
<circle cx="1260" cy="374" r="10" class="c0"/>
<circle cx="132" cy="92" r="10" class="c0"/>
<circle cx="434" cy="346" r="10" class="c0"/>
<circle cx="1036" cy="952" r="10" class="c0"/>
<circle cx="1428" cy="382" r="10" class="c0"/>
<circle cx="1296" cy="526" r="10" class="c0"/>
<circle cx="626" cy="416" r="10" class="c0"/>
<circle cx="858" cy="482" r="10" class="c0"/>
<circle cx="1310" cy="514" r="10" class="c0"/>
<circle cx="1136" cy="40" r="10" class="c0"/>
<circle cx="292" cy="130" r="10" class="c0"/>
<circle cx="1342" cy="1118" r="10" class="c0"/>
<circle cx="1052" cy="762" r="10" class="c0"/>
<circle cx="252" cy="144" r="10" class="c0"/>
<circle cx="1158" cy="1120" r="10" class="c0"/>
<circle cx="1422" cy="1428" r="10" class="c0"/>
<circle cx="880" cy="502" r="10" class="c0"/>
<circle cx="918" cy="1180" r="10" class="c0"/>
<circle cx="1274" cy="898" r="10" class="c0"/>
<circle cx="272" cy="108" r="10" class="c0"/>
<circle cx="1410" cy="596" r="10" class="c0"/>
<circle cx="1486" cy="896" r="10" class="c0"/>
<circle cx="1144" cy="1182" r="8" class="c0"/>
<circle cx="978" cy="934" r="8" class="c0"/>
<circle cx="1508" cy="544" r="8" class="c0"/>
<circle cx="1130" cy="150" r="8" class="c0"/>
<circle cx="1304" cy="332" r="8" class="c0"/>
<circle cx="1132" cy="1074" r="8" class="c0"/>
<circle cx="330" cy="468" r="8" class="c0"/>
<circle cx="1468" cy="240" r="8" class="c0"/>
<circle cx="420" cy="216" r="8" class="c0"/>
<circle cx="1010" cy="982" r="8" class="c0"/>
<circle cx="1398" cy="1130" r="8" class="c0"/>
<circle cx="968" cy="196" r="8" class="c0"/>
<circle cx="1140" cy="1274" r="8" class="c0"/>
<circle cx="660" cy="838" r="8" class="c0"/>
<circle cx="770" cy="458" r="8" class="c0"/>
<circle cx="1162" cy="694" r="8" class="c0"/>
<circle cx="1086" cy="816" r="8" class="c0"/>
<circle cx="950" cy="896" r="8" class="c0"/>
<circle cx="768" cy="966" r="8" class="c0"/>
<circle cx="316" cy="12" r="8" class="c0"/>
<circle cx="922" cy="960" r="8" class="c0"/>
<circle cx="1110" cy="868" r="8" class="c0"/>
<circle cx="1544" cy="1322" r="8" class="c0"/>
<circle cx="1378" cy="312" r="8" class="c0"/>
<circle cx="1474" cy="1372" r="8" class="c0"/>
<circle cx="1044" cy="806" r="8" class="c0"/>
<circle cx="850" cy="1106" r="8" class="c0"/>
<circle cx="898" cy="702" r="8" class="c0"/>
<circle cx="1344" cy="856" r="8" class="c0"/>
<circle cx="888" cy="532" r="8" class="c0"/>
<circle cx="1546" cy="536" r="8" class="c0"/>
<circle cx="1046" cy="566" r="8" class="c0"/>
<circle cx="1050" cy="1286" r="8" class="c0"/>
<circle cx="1136" cy="692" r="8" class="c0"/>
<circle cx="908" cy="848" r="8" class="c0"/>
<circle cx="1300" cy="870" r="8" class="c0"/>
<circle cx="1258" cy="394" r="8" class="c0"/>
<circle cx="1148" cy="126" r="8" class="c0"/>
<circle cx="1484" cy="1144" r="8" class="c0"/>
<circle cx="1126" cy="172" r="8" class="c0"/>
<circle cx="1328" cy="1274" r="8" class="c0"/>
<circle cx="1446" cy="1382" r="8" class="c0"/>
<circle cx="1024" cy="1108" r="8" class="c0"/>
<circle cx="806" cy="408" r="8" class="c0"/>
<circle cx="1472" cy="914" r="8" class="c0"/>
<circle cx="562" cy="610" r="8" class="c0"/>
<circle cx="1160" cy="1268" r="8" class="c0"/>
<circle cx="450" cy="512" r="6" class="c0"/>
<circle cx="980" cy="842" r="6" class="c0"/>
<circle cx="370" cy="682" r="6" class="c0"/>
<circle cx="1498" cy="208" r="6" class="c0"/>
<circle cx="886" cy="1032" r="6" class="c0"/>
<circle cx="1086" cy="54" r="6" class="c0"/>
<circle cx="1418" cy="410" r="6" class="c0"/>
<circle cx="1374" cy="338" r="6" class="c0"/>
<circle cx="642" cy="428" r="6" class="c0"/>
<circle cx="1310" cy="32" r="6" class="c0"/>
<circle cx="966" cy="610" r="6" class="c0"/>
<circle cx="1334" cy="1172" r="6" class="c0"/>
<circle cx="1186" cy="678" r="6" class="c0"/>
<circle cx="1212" cy="1408" r="6" class="c0"/>
<circle cx="1054" cy="144" r="6" class="c0"/>
<circle cx="940" cy="392" r="6" class="c0"/>
<circle cx="1064" cy="526" r="6" class="c0"/>
<circle cx="800" cy="532" r="6" class="c0"/>
<circle cx="1126" cy="18" r="6" class="c0"/>
<circle cx="1204" cy="442" r="6" class="c0"/>
<circle cx="1294" cy="1174" r="6" class="c0"/>
<circle cx="1054" cy="796" r="6" class="c0"/>
<circle cx="1116" cy="158" r="6" class="c0"/>
<circle cx="478" cy="192" r="6" class="c0"/>
<circle cx="508" cy="88" r="6" class="c0"/>
<circle cx="640" cy="16" r="6" class="c0"/>
<circle cx="346" cy="464" r="6" class="c0"/>
<circle cx="1402" cy="614" r="6" class="c0"/>
<circle cx="1130" cy="194" r="6" class="c0"/>
<circle cx="1466" cy="258" r="6" class="c0"/>
<circle cx="1180" cy="690" r="6" class="c0"/>
<circle cx="890" cy="516" r="6" class="c0"/>
<circle cx="1052" cy="548" r="6" class="c0"/>
<circle cx="288" cy="162" r="6" class="c0"/>
<circle cx="970" cy="214" r="6" class="c0"/>
<circle cx="1518" cy="1336" r="6" class="c0"/>
<circle cx="1494" cy="228" r="6" class="c0"/>
</svg>
