<?xml version="1.0" encoding="utf-8"?>
<svg xmlns="http://www.w3.org/2000/svg"
     xmlns:xlink="http://www.w3.org/1999/xlink" width="1920" height="1440" >

            <defs>
            <style type="text/css"><![CDATA[
circle {stroke: none;}
.c0 {fill: #FFFFFF;}
]]></style>
            </defs>
<rect x="0" y="0" width="1920" height="1440" fill="black"/>
<circle cx="604" cy="400" r="12" class="c0"/>
<circle cx="220" cy="110" r="12" class="c0"/>
<circle cx="1332" cy="456" r="12" class="c0"/>
<circle cx="956" cy="1182" r="12" class="c0"/>
<circle cx="1330" cy="1146" r="12" class="c0"/>
<circle cx="1190" cy="1168" r="12" class="c0"/>
<circle cx="1158" cy="646" r="12" class="c0"/>
<circle cx="932" cy="104" r="12" class="c0"/>
<circle cx="176" cy="110" r="12" class="c0"/>
<circle cx="1382" cy="1150" r="12" class="c0"/>
<circle cx="1390" cy="1082" r="12" class="c0"/>
<circle cx="508" cy="562" r="10" class="c0"/>
<circle cx="1416" cy="766" r="10" class="c0"/>
<circle cx="936" cy="940" r="10" class="c0"/>
<circle cx="852" cy="448" r="10" class="c0"/>
<circle cx="1646" cy="1294" r="10" class="c0"/>
<circle cx="1106" cy="774" r="10" class="c0"/>
<circle cx="1254" cy="952" r="10" class="c0"/>
<circle cx="1258" cy="302" r="10" class="c0"/>
<circle cx="472" cy="124" r="10" class="c0"/>
<circle cx="1132" cy="832" r="10" class="c0"/>
<circle cx="1448" cy="304" r="10" class="c0"/>
<circle cx="1446" cy="86" r="10" class="c0"/>
<circle cx="528" cy="578" r="10" class="c0"/>
<circle cx="1102" cy="62" r="10" class="c0"/>
<circle cx="1334" cy="818" r="10" class="c0"/>
<circle cx="54" cy="70" r="10" class="c0"/>
<circle cx="1068" cy="932" r="10" class="c0"/>
<circle cx="786" cy="376" r="10" class="c0"/>
<circle cx="1520" cy="828" r="10" class="c0"/>
<circle cx="1488" cy="166" r="10" class="c0"/>
<circle cx="1398" cy="780" r="10" class="c0"/>
<circle cx="1072" cy="768" r="10" class="c0"/>
<circle cx="1510" cy="1426" r="10" class="c0"/>
<circle cx="278" cy="460" r="10" class="c0"/>
<circle cx="1310" cy="254" r="8" class="c0"/>
<circle cx="1034" cy="948" r="8" class="c0"/>
<circle cx="794" cy="518" r="8" class="c0"/>
<circle cx="1536" cy="464" r="8" class="c0"/>
<circle cx="752" cy="420" r="8" class="c0"/>
<circle cx="346" cy="692" r="8" class="c0"/>
<circle cx="1294" cy="854" r="8" class="c0"/>
<circle cx="988" cy="918" r="8" class="c0"/>
<circle cx="1102" cy="1294" r="8" class="c0"/>
<circle cx="434" cy="510" r="8" class="c0"/>
<circle cx="1302" cy="838" r="8" class="c0"/>
<circle cx="930" cy="902" r="8" class="c0"/>
<circle cx="1052" cy="518" r="8" class="c0"/>
<circle cx="1066" cy="488" r="8" class="c0"/>
<circle cx="1358" cy="1164" r="8" class="c0"/>
<circle cx="1198" cy="1102" r="8" class="c0"/>
<circle cx="1312" cy="1158" r="8" class="c0"/>
<circle cx="1482" cy="190" r="8" class="c0"/>
<circle cx="1062" cy="730" r="8" class="c0"/>
<circle cx="772" cy="958" r="8" class="c0"/>
<circle cx="1504" cy="122" r="8" class="c0"/>
<circle cx="1392" cy="240" r="8" class="c0"/>
<circle cx="392" cy="330" r="8" class="c0"/>
<circle cx="1174" cy="1054" r="8" class="c0"/>
<circle cx="1200" cy="1260" r="8" class="c0"/>
<circle cx="1206" cy="646" r="8" class="c0"/>
<circle cx="1290" cy="1410" r="8" class="c0"/>
<circle cx="1258" cy="332" r="8" class="c0"/>
<circle cx="918" cy="1384" r="8" class="c0"/>
<circle cx="1006" cy="826" r="8" class="c0"/>
<circle cx="1560" cy="1110" r="8" class="c0"/>
<circle cx="972" cy="874" r="8" class="c0"/>
<circle cx="894" cy="1018" r="8" class="c0"/>
<circle cx="896" cy="618" r="8" class="c0"/>
<circle cx="946" cy="126" r="8" class="c0"/>
<circle cx="360" cy="182" r="8" class="c0"/>
<circle cx="206" cy="86" r="8" class="c0"/>
<circle cx="1104" cy="88" r="8" class="c0"/>
<circle cx="1276" cy="310" r="8" class="c0"/>
<circle cx="1172" cy="662" r="8" class="c0"/>
<circle cx="1396" cy="1246" r="8" class="c0"/>
<circle cx="860" cy="468" r="8" class="c0"/>
<circle cx="928" cy="682" r="8" class="c0"/>
<circle cx="1472" cy="1088" r="8" class="c0"/>
<circle cx="868" cy="1102" r="8" class="c0"/>
<circle cx="1442" cy="516" r="8" class="c0"/>
<circle cx="1438" cy="334" r="8" class="c0"/>
<circle cx="1316" cy="472" r="8" class="c0"/>
<circle cx="456" cy="114" r="8" class="c0"/>
<circle cx="1582" cy="1350" r="8" class="c0"/>
<circle cx="1076" cy="10" r="8" class="c0"/>
<circle cx="1052" cy="1092" r="8" class="c0"/>
<circle cx="1156" cy="1068" r="8" class="c0"/>
<circle cx="646" cy="822" r="8" class="c0"/>
<circle cx="970" cy="582" r="8" class="c0"/>
<circle cx="1322" cy="834" r="8" class="c0"/>
<circle cx="1510" cy="846" r="8" class="c0"/>
<circle cx="1584" cy="456" r="8" class="c0"/>
<circle cx="198" cy="120" r="8" class="c0"/>
<circle cx="930" cy="838" r="8" class="c0"/>
<circle cx="244" cy="114" r="8" class="c0"/>
<circle cx="1394" cy="258" r="8" class="c0"/>
<circle cx="536" cy="598" r="6" class="c0"/>
<circle cx="1304" cy="282" r="6" class="c0"/>
<circle cx="588" cy="390" r="6" class="c0"/>
<circle cx="460" cy="186" r="6" class="c0"/>
<circle cx="1540" cy="1116" r="6" class="c0"/>
<circle cx="930" cy="348" r="6" class="c0"/>
<circle cx="924" cy="918" r="6" class="c0"/>
<circle cx="760" cy="434" r="6" class="c0"/>
<circle cx="964" cy="154" r="6" class="c0"/>
<circle cx="1024" cy="90" r="6" class="c0"/>
<circle cx="906" cy="1372" r="6" class="c0"/>
<circle cx="1326" cy="1166" r="6" class="c0"/>
<circle cx="1140" cy="70" r="6" class="c0"/>
<circle cx="1214" cy="390" r="6" class="c0"/>
<circle cx="1208" cy="630" r="6" class="c0"/>
<circle cx="1240" cy="970" r="6" class="c0"/>
<circle cx="1534" cy="1366" r="6" class="c0"/>
<circle cx="1180" cy="648" r="6" class="c0"/>
<circle cx="1442" cy="118" r="6" class="c0"/>
<circle cx="484" cy="78" r="6" class="c0"/>
<circle cx="1210" cy="1250" r="6" class="c0"/>
<circle cx="406" cy="338" r="6" class="c0"/>
<circle cx="1616" cy="1302" r="6" class="c0"/>
</svg>
