<?xml version="1.0" encoding="utf-8"?>
<svg xmlns="http://www.w3.org/2000/svg"
     xmlns:xlink="http://www.w3.org/1999/xlink" width="1920" height="1440" >

            <defs>
            <style type="text/css"><![CDATA[
circle {stroke: none;}
.c0 {fill: #FFFFFF;}
]]></style>
            </defs>
<rect x="0" y="0" width="1920" height="1440" fill="black"/>
<circle cx="1552" cy="940" r="12" class="c0"/>
<circle cx="1352" cy="794" r="12" class="c0"/>
<circle cx="1462" cy="1018" r="12" class="c0"/>
<circle cx="282" cy="352" r="12" class="c0"/>
<circle cx="1560" cy="1018" r="10" class="c0"/>
<circle cx="1288" cy="132" r="10" class="c0"/>
<circle cx="1376" cy="1190" r="10" class="c0"/>
<circle cx="502" cy="370" r="10" class="c0"/>
<circle cx="1054" cy="402" r="10" class="c0"/>
<circle cx="1486" cy="554" r="10" class="c0"/>
<circle cx="1572" cy="1038" r="10" class="c0"/>
<circle cx="1404" cy="278" r="10" class="c0"/>
<circle cx="992" cy="894" r="10" class="c0"/>
<circle cx="1022" cy="852" r="10" class="c0"/>
<circle cx="456" cy="588" r="10" class="c0"/>
<circle cx="748" cy="344" r="10" class="c0"/>
<circle cx="1654" cy="186" r="10" class="c0"/>
<circle cx="1060" cy="1406" r="10" class="c0"/>
<circle cx="1098" cy="1172" r="10" class="c0"/>
<circle cx="1598" cy="218" r="10" class="c0"/>
<circle cx="692" cy="302" r="10" class="c0"/>
<circle cx="1136" cy="674" r="10" class="c0"/>
<circle cx="850" cy="522" r="10" class="c0"/>
<circle cx="360" cy="546" r="10" class="c0"/>
<circle cx="100" cy="502" r="10" class="c0"/>
<circle cx="1282" cy="66" r="10" class="c0"/>
<circle cx="730" cy="334" r="10" class="c0"/>
<circle cx="1450" cy="650" r="10" class="c0"/>
<circle cx="1030" cy="814" r="10" class="c0"/>
<circle cx="1074" cy="870" r="8" class="c0"/>
<circle cx="1114" cy="774" r="8" class="c0"/>
<circle cx="10" cy="108" r="8" class="c0"/>
<circle cx="1808" cy="956" r="8" class="c0"/>
<circle cx="1178" cy="504" r="8" class="c0"/>
<circle cx="1348" cy="1276" r="8" class="c0"/>
<circle cx="706" cy="374" r="8" class="c0"/>
<circle cx="1208" cy="718" r="8" class="c0"/>
<circle cx="1212" cy="506" r="8" class="c0"/>
<circle cx="1342" cy="816" r="8" class="c0"/>
<circle cx="1494" cy="1430" r="8" class="c0"/>
<circle cx="1378" cy="1088" r="8" class="c0"/>
<circle cx="1668" cy="930" r="8" class="c0"/>
<circle cx="1468" cy="312" r="8" class="c0"/>
<circle cx="1068" cy="416" r="8" class="c0"/>
<circle cx="962" cy="1116" r="8" class="c0"/>
<circle cx="1144" cy="656" r="8" class="c0"/>
<circle cx="872" cy="262" r="8" class="c0"/>
<circle cx="412" cy="550" r="8" class="c0"/>
<circle cx="1448" cy="46" r="8" class="c0"/>
<circle cx="290" cy="774" r="8" class="c0"/>
<circle cx="1218" cy="254" r="8" class="c0"/>
<circle cx="1910" cy="1218" r="8" class="c0"/>
<circle cx="630" cy="810" r="8" class="c0"/>
<circle cx="1286" cy="982" r="8" class="c0"/>
<circle cx="1080" cy="632" r="8" class="c0"/>
<circle cx="1826" cy="1366" r="8" class="c0"/>
<circle cx="1262" cy="492" r="8" class="c0"/>
<circle cx="1474" cy="572" r="8" class="c0"/>
<circle cx="1166" cy="864" r="8" class="c0"/>
<circle cx="1594" cy="1040" r="8" class="c0"/>
<circle cx="1140" cy="1030" r="8" class="c0"/>
<circle cx="1448" cy="1034" r="8" class="c0"/>
<circle cx="1344" cy="676" r="8" class="c0"/>
<circle cx="1504" cy="546" r="8" class="c0"/>
<circle cx="178" cy="164" r="8" class="c0"/>
<circle cx="64" cy="24" r="8" class="c0"/>
<circle cx="300" cy="108" r="8" class="c0"/>
<circle cx="956" cy="866" r="8" class="c0"/>
<circle cx="1122" cy="692" r="8" class="c0"/>
<circle cx="814" cy="952" r="8" class="c0"/>
<circle cx="798" cy="360" r="8" class="c0"/>
<circle cx="1552" cy="1388" r="8" class="c0"/>
<circle cx="1616" cy="1132" r="8" class="c0"/>
<circle cx="1498" cy="566" r="8" class="c0"/>
<circle cx="112" cy="490" r="8" class="c0"/>
<circle cx="1552" cy="1040" r="8" class="c0"/>
<circle cx="158" cy="166" r="8" class="c0"/>
<circle cx="1350" cy="1022" r="8" class="c0"/>
<circle cx="1048" cy="642" r="8" class="c0"/>
<circle cx="1100" cy="786" r="8" class="c0"/>
<circle cx="1414" cy="18" r="8" class="c0"/>
<circle cx="1072" cy="392" r="8" class="c0"/>
<circle cx="1654" cy="942" r="8" class="c0"/>
<circle cx="1282" cy="44" r="8" class="c0"/>
<circle cx="1572" cy="592" r="8" class="c0"/>
<circle cx="1358" cy="1202" r="8" class="c0"/>
<circle cx="1406" cy="298" r="8" class="c0"/>
<circle cx="1358" cy="1096" r="8" class="c0"/>
<circle cx="1650" cy="214" r="8" class="c0"/>
<circle cx="1470" cy="330" r="8" class="c0"/>
<circle cx="940" cy="966" r="8" class="c0"/>
<circle cx="698" cy="354" r="8" class="c0"/>
<circle cx="1540" cy="1030" r="8" class="c0"/>
<circle cx="24" cy="138" r="8" class="c0"/>
<circle cx="734" cy="316" r="6" class="c0"/>
<circle cx="1418" cy="268" r="6" class="c0"/>
<circle cx="1490" cy="536" r="6" class="c0"/>
<circle cx="1470" cy="996" r="6" class="c0"/>
<circle cx="1152" cy="878" r="6" class="c0"/>
<circle cx="1344" cy="656" r="6" class="c0"/>
<circle cx="1434" cy="88" r="6" class="c0"/>
<circle cx="968" cy="514" r="6" class="c0"/>
<circle cx="1300" cy="118" r="6" class="c0"/>
<circle cx="826" cy="962" r="6" class="c0"/>
<circle cx="1368" cy="1108" r="6" class="c0"/>
<circle cx="1082" cy="616" r="6" class="c0"/>
<circle cx="1334" cy="802" r="6" class="c0"/>
<circle cx="394" cy="234" r="6" class="c0"/>
<circle cx="796" cy="378" r="6" class="c0"/>
<circle cx="908" cy="56" r="6" class="c0"/>
<circle cx="1836" cy="1376" r="6" class="c0"/>
<circle cx="746" cy="324" r="6" class="c0"/>
<circle cx="1206" cy="90" r="6" class="c0"/>
<circle cx="1432" cy="48" r="6" class="c0"/>
<circle cx="1794" cy="964" r="6" class="c0"/>
<circle cx="1010" cy="814" r="6" class="c0"/>
<circle cx="1592" cy="252" r="6" class="c0"/>
<circle cx="1798" cy="1378" r="6" class="c0"/>
<circle cx="80" cy="14" r="6" class="c0"/>
<circle cx="124" cy="500" r="6" class="c0"/>
<circle cx="1612" cy="208" r="6" class="c0"/>
<circle cx="1434" cy="664" r="6" class="c0"/>
<circle cx="474" cy="586" r="6" class="c0"/>
<circle cx="840" cy="506" r="6" class="c0"/>
<circle cx="1200" cy="76" r="6" class="c0"/>
<circle cx="1874" cy="1238" r="6" class="c0"/>
<circle cx="1490" cy="582" r="6" class="c0"/>
<circle cx="428" cy="104" r="6" class="c0"/>
<circle cx="1478" cy="1008" r="6" class="c0"/>
<circle cx="772" cy="472" r="6" class="c0"/>
<circle cx="1340" cy="780" r="6" class="c0"/>
<circle cx="1540" cy="954" r="6" class="c0"/>
<circle cx="1434" cy="114" r="6" class="c0"/>
<circle cx="1412" cy="34" r="6" class="c0"/>
<circle cx="20" cy="122" r="6" class="c0"/>
<circle cx="1318" cy="1292" r="6" class="c0"/>
<circle cx="1544" cy="1054" r="6" class="c0"/>
<circle cx="522" cy="366" r="6" class="c0"/>
<circle cx="116" cy="510" r="6" class="c0"/>
</svg>
