<?xml version="1.0" encoding="utf-8"?>
<svg xmlns="http://www.w3.org/2000/svg"
     xmlns:xlink="http://www.w3.org/1999/xlink" width="1920" height="1440" >

            <defs>
            <style type="text/css"><![CDATA[
circle {stroke: none;}
.c0 {fill: #FFFFFF;}
]]></style>
            </defs>
<rect x="0" y="0" width="1920" height="1440" fill="black"/>
<circle cx="1438" cy="212" r="12" class="c0"/>
<circle cx="442" cy="606" r="12" class="c0"/>
<circle cx="52" cy="548" r="12" class="c0"/>
<circle cx="1488" cy="486" r="12" class="c0"/>
<circle cx="674" cy="298" r="12" class="c0"/>
<circle cx="1076" cy="594" r="12" class="c0"/>
<circle cx="1584" cy="902" r="10" class="c0"/>
<circle cx="1052" cy="370" r="10" class="c0"/>
<circle cx="1378" cy="746" r="10" class="c0"/>
<circle cx="1484" cy="984" r="10" class="c0"/>
<circle cx="1150" cy="1168" r="10" class="c0"/>
<circle cx="1148" cy="636" r="10" class="c0"/>
<circle cx="308" cy="570" r="10" class="c0"/>
<circle cx="1280" cy="80" r="10" class="c0"/>
<circle cx="1622" cy="964" r="10" class="c0"/>
<circle cx="1474" cy="592" r="10" class="c0"/>
<circle cx="1570" cy="516" r="10" class="c0"/>
<circle cx="1426" cy="1060" r="10" class="c0"/>
<circle cx="1048" cy="802" r="10" class="c0"/>
<circle cx="830" cy="496" r="10" class="c0"/>
<circle cx="1604" cy="884" r="10" class="c0"/>
<circle cx="1650" cy="92" r="10" class="c0"/>
<circle cx="844" cy="956" r="10" class="c0"/>
<circle cx="1092" cy="854" r="10" class="c0"/>
<circle cx="1350" cy="608" r="10" class="c0"/>
<circle cx="1904" cy="1346" r="10" class="c0"/>
<circle cx="1610" cy="130" r="10" class="c0"/>
<circle cx="1368" cy="728" r="10" class="c0"/>
<circle cx="1434" cy="1158" r="10" class="c0"/>
<circle cx="1504" cy="952" r="10" class="c0"/>
<circle cx="956" cy="960" r="10" class="c0"/>
<circle cx="1668" cy="1086" r="10" class="c0"/>
<circle cx="1510" cy="500" r="10" class="c0"/>
<circle cx="114" cy="188" r="10" class="c0"/>
<circle cx="1492" cy="462" r="10" class="c0"/>
<circle cx="246" cy="372" r="10" class="c0"/>
<circle cx="1278" cy="440" r="10" class="c0"/>
<circle cx="682" cy="356" r="10" class="c0"/>
<circle cx="1398" cy="998" r="10" class="c0"/>
<circle cx="480" cy="372" r="8" class="c0"/>
<circle cx="1462" cy="240" r="8" class="c0"/>
<circle cx="1122" cy="1414" r="8" class="c0"/>
<circle cx="248" cy="130" r="8" class="c0"/>
<circle cx="1266" cy="8" r="8" class="c0"/>
<circle cx="1022" cy="882" r="8" class="c0"/>
<circle cx="1726" cy="874" r="8" class="c0"/>
<circle cx="1148" cy="770" r="8" class="c0"/>
<circle cx="10" cy="64" r="8" class="c0"/>
<circle cx="688" cy="324" r="8" class="c0"/>
<circle cx="1220" cy="462" r="8" class="c0"/>
<circle cx="1202" cy="846" r="8" class="c0"/>
<circle cx="1712" cy="884" r="8" class="c0"/>
<circle cx="414" cy="564" r="8" class="c0"/>
<circle cx="646" cy="822" r="8" class="c0"/>
<circle cx="698" cy="312" r="8" class="c0"/>
<circle cx="970" cy="852" r="8" class="c0"/>
<circle cx="1208" cy="206" r="8" class="c0"/>
<circle cx="1222" cy="682" r="8" class="c0"/>
<circle cx="1636" cy="1006" r="8" class="c0"/>
<circle cx="1434" cy="236" r="8" class="c0"/>
<circle cx="1004" cy="1124" r="8" class="c0"/>
<circle cx="330" cy="552" r="8" class="c0"/>
<circle cx="1884" cy="896" r="8" class="c0"/>
<circle cx="1496" cy="972" r="8" class="c0"/>
<circle cx="1538" cy="1412" r="8" class="c0"/>
<circle cx="1694" cy="1082" r="8" class="c0"/>
<circle cx="778" cy="358" r="8" class="c0"/>
<circle cx="1464" cy="608" r="8" class="c0"/>
<circle cx="466" cy="382" r="8" class="c0"/>
<circle cx="1326" cy="952" r="8" class="c0"/>
<circle cx="72" cy="538" r="8" class="c0"/>
<circle cx="1416" cy="16" r="8" class="c0"/>
<circle cx="1508" cy="476" r="8" class="c0"/>
<circle cx="1446" cy="1056" r="8" class="c0"/>
<circle cx="1192" cy="858" r="8" class="c0"/>
<circle cx="1094" cy="628" r="8" class="c0"/>
<circle cx="1630" cy="982" r="8" class="c0"/>
<circle cx="1422" cy="1084" r="8" class="c0"/>
<circle cx="1610" cy="980" r="8" class="c0"/>
<circle cx="1146" cy="658" r="8" class="c0"/>
<circle cx="1438" cy="1270" r="6" class="c0"/>
<circle cx="1074" cy="396" r="6" class="c0"/>
<circle cx="1358" cy="748" r="6" class="c0"/>
<circle cx="842" cy="246" r="6" class="c0"/>
<circle cx="1162" cy="18" r="6" class="c0"/>
<circle cx="1556" cy="1406" r="6" class="c0"/>
<circle cx="1222" cy="478" r="6" class="c0"/>
<circle cx="1854" cy="1420" r="6" class="c0"/>
<circle cx="686" cy="374" r="6" class="c0"/>
<circle cx="1232" cy="692" r="6" class="c0"/>
<circle cx="842" cy="512" r="6" class="c0"/>
<circle cx="1654" cy="996" r="6" class="c0"/>
<circle cx="754" cy="468" r="6" class="c0"/>
<circle cx="648" cy="300" r="6" class="c0"/>
<circle cx="1734" cy="860" r="6" class="c0"/>
<circle cx="766" cy="474" r="6" class="c0"/>
<circle cx="282" cy="824" r="6" class="c0"/>
<circle cx="1170" cy="1000" r="6" class="c0"/>
<circle cx="1596" cy="120" r="6" class="c0"/>
<circle cx="962" cy="490" r="6" class="c0"/>
<circle cx="60" cy="528" r="6" class="c0"/>
<circle cx="1034" cy="844" r="6" class="c0"/>
<circle cx="1614" cy="160" r="6" class="c0"/>
<circle cx="1646" cy="136" r="6" class="c0"/>
<circle cx="1282" cy="62" r="6" class="c0"/>
<circle cx="258" cy="384" r="6" class="c0"/>
<circle cx="1510" cy="458" r="6" class="c0"/>
<circle cx="1660" cy="1366" r="6" class="c0"/>
<circle cx="1150" cy="618" r="6" class="c0"/>
<circle cx="280" cy="802" r="6" class="c0"/>
<circle cx="656" cy="288" r="6" class="c0"/>
<circle cx="1182" cy="460" r="6" class="c0"/>
<circle cx="1554" cy="1420" r="6" class="c0"/>
<circle cx="1404" cy="1270" r="6" class="c0"/>
<circle cx="1352" cy="626" r="6" class="c0"/>
<circle cx="382" cy="262" r="6" class="c0"/>
<circle cx="1070" cy="362" r="6" class="c0"/>
<circle cx="1420" cy="38" r="6" class="c0"/>
<circle cx="1056" cy="786" r="6" class="c0"/>
<circle cx="418" cy="580" r="6" class="c0"/>
<circle cx="1428" cy="1262" r="6" class="c0"/>
<circle cx="878" cy="34" r="6" class="c0"/>
<circle cx="1160" cy="1182" r="6" class="c0"/>
<circle cx="1572" cy="538" r="6" class="c0"/>
<circle cx="1104" cy="1410" r="6" class="c0"/>
<circle cx="1354" cy="762" r="6" class="c0"/>
<circle cx="1136" cy="668" r="6" class="c0"/>
<circle cx="850" cy="254" r="6" class="c0"/>
</svg>
