<?xml version="1.0" encoding="utf-8"?>
<svg xmlns="http://www.w3.org/2000/svg"
     xmlns:xlink="http://www.w3.org/1999/xlink" width="1920" height="1440" >

            <defs>
            <style type="text/css"><![CDATA[
circle {stroke: none;}
.c0 {fill: #FFFFFF;}
]]></style>
            </defs>
<rect x="0" y="0" width="1920" height="1440" fill="black"/>
<circle cx="1586" cy="820" r="12" class="c0"/>
<circle cx="1422" cy="278" r="12" class="c0"/>
<circle cx="1388" cy="598" r="12" class="c0"/>
<circle cx="1126" cy="816" r="12" class="c0"/>
<circle cx="1438" cy="296" r="12" class="c0"/>
<circle cx="636" cy="392" r="12" class="c0"/>
<circle cx="1576" cy="846" r="12" class="c0"/>
<circle cx="560" cy="338" r="12" class="c0"/>
<circle cx="1342" cy="1146" r="12" class="c0"/>
<circle cx="1328" cy="490" r="12" class="c0"/>
<circle cx="786" cy="502" r="12" class="c0"/>
<circle cx="1412" cy="88" r="12" class="c0"/>
<circle cx="534" cy="326" r="10" class="c0"/>
<circle cx="64" cy="18" r="10" class="c0"/>
<circle cx="196" cy="722" r="10" class="c0"/>
<circle cx="1762" cy="816" r="10" class="c0"/>
<circle cx="1018" cy="324" r="10" class="c0"/>
<circle cx="650" cy="406" r="10" class="c0"/>
<circle cx="174" cy="534" r="10" class="c0"/>
<circle cx="1874" cy="678" r="10" class="c0"/>
<circle cx="514" cy="316" r="10" class="c0"/>
<circle cx="1538" cy="924" r="10" class="c0"/>
<circle cx="1606" cy="954" r="10" class="c0"/>
<circle cx="1868" cy="924" r="10" class="c0"/>
<circle cx="1694" cy="744" r="10" class="c0"/>
<circle cx="1308" cy="796" r="10" class="c0"/>
<circle cx="924" cy="1000" r="10" class="c0"/>
<circle cx="1708" cy="1210" r="10" class="c0"/>
<circle cx="386" cy="718" r="10" class="c0"/>
<circle cx="1042" cy="554" r="10" class="c0"/>
<circle cx="1522" cy="436" r="10" class="c0"/>
<circle cx="1258" cy="732" r="10" class="c0"/>
<circle cx="1400" cy="618" r="10" class="c0"/>
<circle cx="1464" cy="308" r="10" class="c0"/>
<circle cx="210" cy="694" r="10" class="c0"/>
<circle cx="70" cy="76" r="10" class="c0"/>
<circle cx="466" cy="688" r="10" class="c0"/>
<circle cx="1440" cy="264" r="10" class="c0"/>
<circle cx="1270" cy="614" r="10" class="c0"/>
<circle cx="390" cy="484" r="10" class="c0"/>
<circle cx="1132" cy="560" r="10" class="c0"/>
<circle cx="522" cy="340" r="10" class="c0"/>
<circle cx="1736" cy="1332" r="10" class="c0"/>
<circle cx="1614" cy="1064" r="10" class="c0"/>
<circle cx="1894" cy="660" r="8" class="c0"/>
<circle cx="1202" cy="376" r="8" class="c0"/>
<circle cx="1162" cy="122" r="8" class="c0"/>
<circle cx="1528" cy="330" r="8" class="c0"/>
<circle cx="400" cy="460" r="8" class="c0"/>
<circle cx="786" cy="32" r="8" class="c0"/>
<circle cx="1478" cy="38" r="8" class="c0"/>
<circle cx="306" cy="1004" r="8" class="c0"/>
<circle cx="152" cy="56" r="8" class="c0"/>
<circle cx="1418" cy="256" r="8" class="c0"/>
<circle cx="740" cy="512" r="8" class="c0"/>
<circle cx="1458" cy="286" r="8" class="c0"/>
<circle cx="1340" cy="1168" r="8" class="c0"/>
<circle cx="186" cy="512" r="8" class="c0"/>
<circle cx="546" cy="352" r="8" class="c0"/>
<circle cx="24" cy="180" r="8" class="c0"/>
<circle cx="1818" cy="842" r="8" class="c0"/>
<circle cx="1478" cy="58" r="8" class="c0"/>
<circle cx="402" cy="706" r="8" class="c0"/>
<circle cx="996" cy="964" r="8" class="c0"/>
<circle cx="1320" cy="1158" r="8" class="c0"/>
<circle cx="454" cy="672" r="8" class="c0"/>
<circle cx="698" cy="886" r="8" class="c0"/>
<circle cx="1006" cy="856" r="8" class="c0"/>
<circle cx="1144" cy="804" r="8" class="c0"/>
<circle cx="750" cy="264" r="8" class="c0"/>
<circle cx="1714" cy="1340" r="8" class="c0"/>
<circle cx="1110" cy="770" r="8" class="c0"/>
<circle cx="904" cy="996" r="8" class="c0"/>
<circle cx="770" cy="486" r="8" class="c0"/>
<circle cx="1036" cy="316" r="8" class="c0"/>
<circle cx="1696" cy="1196" r="8" class="c0"/>
<circle cx="110" cy="274" r="8" class="c0"/>
<circle cx="1758" cy="796" r="8" class="c0"/>
<circle cx="1764" cy="838" r="8" class="c0"/>
<circle cx="1778" cy="826" r="8" class="c0"/>
<circle cx="1296" cy="326" r="8" class="c0"/>
<circle cx="48" cy="28" r="8" class="c0"/>
<circle cx="724" cy="388" r="8" class="c0"/>
<circle cx="1706" cy="732" r="8" class="c0"/>
<circle cx="1424" cy="886" r="8" class="c0"/>
<circle cx="1080" cy="874" r="8" class="c0"/>
<circle cx="1246" cy="964" r="8" class="c0"/>
<circle cx="1468" cy="48" r="8" class="c0"/>
<circle cx="1246" cy="720" r="8" class="c0"/>
<circle cx="1164" cy="1162" r="8" class="c0"/>
<circle cx="504" cy="332" r="8" class="c0"/>
<circle cx="800" cy="516" r="8" class="c0"/>
<circle cx="68" cy="112" r="8" class="c0"/>
<circle cx="1354" cy="1160" r="6" class="c0"/>
<circle cx="1518" cy="418" r="6" class="c0"/>
<circle cx="1322" cy="1430" r="6" class="c0"/>
<circle cx="914" cy="984" r="6" class="c0"/>
<circle cx="1252" cy="582" r="6" class="c0"/>
<circle cx="1870" cy="700" r="6" class="c0"/>
<circle cx="1072" cy="832" r="6" class="c0"/>
<circle cx="1156" cy="374" r="6" class="c0"/>
<circle cx="720" cy="372" r="6" class="c0"/>
<circle cx="1408" cy="602" r="6" class="c0"/>
<circle cx="1588" cy="800" r="6" class="c0"/>
<circle cx="1776" cy="806" r="6" class="c0"/>
<circle cx="1836" cy="838" r="6" class="c0"/>
<circle cx="1324" cy="468" r="6" class="c0"/>
<circle cx="188" cy="544" r="6" class="c0"/>
<circle cx="1456" cy="38" r="6" class="c0"/>
<circle cx="1180" cy="606" r="6" class="c0"/>
<circle cx="82" cy="88" r="6" class="c0"/>
<circle cx="168" cy="36" r="6" class="c0"/>
<circle cx="1012" cy="968" r="6" class="c0"/>
<circle cx="948" cy="498" r="6" class="c0"/>
<circle cx="1530" cy="906" r="6" class="c0"/>
<circle cx="1494" cy="36" r="6" class="c0"/>
<circle cx="68" cy="38" r="6" class="c0"/>
<circle cx="1062" cy="348" r="6" class="c0"/>
<circle cx="1746" cy="832" r="6" class="c0"/>
<circle cx="116" cy="292" r="6" class="c0"/>
<circle cx="386" cy="698" r="6" class="c0"/>
<circle cx="1622" cy="962" r="6" class="c0"/>
<circle cx="212" cy="78" r="6" class="c0"/>
<circle cx="1532" cy="348" r="6" class="c0"/>
</svg>
