<?xml version="1.0" encoding="utf-8"?>
<svg xmlns="http://www.w3.org/2000/svg"
     xmlns:xlink="http://www.w3.org/1999/xlink" width="1920" height="1440" >

            <defs>
            <style type="text/css"><![CDATA[
circle {stroke: none;}
.c0 {fill: #FFFFFF;}
]]></style>
            </defs>
<rect x="0" y="0" width="1920" height="1440" fill="black"/>
<circle cx="1392" cy="230" r="14" class="c0"/>
<circle cx="1008" cy="320" r="12" class="c0"/>
<circle cx="626" cy="432" r="12" class="c0"/>
<circle cx="774" cy="528" r="12" class="c0"/>
<circle cx="1338" cy="784" r="12" class="c0"/>
<circle cx="952" cy="1012" r="12" class="c0"/>
<circle cx="1816" cy="768" r="10" class="c0"/>
<circle cx="1394" cy="568" r="10" class="c0"/>
<circle cx="1604" cy="784" r="10" class="c0"/>
<circle cx="1726" cy="694" r="10" class="c0"/>
<circle cx="448" cy="368" r="10" class="c0"/>
<circle cx="760" cy="504" r="10" class="c0"/>
<circle cx="1416" cy="1146" r="10" class="c0"/>
<circle cx="1406" cy="254" r="10" class="c0"/>
<circle cx="1676" cy="1042" r="10" class="c0"/>
<circle cx="58" cy="154" r="10" class="c0"/>
<circle cx="1320" cy="462" r="10" class="c0"/>
<circle cx="380" cy="780" r="10" class="c0"/>
<circle cx="1406" cy="586" r="10" class="c0"/>
<circle cx="496" cy="734" r="10" class="c0"/>
<circle cx="1790" cy="766" r="10" class="c0"/>
<circle cx="184" cy="784" r="10" class="c0"/>
<circle cx="1028" cy="560" r="10" class="c0"/>
<circle cx="1572" cy="892" r="10" class="c0"/>
<circle cx="526" cy="388" r="10" class="c0"/>
<circle cx="1674" cy="928" r="10" class="c0"/>
<circle cx="1862" cy="792" r="10" class="c0"/>
<circle cx="1362" cy="216" r="10" class="c0"/>
<circle cx="24" cy="76" r="10" class="c0"/>
<circle cx="152" cy="16" r="10" class="c0"/>
<circle cx="1282" cy="716" r="10" class="c0"/>
<circle cx="1784" cy="1316" r="10" class="c0"/>
<circle cx="468" cy="366" r="8" class="c0"/>
<circle cx="542" cy="374" r="8" class="c0"/>
<circle cx="8" cy="102" r="8" class="c0"/>
<circle cx="1598" cy="806" r="8" class="c0"/>
<circle cx="726" cy="926" r="8" class="c0"/>
<circle cx="1796" cy="746" r="8" class="c0"/>
<circle cx="1100" cy="878" r="8" class="c0"/>
<circle cx="1526" cy="390" r="8" class="c0"/>
<circle cx="1378" cy="54" r="8" class="c0"/>
<circle cx="156" cy="604" r="8" class="c0"/>
<circle cx="1144" cy="820" r="8" class="c0"/>
<circle cx="1194" cy="366" r="8" class="c0"/>
<circle cx="330" cy="1082" r="8" class="c0"/>
<circle cx="1788" cy="1172" r="8" class="c0"/>
<circle cx="1652" cy="930" r="8" class="c0"/>
<circle cx="1404" cy="1162" r="8" class="c0"/>
<circle cx="168" cy="580" r="8" class="c0"/>
<circle cx="756" cy="538" r="8" class="c0"/>
<circle cx="1126" cy="770" r="8" class="c0"/>
<circle cx="1024" cy="982" r="8" class="c0"/>
<circle cx="1608" cy="764" r="8" class="c0"/>
<circle cx="1500" cy="280" r="8" class="c0"/>
<circle cx="1122" cy="560" r="8" class="c0"/>
<circle cx="1796" cy="1300" r="8" class="c0"/>
<circle cx="376" cy="754" r="8" class="c0"/>
<circle cx="1088" cy="840" r="8" class="c0"/>
<circle cx="1908" cy="616" r="8" class="c0"/>
<circle cx="1364" cy="238" r="8" class="c0"/>
<circle cx="178" cy="612" r="8" class="c0"/>
<circle cx="1276" cy="598" r="8" class="c0"/>
<circle cx="372" cy="536" r="8" class="c0"/>
<circle cx="26" cy="110" r="8" class="c0"/>
<circle cx="70" cy="138" r="8" class="c0"/>
<circle cx="186" cy="754" r="8" class="c0"/>
<circle cx="742" cy="50" r="8" class="c0"/>
<circle cx="1804" cy="780" r="8" class="c0"/>
<circle cx="1652" cy="1048" r="8" class="c0"/>
<circle cx="1382" cy="556" r="8" class="c0"/>
<circle cx="1394" cy="1138" r="8" class="c0"/>
<circle cx="708" cy="402" r="8" class="c0"/>
<circle cx="736" cy="542" r="8" class="c0"/>
<circle cx="176" cy="802" r="8" class="c0"/>
<circle cx="1910" cy="860" r="8" class="c0"/>
<circle cx="468" cy="386" r="8" class="c0"/>
<circle cx="1298" cy="304" r="8" class="c0"/>
<circle cx="1662" cy="916" r="8" class="c0"/>
<circle cx="940" cy="1028" r="8" class="c0"/>
<circle cx="106" cy="122" r="8" class="c0"/>
<circle cx="1900" cy="872" r="8" class="c0"/>
<circle cx="1380" cy="250" r="8" class="c0"/>
<circle cx="1710" cy="706" r="8" class="c0"/>
<circle cx="1018" cy="576" r="8" class="c0"/>
<circle cx="640" cy="448" r="8" class="c0"/>
<circle cx="1310" cy="446" r="8" class="c0"/>
<circle cx="1294" cy="730" r="8" class="c0"/>
<circle cx="1384" cy="1154" r="8" class="c0"/>
<circle cx="50" cy="134" r="6" class="c0"/>
<circle cx="1178" cy="806" r="6" class="c0"/>
<circle cx="1222" cy="1176" r="6" class="c0"/>
<circle cx="1298" cy="566" r="6" class="c0"/>
<circle cx="1792" cy="790" r="6" class="c0"/>
<circle cx="1020" cy="876" r="6" class="c0"/>
<circle cx="1036" cy="326" r="6" class="c0"/>
<circle cx="1144" cy="110" r="6" class="c0"/>
<circle cx="1186" cy="600" r="6" class="c0"/>
<circle cx="1512" cy="302" r="6" class="c0"/>
<circle cx="1128" cy="818" r="6" class="c0"/>
<circle cx="614" cy="410" r="6" class="c0"/>
<circle cx="792" cy="538" r="6" class="c0"/>
<circle cx="1384" cy="36" r="6" class="c0"/>
<circle cx="1110" cy="550" r="6" class="c0"/>
<circle cx="1380" cy="212" r="6" class="c0"/>
<circle cx="708" cy="300" r="6" class="c0"/>
<circle cx="712" cy="420" r="6" class="c0"/>
<circle cx="376" cy="518" r="6" class="c0"/>
<circle cx="1770" cy="1184" r="6" class="c0"/>
<circle cx="1058" cy="346" r="6" class="c0"/>
<circle cx="324" cy="1052" r="6" class="c0"/>
<circle cx="1362" cy="48" r="6" class="c0"/>
<circle cx="1454" cy="872" r="6" class="c0"/>
<circle cx="1586" cy="902" r="6" class="c0"/>
<circle cx="1880" cy="786" r="6" class="c0"/>
<circle cx="1660" cy="1034" r="6" class="c0"/>
<circle cx="6" cy="272" r="6" class="c0"/>
<circle cx="10" cy="242" r="6" class="c0"/>
<circle cx="122" cy="104" r="6" class="c0"/>
<circle cx="392" cy="756" r="6" class="c0"/>
<circle cx="1386" cy="584" r="6" class="c0"/>
<circle cx="1912" cy="600" r="6" class="c0"/>
<circle cx="782" cy="510" r="6" class="c0"/>
<circle cx="1144" cy="366" r="6" class="c0"/>
<circle cx="60" cy="124" r="6" class="c0"/>
<circle cx="482" cy="722" r="6" class="c0"/>
<circle cx="930" cy="1018" r="6" class="c0"/>
<circle cx="390" cy="456" r="6" class="c0"/>
<circle cx="1646" cy="914" r="6" class="c0"/>
<circle cx="956" cy="1032" r="6" class="c0"/>
<circle cx="1384" cy="1172" r="6" class="c0"/>
<circle cx="944" cy="508" r="6" class="c0"/>
<circle cx="78" cy="358" r="6" class="c0"/>
<circle cx="754" cy="522" r="6" class="c0"/>
</svg>
