<?xml version="1.0" encoding="utf-8"?>
<svg xmlns="http://www.w3.org/2000/svg"
     xmlns:xlink="http://www.w3.org/1999/xlink" width="1920" height="1440" >

            <defs>
            <style type="text/css"><![CDATA[
circle {stroke: none;}
.c0 {fill: #FFFFFF;}
]]></style>
            </defs>
<rect x="0" y="0" width="1920" height="1440" fill="black"/>
<circle cx="674" cy="940" r="12" class="c0"/>
<circle cx="1248" cy="612" r="12" class="c0"/>
<circle cx="768" cy="448" r="12" class="c0"/>
<circle cx="850" cy="442" r="12" class="c0"/>
<circle cx="1230" cy="1124" r="12" class="c0"/>
<circle cx="1170" cy="1106" r="12" class="c0"/>
<circle cx="792" cy="458" r="12" class="c0"/>
<circle cx="56" cy="1064" r="12" class="c0"/>
<circle cx="546" cy="860" r="12" class="c0"/>
<circle cx="820" cy="462" r="12" class="c0"/>
<circle cx="836" cy="408" r="10" class="c0"/>
<circle cx="1406" cy="942" r="10" class="c0"/>
<circle cx="1802" cy="888" r="10" class="c0"/>
<circle cx="662" cy="964" r="10" class="c0"/>
<circle cx="1258" cy="632" r="10" class="c0"/>
<circle cx="864" cy="426" r="10" class="c0"/>
<circle cx="1110" cy="1380" r="10" class="c0"/>
<circle cx="600" cy="864" r="10" class="c0"/>
<circle cx="822" cy="438" r="10" class="c0"/>
<circle cx="690" cy="786" r="10" class="c0"/>
<circle cx="1478" cy="782" r="10" class="c0"/>
<circle cx="760" cy="1134" r="10" class="c0"/>
<circle cx="1580" cy="954" r="10" class="c0"/>
<circle cx="1284" cy="646" r="10" class="c0"/>
<circle cx="1200" cy="1044" r="10" class="c0"/>
<circle cx="396" cy="252" r="10" class="c0"/>
<circle cx="642" cy="142" r="10" class="c0"/>
<circle cx="722" cy="960" r="10" class="c0"/>
<circle cx="174" cy="1320" r="10" class="c0"/>
<circle cx="368" cy="260" r="10" class="c0"/>
<circle cx="382" cy="932" r="10" class="c0"/>
<circle cx="642" cy="952" r="10" class="c0"/>
<circle cx="796" cy="426" r="10" class="c0"/>
<circle cx="1906" cy="868" r="10" class="c0"/>
<circle cx="1170" cy="1132" r="10" class="c0"/>
<circle cx="1272" cy="608" r="10" class="c0"/>
<circle cx="566" cy="872" r="10" class="c0"/>
<circle cx="826" cy="574" r="10" class="c0"/>
<circle cx="962" cy="250" r="10" class="c0"/>
<circle cx="660" cy="918" r="10" class="c0"/>
<circle cx="978" cy="534" r="10" class="c0"/>
<circle cx="1114" cy="588" r="10" class="c0"/>
<circle cx="808" cy="406" r="10" class="c0"/>
<circle cx="1604" cy="796" r="10" class="c0"/>
<circle cx="1434" cy="1120" r="10" class="c0"/>
<circle cx="960" cy="554" r="10" class="c0"/>
<circle cx="1600" cy="820" r="10" class="c0"/>
<circle cx="198" cy="1310" r="10" class="c0"/>
<circle cx="1864" cy="1220" r="10" class="c0"/>
<circle cx="840" cy="548" r="10" class="c0"/>
<circle cx="528" cy="98" r="10" class="c0"/>
<circle cx="362" cy="936" r="8" class="c0"/>
<circle cx="1282" cy="286" r="8" class="c0"/>
<circle cx="1068" cy="490" r="8" class="c0"/>
<circle cx="860" cy="396" r="8" class="c0"/>
<circle cx="586" cy="876" r="8" class="c0"/>
<circle cx="1604" cy="772" r="8" class="c0"/>
<circle cx="356" cy="246" r="8" class="c0"/>
<circle cx="106" cy="1008" r="8" class="c0"/>
<circle cx="82" cy="1068" r="8" class="c0"/>
<circle cx="1502" cy="790" r="8" class="c0"/>
<circle cx="982" cy="248" r="8" class="c0"/>
<circle cx="1218" cy="1106" r="8" class="c0"/>
<circle cx="718" cy="932" r="8" class="c0"/>
<circle cx="354" cy="362" r="8" class="c0"/>
<circle cx="1906" cy="586" r="8" class="c0"/>
<circle cx="1886" cy="874" r="8" class="c0"/>
<circle cx="644" cy="930" r="8" class="c0"/>
<circle cx="486" cy="470" r="8" class="c0"/>
<circle cx="820" cy="418" r="8" class="c0"/>
<circle cx="1806" cy="868" r="8" class="c0"/>
<circle cx="1876" cy="886" r="8" class="c0"/>
<circle cx="1596" cy="944" r="8" class="c0"/>
<circle cx="342" cy="398" r="8" class="c0"/>
<circle cx="648" cy="976" r="8" class="c0"/>
<circle cx="1218" cy="1052" r="8" class="c0"/>
<circle cx="674" cy="982" r="8" class="c0"/>
<circle cx="1598" cy="962" r="8" class="c0"/>
<circle cx="1766" cy="612" r="8" class="c0"/>
<circle cx="1108" cy="1350" r="8" class="c0"/>
<circle cx="1114" cy="1404" r="8" class="c0"/>
<circle cx="882" cy="404" r="8" class="c0"/>
<circle cx="588" cy="836" r="8" class="c0"/>
<circle cx="836" cy="598" r="8" class="c0"/>
<circle cx="1354" cy="200" r="8" class="c0"/>
<circle cx="1852" cy="1194" r="8" class="c0"/>
<circle cx="284" cy="10" r="8" class="c0"/>
<circle cx="1128" cy="568" r="8" class="c0"/>
<circle cx="1754" cy="622" r="8" class="c0"/>
<circle cx="1262" cy="656" r="8" class="c0"/>
<circle cx="1162" cy="1268" r="8" class="c0"/>
<circle cx="846" cy="580" r="8" class="c0"/>
<circle cx="346" cy="380" r="8" class="c0"/>
<circle cx="688" cy="762" r="8" class="c0"/>
<circle cx="484" cy="450" r="8" class="c0"/>
<circle cx="1270" cy="274" r="8" class="c0"/>
<circle cx="578" cy="856" r="8" class="c0"/>
<circle cx="394" cy="920" r="8" class="c0"/>
<circle cx="382" cy="210" r="8" class="c0"/>
<circle cx="526" cy="726" r="8" class="c0"/>
<circle cx="1390" cy="930" r="8" class="c0"/>
<circle cx="38" cy="434" r="8" class="c0"/>
<circle cx="1236" cy="1102" r="8" class="c0"/>
<circle cx="664" cy="782" r="8" class="c0"/>
<circle cx="772" cy="426" r="8" class="c0"/>
<circle cx="980" cy="1310" r="8" class="c0"/>
<circle cx="1294" cy="628" r="8" class="c0"/>
<circle cx="1116" cy="608" r="8" class="c0"/>
<circle cx="574" cy="822" r="8" class="c0"/>
<circle cx="1788" cy="874" r="8" class="c0"/>
<circle cx="390" cy="896" r="8" class="c0"/>
<circle cx="568" cy="844" r="8" class="c0"/>
<circle cx="1206" cy="1064" r="8" class="c0"/>
<circle cx="384" cy="270" r="8" class="c0"/>
<circle cx="752" cy="1108" r="8" class="c0"/>
<circle cx="384" cy="236" r="8" class="c0"/>
<circle cx="844" cy="938" r="8" class="c0"/>
<circle cx="496" cy="430" r="8" class="c0"/>
<circle cx="186" cy="1296" r="6" class="c0"/>
<circle cx="846" cy="422" r="6" class="c0"/>
<circle cx="1878" cy="1232" r="6" class="c0"/>
<circle cx="1276" cy="630" r="6" class="c0"/>
<circle cx="1246" cy="1134" r="6" class="c0"/>
<circle cx="1064" cy="508" r="6" class="c0"/>
<circle cx="840" cy="458" r="6" class="c0"/>
<circle cx="1606" cy="756" r="6" class="c0"/>
<circle cx="26" cy="412" r="6" class="c0"/>
<circle cx="856" cy="910" r="6" class="c0"/>
<circle cx="1782" cy="596" r="6" class="c0"/>
<circle cx="944" cy="540" r="6" class="c0"/>
<circle cx="1438" cy="292" r="6" class="c0"/>
<circle cx="1086" cy="1208" r="6" class="c0"/>
<circle cx="368" cy="904" r="6" class="c0"/>
<circle cx="286" cy="1212" r="6" class="c0"/>
<circle cx="1504" cy="852" r="6" class="c0"/>
<circle cx="1814" cy="900" r="6" class="c0"/>
<circle cx="764" cy="1152" r="6" class="c0"/>
<circle cx="1430" cy="1100" r="6" class="c0"/>
<circle cx="1898" cy="886" r="6" class="c0"/>
<circle cx="918" cy="846" r="6" class="c0"/>
<circle cx="806" cy="446" r="6" class="c0"/>
<circle cx="1162" cy="1290" r="6" class="c0"/>
<circle cx="650" cy="124" r="6" class="c0"/>
<circle cx="610" cy="880" r="6" class="c0"/>
<circle cx="1228" cy="1144" r="6" class="c0"/>
<circle cx="36" cy="1056" r="6" class="c0"/>
<circle cx="782" cy="436" r="6" class="c0"/>
<circle cx="1530" cy="860" r="6" class="c0"/>
<circle cx="748" cy="442" r="6" class="c0"/>
<circle cx="1816" cy="878" r="6" class="c0"/>
<circle cx="1460" cy="786" r="6" class="c0"/>
<circle cx="156" cy="1318" r="6" class="c0"/>
<circle cx="972" cy="236" r="6" class="c0"/>
<circle cx="526" cy="116" r="6" class="c0"/>
<circle cx="1598" cy="838" r="6" class="c0"/>
<circle cx="996" cy="530" r="6" class="c0"/>
<circle cx="992" cy="238" r="6" class="c0"/>
</svg>
