<?xml version="1.0" encoding="utf-8"?>
<svg xmlns="http://www.w3.org/2000/svg"
     xmlns:xlink="http://www.w3.org/1999/xlink" width="1920" height="1440" >

            <defs>
            <style type="text/css"><![CDATA[
circle {stroke: none;}
.c0 {fill: #FFFFFF;}
]]></style>
            </defs>
<rect x="0" y="0" width="1920" height="1440" fill="black"/>
<circle cx="622" cy="1044" r="12" class="c0"/>
<circle cx="1502" cy="812" r="12" class="c0"/>
<circle cx="1240" cy="696" r="12" class="c0"/>
<circle cx="598" cy="1054" r="12" class="c0"/>
<circle cx="692" cy="542" r="12" class="c0"/>
<circle cx="1244" cy="1208" r="12" class="c0"/>
<circle cx="726" cy="534" r="12" class="c0"/>
<circle cx="548" cy="942" r="12" class="c0"/>
<circle cx="744" cy="518" r="12" class="c0"/>
<circle cx="802" cy="650" r="12" class="c0"/>
<circle cx="888" cy="20" r="12" class="c0"/>
<circle cx="204" cy="70" r="10" class="c0"/>
<circle cx="1820" cy="910" r="10" class="c0"/>
<circle cx="1592" cy="1010" r="10" class="c0"/>
<circle cx="696" cy="518" r="10" class="c0"/>
<circle cx="608" cy="1078" r="10" class="c0"/>
<circle cx="714" cy="552" r="10" class="c0"/>
<circle cx="662" cy="524" r="10" class="c0"/>
<circle cx="1172" cy="1216" r="10" class="c0"/>
<circle cx="1590" cy="832" r="10" class="c0"/>
<circle cx="1226" cy="676" r="10" class="c0"/>
<circle cx="708" cy="500" r="10" class="c0"/>
<circle cx="578" cy="962" r="10" class="c0"/>
<circle cx="1904" cy="906" r="10" class="c0"/>
<circle cx="1616" cy="1014" r="10" class="c0"/>
<circle cx="336" cy="1054" r="10" class="c0"/>
<circle cx="1214" cy="660" r="10" class="c0"/>
<circle cx="738" cy="494" r="10" class="c0"/>
<circle cx="1250" cy="674" r="10" class="c0"/>
<circle cx="538" cy="968" r="10" class="c0"/>
<circle cx="686" cy="862" r="10" class="c0"/>
<circle cx="300" cy="356" r="10" class="c0"/>
<circle cx="526" cy="952" r="10" class="c0"/>
<circle cx="708" cy="1042" r="10" class="c0"/>
<circle cx="1168" cy="1192" r="10" class="c0"/>
<circle cx="794" cy="1202" r="10" class="c0"/>
<circle cx="1588" cy="858" r="10" class="c0"/>
<circle cx="304" cy="484" r="10" class="c0"/>
<circle cx="1606" cy="994" r="10" class="c0"/>
<circle cx="1268" cy="294" r="10" class="c0"/>
<circle cx="938" cy="300" r="10" class="c0"/>
<circle cx="912" cy="16" r="10" class="c0"/>
<circle cx="448" cy="548" r="10" class="c0"/>
<circle cx="956" cy="598" r="10" class="c0"/>
<circle cx="566" cy="926" r="10" class="c0"/>
<circle cx="1236" cy="1186" r="10" class="c0"/>
<circle cx="652" cy="542" r="10" class="c0"/>
<circle cx="780" cy="502" r="8" class="c0"/>
<circle cx="274" cy="350" r="8" class="c0"/>
<circle cx="1210" cy="688" r="8" class="c0"/>
<circle cx="1910" cy="598" r="8" class="c0"/>
<circle cx="1016" cy="1394" r="8" class="c0"/>
<circle cx="1442" cy="1178" r="8" class="c0"/>
<circle cx="1592" cy="806" r="8" class="c0"/>
<circle cx="358" cy="1046" r="8" class="c0"/>
<circle cx="254" cy="1348" r="8" class="c0"/>
<circle cx="620" cy="1094" r="8" class="c0"/>
<circle cx="658" cy="858" r="8" class="c0"/>
<circle cx="1428" cy="992" r="8" class="c0"/>
<circle cx="286" cy="340" r="8" class="c0"/>
<circle cx="1196" cy="1134" r="8" class="c0"/>
<circle cx="616" cy="1018" r="8" class="c0"/>
<circle cx="958" cy="578" r="8" class="c0"/>
<circle cx="620" cy="1066" r="8" class="c0"/>
<circle cx="674" cy="842" r="8" class="c0"/>
<circle cx="796" cy="626" r="8" class="c0"/>
<circle cx="938" cy="610" r="8" class="c0"/>
<circle cx="1034" cy="550" r="8" class="c0"/>
<circle cx="1214" cy="1126" r="8" class="c0"/>
<circle cx="1480" cy="814" r="8" class="c0"/>
<circle cx="534" cy="800" r="8" class="c0"/>
<circle cx="764" cy="482" r="8" class="c0"/>
<circle cx="676" cy="556" r="8" class="c0"/>
<circle cx="1532" cy="816" r="8" class="c0"/>
<circle cx="684" cy="506" r="8" class="c0"/>
<circle cx="468" cy="182" r="8" class="c0"/>
<circle cx="790" cy="666" r="8" class="c0"/>
<circle cx="1838" cy="920" r="8" class="c0"/>
<circle cx="602" cy="214" r="8" class="c0"/>
<circle cx="218" cy="84" r="8" class="c0"/>
<circle cx="1756" cy="636" r="8" class="c0"/>
<circle cx="924" cy="28" r="8" class="c0"/>
<circle cx="270" cy="332" r="8" class="c0"/>
<circle cx="622" cy="182" r="8" class="c0"/>
<circle cx="956" cy="288" r="8" class="c0"/>
<circle cx="1076" cy="1280" r="8" class="c0"/>
<circle cx="1826" cy="932" r="8" class="c0"/>
<circle cx="1256" cy="282" r="8" class="c0"/>
<circle cx="1746" cy="650" r="8" class="c0"/>
<circle cx="726" cy="482" r="8" class="c0"/>
<circle cx="504" cy="956" r="8" class="c0"/>
<circle cx="1818" cy="888" r="8" class="c0"/>
<circle cx="528" cy="930" r="8" class="c0"/>
<circle cx="816" cy="1032" r="8" class="c0"/>
<circle cx="326" cy="296" r="8" class="c0"/>
<circle cx="1206" cy="1108" r="8" class="c0"/>
<circle cx="1910" cy="1236" r="8" class="c0"/>
<circle cx="726" cy="508" r="8" class="c0"/>
<circle cx="1894" cy="926" r="8" class="c0"/>
<circle cx="1416" cy="980" r="8" class="c0"/>
<circle cx="558" cy="960" r="8" class="c0"/>
<circle cx="1222" cy="706" r="8" class="c0"/>
<circle cx="768" cy="518" r="8" class="c0"/>
<circle cx="1038" cy="532" r="8" class="c0"/>
<circle cx="1222" cy="642" r="8" class="c0"/>
<circle cx="744" cy="474" r="8" class="c0"/>
<circle cx="310" cy="462" r="8" class="c0"/>
<circle cx="580" cy="940" r="8" class="c0"/>
<circle cx="1340" cy="214" r="8" class="c0"/>
<circle cx="1586" cy="878" r="8" class="c0"/>
<circle cx="796" cy="488" r="8" class="c0"/>
<circle cx="1202" cy="672" r="8" class="c0"/>
<circle cx="758" cy="504" r="8" class="c0"/>
<circle cx="1072" cy="660" r="8" class="c0"/>
<circle cx="934" cy="592" r="8" class="c0"/>
<circle cx="1190" cy="1374" r="8" class="c0"/>
<circle cx="1176" cy="1346" r="8" class="c0"/>
<circle cx="446" cy="568" r="8" class="c0"/>
<circle cx="1832" cy="898" r="8" class="c0"/>
<circle cx="1772" cy="624" r="8" class="c0"/>
<circle cx="786" cy="638" r="8" class="c0"/>
<circle cx="1092" cy="1308" r="8" class="c0"/>
<circle cx="800" cy="678" r="8" class="c0"/>
<circle cx="604" cy="1032" r="8" class="c0"/>
<circle cx="346" cy="1032" r="8" class="c0"/>
<circle cx="1238" cy="656" r="8" class="c0"/>
<circle cx="932" cy="10" r="8" class="c0"/>
<circle cx="488" cy="164" r="8" class="c0"/>
<circle cx="170" cy="1394" r="6" class="c0"/>
<circle cx="1912" cy="888" r="6" class="c0"/>
<circle cx="670" cy="540" r="6" class="c0"/>
<circle cx="940" cy="626" r="6" class="c0"/>
<circle cx="1224" cy="1210" r="6" class="c0"/>
<circle cx="590" cy="1080" r="6" class="c0"/>
<circle cx="696" cy="562" r="6" class="c0"/>
<circle cx="1586" cy="992" r="6" class="c0"/>
<circle cx="714" cy="520" r="6" class="c0"/>
<circle cx="244" cy="1334" r="6" class="c0"/>
<circle cx="1910" cy="924" r="6" class="c0"/>
<circle cx="1278" cy="308" r="6" class="c0"/>
<circle cx="792" cy="1182" r="6" class="c0"/>
<circle cx="10" cy="1162" r="6" class="c0"/>
<circle cx="1258" cy="1192" r="6" class="c0"/>
<circle cx="680" cy="528" r="6" class="c0"/>
<circle cx="1426" cy="970" r="6" class="c0"/>
<circle cx="712" cy="1022" r="6" class="c0"/>
<circle cx="758" cy="530" r="6" class="c0"/>
<circle cx="812" cy="1048" r="6" class="c0"/>
<circle cx="902" cy="34" r="6" class="c0"/>
<circle cx="1250" cy="1176" r="6" class="c0"/>
<circle cx="794" cy="1224" r="6" class="c0"/>
<circle cx="816" cy="634" r="6" class="c0"/>
<circle cx="1072" cy="638" r="6" class="c0"/>
<circle cx="708" cy="1062" r="6" class="c0"/>
<circle cx="920" cy="302" r="6" class="c0"/>
<circle cx="160" cy="1416" r="6" class="c0"/>
<circle cx="6" cy="1222" r="6" class="c0"/>
<circle cx="1490" cy="826" r="6" class="c0"/>
<circle cx="780" cy="1176" r="6" class="c0"/>
<circle cx="362" cy="1026" r="6" class="c0"/>
<circle cx="1084" cy="626" r="6" class="c0"/>
<circle cx="822" cy="1000" r="6" class="c0"/>
<circle cx="232" cy="42" r="6" class="c0"/>
<circle cx="1516" cy="824" r="6" class="c0"/>
<circle cx="738" cy="548" r="6" class="c0"/>
<circle cx="306" cy="330" r="6" class="c0"/>
<circle cx="746" cy="538" r="6" class="c0"/>
<circle cx="1512" cy="892" r="6" class="c0"/>
<circle cx="1444" cy="1162" r="6" class="c0"/>
<circle cx="526" cy="782" r="6" class="c0"/>
<circle cx="330" cy="316" r="6" class="c0"/>
<circle cx="566" cy="974" r="6" class="c0"/>
<circle cx="888" cy="940" r="6" class="c0"/>
<circle cx="954" cy="616" r="6" class="c0"/>
<circle cx="1080" cy="1296" r="6" class="c0"/>
<circle cx="1396" cy="310" r="6" class="c0"/>
</svg>
