<?xml version="1.0" encoding="utf-8"?>
<svg xmlns="http://www.w3.org/2000/svg"
     xmlns:xlink="http://www.w3.org/1999/xlink" width="1920" height="1440" >

            <defs>
            <style type="text/css"><![CDATA[
circle {stroke: none;}
.c0 {fill: #FFFFFF;}
]]></style>
            </defs>
<rect x="0" y="0" width="1920" height="1440" fill="black"/>
<circle cx="462" cy="704" r="12" class="c0"/>
<circle cx="438" cy="742" r="12" class="c0"/>
<circle cx="362" cy="770" r="12" class="c0"/>
<circle cx="472" cy="1168" r="12" class="c0"/>
<circle cx="80" cy="548" r="12" class="c0"/>
<circle cx="428" cy="1174" r="12" class="c0"/>
<circle cx="416" cy="756" r="12" class="c0"/>
<circle cx="1246" cy="1398" r="12" class="c0"/>
<circle cx="480" cy="722" r="12" class="c0"/>
<circle cx="418" cy="1354" r="10" class="c0"/>
<circle cx="1546" cy="984" r="10" class="c0"/>
<circle cx="1230" cy="326" r="10" class="c0"/>
<circle cx="1530" cy="1024" r="10" class="c0"/>
<circle cx="1614" cy="1164" r="10" class="c0"/>
<circle cx="1108" cy="830" r="10" class="c0"/>
<circle cx="452" cy="756" r="10" class="c0"/>
<circle cx="404" cy="1180" r="10" class="c0"/>
<circle cx="862" cy="402" r="10" class="c0"/>
<circle cx="658" cy="1264" r="10" class="c0"/>
<circle cx="774" cy="110" r="10" class="c0"/>
<circle cx="1544" cy="918" r="10" class="c0"/>
<circle cx="600" cy="68" r="10" class="c0"/>
<circle cx="38" cy="220" r="10" class="c0"/>
<circle cx="482" cy="54" r="10" class="c0"/>
<circle cx="510" cy="700" r="10" class="c0"/>
<circle cx="684" cy="856" r="10" class="c0"/>
<circle cx="420" cy="724" r="10" class="c0"/>
<circle cx="1614" cy="1140" r="10" class="c0"/>
<circle cx="458" cy="1182" r="10" class="c0"/>
<circle cx="1866" cy="1020" r="10" class="c0"/>
<circle cx="412" cy="782" r="10" class="c0"/>
<circle cx="1902" cy="634" r="10" class="c0"/>
<circle cx="1112" cy="804" r="10" class="c0"/>
<circle cx="500" cy="42" r="10" class="c0"/>
<circle cx="1460" cy="1108" r="10" class="c0"/>
<circle cx="1514" cy="914" r="10" class="c0"/>
<circle cx="424" cy="1312" r="10" class="c0"/>
<circle cx="382" cy="780" r="10" class="c0"/>
<circle cx="98" cy="562" r="10" class="c0"/>
<circle cx="1726" cy="722" r="10" class="c0"/>
<circle cx="400" cy="734" r="10" class="c0"/>
<circle cx="434" cy="772" r="10" class="c0"/>
<circle cx="710" cy="1272" r="10" class="c0"/>
<circle cx="388" cy="754" r="10" class="c0"/>
<circle cx="1104" cy="782" r="10" class="c0"/>
<circle cx="462" cy="734" r="10" class="c0"/>
<circle cx="248" cy="1316" r="10" class="c0"/>
<circle cx="496" cy="66" r="10" class="c0"/>
<circle cx="484" cy="1150" r="10" class="c0"/>
<circle cx="1216" cy="310" r="10" class="c0"/>
<circle cx="626" cy="1026" r="8" class="c0"/>
<circle cx="108" cy="522" r="8" class="c0"/>
<circle cx="1092" cy="820" r="8" class="c0"/>
<circle cx="620" cy="44" r="8" class="c0"/>
<circle cx="1222" cy="1402" r="8" class="c0"/>
<circle cx="1550" cy="938" r="8" class="c0"/>
<circle cx="602" cy="1028" r="8" class="c0"/>
<circle cx="1242" cy="1358" r="8" class="c0"/>
<circle cx="854" cy="736" r="8" class="c0"/>
<circle cx="1854" cy="1002" r="8" class="c0"/>
<circle cx="482" cy="80" r="8" class="c0"/>
<circle cx="796" cy="114" r="8" class="c0"/>
<circle cx="434" cy="1328" r="8" class="c0"/>
<circle cx="1536" cy="900" r="8" class="c0"/>
<circle cx="834" cy="1362" r="8" class="c0"/>
<circle cx="410" cy="1332" r="8" class="c0"/>
<circle cx="876" cy="728" r="8" class="c0"/>
<circle cx="188" cy="692" r="8" class="c0"/>
<circle cx="850" cy="416" r="8" class="c0"/>
<circle cx="1152" cy="1426" r="8" class="c0"/>
<circle cx="1120" cy="844" r="8" class="c0"/>
<circle cx="1548" cy="960" r="8" class="c0"/>
<circle cx="1182" cy="1324" r="8" class="c0"/>
<circle cx="674" cy="836" r="8" class="c0"/>
<circle cx="1148" cy="796" r="8" class="c0"/>
<circle cx="950" cy="686" r="8" class="c0"/>
<circle cx="790" cy="1162" r="8" class="c0"/>
<circle cx="1458" cy="1332" r="8" class="c0"/>
<circle cx="326" cy="378" r="8" class="c0"/>
<circle cx="630" cy="1004" r="8" class="c0"/>
<circle cx="1514" cy="1006" r="8" class="c0"/>
<circle cx="1590" cy="1140" r="8" class="c0"/>
<circle cx="1130" cy="774" r="8" class="c0"/>
<circle cx="882" cy="746" r="8" class="c0"/>
<circle cx="1590" cy="1160" r="8" class="c0"/>
<circle cx="106" cy="542" r="8" class="c0"/>
<circle cx="1910" cy="652" r="8" class="c0"/>
<circle cx="1090" cy="794" r="8" class="c0"/>
<circle cx="210" cy="660" r="8" class="c0"/>
<circle cx="234" cy="1328" r="8" class="c0"/>
<circle cx="1456" cy="1352" r="8" class="c0"/>
<circle cx="882" cy="408" r="8" class="c0"/>
<circle cx="786" cy="96" r="8" class="c0"/>
<circle cx="1288" cy="214" r="8" class="c0"/>
<circle cx="434" cy="1374" r="8" class="c0"/>
<circle cx="586" cy="86" r="8" class="c0"/>
<circle cx="526" cy="360" r="8" class="c0"/>
<circle cx="806" cy="100" r="8" class="c0"/>
<circle cx="708" cy="1294" r="8" class="c0"/>
<circle cx="340" cy="772" r="8" class="c0"/>
<circle cx="478" cy="744" r="8" class="c0"/>
<circle cx="1562" cy="906" r="8" class="c0"/>
<circle cx="446" cy="1140" r="8" class="c0"/>
<circle cx="504" cy="722" r="8" class="c0"/>
<circle cx="512" cy="970" r="8" class="c0"/>
<circle cx="578" cy="70" r="8" class="c0"/>
<circle cx="484" cy="686" r="8" class="c0"/>
<circle cx="668" cy="1246" r="8" class="c0"/>
<circle cx="886" cy="390" r="8" class="c0"/>
<circle cx="440" cy="714" r="8" class="c0"/>
<circle cx="1858" cy="1038" r="8" class="c0"/>
<circle cx="870" cy="784" r="8" class="c0"/>
<circle cx="316" cy="364" r="8" class="c0"/>
<circle cx="636" cy="36" r="8" class="c0"/>
<circle cx="1132" cy="808" r="8" class="c0"/>
<circle cx="1544" cy="1004" r="8" class="c0"/>
<circle cx="452" cy="1160" r="8" class="c0"/>
<circle cx="834" cy="1340" r="8" class="c0"/>
<circle cx="784" cy="126" r="8" class="c0"/>
<circle cx="1286" cy="236" r="8" class="c0"/>
<circle cx="1474" cy="1122" r="8" class="c0"/>
<circle cx="1864" cy="988" r="8" class="c0"/>
<circle cx="1234" cy="1380" r="8" class="c0"/>
<circle cx="1158" cy="1382" r="8" class="c0"/>
<circle cx="872" cy="760" r="8" class="c0"/>
<circle cx="450" cy="1306" r="8" class="c0"/>
<circle cx="1626" cy="1152" r="8" class="c0"/>
<circle cx="400" cy="768" r="8" class="c0"/>
<circle cx="1628" cy="1120" r="8" class="c0"/>
<circle cx="518" cy="20" r="8" class="c0"/>
<circle cx="518" cy="682" r="8" class="c0"/>
<circle cx="836" cy="1380" r="8" class="c0"/>
<circle cx="1636" cy="1164" r="8" class="c0"/>
<circle cx="1564" cy="534" r="8" class="c0"/>
<circle cx="1508" cy="1032" r="6" class="c0"/>
<circle cx="62" cy="232" r="6" class="c0"/>
<circle cx="496" cy="968" r="6" class="c0"/>
<circle cx="866" cy="424" r="6" class="c0"/>
<circle cx="664" cy="1284" r="6" class="c0"/>
<circle cx="1544" cy="1034" r="6" class="c0"/>
<circle cx="1876" cy="1006" r="6" class="c0"/>
<circle cx="588" cy="54" r="6" class="c0"/>
<circle cx="520" cy="718" r="6" class="c0"/>
<circle cx="416" cy="1192" r="6" class="c0"/>
<circle cx="1442" cy="1114" r="6" class="c0"/>
<circle cx="366" cy="746" r="6" class="c0"/>
<circle cx="260" cy="1290" r="6" class="c0"/>
<circle cx="1474" cy="1094" r="6" class="c0"/>
<circle cx="350" cy="784" r="6" class="c0"/>
<circle cx="1452" cy="1124" r="6" class="c0"/>
<circle cx="1198" cy="306" r="6" class="c0"/>
<circle cx="1136" cy="1428" r="6" class="c0"/>
<circle cx="64" cy="532" r="6" class="c0"/>
<circle cx="352" cy="738" r="6" class="c0"/>
<circle cx="1716" cy="736" r="6" class="c0"/>
<circle cx="340" cy="350" r="6" class="c0"/>
<circle cx="812" cy="1164" r="6" class="c0"/>
<circle cx="484" cy="1182" r="6" class="c0"/>
<circle cx="610" cy="54" r="6" class="c0"/>
<circle cx="548" cy="690" r="6" class="c0"/>
<circle cx="1706" cy="748" r="6" class="c0"/>
<circle cx="1086" cy="776" r="6" class="c0"/>
<circle cx="350" cy="754" r="6" class="c0"/>
<circle cx="444" cy="1192" r="6" class="c0"/>
<circle cx="1194" cy="1288" r="6" class="c0"/>
<circle cx="140" cy="520" r="6" class="c0"/>
<circle cx="492" cy="704" r="6" class="c0"/>
<circle cx="756" cy="106" r="6" class="c0"/>
<circle cx="766" cy="1158" r="6" class="c0"/>
<circle cx="478" cy="1298" r="6" class="c0"/>
<circle cx="1580" cy="520" r="6" class="c0"/>
<circle cx="274" cy="1270" r="6" class="c0"/>
<circle cx="268" cy="1314" r="6" class="c0"/>
<circle cx="1212" cy="1412" r="6" class="c0"/>
<circle cx="1548" cy="890" r="6" class="c0"/>
<circle cx="1338" cy="364" r="6" class="c0"/>
<circle cx="654" cy="996" r="6" class="c0"/>
<circle cx="494" cy="738" r="6" class="c0"/>
<circle cx="462" cy="1142" r="6" class="c0"/>
<circle cx="130" cy="504" r="6" class="c0"/>
<circle cx="528" cy="710" r="6" class="c0"/>
<circle cx="1126" cy="828" r="6" class="c0"/>
<circle cx="44" cy="688" r="6" class="c0"/>
<circle cx="646" cy="1024" r="6" class="c0"/>
<circle cx="676" cy="1228" r="6" class="c0"/>
<circle cx="1232" cy="1416" r="6" class="c0"/>
<circle cx="1740" cy="708" r="6" class="c0"/>
<circle cx="1210" cy="328" r="6" class="c0"/>
<circle cx="854" cy="794" r="6" class="c0"/>
<circle cx="710" cy="76" r="6" class="c0"/>
<circle cx="896" cy="738" r="6" class="c0"/>
<circle cx="514" cy="946" r="6" class="c0"/>
<circle cx="880" cy="704" r="6" class="c0"/>
<circle cx="1358" cy="362" r="6" class="c0"/>
<circle cx="1126" cy="792" r="6" class="c0"/>
<circle cx="734" cy="1218" r="6" class="c0"/>
<circle cx="1208" cy="914" r="6" class="c0"/>
<circle cx="430" cy="1194" r="6" class="c0"/>
<circle cx="424" cy="1150" r="6" class="c0"/>
<circle cx="1146" cy="1410" r="6" class="c0"/>
<circle cx="196" cy="706" r="6" class="c0"/>
<circle cx="618" cy="994" r="6" class="c0"/>
<circle cx="460" cy="1264" r="6" class="c0"/>
<circle cx="1116" cy="766" r="6" class="c0"/>
<circle cx="346" cy="334" r="6" class="c0"/>
</svg>
