<?xml version="1.0" encoding="utf-8"?>
<svg xmlns="http://www.w3.org/2000/svg"
     xmlns:xlink="http://www.w3.org/1999/xlink" width="1920" height="1440" >

            <defs>
            <style type="text/css"><![CDATA[
circle {stroke: none;}
.c0 {fill: #FFFFFF;}
]]></style>
            </defs>
<rect x="0" y="0" width="1920" height="1440" fill="black"/>
<circle cx="188" cy="898" r="14" class="c0"/>
<circle cx="702" cy="172" r="12" class="c0"/>
<circle cx="226" cy="878" r="12" class="c0"/>
<circle cx="1004" cy="856" r="12" class="c0"/>
<circle cx="1518" cy="990" r="12" class="c0"/>
<circle cx="344" cy="1326" r="12" class="c0"/>
<circle cx="364" cy="122" r="12" class="c0"/>
<circle cx="242" cy="846" r="12" class="c0"/>
<circle cx="260" cy="896" r="12" class="c0"/>
<circle cx="518" cy="58" r="12" class="c0"/>
<circle cx="1614" cy="1248" r="10" class="c0"/>
<circle cx="162" cy="890" r="10" class="c0"/>
<circle cx="284" cy="860" r="10" class="c0"/>
<circle cx="1546" cy="970" r="10" class="c0"/>
<circle cx="996" cy="888" r="10" class="c0"/>
<circle cx="1500" cy="1102" r="10" class="c0"/>
<circle cx="1174" cy="334" r="10" class="c0"/>
<circle cx="374" cy="1306" r="10" class="c0"/>
<circle cx="310" cy="848" r="10" class="c0"/>
<circle cx="634" cy="924" r="10" class="c0"/>
<circle cx="214" cy="906" r="10" class="c0"/>
<circle cx="144" cy="912" r="10" class="c0"/>
<circle cx="1880" cy="1096" r="10" class="c0"/>
<circle cx="1512" cy="1036" r="10" class="c0"/>
<circle cx="302" cy="1310" r="10" class="c0"/>
<circle cx="268" cy="828" r="10" class="c0"/>
<circle cx="208" cy="852" r="10" class="c0"/>
<circle cx="184" cy="872" r="10" class="c0"/>
<circle cx="1596" cy="1270" r="10" class="c0"/>
<circle cx="316" cy="1326" r="10" class="c0"/>
<circle cx="1004" cy="912" r="10" class="c0"/>
<circle cx="1502" cy="1124" r="10" class="c0"/>
<circle cx="510" cy="178" r="10" class="c0"/>
<circle cx="1904" cy="680" r="10" class="c0"/>
<circle cx="798" cy="820" r="10" class="c0"/>
<circle cx="350" cy="1296" r="10" class="c0"/>
<circle cx="720" cy="138" r="10" class="c0"/>
<circle cx="496" cy="122" r="10" class="c0"/>
<circle cx="804" cy="494" r="10" class="c0"/>
<circle cx="712" cy="1294" r="10" class="c0"/>
<circle cx="1458" cy="1208" r="10" class="c0"/>
<circle cx="1234" cy="210" r="8" class="c0"/>
<circle cx="630" cy="1398" r="8" class="c0"/>
<circle cx="362" cy="148" r="8" class="c0"/>
<circle cx="264" cy="850" r="8" class="c0"/>
<circle cx="204" cy="876" r="8" class="c0"/>
<circle cx="322" cy="1304" r="8" class="c0"/>
<circle cx="470" cy="458" r="8" class="c0"/>
<circle cx="1630" cy="1268" r="8" class="c0"/>
<circle cx="470" cy="1066" r="8" class="c0"/>
<circle cx="396" cy="120" r="8" class="c0"/>
<circle cx="830" cy="852" r="8" class="c0"/>
<circle cx="238" cy="900" r="8" class="c0"/>
<circle cx="530" cy="102" r="8" class="c0"/>
<circle cx="600" cy="972" r="8" class="c0"/>
<circle cx="542" cy="92" r="8" class="c0"/>
<circle cx="630" cy="1424" r="8" class="c0"/>
<circle cx="252" cy="868" r="8" class="c0"/>
<circle cx="306" cy="828" r="8" class="c0"/>
<circle cx="1590" cy="1242" r="8" class="c0"/>
<circle cx="170" cy="912" r="8" class="c0"/>
<circle cx="1498" cy="1076" r="8" class="c0"/>
<circle cx="232" cy="478" r="8" class="c0"/>
<circle cx="590" cy="960" r="8" class="c0"/>
<circle cx="328" cy="808" r="8" class="c0"/>
<circle cx="1022" cy="920" r="8" class="c0"/>
<circle cx="1534" cy="952" r="8" class="c0"/>
<circle cx="770" cy="830" r="8" class="c0"/>
<circle cx="1866" cy="1116" r="8" class="c0"/>
<circle cx="1510" cy="1060" r="8" class="c0"/>
<circle cx="818" cy="864" r="8" class="c0"/>
<circle cx="724" cy="164" r="8" class="c0"/>
<circle cx="808" cy="882" r="8" class="c0"/>
<circle cx="554" cy="1130" r="8" class="c0"/>
<circle cx="836" cy="1414" r="8" class="c0"/>
<circle cx="326" cy="838" r="8" class="c0"/>
<circle cx="214" cy="466" r="8" class="c0"/>
<circle cx="892" cy="770" r="8" class="c0"/>
<circle cx="290" cy="836" r="8" class="c0"/>
<circle cx="396" cy="1264" r="8" class="c0"/>
<circle cx="1874" cy="1072" r="8" class="c0"/>
<circle cx="396" cy="96" r="8" class="c0"/>
<circle cx="478" cy="130" r="8" class="c0"/>
<circle cx="618" cy="1414" r="8" class="c0"/>
<circle cx="1566" cy="960" r="8" class="c0"/>
<circle cx="1160" cy="322" r="8" class="c0"/>
<circle cx="1572" cy="1266" r="8" class="c0"/>
<circle cx="1018" cy="894" r="8" class="c0"/>
<circle cx="364" cy="1280" r="8" class="c0"/>
<circle cx="382" cy="110" r="8" class="c0"/>
<circle cx="478" cy="442" r="8" class="c0"/>
<circle cx="298" cy="806" r="8" class="c0"/>
<circle cx="1480" cy="1212" r="8" class="c0"/>
<circle cx="394" cy="1236" r="8" class="c0"/>
<circle cx="1238" cy="230" r="8" class="c0"/>
<circle cx="1908" cy="708" r="8" class="c0"/>
<circle cx="118" cy="812" r="8" class="c0"/>
<circle cx="822" cy="484" r="8" class="c0"/>
<circle cx="1884" cy="670" r="8" class="c0"/>
<circle cx="1604" cy="1220" r="8" class="c0"/>
<circle cx="636" cy="138" r="8" class="c0"/>
<circle cx="612" cy="982" r="8" class="c0"/>
<circle cx="1696" cy="780" r="8" class="c0"/>
<circle cx="518" cy="116" r="8" class="c0"/>
<circle cx="534" cy="42" r="8" class="c0"/>
<circle cx="1522" cy="962" r="8" class="c0"/>
<circle cx="838" cy="836" r="8" class="c0"/>
<circle cx="806" cy="468" r="8" class="c0"/>
<circle cx="272" cy="880" r="8" class="c0"/>
<circle cx="1514" cy="1016" r="8" class="c0"/>
<circle cx="1554" cy="566" r="8" class="c0"/>
<circle cx="276" cy="910" r="8" class="c0"/>
<circle cx="350" cy="816" r="8" class="c0"/>
<circle cx="988" cy="868" r="8" class="c0"/>
<circle cx="1680" cy="800" r="8" class="c0"/>
<circle cx="842" cy="810" r="8" class="c0"/>
<circle cx="384" cy="1284" r="8" class="c0"/>
<circle cx="1628" cy="1232" r="8" class="c0"/>
<circle cx="364" cy="1256" r="8" class="c0"/>
<circle cx="1202" cy="334" r="8" class="c0"/>
<circle cx="376" cy="138" r="8" class="c0"/>
<circle cx="1042" cy="874" r="8" class="c0"/>
<circle cx="330" cy="788" r="8" class="c0"/>
<circle cx="682" cy="160" r="8" class="c0"/>
<circle cx="556" cy="28" r="8" class="c0"/>
<circle cx="1172" cy="312" r="8" class="c0"/>
<circle cx="1868" cy="1048" r="8" class="c0"/>
<circle cx="1454" cy="1430" r="8" class="c0"/>
<circle cx="1862" cy="1088" r="8" class="c0"/>
<circle cx="648" cy="1410" r="8" class="c0"/>
<circle cx="1714" cy="764" r="8" class="c0"/>
<circle cx="1522" cy="1090" r="8" class="c0"/>
<circle cx="578" cy="1126" r="8" class="c0"/>
<circle cx="1020" cy="872" r="8" class="c0"/>
<circle cx="1038" cy="844" r="8" class="c0"/>
<circle cx="242" cy="488" r="8" class="c0"/>
<circle cx="668" cy="1372" r="6" class="c0"/>
<circle cx="226" cy="856" r="6" class="c0"/>
<circle cx="198" cy="918" r="6" class="c0"/>
<circle cx="284" cy="820" r="6" class="c0"/>
<circle cx="484" cy="1078" r="6" class="c0"/>
<circle cx="866" cy="1160" r="6" class="c0"/>
<circle cx="1898" cy="698" r="6" class="c0"/>
<circle cx="262" cy="438" r="6" class="c0"/>
<circle cx="692" cy="1302" r="6" class="c0"/>
<circle cx="614" cy="1390" r="6" class="c0"/>
<circle cx="286" cy="1320" r="6" class="c0"/>
<circle cx="408" cy="1246" r="6" class="c0"/>
<circle cx="318" cy="818" r="6" class="c0"/>
<circle cx="1498" cy="1048" r="6" class="c0"/>
<circle cx="784" cy="492" r="6" class="c0"/>
<circle cx="1614" cy="1274" r="6" class="c0"/>
<circle cx="1526" cy="1128" r="6" class="c0"/>
<circle cx="610" cy="1430" r="6" class="c0"/>
<circle cx="728" cy="1302" r="6" class="c0"/>
<circle cx="1878" cy="1132" r="6" class="c0"/>
<circle cx="738" cy="150" r="6" class="c0"/>
<circle cx="582" cy="1094" r="6" class="c0"/>
<circle cx="712" cy="154" r="6" class="c0"/>
<circle cx="382" cy="1256" r="6" class="c0"/>
<circle cx="1582" cy="1216" r="6" class="c0"/>
<circle cx="1438" cy="1204" r="6" class="c0"/>
<circle cx="1544" cy="582" r="6" class="c0"/>
<circle cx="538" cy="1132" r="6" class="c0"/>
<circle cx="1468" cy="1222" r="6" class="c0"/>
<circle cx="1160" cy="1400" r="6" class="c0"/>
<circle cx="786" cy="834" r="6" class="c0"/>
<circle cx="126" cy="908" r="6" class="c0"/>
<circle cx="1266" cy="412" r="6" class="c0"/>
<circle cx="246" cy="884" r="6" class="c0"/>
<circle cx="648" cy="1390" r="6" class="c0"/>
<circle cx="362" cy="1318" r="6" class="c0"/>
<circle cx="186" cy="854" r="6" class="c0"/>
<circle cx="1016" cy="840" r="6" class="c0"/>
<circle cx="222" cy="842" r="6" class="c0"/>
<circle cx="1186" cy="320" r="6" class="c0"/>
<circle cx="1250" cy="220" r="6" class="c0"/>
<circle cx="1484" cy="1122" r="6" class="c0"/>
<circle cx="1890" cy="690" r="6" class="c0"/>
<circle cx="834" cy="314" r="6" class="c0"/>
<circle cx="332" cy="1294" r="6" class="c0"/>
<circle cx="1186" cy="346" r="6" class="c0"/>
<circle cx="1060" cy="886" r="6" class="c0"/>
<circle cx="570" cy="20" r="6" class="c0"/>
<circle cx="330" cy="1418" r="6" class="c0"/>
<circle cx="346" cy="1256" r="6" class="c0"/>
<circle cx="276" cy="812" r="6" class="c0"/>
<circle cx="142" cy="894" r="6" class="c0"/>
<circle cx="832" cy="466" r="6" class="c0"/>
<circle cx="488" cy="140" r="6" class="c0"/>
<circle cx="1900" cy="660" r="6" class="c0"/>
<circle cx="1670" cy="816" r="6" class="c0"/>
<circle cx="624" cy="1368" r="6" class="c0"/>
<circle cx="388" cy="1316" r="6" class="c0"/>
<circle cx="1042" cy="904" r="6" class="c0"/>
<circle cx="1582" cy="1256" r="6" class="c0"/>
<circle cx="1160" cy="1428" r="6" class="c0"/>
<circle cx="634" cy="1338" r="6" class="c0"/>
<circle cx="612" cy="960" r="6" class="c0"/>
<circle cx="566" cy="1100" r="6" class="c0"/>
<circle cx="184" cy="920" r="6" class="c0"/>
<circle cx="164" cy="872" r="6" class="c0"/>
</svg>
