<?xml version="1.0" encoding="utf-8"?>
<svg xmlns="http://www.w3.org/2000/svg"
     xmlns:xlink="http://www.w3.org/1999/xlink" width="1920" height="1440" >

            <defs>
            <style type="text/css"><![CDATA[
circle {stroke: none;}
.c0 {fill: #FFFFFF;}
]]></style>
            </defs>
<rect x="0" y="0" width="1920" height="1440" fill="black"/>
<circle cx="1222" cy="176" r="14" class="c0"/>
<circle cx="1588" cy="1274" r="12" class="c0"/>
<circle cx="410" cy="48" r="12" class="c0"/>
<circle cx="26" cy="894" r="12" class="c0"/>
<circle cx="246" cy="1316" r="12" class="c0"/>
<circle cx="280" cy="1288" r="12" class="c0"/>
<circle cx="144" cy="450" r="12" class="c0"/>
<circle cx="660" cy="78" r="12" class="c0"/>
<circle cx="1482" cy="1130" r="12" class="c0"/>
<circle cx="732" cy="788" r="12" class="c0"/>
<circle cx="1476" cy="1200" r="10" class="c0"/>
<circle cx="1886" cy="1078" r="10" class="c0"/>
<circle cx="276" cy="56" r="10" class="c0"/>
<circle cx="1884" cy="1110" r="10" class="c0"/>
<circle cx="54" cy="852" r="10" class="c0"/>
<circle cx="444" cy="1038" r="10" class="c0"/>
<circle cx="14" cy="916" r="10" class="c0"/>
<circle cx="286" cy="38" r="10" class="c0"/>
<circle cx="192" cy="894" r="10" class="c0"/>
<circle cx="290" cy="70" r="10" class="c0"/>
<circle cx="310" cy="1296" r="10" class="c0"/>
<circle cx="762" cy="434" r="10" class="c0"/>
<circle cx="434" cy="416" r="10" class="c0"/>
<circle cx="1500" cy="1050" r="10" class="c0"/>
<circle cx="584" cy="72" r="10" class="c0"/>
<circle cx="942" cy="842" r="10" class="c0"/>
<circle cx="1572" cy="930" r="10" class="c0"/>
<circle cx="1210" cy="150" r="10" class="c0"/>
<circle cx="1592" cy="918" r="10" class="c0"/>
<circle cx="34" cy="862" r="10" class="c0"/>
<circle cx="624" cy="1312" r="10" class="c0"/>
<circle cx="12" cy="874" r="10" class="c0"/>
<circle cx="426" cy="34" r="10" class="c0"/>
<circle cx="534" cy="1080" r="10" class="c0"/>
<circle cx="954" cy="876" r="10" class="c0"/>
<circle cx="54" cy="880" r="10" class="c0"/>
<circle cx="248" cy="1292" r="10" class="c0"/>
<circle cx="1610" cy="1282" r="10" class="c0"/>
<circle cx="750" cy="886" r="10" class="c0"/>
<circle cx="444" cy="142" r="8" class="c0"/>
<circle cx="510" cy="982" r="8" class="c0"/>
<circle cx="944" cy="804" r="8" class="c0"/>
<circle cx="682" cy="76" r="8" class="c0"/>
<circle cx="768" cy="270" r="8" class="c0"/>
<circle cx="564" cy="1430" r="8" class="c0"/>
<circle cx="802" cy="940" r="8" class="c0"/>
<circle cx="1268" cy="330" r="8" class="c0"/>
<circle cx="1902" cy="1094" r="8" class="c0"/>
<circle cx="290" cy="1310" r="8" class="c0"/>
<circle cx="612" cy="66" r="8" class="c0"/>
<circle cx="870" cy="1410" r="8" class="c0"/>
<circle cx="1286" cy="44" r="8" class="c0"/>
<circle cx="214" cy="1314" r="8" class="c0"/>
<circle cx="560" cy="1078" r="8" class="c0"/>
<circle cx="48" cy="796" r="8" class="c0"/>
<circle cx="1574" cy="516" r="8" class="c0"/>
<circle cx="806" cy="434" r="8" class="c0"/>
<circle cx="1286" cy="64" r="8" class="c0"/>
<circle cx="1898" cy="1060" r="8" class="c0"/>
<circle cx="274" cy="24" r="8" class="c0"/>
<circle cx="1286" cy="86" r="8" class="c0"/>
<circle cx="74" cy="854" r="8" class="c0"/>
<circle cx="666" cy="1314" r="8" class="c0"/>
<circle cx="1506" cy="1026" r="8" class="c0"/>
<circle cx="644" cy="1310" r="8" class="c0"/>
<circle cx="1690" cy="768" r="8" class="c0"/>
<circle cx="40" cy="780" r="8" class="c0"/>
<circle cx="754" cy="790" r="8" class="c0"/>
<circle cx="562" cy="1400" r="8" class="c0"/>
<circle cx="268" cy="1310" r="8" class="c0"/>
<circle cx="1496" cy="1074" r="8" class="c0"/>
<circle cx="782" cy="438" r="8" class="c0"/>
<circle cx="1892" cy="1128" r="8" class="c0"/>
<circle cx="1580" cy="1294" r="8" class="c0"/>
<circle cx="1510" cy="1000" r="8" class="c0"/>
<circle cx="444" cy="26" r="8" class="c0"/>
<circle cx="1454" cy="1194" r="8" class="c0"/>
<circle cx="1566" cy="1284" r="8" class="c0"/>
<circle cx="1700" cy="758" r="8" class="c0"/>
<circle cx="68" cy="896" r="8" class="c0"/>
<circle cx="534" cy="990" r="8" class="c0"/>
<circle cx="1274" cy="74" r="8" class="c0"/>
<circle cx="1506" cy="1134" r="8" class="c0"/>
<circle cx="266" cy="1274" r="8" class="c0"/>
<circle cx="8" cy="854" r="8" class="c0"/>
<circle cx="48" cy="900" r="8" class="c0"/>
<circle cx="810" cy="914" r="8" class="c0"/>
<circle cx="1630" cy="1284" r="8" class="c0"/>
<circle cx="526" cy="972" r="8" class="c0"/>
<circle cx="432" cy="58" r="8" class="c0"/>
<circle cx="1554" cy="940" r="8" class="c0"/>
<circle cx="872" cy="1380" r="8" class="c0"/>
<circle cx="228" cy="1302" r="8" class="c0"/>
<circle cx="1554" cy="526" r="8" class="c0"/>
<circle cx="262" cy="40" r="6" class="c0"/>
<circle cx="1214" cy="198" r="6" class="c0"/>
<circle cx="88" cy="844" r="6" class="c0"/>
<circle cx="500" cy="968" r="6" class="c0"/>
<circle cx="422" cy="70" r="6" class="c0"/>
<circle cx="750" cy="284" r="6" class="c0"/>
<circle cx="1490" cy="1090" r="6" class="c0"/>
<circle cx="574" cy="1412" r="6" class="c0"/>
<circle cx="1906" cy="1074" r="6" class="c0"/>
<circle cx="944" cy="824" r="6" class="c0"/>
<circle cx="770" cy="864" r="6" class="c0"/>
<circle cx="576" cy="1070" r="6" class="c0"/>
<circle cx="710" cy="784" r="6" class="c0"/>
<circle cx="1876" cy="1092" r="6" class="c0"/>
<circle cx="84" cy="864" r="6" class="c0"/>
<circle cx="68" cy="870" r="6" class="c0"/>
<circle cx="122" cy="442" r="6" class="c0"/>
<circle cx="462" cy="144" r="6" class="c0"/>
<circle cx="674" cy="90" r="6" class="c0"/>
<circle cx="672" cy="64" r="6" class="c0"/>
<circle cx="716" cy="800" r="6" class="c0"/>
<circle cx="604" cy="1314" r="6" class="c0"/>
<circle cx="942" cy="784" r="6" class="c0"/>
<circle cx="1244" cy="342" r="6" class="c0"/>
<circle cx="1610" cy="910" r="6" class="c0"/>
<circle cx="1200" cy="164" r="6" class="c0"/>
<circle cx="1016" cy="1144" r="6" class="c0"/>
<circle cx="1054" cy="1420" r="6" class="c0"/>
<circle cx="416" cy="418" r="6" class="c0"/>
<circle cx="160" cy="460" r="6" class="c0"/>
<circle cx="1502" cy="1200" r="6" class="c0"/>
<circle cx="1604" cy="1264" r="6" class="c0"/>
<circle cx="866" cy="1428" r="6" class="c0"/>
<circle cx="956" cy="858" r="6" class="c0"/>
<circle cx="942" cy="862" r="6" class="c0"/>
<circle cx="1680" cy="780" r="6" class="c0"/>
<circle cx="816" cy="896" r="6" class="c0"/>
<circle cx="846" cy="734" r="6" class="c0"/>
<circle cx="1726" cy="742" r="6" class="c0"/>
<circle cx="448" cy="44" r="6" class="c0"/>
<circle cx="346" cy="150" r="6" class="c0"/>
<circle cx="740" cy="806" r="6" class="c0"/>
<circle cx="38" cy="912" r="6" class="c0"/>
<circle cx="1292" cy="318" r="6" class="c0"/>
<circle cx="758" cy="870" r="6" class="c0"/>
<circle cx="304" cy="52" r="6" class="c0"/>
<circle cx="516" cy="1082" r="6" class="c0"/>
<circle cx="208" cy="904" r="6" class="c0"/>
</svg>
