<?xml version="1.0" encoding="utf-8"?>
<svg xmlns="http://www.w3.org/2000/svg"
     xmlns:xlink="http://www.w3.org/1999/xlink" width="1920" height="1440" >

            <defs>
            <style type="text/css"><![CDATA[
circle {stroke: none;}
.c0 {fill: #FFFFFF;}
]]></style>
            </defs>
<rect x="0" y="0" width="1920" height="1440" fill="black"/>
<circle cx="384" cy="18" r="12" class="c0"/>
<circle cx="680" cy="40" r="12" class="c0"/>
<circle cx="1274" cy="94" r="12" class="c0"/>
<circle cx="248" cy="1296" r="12" class="c0"/>
<circle cx="1904" cy="1084" r="12" class="c0"/>
<circle cx="240" cy="24" r="12" class="c0"/>
<circle cx="178" cy="884" r="12" class="c0"/>
<circle cx="1262" cy="122" r="12" class="c0"/>
<circle cx="736" cy="778" r="12" class="c0"/>
<circle cx="548" cy="1414" r="12" class="c0"/>
<circle cx="618" cy="1322" r="12" class="c0"/>
<circle cx="1580" cy="1298" r="12" class="c0"/>
<circle cx="1596" cy="906" r="10" class="c0"/>
<circle cx="760" cy="414" r="10" class="c0"/>
<circle cx="1474" cy="1184" r="10" class="c0"/>
<circle cx="230" cy="1308" r="10" class="c0"/>
<circle cx="906" cy="1378" r="10" class="c0"/>
<circle cx="412" cy="14" r="10" class="c0"/>
<circle cx="1256" cy="82" r="10" class="c0"/>
<circle cx="942" cy="820" r="10" class="c0"/>
<circle cx="272" cy="1298" r="10" class="c0"/>
<circle cx="790" cy="408" r="10" class="c0"/>
<circle cx="258" cy="44" r="10" class="c0"/>
<circle cx="18" cy="776" r="10" class="c0"/>
<circle cx="114" cy="438" r="10" class="c0"/>
<circle cx="258" cy="12" r="10" class="c0"/>
<circle cx="1608" cy="1288" r="10" class="c0"/>
<circle cx="438" cy="1022" r="10" class="c0"/>
<circle cx="556" cy="1052" r="10" class="c0"/>
<circle cx="1526" cy="1042" r="10" class="c0"/>
<circle cx="1618" cy="892" r="10" class="c0"/>
<circle cx="904" cy="1348" r="10" class="c0"/>
<circle cx="704" cy="772" r="10" class="c0"/>
<circle cx="102" cy="450" r="10" class="c0"/>
<circle cx="1510" cy="1192" r="10" class="c0"/>
<circle cx="1594" cy="1276" r="10" class="c0"/>
<circle cx="1712" cy="762" r="10" class="c0"/>
<circle cx="1910" cy="1116" r="8" class="c0"/>
<circle cx="1482" cy="1148" r="8" class="c0"/>
<circle cx="654" cy="50" r="8" class="c0"/>
<circle cx="1526" cy="1074" r="8" class="c0"/>
<circle cx="940" cy="786" r="8" class="c0"/>
<circle cx="1568" cy="1282" r="8" class="c0"/>
<circle cx="768" cy="244" r="8" class="c0"/>
<circle cx="200" cy="1314" r="8" class="c0"/>
<circle cx="1740" cy="740" r="8" class="c0"/>
<circle cx="1492" cy="1138" r="8" class="c0"/>
<circle cx="610" cy="28" r="8" class="c0"/>
<circle cx="1640" cy="1292" r="8" class="c0"/>
<circle cx="938" cy="844" r="8" class="c0"/>
<circle cx="292" cy="1302" r="8" class="c0"/>
<circle cx="1262" cy="302" r="8" class="c0"/>
<circle cx="946" cy="860" r="8" class="c0"/>
<circle cx="210" cy="1304" r="8" class="c0"/>
<circle cx="478" cy="990" r="8" class="c0"/>
<circle cx="740" cy="878" r="8" class="c0"/>
<circle cx="536" cy="1054" r="8" class="c0"/>
<circle cx="1240" cy="118" r="8" class="c0"/>
<circle cx="1530" cy="1016" r="8" class="c0"/>
<circle cx="740" cy="256" r="8" class="c0"/>
<circle cx="580" cy="34" r="8" class="c0"/>
<circle cx="1518" cy="1092" r="8" class="c0"/>
<circle cx="20" cy="860" r="8" class="c0"/>
<circle cx="1460" cy="1140" r="8" class="c0"/>
<circle cx="496" cy="996" r="8" class="c0"/>
<circle cx="468" cy="974" r="8" class="c0"/>
<circle cx="1514" cy="1148" r="8" class="c0"/>
<circle cx="238" cy="1276" r="8" class="c0"/>
<circle cx="272" cy="24" r="8" class="c0"/>
<circle cx="596" cy="1324" r="8" class="c0"/>
<circle cx="1244" cy="96" r="8" class="c0"/>
<circle cx="578" cy="1046" r="8" class="c0"/>
<circle cx="1282" cy="296" r="8" class="c0"/>
<circle cx="1540" cy="1006" r="8" class="c0"/>
<circle cx="20" cy="796" r="8" class="c0"/>
<circle cx="1726" cy="750" r="8" class="c0"/>
<circle cx="1486" cy="1198" r="8" class="c0"/>
<circle cx="260" cy="1316" r="8" class="c0"/>
<circle cx="1322" cy="24" r="8" class="c0"/>
<circle cx="220" cy="1326" r="8" class="c0"/>
<circle cx="410" cy="398" r="8" class="c0"/>
<circle cx="642" cy="1328" r="8" class="c0"/>
<circle cx="1622" cy="1300" r="8" class="c0"/>
<circle cx="1338" cy="14" r="8" class="c0"/>
<circle cx="1898" cy="1106" r="8" class="c0"/>
<circle cx="718" cy="790" r="8" class="c0"/>
<circle cx="1514" cy="1060" r="8" class="c0"/>
<circle cx="670" cy="58" r="8" class="c0"/>
<circle cx="88" cy="430" r="8" class="c0"/>
<circle cx="1600" cy="1308" r="8" class="c0"/>
<circle cx="242" cy="1320" r="8" class="c0"/>
<circle cx="894" cy="1364" r="8" class="c0"/>
<circle cx="894" cy="1392" r="8" class="c0"/>
<circle cx="728" cy="888" r="8" class="c0"/>
<circle cx="488" cy="980" r="8" class="c0"/>
<circle cx="1580" cy="918" r="8" class="c0"/>
<circle cx="180" cy="906" r="8" class="c0"/>
<circle cx="1634" cy="882" r="8" class="c0"/>
<circle cx="414" cy="130" r="6" class="c0"/>
<circle cx="282" cy="1312" r="6" class="c0"/>
<circle cx="1494" cy="1182" r="6" class="c0"/>
<circle cx="1048" cy="1432" r="6" class="c0"/>
<circle cx="1910" cy="1058" r="6" class="c0"/>
<circle cx="568" cy="44" r="6" class="c0"/>
<circle cx="1324" cy="6" r="6" class="c0"/>
<circle cx="400" cy="28" r="6" class="c0"/>
<circle cx="120" cy="458" r="6" class="c0"/>
<circle cx="436" cy="132" r="6" class="c0"/>
<circle cx="6" cy="874" r="6" class="c0"/>
<circle cx="938" cy="802" r="6" class="c0"/>
<circle cx="1540" cy="1030" r="6" class="c0"/>
<circle cx="1628" cy="1282" r="6" class="c0"/>
<circle cx="942" cy="770" r="6" class="c0"/>
<circle cx="788" cy="932" r="6" class="c0"/>
<circle cx="1572" cy="504" r="6" class="c0"/>
<circle cx="1912" cy="1136" r="6" class="c0"/>
<circle cx="428" cy="396" r="6" class="c0"/>
<circle cx="1544" cy="990" r="6" class="c0"/>
<circle cx="260" cy="1282" r="6" class="c0"/>
<circle cx="786" cy="948" r="6" class="c0"/>
<circle cx="1584" cy="498" r="6" class="c0"/>
<circle cx="798" cy="910" r="6" class="c0"/>
<circle cx="1498" cy="1156" r="6" class="c0"/>
<circle cx="750" cy="246" r="6" class="c0"/>
<circle cx="718" cy="898" r="6" class="c0"/>
<circle cx="772" cy="402" r="6" class="c0"/>
<circle cx="988" cy="1150" r="6" class="c0"/>
<circle cx="1694" cy="774" r="6" class="c0"/>
<circle cx="1534" cy="1060" r="6" class="c0"/>
<circle cx="1006" cy="1154" r="6" class="c0"/>
<circle cx="1290" cy="104" r="6" class="c0"/>
<circle cx="226" cy="1262" r="6" class="c0"/>
<circle cx="1558" cy="1292" r="6" class="c0"/>
<circle cx="776" cy="422" r="6" class="c0"/>
<circle cx="780" cy="234" r="6" class="c0"/>
<circle cx="836" cy="728" r="6" class="c0"/>
<circle cx="1900" cy="1126" r="6" class="c0"/>
<circle cx="1614" cy="910" r="6" class="c0"/>
<circle cx="1120" cy="994" r="6" class="c0"/>
<circle cx="456" cy="1030" r="6" class="c0"/>
<circle cx="228" cy="1290" r="6" class="c0"/>
<circle cx="556" cy="1432" r="6" class="c0"/>
</svg>
