<?xml version="1.0" encoding="utf-8"?>
<svg xmlns="http://www.w3.org/2000/svg"
     xmlns:xlink="http://www.w3.org/1999/xlink" width="1920" height="1440" >

            <defs>
            <style type="text/css"><![CDATA[
circle {stroke: none;}
.c0 {fill: #FFFFFF;}
]]></style>
            </defs>
<rect x="0" y="0" width="1920" height="1440" fill="black"/>
<circle cx="1718" cy="1078" r="12" class="c0"/>
<circle cx="262" cy="1350" r="12" class="c0"/>
<circle cx="1678" cy="1338" r="12" class="c0"/>
<circle cx="740" cy="772" r="12" class="c0"/>
<circle cx="336" cy="1324" r="12" class="c0"/>
<circle cx="166" cy="886" r="10" class="c0"/>
<circle cx="72" cy="432" r="10" class="c0"/>
<circle cx="1052" cy="1300" r="10" class="c0"/>
<circle cx="1640" cy="1344" r="10" class="c0"/>
<circle cx="1062" cy="798" r="10" class="c0"/>
<circle cx="1864" cy="770" r="10" class="c0"/>
<circle cx="1894" cy="756" r="10" class="c0"/>
<circle cx="1548" cy="1232" r="10" class="c0"/>
<circle cx="1750" cy="836" r="10" class="c0"/>
<circle cx="626" cy="1358" r="10" class="c0"/>
<circle cx="460" cy="994" r="10" class="c0"/>
<circle cx="290" cy="1330" r="10" class="c0"/>
<circle cx="314" cy="1342" r="10" class="c0"/>
<circle cx="1588" cy="1180" r="10" class="c0"/>
<circle cx="1524" cy="1232" r="10" class="c0"/>
<circle cx="658" cy="1356" r="10" class="c0"/>
<circle cx="720" cy="754" r="10" class="c0"/>
<circle cx="1496" cy="1216" r="10" class="c0"/>
<circle cx="1730" cy="1032" r="10" class="c0"/>
<circle cx="846" cy="932" r="10" class="c0"/>
<circle cx="1774" cy="816" r="10" class="c0"/>
<circle cx="772" cy="770" r="10" class="c0"/>
<circle cx="310" cy="1314" r="10" class="c0"/>
<circle cx="826" cy="362" r="10" class="c0"/>
<circle cx="286" cy="1352" r="10" class="c0"/>
<circle cx="1062" cy="1278" r="10" class="c0"/>
<circle cx="760" cy="756" r="10" class="c0"/>
<circle cx="1562" cy="1172" r="10" class="c0"/>
<circle cx="1652" cy="1332" r="10" class="c0"/>
<circle cx="1620" cy="1336" r="10" class="c0"/>
<circle cx="1150" cy="994" r="10" class="c0"/>
<circle cx="854" cy="902" r="10" class="c0"/>
<circle cx="1066" cy="774" r="10" class="c0"/>
<circle cx="80" cy="456" r="8" class="c0"/>
<circle cx="164" cy="866" r="8" class="c0"/>
<circle cx="50" cy="424" r="8" class="c0"/>
<circle cx="1058" cy="820" r="8" class="c0"/>
<circle cx="1724" cy="1056" r="8" class="c0"/>
<circle cx="802" cy="364" r="8" class="c0"/>
<circle cx="1706" cy="1050" r="8" class="c0"/>
<circle cx="476" cy="1004" r="8" class="c0"/>
<circle cx="780" cy="190" r="8" class="c0"/>
<circle cx="452" cy="1016" r="8" class="c0"/>
<circle cx="854" cy="714" r="8" class="c0"/>
<circle cx="1748" cy="1010" r="8" class="c0"/>
<circle cx="1048" cy="1266" r="8" class="c0"/>
<circle cx="1362" cy="220" r="8" class="c0"/>
<circle cx="1064" cy="1252" r="8" class="c0"/>
<circle cx="1694" cy="1076" r="8" class="c0"/>
<circle cx="554" cy="1416" r="8" class="c0"/>
<circle cx="1662" cy="1350" r="8" class="c0"/>
<circle cx="1730" cy="838" r="8" class="c0"/>
<circle cx="1702" cy="1342" r="8" class="c0"/>
<circle cx="1052" cy="848" r="8" class="c0"/>
<circle cx="1704" cy="1102" r="8" class="c0"/>
<circle cx="834" cy="958" r="8" class="c0"/>
<circle cx="266" cy="1326" r="8" class="c0"/>
<circle cx="1666" cy="1320" r="8" class="c0"/>
<circle cx="1048" cy="810" r="8" class="c0"/>
<circle cx="716" cy="914" r="8" class="c0"/>
<circle cx="1536" cy="1218" r="8" class="c0"/>
<circle cx="1510" cy="1204" r="8" class="c0"/>
<circle cx="708" cy="930" r="8" class="c0"/>
<circle cx="1376" cy="210" r="8" class="c0"/>
<circle cx="1842" cy="782" r="8" class="c0"/>
<circle cx="1636" cy="1322" r="8" class="c0"/>
<circle cx="1166" cy="1014" r="8" class="c0"/>
<circle cx="1352" cy="230" r="8" class="c0"/>
<circle cx="1710" cy="1028" r="8" class="c0"/>
<circle cx="1606" cy="1188" r="8" class="c0"/>
<circle cx="1048" cy="830" r="8" class="c0"/>
<circle cx="468" cy="1028" r="8" class="c0"/>
<circle cx="58" cy="444" r="8" class="c0"/>
<circle cx="1710" cy="1004" r="8" class="c0"/>
<circle cx="1030" cy="824" r="8" class="c0"/>
<circle cx="1038" cy="796" r="8" class="c0"/>
<circle cx="1076" cy="754" r="8" class="c0"/>
<circle cx="642" cy="1346" r="8" class="c0"/>
<circle cx="758" cy="782" r="8" class="c0"/>
<circle cx="306" cy="1360" r="6" class="c0"/>
<circle cx="642" cy="1368" r="6" class="c0"/>
<circle cx="1912" cy="758" r="6" class="c0"/>
<circle cx="1876" cy="754" r="6" class="c0"/>
<circle cx="814" cy="772" r="6" class="c0"/>
<circle cx="676" cy="982" r="6" class="c0"/>
<circle cx="740" cy="748" r="6" class="c0"/>
<circle cx="1692" cy="1326" r="6" class="c0"/>
<circle cx="1038" cy="860" r="6" class="c0"/>
<circle cx="550" cy="1432" r="6" class="c0"/>
<circle cx="1544" cy="1164" r="6" class="c0"/>
<circle cx="292" cy="1312" r="6" class="c0"/>
<circle cx="1692" cy="1352" r="6" class="c0"/>
<circle cx="1620" cy="508" r="6" class="c0"/>
<circle cx="644" cy="986" r="6" class="c0"/>
<circle cx="392" cy="120" r="6" class="c0"/>
<circle cx="864" cy="916" r="6" class="c0"/>
<circle cx="584" cy="1198" r="6" class="c0"/>
<circle cx="1882" cy="768" r="6" class="c0"/>
<circle cx="1754" cy="818" r="6" class="c0"/>
<circle cx="1718" cy="850" r="6" class="c0"/>
<circle cx="824" cy="1166" r="6" class="c0"/>
<circle cx="832" cy="942" r="6" class="c0"/>
<circle cx="658" cy="984" r="6" class="c0"/>
<circle cx="1520" cy="1214" r="6" class="c0"/>
<circle cx="796" cy="184" r="6" class="c0"/>
<circle cx="326" cy="1306" r="6" class="c0"/>
<circle cx="782" cy="362" r="6" class="c0"/>
<circle cx="1506" cy="1230" r="6" class="c0"/>
<circle cx="1732" cy="1014" r="6" class="c0"/>
<circle cx="726" cy="900" r="6" class="c0"/>
<circle cx="1636" cy="506" r="6" class="c0"/>
<circle cx="1050" cy="868" r="6" class="c0"/>
</svg>
