<?xml version="1.0" encoding="utf-8"?>
<svg xmlns="http://www.w3.org/2000/svg"
     xmlns:xlink="http://www.w3.org/1999/xlink" width="1920" height="1440" >

            <defs>
            <style type="text/css"><![CDATA[
circle {stroke: none;}
.c0 {fill: #FFFFFF;}
]]></style>
            </defs>
<rect x="0" y="0" width="1920" height="1440" fill="black"/>
<circle cx="788" cy="768" r="12" class="c0"/>
<circle cx="350" cy="1354" r="12" class="c0"/>
<circle cx="1686" cy="1362" r="12" class="c0"/>
<circle cx="1610" cy="1170" r="12" class="c0"/>
<circle cx="390" cy="1340" r="12" class="c0"/>
<circle cx="1812" cy="1072" r="12" class="c0"/>
<circle cx="1140" cy="828" r="12" class="c0"/>
<circle cx="1728" cy="1356" r="12" class="c0"/>
<circle cx="320" cy="1356" r="12" class="c0"/>
<circle cx="1566" cy="1270" r="10" class="c0"/>
<circle cx="1820" cy="808" r="10" class="c0"/>
<circle cx="682" cy="1370" r="10" class="c0"/>
<circle cx="908" cy="912" r="10" class="c0"/>
<circle cx="828" cy="354" r="10" class="c0"/>
<circle cx="1706" cy="1344" r="10" class="c0"/>
<circle cx="1824" cy="1040" r="10" class="c0"/>
<circle cx="1122" cy="798" r="10" class="c0"/>
<circle cx="1548" cy="1260" r="10" class="c0"/>
<circle cx="1146" cy="784" r="10" class="c0"/>
<circle cx="1522" cy="1254" r="10" class="c0"/>
<circle cx="882" cy="950" r="10" class="c0"/>
<circle cx="1124" cy="1254" r="10" class="c0"/>
<circle cx="1800" cy="816" r="10" class="c0"/>
<circle cx="1128" cy="854" r="10" class="c0"/>
<circle cx="336" cy="1372" r="10" class="c0"/>
<circle cx="68" cy="430" r="10" class="c0"/>
<circle cx="760" cy="770" r="10" class="c0"/>
<circle cx="180" cy="860" r="10" class="c0"/>
<circle cx="860" cy="354" r="10" class="c0"/>
<circle cx="374" cy="1326" r="10" class="c0"/>
<circle cx="1400" cy="214" r="10" class="c0"/>
<circle cx="1180" cy="1000" r="8" class="c0"/>
<circle cx="1798" cy="1100" r="8" class="c0"/>
<circle cx="1540" cy="1242" r="8" class="c0"/>
<circle cx="656" cy="1372" r="8" class="c0"/>
<circle cx="728" cy="922" r="8" class="c0"/>
<circle cx="712" cy="958" r="8" class="c0"/>
<circle cx="1148" cy="804" r="8" class="c0"/>
<circle cx="56" cy="418" r="8" class="c0"/>
<circle cx="346" cy="1332" r="8" class="c0"/>
<circle cx="1412" cy="202" r="8" class="c0"/>
<circle cx="1638" cy="1180" r="8" class="c0"/>
<circle cx="1708" cy="1366" r="8" class="c0"/>
<circle cx="1114" cy="1270" r="8" class="c0"/>
<circle cx="1658" cy="1352" r="8" class="c0"/>
<circle cx="810" cy="776" r="8" class="c0"/>
<circle cx="474" cy="990" r="8" class="c0"/>
<circle cx="1118" cy="1232" r="8" class="c0"/>
<circle cx="486" cy="1000" r="8" class="c0"/>
<circle cx="748" cy="752" r="8" class="c0"/>
<circle cx="772" cy="756" r="8" class="c0"/>
<circle cx="334" cy="1342" r="8" class="c0"/>
<circle cx="774" cy="782" r="8" class="c0"/>
<circle cx="900" cy="938" r="8" class="c0"/>
<circle cx="1834" cy="794" r="8" class="c0"/>
<circle cx="1686" cy="1338" r="8" class="c0"/>
<circle cx="1786" cy="1074" r="8" class="c0"/>
<circle cx="1840" cy="1028" r="8" class="c0"/>
<circle cx="1194" cy="1026" r="8" class="c0"/>
<circle cx="1102" cy="1250" r="8" class="c0"/>
<circle cx="182" cy="880" r="8" class="c0"/>
<circle cx="1422" cy="192" r="8" class="c0"/>
<circle cx="718" cy="938" r="8" class="c0"/>
<circle cx="572" cy="1426" r="8" class="c0"/>
<circle cx="1796" cy="1042" r="8" class="c0"/>
<circle cx="874" cy="708" r="8" class="c0"/>
<circle cx="806" cy="178" r="8" class="c0"/>
<circle cx="1632" cy="528" r="8" class="c0"/>
<circle cx="370" cy="1364" r="8" class="c0"/>
<circle cx="738" cy="912" r="8" class="c0"/>
<circle cx="1794" cy="1022" r="8" class="c0"/>
<circle cx="76" cy="448" r="8" class="c0"/>
<circle cx="1096" cy="1272" r="8" class="c0"/>
<circle cx="1504" cy="1238" r="8" class="c0"/>
<circle cx="1832" cy="1058" r="8" class="c0"/>
<circle cx="1162" cy="770" r="8" class="c0"/>
<circle cx="1668" cy="1340" r="8" class="c0"/>
<circle cx="886" cy="922" r="8" class="c0"/>
<circle cx="1100" cy="820" r="8" class="c0"/>
<circle cx="1774" cy="1088" r="8" class="c0"/>
<circle cx="566" cy="1408" r="8" class="c0"/>
<circle cx="1910" cy="798" r="8" class="c0"/>
<circle cx="666" cy="1360" r="8" class="c0"/>
<circle cx="1778" cy="826" r="8" class="c0"/>
<circle cx="842" cy="792" r="6" class="c0"/>
<circle cx="610" cy="1184" r="6" class="c0"/>
<circle cx="366" cy="1344" r="6" class="c0"/>
<circle cx="356" cy="1322" r="6" class="c0"/>
<circle cx="470" cy="1032" r="6" class="c0"/>
<circle cx="434" cy="348" r="6" class="c0"/>
<circle cx="698" cy="1380" r="6" class="c0"/>
<circle cx="696" cy="1360" r="6" class="c0"/>
<circle cx="356" cy="1376" r="6" class="c0"/>
<circle cx="1590" cy="1162" r="6" class="c0"/>
<circle cx="1562" cy="1250" r="6" class="c0"/>
<circle cx="1814" cy="1094" r="6" class="c0"/>
<circle cx="596" cy="1190" r="6" class="c0"/>
<circle cx="842" cy="344" r="6" class="c0"/>
<circle cx="796" cy="788" r="6" class="c0"/>
<circle cx="784" cy="184" r="6" class="c0"/>
<circle cx="298" cy="1356" r="6" class="c0"/>
<circle cx="308" cy="1370" r="6" class="c0"/>
<circle cx="838" cy="770" r="6" class="c0"/>
<circle cx="670" cy="1382" r="6" class="c0"/>
<circle cx="480" cy="1040" r="6" class="c0"/>
<circle cx="1126" cy="872" r="6" class="c0"/>
<circle cx="1010" cy="1184" r="6" class="c0"/>
<circle cx="390" cy="124" r="6" class="c0"/>
<circle cx="1766" cy="838" r="6" class="c0"/>
<circle cx="1524" cy="1236" r="6" class="c0"/>
<circle cx="810" cy="348" r="6" class="c0"/>
<circle cx="1532" cy="1270" r="6" class="c0"/>
<circle cx="86" cy="458" r="6" class="c0"/>
<circle cx="866" cy="960" r="6" class="c0"/>
<circle cx="1664" cy="1368" r="6" class="c0"/>
<circle cx="1698" cy="1376" r="6" class="c0"/>
<circle cx="1190" cy="1010" r="6" class="c0"/>
<circle cx="1808" cy="1052" r="6" class="c0"/>
<circle cx="1744" cy="1366" r="6" class="c0"/>
<circle cx="1642" cy="1350" r="6" class="c0"/>
</svg>
