<?xml version="1.0" encoding="utf-8"?>
<svg xmlns="http://www.w3.org/2000/svg"
     xmlns:xlink="http://www.w3.org/1999/xlink" width="1920" height="1440" >

            <defs>
            <style type="text/css"><![CDATA[
circle {stroke: none;}
.c0 {fill: #FFFFFF;}
]]></style>
            </defs>
<rect x="0" y="0" width="1920" height="1440" fill="black"/>
<circle cx="1574" cy="1296" r="12" class="c0"/>
<circle cx="744" cy="942" r="12" class="c0"/>
<circle cx="1762" cy="1368" r="12" class="c0"/>
<circle cx="1868" cy="794" r="12" class="c0"/>
<circle cx="828" cy="784" r="12" class="c0"/>
<circle cx="392" cy="1356" r="12" class="c0"/>
<circle cx="1728" cy="1374" r="12" class="c0"/>
<circle cx="948" cy="948" r="12" class="c0"/>
<circle cx="1906" cy="1090" r="12" class="c0"/>
<circle cx="448" cy="1350" r="12" class="c0"/>
<circle cx="430" cy="1382" r="12" class="c0"/>
<circle cx="1176" cy="1228" r="12" class="c0"/>
<circle cx="1540" cy="1286" r="12" class="c0"/>
<circle cx="1646" cy="1166" r="12" class="c0"/>
<circle cx="1696" cy="1372" r="12" class="c0"/>
<circle cx="1468" cy="190" r="12" class="c0"/>
<circle cx="732" cy="1378" r="10" class="c0"/>
<circle cx="1450" cy="208" r="10" class="c0"/>
<circle cx="92" cy="442" r="10" class="c0"/>
<circle cx="784" cy="772" r="10" class="c0"/>
<circle cx="394" cy="1386" r="10" class="c0"/>
<circle cx="884" cy="346" r="10" class="c0"/>
<circle cx="1896" cy="774" r="10" class="c0"/>
<circle cx="816" cy="764" r="10" class="c0"/>
<circle cx="412" cy="1370" r="10" class="c0"/>
<circle cx="492" cy="986" r="10" class="c0"/>
<circle cx="1896" cy="1114" r="10" class="c0"/>
<circle cx="862" cy="344" r="10" class="c0"/>
<circle cx="708" cy="1384" r="10" class="c0"/>
<circle cx="1744" cy="1390" r="10" class="c0"/>
<circle cx="956" cy="926" r="10" class="c0"/>
<circle cx="1846" cy="808" r="10" class="c0"/>
<circle cx="1228" cy="840" r="10" class="c0"/>
<circle cx="902" cy="708" r="10" class="c0"/>
<circle cx="210" cy="860" r="10" class="c0"/>
<circle cx="424" cy="1354" r="10" class="c0"/>
<circle cx="592" cy="1414" r="10" class="c0"/>
<circle cx="1590" cy="1310" r="10" class="c0"/>
<circle cx="798" cy="784" r="10" class="c0"/>
<circle cx="1222" cy="1016" r="10" class="c0"/>
<circle cx="1680" cy="1182" r="8" class="c0"/>
<circle cx="1712" cy="1360" r="8" class="c0"/>
<circle cx="1740" cy="1356" r="8" class="c0"/>
<circle cx="378" cy="1372" r="8" class="c0"/>
<circle cx="1870" cy="1100" r="8" class="c0"/>
<circle cx="866" cy="786" r="8" class="c0"/>
<circle cx="1248" cy="822" r="8" class="c0"/>
<circle cx="838" cy="170" r="8" class="c0"/>
<circle cx="1230" cy="866" r="8" class="c0"/>
<circle cx="66" cy="416" r="8" class="c0"/>
<circle cx="788" cy="946" r="8" class="c0"/>
<circle cx="512" cy="994" r="8" class="c0"/>
<circle cx="1256" cy="802" r="8" class="c0"/>
<circle cx="1268" cy="778" r="8" class="c0"/>
<circle cx="1174" cy="1256" r="8" class="c0"/>
<circle cx="412" cy="1394" r="8" class="c0"/>
<circle cx="78" cy="426" r="8" class="c0"/>
<circle cx="974" cy="916" r="8" class="c0"/>
<circle cx="1648" cy="554" r="8" class="c0"/>
<circle cx="642" cy="1168" r="8" class="c0"/>
<circle cx="796" cy="756" r="8" class="c0"/>
<circle cx="842" cy="342" r="8" class="c0"/>
<circle cx="934" cy="930" r="8" class="c0"/>
<circle cx="1216" cy="878" r="8" class="c0"/>
<circle cx="1902" cy="1052" r="8" class="c0"/>
<circle cx="1188" cy="1212" r="8" class="c0"/>
<circle cx="1714" cy="1388" r="8" class="c0"/>
<circle cx="408" cy="1342" r="8" class="c0"/>
<circle cx="1668" cy="1168" r="8" class="c0"/>
<circle cx="1628" cy="1156" r="8" class="c0"/>
<circle cx="1860" cy="1112" r="8" class="c0"/>
<circle cx="1160" cy="1246" r="8" class="c0"/>
<circle cx="1552" cy="1302" r="8" class="c0"/>
<circle cx="1240" cy="852" r="8" class="c0"/>
<circle cx="198" cy="872" r="8" class="c0"/>
<circle cx="1226" cy="798" r="8" class="c0"/>
<circle cx="8" cy="768" r="8" class="c0"/>
<circle cx="1234" cy="1042" r="8" class="c0"/>
<circle cx="1882" cy="1076" r="8" class="c0"/>
<circle cx="1562" cy="1278" r="8" class="c0"/>
<circle cx="730" cy="958" r="8" class="c0"/>
<circle cx="1780" cy="1380" r="8" class="c0"/>
<circle cx="450" cy="1372" r="8" class="c0"/>
<circle cx="216" cy="1334" r="6" class="c0"/>
<circle cx="744" cy="1394" r="6" class="c0"/>
<circle cx="1220" cy="894" r="6" class="c0"/>
<circle cx="596" cy="1432" r="6" class="c0"/>
<circle cx="726" cy="1398" r="6" class="c0"/>
<circle cx="848" cy="788" r="6" class="c0"/>
<circle cx="1216" cy="814" r="6" class="c0"/>
<circle cx="1910" cy="1066" r="6" class="c0"/>
<circle cx="202" cy="844" r="6" class="c0"/>
<circle cx="426" cy="1336" r="6" class="c0"/>
<circle cx="366" cy="1384" r="6" class="c0"/>
<circle cx="942" cy="968" r="6" class="c0"/>
<circle cx="1194" cy="858" r="6" class="c0"/>
<circle cx="1220" cy="856" r="6" class="c0"/>
<circle cx="1212" cy="848" r="6" class="c0"/>
<circle cx="1184" cy="1246" r="6" class="c0"/>
<circle cx="766" cy="946" r="6" class="c0"/>
<circle cx="1656" cy="1182" r="6" class="c0"/>
<circle cx="716" cy="1368" r="6" class="c0"/>
<circle cx="504" cy="1048" r="6" class="c0"/>
<circle cx="660" cy="1164" r="6" class="c0"/>
<circle cx="820" cy="174" r="6" class="c0"/>
<circle cx="68" cy="436" r="6" class="c0"/>
<circle cx="780" cy="754" r="6" class="c0"/>
<circle cx="408" cy="124" r="6" class="c0"/>
<circle cx="1830" cy="818" r="6" class="c0"/>
<circle cx="1878" cy="778" r="6" class="c0"/>
<circle cx="102" cy="460" r="6" class="c0"/>
<circle cx="754" cy="926" r="6" class="c0"/>
<circle cx="1214" cy="1000" r="6" class="c0"/>
<circle cx="522" cy="1056" r="6" class="c0"/>
<circle cx="1212" cy="906" r="6" class="c0"/>
<circle cx="840" cy="770" r="6" class="c0"/>
<circle cx="852" cy="1176" r="6" class="c0"/>
<circle cx="302" cy="6" r="6" class="c0"/>
<circle cx="1880" cy="1054" r="6" class="c0"/>
<circle cx="1198" cy="820" r="6" class="c0"/>
<circle cx="920" cy="958" r="6" class="c0"/>
<circle cx="1198" cy="838" r="6" class="c0"/>
<circle cx="816" cy="948" r="6" class="c0"/>
<circle cx="1158" cy="1262" r="6" class="c0"/>
</svg>
