<?xml version="1.0" encoding="utf-8"?>
<svg xmlns="http://www.w3.org/2000/svg"
     xmlns:xlink="http://www.w3.org/1999/xlink" width="1920" height="1440" >

            <defs>
            <style type="text/css"><![CDATA[
circle {stroke: none;}
.c0 {fill: #FFFFFF;}
]]></style>
            </defs>
<rect x="0" y="0" width="1920" height="1440" fill="black"/>
<circle cx="1618" cy="1368" r="12" class="c0"/>
<circle cx="148" cy="1284" r="12" class="c0"/>
<circle cx="64" cy="1328" r="12" class="c0"/>
<circle cx="1276" cy="1226" r="12" class="c0"/>
<circle cx="78" cy="1308" r="10" class="c0"/>
<circle cx="1756" cy="1168" r="10" class="c0"/>
<circle cx="904" cy="792" r="10" class="c0"/>
<circle cx="50" cy="1396" r="10" class="c0"/>
<circle cx="106" cy="1304" r="10" class="c0"/>
<circle cx="348" cy="12" r="10" class="c0"/>
<circle cx="600" cy="1382" r="10" class="c0"/>
<circle cx="658" cy="1426" r="10" class="c0"/>
<circle cx="10" cy="1376" r="10" class="c0"/>
<circle cx="1468" cy="892" r="10" class="c0"/>
<circle cx="568" cy="1384" r="10" class="c0"/>
<circle cx="594" cy="1410" r="10" class="c0"/>
<circle cx="838" cy="1420" r="10" class="c0"/>
<circle cx="1780" cy="1414" r="10" class="c0"/>
<circle cx="266" cy="838" r="10" class="c0"/>
<circle cx="44" cy="1362" r="10" class="c0"/>
<circle cx="1808" cy="1392" r="10" class="c0"/>
<circle cx="570" cy="1410" r="10" class="c0"/>
<circle cx="1596" cy="1358" r="10" class="c0"/>
<circle cx="72" cy="1280" r="10" class="c0"/>
<circle cx="552" cy="1422" r="10" class="c0"/>
<circle cx="1314" cy="1042" r="10" class="c0"/>
<circle cx="124" cy="1324" r="10" class="c0"/>
<circle cx="912" cy="812" r="10" class="c0"/>
<circle cx="1300" cy="1222" r="10" class="c0"/>
<circle cx="72" cy="1354" r="10" class="c0"/>
<circle cx="568" cy="992" r="10" class="c0"/>
<circle cx="130" cy="428" r="10" class="c0"/>
<circle cx="878" cy="784" r="10" class="c0"/>
<circle cx="22" cy="1308" r="10" class="c0"/>
<circle cx="98" cy="1326" r="10" class="c0"/>
<circle cx="84" cy="1372" r="10" class="c0"/>
<circle cx="824" cy="1408" r="10" class="c0"/>
<circle cx="58" cy="1302" r="8" class="c0"/>
<circle cx="1086" cy="966" r="8" class="c0"/>
<circle cx="788" cy="976" r="8" class="c0"/>
<circle cx="1094" cy="948" r="8" class="c0"/>
<circle cx="94" cy="1356" r="8" class="c0"/>
<circle cx="114" cy="1280" r="8" class="c0"/>
<circle cx="20" cy="1396" r="8" class="c0"/>
<circle cx="1824" cy="1420" r="8" class="c0"/>
<circle cx="1728" cy="1152" r="8" class="c0"/>
<circle cx="136" cy="460" r="8" class="c0"/>
<circle cx="1494" cy="866" r="8" class="c0"/>
<circle cx="1458" cy="920" r="8" class="c0"/>
<circle cx="10" cy="1346" r="8" class="c0"/>
<circle cx="1548" cy="196" r="8" class="c0"/>
<circle cx="84" cy="1340" r="8" class="c0"/>
<circle cx="1632" cy="1388" r="8" class="c0"/>
<circle cx="36" cy="1340" r="8" class="c0"/>
<circle cx="126" cy="1290" r="8" class="c0"/>
<circle cx="840" cy="1396" r="8" class="c0"/>
<circle cx="30" cy="1378" r="8" class="c0"/>
<circle cx="94" cy="1290" r="8" class="c0"/>
<circle cx="1570" cy="196" r="8" class="c0"/>
<circle cx="554" cy="1398" r="8" class="c0"/>
<circle cx="14" cy="1326" r="8" class="c0"/>
<circle cx="620" cy="1398" r="8" class="c0"/>
<circle cx="26" cy="1354" r="8" class="c0"/>
<circle cx="936" cy="340" r="8" class="c0"/>
<circle cx="1840" cy="1406" r="8" class="c0"/>
<circle cx="968" cy="728" r="8" class="c0"/>
<circle cx="382" cy="26" r="8" class="c0"/>
<circle cx="1450" cy="936" r="8" class="c0"/>
<circle cx="1802" cy="1414" r="8" class="c0"/>
<circle cx="1484" cy="878" r="8" class="c0"/>
<circle cx="1296" cy="1196" r="8" class="c0"/>
<circle cx="32" cy="774" r="8" class="c0"/>
<circle cx="92" cy="1272" r="8" class="c0"/>
<circle cx="546" cy="984" r="8" class="c0"/>
<circle cx="114" cy="1348" r="8" class="c0"/>
<circle cx="952" cy="918" r="8" class="c0"/>
<circle cx="970" cy="920" r="8" class="c0"/>
<circle cx="1646" cy="1378" r="8" class="c0"/>
<circle cx="1506" cy="846" r="8" class="c0"/>
<circle cx="1112" cy="932" r="8" class="c0"/>
<circle cx="44" cy="1284" r="8" class="c0"/>
<circle cx="890" cy="804" r="8" class="c0"/>
<circle cx="572" cy="1430" r="8" class="c0"/>
<circle cx="60" cy="1374" r="8" class="c0"/>
<circle cx="370" cy="12" r="8" class="c0"/>
<circle cx="652" cy="1406" r="8" class="c0"/>
<circle cx="850" cy="1406" r="8" class="c0"/>
<circle cx="48" cy="1314" r="8" class="c0"/>
<circle cx="954" cy="344" r="8" class="c0"/>
<circle cx="796" cy="960" r="8" class="c0"/>
<circle cx="104" cy="1252" r="8" class="c0"/>
<circle cx="140" cy="1308" r="8" class="c0"/>
<circle cx="896" cy="774" r="8" class="c0"/>
<circle cx="142" cy="444" r="6" class="c0"/>
<circle cx="926" cy="794" r="6" class="c0"/>
<circle cx="1638" cy="1360" r="6" class="c0"/>
<circle cx="912" cy="338" r="6" class="c0"/>
<circle cx="1588" cy="1342" r="6" class="c0"/>
<circle cx="1678" cy="622" r="6" class="c0"/>
<circle cx="1712" cy="1146" r="6" class="c0"/>
<circle cx="126" cy="450" r="6" class="c0"/>
<circle cx="622" cy="1382" r="6" class="c0"/>
<circle cx="1614" cy="1348" r="6" class="c0"/>
<circle cx="920" cy="782" r="6" class="c0"/>
<circle cx="1790" cy="1400" r="6" class="c0"/>
<circle cx="34" cy="1294" r="6" class="c0"/>
<circle cx="892" cy="168" r="6" class="c0"/>
<circle cx="1758" cy="1406" r="6" class="c0"/>
<circle cx="934" cy="920" r="6" class="c0"/>
<circle cx="1322" cy="1072" r="6" class="c0"/>
<circle cx="1414" cy="898" r="6" class="c0"/>
<circle cx="1810" cy="1432" r="6" class="c0"/>
<circle cx="118" cy="440" r="6" class="c0"/>
<circle cx="1580" cy="182" r="6" class="c0"/>
<circle cx="718" cy="1138" r="6" class="c0"/>
<circle cx="936" cy="816" r="6" class="c0"/>
<circle cx="1560" cy="212" r="6" class="c0"/>
<circle cx="1822" cy="1402" r="6" class="c0"/>
<circle cx="590" cy="1430" r="6" class="c0"/>
<circle cx="906" cy="170" r="6" class="c0"/>
<circle cx="268" cy="856" r="6" class="c0"/>
<circle cx="586" cy="1392" r="6" class="c0"/>
<circle cx="1738" cy="1162" r="6" class="c0"/>
<circle cx="10" cy="1406" r="6" class="c0"/>
<circle cx="1782" cy="1390" r="6" class="c0"/>
<circle cx="598" cy="1072" r="6" class="c0"/>
<circle cx="1442" cy="876" r="6" class="c0"/>
<circle cx="72" cy="1388" r="6" class="c0"/>
<circle cx="732" cy="1136" r="6" class="c0"/>
<circle cx="1856" cy="1414" r="6" class="c0"/>
<circle cx="1438" cy="952" r="6" class="c0"/>
<circle cx="366" cy="28" r="6" class="c0"/>
<circle cx="1770" cy="1178" r="6" class="c0"/>
<circle cx="278" cy="826" r="6" class="c0"/>
<circle cx="1792" cy="1426" r="6" class="c0"/>
<circle cx="1450" cy="866" r="6" class="c0"/>
<circle cx="130" cy="1270" r="6" class="c0"/>
<circle cx="534" cy="1420" r="6" class="c0"/>
<circle cx="1472" cy="910" r="6" class="c0"/>
<circle cx="34" cy="1324" r="6" class="c0"/>
<circle cx="52" cy="1346" r="6" class="c0"/>
<circle cx="1426" cy="872" r="6" class="c0"/>
</svg>
