<?xml version="1.0" encoding="utf-8"?>
<svg xmlns="http://www.w3.org/2000/svg"
     xmlns:xlink="http://www.w3.org/1999/xlink" width="1920" height="1440" >

            <defs>
            <style type="text/css"><![CDATA[
circle {stroke: none;}
.c0 {fill: #FFFFFF;}
]]></style>
            </defs>
<rect x="0" y="0" width="1920" height="1440" fill="black"/>
<circle cx="1016" cy="826" r="12" class="c0"/>
<circle cx="206" cy="444" r="12" class="c0"/>
<circle cx="1722" cy="956" r="12" class="c0"/>
<circle cx="14" cy="568" r="12" class="c0"/>
<circle cx="996" cy="814" r="12" class="c0"/>
<circle cx="386" cy="1416" r="12" class="c0"/>
<circle cx="1660" cy="958" r="12" class="c0"/>
<circle cx="732" cy="1398" r="12" class="c0"/>
<circle cx="1016" cy="350" r="10" class="c0"/>
<circle cx="1710" cy="688" r="10" class="c0"/>
<circle cx="798" cy="1410" r="10" class="c0"/>
<circle cx="28" cy="898" r="10" class="c0"/>
<circle cx="1680" cy="212" r="10" class="c0"/>
<circle cx="14" cy="878" r="10" class="c0"/>
<circle cx="1756" cy="922" r="10" class="c0"/>
<circle cx="352" cy="824" r="10" class="c0"/>
<circle cx="28" cy="616" r="10" class="c0"/>
<circle cx="1694" cy="996" r="10" class="c0"/>
<circle cx="10" cy="640" r="10" class="c0"/>
<circle cx="626" cy="982" r="10" class="c0"/>
<circle cx="810" cy="1428" r="10" class="c0"/>
<circle cx="1390" cy="1210" r="10" class="c0"/>
<circle cx="1696" cy="1428" r="10" class="c0"/>
<circle cx="26" cy="656" r="10" class="c0"/>
<circle cx="1258" cy="960" r="10" class="c0"/>
<circle cx="1768" cy="910" r="10" class="c0"/>
<circle cx="948" cy="1426" r="10" class="c0"/>
<circle cx="448" cy="60" r="10" class="c0"/>
<circle cx="1686" cy="1410" r="10" class="c0"/>
<circle cx="986" cy="794" r="10" class="c0"/>
<circle cx="1228" cy="970" r="10" class="c0"/>
<circle cx="356" cy="1422" r="10" class="c0"/>
<circle cx="286" cy="1428" r="10" class="c0"/>
<circle cx="26" cy="858" r="8" class="c0"/>
<circle cx="800" cy="1114" r="8" class="c0"/>
<circle cx="324" cy="1414" r="8" class="c0"/>
<circle cx="724" cy="1422" r="8" class="c0"/>
<circle cx="614" cy="970" r="8" class="c0"/>
<circle cx="1050" cy="734" r="8" class="c0"/>
<circle cx="1882" cy="1424" r="8" class="c0"/>
<circle cx="1706" cy="980" r="8" class="c0"/>
<circle cx="1742" cy="936" r="8" class="c0"/>
<circle cx="12" cy="606" r="8" class="c0"/>
<circle cx="24" cy="586" r="8" class="c0"/>
<circle cx="40" cy="604" r="8" class="c0"/>
<circle cx="10" cy="908" r="8" class="c0"/>
<circle cx="1386" cy="1236" r="8" class="c0"/>
<circle cx="760" cy="1430" r="8" class="c0"/>
<circle cx="1124" cy="900" r="8" class="c0"/>
<circle cx="1674" cy="1424" r="8" class="c0"/>
<circle cx="1852" cy="1168" r="8" class="c0"/>
<circle cx="14" cy="682" r="8" class="c0"/>
<circle cx="1824" cy="1158" r="8" class="c0"/>
<circle cx="470" cy="68" r="8" class="c0"/>
<circle cx="216" cy="466" r="8" class="c0"/>
<circle cx="1850" cy="1430" r="8" class="c0"/>
<circle cx="860" cy="994" r="8" class="c0"/>
<circle cx="344" cy="1402" r="8" class="c0"/>
<circle cx="1660" cy="204" r="8" class="c0"/>
<circle cx="1806" cy="1148" r="8" class="c0"/>
<circle cx="776" cy="1410" r="8" class="c0"/>
<circle cx="1416" cy="1080" r="8" class="c0"/>
<circle cx="274" cy="1414" r="8" class="c0"/>
<circle cx="970" cy="1430" r="8" class="c0"/>
<circle cx="998" cy="340" r="8" class="c0"/>
<circle cx="1156" cy="902" r="8" class="c0"/>
<circle cx="780" cy="1430" r="8" class="c0"/>
<circle cx="858" cy="974" r="8" class="c0"/>
<circle cx="1664" cy="1414" r="8" class="c0"/>
<circle cx="38" cy="882" r="8" class="c0"/>
<circle cx="426" cy="52" r="8" class="c0"/>
<circle cx="1410" cy="1058" r="8" class="c0"/>
<circle cx="1716" cy="906" r="8" class="c0"/>
<circle cx="1908" cy="1430" r="8" class="c0"/>
<circle cx="1010" cy="800" r="8" class="c0"/>
<circle cx="12" cy="546" r="8" class="c0"/>
<circle cx="1030" cy="842" r="8" class="c0"/>
<circle cx="14" cy="848" r="8" class="c0"/>
<circle cx="308" cy="1428" r="8" class="c0"/>
<circle cx="324" cy="1390" r="8" class="c0"/>
<circle cx="198" cy="424" r="8" class="c0"/>
<circle cx="1256" cy="938" r="8" class="c0"/>
<circle cx="332" cy="836" r="8" class="c0"/>
<circle cx="1694" cy="964" r="8" class="c0"/>
<circle cx="1842" cy="1156" r="8" class="c0"/>
<circle cx="1250" cy="976" r="6" class="c0"/>
<circle cx="972" cy="812" r="6" class="c0"/>
<circle cx="1676" cy="1018" r="6" class="c0"/>
<circle cx="1140" cy="898" r="6" class="c0"/>
<circle cx="6" cy="588" r="6" class="c0"/>
<circle cx="1374" cy="1224" r="6" class="c0"/>
<circle cx="816" cy="1106" r="6" class="c0"/>
<circle cx="1036" cy="352" r="6" class="c0"/>
<circle cx="338" cy="1428" r="6" class="c0"/>
<circle cx="1868" cy="1432" r="6" class="c0"/>
<circle cx="700" cy="1078" r="6" class="c0"/>
<circle cx="1108" cy="902" r="6" class="c0"/>
<circle cx="1420" cy="1096" r="6" class="c0"/>
<circle cx="372" cy="1432" r="6" class="c0"/>
<circle cx="982" cy="826" r="6" class="c0"/>
<circle cx="1700" cy="926" r="6" class="c0"/>
<circle cx="484" cy="78" r="6" class="c0"/>
<circle cx="1272" cy="946" r="6" class="c0"/>
<circle cx="86" cy="786" r="6" class="c0"/>
<circle cx="348" cy="806" r="6" class="c0"/>
<circle cx="1654" cy="1404" r="6" class="c0"/>
<circle cx="6" cy="658" r="6" class="c0"/>
<circle cx="992" cy="172" r="6" class="c0"/>
<circle cx="1040" cy="746" r="6" class="c0"/>
<circle cx="992" cy="834" r="6" class="c0"/>
<circle cx="968" cy="786" r="6" class="c0"/>
<circle cx="1664" cy="220" r="6" class="c0"/>
<circle cx="1662" cy="978" r="6" class="c0"/>
<circle cx="1718" cy="922" r="6" class="c0"/>
<circle cx="1714" cy="1430" r="6" class="c0"/>
<circle cx="1678" cy="972" r="6" class="c0"/>
<circle cx="640" cy="992" r="6" class="c0"/>
<circle cx="8" cy="622" r="6" class="c0"/>
<circle cx="364" cy="1406" r="6" class="c0"/>
<circle cx="1864" cy="1418" r="6" class="c0"/>
<circle cx="390" cy="98" r="6" class="c0"/>
<circle cx="1240" cy="956" r="6" class="c0"/>
<circle cx="972" cy="172" r="6" class="c0"/>
<circle cx="714" cy="1084" r="6" class="c0"/>
<circle cx="1004" cy="840" r="6" class="c0"/>
<circle cx="42" cy="588" r="6" class="c0"/>
<circle cx="406" cy="86" r="6" class="c0"/>
<circle cx="6" cy="862" r="6" class="c0"/>
<circle cx="1406" cy="1094" r="6" class="c0"/>
<circle cx="290" cy="1396" r="6" class="c0"/>
<circle cx="30" cy="636" r="6" class="c0"/>
</svg>
