<?xml version="1.0" encoding="utf-8"?>
<svg xmlns="http://www.w3.org/2000/svg"
     xmlns:xlink="http://www.w3.org/1999/xlink" width="1920" height="1440" >

            <defs>
            <style type="text/css"><![CDATA[
circle {stroke: none;}
.c0 {fill: #FFFFFF;}
]]></style>
            </defs>
<rect x="0" y="0" width="1920" height="1440" fill="black"/>
<circle cx="16" cy="816" r="12" class="c0"/>
<circle cx="24" cy="782" r="12" class="c0"/>
<circle cx="40" cy="1022" r="12" class="c0"/>
<circle cx="18" cy="912" r="12" class="c0"/>
<circle cx="70" cy="886" r="12" class="c0"/>
<circle cx="64" cy="1048" r="12" class="c0"/>
<circle cx="38" cy="578" r="12" class="c0"/>
<circle cx="42" cy="516" r="12" class="c0"/>
<circle cx="134" cy="584" r="12" class="c0"/>
<circle cx="96" cy="498" r="12" class="c0"/>
<circle cx="24" cy="552" r="12" class="c0"/>
<circle cx="144" cy="636" r="12" class="c0"/>
<circle cx="46" cy="728" r="12" class="c0"/>
<circle cx="216" cy="1314" r="12" class="c0"/>
<circle cx="56" cy="612" r="12" class="c0"/>
<circle cx="44" cy="888" r="12" class="c0"/>
<circle cx="88" cy="676" r="12" class="c0"/>
<circle cx="38" cy="1284" r="12" class="c0"/>
<circle cx="44" cy="640" r="12" class="c0"/>
<circle cx="124" cy="864" r="12" class="c0"/>
<circle cx="102" cy="652" r="12" class="c0"/>
<circle cx="28" cy="940" r="12" class="c0"/>
<circle cx="78" cy="1138" r="12" class="c0"/>
<circle cx="136" cy="612" r="12" class="c0"/>
<circle cx="28" cy="688" r="10" class="c0"/>
<circle cx="120" cy="832" r="10" class="c0"/>
<circle cx="26" cy="1230" r="10" class="c0"/>
<circle cx="36" cy="1082" r="10" class="c0"/>
<circle cx="34" cy="1048" r="10" class="c0"/>
<circle cx="66" cy="714" r="10" class="c0"/>
<circle cx="972" cy="998" r="10" class="c0"/>
<circle cx="28" cy="1166" r="10" class="c0"/>
<circle cx="36" cy="1206" r="10" class="c0"/>
<circle cx="34" cy="840" r="10" class="c0"/>
<circle cx="54" cy="1142" r="10" class="c0"/>
<circle cx="14" cy="716" r="10" class="c0"/>
<circle cx="64" cy="786" r="10" class="c0"/>
<circle cx="84" cy="536" r="10" class="c0"/>
<circle cx="128" cy="528" r="10" class="c0"/>
<circle cx="14" cy="972" r="10" class="c0"/>
<circle cx="38" cy="1362" r="10" class="c0"/>
<circle cx="1824" cy="236" r="10" class="c0"/>
<circle cx="12" cy="1136" r="10" class="c0"/>
<circle cx="90" cy="560" r="10" class="c0"/>
<circle cx="328" cy="434" r="10" class="c0"/>
<circle cx="46" cy="664" r="10" class="c0"/>
<circle cx="84" cy="634" r="10" class="c0"/>
<circle cx="56" cy="988" r="10" class="c0"/>
<circle cx="24" cy="1116" r="10" class="c0"/>
<circle cx="68" cy="1160" r="10" class="c0"/>
<circle cx="106" cy="590" r="10" class="c0"/>
<circle cx="474" cy="792" r="10" class="c0"/>
<circle cx="84" cy="584" r="10" class="c0"/>
<circle cx="24" cy="608" r="10" class="c0"/>
<circle cx="54" cy="852" r="10" class="c0"/>
<circle cx="64" cy="508" r="10" class="c0"/>
<circle cx="60" cy="1010" r="10" class="c0"/>
<circle cx="108" cy="714" r="10" class="c0"/>
<circle cx="120" cy="640" r="10" class="c0"/>
<circle cx="118" cy="678" r="10" class="c0"/>
<circle cx="38" cy="488" r="10" class="c0"/>
<circle cx="12" cy="572" r="10" class="c0"/>
<circle cx="148" cy="538" r="10" class="c0"/>
<circle cx="58" cy="1220" r="10" class="c0"/>
<circle cx="12" cy="510" r="10" class="c0"/>
<circle cx="88" cy="910" r="10" class="c0"/>
<circle cx="34" cy="754" r="10" class="c0"/>
<circle cx="28" cy="996" r="10" class="c0"/>
<circle cx="112" cy="616" r="10" class="c0"/>
<circle cx="64" cy="1094" r="10" class="c0"/>
<circle cx="66" cy="1198" r="10" class="c0"/>
<circle cx="146" cy="848" r="10" class="c0"/>
<circle cx="64" cy="678" r="10" class="c0"/>
<circle cx="746" cy="954" r="10" class="c0"/>
<circle cx="10" cy="1184" r="10" class="c0"/>
<circle cx="1388" cy="882" r="10" class="c0"/>
<circle cx="12" cy="622" r="10" class="c0"/>
<circle cx="128" cy="558" r="10" class="c0"/>
<circle cx="56" cy="540" r="10" class="c0"/>
<circle cx="116" cy="542" r="10" class="c0"/>
<circle cx="46" cy="1176" r="10" class="c0"/>
<circle cx="1150" cy="850" r="10" class="c0"/>
<circle cx="66" cy="918" r="10" class="c0"/>
<circle cx="18" cy="880" r="10" class="c0"/>
<circle cx="1172" cy="874" r="10" class="c0"/>
<circle cx="44" cy="1390" r="10" class="c0"/>
<circle cx="242" cy="1342" r="10" class="c0"/>
<circle cx="10" cy="1284" r="10" class="c0"/>
<circle cx="88" cy="704" r="10" class="c0"/>
<circle cx="66" cy="752" r="10" class="c0"/>
<circle cx="228" cy="1292" r="8" class="c0"/>
<circle cx="924" cy="1064" r="8" class="c0"/>
<circle cx="120" cy="510" r="8" class="c0"/>
<circle cx="100" cy="740" r="8" class="c0"/>
<circle cx="72" cy="1290" r="8" class="c0"/>
<circle cx="8" cy="662" r="8" class="c0"/>
<circle cx="62" cy="1276" r="8" class="c0"/>
<circle cx="1132" cy="832" r="8" class="c0"/>
<circle cx="1126" cy="850" r="8" class="c0"/>
<circle cx="32" cy="962" r="8" class="c0"/>
<circle cx="752" cy="8" r="8" class="c0"/>
<circle cx="44" cy="1324" r="8" class="c0"/>
<circle cx="148" cy="570" r="8" class="c0"/>
<circle cx="76" cy="488" r="8" class="c0"/>
<circle cx="160" cy="584" r="8" class="c0"/>
<circle cx="34" cy="1420" r="8" class="c0"/>
<circle cx="92" cy="888" r="8" class="c0"/>
<circle cx="42" cy="1242" r="8" class="c0"/>
<circle cx="1478" cy="1274" r="8" class="c0"/>
<circle cx="10" cy="1102" r="8" class="c0"/>
<circle cx="14" cy="490" r="8" class="c0"/>
<circle cx="16" cy="1078" r="8" class="c0"/>
<circle cx="54" cy="1066" r="8" class="c0"/>
<circle cx="1764" cy="772" r="8" class="c0"/>
<circle cx="128" cy="490" r="8" class="c0"/>
<circle cx="24" cy="1258" r="8" class="c0"/>
<circle cx="830" cy="1394" r="8" class="c0"/>
<circle cx="12" cy="1028" r="8" class="c0"/>
<circle cx="46" cy="810" r="8" class="c0"/>
<circle cx="64" cy="1306" r="8" class="c0"/>
<circle cx="66" cy="650" r="8" class="c0"/>
<circle cx="102" cy="526" r="8" class="c0"/>
<circle cx="26" cy="862" r="8" class="c0"/>
<circle cx="68" cy="1254" r="8" class="c0"/>
<circle cx="242" cy="1306" r="8" class="c0"/>
<circle cx="20" cy="646" r="8" class="c0"/>
<circle cx="50" cy="764" r="8" class="c0"/>
<circle cx="38" cy="980" r="8" class="c0"/>
<circle cx="1466" cy="978" r="8" class="c0"/>
<circle cx="16" cy="1010" r="8" class="c0"/>
<circle cx="80" cy="1174" r="8" class="c0"/>
<circle cx="70" cy="572" r="8" class="c0"/>
<circle cx="80" cy="736" r="8" class="c0"/>
<circle cx="76" cy="1108" r="8" class="c0"/>
<circle cx="8" cy="738" r="8" class="c0"/>
<circle cx="50" cy="1346" r="8" class="c0"/>
<circle cx="42" cy="792" r="8" class="c0"/>
<circle cx="12" cy="838" r="8" class="c0"/>
<circle cx="126" cy="696" r="8" class="c0"/>
<circle cx="36" cy="706" r="8" class="c0"/>
<circle cx="78" cy="610" r="8" class="c0"/>
<circle cx="56" cy="480" r="8" class="c0"/>
<circle cx="12" cy="596" r="8" class="c0"/>
<circle cx="58" cy="964" r="8" class="c0"/>
<circle cx="1484" cy="1246" r="8" class="c0"/>
<circle cx="128" cy="894" r="8" class="c0"/>
<circle cx="1814" cy="258" r="8" class="c0"/>
<circle cx="1106" cy="346" r="8" class="c0"/>
<circle cx="26" cy="474" r="8" class="c0"/>
<circle cx="1360" cy="874" r="8" class="c0"/>
<circle cx="48" cy="1118" r="8" class="c0"/>
<circle cx="10" cy="1246" r="8" class="c0"/>
<circle cx="80" cy="1272" r="8" class="c0"/>
<circle cx="8" cy="1160" r="8" class="c0"/>
<circle cx="78" cy="1212" r="8" class="c0"/>
<circle cx="8" cy="758" r="8" class="c0"/>
<circle cx="68" cy="1332" r="8" class="c0"/>
<circle cx="134" cy="656" r="8" class="c0"/>
<circle cx="10" cy="680" r="8" class="c0"/>
<circle cx="186" cy="1322" r="8" class="c0"/>
<circle cx="60" cy="588" r="8" class="c0"/>
<circle cx="1128" cy="362" r="8" class="c0"/>
<circle cx="338" cy="464" r="8" class="c0"/>
<circle cx="54" cy="562" r="8" class="c0"/>
<circle cx="70" cy="1234" r="8" class="c0"/>
<circle cx="160" cy="622" r="8" class="c0"/>
<circle cx="1116" cy="1430" r="8" class="c0"/>
<circle cx="1074" cy="824" r="8" class="c0"/>
<circle cx="1804" cy="242" r="8" class="c0"/>
<circle cx="1782" cy="776" r="8" class="c0"/>
<circle cx="42" cy="1154" r="8" class="c0"/>
<circle cx="158" cy="554" r="8" class="c0"/>
<circle cx="8" cy="932" r="8" class="c0"/>
<circle cx="1550" cy="1088" r="8" class="c0"/>
<circle cx="64" cy="814" r="8" class="c0"/>
<circle cx="48" cy="954" r="8" class="c0"/>
<circle cx="840" cy="1376" r="8" class="c0"/>
<circle cx="110" cy="880" r="8" class="c0"/>
<circle cx="54" cy="698" r="8" class="c0"/>
<circle cx="138" cy="512" r="8" class="c0"/>
<circle cx="142" cy="874" r="8" class="c0"/>
<circle cx="76" cy="1082" r="8" class="c0"/>
<circle cx="1098" cy="1426" r="8" class="c0"/>
<circle cx="594" cy="148" r="8" class="c0"/>
<circle cx="44" cy="1260" r="8" class="c0"/>
<circle cx="80" cy="1012" r="8" class="c0"/>
<circle cx="110" cy="566" r="8" class="c0"/>
<circle cx="1488" cy="1264" r="8" class="c0"/>
<circle cx="8" cy="1046" r="8" class="c0"/>
<circle cx="1150" cy="826" r="8" class="c0"/>
<circle cx="58" cy="1364" r="8" class="c0"/>
<circle cx="348" cy="454" r="8" class="c0"/>
<circle cx="36" cy="1104" r="8" class="c0"/>
<circle cx="26" cy="736" r="8" class="c0"/>
<circle cx="54" cy="936" r="8" class="c0"/>
<circle cx="50" cy="830" r="8" class="c0"/>
<circle cx="86" cy="1068" r="8" class="c0"/>
<circle cx="194" cy="1342" r="8" class="c0"/>
<circle cx="156" cy="604" r="8" class="c0"/>
<circle cx="14" cy="1218" r="8" class="c0"/>
<circle cx="194" cy="1304" r="8" class="c0"/>
<circle cx="86" cy="516" r="8" class="c0"/>
<circle cx="20" cy="1060" r="8" class="c0"/>
<circle cx="44" cy="920" r="8" class="c0"/>
<circle cx="1410" cy="882" r="8" class="c0"/>
<circle cx="8" cy="534" r="8" class="c0"/>
<circle cx="1470" cy="1256" r="8" class="c0"/>
<circle cx="68" cy="552" r="8" class="c0"/>
<circle cx="106" cy="692" r="8" class="c0"/>
<circle cx="1148" cy="766" r="8" class="c0"/>
<circle cx="1170" cy="852" r="8" class="c0"/>
<circle cx="24" cy="1298" r="8" class="c0"/>
<circle cx="8" cy="856" r="8" class="c0"/>
<circle cx="884" cy="1080" r="8" class="c0"/>
<circle cx="78" cy="1032" r="8" class="c0"/>
<circle cx="1134" cy="866" r="8" class="c0"/>
<circle cx="124" cy="726" r="8" class="c0"/>
<circle cx="1552" cy="1112" r="8" class="c0"/>
<circle cx="34" cy="1132" r="8" class="c0"/>
<circle cx="616" cy="154" r="8" class="c0"/>
<circle cx="30" cy="1186" r="8" class="c0"/>
<circle cx="322" cy="454" r="8" class="c0"/>
<circle cx="28" cy="530" r="8" class="c0"/>
<circle cx="26" cy="668" r="8" class="c0"/>
<circle cx="154" cy="654" r="8" class="c0"/>
<circle cx="212" cy="1338" r="8" class="c0"/>
<circle cx="106" cy="898" r="8" class="c0"/>
<circle cx="230" cy="1330" r="8" class="c0"/>
<circle cx="1486" cy="974" r="8" class="c0"/>
<circle cx="734" cy="966" r="8" class="c0"/>
<circle cx="86" cy="478" r="8" class="c0"/>
<circle cx="36" cy="1308" r="8" class="c0"/>
<circle cx="1442" cy="992" r="8" class="c0"/>
<circle cx="904" cy="1078" r="8" class="c0"/>
<circle cx="1152" cy="870" r="8" class="c0"/>
<circle cx="90" cy="752" r="8" class="c0"/>
<circle cx="430" cy="1426" r="8" class="c0"/>
<circle cx="64" cy="632" r="8" class="c0"/>
<circle cx="8" cy="794" r="8" class="c0"/>
<circle cx="76" cy="660" r="8" class="c0"/>
<circle cx="110" cy="484" r="8" class="c0"/>
<circle cx="36" cy="620" r="8" class="c0"/>
<circle cx="1162" cy="836" r="8" class="c0"/>
<circle cx="94" cy="602" r="8" class="c0"/>
<circle cx="168" cy="642" r="8" class="c0"/>
<circle cx="168" cy="566" r="8" class="c0"/>
<circle cx="498" cy="84" r="8" class="c0"/>
<circle cx="10" cy="952" r="8" class="c0"/>
<circle cx="76" cy="692" r="8" class="c0"/>
<circle cx="66" cy="1122" r="8" class="c0"/>
<circle cx="1462" cy="996" r="6" class="c0"/>
<circle cx="234" cy="1360" r="6" class="c0"/>
<circle cx="6" cy="470" r="6" class="c0"/>
<circle cx="122" cy="598" r="6" class="c0"/>
<circle cx="46" cy="1408" r="6" class="c0"/>
<circle cx="10" cy="994" r="6" class="c0"/>
<circle cx="56" cy="870" r="6" class="c0"/>
<circle cx="478" cy="810" r="6" class="c0"/>
<circle cx="92" cy="724" r="6" class="c0"/>
<circle cx="8" cy="1266" r="6" class="c0"/>
<circle cx="1136" cy="816" r="6" class="c0"/>
<circle cx="58" cy="902" r="6" class="c0"/>
<circle cx="248" cy="1322" r="6" class="c0"/>
<circle cx="1376" cy="870" r="6" class="c0"/>
<circle cx="40" cy="598" r="6" class="c0"/>
<circle cx="1148" cy="362" r="6" class="c0"/>
<circle cx="46" cy="684" r="6" class="c0"/>
<circle cx="48" cy="1194" r="6" class="c0"/>
<circle cx="12" cy="696" r="6" class="c0"/>
<circle cx="492" cy="790" r="6" class="c0"/>
<circle cx="8" cy="1202" r="6" class="c0"/>
<circle cx="6" cy="894" r="6" class="c0"/>
<circle cx="56" cy="1292" r="6" class="c0"/>
<circle cx="464" cy="808" r="6" class="c0"/>
<circle cx="42" cy="864" r="6" class="c0"/>
<circle cx="1752" cy="782" r="6" class="c0"/>
<circle cx="110" cy="846" r="6" class="c0"/>
<circle cx="1176" cy="38" r="6" class="c0"/>
<circle cx="102" cy="820" r="6" class="c0"/>
<circle cx="32" cy="1344" r="6" class="c0"/>
<circle cx="1080" cy="1432" r="6" class="c0"/>
<circle cx="70" cy="526" r="6" class="c0"/>
<circle cx="88" cy="1286" r="6" class="c0"/>
<circle cx="30" cy="802" r="6" class="c0"/>
<circle cx="346" cy="436" r="6" class="c0"/>
<circle cx="26" cy="1148" r="6" class="c0"/>
<circle cx="102" cy="836" r="6" class="c0"/>
<circle cx="36" cy="822" r="6" class="c0"/>
<circle cx="1162" cy="1252" r="6" class="c0"/>
<circle cx="1338" cy="876" r="6" class="c0"/>
<circle cx="6" cy="1068" r="6" class="c0"/>
<circle cx="428" cy="1410" r="6" class="c0"/>
<circle cx="1126" cy="346" r="6" class="c0"/>
<circle cx="92" cy="618" r="6" class="c0"/>
<circle cx="724" cy="954" r="6" class="c0"/>
<circle cx="26" cy="500" r="6" class="c0"/>
<circle cx="72" cy="996" r="6" class="c0"/>
<circle cx="732" cy="6" r="6" class="c0"/>
<circle cx="32" cy="1402" r="6" class="c0"/>
<circle cx="46" cy="470" r="6" class="c0"/>
<circle cx="58" cy="1244" r="6" class="c0"/>
<circle cx="1134" cy="774" r="6" class="c0"/>
<circle cx="166" cy="816" r="6" class="c0"/>
<circle cx="1538" cy="1104" r="6" class="c0"/>
<circle cx="64" cy="1180" r="6" class="c0"/>
<circle cx="62" cy="1028" r="6" class="c0"/>
<circle cx="1906" cy="1116" r="6" class="c0"/>
<circle cx="104" cy="632" r="6" class="c0"/>
<circle cx="6" cy="1118" r="6" class="c0"/>
<circle cx="1370" cy="888" r="6" class="c0"/>
<circle cx="6" cy="774" r="6" class="c0"/>
<circle cx="768" cy="6" r="6" class="c0"/>
<circle cx="1122" cy="820" r="6" class="c0"/>
<circle cx="66" cy="1350" r="6" class="c0"/>
<circle cx="222" cy="1350" r="6" class="c0"/>
<circle cx="1830" cy="254" r="6" class="c0"/>
<circle cx="24" cy="1094" r="6" class="c0"/>
<circle cx="82" cy="1302" r="6" class="c0"/>
<circle cx="1138" cy="352" r="6" class="c0"/>
</svg>
