<?xml version="1.0" encoding="utf-8"?>
<svg xmlns="http://www.w3.org/2000/svg"
     xmlns:xlink="http://www.w3.org/1999/xlink" width="1920" height="1440" >

            <defs>
            <style type="text/css"><![CDATA[
circle {stroke: none;}
.c0 {fill: #FFFFFF;}
]]></style>
            </defs>
<rect x="0" y="0" width="1920" height="1440" fill="black"/>
<circle cx="1494" cy="806" r="14" class="c0"/>
<circle cx="1332" cy="708" r="12" class="c0"/>
<circle cx="1582" cy="814" r="12" class="c0"/>
<circle cx="1020" cy="430" r="12" class="c0"/>
<circle cx="1550" cy="818" r="12" class="c0"/>
<circle cx="1342" cy="748" r="12" class="c0"/>
<circle cx="1518" cy="792" r="12" class="c0"/>
<circle cx="1374" cy="810" r="12" class="c0"/>
<circle cx="1140" cy="508" r="12" class="c0"/>
<circle cx="1190" cy="794" r="12" class="c0"/>
<circle cx="1150" cy="792" r="12" class="c0"/>
<circle cx="1150" cy="650" r="12" class="c0"/>
<circle cx="976" cy="392" r="12" class="c0"/>
<circle cx="1102" cy="654" r="12" class="c0"/>
<circle cx="1208" cy="762" r="12" class="c0"/>
<circle cx="1084" cy="604" r="12" class="c0"/>
<circle cx="1382" cy="724" r="12" class="c0"/>
<circle cx="1122" cy="694" r="12" class="c0"/>
<circle cx="1192" cy="676" r="12" class="c0"/>
<circle cx="1026" cy="742" r="12" class="c0"/>
<circle cx="1028" cy="468" r="12" class="c0"/>
<circle cx="1414" cy="840" r="12" class="c0"/>
<circle cx="674" cy="756" r="12" class="c0"/>
<circle cx="980" cy="768" r="12" class="c0"/>
<circle cx="1316" cy="772" r="12" class="c0"/>
<circle cx="1060" cy="646" r="12" class="c0"/>
<circle cx="1012" cy="588" r="12" class="c0"/>
<circle cx="756" cy="748" r="12" class="c0"/>
<circle cx="1008" cy="484" r="12" class="c0"/>
<circle cx="886" cy="384" r="12" class="c0"/>
<circle cx="1096" cy="546" r="12" class="c0"/>
<circle cx="1544" cy="734" r="12" class="c0"/>
<circle cx="956" cy="420" r="12" class="c0"/>
<circle cx="1206" cy="662" r="12" class="c0"/>
<circle cx="1024" cy="386" r="12" class="c0"/>
<circle cx="1082" cy="340" r="12" class="c0"/>
<circle cx="1068" cy="382" r="12" class="c0"/>
<circle cx="1184" cy="750" r="12" class="c0"/>
<circle cx="1438" cy="756" r="12" class="c0"/>
<circle cx="1174" cy="604" r="12" class="c0"/>
<circle cx="1056" cy="490" r="12" class="c0"/>
<circle cx="1034" cy="698" r="12" class="c0"/>
<circle cx="1514" cy="752" r="12" class="c0"/>
<circle cx="1302" cy="808" r="12" class="c0"/>
<circle cx="1168" cy="528" r="12" class="c0"/>
<circle cx="730" cy="770" r="12" class="c0"/>
<circle cx="1082" cy="508" r="10" class="c0"/>
<circle cx="1102" cy="474" r="10" class="c0"/>
<circle cx="1528" cy="710" r="10" class="c0"/>
<circle cx="982" cy="468" r="10" class="c0"/>
<circle cx="1030" cy="360" r="10" class="c0"/>
<circle cx="1264" cy="748" r="10" class="c0"/>
<circle cx="1090" cy="636" r="10" class="c0"/>
<circle cx="960" cy="534" r="10" class="c0"/>
<circle cx="1062" cy="802" r="10" class="c0"/>
<circle cx="1130" cy="844" r="10" class="c0"/>
<circle cx="1084" cy="768" r="10" class="c0"/>
<circle cx="1024" cy="534" r="10" class="c0"/>
<circle cx="966" cy="748" r="10" class="c0"/>
<circle cx="826" cy="742" r="10" class="c0"/>
<circle cx="1162" cy="768" r="10" class="c0"/>
<circle cx="898" cy="756" r="10" class="c0"/>
<circle cx="906" cy="400" r="10" class="c0"/>
<circle cx="972" cy="662" r="10" class="c0"/>
<circle cx="868" cy="328" r="10" class="c0"/>
<circle cx="1536" cy="772" r="10" class="c0"/>
<circle cx="1490" cy="848" r="10" class="c0"/>
<circle cx="1068" cy="622" r="10" class="c0"/>
<circle cx="602" cy="732" r="10" class="c0"/>
<circle cx="1038" cy="560" r="10" class="c0"/>
<circle cx="1514" cy="846" r="10" class="c0"/>
<circle cx="1534" cy="862" r="10" class="c0"/>
<circle cx="1278" cy="728" r="10" class="c0"/>
<circle cx="1128" cy="488" r="10" class="c0"/>
<circle cx="780" cy="752" r="10" class="c0"/>
<circle cx="1590" cy="762" r="10" class="c0"/>
<circle cx="1060" cy="706" r="10" class="c0"/>
<circle cx="1410" cy="736" r="10" class="c0"/>
<circle cx="1462" cy="716" r="10" class="c0"/>
<circle cx="998" cy="786" r="10" class="c0"/>
<circle cx="1562" cy="788" r="10" class="c0"/>
<circle cx="1150" cy="734" r="10" class="c0"/>
<circle cx="1138" cy="746" r="10" class="c0"/>
<circle cx="1406" cy="778" r="10" class="c0"/>
<circle cx="1204" cy="698" r="10" class="c0"/>
<circle cx="648" cy="728" r="10" class="c0"/>
<circle cx="1158" cy="622" r="10" class="c0"/>
<circle cx="1094" cy="746" r="10" class="c0"/>
<circle cx="874" cy="350" r="10" class="c0"/>
<circle cx="1168" cy="692" r="10" class="c0"/>
<circle cx="1064" cy="564" r="10" class="c0"/>
<circle cx="992" cy="632" r="10" class="c0"/>
<circle cx="1114" cy="456" r="10" class="c0"/>
<circle cx="1116" cy="640" r="10" class="c0"/>
<circle cx="1322" cy="822" r="10" class="c0"/>
<circle cx="1434" cy="798" r="10" class="c0"/>
<circle cx="1188" cy="566" r="10" class="c0"/>
<circle cx="1128" cy="766" r="10" class="c0"/>
<circle cx="926" cy="742" r="10" class="c0"/>
<circle cx="1228" cy="716" r="10" class="c0"/>
<circle cx="1156" cy="846" r="10" class="c0"/>
<circle cx="1500" cy="720" r="10" class="c0"/>
<circle cx="1460" cy="786" r="10" class="c0"/>
<circle cx="1328" cy="800" r="10" class="c0"/>
<circle cx="1146" cy="606" r="10" class="c0"/>
<circle cx="1236" cy="742" r="10" class="c0"/>
<circle cx="1060" cy="524" r="10" class="c0"/>
<circle cx="780" cy="814" r="10" class="c0"/>
<circle cx="940" cy="374" r="10" class="c0"/>
<circle cx="1046" cy="418" r="10" class="c0"/>
<circle cx="984" cy="598" r="10" class="c0"/>
<circle cx="542" cy="732" r="10" class="c0"/>
<circle cx="1190" cy="620" r="10" class="c0"/>
<circle cx="1394" cy="798" r="10" class="c0"/>
<circle cx="1426" cy="710" r="10" class="c0"/>
<circle cx="804" cy="758" r="10" class="c0"/>
<circle cx="1264" cy="782" r="10" class="c0"/>
<circle cx="1552" cy="850" r="10" class="c0"/>
<circle cx="690" cy="734" r="10" class="c0"/>
<circle cx="994" cy="444" r="10" class="c0"/>
<circle cx="1148" cy="710" r="10" class="c0"/>
<circle cx="1094" cy="712" r="10" class="c0"/>
<circle cx="1174" cy="862" r="10" class="c0"/>
<circle cx="1300" cy="716" r="10" class="c0"/>
<circle cx="1496" cy="772" r="10" class="c0"/>
<circle cx="1190" cy="722" r="10" class="c0"/>
<circle cx="1068" cy="728" r="10" class="c0"/>
<circle cx="1100" cy="436" r="10" class="c0"/>
<circle cx="998" cy="414" r="10" class="c0"/>
<circle cx="970" cy="804" r="10" class="c0"/>
<circle cx="1510" cy="822" r="10" class="c0"/>
<circle cx="1436" cy="824" r="10" class="c0"/>
<circle cx="756" cy="786" r="10" class="c0"/>
<circle cx="1004" cy="728" r="10" class="c0"/>
<circle cx="588" cy="752" r="10" class="c0"/>
<circle cx="1080" cy="452" r="10" class="c0"/>
<circle cx="616" cy="766" r="10" class="c0"/>
<circle cx="1156" cy="460" r="10" class="c0"/>
<circle cx="1116" cy="744" r="10" class="c0"/>
<circle cx="1010" cy="550" r="10" class="c0"/>
<circle cx="986" cy="358" r="10" class="c0"/>
<circle cx="1106" cy="774" r="10" class="c0"/>
<circle cx="852" cy="748" r="10" class="c0"/>
<circle cx="1096" cy="792" r="10" class="c0"/>
<circle cx="1218" cy="796" r="10" class="c0"/>
<circle cx="1002" cy="332" r="10" class="c0"/>
<circle cx="1528" cy="834" r="10" class="c0"/>
<circle cx="1210" cy="546" r="10" class="c0"/>
<circle cx="1132" cy="544" r="10" class="c0"/>
<circle cx="578" cy="720" r="10" class="c0"/>
<circle cx="1232" cy="810" r="10" class="c0"/>
<circle cx="1402" cy="700" r="10" class="c0"/>
<circle cx="1364" cy="766" r="10" class="c0"/>
<circle cx="966" cy="574" r="8" class="c0"/>
<circle cx="1112" cy="362" r="8" class="c0"/>
<circle cx="1306" cy="750" r="8" class="c0"/>
<circle cx="1176" cy="664" r="8" class="c0"/>
<circle cx="1048" cy="596" r="8" class="c0"/>
<circle cx="926" cy="488" r="8" class="c0"/>
<circle cx="1046" cy="374" r="8" class="c0"/>
<circle cx="1100" cy="676" r="8" class="c0"/>
<circle cx="732" cy="748" r="8" class="c0"/>
<circle cx="1454" cy="850" r="8" class="c0"/>
<circle cx="1524" cy="880" r="8" class="c0"/>
<circle cx="1076" cy="478" r="8" class="c0"/>
<circle cx="974" cy="370" r="8" class="c0"/>
<circle cx="1058" cy="460" r="8" class="c0"/>
<circle cx="714" cy="740" r="8" class="c0"/>
<circle cx="1064" cy="430" r="8" class="c0"/>
<circle cx="1040" cy="634" r="8" class="c0"/>
<circle cx="1066" cy="748" r="8" class="c0"/>
<circle cx="1174" cy="554" r="8" class="c0"/>
<circle cx="1038" cy="504" r="8" class="c0"/>
<circle cx="1470" cy="752" r="8" class="c0"/>
<circle cx="946" cy="746" r="8" class="c0"/>
<circle cx="1176" cy="780" r="8" class="c0"/>
<circle cx="1346" cy="782" r="8" class="c0"/>
<circle cx="1014" cy="404" r="8" class="c0"/>
<circle cx="1000" cy="566" r="8" class="c0"/>
<circle cx="1110" cy="608" r="8" class="c0"/>
<circle cx="1612" cy="794" r="8" class="c0"/>
<circle cx="518" cy="724" r="8" class="c0"/>
<circle cx="1076" cy="692" r="8" class="c0"/>
<circle cx="1106" cy="816" r="8" class="c0"/>
<circle cx="1066" cy="680" r="8" class="c0"/>
<circle cx="794" cy="740" r="8" class="c0"/>
<circle cx="1616" cy="772" r="8" class="c0"/>
<circle cx="1234" cy="664" r="8" class="c0"/>
<circle cx="1394" cy="758" r="8" class="c0"/>
<circle cx="1102" cy="522" r="8" class="c0"/>
<circle cx="1166" cy="506" r="8" class="c0"/>
<circle cx="1248" cy="728" r="8" class="c0"/>
<circle cx="928" cy="412" r="8" class="c0"/>
<circle cx="1284" cy="756" r="8" class="c0"/>
<circle cx="1024" cy="716" r="8" class="c0"/>
<circle cx="1408" cy="812" r="8" class="c0"/>
<circle cx="1048" cy="760" r="8" class="c0"/>
<circle cx="1132" cy="618" r="8" class="c0"/>
<circle cx="1486" cy="688" r="8" class="c0"/>
<circle cx="930" cy="514" r="8" class="c0"/>
<circle cx="986" cy="576" r="8" class="c0"/>
<circle cx="1466" cy="692" r="8" class="c0"/>
<circle cx="1020" cy="784" r="8" class="c0"/>
<circle cx="1238" cy="774" r="8" class="c0"/>
<circle cx="1030" cy="794" r="8" class="c0"/>
<circle cx="1112" cy="500" r="8" class="c0"/>
<circle cx="1558" cy="766" r="8" class="c0"/>
<circle cx="1116" cy="802" r="8" class="c0"/>
<circle cx="1442" cy="690" r="8" class="c0"/>
<circle cx="972" cy="442" r="8" class="c0"/>
<circle cx="868" cy="374" r="8" class="c0"/>
<circle cx="1444" cy="734" r="8" class="c0"/>
<circle cx="938" cy="706" r="8" class="c0"/>
<circle cx="1010" cy="522" r="8" class="c0"/>
<circle cx="1032" cy="338" r="8" class="c0"/>
<circle cx="914" cy="332" r="8" class="c0"/>
<circle cx="1094" cy="570" r="8" class="c0"/>
<circle cx="508" cy="712" r="8" class="c0"/>
<circle cx="1148" cy="818" r="8" class="c0"/>
<circle cx="942" cy="728" r="8" class="c0"/>
<circle cx="1040" cy="614" r="8" class="c0"/>
<circle cx="910" cy="368" r="8" class="c0"/>
<circle cx="1044" cy="728" r="8" class="c0"/>
<circle cx="1076" cy="788" r="8" class="c0"/>
<circle cx="1562" cy="714" r="8" class="c0"/>
<circle cx="914" cy="766" r="8" class="c0"/>
<circle cx="1488" cy="736" r="8" class="c0"/>
<circle cx="646" cy="754" r="8" class="c0"/>
<circle cx="942" cy="498" r="8" class="c0"/>
<circle cx="1120" cy="532" r="8" class="c0"/>
<circle cx="932" cy="762" r="8" class="c0"/>
<circle cx="994" cy="810" r="8" class="c0"/>
<circle cx="1270" cy="706" r="8" class="c0"/>
<circle cx="1472" cy="820" r="8" class="c0"/>
<circle cx="1120" cy="870" r="8" class="c0"/>
<circle cx="1186" cy="648" r="8" class="c0"/>
<circle cx="1392" cy="834" r="8" class="c0"/>
<circle cx="1190" cy="592" r="8" class="c0"/>
<circle cx="1152" cy="554" r="8" class="c0"/>
<circle cx="670" cy="724" r="8" class="c0"/>
<circle cx="964" cy="680" r="8" class="c0"/>
<circle cx="1140" cy="472" r="8" class="c0"/>
<circle cx="1260" cy="666" r="8" class="c0"/>
<circle cx="1046" cy="440" r="8" class="c0"/>
<circle cx="1180" cy="812" r="8" class="c0"/>
<circle cx="1166" cy="724" r="8" class="c0"/>
<circle cx="1358" cy="824" r="8" class="c0"/>
<circle cx="1064" cy="360" r="8" class="c0"/>
<circle cx="1466" cy="840" r="8" class="c0"/>
<circle cx="1036" cy="770" r="8" class="c0"/>
<circle cx="1358" cy="724" r="8" class="c0"/>
<circle cx="570" cy="740" r="8" class="c0"/>
<circle cx="1102" cy="588" r="8" class="c0"/>
<circle cx="1202" cy="734" r="8" class="c0"/>
<circle cx="922" cy="382" r="8" class="c0"/>
<circle cx="1052" cy="782" r="8" class="c0"/>
<circle cx="1158" cy="580" r="8" class="c0"/>
<circle cx="948" cy="696" r="8" class="c0"/>
<circle cx="1028" cy="604" r="8" class="c0"/>
<circle cx="992" cy="750" r="8" class="c0"/>
<circle cx="950" cy="394" r="8" class="c0"/>
<circle cx="1070" cy="406" r="8" class="c0"/>
<circle cx="894" cy="338" r="8" class="c0"/>
<circle cx="958" cy="766" r="8" class="c0"/>
<circle cx="1318" cy="728" r="8" class="c0"/>
<circle cx="1002" cy="762" r="8" class="c0"/>
<circle cx="700" cy="752" r="8" class="c0"/>
<circle cx="1250" cy="702" r="8" class="c0"/>
<circle cx="624" cy="742" r="8" class="c0"/>
<circle cx="1008" cy="362" r="8" class="c0"/>
<circle cx="1140" cy="446" r="8" class="c0"/>
<circle cx="1384" cy="768" r="8" class="c0"/>
<circle cx="928" cy="718" r="8" class="c0"/>
<circle cx="558" cy="716" r="8" class="c0"/>
<circle cx="1566" cy="838" r="8" class="c0"/>
<circle cx="1586" cy="786" r="8" class="c0"/>
<circle cx="1054" cy="328" r="8" class="c0"/>
<circle cx="1126" cy="658" r="8" class="c0"/>
<circle cx="1284" cy="788" r="8" class="c0"/>
<circle cx="912" cy="504" r="8" class="c0"/>
<circle cx="994" cy="378" r="8" class="c0"/>
<circle cx="1142" cy="382" r="8" class="c0"/>
<circle cx="1550" cy="704" r="8" class="c0"/>
<circle cx="1170" cy="834" r="8" class="c0"/>
<circle cx="1064" cy="586" r="8" class="c0"/>
<circle cx="876" cy="744" r="8" class="c0"/>
<circle cx="1482" cy="830" r="8" class="c0"/>
<circle cx="940" cy="524" r="8" class="c0"/>
<circle cx="1080" cy="532" r="8" class="c0"/>
<circle cx="1280" cy="810" r="8" class="c0"/>
<circle cx="864" cy="762" r="8" class="c0"/>
<circle cx="1038" cy="586" r="8" class="c0"/>
<circle cx="532" cy="714" r="8" class="c0"/>
<circle cx="1120" cy="828" r="8" class="c0"/>
<circle cx="1146" cy="676" r="8" class="c0"/>
<circle cx="1260" cy="806" r="8" class="c0"/>
<circle cx="1118" cy="720" r="8" class="c0"/>
<circle cx="626" cy="720" r="8" class="c0"/>
<circle cx="1020" cy="510" r="8" class="c0"/>
<circle cx="1348" cy="834" r="8" class="c0"/>
<circle cx="1082" cy="428" r="8" class="c0"/>
<circle cx="1236" cy="682" r="8" class="c0"/>
<circle cx="1010" cy="800" r="8" class="c0"/>
<circle cx="1508" cy="868" r="8" class="c0"/>
<circle cx="1056" cy="668" r="8" class="c0"/>
<circle cx="982" cy="426" r="8" class="c0"/>
<circle cx="1382" cy="696" r="8" class="c0"/>
<circle cx="1290" cy="672" r="8" class="c0"/>
<circle cx="1366" cy="740" r="8" class="c0"/>
<circle cx="1046" cy="394" r="8" class="c0"/>
<circle cx="1472" cy="772" r="8" class="c0"/>
<circle cx="942" cy="436" r="8" class="c0"/>
<circle cx="1130" cy="366" r="8" class="c0"/>
<circle cx="1048" cy="536" r="8" class="c0"/>
<circle cx="1044" cy="348" r="8" class="c0"/>
<circle cx="1512" cy="696" r="8" class="c0"/>
<circle cx="1208" cy="814" r="8" class="c0"/>
<circle cx="1310" cy="676" r="8" class="c0"/>
<circle cx="1368" cy="706" r="8" class="c0"/>
<circle cx="1246" cy="758" r="8" class="c0"/>
<circle cx="1034" cy="404" r="8" class="c0"/>
<circle cx="882" cy="766" r="8" class="c0"/>
<circle cx="1084" cy="664" r="8" class="c0"/>
<circle cx="1618" cy="834" r="8" class="c0"/>
<circle cx="1588" cy="840" r="8" class="c0"/>
<circle cx="1144" cy="530" r="8" class="c0"/>
<circle cx="1436" cy="848" r="8" class="c0"/>
<circle cx="1002" cy="614" r="8" class="c0"/>
<circle cx="894" cy="360" r="8" class="c0"/>
<circle cx="984" cy="558" r="8" class="c0"/>
<circle cx="1342" cy="812" r="8" class="c0"/>
<circle cx="1600" cy="826" r="8" class="c0"/>
<circle cx="1568" cy="742" r="8" class="c0"/>
<circle cx="1094" cy="360" r="8" class="c0"/>
<circle cx="1044" cy="680" r="8" class="c0"/>
<circle cx="1092" cy="492" r="8" class="c0"/>
<circle cx="958" cy="790" r="8" class="c0"/>
<circle cx="1542" cy="798" r="8" class="c0"/>
<circle cx="1100" cy="620" r="8" class="c0"/>
<circle cx="1292" cy="740" r="8" class="c0"/>
<circle cx="1460" cy="742" r="8" class="c0"/>
<circle cx="1520" cy="728" r="8" class="c0"/>
<circle cx="1128" cy="812" r="8" class="c0"/>
<circle cx="1170" cy="638" r="8" class="c0"/>
<circle cx="1484" cy="710" r="8" class="c0"/>
<circle cx="1606" cy="844" r="8" class="c0"/>
<circle cx="1292" cy="772" r="8" class="c0"/>
<circle cx="1050" cy="576" r="8" class="c0"/>
<circle cx="1066" cy="544" r="8" class="c0"/>
<circle cx="1456" cy="828" r="8" class="c0"/>
<circle cx="966" cy="554" r="8" class="c0"/>
<circle cx="906" cy="348" r="8" class="c0"/>
<circle cx="1472" cy="860" r="8" class="c0"/>
<circle cx="1154" cy="486" r="8" class="c0"/>
<circle cx="1198" cy="534" r="8" class="c0"/>
<circle cx="1244" cy="792" r="8" class="c0"/>
<circle cx="1616" cy="814" r="8" class="c0"/>
<circle cx="1002" cy="394" r="8" class="c0"/>
<circle cx="706" cy="772" r="8" class="c0"/>
<circle cx="1082" cy="806" r="8" class="c0"/>
<circle cx="992" cy="538" r="8" class="c0"/>
<circle cx="1012" cy="454" r="8" class="c0"/>
<circle cx="1372" cy="786" r="8" class="c0"/>
<circle cx="1432" cy="778" r="8" class="c0"/>
<circle cx="1418" cy="690" r="8" class="c0"/>
<circle cx="1486" cy="870" r="8" class="c0"/>
<circle cx="1084" cy="580" r="8" class="c0"/>
<circle cx="1176" cy="582" r="8" class="c0"/>
<circle cx="1026" cy="574" r="8" class="c0"/>
<circle cx="1416" cy="762" r="8" class="c0"/>
<circle cx="1372" cy="834" r="8" class="c0"/>
<circle cx="1116" cy="668" r="8" class="c0"/>
<circle cx="1058" cy="606" r="8" class="c0"/>
<circle cx="982" cy="736" r="8" class="c0"/>
<circle cx="1020" cy="810" r="6" class="c0"/>
<circle cx="1160" cy="388" r="6" class="c0"/>
<circle cx="1458" cy="806" r="6" class="c0"/>
<circle cx="1128" cy="786" r="6" class="c0"/>
<circle cx="888" cy="404" r="6" class="c0"/>
<circle cx="1218" cy="738" r="6" class="c0"/>
<circle cx="1162" cy="808" r="6" class="c0"/>
<circle cx="830" cy="760" r="6" class="c0"/>
<circle cx="1018" cy="348" r="6" class="c0"/>
<circle cx="1206" cy="784" r="6" class="c0"/>
<circle cx="1404" cy="718" r="6" class="c0"/>
<circle cx="1228" cy="760" r="6" class="c0"/>
<circle cx="1144" cy="692" r="6" class="c0"/>
<circle cx="1456" cy="764" r="6" class="c0"/>
<circle cx="1022" cy="762" r="6" class="c0"/>
<circle cx="908" cy="736" r="6" class="c0"/>
<circle cx="1064" cy="766" r="6" class="c0"/>
<circle cx="1030" cy="624" r="6" class="c0"/>
<circle cx="1046" cy="744" r="6" class="c0"/>
<circle cx="1034" cy="488" r="6" class="c0"/>
<circle cx="718" cy="756" r="6" class="c0"/>
<circle cx="918" cy="422" r="6" class="c0"/>
<circle cx="1162" cy="874" r="6" class="c0"/>
<circle cx="1478" cy="790" r="6" class="c0"/>
<circle cx="1472" cy="732" r="6" class="c0"/>
<circle cx="1446" cy="708" r="6" class="c0"/>
<circle cx="1602" cy="780" r="6" class="c0"/>
<circle cx="1166" cy="742" r="6" class="c0"/>
<circle cx="736" cy="730" r="6" class="c0"/>
<circle cx="1112" cy="848" r="6" class="c0"/>
<circle cx="770" cy="798" r="6" class="c0"/>
<circle cx="1572" cy="758" r="6" class="c0"/>
<circle cx="1186" cy="770" r="6" class="c0"/>
<circle cx="1086" cy="730" r="6" class="c0"/>
<circle cx="854" cy="366" r="6" class="c0"/>
<circle cx="1574" cy="774" r="6" class="c0"/>
<circle cx="658" cy="744" r="6" class="c0"/>
<circle cx="1178" cy="708" r="6" class="c0"/>
<circle cx="1596" cy="800" r="6" class="c0"/>
<circle cx="872" cy="396" r="6" class="c0"/>
<circle cx="966" cy="592" r="6" class="c0"/>
<circle cx="920" cy="524" r="6" class="c0"/>
<circle cx="1120" cy="438" r="6" class="c0"/>
<circle cx="958" cy="456" r="6" class="c0"/>
<circle cx="1546" cy="754" r="6" class="c0"/>
<circle cx="1136" cy="638" r="6" class="c0"/>
<circle cx="1194" cy="822" r="6" class="c0"/>
<circle cx="1104" cy="340" r="6" class="c0"/>
<circle cx="1448" cy="772" r="6" class="c0"/>
<circle cx="1304" cy="786" r="6" class="c0"/>
<circle cx="1078" cy="554" r="6" class="c0"/>
<circle cx="1274" cy="768" r="6" class="c0"/>
<circle cx="1354" cy="796" r="6" class="c0"/>
<circle cx="958" cy="368" r="6" class="c0"/>
<circle cx="1352" cy="700" r="6" class="c0"/>
<circle cx="1124" cy="470" r="6" class="c0"/>
<circle cx="1172" cy="470" r="6" class="c0"/>
<circle cx="1102" cy="730" r="6" class="c0"/>
<circle cx="974" cy="642" r="6" class="c0"/>
<circle cx="1134" cy="726" r="6" class="c0"/>
<circle cx="1196" cy="638" r="6" class="c0"/>
<circle cx="1190" cy="516" r="6" class="c0"/>
<circle cx="1158" cy="750" r="6" class="c0"/>
<circle cx="1342" cy="726" r="6" class="c0"/>
<circle cx="930" cy="396" r="6" class="c0"/>
<circle cx="1186" cy="544" r="6" class="c0"/>
<circle cx="770" cy="736" r="6" class="c0"/>
<circle cx="1472" cy="802" r="6" class="c0"/>
<circle cx="1258" cy="718" r="6" class="c0"/>
<circle cx="1378" cy="752" r="6" class="c0"/>
<circle cx="1096" cy="694" r="6" class="c0"/>
<circle cx="1020" cy="324" r="6" class="c0"/>
<circle cx="1490" cy="752" r="6" class="c0"/>
<circle cx="990" cy="650" r="6" class="c0"/>
<circle cx="1428" cy="738" r="6" class="c0"/>
<circle cx="1392" cy="740" r="6" class="c0"/>
<circle cx="1608" cy="754" r="6" class="c0"/>
<circle cx="606" cy="750" r="6" class="c0"/>
<circle cx="690" cy="766" r="6" class="c0"/>
<circle cx="1564" cy="806" r="6" class="c0"/>
<circle cx="1526" cy="814" r="6" class="c0"/>
<circle cx="810" cy="734" r="6" class="c0"/>
<circle cx="1044" cy="806" r="6" class="c0"/>
<circle cx="1496" cy="700" r="6" class="c0"/>
<circle cx="1060" cy="344" r="6" class="c0"/>
<circle cx="1040" cy="522" r="6" class="c0"/>
<circle cx="938" cy="478" r="6" class="c0"/>
<circle cx="916" cy="728" r="6" class="c0"/>
<circle cx="1418" cy="790" r="6" class="c0"/>
<circle cx="1182" cy="844" r="6" class="c0"/>
<circle cx="1220" cy="776" r="6" class="c0"/>
<circle cx="1160" cy="668" r="6" class="c0"/>
<circle cx="598" cy="714" r="6" class="c0"/>
<circle cx="598" cy="770" r="6" class="c0"/>
<circle cx="1224" cy="654" r="6" class="c0"/>
<circle cx="970" cy="610" r="6" class="c0"/>
<circle cx="1002" cy="464" r="6" class="c0"/>
<circle cx="950" cy="514" r="6" class="c0"/>
<circle cx="1224" cy="694" r="6" class="c0"/>
<circle cx="1118" cy="516" r="6" class="c0"/>
<circle cx="1220" cy="676" r="6" class="c0"/>
<circle cx="1170" cy="796" r="6" class="c0"/>
<circle cx="1322" cy="752" r="6" class="c0"/>
<circle cx="1338" cy="768" r="6" class="c0"/>
<circle cx="1030" cy="446" r="6" class="c0"/>
<circle cx="858" cy="384" r="6" class="c0"/>
<circle cx="1252" cy="686" r="6" class="c0"/>
<circle cx="754" cy="768" r="6" class="c0"/>
<circle cx="984" cy="340" r="6" class="c0"/>
<circle cx="960" cy="382" r="6" class="c0"/>
<circle cx="1048" cy="470" r="6" class="c0"/>
<circle cx="980" cy="618" r="6" class="c0"/>
<circle cx="1050" cy="624" r="6" class="c0"/>
<circle cx="1516" cy="772" r="6" class="c0"/>
<circle cx="1212" cy="724" r="6" class="c0"/>
<circle cx="924" cy="342" r="6" class="c0"/>
<circle cx="1482" cy="762" r="6" class="c0"/>
<circle cx="1034" cy="322" r="6" class="c0"/>
<circle cx="1312" cy="704" r="6" class="c0"/>
<circle cx="1186" cy="700" r="6" class="c0"/>
<circle cx="740" cy="794" r="6" class="c0"/>
<circle cx="1082" cy="370" r="6" class="c0"/>
<circle cx="978" cy="788" r="6" class="c0"/>
<circle cx="1014" cy="704" r="6" class="c0"/>
<circle cx="974" cy="412" r="6" class="c0"/>
<circle cx="1070" cy="326" r="6" class="c0"/>
<circle cx="760" cy="806" r="6" class="c0"/>
<circle cx="1326" cy="684" r="6" class="c0"/>
<circle cx="952" cy="716" r="6" class="c0"/>
<circle cx="1144" cy="834" r="6" class="c0"/>
<circle cx="1276" cy="664" r="6" class="c0"/>
<circle cx="844" cy="764" r="6" class="c0"/>
<circle cx="1292" cy="824" r="6" class="c0"/>
<circle cx="1042" cy="456" r="6" class="c0"/>
<circle cx="706" cy="726" r="6" class="c0"/>
</svg>
