<?xml version="1.0" encoding="utf-8"?>
<svg xmlns="http://www.w3.org/2000/svg"
     xmlns:xlink="http://www.w3.org/1999/xlink" width="1920" height="1440" >

            <defs>
            <style type="text/css"><![CDATA[
circle {stroke: none;}
.c0 {fill: #FFFFFF;}
]]></style>
            </defs>
<rect x="0" y="0" width="1920" height="1440" fill="black"/>
<circle cx="954" cy="378" r="12" class="c0"/>
<circle cx="1134" cy="612" r="12" class="c0"/>
<circle cx="1074" cy="424" r="12" class="c0"/>
<circle cx="1120" cy="732" r="12" class="c0"/>
<circle cx="1170" cy="612" r="12" class="c0"/>
<circle cx="1134" cy="562" r="12" class="c0"/>
<circle cx="1440" cy="716" r="12" class="c0"/>
<circle cx="1318" cy="694" r="12" class="c0"/>
<circle cx="1124" cy="678" r="12" class="c0"/>
<circle cx="1342" cy="702" r="12" class="c0"/>
<circle cx="992" cy="454" r="12" class="c0"/>
<circle cx="994" cy="518" r="12" class="c0"/>
<circle cx="1026" cy="688" r="12" class="c0"/>
<circle cx="944" cy="462" r="12" class="c0"/>
<circle cx="776" cy="680" r="12" class="c0"/>
<circle cx="1034" cy="394" r="12" class="c0"/>
<circle cx="1018" cy="662" r="12" class="c0"/>
<circle cx="1384" cy="722" r="12" class="c0"/>
<circle cx="1080" cy="720" r="10" class="c0"/>
<circle cx="1028" cy="504" r="10" class="c0"/>
<circle cx="1062" cy="490" r="10" class="c0"/>
<circle cx="1306" cy="722" r="10" class="c0"/>
<circle cx="1082" cy="652" r="10" class="c0"/>
<circle cx="1060" cy="468" r="10" class="c0"/>
<circle cx="1318" cy="654" r="10" class="c0"/>
<circle cx="1136" cy="714" r="10" class="c0"/>
<circle cx="1366" cy="642" r="10" class="c0"/>
<circle cx="670" cy="680" r="10" class="c0"/>
<circle cx="1344" cy="750" r="10" class="c0"/>
<circle cx="1028" cy="354" r="10" class="c0"/>
<circle cx="1430" cy="650" r="10" class="c0"/>
<circle cx="614" cy="652" r="10" class="c0"/>
<circle cx="998" cy="716" r="10" class="c0"/>
<circle cx="1170" cy="640" r="10" class="c0"/>
<circle cx="1146" cy="482" r="10" class="c0"/>
<circle cx="1004" cy="368" r="10" class="c0"/>
<circle cx="1104" cy="456" r="10" class="c0"/>
<circle cx="698" cy="674" r="10" class="c0"/>
<circle cx="1122" cy="444" r="10" class="c0"/>
<circle cx="886" cy="674" r="10" class="c0"/>
<circle cx="1070" cy="576" r="10" class="c0"/>
<circle cx="1434" cy="746" r="10" class="c0"/>
<circle cx="1208" cy="674" r="10" class="c0"/>
<circle cx="1254" cy="700" r="10" class="c0"/>
<circle cx="914" cy="326" r="10" class="c0"/>
<circle cx="1190" cy="700" r="10" class="c0"/>
<circle cx="968" cy="522" r="10" class="c0"/>
<circle cx="1388" cy="690" r="10" class="c0"/>
<circle cx="744" cy="664" r="10" class="c0"/>
<circle cx="1126" cy="636" r="10" class="c0"/>
<circle cx="920" cy="390" r="10" class="c0"/>
<circle cx="1058" cy="512" r="10" class="c0"/>
<circle cx="1412" cy="732" r="10" class="c0"/>
<circle cx="722" cy="670" r="10" class="c0"/>
<circle cx="1124" cy="496" r="10" class="c0"/>
<circle cx="1122" cy="756" r="10" class="c0"/>
<circle cx="990" cy="688" r="10" class="c0"/>
<circle cx="1044" cy="586" r="10" class="c0"/>
<circle cx="1046" cy="622" r="10" class="c0"/>
<circle cx="980" cy="666" r="10" class="c0"/>
<circle cx="1180" cy="668" r="10" class="c0"/>
<circle cx="1196" cy="648" r="10" class="c0"/>
<circle cx="992" cy="562" r="10" class="c0"/>
<circle cx="1096" cy="668" r="10" class="c0"/>
<circle cx="986" cy="396" r="10" class="c0"/>
<circle cx="1108" cy="656" r="10" class="c0"/>
<circle cx="1056" cy="712" r="10" class="c0"/>
<circle cx="1172" cy="488" r="10" class="c0"/>
<circle cx="1422" cy="766" r="10" class="c0"/>
<circle cx="942" cy="410" r="10" class="c0"/>
<circle cx="1038" cy="562" r="10" class="c0"/>
<circle cx="908" cy="374" r="10" class="c0"/>
<circle cx="1474" cy="712" r="10" class="c0"/>
<circle cx="1160" cy="696" r="10" class="c0"/>
<circle cx="1420" cy="700" r="10" class="c0"/>
<circle cx="1114" cy="624" r="10" class="c0"/>
<circle cx="932" cy="660" r="10" class="c0"/>
<circle cx="1270" cy="660" r="10" class="c0"/>
<circle cx="1040" cy="448" r="10" class="c0"/>
<circle cx="1104" cy="428" r="10" class="c0"/>
<circle cx="1024" cy="638" r="10" class="c0"/>
<circle cx="1086" cy="470" r="8" class="c0"/>
<circle cx="1008" cy="534" r="8" class="c0"/>
<circle cx="1046" cy="372" r="8" class="c0"/>
<circle cx="1430" cy="680" r="8" class="c0"/>
<circle cx="1328" cy="736" r="8" class="c0"/>
<circle cx="1398" cy="646" r="8" class="c0"/>
<circle cx="1244" cy="676" r="8" class="c0"/>
<circle cx="1024" cy="438" r="8" class="c0"/>
<circle cx="984" cy="348" r="8" class="c0"/>
<circle cx="1242" cy="646" r="8" class="c0"/>
<circle cx="962" cy="692" r="8" class="c0"/>
<circle cx="1298" cy="674" r="8" class="c0"/>
<circle cx="1096" cy="738" r="8" class="c0"/>
<circle cx="1096" cy="588" r="8" class="c0"/>
<circle cx="1034" cy="712" r="8" class="c0"/>
<circle cx="928" cy="346" r="8" class="c0"/>
<circle cx="1144" cy="580" r="8" class="c0"/>
<circle cx="1146" cy="668" r="8" class="c0"/>
<circle cx="650" cy="666" r="8" class="c0"/>
<circle cx="1238" cy="724" r="8" class="c0"/>
<circle cx="1232" cy="686" r="8" class="c0"/>
<circle cx="1046" cy="338" r="8" class="c0"/>
<circle cx="1058" cy="604" r="8" class="c0"/>
<circle cx="1456" cy="670" r="8" class="c0"/>
<circle cx="1084" cy="688" r="8" class="c0"/>
<circle cx="928" cy="368" r="8" class="c0"/>
<circle cx="1226" cy="714" r="8" class="c0"/>
<circle cx="1088" cy="632" r="8" class="c0"/>
<circle cx="940" cy="684" r="8" class="c0"/>
<circle cx="820" cy="674" r="8" class="c0"/>
<circle cx="1364" cy="730" r="8" class="c0"/>
<circle cx="1414" cy="668" r="8" class="c0"/>
<circle cx="658" cy="650" r="8" class="c0"/>
<circle cx="1100" cy="510" r="8" class="c0"/>
<circle cx="1252" cy="634" r="8" class="c0"/>
<circle cx="1296" cy="652" r="8" class="c0"/>
<circle cx="1368" cy="666" r="8" class="c0"/>
<circle cx="924" cy="470" r="8" class="c0"/>
<circle cx="1046" cy="412" r="8" class="c0"/>
<circle cx="1088" cy="768" r="8" class="c0"/>
<circle cx="1232" cy="630" r="8" class="c0"/>
<circle cx="996" cy="652" r="8" class="c0"/>
<circle cx="1374" cy="756" r="8" class="c0"/>
<circle cx="1366" cy="702" r="8" class="c0"/>
<circle cx="1056" cy="676" r="8" class="c0"/>
<circle cx="1012" cy="492" r="8" class="c0"/>
<circle cx="1042" cy="492" r="8" class="c0"/>
<circle cx="974" cy="600" r="8" class="c0"/>
<circle cx="1112" cy="482" r="8" class="c0"/>
<circle cx="1290" cy="690" r="8" class="c0"/>
<circle cx="1158" cy="590" r="8" class="c0"/>
<circle cx="850" cy="674" r="8" class="c0"/>
<circle cx="1264" cy="716" r="8" class="c0"/>
<circle cx="1338" cy="668" r="8" class="c0"/>
<circle cx="678" cy="656" r="8" class="c0"/>
<circle cx="1422" cy="632" r="8" class="c0"/>
<circle cx="1136" cy="532" r="8" class="c0"/>
<circle cx="1060" cy="654" r="8" class="c0"/>
<circle cx="1260" cy="734" r="8" class="c0"/>
<circle cx="1060" cy="544" r="8" class="c0"/>
<circle cx="1322" cy="632" r="8" class="c0"/>
<circle cx="1116" cy="602" r="8" class="c0"/>
<circle cx="1284" cy="732" r="8" class="c0"/>
<circle cx="1464" cy="730" r="8" class="c0"/>
<circle cx="1290" cy="712" r="8" class="c0"/>
<circle cx="1196" cy="612" r="8" class="c0"/>
<circle cx="980" cy="542" r="8" class="c0"/>
<circle cx="1082" cy="348" r="8" class="c0"/>
<circle cx="1088" cy="494" r="8" class="c0"/>
<circle cx="1100" cy="610" r="8" class="c0"/>
<circle cx="1034" cy="536" r="8" class="c0"/>
<circle cx="1448" cy="690" r="8" class="c0"/>
<circle cx="960" cy="418" r="8" class="c0"/>
<circle cx="1030" cy="466" r="8" class="c0"/>
<circle cx="1044" cy="662" r="8" class="c0"/>
<circle cx="964" cy="614" r="8" class="c0"/>
<circle cx="1200" cy="718" r="8" class="c0"/>
<circle cx="1008" cy="348" r="8" class="c0"/>
<circle cx="1478" cy="746" r="8" class="c0"/>
<circle cx="952" cy="628" r="8" class="c0"/>
<circle cx="1062" cy="440" r="8" class="c0"/>
<circle cx="1104" cy="368" r="8" class="c0"/>
<circle cx="792" cy="692" r="8" class="c0"/>
<circle cx="1480" cy="688" r="8" class="c0"/>
<circle cx="1066" cy="358" r="8" class="c0"/>
<circle cx="904" cy="682" r="8" class="c0"/>
<circle cx="1342" cy="636" r="8" class="c0"/>
<circle cx="1224" cy="660" r="8" class="c0"/>
<circle cx="1104" cy="568" r="8" class="c0"/>
<circle cx="1078" cy="506" r="8" class="c0"/>
<circle cx="1102" cy="700" r="8" class="c0"/>
<circle cx="1082" cy="612" r="8" class="c0"/>
<circle cx="1092" cy="444" r="8" class="c0"/>
<circle cx="1148" cy="542" r="8" class="c0"/>
<circle cx="1022" cy="482" r="8" class="c0"/>
<circle cx="782" cy="706" r="8" class="c0"/>
<circle cx="976" cy="704" r="8" class="c0"/>
<circle cx="1400" cy="768" r="8" class="c0"/>
<circle cx="1352" cy="656" r="8" class="c0"/>
<circle cx="788" cy="664" r="8" class="c0"/>
<circle cx="968" cy="364" r="8" class="c0"/>
<circle cx="934" cy="484" r="8" class="c0"/>
<circle cx="1026" cy="414" r="8" class="c0"/>
<circle cx="704" cy="654" r="8" class="c0"/>
<circle cx="754" cy="684" r="8" class="c0"/>
<circle cx="1008" cy="424" r="8" class="c0"/>
<circle cx="1460" cy="700" r="8" class="c0"/>
<circle cx="1390" cy="628" r="8" class="c0"/>
<circle cx="1022" cy="550" r="8" class="c0"/>
<circle cx="1176" cy="712" r="8" class="c0"/>
<circle cx="968" cy="438" r="8" class="c0"/>
<circle cx="944" cy="494" r="8" class="c0"/>
<circle cx="1074" cy="452" r="8" class="c0"/>
<circle cx="1020" cy="524" r="8" class="c0"/>
<circle cx="1218" cy="602" r="8" class="c0"/>
<circle cx="1218" cy="642" r="8" class="c0"/>
<circle cx="1102" cy="758" r="8" class="c0"/>
<circle cx="980" cy="426" r="8" class="c0"/>
<circle cx="1388" cy="656" r="8" class="c0"/>
<circle cx="1400" cy="704" r="8" class="c0"/>
<circle cx="1008" cy="700" r="8" class="c0"/>
<circle cx="1206" cy="630" r="8" class="c0"/>
<circle cx="1356" cy="678" r="8" class="c0"/>
<circle cx="1066" cy="692" r="8" class="c0"/>
<circle cx="1150" cy="644" r="8" class="c0"/>
<circle cx="1068" cy="636" r="8" class="c0"/>
<circle cx="632" cy="660" r="8" class="c0"/>
<circle cx="1076" cy="556" r="8" class="c0"/>
<circle cx="1002" cy="674" r="8" class="c0"/>
<circle cx="1278" cy="640" r="8" class="c0"/>
<circle cx="890" cy="364" r="8" class="c0"/>
<circle cx="1010" cy="468" r="8" class="c0"/>
<circle cx="946" cy="646" r="8" class="c0"/>
<circle cx="1216" cy="726" r="8" class="c0"/>
<circle cx="1048" cy="642" r="8" class="c0"/>
<circle cx="1044" cy="526" r="8" class="c0"/>
<circle cx="1072" cy="532" r="8" class="c0"/>
<circle cx="1302" cy="634" r="8" class="c0"/>
<circle cx="810" cy="664" r="8" class="c0"/>
<circle cx="1340" cy="726" r="8" class="c0"/>
<circle cx="1410" cy="752" r="8" class="c0"/>
<circle cx="1048" cy="430" r="8" class="c0"/>
<circle cx="1272" cy="688" r="8" class="c0"/>
<circle cx="1396" cy="742" r="8" class="c0"/>
<circle cx="1118" cy="584" r="8" class="c0"/>
<circle cx="732" cy="686" r="8" class="c0"/>
<circle cx="952" cy="674" r="8" class="c0"/>
<circle cx="984" cy="580" r="8" class="c0"/>
<circle cx="1140" cy="694" r="8" class="c0"/>
<circle cx="1016" cy="568" r="8" class="c0"/>
<circle cx="596" cy="644" r="8" class="c0"/>
<circle cx="1008" cy="390" r="8" class="c0"/>
<circle cx="1160" cy="656" r="8" class="c0"/>
<circle cx="938" cy="336" r="8" class="c0"/>
<circle cx="1308" cy="742" r="8" class="c0"/>
<circle cx="966" cy="394" r="6" class="c0"/>
<circle cx="974" cy="722" r="6" class="c0"/>
<circle cx="642" cy="644" r="6" class="c0"/>
<circle cx="1000" cy="410" r="6" class="c0"/>
<circle cx="984" cy="366" r="6" class="c0"/>
<circle cx="834" cy="666" r="6" class="c0"/>
<circle cx="1164" cy="676" r="6" class="c0"/>
<circle cx="1074" cy="594" r="6" class="c0"/>
<circle cx="972" cy="556" r="6" class="c0"/>
<circle cx="1076" cy="674" r="6" class="c0"/>
<circle cx="1132" cy="462" r="6" class="c0"/>
<circle cx="1018" cy="454" r="6" class="c0"/>
<circle cx="1210" cy="708" r="6" class="c0"/>
<circle cx="1086" cy="566" r="6" class="c0"/>
<circle cx="1020" cy="378" r="6" class="c0"/>
<circle cx="1120" cy="516" r="6" class="c0"/>
<circle cx="1016" cy="718" r="6" class="c0"/>
<circle cx="1020" cy="334" r="6" class="c0"/>
<circle cx="1126" cy="774" r="6" class="c0"/>
<circle cx="1218" cy="700" r="6" class="c0"/>
<circle cx="1374" cy="626" r="6" class="c0"/>
<circle cx="962" cy="500" r="6" class="c0"/>
<circle cx="1446" cy="660" r="6" class="c0"/>
<circle cx="764" cy="696" r="6" class="c0"/>
<circle cx="974" cy="380" r="6" class="c0"/>
<circle cx="998" cy="336" r="6" class="c0"/>
<circle cx="1046" cy="698" r="6" class="c0"/>
<circle cx="798" cy="710" r="6" class="c0"/>
<circle cx="1116" cy="712" r="6" class="c0"/>
<circle cx="1004" cy="440" r="6" class="c0"/>
<circle cx="996" cy="494" r="6" class="c0"/>
<circle cx="1144" cy="500" r="6" class="c0"/>
<circle cx="1408" cy="686" r="6" class="c0"/>
<circle cx="820" cy="724" r="6" class="c0"/>
<circle cx="1056" cy="566" r="6" class="c0"/>
<circle cx="1062" cy="342" r="6" class="c0"/>
<circle cx="940" cy="390" r="6" class="c0"/>
<circle cx="1328" cy="716" r="6" class="c0"/>
<circle cx="1398" cy="676" r="6" class="c0"/>
<circle cx="1100" cy="722" r="6" class="c0"/>
<circle cx="804" cy="680" r="6" class="c0"/>
<circle cx="1124" cy="544" r="6" class="c0"/>
<circle cx="1028" cy="620" r="6" class="c0"/>
<circle cx="1274" cy="742" r="6" class="c0"/>
<circle cx="1242" cy="604" r="6" class="c0"/>
<circle cx="1354" cy="718" r="6" class="c0"/>
<circle cx="1032" cy="600" r="6" class="c0"/>
<circle cx="1352" cy="626" r="6" class="c0"/>
<circle cx="958" cy="710" r="6" class="c0"/>
<circle cx="1112" cy="550" r="6" class="c0"/>
<circle cx="1262" cy="678" r="6" class="c0"/>
<circle cx="1066" cy="618" r="6" class="c0"/>
<circle cx="1124" cy="702" r="6" class="c0"/>
<circle cx="1146" cy="626" r="6" class="c0"/>
<circle cx="1186" cy="602" r="6" class="c0"/>
<circle cx="1134" cy="656" r="6" class="c0"/>
<circle cx="920" cy="672" r="6" class="c0"/>
<circle cx="1320" cy="674" r="6" class="c0"/>
<circle cx="1086" cy="750" r="6" class="c0"/>
<circle cx="766" cy="662" r="6" class="c0"/>
<circle cx="1448" cy="734" r="6" class="c0"/>
<circle cx="1026" cy="580" r="6" class="c0"/>
<circle cx="810" cy="716" r="6" class="c0"/>
<circle cx="1054" cy="392" r="6" class="c0"/>
<circle cx="836" cy="682" r="6" class="c0"/>
<circle cx="1128" cy="476" r="6" class="c0"/>
<circle cx="1282" cy="676" r="6" class="c0"/>
<circle cx="912" cy="344" r="6" class="c0"/>
<circle cx="970" cy="408" r="6" class="c0"/>
<circle cx="1370" cy="686" r="6" class="c0"/>
<circle cx="1178" cy="688" r="6" class="c0"/>
<circle cx="1384" cy="672" r="6" class="c0"/>
<circle cx="1062" cy="408" r="6" class="c0"/>
<circle cx="1164" cy="466" r="6" class="c0"/>
<circle cx="1456" cy="744" r="6" class="c0"/>
<circle cx="1094" cy="358" r="6" class="c0"/>
<circle cx="1136" cy="766" r="6" class="c0"/>
<circle cx="1472" cy="674" r="6" class="c0"/>
<circle cx="1048" cy="356" r="6" class="c0"/>
<circle cx="920" cy="688" r="6" class="c0"/>
<circle cx="1124" cy="378" r="6" class="c0"/>
<circle cx="1210" cy="692" r="6" class="c0"/>
<circle cx="1492" cy="718" r="6" class="c0"/>
<circle cx="1044" cy="476" r="6" class="c0"/>
<circle cx="1484" cy="728" r="6" class="c0"/>
<circle cx="1004" cy="550" r="6" class="c0"/>
<circle cx="1236" cy="702" r="6" class="c0"/>
<circle cx="1178" cy="594" r="6" class="c0"/>
<circle cx="868" cy="672" r="6" class="c0"/>
<circle cx="1148" cy="600" r="6" class="c0"/>
<circle cx="1376" cy="740" r="6" class="c0"/>
<circle cx="1252" cy="662" r="6" class="c0"/>
<circle cx="1362" cy="746" r="6" class="c0"/>
<circle cx="1076" cy="480" r="6" class="c0"/>
<circle cx="1016" cy="404" r="6" class="c0"/>
<circle cx="1262" cy="644" r="6" class="c0"/>
<circle cx="1098" cy="642" r="6" class="c0"/>
<circle cx="1134" cy="744" r="6" class="c0"/>
<circle cx="964" cy="540" r="6" class="c0"/>
<circle cx="1132" cy="592" r="6" class="c0"/>
<circle cx="1006" cy="640" r="6" class="c0"/>
<circle cx="1148" cy="464" r="6" class="c0"/>
<circle cx="1002" cy="482" r="6" class="c0"/>
<circle cx="1158" cy="498" r="6" class="c0"/>
<circle cx="990" cy="378" r="6" class="c0"/>
<circle cx="952" cy="480" r="6" class="c0"/>
<circle cx="958" cy="402" r="6" class="c0"/>
<circle cx="918" cy="356" r="6" class="c0"/>
<circle cx="730" cy="654" r="6" class="c0"/>
<circle cx="1406" cy="630" r="6" class="c0"/>
<circle cx="1120" cy="468" r="6" class="c0"/>
<circle cx="1034" cy="652" r="6" class="c0"/>
<circle cx="628" cy="642" r="6" class="c0"/>
<circle cx="1182" cy="628" r="6" class="c0"/>
<circle cx="1280" cy="702" r="6" class="c0"/>
<circle cx="1192" cy="682" r="6" class="c0"/>
<circle cx="1216" cy="620" r="6" class="c0"/>
<circle cx="1096" cy="480" r="6" class="c0"/>
<circle cx="1336" cy="652" r="6" class="c0"/>
<circle cx="1382" cy="770" r="6" class="c0"/>
</svg>
