<?xml version="1.0" encoding="utf-8"?>
<svg xmlns="http://www.w3.org/2000/svg"
     xmlns:xlink="http://www.w3.org/1999/xlink" width="1920" height="1440" >

            <defs>
            <style type="text/css"><![CDATA[
circle {stroke: none;}
.c0 {fill: #FFFFFF;}
]]></style>
            </defs>
<rect x="0" y="0" width="1920" height="1440" fill="black"/>
<circle cx="1022" cy="680" r="14" class="c0"/>
<circle cx="760" cy="668" r="12" class="c0"/>
<circle cx="1326" cy="648" r="12" class="c0"/>
<circle cx="1420" cy="690" r="12" class="c0"/>
<circle cx="1358" cy="700" r="12" class="c0"/>
<circle cx="1386" cy="746" r="12" class="c0"/>
<circle cx="1112" cy="454" r="12" class="c0"/>
<circle cx="1350" cy="724" r="12" class="c0"/>
<circle cx="1036" cy="550" r="12" class="c0"/>
<circle cx="1130" cy="554" r="12" class="c0"/>
<circle cx="1268" cy="670" r="12" class="c0"/>
<circle cx="936" cy="672" r="12" class="c0"/>
<circle cx="1116" cy="732" r="12" class="c0"/>
<circle cx="1038" cy="410" r="12" class="c0"/>
<circle cx="1090" cy="754" r="12" class="c0"/>
<circle cx="1100" cy="482" r="12" class="c0"/>
<circle cx="1240" cy="720" r="12" class="c0"/>
<circle cx="1090" cy="630" r="12" class="c0"/>
<circle cx="994" cy="376" r="12" class="c0"/>
<circle cx="1192" cy="662" r="10" class="c0"/>
<circle cx="1082" cy="578" r="10" class="c0"/>
<circle cx="970" cy="522" r="10" class="c0"/>
<circle cx="1078" cy="446" r="10" class="c0"/>
<circle cx="1122" cy="706" r="10" class="c0"/>
<circle cx="1162" cy="698" r="10" class="c0"/>
<circle cx="1036" cy="616" r="10" class="c0"/>
<circle cx="1064" cy="524" r="10" class="c0"/>
<circle cx="1026" cy="364" r="10" class="c0"/>
<circle cx="1058" cy="464" r="10" class="c0"/>
<circle cx="1122" cy="624" r="10" class="c0"/>
<circle cx="1436" cy="708" r="10" class="c0"/>
<circle cx="1114" cy="646" r="10" class="c0"/>
<circle cx="1406" cy="660" r="10" class="c0"/>
<circle cx="980" cy="672" r="10" class="c0"/>
<circle cx="802" cy="666" r="10" class="c0"/>
<circle cx="1344" cy="632" r="10" class="c0"/>
<circle cx="1026" cy="520" r="10" class="c0"/>
<circle cx="1048" cy="352" r="10" class="c0"/>
<circle cx="1300" cy="710" r="10" class="c0"/>
<circle cx="1116" cy="598" r="10" class="c0"/>
<circle cx="1230" cy="688" r="10" class="c0"/>
<circle cx="930" cy="372" r="10" class="c0"/>
<circle cx="970" cy="394" r="10" class="c0"/>
<circle cx="1128" cy="670" r="10" class="c0"/>
<circle cx="988" cy="694" r="10" class="c0"/>
<circle cx="1472" cy="724" r="10" class="c0"/>
<circle cx="1160" cy="642" r="10" class="c0"/>
<circle cx="902" cy="368" r="10" class="c0"/>
<circle cx="1360" cy="676" r="10" class="c0"/>
<circle cx="1208" cy="690" r="10" class="c0"/>
<circle cx="846" cy="666" r="10" class="c0"/>
<circle cx="1166" cy="676" r="10" class="c0"/>
<circle cx="1128" cy="476" r="10" class="c0"/>
<circle cx="1278" cy="692" r="10" class="c0"/>
<circle cx="1046" cy="504" r="10" class="c0"/>
<circle cx="914" cy="354" r="10" class="c0"/>
<circle cx="1004" cy="412" r="10" class="c0"/>
<circle cx="1286" cy="640" r="10" class="c0"/>
<circle cx="1008" cy="350" r="10" class="c0"/>
<circle cx="998" cy="504" r="10" class="c0"/>
<circle cx="1404" cy="732" r="10" class="c0"/>
<circle cx="672" cy="672" r="10" class="c0"/>
<circle cx="1444" cy="686" r="10" class="c0"/>
<circle cx="978" cy="428" r="10" class="c0"/>
<circle cx="1430" cy="664" r="10" class="c0"/>
<circle cx="630" cy="646" r="10" class="c0"/>
<circle cx="1078" cy="492" r="10" class="c0"/>
<circle cx="1254" cy="688" r="10" class="c0"/>
<circle cx="1092" cy="670" r="10" class="c0"/>
<circle cx="1388" cy="634" r="10" class="c0"/>
<circle cx="1388" cy="694" r="10" class="c0"/>
<circle cx="1090" cy="598" r="10" class="c0"/>
<circle cx="962" cy="606" r="10" class="c0"/>
<circle cx="1064" cy="640" r="10" class="c0"/>
<circle cx="692" cy="662" r="10" class="c0"/>
<circle cx="1024" cy="474" r="10" class="c0"/>
<circle cx="726" cy="654" r="10" class="c0"/>
<circle cx="1024" cy="706" r="10" class="c0"/>
<circle cx="1326" cy="738" r="10" class="c0"/>
<circle cx="1040" cy="446" r="10" class="c0"/>
<circle cx="1376" cy="646" r="10" class="c0"/>
<circle cx="1164" cy="598" r="10" class="c0"/>
<circle cx="1232" cy="650" r="10" class="c0"/>
<circle cx="1422" cy="742" r="10" class="c0"/>
<circle cx="1128" cy="498" r="8" class="c0"/>
<circle cx="1014" cy="396" r="8" class="c0"/>
<circle cx="910" cy="670" r="8" class="c0"/>
<circle cx="1264" cy="712" r="8" class="c0"/>
<circle cx="1000" cy="434" r="8" class="c0"/>
<circle cx="1326" cy="686" r="8" class="c0"/>
<circle cx="1138" cy="576" r="8" class="c0"/>
<circle cx="1102" cy="426" r="8" class="c0"/>
<circle cx="1106" cy="560" r="8" class="c0"/>
<circle cx="1140" cy="464" r="8" class="c0"/>
<circle cx="1032" cy="652" r="8" class="c0"/>
<circle cx="808" cy="714" r="8" class="c0"/>
<circle cx="1196" cy="630" r="8" class="c0"/>
<circle cx="1306" cy="656" r="8" class="c0"/>
<circle cx="1474" cy="680" r="8" class="c0"/>
<circle cx="1072" cy="352" r="8" class="c0"/>
<circle cx="1054" cy="582" r="8" class="c0"/>
<circle cx="1060" cy="544" r="8" class="c0"/>
<circle cx="922" cy="320" r="8" class="c0"/>
<circle cx="950" cy="412" r="8" class="c0"/>
<circle cx="1068" cy="700" r="8" class="c0"/>
<circle cx="920" cy="390" r="8" class="c0"/>
<circle cx="1068" cy="594" r="8" class="c0"/>
<circle cx="1028" cy="338" r="8" class="c0"/>
<circle cx="1120" cy="762" r="8" class="c0"/>
<circle cx="1414" cy="770" r="8" class="c0"/>
<circle cx="1034" cy="582" r="8" class="c0"/>
<circle cx="1306" cy="690" r="8" class="c0"/>
<circle cx="946" cy="490" r="8" class="c0"/>
<circle cx="654" cy="650" r="8" class="c0"/>
<circle cx="1026" cy="428" r="8" class="c0"/>
<circle cx="1456" cy="714" r="8" class="c0"/>
<circle cx="1334" cy="708" r="8" class="c0"/>
<circle cx="1044" cy="592" r="8" class="c0"/>
<circle cx="1212" cy="652" r="8" class="c0"/>
<circle cx="962" cy="702" r="8" class="c0"/>
<circle cx="1024" cy="570" r="8" class="c0"/>
<circle cx="980" cy="452" r="8" class="c0"/>
<circle cx="928" cy="342" r="8" class="c0"/>
<circle cx="1294" cy="678" r="8" class="c0"/>
<circle cx="1280" cy="722" r="8" class="c0"/>
<circle cx="992" cy="542" r="8" class="c0"/>
<circle cx="952" cy="380" r="8" class="c0"/>
<circle cx="1420" cy="638" r="8" class="c0"/>
<circle cx="976" cy="364" r="8" class="c0"/>
<circle cx="1108" cy="580" r="8" class="c0"/>
<circle cx="872" cy="676" r="8" class="c0"/>
<circle cx="1042" cy="388" r="8" class="c0"/>
<circle cx="1170" cy="490" r="8" class="c0"/>
<circle cx="1008" cy="638" r="8" class="c0"/>
<circle cx="606" cy="640" r="8" class="c0"/>
<circle cx="822" cy="724" r="8" class="c0"/>
<circle cx="1020" cy="500" r="8" class="c0"/>
<circle cx="1058" cy="670" r="8" class="c0"/>
<circle cx="1018" cy="454" r="8" class="c0"/>
<circle cx="1068" cy="616" r="8" class="c0"/>
<circle cx="932" cy="470" r="8" class="c0"/>
<circle cx="1070" cy="560" r="8" class="c0"/>
<circle cx="788" cy="688" r="8" class="c0"/>
<circle cx="1134" cy="644" r="8" class="c0"/>
<circle cx="1082" cy="466" r="8" class="c0"/>
<circle cx="1100" cy="698" r="8" class="c0"/>
<circle cx="956" cy="664" r="8" class="c0"/>
<circle cx="1052" cy="562" r="8" class="c0"/>
<circle cx="1062" cy="366" r="8" class="c0"/>
<circle cx="980" cy="570" r="8" class="c0"/>
<circle cx="1186" cy="698" r="8" class="c0"/>
<circle cx="1210" cy="716" r="8" class="c0"/>
<circle cx="1048" cy="534" r="8" class="c0"/>
<circle cx="1054" cy="434" r="8" class="c0"/>
<circle cx="1040" cy="696" r="8" class="c0"/>
<circle cx="1344" cy="662" r="8" class="c0"/>
<circle cx="1108" cy="502" r="8" class="c0"/>
<circle cx="950" cy="468" r="8" class="c0"/>
<circle cx="1402" cy="680" r="8" class="c0"/>
<circle cx="1182" cy="640" r="8" class="c0"/>
<circle cx="714" cy="670" r="8" class="c0"/>
<circle cx="734" cy="672" r="8" class="c0"/>
<circle cx="1072" cy="420" r="8" class="c0"/>
<circle cx="1008" cy="532" r="8" class="c0"/>
<circle cx="992" cy="654" r="8" class="c0"/>
<circle cx="1136" cy="610" r="8" class="c0"/>
<circle cx="956" cy="500" r="8" class="c0"/>
<circle cx="1242" cy="670" r="8" class="c0"/>
<circle cx="986" cy="346" r="8" class="c0"/>
<circle cx="1264" cy="644" r="8" class="c0"/>
<circle cx="972" cy="586" r="8" class="c0"/>
<circle cx="996" cy="714" r="8" class="c0"/>
<circle cx="1288" cy="660" r="8" class="c0"/>
<circle cx="1086" cy="722" r="8" class="c0"/>
<circle cx="1346" cy="746" r="8" class="c0"/>
<circle cx="1092" cy="360" r="8" class="c0"/>
<circle cx="1152" cy="476" r="8" class="c0"/>
<circle cx="1356" cy="652" r="8" class="c0"/>
<circle cx="972" cy="548" r="8" class="c0"/>
<circle cx="1056" cy="488" r="8" class="c0"/>
<circle cx="1008" cy="662" r="8" class="c0"/>
<circle cx="1374" cy="720" r="8" class="c0"/>
<circle cx="1076" cy="658" r="8" class="c0"/>
<circle cx="1148" cy="588" r="8" class="c0"/>
<circle cx="1142" cy="692" r="8" class="c0"/>
<circle cx="1072" cy="680" r="8" class="c0"/>
<circle cx="1186" cy="616" r="8" class="c0"/>
<circle cx="1408" cy="626" r="8" class="c0"/>
<circle cx="826" cy="670" r="8" class="c0"/>
<circle cx="1134" cy="530" r="8" class="c0"/>
<circle cx="1050" cy="706" r="8" class="c0"/>
<circle cx="940" cy="398" r="8" class="c0"/>
<circle cx="1366" cy="738" r="8" class="c0"/>
<circle cx="1262" cy="730" r="8" class="c0"/>
<circle cx="1302" cy="630" r="8" class="c0"/>
<circle cx="1412" cy="710" r="8" class="c0"/>
<circle cx="1008" cy="486" r="8" class="c0"/>
<circle cx="888" cy="666" r="8" class="c0"/>
<circle cx="1130" cy="750" r="8" class="c0"/>
<circle cx="1440" cy="732" r="8" class="c0"/>
<circle cx="1220" cy="670" r="8" class="c0"/>
<circle cx="1008" cy="464" r="8" class="c0"/>
<circle cx="940" cy="332" r="8" class="c0"/>
<circle cx="1364" cy="634" r="8" class="c0"/>
<circle cx="1308" cy="728" r="8" class="c0"/>
<circle cx="1148" cy="662" r="8" class="c0"/>
<circle cx="1010" cy="556" r="8" class="c0"/>
<circle cx="1290" cy="736" r="8" class="c0"/>
<circle cx="1484" cy="704" r="8" class="c0"/>
<circle cx="946" cy="646" r="8" class="c0"/>
<circle cx="768" cy="694" r="8" class="c0"/>
<circle cx="1050" cy="686" r="8" class="c0"/>
<circle cx="1384" cy="670" r="8" class="c0"/>
<circle cx="1396" cy="764" r="8" class="c0"/>
<circle cx="798" cy="704" r="8" class="c0"/>
<circle cx="1144" cy="628" r="8" class="c0"/>
<circle cx="1052" cy="628" r="8" class="c0"/>
<circle cx="1036" cy="486" r="8" class="c0"/>
<circle cx="1110" cy="684" r="8" class="c0"/>
<circle cx="1218" cy="630" r="8" class="c0"/>
<circle cx="1196" cy="598" r="8" class="c0"/>
<circle cx="954" cy="628" r="8" class="c0"/>
<circle cx="1172" cy="654" r="8" class="c0"/>
<circle cx="676" cy="648" r="8" class="c0"/>
<circle cx="782" cy="658" r="8" class="c0"/>
<circle cx="964" cy="682" r="8" class="c0"/>
<circle cx="1110" cy="372" r="8" class="c0"/>
<circle cx="910" cy="334" r="8" class="c0"/>
<circle cx="614" cy="658" r="6" class="c0"/>
<circle cx="1062" cy="336" r="6" class="c0"/>
<circle cx="1236" cy="632" r="6" class="c0"/>
<circle cx="884" cy="356" r="6" class="c0"/>
<circle cx="1466" cy="694" r="6" class="c0"/>
<circle cx="996" cy="450" r="6" class="c0"/>
<circle cx="1056" cy="604" r="6" class="c0"/>
<circle cx="1090" cy="688" r="6" class="c0"/>
<circle cx="972" cy="714" r="6" class="c0"/>
<circle cx="1142" cy="488" r="6" class="c0"/>
<circle cx="1102" cy="720" r="6" class="c0"/>
<circle cx="1084" cy="706" r="6" class="c0"/>
<circle cx="1086" cy="430" r="6" class="c0"/>
<circle cx="1018" cy="628" r="6" class="c0"/>
<circle cx="1042" cy="640" r="6" class="c0"/>
<circle cx="1344" cy="684" r="6" class="c0"/>
<circle cx="1038" cy="464" r="6" class="c0"/>
<circle cx="968" cy="414" r="6" class="c0"/>
<circle cx="1452" cy="668" r="6" class="c0"/>
<circle cx="1318" cy="712" r="6" class="c0"/>
<circle cx="1208" cy="618" r="6" class="c0"/>
<circle cx="748" cy="650" r="6" class="c0"/>
<circle cx="1318" cy="628" r="6" class="c0"/>
<circle cx="1220" cy="704" r="6" class="c0"/>
<circle cx="1120" cy="570" r="6" class="c0"/>
<circle cx="640" cy="660" r="6" class="c0"/>
<circle cx="702" cy="646" r="6" class="c0"/>
<circle cx="1074" cy="510" r="6" class="c0"/>
<circle cx="1190" cy="682" r="6" class="c0"/>
<circle cx="1076" cy="540" r="6" class="c0"/>
<circle cx="1392" cy="716" r="6" class="c0"/>
<circle cx="1158" cy="500" r="6" class="c0"/>
<circle cx="1238" cy="598" r="6" class="c0"/>
<circle cx="1424" cy="722" r="6" class="c0"/>
<circle cx="990" cy="396" r="6" class="c0"/>
<circle cx="690" cy="680" r="6" class="c0"/>
<circle cx="1410" cy="754" r="6" class="c0"/>
<circle cx="1320" cy="668" r="6" class="c0"/>
<circle cx="1364" cy="758" r="6" class="c0"/>
<circle cx="1014" cy="378" r="6" class="c0"/>
<circle cx="988" cy="526" r="6" class="c0"/>
<circle cx="1018" cy="542" r="6" class="c0"/>
<circle cx="1092" cy="508" r="6" class="c0"/>
<circle cx="1220" cy="596" r="6" class="c0"/>
<circle cx="1042" cy="664" r="6" class="c0"/>
<circle cx="1120" cy="512" r="6" class="c0"/>
<circle cx="1008" cy="698" r="6" class="c0"/>
<circle cx="946" cy="452" r="6" class="c0"/>
<circle cx="1126" cy="442" r="6" class="c0"/>
<circle cx="966" cy="440" r="6" class="c0"/>
<circle cx="1060" cy="716" r="6" class="c0"/>
<circle cx="1058" cy="408" r="6" class="c0"/>
<circle cx="1116" cy="536" r="6" class="c0"/>
<circle cx="1026" cy="384" r="6" class="c0"/>
<circle cx="1000" cy="676" r="6" class="c0"/>
<circle cx="744" cy="686" r="6" class="c0"/>
<circle cx="986" cy="410" r="6" class="c0"/>
<circle cx="1050" cy="650" r="6" class="c0"/>
<circle cx="1102" cy="616" r="6" class="c0"/>
<circle cx="1148" cy="540" r="6" class="c0"/>
<circle cx="1098" cy="442" r="6" class="c0"/>
<circle cx="1374" cy="622" r="6" class="c0"/>
<circle cx="1468" cy="742" r="6" class="c0"/>
<circle cx="1168" cy="626" r="6" class="c0"/>
<circle cx="778" cy="678" r="6" class="c0"/>
<circle cx="990" cy="558" r="6" class="c0"/>
<circle cx="1128" cy="374" r="6" class="c0"/>
<circle cx="1252" cy="656" r="6" class="c0"/>
<circle cx="1108" cy="544" r="6" class="c0"/>
<circle cx="922" cy="658" r="6" class="c0"/>
<circle cx="1046" cy="476" r="6" class="c0"/>
<circle cx="1242" cy="700" r="6" class="c0"/>
<circle cx="1092" cy="456" r="6" class="c0"/>
<circle cx="960" cy="422" r="6" class="c0"/>
<circle cx="1028" cy="636" r="6" class="c0"/>
<circle cx="1170" cy="472" r="6" class="c0"/>
<circle cx="1046" cy="334" r="6" class="c0"/>
<circle cx="1044" cy="372" r="6" class="c0"/>
<circle cx="1086" cy="558" r="6" class="c0"/>
<circle cx="864" cy="662" r="6" class="c0"/>
<circle cx="906" cy="318" r="6" class="c0"/>
<circle cx="920" cy="682" r="6" class="c0"/>
<circle cx="1064" cy="502" r="6" class="c0"/>
<circle cx="1148" cy="564" r="6" class="c0"/>
<circle cx="960" cy="366" r="6" class="c0"/>
<circle cx="900" cy="680" r="6" class="c0"/>
<circle cx="930" cy="648" r="6" class="c0"/>
<circle cx="1194" cy="712" r="6" class="c0"/>
<circle cx="1336" cy="676" r="6" class="c0"/>
<circle cx="1094" cy="650" r="6" class="c0"/>
<circle cx="946" cy="364" r="6" class="c0"/>
<circle cx="1246" cy="640" r="6" class="c0"/>
<circle cx="1110" cy="752" r="6" class="c0"/>
<circle cx="1456" cy="736" r="6" class="c0"/>
<circle cx="930" cy="486" r="6" class="c0"/>
<circle cx="1438" cy="750" r="6" class="c0"/>
<circle cx="1110" cy="664" r="6" class="c0"/>
<circle cx="1118" cy="434" r="6" class="c0"/>
<circle cx="1096" cy="734" r="6" class="c0"/>
<circle cx="1404" cy="642" r="6" class="c0"/>
<circle cx="1016" cy="438" r="6" class="c0"/>
<circle cx="1070" cy="476" r="6" class="c0"/>
<circle cx="1012" cy="332" r="6" class="c0"/>
<circle cx="1126" cy="688" r="6" class="c0"/>
<circle cx="948" cy="686" r="6" class="c0"/>
<circle cx="998" cy="336" r="6" class="c0"/>
<circle cx="1128" cy="586" r="6" class="c0"/>
</svg>
