<?xml version="1.0" encoding="utf-8"?>
<svg xmlns="http://www.w3.org/2000/svg"
     xmlns:xlink="http://www.w3.org/1999/xlink" width="1920" height="1440" >

            <defs>
            <style type="text/css"><![CDATA[
circle {stroke: none;}
.c0 {fill: #FFFFFF;}
]]></style>
            </defs>
<rect x="0" y="0" width="1920" height="1440" fill="black"/>
<circle cx="1134" cy="1396" r="14" class="c0"/>
<circle cx="912" cy="1086" r="14" class="c0"/>
<circle cx="1070" cy="1258" r="14" class="c0"/>
<circle cx="1176" cy="1286" r="14" class="c0"/>
<circle cx="1216" cy="832" r="12" class="c0"/>
<circle cx="1018" cy="1124" r="12" class="c0"/>
<circle cx="1276" cy="1232" r="12" class="c0"/>
<circle cx="1044" cy="1378" r="12" class="c0"/>
<circle cx="1150" cy="1200" r="12" class="c0"/>
<circle cx="958" cy="1266" r="12" class="c0"/>
<circle cx="1004" cy="344" r="12" class="c0"/>
<circle cx="1080" cy="1026" r="12" class="c0"/>
<circle cx="870" cy="1182" r="12" class="c0"/>
<circle cx="1156" cy="700" r="12" class="c0"/>
<circle cx="862" cy="1412" r="12" class="c0"/>
<circle cx="762" cy="1340" r="12" class="c0"/>
<circle cx="1024" cy="1054" r="12" class="c0"/>
<circle cx="1182" cy="1202" r="12" class="c0"/>
<circle cx="806" cy="1204" r="12" class="c0"/>
<circle cx="876" cy="1350" r="12" class="c0"/>
<circle cx="1082" cy="572" r="12" class="c0"/>
<circle cx="966" cy="752" r="12" class="c0"/>
<circle cx="1242" cy="1312" r="12" class="c0"/>
<circle cx="1124" cy="1152" r="12" class="c0"/>
<circle cx="714" cy="1278" r="12" class="c0"/>
<circle cx="1186" cy="76" r="12" class="c0"/>
<circle cx="1054" cy="388" r="12" class="c0"/>
<circle cx="1216" cy="108" r="12" class="c0"/>
<circle cx="824" cy="1276" r="12" class="c0"/>
<circle cx="946" cy="1194" r="12" class="c0"/>
<circle cx="892" cy="1124" r="12" class="c0"/>
<circle cx="1136" cy="634" r="12" class="c0"/>
<circle cx="1004" cy="1080" r="12" class="c0"/>
<circle cx="1180" cy="324" r="12" class="c0"/>
<circle cx="1134" cy="1356" r="12" class="c0"/>
<circle cx="1128" cy="898" r="12" class="c0"/>
<circle cx="1230" cy="1236" r="12" class="c0"/>
<circle cx="984" cy="1298" r="12" class="c0"/>
<circle cx="780" cy="1310" r="12" class="c0"/>
<circle cx="1092" cy="1176" r="12" class="c0"/>
<circle cx="1076" cy="924" r="12" class="c0"/>
<circle cx="1180" cy="390" r="12" class="c0"/>
<circle cx="1106" cy="1100" r="12" class="c0"/>
<circle cx="1172" cy="804" r="12" class="c0"/>
<circle cx="1060" cy="990" r="12" class="c0"/>
<circle cx="888" cy="1246" r="12" class="c0"/>
<circle cx="1162" cy="946" r="12" class="c0"/>
<circle cx="1222" cy="1364" r="12" class="c0"/>
<circle cx="894" cy="1318" r="12" class="c0"/>
<circle cx="930" cy="1400" r="12" class="c0"/>
<circle cx="1080" cy="508" r="12" class="c0"/>
<circle cx="746" cy="1250" r="12" class="c0"/>
<circle cx="1084" cy="850" r="12" class="c0"/>
<circle cx="1150" cy="1266" r="12" class="c0"/>
<circle cx="1216" cy="1046" r="12" class="c0"/>
<circle cx="1168" cy="618" r="12" class="c0"/>
<circle cx="1114" cy="244" r="12" class="c0"/>
<circle cx="1196" cy="992" r="12" class="c0"/>
<circle cx="996" cy="974" r="12" class="c0"/>
<circle cx="776" cy="1254" r="12" class="c0"/>
<circle cx="1052" cy="518" r="12" class="c0"/>
<circle cx="836" cy="1382" r="12" class="c0"/>
<circle cx="1168" cy="868" r="12" class="c0"/>
<circle cx="1020" cy="490" r="12" class="c0"/>
<circle cx="1020" cy="1258" r="10" class="c0"/>
<circle cx="1114" cy="1282" r="10" class="c0"/>
<circle cx="1108" cy="466" r="10" class="c0"/>
<circle cx="1156" cy="998" r="10" class="c0"/>
<circle cx="952" cy="1068" r="10" class="c0"/>
<circle cx="1142" cy="450" r="10" class="c0"/>
<circle cx="1140" cy="880" r="10" class="c0"/>
<circle cx="834" cy="1196" r="10" class="c0"/>
<circle cx="876" cy="1280" r="10" class="c0"/>
<circle cx="1182" cy="1010" r="10" class="c0"/>
<circle cx="1004" cy="1226" r="10" class="c0"/>
<circle cx="1132" cy="1092" r="10" class="c0"/>
<circle cx="1144" cy="1012" r="10" class="c0"/>
<circle cx="1202" cy="636" r="10" class="c0"/>
<circle cx="1202" cy="1338" r="10" class="c0"/>
<circle cx="1080" cy="1410" r="10" class="c0"/>
<circle cx="1334" cy="1408" r="10" class="c0"/>
<circle cx="1180" cy="930" r="10" class="c0"/>
<circle cx="1030" cy="308" r="10" class="c0"/>
<circle cx="1220" cy="1012" r="10" class="c0"/>
<circle cx="1196" cy="1132" r="10" class="c0"/>
<circle cx="1216" cy="950" r="10" class="c0"/>
<circle cx="948" cy="1244" r="10" class="c0"/>
<circle cx="1258" cy="1290" r="10" class="c0"/>
<circle cx="1096" cy="902" r="10" class="c0"/>
<circle cx="1200" cy="920" r="10" class="c0"/>
<circle cx="1296" cy="1348" r="10" class="c0"/>
<circle cx="1046" cy="1108" r="10" class="c0"/>
<circle cx="904" cy="1180" r="10" class="c0"/>
<circle cx="1122" cy="502" r="10" class="c0"/>
<circle cx="1150" cy="824" r="10" class="c0"/>
<circle cx="1124" cy="726" r="10" class="c0"/>
<circle cx="938" cy="1140" r="10" class="c0"/>
<circle cx="1294" cy="1320" r="10" class="c0"/>
<circle cx="896" cy="1404" r="10" class="c0"/>
<circle cx="1032" cy="418" r="10" class="c0"/>
<circle cx="1218" cy="1290" r="10" class="c0"/>
<circle cx="1086" cy="1060" r="10" class="c0"/>
<circle cx="1026" cy="392" r="10" class="c0"/>
<circle cx="990" cy="514" r="10" class="c0"/>
<circle cx="998" cy="748" r="10" class="c0"/>
<circle cx="1124" cy="424" r="10" class="c0"/>
<circle cx="1120" cy="180" r="10" class="c0"/>
<circle cx="1128" cy="1192" r="10" class="c0"/>
<circle cx="1246" cy="1258" r="10" class="c0"/>
<circle cx="954" cy="1166" r="10" class="c0"/>
<circle cx="1028" cy="512" r="10" class="c0"/>
<circle cx="1050" cy="1238" r="10" class="c0"/>
<circle cx="1190" cy="1088" r="10" class="c0"/>
<circle cx="1062" cy="730" r="10" class="c0"/>
<circle cx="1148" cy="1300" r="10" class="c0"/>
<circle cx="964" cy="1426" r="10" class="c0"/>
<circle cx="1074" cy="1338" r="10" class="c0"/>
<circle cx="1096" cy="1250" r="10" class="c0"/>
<circle cx="1090" cy="942" r="10" class="c0"/>
<circle cx="1150" cy="160" r="10" class="c0"/>
<circle cx="1094" cy="802" r="10" class="c0"/>
<circle cx="1094" cy="664" r="10" class="c0"/>
<circle cx="1074" cy="680" r="10" class="c0"/>
<circle cx="1006" cy="1416" r="10" class="c0"/>
<circle cx="1130" cy="686" r="10" class="c0"/>
<circle cx="1060" cy="890" r="10" class="c0"/>
<circle cx="972" cy="1404" r="10" class="c0"/>
<circle cx="1260" cy="1368" r="10" class="c0"/>
<circle cx="1054" cy="550" r="10" class="c0"/>
<circle cx="1184" cy="724" r="10" class="c0"/>
<circle cx="994" cy="1388" r="10" class="c0"/>
<circle cx="1118" cy="808" r="10" class="c0"/>
<circle cx="1146" cy="848" r="10" class="c0"/>
<circle cx="864" cy="1292" r="10" class="c0"/>
<circle cx="1062" cy="694" r="10" class="c0"/>
<circle cx="1158" cy="1348" r="10" class="c0"/>
<circle cx="1152" cy="1038" r="10" class="c0"/>
<circle cx="1164" cy="342" r="10" class="c0"/>
<circle cx="1196" cy="668" r="10" class="c0"/>
<circle cx="1090" cy="1124" r="10" class="c0"/>
<circle cx="1194" cy="1156" r="10" class="c0"/>
<circle cx="1058" cy="1044" r="10" class="c0"/>
<circle cx="954" cy="1098" r="10" class="c0"/>
<circle cx="1102" cy="562" r="10" class="c0"/>
<circle cx="1056" cy="622" r="10" class="c0"/>
<circle cx="692" cy="1268" r="10" class="c0"/>
<circle cx="1260" cy="1098" r="10" class="c0"/>
<circle cx="1144" cy="922" r="10" class="c0"/>
<circle cx="972" cy="1082" r="10" class="c0"/>
<circle cx="996" cy="922" r="10" class="c0"/>
<circle cx="1028" cy="360" r="10" class="c0"/>
<circle cx="1112" cy="676" r="10" class="c0"/>
<circle cx="800" cy="1294" r="10" class="c0"/>
<circle cx="1132" cy="364" r="10" class="c0"/>
<circle cx="970" cy="830" r="10" class="c0"/>
<circle cx="1196" cy="138" r="10" class="c0"/>
<circle cx="966" cy="784" r="10" class="c0"/>
<circle cx="1130" cy="522" r="10" class="c0"/>
<circle cx="790" cy="1366" r="10" class="c0"/>
<circle cx="966" cy="1120" r="10" class="c0"/>
<circle cx="1182" cy="966" r="10" class="c0"/>
<circle cx="810" cy="1314" r="10" class="c0"/>
<circle cx="1064" cy="482" r="10" class="c0"/>
<circle cx="1106" cy="1320" r="10" class="c0"/>
<circle cx="952" cy="1358" r="10" class="c0"/>
<circle cx="1172" cy="1066" r="10" class="c0"/>
<circle cx="1250" cy="1394" r="10" class="c0"/>
<circle cx="1190" cy="852" r="10" class="c0"/>
<circle cx="1108" cy="334" r="10" class="c0"/>
<circle cx="1014" cy="712" r="10" class="c0"/>
<circle cx="1076" cy="1190" r="10" class="c0"/>
<circle cx="1014" cy="430" r="10" class="c0"/>
<circle cx="1208" cy="886" r="10" class="c0"/>
<circle cx="1084" cy="472" r="10" class="c0"/>
<circle cx="898" cy="1278" r="10" class="c0"/>
<circle cx="1044" cy="1328" r="10" class="c0"/>
<circle cx="1124" cy="604" r="10" class="c0"/>
<circle cx="984" cy="842" r="10" class="c0"/>
<circle cx="1058" cy="1426" r="10" class="c0"/>
<circle cx="1140" cy="1126" r="10" class="c0"/>
<circle cx="1236" cy="1212" r="10" class="c0"/>
<circle cx="882" cy="1390" r="10" class="c0"/>
<circle cx="1006" cy="950" r="10" class="c0"/>
<circle cx="990" cy="1212" r="10" class="c0"/>
<circle cx="1110" cy="1222" r="10" class="c0"/>
<circle cx="1230" cy="1088" r="10" class="c0"/>
<circle cx="1310" cy="1292" r="10" class="c0"/>
<circle cx="1024" cy="1364" r="10" class="c0"/>
<circle cx="1210" cy="1186" r="10" class="c0"/>
<circle cx="1112" cy="536" r="10" class="c0"/>
<circle cx="1096" cy="702" r="10" class="c0"/>
<circle cx="970" cy="1320" r="10" class="c0"/>
<circle cx="1078" cy="742" r="10" class="c0"/>
<circle cx="990" cy="1030" r="10" class="c0"/>
<circle cx="1110" cy="1342" r="10" class="c0"/>
<circle cx="866" cy="1134" r="10" class="c0"/>
<circle cx="768" cy="1212" r="10" class="c0"/>
<circle cx="1114" cy="1038" r="10" class="c0"/>
<circle cx="920" cy="1210" r="10" class="c0"/>
<circle cx="1078" cy="368" r="10" class="c0"/>
<circle cx="1068" cy="1218" r="10" class="c0"/>
<circle cx="1074" cy="970" r="10" class="c0"/>
<circle cx="1204" cy="1400" r="10" class="c0"/>
<circle cx="1240" cy="1418" r="10" class="c0"/>
<circle cx="1024" cy="664" r="10" class="c0"/>
<circle cx="1100" cy="436" r="10" class="c0"/>
<circle cx="1172" cy="1104" r="10" class="c0"/>
<circle cx="1026" cy="740" r="10" class="c0"/>
<circle cx="1042" cy="1216" r="10" class="c0"/>
<circle cx="1176" cy="1384" r="10" class="c0"/>
<circle cx="1210" cy="1070" r="10" class="c0"/>
<circle cx="1066" cy="342" r="10" class="c0"/>
<circle cx="840" cy="1250" r="10" class="c0"/>
<circle cx="1086" cy="1384" r="10" class="c0"/>
<circle cx="1172" cy="198" r="10" class="c0"/>
<circle cx="902" cy="1144" r="10" class="c0"/>
<circle cx="1134" cy="1312" r="10" class="c0"/>
<circle cx="1262" cy="1326" r="10" class="c0"/>
<circle cx="1134" cy="664" r="10" class="c0"/>
<circle cx="1088" cy="324" r="10" class="c0"/>
<circle cx="1190" cy="1418" r="10" class="c0"/>
<circle cx="936" cy="1288" r="10" class="c0"/>
<circle cx="1132" cy="776" r="10" class="c0"/>
<circle cx="1040" cy="1270" r="10" class="c0"/>
<circle cx="1162" cy="910" r="10" class="c0"/>
<circle cx="1064" cy="1154" r="10" class="c0"/>
<circle cx="1046" cy="776" r="10" class="c0"/>
<circle cx="1308" cy="1402" r="10" class="c0"/>
<circle cx="1148" cy="1424" r="10" class="c0"/>
<circle cx="1206" cy="714" r="10" class="c0"/>
<circle cx="1042" cy="930" r="10" class="c0"/>
<circle cx="988" cy="878" r="10" class="c0"/>
<circle cx="782" cy="1230" r="10" class="c0"/>
<circle cx="1042" cy="644" r="10" class="c0"/>
<circle cx="1120" cy="966" r="10" class="c0"/>
<circle cx="1144" cy="718" r="10" class="c0"/>
<circle cx="1274" cy="1394" r="10" class="c0"/>
<circle cx="1028" cy="450" r="10" class="c0"/>
<circle cx="1008" cy="1170" r="10" class="c0"/>
<circle cx="1074" cy="290" r="10" class="c0"/>
<circle cx="830" cy="1358" r="10" class="c0"/>
<circle cx="1162" cy="644" r="10" class="c0"/>
<circle cx="1098" cy="634" r="10" class="c0"/>
<circle cx="1154" cy="758" r="10" class="c0"/>
<circle cx="738" cy="1218" r="10" class="c0"/>
<circle cx="1016" cy="1148" r="10" class="c0"/>
<circle cx="1070" cy="1116" r="10" class="c0"/>
<circle cx="806" cy="1246" r="10" class="c0"/>
<circle cx="1186" cy="1178" r="10" class="c0"/>
<circle cx="1210" cy="84" r="10" class="c0"/>
<circle cx="1182" cy="1328" r="10" class="c0"/>
<circle cx="1086" cy="1208" r="10" class="c0"/>
<circle cx="1126" cy="830" r="10" class="c0"/>
<circle cx="1232" cy="996" r="10" class="c0"/>
<circle cx="938" cy="1220" r="10" class="c0"/>
<circle cx="910" cy="1374" r="10" class="c0"/>
<circle cx="994" cy="1328" r="10" class="c0"/>
<circle cx="1116" cy="920" r="10" class="c0"/>
<circle cx="846" cy="1312" r="10" class="c0"/>
<circle cx="1066" cy="1308" r="10" class="c0"/>
<circle cx="1136" cy="396" r="10" class="c0"/>
<circle cx="950" cy="1306" r="10" class="c0"/>
<circle cx="1006" cy="316" r="10" class="c0"/>
<circle cx="982" cy="702" r="10" class="c0"/>
<circle cx="1210" cy="1106" r="10" class="c0"/>
<circle cx="1164" cy="136" r="10" class="c0"/>
<circle cx="1062" cy="598" r="10" class="c0"/>
<circle cx="1228" cy="1340" r="8" class="c0"/>
<circle cx="1118" cy="940" r="8" class="c0"/>
<circle cx="1154" cy="432" r="8" class="c0"/>
<circle cx="916" cy="1322" r="8" class="c0"/>
<circle cx="1002" cy="724" r="8" class="c0"/>
<circle cx="1002" cy="1248" r="8" class="c0"/>
<circle cx="1152" cy="366" r="8" class="c0"/>
<circle cx="1044" cy="322" r="8" class="c0"/>
<circle cx="1092" cy="758" r="8" class="c0"/>
<circle cx="944" cy="1382" r="8" class="c0"/>
<circle cx="918" cy="1260" r="8" class="c0"/>
<circle cx="1016" cy="1012" r="8" class="c0"/>
<circle cx="960" cy="1290" r="8" class="c0"/>
<circle cx="1002" cy="1346" r="8" class="c0"/>
<circle cx="780" cy="1190" r="8" class="c0"/>
<circle cx="1138" cy="1236" r="8" class="c0"/>
<circle cx="1044" cy="1016" r="8" class="c0"/>
<circle cx="1190" cy="1258" r="8" class="c0"/>
<circle cx="1120" cy="994" r="8" class="c0"/>
<circle cx="1190" cy="606" r="8" class="c0"/>
<circle cx="1086" cy="1304" r="8" class="c0"/>
<circle cx="1204" cy="1022" r="8" class="c0"/>
<circle cx="970" cy="1188" r="8" class="c0"/>
<circle cx="1186" cy="764" r="8" class="c0"/>
<circle cx="1026" cy="966" r="8" class="c0"/>
<circle cx="1120" cy="310" r="8" class="c0"/>
<circle cx="1000" cy="814" r="8" class="c0"/>
<circle cx="858" cy="1230" r="8" class="c0"/>
<circle cx="1088" cy="346" r="8" class="c0"/>
<circle cx="966" cy="1370" r="8" class="c0"/>
<circle cx="986" cy="782" r="8" class="c0"/>
<circle cx="1108" cy="844" r="8" class="c0"/>
<circle cx="1198" cy="1294" r="8" class="c0"/>
<circle cx="1148" cy="246" r="8" class="c0"/>
<circle cx="1118" cy="1422" r="8" class="c0"/>
<circle cx="1144" cy="1168" r="8" class="c0"/>
<circle cx="1008" cy="1200" r="8" class="c0"/>
<circle cx="1040" cy="1406" r="8" class="c0"/>
<circle cx="1052" cy="420" r="8" class="c0"/>
<circle cx="1104" cy="876" r="8" class="c0"/>
<circle cx="1248" cy="1148" r="8" class="c0"/>
<circle cx="1166" cy="308" r="8" class="c0"/>
<circle cx="1284" cy="1298" r="8" class="c0"/>
<circle cx="950" cy="1048" r="8" class="c0"/>
<circle cx="1170" cy="1134" r="8" class="c0"/>
<circle cx="1112" cy="1260" r="8" class="c0"/>
<circle cx="1140" cy="108" r="8" class="c0"/>
<circle cx="1038" cy="688" r="8" class="c0"/>
<circle cx="1172" cy="688" r="8" class="c0"/>
<circle cx="1268" cy="1138" r="8" class="c0"/>
<circle cx="1154" cy="1086" r="8" class="c0"/>
<circle cx="1138" cy="1282" r="8" class="c0"/>
<circle cx="948" cy="806" r="8" class="c0"/>
<circle cx="1046" cy="274" r="8" class="c0"/>
<circle cx="1048" cy="456" r="8" class="c0"/>
<circle cx="1116" cy="1018" r="8" class="c0"/>
<circle cx="862" cy="1384" r="8" class="c0"/>
<circle cx="1098" cy="398" r="8" class="c0"/>
<circle cx="816" cy="1180" r="8" class="c0"/>
<circle cx="1194" cy="54" r="8" class="c0"/>
<circle cx="1316" cy="1378" r="8" class="c0"/>
<circle cx="1176" cy="1244" r="8" class="c0"/>
<circle cx="998" cy="390" r="8" class="c0"/>
<circle cx="1152" cy="588" r="8" class="c0"/>
<circle cx="1012" cy="380" r="8" class="c0"/>
<circle cx="1174" cy="98" r="8" class="c0"/>
<circle cx="1006" cy="1002" r="8" class="c0"/>
<circle cx="1176" cy="836" r="8" class="c0"/>
<circle cx="1234" cy="1056" r="8" class="c0"/>
<circle cx="988" cy="442" r="8" class="c0"/>
<circle cx="1236" cy="1274" r="8" class="c0"/>
<circle cx="1334" cy="1370" r="8" class="c0"/>
<circle cx="1062" cy="1400" r="8" class="c0"/>
<circle cx="702" cy="1242" r="8" class="c0"/>
<circle cx="828" cy="1152" r="8" class="c0"/>
<circle cx="980" cy="1346" r="8" class="c0"/>
<circle cx="1112" cy="618" r="8" class="c0"/>
<circle cx="856" cy="1152" r="8" class="c0"/>
<circle cx="1142" cy="316" r="8" class="c0"/>
<circle cx="1156" cy="390" r="8" class="c0"/>
<circle cx="1282" cy="1376" r="8" class="c0"/>
<circle cx="852" cy="1172" r="8" class="c0"/>
<circle cx="1150" cy="802" r="8" class="c0"/>
<circle cx="986" cy="1164" r="8" class="c0"/>
<circle cx="922" cy="1348" r="8" class="c0"/>
<circle cx="1034" cy="1310" r="8" class="c0"/>
<circle cx="988" cy="484" r="8" class="c0"/>
<circle cx="1078" cy="876" r="8" class="c0"/>
<circle cx="1074" cy="416" r="8" class="c0"/>
<circle cx="1120" cy="752" r="8" class="c0"/>
<circle cx="1214" cy="1266" r="8" class="c0"/>
<circle cx="1226" cy="1120" r="8" class="c0"/>
<circle cx="1186" cy="418" r="8" class="c0"/>
<circle cx="794" cy="1264" r="8" class="c0"/>
<circle cx="804" cy="1344" r="8" class="c0"/>
<circle cx="1140" cy="540" r="8" class="c0"/>
<circle cx="1054" cy="1136" r="8" class="c0"/>
<circle cx="794" cy="1180" r="8" class="c0"/>
<circle cx="1138" cy="1072" r="8" class="c0"/>
<circle cx="1244" cy="1182" r="8" class="c0"/>
<circle cx="1102" cy="722" r="8" class="c0"/>
<circle cx="1262" cy="1210" r="8" class="c0"/>
<circle cx="756" cy="1292" r="8" class="c0"/>
<circle cx="1058" cy="362" r="8" class="c0"/>
<circle cx="924" cy="1424" r="8" class="c0"/>
<circle cx="1130" cy="296" r="8" class="c0"/>
<circle cx="1144" cy="270" r="8" class="c0"/>
<circle cx="1220" cy="686" r="8" class="c0"/>
<circle cx="890" cy="1218" r="8" class="c0"/>
<circle cx="1104" cy="364" r="8" class="c0"/>
<circle cx="974" cy="1046" r="8" class="c0"/>
<circle cx="1030" cy="584" r="8" class="c0"/>
<circle cx="986" cy="370" r="8" class="c0"/>
<circle cx="1194" cy="944" r="8" class="c0"/>
<circle cx="1062" cy="1074" r="8" class="c0"/>
<circle cx="1224" cy="640" r="8" class="c0"/>
<circle cx="1082" cy="1230" r="8" class="c0"/>
<circle cx="1036" cy="1036" r="8" class="c0"/>
<circle cx="1224" cy="62" r="8" class="c0"/>
<circle cx="978" cy="1228" r="8" class="c0"/>
<circle cx="1020" cy="1298" r="8" class="c0"/>
<circle cx="1240" cy="1030" r="8" class="c0"/>
<circle cx="976" cy="914" r="8" class="c0"/>
<circle cx="1024" cy="988" r="8" class="c0"/>
<circle cx="1258" cy="1164" r="8" class="c0"/>
<circle cx="1184" cy="1036" r="8" class="c0"/>
<circle cx="1164" cy="448" r="8" class="c0"/>
<circle cx="742" cy="1302" r="8" class="c0"/>
<circle cx="1126" cy="856" r="8" class="c0"/>
<circle cx="1086" cy="278" r="8" class="c0"/>
<circle cx="1206" cy="1430" r="8" class="c0"/>
<circle cx="1286" cy="1420" r="8" class="c0"/>
<circle cx="1158" cy="558" r="8" class="c0"/>
<circle cx="1236" cy="974" r="8" class="c0"/>
<circle cx="1162" cy="180" r="8" class="c0"/>
<circle cx="1166" cy="282" r="8" class="c0"/>
<circle cx="972" cy="866" r="8" class="c0"/>
<circle cx="1264" cy="1250" r="8" class="c0"/>
<circle cx="1128" cy="204" r="8" class="c0"/>
<circle cx="1148" cy="568" r="8" class="c0"/>
<circle cx="1108" cy="1372" r="8" class="c0"/>
<circle cx="1034" cy="1160" r="8" class="c0"/>
<circle cx="1052" cy="1354" r="8" class="c0"/>
<circle cx="1106" cy="276" r="8" class="c0"/>
<circle cx="1114" cy="376" r="8" class="c0"/>
<circle cx="1168" cy="218" r="8" class="c0"/>
<circle cx="1068" cy="538" r="8" class="c0"/>
<circle cx="1016" cy="1278" r="8" class="c0"/>
<circle cx="1028" cy="1182" r="8" class="c0"/>
<circle cx="1148" cy="290" r="8" class="c0"/>
<circle cx="1202" cy="810" r="8" class="c0"/>
<circle cx="1218" cy="1166" r="8" class="c0"/>
<circle cx="1002" cy="1310" r="8" class="c0"/>
<circle cx="900" cy="1426" r="8" class="c0"/>
<circle cx="942" cy="1428" r="8" class="c0"/>
<circle cx="1044" cy="610" r="8" class="c0"/>
<circle cx="724" cy="1240" r="8" class="c0"/>
<circle cx="1092" cy="490" r="8" class="c0"/>
<circle cx="876" cy="1430" r="8" class="c0"/>
<circle cx="688" cy="1300" r="8" class="c0"/>
<circle cx="1090" cy="980" r="8" class="c0"/>
<circle cx="1052" cy="746" r="8" class="c0"/>
<circle cx="986" cy="1100" r="8" class="c0"/>
<circle cx="840" cy="1228" r="8" class="c0"/>
<circle cx="1130" cy="1216" r="8" class="c0"/>
<circle cx="1248" cy="1072" r="8" class="c0"/>
<circle cx="1090" cy="542" r="8" class="c0"/>
<circle cx="1076" cy="262" r="8" class="c0"/>
<circle cx="1046" cy="350" r="8" class="c0"/>
<circle cx="1214" cy="1220" r="8" class="c0"/>
<circle cx="892" cy="1192" r="8" class="c0"/>
<circle cx="1030" cy="1230" r="8" class="c0"/>
<circle cx="918" cy="1232" r="8" class="c0"/>
<circle cx="1188" cy="358" r="8" class="c0"/>
<circle cx="1072" cy="1086" r="8" class="c0"/>
<circle cx="1062" cy="646" r="8" class="c0"/>
<circle cx="778" cy="1284" r="8" class="c0"/>
<circle cx="838" cy="1138" r="8" class="c0"/>
<circle cx="1034" cy="706" r="8" class="c0"/>
<circle cx="1084" cy="1354" r="8" class="c0"/>
<circle cx="1164" cy="742" r="8" class="c0"/>
<circle cx="982" cy="1268" r="8" class="c0"/>
<circle cx="1068" cy="1366" r="8" class="c0"/>
<circle cx="846" cy="1338" r="8" class="c0"/>
<circle cx="1048" cy="494" r="8" class="c0"/>
<circle cx="854" cy="1268" r="8" class="c0"/>
<circle cx="1104" cy="592" r="8" class="c0"/>
<circle cx="980" cy="736" r="8" class="c0"/>
<circle cx="1104" cy="1006" r="8" class="c0"/>
<circle cx="1078" cy="448" r="8" class="c0"/>
<circle cx="1206" cy="616" r="8" class="c0"/>
<circle cx="1156" cy="414" r="8" class="c0"/>
<circle cx="1172" cy="592" r="8" class="c0"/>
<circle cx="1118" cy="444" r="8" class="c0"/>
<circle cx="1120" cy="1242" r="8" class="c0"/>
<circle cx="1210" cy="978" r="8" class="c0"/>
<circle cx="1140" cy="744" r="8" class="c0"/>
<circle cx="994" cy="1142" r="8" class="c0"/>
<circle cx="1116" cy="286" r="8" class="c0"/>
<circle cx="996" cy="1122" r="8" class="c0"/>
<circle cx="1146" cy="76" r="8" class="c0"/>
<circle cx="916" cy="1302" r="8" class="c0"/>
<circle cx="1226" cy="1142" r="8" class="c0"/>
<circle cx="724" cy="1338" r="8" class="c0"/>
<circle cx="1092" cy="612" r="8" class="c0"/>
<circle cx="1164" cy="1160" r="8" class="c0"/>
<circle cx="1088" cy="824" r="8" class="c0"/>
<circle cx="1144" cy="482" r="8" class="c0"/>
<circle cx="1084" cy="778" r="8" class="c0"/>
<circle cx="1222" cy="666" r="8" class="c0"/>
<circle cx="1088" cy="998" r="8" class="c0"/>
<circle cx="678" cy="1312" r="8" class="c0"/>
<circle cx="1252" cy="1230" r="8" class="c0"/>
<circle cx="1264" cy="1190" r="8" class="c0"/>
<circle cx="934" cy="1102" r="8" class="c0"/>
<circle cx="658" cy="1306" r="8" class="c0"/>
<circle cx="1198" cy="778" r="8" class="c0"/>
<circle cx="1054" cy="1282" r="8" class="c0"/>
<circle cx="1006" cy="466" r="8" class="c0"/>
<circle cx="1220" cy="130" r="8" class="c0"/>
<circle cx="950" cy="842" r="8" class="c0"/>
<circle cx="1158" cy="674" r="8" class="c0"/>
<circle cx="1106" cy="1396" r="8" class="c0"/>
<circle cx="1058" cy="312" r="8" class="c0"/>
<circle cx="1188" cy="110" r="8" class="c0"/>
<circle cx="750" cy="1322" r="8" class="c0"/>
<circle cx="1022" cy="290" r="8" class="c0"/>
<circle cx="1108" cy="1190" r="8" class="c0"/>
<circle cx="706" cy="1302" r="8" class="c0"/>
<circle cx="1052" cy="952" r="8" class="c0"/>
<circle cx="916" cy="1158" r="8" class="c0"/>
<circle cx="894" cy="1100" r="8" class="c0"/>
<circle cx="1040" cy="534" r="8" class="c0"/>
<circle cx="1296" cy="1278" r="8" class="c0"/>
<circle cx="1122" cy="556" r="8" class="c0"/>
<circle cx="1298" cy="1254" r="8" class="c0"/>
<circle cx="1118" cy="1122" r="8" class="c0"/>
<circle cx="890" cy="1164" r="8" class="c0"/>
<circle cx="1050" cy="576" r="8" class="c0"/>
<circle cx="700" cy="1322" r="8" class="c0"/>
<circle cx="1272" cy="1348" r="8" class="c0"/>
<circle cx="862" cy="1326" r="8" class="c0"/>
<circle cx="1106" cy="214" r="8" class="c0"/>
<circle cx="1180" cy="150" r="8" class="c0"/>
<circle cx="1196" cy="1312" r="8" class="c0"/>
<circle cx="944" cy="778" r="8" class="c0"/>
<circle cx="872" cy="1372" r="8" class="c0"/>
<circle cx="1136" cy="1334" r="8" class="c0"/>
<circle cx="834" cy="1328" r="8" class="c0"/>
<circle cx="872" cy="1312" r="8" class="c0"/>
<circle cx="1238" cy="1162" r="8" class="c0"/>
<circle cx="944" cy="1328" r="8" class="c0"/>
<circle cx="1018" cy="1404" r="8" class="c0"/>
<circle cx="704" cy="1224" r="8" class="c0"/>
<circle cx="1294" cy="1386" r="8" class="c0"/>
<circle cx="1062" cy="434" r="8" class="c0"/>
<circle cx="1032" cy="1200" r="8" class="c0"/>
<circle cx="1100" cy="1416" r="8" class="c0"/>
<circle cx="1094" cy="258" r="8" class="c0"/>
<circle cx="1174" cy="1360" r="8" class="c0"/>
<circle cx="854" cy="1202" r="8" class="c0"/>
<circle cx="1218" cy="910" r="8" class="c0"/>
<circle cx="498" cy="900" r="8" class="c0"/>
<circle cx="1306" cy="1428" r="8" class="c0"/>
<circle cx="1130" cy="332" r="8" class="c0"/>
<circle cx="1048" cy="972" r="8" class="c0"/>
<circle cx="1122" cy="348" r="8" class="c0"/>
<circle cx="1068" cy="944" r="8" class="c0"/>
<circle cx="1166" cy="1414" r="8" class="c0"/>
<circle cx="912" cy="1414" r="8" class="c0"/>
<circle cx="1064" cy="1014" r="8" class="c0"/>
<circle cx="970" cy="1244" r="8" class="c0"/>
<circle cx="1162" cy="578" r="8" class="c0"/>
<circle cx="1102" cy="500" r="8" class="c0"/>
<circle cx="786" cy="1342" r="8" class="c0"/>
<circle cx="1188" cy="908" r="8" class="c0"/>
<circle cx="1160" cy="786" r="8" class="c0"/>
<circle cx="1316" cy="1336" r="8" class="c0"/>
<circle cx="1274" cy="1314" r="8" class="c0"/>
<circle cx="1106" cy="778" r="8" class="c0"/>
<circle cx="1022" cy="926" r="8" class="c0"/>
<circle cx="812" cy="1162" r="8" class="c0"/>
<circle cx="1096" cy="1076" r="8" class="c0"/>
<circle cx="834" cy="1294" r="8" class="c0"/>
<circle cx="718" cy="1312" r="8" class="c0"/>
<circle cx="872" cy="1220" r="8" class="c0"/>
<circle cx="1166" cy="116" r="8" class="c0"/>
<circle cx="968" cy="1154" r="8" class="c0"/>
<circle cx="1040" cy="1068" r="8" class="c0"/>
<circle cx="1098" cy="1148" r="8" class="c0"/>
<circle cx="1110" cy="410" r="8" class="c0"/>
<circle cx="968" cy="1016" r="8" class="c0"/>
<circle cx="1076" cy="718" r="8" class="c0"/>
<circle cx="1064" cy="762" r="8" class="c0"/>
<circle cx="1152" cy="1322" r="8" class="c0"/>
<circle cx="1040" cy="726" r="8" class="c0"/>
<circle cx="1010" cy="1038" r="8" class="c0"/>
<circle cx="1166" cy="1184" r="8" class="c0"/>
<circle cx="982" cy="940" r="8" class="c0"/>
<circle cx="1040" cy="478" r="8" class="c0"/>
<circle cx="1246" cy="1354" r="8" class="c0"/>
<circle cx="1014" cy="1380" r="8" class="c0"/>
<circle cx="1102" cy="742" r="8" class="c0"/>
<circle cx="1232" cy="84" r="8" class="c0"/>
<circle cx="1020" cy="1330" r="8" class="c0"/>
<circle cx="1008" cy="680" r="8" class="c0"/>
<circle cx="1150" cy="208" r="8" class="c0"/>
<circle cx="1152" cy="1138" r="8" class="c0"/>
<circle cx="1178" cy="780" r="8" class="c0"/>
<circle cx="922" cy="1130" r="8" class="c0"/>
<circle cx="1076" cy="310" r="8" class="c0"/>
<circle cx="988" cy="1186" r="8" class="c0"/>
<circle cx="1208" cy="1380" r="8" class="c0"/>
<circle cx="1194" cy="1368" r="8" class="c0"/>
<circle cx="1120" cy="1074" r="8" class="c0"/>
<circle cx="1108" cy="1164" r="8" class="c0"/>
<circle cx="740" cy="1346" r="8" class="c0"/>
<circle cx="1258" cy="1120" r="8" class="c0"/>
<circle cx="1198" cy="736" r="8" class="c0"/>
<circle cx="742" cy="1278" r="8" class="c0"/>
<circle cx="1098" cy="834" r="8" class="c0"/>
<circle cx="874" cy="1114" r="8" class="c0"/>
<circle cx="1124" cy="262" r="8" class="c0"/>
<circle cx="952" cy="1402" r="8" class="c0"/>
<circle cx="1186" cy="646" r="8" class="c0"/>
<circle cx="1184" cy="1350" r="8" class="c0"/>
<circle cx="1028" cy="1390" r="8" class="c0"/>
<circle cx="942" cy="750" r="8" class="c0"/>
<circle cx="1134" cy="586" r="8" class="c0"/>
<circle cx="764" cy="1270" r="8" class="c0"/>
<circle cx="1160" cy="1118" r="8" class="c0"/>
<circle cx="1076" cy="1138" r="8" class="c0"/>
<circle cx="1240" cy="1378" r="8" class="c0"/>
<circle cx="982" cy="992" r="8" class="c0"/>
<circle cx="1044" cy="292" r="8" class="c0"/>
<circle cx="1320" cy="1354" r="8" class="c0"/>
<circle cx="1316" cy="1316" r="8" class="c0"/>
<circle cx="1216" cy="864" r="8" class="c0"/>
<circle cx="1134" cy="230" r="8" class="c0"/>
<circle cx="1000" cy="1058" r="8" class="c0"/>
<circle cx="1148" cy="1378" r="8" class="c0"/>
<circle cx="334" cy="1036" r="8" class="c0"/>
<circle cx="958" cy="1224" r="8" class="c0"/>
<circle cx="908" cy="1110" r="8" class="c0"/>
<circle cx="1230" cy="932" r="8" class="c0"/>
<circle cx="760" cy="1188" r="8" class="c0"/>
<circle cx="1022" cy="1430" r="8" class="c0"/>
<circle cx="1162" cy="1022" r="8" class="c0"/>
<circle cx="990" cy="412" r="8" class="c0"/>
<circle cx="1224" cy="1396" r="8" class="c0"/>
<circle cx="1218" cy="1322" r="8" class="c0"/>
<circle cx="1170" cy="890" r="8" class="c0"/>
<circle cx="1270" cy="1270" r="8" class="c0"/>
<circle cx="1034" cy="336" r="8" class="c0"/>
<circle cx="1200" cy="374" r="8" class="c0"/>
<circle cx="1198" cy="346" r="8" class="c0"/>
<circle cx="1150" cy="1058" r="8" class="c0"/>
<circle cx="1050" cy="1176" r="8" class="c0"/>
<circle cx="1094" cy="524" r="8" class="c0"/>
<circle cx="1202" cy="688" r="8" class="c0"/>
<circle cx="990" cy="1360" r="8" class="c0"/>
<circle cx="1010" cy="1102" r="8" class="c0"/>
<circle cx="1268" cy="1426" r="8" class="c0"/>
<circle cx="1112" cy="1058" r="8" class="c0"/>
<circle cx="976" cy="1138" r="8" class="c0"/>
<circle cx="934" cy="1076" r="8" class="c0"/>
<circle cx="1190" cy="826" r="8" class="c0"/>
<circle cx="1108" cy="650" r="8" class="c0"/>
<circle cx="758" cy="1232" r="8" class="c0"/>
<circle cx="930" cy="1368" r="8" class="c0"/>
<circle cx="1326" cy="1388" r="8" class="c0"/>
<circle cx="1338" cy="1428" r="8" class="c0"/>
<circle cx="1158" cy="1232" r="8" class="c0"/>
<circle cx="1206" cy="1246" r="8" class="c0"/>
<circle cx="1188" cy="1232" r="8" class="c0"/>
<circle cx="944" cy="1120" r="8" class="c0"/>
<circle cx="830" cy="1218" r="8" class="c0"/>
<circle cx="962" cy="1206" r="8" class="c0"/>
<circle cx="1128" cy="1112" r="8" class="c0"/>
<circle cx="1034" cy="1348" r="8" class="c0"/>
<circle cx="1172" cy="662" r="8" class="c0"/>
<circle cx="980" cy="806" r="8" class="c0"/>
<circle cx="1156" cy="60" r="8" class="c0"/>
<circle cx="1140" cy="342" r="8" class="c0"/>
<circle cx="1026" cy="1084" r="8" class="c0"/>
<circle cx="996" cy="900" r="8" class="c0"/>
<circle cx="1168" cy="984" r="8" class="c0"/>
<circle cx="900" cy="1346" r="8" class="c0"/>
<circle cx="1082" cy="1100" r="8" class="c0"/>
<circle cx="820" cy="1228" r="8" class="c0"/>
<circle cx="978" cy="494" r="8" class="c0"/>
<circle cx="928" cy="1178" r="8" class="c0"/>
<circle cx="1008" cy="404" r="8" class="c0"/>
<circle cx="1138" cy="192" r="8" class="c0"/>
<circle cx="1152" cy="326" r="8" class="c0"/>
<circle cx="1142" cy="956" r="8" class="c0"/>
<circle cx="986" cy="760" r="8" class="c0"/>
<circle cx="958" cy="1144" r="8" class="c0"/>
<circle cx="1086" cy="1326" r="8" class="c0"/>
<circle cx="1198" cy="870" r="8" class="c0"/>
<circle cx="962" cy="856" r="8" class="c0"/>
<circle cx="1278" cy="1174" r="8" class="c0"/>
<circle cx="1170" cy="1314" r="8" class="c0"/>
<circle cx="1172" cy="370" r="8" class="c0"/>
<circle cx="1082" cy="650" r="8" class="c0"/>
<circle cx="1184" cy="1118" r="8" class="c0"/>
<circle cx="1018" cy="692" r="8" class="c0"/>
<circle cx="1120" cy="576" r="8" class="c0"/>
<circle cx="1108" cy="950" r="8" class="c0"/>
<circle cx="684" cy="1246" r="8" class="c0"/>
<circle cx="770" cy="1362" r="8" class="c0"/>
<circle cx="852" cy="1394" r="8" class="c0"/>
<circle cx="890" cy="1296" r="8" class="c0"/>
<circle cx="1184" cy="300" r="8" class="c0"/>
<circle cx="726" cy="1258" r="8" class="c0"/>
<circle cx="1030" cy="560" r="8" class="c0"/>
<circle cx="1130" cy="796" r="8" class="c0"/>
<circle cx="1164" cy="238" r="8" class="c0"/>
<circle cx="934" cy="1318" r="8" class="c0"/>
<circle cx="1192" cy="698" r="8" class="c0"/>
<circle cx="1080" cy="622" r="8" class="c0"/>
<circle cx="1052" cy="1198" r="8" class="c0"/>
<circle cx="998" cy="692" r="8" class="c0"/>
<circle cx="1178" cy="1430" r="8" class="c0"/>
<circle cx="1052" cy="910" r="6" class="c0"/>
<circle cx="1218" cy="1204" r="6" class="c0"/>
<circle cx="1096" cy="1286" r="6" class="c0"/>
<circle cx="818" cy="1334" r="6" class="c0"/>
<circle cx="1234" cy="954" r="6" class="c0"/>
<circle cx="1128" cy="470" r="6" class="c0"/>
<circle cx="1142" cy="986" r="6" class="c0"/>
<circle cx="874" cy="1152" r="6" class="c0"/>
<circle cx="1070" cy="1288" r="6" class="c0"/>
<circle cx="984" cy="462" r="6" class="c0"/>
<circle cx="998" cy="796" r="6" class="c0"/>
<circle cx="964" cy="730" r="6" class="c0"/>
<circle cx="1162" cy="254" r="6" class="c0"/>
<circle cx="934" cy="1052" r="6" class="c0"/>
<circle cx="972" cy="1062" r="6" class="c0"/>
<circle cx="986" cy="1070" r="6" class="c0"/>
<circle cx="1150" cy="122" r="6" class="c0"/>
<circle cx="1046" cy="670" r="6" class="c0"/>
<circle cx="966" cy="882" r="6" class="c0"/>
<circle cx="956" cy="1032" r="6" class="c0"/>
<circle cx="1290" cy="1214" r="6" class="c0"/>
<circle cx="1020" cy="1214" r="6" class="c0"/>
<circle cx="998" cy="498" r="6" class="c0"/>
<circle cx="890" cy="1362" r="6" class="c0"/>
<circle cx="1042" cy="374" r="6" class="c0"/>
<circle cx="1014" cy="778" r="6" class="c0"/>
<circle cx="1028" cy="762" r="6" class="c0"/>
<circle cx="990" cy="326" r="6" class="c0"/>
<circle cx="1056" cy="264" r="6" class="c0"/>
<circle cx="1024" cy="942" r="6" class="c0"/>
<circle cx="1038" cy="1130" r="6" class="c0"/>
<circle cx="1174" cy="1046" r="6" class="c0"/>
<circle cx="1082" cy="390" r="6" class="c0"/>
<circle cx="1128" cy="1258" r="6" class="c0"/>
<circle cx="1144" cy="134" r="6" class="c0"/>
<circle cx="962" cy="1388" r="6" class="c0"/>
<circle cx="1224" cy="1256" r="6" class="c0"/>
<circle cx="934" cy="1160" r="6" class="c0"/>
<circle cx="1070" cy="662" r="6" class="c0"/>
<circle cx="1168" cy="1220" r="6" class="c0"/>
<circle cx="734" cy="1318" r="6" class="c0"/>
<circle cx="1220" cy="1422" r="6" class="c0"/>
<circle cx="1024" cy="1026" r="6" class="c0"/>
<circle cx="1174" cy="752" r="6" class="c0"/>
<circle cx="1282" cy="1252" r="6" class="c0"/>
<circle cx="1166" cy="720" r="6" class="c0"/>
<circle cx="1006" cy="832" r="6" class="c0"/>
<circle cx="998" cy="864" r="6" class="c0"/>
<circle cx="1066" cy="562" r="6" class="c0"/>
<circle cx="1152" cy="974" r="6" class="c0"/>
<circle cx="1334" cy="1344" r="6" class="c0"/>
<circle cx="1186" cy="746" r="6" class="c0"/>
<circle cx="926" cy="1332" r="6" class="c0"/>
<circle cx="1170" cy="424" r="6" class="c0"/>
<circle cx="1208" cy="654" r="6" class="c0"/>
<circle cx="680" cy="1284" r="6" class="c0"/>
<circle cx="908" cy="1198" r="6" class="c0"/>
<circle cx="1052" cy="714" r="6" class="c0"/>
<circle cx="1182" cy="678" r="6" class="c0"/>
<circle cx="1036" cy="1292" r="6" class="c0"/>
<circle cx="1000" cy="1282" r="6" class="c0"/>
<circle cx="1172" cy="408" r="6" class="c0"/>
<circle cx="1194" cy="312" r="6" class="c0"/>
<circle cx="1180" cy="126" r="6" class="c0"/>
<circle cx="1196" cy="1216" r="6" class="c0"/>
<circle cx="1036" cy="910" r="6" class="c0"/>
<circle cx="1198" cy="1058" r="6" class="c0"/>
<circle cx="1132" cy="566" r="6" class="c0"/>
<circle cx="1086" cy="426" r="6" class="c0"/>
<circle cx="814" cy="1374" r="6" class="c0"/>
<circle cx="744" cy="1196" r="6" class="c0"/>
<circle cx="1050" cy="1300" r="6" class="c0"/>
<circle cx="1298" cy="1236" r="6" class="c0"/>
<circle cx="1104" cy="1300" r="6" class="c0"/>
<circle cx="1086" cy="1276" r="6" class="c0"/>
<circle cx="1306" cy="1368" r="6" class="c0"/>
<circle cx="952" cy="824" r="6" class="c0"/>
<circle cx="1288" cy="1200" r="6" class="c0"/>
<circle cx="1152" cy="226" r="6" class="c0"/>
<circle cx="1092" cy="682" r="6" class="c0"/>
<circle cx="1102" cy="302" r="6" class="c0"/>
<circle cx="1164" cy="1370" r="6" class="c0"/>
<circle cx="1240" cy="1292" r="6" class="c0"/>
<circle cx="1084" cy="592" r="6" class="c0"/>
<circle cx="1048" cy="1088" r="6" class="c0"/>
<circle cx="1140" cy="614" r="6" class="c0"/>
<circle cx="1046" cy="1150" r="6" class="c0"/>
<circle cx="1100" cy="1270" r="6" class="c0"/>
<circle cx="926" cy="1274" r="6" class="c0"/>
<circle cx="1088" cy="1432" r="6" class="c0"/>
<circle cx="1068" cy="1174" r="6" class="c0"/>
<circle cx="976" cy="894" r="6" class="c0"/>
<circle cx="1042" cy="896" r="6" class="c0"/>
<circle cx="1002" cy="1268" r="6" class="c0"/>
<circle cx="794" cy="1218" r="6" class="c0"/>
<circle cx="972" cy="1280" r="6" class="c0"/>
<circle cx="1122" cy="704" r="6" class="c0"/>
<circle cx="1204" cy="1276" r="6" class="c0"/>
<circle cx="1140" cy="176" r="6" class="c0"/>
<circle cx="908" cy="1248" r="6" class="c0"/>
<circle cx="1040" cy="436" r="6" class="c0"/>
<circle cx="1094" cy="456" r="6" class="c0"/>
<circle cx="1122" cy="1172" r="6" class="c0"/>
<circle cx="916" cy="1282" r="6" class="c0"/>
<circle cx="1250" cy="1054" r="6" class="c0"/>
<circle cx="1096" cy="380" r="6" class="c0"/>
<circle cx="1132" cy="1054" r="6" class="c0"/>
<circle cx="1156" cy="1400" r="6" class="c0"/>
<circle cx="928" cy="1242" r="6" class="c0"/>
<circle cx="1124" cy="1374" r="6" class="c0"/>
<circle cx="1034" cy="998" r="6" class="c0"/>
<circle cx="1168" cy="770" r="6" class="c0"/>
<circle cx="1320" cy="1420" r="6" class="c0"/>
<circle cx="962" cy="1338" r="6" class="c0"/>
<circle cx="1196" cy="96" r="6" class="c0"/>
<circle cx="1180" cy="1404" r="6" class="c0"/>
<circle cx="1136" cy="812" r="6" class="c0"/>
<circle cx="1242" cy="1010" r="6" class="c0"/>
<circle cx="994" cy="1432" r="6" class="c0"/>
<circle cx="808" cy="1360" r="6" class="c0"/>
<circle cx="1030" cy="602" r="6" class="c0"/>
<circle cx="1152" cy="894" r="6" class="c0"/>
<circle cx="884" cy="1416" r="6" class="c0"/>
<circle cx="1176" cy="708" r="6" class="c0"/>
<circle cx="1096" cy="962" r="6" class="c0"/>
<circle cx="860" cy="1362" r="6" class="c0"/>
<circle cx="720" cy="1212" r="6" class="c0"/>
<circle cx="906" cy="1220" r="6" class="c0"/>
<circle cx="972" cy="720" r="6" class="c0"/>
<circle cx="1240" cy="1104" r="6" class="c0"/>
<circle cx="1038" cy="1422" r="6" class="c0"/>
<circle cx="1180" cy="1144" r="6" class="c0"/>
<circle cx="1242" cy="1128" r="6" class="c0"/>
<circle cx="1136" cy="974" r="6" class="c0"/>
<circle cx="1180" cy="436" r="6" class="c0"/>
<circle cx="1156" cy="106" r="6" class="c0"/>
<circle cx="1010" cy="448" r="6" class="c0"/>
<circle cx="1074" cy="398" r="6" class="c0"/>
<circle cx="1154" cy="472" r="6" class="c0"/>
<circle cx="110" cy="370" r="6" class="c0"/>
<circle cx="938" cy="794" r="6" class="c0"/>
<circle cx="1040" cy="594" r="6" class="c0"/>
<circle cx="1068" cy="464" r="6" class="c0"/>
<circle cx="864" cy="1258" r="6" class="c0"/>
<circle cx="1282" cy="1338" r="6" class="c0"/>
<circle cx="1032" cy="950" r="6" class="c0"/>
<circle cx="1074" cy="902" r="6" class="c0"/>
<circle cx="750" cy="1356" r="6" class="c0"/>
<circle cx="794" cy="1324" r="6" class="c0"/>
<circle cx="1278" cy="1208" r="6" class="c0"/>
<circle cx="668" cy="1290" r="6" class="c0"/>
<circle cx="1174" cy="1264" r="6" class="c0"/>
<circle cx="1064" cy="276" r="6" class="c0"/>
<circle cx="1258" cy="1412" r="6" class="c0"/>
<circle cx="1062" cy="1098" r="6" class="c0"/>
<circle cx="234" cy="992" r="6" class="c0"/>
<circle cx="964" cy="808" r="6" class="c0"/>
<circle cx="848" cy="1356" r="6" class="c0"/>
<circle cx="1168" cy="162" r="6" class="c0"/>
<circle cx="1016" cy="524" r="6" class="c0"/>
<circle cx="1184" cy="580" r="6" class="c0"/>
<circle cx="1162" cy="84" r="6" class="c0"/>
<circle cx="1206" cy="64" r="6" class="c0"/>
<circle cx="1128" cy="1292" r="6" class="c0"/>
<circle cx="1040" cy="756" r="6" class="c0"/>
<circle cx="844" cy="1284" r="6" class="c0"/>
<circle cx="1160" cy="838" r="6" class="c0"/>
<circle cx="1132" cy="1030" r="6" class="c0"/>
<circle cx="1186" cy="886" r="6" class="c0"/>
<circle cx="954" cy="768" r="6" class="c0"/>
<circle cx="934" cy="1264" r="6" class="c0"/>
<circle cx="1004" cy="886" r="6" class="c0"/>
<circle cx="838" cy="1164" r="6" class="c0"/>
<circle cx="852" cy="1370" r="6" class="c0"/>
<circle cx="1024" cy="326" r="6" class="c0"/>
<circle cx="864" cy="692" r="6" class="c0"/>
<circle cx="1108" cy="1132" r="6" class="c0"/>
<circle cx="1250" cy="1432" r="6" class="c0"/>
<circle cx="1036" cy="624" r="6" class="c0"/>
<circle cx="878" cy="1200" r="6" class="c0"/>
<circle cx="1154" cy="732" r="6" class="c0"/>
<circle cx="1288" cy="1404" r="6" class="c0"/>
<circle cx="724" cy="1294" r="6" class="c0"/>
<circle cx="910" cy="1394" r="6" class="c0"/>
<circle cx="1230" cy="1194" r="6" class="c0"/>
<circle cx="1186" cy="1052" r="6" class="c0"/>
<circle cx="1240" cy="106" r="6" class="c0"/>
<circle cx="1202" cy="758" r="6" class="c0"/>
<circle cx="1054" cy="660" r="6" class="c0"/>
<circle cx="1202" cy="1204" r="6" class="c0"/>
<circle cx="1136" cy="940" r="6" class="c0"/>
<circle cx="1116" cy="482" r="6" class="c0"/>
<circle cx="1346" cy="1384" r="6" class="c0"/>
<circle cx="1248" cy="1336" r="6" class="c0"/>
<circle cx="1230" cy="120" r="6" class="c0"/>
<circle cx="988" cy="1008" r="6" class="c0"/>
<circle cx="882" cy="1142" r="6" class="c0"/>
<circle cx="1096" cy="1036" r="6" class="c0"/>
<circle cx="1276" cy="1158" r="6" class="c0"/>
<circle cx="708" cy="1258" r="6" class="c0"/>
<circle cx="1190" cy="794" r="6" class="c0"/>
<circle cx="1000" cy="1370" r="6" class="c0"/>
<circle cx="1094" cy="416" r="6" class="c0"/>
<circle cx="976" cy="1384" r="6" class="c0"/>
<circle cx="784" cy="1170" r="6" class="c0"/>
<circle cx="1044" cy="406" r="6" class="c0"/>
<circle cx="1094" cy="1364" r="6" class="c0"/>
<circle cx="868" cy="1244" r="6" class="c0"/>
<circle cx="1062" cy="1326" r="6" class="c0"/>
<circle cx="1096" cy="922" r="6" class="c0"/>
<circle cx="1110" cy="984" r="6" class="c0"/>
<circle cx="1212" cy="52" r="6" class="c0"/>
<circle cx="984" cy="1418" r="6" class="c0"/>
<circle cx="1200" cy="328" r="6" class="c0"/>
<circle cx="988" cy="824" r="6" class="c0"/>
<circle cx="1064" cy="1382" r="6" class="c0"/>
<circle cx="802" cy="1226" r="6" class="c0"/>
<circle cx="1030" cy="276" r="6" class="c0"/>
<circle cx="1160" cy="1248" r="6" class="c0"/>
<circle cx="804" cy="1274" r="6" class="c0"/>
<circle cx="974" cy="476" r="6" class="c0"/>
<circle cx="1028" cy="1104" r="6" class="c0"/>
<circle cx="1286" cy="1268" r="6" class="c0"/>
<circle cx="1018" cy="1314" r="6" class="c0"/>
<circle cx="1150" cy="1102" r="6" class="c0"/>
<circle cx="1054" cy="678" r="6" class="c0"/>
<circle cx="1006" cy="848" r="6" class="c0"/>
<circle cx="1002" cy="368" r="6" class="c0"/>
<circle cx="1106" cy="1432" r="6" class="c0"/>
<circle cx="1208" cy="850" r="6" class="c0"/>
<circle cx="1182" cy="630" r="6" class="c0"/>
<circle cx="786" cy="1206" r="6" class="c0"/>
<circle cx="1106" cy="860" r="6" class="c0"/>
<circle cx="926" cy="1062" r="6" class="c0"/>
<circle cx="1174" cy="60" r="6" class="c0"/>
<circle cx="986" cy="1250" r="6" class="c0"/>
<circle cx="992" cy="1238" r="6" class="c0"/>
<circle cx="1200" cy="968" r="6" class="c0"/>
<circle cx="1022" cy="646" r="6" class="c0"/>
<circle cx="1118" cy="394" r="6" class="c0"/>
<circle cx="1204" cy="1356" r="6" class="c0"/>
<circle cx="1148" cy="604" r="6" class="c0"/>
<circle cx="878" cy="1330" r="6" class="c0"/>
<circle cx="866" cy="1162" r="6" class="c0"/>
<circle cx="1092" cy="732" r="6" class="c0"/>
<circle cx="1128" cy="1432" r="6" class="c0"/>
<circle cx="1230" cy="46" r="6" class="c0"/>
<circle cx="822" cy="1254" r="6" class="c0"/>
<circle cx="1110" cy="762" r="6" class="c0"/>
<circle cx="1142" cy="500" r="6" class="c0"/>
<circle cx="1068" cy="866" r="6" class="c0"/>
<circle cx="900" cy="1206" r="6" class="c0"/>
<circle cx="1216" cy="1130" r="6" class="c0"/>
<circle cx="1076" cy="1166" r="6" class="c0"/>
<circle cx="1124" cy="220" r="6" class="c0"/>
<circle cx="1066" cy="780" r="6" class="c0"/>
<circle cx="900" cy="1232" r="6" class="c0"/>
<circle cx="1116" cy="788" r="6" class="c0"/>
<circle cx="1210" cy="1148" r="6" class="c0"/>
<circle cx="1006" cy="662" r="6" class="c0"/>
<circle cx="1114" cy="886" r="6" class="c0"/>
<circle cx="1228" cy="1178" r="6" class="c0"/>
<circle cx="1226" cy="896" r="6" class="c0"/>
<circle cx="940" cy="1346" r="6" class="c0"/>
<circle cx="1026" cy="468" r="6" class="c0"/>
<circle cx="1256" cy="1344" r="6" class="c0"/>
<circle cx="1140" cy="416" r="6" class="c0"/>
<circle cx="1110" cy="518" r="6" class="c0"/>
<circle cx="1118" cy="1206" r="6" class="c0"/>
<circle cx="696" cy="1286" r="6" class="c0"/>
<circle cx="1352" cy="1404" r="6" class="c0"/>
<circle cx="1028" cy="780" r="6" class="c0"/>
<circle cx="1218" cy="40" r="6" class="c0"/>
<circle cx="1218" cy="702" r="6" class="c0"/>
<circle cx="988" cy="354" r="6" class="c0"/>
<circle cx="878" cy="1262" r="6" class="c0"/>
<circle cx="828" cy="1310" r="6" class="c0"/>
<circle cx="1088" cy="886" r="6" class="c0"/>
<circle cx="1252" cy="1040" r="6" class="c0"/>
<circle cx="1142" cy="378" r="6" class="c0"/>
<circle cx="1200" cy="426" r="6" class="c0"/>
<circle cx="924" cy="1114" r="6" class="c0"/>
<circle cx="1764" cy="688" r="6" class="c0"/>
<circle cx="1148" cy="1220" r="6" class="c0"/>
<circle cx="1230" cy="24" r="6" class="c0"/>
<circle cx="1036" cy="1094" r="6" class="c0"/>
<circle cx="1016" cy="1238" r="6" class="c0"/>
<circle cx="984" cy="1056" r="6" class="c0"/>
<circle cx="1114" cy="712" r="6" class="c0"/>
<circle cx="1010" cy="508" r="6" class="c0"/>
<circle cx="952" cy="736" r="6" class="c0"/>
<circle cx="1094" cy="294" r="6" class="c0"/>
<circle cx="760" cy="1312" r="6" class="c0"/>
<circle cx="1030" cy="1138" r="6" class="c0"/>
<circle cx="1036" cy="1248" r="6" class="c0"/>
<circle cx="1306" cy="1268" r="6" class="c0"/>
<circle cx="1164" cy="968" r="6" class="c0"/>
<circle cx="1292" cy="1366" r="6" class="c0"/>
<circle cx="856" cy="1348" r="6" class="c0"/>
<circle cx="1152" cy="658" r="6" class="c0"/>
<circle cx="1204" cy="1230" r="6" class="c0"/>
<circle cx="1204" cy="122" r="6" class="c0"/>
<circle cx="1240" cy="16" r="6" class="c0"/>
<circle cx="1054" cy="1026" r="6" class="c0"/>
<circle cx="1248" cy="1198" r="6" class="c0"/>
<circle cx="1108" cy="824" r="6" class="c0"/>
<circle cx="1078" cy="552" r="6" class="c0"/>
<circle cx="1196" cy="404" r="6" class="c0"/>
<circle cx="1174" cy="568" r="6" class="c0"/>
<circle cx="1112" cy="198" r="6" class="c0"/>
<circle cx="1120" cy="872" r="6" class="c0"/>
<circle cx="1040" cy="986" r="6" class="c0"/>
<circle cx="1118" cy="1304" r="6" class="c0"/>
<circle cx="990" cy="1406" r="6" class="c0"/>
<circle cx="860" cy="1432" r="6" class="c0"/>
<circle cx="1178" cy="46" r="6" class="c0"/>
<circle cx="996" cy="428" r="6" class="c0"/>
<circle cx="826" cy="1170" r="6" class="c0"/>
<circle cx="1068" cy="1058" r="6" class="c0"/>
<circle cx="1192" cy="590" r="6" class="c0"/>
<circle cx="900" cy="1260" r="6" class="c0"/>
<circle cx="1076" cy="1046" r="6" class="c0"/>
<circle cx="1084" cy="1158" r="6" class="c0"/>
<circle cx="1124" cy="648" r="6" class="c0"/>
<circle cx="1326" cy="1326" r="6" class="c0"/>
<circle cx="1226" cy="964" r="6" class="c0"/>
<circle cx="842" cy="1406" r="6" class="c0"/>
<circle cx="752" cy="1204" r="6" class="c0"/>
<circle cx="1170" cy="1084" r="6" class="c0"/>
<circle cx="1008" cy="910" r="6" class="c0"/>
<circle cx="818" cy="1298" r="6" class="c0"/>
<circle cx="1154" cy="92" r="6" class="c0"/>
<circle cx="1214" cy="930" r="6" class="c0"/>
<circle cx="1062" cy="406" r="6" class="c0"/>
<circle cx="976" cy="770" r="6" class="c0"/>
<circle cx="1216" cy="626" r="6" class="c0"/>
<circle cx="1094" cy="866" r="6" class="c0"/>
<circle cx="934" cy="764" r="6" class="c0"/>
<circle cx="986" cy="956" r="6" class="c0"/>
<circle cx="1228" cy="1432" r="6" class="c0"/>
<circle cx="1114" cy="696" r="6" class="c0"/>
<circle cx="918" cy="1190" r="6" class="c0"/>
<circle cx="972" cy="1172" r="6" class="c0"/>
<circle cx="996" cy="456" r="6" class="c0"/>
<circle cx="666" cy="1322" r="6" class="c0"/>
<circle cx="1070" cy="632" r="6" class="c0"/>
<circle cx="796" cy="1164" r="6" class="c0"/>
<circle cx="1280" cy="1192" r="6" class="c0"/>
<circle cx="1280" cy="1280" r="6" class="c0"/>
<circle cx="1130" cy="278" r="6" class="c0"/>
<circle cx="1190" cy="1068" r="6" class="c0"/>
<circle cx="1116" cy="636" r="6" class="c0"/>
<circle cx="1104" cy="316" r="6" class="c0"/>
<circle cx="1084" cy="406" r="6" class="c0"/>
<circle cx="116" cy="1358" r="6" class="c0"/>
<circle cx="1348" cy="1418" r="6" class="c0"/>
<circle cx="892" cy="1376" r="6" class="c0"/>
<circle cx="1078" cy="528" r="6" class="c0"/>
</svg>
