<?xml version="1.0" encoding="utf-8"?>
<svg xmlns="http://www.w3.org/2000/svg"
     xmlns:xlink="http://www.w3.org/1999/xlink" width="1920" height="1440" >

            <defs>
            <style type="text/css"><![CDATA[
circle {stroke: none;}
.c0 {fill: #FFFFFF;}
]]></style>
            </defs>
<rect x="0" y="0" width="1920" height="1440" fill="black"/>
<circle cx="1204" cy="1112" r="14" class="c0"/>
<circle cx="992" cy="1060" r="12" class="c0"/>
<circle cx="940" cy="1216" r="12" class="c0"/>
<circle cx="1258" cy="1246" r="12" class="c0"/>
<circle cx="1118" cy="254" r="12" class="c0"/>
<circle cx="1138" cy="1306" r="12" class="c0"/>
<circle cx="1310" cy="1418" r="12" class="c0"/>
<circle cx="972" cy="1226" r="12" class="c0"/>
<circle cx="980" cy="360" r="12" class="c0"/>
<circle cx="1042" cy="396" r="12" class="c0"/>
<circle cx="1190" cy="866" r="12" class="c0"/>
<circle cx="708" cy="1254" r="12" class="c0"/>
<circle cx="1214" cy="1334" r="12" class="c0"/>
<circle cx="1050" cy="618" r="12" class="c0"/>
<circle cx="860" cy="1330" r="12" class="c0"/>
<circle cx="1084" cy="1080" r="12" class="c0"/>
<circle cx="1242" cy="1426" r="12" class="c0"/>
<circle cx="906" cy="1424" r="12" class="c0"/>
<circle cx="1026" cy="1218" r="12" class="c0"/>
<circle cx="1006" cy="1246" r="12" class="c0"/>
<circle cx="1288" cy="1266" r="12" class="c0"/>
<circle cx="1096" cy="1274" r="12" class="c0"/>
<circle cx="1168" cy="950" r="12" class="c0"/>
<circle cx="1180" cy="796" r="12" class="c0"/>
<circle cx="1268" cy="1174" r="12" class="c0"/>
<circle cx="966" cy="1350" r="12" class="c0"/>
<circle cx="1186" cy="1252" r="12" class="c0"/>
<circle cx="1188" cy="1030" r="12" class="c0"/>
<circle cx="954" cy="1202" r="12" class="c0"/>
<circle cx="1124" cy="1108" r="12" class="c0"/>
<circle cx="1174" cy="384" r="12" class="c0"/>
<circle cx="1098" cy="276" r="12" class="c0"/>
<circle cx="1024" cy="1136" r="12" class="c0"/>
<circle cx="886" cy="1254" r="12" class="c0"/>
<circle cx="992" cy="692" r="12" class="c0"/>
<circle cx="1024" cy="1356" r="12" class="c0"/>
<circle cx="1178" cy="1136" r="12" class="c0"/>
<circle cx="1156" cy="1016" r="12" class="c0"/>
<circle cx="942" cy="746" r="12" class="c0"/>
<circle cx="996" cy="1342" r="12" class="c0"/>
<circle cx="822" cy="1214" r="12" class="c0"/>
<circle cx="1062" cy="652" r="12" class="c0"/>
<circle cx="952" cy="1298" r="12" class="c0"/>
<circle cx="1130" cy="684" r="12" class="c0"/>
<circle cx="1062" cy="1246" r="12" class="c0"/>
<circle cx="1080" cy="508" r="12" class="c0"/>
<circle cx="926" cy="1076" r="12" class="c0"/>
<circle cx="1022" cy="368" r="12" class="c0"/>
<circle cx="1020" cy="1032" r="12" class="c0"/>
<circle cx="1094" cy="696" r="12" class="c0"/>
<circle cx="990" cy="398" r="12" class="c0"/>
<circle cx="734" cy="1280" r="12" class="c0"/>
<circle cx="1134" cy="16" r="12" class="c0"/>
<circle cx="1240" cy="1362" r="12" class="c0"/>
<circle cx="1116" cy="1296" r="12" class="c0"/>
<circle cx="1116" cy="836" r="12" class="c0"/>
<circle cx="1146" cy="862" r="12" class="c0"/>
<circle cx="1128" cy="742" r="12" class="c0"/>
<circle cx="794" cy="1198" r="12" class="c0"/>
<circle cx="1062" cy="680" r="12" class="c0"/>
<circle cx="1246" cy="1044" r="12" class="c0"/>
<circle cx="1216" cy="916" r="12" class="c0"/>
<circle cx="1050" cy="1342" r="12" class="c0"/>
<circle cx="1122" cy="174" r="12" class="c0"/>
<circle cx="932" cy="790" r="12" class="c0"/>
<circle cx="882" cy="1166" r="12" class="c0"/>
<circle cx="834" cy="1294" r="12" class="c0"/>
<circle cx="1280" cy="1336" r="12" class="c0"/>
<circle cx="1164" cy="424" r="12" class="c0"/>
<circle cx="694" cy="1272" r="12" class="c0"/>
<circle cx="1204" cy="1298" r="12" class="c0"/>
<circle cx="988" cy="1124" r="12" class="c0"/>
<circle cx="1016" cy="1076" r="12" class="c0"/>
<circle cx="1228" cy="1288" r="12" class="c0"/>
<circle cx="1122" cy="1260" r="12" class="c0"/>
<circle cx="1154" cy="358" r="10" class="c0"/>
<circle cx="1232" cy="1236" r="10" class="c0"/>
<circle cx="1278" cy="1384" r="10" class="c0"/>
<circle cx="768" cy="1202" r="10" class="c0"/>
<circle cx="1022" cy="484" r="10" class="c0"/>
<circle cx="1130" cy="786" r="10" class="c0"/>
<circle cx="1062" cy="566" r="10" class="c0"/>
<circle cx="750" cy="1338" r="10" class="c0"/>
<circle cx="1150" cy="1060" r="10" class="c0"/>
<circle cx="1098" cy="798" r="10" class="c0"/>
<circle cx="856" cy="1366" r="10" class="c0"/>
<circle cx="788" cy="1268" r="10" class="c0"/>
<circle cx="960" cy="1424" r="10" class="c0"/>
<circle cx="1220" cy="998" r="10" class="c0"/>
<circle cx="1158" cy="906" r="10" class="c0"/>
<circle cx="1166" cy="1234" r="10" class="c0"/>
<circle cx="1136" cy="432" r="10" class="c0"/>
<circle cx="998" cy="512" r="10" class="c0"/>
<circle cx="1210" cy="942" r="10" class="c0"/>
<circle cx="1002" cy="1090" r="10" class="c0"/>
<circle cx="1104" cy="1368" r="10" class="c0"/>
<circle cx="1074" cy="994" r="10" class="c0"/>
<circle cx="864" cy="1240" r="10" class="c0"/>
<circle cx="896" cy="1378" r="10" class="c0"/>
<circle cx="1010" cy="1314" r="10" class="c0"/>
<circle cx="996" cy="992" r="10" class="c0"/>
<circle cx="916" cy="1268" r="10" class="c0"/>
<circle cx="980" cy="524" r="10" class="c0"/>
<circle cx="1256" cy="1318" r="10" class="c0"/>
<circle cx="1112" cy="56" r="10" class="c0"/>
<circle cx="1164" cy="606" r="10" class="c0"/>
<circle cx="1058" cy="1408" r="10" class="c0"/>
<circle cx="1074" cy="714" r="10" class="c0"/>
<circle cx="1090" cy="442" r="10" class="c0"/>
<circle cx="1086" cy="1176" r="10" class="c0"/>
<circle cx="998" cy="1292" r="10" class="c0"/>
<circle cx="1038" cy="1290" r="10" class="c0"/>
<circle cx="1006" cy="678" r="10" class="c0"/>
<circle cx="1106" cy="500" r="10" class="c0"/>
<circle cx="980" cy="1164" r="10" class="c0"/>
<circle cx="1028" cy="450" r="10" class="c0"/>
<circle cx="1132" cy="272" r="10" class="c0"/>
<circle cx="1014" cy="320" r="10" class="c0"/>
<circle cx="1084" cy="546" r="10" class="c0"/>
<circle cx="916" cy="1324" r="10" class="c0"/>
<circle cx="1074" cy="396" r="10" class="c0"/>
<circle cx="752" cy="1366" r="10" class="c0"/>
<circle cx="980" cy="430" r="10" class="c0"/>
<circle cx="996" cy="1218" r="10" class="c0"/>
<circle cx="970" cy="1078" r="10" class="c0"/>
<circle cx="1150" cy="698" r="10" class="c0"/>
<circle cx="1186" cy="1390" r="10" class="c0"/>
<circle cx="1028" cy="718" r="10" class="c0"/>
<circle cx="1114" cy="426" r="10" class="c0"/>
<circle cx="1134" cy="1234" r="10" class="c0"/>
<circle cx="1134" cy="470" r="10" class="c0"/>
<circle cx="1212" cy="1358" r="10" class="c0"/>
<circle cx="976" cy="830" r="10" class="c0"/>
<circle cx="780" cy="1300" r="10" class="c0"/>
<circle cx="1044" cy="792" r="10" class="c0"/>
<circle cx="1040" cy="474" r="10" class="c0"/>
<circle cx="1092" cy="1420" r="10" class="c0"/>
<circle cx="1280" cy="1232" r="10" class="c0"/>
<circle cx="1166" cy="1046" r="10" class="c0"/>
<circle cx="1194" cy="1414" r="10" class="c0"/>
<circle cx="1334" cy="1408" r="10" class="c0"/>
<circle cx="818" cy="1180" r="10" class="c0"/>
<circle cx="1196" cy="66" r="10" class="c0"/>
<circle cx="946" cy="804" r="10" class="c0"/>
<circle cx="970" cy="1040" r="10" class="c0"/>
<circle cx="1192" cy="732" r="10" class="c0"/>
<circle cx="1048" cy="1058" r="10" class="c0"/>
<circle cx="752" cy="1244" r="10" class="c0"/>
<circle cx="1092" cy="1242" r="10" class="c0"/>
<circle cx="1220" cy="1158" r="10" class="c0"/>
<circle cx="1308" cy="1372" r="10" class="c0"/>
<circle cx="1250" cy="1138" r="10" class="c0"/>
<circle cx="1194" cy="676" r="10" class="c0"/>
<circle cx="1150" cy="566" r="10" class="c0"/>
<circle cx="1044" cy="668" r="10" class="c0"/>
<circle cx="1240" cy="1258" r="10" class="c0"/>
<circle cx="1278" cy="1428" r="10" class="c0"/>
<circle cx="1126" cy="1146" r="10" class="c0"/>
<circle cx="1162" cy="1344" r="10" class="c0"/>
<circle cx="1036" cy="960" r="10" class="c0"/>
<circle cx="1218" cy="686" r="10" class="c0"/>
<circle cx="1158" cy="1398" r="10" class="c0"/>
<circle cx="982" cy="1010" r="10" class="c0"/>
<circle cx="1096" cy="1048" r="10" class="c0"/>
<circle cx="1048" cy="702" r="10" class="c0"/>
<circle cx="1262" cy="1348" r="10" class="c0"/>
<circle cx="1116" cy="532" r="10" class="c0"/>
<circle cx="1208" cy="1270" r="10" class="c0"/>
<circle cx="958" cy="1250" r="10" class="c0"/>
<circle cx="944" cy="1382" r="10" class="c0"/>
<circle cx="1054" cy="334" r="10" class="c0"/>
<circle cx="1232" cy="1026" r="10" class="c0"/>
<circle cx="1174" cy="1164" r="10" class="c0"/>
<circle cx="1174" cy="50" r="10" class="c0"/>
<circle cx="1080" cy="1028" r="10" class="c0"/>
<circle cx="1108" cy="374" r="10" class="c0"/>
<circle cx="1294" cy="1302" r="10" class="c0"/>
<circle cx="874" cy="1426" r="10" class="c0"/>
<circle cx="1248" cy="1212" r="10" class="c0"/>
<circle cx="1148" cy="796" r="10" class="c0"/>
<circle cx="1144" cy="1354" r="10" class="c0"/>
<circle cx="938" cy="1412" r="10" class="c0"/>
<circle cx="1142" cy="638" r="10" class="c0"/>
<circle cx="1182" cy="650" r="10" class="c0"/>
<circle cx="1174" cy="718" r="10" class="c0"/>
<circle cx="1192" cy="996" r="10" class="c0"/>
<circle cx="1218" cy="886" r="10" class="c0"/>
<circle cx="1034" cy="1092" r="10" class="c0"/>
<circle cx="1112" cy="942" r="10" class="c0"/>
<circle cx="1136" cy="720" r="10" class="c0"/>
<circle cx="1158" cy="312" r="10" class="c0"/>
<circle cx="1014" cy="974" r="10" class="c0"/>
<circle cx="1108" cy="888" r="10" class="c0"/>
<circle cx="1126" cy="338" r="10" class="c0"/>
<circle cx="1022" cy="944" r="10" class="c0"/>
<circle cx="1096" cy="648" r="10" class="c0"/>
<circle cx="1088" cy="594" r="10" class="c0"/>
<circle cx="982" cy="1394" r="10" class="c0"/>
<circle cx="810" cy="1300" r="10" class="c0"/>
<circle cx="1098" cy="170" r="10" class="c0"/>
<circle cx="956" cy="718" r="10" class="c0"/>
<circle cx="1076" cy="430" r="10" class="c0"/>
<circle cx="1164" cy="102" r="10" class="c0"/>
<circle cx="1144" cy="1090" r="10" class="c0"/>
<circle cx="1028" cy="1424" r="10" class="c0"/>
<circle cx="1072" cy="460" r="10" class="c0"/>
<circle cx="1090" cy="1148" r="10" class="c0"/>
<circle cx="768" cy="1256" r="10" class="c0"/>
<circle cx="1114" cy="586" r="10" class="c0"/>
<circle cx="1120" cy="222" r="10" class="c0"/>
<circle cx="1310" cy="1336" r="10" class="c0"/>
<circle cx="1086" cy="1112" r="10" class="c0"/>
<circle cx="1032" cy="1322" r="10" class="c0"/>
<circle cx="1046" cy="274" r="10" class="c0"/>
<circle cx="1190" cy="36" r="10" class="c0"/>
<circle cx="1166" cy="1282" r="10" class="c0"/>
<circle cx="754" cy="1310" r="10" class="c0"/>
<circle cx="718" cy="1300" r="10" class="c0"/>
<circle cx="1090" cy="748" r="10" class="c0"/>
<circle cx="1206" cy="718" r="10" class="c0"/>
<circle cx="1114" cy="1172" r="10" class="c0"/>
<circle cx="1180" cy="334" r="10" class="c0"/>
<circle cx="1046" cy="1232" r="10" class="c0"/>
<circle cx="1172" cy="770" r="10" class="c0"/>
<circle cx="1008" cy="1006" r="10" class="c0"/>
<circle cx="1058" cy="294" r="10" class="c0"/>
<circle cx="1104" cy="1012" r="10" class="c0"/>
<circle cx="1014" cy="1412" r="10" class="c0"/>
<circle cx="1170" cy="628" r="10" class="c0"/>
<circle cx="992" cy="1372" r="10" class="c0"/>
<circle cx="1072" cy="866" r="10" class="c0"/>
<circle cx="1102" cy="458" r="10" class="c0"/>
<circle cx="752" cy="1268" r="10" class="c0"/>
<circle cx="800" cy="1360" r="10" class="c0"/>
<circle cx="1032" cy="1264" r="10" class="c0"/>
<circle cx="900" cy="1220" r="10" class="c0"/>
<circle cx="678" cy="1336" r="10" class="c0"/>
<circle cx="1036" cy="746" r="10" class="c0"/>
<circle cx="882" cy="1352" r="10" class="c0"/>
<circle cx="1084" cy="1308" r="10" class="c0"/>
<circle cx="1156" cy="662" r="10" class="c0"/>
<circle cx="1102" cy="1098" r="10" class="c0"/>
<circle cx="1130" cy="316" r="10" class="c0"/>
<circle cx="1098" cy="954" r="10" class="c0"/>
<circle cx="1056" cy="898" r="10" class="c0"/>
<circle cx="1076" cy="794" r="10" class="c0"/>
<circle cx="1030" cy="988" r="10" class="c0"/>
<circle cx="882" cy="1134" r="10" class="c0"/>
<circle cx="1222" cy="1416" r="10" class="c0"/>
<circle cx="1064" cy="1386" r="10" class="c0"/>
<circle cx="882" cy="1392" r="10" class="c0"/>
<circle cx="1120" cy="1054" r="10" class="c0"/>
<circle cx="1248" cy="1188" r="10" class="c0"/>
<circle cx="850" cy="1172" r="10" class="c0"/>
<circle cx="1132" cy="904" r="10" class="c0"/>
<circle cx="1168" cy="1304" r="10" class="c0"/>
<circle cx="1062" cy="1166" r="10" class="c0"/>
<circle cx="1114" cy="610" r="10" class="c0"/>
<circle cx="1048" cy="1110" r="10" class="c0"/>
<circle cx="1140" cy="402" r="10" class="c0"/>
<circle cx="1038" cy="932" r="10" class="c0"/>
<circle cx="1104" cy="560" r="10" class="c0"/>
<circle cx="942" cy="1130" r="10" class="c0"/>
<circle cx="1178" cy="688" r="10" class="c0"/>
<circle cx="774" cy="1374" r="10" class="c0"/>
<circle cx="1006" cy="1384" r="10" class="c0"/>
<circle cx="980" cy="466" r="10" class="c0"/>
<circle cx="840" cy="1234" r="10" class="c0"/>
<circle cx="910" cy="1132" r="10" class="c0"/>
<circle cx="1122" cy="1082" r="10" class="c0"/>
<circle cx="918" cy="1346" r="10" class="c0"/>
<circle cx="1108" cy="1206" r="10" class="c0"/>
<circle cx="834" cy="1196" r="10" class="c0"/>
<circle cx="976" cy="492" r="10" class="c0"/>
<circle cx="666" cy="1324" r="10" class="c0"/>
<circle cx="1130" cy="514" r="10" class="c0"/>
<circle cx="1114" cy="704" r="8" class="c0"/>
<circle cx="1042" cy="1366" r="8" class="c0"/>
<circle cx="1202" cy="968" r="8" class="c0"/>
<circle cx="826" cy="1370" r="8" class="c0"/>
<circle cx="966" cy="1126" r="8" class="c0"/>
<circle cx="1124" cy="966" r="8" class="c0"/>
<circle cx="1002" cy="1182" r="8" class="c0"/>
<circle cx="1060" cy="1142" r="8" class="c0"/>
<circle cx="1102" cy="240" r="8" class="c0"/>
<circle cx="1000" cy="962" r="8" class="c0"/>
<circle cx="1124" cy="44" r="8" class="c0"/>
<circle cx="966" cy="890" r="8" class="c0"/>
<circle cx="1002" cy="722" r="8" class="c0"/>
<circle cx="1180" cy="1094" r="8" class="c0"/>
<circle cx="1046" cy="494" r="8" class="c0"/>
<circle cx="1210" cy="1390" r="8" class="c0"/>
<circle cx="1076" cy="302" r="8" class="c0"/>
<circle cx="1202" cy="1052" r="8" class="c0"/>
<circle cx="1044" cy="1156" r="8" class="c0"/>
<circle cx="1168" cy="974" r="8" class="c0"/>
<circle cx="980" cy="1262" r="8" class="c0"/>
<circle cx="1160" cy="784" r="8" class="c0"/>
<circle cx="1082" cy="218" r="8" class="c0"/>
<circle cx="1174" cy="1428" r="8" class="c0"/>
<circle cx="1156" cy="1200" r="8" class="c0"/>
<circle cx="1186" cy="824" r="8" class="c0"/>
<circle cx="1136" cy="88" r="8" class="c0"/>
<circle cx="1074" cy="906" r="8" class="c0"/>
<circle cx="1210" cy="1184" r="8" class="c0"/>
<circle cx="1228" cy="1210" r="8" class="c0"/>
<circle cx="880" cy="1290" r="8" class="c0"/>
<circle cx="976" cy="906" r="8" class="c0"/>
<circle cx="1030" cy="530" r="8" class="c0"/>
<circle cx="946" cy="1062" r="8" class="c0"/>
<circle cx="1122" cy="112" r="8" class="c0"/>
<circle cx="1056" cy="1206" r="8" class="c0"/>
<circle cx="1158" cy="840" r="8" class="c0"/>
<circle cx="778" cy="1346" r="8" class="c0"/>
<circle cx="1012" cy="1170" r="8" class="c0"/>
<circle cx="1056" cy="924" r="8" class="c0"/>
<circle cx="912" cy="1092" r="8" class="c0"/>
<circle cx="1270" cy="1152" r="8" class="c0"/>
<circle cx="1178" cy="746" r="8" class="c0"/>
<circle cx="1152" cy="964" r="8" class="c0"/>
<circle cx="1024" cy="768" r="8" class="c0"/>
<circle cx="870" cy="1212" r="8" class="c0"/>
<circle cx="1130" cy="928" r="8" class="c0"/>
<circle cx="1236" cy="1322" r="8" class="c0"/>
<circle cx="1142" cy="1184" r="8" class="c0"/>
<circle cx="696" cy="1294" r="8" class="c0"/>
<circle cx="982" cy="866" r="8" class="c0"/>
<circle cx="1274" cy="1286" r="8" class="c0"/>
<circle cx="1134" cy="206" r="8" class="c0"/>
<circle cx="1094" cy="724" r="8" class="c0"/>
<circle cx="1124" cy="656" r="8" class="c0"/>
<circle cx="1086" cy="772" r="8" class="c0"/>
<circle cx="1036" cy="580" r="8" class="c0"/>
<circle cx="1012" cy="1116" r="8" class="c0"/>
<circle cx="1134" cy="982" r="8" class="c0"/>
<circle cx="1220" cy="1250" r="8" class="c0"/>
<circle cx="1222" cy="970" r="8" class="c0"/>
<circle cx="1052" cy="594" r="8" class="c0"/>
<circle cx="1124" cy="564" r="8" class="c0"/>
<circle cx="966" cy="1316" r="8" class="c0"/>
<circle cx="900" cy="1194" r="8" class="c0"/>
<circle cx="1142" cy="452" r="8" class="c0"/>
<circle cx="1098" cy="404" r="8" class="c0"/>
<circle cx="938" cy="1096" r="8" class="c0"/>
<circle cx="962" cy="776" r="8" class="c0"/>
<circle cx="1076" cy="342" r="8" class="c0"/>
<circle cx="1228" cy="1116" r="8" class="c0"/>
<circle cx="1016" cy="340" r="8" class="c0"/>
<circle cx="722" cy="1344" r="8" class="c0"/>
<circle cx="1164" cy="80" r="8" class="c0"/>
<circle cx="1122" cy="998" r="8" class="c0"/>
<circle cx="1228" cy="932" r="8" class="c0"/>
<circle cx="936" cy="1172" r="8" class="c0"/>
<circle cx="1124" cy="1028" r="8" class="c0"/>
<circle cx="1152" cy="1252" r="8" class="c0"/>
<circle cx="818" cy="1318" r="8" class="c0"/>
<circle cx="1142" cy="1374" r="8" class="c0"/>
<circle cx="1190" cy="1084" r="8" class="c0"/>
<circle cx="1148" cy="1270" r="8" class="c0"/>
<circle cx="1002" cy="1428" r="8" class="c0"/>
<circle cx="1200" cy="1142" r="8" class="c0"/>
<circle cx="1010" cy="1272" r="8" class="c0"/>
<circle cx="806" cy="1380" r="8" class="c0"/>
<circle cx="884" cy="1324" r="8" class="c0"/>
<circle cx="1244" cy="1108" r="8" class="c0"/>
<circle cx="1092" cy="922" r="8" class="c0"/>
<circle cx="1096" cy="298" r="8" class="c0"/>
<circle cx="1224" cy="1068" r="8" class="c0"/>
<circle cx="1080" cy="630" r="8" class="c0"/>
<circle cx="1142" cy="116" r="8" class="c0"/>
<circle cx="1084" cy="886" r="8" class="c0"/>
<circle cx="844" cy="1272" r="8" class="c0"/>
<circle cx="1018" cy="426" r="8" class="c0"/>
<circle cx="810" cy="1244" r="8" class="c0"/>
<circle cx="970" cy="1284" r="8" class="c0"/>
<circle cx="1052" cy="1312" r="8" class="c0"/>
<circle cx="1134" cy="1008" r="8" class="c0"/>
<circle cx="1088" cy="1352" r="8" class="c0"/>
<circle cx="1120" cy="394" r="8" class="c0"/>
<circle cx="1028" cy="600" r="8" class="c0"/>
<circle cx="1208" cy="1022" r="8" class="c0"/>
<circle cx="1120" cy="288" r="8" class="c0"/>
<circle cx="1038" cy="1192" r="8" class="c0"/>
<circle cx="1148" cy="586" r="8" class="c0"/>
<circle cx="1082" cy="848" r="8" class="c0"/>
<circle cx="1062" cy="1006" r="8" class="c0"/>
<circle cx="1026" cy="296" r="8" class="c0"/>
<circle cx="1174" cy="1326" r="8" class="c0"/>
<circle cx="774" cy="1324" r="8" class="c0"/>
<circle cx="944" cy="1352" r="8" class="c0"/>
<circle cx="1068" cy="1218" r="8" class="c0"/>
<circle cx="1260" cy="1374" r="8" class="c0"/>
<circle cx="1040" cy="418" r="8" class="c0"/>
<circle cx="932" cy="1368" r="8" class="c0"/>
<circle cx="1054" cy="442" r="8" class="c0"/>
<circle cx="1144" cy="1424" r="8" class="c0"/>
<circle cx="1242" cy="1066" r="8" class="c0"/>
<circle cx="750" cy="1216" r="8" class="c0"/>
<circle cx="1188" cy="1064" r="8" class="c0"/>
<circle cx="756" cy="1288" r="8" class="c0"/>
<circle cx="706" cy="1328" r="8" class="c0"/>
<circle cx="854" cy="1412" r="8" class="c0"/>
<circle cx="1152" cy="54" r="8" class="c0"/>
<circle cx="986" cy="1320" r="8" class="c0"/>
<circle cx="976" cy="928" r="8" class="c0"/>
<circle cx="1150" cy="1162" r="8" class="c0"/>
<circle cx="1118" cy="136" r="8" class="c0"/>
<circle cx="1100" cy="626" r="8" class="c0"/>
<circle cx="1086" cy="1330" r="8" class="c0"/>
<circle cx="856" cy="1308" r="8" class="c0"/>
<circle cx="1200" cy="1220" r="8" class="c0"/>
<circle cx="982" cy="338" r="8" class="c0"/>
<circle cx="998" cy="444" r="8" class="c0"/>
<circle cx="1126" cy="1386" r="8" class="c0"/>
<circle cx="1322" cy="1358" r="8" class="c0"/>
<circle cx="1130" cy="626" r="8" class="c0"/>
<circle cx="1128" cy="1340" r="8" class="c0"/>
<circle cx="1068" cy="740" r="8" class="c0"/>
<circle cx="1118" cy="488" r="8" class="c0"/>
<circle cx="1062" cy="770" r="8" class="c0"/>
<circle cx="1020" cy="694" r="8" class="c0"/>
<circle cx="686" cy="1312" r="8" class="c0"/>
<circle cx="984" cy="788" r="8" class="c0"/>
<circle cx="1024" cy="564" r="8" class="c0"/>
<circle cx="1120" cy="196" r="8" class="c0"/>
<circle cx="1068" cy="1186" r="8" class="c0"/>
<circle cx="924" cy="1398" r="8" class="c0"/>
<circle cx="834" cy="1350" r="8" class="c0"/>
<circle cx="824" cy="1394" r="8" class="c0"/>
<circle cx="1038" cy="910" r="8" class="c0"/>
<circle cx="1186" cy="1348" r="8" class="c0"/>
<circle cx="784" cy="1228" r="8" class="c0"/>
<circle cx="1164" cy="822" r="8" class="c0"/>
<circle cx="994" cy="666" r="8" class="c0"/>
<circle cx="1204" cy="828" r="8" class="c0"/>
<circle cx="1066" cy="1290" r="8" class="c0"/>
<circle cx="738" cy="1230" r="8" class="c0"/>
<circle cx="1180" cy="902" r="8" class="c0"/>
<circle cx="1090" cy="978" r="8" class="c0"/>
<circle cx="866" cy="1146" r="8" class="c0"/>
<circle cx="1210" cy="642" r="8" class="c0"/>
<circle cx="1078" cy="1134" r="8" class="c0"/>
<circle cx="1072" cy="1426" r="8" class="c0"/>
<circle cx="880" cy="1198" r="8" class="c0"/>
<circle cx="790" cy="1246" r="8" class="c0"/>
<circle cx="1150" cy="1120" r="8" class="c0"/>
<circle cx="1100" cy="870" r="8" class="c0"/>
<circle cx="1088" cy="372" r="8" class="c0"/>
<circle cx="1078" cy="486" r="8" class="c0"/>
<circle cx="1212" cy="1086" r="8" class="c0"/>
<circle cx="1262" cy="1414" r="8" class="c0"/>
<circle cx="1180" cy="932" r="8" class="c0"/>
<circle cx="1060" cy="250" r="8" class="c0"/>
<circle cx="972" cy="1190" r="8" class="c0"/>
<circle cx="926" cy="1114" r="8" class="c0"/>
<circle cx="1052" cy="516" r="8" class="c0"/>
<circle cx="1164" cy="1370" r="8" class="c0"/>
<circle cx="956" cy="1112" r="8" class="c0"/>
<circle cx="880" cy="1226" r="8" class="c0"/>
<circle cx="1176" cy="10" r="8" class="c0"/>
<circle cx="1084" cy="1206" r="8" class="c0"/>
<circle cx="928" cy="1306" r="8" class="c0"/>
<circle cx="940" cy="768" r="8" class="c0"/>
<circle cx="1194" cy="608" r="8" class="c0"/>
<circle cx="1196" cy="888" r="8" class="c0"/>
<circle cx="904" cy="1296" r="8" class="c0"/>
<circle cx="1224" cy="1134" r="8" class="c0"/>
<circle cx="1146" cy="754" r="8" class="c0"/>
<circle cx="852" cy="1208" r="8" class="c0"/>
<circle cx="830" cy="1164" r="8" class="c0"/>
<circle cx="912" cy="1242" r="8" class="c0"/>
<circle cx="984" cy="742" r="8" class="c0"/>
<circle cx="924" cy="756" r="8" class="c0"/>
<circle cx="1012" cy="536" r="8" class="c0"/>
<circle cx="1202" cy="1374" r="8" class="c0"/>
<circle cx="1182" cy="1200" r="8" class="c0"/>
<circle cx="982" cy="1100" r="8" class="c0"/>
<circle cx="1006" cy="416" r="8" class="c0"/>
<circle cx="1072" cy="362" r="8" class="c0"/>
<circle cx="1050" cy="758" r="8" class="c0"/>
<circle cx="1268" cy="1306" r="8" class="c0"/>
<circle cx="992" cy="326" r="8" class="c0"/>
<circle cx="902" cy="1102" r="8" class="c0"/>
<circle cx="1234" cy="958" r="8" class="c0"/>
<circle cx="1012" cy="652" r="8" class="c0"/>
<circle cx="952" cy="1274" r="8" class="c0"/>
<circle cx="1030" cy="1050" r="8" class="c0"/>
<circle cx="1046" cy="1032" r="8" class="c0"/>
<circle cx="974" cy="752" r="8" class="c0"/>
<circle cx="854" cy="1262" r="8" class="c0"/>
<circle cx="1210" cy="846" r="8" class="c0"/>
<circle cx="1008" cy="388" r="8" class="c0"/>
<circle cx="1052" cy="360" r="8" class="c0"/>
<circle cx="1228" cy="1182" r="8" class="c0"/>
<circle cx="1108" cy="976" r="8" class="c0"/>
<circle cx="796" cy="1338" r="8" class="c0"/>
<circle cx="1090" cy="322" r="8" class="c0"/>
<circle cx="1176" cy="70" r="8" class="c0"/>
<circle cx="1072" cy="964" r="8" class="c0"/>
<circle cx="972" cy="802" r="8" class="c0"/>
<circle cx="1042" cy="640" r="8" class="c0"/>
<circle cx="990" cy="886" r="8" class="c0"/>
<circle cx="1052" cy="1272" r="8" class="c0"/>
<circle cx="1204" cy="84" r="8" class="c0"/>
<circle cx="1060" cy="976" r="8" class="c0"/>
<circle cx="958" cy="1162" r="8" class="c0"/>
<circle cx="1236" cy="1404" r="8" class="c0"/>
<circle cx="1184" cy="88" r="8" class="c0"/>
<circle cx="1026" cy="1382" r="8" class="c0"/>
<circle cx="1198" cy="766" r="8" class="c0"/>
<circle cx="1252" cy="1158" r="8" class="c0"/>
<circle cx="1088" cy="196" r="8" class="c0"/>
<circle cx="1086" cy="1394" r="8" class="c0"/>
<circle cx="1062" cy="378" r="8" class="c0"/>
<circle cx="968" cy="380" r="8" class="c0"/>
<circle cx="802" cy="1222" r="8" class="c0"/>
<circle cx="1128" cy="1210" r="8" class="c0"/>
<circle cx="1038" cy="1402" r="8" class="c0"/>
<circle cx="1190" cy="1180" r="8" class="c0"/>
<circle cx="1136" cy="552" r="8" class="c0"/>
<circle cx="1006" cy="354" r="8" class="c0"/>
<circle cx="1136" cy="188" r="8" class="c0"/>
<circle cx="1122" cy="812" r="8" class="c0"/>
<circle cx="1158" cy="290" r="8" class="c0"/>
<circle cx="1098" cy="826" r="8" class="c0"/>
<circle cx="1138" cy="832" r="8" class="c0"/>
<circle cx="1078" cy="1370" r="8" class="c0"/>
<circle cx="1130" cy="596" r="8" class="c0"/>
<circle cx="1290" cy="1400" r="8" class="c0"/>
<circle cx="1146" cy="328" r="8" class="c0"/>
<circle cx="844" cy="1152" r="8" class="c0"/>
<circle cx="1140" cy="70" r="8" class="c0"/>
<circle cx="1030" cy="682" r="8" class="c0"/>
<circle cx="920" cy="1156" r="8" class="c0"/>
<circle cx="904" cy="1174" r="8" class="c0"/>
<circle cx="1102" cy="670" r="8" class="c0"/>
<circle cx="1118" cy="864" r="8" class="c0"/>
<circle cx="1196" cy="626" r="8" class="c0"/>
<circle cx="842" cy="1318" r="8" class="c0"/>
<circle cx="1320" cy="1392" r="8" class="c0"/>
<circle cx="1012" cy="284" r="8" class="c0"/>
<circle cx="1220" cy="662" r="8" class="c0"/>
<circle cx="1108" cy="1408" r="8" class="c0"/>
<circle cx="942" cy="828" r="8" class="c0"/>
<circle cx="1064" cy="418" r="8" class="c0"/>
<circle cx="1158" cy="882" r="8" class="c0"/>
<circle cx="1114" cy="916" r="8" class="c0"/>
<circle cx="822" cy="1270" r="8" class="c0"/>
<circle cx="1102" cy="212" r="8" class="c0"/>
<circle cx="828" cy="1248" r="8" class="c0"/>
<circle cx="968" cy="706" r="8" class="c0"/>
<circle cx="984" cy="1416" r="8" class="c0"/>
<circle cx="1176" cy="838" r="8" class="c0"/>
<circle cx="928" cy="1284" r="8" class="c0"/>
<circle cx="1202" cy="800" r="8" class="c0"/>
<circle cx="1268" cy="1208" r="8" class="c0"/>
<circle cx="1018" cy="1288" r="8" class="c0"/>
<circle cx="1098" cy="344" r="8" class="c0"/>
<circle cx="1168" cy="1262" r="8" class="c0"/>
<circle cx="988" cy="1198" r="8" class="c0"/>
<circle cx="1066" cy="1360" r="8" class="c0"/>
<circle cx="1290" cy="1356" r="8" class="c0"/>
<circle cx="1176" cy="408" r="8" class="c0"/>
<circle cx="1112" cy="768" r="8" class="c0"/>
<circle cx="1178" cy="882" r="8" class="c0"/>
<circle cx="1156" cy="1138" r="8" class="c0"/>
<circle cx="1052" cy="724" r="8" class="c0"/>
<circle cx="1148" cy="996" r="8" class="c0"/>
<circle cx="1072" cy="608" r="8" class="c0"/>
<circle cx="1030" cy="504" r="8" class="c0"/>
<circle cx="1108" cy="308" r="8" class="c0"/>
<circle cx="1154" cy="30" r="8" class="c0"/>
<circle cx="1160" cy="1104" r="8" class="c0"/>
<circle cx="1252" cy="1296" r="8" class="c0"/>
<circle cx="1120" cy="1420" r="8" class="c0"/>
<circle cx="1072" cy="944" r="8" class="c0"/>
<circle cx="1130" cy="376" r="8" class="c0"/>
<circle cx="996" cy="1144" r="8" class="c0"/>
<circle cx="1078" cy="240" r="8" class="c0"/>
<circle cx="856" cy="1388" r="8" class="c0"/>
<circle cx="940" cy="1150" r="8" class="c0"/>
<circle cx="1032" cy="350" r="8" class="c0"/>
<circle cx="898" cy="1336" r="8" class="c0"/>
<circle cx="1004" cy="476" r="8" class="c0"/>
<circle cx="1198" cy="8" r="8" class="c0"/>
<circle cx="1260" cy="1096" r="8" class="c0"/>
<circle cx="796" cy="1316" r="8" class="c0"/>
<circle cx="1258" cy="1120" r="8" class="c0"/>
<circle cx="1094" cy="478" r="8" class="c0"/>
<circle cx="932" cy="1254" r="8" class="c0"/>
<circle cx="1250" cy="1086" r="8" class="c0"/>
<circle cx="786" cy="1388" r="8" class="c0"/>
<circle cx="1066" cy="270" r="8" class="c0"/>
<circle cx="920" cy="1208" r="8" class="c0"/>
<circle cx="736" cy="1354" r="8" class="c0"/>
<circle cx="990" cy="308" r="8" class="c0"/>
<circle cx="1068" cy="1326" r="8" class="c0"/>
<circle cx="968" cy="1146" r="8" class="c0"/>
<circle cx="976" cy="722" r="8" class="c0"/>
<circle cx="950" cy="1080" r="8" class="c0"/>
<circle cx="1078" cy="1230" r="8" class="c0"/>
<circle cx="1112" cy="32" r="8" class="c0"/>
<circle cx="1062" cy="1088" r="8" class="c0"/>
<circle cx="962" cy="862" r="8" class="c0"/>
<circle cx="1120" cy="638" r="8" class="c0"/>
<circle cx="1220" cy="1310" r="8" class="c0"/>
<circle cx="1170" cy="1184" r="8" class="c0"/>
<circle cx="944" cy="1326" r="8" class="c0"/>
<circle cx="462" cy="890" r="8" class="c0"/>
<circle cx="816" cy="1344" r="8" class="c0"/>
<circle cx="1166" cy="1210" r="8" class="c0"/>
<circle cx="1098" cy="518" r="8" class="c0"/>
<circle cx="1020" cy="1334" r="8" class="c0"/>
<circle cx="1048" cy="548" r="8" class="c0"/>
<circle cx="1248" cy="1392" r="8" class="c0"/>
<circle cx="1028" cy="620" r="8" class="c0"/>
<circle cx="1196" cy="1324" r="8" class="c0"/>
<circle cx="836" cy="1404" r="8" class="c0"/>
<circle cx="1140" cy="292" r="8" class="c0"/>
<circle cx="874" cy="1270" r="8" class="c0"/>
<circle cx="1014" cy="466" r="8" class="c0"/>
<circle cx="1152" cy="1326" r="8" class="c0"/>
<circle cx="734" cy="1324" r="8" class="c0"/>
<circle cx="1142" cy="946" r="8" class="c0"/>
<circle cx="792" cy="1288" r="8" class="c0"/>
<circle cx="1250" cy="1274" r="8" class="c0"/>
<circle cx="1188" cy="1282" r="8" class="c0"/>
<circle cx="1224" cy="1380" r="8" class="c0"/>
<circle cx="866" cy="1188" r="8" class="c0"/>
<circle cx="1146" cy="1036" r="8" class="c0"/>
<circle cx="994" cy="1038" r="8" class="c0"/>
<circle cx="1134" cy="1282" r="8" class="c0"/>
<circle cx="774" cy="1280" r="8" class="c0"/>
<circle cx="892" cy="1410" r="8" class="c0"/>
<circle cx="1246" cy="1012" r="8" class="c0"/>
<circle cx="1048" cy="1180" r="8" class="c0"/>
<circle cx="1064" cy="528" r="8" class="c0"/>
<circle cx="1152" cy="932" r="8" class="c0"/>
<circle cx="1122" cy="72" r="8" class="c0"/>
<circle cx="1114" cy="1322" r="8" class="c0"/>
<circle cx="914" cy="1184" r="8" class="c0"/>
<circle cx="1152" cy="1220" r="8" class="c0"/>
<circle cx="908" cy="1364" r="8" class="c0"/>
<circle cx="1040" cy="312" r="8" class="c0"/>
<circle cx="1138" cy="882" r="8" class="c0"/>
<circle cx="1068" cy="1120" r="8" class="c0"/>
<circle cx="1048" cy="1428" r="8" class="c0"/>
<circle cx="1190" cy="956" r="8" class="c0"/>
<circle cx="1084" cy="572" r="8" class="c0"/>
<circle cx="1026" cy="1180" r="8" class="c0"/>
<circle cx="962" cy="1396" r="8" class="c0"/>
<circle cx="1012" cy="1196" r="8" class="c0"/>
<circle cx="1122" cy="1358" r="8" class="c0"/>
<circle cx="1104" cy="1226" r="8" class="c0"/>
<circle cx="1084" cy="258" r="8" class="c0"/>
<circle cx="1134" cy="356" r="8" class="c0"/>
<circle cx="1192" cy="706" r="8" class="c0"/>
<circle cx="1148" cy="384" r="8" class="c0"/>
<circle cx="1084" cy="672" r="8" class="c0"/>
<circle cx="1094" cy="422" r="8" class="c0"/>
<circle cx="1114" cy="1128" r="8" class="c0"/>
<circle cx="874" cy="1310" r="8" class="c0"/>
<circle cx="1074" cy="1050" r="8" class="c0"/>
<circle cx="1158" cy="730" r="8" class="c0"/>
<circle cx="956" cy="1052" r="8" class="c0"/>
<circle cx="1126" cy="414" r="8" class="c0"/>
<circle cx="718" cy="1232" r="8" class="c0"/>
<circle cx="1160" cy="1078" r="8" class="c0"/>
<circle cx="1222" cy="1046" r="8" class="c0"/>
<circle cx="894" cy="1278" r="8" class="c0"/>
<circle cx="1186" cy="426" r="8" class="c0"/>
<circle cx="1062" cy="316" r="8" class="c0"/>
<circle cx="1092" cy="902" r="8" class="c0"/>
<circle cx="1126" cy="1192" r="8" class="c0"/>
<circle cx="1122" cy="456" r="8" class="c0"/>
<circle cx="1278" cy="1194" r="8" class="c0"/>
<circle cx="1028" cy="1008" r="8" class="c0"/>
<circle cx="1140" cy="606" r="8" class="c0"/>
<circle cx="928" cy="1234" r="8" class="c0"/>
<circle cx="1190" cy="916" r="8" class="c0"/>
<circle cx="1212" cy="1234" r="8" class="c0"/>
<circle cx="1218" cy="1200" r="8" class="c0"/>
<circle cx="896" cy="1312" r="8" class="c0"/>
<circle cx="1110" cy="1430" r="8" class="c0"/>
<circle cx="730" cy="1256" r="8" class="c0"/>
<circle cx="902" cy="1152" r="8" class="c0"/>
<circle cx="1088" cy="814" r="8" class="c0"/>
<circle cx="1172" cy="1000" r="8" class="c0"/>
<circle cx="952" cy="848" r="8" class="c0"/>
<circle cx="1248" cy="1336" r="8" class="c0"/>
<circle cx="1180" cy="592" r="8" class="c0"/>
<circle cx="854" cy="1136" r="8" class="c0"/>
<circle cx="858" cy="1288" r="8" class="c0"/>
<circle cx="1138" cy="146" r="8" class="c0"/>
<circle cx="1050" cy="996" r="8" class="c0"/>
<circle cx="1134" cy="1408" r="8" class="c0"/>
<circle cx="1198" cy="1160" r="8" class="c0"/>
<circle cx="1326" cy="1430" r="8" class="c0"/>
<circle cx="1080" cy="1260" r="8" class="c0"/>
<circle cx="964" cy="1376" r="8" class="c0"/>
<circle cx="1100" cy="1340" r="8" class="c0"/>
<circle cx="1060" cy="1070" r="8" class="c0"/>
<circle cx="1104" cy="734" r="8" class="c0"/>
<circle cx="884" cy="1114" r="8" class="c0"/>
<circle cx="904" cy="1400" r="6" class="c0"/>
<circle cx="988" cy="1278" r="6" class="c0"/>
<circle cx="1204" cy="1432" r="6" class="c0"/>
<circle cx="1310" cy="1312" r="6" class="c0"/>
<circle cx="1010" cy="706" r="6" class="c0"/>
<circle cx="1110" cy="156" r="6" class="c0"/>
<circle cx="800" cy="1172" r="6" class="c0"/>
<circle cx="1044" cy="1138" r="6" class="c0"/>
<circle cx="1146" cy="174" r="6" class="c0"/>
<circle cx="206" cy="960" r="6" class="c0"/>
<circle cx="808" cy="1398" r="6" class="c0"/>
<circle cx="1240" cy="988" r="6" class="c0"/>
<circle cx="1024" cy="662" r="6" class="c0"/>
<circle cx="1072" cy="204" r="6" class="c0"/>
<circle cx="984" cy="850" r="6" class="c0"/>
<circle cx="984" cy="1304" r="6" class="c0"/>
<circle cx="1184" cy="1314" r="6" class="c0"/>
<circle cx="1176" cy="1358" r="6" class="c0"/>
<circle cx="1138" cy="810" r="6" class="c0"/>
<circle cx="1168" cy="922" r="6" class="c0"/>
<circle cx="1174" cy="1112" r="6" class="c0"/>
<circle cx="850" cy="1346" r="6" class="c0"/>
<circle cx="844" cy="1378" r="6" class="c0"/>
<circle cx="1026" cy="638" r="6" class="c0"/>
<circle cx="1158" cy="12" r="6" class="c0"/>
<circle cx="1004" cy="1360" r="6" class="c0"/>
<circle cx="1012" cy="1056" r="6" class="c0"/>
<circle cx="992" cy="812" r="6" class="c0"/>
<circle cx="1270" cy="1364" r="6" class="c0"/>
<circle cx="960" cy="1178" r="6" class="c0"/>
<circle cx="1024" cy="404" r="6" class="c0"/>
<circle cx="1236" cy="1168" r="6" class="c0"/>
<circle cx="1096" cy="1384" r="6" class="c0"/>
<circle cx="1016" cy="788" r="6" class="c0"/>
<circle cx="1172" cy="352" r="6" class="c0"/>
<circle cx="1114" cy="88" r="6" class="c0"/>
<circle cx="1332" cy="1378" r="6" class="c0"/>
<circle cx="1026" cy="548" r="6" class="c0"/>
<circle cx="1134" cy="768" r="6" class="c0"/>
<circle cx="1176" cy="1220" r="6" class="c0"/>
<circle cx="1062" cy="476" r="6" class="c0"/>
<circle cx="1260" cy="1224" r="6" class="c0"/>
<circle cx="1158" cy="394" r="6" class="c0"/>
<circle cx="954" cy="1364" r="6" class="c0"/>
<circle cx="1206" cy="984" r="6" class="c0"/>
<circle cx="960" cy="818" r="6" class="c0"/>
<circle cx="1200" cy="1074" r="6" class="c0"/>
<circle cx="1228" cy="1090" r="6" class="c0"/>
<circle cx="1174" cy="26" r="6" class="c0"/>
<circle cx="1306" cy="1290" r="6" class="c0"/>
<circle cx="1098" cy="1068" r="6" class="c0"/>
<circle cx="1036" cy="1074" r="6" class="c0"/>
<circle cx="1076" cy="1340" r="6" class="c0"/>
<circle cx="958" cy="832" r="6" class="c0"/>
<circle cx="1220" cy="704" r="6" class="c0"/>
<circle cx="1032" cy="262" r="6" class="c0"/>
<circle cx="968" cy="512" r="6" class="c0"/>
<circle cx="1206" cy="744" r="6" class="c0"/>
<circle cx="1072" cy="1152" r="6" class="c0"/>
<circle cx="1152" cy="1294" r="6" class="c0"/>
<circle cx="1042" cy="1386" r="6" class="c0"/>
<circle cx="1110" cy="324" r="6" class="c0"/>
<circle cx="972" cy="412" r="6" class="c0"/>
<circle cx="1072" cy="326" r="6" class="c0"/>
<circle cx="1170" cy="860" r="6" class="c0"/>
<circle cx="1082" cy="286" r="6" class="c0"/>
<circle cx="1218" cy="860" r="6" class="c0"/>
<circle cx="1096" cy="1192" r="6" class="c0"/>
<circle cx="1160" cy="644" r="6" class="c0"/>
<circle cx="770" cy="1236" r="6" class="c0"/>
<circle cx="1090" cy="616" r="6" class="c0"/>
<circle cx="1054" cy="958" r="6" class="c0"/>
<circle cx="1204" cy="696" r="6" class="c0"/>
<circle cx="1286" cy="1214" r="6" class="c0"/>
<circle cx="978" cy="770" r="6" class="c0"/>
<circle cx="1132" cy="1128" r="6" class="c0"/>
<circle cx="986" cy="1244" r="6" class="c0"/>
<circle cx="1114" cy="352" r="6" class="c0"/>
<circle cx="1178" cy="314" r="6" class="c0"/>
<circle cx="868" cy="1402" r="6" class="c0"/>
<circle cx="1274" cy="1402" r="6" class="c0"/>
<circle cx="952" cy="1032" r="6" class="c0"/>
<circle cx="1150" cy="618" r="6" class="c0"/>
<circle cx="1168" cy="1412" r="6" class="c0"/>
<circle cx="996" cy="374" r="6" class="c0"/>
<circle cx="1018" cy="1100" r="6" class="c0"/>
<circle cx="1172" cy="1068" r="6" class="c0"/>
<circle cx="968" cy="846" r="6" class="c0"/>
<circle cx="1282" cy="1314" r="6" class="c0"/>
<circle cx="1008" cy="1154" r="6" class="c0"/>
<circle cx="972" cy="690" r="6" class="c0"/>
<circle cx="990" cy="712" r="6" class="c0"/>
<circle cx="1102" cy="994" r="6" class="c0"/>
<circle cx="958" cy="736" r="6" class="c0"/>
<circle cx="976" cy="1332" r="6" class="c0"/>
<circle cx="1204" cy="48" r="6" class="c0"/>
<circle cx="1106" cy="1030" r="6" class="c0"/>
<circle cx="1044" cy="978" r="6" class="c0"/>
<circle cx="1144" cy="344" r="6" class="c0"/>
<circle cx="950" cy="1234" r="6" class="c0"/>
<circle cx="292" cy="1034" r="6" class="c0"/>
<circle cx="1200" cy="1194" r="6" class="c0"/>
<circle cx="1090" cy="938" r="6" class="c0"/>
<circle cx="1138" cy="226" r="6" class="c0"/>
<circle cx="1106" cy="854" r="6" class="c0"/>
<circle cx="1192" cy="106" r="6" class="c0"/>
<circle cx="1084" cy="1008" r="6" class="c0"/>
<circle cx="1138" cy="488" r="6" class="c0"/>
<circle cx="136" cy="40" r="6" class="c0"/>
<circle cx="914" cy="1386" r="6" class="c0"/>
<circle cx="942" cy="1188" r="6" class="c0"/>
<circle cx="1084" cy="412" r="6" class="c0"/>
<circle cx="962" cy="1094" r="6" class="c0"/>
<circle cx="1036" cy="1022" r="6" class="c0"/>
<circle cx="1074" cy="756" r="6" class="c0"/>
<circle cx="1180" cy="984" r="6" class="c0"/>
<circle cx="1074" cy="924" r="6" class="c0"/>
<circle cx="944" cy="1432" r="6" class="c0"/>
<circle cx="1184" cy="1370" r="6" class="c0"/>
<circle cx="922" cy="1378" r="6" class="c0"/>
<circle cx="1162" cy="806" r="6" class="c0"/>
<circle cx="1104" cy="144" r="6" class="c0"/>
<circle cx="1210" cy="868" r="6" class="c0"/>
<circle cx="1082" cy="1288" r="6" class="c0"/>
<circle cx="766" cy="1222" r="6" class="c0"/>
<circle cx="994" cy="490" r="6" class="c0"/>
<circle cx="1182" cy="1010" r="6" class="c0"/>
<circle cx="1270" cy="1134" r="6" class="c0"/>
<circle cx="1238" cy="1150" r="6" class="c0"/>
<circle cx="1030" cy="332" r="6" class="c0"/>
<circle cx="1110" cy="786" r="6" class="c0"/>
<circle cx="934" cy="1336" r="6" class="c0"/>
<circle cx="1064" cy="1038" r="6" class="c0"/>
<circle cx="1028" cy="1244" r="6" class="c0"/>
<circle cx="832" cy="1334" r="6" class="c0"/>
<circle cx="996" cy="1404" r="6" class="c0"/>
<circle cx="966" cy="1018" r="6" class="c0"/>
<circle cx="1120" cy="1224" r="6" class="c0"/>
<circle cx="1068" cy="884" r="6" class="c0"/>
<circle cx="1258" cy="1072" r="6" class="c0"/>
<circle cx="1130" cy="236" r="6" class="c0"/>
<circle cx="1016" cy="518" r="6" class="c0"/>
<circle cx="1170" cy="672" r="6" class="c0"/>
<circle cx="1152" cy="770" r="6" class="c0"/>
<circle cx="1048" cy="1080" r="6" class="c0"/>
<circle cx="1184" cy="364" r="6" class="c0"/>
<circle cx="868" cy="1124" r="6" class="c0"/>
<circle cx="1130" cy="848" r="6" class="c0"/>
<circle cx="806" cy="1328" r="6" class="c0"/>
<circle cx="1136" cy="576" r="6" class="c0"/>
<circle cx="982" cy="448" r="6" class="c0"/>
<circle cx="1238" cy="1126" r="6" class="c0"/>
<circle cx="1092" cy="228" r="6" class="c0"/>
<circle cx="1048" cy="458" r="6" class="c0"/>
<circle cx="1158" cy="340" r="6" class="c0"/>
<circle cx="714" cy="1282" r="6" class="c0"/>
<circle cx="1204" cy="902" r="6" class="c0"/>
<circle cx="1226" cy="1348" r="6" class="c0"/>
<circle cx="1204" cy="658" r="6" class="c0"/>
<circle cx="974" cy="1206" r="6" class="c0"/>
<circle cx="1066" cy="496" r="6" class="c0"/>
<circle cx="1026" cy="276" r="6" class="c0"/>
<circle cx="1192" cy="842" r="6" class="c0"/>
<circle cx="996" cy="798" r="6" class="c0"/>
<circle cx="1106" cy="1156" r="6" class="c0"/>
<circle cx="930" cy="1428" r="6" class="c0"/>
<circle cx="1158" cy="682" r="6" class="c0"/>
<circle cx="1198" cy="784" r="6" class="c0"/>
<circle cx="956" cy="758" r="6" class="c0"/>
<circle cx="692" cy="1346" r="6" class="c0"/>
<circle cx="1138" cy="666" r="6" class="c0"/>
<circle cx="1008" cy="496" r="6" class="c0"/>
<circle cx="980" cy="1432" r="6" class="c0"/>
<circle cx="1134" cy="130" r="6" class="c0"/>
<circle cx="1156" cy="442" r="6" class="c0"/>
<circle cx="1034" cy="1166" r="6" class="c0"/>
<circle cx="928" cy="1140" r="6" class="c0"/>
<circle cx="1076" cy="1276" r="6" class="c0"/>
<circle cx="1044" cy="1014" r="6" class="c0"/>
<circle cx="1266" cy="1270" r="6" class="c0"/>
<circle cx="1300" cy="1322" r="6" class="c0"/>
<circle cx="1070" cy="582" r="6" class="c0"/>
<circle cx="870" cy="1378" r="6" class="c0"/>
<circle cx="1046" cy="376" r="6" class="c0"/>
<circle cx="1138" cy="164" r="6" class="c0"/>
<circle cx="1094" cy="1128" r="6" class="c0"/>
<circle cx="1132" cy="1164" r="6" class="c0"/>
<circle cx="1068" cy="228" r="6" class="c0"/>
<circle cx="998" cy="1108" r="6" class="c0"/>
<circle cx="1094" cy="1294" r="6" class="c0"/>
<circle cx="918" cy="772" r="6" class="c0"/>
<circle cx="1062" cy="350" r="6" class="c0"/>
<circle cx="928" cy="1192" r="6" class="c0"/>
<circle cx="1112" cy="720" r="6" class="c0"/>
<circle cx="1200" cy="926" r="6" class="c0"/>
<circle cx="1160" cy="1420" r="6" class="c0"/>
<circle cx="1104" cy="192" r="6" class="c0"/>
<circle cx="1150" cy="196" r="6" class="c0"/>
<circle cx="1074" cy="694" r="6" class="c0"/>
<circle cx="1170" cy="300" r="6" class="c0"/>
<circle cx="900" cy="1118" r="6" class="c0"/>
<circle cx="1232" cy="980" r="6" class="c0"/>
<circle cx="1054" cy="942" r="6" class="c0"/>
<circle cx="804" cy="1260" r="6" class="c0"/>
<circle cx="1292" cy="1244" r="6" class="c0"/>
<circle cx="1096" cy="386" r="6" class="c0"/>
<circle cx="1148" cy="134" r="6" class="c0"/>
<circle cx="1078" cy="1408" r="6" class="c0"/>
<circle cx="1080" cy="180" r="6" class="c0"/>
<circle cx="1130" cy="1324" r="6" class="c0"/>
<circle cx="860" cy="1222" r="6" class="c0"/>
<circle cx="1066" cy="548" r="6" class="c0"/>
<circle cx="1098" cy="846" r="6" class="c0"/>
<circle cx="736" cy="1306" r="6" class="c0"/>
<circle cx="1028" cy="1112" r="6" class="c0"/>
<circle cx="1144" cy="40" r="6" class="c0"/>
<circle cx="1188" cy="756" r="6" class="c0"/>
<circle cx="986" cy="918" r="6" class="c0"/>
<circle cx="990" cy="974" r="6" class="c0"/>
<circle cx="1112" cy="8" r="6" class="c0"/>
<circle cx="1036" cy="1122" r="6" class="c0"/>
<circle cx="972" cy="1110" r="6" class="c0"/>
<circle cx="1220" cy="836" r="6" class="c0"/>
<circle cx="1044" cy="564" r="6" class="c0"/>
<circle cx="1736" cy="666" r="6" class="c0"/>
<circle cx="1168" cy="892" r="6" class="c0"/>
<circle cx="1002" cy="294" r="6" class="c0"/>
<circle cx="1160" cy="746" r="6" class="c0"/>
<circle cx="1038" cy="434" r="6" class="c0"/>
<circle cx="1066" cy="1104" r="6" class="c0"/>
<circle cx="1190" cy="1230" r="6" class="c0"/>
<circle cx="1062" cy="1024" r="6" class="c0"/>
<circle cx="1102" cy="542" r="6" class="c0"/>
<circle cx="1136" cy="1046" r="6" class="c0"/>
<circle cx="1010" cy="302" r="6" class="c0"/>
<circle cx="1152" cy="90" r="6" class="c0"/>
<circle cx="1112" cy="444" r="6" class="c0"/>
<circle cx="1020" cy="586" r="6" class="c0"/>
<circle cx="1042" cy="774" r="6" class="c0"/>
<circle cx="1144" cy="918" r="6" class="c0"/>
<circle cx="978" cy="678" r="6" class="c0"/>
<circle cx="1134" cy="1068" r="6" class="c0"/>
<circle cx="1026" cy="1304" r="6" class="c0"/>
<circle cx="1104" cy="1312" r="6" class="c0"/>
<circle cx="716" cy="1318" r="6" class="c0"/>
<circle cx="1158" cy="120" r="6" class="c0"/>
<circle cx="1108" cy="1390" r="6" class="c0"/>
<circle cx="972" cy="1058" r="6" class="c0"/>
<circle cx="1158" cy="986" r="6" class="c0"/>
<circle cx="1002" cy="1024" r="6" class="c0"/>
<circle cx="918" cy="1224" r="6" class="c0"/>
<circle cx="1104" cy="1118" r="6" class="c0"/>
<circle cx="836" cy="678" r="6" class="c0"/>
<circle cx="1298" cy="1386" r="6" class="c0"/>
<circle cx="1116" cy="472" r="6" class="c0"/>
<circle cx="1108" cy="752" r="6" class="c0"/>
<circle cx="1146" cy="216" r="6" class="c0"/>
<circle cx="1026" cy="920" r="6" class="c0"/>
<circle cx="1164" cy="584" r="6" class="c0"/>
<circle cx="1216" cy="64" r="6" class="c0"/>
<circle cx="284" cy="1046" r="6" class="c0"/>
<circle cx="1022" cy="1156" r="6" class="c0"/>
<circle cx="1112" cy="1244" r="6" class="c0"/>
<circle cx="1102" cy="778" r="6" class="c0"/>
<circle cx="1104" cy="1138" r="6" class="c0"/>
<circle cx="1086" cy="528" r="6" class="c0"/>
<circle cx="1148" cy="820" r="6" class="c0"/>
<circle cx="930" cy="814" r="6" class="c0"/>
<circle cx="954" cy="878" r="6" class="c0"/>
<circle cx="1064" cy="632" r="6" class="c0"/>
<circle cx="1226" cy="1268" r="6" class="c0"/>
<circle cx="804" cy="1278" r="6" class="c0"/>
<circle cx="958" cy="792" r="6" class="c0"/>
<circle cx="1242" cy="1306" r="6" class="c0"/>
<circle cx="936" cy="1052" r="6" class="c0"/>
<circle cx="1298" cy="1282" r="6" class="c0"/>
<circle cx="984" cy="1028" r="6" class="c0"/>
<circle cx="704" cy="1310" r="6" class="c0"/>
<circle cx="972" cy="328" r="6" class="c0"/>
<circle cx="980" cy="944" r="6" class="c0"/>
<circle cx="1148" cy="892" r="6" class="c0"/>
<circle cx="1034" cy="654" r="6" class="c0"/>
<circle cx="778" cy="1188" r="6" class="c0"/>
<circle cx="1264" cy="1394" r="6" class="c0"/>
<circle cx="1176" cy="1404" r="6" class="c0"/>
<circle cx="1166" cy="1122" r="6" class="c0"/>
<circle cx="994" cy="902" r="6" class="c0"/>
<circle cx="782" cy="1212" r="6" class="c0"/>
<circle cx="1298" cy="1432" r="6" class="c0"/>
<circle cx="990" cy="538" r="6" class="c0"/>
<circle cx="896" cy="1238" r="6" class="c0"/>
<circle cx="80" cy="356" r="6" class="c0"/>
<circle cx="720" cy="1268" r="6" class="c0"/>
<circle cx="760" cy="1386" r="6" class="c0"/>
<circle cx="1140" cy="1136" r="6" class="c0"/>
<circle cx="1278" cy="1250" r="6" class="c0"/>
<circle cx="856" cy="1428" r="6" class="c0"/>
<circle cx="1160" cy="1174" r="6" class="c0"/>
<circle cx="942" cy="1242" r="6" class="c0"/>
<circle cx="1130" cy="1432" r="6" class="c0"/>
<circle cx="1088" cy="354" r="6" class="c0"/>
<circle cx="764" cy="1354" r="6" class="c0"/>
<circle cx="820" cy="1234" r="6" class="c0"/>
<circle cx="844" cy="1252" r="6" class="c0"/>
<circle cx="1052" cy="1128" r="6" class="c0"/>
<circle cx="938" cy="726" r="6" class="c0"/>
<circle cx="446" cy="892" r="6" class="c0"/>
<circle cx="1186" cy="972" r="6" class="c0"/>
<circle cx="998" cy="1162" r="6" class="c0"/>
<circle cx="1124" cy="154" r="6" class="c0"/>
<circle cx="1134" cy="54" r="6" class="c0"/>
<circle cx="988" cy="1080" r="6" class="c0"/>
<circle cx="1098" cy="1164" r="6" class="c0"/>
<circle cx="936" cy="1270" r="6" class="c0"/>
<circle cx="996" cy="1264" r="6" class="c0"/>
<circle cx="864" cy="1350" r="6" class="c0"/>
<circle cx="954" cy="1336" r="6" class="c0"/>
<circle cx="878" cy="1370" r="6" class="c0"/>
<circle cx="1110" cy="686" r="6" class="c0"/>
<circle cx="1042" cy="1250" r="6" class="c0"/>
<circle cx="890" cy="1184" r="6" class="c0"/>
<circle cx="1096" cy="1320" r="6" class="c0"/>
<circle cx="1046" cy="532" r="6" class="c0"/>
<circle cx="1094" cy="1216" r="6" class="c0"/>
<circle cx="1202" cy="24" r="6" class="c0"/>
</svg>
