<?xml version="1.0" encoding="utf-8"?>
<svg xmlns="http://www.w3.org/2000/svg"
     xmlns:xlink="http://www.w3.org/1999/xlink" width="1920" height="1440" >

            <defs>
            <style type="text/css"><![CDATA[
circle {stroke: none;}
.c0 {fill: #FFFFFF;}
]]></style>
            </defs>
<rect x="0" y="0" width="1920" height="1440" fill="black"/>
<circle cx="1044" cy="464" r="12" class="c0"/>
<circle cx="972" cy="416" r="12" class="c0"/>
<circle cx="1138" cy="470" r="12" class="c0"/>
<circle cx="690" cy="662" r="12" class="c0"/>
<circle cx="1014" cy="390" r="12" class="c0"/>
<circle cx="1380" cy="674" r="12" class="c0"/>
<circle cx="1006" cy="424" r="12" class="c0"/>
<circle cx="1056" cy="590" r="12" class="c0"/>
<circle cx="1434" cy="686" r="12" class="c0"/>
<circle cx="628" cy="644" r="12" class="c0"/>
<circle cx="1320" cy="712" r="12" class="c0"/>
<circle cx="1362" cy="640" r="12" class="c0"/>
<circle cx="1084" cy="642" r="12" class="c0"/>
<circle cx="954" cy="680" r="12" class="c0"/>
<circle cx="1130" cy="544" r="12" class="c0"/>
<circle cx="1194" cy="700" r="12" class="c0"/>
<circle cx="1154" cy="592" r="12" class="c0"/>
<circle cx="1124" cy="658" r="12" class="c0"/>
<circle cx="944" cy="382" r="12" class="c0"/>
<circle cx="944" cy="646" r="10" class="c0"/>
<circle cx="996" cy="450" r="10" class="c0"/>
<circle cx="1056" cy="632" r="10" class="c0"/>
<circle cx="1116" cy="698" r="10" class="c0"/>
<circle cx="1046" cy="546" r="10" class="c0"/>
<circle cx="1066" cy="528" r="10" class="c0"/>
<circle cx="1100" cy="576" r="10" class="c0"/>
<circle cx="1040" cy="604" r="10" class="c0"/>
<circle cx="1028" cy="532" r="10" class="c0"/>
<circle cx="1308" cy="636" r="10" class="c0"/>
<circle cx="1088" cy="592" r="10" class="c0"/>
<circle cx="1468" cy="712" r="10" class="c0"/>
<circle cx="1192" cy="610" r="10" class="c0"/>
<circle cx="990" cy="698" r="10" class="c0"/>
<circle cx="978" cy="382" r="10" class="c0"/>
<circle cx="1134" cy="630" r="10" class="c0"/>
<circle cx="1340" cy="682" r="10" class="c0"/>
<circle cx="1036" cy="356" r="10" class="c0"/>
<circle cx="1164" cy="640" r="10" class="c0"/>
<circle cx="1410" cy="750" r="10" class="c0"/>
<circle cx="1006" cy="660" r="10" class="c0"/>
<circle cx="904" cy="328" r="10" class="c0"/>
<circle cx="1106" cy="678" r="10" class="c0"/>
<circle cx="1276" cy="696" r="10" class="c0"/>
<circle cx="1298" cy="668" r="10" class="c0"/>
<circle cx="902" cy="366" r="10" class="c0"/>
<circle cx="1378" cy="716" r="10" class="c0"/>
<circle cx="1416" cy="638" r="10" class="c0"/>
<circle cx="1016" cy="460" r="10" class="c0"/>
<circle cx="1262" cy="714" r="10" class="c0"/>
<circle cx="716" cy="672" r="10" class="c0"/>
<circle cx="1078" cy="442" r="10" class="c0"/>
<circle cx="1220" cy="664" r="10" class="c0"/>
<circle cx="1352" cy="706" r="10" class="c0"/>
<circle cx="1158" cy="494" r="10" class="c0"/>
<circle cx="1448" cy="728" r="10" class="c0"/>
<circle cx="1160" cy="666" r="10" class="c0"/>
<circle cx="996" cy="556" r="10" class="c0"/>
<circle cx="1232" cy="710" r="10" class="c0"/>
<circle cx="1024" cy="636" r="10" class="c0"/>
<circle cx="1004" cy="528" r="10" class="c0"/>
<circle cx="1294" cy="712" r="10" class="c0"/>
<circle cx="1420" cy="670" r="10" class="c0"/>
<circle cx="1054" cy="698" r="10" class="c0"/>
<circle cx="1220" cy="692" r="10" class="c0"/>
<circle cx="1122" cy="746" r="10" class="c0"/>
<circle cx="1436" cy="654" r="10" class="c0"/>
<circle cx="930" cy="678" r="10" class="c0"/>
<circle cx="1116" cy="490" r="10" class="c0"/>
<circle cx="1080" cy="720" r="10" class="c0"/>
<circle cx="1338" cy="648" r="10" class="c0"/>
<circle cx="1056" cy="674" r="10" class="c0"/>
<circle cx="1008" cy="336" r="10" class="c0"/>
<circle cx="792" cy="664" r="10" class="c0"/>
<circle cx="1050" cy="406" r="10" class="c0"/>
<circle cx="828" cy="664" r="10" class="c0"/>
<circle cx="1226" cy="642" r="10" class="c0"/>
<circle cx="1250" cy="658" r="10" class="c0"/>
<circle cx="1200" cy="632" r="10" class="c0"/>
<circle cx="1320" cy="670" r="10" class="c0"/>
<circle cx="1398" cy="706" r="10" class="c0"/>
<circle cx="1086" cy="746" r="10" class="c0"/>
<circle cx="1274" cy="674" r="10" class="c0"/>
<circle cx="942" cy="482" r="10" class="c0"/>
<circle cx="998" cy="358" r="10" class="c0"/>
<circle cx="1082" cy="614" r="10" class="c0"/>
<circle cx="1078" cy="496" r="10" class="c0"/>
<circle cx="1012" cy="692" r="10" class="c0"/>
<circle cx="1114" cy="594" r="8" class="c0"/>
<circle cx="986" cy="518" r="8" class="c0"/>
<circle cx="742" cy="656" r="8" class="c0"/>
<circle cx="1044" cy="566" r="8" class="c0"/>
<circle cx="1034" cy="494" r="8" class="c0"/>
<circle cx="1118" cy="376" r="8" class="c0"/>
<circle cx="1096" cy="430" r="8" class="c0"/>
<circle cx="1292" cy="648" r="8" class="c0"/>
<circle cx="1106" cy="506" r="8" class="c0"/>
<circle cx="1370" cy="754" r="8" class="c0"/>
<circle cx="664" cy="650" r="8" class="c0"/>
<circle cx="1096" cy="626" r="8" class="c0"/>
<circle cx="1090" cy="696" r="8" class="c0"/>
<circle cx="1142" cy="688" r="8" class="c0"/>
<circle cx="1260" cy="636" r="8" class="c0"/>
<circle cx="1076" cy="464" r="8" class="c0"/>
<circle cx="920" cy="348" r="8" class="c0"/>
<circle cx="972" cy="588" r="8" class="c0"/>
<circle cx="1040" cy="652" r="8" class="c0"/>
<circle cx="1470" cy="732" r="8" class="c0"/>
<circle cx="1194" cy="656" r="8" class="c0"/>
<circle cx="1044" cy="438" r="8" class="c0"/>
<circle cx="1386" cy="630" r="8" class="c0"/>
<circle cx="1476" cy="690" r="8" class="c0"/>
<circle cx="922" cy="472" r="8" class="c0"/>
<circle cx="1072" cy="578" r="8" class="c0"/>
<circle cx="1110" cy="638" r="8" class="c0"/>
<circle cx="1076" cy="356" r="8" class="c0"/>
<circle cx="1124" cy="608" r="8" class="c0"/>
<circle cx="1020" cy="562" r="8" class="c0"/>
<circle cx="1242" cy="678" r="8" class="c0"/>
<circle cx="928" cy="398" r="8" class="c0"/>
<circle cx="1210" cy="712" r="8" class="c0"/>
<circle cx="1082" cy="680" r="8" class="c0"/>
<circle cx="806" cy="714" r="8" class="c0"/>
<circle cx="866" cy="662" r="8" class="c0"/>
<circle cx="1418" cy="712" r="8" class="c0"/>
<circle cx="1104" cy="470" r="8" class="c0"/>
<circle cx="1082" cy="568" r="8" class="c0"/>
<circle cx="770" cy="656" r="8" class="c0"/>
<circle cx="972" cy="708" r="8" class="c0"/>
<circle cx="996" cy="640" r="8" class="c0"/>
<circle cx="1034" cy="580" r="8" class="c0"/>
<circle cx="738" cy="676" r="8" class="c0"/>
<circle cx="1298" cy="736" r="8" class="c0"/>
<circle cx="1180" cy="670" r="8" class="c0"/>
<circle cx="1032" cy="706" r="8" class="c0"/>
<circle cx="606" cy="650" r="8" class="c0"/>
<circle cx="1412" cy="688" r="8" class="c0"/>
<circle cx="998" cy="494" r="8" class="c0"/>
<circle cx="1042" cy="520" r="8" class="c0"/>
<circle cx="1120" cy="460" r="8" class="c0"/>
<circle cx="1056" cy="354" r="8" class="c0"/>
<circle cx="1026" cy="408" r="8" class="c0"/>
<circle cx="922" cy="380" r="8" class="c0"/>
<circle cx="1050" cy="502" r="8" class="c0"/>
<circle cx="1352" cy="744" r="8" class="c0"/>
<circle cx="1070" cy="554" r="8" class="c0"/>
<circle cx="1326" cy="734" r="8" class="c0"/>
<circle cx="1394" cy="658" r="8" class="c0"/>
<circle cx="1458" cy="686" r="8" class="c0"/>
<circle cx="794" cy="702" r="8" class="c0"/>
<circle cx="1398" cy="728" r="8" class="c0"/>
<circle cx="992" cy="400" r="8" class="c0"/>
<circle cx="1388" cy="752" r="8" class="c0"/>
<circle cx="1030" cy="426" r="8" class="c0"/>
<circle cx="1198" cy="674" r="8" class="c0"/>
<circle cx="1016" cy="512" r="8" class="c0"/>
<circle cx="1430" cy="736" r="8" class="c0"/>
<circle cx="1100" cy="658" r="8" class="c0"/>
<circle cx="1128" cy="582" r="8" class="c0"/>
<circle cx="1028" cy="680" r="8" class="c0"/>
<circle cx="1170" cy="702" r="8" class="c0"/>
<circle cx="1278" cy="632" r="8" class="c0"/>
<circle cx="914" cy="666" r="8" class="c0"/>
<circle cx="1310" cy="694" r="8" class="c0"/>
<circle cx="890" cy="666" r="8" class="c0"/>
<circle cx="1046" cy="378" r="8" class="c0"/>
<circle cx="646" cy="656" r="8" class="c0"/>
<circle cx="1102" cy="604" r="8" class="c0"/>
<circle cx="978" cy="660" r="8" class="c0"/>
<circle cx="1070" cy="420" r="8" class="c0"/>
<circle cx="1086" cy="478" r="8" class="c0"/>
<circle cx="968" cy="364" r="8" class="c0"/>
<circle cx="1254" cy="692" r="8" class="c0"/>
<circle cx="776" cy="696" r="8" class="c0"/>
<circle cx="1020" cy="482" r="8" class="c0"/>
<circle cx="1100" cy="710" r="8" class="c0"/>
<circle cx="932" cy="332" r="8" class="c0"/>
<circle cx="1096" cy="368" r="8" class="c0"/>
<circle cx="1074" cy="662" r="8" class="c0"/>
<circle cx="1362" cy="734" r="8" class="c0"/>
<circle cx="708" cy="648" r="8" class="c0"/>
<circle cx="960" cy="396" r="8" class="c0"/>
<circle cx="1026" cy="372" r="8" class="c0"/>
<circle cx="1270" cy="652" r="8" class="c0"/>
<circle cx="910" cy="390" r="8" class="c0"/>
<circle cx="1362" cy="684" r="8" class="c0"/>
<circle cx="970" cy="534" r="8" class="c0"/>
<circle cx="674" cy="682" r="8" class="c0"/>
<circle cx="978" cy="680" r="8" class="c0"/>
<circle cx="980" cy="438" r="8" class="c0"/>
<circle cx="1066" cy="474" r="8" class="c0"/>
<circle cx="1024" cy="614" r="8" class="c0"/>
<circle cx="1090" cy="768" r="8" class="c0"/>
<circle cx="1212" cy="620" r="8" class="c0"/>
<circle cx="902" cy="676" r="8" class="c0"/>
<circle cx="982" cy="570" r="8" class="c0"/>
<circle cx="1282" cy="726" r="8" class="c0"/>
<circle cx="1110" cy="732" r="8" class="c0"/>
<circle cx="962" cy="600" r="8" class="c0"/>
<circle cx="1108" cy="554" r="8" class="c0"/>
<circle cx="1122" cy="722" r="8" class="c0"/>
<circle cx="1036" cy="624" r="8" class="c0"/>
<circle cx="1382" cy="648" r="8" class="c0"/>
<circle cx="1180" cy="598" r="8" class="c0"/>
<circle cx="1064" cy="454" r="8" class="c0"/>
<circle cx="1342" cy="626" r="8" class="c0"/>
<circle cx="1148" cy="650" r="8" class="c0"/>
<circle cx="964" cy="618" r="8" class="c0"/>
<circle cx="930" cy="360" r="8" class="c0"/>
<circle cx="1118" cy="568" r="8" class="c0"/>
<circle cx="1020" cy="440" r="8" class="c0"/>
<circle cx="1060" cy="612" r="8" class="c0"/>
<circle cx="1250" cy="730" r="8" class="c0"/>
<circle cx="938" cy="408" r="8" class="c0"/>
<circle cx="966" cy="512" r="8" class="c0"/>
<circle cx="1448" cy="702" r="8" class="c0"/>
<circle cx="1352" cy="668" r="8" class="c0"/>
<circle cx="822" cy="724" r="8" class="c0"/>
<circle cx="1436" cy="714" r="8" class="c0"/>
<circle cx="1032" cy="334" r="8" class="c0"/>
<circle cx="956" cy="498" r="8" class="c0"/>
<circle cx="1152" cy="700" r="8" class="c0"/>
<circle cx="1138" cy="564" r="8" class="c0"/>
<circle cx="758" cy="690" r="8" class="c0"/>
<circle cx="998" cy="680" r="8" class="c0"/>
<circle cx="1036" cy="392" r="8" class="c0"/>
<circle cx="1138" cy="496" r="8" class="c0"/>
<circle cx="938" cy="456" r="8" class="c0"/>
<circle cx="1056" cy="484" r="8" class="c0"/>
<circle cx="1094" cy="452" r="8" class="c0"/>
<circle cx="1066" cy="344" r="8" class="c0"/>
<circle cx="1060" cy="430" r="8" class="c0"/>
<circle cx="768" cy="676" r="8" class="c0"/>
<circle cx="1116" cy="442" r="8" class="c0"/>
<circle cx="1344" cy="728" r="8" class="c0"/>
<circle cx="848" cy="672" r="8" class="c0"/>
<circle cx="954" cy="630" r="8" class="c0"/>
<circle cx="1372" cy="696" r="8" class="c0"/>
<circle cx="1166" cy="476" r="8" class="c0"/>
<circle cx="1184" cy="646" r="8" class="c0"/>
<circle cx="1322" cy="624" r="8" class="c0"/>
<circle cx="1132" cy="710" r="8" class="c0"/>
<circle cx="1008" cy="712" r="8" class="c0"/>
<circle cx="884" cy="358" r="8" class="c0"/>
<circle cx="988" cy="670" r="8" class="c0"/>
<circle cx="1168" cy="684" r="6" class="c0"/>
<circle cx="1066" cy="366" r="6" class="c0"/>
<circle cx="870" cy="680" r="6" class="c0"/>
<circle cx="1294" cy="688" r="6" class="c0"/>
<circle cx="664" cy="668" r="6" class="c0"/>
<circle cx="1124" cy="764" r="6" class="c0"/>
<circle cx="1318" cy="650" r="6" class="c0"/>
<circle cx="1366" cy="660" r="6" class="c0"/>
<circle cx="1018" cy="350" r="6" class="c0"/>
<circle cx="1064" cy="510" r="6" class="c0"/>
<circle cx="1114" cy="622" r="6" class="c0"/>
<circle cx="1208" cy="596" r="6" class="c0"/>
<circle cx="752" cy="666" r="6" class="c0"/>
<circle cx="1450" cy="668" r="6" class="c0"/>
<circle cx="1330" cy="696" r="6" class="c0"/>
<circle cx="1404" cy="624" r="6" class="c0"/>
<circle cx="1140" cy="668" r="6" class="c0"/>
<circle cx="1090" cy="508" r="6" class="c0"/>
<circle cx="1380" cy="738" r="6" class="c0"/>
<circle cx="1236" cy="598" r="6" class="c0"/>
<circle cx="1000" cy="376" r="6" class="c0"/>
<circle cx="988" cy="536" r="6" class="c0"/>
<circle cx="1126" cy="682" r="6" class="c0"/>
<circle cx="726" cy="654" r="6" class="c0"/>
<circle cx="1024" cy="664" r="6" class="c0"/>
<circle cx="1030" cy="450" r="6" class="c0"/>
<circle cx="810" cy="672" r="6" class="c0"/>
<circle cx="1396" cy="686" r="6" class="c0"/>
<circle cx="1140" cy="528" r="6" class="c0"/>
<circle cx="1104" cy="748" r="6" class="c0"/>
<circle cx="1096" cy="490" r="6" class="c0"/>
<circle cx="1152" cy="626" r="6" class="c0"/>
<circle cx="1370" cy="620" r="6" class="c0"/>
<circle cx="956" cy="658" r="6" class="c0"/>
<circle cx="932" cy="660" r="6" class="c0"/>
<circle cx="1050" cy="336" r="6" class="c0"/>
<circle cx="964" cy="436" r="6" class="c0"/>
<circle cx="962" cy="698" r="6" class="c0"/>
<circle cx="972" cy="550" r="6" class="c0"/>
<circle cx="680" cy="646" r="6" class="c0"/>
<circle cx="1396" cy="640" r="6" class="c0"/>
<circle cx="1430" cy="754" r="6" class="c0"/>
<circle cx="1068" cy="688" r="6" class="c0"/>
<circle cx="952" cy="420" r="6" class="c0"/>
<circle cx="1070" cy="602" r="6" class="c0"/>
<circle cx="986" cy="346" r="6" class="c0"/>
<circle cx="952" cy="468" r="6" class="c0"/>
<circle cx="1404" cy="770" r="6" class="c0"/>
<circle cx="1068" cy="708" r="6" class="c0"/>
<circle cx="810" cy="656" r="6" class="c0"/>
<circle cx="1062" cy="650" r="6" class="c0"/>
<circle cx="1234" cy="728" r="6" class="c0"/>
<circle cx="1134" cy="598" r="6" class="c0"/>
<circle cx="1210" cy="650" r="6" class="c0"/>
<circle cx="1414" cy="730" r="6" class="c0"/>
<circle cx="1016" cy="544" r="6" class="c0"/>
<circle cx="1266" cy="734" r="6" class="c0"/>
<circle cx="1402" cy="674" r="6" class="c0"/>
<circle cx="1122" cy="520" r="6" class="c0"/>
<circle cx="992" cy="716" r="6" class="c0"/>
<circle cx="1244" cy="638" r="6" class="c0"/>
<circle cx="1220" cy="722" r="6" class="c0"/>
<circle cx="1006" cy="474" r="6" class="c0"/>
<circle cx="654" cy="640" r="6" class="c0"/>
<circle cx="1008" cy="628" r="6" class="c0"/>
<circle cx="1468" cy="674" r="6" class="c0"/>
<circle cx="1038" cy="670" r="6" class="c0"/>
<circle cx="902" cy="346" r="6" class="c0"/>
<circle cx="972" cy="452" r="6" class="c0"/>
<circle cx="1308" cy="726" r="6" class="c0"/>
<circle cx="1094" cy="730" r="6" class="c0"/>
<circle cx="1182" cy="686" r="6" class="c0"/>
<circle cx="1136" cy="758" r="6" class="c0"/>
<circle cx="1336" cy="746" r="6" class="c0"/>
<circle cx="1062" cy="568" r="6" class="c0"/>
<circle cx="1410" cy="656" r="6" class="c0"/>
<circle cx="1078" cy="516" r="6" class="c0"/>
<circle cx="598" cy="636" r="6" class="c0"/>
<circle cx="1000" cy="510" r="6" class="c0"/>
<circle cx="1032" cy="510" r="6" class="c0"/>
<circle cx="690" cy="684" r="6" class="c0"/>
<circle cx="1038" cy="690" r="6" class="c0"/>
</svg>
