<?xml version="1.0" encoding="utf-8"?>
<svg xmlns="http://www.w3.org/2000/svg"
     xmlns:xlink="http://www.w3.org/1999/xlink" width="1920" height="1440" >

            <defs>
            <style type="text/css"><![CDATA[
circle {stroke: none;}
.c0 {fill: #FFFFFF;}
]]></style>
            </defs>
<rect x="0" y="0" width="1920" height="1440" fill="black"/>
<circle cx="1002" cy="520" r="14" class="c0"/>
<circle cx="938" cy="370" r="12" class="c0"/>
<circle cx="1042" cy="480" r="12" class="c0"/>
<circle cx="1114" cy="678" r="12" class="c0"/>
<circle cx="1104" cy="594" r="12" class="c0"/>
<circle cx="1208" cy="662" r="12" class="c0"/>
<circle cx="1058" cy="540" r="12" class="c0"/>
<circle cx="1398" cy="664" r="12" class="c0"/>
<circle cx="1090" cy="646" r="12" class="c0"/>
<circle cx="972" cy="536" r="12" class="c0"/>
<circle cx="1142" cy="648" r="12" class="c0"/>
<circle cx="1038" cy="580" r="12" class="c0"/>
<circle cx="1314" cy="728" r="12" class="c0"/>
<circle cx="742" cy="666" r="12" class="c0"/>
<circle cx="1236" cy="708" r="12" class="c0"/>
<circle cx="1038" cy="650" r="12" class="c0"/>
<circle cx="1016" cy="682" r="12" class="c0"/>
<circle cx="1024" cy="400" r="12" class="c0"/>
<circle cx="1176" cy="636" r="12" class="c0"/>
<circle cx="1028" cy="352" r="12" class="c0"/>
<circle cx="1028" cy="542" r="10" class="c0"/>
<circle cx="1126" cy="616" r="10" class="c0"/>
<circle cx="912" cy="382" r="10" class="c0"/>
<circle cx="1164" cy="704" r="10" class="c0"/>
<circle cx="1200" cy="684" r="10" class="c0"/>
<circle cx="1342" cy="732" r="10" class="c0"/>
<circle cx="1066" cy="658" r="10" class="c0"/>
<circle cx="1424" cy="654" r="10" class="c0"/>
<circle cx="1008" cy="628" r="10" class="c0"/>
<circle cx="1076" cy="716" r="10" class="c0"/>
<circle cx="1158" cy="494" r="10" class="c0"/>
<circle cx="1006" cy="660" r="10" class="c0"/>
<circle cx="1062" cy="628" r="10" class="c0"/>
<circle cx="1380" cy="720" r="10" class="c0"/>
<circle cx="1186" cy="606" r="10" class="c0"/>
<circle cx="1116" cy="556" r="10" class="c0"/>
<circle cx="618" cy="646" r="10" class="c0"/>
<circle cx="1110" cy="444" r="10" class="c0"/>
<circle cx="1084" cy="504" r="10" class="c0"/>
<circle cx="1018" cy="446" r="10" class="c0"/>
<circle cx="1134" cy="500" r="10" class="c0"/>
<circle cx="1070" cy="440" r="10" class="c0"/>
<circle cx="1058" cy="344" r="10" class="c0"/>
<circle cx="926" cy="670" r="10" class="c0"/>
<circle cx="960" cy="388" r="10" class="c0"/>
<circle cx="1048" cy="506" r="10" class="c0"/>
<circle cx="908" cy="344" r="10" class="c0"/>
<circle cx="1444" cy="666" r="10" class="c0"/>
<circle cx="1094" cy="462" r="10" class="c0"/>
<circle cx="1000" cy="390" r="10" class="c0"/>
<circle cx="1270" cy="652" r="10" class="c0"/>
<circle cx="1016" cy="424" r="10" class="c0"/>
<circle cx="1044" cy="426" r="10" class="c0"/>
<circle cx="1106" cy="720" r="10" class="c0"/>
<circle cx="1428" cy="714" r="10" class="c0"/>
<circle cx="1100" cy="620" r="10" class="c0"/>
<circle cx="1320" cy="688" r="10" class="c0"/>
<circle cx="1156" cy="678" r="10" class="c0"/>
<circle cx="942" cy="640" r="10" class="c0"/>
<circle cx="1022" cy="494" r="10" class="c0"/>
<circle cx="1078" cy="354" r="10" class="c0"/>
<circle cx="1054" cy="372" r="10" class="c0"/>
<circle cx="790" cy="660" r="10" class="c0"/>
<circle cx="666" cy="656" r="10" class="c0"/>
<circle cx="1418" cy="694" r="10" class="c0"/>
<circle cx="1282" cy="684" r="10" class="c0"/>
<circle cx="1010" cy="478" r="10" class="c0"/>
<circle cx="1080" cy="590" r="10" class="c0"/>
<circle cx="1458" cy="736" r="10" class="c0"/>
<circle cx="968" cy="592" r="10" class="c0"/>
<circle cx="1340" cy="648" r="10" class="c0"/>
<circle cx="992" cy="696" r="10" class="c0"/>
<circle cx="1040" cy="686" r="10" class="c0"/>
<circle cx="1126" cy="736" r="10" class="c0"/>
<circle cx="1140" cy="696" r="10" class="c0"/>
<circle cx="948" cy="676" r="10" class="c0"/>
<circle cx="1372" cy="668" r="10" class="c0"/>
<circle cx="1430" cy="744" r="10" class="c0"/>
<circle cx="1150" cy="598" r="10" class="c0"/>
<circle cx="1126" cy="710" r="10" class="c0"/>
<circle cx="1190" cy="702" r="10" class="c0"/>
<circle cx="1010" cy="370" r="8" class="c0"/>
<circle cx="1128" cy="542" r="8" class="c0"/>
<circle cx="1058" cy="702" r="8" class="c0"/>
<circle cx="970" cy="684" r="8" class="c0"/>
<circle cx="842" cy="666" r="8" class="c0"/>
<circle cx="1362" cy="698" r="8" class="c0"/>
<circle cx="1250" cy="658" r="8" class="c0"/>
<circle cx="998" cy="344" r="8" class="c0"/>
<circle cx="1072" cy="566" r="8" class="c0"/>
<circle cx="1382" cy="624" r="8" class="c0"/>
<circle cx="938" cy="478" r="8" class="c0"/>
<circle cx="1318" cy="626" r="8" class="c0"/>
<circle cx="1124" cy="758" r="8" class="c0"/>
<circle cx="886" cy="360" r="8" class="c0"/>
<circle cx="1278" cy="732" r="8" class="c0"/>
<circle cx="1396" cy="750" r="8" class="c0"/>
<circle cx="1214" cy="636" r="8" class="c0"/>
<circle cx="1096" cy="572" r="8" class="c0"/>
<circle cx="750" cy="686" r="8" class="c0"/>
<circle cx="1256" cy="694" r="8" class="c0"/>
<circle cx="686" cy="654" r="8" class="c0"/>
<circle cx="1092" cy="668" r="8" class="c0"/>
<circle cx="1058" cy="592" r="8" class="c0"/>
<circle cx="986" cy="562" r="8" class="c0"/>
<circle cx="934" cy="394" r="8" class="c0"/>
<circle cx="774" cy="700" r="8" class="c0"/>
<circle cx="1082" cy="746" r="8" class="c0"/>
<circle cx="1242" cy="638" r="8" class="c0"/>
<circle cx="1416" cy="634" r="8" class="c0"/>
<circle cx="1114" cy="502" r="8" class="c0"/>
<circle cx="978" cy="436" r="8" class="c0"/>
<circle cx="1350" cy="626" r="8" class="c0"/>
<circle cx="1152" cy="518" r="8" class="c0"/>
<circle cx="1112" cy="632" r="8" class="c0"/>
<circle cx="1260" cy="636" r="8" class="c0"/>
<circle cx="1062" cy="468" r="8" class="c0"/>
<circle cx="1324" cy="708" r="8" class="c0"/>
<circle cx="1276" cy="710" r="8" class="c0"/>
<circle cx="716" cy="670" r="8" class="c0"/>
<circle cx="1220" cy="682" r="8" class="c0"/>
<circle cx="996" cy="640" r="8" class="c0"/>
<circle cx="1098" cy="490" r="8" class="c0"/>
<circle cx="1126" cy="660" r="8" class="c0"/>
<circle cx="1460" cy="696" r="8" class="c0"/>
<circle cx="1368" cy="750" r="8" class="c0"/>
<circle cx="1036" cy="454" r="8" class="c0"/>
<circle cx="964" cy="364" r="8" class="c0"/>
<circle cx="1312" cy="664" r="8" class="c0"/>
<circle cx="1178" cy="686" r="8" class="c0"/>
<circle cx="1088" cy="704" r="8" class="c0"/>
<circle cx="1120" cy="478" r="8" class="c0"/>
<circle cx="1358" cy="716" r="8" class="c0"/>
<circle cx="1384" cy="682" r="8" class="c0"/>
<circle cx="962" cy="422" r="8" class="c0"/>
<circle cx="1128" cy="588" r="8" class="c0"/>
<circle cx="870" cy="670" r="8" class="c0"/>
<circle cx="1470" cy="714" r="8" class="c0"/>
<circle cx="1294" cy="638" r="8" class="c0"/>
<circle cx="1064" cy="684" r="8" class="c0"/>
<circle cx="766" cy="656" r="8" class="c0"/>
<circle cx="1036" cy="618" r="8" class="c0"/>
<circle cx="1260" cy="722" r="8" class="c0"/>
<circle cx="922" cy="358" r="8" class="c0"/>
<circle cx="930" cy="336" r="8" class="c0"/>
<circle cx="1402" cy="712" r="8" class="c0"/>
<circle cx="996" cy="430" r="8" class="c0"/>
<circle cx="1104" cy="532" r="8" class="c0"/>
<circle cx="1082" cy="682" r="8" class="c0"/>
<circle cx="730" cy="650" r="8" class="c0"/>
<circle cx="1442" cy="702" r="8" class="c0"/>
<circle cx="1098" cy="364" r="8" class="c0"/>
<circle cx="1082" cy="556" r="8" class="c0"/>
<circle cx="1048" cy="402" r="8" class="c0"/>
<circle cx="1068" cy="516" r="8" class="c0"/>
<circle cx="950" cy="408" r="8" class="c0"/>
<circle cx="1174" cy="660" r="8" class="c0"/>
<circle cx="1292" cy="722" r="8" class="c0"/>
<circle cx="948" cy="462" r="8" class="c0"/>
<circle cx="1392" cy="642" r="8" class="c0"/>
<circle cx="820" cy="666" r="8" class="c0"/>
<circle cx="680" cy="682" r="8" class="c0"/>
<circle cx="1392" cy="700" r="8" class="c0"/>
<circle cx="984" cy="402" r="8" class="c0"/>
<circle cx="1104" cy="740" r="8" class="c0"/>
<circle cx="1016" cy="564" r="8" class="c0"/>
<circle cx="1188" cy="672" r="8" class="c0"/>
<circle cx="976" cy="374" r="8" class="c0"/>
<circle cx="1374" cy="644" r="8" class="c0"/>
<circle cx="1230" cy="648" r="8" class="c0"/>
<circle cx="996" cy="456" r="8" class="c0"/>
<circle cx="1004" cy="546" r="8" class="c0"/>
<circle cx="976" cy="666" r="8" class="c0"/>
<circle cx="1034" cy="520" r="8" class="c0"/>
<circle cx="1074" cy="480" r="8" class="c0"/>
<circle cx="1076" cy="610" r="8" class="c0"/>
<circle cx="890" cy="670" r="8" class="c0"/>
<circle cx="1038" cy="384" r="8" class="c0"/>
<circle cx="1064" cy="492" r="8" class="c0"/>
<circle cx="970" cy="712" r="8" class="c0"/>
<circle cx="928" cy="462" r="8" class="c0"/>
<circle cx="1332" cy="668" r="8" class="c0"/>
<circle cx="1360" cy="680" r="8" class="c0"/>
<circle cx="1366" cy="732" r="8" class="c0"/>
<circle cx="1232" cy="672" r="8" class="c0"/>
<circle cx="800" cy="716" r="8" class="c0"/>
<circle cx="1012" cy="708" r="8" class="c0"/>
<circle cx="1262" cy="670" r="8" class="c0"/>
<circle cx="1214" cy="702" r="8" class="c0"/>
<circle cx="962" cy="502" r="8" class="c0"/>
<circle cx="1040" cy="556" r="8" class="c0"/>
<circle cx="1134" cy="524" r="8" class="c0"/>
<circle cx="1300" cy="698" r="8" class="c0"/>
<circle cx="1098" cy="430" r="8" class="c0"/>
<circle cx="1020" cy="332" r="8" class="c0"/>
<circle cx="1346" cy="706" r="8" class="c0"/>
<circle cx="712" cy="652" r="8" class="c0"/>
<circle cx="1108" cy="656" r="8" class="c0"/>
<circle cx="990" cy="500" r="8" class="c0"/>
<circle cx="1190" cy="650" r="8" class="c0"/>
<circle cx="1410" cy="730" r="8" class="c0"/>
<circle cx="952" cy="620" r="8" class="c0"/>
<circle cx="1072" cy="418" r="8" class="c0"/>
<circle cx="950" cy="492" r="8" class="c0"/>
<circle cx="1430" cy="682" r="8" class="c0"/>
<circle cx="1002" cy="410" r="8" class="c0"/>
<circle cx="1284" cy="664" r="8" class="c0"/>
<circle cx="1046" cy="604" r="8" class="c0"/>
<circle cx="1456" cy="678" r="8" class="c0"/>
<circle cx="980" cy="648" r="8" class="c0"/>
<circle cx="1026" cy="466" r="8" class="c0"/>
<circle cx="1096" cy="516" r="8" class="c0"/>
<circle cx="640" cy="650" r="8" class="c0"/>
<circle cx="984" cy="356" r="8" class="c0"/>
<circle cx="1166" cy="608" r="8" class="c0"/>
<circle cx="1138" cy="670" r="8" class="c0"/>
<circle cx="1316" cy="644" r="8" class="c0"/>
<circle cx="1090" cy="762" r="8" class="c0"/>
<circle cx="972" cy="412" r="8" class="c0"/>
<circle cx="1408" cy="762" r="8" class="c0"/>
<circle cx="696" cy="668" r="8" class="c0"/>
<circle cx="1200" cy="624" r="8" class="c0"/>
<circle cx="960" cy="702" r="8" class="c0"/>
<circle cx="976" cy="572" r="8" class="c0"/>
<circle cx="1144" cy="626" r="8" class="c0"/>
<circle cx="1302" cy="678" r="8" class="c0"/>
<circle cx="1394" cy="734" r="6" class="c0"/>
<circle cx="1142" cy="482" r="6" class="c0"/>
<circle cx="1220" cy="606" r="6" class="c0"/>
<circle cx="1408" cy="680" r="6" class="c0"/>
<circle cx="1126" cy="572" r="6" class="c0"/>
<circle cx="1348" cy="670" r="6" class="c0"/>
<circle cx="1120" cy="382" r="6" class="c0"/>
<circle cx="1098" cy="690" r="6" class="c0"/>
<circle cx="1110" cy="702" r="6" class="c0"/>
<circle cx="926" cy="648" r="6" class="c0"/>
<circle cx="1074" cy="458" r="6" class="c0"/>
<circle cx="1136" cy="558" r="6" class="c0"/>
<circle cx="892" cy="334" r="6" class="c0"/>
<circle cx="600" cy="642" r="6" class="c0"/>
<circle cx="1152" cy="718" r="6" class="c0"/>
<circle cx="1470" cy="686" r="6" class="c0"/>
<circle cx="1042" cy="336" r="6" class="c0"/>
<circle cx="1054" cy="672" r="6" class="c0"/>
<circle cx="1034" cy="704" r="6" class="c0"/>
<circle cx="1448" cy="720" r="6" class="c0"/>
<circle cx="1404" cy="622" r="6" class="c0"/>
<circle cx="1082" cy="626" r="6" class="c0"/>
<circle cx="1358" cy="642" r="6" class="c0"/>
<circle cx="1218" cy="720" r="6" class="c0"/>
<circle cx="1018" cy="642" r="6" class="c0"/>
<circle cx="938" cy="452" r="6" class="c0"/>
<circle cx="734" cy="684" r="6" class="c0"/>
<circle cx="908" cy="678" r="6" class="c0"/>
<circle cx="954" cy="658" r="6" class="c0"/>
<circle cx="1242" cy="682" r="6" class="c0"/>
<circle cx="1302" cy="654" r="6" class="c0"/>
<circle cx="1366" cy="622" r="6" class="c0"/>
<circle cx="912" cy="660" r="6" class="c0"/>
<circle cx="1336" cy="696" r="6" class="c0"/>
<circle cx="1026" cy="664" r="6" class="c0"/>
<circle cx="900" cy="368" r="6" class="c0"/>
<circle cx="1382" cy="758" r="6" class="c0"/>
<circle cx="1050" cy="444" r="6" class="c0"/>
<circle cx="816" cy="722" r="6" class="c0"/>
<circle cx="986" cy="678" r="6" class="c0"/>
<circle cx="1026" cy="372" r="6" class="c0"/>
<circle cx="1204" cy="716" r="6" class="c0"/>
<circle cx="1056" cy="562" r="6" class="c0"/>
<circle cx="1108" cy="374" r="6" class="c0"/>
<circle cx="808" cy="654" r="6" class="c0"/>
<circle cx="1118" cy="522" r="6" class="c0"/>
<circle cx="1418" cy="672" r="6" class="c0"/>
<circle cx="1088" cy="728" r="6" class="c0"/>
<circle cx="1326" cy="742" r="6" class="c0"/>
<circle cx="992" cy="372" r="6" class="c0"/>
<circle cx="970" cy="516" r="6" class="c0"/>
<circle cx="1026" cy="608" r="6" class="c0"/>
<circle cx="1284" cy="628" r="6" class="c0"/>
<circle cx="1098" cy="554" r="6" class="c0"/>
<circle cx="1128" cy="634" r="6" class="c0"/>
<circle cx="652" cy="640" r="6" class="c0"/>
<circle cx="1352" cy="748" r="6" class="c0"/>
<circle cx="790" cy="706" r="6" class="c0"/>
<circle cx="1028" cy="634" r="6" class="c0"/>
<circle cx="1244" cy="610" r="6" class="c0"/>
<circle cx="1080" cy="534" r="6" class="c0"/>
<circle cx="1356" cy="660" r="6" class="c0"/>
<circle cx="858" cy="660" r="6" class="c0"/>
<circle cx="1060" cy="576" r="6" class="c0"/>
<circle cx="1382" cy="740" r="6" class="c0"/>
<circle cx="1120" cy="458" r="6" class="c0"/>
<circle cx="1008" cy="354" r="6" class="c0"/>
<circle cx="1440" cy="728" r="6" class="c0"/>
<circle cx="676" cy="640" r="6" class="c0"/>
<circle cx="1244" cy="726" r="6" class="c0"/>
<circle cx="1346" cy="688" r="6" class="c0"/>
<circle cx="986" cy="714" r="6" class="c0"/>
<circle cx="1058" cy="452" r="6" class="c0"/>
<circle cx="1140" cy="578" r="6" class="c0"/>
<circle cx="962" cy="610" r="6" class="c0"/>
<circle cx="774" cy="670" r="6" class="c0"/>
<circle cx="1334" cy="622" r="6" class="c0"/>
<circle cx="700" cy="642" r="6" class="c0"/>
<circle cx="632" cy="636" r="6" class="c0"/>
<circle cx="1088" cy="444" r="6" class="c0"/>
<circle cx="920" cy="476" r="6" class="c0"/>
<circle cx="830" cy="656" r="6" class="c0"/>
<circle cx="804" cy="670" r="6" class="c0"/>
<circle cx="1114" cy="578" r="6" class="c0"/>
<circle cx="938" cy="658" r="6" class="c0"/>
<circle cx="1158" cy="658" r="6" class="c0"/>
<circle cx="1082" cy="428" r="6" class="c0"/>
<circle cx="1074" cy="696" r="6" class="c0"/>
<circle cx="1478" cy="738" r="6" class="c0"/>
<circle cx="986" cy="420" r="6" class="c0"/>
<circle cx="1302" cy="624" r="6" class="c0"/>
<circle cx="1206" cy="604" r="6" class="c0"/>
<circle cx="750" cy="648" r="6" class="c0"/>
<circle cx="880" cy="660" r="6" class="c0"/>
<circle cx="1412" cy="746" r="6" class="c0"/>
</svg>
