<?xml version="1.0" encoding="utf-8"?>
<svg xmlns="http://www.w3.org/2000/svg"
     xmlns:xlink="http://www.w3.org/1999/xlink" width="1920" height="1440" >

            <defs>
            <style type="text/css"><![CDATA[
circle {stroke: none;}
.c0 {fill: #FFFFFF;}
]]></style>
            </defs>
<rect x="0" y="0" width="1920" height="1440" fill="black"/>
<circle cx="1760" cy="788" r="14" class="c0"/>
<circle cx="1548" cy="710" r="12" class="c0"/>
<circle cx="1176" cy="798" r="12" class="c0"/>
<circle cx="1722" cy="730" r="12" class="c0"/>
<circle cx="474" cy="816" r="12" class="c0"/>
<circle cx="1658" cy="690" r="12" class="c0"/>
<circle cx="1282" cy="1038" r="12" class="c0"/>
<circle cx="152" cy="834" r="12" class="c0"/>
<circle cx="570" cy="874" r="12" class="c0"/>
<circle cx="1178" cy="826" r="12" class="c0"/>
<circle cx="324" cy="846" r="12" class="c0"/>
<circle cx="1438" cy="776" r="12" class="c0"/>
<circle cx="412" cy="790" r="12" class="c0"/>
<circle cx="298" cy="850" r="12" class="c0"/>
<circle cx="1310" cy="790" r="12" class="c0"/>
<circle cx="596" cy="828" r="12" class="c0"/>
<circle cx="518" cy="778" r="12" class="c0"/>
<circle cx="640" cy="836" r="12" class="c0"/>
<circle cx="1888" cy="782" r="12" class="c0"/>
<circle cx="1792" cy="720" r="12" class="c0"/>
<circle cx="1526" cy="658" r="12" class="c0"/>
<circle cx="1560" cy="754" r="12" class="c0"/>
<circle cx="386" cy="864" r="12" class="c0"/>
<circle cx="1358" cy="760" r="12" class="c0"/>
<circle cx="1388" cy="698" r="12" class="c0"/>
<circle cx="234" cy="824" r="12" class="c0"/>
<circle cx="1574" cy="692" r="12" class="c0"/>
<circle cx="558" cy="842" r="12" class="c0"/>
<circle cx="1072" cy="766" r="12" class="c0"/>
<circle cx="1678" cy="766" r="12" class="c0"/>
<circle cx="684" cy="794" r="12" class="c0"/>
<circle cx="1890" cy="700" r="12" class="c0"/>
<circle cx="328" cy="762" r="12" class="c0"/>
<circle cx="292" cy="764" r="12" class="c0"/>
<circle cx="706" cy="854" r="12" class="c0"/>
<circle cx="350" cy="750" r="12" class="c0"/>
<circle cx="1888" cy="728" r="12" class="c0"/>
<circle cx="1280" cy="718" r="12" class="c0"/>
<circle cx="196" cy="828" r="12" class="c0"/>
<circle cx="1036" cy="834" r="12" class="c0"/>
<circle cx="628" cy="750" r="12" class="c0"/>
<circle cx="232" cy="780" r="12" class="c0"/>
<circle cx="1218" cy="724" r="12" class="c0"/>
<circle cx="1622" cy="718" r="12" class="c0"/>
<circle cx="1018" cy="872" r="12" class="c0"/>
<circle cx="1754" cy="706" r="12" class="c0"/>
<circle cx="1598" cy="682" r="10" class="c0"/>
<circle cx="1052" cy="902" r="10" class="c0"/>
<circle cx="1308" cy="722" r="10" class="c0"/>
<circle cx="148" cy="794" r="10" class="c0"/>
<circle cx="1860" cy="704" r="10" class="c0"/>
<circle cx="700" cy="812" r="10" class="c0"/>
<circle cx="770" cy="832" r="10" class="c0"/>
<circle cx="542" cy="764" r="10" class="c0"/>
<circle cx="724" cy="842" r="10" class="c0"/>
<circle cx="760" cy="856" r="10" class="c0"/>
<circle cx="442" cy="772" r="10" class="c0"/>
<circle cx="666" cy="808" r="10" class="c0"/>
<circle cx="1732" cy="672" r="10" class="c0"/>
<circle cx="966" cy="826" r="10" class="c0"/>
<circle cx="1250" cy="688" r="10" class="c0"/>
<circle cx="422" cy="744" r="10" class="c0"/>
<circle cx="758" cy="758" r="10" class="c0"/>
<circle cx="674" cy="868" r="10" class="c0"/>
<circle cx="1584" cy="658" r="10" class="c0"/>
<circle cx="1148" cy="836" r="10" class="c0"/>
<circle cx="656" cy="748" r="10" class="c0"/>
<circle cx="162" cy="806" r="10" class="c0"/>
<circle cx="1064" cy="814" r="10" class="c0"/>
<circle cx="1670" cy="662" r="10" class="c0"/>
<circle cx="596" cy="854" r="10" class="c0"/>
<circle cx="1810" cy="760" r="10" class="c0"/>
<circle cx="728" cy="866" r="10" class="c0"/>
<circle cx="130" cy="772" r="10" class="c0"/>
<circle cx="1544" cy="772" r="10" class="c0"/>
<circle cx="936" cy="866" r="10" class="c0"/>
<circle cx="578" cy="778" r="10" class="c0"/>
<circle cx="670" cy="778" r="10" class="c0"/>
<circle cx="424" cy="818" r="10" class="c0"/>
<circle cx="1518" cy="738" r="10" class="c0"/>
<circle cx="442" cy="736" r="10" class="c0"/>
<circle cx="1026" cy="764" r="10" class="c0"/>
<circle cx="874" cy="778" r="10" class="c0"/>
<circle cx="214" cy="752" r="10" class="c0"/>
<circle cx="1120" cy="824" r="10" class="c0"/>
<circle cx="290" cy="788" r="10" class="c0"/>
<circle cx="1306" cy="1048" r="10" class="c0"/>
<circle cx="1574" cy="722" r="10" class="c0"/>
<circle cx="1256" cy="848" r="10" class="c0"/>
<circle cx="950" cy="762" r="10" class="c0"/>
<circle cx="168" cy="778" r="10" class="c0"/>
<circle cx="1496" cy="680" r="10" class="c0"/>
<circle cx="376" cy="790" r="10" class="c0"/>
<circle cx="1500" cy="766" r="10" class="c0"/>
<circle cx="94" cy="766" r="10" class="c0"/>
<circle cx="370" cy="834" r="10" class="c0"/>
<circle cx="460" cy="748" r="10" class="c0"/>
<circle cx="1114" cy="784" r="10" class="c0"/>
<circle cx="934" cy="834" r="10" class="c0"/>
<circle cx="538" cy="872" r="10" class="c0"/>
<circle cx="738" cy="800" r="10" class="c0"/>
<circle cx="1506" cy="718" r="10" class="c0"/>
<circle cx="768" cy="794" r="10" class="c0"/>
<circle cx="602" cy="782" r="10" class="c0"/>
<circle cx="1336" cy="744" r="10" class="c0"/>
<circle cx="1052" cy="868" r="10" class="c0"/>
<circle cx="1412" cy="720" r="10" class="c0"/>
<circle cx="1222" cy="786" r="10" class="c0"/>
<circle cx="1168" cy="716" r="10" class="c0"/>
<circle cx="1190" cy="734" r="10" class="c0"/>
<circle cx="966" cy="864" r="10" class="c0"/>
<circle cx="892" cy="802" r="10" class="c0"/>
<circle cx="266" cy="756" r="10" class="c0"/>
<circle cx="1366" cy="678" r="10" class="c0"/>
<circle cx="632" cy="808" r="10" class="c0"/>
<circle cx="554" cy="802" r="10" class="c0"/>
<circle cx="1106" cy="804" r="10" class="c0"/>
<circle cx="1422" cy="932" r="10" class="c0"/>
<circle cx="1288" cy="774" r="10" class="c0"/>
<circle cx="1048" cy="740" r="10" class="c0"/>
<circle cx="486" cy="748" r="10" class="c0"/>
<circle cx="348" cy="788" r="10" class="c0"/>
<circle cx="420" cy="864" r="10" class="c0"/>
<circle cx="1422" cy="750" r="10" class="c0"/>
<circle cx="1462" cy="716" r="10" class="c0"/>
<circle cx="1902" cy="682" r="10" class="c0"/>
<circle cx="408" cy="846" r="10" class="c0"/>
<circle cx="1352" cy="710" r="10" class="c0"/>
<circle cx="790" cy="788" r="10" class="c0"/>
<circle cx="126" cy="826" r="10" class="c0"/>
<circle cx="1340" cy="1032" r="10" class="c0"/>
<circle cx="1382" cy="662" r="10" class="c0"/>
<circle cx="1336" cy="698" r="10" class="c0"/>
<circle cx="1308" cy="680" r="10" class="c0"/>
<circle cx="1084" cy="830" r="10" class="c0"/>
<circle cx="534" cy="794" r="10" class="c0"/>
<circle cx="1898" cy="802" r="10" class="c0"/>
<circle cx="304" cy="822" r="10" class="c0"/>
<circle cx="454" cy="784" r="10" class="c0"/>
<circle cx="1804" cy="794" r="10" class="c0"/>
<circle cx="1478" cy="694" r="10" class="c0"/>
<circle cx="1556" cy="670" r="10" class="c0"/>
<circle cx="1434" cy="654" r="10" class="c0"/>
<circle cx="1906" cy="746" r="10" class="c0"/>
<circle cx="1640" cy="774" r="10" class="c0"/>
<circle cx="1814" cy="704" r="10" class="c0"/>
<circle cx="1750" cy="742" r="10" class="c0"/>
<circle cx="1142" cy="800" r="10" class="c0"/>
<circle cx="524" cy="732" r="10" class="c0"/>
<circle cx="1234" cy="832" r="10" class="c0"/>
<circle cx="986" cy="856" r="10" class="c0"/>
<circle cx="964" cy="782" r="10" class="c0"/>
<circle cx="944" cy="792" r="10" class="c0"/>
<circle cx="1202" cy="836" r="10" class="c0"/>
<circle cx="1800" cy="674" r="10" class="c0"/>
<circle cx="1700" cy="722" r="10" class="c0"/>
<circle cx="1346" cy="1056" r="10" class="c0"/>
<circle cx="60" cy="820" r="10" class="c0"/>
<circle cx="908" cy="826" r="10" class="c0"/>
<circle cx="1464" cy="682" r="10" class="c0"/>
<circle cx="1154" cy="744" r="10" class="c0"/>
<circle cx="734" cy="822" r="10" class="c0"/>
<circle cx="1370" cy="730" r="10" class="c0"/>
<circle cx="702" cy="778" r="10" class="c0"/>
<circle cx="586" cy="798" r="10" class="c0"/>
<circle cx="268" cy="800" r="10" class="c0"/>
<circle cx="38" cy="774" r="10" class="c0"/>
<circle cx="1618" cy="748" r="10" class="c0"/>
<circle cx="1830" cy="732" r="10" class="c0"/>
<circle cx="840" cy="840" r="10" class="c0"/>
<circle cx="1362" cy="818" r="10" class="c0"/>
<circle cx="1324" cy="766" r="10" class="c0"/>
<circle cx="1830" cy="778" r="10" class="c0"/>
<circle cx="1428" cy="688" r="10" class="c0"/>
<circle cx="1024" cy="796" r="10" class="c0"/>
<circle cx="462" cy="842" r="10" class="c0"/>
<circle cx="1302" cy="750" r="10" class="c0"/>
<circle cx="232" cy="852" r="10" class="c0"/>
<circle cx="208" cy="806" r="10" class="c0"/>
<circle cx="1274" cy="694" r="10" class="c0"/>
<circle cx="1664" cy="732" r="10" class="c0"/>
<circle cx="1588" cy="784" r="10" class="c0"/>
<circle cx="1166" cy="756" r="10" class="c0"/>
<circle cx="996" cy="790" r="10" class="c0"/>
<circle cx="1856" cy="792" r="10" class="c0"/>
<circle cx="174" cy="756" r="10" class="c0"/>
<circle cx="1394" cy="850" r="10" class="c0"/>
<circle cx="1196" cy="758" r="10" class="c0"/>
<circle cx="324" cy="736" r="8" class="c0"/>
<circle cx="870" cy="848" r="8" class="c0"/>
<circle cx="850" cy="802" r="8" class="c0"/>
<circle cx="608" cy="884" r="8" class="c0"/>
<circle cx="1270" cy="736" r="8" class="c0"/>
<circle cx="1690" cy="700" r="8" class="c0"/>
<circle cx="186" cy="800" r="8" class="c0"/>
<circle cx="1534" cy="790" r="8" class="c0"/>
<circle cx="1866" cy="756" r="8" class="c0"/>
<circle cx="332" cy="866" r="8" class="c0"/>
<circle cx="490" cy="832" r="8" class="c0"/>
<circle cx="246" cy="742" r="8" class="c0"/>
<circle cx="1456" cy="744" r="8" class="c0"/>
<circle cx="1114" cy="746" r="8" class="c0"/>
<circle cx="1644" cy="662" r="8" class="c0"/>
<circle cx="1598" cy="754" r="8" class="c0"/>
<circle cx="524" cy="810" r="8" class="c0"/>
<circle cx="310" cy="778" r="8" class="c0"/>
<circle cx="590" cy="736" r="8" class="c0"/>
<circle cx="392" cy="738" r="8" class="c0"/>
<circle cx="1332" cy="836" r="8" class="c0"/>
<circle cx="676" cy="750" r="8" class="c0"/>
<circle cx="1026" cy="742" r="8" class="c0"/>
<circle cx="1388" cy="746" r="8" class="c0"/>
<circle cx="250" cy="812" r="8" class="c0"/>
<circle cx="1738" cy="758" r="8" class="c0"/>
<circle cx="830" cy="856" r="8" class="c0"/>
<circle cx="678" cy="846" r="8" class="c0"/>
<circle cx="492" cy="768" r="8" class="c0"/>
<circle cx="1244" cy="776" r="8" class="c0"/>
<circle cx="1710" cy="688" r="8" class="c0"/>
<circle cx="504" cy="846" r="8" class="c0"/>
<circle cx="822" cy="816" r="8" class="c0"/>
<circle cx="1222" cy="858" r="8" class="c0"/>
<circle cx="1692" cy="674" r="8" class="c0"/>
<circle cx="450" cy="816" r="8" class="c0"/>
<circle cx="812" cy="780" r="8" class="c0"/>
<circle cx="194" cy="768" r="8" class="c0"/>
<circle cx="1230" cy="764" r="8" class="c0"/>
<circle cx="1266" cy="754" r="8" class="c0"/>
<circle cx="500" cy="874" r="8" class="c0"/>
<circle cx="1716" cy="708" r="8" class="c0"/>
<circle cx="1780" cy="748" r="8" class="c0"/>
<circle cx="1270" cy="788" r="8" class="c0"/>
<circle cx="1380" cy="864" r="8" class="c0"/>
<circle cx="922" cy="808" r="8" class="c0"/>
<circle cx="560" cy="756" r="8" class="c0"/>
<circle cx="1484" cy="742" r="8" class="c0"/>
<circle cx="752" cy="814" r="8" class="c0"/>
<circle cx="830" cy="776" r="8" class="c0"/>
<circle cx="256" cy="786" r="8" class="c0"/>
<circle cx="1006" cy="852" r="8" class="c0"/>
<circle cx="528" cy="846" r="8" class="c0"/>
<circle cx="564" cy="734" r="8" class="c0"/>
<circle cx="1248" cy="746" r="8" class="c0"/>
<circle cx="474" cy="730" r="8" class="c0"/>
<circle cx="1596" cy="722" r="8" class="c0"/>
<circle cx="1082" cy="806" r="8" class="c0"/>
<circle cx="1230" cy="742" r="8" class="c0"/>
<circle cx="1656" cy="756" r="8" class="c0"/>
<circle cx="1298" cy="814" r="8" class="c0"/>
<circle cx="1036" cy="882" r="8" class="c0"/>
<circle cx="614" cy="846" r="8" class="c0"/>
<circle cx="996" cy="874" r="8" class="c0"/>
<circle cx="1366" cy="644" r="8" class="c0"/>
<circle cx="506" cy="758" r="8" class="c0"/>
<circle cx="940" cy="814" r="8" class="c0"/>
<circle cx="1848" cy="716" r="8" class="c0"/>
<circle cx="1050" cy="782" r="8" class="c0"/>
<circle cx="1000" cy="766" r="8" class="c0"/>
<circle cx="356" cy="850" r="8" class="c0"/>
<circle cx="372" cy="752" r="8" class="c0"/>
<circle cx="1288" cy="834" r="8" class="c0"/>
<circle cx="338" cy="816" r="8" class="c0"/>
<circle cx="736" cy="758" r="8" class="c0"/>
<circle cx="638" cy="880" r="8" class="c0"/>
<circle cx="1200" cy="796" r="8" class="c0"/>
<circle cx="328" cy="806" r="8" class="c0"/>
<circle cx="1770" cy="738" r="8" class="c0"/>
<circle cx="1138" cy="734" r="8" class="c0"/>
<circle cx="1086" cy="786" r="8" class="c0"/>
<circle cx="70" cy="778" r="8" class="c0"/>
<circle cx="1400" cy="782" r="8" class="c0"/>
<circle cx="246" cy="840" r="8" class="c0"/>
<circle cx="1338" cy="816" r="8" class="c0"/>
<circle cx="1222" cy="810" r="8" class="c0"/>
<circle cx="1510" cy="786" r="8" class="c0"/>
<circle cx="1258" cy="1050" r="8" class="c0"/>
<circle cx="972" cy="804" r="8" class="c0"/>
<circle cx="786" cy="762" r="8" class="c0"/>
<circle cx="1604" cy="704" r="8" class="c0"/>
<circle cx="1694" cy="744" r="8" class="c0"/>
<circle cx="1372" cy="786" r="8" class="c0"/>
<circle cx="702" cy="876" r="8" class="c0"/>
<circle cx="1210" cy="698" r="8" class="c0"/>
<circle cx="1668" cy="710" r="8" class="c0"/>
<circle cx="812" cy="848" r="8" class="c0"/>
<circle cx="478" cy="782" r="8" class="c0"/>
<circle cx="1634" cy="698" r="8" class="c0"/>
<circle cx="800" cy="836" r="8" class="c0"/>
<circle cx="1364" cy="840" r="8" class="c0"/>
<circle cx="516" cy="884" r="8" class="c0"/>
<circle cx="218" cy="838" r="8" class="c0"/>
<circle cx="586" cy="754" r="8" class="c0"/>
<circle cx="446" cy="876" r="8" class="c0"/>
<circle cx="712" cy="824" r="8" class="c0"/>
<circle cx="366" cy="808" r="8" class="c0"/>
<circle cx="86" cy="810" r="8" class="c0"/>
<circle cx="630" cy="778" r="8" class="c0"/>
<circle cx="390" cy="774" r="8" class="c0"/>
<circle cx="270" cy="836" r="8" class="c0"/>
<circle cx="1908" cy="768" r="8" class="c0"/>
<circle cx="436" cy="800" r="8" class="c0"/>
<circle cx="1838" cy="760" r="8" class="c0"/>
<circle cx="920" cy="846" r="8" class="c0"/>
<circle cx="1498" cy="658" r="8" class="c0"/>
<circle cx="390" cy="832" r="8" class="c0"/>
<circle cx="1622" cy="674" r="8" class="c0"/>
<circle cx="1004" cy="824" r="8" class="c0"/>
<circle cx="1338" cy="660" r="8" class="c0"/>
<circle cx="1060" cy="728" r="8" class="c0"/>
<circle cx="1364" cy="698" r="8" class="c0"/>
<circle cx="1236" cy="706" r="8" class="c0"/>
<circle cx="1852" cy="742" r="8" class="c0"/>
<circle cx="110" cy="792" r="8" class="c0"/>
<circle cx="1244" cy="796" r="8" class="c0"/>
<circle cx="1772" cy="682" r="8" class="c0"/>
<circle cx="718" cy="760" r="8" class="c0"/>
<circle cx="26" cy="806" r="8" class="c0"/>
<circle cx="1092" cy="736" r="8" class="c0"/>
<circle cx="1798" cy="742" r="8" class="c0"/>
<circle cx="1322" cy="652" r="8" class="c0"/>
<circle cx="1830" cy="676" r="8" class="c0"/>
<circle cx="1326" cy="714" r="8" class="c0"/>
<circle cx="784" cy="810" r="8" class="c0"/>
<circle cx="1784" cy="698" r="8" class="c0"/>
<circle cx="742" cy="778" r="8" class="c0"/>
<circle cx="1620" cy="776" r="8" class="c0"/>
<circle cx="1244" cy="728" r="8" class="c0"/>
<circle cx="1810" cy="730" r="8" class="c0"/>
<circle cx="258" cy="856" r="8" class="c0"/>
<circle cx="888" cy="844" r="8" class="c0"/>
<circle cx="678" cy="822" r="8" class="c0"/>
<circle cx="984" cy="754" r="8" class="c0"/>
<circle cx="1760" cy="760" r="8" class="c0"/>
<circle cx="1784" cy="792" r="8" class="c0"/>
<circle cx="86" cy="788" r="8" class="c0"/>
<circle cx="746" cy="844" r="8" class="c0"/>
<circle cx="1710" cy="668" r="8" class="c0"/>
<circle cx="1544" cy="740" r="8" class="c0"/>
<circle cx="1182" cy="770" r="8" class="c0"/>
<circle cx="1034" cy="910" r="8" class="c0"/>
<circle cx="1126" cy="772" r="8" class="c0"/>
<circle cx="1470" cy="662" r="8" class="c0"/>
<circle cx="1338" cy="724" r="8" class="c0"/>
<circle cx="12" cy="784" r="8" class="c0"/>
<circle cx="1850" cy="678" r="8" class="c0"/>
<circle cx="1142" cy="758" r="8" class="c0"/>
<circle cx="1300" cy="702" r="8" class="c0"/>
<circle cx="142" cy="758" r="8" class="c0"/>
<circle cx="1268" cy="820" r="8" class="c0"/>
<circle cx="572" cy="824" r="8" class="c0"/>
<circle cx="888" cy="824" r="8" class="c0"/>
<circle cx="1326" cy="1044" r="8" class="c0"/>
<circle cx="994" cy="834" r="8" class="c0"/>
<circle cx="1294" cy="1060" r="8" class="c0"/>
<circle cx="1446" cy="666" r="8" class="c0"/>
<circle cx="890" cy="768" r="8" class="c0"/>
<circle cx="1348" cy="778" r="8" class="c0"/>
<circle cx="816" cy="798" r="8" class="c0"/>
<circle cx="1418" cy="668" r="8" class="c0"/>
<circle cx="928" cy="760" r="8" class="c0"/>
<circle cx="406" cy="760" r="8" class="c0"/>
<circle cx="512" cy="820" r="8" class="c0"/>
<circle cx="446" cy="856" r="8" class="c0"/>
<circle cx="1320" cy="810" r="8" class="c0"/>
<circle cx="1386" cy="766" r="8" class="c0"/>
<circle cx="1828" cy="802" r="8" class="c0"/>
<circle cx="868" cy="818" r="8" class="c0"/>
<circle cx="432" cy="838" r="8" class="c0"/>
<circle cx="1696" cy="792" r="8" class="c0"/>
<circle cx="1206" cy="774" r="8" class="c0"/>
<circle cx="1382" cy="1018" r="8" class="c0"/>
<circle cx="1058" cy="840" r="8" class="c0"/>
<circle cx="1404" cy="1020" r="8" class="c0"/>
<circle cx="108" cy="818" r="8" class="c0"/>
<circle cx="786" cy="856" r="8" class="c0"/>
<circle cx="852" cy="782" r="8" class="c0"/>
<circle cx="642" cy="788" r="8" class="c0"/>
<circle cx="478" cy="874" r="8" class="c0"/>
<circle cx="1012" cy="808" r="8" class="c0"/>
<circle cx="1204" cy="860" r="8" class="c0"/>
<circle cx="1242" cy="814" r="8" class="c0"/>
<circle cx="1758" cy="670" r="8" class="c0"/>
<circle cx="1582" cy="740" r="8" class="c0"/>
<circle cx="1668" cy="790" r="8" class="c0"/>
<circle cx="54" cy="798" r="8" class="c0"/>
<circle cx="612" cy="766" r="8" class="c0"/>
<circle cx="1734" cy="692" r="8" class="c0"/>
<circle cx="644" cy="858" r="8" class="c0"/>
<circle cx="948" cy="878" r="8" class="c0"/>
<circle cx="1046" cy="762" r="8" class="c0"/>
<circle cx="1472" cy="762" r="8" class="c0"/>
<circle cx="1358" cy="660" r="8" class="c0"/>
<circle cx="652" cy="820" r="8" class="c0"/>
<circle cx="1566" cy="782" r="8" class="c0"/>
<circle cx="1182" cy="704" r="8" class="c0"/>
<circle cx="460" cy="866" r="8" class="c0"/>
<circle cx="1288" cy="800" r="8" class="c0"/>
<circle cx="236" cy="756" r="8" class="c0"/>
<circle cx="652" cy="768" r="8" class="c0"/>
<circle cx="1316" cy="846" r="8" class="c0"/>
<circle cx="1000" cy="742" r="8" class="c0"/>
<circle cx="700" cy="748" r="8" class="c0"/>
<circle cx="130" cy="802" r="8" class="c0"/>
<circle cx="1048" cy="802" r="8" class="c0"/>
<circle cx="1608" cy="792" r="8" class="c0"/>
<circle cx="1528" cy="680" r="8" class="c0"/>
<circle cx="1150" cy="776" r="8" class="c0"/>
<circle cx="658" cy="848" r="8" class="c0"/>
<circle cx="518" cy="858" r="8" class="c0"/>
<circle cx="400" cy="810" r="8" class="c0"/>
<circle cx="1426" cy="884" r="8" class="c0"/>
<circle cx="1642" cy="738" r="8" class="c0"/>
<circle cx="1530" cy="754" r="8" class="c0"/>
<circle cx="1730" cy="784" r="8" class="c0"/>
<circle cx="840" cy="814" r="8" class="c0"/>
<circle cx="1344" cy="678" r="8" class="c0"/>
<circle cx="1870" cy="688" r="8" class="c0"/>
<circle cx="1262" cy="772" r="8" class="c0"/>
<circle cx="1398" cy="672" r="8" class="c0"/>
<circle cx="746" cy="874" r="8" class="c0"/>
<circle cx="1324" cy="670" r="8" class="c0"/>
<circle cx="1336" cy="794" r="8" class="c0"/>
<circle cx="1856" cy="768" r="8" class="c0"/>
<circle cx="1438" cy="724" r="8" class="c0"/>
<circle cx="1422" cy="790" r="8" class="c0"/>
<circle cx="1010" cy="898" r="8" class="c0"/>
<circle cx="1454" cy="650" r="8" class="c0"/>
<circle cx="494" cy="728" r="8" class="c0"/>
<circle cx="1486" cy="784" r="8" class="c0"/>
<circle cx="724" cy="782" r="8" class="c0"/>
<circle cx="422" cy="770" r="8" class="c0"/>
<circle cx="554" cy="886" r="8" class="c0"/>
<circle cx="1712" cy="766" r="8" class="c0"/>
<circle cx="1580" cy="762" r="8" class="c0"/>
<circle cx="1874" cy="808" r="8" class="c0"/>
<circle cx="1610" cy="766" r="8" class="c0"/>
<circle cx="496" cy="798" r="8" class="c0"/>
<circle cx="1792" cy="772" r="8" class="c0"/>
<circle cx="1646" cy="710" r="8" class="c0"/>
<circle cx="1070" cy="856" r="8" class="c0"/>
<circle cx="40" cy="818" r="8" class="c0"/>
<circle cx="1288" cy="678" r="8" class="c0"/>
<circle cx="912" cy="798" r="8" class="c0"/>
<circle cx="1482" cy="724" r="8" class="c0"/>
<circle cx="610" cy="808" r="8" class="c0"/>
<circle cx="200" cy="850" r="8" class="c0"/>
<circle cx="1404" cy="762" r="8" class="c0"/>
<circle cx="288" cy="808" r="8" class="c0"/>
<circle cx="988" cy="812" r="8" class="c0"/>
<circle cx="898" cy="856" r="8" class="c0"/>
<circle cx="592" cy="876" r="8" class="c0"/>
<circle cx="858" cy="858" r="8" class="c0"/>
<circle cx="982" cy="892" r="8" class="c0"/>
<circle cx="1534" cy="726" r="8" class="c0"/>
<circle cx="1252" cy="1018" r="8" class="c0"/>
<circle cx="1838" cy="702" r="8" class="c0"/>
<circle cx="954" cy="852" r="8" class="c0"/>
<circle cx="1072" cy="922" r="8" class="c0"/>
<circle cx="1526" cy="702" r="8" class="c0"/>
<circle cx="1410" cy="966" r="8" class="c0"/>
<circle cx="624" cy="860" r="8" class="c0"/>
<circle cx="1214" cy="750" r="8" class="c0"/>
<circle cx="910" cy="764" r="8" class="c0"/>
<circle cx="310" cy="802" r="8" class="c0"/>
<circle cx="1276" cy="846" r="8" class="c0"/>
<circle cx="1450" cy="698" r="8" class="c0"/>
<circle cx="56" cy="762" r="8" class="c0"/>
<circle cx="288" cy="740" r="8" class="c0"/>
<circle cx="656" cy="882" r="8" class="c0"/>
<circle cx="1148" cy="718" r="8" class="c0"/>
<circle cx="922" cy="788" r="8" class="c0"/>
<circle cx="1096" cy="764" r="8" class="c0"/>
<circle cx="1908" cy="712" r="8" class="c0"/>
<circle cx="714" cy="792" r="8" class="c0"/>
<circle cx="1350" cy="850" r="8" class="c0"/>
<circle cx="362" cy="766" r="8" class="c0"/>
<circle cx="566" cy="790" r="8" class="c0"/>
<circle cx="1274" cy="1060" r="8" class="c0"/>
<circle cx="306" cy="738" r="8" class="c0"/>
<circle cx="550" cy="744" r="8" class="c0"/>
<circle cx="472" cy="760" r="8" class="c0"/>
<circle cx="1192" cy="812" r="8" class="c0"/>
<circle cx="1428" cy="906" r="8" class="c0"/>
<circle cx="1402" cy="648" r="8" class="c0"/>
<circle cx="1316" cy="1032" r="8" class="c0"/>
<circle cx="1880" cy="676" r="8" class="c0"/>
<circle cx="1086" cy="898" r="8" class="c0"/>
<circle cx="1400" cy="994" r="8" class="c0"/>
<circle cx="802" cy="770" r="8" class="c0"/>
<circle cx="606" cy="744" r="8" class="c0"/>
<circle cx="1258" cy="710" r="8" class="c0"/>
<circle cx="364" cy="872" r="8" class="c0"/>
<circle cx="1360" cy="1034" r="8" class="c0"/>
<circle cx="368" cy="734" r="8" class="c0"/>
<circle cx="1456" cy="786" r="8" class="c0"/>
<circle cx="1408" cy="914" r="8" class="c0"/>
<circle cx="1038" cy="856" r="8" class="c0"/>
<circle cx="1890" cy="756" r="8" class="c0"/>
<circle cx="12" cy="816" r="8" class="c0"/>
<circle cx="900" cy="784" r="8" class="c0"/>
<circle cx="174" cy="826" r="8" class="c0"/>
<circle cx="276" cy="776" r="8" class="c0"/>
<circle cx="1304" cy="660" r="8" class="c0"/>
<circle cx="1514" cy="692" r="8" class="c0"/>
<circle cx="1620" cy="656" r="8" class="c0"/>
<circle cx="540" cy="832" r="8" class="c0"/>
<circle cx="914" cy="870" r="8" class="c0"/>
<circle cx="74" cy="800" r="8" class="c0"/>
<circle cx="620" cy="820" r="8" class="c0"/>
<circle cx="802" cy="818" r="8" class="c0"/>
<circle cx="208" cy="784" r="8" class="c0"/>
<circle cx="1630" cy="790" r="8" class="c0"/>
<circle cx="1860" cy="726" r="8" class="c0"/>
<circle cx="90" cy="832" r="8" class="c0"/>
<circle cx="1416" cy="896" r="8" class="c0"/>
<circle cx="1156" cy="816" r="8" class="c0"/>
<circle cx="774" cy="772" r="8" class="c0"/>
<circle cx="282" cy="826" r="8" class="c0"/>
<circle cx="1248" cy="1036" r="8" class="c0"/>
<circle cx="1388" cy="800" r="8" class="c0"/>
<circle cx="690" cy="836" r="8" class="c0"/>
<circle cx="350" cy="832" r="8" class="c0"/>
<circle cx="686" cy="768" r="8" class="c0"/>
<circle cx="484" cy="850" r="8" class="c0"/>
<circle cx="1386" cy="722" r="6" class="c0"/>
<circle cx="1440" cy="748" r="6" class="c0"/>
<circle cx="1108" cy="836" r="6" class="c0"/>
<circle cx="1416" cy="986" r="6" class="c0"/>
<circle cx="578" cy="726" r="6" class="c0"/>
<circle cx="578" cy="848" r="6" class="c0"/>
<circle cx="1318" cy="740" r="6" class="c0"/>
<circle cx="1500" cy="700" r="6" class="c0"/>
<circle cx="976" cy="770" r="6" class="c0"/>
<circle cx="1392" cy="878" r="6" class="c0"/>
<circle cx="968" cy="882" r="6" class="c0"/>
<circle cx="1498" cy="734" r="6" class="c0"/>
<circle cx="1362" cy="796" r="6" class="c0"/>
<circle cx="488" cy="884" r="6" class="c0"/>
<circle cx="1614" cy="694" r="6" class="c0"/>
<circle cx="116" cy="762" r="6" class="c0"/>
<circle cx="1740" cy="722" r="6" class="c0"/>
<circle cx="1874" cy="714" r="6" class="c0"/>
<circle cx="1558" cy="652" r="6" class="c0"/>
<circle cx="1116" cy="762" r="6" class="c0"/>
<circle cx="1520" cy="776" r="6" class="c0"/>
<circle cx="222" cy="796" r="6" class="c0"/>
<circle cx="1028" cy="816" r="6" class="c0"/>
<circle cx="390" cy="800" r="6" class="c0"/>
<circle cx="1278" cy="666" r="6" class="c0"/>
<circle cx="1232" cy="684" r="6" class="c0"/>
<circle cx="1094" cy="816" r="6" class="c0"/>
<circle cx="1070" cy="796" r="6" class="c0"/>
<circle cx="402" cy="878" r="6" class="c0"/>
<circle cx="1076" cy="740" r="6" class="c0"/>
<circle cx="1868" cy="778" r="6" class="c0"/>
<circle cx="1746" cy="682" r="6" class="c0"/>
<circle cx="1554" cy="690" r="6" class="c0"/>
<circle cx="1854" cy="810" r="6" class="c0"/>
<circle cx="1488" cy="708" r="6" class="c0"/>
<circle cx="552" cy="862" r="6" class="c0"/>
<circle cx="870" cy="802" r="6" class="c0"/>
<circle cx="1772" cy="716" r="6" class="c0"/>
<circle cx="976" cy="840" r="6" class="c0"/>
<circle cx="190" cy="746" r="6" class="c0"/>
<circle cx="1744" cy="774" r="6" class="c0"/>
<circle cx="1650" cy="790" r="6" class="c0"/>
<circle cx="1090" cy="864" r="6" class="c0"/>
<circle cx="1910" cy="728" r="6" class="c0"/>
<circle cx="496" cy="816" r="6" class="c0"/>
<circle cx="662" cy="830" r="6" class="c0"/>
<circle cx="406" cy="826" r="6" class="c0"/>
<circle cx="1712" cy="784" r="6" class="c0"/>
<circle cx="278" cy="858" r="6" class="c0"/>
<circle cx="1296" cy="850" r="6" class="c0"/>
<circle cx="372" cy="852" r="6" class="c0"/>
<circle cx="1714" cy="748" r="6" class="c0"/>
<circle cx="182" cy="846" r="6" class="c0"/>
<circle cx="350" cy="806" r="6" class="c0"/>
<circle cx="1870" cy="736" r="6" class="c0"/>
<circle cx="1436" cy="708" r="6" class="c0"/>
<circle cx="1412" cy="950" r="6" class="c0"/>
<circle cx="1606" cy="734" r="6" class="c0"/>
<circle cx="558" cy="772" r="6" class="c0"/>
<circle cx="1510" cy="668" r="6" class="c0"/>
<circle cx="1698" cy="774" r="6" class="c0"/>
<circle cx="1776" cy="768" r="6" class="c0"/>
<circle cx="1298" cy="1026" r="6" class="c0"/>
<circle cx="1470" cy="778" r="6" class="c0"/>
<circle cx="1282" cy="756" r="6" class="c0"/>
<circle cx="420" cy="726" r="6" class="c0"/>
<circle cx="246" cy="796" r="6" class="c0"/>
<circle cx="428" cy="880" r="6" class="c0"/>
<circle cx="1130" cy="838" r="6" class="c0"/>
<circle cx="1186" cy="850" r="6" class="c0"/>
<circle cx="834" cy="798" r="6" class="c0"/>
<circle cx="1016" cy="778" r="6" class="c0"/>
<circle cx="1024" cy="538" r="6" class="c0"/>
<circle cx="820" cy="832" r="6" class="c0"/>
<circle cx="390" cy="756" r="6" class="c0"/>
<circle cx="1636" cy="754" r="6" class="c0"/>
<circle cx="1658" cy="780" r="6" class="c0"/>
<circle cx="252" cy="770" r="6" class="c0"/>
<circle cx="1264" cy="668" r="6" class="c0"/>
<circle cx="1086" cy="754" r="6" class="c0"/>
<circle cx="1760" cy="728" r="6" class="c0"/>
<circle cx="348" cy="874" r="6" class="c0"/>
<circle cx="622" cy="876" r="6" class="c0"/>
<circle cx="1306" cy="836" r="6" class="c0"/>
<circle cx="1340" cy="644" r="6" class="c0"/>
<circle cx="112" cy="838" r="6" class="c0"/>
<circle cx="1602" cy="660" r="6" class="c0"/>
<circle cx="616" cy="730" r="6" class="c0"/>
<circle cx="1880" cy="746" r="6" class="c0"/>
<circle cx="1414" cy="700" r="6" class="c0"/>
<circle cx="722" cy="810" r="6" class="c0"/>
<circle cx="1456" cy="766" r="6" class="c0"/>
<circle cx="1322" cy="1062" r="6" class="c0"/>
<circle cx="330" cy="786" r="6" class="c0"/>
<circle cx="1680" cy="720" r="6" class="c0"/>
<circle cx="726" cy="744" r="6" class="c0"/>
<circle cx="1418" cy="772" r="6" class="c0"/>
<circle cx="1816" cy="686" r="6" class="c0"/>
<circle cx="1034" cy="728" r="6" class="c0"/>
<circle cx="878" cy="862" r="6" class="c0"/>
<circle cx="1402" cy="734" r="6" class="c0"/>
<circle cx="316" cy="864" r="6" class="c0"/>
<circle cx="1354" cy="740" r="6" class="c0"/>
<circle cx="524" cy="754" r="6" class="c0"/>
<circle cx="1046" cy="818" r="6" class="c0"/>
<circle cx="1362" cy="1016" r="6" class="c0"/>
<circle cx="1014" cy="838" r="6" class="c0"/>
<circle cx="626" cy="890" r="6" class="c0"/>
<circle cx="1026" cy="892" r="6" class="c0"/>
<circle cx="12" cy="766" r="6" class="c0"/>
<circle cx="1780" cy="666" r="6" class="c0"/>
<circle cx="504" cy="740" r="6" class="c0"/>
<circle cx="322" cy="826" r="6" class="c0"/>
<circle cx="1588" cy="708" r="6" class="c0"/>
<circle cx="262" cy="822" r="6" class="c0"/>
<circle cx="1372" cy="1008" r="6" class="c0"/>
<circle cx="542" cy="816" r="6" class="c0"/>
<circle cx="1384" cy="642" r="6" class="c0"/>
<circle cx="1560" cy="732" r="6" class="c0"/>
<circle cx="96" cy="800" r="6" class="c0"/>
<circle cx="232" cy="804" r="6" class="c0"/>
<circle cx="1406" cy="862" r="6" class="c0"/>
<circle cx="1640" cy="678" r="6" class="c0"/>
<circle cx="468" cy="794" r="6" class="c0"/>
<circle cx="1382" cy="1000" r="6" class="c0"/>
<circle cx="408" cy="732" r="6" class="c0"/>
<circle cx="38" cy="794" r="6" class="c0"/>
<circle cx="436" cy="754" r="6" class="c0"/>
<circle cx="378" cy="818" r="6" class="c0"/>
<circle cx="622" cy="792" r="6" class="c0"/>
<circle cx="582" cy="890" r="6" class="c0"/>
<circle cx="1678" cy="688" r="6" class="c0"/>
<circle cx="850" cy="824" r="6" class="c0"/>
<circle cx="1012" cy="752" r="6" class="c0"/>
<circle cx="1158" cy="790" r="6" class="c0"/>
<circle cx="150" cy="776" r="6" class="c0"/>
<circle cx="802" cy="858" r="6" class="c0"/>
<circle cx="658" cy="790" r="6" class="c0"/>
<circle cx="228" cy="742" r="6" class="c0"/>
<circle cx="1198" cy="710" r="6" class="c0"/>
<circle cx="642" cy="732" r="6" class="c0"/>
<circle cx="1272" cy="1022" r="6" class="c0"/>
<circle cx="1910" cy="788" r="6" class="c0"/>
<circle cx="1684" cy="734" r="6" class="c0"/>
<circle cx="518" cy="836" r="6" class="c0"/>
<circle cx="1034" cy="518" r="6" class="c0"/>
<circle cx="542" cy="728" r="6" class="c0"/>
<circle cx="1912" cy="814" r="6" class="c0"/>
<circle cx="126" cy="754" r="6" class="c0"/>
<circle cx="1194" cy="694" r="6" class="c0"/>
<circle cx="1828" cy="750" r="6" class="c0"/>
<circle cx="534" cy="746" r="6" class="c0"/>
<circle cx="858" cy="836" r="6" class="c0"/>
<circle cx="1260" cy="798" r="6" class="c0"/>
<circle cx="1348" cy="804" r="6" class="c0"/>
<circle cx="1252" cy="762" r="6" class="c0"/>
<circle cx="1292" cy="736" r="6" class="c0"/>
<circle cx="466" cy="884" r="6" class="c0"/>
<circle cx="1252" cy="828" r="6" class="c0"/>
<circle cx="76" cy="758" r="6" class="c0"/>
<circle cx="1440" cy="938" r="6" class="c0"/>
<circle cx="1170" cy="734" r="6" class="c0"/>
<circle cx="1556" cy="792" r="6" class="c0"/>
<circle cx="448" cy="832" r="6" class="c0"/>
<circle cx="1068" cy="894" r="6" class="c0"/>
<circle cx="186" cy="782" r="6" class="c0"/>
<circle cx="158" cy="764" r="6" class="c0"/>
<circle cx="956" cy="808" r="6" class="c0"/>
<circle cx="1080" cy="726" r="6" class="c0"/>
<circle cx="1166" cy="842" r="6" class="c0"/>
<circle cx="1408" cy="684" r="6" class="c0"/>
<circle cx="1732" cy="714" r="6" class="c0"/>
<circle cx="342" cy="732" r="6" class="c0"/>
<circle cx="1674" cy="746" r="6" class="c0"/>
<circle cx="1060" cy="752" r="6" class="c0"/>
<circle cx="1260" cy="726" r="6" class="c0"/>
<circle cx="8" cy="800" r="6" class="c0"/>
<circle cx="1316" cy="696" r="6" class="c0"/>
<circle cx="1230" cy="876" r="6" class="c0"/>
<circle cx="1306" cy="770" r="6" class="c0"/>
<circle cx="964" cy="750" r="6" class="c0"/>
<circle cx="1398" cy="892" r="6" class="c0"/>
<circle cx="1504" cy="748" r="6" class="c0"/>
<circle cx="666" cy="734" r="6" class="c0"/>
<circle cx="1472" cy="792" r="6" class="c0"/>
<circle cx="1332" cy="854" r="6" class="c0"/>
<circle cx="1254" cy="786" r="6" class="c0"/>
<circle cx="1034" cy="780" r="6" class="c0"/>
<circle cx="686" cy="736" r="6" class="c0"/>
<circle cx="1800" cy="694" r="6" class="c0"/>
<circle cx="460" cy="802" r="6" class="c0"/>
<circle cx="288" cy="866" r="6" class="c0"/>
<circle cx="142" cy="814" r="6" class="c0"/>
<circle cx="1264" cy="1030" r="6" class="c0"/>
<circle cx="1372" cy="712" r="6" class="c0"/>
<circle cx="1022" cy="846" r="6" class="c0"/>
<circle cx="1212" cy="822" r="6" class="c0"/>
<circle cx="1246" cy="872" r="6" class="c0"/>
<circle cx="800" cy="802" r="6" class="c0"/>
<circle cx="134" cy="842" r="6" class="c0"/>
<circle cx="1544" cy="650" r="6" class="c0"/>
<circle cx="932" cy="778" r="6" class="c0"/>
<circle cx="166" cy="846" r="6" class="c0"/>
<circle cx="758" cy="780" r="6" class="c0"/>
<circle cx="1380" cy="838" r="6" class="c0"/>
<circle cx="1348" cy="832" r="6" class="c0"/>
<circle cx="1544" cy="682" r="6" class="c0"/>
<circle cx="1442" cy="952" r="6" class="c0"/>
<circle cx="1316" cy="828" r="6" class="c0"/>
<circle cx="608" cy="866" r="6" class="c0"/>
<circle cx="1628" cy="762" r="6" class="c0"/>
<circle cx="1166" cy="782" r="6" class="c0"/>
<circle cx="672" cy="886" r="6" class="c0"/>
<circle cx="1372" cy="748" r="6" class="c0"/>
<circle cx="1470" cy="734" r="6" class="c0"/>
<circle cx="1138" cy="820" r="6" class="c0"/>
<circle cx="548" cy="784" r="6" class="c0"/>
<circle cx="1220" cy="842" r="6" class="c0"/>
<circle cx="514" cy="798" r="6" class="c0"/>
<circle cx="262" cy="738" r="6" class="c0"/>
<circle cx="980" cy="876" r="6" class="c0"/>
<circle cx="308" cy="754" r="6" class="c0"/>
<circle cx="1124" cy="806" r="6" class="c0"/>
<circle cx="844" cy="766" r="6" class="c0"/>
<circle cx="788" cy="826" r="6" class="c0"/>
<circle cx="774" cy="868" r="6" class="c0"/>
<circle cx="556" cy="822" r="6" class="c0"/>
<circle cx="1828" cy="692" r="6" class="c0"/>
<circle cx="692" cy="866" r="6" class="c0"/>
<circle cx="158" cy="748" r="6" class="c0"/>
<circle cx="458" cy="728" r="6" class="c0"/>
<circle cx="1728" cy="768" r="6" class="c0"/>
<circle cx="878" cy="834" r="6" class="c0"/>
<circle cx="1482" cy="652" r="6" class="c0"/>
<circle cx="860" cy="768" r="6" class="c0"/>
<circle cx="1366" cy="856" r="6" class="c0"/>
<circle cx="576" cy="744" r="6" class="c0"/>
<circle cx="1828" cy="714" r="6" class="c0"/>
<circle cx="544" cy="854" r="6" class="c0"/>
<circle cx="1720" cy="798" r="6" class="c0"/>
<circle cx="1742" cy="800" r="6" class="c0"/>
<circle cx="1056" cy="920" r="6" class="c0"/>
<circle cx="1308" cy="1068" r="6" class="c0"/>
<circle cx="378" cy="1110" r="6" class="c0"/>
<circle cx="74" cy="830" r="6" class="c0"/>
<circle cx="304" cy="870" r="6" class="c0"/>
<circle cx="1278" cy="810" r="6" class="c0"/>
<circle cx="112" cy="776" r="6" class="c0"/>
<circle cx="1238" cy="852" r="6" class="c0"/>
<circle cx="1876" cy="768" r="6" class="c0"/>
<circle cx="1448" cy="758" r="6" class="c0"/>
<circle cx="1192" cy="782" r="6" class="c0"/>
<circle cx="1100" cy="618" r="6" class="c0"/>
<circle cx="1722" cy="756" r="6" class="c0"/>
<circle cx="1226" cy="696" r="6" class="c0"/>
<circle cx="686" cy="884" r="6" class="c0"/>
<circle cx="596" cy="764" r="6" class="c0"/>
</svg>
