<?xml version="1.0" encoding="utf-8"?>
<svg xmlns="http://www.w3.org/2000/svg"
     xmlns:xlink="http://www.w3.org/1999/xlink" width="1920" height="1440" >

            <defs>
            <style type="text/css"><![CDATA[
circle {stroke: none;}
.c0 {fill: #FFFFFF;}
]]></style>
            </defs>
<rect x="0" y="0" width="1920" height="1440" fill="black"/>
<circle cx="698" cy="780" r="12" class="c0"/>
<circle cx="144" cy="796" r="12" class="c0"/>
<circle cx="1608" cy="666" r="12" class="c0"/>
<circle cx="88" cy="780" r="12" class="c0"/>
<circle cx="966" cy="838" r="12" class="c0"/>
<circle cx="1472" cy="782" r="12" class="c0"/>
<circle cx="1552" cy="860" r="12" class="c0"/>
<circle cx="338" cy="876" r="12" class="c0"/>
<circle cx="808" cy="822" r="12" class="c0"/>
<circle cx="292" cy="854" r="12" class="c0"/>
<circle cx="1014" cy="848" r="12" class="c0"/>
<circle cx="566" cy="806" r="12" class="c0"/>
<circle cx="586" cy="876" r="12" class="c0"/>
<circle cx="1714" cy="790" r="12" class="c0"/>
<circle cx="1650" cy="690" r="12" class="c0"/>
<circle cx="1646" cy="788" r="12" class="c0"/>
<circle cx="450" cy="810" r="12" class="c0"/>
<circle cx="422" cy="826" r="12" class="c0"/>
<circle cx="226" cy="784" r="12" class="c0"/>
<circle cx="278" cy="828" r="12" class="c0"/>
<circle cx="1340" cy="814" r="12" class="c0"/>
<circle cx="784" cy="736" r="12" class="c0"/>
<circle cx="1194" cy="848" r="12" class="c0"/>
<circle cx="1800" cy="730" r="12" class="c0"/>
<circle cx="74" cy="798" r="12" class="c0"/>
<circle cx="356" cy="838" r="12" class="c0"/>
<circle cx="1396" cy="766" r="12" class="c0"/>
<circle cx="704" cy="836" r="12" class="c0"/>
<circle cx="1662" cy="814" r="12" class="c0"/>
<circle cx="1296" cy="918" r="12" class="c0"/>
<circle cx="1038" cy="806" r="12" class="c0"/>
<circle cx="428" cy="744" r="12" class="c0"/>
<circle cx="754" cy="800" r="12" class="c0"/>
<circle cx="488" cy="860" r="12" class="c0"/>
<circle cx="494" cy="730" r="12" class="c0"/>
<circle cx="1456" cy="720" r="12" class="c0"/>
<circle cx="1234" cy="754" r="12" class="c0"/>
<circle cx="506" cy="778" r="12" class="c0"/>
<circle cx="1900" cy="790" r="12" class="c0"/>
<circle cx="658" cy="738" r="12" class="c0"/>
<circle cx="1610" cy="822" r="12" class="c0"/>
<circle cx="1598" cy="712" r="12" class="c0"/>
<circle cx="1292" cy="804" r="12" class="c0"/>
<circle cx="128" cy="816" r="12" class="c0"/>
<circle cx="1324" cy="780" r="12" class="c0"/>
<circle cx="1106" cy="786" r="12" class="c0"/>
<circle cx="1280" cy="780" r="12" class="c0"/>
<circle cx="1386" cy="824" r="12" class="c0"/>
<circle cx="1156" cy="778" r="10" class="c0"/>
<circle cx="1378" cy="722" r="10" class="c0"/>
<circle cx="540" cy="786" r="10" class="c0"/>
<circle cx="594" cy="754" r="10" class="c0"/>
<circle cx="1648" cy="838" r="10" class="c0"/>
<circle cx="850" cy="874" r="10" class="c0"/>
<circle cx="870" cy="730" r="10" class="c0"/>
<circle cx="624" cy="864" r="10" class="c0"/>
<circle cx="1902" cy="650" r="10" class="c0"/>
<circle cx="1648" cy="748" r="10" class="c0"/>
<circle cx="818" cy="754" r="10" class="c0"/>
<circle cx="1556" cy="814" r="10" class="c0"/>
<circle cx="360" cy="756" r="10" class="c0"/>
<circle cx="984" cy="786" r="10" class="c0"/>
<circle cx="274" cy="740" r="10" class="c0"/>
<circle cx="1146" cy="854" r="10" class="c0"/>
<circle cx="850" cy="812" r="10" class="c0"/>
<circle cx="1890" cy="666" r="10" class="c0"/>
<circle cx="1804" cy="864" r="10" class="c0"/>
<circle cx="1590" cy="838" r="10" class="c0"/>
<circle cx="840" cy="760" r="10" class="c0"/>
<circle cx="766" cy="776" r="10" class="c0"/>
<circle cx="1292" cy="760" r="10" class="c0"/>
<circle cx="230" cy="814" r="10" class="c0"/>
<circle cx="872" cy="878" r="10" class="c0"/>
<circle cx="930" cy="752" r="10" class="c0"/>
<circle cx="22" cy="772" r="10" class="c0"/>
<circle cx="1244" cy="912" r="10" class="c0"/>
<circle cx="652" cy="846" r="10" class="c0"/>
<circle cx="1578" cy="688" r="10" class="c0"/>
<circle cx="1750" cy="644" r="10" class="c0"/>
<circle cx="1202" cy="888" r="10" class="c0"/>
<circle cx="1390" cy="882" r="10" class="c0"/>
<circle cx="270" cy="798" r="10" class="c0"/>
<circle cx="1680" cy="700" r="10" class="c0"/>
<circle cx="1314" cy="720" r="10" class="c0"/>
<circle cx="1744" cy="724" r="10" class="c0"/>
<circle cx="566" cy="888" r="10" class="c0"/>
<circle cx="102" cy="766" r="10" class="c0"/>
<circle cx="670" cy="856" r="10" class="c0"/>
<circle cx="1848" cy="756" r="10" class="c0"/>
<circle cx="688" cy="884" r="10" class="c0"/>
<circle cx="1512" cy="812" r="10" class="c0"/>
<circle cx="258" cy="762" r="10" class="c0"/>
<circle cx="718" cy="764" r="10" class="c0"/>
<circle cx="314" cy="838" r="10" class="c0"/>
<circle cx="56" cy="814" r="10" class="c0"/>
<circle cx="1218" cy="806" r="10" class="c0"/>
<circle cx="1174" cy="834" r="10" class="c0"/>
<circle cx="1344" cy="844" r="10" class="c0"/>
<circle cx="534" cy="728" r="10" class="c0"/>
<circle cx="540" cy="816" r="10" class="c0"/>
<circle cx="186" cy="774" r="10" class="c0"/>
<circle cx="1530" cy="682" r="10" class="c0"/>
<circle cx="1770" cy="1098" r="10" class="c0"/>
<circle cx="806" cy="904" r="10" class="c0"/>
<circle cx="454" cy="838" r="10" class="c0"/>
<circle cx="1124" cy="772" r="10" class="c0"/>
<circle cx="1496" cy="700" r="10" class="c0"/>
<circle cx="924" cy="878" r="10" class="c0"/>
<circle cx="1342" cy="724" r="10" class="c0"/>
<circle cx="1068" cy="826" r="10" class="c0"/>
<circle cx="1804" cy="628" r="10" class="c0"/>
<circle cx="100" cy="828" r="10" class="c0"/>
<circle cx="1656" cy="1124" r="10" class="c0"/>
<circle cx="330" cy="752" r="10" class="c0"/>
<circle cx="1558" cy="788" r="10" class="c0"/>
<circle cx="1774" cy="786" r="10" class="c0"/>
<circle cx="314" cy="806" r="10" class="c0"/>
<circle cx="1298" cy="836" r="10" class="c0"/>
<circle cx="1872" cy="700" r="10" class="c0"/>
<circle cx="1642" cy="726" r="10" class="c0"/>
<circle cx="1266" cy="746" r="10" class="c0"/>
<circle cx="1464" cy="838" r="10" class="c0"/>
<circle cx="828" cy="884" r="10" class="c0"/>
<circle cx="168" cy="764" r="10" class="c0"/>
<circle cx="1628" cy="762" r="10" class="c0"/>
<circle cx="1270" cy="828" r="10" class="c0"/>
<circle cx="490" cy="894" r="10" class="c0"/>
<circle cx="1020" cy="782" r="10" class="c0"/>
<circle cx="696" cy="752" r="10" class="c0"/>
<circle cx="1880" cy="722" r="10" class="c0"/>
<circle cx="464" cy="728" r="10" class="c0"/>
<circle cx="682" cy="918" r="10" class="c0"/>
<circle cx="1600" cy="862" r="10" class="c0"/>
<circle cx="1606" cy="738" r="10" class="c0"/>
<circle cx="702" cy="810" r="10" class="c0"/>
<circle cx="1694" cy="840" r="10" class="c0"/>
<circle cx="704" cy="898" r="10" class="c0"/>
<circle cx="724" cy="796" r="10" class="c0"/>
<circle cx="656" cy="892" r="10" class="c0"/>
<circle cx="898" cy="802" r="10" class="c0"/>
<circle cx="1840" cy="662" r="10" class="c0"/>
<circle cx="798" cy="864" r="10" class="c0"/>
<circle cx="868" cy="900" r="10" class="c0"/>
<circle cx="958" cy="882" r="10" class="c0"/>
<circle cx="508" cy="848" r="10" class="c0"/>
<circle cx="1534" cy="818" r="10" class="c0"/>
<circle cx="1562" cy="660" r="10" class="c0"/>
<circle cx="1428" cy="752" r="10" class="c0"/>
<circle cx="1856" cy="796" r="10" class="c0"/>
<circle cx="220" cy="862" r="10" class="c0"/>
<circle cx="566" cy="832" r="10" class="c0"/>
<circle cx="16" cy="836" r="10" class="c0"/>
<circle cx="1196" cy="814" r="10" class="c0"/>
<circle cx="634" cy="910" r="10" class="c0"/>
<circle cx="1656" cy="1098" r="10" class="c0"/>
<circle cx="434" cy="886" r="10" class="c0"/>
<circle cx="634" cy="802" r="10" class="c0"/>
<circle cx="224" cy="838" r="10" class="c0"/>
<circle cx="1638" cy="644" r="10" class="c0"/>
<circle cx="582" cy="846" r="10" class="c0"/>
<circle cx="506" cy="808" r="10" class="c0"/>
<circle cx="1866" cy="662" r="10" class="c0"/>
<circle cx="1326" cy="742" r="10" class="c0"/>
<circle cx="856" cy="846" r="10" class="c0"/>
<circle cx="1822" cy="796" r="10" class="c0"/>
<circle cx="574" cy="910" r="10" class="c0"/>
<circle cx="412" cy="892" r="10" class="c0"/>
<circle cx="1350" cy="766" r="10" class="c0"/>
<circle cx="384" cy="876" r="10" class="c0"/>
<circle cx="1674" cy="1138" r="10" class="c0"/>
<circle cx="1778" cy="684" r="10" class="c0"/>
<circle cx="200" cy="802" r="10" class="c0"/>
<circle cx="1090" cy="846" r="10" class="c0"/>
<circle cx="1124" cy="846" r="10" class="c0"/>
<circle cx="918" cy="824" r="10" class="c0"/>
<circle cx="398" cy="802" r="10" class="c0"/>
<circle cx="1190" cy="756" r="10" class="c0"/>
<circle cx="680" cy="808" r="10" class="c0"/>
<circle cx="1508" cy="780" r="10" class="c0"/>
<circle cx="662" cy="824" r="10" class="c0"/>
<circle cx="1700" cy="756" r="10" class="c0"/>
<circle cx="406" cy="760" r="10" class="c0"/>
<circle cx="1250" cy="860" r="10" class="c0"/>
<circle cx="792" cy="762" r="10" class="c0"/>
<circle cx="1164" cy="804" r="10" class="c0"/>
<circle cx="122" cy="844" r="10" class="c0"/>
<circle cx="1670" cy="1086" r="10" class="c0"/>
<circle cx="1500" cy="756" r="10" class="c0"/>
<circle cx="568" cy="726" r="10" class="c0"/>
<circle cx="1492" cy="854" r="10" class="c0"/>
<circle cx="1432" cy="832" r="10" class="c0"/>
<circle cx="1162" cy="882" r="10" class="c0"/>
<circle cx="546" cy="744" r="10" class="c0"/>
<circle cx="1682" cy="620" r="10" class="c0"/>
<circle cx="1812" cy="650" r="10" class="c0"/>
<circle cx="1566" cy="708" r="10" class="c0"/>
<circle cx="612" cy="840" r="10" class="c0"/>
<circle cx="66" cy="772" r="10" class="c0"/>
<circle cx="1252" cy="888" r="10" class="c0"/>
<circle cx="1824" cy="762" r="10" class="c0"/>
<circle cx="472" cy="790" r="10" class="c0"/>
<circle cx="1036" cy="836" r="10" class="c0"/>
<circle cx="1204" cy="782" r="10" class="c0"/>
<circle cx="672" cy="780" r="10" class="c0"/>
<circle cx="1614" cy="792" r="10" class="c0"/>
<circle cx="1774" cy="746" r="10" class="c0"/>
<circle cx="960" cy="754" r="10" class="c0"/>
<circle cx="1664" cy="634" r="10" class="c0"/>
<circle cx="464" cy="760" r="10" class="c0"/>
<circle cx="1118" cy="812" r="10" class="c0"/>
<circle cx="758" cy="902" r="10" class="c0"/>
<circle cx="360" cy="886" r="10" class="c0"/>
<circle cx="1848" cy="622" r="10" class="c0"/>
<circle cx="1810" cy="684" r="10" class="c0"/>
<circle cx="408" cy="854" r="10" class="c0"/>
<circle cx="1698" cy="1106" r="10" class="c0"/>
<circle cx="238" cy="850" r="10" class="c0"/>
<circle cx="394" cy="744" r="10" class="c0"/>
<circle cx="1550" cy="768" r="10" class="c0"/>
<circle cx="1002" cy="884" r="10" class="c0"/>
<circle cx="220" cy="750" r="10" class="c0"/>
<circle cx="1688" cy="654" r="10" class="c0"/>
<circle cx="640" cy="878" r="10" class="c0"/>
<circle cx="12" cy="814" r="10" class="c0"/>
<circle cx="140" cy="762" r="10" class="c0"/>
<circle cx="24" cy="802" r="10" class="c0"/>
<circle cx="876" cy="856" r="10" class="c0"/>
<circle cx="682" cy="726" r="10" class="c0"/>
<circle cx="376" cy="800" r="10" class="c0"/>
<circle cx="338" cy="776" r="10" class="c0"/>
<circle cx="1368" cy="748" r="10" class="c0"/>
<circle cx="868" cy="762" r="10" class="c0"/>
<circle cx="1004" cy="760" r="10" class="c0"/>
<circle cx="824" cy="780" r="10" class="c0"/>
<circle cx="112" cy="798" r="10" class="c0"/>
<circle cx="1330" cy="856" r="10" class="c0"/>
<circle cx="1730" cy="816" r="10" class="c0"/>
<circle cx="1438" cy="810" r="10" class="c0"/>
<circle cx="1678" cy="858" r="10" class="c0"/>
<circle cx="1826" cy="610" r="10" class="c0"/>
<circle cx="1792" cy="698" r="10" class="c0"/>
<circle cx="306" cy="748" r="10" class="c0"/>
<circle cx="868" cy="830" r="10" class="c0"/>
<circle cx="1746" cy="678" r="10" class="c0"/>
<circle cx="1518" cy="740" r="10" class="c0"/>
<circle cx="436" cy="848" r="10" class="c0"/>
<circle cx="1734" cy="778" r="10" class="c0"/>
<circle cx="990" cy="854" r="8" class="c0"/>
<circle cx="1726" cy="646" r="8" class="c0"/>
<circle cx="1656" cy="712" r="8" class="c0"/>
<circle cx="1842" cy="686" r="8" class="c0"/>
<circle cx="1412" cy="800" r="8" class="c0"/>
<circle cx="784" cy="798" r="8" class="c0"/>
<circle cx="1756" cy="776" r="8" class="c0"/>
<circle cx="1716" cy="616" r="8" class="c0"/>
<circle cx="552" cy="866" r="8" class="c0"/>
<circle cx="294" cy="798" r="8" class="c0"/>
<circle cx="202" cy="848" r="8" class="c0"/>
<circle cx="602" cy="778" r="8" class="c0"/>
<circle cx="302" cy="818" r="8" class="c0"/>
<circle cx="594" cy="714" r="8" class="c0"/>
<circle cx="304" cy="778" r="8" class="c0"/>
<circle cx="1892" cy="744" r="8" class="c0"/>
<circle cx="1762" cy="626" r="8" class="c0"/>
<circle cx="514" cy="754" r="8" class="c0"/>
<circle cx="726" cy="880" r="8" class="c0"/>
<circle cx="1228" cy="824" r="8" class="c0"/>
<circle cx="1228" cy="782" r="8" class="c0"/>
<circle cx="1906" cy="704" r="8" class="c0"/>
<circle cx="162" cy="852" r="8" class="c0"/>
<circle cx="1336" cy="934" r="8" class="c0"/>
<circle cx="1522" cy="836" r="8" class="c0"/>
<circle cx="1224" cy="890" r="8" class="c0"/>
<circle cx="1822" cy="732" r="8" class="c0"/>
<circle cx="1594" cy="756" r="8" class="c0"/>
<circle cx="524" cy="872" r="8" class="c0"/>
<circle cx="1010" cy="808" r="8" class="c0"/>
<circle cx="1700" cy="632" r="8" class="c0"/>
<circle cx="1084" cy="808" r="8" class="c0"/>
<circle cx="284" cy="780" r="8" class="c0"/>
<circle cx="690" cy="864" r="8" class="c0"/>
<circle cx="1100" cy="874" r="8" class="c0"/>
<circle cx="1582" cy="816" r="8" class="c0"/>
<circle cx="1596" cy="882" r="8" class="c0"/>
<circle cx="1678" cy="670" r="8" class="c0"/>
<circle cx="1772" cy="638" r="8" class="c0"/>
<circle cx="1742" cy="850" r="8" class="c0"/>
<circle cx="1534" cy="752" r="8" class="c0"/>
<circle cx="914" cy="780" r="8" class="c0"/>
<circle cx="784" cy="882" r="8" class="c0"/>
<circle cx="1306" cy="868" r="8" class="c0"/>
<circle cx="1562" cy="838" r="8" class="c0"/>
<circle cx="944" cy="860" r="8" class="c0"/>
<circle cx="624" cy="738" r="8" class="c0"/>
<circle cx="314" cy="868" r="8" class="c0"/>
<circle cx="618" cy="816" r="8" class="c0"/>
<circle cx="170" cy="790" r="8" class="c0"/>
<circle cx="1662" cy="660" r="8" class="c0"/>
<circle cx="1444" cy="848" r="8" class="c0"/>
<circle cx="1714" cy="1116" r="8" class="c0"/>
<circle cx="750" cy="832" r="8" class="c0"/>
<circle cx="570" cy="760" r="8" class="c0"/>
<circle cx="1526" cy="718" r="8" class="c0"/>
<circle cx="332" cy="732" r="8" class="c0"/>
<circle cx="1760" cy="804" r="8" class="c0"/>
<circle cx="998" cy="828" r="8" class="c0"/>
<circle cx="732" cy="846" r="8" class="c0"/>
<circle cx="1742" cy="1134" r="8" class="c0"/>
<circle cx="1040" cy="766" r="8" class="c0"/>
<circle cx="1474" cy="810" r="8" class="c0"/>
<circle cx="1872" cy="762" r="8" class="c0"/>
<circle cx="710" cy="716" r="8" class="c0"/>
<circle cx="832" cy="860" r="8" class="c0"/>
<circle cx="800" cy="720" r="8" class="c0"/>
<circle cx="1574" cy="728" r="8" class="c0"/>
<circle cx="806" cy="794" r="8" class="c0"/>
<circle cx="764" cy="720" r="8" class="c0"/>
<circle cx="474" cy="846" r="8" class="c0"/>
<circle cx="376" cy="728" r="8" class="c0"/>
<circle cx="1824" cy="638" r="8" class="c0"/>
<circle cx="1642" cy="860" r="8" class="c0"/>
<circle cx="1710" cy="726" r="8" class="c0"/>
<circle cx="886" cy="822" r="8" class="c0"/>
<circle cx="1282" cy="888" r="8" class="c0"/>
<circle cx="1828" cy="918" r="8" class="c0"/>
<circle cx="496" cy="828" r="8" class="c0"/>
<circle cx="1692" cy="774" r="8" class="c0"/>
<circle cx="1728" cy="626" r="8" class="c0"/>
<circle cx="980" cy="764" r="8" class="c0"/>
<circle cx="1840" cy="1036" r="8" class="c0"/>
<circle cx="616" cy="758" r="8" class="c0"/>
<circle cx="388" cy="776" r="8" class="c0"/>
<circle cx="654" cy="790" r="8" class="c0"/>
<circle cx="1146" cy="794" r="8" class="c0"/>
<circle cx="734" cy="902" r="8" class="c0"/>
<circle cx="1808" cy="1070" r="8" class="c0"/>
<circle cx="606" cy="796" r="8" class="c0"/>
<circle cx="528" cy="842" r="8" class="c0"/>
<circle cx="342" cy="812" r="8" class="c0"/>
<circle cx="186" cy="834" r="8" class="c0"/>
<circle cx="1742" cy="802" r="8" class="c0"/>
<circle cx="1142" cy="814" r="8" class="c0"/>
<circle cx="1080" cy="874" r="8" class="c0"/>
<circle cx="716" cy="742" r="8" class="c0"/>
<circle cx="1348" cy="792" r="8" class="c0"/>
<circle cx="1726" cy="672" r="8" class="c0"/>
<circle cx="1316" cy="878" r="8" class="c0"/>
<circle cx="354" cy="796" r="8" class="c0"/>
<circle cx="1570" cy="776" r="8" class="c0"/>
<circle cx="600" cy="908" r="8" class="c0"/>
<circle cx="1848" cy="644" r="8" class="c0"/>
<circle cx="1830" cy="704" r="8" class="c0"/>
<circle cx="582" cy="738" r="8" class="c0"/>
<circle cx="1792" cy="764" r="8" class="c0"/>
<circle cx="1302" cy="782" r="8" class="c0"/>
<circle cx="1722" cy="692" r="8" class="c0"/>
<circle cx="1360" cy="802" r="8" class="c0"/>
<circle cx="482" cy="814" r="8" class="c0"/>
<circle cx="956" cy="794" r="8" class="c0"/>
<circle cx="1478" cy="718" r="8" class="c0"/>
<circle cx="1062" cy="864" r="8" class="c0"/>
<circle cx="260" cy="842" r="8" class="c0"/>
<circle cx="1700" cy="1126" r="8" class="c0"/>
<circle cx="462" cy="872" r="8" class="c0"/>
<circle cx="1682" cy="784" r="8" class="c0"/>
<circle cx="576" cy="782" r="8" class="c0"/>
<circle cx="1890" cy="618" r="8" class="c0"/>
<circle cx="1188" cy="794" r="8" class="c0"/>
<circle cx="82" cy="848" r="8" class="c0"/>
<circle cx="912" cy="900" r="8" class="c0"/>
<circle cx="792" cy="842" r="8" class="c0"/>
<circle cx="244" cy="872" r="8" class="c0"/>
<circle cx="746" cy="886" r="8" class="c0"/>
<circle cx="466" cy="896" r="8" class="c0"/>
<circle cx="1384" cy="846" r="8" class="c0"/>
<circle cx="900" cy="850" r="8" class="c0"/>
<circle cx="392" cy="844" r="8" class="c0"/>
<circle cx="1730" cy="860" r="8" class="c0"/>
<circle cx="1670" cy="728" r="8" class="c0"/>
<circle cx="1068" cy="792" r="8" class="c0"/>
<circle cx="544" cy="884" r="8" class="c0"/>
<circle cx="1720" cy="1134" r="8" class="c0"/>
<circle cx="1626" cy="742" r="8" class="c0"/>
<circle cx="832" cy="802" r="8" class="c0"/>
<circle cx="946" cy="830" r="8" class="c0"/>
<circle cx="972" cy="870" r="8" class="c0"/>
<circle cx="908" cy="762" r="8" class="c0"/>
<circle cx="606" cy="732" r="8" class="c0"/>
<circle cx="1048" cy="874" r="8" class="c0"/>
<circle cx="1320" cy="912" r="8" class="c0"/>
<circle cx="938" cy="796" r="8" class="c0"/>
<circle cx="628" cy="830" r="8" class="c0"/>
<circle cx="1622" cy="1096" r="8" class="c0"/>
<circle cx="740" cy="780" r="8" class="c0"/>
<circle cx="1032" cy="858" r="8" class="c0"/>
<circle cx="1680" cy="738" r="8" class="c0"/>
<circle cx="892" cy="912" r="8" class="c0"/>
<circle cx="1066" cy="764" r="8" class="c0"/>
<circle cx="1314" cy="930" r="8" class="c0"/>
<circle cx="1762" cy="666" r="8" class="c0"/>
<circle cx="1710" cy="864" r="8" class="c0"/>
<circle cx="592" cy="812" r="8" class="c0"/>
<circle cx="536" cy="914" r="8" class="c0"/>
<circle cx="1240" cy="838" r="8" class="c0"/>
<circle cx="142" cy="836" r="8" class="c0"/>
<circle cx="1526" cy="794" r="8" class="c0"/>
<circle cx="1264" cy="920" r="8" class="c0"/>
<circle cx="734" cy="746" r="8" class="c0"/>
<circle cx="1266" cy="804" r="8" class="c0"/>
<circle cx="444" cy="758" r="8" class="c0"/>
<circle cx="284" cy="874" r="8" class="c0"/>
<circle cx="748" cy="858" r="8" class="c0"/>
<circle cx="736" cy="810" r="8" class="c0"/>
<circle cx="1166" cy="852" r="8" class="c0"/>
<circle cx="1520" cy="862" r="8" class="c0"/>
<circle cx="1496" cy="830" r="8" class="c0"/>
<circle cx="1566" cy="882" r="8" class="c0"/>
<circle cx="1808" cy="1096" r="8" class="c0"/>
<circle cx="122" cy="782" r="8" class="c0"/>
<circle cx="1190" cy="872" r="8" class="c0"/>
<circle cx="1776" cy="714" r="8" class="c0"/>
<circle cx="1620" cy="722" r="8" class="c0"/>
<circle cx="1796" cy="1084" r="8" class="c0"/>
<circle cx="100" cy="850" r="8" class="c0"/>
<circle cx="1552" cy="676" r="8" class="c0"/>
<circle cx="1736" cy="1094" r="8" class="c0"/>
<circle cx="716" cy="868" r="8" class="c0"/>
<circle cx="972" cy="894" r="8" class="c0"/>
<circle cx="1738" cy="660" r="8" class="c0"/>
<circle cx="1586" cy="670" r="8" class="c0"/>
<circle cx="1862" cy="986" r="8" class="c0"/>
<circle cx="670" cy="712" r="8" class="c0"/>
<circle cx="824" cy="840" r="8" class="c0"/>
<circle cx="1058" cy="842" r="8" class="c0"/>
<circle cx="1668" cy="762" r="8" class="c0"/>
<circle cx="1754" cy="610" r="8" class="c0"/>
<circle cx="776" cy="820" r="8" class="c0"/>
<circle cx="764" cy="874" r="8" class="c0"/>
<circle cx="1320" cy="824" r="8" class="c0"/>
<circle cx="1454" cy="742" r="8" class="c0"/>
<circle cx="1702" cy="818" r="8" class="c0"/>
<circle cx="364" cy="818" r="8" class="c0"/>
<circle cx="912" cy="744" r="8" class="c0"/>
<circle cx="886" cy="890" r="8" class="c0"/>
<circle cx="1494" cy="802" r="8" class="c0"/>
<circle cx="1630" cy="830" r="8" class="c0"/>
<circle cx="1752" cy="822" r="8" class="c0"/>
<circle cx="294" cy="736" r="8" class="c0"/>
<circle cx="1622" cy="632" r="8" class="c0"/>
<circle cx="1020" cy="826" r="8" class="c0"/>
<circle cx="1542" cy="702" r="8" class="c0"/>
<circle cx="818" cy="916" r="8" class="c0"/>
<circle cx="240" cy="746" r="8" class="c0"/>
<circle cx="376" cy="854" r="8" class="c0"/>
<circle cx="170" cy="814" r="8" class="c0"/>
<circle cx="42" cy="776" r="8" class="c0"/>
<circle cx="324" cy="856" r="8" class="c0"/>
<circle cx="900" cy="870" r="8" class="c0"/>
<circle cx="1394" cy="790" r="8" class="c0"/>
<circle cx="934" cy="848" r="8" class="c0"/>
<circle cx="1736" cy="754" r="8" class="c0"/>
<circle cx="1508" cy="712" r="8" class="c0"/>
<circle cx="1414" cy="822" r="8" class="c0"/>
<circle cx="518" cy="830" r="8" class="c0"/>
<circle cx="1634" cy="622" r="8" class="c0"/>
<circle cx="1794" cy="788" r="8" class="c0"/>
<circle cx="1628" cy="694" r="8" class="c0"/>
<circle cx="1892" cy="692" r="8" class="c0"/>
<circle cx="1854" cy="722" r="8" class="c0"/>
<circle cx="746" cy="732" r="8" class="c0"/>
<circle cx="660" cy="912" r="8" class="c0"/>
<circle cx="1560" cy="742" r="8" class="c0"/>
<circle cx="1266" cy="848" r="8" class="c0"/>
<circle cx="440" cy="780" r="8" class="c0"/>
<circle cx="684" cy="766" r="8" class="c0"/>
<circle cx="1308" cy="750" r="8" class="c0"/>
<circle cx="864" cy="782" r="8" class="c0"/>
<circle cx="1122" cy="866" r="8" class="c0"/>
<circle cx="428" cy="792" r="8" class="c0"/>
<circle cx="1538" cy="780" r="8" class="c0"/>
<circle cx="1904" cy="726" r="8" class="c0"/>
<circle cx="1636" cy="1118" r="8" class="c0"/>
<circle cx="1272" cy="866" r="8" class="c0"/>
<circle cx="1704" cy="708" r="8" class="c0"/>
<circle cx="190" cy="862" r="8" class="c0"/>
<circle cx="634" cy="712" r="8" class="c0"/>
<circle cx="1910" cy="764" r="8" class="c0"/>
<circle cx="1778" cy="808" r="8" class="c0"/>
<circle cx="754" cy="754" r="8" class="c0"/>
<circle cx="842" cy="902" r="8" class="c0"/>
<circle cx="1454" cy="766" r="8" class="c0"/>
<circle cx="1774" cy="858" r="8" class="c0"/>
<circle cx="1406" cy="728" r="8" class="c0"/>
<circle cx="34" cy="818" r="8" class="c0"/>
<circle cx="1334" cy="876" r="8" class="c0"/>
<circle cx="1536" cy="728" r="8" class="c0"/>
<circle cx="766" cy="840" r="8" class="c0"/>
<circle cx="1726" cy="604" r="8" class="c0"/>
<circle cx="330" cy="826" r="8" class="c0"/>
<circle cx="604" cy="888" r="8" class="c0"/>
<circle cx="1806" cy="606" r="8" class="c0"/>
<circle cx="1154" cy="830" r="8" class="c0"/>
<circle cx="900" cy="730" r="8" class="c0"/>
<circle cx="1220" cy="844" r="8" class="c0"/>
<circle cx="1226" cy="868" r="8" class="c0"/>
<circle cx="1718" cy="832" r="8" class="c0"/>
<circle cx="946" cy="770" r="8" class="c0"/>
<circle cx="774" cy="864" r="8" class="c0"/>
<circle cx="1708" cy="674" r="8" class="c0"/>
<circle cx="1182" cy="774" r="8" class="c0"/>
<circle cx="1420" cy="774" r="8" class="c0"/>
<circle cx="846" cy="738" r="8" class="c0"/>
<circle cx="1244" cy="772" r="8" class="c0"/>
<circle cx="378" cy="834" r="8" class="c0"/>
<circle cx="1518" cy="670" r="8" class="c0"/>
<circle cx="874" cy="806" r="8" class="c0"/>
<circle cx="1876" cy="644" r="8" class="c0"/>
<circle cx="1450" cy="788" r="8" class="c0"/>
<circle cx="1590" cy="790" r="8" class="c0"/>
<circle cx="336" cy="846" r="8" class="c0"/>
<circle cx="452" cy="858" r="8" class="c0"/>
<circle cx="1806" cy="896" r="8" class="c0"/>
<circle cx="1878" cy="798" r="8" class="c0"/>
<circle cx="1504" cy="682" r="8" class="c0"/>
<circle cx="966" cy="776" r="8" class="c0"/>
<circle cx="1784" cy="654" r="8" class="c0"/>
<circle cx="1574" cy="858" r="8" class="c0"/>
<circle cx="1268" cy="566" r="8" class="c0"/>
<circle cx="1842" cy="1074" r="8" class="c0"/>
<circle cx="1760" cy="700" r="8" class="c0"/>
<circle cx="1840" cy="1010" r="8" class="c0"/>
<circle cx="852" cy="916" r="8" class="c0"/>
<circle cx="1792" cy="884" r="8" class="c0"/>
<circle cx="974" cy="812" r="8" class="c0"/>
<circle cx="600" cy="856" r="8" class="c0"/>
<circle cx="1292" cy="738" r="8" class="c0"/>
<circle cx="192" cy="748" r="8" class="c0"/>
<circle cx="1246" cy="794" r="8" class="c0"/>
<circle cx="1840" cy="940" r="8" class="c0"/>
<circle cx="654" cy="866" r="8" class="c0"/>
<circle cx="208" cy="820" r="8" class="c0"/>
<circle cx="1136" cy="834" r="8" class="c0"/>
<circle cx="1378" cy="804" r="8" class="c0"/>
<circle cx="202" cy="760" r="8" class="c0"/>
<circle cx="836" cy="722" r="8" class="c0"/>
<circle cx="782" cy="918" r="8" class="c0"/>
<circle cx="1678" cy="828" r="8" class="c0"/>
<circle cx="1452" cy="824" r="8" class="c0"/>
<circle cx="1618" cy="842" r="8" class="c0"/>
<circle cx="1770" cy="838" r="8" class="c0"/>
<circle cx="1626" cy="806" r="8" class="c0"/>
<circle cx="1364" cy="820" r="8" class="c0"/>
<circle cx="500" cy="878" r="8" class="c0"/>
<circle cx="1638" cy="706" r="8" class="c0"/>
<circle cx="1632" cy="872" r="8" class="c0"/>
<circle cx="812" cy="730" r="8" class="c0"/>
<circle cx="654" cy="760" r="8" class="c0"/>
<circle cx="1824" cy="1052" r="8" class="c0"/>
<circle cx="1860" cy="744" r="8" class="c0"/>
<circle cx="1848" cy="920" r="8" class="c0"/>
<circle cx="160" cy="828" r="8" class="c0"/>
<circle cx="620" cy="780" r="8" class="c0"/>
<circle cx="1218" cy="766" r="8" class="c0"/>
<circle cx="1848" cy="970" r="8" class="c0"/>
<circle cx="1764" cy="868" r="8" class="c0"/>
<circle cx="1696" cy="608" r="8" class="c0"/>
<circle cx="490" cy="764" r="8" class="c0"/>
<circle cx="1284" cy="852" r="8" class="c0"/>
<circle cx="1776" cy="614" r="8" class="c0"/>
<circle cx="1210" cy="860" r="8" class="c0"/>
<circle cx="1692" cy="724" r="8" class="c0"/>
<circle cx="1094" cy="818" r="8" class="c0"/>
<circle cx="264" cy="874" r="8" class="c0"/>
<circle cx="1350" cy="866" r="8" class="c0"/>
<circle cx="40" cy="842" r="8" class="c0"/>
<circle cx="1248" cy="820" r="8" class="c0"/>
<circle cx="1250" cy="736" r="8" class="c0"/>
<circle cx="1208" cy="746" r="8" class="c0"/>
<circle cx="1672" cy="1112" r="8" class="c0"/>
<circle cx="1868" cy="1026" r="8" class="c0"/>
<circle cx="938" cy="902" r="8" class="c0"/>
<circle cx="260" cy="816" r="8" class="c0"/>
<circle cx="490" cy="798" r="8" class="c0"/>
<circle cx="1416" cy="716" r="8" class="c0"/>
<circle cx="1084" cy="780" r="8" class="c0"/>
<circle cx="1520" cy="768" r="8" class="c0"/>
<circle cx="1812" cy="780" r="8" class="c0"/>
<circle cx="1410" cy="936" r="8" class="c0"/>
<circle cx="142" cy="858" r="8" class="c0"/>
<circle cx="890" cy="768" r="8" class="c0"/>
<circle cx="1800" cy="664" r="8" class="c0"/>
<circle cx="1184" cy="896" r="8" class="c0"/>
<circle cx="1316" cy="806" r="8" class="c0"/>
<circle cx="1756" cy="1114" r="8" class="c0"/>
<circle cx="70" cy="832" r="8" class="c0"/>
<circle cx="1732" cy="704" r="8" class="c0"/>
<circle cx="728" cy="726" r="8" class="c0"/>
<circle cx="1872" cy="622" r="8" class="c0"/>
<circle cx="1346" cy="890" r="8" class="c0"/>
<circle cx="512" cy="898" r="8" class="c0"/>
<circle cx="1740" cy="832" r="8" class="c0"/>
<circle cx="1338" cy="754" r="8" class="c0"/>
<circle cx="888" cy="750" r="8" class="c0"/>
<circle cx="250" cy="832" r="8" class="c0"/>
<circle cx="1838" cy="740" r="8" class="c0"/>
<circle cx="1140" cy="876" r="8" class="c0"/>
<circle cx="1608" cy="770" r="8" class="c0"/>
<circle cx="538" cy="762" r="8" class="c0"/>
<circle cx="1822" cy="670" r="8" class="c0"/>
<circle cx="1368" cy="926" r="8" class="c0"/>
<circle cx="302" cy="878" r="8" class="c0"/>
<circle cx="1404" cy="842" r="8" class="c0"/>
<circle cx="410" cy="724" r="8" class="c0"/>
<circle cx="156" cy="780" r="8" class="c0"/>
<circle cx="444" cy="724" r="8" class="c0"/>
<circle cx="1878" cy="680" r="8" class="c0"/>
<circle cx="1728" cy="734" r="8" class="c0"/>
<circle cx="1906" cy="630" r="8" class="c0"/>
<circle cx="416" cy="778" r="8" class="c0"/>
<circle cx="1694" cy="800" r="8" class="c0"/>
<circle cx="1634" cy="668" r="8" class="c0"/>
<circle cx="364" cy="782" r="8" class="c0"/>
<circle cx="320" cy="786" r="8" class="c0"/>
<circle cx="1572" cy="802" r="8" class="c0"/>
<circle cx="1824" cy="898" r="8" class="c0"/>
<circle cx="120" cy="758" r="8" class="c0"/>
<circle cx="248" cy="780" r="8" class="c0"/>
<circle cx="282" cy="762" r="8" class="c0"/>
<circle cx="274" cy="864" r="8" class="c0"/>
<circle cx="1352" cy="704" r="8" class="c0"/>
<circle cx="1370" cy="768" r="8" class="c0"/>
<circle cx="1496" cy="726" r="8" class="c0"/>
<circle cx="1168" cy="756" r="8" class="c0"/>
<circle cx="1052" cy="780" r="8" class="c0"/>
<circle cx="1380" cy="700" r="8" class="c0"/>
<circle cx="1884" cy="772" r="8" class="c0"/>
<circle cx="1354" cy="914" r="8" class="c0"/>
<circle cx="1824" cy="876" r="8" class="c0"/>
<circle cx="848" cy="790" r="8" class="c0"/>
<circle cx="526" cy="804" r="8" class="c0"/>
<circle cx="1146" cy="760" r="8" class="c0"/>
<circle cx="702" cy="920" r="8" class="c0"/>
<circle cx="382" cy="756" r="8" class="c0"/>
<circle cx="852" cy="772" r="8" class="c0"/>
<circle cx="808" cy="882" r="8" class="c0"/>
<circle cx="832" cy="824" r="8" class="c0"/>
<circle cx="1718" cy="744" r="8" class="c0"/>
<circle cx="354" cy="736" r="8" class="c0"/>
<circle cx="672" cy="752" r="8" class="c0"/>
<circle cx="422" cy="868" r="8" class="c0"/>
<circle cx="644" cy="770" r="8" class="c0"/>
<circle cx="1484" cy="820" r="8" class="c0"/>
<circle cx="724" cy="912" r="8" class="c0"/>
<circle cx="1368" cy="886" r="8" class="c0"/>
<circle cx="454" cy="744" r="8" class="c0"/>
<circle cx="1426" cy="730" r="8" class="c0"/>
<circle cx="1484" cy="738" r="6" class="c0"/>
<circle cx="944" cy="740" r="6" class="c0"/>
<circle cx="1258" cy="780" r="6" class="c0"/>
<circle cx="1702" cy="690" r="6" class="c0"/>
<circle cx="450" cy="902" r="6" class="c0"/>
<circle cx="1298" cy="896" r="6" class="c0"/>
<circle cx="744" cy="918" r="6" class="c0"/>
<circle cx="1604" cy="692" r="6" class="c0"/>
<circle cx="510" cy="720" r="6" class="c0"/>
<circle cx="1716" cy="660" r="6" class="c0"/>
<circle cx="52" cy="796" r="6" class="c0"/>
<circle cx="1906" cy="610" r="6" class="c0"/>
<circle cx="1550" cy="718" r="6" class="c0"/>
<circle cx="1368" cy="836" r="6" class="c0"/>
<circle cx="1710" cy="770" r="6" class="c0"/>
<circle cx="1834" cy="784" r="6" class="c0"/>
<circle cx="1736" cy="1112" r="6" class="c0"/>
<circle cx="1278" cy="726" r="6" class="c0"/>
<circle cx="572" cy="862" r="6" class="c0"/>
<circle cx="1578" cy="750" r="6" class="c0"/>
<circle cx="480" cy="774" r="6" class="c0"/>
<circle cx="1542" cy="836" r="6" class="c0"/>
<circle cx="1804" cy="752" r="6" class="c0"/>
<circle cx="1476" cy="746" r="6" class="c0"/>
<circle cx="1108" cy="760" r="6" class="c0"/>
<circle cx="1544" cy="800" r="6" class="c0"/>
<circle cx="1584" cy="870" r="6" class="c0"/>
<circle cx="1314" cy="844" r="6" class="c0"/>
<circle cx="802" cy="776" r="6" class="c0"/>
<circle cx="616" cy="918" r="6" class="c0"/>
<circle cx="1690" cy="684" r="6" class="c0"/>
<circle cx="528" cy="746" r="6" class="c0"/>
<circle cx="522" cy="888" r="6" class="c0"/>
<circle cx="724" cy="822" r="6" class="c0"/>
<circle cx="1754" cy="756" r="6" class="c0"/>
<circle cx="1022" cy="886" r="6" class="c0"/>
<circle cx="762" cy="920" r="6" class="c0"/>
<circle cx="638" cy="748" r="6" class="c0"/>
<circle cx="210" cy="774" r="6" class="c0"/>
<circle cx="1470" cy="758" r="6" class="c0"/>
<circle cx="686" cy="828" r="6" class="c0"/>
<circle cx="1764" cy="728" r="6" class="c0"/>
<circle cx="1128" cy="796" r="6" class="c0"/>
<circle cx="188" cy="816" r="6" class="c0"/>
<circle cx="380" cy="894" r="6" class="c0"/>
<circle cx="1904" cy="678" r="6" class="c0"/>
<circle cx="1276" cy="910" r="6" class="c0"/>
<circle cx="1534" cy="664" r="6" class="c0"/>
<circle cx="958" cy="818" r="6" class="c0"/>
<circle cx="552" cy="848" r="6" class="c0"/>
<circle cx="1798" cy="804" r="6" class="c0"/>
<circle cx="774" cy="894" r="6" class="c0"/>
<circle cx="860" cy="746" r="6" class="c0"/>
<circle cx="478" cy="718" r="6" class="c0"/>
<circle cx="1264" cy="766" r="6" class="c0"/>
<circle cx="1602" cy="804" r="6" class="c0"/>
<circle cx="1860" cy="610" r="6" class="c0"/>
<circle cx="1884" cy="962" r="6" class="c0"/>
<circle cx="620" cy="894" r="6" class="c0"/>
<circle cx="1836" cy="724" r="6" class="c0"/>
<circle cx="1522" cy="698" r="6" class="c0"/>
<circle cx="812" cy="850" r="6" class="c0"/>
<circle cx="244" cy="800" r="6" class="c0"/>
<circle cx="1760" cy="850" r="6" class="c0"/>
<circle cx="618" cy="718" r="6" class="c0"/>
<circle cx="1366" cy="852" r="6" class="c0"/>
<circle cx="84" cy="760" r="6" class="c0"/>
<circle cx="1428" cy="706" r="6" class="c0"/>
<circle cx="884" cy="790" r="6" class="c0"/>
<circle cx="1860" cy="634" r="6" class="c0"/>
<circle cx="1352" cy="932" r="6" class="c0"/>
<circle cx="478" cy="876" r="6" class="c0"/>
<circle cx="1296" cy="722" r="6" class="c0"/>
<circle cx="540" cy="856" r="6" class="c0"/>
<circle cx="1784" cy="870" r="6" class="c0"/>
<circle cx="716" cy="850" r="6" class="c0"/>
<circle cx="1844" cy="712" r="6" class="c0"/>
<circle cx="1612" cy="642" r="6" class="c0"/>
<circle cx="1204" cy="830" r="6" class="c0"/>
<circle cx="534" cy="898" r="6" class="c0"/>
<circle cx="478" cy="744" r="6" class="c0"/>
<circle cx="1456" cy="806" r="6" class="c0"/>
<circle cx="1106" cy="830" r="6" class="c0"/>
<circle cx="1640" cy="816" r="6" class="c0"/>
<circle cx="1738" cy="614" r="6" class="c0"/>
<circle cx="1072" cy="850" r="6" class="c0"/>
<circle cx="1790" cy="600" r="6" class="c0"/>
<circle cx="1092" cy="762" r="6" class="c0"/>
<circle cx="402" cy="874" r="6" class="c0"/>
<circle cx="936" cy="812" r="6" class="c0"/>
<circle cx="1218" cy="908" r="6" class="c0"/>
<circle cx="1784" cy="1112" r="6" class="c0"/>
<circle cx="1536" cy="848" r="6" class="c0"/>
<circle cx="364" cy="866" r="6" class="c0"/>
<circle cx="982" cy="880" r="6" class="c0"/>
<circle cx="1510" cy="848" r="6" class="c0"/>
<circle cx="1484" cy="686" r="6" class="c0"/>
<circle cx="1696" cy="1144" r="6" class="c0"/>
<circle cx="254" cy="860" r="6" class="c0"/>
<circle cx="1852" cy="674" r="6" class="c0"/>
<circle cx="1752" cy="1096" r="6" class="c0"/>
<circle cx="1706" cy="648" r="6" class="c0"/>
<circle cx="800" cy="746" r="6" class="c0"/>
<circle cx="472" cy="828" r="6" class="c0"/>
<circle cx="550" cy="714" r="6" class="c0"/>
<circle cx="916" cy="804" r="6" class="c0"/>
<circle cx="1684" cy="1124" r="6" class="c0"/>
<circle cx="1318" cy="760" r="6" class="c0"/>
<circle cx="1392" cy="742" r="6" class="c0"/>
<circle cx="902" cy="832" r="6" class="c0"/>
<circle cx="1786" cy="832" r="6" class="c0"/>
<circle cx="1660" cy="850" r="6" class="c0"/>
<circle cx="1010" cy="868" r="6" class="c0"/>
<circle cx="1378" cy="786" r="6" class="c0"/>
<circle cx="1268" cy="900" r="6" class="c0"/>
<circle cx="562" cy="774" r="6" class="c0"/>
<circle cx="554" cy="766" r="6" class="c0"/>
<circle cx="8" cy="786" r="6" class="c0"/>
<circle cx="1438" cy="778" r="6" class="c0"/>
<circle cx="1618" cy="704" r="6" class="c0"/>
<circle cx="1670" cy="842" r="6" class="c0"/>
<circle cx="668" cy="874" r="6" class="c0"/>
<circle cx="238" cy="764" r="6" class="c0"/>
<circle cx="794" cy="784" r="6" class="c0"/>
<circle cx="348" cy="860" r="6" class="c0"/>
<circle cx="1638" cy="1088" r="6" class="c0"/>
<circle cx="1710" cy="1092" r="6" class="c0"/>
<circle cx="56" cy="844" r="6" class="c0"/>
<circle cx="770" cy="748" r="6" class="c0"/>
<circle cx="1812" cy="710" r="6" class="c0"/>
<circle cx="400" cy="822" r="6" class="c0"/>
<circle cx="1420" cy="844" r="6" class="c0"/>
<circle cx="916" cy="844" r="6" class="c0"/>
<circle cx="586" cy="792" r="6" class="c0"/>
<circle cx="884" cy="838" r="6" class="c0"/>
<circle cx="1358" cy="782" r="6" class="c0"/>
<circle cx="314" cy="766" r="6" class="c0"/>
<circle cx="558" cy="788" r="6" class="c0"/>
<circle cx="748" cy="712" r="6" class="c0"/>
<circle cx="674" cy="902" r="6" class="c0"/>
<circle cx="1122" cy="884" r="6" class="c0"/>
<circle cx="1172" cy="868" r="6" class="c0"/>
<circle cx="1652" cy="1078" r="6" class="c0"/>
<circle cx="1322" cy="944" r="6" class="c0"/>
<circle cx="652" cy="712" r="6" class="c0"/>
<circle cx="1568" cy="758" r="6" class="c0"/>
<circle cx="1622" cy="862" r="6" class="c0"/>
<circle cx="1688" cy="1092" r="6" class="c0"/>
<circle cx="920" cy="730" r="6" class="c0"/>
<circle cx="1624" cy="678" r="6" class="c0"/>
<circle cx="1792" cy="640" r="6" class="c0"/>
<circle cx="1050" cy="824" r="6" class="c0"/>
<circle cx="1602" cy="906" r="6" class="c0"/>
<circle cx="1748" cy="866" r="6" class="c0"/>
<circle cx="780" cy="716" r="6" class="c0"/>
<circle cx="918" cy="858" r="6" class="c0"/>
<circle cx="1384" cy="930" r="6" class="c0"/>
<circle cx="1472" cy="854" r="6" class="c0"/>
<circle cx="1858" cy="688" r="6" class="c0"/>
<circle cx="1718" cy="850" r="6" class="c0"/>
<circle cx="596" cy="828" r="6" class="c0"/>
<circle cx="826" cy="738" r="6" class="c0"/>
<circle cx="950" cy="810" r="6" class="c0"/>
<circle cx="182" cy="800" r="6" class="c0"/>
<circle cx="1772" cy="764" r="6" class="c0"/>
<circle cx="554" cy="902" r="6" class="c0"/>
<circle cx="992" cy="870" r="6" class="c0"/>
<circle cx="548" cy="834" r="6" class="c0"/>
<circle cx="1838" cy="984" r="6" class="c0"/>
<circle cx="96" cy="806" r="6" class="c0"/>
<circle cx="1784" cy="628" r="6" class="c0"/>
<circle cx="1238" cy="810" r="6" class="c0"/>
<circle cx="1720" cy="760" r="6" class="c0"/>
<circle cx="1026" cy="758" r="6" class="c0"/>
<circle cx="1812" cy="744" r="6" class="c0"/>
<circle cx="384" cy="818" r="6" class="c0"/>
<circle cx="676" cy="838" r="6" class="c0"/>
<circle cx="1862" cy="778" r="6" class="c0"/>
<circle cx="1002" cy="780" r="6" class="c0"/>
<circle cx="842" cy="834" r="6" class="c0"/>
<circle cx="706" cy="880" r="6" class="c0"/>
<circle cx="1746" cy="624" r="6" class="c0"/>
<circle cx="1778" cy="1132" r="6" class="c0"/>
<circle cx="1106" cy="854" r="6" class="c0"/>
<circle cx="416" cy="804" r="6" class="c0"/>
<circle cx="1360" cy="732" r="6" class="c0"/>
<circle cx="1468" cy="706" r="6" class="c0"/>
<circle cx="1658" cy="864" r="6" class="c0"/>
<circle cx="1724" cy="1104" r="6" class="c0"/>
<circle cx="652" cy="810" r="6" class="c0"/>
<circle cx="1752" cy="742" r="6" class="c0"/>
<circle cx="1398" cy="710" r="6" class="c0"/>
<circle cx="1600" cy="648" r="6" class="c0"/>
<circle cx="322" cy="888" r="6" class="c0"/>
<circle cx="1588" cy="740" r="6" class="c0"/>
<circle cx="84" cy="816" r="6" class="c0"/>
<circle cx="588" cy="896" r="6" class="c0"/>
<circle cx="1584" cy="768" r="6" class="c0"/>
<circle cx="500" cy="908" r="6" class="c0"/>
<circle cx="1796" cy="844" r="6" class="c0"/>
<circle cx="1878" cy="944" r="6" class="c0"/>
<circle cx="1330" cy="834" r="6" class="c0"/>
<circle cx="644" cy="724" r="6" class="c0"/>
<circle cx="1476" cy="696" r="6" class="c0"/>
<circle cx="1684" cy="810" r="6" class="c0"/>
<circle cx="1842" cy="774" r="6" class="c0"/>
<circle cx="526" cy="774" r="6" class="c0"/>
<circle cx="1838" cy="908" r="6" class="c0"/>
<circle cx="1668" cy="680" r="6" class="c0"/>
<circle cx="760" cy="822" r="6" class="c0"/>
<circle cx="992" cy="804" r="6" class="c0"/>
<circle cx="334" cy="798" r="6" class="c0"/>
<circle cx="932" cy="780" r="6" class="c0"/>
<circle cx="256" cy="744" r="6" class="c0"/>
<circle cx="476" cy="906" r="6" class="c0"/>
<circle cx="32" cy="786" r="6" class="c0"/>
<circle cx="1484" cy="768" r="6" class="c0"/>
<circle cx="1176" cy="816" r="6" class="c0"/>
<circle cx="518" cy="736" r="6" class="c0"/>
<circle cx="394" cy="890" r="6" class="c0"/>
<circle cx="1352" cy="952" r="6" class="c0"/>
<circle cx="1366" cy="870" r="6" class="c0"/>
<circle cx="1332" cy="708" r="6" class="c0"/>
<circle cx="268" cy="778" r="6" class="c0"/>
<circle cx="1824" cy="1034" r="6" class="c0"/>
<circle cx="1632" cy="850" r="6" class="c0"/>
<circle cx="1584" cy="892" r="6" class="c0"/>
<circle cx="564" cy="854" r="6" class="c0"/>
<circle cx="1908" cy="742" r="6" class="c0"/>
<circle cx="1652" cy="622" r="6" class="c0"/>
<circle cx="1894" cy="760" r="6" class="c0"/>
<circle cx="1824" cy="1114" r="6" class="c0"/>
<circle cx="516" cy="794" r="6" class="c0"/>
<circle cx="176" cy="844" r="6" class="c0"/>
<circle cx="1666" cy="790" r="6" class="c0"/>
<circle cx="1912" cy="686" r="6" class="c0"/>
<circle cx="706" cy="732" r="6" class="c0"/>
<circle cx="316" cy="734" r="6" class="c0"/>
<circle cx="1336" cy="914" r="6" class="c0"/>
<circle cx="1716" cy="636" r="6" class="c0"/>
<circle cx="788" cy="900" r="6" class="c0"/>
<circle cx="1582" cy="654" r="6" class="c0"/>
<circle cx="520" cy="912" r="6" class="c0"/>
<circle cx="1706" cy="598" r="6" class="c0"/>
<circle cx="852" cy="892" r="6" class="c0"/>
<circle cx="802" cy="922" r="6" class="c0"/>
<circle cx="1294" cy="878" r="6" class="c0"/>
<circle cx="980" cy="744" r="6" class="c0"/>
<circle cx="438" cy="866" r="6" class="c0"/>
<circle cx="982" cy="826" r="6" class="c0"/>
<circle cx="1238" cy="878" r="6" class="c0"/>
<circle cx="156" cy="752" r="6" class="c0"/>
<circle cx="1560" cy="690" r="6" class="c0"/>
<circle cx="1482" cy="840" r="6" class="c0"/>
<circle cx="762" cy="736" r="6" class="c0"/>
<circle cx="644" cy="818" r="6" class="c0"/>
<circle cx="1826" cy="1070" r="6" class="c0"/>
<circle cx="1064" cy="808" r="6" class="c0"/>
<circle cx="1596" cy="682" r="6" class="c0"/>
<circle cx="1666" cy="746" r="6" class="c0"/>
<circle cx="1254" cy="758" r="6" class="c0"/>
<circle cx="1350" cy="742" r="6" class="c0"/>
<circle cx="1728" cy="842" r="6" class="c0"/>
<circle cx="1856" cy="944" r="6" class="c0"/>
<circle cx="1148" cy="892" r="6" class="c0"/>
<circle cx="1410" cy="892" r="6" class="c0"/>
<circle cx="1888" cy="634" r="6" class="c0"/>
<circle cx="738" cy="870" r="6" class="c0"/>
<circle cx="744" cy="764" r="6" class="c0"/>
<circle cx="1402" cy="812" r="6" class="c0"/>
<circle cx="1318" cy="896" r="6" class="c0"/>
<circle cx="1304" cy="452" r="6" class="c0"/>
<circle cx="522" cy="714" r="6" class="c0"/>
<circle cx="1000" cy="796" r="6" class="c0"/>
<circle cx="1622" cy="654" r="6" class="c0"/>
<circle cx="428" cy="720" r="6" class="c0"/>
<circle cx="1912" cy="664" r="6" class="c0"/>
<circle cx="582" cy="822" r="6" class="c0"/>
<circle cx="896" cy="784" r="6" class="c0"/>
<circle cx="1814" cy="910" r="6" class="c0"/>
<circle cx="150" cy="816" r="6" class="c0"/>
<circle cx="1610" cy="896" r="6" class="c0"/>
<circle cx="1722" cy="714" r="6" class="c0"/>
<circle cx="1852" cy="702" r="6" class="c0"/>
<circle cx="172" cy="864" r="6" class="c0"/>
<circle cx="1658" cy="774" r="6" class="c0"/>
<circle cx="1028" cy="874" r="6" class="c0"/>
<circle cx="1786" cy="1074" r="6" class="c0"/>
<circle cx="734" cy="710" r="6" class="c0"/>
<circle cx="1772" cy="1118" r="6" class="c0"/>
<circle cx="1392" cy="690" r="6" class="c0"/>
<circle cx="458" cy="780" r="6" class="c0"/>
<circle cx="904" cy="886" r="6" class="c0"/>
<circle cx="1674" cy="798" r="6" class="c0"/>
<circle cx="430" cy="770" r="6" class="c0"/>
<circle cx="692" cy="710" r="6" class="c0"/>
<circle cx="1848" cy="996" r="6" class="c0"/>
<circle cx="1852" cy="896" r="6" class="c0"/>
<circle cx="576" cy="710" r="6" class="c0"/>
<circle cx="1048" cy="852" r="6" class="c0"/>
<circle cx="1068" cy="884" r="6" class="c0"/>
<circle cx="1646" cy="766" r="6" class="c0"/>
<circle cx="1770" cy="598" r="6" class="c0"/>
<circle cx="818" cy="870" r="6" class="c0"/>
<circle cx="1580" cy="1020" r="6" class="c0"/>
<circle cx="372" cy="768" r="6" class="c0"/>
<circle cx="940" cy="886" r="6" class="c0"/>
<circle cx="1852" cy="1020" r="6" class="c0"/>
<circle cx="1442" cy="732" r="6" class="c0"/>
<circle cx="1410" cy="784" r="6" class="c0"/>
<circle cx="566" cy="744" r="6" class="c0"/>
<circle cx="1536" cy="870" r="6" class="c0"/>
<circle cx="962" cy="860" r="6" class="c0"/>
<circle cx="424" cy="904" r="6" class="c0"/>
<circle cx="794" cy="810" r="6" class="c0"/>
<circle cx="498" cy="750" r="6" class="c0"/>
<circle cx="1890" cy="708" r="6" class="c0"/>
<circle cx="852" cy="720" r="6" class="c0"/>
<circle cx="1354" cy="830" r="6" class="c0"/>
<circle cx="1626" cy="780" r="6" class="c0"/>
<circle cx="1760" cy="1138" r="6" class="c0"/>
<circle cx="1838" cy="960" r="6" class="c0"/>
<circle cx="988" cy="838" r="6" class="c0"/>
<circle cx="50" cy="832" r="6" class="c0"/>
<circle cx="1264" cy="728" r="6" class="c0"/>
<circle cx="372" cy="744" r="6" class="c0"/>
<circle cx="634" cy="848" r="6" class="c0"/>
<circle cx="446" cy="874" r="6" class="c0"/>
<circle cx="452" cy="888" r="6" class="c0"/>
<circle cx="1304" cy="818" r="6" class="c0"/>
<circle cx="1880" cy="608" r="6" class="c0"/>
<circle cx="1682" cy="754" r="6" class="c0"/>
<circle cx="1470" cy="734" r="6" class="c0"/>
<circle cx="686" cy="846" r="6" class="c0"/>
<circle cx="1180" cy="860" r="6" class="c0"/>
<circle cx="392" cy="724" r="6" class="c0"/>
<circle cx="1136" cy="784" r="6" class="c0"/>
<circle cx="430" cy="808" r="6" class="c0"/>
<circle cx="588" cy="920" r="6" class="c0"/>
<circle cx="1280" cy="928" r="6" class="c0"/>
<circle cx="1362" cy="714" r="6" class="c0"/>
<circle cx="586" cy="772" r="6" class="c0"/>
<circle cx="1572" cy="828" r="6" class="c0"/>
</svg>
