<?xml version="1.0" encoding="utf-8"?>
<svg xmlns="http://www.w3.org/2000/svg"
     xmlns:xlink="http://www.w3.org/1999/xlink" width="1920" height="1440" >

            <defs>
            <style type="text/css"><![CDATA[
circle {stroke: none;}
.c0 {fill: #FFFFFF;}
]]></style>
            </defs>
<rect x="0" y="0" width="1920" height="1440" fill="black"/>
<circle cx="574" cy="868" r="14" class="c0"/>
<circle cx="902" cy="720" r="14" class="c0"/>
<circle cx="456" cy="870" r="12" class="c0"/>
<circle cx="816" cy="872" r="12" class="c0"/>
<circle cx="1672" cy="962" r="12" class="c0"/>
<circle cx="1034" cy="754" r="12" class="c0"/>
<circle cx="612" cy="894" r="12" class="c0"/>
<circle cx="276" cy="854" r="12" class="c0"/>
<circle cx="1244" cy="766" r="12" class="c0"/>
<circle cx="1882" cy="670" r="12" class="c0"/>
<circle cx="1260" cy="838" r="12" class="c0"/>
<circle cx="476" cy="900" r="12" class="c0"/>
<circle cx="1390" cy="908" r="12" class="c0"/>
<circle cx="210" cy="834" r="12" class="c0"/>
<circle cx="1020" cy="872" r="12" class="c0"/>
<circle cx="1492" cy="890" r="12" class="c0"/>
<circle cx="1016" cy="924" r="12" class="c0"/>
<circle cx="438" cy="796" r="12" class="c0"/>
<circle cx="1808" cy="784" r="12" class="c0"/>
<circle cx="1202" cy="786" r="12" class="c0"/>
<circle cx="534" cy="906" r="12" class="c0"/>
<circle cx="746" cy="714" r="12" class="c0"/>
<circle cx="608" cy="762" r="12" class="c0"/>
<circle cx="694" cy="782" r="12" class="c0"/>
<circle cx="366" cy="840" r="12" class="c0"/>
<circle cx="1700" cy="756" r="12" class="c0"/>
<circle cx="806" cy="894" r="12" class="c0"/>
<circle cx="914" cy="780" r="12" class="c0"/>
<circle cx="1574" cy="880" r="12" class="c0"/>
<circle cx="1776" cy="828" r="12" class="c0"/>
<circle cx="864" cy="876" r="12" class="c0"/>
<circle cx="792" cy="756" r="12" class="c0"/>
<circle cx="728" cy="860" r="12" class="c0"/>
<circle cx="1544" cy="864" r="12" class="c0"/>
<circle cx="232" cy="804" r="12" class="c0"/>
<circle cx="1124" cy="886" r="12" class="c0"/>
<circle cx="1172" cy="830" r="12" class="c0"/>
<circle cx="1194" cy="752" r="12" class="c0"/>
<circle cx="1816" cy="850" r="12" class="c0"/>
<circle cx="1158" cy="846" r="12" class="c0"/>
<circle cx="1434" cy="844" r="12" class="c0"/>
<circle cx="946" cy="728" r="12" class="c0"/>
<circle cx="1656" cy="870" r="12" class="c0"/>
<circle cx="974" cy="932" r="12" class="c0"/>
<circle cx="1642" cy="728" r="12" class="c0"/>
<circle cx="866" cy="820" r="12" class="c0"/>
<circle cx="1834" cy="668" r="12" class="c0"/>
<circle cx="262" cy="816" r="12" class="c0"/>
<circle cx="486" cy="772" r="12" class="c0"/>
<circle cx="172" cy="774" r="12" class="c0"/>
<circle cx="336" cy="770" r="12" class="c0"/>
<circle cx="1086" cy="724" r="12" class="c0"/>
<circle cx="1814" cy="700" r="12" class="c0"/>
<circle cx="424" cy="760" r="12" class="c0"/>
<circle cx="728" cy="802" r="12" class="c0"/>
<circle cx="1042" cy="786" r="12" class="c0"/>
<circle cx="1146" cy="874" r="12" class="c0"/>
<circle cx="1102" cy="754" r="12" class="c0"/>
<circle cx="1780" cy="862" r="12" class="c0"/>
<circle cx="1820" cy="756" r="12" class="c0"/>
<circle cx="154" cy="828" r="12" class="c0"/>
<circle cx="774" cy="716" r="12" class="c0"/>
<circle cx="844" cy="854" r="12" class="c0"/>
<circle cx="924" cy="888" r="10" class="c0"/>
<circle cx="1074" cy="792" r="10" class="c0"/>
<circle cx="1706" cy="828" r="10" class="c0"/>
<circle cx="1500" cy="808" r="10" class="c0"/>
<circle cx="250" cy="784" r="10" class="c0"/>
<circle cx="416" cy="892" r="10" class="c0"/>
<circle cx="472" cy="812" r="10" class="c0"/>
<circle cx="1670" cy="826" r="10" class="c0"/>
<circle cx="1640" cy="846" r="10" class="c0"/>
<circle cx="1138" cy="830" r="10" class="c0"/>
<circle cx="1542" cy="758" r="10" class="c0"/>
<circle cx="1214" cy="868" r="10" class="c0"/>
<circle cx="212" cy="780" r="10" class="c0"/>
<circle cx="528" cy="804" r="10" class="c0"/>
<circle cx="1014" cy="830" r="10" class="c0"/>
<circle cx="1908" cy="690" r="10" class="c0"/>
<circle cx="1898" cy="824" r="10" class="c0"/>
<circle cx="946" cy="802" r="10" class="c0"/>
<circle cx="1708" cy="784" r="10" class="c0"/>
<circle cx="1732" cy="832" r="10" class="c0"/>
<circle cx="1388" cy="870" r="10" class="c0"/>
<circle cx="1574" cy="816" r="10" class="c0"/>
<circle cx="1652" cy="752" r="10" class="c0"/>
<circle cx="536" cy="778" r="10" class="c0"/>
<circle cx="1180" cy="914" r="10" class="c0"/>
<circle cx="334" cy="850" r="10" class="c0"/>
<circle cx="890" cy="890" r="10" class="c0"/>
<circle cx="972" cy="880" r="10" class="c0"/>
<circle cx="1258" cy="800" r="10" class="c0"/>
<circle cx="1722" cy="906" r="10" class="c0"/>
<circle cx="1136" cy="930" r="10" class="c0"/>
<circle cx="774" cy="814" r="10" class="c0"/>
<circle cx="286" cy="882" r="10" class="c0"/>
<circle cx="1204" cy="906" r="10" class="c0"/>
<circle cx="760" cy="908" r="10" class="c0"/>
<circle cx="1890" cy="792" r="10" class="c0"/>
<circle cx="1120" cy="850" r="10" class="c0"/>
<circle cx="968" cy="858" r="10" class="c0"/>
<circle cx="1336" cy="788" r="10" class="c0"/>
<circle cx="926" cy="930" r="10" class="c0"/>
<circle cx="1634" cy="702" r="10" class="c0"/>
<circle cx="648" cy="896" r="10" class="c0"/>
<circle cx="634" cy="776" r="10" class="c0"/>
<circle cx="1304" cy="888" r="10" class="c0"/>
<circle cx="1602" cy="762" r="10" class="c0"/>
<circle cx="182" cy="862" r="10" class="c0"/>
<circle cx="1548" cy="822" r="10" class="c0"/>
<circle cx="1624" cy="790" r="10" class="c0"/>
<circle cx="870" cy="784" r="10" class="c0"/>
<circle cx="414" cy="918" r="10" class="c0"/>
<circle cx="984" cy="746" r="10" class="c0"/>
<circle cx="408" cy="774" r="10" class="c0"/>
<circle cx="1124" cy="814" r="10" class="c0"/>
<circle cx="1594" cy="824" r="10" class="c0"/>
<circle cx="1674" cy="704" r="10" class="c0"/>
<circle cx="684" cy="846" r="10" class="c0"/>
<circle cx="1778" cy="750" r="10" class="c0"/>
<circle cx="58" cy="812" r="10" class="c0"/>
<circle cx="524" cy="836" r="10" class="c0"/>
<circle cx="444" cy="828" r="10" class="c0"/>
<circle cx="708" cy="926" r="10" class="c0"/>
<circle cx="46" cy="840" r="10" class="c0"/>
<circle cx="1548" cy="734" r="10" class="c0"/>
<circle cx="756" cy="760" r="10" class="c0"/>
<circle cx="1284" cy="878" r="10" class="c0"/>
<circle cx="660" cy="732" r="10" class="c0"/>
<circle cx="1460" cy="848" r="10" class="c0"/>
<circle cx="316" cy="800" r="10" class="c0"/>
<circle cx="130" cy="792" r="10" class="c0"/>
<circle cx="1682" cy="896" r="10" class="c0"/>
<circle cx="892" cy="954" r="10" class="c0"/>
<circle cx="1058" cy="746" r="10" class="c0"/>
<circle cx="1554" cy="784" r="10" class="c0"/>
<circle cx="1544" cy="912" r="10" class="c0"/>
<circle cx="1580" cy="934" r="10" class="c0"/>
<circle cx="1698" cy="852" r="10" class="c0"/>
<circle cx="1222" cy="838" r="10" class="c0"/>
<circle cx="292" cy="756" r="10" class="c0"/>
<circle cx="1138" cy="778" r="10" class="c0"/>
<circle cx="242" cy="872" r="10" class="c0"/>
<circle cx="1636" cy="896" r="10" class="c0"/>
<circle cx="154" cy="866" r="10" class="c0"/>
<circle cx="1848" cy="842" r="10" class="c0"/>
<circle cx="580" cy="782" r="10" class="c0"/>
<circle cx="538" cy="934" r="10" class="c0"/>
<circle cx="1228" cy="752" r="10" class="c0"/>
<circle cx="1848" cy="868" r="10" class="c0"/>
<circle cx="1522" cy="770" r="10" class="c0"/>
<circle cx="1902" cy="748" r="10" class="c0"/>
<circle cx="30" cy="790" r="10" class="c0"/>
<circle cx="1598" cy="714" r="10" class="c0"/>
<circle cx="778" cy="930" r="10" class="c0"/>
<circle cx="1532" cy="886" r="10" class="c0"/>
<circle cx="1884" cy="644" r="10" class="c0"/>
<circle cx="356" cy="790" r="10" class="c0"/>
<circle cx="1308" cy="910" r="10" class="c0"/>
<circle cx="824" cy="836" r="10" class="c0"/>
<circle cx="12" cy="820" r="10" class="c0"/>
<circle cx="982" cy="822" r="10" class="c0"/>
<circle cx="134" cy="854" r="10" class="c0"/>
<circle cx="708" cy="884" r="10" class="c0"/>
<circle cx="384" cy="884" r="10" class="c0"/>
<circle cx="466" cy="842" r="10" class="c0"/>
<circle cx="312" cy="892" r="10" class="c0"/>
<circle cx="1872" cy="854" r="10" class="c0"/>
<circle cx="1640" cy="926" r="10" class="c0"/>
<circle cx="1092" cy="810" r="10" class="c0"/>
<circle cx="1222" cy="804" r="10" class="c0"/>
<circle cx="1098" cy="880" r="10" class="c0"/>
<circle cx="814" cy="796" r="10" class="c0"/>
<circle cx="716" cy="762" r="10" class="c0"/>
<circle cx="1090" cy="916" r="10" class="c0"/>
<circle cx="638" cy="844" r="10" class="c0"/>
<circle cx="510" cy="750" r="10" class="c0"/>
<circle cx="1158" cy="742" r="10" class="c0"/>
<circle cx="1330" cy="852" r="10" class="c0"/>
<circle cx="1026" cy="902" r="10" class="c0"/>
<circle cx="574" cy="834" r="10" class="c0"/>
<circle cx="790" cy="826" r="10" class="c0"/>
<circle cx="342" cy="814" r="10" class="c0"/>
<circle cx="502" cy="922" r="10" class="c0"/>
<circle cx="1604" cy="948" r="10" class="c0"/>
<circle cx="1480" cy="762" r="10" class="c0"/>
<circle cx="542" cy="866" r="10" class="c0"/>
<circle cx="858" cy="734" r="10" class="c0"/>
<circle cx="490" cy="838" r="10" class="c0"/>
<circle cx="766" cy="858" r="10" class="c0"/>
<circle cx="1462" cy="818" r="10" class="c0"/>
<circle cx="634" cy="870" r="10" class="c0"/>
<circle cx="1422" cy="760" r="10" class="c0"/>
<circle cx="1496" cy="836" r="10" class="c0"/>
<circle cx="1724" cy="772" r="10" class="c0"/>
<circle cx="688" cy="748" r="10" class="c0"/>
<circle cx="1452" cy="798" r="10" class="c0"/>
<circle cx="746" cy="872" r="10" class="c0"/>
<circle cx="932" cy="760" r="10" class="c0"/>
<circle cx="1524" cy="806" r="10" class="c0"/>
<circle cx="1876" cy="754" r="10" class="c0"/>
<circle cx="1886" cy="720" r="10" class="c0"/>
<circle cx="840" cy="938" r="10" class="c0"/>
<circle cx="684" cy="816" r="10" class="c0"/>
<circle cx="1366" cy="830" r="10" class="c0"/>
<circle cx="1590" cy="910" r="10" class="c0"/>
<circle cx="380" cy="756" r="10" class="c0"/>
<circle cx="1810" cy="732" r="10" class="c0"/>
<circle cx="206" cy="868" r="10" class="c0"/>
<circle cx="266" cy="770" r="10" class="c0"/>
<circle cx="1460" cy="920" r="10" class="c0"/>
<circle cx="648" cy="806" r="10" class="c0"/>
<circle cx="602" cy="788" r="10" class="c0"/>
<circle cx="672" cy="942" r="10" class="c0"/>
<circle cx="942" cy="848" r="10" class="c0"/>
<circle cx="1658" cy="944" r="10" class="c0"/>
<circle cx="1058" cy="862" r="10" class="c0"/>
<circle cx="1504" cy="756" r="10" class="c0"/>
<circle cx="1584" cy="776" r="10" class="c0"/>
<circle cx="24" cy="848" r="10" class="c0"/>
<circle cx="862" cy="920" r="10" class="c0"/>
<circle cx="1374" cy="796" r="10" class="c0"/>
<circle cx="378" cy="908" r="10" class="c0"/>
<circle cx="830" cy="762" r="10" class="c0"/>
<circle cx="480" cy="742" r="10" class="c0"/>
<circle cx="1356" cy="780" r="10" class="c0"/>
<circle cx="1352" cy="814" r="10" class="c0"/>
<circle cx="1816" cy="822" r="10" class="c0"/>
<circle cx="1628" cy="824" r="10" class="c0"/>
<circle cx="1832" cy="738" r="10" class="c0"/>
<circle cx="1048" cy="894" r="10" class="c0"/>
<circle cx="1446" cy="756" r="10" class="c0"/>
<circle cx="666" cy="856" r="10" class="c0"/>
<circle cx="1052" cy="924" r="10" class="c0"/>
<circle cx="398" cy="820" r="10" class="c0"/>
<circle cx="60" cy="862" r="10" class="c0"/>
<circle cx="1654" cy="794" r="10" class="c0"/>
<circle cx="980" cy="794" r="10" class="c0"/>
<circle cx="1506" cy="864" r="10" class="c0"/>
<circle cx="1750" cy="900" r="10" class="c0"/>
<circle cx="1358" cy="900" r="10" class="c0"/>
<circle cx="890" cy="750" r="10" class="c0"/>
<circle cx="1166" cy="934" r="8" class="c0"/>
<circle cx="1748" cy="854" r="8" class="c0"/>
<circle cx="370" cy="772" r="8" class="c0"/>
<circle cx="626" cy="822" r="8" class="c0"/>
<circle cx="482" cy="928" r="8" class="c0"/>
<circle cx="456" cy="738" r="8" class="c0"/>
<circle cx="1056" cy="834" r="8" class="c0"/>
<circle cx="794" cy="920" r="8" class="c0"/>
<circle cx="514" cy="880" r="8" class="c0"/>
<circle cx="1372" cy="858" r="8" class="c0"/>
<circle cx="726" cy="900" r="8" class="c0"/>
<circle cx="186" cy="802" r="8" class="c0"/>
<circle cx="82" cy="796" r="8" class="c0"/>
<circle cx="620" cy="740" r="8" class="c0"/>
<circle cx="1032" cy="714" r="8" class="c0"/>
<circle cx="924" cy="862" r="8" class="c0"/>
<circle cx="1196" cy="878" r="8" class="c0"/>
<circle cx="682" cy="912" r="8" class="c0"/>
<circle cx="956" cy="756" r="8" class="c0"/>
<circle cx="950" cy="780" r="8" class="c0"/>
<circle cx="574" cy="902" r="8" class="c0"/>
<circle cx="504" cy="892" r="8" class="c0"/>
<circle cx="738" cy="832" r="8" class="c0"/>
<circle cx="1036" cy="948" r="8" class="c0"/>
<circle cx="866" cy="940" r="8" class="c0"/>
<circle cx="284" cy="784" r="8" class="c0"/>
<circle cx="1408" cy="812" r="8" class="c0"/>
<circle cx="310" cy="842" r="8" class="c0"/>
<circle cx="1844" cy="808" r="8" class="c0"/>
<circle cx="1524" cy="742" r="8" class="c0"/>
<circle cx="1292" cy="804" r="8" class="c0"/>
<circle cx="544" cy="754" r="8" class="c0"/>
<circle cx="568" cy="722" r="8" class="c0"/>
<circle cx="806" cy="720" r="8" class="c0"/>
<circle cx="1886" cy="770" r="8" class="c0"/>
<circle cx="1002" cy="846" r="8" class="c0"/>
<circle cx="1568" cy="752" r="8" class="c0"/>
<circle cx="1834" cy="778" r="8" class="c0"/>
<circle cx="368" cy="862" r="8" class="c0"/>
<circle cx="1262" cy="888" r="8" class="c0"/>
<circle cx="1620" cy="958" r="8" class="c0"/>
<circle cx="462" cy="782" r="8" class="c0"/>
<circle cx="1554" cy="940" r="8" class="c0"/>
<circle cx="982" cy="958" r="8" class="c0"/>
<circle cx="666" cy="782" r="8" class="c0"/>
<circle cx="578" cy="744" r="8" class="c0"/>
<circle cx="1420" cy="902" r="8" class="c0"/>
<circle cx="838" cy="882" r="8" class="c0"/>
<circle cx="1060" cy="726" r="8" class="c0"/>
<circle cx="1356" cy="880" r="8" class="c0"/>
<circle cx="1564" cy="906" r="8" class="c0"/>
<circle cx="1168" cy="886" r="8" class="c0"/>
<circle cx="1256" cy="866" r="8" class="c0"/>
<circle cx="1422" cy="880" r="8" class="c0"/>
<circle cx="1314" cy="784" r="8" class="c0"/>
<circle cx="656" cy="830" r="8" class="c0"/>
<circle cx="930" cy="908" r="8" class="c0"/>
<circle cx="542" cy="828" r="8" class="c0"/>
<circle cx="1720" cy="748" r="8" class="c0"/>
<circle cx="774" cy="888" r="8" class="c0"/>
<circle cx="378" cy="822" r="8" class="c0"/>
<circle cx="260" cy="840" r="8" class="c0"/>
<circle cx="554" cy="786" r="8" class="c0"/>
<circle cx="1524" cy="856" r="8" class="c0"/>
<circle cx="996" cy="762" r="8" class="c0"/>
<circle cx="1688" cy="916" r="8" class="c0"/>
<circle cx="904" cy="930" r="8" class="c0"/>
<circle cx="552" cy="884" r="8" class="c0"/>
<circle cx="1862" cy="814" r="8" class="c0"/>
<circle cx="510" cy="850" r="8" class="c0"/>
<circle cx="582" cy="810" r="8" class="c0"/>
<circle cx="610" cy="730" r="8" class="c0"/>
<circle cx="1092" cy="846" r="8" class="c0"/>
<circle cx="1784" cy="722" r="8" class="c0"/>
<circle cx="1436" cy="822" r="8" class="c0"/>
<circle cx="206" cy="812" r="8" class="c0"/>
<circle cx="736" cy="768" r="8" class="c0"/>
<circle cx="1150" cy="764" r="8" class="c0"/>
<circle cx="764" cy="734" r="8" class="c0"/>
<circle cx="994" cy="728" r="8" class="c0"/>
<circle cx="1354" cy="852" r="8" class="c0"/>
<circle cx="1628" cy="756" r="8" class="c0"/>
<circle cx="730" cy="952" r="8" class="c0"/>
<circle cx="680" cy="880" r="8" class="c0"/>
<circle cx="1662" cy="904" r="8" class="c0"/>
<circle cx="848" cy="894" r="8" class="c0"/>
<circle cx="830" cy="722" r="8" class="c0"/>
<circle cx="1698" cy="802" r="8" class="c0"/>
<circle cx="766" cy="832" r="8" class="c0"/>
<circle cx="892" cy="862" r="8" class="c0"/>
<circle cx="784" cy="786" r="8" class="c0"/>
<circle cx="884" cy="832" r="8" class="c0"/>
<circle cx="592" cy="826" r="8" class="c0"/>
<circle cx="350" cy="894" r="8" class="c0"/>
<circle cx="418" cy="872" r="8" class="c0"/>
<circle cx="580" cy="920" r="8" class="c0"/>
<circle cx="1380" cy="888" r="8" class="c0"/>
<circle cx="918" cy="744" r="8" class="c0"/>
<circle cx="1332" cy="884" r="8" class="c0"/>
<circle cx="516" cy="934" r="8" class="c0"/>
<circle cx="1520" cy="904" r="8" class="c0"/>
<circle cx="1864" cy="790" r="8" class="c0"/>
<circle cx="728" cy="736" r="8" class="c0"/>
<circle cx="1910" cy="722" r="8" class="c0"/>
<circle cx="1476" cy="786" r="8" class="c0"/>
<circle cx="1084" cy="942" r="8" class="c0"/>
<circle cx="1190" cy="818" r="8" class="c0"/>
<circle cx="950" cy="942" r="8" class="c0"/>
<circle cx="454" cy="758" r="8" class="c0"/>
<circle cx="1684" cy="736" r="8" class="c0"/>
<circle cx="292" cy="824" r="8" class="c0"/>
<circle cx="1298" cy="842" r="8" class="c0"/>
<circle cx="962" cy="716" r="8" class="c0"/>
<circle cx="888" cy="910" r="8" class="c0"/>
<circle cx="116" cy="820" r="8" class="c0"/>
<circle cx="1036" cy="858" r="8" class="c0"/>
<circle cx="1838" cy="704" r="8" class="c0"/>
<circle cx="914" cy="832" r="8" class="c0"/>
<circle cx="628" cy="930" r="8" class="c0"/>
<circle cx="1696" cy="882" r="8" class="c0"/>
<circle cx="616" cy="852" r="8" class="c0"/>
<circle cx="630" cy="906" r="8" class="c0"/>
<circle cx="1504" cy="930" r="8" class="c0"/>
<circle cx="1018" cy="730" r="8" class="c0"/>
<circle cx="1622" cy="868" r="8" class="c0"/>
<circle cx="912" cy="950" r="8" class="c0"/>
<circle cx="170" cy="884" r="8" class="c0"/>
<circle cx="1530" cy="838" r="8" class="c0"/>
<circle cx="1714" cy="870" r="8" class="c0"/>
<circle cx="1280" cy="788" r="8" class="c0"/>
<circle cx="1240" cy="814" r="8" class="c0"/>
<circle cx="1684" cy="788" r="8" class="c0"/>
<circle cx="1748" cy="814" r="8" class="c0"/>
<circle cx="918" cy="806" r="8" class="c0"/>
<circle cx="1144" cy="800" r="8" class="c0"/>
<circle cx="1228" cy="784" r="8" class="c0"/>
<circle cx="1426" cy="792" r="8" class="c0"/>
<circle cx="1476" cy="806" r="8" class="c0"/>
<circle cx="710" cy="832" r="8" class="c0"/>
<circle cx="102" cy="854" r="8" class="c0"/>
<circle cx="1722" cy="972" r="8" class="c0"/>
<circle cx="870" cy="854" r="8" class="c0"/>
<circle cx="94" cy="824" r="8" class="c0"/>
<circle cx="1868" cy="698" r="8" class="c0"/>
<circle cx="1908" cy="870" r="8" class="c0"/>
<circle cx="872" cy="958" r="8" class="c0"/>
<circle cx="988" cy="862" r="8" class="c0"/>
<circle cx="1328" cy="766" r="8" class="c0"/>
<circle cx="1106" cy="776" r="8" class="c0"/>
<circle cx="752" cy="790" r="8" class="c0"/>
<circle cx="382" cy="786" r="8" class="c0"/>
<circle cx="1108" cy="900" r="8" class="c0"/>
<circle cx="1266" cy="778" r="8" class="c0"/>
<circle cx="296" cy="806" r="8" class="c0"/>
<circle cx="1400" cy="770" r="8" class="c0"/>
<circle cx="400" cy="844" r="8" class="c0"/>
<circle cx="1308" cy="830" r="8" class="c0"/>
<circle cx="438" cy="884" r="8" class="c0"/>
<circle cx="1108" cy="722" r="8" class="c0"/>
<circle cx="646" cy="944" r="8" class="c0"/>
<circle cx="1728" cy="718" r="8" class="c0"/>
<circle cx="802" cy="850" r="8" class="c0"/>
<circle cx="56" cy="792" r="8" class="c0"/>
<circle cx="164" cy="850" r="8" class="c0"/>
<circle cx="1804" cy="806" r="8" class="c0"/>
<circle cx="1644" cy="814" r="8" class="c0"/>
<circle cx="1224" cy="894" r="8" class="c0"/>
<circle cx="1278" cy="850" r="8" class="c0"/>
<circle cx="1496" cy="786" r="8" class="c0"/>
<circle cx="1236" cy="850" r="8" class="c0"/>
<circle cx="1738" cy="804" r="8" class="c0"/>
<circle cx="1014" cy="956" r="8" class="c0"/>
<circle cx="758" cy="928" r="8" class="c0"/>
<circle cx="1610" cy="884" r="8" class="c0"/>
<circle cx="492" cy="880" r="8" class="c0"/>
<circle cx="352" cy="744" r="8" class="c0"/>
<circle cx="1262" cy="914" r="8" class="c0"/>
<circle cx="210" cy="888" r="8" class="c0"/>
<circle cx="1584" cy="956" r="8" class="c0"/>
<circle cx="1668" cy="766" r="8" class="c0"/>
<circle cx="524" cy="736" r="8" class="c0"/>
<circle cx="596" cy="878" r="8" class="c0"/>
<circle cx="1086" cy="892" r="8" class="c0"/>
<circle cx="566" cy="758" r="8" class="c0"/>
<circle cx="238" cy="848" r="8" class="c0"/>
<circle cx="988" cy="896" r="8" class="c0"/>
<circle cx="906" cy="874" r="8" class="c0"/>
<circle cx="406" cy="746" r="8" class="c0"/>
<circle cx="1710" cy="678" r="8" class="c0"/>
<circle cx="506" cy="794" r="8" class="c0"/>
<circle cx="1476" cy="872" r="8" class="c0"/>
<circle cx="1004" cy="940" r="8" class="c0"/>
<circle cx="1150" cy="900" r="8" class="c0"/>
<circle cx="834" cy="914" r="8" class="c0"/>
<circle cx="1616" cy="732" r="8" class="c0"/>
<circle cx="700" cy="724" r="8" class="c0"/>
<circle cx="812" cy="822" r="8" class="c0"/>
<circle cx="1014" cy="792" r="8" class="c0"/>
<circle cx="854" cy="772" r="8" class="c0"/>
<circle cx="1270" cy="818" r="8" class="c0"/>
<circle cx="952" cy="868" r="8" class="c0"/>
<circle cx="1732" cy="864" r="8" class="c0"/>
<circle cx="1386" cy="832" r="8" class="c0"/>
<circle cx="442" cy="774" r="8" class="c0"/>
<circle cx="1458" cy="770" r="8" class="c0"/>
<circle cx="874" cy="712" r="8" class="c0"/>
<circle cx="524" cy="762" r="8" class="c0"/>
<circle cx="308" cy="768" r="8" class="c0"/>
<circle cx="1416" cy="856" r="8" class="c0"/>
<circle cx="1104" cy="928" r="8" class="c0"/>
<circle cx="1118" cy="794" r="8" class="c0"/>
<circle cx="1600" cy="866" r="8" class="c0"/>
<circle cx="852" cy="802" r="8" class="c0"/>
<circle cx="86" cy="864" r="8" class="c0"/>
<circle cx="1690" cy="950" r="8" class="c0"/>
<circle cx="448" cy="850" r="8" class="c0"/>
<circle cx="1852" cy="732" r="8" class="c0"/>
<circle cx="1682" cy="868" r="8" class="c0"/>
<circle cx="1788" cy="690" r="8" class="c0"/>
<circle cx="342" cy="910" r="8" class="c0"/>
<circle cx="1842" cy="754" r="8" class="c0"/>
<circle cx="1890" cy="698" r="8" class="c0"/>
<circle cx="412" cy="808" r="8" class="c0"/>
<circle cx="1768" cy="734" r="8" class="c0"/>
<circle cx="810" cy="954" r="8" class="c0"/>
<circle cx="1732" cy="960" r="8" class="c0"/>
<circle cx="1868" cy="876" r="8" class="c0"/>
<circle cx="1312" cy="870" r="8" class="c0"/>
<circle cx="1630" cy="942" r="8" class="c0"/>
<circle cx="970" cy="772" r="8" class="c0"/>
<circle cx="754" cy="846" r="8" class="c0"/>
<circle cx="558" cy="920" r="8" class="c0"/>
<circle cx="948" cy="900" r="8" class="c0"/>
<circle cx="1064" cy="908" r="8" class="c0"/>
<circle cx="1030" cy="804" r="8" class="c0"/>
<circle cx="842" cy="746" r="8" class="c0"/>
<circle cx="1342" cy="838" r="8" class="c0"/>
<circle cx="110" cy="784" r="8" class="c0"/>
<circle cx="890" cy="814" r="8" class="c0"/>
<circle cx="442" cy="904" r="8" class="c0"/>
<circle cx="1570" cy="726" r="8" class="c0"/>
<circle cx="1016" cy="774" r="8" class="c0"/>
<circle cx="1154" cy="812" r="8" class="c0"/>
<circle cx="622" cy="800" r="8" class="c0"/>
<circle cx="1894" cy="844" r="8" class="c0"/>
<circle cx="334" cy="878" r="8" class="c0"/>
<circle cx="1572" cy="794" r="8" class="c0"/>
<circle cx="396" cy="862" r="8" class="c0"/>
<circle cx="1888" cy="882" r="8" class="c0"/>
<circle cx="1070" cy="762" r="8" class="c0"/>
<circle cx="1192" cy="846" r="8" class="c0"/>
<circle cx="1050" cy="810" r="8" class="c0"/>
<circle cx="1484" cy="918" r="8" class="c0"/>
<circle cx="654" cy="918" r="8" class="c0"/>
<circle cx="1432" cy="892" r="8" class="c0"/>
<circle cx="1864" cy="716" r="8" class="c0"/>
<circle cx="1556" cy="890" r="8" class="c0"/>
<circle cx="116" cy="866" r="8" class="c0"/>
<circle cx="780" cy="950" r="8" class="c0"/>
<circle cx="1192" cy="928" r="8" class="c0"/>
<circle cx="1176" cy="764" r="8" class="c0"/>
<circle cx="1610" cy="916" r="8" class="c0"/>
<circle cx="1074" cy="932" r="8" class="c0"/>
<circle cx="1298" cy="768" r="8" class="c0"/>
<circle cx="644" cy="756" r="8" class="c0"/>
<circle cx="322" cy="830" r="8" class="c0"/>
<circle cx="676" cy="722" r="8" class="c0"/>
<circle cx="1172" cy="788" r="8" class="c0"/>
<circle cx="696" cy="858" r="8" class="c0"/>
<circle cx="420" cy="832" r="8" class="c0"/>
<circle cx="1768" cy="766" r="8" class="c0"/>
<circle cx="354" cy="876" r="8" class="c0"/>
<circle cx="1344" cy="866" r="8" class="c0"/>
<circle cx="606" cy="836" r="8" class="c0"/>
<circle cx="452" cy="914" r="8" class="c0"/>
<circle cx="1214" cy="766" r="8" class="c0"/>
<circle cx="1372" cy="770" r="8" class="c0"/>
<circle cx="758" cy="948" r="8" class="c0"/>
<circle cx="276" cy="800" r="8" class="c0"/>
<circle cx="1858" cy="772" r="8" class="c0"/>
<circle cx="700" cy="952" r="8" class="c0"/>
<circle cx="1836" cy="826" r="8" class="c0"/>
<circle cx="236" cy="894" r="8" class="c0"/>
<circle cx="928" cy="816" r="8" class="c0"/>
<circle cx="608" cy="816" r="8" class="c0"/>
<circle cx="1674" cy="848" r="8" class="c0"/>
<circle cx="1596" cy="734" r="8" class="c0"/>
<circle cx="1056" cy="946" r="8" class="c0"/>
<circle cx="104" cy="834" r="8" class="c0"/>
<circle cx="164" cy="810" r="8" class="c0"/>
<circle cx="1062" cy="882" r="8" class="c0"/>
<circle cx="1404" cy="834" r="8" class="c0"/>
<circle cx="966" cy="902" r="8" class="c0"/>
<circle cx="696" cy="902" r="8" class="c0"/>
<circle cx="814" cy="740" r="8" class="c0"/>
<circle cx="1706" cy="894" r="8" class="c0"/>
<circle cx="1116" cy="942" r="8" class="c0"/>
<circle cx="830" cy="954" r="8" class="c0"/>
<circle cx="1700" cy="718" r="8" class="c0"/>
<circle cx="784" cy="876" r="8" class="c0"/>
<circle cx="1576" cy="854" r="8" class="c0"/>
<circle cx="494" cy="816" r="8" class="c0"/>
<circle cx="830" cy="808" r="8" class="c0"/>
<circle cx="1702" cy="962" r="8" class="c0"/>
<circle cx="308" cy="860" r="8" class="c0"/>
<circle cx="734" cy="916" r="8" class="c0"/>
<circle cx="1542" cy="798" r="8" class="c0"/>
<circle cx="598" cy="854" r="8" class="c0"/>
<circle cx="816" cy="930" r="8" class="c0"/>
<circle cx="610" cy="934" r="8" class="c0"/>
<circle cx="1442" cy="782" r="8" class="c0"/>
<circle cx="746" cy="742" r="8" class="c0"/>
<circle cx="1604" cy="804" r="8" class="c0"/>
<circle cx="1530" cy="942" r="8" class="c0"/>
<circle cx="1642" cy="976" r="8" class="c0"/>
<circle cx="1748" cy="754" r="8" class="c0"/>
<circle cx="184" cy="828" r="8" class="c0"/>
<circle cx="1710" cy="918" r="8" class="c0"/>
<circle cx="570" cy="798" r="8" class="c0"/>
<circle cx="980" cy="718" r="8" class="c0"/>
<circle cx="1742" cy="974" r="8" class="c0"/>
<circle cx="260" cy="888" r="8" class="c0"/>
<circle cx="1322" cy="812" r="8" class="c0"/>
<circle cx="686" cy="712" r="8" class="c0"/>
<circle cx="900" cy="802" r="8" class="c0"/>
<circle cx="962" cy="838" r="8" class="c0"/>
<circle cx="142" cy="810" r="8" class="c0"/>
<circle cx="1910" cy="656" r="8" class="c0"/>
<circle cx="998" cy="906" r="8" class="c0"/>
<circle cx="830" cy="784" r="8" class="c0"/>
<circle cx="994" cy="806" r="8" class="c0"/>
<circle cx="98" cy="804" r="8" class="c0"/>
<circle cx="980" cy="846" r="8" class="c0"/>
<circle cx="436" cy="922" r="8" class="c0"/>
<circle cx="1244" cy="922" r="8" class="c0"/>
<circle cx="1458" cy="900" r="8" class="c0"/>
<circle cx="232" cy="762" r="8" class="c0"/>
<circle cx="658" cy="878" r="8" class="c0"/>
<circle cx="1174" cy="866" r="8" class="c0"/>
<circle cx="560" cy="846" r="8" class="c0"/>
<circle cx="670" cy="756" r="8" class="c0"/>
<circle cx="1074" cy="848" r="8" class="c0"/>
<circle cx="606" cy="916" r="8" class="c0"/>
<circle cx="1670" cy="804" r="8" class="c0"/>
<circle cx="1910" cy="784" r="8" class="c0"/>
<circle cx="572" cy="936" r="8" class="c0"/>
<circle cx="874" cy="900" r="8" class="c0"/>
<circle cx="1718" cy="706" r="8" class="c0"/>
<circle cx="1456" cy="882" r="8" class="c0"/>
<circle cx="1210" cy="822" r="8" class="c0"/>
<circle cx="1854" cy="678" r="8" class="c0"/>
<circle cx="80" cy="846" r="8" class="c0"/>
<circle cx="496" cy="862" r="8" class="c0"/>
<circle cx="1160" cy="778" r="8" class="c0"/>
<circle cx="1822" cy="720" r="8" class="c0"/>
<circle cx="1240" cy="884" r="8" class="c0"/>
<circle cx="966" cy="806" r="8" class="c0"/>
<circle cx="1652" cy="834" r="8" class="c0"/>
<circle cx="742" cy="940" r="8" class="c0"/>
<circle cx="842" cy="706" r="8" class="c0"/>
<circle cx="1290" cy="902" r="8" class="c0"/>
<circle cx="1644" cy="776" r="8" class="c0"/>
<circle cx="1866" cy="654" r="8" class="c0"/>
<circle cx="592" cy="906" r="8" class="c0"/>
<circle cx="402" cy="796" r="8" class="c0"/>
<circle cx="1434" cy="912" r="8" class="c0"/>
<circle cx="778" cy="846" r="8" class="c0"/>
<circle cx="558" cy="808" r="8" class="c0"/>
<circle cx="1410" cy="918" r="8" class="c0"/>
<circle cx="1748" cy="782" r="8" class="c0"/>
<circle cx="1600" cy="926" r="8" class="c0"/>
<circle cx="522" cy="862" r="8" class="c0"/>
<circle cx="1278" cy="764" r="8" class="c0"/>
<circle cx="1106" cy="834" r="8" class="c0"/>
<circle cx="1720" cy="1008" r="8" class="c0"/>
<circle cx="516" cy="782" r="8" class="c0"/>
<circle cx="1478" cy="828" r="8" class="c0"/>
<circle cx="1592" cy="890" r="8" class="c0"/>
<circle cx="242" cy="828" r="8" class="c0"/>
<circle cx="1522" cy="924" r="8" class="c0"/>
<circle cx="34" cy="866" r="8" class="c0"/>
<circle cx="998" cy="784" r="8" class="c0"/>
<circle cx="324" cy="754" r="8" class="c0"/>
<circle cx="640" cy="726" r="8" class="c0"/>
<circle cx="840" cy="822" r="8" class="c0"/>
<circle cx="1382" cy="760" r="8" class="c0"/>
<circle cx="1606" cy="848" r="8" class="c0"/>
<circle cx="1620" cy="714" r="8" class="c0"/>
<circle cx="1086" cy="774" r="8" class="c0"/>
<circle cx="774" cy="768" r="8" class="c0"/>
<circle cx="1330" cy="914" r="8" class="c0"/>
<circle cx="928" cy="710" r="8" class="c0"/>
<circle cx="600" cy="742" r="8" class="c0"/>
<circle cx="1128" cy="760" r="8" class="c0"/>
<circle cx="1694" cy="700" r="8" class="c0"/>
<circle cx="1560" cy="840" r="8" class="c0"/>
<circle cx="1796" cy="760" r="8" class="c0"/>
<circle cx="1468" cy="746" r="8" class="c0"/>
<circle cx="1794" cy="708" r="8" class="c0"/>
<circle cx="1742" cy="670" r="8" class="c0"/>
<circle cx="1006" cy="750" r="8" class="c0"/>
<circle cx="1722" cy="796" r="8" class="c0"/>
<circle cx="136" cy="876" r="8" class="c0"/>
<circle cx="1668" cy="726" r="8" class="c0"/>
<circle cx="1234" cy="908" r="8" class="c0"/>
<circle cx="38" cy="822" r="8" class="c0"/>
<circle cx="750" cy="808" r="8" class="c0"/>
<circle cx="1758" cy="744" r="8" class="c0"/>
<circle cx="1744" cy="726" r="8" class="c0"/>
<circle cx="658" cy="766" r="8" class="c0"/>
<circle cx="1514" cy="824" r="8" class="c0"/>
<circle cx="1866" cy="832" r="8" class="c0"/>
<circle cx="714" cy="712" r="8" class="c0"/>
<circle cx="1078" cy="824" r="8" class="c0"/>
<circle cx="706" cy="798" r="8" class="c0"/>
<circle cx="1140" cy="750" r="8" class="c0"/>
<circle cx="892" cy="770" r="8" class="c0"/>
<circle cx="942" cy="958" r="8" class="c0"/>
<circle cx="1672" cy="928" r="8" class="c0"/>
<circle cx="144" cy="780" r="8" class="c0"/>
<circle cx="818" cy="708" r="8" class="c0"/>
<circle cx="222" cy="856" r="8" class="c0"/>
<circle cx="784" cy="898" r="8" class="c0"/>
<circle cx="432" cy="842" r="8" class="c0"/>
<circle cx="1804" cy="868" r="8" class="c0"/>
<circle cx="942" cy="918" r="8" class="c0"/>
<circle cx="1564" cy="954" r="8" class="c0"/>
<circle cx="12" cy="862" r="8" class="c0"/>
<circle cx="1488" cy="856" r="8" class="c0"/>
<circle cx="1212" cy="924" r="8" class="c0"/>
<circle cx="70" cy="826" r="8" class="c0"/>
<circle cx="812" cy="776" r="8" class="c0"/>
<circle cx="8" cy="794" r="8" class="c0"/>
<circle cx="900" cy="846" r="8" class="c0"/>
<circle cx="910" cy="902" r="8" class="c0"/>
<circle cx="1404" cy="882" r="8" class="c0"/>
<circle cx="1160" cy="912" r="8" class="c0"/>
<circle cx="1762" cy="914" r="8" class="c0"/>
<circle cx="1900" cy="806" r="6" class="c0"/>
<circle cx="478" cy="854" r="6" class="c0"/>
<circle cx="1542" cy="930" r="6" class="c0"/>
<circle cx="1662" cy="986" r="6" class="c0"/>
<circle cx="1038" cy="730" r="6" class="c0"/>
<circle cx="470" cy="728" r="6" class="c0"/>
<circle cx="1040" cy="842" r="6" class="c0"/>
<circle cx="952" cy="822" r="6" class="c0"/>
<circle cx="308" cy="820" r="6" class="c0"/>
<circle cx="1520" cy="788" r="6" class="c0"/>
<circle cx="872" cy="764" r="6" class="c0"/>
<circle cx="584" cy="726" r="6" class="c0"/>
<circle cx="1472" cy="888" r="6" class="c0"/>
<circle cx="1390" cy="810" r="6" class="c0"/>
<circle cx="792" cy="800" r="6" class="c0"/>
<circle cx="1760" cy="692" r="6" class="c0"/>
<circle cx="708" cy="740" r="6" class="c0"/>
<circle cx="428" cy="862" r="6" class="c0"/>
<circle cx="1130" cy="740" r="6" class="c0"/>
<circle cx="1820" cy="804" r="6" class="c0"/>
<circle cx="1152" cy="942" r="6" class="c0"/>
<circle cx="1768" cy="848" r="6" class="c0"/>
<circle cx="1656" cy="710" r="6" class="c0"/>
<circle cx="794" cy="730" r="6" class="c0"/>
<circle cx="194" cy="882" r="6" class="c0"/>
<circle cx="858" cy="840" r="6" class="c0"/>
<circle cx="252" cy="756" r="6" class="c0"/>
<circle cx="1826" cy="876" r="6" class="c0"/>
<circle cx="1586" cy="752" r="6" class="c0"/>
<circle cx="394" cy="898" r="6" class="c0"/>
<circle cx="1716" cy="954" r="6" class="c0"/>
<circle cx="594" cy="940" r="6" class="c0"/>
<circle cx="362" cy="754" r="6" class="c0"/>
<circle cx="496" cy="730" r="6" class="c0"/>
<circle cx="420" cy="734" r="6" class="c0"/>
<circle cx="488" cy="798" r="6" class="c0"/>
<circle cx="554" cy="768" r="6" class="c0"/>
<circle cx="1752" cy="830" r="6" class="c0"/>
<circle cx="586" cy="888" r="6" class="c0"/>
<circle cx="374" cy="804" r="6" class="c0"/>
<circle cx="1322" cy="898" r="6" class="c0"/>
<circle cx="458" cy="798" r="6" class="c0"/>
<circle cx="1406" cy="790" r="6" class="c0"/>
<circle cx="924" cy="842" r="6" class="c0"/>
<circle cx="942" cy="882" r="6" class="c0"/>
<circle cx="1120" cy="912" r="6" class="c0"/>
<circle cx="1848" cy="788" r="6" class="c0"/>
<circle cx="1904" cy="638" r="6" class="c0"/>
<circle cx="1334" cy="822" r="6" class="c0"/>
<circle cx="1012" cy="810" r="6" class="c0"/>
<circle cx="1474" cy="904" r="6" class="c0"/>
<circle cx="1186" cy="892" r="6" class="c0"/>
<circle cx="1880" cy="820" r="6" class="c0"/>
<circle cx="964" cy="742" r="6" class="c0"/>
<circle cx="1512" cy="884" r="6" class="c0"/>
<circle cx="1132" cy="904" r="6" class="c0"/>
<circle cx="668" cy="902" r="6" class="c0"/>
<circle cx="726" cy="934" r="6" class="c0"/>
<circle cx="154" cy="790" r="6" class="c0"/>
<circle cx="196" cy="852" r="6" class="c0"/>
<circle cx="1798" cy="834" r="6" class="c0"/>
<circle cx="1710" cy="728" r="6" class="c0"/>
<circle cx="984" cy="914" r="6" class="c0"/>
<circle cx="702" cy="814" r="6" class="c0"/>
<circle cx="1642" cy="952" r="6" class="c0"/>
<circle cx="800" cy="808" r="6" class="c0"/>
<circle cx="1872" cy="736" r="6" class="c0"/>
<circle cx="1040" cy="878" r="6" class="c0"/>
<circle cx="510" cy="824" r="6" class="c0"/>
<circle cx="870" cy="748" r="6" class="c0"/>
<circle cx="1658" cy="692" r="6" class="c0"/>
<circle cx="1240" cy="832" r="6" class="c0"/>
<circle cx="1678" cy="754" r="6" class="c0"/>
<circle cx="622" cy="716" r="6" class="c0"/>
<circle cx="786" cy="860" r="6" class="c0"/>
<circle cx="624" cy="946" r="6" class="c0"/>
<circle cx="880" cy="802" r="6" class="c0"/>
<circle cx="1102" cy="858" r="6" class="c0"/>
<circle cx="798" cy="936" r="6" class="c0"/>
<circle cx="1684" cy="686" r="6" class="c0"/>
<circle cx="922" cy="728" r="6" class="c0"/>
<circle cx="1836" cy="856" r="6" class="c0"/>
<circle cx="1446" cy="862" r="6" class="c0"/>
<circle cx="932" cy="790" r="6" class="c0"/>
<circle cx="1172" cy="806" r="6" class="c0"/>
<circle cx="1602" cy="966" r="6" class="c0"/>
<circle cx="668" cy="802" r="6" class="c0"/>
<circle cx="1558" cy="922" r="6" class="c0"/>
<circle cx="1092" cy="790" r="6" class="c0"/>
<circle cx="1686" cy="836" r="6" class="c0"/>
<circle cx="1136" cy="726" r="6" class="c0"/>
<circle cx="690" cy="940" r="6" class="c0"/>
<circle cx="1002" cy="886" r="6" class="c0"/>
<circle cx="1718" cy="848" r="6" class="c0"/>
<circle cx="960" cy="960" r="6" class="c0"/>
<circle cx="1496" cy="740" r="6" class="c0"/>
<circle cx="364" cy="812" r="6" class="c0"/>
<circle cx="1622" cy="842" r="6" class="c0"/>
<circle cx="1110" cy="866" r="6" class="c0"/>
<circle cx="1310" cy="800" r="6" class="c0"/>
<circle cx="198" cy="790" r="6" class="c0"/>
<circle cx="748" cy="892" r="6" class="c0"/>
<circle cx="556" cy="734" r="6" class="c0"/>
<circle cx="1784" cy="804" r="6" class="c0"/>
<circle cx="206" cy="762" r="6" class="c0"/>
<circle cx="322" cy="906" r="6" class="c0"/>
<circle cx="476" cy="872" r="6" class="c0"/>
<circle cx="1084" cy="744" r="6" class="c0"/>
<circle cx="1344" cy="764" r="6" class="c0"/>
<circle cx="1832" cy="794" r="6" class="c0"/>
<circle cx="384" cy="852" r="6" class="c0"/>
<circle cx="1728" cy="886" r="6" class="c0"/>
<circle cx="1040" cy="822" r="6" class="c0"/>
<circle cx="768" cy="792" r="6" class="c0"/>
<circle cx="1752" cy="700" r="6" class="c0"/>
<circle cx="600" cy="718" r="6" class="c0"/>
<circle cx="420" cy="786" r="6" class="c0"/>
<circle cx="1174" cy="732" r="6" class="c0"/>
<circle cx="458" cy="890" r="6" class="c0"/>
<circle cx="854" cy="956" r="6" class="c0"/>
<circle cx="1392" cy="788" r="6" class="c0"/>
<circle cx="124" cy="774" r="6" class="c0"/>
<circle cx="718" cy="818" r="6" class="c0"/>
<circle cx="666" cy="712" r="6" class="c0"/>
<circle cx="1376" cy="816" r="6" class="c0"/>
<circle cx="300" cy="790" r="6" class="c0"/>
<circle cx="1904" cy="672" r="6" class="c0"/>
<circle cx="514" cy="724" r="6" class="c0"/>
<circle cx="464" cy="930" r="6" class="c0"/>
<circle cx="1208" cy="888" r="6" class="c0"/>
<circle cx="778" cy="744" r="6" class="c0"/>
<circle cx="64" cy="842" r="6" class="c0"/>
<circle cx="1056" cy="770" r="6" class="c0"/>
<circle cx="1578" cy="838" r="6" class="c0"/>
<circle cx="1134" cy="860" r="6" class="c0"/>
<circle cx="414" cy="854" r="6" class="c0"/>
<circle cx="728" cy="882" r="6" class="c0"/>
<circle cx="1076" cy="866" r="6" class="c0"/>
<circle cx="1210" cy="850" r="6" class="c0"/>
<circle cx="1248" cy="786" r="6" class="c0"/>
<circle cx="1534" cy="782" r="6" class="c0"/>
<circle cx="588" cy="766" r="6" class="c0"/>
<circle cx="958" cy="920" r="6" class="c0"/>
<circle cx="860" cy="756" r="6" class="c0"/>
<circle cx="1760" cy="840" r="6" class="c0"/>
<circle cx="98" cy="876" r="6" class="c0"/>
<circle cx="1504" cy="912" r="6" class="c0"/>
<circle cx="1280" cy="834" r="6" class="c0"/>
<circle cx="122" cy="838" r="6" class="c0"/>
<circle cx="440" cy="734" r="6" class="c0"/>
<circle cx="678" cy="792" r="6" class="c0"/>
<circle cx="1272" cy="902" r="6" class="c0"/>
<circle cx="542" cy="730" r="6" class="c0"/>
<circle cx="532" cy="886" r="6" class="c0"/>
<circle cx="1074" cy="952" r="6" class="c0"/>
<circle cx="1912" cy="838" r="6" class="c0"/>
<circle cx="274" cy="832" r="6" class="c0"/>
<circle cx="1622" cy="928" r="6" class="c0"/>
<circle cx="344" cy="834" r="6" class="c0"/>
<circle cx="1794" cy="816" r="6" class="c0"/>
<circle cx="666" cy="818" r="6" class="c0"/>
<circle cx="1618" cy="902" r="6" class="c0"/>
<circle cx="1652" cy="964" r="6" class="c0"/>
<circle cx="880" cy="734" r="6" class="c0"/>
<circle cx="1900" cy="710" r="6" class="c0"/>
<circle cx="68" cy="778" r="6" class="c0"/>
<circle cx="1828" cy="688" r="6" class="c0"/>
<circle cx="1720" cy="818" r="6" class="c0"/>
<circle cx="882" cy="928" r="6" class="c0"/>
<circle cx="1758" cy="972" r="6" class="c0"/>
<circle cx="1796" cy="742" r="6" class="c0"/>
<circle cx="1398" cy="800" r="6" class="c0"/>
<circle cx="1090" cy="864" r="6" class="c0"/>
<circle cx="1268" cy="754" r="6" class="c0"/>
<circle cx="1794" cy="848" r="6" class="c0"/>
<circle cx="254" cy="860" r="6" class="c0"/>
<circle cx="1626" cy="974" r="6" class="c0"/>
<circle cx="1434" cy="870" r="6" class="c0"/>
<circle cx="1450" cy="830" r="6" class="c0"/>
<circle cx="1740" cy="914" r="6" class="c0"/>
<circle cx="1658" cy="850" r="6" class="c0"/>
<circle cx="288" cy="840" r="6" class="c0"/>
<circle cx="1618" cy="772" r="6" class="c0"/>
<circle cx="1384" cy="848" r="6" class="c0"/>
<circle cx="1014" cy="712" r="6" class="c0"/>
<circle cx="94" cy="778" r="6" class="c0"/>
<circle cx="1686" cy="990" r="6" class="c0"/>
<circle cx="1654" cy="890" r="6" class="c0"/>
<circle cx="1010" cy="894" r="6" class="c0"/>
<circle cx="992" cy="924" r="6" class="c0"/>
<circle cx="1236" cy="868" r="6" class="c0"/>
<circle cx="1560" cy="804" r="6" class="c0"/>
<circle cx="1862" cy="744" r="6" class="c0"/>
<circle cx="1764" cy="812" r="6" class="c0"/>
<circle cx="1114" cy="738" r="6" class="c0"/>
<circle cx="8" cy="840" r="6" class="c0"/>
<circle cx="1252" cy="902" r="6" class="c0"/>
<circle cx="454" cy="814" r="6" class="c0"/>
<circle cx="292" cy="900" r="6" class="c0"/>
<circle cx="646" cy="788" r="6" class="c0"/>
<circle cx="1188" cy="802" r="6" class="c0"/>
<circle cx="792" cy="706" r="6" class="c0"/>
<circle cx="1420" cy="828" r="6" class="c0"/>
<circle cx="1072" cy="736" r="6" class="c0"/>
<circle cx="430" cy="818" r="6" class="c0"/>
<circle cx="118" cy="804" r="6" class="c0"/>
<circle cx="818" cy="912" r="6" class="c0"/>
<circle cx="1848" cy="652" r="6" class="c0"/>
<circle cx="366" cy="896" r="6" class="c0"/>
<circle cx="558" cy="900" r="6" class="c0"/>
<circle cx="330" cy="898" r="6" class="c0"/>
<circle cx="1760" cy="794" r="6" class="c0"/>
<circle cx="672" cy="832" r="6" class="c0"/>
<circle cx="278" cy="902" r="6" class="c0"/>
<circle cx="1638" cy="878" r="6" class="c0"/>
<circle cx="396" cy="912" r="6" class="c0"/>
<circle cx="1874" cy="802" r="6" class="c0"/>
<circle cx="992" cy="878" r="6" class="c0"/>
<circle cx="1360" cy="760" r="6" class="c0"/>
<circle cx="910" cy="758" r="6" class="c0"/>
<circle cx="812" cy="758" r="6" class="c0"/>
<circle cx="352" cy="856" r="6" class="c0"/>
<circle cx="1398" cy="850" r="6" class="c0"/>
<circle cx="82" cy="814" r="6" class="c0"/>
<circle cx="1606" cy="780" r="6" class="c0"/>
<circle cx="512" cy="908" r="6" class="c0"/>
<circle cx="1890" cy="864" r="6" class="c0"/>
<circle cx="1912" cy="766" r="6" class="c0"/>
<circle cx="888" cy="790" r="6" class="c0"/>
<circle cx="320" cy="870" r="6" class="c0"/>
<circle cx="1910" cy="890" r="6" class="c0"/>
<circle cx="1702" cy="994" r="6" class="c0"/>
<circle cx="506" cy="768" r="6" class="c0"/>
<circle cx="262" cy="872" r="6" class="c0"/>
<circle cx="132" cy="830" r="6" class="c0"/>
<circle cx="356" cy="824" r="6" class="c0"/>
<circle cx="1562" cy="768" r="6" class="c0"/>
<circle cx="1840" cy="720" r="6" class="c0"/>
<circle cx="708" cy="848" r="6" class="c0"/>
<circle cx="1736" cy="700" r="6" class="c0"/>
<circle cx="1406" cy="866" r="6" class="c0"/>
<circle cx="1066" cy="814" r="6" class="c0"/>
<circle cx="1292" cy="822" r="6" class="c0"/>
<circle cx="614" cy="872" r="6" class="c0"/>
<circle cx="858" cy="704" r="6" class="c0"/>
<circle cx="680" cy="770" r="6" class="c0"/>
<circle cx="1888" cy="738" r="6" class="c0"/>
<circle cx="472" cy="792" r="6" class="c0"/>
<circle cx="1606" cy="744" r="6" class="c0"/>
<circle cx="1370" cy="912" r="6" class="c0"/>
<circle cx="194" cy="776" r="6" class="c0"/>
<circle cx="1816" cy="680" r="6" class="c0"/>
<circle cx="330" cy="790" r="6" class="c0"/>
<circle cx="924" cy="960" r="6" class="c0"/>
<circle cx="1100" cy="948" r="6" class="c0"/>
<circle cx="226" cy="882" r="6" class="c0"/>
<circle cx="1760" cy="866" r="6" class="c0"/>
<circle cx="718" cy="784" r="6" class="c0"/>
<circle cx="588" cy="844" r="6" class="c0"/>
<circle cx="714" cy="944" r="6" class="c0"/>
<circle cx="344" cy="866" r="6" class="c0"/>
<circle cx="390" cy="770" r="6" class="c0"/>
<circle cx="1690" cy="772" r="6" class="c0"/>
<circle cx="222" cy="820" r="6" class="c0"/>
<circle cx="1686" cy="816" r="6" class="c0"/>
<circle cx="826" cy="900" r="6" class="c0"/>
<circle cx="1022" cy="850" r="6" class="c0"/>
<circle cx="1776" cy="906" r="6" class="c0"/>
<circle cx="1666" cy="742" r="6" class="c0"/>
<circle cx="360" cy="910" r="6" class="c0"/>
<circle cx="1296" cy="860" r="6" class="c0"/>
<circle cx="730" cy="752" r="6" class="c0"/>
<circle cx="1634" cy="804" r="6" class="c0"/>
<circle cx="426" cy="906" r="6" class="c0"/>
<circle cx="1724" cy="688" r="6" class="c0"/>
<circle cx="532" cy="722" r="6" class="c0"/>
<circle cx="230" cy="784" r="6" class="c0"/>
<circle cx="996" cy="712" r="6" class="c0"/>
<circle cx="1308" cy="852" r="6" class="c0"/>
<circle cx="1586" cy="804" r="6" class="c0"/>
<circle cx="1186" cy="776" r="6" class="c0"/>
<circle cx="1712" cy="810" r="6" class="c0"/>
<circle cx="72" cy="874" r="6" class="c0"/>
<circle cx="1416" cy="780" r="6" class="c0"/>
<circle cx="1514" cy="846" r="6" class="c0"/>
<circle cx="1428" cy="808" r="6" class="c0"/>
<circle cx="1734" cy="740" r="6" class="c0"/>
<circle cx="386" cy="836" r="6" class="c0"/>
<circle cx="470" cy="756" r="6" class="c0"/>
<circle cx="1578" cy="740" r="6" class="c0"/>
<circle cx="934" cy="872" r="6" class="c0"/>
<circle cx="560" cy="824" r="6" class="c0"/>
<circle cx="1050" cy="714" r="6" class="c0"/>
<circle cx="552" cy="720" r="6" class="c0"/>
<circle cx="44" cy="780" r="6" class="c0"/>
<circle cx="1792" cy="794" r="6" class="c0"/>
<circle cx="402" cy="880" r="6" class="c0"/>
<circle cx="40" cy="804" r="6" class="c0"/>
<circle cx="22" cy="806" r="6" class="c0"/>
<circle cx="1296" cy="786" r="6" class="c0"/>
<circle cx="1604" cy="900" r="6" class="c0"/>
<circle cx="296" cy="850" r="6" class="c0"/>
<circle cx="960" cy="790" r="6" class="c0"/>
<circle cx="1340" cy="902" r="6" class="c0"/>
<circle cx="1382" cy="780" r="6" class="c0"/>
<circle cx="940" cy="828" r="6" class="c0"/>
<circle cx="368" cy="742" r="6" class="c0"/>
<circle cx="390" cy="742" r="6" class="c0"/>
<circle cx="764" cy="778" r="6" class="c0"/>
<circle cx="930" cy="948" r="6" class="c0"/>
<circle cx="556" cy="940" r="6" class="c0"/>
<circle cx="948" cy="706" r="6" class="c0"/>
<circle cx="1686" cy="974" r="6" class="c0"/>
<circle cx="1210" cy="742" r="6" class="c0"/>
<circle cx="1770" cy="702" r="6" class="c0"/>
<circle cx="354" cy="762" r="6" class="c0"/>
<circle cx="1874" cy="780" r="6" class="c0"/>
<circle cx="846" cy="786" r="6" class="c0"/>
<circle cx="1906" cy="854" r="6" class="c0"/>
<circle cx="1672" cy="882" r="6" class="c0"/>
<circle cx="1652" cy="914" r="6" class="c0"/>
<circle cx="724" cy="840" r="6" class="c0"/>
<circle cx="684" cy="928" r="6" class="c0"/>
<circle cx="1200" cy="832" r="6" class="c0"/>
<circle cx="1032" cy="834" r="6" class="c0"/>
<circle cx="388" cy="806" r="6" class="c0"/>
<circle cx="1324" cy="832" r="6" class="c0"/>
<circle cx="794" cy="958" r="6" class="c0"/>
<circle cx="544" cy="844" r="6" class="c0"/>
<circle cx="274" cy="752" r="6" class="c0"/>
<circle cx="1590" cy="844" r="6" class="c0"/>
<circle cx="292" cy="864" r="6" class="c0"/>
<circle cx="1844" cy="688" r="6" class="c0"/>
<circle cx="174" cy="838" r="6" class="c0"/>
<circle cx="1280" cy="912" r="6" class="c0"/>
<circle cx="650" cy="716" r="6" class="c0"/>
<circle cx="304" cy="876" r="6" class="c0"/>
<circle cx="322" cy="782" r="6" class="c0"/>
<circle cx="1614" cy="834" r="6" class="c0"/>
<circle cx="852" cy="716" r="6" class="c0"/>
<circle cx="752" cy="824" r="6" class="c0"/>
<circle cx="934" cy="742" r="6" class="c0"/>
<circle cx="1302" cy="814" r="6" class="c0"/>
<circle cx="670" cy="922" r="6" class="c0"/>
<circle cx="188" cy="764" r="6" class="c0"/>
<circle cx="150" cy="884" r="6" class="c0"/>
<circle cx="794" cy="776" r="6" class="c0"/>
<circle cx="1522" cy="872" r="6" class="c0"/>
<circle cx="914" cy="918" r="6" class="c0"/>
<circle cx="188" cy="844" r="6" class="c0"/>
<circle cx="1240" cy="796" r="6" class="c0"/>
<circle cx="1760" cy="718" r="6" class="c0"/>
<circle cx="1774" cy="972" r="6" class="c0"/>
<circle cx="432" cy="742" r="6" class="c0"/>
<circle cx="1628" cy="914" r="6" class="c0"/>
<circle cx="1580" cy="716" r="6" class="c0"/>
<circle cx="716" cy="910" r="6" class="c0"/>
<circle cx="1746" cy="688" r="6" class="c0"/>
<circle cx="596" cy="926" r="6" class="c0"/>
<circle cx="1474" cy="930" r="6" class="c0"/>
<circle cx="1594" cy="790" r="6" class="c0"/>
<circle cx="638" cy="920" r="6" class="c0"/>
<circle cx="1544" cy="950" r="6" class="c0"/>
<circle cx="908" cy="816" r="6" class="c0"/>
<circle cx="440" cy="750" r="6" class="c0"/>
<circle cx="1040" cy="912" r="6" class="c0"/>
<circle cx="1852" cy="824" r="6" class="c0"/>
<circle cx="1852" cy="696" r="6" class="c0"/>
<circle cx="998" cy="960" r="6" class="c0"/>
<circle cx="632" cy="888" r="6" class="c0"/>
<circle cx="972" cy="734" r="6" class="c0"/>
<circle cx="628" cy="754" r="6" class="c0"/>
<circle cx="1200" cy="808" r="6" class="c0"/>
<circle cx="758" cy="884" r="6" class="c0"/>
<circle cx="1312" cy="760" r="6" class="c0"/>
<circle cx="1190" cy="862" r="6" class="c0"/>
<circle cx="532" cy="852" r="6" class="c0"/>
<circle cx="648" cy="860" r="6" class="c0"/>
<circle cx="544" cy="796" r="6" class="c0"/>
<circle cx="520" cy="918" r="6" class="c0"/>
<circle cx="1884" cy="834" r="6" class="c0"/>
<circle cx="900" cy="824" r="6" class="c0"/>
<circle cx="1486" cy="796" r="6" class="c0"/>
<circle cx="1620" cy="808" r="6" class="c0"/>
</svg>
