<?xml version="1.0" encoding="utf-8"?>
<svg xmlns="http://www.w3.org/2000/svg"
     xmlns:xlink="http://www.w3.org/1999/xlink" width="1920" height="1440" >

            <defs>
            <style type="text/css"><![CDATA[
circle {stroke: none;}
.c0 {fill: #FFFFFF;}
]]></style>
            </defs>
<rect x="0" y="0" width="1920" height="1440" fill="black"/>
<circle cx="968" cy="706" r="12" class="c0"/>
<circle cx="1126" cy="570" r="12" class="c0"/>
<circle cx="932" cy="666" r="12" class="c0"/>
<circle cx="784" cy="660" r="12" class="c0"/>
<circle cx="1094" cy="576" r="12" class="c0"/>
<circle cx="1224" cy="672" r="12" class="c0"/>
<circle cx="1232" cy="716" r="12" class="c0"/>
<circle cx="1380" cy="700" r="12" class="c0"/>
<circle cx="1112" cy="622" r="12" class="c0"/>
<circle cx="1096" cy="700" r="12" class="c0"/>
<circle cx="962" cy="380" r="12" class="c0"/>
<circle cx="1404" cy="716" r="12" class="c0"/>
<circle cx="1040" cy="552" r="12" class="c0"/>
<circle cx="1350" cy="698" r="12" class="c0"/>
<circle cx="934" cy="372" r="12" class="c0"/>
<circle cx="1000" cy="424" r="12" class="c0"/>
<circle cx="1364" cy="680" r="12" class="c0"/>
<circle cx="986" cy="540" r="12" class="c0"/>
<circle cx="712" cy="650" r="12" class="c0"/>
<circle cx="1038" cy="354" r="12" class="c0"/>
<circle cx="1354" cy="638" r="12" class="c0"/>
<circle cx="1064" cy="458" r="12" class="c0"/>
<circle cx="1218" cy="640" r="12" class="c0"/>
<circle cx="988" cy="664" r="12" class="c0"/>
<circle cx="1050" cy="500" r="12" class="c0"/>
<circle cx="646" cy="644" r="12" class="c0"/>
<circle cx="1016" cy="442" r="12" class="c0"/>
<circle cx="1260" cy="672" r="12" class="c0"/>
<circle cx="1390" cy="672" r="10" class="c0"/>
<circle cx="976" cy="398" r="10" class="c0"/>
<circle cx="960" cy="414" r="10" class="c0"/>
<circle cx="1030" cy="422" r="10" class="c0"/>
<circle cx="1398" cy="628" r="10" class="c0"/>
<circle cx="1172" cy="684" r="10" class="c0"/>
<circle cx="1058" cy="426" r="10" class="c0"/>
<circle cx="1098" cy="444" r="10" class="c0"/>
<circle cx="1276" cy="710" r="10" class="c0"/>
<circle cx="738" cy="670" r="10" class="c0"/>
<circle cx="1142" cy="696" r="10" class="c0"/>
<circle cx="1300" cy="658" r="10" class="c0"/>
<circle cx="1206" cy="710" r="10" class="c0"/>
<circle cx="1034" cy="616" r="10" class="c0"/>
<circle cx="1002" cy="352" r="10" class="c0"/>
<circle cx="1068" cy="342" r="10" class="c0"/>
<circle cx="894" cy="362" r="10" class="c0"/>
<circle cx="948" cy="478" r="10" class="c0"/>
<circle cx="1182" cy="652" r="10" class="c0"/>
<circle cx="1056" cy="640" r="10" class="c0"/>
<circle cx="1084" cy="676" r="10" class="c0"/>
<circle cx="1306" cy="634" r="10" class="c0"/>
<circle cx="1438" cy="664" r="10" class="c0"/>
<circle cx="1030" cy="668" r="10" class="c0"/>
<circle cx="1314" cy="700" r="10" class="c0"/>
<circle cx="760" cy="678" r="10" class="c0"/>
<circle cx="978" cy="360" r="10" class="c0"/>
<circle cx="1444" cy="700" r="10" class="c0"/>
<circle cx="1110" cy="474" r="10" class="c0"/>
<circle cx="1060" cy="570" r="10" class="c0"/>
<circle cx="1130" cy="510" r="10" class="c0"/>
<circle cx="1066" cy="526" r="10" class="c0"/>
<circle cx="1110" cy="654" r="10" class="c0"/>
<circle cx="1330" cy="648" r="10" class="c0"/>
<circle cx="1470" cy="702" r="10" class="c0"/>
<circle cx="982" cy="508" r="10" class="c0"/>
<circle cx="1068" cy="626" r="10" class="c0"/>
<circle cx="1038" cy="470" r="10" class="c0"/>
<circle cx="1384" cy="730" r="10" class="c0"/>
<circle cx="974" cy="568" r="10" class="c0"/>
<circle cx="1038" cy="590" r="10" class="c0"/>
<circle cx="1036" cy="378" r="10" class="c0"/>
<circle cx="1018" cy="402" r="10" class="c0"/>
<circle cx="1086" cy="482" r="10" class="c0"/>
<circle cx="1242" cy="628" r="10" class="c0"/>
<circle cx="1326" cy="722" r="10" class="c0"/>
<circle cx="1322" cy="676" r="10" class="c0"/>
<circle cx="1406" cy="750" r="10" class="c0"/>
<circle cx="1010" cy="372" r="10" class="c0"/>
<circle cx="1274" cy="654" r="10" class="c0"/>
<circle cx="1102" cy="724" r="10" class="c0"/>
<circle cx="926" cy="348" r="10" class="c0"/>
<circle cx="1428" cy="688" r="10" class="c0"/>
<circle cx="1052" cy="694" r="10" class="c0"/>
<circle cx="1300" cy="730" r="10" class="c0"/>
<circle cx="1122" cy="748" r="10" class="c0"/>
<circle cx="1130" cy="674" r="10" class="c0"/>
<circle cx="1238" cy="650" r="10" class="c0"/>
<circle cx="1008" cy="650" r="10" class="c0"/>
<circle cx="992" cy="694" r="10" class="c0"/>
<circle cx="1102" cy="512" r="10" class="c0"/>
<circle cx="1440" cy="724" r="10" class="c0"/>
<circle cx="1420" cy="646" r="10" class="c0"/>
<circle cx="1018" cy="514" r="10" class="c0"/>
<circle cx="990" cy="444" r="10" class="c0"/>
<circle cx="1098" cy="604" r="10" class="c0"/>
<circle cx="1152" cy="648" r="10" class="c0"/>
<circle cx="1138" cy="628" r="10" class="c0"/>
<circle cx="1072" cy="588" r="10" class="c0"/>
<circle cx="1140" cy="606" r="10" class="c0"/>
<circle cx="1092" cy="364" r="10" class="c0"/>
<circle cx="1152" cy="506" r="8" class="c0"/>
<circle cx="1172" cy="600" r="8" class="c0"/>
<circle cx="1120" cy="444" r="8" class="c0"/>
<circle cx="1124" cy="532" r="8" class="c0"/>
<circle cx="1340" cy="668" r="8" class="c0"/>
<circle cx="1010" cy="484" r="8" class="c0"/>
<circle cx="1358" cy="744" r="8" class="c0"/>
<circle cx="1118" cy="686" r="8" class="c0"/>
<circle cx="1108" cy="560" r="8" class="c0"/>
<circle cx="1028" cy="694" r="8" class="c0"/>
<circle cx="1266" cy="630" r="8" class="c0"/>
<circle cx="1090" cy="632" r="8" class="c0"/>
<circle cx="1018" cy="684" r="8" class="c0"/>
<circle cx="1202" cy="664" r="8" class="c0"/>
<circle cx="850" cy="660" r="8" class="c0"/>
<circle cx="684" cy="664" r="8" class="c0"/>
<circle cx="1072" cy="702" r="8" class="c0"/>
<circle cx="604" cy="642" r="8" class="c0"/>
<circle cx="938" cy="638" r="8" class="c0"/>
<circle cx="1392" cy="650" r="8" class="c0"/>
<circle cx="1180" cy="620" r="8" class="c0"/>
<circle cx="1386" cy="756" r="8" class="c0"/>
<circle cx="934" cy="328" r="8" class="c0"/>
<circle cx="1044" cy="656" r="8" class="c0"/>
<circle cx="1170" cy="640" r="8" class="c0"/>
<circle cx="1344" cy="732" r="8" class="c0"/>
<circle cx="930" cy="460" r="8" class="c0"/>
<circle cx="814" cy="654" r="8" class="c0"/>
<circle cx="1118" cy="598" r="8" class="c0"/>
<circle cx="776" cy="690" r="8" class="c0"/>
<circle cx="1126" cy="720" r="8" class="c0"/>
<circle cx="1174" cy="704" r="8" class="c0"/>
<circle cx="1082" cy="418" r="8" class="c0"/>
<circle cx="1012" cy="702" r="8" class="c0"/>
<circle cx="1360" cy="722" r="8" class="c0"/>
<circle cx="1086" cy="756" r="8" class="c0"/>
<circle cx="1418" cy="666" r="8" class="c0"/>
<circle cx="1058" cy="368" r="8" class="c0"/>
<circle cx="1200" cy="690" r="8" class="c0"/>
<circle cx="1008" cy="674" r="8" class="c0"/>
<circle cx="1428" cy="738" r="8" class="c0"/>
<circle cx="956" cy="608" r="8" class="c0"/>
<circle cx="962" cy="498" r="8" class="c0"/>
<circle cx="1474" cy="726" r="8" class="c0"/>
<circle cx="1044" cy="408" r="8" class="c0"/>
<circle cx="954" cy="662" r="8" class="c0"/>
<circle cx="1374" cy="620" r="8" class="c0"/>
<circle cx="1030" cy="530" r="8" class="c0"/>
<circle cx="1074" cy="502" r="8" class="c0"/>
<circle cx="1130" cy="650" r="8" class="c0"/>
<circle cx="1082" cy="650" r="8" class="c0"/>
<circle cx="970" cy="678" r="8" class="c0"/>
<circle cx="1114" cy="496" r="8" class="c0"/>
<circle cx="1012" cy="618" r="8" class="c0"/>
<circle cx="964" cy="586" r="8" class="c0"/>
<circle cx="910" cy="376" r="8" class="c0"/>
<circle cx="1254" cy="712" r="8" class="c0"/>
<circle cx="1022" cy="332" r="8" class="c0"/>
<circle cx="1046" cy="448" r="8" class="c0"/>
<circle cx="958" cy="358" r="8" class="c0"/>
<circle cx="1098" cy="746" r="8" class="c0"/>
<circle cx="682" cy="644" r="8" class="c0"/>
<circle cx="946" cy="394" r="8" class="c0"/>
<circle cx="1062" cy="482" r="8" class="c0"/>
<circle cx="1006" cy="548" r="8" class="c0"/>
<circle cx="620" cy="650" r="8" class="c0"/>
<circle cx="762" cy="656" r="8" class="c0"/>
<circle cx="1080" cy="550" r="8" class="c0"/>
<circle cx="880" cy="668" r="8" class="c0"/>
<circle cx="1106" cy="538" r="8" class="c0"/>
<circle cx="832" cy="658" r="8" class="c0"/>
<circle cx="904" cy="334" r="8" class="c0"/>
<circle cx="1162" cy="618" r="8" class="c0"/>
<circle cx="1458" cy="714" r="8" class="c0"/>
<circle cx="1050" cy="604" r="8" class="c0"/>
<circle cx="1280" cy="680" r="8" class="c0"/>
<circle cx="974" cy="430" r="8" class="c0"/>
<circle cx="1192" cy="636" r="8" class="c0"/>
<circle cx="1376" cy="642" r="8" class="c0"/>
<circle cx="1168" cy="664" r="8" class="c0"/>
<circle cx="1082" cy="720" r="8" class="c0"/>
<circle cx="1226" cy="694" r="8" class="c0"/>
<circle cx="1022" cy="568" r="8" class="c0"/>
<circle cx="1288" cy="624" r="8" class="c0"/>
<circle cx="920" cy="386" r="8" class="c0"/>
<circle cx="1056" cy="668" r="8" class="c0"/>
<circle cx="1192" cy="674" r="8" class="c0"/>
<circle cx="798" cy="706" r="8" class="c0"/>
<circle cx="1248" cy="694" r="8" class="c0"/>
<circle cx="990" cy="490" r="8" class="c0"/>
<circle cx="1006" cy="466" r="8" class="c0"/>
<circle cx="1402" cy="690" r="8" class="c0"/>
<circle cx="1456" cy="684" r="8" class="c0"/>
<circle cx="1002" cy="526" r="8" class="c0"/>
<circle cx="944" cy="446" r="8" class="c0"/>
<circle cx="1136" cy="490" r="8" class="c0"/>
<circle cx="734" cy="648" r="8" class="c0"/>
<circle cx="1142" cy="582" r="8" class="c0"/>
<circle cx="1074" cy="440" r="8" class="c0"/>
<circle cx="1026" cy="642" r="8" class="c0"/>
<circle cx="970" cy="526" r="8" class="c0"/>
<circle cx="948" cy="624" r="8" class="c0"/>
<circle cx="1356" cy="660" r="8" class="c0"/>
<circle cx="1006" cy="502" r="8" class="c0"/>
<circle cx="666" cy="652" r="8" class="c0"/>
<circle cx="954" cy="688" r="8" class="c0"/>
<circle cx="990" cy="380" r="8" class="c0"/>
<circle cx="1318" cy="620" r="8" class="c0"/>
<circle cx="1078" cy="608" r="8" class="c0"/>
<circle cx="1154" cy="674" r="8" class="c0"/>
<circle cx="1042" cy="332" r="8" class="c0"/>
<circle cx="1138" cy="550" r="8" class="c0"/>
<circle cx="1302" cy="686" r="8" class="c0"/>
<circle cx="1080" cy="738" r="8" class="c0"/>
<circle cx="672" cy="674" r="8" class="c0"/>
<circle cx="1050" cy="390" r="8" class="c0"/>
<circle cx="1114" cy="378" r="8" class="c0"/>
<circle cx="1108" cy="674" r="8" class="c0"/>
<circle cx="1152" cy="712" r="8" class="c0"/>
<circle cx="820" cy="720" r="8" class="c0"/>
<circle cx="904" cy="672" r="8" class="c0"/>
<circle cx="1338" cy="624" r="8" class="c0"/>
<circle cx="1462" cy="738" r="8" class="c0"/>
<circle cx="1426" cy="712" r="8" class="c0"/>
<circle cx="986" cy="642" r="8" class="c0"/>
<circle cx="1022" cy="494" r="8" class="c0"/>
<circle cx="970" cy="654" r="8" class="c0"/>
<circle cx="1000" cy="390" r="8" class="c0"/>
<circle cx="1000" cy="632" r="8" class="c0"/>
<circle cx="1292" cy="700" r="8" class="c0"/>
<circle cx="1072" cy="660" r="8" class="c0"/>
<circle cx="1268" cy="728" r="8" class="c0"/>
<circle cx="1088" cy="460" r="8" class="c0"/>
<circle cx="1270" cy="690" r="8" class="c0"/>
<circle cx="1416" cy="700" r="8" class="c0"/>
<circle cx="922" cy="648" r="8" class="c0"/>
<circle cx="1062" cy="546" r="8" class="c0"/>
<circle cx="1142" cy="528" r="8" class="c0"/>
<circle cx="1152" cy="592" r="8" class="c0"/>
<circle cx="1378" cy="660" r="8" class="c0"/>
<circle cx="988" cy="340" r="8" class="c0"/>
<circle cx="1286" cy="642" r="8" class="c0"/>
<circle cx="1254" cy="640" r="8" class="c0"/>
<circle cx="1040" cy="518" r="8" class="c0"/>
<circle cx="1228" cy="612" r="8" class="c0"/>
<circle cx="870" cy="658" r="8" class="c0"/>
<circle cx="892" cy="658" r="8" class="c0"/>
<circle cx="1474" cy="684" r="6" class="c0"/>
<circle cx="918" cy="322" r="6" class="c0"/>
<circle cx="882" cy="346" r="6" class="c0"/>
<circle cx="1120" cy="550" r="6" class="c0"/>
<circle cx="1096" cy="664" r="6" class="c0"/>
<circle cx="1374" cy="746" r="6" class="c0"/>
<circle cx="1040" cy="682" r="6" class="c0"/>
<circle cx="1318" cy="738" r="6" class="c0"/>
<circle cx="964" cy="440" r="6" class="c0"/>
<circle cx="1070" cy="686" r="6" class="c0"/>
<circle cx="914" cy="360" r="6" class="c0"/>
<circle cx="1028" cy="456" r="6" class="c0"/>
<circle cx="988" cy="410" r="6" class="c0"/>
<circle cx="618" cy="634" r="6" class="c0"/>
<circle cx="1354" cy="616" r="6" class="c0"/>
<circle cx="1196" cy="602" r="6" class="c0"/>
<circle cx="1022" cy="544" r="6" class="c0"/>
<circle cx="668" cy="636" r="6" class="c0"/>
<circle cx="1098" cy="424" r="6" class="c0"/>
<circle cx="1144" cy="664" r="6" class="c0"/>
<circle cx="1336" cy="686" r="6" class="c0"/>
<circle cx="1210" cy="606" r="6" class="c0"/>
<circle cx="912" cy="658" r="6" class="c0"/>
<circle cx="1122" cy="702" r="6" class="c0"/>
<circle cx="930" cy="396" r="6" class="c0"/>
<circle cx="822" cy="670" r="6" class="c0"/>
<circle cx="1084" cy="518" r="6" class="c0"/>
<circle cx="700" cy="666" r="6" class="c0"/>
<circle cx="1074" cy="360" r="6" class="c0"/>
<circle cx="594" cy="630" r="6" class="c0"/>
<circle cx="1090" cy="500" r="6" class="c0"/>
<circle cx="720" cy="672" r="6" class="c0"/>
<circle cx="1190" cy="700" r="6" class="c0"/>
<circle cx="1048" cy="534" r="6" class="c0"/>
<circle cx="1068" cy="410" r="6" class="c0"/>
<circle cx="1004" cy="332" r="6" class="c0"/>
<circle cx="1112" cy="710" r="6" class="c0"/>
<circle cx="860" cy="670" r="6" class="c0"/>
<circle cx="1396" cy="766" r="6" class="c0"/>
<circle cx="928" cy="476" r="6" class="c0"/>
<circle cx="1022" cy="602" r="6" class="c0"/>
<circle cx="970" cy="550" r="6" class="c0"/>
<circle cx="804" cy="668" r="6" class="c0"/>
<circle cx="896" cy="318" r="6" class="c0"/>
<circle cx="1120" cy="640" r="6" class="c0"/>
<circle cx="750" cy="646" r="6" class="c0"/>
<circle cx="792" cy="686" r="6" class="c0"/>
<circle cx="1038" cy="704" r="6" class="c0"/>
<circle cx="1238" cy="684" r="6" class="c0"/>
<circle cx="960" cy="516" r="6" class="c0"/>
<circle cx="1078" cy="566" r="6" class="c0"/>
<circle cx="952" cy="460" r="6" class="c0"/>
<circle cx="1108" cy="588" r="6" class="c0"/>
<circle cx="1402" cy="660" r="6" class="c0"/>
<circle cx="906" cy="350" r="6" class="c0"/>
<circle cx="1096" cy="548" r="6" class="c0"/>
<circle cx="1302" cy="712" r="6" class="c0"/>
<circle cx="1418" cy="728" r="6" class="c0"/>
<circle cx="1020" cy="474" r="6" class="c0"/>
<circle cx="1042" cy="572" r="6" class="c0"/>
</svg>
