<?xml version="1.0" encoding="utf-8"?>
<svg xmlns="http://www.w3.org/2000/svg"
     xmlns:xlink="http://www.w3.org/1999/xlink" width="1920" height="1440" >

            <defs>
            <style type="text/css"><![CDATA[
circle {stroke: none;}
.c0 {fill: #FFFFFF;}
]]></style>
            </defs>
<rect x="0" y="0" width="1920" height="1440" fill="black"/>
<circle cx="1122" cy="614" r="14" class="c0"/>
<circle cx="984" cy="350" r="12" class="c0"/>
<circle cx="1024" cy="348" r="12" class="c0"/>
<circle cx="1014" cy="628" r="12" class="c0"/>
<circle cx="1166" cy="622" r="12" class="c0"/>
<circle cx="986" cy="524" r="12" class="c0"/>
<circle cx="1010" cy="544" r="12" class="c0"/>
<circle cx="1122" cy="568" r="12" class="c0"/>
<circle cx="1162" cy="690" r="12" class="c0"/>
<circle cx="1338" cy="718" r="12" class="c0"/>
<circle cx="1020" cy="388" r="12" class="c0"/>
<circle cx="1064" cy="660" r="12" class="c0"/>
<circle cx="930" cy="324" r="12" class="c0"/>
<circle cx="1244" cy="694" r="12" class="c0"/>
<circle cx="1308" cy="682" r="12" class="c0"/>
<circle cx="1404" cy="642" r="12" class="c0"/>
<circle cx="1062" cy="466" r="12" class="c0"/>
<circle cx="1426" cy="676" r="12" class="c0"/>
<circle cx="1366" cy="722" r="12" class="c0"/>
<circle cx="1058" cy="578" r="12" class="c0"/>
<circle cx="1454" cy="700" r="12" class="c0"/>
<circle cx="1358" cy="650" r="12" class="c0"/>
<circle cx="988" cy="682" r="12" class="c0"/>
<circle cx="754" cy="668" r="12" class="c0"/>
<circle cx="996" cy="438" r="12" class="c0"/>
<circle cx="1100" cy="578" r="10" class="c0"/>
<circle cx="1100" cy="452" r="10" class="c0"/>
<circle cx="1416" cy="728" r="10" class="c0"/>
<circle cx="882" cy="662" r="10" class="c0"/>
<circle cx="1230" cy="654" r="10" class="c0"/>
<circle cx="1376" cy="680" r="10" class="c0"/>
<circle cx="1132" cy="520" r="10" class="c0"/>
<circle cx="1120" cy="646" r="10" class="c0"/>
<circle cx="1080" cy="620" r="10" class="c0"/>
<circle cx="708" cy="646" r="10" class="c0"/>
<circle cx="1326" cy="636" r="10" class="c0"/>
<circle cx="1132" cy="496" r="10" class="c0"/>
<circle cx="1096" cy="666" r="10" class="c0"/>
<circle cx="970" cy="382" r="10" class="c0"/>
<circle cx="1130" cy="674" r="10" class="c0"/>
<circle cx="1018" cy="452" r="10" class="c0"/>
<circle cx="1048" cy="446" r="10" class="c0"/>
<circle cx="1052" cy="602" r="10" class="c0"/>
<circle cx="1050" cy="504" r="10" class="c0"/>
<circle cx="940" cy="626" r="10" class="c0"/>
<circle cx="1304" cy="652" r="10" class="c0"/>
<circle cx="1030" cy="674" r="10" class="c0"/>
<circle cx="1118" cy="720" r="10" class="c0"/>
<circle cx="1204" cy="686" r="10" class="c0"/>
<circle cx="1030" cy="614" r="10" class="c0"/>
<circle cx="1408" cy="748" r="10" class="c0"/>
<circle cx="946" cy="660" r="10" class="c0"/>
<circle cx="1002" cy="494" r="10" class="c0"/>
<circle cx="1228" cy="710" r="10" class="c0"/>
<circle cx="1170" cy="596" r="10" class="c0"/>
<circle cx="1410" cy="702" r="10" class="c0"/>
<circle cx="1034" cy="586" r="10" class="c0"/>
<circle cx="1064" cy="542" r="10" class="c0"/>
<circle cx="1348" cy="626" r="10" class="c0"/>
<circle cx="1384" cy="744" r="10" class="c0"/>
<circle cx="1292" cy="712" r="10" class="c0"/>
<circle cx="1066" cy="436" r="10" class="c0"/>
<circle cx="952" cy="614" r="10" class="c0"/>
<circle cx="1230" cy="678" r="10" class="c0"/>
<circle cx="776" cy="654" r="10" class="c0"/>
<circle cx="1334" cy="670" r="10" class="c0"/>
<circle cx="1372" cy="628" r="10" class="c0"/>
<circle cx="1034" cy="466" r="10" class="c0"/>
<circle cx="1092" cy="716" r="10" class="c0"/>
<circle cx="1062" cy="688" r="10" class="c0"/>
<circle cx="1048" cy="380" r="10" class="c0"/>
<circle cx="1116" cy="480" r="10" class="c0"/>
<circle cx="900" cy="366" r="10" class="c0"/>
<circle cx="1164" cy="666" r="10" class="c0"/>
<circle cx="1206" cy="640" r="10" class="c0"/>
<circle cx="1048" cy="412" r="10" class="c0"/>
<circle cx="946" cy="392" r="10" class="c0"/>
<circle cx="684" cy="646" r="10" class="c0"/>
<circle cx="1268" cy="674" r="10" class="c0"/>
<circle cx="966" cy="404" r="10" class="c0"/>
<circle cx="1382" cy="654" r="10" class="c0"/>
<circle cx="934" cy="372" r="10" class="c0"/>
<circle cx="1106" cy="522" r="10" class="c0"/>
<circle cx="1058" cy="624" r="10" class="c0"/>
<circle cx="970" cy="432" r="10" class="c0"/>
<circle cx="614" cy="638" r="10" class="c0"/>
<circle cx="1032" cy="696" r="10" class="c0"/>
<circle cx="1082" cy="596" r="10" class="c0"/>
<circle cx="738" cy="654" r="10" class="c0"/>
<circle cx="1066" cy="520" r="10" class="c0"/>
<circle cx="1088" cy="500" r="10" class="c0"/>
<circle cx="1116" cy="694" r="10" class="c0"/>
<circle cx="1178" cy="652" r="10" class="c0"/>
<circle cx="940" cy="452" r="10" class="c0"/>
<circle cx="1280" cy="724" r="10" class="c0"/>
<circle cx="720" cy="662" r="8" class="c0"/>
<circle cx="1124" cy="540" r="8" class="c0"/>
<circle cx="1022" cy="508" r="8" class="c0"/>
<circle cx="1050" cy="336" r="8" class="c0"/>
<circle cx="776" cy="680" r="8" class="c0"/>
<circle cx="854" cy="658" r="8" class="c0"/>
<circle cx="804" cy="650" r="8" class="c0"/>
<circle cx="1000" cy="362" r="8" class="c0"/>
<circle cx="1004" cy="410" r="8" class="c0"/>
<circle cx="1316" cy="710" r="8" class="c0"/>
<circle cx="902" cy="344" r="8" class="c0"/>
<circle cx="1374" cy="702" r="8" class="c0"/>
<circle cx="1104" cy="742" r="8" class="c0"/>
<circle cx="672" cy="660" r="8" class="c0"/>
<circle cx="914" cy="662" r="8" class="c0"/>
<circle cx="1002" cy="704" r="8" class="c0"/>
<circle cx="1090" cy="356" r="8" class="c0"/>
<circle cx="1066" cy="488" r="8" class="c0"/>
<circle cx="1244" cy="632" r="8" class="c0"/>
<circle cx="1092" cy="556" r="8" class="c0"/>
<circle cx="976" cy="568" r="8" class="c0"/>
<circle cx="1276" cy="624" r="8" class="c0"/>
<circle cx="964" cy="362" r="8" class="c0"/>
<circle cx="988" cy="548" r="8" class="c0"/>
<circle cx="1122" cy="748" r="8" class="c0"/>
<circle cx="1088" cy="438" r="8" class="c0"/>
<circle cx="1012" cy="474" r="8" class="c0"/>
<circle cx="1192" cy="670" r="8" class="c0"/>
<circle cx="1080" cy="648" r="8" class="c0"/>
<circle cx="972" cy="668" r="8" class="c0"/>
<circle cx="1060" cy="352" r="8" class="c0"/>
<circle cx="1264" cy="638" r="8" class="c0"/>
<circle cx="1286" cy="662" r="8" class="c0"/>
<circle cx="824" cy="662" r="8" class="c0"/>
<circle cx="1106" cy="630" r="8" class="c0"/>
<circle cx="1042" cy="640" r="8" class="c0"/>
<circle cx="900" cy="314" r="8" class="c0"/>
<circle cx="1008" cy="328" r="8" class="c0"/>
<circle cx="1024" cy="562" r="8" class="c0"/>
<circle cx="1040" cy="488" r="8" class="c0"/>
<circle cx="1320" cy="732" r="8" class="c0"/>
<circle cx="1036" cy="546" r="8" class="c0"/>
<circle cx="1084" cy="420" r="8" class="c0"/>
<circle cx="1080" cy="748" r="8" class="c0"/>
<circle cx="594" cy="632" r="8" class="c0"/>
<circle cx="1000" cy="658" r="8" class="c0"/>
<circle cx="1352" cy="694" r="8" class="c0"/>
<circle cx="1012" cy="426" r="8" class="c0"/>
<circle cx="1084" cy="692" r="8" class="c0"/>
<circle cx="1102" cy="366" r="8" class="c0"/>
<circle cx="1274" cy="694" r="8" class="c0"/>
<circle cx="926" cy="354" r="8" class="c0"/>
<circle cx="1398" cy="686" r="8" class="c0"/>
<circle cx="926" cy="646" r="8" class="c0"/>
<circle cx="1032" cy="430" r="8" class="c0"/>
<circle cx="1018" cy="652" r="8" class="c0"/>
<circle cx="1134" cy="590" r="8" class="c0"/>
<circle cx="988" cy="644" r="8" class="c0"/>
<circle cx="1392" cy="710" r="8" class="c0"/>
<circle cx="1144" cy="702" r="8" class="c0"/>
<circle cx="960" cy="490" r="8" class="c0"/>
<circle cx="962" cy="682" r="8" class="c0"/>
<circle cx="1034" cy="522" r="8" class="c0"/>
<circle cx="990" cy="400" r="8" class="c0"/>
<circle cx="1108" cy="498" r="8" class="c0"/>
<circle cx="648" cy="636" r="8" class="c0"/>
<circle cx="994" cy="382" r="8" class="c0"/>
<circle cx="1250" cy="720" r="8" class="c0"/>
<circle cx="1250" cy="652" r="8" class="c0"/>
<circle cx="1026" cy="410" r="8" class="c0"/>
<circle cx="964" cy="520" r="8" class="c0"/>
<circle cx="986" cy="418" r="8" class="c0"/>
<circle cx="1188" cy="624" r="8" class="c0"/>
<circle cx="682" cy="674" r="8" class="c0"/>
<circle cx="1436" cy="714" r="8" class="c0"/>
<circle cx="980" cy="502" r="8" class="c0"/>
<circle cx="1136" cy="550" r="8" class="c0"/>
<circle cx="1140" cy="654" r="8" class="c0"/>
<circle cx="1446" cy="724" r="8" class="c0"/>
<circle cx="1300" cy="618" r="8" class="c0"/>
<circle cx="800" cy="698" r="8" class="c0"/>
<circle cx="1186" cy="694" r="8" class="c0"/>
<circle cx="1072" cy="564" r="8" class="c0"/>
<circle cx="944" cy="472" r="8" class="c0"/>
<circle cx="960" cy="700" r="8" class="c0"/>
<circle cx="1448" cy="678" r="8" class="c0"/>
<circle cx="1148" cy="634" r="8" class="c0"/>
<circle cx="962" cy="586" r="8" class="c0"/>
<circle cx="1152" cy="606" r="8" class="c0"/>
<circle cx="1216" cy="666" r="8" class="c0"/>
<circle cx="1462" cy="740" r="8" class="c0"/>
<circle cx="886" cy="354" r="8" class="c0"/>
<circle cx="1472" cy="682" r="8" class="c0"/>
<circle cx="1102" cy="542" r="8" class="c0"/>
<circle cx="1302" cy="728" r="8" class="c0"/>
<circle cx="1428" cy="650" r="8" class="c0"/>
<circle cx="1390" cy="620" r="8" class="c0"/>
<circle cx="1400" cy="668" r="8" class="c0"/>
<circle cx="1472" cy="714" r="8" class="c0"/>
<circle cx="1086" cy="468" r="8" class="c0"/>
<circle cx="1206" cy="710" r="8" class="c0"/>
<circle cx="1012" cy="520" r="8" class="c0"/>
<circle cx="630" cy="648" r="8" class="c0"/>
<circle cx="1112" cy="378" r="8" class="c0"/>
<circle cx="1396" cy="730" r="8" class="c0"/>
<circle cx="930" cy="672" r="8" class="c0"/>
<circle cx="928" cy="464" r="8" class="c0"/>
<circle cx="796" cy="666" r="8" class="c0"/>
<circle cx="1362" cy="746" r="8" class="c0"/>
<circle cx="1098" cy="610" r="8" class="c0"/>
<circle cx="1048" cy="560" r="8" class="c0"/>
<circle cx="1260" cy="708" r="8" class="c0"/>
<circle cx="1146" cy="580" r="8" class="c0"/>
<circle cx="1382" cy="764" r="8" class="c0"/>
<circle cx="1328" cy="700" r="8" class="c0"/>
<circle cx="1102" cy="428" r="8" class="c0"/>
<circle cx="998" cy="460" r="8" class="c0"/>
<circle cx="970" cy="544" r="8" class="c0"/>
<circle cx="1236" cy="612" r="8" class="c0"/>
<circle cx="914" cy="378" r="8" class="c0"/>
<circle cx="1286" cy="642" r="8" class="c0"/>
<circle cx="1072" cy="712" r="8" class="c0"/>
<circle cx="1324" cy="616" r="8" class="c0"/>
<circle cx="1078" cy="346" r="8" class="c0"/>
<circle cx="660" cy="648" r="8" class="c0"/>
<circle cx="820" cy="712" r="8" class="c0"/>
<circle cx="1354" cy="672" r="8" class="c0"/>
<circle cx="1428" cy="742" r="8" class="c0"/>
<circle cx="1110" cy="594" r="8" class="c0"/>
<circle cx="1286" cy="684" r="8" class="c0"/>
<circle cx="1050" cy="530" r="8" class="c0"/>
<circle cx="1010" cy="680" r="8" class="c0"/>
<circle cx="948" cy="354" r="8" class="c0"/>
<circle cx="1438" cy="660" r="8" class="c0"/>
<circle cx="1096" cy="640" r="8" class="c0"/>
<circle cx="1040" cy="360" r="8" class="c0"/>
<circle cx="1076" cy="676" r="8" class="c0"/>
<circle cx="1418" cy="628" r="8" class="c0"/>
<circle cx="1052" cy="704" r="8" class="c0"/>
<circle cx="984" cy="706" r="8" class="c0"/>
<circle cx="694" cy="662" r="8" class="c0"/>
<circle cx="1120" cy="508" r="8" class="c0"/>
<circle cx="1266" cy="656" r="6" class="c0"/>
<circle cx="926" cy="390" r="6" class="c0"/>
<circle cx="1080" cy="578" r="6" class="c0"/>
<circle cx="1114" cy="442" r="6" class="c0"/>
<circle cx="1148" cy="676" r="6" class="c0"/>
<circle cx="1044" cy="656" r="6" class="c0"/>
<circle cx="1076" cy="478" r="6" class="c0"/>
<circle cx="1116" cy="460" r="6" class="c0"/>
<circle cx="954" cy="374" r="6" class="c0"/>
<circle cx="1094" cy="482" r="6" class="c0"/>
<circle cx="1246" cy="668" r="6" class="c0"/>
<circle cx="1074" cy="410" r="6" class="c0"/>
<circle cx="844" cy="668" r="6" class="c0"/>
<circle cx="1336" cy="652" r="6" class="c0"/>
<circle cx="1162" cy="644" r="6" class="c0"/>
<circle cx="1200" cy="598" r="6" class="c0"/>
<circle cx="1322" cy="654" r="6" class="c0"/>
<circle cx="1146" cy="510" r="6" class="c0"/>
<circle cx="758" cy="646" r="6" class="c0"/>
<circle cx="1076" cy="732" r="6" class="c0"/>
<circle cx="1224" cy="634" r="6" class="c0"/>
<circle cx="1400" cy="764" r="6" class="c0"/>
<circle cx="786" cy="690" r="6" class="c0"/>
<circle cx="866" cy="670" r="6" class="c0"/>
<circle cx="1032" cy="328" r="6" class="c0"/>
<circle cx="1050" cy="676" r="6" class="c0"/>
<circle cx="1364" cy="612" r="6" class="c0"/>
<circle cx="1078" cy="448" r="6" class="c0"/>
<circle cx="668" cy="634" r="6" class="c0"/>
<circle cx="1154" cy="500" r="6" class="c0"/>
<circle cx="1066" cy="640" r="6" class="c0"/>
<circle cx="1434" cy="698" r="6" class="c0"/>
<circle cx="1024" cy="484" r="6" class="c0"/>
<circle cx="1174" cy="706" r="6" class="c0"/>
<circle cx="1030" cy="370" r="6" class="c0"/>
<circle cx="918" cy="340" r="6" class="c0"/>
<circle cx="982" cy="370" r="6" class="c0"/>
<circle cx="1022" cy="598" r="6" class="c0"/>
<circle cx="1066" cy="334" r="6" class="c0"/>
<circle cx="946" cy="680" r="6" class="c0"/>
<circle cx="1346" cy="738" r="6" class="c0"/>
<circle cx="1040" cy="396" r="6" class="c0"/>
<circle cx="974" cy="652" r="6" class="c0"/>
<circle cx="1024" cy="532" r="6" class="c0"/>
<circle cx="898" cy="670" r="6" class="c0"/>
<circle cx="1090" cy="758" r="6" class="c0"/>
<circle cx="1196" cy="654" r="6" class="c0"/>
<circle cx="736" cy="676" r="6" class="c0"/>
<circle cx="1216" cy="698" r="6" class="c0"/>
<circle cx="1214" cy="604" r="6" class="c0"/>
<circle cx="1414" cy="658" r="6" class="c0"/>
<circle cx="1010" cy="372" r="6" class="c0"/>
<circle cx="1134" cy="692" r="6" class="c0"/>
<circle cx="1302" cy="634" r="6" class="c0"/>
<circle cx="1116" cy="664" r="6" class="c0"/>
<circle cx="994" cy="476" r="6" class="c0"/>
<circle cx="1004" cy="344" r="6" class="c0"/>
<circle cx="1128" cy="706" r="6" class="c0"/>
<circle cx="1098" cy="684" r="6" class="c0"/>
<circle cx="1102" cy="470" r="6" class="c0"/>
<circle cx="1112" cy="552" r="6" class="c0"/>
<circle cx="1178" cy="678" r="6" class="c0"/>
<circle cx="910" cy="330" r="6" class="c0"/>
<circle cx="1090" cy="734" r="6" class="c0"/>
<circle cx="836" cy="652" r="6" class="c0"/>
<circle cx="1110" cy="676" r="6" class="c0"/>
<circle cx="632" cy="632" r="6" class="c0"/>
<circle cx="986" cy="486" r="6" class="c0"/>
<circle cx="726" cy="642" r="6" class="c0"/>
</svg>
