<?xml version="1.0" encoding="utf-8"?>
<svg xmlns="http://www.w3.org/2000/svg"
     xmlns:xlink="http://www.w3.org/1999/xlink" width="1920" height="1440" >

            <defs>
            <style type="text/css"><![CDATA[
circle {stroke: none;}
.c0 {fill: #FFFFFF;}
]]></style>
            </defs>
<rect x="0" y="0" width="1920" height="1440" fill="black"/>
<circle cx="1334" cy="626" r="14" class="c0"/>
<circle cx="1450" cy="666" r="12" class="c0"/>
<circle cx="936" cy="444" r="12" class="c0"/>
<circle cx="984" cy="388" r="12" class="c0"/>
<circle cx="1022" cy="666" r="12" class="c0"/>
<circle cx="1030" cy="596" r="12" class="c0"/>
<circle cx="1022" cy="466" r="12" class="c0"/>
<circle cx="1076" cy="348" r="12" class="c0"/>
<circle cx="1122" cy="474" r="12" class="c0"/>
<circle cx="1070" cy="620" r="12" class="c0"/>
<circle cx="962" cy="686" r="12" class="c0"/>
<circle cx="1008" cy="422" r="12" class="c0"/>
<circle cx="1024" cy="512" r="12" class="c0"/>
<circle cx="1108" cy="732" r="12" class="c0"/>
<circle cx="1368" cy="682" r="12" class="c0"/>
<circle cx="640" cy="636" r="12" class="c0"/>
<circle cx="996" cy="522" r="12" class="c0"/>
<circle cx="1044" cy="622" r="10" class="c0"/>
<circle cx="1056" cy="562" r="10" class="c0"/>
<circle cx="986" cy="438" r="10" class="c0"/>
<circle cx="1110" cy="564" r="10" class="c0"/>
<circle cx="1170" cy="632" r="10" class="c0"/>
<circle cx="956" cy="362" r="10" class="c0"/>
<circle cx="946" cy="468" r="10" class="c0"/>
<circle cx="1038" cy="436" r="10" class="c0"/>
<circle cx="1060" cy="584" r="10" class="c0"/>
<circle cx="1088" cy="444" r="10" class="c0"/>
<circle cx="1024" cy="404" r="10" class="c0"/>
<circle cx="1050" cy="684" r="10" class="c0"/>
<circle cx="1296" cy="666" r="10" class="c0"/>
<circle cx="1200" cy="632" r="10" class="c0"/>
<circle cx="964" cy="512" r="10" class="c0"/>
<circle cx="1104" cy="536" r="10" class="c0"/>
<circle cx="992" cy="656" r="10" class="c0"/>
<circle cx="920" cy="322" r="10" class="c0"/>
<circle cx="1018" cy="550" r="10" class="c0"/>
<circle cx="1188" cy="610" r="10" class="c0"/>
<circle cx="1060" cy="656" r="10" class="c0"/>
<circle cx="1282" cy="648" r="10" class="c0"/>
<circle cx="1388" cy="670" r="10" class="c0"/>
<circle cx="1210" cy="664" r="10" class="c0"/>
<circle cx="1126" cy="672" r="10" class="c0"/>
<circle cx="1040" cy="348" r="10" class="c0"/>
<circle cx="1008" cy="612" r="10" class="c0"/>
<circle cx="1384" cy="646" r="10" class="c0"/>
<circle cx="1322" cy="688" r="10" class="c0"/>
<circle cx="1382" cy="734" r="10" class="c0"/>
<circle cx="1330" cy="668" r="10" class="c0"/>
<circle cx="1118" cy="524" r="10" class="c0"/>
<circle cx="1468" cy="696" r="10" class="c0"/>
<circle cx="902" cy="350" r="10" class="c0"/>
<circle cx="1220" cy="624" r="10" class="c0"/>
<circle cx="952" cy="388" r="10" class="c0"/>
<circle cx="1456" cy="714" r="10" class="c0"/>
<circle cx="1046" cy="500" r="10" class="c0"/>
<circle cx="1364" cy="714" r="10" class="c0"/>
<circle cx="1092" cy="638" r="10" class="c0"/>
<circle cx="1250" cy="694" r="10" class="c0"/>
<circle cx="1088" cy="710" r="10" class="c0"/>
<circle cx="654" cy="650" r="10" class="c0"/>
<circle cx="1276" cy="702" r="10" class="c0"/>
<circle cx="1088" cy="416" r="10" class="c0"/>
<circle cx="1166" cy="668" r="10" class="c0"/>
<circle cx="734" cy="646" r="10" class="c0"/>
<circle cx="1274" cy="670" r="10" class="c0"/>
<circle cx="1056" cy="522" r="10" class="c0"/>
<circle cx="1024" cy="326" r="10" class="c0"/>
<circle cx="1172" cy="588" r="10" class="c0"/>
<circle cx="1070" cy="454" r="10" class="c0"/>
<circle cx="680" cy="648" r="10" class="c0"/>
<circle cx="1054" cy="470" r="10" class="c0"/>
<circle cx="1238" cy="668" r="10" class="c0"/>
<circle cx="1090" cy="688" r="10" class="c0"/>
<circle cx="996" cy="460" r="10" class="c0"/>
<circle cx="1298" cy="632" r="10" class="c0"/>
<circle cx="936" cy="310" r="10" class="c0"/>
<circle cx="1012" cy="388" r="10" class="c0"/>
<circle cx="1100" cy="612" r="10" class="c0"/>
<circle cx="1298" cy="694" r="10" class="c0"/>
<circle cx="1340" cy="710" r="10" class="c0"/>
<circle cx="956" cy="592" r="8" class="c0"/>
<circle cx="1172" cy="692" r="8" class="c0"/>
<circle cx="1068" cy="408" r="8" class="c0"/>
<circle cx="1252" cy="716" r="8" class="c0"/>
<circle cx="1160" cy="486" r="8" class="c0"/>
<circle cx="1128" cy="546" r="8" class="c0"/>
<circle cx="1034" cy="376" r="8" class="c0"/>
<circle cx="1440" cy="688" r="8" class="c0"/>
<circle cx="1006" cy="678" r="8" class="c0"/>
<circle cx="932" cy="642" r="8" class="c0"/>
<circle cx="966" cy="410" r="8" class="c0"/>
<circle cx="1100" cy="464" r="8" class="c0"/>
<circle cx="1038" cy="646" r="8" class="c0"/>
<circle cx="1226" cy="700" r="8" class="c0"/>
<circle cx="980" cy="484" r="8" class="c0"/>
<circle cx="986" cy="358" r="8" class="c0"/>
<circle cx="932" cy="358" r="8" class="c0"/>
<circle cx="1178" cy="656" r="8" class="c0"/>
<circle cx="982" cy="336" r="8" class="c0"/>
<circle cx="778" cy="644" r="8" class="c0"/>
<circle cx="800" cy="666" r="8" class="c0"/>
<circle cx="1316" cy="718" r="8" class="c0"/>
<circle cx="914" cy="652" r="8" class="c0"/>
<circle cx="1434" cy="722" r="8" class="c0"/>
<circle cx="1416" cy="732" r="8" class="c0"/>
<circle cx="1120" cy="648" r="8" class="c0"/>
<circle cx="1354" cy="666" r="8" class="c0"/>
<circle cx="1128" cy="590" r="8" class="c0"/>
<circle cx="1404" cy="622" r="8" class="c0"/>
<circle cx="1258" cy="634" r="8" class="c0"/>
<circle cx="1044" cy="402" r="8" class="c0"/>
<circle cx="1230" cy="648" r="8" class="c0"/>
<circle cx="704" cy="640" r="8" class="c0"/>
<circle cx="1312" cy="648" r="8" class="c0"/>
<circle cx="1404" cy="682" r="8" class="c0"/>
<circle cx="1086" cy="474" r="8" class="c0"/>
<circle cx="1364" cy="656" r="8" class="c0"/>
<circle cx="1148" cy="618" r="8" class="c0"/>
<circle cx="1010" cy="366" r="8" class="c0"/>
<circle cx="860" cy="660" r="8" class="c0"/>
<circle cx="1362" cy="610" r="8" class="c0"/>
<circle cx="1082" cy="588" r="8" class="c0"/>
<circle cx="1412" cy="642" r="8" class="c0"/>
<circle cx="1194" cy="690" r="8" class="c0"/>
<circle cx="968" cy="374" r="8" class="c0"/>
<circle cx="1276" cy="624" r="8" class="c0"/>
<circle cx="1384" cy="624" r="8" class="c0"/>
<circle cx="1098" cy="488" r="8" class="c0"/>
<circle cx="1430" cy="700" r="8" class="c0"/>
<circle cx="1400" cy="718" r="8" class="c0"/>
<circle cx="1410" cy="702" r="8" class="c0"/>
<circle cx="1032" cy="564" r="8" class="c0"/>
<circle cx="972" cy="662" r="8" class="c0"/>
<circle cx="1024" cy="488" r="8" class="c0"/>
<circle cx="1310" cy="614" r="8" class="c0"/>
<circle cx="1342" cy="648" r="8" class="c0"/>
<circle cx="964" cy="432" r="8" class="c0"/>
<circle cx="612" cy="642" r="8" class="c0"/>
<circle cx="1056" cy="360" r="8" class="c0"/>
<circle cx="820" cy="652" r="8" class="c0"/>
<circle cx="1058" cy="330" r="8" class="c0"/>
<circle cx="1352" cy="694" r="8" class="c0"/>
<circle cx="850" cy="650" r="8" class="c0"/>
<circle cx="988" cy="684" r="8" class="c0"/>
<circle cx="1056" cy="428" r="8" class="c0"/>
<circle cx="1064" cy="540" r="8" class="c0"/>
<circle cx="1076" cy="754" r="8" class="c0"/>
<circle cx="780" cy="670" r="8" class="c0"/>
<circle cx="1426" cy="662" r="8" class="c0"/>
<circle cx="1078" cy="550" r="8" class="c0"/>
<circle cx="930" cy="662" r="8" class="c0"/>
<circle cx="1132" cy="496" r="8" class="c0"/>
<circle cx="1154" cy="644" r="8" class="c0"/>
<circle cx="1100" cy="662" r="8" class="c0"/>
<circle cx="1112" cy="700" r="8" class="c0"/>
<circle cx="1138" cy="634" r="8" class="c0"/>
<circle cx="1204" cy="704" r="8" class="c0"/>
<circle cx="980" cy="538" r="8" class="c0"/>
<circle cx="1292" cy="722" r="8" class="c0"/>
<circle cx="966" cy="564" r="8" class="c0"/>
<circle cx="1016" cy="638" r="8" class="c0"/>
<circle cx="1122" cy="624" r="8" class="c0"/>
<circle cx="1210" cy="606" r="8" class="c0"/>
<circle cx="1116" cy="452" r="8" class="c0"/>
<circle cx="1134" cy="568" r="8" class="c0"/>
<circle cx="1090" cy="568" r="8" class="c0"/>
<circle cx="1062" cy="488" r="8" class="c0"/>
<circle cx="718" cy="656" r="8" class="c0"/>
<circle cx="884" cy="662" r="8" class="c0"/>
<circle cx="672" cy="670" r="8" class="c0"/>
<circle cx="1354" cy="736" r="8" class="c0"/>
<circle cx="1036" cy="538" r="8" class="c0"/>
<circle cx="1286" cy="682" r="8" class="c0"/>
<circle cx="1260" cy="652" r="8" class="c0"/>
<circle cx="1000" cy="340" r="8" class="c0"/>
<circle cx="744" cy="662" r="8" class="c0"/>
<circle cx="802" cy="644" r="8" class="c0"/>
<circle cx="596" cy="630" r="8" class="c0"/>
<circle cx="992" cy="494" r="8" class="c0"/>
<circle cx="1154" cy="580" r="8" class="c0"/>
<circle cx="1072" cy="726" r="8" class="c0"/>
<circle cx="922" cy="346" r="8" class="c0"/>
<circle cx="1262" cy="682" r="8" class="c0"/>
<circle cx="916" cy="368" r="8" class="c0"/>
<circle cx="1216" cy="686" r="8" class="c0"/>
<circle cx="934" cy="378" r="8" class="c0"/>
<circle cx="768" cy="656" r="8" class="c0"/>
<circle cx="932" cy="622" r="8" class="c0"/>
<circle cx="1364" cy="630" r="8" class="c0"/>
<circle cx="1072" cy="698" r="8" class="c0"/>
<circle cx="1402" cy="658" r="8" class="c0"/>
<circle cx="1388" cy="700" r="8" class="c0"/>
<circle cx="890" cy="334" r="8" class="c0"/>
<circle cx="1118" cy="602" r="8" class="c0"/>
<circle cx="942" cy="608" r="8" class="c0"/>
<circle cx="666" cy="630" r="8" class="c0"/>
<circle cx="1332" cy="730" r="8" class="c0"/>
<circle cx="1070" cy="678" r="8" class="c0"/>
<circle cx="996" cy="406" r="8" class="c0"/>
<circle cx="1402" cy="748" r="8" class="c0"/>
<circle cx="992" cy="624" r="8" class="c0"/>
<circle cx="954" cy="422" r="8" class="c0"/>
<circle cx="1108" cy="506" r="8" class="c0"/>
<circle cx="984" cy="416" r="8" class="c0"/>
<circle cx="904" cy="662" r="8" class="c0"/>
<circle cx="1000" cy="376" r="8" class="c0"/>
<circle cx="1072" cy="642" r="8" class="c0"/>
<circle cx="760" cy="640" r="8" class="c0"/>
<circle cx="1100" cy="360" r="8" class="c0"/>
<circle cx="1146" cy="678" r="8" class="c0"/>
<circle cx="948" cy="660" r="8" class="c0"/>
<circle cx="1076" cy="432" r="8" class="c0"/>
<circle cx="1082" cy="660" r="8" class="c0"/>
<circle cx="998" cy="544" r="8" class="c0"/>
<circle cx="1018" cy="444" r="8" class="c0"/>
<circle cx="976" cy="642" r="8" class="c0"/>
<circle cx="1184" cy="680" r="8" class="c0"/>
<circle cx="1026" cy="694" r="8" class="c0"/>
<circle cx="916" cy="294" r="8" class="c0"/>
<circle cx="874" cy="650" r="8" class="c0"/>
<circle cx="1248" cy="624" r="6" class="c0"/>
<circle cx="962" cy="478" r="6" class="c0"/>
<circle cx="1142" cy="480" r="6" class="c0"/>
<circle cx="1056" cy="634" r="6" class="c0"/>
<circle cx="970" cy="348" r="6" class="c0"/>
<circle cx="1226" cy="580" r="6" class="c0"/>
<circle cx="1168" cy="614" r="6" class="c0"/>
<circle cx="1026" cy="620" r="6" class="c0"/>
<circle cx="1218" cy="714" r="6" class="c0"/>
<circle cx="1042" cy="482" r="6" class="c0"/>
<circle cx="1044" cy="666" r="6" class="c0"/>
<circle cx="1116" cy="750" r="6" class="c0"/>
<circle cx="894" cy="652" r="6" class="c0"/>
<circle cx="696" cy="658" r="6" class="c0"/>
<circle cx="754" cy="672" r="6" class="c0"/>
<circle cx="788" cy="656" r="6" class="c0"/>
<circle cx="1108" cy="430" r="6" class="c0"/>
<circle cx="980" cy="700" r="6" class="c0"/>
<circle cx="812" cy="682" r="6" class="c0"/>
<circle cx="1108" cy="676" r="6" class="c0"/>
<circle cx="1136" cy="526" r="6" class="c0"/>
<circle cx="1042" cy="324" r="6" class="c0"/>
<circle cx="1184" cy="576" r="6" class="c0"/>
<circle cx="616" cy="626" r="6" class="c0"/>
<circle cx="1140" cy="464" r="6" class="c0"/>
<circle cx="1422" cy="682" r="6" class="c0"/>
<circle cx="1134" cy="610" r="6" class="c0"/>
<circle cx="1016" cy="574" r="6" class="c0"/>
<circle cx="946" cy="348" r="6" class="c0"/>
<circle cx="1042" cy="458" r="6" class="c0"/>
<circle cx="1196" cy="582" r="6" class="c0"/>
<circle cx="1058" cy="602" r="6" class="c0"/>
<circle cx="1024" cy="356" r="6" class="c0"/>
<circle cx="1098" cy="590" r="6" class="c0"/>
<circle cx="1242" cy="638" r="6" class="c0"/>
<circle cx="688" cy="632" r="6" class="c0"/>
<circle cx="984" cy="508" r="6" class="c0"/>
<circle cx="1072" cy="598" r="6" class="c0"/>
<circle cx="1232" cy="716" r="6" class="c0"/>
<circle cx="1000" cy="480" r="6" class="c0"/>
<circle cx="1086" cy="500" r="6" class="c0"/>
<circle cx="958" cy="650" r="6" class="c0"/>
<circle cx="1046" cy="418" r="6" class="c0"/>
<circle cx="1088" cy="734" r="6" class="c0"/>
<circle cx="960" cy="494" r="6" class="c0"/>
<circle cx="1346" cy="606" r="6" class="c0"/>
<circle cx="998" cy="700" r="6" class="c0"/>
<circle cx="940" cy="400" r="6" class="c0"/>
<circle cx="1120" cy="714" r="6" class="c0"/>
<circle cx="1390" cy="608" r="6" class="c0"/>
<circle cx="1040" cy="578" r="6" class="c0"/>
<circle cx="1214" cy="644" r="6" class="c0"/>
<circle cx="1054" cy="446" r="6" class="c0"/>
<circle cx="924" cy="460" r="6" class="c0"/>
<circle cx="1292" cy="614" r="6" class="c0"/>
<circle cx="1150" cy="660" r="6" class="c0"/>
<circle cx="1428" cy="644" r="6" class="c0"/>
<circle cx="1150" cy="498" r="6" class="c0"/>
<circle cx="1384" cy="716" r="6" class="c0"/>
<circle cx="1008" cy="492" r="6" class="c0"/>
<circle cx="1074" cy="572" r="6" class="c0"/>
<circle cx="1000" cy="320" r="6" class="c0"/>
<circle cx="1112" cy="586" r="6" class="c0"/>
<circle cx="1470" cy="668" r="6" class="c0"/>
<circle cx="1368" cy="744" r="6" class="c0"/>
<circle cx="1136" cy="658" r="6" class="c0"/>
<circle cx="1188" cy="644" r="6" class="c0"/>
<circle cx="1324" cy="606" r="6" class="c0"/>
<circle cx="1386" cy="752" r="6" class="c0"/>
<circle cx="1110" cy="634" r="6" class="c0"/>
<circle cx="1344" cy="680" r="6" class="c0"/>
<circle cx="1078" cy="492" r="6" class="c0"/>
<circle cx="978" cy="554" r="6" class="c0"/>
<circle cx="1414" cy="672" r="6" class="c0"/>
<circle cx="1130" cy="512" r="6" class="c0"/>
<circle cx="1118" cy="374" r="6" class="c0"/>
<circle cx="1192" cy="666" r="6" class="c0"/>
<circle cx="906" cy="332" r="6" class="c0"/>
<circle cx="1272" cy="720" r="6" class="c0"/>
<circle cx="790" cy="680" r="6" class="c0"/>
<circle cx="1046" cy="548" r="6" class="c0"/>
<circle cx="1016" cy="532" r="6" class="c0"/>
<circle cx="1438" cy="652" r="6" class="c0"/>
<circle cx="922" cy="632" r="6" class="c0"/>
<circle cx="1212" cy="582" r="6" class="c0"/>
<circle cx="1262" cy="616" r="6" class="c0"/>
<circle cx="728" cy="666" r="6" class="c0"/>
<circle cx="968" cy="580" r="6" class="c0"/>
<circle cx="1152" cy="470" r="6" class="c0"/>
<circle cx="838" cy="660" r="6" class="c0"/>
<circle cx="1016" cy="344" r="6" class="c0"/>
<circle cx="1066" cy="504" r="6" class="c0"/>
<circle cx="948" cy="698" r="6" class="c0"/>
<circle cx="1312" cy="674" r="6" class="c0"/>
<circle cx="720" cy="636" r="6" class="c0"/>
<circle cx="1094" cy="552" r="6" class="c0"/>
<circle cx="976" cy="500" r="6" class="c0"/>
<circle cx="964" cy="534" r="6" class="c0"/>
<circle cx="1418" cy="716" r="6" class="c0"/>
<circle cx="1048" cy="384" r="6" class="c0"/>
<circle cx="1198" cy="652" r="6" class="c0"/>
<circle cx="946" cy="676" r="6" class="c0"/>
<circle cx="1142" cy="506" r="6" class="c0"/>
<circle cx="1000" cy="640" r="6" class="c0"/>
<circle cx="1472" cy="724" r="6" class="c0"/>
<circle cx="956" cy="574" r="6" class="c0"/>
<circle cx="1082" cy="606" r="6" class="c0"/>
<circle cx="1240" cy="584" r="6" class="c0"/>
<circle cx="1198" cy="596" r="6" class="c0"/>
<circle cx="956" cy="446" r="6" class="c0"/>
<circle cx="1234" cy="686" r="6" class="c0"/>
</svg>
