<?xml version="1.0" encoding="utf-8"?>
<svg xmlns="http://www.w3.org/2000/svg"
     xmlns:xlink="http://www.w3.org/1999/xlink" width="1920" height="1440" >

            <defs>
            <style type="text/css"><![CDATA[
circle {stroke: none;}
.c0 {fill: #FFFFFF;}
]]></style>
            </defs>
<rect x="0" y="0" width="1920" height="1440" fill="black"/>
<circle cx="1014" cy="596" r="12" class="c0"/>
<circle cx="1408" cy="708" r="12" class="c0"/>
<circle cx="1250" cy="702" r="12" class="c0"/>
<circle cx="988" cy="342" r="12" class="c0"/>
<circle cx="1042" cy="608" r="12" class="c0"/>
<circle cx="1004" cy="650" r="12" class="c0"/>
<circle cx="1432" cy="690" r="12" class="c0"/>
<circle cx="1154" cy="618" r="12" class="c0"/>
<circle cx="1384" cy="610" r="12" class="c0"/>
<circle cx="1356" cy="684" r="12" class="c0"/>
<circle cx="1146" cy="652" r="12" class="c0"/>
<circle cx="1270" cy="632" r="12" class="c0"/>
<circle cx="1122" cy="632" r="12" class="c0"/>
<circle cx="644" cy="624" r="10" class="c0"/>
<circle cx="966" cy="676" r="10" class="c0"/>
<circle cx="1004" cy="540" r="10" class="c0"/>
<circle cx="1186" cy="656" r="10" class="c0"/>
<circle cx="1220" cy="618" r="10" class="c0"/>
<circle cx="984" cy="386" r="10" class="c0"/>
<circle cx="1046" cy="674" r="10" class="c0"/>
<circle cx="1044" cy="636" r="10" class="c0"/>
<circle cx="1086" cy="456" r="10" class="c0"/>
<circle cx="1004" cy="314" r="10" class="c0"/>
<circle cx="904" cy="310" r="10" class="c0"/>
<circle cx="1064" cy="432" r="10" class="c0"/>
<circle cx="1160" cy="676" r="10" class="c0"/>
<circle cx="1114" cy="450" r="10" class="c0"/>
<circle cx="1108" cy="662" r="10" class="c0"/>
<circle cx="1086" cy="610" r="10" class="c0"/>
<circle cx="924" cy="374" r="10" class="c0"/>
<circle cx="956" cy="346" r="10" class="c0"/>
<circle cx="1096" cy="684" r="10" class="c0"/>
<circle cx="1328" cy="714" r="10" class="c0"/>
<circle cx="616" cy="628" r="10" class="c0"/>
<circle cx="1100" cy="518" r="10" class="c0"/>
<circle cx="1086" cy="408" r="10" class="c0"/>
<circle cx="1388" cy="724" r="10" class="c0"/>
<circle cx="1232" cy="658" r="10" class="c0"/>
<circle cx="1072" cy="544" r="10" class="c0"/>
<circle cx="896" cy="646" r="10" class="c0"/>
<circle cx="1022" cy="522" r="10" class="c0"/>
<circle cx="1318" cy="684" r="10" class="c0"/>
<circle cx="992" cy="520" r="10" class="c0"/>
<circle cx="1382" cy="638" r="10" class="c0"/>
<circle cx="1040" cy="408" r="10" class="c0"/>
<circle cx="1072" cy="650" r="10" class="c0"/>
<circle cx="1006" cy="618" r="10" class="c0"/>
<circle cx="1060" cy="590" r="10" class="c0"/>
<circle cx="972" cy="358" r="10" class="c0"/>
<circle cx="1400" cy="624" r="10" class="c0"/>
<circle cx="828" cy="640" r="10" class="c0"/>
<circle cx="1360" cy="716" r="10" class="c0"/>
<circle cx="1096" cy="548" r="10" class="c0"/>
<circle cx="1168" cy="636" r="10" class="c0"/>
<circle cx="1042" cy="438" r="10" class="c0"/>
<circle cx="1188" cy="580" r="10" class="c0"/>
<circle cx="1000" cy="490" r="10" class="c0"/>
<circle cx="1018" cy="678" r="10" class="c0"/>
<circle cx="1338" cy="628" r="10" class="c0"/>
<circle cx="1006" cy="458" r="10" class="c0"/>
<circle cx="1270" cy="672" r="10" class="c0"/>
<circle cx="1198" cy="630" r="10" class="c0"/>
<circle cx="936" cy="642" r="10" class="c0"/>
<circle cx="1404" cy="678" r="10" class="c0"/>
<circle cx="1018" cy="440" r="10" class="c0"/>
<circle cx="928" cy="352" r="10" class="c0"/>
<circle cx="1310" cy="640" r="10" class="c0"/>
<circle cx="766" cy="634" r="10" class="c0"/>
<circle cx="1116" cy="576" r="10" class="c0"/>
<circle cx="746" cy="644" r="10" class="c0"/>
<circle cx="958" cy="476" r="10" class="c0"/>
<circle cx="1422" cy="650" r="10" class="c0"/>
<circle cx="964" cy="412" r="10" class="c0"/>
<circle cx="1300" cy="670" r="10" class="c0"/>
<circle cx="974" cy="650" r="10" class="c0"/>
<circle cx="1042" cy="504" r="10" class="c0"/>
<circle cx="984" cy="460" r="10" class="c0"/>
<circle cx="1098" cy="624" r="8" class="c0"/>
<circle cx="914" cy="630" r="8" class="c0"/>
<circle cx="1082" cy="568" r="8" class="c0"/>
<circle cx="710" cy="656" r="8" class="c0"/>
<circle cx="1066" cy="454" r="8" class="c0"/>
<circle cx="1034" cy="656" r="8" class="c0"/>
<circle cx="984" cy="686" r="8" class="c0"/>
<circle cx="1318" cy="610" r="8" class="c0"/>
<circle cx="1064" cy="486" r="8" class="c0"/>
<circle cx="1076" cy="672" r="8" class="c0"/>
<circle cx="1062" cy="622" r="8" class="c0"/>
<circle cx="950" cy="382" r="8" class="c0"/>
<circle cx="1090" cy="480" r="8" class="c0"/>
<circle cx="1232" cy="636" r="8" class="c0"/>
<circle cx="938" cy="670" r="8" class="c0"/>
<circle cx="1122" cy="676" r="8" class="c0"/>
<circle cx="1054" cy="518" r="8" class="c0"/>
<circle cx="1042" cy="468" r="8" class="c0"/>
<circle cx="1018" cy="632" r="8" class="c0"/>
<circle cx="1208" cy="656" r="8" class="c0"/>
<circle cx="1038" cy="572" r="8" class="c0"/>
<circle cx="984" cy="628" r="8" class="c0"/>
<circle cx="1380" cy="696" r="8" class="c0"/>
<circle cx="1340" cy="668" r="8" class="c0"/>
<circle cx="1034" cy="332" r="8" class="c0"/>
<circle cx="1348" cy="650" r="8" class="c0"/>
<circle cx="1030" cy="352" r="8" class="c0"/>
<circle cx="1068" cy="704" r="8" class="c0"/>
<circle cx="994" cy="604" r="8" class="c0"/>
<circle cx="938" cy="424" r="8" class="c0"/>
<circle cx="1128" cy="464" r="8" class="c0"/>
<circle cx="1300" cy="612" r="8" class="c0"/>
<circle cx="1460" cy="686" r="8" class="c0"/>
<circle cx="964" cy="540" r="8" class="c0"/>
<circle cx="1020" cy="374" r="8" class="c0"/>
<circle cx="1366" cy="662" r="8" class="c0"/>
<circle cx="1012" cy="332" r="8" class="c0"/>
<circle cx="1142" cy="450" r="8" class="c0"/>
<circle cx="1110" cy="612" r="8" class="c0"/>
<circle cx="1018" cy="482" r="8" class="c0"/>
<circle cx="1044" cy="320" r="8" class="c0"/>
<circle cx="1102" cy="732" r="8" class="c0"/>
<circle cx="1030" cy="556" r="8" class="c0"/>
<circle cx="1228" cy="578" r="8" class="c0"/>
<circle cx="976" cy="486" r="8" class="c0"/>
<circle cx="1048" cy="544" r="8" class="c0"/>
<circle cx="922" cy="434" r="8" class="c0"/>
<circle cx="1456" cy="662" r="8" class="c0"/>
<circle cx="1296" cy="706" r="8" class="c0"/>
<circle cx="960" cy="562" r="8" class="c0"/>
<circle cx="1052" cy="396" r="8" class="c0"/>
<circle cx="1372" cy="734" r="8" class="c0"/>
<circle cx="958" cy="324" r="8" class="c0"/>
<circle cx="1328" cy="600" r="8" class="c0"/>
<circle cx="1028" cy="622" r="8" class="c0"/>
<circle cx="1232" cy="688" r="8" class="c0"/>
<circle cx="992" cy="430" r="8" class="c0"/>
<circle cx="1388" cy="658" r="8" class="c0"/>
<circle cx="954" cy="662" r="8" class="c0"/>
<circle cx="982" cy="504" r="8" class="c0"/>
<circle cx="1248" cy="616" r="8" class="c0"/>
<circle cx="1090" cy="434" r="8" class="c0"/>
<circle cx="890" cy="358" r="8" class="c0"/>
<circle cx="1082" cy="632" r="8" class="c0"/>
<circle cx="710" cy="626" r="8" class="c0"/>
<circle cx="734" cy="630" r="8" class="c0"/>
<circle cx="858" cy="644" r="8" class="c0"/>
<circle cx="988" cy="666" r="8" class="c0"/>
<circle cx="1128" cy="610" r="8" class="c0"/>
<circle cx="876" cy="648" r="8" class="c0"/>
<circle cx="1330" cy="654" r="8" class="c0"/>
<circle cx="658" cy="648" r="8" class="c0"/>
<circle cx="1070" cy="730" r="8" class="c0"/>
<circle cx="1094" cy="646" r="8" class="c0"/>
<circle cx="1000" cy="370" r="8" class="c0"/>
<circle cx="1276" cy="708" r="8" class="c0"/>
<circle cx="1220" cy="678" r="8" class="c0"/>
<circle cx="1362" cy="636" r="8" class="c0"/>
<circle cx="1084" cy="586" r="8" class="c0"/>
<circle cx="932" cy="452" r="8" class="c0"/>
<circle cx="1260" cy="650" r="8" class="c0"/>
<circle cx="1098" cy="596" r="8" class="c0"/>
<circle cx="780" cy="678" r="8" class="c0"/>
<circle cx="1194" cy="694" r="8" class="c0"/>
<circle cx="1008" cy="354" r="8" class="c0"/>
<circle cx="1290" cy="650" r="8" class="c0"/>
<circle cx="928" cy="610" r="8" class="c0"/>
<circle cx="904" cy="340" r="8" class="c0"/>
<circle cx="1250" cy="678" r="8" class="c0"/>
<circle cx="1086" cy="706" r="8" class="c0"/>
<circle cx="674" cy="638" r="8" class="c0"/>
<circle cx="1060" cy="564" r="8" class="c0"/>
<circle cx="964" cy="496" r="8" class="c0"/>
<circle cx="800" cy="646" r="8" class="c0"/>
<circle cx="1180" cy="618" r="8" class="c0"/>
<circle cx="698" cy="638" r="8" class="c0"/>
<circle cx="586" cy="626" r="8" class="c0"/>
<circle cx="1126" cy="554" r="8" class="c0"/>
<circle cx="946" cy="574" r="8" class="c0"/>
<circle cx="1358" cy="616" r="8" class="c0"/>
<circle cx="964" cy="516" r="8" class="c0"/>
<circle cx="782" cy="644" r="8" class="c0"/>
<circle cx="1008" cy="390" r="8" class="c0"/>
<circle cx="1286" cy="684" r="8" class="c0"/>
<circle cx="1146" cy="574" r="8" class="c0"/>
<circle cx="952" cy="690" r="8" class="c0"/>
<circle cx="866" cy="344" r="8" class="c0"/>
<circle cx="894" cy="326" r="8" class="c0"/>
<circle cx="1084" cy="346" r="8" class="c0"/>
<circle cx="1018" cy="412" r="8" class="c0"/>
<circle cx="1348" cy="600" r="8" class="c0"/>
<circle cx="1058" cy="692" r="8" class="c0"/>
<circle cx="1074" cy="470" r="8" class="c0"/>
<circle cx="722" cy="640" r="8" class="c0"/>
<circle cx="1112" cy="722" r="8" class="c0"/>
<circle cx="1272" cy="610" r="8" class="c0"/>
<circle cx="598" cy="616" r="8" class="c0"/>
<circle cx="760" cy="674" r="8" class="c0"/>
<circle cx="1020" cy="502" r="8" class="c0"/>
<circle cx="1218" cy="702" r="8" class="c0"/>
<circle cx="904" cy="370" r="8" class="c0"/>
<circle cx="1110" cy="470" r="8" class="c0"/>
<circle cx="1306" cy="716" r="8" class="c0"/>
<circle cx="1108" cy="702" r="8" class="c0"/>
<circle cx="1028" cy="390" r="8" class="c0"/>
<circle cx="1058" cy="336" r="8" class="c0"/>
<circle cx="944" cy="364" r="8" class="c0"/>
<circle cx="1116" cy="542" r="8" class="c0"/>
<circle cx="1164" cy="572" r="8" class="c0"/>
<circle cx="664" cy="628" r="8" class="c0"/>
<circle cx="1340" cy="728" r="8" class="c0"/>
<circle cx="948" cy="434" r="8" class="c0"/>
<circle cx="1068" cy="748" r="8" class="c0"/>
<circle cx="730" cy="656" r="8" class="c0"/>
<circle cx="1444" cy="706" r="8" class="c0"/>
<circle cx="688" cy="628" r="8" class="c0"/>
<circle cx="1438" cy="664" r="8" class="c0"/>
<circle cx="918" cy="650" r="8" class="c0"/>
<circle cx="982" cy="308" r="8" class="c0"/>
<circle cx="938" cy="394" r="8" class="c0"/>
<circle cx="1052" cy="654" r="8" class="c0"/>
<circle cx="1120" cy="520" r="8" class="c0"/>
<circle cx="1012" cy="562" r="6" class="c0"/>
<circle cx="996" cy="472" r="6" class="c0"/>
<circle cx="952" cy="452" r="6" class="c0"/>
<circle cx="982" cy="442" r="6" class="c0"/>
<circle cx="842" cy="652" r="6" class="c0"/>
<circle cx="888" cy="292" r="6" class="c0"/>
<circle cx="1380" cy="672" r="6" class="c0"/>
<circle cx="1286" cy="622" r="6" class="c0"/>
<circle cx="1196" cy="674" r="6" class="c0"/>
<circle cx="982" cy="408" r="6" class="c0"/>
<circle cx="1250" cy="634" r="6" class="c0"/>
<circle cx="1050" cy="422" r="6" class="c0"/>
<circle cx="960" cy="638" r="6" class="c0"/>
<circle cx="1294" cy="632" r="6" class="c0"/>
<circle cx="1084" cy="532" r="6" class="c0"/>
<circle cx="1266" cy="692" r="6" class="c0"/>
<circle cx="972" cy="430" r="6" class="c0"/>
<circle cx="1166" cy="654" r="6" class="c0"/>
<circle cx="1138" cy="480" r="6" class="c0"/>
<circle cx="1398" cy="646" r="6" class="c0"/>
<circle cx="962" cy="394" r="6" class="c0"/>
<circle cx="946" cy="464" r="6" class="c0"/>
<circle cx="1100" cy="424" r="6" class="c0"/>
<circle cx="1068" cy="398" r="6" class="c0"/>
<circle cx="1178" cy="684" r="6" class="c0"/>
<circle cx="1030" cy="538" r="6" class="c0"/>
<circle cx="804" cy="688" r="6" class="c0"/>
<circle cx="1372" cy="596" r="6" class="c0"/>
<circle cx="1024" cy="316" r="6" class="c0"/>
<circle cx="884" cy="340" r="6" class="c0"/>
<circle cx="1066" cy="414" r="6" class="c0"/>
<circle cx="1420" cy="722" r="6" class="c0"/>
<circle cx="688" cy="648" r="6" class="c0"/>
<circle cx="1026" cy="460" r="6" class="c0"/>
<circle cx="1140" cy="682" r="6" class="c0"/>
<circle cx="750" cy="664" r="6" class="c0"/>
<circle cx="968" cy="630" r="6" class="c0"/>
<circle cx="1098" cy="574" r="6" class="c0"/>
<circle cx="996" cy="404" r="6" class="c0"/>
<circle cx="946" cy="408" r="6" class="c0"/>
<circle cx="970" cy="334" r="6" class="c0"/>
<circle cx="1124" cy="592" r="6" class="c0"/>
<circle cx="1044" cy="486" r="6" class="c0"/>
<circle cx="1290" cy="600" r="6" class="c0"/>
<circle cx="1148" cy="466" r="6" class="c0"/>
<circle cx="1412" cy="730" r="6" class="c0"/>
<circle cx="1008" cy="512" r="6" class="c0"/>
<circle cx="978" cy="532" r="6" class="c0"/>
<circle cx="1314" cy="660" r="6" class="c0"/>
<circle cx="1112" cy="506" r="6" class="c0"/>
<circle cx="1126" cy="654" r="6" class="c0"/>
<circle cx="1388" cy="744" r="6" class="c0"/>
<circle cx="864" cy="326" r="6" class="c0"/>
<circle cx="1034" cy="588" r="6" class="c0"/>
<circle cx="1218" cy="644" r="6" class="c0"/>
<circle cx="934" cy="594" r="6" class="c0"/>
<circle cx="1206" cy="578" r="6" class="c0"/>
<circle cx="1396" cy="694" r="6" class="c0"/>
<circle cx="918" cy="300" r="6" class="c0"/>
<circle cx="1320" cy="626" r="6" class="c0"/>
<circle cx="1420" cy="670" r="6" class="c0"/>
<circle cx="922" cy="392" r="6" class="c0"/>
<circle cx="1338" cy="700" r="6" class="c0"/>
<circle cx="1406" cy="658" r="6" class="c0"/>
<circle cx="1028" cy="424" r="6" class="c0"/>
<circle cx="1022" cy="574" r="6" class="c0"/>
<circle cx="1006" cy="422" r="6" class="c0"/>
<circle cx="760" cy="654" r="6" class="c0"/>
<circle cx="998" cy="676" r="6" class="c0"/>
<circle cx="1414" cy="634" r="6" class="c0"/>
<circle cx="1428" cy="714" r="6" class="c0"/>
<circle cx="960" cy="372" r="6" class="c0"/>
<circle cx="1356" cy="736" r="6" class="c0"/>
<circle cx="1044" cy="528" r="6" class="c0"/>
<circle cx="1062" cy="664" r="6" class="c0"/>
<circle cx="1446" cy="650" r="6" class="c0"/>
<circle cx="1034" cy="686" r="6" class="c0"/>
<circle cx="1086" cy="662" r="6" class="c0"/>
<circle cx="1410" cy="610" r="6" class="c0"/>
<circle cx="1100" cy="354" r="6" class="c0"/>
<circle cx="1092" cy="722" r="6" class="c0"/>
<circle cx="1098" cy="496" r="6" class="c0"/>
<circle cx="1448" cy="676" r="6" class="c0"/>
<circle cx="1108" cy="560" r="6" class="c0"/>
<circle cx="628" cy="616" r="6" class="c0"/>
<circle cx="1204" cy="684" r="6" class="c0"/>
<circle cx="1058" cy="534" r="6" class="c0"/>
<circle cx="1314" cy="702" r="6" class="c0"/>
<circle cx="1244" cy="646" r="6" class="c0"/>
<circle cx="1004" cy="688" r="6" class="c0"/>
<circle cx="1074" cy="688" r="6" class="c0"/>
<circle cx="1308" cy="598" r="6" class="c0"/>
<circle cx="1372" cy="624" r="6" class="c0"/>
<circle cx="1068" cy="606" r="6" class="c0"/>
<circle cx="1112" cy="432" r="6" class="c0"/>
<circle cx="668" cy="658" r="6" class="c0"/>
<circle cx="1136" cy="668" r="6" class="c0"/>
<circle cx="576" cy="612" r="6" class="c0"/>
<circle cx="1030" cy="492" r="6" class="c0"/>
<circle cx="978" cy="326" r="6" class="c0"/>
<circle cx="1130" cy="440" r="6" class="c0"/>
<circle cx="634" cy="638" r="6" class="c0"/>
<circle cx="1454" cy="718" r="6" class="c0"/>
<circle cx="940" cy="338" r="6" class="c0"/>
<circle cx="928" cy="660" r="6" class="c0"/>
<circle cx="810" cy="636" r="6" class="c0"/>
<circle cx="980" cy="612" r="6" class="c0"/>
<circle cx="1400" cy="600" r="6" class="c0"/>
<circle cx="816" cy="652" r="6" class="c0"/>
<circle cx="1336" cy="686" r="6" class="c0"/>
<circle cx="948" cy="592" r="6" class="c0"/>
<circle cx="906" cy="660" r="6" class="c0"/>
<circle cx="1202" cy="612" r="6" class="c0"/>
<circle cx="738" cy="670" r="6" class="c0"/>
<circle cx="1250" cy="660" r="6" class="c0"/>
</svg>
