<?xml version="1.0" encoding="utf-8"?>
<svg xmlns="http://www.w3.org/2000/svg"
     xmlns:xlink="http://www.w3.org/1999/xlink" width="1920" height="1440" >

            <defs>
            <style type="text/css"><![CDATA[
circle {stroke: none;}
.c0 {fill: #FFFFFF;}
]]></style>
            </defs>
<rect x="0" y="0" width="1920" height="1440" fill="black"/>
<circle cx="982" cy="624" r="12" class="c0"/>
<circle cx="762" cy="658" r="12" class="c0"/>
<circle cx="1140" cy="628" r="12" class="c0"/>
<circle cx="850" cy="362" r="12" class="c0"/>
<circle cx="1026" cy="610" r="12" class="c0"/>
<circle cx="1072" cy="716" r="12" class="c0"/>
<circle cx="996" cy="672" r="12" class="c0"/>
<circle cx="1008" cy="460" r="12" class="c0"/>
<circle cx="1236" cy="634" r="12" class="c0"/>
<circle cx="950" cy="628" r="12" class="c0"/>
<circle cx="1076" cy="600" r="12" class="c0"/>
<circle cx="1378" cy="642" r="10" class="c0"/>
<circle cx="990" cy="372" r="10" class="c0"/>
<circle cx="998" cy="396" r="10" class="c0"/>
<circle cx="1282" cy="596" r="10" class="c0"/>
<circle cx="1330" cy="624" r="10" class="c0"/>
<circle cx="1106" cy="680" r="10" class="c0"/>
<circle cx="976" cy="516" r="10" class="c0"/>
<circle cx="906" cy="364" r="10" class="c0"/>
<circle cx="874" cy="350" r="10" class="c0"/>
<circle cx="992" cy="444" r="10" class="c0"/>
<circle cx="994" cy="602" r="10" class="c0"/>
<circle cx="1416" cy="708" r="10" class="c0"/>
<circle cx="1330" cy="666" r="10" class="c0"/>
<circle cx="1004" cy="344" r="10" class="c0"/>
<circle cx="958" cy="674" r="10" class="c0"/>
<circle cx="1106" cy="498" r="10" class="c0"/>
<circle cx="1138" cy="668" r="10" class="c0"/>
<circle cx="1064" cy="572" r="10" class="c0"/>
<circle cx="1052" cy="400" r="10" class="c0"/>
<circle cx="1040" cy="634" r="10" class="c0"/>
<circle cx="1356" cy="638" r="10" class="c0"/>
<circle cx="1308" cy="662" r="10" class="c0"/>
<circle cx="1260" cy="670" r="10" class="c0"/>
<circle cx="1222" cy="614" r="10" class="c0"/>
<circle cx="1332" cy="704" r="10" class="c0"/>
<circle cx="1402" cy="680" r="10" class="c0"/>
<circle cx="1236" cy="692" r="10" class="c0"/>
<circle cx="1070" cy="658" r="10" class="c0"/>
<circle cx="1016" cy="558" r="10" class="c0"/>
<circle cx="688" cy="638" r="10" class="c0"/>
<circle cx="926" cy="420" r="10" class="c0"/>
<circle cx="1090" cy="644" r="10" class="c0"/>
<circle cx="1094" cy="454" r="10" class="c0"/>
<circle cx="980" cy="416" r="10" class="c0"/>
<circle cx="592" cy="616" r="10" class="c0"/>
<circle cx="940" cy="398" r="10" class="c0"/>
<circle cx="642" cy="622" r="10" class="c0"/>
<circle cx="1014" cy="436" r="10" class="c0"/>
<circle cx="932" cy="360" r="10" class="c0"/>
<circle cx="764" cy="634" r="10" class="c0"/>
<circle cx="1078" cy="422" r="10" class="c0"/>
<circle cx="1394" cy="702" r="10" class="c0"/>
<circle cx="1034" cy="486" r="10" class="c0"/>
<circle cx="1308" cy="630" r="10" class="c0"/>
<circle cx="1172" cy="660" r="10" class="c0"/>
<circle cx="1128" cy="606" r="10" class="c0"/>
<circle cx="1210" cy="690" r="10" class="c0"/>
<circle cx="1282" cy="684" r="10" class="c0"/>
<circle cx="1396" cy="628" r="10" class="c0"/>
<circle cx="946" cy="570" r="10" class="c0"/>
<circle cx="1152" cy="602" r="10" class="c0"/>
<circle cx="1256" cy="644" r="10" class="c0"/>
<circle cx="808" cy="634" r="10" class="c0"/>
<circle cx="1076" cy="536" r="10" class="c0"/>
<circle cx="1446" cy="698" r="10" class="c0"/>
<circle cx="1376" cy="620" r="10" class="c0"/>
<circle cx="1270" cy="696" r="10" class="c0"/>
<circle cx="1090" cy="556" r="10" class="c0"/>
<circle cx="1184" cy="676" r="10" class="c0"/>
<circle cx="972" cy="452" r="10" class="c0"/>
<circle cx="1120" cy="574" r="10" class="c0"/>
<circle cx="1250" cy="610" r="10" class="c0"/>
<circle cx="1024" cy="314" r="10" class="c0"/>
<circle cx="1438" cy="674" r="10" class="c0"/>
<circle cx="920" cy="442" r="10" class="c0"/>
<circle cx="726" cy="650" r="10" class="c0"/>
<circle cx="1350" cy="596" r="10" class="c0"/>
<circle cx="1166" cy="620" r="10" class="c0"/>
<circle cx="1354" cy="616" r="8" class="c0"/>
<circle cx="1298" cy="706" r="8" class="c0"/>
<circle cx="1362" cy="718" r="8" class="c0"/>
<circle cx="978" cy="314" r="8" class="c0"/>
<circle cx="992" cy="476" r="8" class="c0"/>
<circle cx="1222" cy="654" r="8" class="c0"/>
<circle cx="1004" cy="502" r="8" class="c0"/>
<circle cx="1046" cy="552" r="8" class="c0"/>
<circle cx="904" cy="640" r="8" class="c0"/>
<circle cx="1088" cy="522" r="8" class="c0"/>
<circle cx="966" cy="358" r="8" class="c0"/>
<circle cx="1114" cy="440" r="8" class="c0"/>
<circle cx="1158" cy="646" r="8" class="c0"/>
<circle cx="1020" cy="398" r="8" class="c0"/>
<circle cx="846" cy="640" r="8" class="c0"/>
<circle cx="1378" cy="688" r="8" class="c0"/>
<circle cx="842" cy="324" r="8" class="c0"/>
<circle cx="1018" cy="528" r="8" class="c0"/>
<circle cx="1118" cy="666" r="8" class="c0"/>
<circle cx="1350" cy="728" r="8" class="c0"/>
<circle cx="1054" cy="530" r="8" class="c0"/>
<circle cx="1200" cy="628" r="8" class="c0"/>
<circle cx="954" cy="544" r="8" class="c0"/>
<circle cx="966" cy="398" r="8" class="c0"/>
<circle cx="836" cy="630" r="8" class="c0"/>
<circle cx="738" cy="632" r="8" class="c0"/>
<circle cx="856" cy="338" r="8" class="c0"/>
<circle cx="900" cy="620" r="8" class="c0"/>
<circle cx="980" cy="332" r="8" class="c0"/>
<circle cx="942" cy="434" r="8" class="c0"/>
<circle cx="932" cy="668" r="8" class="c0"/>
<circle cx="1286" cy="652" r="8" class="c0"/>
<circle cx="946" cy="378" r="8" class="c0"/>
<circle cx="1056" cy="684" r="8" class="c0"/>
<circle cx="1058" cy="420" r="8" class="c0"/>
<circle cx="648" cy="642" r="8" class="c0"/>
<circle cx="948" cy="456" r="8" class="c0"/>
<circle cx="1032" cy="456" r="8" class="c0"/>
<circle cx="1052" cy="612" r="8" class="c0"/>
<circle cx="928" cy="650" r="8" class="c0"/>
<circle cx="1002" cy="422" r="8" class="c0"/>
<circle cx="1408" cy="650" r="8" class="c0"/>
<circle cx="1378" cy="730" r="8" class="c0"/>
<circle cx="990" cy="650" r="8" class="c0"/>
<circle cx="944" cy="332" r="8" class="c0"/>
<circle cx="926" cy="584" r="8" class="c0"/>
<circle cx="882" cy="380" r="8" class="c0"/>
<circle cx="878" cy="634" r="8" class="c0"/>
<circle cx="1384" cy="600" r="8" class="c0"/>
<circle cx="1022" cy="498" r="8" class="c0"/>
<circle cx="920" cy="622" r="8" class="c0"/>
<circle cx="1016" cy="366" r="8" class="c0"/>
<circle cx="954" cy="346" r="8" class="c0"/>
<circle cx="862" cy="380" r="8" class="c0"/>
<circle cx="1320" cy="646" r="8" class="c0"/>
<circle cx="1148" cy="568" r="8" class="c0"/>
<circle cx="708" cy="626" r="8" class="c0"/>
<circle cx="1104" cy="538" r="8" class="c0"/>
<circle cx="1346" cy="654" r="8" class="c0"/>
<circle cx="1110" cy="642" r="8" class="c0"/>
<circle cx="1032" cy="584" r="8" class="c0"/>
<circle cx="1360" cy="664" r="8" class="c0"/>
<circle cx="1450" cy="652" r="8" class="c0"/>
<circle cx="1176" cy="600" r="8" class="c0"/>
<circle cx="570" cy="608" r="8" class="c0"/>
<circle cx="988" cy="300" r="8" class="c0"/>
<circle cx="966" cy="480" r="8" class="c0"/>
<circle cx="1038" cy="660" r="8" class="c0"/>
<circle cx="1422" cy="664" r="8" class="c0"/>
<circle cx="976" cy="494" r="8" class="c0"/>
<circle cx="1104" cy="590" r="8" class="c0"/>
<circle cx="1188" cy="638" r="8" class="c0"/>
<circle cx="1012" cy="656" r="8" class="c0"/>
<circle cx="1360" cy="686" r="8" class="c0"/>
<circle cx="1030" cy="418" r="8" class="c0"/>
<circle cx="998" cy="580" r="8" class="c0"/>
<circle cx="620" cy="612" r="8" class="c0"/>
<circle cx="1054" cy="380" r="8" class="c0"/>
<circle cx="1024" cy="646" r="8" class="c0"/>
<circle cx="1276" cy="624" r="8" class="c0"/>
<circle cx="998" cy="530" r="8" class="c0"/>
<circle cx="904" cy="344" r="8" class="c0"/>
<circle cx="1072" cy="632" r="8" class="c0"/>
<circle cx="1116" cy="554" r="8" class="c0"/>
<circle cx="1194" cy="656" r="8" class="c0"/>
<circle cx="1350" cy="696" r="8" class="c0"/>
<circle cx="1092" cy="694" r="8" class="c0"/>
<circle cx="902" cy="388" r="8" class="c0"/>
<circle cx="968" cy="302" r="8" class="c0"/>
<circle cx="1064" cy="448" r="8" class="c0"/>
<circle cx="1242" cy="660" r="8" class="c0"/>
<circle cx="1212" cy="664" r="8" class="c0"/>
<circle cx="1314" cy="684" r="8" class="c0"/>
<circle cx="1310" cy="592" r="8" class="c0"/>
<circle cx="1022" cy="668" r="8" class="c0"/>
<circle cx="1010" cy="624" r="8" class="c0"/>
<circle cx="1128" cy="652" r="8" class="c0"/>
<circle cx="1096" cy="622" r="8" class="c0"/>
<circle cx="1014" cy="594" r="8" class="c0"/>
<circle cx="1084" cy="672" r="8" class="c0"/>
<circle cx="1038" cy="436" r="8" class="c0"/>
<circle cx="662" cy="624" r="8" class="c0"/>
<circle cx="1002" cy="316" r="8" class="c0"/>
<circle cx="1086" cy="582" r="8" class="c0"/>
<circle cx="1032" cy="376" r="8" class="c0"/>
<circle cx="1036" cy="512" r="8" class="c0"/>
<circle cx="1292" cy="612" r="8" class="c0"/>
<circle cx="1432" cy="644" r="8" class="c0"/>
<circle cx="1320" cy="604" r="8" class="c0"/>
<circle cx="1396" cy="724" r="8" class="c0"/>
<circle cx="1030" cy="540" r="8" class="c0"/>
<circle cx="916" cy="604" r="8" class="c0"/>
<circle cx="790" cy="626" r="8" class="c0"/>
<circle cx="1426" cy="686" r="8" class="c0"/>
<circle cx="1054" cy="646" r="8" class="c0"/>
<circle cx="1114" cy="460" r="8" class="c0"/>
<circle cx="1206" cy="646" r="8" class="c0"/>
<circle cx="952" cy="316" r="8" class="c0"/>
<circle cx="1198" cy="608" r="8" class="c0"/>
<circle cx="922" cy="338" r="8" class="c0"/>
<circle cx="1100" cy="716" r="8" class="c0"/>
<circle cx="1090" cy="398" r="8" class="c0"/>
<circle cx="1374" cy="706" r="8" class="c0"/>
<circle cx="978" cy="388" r="8" class="c0"/>
<circle cx="954" cy="498" r="8" class="c0"/>
<circle cx="1062" cy="736" r="8" class="c0"/>
<circle cx="1188" cy="618" r="8" class="c0"/>
<circle cx="926" cy="382" r="8" class="c0"/>
<circle cx="974" cy="664" r="8" class="c0"/>
<circle cx="1042" cy="322" r="8" class="c0"/>
<circle cx="1156" cy="676" r="8" class="c0"/>
<circle cx="874" cy="328" r="8" class="c0"/>
<circle cx="1350" cy="674" r="8" class="c0"/>
<circle cx="956" cy="420" r="8" class="c0"/>
<circle cx="786" cy="686" r="8" class="c0"/>
<circle cx="1226" cy="674" r="8" class="c0"/>
<circle cx="1388" cy="660" r="8" class="c0"/>
<circle cx="888" cy="648" r="6" class="c0"/>
<circle cx="1118" cy="626" r="6" class="c0"/>
<circle cx="676" cy="616" r="6" class="c0"/>
<circle cx="616" cy="628" r="6" class="c0"/>
<circle cx="1010" cy="482" r="6" class="c0"/>
<circle cx="1046" cy="594" r="6" class="c0"/>
<circle cx="706" cy="644" r="6" class="c0"/>
<circle cx="1414" cy="630" r="6" class="c0"/>
<circle cx="950" cy="652" r="6" class="c0"/>
<circle cx="968" cy="374" r="6" class="c0"/>
<circle cx="1378" cy="670" r="6" class="c0"/>
<circle cx="1098" cy="434" r="6" class="c0"/>
<circle cx="748" cy="644" r="6" class="c0"/>
<circle cx="1008" cy="640" r="6" class="c0"/>
<circle cx="728" cy="620" r="6" class="c0"/>
<circle cx="1074" cy="690" r="6" class="c0"/>
<circle cx="1370" cy="590" r="6" class="c0"/>
<circle cx="968" cy="646" r="6" class="c0"/>
<circle cx="1314" cy="710" r="6" class="c0"/>
<circle cx="1000" cy="550" r="6" class="c0"/>
<circle cx="962" cy="528" r="6" class="c0"/>
<circle cx="982" cy="350" r="6" class="c0"/>
<circle cx="956" cy="368" r="6" class="c0"/>
<circle cx="1112" cy="520" r="6" class="c0"/>
<circle cx="856" cy="630" r="6" class="c0"/>
<circle cx="1338" cy="684" r="6" class="c0"/>
<circle cx="1072" cy="392" r="6" class="c0"/>
<circle cx="1252" cy="702" r="6" class="c0"/>
<circle cx="1332" cy="592" r="6" class="c0"/>
<circle cx="950" cy="472" r="6" class="c0"/>
<circle cx="1006" cy="298" r="6" class="c0"/>
<circle cx="1102" cy="732" r="6" class="c0"/>
<circle cx="1142" cy="584" r="6" class="c0"/>
<circle cx="1100" cy="606" r="6" class="c0"/>
<circle cx="786" cy="642" r="6" class="c0"/>
<circle cx="930" cy="634" r="6" class="c0"/>
<circle cx="1058" cy="332" r="6" class="c0"/>
<circle cx="1080" cy="444" r="6" class="c0"/>
<circle cx="1008" cy="382" r="6" class="c0"/>
<circle cx="1210" cy="578" r="6" class="c0"/>
<circle cx="1074" cy="464" r="6" class="c0"/>
<circle cx="1012" cy="412" r="6" class="c0"/>
<circle cx="864" cy="646" r="6" class="c0"/>
<circle cx="824" cy="642" r="6" class="c0"/>
<circle cx="1398" cy="608" r="6" class="c0"/>
<circle cx="1290" cy="634" r="6" class="c0"/>
<circle cx="694" cy="616" r="6" class="c0"/>
<circle cx="982" cy="466" r="6" class="c0"/>
<circle cx="1034" cy="564" r="6" class="c0"/>
<circle cx="1024" cy="470" r="6" class="c0"/>
<circle cx="1102" cy="572" r="6" class="c0"/>
<circle cx="936" cy="312" r="6" class="c0"/>
<circle cx="1072" cy="334" r="6" class="c0"/>
<circle cx="910" cy="428" r="6" class="c0"/>
<circle cx="1334" cy="722" r="6" class="c0"/>
<circle cx="1260" cy="626" r="6" class="c0"/>
<circle cx="920" cy="398" r="6" class="c0"/>
<circle cx="1046" cy="502" r="6" class="c0"/>
<circle cx="972" cy="604" r="6" class="c0"/>
<circle cx="1096" cy="662" r="6" class="c0"/>
<circle cx="1274" cy="640" r="6" class="c0"/>
<circle cx="976" cy="682" r="6" class="c0"/>
<circle cx="754" cy="620" r="6" class="c0"/>
<circle cx="1086" cy="500" r="6" class="c0"/>
<circle cx="1062" cy="700" r="6" class="c0"/>
<circle cx="1278" cy="666" r="6" class="c0"/>
<circle cx="1132" cy="562" r="6" class="c0"/>
<circle cx="1056" cy="462" r="6" class="c0"/>
<circle cx="1336" cy="644" r="6" class="c0"/>
<circle cx="1234" cy="602" r="6" class="c0"/>
<circle cx="1194" cy="574" r="6" class="c0"/>
<circle cx="1162" cy="586" r="6" class="c0"/>
<circle cx="1062" cy="622" r="6" class="c0"/>
<circle cx="1270" cy="608" r="6" class="c0"/>
<circle cx="1460" cy="678" r="6" class="c0"/>
<circle cx="770" cy="680" r="6" class="c0"/>
<circle cx="970" cy="432" r="6" class="c0"/>
<circle cx="1224" cy="594" r="6" class="c0"/>
<circle cx="1034" cy="680" r="6" class="c0"/>
<circle cx="1336" cy="606" r="6" class="c0"/>
<circle cx="1202" cy="674" r="6" class="c0"/>
<circle cx="664" cy="644" r="6" class="c0"/>
<circle cx="892" cy="354" r="6" class="c0"/>
<circle cx="1066" cy="554" r="6" class="c0"/>
<circle cx="1054" cy="438" r="6" class="c0"/>
<circle cx="942" cy="682" r="6" class="c0"/>
<circle cx="948" cy="300" r="6" class="c0"/>
<circle cx="1262" cy="596" r="6" class="c0"/>
<circle cx="1042" cy="574" r="6" class="c0"/>
<circle cx="1046" cy="674" r="6" class="c0"/>
<circle cx="1090" cy="472" r="6" class="c0"/>
<circle cx="1128" cy="682" r="6" class="c0"/>
<circle cx="1054" cy="586" r="6" class="c0"/>
<circle cx="1112" cy="476" r="6" class="c0"/>
<circle cx="1270" cy="656" r="6" class="c0"/>
<circle cx="1298" cy="676" r="6" class="c0"/>
<circle cx="954" cy="518" r="6" class="c0"/>
<circle cx="928" cy="322" r="6" class="c0"/>
<circle cx="1366" cy="606" r="6" class="c0"/>
<circle cx="1018" cy="576" r="6" class="c0"/>
<circle cx="1070" cy="406" r="6" class="c0"/>
<circle cx="1164" cy="570" r="6" class="c0"/>
<circle cx="1054" cy="708" r="6" class="c0"/>
<circle cx="1144" cy="686" r="6" class="c0"/>
<circle cx="654" cy="610" r="6" class="c0"/>
<circle cx="1048" cy="452" r="6" class="c0"/>
<circle cx="962" cy="328" r="6" class="c0"/>
<circle cx="962" cy="612" r="6" class="c0"/>
<circle cx="740" cy="662" r="6" class="c0"/>
<circle cx="1216" cy="636" r="6" class="c0"/>
<circle cx="1254" cy="688" r="6" class="c0"/>
<circle cx="884" cy="364" r="6" class="c0"/>
<circle cx="1036" cy="392" r="6" class="c0"/>
<circle cx="1008" cy="540" r="6" class="c0"/>
<circle cx="1088" cy="726" r="6" class="c0"/>
<circle cx="970" cy="342" r="6" class="c0"/>
<circle cx="988" cy="504" r="6" class="c0"/>
<circle cx="1008" cy="518" r="6" class="c0"/>
<circle cx="872" cy="370" r="6" class="c0"/>
<circle cx="1192" cy="692" r="6" class="c0"/>
<circle cx="1124" cy="450" r="6" class="c0"/>
<circle cx="1282" cy="708" r="6" class="c0"/>
<circle cx="1178" cy="572" r="6" class="c0"/>
<circle cx="796" cy="696" r="6" class="c0"/>
<circle cx="994" cy="492" r="6" class="c0"/>
<circle cx="1112" cy="614" r="6" class="c0"/>
<circle cx="1128" cy="468" r="6" class="c0"/>
<circle cx="956" cy="388" r="6" class="c0"/>
<circle cx="1080" cy="384" r="6" class="c0"/>
</svg>
