<?xml version="1.0" encoding="utf-8"?>
<svg xmlns="http://www.w3.org/2000/svg"
     xmlns:xlink="http://www.w3.org/1999/xlink" width="1920" height="1440" >

            <defs>
            <style type="text/css"><![CDATA[
circle {stroke: none;}
.c0 {fill: #FFFFFF;}
]]></style>
            </defs>
<rect x="0" y="0" width="1920" height="1440" fill="black"/>
<circle cx="1100" cy="622" r="14" class="c0"/>
<circle cx="1236" cy="680" r="12" class="c0"/>
<circle cx="1092" cy="424" r="12" class="c0"/>
<circle cx="1310" cy="596" r="12" class="c0"/>
<circle cx="1208" cy="628" r="12" class="c0"/>
<circle cx="956" cy="392" r="12" class="c0"/>
<circle cx="1150" cy="560" r="12" class="c0"/>
<circle cx="932" cy="372" r="12" class="c0"/>
<circle cx="1018" cy="594" r="12" class="c0"/>
<circle cx="1054" cy="424" r="12" class="c0"/>
<circle cx="1060" cy="392" r="12" class="c0"/>
<circle cx="1406" cy="686" r="12" class="c0"/>
<circle cx="986" cy="418" r="12" class="c0"/>
<circle cx="1020" cy="666" r="12" class="c0"/>
<circle cx="1070" cy="658" r="12" class="c0"/>
<circle cx="1106" cy="658" r="12" class="c0"/>
<circle cx="950" cy="462" r="12" class="c0"/>
<circle cx="1168" cy="672" r="12" class="c0"/>
<circle cx="940" cy="314" r="12" class="c0"/>
<circle cx="1092" cy="578" r="12" class="c0"/>
<circle cx="1054" cy="528" r="12" class="c0"/>
<circle cx="1022" cy="378" r="10" class="c0"/>
<circle cx="944" cy="340" r="10" class="c0"/>
<circle cx="1172" cy="616" r="10" class="c0"/>
<circle cx="984" cy="334" r="10" class="c0"/>
<circle cx="1250" cy="596" r="10" class="c0"/>
<circle cx="1372" cy="706" r="10" class="c0"/>
<circle cx="1350" cy="700" r="10" class="c0"/>
<circle cx="996" cy="630" r="10" class="c0"/>
<circle cx="1294" cy="676" r="10" class="c0"/>
<circle cx="1020" cy="566" r="10" class="c0"/>
<circle cx="1408" cy="638" r="10" class="c0"/>
<circle cx="1086" cy="674" r="10" class="c0"/>
<circle cx="1016" cy="524" r="10" class="c0"/>
<circle cx="1324" cy="644" r="10" class="c0"/>
<circle cx="1064" cy="602" r="10" class="c0"/>
<circle cx="990" cy="394" r="10" class="c0"/>
<circle cx="976" cy="514" r="10" class="c0"/>
<circle cx="720" cy="634" r="10" class="c0"/>
<circle cx="968" cy="320" r="10" class="c0"/>
<circle cx="1358" cy="676" r="10" class="c0"/>
<circle cx="1284" cy="596" r="10" class="c0"/>
<circle cx="622" cy="610" r="10" class="c0"/>
<circle cx="926" cy="572" r="10" class="c0"/>
<circle cx="1188" cy="586" r="10" class="c0"/>
<circle cx="1252" cy="694" r="10" class="c0"/>
<circle cx="1266" cy="628" r="10" class="c0"/>
<circle cx="632" cy="628" r="10" class="c0"/>
<circle cx="916" cy="618" r="10" class="c0"/>
<circle cx="902" cy="348" r="10" class="c0"/>
<circle cx="736" cy="618" r="10" class="c0"/>
<circle cx="1006" cy="494" r="10" class="c0"/>
<circle cx="1078" cy="720" r="10" class="c0"/>
<circle cx="1138" cy="646" r="10" class="c0"/>
<circle cx="1032" cy="580" r="10" class="c0"/>
<circle cx="1336" cy="688" r="10" class="c0"/>
<circle cx="944" cy="492" r="10" class="c0"/>
<circle cx="1078" cy="548" r="10" class="c0"/>
<circle cx="1008" cy="444" r="10" class="c0"/>
<circle cx="926" cy="414" r="10" class="c0"/>
<circle cx="984" cy="366" r="10" class="c0"/>
<circle cx="1304" cy="624" r="10" class="c0"/>
<circle cx="758" cy="628" r="10" class="c0"/>
<circle cx="1390" cy="658" r="10" class="c0"/>
<circle cx="1016" cy="470" r="10" class="c0"/>
<circle cx="1056" cy="690" r="10" class="c0"/>
<circle cx="834" cy="342" r="10" class="c0"/>
<circle cx="846" cy="354" r="10" class="c0"/>
<circle cx="1230" cy="612" r="10" class="c0"/>
<circle cx="1298" cy="700" r="10" class="c0"/>
<circle cx="1354" cy="618" r="10" class="c0"/>
<circle cx="1180" cy="652" r="10" class="c0"/>
<circle cx="1134" cy="620" r="10" class="c0"/>
<circle cx="910" cy="384" r="10" class="c0"/>
<circle cx="956" cy="352" r="10" class="c0"/>
<circle cx="964" cy="606" r="10" class="c0"/>
<circle cx="1034" cy="514" r="10" class="c0"/>
<circle cx="980" cy="590" r="10" class="c0"/>
<circle cx="924" cy="646" r="10" class="c0"/>
<circle cx="878" cy="368" r="10" class="c0"/>
<circle cx="702" cy="618" r="10" class="c0"/>
<circle cx="1034" cy="650" r="10" class="c0"/>
<circle cx="970" cy="668" r="10" class="c0"/>
<circle cx="1044" cy="546" r="8" class="c0"/>
<circle cx="1414" cy="664" r="8" class="c0"/>
<circle cx="1102" cy="522" r="8" class="c0"/>
<circle cx="1368" cy="594" r="8" class="c0"/>
<circle cx="1206" cy="656" r="8" class="c0"/>
<circle cx="800" cy="628" r="8" class="c0"/>
<circle cx="992" cy="460" r="8" class="c0"/>
<circle cx="1030" cy="446" r="8" class="c0"/>
<circle cx="1322" cy="672" r="8" class="c0"/>
<circle cx="1104" cy="558" r="8" class="c0"/>
<circle cx="1264" cy="658" r="8" class="c0"/>
<circle cx="1250" cy="638" r="8" class="c0"/>
<circle cx="1196" cy="606" r="8" class="c0"/>
<circle cx="852" cy="320" r="8" class="c0"/>
<circle cx="1380" cy="680" r="8" class="c0"/>
<circle cx="974" cy="286" r="8" class="c0"/>
<circle cx="1080" cy="460" r="8" class="c0"/>
<circle cx="1078" cy="522" r="8" class="c0"/>
<circle cx="1100" cy="488" r="8" class="c0"/>
<circle cx="998" cy="580" r="8" class="c0"/>
<circle cx="900" cy="604" r="8" class="c0"/>
<circle cx="920" cy="448" r="8" class="c0"/>
<circle cx="1058" cy="636" r="8" class="c0"/>
<circle cx="566" cy="602" r="8" class="c0"/>
<circle cx="1054" cy="712" r="8" class="c0"/>
<circle cx="1326" cy="704" r="8" class="c0"/>
<circle cx="968" cy="478" r="8" class="c0"/>
<circle cx="1028" cy="628" r="8" class="c0"/>
<circle cx="1358" cy="654" r="8" class="c0"/>
<circle cx="992" cy="606" r="8" class="c0"/>
<circle cx="756" cy="658" r="8" class="c0"/>
<circle cx="864" cy="336" r="8" class="c0"/>
<circle cx="968" cy="630" r="8" class="c0"/>
<circle cx="1126" cy="600" r="8" class="c0"/>
<circle cx="1212" cy="682" r="8" class="c0"/>
<circle cx="946" cy="620" r="8" class="c0"/>
<circle cx="1192" cy="674" r="8" class="c0"/>
<circle cx="1062" cy="456" r="8" class="c0"/>
<circle cx="1064" cy="572" r="8" class="c0"/>
<circle cx="1390" cy="602" r="8" class="c0"/>
<circle cx="654" cy="622" r="8" class="c0"/>
<circle cx="1084" cy="496" r="8" class="c0"/>
<circle cx="1010" cy="396" r="8" class="c0"/>
<circle cx="1344" cy="592" r="8" class="c0"/>
<circle cx="1046" cy="610" r="8" class="c0"/>
<circle cx="1428" cy="640" r="8" class="c0"/>
<circle cx="1164" cy="640" r="8" class="c0"/>
<circle cx="962" cy="296" r="8" class="c0"/>
<circle cx="962" cy="428" r="8" class="c0"/>
<circle cx="582" cy="616" r="8" class="c0"/>
<circle cx="674" cy="610" r="8" class="c0"/>
<circle cx="1278" cy="686" r="8" class="c0"/>
<circle cx="1434" cy="692" r="8" class="c0"/>
<circle cx="902" cy="426" r="8" class="c0"/>
<circle cx="1116" cy="638" r="8" class="c0"/>
<circle cx="1032" cy="406" r="8" class="c0"/>
<circle cx="1018" cy="302" r="8" class="c0"/>
<circle cx="1400" cy="616" r="8" class="c0"/>
<circle cx="1384" cy="626" r="8" class="c0"/>
<circle cx="948" cy="512" r="8" class="c0"/>
<circle cx="980" cy="492" r="8" class="c0"/>
<circle cx="958" cy="644" r="8" class="c0"/>
<circle cx="742" cy="638" r="8" class="c0"/>
<circle cx="1070" cy="412" r="8" class="c0"/>
<circle cx="1004" cy="368" r="8" class="c0"/>
<circle cx="988" cy="440" r="8" class="c0"/>
<circle cx="944" cy="544" r="8" class="c0"/>
<circle cx="1286" cy="636" r="8" class="c0"/>
<circle cx="990" cy="652" r="8" class="c0"/>
<circle cx="1086" cy="640" r="8" class="c0"/>
<circle cx="990" cy="300" r="8" class="c0"/>
<circle cx="1328" cy="584" r="8" class="c0"/>
<circle cx="694" cy="638" r="8" class="c0"/>
<circle cx="946" cy="654" r="8" class="c0"/>
<circle cx="998" cy="316" r="8" class="c0"/>
<circle cx="854" cy="634" r="8" class="c0"/>
<circle cx="1442" cy="670" r="8" class="c0"/>
<circle cx="1274" cy="648" r="8" class="c0"/>
<circle cx="1150" cy="602" r="8" class="c0"/>
<circle cx="1044" cy="326" r="8" class="c0"/>
<circle cx="1050" cy="670" r="8" class="c0"/>
<circle cx="1000" cy="552" r="8" class="c0"/>
<circle cx="1246" cy="662" r="8" class="c0"/>
<circle cx="1334" cy="608" r="8" class="c0"/>
<circle cx="1392" cy="710" r="8" class="c0"/>
<circle cx="642" cy="612" r="8" class="c0"/>
<circle cx="1266" cy="606" r="8" class="c0"/>
<circle cx="940" cy="672" r="8" class="c0"/>
<circle cx="966" cy="446" r="8" class="c0"/>
<circle cx="880" cy="626" r="8" class="c0"/>
<circle cx="920" cy="338" r="8" class="c0"/>
<circle cx="1222" cy="644" r="8" class="c0"/>
<circle cx="1128" cy="674" r="8" class="c0"/>
<circle cx="600" cy="602" r="8" class="c0"/>
<circle cx="1034" cy="536" r="8" class="c0"/>
<circle cx="1126" cy="562" r="8" class="c0"/>
<circle cx="1112" cy="586" r="8" class="c0"/>
<circle cx="994" cy="350" r="8" class="c0"/>
<circle cx="788" cy="668" r="8" class="c0"/>
<circle cx="672" cy="632" r="8" class="c0"/>
<circle cx="780" cy="632" r="8" class="c0"/>
<circle cx="1214" cy="602" r="8" class="c0"/>
<circle cx="900" cy="444" r="8" class="c0"/>
<circle cx="948" cy="412" r="8" class="c0"/>
<circle cx="1018" cy="424" r="8" class="c0"/>
<circle cx="1286" cy="616" r="8" class="c0"/>
<circle cx="912" cy="590" r="8" class="c0"/>
<circle cx="1054" cy="582" r="8" class="c0"/>
<circle cx="1092" cy="534" r="8" class="c0"/>
<circle cx="1090" cy="694" r="8" class="c0"/>
<circle cx="1338" cy="658" r="8" class="c0"/>
<circle cx="1114" cy="446" r="8" class="c0"/>
<circle cx="1034" cy="316" r="8" class="c0"/>
<circle cx="994" cy="478" r="8" class="c0"/>
<circle cx="1162" cy="592" r="8" class="c0"/>
<circle cx="1310" cy="658" r="8" class="c0"/>
<circle cx="1342" cy="630" r="8" class="c0"/>
<circle cx="896" cy="640" r="8" class="c0"/>
<circle cx="1076" cy="380" r="8" class="c0"/>
<circle cx="646" cy="640" r="8" class="c0"/>
<circle cx="1370" cy="728" r="8" class="c0"/>
<circle cx="1046" cy="378" r="8" class="c0"/>
<circle cx="920" cy="670" r="8" class="c0"/>
<circle cx="978" cy="620" r="8" class="c0"/>
<circle cx="1024" cy="546" r="8" class="c0"/>
<circle cx="1366" cy="632" r="8" class="c0"/>
<circle cx="1178" cy="564" r="8" class="c0"/>
<circle cx="1276" cy="668" r="8" class="c0"/>
<circle cx="884" cy="338" r="8" class="c0"/>
<circle cx="988" cy="536" r="8" class="c0"/>
<circle cx="910" cy="328" r="8" class="c0"/>
<circle cx="1078" cy="440" r="8" class="c0"/>
<circle cx="984" cy="572" r="6" class="c0"/>
<circle cx="992" cy="504" r="6" class="c0"/>
<circle cx="964" cy="500" r="6" class="c0"/>
<circle cx="1084" cy="602" r="6" class="c0"/>
<circle cx="1342" cy="716" r="6" class="c0"/>
<circle cx="1056" cy="728" r="6" class="c0"/>
<circle cx="1260" cy="674" r="6" class="c0"/>
<circle cx="1148" cy="632" r="6" class="c0"/>
<circle cx="830" cy="628" r="6" class="c0"/>
<circle cx="772" cy="618" r="6" class="c0"/>
<circle cx="1154" cy="658" r="6" class="c0"/>
<circle cx="1146" cy="668" r="6" class="c0"/>
<circle cx="1076" cy="620" r="6" class="c0"/>
<circle cx="1010" cy="616" r="6" class="c0"/>
<circle cx="1418" cy="624" r="6" class="c0"/>
<circle cx="1186" cy="630" r="6" class="c0"/>
<circle cx="1042" cy="458" r="6" class="c0"/>
<circle cx="1252" cy="614" r="6" class="c0"/>
<circle cx="972" cy="404" r="6" class="c0"/>
<circle cx="1048" cy="446" r="6" class="c0"/>
<circle cx="1232" cy="634" r="6" class="c0"/>
<circle cx="1094" cy="506" r="6" class="c0"/>
<circle cx="1196" cy="642" r="6" class="c0"/>
<circle cx="1316" cy="694" r="6" class="c0"/>
<circle cx="788" cy="618" r="6" class="c0"/>
<circle cx="1268" cy="588" r="6" class="c0"/>
<circle cx="818" cy="636" r="6" class="c0"/>
<circle cx="1028" cy="492" r="6" class="c0"/>
<circle cx="1030" cy="612" r="6" class="c0"/>
<circle cx="992" cy="670" r="6" class="c0"/>
<circle cx="860" cy="364" r="6" class="c0"/>
<circle cx="1322" cy="622" r="6" class="c0"/>
<circle cx="1444" cy="642" r="6" class="c0"/>
<circle cx="930" cy="460" r="6" class="c0"/>
<circle cx="936" cy="558" r="6" class="c0"/>
<circle cx="1380" cy="642" r="6" class="c0"/>
<circle cx="1042" cy="594" r="6" class="c0"/>
<circle cx="1374" cy="616" r="6" class="c0"/>
<circle cx="844" cy="624" r="6" class="c0"/>
<circle cx="940" cy="638" r="6" class="c0"/>
<circle cx="1044" cy="722" r="6" class="c0"/>
<circle cx="908" cy="366" r="6" class="c0"/>
<circle cx="1074" cy="686" r="6" class="c0"/>
<circle cx="1058" cy="556" r="6" class="c0"/>
<circle cx="978" cy="468" r="6" class="c0"/>
<circle cx="936" cy="474" r="6" class="c0"/>
<circle cx="1294" cy="654" r="6" class="c0"/>
<circle cx="1098" cy="598" r="6" class="c0"/>
<circle cx="1302" cy="642" r="6" class="c0"/>
<circle cx="974" cy="382" r="6" class="c0"/>
<circle cx="1008" cy="652" r="6" class="c0"/>
<circle cx="964" cy="374" r="6" class="c0"/>
<circle cx="1044" cy="626" r="6" class="c0"/>
<circle cx="1072" cy="586" r="6" class="c0"/>
<circle cx="1164" cy="576" r="6" class="c0"/>
<circle cx="898" cy="620" r="6" class="c0"/>
<circle cx="888" cy="382" r="6" class="c0"/>
<circle cx="604" cy="620" r="6" class="c0"/>
<circle cx="770" cy="666" r="6" class="c0"/>
<circle cx="1092" cy="448" r="6" class="c0"/>
<circle cx="828" cy="360" r="6" class="c0"/>
<circle cx="998" cy="516" r="6" class="c0"/>
<circle cx="1042" cy="566" r="6" class="c0"/>
<circle cx="870" cy="352" r="6" class="c0"/>
<circle cx="1208" cy="560" r="6" class="c0"/>
<circle cx="1228" cy="662" r="6" class="c0"/>
<circle cx="732" cy="652" r="6" class="c0"/>
<circle cx="938" cy="522" r="6" class="c0"/>
<circle cx="1070" cy="504" r="6" class="c0"/>
<circle cx="1240" cy="626" r="6" class="c0"/>
<circle cx="1018" cy="642" r="6" class="c0"/>
<circle cx="1076" cy="702" r="6" class="c0"/>
<circle cx="1370" cy="664" r="6" class="c0"/>
<circle cx="868" cy="316" r="6" class="c0"/>
<circle cx="582" cy="598" r="6" class="c0"/>
<circle cx="1094" cy="710" r="6" class="c0"/>
<circle cx="1432" cy="660" r="6" class="c0"/>
<circle cx="934" cy="398" r="6" class="c0"/>
<circle cx="1308" cy="686" r="6" class="c0"/>
<circle cx="1296" cy="584" r="6" class="c0"/>
<circle cx="1034" cy="556" r="6" class="c0"/>
<circle cx="1034" cy="366" r="6" class="c0"/>
<circle cx="1104" cy="456" r="6" class="c0"/>
<circle cx="950" cy="528" r="6" class="c0"/>
<circle cx="1042" cy="702" r="6" class="c0"/>
<circle cx="1040" cy="680" r="6" class="c0"/>
<circle cx="1196" cy="690" r="6" class="c0"/>
<circle cx="1114" cy="426" r="6" class="c0"/>
<circle cx="944" cy="294" r="6" class="c0"/>
<circle cx="924" cy="304" r="6" class="c0"/>
<circle cx="974" cy="348" r="6" class="c0"/>
<circle cx="1358" cy="718" r="6" class="c0"/>
<circle cx="918" cy="356" r="6" class="c0"/>
<circle cx="1036" cy="388" r="6" class="c0"/>
<circle cx="864" cy="624" r="6" class="c0"/>
<circle cx="1006" cy="414" r="6" class="c0"/>
<circle cx="1118" cy="548" r="6" class="c0"/>
<circle cx="1424" cy="678" r="6" class="c0"/>
<circle cx="1000" cy="662" r="6" class="c0"/>
<circle cx="1358" cy="584" r="6" class="c0"/>
<circle cx="1018" cy="506" r="6" class="c0"/>
<circle cx="838" cy="638" r="6" class="c0"/>
<circle cx="1232" cy="590" r="6" class="c0"/>
<circle cx="816" cy="622" r="6" class="c0"/>
<circle cx="852" cy="372" r="6" class="c0"/>
<circle cx="1006" cy="292" r="6" class="c0"/>
<circle cx="980" cy="640" r="6" class="c0"/>
<circle cx="924" cy="432" r="6" class="c0"/>
<circle cx="870" cy="638" r="6" class="c0"/>
<circle cx="896" cy="374" r="6" class="c0"/>
<circle cx="1060" cy="620" r="6" class="c0"/>
<circle cx="1382" cy="586" r="6" class="c0"/>
<circle cx="1154" cy="618" r="6" class="c0"/>
<circle cx="658" cy="606" r="6" class="c0"/>
<circle cx="1060" cy="336" r="6" class="c0"/>
<circle cx="920" cy="318" r="6" class="c0"/>
<circle cx="1180" cy="686" r="6" class="c0"/>
<circle cx="684" cy="622" r="6" class="c0"/>
<circle cx="1222" cy="692" r="6" class="c0"/>
<circle cx="1272" cy="702" r="6" class="c0"/>
<circle cx="710" cy="648" r="6" class="c0"/>
<circle cx="1236" cy="652" r="6" class="c0"/>
<circle cx="930" cy="628" r="6" class="c0"/>
<circle cx="932" cy="504" r="6" class="c0"/>
<circle cx="966" cy="338" r="6" class="c0"/>
<circle cx="1108" cy="538" r="6" class="c0"/>
<circle cx="1034" cy="430" r="6" class="c0"/>
<circle cx="930" cy="350" r="6" class="c0"/>
<circle cx="1388" cy="694" r="6" class="c0"/>
<circle cx="1020" cy="360" r="6" class="c0"/>
</svg>
