<?xml version="1.0" encoding="utf-8"?>
<svg xmlns="http://www.w3.org/2000/svg"
     xmlns:xlink="http://www.w3.org/1999/xlink" width="1920" height="1440" >

            <defs>
            <style type="text/css"><![CDATA[
circle {stroke: none;}
.c0 {fill: #FFFFFF;}
]]></style>
            </defs>
<rect x="0" y="0" width="1920" height="1440" fill="black"/>
<circle cx="1324" cy="668" r="14" class="c0"/>
<circle cx="1014" cy="512" r="12" class="c0"/>
<circle cx="1414" cy="680" r="12" class="c0"/>
<circle cx="974" cy="664" r="12" class="c0"/>
<circle cx="1288" cy="602" r="12" class="c0"/>
<circle cx="1078" cy="562" r="12" class="c0"/>
<circle cx="1374" cy="650" r="12" class="c0"/>
<circle cx="936" cy="652" r="12" class="c0"/>
<circle cx="984" cy="472" r="12" class="c0"/>
<circle cx="1006" cy="402" r="12" class="c0"/>
<circle cx="960" cy="618" r="12" class="c0"/>
<circle cx="1054" cy="620" r="12" class="c0"/>
<circle cx="1020" cy="468" r="12" class="c0"/>
<circle cx="1094" cy="636" r="12" class="c0"/>
<circle cx="864" cy="368" r="12" class="c0"/>
<circle cx="1434" cy="660" r="12" class="c0"/>
<circle cx="1302" cy="632" r="12" class="c0"/>
<circle cx="1114" cy="610" r="12" class="c0"/>
<circle cx="1184" cy="676" r="12" class="c0"/>
<circle cx="990" cy="380" r="12" class="c0"/>
<circle cx="1024" cy="436" r="12" class="c0"/>
<circle cx="990" cy="316" r="12" class="c0"/>
<circle cx="1112" cy="652" r="12" class="c0"/>
<circle cx="1360" cy="628" r="12" class="c0"/>
<circle cx="1254" cy="682" r="12" class="c0"/>
<circle cx="1030" cy="542" r="12" class="c0"/>
<circle cx="1086" cy="602" r="12" class="c0"/>
<circle cx="976" cy="346" r="10" class="c0"/>
<circle cx="838" cy="336" r="10" class="c0"/>
<circle cx="1336" cy="700" r="10" class="c0"/>
<circle cx="1226" cy="684" r="10" class="c0"/>
<circle cx="1154" cy="608" r="10" class="c0"/>
<circle cx="1316" cy="608" r="10" class="c0"/>
<circle cx="1088" cy="502" r="10" class="c0"/>
<circle cx="976" cy="518" r="10" class="c0"/>
<circle cx="944" cy="534" r="10" class="c0"/>
<circle cx="1360" cy="588" r="10" class="c0"/>
<circle cx="958" cy="416" r="10" class="c0"/>
<circle cx="908" cy="596" r="10" class="c0"/>
<circle cx="716" cy="624" r="10" class="c0"/>
<circle cx="886" cy="338" r="10" class="c0"/>
<circle cx="1338" cy="618" r="10" class="c0"/>
<circle cx="944" cy="378" r="10" class="c0"/>
<circle cx="1086" cy="718" r="10" class="c0"/>
<circle cx="992" cy="498" r="10" class="c0"/>
<circle cx="1036" cy="416" r="10" class="c0"/>
<circle cx="812" cy="626" r="10" class="c0"/>
<circle cx="748" cy="628" r="10" class="c0"/>
<circle cx="1380" cy="718" r="10" class="c0"/>
<circle cx="1052" cy="680" r="10" class="c0"/>
<circle cx="1088" cy="440" r="10" class="c0"/>
<circle cx="1276" cy="648" r="10" class="c0"/>
<circle cx="1194" cy="610" r="10" class="c0"/>
<circle cx="1014" cy="654" r="10" class="c0"/>
<circle cx="980" cy="434" r="10" class="c0"/>
<circle cx="1036" cy="640" r="10" class="c0"/>
<circle cx="1050" cy="454" r="10" class="c0"/>
<circle cx="1236" cy="654" r="10" class="c0"/>
<circle cx="1162" cy="668" r="10" class="c0"/>
<circle cx="918" cy="620" r="10" class="c0"/>
<circle cx="1388" cy="690" r="10" class="c0"/>
<circle cx="994" cy="578" r="10" class="c0"/>
<circle cx="1258" cy="638" r="10" class="c0"/>
<circle cx="1410" cy="642" r="10" class="c0"/>
<circle cx="1358" cy="670" r="10" class="c0"/>
<circle cx="1146" cy="628" r="10" class="c0"/>
<circle cx="1240" cy="598" r="10" class="c0"/>
<circle cx="1056" cy="530" r="10" class="c0"/>
<circle cx="964" cy="498" r="10" class="c0"/>
<circle cx="1074" cy="518" r="10" class="c0"/>
<circle cx="920" cy="404" r="10" class="c0"/>
<circle cx="1108" cy="550" r="10" class="c0"/>
<circle cx="1030" cy="372" r="10" class="c0"/>
<circle cx="1348" cy="650" r="10" class="c0"/>
<circle cx="936" cy="460" r="10" class="c0"/>
<circle cx="1142" cy="652" r="10" class="c0"/>
<circle cx="918" cy="366" r="10" class="c0"/>
<circle cx="988" cy="536" r="10" class="c0"/>
<circle cx="1374" cy="606" r="10" class="c0"/>
<circle cx="1064" cy="660" r="10" class="c0"/>
<circle cx="966" cy="396" r="10" class="c0"/>
<circle cx="858" cy="316" r="10" class="c0"/>
<circle cx="1018" cy="620" r="10" class="c0"/>
<circle cx="1084" cy="676" r="10" class="c0"/>
<circle cx="1056" cy="704" r="10" class="c0"/>
<circle cx="888" cy="622" r="10" class="c0"/>
<circle cx="948" cy="486" r="10" class="c0"/>
<circle cx="936" cy="556" r="10" class="c0"/>
<circle cx="1020" cy="590" r="10" class="c0"/>
<circle cx="1014" cy="558" r="10" class="c0"/>
<circle cx="1290" cy="672" r="10" class="c0"/>
<circle cx="1434" cy="694" r="10" class="c0"/>
<circle cx="902" cy="430" r="8" class="c0"/>
<circle cx="1228" cy="616" r="8" class="c0"/>
<circle cx="558" cy="602" r="8" class="c0"/>
<circle cx="978" cy="596" r="8" class="c0"/>
<circle cx="772" cy="626" r="8" class="c0"/>
<circle cx="904" cy="636" r="8" class="c0"/>
<circle cx="936" cy="504" r="8" class="c0"/>
<circle cx="1046" cy="326" r="8" class="c0"/>
<circle cx="964" cy="298" r="8" class="c0"/>
<circle cx="1210" cy="654" r="8" class="c0"/>
<circle cx="920" cy="664" r="8" class="c0"/>
<circle cx="1364" cy="696" r="8" class="c0"/>
<circle cx="1054" cy="386" r="8" class="c0"/>
<circle cx="1000" cy="640" r="8" class="c0"/>
<circle cx="1268" cy="592" r="8" class="c0"/>
<circle cx="860" cy="346" r="8" class="c0"/>
<circle cx="1210" cy="674" r="8" class="c0"/>
<circle cx="1054" cy="408" r="8" class="c0"/>
<circle cx="1086" cy="534" r="8" class="c0"/>
<circle cx="1274" cy="692" r="8" class="c0"/>
<circle cx="914" cy="440" r="8" class="c0"/>
<circle cx="748" cy="658" r="8" class="c0"/>
<circle cx="936" cy="328" r="8" class="c0"/>
<circle cx="1186" cy="636" r="8" class="c0"/>
<circle cx="1388" cy="632" r="8" class="c0"/>
<circle cx="1290" cy="700" r="8" class="c0"/>
<circle cx="1008" cy="358" r="8" class="c0"/>
<circle cx="1140" cy="560" r="8" class="c0"/>
<circle cx="954" cy="316" r="8" class="c0"/>
<circle cx="574" cy="616" r="8" class="c0"/>
<circle cx="968" cy="446" r="8" class="c0"/>
<circle cx="1042" cy="590" r="8" class="c0"/>
<circle cx="1032" cy="314" r="8" class="c0"/>
<circle cx="1016" cy="304" r="8" class="c0"/>
<circle cx="1098" cy="522" r="8" class="c0"/>
<circle cx="1062" cy="434" r="8" class="c0"/>
<circle cx="1026" cy="492" r="8" class="c0"/>
<circle cx="608" cy="618" r="8" class="c0"/>
<circle cx="626" cy="626" r="8" class="c0"/>
<circle cx="894" cy="362" r="8" class="c0"/>
<circle cx="916" cy="576" r="8" class="c0"/>
<circle cx="688" cy="614" r="8" class="c0"/>
<circle cx="1212" cy="598" r="8" class="c0"/>
<circle cx="1076" cy="408" r="8" class="c0"/>
<circle cx="996" cy="602" r="8" class="c0"/>
<circle cx="1076" cy="452" r="8" class="c0"/>
<circle cx="1266" cy="618" r="8" class="c0"/>
<circle cx="1110" cy="424" r="8" class="c0"/>
<circle cx="658" cy="608" r="8" class="c0"/>
<circle cx="1054" cy="726" r="8" class="c0"/>
<circle cx="1066" cy="584" r="8" class="c0"/>
<circle cx="1392" cy="660" r="8" class="c0"/>
<circle cx="1128" cy="674" r="8" class="c0"/>
<circle cx="1088" cy="698" r="8" class="c0"/>
<circle cx="1304" cy="688" r="8" class="c0"/>
<circle cx="930" cy="348" r="8" class="c0"/>
<circle cx="1164" cy="636" r="8" class="c0"/>
<circle cx="956" cy="468" r="8" class="c0"/>
<circle cx="960" cy="356" r="8" class="c0"/>
<circle cx="708" cy="646" r="8" class="c0"/>
<circle cx="1320" cy="588" r="8" class="c0"/>
<circle cx="942" cy="302" r="8" class="c0"/>
<circle cx="922" cy="424" r="8" class="c0"/>
<circle cx="912" cy="328" r="8" class="c0"/>
<circle cx="894" cy="382" r="8" class="c0"/>
<circle cx="970" cy="636" r="8" class="c0"/>
<circle cx="828" cy="354" r="8" class="c0"/>
<circle cx="960" cy="336" r="8" class="c0"/>
<circle cx="1072" cy="632" r="8" class="c0"/>
<circle cx="934" cy="630" r="8" class="c0"/>
<circle cx="1338" cy="722" r="8" class="c0"/>
<circle cx="1314" cy="706" r="8" class="c0"/>
<circle cx="872" cy="638" r="8" class="c0"/>
<circle cx="1264" cy="662" r="8" class="c0"/>
<circle cx="998" cy="450" r="8" class="c0"/>
<circle cx="1360" cy="714" r="8" class="c0"/>
<circle cx="598" cy="606" r="8" class="c0"/>
<circle cx="1104" cy="450" r="8" class="c0"/>
<circle cx="694" cy="632" r="8" class="c0"/>
<circle cx="786" cy="670" r="8" class="c0"/>
<circle cx="1044" cy="518" r="8" class="c0"/>
<circle cx="1162" cy="558" r="8" class="c0"/>
<circle cx="1126" cy="638" r="8" class="c0"/>
<circle cx="666" cy="626" r="8" class="c0"/>
<circle cx="1126" cy="594" r="8" class="c0"/>
<circle cx="1242" cy="628" r="8" class="c0"/>
<circle cx="1326" cy="638" r="8" class="c0"/>
<circle cx="952" cy="512" r="8" class="c0"/>
<circle cx="986" cy="622" r="8" class="c0"/>
<circle cx="950" cy="638" r="8" class="c0"/>
<circle cx="1068" cy="690" r="8" class="c0"/>
<circle cx="1052" cy="564" r="8" class="c0"/>
<circle cx="1172" cy="600" r="8" class="c0"/>
<circle cx="1066" cy="546" r="8" class="c0"/>
<circle cx="1208" cy="630" r="8" class="c0"/>
<circle cx="1174" cy="570" r="8" class="c0"/>
<circle cx="1172" cy="620" r="8" class="c0"/>
<circle cx="650" cy="634" r="8" class="c0"/>
<circle cx="1334" cy="598" r="8" class="c0"/>
<circle cx="1024" cy="392" r="8" class="c0"/>
<circle cx="1100" cy="586" r="8" class="c0"/>
<circle cx="1000" cy="292" r="8" class="c0"/>
<circle cx="990" cy="652" r="8" class="c0"/>
<circle cx="846" cy="638" r="8" class="c0"/>
<circle cx="982" cy="408" r="8" class="c0"/>
<circle cx="982" cy="290" r="8" class="c0"/>
<circle cx="790" cy="630" r="8" class="c0"/>
<circle cx="730" cy="642" r="8" class="c0"/>
<circle cx="1026" cy="668" r="8" class="c0"/>
<circle cx="1192" cy="656" r="8" class="c0"/>
<circle cx="1400" cy="616" r="8" class="c0"/>
<circle cx="1190" cy="584" r="8" class="c0"/>
<circle cx="940" cy="408" r="8" class="c0"/>
<circle cx="952" cy="666" r="8" class="c0"/>
<circle cx="628" cy="606" r="8" class="c0"/>
<circle cx="912" cy="386" r="8" class="c0"/>
<circle cx="1406" cy="702" r="8" class="c0"/>
<circle cx="1030" cy="570" r="8" class="c0"/>
<circle cx="1006" cy="486" r="8" class="c0"/>
<circle cx="848" cy="356" r="8" class="c0"/>
<circle cx="1310" cy="652" r="8" class="c0"/>
<circle cx="1092" cy="416" r="8" class="c0"/>
<circle cx="1152" cy="572" r="8" class="c0"/>
<circle cx="1298" cy="584" r="8" class="c0"/>
<circle cx="1434" cy="632" r="8" class="c0"/>
<circle cx="998" cy="668" r="8" class="c0"/>
<circle cx="1220" cy="642" r="8" class="c0"/>
<circle cx="924" cy="318" r="8" class="c0"/>
<circle cx="1348" cy="686" r="8" class="c0"/>
<circle cx="996" cy="348" r="8" class="c0"/>
<circle cx="1074" cy="390" r="8" class="c0"/>
<circle cx="1174" cy="652" r="8" class="c0"/>
<circle cx="636" cy="646" r="8" class="c0"/>
<circle cx="642" cy="616" r="8" class="c0"/>
<circle cx="1192" cy="566" r="8" class="c0"/>
<circle cx="832" cy="628" r="8" class="c0"/>
<circle cx="1004" cy="424" r="8" class="c0"/>
<circle cx="838" cy="366" r="8" class="c0"/>
<circle cx="904" cy="346" r="8" class="c0"/>
<circle cx="964" cy="376" r="8" class="c0"/>
<circle cx="1030" cy="608" r="8" class="c0"/>
<circle cx="1042" cy="660" r="8" class="c0"/>
<circle cx="938" cy="676" r="8" class="c0"/>
<circle cx="1384" cy="588" r="8" class="c0"/>
<circle cx="974" cy="366" r="8" class="c0"/>
<circle cx="1042" cy="396" r="8" class="c0"/>
<circle cx="950" cy="346" r="8" class="c0"/>
<circle cx="862" cy="626" r="8" class="c0"/>
<circle cx="960" cy="648" r="8" class="c0"/>
<circle cx="1122" cy="448" r="8" class="c0"/>
<circle cx="1008" cy="538" r="8" class="c0"/>
<circle cx="676" cy="636" r="8" class="c0"/>
<circle cx="1164" cy="582" r="8" class="c0"/>
<circle cx="580" cy="600" r="6" class="c0"/>
<circle cx="1056" cy="640" r="6" class="c0"/>
<circle cx="1116" cy="584" r="6" class="c0"/>
<circle cx="898" cy="448" r="6" class="c0"/>
<circle cx="1282" cy="628" r="6" class="c0"/>
<circle cx="1344" cy="580" r="6" class="c0"/>
<circle cx="1100" cy="486" r="6" class="c0"/>
<circle cx="878" cy="356" r="6" class="c0"/>
<circle cx="1136" cy="612" r="6" class="c0"/>
<circle cx="1084" cy="582" r="6" class="c0"/>
<circle cx="914" cy="646" r="6" class="c0"/>
<circle cx="932" cy="392" r="6" class="c0"/>
<circle cx="930" cy="480" r="6" class="c0"/>
<circle cx="1366" cy="730" r="6" class="c0"/>
<circle cx="1064" cy="376" r="6" class="c0"/>
<circle cx="736" cy="616" r="6" class="c0"/>
<circle cx="1414" cy="624" r="6" class="c0"/>
<circle cx="1128" cy="622" r="6" class="c0"/>
<circle cx="1144" cy="594" r="6" class="c0"/>
<circle cx="1210" cy="562" r="6" class="c0"/>
<circle cx="1250" cy="614" r="6" class="c0"/>
<circle cx="1052" cy="600" r="6" class="c0"/>
<circle cx="1074" cy="424" r="6" class="c0"/>
<circle cx="1092" cy="656" r="6" class="c0"/>
<circle cx="1014" cy="382" r="6" class="c0"/>
<circle cx="1120" cy="562" r="6" class="c0"/>
<circle cx="996" cy="552" r="6" class="c0"/>
<circle cx="888" cy="438" r="6" class="c0"/>
<circle cx="1376" cy="678" r="6" class="c0"/>
<circle cx="970" cy="320" r="6" class="c0"/>
<circle cx="1104" cy="672" r="6" class="c0"/>
<circle cx="1208" cy="690" r="6" class="c0"/>
<circle cx="764" cy="666" r="6" class="c0"/>
<circle cx="1036" cy="502" r="6" class="c0"/>
<circle cx="1350" cy="602" r="6" class="c0"/>
<circle cx="1240" cy="696" r="6" class="c0"/>
<circle cx="1046" cy="436" r="6" class="c0"/>
<circle cx="886" cy="646" r="6" class="c0"/>
<circle cx="1098" cy="566" r="6" class="c0"/>
<circle cx="870" cy="328" r="6" class="c0"/>
<circle cx="958" cy="598" r="6" class="c0"/>
<circle cx="1074" cy="616" r="6" class="c0"/>
<circle cx="1050" cy="370" r="6" class="c0"/>
<circle cx="954" cy="288" r="6" class="c0"/>
<circle cx="1080" cy="648" r="6" class="c0"/>
<circle cx="940" cy="614" r="6" class="c0"/>
<circle cx="590" cy="620" r="6" class="c0"/>
<circle cx="1222" cy="664" r="6" class="c0"/>
<circle cx="1238" cy="672" r="6" class="c0"/>
<circle cx="1034" cy="682" r="6" class="c0"/>
<circle cx="1258" cy="604" r="6" class="c0"/>
<circle cx="904" cy="414" r="6" class="c0"/>
<circle cx="940" cy="360" r="6" class="c0"/>
<circle cx="1066" cy="606" r="6" class="c0"/>
<circle cx="934" cy="520" r="6" class="c0"/>
<circle cx="1294" cy="654" r="6" class="c0"/>
<circle cx="884" cy="372" r="6" class="c0"/>
<circle cx="1280" cy="582" r="6" class="c0"/>
<circle cx="1074" cy="706" r="6" class="c0"/>
<circle cx="1064" cy="464" r="6" class="c0"/>
<circle cx="996" cy="520" r="6" class="c0"/>
<circle cx="1392" cy="602" r="6" class="c0"/>
<circle cx="952" cy="452" r="6" class="c0"/>
<circle cx="822" cy="328" r="6" class="c0"/>
<circle cx="1444" cy="676" r="6" class="c0"/>
<circle cx="760" cy="616" r="6" class="c0"/>
<circle cx="1050" cy="548" r="6" class="c0"/>
<circle cx="1412" cy="660" r="6" class="c0"/>
<circle cx="976" cy="580" r="6" class="c0"/>
<circle cx="1320" cy="690" r="6" class="c0"/>
<circle cx="1052" cy="424" r="6" class="c0"/>
<circle cx="966" cy="480" r="6" class="c0"/>
<circle cx="1042" cy="694" r="6" class="c0"/>
<circle cx="704" cy="612" r="6" class="c0"/>
<circle cx="1044" cy="716" r="6" class="c0"/>
<circle cx="1086" cy="464" r="6" class="c0"/>
<circle cx="958" cy="436" r="6" class="c0"/>
<circle cx="1144" cy="670" r="6" class="c0"/>
</svg>
