<?xml version="1.0" encoding="utf-8"?>
<svg xmlns="http://www.w3.org/2000/svg"
     xmlns:xlink="http://www.w3.org/1999/xlink" width="1920" height="1440" >

            <defs>
            <style type="text/css"><![CDATA[
circle {stroke: none;}
.c0 {fill: #FFFFFF;}
]]></style>
            </defs>
<rect x="0" y="0" width="1920" height="1440" fill="black"/>
<circle cx="458" cy="1020" r="14" class="c0"/>
<circle cx="110" cy="98" r="14" class="c0"/>
<circle cx="280" cy="790" r="14" class="c0"/>
<circle cx="314" cy="674" r="12" class="c0"/>
<circle cx="506" cy="1226" r="12" class="c0"/>
<circle cx="144" cy="414" r="12" class="c0"/>
<circle cx="360" cy="1022" r="12" class="c0"/>
<circle cx="312" cy="412" r="12" class="c0"/>
<circle cx="186" cy="758" r="12" class="c0"/>
<circle cx="170" cy="386" r="12" class="c0"/>
<circle cx="416" cy="62" r="12" class="c0"/>
<circle cx="90" cy="448" r="12" class="c0"/>
<circle cx="468" cy="1124" r="12" class="c0"/>
<circle cx="408" cy="268" r="12" class="c0"/>
<circle cx="380" cy="768" r="12" class="c0"/>
<circle cx="454" cy="1058" r="12" class="c0"/>
<circle cx="258" cy="572" r="12" class="c0"/>
<circle cx="232" cy="610" r="12" class="c0"/>
<circle cx="428" cy="1140" r="12" class="c0"/>
<circle cx="332" cy="510" r="12" class="c0"/>
<circle cx="208" cy="676" r="12" class="c0"/>
<circle cx="292" cy="54" r="12" class="c0"/>
<circle cx="30" cy="104" r="12" class="c0"/>
<circle cx="204" cy="806" r="12" class="c0"/>
<circle cx="248" cy="186" r="12" class="c0"/>
<circle cx="120" cy="34" r="12" class="c0"/>
<circle cx="164" cy="476" r="12" class="c0"/>
<circle cx="394" cy="524" r="12" class="c0"/>
<circle cx="276" cy="500" r="12" class="c0"/>
<circle cx="362" cy="360" r="12" class="c0"/>
<circle cx="418" cy="176" r="12" class="c0"/>
<circle cx="292" cy="916" r="12" class="c0"/>
<circle cx="394" cy="168" r="12" class="c0"/>
<circle cx="300" cy="392" r="12" class="c0"/>
<circle cx="314" cy="320" r="12" class="c0"/>
<circle cx="414" cy="684" r="12" class="c0"/>
<circle cx="212" cy="102" r="12" class="c0"/>
<circle cx="304" cy="612" r="12" class="c0"/>
<circle cx="394" cy="312" r="12" class="c0"/>
<circle cx="86" cy="338" r="12" class="c0"/>
<circle cx="356" cy="984" r="12" class="c0"/>
<circle cx="254" cy="116" r="12" class="c0"/>
<circle cx="78" cy="388" r="12" class="c0"/>
<circle cx="230" cy="266" r="12" class="c0"/>
<circle cx="156" cy="100" r="12" class="c0"/>
<circle cx="430" cy="1210" r="12" class="c0"/>
<circle cx="364" cy="22" r="12" class="c0"/>
<circle cx="130" cy="372" r="12" class="c0"/>
<circle cx="100" cy="518" r="12" class="c0"/>
<circle cx="252" cy="228" r="12" class="c0"/>
<circle cx="316" cy="590" r="12" class="c0"/>
<circle cx="286" cy="848" r="12" class="c0"/>
<circle cx="236" cy="682" r="12" class="c0"/>
<circle cx="58" cy="316" r="12" class="c0"/>
<circle cx="356" cy="500" r="12" class="c0"/>
<circle cx="468" cy="1228" r="12" class="c0"/>
<circle cx="84" cy="158" r="12" class="c0"/>
<circle cx="182" cy="412" r="12" class="c0"/>
<circle cx="256" cy="304" r="12" class="c0"/>
<circle cx="278" cy="294" r="12" class="c0"/>
<circle cx="272" cy="170" r="12" class="c0"/>
<circle cx="120" cy="154" r="12" class="c0"/>
<circle cx="216" cy="536" r="12" class="c0"/>
<circle cx="76" cy="98" r="12" class="c0"/>
<circle cx="400" cy="788" r="12" class="c0"/>
<circle cx="246" cy="14" r="10" class="c0"/>
<circle cx="170" cy="136" r="10" class="c0"/>
<circle cx="396" cy="212" r="10" class="c0"/>
<circle cx="116" cy="474" r="10" class="c0"/>
<circle cx="370" cy="934" r="10" class="c0"/>
<circle cx="402" cy="1114" r="10" class="c0"/>
<circle cx="150" cy="632" r="10" class="c0"/>
<circle cx="246" cy="436" r="10" class="c0"/>
<circle cx="334" cy="308" r="10" class="c0"/>
<circle cx="412" cy="1176" r="10" class="c0"/>
<circle cx="246" cy="918" r="10" class="c0"/>
<circle cx="156" cy="350" r="10" class="c0"/>
<circle cx="270" cy="876" r="10" class="c0"/>
<circle cx="400" cy="130" r="10" class="c0"/>
<circle cx="422" cy="944" r="10" class="c0"/>
<circle cx="290" cy="122" r="10" class="c0"/>
<circle cx="330" cy="776" r="10" class="c0"/>
<circle cx="200" cy="566" r="10" class="c0"/>
<circle cx="354" cy="330" r="10" class="c0"/>
<circle cx="336" cy="690" r="10" class="c0"/>
<circle cx="538" cy="1266" r="10" class="c0"/>
<circle cx="258" cy="256" r="10" class="c0"/>
<circle cx="318" cy="230" r="10" class="c0"/>
<circle cx="374" cy="258" r="10" class="c0"/>
<circle cx="312" cy="822" r="10" class="c0"/>
<circle cx="364" cy="238" r="10" class="c0"/>
<circle cx="296" cy="958" r="10" class="c0"/>
<circle cx="98" cy="270" r="10" class="c0"/>
<circle cx="362" cy="836" r="10" class="c0"/>
<circle cx="138" cy="168" r="10" class="c0"/>
<circle cx="336" cy="130" r="10" class="c0"/>
<circle cx="278" cy="548" r="10" class="c0"/>
<circle cx="336" cy="210" r="10" class="c0"/>
<circle cx="354" cy="266" r="10" class="c0"/>
<circle cx="430" cy="770" r="10" class="c0"/>
<circle cx="26" cy="32" r="10" class="c0"/>
<circle cx="312" cy="90" r="10" class="c0"/>
<circle cx="244" cy="588" r="10" class="c0"/>
<circle cx="282" cy="232" r="10" class="c0"/>
<circle cx="248" cy="388" r="10" class="c0"/>
<circle cx="346" cy="474" r="10" class="c0"/>
<circle cx="370" cy="1112" r="10" class="c0"/>
<circle cx="268" cy="374" r="10" class="c0"/>
<circle cx="334" cy="738" r="10" class="c0"/>
<circle cx="256" cy="414" r="10" class="c0"/>
<circle cx="412" cy="234" r="10" class="c0"/>
<circle cx="294" cy="692" r="10" class="c0"/>
<circle cx="332" cy="546" r="10" class="c0"/>
<circle cx="400" cy="1140" r="10" class="c0"/>
<circle cx="262" cy="530" r="10" class="c0"/>
<circle cx="272" cy="1038" r="10" class="c0"/>
<circle cx="346" cy="380" r="10" class="c0"/>
<circle cx="220" cy="762" r="10" class="c0"/>
<circle cx="564" cy="1382" r="10" class="c0"/>
<circle cx="388" cy="344" r="10" class="c0"/>
<circle cx="226" cy="380" r="10" class="c0"/>
<circle cx="332" cy="1012" r="10" class="c0"/>
<circle cx="498" cy="1274" r="10" class="c0"/>
<circle cx="250" cy="978" r="10" class="c0"/>
<circle cx="242" cy="554" r="10" class="c0"/>
<circle cx="438" cy="1170" r="10" class="c0"/>
<circle cx="360" cy="694" r="10" class="c0"/>
<circle cx="178" cy="692" r="10" class="c0"/>
<circle cx="166" cy="272" r="10" class="c0"/>
<circle cx="106" cy="560" r="10" class="c0"/>
<circle cx="98" cy="314" r="10" class="c0"/>
<circle cx="330" cy="342" r="10" class="c0"/>
<circle cx="34" cy="138" r="10" class="c0"/>
<circle cx="104" cy="184" r="10" class="c0"/>
<circle cx="280" cy="34" r="10" class="c0"/>
<circle cx="376" cy="202" r="10" class="c0"/>
<circle cx="196" cy="590" r="10" class="c0"/>
<circle cx="356" cy="786" r="10" class="c0"/>
<circle cx="412" cy="970" r="10" class="c0"/>
<circle cx="336" cy="418" r="10" class="c0"/>
<circle cx="380" cy="714" r="10" class="c0"/>
<circle cx="304" cy="1000" r="10" class="c0"/>
<circle cx="576" cy="1394" r="10" class="c0"/>
<circle cx="348" cy="112" r="10" class="c0"/>
<circle cx="340" cy="918" r="10" class="c0"/>
<circle cx="290" cy="634" r="10" class="c0"/>
<circle cx="438" cy="792" r="10" class="c0"/>
<circle cx="260" cy="1006" r="10" class="c0"/>
<circle cx="260" cy="836" r="10" class="c0"/>
<circle cx="280" cy="672" r="10" class="c0"/>
<circle cx="380" cy="460" r="10" class="c0"/>
<circle cx="264" cy="712" r="10" class="c0"/>
<circle cx="284" cy="720" r="10" class="c0"/>
<circle cx="474" cy="1288" r="10" class="c0"/>
<circle cx="304" cy="192" r="10" class="c0"/>
<circle cx="214" cy="232" r="10" class="c0"/>
<circle cx="432" cy="40" r="10" class="c0"/>
<circle cx="202" cy="288" r="10" class="c0"/>
<circle cx="414" cy="1030" r="10" class="c0"/>
<circle cx="482" cy="1184" r="10" class="c0"/>
<circle cx="342" cy="614" r="10" class="c0"/>
<circle cx="412" cy="842" r="10" class="c0"/>
<circle cx="96" cy="424" r="10" class="c0"/>
<circle cx="134" cy="338" r="10" class="c0"/>
<circle cx="152" cy="532" r="10" class="c0"/>
<circle cx="220" cy="346" r="10" class="c0"/>
<circle cx="74" cy="224" r="10" class="c0"/>
<circle cx="298" cy="476" r="10" class="c0"/>
<circle cx="360" cy="446" r="10" class="c0"/>
<circle cx="176" cy="220" r="10" class="c0"/>
<circle cx="128" cy="70" r="10" class="c0"/>
<circle cx="462" cy="1302" r="10" class="c0"/>
<circle cx="384" cy="94" r="10" class="c0"/>
<circle cx="134" cy="228" r="10" class="c0"/>
<circle cx="284" cy="1008" r="10" class="c0"/>
<circle cx="256" cy="772" r="10" class="c0"/>
<circle cx="62" cy="260" r="10" class="c0"/>
<circle cx="222" cy="20" r="10" class="c0"/>
<circle cx="140" cy="666" r="10" class="c0"/>
<circle cx="276" cy="106" r="10" class="c0"/>
<circle cx="242" cy="134" r="10" class="c0"/>
<circle cx="228" cy="730" r="10" class="c0"/>
<circle cx="102" cy="58" r="10" class="c0"/>
<circle cx="132" cy="644" r="10" class="c0"/>
<circle cx="364" cy="526" r="10" class="c0"/>
<circle cx="288" cy="92" r="10" class="c0"/>
<circle cx="452" cy="1096" r="10" class="c0"/>
<circle cx="444" cy="894" r="10" class="c0"/>
<circle cx="200" cy="36" r="10" class="c0"/>
<circle cx="86" cy="284" r="10" class="c0"/>
<circle cx="392" cy="904" r="10" class="c0"/>
<circle cx="368" cy="862" r="10" class="c0"/>
<circle cx="442" cy="988" r="10" class="c0"/>
<circle cx="408" cy="1220" r="10" class="c0"/>
<circle cx="408" cy="416" r="10" class="c0"/>
<circle cx="260" cy="76" r="10" class="c0"/>
<circle cx="382" cy="1008" r="10" class="c0"/>
<circle cx="428" cy="732" r="10" class="c0"/>
<circle cx="522" cy="1344" r="10" class="c0"/>
<circle cx="206" cy="720" r="10" class="c0"/>
<circle cx="490" cy="1106" r="10" class="c0"/>
<circle cx="264" cy="466" r="10" class="c0"/>
<circle cx="212" cy="486" r="10" class="c0"/>
<circle cx="330" cy="1096" r="10" class="c0"/>
<circle cx="218" cy="884" r="10" class="c0"/>
<circle cx="32" cy="66" r="10" class="c0"/>
<circle cx="342" cy="32" r="10" class="c0"/>
<circle cx="104" cy="132" r="10" class="c0"/>
<circle cx="284" cy="354" r="10" class="c0"/>
<circle cx="348" cy="848" r="10" class="c0"/>
<circle cx="416" cy="616" r="10" class="c0"/>
<circle cx="152" cy="10" r="10" class="c0"/>
<circle cx="184" cy="466" r="10" class="c0"/>
<circle cx="394" cy="626" r="10" class="c0"/>
<circle cx="202" cy="192" r="10" class="c0"/>
<circle cx="210" cy="844" r="10" class="c0"/>
<circle cx="126" cy="568" r="10" class="c0"/>
<circle cx="210" cy="150" r="10" class="c0"/>
<circle cx="170" cy="82" r="10" class="c0"/>
<circle cx="398" cy="586" r="10" class="c0"/>
<circle cx="292" cy="988" r="10" class="c0"/>
<circle cx="254" cy="858" r="10" class="c0"/>
<circle cx="458" cy="956" r="10" class="c0"/>
<circle cx="384" cy="1198" r="10" class="c0"/>
<circle cx="426" cy="1086" r="10" class="c0"/>
<circle cx="420" cy="1054" r="10" class="c0"/>
<circle cx="172" cy="182" r="10" class="c0"/>
<circle cx="230" cy="790" r="10" class="c0"/>
<circle cx="240" cy="942" r="10" class="c0"/>
<circle cx="44" cy="52" r="10" class="c0"/>
<circle cx="194" cy="544" r="10" class="c0"/>
<circle cx="140" cy="292" r="10" class="c0"/>
<circle cx="514" cy="1300" r="10" class="c0"/>
<circle cx="550" cy="1352" r="10" class="c0"/>
<circle cx="364" cy="1158" r="10" class="c0"/>
<circle cx="370" cy="748" r="10" class="c0"/>
<circle cx="220" cy="54" r="10" class="c0"/>
<circle cx="410" cy="486" r="10" class="c0"/>
<circle cx="164" cy="666" r="10" class="c0"/>
<circle cx="56" cy="182" r="10" class="c0"/>
<circle cx="370" cy="1062" r="10" class="c0"/>
<circle cx="258" cy="602" r="10" class="c0"/>
<circle cx="332" cy="1050" r="10" class="c0"/>
<circle cx="312" cy="120" r="10" class="c0"/>
<circle cx="182" cy="636" r="10" class="c0"/>
<circle cx="252" cy="624" r="10" class="c0"/>
<circle cx="272" cy="748" r="10" class="c0"/>
<circle cx="130" cy="400" r="10" class="c0"/>
<circle cx="434" cy="1268" r="10" class="c0"/>
<circle cx="370" cy="814" r="10" class="c0"/>
<circle cx="220" cy="638" r="10" class="c0"/>
<circle cx="394" cy="44" r="10" class="c0"/>
<circle cx="368" cy="554" r="10" class="c0"/>
<circle cx="70" cy="298" r="10" class="c0"/>
<circle cx="424" cy="104" r="10" class="c0"/>
<circle cx="158" cy="156" r="10" class="c0"/>
<circle cx="484" cy="1244" r="10" class="c0"/>
<circle cx="230" cy="458" r="8" class="c0"/>
<circle cx="398" cy="446" r="8" class="c0"/>
<circle cx="404" cy="720" r="8" class="c0"/>
<circle cx="360" cy="46" r="8" class="c0"/>
<circle cx="138" cy="474" r="8" class="c0"/>
<circle cx="320" cy="912" r="8" class="c0"/>
<circle cx="428" cy="910" r="8" class="c0"/>
<circle cx="590" cy="1380" r="8" class="c0"/>
<circle cx="244" cy="516" r="8" class="c0"/>
<circle cx="326" cy="470" r="8" class="c0"/>
<circle cx="276" cy="416" r="8" class="c0"/>
<circle cx="258" cy="812" r="8" class="c0"/>
<circle cx="146" cy="494" r="8" class="c0"/>
<circle cx="366" cy="304" r="8" class="c0"/>
<circle cx="284" cy="196" r="8" class="c0"/>
<circle cx="264" cy="56" r="8" class="c0"/>
<circle cx="368" cy="1090" r="8" class="c0"/>
<circle cx="330" cy="1138" r="8" class="c0"/>
<circle cx="336" cy="174" r="8" class="c0"/>
<circle cx="70" cy="434" r="8" class="c0"/>
<circle cx="380" cy="974" r="8" class="c0"/>
<circle cx="404" cy="878" r="8" class="c0"/>
<circle cx="370" cy="58" r="8" class="c0"/>
<circle cx="76" cy="134" r="8" class="c0"/>
<circle cx="328" cy="858" r="8" class="c0"/>
<circle cx="432" cy="862" r="8" class="c0"/>
<circle cx="454" cy="914" r="8" class="c0"/>
<circle cx="58" cy="82" r="8" class="c0"/>
<circle cx="294" cy="758" r="8" class="c0"/>
<circle cx="376" cy="616" r="8" class="c0"/>
<circle cx="296" cy="566" r="8" class="c0"/>
<circle cx="474" cy="1000" r="8" class="c0"/>
<circle cx="190" cy="308" r="8" class="c0"/>
<circle cx="384" cy="1076" r="8" class="c0"/>
<circle cx="192" cy="110" r="8" class="c0"/>
<circle cx="392" cy="964" r="8" class="c0"/>
<circle cx="424" cy="820" r="8" class="c0"/>
<circle cx="310" cy="708" r="8" class="c0"/>
<circle cx="552" cy="1296" r="8" class="c0"/>
<circle cx="190" cy="248" r="8" class="c0"/>
<circle cx="254" cy="148" r="8" class="c0"/>
<circle cx="120" cy="208" r="8" class="c0"/>
<circle cx="296" cy="660" r="8" class="c0"/>
<circle cx="346" cy="590" r="8" class="c0"/>
<circle cx="64" cy="346" r="8" class="c0"/>
<circle cx="104" cy="462" r="8" class="c0"/>
<circle cx="344" cy="814" r="8" class="c0"/>
<circle cx="306" cy="26" r="8" class="c0"/>
<circle cx="248" cy="736" r="8" class="c0"/>
<circle cx="54" cy="20" r="8" class="c0"/>
<circle cx="166" cy="558" r="8" class="c0"/>
<circle cx="412" cy="994" r="8" class="c0"/>
<circle cx="164" cy="310" r="8" class="c0"/>
<circle cx="334" cy="660" r="8" class="c0"/>
<circle cx="226" cy="294" r="8" class="c0"/>
<circle cx="406" cy="30" r="8" class="c0"/>
<circle cx="358" cy="578" r="8" class="c0"/>
<circle cx="410" cy="92" r="8" class="c0"/>
<circle cx="200" cy="870" r="8" class="c0"/>
<circle cx="334" cy="74" r="8" class="c0"/>
<circle cx="230" cy="118" r="8" class="c0"/>
<circle cx="226" cy="908" r="8" class="c0"/>
<circle cx="376" cy="278" r="8" class="c0"/>
<circle cx="530" cy="1370" r="8" class="c0"/>
<circle cx="332" cy="452" r="8" class="c0"/>
<circle cx="188" cy="340" r="8" class="c0"/>
<circle cx="410" cy="556" r="8" class="c0"/>
<circle cx="194" cy="128" r="8" class="c0"/>
<circle cx="400" cy="982" r="8" class="c0"/>
<circle cx="82" cy="62" r="8" class="c0"/>
<circle cx="46" cy="214" r="8" class="c0"/>
<circle cx="382" cy="1038" r="8" class="c0"/>
<circle cx="304" cy="258" r="8" class="c0"/>
<circle cx="452" cy="1208" r="8" class="c0"/>
<circle cx="376" cy="420" r="8" class="c0"/>
<circle cx="256" cy="892" r="8" class="c0"/>
<circle cx="356" cy="1136" r="8" class="c0"/>
<circle cx="374" cy="398" r="8" class="c0"/>
<circle cx="160" cy="596" r="8" class="c0"/>
<circle cx="326" cy="388" r="8" class="c0"/>
<circle cx="432" cy="964" r="8" class="c0"/>
<circle cx="150" cy="710" r="8" class="c0"/>
<circle cx="118" cy="588" r="8" class="c0"/>
<circle cx="438" cy="76" r="8" class="c0"/>
<circle cx="238" cy="874" r="8" class="c0"/>
<circle cx="146" cy="48" r="8" class="c0"/>
<circle cx="170" cy="38" r="8" class="c0"/>
<circle cx="324" cy="8" r="8" class="c0"/>
<circle cx="316" cy="890" r="8" class="c0"/>
<circle cx="270" cy="990" r="8" class="c0"/>
<circle cx="362" cy="1194" r="8" class="c0"/>
<circle cx="184" cy="440" r="8" class="c0"/>
<circle cx="32" cy="248" r="8" class="c0"/>
<circle cx="226" cy="930" r="8" class="c0"/>
<circle cx="106" cy="598" r="8" class="c0"/>
<circle cx="178" cy="526" r="8" class="c0"/>
<circle cx="64" cy="42" r="8" class="c0"/>
<circle cx="208" cy="430" r="8" class="c0"/>
<circle cx="136" cy="132" r="8" class="c0"/>
<circle cx="400" cy="1068" r="8" class="c0"/>
<circle cx="414" cy="336" r="8" class="c0"/>
<circle cx="108" cy="352" r="8" class="c0"/>
<circle cx="386" cy="1158" r="8" class="c0"/>
<circle cx="204" cy="328" r="8" class="c0"/>
<circle cx="382" cy="372" r="8" class="c0"/>
<circle cx="354" cy="194" r="8" class="c0"/>
<circle cx="240" cy="844" r="8" class="c0"/>
<circle cx="402" cy="928" r="8" class="c0"/>
<circle cx="416" cy="300" r="8" class="c0"/>
<circle cx="166" cy="646" r="8" class="c0"/>
<circle cx="444" cy="938" r="8" class="c0"/>
<circle cx="30" cy="180" r="8" class="c0"/>
<circle cx="316" cy="968" r="8" class="c0"/>
<circle cx="160" cy="510" r="8" class="c0"/>
<circle cx="192" cy="12" r="8" class="c0"/>
<circle cx="446" cy="1256" r="8" class="c0"/>
<circle cx="218" cy="700" r="8" class="c0"/>
<circle cx="202" cy="742" r="8" class="c0"/>
<circle cx="322" cy="720" r="8" class="c0"/>
<circle cx="436" cy="844" r="8" class="c0"/>
<circle cx="116" cy="438" r="8" class="c0"/>
<circle cx="380" cy="484" r="8" class="c0"/>
<circle cx="268" cy="22" r="8" class="c0"/>
<circle cx="454" cy="1156" r="8" class="c0"/>
<circle cx="152" cy="254" r="8" class="c0"/>
<circle cx="226" cy="200" r="8" class="c0"/>
<circle cx="362" cy="176" r="8" class="c0"/>
<circle cx="422" cy="250" r="8" class="c0"/>
<circle cx="302" cy="520" r="8" class="c0"/>
<circle cx="366" cy="124" r="8" class="c0"/>
<circle cx="170" cy="740" r="8" class="c0"/>
<circle cx="164" cy="720" r="8" class="c0"/>
<circle cx="324" cy="48" r="8" class="c0"/>
<circle cx="110" cy="10" r="8" class="c0"/>
<circle cx="422" cy="648" r="8" class="c0"/>
<circle cx="352" cy="632" r="8" class="c0"/>
<circle cx="432" cy="1114" r="8" class="c0"/>
<circle cx="350" cy="766" r="8" class="c0"/>
<circle cx="498" cy="1128" r="8" class="c0"/>
<circle cx="350" cy="960" r="8" class="c0"/>
<circle cx="302" cy="934" r="8" class="c0"/>
<circle cx="206" cy="384" r="8" class="c0"/>
<circle cx="420" cy="10" r="8" class="c0"/>
<circle cx="310" cy="1030" r="8" class="c0"/>
<circle cx="232" cy="72" r="8" class="c0"/>
<circle cx="434" cy="1066" r="8" class="c0"/>
<circle cx="304" cy="730" r="8" class="c0"/>
<circle cx="56" cy="134" r="8" class="c0"/>
<circle cx="148" cy="448" r="8" class="c0"/>
<circle cx="294" cy="440" r="8" class="c0"/>
<circle cx="358" cy="156" r="8" class="c0"/>
<circle cx="244" cy="160" r="8" class="c0"/>
<circle cx="350" cy="898" r="8" class="c0"/>
<circle cx="344" cy="242" r="8" class="c0"/>
<circle cx="488" cy="1338" r="8" class="c0"/>
<circle cx="88" cy="478" r="8" class="c0"/>
<circle cx="192" cy="656" r="8" class="c0"/>
<circle cx="488" cy="1144" r="8" class="c0"/>
<circle cx="190" cy="270" r="8" class="c0"/>
<circle cx="326" cy="986" r="8" class="c0"/>
<circle cx="84" cy="206" r="8" class="c0"/>
<circle cx="306" cy="168" r="8" class="c0"/>
<circle cx="98" cy="374" r="8" class="c0"/>
<circle cx="190" cy="496" r="8" class="c0"/>
<circle cx="222" cy="174" r="8" class="c0"/>
<circle cx="124" cy="270" r="8" class="c0"/>
<circle cx="426" cy="216" r="8" class="c0"/>
<circle cx="426" cy="128" r="8" class="c0"/>
<circle cx="396" cy="190" r="8" class="c0"/>
<circle cx="102" cy="246" r="8" class="c0"/>
<circle cx="190" cy="786" r="8" class="c0"/>
<circle cx="244" cy="480" r="8" class="c0"/>
<circle cx="390" cy="868" r="8" class="c0"/>
<circle cx="390" cy="668" r="8" class="c0"/>
<circle cx="202" cy="356" r="8" class="c0"/>
<circle cx="300" cy="286" r="8" class="c0"/>
<circle cx="420" cy="800" r="8" class="c0"/>
<circle cx="310" cy="296" r="8" class="c0"/>
<circle cx="54" cy="108" r="8" class="c0"/>
<circle cx="418" cy="466" r="8" class="c0"/>
<circle cx="368" cy="82" r="8" class="c0"/>
<circle cx="382" cy="502" r="8" class="c0"/>
<circle cx="182" cy="606" r="8" class="c0"/>
<circle cx="204" cy="458" r="8" class="c0"/>
<circle cx="290" cy="594" r="8" class="c0"/>
<circle cx="512" cy="1174" r="8" class="c0"/>
<circle cx="188" cy="92" r="8" class="c0"/>
<circle cx="276" cy="904" r="8" class="c0"/>
<circle cx="362" cy="886" r="8" class="c0"/>
<circle cx="234" cy="362" r="8" class="c0"/>
<circle cx="350" cy="650" r="8" class="c0"/>
<circle cx="172" cy="240" r="8" class="c0"/>
<circle cx="148" cy="30" r="8" class="c0"/>
<circle cx="174" cy="774" r="8" class="c0"/>
<circle cx="206" cy="778" r="8" class="c0"/>
<circle cx="48" cy="272" r="8" class="c0"/>
<circle cx="124" cy="304" r="8" class="c0"/>
<circle cx="256" cy="674" r="8" class="c0"/>
<circle cx="394" cy="746" r="8" class="c0"/>
<circle cx="274" cy="434" r="8" class="c0"/>
<circle cx="130" cy="618" r="8" class="c0"/>
<circle cx="302" cy="774" r="8" class="c0"/>
<circle cx="218" cy="318" r="8" class="c0"/>
<circle cx="374" cy="320" r="8" class="c0"/>
<circle cx="426" cy="1234" r="8" class="c0"/>
<circle cx="52" cy="238" r="8" class="c0"/>
<circle cx="348" cy="1040" r="8" class="c0"/>
<circle cx="232" cy="418" r="8" class="c0"/>
<circle cx="302" cy="500" r="8" class="c0"/>
<circle cx="486" cy="1078" r="8" class="c0"/>
<circle cx="214" cy="368" r="8" class="c0"/>
<circle cx="500" cy="1204" r="8" class="c0"/>
<circle cx="402" cy="396" r="8" class="c0"/>
<circle cx="350" cy="712" r="8" class="c0"/>
<circle cx="268" cy="398" r="8" class="c0"/>
<circle cx="398" cy="76" r="8" class="c0"/>
<circle cx="64" cy="150" r="8" class="c0"/>
<circle cx="404" cy="356" r="8" class="c0"/>
<circle cx="240" cy="34" r="8" class="c0"/>
<circle cx="188" cy="856" r="8" class="c0"/>
<circle cx="204" cy="76" r="8" class="c0"/>
<circle cx="126" cy="114" r="8" class="c0"/>
<circle cx="200" cy="212" r="8" class="c0"/>
<circle cx="244" cy="54" r="8" class="c0"/>
<circle cx="326" cy="932" r="8" class="c0"/>
<circle cx="98" cy="542" r="8" class="c0"/>
<circle cx="482" cy="1056" r="8" class="c0"/>
<circle cx="532" cy="1246" r="8" class="c0"/>
<circle cx="38" cy="198" r="8" class="c0"/>
<circle cx="92" cy="114" r="8" class="c0"/>
<circle cx="320" cy="276" r="8" class="c0"/>
<circle cx="116" cy="504" r="8" class="c0"/>
<circle cx="278" cy="932" r="8" class="c0"/>
<circle cx="144" cy="196" r="8" class="c0"/>
<circle cx="144" cy="584" r="8" class="c0"/>
<circle cx="272" cy="334" r="8" class="c0"/>
<circle cx="454" cy="1182" r="8" class="c0"/>
<circle cx="318" cy="648" r="8" class="c0"/>
<circle cx="140" cy="688" r="8" class="c0"/>
<circle cx="326" cy="366" r="8" class="c0"/>
<circle cx="380" cy="578" r="8" class="c0"/>
<circle cx="66" cy="118" r="8" class="c0"/>
<circle cx="168" cy="618" r="8" class="c0"/>
<circle cx="390" cy="1098" r="8" class="c0"/>
<circle cx="290" cy="1028" r="8" class="c0"/>
<circle cx="186" cy="368" r="8" class="c0"/>
<circle cx="320" cy="492" r="8" class="c0"/>
<circle cx="206" cy="262" r="8" class="c0"/>
<circle cx="310" cy="1066" r="8" class="c0"/>
<circle cx="366" cy="908" r="8" class="c0"/>
<circle cx="166" cy="204" r="8" class="c0"/>
<circle cx="78" cy="414" r="8" class="c0"/>
<circle cx="548" cy="1324" r="8" class="c0"/>
<circle cx="386" cy="694" r="8" class="c0"/>
<circle cx="514" cy="1250" r="8" class="c0"/>
<circle cx="208" cy="620" r="8" class="c0"/>
<circle cx="378" cy="222" r="8" class="c0"/>
<circle cx="248" cy="280" r="8" class="c0"/>
<circle cx="124" cy="526" r="8" class="c0"/>
<circle cx="418" cy="504" r="8" class="c0"/>
<circle cx="406" cy="374" r="8" class="c0"/>
<circle cx="266" cy="132" r="8" class="c0"/>
<circle cx="374" cy="1182" r="8" class="c0"/>
<circle cx="48" cy="158" r="8" class="c0"/>
<circle cx="354" cy="1080" r="8" class="c0"/>
<circle cx="194" cy="514" r="8" class="c0"/>
<circle cx="240" cy="246" r="8" class="c0"/>
<circle cx="160" cy="762" r="8" class="c0"/>
<circle cx="218" cy="512" r="8" class="c0"/>
<circle cx="320" cy="804" r="8" class="c0"/>
<circle cx="420" cy="572" r="8" class="c0"/>
<circle cx="390" cy="646" r="8" class="c0"/>
<circle cx="416" cy="890" r="8" class="c0"/>
<circle cx="188" cy="164" r="8" class="c0"/>
<circle cx="298" cy="152" r="8" class="c0"/>
<circle cx="352" cy="402" r="8" class="c0"/>
<circle cx="114" cy="256" r="8" class="c0"/>
<circle cx="82" cy="8" r="8" class="c0"/>
<circle cx="272" cy="972" r="8" class="c0"/>
<circle cx="450" cy="1138" r="8" class="c0"/>
<circle cx="282" cy="528" r="8" class="c0"/>
<circle cx="78" cy="244" r="8" class="c0"/>
<circle cx="356" cy="294" r="8" class="c0"/>
<circle cx="176" cy="294" r="8" class="c0"/>
<circle cx="344" cy="62" r="8" class="c0"/>
<circle cx="304" cy="792" r="8" class="c0"/>
<circle cx="428" cy="666" r="8" class="c0"/>
<circle cx="350" cy="1060" r="8" class="c0"/>
<circle cx="300" cy="542" r="8" class="c0"/>
<circle cx="290" cy="1050" r="8" class="c0"/>
<circle cx="98" cy="404" r="8" class="c0"/>
<circle cx="376" cy="148" r="8" class="c0"/>
<circle cx="350" cy="936" r="8" class="c0"/>
<circle cx="172" cy="326" r="8" class="c0"/>
<circle cx="378" cy="596" r="8" class="c0"/>
<circle cx="446" cy="16" r="8" class="c0"/>
<circle cx="304" cy="868" r="8" class="c0"/>
<circle cx="414" cy="154" r="8" class="c0"/>
<circle cx="280" cy="266" r="8" class="c0"/>
<circle cx="604" cy="1398" r="8" class="c0"/>
<circle cx="208" cy="410" r="8" class="c0"/>
<circle cx="474" cy="1328" r="8" class="c0"/>
<circle cx="468" cy="1266" r="8" class="c0"/>
<circle cx="416" cy="1156" r="8" class="c0"/>
<circle cx="240" cy="704" r="8" class="c0"/>
<circle cx="322" cy="150" r="8" class="c0"/>
<circle cx="388" cy="550" r="8" class="c0"/>
<circle cx="30" cy="10" r="8" class="c0"/>
<circle cx="350" cy="1176" r="8" class="c0"/>
<circle cx="214" cy="582" r="8" class="c0"/>
<circle cx="240" cy="328" r="8" class="c0"/>
<circle cx="324" cy="834" r="8" class="c0"/>
<circle cx="266" cy="648" r="8" class="c0"/>
<circle cx="112" cy="224" r="8" class="c0"/>
<circle cx="502" cy="1186" r="8" class="c0"/>
<circle cx="482" cy="1310" r="8" class="c0"/>
<circle cx="524" cy="1200" r="8" class="c0"/>
<circle cx="344" cy="672" r="8" class="c0"/>
<circle cx="182" cy="814" r="8" class="c0"/>
<circle cx="276" cy="452" r="8" class="c0"/>
<circle cx="290" cy="814" r="8" class="c0"/>
<circle cx="156" cy="60" r="8" class="c0"/>
<circle cx="466" cy="1170" r="8" class="c0"/>
<circle cx="442" cy="1038" r="8" class="c0"/>
<circle cx="328" cy="110" r="8" class="c0"/>
<circle cx="138" cy="90" r="8" class="c0"/>
<circle cx="538" cy="1334" r="8" class="c0"/>
<circle cx="224" cy="662" r="8" class="c0"/>
<circle cx="406" cy="760" r="8" class="c0"/>
<circle cx="294" cy="334" r="8" class="c0"/>
<circle cx="378" cy="878" r="8" class="c0"/>
<circle cx="68" cy="370" r="8" class="c0"/>
<circle cx="136" cy="514" r="8" class="c0"/>
<circle cx="478" cy="1210" r="8" class="c0"/>
<circle cx="574" cy="1342" r="8" class="c0"/>
<circle cx="166" cy="438" r="8" class="c0"/>
<circle cx="284" cy="12" r="8" class="c0"/>
<circle cx="234" cy="812" r="8" class="c0"/>
<circle cx="384" cy="946" r="8" class="c0"/>
<circle cx="350" cy="874" r="8" class="c0"/>
<circle cx="90" cy="28" r="8" class="c0"/>
<circle cx="304" cy="8" r="8" class="c0"/>
<circle cx="150" cy="122" r="8" class="c0"/>
<circle cx="608" cy="1426" r="8" class="c0"/>
<circle cx="128" cy="14" r="8" class="c0"/>
<circle cx="238" cy="964" r="8" class="c0"/>
<circle cx="148" cy="744" r="8" class="c0"/>
<circle cx="102" cy="204" r="8" class="c0"/>
<circle cx="402" cy="824" r="8" class="c0"/>
<circle cx="318" cy="748" r="8" class="c0"/>
<circle cx="224" cy="564" r="8" class="c0"/>
<circle cx="116" cy="628" r="8" class="c0"/>
<circle cx="224" cy="824" r="8" class="c0"/>
<circle cx="180" cy="62" r="8" class="c0"/>
<circle cx="176" cy="574" r="8" class="c0"/>
<circle cx="340" cy="284" r="8" class="c0"/>
<circle cx="240" cy="998" r="8" class="c0"/>
<circle cx="530" cy="1314" r="8" class="c0"/>
<circle cx="154" cy="570" r="8" class="c0"/>
<circle cx="250" cy="346" r="8" class="c0"/>
<circle cx="400" cy="566" r="8" class="c0"/>
<circle cx="392" cy="12" r="8" class="c0"/>
<circle cx="314" cy="444" r="8" class="c0"/>
<circle cx="474" cy="1092" r="8" class="c0"/>
<circle cx="304" cy="218" r="8" class="c0"/>
<circle cx="386" cy="430" r="8" class="c0"/>
<circle cx="506" cy="1326" r="8" class="c0"/>
<circle cx="332" cy="92" r="8" class="c0"/>
<circle cx="266" cy="198" r="8" class="c0"/>
<circle cx="350" cy="222" r="8" class="c0"/>
<circle cx="352" cy="540" r="8" class="c0"/>
<circle cx="154" cy="214" r="8" class="c0"/>
<circle cx="476" cy="1034" r="8" class="c0"/>
<circle cx="402" cy="858" r="8" class="c0"/>
<circle cx="398" cy="1048" r="8" class="c0"/>
<circle cx="298" cy="886" r="8" class="c0"/>
<circle cx="330" cy="258" r="8" class="c0"/>
<circle cx="310" cy="1088" r="8" class="c0"/>
<circle cx="84" cy="360" r="8" class="c0"/>
<circle cx="316" cy="376" r="8" class="c0"/>
<circle cx="382" cy="734" r="8" class="c0"/>
<circle cx="324" cy="188" r="8" class="c0"/>
<circle cx="180" cy="28" r="8" class="c0"/>
<circle cx="376" cy="636" r="8" class="c0"/>
<circle cx="370" cy="106" r="8" class="c0"/>
<circle cx="84" cy="504" r="8" class="c0"/>
<circle cx="368" cy="668" r="8" class="c0"/>
<circle cx="258" cy="960" r="8" class="c0"/>
<circle cx="268" cy="942" r="8" class="c0"/>
<circle cx="298" cy="366" r="8" class="c0"/>
<circle cx="174" cy="116" r="8" class="c0"/>
<circle cx="414" cy="744" r="8" class="c0"/>
<circle cx="130" cy="546" r="8" class="c0"/>
<circle cx="414" cy="596" r="8" class="c0"/>
<circle cx="212" cy="130" r="8" class="c0"/>
<circle cx="282" cy="144" r="8" class="c0"/>
<circle cx="450" cy="874" r="8" class="c0"/>
<circle cx="384" cy="118" r="8" class="c0"/>
<circle cx="326" cy="434" r="8" class="c0"/>
<circle cx="500" cy="1360" r="8" class="c0"/>
<circle cx="342" cy="1118" r="8" class="c0"/>
<circle cx="354" cy="730" r="8" class="c0"/>
<circle cx="330" cy="566" r="8" class="c0"/>
<circle cx="356" cy="138" r="8" class="c0"/>
<circle cx="184" cy="724" r="8" class="c0"/>
<circle cx="132" cy="440" r="6" class="c0"/>
<circle cx="154" cy="176" r="6" class="c0"/>
<circle cx="246" cy="86" r="6" class="c0"/>
<circle cx="106" cy="492" r="6" class="c0"/>
<circle cx="416" cy="138" r="6" class="c0"/>
<circle cx="238" cy="496" r="6" class="c0"/>
<circle cx="192" cy="702" r="6" class="c0"/>
<circle cx="446" cy="1078" r="6" class="c0"/>
<circle cx="272" cy="620" r="6" class="c0"/>
<circle cx="422" cy="874" r="6" class="c0"/>
<circle cx="272" cy="820" r="6" class="c0"/>
<circle cx="264" cy="692" r="6" class="c0"/>
<circle cx="416" cy="450" r="6" class="c0"/>
<circle cx="500" cy="1154" r="6" class="c0"/>
<circle cx="470" cy="1144" r="6" class="c0"/>
<circle cx="88" cy="84" r="6" class="c0"/>
<circle cx="168" cy="794" r="6" class="c0"/>
<circle cx="70" cy="456" r="6" class="c0"/>
<circle cx="238" cy="770" r="6" class="c0"/>
<circle cx="148" cy="324" r="6" class="c0"/>
<circle cx="346" cy="522" r="6" class="c0"/>
<circle cx="236" cy="312" r="6" class="c0"/>
<circle cx="234" cy="98" r="6" class="c0"/>
<circle cx="240" cy="532" r="6" class="c0"/>
<circle cx="226" cy="400" r="6" class="c0"/>
<circle cx="276" cy="766" r="6" class="c0"/>
<circle cx="384" cy="834" r="6" class="c0"/>
<circle cx="34" cy="84" r="6" class="c0"/>
<circle cx="446" cy="816" r="6" class="c0"/>
<circle cx="196" cy="830" r="6" class="c0"/>
<circle cx="372" cy="164" r="6" class="c0"/>
<circle cx="228" cy="218" r="6" class="c0"/>
<circle cx="418" cy="432" r="6" class="c0"/>
<circle cx="412" cy="1252" r="6" class="c0"/>
<circle cx="258" cy="792" r="6" class="c0"/>
<circle cx="424" cy="714" r="6" class="c0"/>
<circle cx="316" cy="764" r="6" class="c0"/>
<circle cx="136" cy="600" r="6" class="c0"/>
<circle cx="248" cy="754" r="6" class="c0"/>
<circle cx="428" cy="1250" r="6" class="c0"/>
<circle cx="402" cy="1238" r="6" class="c0"/>
<circle cx="294" cy="1068" r="6" class="c0"/>
<circle cx="122" cy="286" r="6" class="c0"/>
<circle cx="288" cy="250" r="6" class="c0"/>
<circle cx="438" cy="1292" r="6" class="c0"/>
<circle cx="220" cy="440" r="6" class="c0"/>
<circle cx="404" cy="1008" r="6" class="c0"/>
<circle cx="316" cy="528" r="6" class="c0"/>
<circle cx="438" cy="94" r="6" class="c0"/>
<circle cx="348" cy="432" r="6" class="c0"/>
<circle cx="412" cy="536" r="6" class="c0"/>
<circle cx="410" cy="658" r="6" class="c0"/>
<circle cx="158" cy="690" r="6" class="c0"/>
<circle cx="146" cy="384" r="6" class="c0"/>
<circle cx="430" cy="1000" r="6" class="c0"/>
<circle cx="430" cy="1018" r="6" class="c0"/>
<circle cx="328" cy="954" r="6" class="c0"/>
<circle cx="414" cy="1126" r="6" class="c0"/>
<circle cx="492" cy="1292" r="6" class="c0"/>
<circle cx="394" cy="236" r="6" class="c0"/>
<circle cx="112" cy="326" r="6" class="c0"/>
<circle cx="208" cy="914" r="6" class="c0"/>
<circle cx="200" cy="56" r="6" class="c0"/>
<circle cx="170" cy="12" r="6" class="c0"/>
<circle cx="420" cy="924" r="6" class="c0"/>
<circle cx="408" cy="636" r="6" class="c0"/>
<circle cx="350" cy="1006" r="6" class="c0"/>
<circle cx="208" cy="654" r="6" class="c0"/>
<circle cx="238" cy="644" r="6" class="c0"/>
<circle cx="250" cy="456" r="6" class="c0"/>
<circle cx="286" cy="462" r="6" class="c0"/>
<circle cx="348" cy="750" r="6" class="c0"/>
<circle cx="138" cy="262" r="6" class="c0"/>
<circle cx="176" cy="508" r="6" class="c0"/>
<circle cx="390" cy="848" r="6" class="c0"/>
<circle cx="438" cy="1192" r="6" class="c0"/>
<circle cx="122" cy="604" r="6" class="c0"/>
<circle cx="576" cy="1366" r="6" class="c0"/>
<circle cx="402" cy="1084" r="6" class="c0"/>
<circle cx="304" cy="348" r="6" class="c0"/>
<circle cx="334" cy="880" r="6" class="c0"/>
<circle cx="312" cy="1104" r="6" class="c0"/>
<circle cx="464" cy="1192" r="6" class="c0"/>
<circle cx="274" cy="316" r="6" class="c0"/>
<circle cx="66" cy="58" r="6" class="c0"/>
<circle cx="176" cy="256" r="6" class="c0"/>
<circle cx="322" cy="1112" r="6" class="c0"/>
<circle cx="266" cy="274" r="6" class="c0"/>
<circle cx="526" cy="1216" r="6" class="c0"/>
<circle cx="80" cy="40" r="6" class="c0"/>
<circle cx="436" cy="116" r="6" class="c0"/>
<circle cx="306" cy="1048" r="6" class="c0"/>
<circle cx="252" cy="364" r="6" class="c0"/>
<circle cx="126" cy="494" r="6" class="c0"/>
<circle cx="392" cy="292" r="6" class="c0"/>
<circle cx="356" cy="96" r="6" class="c0"/>
<circle cx="116" cy="390" r="6" class="c0"/>
<circle cx="490" cy="1168" r="6" class="c0"/>
<circle cx="92" cy="234" r="6" class="c0"/>
<circle cx="340" cy="158" r="6" class="c0"/>
<circle cx="40" cy="298" r="6" class="c0"/>
<circle cx="422" cy="400" r="6" class="c0"/>
<circle cx="200" cy="638" r="6" class="c0"/>
<circle cx="314" cy="564" r="6" class="c0"/>
<circle cx="76" cy="192" r="6" class="c0"/>
<circle cx="316" cy="848" r="6" class="c0"/>
<circle cx="198" cy="476" r="6" class="c0"/>
<circle cx="76" cy="176" r="6" class="c0"/>
<circle cx="388" cy="248" r="6" class="c0"/>
<circle cx="316" cy="632" r="6" class="c0"/>
<circle cx="188" cy="232" r="6" class="c0"/>
<circle cx="416" cy="1104" r="6" class="c0"/>
<circle cx="276" cy="698" r="6" class="c0"/>
<circle cx="528" cy="1230" r="6" class="c0"/>
<circle cx="268" cy="1056" r="6" class="c0"/>
<circle cx="534" cy="1296" r="6" class="c0"/>
<circle cx="420" cy="524" r="6" class="c0"/>
<circle cx="422" cy="282" r="6" class="c0"/>
<circle cx="306" cy="68" r="6" class="c0"/>
<circle cx="208" cy="602" r="6" class="c0"/>
<circle cx="402" cy="702" r="6" class="c0"/>
<circle cx="262" cy="488" r="6" class="c0"/>
<circle cx="366" cy="958" r="6" class="c0"/>
<circle cx="128" cy="248" r="6" class="c0"/>
<circle cx="170" cy="360" r="6" class="c0"/>
<circle cx="274" cy="586" r="6" class="c0"/>
<circle cx="244" cy="664" r="6" class="c0"/>
<circle cx="122" cy="182" r="6" class="c0"/>
<circle cx="460" cy="978" r="6" class="c0"/>
<circle cx="352" cy="76" r="6" class="c0"/>
<circle cx="378" cy="1140" r="6" class="c0"/>
<circle cx="184" cy="146" r="6" class="c0"/>
<circle cx="386" cy="806" r="6" class="c0"/>
<circle cx="148" cy="550" r="6" class="c0"/>
<circle cx="74" cy="272" r="6" class="c0"/>
<circle cx="228" cy="474" r="6" class="c0"/>
<circle cx="48" cy="338" r="6" class="c0"/>
<circle cx="300" cy="456" r="6" class="c0"/>
<circle cx="282" cy="576" r="6" class="c0"/>
<circle cx="162" cy="406" r="6" class="c0"/>
<circle cx="282" cy="324" r="6" class="c0"/>
<circle cx="346" cy="564" r="6" class="c0"/>
<circle cx="120" cy="454" r="6" class="c0"/>
<circle cx="292" cy="178" r="6" class="c0"/>
<circle cx="174" cy="710" r="6" class="c0"/>
<circle cx="456" cy="1280" r="6" class="c0"/>
<circle cx="322" cy="64" r="6" class="c0"/>
<circle cx="108" cy="292" r="6" class="c0"/>
<circle cx="392" cy="474" r="6" class="c0"/>
<circle cx="398" cy="1262" r="6" class="c0"/>
<circle cx="172" cy="494" r="6" class="c0"/>
<circle cx="160" cy="784" r="6" class="c0"/>
<circle cx="544" cy="1390" r="6" class="c0"/>
<circle cx="258" cy="36" r="6" class="c0"/>
<circle cx="184" cy="46" r="6" class="c0"/>
<circle cx="464" cy="932" r="6" class="c0"/>
<circle cx="338" cy="1158" r="6" class="c0"/>
<circle cx="58" cy="396" r="6" class="c0"/>
<circle cx="14" cy="50" r="6" class="c0"/>
<circle cx="184" cy="198" r="6" class="c0"/>
<circle cx="330" cy="636" r="6" class="c0"/>
<circle cx="206" cy="170" r="6" class="c0"/>
<circle cx="320" cy="1078" r="6" class="c0"/>
<circle cx="100" cy="78" r="6" class="c0"/>
<circle cx="390" cy="1178" r="6" class="c0"/>
<circle cx="242" cy="826" r="6" class="c0"/>
<circle cx="332" cy="756" r="6" class="c0"/>
<circle cx="272" cy="218" r="6" class="c0"/>
<circle cx="388" cy="1216" r="6" class="c0"/>
<circle cx="384" cy="1126" r="6" class="c0"/>
<circle cx="150" cy="236" r="6" class="c0"/>
<circle cx="340" cy="970" r="6" class="c0"/>
<circle cx="120" cy="420" r="6" class="c0"/>
<circle cx="480" cy="1160" r="6" class="c0"/>
<circle cx="332" cy="896" r="6" class="c0"/>
<circle cx="160" cy="290" r="6" class="c0"/>
<circle cx="566" cy="1324" r="6" class="c0"/>
<circle cx="426" cy="700" r="6" class="c0"/>
<circle cx="306" cy="840" r="6" class="c0"/>
<circle cx="36" cy="228" r="6" class="c0"/>
<circle cx="448" cy="1234" r="6" class="c0"/>
<circle cx="516" cy="1278" r="6" class="c0"/>
<circle cx="410" cy="914" r="6" class="c0"/>
<circle cx="168" cy="454" r="6" class="c0"/>
<circle cx="70" cy="472" r="6" class="c0"/>
<circle cx="440" cy="756" r="6" class="c0"/>
<circle cx="432" cy="156" r="6" class="c0"/>
<circle cx="398" cy="148" r="6" class="c0"/>
<circle cx="420" cy="196" r="6" class="c0"/>
<circle cx="342" cy="796" r="6" class="c0"/>
<circle cx="438" cy="828" r="6" class="c0"/>
<circle cx="136" cy="314" r="6" class="c0"/>
<circle cx="244" cy="210" r="6" class="c0"/>
<circle cx="152" cy="368" r="6" class="c0"/>
<circle cx="238" cy="746" r="6" class="c0"/>
<circle cx="442" cy="60" r="6" class="c0"/>
<circle cx="72" cy="22" r="6" class="c0"/>
<circle cx="378" cy="796" r="6" class="c0"/>
<circle cx="292" cy="424" r="6" class="c0"/>
<circle cx="414" cy="1196" r="6" class="c0"/>
<circle cx="50" cy="288" r="6" class="c0"/>
<circle cx="400" cy="108" r="6" class="c0"/>
<circle cx="376" cy="42" r="6" class="c0"/>
<circle cx="418" cy="316" r="6" class="c0"/>
<circle cx="592" cy="1408" r="6" class="c0"/>
<circle cx="44" cy="92" r="6" class="c0"/>
<circle cx="354" cy="1104" r="6" class="c0"/>
<circle cx="254" cy="504" r="6" class="c0"/>
<circle cx="278" cy="956" r="6" class="c0"/>
<circle cx="228" cy="148" r="6" class="c0"/>
<circle cx="342" cy="830" r="6" class="c0"/>
<circle cx="128" cy="462" r="6" class="c0"/>
<circle cx="408" cy="1096" r="6" class="c0"/>
<circle cx="398" cy="1186" r="6" class="c0"/>
<circle cx="66" cy="208" r="6" class="c0"/>
<circle cx="504" cy="1342" r="6" class="c0"/>
<circle cx="302" cy="238" r="6" class="c0"/>
<circle cx="386" cy="60" r="6" class="c0"/>
<circle cx="84" cy="260" r="6" class="c0"/>
<circle cx="288" cy="406" r="6" class="c0"/>
<circle cx="390" cy="410" r="6" class="c0"/>
<circle cx="512" cy="1146" r="6" class="c0"/>
<circle cx="202" cy="894" r="6" class="c0"/>
<circle cx="314" cy="248" r="6" class="c0"/>
<circle cx="38" cy="312" r="6" class="c0"/>
<circle cx="316" cy="946" r="6" class="c0"/>
<circle cx="564" cy="1406" r="6" class="c0"/>
<circle cx="406" cy="952" r="6" class="c0"/>
<circle cx="240" cy="404" r="6" class="c0"/>
<circle cx="366" cy="380" r="6" class="c0"/>
<circle cx="264" cy="914" r="6" class="c0"/>
<circle cx="216" cy="278" r="6" class="c0"/>
<circle cx="108" cy="578" r="6" class="c0"/>
<circle cx="280" cy="608" r="6" class="c0"/>
<circle cx="360" cy="600" r="6" class="c0"/>
<circle cx="146" cy="614" r="6" class="c0"/>
<circle cx="550" cy="1280" r="6" class="c0"/>
<circle cx="470" cy="1068" r="6" class="c0"/>
<circle cx="24" cy="124" r="6" class="c0"/>
<circle cx="112" cy="650" r="6" class="c0"/>
<circle cx="196" cy="394" r="6" class="c0"/>
<circle cx="184" cy="558" r="6" class="c0"/>
<circle cx="500" cy="1310" r="6" class="c0"/>
<circle cx="164" cy="422" r="6" class="c0"/>
<circle cx="300" cy="136" r="6" class="c0"/>
<circle cx="562" cy="1310" r="6" class="c0"/>
<circle cx="422" cy="1008" r="6" class="c0"/>
<circle cx="26" cy="154" r="6" class="c0"/>
<circle cx="386" cy="922" r="6" class="c0"/>
<circle cx="292" cy="316" r="6" class="c0"/>
<circle cx="350" cy="8" r="6" class="c0"/>
<circle cx="260" cy="550" r="6" class="c0"/>
<circle cx="294" cy="740" r="6" class="c0"/>
<circle cx="462" cy="1082" r="6" class="c0"/>
<circle cx="316" cy="1130" r="6" class="c0"/>
<circle cx="292" cy="1092" r="6" class="c0"/>
<circle cx="282" cy="70" r="6" class="c0"/>
<circle cx="250" cy="694" r="6" class="c0"/>
<circle cx="516" cy="1362" r="6" class="c0"/>
<circle cx="264" cy="354" r="6" class="c0"/>
<circle cx="420" cy="354" r="6" class="c0"/>
<circle cx="44" cy="124" r="6" class="c0"/>
<circle cx="150" cy="464" r="6" class="c0"/>
<circle cx="140" cy="720" r="6" class="c0"/>
<circle cx="374" cy="992" r="6" class="c0"/>
<circle cx="552" cy="1370" r="6" class="c0"/>
<circle cx="376" cy="1222" r="6" class="c0"/>
<circle cx="304" cy="902" r="6" class="c0"/>
<circle cx="210" cy="8" r="6" class="c0"/>
<circle cx="434" cy="690" r="6" class="c0"/>
<circle cx="394" cy="606" r="6" class="c0"/>
<circle cx="262" cy="6" r="6" class="c0"/>
<circle cx="62" cy="280" r="6" class="c0"/>
<circle cx="146" cy="74" r="6" class="c0"/>
<circle cx="406" cy="290" r="6" class="c0"/>
<circle cx="78" cy="318" r="6" class="c0"/>
<circle cx="336" cy="1074" r="6" class="c0"/>
<circle cx="394" cy="1020" r="6" class="c0"/>
<circle cx="308" cy="42" r="6" class="c0"/>
<circle cx="300" cy="108" r="6" class="c0"/>
<circle cx="458" cy="1320" r="6" class="c0"/>
<circle cx="258" cy="448" r="6" class="c0"/>
<circle cx="378" cy="656" r="6" class="c0"/>
<circle cx="302" cy="1114" r="6" class="c0"/>
<circle cx="434" cy="880" r="6" class="c0"/>
<circle cx="366" cy="1044" r="6" class="c0"/>
<circle cx="392" cy="384" r="6" class="c0"/>
<circle cx="530" cy="1282" r="6" class="c0"/>
<circle cx="216" cy="862" r="6" class="c0"/>
<circle cx="182" cy="668" r="6" class="c0"/>
<circle cx="498" cy="1254" r="6" class="c0"/>
<circle cx="326" cy="606" r="6" class="c0"/>
<circle cx="122" cy="662" r="6" class="c0"/>
<circle cx="440" cy="1008" r="6" class="c0"/>
<circle cx="358" cy="424" r="6" class="c0"/>
<circle cx="422" cy="82" r="6" class="c0"/>
<circle cx="264" cy="94" r="6" class="c0"/>
<circle cx="192" cy="618" r="6" class="c0"/>
<circle cx="146" cy="274" r="6" class="c0"/>
<circle cx="148" cy="308" r="6" class="c0"/>
<circle cx="224" cy="592" r="6" class="c0"/>
<circle cx="428" cy="1184" r="6" class="c0"/>
<circle cx="86" cy="530" r="6" class="c0"/>
<circle cx="400" cy="500" r="6" class="c0"/>
<circle cx="52" cy="362" r="6" class="c0"/>
<circle cx="426" cy="632" r="6" class="c0"/>
<circle cx="416" cy="388" r="6" class="c0"/>
<circle cx="450" cy="856" r="6" class="c0"/>
<circle cx="270" cy="730" r="6" class="c0"/>
<circle cx="290" cy="276" r="6" class="c0"/>
<circle cx="342" cy="358" r="6" class="c0"/>
<circle cx="68" cy="404" r="6" class="c0"/>
<circle cx="386" cy="28" r="6" class="c0"/>
<circle cx="78" cy="464" r="6" class="c0"/>
<circle cx="226" cy="854" r="6" class="c0"/>
<circle cx="430" cy="22" r="6" class="c0"/>
<circle cx="200" cy="694" r="6" class="c0"/>
<circle cx="310" cy="464" r="6" class="c0"/>
<circle cx="338" cy="946" r="6" class="c0"/>
<circle cx="306" cy="978" r="6" class="c0"/>
<circle cx="412" cy="116" r="6" class="c0"/>
<circle cx="52" cy="378" r="6" class="c0"/>
<circle cx="314" cy="356" r="6" class="c0"/>
<circle cx="66" cy="168" r="6" class="c0"/>
<circle cx="496" cy="1088" r="6" class="c0"/>
<circle cx="360" cy="618" r="6" class="c0"/>
<circle cx="94" cy="220" r="6" class="c0"/>
<circle cx="280" cy="480" r="6" class="c0"/>
<circle cx="172" cy="830" r="6" class="c0"/>
<circle cx="18" cy="84" r="6" class="c0"/>
<circle cx="274" cy="248" r="6" class="c0"/>
<circle cx="362" cy="466" r="6" class="c0"/>
<circle cx="176" cy="154" r="6" class="c0"/>
<circle cx="378" cy="180" r="6" class="c0"/>
<circle cx="152" cy="396" r="6" class="c0"/>
<circle cx="174" cy="542" r="6" class="c0"/>
<circle cx="334" cy="1030" r="6" class="c0"/>
<circle cx="436" cy="924" r="6" class="c0"/>
<circle cx="420" cy="546" r="6" class="c0"/>
<circle cx="288" cy="874" r="6" class="c0"/>
<circle cx="60" cy="420" r="6" class="c0"/>
<circle cx="14" cy="8" r="6" class="c0"/>
<circle cx="370" cy="338" r="6" class="c0"/>
<circle cx="150" cy="728" r="6" class="c0"/>
<circle cx="448" cy="1120" r="6" class="c0"/>
<circle cx="486" cy="1262" r="6" class="c0"/>
<circle cx="258" cy="932" r="6" class="c0"/>
<circle cx="376" cy="846" r="6" class="c0"/>
<circle cx="216" cy="252" r="6" class="c0"/>
<circle cx="312" cy="340" r="6" class="c0"/>
<circle cx="282" cy="652" r="6" class="c0"/>
<circle cx="390" cy="992" r="6" class="c0"/>
<circle cx="296" cy="76" r="6" class="c0"/>
<circle cx="106" cy="166" r="6" class="c0"/>
<circle cx="258" cy="324" r="6" class="c0"/>
<circle cx="320" cy="698" r="6" class="c0"/>
<circle cx="340" cy="994" r="6" class="c0"/>
<circle cx="456" cy="1242" r="6" class="c0"/>
<circle cx="440" cy="1226" r="6" class="c0"/>
<circle cx="422" cy="984" r="6" class="c0"/>
<circle cx="344" cy="1146" r="6" class="c0"/>
<circle cx="36" cy="282" r="6" class="c0"/>
<circle cx="128" cy="194" r="6" class="c0"/>
<circle cx="122" cy="688" r="6" class="c0"/>
<circle cx="316" cy="208" r="6" class="c0"/>
<circle cx="448" cy="970" r="6" class="c0"/>
<circle cx="336" cy="398" r="6" class="c0"/>
<circle cx="238" cy="898" r="6" class="c0"/>
<circle cx="114" cy="538" r="6" class="c0"/>
<circle cx="322" cy="32" r="6" class="c0"/>
<circle cx="152" cy="678" r="6" class="c0"/>
<circle cx="358" cy="922" r="6" class="c0"/>
<circle cx="378" cy="540" r="6" class="c0"/>
<circle cx="376" cy="682" r="6" class="c0"/>
<circle cx="90" cy="568" r="6" class="c0"/>
<circle cx="296" cy="830" r="6" class="c0"/>
<circle cx="114" cy="408" r="6" class="c0"/>
<circle cx="132" cy="702" r="6" class="c0"/>
<circle cx="522" cy="1184" r="6" class="c0"/>
<circle cx="364" cy="482" r="6" class="c0"/>
<circle cx="184" cy="840" r="6" class="c0"/>
<circle cx="246" cy="800" r="6" class="c0"/>
<circle cx="442" cy="1306" r="6" class="c0"/>
<circle cx="222" cy="86" r="6" class="c0"/>
<circle cx="378" cy="72" r="6" class="c0"/>
<circle cx="66" cy="10" r="6" class="c0"/>
<circle cx="366" cy="646" r="6" class="c0"/>
<circle cx="150" cy="652" r="6" class="c0"/>
<circle cx="120" cy="238" r="6" class="c0"/>
<circle cx="282" cy="384" r="6" class="c0"/>
<circle cx="218" cy="744" r="6" class="c0"/>
<circle cx="242" cy="720" r="6" class="c0"/>
<circle cx="304" cy="430" r="6" class="c0"/>
<circle cx="314" cy="1014" r="6" class="c0"/>
<circle cx="472" cy="972" r="6" class="c0"/>
<circle cx="230" cy="488" r="6" class="c0"/>
<circle cx="434" cy="142" r="6" class="c0"/>
<circle cx="250" cy="652" r="6" class="c0"/>
<circle cx="280" cy="828" r="6" class="c0"/>
<circle cx="234" cy="574" r="6" class="c0"/>
<circle cx="394" cy="1246" r="6" class="c0"/>
<circle cx="72" cy="74" r="6" class="c0"/>
<circle cx="376" cy="8" r="6" class="c0"/>
<circle cx="400" cy="464" r="6" class="c0"/>
<circle cx="406" cy="808" r="6" class="c0"/>
<circle cx="142" cy="148" r="6" class="c0"/>
<circle cx="30" cy="212" r="6" class="c0"/>
<circle cx="222" cy="948" r="6" class="c0"/>
<circle cx="54" cy="200" r="6" class="c0"/>
</svg>
