<?xml version="1.0" encoding="utf-8"?>
<svg xmlns="http://www.w3.org/2000/svg"
     xmlns:xlink="http://www.w3.org/1999/xlink" width="1920" height="1440" >

            <defs>
            <style type="text/css"><![CDATA[
circle {stroke: none;}
.c0 {fill: #FFFFFF;}
]]></style>
            </defs>
<rect x="0" y="0" width="1920" height="1440" fill="black"/>
<circle cx="588" cy="1090" r="14" class="c0"/>
<circle cx="466" cy="810" r="14" class="c0"/>
<circle cx="380" cy="694" r="14" class="c0"/>
<circle cx="170" cy="166" r="14" class="c0"/>
<circle cx="364" cy="498" r="12" class="c0"/>
<circle cx="446" cy="918" r="12" class="c0"/>
<circle cx="332" cy="588" r="12" class="c0"/>
<circle cx="378" cy="212" r="12" class="c0"/>
<circle cx="376" cy="850" r="12" class="c0"/>
<circle cx="360" cy="410" r="12" class="c0"/>
<circle cx="488" cy="834" r="12" class="c0"/>
<circle cx="252" cy="554" r="12" class="c0"/>
<circle cx="454" cy="106" r="12" class="c0"/>
<circle cx="214" cy="146" r="12" class="c0"/>
<circle cx="356" cy="196" r="12" class="c0"/>
<circle cx="478" cy="404" r="12" class="c0"/>
<circle cx="434" cy="160" r="12" class="c0"/>
<circle cx="280" cy="76" r="12" class="c0"/>
<circle cx="344" cy="138" r="12" class="c0"/>
<circle cx="504" cy="600" r="12" class="c0"/>
<circle cx="230" cy="18" r="12" class="c0"/>
<circle cx="352" cy="82" r="12" class="c0"/>
<circle cx="518" cy="820" r="12" class="c0"/>
<circle cx="380" cy="944" r="12" class="c0"/>
<circle cx="296" cy="622" r="12" class="c0"/>
<circle cx="374" cy="546" r="12" class="c0"/>
<circle cx="456" cy="642" r="12" class="c0"/>
<circle cx="440" cy="496" r="12" class="c0"/>
<circle cx="428" cy="546" r="12" class="c0"/>
<circle cx="470" cy="626" r="12" class="c0"/>
<circle cx="480" cy="536" r="12" class="c0"/>
<circle cx="340" cy="786" r="12" class="c0"/>
<circle cx="260" cy="352" r="12" class="c0"/>
<circle cx="354" cy="828" r="12" class="c0"/>
<circle cx="312" cy="772" r="12" class="c0"/>
<circle cx="416" cy="452" r="12" class="c0"/>
<circle cx="264" cy="408" r="12" class="c0"/>
<circle cx="444" cy="324" r="12" class="c0"/>
<circle cx="226" cy="550" r="12" class="c0"/>
<circle cx="452" cy="264" r="12" class="c0"/>
<circle cx="436" cy="1046" r="12" class="c0"/>
<circle cx="346" cy="656" r="12" class="c0"/>
<circle cx="288" cy="542" r="12" class="c0"/>
<circle cx="512" cy="1154" r="12" class="c0"/>
<circle cx="480" cy="338" r="12" class="c0"/>
<circle cx="320" cy="434" r="12" class="c0"/>
<circle cx="594" cy="1204" r="12" class="c0"/>
<circle cx="410" cy="204" r="12" class="c0"/>
<circle cx="282" cy="190" r="12" class="c0"/>
<circle cx="264" cy="462" r="12" class="c0"/>
<circle cx="394" cy="72" r="12" class="c0"/>
<circle cx="400" cy="558" r="12" class="c0"/>
<circle cx="346" cy="378" r="12" class="c0"/>
<circle cx="480" cy="682" r="12" class="c0"/>
<circle cx="418" cy="1000" r="12" class="c0"/>
<circle cx="444" cy="796" r="12" class="c0"/>
<circle cx="430" cy="310" r="12" class="c0"/>
<circle cx="426" cy="118" r="12" class="c0"/>
<circle cx="298" cy="736" r="12" class="c0"/>
<circle cx="496" cy="996" r="12" class="c0"/>
<circle cx="382" cy="246" r="12" class="c0"/>
<circle cx="386" cy="130" r="12" class="c0"/>
<circle cx="204" cy="22" r="12" class="c0"/>
<circle cx="242" cy="218" r="12" class="c0"/>
<circle cx="422" cy="878" r="12" class="c0"/>
<circle cx="236" cy="382" r="12" class="c0"/>
<circle cx="460" cy="566" r="12" class="c0"/>
<circle cx="414" cy="916" r="12" class="c0"/>
<circle cx="406" cy="330" r="12" class="c0"/>
<circle cx="476" cy="114" r="10" class="c0"/>
<circle cx="454" cy="382" r="10" class="c0"/>
<circle cx="192" cy="134" r="10" class="c0"/>
<circle cx="214" cy="516" r="10" class="c0"/>
<circle cx="304" cy="348" r="10" class="c0"/>
<circle cx="334" cy="16" r="10" class="c0"/>
<circle cx="450" cy="710" r="10" class="c0"/>
<circle cx="470" cy="990" r="10" class="c0"/>
<circle cx="250" cy="496" r="10" class="c0"/>
<circle cx="436" cy="196" r="10" class="c0"/>
<circle cx="514" cy="718" r="10" class="c0"/>
<circle cx="376" cy="292" r="10" class="c0"/>
<circle cx="552" cy="938" r="10" class="c0"/>
<circle cx="476" cy="146" r="10" class="c0"/>
<circle cx="300" cy="702" r="10" class="c0"/>
<circle cx="350" cy="906" r="10" class="c0"/>
<circle cx="182" cy="420" r="10" class="c0"/>
<circle cx="462" cy="360" r="10" class="c0"/>
<circle cx="244" cy="442" r="10" class="c0"/>
<circle cx="124" cy="132" r="10" class="c0"/>
<circle cx="412" cy="362" r="10" class="c0"/>
<circle cx="186" cy="324" r="10" class="c0"/>
<circle cx="418" cy="780" r="10" class="c0"/>
<circle cx="402" cy="438" r="10" class="c0"/>
<circle cx="154" cy="322" r="10" class="c0"/>
<circle cx="306" cy="292" r="10" class="c0"/>
<circle cx="280" cy="682" r="10" class="c0"/>
<circle cx="238" cy="308" r="10" class="c0"/>
<circle cx="418" cy="804" r="10" class="c0"/>
<circle cx="172" cy="362" r="10" class="c0"/>
<circle cx="510" cy="896" r="10" class="c0"/>
<circle cx="276" cy="240" r="10" class="c0"/>
<circle cx="306" cy="594" r="10" class="c0"/>
<circle cx="408" cy="848" r="10" class="c0"/>
<circle cx="390" cy="478" r="10" class="c0"/>
<circle cx="228" cy="586" r="10" class="c0"/>
<circle cx="170" cy="302" r="10" class="c0"/>
<circle cx="486" cy="886" r="10" class="c0"/>
<circle cx="318" cy="242" r="10" class="c0"/>
<circle cx="538" cy="1022" r="10" class="c0"/>
<circle cx="522" cy="872" r="10" class="c0"/>
<circle cx="376" cy="890" r="10" class="c0"/>
<circle cx="460" cy="872" r="10" class="c0"/>
<circle cx="218" cy="450" r="10" class="c0"/>
<circle cx="482" cy="576" r="10" class="c0"/>
<circle cx="450" cy="972" r="10" class="c0"/>
<circle cx="574" cy="1070" r="10" class="c0"/>
<circle cx="248" cy="636" r="10" class="c0"/>
<circle cx="560" cy="1036" r="10" class="c0"/>
<circle cx="372" cy="374" r="10" class="c0"/>
<circle cx="396" cy="980" r="10" class="c0"/>
<circle cx="448" cy="746" r="10" class="c0"/>
<circle cx="414" cy="674" r="10" class="c0"/>
<circle cx="490" cy="60" r="10" class="c0"/>
<circle cx="338" cy="546" r="10" class="c0"/>
<circle cx="342" cy="314" r="10" class="c0"/>
<circle cx="196" cy="394" r="10" class="c0"/>
<circle cx="262" cy="288" r="10" class="c0"/>
<circle cx="444" cy="410" r="10" class="c0"/>
<circle cx="388" cy="416" r="10" class="c0"/>
<circle cx="436" cy="52" r="10" class="c0"/>
<circle cx="206" cy="488" r="10" class="c0"/>
<circle cx="494" cy="732" r="10" class="c0"/>
<circle cx="464" cy="1054" r="10" class="c0"/>
<circle cx="460" cy="34" r="10" class="c0"/>
<circle cx="320" cy="466" r="10" class="c0"/>
<circle cx="478" cy="186" r="10" class="c0"/>
<circle cx="620" cy="1184" r="10" class="c0"/>
<circle cx="636" cy="1218" r="10" class="c0"/>
<circle cx="392" cy="640" r="10" class="c0"/>
<circle cx="448" cy="458" r="10" class="c0"/>
<circle cx="270" cy="434" r="10" class="c0"/>
<circle cx="572" cy="996" r="10" class="c0"/>
<circle cx="248" cy="136" r="10" class="c0"/>
<circle cx="390" cy="184" r="10" class="c0"/>
<circle cx="158" cy="268" r="10" class="c0"/>
<circle cx="196" cy="218" r="10" class="c0"/>
<circle cx="610" cy="1150" r="10" class="c0"/>
<circle cx="300" cy="138" r="10" class="c0"/>
<circle cx="262" cy="668" r="10" class="c0"/>
<circle cx="416" cy="256" r="10" class="c0"/>
<circle cx="470" cy="496" r="10" class="c0"/>
<circle cx="404" cy="300" r="10" class="c0"/>
<circle cx="218" cy="224" r="10" class="c0"/>
<circle cx="140" cy="78" r="10" class="c0"/>
<circle cx="542" cy="864" r="10" class="c0"/>
<circle cx="598" cy="1170" r="10" class="c0"/>
<circle cx="480" cy="306" r="10" class="c0"/>
<circle cx="164" cy="112" r="10" class="c0"/>
<circle cx="350" cy="274" r="10" class="c0"/>
<circle cx="230" cy="176" r="10" class="c0"/>
<circle cx="314" cy="652" r="10" class="c0"/>
<circle cx="468" cy="942" r="10" class="c0"/>
<circle cx="136" cy="288" r="10" class="c0"/>
<circle cx="472" cy="222" r="10" class="c0"/>
<circle cx="520" cy="850" r="10" class="c0"/>
<circle cx="504" cy="1048" r="10" class="c0"/>
<circle cx="418" cy="618" r="10" class="c0"/>
<circle cx="278" cy="588" r="10" class="c0"/>
<circle cx="162" cy="138" r="10" class="c0"/>
<circle cx="454" cy="138" r="10" class="c0"/>
<circle cx="380" cy="616" r="10" class="c0"/>
<circle cx="508" cy="942" r="10" class="c0"/>
<circle cx="514" cy="772" r="10" class="c0"/>
<circle cx="404" cy="20" r="10" class="c0"/>
<circle cx="552" cy="964" r="10" class="c0"/>
<circle cx="104" cy="56" r="10" class="c0"/>
<circle cx="338" cy="340" r="10" class="c0"/>
<circle cx="362" cy="116" r="10" class="c0"/>
<circle cx="570" cy="1122" r="10" class="c0"/>
<circle cx="482" cy="770" r="10" class="c0"/>
<circle cx="198" cy="344" r="10" class="c0"/>
<circle cx="438" cy="676" r="10" class="c0"/>
<circle cx="418" cy="408" r="10" class="c0"/>
<circle cx="182" cy="272" r="10" class="c0"/>
<circle cx="300" cy="454" r="10" class="c0"/>
<circle cx="402" cy="382" r="10" class="c0"/>
<circle cx="346" cy="450" r="10" class="c0"/>
<circle cx="418" cy="90" r="10" class="c0"/>
<circle cx="544" cy="1132" r="10" class="c0"/>
<circle cx="374" cy="814" r="10" class="c0"/>
<circle cx="280" cy="334" r="10" class="c0"/>
<circle cx="238" cy="520" r="10" class="c0"/>
<circle cx="450" cy="594" r="10" class="c0"/>
<circle cx="294" cy="40" r="10" class="c0"/>
<circle cx="314" cy="372" r="10" class="c0"/>
<circle cx="544" cy="896" r="10" class="c0"/>
<circle cx="226" cy="422" r="10" class="c0"/>
<circle cx="148" cy="220" r="10" class="c0"/>
<circle cx="538" cy="950" r="10" class="c0"/>
<circle cx="260" cy="160" r="10" class="c0"/>
<circle cx="484" cy="920" r="10" class="c0"/>
<circle cx="456" cy="70" r="10" class="c0"/>
<circle cx="130" cy="108" r="10" class="c0"/>
<circle cx="130" cy="36" r="10" class="c0"/>
<circle cx="220" cy="110" r="10" class="c0"/>
<circle cx="484" cy="248" r="10" class="c0"/>
<circle cx="532" cy="1044" r="10" class="c0"/>
<circle cx="360" cy="14" r="10" class="c0"/>
<circle cx="498" cy="556" r="10" class="c0"/>
<circle cx="314" cy="676" r="10" class="c0"/>
<circle cx="176" cy="24" r="10" class="c0"/>
<circle cx="390" cy="312" r="10" class="c0"/>
<circle cx="220" cy="288" r="10" class="c0"/>
<circle cx="162" cy="234" r="10" class="c0"/>
<circle cx="362" cy="258" r="10" class="c0"/>
<circle cx="278" cy="490" r="10" class="c0"/>
<circle cx="664" cy="1252" r="10" class="c0"/>
<circle cx="128" cy="176" r="10" class="c0"/>
<circle cx="364" cy="440" r="10" class="c0"/>
<circle cx="276" cy="562" r="10" class="c0"/>
<circle cx="170" cy="394" r="10" class="c0"/>
<circle cx="352" cy="856" r="10" class="c0"/>
<circle cx="514" cy="1100" r="10" class="c0"/>
<circle cx="480" cy="716" r="10" class="c0"/>
<circle cx="558" cy="1100" r="8" class="c0"/>
<circle cx="102" cy="92" r="8" class="c0"/>
<circle cx="362" cy="734" r="8" class="c0"/>
<circle cx="484" cy="88" r="8" class="c0"/>
<circle cx="326" cy="620" r="8" class="c0"/>
<circle cx="332" cy="842" r="8" class="c0"/>
<circle cx="412" cy="516" r="8" class="c0"/>
<circle cx="380" cy="666" r="8" class="c0"/>
<circle cx="342" cy="488" r="8" class="c0"/>
<circle cx="432" cy="18" r="8" class="c0"/>
<circle cx="126" cy="202" r="8" class="c0"/>
<circle cx="332" cy="712" r="8" class="c0"/>
<circle cx="194" cy="448" r="8" class="c0"/>
<circle cx="438" cy="220" r="8" class="c0"/>
<circle cx="290" cy="114" r="8" class="c0"/>
<circle cx="256" cy="250" r="8" class="c0"/>
<circle cx="328" cy="414" r="8" class="c0"/>
<circle cx="374" cy="464" r="8" class="c0"/>
<circle cx="314" cy="532" r="8" class="c0"/>
<circle cx="320" cy="66" r="8" class="c0"/>
<circle cx="372" cy="320" r="8" class="c0"/>
<circle cx="494" cy="786" r="8" class="c0"/>
<circle cx="412" cy="486" r="8" class="c0"/>
<circle cx="262" cy="314" r="8" class="c0"/>
<circle cx="464" cy="1012" r="8" class="c0"/>
<circle cx="304" cy="574" r="8" class="c0"/>
<circle cx="252" cy="582" r="8" class="c0"/>
<circle cx="346" cy="42" r="8" class="c0"/>
<circle cx="488" cy="480" r="8" class="c0"/>
<circle cx="462" cy="162" r="8" class="c0"/>
<circle cx="464" cy="472" r="8" class="c0"/>
<circle cx="368" cy="96" r="8" class="c0"/>
<circle cx="616" cy="1220" r="8" class="c0"/>
<circle cx="348" cy="754" r="8" class="c0"/>
<circle cx="486" cy="26" r="8" class="c0"/>
<circle cx="510" cy="970" r="8" class="c0"/>
<circle cx="422" cy="430" r="8" class="c0"/>
<circle cx="166" cy="62" r="8" class="c0"/>
<circle cx="530" cy="1070" r="8" class="c0"/>
<circle cx="296" cy="522" r="8" class="c0"/>
<circle cx="366" cy="522" r="8" class="c0"/>
<circle cx="424" cy="472" r="8" class="c0"/>
<circle cx="536" cy="1106" r="8" class="c0"/>
<circle cx="390" cy="360" r="8" class="c0"/>
<circle cx="268" cy="268" r="8" class="c0"/>
<circle cx="356" cy="690" r="8" class="c0"/>
<circle cx="438" cy="612" r="8" class="c0"/>
<circle cx="346" cy="612" r="8" class="c0"/>
<circle cx="298" cy="202" r="8" class="c0"/>
<circle cx="388" cy="36" r="8" class="c0"/>
<circle cx="436" cy="892" r="8" class="c0"/>
<circle cx="314" cy="184" r="8" class="c0"/>
<circle cx="244" cy="96" r="8" class="c0"/>
<circle cx="160" cy="374" r="8" class="c0"/>
<circle cx="332" cy="812" r="8" class="c0"/>
<circle cx="296" cy="428" r="8" class="c0"/>
<circle cx="548" cy="1004" r="8" class="c0"/>
<circle cx="142" cy="120" r="8" class="c0"/>
<circle cx="418" cy="570" r="8" class="c0"/>
<circle cx="440" cy="1024" r="8" class="c0"/>
<circle cx="348" cy="576" r="8" class="c0"/>
<circle cx="510" cy="670" r="8" class="c0"/>
<circle cx="500" cy="868" r="8" class="c0"/>
<circle cx="332" cy="282" r="8" class="c0"/>
<circle cx="312" cy="8" r="8" class="c0"/>
<circle cx="472" cy="966" r="8" class="c0"/>
<circle cx="218" cy="364" r="8" class="c0"/>
<circle cx="494" cy="500" r="8" class="c0"/>
<circle cx="254" cy="18" r="8" class="c0"/>
<circle cx="244" cy="68" r="8" class="c0"/>
<circle cx="94" cy="12" r="8" class="c0"/>
<circle cx="396" cy="756" r="8" class="c0"/>
<circle cx="262" cy="380" r="8" class="c0"/>
<circle cx="204" cy="246" r="8" class="c0"/>
<circle cx="358" cy="764" r="8" class="c0"/>
<circle cx="314" cy="502" r="8" class="c0"/>
<circle cx="268" cy="140" r="8" class="c0"/>
<circle cx="242" cy="284" r="8" class="c0"/>
<circle cx="530" cy="1144" r="8" class="c0"/>
<circle cx="526" cy="1008" r="8" class="c0"/>
<circle cx="446" cy="824" r="8" class="c0"/>
<circle cx="372" cy="168" r="8" class="c0"/>
<circle cx="522" cy="1128" r="8" class="c0"/>
<circle cx="398" cy="660" r="8" class="c0"/>
<circle cx="554" cy="1058" r="8" class="c0"/>
<circle cx="396" cy="594" r="8" class="c0"/>
<circle cx="412" cy="958" r="8" class="c0"/>
<circle cx="380" cy="350" r="8" class="c0"/>
<circle cx="414" cy="232" r="8" class="c0"/>
<circle cx="326" cy="112" r="8" class="c0"/>
<circle cx="154" cy="16" r="8" class="c0"/>
<circle cx="288" cy="276" r="8" class="c0"/>
<circle cx="188" cy="182" r="8" class="c0"/>
<circle cx="254" cy="188" r="8" class="c0"/>
<circle cx="404" cy="706" r="8" class="c0"/>
<circle cx="306" cy="400" r="8" class="c0"/>
<circle cx="494" cy="1076" r="8" class="c0"/>
<circle cx="450" cy="852" r="8" class="c0"/>
<circle cx="400" cy="146" r="8" class="c0"/>
<circle cx="398" cy="268" r="8" class="c0"/>
<circle cx="162" cy="80" r="8" class="c0"/>
<circle cx="300" cy="480" r="8" class="c0"/>
<circle cx="350" cy="296" r="8" class="c0"/>
<circle cx="526" cy="916" r="8" class="c0"/>
<circle cx="582" cy="1050" r="8" class="c0"/>
<circle cx="470" cy="432" r="8" class="c0"/>
<circle cx="488" cy="450" r="8" class="c0"/>
<circle cx="398" cy="732" r="8" class="c0"/>
<circle cx="138" cy="312" r="8" class="c0"/>
<circle cx="310" cy="810" r="8" class="c0"/>
<circle cx="430" cy="854" r="8" class="c0"/>
<circle cx="456" cy="516" r="8" class="c0"/>
<circle cx="282" cy="20" r="8" class="c0"/>
<circle cx="420" cy="284" r="8" class="c0"/>
<circle cx="294" cy="666" r="8" class="c0"/>
<circle cx="580" cy="1020" r="8" class="c0"/>
<circle cx="264" cy="226" r="8" class="c0"/>
<circle cx="466" cy="198" r="8" class="c0"/>
<circle cx="150" cy="184" r="8" class="c0"/>
<circle cx="220" cy="56" r="8" class="c0"/>
<circle cx="428" cy="594" r="8" class="c0"/>
<circle cx="178" cy="244" r="8" class="c0"/>
<circle cx="246" cy="612" r="8" class="c0"/>
<circle cx="424" cy="720" r="8" class="c0"/>
<circle cx="352" cy="172" r="8" class="c0"/>
<circle cx="318" cy="554" r="8" class="c0"/>
<circle cx="304" cy="322" r="8" class="c0"/>
<circle cx="486" cy="364" r="8" class="c0"/>
<circle cx="310" cy="102" r="8" class="c0"/>
<circle cx="400" cy="866" r="8" class="c0"/>
<circle cx="454" cy="182" r="8" class="c0"/>
<circle cx="342" cy="240" r="8" class="c0"/>
<circle cx="368" cy="46" r="8" class="c0"/>
<circle cx="342" cy="220" r="8" class="c0"/>
<circle cx="292" cy="312" r="8" class="c0"/>
<circle cx="462" cy="694" r="8" class="c0"/>
<circle cx="210" cy="170" r="8" class="c0"/>
<circle cx="268" cy="110" r="8" class="c0"/>
<circle cx="418" cy="750" r="8" class="c0"/>
<circle cx="598" cy="1124" r="8" class="c0"/>
<circle cx="130" cy="258" r="8" class="c0"/>
<circle cx="636" cy="1248" r="8" class="c0"/>
<circle cx="150" cy="248" r="8" class="c0"/>
<circle cx="460" cy="726" r="8" class="c0"/>
<circle cx="464" cy="294" r="8" class="c0"/>
<circle cx="470" cy="754" r="8" class="c0"/>
<circle cx="430" cy="270" r="8" class="c0"/>
<circle cx="262" cy="42" r="8" class="c0"/>
<circle cx="308" cy="28" r="8" class="c0"/>
<circle cx="260" cy="624" r="8" class="c0"/>
<circle cx="458" cy="1084" r="8" class="c0"/>
<circle cx="268" cy="606" r="8" class="c0"/>
<circle cx="306" cy="158" r="8" class="c0"/>
<circle cx="476" cy="1100" r="8" class="c0"/>
<circle cx="394" cy="536" r="8" class="c0"/>
<circle cx="176" cy="220" r="8" class="c0"/>
<circle cx="276" cy="724" r="8" class="c0"/>
<circle cx="200" cy="116" r="8" class="c0"/>
<circle cx="128" cy="66" r="8" class="c0"/>
<circle cx="236" cy="476" r="8" class="c0"/>
<circle cx="284" cy="370" r="8" class="c0"/>
<circle cx="382" cy="920" r="8" class="c0"/>
<circle cx="354" cy="882" r="8" class="c0"/>
<circle cx="488" cy="662" r="8" class="c0"/>
<circle cx="536" cy="992" r="8" class="c0"/>
<circle cx="354" cy="354" r="8" class="c0"/>
<circle cx="212" cy="262" r="8" class="c0"/>
<circle cx="560" cy="1172" r="8" class="c0"/>
<circle cx="422" cy="700" r="8" class="c0"/>
<circle cx="344" cy="632" r="8" class="c0"/>
<circle cx="210" cy="570" r="8" class="c0"/>
<circle cx="380" cy="392" r="8" class="c0"/>
<circle cx="156" cy="344" r="8" class="c0"/>
<circle cx="428" cy="636" r="8" class="c0"/>
<circle cx="282" cy="642" r="8" class="c0"/>
<circle cx="238" cy="46" r="8" class="c0"/>
<circle cx="406" cy="894" r="8" class="c0"/>
<circle cx="336" cy="164" r="8" class="c0"/>
<circle cx="546" cy="1090" r="8" class="c0"/>
<circle cx="510" cy="794" r="8" class="c0"/>
<circle cx="322" cy="40" r="8" class="c0"/>
<circle cx="310" cy="54" r="8" class="c0"/>
<circle cx="432" cy="516" r="8" class="c0"/>
<circle cx="416" cy="40" r="8" class="c0"/>
<circle cx="210" cy="432" r="8" class="c0"/>
<circle cx="298" cy="240" r="8" class="c0"/>
<circle cx="358" cy="932" r="8" class="c0"/>
<circle cx="468" cy="846" r="8" class="c0"/>
<circle cx="438" cy="438" r="8" class="c0"/>
<circle cx="194" cy="512" r="8" class="c0"/>
<circle cx="480" cy="1022" r="8" class="c0"/>
<circle cx="260" cy="708" r="8" class="c0"/>
<circle cx="206" cy="94" r="8" class="c0"/>
<circle cx="516" cy="690" r="8" class="c0"/>
<circle cx="434" cy="390" r="8" class="c0"/>
<circle cx="514" cy="744" r="8" class="c0"/>
<circle cx="262" cy="510" r="8" class="c0"/>
<circle cx="492" cy="618" r="8" class="c0"/>
<circle cx="640" cy="1188" r="8" class="c0"/>
<circle cx="358" cy="798" r="8" class="c0"/>
<circle cx="504" cy="922" r="8" class="c0"/>
<circle cx="278" cy="126" r="8" class="c0"/>
<circle cx="504" cy="1016" r="8" class="c0"/>
<circle cx="360" cy="560" r="8" class="c0"/>
<circle cx="338" cy="694" r="8" class="c0"/>
<circle cx="318" cy="266" r="8" class="c0"/>
<circle cx="308" cy="120" r="8" class="c0"/>
<circle cx="300" cy="88" r="8" class="c0"/>
<circle cx="300" cy="264" r="8" class="c0"/>
<circle cx="192" cy="470" r="8" class="c0"/>
<circle cx="324" cy="300" r="8" class="c0"/>
<circle cx="582" cy="1140" r="8" class="c0"/>
<circle cx="232" cy="240" r="8" class="c0"/>
<circle cx="320" cy="826" r="8" class="c0"/>
<circle cx="484" cy="642" r="8" class="c0"/>
<circle cx="196" cy="368" r="8" class="c0"/>
<circle cx="450" cy="994" r="8" class="c0"/>
<circle cx="548" cy="918" r="8" class="c0"/>
<circle cx="484" cy="164" r="8" class="c0"/>
<circle cx="452" cy="540" r="8" class="c0"/>
<circle cx="186" cy="64" r="8" class="c0"/>
<circle cx="354" cy="716" r="8" class="c0"/>
<circle cx="388" cy="774" r="8" class="c0"/>
<circle cx="300" cy="798" r="8" class="c0"/>
<circle cx="438" cy="370" r="8" class="c0"/>
<circle cx="288" cy="772" r="8" class="c0"/>
<circle cx="416" cy="938" r="8" class="c0"/>
<circle cx="104" cy="110" r="8" class="c0"/>
<circle cx="210" cy="306" r="8" class="c0"/>
<circle cx="568" cy="1198" r="8" class="c0"/>
<circle cx="378" cy="786" r="8" class="c0"/>
<circle cx="314" cy="212" r="8" class="c0"/>
<circle cx="194" cy="532" r="8" class="c0"/>
<circle cx="546" cy="1156" r="8" class="c0"/>
<circle cx="468" cy="662" r="8" class="c0"/>
<circle cx="324" cy="750" r="8" class="c0"/>
<circle cx="384" cy="742" r="8" class="c0"/>
<circle cx="340" cy="508" r="8" class="c0"/>
<circle cx="396" cy="106" r="8" class="c0"/>
<circle cx="370" cy="654" r="8" class="c0"/>
<circle cx="430" cy="978" r="8" class="c0"/>
<circle cx="472" cy="602" r="8" class="c0"/>
<circle cx="496" cy="1118" r="8" class="c0"/>
<circle cx="164" cy="44" r="8" class="c0"/>
<circle cx="460" cy="442" r="8" class="c0"/>
<circle cx="394" cy="806" r="8" class="c0"/>
<circle cx="116" cy="78" r="8" class="c0"/>
<circle cx="586" cy="1182" r="8" class="c0"/>
<circle cx="242" cy="342" r="8" class="c0"/>
<circle cx="498" cy="810" r="8" class="c0"/>
<circle cx="476" cy="72" r="8" class="c0"/>
<circle cx="396" cy="832" r="8" class="c0"/>
<circle cx="278" cy="50" r="8" class="c0"/>
<circle cx="416" cy="182" r="8" class="c0"/>
<circle cx="232" cy="86" r="8" class="c0"/>
<circle cx="188" cy="38" r="8" class="c0"/>
<circle cx="486" cy="978" r="8" class="c0"/>
<circle cx="528" cy="1088" r="8" class="c0"/>
<circle cx="136" cy="158" r="8" class="c0"/>
<circle cx="286" cy="714" r="8" class="c0"/>
<circle cx="390" cy="876" r="8" class="c0"/>
<circle cx="228" cy="402" r="8" class="c0"/>
<circle cx="490" cy="428" r="8" class="c0"/>
<circle cx="290" cy="166" r="8" class="c0"/>
<circle cx="244" cy="262" r="8" class="c0"/>
<circle cx="394" cy="228" r="8" class="c0"/>
<circle cx="526" cy="786" r="8" class="c0"/>
<circle cx="278" cy="524" r="8" class="c0"/>
<circle cx="418" cy="8" r="8" class="c0"/>
<circle cx="506" cy="628" r="8" class="c0"/>
<circle cx="652" cy="1236" r="8" class="c0"/>
<circle cx="392" cy="500" r="8" class="c0"/>
<circle cx="276" cy="212" r="8" class="c0"/>
<circle cx="358" cy="60" r="8" class="c0"/>
<circle cx="378" cy="570" r="8" class="c0"/>
<circle cx="438" cy="652" r="8" class="c0"/>
<circle cx="384" cy="446" r="8" class="c0"/>
<circle cx="482" cy="796" r="8" class="c0"/>
<circle cx="380" cy="722" r="8" class="c0"/>
<circle cx="356" cy="594" r="8" class="c0"/>
<circle cx="326" cy="730" r="8" class="c0"/>
<circle cx="430" cy="342" r="8" class="c0"/>
<circle cx="132" cy="240" r="8" class="c0"/>
<circle cx="468" cy="900" r="8" class="c0"/>
<circle cx="138" cy="56" r="8" class="c0"/>
<circle cx="360" cy="150" r="8" class="c0"/>
<circle cx="492" cy="1032" r="8" class="c0"/>
<circle cx="122" cy="8" r="8" class="c0"/>
<circle cx="278" cy="388" r="8" class="c0"/>
<circle cx="446" cy="288" r="8" class="c0"/>
<circle cx="420" cy="1022" r="8" class="c0"/>
<circle cx="264" cy="90" r="8" class="c0"/>
<circle cx="340" cy="98" r="8" class="c0"/>
<circle cx="286" cy="414" r="8" class="c0"/>
<circle cx="220" cy="326" r="8" class="c0"/>
<circle cx="478" cy="856" r="8" class="c0"/>
<circle cx="378" cy="268" r="8" class="c0"/>
<circle cx="532" cy="972" r="8" class="c0"/>
<circle cx="462" cy="780" r="8" class="c0"/>
<circle cx="282" cy="302" r="8" class="c0"/>
<circle cx="520" cy="1060" r="8" class="c0"/>
<circle cx="498" cy="696" r="8" class="c0"/>
<circle cx="384" cy="332" r="8" class="c0"/>
<circle cx="446" cy="772" r="8" class="c0"/>
<circle cx="602" cy="1230" r="8" class="c0"/>
<circle cx="428" cy="740" r="8" class="c0"/>
<circle cx="430" cy="816" r="8" class="c0"/>
<circle cx="402" cy="686" r="8" class="c0"/>
<circle cx="410" cy="136" r="8" class="c0"/>
<circle cx="476" cy="8" r="8" class="c0"/>
<circle cx="294" cy="502" r="8" class="c0"/>
<circle cx="324" cy="522" r="8" class="c0"/>
<circle cx="486" cy="952" r="8" class="c0"/>
<circle cx="454" cy="232" r="8" class="c0"/>
<circle cx="442" cy="246" r="8" class="c0"/>
<circle cx="250" cy="114" r="8" class="c0"/>
<circle cx="458" cy="836" r="8" class="c0"/>
<circle cx="208" cy="382" r="8" class="c0"/>
<circle cx="416" cy="66" r="8" class="c0"/>
<circle cx="404" cy="792" r="8" class="c0"/>
<circle cx="504" cy="1134" r="8" class="c0"/>
<circle cx="338" cy="182" r="8" class="c0"/>
<circle cx="424" cy="836" r="8" class="c0"/>
<circle cx="648" cy="1262" r="8" class="c0"/>
<circle cx="108" cy="24" r="8" class="c0"/>
<circle cx="184" cy="200" r="8" class="c0"/>
<circle cx="436" cy="82" r="8" class="c0"/>
<circle cx="448" cy="346" r="8" class="c0"/>
<circle cx="480" cy="1064" r="8" class="c0"/>
<circle cx="332" cy="864" r="8" class="c0"/>
<circle cx="488" cy="206" r="8" class="c0"/>
<circle cx="336" cy="52" r="8" class="c0"/>
<circle cx="364" cy="674" r="8" class="c0"/>
<circle cx="480" cy="274" r="8" class="c0"/>
<circle cx="458" cy="12" r="8" class="c0"/>
<circle cx="202" cy="50" r="8" class="c0"/>
<circle cx="200" cy="74" r="8" class="c0"/>
<circle cx="540" cy="1182" r="8" class="c0"/>
<circle cx="162" cy="208" r="8" class="c0"/>
<circle cx="392" cy="904" r="8" class="c0"/>
<circle cx="208" cy="196" r="8" class="c0"/>
<circle cx="468" cy="318" r="8" class="c0"/>
<circle cx="324" cy="326" r="8" class="c0"/>
<circle cx="326" cy="356" r="8" class="c0"/>
<circle cx="476" cy="1042" r="8" class="c0"/>
<circle cx="184" cy="94" r="8" class="c0"/>
<circle cx="560" cy="1014" r="8" class="c0"/>
<circle cx="630" cy="1164" r="8" class="c0"/>
<circle cx="264" cy="534" r="8" class="c0"/>
<circle cx="400" cy="168" r="8" class="c0"/>
<circle cx="532" cy="806" r="8" class="c0"/>
<circle cx="240" cy="154" r="8" class="c0"/>
<circle cx="378" cy="84" r="8" class="c0"/>
<circle cx="486" cy="130" r="8" class="c0"/>
<circle cx="244" cy="658" r="8" class="c0"/>
<circle cx="282" cy="446" r="8" class="c0"/>
<circle cx="376" cy="596" r="8" class="c0"/>
<circle cx="174" cy="438" r="8" class="c0"/>
<circle cx="616" cy="1240" r="8" class="c0"/>
<circle cx="440" cy="576" r="8" class="c0"/>
<circle cx="328" cy="392" r="8" class="c0"/>
<circle cx="344" cy="526" r="8" class="c0"/>
<circle cx="284" cy="470" r="8" class="c0"/>
<circle cx="416" cy="650" r="8" class="c0"/>
<circle cx="318" cy="146" r="8" class="c0"/>
<circle cx="436" cy="940" r="8" class="c0"/>
<circle cx="606" cy="1108" r="8" class="c0"/>
<circle cx="332" cy="208" r="8" class="c0"/>
<circle cx="380" cy="10" r="8" class="c0"/>
<circle cx="196" cy="286" r="8" class="c0"/>
<circle cx="122" cy="230" r="8" class="c0"/>
<circle cx="296" cy="390" r="8" class="c0"/>
<circle cx="360" cy="474" r="8" class="c0"/>
<circle cx="448" cy="1072" r="8" class="c0"/>
<circle cx="336" cy="262" r="8" class="c0"/>
<circle cx="514" cy="1026" r="8" class="c0"/>
<circle cx="222" cy="606" r="8" class="c0"/>
<circle cx="570" cy="1156" r="8" class="c0"/>
<circle cx="300" cy="64" r="8" class="c0"/>
<circle cx="432" cy="958" r="8" class="c0"/>
<circle cx="230" cy="494" r="8" class="c0"/>
<circle cx="114" cy="146" r="6" class="c0"/>
<circle cx="278" cy="700" r="6" class="c0"/>
<circle cx="138" cy="14" r="6" class="c0"/>
<circle cx="406" cy="822" r="6" class="c0"/>
<circle cx="180" cy="122" r="6" class="c0"/>
<circle cx="368" cy="580" r="6" class="c0"/>
<circle cx="542" cy="836" r="6" class="c0"/>
<circle cx="226" cy="130" r="6" class="c0"/>
<circle cx="448" cy="210" r="6" class="c0"/>
<circle cx="246" cy="366" r="6" class="c0"/>
<circle cx="440" cy="694" r="6" class="c0"/>
<circle cx="328" cy="86" r="6" class="c0"/>
<circle cx="448" cy="950" r="6" class="c0"/>
<circle cx="252" cy="424" r="6" class="c0"/>
<circle cx="462" cy="88" r="6" class="c0"/>
<circle cx="406" cy="420" r="6" class="c0"/>
<circle cx="494" cy="386" r="6" class="c0"/>
<circle cx="286" cy="226" r="6" class="c0"/>
<circle cx="262" cy="688" r="6" class="c0"/>
<circle cx="312" cy="714" r="6" class="c0"/>
<circle cx="406" cy="116" r="6" class="c0"/>
<circle cx="312" cy="632" r="6" class="c0"/>
<circle cx="344" cy="678" r="6" class="c0"/>
<circle cx="510" cy="652" r="6" class="c0"/>
<circle cx="242" cy="412" r="6" class="c0"/>
<circle cx="152" cy="360" r="6" class="c0"/>
<circle cx="166" cy="284" r="6" class="c0"/>
<circle cx="364" cy="872" r="6" class="c0"/>
<circle cx="368" cy="228" r="6" class="c0"/>
<circle cx="466" cy="246" r="6" class="c0"/>
<circle cx="300" cy="220" r="6" class="c0"/>
<circle cx="448" cy="478" r="6" class="c0"/>
<circle cx="290" cy="602" r="6" class="c0"/>
<circle cx="502" cy="536" r="6" class="c0"/>
<circle cx="492" cy="42" r="6" class="c0"/>
<circle cx="362" cy="626" r="6" class="c0"/>
<circle cx="216" cy="40" r="6" class="c0"/>
<circle cx="412" cy="590" r="6" class="c0"/>
<circle cx="570" cy="976" r="6" class="c0"/>
<circle cx="476" cy="462" r="6" class="c0"/>
<circle cx="298" cy="684" r="6" class="c0"/>
<circle cx="284" cy="352" r="6" class="c0"/>
<circle cx="106" cy="136" r="6" class="c0"/>
<circle cx="326" cy="130" r="6" class="c0"/>
<circle cx="472" cy="54" r="6" class="c0"/>
<circle cx="278" cy="744" r="6" class="c0"/>
<circle cx="442" cy="628" r="6" class="c0"/>
<circle cx="488" cy="516" r="6" class="c0"/>
<circle cx="126" cy="90" r="6" class="c0"/>
<circle cx="114" cy="162" r="6" class="c0"/>
<circle cx="162" cy="412" r="6" class="c0"/>
<circle cx="110" cy="180" r="6" class="c0"/>
<circle cx="374" cy="26" r="6" class="c0"/>
<circle cx="266" cy="62" r="6" class="c0"/>
<circle cx="336" cy="764" r="6" class="c0"/>
<circle cx="256" cy="204" r="6" class="c0"/>
<circle cx="324" cy="222" r="6" class="c0"/>
<circle cx="150" cy="302" r="6" class="c0"/>
<circle cx="336" cy="72" r="6" class="c0"/>
<circle cx="394" cy="516" r="6" class="c0"/>
<circle cx="456" cy="1026" r="6" class="c0"/>
<circle cx="234" cy="358" r="6" class="c0"/>
<circle cx="460" cy="422" r="6" class="c0"/>
<circle cx="382" cy="150" r="6" class="c0"/>
<circle cx="330" cy="644" r="6" class="c0"/>
<circle cx="502" cy="756" r="6" class="c0"/>
<circle cx="188" cy="8" r="6" class="c0"/>
<circle cx="566" cy="950" r="6" class="c0"/>
<circle cx="320" cy="796" r="6" class="c0"/>
<circle cx="488" cy="230" r="6" class="c0"/>
<circle cx="496" cy="908" r="6" class="c0"/>
<circle cx="270" cy="6" r="6" class="c0"/>
<circle cx="180" cy="380" r="6" class="c0"/>
<circle cx="286" cy="752" r="6" class="c0"/>
<circle cx="514" cy="1076" r="6" class="c0"/>
<circle cx="412" cy="156" r="6" class="c0"/>
<circle cx="628" cy="1202" r="6" class="c0"/>
<circle cx="508" cy="838" r="6" class="c0"/>
<circle cx="168" cy="254" r="6" class="c0"/>
<circle cx="210" cy="410" r="6" class="c0"/>
<circle cx="400" cy="464" r="6" class="c0"/>
<circle cx="528" cy="932" r="6" class="c0"/>
<circle cx="498" cy="1092" r="6" class="c0"/>
<circle cx="452" cy="666" r="6" class="c0"/>
<circle cx="154" cy="94" r="6" class="c0"/>
<circle cx="376" cy="762" r="6" class="c0"/>
<circle cx="478" cy="378" r="6" class="c0"/>
<circle cx="440" cy="868" r="6" class="c0"/>
<circle cx="294" cy="6" r="6" class="c0"/>
<circle cx="476" cy="736" r="6" class="c0"/>
<circle cx="358" cy="334" r="6" class="c0"/>
<circle cx="190" cy="304" r="6" class="c0"/>
<circle cx="232" cy="274" r="6" class="c0"/>
<circle cx="402" cy="244" r="6" class="c0"/>
<circle cx="382" cy="56" r="6" class="c0"/>
<circle cx="558" cy="1078" r="6" class="c0"/>
<circle cx="454" cy="890" r="6" class="c0"/>
<circle cx="406" cy="766" r="6" class="c0"/>
<circle cx="348" cy="26" r="6" class="c0"/>
<circle cx="212" cy="536" r="6" class="c0"/>
<circle cx="426" cy="140" r="6" class="c0"/>
<circle cx="366" cy="914" r="6" class="c0"/>
<circle cx="376" cy="428" r="6" class="c0"/>
<circle cx="252" cy="392" r="6" class="c0"/>
<circle cx="592" cy="1060" r="6" class="c0"/>
<circle cx="458" cy="610" r="6" class="c0"/>
<circle cx="498" cy="850" r="6" class="c0"/>
<circle cx="518" cy="956" r="6" class="c0"/>
<circle cx="360" cy="780" r="6" class="c0"/>
<circle cx="112" cy="194" r="6" class="c0"/>
<circle cx="540" cy="820" r="6" class="c0"/>
<circle cx="222" cy="628" r="6" class="c0"/>
<circle cx="398" cy="926" r="6" class="c0"/>
<circle cx="216" cy="72" r="6" class="c0"/>
<circle cx="584" cy="1112" r="6" class="c0"/>
<circle cx="498" cy="12" r="6" class="c0"/>
<circle cx="152" cy="154" r="6" class="c0"/>
<circle cx="352" cy="428" r="6" class="c0"/>
<circle cx="400" cy="402" r="6" class="c0"/>
<circle cx="112" cy="40" r="6" class="c0"/>
<circle cx="364" cy="306" r="6" class="c0"/>
<circle cx="368" cy="70" r="6" class="c0"/>
<circle cx="338" cy="884" r="6" class="c0"/>
<circle cx="530" cy="758" r="6" class="c0"/>
<circle cx="218" cy="474" r="6" class="c0"/>
<circle cx="332" cy="566" r="6" class="c0"/>
<circle cx="332" cy="478" r="6" class="c0"/>
<circle cx="242" cy="680" r="6" class="c0"/>
<circle cx="330" cy="498" r="6" class="c0"/>
<circle cx="556" cy="1144" r="6" class="c0"/>
<circle cx="442" cy="8" r="6" class="c0"/>
<circle cx="256" cy="330" r="6" class="c0"/>
<circle cx="228" cy="200" r="6" class="c0"/>
<circle cx="556" cy="984" r="6" class="c0"/>
<circle cx="370" cy="634" r="6" class="c0"/>
<circle cx="394" cy="286" r="6" class="c0"/>
<circle cx="478" cy="1080" r="6" class="c0"/>
<circle cx="220" cy="346" r="6" class="c0"/>
<circle cx="358" cy="642" r="6" class="c0"/>
<circle cx="294" cy="564" r="6" class="c0"/>
<circle cx="324" cy="174" r="6" class="c0"/>
<circle cx="216" cy="6" r="6" class="c0"/>
<circle cx="400" cy="946" r="6" class="c0"/>
<circle cx="94" cy="36" r="6" class="c0"/>
<circle cx="496" cy="962" r="6" class="c0"/>
<circle cx="308" cy="416" r="6" class="c0"/>
<circle cx="394" cy="578" r="6" class="c0"/>
<circle cx="244" cy="596" r="6" class="c0"/>
<circle cx="300" cy="820" r="6" class="c0"/>
<circle cx="342" cy="118" r="6" class="c0"/>
<circle cx="600" cy="1070" r="6" class="c0"/>
<circle cx="494" cy="108" r="6" class="c0"/>
<circle cx="434" cy="34" r="6" class="c0"/>
<circle cx="362" cy="390" r="6" class="c0"/>
<circle cx="426" cy="764" r="6" class="c0"/>
<circle cx="344" cy="734" r="6" class="c0"/>
<circle cx="438" cy="730" r="6" class="c0"/>
<circle cx="234" cy="568" r="6" class="c0"/>
<circle cx="402" cy="610" r="6" class="c0"/>
<circle cx="316" cy="610" r="6" class="c0"/>
<circle cx="332" cy="668" r="6" class="c0"/>
<circle cx="500" cy="680" r="6" class="c0"/>
<circle cx="332" cy="230" r="6" class="c0"/>
<circle cx="432" cy="236" r="6" class="c0"/>
<circle cx="218" cy="392" r="6" class="c0"/>
<circle cx="144" cy="144" r="6" class="c0"/>
<circle cx="400" cy="350" r="6" class="c0"/>
<circle cx="192" cy="256" r="6" class="c0"/>
<circle cx="174" cy="336" r="6" class="c0"/>
<circle cx="176" cy="464" r="6" class="c0"/>
<circle cx="316" cy="848" r="6" class="c0"/>
<circle cx="490" cy="290" r="6" class="c0"/>
<circle cx="390" cy="960" r="6" class="c0"/>
<circle cx="152" cy="32" r="6" class="c0"/>
<circle cx="354" cy="230" r="6" class="c0"/>
<circle cx="274" cy="656" r="6" class="c0"/>
<circle cx="502" cy="578" r="6" class="c0"/>
<circle cx="616" cy="1128" r="6" class="c0"/>
<circle cx="422" cy="526" r="6" class="c0"/>
<circle cx="456" cy="486" r="6" class="c0"/>
<circle cx="444" cy="526" r="6" class="c0"/>
<circle cx="382" cy="526" r="6" class="c0"/>
<circle cx="166" cy="190" r="6" class="c0"/>
<circle cx="178" cy="78" r="6" class="c0"/>
<circle cx="422" cy="378" r="6" class="c0"/>
<circle cx="378" cy="108" r="6" class="c0"/>
<circle cx="422" cy="218" r="6" class="c0"/>
<circle cx="468" cy="586" r="6" class="c0"/>
<circle cx="208" cy="464" r="6" class="c0"/>
<circle cx="166" cy="6" r="6" class="c0"/>
<circle cx="282" cy="100" r="6" class="c0"/>
<circle cx="646" cy="1204" r="6" class="c0"/>
<circle cx="146" cy="200" r="6" class="c0"/>
<circle cx="404" cy="628" r="6" class="c0"/>
<circle cx="288" cy="150" r="6" class="c0"/>
<circle cx="376" cy="512" r="6" class="c0"/>
<circle cx="522" cy="984" r="6" class="c0"/>
<circle cx="322" cy="198" r="6" class="c0"/>
<circle cx="182" cy="486" r="6" class="c0"/>
<circle cx="654" cy="1220" r="6" class="c0"/>
<circle cx="248" cy="322" r="6" class="c0"/>
<circle cx="184" cy="150" r="6" class="c0"/>
<circle cx="490" cy="750" r="6" class="c0"/>
<circle cx="212" cy="126" r="6" class="c0"/>
<circle cx="590" cy="1036" r="6" class="c0"/>
<circle cx="478" cy="556" r="6" class="c0"/>
<circle cx="302" cy="756" r="6" class="c0"/>
<circle cx="284" cy="258" r="6" class="c0"/>
<circle cx="466" cy="922" r="6" class="c0"/>
<circle cx="308" cy="228" r="6" class="c0"/>
<circle cx="398" cy="46" r="6" class="c0"/>
<circle cx="204" cy="322" r="6" class="c0"/>
<circle cx="198" cy="160" r="6" class="c0"/>
<circle cx="234" cy="458" r="6" class="c0"/>
<circle cx="238" cy="192" r="6" class="c0"/>
<circle cx="258" cy="650" r="6" class="c0"/>
<circle cx="472" cy="518" r="6" class="c0"/>
<circle cx="470" cy="96" r="6" class="c0"/>
<circle cx="320" cy="700" r="6" class="c0"/>
<circle cx="234" cy="120" r="6" class="c0"/>
<circle cx="414" cy="974" r="6" class="c0"/>
<circle cx="274" cy="170" r="6" class="c0"/>
<circle cx="460" cy="334" r="6" class="c0"/>
<circle cx="420" cy="502" r="6" class="c0"/>
<circle cx="434" cy="100" r="6" class="c0"/>
<circle cx="330" cy="892" r="6" class="c0"/>
<circle cx="472" cy="260" r="6" class="c0"/>
<circle cx="412" cy="536" r="6" class="c0"/>
<circle cx="228" cy="258" r="6" class="c0"/>
<circle cx="574" cy="1104" r="6" class="c0"/>
<circle cx="324" cy="486" r="6" class="c0"/>
<circle cx="414" cy="730" r="6" class="c0"/>
<circle cx="116" cy="212" r="6" class="c0"/>
<circle cx="494" cy="78" r="6" class="c0"/>
<circle cx="356" cy="536" r="6" class="c0"/>
<circle cx="200" cy="418" r="6" class="c0"/>
<circle cx="296" cy="650" r="6" class="c0"/>
<circle cx="516" cy="998" r="6" class="c0"/>
<circle cx="366" cy="606" r="6" class="c0"/>
<circle cx="342" cy="470" r="6" class="c0"/>
<circle cx="426" cy="902" r="6" class="c0"/>
<circle cx="458" cy="678" r="6" class="c0"/>
<circle cx="204" cy="544" r="6" class="c0"/>
<circle cx="254" cy="78" r="6" class="c0"/>
<circle cx="266" cy="734" r="6" class="c0"/>
<circle cx="490" cy="322" r="6" class="c0"/>
<circle cx="262" cy="572" r="6" class="c0"/>
<circle cx="140" cy="270" r="6" class="c0"/>
<circle cx="454" cy="306" r="6" class="c0"/>
<circle cx="368" cy="752" r="6" class="c0"/>
<circle cx="524" cy="1168" r="6" class="c0"/>
<circle cx="338" cy="426" r="6" class="c0"/>
<circle cx="444" cy="556" r="6" class="c0"/>
<circle cx="254" cy="56" r="6" class="c0"/>
<circle cx="478" cy="40" r="6" class="c0"/>
<circle cx="276" cy="626" r="6" class="c0"/>
<circle cx="448" cy="22" r="6" class="c0"/>
<circle cx="502" cy="520" r="6" class="c0"/>
<circle cx="458" cy="400" r="6" class="c0"/>
<circle cx="426" cy="662" r="6" class="c0"/>
<circle cx="236" cy="622" r="6" class="c0"/>
<circle cx="266" cy="178" r="6" class="c0"/>
<circle cx="448" cy="1010" r="6" class="c0"/>
<circle cx="496" cy="464" r="6" class="c0"/>
<circle cx="148" cy="168" r="6" class="c0"/>
<circle cx="366" cy="134" r="6" class="c0"/>
<circle cx="586" cy="1158" r="6" class="c0"/>
<circle cx="342" cy="400" r="6" class="c0"/>
<circle cx="320" cy="572" r="6" class="c0"/>
<circle cx="250" cy="696" r="6" class="c0"/>
<circle cx="552" cy="1116" r="6" class="c0"/>
<circle cx="526" cy="732" r="6" class="c0"/>
<circle cx="244" cy="30" r="6" class="c0"/>
<circle cx="194" cy="236" r="6" class="c0"/>
<circle cx="260" cy="124" r="6" class="c0"/>
<circle cx="348" cy="808" r="6" class="c0"/>
<circle cx="302" cy="556" r="6" class="c0"/>
<circle cx="440" cy="840" r="6" class="c0"/>
<circle cx="242" cy="538" r="6" class="c0"/>
<circle cx="260" cy="482" r="6" class="c0"/>
<circle cx="456" cy="762" r="6" class="c0"/>
<circle cx="314" cy="312" r="6" class="c0"/>
<circle cx="310" cy="78" r="6" class="c0"/>
<circle cx="392" cy="676" r="6" class="c0"/>
<circle cx="370" cy="184" r="6" class="c0"/>
<circle cx="366" cy="342" r="6" class="c0"/>
<circle cx="546" cy="1072" r="6" class="c0"/>
<circle cx="290" cy="788" r="6" class="c0"/>
<circle cx="458" cy="52" r="6" class="c0"/>
<circle cx="566" cy="1086" r="6" class="c0"/>
<circle cx="406" cy="56" r="6" class="c0"/>
<circle cx="136" cy="192" r="6" class="c0"/>
<circle cx="304" cy="174" r="6" class="c0"/>
<circle cx="502" cy="644" r="6" class="c0"/>
<circle cx="390" cy="158" r="6" class="c0"/>
<circle cx="272" cy="30" r="6" class="c0"/>
<circle cx="100" cy="74" r="6" class="c0"/>
<circle cx="448" cy="428" r="6" class="c0"/>
<circle cx="248" cy="172" r="6" class="c0"/>
<circle cx="358" cy="216" r="6" class="c0"/>
<circle cx="446" cy="882" r="6" class="c0"/>
<circle cx="434" cy="756" r="6" class="c0"/>
<circle cx="244" cy="6" r="6" class="c0"/>
<circle cx="266" cy="640" r="6" class="c0"/>
</svg>
