<?xml version="1.0" encoding="utf-8"?>
<svg xmlns="http://www.w3.org/2000/svg"
     xmlns:xlink="http://www.w3.org/1999/xlink" width="1920" height="1440" >

            <defs>
            <style type="text/css"><![CDATA[
circle {stroke: none;}
.c0 {fill: #FFFFFF;}
]]></style>
            </defs>
<rect x="0" y="0" width="1920" height="1440" fill="black"/>
<circle cx="348" cy="192" r="14" class="c0"/>
<circle cx="510" cy="752" r="12" class="c0"/>
<circle cx="378" cy="258" r="12" class="c0"/>
<circle cx="432" cy="118" r="12" class="c0"/>
<circle cx="260" cy="96" r="12" class="c0"/>
<circle cx="372" cy="220" r="12" class="c0"/>
<circle cx="392" cy="536" r="12" class="c0"/>
<circle cx="488" cy="12" r="12" class="c0"/>
<circle cx="634" cy="918" r="12" class="c0"/>
<circle cx="552" cy="76" r="12" class="c0"/>
<circle cx="362" cy="116" r="12" class="c0"/>
<circle cx="578" cy="748" r="12" class="c0"/>
<circle cx="482" cy="320" r="12" class="c0"/>
<circle cx="530" cy="154" r="12" class="c0"/>
<circle cx="614" cy="638" r="12" class="c0"/>
<circle cx="400" cy="200" r="12" class="c0"/>
<circle cx="390" cy="96" r="12" class="c0"/>
<circle cx="312" cy="320" r="12" class="c0"/>
<circle cx="498" cy="80" r="12" class="c0"/>
<circle cx="372" cy="370" r="12" class="c0"/>
<circle cx="654" cy="868" r="12" class="c0"/>
<circle cx="542" cy="842" r="12" class="c0"/>
<circle cx="250" cy="72" r="12" class="c0"/>
<circle cx="484" cy="610" r="12" class="c0"/>
<circle cx="576" cy="136" r="12" class="c0"/>
<circle cx="534" cy="790" r="12" class="c0"/>
<circle cx="410" cy="426" r="12" class="c0"/>
<circle cx="694" cy="830" r="12" class="c0"/>
<circle cx="498" cy="52" r="12" class="c0"/>
<circle cx="446" cy="580" r="12" class="c0"/>
<circle cx="342" cy="154" r="12" class="c0"/>
<circle cx="460" cy="646" r="12" class="c0"/>
<circle cx="492" cy="292" r="12" class="c0"/>
<circle cx="606" cy="900" r="12" class="c0"/>
<circle cx="580" cy="414" r="12" class="c0"/>
<circle cx="506" cy="440" r="12" class="c0"/>
<circle cx="342" cy="292" r="12" class="c0"/>
<circle cx="530" cy="346" r="12" class="c0"/>
<circle cx="424" cy="500" r="12" class="c0"/>
<circle cx="280" cy="134" r="12" class="c0"/>
<circle cx="656" cy="970" r="12" class="c0"/>
<circle cx="436" cy="66" r="12" class="c0"/>
<circle cx="514" cy="308" r="12" class="c0"/>
<circle cx="548" cy="490" r="12" class="c0"/>
<circle cx="522" cy="200" r="12" class="c0"/>
<circle cx="722" cy="980" r="12" class="c0"/>
<circle cx="668" cy="990" r="12" class="c0"/>
<circle cx="688" cy="936" r="12" class="c0"/>
<circle cx="448" cy="608" r="12" class="c0"/>
<circle cx="368" cy="304" r="10" class="c0"/>
<circle cx="630" cy="656" r="10" class="c0"/>
<circle cx="464" cy="258" r="10" class="c0"/>
<circle cx="618" cy="538" r="10" class="c0"/>
<circle cx="394" cy="34" r="10" class="c0"/>
<circle cx="626" cy="516" r="10" class="c0"/>
<circle cx="530" cy="644" r="10" class="c0"/>
<circle cx="684" cy="772" r="10" class="c0"/>
<circle cx="506" cy="172" r="10" class="c0"/>
<circle cx="450" cy="204" r="10" class="c0"/>
<circle cx="570" cy="602" r="10" class="c0"/>
<circle cx="380" cy="60" r="10" class="c0"/>
<circle cx="390" cy="138" r="10" class="c0"/>
<circle cx="606" cy="606" r="10" class="c0"/>
<circle cx="616" cy="930" r="10" class="c0"/>
<circle cx="632" cy="876" r="10" class="c0"/>
<circle cx="728" cy="948" r="10" class="c0"/>
<circle cx="634" cy="738" r="10" class="c0"/>
<circle cx="550" cy="768" r="10" class="c0"/>
<circle cx="354" cy="244" r="10" class="c0"/>
<circle cx="464" cy="496" r="10" class="c0"/>
<circle cx="636" cy="614" r="10" class="c0"/>
<circle cx="604" cy="142" r="10" class="c0"/>
<circle cx="590" cy="558" r="10" class="c0"/>
<circle cx="478" cy="674" r="10" class="c0"/>
<circle cx="478" cy="110" r="10" class="c0"/>
<circle cx="388" cy="322" r="10" class="c0"/>
<circle cx="508" cy="128" r="10" class="c0"/>
<circle cx="504" cy="582" r="10" class="c0"/>
<circle cx="562" cy="172" r="10" class="c0"/>
<circle cx="436" cy="454" r="10" class="c0"/>
<circle cx="426" cy="390" r="10" class="c0"/>
<circle cx="572" cy="486" r="10" class="c0"/>
<circle cx="400" cy="76" r="10" class="c0"/>
<circle cx="700" cy="912" r="10" class="c0"/>
<circle cx="464" cy="530" r="10" class="c0"/>
<circle cx="326" cy="224" r="10" class="c0"/>
<circle cx="296" cy="16" r="10" class="c0"/>
<circle cx="414" cy="218" r="10" class="c0"/>
<circle cx="474" cy="68" r="10" class="c0"/>
<circle cx="484" cy="268" r="10" class="c0"/>
<circle cx="382" cy="188" r="10" class="c0"/>
<circle cx="378" cy="156" r="10" class="c0"/>
<circle cx="614" cy="314" r="10" class="c0"/>
<circle cx="308" cy="154" r="10" class="c0"/>
<circle cx="520" cy="472" r="10" class="c0"/>
<circle cx="446" cy="382" r="10" class="c0"/>
<circle cx="568" cy="728" r="10" class="c0"/>
<circle cx="392" cy="170" r="10" class="c0"/>
<circle cx="554" cy="380" r="10" class="c0"/>
<circle cx="444" cy="36" r="10" class="c0"/>
<circle cx="758" cy="1052" r="10" class="c0"/>
<circle cx="282" cy="30" r="10" class="c0"/>
<circle cx="448" cy="548" r="10" class="c0"/>
<circle cx="626" cy="390" r="10" class="c0"/>
<circle cx="480" cy="208" r="10" class="c0"/>
<circle cx="618" cy="460" r="10" class="c0"/>
<circle cx="616" cy="668" r="10" class="c0"/>
<circle cx="492" cy="558" r="10" class="c0"/>
<circle cx="542" cy="462" r="10" class="c0"/>
<circle cx="606" cy="730" r="10" class="c0"/>
<circle cx="598" cy="286" r="10" class="c0"/>
<circle cx="570" cy="832" r="10" class="c0"/>
<circle cx="552" cy="286" r="10" class="c0"/>
<circle cx="408" cy="128" r="10" class="c0"/>
<circle cx="508" cy="660" r="10" class="c0"/>
<circle cx="262" cy="50" r="10" class="c0"/>
<circle cx="686" cy="800" r="10" class="c0"/>
<circle cx="584" cy="820" r="10" class="c0"/>
<circle cx="436" cy="150" r="10" class="c0"/>
<circle cx="604" cy="98" r="10" class="c0"/>
<circle cx="476" cy="696" r="10" class="c0"/>
<circle cx="586" cy="790" r="10" class="c0"/>
<circle cx="590" cy="156" r="10" class="c0"/>
<circle cx="490" cy="484" r="10" class="c0"/>
<circle cx="404" cy="288" r="10" class="c0"/>
<circle cx="646" cy="900" r="10" class="c0"/>
<circle cx="638" cy="846" r="10" class="c0"/>
<circle cx="454" cy="348" r="10" class="c0"/>
<circle cx="342" cy="360" r="10" class="c0"/>
<circle cx="342" cy="318" r="10" class="c0"/>
<circle cx="670" cy="710" r="10" class="c0"/>
<circle cx="600" cy="22" r="10" class="c0"/>
<circle cx="604" cy="800" r="10" class="c0"/>
<circle cx="424" cy="542" r="10" class="c0"/>
<circle cx="674" cy="920" r="10" class="c0"/>
<circle cx="376" cy="444" r="10" class="c0"/>
<circle cx="648" cy="712" r="10" class="c0"/>
<circle cx="268" cy="16" r="10" class="c0"/>
<circle cx="242" cy="26" r="10" class="c0"/>
<circle cx="386" cy="410" r="10" class="c0"/>
<circle cx="282" cy="158" r="10" class="c0"/>
<circle cx="518" cy="38" r="10" class="c0"/>
<circle cx="438" cy="638" r="10" class="c0"/>
<circle cx="486" cy="428" r="10" class="c0"/>
<circle cx="434" cy="240" r="10" class="c0"/>
<circle cx="586" cy="510" r="10" class="c0"/>
<circle cx="614" cy="374" r="10" class="c0"/>
<circle cx="614" cy="426" r="10" class="c0"/>
<circle cx="546" cy="730" r="10" class="c0"/>
<circle cx="574" cy="204" r="10" class="c0"/>
<circle cx="660" cy="668" r="10" class="c0"/>
<circle cx="702" cy="890" r="10" class="c0"/>
<circle cx="534" cy="608" r="10" class="c0"/>
<circle cx="304" cy="48" r="10" class="c0"/>
<circle cx="352" cy="432" r="10" class="c0"/>
<circle cx="460" cy="128" r="10" class="c0"/>
<circle cx="656" cy="762" r="10" class="c0"/>
<circle cx="322" cy="274" r="10" class="c0"/>
<circle cx="744" cy="998" r="10" class="c0"/>
<circle cx="636" cy="786" r="10" class="c0"/>
<circle cx="480" cy="396" r="10" class="c0"/>
<circle cx="630" cy="818" r="10" class="c0"/>
<circle cx="592" cy="870" r="10" class="c0"/>
<circle cx="318" cy="110" r="10" class="c0"/>
<circle cx="574" cy="360" r="10" class="c0"/>
<circle cx="492" cy="512" r="10" class="c0"/>
<circle cx="562" cy="114" r="10" class="c0"/>
<circle cx="486" cy="138" r="10" class="c0"/>
<circle cx="392" cy="350" r="10" class="c0"/>
<circle cx="702" cy="960" r="10" class="c0"/>
<circle cx="522" cy="76" r="10" class="c0"/>
<circle cx="480" cy="580" r="10" class="c0"/>
<circle cx="478" cy="472" r="10" class="c0"/>
<circle cx="746" cy="1032" r="10" class="c0"/>
<circle cx="554" cy="664" r="10" class="c0"/>
<circle cx="580" cy="440" r="10" class="c0"/>
<circle cx="340" cy="74" r="10" class="c0"/>
<circle cx="302" cy="196" r="10" class="c0"/>
<circle cx="542" cy="680" r="10" class="c0"/>
<circle cx="526" cy="412" r="10" class="c0"/>
<circle cx="554" cy="696" r="10" class="c0"/>
<circle cx="450" cy="98" r="10" class="c0"/>
<circle cx="664" cy="938" r="10" class="c0"/>
<circle cx="320" cy="88" r="10" class="c0"/>
<circle cx="412" cy="94" r="8" class="c0"/>
<circle cx="570" cy="224" r="8" class="c0"/>
<circle cx="288" cy="64" r="8" class="c0"/>
<circle cx="424" cy="294" r="8" class="c0"/>
<circle cx="570" cy="542" r="8" class="c0"/>
<circle cx="448" cy="518" r="8" class="c0"/>
<circle cx="522" cy="712" r="8" class="c0"/>
<circle cx="704" cy="1020" r="8" class="c0"/>
<circle cx="562" cy="308" r="8" class="c0"/>
<circle cx="492" cy="534" r="8" class="c0"/>
<circle cx="520" cy="268" r="8" class="c0"/>
<circle cx="596" cy="590" r="8" class="c0"/>
<circle cx="366" cy="478" r="8" class="c0"/>
<circle cx="666" cy="818" r="8" class="c0"/>
<circle cx="416" cy="152" r="8" class="c0"/>
<circle cx="468" cy="336" r="8" class="c0"/>
<circle cx="608" cy="220" r="8" class="c0"/>
<circle cx="446" cy="404" r="8" class="c0"/>
<circle cx="480" cy="162" r="8" class="c0"/>
<circle cx="568" cy="328" r="8" class="c0"/>
<circle cx="444" cy="224" r="8" class="c0"/>
<circle cx="582" cy="648" r="8" class="c0"/>
<circle cx="470" cy="148" r="8" class="c0"/>
<circle cx="296" cy="236" r="8" class="c0"/>
<circle cx="778" cy="1050" r="8" class="c0"/>
<circle cx="356" cy="138" r="8" class="c0"/>
<circle cx="600" cy="768" r="8" class="c0"/>
<circle cx="454" cy="14" r="8" class="c0"/>
<circle cx="554" cy="338" r="8" class="c0"/>
<circle cx="324" cy="254" r="8" class="c0"/>
<circle cx="398" cy="244" r="8" class="c0"/>
<circle cx="618" cy="718" r="8" class="c0"/>
<circle cx="758" cy="1010" r="8" class="c0"/>
<circle cx="536" cy="298" r="8" class="c0"/>
<circle cx="358" cy="30" r="8" class="c0"/>
<circle cx="594" cy="72" r="8" class="c0"/>
<circle cx="490" cy="352" r="8" class="c0"/>
<circle cx="560" cy="36" r="8" class="c0"/>
<circle cx="390" cy="458" r="8" class="c0"/>
<circle cx="606" cy="698" r="8" class="c0"/>
<circle cx="370" cy="174" r="8" class="c0"/>
<circle cx="668" cy="686" r="8" class="c0"/>
<circle cx="526" cy="670" r="8" class="c0"/>
<circle cx="366" cy="406" r="8" class="c0"/>
<circle cx="406" cy="584" r="8" class="c0"/>
<circle cx="380" cy="514" r="8" class="c0"/>
<circle cx="428" cy="410" r="8" class="c0"/>
<circle cx="540" cy="394" r="8" class="c0"/>
<circle cx="542" cy="438" r="8" class="c0"/>
<circle cx="586" cy="580" r="8" class="c0"/>
<circle cx="612" cy="172" r="8" class="c0"/>
<circle cx="786" cy="1072" r="8" class="c0"/>
<circle cx="502" cy="332" r="8" class="c0"/>
<circle cx="676" cy="734" r="8" class="c0"/>
<circle cx="518" cy="110" r="8" class="c0"/>
<circle cx="280" cy="80" r="8" class="c0"/>
<circle cx="602" cy="184" r="8" class="c0"/>
<circle cx="632" cy="480" r="8" class="c0"/>
<circle cx="498" cy="192" r="8" class="c0"/>
<circle cx="528" cy="234" r="8" class="c0"/>
<circle cx="686" cy="1008" r="8" class="c0"/>
<circle cx="456" cy="236" r="8" class="c0"/>
<circle cx="420" cy="272" r="8" class="c0"/>
<circle cx="344" cy="406" r="8" class="c0"/>
<circle cx="434" cy="352" r="8" class="c0"/>
<circle cx="576" cy="630" r="8" class="c0"/>
<circle cx="552" cy="188" r="8" class="c0"/>
<circle cx="364" cy="350" r="8" class="c0"/>
<circle cx="594" cy="376" r="8" class="c0"/>
<circle cx="570" cy="868" r="8" class="c0"/>
<circle cx="722" cy="898" r="8" class="c0"/>
<circle cx="324" cy="10" r="8" class="c0"/>
<circle cx="514" cy="546" r="8" class="c0"/>
<circle cx="396" cy="488" r="8" class="c0"/>
<circle cx="614" cy="578" r="8" class="c0"/>
<circle cx="644" cy="596" r="8" class="c0"/>
<circle cx="522" cy="736" r="8" class="c0"/>
<circle cx="724" cy="1006" r="8" class="c0"/>
<circle cx="478" cy="232" r="8" class="c0"/>
<circle cx="418" cy="26" r="8" class="c0"/>
<circle cx="440" cy="488" r="8" class="c0"/>
<circle cx="532" cy="528" r="8" class="c0"/>
<circle cx="504" cy="24" r="8" class="c0"/>
<circle cx="326" cy="62" r="8" class="c0"/>
<circle cx="404" cy="262" r="8" class="c0"/>
<circle cx="616" cy="754" r="8" class="c0"/>
<circle cx="568" cy="806" r="8" class="c0"/>
<circle cx="594" cy="348" r="8" class="c0"/>
<circle cx="450" cy="432" r="8" class="c0"/>
<circle cx="326" cy="142" r="8" class="c0"/>
<circle cx="598" cy="450" r="8" class="c0"/>
<circle cx="434" cy="318" r="8" class="c0"/>
<circle cx="446" cy="278" r="8" class="c0"/>
<circle cx="590" cy="396" r="8" class="c0"/>
<circle cx="564" cy="272" r="8" class="c0"/>
<circle cx="426" cy="612" r="8" class="c0"/>
<circle cx="586" cy="620" r="8" class="c0"/>
<circle cx="462" cy="370" r="8" class="c0"/>
<circle cx="488" cy="744" r="8" class="c0"/>
<circle cx="358" cy="84" r="8" class="c0"/>
<circle cx="650" cy="688" r="8" class="c0"/>
<circle cx="346" cy="264" r="8" class="c0"/>
<circle cx="628" cy="958" r="8" class="c0"/>
<circle cx="340" cy="44" r="8" class="c0"/>
<circle cx="584" cy="250" r="8" class="c0"/>
<circle cx="432" cy="428" r="8" class="c0"/>
<circle cx="342" cy="100" r="8" class="c0"/>
<circle cx="386" cy="478" r="8" class="c0"/>
<circle cx="304" cy="74" r="8" class="c0"/>
<circle cx="484" cy="372" r="8" class="c0"/>
<circle cx="500" cy="684" r="8" class="c0"/>
<circle cx="544" cy="360" r="8" class="c0"/>
<circle cx="542" cy="552" r="8" class="c0"/>
<circle cx="736" cy="1048" r="8" class="c0"/>
<circle cx="620" cy="346" r="8" class="c0"/>
<circle cx="564" cy="564" r="8" class="c0"/>
<circle cx="508" cy="778" r="8" class="c0"/>
<circle cx="588" cy="310" r="8" class="c0"/>
<circle cx="478" cy="734" r="8" class="c0"/>
<circle cx="276" cy="202" r="8" class="c0"/>
<circle cx="412" cy="342" r="8" class="c0"/>
<circle cx="530" cy="506" r="8" class="c0"/>
<circle cx="578" cy="672" r="8" class="c0"/>
<circle cx="426" cy="202" r="8" class="c0"/>
<circle cx="348" cy="20" r="8" class="c0"/>
<circle cx="662" cy="890" r="8" class="c0"/>
<circle cx="346" cy="386" r="8" class="c0"/>
<circle cx="398" cy="382" r="8" class="c0"/>
<circle cx="294" cy="258" r="8" class="c0"/>
<circle cx="458" cy="176" r="8" class="c0"/>
<circle cx="462" cy="288" r="8" class="c0"/>
<circle cx="536" cy="250" r="8" class="c0"/>
<circle cx="604" cy="828" r="8" class="c0"/>
<circle cx="538" cy="218" r="8" class="c0"/>
<circle cx="592" cy="490" r="8" class="c0"/>
<circle cx="504" cy="400" r="8" class="c0"/>
<circle cx="508" cy="636" r="8" class="c0"/>
<circle cx="318" cy="294" r="8" class="c0"/>
<circle cx="470" cy="22" r="8" class="c0"/>
<circle cx="548" cy="128" r="8" class="c0"/>
<circle cx="560" cy="528" r="8" class="c0"/>
<circle cx="614" cy="492" r="8" class="c0"/>
<circle cx="540" cy="322" r="8" class="c0"/>
<circle cx="584" cy="892" r="8" class="c0"/>
<circle cx="410" cy="622" r="8" class="c0"/>
<circle cx="458" cy="314" r="8" class="c0"/>
<circle cx="526" cy="578" r="8" class="c0"/>
<circle cx="600" cy="850" r="8" class="c0"/>
<circle cx="410" cy="450" r="8" class="c0"/>
<circle cx="724" cy="924" r="8" class="c0"/>
<circle cx="462" cy="568" r="8" class="c0"/>
<circle cx="584" cy="52" r="8" class="c0"/>
<circle cx="488" cy="720" r="8" class="c0"/>
<circle cx="638" cy="676" r="8" class="c0"/>
<circle cx="454" cy="462" r="8" class="c0"/>
<circle cx="384" cy="14" r="8" class="c0"/>
<circle cx="336" cy="128" r="8" class="c0"/>
<circle cx="376" cy="394" r="8" class="c0"/>
<circle cx="498" cy="240" r="8" class="c0"/>
<circle cx="548" cy="632" r="8" class="c0"/>
<circle cx="470" cy="42" r="8" class="c0"/>
<circle cx="704" cy="864" r="8" class="c0"/>
<circle cx="528" cy="692" r="8" class="c0"/>
<circle cx="564" cy="248" r="8" class="c0"/>
<circle cx="694" cy="1032" r="8" class="c0"/>
<circle cx="456" cy="676" r="8" class="c0"/>
<circle cx="578" cy="852" r="8" class="c0"/>
<circle cx="628" cy="708" r="8" class="c0"/>
<circle cx="536" cy="48" r="8" class="c0"/>
<circle cx="714" cy="1046" r="8" class="c0"/>
<circle cx="410" cy="476" r="8" class="c0"/>
<circle cx="656" cy="808" r="8" class="c0"/>
<circle cx="472" cy="190" r="8" class="c0"/>
<circle cx="684" cy="972" r="8" class="c0"/>
<circle cx="700" cy="988" r="8" class="c0"/>
<circle cx="402" cy="52" r="8" class="c0"/>
<circle cx="582" cy="174" r="8" class="c0"/>
<circle cx="542" cy="24" r="8" class="c0"/>
<circle cx="608" cy="60" r="8" class="c0"/>
<circle cx="660" cy="640" r="8" class="c0"/>
<circle cx="258" cy="118" r="8" class="c0"/>
<circle cx="550" cy="808" r="8" class="c0"/>
<circle cx="580" cy="10" r="8" class="c0"/>
<circle cx="504" cy="216" r="8" class="c0"/>
<circle cx="570" cy="96" r="8" class="c0"/>
<circle cx="714" cy="876" r="8" class="c0"/>
<circle cx="614" cy="274" r="8" class="c0"/>
<circle cx="562" cy="458" r="8" class="c0"/>
<circle cx="558" cy="404" r="8" class="c0"/>
<circle cx="662" cy="782" r="8" class="c0"/>
<circle cx="430" cy="184" r="8" class="c0"/>
<circle cx="580" cy="710" r="8" class="c0"/>
<circle cx="574" cy="774" r="8" class="c0"/>
<circle cx="604" cy="202" r="8" class="c0"/>
<circle cx="566" cy="428" r="8" class="c0"/>
<circle cx="412" cy="178" r="8" class="c0"/>
<circle cx="462" cy="80" r="8" class="c0"/>
<circle cx="404" cy="362" r="8" class="c0"/>
<circle cx="462" cy="416" r="8" class="c0"/>
<circle cx="594" cy="236" r="8" class="c0"/>
<circle cx="306" cy="246" r="8" class="c0"/>
<circle cx="596" cy="526" r="8" class="c0"/>
<circle cx="320" cy="168" r="8" class="c0"/>
<circle cx="410" cy="312" r="8" class="c0"/>
<circle cx="412" cy="560" r="8" class="c0"/>
<circle cx="612" cy="244" r="8" class="c0"/>
<circle cx="398" cy="510" r="8" class="c0"/>
<circle cx="516" cy="10" r="8" class="c0"/>
<circle cx="356" cy="462" r="8" class="c0"/>
<circle cx="332" cy="344" r="8" class="c0"/>
<circle cx="380" cy="290" r="8" class="c0"/>
<circle cx="464" cy="710" r="8" class="c0"/>
<circle cx="490" cy="646" r="8" class="c0"/>
<circle cx="328" cy="388" r="8" class="c0"/>
<circle cx="522" cy="622" r="8" class="c0"/>
<circle cx="356" cy="62" r="8" class="c0"/>
<circle cx="610" cy="336" r="8" class="c0"/>
<circle cx="620" cy="864" r="8" class="c0"/>
<circle cx="314" cy="26" r="8" class="c0"/>
<circle cx="604" cy="656" r="8" class="c0"/>
<circle cx="564" cy="60" r="8" class="c0"/>
<circle cx="422" cy="576" r="8" class="c0"/>
<circle cx="602" cy="470" r="8" class="c0"/>
<circle cx="524" cy="558" r="8" class="c0"/>
<circle cx="282" cy="104" r="8" class="c0"/>
<circle cx="558" cy="644" r="8" class="c0"/>
<circle cx="498" cy="768" r="8" class="c0"/>
<circle cx="652" cy="828" r="8" class="c0"/>
<circle cx="642" cy="570" r="8" class="c0"/>
<circle cx="628" cy="414" r="8" class="c0"/>
<circle cx="510" cy="522" r="8" class="c0"/>
<circle cx="506" cy="798" r="8" class="c0"/>
<circle cx="572" cy="292" r="8" class="c0"/>
<circle cx="528" cy="450" r="8" class="c0"/>
<circle cx="580" cy="338" r="8" class="c0"/>
<circle cx="600" cy="258" r="8" class="c0"/>
<circle cx="312" cy="346" r="8" class="c0"/>
<circle cx="636" cy="498" r="8" class="c0"/>
<circle cx="294" cy="280" r="8" class="c0"/>
<circle cx="606" cy="122" r="8" class="c0"/>
<circle cx="526" cy="768" r="8" class="c0"/>
<circle cx="506" cy="366" r="8" class="c0"/>
<circle cx="504" cy="496" r="8" class="c0"/>
<circle cx="624" cy="798" r="8" class="c0"/>
<circle cx="478" cy="546" r="8" class="c0"/>
<circle cx="422" cy="254" r="8" class="c0"/>
<circle cx="414" cy="374" r="8" class="c0"/>
<circle cx="508" cy="602" r="8" class="c0"/>
<circle cx="436" cy="562" r="8" class="c0"/>
<circle cx="678" cy="874" r="8" class="c0"/>
<circle cx="562" cy="784" r="8" class="c0"/>
<circle cx="638" cy="948" r="8" class="c0"/>
<circle cx="588" cy="116" r="8" class="c0"/>
<circle cx="322" cy="194" r="8" class="c0"/>
<circle cx="530" cy="96" r="8" class="c0"/>
<circle cx="356" cy="396" r="8" class="c0"/>
<circle cx="550" cy="580" r="8" class="c0"/>
<circle cx="738" cy="968" r="8" class="c0"/>
<circle cx="596" cy="674" r="8" class="c0"/>
<circle cx="468" cy="222" r="8" class="c0"/>
<circle cx="646" cy="550" r="8" class="c0"/>
<circle cx="298" cy="170" r="8" class="c0"/>
<circle cx="394" cy="226" r="8" class="c0"/>
<circle cx="294" cy="94" r="8" class="c0"/>
<circle cx="520" cy="378" r="8" class="c0"/>
<circle cx="428" cy="594" r="8" class="c0"/>
<circle cx="448" cy="166" r="8" class="c0"/>
<circle cx="678" cy="898" r="8" class="c0"/>
<circle cx="290" cy="212" r="8" class="c0"/>
<circle cx="768" cy="1026" r="8" class="c0"/>
<circle cx="490" cy="460" r="8" class="c0"/>
<circle cx="564" cy="152" r="8" class="c0"/>
<circle cx="726" cy="1036" r="8" class="c0"/>
<circle cx="566" cy="620" r="6" class="c0"/>
<circle cx="570" cy="22" r="6" class="c0"/>
<circle cx="532" cy="12" r="6" class="c0"/>
<circle cx="302" cy="124" r="6" class="c0"/>
<circle cx="480" cy="760" r="6" class="c0"/>
<circle cx="518" cy="328" r="6" class="c0"/>
<circle cx="526" cy="288" r="6" class="c0"/>
<circle cx="608" cy="396" r="6" class="c0"/>
<circle cx="554" cy="512" r="6" class="c0"/>
<circle cx="628" cy="688" r="6" class="c0"/>
<circle cx="500" cy="100" r="6" class="c0"/>
<circle cx="666" cy="744" r="6" class="c0"/>
<circle cx="518" cy="250" r="6" class="c0"/>
<circle cx="418" cy="326" r="6" class="c0"/>
<circle cx="560" cy="474" r="6" class="c0"/>
<circle cx="708" cy="930" r="6" class="c0"/>
<circle cx="324" cy="42" r="6" class="c0"/>
<circle cx="628" cy="556" r="6" class="c0"/>
<circle cx="418" cy="54" r="6" class="c0"/>
<circle cx="506" cy="724" r="6" class="c0"/>
<circle cx="548" cy="268" r="6" class="c0"/>
<circle cx="544" cy="174" r="6" class="c0"/>
<circle cx="434" cy="8" r="6" class="c0"/>
<circle cx="412" cy="10" r="6" class="c0"/>
<circle cx="632" cy="440" r="6" class="c0"/>
<circle cx="588" cy="216" r="6" class="c0"/>
<circle cx="462" cy="398" r="6" class="c0"/>
<circle cx="638" cy="634" r="6" class="c0"/>
<circle cx="580" cy="530" r="6" class="c0"/>
<circle cx="584" cy="462" r="6" class="c0"/>
<circle cx="656" cy="616" r="6" class="c0"/>
<circle cx="360" cy="332" r="6" class="c0"/>
<circle cx="584" cy="688" r="6" class="c0"/>
<circle cx="528" cy="134" r="6" class="c0"/>
<circle cx="492" cy="630" r="6" class="c0"/>
<circle cx="482" cy="446" r="6" class="c0"/>
<circle cx="602" cy="546" r="6" class="c0"/>
<circle cx="682" cy="848" r="6" class="c0"/>
<circle cx="472" cy="624" r="6" class="c0"/>
<circle cx="622" cy="834" r="6" class="c0"/>
<circle cx="442" cy="656" r="6" class="c0"/>
<circle cx="424" cy="466" r="6" class="c0"/>
<circle cx="652" cy="740" r="6" class="c0"/>
<circle cx="568" cy="584" r="6" class="c0"/>
<circle cx="548" cy="238" r="6" class="c0"/>
<circle cx="580" cy="82" r="6" class="c0"/>
<circle cx="530" cy="120" r="6" class="c0"/>
<circle cx="508" cy="416" r="6" class="c0"/>
<circle cx="428" cy="90" r="6" class="c0"/>
<circle cx="596" cy="714" r="6" class="c0"/>
<circle cx="388" cy="432" r="6" class="c0"/>
<circle cx="454" cy="52" r="6" class="c0"/>
<circle cx="540" cy="708" r="6" class="c0"/>
<circle cx="658" cy="726" r="6" class="c0"/>
<circle cx="764" cy="1070" r="6" class="c0"/>
<circle cx="550" cy="422" r="6" class="c0"/>
<circle cx="556" cy="854" r="6" class="c0"/>
<circle cx="668" cy="844" r="6" class="c0"/>
<circle cx="514" cy="226" r="6" class="c0"/>
<circle cx="430" cy="336" r="6" class="c0"/>
<circle cx="484" cy="248" r="6" class="c0"/>
<circle cx="522" cy="394" r="6" class="c0"/>
<circle cx="554" cy="6" r="6" class="c0"/>
<circle cx="596" cy="430" r="6" class="c0"/>
<circle cx="378" cy="494" r="6" class="c0"/>
<circle cx="334" cy="206" r="6" class="c0"/>
<circle cx="252" cy="8" r="6" class="c0"/>
<circle cx="374" cy="426" r="6" class="c0"/>
<circle cx="578" cy="32" r="6" class="c0"/>
<circle cx="346" cy="226" r="6" class="c0"/>
<circle cx="652" cy="582" r="6" class="c0"/>
<circle cx="466" cy="448" r="6" class="c0"/>
<circle cx="376" cy="38" r="6" class="c0"/>
<circle cx="406" cy="110" r="6" class="c0"/>
<circle cx="634" cy="584" r="6" class="c0"/>
<circle cx="392" cy="118" r="6" class="c0"/>
<circle cx="240" cy="48" r="6" class="c0"/>
<circle cx="274" cy="176" r="6" class="c0"/>
<circle cx="314" cy="130" r="6" class="c0"/>
<circle cx="408" cy="526" r="6" class="c0"/>
<circle cx="442" cy="304" r="6" class="c0"/>
<circle cx="426" cy="166" r="6" class="c0"/>
<circle cx="534" cy="814" r="6" class="c0"/>
<circle cx="676" cy="956" r="6" class="c0"/>
<circle cx="424" cy="136" r="6" class="c0"/>
<circle cx="360" cy="282" r="6" class="c0"/>
<circle cx="650" cy="628" r="6" class="c0"/>
<circle cx="604" cy="360" r="6" class="c0"/>
<circle cx="434" cy="526" r="6" class="c0"/>
<circle cx="612" cy="780" r="6" class="c0"/>
<circle cx="340" cy="6" r="6" class="c0"/>
<circle cx="448" cy="696" r="6" class="c0"/>
<circle cx="640" cy="528" r="6" class="c0"/>
<circle cx="600" cy="410" r="6" class="c0"/>
<circle cx="554" cy="216" r="6" class="c0"/>
<circle cx="586" cy="274" r="6" class="c0"/>
<circle cx="264" cy="146" r="6" class="c0"/>
<circle cx="374" cy="338" r="6" class="c0"/>
<circle cx="506" cy="152" r="6" class="c0"/>
<circle cx="364" cy="496" r="6" class="c0"/>
<circle cx="474" cy="90" r="6" class="c0"/>
<circle cx="496" cy="116" r="6" class="c0"/>
<circle cx="628" cy="898" r="6" class="c0"/>
<circle cx="600" cy="44" r="6" class="c0"/>
<circle cx="608" cy="508" r="6" class="c0"/>
<circle cx="708" cy="1004" r="6" class="c0"/>
<circle cx="634" cy="766" r="6" class="c0"/>
<circle cx="598" cy="324" r="6" class="c0"/>
<circle cx="652" cy="926" r="6" class="c0"/>
<circle cx="564" cy="502" r="6" class="c0"/>
<circle cx="228" cy="16" r="6" class="c0"/>
<circle cx="504" cy="274" r="6" class="c0"/>
<circle cx="450" cy="330" r="6" class="c0"/>
<circle cx="512" cy="698" r="6" class="c0"/>
<circle cx="516" cy="680" r="6" class="c0"/>
<circle cx="374" cy="78" r="6" class="c0"/>
<circle cx="638" cy="698" r="6" class="c0"/>
<circle cx="336" cy="242" r="6" class="c0"/>
<circle cx="544" cy="110" r="6" class="c0"/>
<circle cx="578" cy="386" r="6" class="c0"/>
<circle cx="498" cy="734" r="6" class="c0"/>
<circle cx="552" cy="600" r="6" class="c0"/>
<circle cx="536" cy="758" r="6" class="c0"/>
<circle cx="448" cy="250" r="6" class="c0"/>
<circle cx="330" cy="414" r="6" class="c0"/>
<circle cx="364" cy="8" r="6" class="c0"/>
<circle cx="540" cy="570" r="6" class="c0"/>
<circle cx="536" cy="376" r="6" class="c0"/>
<circle cx="496" cy="256" r="6" class="c0"/>
<circle cx="376" cy="128" r="6" class="c0"/>
<circle cx="530" cy="178" r="6" class="c0"/>
<circle cx="500" cy="706" r="6" class="c0"/>
<circle cx="394" cy="304" r="6" class="c0"/>
<circle cx="538" cy="64" r="6" class="c0"/>
<circle cx="680" cy="752" r="6" class="c0"/>
<circle cx="284" cy="186" r="6" class="c0"/>
<circle cx="348" cy="338" r="6" class="c0"/>
<circle cx="500" cy="622" r="6" class="c0"/>
<circle cx="486" cy="32" r="6" class="c0"/>
<circle cx="464" cy="594" r="6" class="c0"/>
<circle cx="368" cy="96" r="6" class="c0"/>
<circle cx="400" cy="16" r="6" class="c0"/>
<circle cx="486" cy="180" r="6" class="c0"/>
<circle cx="414" cy="402" r="6" class="c0"/>
<circle cx="328" cy="306" r="6" class="c0"/>
<circle cx="472" cy="514" r="6" class="c0"/>
<circle cx="478" cy="636" r="6" class="c0"/>
<circle cx="364" cy="48" r="6" class="c0"/>
<circle cx="372" cy="540" r="6" class="c0"/>
<circle cx="522" cy="56" r="6" class="c0"/>
<circle cx="556" cy="744" r="6" class="c0"/>
<circle cx="618" cy="886" r="6" class="c0"/>
<circle cx="546" cy="536" r="6" class="c0"/>
<circle cx="436" cy="266" r="6" class="c0"/>
<circle cx="574" cy="70" r="6" class="c0"/>
<circle cx="312" cy="212" r="6" class="c0"/>
<circle cx="400" cy="154" r="6" class="c0"/>
<circle cx="736" cy="1018" r="6" class="c0"/>
<circle cx="282" cy="248" r="6" class="c0"/>
<circle cx="236" cy="8" r="6" class="c0"/>
<circle cx="416" cy="68" r="6" class="c0"/>
<circle cx="568" cy="894" r="6" class="c0"/>
<circle cx="332" cy="24" r="6" class="c0"/>
<circle cx="568" cy="682" r="6" class="c0"/>
<circle cx="444" cy="362" r="6" class="c0"/>
<circle cx="442" cy="472" r="6" class="c0"/>
<circle cx="258" cy="158" r="6" class="c0"/>
<circle cx="360" cy="164" r="6" class="c0"/>
<circle cx="474" cy="300" r="6" class="c0"/>
<circle cx="270" cy="70" r="6" class="c0"/>
<circle cx="616" cy="292" r="6" class="c0"/>
<circle cx="748" cy="980" r="6" class="c0"/>
<circle cx="430" cy="478" r="6" class="c0"/>
<circle cx="522" cy="492" r="6" class="c0"/>
<circle cx="590" cy="910" r="6" class="c0"/>
<circle cx="674" cy="856" r="6" class="c0"/>
<circle cx="706" cy="844" r="6" class="c0"/>
<circle cx="550" cy="616" r="6" class="c0"/>
<circle cx="426" cy="40" r="6" class="c0"/>
<circle cx="516" cy="810" r="6" class="c0"/>
<circle cx="304" cy="268" r="6" class="c0"/>
<circle cx="472" cy="356" r="6" class="c0"/>
<circle cx="610" cy="558" r="6" class="c0"/>
<circle cx="624" cy="596" r="6" class="c0"/>
<circle cx="304" cy="222" r="6" class="c0"/>
<circle cx="552" cy="98" r="6" class="c0"/>
<circle cx="468" cy="432" r="6" class="c0"/>
<circle cx="626" cy="362" r="6" class="c0"/>
<circle cx="394" cy="272" r="6" class="c0"/>
<circle cx="386" cy="556" r="6" class="c0"/>
<circle cx="660" cy="910" r="6" class="c0"/>
<circle cx="610" cy="76" r="6" class="c0"/>
<circle cx="756" cy="1082" r="6" class="c0"/>
<circle cx="290" cy="118" r="6" class="c0"/>
<circle cx="468" cy="6" r="6" class="c0"/>
<circle cx="646" cy="648" r="6" class="c0"/>
<circle cx="322" cy="364" r="6" class="c0"/>
<circle cx="588" cy="540" r="6" class="c0"/>
<circle cx="556" cy="716" r="6" class="c0"/>
<circle cx="370" cy="200" r="6" class="c0"/>
<circle cx="522" cy="830" r="6" class="c0"/>
<circle cx="526" cy="434" r="6" class="c0"/>
<circle cx="514" cy="568" r="6" class="c0"/>
<circle cx="588" cy="840" r="6" class="c0"/>
<circle cx="512" cy="282" r="6" class="c0"/>
<circle cx="376" cy="466" r="6" class="c0"/>
<circle cx="588" cy="724" r="6" class="c0"/>
<circle cx="552" cy="824" r="6" class="c0"/>
<circle cx="610" cy="36" r="6" class="c0"/>
<circle cx="480" cy="656" r="6" class="c0"/>
<circle cx="510" cy="350" r="6" class="c0"/>
<circle cx="412" cy="42" r="6" class="c0"/>
<circle cx="600" cy="750" r="6" class="c0"/>
<circle cx="424" cy="362" r="6" class="c0"/>
<circle cx="592" cy="638" r="6" class="c0"/>
<circle cx="600" cy="920" r="6" class="c0"/>
<circle cx="618" cy="618" r="6" class="c0"/>
<circle cx="456" cy="626" r="6" class="c0"/>
<circle cx="456" cy="480" r="6" class="c0"/>
<circle cx="396" cy="442" r="6" class="c0"/>
<circle cx="398" cy="568" r="6" class="c0"/>
<circle cx="534" cy="276" r="6" class="c0"/>
<circle cx="422" cy="520" r="6" class="c0"/>
<circle cx="280" cy="228" r="6" class="c0"/>
<circle cx="298" cy="110" r="6" class="c0"/>
<circle cx="588" cy="192" r="6" class="c0"/>
<circle cx="500" cy="384" r="6" class="c0"/>
<circle cx="512" cy="94" r="6" class="c0"/>
<circle cx="550" cy="144" r="6" class="c0"/>
<circle cx="608" cy="6" r="6" class="c0"/>
<circle cx="554" cy="878" r="6" class="c0"/>
<circle cx="536" cy="590" r="6" class="c0"/>
<circle cx="414" cy="238" r="6" class="c0"/>
<circle cx="508" cy="460" r="6" class="c0"/>
<circle cx="522" cy="594" r="6" class="c0"/>
<circle cx="404" cy="602" r="6" class="c0"/>
<circle cx="544" cy="750" r="6" class="c0"/>
<circle cx="448" cy="186" r="6" class="c0"/>
<circle cx="748" cy="1070" r="6" class="c0"/>
<circle cx="620" cy="772" r="6" class="c0"/>
<circle cx="362" cy="268" r="6" class="c0"/>
<circle cx="266" cy="184" r="6" class="c0"/>
<circle cx="380" cy="238" r="6" class="c0"/>
<circle cx="608" cy="878" r="6" class="c0"/>
<circle cx="710" cy="944" r="6" class="c0"/>
<circle cx="558" cy="442" r="6" class="c0"/>
<circle cx="302" cy="300" r="6" class="c0"/>
<circle cx="618" cy="848" r="6" class="c0"/>
<circle cx="402" cy="332" r="6" class="c0"/>
<circle cx="636" cy="458" r="6" class="c0"/>
<circle cx="550" cy="160" r="6" class="c0"/>
<circle cx="588" cy="90" r="6" class="c0"/>
<circle cx="400" cy="398" r="6" class="c0"/>
<circle cx="552" cy="50" r="6" class="c0"/>
<circle cx="282" cy="6" r="6" class="c0"/>
<circle cx="542" cy="518" r="6" class="c0"/>
<circle cx="776" cy="1090" r="6" class="c0"/>
</svg>
