<?xml version="1.0" encoding="utf-8"?>
<svg xmlns="http://www.w3.org/2000/svg"
     xmlns:xlink="http://www.w3.org/1999/xlink" width="1920" height="1440" >

            <defs>
            <style type="text/css"><![CDATA[
circle {stroke: none;}
.c0 {fill: #FFFFFF;}
]]></style>
            </defs>
<rect x="0" y="0" width="1920" height="1440" fill="black"/>
<circle cx="720" cy="194" r="12" class="c0"/>
<circle cx="916" cy="402" r="12" class="c0"/>
<circle cx="632" cy="56" r="12" class="c0"/>
<circle cx="900" cy="330" r="12" class="c0"/>
<circle cx="764" cy="104" r="12" class="c0"/>
<circle cx="726" cy="146" r="12" class="c0"/>
<circle cx="822" cy="196" r="12" class="c0"/>
<circle cx="856" cy="338" r="12" class="c0"/>
<circle cx="650" cy="22" r="10" class="c0"/>
<circle cx="846" cy="176" r="10" class="c0"/>
<circle cx="870" cy="288" r="10" class="c0"/>
<circle cx="658" cy="132" r="10" class="c0"/>
<circle cx="806" cy="142" r="10" class="c0"/>
<circle cx="614" cy="20" r="10" class="c0"/>
<circle cx="802" cy="94" r="10" class="c0"/>
<circle cx="672" cy="68" r="10" class="c0"/>
<circle cx="660" cy="92" r="10" class="c0"/>
<circle cx="696" cy="150" r="10" class="c0"/>
<circle cx="642" cy="78" r="10" class="c0"/>
<circle cx="834" cy="126" r="10" class="c0"/>
<circle cx="860" cy="238" r="10" class="c0"/>
<circle cx="752" cy="250" r="10" class="c0"/>
<circle cx="770" cy="186" r="10" class="c0"/>
<circle cx="828" cy="64" r="10" class="c0"/>
<circle cx="798" cy="210" r="10" class="c0"/>
<circle cx="716" cy="74" r="10" class="c0"/>
<circle cx="824" cy="316" r="10" class="c0"/>
<circle cx="786" cy="152" r="10" class="c0"/>
<circle cx="744" cy="114" r="10" class="c0"/>
<circle cx="950" cy="440" r="10" class="c0"/>
<circle cx="686" cy="94" r="10" class="c0"/>
<circle cx="858" cy="304" r="10" class="c0"/>
<circle cx="774" cy="224" r="10" class="c0"/>
<circle cx="790" cy="126" r="10" class="c0"/>
<circle cx="672" cy="148" r="10" class="c0"/>
<circle cx="804" cy="40" r="10" class="c0"/>
<circle cx="704" cy="36" r="10" class="c0"/>
<circle cx="776" cy="28" r="10" class="c0"/>
<circle cx="880" cy="256" r="10" class="c0"/>
<circle cx="682" cy="20" r="10" class="c0"/>
<circle cx="836" cy="154" r="10" class="c0"/>
<circle cx="856" cy="260" r="10" class="c0"/>
<circle cx="810" cy="254" r="10" class="c0"/>
<circle cx="744" cy="196" r="10" class="c0"/>
<circle cx="834" cy="232" r="10" class="c0"/>
<circle cx="822" cy="166" r="8" class="c0"/>
<circle cx="796" cy="316" r="8" class="c0"/>
<circle cx="788" cy="258" r="8" class="c0"/>
<circle cx="872" cy="390" r="8" class="c0"/>
<circle cx="962" cy="556" r="8" class="c0"/>
<circle cx="894" cy="378" r="8" class="c0"/>
<circle cx="684" cy="40" r="8" class="c0"/>
<circle cx="814" cy="220" r="8" class="c0"/>
<circle cx="822" cy="286" r="8" class="c0"/>
<circle cx="746" cy="156" r="8" class="c0"/>
<circle cx="896" cy="352" r="8" class="c0"/>
<circle cx="826" cy="108" r="8" class="c0"/>
<circle cx="742" cy="70" r="8" class="c0"/>
<circle cx="832" cy="298" r="8" class="c0"/>
<circle cx="750" cy="222" r="8" class="c0"/>
<circle cx="698" cy="112" r="8" class="c0"/>
<circle cx="670" cy="120" r="8" class="c0"/>
<circle cx="894" cy="398" r="8" class="c0"/>
<circle cx="730" cy="100" r="8" class="c0"/>
<circle cx="864" cy="218" r="8" class="c0"/>
<circle cx="826" cy="266" r="8" class="c0"/>
<circle cx="882" cy="340" r="8" class="c0"/>
<circle cx="814" cy="24" r="8" class="c0"/>
<circle cx="796" cy="236" r="8" class="c0"/>
<circle cx="766" cy="78" r="8" class="c0"/>
<circle cx="722" cy="118" r="8" class="c0"/>
<circle cx="894" cy="302" r="8" class="c0"/>
<circle cx="848" cy="202" r="8" class="c0"/>
<circle cx="768" cy="58" r="8" class="c0"/>
<circle cx="748" cy="32" r="8" class="c0"/>
<circle cx="860" cy="372" r="8" class="c0"/>
<circle cx="764" cy="144" r="8" class="c0"/>
<circle cx="726" cy="46" r="8" class="c0"/>
<circle cx="714" cy="216" r="8" class="c0"/>
<circle cx="828" cy="344" r="8" class="c0"/>
<circle cx="774" cy="248" r="8" class="c0"/>
<circle cx="784" cy="296" r="8" class="c0"/>
<circle cx="862" cy="192" r="8" class="c0"/>
<circle cx="708" cy="56" r="8" class="c0"/>
<circle cx="788" cy="60" r="8" class="c0"/>
<circle cx="718" cy="10" r="8" class="c0"/>
<circle cx="770" cy="286" r="8" class="c0"/>
<circle cx="800" cy="274" r="8" class="c0"/>
<circle cx="644" cy="110" r="8" class="c0"/>
<circle cx="844" cy="274" r="8" class="c0"/>
<circle cx="820" cy="82" r="8" class="c0"/>
<circle cx="664" cy="48" r="8" class="c0"/>
<circle cx="784" cy="172" r="8" class="c0"/>
<circle cx="928" cy="424" r="8" class="c0"/>
<circle cx="596" cy="28" r="8" class="c0"/>
<circle cx="738" cy="232" r="8" class="c0"/>
<circle cx="680" cy="130" r="8" class="c0"/>
<circle cx="874" cy="358" r="8" class="c0"/>
<circle cx="592" cy="8" r="8" class="c0"/>
<circle cx="784" cy="82" r="8" class="c0"/>
<circle cx="706" cy="180" r="8" class="c0"/>
<circle cx="836" cy="252" r="8" class="c0"/>
<circle cx="882" cy="320" r="8" class="c0"/>
<circle cx="750" cy="88" r="8" class="c0"/>
<circle cx="808" cy="306" r="8" class="c0"/>
<circle cx="712" cy="162" r="8" class="c0"/>
<circle cx="696" cy="192" r="8" class="c0"/>
<circle cx="782" cy="8" r="8" class="c0"/>
<circle cx="702" cy="130" r="8" class="c0"/>
<circle cx="758" cy="12" r="8" class="c0"/>
<circle cx="626" cy="8" r="8" class="c0"/>
<circle cx="798" cy="70" r="8" class="c0"/>
<circle cx="706" cy="90" r="8" class="c0"/>
<circle cx="632" cy="32" r="8" class="c0"/>
<circle cx="766" cy="266" r="8" class="c0"/>
<circle cx="940" cy="410" r="8" class="c0"/>
<circle cx="756" cy="128" r="8" class="c0"/>
<circle cx="686" cy="172" r="8" class="c0"/>
<circle cx="736" cy="174" r="8" class="c0"/>
<circle cx="790" cy="192" r="8" class="c0"/>
<circle cx="768" cy="162" r="8" class="c0"/>
<circle cx="614" cy="44" r="8" class="c0"/>
<circle cx="744" cy="50" r="8" class="c0"/>
<circle cx="888" cy="274" r="8" class="c0"/>
<circle cx="960" cy="460" r="8" class="c0"/>
<circle cx="840" cy="98" r="8" class="c0"/>
<circle cx="918" cy="364" r="8" class="c0"/>
<circle cx="696" cy="70" r="8" class="c0"/>
<circle cx="756" cy="172" r="8" class="c0"/>
<circle cx="856" cy="160" r="8" class="c0"/>
<circle cx="846" cy="220" r="8" class="c0"/>
<circle cx="806" cy="180" r="8" class="c0"/>
<circle cx="810" cy="330" r="8" class="c0"/>
<circle cx="844" cy="316" r="6" class="c0"/>
<circle cx="696" cy="6" r="6" class="c0"/>
<circle cx="846" cy="354" r="6" class="c0"/>
<circle cx="758" cy="208" r="6" class="c0"/>
<circle cx="802" cy="164" r="6" class="c0"/>
<circle cx="930" cy="384" r="6" class="c0"/>
<circle cx="848" cy="136" r="6" class="c0"/>
<circle cx="620" cy="74" r="6" class="c0"/>
<circle cx="772" cy="130" r="6" class="c0"/>
<circle cx="806" cy="112" r="6" class="c0"/>
<circle cx="796" cy="16" r="6" class="c0"/>
<circle cx="670" cy="6" r="6" class="c0"/>
<circle cx="740" cy="14" r="6" class="c0"/>
<circle cx="802" cy="290" r="6" class="c0"/>
<circle cx="764" cy="42" r="6" class="c0"/>
<circle cx="878" cy="304" r="6" class="c0"/>
<circle cx="912" cy="380" r="6" class="c0"/>
<circle cx="736" cy="214" r="6" class="c0"/>
<circle cx="816" cy="128" r="6" class="c0"/>
<circle cx="780" cy="276" r="6" class="c0"/>
<circle cx="784" cy="100" r="6" class="c0"/>
<circle cx="634" cy="94" r="6" class="c0"/>
<circle cx="734" cy="84" r="6" class="c0"/>
<circle cx="878" cy="374" r="6" class="c0"/>
<circle cx="808" cy="58" r="6" class="c0"/>
<circle cx="724" cy="28" r="6" class="c0"/>
<circle cx="648" cy="46" r="6" class="c0"/>
<circle cx="844" cy="368" r="6" class="c0"/>
<circle cx="912" cy="422" r="6" class="c0"/>
<circle cx="812" cy="6" r="6" class="c0"/>
<circle cx="772" cy="206" r="6" class="c0"/>
<circle cx="826" cy="46" r="6" class="c0"/>
<circle cx="760" cy="234" r="6" class="c0"/>
<circle cx="654" cy="58" r="6" class="c0"/>
<circle cx="672" cy="104" r="6" class="c0"/>
<circle cx="832" cy="212" r="6" class="c0"/>
<circle cx="914" cy="348" r="6" class="c0"/>
<circle cx="846" cy="114" r="6" class="c0"/>
<circle cx="734" cy="128" r="6" class="c0"/>
<circle cx="778" cy="48" r="6" class="c0"/>
<circle cx="836" cy="80" r="6" class="c0"/>
<circle cx="964" cy="478" r="6" class="c0"/>
<circle cx="686" cy="56" r="6" class="c0"/>
<circle cx="866" cy="322" r="6" class="c0"/>
<circle cx="848" cy="290" r="6" class="c0"/>
<circle cx="670" cy="32" r="6" class="c0"/>
<circle cx="702" cy="18" r="6" class="c0"/>
<circle cx="878" cy="234" r="6" class="c0"/>
<circle cx="838" cy="330" r="6" class="c0"/>
<circle cx="792" cy="108" r="6" class="c0"/>
<circle cx="746" cy="138" r="6" class="c0"/>
<circle cx="904" cy="388" r="6" class="c0"/>
<circle cx="714" cy="104" r="6" class="c0"/>
<circle cx="612" cy="62" r="6" class="c0"/>
<circle cx="722" cy="230" r="6" class="c0"/>
<circle cx="626" cy="86" r="6" class="c0"/>
<circle cx="824" cy="140" r="6" class="c0"/>
<circle cx="642" cy="6" r="6" class="c0"/>
<circle cx="902" cy="414" r="6" class="c0"/>
<circle cx="704" cy="206" r="6" class="c0"/>
<circle cx="728" cy="62" r="6" class="c0"/>
<circle cx="816" cy="236" r="6" class="c0"/>
</svg>
