<?xml version="1.0" encoding="utf-8"?>
<svg xmlns="http://www.w3.org/2000/svg"
     xmlns:xlink="http://www.w3.org/1999/xlink" width="1920" height="1440" >

            <defs>
            <style type="text/css"><![CDATA[
circle {stroke: none;}
.c0 {fill: #FFFFFF;}
]]></style>
            </defs>
<rect x="0" y="0" width="1920" height="1440" fill="black"/>
<circle cx="916" cy="156" r="12" class="c0"/>
<circle cx="968" cy="1034" r="12" class="c0"/>
<circle cx="812" cy="40" r="12" class="c0"/>
<circle cx="864" cy="58" r="12" class="c0"/>
<circle cx="884" cy="142" r="12" class="c0"/>
<circle cx="854" cy="122" r="12" class="c0"/>
<circle cx="902" cy="106" r="10" class="c0"/>
<circle cx="840" cy="52" r="10" class="c0"/>
<circle cx="840" cy="94" r="10" class="c0"/>
<circle cx="788" cy="14" r="10" class="c0"/>
<circle cx="938" cy="182" r="10" class="c0"/>
<circle cx="876" cy="28" r="10" class="c0"/>
<circle cx="878" cy="86" r="10" class="c0"/>
<circle cx="766" cy="10" r="10" class="c0"/>
<circle cx="894" cy="74" r="10" class="c0"/>
<circle cx="818" cy="72" r="10" class="c0"/>
<circle cx="962" cy="202" r="8" class="c0"/>
<circle cx="916" cy="118" r="8" class="c0"/>
<circle cx="740" cy="10" r="8" class="c0"/>
<circle cx="814" cy="16" r="8" class="c0"/>
<circle cx="830" cy="110" r="8" class="c0"/>
<circle cx="836" cy="16" r="8" class="c0"/>
<circle cx="772" cy="52" r="8" class="c0"/>
<circle cx="790" cy="38" r="8" class="c0"/>
<circle cx="876" cy="110" r="8" class="c0"/>
<circle cx="854" cy="32" r="8" class="c0"/>
<circle cx="858" cy="8" r="8" class="c0"/>
<circle cx="886" cy="48" r="8" class="c0"/>
<circle cx="770" cy="34" r="8" class="c0"/>
<circle cx="898" cy="126" r="8" class="c0"/>
<circle cx="782" cy="66" r="8" class="c0"/>
<circle cx="912" cy="178" r="8" class="c0"/>
<circle cx="898" cy="168" r="8" class="c0"/>
<circle cx="818" cy="94" r="8" class="c0"/>
<circle cx="754" cy="22" r="8" class="c0"/>
<circle cx="862" cy="98" r="8" class="c0"/>
<circle cx="848" cy="76" r="8" class="c0"/>
<circle cx="800" cy="56" r="8" class="c0"/>
<circle cx="952" cy="1052" r="8" class="c0"/>
<circle cx="802" cy="82" r="8" class="c0"/>
<circle cx="826" cy="26" r="8" class="c0"/>
<circle cx="924" cy="136" r="8" class="c0"/>
<circle cx="880" cy="8" r="8" class="c0"/>
<circle cx="906" cy="86" r="8" class="c0"/>
<circle cx="862" cy="144" r="8" class="c0"/>
<circle cx="874" cy="126" r="6" class="c0"/>
<circle cx="936" cy="160" r="6" class="c0"/>
<circle cx="946" cy="1036" r="6" class="c0"/>
<circle cx="972" cy="1054" r="6" class="c0"/>
<circle cx="824" cy="6" r="6" class="c0"/>
<circle cx="908" cy="138" r="6" class="c0"/>
<circle cx="952" cy="192" r="6" class="c0"/>
<circle cx="804" cy="6" r="6" class="c0"/>
<circle cx="800" cy="26" r="6" class="c0"/>
<circle cx="944" cy="202" r="6" class="c0"/>
<circle cx="922" cy="190" r="6" class="c0"/>
</svg>
