<?xml version="1.0" encoding="utf-8"?>
<svg xmlns="http://www.w3.org/2000/svg"
     xmlns:xlink="http://www.w3.org/1999/xlink" width="1920" height="1440" >

            <defs>
            <style type="text/css"><![CDATA[
circle {stroke: none;}
.c0 {fill: #FFFFFF;}
]]></style>
            </defs>
<rect x="0" y="0" width="1920" height="1440" fill="black"/>
<circle cx="1328" cy="658" r="14" class="c0"/>
<circle cx="1016" cy="580" r="12" class="c0"/>
<circle cx="972" cy="392" r="12" class="c0"/>
<circle cx="1036" cy="672" r="12" class="c0"/>
<circle cx="1180" cy="658" r="12" class="c0"/>
<circle cx="1044" cy="448" r="12" class="c0"/>
<circle cx="886" cy="352" r="12" class="c0"/>
<circle cx="1056" cy="718" r="12" class="c0"/>
<circle cx="1278" cy="616" r="12" class="c0"/>
<circle cx="1106" cy="430" r="12" class="c0"/>
<circle cx="916" cy="644" r="12" class="c0"/>
<circle cx="1144" cy="596" r="12" class="c0"/>
<circle cx="954" cy="418" r="12" class="c0"/>
<circle cx="920" cy="420" r="12" class="c0"/>
<circle cx="636" cy="618" r="12" class="c0"/>
<circle cx="990" cy="440" r="12" class="c0"/>
<circle cx="1232" cy="680" r="12" class="c0"/>
<circle cx="1034" cy="622" r="12" class="c0"/>
<circle cx="990" cy="600" r="12" class="c0"/>
<circle cx="1200" cy="632" r="12" class="c0"/>
<circle cx="928" cy="318" r="12" class="c0"/>
<circle cx="1084" cy="504" r="10" class="c0"/>
<circle cx="1358" cy="624" r="10" class="c0"/>
<circle cx="1334" cy="626" r="10" class="c0"/>
<circle cx="1100" cy="454" r="10" class="c0"/>
<circle cx="1002" cy="412" r="10" class="c0"/>
<circle cx="1068" cy="456" r="10" class="c0"/>
<circle cx="932" cy="348" r="10" class="c0"/>
<circle cx="1016" cy="384" r="10" class="c0"/>
<circle cx="1046" cy="414" r="10" class="c0"/>
<circle cx="1386" cy="622" r="10" class="c0"/>
<circle cx="886" cy="380" r="10" class="c0"/>
<circle cx="716" cy="636" r="10" class="c0"/>
<circle cx="1082" cy="612" r="10" class="c0"/>
<circle cx="1042" cy="648" r="10" class="c0"/>
<circle cx="860" cy="348" r="10" class="c0"/>
<circle cx="952" cy="616" r="10" class="c0"/>
<circle cx="1298" cy="652" r="10" class="c0"/>
<circle cx="1226" cy="622" r="10" class="c0"/>
<circle cx="890" cy="440" r="10" class="c0"/>
<circle cx="1080" cy="434" r="10" class="c0"/>
<circle cx="1004" cy="310" r="10" class="c0"/>
<circle cx="608" cy="618" r="10" class="c0"/>
<circle cx="984" cy="300" r="10" class="c0"/>
<circle cx="1120" cy="652" r="10" class="c0"/>
<circle cx="1048" cy="600" r="10" class="c0"/>
<circle cx="1364" cy="680" r="10" class="c0"/>
<circle cx="860" cy="636" r="10" class="c0"/>
<circle cx="1060" cy="526" r="10" class="c0"/>
<circle cx="942" cy="526" r="10" class="c0"/>
<circle cx="976" cy="524" r="10" class="c0"/>
<circle cx="1004" cy="642" r="10" class="c0"/>
<circle cx="1066" cy="402" r="10" class="c0"/>
<circle cx="756" cy="638" r="10" class="c0"/>
<circle cx="1016" cy="514" r="10" class="c0"/>
<circle cx="1156" cy="662" r="10" class="c0"/>
<circle cx="1016" cy="540" r="10" class="c0"/>
<circle cx="1346" cy="704" r="10" class="c0"/>
<circle cx="970" cy="454" r="10" class="c0"/>
<circle cx="1392" cy="650" r="10" class="c0"/>
<circle cx="1252" cy="662" r="10" class="c0"/>
<circle cx="948" cy="658" r="10" class="c0"/>
<circle cx="996" cy="366" r="10" class="c0"/>
<circle cx="998" cy="480" r="10" class="c0"/>
<circle cx="1272" cy="642" r="10" class="c0"/>
<circle cx="1184" cy="608" r="10" class="c0"/>
<circle cx="1118" cy="624" r="10" class="c0"/>
<circle cx="992" cy="510" r="10" class="c0"/>
<circle cx="1306" cy="594" r="10" class="c0"/>
<circle cx="678" cy="624" r="10" class="c0"/>
<circle cx="986" cy="668" r="10" class="c0"/>
<circle cx="1390" cy="700" r="10" class="c0"/>
<circle cx="902" cy="602" r="10" class="c0"/>
<circle cx="1436" cy="666" r="10" class="c0"/>
<circle cx="962" cy="634" r="10" class="c0"/>
<circle cx="830" cy="352" r="10" class="c0"/>
<circle cx="820" cy="636" r="10" class="c0"/>
<circle cx="1266" cy="702" r="10" class="c0"/>
<circle cx="970" cy="490" r="10" class="c0"/>
<circle cx="926" cy="620" r="10" class="c0"/>
<circle cx="1144" cy="562" r="10" class="c0"/>
<circle cx="924" cy="388" r="10" class="c0"/>
<circle cx="1018" cy="428" r="10" class="c0"/>
<circle cx="586" cy="620" r="10" class="c0"/>
<circle cx="1038" cy="566" r="10" class="c0"/>
<circle cx="1020" cy="606" r="10" class="c0"/>
<circle cx="1300" cy="704" r="10" class="c0"/>
<circle cx="1212" cy="670" r="10" class="c0"/>
<circle cx="892" cy="642" r="10" class="c0"/>
<circle cx="948" cy="494" r="10" class="c0"/>
<circle cx="952" cy="316" r="10" class="c0"/>
<circle cx="1056" cy="634" r="10" class="c0"/>
<circle cx="1076" cy="584" r="10" class="c0"/>
<circle cx="1382" cy="594" r="10" class="c0"/>
<circle cx="994" cy="548" r="10" class="c0"/>
<circle cx="958" cy="676" r="10" class="c0"/>
<circle cx="1278" cy="674" r="10" class="c0"/>
<circle cx="1424" cy="684" r="10" class="c0"/>
<circle cx="1370" cy="712" r="10" class="c0"/>
<circle cx="1022" cy="492" r="10" class="c0"/>
<circle cx="910" cy="370" r="10" class="c0"/>
<circle cx="1080" cy="692" r="10" class="c0"/>
<circle cx="1048" cy="382" r="10" class="c0"/>
<circle cx="962" cy="362" r="10" class="c0"/>
<circle cx="866" cy="376" r="8" class="c0"/>
<circle cx="1078" cy="550" r="8" class="c0"/>
<circle cx="1096" cy="542" r="8" class="c0"/>
<circle cx="850" cy="366" r="8" class="c0"/>
<circle cx="1308" cy="686" r="8" class="c0"/>
<circle cx="1168" cy="620" r="8" class="c0"/>
<circle cx="1168" cy="682" r="8" class="c0"/>
<circle cx="954" cy="380" r="8" class="c0"/>
<circle cx="1414" cy="700" r="8" class="c0"/>
<circle cx="566" cy="618" r="8" class="c0"/>
<circle cx="1098" cy="518" r="8" class="c0"/>
<circle cx="970" cy="590" r="8" class="c0"/>
<circle cx="1140" cy="618" r="8" class="c0"/>
<circle cx="950" cy="474" r="8" class="c0"/>
<circle cx="658" cy="630" r="8" class="c0"/>
<circle cx="1382" cy="666" r="8" class="c0"/>
<circle cx="690" cy="644" r="8" class="c0"/>
<circle cx="1368" cy="608" r="8" class="c0"/>
<circle cx="1056" cy="332" r="8" class="c0"/>
<circle cx="1308" cy="614" r="8" class="c0"/>
<circle cx="1246" cy="598" r="8" class="c0"/>
<circle cx="918" cy="576" r="8" class="c0"/>
<circle cx="1106" cy="602" r="8" class="c0"/>
<circle cx="642" cy="640" r="8" class="c0"/>
<circle cx="1194" cy="588" r="8" class="c0"/>
<circle cx="1084" cy="642" r="8" class="c0"/>
<circle cx="968" cy="656" r="8" class="c0"/>
<circle cx="990" cy="326" r="8" class="c0"/>
<circle cx="1226" cy="652" r="8" class="c0"/>
<circle cx="796" cy="630" r="8" class="c0"/>
<circle cx="1344" cy="600" r="8" class="c0"/>
<circle cx="1318" cy="716" r="8" class="c0"/>
<circle cx="858" cy="318" r="8" class="c0"/>
<circle cx="908" cy="348" r="8" class="c0"/>
<circle cx="1136" cy="638" r="8" class="c0"/>
<circle cx="1200" cy="682" r="8" class="c0"/>
<circle cx="984" cy="346" r="8" class="c0"/>
<circle cx="970" cy="432" r="8" class="c0"/>
<circle cx="1054" cy="576" r="8" class="c0"/>
<circle cx="1362" cy="654" r="8" class="c0"/>
<circle cx="1236" cy="640" r="8" class="c0"/>
<circle cx="1086" cy="716" r="8" class="c0"/>
<circle cx="1036" cy="516" r="8" class="c0"/>
<circle cx="1408" cy="628" r="8" class="c0"/>
<circle cx="1250" cy="618" r="8" class="c0"/>
<circle cx="1216" cy="602" r="8" class="c0"/>
<circle cx="934" cy="678" r="8" class="c0"/>
<circle cx="1044" cy="734" r="8" class="c0"/>
<circle cx="962" cy="296" r="8" class="c0"/>
<circle cx="1042" cy="696" r="8" class="c0"/>
<circle cx="944" cy="392" r="8" class="c0"/>
<circle cx="1108" cy="552" r="8" class="c0"/>
<circle cx="698" cy="626" r="8" class="c0"/>
<circle cx="1052" cy="550" r="8" class="c0"/>
<circle cx="914" cy="442" r="8" class="c0"/>
<circle cx="1240" cy="702" r="8" class="c0"/>
<circle cx="1000" cy="458" r="8" class="c0"/>
<circle cx="1336" cy="680" r="8" class="c0"/>
<circle cx="778" cy="634" r="8" class="c0"/>
<circle cx="1016" cy="450" r="8" class="c0"/>
<circle cx="932" cy="556" r="8" class="c0"/>
<circle cx="1090" cy="572" r="8" class="c0"/>
<circle cx="922" cy="470" r="8" class="c0"/>
<circle cx="1086" cy="670" r="8" class="c0"/>
<circle cx="964" cy="336" r="8" class="c0"/>
<circle cx="1314" cy="634" r="8" class="c0"/>
<circle cx="974" cy="616" r="8" class="c0"/>
<circle cx="984" cy="638" r="8" class="c0"/>
<circle cx="1276" cy="592" r="8" class="c0"/>
<circle cx="1162" cy="638" r="8" class="c0"/>
<circle cx="1026" cy="466" r="8" class="c0"/>
<circle cx="1414" cy="664" r="8" class="c0"/>
<circle cx="1006" cy="622" r="8" class="c0"/>
<circle cx="1032" cy="316" r="8" class="c0"/>
<circle cx="1432" cy="644" r="8" class="c0"/>
<circle cx="1010" cy="678" r="8" class="c0"/>
<circle cx="622" cy="634" r="8" class="c0"/>
<circle cx="984" cy="574" r="8" class="c0"/>
<circle cx="940" cy="632" r="8" class="c0"/>
<circle cx="1120" cy="456" r="8" class="c0"/>
<circle cx="744" cy="624" r="8" class="c0"/>
<circle cx="1032" cy="398" r="8" class="c0"/>
<circle cx="1164" cy="582" r="8" class="c0"/>
<circle cx="1066" cy="670" r="8" class="c0"/>
<circle cx="1258" cy="682" r="8" class="c0"/>
<circle cx="1068" cy="562" r="8" class="c0"/>
<circle cx="758" cy="664" r="8" class="c0"/>
<circle cx="1338" cy="728" r="8" class="c0"/>
<circle cx="1096" cy="626" r="8" class="c0"/>
<circle cx="888" cy="616" r="8" class="c0"/>
<circle cx="1058" cy="688" r="8" class="c0"/>
<circle cx="848" cy="328" r="8" class="c0"/>
<circle cx="926" cy="504" r="8" class="c0"/>
<circle cx="1346" cy="640" r="8" class="c0"/>
<circle cx="1296" cy="626" r="8" class="c0"/>
<circle cx="1096" cy="656" r="8" class="c0"/>
<circle cx="1144" cy="674" r="8" class="c0"/>
<circle cx="728" cy="654" r="8" class="c0"/>
<circle cx="918" cy="670" r="8" class="c0"/>
<circle cx="902" cy="452" r="8" class="c0"/>
<circle cx="1326" cy="598" r="8" class="c0"/>
<circle cx="1354" cy="590" r="8" class="c0"/>
<circle cx="1374" cy="636" r="8" class="c0"/>
<circle cx="832" cy="320" r="8" class="c0"/>
<circle cx="972" cy="314" r="8" class="c0"/>
<circle cx="976" cy="414" r="8" class="c0"/>
<circle cx="1206" cy="568" r="8" class="c0"/>
<circle cx="986" cy="468" r="8" class="c0"/>
<circle cx="1124" cy="568" r="8" class="c0"/>
<circle cx="1038" cy="540" r="8" class="c0"/>
<circle cx="552" cy="606" r="8" class="c0"/>
<circle cx="994" cy="386" r="8" class="c0"/>
<circle cx="934" cy="482" r="8" class="c0"/>
<circle cx="1402" cy="682" r="8" class="c0"/>
<circle cx="1212" cy="698" r="8" class="c0"/>
<circle cx="840" cy="634" r="8" class="c0"/>
<circle cx="938" cy="372" r="8" class="c0"/>
<circle cx="1356" cy="724" r="8" class="c0"/>
<circle cx="1066" cy="650" r="8" class="c0"/>
<circle cx="1018" cy="662" r="8" class="c0"/>
<circle cx="784" cy="676" r="8" class="c0"/>
<circle cx="1324" cy="694" r="8" class="c0"/>
<circle cx="1172" cy="566" r="8" class="c0"/>
<circle cx="1002" cy="528" r="8" class="c0"/>
<circle cx="1082" cy="530" r="8" class="c0"/>
<circle cx="1126" cy="606" r="8" class="c0"/>
<circle cx="910" cy="328" r="8" class="c0"/>
<circle cx="944" cy="546" r="8" class="c0"/>
<circle cx="1288" cy="690" r="8" class="c0"/>
<circle cx="1186" cy="692" r="8" class="c0"/>
<circle cx="958" cy="442" r="8" class="c0"/>
<circle cx="1062" cy="614" r="8" class="c0"/>
<circle cx="1058" cy="434" r="8" class="c0"/>
<circle cx="1436" cy="696" r="8" class="c0"/>
<circle cx="940" cy="302" r="8" class="c0"/>
<circle cx="876" cy="626" r="8" class="c0"/>
<circle cx="1352" cy="668" r="8" class="c0"/>
<circle cx="1082" cy="412" r="8" class="c0"/>
<circle cx="906" cy="626" r="8" class="c0"/>
<circle cx="1004" cy="564" r="8" class="c0"/>
<circle cx="1112" cy="674" r="8" class="c0"/>
<circle cx="1134" cy="664" r="8" class="c0"/>
<circle cx="1056" cy="660" r="8" class="c0"/>
<circle cx="1166" cy="600" r="8" class="c0"/>
<circle cx="1076" cy="728" r="8" class="c0"/>
<circle cx="934" cy="406" r="8" class="c0"/>
<circle cx="964" cy="510" r="8" class="c0"/>
<circle cx="870" cy="332" r="8" class="c0"/>
<circle cx="1022" cy="408" r="8" class="c0"/>
<circle cx="944" cy="336" r="8" class="c0"/>
<circle cx="1108" cy="640" r="8" class="c0"/>
<circle cx="1180" cy="630" r="6" class="c0"/>
<circle cx="948" cy="458" r="6" class="c0"/>
<circle cx="1100" cy="586" r="6" class="c0"/>
<circle cx="1018" cy="632" r="6" class="c0"/>
<circle cx="662" cy="614" r="6" class="c0"/>
<circle cx="902" cy="390" r="6" class="c0"/>
<circle cx="1386" cy="720" r="6" class="c0"/>
<circle cx="1090" cy="594" r="6" class="c0"/>
<circle cx="1294" cy="606" r="6" class="c0"/>
<circle cx="1202" cy="612" r="6" class="c0"/>
<circle cx="1036" cy="584" r="6" class="c0"/>
<circle cx="576" cy="602" r="6" class="c0"/>
<circle cx="1210" cy="648" r="6" class="c0"/>
<circle cx="1098" cy="494" r="6" class="c0"/>
<circle cx="1260" cy="628" r="6" class="c0"/>
<circle cx="1178" cy="590" r="6" class="c0"/>
<circle cx="1030" cy="372" r="6" class="c0"/>
<circle cx="1298" cy="676" r="6" class="c0"/>
<circle cx="728" cy="620" r="6" class="c0"/>
<circle cx="1146" cy="648" r="6" class="c0"/>
<circle cx="1066" cy="598" r="6" class="c0"/>
<circle cx="1020" cy="558" r="6" class="c0"/>
<circle cx="1410" cy="648" r="6" class="c0"/>
<circle cx="986" cy="404" r="6" class="c0"/>
<circle cx="1370" cy="736" r="6" class="c0"/>
<circle cx="734" cy="634" r="6" class="c0"/>
<circle cx="966" cy="472" r="6" class="c0"/>
<circle cx="632" cy="650" r="6" class="c0"/>
<circle cx="744" cy="650" r="6" class="c0"/>
<circle cx="1260" cy="606" r="6" class="c0"/>
<circle cx="900" cy="426" r="6" class="c0"/>
<circle cx="1074" cy="628" r="6" class="c0"/>
<circle cx="1400" cy="714" r="6" class="c0"/>
<circle cx="928" cy="658" r="6" class="c0"/>
<circle cx="960" cy="600" r="6" class="c0"/>
<circle cx="1052" cy="466" r="6" class="c0"/>
<circle cx="1002" cy="660" r="6" class="c0"/>
<circle cx="1066" cy="702" r="6" class="c0"/>
<circle cx="1308" cy="666" r="6" class="c0"/>
<circle cx="1156" cy="610" r="6" class="c0"/>
<circle cx="1076" cy="660" r="6" class="c0"/>
<circle cx="596" cy="606" r="6" class="c0"/>
<circle cx="1382" cy="684" r="6" class="c0"/>
<circle cx="1068" cy="422" r="6" class="c0"/>
<circle cx="1082" cy="466" r="6" class="c0"/>
<circle cx="712" cy="618" r="6" class="c0"/>
<circle cx="1116" cy="592" r="6" class="c0"/>
<circle cx="1190" cy="564" r="6" class="c0"/>
<circle cx="978" cy="372" r="6" class="c0"/>
<circle cx="1026" cy="640" r="6" class="c0"/>
<circle cx="1236" cy="608" r="6" class="c0"/>
<circle cx="1252" cy="642" r="6" class="c0"/>
<circle cx="766" cy="622" r="6" class="c0"/>
<circle cx="1124" cy="440" r="6" class="c0"/>
<circle cx="1066" cy="508" r="6" class="c0"/>
<circle cx="874" cy="646" r="6" class="c0"/>
<circle cx="1200" cy="656" r="6" class="c0"/>
<circle cx="954" cy="346" r="6" class="c0"/>
<circle cx="768" cy="674" r="6" class="c0"/>
<circle cx="1022" cy="306" r="6" class="c0"/>
<circle cx="670" cy="640" r="6" class="c0"/>
<circle cx="1004" cy="498" r="6" class="c0"/>
<circle cx="916" cy="592" r="6" class="c0"/>
<circle cx="1010" cy="468" r="6" class="c0"/>
<circle cx="910" cy="400" r="6" class="c0"/>
<circle cx="1152" cy="628" r="6" class="c0"/>
<circle cx="896" cy="336" r="6" class="c0"/>
<circle cx="1036" cy="430" r="6" class="c0"/>
<circle cx="1282" cy="710" r="6" class="c0"/>
</svg>
