<?xml version="1.0" encoding="utf-8"?>
<svg xmlns="http://www.w3.org/2000/svg"
     xmlns:xlink="http://www.w3.org/1999/xlink" width="1920" height="1440" >

            <defs>
            <style type="text/css"><![CDATA[
circle {stroke: none;}
.c0 {fill: #FFFFFF;}
]]></style>
            </defs>
<rect x="0" y="0" width="1920" height="1440" fill="black"/>
<circle cx="920" cy="902" r="12" class="c0"/>
<circle cx="932" cy="870" r="12" class="c0"/>
<circle cx="988" cy="872" r="12" class="c0"/>
<circle cx="952" cy="854" r="12" class="c0"/>
<circle cx="902" cy="860" r="12" class="c0"/>
<circle cx="954" cy="804" r="10" class="c0"/>
<circle cx="898" cy="800" r="10" class="c0"/>
<circle cx="966" cy="880" r="10" class="c0"/>
<circle cx="1004" cy="886" r="10" class="c0"/>
<circle cx="888" cy="912" r="10" class="c0"/>
<circle cx="934" cy="792" r="10" class="c0"/>
<circle cx="1010" cy="912" r="10" class="c0"/>
<circle cx="940" cy="922" r="10" class="c0"/>
<circle cx="982" cy="818" r="10" class="c0"/>
<circle cx="980" cy="846" r="10" class="c0"/>
<circle cx="1004" cy="814" r="10" class="c0"/>
<circle cx="974" cy="784" r="10" class="c0"/>
<circle cx="1018" cy="834" r="10" class="c0"/>
<circle cx="888" cy="876" r="8" class="c0"/>
<circle cx="870" cy="830" r="8" class="c0"/>
<circle cx="960" cy="930" r="8" class="c0"/>
<circle cx="894" cy="822" r="8" class="c0"/>
<circle cx="1004" cy="850" r="8" class="c0"/>
<circle cx="880" cy="840" r="8" class="c0"/>
<circle cx="928" cy="826" r="8" class="c0"/>
<circle cx="918" cy="808" r="8" class="c0"/>
<circle cx="870" cy="870" r="8" class="c0"/>
<circle cx="1022" cy="870" r="8" class="c0"/>
<circle cx="966" cy="834" r="8" class="c0"/>
<circle cx="916" cy="926" r="8" class="c0"/>
<circle cx="916" cy="782" r="8" class="c0"/>
<circle cx="986" cy="896" r="8" class="c0"/>
<circle cx="874" cy="900" r="8" class="c0"/>
<circle cx="914" cy="836" r="8" class="c0"/>
<circle cx="896" cy="892" r="8" class="c0"/>
<circle cx="926" cy="848" r="8" class="c0"/>
<circle cx="986" cy="918" r="8" class="c0"/>
<circle cx="966" cy="902" r="8" class="c0"/>
<circle cx="952" cy="782" r="8" class="c0"/>
<circle cx="1032" cy="846" r="8" class="c0"/>
<circle cx="866" cy="852" r="8" class="c0"/>
<circle cx="914" cy="880" r="8" class="c0"/>
<circle cx="994" cy="834" r="6" class="c0"/>
<circle cx="1024" cy="896" r="6" class="c0"/>
<circle cx="876" cy="810" r="6" class="c0"/>
<circle cx="936" cy="890" r="6" class="c0"/>
<circle cx="942" cy="770" r="6" class="c0"/>
<circle cx="946" cy="882" r="6" class="c0"/>
<circle cx="992" cy="798" r="6" class="c0"/>
<circle cx="938" cy="836" r="6" class="c0"/>
<circle cx="948" cy="906" r="6" class="c0"/>
<circle cx="880" cy="860" r="6" class="c0"/>
<circle cx="936" cy="812" r="6" class="c0"/>
<circle cx="948" cy="828" r="6" class="c0"/>
<circle cx="866" cy="886" r="6" class="c0"/>
<circle cx="880" cy="794" r="6" class="c0"/>
<circle cx="976" cy="928" r="6" class="c0"/>
<circle cx="858" cy="820" r="6" class="c0"/>
<circle cx="896" cy="778" r="6" class="c0"/>
<circle cx="906" cy="914" r="6" class="c0"/>
<circle cx="972" cy="862" r="6" class="c0"/>
<circle cx="924" cy="766" r="6" class="c0"/>
<circle cx="954" cy="892" r="6" class="c0"/>
<circle cx="898" cy="840" r="6" class="c0"/>
<circle cx="1022" cy="816" r="6" class="c0"/>
<circle cx="1000" cy="786" r="6" class="c0"/>
<circle cx="1036" cy="862" r="6" class="c0"/>
<circle cx="956" cy="914" r="6" class="c0"/>
<circle cx="972" cy="802" r="6" class="c0"/>
</svg>
