<?xml version="1.0" encoding="utf-8"?>
<svg xmlns="http://www.w3.org/2000/svg"
     xmlns:xlink="http://www.w3.org/1999/xlink" width="1920" height="1440" >

            <defs>
            <style type="text/css"><![CDATA[
circle {stroke: none;}
.c0 {fill: #FFFFFF;}
]]></style>
            </defs>
<rect x="0" y="0" width="1920" height="1440" fill="black"/>
<circle cx="938" cy="826" r="12" class="c0"/>
<circle cx="888" cy="830" r="12" class="c0"/>
<circle cx="966" cy="918" r="12" class="c0"/>
<circle cx="914" cy="908" r="12" class="c0"/>
<circle cx="1026" cy="900" r="10" class="c0"/>
<circle cx="976" cy="850" r="10" class="c0"/>
<circle cx="880" cy="902" r="10" class="c0"/>
<circle cx="1012" cy="922" r="10" class="c0"/>
<circle cx="908" cy="878" r="10" class="c0"/>
<circle cx="888" cy="864" r="10" class="c0"/>
<circle cx="1030" cy="848" r="10" class="c0"/>
<circle cx="990" cy="822" r="10" class="c0"/>
<circle cx="968" cy="812" r="10" class="c0"/>
<circle cx="1016" cy="880" r="10" class="c0"/>
<circle cx="988" cy="934" r="10" class="c0"/>
<circle cx="924" cy="930" r="10" class="c0"/>
<circle cx="964" cy="836" r="10" class="c0"/>
<circle cx="902" cy="928" r="10" class="c0"/>
<circle cx="872" cy="852" r="10" class="c0"/>
<circle cx="914" cy="824" r="8" class="c0"/>
<circle cx="1004" cy="850" r="8" class="c0"/>
<circle cx="944" cy="924" r="8" class="c0"/>
<circle cx="934" cy="882" r="8" class="c0"/>
<circle cx="952" cy="858" r="8" class="c0"/>
<circle cx="1002" cy="902" r="8" class="c0"/>
<circle cx="972" cy="884" r="8" class="c0"/>
<circle cx="948" cy="898" r="8" class="c0"/>
<circle cx="982" cy="896" r="8" class="c0"/>
<circle cx="920" cy="850" r="8" class="c0"/>
<circle cx="1006" cy="812" r="8" class="c0"/>
<circle cx="942" cy="804" r="8" class="c0"/>
<circle cx="932" cy="862" r="8" class="c0"/>
<circle cx="1020" cy="832" r="8" class="c0"/>
<circle cx="962" cy="868" r="8" class="c0"/>
<circle cx="992" cy="862" r="8" class="c0"/>
<circle cx="1034" cy="872" r="8" class="c0"/>
<circle cx="1052" cy="842" r="8" class="c0"/>
<circle cx="902" cy="848" r="8" class="c0"/>
<circle cx="900" cy="812" r="8" class="c0"/>
<circle cx="890" cy="886" r="8" class="c0"/>
<circle cx="1040" cy="832" r="8" class="c0"/>
<circle cx="956" cy="940" r="8" class="c0"/>
<circle cx="992" cy="886" r="8" class="c0"/>
<circle cx="990" cy="914" r="8" class="c0"/>
<circle cx="934" cy="906" r="6" class="c0"/>
<circle cx="994" cy="840" r="6" class="c0"/>
<circle cx="926" cy="812" r="6" class="c0"/>
<circle cx="936" cy="846" r="6" class="c0"/>
<circle cx="938" cy="940" r="6" class="c0"/>
<circle cx="952" cy="882" r="6" class="c0"/>
<circle cx="1030" cy="918" r="6" class="c0"/>
<circle cx="1020" cy="862" r="6" class="c0"/>
<circle cx="1036" cy="814" r="6" class="c0"/>
<circle cx="884" cy="924" r="6" class="c0"/>
<circle cx="972" cy="942" r="6" class="c0"/>
<circle cx="978" cy="796" r="6" class="c0"/>
<circle cx="892" cy="914" r="6" class="c0"/>
<circle cx="868" cy="832" r="6" class="c0"/>
<circle cx="900" cy="896" r="6" class="c0"/>
<circle cx="1044" cy="858" r="6" class="c0"/>
<circle cx="876" cy="878" r="6" class="c0"/>
<circle cx="924" cy="892" r="6" class="c0"/>
</svg>
