<?xml version="1.0" encoding="utf-8"?>
<svg xmlns="http://www.w3.org/2000/svg"
     xmlns:xlink="http://www.w3.org/1999/xlink" width="1920" height="1440" >

            <defs>
            <style type="text/css"><![CDATA[
circle {stroke: none;}
.c0 {fill: #FFFFFF;}
]]></style>
            </defs>
<rect x="0" y="0" width="1920" height="1440" fill="black"/>
<circle cx="1002" cy="804" r="12" class="c0"/>
<circle cx="1042" cy="902" r="12" class="c0"/>
<circle cx="896" cy="884" r="12" class="c0"/>
<circle cx="904" cy="930" r="12" class="c0"/>
<circle cx="956" cy="818" r="12" class="c0"/>
<circle cx="970" cy="910" r="12" class="c0"/>
<circle cx="1026" cy="844" r="12" class="c0"/>
<circle cx="994" cy="852" r="12" class="c0"/>
<circle cx="902" cy="836" r="10" class="c0"/>
<circle cx="858" cy="800" r="10" class="c0"/>
<circle cx="856" cy="830" r="10" class="c0"/>
<circle cx="950" cy="880" r="10" class="c0"/>
<circle cx="870" cy="848" r="10" class="c0"/>
<circle cx="924" cy="958" r="10" class="c0"/>
<circle cx="1036" cy="810" r="10" class="c0"/>
<circle cx="996" cy="828" r="10" class="c0"/>
<circle cx="1034" cy="938" r="10" class="c0"/>
<circle cx="878" cy="822" r="10" class="c0"/>
<circle cx="1052" cy="848" r="10" class="c0"/>
<circle cx="1002" cy="938" r="10" class="c0"/>
<circle cx="948" cy="784" r="10" class="c0"/>
<circle cx="894" cy="790" r="10" class="c0"/>
<circle cx="944" cy="934" r="10" class="c0"/>
<circle cx="1004" cy="902" r="10" class="c0"/>
<circle cx="928" cy="830" r="10" class="c0"/>
<circle cx="966" cy="950" r="10" class="c0"/>
<circle cx="914" cy="860" r="10" class="c0"/>
<circle cx="978" cy="772" r="10" class="c0"/>
<circle cx="866" cy="876" r="10" class="c0"/>
<circle cx="882" cy="906" r="10" class="c0"/>
<circle cx="966" cy="796" r="10" class="c0"/>
<circle cx="936" cy="910" r="8" class="c0"/>
<circle cx="992" cy="958" r="8" class="c0"/>
<circle cx="1038" cy="880" r="8" class="c0"/>
<circle cx="878" cy="930" r="8" class="c0"/>
<circle cx="968" cy="852" r="8" class="c0"/>
<circle cx="1066" cy="826" r="8" class="c0"/>
<circle cx="996" cy="880" r="8" class="c0"/>
<circle cx="970" cy="870" r="8" class="c0"/>
<circle cx="928" cy="884" r="8" class="c0"/>
<circle cx="986" cy="792" r="8" class="c0"/>
<circle cx="938" cy="852" r="8" class="c0"/>
<circle cx="860" cy="918" r="8" class="c0"/>
<circle cx="1018" cy="882" r="8" class="c0"/>
<circle cx="926" cy="786" r="8" class="c0"/>
<circle cx="924" cy="922" r="8" class="c0"/>
<circle cx="984" cy="816" r="8" class="c0"/>
<circle cx="1020" cy="822" r="8" class="c0"/>
<circle cx="918" cy="810" r="8" class="c0"/>
<circle cx="1014" cy="962" r="8" class="c0"/>
<circle cx="896" cy="952" r="8" class="c0"/>
<circle cx="1022" cy="922" r="8" class="c0"/>
<circle cx="910" cy="904" r="8" class="c0"/>
<circle cx="1040" cy="830" r="8" class="c0"/>
<circle cx="1050" cy="868" r="8" class="c0"/>
<circle cx="974" cy="932" r="8" class="c0"/>
<circle cx="1062" cy="808" r="8" class="c0"/>
<circle cx="978" cy="890" r="8" class="c0"/>
<circle cx="1026" cy="784" r="8" class="c0"/>
<circle cx="1048" cy="796" r="8" class="c0"/>
<circle cx="990" cy="918" r="8" class="c0"/>
<circle cx="886" cy="858" r="8" class="c0"/>
<circle cx="1046" cy="926" r="8" class="c0"/>
<circle cx="940" cy="804" r="8" class="c0"/>
<circle cx="974" cy="832" r="8" class="c0"/>
<circle cx="956" cy="842" r="8" class="c0"/>
<circle cx="1006" cy="868" r="8" class="c0"/>
<circle cx="894" cy="812" r="8" class="c0"/>
<circle cx="934" cy="766" r="8" class="c0"/>
<circle cx="854" cy="942" r="8" class="c0"/>
<circle cx="946" cy="968" r="8" class="c0"/>
<circle cx="948" cy="900" r="8" class="c0"/>
<circle cx="1068" cy="924" r="8" class="c0"/>
<circle cx="856" cy="898" r="8" class="c0"/>
<circle cx="1028" cy="870" r="8" class="c0"/>
<circle cx="1016" cy="774" r="8" class="c0"/>
<circle cx="838" cy="918" r="8" class="c0"/>
<circle cx="844" cy="818" r="8" class="c0"/>
<circle cx="976" cy="966" r="8" class="c0"/>
<circle cx="882" cy="802" r="8" class="c0"/>
<circle cx="872" cy="946" r="6" class="c0"/>
<circle cx="926" cy="900" r="6" class="c0"/>
<circle cx="954" cy="862" r="6" class="c0"/>
<circle cx="1058" cy="936" r="6" class="c0"/>
<circle cx="1000" cy="784" r="6" class="c0"/>
<circle cx="926" cy="940" r="6" class="c0"/>
<circle cx="1050" cy="820" r="6" class="c0"/>
<circle cx="1022" cy="898" r="6" class="c0"/>
<circle cx="952" cy="918" r="6" class="c0"/>
<circle cx="962" cy="892" r="6" class="c0"/>
<circle cx="1022" cy="800" r="6" class="c0"/>
<circle cx="892" cy="768" r="6" class="c0"/>
<circle cx="1006" cy="920" r="6" class="c0"/>
<circle cx="936" cy="868" r="6" class="c0"/>
<circle cx="856" cy="858" r="6" class="c0"/>
<circle cx="948" cy="952" r="6" class="c0"/>
<circle cx="984" cy="942" r="6" class="c0"/>
<circle cx="1018" cy="946" r="6" class="c0"/>
<circle cx="912" cy="794" r="6" class="c0"/>
<circle cx="1038" cy="858" r="6" class="c0"/>
<circle cx="1058" cy="912" r="6" class="c0"/>
</svg>
