<?xml version="1.0" encoding="utf-8"?>
<svg xmlns="http://www.w3.org/2000/svg"
     xmlns:xlink="http://www.w3.org/1999/xlink" width="1920" height="1440" >

            <defs>
            <style type="text/css"><![CDATA[
circle {stroke: none;}
.c0 {fill: #FFFFFF;}
]]></style>
            </defs>
<rect x="0" y="0" width="1920" height="1440" fill="black"/>
<circle cx="838" cy="760" r="14" class="c0"/>
<circle cx="978" cy="818" r="12" class="c0"/>
<circle cx="1038" cy="872" r="12" class="c0"/>
<circle cx="906" cy="736" r="12" class="c0"/>
<circle cx="910" cy="836" r="12" class="c0"/>
<circle cx="874" cy="976" r="12" class="c0"/>
<circle cx="840" cy="888" r="12" class="c0"/>
<circle cx="1012" cy="880" r="12" class="c0"/>
<circle cx="872" cy="910" r="10" class="c0"/>
<circle cx="844" cy="942" r="10" class="c0"/>
<circle cx="1046" cy="820" r="10" class="c0"/>
<circle cx="992" cy="946" r="10" class="c0"/>
<circle cx="900" cy="952" r="10" class="c0"/>
<circle cx="872" cy="808" r="10" class="c0"/>
<circle cx="888" cy="864" r="10" class="c0"/>
<circle cx="1032" cy="848" r="10" class="c0"/>
<circle cx="942" cy="800" r="10" class="c0"/>
<circle cx="1082" cy="814" r="10" class="c0"/>
<circle cx="970" cy="932" r="10" class="c0"/>
<circle cx="1070" cy="954" r="10" class="c0"/>
<circle cx="828" cy="806" r="10" class="c0"/>
<circle cx="862" cy="956" r="10" class="c0"/>
<circle cx="1004" cy="732" r="10" class="c0"/>
<circle cx="932" cy="870" r="10" class="c0"/>
<circle cx="966" cy="756" r="10" class="c0"/>
<circle cx="908" cy="786" r="10" class="c0"/>
<circle cx="1076" cy="846" r="10" class="c0"/>
<circle cx="830" cy="832" r="10" class="c0"/>
<circle cx="986" cy="868" r="10" class="c0"/>
<circle cx="984" cy="740" r="10" class="c0"/>
<circle cx="1044" cy="980" r="10" class="c0"/>
<circle cx="1006" cy="804" r="10" class="c0"/>
<circle cx="822" cy="994" r="10" class="c0"/>
<circle cx="864" cy="874" r="10" class="c0"/>
<circle cx="956" cy="968" r="10" class="c0"/>
<circle cx="864" cy="732" r="10" class="c0"/>
<circle cx="1066" cy="914" r="10" class="c0"/>
<circle cx="1054" cy="856" r="10" class="c0"/>
<circle cx="924" cy="944" r="10" class="c0"/>
<circle cx="940" cy="742" r="10" class="c0"/>
<circle cx="1030" cy="792" r="10" class="c0"/>
<circle cx="876" cy="888" r="10" class="c0"/>
<circle cx="896" cy="816" r="10" class="c0"/>
<circle cx="968" cy="982" r="10" class="c0"/>
<circle cx="940" cy="904" r="10" class="c0"/>
<circle cx="980" cy="782" r="10" class="c0"/>
<circle cx="1062" cy="800" r="10" class="c0"/>
<circle cx="896" cy="906" r="10" class="c0"/>
<circle cx="952" cy="886" r="10" class="c0"/>
<circle cx="934" cy="840" r="10" class="c0"/>
<circle cx="916" cy="992" r="10" class="c0"/>
<circle cx="1080" cy="786" r="10" class="c0"/>
<circle cx="922" cy="808" r="10" class="c0"/>
<circle cx="1040" cy="716" r="10" class="c0"/>
<circle cx="972" cy="1008" r="10" class="c0"/>
<circle cx="992" cy="986" r="10" class="c0"/>
<circle cx="860" cy="772" r="10" class="c0"/>
<circle cx="1034" cy="940" r="10" class="c0"/>
<circle cx="924" cy="756" r="10" class="c0"/>
<circle cx="874" cy="1026" r="8" class="c0"/>
<circle cx="994" cy="966" r="8" class="c0"/>
<circle cx="832" cy="954" r="8" class="c0"/>
<circle cx="864" cy="936" r="8" class="c0"/>
<circle cx="1072" cy="976" r="8" class="c0"/>
<circle cx="1036" cy="766" r="8" class="c0"/>
<circle cx="914" cy="920" r="8" class="c0"/>
<circle cx="940" cy="932" r="8" class="c0"/>
<circle cx="1088" cy="762" r="8" class="c0"/>
<circle cx="894" cy="992" r="8" class="c0"/>
<circle cx="1092" cy="904" r="8" class="c0"/>
<circle cx="996" cy="760" r="8" class="c0"/>
<circle cx="1010" cy="908" r="8" class="c0"/>
<circle cx="1014" cy="766" r="8" class="c0"/>
<circle cx="844" cy="794" r="8" class="c0"/>
<circle cx="1076" cy="878" r="8" class="c0"/>
<circle cx="932" cy="714" r="8" class="c0"/>
<circle cx="934" cy="1000" r="8" class="c0"/>
<circle cx="1024" cy="970" r="8" class="c0"/>
<circle cx="1042" cy="960" r="8" class="c0"/>
<circle cx="894" cy="768" r="8" class="c0"/>
<circle cx="936" cy="978" r="8" class="c0"/>
<circle cx="990" cy="836" r="8" class="c0"/>
<circle cx="1084" cy="938" r="8" class="c0"/>
<circle cx="840" cy="918" r="8" class="c0"/>
<circle cx="802" cy="774" r="8" class="c0"/>
<circle cx="1046" cy="1004" r="8" class="c0"/>
<circle cx="1044" cy="896" r="8" class="c0"/>
<circle cx="1016" cy="948" r="8" class="c0"/>
<circle cx="962" cy="838" r="8" class="c0"/>
<circle cx="812" cy="934" r="8" class="c0"/>
<circle cx="1002" cy="930" r="8" class="c0"/>
<circle cx="854" cy="902" r="8" class="c0"/>
<circle cx="990" cy="706" r="8" class="c0"/>
<circle cx="882" cy="844" r="8" class="c0"/>
<circle cx="818" cy="790" r="8" class="c0"/>
<circle cx="962" cy="804" r="8" class="c0"/>
<circle cx="834" cy="976" r="8" class="c0"/>
<circle cx="938" cy="770" r="8" class="c0"/>
<circle cx="952" cy="864" r="8" class="c0"/>
<circle cx="856" cy="854" r="8" class="c0"/>
<circle cx="1020" cy="928" r="8" class="c0"/>
<circle cx="1114" cy="778" r="8" class="c0"/>
<circle cx="866" cy="998" r="8" class="c0"/>
<circle cx="976" cy="910" r="8" class="c0"/>
<circle cx="852" cy="744" r="8" class="c0"/>
<circle cx="1070" cy="754" r="8" class="c0"/>
<circle cx="866" cy="834" r="8" class="c0"/>
<circle cx="952" cy="1004" r="8" class="c0"/>
<circle cx="1032" cy="748" r="8" class="c0"/>
<circle cx="1014" cy="822" r="8" class="c0"/>
<circle cx="1060" cy="774" r="8" class="c0"/>
<circle cx="884" cy="926" r="8" class="c0"/>
<circle cx="1004" cy="1010" r="8" class="c0"/>
<circle cx="1092" cy="958" r="8" class="c0"/>
<circle cx="838" cy="858" r="8" class="c0"/>
<circle cx="968" cy="856" r="8" class="c0"/>
<circle cx="920" cy="1012" r="8" class="c0"/>
<circle cx="910" cy="972" r="8" class="c0"/>
<circle cx="1082" cy="734" r="8" class="c0"/>
<circle cx="1024" cy="812" r="8" class="c0"/>
<circle cx="952" cy="822" r="8" class="c0"/>
<circle cx="964" cy="734" r="8" class="c0"/>
<circle cx="998" cy="852" r="8" class="c0"/>
<circle cx="890" cy="796" r="8" class="c0"/>
<circle cx="880" cy="758" r="8" class="c0"/>
<circle cx="1012" cy="842" r="8" class="c0"/>
<circle cx="996" cy="1026" r="8" class="c0"/>
<circle cx="902" cy="884" r="8" class="c0"/>
<circle cx="1050" cy="756" r="8" class="c0"/>
<circle cx="974" cy="882" r="8" class="c0"/>
<circle cx="1002" cy="784" r="8" class="c0"/>
<circle cx="1104" cy="790" r="8" class="c0"/>
<circle cx="1040" cy="920" r="8" class="c0"/>
<circle cx="852" cy="812" r="8" class="c0"/>
<circle cx="822" cy="916" r="8" class="c0"/>
<circle cx="884" cy="734" r="8" class="c0"/>
<circle cx="990" cy="890" r="8" class="c0"/>
<circle cx="1058" cy="992" r="8" class="c0"/>
<circle cx="974" cy="958" r="8" class="c0"/>
<circle cx="1024" cy="1000" r="8" class="c0"/>
<circle cx="952" cy="780" r="8" class="c0"/>
<circle cx="946" cy="952" r="8" class="c0"/>
<circle cx="1050" cy="930" r="8" class="c0"/>
<circle cx="1052" cy="734" r="8" class="c0"/>
<circle cx="1102" cy="944" r="8" class="c0"/>
<circle cx="874" cy="716" r="6" class="c0"/>
<circle cx="818" cy="768" r="6" class="c0"/>
<circle cx="928" cy="964" r="6" class="c0"/>
<circle cx="1062" cy="836" r="6" class="c0"/>
<circle cx="1100" cy="928" r="6" class="c0"/>
<circle cx="914" cy="864" r="6" class="c0"/>
<circle cx="928" cy="786" r="6" class="c0"/>
<circle cx="824" cy="740" r="6" class="c0"/>
<circle cx="1092" cy="886" r="6" class="c0"/>
<circle cx="956" cy="912" r="6" class="c0"/>
<circle cx="882" cy="944" r="6" class="c0"/>
<circle cx="850" cy="982" r="6" class="c0"/>
<circle cx="1064" cy="892" r="6" class="c0"/>
<circle cx="920" cy="904" r="6" class="c0"/>
<circle cx="822" cy="880" r="6" class="c0"/>
<circle cx="832" cy="782" r="6" class="c0"/>
<circle cx="1104" cy="764" r="6" class="c0"/>
<circle cx="926" cy="696" r="6" class="c0"/>
<circle cx="848" cy="836" r="6" class="c0"/>
<circle cx="922" cy="854" r="6" class="c0"/>
<circle cx="1096" cy="776" r="6" class="c0"/>
<circle cx="878" cy="786" r="6" class="c0"/>
<circle cx="856" cy="922" r="6" class="c0"/>
<circle cx="1060" cy="876" r="6" class="c0"/>
<circle cx="992" cy="794" r="6" class="c0"/>
<circle cx="1012" cy="988" r="6" class="c0"/>
<circle cx="1092" cy="832" r="6" class="c0"/>
<circle cx="1030" cy="906" r="6" class="c0"/>
<circle cx="1050" cy="788" r="6" class="c0"/>
<circle cx="918" cy="880" r="6" class="c0"/>
<circle cx="884" cy="1006" r="6" class="c0"/>
<circle cx="920" cy="774" r="6" class="c0"/>
<circle cx="808" cy="800" r="6" class="c0"/>
<circle cx="1054" cy="946" r="6" class="c0"/>
<circle cx="1022" cy="738" r="6" class="c0"/>
<circle cx="994" cy="916" r="6" class="c0"/>
<circle cx="1024" cy="832" r="6" class="c0"/>
<circle cx="822" cy="966" r="6" class="c0"/>
<circle cx="988" cy="688" r="6" class="c0"/>
<circle cx="928" cy="888" r="6" class="c0"/>
<circle cx="912" cy="894" r="6" class="c0"/>
<circle cx="1014" cy="860" r="6" class="c0"/>
<circle cx="938" cy="1016" r="6" class="c0"/>
<circle cx="904" cy="758" r="6" class="c0"/>
<circle cx="978" cy="716" r="6" class="c0"/>
<circle cx="872" cy="856" r="6" class="c0"/>
<circle cx="860" cy="792" r="6" class="c0"/>
<circle cx="796" cy="958" r="6" class="c0"/>
<circle cx="824" cy="900" r="6" class="c0"/>
<circle cx="1022" cy="896" r="6" class="c0"/>
<circle cx="1086" cy="920" r="6" class="c0"/>
<circle cx="1096" cy="804" r="6" class="c0"/>
<circle cx="1070" cy="828" r="6" class="c0"/>
<circle cx="1042" cy="1034" r="6" class="c0"/>
<circle cx="866" cy="704" r="6" class="c0"/>
<circle cx="916" cy="718" r="6" class="c0"/>
<circle cx="1066" cy="934" r="6" class="c0"/>
<circle cx="1082" cy="894" r="6" class="c0"/>
<circle cx="846" cy="966" r="6" class="c0"/>
<circle cx="904" cy="930" r="6" class="c0"/>
<circle cx="906" cy="856" r="6" class="c0"/>
<circle cx="952" cy="724" r="6" class="c0"/>
<circle cx="1014" cy="746" r="6" class="c0"/>
<circle cx="818" cy="820" r="6" class="c0"/>
<circle cx="936" cy="820" r="6" class="c0"/>
<circle cx="1076" cy="1024" r="6" class="c0"/>
<circle cx="814" cy="956" r="6" class="c0"/>
<circle cx="1092" cy="746" r="6" class="c0"/>
<circle cx="980" cy="846" r="6" class="c0"/>
</svg>
