<?xml version="1.0" encoding="utf-8"?>
<svg xmlns="http://www.w3.org/2000/svg"
     xmlns:xlink="http://www.w3.org/1999/xlink" width="1920" height="1440" >

            <defs>
            <style type="text/css"><![CDATA[
circle {stroke: none;}
.c0 {fill: #FFFFFF;}
]]></style>
            </defs>
<rect x="0" y="0" width="1920" height="1440" fill="black"/>
<circle cx="894" cy="812" r="14" class="c0"/>
<circle cx="986" cy="734" r="12" class="c0"/>
<circle cx="1018" cy="744" r="12" class="c0"/>
<circle cx="1054" cy="888" r="12" class="c0"/>
<circle cx="834" cy="800" r="12" class="c0"/>
<circle cx="1034" cy="1036" r="12" class="c0"/>
<circle cx="1112" cy="968" r="12" class="c0"/>
<circle cx="884" cy="1000" r="12" class="c0"/>
<circle cx="814" cy="752" r="12" class="c0"/>
<circle cx="930" cy="820" r="12" class="c0"/>
<circle cx="918" cy="708" r="12" class="c0"/>
<circle cx="1016" cy="1060" r="12" class="c0"/>
<circle cx="1100" cy="806" r="12" class="c0"/>
<circle cx="988" cy="1036" r="12" class="c0"/>
<circle cx="1088" cy="736" r="12" class="c0"/>
<circle cx="1048" cy="950" r="12" class="c0"/>
<circle cx="850" cy="984" r="12" class="c0"/>
<circle cx="872" cy="832" r="12" class="c0"/>
<circle cx="970" cy="792" r="12" class="c0"/>
<circle cx="912" cy="776" r="12" class="c0"/>
<circle cx="888" cy="722" r="12" class="c0"/>
<circle cx="1076" cy="994" r="10" class="c0"/>
<circle cx="886" cy="962" r="10" class="c0"/>
<circle cx="990" cy="912" r="10" class="c0"/>
<circle cx="976" cy="1000" r="10" class="c0"/>
<circle cx="826" cy="1010" r="10" class="c0"/>
<circle cx="1086" cy="864" r="10" class="c0"/>
<circle cx="1014" cy="876" r="10" class="c0"/>
<circle cx="998" cy="768" r="10" class="c0"/>
<circle cx="952" cy="718" r="10" class="c0"/>
<circle cx="990" cy="966" r="10" class="c0"/>
<circle cx="932" cy="904" r="10" class="c0"/>
<circle cx="970" cy="862" r="10" class="c0"/>
<circle cx="930" cy="940" r="10" class="c0"/>
<circle cx="810" cy="862" r="10" class="c0"/>
<circle cx="810" cy="808" r="10" class="c0"/>
<circle cx="1030" cy="864" r="10" class="c0"/>
<circle cx="1052" cy="992" r="10" class="c0"/>
<circle cx="922" cy="862" r="10" class="c0"/>
<circle cx="1068" cy="780" r="10" class="c0"/>
<circle cx="952" cy="958" r="10" class="c0"/>
<circle cx="852" cy="948" r="10" class="c0"/>
<circle cx="1036" cy="770" r="10" class="c0"/>
<circle cx="940" cy="732" r="10" class="c0"/>
<circle cx="1118" cy="766" r="10" class="c0"/>
<circle cx="864" cy="898" r="10" class="c0"/>
<circle cx="838" cy="730" r="10" class="c0"/>
<circle cx="804" cy="772" r="10" class="c0"/>
<circle cx="1102" cy="938" r="10" class="c0"/>
<circle cx="888" cy="780" r="10" class="c0"/>
<circle cx="886" cy="874" r="10" class="c0"/>
<circle cx="1082" cy="914" r="10" class="c0"/>
<circle cx="808" cy="908" r="10" class="c0"/>
<circle cx="1008" cy="790" r="10" class="c0"/>
<circle cx="1078" cy="762" r="10" class="c0"/>
<circle cx="818" cy="786" r="10" class="c0"/>
<circle cx="1108" cy="748" r="10" class="c0"/>
<circle cx="966" cy="1018" r="10" class="c0"/>
<circle cx="870" cy="734" r="10" class="c0"/>
<circle cx="762" cy="1022" r="10" class="c0"/>
<circle cx="974" cy="710" r="10" class="c0"/>
<circle cx="842" cy="896" r="10" class="c0"/>
<circle cx="1026" cy="800" r="10" class="c0"/>
<circle cx="882" cy="754" r="10" class="c0"/>
<circle cx="798" cy="972" r="10" class="c0"/>
<circle cx="854" cy="714" r="10" class="c0"/>
<circle cx="1040" cy="838" r="10" class="c0"/>
<circle cx="910" cy="920" r="10" class="c0"/>
<circle cx="1082" cy="840" r="10" class="c0"/>
<circle cx="938" cy="1034" r="10" class="c0"/>
<circle cx="1004" cy="718" r="10" class="c0"/>
<circle cx="792" cy="932" r="10" class="c0"/>
<circle cx="924" cy="980" r="10" class="c0"/>
<circle cx="1144" cy="988" r="10" class="c0"/>
<circle cx="888" cy="900" r="10" class="c0"/>
<circle cx="1030" cy="890" r="10" class="c0"/>
<circle cx="1062" cy="824" r="10" class="c0"/>
<circle cx="882" cy="1026" r="10" class="c0"/>
<circle cx="860" cy="870" r="10" class="c0"/>
<circle cx="958" cy="758" r="10" class="c0"/>
<circle cx="884" cy="930" r="10" class="c0"/>
<circle cx="946" cy="1058" r="10" class="c0"/>
<circle cx="792" cy="788" r="10" class="c0"/>
<circle cx="990" cy="686" r="10" class="c0"/>
<circle cx="1080" cy="796" r="10" class="c0"/>
<circle cx="836" cy="968" r="10" class="c0"/>
<circle cx="826" cy="928" r="10" class="c0"/>
<circle cx="1020" cy="990" r="10" class="c0"/>
<circle cx="902" cy="940" r="10" class="c0"/>
<circle cx="1004" cy="850" r="10" class="c0"/>
<circle cx="942" cy="1008" r="10" class="c0"/>
<circle cx="804" cy="948" r="8" class="c0"/>
<circle cx="906" cy="1014" r="8" class="c0"/>
<circle cx="1074" cy="1014" r="8" class="c0"/>
<circle cx="830" cy="872" r="8" class="c0"/>
<circle cx="940" cy="880" r="8" class="c0"/>
<circle cx="832" cy="844" r="8" class="c0"/>
<circle cx="906" cy="754" r="8" class="c0"/>
<circle cx="1042" cy="718" r="8" class="c0"/>
<circle cx="896" cy="842" r="8" class="c0"/>
<circle cx="772" cy="924" r="8" class="c0"/>
<circle cx="852" cy="790" r="8" class="c0"/>
<circle cx="932" cy="760" r="8" class="c0"/>
<circle cx="1060" cy="920" r="8" class="c0"/>
<circle cx="820" cy="982" r="8" class="c0"/>
<circle cx="978" cy="824" r="8" class="c0"/>
<circle cx="936" cy="782" r="8" class="c0"/>
<circle cx="1000" cy="1004" r="8" class="c0"/>
<circle cx="1068" cy="964" r="8" class="c0"/>
<circle cx="1080" cy="954" r="8" class="c0"/>
<circle cx="936" cy="696" r="8" class="c0"/>
<circle cx="910" cy="728" r="8" class="c0"/>
<circle cx="982" cy="874" r="8" class="c0"/>
<circle cx="1018" cy="828" r="8" class="c0"/>
<circle cx="1056" cy="744" r="8" class="c0"/>
<circle cx="1034" cy="928" r="8" class="c0"/>
<circle cx="872" cy="976" r="8" class="c0"/>
<circle cx="1106" cy="916" r="8" class="c0"/>
<circle cx="912" cy="900" r="8" class="c0"/>
<circle cx="1056" cy="698" r="8" class="c0"/>
<circle cx="1090" cy="970" r="8" class="c0"/>
<circle cx="772" cy="994" r="8" class="c0"/>
<circle cx="1016" cy="1012" r="8" class="c0"/>
<circle cx="998" cy="810" r="8" class="c0"/>
<circle cx="876" cy="858" r="8" class="c0"/>
<circle cx="1104" cy="886" r="8" class="c0"/>
<circle cx="920" cy="960" r="8" class="c0"/>
<circle cx="1104" cy="722" r="8" class="c0"/>
<circle cx="826" cy="950" r="8" class="c0"/>
<circle cx="818" cy="726" r="8" class="c0"/>
<circle cx="1136" cy="758" r="8" class="c0"/>
<circle cx="1004" cy="948" r="8" class="c0"/>
<circle cx="854" cy="1024" r="8" class="c0"/>
<circle cx="1034" cy="968" r="8" class="c0"/>
<circle cx="958" cy="828" r="8" class="c0"/>
<circle cx="972" cy="922" r="8" class="c0"/>
<circle cx="974" cy="978" r="8" class="c0"/>
<circle cx="1126" cy="996" r="8" class="c0"/>
<circle cx="846" cy="1008" r="8" class="c0"/>
<circle cx="856" cy="758" r="8" class="c0"/>
<circle cx="864" cy="776" r="8" class="c0"/>
<circle cx="1044" cy="816" r="8" class="c0"/>
<circle cx="1008" cy="924" r="8" class="c0"/>
<circle cx="942" cy="926" r="8" class="c0"/>
<circle cx="1118" cy="796" r="8" class="c0"/>
<circle cx="850" cy="816" r="8" class="c0"/>
<circle cx="840" cy="916" r="8" class="c0"/>
<circle cx="964" cy="1044" r="8" class="c0"/>
<circle cx="1044" cy="790" r="8" class="c0"/>
<circle cx="962" cy="882" r="8" class="c0"/>
<circle cx="828" cy="826" r="8" class="c0"/>
<circle cx="1056" cy="860" r="8" class="c0"/>
<circle cx="902" cy="1034" r="8" class="c0"/>
<circle cx="926" cy="1048" r="8" class="c0"/>
<circle cx="916" cy="882" r="8" class="c0"/>
<circle cx="958" cy="902" r="8" class="c0"/>
<circle cx="1100" cy="832" r="8" class="c0"/>
<circle cx="1092" cy="1008" r="8" class="c0"/>
<circle cx="1160" cy="920" r="8" class="c0"/>
<circle cx="992" cy="890" r="8" class="c0"/>
<circle cx="938" cy="852" r="8" class="c0"/>
<circle cx="916" cy="1024" r="8" class="c0"/>
<circle cx="944" cy="982" r="8" class="c0"/>
<circle cx="948" cy="798" r="8" class="c0"/>
<circle cx="1104" cy="850" r="8" class="c0"/>
<circle cx="872" cy="950" r="8" class="c0"/>
<circle cx="908" cy="994" r="8" class="c0"/>
<circle cx="1138" cy="740" r="8" class="c0"/>
<circle cx="820" cy="888" r="8" class="c0"/>
<circle cx="1156" cy="1000" r="8" class="c0"/>
<circle cx="836" cy="750" r="8" class="c0"/>
<circle cx="852" cy="846" r="8" class="c0"/>
<circle cx="924" cy="842" r="8" class="c0"/>
<circle cx="780" cy="768" r="8" class="c0"/>
<circle cx="806" cy="828" r="8" class="c0"/>
<circle cx="980" cy="1066" r="8" class="c0"/>
<circle cx="744" cy="986" r="8" class="c0"/>
<circle cx="850" cy="1050" r="8" class="c0"/>
<circle cx="818" cy="1038" r="8" class="c0"/>
<circle cx="1126" cy="920" r="8" class="c0"/>
<circle cx="742" cy="938" r="8" class="c0"/>
<circle cx="906" cy="1076" r="8" class="c0"/>
<circle cx="1076" cy="880" r="8" class="c0"/>
<circle cx="1040" cy="910" r="8" class="c0"/>
<circle cx="978" cy="772" r="8" class="c0"/>
<circle cx="920" cy="800" r="8" class="c0"/>
<circle cx="984" cy="932" r="8" class="c0"/>
<circle cx="900" cy="860" r="8" class="c0"/>
<circle cx="840" cy="778" r="8" class="c0"/>
<circle cx="1058" cy="800" r="8" class="c0"/>
<circle cx="868" cy="702" r="8" class="c0"/>
<circle cx="1072" cy="724" r="8" class="c0"/>
<circle cx="1014" cy="962" r="8" class="c0"/>
<circle cx="1018" cy="904" r="8" class="c0"/>
<circle cx="952" cy="936" r="8" class="c0"/>
<circle cx="898" cy="978" r="8" class="c0"/>
<circle cx="958" cy="850" r="8" class="c0"/>
<circle cx="1086" cy="1036" r="8" class="c0"/>
<circle cx="954" cy="996" r="8" class="c0"/>
<circle cx="1136" cy="936" r="8" class="c0"/>
<circle cx="874" cy="796" r="8" class="c0"/>
<circle cx="970" cy="944" r="8" class="c0"/>
<circle cx="1040" cy="736" r="8" class="c0"/>
<circle cx="962" cy="734" r="8" class="c0"/>
<circle cx="926" cy="684" r="8" class="c0"/>
<circle cx="1064" cy="938" r="8" class="c0"/>
<circle cx="788" cy="752" r="8" class="c0"/>
<circle cx="792" cy="994" r="8" class="c0"/>
<circle cx="734" cy="976" r="8" class="c0"/>
<circle cx="1120" cy="900" r="8" class="c0"/>
<circle cx="1100" cy="988" r="8" class="c0"/>
<circle cx="764" cy="972" r="8" class="c0"/>
<circle cx="1102" cy="780" r="8" class="c0"/>
<circle cx="888" cy="1062" r="8" class="c0"/>
<circle cx="1024" cy="950" r="8" class="c0"/>
<circle cx="1046" cy="1012" r="8" class="c0"/>
<circle cx="1158" cy="966" r="8" class="c0"/>
<circle cx="994" cy="834" r="8" class="c0"/>
<circle cx="1160" cy="944" r="8" class="c0"/>
<circle cx="1050" cy="1056" r="8" class="c0"/>
<circle cx="816" cy="960" r="8" class="c0"/>
<circle cx="872" cy="918" r="8" class="c0"/>
<circle cx="1108" cy="704" r="8" class="c0"/>
<circle cx="800" cy="890" r="8" class="c0"/>
<circle cx="808" cy="1018" r="8" class="c0"/>
<circle cx="864" cy="1012" r="8" class="c0"/>
<circle cx="950" cy="870" r="8" class="c0"/>
<circle cx="1178" cy="962" r="8" class="c0"/>
<circle cx="1116" cy="1014" r="8" class="c0"/>
<circle cx="978" cy="898" r="6" class="c0"/>
<circle cx="1056" cy="766" r="6" class="c0"/>
<circle cx="868" cy="812" r="6" class="c0"/>
<circle cx="980" cy="842" r="6" class="c0"/>
<circle cx="874" cy="1054" r="6" class="c0"/>
<circle cx="1084" cy="818" r="6" class="c0"/>
<circle cx="898" cy="738" r="6" class="c0"/>
<circle cx="814" cy="844" r="6" class="c0"/>
<circle cx="1060" cy="676" r="6" class="c0"/>
<circle cx="962" cy="810" r="6" class="c0"/>
<circle cx="856" cy="686" r="6" class="c0"/>
<circle cx="1110" cy="822" r="6" class="c0"/>
<circle cx="1054" cy="972" r="6" class="c0"/>
<circle cx="1002" cy="980" r="6" class="c0"/>
<circle cx="1086" cy="890" r="6" class="c0"/>
<circle cx="840" cy="858" r="6" class="c0"/>
<circle cx="1096" cy="902" r="6" class="c0"/>
<circle cx="1022" cy="844" r="6" class="c0"/>
<circle cx="952" cy="780" r="6" class="c0"/>
<circle cx="808" cy="710" r="6" class="c0"/>
<circle cx="826" cy="766" r="6" class="c0"/>
<circle cx="858" cy="930" r="6" class="c0"/>
<circle cx="1104" cy="868" r="6" class="c0"/>
<circle cx="990" cy="990" r="6" class="c0"/>
<circle cx="956" cy="918" r="6" class="c0"/>
<circle cx="808" cy="992" r="6" class="c0"/>
<circle cx="1050" cy="930" r="6" class="c0"/>
<circle cx="922" cy="1002" r="6" class="c0"/>
<circle cx="924" cy="744" r="6" class="c0"/>
<circle cx="908" cy="830" r="6" class="c0"/>
<circle cx="1116" cy="948" r="6" class="c0"/>
<circle cx="1006" cy="1024" r="6" class="c0"/>
<circle cx="948" cy="840" r="6" class="c0"/>
<circle cx="752" cy="958" r="6" class="c0"/>
<circle cx="1066" cy="980" r="6" class="c0"/>
<circle cx="1002" cy="700" r="6" class="c0"/>
<circle cx="1024" cy="720" r="6" class="c0"/>
<circle cx="990" cy="1014" r="6" class="c0"/>
<circle cx="716" cy="970" r="6" class="c0"/>
<circle cx="844" cy="932" r="6" class="c0"/>
<circle cx="980" cy="754" r="6" class="c0"/>
<circle cx="732" cy="950" r="6" class="c0"/>
<circle cx="1072" cy="898" r="6" class="c0"/>
<circle cx="1126" cy="782" r="6" class="c0"/>
<circle cx="990" cy="786" r="6" class="c0"/>
<circle cx="988" cy="800" r="6" class="c0"/>
<circle cx="980" cy="808" r="6" class="c0"/>
<circle cx="1034" cy="1000" r="6" class="c0"/>
<circle cx="862" cy="962" r="6" class="c0"/>
<circle cx="1038" cy="752" r="6" class="c0"/>
<circle cx="1084" cy="932" r="6" class="c0"/>
<circle cx="1064" cy="844" r="6" class="c0"/>
<circle cx="852" cy="740" r="6" class="c0"/>
<circle cx="864" cy="1062" r="6" class="c0"/>
<circle cx="1180" cy="940" r="6" class="c0"/>
<circle cx="896" cy="764" r="6" class="c0"/>
<circle cx="1014" cy="812" r="6" class="c0"/>
<circle cx="1002" cy="900" r="6" class="c0"/>
<circle cx="1140" cy="962" r="6" class="c0"/>
<circle cx="972" cy="746" r="6" class="c0"/>
<circle cx="1176" cy="1006" r="6" class="c0"/>
<circle cx="766" cy="948" r="6" class="c0"/>
<circle cx="758" cy="1004" r="6" class="c0"/>
<circle cx="1054" cy="1026" r="6" class="c0"/>
<circle cx="828" cy="906" r="6" class="c0"/>
<circle cx="900" cy="884" r="6" class="c0"/>
<circle cx="988" cy="858" r="6" class="c0"/>
<circle cx="994" cy="666" r="6" class="c0"/>
<circle cx="834" cy="994" r="6" class="c0"/>
<circle cx="838" cy="1022" r="6" class="c0"/>
<circle cx="800" cy="740" r="6" class="c0"/>
<circle cx="1018" cy="772" r="6" class="c0"/>
<circle cx="1154" cy="1018" r="6" class="c0"/>
<circle cx="1096" cy="760" r="6" class="c0"/>
<circle cx="1066" cy="870" r="6" class="c0"/>
<circle cx="902" cy="792" r="6" class="c0"/>
<circle cx="986" cy="948" r="6" class="c0"/>
<circle cx="788" cy="956" r="6" class="c0"/>
<circle cx="996" cy="866" r="6" class="c0"/>
<circle cx="972" cy="962" r="6" class="c0"/>
<circle cx="904" cy="958" r="6" class="c0"/>
<circle cx="784" cy="1030" r="6" class="c0"/>
<circle cx="1058" cy="716" r="6" class="c0"/>
<circle cx="936" cy="966" r="6" class="c0"/>
<circle cx="842" cy="834" r="6" class="c0"/>
<circle cx="1130" cy="1022" r="6" class="c0"/>
<circle cx="1066" cy="1052" r="6" class="c0"/>
<circle cx="964" cy="1068" r="6" class="c0"/>
<circle cx="922" cy="664" r="6" class="c0"/>
<circle cx="1134" cy="774" r="6" class="c0"/>
<circle cx="860" cy="804" r="6" class="c0"/>
<circle cx="942" cy="750" r="6" class="c0"/>
<circle cx="1018" cy="934" r="6" class="c0"/>
<circle cx="1120" cy="1034" r="6" class="c0"/>
<circle cx="1014" cy="1034" r="6" class="c0"/>
<circle cx="1146" cy="724" r="6" class="c0"/>
<circle cx="1098" cy="956" r="6" class="c0"/>
<circle cx="906" cy="1052" r="6" class="c0"/>
<circle cx="996" cy="750" r="6" class="c0"/>
<circle cx="948" cy="1078" r="6" class="c0"/>
<circle cx="856" cy="914" r="6" class="c0"/>
<circle cx="1028" cy="818" r="6" class="c0"/>
<circle cx="1072" cy="854" r="6" class="c0"/>
<circle cx="1138" cy="1032" r="6" class="c0"/>
<circle cx="1178" cy="986" r="6" class="c0"/>
<circle cx="918" cy="1062" r="6" class="c0"/>
<circle cx="1138" cy="1010" r="6" class="c0"/>
<circle cx="910" cy="850" r="6" class="c0"/>
<circle cx="1086" cy="778" r="6" class="c0"/>
</svg>
