<?xml version="1.0" encoding="utf-8"?>
<svg xmlns="http://www.w3.org/2000/svg"
     xmlns:xlink="http://www.w3.org/1999/xlink" width="1920" height="1440" >

            <defs>
            <style type="text/css"><![CDATA[
circle {stroke: none;}
.c0 {fill: #FFFFFF;}
]]></style>
            </defs>
<rect x="0" y="0" width="1920" height="1440" fill="black"/>
<circle cx="908" cy="682" r="12" class="c0"/>
<circle cx="858" cy="970" r="12" class="c0"/>
<circle cx="870" cy="824" r="12" class="c0"/>
<circle cx="1094" cy="1038" r="12" class="c0"/>
<circle cx="1040" cy="778" r="12" class="c0"/>
<circle cx="1142" cy="1040" r="12" class="c0"/>
<circle cx="878" cy="1138" r="12" class="c0"/>
<circle cx="764" cy="1112" r="12" class="c0"/>
<circle cx="978" cy="782" r="12" class="c0"/>
<circle cx="896" cy="946" r="12" class="c0"/>
<circle cx="958" cy="794" r="12" class="c0"/>
<circle cx="830" cy="768" r="12" class="c0"/>
<circle cx="644" cy="984" r="12" class="c0"/>
<circle cx="838" cy="850" r="12" class="c0"/>
<circle cx="1134" cy="752" r="12" class="c0"/>
<circle cx="1044" cy="950" r="12" class="c0"/>
<circle cx="672" cy="1008" r="12" class="c0"/>
<circle cx="1118" cy="1118" r="12" class="c0"/>
<circle cx="792" cy="1070" r="12" class="c0"/>
<circle cx="1060" cy="826" r="12" class="c0"/>
<circle cx="848" cy="1050" r="12" class="c0"/>
<circle cx="1160" cy="1026" r="12" class="c0"/>
<circle cx="900" cy="748" r="12" class="c0"/>
<circle cx="752" cy="1006" r="12" class="c0"/>
<circle cx="1206" cy="908" r="12" class="c0"/>
<circle cx="1040" cy="1092" r="12" class="c0"/>
<circle cx="816" cy="960" r="12" class="c0"/>
<circle cx="820" cy="994" r="12" class="c0"/>
<circle cx="978" cy="698" r="12" class="c0"/>
<circle cx="846" cy="1152" r="12" class="c0"/>
<circle cx="1100" cy="900" r="12" class="c0"/>
<circle cx="726" cy="928" r="12" class="c0"/>
<circle cx="1088" cy="842" r="12" class="c0"/>
<circle cx="752" cy="962" r="12" class="c0"/>
<circle cx="1064" cy="1144" r="12" class="c0"/>
<circle cx="856" cy="1110" r="12" class="c0"/>
<circle cx="1064" cy="1012" r="12" class="c0"/>
<circle cx="1106" cy="720" r="12" class="c0"/>
<circle cx="890" cy="1044" r="12" class="c0"/>
<circle cx="1198" cy="1118" r="12" class="c0"/>
<circle cx="1020" cy="1012" r="12" class="c0"/>
<circle cx="774" cy="786" r="12" class="c0"/>
<circle cx="848" cy="930" r="12" class="c0"/>
<circle cx="1148" cy="872" r="12" class="c0"/>
<circle cx="982" cy="1114" r="12" class="c0"/>
<circle cx="906" cy="708" r="12" class="c0"/>
<circle cx="864" cy="882" r="12" class="c0"/>
<circle cx="846" cy="816" r="12" class="c0"/>
<circle cx="762" cy="926" r="12" class="c0"/>
<circle cx="820" cy="1136" r="12" class="c0"/>
<circle cx="662" cy="1038" r="12" class="c0"/>
<circle cx="796" cy="736" r="12" class="c0"/>
<circle cx="1258" cy="1014" r="12" class="c0"/>
<circle cx="868" cy="1070" r="12" class="c0"/>
<circle cx="1076" cy="958" r="10" class="c0"/>
<circle cx="942" cy="950" r="10" class="c0"/>
<circle cx="1168" cy="1064" r="10" class="c0"/>
<circle cx="1044" cy="864" r="10" class="c0"/>
<circle cx="686" cy="990" r="10" class="c0"/>
<circle cx="676" cy="1078" r="10" class="c0"/>
<circle cx="870" cy="714" r="10" class="c0"/>
<circle cx="832" cy="1034" r="10" class="c0"/>
<circle cx="1162" cy="758" r="10" class="c0"/>
<circle cx="1144" cy="818" r="10" class="c0"/>
<circle cx="1256" cy="960" r="10" class="c0"/>
<circle cx="932" cy="1026" r="10" class="c0"/>
<circle cx="1164" cy="958" r="10" class="c0"/>
<circle cx="1162" cy="918" r="10" class="c0"/>
<circle cx="1112" cy="788" r="10" class="c0"/>
<circle cx="1030" cy="1068" r="10" class="c0"/>
<circle cx="742" cy="904" r="10" class="c0"/>
<circle cx="970" cy="1084" r="10" class="c0"/>
<circle cx="926" cy="826" r="10" class="c0"/>
<circle cx="1172" cy="1104" r="10" class="c0"/>
<circle cx="1088" cy="870" r="10" class="c0"/>
<circle cx="1016" cy="1106" r="10" class="c0"/>
<circle cx="1286" cy="1040" r="10" class="c0"/>
<circle cx="856" cy="788" r="10" class="c0"/>
<circle cx="792" cy="1134" r="10" class="c0"/>
<circle cx="826" cy="872" r="10" class="c0"/>
<circle cx="1040" cy="1024" r="10" class="c0"/>
<circle cx="1104" cy="964" r="10" class="c0"/>
<circle cx="880" cy="1092" r="10" class="c0"/>
<circle cx="1188" cy="950" r="10" class="c0"/>
<circle cx="950" cy="998" r="10" class="c0"/>
<circle cx="954" cy="1130" r="10" class="c0"/>
<circle cx="802" cy="1154" r="10" class="c0"/>
<circle cx="648" cy="960" r="10" class="c0"/>
<circle cx="1180" cy="888" r="10" class="c0"/>
<circle cx="1000" cy="740" r="10" class="c0"/>
<circle cx="766" cy="822" r="10" class="c0"/>
<circle cx="1196" cy="1060" r="10" class="c0"/>
<circle cx="992" cy="812" r="10" class="c0"/>
<circle cx="952" cy="856" r="10" class="c0"/>
<circle cx="1038" cy="748" r="10" class="c0"/>
<circle cx="1070" cy="1092" r="10" class="c0"/>
<circle cx="642" cy="1024" r="10" class="c0"/>
<circle cx="1268" cy="974" r="10" class="c0"/>
<circle cx="1008" cy="1144" r="10" class="c0"/>
<circle cx="792" cy="906" r="10" class="c0"/>
<circle cx="1134" cy="1138" r="10" class="c0"/>
<circle cx="742" cy="1030" r="10" class="c0"/>
<circle cx="952" cy="1094" r="10" class="c0"/>
<circle cx="978" cy="904" r="10" class="c0"/>
<circle cx="1116" cy="812" r="10" class="c0"/>
<circle cx="722" cy="956" r="10" class="c0"/>
<circle cx="772" cy="852" r="10" class="c0"/>
<circle cx="1180" cy="980" r="10" class="c0"/>
<circle cx="1022" cy="700" r="10" class="c0"/>
<circle cx="714" cy="1020" r="10" class="c0"/>
<circle cx="906" cy="1118" r="10" class="c0"/>
<circle cx="796" cy="1032" r="10" class="c0"/>
<circle cx="1018" cy="856" r="10" class="c0"/>
<circle cx="764" cy="722" r="10" class="c0"/>
<circle cx="1276" cy="996" r="10" class="c0"/>
<circle cx="824" cy="1100" r="10" class="c0"/>
<circle cx="938" cy="1072" r="10" class="c0"/>
<circle cx="936" cy="878" r="10" class="c0"/>
<circle cx="996" cy="940" r="10" class="c0"/>
<circle cx="1002" cy="642" r="10" class="c0"/>
<circle cx="700" cy="1096" r="10" class="c0"/>
<circle cx="934" cy="906" r="10" class="c0"/>
<circle cx="1072" cy="980" r="10" class="c0"/>
<circle cx="784" cy="984" r="10" class="c0"/>
<circle cx="1098" cy="774" r="10" class="c0"/>
<circle cx="1198" cy="1012" r="10" class="c0"/>
<circle cx="1116" cy="942" r="10" class="c0"/>
<circle cx="930" cy="1120" r="10" class="c0"/>
<circle cx="1162" cy="990" r="10" class="c0"/>
<circle cx="1240" cy="1038" r="10" class="c0"/>
<circle cx="888" cy="910" r="10" class="c0"/>
<circle cx="982" cy="728" r="10" class="c0"/>
<circle cx="856" cy="1004" r="10" class="c0"/>
<circle cx="902" cy="986" r="10" class="c0"/>
<circle cx="626" cy="972" r="10" class="c0"/>
<circle cx="1146" cy="728" r="10" class="c0"/>
<circle cx="750" cy="1134" r="10" class="c0"/>
<circle cx="1178" cy="1138" r="10" class="c0"/>
<circle cx="1022" cy="982" r="10" class="c0"/>
<circle cx="1108" cy="1056" r="10" class="c0"/>
<circle cx="1060" cy="1056" r="10" class="c0"/>
<circle cx="818" cy="720" r="10" class="c0"/>
<circle cx="1006" cy="842" r="10" class="c0"/>
<circle cx="1142" cy="794" r="10" class="c0"/>
<circle cx="716" cy="1122" r="10" class="c0"/>
<circle cx="1130" cy="982" r="10" class="c0"/>
<circle cx="1060" cy="886" r="10" class="c0"/>
<circle cx="1014" cy="1046" r="10" class="c0"/>
<circle cx="1068" cy="760" r="10" class="c0"/>
<circle cx="878" cy="792" r="10" class="c0"/>
<circle cx="944" cy="762" r="10" class="c0"/>
<circle cx="774" cy="892" r="10" class="c0"/>
<circle cx="1004" cy="1026" r="10" class="c0"/>
<circle cx="942" cy="1162" r="10" class="c0"/>
<circle cx="726" cy="992" r="10" class="c0"/>
<circle cx="710" cy="944" r="10" class="c0"/>
<circle cx="1012" cy="778" r="10" class="c0"/>
<circle cx="1092" cy="700" r="10" class="c0"/>
<circle cx="1076" cy="740" r="10" class="c0"/>
<circle cx="878" cy="1012" r="10" class="c0"/>
<circle cx="898" cy="846" r="10" class="c0"/>
<circle cx="1148" cy="1114" r="10" class="c0"/>
<circle cx="992" cy="962" r="10" class="c0"/>
<circle cx="926" cy="1054" r="10" class="c0"/>
<circle cx="1116" cy="884" r="10" class="c0"/>
<circle cx="982" cy="868" r="10" class="c0"/>
<circle cx="964" cy="1052" r="10" class="c0"/>
<circle cx="932" cy="928" r="10" class="c0"/>
<circle cx="1142" cy="952" r="10" class="c0"/>
<circle cx="842" cy="678" r="10" class="c0"/>
<circle cx="1084" cy="662" r="10" class="c0"/>
<circle cx="1192" cy="1036" r="10" class="c0"/>
<circle cx="940" cy="810" r="10" class="c0"/>
<circle cx="614" cy="1024" r="10" class="c0"/>
<circle cx="730" cy="740" r="10" class="c0"/>
<circle cx="1074" cy="1068" r="10" class="c0"/>
<circle cx="1240" cy="1084" r="10" class="c0"/>
<circle cx="866" cy="852" r="8" class="c0"/>
<circle cx="908" cy="1178" r="8" class="c0"/>
<circle cx="772" cy="952" r="8" class="c0"/>
<circle cx="924" cy="752" r="8" class="c0"/>
<circle cx="926" cy="854" r="8" class="c0"/>
<circle cx="1122" cy="1080" r="8" class="c0"/>
<circle cx="910" cy="1082" r="8" class="c0"/>
<circle cx="1060" cy="1116" r="8" class="c0"/>
<circle cx="1004" cy="890" r="8" class="c0"/>
<circle cx="1012" cy="754" r="8" class="c0"/>
<circle cx="702" cy="1042" r="8" class="c0"/>
<circle cx="922" cy="666" r="8" class="c0"/>
<circle cx="968" cy="1166" r="8" class="c0"/>
<circle cx="680" cy="944" r="8" class="c0"/>
<circle cx="762" cy="1040" r="8" class="c0"/>
<circle cx="916" cy="786" r="8" class="c0"/>
<circle cx="804" cy="844" r="8" class="c0"/>
<circle cx="968" cy="970" r="8" class="c0"/>
<circle cx="992" cy="1170" r="8" class="c0"/>
<circle cx="1150" cy="686" r="8" class="c0"/>
<circle cx="1086" cy="1106" r="8" class="c0"/>
<circle cx="912" cy="1014" r="8" class="c0"/>
<circle cx="1062" cy="908" r="8" class="c0"/>
<circle cx="1076" cy="898" r="8" class="c0"/>
<circle cx="1100" cy="1004" r="8" class="c0"/>
<circle cx="1052" cy="804" r="8" class="c0"/>
<circle cx="964" cy="760" r="8" class="c0"/>
<circle cx="746" cy="768" r="8" class="c0"/>
<circle cx="816" cy="696" r="8" class="c0"/>
<circle cx="1200" cy="936" r="8" class="c0"/>
<circle cx="1050" cy="1166" r="8" class="c0"/>
<circle cx="644" cy="1060" r="8" class="c0"/>
<circle cx="1114" cy="848" r="8" class="c0"/>
<circle cx="996" cy="672" r="8" class="c0"/>
<circle cx="1166" cy="1124" r="8" class="c0"/>
<circle cx="828" cy="892" r="8" class="c0"/>
<circle cx="1260" cy="1058" r="8" class="c0"/>
<circle cx="1124" cy="902" r="8" class="c0"/>
<circle cx="742" cy="1114" r="8" class="c0"/>
<circle cx="1034" cy="842" r="8" class="c0"/>
<circle cx="872" cy="940" r="8" class="c0"/>
<circle cx="1306" cy="1002" r="8" class="c0"/>
<circle cx="1028" cy="1164" r="8" class="c0"/>
<circle cx="1084" cy="790" r="8" class="c0"/>
<circle cx="1210" cy="1090" r="8" class="c0"/>
<circle cx="812" cy="920" r="8" class="c0"/>
<circle cx="1146" cy="768" r="8" class="c0"/>
<circle cx="1224" cy="990" r="8" class="c0"/>
<circle cx="876" cy="866" r="8" class="c0"/>
<circle cx="986" cy="1066" r="8" class="c0"/>
<circle cx="972" cy="998" r="8" class="c0"/>
<circle cx="906" cy="772" r="8" class="c0"/>
<circle cx="904" cy="1140" r="8" class="c0"/>
<circle cx="986" cy="1136" r="8" class="c0"/>
<circle cx="1064" cy="862" r="8" class="c0"/>
<circle cx="958" cy="930" r="8" class="c0"/>
<circle cx="1054" cy="712" r="8" class="c0"/>
<circle cx="1022" cy="930" r="8" class="c0"/>
<circle cx="910" cy="864" r="8" class="c0"/>
<circle cx="730" cy="890" r="8" class="c0"/>
<circle cx="1222" cy="962" r="8" class="c0"/>
<circle cx="978" cy="824" r="8" class="c0"/>
<circle cx="726" cy="1088" r="8" class="c0"/>
<circle cx="808" cy="782" r="8" class="c0"/>
<circle cx="758" cy="800" r="8" class="c0"/>
<circle cx="930" cy="982" r="8" class="c0"/>
<circle cx="932" cy="686" r="8" class="c0"/>
<circle cx="792" cy="966" r="8" class="c0"/>
<circle cx="660" cy="1088" r="8" class="c0"/>
<circle cx="912" cy="914" r="8" class="c0"/>
<circle cx="1230" cy="932" r="8" class="c0"/>
<circle cx="1022" cy="956" r="8" class="c0"/>
<circle cx="1108" cy="742" r="8" class="c0"/>
<circle cx="1000" cy="696" r="8" class="c0"/>
<circle cx="948" cy="722" r="8" class="c0"/>
<circle cx="966" cy="1026" r="8" class="c0"/>
<circle cx="1182" cy="748" r="8" class="c0"/>
<circle cx="814" cy="806" r="8" class="c0"/>
<circle cx="758" cy="882" r="8" class="c0"/>
<circle cx="1218" cy="1022" r="8" class="c0"/>
<circle cx="1162" cy="896" r="8" class="c0"/>
<circle cx="870" cy="1030" r="8" class="c0"/>
<circle cx="1212" cy="950" r="8" class="c0"/>
<circle cx="1256" cy="992" r="8" class="c0"/>
<circle cx="1170" cy="796" r="8" class="c0"/>
<circle cx="882" cy="972" r="8" class="c0"/>
<circle cx="834" cy="710" r="8" class="c0"/>
<circle cx="952" cy="684" r="8" class="c0"/>
<circle cx="954" cy="744" r="8" class="c0"/>
<circle cx="1090" cy="1126" r="8" class="c0"/>
<circle cx="1130" cy="926" r="8" class="c0"/>
<circle cx="970" cy="942" r="8" class="c0"/>
<circle cx="1182" cy="1088" r="8" class="c0"/>
<circle cx="784" cy="1016" r="8" class="c0"/>
<circle cx="1032" cy="880" r="8" class="c0"/>
<circle cx="1188" cy="726" r="8" class="c0"/>
<circle cx="1012" cy="1082" r="8" class="c0"/>
<circle cx="816" cy="1016" r="8" class="c0"/>
<circle cx="788" cy="1094" r="8" class="c0"/>
<circle cx="828" cy="1062" r="8" class="c0"/>
<circle cx="922" cy="1138" r="8" class="c0"/>
<circle cx="1154" cy="704" r="8" class="c0"/>
<circle cx="828" cy="826" r="8" class="c0"/>
<circle cx="632" cy="940" r="8" class="c0"/>
<circle cx="810" cy="862" r="8" class="c0"/>
<circle cx="724" cy="762" r="8" class="c0"/>
<circle cx="1048" cy="972" r="8" class="c0"/>
<circle cx="876" cy="690" r="8" class="c0"/>
<circle cx="852" cy="762" r="8" class="c0"/>
<circle cx="748" cy="1084" r="8" class="c0"/>
<circle cx="1074" cy="810" r="8" class="c0"/>
<circle cx="1266" cy="1084" r="8" class="c0"/>
<circle cx="1054" cy="738" r="8" class="c0"/>
<circle cx="850" cy="730" r="8" class="c0"/>
<circle cx="1252" cy="1100" r="8" class="c0"/>
<circle cx="1286" cy="956" r="8" class="c0"/>
<circle cx="1066" cy="1034" r="8" class="c0"/>
<circle cx="690" cy="934" r="8" class="c0"/>
<circle cx="1212" cy="974" r="8" class="c0"/>
<circle cx="1012" cy="682" r="8" class="c0"/>
<circle cx="962" cy="882" r="8" class="c0"/>
<circle cx="888" cy="1166" r="8" class="c0"/>
<circle cx="1260" cy="940" r="8" class="c0"/>
<circle cx="1124" cy="1030" r="8" class="c0"/>
<circle cx="702" cy="970" r="8" class="c0"/>
<circle cx="1054" cy="1078" r="8" class="c0"/>
<circle cx="1216" cy="1054" r="8" class="c0"/>
<circle cx="660" cy="946" r="8" class="c0"/>
<circle cx="810" cy="824" r="8" class="c0"/>
<circle cx="780" cy="872" r="8" class="c0"/>
<circle cx="1218" cy="1108" r="8" class="c0"/>
<circle cx="682" cy="970" r="8" class="c0"/>
<circle cx="1148" cy="1088" r="8" class="c0"/>
<circle cx="1040" cy="1124" r="8" class="c0"/>
<circle cx="1022" cy="808" r="8" class="c0"/>
<circle cx="950" cy="704" r="8" class="c0"/>
<circle cx="1120" cy="1150" r="8" class="c0"/>
<circle cx="1116" cy="1014" r="8" class="c0"/>
<circle cx="950" cy="832" r="8" class="c0"/>
<circle cx="608" cy="984" r="8" class="c0"/>
<circle cx="1134" cy="1062" r="8" class="c0"/>
<circle cx="1236" cy="980" r="8" class="c0"/>
<circle cx="924" cy="1100" r="8" class="c0"/>
<circle cx="876" cy="738" r="8" class="c0"/>
<circle cx="902" cy="810" r="8" class="c0"/>
<circle cx="838" cy="1126" r="8" class="c0"/>
<circle cx="1234" cy="1004" r="8" class="c0"/>
<circle cx="856" cy="1134" r="8" class="c0"/>
<circle cx="866" cy="916" r="8" class="c0"/>
<circle cx="892" cy="878" r="8" class="c0"/>
<circle cx="792" cy="882" r="8" class="c0"/>
<circle cx="1020" cy="826" r="8" class="c0"/>
<circle cx="688" cy="1108" r="8" class="c0"/>
<circle cx="722" cy="906" r="8" class="c0"/>
<circle cx="1004" cy="1000" r="8" class="c0"/>
<circle cx="1094" cy="1088" r="8" class="c0"/>
<circle cx="764" cy="696" r="8" class="c0"/>
<circle cx="734" cy="974" r="8" class="c0"/>
<circle cx="764" cy="1062" r="8" class="c0"/>
<circle cx="836" cy="914" r="8" class="c0"/>
<circle cx="844" cy="956" r="8" class="c0"/>
<circle cx="1056" cy="990" r="8" class="c0"/>
<circle cx="1056" cy="694" r="8" class="c0"/>
<circle cx="1088" cy="1152" r="8" class="c0"/>
<circle cx="1148" cy="906" r="8" class="c0"/>
<circle cx="768" cy="1080" r="8" class="c0"/>
<circle cx="730" cy="782" r="8" class="c0"/>
<circle cx="912" cy="1156" r="8" class="c0"/>
<circle cx="940" cy="1142" r="8" class="c0"/>
<circle cx="1022" cy="902" r="8" class="c0"/>
<circle cx="1064" cy="784" r="8" class="c0"/>
<circle cx="838" cy="984" r="8" class="c0"/>
<circle cx="1234" cy="1060" r="8" class="c0"/>
<circle cx="928" cy="716" r="8" class="c0"/>
<circle cx="934" cy="784" r="8" class="c0"/>
<circle cx="1044" cy="912" r="8" class="c0"/>
<circle cx="1034" cy="728" r="8" class="c0"/>
<circle cx="1244" cy="920" r="8" class="c0"/>
<circle cx="870" cy="756" r="8" class="c0"/>
<circle cx="900" cy="1068" r="8" class="c0"/>
<circle cx="686" cy="1030" r="8" class="c0"/>
<circle cx="792" cy="860" r="8" class="c0"/>
<circle cx="632" cy="1008" r="8" class="c0"/>
<circle cx="920" cy="960" r="8" class="c0"/>
<circle cx="802" cy="1118" r="8" class="c0"/>
<circle cx="760" cy="744" r="8" class="c0"/>
<circle cx="748" cy="1054" r="8" class="c0"/>
<circle cx="814" cy="1078" r="8" class="c0"/>
<circle cx="696" cy="914" r="8" class="c0"/>
<circle cx="926" cy="1000" r="8" class="c0"/>
<circle cx="948" cy="974" r="8" class="c0"/>
<circle cx="1130" cy="840" r="8" class="c0"/>
<circle cx="794" cy="710" r="8" class="c0"/>
<circle cx="738" cy="944" r="8" class="c0"/>
<circle cx="994" cy="1086" r="8" class="c0"/>
<circle cx="730" cy="1066" r="8" class="c0"/>
<circle cx="1242" cy="946" r="8" class="c0"/>
<circle cx="932" cy="736" r="8" class="c0"/>
<circle cx="800" cy="1006" r="8" class="c0"/>
<circle cx="986" cy="1044" r="8" class="c0"/>
<circle cx="1202" cy="964" r="8" class="c0"/>
<circle cx="790" cy="810" r="8" class="c0"/>
<circle cx="952" cy="1036" r="8" class="c0"/>
<circle cx="764" cy="1022" r="8" class="c0"/>
<circle cx="912" cy="888" r="8" class="c0"/>
<circle cx="984" cy="1020" r="8" class="c0"/>
<circle cx="688" cy="1058" r="8" class="c0"/>
<circle cx="860" cy="1168" r="8" class="c0"/>
<circle cx="724" cy="1048" r="8" class="c0"/>
<circle cx="772" cy="764" r="8" class="c0"/>
<circle cx="900" cy="1098" r="8" class="c0"/>
<circle cx="678" cy="1098" r="8" class="c0"/>
<circle cx="850" cy="696" r="8" class="c0"/>
<circle cx="1004" cy="1120" r="8" class="c0"/>
<circle cx="1074" cy="932" r="8" class="c0"/>
<circle cx="1100" cy="1136" r="8" class="c0"/>
<circle cx="624" cy="1044" r="8" class="c0"/>
<circle cx="1298" cy="980" r="8" class="c0"/>
<circle cx="1182" cy="924" r="8" class="c0"/>
<circle cx="794" cy="930" r="8" class="c0"/>
<circle cx="810" cy="1052" r="8" class="c0"/>
<circle cx="1146" cy="1004" r="8" class="c0"/>
<circle cx="1006" cy="1064" r="8" class="c0"/>
<circle cx="708" cy="1068" r="8" class="c0"/>
<circle cx="890" cy="726" r="8" class="c0"/>
<circle cx="1012" cy="1174" r="8" class="c0"/>
<circle cx="980" cy="926" r="8" class="c0"/>
<circle cx="790" cy="762" r="8" class="c0"/>
<circle cx="1022" cy="1130" r="8" class="c0"/>
<circle cx="1186" cy="766" r="8" class="c0"/>
<circle cx="1094" cy="816" r="8" class="c0"/>
<circle cx="992" cy="986" r="8" class="c0"/>
<circle cx="1088" cy="946" r="8" class="c0"/>
<circle cx="886" cy="1112" r="8" class="c0"/>
<circle cx="958" cy="1180" r="8" class="c0"/>
<circle cx="1044" cy="1044" r="8" class="c0"/>
<circle cx="1238" cy="1120" r="8" class="c0"/>
<circle cx="1042" cy="1004" r="8" class="c0"/>
<circle cx="872" cy="988" r="8" class="c0"/>
<circle cx="1092" cy="982" r="8" class="c0"/>
<circle cx="982" cy="750" r="8" class="c0"/>
<circle cx="974" cy="1148" r="8" class="c0"/>
<circle cx="1030" cy="1146" r="8" class="c0"/>
<circle cx="832" cy="734" r="8" class="c0"/>
<circle cx="914" cy="648" r="8" class="c0"/>
<circle cx="1008" cy="722" r="8" class="c0"/>
<circle cx="1126" cy="1004" r="8" class="c0"/>
<circle cx="792" cy="830" r="8" class="c0"/>
<circle cx="816" cy="752" r="8" class="c0"/>
<circle cx="1136" cy="1098" r="8" class="c0"/>
<circle cx="996" cy="1054" r="8" class="c0"/>
<circle cx="1038" cy="818" r="8" class="c0"/>
<circle cx="896" cy="782" r="8" class="c0"/>
<circle cx="772" cy="996" r="8" class="c0"/>
<circle cx="708" cy="896" r="8" class="c0"/>
<circle cx="828" cy="938" r="8" class="c0"/>
<circle cx="978" cy="848" r="8" class="c0"/>
<circle cx="850" cy="1082" r="8" class="c0"/>
<circle cx="1054" cy="932" r="8" class="c0"/>
<circle cx="1088" cy="758" r="8" class="c0"/>
<circle cx="1134" cy="704" r="8" class="c0"/>
<circle cx="1262" cy="1040" r="8" class="c0"/>
<circle cx="1174" cy="776" r="8" class="c0"/>
<circle cx="1104" cy="830" r="8" class="c0"/>
<circle cx="1088" cy="922" r="8" class="c0"/>
<circle cx="770" cy="972" r="8" class="c0"/>
<circle cx="664" cy="928" r="8" class="c0"/>
<circle cx="1010" cy="970" r="8" class="c0"/>
<circle cx="1140" cy="852" r="8" class="c0"/>
<circle cx="990" cy="766" r="8" class="c0"/>
<circle cx="1098" cy="932" r="8" class="c0"/>
<circle cx="1114" cy="1096" r="8" class="c0"/>
<circle cx="1124" cy="962" r="8" class="c0"/>
<circle cx="1156" cy="1154" r="8" class="c0"/>
<circle cx="1288" cy="1018" r="8" class="c0"/>
<circle cx="804" cy="976" r="8" class="c0"/>
<circle cx="1216" cy="1128" r="8" class="c0"/>
<circle cx="816" cy="1166" r="8" class="c0"/>
<circle cx="1174" cy="1012" r="8" class="c0"/>
<circle cx="994" cy="856" r="8" class="c0"/>
<circle cx="664" cy="972" r="8" class="c0"/>
<circle cx="854" cy="838" r="8" class="c0"/>
<circle cx="1110" cy="984" r="8" class="c0"/>
<circle cx="848" cy="902" r="8" class="c0"/>
<circle cx="828" cy="666" r="8" class="c0"/>
<circle cx="1224" cy="1072" r="8" class="c0"/>
<circle cx="1202" cy="988" r="8" class="c0"/>
<circle cx="884" cy="764" r="6" class="c0"/>
<circle cx="1282" cy="1058" r="6" class="c0"/>
<circle cx="842" cy="744" r="6" class="c0"/>
<circle cx="666" cy="1062" r="6" class="c0"/>
<circle cx="1172" cy="736" r="6" class="c0"/>
<circle cx="784" cy="1118" r="6" class="c0"/>
<circle cx="916" cy="938" r="6" class="c0"/>
<circle cx="1160" cy="940" r="6" class="c0"/>
<circle cx="1304" cy="1028" r="6" class="c0"/>
<circle cx="836" cy="1010" r="6" class="c0"/>
<circle cx="756" cy="676" r="6" class="c0"/>
<circle cx="912" cy="630" r="6" class="c0"/>
<circle cx="1118" cy="764" r="6" class="c0"/>
<circle cx="818" cy="902" r="6" class="c0"/>
<circle cx="960" cy="818" r="6" class="c0"/>
<circle cx="986" cy="888" r="6" class="c0"/>
<circle cx="1092" cy="1064" r="6" class="c0"/>
<circle cx="1110" cy="864" r="6" class="c0"/>
<circle cx="992" cy="710" r="6" class="c0"/>
<circle cx="914" cy="734" r="6" class="c0"/>
<circle cx="800" cy="948" r="6" class="c0"/>
<circle cx="880" cy="956" r="6" class="c0"/>
<circle cx="1164" cy="1086" r="6" class="c0"/>
<circle cx="626" cy="1068" r="6" class="c0"/>
<circle cx="1074" cy="688" r="6" class="c0"/>
<circle cx="840" cy="1072" r="6" class="c0"/>
<circle cx="1196" cy="1080" r="6" class="c0"/>
<circle cx="948" cy="920" r="6" class="c0"/>
<circle cx="1108" cy="1160" r="6" class="c0"/>
<circle cx="694" cy="1010" r="6" class="c0"/>
<circle cx="1050" cy="762" r="6" class="c0"/>
<circle cx="1026" cy="762" r="6" class="c0"/>
<circle cx="906" cy="1030" r="6" class="c0"/>
<circle cx="918" cy="808" r="6" class="c0"/>
<circle cx="748" cy="810" r="6" class="c0"/>
<circle cx="1206" cy="698" r="6" class="c0"/>
<circle cx="1086" cy="1018" r="6" class="c0"/>
<circle cx="1140" cy="890" r="6" class="c0"/>
<circle cx="772" cy="1136" r="6" class="c0"/>
<circle cx="1184" cy="1000" r="6" class="c0"/>
<circle cx="1162" cy="820" r="6" class="c0"/>
<circle cx="826" cy="792" r="6" class="c0"/>
<circle cx="994" cy="918" r="6" class="c0"/>
<circle cx="840" cy="1092" r="6" class="c0"/>
<circle cx="1078" cy="714" r="6" class="c0"/>
<circle cx="902" cy="926" r="6" class="c0"/>
<circle cx="878" cy="894" r="6" class="c0"/>
<circle cx="782" cy="720" r="6" class="c0"/>
<circle cx="1160" cy="1048" r="6" class="c0"/>
<circle cx="1126" cy="776" r="6" class="c0"/>
<circle cx="1008" cy="916" r="6" class="c0"/>
<circle cx="954" cy="900" r="6" class="c0"/>
<circle cx="1038" cy="928" r="6" class="c0"/>
<circle cx="634" cy="1078" r="6" class="c0"/>
<circle cx="892" cy="826" r="6" class="c0"/>
<circle cx="1212" cy="1000" r="6" class="c0"/>
<circle cx="824" cy="682" r="6" class="c0"/>
<circle cx="622" cy="992" r="6" class="c0"/>
<circle cx="706" cy="990" r="6" class="c0"/>
<circle cx="882" cy="810" r="6" class="c0"/>
<circle cx="1294" cy="1080" r="6" class="c0"/>
<circle cx="848" cy="1026" r="6" class="c0"/>
<circle cx="758" cy="842" r="6" class="c0"/>
<circle cx="780" cy="1044" r="6" class="c0"/>
<circle cx="806" cy="1098" r="6" class="c0"/>
<circle cx="1078" cy="1050" r="6" class="c0"/>
<circle cx="694" cy="1124" r="6" class="c0"/>
<circle cx="1044" cy="894" r="6" class="c0"/>
<circle cx="610" cy="1004" r="6" class="c0"/>
<circle cx="1010" cy="798" r="6" class="c0"/>
<circle cx="950" cy="1018" r="6" class="c0"/>
<circle cx="1124" cy="860" r="6" class="c0"/>
<circle cx="1186" cy="906" r="6" class="c0"/>
<circle cx="654" cy="1104" r="6" class="c0"/>
<circle cx="1148" cy="972" r="6" class="c0"/>
<circle cx="750" cy="786" r="6" class="c0"/>
<circle cx="1084" cy="998" r="6" class="c0"/>
<circle cx="944" cy="1050" r="6" class="c0"/>
<circle cx="1138" cy="1020" r="6" class="c0"/>
<circle cx="1094" cy="734" r="6" class="c0"/>
<circle cx="776" cy="734" r="6" class="c0"/>
<circle cx="1156" cy="784" r="6" class="c0"/>
<circle cx="1092" cy="678" r="6" class="c0"/>
<circle cx="1114" cy="916" r="6" class="c0"/>
<circle cx="732" cy="1010" r="6" class="c0"/>
<circle cx="860" cy="744" r="6" class="c0"/>
<circle cx="680" cy="922" r="6" class="c0"/>
<circle cx="908" cy="1052" r="6" class="c0"/>
<circle cx="808" cy="884" r="6" class="c0"/>
<circle cx="988" cy="834" r="6" class="c0"/>
<circle cx="1040" cy="988" r="6" class="c0"/>
<circle cx="1158" cy="834" r="6" class="c0"/>
<circle cx="946" cy="1112" r="6" class="c0"/>
<circle cx="1022" cy="738" r="6" class="c0"/>
<circle cx="968" cy="682" r="6" class="c0"/>
<circle cx="962" cy="714" r="6" class="c0"/>
<circle cx="990" cy="1152" r="6" class="c0"/>
<circle cx="798" cy="794" r="6" class="c0"/>
<circle cx="900" cy="1004" r="6" class="c0"/>
<circle cx="1154" cy="1136" r="6" class="c0"/>
<circle cx="840" cy="1172" r="6" class="c0"/>
<circle cx="916" cy="840" r="6" class="c0"/>
<circle cx="1002" cy="870" r="6" class="c0"/>
<circle cx="1228" cy="916" r="6" class="c0"/>
<circle cx="744" cy="750" r="6" class="c0"/>
<circle cx="760" cy="902" r="6" class="c0"/>
<circle cx="766" cy="1148" r="6" class="c0"/>
<circle cx="894" cy="1020" r="6" class="c0"/>
<circle cx="1076" cy="1164" r="6" class="c0"/>
<circle cx="1094" cy="646" r="6" class="c0"/>
<circle cx="1096" cy="800" r="6" class="c0"/>
<circle cx="878" cy="1176" r="6" class="c0"/>
<circle cx="1200" cy="714" r="6" class="c0"/>
<circle cx="884" cy="836" r="6" class="c0"/>
<circle cx="1164" cy="668" r="6" class="c0"/>
<circle cx="856" cy="864" r="6" class="c0"/>
<circle cx="656" cy="998" r="6" class="c0"/>
<circle cx="1226" cy="1094" r="6" class="c0"/>
<circle cx="1040" cy="698" r="6" class="c0"/>
<circle cx="774" cy="708" r="6" class="c0"/>
<circle cx="782" cy="1148" r="6" class="c0"/>
<circle cx="1026" cy="1034" r="6" class="c0"/>
<circle cx="808" cy="938" r="6" class="c0"/>
<circle cx="1200" cy="756" r="6" class="c0"/>
<circle cx="1116" cy="704" r="6" class="c0"/>
<circle cx="782" cy="942" r="6" class="c0"/>
<circle cx="1008" cy="660" r="6" class="c0"/>
<circle cx="1158" cy="740" r="6" class="c0"/>
<circle cx="612" cy="1058" r="6" class="c0"/>
<circle cx="976" cy="804" r="6" class="c0"/>
<circle cx="838" cy="786" r="6" class="c0"/>
<circle cx="728" cy="1134" r="6" class="c0"/>
<circle cx="894" cy="1150" r="6" class="c0"/>
<circle cx="980" cy="674" r="6" class="c0"/>
<circle cx="1176" cy="1046" r="6" class="c0"/>
<circle cx="1004" cy="624" r="6" class="c0"/>
<circle cx="1216" cy="924" r="6" class="c0"/>
<circle cx="1320" cy="1020" r="6" class="c0"/>
<circle cx="996" cy="794" r="6" class="c0"/>
<circle cx="740" cy="800" r="6" class="c0"/>
<circle cx="870" cy="1158" r="6" class="c0"/>
<circle cx="820" cy="840" r="6" class="c0"/>
<circle cx="1054" cy="850" r="6" class="c0"/>
<circle cx="842" cy="880" r="6" class="c0"/>
<circle cx="650" cy="1076" r="6" class="c0"/>
<circle cx="834" cy="800" r="6" class="c0"/>
<circle cx="1152" cy="1056" r="6" class="c0"/>
<circle cx="760" cy="986" r="6" class="c0"/>
<circle cx="926" cy="800" r="6" class="c0"/>
<circle cx="1146" cy="932" r="6" class="c0"/>
<circle cx="696" cy="1078" r="6" class="c0"/>
<circle cx="898" cy="966" r="6" class="c0"/>
<circle cx="886" cy="700" r="6" class="c0"/>
<circle cx="1300" cy="1054" r="6" class="c0"/>
<circle cx="672" cy="958" r="6" class="c0"/>
<circle cx="884" cy="930" r="6" class="c0"/>
<circle cx="678" cy="1118" r="6" class="c0"/>
<circle cx="922" cy="1168" r="6" class="c0"/>
<circle cx="1032" cy="798" r="6" class="c0"/>
<circle cx="772" cy="910" r="6" class="c0"/>
<circle cx="926" cy="1084" r="6" class="c0"/>
<circle cx="1272" cy="1028" r="6" class="c0"/>
<circle cx="996" cy="1102" r="6" class="c0"/>
<circle cx="1100" cy="1072" r="6" class="c0"/>
<circle cx="888" cy="996" r="6" class="c0"/>
<circle cx="1068" cy="722" r="6" class="c0"/>
<circle cx="1156" cy="804" r="6" class="c0"/>
<circle cx="926" cy="770" r="6" class="c0"/>
<circle cx="968" cy="836" r="6" class="c0"/>
<circle cx="1150" cy="1070" r="6" class="c0"/>
<circle cx="1274" cy="1068" r="6" class="c0"/>
<circle cx="956" cy="1150" r="6" class="c0"/>
<circle cx="1014" cy="878" r="6" class="c0"/>
<circle cx="866" cy="804" r="6" class="c0"/>
<circle cx="690" cy="956" r="6" class="c0"/>
<circle cx="1074" cy="1124" r="6" class="c0"/>
<circle cx="726" cy="1108" r="6" class="c0"/>
<circle cx="640" cy="1042" r="6" class="c0"/>
<circle cx="866" cy="772" r="6" class="c0"/>
<circle cx="1196" cy="1098" r="6" class="c0"/>
<circle cx="1064" cy="944" r="6" class="c0"/>
<circle cx="920" cy="696" r="6" class="c0"/>
<circle cx="712" cy="1002" r="6" class="c0"/>
<circle cx="938" cy="844" r="6" class="c0"/>
<circle cx="1066" cy="678" r="6" class="c0"/>
<circle cx="712" cy="916" r="6" class="c0"/>
<circle cx="1124" cy="730" r="6" class="c0"/>
<circle cx="1102" cy="1108" r="6" class="c0"/>
<circle cx="1100" cy="856" r="6" class="c0"/>
<circle cx="1032" cy="686" r="6" class="c0"/>
<circle cx="1132" cy="1160" r="6" class="c0"/>
<circle cx="792" cy="778" r="6" class="c0"/>
<circle cx="916" cy="1038" r="6" class="c0"/>
<circle cx="852" cy="712" r="6" class="c0"/>
<circle cx="780" cy="748" r="6" class="c0"/>
<circle cx="1138" cy="1078" r="6" class="c0"/>
<circle cx="826" cy="650" r="6" class="c0"/>
<circle cx="940" cy="1180" r="6" class="c0"/>
<circle cx="1086" cy="722" r="6" class="c0"/>
<circle cx="832" cy="1164" r="6" class="c0"/>
<circle cx="1004" cy="824" r="6" class="c0"/>
<circle cx="750" cy="734" r="6" class="c0"/>
<circle cx="722" cy="724" r="6" class="c0"/>
<circle cx="960" cy="912" r="6" class="c0"/>
<circle cx="644" cy="1090" r="6" class="c0"/>
<circle cx="598" cy="1010" r="6" class="c0"/>
<circle cx="960" cy="954" r="6" class="c0"/>
<circle cx="786" cy="1162" r="6" class="c0"/>
<circle cx="648" cy="1006" r="6" class="c0"/>
<circle cx="994" cy="1010" r="6" class="c0"/>
<circle cx="1248" cy="1068" r="6" class="c0"/>
<circle cx="900" cy="898" r="6" class="c0"/>
<circle cx="780" cy="918" r="6" class="c0"/>
<circle cx="964" cy="734" r="6" class="c0"/>
<circle cx="744" cy="986" r="6" class="c0"/>
<circle cx="830" cy="1082" r="6" class="c0"/>
<circle cx="890" cy="1078" r="6" class="c0"/>
<circle cx="1290" cy="1066" r="6" class="c0"/>
<circle cx="1034" cy="1180" r="6" class="c0"/>
<circle cx="1282" cy="940" r="6" class="c0"/>
<circle cx="956" cy="1070" r="6" class="c0"/>
<circle cx="1058" cy="962" r="6" class="c0"/>
<circle cx="906" cy="828" r="6" class="c0"/>
<circle cx="668" cy="988" r="6" class="c0"/>
<circle cx="806" cy="766" r="6" class="c0"/>
<circle cx="906" cy="662" r="6" class="c0"/>
<circle cx="964" cy="1106" r="6" class="c0"/>
<circle cx="740" cy="1148" r="6" class="c0"/>
<circle cx="760" cy="866" r="6" class="c0"/>
<circle cx="648" cy="934" r="6" class="c0"/>
<circle cx="1220" cy="1038" r="6" class="c0"/>
<circle cx="1236" cy="1020" r="6" class="c0"/>
<circle cx="870" cy="1050" r="6" class="c0"/>
<circle cx="716" cy="978" r="6" class="c0"/>
<circle cx="1078" cy="774" r="6" class="c0"/>
<circle cx="992" cy="656" r="6" class="c0"/>
<circle cx="1236" cy="1102" r="6" class="c0"/>
<circle cx="1174" cy="938" r="6" class="c0"/>
<circle cx="678" cy="1048" r="6" class="c0"/>
<circle cx="738" cy="1098" r="6" class="c0"/>
<circle cx="834" cy="968" r="6" class="c0"/>
<circle cx="1072" cy="702" r="6" class="c0"/>
<circle cx="962" cy="986" r="6" class="c0"/>
<circle cx="710" cy="1140" r="6" class="c0"/>
<circle cx="1068" cy="844" r="6" class="c0"/>
<circle cx="832" cy="694" r="6" class="c0"/>
</svg>
