<?xml version="1.0" encoding="utf-8"?>
<svg xmlns="http://www.w3.org/2000/svg"
     xmlns:xlink="http://www.w3.org/1999/xlink" width="1920" height="1440" >

            <defs>
            <style type="text/css"><![CDATA[
circle {stroke: none;}
.c0 {fill: #FFFFFF;}
]]></style>
            </defs>
<rect x="0" y="0" width="1920" height="1440" fill="black"/>
<circle cx="1076" cy="1038" r="12" class="c0"/>
<circle cx="758" cy="860" r="12" class="c0"/>
<circle cx="1038" cy="920" r="12" class="c0"/>
<circle cx="1104" cy="1138" r="12" class="c0"/>
<circle cx="1006" cy="758" r="12" class="c0"/>
<circle cx="1062" cy="1052" r="12" class="c0"/>
<circle cx="1072" cy="1098" r="12" class="c0"/>
<circle cx="1314" cy="1044" r="12" class="c0"/>
<circle cx="1128" cy="736" r="12" class="c0"/>
<circle cx="520" cy="1048" r="12" class="c0"/>
<circle cx="606" cy="1196" r="12" class="c0"/>
<circle cx="1098" cy="870" r="12" class="c0"/>
<circle cx="1106" cy="894" r="12" class="c0"/>
<circle cx="1024" cy="812" r="12" class="c0"/>
<circle cx="504" cy="1062" r="12" class="c0"/>
<circle cx="954" cy="834" r="12" class="c0"/>
<circle cx="1042" cy="1092" r="12" class="c0"/>
<circle cx="1250" cy="1150" r="12" class="c0"/>
<circle cx="734" cy="894" r="12" class="c0"/>
<circle cx="1170" cy="812" r="12" class="c0"/>
<circle cx="1080" cy="942" r="12" class="c0"/>
<circle cx="968" cy="796" r="12" class="c0"/>
<circle cx="1112" cy="836" r="12" class="c0"/>
<circle cx="1116" cy="1024" r="12" class="c0"/>
<circle cx="1396" cy="1104" r="12" class="c0"/>
<circle cx="1206" cy="824" r="12" class="c0"/>
<circle cx="982" cy="918" r="12" class="c0"/>
<circle cx="1156" cy="758" r="12" class="c0"/>
<circle cx="934" cy="1088" r="12" class="c0"/>
<circle cx="674" cy="1150" r="12" class="c0"/>
<circle cx="890" cy="890" r="12" class="c0"/>
<circle cx="1232" cy="950" r="12" class="c0"/>
<circle cx="738" cy="1100" r="12" class="c0"/>
<circle cx="592" cy="1098" r="12" class="c0"/>
<circle cx="852" cy="1118" r="12" class="c0"/>
<circle cx="1206" cy="1184" r="12" class="c0"/>
<circle cx="662" cy="902" r="12" class="c0"/>
<circle cx="892" cy="1146" r="12" class="c0"/>
<circle cx="918" cy="706" r="12" class="c0"/>
<circle cx="992" cy="874" r="12" class="c0"/>
<circle cx="794" cy="980" r="12" class="c0"/>
<circle cx="1114" cy="788" r="12" class="c0"/>
<circle cx="1090" cy="764" r="12" class="c0"/>
<circle cx="618" cy="1084" r="12" class="c0"/>
<circle cx="628" cy="1146" r="12" class="c0"/>
<circle cx="660" cy="980" r="12" class="c0"/>
<circle cx="1362" cy="972" r="12" class="c0"/>
<circle cx="838" cy="1010" r="12" class="c0"/>
<circle cx="1176" cy="1052" r="12" class="c0"/>
<circle cx="726" cy="1012" r="12" class="c0"/>
<circle cx="772" cy="916" r="12" class="c0"/>
<circle cx="1082" cy="804" r="12" class="c0"/>
<circle cx="912" cy="1102" r="12" class="c0"/>
<circle cx="932" cy="1122" r="12" class="c0"/>
<circle cx="988" cy="784" r="12" class="c0"/>
<circle cx="782" cy="1008" r="12" class="c0"/>
<circle cx="840" cy="756" r="12" class="c0"/>
<circle cx="1016" cy="938" r="12" class="c0"/>
<circle cx="858" cy="824" r="12" class="c0"/>
<circle cx="1136" cy="986" r="12" class="c0"/>
<circle cx="808" cy="956" r="12" class="c0"/>
<circle cx="870" cy="870" r="12" class="c0"/>
<circle cx="710" cy="1062" r="12" class="c0"/>
<circle cx="1262" cy="950" r="12" class="c0"/>
<circle cx="820" cy="880" r="12" class="c0"/>
<circle cx="670" cy="1184" r="12" class="c0"/>
<circle cx="1018" cy="1050" r="12" class="c0"/>
<circle cx="1038" cy="872" r="12" class="c0"/>
<circle cx="1160" cy="1224" r="12" class="c0"/>
<circle cx="1000" cy="1264" r="10" class="c0"/>
<circle cx="1154" cy="894" r="10" class="c0"/>
<circle cx="824" cy="1054" r="10" class="c0"/>
<circle cx="1020" cy="976" r="10" class="c0"/>
<circle cx="864" cy="764" r="10" class="c0"/>
<circle cx="710" cy="1192" r="10" class="c0"/>
<circle cx="1054" cy="1262" r="10" class="c0"/>
<circle cx="1082" cy="978" r="10" class="c0"/>
<circle cx="612" cy="1044" r="10" class="c0"/>
<circle cx="1378" cy="1078" r="10" class="c0"/>
<circle cx="890" cy="688" r="10" class="c0"/>
<circle cx="682" cy="786" r="10" class="c0"/>
<circle cx="876" cy="1060" r="10" class="c0"/>
<circle cx="778" cy="818" r="10" class="c0"/>
<circle cx="802" cy="774" r="10" class="c0"/>
<circle cx="830" cy="854" r="10" class="c0"/>
<circle cx="1144" cy="938" r="10" class="c0"/>
<circle cx="1134" cy="1050" r="10" class="c0"/>
<circle cx="1014" cy="730" r="10" class="c0"/>
<circle cx="846" cy="1242" r="10" class="c0"/>
<circle cx="1178" cy="1104" r="10" class="c0"/>
<circle cx="1406" cy="1024" r="10" class="c0"/>
<circle cx="542" cy="1038" r="10" class="c0"/>
<circle cx="584" cy="954" r="10" class="c0"/>
<circle cx="1316" cy="1120" r="10" class="c0"/>
<circle cx="1146" cy="1032" r="10" class="c0"/>
<circle cx="594" cy="1074" r="10" class="c0"/>
<circle cx="968" cy="882" r="10" class="c0"/>
<circle cx="824" cy="1270" r="10" class="c0"/>
<circle cx="970" cy="1218" r="10" class="c0"/>
<circle cx="560" cy="1104" r="10" class="c0"/>
<circle cx="712" cy="750" r="10" class="c0"/>
<circle cx="966" cy="772" r="10" class="c0"/>
<circle cx="974" cy="986" r="10" class="c0"/>
<circle cx="532" cy="1008" r="10" class="c0"/>
<circle cx="1140" cy="784" r="10" class="c0"/>
<circle cx="1082" cy="888" r="10" class="c0"/>
<circle cx="1052" cy="822" r="10" class="c0"/>
<circle cx="918" cy="1002" r="10" class="c0"/>
<circle cx="1040" cy="710" r="10" class="c0"/>
<circle cx="1074" cy="862" r="10" class="c0"/>
<circle cx="842" cy="1078" r="10" class="c0"/>
<circle cx="964" cy="904" r="10" class="c0"/>
<circle cx="536" cy="986" r="10" class="c0"/>
<circle cx="940" cy="1008" r="10" class="c0"/>
<circle cx="1348" cy="1030" r="10" class="c0"/>
<circle cx="804" cy="1114" r="10" class="c0"/>
<circle cx="534" cy="1118" r="10" class="c0"/>
<circle cx="852" cy="968" r="10" class="c0"/>
<circle cx="948" cy="1058" r="10" class="c0"/>
<circle cx="878" cy="802" r="10" class="c0"/>
<circle cx="1218" cy="792" r="10" class="c0"/>
<circle cx="1060" cy="1078" r="10" class="c0"/>
<circle cx="982" cy="692" r="10" class="c0"/>
<circle cx="782" cy="1206" r="10" class="c0"/>
<circle cx="564" cy="1166" r="10" class="c0"/>
<circle cx="844" cy="900" r="10" class="c0"/>
<circle cx="608" cy="1122" r="10" class="c0"/>
<circle cx="604" cy="966" r="10" class="c0"/>
<circle cx="894" cy="990" r="10" class="c0"/>
<circle cx="708" cy="1214" r="10" class="c0"/>
<circle cx="888" cy="742" r="10" class="c0"/>
<circle cx="1254" cy="1206" r="10" class="c0"/>
<circle cx="952" cy="1100" r="10" class="c0"/>
<circle cx="736" cy="790" r="10" class="c0"/>
<circle cx="1382" cy="1024" r="10" class="c0"/>
<circle cx="1212" cy="1148" r="10" class="c0"/>
<circle cx="974" cy="1264" r="10" class="c0"/>
<circle cx="926" cy="968" r="10" class="c0"/>
<circle cx="812" cy="928" r="10" class="c0"/>
<circle cx="1196" cy="956" r="10" class="c0"/>
<circle cx="1096" cy="1192" r="10" class="c0"/>
<circle cx="798" cy="1058" r="10" class="c0"/>
<circle cx="1232" cy="906" r="10" class="c0"/>
<circle cx="922" cy="860" r="10" class="c0"/>
<circle cx="1196" cy="896" r="10" class="c0"/>
<circle cx="690" cy="942" r="10" class="c0"/>
<circle cx="1002" cy="1218" r="10" class="c0"/>
<circle cx="720" cy="940" r="10" class="c0"/>
<circle cx="586" cy="1132" r="10" class="c0"/>
<circle cx="1280" cy="1048" r="10" class="c0"/>
<circle cx="618" cy="986" r="10" class="c0"/>
<circle cx="1042" cy="1020" r="10" class="c0"/>
<circle cx="556" cy="1026" r="10" class="c0"/>
<circle cx="1194" cy="1072" r="10" class="c0"/>
<circle cx="1170" cy="1026" r="10" class="c0"/>
<circle cx="772" cy="736" r="10" class="c0"/>
<circle cx="884" cy="846" r="10" class="c0"/>
<circle cx="1314" cy="994" r="10" class="c0"/>
<circle cx="770" cy="1088" r="10" class="c0"/>
<circle cx="728" cy="704" r="10" class="c0"/>
<circle cx="1030" cy="782" r="10" class="c0"/>
<circle cx="1342" cy="1058" r="10" class="c0"/>
<circle cx="1142" cy="906" r="10" class="c0"/>
<circle cx="752" cy="1254" r="10" class="c0"/>
<circle cx="852" cy="996" r="10" class="c0"/>
<circle cx="1038" cy="986" r="10" class="c0"/>
<circle cx="736" cy="842" r="10" class="c0"/>
<circle cx="946" cy="748" r="10" class="c0"/>
<circle cx="1326" cy="946" r="10" class="c0"/>
<circle cx="1128" cy="858" r="10" class="c0"/>
<circle cx="1288" cy="1118" r="10" class="c0"/>
<circle cx="1362" cy="1152" r="10" class="c0"/>
<circle cx="716" cy="872" r="10" class="c0"/>
<circle cx="862" cy="734" r="10" class="c0"/>
<circle cx="700" cy="906" r="10" class="c0"/>
<circle cx="1274" cy="1190" r="10" class="c0"/>
<circle cx="848" cy="1216" r="10" class="c0"/>
<circle cx="1250" cy="916" r="10" class="c0"/>
<circle cx="928" cy="802" r="10" class="c0"/>
<circle cx="1268" cy="1136" r="10" class="c0"/>
<circle cx="1026" cy="1208" r="10" class="c0"/>
<circle cx="1160" cy="920" r="10" class="c0"/>
<circle cx="962" cy="1130" r="10" class="c0"/>
<circle cx="896" cy="964" r="10" class="c0"/>
<circle cx="678" cy="1206" r="10" class="c0"/>
<circle cx="540" cy="1076" r="10" class="c0"/>
<circle cx="946" cy="1152" r="10" class="c0"/>
<circle cx="622" cy="922" r="10" class="c0"/>
<circle cx="812" cy="1084" r="10" class="c0"/>
<circle cx="1178" cy="1180" r="10" class="c0"/>
<circle cx="738" cy="750" r="10" class="c0"/>
<circle cx="574" cy="1042" r="10" class="c0"/>
<circle cx="704" cy="814" r="10" class="c0"/>
<circle cx="974" cy="846" r="10" class="c0"/>
<circle cx="940" cy="782" r="10" class="c0"/>
<circle cx="914" cy="1248" r="10" class="c0"/>
<circle cx="660" cy="938" r="10" class="c0"/>
<circle cx="944" cy="1266" r="10" class="c0"/>
<circle cx="496" cy="1088" r="10" class="c0"/>
<circle cx="708" cy="848" r="10" class="c0"/>
<circle cx="988" cy="720" r="10" class="c0"/>
<circle cx="870" cy="1018" r="10" class="c0"/>
<circle cx="766" cy="798" r="10" class="c0"/>
<circle cx="862" cy="1096" r="10" class="c0"/>
<circle cx="1008" cy="1142" r="10" class="c0"/>
<circle cx="1238" cy="752" r="10" class="c0"/>
<circle cx="1208" cy="910" r="10" class="c0"/>
<circle cx="1098" cy="1010" r="10" class="c0"/>
<circle cx="898" cy="720" r="10" class="c0"/>
<circle cx="1016" cy="1252" r="10" class="c0"/>
<circle cx="960" cy="1042" r="10" class="c0"/>
<circle cx="926" cy="1060" r="10" class="c0"/>
<circle cx="1112" cy="672" r="10" class="c0"/>
<circle cx="1052" cy="964" r="10" class="c0"/>
<circle cx="1018" cy="1124" r="10" class="c0"/>
<circle cx="1120" cy="758" r="10" class="c0"/>
<circle cx="1154" cy="1196" r="10" class="c0"/>
<circle cx="1068" cy="1012" r="10" class="c0"/>
<circle cx="546" cy="1146" r="10" class="c0"/>
<circle cx="1192" cy="766" r="10" class="c0"/>
<circle cx="1062" cy="1226" r="10" class="c0"/>
<circle cx="1180" cy="860" r="10" class="c0"/>
<circle cx="850" cy="714" r="10" class="c0"/>
<circle cx="718" cy="800" r="10" class="c0"/>
<circle cx="1292" cy="1084" r="10" class="c0"/>
<circle cx="1356" cy="1006" r="10" class="c0"/>
<circle cx="1080" cy="734" r="10" class="c0"/>
<circle cx="598" cy="1156" r="10" class="c0"/>
<circle cx="592" cy="992" r="10" class="c0"/>
<circle cx="762" cy="1234" r="10" class="c0"/>
<circle cx="1372" cy="994" r="10" class="c0"/>
<circle cx="786" cy="790" r="10" class="c0"/>
<circle cx="1176" cy="944" r="10" class="c0"/>
<circle cx="1304" cy="944" r="10" class="c0"/>
<circle cx="638" cy="1006" r="10" class="c0"/>
<circle cx="700" cy="1166" r="10" class="c0"/>
<circle cx="1084" cy="708" r="10" class="c0"/>
<circle cx="820" cy="726" r="10" class="c0"/>
<circle cx="834" cy="832" r="10" class="c0"/>
<circle cx="1240" cy="776" r="10" class="c0"/>
<circle cx="1162" cy="874" r="10" class="c0"/>
<circle cx="912" cy="842" r="10" class="c0"/>
<circle cx="1038" cy="1234" r="10" class="c0"/>
<circle cx="928" cy="734" r="10" class="c0"/>
<circle cx="1354" cy="1096" r="10" class="c0"/>
<circle cx="1156" cy="1118" r="10" class="c0"/>
<circle cx="1150" cy="1074" r="10" class="c0"/>
<circle cx="626" cy="950" r="10" class="c0"/>
<circle cx="730" cy="1222" r="10" class="c0"/>
<circle cx="1108" cy="710" r="10" class="c0"/>
<circle cx="1112" cy="988" r="10" class="c0"/>
<circle cx="798" cy="910" r="10" class="c0"/>
<circle cx="776" cy="1062" r="10" class="c0"/>
<circle cx="558" cy="962" r="10" class="c0"/>
<circle cx="1060" cy="784" r="10" class="c0"/>
<circle cx="880" cy="978" r="10" class="c0"/>
<circle cx="1310" cy="970" r="10" class="c0"/>
<circle cx="1164" cy="734" r="10" class="c0"/>
<circle cx="928" cy="1026" r="10" class="c0"/>
<circle cx="1024" cy="892" r="10" class="c0"/>
<circle cx="1212" cy="1222" r="10" class="c0"/>
<circle cx="830" cy="1110" r="10" class="c0"/>
<circle cx="774" cy="876" r="10" class="c0"/>
<circle cx="740" cy="950" r="10" class="c0"/>
<circle cx="954" cy="948" r="10" class="c0"/>
<circle cx="734" cy="1044" r="10" class="c0"/>
<circle cx="644" cy="1204" r="10" class="c0"/>
<circle cx="1090" cy="684" r="10" class="c0"/>
<circle cx="848" cy="942" r="10" class="c0"/>
<circle cx="1014" cy="682" r="10" class="c0"/>
<circle cx="1386" cy="1130" r="10" class="c0"/>
<circle cx="1012" cy="660" r="8" class="c0"/>
<circle cx="1012" cy="1088" r="8" class="c0"/>
<circle cx="826" cy="776" r="8" class="c0"/>
<circle cx="1026" cy="1152" r="8" class="c0"/>
<circle cx="930" cy="920" r="8" class="c0"/>
<circle cx="778" cy="1184" r="8" class="c0"/>
<circle cx="1134" cy="1184" r="8" class="c0"/>
<circle cx="1118" cy="962" r="8" class="c0"/>
<circle cx="618" cy="1180" r="8" class="c0"/>
<circle cx="1210" cy="1062" r="8" class="c0"/>
<circle cx="1294" cy="1168" r="8" class="c0"/>
<circle cx="792" cy="1260" r="8" class="c0"/>
<circle cx="1010" cy="1004" r="8" class="c0"/>
<circle cx="554" cy="1056" r="8" class="c0"/>
<circle cx="966" cy="738" r="8" class="c0"/>
<circle cx="798" cy="732" r="8" class="c0"/>
<circle cx="1044" cy="894" r="8" class="c0"/>
<circle cx="1152" cy="1256" r="8" class="c0"/>
<circle cx="1076" cy="916" r="8" class="c0"/>
<circle cx="1024" cy="1076" r="8" class="c0"/>
<circle cx="822" cy="1144" r="8" class="c0"/>
<circle cx="1230" cy="1134" r="8" class="c0"/>
<circle cx="1022" cy="842" r="8" class="c0"/>
<circle cx="572" cy="986" r="8" class="c0"/>
<circle cx="900" cy="1040" r="8" class="c0"/>
<circle cx="1108" cy="1068" r="8" class="c0"/>
<circle cx="840" cy="732" r="8" class="c0"/>
<circle cx="1154" cy="830" r="8" class="c0"/>
<circle cx="1122" cy="1082" r="8" class="c0"/>
<circle cx="1022" cy="1024" r="8" class="c0"/>
<circle cx="806" cy="672" r="8" class="c0"/>
<circle cx="908" cy="1070" r="8" class="c0"/>
<circle cx="764" cy="976" r="8" class="c0"/>
<circle cx="934" cy="690" r="8" class="c0"/>
<circle cx="952" cy="812" r="8" class="c0"/>
<circle cx="912" cy="902" r="8" class="c0"/>
<circle cx="1246" cy="972" r="8" class="c0"/>
<circle cx="1214" cy="978" r="8" class="c0"/>
<circle cx="1336" cy="1086" r="8" class="c0"/>
<circle cx="774" cy="1114" r="8" class="c0"/>
<circle cx="882" cy="1094" r="8" class="c0"/>
<circle cx="726" cy="1162" r="8" class="c0"/>
<circle cx="1098" cy="916" r="8" class="c0"/>
<circle cx="1274" cy="976" r="8" class="c0"/>
<circle cx="918" cy="950" r="8" class="c0"/>
<circle cx="1390" cy="1064" r="8" class="c0"/>
<circle cx="1290" cy="1148" r="8" class="c0"/>
<circle cx="1128" cy="824" r="8" class="c0"/>
<circle cx="794" cy="1194" r="8" class="c0"/>
<circle cx="1200" cy="1018" r="8" class="c0"/>
<circle cx="1090" cy="1088" r="8" class="c0"/>
<circle cx="692" cy="1248" r="8" class="c0"/>
<circle cx="734" cy="1078" r="8" class="c0"/>
<circle cx="934" cy="760" r="8" class="c0"/>
<circle cx="1062" cy="1202" r="8" class="c0"/>
<circle cx="982" cy="1144" r="8" class="c0"/>
<circle cx="966" cy="718" r="8" class="c0"/>
<circle cx="872" cy="1244" r="8" class="c0"/>
<circle cx="642" cy="1132" r="8" class="c0"/>
<circle cx="914" cy="882" r="8" class="c0"/>
<circle cx="1186" cy="1224" r="8" class="c0"/>
<circle cx="1054" cy="728" r="8" class="c0"/>
<circle cx="920" cy="1212" r="8" class="c0"/>
<circle cx="896" cy="766" r="8" class="c0"/>
<circle cx="1230" cy="1168" r="8" class="c0"/>
<circle cx="764" cy="774" r="8" class="c0"/>
<circle cx="1056" cy="1116" r="8" class="c0"/>
<circle cx="922" cy="774" r="8" class="c0"/>
<circle cx="754" cy="884" r="8" class="c0"/>
<circle cx="742" cy="1186" r="8" class="c0"/>
<circle cx="760" cy="834" r="8" class="c0"/>
<circle cx="984" cy="944" r="8" class="c0"/>
<circle cx="1318" cy="1080" r="8" class="c0"/>
<circle cx="820" cy="904" r="8" class="c0"/>
<circle cx="1134" cy="1262" r="8" class="c0"/>
<circle cx="1186" cy="796" r="8" class="c0"/>
<circle cx="962" cy="1008" r="8" class="c0"/>
<circle cx="864" cy="918" r="8" class="c0"/>
<circle cx="788" cy="858" r="8" class="c0"/>
<circle cx="1310" cy="1096" r="8" class="c0"/>
<circle cx="804" cy="1034" r="8" class="c0"/>
<circle cx="936" cy="940" r="8" class="c0"/>
<circle cx="714" cy="918" r="8" class="c0"/>
<circle cx="602" cy="1020" r="8" class="c0"/>
<circle cx="760" cy="1208" r="8" class="c0"/>
<circle cx="952" cy="698" r="8" class="c0"/>
<circle cx="764" cy="936" r="8" class="c0"/>
<circle cx="1108" cy="1220" r="8" class="c0"/>
<circle cx="1080" cy="1206" r="8" class="c0"/>
<circle cx="880" cy="822" r="8" class="c0"/>
<circle cx="1382" cy="1046" r="8" class="c0"/>
<circle cx="1086" cy="1126" r="8" class="c0"/>
<circle cx="1130" cy="890" r="8" class="c0"/>
<circle cx="1094" cy="1250" r="8" class="c0"/>
<circle cx="774" cy="1028" r="8" class="c0"/>
<circle cx="940" cy="892" r="8" class="c0"/>
<circle cx="996" cy="1126" r="8" class="c0"/>
<circle cx="750" cy="822" r="8" class="c0"/>
<circle cx="1116" cy="912" r="8" class="c0"/>
<circle cx="1182" cy="972" r="8" class="c0"/>
<circle cx="1292" cy="1008" r="8" class="c0"/>
<circle cx="800" cy="834" r="8" class="c0"/>
<circle cx="1266" cy="1172" r="8" class="c0"/>
<circle cx="1006" cy="958" r="8" class="c0"/>
<circle cx="712" cy="1234" r="8" class="c0"/>
<circle cx="994" cy="834" r="8" class="c0"/>
<circle cx="1292" cy="1198" r="8" class="c0"/>
<circle cx="1184" cy="828" r="8" class="c0"/>
<circle cx="1164" cy="842" r="8" class="c0"/>
<circle cx="890" cy="940" r="8" class="c0"/>
<circle cx="814" cy="698" r="8" class="c0"/>
<circle cx="1278" cy="910" r="8" class="c0"/>
<circle cx="984" cy="1052" r="8" class="c0"/>
<circle cx="1152" cy="800" r="8" class="c0"/>
<circle cx="516" cy="1094" r="8" class="c0"/>
<circle cx="1288" cy="990" r="8" class="c0"/>
<circle cx="1094" cy="846" r="8" class="c0"/>
<circle cx="842" cy="922" r="8" class="c0"/>
<circle cx="724" cy="726" r="8" class="c0"/>
<circle cx="1120" cy="1238" r="8" class="c0"/>
<circle cx="1140" cy="964" r="8" class="c0"/>
<circle cx="882" cy="708" r="8" class="c0"/>
<circle cx="1114" cy="1112" r="8" class="c0"/>
<circle cx="916" cy="1142" r="8" class="c0"/>
<circle cx="1116" cy="814" r="8" class="c0"/>
<circle cx="680" cy="920" r="8" class="c0"/>
<circle cx="1410" cy="1078" r="8" class="c0"/>
<circle cx="856" cy="856" r="8" class="c0"/>
<circle cx="820" cy="800" r="8" class="c0"/>
<circle cx="1260" cy="1104" r="8" class="c0"/>
<circle cx="832" cy="986" r="8" class="c0"/>
<circle cx="1052" cy="940" r="8" class="c0"/>
<circle cx="634" cy="1064" r="8" class="c0"/>
<circle cx="1218" cy="760" r="8" class="c0"/>
<circle cx="742" cy="1238" r="8" class="c0"/>
<circle cx="858" cy="1266" r="8" class="c0"/>
<circle cx="864" cy="1072" r="8" class="c0"/>
<circle cx="878" cy="1276" r="8" class="c0"/>
<circle cx="1346" cy="1138" r="8" class="c0"/>
<circle cx="746" cy="918" r="8" class="c0"/>
<circle cx="724" cy="970" r="8" class="c0"/>
<circle cx="880" cy="1224" r="8" class="c0"/>
<circle cx="994" cy="992" r="8" class="c0"/>
<circle cx="1016" cy="910" r="8" class="c0"/>
<circle cx="1132" cy="1008" r="8" class="c0"/>
<circle cx="762" cy="1044" r="8" class="c0"/>
<circle cx="774" cy="954" r="8" class="c0"/>
<circle cx="562" cy="1080" r="8" class="c0"/>
<circle cx="1028" cy="756" r="8" class="c0"/>
<circle cx="752" cy="762" r="8" class="c0"/>
<circle cx="658" cy="1220" r="8" class="c0"/>
<circle cx="828" cy="946" r="8" class="c0"/>
<circle cx="740" cy="982" r="8" class="c0"/>
<circle cx="820" cy="1242" r="8" class="c0"/>
<circle cx="864" cy="1200" r="8" class="c0"/>
<circle cx="1198" cy="694" r="8" class="c0"/>
<circle cx="810" cy="850" r="8" class="c0"/>
<circle cx="950" cy="1216" r="8" class="c0"/>
<circle cx="978" cy="756" r="8" class="c0"/>
<circle cx="1176" cy="1210" r="8" class="c0"/>
<circle cx="1232" cy="1196" r="8" class="c0"/>
<circle cx="1210" cy="932" r="8" class="c0"/>
<circle cx="938" cy="716" r="8" class="c0"/>
<circle cx="984" cy="1116" r="8" class="c0"/>
<circle cx="1270" cy="1024" r="8" class="c0"/>
<circle cx="1310" cy="1016" r="8" class="c0"/>
<circle cx="860" cy="698" r="8" class="c0"/>
<circle cx="600" cy="934" r="8" class="c0"/>
<circle cx="816" cy="758" r="8" class="c0"/>
<circle cx="1024" cy="700" r="8" class="c0"/>
<circle cx="958" cy="1232" r="8" class="c0"/>
<circle cx="1196" cy="850" r="8" class="c0"/>
<circle cx="968" cy="1066" r="8" class="c0"/>
<circle cx="1318" cy="1194" r="8" class="c0"/>
<circle cx="1342" cy="984" r="8" class="c0"/>
<circle cx="804" cy="808" r="8" class="c0"/>
<circle cx="1106" cy="1266" r="8" class="c0"/>
<circle cx="578" cy="1014" r="8" class="c0"/>
<circle cx="1204" cy="1240" r="8" class="c0"/>
<circle cx="1076" cy="1254" r="8" class="c0"/>
<circle cx="1108" cy="1044" r="8" class="c0"/>
<circle cx="934" cy="1232" r="8" class="c0"/>
<circle cx="642" cy="1102" r="8" class="c0"/>
<circle cx="786" cy="1102" r="8" class="c0"/>
<circle cx="898" cy="670" r="8" class="c0"/>
<circle cx="866" cy="1134" r="8" class="c0"/>
<circle cx="716" cy="1090" r="8" class="c0"/>
<circle cx="710" cy="1000" r="8" class="c0"/>
<circle cx="892" cy="1260" r="8" class="c0"/>
<circle cx="1294" cy="1032" r="8" class="c0"/>
<circle cx="1068" cy="754" r="8" class="c0"/>
<circle cx="1060" cy="1136" r="8" class="c0"/>
<circle cx="850" cy="1058" r="8" class="c0"/>
<circle cx="1274" cy="1214" r="8" class="c0"/>
<circle cx="882" cy="1204" r="8" class="c0"/>
<circle cx="1060" cy="848" r="8" class="c0"/>
<circle cx="1302" cy="1136" r="8" class="c0"/>
<circle cx="996" cy="1040" r="8" class="c0"/>
<circle cx="724" cy="1180" r="8" class="c0"/>
<circle cx="816" cy="820" r="8" class="c0"/>
<circle cx="1198" cy="744" r="8" class="c0"/>
<circle cx="756" cy="902" r="8" class="c0"/>
<circle cx="806" cy="1222" r="8" class="c0"/>
<circle cx="590" cy="1176" r="8" class="c0"/>
<circle cx="508" cy="1110" r="8" class="c0"/>
<circle cx="1184" cy="1006" r="8" class="c0"/>
<circle cx="788" cy="748" r="8" class="c0"/>
<circle cx="1122" cy="944" r="8" class="c0"/>
<circle cx="1162" cy="966" r="8" class="c0"/>
<circle cx="984" cy="1030" r="8" class="c0"/>
<circle cx="742" cy="730" r="8" class="c0"/>
<circle cx="1028" cy="1106" r="8" class="c0"/>
<circle cx="694" cy="774" r="8" class="c0"/>
<circle cx="898" cy="1086" r="8" class="c0"/>
<circle cx="1236" cy="802" r="8" class="c0"/>
<circle cx="750" cy="1018" r="8" class="c0"/>
<circle cx="844" cy="1142" r="8" class="c0"/>
<circle cx="982" cy="894" r="8" class="c0"/>
<circle cx="1078" cy="1066" r="8" class="c0"/>
<circle cx="908" cy="792" r="8" class="c0"/>
<circle cx="1404" cy="1044" r="8" class="c0"/>
<circle cx="1270" cy="930" r="8" class="c0"/>
<circle cx="896" cy="1058" r="8" class="c0"/>
<circle cx="764" cy="1124" r="8" class="c0"/>
<circle cx="1236" cy="1220" r="8" class="c0"/>
<circle cx="1396" cy="1004" r="8" class="c0"/>
<circle cx="626" cy="1024" r="8" class="c0"/>
<circle cx="1168" cy="992" r="8" class="c0"/>
<circle cx="518" cy="1150" r="8" class="c0"/>
<circle cx="576" cy="1062" r="8" class="c0"/>
<circle cx="676" cy="1232" r="8" class="c0"/>
<circle cx="1002" cy="1240" r="8" class="c0"/>
<circle cx="1194" cy="994" r="8" class="c0"/>
<circle cx="1146" cy="726" r="8" class="c0"/>
<circle cx="1258" cy="1226" r="8" class="c0"/>
<circle cx="1114" cy="1200" r="8" class="c0"/>
<circle cx="790" cy="1134" r="8" class="c0"/>
<circle cx="750" cy="1066" r="8" class="c0"/>
<circle cx="982" cy="1078" r="8" class="c0"/>
<circle cx="1042" cy="1130" r="8" class="c0"/>
<circle cx="890" cy="1112" r="8" class="c0"/>
<circle cx="1038" cy="834" r="8" class="c0"/>
<circle cx="1142" cy="810" r="8" class="c0"/>
<circle cx="858" cy="1038" r="8" class="c0"/>
<circle cx="644" cy="920" r="8" class="c0"/>
<circle cx="1284" cy="954" r="8" class="c0"/>
<circle cx="908" cy="938" r="8" class="c0"/>
<circle cx="878" cy="1122" r="8" class="c0"/>
<circle cx="1016" cy="874" r="8" class="c0"/>
<circle cx="1046" cy="796" r="8" class="c0"/>
<circle cx="998" cy="1158" r="8" class="c0"/>
<circle cx="760" cy="1176" r="8" class="c0"/>
<circle cx="1062" cy="926" r="8" class="c0"/>
<circle cx="538" cy="1164" r="8" class="c0"/>
<circle cx="1016" cy="640" r="8" class="c0"/>
<circle cx="1042" cy="1064" r="8" class="c0"/>
<circle cx="910" cy="980" r="8" class="c0"/>
<circle cx="704" cy="958" r="8" class="c0"/>
<circle cx="636" cy="968" r="8" class="c0"/>
<circle cx="1156" cy="1006" r="8" class="c0"/>
<circle cx="1000" cy="1060" r="8" class="c0"/>
<circle cx="1060" cy="704" r="8" class="c0"/>
<circle cx="1062" cy="900" r="8" class="c0"/>
<circle cx="1186" cy="924" r="8" class="c0"/>
<circle cx="1044" cy="1150" r="8" class="c0"/>
<circle cx="688" cy="974" r="8" class="c0"/>
<circle cx="1340" cy="962" r="8" class="c0"/>
<circle cx="1324" cy="1166" r="8" class="c0"/>
<circle cx="692" cy="1134" r="8" class="c0"/>
<circle cx="838" cy="696" r="8" class="c0"/>
<circle cx="920" cy="670" r="8" class="c0"/>
<circle cx="1276" cy="1094" r="8" class="c0"/>
<circle cx="956" cy="972" r="8" class="c0"/>
<circle cx="868" cy="940" r="8" class="c0"/>
<circle cx="886" cy="782" r="8" class="c0"/>
<circle cx="1314" cy="1148" r="8" class="c0"/>
<circle cx="1092" cy="1054" r="8" class="c0"/>
<circle cx="674" cy="964" r="8" class="c0"/>
<circle cx="976" cy="824" r="8" class="c0"/>
<circle cx="814" cy="1012" r="8" class="c0"/>
<circle cx="968" cy="1242" r="8" class="c0"/>
<circle cx="1072" cy="826" r="8" class="c0"/>
<circle cx="716" cy="688" r="8" class="c0"/>
<circle cx="570" cy="1144" r="8" class="c0"/>
<circle cx="896" cy="1020" r="8" class="c0"/>
<circle cx="1008" cy="1108" r="8" class="c0"/>
<circle cx="1358" cy="1072" r="8" class="c0"/>
<circle cx="1176" cy="890" r="8" class="c0"/>
<circle cx="786" cy="930" r="8" class="c0"/>
<circle cx="1144" cy="1272" r="8" class="c0"/>
<circle cx="638" cy="1182" r="8" class="c0"/>
<circle cx="736" cy="812" r="8" class="c0"/>
<circle cx="1196" cy="1212" r="8" class="c0"/>
<circle cx="876" cy="908" r="8" class="c0"/>
<circle cx="1170" cy="1244" r="8" class="c0"/>
<circle cx="898" cy="1226" r="8" class="c0"/>
<circle cx="802" cy="714" r="8" class="c0"/>
<circle cx="1186" cy="880" r="8" class="c0"/>
<circle cx="1296" cy="1064" r="8" class="c0"/>
<circle cx="1412" cy="1118" r="8" class="c0"/>
<circle cx="942" cy="866" r="8" class="c0"/>
<circle cx="946" cy="1242" r="8" class="c0"/>
<circle cx="838" cy="1038" r="8" class="c0"/>
<circle cx="684" cy="758" r="8" class="c0"/>
<circle cx="782" cy="714" r="8" class="c0"/>
<circle cx="1216" cy="1026" r="8" class="c0"/>
<circle cx="804" cy="1204" r="8" class="c0"/>
<circle cx="786" cy="1234" r="8" class="c0"/>
<circle cx="1250" cy="1186" r="8" class="c0"/>
<circle cx="1030" cy="1276" r="8" class="c0"/>
<circle cx="1162" cy="784" r="8" class="c0"/>
<circle cx="898" cy="912" r="8" class="c0"/>
<circle cx="942" cy="984" r="8" class="c0"/>
<circle cx="880" cy="952" r="8" class="c0"/>
<circle cx="1052" cy="766" r="8" class="c0"/>
<circle cx="1362" cy="1048" r="8" class="c0"/>
<circle cx="1262" cy="990" r="8" class="c0"/>
<circle cx="900" cy="650" r="8" class="c0"/>
<circle cx="1132" cy="1110" r="8" class="c0"/>
<circle cx="1028" cy="1002" r="8" class="c0"/>
<circle cx="826" cy="1218" r="8" class="c0"/>
<circle cx="1304" cy="1180" r="8" class="c0"/>
<circle cx="980" cy="1012" r="8" class="c0"/>
<circle cx="1248" cy="726" r="8" class="c0"/>
<circle cx="1094" cy="1106" r="8" class="c0"/>
<circle cx="1138" cy="1222" r="8" class="c0"/>
<circle cx="648" cy="950" r="8" class="c0"/>
<circle cx="1138" cy="840" r="8" class="c0"/>
<circle cx="682" cy="816" r="8" class="c0"/>
<circle cx="982" cy="1200" r="8" class="c0"/>
<circle cx="954" cy="924" r="8" class="c0"/>
<circle cx="798" cy="876" r="8" class="c0"/>
<circle cx="1002" cy="802" r="8" class="c0"/>
<circle cx="898" cy="830" r="8" class="c0"/>
<circle cx="594" cy="1036" r="8" class="c0"/>
<circle cx="720" cy="778" r="8" class="c0"/>
<circle cx="962" cy="1084" r="8" class="c0"/>
<circle cx="904" cy="1122" r="8" class="c0"/>
<circle cx="844" cy="778" r="8" class="c0"/>
<circle cx="966" cy="934" r="8" class="c0"/>
<circle cx="656" cy="1166" r="8" class="c0"/>
<circle cx="660" cy="1134" r="8" class="c0"/>
<circle cx="716" cy="1152" r="8" class="c0"/>
<circle cx="842" cy="804" r="8" class="c0"/>
<circle cx="752" cy="998" r="8" class="c0"/>
<circle cx="824" cy="1028" r="8" class="c0"/>
<circle cx="1100" cy="970" r="8" class="c0"/>
<circle cx="558" cy="1006" r="8" class="c0"/>
<circle cx="1204" cy="1044" r="8" class="c0"/>
<circle cx="882" cy="1030" r="8" class="c0"/>
<circle cx="1342" cy="1116" r="8" class="c0"/>
<circle cx="704" cy="1018" r="8" class="c0"/>
<circle cx="1294" cy="918" r="8" class="c0"/>
<circle cx="900" cy="866" r="8" class="c0"/>
<circle cx="514" cy="1026" r="8" class="c0"/>
<circle cx="1204" cy="878" r="8" class="c0"/>
<circle cx="826" cy="1190" r="8" class="c0"/>
<circle cx="1150" cy="1096" r="8" class="c0"/>
<circle cx="620" cy="1108" r="8" class="c0"/>
<circle cx="988" cy="1252" r="8" class="c0"/>
<circle cx="990" cy="1286" r="8" class="c0"/>
<circle cx="702" cy="1038" r="8" class="c0"/>
<circle cx="910" cy="744" r="8" class="c0"/>
<circle cx="964" cy="862" r="8" class="c0"/>
<circle cx="1212" cy="1008" r="8" class="c0"/>
<circle cx="1192" cy="1034" r="8" class="c0"/>
<circle cx="1040" cy="950" r="8" class="c0"/>
<circle cx="1080" cy="998" r="8" class="c0"/>
<circle cx="1348" cy="1184" r="8" class="c0"/>
<circle cx="992" cy="742" r="8" class="c0"/>
<circle cx="796" cy="694" r="8" class="c0"/>
<circle cx="1188" cy="724" r="8" class="c0"/>
<circle cx="1062" cy="980" r="8" class="c0"/>
<circle cx="662" cy="1112" r="8" class="c0"/>
<circle cx="1060" cy="874" r="8" class="c0"/>
<circle cx="1104" cy="952" r="8" class="c0"/>
<circle cx="776" cy="848" r="8" class="c0"/>
<circle cx="730" cy="768" r="8" class="c0"/>
<circle cx="862" cy="890" r="8" class="c0"/>
<circle cx="718" cy="828" r="8" class="c0"/>
<circle cx="952" cy="728" r="8" class="c0"/>
<circle cx="672" cy="738" r="8" class="c0"/>
<circle cx="1374" cy="1118" r="8" class="c0"/>
<circle cx="710" cy="1254" r="8" class="c0"/>
<circle cx="814" cy="990" r="8" class="c0"/>
<circle cx="786" cy="1044" r="8" class="c0"/>
<circle cx="740" cy="872" r="8" class="c0"/>
<circle cx="1136" cy="716" r="8" class="c0"/>
<circle cx="1102" cy="742" r="8" class="c0"/>
<circle cx="786" cy="1078" r="8" class="c0"/>
<circle cx="560" cy="1126" r="8" class="c0"/>
<circle cx="1150" cy="860" r="8" class="c0"/>
<circle cx="1178" cy="746" r="8" class="c0"/>
<circle cx="1002" cy="1020" r="8" class="c0"/>
<circle cx="996" cy="1096" r="8" class="c0"/>
<circle cx="910" cy="818" r="8" class="c0"/>
<circle cx="638" cy="1044" r="8" class="c0"/>
<circle cx="626" cy="1212" r="8" class="c0"/>
<circle cx="732" cy="928" r="8" class="c0"/>
<circle cx="1226" cy="812" r="8" class="c0"/>
<circle cx="1196" cy="786" r="8" class="c0"/>
<circle cx="1124" cy="700" r="8" class="c0"/>
<circle cx="1002" cy="850" r="8" class="c0"/>
<circle cx="614" cy="1006" r="8" class="c0"/>
<circle cx="984" cy="808" r="8" class="c0"/>
<circle cx="926" cy="1158" r="8" class="c0"/>
<circle cx="1098" cy="822" r="8" class="c0"/>
<circle cx="830" cy="968" r="8" class="c0"/>
<circle cx="1194" cy="1252" r="8" class="c0"/>
<circle cx="1096" cy="722" r="8" class="c0"/>
<circle cx="974" cy="1104" r="8" class="c0"/>
<circle cx="1086" cy="1282" r="8" class="c0"/>
<circle cx="1086" cy="1228" r="8" class="c0"/>
<circle cx="994" cy="680" r="8" class="c0"/>
<circle cx="572" cy="940" r="8" class="c0"/>
<circle cx="1300" cy="1216" r="8" class="c0"/>
<circle cx="1038" cy="736" r="8" class="c0"/>
<circle cx="1108" cy="1094" r="8" class="c0"/>
<circle cx="1186" cy="1198" r="8" class="c0"/>
<circle cx="690" cy="1222" r="8" class="c0"/>
<circle cx="500" cy="1012" r="8" class="c0"/>
<circle cx="1334" cy="1004" r="8" class="c0"/>
<circle cx="834" cy="1130" r="8" class="c0"/>
<circle cx="708" cy="982" r="8" class="c0"/>
<circle cx="632" cy="1122" r="8" class="c0"/>
<circle cx="872" cy="718" r="8" class="c0"/>
<circle cx="1034" cy="690" r="8" class="c0"/>
<circle cx="572" cy="1190" r="8" class="c0"/>
<circle cx="764" cy="718" r="8" class="c0"/>
<circle cx="538" cy="1098" r="8" class="c0"/>
<circle cx="1122" cy="640" r="8" class="c0"/>
<circle cx="772" cy="1258" r="8" class="c0"/>
<circle cx="1384" cy="1162" r="8" class="c0"/>
<circle cx="988" cy="968" r="8" class="c0"/>
<circle cx="778" cy="758" r="8" class="c0"/>
<circle cx="1260" cy="782" r="8" class="c0"/>
<circle cx="1180" cy="1084" r="8" class="c0"/>
<circle cx="1044" cy="1042" r="8" class="c0"/>
<circle cx="1240" cy="1108" r="8" class="c0"/>
<circle cx="1392" cy="984" r="8" class="c0"/>
<circle cx="1250" cy="1126" r="8" class="c0"/>
<circle cx="1132" cy="1204" r="8" class="c0"/>
<circle cx="1220" cy="892" r="8" class="c0"/>
<circle cx="964" cy="1160" r="8" class="c0"/>
<circle cx="1274" cy="1074" r="8" class="c0"/>
<circle cx="1176" cy="712" r="8" class="c0"/>
<circle cx="1000" cy="706" r="8" class="c0"/>
<circle cx="1232" cy="1238" r="8" class="c0"/>
<circle cx="1002" cy="898" r="8" class="c0"/>
<circle cx="752" cy="964" r="8" class="c0"/>
<circle cx="932" cy="840" r="8" class="c0"/>
<circle cx="912" cy="1268" r="8" class="c0"/>
<circle cx="982" cy="1230" r="8" class="c0"/>
<circle cx="938" cy="1042" r="8" class="c0"/>
<circle cx="516" cy="1126" r="6" class="c0"/>
<circle cx="1002" cy="650" r="6" class="c0"/>
<circle cx="1268" cy="764" r="6" class="c0"/>
<circle cx="750" cy="1086" r="6" class="c0"/>
<circle cx="1186" cy="1158" r="6" class="c0"/>
<circle cx="1374" cy="1096" r="6" class="c0"/>
<circle cx="844" cy="880" r="6" class="c0"/>
<circle cx="828" cy="684" r="6" class="c0"/>
<circle cx="726" cy="990" r="6" class="c0"/>
<circle cx="1050" cy="858" r="6" class="c0"/>
<circle cx="800" cy="648" r="6" class="c0"/>
<circle cx="1126" cy="1136" r="6" class="c0"/>
<circle cx="608" cy="1064" r="6" class="c0"/>
<circle cx="640" cy="1160" r="6" class="c0"/>
<circle cx="974" cy="954" r="6" class="c0"/>
<circle cx="1106" cy="932" r="6" class="c0"/>
<circle cx="1202" cy="676" r="6" class="c0"/>
<circle cx="914" cy="1048" r="6" class="c0"/>
<circle cx="576" cy="1118" r="6" class="c0"/>
<circle cx="1346" cy="1162" r="6" class="c0"/>
<circle cx="1178" cy="910" r="6" class="c0"/>
<circle cx="1118" cy="878" r="6" class="c0"/>
<circle cx="878" cy="930" r="6" class="c0"/>
<circle cx="770" cy="992" r="6" class="c0"/>
<circle cx="732" cy="1200" r="6" class="c0"/>
<circle cx="1334" cy="1156" r="6" class="c0"/>
<circle cx="1110" cy="690" r="6" class="c0"/>
<circle cx="758" cy="1102" r="6" class="c0"/>
<circle cx="710" cy="768" r="6" class="c0"/>
<circle cx="498" cy="1032" r="6" class="c0"/>
<circle cx="908" cy="1288" r="6" class="c0"/>
<circle cx="642" cy="1082" r="6" class="c0"/>
<circle cx="802" cy="1238" r="6" class="c0"/>
<circle cx="1422" cy="1066" r="6" class="c0"/>
<circle cx="910" cy="686" r="6" class="c0"/>
<circle cx="952" cy="1026" r="6" class="c0"/>
<circle cx="918" cy="1228" r="6" class="c0"/>
<circle cx="848" cy="1278" r="6" class="c0"/>
<circle cx="1138" cy="872" r="6" class="c0"/>
<circle cx="882" cy="1006" r="6" class="c0"/>
<circle cx="894" cy="814" r="6" class="c0"/>
<circle cx="1262" cy="1058" r="6" class="c0"/>
<circle cx="704" cy="786" r="6" class="c0"/>
<circle cx="1328" cy="1100" r="6" class="c0"/>
<circle cx="1046" cy="1206" r="6" class="c0"/>
<circle cx="958" cy="1254" r="6" class="c0"/>
<circle cx="1362" cy="1128" r="6" class="c0"/>
<circle cx="1012" cy="792" r="6" class="c0"/>
<circle cx="696" cy="832" r="6" class="c0"/>
<circle cx="1118" cy="1254" r="6" class="c0"/>
<circle cx="1132" cy="922" r="6" class="c0"/>
<circle cx="592" cy="1054" r="6" class="c0"/>
<circle cx="714" cy="890" r="6" class="c0"/>
<circle cx="1250" cy="936" r="6" class="c0"/>
<circle cx="866" cy="1152" r="6" class="c0"/>
<circle cx="1036" cy="1260" r="6" class="c0"/>
<circle cx="1058" cy="998" r="6" class="c0"/>
<circle cx="640" cy="936" r="6" class="c0"/>
<circle cx="842" cy="1262" r="6" class="c0"/>
<circle cx="1012" cy="832" r="6" class="c0"/>
<circle cx="846" cy="844" r="6" class="c0"/>
<circle cx="902" cy="634" r="6" class="c0"/>
<circle cx="1110" cy="654" r="6" class="c0"/>
<circle cx="928" cy="904" r="6" class="c0"/>
<circle cx="728" cy="1262" r="6" class="c0"/>
<circle cx="938" cy="822" r="6" class="c0"/>
<circle cx="1088" cy="784" r="6" class="c0"/>
<circle cx="832" cy="1092" r="6" class="c0"/>
<circle cx="1080" cy="1144" r="6" class="c0"/>
<circle cx="1142" cy="1238" r="6" class="c0"/>
<circle cx="888" cy="1240" r="6" class="c0"/>
<circle cx="794" cy="944" r="6" class="c0"/>
<circle cx="1070" cy="1270" r="6" class="c0"/>
<circle cx="806" cy="894" r="6" class="c0"/>
<circle cx="1276" cy="1160" r="6" class="c0"/>
<circle cx="1320" cy="1064" r="6" class="c0"/>
<circle cx="926" cy="1260" r="6" class="c0"/>
<circle cx="704" cy="932" r="6" class="c0"/>
<circle cx="1054" cy="1032" r="6" class="c0"/>
<circle cx="1138" cy="1128" r="6" class="c0"/>
<circle cx="680" cy="892" r="6" class="c0"/>
<circle cx="814" cy="1128" r="6" class="c0"/>
<circle cx="808" cy="1262" r="6" class="c0"/>
<circle cx="726" cy="858" r="6" class="c0"/>
<circle cx="1200" cy="1164" r="6" class="c0"/>
<circle cx="828" cy="706" r="6" class="c0"/>
<circle cx="880" cy="1078" r="6" class="c0"/>
<circle cx="754" cy="740" r="6" class="c0"/>
<circle cx="1050" cy="1280" r="6" class="c0"/>
<circle cx="940" cy="1284" r="6" class="c0"/>
<circle cx="1330" cy="1134" r="6" class="c0"/>
<circle cx="1024" cy="860" r="6" class="c0"/>
<circle cx="692" cy="1194" r="6" class="c0"/>
<circle cx="938" cy="1204" r="6" class="c0"/>
<circle cx="696" cy="796" r="6" class="c0"/>
<circle cx="748" cy="712" r="6" class="c0"/>
<circle cx="918" cy="758" r="6" class="c0"/>
<circle cx="754" cy="784" r="6" class="c0"/>
<circle cx="1000" cy="1078" r="6" class="c0"/>
<circle cx="868" cy="784" r="6" class="c0"/>
<circle cx="1414" cy="1056" r="6" class="c0"/>
<circle cx="834" cy="1204" r="6" class="c0"/>
<circle cx="1094" cy="990" r="6" class="c0"/>
<circle cx="1328" cy="1030" r="6" class="c0"/>
<circle cx="1326" cy="982" r="6" class="c0"/>
<circle cx="1196" cy="710" r="6" class="c0"/>
<circle cx="1216" cy="1204" r="6" class="c0"/>
<circle cx="530" cy="1136" r="6" class="c0"/>
<circle cx="1056" cy="1244" r="6" class="c0"/>
<circle cx="588" cy="974" r="6" class="c0"/>
<circle cx="1016" cy="1232" r="6" class="c0"/>
<circle cx="864" cy="1284" r="6" class="c0"/>
<circle cx="780" cy="896" r="6" class="c0"/>
<circle cx="1234" cy="928" r="6" class="c0"/>
<circle cx="1154" cy="1052" r="6" class="c0"/>
<circle cx="664" cy="790" r="6" class="c0"/>
<circle cx="1162" cy="1086" r="6" class="c0"/>
<circle cx="740" cy="1170" r="6" class="c0"/>
<circle cx="1204" cy="802" r="6" class="c0"/>
<circle cx="1090" cy="1026" r="6" class="c0"/>
<circle cx="1168" cy="1070" r="6" class="c0"/>
<circle cx="1002" cy="924" r="6" class="c0"/>
<circle cx="966" cy="1280" r="6" class="c0"/>
<circle cx="1208" cy="664" r="6" class="c0"/>
<circle cx="744" cy="1212" r="6" class="c0"/>
<circle cx="1118" cy="1182" r="6" class="c0"/>
<circle cx="894" cy="1278" r="6" class="c0"/>
<circle cx="1104" cy="1240" r="6" class="c0"/>
<circle cx="718" cy="1032" r="6" class="c0"/>
<circle cx="676" cy="1128" r="6" class="c0"/>
<circle cx="1168" cy="1166" r="6" class="c0"/>
<circle cx="1432" cy="1058" r="6" class="c0"/>
<circle cx="768" cy="1194" r="6" class="c0"/>
<circle cx="806" cy="1142" r="6" class="c0"/>
<circle cx="524" cy="1068" r="6" class="c0"/>
<circle cx="812" cy="742" r="6" class="c0"/>
<circle cx="1074" cy="692" r="6" class="c0"/>
<circle cx="1362" cy="1174" r="6" class="c0"/>
<circle cx="752" cy="1034" r="6" class="c0"/>
<circle cx="1056" cy="744" r="6" class="c0"/>
<circle cx="1132" cy="800" r="6" class="c0"/>
<circle cx="940" cy="910" r="6" class="c0"/>
<circle cx="518" cy="992" r="6" class="c0"/>
<circle cx="556" cy="984" r="6" class="c0"/>
<circle cx="694" cy="1052" r="6" class="c0"/>
<circle cx="922" cy="1280" r="6" class="c0"/>
<circle cx="732" cy="1248" r="6" class="c0"/>
<circle cx="650" cy="1148" r="6" class="c0"/>
<circle cx="1158" cy="716" r="6" class="c0"/>
<circle cx="904" cy="1162" r="6" class="c0"/>
<circle cx="540" cy="966" r="6" class="c0"/>
<circle cx="1072" cy="960" r="6" class="c0"/>
<circle cx="1422" cy="1046" r="6" class="c0"/>
<circle cx="626" cy="1166" r="6" class="c0"/>
<circle cx="1276" cy="1000" r="6" class="c0"/>
<circle cx="862" cy="1230" r="6" class="c0"/>
<circle cx="1148" cy="1176" r="6" class="c0"/>
<circle cx="1004" cy="824" r="6" class="c0"/>
<circle cx="888" cy="922" r="6" class="c0"/>
<circle cx="900" cy="1206" r="6" class="c0"/>
<circle cx="806" cy="792" r="6" class="c0"/>
<circle cx="1330" cy="1182" r="6" class="c0"/>
<circle cx="802" cy="1002" r="6" class="c0"/>
<circle cx="856" cy="794" r="6" class="c0"/>
<circle cx="1248" cy="792" r="6" class="c0"/>
<circle cx="878" cy="668" r="6" class="c0"/>
<circle cx="1258" cy="1010" r="6" class="c0"/>
<circle cx="494" cy="1126" r="6" class="c0"/>
<circle cx="1206" cy="776" r="6" class="c0"/>
<circle cx="640" cy="988" r="6" class="c0"/>
<circle cx="924" cy="826" r="6" class="c0"/>
<circle cx="658" cy="960" r="6" class="c0"/>
<circle cx="964" cy="688" r="6" class="c0"/>
<circle cx="1262" cy="708" r="6" class="c0"/>
<circle cx="1062" cy="950" r="6" class="c0"/>
<circle cx="1300" cy="1106" r="6" class="c0"/>
<circle cx="1178" cy="782" r="6" class="c0"/>
<circle cx="628" cy="1192" r="6" class="c0"/>
<circle cx="910" cy="660" r="6" class="c0"/>
<circle cx="1246" cy="896" r="6" class="c0"/>
<circle cx="1050" cy="694" r="6" class="c0"/>
<circle cx="1250" cy="1088" r="6" class="c0"/>
<circle cx="572" cy="1090" r="6" class="c0"/>
<circle cx="872" cy="994" r="6" class="c0"/>
<circle cx="1156" cy="950" r="6" class="c0"/>
<circle cx="638" cy="1222" r="6" class="c0"/>
<circle cx="1074" cy="1238" r="6" class="c0"/>
<circle cx="1028" cy="960" r="6" class="c0"/>
<circle cx="956" cy="1200" r="6" class="c0"/>
<circle cx="748" cy="934" r="6" class="c0"/>
<circle cx="1084" cy="836" r="6" class="c0"/>
<circle cx="490" cy="1048" r="6" class="c0"/>
<circle cx="674" cy="802" r="6" class="c0"/>
<circle cx="846" cy="866" r="6" class="c0"/>
<circle cx="934" cy="1252" r="6" class="c0"/>
<circle cx="656" cy="1088" r="6" class="c0"/>
<circle cx="980" cy="1162" r="6" class="c0"/>
<circle cx="912" cy="920" r="6" class="c0"/>
<circle cx="1070" cy="720" r="6" class="c0"/>
<circle cx="866" cy="842" r="6" class="c0"/>
<circle cx="632" cy="908" r="6" class="c0"/>
<circle cx="1416" cy="1096" r="6" class="c0"/>
<circle cx="1320" cy="1212" r="6" class="c0"/>
<circle cx="944" cy="850" r="6" class="c0"/>
<circle cx="1010" cy="778" r="6" class="c0"/>
<circle cx="1070" cy="1152" r="6" class="c0"/>
<circle cx="514" cy="1078" r="6" class="c0"/>
<circle cx="1290" cy="970" r="6" class="c0"/>
<circle cx="1012" cy="1278" r="6" class="c0"/>
<circle cx="874" cy="1260" r="6" class="c0"/>
<circle cx="762" cy="1270" r="6" class="c0"/>
<circle cx="1316" cy="926" r="6" class="c0"/>
<circle cx="1372" cy="1058" r="6" class="c0"/>
<circle cx="1036" cy="850" r="6" class="c0"/>
<circle cx="770" cy="1218" r="6" class="c0"/>
<circle cx="692" cy="1028" r="6" class="c0"/>
<circle cx="1194" cy="1092" r="6" class="c0"/>
<circle cx="834" cy="790" r="6" class="c0"/>
<circle cx="848" cy="1026" r="6" class="c0"/>
<circle cx="870" cy="962" r="6" class="c0"/>
<circle cx="932" cy="878" r="6" class="c0"/>
<circle cx="788" cy="886" r="6" class="c0"/>
<circle cx="1014" cy="622" r="6" class="c0"/>
<circle cx="1130" cy="1068" r="6" class="c0"/>
<circle cx="690" cy="1180" r="6" class="c0"/>
<circle cx="832" cy="1254" r="6" class="c0"/>
<circle cx="682" cy="1168" r="6" class="c0"/>
<circle cx="1118" cy="1282" r="6" class="c0"/>
<circle cx="1212" cy="948" r="6" class="c0"/>
<circle cx="1338" cy="1174" r="6" class="c0"/>
<circle cx="710" cy="670" r="6" class="c0"/>
<circle cx="1016" cy="1162" r="6" class="c0"/>
<circle cx="1270" cy="700" r="6" class="c0"/>
<circle cx="606" cy="1140" r="6" class="c0"/>
<circle cx="1002" cy="978" r="6" class="c0"/>
<circle cx="1136" cy="766" r="6" class="c0"/>
<circle cx="1170" cy="770" r="6" class="c0"/>
<circle cx="1090" cy="960" r="6" class="c0"/>
<circle cx="968" cy="1024" r="6" class="c0"/>
<circle cx="1134" cy="1092" r="6" class="c0"/>
<circle cx="762" cy="750" r="6" class="c0"/>
<circle cx="1070" cy="1124" r="6" class="c0"/>
<circle cx="1424" cy="1086" r="6" class="c0"/>
<circle cx="580" cy="1154" r="6" class="c0"/>
<circle cx="878" cy="1158" r="6" class="c0"/>
<circle cx="808" cy="866" r="6" class="c0"/>
<circle cx="944" cy="962" r="6" class="c0"/>
<circle cx="1098" cy="1034" r="6" class="c0"/>
<circle cx="794" cy="632" r="6" class="c0"/>
<circle cx="1220" cy="1250" r="6" class="c0"/>
<circle cx="1070" cy="770" r="6" class="c0"/>
<circle cx="1110" cy="856" r="6" class="c0"/>
<circle cx="1228" cy="970" r="6" class="c0"/>
<circle cx="852" cy="1156" r="6" class="c0"/>
<circle cx="828" cy="742" r="6" class="c0"/>
<circle cx="994" cy="662" r="6" class="c0"/>
<circle cx="1260" cy="900" r="6" class="c0"/>
<circle cx="1086" cy="1264" r="6" class="c0"/>
<circle cx="752" cy="1114" r="6" class="c0"/>
<circle cx="574" cy="970" r="6" class="c0"/>
<circle cx="1062" cy="806" r="6" class="c0"/>
<circle cx="796" cy="1092" r="6" class="c0"/>
<circle cx="1264" cy="1084" r="6" class="c0"/>
<circle cx="696" cy="924" r="6" class="c0"/>
<circle cx="582" cy="1200" r="6" class="c0"/>
<circle cx="1286" cy="932" r="6" class="c0"/>
<circle cx="1098" cy="1210" r="6" class="c0"/>
<circle cx="1178" cy="694" r="6" class="c0"/>
<circle cx="968" cy="702" r="6" class="c0"/>
<circle cx="902" cy="618" r="6" class="c0"/>
<circle cx="832" cy="814" r="6" class="c0"/>
<circle cx="1304" cy="1158" r="6" class="c0"/>
<circle cx="790" cy="1026" r="6" class="c0"/>
<circle cx="660" cy="1238" r="6" class="c0"/>
<circle cx="844" cy="1190" r="6" class="c0"/>
<circle cx="732" cy="1062" r="6" class="c0"/>
<circle cx="702" cy="884" r="6" class="c0"/>
<circle cx="910" cy="1028" r="6" class="c0"/>
<circle cx="1248" cy="1236" r="6" class="c0"/>
<circle cx="844" cy="1098" r="6" class="c0"/>
<circle cx="1010" cy="1200" r="6" class="c0"/>
<circle cx="1358" cy="1114" r="6" class="c0"/>
<circle cx="956" cy="992" r="6" class="c0"/>
<circle cx="608" cy="948" r="6" class="c0"/>
<circle cx="1104" cy="804" r="6" class="c0"/>
<circle cx="798" cy="1018" r="6" class="c0"/>
<circle cx="1088" cy="906" r="6" class="c0"/>
<circle cx="1120" cy="928" r="6" class="c0"/>
<circle cx="1364" cy="1022" r="6" class="c0"/>
<circle cx="1194" cy="810" r="6" class="c0"/>
<circle cx="984" cy="670" r="6" class="c0"/>
<circle cx="1276" cy="754" r="6" class="c0"/>
<circle cx="628" cy="1234" r="6" class="c0"/>
<circle cx="796" cy="1178" r="6" class="c0"/>
<circle cx="1220" cy="922" r="6" class="c0"/>
<circle cx="1152" cy="976" r="6" class="c0"/>
<circle cx="1044" cy="752" r="6" class="c0"/>
<circle cx="1178" cy="1258" r="6" class="c0"/>
<circle cx="748" cy="802" r="6" class="c0"/>
<circle cx="994" cy="934" r="6" class="c0"/>
<circle cx="1246" cy="1170" r="6" class="c0"/>
<circle cx="1348" cy="946" r="6" class="c0"/>
<circle cx="1118" cy="1058" r="6" class="c0"/>
<circle cx="1334" cy="1042" r="6" class="c0"/>
<circle cx="966" cy="962" r="6" class="c0"/>
<circle cx="1214" cy="1166" r="6" class="c0"/>
<circle cx="608" cy="1170" r="6" class="c0"/>
<circle cx="1026" cy="668" r="6" class="c0"/>
<circle cx="784" cy="964" r="6" class="c0"/>
<circle cx="536" cy="1058" r="6" class="c0"/>
<circle cx="906" cy="776" r="6" class="c0"/>
<circle cx="1396" cy="1144" r="6" class="c0"/>
<circle cx="1198" cy="974" r="6" class="c0"/>
<circle cx="836" cy="1228" r="6" class="c0"/>
<circle cx="950" cy="880" r="6" class="c0"/>
<circle cx="1224" cy="742" r="6" class="c0"/>
</svg>
