<?xml version="1.0" encoding="utf-8"?>
<svg xmlns="http://www.w3.org/2000/svg"
     xmlns:xlink="http://www.w3.org/1999/xlink" width="1920" height="1440" >

            <defs>
            <style type="text/css"><![CDATA[
circle {stroke: none;}
.c0 {fill: #FFFFFF;}
]]></style>
            </defs>
<rect x="0" y="0" width="1920" height="1440" fill="black"/>
<circle cx="520" cy="1292" r="14" class="c0"/>
<circle cx="540" cy="1150" r="12" class="c0"/>
<circle cx="1418" cy="1198" r="12" class="c0"/>
<circle cx="1366" cy="1096" r="12" class="c0"/>
<circle cx="1396" cy="1358" r="12" class="c0"/>
<circle cx="1566" cy="850" r="12" class="c0"/>
<circle cx="528" cy="1216" r="12" class="c0"/>
<circle cx="1324" cy="1320" r="12" class="c0"/>
<circle cx="1132" cy="996" r="12" class="c0"/>
<circle cx="1480" cy="1168" r="12" class="c0"/>
<circle cx="542" cy="1356" r="12" class="c0"/>
<circle cx="1628" cy="748" r="12" class="c0"/>
<circle cx="526" cy="1332" r="12" class="c0"/>
<circle cx="1248" cy="1412" r="12" class="c0"/>
<circle cx="458" cy="1292" r="12" class="c0"/>
<circle cx="552" cy="1102" r="12" class="c0"/>
<circle cx="1110" cy="1008" r="12" class="c0"/>
<circle cx="1418" cy="1102" r="12" class="c0"/>
<circle cx="488" cy="1180" r="12" class="c0"/>
<circle cx="480" cy="1112" r="12" class="c0"/>
<circle cx="542" cy="924" r="12" class="c0"/>
<circle cx="1304" cy="1380" r="12" class="c0"/>
<circle cx="742" cy="998" r="12" class="c0"/>
<circle cx="1174" cy="994" r="12" class="c0"/>
<circle cx="624" cy="1406" r="12" class="c0"/>
<circle cx="332" cy="872" r="12" class="c0"/>
<circle cx="1472" cy="1134" r="12" class="c0"/>
<circle cx="1598" cy="884" r="12" class="c0"/>
<circle cx="1368" cy="1320" r="12" class="c0"/>
<circle cx="1180" cy="1398" r="12" class="c0"/>
<circle cx="1090" cy="1418" r="12" class="c0"/>
<circle cx="1128" cy="960" r="12" class="c0"/>
<circle cx="382" cy="888" r="12" class="c0"/>
<circle cx="1392" cy="1118" r="12" class="c0"/>
<circle cx="1398" cy="1234" r="12" class="c0"/>
<circle cx="1386" cy="1262" r="12" class="c0"/>
<circle cx="566" cy="1342" r="12" class="c0"/>
<circle cx="1274" cy="1020" r="12" class="c0"/>
<circle cx="874" cy="976" r="12" class="c0"/>
<circle cx="1236" cy="1018" r="12" class="c0"/>
<circle cx="1654" cy="776" r="12" class="c0"/>
<circle cx="758" cy="1412" r="12" class="c0"/>
<circle cx="1412" cy="616" r="12" class="c0"/>
<circle cx="438" cy="1238" r="10" class="c0"/>
<circle cx="1402" cy="1302" r="10" class="c0"/>
<circle cx="498" cy="1348" r="10" class="c0"/>
<circle cx="1442" cy="1224" r="10" class="c0"/>
<circle cx="1402" cy="1162" r="10" class="c0"/>
<circle cx="1586" cy="830" r="10" class="c0"/>
<circle cx="644" cy="1384" r="10" class="c0"/>
<circle cx="488" cy="1298" r="10" class="c0"/>
<circle cx="1038" cy="586" r="10" class="c0"/>
<circle cx="1464" cy="1282" r="10" class="c0"/>
<circle cx="834" cy="606" r="10" class="c0"/>
<circle cx="504" cy="1194" r="10" class="c0"/>
<circle cx="1162" cy="1428" r="10" class="c0"/>
<circle cx="1438" cy="946" r="10" class="c0"/>
<circle cx="1224" cy="602" r="10" class="c0"/>
<circle cx="548" cy="1308" r="10" class="c0"/>
<circle cx="1310" cy="1046" r="10" class="c0"/>
<circle cx="1442" cy="1310" r="10" class="c0"/>
<circle cx="1222" cy="1408" r="10" class="c0"/>
<circle cx="998" cy="1422" r="10" class="c0"/>
<circle cx="1410" cy="1334" r="10" class="c0"/>
<circle cx="922" cy="976" r="10" class="c0"/>
<circle cx="480" cy="1140" r="10" class="c0"/>
<circle cx="1236" cy="576" r="10" class="c0"/>
<circle cx="768" cy="1006" r="10" class="c0"/>
<circle cx="454" cy="1250" r="10" class="c0"/>
<circle cx="590" cy="1294" r="10" class="c0"/>
<circle cx="586" cy="1050" r="10" class="c0"/>
<circle cx="574" cy="1092" r="10" class="c0"/>
<circle cx="320" cy="814" r="10" class="c0"/>
<circle cx="274" cy="784" r="10" class="c0"/>
<circle cx="348" cy="730" r="10" class="c0"/>
<circle cx="544" cy="1390" r="10" class="c0"/>
<circle cx="654" cy="1038" r="10" class="c0"/>
<circle cx="652" cy="608" r="10" class="c0"/>
<circle cx="846" cy="1000" r="10" class="c0"/>
<circle cx="358" cy="862" r="10" class="c0"/>
<circle cx="468" cy="1202" r="10" class="c0"/>
<circle cx="498" cy="1246" r="10" class="c0"/>
<circle cx="486" cy="1326" r="10" class="c0"/>
<circle cx="506" cy="950" r="10" class="c0"/>
<circle cx="616" cy="1350" r="10" class="c0"/>
<circle cx="1376" cy="1060" r="10" class="c0"/>
<circle cx="792" cy="1416" r="10" class="c0"/>
<circle cx="588" cy="1392" r="10" class="c0"/>
<circle cx="446" cy="1200" r="10" class="c0"/>
<circle cx="1392" cy="632" r="10" class="c0"/>
<circle cx="1600" cy="846" r="10" class="c0"/>
<circle cx="1194" cy="1008" r="10" class="c0"/>
<circle cx="524" cy="1124" r="10" class="c0"/>
<circle cx="402" cy="1214" r="10" class="c0"/>
<circle cx="1416" cy="910" r="10" class="c0"/>
<circle cx="1040" cy="564" r="10" class="c0"/>
<circle cx="1260" cy="1380" r="10" class="c0"/>
<circle cx="1524" cy="704" r="10" class="c0"/>
<circle cx="548" cy="968" r="10" class="c0"/>
<circle cx="1128" cy="1424" r="10" class="c0"/>
<circle cx="1458" cy="1246" r="10" class="c0"/>
<circle cx="1158" cy="1010" r="10" class="c0"/>
<circle cx="1272" cy="1056" r="10" class="c0"/>
<circle cx="1338" cy="1078" r="10" class="c0"/>
<circle cx="1412" cy="1270" r="10" class="c0"/>
<circle cx="1432" cy="628" r="10" class="c0"/>
<circle cx="474" cy="670" r="10" class="c0"/>
<circle cx="532" cy="986" r="10" class="c0"/>
<circle cx="484" cy="636" r="10" class="c0"/>
<circle cx="980" cy="982" r="10" class="c0"/>
<circle cx="814" cy="998" r="10" class="c0"/>
<circle cx="1232" cy="1368" r="10" class="c0"/>
<circle cx="1356" cy="1068" r="10" class="c0"/>
<circle cx="450" cy="1172" r="10" class="c0"/>
<circle cx="1116" cy="978" r="10" class="c0"/>
<circle cx="478" cy="1088" r="10" class="c0"/>
<circle cx="1380" cy="1218" r="10" class="c0"/>
<circle cx="354" cy="886" r="10" class="c0"/>
<circle cx="604" cy="1038" r="10" class="c0"/>
<circle cx="468" cy="648" r="10" class="c0"/>
<circle cx="284" cy="802" r="10" class="c0"/>
<circle cx="820" cy="1424" r="10" class="c0"/>
<circle cx="1436" cy="1116" r="10" class="c0"/>
<circle cx="522" cy="1176" r="10" class="c0"/>
<circle cx="1336" cy="1340" r="10" class="c0"/>
<circle cx="1458" cy="1150" r="10" class="c0"/>
<circle cx="308" cy="776" r="10" class="c0"/>
<circle cx="1392" cy="936" r="10" class="c0"/>
<circle cx="844" cy="1428" r="10" class="c0"/>
<circle cx="1580" cy="682" r="10" class="c0"/>
<circle cx="320" cy="710" r="10" class="c0"/>
<circle cx="874" cy="1426" r="10" class="c0"/>
<circle cx="526" cy="1062" r="10" class="c0"/>
<circle cx="1290" cy="1348" r="10" class="c0"/>
<circle cx="726" cy="1402" r="10" class="c0"/>
<circle cx="1286" cy="1406" r="10" class="c0"/>
<circle cx="540" cy="1270" r="10" class="c0"/>
<circle cx="424" cy="1178" r="10" class="c0"/>
<circle cx="904" cy="1406" r="10" class="c0"/>
<circle cx="822" cy="580" r="10" class="c0"/>
<circle cx="708" cy="1010" r="10" class="c0"/>
<circle cx="424" cy="1216" r="10" class="c0"/>
<circle cx="1438" cy="1282" r="10" class="c0"/>
<circle cx="1614" cy="784" r="10" class="c0"/>
<circle cx="1364" cy="1362" r="10" class="c0"/>
<circle cx="1318" cy="1088" r="10" class="c0"/>
<circle cx="622" cy="1060" r="10" class="c0"/>
<circle cx="690" cy="1402" r="10" class="c0"/>
<circle cx="1468" cy="1222" r="10" class="c0"/>
<circle cx="1418" cy="954" r="10" class="c0"/>
<circle cx="286" cy="826" r="10" class="c0"/>
<circle cx="1452" cy="1268" r="10" class="c0"/>
<circle cx="808" cy="1022" r="10" class="c0"/>
<circle cx="1428" cy="974" r="10" class="c0"/>
<circle cx="600" cy="1368" r="10" class="c0"/>
<circle cx="358" cy="710" r="10" class="c0"/>
<circle cx="1254" cy="1032" r="10" class="c0"/>
<circle cx="1122" cy="1042" r="10" class="c0"/>
<circle cx="406" cy="1248" r="10" class="c0"/>
<circle cx="366" cy="748" r="10" class="c0"/>
<circle cx="660" cy="1402" r="10" class="c0"/>
<circle cx="1190" cy="1428" r="10" class="c0"/>
<circle cx="1404" cy="652" r="10" class="c0"/>
<circle cx="1446" cy="1138" r="10" class="c0"/>
<circle cx="1396" cy="1184" r="10" class="c0"/>
<circle cx="1058" cy="598" r="10" class="c0"/>
<circle cx="1552" cy="670" r="10" class="c0"/>
<circle cx="544" cy="1080" r="10" class="c0"/>
<circle cx="510" cy="1232" r="10" class="c0"/>
<circle cx="650" cy="1428" r="10" class="c0"/>
<circle cx="832" cy="1020" r="10" class="c0"/>
<circle cx="824" cy="970" r="8" class="c0"/>
<circle cx="1444" cy="1170" r="8" class="c0"/>
<circle cx="1410" cy="1078" r="8" class="c0"/>
<circle cx="436" cy="1266" r="8" class="c0"/>
<circle cx="586" cy="1076" r="8" class="c0"/>
<circle cx="564" cy="1060" r="8" class="c0"/>
<circle cx="322" cy="746" r="8" class="c0"/>
<circle cx="1620" cy="860" r="8" class="c0"/>
<circle cx="1324" cy="1064" r="8" class="c0"/>
<circle cx="1500" cy="1238" r="8" class="c0"/>
<circle cx="1270" cy="1426" r="8" class="c0"/>
<circle cx="508" cy="1150" r="8" class="c0"/>
<circle cx="1018" cy="970" r="8" class="c0"/>
<circle cx="1330" cy="1370" r="8" class="c0"/>
<circle cx="1004" cy="982" r="8" class="c0"/>
<circle cx="1152" cy="978" r="8" class="c0"/>
<circle cx="1500" cy="1176" r="8" class="c0"/>
<circle cx="1076" cy="998" r="8" class="c0"/>
<circle cx="1422" cy="1316" r="8" class="c0"/>
<circle cx="1340" cy="1360" r="8" class="c0"/>
<circle cx="322" cy="790" r="8" class="c0"/>
<circle cx="1550" cy="718" r="8" class="c0"/>
<circle cx="612" cy="1384" r="8" class="c0"/>
<circle cx="776" cy="1040" r="8" class="c0"/>
<circle cx="818" cy="1048" r="8" class="c0"/>
<circle cx="1622" cy="880" r="8" class="c0"/>
<circle cx="796" cy="1060" r="8" class="c0"/>
<circle cx="796" cy="984" r="8" class="c0"/>
<circle cx="924" cy="1424" r="8" class="c0"/>
<circle cx="686" cy="1382" r="8" class="c0"/>
<circle cx="1478" cy="1192" r="8" class="c0"/>
<circle cx="1250" cy="612" r="8" class="c0"/>
<circle cx="478" cy="1224" r="8" class="c0"/>
<circle cx="668" cy="1016" r="8" class="c0"/>
<circle cx="1258" cy="1358" r="8" class="c0"/>
<circle cx="1428" cy="926" r="8" class="c0"/>
<circle cx="510" cy="978" r="8" class="c0"/>
<circle cx="498" cy="968" r="8" class="c0"/>
<circle cx="428" cy="1282" r="8" class="c0"/>
<circle cx="1420" cy="1238" r="8" class="c0"/>
<circle cx="1632" cy="770" r="8" class="c0"/>
<circle cx="664" cy="1372" r="8" class="c0"/>
<circle cx="354" cy="918" r="8" class="c0"/>
<circle cx="364" cy="904" r="8" class="c0"/>
<circle cx="630" cy="620" r="8" class="c0"/>
<circle cx="568" cy="1318" r="8" class="c0"/>
<circle cx="774" cy="986" r="8" class="c0"/>
<circle cx="1482" cy="1252" r="8" class="c0"/>
<circle cx="846" cy="592" r="8" class="c0"/>
<circle cx="1156" cy="1030" r="8" class="c0"/>
<circle cx="332" cy="896" r="8" class="c0"/>
<circle cx="962" cy="974" r="8" class="c0"/>
<circle cx="1058" cy="996" r="8" class="c0"/>
<circle cx="1576" cy="714" r="8" class="c0"/>
<circle cx="494" cy="1274" r="8" class="c0"/>
<circle cx="1042" cy="1424" r="8" class="c0"/>
<circle cx="1622" cy="836" r="8" class="c0"/>
<circle cx="1154" cy="1402" r="8" class="c0"/>
<circle cx="484" cy="1262" r="8" class="c0"/>
<circle cx="688" cy="1020" r="8" class="c0"/>
<circle cx="690" cy="1000" r="8" class="c0"/>
<circle cx="438" cy="1152" r="8" class="c0"/>
<circle cx="786" cy="1020" r="8" class="c0"/>
<circle cx="630" cy="600" r="8" class="c0"/>
<circle cx="596" cy="1348" r="8" class="c0"/>
<circle cx="1098" cy="1028" r="8" class="c0"/>
<circle cx="1484" cy="1210" r="8" class="c0"/>
<circle cx="1430" cy="1086" r="8" class="c0"/>
<circle cx="1088" cy="1018" r="8" class="c0"/>
<circle cx="1382" cy="1340" r="8" class="c0"/>
<circle cx="1340" cy="1050" r="8" class="c0"/>
<circle cx="1378" cy="1134" r="8" class="c0"/>
<circle cx="706" cy="1428" r="8" class="c0"/>
<circle cx="1406" cy="1136" r="8" class="c0"/>
<circle cx="1414" cy="1174" r="8" class="c0"/>
<circle cx="1308" cy="1404" r="8" class="c0"/>
<circle cx="1454" cy="930" r="8" class="c0"/>
<circle cx="798" cy="1040" r="8" class="c0"/>
<circle cx="1372" cy="1238" r="8" class="c0"/>
<circle cx="968" cy="1422" r="8" class="c0"/>
<circle cx="712" cy="1376" r="8" class="c0"/>
<circle cx="1320" cy="1298" r="8" class="c0"/>
<circle cx="1296" cy="1058" r="8" class="c0"/>
<circle cx="1386" cy="1286" r="8" class="c0"/>
<circle cx="1208" cy="1366" r="8" class="c0"/>
<circle cx="1208" cy="996" r="8" class="c0"/>
<circle cx="648" cy="636" r="8" class="c0"/>
<circle cx="1536" cy="680" r="8" class="c0"/>
<circle cx="556" cy="986" r="8" class="c0"/>
<circle cx="1434" cy="892" r="8" class="c0"/>
<circle cx="508" cy="1312" r="8" class="c0"/>
<circle cx="516" cy="996" r="8" class="c0"/>
<circle cx="504" cy="1368" r="8" class="c0"/>
<circle cx="628" cy="1016" r="8" class="c0"/>
<circle cx="678" cy="1032" r="8" class="c0"/>
<circle cx="1422" cy="662" r="8" class="c0"/>
<circle cx="1390" cy="966" r="8" class="c0"/>
<circle cx="474" cy="1252" r="8" class="c0"/>
<circle cx="1600" cy="818" r="8" class="c0"/>
<circle cx="1034" cy="978" r="8" class="c0"/>
<circle cx="1312" cy="1356" r="8" class="c0"/>
<circle cx="506" cy="654" r="8" class="c0"/>
<circle cx="584" cy="1326" r="8" class="c0"/>
<circle cx="1576" cy="868" r="8" class="c0"/>
<circle cx="522" cy="1252" r="8" class="c0"/>
<circle cx="1392" cy="894" r="8" class="c0"/>
<circle cx="456" cy="1224" r="8" class="c0"/>
<circle cx="1606" cy="752" r="8" class="c0"/>
<circle cx="382" cy="852" r="8" class="c0"/>
<circle cx="1386" cy="1078" r="8" class="c0"/>
<circle cx="644" cy="1058" r="8" class="c0"/>
<circle cx="846" cy="1406" r="8" class="c0"/>
<circle cx="724" cy="988" r="8" class="c0"/>
<circle cx="1374" cy="922" r="8" class="c0"/>
<circle cx="514" cy="1078" r="8" class="c0"/>
<circle cx="476" cy="1160" r="8" class="c0"/>
<circle cx="1134" cy="1404" r="8" class="c0"/>
<circle cx="1346" cy="1134" r="8" class="c0"/>
<circle cx="1462" cy="1182" r="8" class="c0"/>
<circle cx="304" cy="796" r="8" class="c0"/>
<circle cx="1626" cy="798" r="8" class="c0"/>
<circle cx="1556" cy="690" r="8" class="c0"/>
<circle cx="1462" cy="1202" r="8" class="c0"/>
<circle cx="1368" cy="1276" r="8" class="c0"/>
<circle cx="460" cy="1122" r="8" class="c0"/>
<circle cx="1408" cy="978" r="8" class="c0"/>
<circle cx="508" cy="1264" r="8" class="c0"/>
<circle cx="1510" cy="1226" r="8" class="c0"/>
<circle cx="500" cy="1128" r="8" class="c0"/>
<circle cx="894" cy="1430" r="8" class="c0"/>
<circle cx="1056" cy="976" r="8" class="c0"/>
<circle cx="1274" cy="1394" r="8" class="c0"/>
<circle cx="1594" cy="782" r="8" class="c0"/>
<circle cx="1360" cy="1298" r="8" class="c0"/>
<circle cx="1456" cy="962" r="8" class="c0"/>
<circle cx="950" cy="1416" r="8" class="c0"/>
<circle cx="670" cy="616" r="8" class="c0"/>
<circle cx="454" cy="666" r="8" class="c0"/>
<circle cx="736" cy="1424" r="8" class="c0"/>
<circle cx="488" cy="1204" r="8" class="c0"/>
<circle cx="498" cy="1218" r="8" class="c0"/>
<circle cx="394" cy="868" r="8" class="c0"/>
<circle cx="1444" cy="914" r="8" class="c0"/>
<circle cx="460" cy="1144" r="8" class="c0"/>
<circle cx="1344" cy="1108" r="8" class="c0"/>
<circle cx="510" cy="928" r="8" class="c0"/>
<circle cx="678" cy="1426" r="8" class="c0"/>
<circle cx="1234" cy="1426" r="8" class="c0"/>
<circle cx="578" cy="1368" r="8" class="c0"/>
<circle cx="488" cy="684" r="8" class="c0"/>
<circle cx="1248" cy="594" r="8" class="c0"/>
<circle cx="510" cy="1102" r="8" class="c0"/>
<circle cx="1462" cy="1304" r="8" class="c0"/>
<circle cx="646" cy="1352" r="8" class="c0"/>
<circle cx="562" cy="952" r="8" class="c0"/>
<circle cx="1214" cy="1426" r="8" class="c0"/>
<circle cx="1458" cy="1120" r="8" class="c0"/>
<circle cx="1438" cy="1250" r="8" class="c0"/>
<circle cx="416" cy="1158" r="8" class="c0"/>
<circle cx="866" cy="596" r="8" class="c0"/>
<circle cx="1338" cy="1404" r="8" class="c0"/>
<circle cx="1430" cy="1154" r="8" class="c0"/>
<circle cx="562" cy="1290" r="8" class="c0"/>
<circle cx="1378" cy="1302" r="8" class="c0"/>
<circle cx="1434" cy="650" r="8" class="c0"/>
<circle cx="1350" cy="1386" r="8" class="c0"/>
<circle cx="1062" cy="568" r="8" class="c0"/>
<circle cx="1504" cy="1202" r="8" class="c0"/>
<circle cx="820" cy="1400" r="8" class="c0"/>
<circle cx="1376" cy="1154" r="8" class="c0"/>
<circle cx="414" cy="1268" r="8" class="c0"/>
<circle cx="638" cy="1028" r="8" class="c0"/>
<circle cx="460" cy="1318" r="8" class="c0"/>
<circle cx="370" cy="840" r="8" class="c0"/>
<circle cx="1390" cy="912" r="8" class="c0"/>
<circle cx="856" cy="608" r="8" class="c0"/>
<circle cx="1094" cy="984" r="8" class="c0"/>
<circle cx="628" cy="1370" r="8" class="c0"/>
<circle cx="728" cy="1018" r="8" class="c0"/>
<circle cx="1486" cy="1304" r="8" class="c0"/>
<circle cx="334" cy="698" r="8" class="c0"/>
<circle cx="1412" cy="888" r="8" class="c0"/>
<circle cx="1296" cy="1028" r="8" class="c0"/>
<circle cx="1136" cy="1020" r="8" class="c0"/>
<circle cx="568" cy="1396" r="8" class="c0"/>
<circle cx="936" cy="1404" r="8" class="c0"/>
<circle cx="1422" cy="1220" r="8" class="c0"/>
<circle cx="546" cy="1128" r="8" class="c0"/>
<circle cx="1018" cy="1428" r="8" class="c0"/>
<circle cx="614" cy="1080" r="8" class="c0"/>
<circle cx="1198" cy="1410" r="8" class="c0"/>
<circle cx="1234" cy="1394" r="8" class="c0"/>
<circle cx="1410" cy="1250" r="8" class="c0"/>
<circle cx="1552" cy="866" r="8" class="c0"/>
<circle cx="526" cy="942" r="8" class="c0"/>
<circle cx="914" cy="996" r="8" class="c0"/>
<circle cx="1428" cy="1352" r="8" class="c0"/>
<circle cx="498" cy="674" r="8" class="c0"/>
<circle cx="952" cy="986" r="8" class="c0"/>
<circle cx="1480" cy="1234" r="8" class="c0"/>
<circle cx="372" cy="724" r="8" class="c0"/>
<circle cx="902" cy="980" r="8" class="c0"/>
<circle cx="1656" cy="750" r="8" class="c0"/>
<circle cx="340" cy="848" r="8" class="c0"/>
<circle cx="744" cy="1392" r="8" class="c0"/>
<circle cx="1566" cy="702" r="8" class="c0"/>
<circle cx="266" cy="810" r="8" class="c0"/>
<circle cx="564" cy="1378" r="8" class="c0"/>
<circle cx="522" cy="964" r="8" class="c0"/>
<circle cx="1570" cy="886" r="8" class="c0"/>
<circle cx="1344" cy="1312" r="8" class="c0"/>
<circle cx="1374" cy="946" r="8" class="c0"/>
<circle cx="886" cy="1414" r="8" class="c0"/>
<circle cx="1448" cy="1192" r="8" class="c0"/>
<circle cx="698" cy="1030" r="8" class="c0"/>
<circle cx="1212" cy="1392" r="8" class="c0"/>
<circle cx="570" cy="1116" r="8" class="c0"/>
<circle cx="306" cy="834" r="8" class="c0"/>
<circle cx="628" cy="1336" r="8" class="c0"/>
<circle cx="1280" cy="1366" r="8" class="c0"/>
<circle cx="1358" cy="1340" r="8" class="c0"/>
<circle cx="1206" cy="1020" r="8" class="c0"/>
<circle cx="286" cy="770" r="8" class="c0"/>
<circle cx="1222" cy="1034" r="8" class="c0"/>
<circle cx="498" cy="1160" r="8" class="c0"/>
<circle cx="1396" cy="1090" r="8" class="c0"/>
<circle cx="348" cy="758" r="8" class="c0"/>
<circle cx="466" cy="1270" r="8" class="c0"/>
<circle cx="1356" cy="1262" r="8" class="c0"/>
<circle cx="1306" cy="1336" r="8" class="c0"/>
<circle cx="1286" cy="1040" r="8" class="c0"/>
<circle cx="1342" cy="1278" r="8" class="c0"/>
<circle cx="850" cy="976" r="8" class="c0"/>
<circle cx="1440" cy="1338" r="8" class="c0"/>
<circle cx="766" cy="1026" r="8" class="c0"/>
<circle cx="1146" cy="1044" r="8" class="c0"/>
<circle cx="1374" cy="1384" r="8" class="c0"/>
<circle cx="1596" cy="764" r="8" class="c0"/>
<circle cx="438" cy="1302" r="8" class="c0"/>
<circle cx="486" cy="658" r="8" class="c0"/>
<circle cx="1432" cy="1184" r="8" class="c0"/>
<circle cx="1066" cy="1412" r="8" class="c0"/>
<circle cx="604" cy="1068" r="8" class="c0"/>
<circle cx="1560" cy="828" r="8" class="c0"/>
<circle cx="518" cy="1352" r="8" class="c0"/>
<circle cx="628" cy="1038" r="8" class="c0"/>
<circle cx="546" cy="1050" r="8" class="c0"/>
<circle cx="834" cy="568" r="8" class="c0"/>
<circle cx="852" cy="570" r="8" class="c0"/>
<circle cx="1110" cy="1410" r="8" class="c0"/>
<circle cx="1302" cy="1428" r="8" class="c0"/>
<circle cx="542" cy="1172" r="8" class="c0"/>
<circle cx="1072" cy="1430" r="8" class="c0"/>
<circle cx="612" cy="1424" r="8" class="c0"/>
<circle cx="650" cy="1010" r="6" class="c0"/>
<circle cx="1242" cy="1044" r="6" class="c0"/>
<circle cx="806" cy="968" r="6" class="c0"/>
<circle cx="540" cy="1004" r="6" class="c0"/>
<circle cx="1036" cy="994" r="6" class="c0"/>
<circle cx="770" cy="1398" r="6" class="c0"/>
<circle cx="1646" cy="798" r="6" class="c0"/>
<circle cx="836" cy="984" r="6" class="c0"/>
<circle cx="1416" cy="1292" r="6" class="c0"/>
<circle cx="1382" cy="1194" r="6" class="c0"/>
<circle cx="1426" cy="1138" r="6" class="c0"/>
<circle cx="1146" cy="1418" r="6" class="c0"/>
<circle cx="1456" cy="1322" r="6" class="c0"/>
<circle cx="338" cy="748" r="6" class="c0"/>
<circle cx="1394" cy="1322" r="6" class="c0"/>
<circle cx="1142" cy="1390" r="6" class="c0"/>
<circle cx="474" cy="1344" r="6" class="c0"/>
<circle cx="1022" cy="594" r="6" class="c0"/>
<circle cx="1148" cy="956" r="6" class="c0"/>
<circle cx="1472" cy="1316" r="6" class="c0"/>
<circle cx="1360" cy="1046" r="6" class="c0"/>
<circle cx="832" cy="1040" r="6" class="c0"/>
<circle cx="540" cy="1238" r="6" class="c0"/>
<circle cx="664" cy="632" r="6" class="c0"/>
<circle cx="532" cy="1092" r="6" class="c0"/>
<circle cx="794" cy="1002" r="6" class="c0"/>
<circle cx="564" cy="926" r="6" class="c0"/>
<circle cx="804" cy="1404" r="6" class="c0"/>
<circle cx="1082" cy="966" r="6" class="c0"/>
<circle cx="300" cy="816" r="6" class="c0"/>
<circle cx="1430" cy="1264" r="6" class="c0"/>
<circle cx="322" cy="728" r="6" class="c0"/>
<circle cx="766" cy="1432" r="6" class="c0"/>
<circle cx="524" cy="916" r="6" class="c0"/>
<circle cx="520" cy="1382" r="6" class="c0"/>
<circle cx="544" cy="1288" r="6" class="c0"/>
<circle cx="862" cy="1412" r="6" class="c0"/>
<circle cx="1470" cy="1262" r="6" class="c0"/>
<circle cx="1096" cy="1396" r="6" class="c0"/>
<circle cx="542" cy="946" r="6" class="c0"/>
<circle cx="1418" cy="638" r="6" class="c0"/>
<circle cx="476" cy="1310" r="6" class="c0"/>
<circle cx="594" cy="1022" r="6" class="c0"/>
<circle cx="1252" cy="1008" r="6" class="c0"/>
<circle cx="550" cy="1252" r="6" class="c0"/>
<circle cx="336" cy="912" r="6" class="c0"/>
<circle cx="1370" cy="1170" r="6" class="c0"/>
<circle cx="1320" cy="1392" r="6" class="c0"/>
<circle cx="872" cy="996" r="6" class="c0"/>
<circle cx="1428" cy="1300" r="6" class="c0"/>
<circle cx="1100" cy="968" r="6" class="c0"/>
<circle cx="324" cy="762" r="6" class="c0"/>
<circle cx="1338" cy="1294" r="6" class="c0"/>
<circle cx="382" cy="910" r="6" class="c0"/>
<circle cx="972" cy="962" r="6" class="c0"/>
<circle cx="690" cy="1362" r="6" class="c0"/>
<circle cx="492" cy="1098" r="6" class="c0"/>
<circle cx="1258" cy="576" r="6" class="c0"/>
<circle cx="1596" cy="864" r="6" class="c0"/>
<circle cx="1022" cy="578" r="6" class="c0"/>
<circle cx="1396" cy="1208" r="6" class="c0"/>
<circle cx="1362" cy="1136" r="6" class="c0"/>
<circle cx="478" cy="1280" r="6" class="c0"/>
<circle cx="704" cy="1390" r="6" class="c0"/>
<circle cx="1546" cy="844" r="6" class="c0"/>
<circle cx="786" cy="1050" r="6" class="c0"/>
<circle cx="464" cy="1100" r="6" class="c0"/>
<circle cx="1612" cy="734" r="6" class="c0"/>
<circle cx="658" cy="646" r="6" class="c0"/>
<circle cx="1370" cy="1118" r="6" class="c0"/>
<circle cx="460" cy="632" r="6" class="c0"/>
<circle cx="1498" cy="1258" r="6" class="c0"/>
<circle cx="576" cy="1422" r="6" class="c0"/>
<circle cx="448" cy="1276" r="6" class="c0"/>
<circle cx="606" cy="1334" r="6" class="c0"/>
<circle cx="336" cy="806" r="6" class="c0"/>
<circle cx="708" cy="1406" r="6" class="c0"/>
<circle cx="982" cy="1412" r="6" class="c0"/>
<circle cx="874" cy="1404" r="6" class="c0"/>
<circle cx="954" cy="1432" r="6" class="c0"/>
<circle cx="1450" cy="1352" r="6" class="c0"/>
<circle cx="1370" cy="1202" r="6" class="c0"/>
<circle cx="644" cy="592" r="6" class="c0"/>
<circle cx="566" cy="1414" r="6" class="c0"/>
<circle cx="672" cy="1390" r="6" class="c0"/>
<circle cx="1414" cy="1122" r="6" class="c0"/>
<circle cx="816" cy="600" r="6" class="c0"/>
<circle cx="1216" cy="1010" r="6" class="c0"/>
<circle cx="418" cy="1236" r="6" class="c0"/>
<circle cx="892" cy="968" r="6" class="c0"/>
<circle cx="600" cy="1404" r="6" class="c0"/>
<circle cx="446" cy="1134" r="6" class="c0"/>
<circle cx="1462" cy="944" r="6" class="c0"/>
<circle cx="830" cy="1410" r="6" class="c0"/>
<circle cx="562" cy="1076" r="6" class="c0"/>
<circle cx="1382" cy="1370" r="6" class="c0"/>
<circle cx="422" cy="1196" r="6" class="c0"/>
<circle cx="628" cy="1428" r="6" class="c0"/>
<circle cx="1232" cy="618" r="6" class="c0"/>
<circle cx="1630" cy="850" r="6" class="c0"/>
<circle cx="1224" cy="1000" r="6" class="c0"/>
<circle cx="790" cy="1398" r="6" class="c0"/>
<circle cx="1494" cy="1222" r="6" class="c0"/>
<circle cx="1636" cy="786" r="6" class="c0"/>
<circle cx="1250" cy="1432" r="6" class="c0"/>
<circle cx="782" cy="1430" r="6" class="c0"/>
<circle cx="758" cy="984" r="6" class="c0"/>
<circle cx="1330" cy="1040" r="6" class="c0"/>
<circle cx="1074" cy="978" r="6" class="c0"/>
<circle cx="1028" cy="1408" r="6" class="c0"/>
<circle cx="908" cy="962" r="6" class="c0"/>
<circle cx="664" cy="1000" r="6" class="c0"/>
<circle cx="1308" cy="1072" r="6" class="c0"/>
<circle cx="988" cy="966" r="6" class="c0"/>
<circle cx="942" cy="974" r="6" class="c0"/>
<circle cx="498" cy="1082" r="6" class="c0"/>
<circle cx="1192" cy="1382" r="6" class="c0"/>
<circle cx="548" cy="1334" r="6" class="c0"/>
<circle cx="398" cy="902" r="6" class="c0"/>
<circle cx="506" cy="1328" r="6" class="c0"/>
<circle cx="530" cy="1106" r="6" class="c0"/>
<circle cx="1174" cy="1018" r="6" class="c0"/>
<circle cx="1182" cy="1374" r="6" class="c0"/>
<circle cx="538" cy="1114" r="6" class="c0"/>
<circle cx="1108" cy="1430" r="6" class="c0"/>
<circle cx="566" cy="1044" r="6" class="c0"/>
<circle cx="1440" cy="1206" r="6" class="c0"/>
<circle cx="730" cy="1374" r="6" class="c0"/>
<circle cx="1546" cy="700" r="6" class="c0"/>
<circle cx="1314" cy="1022" r="6" class="c0"/>
<circle cx="940" cy="1430" r="6" class="c0"/>
<circle cx="598" cy="1310" r="6" class="c0"/>
<circle cx="566" cy="972" r="6" class="c0"/>
<circle cx="1482" cy="1274" r="6" class="c0"/>
<circle cx="780" cy="1390" r="6" class="c0"/>
<circle cx="532" cy="906" r="6" class="c0"/>
<circle cx="1388" cy="1144" r="6" class="c0"/>
<circle cx="524" cy="1368" r="6" class="c0"/>
<circle cx="716" cy="1416" r="6" class="c0"/>
<circle cx="1606" cy="800" r="6" class="c0"/>
<circle cx="952" cy="964" r="6" class="c0"/>
<circle cx="1182" cy="1026" r="6" class="c0"/>
<circle cx="472" cy="688" r="6" class="c0"/>
<circle cx="1534" cy="724" r="6" class="c0"/>
<circle cx="788" cy="970" r="6" class="c0"/>
<circle cx="1476" cy="1294" r="6" class="c0"/>
<circle cx="750" cy="1432" r="6" class="c0"/>
<circle cx="582" cy="1310" r="6" class="c0"/>
<circle cx="466" cy="1180" r="6" class="c0"/>
<circle cx="804" cy="1432" r="6" class="c0"/>
<circle cx="1402" cy="922" r="6" class="c0"/>
<circle cx="1070" cy="582" r="6" class="c0"/>
<circle cx="982" cy="1432" r="6" class="c0"/>
<circle cx="458" cy="682" r="6" class="c0"/>
<circle cx="666" cy="596" r="6" class="c0"/>
<circle cx="1490" cy="1150" r="6" class="c0"/>
<circle cx="446" cy="652" r="6" class="c0"/>
<circle cx="1278" cy="1334" r="6" class="c0"/>
<circle cx="372" cy="872" r="6" class="c0"/>
<circle cx="632" cy="640" r="6" class="c0"/>
<circle cx="910" cy="1432" r="6" class="c0"/>
<circle cx="526" cy="1196" r="6" class="c0"/>
<circle cx="1220" cy="584" r="6" class="c0"/>
<circle cx="1450" cy="1294" r="6" class="c0"/>
<circle cx="1264" cy="590" r="6" class="c0"/>
<circle cx="1292" cy="1326" r="6" class="c0"/>
<circle cx="1572" cy="814" r="6" class="c0"/>
<circle cx="1400" cy="1068" r="6" class="c0"/>
<circle cx="1120" cy="1024" r="6" class="c0"/>
<circle cx="1254" cy="1052" r="6" class="c0"/>
<circle cx="1668" cy="764" r="6" class="c0"/>
<circle cx="860" cy="988" r="6" class="c0"/>
<circle cx="1102" cy="1044" r="6" class="c0"/>
<circle cx="1166" cy="1386" r="6" class="c0"/>
<circle cx="1348" cy="1328" r="6" class="c0"/>
<circle cx="1384" cy="648" r="6" class="c0"/>
<circle cx="456" cy="1336" r="6" class="c0"/>
<circle cx="1442" cy="1096" r="6" class="c0"/>
<circle cx="1092" cy="1000" r="6" class="c0"/>
<circle cx="374" cy="918" r="6" class="c0"/>
<circle cx="1390" cy="614" r="6" class="c0"/>
<circle cx="892" cy="992" r="6" class="c0"/>
<circle cx="336" cy="718" r="6" class="c0"/>
<circle cx="294" cy="786" r="6" class="c0"/>
<circle cx="1616" cy="764" r="6" class="c0"/>
<circle cx="614" cy="1024" r="6" class="c0"/>
<circle cx="1222" cy="1382" r="6" class="c0"/>
<circle cx="594" cy="1416" r="6" class="c0"/>
<circle cx="1610" cy="870" r="6" class="c0"/>
<circle cx="484" cy="1372" r="6" class="c0"/>
<circle cx="554" cy="938" r="6" class="c0"/>
<circle cx="1536" cy="662" r="6" class="c0"/>
<circle cx="566" cy="1274" r="6" class="c0"/>
<circle cx="774" cy="1422" r="6" class="c0"/>
<circle cx="1244" cy="998" r="6" class="c0"/>
<circle cx="466" cy="1236" r="6" class="c0"/>
<circle cx="1050" cy="1410" r="6" class="c0"/>
<circle cx="932" cy="990" r="6" class="c0"/>
<circle cx="750" cy="1018" r="6" class="c0"/>
<circle cx="570" cy="938" r="6" class="c0"/>
<circle cx="1488" cy="1288" r="6" class="c0"/>
<circle cx="1570" cy="666" r="6" class="c0"/>
<circle cx="322" cy="832" r="6" class="c0"/>
<circle cx="408" cy="1192" r="6" class="c0"/>
<circle cx="1410" cy="930" r="6" class="c0"/>
<circle cx="452" cy="640" r="6" class="c0"/>
<circle cx="1286" cy="1068" r="6" class="c0"/>
<circle cx="346" cy="904" r="6" class="c0"/>
<circle cx="1262" cy="1342" r="6" class="c0"/>
<circle cx="1354" cy="1402" r="6" class="c0"/>
<circle cx="312" cy="736" r="6" class="c0"/>
<circle cx="1018" cy="990" r="6" class="c0"/>
<circle cx="670" cy="1046" r="6" class="c0"/>
<circle cx="1040" cy="604" r="6" class="c0"/>
<circle cx="1284" cy="1382" r="6" class="c0"/>
<circle cx="1400" cy="956" r="6" class="c0"/>
<circle cx="862" cy="580" r="6" class="c0"/>
</svg>
