<?xml version="1.0" encoding="utf-8"?>
<svg xmlns="http://www.w3.org/2000/svg"
     xmlns:xlink="http://www.w3.org/1999/xlink" width="1920" height="1440" >

            <defs>
            <style type="text/css"><![CDATA[
circle {stroke: none;}
.c0 {fill: #FFFFFF;}
]]></style>
            </defs>
<rect x="0" y="0" width="1920" height="1440" fill="black"/>
<circle cx="1144" cy="1218" r="12" class="c0"/>
<circle cx="1268" cy="698" r="12" class="c0"/>
<circle cx="1020" cy="1246" r="12" class="c0"/>
<circle cx="1704" cy="1060" r="12" class="c0"/>
<circle cx="944" cy="1238" r="12" class="c0"/>
<circle cx="1520" cy="1148" r="12" class="c0"/>
<circle cx="1056" cy="698" r="12" class="c0"/>
<circle cx="758" cy="1234" r="12" class="c0"/>
<circle cx="256" cy="864" r="12" class="c0"/>
<circle cx="960" cy="1270" r="12" class="c0"/>
<circle cx="1038" cy="1224" r="12" class="c0"/>
<circle cx="1290" cy="716" r="12" class="c0"/>
<circle cx="794" cy="1294" r="12" class="c0"/>
<circle cx="972" cy="1248" r="12" class="c0"/>
<circle cx="188" cy="968" r="12" class="c0"/>
<circle cx="898" cy="1190" r="12" class="c0"/>
<circle cx="984" cy="1164" r="12" class="c0"/>
<circle cx="1118" cy="1282" r="12" class="c0"/>
<circle cx="1180" cy="1278" r="12" class="c0"/>
<circle cx="274" cy="1256" r="12" class="c0"/>
<circle cx="1618" cy="818" r="12" class="c0"/>
<circle cx="1466" cy="1208" r="12" class="c0"/>
<circle cx="982" cy="1210" r="12" class="c0"/>
<circle cx="480" cy="1182" r="12" class="c0"/>
<circle cx="1508" cy="1096" r="12" class="c0"/>
<circle cx="226" cy="940" r="12" class="c0"/>
<circle cx="1152" cy="1244" r="12" class="c0"/>
<circle cx="872" cy="1178" r="12" class="c0"/>
<circle cx="330" cy="1186" r="12" class="c0"/>
<circle cx="282" cy="856" r="12" class="c0"/>
<circle cx="604" cy="740" r="12" class="c0"/>
<circle cx="1664" cy="1020" r="12" class="c0"/>
<circle cx="630" cy="728" r="12" class="c0"/>
<circle cx="304" cy="1398" r="12" class="c0"/>
<circle cx="1628" cy="1316" r="12" class="c0"/>
<circle cx="486" cy="1056" r="12" class="c0"/>
<circle cx="866" cy="1204" r="12" class="c0"/>
<circle cx="1676" cy="1084" r="12" class="c0"/>
<circle cx="962" cy="1198" r="12" class="c0"/>
<circle cx="286" cy="1058" r="12" class="c0"/>
<circle cx="1456" cy="766" r="12" class="c0"/>
<circle cx="1104" cy="1234" r="12" class="c0"/>
<circle cx="802" cy="1246" r="12" class="c0"/>
<circle cx="1550" cy="1156" r="12" class="c0"/>
<circle cx="1714" cy="964" r="10" class="c0"/>
<circle cx="1602" cy="1232" r="10" class="c0"/>
<circle cx="432" cy="1154" r="10" class="c0"/>
<circle cx="826" cy="1222" r="10" class="c0"/>
<circle cx="1442" cy="1182" r="10" class="c0"/>
<circle cx="262" cy="1064" r="10" class="c0"/>
<circle cx="1644" cy="828" r="10" class="c0"/>
<circle cx="358" cy="1428" r="10" class="c0"/>
<circle cx="738" cy="1256" r="10" class="c0"/>
<circle cx="914" cy="1168" r="10" class="c0"/>
<circle cx="1740" cy="942" r="10" class="c0"/>
<circle cx="1156" cy="1304" r="10" class="c0"/>
<circle cx="296" cy="1228" r="10" class="c0"/>
<circle cx="1064" cy="1222" r="10" class="c0"/>
<circle cx="416" cy="768" r="10" class="c0"/>
<circle cx="782" cy="1270" r="10" class="c0"/>
<circle cx="230" cy="972" r="10" class="c0"/>
<circle cx="1018" cy="1188" r="10" class="c0"/>
<circle cx="1654" cy="1050" r="10" class="c0"/>
<circle cx="826" cy="724" r="10" class="c0"/>
<circle cx="1046" cy="1186" r="10" class="c0"/>
<circle cx="1518" cy="1190" r="10" class="c0"/>
<circle cx="470" cy="1158" r="10" class="c0"/>
<circle cx="942" cy="1210" r="10" class="c0"/>
<circle cx="326" cy="1214" r="10" class="c0"/>
<circle cx="734" cy="1294" r="10" class="c0"/>
<circle cx="1146" cy="1272" r="10" class="c0"/>
<circle cx="1618" cy="856" r="10" class="c0"/>
<circle cx="1700" cy="932" r="10" class="c0"/>
<circle cx="1176" cy="1252" r="10" class="c0"/>
<circle cx="280" cy="1338" r="10" class="c0"/>
<circle cx="244" cy="1048" r="10" class="c0"/>
<circle cx="790" cy="1220" r="10" class="c0"/>
<circle cx="1326" cy="1014" r="10" class="c0"/>
<circle cx="1184" cy="1230" r="10" class="c0"/>
<circle cx="1466" cy="1180" r="10" class="c0"/>
<circle cx="840" cy="1208" r="10" class="c0"/>
<circle cx="198" cy="948" r="10" class="c0"/>
<circle cx="1018" cy="1212" r="10" class="c0"/>
<circle cx="242" cy="1086" r="10" class="c0"/>
<circle cx="482" cy="1208" r="10" class="c0"/>
<circle cx="458" cy="1136" r="10" class="c0"/>
<circle cx="420" cy="1080" r="10" class="c0"/>
<circle cx="1640" cy="1280" r="10" class="c0"/>
<circle cx="1470" cy="748" r="10" class="c0"/>
<circle cx="1628" cy="1428" r="10" class="c0"/>
<circle cx="454" cy="1200" r="10" class="c0"/>
<circle cx="1460" cy="1150" r="10" class="c0"/>
<circle cx="934" cy="1184" r="10" class="c0"/>
<circle cx="952" cy="1164" r="10" class="c0"/>
<circle cx="448" cy="766" r="10" class="c0"/>
<circle cx="1028" cy="1166" r="10" class="c0"/>
<circle cx="898" cy="1230" r="10" class="c0"/>
<circle cx="328" cy="1418" r="10" class="c0"/>
<circle cx="1576" cy="1158" r="10" class="c0"/>
<circle cx="894" cy="1254" r="10" class="c0"/>
<circle cx="276" cy="1088" r="10" class="c0"/>
<circle cx="422" cy="1204" r="10" class="c0"/>
<circle cx="1256" cy="722" r="10" class="c0"/>
<circle cx="344" cy="1144" r="10" class="c0"/>
<circle cx="836" cy="688" r="10" class="c0"/>
<circle cx="914" cy="1218" r="10" class="c0"/>
<circle cx="1426" cy="1058" r="10" class="c0"/>
<circle cx="872" cy="1250" r="10" class="c0"/>
<circle cx="316" cy="1336" r="10" class="c0"/>
<circle cx="1616" cy="1354" r="10" class="c0"/>
<circle cx="300" cy="1278" r="10" class="c0"/>
<circle cx="296" cy="1316" r="10" class="c0"/>
<circle cx="1492" cy="1144" r="10" class="c0"/>
<circle cx="444" cy="788" r="10" class="c0"/>
<circle cx="1038" cy="1258" r="10" class="c0"/>
<circle cx="1452" cy="730" r="10" class="c0"/>
<circle cx="1496" cy="1174" r="10" class="c0"/>
<circle cx="418" cy="1176" r="10" class="c0"/>
<circle cx="766" cy="1286" r="10" class="c0"/>
<circle cx="278" cy="884" r="10" class="c0"/>
<circle cx="1602" cy="1386" r="10" class="c0"/>
<circle cx="776" cy="1206" r="10" class="c0"/>
<circle cx="1006" cy="1260" r="10" class="c0"/>
<circle cx="1736" cy="904" r="10" class="c0"/>
<circle cx="1274" cy="734" r="10" class="c0"/>
<circle cx="1646" cy="854" r="10" class="c0"/>
<circle cx="342" cy="1404" r="10" class="c0"/>
<circle cx="394" cy="1132" r="10" class="c0"/>
<circle cx="426" cy="802" r="8" class="c0"/>
<circle cx="1478" cy="770" r="8" class="c0"/>
<circle cx="444" cy="1224" r="8" class="c0"/>
<circle cx="1636" cy="1248" r="8" class="c0"/>
<circle cx="1046" cy="676" r="8" class="c0"/>
<circle cx="262" cy="1028" r="8" class="c0"/>
<circle cx="308" cy="862" r="8" class="c0"/>
<circle cx="1078" cy="700" r="8" class="c0"/>
<circle cx="230" cy="1060" r="8" class="c0"/>
<circle cx="1608" cy="836" r="8" class="c0"/>
<circle cx="264" cy="834" r="8" class="c0"/>
<circle cx="1684" cy="1032" r="8" class="c0"/>
<circle cx="1604" cy="1192" r="8" class="c0"/>
<circle cx="1614" cy="1206" r="8" class="c0"/>
<circle cx="1492" cy="1208" r="8" class="c0"/>
<circle cx="1086" cy="1224" r="8" class="c0"/>
<circle cx="356" cy="1156" r="8" class="c0"/>
<circle cx="618" cy="710" r="8" class="c0"/>
<circle cx="926" cy="1262" r="8" class="c0"/>
<circle cx="1286" cy="686" r="8" class="c0"/>
<circle cx="1468" cy="1082" r="8" class="c0"/>
<circle cx="440" cy="1186" r="8" class="c0"/>
<circle cx="1066" cy="1194" r="8" class="c0"/>
<circle cx="842" cy="1244" r="8" class="c0"/>
<circle cx="1628" cy="1224" r="8" class="c0"/>
<circle cx="1734" cy="962" r="8" class="c0"/>
<circle cx="1590" cy="1356" r="8" class="c0"/>
<circle cx="1086" cy="1200" r="8" class="c0"/>
<circle cx="1126" cy="1238" r="8" class="c0"/>
<circle cx="430" cy="1098" r="8" class="c0"/>
<circle cx="1136" cy="1292" r="8" class="c0"/>
<circle cx="1062" cy="1242" r="8" class="c0"/>
<circle cx="1702" cy="904" r="8" class="c0"/>
<circle cx="852" cy="1230" r="8" class="c0"/>
<circle cx="214" cy="982" r="8" class="c0"/>
<circle cx="986" cy="1266" r="8" class="c0"/>
<circle cx="252" cy="1102" r="8" class="c0"/>
<circle cx="1472" cy="1134" r="8" class="c0"/>
<circle cx="1486" cy="732" r="8" class="c0"/>
<circle cx="1684" cy="948" r="8" class="c0"/>
<circle cx="1528" cy="1112" r="8" class="c0"/>
<circle cx="748" cy="1272" r="8" class="c0"/>
<circle cx="1004" cy="1200" r="8" class="c0"/>
<circle cx="1696" cy="1018" r="8" class="c0"/>
<circle cx="1472" cy="1110" r="8" class="c0"/>
<circle cx="1720" cy="936" r="8" class="c0"/>
<circle cx="310" cy="1178" r="8" class="c0"/>
<circle cx="304" cy="844" r="8" class="c0"/>
<circle cx="284" cy="1422" r="8" class="c0"/>
<circle cx="492" cy="1146" r="8" class="c0"/>
<circle cx="358" cy="1122" r="8" class="c0"/>
<circle cx="376" cy="1108" r="8" class="c0"/>
<circle cx="806" cy="1274" r="8" class="c0"/>
<circle cx="1484" cy="1192" r="8" class="c0"/>
<circle cx="992" cy="1230" r="8" class="c0"/>
<circle cx="304" cy="1202" r="8" class="c0"/>
<circle cx="844" cy="706" r="8" class="c0"/>
<circle cx="1748" cy="918" r="8" class="c0"/>
<circle cx="1650" cy="1310" r="8" class="c0"/>
<circle cx="1554" cy="1134" r="8" class="c0"/>
<circle cx="272" cy="1222" r="8" class="c0"/>
<circle cx="1642" cy="1032" r="8" class="c0"/>
<circle cx="856" cy="694" r="8" class="c0"/>
<circle cx="318" cy="1240" r="8" class="c0"/>
<circle cx="1624" cy="1294" r="8" class="c0"/>
<circle cx="336" cy="1370" r="8" class="c0"/>
<circle cx="1508" cy="1126" r="8" class="c0"/>
<circle cx="436" cy="754" r="8" class="c0"/>
<circle cx="588" cy="1022" r="8" class="c0"/>
<circle cx="1648" cy="1212" r="8" class="c0"/>
<circle cx="350" cy="1174" r="8" class="c0"/>
<circle cx="822" cy="704" r="8" class="c0"/>
<circle cx="1034" cy="1200" r="8" class="c0"/>
<circle cx="540" cy="1038" r="8" class="c0"/>
<circle cx="282" cy="1360" r="8" class="c0"/>
<circle cx="1594" cy="1174" r="8" class="c0"/>
<circle cx="214" cy="958" r="8" class="c0"/>
<circle cx="908" cy="1270" r="8" class="c0"/>
<circle cx="1638" cy="1366" r="8" class="c0"/>
<circle cx="850" cy="1184" r="8" class="c0"/>
<circle cx="1494" cy="1114" r="8" class="c0"/>
<circle cx="628" cy="752" r="8" class="c0"/>
<circle cx="1064" cy="674" r="8" class="c0"/>
<circle cx="1642" cy="1390" r="8" class="c0"/>
<circle cx="778" cy="1244" r="8" class="c0"/>
<circle cx="260" cy="1380" r="8" class="c0"/>
<circle cx="1582" cy="1336" r="8" class="c0"/>
<circle cx="1608" cy="1252" r="8" class="c0"/>
<circle cx="338" cy="1164" r="8" class="c0"/>
<circle cx="242" cy="1284" r="8" class="c0"/>
<circle cx="1044" cy="714" r="8" class="c0"/>
<circle cx="292" cy="1380" r="8" class="c0"/>
<circle cx="598" cy="714" r="8" class="c0"/>
<circle cx="888" cy="1208" r="8" class="c0"/>
<circle cx="408" cy="1100" r="8" class="c0"/>
<circle cx="1644" cy="806" r="8" class="c0"/>
<circle cx="1446" cy="1130" r="8" class="c0"/>
<circle cx="1722" cy="916" r="8" class="c0"/>
<circle cx="916" cy="1252" r="8" class="c0"/>
<circle cx="476" cy="1128" r="8" class="c0"/>
<circle cx="432" cy="1132" r="8" class="c0"/>
<circle cx="304" cy="1256" r="8" class="c0"/>
<circle cx="1626" cy="1264" r="8" class="c0"/>
<circle cx="1376" cy="1046" r="8" class="c0"/>
<circle cx="762" cy="1256" r="8" class="c0"/>
<circle cx="1174" cy="1210" r="8" class="c0"/>
<circle cx="1454" cy="1114" r="8" class="c0"/>
<circle cx="754" cy="1304" r="8" class="c0"/>
<circle cx="364" cy="1386" r="8" class="c0"/>
<circle cx="1126" cy="1304" r="8" class="c0"/>
<circle cx="1106" cy="1264" r="8" class="c0"/>
<circle cx="1716" cy="1042" r="8" class="c0"/>
<circle cx="778" cy="1306" r="8" class="c0"/>
<circle cx="924" cy="1202" r="8" class="c0"/>
<circle cx="1676" cy="1002" r="8" class="c0"/>
<circle cx="452" cy="1068" r="8" class="c0"/>
<circle cx="1608" cy="1326" r="8" class="c0"/>
<circle cx="1608" cy="1274" r="8" class="c0"/>
<circle cx="1620" cy="1410" r="8" class="c0"/>
<circle cx="936" cy="1276" r="8" class="c0"/>
<circle cx="1494" cy="756" r="8" class="c0"/>
<circle cx="1442" cy="1158" r="8" class="c0"/>
<circle cx="1662" cy="836" r="8" class="c0"/>
<circle cx="1590" cy="1402" r="8" class="c0"/>
<circle cx="1484" cy="1124" r="8" class="c0"/>
<circle cx="384" cy="1426" r="8" class="c0"/>
<circle cx="412" cy="790" r="8" class="c0"/>
<circle cx="266" cy="1302" r="8" class="c0"/>
<circle cx="318" cy="1380" r="8" class="c0"/>
<circle cx="1004" cy="1172" r="8" class="c0"/>
<circle cx="244" cy="960" r="8" class="c0"/>
<circle cx="696" cy="986" r="8" class="c0"/>
<circle cx="270" cy="1280" r="8" class="c0"/>
<circle cx="1578" cy="1254" r="8" class="c0"/>
<circle cx="992" cy="1190" r="8" class="c0"/>
<circle cx="736" cy="1226" r="8" class="c0"/>
<circle cx="282" cy="1018" r="8" class="c0"/>
<circle cx="1568" cy="1368" r="8" class="c0"/>
<circle cx="1668" cy="1062" r="8" class="c0"/>
<circle cx="1692" cy="914" r="8" class="c0"/>
<circle cx="1072" cy="1256" r="8" class="c0"/>
<circle cx="302" cy="1352" r="8" class="c0"/>
<circle cx="878" cy="1224" r="8" class="c0"/>
<circle cx="632" cy="1012" r="8" class="c0"/>
<circle cx="1678" cy="1052" r="8" class="c0"/>
<circle cx="1580" cy="1138" r="8" class="c0"/>
<circle cx="1160" cy="980" r="8" class="c0"/>
<circle cx="1666" cy="1320" r="8" class="c0"/>
<circle cx="310" cy="1296" r="8" class="c0"/>
<circle cx="1476" cy="1064" r="8" class="c0"/>
<circle cx="1566" cy="1426" r="8" class="c0"/>
<circle cx="730" cy="1274" r="8" class="c0"/>
<circle cx="310" cy="1156" r="8" class="c0"/>
<circle cx="1564" cy="1114" r="8" class="c0"/>
<circle cx="1134" cy="1258" r="8" class="c0"/>
<circle cx="1480" cy="1156" r="8" class="c0"/>
<circle cx="1680" cy="926" r="8" class="c0"/>
<circle cx="1656" cy="816" r="8" class="c0"/>
<circle cx="376" cy="1142" r="8" class="c0"/>
<circle cx="1584" cy="1190" r="8" class="c0"/>
<circle cx="1292" cy="1004" r="8" class="c0"/>
<circle cx="464" cy="1220" r="8" class="c0"/>
<circle cx="612" cy="1004" r="8" class="c0"/>
<circle cx="888" cy="1162" r="8" class="c0"/>
<circle cx="1614" cy="1180" r="8" class="c0"/>
<circle cx="968" cy="1224" r="8" class="c0"/>
<circle cx="1584" cy="1280" r="8" class="c0"/>
<circle cx="1568" cy="1406" r="8" class="c0"/>
<circle cx="196" cy="988" r="8" class="c0"/>
<circle cx="1442" cy="1082" r="8" class="c0"/>
<circle cx="296" cy="1080" r="8" class="c0"/>
<circle cx="290" cy="1034" r="8" class="c0"/>
<circle cx="326" cy="1130" r="8" class="c0"/>
<circle cx="442" cy="1078" r="8" class="c0"/>
<circle cx="1656" cy="1074" r="8" class="c0"/>
<circle cx="1526" cy="1428" r="8" class="c0"/>
<circle cx="1230" cy="992" r="8" class="c0"/>
<circle cx="1116" cy="1250" r="8" class="c0"/>
<circle cx="1402" cy="1038" r="8" class="c0"/>
<circle cx="1656" cy="1370" r="8" class="c0"/>
<circle cx="1678" cy="1308" r="8" class="c0"/>
<circle cx="1206" cy="984" r="8" class="c0"/>
<circle cx="344" cy="1200" r="8" class="c0"/>
<circle cx="1668" cy="1282" r="8" class="c0"/>
<circle cx="1578" cy="1388" r="8" class="c0"/>
<circle cx="1572" cy="1218" r="8" class="c0"/>
<circle cx="1198" cy="1258" r="8" class="c0"/>
<circle cx="456" cy="1172" r="8" class="c0"/>
<circle cx="1096" cy="1254" r="8" class="c0"/>
<circle cx="272" cy="1040" r="8" class="c0"/>
<circle cx="290" cy="1294" r="8" class="c0"/>
<circle cx="1590" cy="1212" r="8" class="c0"/>
<circle cx="1680" cy="1346" r="8" class="c0"/>
<circle cx="348" cy="1218" r="8" class="c0"/>
<circle cx="1162" cy="1286" r="6" class="c0"/>
<circle cx="498" cy="1162" r="6" class="c0"/>
<circle cx="1008" cy="1232" r="6" class="c0"/>
<circle cx="1530" cy="1176" r="6" class="c0"/>
<circle cx="1582" cy="1230" r="6" class="c0"/>
<circle cx="226" cy="1076" r="6" class="c0"/>
<circle cx="822" cy="678" r="6" class="c0"/>
<circle cx="1596" cy="826" r="6" class="c0"/>
<circle cx="1300" cy="700" r="6" class="c0"/>
<circle cx="1606" cy="1368" r="6" class="c0"/>
<circle cx="1602" cy="1290" r="6" class="c0"/>
<circle cx="1482" cy="1090" r="6" class="c0"/>
<circle cx="1132" cy="1202" r="6" class="c0"/>
<circle cx="312" cy="1432" r="6" class="c0"/>
<circle cx="1446" cy="1202" r="6" class="c0"/>
<circle cx="524" cy="1050" r="6" class="c0"/>
<circle cx="1312" cy="1028" r="6" class="c0"/>
<circle cx="968" cy="1152" r="6" class="c0"/>
<circle cx="1064" cy="718" r="6" class="c0"/>
<circle cx="1120" cy="1210" r="6" class="c0"/>
<circle cx="1714" cy="1024" r="6" class="c0"/>
<circle cx="1608" cy="1306" r="6" class="c0"/>
<circle cx="1444" cy="746" r="6" class="c0"/>
<circle cx="1604" cy="1164" r="6" class="c0"/>
<circle cx="320" cy="1264" r="6" class="c0"/>
<circle cx="452" cy="1154" r="6" class="c0"/>
<circle cx="1632" cy="842" r="6" class="c0"/>
<circle cx="250" cy="1308" r="6" class="c0"/>
<circle cx="268" cy="1106" r="6" class="c0"/>
<circle cx="770" cy="984" r="6" class="c0"/>
<circle cx="280" cy="836" r="6" class="c0"/>
<circle cx="1164" cy="1268" r="6" class="c0"/>
<circle cx="494" cy="1196" r="6" class="c0"/>
<circle cx="266" cy="1348" r="6" class="c0"/>
<circle cx="1534" cy="1130" r="6" class="c0"/>
<circle cx="320" cy="1358" r="6" class="c0"/>
<circle cx="1596" cy="1148" r="6" class="c0"/>
<circle cx="310" cy="1062" r="6" class="c0"/>
<circle cx="1544" cy="1118" r="6" class="c0"/>
<circle cx="1516" cy="1168" r="6" class="c0"/>
<circle cx="244" cy="850" r="6" class="c0"/>
<circle cx="1056" cy="1204" r="6" class="c0"/>
<circle cx="412" cy="1116" r="6" class="c0"/>
<circle cx="264" cy="1206" r="6" class="c0"/>
<circle cx="298" cy="882" r="6" class="c0"/>
<circle cx="1172" cy="1296" r="6" class="c0"/>
<circle cx="1704" cy="950" r="6" class="c0"/>
<circle cx="178" cy="944" r="6" class="c0"/>
<circle cx="1586" cy="1420" r="6" class="c0"/>
<circle cx="1616" cy="1376" r="6" class="c0"/>
<circle cx="888" cy="968" r="6" class="c0"/>
<circle cx="1642" cy="1062" r="6" class="c0"/>
<circle cx="932" cy="1158" r="6" class="c0"/>
<circle cx="850" cy="678" r="6" class="c0"/>
<circle cx="752" cy="1210" r="6" class="c0"/>
<circle cx="1662" cy="1250" r="6" class="c0"/>
<circle cx="1508" cy="1204" r="6" class="c0"/>
<circle cx="848" cy="722" r="6" class="c0"/>
<circle cx="1490" cy="1076" r="6" class="c0"/>
<circle cx="1166" cy="1224" r="6" class="c0"/>
<circle cx="968" cy="1178" r="6" class="c0"/>
<circle cx="1628" cy="1198" r="6" class="c0"/>
<circle cx="812" cy="692" r="6" class="c0"/>
<circle cx="262" cy="1328" r="6" class="c0"/>
<circle cx="1656" cy="1338" r="6" class="c0"/>
<circle cx="470" cy="1072" r="6" class="c0"/>
<circle cx="304" cy="1046" r="6" class="c0"/>
<circle cx="1702" cy="1080" r="6" class="c0"/>
<circle cx="1550" cy="1414" r="6" class="c0"/>
<circle cx="242" cy="1030" r="6" class="c0"/>
<circle cx="1562" cy="1196" r="6" class="c0"/>
<circle cx="212" cy="928" r="6" class="c0"/>
<circle cx="1648" cy="1230" r="6" class="c0"/>
<circle cx="414" cy="750" r="6" class="c0"/>
<circle cx="188" cy="934" r="6" class="c0"/>
<circle cx="260" cy="1408" r="6" class="c0"/>
<circle cx="1718" cy="896" r="6" class="c0"/>
<circle cx="1454" cy="1064" r="6" class="c0"/>
<circle cx="1562" cy="1170" r="6" class="c0"/>
<circle cx="1664" cy="1214" r="6" class="c0"/>
<circle cx="830" cy="1188" r="6" class="c0"/>
<circle cx="294" cy="834" r="6" class="c0"/>
<circle cx="1634" cy="866" r="6" class="c0"/>
<circle cx="1598" cy="846" r="6" class="c0"/>
<circle cx="924" cy="1236" r="6" class="c0"/>
<circle cx="282" cy="1198" r="6" class="c0"/>
<circle cx="1158" cy="1202" r="6" class="c0"/>
<circle cx="876" cy="1272" r="6" class="c0"/>
<circle cx="228" cy="990" r="6" class="c0"/>
<circle cx="508" cy="1044" r="6" class="c0"/>
<circle cx="452" cy="1090" r="6" class="c0"/>
<circle cx="1570" cy="1178" r="6" class="c0"/>
<circle cx="1628" cy="802" r="6" class="c0"/>
<circle cx="1026" cy="1270" r="6" class="c0"/>
<circle cx="1082" cy="680" r="6" class="c0"/>
<circle cx="566" cy="1022" r="6" class="c0"/>
<circle cx="946" cy="1258" r="6" class="c0"/>
<circle cx="246" cy="944" r="6" class="c0"/>
<circle cx="1598" cy="1432" r="6" class="c0"/>
<circle cx="824" cy="1200" r="6" class="c0"/>
<circle cx="1726" cy="1054" r="6" class="c0"/>
<circle cx="1396" cy="1054" r="6" class="c0"/>
<circle cx="1690" cy="1072" r="6" class="c0"/>
<circle cx="292" cy="1096" r="6" class="c0"/>
<circle cx="1470" cy="724" r="6" class="c0"/>
<circle cx="852" cy="1256" r="6" class="c0"/>
<circle cx="1694" cy="962" r="6" class="c0"/>
<circle cx="808" cy="1210" r="6" class="c0"/>
<circle cx="1628" cy="1338" r="6" class="c0"/>
<circle cx="198" cy="920" r="6" class="c0"/>
<circle cx="822" cy="1240" r="6" class="c0"/>
<circle cx="1590" cy="1374" r="6" class="c0"/>
<circle cx="1604" cy="1414" r="6" class="c0"/>
<circle cx="318" cy="1314" r="6" class="c0"/>
<circle cx="996" cy="1246" r="6" class="c0"/>
<circle cx="1554" cy="1180" r="6" class="c0"/>
<circle cx="1716" cy="1074" r="6" class="c0"/>
<circle cx="1660" cy="1298" r="6" class="c0"/>
<circle cx="1100" cy="968" r="6" class="c0"/>
<circle cx="1002" cy="1220" r="6" class="c0"/>
<circle cx="1506" cy="1160" r="6" class="c0"/>
<circle cx="1534" cy="1412" r="6" class="c0"/>
<circle cx="1036" cy="688" r="6" class="c0"/>
<circle cx="682" cy="1000" r="6" class="c0"/>
<circle cx="1104" cy="1208" r="6" class="c0"/>
<circle cx="1642" cy="1332" r="6" class="c0"/>
<circle cx="1596" cy="1264" r="6" class="c0"/>
<circle cx="240" cy="1356" r="6" class="c0"/>
<circle cx="1080" cy="1242" r="6" class="c0"/>
<circle cx="276" cy="1318" r="6" class="c0"/>
<circle cx="1062" cy="1178" r="6" class="c0"/>
<circle cx="1542" cy="1432" r="6" class="c0"/>
<circle cx="322" cy="1168" r="6" class="c0"/>
<circle cx="448" cy="1106" r="6" class="c0"/>
<circle cx="1344" cy="1022" r="6" class="c0"/>
<circle cx="396" cy="1114" r="6" class="c0"/>
<circle cx="916" cy="966" r="6" class="c0"/>
<circle cx="1468" cy="782" r="6" class="c0"/>
<circle cx="420" cy="1142" r="6" class="c0"/>
<circle cx="268" cy="1188" r="6" class="c0"/>
<circle cx="402" cy="778" r="6" class="c0"/>
<circle cx="372" cy="1160" r="6" class="c0"/>
<circle cx="1248" cy="704" r="6" class="c0"/>
<circle cx="874" cy="972" r="6" class="c0"/>
<circle cx="1188" cy="1296" r="6" class="c0"/>
<circle cx="1050" cy="1168" r="6" class="c0"/>
<circle cx="1358" cy="1028" r="6" class="c0"/>
<circle cx="280" cy="1236" r="6" class="c0"/>
<circle cx="1700" cy="1038" r="6" class="c0"/>
<circle cx="1618" cy="1240" r="6" class="c0"/>
<circle cx="340" cy="1432" r="6" class="c0"/>
<circle cx="1620" cy="1390" r="6" class="c0"/>
<circle cx="244" cy="1068" r="6" class="c0"/>
<circle cx="1732" cy="926" r="6" class="c0"/>
<circle cx="1454" cy="1194" r="6" class="c0"/>
<circle cx="644" cy="740" r="6" class="c0"/>
<circle cx="1564" cy="1144" r="6" class="c0"/>
<circle cx="858" cy="714" r="6" class="c0"/>
<circle cx="326" cy="1154" r="6" class="c0"/>
<circle cx="326" cy="1394" r="6" class="c0"/>
<circle cx="1258" cy="1008" r="6" class="c0"/>
<circle cx="430" cy="778" r="6" class="c0"/>
<circle cx="254" cy="1254" r="6" class="c0"/>
<circle cx="1040" cy="972" r="6" class="c0"/>
<circle cx="976" cy="1186" r="6" class="c0"/>
<circle cx="1758" cy="934" r="6" class="c0"/>
<circle cx="1544" cy="1098" r="6" class="c0"/>
<circle cx="1482" cy="1218" r="6" class="c0"/>
<circle cx="304" cy="1370" r="6" class="c0"/>
<circle cx="932" cy="1224" r="6" class="c0"/>
<circle cx="812" cy="714" r="6" class="c0"/>
<circle cx="1656" cy="1262" r="6" class="c0"/>
<circle cx="1618" cy="1162" r="6" class="c0"/>
<circle cx="292" cy="1246" r="6" class="c0"/>
<circle cx="1594" cy="1304" r="6" class="c0"/>
<circle cx="1056" cy="1260" r="6" class="c0"/>
<circle cx="276" cy="1376" r="6" class="c0"/>
</svg>
