<?xml version="1.0" encoding="utf-8"?>
<svg xmlns="http://www.w3.org/2000/svg"
     xmlns:xlink="http://www.w3.org/1999/xlink" width="1920" height="1440" >

            <defs>
            <style type="text/css"><![CDATA[
circle {stroke: none;}
.c0 {fill: #FFFFFF;}
]]></style>
            </defs>
<rect x="0" y="0" width="1920" height="1440" fill="black"/>
<circle cx="1086" cy="1212" r="14" class="c0"/>
<circle cx="956" cy="1170" r="12" class="c0"/>
<circle cx="706" cy="1312" r="12" class="c0"/>
<circle cx="1110" cy="1234" r="12" class="c0"/>
<circle cx="850" cy="1174" r="12" class="c0"/>
<circle cx="978" cy="1338" r="12" class="c0"/>
<circle cx="1156" cy="1258" r="12" class="c0"/>
<circle cx="1208" cy="1222" r="12" class="c0"/>
<circle cx="154" cy="1356" r="12" class="c0"/>
<circle cx="802" cy="1252" r="12" class="c0"/>
<circle cx="1074" cy="1264" r="12" class="c0"/>
<circle cx="852" cy="1366" r="12" class="c0"/>
<circle cx="990" cy="1378" r="12" class="c0"/>
<circle cx="746" cy="1284" r="12" class="c0"/>
<circle cx="1136" cy="1300" r="12" class="c0"/>
<circle cx="1122" cy="1184" r="12" class="c0"/>
<circle cx="1074" cy="1374" r="12" class="c0"/>
<circle cx="994" cy="1310" r="12" class="c0"/>
<circle cx="1118" cy="1316" r="12" class="c0"/>
<circle cx="186" cy="1350" r="12" class="c0"/>
<circle cx="1196" cy="1336" r="12" class="c0"/>
<circle cx="1048" cy="1256" r="12" class="c0"/>
<circle cx="1028" cy="1352" r="12" class="c0"/>
<circle cx="732" cy="1236" r="12" class="c0"/>
<circle cx="836" cy="1332" r="12" class="c0"/>
<circle cx="772" cy="1358" r="12" class="c0"/>
<circle cx="910" cy="1206" r="12" class="c0"/>
<circle cx="1678" cy="1050" r="12" class="c0"/>
<circle cx="682" cy="1276" r="12" class="c0"/>
<circle cx="148" cy="1184" r="10" class="c0"/>
<circle cx="224" cy="1080" r="10" class="c0"/>
<circle cx="122" cy="1182" r="10" class="c0"/>
<circle cx="196" cy="1326" r="10" class="c0"/>
<circle cx="1718" cy="1070" r="10" class="c0"/>
<circle cx="1164" cy="1290" r="10" class="c0"/>
<circle cx="1732" cy="1352" r="10" class="c0"/>
<circle cx="1210" cy="1274" r="10" class="c0"/>
<circle cx="1060" cy="1214" r="10" class="c0"/>
<circle cx="1076" cy="1300" r="10" class="c0"/>
<circle cx="240" cy="1036" r="10" class="c0"/>
<circle cx="1154" cy="1200" r="10" class="c0"/>
<circle cx="934" cy="1144" r="10" class="c0"/>
<circle cx="1030" cy="1380" r="10" class="c0"/>
<circle cx="128" cy="1212" r="10" class="c0"/>
<circle cx="748" cy="1340" r="10" class="c0"/>
<circle cx="820" cy="1290" r="10" class="c0"/>
<circle cx="896" cy="1308" r="10" class="c0"/>
<circle cx="1014" cy="1328" r="10" class="c0"/>
<circle cx="782" cy="1310" r="10" class="c0"/>
<circle cx="1778" cy="1388" r="10" class="c0"/>
<circle cx="592" cy="922" r="10" class="c0"/>
<circle cx="1054" cy="882" r="10" class="c0"/>
<circle cx="1012" cy="1160" r="10" class="c0"/>
<circle cx="1080" cy="1164" r="10" class="c0"/>
<circle cx="178" cy="1312" r="10" class="c0"/>
<circle cx="776" cy="1198" r="10" class="c0"/>
<circle cx="1178" cy="1242" r="10" class="c0"/>
<circle cx="910" cy="1388" r="10" class="c0"/>
<circle cx="1026" cy="1206" r="10" class="c0"/>
<circle cx="710" cy="1218" r="10" class="c0"/>
<circle cx="410" cy="972" r="10" class="c0"/>
<circle cx="606" cy="908" r="10" class="c0"/>
<circle cx="790" cy="1222" r="10" class="c0"/>
<circle cx="848" cy="1208" r="10" class="c0"/>
<circle cx="980" cy="1398" r="10" class="c0"/>
<circle cx="1052" cy="1320" r="10" class="c0"/>
<circle cx="868" cy="1330" r="10" class="c0"/>
<circle cx="1170" cy="1346" r="10" class="c0"/>
<circle cx="1070" cy="1340" r="10" class="c0"/>
<circle cx="1000" cy="1172" r="10" class="c0"/>
<circle cx="1134" cy="1230" r="10" class="c0"/>
<circle cx="858" cy="1244" r="10" class="c0"/>
<circle cx="842" cy="1276" r="10" class="c0"/>
<circle cx="1054" cy="1292" r="10" class="c0"/>
<circle cx="148" cy="1226" r="10" class="c0"/>
<circle cx="928" cy="1314" r="10" class="c0"/>
<circle cx="950" cy="1198" r="10" class="c0"/>
<circle cx="812" cy="1212" r="10" class="c0"/>
<circle cx="996" cy="1350" r="10" class="c0"/>
<circle cx="196" cy="1374" r="10" class="c0"/>
<circle cx="820" cy="1266" r="10" class="c0"/>
<circle cx="818" cy="1166" r="10" class="c0"/>
<circle cx="1168" cy="1222" r="10" class="c0"/>
<circle cx="768" cy="1330" r="10" class="c0"/>
<circle cx="952" cy="1334" r="10" class="c0"/>
<circle cx="1774" cy="1168" r="10" class="c0"/>
<circle cx="1146" cy="1322" r="10" class="c0"/>
<circle cx="726" cy="1204" r="10" class="c0"/>
<circle cx="924" cy="1358" r="10" class="c0"/>
<circle cx="914" cy="1326" r="10" class="c0"/>
<circle cx="1794" cy="1194" r="10" class="c0"/>
<circle cx="838" cy="1304" r="10" class="c0"/>
<circle cx="870" cy="1264" r="10" class="c0"/>
<circle cx="1136" cy="1342" r="10" class="c0"/>
<circle cx="1512" cy="936" r="10" class="c0"/>
<circle cx="1010" cy="1400" r="10" class="c0"/>
<circle cx="1040" cy="1166" r="10" class="c0"/>
<circle cx="1700" cy="1042" r="10" class="c0"/>
<circle cx="156" cy="1330" r="10" class="c0"/>
<circle cx="946" cy="1378" r="10" class="c0"/>
<circle cx="1292" cy="890" r="10" class="c0"/>
<circle cx="814" cy="1190" r="10" class="c0"/>
<circle cx="868" cy="1218" r="10" class="c0"/>
<circle cx="1810" cy="1182" r="10" class="c0"/>
<circle cx="170" cy="1376" r="10" class="c0"/>
<circle cx="1750" cy="1376" r="10" class="c0"/>
<circle cx="1024" cy="1284" r="10" class="c0"/>
<circle cx="1540" cy="946" r="10" class="c0"/>
<circle cx="790" cy="1334" r="10" class="c0"/>
<circle cx="730" cy="1310" r="10" class="c0"/>
<circle cx="1772" cy="1362" r="10" class="c0"/>
<circle cx="1076" cy="856" r="10" class="c0"/>
<circle cx="718" cy="1262" r="10" class="c0"/>
<circle cx="908" cy="1150" r="10" class="c0"/>
<circle cx="236" cy="1058" r="10" class="c0"/>
<circle cx="888" cy="1356" r="8" class="c0"/>
<circle cx="888" cy="1188" r="8" class="c0"/>
<circle cx="1056" cy="1360" r="8" class="c0"/>
<circle cx="988" cy="1186" r="8" class="c0"/>
<circle cx="684" cy="1298" r="8" class="c0"/>
<circle cx="1110" cy="1206" r="8" class="c0"/>
<circle cx="1038" cy="1226" r="8" class="c0"/>
<circle cx="874" cy="1290" r="8" class="c0"/>
<circle cx="1212" cy="1324" r="8" class="c0"/>
<circle cx="976" cy="1200" r="8" class="c0"/>
<circle cx="1694" cy="1080" r="8" class="c0"/>
<circle cx="1092" cy="1310" r="8" class="c0"/>
<circle cx="206" cy="1054" r="8" class="c0"/>
<circle cx="1056" cy="1154" r="8" class="c0"/>
<circle cx="770" cy="1248" r="8" class="c0"/>
<circle cx="694" cy="1260" r="8" class="c0"/>
<circle cx="1724" cy="1046" r="8" class="c0"/>
<circle cx="1056" cy="1392" r="8" class="c0"/>
<circle cx="1130" cy="1164" r="8" class="c0"/>
<circle cx="814" cy="1334" r="8" class="c0"/>
<circle cx="1114" cy="1362" r="8" class="c0"/>
<circle cx="928" cy="1194" r="8" class="c0"/>
<circle cx="1784" cy="1212" r="8" class="c0"/>
<circle cx="998" cy="1202" r="8" class="c0"/>
<circle cx="808" cy="878" r="8" class="c0"/>
<circle cx="808" cy="1380" r="8" class="c0"/>
<circle cx="846" cy="878" r="8" class="c0"/>
<circle cx="1788" cy="1338" r="8" class="c0"/>
<circle cx="1064" cy="1174" r="8" class="c0"/>
<circle cx="676" cy="1242" r="8" class="c0"/>
<circle cx="838" cy="1156" r="8" class="c0"/>
<circle cx="1068" cy="1242" r="8" class="c0"/>
<circle cx="930" cy="1402" r="8" class="c0"/>
<circle cx="1120" cy="1280" r="8" class="c0"/>
<circle cx="1216" cy="1296" r="8" class="c0"/>
<circle cx="788" cy="1164" r="8" class="c0"/>
<circle cx="950" cy="1402" r="8" class="c0"/>
<circle cx="766" cy="1182" r="8" class="c0"/>
<circle cx="796" cy="1288" r="8" class="c0"/>
<circle cx="796" cy="1202" r="8" class="c0"/>
<circle cx="1200" cy="1246" r="8" class="c0"/>
<circle cx="122" cy="1232" r="8" class="c0"/>
<circle cx="956" cy="1304" r="8" class="c0"/>
<circle cx="1190" cy="1210" r="8" class="c0"/>
<circle cx="1138" cy="1272" r="8" class="c0"/>
<circle cx="1756" cy="1184" r="8" class="c0"/>
<circle cx="966" cy="1210" r="8" class="c0"/>
<circle cx="386" cy="952" r="8" class="c0"/>
<circle cx="1220" cy="1248" r="8" class="c0"/>
<circle cx="1016" cy="1304" r="8" class="c0"/>
<circle cx="394" cy="990" r="8" class="c0"/>
<circle cx="1738" cy="1326" r="8" class="c0"/>
<circle cx="1184" cy="1192" r="8" class="c0"/>
<circle cx="830" cy="1356" r="8" class="c0"/>
<circle cx="1236" cy="1282" r="8" class="c0"/>
<circle cx="834" cy="1248" r="8" class="c0"/>
<circle cx="1316" cy="908" r="8" class="c0"/>
<circle cx="1110" cy="1338" r="8" class="c0"/>
<circle cx="370" cy="960" r="8" class="c0"/>
<circle cx="1280" cy="906" r="8" class="c0"/>
<circle cx="1086" cy="1392" r="8" class="c0"/>
<circle cx="698" cy="1242" r="8" class="c0"/>
<circle cx="250" cy="1074" r="8" class="c0"/>
<circle cx="962" cy="1138" r="8" class="c0"/>
<circle cx="1126" cy="1252" r="8" class="c0"/>
<circle cx="706" cy="1286" r="8" class="c0"/>
<circle cx="870" cy="1184" r="8" class="c0"/>
<circle cx="984" cy="1140" r="8" class="c0"/>
<circle cx="758" cy="1260" r="8" class="c0"/>
<circle cx="1092" cy="1178" r="8" class="c0"/>
<circle cx="1790" cy="1154" r="8" class="c0"/>
<circle cx="976" cy="1156" r="8" class="c0"/>
<circle cx="1090" cy="1288" r="8" class="c0"/>
<circle cx="874" cy="1152" r="8" class="c0"/>
<circle cx="1192" cy="1294" r="8" class="c0"/>
<circle cx="902" cy="1342" r="8" class="c0"/>
<circle cx="854" cy="1148" r="8" class="c0"/>
<circle cx="898" cy="1366" r="8" class="c0"/>
<circle cx="1770" cy="1320" r="8" class="c0"/>
<circle cx="178" cy="1194" r="8" class="c0"/>
<circle cx="1306" cy="868" r="8" class="c0"/>
<circle cx="1010" cy="1370" r="8" class="c0"/>
<circle cx="606" cy="884" r="8" class="c0"/>
<circle cx="1178" cy="1308" r="8" class="c0"/>
<circle cx="910" cy="1176" r="8" class="c0"/>
<circle cx="1098" cy="1352" r="8" class="c0"/>
<circle cx="1034" cy="1310" r="8" class="c0"/>
<circle cx="1102" cy="1156" r="8" class="c0"/>
<circle cx="700" cy="1338" r="8" class="c0"/>
<circle cx="1766" cy="1204" r="8" class="c0"/>
<circle cx="380" cy="972" r="8" class="c0"/>
<circle cx="1084" cy="876" r="8" class="c0"/>
<circle cx="970" cy="1364" r="8" class="c0"/>
<circle cx="812" cy="1314" r="8" class="c0"/>
<circle cx="908" cy="1296" r="8" class="c0"/>
<circle cx="1150" cy="1354" r="8" class="c0"/>
<circle cx="822" cy="890" r="8" class="c0"/>
<circle cx="882" cy="1392" r="8" class="c0"/>
<circle cx="1042" cy="1336" r="8" class="c0"/>
<circle cx="1524" cy="972" r="8" class="c0"/>
<circle cx="778" cy="1284" r="8" class="c0"/>
<circle cx="206" cy="1358" r="8" class="c0"/>
<circle cx="738" cy="1358" r="8" class="c0"/>
<circle cx="790" cy="1270" r="8" class="c0"/>
<circle cx="1792" cy="1364" r="8" class="c0"/>
<circle cx="1316" cy="886" r="8" class="c0"/>
<circle cx="1538" cy="924" r="8" class="c0"/>
<circle cx="872" cy="1308" r="8" class="c0"/>
<circle cx="582" cy="898" r="8" class="c0"/>
<circle cx="664" cy="1302" r="8" class="c0"/>
<circle cx="746" cy="1222" r="8" class="c0"/>
<circle cx="830" cy="1380" r="8" class="c0"/>
<circle cx="834" cy="1222" r="8" class="c0"/>
<circle cx="166" cy="1214" r="8" class="c0"/>
<circle cx="1748" cy="1336" r="8" class="c0"/>
<circle cx="170" cy="1178" r="8" class="c0"/>
<circle cx="836" cy="1188" r="8" class="c0"/>
<circle cx="970" cy="1318" r="8" class="c0"/>
<circle cx="1686" cy="1028" r="8" class="c0"/>
<circle cx="1234" cy="1302" r="8" class="c0"/>
<circle cx="1182" cy="1266" r="8" class="c0"/>
<circle cx="1052" cy="1186" r="8" class="c0"/>
<circle cx="216" cy="1044" r="8" class="c0"/>
<circle cx="1756" cy="1352" r="8" class="c0"/>
<circle cx="760" cy="1212" r="8" class="c0"/>
<circle cx="1750" cy="1310" r="8" class="c0"/>
<circle cx="798" cy="1180" r="8" class="c0"/>
<circle cx="854" cy="1388" r="8" class="c0"/>
<circle cx="1292" cy="918" r="8" class="c0"/>
<circle cx="1110" cy="1380" r="8" class="c0"/>
<circle cx="1002" cy="1220" r="8" class="c0"/>
<circle cx="1158" cy="1370" r="8" class="c0"/>
<circle cx="820" cy="1368" r="8" class="c0"/>
<circle cx="780" cy="1260" r="8" class="c0"/>
<circle cx="1108" cy="1296" r="8" class="c0"/>
<circle cx="1176" cy="1326" r="8" class="c0"/>
<circle cx="758" cy="1312" r="8" class="c0"/>
<circle cx="1096" cy="1266" r="8" class="c0"/>
<circle cx="1236" cy="1260" r="8" class="c0"/>
<circle cx="1014" cy="1190" r="8" class="c0"/>
<circle cx="1504" cy="966" r="8" class="c0"/>
<circle cx="836" cy="864" r="8" class="c0"/>
<circle cx="740" cy="1178" r="8" class="c0"/>
<circle cx="878" cy="1370" r="8" class="c0"/>
<circle cx="794" cy="1360" r="8" class="c0"/>
<circle cx="784" cy="1376" r="8" class="c0"/>
<circle cx="1810" cy="1204" r="8" class="c0"/>
<circle cx="1066" cy="838" r="8" class="c0"/>
<circle cx="954" cy="1354" r="8" class="c0"/>
<circle cx="1788" cy="1314" r="8" class="c0"/>
<circle cx="738" cy="1258" r="8" class="c0"/>
<circle cx="1078" cy="1322" r="8" class="c0"/>
<circle cx="820" cy="1232" r="8" class="c0"/>
<circle cx="1812" cy="1154" r="8" class="c0"/>
<circle cx="724" cy="1344" r="8" class="c0"/>
<circle cx="854" cy="1288" r="8" class="c0"/>
<circle cx="404" cy="940" r="8" class="c0"/>
<circle cx="112" cy="1198" r="8" class="c0"/>
<circle cx="666" cy="1260" r="8" class="c0"/>
<circle cx="1720" cy="1368" r="8" class="c0"/>
<circle cx="414" cy="950" r="8" class="c0"/>
<circle cx="718" cy="1296" r="8" class="c0"/>
<circle cx="932" cy="1216" r="8" class="c0"/>
<circle cx="1128" cy="1372" r="8" class="c0"/>
<circle cx="1768" cy="1298" r="8" class="c0"/>
<circle cx="1794" cy="1172" r="8" class="c0"/>
<circle cx="888" cy="1210" r="8" class="c0"/>
<circle cx="924" cy="1162" r="8" class="c0"/>
<circle cx="148" cy="1384" r="8" class="c0"/>
<circle cx="1074" cy="1186" r="8" class="c0"/>
<circle cx="1132" cy="1206" r="8" class="c0"/>
<circle cx="136" cy="1368" r="8" class="c0"/>
<circle cx="1712" cy="1030" r="8" class="c0"/>
<circle cx="804" cy="1346" r="8" class="c0"/>
<circle cx="890" cy="1160" r="8" class="c0"/>
<circle cx="744" cy="1196" r="8" class="c0"/>
<circle cx="1236" cy="1218" r="8" class="c0"/>
<circle cx="1094" cy="1248" r="8" class="c0"/>
<circle cx="1824" cy="1164" r="8" class="c0"/>
<circle cx="854" cy="1316" r="8" class="c0"/>
<circle cx="816" cy="862" r="8" class="c0"/>
<circle cx="888" cy="1332" r="8" class="c0"/>
<circle cx="1806" cy="1136" r="8" class="c0"/>
<circle cx="1284" cy="870" r="8" class="c0"/>
<circle cx="962" cy="1390" r="8" class="c0"/>
<circle cx="752" cy="1372" r="8" class="c0"/>
<circle cx="156" cy="1202" r="8" class="c0"/>
<circle cx="1164" cy="1182" r="8" class="c0"/>
<circle cx="1192" cy="1360" r="8" class="c0"/>
<circle cx="1232" cy="1320" r="8" class="c0"/>
<circle cx="1756" cy="1154" r="8" class="c0"/>
<circle cx="1114" cy="1262" r="8" class="c0"/>
<circle cx="902" cy="1406" r="8" class="c0"/>
<circle cx="686" cy="1226" r="8" class="c0"/>
<circle cx="1034" cy="1146" r="8" class="c0"/>
<circle cx="1030" cy="1182" r="8" class="c0"/>
<circle cx="210" cy="1338" r="8" class="c0"/>
<circle cx="1056" cy="854" r="8" class="c0"/>
<circle cx="978" cy="1174" r="8" class="c0"/>
<circle cx="1770" cy="1340" r="8" class="c0"/>
<circle cx="1046" cy="1370" r="8" class="c0"/>
<circle cx="1732" cy="1386" r="8" class="c0"/>
<circle cx="768" cy="1274" r="8" class="c0"/>
<circle cx="694" cy="1208" r="8" class="c0"/>
<circle cx="1120" cy="1216" r="8" class="c0"/>
<circle cx="1782" cy="1136" r="8" class="c0"/>
<circle cx="1198" cy="1314" r="8" class="c0"/>
<circle cx="166" cy="1396" r="8" class="c0"/>
<circle cx="768" cy="1296" r="8" class="c0"/>
<circle cx="1698" cy="1062" r="8" class="c0"/>
<circle cx="204" cy="1074" r="8" class="c0"/>
<circle cx="1204" cy="1196" r="8" class="c0"/>
<circle cx="1826" cy="1196" r="6" class="c0"/>
<circle cx="1146" cy="1172" r="6" class="c0"/>
<circle cx="260" cy="1056" r="6" class="c0"/>
<circle cx="176" cy="1334" r="6" class="c0"/>
<circle cx="1042" cy="1276" r="6" class="c0"/>
<circle cx="848" cy="1346" r="6" class="c0"/>
<circle cx="894" cy="1288" r="6" class="c0"/>
<circle cx="686" cy="1318" r="6" class="c0"/>
<circle cx="884" cy="1140" r="6" class="c0"/>
<circle cx="730" cy="1274" r="6" class="c0"/>
<circle cx="238" cy="1094" r="6" class="c0"/>
<circle cx="616" cy="922" r="6" class="c0"/>
<circle cx="1522" cy="918" r="6" class="c0"/>
<circle cx="656" cy="1272" r="6" class="c0"/>
<circle cx="848" cy="1258" r="6" class="c0"/>
<circle cx="1516" cy="956" r="6" class="c0"/>
<circle cx="184" cy="1390" r="6" class="c0"/>
<circle cx="138" cy="1168" r="6" class="c0"/>
<circle cx="1672" cy="1074" r="6" class="c0"/>
<circle cx="1720" cy="1318" r="6" class="c0"/>
<circle cx="764" cy="1230" r="6" class="c0"/>
<circle cx="1094" cy="1328" r="6" class="c0"/>
<circle cx="1162" cy="1314" r="6" class="c0"/>
<circle cx="1758" cy="1392" r="6" class="c0"/>
<circle cx="108" cy="1218" r="6" class="c0"/>
<circle cx="140" cy="1200" r="6" class="c0"/>
<circle cx="1544" cy="964" r="6" class="c0"/>
<circle cx="832" cy="900" r="6" class="c0"/>
<circle cx="1718" cy="1342" r="6" class="c0"/>
<circle cx="1500" cy="948" r="6" class="c0"/>
<circle cx="872" cy="1168" r="6" class="c0"/>
<circle cx="1100" cy="1196" r="6" class="c0"/>
<circle cx="996" cy="1330" r="6" class="c0"/>
<circle cx="936" cy="1180" r="6" class="c0"/>
<circle cx="998" cy="1150" r="6" class="c0"/>
<circle cx="966" cy="1188" r="6" class="c0"/>
<circle cx="864" cy="1200" r="6" class="c0"/>
<circle cx="590" cy="882" r="6" class="c0"/>
<circle cx="900" cy="1224" r="6" class="c0"/>
<circle cx="136" cy="1344" r="6" class="c0"/>
<circle cx="1088" cy="1362" r="6" class="c0"/>
<circle cx="872" cy="1352" r="6" class="c0"/>
<circle cx="1150" cy="1238" r="6" class="c0"/>
<circle cx="722" cy="1328" r="6" class="c0"/>
<circle cx="1232" cy="1234" r="6" class="c0"/>
<circle cx="1014" cy="1140" r="6" class="c0"/>
<circle cx="878" cy="1198" r="6" class="c0"/>
<circle cx="136" cy="1248" r="6" class="c0"/>
<circle cx="1252" cy="1284" r="6" class="c0"/>
<circle cx="206" cy="1034" r="6" class="c0"/>
<circle cx="828" cy="850" r="6" class="c0"/>
<circle cx="1036" cy="1400" r="6" class="c0"/>
<circle cx="938" cy="1344" r="6" class="c0"/>
<circle cx="1066" cy="896" r="6" class="c0"/>
<circle cx="738" cy="1326" r="6" class="c0"/>
<circle cx="878" cy="1236" r="6" class="c0"/>
<circle cx="1042" cy="1198" r="6" class="c0"/>
<circle cx="146" cy="1312" r="6" class="c0"/>
<circle cx="1798" cy="1348" r="6" class="c0"/>
<circle cx="1052" cy="1236" r="6" class="c0"/>
<circle cx="1800" cy="1218" r="6" class="c0"/>
<circle cx="1088" cy="1342" r="6" class="c0"/>
<circle cx="1072" cy="1226" r="6" class="c0"/>
<circle cx="830" cy="1204" r="6" class="c0"/>
<circle cx="756" cy="1172" r="6" class="c0"/>
<circle cx="806" cy="1276" r="6" class="c0"/>
<circle cx="1096" cy="1372" r="6" class="c0"/>
<circle cx="1156" cy="1336" r="6" class="c0"/>
<circle cx="1144" cy="1186" r="6" class="c0"/>
<circle cx="620" cy="896" r="6" class="c0"/>
<circle cx="852" cy="1226" r="6" class="c0"/>
<circle cx="382" cy="932" r="6" class="c0"/>
<circle cx="1702" cy="1020" r="6" class="c0"/>
<circle cx="754" cy="1238" r="6" class="c0"/>
<circle cx="1256" cy="1258" r="6" class="c0"/>
<circle cx="1114" cy="1166" r="6" class="c0"/>
<circle cx="866" cy="1398" r="6" class="c0"/>
<circle cx="1058" cy="1274" r="6" class="c0"/>
<circle cx="788" cy="1240" r="6" class="c0"/>
<circle cx="1294" cy="858" r="6" class="c0"/>
<circle cx="928" cy="1380" r="6" class="c0"/>
<circle cx="1254" cy="1298" r="6" class="c0"/>
<circle cx="1244" cy="1244" r="6" class="c0"/>
<circle cx="932" cy="1332" r="6" class="c0"/>
<circle cx="252" cy="1048" r="6" class="c0"/>
<circle cx="1074" cy="888" r="6" class="c0"/>
<circle cx="932" cy="1296" r="6" class="c0"/>
<circle cx="1174" cy="1202" r="6" class="c0"/>
<circle cx="946" cy="1316" r="6" class="c0"/>
<circle cx="804" cy="1156" r="6" class="c0"/>
<circle cx="1772" cy="1186" r="6" class="c0"/>
<circle cx="1020" cy="1230" r="6" class="c0"/>
<circle cx="988" cy="1212" r="6" class="c0"/>
<circle cx="1274" cy="884" r="6" class="c0"/>
<circle cx="1668" cy="1034" r="6" class="c0"/>
<circle cx="1148" cy="1220" r="6" class="c0"/>
<circle cx="376" cy="988" r="6" class="c0"/>
<circle cx="1772" cy="1148" r="6" class="c0"/>
<circle cx="952" cy="1148" r="6" class="c0"/>
<circle cx="978" cy="1296" r="6" class="c0"/>
<circle cx="1142" cy="1246" r="6" class="c0"/>
<circle cx="164" cy="1234" r="6" class="c0"/>
<circle cx="1036" cy="1242" r="6" class="c0"/>
<circle cx="840" cy="1400" r="6" class="c0"/>
<circle cx="1494" cy="930" r="6" class="c0"/>
<circle cx="1072" cy="1146" r="6" class="c0"/>
<circle cx="1066" cy="870" r="6" class="c0"/>
<circle cx="1046" cy="866" r="6" class="c0"/>
<circle cx="868" cy="1380" r="6" class="c0"/>
<circle cx="1084" cy="1234" r="6" class="c0"/>
<circle cx="1218" cy="1342" r="6" class="c0"/>
<circle cx="1190" cy="1230" r="6" class="c0"/>
<circle cx="710" cy="1194" r="6" class="c0"/>
<circle cx="222" cy="1028" r="6" class="c0"/>
<circle cx="1064" cy="1196" r="6" class="c0"/>
<circle cx="826" cy="874" r="6" class="c0"/>
<circle cx="1198" cy="1262" r="6" class="c0"/>
<circle cx="1182" cy="1284" r="6" class="c0"/>
<circle cx="166" cy="1154" r="6" class="c0"/>
<circle cx="844" cy="1234" r="6" class="c0"/>
<circle cx="374" cy="942" r="6" class="c0"/>
<circle cx="156" cy="1168" r="6" class="c0"/>
<circle cx="1192" cy="1276" r="6" class="c0"/>
<circle cx="576" cy="914" r="6" class="c0"/>
<circle cx="396" cy="962" r="6" class="c0"/>
<circle cx="1250" cy="1270" r="6" class="c0"/>
<circle cx="168" cy="1342" r="6" class="c0"/>
<circle cx="216" cy="1064" r="6" class="c0"/>
<circle cx="1080" cy="1354" r="6" class="c0"/>
<circle cx="714" cy="1244" r="6" class="c0"/>
<circle cx="802" cy="1304" r="6" class="c0"/>
<circle cx="846" cy="852" r="6" class="c0"/>
<circle cx="772" cy="1166" r="6" class="c0"/>
<circle cx="1148" cy="1282" r="6" class="c0"/>
<circle cx="1032" cy="1326" r="6" class="c0"/>
<circle cx="892" cy="1382" r="6" class="c0"/>
<circle cx="1176" cy="1366" r="6" class="c0"/>
<circle cx="1742" cy="1396" r="6" class="c0"/>
<circle cx="966" cy="1410" r="6" class="c0"/>
<circle cx="666" cy="1286" r="6" class="c0"/>
<circle cx="818" cy="1394" r="6" class="c0"/>
<circle cx="1144" cy="1378" r="6" class="c0"/>
<circle cx="214" cy="1322" r="6" class="c0"/>
<circle cx="1218" cy="1206" r="6" class="c0"/>
</svg>
