<?xml version="1.0" encoding="utf-8"?>
<svg xmlns="http://www.w3.org/2000/svg"
     xmlns:xlink="http://www.w3.org/1999/xlink" width="1920" height="1440" >

            <defs>
            <style type="text/css"><![CDATA[
circle {stroke: none;}
.c0 {fill: #FFFFFF;}
]]></style>
            </defs>
<rect x="0" y="0" width="1920" height="1440" fill="black"/>
<circle cx="644" cy="1322" r="14" class="c0"/>
<circle cx="1268" cy="1356" r="12" class="c0"/>
<circle cx="1268" cy="1210" r="12" class="c0"/>
<circle cx="1304" cy="1324" r="12" class="c0"/>
<circle cx="1234" cy="1300" r="12" class="c0"/>
<circle cx="706" cy="1424" r="12" class="c0"/>
<circle cx="950" cy="1286" r="12" class="c0"/>
<circle cx="1210" cy="1372" r="12" class="c0"/>
<circle cx="1346" cy="1320" r="12" class="c0"/>
<circle cx="1270" cy="1300" r="12" class="c0"/>
<circle cx="712" cy="1276" r="12" class="c0"/>
<circle cx="742" cy="1162" r="12" class="c0"/>
<circle cx="1038" cy="1156" r="12" class="c0"/>
<circle cx="988" cy="1288" r="12" class="c0"/>
<circle cx="694" cy="1250" r="12" class="c0"/>
<circle cx="1100" cy="1408" r="12" class="c0"/>
<circle cx="692" cy="1196" r="12" class="c0"/>
<circle cx="980" cy="1160" r="12" class="c0"/>
<circle cx="650" cy="1372" r="12" class="c0"/>
<circle cx="722" cy="1406" r="12" class="c0"/>
<circle cx="1294" cy="1264" r="12" class="c0"/>
<circle cx="1338" cy="1292" r="12" class="c0"/>
<circle cx="1138" cy="1210" r="12" class="c0"/>
<circle cx="934" cy="1302" r="12" class="c0"/>
<circle cx="1294" cy="1224" r="12" class="c0"/>
<circle cx="818" cy="1422" r="12" class="c0"/>
<circle cx="1236" cy="1344" r="10" class="c0"/>
<circle cx="1114" cy="1180" r="10" class="c0"/>
<circle cx="726" cy="1178" r="10" class="c0"/>
<circle cx="1186" cy="1184" r="10" class="c0"/>
<circle cx="902" cy="1180" r="10" class="c0"/>
<circle cx="1162" cy="1384" r="10" class="c0"/>
<circle cx="576" cy="1332" r="10" class="c0"/>
<circle cx="896" cy="1284" r="10" class="c0"/>
<circle cx="1058" cy="1186" r="10" class="c0"/>
<circle cx="616" cy="1280" r="10" class="c0"/>
<circle cx="1354" cy="1350" r="10" class="c0"/>
<circle cx="1324" cy="1398" r="10" class="c0"/>
<circle cx="1210" cy="1322" r="10" class="c0"/>
<circle cx="684" cy="1306" r="10" class="c0"/>
<circle cx="542" cy="1310" r="10" class="c0"/>
<circle cx="588" cy="1270" r="10" class="c0"/>
<circle cx="1250" cy="1222" r="10" class="c0"/>
<circle cx="1076" cy="1176" r="10" class="c0"/>
<circle cx="696" cy="1332" r="10" class="c0"/>
<circle cx="558" cy="1356" r="10" class="c0"/>
<circle cx="1232" cy="1242" r="10" class="c0"/>
<circle cx="1198" cy="1404" r="10" class="c0"/>
<circle cx="790" cy="1410" r="10" class="c0"/>
<circle cx="748" cy="1202" r="10" class="c0"/>
<circle cx="748" cy="1400" r="10" class="c0"/>
<circle cx="1162" cy="1220" r="10" class="c0"/>
<circle cx="1208" cy="1214" r="10" class="c0"/>
<circle cx="780" cy="1150" r="10" class="c0"/>
<circle cx="606" cy="1328" r="10" class="c0"/>
<circle cx="706" cy="1352" r="10" class="c0"/>
<circle cx="1114" cy="1204" r="10" class="c0"/>
<circle cx="1226" cy="1424" r="10" class="c0"/>
<circle cx="782" cy="1204" r="10" class="c0"/>
<circle cx="586" cy="1364" r="10" class="c0"/>
<circle cx="1024" cy="1418" r="10" class="c0"/>
<circle cx="1164" cy="1158" r="10" class="c0"/>
<circle cx="1002" cy="1170" r="10" class="c0"/>
<circle cx="878" cy="1424" r="10" class="c0"/>
<circle cx="932" cy="1178" r="10" class="c0"/>
<circle cx="606" cy="1222" r="10" class="c0"/>
<circle cx="1326" cy="1336" r="10" class="c0"/>
<circle cx="1226" cy="1268" r="10" class="c0"/>
<circle cx="668" cy="1420" r="10" class="c0"/>
<circle cx="970" cy="1300" r="10" class="c0"/>
<circle cx="802" cy="1172" r="10" class="c0"/>
<circle cx="1242" cy="1194" r="10" class="c0"/>
<circle cx="1056" cy="1410" r="10" class="c0"/>
<circle cx="1312" cy="1278" r="10" class="c0"/>
<circle cx="756" cy="1176" r="10" class="c0"/>
<circle cx="1120" cy="1150" r="10" class="c0"/>
<circle cx="1236" cy="1404" r="10" class="c0"/>
<circle cx="850" cy="1414" r="10" class="c0"/>
<circle cx="1122" cy="1398" r="10" class="c0"/>
<circle cx="1250" cy="1368" r="10" class="c0"/>
<circle cx="1308" cy="1358" r="10" class="c0"/>
<circle cx="874" cy="1176" r="10" class="c0"/>
<circle cx="644" cy="1256" r="10" class="c0"/>
<circle cx="1186" cy="1356" r="10" class="c0"/>
<circle cx="1256" cy="1416" r="10" class="c0"/>
<circle cx="1332" cy="1264" r="10" class="c0"/>
<circle cx="846" cy="1162" r="10" class="c0"/>
<circle cx="760" cy="1422" r="10" class="c0"/>
<circle cx="944" cy="1166" r="10" class="c0"/>
<circle cx="1288" cy="1378" r="10" class="c0"/>
<circle cx="858" cy="1146" r="10" class="c0"/>
<circle cx="672" cy="1262" r="10" class="c0"/>
<circle cx="666" cy="1230" r="10" class="c0"/>
<circle cx="626" cy="1386" r="10" class="c0"/>
<circle cx="684" cy="1280" r="10" class="c0"/>
<circle cx="748" cy="1226" r="10" class="c0"/>
<circle cx="628" cy="1340" r="10" class="c0"/>
<circle cx="672" cy="1330" r="10" class="c0"/>
<circle cx="916" cy="1136" r="10" class="c0"/>
<circle cx="608" cy="1408" r="10" class="c0"/>
<circle cx="964" cy="1142" r="10" class="c0"/>
<circle cx="704" cy="1172" r="10" class="c0"/>
<circle cx="962" cy="1266" r="10" class="c0"/>
<circle cx="706" cy="1228" r="10" class="c0"/>
<circle cx="656" cy="1408" r="10" class="c0"/>
<circle cx="890" cy="1160" r="10" class="c0"/>
<circle cx="662" cy="1202" r="10" class="c0"/>
<circle cx="1200" cy="1238" r="10" class="c0"/>
<circle cx="646" cy="1286" r="10" class="c0"/>
<circle cx="628" cy="1296" r="10" class="c0"/>
<circle cx="690" cy="1394" r="8" class="c0"/>
<circle cx="888" cy="1136" r="8" class="c0"/>
<circle cx="1276" cy="1426" r="8" class="c0"/>
<circle cx="1310" cy="1380" r="8" class="c0"/>
<circle cx="840" cy="1194" r="8" class="c0"/>
<circle cx="1194" cy="1266" r="8" class="c0"/>
<circle cx="1160" cy="1200" r="8" class="c0"/>
<circle cx="1160" cy="1424" r="8" class="c0"/>
<circle cx="544" cy="1332" r="8" class="c0"/>
<circle cx="1262" cy="1388" r="8" class="c0"/>
<circle cx="600" cy="1258" r="8" class="c0"/>
<circle cx="646" cy="1236" r="8" class="c0"/>
<circle cx="1258" cy="1326" r="8" class="c0"/>
<circle cx="1274" cy="1248" r="8" class="c0"/>
<circle cx="926" cy="1424" r="8" class="c0"/>
<circle cx="1212" cy="1350" r="8" class="c0"/>
<circle cx="812" cy="1152" r="8" class="c0"/>
<circle cx="638" cy="1204" r="8" class="c0"/>
<circle cx="1014" cy="1152" r="8" class="c0"/>
<circle cx="724" cy="1328" r="8" class="c0"/>
<circle cx="652" cy="1218" r="8" class="c0"/>
<circle cx="1254" cy="1256" r="8" class="c0"/>
<circle cx="582" cy="1312" r="8" class="c0"/>
<circle cx="754" cy="1368" r="8" class="c0"/>
<circle cx="642" cy="1424" r="8" class="c0"/>
<circle cx="576" cy="1294" r="8" class="c0"/>
<circle cx="1146" cy="1186" r="8" class="c0"/>
<circle cx="564" cy="1308" r="8" class="c0"/>
<circle cx="732" cy="1212" r="8" class="c0"/>
<circle cx="1324" cy="1246" r="8" class="c0"/>
<circle cx="1316" cy="1302" r="8" class="c0"/>
<circle cx="1022" cy="1182" r="8" class="c0"/>
<circle cx="760" cy="1386" r="8" class="c0"/>
<circle cx="1092" cy="1188" r="8" class="c0"/>
<circle cx="1100" cy="1154" r="8" class="c0"/>
<circle cx="1072" cy="1156" r="8" class="c0"/>
<circle cx="786" cy="1430" r="8" class="c0"/>
<circle cx="900" cy="1430" r="8" class="c0"/>
<circle cx="806" cy="1198" r="8" class="c0"/>
<circle cx="628" cy="1406" r="8" class="c0"/>
<circle cx="1288" cy="1348" r="8" class="c0"/>
<circle cx="618" cy="1244" r="8" class="c0"/>
<circle cx="1336" cy="1384" r="8" class="c0"/>
<circle cx="722" cy="1258" r="8" class="c0"/>
<circle cx="1280" cy="1280" r="8" class="c0"/>
<circle cx="1134" cy="1428" r="8" class="c0"/>
<circle cx="904" cy="1412" r="8" class="c0"/>
<circle cx="1364" cy="1330" r="8" class="c0"/>
<circle cx="992" cy="1422" r="8" class="c0"/>
<circle cx="574" cy="1378" r="8" class="c0"/>
<circle cx="1064" cy="1136" r="8" class="c0"/>
<circle cx="996" cy="1130" r="8" class="c0"/>
<circle cx="1212" cy="1288" r="8" class="c0"/>
<circle cx="610" cy="1372" r="8" class="c0"/>
<circle cx="736" cy="1358" r="8" class="c0"/>
<circle cx="838" cy="1402" r="8" class="c0"/>
<circle cx="674" cy="1182" r="8" class="c0"/>
<circle cx="780" cy="1174" r="8" class="c0"/>
<circle cx="1252" cy="1276" r="8" class="c0"/>
<circle cx="1282" cy="1406" r="8" class="c0"/>
<circle cx="1332" cy="1356" r="8" class="c0"/>
<circle cx="610" cy="1350" r="8" class="c0"/>
<circle cx="682" cy="1350" r="8" class="c0"/>
<circle cx="692" cy="1368" r="8" class="c0"/>
<circle cx="628" cy="1224" r="8" class="c0"/>
<circle cx="708" cy="1376" r="8" class="c0"/>
<circle cx="822" cy="1180" r="8" class="c0"/>
<circle cx="594" cy="1386" r="8" class="c0"/>
<circle cx="1294" cy="1304" r="8" class="c0"/>
<circle cx="964" cy="1412" r="8" class="c0"/>
<circle cx="556" cy="1282" r="8" class="c0"/>
<circle cx="1142" cy="1382" r="8" class="c0"/>
<circle cx="1088" cy="1430" r="8" class="c0"/>
<circle cx="780" cy="1384" r="8" class="c0"/>
<circle cx="1300" cy="1426" r="8" class="c0"/>
<circle cx="662" cy="1306" r="8" class="c0"/>
<circle cx="1226" cy="1184" r="8" class="c0"/>
<circle cx="714" cy="1206" r="8" class="c0"/>
<circle cx="730" cy="1378" r="8" class="c0"/>
<circle cx="618" cy="1314" r="8" class="c0"/>
<circle cx="918" cy="1268" r="8" class="c0"/>
<circle cx="956" cy="1430" r="8" class="c0"/>
<circle cx="1190" cy="1304" r="8" class="c0"/>
<circle cx="806" cy="1394" r="8" class="c0"/>
<circle cx="938" cy="1138" r="8" class="c0"/>
<circle cx="1238" cy="1382" r="8" class="c0"/>
<circle cx="1366" cy="1308" r="8" class="c0"/>
<circle cx="628" cy="1266" r="8" class="c0"/>
<circle cx="688" cy="1218" r="8" class="c0"/>
<circle cx="974" cy="1426" r="8" class="c0"/>
<circle cx="736" cy="1240" r="8" class="c0"/>
<circle cx="586" cy="1238" r="8" class="c0"/>
<circle cx="1192" cy="1382" r="8" class="c0"/>
<circle cx="838" cy="1138" r="8" class="c0"/>
<circle cx="978" cy="1182" r="8" class="c0"/>
<circle cx="598" cy="1288" r="8" class="c0"/>
<circle cx="660" cy="1350" r="8" class="c0"/>
<circle cx="626" cy="1362" r="8" class="c0"/>
<circle cx="920" cy="1156" r="8" class="c0"/>
<circle cx="1082" cy="1396" r="8" class="c0"/>
<circle cx="1224" cy="1204" r="8" class="c0"/>
<circle cx="1174" cy="1238" r="8" class="c0"/>
<circle cx="770" cy="1222" r="8" class="c0"/>
<circle cx="1190" cy="1326" r="8" class="c0"/>
<circle cx="1150" cy="1408" r="8" class="c0"/>
<circle cx="1164" cy="1362" r="8" class="c0"/>
<circle cx="1354" cy="1382" r="8" class="c0"/>
<circle cx="1178" cy="1426" r="8" class="c0"/>
<circle cx="1068" cy="1426" r="8" class="c0"/>
<circle cx="738" cy="1266" r="8" class="c0"/>
<circle cx="670" cy="1384" r="8" class="c0"/>
<circle cx="1092" cy="1138" r="8" class="c0"/>
<circle cx="1214" cy="1174" r="8" class="c0"/>
<circle cx="942" cy="1264" r="8" class="c0"/>
<circle cx="1218" cy="1396" r="8" class="c0"/>
<circle cx="620" cy="1424" r="8" class="c0"/>
<circle cx="1300" cy="1398" r="8" class="c0"/>
<circle cx="1048" cy="1428" r="8" class="c0"/>
<circle cx="1144" cy="1152" r="8" class="c0"/>
<circle cx="710" cy="1302" r="8" class="c0"/>
<circle cx="904" cy="1306" r="8" class="c0"/>
<circle cx="856" cy="1186" r="8" class="c0"/>
<circle cx="1110" cy="1426" r="8" class="c0"/>
<circle cx="1042" cy="1132" r="8" class="c0"/>
<circle cx="1200" cy="1338" r="8" class="c0"/>
<circle cx="1186" cy="1160" r="8" class="c0"/>
<circle cx="1282" cy="1326" r="8" class="c0"/>
<circle cx="760" cy="1152" r="8" class="c0"/>
<circle cx="1184" cy="1276" r="8" class="c0"/>
<circle cx="1214" cy="1250" r="8" class="c0"/>
<circle cx="1246" cy="1316" r="8" class="c0"/>
<circle cx="1186" cy="1210" r="8" class="c0"/>
<circle cx="588" cy="1344" r="8" class="c0"/>
<circle cx="1130" cy="1166" r="8" class="c0"/>
<circle cx="1206" cy="1430" r="8" class="c0"/>
<circle cx="572" cy="1258" r="8" class="c0"/>
<circle cx="1368" cy="1288" r="8" class="c0"/>
<circle cx="1180" cy="1394" r="8" class="c0"/>
<circle cx="920" cy="1288" r="8" class="c0"/>
<circle cx="1356" cy="1276" r="8" class="c0"/>
<circle cx="1262" cy="1234" r="8" class="c0"/>
<circle cx="1180" cy="1256" r="8" class="c0"/>
<circle cx="1206" cy="1192" r="8" class="c0"/>
<circle cx="790" cy="1184" r="8" class="c0"/>
<circle cx="748" cy="1250" r="8" class="c0"/>
<circle cx="764" cy="1240" r="8" class="c0"/>
<circle cx="838" cy="1430" r="8" class="c0"/>
<circle cx="1078" cy="1414" r="8" class="c0"/>
<circle cx="608" cy="1298" r="8" class="c0"/>
<circle cx="1310" cy="1416" r="8" class="c0"/>
<circle cx="1020" cy="1132" r="8" class="c0"/>
<circle cx="1162" cy="1344" r="8" class="c0"/>
<circle cx="732" cy="1430" r="8" class="c0"/>
<circle cx="1060" cy="1166" r="8" class="c0"/>
<circle cx="826" cy="1392" r="8" class="c0"/>
<circle cx="1072" cy="1200" r="8" class="c0"/>
<circle cx="1342" cy="1366" r="8" class="c0"/>
<circle cx="1270" cy="1268" r="8" class="c0"/>
<circle cx="1168" cy="1406" r="8" class="c0"/>
<circle cx="870" cy="1132" r="8" class="c0"/>
<circle cx="728" cy="1310" r="8" class="c0"/>
<circle cx="1306" cy="1242" r="8" class="c0"/>
<circle cx="678" cy="1404" r="8" class="c0"/>
<circle cx="1126" cy="1374" r="8" class="c0"/>
<circle cx="1318" cy="1226" r="8" class="c0"/>
<circle cx="580" cy="1400" r="6" class="c0"/>
<circle cx="822" cy="1206" r="6" class="c0"/>
<circle cx="1232" cy="1366" r="6" class="c0"/>
<circle cx="956" cy="1312" r="6" class="c0"/>
<circle cx="902" cy="1266" r="6" class="c0"/>
<circle cx="1230" cy="1324" r="6" class="c0"/>
<circle cx="772" cy="1188" r="6" class="c0"/>
<circle cx="962" cy="1168" r="6" class="c0"/>
<circle cx="772" cy="1370" r="6" class="c0"/>
<circle cx="872" cy="1158" r="6" class="c0"/>
<circle cx="1012" cy="1432" r="6" class="c0"/>
<circle cx="826" cy="1160" r="6" class="c0"/>
<circle cx="1224" cy="1222" r="6" class="c0"/>
<circle cx="878" cy="1146" r="6" class="c0"/>
<circle cx="1374" cy="1342" r="6" class="c0"/>
<circle cx="1168" cy="1182" r="6" class="c0"/>
<circle cx="1222" cy="1334" r="6" class="c0"/>
<circle cx="720" cy="1238" r="6" class="c0"/>
<circle cx="854" cy="1432" r="6" class="c0"/>
<circle cx="1186" cy="1228" r="6" class="c0"/>
<circle cx="668" cy="1288" r="6" class="c0"/>
<circle cx="1196" cy="1286" r="6" class="c0"/>
<circle cx="1096" cy="1172" r="6" class="c0"/>
<circle cx="1254" cy="1342" r="6" class="c0"/>
<circle cx="770" cy="1396" r="6" class="c0"/>
<circle cx="946" cy="1418" r="6" class="c0"/>
<circle cx="1174" cy="1330" r="6" class="c0"/>
<circle cx="1094" cy="1206" r="6" class="c0"/>
<circle cx="742" cy="1418" r="6" class="c0"/>
<circle cx="962" cy="1184" r="6" class="c0"/>
<circle cx="736" cy="1340" r="6" class="c0"/>
<circle cx="1272" cy="1336" r="6" class="c0"/>
<circle cx="948" cy="1128" r="6" class="c0"/>
<circle cx="1176" cy="1372" r="6" class="c0"/>
<circle cx="686" cy="1430" r="6" class="c0"/>
<circle cx="724" cy="1346" r="6" class="c0"/>
<circle cx="690" cy="1414" r="6" class="c0"/>
<circle cx="662" cy="1276" r="6" class="c0"/>
<circle cx="672" cy="1364" r="6" class="c0"/>
<circle cx="1038" cy="1184" r="6" class="c0"/>
<circle cx="998" cy="1148" r="6" class="c0"/>
<circle cx="874" cy="1404" r="6" class="c0"/>
<circle cx="1248" cy="1432" r="6" class="c0"/>
<circle cx="1150" cy="1168" r="6" class="c0"/>
<circle cx="980" cy="1134" r="6" class="c0"/>
<circle cx="602" cy="1242" r="6" class="c0"/>
<circle cx="722" cy="1160" r="6" class="c0"/>
<circle cx="1324" cy="1318" r="6" class="c0"/>
<circle cx="1156" cy="1242" r="6" class="c0"/>
<circle cx="598" cy="1310" r="6" class="c0"/>
<circle cx="1324" cy="1370" r="6" class="c0"/>
<circle cx="554" cy="1322" r="6" class="c0"/>
<circle cx="932" cy="1278" r="6" class="c0"/>
<circle cx="1120" cy="1416" r="6" class="c0"/>
<circle cx="886" cy="1188" r="6" class="c0"/>
<circle cx="648" cy="1392" r="6" class="c0"/>
<circle cx="708" cy="1318" r="6" class="c0"/>
<circle cx="1234" cy="1214" r="6" class="c0"/>
<circle cx="698" cy="1292" r="6" class="c0"/>
<circle cx="980" cy="1270" r="6" class="c0"/>
<circle cx="994" cy="1186" r="6" class="c0"/>
<circle cx="1260" cy="1188" r="6" class="c0"/>
<circle cx="1296" cy="1288" r="6" class="c0"/>
<circle cx="732" cy="1284" r="6" class="c0"/>
<circle cx="724" cy="1196" r="6" class="c0"/>
<circle cx="900" cy="1146" r="6" class="c0"/>
<circle cx="718" cy="1364" r="6" class="c0"/>
<circle cx="1130" cy="1188" r="6" class="c0"/>
<circle cx="712" cy="1190" r="6" class="c0"/>
<circle cx="642" cy="1352" r="6" class="c0"/>
<circle cx="802" cy="1432" r="6" class="c0"/>
<circle cx="804" cy="1214" r="6" class="c0"/>
<circle cx="940" cy="1432" r="6" class="c0"/>
<circle cx="652" cy="1184" r="6" class="c0"/>
<circle cx="1046" cy="1174" r="6" class="c0"/>
<circle cx="658" cy="1246" r="6" class="c0"/>
<circle cx="838" cy="1178" r="6" class="c0"/>
<circle cx="570" cy="1274" r="6" class="c0"/>
<circle cx="554" cy="1298" r="6" class="c0"/>
<circle cx="656" cy="1432" r="6" class="c0"/>
<circle cx="1146" cy="1366" r="6" class="c0"/>
<circle cx="1204" cy="1164" r="6" class="c0"/>
<circle cx="888" cy="1300" r="6" class="c0"/>
<circle cx="1126" cy="1224" r="6" class="c0"/>
<circle cx="620" cy="1210" r="6" class="c0"/>
<circle cx="1214" cy="1304" r="6" class="c0"/>
<circle cx="706" cy="1396" r="6" class="c0"/>
<circle cx="560" cy="1386" r="6" class="c0"/>
<circle cx="822" cy="1140" r="6" class="c0"/>
<circle cx="1144" cy="1230" r="6" class="c0"/>
<circle cx="872" cy="1196" r="6" class="c0"/>
<circle cx="1342" cy="1248" r="6" class="c0"/>
<circle cx="588" cy="1410" r="6" class="c0"/>
<circle cx="788" cy="1222" r="6" class="c0"/>
<circle cx="1314" cy="1260" r="6" class="c0"/>
<circle cx="888" cy="1410" r="6" class="c0"/>
<circle cx="798" cy="1144" r="6" class="c0"/>
<circle cx="920" cy="1314" r="6" class="c0"/>
<circle cx="1176" cy="1170" r="6" class="c0"/>
<circle cx="1108" cy="1386" r="6" class="c0"/>
<circle cx="598" cy="1424" r="6" class="c0"/>
<circle cx="1054" cy="1146" r="6" class="c0"/>
<circle cx="880" cy="1292" r="6" class="c0"/>
<circle cx="1176" cy="1198" r="6" class="c0"/>
<circle cx="1282" cy="1198" r="6" class="c0"/>
<circle cx="1216" cy="1230" r="6" class="c0"/>
<circle cx="1004" cy="1412" r="6" class="c0"/>
<circle cx="540" cy="1368" r="6" class="c0"/>
<circle cx="1134" cy="1410" r="6" class="c0"/>
<circle cx="684" cy="1234" r="6" class="c0"/>
<circle cx="1214" cy="1412" r="6" class="c0"/>
<circle cx="1088" cy="1164" r="6" class="c0"/>
<circle cx="770" cy="1164" r="6" class="c0"/>
<circle cx="1290" cy="1244" r="6" class="c0"/>
<circle cx="972" cy="1126" r="6" class="c0"/>
<circle cx="1240" cy="1176" r="6" class="c0"/>
</svg>
