<?xml version="1.0" encoding="utf-8"?>
<svg xmlns="http://www.w3.org/2000/svg"
     xmlns:xlink="http://www.w3.org/1999/xlink" width="1920" height="1440" >

            <defs>
            <style type="text/css"><![CDATA[
circle {stroke: none;}
.c0 {fill: #FFFFFF;}
]]></style>
            </defs>
<rect x="0" y="0" width="1920" height="1440" fill="black"/>
<circle cx="1056" cy="1352" r="14" class="c0"/>
<circle cx="886" cy="1184" r="12" class="c0"/>
<circle cx="1000" cy="1326" r="12" class="c0"/>
<circle cx="1010" cy="870" r="12" class="c0"/>
<circle cx="924" cy="846" r="12" class="c0"/>
<circle cx="890" cy="1108" r="12" class="c0"/>
<circle cx="984" cy="904" r="12" class="c0"/>
<circle cx="952" cy="1382" r="12" class="c0"/>
<circle cx="946" cy="1408" r="12" class="c0"/>
<circle cx="920" cy="1096" r="12" class="c0"/>
<circle cx="992" cy="1174" r="12" class="c0"/>
<circle cx="1020" cy="1374" r="12" class="c0"/>
<circle cx="920" cy="1376" r="12" class="c0"/>
<circle cx="1164" cy="1378" r="12" class="c0"/>
<circle cx="754" cy="1364" r="12" class="c0"/>
<circle cx="928" cy="1252" r="12" class="c0"/>
<circle cx="942" cy="920" r="12" class="c0"/>
<circle cx="1144" cy="1408" r="12" class="c0"/>
<circle cx="852" cy="1376" r="12" class="c0"/>
<circle cx="922" cy="986" r="12" class="c0"/>
<circle cx="1000" cy="954" r="12" class="c0"/>
<circle cx="954" cy="1114" r="12" class="c0"/>
<circle cx="1010" cy="1008" r="10" class="c0"/>
<circle cx="1026" cy="1284" r="10" class="c0"/>
<circle cx="838" cy="1414" r="10" class="c0"/>
<circle cx="1024" cy="1152" r="10" class="c0"/>
<circle cx="930" cy="1146" r="10" class="c0"/>
<circle cx="1010" cy="822" r="10" class="c0"/>
<circle cx="784" cy="1350" r="10" class="c0"/>
<circle cx="954" cy="1030" r="10" class="c0"/>
<circle cx="920" cy="1052" r="10" class="c0"/>
<circle cx="722" cy="1414" r="10" class="c0"/>
<circle cx="894" cy="820" r="10" class="c0"/>
<circle cx="940" cy="880" r="10" class="c0"/>
<circle cx="846" cy="894" r="10" class="c0"/>
<circle cx="922" cy="1214" r="10" class="c0"/>
<circle cx="894" cy="844" r="10" class="c0"/>
<circle cx="936" cy="1334" r="10" class="c0"/>
<circle cx="882" cy="1398" r="10" class="c0"/>
<circle cx="1000" cy="1078" r="10" class="c0"/>
<circle cx="1140" cy="1360" r="10" class="c0"/>
<circle cx="1010" cy="1396" r="10" class="c0"/>
<circle cx="900" cy="928" r="10" class="c0"/>
<circle cx="1002" cy="1418" r="10" class="c0"/>
<circle cx="1088" cy="1376" r="10" class="c0"/>
<circle cx="1128" cy="1376" r="10" class="c0"/>
<circle cx="972" cy="848" r="10" class="c0"/>
<circle cx="960" cy="1076" r="10" class="c0"/>
<circle cx="742" cy="1402" r="10" class="c0"/>
<circle cx="994" cy="1254" r="10" class="c0"/>
<circle cx="780" cy="1388" r="10" class="c0"/>
<circle cx="982" cy="1154" r="10" class="c0"/>
<circle cx="1196" cy="1368" r="10" class="c0"/>
<circle cx="982" cy="1304" r="10" class="c0"/>
<circle cx="772" cy="1422" r="10" class="c0"/>
<circle cx="686" cy="1426" r="10" class="c0"/>
<circle cx="1114" cy="1324" r="10" class="c0"/>
<circle cx="1006" cy="1302" r="10" class="c0"/>
<circle cx="898" cy="1288" r="10" class="c0"/>
<circle cx="986" cy="1218" r="10" class="c0"/>
<circle cx="1062" cy="1322" r="10" class="c0"/>
<circle cx="832" cy="874" r="10" class="c0"/>
<circle cx="858" cy="938" r="10" class="c0"/>
<circle cx="898" cy="1358" r="10" class="c0"/>
<circle cx="884" cy="1234" r="10" class="c0"/>
<circle cx="886" cy="968" r="10" class="c0"/>
<circle cx="980" cy="978" r="10" class="c0"/>
<circle cx="986" cy="860" r="10" class="c0"/>
<circle cx="1020" cy="1262" r="10" class="c0"/>
<circle cx="1208" cy="1414" r="10" class="c0"/>
<circle cx="810" cy="1328" r="10" class="c0"/>
<circle cx="728" cy="1366" r="10" class="c0"/>
<circle cx="1104" cy="1346" r="10" class="c0"/>
<circle cx="700" cy="1364" r="10" class="c0"/>
<circle cx="1078" cy="1338" r="10" class="c0"/>
<circle cx="998" cy="1230" r="10" class="c0"/>
<circle cx="870" cy="864" r="10" class="c0"/>
<circle cx="1020" cy="1038" r="10" class="c0"/>
<circle cx="852" cy="846" r="10" class="c0"/>
<circle cx="894" cy="1000" r="10" class="c0"/>
<circle cx="834" cy="920" r="10" class="c0"/>
<circle cx="1044" cy="1236" r="10" class="c0"/>
<circle cx="952" cy="894" r="10" class="c0"/>
<circle cx="1118" cy="1408" r="10" class="c0"/>
<circle cx="880" cy="832" r="10" class="c0"/>
<circle cx="876" cy="918" r="10" class="c0"/>
<circle cx="1028" cy="1324" r="10" class="c0"/>
<circle cx="894" cy="1386" r="10" class="c0"/>
<circle cx="824" cy="1346" r="10" class="c0"/>
<circle cx="872" cy="896" r="10" class="c0"/>
<circle cx="660" cy="1418" r="10" class="c0"/>
<circle cx="904" cy="1130" r="10" class="c0"/>
<circle cx="1014" cy="934" r="10" class="c0"/>
<circle cx="908" cy="904" r="10" class="c0"/>
<circle cx="1040" cy="1110" r="10" class="c0"/>
<circle cx="868" cy="1146" r="10" class="c0"/>
<circle cx="982" cy="1268" r="10" class="c0"/>
<circle cx="894" cy="1310" r="10" class="c0"/>
<circle cx="740" cy="1344" r="8" class="c0"/>
<circle cx="938" cy="1076" r="8" class="c0"/>
<circle cx="962" cy="938" r="8" class="c0"/>
<circle cx="866" cy="1276" r="8" class="c0"/>
<circle cx="1018" cy="846" r="8" class="c0"/>
<circle cx="678" cy="1384" r="8" class="c0"/>
<circle cx="906" cy="884" r="8" class="c0"/>
<circle cx="940" cy="1000" r="8" class="c0"/>
<circle cx="1160" cy="1342" r="8" class="c0"/>
<circle cx="912" cy="1344" r="8" class="c0"/>
<circle cx="1028" cy="1176" r="8" class="c0"/>
<circle cx="1172" cy="1416" r="8" class="c0"/>
<circle cx="1032" cy="882" r="8" class="c0"/>
<circle cx="862" cy="1342" r="8" class="c0"/>
<circle cx="816" cy="1422" r="8" class="c0"/>
<circle cx="892" cy="1214" r="8" class="c0"/>
<circle cx="950" cy="1202" r="8" class="c0"/>
<circle cx="1252" cy="1428" r="8" class="c0"/>
<circle cx="1030" cy="1348" r="8" class="c0"/>
<circle cx="920" cy="804" r="8" class="c0"/>
<circle cx="980" cy="1028" r="8" class="c0"/>
<circle cx="1026" cy="1408" r="8" class="c0"/>
<circle cx="966" cy="1138" r="8" class="c0"/>
<circle cx="976" cy="1120" r="8" class="c0"/>
<circle cx="956" cy="1354" r="8" class="c0"/>
<circle cx="900" cy="866" r="8" class="c0"/>
<circle cx="872" cy="1092" r="8" class="c0"/>
<circle cx="878" cy="946" r="8" class="c0"/>
<circle cx="874" cy="1200" r="8" class="c0"/>
<circle cx="958" cy="984" r="8" class="c0"/>
<circle cx="1022" cy="1228" r="8" class="c0"/>
<circle cx="900" cy="1074" r="8" class="c0"/>
<circle cx="882" cy="1324" r="8" class="c0"/>
<circle cx="862" cy="1230" r="8" class="c0"/>
<circle cx="714" cy="1380" r="8" class="c0"/>
<circle cx="946" cy="964" r="8" class="c0"/>
<circle cx="1068" cy="1394" r="8" class="c0"/>
<circle cx="988" cy="1358" r="8" class="c0"/>
<circle cx="1046" cy="1204" r="8" class="c0"/>
<circle cx="968" cy="1046" r="8" class="c0"/>
<circle cx="886" cy="1060" r="8" class="c0"/>
<circle cx="1240" cy="1384" r="8" class="c0"/>
<circle cx="930" cy="820" r="8" class="c0"/>
<circle cx="958" cy="804" r="8" class="c0"/>
<circle cx="1066" cy="1418" r="8" class="c0"/>
<circle cx="916" cy="1182" r="8" class="c0"/>
<circle cx="850" cy="822" r="8" class="c0"/>
<circle cx="970" cy="996" r="8" class="c0"/>
<circle cx="1000" cy="1202" r="8" class="c0"/>
<circle cx="904" cy="1254" r="8" class="c0"/>
<circle cx="954" cy="1166" r="8" class="c0"/>
<circle cx="1228" cy="1422" r="8" class="c0"/>
<circle cx="806" cy="1394" r="8" class="c0"/>
<circle cx="908" cy="1416" r="8" class="c0"/>
<circle cx="938" cy="1362" r="8" class="c0"/>
<circle cx="990" cy="1094" r="8" class="c0"/>
<circle cx="900" cy="952" r="8" class="c0"/>
<circle cx="846" cy="1320" r="8" class="c0"/>
<circle cx="948" cy="1312" r="8" class="c0"/>
<circle cx="1004" cy="1148" r="8" class="c0"/>
<circle cx="896" cy="794" r="8" class="c0"/>
<circle cx="888" cy="1270" r="8" class="c0"/>
<circle cx="926" cy="1318" r="8" class="c0"/>
<circle cx="964" cy="1332" r="8" class="c0"/>
<circle cx="942" cy="1220" r="8" class="c0"/>
<circle cx="932" cy="948" r="8" class="c0"/>
<circle cx="952" cy="1264" r="8" class="c0"/>
<circle cx="1002" cy="988" r="8" class="c0"/>
<circle cx="868" cy="978" r="8" class="c0"/>
<circle cx="1092" cy="1324" r="8" class="c0"/>
<circle cx="828" cy="944" r="8" class="c0"/>
<circle cx="850" cy="1352" r="8" class="c0"/>
<circle cx="972" cy="878" r="8" class="c0"/>
<circle cx="858" cy="882" r="8" class="c0"/>
<circle cx="1190" cy="1430" r="8" class="c0"/>
<circle cx="864" cy="1188" r="8" class="c0"/>
<circle cx="986" cy="814" r="8" class="c0"/>
<circle cx="826" cy="1386" r="8" class="c0"/>
<circle cx="1020" cy="1064" r="8" class="c0"/>
<circle cx="1042" cy="1396" r="8" class="c0"/>
<circle cx="942" cy="1288" r="8" class="c0"/>
<circle cx="948" cy="840" r="8" class="c0"/>
<circle cx="1190" cy="1396" r="8" class="c0"/>
<circle cx="1054" cy="1382" r="8" class="c0"/>
<circle cx="1130" cy="1428" r="8" class="c0"/>
<circle cx="752" cy="1420" r="8" class="c0"/>
<circle cx="904" cy="1028" r="8" class="c0"/>
<circle cx="706" cy="1398" r="8" class="c0"/>
<circle cx="986" cy="836" r="8" class="c0"/>
<circle cx="932" cy="1040" r="8" class="c0"/>
<circle cx="1038" cy="1428" r="8" class="c0"/>
<circle cx="930" cy="1010" r="8" class="c0"/>
<circle cx="860" cy="1306" r="8" class="c0"/>
<circle cx="918" cy="1426" r="8" class="c0"/>
<circle cx="880" cy="1038" r="8" class="c0"/>
<circle cx="904" cy="1224" r="8" class="c0"/>
<circle cx="1046" cy="1178" r="8" class="c0"/>
<circle cx="1000" cy="1036" r="8" class="c0"/>
<circle cx="1028" cy="1200" r="8" class="c0"/>
<circle cx="922" cy="872" r="8" class="c0"/>
<circle cx="874" cy="810" r="8" class="c0"/>
<circle cx="876" cy="1430" r="8" class="c0"/>
<circle cx="1006" cy="916" r="8" class="c0"/>
<circle cx="920" cy="1274" r="8" class="c0"/>
<circle cx="996" cy="1132" r="8" class="c0"/>
<circle cx="870" cy="1412" r="8" class="c0"/>
<circle cx="876" cy="1356" r="8" class="c0"/>
<circle cx="916" cy="1308" r="8" class="c0"/>
<circle cx="850" cy="960" r="8" class="c0"/>
<circle cx="964" cy="1230" r="8" class="c0"/>
<circle cx="884" cy="1016" r="8" class="c0"/>
<circle cx="824" cy="894" r="8" class="c0"/>
<circle cx="944" cy="860" r="8" class="c0"/>
<circle cx="874" cy="1122" r="8" class="c0"/>
<circle cx="986" cy="1384" r="8" class="c0"/>
<circle cx="1130" cy="1336" r="8" class="c0"/>
<circle cx="970" cy="1292" r="8" class="c0"/>
<circle cx="908" cy="1160" r="8" class="c0"/>
<circle cx="962" cy="1254" r="8" class="c0"/>
<circle cx="972" cy="1188" r="8" class="c0"/>
<circle cx="788" cy="1408" r="8" class="c0"/>
<circle cx="768" cy="1332" r="8" class="c0"/>
<circle cx="1030" cy="1010" r="8" class="c0"/>
<circle cx="986" cy="1340" r="8" class="c0"/>
<circle cx="1160" cy="1428" r="8" class="c0"/>
<circle cx="968" cy="1370" r="8" class="c0"/>
<circle cx="916" cy="1234" r="8" class="c0"/>
<circle cx="1008" cy="1352" r="8" class="c0"/>
<circle cx="1018" cy="1100" r="8" class="c0"/>
<circle cx="998" cy="1114" r="8" class="c0"/>
<circle cx="1034" cy="1074" r="8" class="c0"/>
<circle cx="1076" cy="1428" r="8" class="c0"/>
<circle cx="910" cy="1326" r="8" class="c0"/>
<circle cx="788" cy="1324" r="8" class="c0"/>
<circle cx="1106" cy="1390" r="8" class="c0"/>
<circle cx="792" cy="1374" r="8" class="c0"/>
<circle cx="974" cy="956" r="8" class="c0"/>
<circle cx="760" cy="1390" r="8" class="c0"/>
<circle cx="858" cy="1426" r="8" class="c0"/>
<circle cx="940" cy="1430" r="8" class="c0"/>
<circle cx="976" cy="926" r="8" class="c0"/>
<circle cx="1026" cy="904" r="8" class="c0"/>
<circle cx="828" cy="850" r="8" class="c0"/>
<circle cx="938" cy="800" r="8" class="c0"/>
<circle cx="958" cy="1424" r="8" class="c0"/>
<circle cx="1044" cy="1310" r="8" class="c0"/>
<circle cx="990" cy="1430" r="8" class="c0"/>
<circle cx="1042" cy="1336" r="8" class="c0"/>
<circle cx="1038" cy="1270" r="8" class="c0"/>
<circle cx="968" cy="1400" r="8" class="c0"/>
<circle cx="1048" cy="1282" r="8" class="c0"/>
<circle cx="948" cy="1064" r="8" class="c0"/>
<circle cx="1174" cy="1360" r="8" class="c0"/>
<circle cx="886" cy="1138" r="8" class="c0"/>
<circle cx="990" cy="1016" r="8" class="c0"/>
<circle cx="1036" cy="1028" r="8" class="c0"/>
<circle cx="868" cy="1258" r="8" class="c0"/>
<circle cx="890" cy="1084" r="8" class="c0"/>
<circle cx="966" cy="828" r="8" class="c0"/>
<circle cx="952" cy="1242" r="8" class="c0"/>
<circle cx="1014" cy="890" r="6" class="c0"/>
<circle cx="1242" cy="1404" r="6" class="c0"/>
<circle cx="1046" cy="1136" r="6" class="c0"/>
<circle cx="922" cy="926" r="6" class="c0"/>
<circle cx="910" cy="1400" r="6" class="c0"/>
<circle cx="868" cy="1064" r="6" class="c0"/>
<circle cx="970" cy="1316" r="6" class="c0"/>
<circle cx="898" cy="1336" r="6" class="c0"/>
<circle cx="818" cy="1404" r="6" class="c0"/>
<circle cx="1220" cy="1380" r="6" class="c0"/>
<circle cx="1012" cy="1192" r="6" class="c0"/>
<circle cx="912" cy="1008" r="6" class="c0"/>
<circle cx="886" cy="1252" r="6" class="c0"/>
<circle cx="1140" cy="1388" r="6" class="c0"/>
<circle cx="1160" cy="1398" r="6" class="c0"/>
<circle cx="880" cy="1160" r="6" class="c0"/>
<circle cx="1092" cy="1402" r="6" class="c0"/>
<circle cx="696" cy="1408" r="6" class="c0"/>
<circle cx="962" cy="1278" r="6" class="c0"/>
<circle cx="852" cy="918" r="6" class="c0"/>
<circle cx="982" cy="942" r="6" class="c0"/>
<circle cx="906" cy="1198" r="6" class="c0"/>
<circle cx="928" cy="898" r="6" class="c0"/>
<circle cx="936" cy="1168" r="6" class="c0"/>
<circle cx="996" cy="1058" r="6" class="c0"/>
<circle cx="864" cy="1164" r="6" class="c0"/>
<circle cx="966" cy="1208" r="6" class="c0"/>
<circle cx="808" cy="1362" r="6" class="c0"/>
<circle cx="1028" cy="1304" r="6" class="c0"/>
<circle cx="996" cy="802" r="6" class="c0"/>
<circle cx="974" cy="800" r="6" class="c0"/>
<circle cx="898" cy="1044" r="6" class="c0"/>
<circle cx="932" cy="1190" r="6" class="c0"/>
<circle cx="1040" cy="1160" r="6" class="c0"/>
<circle cx="1144" cy="1328" r="6" class="c0"/>
<circle cx="1206" cy="1390" r="6" class="c0"/>
<circle cx="876" cy="1296" r="6" class="c0"/>
<circle cx="740" cy="1380" r="6" class="c0"/>
<circle cx="660" cy="1394" r="6" class="c0"/>
<circle cx="674" cy="1400" r="6" class="c0"/>
<circle cx="804" cy="1348" r="6" class="c0"/>
<circle cx="940" cy="1020" r="6" class="c0"/>
<circle cx="1042" cy="1368" r="6" class="c0"/>
<circle cx="830" cy="1322" r="6" class="c0"/>
<circle cx="898" cy="982" r="6" class="c0"/>
<circle cx="1002" cy="1282" r="6" class="c0"/>
<circle cx="996" cy="886" r="6" class="c0"/>
<circle cx="766" cy="1348" r="6" class="c0"/>
<circle cx="1034" cy="1250" r="6" class="c0"/>
<circle cx="866" cy="1214" r="6" class="c0"/>
<circle cx="964" cy="910" r="6" class="c0"/>
<circle cx="862" cy="1396" r="6" class="c0"/>
<circle cx="694" cy="1382" r="6" class="c0"/>
<circle cx="928" cy="1352" r="6" class="c0"/>
<circle cx="890" cy="880" r="6" class="c0"/>
<circle cx="978" cy="1078" r="6" class="c0"/>
<circle cx="932" cy="1126" r="6" class="c0"/>
<circle cx="930" cy="1300" r="6" class="c0"/>
<circle cx="950" cy="790" r="6" class="c0"/>
<circle cx="1002" cy="848" r="6" class="c0"/>
<circle cx="1026" cy="1130" r="6" class="c0"/>
<circle cx="916" cy="956" r="6" class="c0"/>
<circle cx="1102" cy="1366" r="6" class="c0"/>
<circle cx="986" cy="1050" r="6" class="c0"/>
<circle cx="996" cy="926" r="6" class="c0"/>
<circle cx="950" cy="1092" r="6" class="c0"/>
<circle cx="942" cy="1134" r="6" class="c0"/>
<circle cx="910" cy="832" r="6" class="c0"/>
<circle cx="1084" cy="1308" r="6" class="c0"/>
<circle cx="1092" cy="1422" r="6" class="c0"/>
<circle cx="1020" cy="1116" r="6" class="c0"/>
<circle cx="704" cy="1430" r="6" class="c0"/>
<circle cx="1180" cy="1340" r="6" class="c0"/>
<circle cx="886" cy="1370" r="6" class="c0"/>
<circle cx="988" cy="996" r="6" class="c0"/>
<circle cx="804" cy="1410" r="6" class="c0"/>
<circle cx="1008" cy="1052" r="6" class="c0"/>
<circle cx="1036" cy="1048" r="6" class="c0"/>
<circle cx="828" cy="1368" r="6" class="c0"/>
<circle cx="1082" cy="1410" r="6" class="c0"/>
<circle cx="844" cy="862" r="6" class="c0"/>
<circle cx="688" cy="1394" r="6" class="c0"/>
<circle cx="846" cy="1396" r="6" class="c0"/>
<circle cx="1036" cy="854" r="6" class="c0"/>
<circle cx="1036" cy="1092" r="6" class="c0"/>
<circle cx="950" cy="1010" r="6" class="c0"/>
<circle cx="796" cy="1426" r="6" class="c0"/>
<circle cx="888" cy="1344" r="6" class="c0"/>
<circle cx="928" cy="786" r="6" class="c0"/>
<circle cx="984" cy="1414" r="6" class="c0"/>
<circle cx="958" cy="868" r="6" class="c0"/>
<circle cx="1032" cy="1216" r="6" class="c0"/>
<circle cx="1224" cy="1398" r="6" class="c0"/>
<circle cx="970" cy="1096" r="6" class="c0"/>
<circle cx="936" cy="1272" r="6" class="c0"/>
<circle cx="984" cy="1200" r="6" class="c0"/>
<circle cx="918" cy="1074" r="6" class="c0"/>
<circle cx="874" cy="1382" r="6" class="c0"/>
<circle cx="896" cy="1426" r="6" class="c0"/>
<circle cx="1016" cy="1432" r="6" class="c0"/>
<circle cx="890" cy="902" r="6" class="c0"/>
<circle cx="956" cy="954" r="6" class="c0"/>
<circle cx="1012" cy="1242" r="6" class="c0"/>
<circle cx="1014" cy="1138" r="6" class="c0"/>
<circle cx="924" cy="1406" r="6" class="c0"/>
<circle cx="1046" cy="1414" r="6" class="c0"/>
<circle cx="868" cy="956" r="6" class="c0"/>
<circle cx="986" cy="1068" r="6" class="c0"/>
<circle cx="950" cy="1142" r="6" class="c0"/>
<circle cx="948" cy="822" r="6" class="c0"/>
<circle cx="1118" cy="1356" r="6" class="c0"/>
<circle cx="1210" cy="1358" r="6" class="c0"/>
<circle cx="964" cy="1012" r="6" class="c0"/>
<circle cx="836" cy="1334" r="6" class="c0"/>
<circle cx="1188" cy="1352" r="6" class="c0"/>
<circle cx="1090" cy="1358" r="6" class="c0"/>
<circle cx="736" cy="1426" r="6" class="c0"/>
<circle cx="812" cy="1378" r="6" class="c0"/>
<circle cx="914" cy="788" r="6" class="c0"/>
<circle cx="840" cy="834" r="6" class="c0"/>
<circle cx="1112" cy="1432" r="6" class="c0"/>
<circle cx="718" cy="1348" r="6" class="c0"/>
<circle cx="996" cy="1372" r="6" class="c0"/>
<circle cx="974" cy="1428" r="6" class="c0"/>
<circle cx="992" cy="1400" r="6" class="c0"/>
<circle cx="1210" cy="1432" r="6" class="c0"/>
<circle cx="892" cy="1154" r="6" class="c0"/>
<circle cx="1006" cy="898" r="6" class="c0"/>
<circle cx="1250" cy="1412" r="6" class="c0"/>
<circle cx="1016" cy="1212" r="6" class="c0"/>
<circle cx="878" cy="988" r="6" class="c0"/>
<circle cx="932" cy="1392" r="6" class="c0"/>
<circle cx="866" cy="1108" r="6" class="c0"/>
<circle cx="776" cy="1368" r="6" class="c0"/>
<circle cx="940" cy="1100" r="6" class="c0"/>
<circle cx="724" cy="1394" r="6" class="c0"/>
<circle cx="1130" cy="1396" r="6" class="c0"/>
<circle cx="974" cy="1244" r="6" class="c0"/>
<circle cx="1028" cy="922" r="6" class="c0"/>
<circle cx="1074" cy="1364" r="6" class="c0"/>
<circle cx="920" cy="1020" r="6" class="c0"/>
<circle cx="954" cy="1186" r="6" class="c0"/>
<circle cx="942" cy="1180" r="6" class="c0"/>
<circle cx="980" cy="1104" r="6" class="c0"/>
<circle cx="1100" cy="1410" r="6" class="c0"/>
<circle cx="928" cy="966" r="6" class="c0"/>
<circle cx="908" cy="970" r="6" class="c0"/>
<circle cx="918" cy="1120" r="6" class="c0"/>
<circle cx="942" cy="980" r="6" class="c0"/>
<circle cx="832" cy="1432" r="6" class="c0"/>
<circle cx="1052" cy="1262" r="6" class="c0"/>
<circle cx="888" cy="1418" r="6" class="c0"/>
<circle cx="1012" cy="1172" r="6" class="c0"/>
<circle cx="1042" cy="1060" r="6" class="c0"/>
<circle cx="866" cy="1326" r="6" class="c0"/>
<circle cx="914" cy="942" r="6" class="c0"/>
<circle cx="916" cy="1290" r="6" class="c0"/>
<circle cx="1174" cy="1394" r="6" class="c0"/>
<circle cx="1030" cy="866" r="6" class="c0"/>
<circle cx="972" cy="1168" r="6" class="c0"/>
<circle cx="1022" cy="996" r="6" class="c0"/>
<circle cx="946" cy="940" r="6" class="c0"/>
<circle cx="1048" cy="1152" r="6" class="c0"/>
<circle cx="878" cy="1074" r="6" class="c0"/>
<circle cx="1070" cy="1378" r="6" class="c0"/>
<circle cx="980" cy="1324" r="6" class="c0"/>
<circle cx="796" cy="1338" r="6" class="c0"/>
<circle cx="836" cy="1310" r="6" class="c0"/>
<circle cx="1230" cy="1372" r="6" class="c0"/>
<circle cx="836" cy="1360" r="6" class="c0"/>
</svg>
