<?xml version="1.0" encoding="utf-8"?>
<svg xmlns="http://www.w3.org/2000/svg"
     xmlns:xlink="http://www.w3.org/1999/xlink" width="1920" height="1440" >

            <defs>
            <style type="text/css"><![CDATA[
circle {stroke: none;}
.c0 {fill: #FFFFFF;}
]]></style>
            </defs>
<rect x="0" y="0" width="1920" height="1440" fill="black"/>
<circle cx="896" cy="1298" r="14" class="c0"/>
<circle cx="908" cy="996" r="12" class="c0"/>
<circle cx="834" cy="932" r="12" class="c0"/>
<circle cx="922" cy="1170" r="12" class="c0"/>
<circle cx="730" cy="1378" r="12" class="c0"/>
<circle cx="1232" cy="1366" r="12" class="c0"/>
<circle cx="868" cy="1174" r="12" class="c0"/>
<circle cx="958" cy="1098" r="12" class="c0"/>
<circle cx="954" cy="1018" r="12" class="c0"/>
<circle cx="914" cy="1274" r="12" class="c0"/>
<circle cx="1032" cy="1238" r="12" class="c0"/>
<circle cx="910" cy="954" r="12" class="c0"/>
<circle cx="754" cy="1368" r="12" class="c0"/>
<circle cx="980" cy="1308" r="12" class="c0"/>
<circle cx="726" cy="1342" r="12" class="c0"/>
<circle cx="960" cy="970" r="12" class="c0"/>
<circle cx="1128" cy="1310" r="12" class="c0"/>
<circle cx="870" cy="868" r="12" class="c0"/>
<circle cx="994" cy="1110" r="12" class="c0"/>
<circle cx="954" cy="900" r="12" class="c0"/>
<circle cx="1008" cy="1260" r="12" class="c0"/>
<circle cx="816" cy="1308" r="12" class="c0"/>
<circle cx="1264" cy="1406" r="12" class="c0"/>
<circle cx="880" cy="922" r="12" class="c0"/>
<circle cx="866" cy="956" r="12" class="c0"/>
<circle cx="848" cy="1358" r="12" class="c0"/>
<circle cx="892" cy="1124" r="12" class="c0"/>
<circle cx="748" cy="1314" r="12" class="c0"/>
<circle cx="912" cy="1322" r="12" class="c0"/>
<circle cx="878" cy="1314" r="12" class="c0"/>
<circle cx="980" cy="1034" r="12" class="c0"/>
<circle cx="970" cy="1228" r="12" class="c0"/>
<circle cx="1000" cy="1198" r="12" class="c0"/>
<circle cx="948" cy="1076" r="12" class="c0"/>
<circle cx="632" cy="1386" r="12" class="c0"/>
<circle cx="924" cy="1138" r="12" class="c0"/>
<circle cx="946" cy="862" r="12" class="c0"/>
<circle cx="896" cy="816" r="12" class="c0"/>
<circle cx="948" cy="1126" r="12" class="c0"/>
<circle cx="936" cy="1214" r="12" class="c0"/>
<circle cx="890" cy="1380" r="12" class="c0"/>
<circle cx="974" cy="1152" r="12" class="c0"/>
<circle cx="684" cy="1384" r="12" class="c0"/>
<circle cx="1086" cy="1320" r="12" class="c0"/>
<circle cx="954" cy="1408" r="12" class="c0"/>
<circle cx="922" cy="926" r="12" class="c0"/>
<circle cx="1014" cy="856" r="10" class="c0"/>
<circle cx="916" cy="882" r="10" class="c0"/>
<circle cx="972" cy="804" r="10" class="c0"/>
<circle cx="1158" cy="1362" r="10" class="c0"/>
<circle cx="918" cy="1422" r="10" class="c0"/>
<circle cx="1056" cy="1298" r="10" class="c0"/>
<circle cx="1012" cy="944" r="10" class="c0"/>
<circle cx="1030" cy="1390" r="10" class="c0"/>
<circle cx="1036" cy="1358" r="10" class="c0"/>
<circle cx="988" cy="904" r="10" class="c0"/>
<circle cx="1044" cy="1318" r="10" class="c0"/>
<circle cx="1314" cy="1402" r="10" class="c0"/>
<circle cx="932" cy="830" r="10" class="c0"/>
<circle cx="770" cy="1412" r="10" class="c0"/>
<circle cx="752" cy="1344" r="10" class="c0"/>
<circle cx="990" cy="1076" r="10" class="c0"/>
<circle cx="958" cy="1182" r="10" class="c0"/>
<circle cx="886" cy="1232" r="10" class="c0"/>
<circle cx="890" cy="1350" r="10" class="c0"/>
<circle cx="1022" cy="1330" r="10" class="c0"/>
<circle cx="862" cy="1398" r="10" class="c0"/>
<circle cx="1170" cy="1346" r="10" class="c0"/>
<circle cx="1324" cy="1422" r="10" class="c0"/>
<circle cx="1304" cy="1384" r="10" class="c0"/>
<circle cx="846" cy="854" r="10" class="c0"/>
<circle cx="710" cy="1368" r="10" class="c0"/>
<circle cx="872" cy="1146" r="10" class="c0"/>
<circle cx="812" cy="1360" r="10" class="c0"/>
<circle cx="980" cy="1270" r="10" class="c0"/>
<circle cx="1038" cy="1284" r="10" class="c0"/>
<circle cx="896" cy="1206" r="10" class="c0"/>
<circle cx="920" cy="1030" r="10" class="c0"/>
<circle cx="682" cy="1358" r="10" class="c0"/>
<circle cx="1252" cy="1386" r="10" class="c0"/>
<circle cx="952" cy="1304" r="10" class="c0"/>
<circle cx="712" cy="1410" r="10" class="c0"/>
<circle cx="1290" cy="1420" r="10" class="c0"/>
<circle cx="596" cy="1412" r="10" class="c0"/>
<circle cx="1028" cy="1120" r="10" class="c0"/>
<circle cx="648" cy="1352" r="10" class="c0"/>
<circle cx="870" cy="1426" r="10" class="c0"/>
<circle cx="1050" cy="1168" r="10" class="c0"/>
<circle cx="916" cy="1352" r="10" class="c0"/>
<circle cx="882" cy="1038" r="10" class="c0"/>
<circle cx="1210" cy="1386" r="10" class="c0"/>
<circle cx="1014" cy="1152" r="10" class="c0"/>
<circle cx="1130" cy="1352" r="10" class="c0"/>
<circle cx="850" cy="1332" r="10" class="c0"/>
<circle cx="1008" cy="994" r="10" class="c0"/>
<circle cx="1022" cy="896" r="10" class="c0"/>
<circle cx="970" cy="840" r="10" class="c0"/>
<circle cx="786" cy="1364" r="10" class="c0"/>
<circle cx="990" cy="1354" r="10" class="c0"/>
<circle cx="976" cy="920" r="10" class="c0"/>
<circle cx="1010" cy="1068" r="10" class="c0"/>
<circle cx="986" cy="978" r="10" class="c0"/>
<circle cx="1158" cy="1422" r="10" class="c0"/>
<circle cx="984" cy="826" r="10" class="c0"/>
<circle cx="908" cy="1240" r="10" class="c0"/>
<circle cx="1166" cy="1312" r="10" class="c0"/>
<circle cx="828" cy="1328" r="10" class="c0"/>
<circle cx="790" cy="1330" r="10" class="c0"/>
<circle cx="1002" cy="1366" r="10" class="c0"/>
<circle cx="1000" cy="1336" r="10" class="c0"/>
<circle cx="1008" cy="1018" r="10" class="c0"/>
<circle cx="880" cy="896" r="10" class="c0"/>
<circle cx="1010" cy="1222" r="10" class="c0"/>
<circle cx="1064" cy="1328" r="10" class="c0"/>
<circle cx="654" cy="1404" r="10" class="c0"/>
<circle cx="862" cy="816" r="10" class="c0"/>
<circle cx="904" cy="900" r="10" class="c0"/>
<circle cx="938" cy="1384" r="10" class="c0"/>
<circle cx="934" cy="994" r="10" class="c0"/>
<circle cx="982" cy="1006" r="10" class="c0"/>
<circle cx="878" cy="982" r="10" class="c0"/>
<circle cx="1150" cy="1398" r="10" class="c0"/>
<circle cx="842" cy="878" r="10" class="c0"/>
<circle cx="966" cy="1288" r="10" class="c0"/>
<circle cx="1102" cy="1354" r="8" class="c0"/>
<circle cx="924" cy="1054" r="8" class="c0"/>
<circle cx="902" cy="1160" r="8" class="c0"/>
<circle cx="1198" cy="1360" r="8" class="c0"/>
<circle cx="958" cy="824" r="8" class="c0"/>
<circle cx="976" cy="1332" r="8" class="c0"/>
<circle cx="998" cy="810" r="8" class="c0"/>
<circle cx="946" cy="936" r="8" class="c0"/>
<circle cx="976" cy="878" r="8" class="c0"/>
<circle cx="742" cy="1402" r="8" class="c0"/>
<circle cx="850" cy="900" r="8" class="c0"/>
<circle cx="866" cy="1344" r="8" class="c0"/>
<circle cx="1206" cy="1430" r="8" class="c0"/>
<circle cx="920" cy="856" r="8" class="c0"/>
<circle cx="944" cy="1342" r="8" class="c0"/>
<circle cx="910" cy="1096" r="8" class="c0"/>
<circle cx="1042" cy="1098" r="8" class="c0"/>
<circle cx="1216" cy="1410" r="8" class="c0"/>
<circle cx="862" cy="1258" r="8" class="c0"/>
<circle cx="902" cy="868" r="8" class="c0"/>
<circle cx="958" cy="1386" r="8" class="c0"/>
<circle cx="1246" cy="1350" r="8" class="c0"/>
<circle cx="926" cy="810" r="8" class="c0"/>
<circle cx="990" cy="1408" r="8" class="c0"/>
<circle cx="950" cy="800" r="8" class="c0"/>
<circle cx="876" cy="1110" r="8" class="c0"/>
<circle cx="884" cy="850" r="8" class="c0"/>
<circle cx="910" cy="832" r="8" class="c0"/>
<circle cx="944" cy="1246" r="8" class="c0"/>
<circle cx="894" cy="1256" r="8" class="c0"/>
<circle cx="1040" cy="906" r="8" class="c0"/>
<circle cx="976" cy="1194" r="8" class="c0"/>
<circle cx="998" cy="1278" r="8" class="c0"/>
<circle cx="1040" cy="1416" r="8" class="c0"/>
<circle cx="970" cy="1062" r="8" class="c0"/>
<circle cx="1280" cy="1378" r="8" class="c0"/>
<circle cx="628" cy="1410" r="8" class="c0"/>
<circle cx="856" cy="928" r="8" class="c0"/>
<circle cx="854" cy="1278" r="8" class="c0"/>
<circle cx="1166" cy="1380" r="8" class="c0"/>
<circle cx="1004" cy="1388" r="8" class="c0"/>
<circle cx="1044" cy="1134" r="8" class="c0"/>
<circle cx="1148" cy="1330" r="8" class="c0"/>
<circle cx="768" cy="1326" r="8" class="c0"/>
<circle cx="1180" cy="1330" r="8" class="c0"/>
<circle cx="880" cy="1018" r="8" class="c0"/>
<circle cx="732" cy="1422" r="8" class="c0"/>
<circle cx="1178" cy="1416" r="8" class="c0"/>
<circle cx="1022" cy="1296" r="8" class="c0"/>
<circle cx="940" cy="1422" r="8" class="c0"/>
<circle cx="688" cy="1336" r="8" class="c0"/>
<circle cx="868" cy="1088" r="8" class="c0"/>
<circle cx="986" cy="1376" r="8" class="c0"/>
<circle cx="856" cy="1312" r="8" class="c0"/>
<circle cx="1056" cy="1268" r="8" class="c0"/>
<circle cx="872" cy="1056" r="8" class="c0"/>
<circle cx="1050" cy="1218" r="8" class="c0"/>
<circle cx="772" cy="1348" r="8" class="c0"/>
<circle cx="1202" cy="1334" r="8" class="c0"/>
<circle cx="1030" cy="916" r="8" class="c0"/>
<circle cx="988" cy="1174" r="8" class="c0"/>
<circle cx="940" cy="956" r="8" class="c0"/>
<circle cx="992" cy="930" r="8" class="c0"/>
<circle cx="1000" cy="1140" r="8" class="c0"/>
<circle cx="750" cy="1430" r="8" class="c0"/>
<circle cx="1054" cy="1376" r="8" class="c0"/>
<circle cx="606" cy="1396" r="8" class="c0"/>
<circle cx="992" cy="1242" r="8" class="c0"/>
<circle cx="826" cy="892" r="8" class="c0"/>
<circle cx="902" cy="1056" r="8" class="c0"/>
<circle cx="840" cy="1298" r="8" class="c0"/>
<circle cx="874" cy="1280" r="8" class="c0"/>
<circle cx="666" cy="1368" r="8" class="c0"/>
<circle cx="1052" cy="1396" r="8" class="c0"/>
<circle cx="1030" cy="1182" r="8" class="c0"/>
<circle cx="1092" cy="1296" r="8" class="c0"/>
<circle cx="938" cy="1266" r="8" class="c0"/>
<circle cx="1228" cy="1424" r="8" class="c0"/>
<circle cx="1004" cy="884" r="8" class="c0"/>
<circle cx="1024" cy="834" r="8" class="c0"/>
<circle cx="1022" cy="1424" r="8" class="c0"/>
<circle cx="1056" cy="1428" r="8" class="c0"/>
<circle cx="874" cy="1364" r="8" class="c0"/>
<circle cx="1030" cy="1262" r="8" class="c0"/>
<circle cx="1030" cy="1034" r="8" class="c0"/>
<circle cx="1030" cy="876" r="8" class="c0"/>
<circle cx="870" cy="1206" r="8" class="c0"/>
<circle cx="1196" cy="1420" r="8" class="c0"/>
<circle cx="668" cy="1420" r="8" class="c0"/>
<circle cx="830" cy="910" r="8" class="c0"/>
<circle cx="1218" cy="1344" r="8" class="c0"/>
<circle cx="1022" cy="1096" r="8" class="c0"/>
<circle cx="1130" cy="1384" r="8" class="c0"/>
<circle cx="890" cy="1178" r="8" class="c0"/>
<circle cx="1074" cy="1344" r="8" class="c0"/>
<circle cx="926" cy="1308" r="8" class="c0"/>
<circle cx="956" cy="1368" r="8" class="c0"/>
<circle cx="1190" cy="1390" r="8" class="c0"/>
<circle cx="922" cy="1084" r="8" class="c0"/>
<circle cx="1182" cy="1370" r="8" class="c0"/>
<circle cx="1014" cy="824" r="8" class="c0"/>
<circle cx="1054" cy="1246" r="8" class="c0"/>
<circle cx="666" cy="1344" r="8" class="c0"/>
<circle cx="1038" cy="1156" r="8" class="c0"/>
<circle cx="1076" cy="1362" r="8" class="c0"/>
<circle cx="778" cy="1306" r="8" class="c0"/>
<circle cx="1006" cy="1416" r="8" class="c0"/>
<circle cx="992" cy="862" r="8" class="c0"/>
<circle cx="964" cy="944" r="8" class="c0"/>
<circle cx="888" cy="1070" r="8" class="c0"/>
<circle cx="890" cy="1422" r="8" class="c0"/>
<circle cx="1110" cy="1328" r="8" class="c0"/>
<circle cx="888" cy="1402" r="8" class="c0"/>
<circle cx="858" cy="1192" r="8" class="c0"/>
<circle cx="932" cy="1104" r="8" class="c0"/>
<circle cx="846" cy="964" r="8" class="c0"/>
<circle cx="1038" cy="1066" r="8" class="c0"/>
<circle cx="848" cy="834" r="8" class="c0"/>
<circle cx="886" cy="1096" r="8" class="c0"/>
<circle cx="944" cy="1044" r="8" class="c0"/>
<circle cx="1002" cy="920" r="8" class="c0"/>
<circle cx="1228" cy="1334" r="8" class="c0"/>
<circle cx="772" cy="1386" r="8" class="c0"/>
<circle cx="1020" cy="1406" r="8" class="c0"/>
<circle cx="1010" cy="1318" r="8" class="c0"/>
<circle cx="914" cy="1114" r="8" class="c0"/>
<circle cx="610" cy="1368" r="8" class="c0"/>
<circle cx="1002" cy="836" r="8" class="c0"/>
<circle cx="928" cy="1404" r="8" class="c0"/>
<circle cx="872" cy="832" r="8" class="c0"/>
<circle cx="888" cy="946" r="8" class="c0"/>
<circle cx="902" cy="1022" r="8" class="c0"/>
<circle cx="882" cy="1194" r="8" class="c0"/>
<circle cx="856" cy="1232" r="8" class="c0"/>
<circle cx="1006" cy="1170" r="8" class="c0"/>
<circle cx="934" cy="1328" r="8" class="c0"/>
<circle cx="698" cy="1426" r="8" class="c0"/>
<circle cx="892" cy="1008" r="8" class="c0"/>
<circle cx="1232" cy="1394" r="8" class="c0"/>
<circle cx="970" cy="1114" r="8" class="c0"/>
<circle cx="966" cy="1428" r="8" class="c0"/>
<circle cx="650" cy="1376" r="8" class="c0"/>
<circle cx="894" cy="884" r="8" class="c0"/>
<circle cx="1004" cy="1088" r="8" class="c0"/>
<circle cx="952" cy="1156" r="8" class="c0"/>
<circle cx="634" cy="1428" r="8" class="c0"/>
<circle cx="1170" cy="1400" r="8" class="c0"/>
<circle cx="1288" cy="1394" r="8" class="c0"/>
<circle cx="814" cy="1380" r="8" class="c0"/>
<circle cx="752" cy="1390" r="8" class="c0"/>
<circle cx="930" cy="946" r="8" class="c0"/>
<circle cx="936" cy="1184" r="8" class="c0"/>
<circle cx="1026" cy="1140" r="8" class="c0"/>
<circle cx="1142" cy="1374" r="8" class="c0"/>
<circle cx="864" cy="1296" r="8" class="c0"/>
<circle cx="968" cy="1354" r="8" class="c0"/>
<circle cx="990" cy="1218" r="8" class="c0"/>
<circle cx="1266" cy="1430" r="8" class="c0"/>
<circle cx="1284" cy="1358" r="8" class="c0"/>
<circle cx="924" cy="1230" r="8" class="c0"/>
<circle cx="890" cy="970" r="8" class="c0"/>
<circle cx="970" cy="988" r="8" class="c0"/>
<circle cx="994" cy="1428" r="8" class="c0"/>
<circle cx="1030" cy="1216" r="8" class="c0"/>
<circle cx="910" cy="1194" r="8" class="c0"/>
<circle cx="874" cy="1246" r="8" class="c0"/>
<circle cx="1264" cy="1360" r="8" class="c0"/>
<circle cx="926" cy="900" r="8" class="c0"/>
<circle cx="962" cy="1248" r="8" class="c0"/>
<circle cx="1120" cy="1394" r="8" class="c0"/>
<circle cx="942" cy="916" r="8" class="c0"/>
<circle cx="796" cy="1382" r="8" class="c0"/>
<circle cx="1004" cy="962" r="8" class="c0"/>
<circle cx="978" cy="1392" r="8" class="c0"/>
<circle cx="1014" cy="1352" r="8" class="c0"/>
<circle cx="1014" cy="1378" r="8" class="c0"/>
<circle cx="1048" cy="1342" r="8" class="c0"/>
<circle cx="858" cy="984" r="8" class="c0"/>
<circle cx="930" cy="1364" r="8" class="c0"/>
<circle cx="962" cy="1204" r="8" class="c0"/>
<circle cx="1028" cy="1012" r="8" class="c0"/>
<circle cx="636" cy="1364" r="8" class="c0"/>
<circle cx="704" cy="1344" r="8" class="c0"/>
<circle cx="922" cy="1254" r="8" class="c0"/>
<circle cx="932" cy="972" r="8" class="c0"/>
<circle cx="828" cy="1370" r="8" class="c0"/>
<circle cx="1004" cy="1042" r="8" class="c0"/>
<circle cx="906" cy="1400" r="8" class="c0"/>
<circle cx="898" cy="1086" r="8" class="c0"/>
<circle cx="612" cy="1428" r="8" class="c0"/>
<circle cx="860" cy="1374" r="8" class="c0"/>
<circle cx="716" cy="1322" r="8" class="c0"/>
<circle cx="912" cy="1072" r="8" class="c0"/>
<circle cx="1058" cy="1354" r="8" class="c0"/>
<circle cx="912" cy="798" r="8" class="c0"/>
<circle cx="802" cy="1344" r="8" class="c0"/>
<circle cx="680" cy="1406" r="8" class="c0"/>
<circle cx="998" cy="1298" r="8" class="c0"/>
<circle cx="1114" cy="1372" r="8" class="c0"/>
<circle cx="1028" cy="1076" r="8" class="c0"/>
<circle cx="944" cy="1286" r="8" class="c0"/>
<circle cx="956" cy="926" r="8" class="c0"/>
<circle cx="1040" cy="1200" r="8" class="c0"/>
<circle cx="978" cy="958" r="8" class="c0"/>
<circle cx="982" cy="940" r="8" class="c0"/>
<circle cx="1010" cy="1130" r="8" class="c0"/>
<circle cx="568" cy="1426" r="8" class="c0"/>
<circle cx="904" cy="1366" r="8" class="c0"/>
<circle cx="656" cy="1430" r="8" class="c0"/>
<circle cx="1152" cy="1302" r="6" class="c0"/>
<circle cx="862" cy="890" r="6" class="c0"/>
<circle cx="828" cy="1348" r="6" class="c0"/>
<circle cx="930" cy="872" r="6" class="c0"/>
<circle cx="1242" cy="1412" r="6" class="c0"/>
<circle cx="1026" cy="1054" r="6" class="c0"/>
<circle cx="844" cy="948" r="6" class="c0"/>
<circle cx="1074" cy="1290" r="6" class="c0"/>
<circle cx="902" cy="918" r="6" class="c0"/>
<circle cx="1214" cy="1324" r="6" class="c0"/>
<circle cx="936" cy="1152" r="6" class="c0"/>
<circle cx="700" cy="1324" r="6" class="c0"/>
<circle cx="980" cy="1090" r="6" class="c0"/>
<circle cx="1050" cy="1190" r="6" class="c0"/>
<circle cx="914" cy="976" r="6" class="c0"/>
<circle cx="902" cy="1142" r="6" class="c0"/>
<circle cx="892" cy="1330" r="6" class="c0"/>
<circle cx="644" cy="1418" r="6" class="c0"/>
<circle cx="928" cy="1012" r="6" class="c0"/>
<circle cx="1016" cy="1280" r="6" class="c0"/>
<circle cx="958" cy="1332" r="6" class="c0"/>
<circle cx="900" cy="852" r="6" class="c0"/>
<circle cx="740" cy="1356" r="6" class="c0"/>
<circle cx="952" cy="990" r="6" class="c0"/>
<circle cx="968" cy="1078" r="6" class="c0"/>
<circle cx="954" cy="1274" r="6" class="c0"/>
<circle cx="698" cy="1400" r="6" class="c0"/>
<circle cx="1246" cy="1428" r="6" class="c0"/>
<circle cx="942" cy="886" r="6" class="c0"/>
<circle cx="892" cy="836" r="6" class="c0"/>
<circle cx="990" cy="1052" r="6" class="c0"/>
<circle cx="918" cy="1382" r="6" class="c0"/>
<circle cx="1126" cy="1332" r="6" class="c0"/>
<circle cx="870" cy="1224" r="6" class="c0"/>
<circle cx="960" cy="1040" r="6" class="c0"/>
<circle cx="1042" cy="888" r="6" class="c0"/>
<circle cx="980" cy="1126" r="6" class="c0"/>
<circle cx="932" cy="792" r="6" class="c0"/>
<circle cx="1196" cy="1318" r="6" class="c0"/>
<circle cx="884" cy="1270" r="6" class="c0"/>
<circle cx="904" cy="1040" r="6" class="c0"/>
<circle cx="1042" cy="1046" r="6" class="c0"/>
<circle cx="664" cy="1390" r="6" class="c0"/>
<circle cx="964" cy="1318" r="6" class="c0"/>
<circle cx="1186" cy="1430" r="6" class="c0"/>
<circle cx="944" cy="816" r="6" class="c0"/>
<circle cx="790" cy="1296" r="6" class="c0"/>
<circle cx="1020" cy="1194" r="6" class="c0"/>
<circle cx="900" cy="936" r="6" class="c0"/>
<circle cx="958" cy="880" r="6" class="c0"/>
<circle cx="1106" cy="1304" r="6" class="c0"/>
<circle cx="1032" cy="1306" r="6" class="c0"/>
<circle cx="886" cy="1156" r="6" class="c0"/>
<circle cx="996" cy="1156" r="6" class="c0"/>
<circle cx="864" cy="908" r="6" class="c0"/>
<circle cx="1188" cy="1406" r="6" class="c0"/>
<circle cx="974" cy="1410" r="6" class="c0"/>
<circle cx="1028" cy="1166" r="6" class="c0"/>
<circle cx="1058" cy="1412" r="6" class="c0"/>
<circle cx="1096" cy="1338" r="6" class="c0"/>
<circle cx="962" cy="1138" r="6" class="c0"/>
<circle cx="926" cy="1288" r="6" class="c0"/>
<circle cx="864" cy="848" r="6" class="c0"/>
<circle cx="864" cy="1122" r="6" class="c0"/>
<circle cx="1098" cy="1374" r="6" class="c0"/>
<circle cx="726" cy="1400" r="6" class="c0"/>
<circle cx="950" cy="1230" r="6" class="c0"/>
<circle cx="1030" cy="938" r="6" class="c0"/>
<circle cx="1044" cy="1082" r="6" class="c0"/>
<circle cx="974" cy="860" r="6" class="c0"/>
<circle cx="1032" cy="854" r="6" class="c0"/>
<circle cx="986" cy="1288" r="6" class="c0"/>
<circle cx="808" cy="1326" r="6" class="c0"/>
<circle cx="914" cy="1220" r="6" class="c0"/>
<circle cx="944" cy="1170" r="6" class="c0"/>
<circle cx="950" cy="838" r="6" class="c0"/>
<circle cx="1114" cy="1344" r="6" class="c0"/>
<circle cx="880" cy="804" r="6" class="c0"/>
<circle cx="1116" cy="1296" r="6" class="c0"/>
<circle cx="682" cy="1430" r="6" class="c0"/>
<circle cx="586" cy="1430" r="6" class="c0"/>
<circle cx="988" cy="846" r="6" class="c0"/>
<circle cx="710" cy="1392" r="6" class="c0"/>
<circle cx="900" cy="1432" r="6" class="c0"/>
<circle cx="1018" cy="926" r="6" class="c0"/>
<circle cx="1036" cy="1432" r="6" class="c0"/>
<circle cx="1342" cy="1416" r="6" class="c0"/>
<circle cx="794" cy="1312" r="6" class="c0"/>
<circle cx="580" cy="1394" r="6" class="c0"/>
<circle cx="1048" cy="1118" r="6" class="c0"/>
<circle cx="1012" cy="1240" r="6" class="c0"/>
<circle cx="856" cy="1214" r="6" class="c0"/>
<circle cx="840" cy="1316" r="6" class="c0"/>
<circle cx="950" cy="1322" r="6" class="c0"/>
<circle cx="902" cy="1338" r="6" class="c0"/>
<circle cx="1132" cy="1406" r="6" class="c0"/>
<circle cx="576" cy="1410" r="6" class="c0"/>
<circle cx="1172" cy="1432" r="6" class="c0"/>
<circle cx="854" cy="1414" r="6" class="c0"/>
<circle cx="1052" cy="1148" r="6" class="c0"/>
<circle cx="1200" cy="1400" r="6" class="c0"/>
<circle cx="1306" cy="1430" r="6" class="c0"/>
<circle cx="714" cy="1428" r="6" class="c0"/>
<circle cx="830" cy="1288" r="6" class="c0"/>
<circle cx="946" cy="1194" r="6" class="c0"/>
<circle cx="926" cy="1196" r="6" class="c0"/>
<circle cx="1012" cy="910" r="6" class="c0"/>
<circle cx="946" cy="1358" r="6" class="c0"/>
<circle cx="830" cy="864" r="6" class="c0"/>
<circle cx="876" cy="1334" r="6" class="c0"/>
<circle cx="1148" cy="1348" r="6" class="c0"/>
<circle cx="1188" cy="1344" r="6" class="c0"/>
<circle cx="1142" cy="1414" r="6" class="c0"/>
<circle cx="934" cy="848" r="6" class="c0"/>
<circle cx="1262" cy="1344" r="6" class="c0"/>
<circle cx="1058" cy="1200" r="6" class="c0"/>
<circle cx="1070" cy="1308" r="6" class="c0"/>
<circle cx="938" cy="1028" r="6" class="c0"/>
<circle cx="870" cy="1072" r="6" class="c0"/>
<circle cx="978" cy="1250" r="6" class="c0"/>
<circle cx="752" cy="1414" r="6" class="c0"/>
<circle cx="974" cy="894" r="6" class="c0"/>
<circle cx="966" cy="868" r="6" class="c0"/>
<circle cx="992" cy="950" r="6" class="c0"/>
<circle cx="950" cy="1432" r="6" class="c0"/>
<circle cx="1338" cy="1432" r="6" class="c0"/>
<circle cx="726" cy="1312" r="6" class="c0"/>
<circle cx="846" cy="918" r="6" class="c0"/>
<circle cx="786" cy="1400" r="6" class="c0"/>
<circle cx="954" cy="1054" r="6" class="c0"/>
<circle cx="1064" cy="1282" r="6" class="c0"/>
<circle cx="1008" cy="1288" r="6" class="c0"/>
<circle cx="960" cy="998" r="6" class="c0"/>
<circle cx="934" cy="1064" r="6" class="c0"/>
<circle cx="804" cy="1292" r="6" class="c0"/>
<circle cx="1138" cy="1428" r="6" class="c0"/>
<circle cx="972" cy="1172" r="6" class="c0"/>
<circle cx="962" cy="1266" r="6" class="c0"/>
<circle cx="900" cy="1106" r="6" class="c0"/>
<circle cx="1212" cy="1368" r="6" class="c0"/>
</svg>
