<?xml version="1.0" encoding="utf-8"?>
<svg xmlns="http://www.w3.org/2000/svg"
     xmlns:xlink="http://www.w3.org/1999/xlink" width="1920" height="1440" >

            <defs>
            <style type="text/css"><![CDATA[
circle {stroke: none;}
.c0 {fill: #FFFFFF;}
]]></style>
            </defs>
<rect x="0" y="0" width="1920" height="1440" fill="black"/>
<circle cx="1014" cy="624" r="12" class="c0"/>
<circle cx="1096" cy="588" r="12" class="c0"/>
<circle cx="994" cy="434" r="12" class="c0"/>
<circle cx="706" cy="664" r="12" class="c0"/>
<circle cx="988" cy="402" r="12" class="c0"/>
<circle cx="972" cy="652" r="12" class="c0"/>
<circle cx="898" cy="408" r="12" class="c0"/>
<circle cx="1362" cy="724" r="12" class="c0"/>
<circle cx="1312" cy="690" r="12" class="c0"/>
<circle cx="922" cy="522" r="12" class="c0"/>
<circle cx="1260" cy="654" r="12" class="c0"/>
<circle cx="1026" cy="484" r="12" class="c0"/>
<circle cx="1418" cy="690" r="12" class="c0"/>
<circle cx="1004" cy="544" r="12" class="c0"/>
<circle cx="1408" cy="722" r="12" class="c0"/>
<circle cx="1036" cy="718" r="12" class="c0"/>
<circle cx="1060" cy="640" r="12" class="c0"/>
<circle cx="1278" cy="694" r="12" class="c0"/>
<circle cx="884" cy="388" r="12" class="c0"/>
<circle cx="1312" cy="640" r="12" class="c0"/>
<circle cx="1350" cy="676" r="12" class="c0"/>
<circle cx="916" cy="690" r="12" class="c0"/>
<circle cx="1064" cy="442" r="10" class="c0"/>
<circle cx="1380" cy="660" r="10" class="c0"/>
<circle cx="978" cy="542" r="10" class="c0"/>
<circle cx="1308" cy="716" r="10" class="c0"/>
<circle cx="1184" cy="664" r="10" class="c0"/>
<circle cx="946" cy="560" r="10" class="c0"/>
<circle cx="1232" cy="682" r="10" class="c0"/>
<circle cx="570" cy="646" r="10" class="c0"/>
<circle cx="996" cy="670" r="10" class="c0"/>
<circle cx="1132" cy="668" r="10" class="c0"/>
<circle cx="992" cy="352" r="10" class="c0"/>
<circle cx="948" cy="410" r="10" class="c0"/>
<circle cx="848" cy="382" r="10" class="c0"/>
<circle cx="1058" cy="686" r="10" class="c0"/>
<circle cx="1116" cy="650" r="10" class="c0"/>
<circle cx="1016" cy="458" r="10" class="c0"/>
<circle cx="1362" cy="638" r="10" class="c0"/>
<circle cx="1076" cy="700" r="10" class="c0"/>
<circle cx="972" cy="416" r="10" class="c0"/>
<circle cx="966" cy="382" r="10" class="c0"/>
<circle cx="984" cy="612" r="10" class="c0"/>
<circle cx="926" cy="392" r="10" class="c0"/>
<circle cx="862" cy="672" r="10" class="c0"/>
<circle cx="1336" cy="648" r="10" class="c0"/>
<circle cx="954" cy="432" r="10" class="c0"/>
<circle cx="652" cy="664" r="10" class="c0"/>
<circle cx="1050" cy="566" r="10" class="c0"/>
<circle cx="1058" cy="608" r="10" class="c0"/>
<circle cx="948" cy="538" r="10" class="c0"/>
<circle cx="946" cy="712" r="10" class="c0"/>
<circle cx="622" cy="676" r="10" class="c0"/>
<circle cx="992" cy="632" r="10" class="c0"/>
<circle cx="1016" cy="420" r="10" class="c0"/>
<circle cx="1006" cy="646" r="10" class="c0"/>
<circle cx="1158" cy="694" r="10" class="c0"/>
<circle cx="1060" cy="738" r="10" class="c0"/>
<circle cx="1070" cy="492" r="10" class="c0"/>
<circle cx="1242" cy="702" r="10" class="c0"/>
<circle cx="1224" cy="726" r="10" class="c0"/>
<circle cx="1250" cy="726" r="10" class="c0"/>
<circle cx="924" cy="662" r="10" class="c0"/>
<circle cx="1174" cy="724" r="10" class="c0"/>
<circle cx="864" cy="350" r="10" class="c0"/>
<circle cx="814" cy="674" r="10" class="c0"/>
<circle cx="1334" cy="714" r="10" class="c0"/>
<circle cx="1042" cy="446" r="10" class="c0"/>
<circle cx="1202" cy="712" r="10" class="c0"/>
<circle cx="1228" cy="644" r="10" class="c0"/>
<circle cx="962" cy="352" r="10" class="c0"/>
<circle cx="886" cy="672" r="10" class="c0"/>
<circle cx="1322" cy="668" r="10" class="c0"/>
<circle cx="744" cy="680" r="10" class="c0"/>
<circle cx="1002" cy="470" r="10" class="c0"/>
<circle cx="1136" cy="638" r="10" class="c0"/>
<circle cx="1006" cy="600" r="10" class="c0"/>
<circle cx="670" cy="674" r="10" class="c0"/>
<circle cx="994" cy="506" r="10" class="c0"/>
<circle cx="908" cy="496" r="10" class="c0"/>
<circle cx="944" cy="450" r="10" class="c0"/>
<circle cx="1016" cy="344" r="10" class="c0"/>
<circle cx="1246" cy="668" r="8" class="c0"/>
<circle cx="1268" cy="632" r="8" class="c0"/>
<circle cx="1018" cy="676" r="8" class="c0"/>
<circle cx="768" cy="670" r="8" class="c0"/>
<circle cx="1070" cy="582" r="8" class="c0"/>
<circle cx="916" cy="424" r="8" class="c0"/>
<circle cx="868" cy="400" r="8" class="c0"/>
<circle cx="1100" cy="622" r="8" class="c0"/>
<circle cx="1050" cy="482" r="8" class="c0"/>
<circle cx="1286" cy="720" r="8" class="c0"/>
<circle cx="596" cy="656" r="8" class="c0"/>
<circle cx="986" cy="704" r="8" class="c0"/>
<circle cx="944" cy="378" r="8" class="c0"/>
<circle cx="1028" cy="642" r="8" class="c0"/>
<circle cx="918" cy="596" r="8" class="c0"/>
<circle cx="1092" cy="660" r="8" class="c0"/>
<circle cx="1316" cy="750" r="8" class="c0"/>
<circle cx="712" cy="688" r="8" class="c0"/>
<circle cx="1094" cy="460" r="8" class="c0"/>
<circle cx="1072" cy="462" r="8" class="c0"/>
<circle cx="1076" cy="626" r="8" class="c0"/>
<circle cx="1208" cy="658" r="8" class="c0"/>
<circle cx="1038" cy="614" r="8" class="c0"/>
<circle cx="1190" cy="596" r="8" class="c0"/>
<circle cx="1028" cy="690" r="8" class="c0"/>
<circle cx="1324" cy="624" r="8" class="c0"/>
<circle cx="1168" cy="636" r="8" class="c0"/>
<circle cx="1046" cy="358" r="8" class="c0"/>
<circle cx="1274" cy="738" r="8" class="c0"/>
<circle cx="1288" cy="658" r="8" class="c0"/>
<circle cx="1320" cy="732" r="8" class="c0"/>
<circle cx="620" cy="652" r="8" class="c0"/>
<circle cx="1038" cy="748" r="8" class="c0"/>
<circle cx="940" cy="678" r="8" class="c0"/>
<circle cx="1078" cy="764" r="8" class="c0"/>
<circle cx="1096" cy="482" r="8" class="c0"/>
<circle cx="1126" cy="596" r="8" class="c0"/>
<circle cx="938" cy="348" r="8" class="c0"/>
<circle cx="980" cy="464" r="8" class="c0"/>
<circle cx="1378" cy="684" r="8" class="c0"/>
<circle cx="1106" cy="676" r="8" class="c0"/>
<circle cx="1074" cy="532" r="8" class="c0"/>
<circle cx="972" cy="562" r="8" class="c0"/>
<circle cx="976" cy="680" r="8" class="c0"/>
<circle cx="1068" cy="660" r="8" class="c0"/>
<circle cx="1082" cy="548" r="8" class="c0"/>
<circle cx="1170" cy="608" r="8" class="c0"/>
<circle cx="992" cy="486" r="8" class="c0"/>
<circle cx="1158" cy="652" r="8" class="c0"/>
<circle cx="1040" cy="656" r="8" class="c0"/>
<circle cx="1196" cy="690" r="8" class="c0"/>
<circle cx="1030" cy="580" r="8" class="c0"/>
<circle cx="1370" cy="746" r="8" class="c0"/>
<circle cx="1040" cy="506" r="8" class="c0"/>
<circle cx="762" cy="708" r="8" class="c0"/>
<circle cx="730" cy="664" r="8" class="c0"/>
<circle cx="1374" cy="708" r="8" class="c0"/>
<circle cx="1172" cy="680" r="8" class="c0"/>
<circle cx="1122" cy="698" r="8" class="c0"/>
<circle cx="886" cy="484" r="8" class="c0"/>
<circle cx="898" cy="374" r="8" class="c0"/>
<circle cx="1286" cy="628" r="8" class="c0"/>
<circle cx="1390" cy="698" r="8" class="c0"/>
<circle cx="904" cy="622" r="8" class="c0"/>
<circle cx="792" cy="666" r="8" class="c0"/>
<circle cx="834" cy="672" r="8" class="c0"/>
<circle cx="1144" cy="602" r="8" class="c0"/>
<circle cx="676" cy="654" r="8" class="c0"/>
<circle cx="1348" cy="756" r="8" class="c0"/>
<circle cx="960" cy="668" r="8" class="c0"/>
<circle cx="982" cy="580" r="8" class="c0"/>
<circle cx="1338" cy="746" r="8" class="c0"/>
<circle cx="964" cy="488" r="8" class="c0"/>
<circle cx="1014" cy="520" r="8" class="c0"/>
<circle cx="1040" cy="422" r="8" class="c0"/>
<circle cx="1064" cy="542" r="8" class="c0"/>
<circle cx="954" cy="332" r="8" class="c0"/>
<circle cx="1384" cy="726" r="8" class="c0"/>
<circle cx="916" cy="366" r="8" class="c0"/>
<circle cx="1344" cy="628" r="8" class="c0"/>
<circle cx="874" cy="370" r="8" class="c0"/>
<circle cx="976" cy="516" r="8" class="c0"/>
<circle cx="934" cy="584" r="8" class="c0"/>
<circle cx="996" cy="568" r="8" class="c0"/>
<circle cx="1080" cy="740" r="8" class="c0"/>
<circle cx="918" cy="546" r="8" class="c0"/>
<circle cx="986" cy="330" r="8" class="c0"/>
<circle cx="1006" cy="704" r="8" class="c0"/>
<circle cx="1206" cy="676" r="8" class="c0"/>
<circle cx="1352" cy="704" r="8" class="c0"/>
<circle cx="964" cy="694" r="8" class="c0"/>
<circle cx="822" cy="378" r="8" class="c0"/>
<circle cx="846" cy="360" r="8" class="c0"/>
<circle cx="938" cy="510" r="8" class="c0"/>
<circle cx="1428" cy="710" r="8" class="c0"/>
<circle cx="1404" cy="672" r="8" class="c0"/>
<circle cx="904" cy="658" r="8" class="c0"/>
<circle cx="1024" cy="554" r="8" class="c0"/>
<circle cx="730" cy="696" r="8" class="c0"/>
<circle cx="976" cy="444" r="8" class="c0"/>
<circle cx="1104" cy="702" r="8" class="c0"/>
<circle cx="1292" cy="740" r="8" class="c0"/>
<circle cx="1138" cy="706" r="8" class="c0"/>
<circle cx="986" cy="380" r="8" class="c0"/>
<circle cx="1152" cy="674" r="8" class="c0"/>
<circle cx="754" cy="660" r="8" class="c0"/>
<circle cx="922" cy="450" r="8" class="c0"/>
<circle cx="1248" cy="638" r="8" class="c0"/>
<circle cx="960" cy="470" r="8" class="c0"/>
<circle cx="1088" cy="688" r="8" class="c0"/>
<circle cx="832" cy="342" r="8" class="c0"/>
<circle cx="888" cy="462" r="8" class="c0"/>
<circle cx="692" cy="680" r="8" class="c0"/>
<circle cx="1040" cy="596" r="8" class="c0"/>
<circle cx="1084" cy="608" r="8" class="c0"/>
<circle cx="1262" cy="706" r="8" class="c0"/>
<circle cx="954" cy="642" r="8" class="c0"/>
<circle cx="892" cy="642" r="8" class="c0"/>
<circle cx="640" cy="652" r="8" class="c0"/>
<circle cx="1008" cy="494" r="8" class="c0"/>
<circle cx="1202" cy="640" r="8" class="c0"/>
<circle cx="1090" cy="566" r="8" class="c0"/>
<circle cx="926" cy="564" r="8" class="c0"/>
<circle cx="1254" cy="688" r="8" class="c0"/>
<circle cx="1180" cy="702" r="8" class="c0"/>
<circle cx="976" cy="364" r="8" class="c0"/>
<circle cx="902" cy="472" r="8" class="c0"/>
<circle cx="1390" cy="744" r="8" class="c0"/>
<circle cx="1040" cy="470" r="8" class="c0"/>
<circle cx="1014" cy="566" r="8" class="c0"/>
<circle cx="1218" cy="702" r="8" class="c0"/>
<circle cx="972" cy="628" r="8" class="c0"/>
<circle cx="1024" cy="438" r="8" class="c0"/>
<circle cx="962" cy="506" r="8" class="c0"/>
<circle cx="1056" cy="710" r="8" class="c0"/>
<circle cx="882" cy="652" r="8" class="c0"/>
<circle cx="996" cy="694" r="8" class="c0"/>
<circle cx="1114" cy="478" r="8" class="c0"/>
<circle cx="1086" cy="638" r="8" class="c0"/>
<circle cx="1038" cy="676" r="8" class="c0"/>
<circle cx="550" cy="648" r="8" class="c0"/>
<circle cx="924" cy="718" r="8" class="c0"/>
<circle cx="1040" cy="632" r="8" class="c0"/>
<circle cx="1048" cy="762" r="8" class="c0"/>
<circle cx="874" cy="474" r="8" class="c0"/>
<circle cx="932" cy="436" r="8" class="c0"/>
<circle cx="1070" cy="560" r="8" class="c0"/>
<circle cx="1290" cy="676" r="8" class="c0"/>
<circle cx="1072" cy="724" r="8" class="c0"/>
<circle cx="944" cy="654" r="8" class="c0"/>
<circle cx="1432" cy="730" r="8" class="c0"/>
<circle cx="1116" cy="630" r="6" class="c0"/>
<circle cx="1334" cy="686" r="6" class="c0"/>
<circle cx="1050" cy="666" r="6" class="c0"/>
<circle cx="1118" cy="462" r="6" class="c0"/>
<circle cx="1296" cy="702" r="6" class="c0"/>
<circle cx="1354" cy="656" r="6" class="c0"/>
<circle cx="938" cy="696" r="6" class="c0"/>
<circle cx="1072" cy="676" r="6" class="c0"/>
<circle cx="896" cy="686" r="6" class="c0"/>
<circle cx="978" cy="498" r="6" class="c0"/>
<circle cx="992" cy="526" r="6" class="c0"/>
<circle cx="1368" cy="762" r="6" class="c0"/>
<circle cx="952" cy="520" r="6" class="c0"/>
<circle cx="992" cy="590" r="6" class="c0"/>
<circle cx="1016" cy="714" r="6" class="c0"/>
<circle cx="976" cy="340" r="6" class="c0"/>
<circle cx="1272" cy="674" r="6" class="c0"/>
<circle cx="1134" cy="688" r="6" class="c0"/>
<circle cx="778" cy="710" r="6" class="c0"/>
<circle cx="908" cy="606" r="6" class="c0"/>
<circle cx="1062" cy="472" r="6" class="c0"/>
<circle cx="964" cy="400" r="6" class="c0"/>
<circle cx="974" cy="714" r="6" class="c0"/>
<circle cx="1192" cy="730" r="6" class="c0"/>
<circle cx="1182" cy="644" r="6" class="c0"/>
<circle cx="1016" cy="660" r="6" class="c0"/>
<circle cx="722" cy="678" r="6" class="c0"/>
<circle cx="606" cy="644" r="6" class="c0"/>
<circle cx="1362" cy="690" r="6" class="c0"/>
<circle cx="1360" cy="620" r="6" class="c0"/>
<circle cx="1054" cy="588" r="6" class="c0"/>
<circle cx="1328" cy="764" r="6" class="c0"/>
<circle cx="1426" cy="672" r="6" class="c0"/>
<circle cx="1060" cy="512" r="6" class="c0"/>
<circle cx="1008" cy="582" r="6" class="c0"/>
<circle cx="948" cy="482" r="6" class="c0"/>
<circle cx="872" cy="686" r="6" class="c0"/>
<circle cx="1380" cy="640" r="6" class="c0"/>
<circle cx="1156" cy="592" r="6" class="c0"/>
<circle cx="1304" cy="622" r="6" class="c0"/>
<circle cx="932" cy="364" r="6" class="c0"/>
<circle cx="832" cy="390" r="6" class="c0"/>
<circle cx="910" cy="710" r="6" class="c0"/>
<circle cx="934" cy="420" r="6" class="c0"/>
<circle cx="948" cy="498" r="6" class="c0"/>
<circle cx="1222" cy="666" r="6" class="c0"/>
<circle cx="936" cy="332" r="6" class="c0"/>
<circle cx="1240" cy="740" r="6" class="c0"/>
<circle cx="1056" cy="424" r="6" class="c0"/>
<circle cx="962" cy="550" r="6" class="c0"/>
<circle cx="1022" cy="536" r="6" class="c0"/>
<circle cx="966" cy="454" r="6" class="c0"/>
<circle cx="992" cy="454" r="6" class="c0"/>
<circle cx="1194" cy="614" r="6" class="c0"/>
<circle cx="1090" cy="528" r="6" class="c0"/>
<circle cx="1304" cy="662" r="6" class="c0"/>
<circle cx="906" cy="674" r="6" class="c0"/>
<circle cx="1054" cy="460" r="6" class="c0"/>
<circle cx="640" cy="678" r="6" class="c0"/>
<circle cx="1080" cy="476" r="6" class="c0"/>
<circle cx="1024" cy="510" r="6" class="c0"/>
<circle cx="1102" cy="640" r="6" class="c0"/>
<circle cx="1044" cy="698" r="6" class="c0"/>
<circle cx="1278" cy="644" r="6" class="c0"/>
<circle cx="954" cy="368" r="6" class="c0"/>
<circle cx="912" cy="440" r="6" class="c0"/>
<circle cx="998" cy="370" r="6" class="c0"/>
<circle cx="1036" cy="348" r="6" class="c0"/>
<circle cx="1004" cy="332" r="6" class="c0"/>
<circle cx="1342" cy="694" r="6" class="c0"/>
<circle cx="878" cy="414" r="6" class="c0"/>
<circle cx="748" cy="700" r="6" class="c0"/>
<circle cx="1074" cy="598" r="6" class="c0"/>
<circle cx="1156" cy="718" r="6" class="c0"/>
<circle cx="1038" cy="774" r="6" class="c0"/>
<circle cx="1258" cy="742" r="6" class="c0"/>
<circle cx="1026" cy="358" r="6" class="c0"/>
<circle cx="920" cy="346" r="6" class="c0"/>
<circle cx="1024" cy="602" r="6" class="c0"/>
<circle cx="964" cy="530" r="6" class="c0"/>
<circle cx="924" cy="410" r="6" class="c0"/>
<circle cx="846" cy="400" r="6" class="c0"/>
<circle cx="1394" cy="682" r="6" class="c0"/>
<circle cx="1062" cy="366" r="6" class="c0"/>
<circle cx="910" cy="384" r="6" class="c0"/>
<circle cx="1206" cy="732" r="6" class="c0"/>
<circle cx="1398" cy="656" r="6" class="c0"/>
<circle cx="1068" cy="754" r="6" class="c0"/>
<circle cx="970" cy="328" r="6" class="c0"/>
<circle cx="848" cy="340" r="6" class="c0"/>
<circle cx="1270" cy="722" r="6" class="c0"/>
<circle cx="1342" cy="730" r="6" class="c0"/>
<circle cx="580" cy="660" r="6" class="c0"/>
<circle cx="1438" cy="678" r="6" class="c0"/>
<circle cx="610" cy="664" r="6" class="c0"/>
<circle cx="1110" cy="600" r="6" class="c0"/>
<circle cx="1082" cy="450" r="6" class="c0"/>
<circle cx="920" cy="612" r="6" class="c0"/>
<circle cx="1374" cy="626" r="6" class="c0"/>
<circle cx="588" cy="642" r="6" class="c0"/>
<circle cx="1216" cy="632" r="6" class="c0"/>
<circle cx="952" cy="392" r="6" class="c0"/>
<circle cx="1028" cy="666" r="6" class="c0"/>
<circle cx="934" cy="548" r="6" class="c0"/>
<circle cx="846" cy="682" r="6" class="c0"/>
<circle cx="692" cy="652" r="6" class="c0"/>
</svg>
