<?xml version="1.0" encoding="utf-8"?>
<svg xmlns="http://www.w3.org/2000/svg"
     xmlns:xlink="http://www.w3.org/1999/xlink" width="1920" height="1440" >

            <defs>
            <style type="text/css"><![CDATA[
circle {stroke: none;}
.c0 {fill: #FFFFFF;}
]]></style>
            </defs>
<rect x="0" y="0" width="1920" height="1440" fill="black"/>
<circle cx="1022" cy="926" r="14" class="c0"/>
<circle cx="978" cy="1012" r="12" class="c0"/>
<circle cx="1012" cy="868" r="12" class="c0"/>
<circle cx="938" cy="902" r="12" class="c0"/>
<circle cx="1024" cy="1280" r="12" class="c0"/>
<circle cx="1082" cy="1272" r="12" class="c0"/>
<circle cx="980" cy="1038" r="12" class="c0"/>
<circle cx="982" cy="1212" r="12" class="c0"/>
<circle cx="1064" cy="1240" r="12" class="c0"/>
<circle cx="884" cy="1220" r="12" class="c0"/>
<circle cx="906" cy="1266" r="12" class="c0"/>
<circle cx="998" cy="1104" r="12" class="c0"/>
<circle cx="924" cy="1064" r="12" class="c0"/>
<circle cx="978" cy="802" r="12" class="c0"/>
<circle cx="964" cy="996" r="12" class="c0"/>
<circle cx="868" cy="1090" r="12" class="c0"/>
<circle cx="982" cy="1264" r="12" class="c0"/>
<circle cx="1078" cy="1210" r="12" class="c0"/>
<circle cx="892" cy="958" r="12" class="c0"/>
<circle cx="908" cy="1292" r="12" class="c0"/>
<circle cx="1002" cy="828" r="12" class="c0"/>
<circle cx="946" cy="838" r="12" class="c0"/>
<circle cx="894" cy="854" r="12" class="c0"/>
<circle cx="844" cy="1334" r="12" class="c0"/>
<circle cx="1030" cy="1182" r="12" class="c0"/>
<circle cx="1034" cy="1084" r="12" class="c0"/>
<circle cx="972" cy="1148" r="12" class="c0"/>
<circle cx="1026" cy="1310" r="12" class="c0"/>
<circle cx="1074" cy="1386" r="12" class="c0"/>
<circle cx="1050" cy="1410" r="12" class="c0"/>
<circle cx="956" cy="1378" r="12" class="c0"/>
<circle cx="882" cy="1248" r="12" class="c0"/>
<circle cx="890" cy="902" r="12" class="c0"/>
<circle cx="864" cy="1124" r="10" class="c0"/>
<circle cx="1004" cy="978" r="10" class="c0"/>
<circle cx="1020" cy="1342" r="10" class="c0"/>
<circle cx="902" cy="1164" r="10" class="c0"/>
<circle cx="982" cy="854" r="10" class="c0"/>
<circle cx="966" cy="1250" r="10" class="c0"/>
<circle cx="988" cy="1382" r="10" class="c0"/>
<circle cx="942" cy="1128" r="10" class="c0"/>
<circle cx="1084" cy="1422" r="10" class="c0"/>
<circle cx="846" cy="1394" r="10" class="c0"/>
<circle cx="992" cy="952" r="10" class="c0"/>
<circle cx="922" cy="1138" r="10" class="c0"/>
<circle cx="880" cy="1386" r="10" class="c0"/>
<circle cx="850" cy="1284" r="10" class="c0"/>
<circle cx="958" cy="1230" r="10" class="c0"/>
<circle cx="982" cy="1128" r="10" class="c0"/>
<circle cx="968" cy="1084" r="10" class="c0"/>
<circle cx="942" cy="1104" r="10" class="c0"/>
<circle cx="842" cy="1192" r="10" class="c0"/>
<circle cx="860" cy="1420" r="10" class="c0"/>
<circle cx="950" cy="942" r="10" class="c0"/>
<circle cx="946" cy="1286" r="10" class="c0"/>
<circle cx="958" cy="1348" r="10" class="c0"/>
<circle cx="952" cy="1316" r="10" class="c0"/>
<circle cx="854" cy="1374" r="10" class="c0"/>
<circle cx="1002" cy="1320" r="10" class="c0"/>
<circle cx="1012" cy="1050" r="10" class="c0"/>
<circle cx="1014" cy="1014" r="10" class="c0"/>
<circle cx="1044" cy="1326" r="10" class="c0"/>
<circle cx="880" cy="1292" r="10" class="c0"/>
<circle cx="864" cy="1324" r="10" class="c0"/>
<circle cx="948" cy="1202" r="10" class="c0"/>
<circle cx="914" cy="810" r="10" class="c0"/>
<circle cx="896" cy="1366" r="10" class="c0"/>
<circle cx="954" cy="1172" r="10" class="c0"/>
<circle cx="886" cy="1346" r="10" class="c0"/>
<circle cx="482" cy="1354" r="10" class="c0"/>
<circle cx="968" cy="910" r="10" class="c0"/>
<circle cx="894" cy="1034" r="10" class="c0"/>
<circle cx="822" cy="1410" r="10" class="c0"/>
<circle cx="890" cy="934" r="10" class="c0"/>
<circle cx="930" cy="872" r="10" class="c0"/>
<circle cx="1054" cy="1296" r="10" class="c0"/>
<circle cx="1010" cy="1392" r="10" class="c0"/>
<circle cx="550" cy="1312" r="10" class="c0"/>
<circle cx="926" cy="1354" r="10" class="c0"/>
<circle cx="636" cy="1268" r="10" class="c0"/>
<circle cx="870" cy="862" r="10" class="c0"/>
<circle cx="1444" cy="1360" r="10" class="c0"/>
<circle cx="918" cy="1114" r="10" class="c0"/>
<circle cx="914" cy="1382" r="10" class="c0"/>
<circle cx="1068" cy="1326" r="10" class="c0"/>
<circle cx="1040" cy="1148" r="10" class="c0"/>
<circle cx="1048" cy="1356" r="10" class="c0"/>
<circle cx="1426" cy="1300" r="10" class="c0"/>
<circle cx="986" cy="1296" r="10" class="c0"/>
<circle cx="996" cy="1070" r="10" class="c0"/>
<circle cx="966" cy="966" r="10" class="c0"/>
<circle cx="854" cy="1164" r="10" class="c0"/>
<circle cx="1044" cy="1204" r="10" class="c0"/>
<circle cx="950" cy="1020" r="10" class="c0"/>
<circle cx="898" cy="1076" r="10" class="c0"/>
<circle cx="904" cy="976" r="10" class="c0"/>
<circle cx="974" cy="938" r="10" class="c0"/>
<circle cx="872" cy="1198" r="10" class="c0"/>
<circle cx="930" cy="1158" r="10" class="c0"/>
<circle cx="1080" cy="1314" r="10" class="c0"/>
<circle cx="918" cy="1002" r="10" class="c0"/>
<circle cx="468" cy="1334" r="10" class="c0"/>
<circle cx="946" cy="1412" r="10" class="c0"/>
<circle cx="522" cy="1298" r="10" class="c0"/>
<circle cx="942" cy="980" r="10" class="c0"/>
<circle cx="916" cy="1316" r="10" class="c0"/>
<circle cx="922" cy="926" r="10" class="c0"/>
<circle cx="1026" cy="1366" r="10" class="c0"/>
<circle cx="920" cy="1088" r="10" class="c0"/>
<circle cx="428" cy="1384" r="10" class="c0"/>
<circle cx="896" cy="1012" r="10" class="c0"/>
<circle cx="1028" cy="896" r="10" class="c0"/>
<circle cx="1050" cy="1040" r="10" class="c0"/>
<circle cx="1048" cy="812" r="10" class="c0"/>
<circle cx="888" cy="824" r="10" class="c0"/>
<circle cx="1034" cy="1394" r="10" class="c0"/>
<circle cx="974" cy="1186" r="10" class="c0"/>
<circle cx="1008" cy="1418" r="10" class="c0"/>
<circle cx="924" cy="1250" r="10" class="c0"/>
<circle cx="970" cy="868" r="8" class="c0"/>
<circle cx="832" cy="1366" r="8" class="c0"/>
<circle cx="1030" cy="1108" r="8" class="c0"/>
<circle cx="992" cy="1230" r="8" class="c0"/>
<circle cx="966" cy="830" r="8" class="c0"/>
<circle cx="894" cy="992" r="8" class="c0"/>
<circle cx="972" cy="1326" r="8" class="c0"/>
<circle cx="1024" cy="1036" r="8" class="c0"/>
<circle cx="1028" cy="1220" r="8" class="c0"/>
<circle cx="900" cy="1196" r="8" class="c0"/>
<circle cx="1072" cy="1134" r="8" class="c0"/>
<circle cx="1024" cy="1136" r="8" class="c0"/>
<circle cx="1480" cy="1376" r="8" class="c0"/>
<circle cx="876" cy="1150" r="8" class="c0"/>
<circle cx="840" cy="1428" r="8" class="c0"/>
<circle cx="966" cy="1056" r="8" class="c0"/>
<circle cx="1038" cy="956" r="8" class="c0"/>
<circle cx="856" cy="1250" r="8" class="c0"/>
<circle cx="1312" cy="1272" r="8" class="c0"/>
<circle cx="850" cy="1224" r="8" class="c0"/>
<circle cx="1056" cy="1220" r="8" class="c0"/>
<circle cx="876" cy="1408" r="8" class="c0"/>
<circle cx="912" cy="1226" r="8" class="c0"/>
<circle cx="1016" cy="808" r="8" class="c0"/>
<circle cx="1006" cy="1204" r="8" class="c0"/>
<circle cx="1006" cy="1290" r="8" class="c0"/>
<circle cx="1104" cy="1428" r="8" class="c0"/>
<circle cx="882" cy="1064" r="8" class="c0"/>
<circle cx="900" cy="1102" r="8" class="c0"/>
<circle cx="864" cy="1268" r="8" class="c0"/>
<circle cx="1004" cy="1132" r="8" class="c0"/>
<circle cx="1084" cy="1172" r="8" class="c0"/>
<circle cx="942" cy="792" r="8" class="c0"/>
<circle cx="686" cy="1250" r="8" class="c0"/>
<circle cx="934" cy="816" r="8" class="c0"/>
<circle cx="848" cy="1138" r="8" class="c0"/>
<circle cx="1046" cy="916" r="8" class="c0"/>
<circle cx="1004" cy="1368" r="8" class="c0"/>
<circle cx="990" cy="928" r="8" class="c0"/>
<circle cx="886" cy="1428" r="8" class="c0"/>
<circle cx="922" cy="960" r="8" class="c0"/>
<circle cx="1052" cy="1266" r="8" class="c0"/>
<circle cx="968" cy="1404" r="8" class="c0"/>
<circle cx="920" cy="1210" r="8" class="c0"/>
<circle cx="992" cy="1346" r="8" class="c0"/>
<circle cx="860" cy="814" r="8" class="c0"/>
<circle cx="1098" cy="1404" r="8" class="c0"/>
<circle cx="936" cy="1238" r="8" class="c0"/>
<circle cx="904" cy="1402" r="8" class="c0"/>
<circle cx="890" cy="1132" r="8" class="c0"/>
<circle cx="1002" cy="1254" r="8" class="c0"/>
<circle cx="868" cy="1232" r="8" class="c0"/>
<circle cx="850" cy="1306" r="8" class="c0"/>
<circle cx="1048" cy="986" r="8" class="c0"/>
<circle cx="1052" cy="1110" r="8" class="c0"/>
<circle cx="868" cy="834" r="8" class="c0"/>
<circle cx="984" cy="1170" r="8" class="c0"/>
<circle cx="950" cy="1152" r="8" class="c0"/>
<circle cx="392" cy="1392" r="8" class="c0"/>
<circle cx="1032" cy="1002" r="8" class="c0"/>
<circle cx="826" cy="1220" r="8" class="c0"/>
<circle cx="460" cy="1376" r="8" class="c0"/>
<circle cx="1452" cy="1420" r="8" class="c0"/>
<circle cx="884" cy="1182" r="8" class="c0"/>
<circle cx="1078" cy="1344" r="8" class="c0"/>
<circle cx="896" cy="1320" r="8" class="c0"/>
<circle cx="884" cy="1112" r="8" class="c0"/>
<circle cx="500" cy="1306" r="8" class="c0"/>
<circle cx="1404" cy="1302" r="8" class="c0"/>
<circle cx="1464" cy="1362" r="8" class="c0"/>
<circle cx="872" cy="1362" r="8" class="c0"/>
<circle cx="1036" cy="834" r="8" class="c0"/>
<circle cx="1160" cy="1240" r="8" class="c0"/>
<circle cx="1074" cy="1294" r="8" class="c0"/>
<circle cx="1008" cy="1086" r="8" class="c0"/>
<circle cx="1096" cy="1220" r="8" class="c0"/>
<circle cx="566" cy="1274" r="8" class="c0"/>
<circle cx="868" cy="910" r="8" class="c0"/>
<circle cx="1034" cy="858" r="8" class="c0"/>
<circle cx="1180" cy="1248" r="8" class="c0"/>
<circle cx="1038" cy="1060" r="8" class="c0"/>
<circle cx="1026" cy="1256" r="8" class="c0"/>
<circle cx="866" cy="1176" r="8" class="c0"/>
<circle cx="926" cy="848" r="8" class="c0"/>
<circle cx="996" cy="892" r="8" class="c0"/>
<circle cx="946" cy="922" r="8" class="c0"/>
<circle cx="1040" cy="1240" r="8" class="c0"/>
<circle cx="1500" cy="1400" r="8" class="c0"/>
<circle cx="876" cy="988" r="8" class="c0"/>
<circle cx="1062" cy="1194" r="8" class="c0"/>
<circle cx="1086" cy="1230" r="8" class="c0"/>
<circle cx="482" cy="1392" r="8" class="c0"/>
<circle cx="936" cy="1430" r="8" class="c0"/>
<circle cx="910" cy="938" r="8" class="c0"/>
<circle cx="876" cy="884" r="8" class="c0"/>
<circle cx="526" cy="1332" r="8" class="c0"/>
<circle cx="490" cy="1326" r="8" class="c0"/>
<circle cx="1518" cy="1428" r="8" class="c0"/>
<circle cx="540" cy="1282" r="8" class="c0"/>
<circle cx="992" cy="1402" r="8" class="c0"/>
<circle cx="902" cy="1420" r="8" class="c0"/>
<circle cx="896" cy="880" r="8" class="c0"/>
<circle cx="934" cy="1388" r="8" class="c0"/>
<circle cx="1056" cy="1080" r="8" class="c0"/>
<circle cx="1050" cy="1012" r="8" class="c0"/>
<circle cx="846" cy="824" r="8" class="c0"/>
<circle cx="676" cy="1240" r="8" class="c0"/>
<circle cx="1000" cy="1002" r="8" class="c0"/>
<circle cx="432" cy="1362" r="8" class="c0"/>
<circle cx="914" cy="894" r="8" class="c0"/>
<circle cx="422" cy="1412" r="8" class="c0"/>
<circle cx="876" cy="806" r="8" class="c0"/>
<circle cx="830" cy="1252" r="8" class="c0"/>
<circle cx="928" cy="1034" r="8" class="c0"/>
<circle cx="450" cy="1402" r="8" class="c0"/>
<circle cx="996" cy="1152" r="8" class="c0"/>
<circle cx="944" cy="1362" r="8" class="c0"/>
<circle cx="828" cy="1348" r="8" class="c0"/>
<circle cx="914" cy="1022" r="8" class="c0"/>
<circle cx="960" cy="884" r="8" class="c0"/>
<circle cx="1014" cy="1154" r="8" class="c0"/>
<circle cx="400" cy="1360" r="8" class="c0"/>
<circle cx="1046" cy="940" r="8" class="c0"/>
<circle cx="1538" cy="1408" r="8" class="c0"/>
<circle cx="1436" cy="1316" r="8" class="c0"/>
<circle cx="1556" cy="1420" r="8" class="c0"/>
<circle cx="934" cy="1304" r="8" class="c0"/>
<circle cx="968" cy="1288" r="8" class="c0"/>
<circle cx="1470" cy="1408" r="8" class="c0"/>
<circle cx="710" cy="1238" r="8" class="c0"/>
<circle cx="876" cy="1026" r="8" class="c0"/>
<circle cx="576" cy="1288" r="8" class="c0"/>
<circle cx="1270" cy="1264" r="8" class="c0"/>
<circle cx="1194" cy="1228" r="8" class="c0"/>
<circle cx="862" cy="1060" r="8" class="c0"/>
<circle cx="1054" cy="1178" r="8" class="c0"/>
<circle cx="412" cy="1396" r="8" class="c0"/>
<circle cx="914" cy="1430" r="8" class="c0"/>
<circle cx="1144" cy="1214" r="8" class="c0"/>
<circle cx="1308" cy="1302" r="8" class="c0"/>
<circle cx="876" cy="1312" r="8" class="c0"/>
<circle cx="1368" cy="1298" r="8" class="c0"/>
<circle cx="1450" cy="1392" r="8" class="c0"/>
<circle cx="1036" cy="976" r="8" class="c0"/>
<circle cx="1024" cy="966" r="8" class="c0"/>
<circle cx="830" cy="1272" r="8" class="c0"/>
<circle cx="994" cy="1182" r="8" class="c0"/>
<circle cx="1060" cy="1150" r="8" class="c0"/>
<circle cx="1018" cy="1232" r="8" class="c0"/>
<circle cx="600" cy="1254" r="8" class="c0"/>
<circle cx="1498" cy="1428" r="8" class="c0"/>
<circle cx="1070" cy="1112" r="8" class="c0"/>
<circle cx="1040" cy="878" r="8" class="c0"/>
<circle cx="910" cy="866" r="8" class="c0"/>
<circle cx="364" cy="1406" r="8" class="c0"/>
<circle cx="464" cy="1414" r="8" class="c0"/>
<circle cx="920" cy="1190" r="8" class="c0"/>
<circle cx="1362" cy="1320" r="8" class="c0"/>
<circle cx="980" cy="1430" r="8" class="c0"/>
<circle cx="788" cy="1240" r="8" class="c0"/>
<circle cx="938" cy="1044" r="8" class="c0"/>
<circle cx="916" cy="830" r="8" class="c0"/>
<circle cx="658" cy="1250" r="8" class="c0"/>
<circle cx="688" cy="1230" r="8" class="c0"/>
<circle cx="1122" cy="1238" r="8" class="c0"/>
<circle cx="1342" cy="1270" r="8" class="c0"/>
<circle cx="1032" cy="1430" r="8" class="c0"/>
<circle cx="958" cy="1116" r="8" class="c0"/>
<circle cx="984" cy="986" r="8" class="c0"/>
<circle cx="412" cy="1430" r="8" class="c0"/>
<circle cx="1402" cy="1340" r="8" class="c0"/>
<circle cx="958" cy="858" r="8" class="c0"/>
<circle cx="930" cy="1270" r="8" class="c0"/>
<circle cx="1004" cy="1170" r="8" class="c0"/>
<circle cx="1422" cy="1346" r="8" class="c0"/>
<circle cx="1332" cy="1298" r="8" class="c0"/>
<circle cx="1040" cy="1024" r="8" class="c0"/>
<circle cx="948" cy="1086" r="6" class="c0"/>
<circle cx="1074" cy="1408" r="6" class="c0"/>
<circle cx="496" cy="1342" r="6" class="c0"/>
<circle cx="818" cy="1430" r="6" class="c0"/>
<circle cx="830" cy="1384" r="6" class="c0"/>
<circle cx="740" cy="1232" r="6" class="c0"/>
<circle cx="676" cy="1260" r="6" class="c0"/>
<circle cx="906" cy="1242" r="6" class="c0"/>
<circle cx="1010" cy="1268" r="6" class="c0"/>
<circle cx="946" cy="1062" r="6" class="c0"/>
<circle cx="938" cy="1216" r="6" class="c0"/>
<circle cx="1008" cy="904" r="6" class="c0"/>
<circle cx="998" cy="806" r="6" class="c0"/>
<circle cx="922" cy="1402" r="6" class="c0"/>
<circle cx="944" cy="1256" r="6" class="c0"/>
<circle cx="390" cy="1422" r="6" class="c0"/>
<circle cx="968" cy="1364" r="6" class="c0"/>
<circle cx="846" cy="1262" r="6" class="c0"/>
<circle cx="974" cy="1310" r="6" class="c0"/>
<circle cx="900" cy="920" r="6" class="c0"/>
<circle cx="958" cy="786" r="6" class="c0"/>
<circle cx="972" cy="1102" r="6" class="c0"/>
<circle cx="1050" cy="1384" r="6" class="c0"/>
<circle cx="1020" cy="1096" r="6" class="c0"/>
<circle cx="966" cy="1420" r="6" class="c0"/>
<circle cx="874" cy="1050" r="6" class="c0"/>
<circle cx="1048" cy="1130" r="6" class="c0"/>
<circle cx="900" cy="1120" r="6" class="c0"/>
<circle cx="1002" cy="1036" r="6" class="c0"/>
<circle cx="1048" cy="894" r="6" class="c0"/>
<circle cx="1088" cy="1248" r="6" class="c0"/>
<circle cx="980" cy="894" r="6" class="c0"/>
<circle cx="764" cy="1228" r="6" class="c0"/>
<circle cx="962" cy="814" r="6" class="c0"/>
<circle cx="1058" cy="1428" r="6" class="c0"/>
<circle cx="956" cy="1042" r="6" class="c0"/>
<circle cx="1026" cy="1412" r="6" class="c0"/>
<circle cx="922" cy="982" r="6" class="c0"/>
<circle cx="448" cy="1360" r="6" class="c0"/>
<circle cx="1022" cy="1068" r="6" class="c0"/>
<circle cx="1450" cy="1342" r="6" class="c0"/>
<circle cx="810" cy="1242" r="6" class="c0"/>
<circle cx="934" cy="1324" r="6" class="c0"/>
<circle cx="934" cy="1180" r="6" class="c0"/>
<circle cx="1482" cy="1344" r="6" class="c0"/>
<circle cx="864" cy="1344" r="6" class="c0"/>
<circle cx="1078" cy="1154" r="6" class="c0"/>
<circle cx="914" cy="1338" r="6" class="c0"/>
<circle cx="1092" cy="1192" r="6" class="c0"/>
<circle cx="1086" cy="1370" r="6" class="c0"/>
<circle cx="1488" cy="1358" r="6" class="c0"/>
<circle cx="446" cy="1330" r="6" class="c0"/>
<circle cx="1058" cy="1342" r="6" class="c0"/>
<circle cx="1040" cy="1122" r="6" class="c0"/>
<circle cx="1240" cy="1248" r="6" class="c0"/>
<circle cx="846" cy="1356" r="6" class="c0"/>
<circle cx="958" cy="1298" r="6" class="c0"/>
<circle cx="1226" cy="1256" r="6" class="c0"/>
<circle cx="1024" cy="948" r="6" class="c0"/>
<circle cx="1018" cy="994" r="6" class="c0"/>
<circle cx="904" cy="1052" r="6" class="c0"/>
<circle cx="1388" cy="1326" r="6" class="c0"/>
<circle cx="856" cy="1106" r="6" class="c0"/>
<circle cx="1352" cy="1290" r="6" class="c0"/>
<circle cx="1062" cy="924" r="6" class="c0"/>
<circle cx="1058" cy="1370" r="6" class="c0"/>
<circle cx="994" cy="1022" r="6" class="c0"/>
<circle cx="988" cy="906" r="6" class="c0"/>
<circle cx="1566" cy="1432" r="6" class="c0"/>
<circle cx="1088" cy="1354" r="6" class="c0"/>
<circle cx="914" cy="1044" r="6" class="c0"/>
<circle cx="1006" cy="848" r="6" class="c0"/>
<circle cx="940" cy="1004" r="6" class="c0"/>
<circle cx="866" cy="1036" r="6" class="c0"/>
<circle cx="1414" cy="1318" r="6" class="c0"/>
<circle cx="876" cy="1008" r="6" class="c0"/>
<circle cx="1508" cy="1370" r="6" class="c0"/>
<circle cx="932" cy="948" r="6" class="c0"/>
<circle cx="926" cy="1416" r="6" class="c0"/>
<circle cx="1020" cy="836" r="6" class="c0"/>
<circle cx="1502" cy="1352" r="6" class="c0"/>
<circle cx="1178" cy="1226" r="6" class="c0"/>
<circle cx="1068" cy="1362" r="6" class="c0"/>
<circle cx="1064" cy="1096" r="6" class="c0"/>
<circle cx="1062" cy="1276" r="6" class="c0"/>
<circle cx="1064" cy="1166" r="6" class="c0"/>
<circle cx="1442" cy="1378" r="6" class="c0"/>
<circle cx="976" cy="1236" r="6" class="c0"/>
<circle cx="804" cy="1218" r="6" class="c0"/>
<circle cx="1004" cy="938" r="6" class="c0"/>
<circle cx="874" cy="950" r="6" class="c0"/>
<circle cx="1116" cy="1222" r="6" class="c0"/>
<circle cx="1254" cy="1240" r="6" class="c0"/>
<circle cx="986" cy="882" r="6" class="c0"/>
<circle cx="422" cy="1350" r="6" class="c0"/>
<circle cx="936" cy="1078" r="6" class="c0"/>
<circle cx="886" cy="1272" r="6" class="c0"/>
<circle cx="1328" cy="1280" r="6" class="c0"/>
<circle cx="1054" cy="1062" r="6" class="c0"/>
<circle cx="610" cy="1270" r="6" class="c0"/>
<circle cx="840" cy="1210" r="6" class="c0"/>
<circle cx="900" cy="800" r="6" class="c0"/>
<circle cx="1484" cy="1396" r="6" class="c0"/>
<circle cx="988" cy="1330" r="6" class="c0"/>
<circle cx="1198" cy="1248" r="6" class="c0"/>
<circle cx="1364" cy="1278" r="6" class="c0"/>
<circle cx="976" cy="1066" r="6" class="c0"/>
<circle cx="920" cy="1172" r="6" class="c0"/>
<circle cx="948" cy="1334" r="6" class="c0"/>
<circle cx="510" cy="1338" r="6" class="c0"/>
<circle cx="838" cy="1234" r="6" class="c0"/>
<circle cx="438" cy="1426" r="6" class="c0"/>
<circle cx="900" cy="1144" r="6" class="c0"/>
<circle cx="1482" cy="1420" r="6" class="c0"/>
<circle cx="1252" cy="1254" r="6" class="c0"/>
<circle cx="1212" cy="1232" r="6" class="c0"/>
<circle cx="1390" cy="1312" r="6" class="c0"/>
<circle cx="412" cy="1372" r="6" class="c0"/>
<circle cx="838" cy="1174" r="6" class="c0"/>
<circle cx="950" cy="874" r="6" class="c0"/>
<circle cx="1090" cy="1296" r="6" class="c0"/>
<circle cx="1448" cy="1326" r="6" class="c0"/>
<circle cx="832" cy="1290" r="6" class="c0"/>
<circle cx="984" cy="1058" r="6" class="c0"/>
<circle cx="1392" cy="1282" r="6" class="c0"/>
<circle cx="1060" cy="1124" r="6" class="c0"/>
<circle cx="1058" cy="826" r="6" class="c0"/>
<circle cx="854" cy="1208" r="6" class="c0"/>
<circle cx="1008" cy="1222" r="6" class="c0"/>
<circle cx="976" cy="1350" r="6" class="c0"/>
<circle cx="484" cy="1374" r="6" class="c0"/>
<circle cx="436" cy="1346" r="6" class="c0"/>
<circle cx="926" cy="790" r="6" class="c0"/>
<circle cx="464" cy="1356" r="6" class="c0"/>
<circle cx="906" cy="1352" r="6" class="c0"/>
<circle cx="940" cy="956" r="6" class="c0"/>
<circle cx="512" cy="1324" r="6" class="c0"/>
<circle cx="1462" cy="1330" r="6" class="c0"/>
<circle cx="932" cy="1014" r="6" class="c0"/>
<circle cx="982" cy="1412" r="6" class="c0"/>
<circle cx="960" cy="1272" r="6" class="c0"/>
<circle cx="848" cy="1116" r="6" class="c0"/>
<circle cx="862" cy="1296" r="6" class="c0"/>
<circle cx="844" cy="1412" r="6" class="c0"/>
<circle cx="956" cy="1072" r="6" class="c0"/>
<circle cx="1298" cy="1282" r="6" class="c0"/>
<circle cx="1470" cy="1432" r="6" class="c0"/>
<circle cx="1014" cy="1120" r="6" class="c0"/>
<circle cx="366" cy="1424" r="6" class="c0"/>
<circle cx="1072" cy="1184" r="6" class="c0"/>
<circle cx="1424" cy="1366" r="6" class="c0"/>
<circle cx="952" cy="806" r="6" class="c0"/>
<circle cx="1508" cy="1386" r="6" class="c0"/>
<circle cx="600" cy="1284" r="6" class="c0"/>
<circle cx="1384" cy="1292" r="6" class="c0"/>
<circle cx="1000" cy="912" r="6" class="c0"/>
<circle cx="1012" cy="956" r="6" class="c0"/>
<circle cx="868" cy="932" r="6" class="c0"/>
<circle cx="782" cy="1220" r="6" class="c0"/>
<circle cx="616" cy="1252" r="6" class="c0"/>
<circle cx="900" cy="1336" r="6" class="c0"/>
<circle cx="1026" cy="820" r="6" class="c0"/>
<circle cx="958" cy="1432" r="6" class="c0"/>
<circle cx="888" cy="1092" r="6" class="c0"/>
<circle cx="590" cy="1270" r="6" class="c0"/>
<circle cx="988" cy="1086" r="6" class="c0"/>
<circle cx="1282" cy="1276" r="6" class="c0"/>
<circle cx="1094" cy="1388" r="6" class="c0"/>
<circle cx="1376" cy="1348" r="6" class="c0"/>
<circle cx="1542" cy="1432" r="6" class="c0"/>
<circle cx="836" cy="1314" r="6" class="c0"/>
<circle cx="1526" cy="1382" r="6" class="c0"/>
<circle cx="878" cy="970" r="6" class="c0"/>
<circle cx="1434" cy="1332" r="6" class="c0"/>
<circle cx="1142" cy="1238" r="6" class="c0"/>
<circle cx="898" cy="1234" r="6" class="c0"/>
<circle cx="982" cy="822" r="6" class="c0"/>
<circle cx="820" cy="1392" r="6" class="c0"/>
<circle cx="998" cy="1276" r="6" class="c0"/>
<circle cx="456" cy="1348" r="6" class="c0"/>
<circle cx="908" cy="910" r="6" class="c0"/>
<circle cx="404" cy="1382" r="6" class="c0"/>
<circle cx="894" cy="1280" r="6" class="c0"/>
<circle cx="866" cy="894" r="6" class="c0"/>
<circle cx="1466" cy="1346" r="6" class="c0"/>
<circle cx="1130" cy="1224" r="6" class="c0"/>
<circle cx="1436" cy="1408" r="6" class="c0"/>
<circle cx="1320" cy="1256" r="6" class="c0"/>
<circle cx="404" cy="1414" r="6" class="c0"/>
<circle cx="940" cy="1344" r="6" class="c0"/>
<circle cx="1056" cy="1314" r="6" class="c0"/>
<circle cx="986" cy="1362" r="6" class="c0"/>
<circle cx="1292" cy="1264" r="6" class="c0"/>
<circle cx="554" cy="1294" r="6" class="c0"/>
<circle cx="378" cy="1432" r="6" class="c0"/>
<circle cx="1022" cy="1200" r="6" class="c0"/>
<circle cx="730" cy="1248" r="6" class="c0"/>
<circle cx="532" cy="1316" r="6" class="c0"/>
<circle cx="1100" cy="1200" r="6" class="c0"/>
<circle cx="880" cy="920" r="6" class="c0"/>
<circle cx="892" cy="1304" r="6" class="c0"/>
<circle cx="1028" cy="1162" r="6" class="c0"/>
<circle cx="376" cy="1396" r="6" class="c0"/>
<circle cx="1518" cy="1394" r="6" class="c0"/>
</svg>
