<?xml version="1.0" encoding="utf-8"?>
<svg xmlns="http://www.w3.org/2000/svg"
     xmlns:xlink="http://www.w3.org/1999/xlink" width="1920" height="1440" >

            <defs>
            <style type="text/css"><![CDATA[
circle {stroke: none;}
.c0 {fill: #FFFFFF;}
]]></style>
            </defs>
<rect x="0" y="0" width="1920" height="1440" fill="black"/>
<circle cx="1020" cy="640" r="14" class="c0"/>
<circle cx="1012" cy="552" r="12" class="c0"/>
<circle cx="1082" cy="470" r="12" class="c0"/>
<circle cx="1074" cy="684" r="12" class="c0"/>
<circle cx="970" cy="386" r="12" class="c0"/>
<circle cx="1344" cy="650" r="12" class="c0"/>
<circle cx="900" cy="392" r="12" class="c0"/>
<circle cx="1320" cy="750" r="12" class="c0"/>
<circle cx="1196" cy="642" r="12" class="c0"/>
<circle cx="712" cy="666" r="12" class="c0"/>
<circle cx="1294" cy="694" r="12" class="c0"/>
<circle cx="1244" cy="660" r="12" class="c0"/>
<circle cx="1070" cy="490" r="12" class="c0"/>
<circle cx="1306" cy="722" r="12" class="c0"/>
<circle cx="1004" cy="422" r="12" class="c0"/>
<circle cx="1088" cy="536" r="10" class="c0"/>
<circle cx="1264" cy="672" r="10" class="c0"/>
<circle cx="1052" cy="758" r="10" class="c0"/>
<circle cx="1364" cy="716" r="10" class="c0"/>
<circle cx="568" cy="648" r="10" class="c0"/>
<circle cx="1420" cy="708" r="10" class="c0"/>
<circle cx="1110" cy="676" r="10" class="c0"/>
<circle cx="1144" cy="670" r="10" class="c0"/>
<circle cx="976" cy="508" r="10" class="c0"/>
<circle cx="1032" cy="600" r="10" class="c0"/>
<circle cx="1174" cy="624" r="10" class="c0"/>
<circle cx="1164" cy="650" r="10" class="c0"/>
<circle cx="862" cy="366" r="10" class="c0"/>
<circle cx="734" cy="682" r="10" class="c0"/>
<circle cx="1208" cy="720" r="10" class="c0"/>
<circle cx="1026" cy="690" r="10" class="c0"/>
<circle cx="1072" cy="640" r="10" class="c0"/>
<circle cx="846" cy="674" r="10" class="c0"/>
<circle cx="936" cy="704" r="10" class="c0"/>
<circle cx="994" cy="486" r="10" class="c0"/>
<circle cx="956" cy="652" r="10" class="c0"/>
<circle cx="1016" cy="588" r="10" class="c0"/>
<circle cx="1388" cy="688" r="10" class="c0"/>
<circle cx="634" cy="682" r="10" class="c0"/>
<circle cx="1372" cy="738" r="10" class="c0"/>
<circle cx="1104" cy="644" r="10" class="c0"/>
<circle cx="1318" cy="660" r="10" class="c0"/>
<circle cx="944" cy="684" r="10" class="c0"/>
<circle cx="1050" cy="696" r="10" class="c0"/>
<circle cx="1250" cy="728" r="10" class="c0"/>
<circle cx="922" cy="516" r="10" class="c0"/>
<circle cx="952" cy="346" r="10" class="c0"/>
<circle cx="1184" cy="670" r="10" class="c0"/>
<circle cx="1060" cy="726" r="10" class="c0"/>
<circle cx="1032" cy="576" r="10" class="c0"/>
<circle cx="1342" cy="742" r="10" class="c0"/>
<circle cx="1296" cy="644" r="10" class="c0"/>
<circle cx="980" cy="564" r="10" class="c0"/>
<circle cx="758" cy="668" r="10" class="c0"/>
<circle cx="1270" cy="634" r="10" class="c0"/>
<circle cx="814" cy="674" r="10" class="c0"/>
<circle cx="1388" cy="720" r="10" class="c0"/>
<circle cx="958" cy="518" r="10" class="c0"/>
<circle cx="1210" cy="674" r="10" class="c0"/>
<circle cx="668" cy="680" r="10" class="c0"/>
<circle cx="1346" cy="704" r="10" class="c0"/>
<circle cx="1260" cy="698" r="10" class="c0"/>
<circle cx="1218" cy="652" r="10" class="c0"/>
<circle cx="1412" cy="682" r="10" class="c0"/>
<circle cx="1008" cy="664" r="10" class="c0"/>
<circle cx="996" cy="350" r="10" class="c0"/>
<circle cx="998" cy="610" r="10" class="c0"/>
<circle cx="978" cy="410" r="10" class="c0"/>
<circle cx="1086" cy="620" r="10" class="c0"/>
<circle cx="1142" cy="612" r="10" class="c0"/>
<circle cx="920" cy="676" r="10" class="c0"/>
<circle cx="912" cy="620" r="10" class="c0"/>
<circle cx="1078" cy="564" r="10" class="c0"/>
<circle cx="1038" cy="712" r="10" class="c0"/>
<circle cx="972" cy="448" r="10" class="c0"/>
<circle cx="1138" cy="640" r="10" class="c0"/>
<circle cx="1014" cy="716" r="10" class="c0"/>
<circle cx="1330" cy="632" r="10" class="c0"/>
<circle cx="960" cy="476" r="10" class="c0"/>
<circle cx="928" cy="354" r="10" class="c0"/>
<circle cx="1044" cy="672" r="10" class="c0"/>
<circle cx="1060" cy="592" r="10" class="c0"/>
<circle cx="1226" cy="686" r="10" class="c0"/>
<circle cx="1324" cy="688" r="10" class="c0"/>
<circle cx="1004" cy="516" r="10" class="c0"/>
<circle cx="1042" cy="446" r="10" class="c0"/>
<circle cx="986" cy="706" r="10" class="c0"/>
<circle cx="976" cy="680" r="10" class="c0"/>
<circle cx="1032" cy="504" r="10" class="c0"/>
<circle cx="1058" cy="660" r="10" class="c0"/>
<circle cx="890" cy="652" r="10" class="c0"/>
<circle cx="1110" cy="706" r="10" class="c0"/>
<circle cx="1288" cy="744" r="10" class="c0"/>
<circle cx="1414" cy="728" r="8" class="c0"/>
<circle cx="596" cy="660" r="8" class="c0"/>
<circle cx="930" cy="386" r="8" class="c0"/>
<circle cx="1278" cy="660" r="8" class="c0"/>
<circle cx="1018" cy="484" r="8" class="c0"/>
<circle cx="704" cy="690" r="8" class="c0"/>
<circle cx="1060" cy="462" r="8" class="c0"/>
<circle cx="982" cy="626" r="8" class="c0"/>
<circle cx="960" cy="546" r="8" class="c0"/>
<circle cx="1170" cy="692" r="8" class="c0"/>
<circle cx="928" cy="536" r="8" class="c0"/>
<circle cx="1026" cy="456" r="8" class="c0"/>
<circle cx="1050" cy="370" r="8" class="c0"/>
<circle cx="844" cy="402" r="8" class="c0"/>
<circle cx="900" cy="470" r="8" class="c0"/>
<circle cx="946" cy="412" r="8" class="c0"/>
<circle cx="944" cy="564" r="8" class="c0"/>
<circle cx="982" cy="334" r="8" class="c0"/>
<circle cx="924" cy="456" r="8" class="c0"/>
<circle cx="1040" cy="360" r="8" class="c0"/>
<circle cx="996" cy="458" r="8" class="c0"/>
<circle cx="1124" cy="602" r="8" class="c0"/>
<circle cx="1142" cy="696" r="8" class="c0"/>
<circle cx="890" cy="678" r="8" class="c0"/>
<circle cx="876" cy="382" r="8" class="c0"/>
<circle cx="920" cy="716" r="8" class="c0"/>
<circle cx="1062" cy="434" r="8" class="c0"/>
<circle cx="972" cy="536" r="8" class="c0"/>
<circle cx="1332" cy="726" r="8" class="c0"/>
<circle cx="1164" cy="716" r="8" class="c0"/>
<circle cx="1066" cy="612" r="8" class="c0"/>
<circle cx="1090" cy="584" r="8" class="c0"/>
<circle cx="1378" cy="758" r="8" class="c0"/>
<circle cx="844" cy="348" r="8" class="c0"/>
<circle cx="904" cy="492" r="8" class="c0"/>
<circle cx="1356" cy="768" r="8" class="c0"/>
<circle cx="1266" cy="746" r="8" class="c0"/>
<circle cx="916" cy="428" r="8" class="c0"/>
<circle cx="1080" cy="594" r="8" class="c0"/>
<circle cx="824" cy="378" r="8" class="c0"/>
<circle cx="1308" cy="676" r="8" class="c0"/>
<circle cx="780" cy="678" r="8" class="c0"/>
<circle cx="548" cy="646" r="8" class="c0"/>
<circle cx="1358" cy="632" r="8" class="c0"/>
<circle cx="870" cy="680" r="8" class="c0"/>
<circle cx="1082" cy="708" r="8" class="c0"/>
<circle cx="1190" cy="606" r="8" class="c0"/>
<circle cx="1102" cy="480" r="8" class="c0"/>
<circle cx="1076" cy="754" r="8" class="c0"/>
<circle cx="950" cy="450" r="8" class="c0"/>
<circle cx="1196" cy="734" r="8" class="c0"/>
<circle cx="932" cy="584" r="8" class="c0"/>
<circle cx="874" cy="662" r="8" class="c0"/>
<circle cx="1046" cy="612" r="8" class="c0"/>
<circle cx="790" cy="666" r="8" class="c0"/>
<circle cx="906" cy="416" r="8" class="c0"/>
<circle cx="1356" cy="682" r="8" class="c0"/>
<circle cx="1212" cy="698" r="8" class="c0"/>
<circle cx="866" cy="346" r="8" class="c0"/>
<circle cx="992" cy="636" r="8" class="c0"/>
<circle cx="960" cy="700" r="8" class="c0"/>
<circle cx="1178" cy="728" r="8" class="c0"/>
<circle cx="1100" cy="596" r="8" class="c0"/>
<circle cx="1028" cy="428" r="8" class="c0"/>
<circle cx="646" cy="670" r="8" class="c0"/>
<circle cx="990" cy="542" r="8" class="c0"/>
<circle cx="912" cy="366" r="8" class="c0"/>
<circle cx="920" cy="558" r="8" class="c0"/>
<circle cx="978" cy="658" r="8" class="c0"/>
<circle cx="854" cy="392" r="8" class="c0"/>
<circle cx="986" cy="598" r="8" class="c0"/>
<circle cx="1010" cy="444" r="8" class="c0"/>
<circle cx="912" cy="694" r="8" class="c0"/>
<circle cx="616" cy="664" r="8" class="c0"/>
<circle cx="1130" cy="710" r="8" class="c0"/>
<circle cx="1372" cy="698" r="8" class="c0"/>
<circle cx="1286" cy="714" r="8" class="c0"/>
<circle cx="1088" cy="662" r="8" class="c0"/>
<circle cx="1012" cy="466" r="8" class="c0"/>
<circle cx="1058" cy="554" r="8" class="c0"/>
<circle cx="936" cy="432" r="8" class="c0"/>
<circle cx="932" cy="662" r="8" class="c0"/>
<circle cx="1040" cy="470" r="8" class="c0"/>
<circle cx="1376" cy="648" r="8" class="c0"/>
<circle cx="982" cy="366" r="8" class="c0"/>
<circle cx="1376" cy="676" r="8" class="c0"/>
<circle cx="1046" cy="632" r="8" class="c0"/>
<circle cx="950" cy="378" r="8" class="c0"/>
<circle cx="1234" cy="738" r="8" class="c0"/>
<circle cx="990" cy="580" r="8" class="c0"/>
<circle cx="996" cy="690" r="8" class="c0"/>
<circle cx="668" cy="658" r="8" class="c0"/>
<circle cx="1246" cy="636" r="8" class="c0"/>
<circle cx="744" cy="706" r="8" class="c0"/>
<circle cx="972" cy="356" r="8" class="c0"/>
<circle cx="994" cy="390" r="8" class="c0"/>
<circle cx="948" cy="718" r="8" class="c0"/>
<circle cx="926" cy="418" r="8" class="c0"/>
<circle cx="1052" cy="508" r="8" class="c0"/>
<circle cx="960" cy="430" r="8" class="c0"/>
<circle cx="1018" cy="528" r="8" class="c0"/>
<circle cx="1394" cy="746" r="8" class="c0"/>
<circle cx="1400" cy="704" r="8" class="c0"/>
<circle cx="1018" cy="346" r="8" class="c0"/>
<circle cx="1396" cy="664" r="8" class="c0"/>
<circle cx="1048" cy="564" r="8" class="c0"/>
<circle cx="842" cy="374" r="8" class="c0"/>
<circle cx="1298" cy="664" r="8" class="c0"/>
<circle cx="992" cy="440" r="8" class="c0"/>
<circle cx="1116" cy="492" r="8" class="c0"/>
<circle cx="942" cy="504" r="8" class="c0"/>
<circle cx="1334" cy="670" r="8" class="c0"/>
<circle cx="1040" cy="770" r="8" class="c0"/>
<circle cx="1122" cy="692" r="8" class="c0"/>
<circle cx="900" cy="636" r="8" class="c0"/>
<circle cx="1322" cy="708" r="8" class="c0"/>
<circle cx="874" cy="412" r="8" class="c0"/>
<circle cx="1234" cy="714" r="8" class="c0"/>
<circle cx="634" cy="658" r="8" class="c0"/>
<circle cx="1270" cy="726" r="8" class="c0"/>
<circle cx="764" cy="714" r="8" class="c0"/>
<circle cx="1434" cy="722" r="8" class="c0"/>
<circle cx="884" cy="482" r="8" class="c0"/>
<circle cx="1162" cy="604" r="8" class="c0"/>
<circle cx="1048" cy="488" r="8" class="c0"/>
<circle cx="1124" cy="656" r="8" class="c0"/>
<circle cx="1180" cy="702" r="8" class="c0"/>
<circle cx="1360" cy="662" r="8" class="c0"/>
<circle cx="692" cy="680" r="8" class="c0"/>
<circle cx="1034" cy="734" r="8" class="c0"/>
<circle cx="920" cy="598" r="8" class="c0"/>
<circle cx="558" cy="662" r="6" class="c0"/>
<circle cx="970" cy="718" r="6" class="c0"/>
<circle cx="988" cy="668" r="6" class="c0"/>
<circle cx="1190" cy="690" r="6" class="c0"/>
<circle cx="980" cy="476" r="6" class="c0"/>
<circle cx="974" cy="640" r="6" class="c0"/>
<circle cx="1006" cy="572" r="6" class="c0"/>
<circle cx="1302" cy="626" r="6" class="c0"/>
<circle cx="984" cy="524" r="6" class="c0"/>
<circle cx="1062" cy="744" r="6" class="c0"/>
<circle cx="684" cy="660" r="6" class="c0"/>
<circle cx="994" cy="652" r="6" class="c0"/>
<circle cx="904" cy="666" r="6" class="c0"/>
<circle cx="956" cy="400" r="6" class="c0"/>
<circle cx="1076" cy="772" r="6" class="c0"/>
<circle cx="916" cy="406" r="6" class="c0"/>
<circle cx="578" cy="666" r="6" class="c0"/>
<circle cx="942" cy="526" r="6" class="c0"/>
<circle cx="1146" cy="714" r="6" class="c0"/>
<circle cx="720" cy="692" r="6" class="c0"/>
<circle cx="998" cy="374" r="6" class="c0"/>
<circle cx="960" cy="672" r="6" class="c0"/>
<circle cx="1074" cy="444" r="6" class="c0"/>
<circle cx="958" cy="496" r="6" class="c0"/>
<circle cx="964" cy="334" r="6" class="c0"/>
<circle cx="1258" cy="646" r="6" class="c0"/>
<circle cx="734" cy="662" r="6" class="c0"/>
<circle cx="912" cy="444" r="6" class="c0"/>
<circle cx="942" cy="548" r="6" class="c0"/>
<circle cx="1094" cy="556" r="6" class="c0"/>
<circle cx="650" cy="654" r="6" class="c0"/>
<circle cx="1422" cy="744" r="6" class="c0"/>
<circle cx="1020" cy="364" r="6" class="c0"/>
<circle cx="1018" cy="610" r="6" class="c0"/>
<circle cx="1008" cy="496" r="6" class="c0"/>
<circle cx="1070" cy="540" r="6" class="c0"/>
<circle cx="966" cy="630" r="6" class="c0"/>
<circle cx="1288" cy="628" r="6" class="c0"/>
<circle cx="1246" cy="688" r="6" class="c0"/>
<circle cx="1280" cy="682" r="6" class="c0"/>
<circle cx="1160" cy="680" r="6" class="c0"/>
<circle cx="1092" cy="692" r="6" class="c0"/>
<circle cx="970" cy="490" r="6" class="c0"/>
<circle cx="1436" cy="684" r="6" class="c0"/>
<circle cx="1024" cy="672" r="6" class="c0"/>
<circle cx="892" cy="424" r="6" class="c0"/>
<circle cx="912" cy="534" r="6" class="c0"/>
<circle cx="972" cy="582" r="6" class="c0"/>
<circle cx="1034" cy="654" r="6" class="c0"/>
<circle cx="1192" cy="622" r="6" class="c0"/>
<circle cx="1428" cy="692" r="6" class="c0"/>
<circle cx="958" cy="364" r="6" class="c0"/>
<circle cx="1348" cy="724" r="6" class="c0"/>
<circle cx="1086" cy="500" r="6" class="c0"/>
<circle cx="1310" cy="634" r="6" class="c0"/>
<circle cx="942" cy="364" r="6" class="c0"/>
<circle cx="780" cy="718" r="6" class="c0"/>
<circle cx="960" cy="568" r="6" class="c0"/>
<circle cx="622" cy="648" r="6" class="c0"/>
<circle cx="1064" cy="708" r="6" class="c0"/>
<circle cx="1212" cy="738" r="6" class="c0"/>
<circle cx="1028" cy="620" r="6" class="c0"/>
<circle cx="1118" cy="634" r="6" class="c0"/>
<circle cx="944" cy="468" r="6" class="c0"/>
<circle cx="1230" cy="638" r="6" class="c0"/>
<circle cx="1188" cy="718" r="6" class="c0"/>
<circle cx="1340" cy="764" r="6" class="c0"/>
<circle cx="874" cy="472" r="6" class="c0"/>
<circle cx="936" cy="402" r="6" class="c0"/>
<circle cx="1062" cy="572" r="6" class="c0"/>
<circle cx="896" cy="372" r="6" class="c0"/>
<circle cx="976" cy="428" r="6" class="c0"/>
<circle cx="1080" cy="736" r="6" class="c0"/>
<circle cx="1360" cy="750" r="6" class="c0"/>
<circle cx="728" cy="702" r="6" class="c0"/>
<circle cx="834" cy="388" r="6" class="c0"/>
<circle cx="864" cy="402" r="6" class="c0"/>
<circle cx="1100" cy="498" r="6" class="c0"/>
<circle cx="594" cy="644" r="6" class="c0"/>
<circle cx="1120" cy="476" r="6" class="c0"/>
<circle cx="1196" cy="704" r="6" class="c0"/>
<circle cx="1036" cy="750" r="6" class="c0"/>
<circle cx="1010" cy="682" r="6" class="c0"/>
<circle cx="830" cy="684" r="6" class="c0"/>
<circle cx="1106" cy="626" r="6" class="c0"/>
<circle cx="1046" cy="424" r="6" class="c0"/>
<circle cx="1056" cy="622" r="6" class="c0"/>
<circle cx="950" cy="536" r="6" class="c0"/>
<circle cx="874" cy="492" r="6" class="c0"/>
<circle cx="884" cy="402" r="6" class="c0"/>
<circle cx="1166" cy="668" r="6" class="c0"/>
<circle cx="1112" cy="468" r="6" class="c0"/>
<circle cx="798" cy="682" r="6" class="c0"/>
<circle cx="1132" cy="682" r="6" class="c0"/>
<circle cx="606" cy="650" r="6" class="c0"/>
<circle cx="1428" cy="674" r="6" class="c0"/>
<circle cx="1238" cy="698" r="6" class="c0"/>
<circle cx="944" cy="394" r="6" class="c0"/>
<circle cx="1440" cy="706" r="6" class="c0"/>
<circle cx="948" cy="488" r="6" class="c0"/>
<circle cx="936" cy="338" r="6" class="c0"/>
<circle cx="1224" cy="728" r="6" class="c0"/>
<circle cx="1072" cy="512" r="6" class="c0"/>
<circle cx="1288" cy="674" r="6" class="c0"/>
<circle cx="1096" cy="716" r="6" class="c0"/>
<circle cx="1006" cy="336" r="6" class="c0"/>
<circle cx="1006" cy="626" r="6" class="c0"/>
<circle cx="906" cy="508" r="6" class="c0"/>
<circle cx="828" cy="342" r="6" class="c0"/>
<circle cx="1006" cy="700" r="6" class="c0"/>
<circle cx="616" cy="684" r="6" class="c0"/>
<circle cx="888" cy="498" r="6" class="c0"/>
</svg>
