<?xml version="1.0" encoding="utf-8"?>
<svg xmlns="http://www.w3.org/2000/svg"
     xmlns:xlink="http://www.w3.org/1999/xlink" width="1920" height="1440" >

            <defs>
            <style type="text/css"><![CDATA[
circle {stroke: none;}
.c0 {fill: #FFFFFF;}
]]></style>
            </defs>
<rect x="0" y="0" width="1920" height="1440" fill="black"/>
<circle cx="982" cy="586" r="14" class="c0"/>
<circle cx="1060" cy="772" r="12" class="c0"/>
<circle cx="924" cy="900" r="12" class="c0"/>
<circle cx="824" cy="984" r="12" class="c0"/>
<circle cx="914" cy="1110" r="12" class="c0"/>
<circle cx="1110" cy="984" r="12" class="c0"/>
<circle cx="1038" cy="1278" r="12" class="c0"/>
<circle cx="1006" cy="1194" r="12" class="c0"/>
<circle cx="942" cy="668" r="12" class="c0"/>
<circle cx="976" cy="1092" r="12" class="c0"/>
<circle cx="892" cy="1410" r="12" class="c0"/>
<circle cx="1084" cy="1138" r="12" class="c0"/>
<circle cx="870" cy="928" r="12" class="c0"/>
<circle cx="1042" cy="500" r="12" class="c0"/>
<circle cx="968" cy="530" r="12" class="c0"/>
<circle cx="914" cy="1270" r="12" class="c0"/>
<circle cx="982" cy="1122" r="12" class="c0"/>
<circle cx="1046" cy="938" r="12" class="c0"/>
<circle cx="980" cy="1218" r="12" class="c0"/>
<circle cx="1012" cy="856" r="12" class="c0"/>
<circle cx="812" cy="1222" r="12" class="c0"/>
<circle cx="928" cy="804" r="12" class="c0"/>
<circle cx="1050" cy="826" r="12" class="c0"/>
<circle cx="950" cy="1218" r="12" class="c0"/>
<circle cx="972" cy="766" r="12" class="c0"/>
<circle cx="992" cy="922" r="12" class="c0"/>
<circle cx="758" cy="1098" r="12" class="c0"/>
<circle cx="812" cy="950" r="12" class="c0"/>
<circle cx="900" cy="860" r="12" class="c0"/>
<circle cx="1058" cy="1344" r="12" class="c0"/>
<circle cx="906" cy="952" r="12" class="c0"/>
<circle cx="1026" cy="1074" r="12" class="c0"/>
<circle cx="1092" cy="488" r="12" class="c0"/>
<circle cx="1030" cy="788" r="12" class="c0"/>
<circle cx="1050" cy="1046" r="12" class="c0"/>
<circle cx="798" cy="1142" r="12" class="c0"/>
<circle cx="818" cy="546" r="12" class="c0"/>
<circle cx="762" cy="1390" r="12" class="c0"/>
<circle cx="852" cy="888" r="12" class="c0"/>
<circle cx="992" cy="1302" r="12" class="c0"/>
<circle cx="1008" cy="526" r="12" class="c0"/>
<circle cx="934" cy="872" r="12" class="c0"/>
<circle cx="1096" cy="1180" r="12" class="c0"/>
<circle cx="894" cy="1058" r="12" class="c0"/>
<circle cx="1108" cy="1264" r="12" class="c0"/>
<circle cx="846" cy="918" r="10" class="c0"/>
<circle cx="1024" cy="1420" r="10" class="c0"/>
<circle cx="1004" cy="702" r="10" class="c0"/>
<circle cx="1002" cy="1004" r="10" class="c0"/>
<circle cx="900" cy="1244" r="10" class="c0"/>
<circle cx="1104" cy="1352" r="10" class="c0"/>
<circle cx="974" cy="708" r="10" class="c0"/>
<circle cx="868" cy="1078" r="10" class="c0"/>
<circle cx="956" cy="858" r="10" class="c0"/>
<circle cx="924" cy="530" r="10" class="c0"/>
<circle cx="962" cy="1162" r="10" class="c0"/>
<circle cx="1110" cy="1412" r="10" class="c0"/>
<circle cx="930" cy="1286" r="10" class="c0"/>
<circle cx="962" cy="1362" r="10" class="c0"/>
<circle cx="956" cy="820" r="10" class="c0"/>
<circle cx="956" cy="742" r="10" class="c0"/>
<circle cx="948" cy="1036" r="10" class="c0"/>
<circle cx="880" cy="558" r="10" class="c0"/>
<circle cx="1066" cy="1224" r="10" class="c0"/>
<circle cx="1042" cy="970" r="10" class="c0"/>
<circle cx="848" cy="1404" r="10" class="c0"/>
<circle cx="1092" cy="1018" r="10" class="c0"/>
<circle cx="850" cy="804" r="10" class="c0"/>
<circle cx="1126" cy="1130" r="10" class="c0"/>
<circle cx="998" cy="1344" r="10" class="c0"/>
<circle cx="818" cy="1082" r="10" class="c0"/>
<circle cx="1048" cy="1100" r="10" class="c0"/>
<circle cx="990" cy="1278" r="10" class="c0"/>
<circle cx="1078" cy="558" r="10" class="c0"/>
<circle cx="1086" cy="1096" r="10" class="c0"/>
<circle cx="842" cy="1244" r="10" class="c0"/>
<circle cx="856" cy="770" r="10" class="c0"/>
<circle cx="1154" cy="1372" r="10" class="c0"/>
<circle cx="976" cy="1000" r="10" class="c0"/>
<circle cx="922" cy="1058" r="10" class="c0"/>
<circle cx="1090" cy="1340" r="10" class="c0"/>
<circle cx="906" cy="1366" r="10" class="c0"/>
<circle cx="1006" cy="1044" r="10" class="c0"/>
<circle cx="1004" cy="1380" r="10" class="c0"/>
<circle cx="738" cy="1406" r="10" class="c0"/>
<circle cx="1030" cy="666" r="10" class="c0"/>
<circle cx="958" cy="1328" r="10" class="c0"/>
<circle cx="1036" cy="1242" r="10" class="c0"/>
<circle cx="840" cy="1008" r="10" class="c0"/>
<circle cx="938" cy="698" r="10" class="c0"/>
<circle cx="940" cy="612" r="10" class="c0"/>
<circle cx="940" cy="1186" r="10" class="c0"/>
<circle cx="838" cy="866" r="10" class="c0"/>
<circle cx="822" cy="1290" r="10" class="c0"/>
<circle cx="880" cy="1370" r="10" class="c0"/>
<circle cx="1124" cy="1020" r="10" class="c0"/>
<circle cx="802" cy="1242" r="10" class="c0"/>
<circle cx="1014" cy="1018" r="10" class="c0"/>
<circle cx="968" cy="1396" r="10" class="c0"/>
<circle cx="896" cy="1178" r="10" class="c0"/>
<circle cx="1144" cy="1142" r="10" class="c0"/>
<circle cx="894" cy="908" r="10" class="c0"/>
<circle cx="950" cy="512" r="10" class="c0"/>
<circle cx="916" cy="1302" r="10" class="c0"/>
<circle cx="872" cy="1294" r="10" class="c0"/>
<circle cx="1056" cy="1420" r="10" class="c0"/>
<circle cx="960" cy="562" r="10" class="c0"/>
<circle cx="866" cy="670" r="10" class="c0"/>
<circle cx="802" cy="490" r="10" class="c0"/>
<circle cx="844" cy="1048" r="10" class="c0"/>
<circle cx="1044" cy="1400" r="10" class="c0"/>
<circle cx="1134" cy="1066" r="10" class="c0"/>
<circle cx="828" cy="1340" r="10" class="c0"/>
<circle cx="874" cy="606" r="10" class="c0"/>
<circle cx="1022" cy="982" r="10" class="c0"/>
<circle cx="942" cy="1304" r="10" class="c0"/>
<circle cx="1056" cy="798" r="10" class="c0"/>
<circle cx="838" cy="568" r="10" class="c0"/>
<circle cx="790" cy="1320" r="10" class="c0"/>
<circle cx="1042" cy="1016" r="10" class="c0"/>
<circle cx="848" cy="1144" r="10" class="c0"/>
<circle cx="998" cy="636" r="10" class="c0"/>
<circle cx="904" cy="760" r="10" class="c0"/>
<circle cx="946" cy="1422" r="10" class="c0"/>
<circle cx="868" cy="1194" r="10" class="c0"/>
<circle cx="828" cy="508" r="10" class="c0"/>
<circle cx="884" cy="1266" r="10" class="c0"/>
<circle cx="870" cy="1130" r="10" class="c0"/>
<circle cx="926" cy="1228" r="10" class="c0"/>
<circle cx="1118" cy="1218" r="10" class="c0"/>
<circle cx="896" cy="796" r="10" class="c0"/>
<circle cx="930" cy="1324" r="10" class="c0"/>
<circle cx="1058" cy="1304" r="10" class="c0"/>
<circle cx="1018" cy="1396" r="10" class="c0"/>
<circle cx="924" cy="566" r="10" class="c0"/>
<circle cx="832" cy="1162" r="10" class="c0"/>
<circle cx="1018" cy="1306" r="10" class="c0"/>
<circle cx="776" cy="1306" r="10" class="c0"/>
<circle cx="804" cy="1062" r="10" class="c0"/>
<circle cx="1074" cy="1364" r="10" class="c0"/>
<circle cx="800" cy="1184" r="10" class="c0"/>
<circle cx="906" cy="706" r="10" class="c0"/>
<circle cx="1078" cy="472" r="10" class="c0"/>
<circle cx="922" cy="1034" r="10" class="c0"/>
<circle cx="786" cy="1416" r="10" class="c0"/>
<circle cx="1096" cy="1384" r="10" class="c0"/>
<circle cx="864" cy="534" r="10" class="c0"/>
<circle cx="968" cy="1272" r="10" class="c0"/>
<circle cx="878" cy="776" r="10" class="c0"/>
<circle cx="1064" cy="518" r="10" class="c0"/>
<circle cx="842" cy="956" r="10" class="c0"/>
<circle cx="836" cy="1196" r="10" class="c0"/>
<circle cx="1002" cy="662" r="10" class="c0"/>
<circle cx="964" cy="1192" r="10" class="c0"/>
<circle cx="922" cy="1146" r="10" class="c0"/>
<circle cx="1040" cy="600" r="10" class="c0"/>
<circle cx="1024" cy="1158" r="10" class="c0"/>
<circle cx="836" cy="1316" r="10" class="c0"/>
<circle cx="778" cy="1250" r="10" class="c0"/>
<circle cx="984" cy="1156" r="10" class="c0"/>
<circle cx="762" cy="1344" r="10" class="c0"/>
<circle cx="1160" cy="1400" r="10" class="c0"/>
<circle cx="942" cy="952" r="10" class="c0"/>
<circle cx="1082" cy="908" r="10" class="c0"/>
<circle cx="1094" cy="1220" r="10" class="c0"/>
<circle cx="960" cy="962" r="10" class="c0"/>
<circle cx="1014" cy="588" r="10" class="c0"/>
<circle cx="1046" cy="1174" r="10" class="c0"/>
<circle cx="914" cy="780" r="10" class="c0"/>
<circle cx="1070" cy="1004" r="10" class="c0"/>
<circle cx="934" cy="836" r="10" class="c0"/>
<circle cx="926" cy="636" r="10" class="c0"/>
<circle cx="862" cy="1334" r="10" class="c0"/>
<circle cx="886" cy="1332" r="10" class="c0"/>
<circle cx="866" cy="584" r="10" class="c0"/>
<circle cx="798" cy="1114" r="10" class="c0"/>
<circle cx="1128" cy="1252" r="10" class="c0"/>
<circle cx="966" cy="1234" r="10" class="c0"/>
<circle cx="1022" cy="1358" r="10" class="c0"/>
<circle cx="1016" cy="490" r="10" class="c0"/>
<circle cx="1008" cy="962" r="10" class="c0"/>
<circle cx="884" cy="494" r="10" class="c0"/>
<circle cx="790" cy="1360" r="10" class="c0"/>
<circle cx="878" cy="696" r="10" class="c0"/>
<circle cx="1136" cy="1336" r="10" class="c0"/>
<circle cx="930" cy="1126" r="10" class="c0"/>
<circle cx="850" cy="1356" r="10" class="c0"/>
<circle cx="894" cy="640" r="10" class="c0"/>
<circle cx="1048" cy="884" r="10" class="c0"/>
<circle cx="1044" cy="1318" r="10" class="c0"/>
<circle cx="1020" cy="614" r="10" class="c0"/>
<circle cx="858" cy="1220" r="10" class="c0"/>
<circle cx="1018" cy="1122" r="10" class="c0"/>
<circle cx="898" cy="664" r="10" class="c0"/>
<circle cx="1026" cy="880" r="10" class="c0"/>
<circle cx="966" cy="610" r="10" class="c0"/>
<circle cx="842" cy="1078" r="10" class="c0"/>
<circle cx="884" cy="838" r="10" class="c0"/>
<circle cx="966" cy="642" r="10" class="c0"/>
<circle cx="1080" cy="1072" r="10" class="c0"/>
<circle cx="938" cy="552" r="10" class="c0"/>
<circle cx="880" cy="1234" r="10" class="c0"/>
<circle cx="800" cy="1282" r="10" class="c0"/>
<circle cx="926" cy="1384" r="8" class="c0"/>
<circle cx="964" cy="1110" r="8" class="c0"/>
<circle cx="746" cy="1138" r="8" class="c0"/>
<circle cx="1018" cy="680" r="8" class="c0"/>
<circle cx="948" cy="1094" r="8" class="c0"/>
<circle cx="1058" cy="1162" r="8" class="c0"/>
<circle cx="1086" cy="976" r="8" class="c0"/>
<circle cx="846" cy="1118" r="8" class="c0"/>
<circle cx="908" cy="826" r="8" class="c0"/>
<circle cx="980" cy="1248" r="8" class="c0"/>
<circle cx="964" cy="1294" r="8" class="c0"/>
<circle cx="924" cy="986" r="8" class="c0"/>
<circle cx="946" cy="992" r="8" class="c0"/>
<circle cx="892" cy="732" r="8" class="c0"/>
<circle cx="818" cy="1390" r="8" class="c0"/>
<circle cx="1040" cy="1366" r="8" class="c0"/>
<circle cx="1154" cy="1318" r="8" class="c0"/>
<circle cx="1026" cy="814" r="8" class="c0"/>
<circle cx="900" cy="584" r="8" class="c0"/>
<circle cx="988" cy="960" r="8" class="c0"/>
<circle cx="1006" cy="1260" r="8" class="c0"/>
<circle cx="982" cy="848" r="8" class="c0"/>
<circle cx="946" cy="1142" r="8" class="c0"/>
<circle cx="1074" cy="1032" r="8" class="c0"/>
<circle cx="896" cy="534" r="8" class="c0"/>
<circle cx="1078" cy="954" r="8" class="c0"/>
<circle cx="964" cy="1012" r="8" class="c0"/>
<circle cx="1028" cy="958" r="8" class="c0"/>
<circle cx="1118" cy="1298" r="8" class="c0"/>
<circle cx="1056" cy="984" r="8" class="c0"/>
<circle cx="1150" cy="1086" r="8" class="c0"/>
<circle cx="1126" cy="1402" r="8" class="c0"/>
<circle cx="1066" cy="1264" r="8" class="c0"/>
<circle cx="784" cy="1034" r="8" class="c0"/>
<circle cx="836" cy="1424" r="8" class="c0"/>
<circle cx="780" cy="1270" r="8" class="c0"/>
<circle cx="944" cy="1396" r="8" class="c0"/>
<circle cx="1090" cy="1244" r="8" class="c0"/>
<circle cx="1000" cy="820" r="8" class="c0"/>
<circle cx="776" cy="1062" r="8" class="c0"/>
<circle cx="1096" cy="1050" r="8" class="c0"/>
<circle cx="1060" cy="548" r="8" class="c0"/>
<circle cx="876" cy="952" r="8" class="c0"/>
<circle cx="998" cy="508" r="8" class="c0"/>
<circle cx="840" cy="524" r="8" class="c0"/>
<circle cx="932" cy="1248" r="8" class="c0"/>
<circle cx="886" cy="1024" r="8" class="c0"/>
<circle cx="1076" cy="930" r="8" class="c0"/>
<circle cx="754" cy="1426" r="8" class="c0"/>
<circle cx="1042" cy="1202" r="8" class="c0"/>
<circle cx="858" cy="508" r="8" class="c0"/>
<circle cx="1064" cy="1202" r="8" class="c0"/>
<circle cx="998" cy="682" r="8" class="c0"/>
<circle cx="844" cy="1290" r="8" class="c0"/>
<circle cx="1080" cy="1160" r="8" class="c0"/>
<circle cx="1158" cy="1104" r="8" class="c0"/>
<circle cx="1154" cy="1344" r="8" class="c0"/>
<circle cx="1080" cy="1308" r="8" class="c0"/>
<circle cx="1038" cy="732" r="8" class="c0"/>
<circle cx="930" cy="922" r="8" class="c0"/>
<circle cx="890" cy="880" r="8" class="c0"/>
<circle cx="1104" cy="1312" r="8" class="c0"/>
<circle cx="1012" cy="564" r="8" class="c0"/>
<circle cx="964" cy="690" r="8" class="c0"/>
<circle cx="852" cy="546" r="8" class="c0"/>
<circle cx="788" cy="1086" r="8" class="c0"/>
<circle cx="860" cy="834" r="8" class="c0"/>
<circle cx="792" cy="1206" r="8" class="c0"/>
<circle cx="872" cy="754" r="8" class="c0"/>
<circle cx="972" cy="936" r="8" class="c0"/>
<circle cx="1088" cy="532" r="8" class="c0"/>
<circle cx="1108" cy="1198" r="8" class="c0"/>
<circle cx="876" cy="1000" r="8" class="c0"/>
<circle cx="828" cy="1138" r="8" class="c0"/>
<circle cx="902" cy="1214" r="8" class="c0"/>
<circle cx="1026" cy="1262" r="8" class="c0"/>
<circle cx="1010" cy="748" r="8" class="c0"/>
<circle cx="1086" cy="1200" r="8" class="c0"/>
<circle cx="1062" cy="1062" r="8" class="c0"/>
<circle cx="982" cy="896" r="8" class="c0"/>
<circle cx="944" cy="784" r="8" class="c0"/>
<circle cx="778" cy="1134" r="8" class="c0"/>
<circle cx="866" cy="1036" r="8" class="c0"/>
<circle cx="1012" cy="720" r="8" class="c0"/>
<circle cx="876" cy="724" r="8" class="c0"/>
<circle cx="1076" cy="864" r="8" class="c0"/>
<circle cx="930" cy="728" r="8" class="c0"/>
<circle cx="986" cy="1366" r="8" class="c0"/>
<circle cx="914" cy="682" r="8" class="c0"/>
<circle cx="1128" cy="1088" r="8" class="c0"/>
<circle cx="934" cy="974" r="8" class="c0"/>
<circle cx="834" cy="906" r="8" class="c0"/>
<circle cx="894" cy="1152" r="8" class="c0"/>
<circle cx="1042" cy="714" r="8" class="c0"/>
<circle cx="928" cy="1344" r="8" class="c0"/>
<circle cx="1136" cy="1288" r="8" class="c0"/>
<circle cx="1004" cy="1088" r="8" class="c0"/>
<circle cx="974" cy="1060" r="8" class="c0"/>
<circle cx="1112" cy="1036" r="8" class="c0"/>
<circle cx="1000" cy="604" r="8" class="c0"/>
<circle cx="1024" cy="544" r="8" class="c0"/>
<circle cx="806" cy="1006" r="8" class="c0"/>
<circle cx="900" cy="1080" r="8" class="c0"/>
<circle cx="1000" cy="894" r="8" class="c0"/>
<circle cx="906" cy="1330" r="8" class="c0"/>
<circle cx="1128" cy="1384" r="8" class="c0"/>
<circle cx="912" cy="884" r="8" class="c0"/>
<circle cx="976" cy="1426" r="8" class="c0"/>
<circle cx="1062" cy="486" r="8" class="c0"/>
<circle cx="1068" cy="1184" r="8" class="c0"/>
<circle cx="836" cy="488" r="8" class="c0"/>
<circle cx="834" cy="1102" r="8" class="c0"/>
<circle cx="1126" cy="1362" r="8" class="c0"/>
<circle cx="828" cy="1378" r="8" class="c0"/>
<circle cx="1056" cy="1250" r="8" class="c0"/>
<circle cx="1036" cy="478" r="8" class="c0"/>
<circle cx="1072" cy="498" r="8" class="c0"/>
<circle cx="806" cy="1400" r="8" class="c0"/>
<circle cx="806" cy="1346" r="8" class="c0"/>
<circle cx="914" cy="504" r="8" class="c0"/>
<circle cx="838" cy="822" r="8" class="c0"/>
<circle cx="918" cy="1192" r="8" class="c0"/>
<circle cx="892" cy="1120" r="8" class="c0"/>
<circle cx="1052" cy="634" r="8" class="c0"/>
<circle cx="1058" cy="916" r="8" class="c0"/>
<circle cx="924" cy="1172" r="8" class="c0"/>
<circle cx="940" cy="576" r="8" class="c0"/>
<circle cx="940" cy="1370" r="8" class="c0"/>
<circle cx="994" cy="1406" r="8" class="c0"/>
<circle cx="988" cy="804" r="8" class="c0"/>
<circle cx="862" cy="1254" r="8" class="c0"/>
<circle cx="1098" cy="1158" r="8" class="c0"/>
<circle cx="864" cy="856" r="8" class="c0"/>
<circle cx="1002" cy="1220" r="8" class="c0"/>
<circle cx="1068" cy="1086" r="8" class="c0"/>
<circle cx="1014" cy="1330" r="8" class="c0"/>
<circle cx="820" cy="1180" r="8" class="c0"/>
<circle cx="766" cy="1042" r="8" class="c0"/>
<circle cx="944" cy="1266" r="8" class="c0"/>
<circle cx="924" cy="752" r="8" class="c0"/>
<circle cx="808" cy="1302" r="8" class="c0"/>
<circle cx="970" cy="978" r="8" class="c0"/>
<circle cx="920" cy="1088" r="8" class="c0"/>
<circle cx="1112" cy="1074" r="8" class="c0"/>
<circle cx="1048" cy="852" r="8" class="c0"/>
<circle cx="1034" cy="908" r="8" class="c0"/>
<circle cx="866" cy="1412" r="8" class="c0"/>
<circle cx="920" cy="1408" r="8" class="c0"/>
<circle cx="928" cy="940" r="8" class="c0"/>
<circle cx="1022" cy="644" r="8" class="c0"/>
<circle cx="1036" cy="1342" r="8" class="c0"/>
<circle cx="1020" cy="1232" r="8" class="c0"/>
<circle cx="1122" cy="1424" r="8" class="c0"/>
<circle cx="1036" cy="1138" r="8" class="c0"/>
<circle cx="1022" cy="510" r="8" class="c0"/>
<circle cx="966" cy="670" r="8" class="c0"/>
<circle cx="848" cy="1178" r="8" class="c0"/>
<circle cx="912" cy="1004" r="8" class="c0"/>
<circle cx="976" cy="1318" r="8" class="c0"/>
<circle cx="1094" cy="1430" r="8" class="c0"/>
<circle cx="856" cy="1314" r="8" class="c0"/>
<circle cx="1164" cy="1422" r="8" class="c0"/>
<circle cx="908" cy="614" r="8" class="c0"/>
<circle cx="898" cy="1290" r="8" class="c0"/>
<circle cx="982" cy="496" r="8" class="c0"/>
<circle cx="1138" cy="1306" r="8" class="c0"/>
<circle cx="870" cy="898" r="8" class="c0"/>
<circle cx="976" cy="1038" r="8" class="c0"/>
<circle cx="808" cy="528" r="8" class="c0"/>
<circle cx="972" cy="792" r="8" class="c0"/>
<circle cx="1080" cy="1398" r="8" class="c0"/>
<circle cx="884" cy="1088" r="8" class="c0"/>
<circle cx="974" cy="732" r="8" class="c0"/>
<circle cx="976" cy="1376" r="8" class="c0"/>
<circle cx="988" cy="548" r="8" class="c0"/>
<circle cx="924" cy="592" r="8" class="c0"/>
<circle cx="896" cy="508" r="8" class="c0"/>
<circle cx="902" cy="1392" r="8" class="c0"/>
<circle cx="866" cy="1382" r="8" class="c0"/>
<circle cx="870" cy="1156" r="8" class="c0"/>
<circle cx="1002" cy="1132" r="8" class="c0"/>
<circle cx="894" cy="970" r="8" class="c0"/>
<circle cx="1000" cy="760" r="8" class="c0"/>
<circle cx="828" cy="1400" r="8" class="c0"/>
<circle cx="1016" cy="804" r="8" class="c0"/>
<circle cx="944" cy="764" r="8" class="c0"/>
<circle cx="880" cy="1430" r="8" class="c0"/>
<circle cx="964" cy="1076" r="8" class="c0"/>
<circle cx="904" cy="564" r="8" class="c0"/>
<circle cx="746" cy="1358" r="8" class="c0"/>
<circle cx="978" cy="630" r="8" class="c0"/>
<circle cx="858" cy="988" r="8" class="c0"/>
<circle cx="998" cy="732" r="8" class="c0"/>
<circle cx="894" cy="934" r="8" class="c0"/>
<circle cx="898" cy="1346" r="8" class="c0"/>
<circle cx="1112" cy="1238" r="8" class="c0"/>
<circle cx="1090" cy="1274" r="8" class="c0"/>
<circle cx="856" cy="1278" r="8" class="c0"/>
<circle cx="978" cy="1336" r="8" class="c0"/>
<circle cx="934" cy="502" r="8" class="c0"/>
<circle cx="954" cy="592" r="8" class="c0"/>
<circle cx="814" cy="928" r="8" class="c0"/>
<circle cx="1100" cy="954" r="8" class="c0"/>
<circle cx="1046" cy="1220" r="8" class="c0"/>
<circle cx="992" cy="1028" r="8" class="c0"/>
<circle cx="1026" cy="1006" r="8" class="c0"/>
<circle cx="958" cy="896" r="8" class="c0"/>
<circle cx="946" cy="1066" r="8" class="c0"/>
<circle cx="856" cy="490" r="8" class="c0"/>
<circle cx="870" cy="1104" r="8" class="c0"/>
<circle cx="912" cy="736" r="8" class="c0"/>
<circle cx="1038" cy="568" r="8" class="c0"/>
<circle cx="962" cy="920" r="8" class="c0"/>
<circle cx="1022" cy="768" r="8" class="c0"/>
<circle cx="804" cy="1032" r="8" class="c0"/>
<circle cx="1044" cy="756" r="8" class="c0"/>
<circle cx="1082" cy="1418" r="8" class="c0"/>
<circle cx="1032" cy="626" r="8" class="c0"/>
<circle cx="872" cy="796" r="8" class="c0"/>
<circle cx="816" cy="908" r="8" class="c0"/>
<circle cx="1088" cy="1292" r="8" class="c0"/>
<circle cx="998" cy="788" r="8" class="c0"/>
<circle cx="1138" cy="1036" r="8" class="c0"/>
<circle cx="814" cy="1420" r="8" class="c0"/>
<circle cx="882" cy="624" r="8" class="c0"/>
<circle cx="898" cy="1312" r="8" class="c0"/>
<circle cx="1062" cy="1390" r="8" class="c0"/>
<circle cx="824" cy="1026" r="8" class="c0"/>
<circle cx="1028" cy="1034" r="8" class="c0"/>
<circle cx="1012" cy="1286" r="8" class="c0"/>
<circle cx="744" cy="1120" r="8" class="c0"/>
<circle cx="796" cy="1382" r="8" class="c0"/>
<circle cx="966" cy="1142" r="8" class="c0"/>
<circle cx="1050" cy="1378" r="8" class="c0"/>
<circle cx="944" cy="1114" r="8" class="c0"/>
<circle cx="792" cy="990" r="8" class="c0"/>
<circle cx="1072" cy="1116" r="8" class="c0"/>
<circle cx="848" cy="976" r="8" class="c0"/>
<circle cx="896" cy="1034" r="8" class="c0"/>
<circle cx="916" cy="1430" r="8" class="c0"/>
<circle cx="900" cy="992" r="8" class="c0"/>
<circle cx="814" cy="1198" r="8" class="c0"/>
<circle cx="766" cy="1146" r="8" class="c0"/>
<circle cx="914" cy="546" r="8" class="c0"/>
<circle cx="1060" cy="1142" r="8" class="c0"/>
<circle cx="1066" cy="850" r="8" class="c0"/>
<circle cx="992" cy="866" r="8" class="c0"/>
<circle cx="780" cy="1008" r="8" class="c0"/>
<circle cx="850" cy="938" r="8" class="c0"/>
<circle cx="866" cy="962" r="8" class="c0"/>
<circle cx="1016" cy="942" r="8" class="c0"/>
<circle cx="840" cy="842" r="8" class="c0"/>
<circle cx="1106" cy="1116" r="8" class="c0"/>
<circle cx="944" cy="486" r="8" class="c0"/>
<circle cx="1112" cy="1006" r="8" class="c0"/>
<circle cx="766" cy="1286" r="8" class="c0"/>
<circle cx="936" cy="1160" r="8" class="c0"/>
<circle cx="814" cy="1320" r="8" class="c0"/>
<circle cx="932" cy="1204" r="8" class="c0"/>
<circle cx="854" cy="748" r="8" class="c0"/>
<circle cx="886" cy="812" r="8" class="c0"/>
<circle cx="884" cy="1208" r="8" class="c0"/>
<circle cx="988" cy="744" r="8" class="c0"/>
<circle cx="972" cy="872" r="8" class="c0"/>
<circle cx="922" cy="852" r="8" class="c0"/>
<circle cx="1040" cy="690" r="8" class="c0"/>
<circle cx="742" cy="1382" r="8" class="c0"/>
<circle cx="1144" cy="1412" r="8" class="c0"/>
<circle cx="1120" cy="1326" r="8" class="c0"/>
<circle cx="726" cy="1428" r="8" class="c0"/>
<circle cx="1072" cy="892" r="8" class="c0"/>
<circle cx="852" cy="1026" r="8" class="c0"/>
<circle cx="844" cy="1264" r="8" class="c0"/>
<circle cx="934" cy="1076" r="8" class="c0"/>
<circle cx="816" cy="1262" r="8" class="c0"/>
<circle cx="838" cy="1216" r="8" class="c0"/>
<circle cx="1040" cy="534" r="8" class="c0"/>
<circle cx="994" cy="982" r="8" class="c0"/>
<circle cx="1028" cy="834" r="8" class="c0"/>
<circle cx="956" cy="1256" r="8" class="c0"/>
<circle cx="870" cy="634" r="8" class="c0"/>
<circle cx="904" cy="1130" r="8" class="c0"/>
<circle cx="946" cy="912" r="8" class="c0"/>
<circle cx="856" cy="1062" r="8" class="c0"/>
<circle cx="1058" cy="580" r="8" class="c0"/>
<circle cx="1012" cy="904" r="8" class="c0"/>
<circle cx="946" cy="638" r="8" class="c0"/>
<circle cx="848" cy="1380" r="8" class="c0"/>
<circle cx="860" cy="1168" r="8" class="c0"/>
<circle cx="1024" cy="1210" r="8" class="c0"/>
<circle cx="976" cy="824" r="8" class="c0"/>
<circle cx="986" cy="694" r="8" class="c0"/>
<circle cx="776" cy="1112" r="8" class="c0"/>
<circle cx="1068" cy="814" r="8" class="c0"/>
<circle cx="810" cy="1100" r="8" class="c0"/>
<circle cx="1066" cy="974" r="8" class="c0"/>
<circle cx="1016" cy="922" r="8" class="c0"/>
<circle cx="1028" cy="1098" r="8" class="c0"/>
<circle cx="990" cy="616" r="8" class="c0"/>
<circle cx="964" cy="1050" r="8" class="c0"/>
<circle cx="1038" cy="862" r="8" class="c0"/>
<circle cx="1024" cy="698" r="8" class="c0"/>
<circle cx="778" cy="1334" r="8" class="c0"/>
<circle cx="922" cy="486" r="8" class="c0"/>
<circle cx="1120" cy="1280" r="8" class="c0"/>
<circle cx="826" cy="1360" r="8" class="c0"/>
<circle cx="1068" cy="1286" r="8" class="c0"/>
<circle cx="1052" cy="1124" r="8" class="c0"/>
<circle cx="914" cy="930" r="8" class="c0"/>
<circle cx="830" cy="1232" r="8" class="c0"/>
<circle cx="998" cy="1428" r="8" class="c0"/>
<circle cx="878" cy="658" r="6" class="c0"/>
<circle cx="994" cy="1102" r="6" class="c0"/>
<circle cx="782" cy="1396" r="6" class="c0"/>
<circle cx="878" cy="524" r="6" class="c0"/>
<circle cx="912" cy="976" r="6" class="c0"/>
<circle cx="800" cy="966" r="6" class="c0"/>
<circle cx="956" cy="704" r="6" class="c0"/>
<circle cx="792" cy="1050" r="6" class="c0"/>
<circle cx="1142" cy="1110" r="6" class="c0"/>
<circle cx="1000" cy="1174" r="6" class="c0"/>
<circle cx="1000" cy="1064" r="6" class="c0"/>
<circle cx="1150" cy="1118" r="6" class="c0"/>
<circle cx="996" cy="1238" r="6" class="c0"/>
<circle cx="984" cy="660" r="6" class="c0"/>
<circle cx="856" cy="1090" r="6" class="c0"/>
<circle cx="1182" cy="1418" r="6" class="c0"/>
<circle cx="828" cy="582" r="6" class="c0"/>
<circle cx="878" cy="1180" r="6" class="c0"/>
<circle cx="1092" cy="992" r="6" class="c0"/>
<circle cx="1144" cy="1390" r="6" class="c0"/>
<circle cx="968" cy="484" r="6" class="c0"/>
<circle cx="972" cy="908" r="6" class="c0"/>
<circle cx="824" cy="1060" r="6" class="c0"/>
<circle cx="874" cy="874" r="6" class="c0"/>
<circle cx="906" cy="522" r="6" class="c0"/>
<circle cx="954" cy="544" r="6" class="c0"/>
<circle cx="1084" cy="510" r="6" class="c0"/>
<circle cx="996" cy="944" r="6" class="c0"/>
<circle cx="938" cy="1022" r="6" class="c0"/>
<circle cx="820" cy="1042" r="6" class="c0"/>
<circle cx="908" cy="1160" r="6" class="c0"/>
<circle cx="842" cy="590" r="6" class="c0"/>
<circle cx="988" cy="524" r="6" class="c0"/>
<circle cx="1050" cy="1082" r="6" class="c0"/>
<circle cx="1122" cy="1054" r="6" class="c0"/>
<circle cx="924" cy="656" r="6" class="c0"/>
<circle cx="1090" cy="1114" r="6" class="c0"/>
<circle cx="864" cy="1012" r="6" class="c0"/>
<circle cx="766" cy="1074" r="6" class="c0"/>
<circle cx="1016" cy="1248" r="6" class="c0"/>
<circle cx="1018" cy="1176" r="6" class="c0"/>
<circle cx="784" cy="1226" r="6" class="c0"/>
<circle cx="974" cy="1178" r="6" class="c0"/>
<circle cx="1068" cy="1408" r="6" class="c0"/>
<circle cx="890" cy="598" r="6" class="c0"/>
<circle cx="876" cy="1398" r="6" class="c0"/>
<circle cx="1072" cy="1050" r="6" class="c0"/>
<circle cx="798" cy="1428" r="6" class="c0"/>
<circle cx="952" cy="1382" r="6" class="c0"/>
<circle cx="990" cy="1182" r="6" class="c0"/>
<circle cx="858" cy="698" r="6" class="c0"/>
<circle cx="1092" cy="934" r="6" class="c0"/>
<circle cx="822" cy="1118" r="6" class="c0"/>
<circle cx="780" cy="1378" r="6" class="c0"/>
<circle cx="954" cy="878" r="6" class="c0"/>
<circle cx="1060" cy="866" r="6" class="c0"/>
<circle cx="1014" cy="1142" r="6" class="c0"/>
<circle cx="858" cy="1428" r="6" class="c0"/>
<circle cx="864" cy="650" r="6" class="c0"/>
<circle cx="944" cy="1238" r="6" class="c0"/>
<circle cx="804" cy="980" r="6" class="c0"/>
<circle cx="952" cy="932" r="6" class="c0"/>
<circle cx="990" cy="1076" r="6" class="c0"/>
<circle cx="856" cy="714" r="6" class="c0"/>
<circle cx="824" cy="880" r="6" class="c0"/>
<circle cx="820" cy="1246" r="6" class="c0"/>
<circle cx="1030" cy="1376" r="6" class="c0"/>
<circle cx="924" cy="708" r="6" class="c0"/>
<circle cx="762" cy="1366" r="6" class="c0"/>
<circle cx="894" cy="1104" r="6" class="c0"/>
<circle cx="756" cy="1308" r="6" class="c0"/>
<circle cx="1142" cy="1268" r="6" class="c0"/>
<circle cx="1040" cy="1428" r="6" class="c0"/>
<circle cx="972" cy="550" r="6" class="c0"/>
<circle cx="940" cy="718" r="6" class="c0"/>
<circle cx="852" cy="728" r="6" class="c0"/>
<circle cx="1138" cy="1430" r="6" class="c0"/>
<circle cx="900" cy="1016" r="6" class="c0"/>
<circle cx="1066" cy="1326" r="6" class="c0"/>
<circle cx="880" cy="1314" r="6" class="c0"/>
<circle cx="1054" cy="470" r="6" class="c0"/>
<circle cx="752" cy="1322" r="6" class="c0"/>
<circle cx="874" cy="1050" r="6" class="c0"/>
<circle cx="832" cy="890" r="6" class="c0"/>
<circle cx="990" cy="718" r="6" class="c0"/>
<circle cx="1018" cy="1056" r="6" class="c0"/>
<circle cx="960" cy="1126" r="6" class="c0"/>
<circle cx="770" cy="1430" r="6" class="c0"/>
<circle cx="1144" cy="1358" r="6" class="c0"/>
<circle cx="930" cy="1004" r="6" class="c0"/>
<circle cx="802" cy="1166" r="6" class="c0"/>
<circle cx="892" cy="1006" r="6" class="c0"/>
<circle cx="876" cy="822" r="6" class="c0"/>
<circle cx="1058" cy="956" r="6" class="c0"/>
<circle cx="948" cy="802" r="6" class="c0"/>
<circle cx="924" cy="960" r="6" class="c0"/>
<circle cx="804" cy="510" r="6" class="c0"/>
<circle cx="790" cy="1296" r="6" class="c0"/>
<circle cx="886" cy="680" r="6" class="c0"/>
<circle cx="996" cy="568" r="6" class="c0"/>
<circle cx="1042" cy="550" r="6" class="c0"/>
<circle cx="958" cy="720" r="6" class="c0"/>
<circle cx="908" cy="808" r="6" class="c0"/>
<circle cx="1002" cy="838" r="6" class="c0"/>
<circle cx="816" cy="1152" r="6" class="c0"/>
<circle cx="1152" cy="1298" r="6" class="c0"/>
<circle cx="992" cy="1054" r="6" class="c0"/>
<circle cx="832" cy="932" r="6" class="c0"/>
<circle cx="790" cy="1018" r="6" class="c0"/>
<circle cx="878" cy="1348" r="6" class="c0"/>
<circle cx="808" cy="1368" r="6" class="c0"/>
<circle cx="1040" cy="646" r="6" class="c0"/>
<circle cx="1038" cy="1300" r="6" class="c0"/>
<circle cx="1080" cy="1254" r="6" class="c0"/>
<circle cx="874" cy="976" r="6" class="c0"/>
<circle cx="856" cy="600" r="6" class="c0"/>
<circle cx="990" cy="1326" r="6" class="c0"/>
<circle cx="956" cy="628" r="6" class="c0"/>
<circle cx="866" cy="480" r="6" class="c0"/>
<circle cx="1074" cy="1242" r="6" class="c0"/>
<circle cx="1008" cy="878" r="6" class="c0"/>
<circle cx="856" cy="570" r="6" class="c0"/>
<circle cx="970" cy="508" r="6" class="c0"/>
<circle cx="1076" cy="576" r="6" class="c0"/>
<circle cx="926" cy="1360" r="6" class="c0"/>
<circle cx="1082" cy="1324" r="6" class="c0"/>
<circle cx="882" cy="1142" r="6" class="c0"/>
<circle cx="970" cy="808" r="6" class="c0"/>
<circle cx="992" cy="484" r="6" class="c0"/>
<circle cx="1046" cy="1066" r="6" class="c0"/>
<circle cx="1046" cy="1150" r="6" class="c0"/>
<circle cx="1054" cy="564" r="6" class="c0"/>
<circle cx="968" cy="840" r="6" class="c0"/>
<circle cx="954" cy="774" r="6" class="c0"/>
<circle cx="864" cy="736" r="6" class="c0"/>
<circle cx="1002" cy="1112" r="6" class="c0"/>
<circle cx="896" cy="1198" r="6" class="c0"/>
<circle cx="1026" cy="1192" r="6" class="c0"/>
<circle cx="976" cy="1352" r="6" class="c0"/>
<circle cx="1180" cy="1432" r="6" class="c0"/>
<circle cx="898" cy="686" r="6" class="c0"/>
<circle cx="962" cy="500" r="6" class="c0"/>
<circle cx="990" cy="1390" r="6" class="c0"/>
<circle cx="952" cy="1284" r="6" class="c0"/>
<circle cx="820" cy="566" r="6" class="c0"/>
<circle cx="980" cy="516" r="6" class="c0"/>
<circle cx="880" cy="858" r="6" class="c0"/>
<circle cx="860" cy="908" r="6" class="c0"/>
<circle cx="1096" cy="1082" r="6" class="c0"/>
<circle cx="988" cy="778" r="6" class="c0"/>
<circle cx="862" cy="618" r="6" class="c0"/>
<circle cx="1040" cy="994" r="6" class="c0"/>
<circle cx="944" cy="1342" r="6" class="c0"/>
<circle cx="1028" cy="722" r="6" class="c0"/>
<circle cx="1038" cy="1116" r="6" class="c0"/>
<circle cx="1006" cy="1160" r="6" class="c0"/>
<circle cx="1010" cy="1104" r="6" class="c0"/>
<circle cx="1072" cy="538" r="6" class="c0"/>
<circle cx="984" cy="1196" r="6" class="c0"/>
<circle cx="1026" cy="750" r="6" class="c0"/>
<circle cx="746" cy="1156" r="6" class="c0"/>
<circle cx="822" cy="480" r="6" class="c0"/>
<circle cx="834" cy="1278" r="6" class="c0"/>
<circle cx="1068" cy="834" r="6" class="c0"/>
<circle cx="1058" cy="1024" r="6" class="c0"/>
<circle cx="1070" cy="788" r="6" class="c0"/>
<circle cx="824" cy="526" r="6" class="c0"/>
<circle cx="1032" cy="520" r="6" class="c0"/>
<circle cx="772" cy="1022" r="6" class="c0"/>
<circle cx="884" cy="576" r="6" class="c0"/>
<circle cx="1066" cy="940" r="6" class="c0"/>
<circle cx="886" cy="714" r="6" class="c0"/>
<circle cx="1112" cy="1392" r="6" class="c0"/>
<circle cx="1046" cy="618" r="6" class="c0"/>
<circle cx="1072" cy="1430" r="6" class="c0"/>
<circle cx="1084" cy="882" r="6" class="c0"/>
<circle cx="772" cy="1358" r="6" class="c0"/>
<circle cx="934" cy="1046" r="6" class="c0"/>
<circle cx="1098" cy="1066" r="6" class="c0"/>
<circle cx="1108" cy="1370" r="6" class="c0"/>
<circle cx="1052" cy="1002" r="6" class="c0"/>
<circle cx="1170" cy="1382" r="6" class="c0"/>
<circle cx="902" cy="486" r="6" class="c0"/>
<circle cx="888" cy="1302" r="6" class="c0"/>
<circle cx="768" cy="1414" r="6" class="c0"/>
<circle cx="944" cy="1010" r="6" class="c0"/>
<circle cx="946" cy="534" r="6" class="c0"/>
<circle cx="908" cy="650" r="6" class="c0"/>
<circle cx="1034" cy="1056" r="6" class="c0"/>
<circle cx="888" cy="752" r="6" class="c0"/>
<circle cx="906" cy="1044" r="6" class="c0"/>
<circle cx="760" cy="1128" r="6" class="c0"/>
<circle cx="1056" cy="608" r="6" class="c0"/>
<circle cx="900" cy="1432" r="6" class="c0"/>
<circle cx="1158" cy="1126" r="6" class="c0"/>
<circle cx="1116" cy="1184" r="6" class="c0"/>
<circle cx="756" cy="1062" r="6" class="c0"/>
<circle cx="952" cy="840" r="6" class="c0"/>
<circle cx="1000" cy="1148" r="6" class="c0"/>
<circle cx="1012" cy="778" r="6" class="c0"/>
<circle cx="812" cy="1126" r="6" class="c0"/>
<circle cx="908" cy="1024" r="6" class="c0"/>
<circle cx="884" cy="984" r="6" class="c0"/>
<circle cx="978" cy="680" r="6" class="c0"/>
<circle cx="962" cy="1414" r="6" class="c0"/>
<circle cx="990" cy="882" r="6" class="c0"/>
<circle cx="860" cy="1238" r="6" class="c0"/>
<circle cx="1004" cy="1320" r="6" class="c0"/>
<circle cx="932" cy="1100" r="6" class="c0"/>
<circle cx="926" cy="768" r="6" class="c0"/>
<circle cx="1130" cy="1234" r="6" class="c0"/>
<circle cx="766" cy="1320" r="6" class="c0"/>
<circle cx="882" cy="1166" r="6" class="c0"/>
<circle cx="794" cy="1258" r="6" class="c0"/>
<circle cx="840" cy="760" r="6" class="c0"/>
<circle cx="864" cy="816" r="6" class="c0"/>
<circle cx="790" cy="974" r="6" class="c0"/>
<circle cx="958" cy="944" r="6" class="c0"/>
<circle cx="978" cy="1020" r="6" class="c0"/>
<circle cx="846" cy="784" r="6" class="c0"/>
<circle cx="1006" cy="546" r="6" class="c0"/>
<circle cx="1102" cy="1284" r="6" class="c0"/>
<circle cx="1098" cy="518" r="6" class="c0"/>
<circle cx="886" cy="1390" r="6" class="c0"/>
<circle cx="1118" cy="1342" r="6" class="c0"/>
<circle cx="974" cy="952" r="6" class="c0"/>
<circle cx="960" cy="1432" r="6" class="c0"/>
<circle cx="1092" cy="1366" r="6" class="c0"/>
<circle cx="1076" cy="986" r="6" class="c0"/>
<circle cx="916" cy="666" r="6" class="c0"/>
<circle cx="1010" cy="830" r="6" class="c0"/>
<circle cx="1032" cy="584" r="6" class="c0"/>
<circle cx="966" cy="1028" r="6" class="c0"/>
<circle cx="962" cy="782" r="6" class="c0"/>
<circle cx="1174" cy="1410" r="6" class="c0"/>
<circle cx="868" cy="1358" r="6" class="c0"/>
<circle cx="1152" cy="1432" r="6" class="c0"/>
<circle cx="1022" cy="736" r="6" class="c0"/>
<circle cx="1078" cy="1382" r="6" class="c0"/>
<circle cx="922" cy="1014" r="6" class="c0"/>
<circle cx="844" cy="1332" r="6" class="c0"/>
<circle cx="1110" cy="1168" r="6" class="c0"/>
<circle cx="1050" cy="902" r="6" class="c0"/>
<circle cx="918" cy="1212" r="6" class="c0"/>
<circle cx="910" cy="1070" r="6" class="c0"/>
<circle cx="990" cy="1258" r="6" class="c0"/>
<circle cx="874" cy="510" r="6" class="c0"/>
<circle cx="912" cy="914" r="6" class="c0"/>
<circle cx="818" cy="892" r="6" class="c0"/>
<circle cx="902" cy="1096" r="6" class="c0"/>
<circle cx="1026" cy="932" r="6" class="c0"/>
<circle cx="1104" cy="1100" r="6" class="c0"/>
<circle cx="956" cy="794" r="6" class="c0"/>
<circle cx="938" cy="744" r="6" class="c0"/>
<circle cx="944" cy="888" r="6" class="c0"/>
<circle cx="826" cy="964" r="6" class="c0"/>
<circle cx="978" cy="564" r="6" class="c0"/>
<circle cx="822" cy="1010" r="6" class="c0"/>
<circle cx="954" cy="1406" r="6" class="c0"/>
<circle cx="954" cy="654" r="6" class="c0"/>
<circle cx="1096" cy="468" r="6" class="c0"/>
<circle cx="1046" cy="1260" r="6" class="c0"/>
<circle cx="1164" cy="1356" r="6" class="c0"/>
<circle cx="962" cy="1310" r="6" class="c0"/>
<circle cx="882" cy="1042" r="6" class="c0"/>
<circle cx="932" cy="1432" r="6" class="c0"/>
</svg>
