<?xml version="1.0" encoding="utf-8"?>
<svg xmlns="http://www.w3.org/2000/svg"
     xmlns:xlink="http://www.w3.org/1999/xlink" width="1920" height="1440" >

            <defs>
            <style type="text/css"><![CDATA[
circle {stroke: none;}
.c0 {fill: #FFFFFF;}
]]></style>
            </defs>
<rect x="0" y="0" width="1920" height="1440" fill="black"/>
<circle cx="1002" cy="734" r="12" class="c0"/>
<circle cx="1314" cy="742" r="12" class="c0"/>
<circle cx="958" cy="478" r="12" class="c0"/>
<circle cx="926" cy="442" r="12" class="c0"/>
<circle cx="1384" cy="740" r="12" class="c0"/>
<circle cx="1358" cy="766" r="12" class="c0"/>
<circle cx="1156" cy="682" r="12" class="c0"/>
<circle cx="954" cy="526" r="12" class="c0"/>
<circle cx="988" cy="624" r="12" class="c0"/>
<circle cx="1326" cy="770" r="12" class="c0"/>
<circle cx="920" cy="706" r="12" class="c0"/>
<circle cx="1242" cy="748" r="12" class="c0"/>
<circle cx="1240" cy="696" r="12" class="c0"/>
<circle cx="894" cy="414" r="12" class="c0"/>
<circle cx="1268" cy="752" r="12" class="c0"/>
<circle cx="1408" cy="722" r="12" class="c0"/>
<circle cx="1046" cy="742" r="12" class="c0"/>
<circle cx="1042" cy="780" r="12" class="c0"/>
<circle cx="1108" cy="728" r="12" class="c0"/>
<circle cx="954" cy="370" r="12" class="c0"/>
<circle cx="1028" cy="584" r="12" class="c0"/>
<circle cx="968" cy="660" r="12" class="c0"/>
<circle cx="926" cy="552" r="12" class="c0"/>
<circle cx="1044" cy="516" r="12" class="c0"/>
<circle cx="1304" cy="718" r="12" class="c0"/>
<circle cx="1162" cy="734" r="12" class="c0"/>
<circle cx="1030" cy="690" r="12" class="c0"/>
<circle cx="1042" cy="490" r="12" class="c0"/>
<circle cx="938" cy="406" r="12" class="c0"/>
<circle cx="1254" cy="718" r="10" class="c0"/>
<circle cx="944" cy="672" r="10" class="c0"/>
<circle cx="1316" cy="656" r="10" class="c0"/>
<circle cx="902" cy="436" r="10" class="c0"/>
<circle cx="1064" cy="694" r="10" class="c0"/>
<circle cx="1164" cy="706" r="10" class="c0"/>
<circle cx="1048" cy="600" r="10" class="c0"/>
<circle cx="1088" cy="690" r="10" class="c0"/>
<circle cx="1364" cy="674" r="10" class="c0"/>
<circle cx="706" cy="700" r="10" class="c0"/>
<circle cx="1294" cy="654" r="10" class="c0"/>
<circle cx="614" cy="676" r="10" class="c0"/>
<circle cx="1108" cy="666" r="10" class="c0"/>
<circle cx="978" cy="558" r="10" class="c0"/>
<circle cx="1024" cy="622" r="10" class="c0"/>
<circle cx="880" cy="494" r="10" class="c0"/>
<circle cx="1014" cy="716" r="10" class="c0"/>
<circle cx="1076" cy="490" r="10" class="c0"/>
<circle cx="1136" cy="714" r="10" class="c0"/>
<circle cx="1018" cy="666" r="10" class="c0"/>
<circle cx="1242" cy="666" r="10" class="c0"/>
<circle cx="1074" cy="512" r="10" class="c0"/>
<circle cx="1350" cy="742" r="10" class="c0"/>
<circle cx="1060" cy="580" r="10" class="c0"/>
<circle cx="1222" cy="734" r="10" class="c0"/>
<circle cx="1146" cy="654" r="10" class="c0"/>
<circle cx="1082" cy="586" r="10" class="c0"/>
<circle cx="992" cy="402" r="10" class="c0"/>
<circle cx="1254" cy="682" r="10" class="c0"/>
<circle cx="1068" cy="650" r="10" class="c0"/>
<circle cx="950" cy="566" r="10" class="c0"/>
<circle cx="874" cy="430" r="10" class="c0"/>
<circle cx="1018" cy="370" r="10" class="c0"/>
<circle cx="1030" cy="454" r="10" class="c0"/>
<circle cx="926" cy="586" r="10" class="c0"/>
<circle cx="1060" cy="672" r="10" class="c0"/>
<circle cx="966" cy="426" r="10" class="c0"/>
<circle cx="1046" cy="652" r="10" class="c0"/>
<circle cx="996" cy="432" r="10" class="c0"/>
<circle cx="910" cy="538" r="10" class="c0"/>
<circle cx="1000" cy="560" r="10" class="c0"/>
<circle cx="1126" cy="678" r="10" class="c0"/>
<circle cx="642" cy="694" r="10" class="c0"/>
<circle cx="1342" cy="692" r="10" class="c0"/>
<circle cx="944" cy="456" r="10" class="c0"/>
<circle cx="1010" cy="496" r="10" class="c0"/>
<circle cx="984" cy="374" r="10" class="c0"/>
<circle cx="1200" cy="748" r="10" class="c0"/>
<circle cx="860" cy="370" r="10" class="c0"/>
<circle cx="1062" cy="468" r="10" class="c0"/>
<circle cx="1016" cy="472" r="10" class="c0"/>
<circle cx="928" cy="730" r="10" class="c0"/>
<circle cx="1116" cy="698" r="10" class="c0"/>
<circle cx="1006" cy="452" r="10" class="c0"/>
<circle cx="692" cy="686" r="10" class="c0"/>
<circle cx="992" cy="476" r="10" class="c0"/>
<circle cx="1192" cy="676" r="10" class="c0"/>
<circle cx="768" cy="698" r="10" class="c0"/>
<circle cx="968" cy="394" r="10" class="c0"/>
<circle cx="1094" cy="530" r="8" class="c0"/>
<circle cx="1006" cy="696" r="8" class="c0"/>
<circle cx="1086" cy="732" r="8" class="c0"/>
<circle cx="1004" cy="636" r="8" class="c0"/>
<circle cx="996" cy="686" r="8" class="c0"/>
<circle cx="598" cy="690" r="8" class="c0"/>
<circle cx="674" cy="706" r="8" class="c0"/>
<circle cx="1362" cy="790" r="8" class="c0"/>
<circle cx="966" cy="452" r="8" class="c0"/>
<circle cx="1270" cy="694" r="8" class="c0"/>
<circle cx="1086" cy="710" r="8" class="c0"/>
<circle cx="1012" cy="548" r="8" class="c0"/>
<circle cx="1072" cy="766" r="8" class="c0"/>
<circle cx="1184" cy="700" r="8" class="c0"/>
<circle cx="1026" cy="648" r="8" class="c0"/>
<circle cx="858" cy="698" r="8" class="c0"/>
<circle cx="972" cy="702" r="8" class="c0"/>
<circle cx="1040" cy="712" r="8" class="c0"/>
<circle cx="980" cy="496" r="8" class="c0"/>
<circle cx="1328" cy="708" r="8" class="c0"/>
<circle cx="888" cy="700" r="8" class="c0"/>
<circle cx="1064" cy="622" r="8" class="c0"/>
<circle cx="1044" cy="386" r="8" class="c0"/>
<circle cx="958" cy="734" r="8" class="c0"/>
<circle cx="904" cy="686" r="8" class="c0"/>
<circle cx="920" cy="624" r="8" class="c0"/>
<circle cx="840" cy="360" r="8" class="c0"/>
<circle cx="1344" cy="720" r="8" class="c0"/>
<circle cx="870" cy="408" r="8" class="c0"/>
<circle cx="558" cy="668" r="8" class="c0"/>
<circle cx="794" cy="696" r="8" class="c0"/>
<circle cx="1064" cy="732" r="8" class="c0"/>
<circle cx="1292" cy="760" r="8" class="c0"/>
<circle cx="1422" cy="706" r="8" class="c0"/>
<circle cx="1290" cy="736" r="8" class="c0"/>
<circle cx="918" cy="396" r="8" class="c0"/>
<circle cx="1340" cy="670" r="8" class="c0"/>
<circle cx="1070" cy="786" r="8" class="c0"/>
<circle cx="1212" cy="664" r="8" class="c0"/>
<circle cx="942" cy="744" r="8" class="c0"/>
<circle cx="934" cy="604" r="8" class="c0"/>
<circle cx="878" cy="678" r="8" class="c0"/>
<circle cx="1012" cy="528" r="8" class="c0"/>
<circle cx="630" cy="710" r="8" class="c0"/>
<circle cx="1272" cy="656" r="8" class="c0"/>
<circle cx="1188" cy="734" r="8" class="c0"/>
<circle cx="1382" cy="712" r="8" class="c0"/>
<circle cx="1412" cy="764" r="8" class="c0"/>
<circle cx="850" cy="394" r="8" class="c0"/>
<circle cx="714" cy="718" r="8" class="c0"/>
<circle cx="982" cy="530" r="8" class="c0"/>
<circle cx="1108" cy="628" r="8" class="c0"/>
<circle cx="1006" cy="382" r="8" class="c0"/>
<circle cx="952" cy="694" r="8" class="c0"/>
<circle cx="1046" cy="624" r="8" class="c0"/>
<circle cx="1210" cy="708" r="8" class="c0"/>
<circle cx="730" cy="688" r="8" class="c0"/>
<circle cx="1366" cy="694" r="8" class="c0"/>
<circle cx="1428" cy="752" r="8" class="c0"/>
<circle cx="892" cy="664" r="8" class="c0"/>
<circle cx="964" cy="588" r="8" class="c0"/>
<circle cx="666" cy="678" r="8" class="c0"/>
<circle cx="970" cy="508" r="8" class="c0"/>
<circle cx="1008" cy="594" r="8" class="c0"/>
<circle cx="1072" cy="552" r="8" class="c0"/>
<circle cx="988" cy="578" r="8" class="c0"/>
<circle cx="916" cy="742" r="8" class="c0"/>
<circle cx="1128" cy="736" r="8" class="c0"/>
<circle cx="618" cy="696" r="8" class="c0"/>
<circle cx="1292" cy="696" r="8" class="c0"/>
<circle cx="1172" cy="668" r="8" class="c0"/>
<circle cx="1280" cy="714" r="8" class="c0"/>
<circle cx="1308" cy="686" r="8" class="c0"/>
<circle cx="988" cy="652" r="8" class="c0"/>
<circle cx="994" cy="708" r="8" class="c0"/>
<circle cx="1092" cy="620" r="8" class="c0"/>
<circle cx="926" cy="370" r="8" class="c0"/>
<circle cx="1386" cy="680" r="8" class="c0"/>
<circle cx="1178" cy="754" r="8" class="c0"/>
<circle cx="832" cy="406" r="8" class="c0"/>
<circle cx="880" cy="398" r="8" class="c0"/>
<circle cx="1110" cy="520" r="8" class="c0"/>
<circle cx="1134" cy="628" r="8" class="c0"/>
<circle cx="1358" cy="654" r="8" class="c0"/>
<circle cx="742" cy="700" r="8" class="c0"/>
<circle cx="1074" cy="748" r="8" class="c0"/>
<circle cx="1194" cy="716" r="8" class="c0"/>
<circle cx="968" cy="684" r="8" class="c0"/>
<circle cx="1042" cy="466" r="8" class="c0"/>
<circle cx="996" cy="604" r="8" class="c0"/>
<circle cx="1208" cy="690" r="8" class="c0"/>
<circle cx="906" cy="654" r="8" class="c0"/>
<circle cx="1020" cy="564" r="8" class="c0"/>
<circle cx="1392" cy="760" r="8" class="c0"/>
<circle cx="946" cy="712" r="8" class="c0"/>
<circle cx="868" cy="388" r="8" class="c0"/>
<circle cx="1384" cy="776" r="8" class="c0"/>
<circle cx="914" cy="468" r="8" class="c0"/>
<circle cx="856" cy="418" r="8" class="c0"/>
<circle cx="580" cy="670" r="8" class="c0"/>
<circle cx="994" cy="506" r="8" class="c0"/>
<circle cx="830" cy="698" r="8" class="c0"/>
<circle cx="1330" cy="680" r="8" class="c0"/>
<circle cx="752" cy="744" r="8" class="c0"/>
<circle cx="982" cy="720" r="8" class="c0"/>
<circle cx="914" cy="424" r="8" class="c0"/>
<circle cx="1224" cy="680" r="8" class="c0"/>
<circle cx="976" cy="466" r="8" class="c0"/>
<circle cx="1394" cy="696" r="8" class="c0"/>
<circle cx="1364" cy="722" r="8" class="c0"/>
<circle cx="1096" cy="504" r="8" class="c0"/>
<circle cx="1070" cy="600" r="8" class="c0"/>
<circle cx="774" cy="754" r="8" class="c0"/>
<circle cx="1220" cy="754" r="8" class="c0"/>
<circle cx="982" cy="444" r="8" class="c0"/>
<circle cx="1426" cy="732" r="8" class="c0"/>
<circle cx="932" cy="690" r="8" class="c0"/>
<circle cx="898" cy="516" r="8" class="c0"/>
<circle cx="1342" cy="784" r="8" class="c0"/>
<circle cx="812" cy="704" r="8" class="c0"/>
<circle cx="1254" cy="766" r="8" class="c0"/>
<circle cx="1284" cy="680" r="8" class="c0"/>
<circle cx="922" cy="680" r="8" class="c0"/>
<circle cx="692" cy="718" r="8" class="c0"/>
<circle cx="1094" cy="650" r="8" class="c0"/>
<circle cx="1054" cy="534" r="8" class="c0"/>
<circle cx="1326" cy="726" r="8" class="c0"/>
<circle cx="1038" cy="670" r="8" class="c0"/>
<circle cx="1378" cy="658" r="8" class="c0"/>
<circle cx="1078" cy="632" r="8" class="c0"/>
<circle cx="1338" cy="754" r="8" class="c0"/>
<circle cx="944" cy="428" r="8" class="c0"/>
<circle cx="752" cy="688" r="8" class="c0"/>
<circle cx="924" cy="478" r="8" class="c0"/>
<circle cx="738" cy="730" r="8" class="c0"/>
<circle cx="1354" cy="706" r="8" class="c0"/>
<circle cx="972" cy="604" r="8" class="c0"/>
<circle cx="1062" cy="714" r="8" class="c0"/>
<circle cx="1176" cy="720" r="8" class="c0"/>
<circle cx="1402" cy="750" r="8" class="c0"/>
<circle cx="1302" cy="772" r="8" class="c0"/>
<circle cx="1084" cy="566" r="8" class="c0"/>
<circle cx="998" cy="662" r="8" class="c0"/>
<circle cx="962" cy="548" r="8" class="c0"/>
<circle cx="872" cy="708" r="8" class="c0"/>
<circle cx="568" cy="680" r="8" class="c0"/>
<circle cx="1088" cy="668" r="6" class="c0"/>
<circle cx="1224" cy="716" r="6" class="c0"/>
<circle cx="1134" cy="696" r="6" class="c0"/>
<circle cx="904" cy="716" r="6" class="c0"/>
<circle cx="1026" cy="734" r="6" class="c0"/>
<circle cx="868" cy="688" r="6" class="c0"/>
<circle cx="1054" cy="760" r="6" class="c0"/>
<circle cx="1338" cy="650" r="6" class="c0"/>
<circle cx="632" cy="678" r="6" class="c0"/>
<circle cx="976" cy="642" r="6" class="c0"/>
<circle cx="1270" cy="726" r="6" class="c0"/>
<circle cx="1030" cy="604" r="6" class="c0"/>
<circle cx="986" cy="594" r="6" class="c0"/>
<circle cx="1020" cy="512" r="6" class="c0"/>
<circle cx="1058" cy="504" r="6" class="c0"/>
<circle cx="936" cy="534" r="6" class="c0"/>
<circle cx="974" cy="358" r="6" class="c0"/>
<circle cx="994" cy="358" r="6" class="c0"/>
<circle cx="1174" cy="628" r="6" class="c0"/>
<circle cx="954" cy="438" r="6" class="c0"/>
<circle cx="1020" cy="440" r="6" class="c0"/>
<circle cx="596" cy="668" r="6" class="c0"/>
<circle cx="1278" cy="770" r="6" class="c0"/>
<circle cx="658" cy="702" r="6" class="c0"/>
<circle cx="1006" cy="616" r="6" class="c0"/>
<circle cx="900" cy="392" r="6" class="c0"/>
<circle cx="1092" cy="600" r="6" class="c0"/>
<circle cx="1368" cy="750" r="6" class="c0"/>
<circle cx="712" cy="682" r="6" class="c0"/>
<circle cx="974" cy="742" r="6" class="c0"/>
<circle cx="1034" cy="532" r="6" class="c0"/>
<circle cx="1262" cy="666" r="6" class="c0"/>
<circle cx="992" cy="540" r="6" class="c0"/>
<circle cx="1060" cy="396" r="6" class="c0"/>
<circle cx="948" cy="494" r="6" class="c0"/>
<circle cx="902" cy="498" r="6" class="c0"/>
<circle cx="882" cy="512" r="6" class="c0"/>
<circle cx="1416" cy="742" r="6" class="c0"/>
<circle cx="868" cy="506" r="6" class="c0"/>
<circle cx="908" cy="638" r="6" class="c0"/>
<circle cx="1254" cy="654" r="6" class="c0"/>
<circle cx="982" cy="418" r="6" class="c0"/>
<circle cx="1034" cy="762" r="6" class="c0"/>
<circle cx="1052" cy="454" r="6" class="c0"/>
<circle cx="780" cy="686" r="6" class="c0"/>
<circle cx="938" cy="380" r="6" class="c0"/>
<circle cx="1304" cy="670" r="6" class="c0"/>
<circle cx="984" cy="676" r="6" class="c0"/>
<circle cx="1082" cy="610" r="6" class="c0"/>
<circle cx="1008" cy="576" r="6" class="c0"/>
<circle cx="1062" cy="562" r="6" class="c0"/>
<circle cx="946" cy="584" r="6" class="c0"/>
<circle cx="916" cy="570" r="6" class="c0"/>
<circle cx="822" cy="394" r="6" class="c0"/>
<circle cx="1158" cy="626" r="6" class="c0"/>
<circle cx="894" cy="484" r="6" class="c0"/>
<circle cx="1030" cy="504" r="6" class="c0"/>
<circle cx="1038" cy="800" r="6" class="c0"/>
<circle cx="840" cy="420" r="6" class="c0"/>
<circle cx="1198" cy="628" r="6" class="c0"/>
<circle cx="542" cy="666" r="6" class="c0"/>
<circle cx="946" cy="544" r="6" class="c0"/>
<circle cx="962" cy="718" r="6" class="c0"/>
<circle cx="552" cy="684" r="6" class="c0"/>
<circle cx="1056" cy="636" r="6" class="c0"/>
<circle cx="1412" cy="696" r="6" class="c0"/>
<circle cx="1130" cy="644" r="6" class="c0"/>
<circle cx="1230" cy="764" r="6" class="c0"/>
<circle cx="1240" cy="728" r="6" class="c0"/>
<circle cx="1076" cy="534" r="6" class="c0"/>
<circle cx="940" cy="486" r="6" class="c0"/>
<circle cx="1176" cy="686" r="6" class="c0"/>
<circle cx="1016" cy="746" r="6" class="c0"/>
<circle cx="1076" cy="722" r="6" class="c0"/>
<circle cx="906" cy="732" r="6" class="c0"/>
<circle cx="958" cy="408" r="6" class="c0"/>
<circle cx="648" cy="674" r="6" class="c0"/>
<circle cx="950" cy="392" r="6" class="c0"/>
<circle cx="1208" cy="724" r="6" class="c0"/>
<circle cx="844" cy="706" r="6" class="c0"/>
<circle cx="1028" cy="384" r="6" class="c0"/>
<circle cx="906" cy="454" r="6" class="c0"/>
<circle cx="1036" cy="634" r="6" class="c0"/>
<circle cx="726" cy="706" r="6" class="c0"/>
<circle cx="1318" cy="698" r="6" class="c0"/>
<circle cx="916" cy="380" r="6" class="c0"/>
<circle cx="722" cy="732" r="6" class="c0"/>
<circle cx="1106" cy="684" r="6" class="c0"/>
<circle cx="1118" cy="638" r="6" class="c0"/>
<circle cx="1084" cy="778" r="6" class="c0"/>
<circle cx="820" cy="688" r="6" class="c0"/>
<circle cx="938" cy="360" r="6" class="c0"/>
<circle cx="1330" cy="794" r="6" class="c0"/>
<circle cx="1102" cy="708" r="6" class="c0"/>
<circle cx="1078" cy="676" r="6" class="c0"/>
<circle cx="1098" cy="744" r="6" class="c0"/>
<circle cx="1376" cy="758" r="6" class="c0"/>
<circle cx="1432" cy="716" r="6" class="c0"/>
<circle cx="1146" cy="744" r="6" class="c0"/>
<circle cx="580" cy="690" r="6" class="c0"/>
<circle cx="1312" cy="782" r="6" class="c0"/>
<circle cx="1008" cy="652" r="6" class="c0"/>
<circle cx="888" cy="446" r="6" class="c0"/>
<circle cx="968" cy="572" r="6" class="c0"/>
<circle cx="1426" cy="772" r="6" class="c0"/>
<circle cx="996" cy="522" r="6" class="c0"/>
<circle cx="1256" cy="736" r="6" class="c0"/>
</svg>
