<?xml version="1.0" encoding="utf-8"?>
<svg xmlns="http://www.w3.org/2000/svg"
     xmlns:xlink="http://www.w3.org/1999/xlink" width="1920" height="1440" >

            <defs>
            <style type="text/css"><![CDATA[
circle {stroke: none;}
.c0 {fill: #FFFFFF;}
]]></style>
            </defs>
<rect x="0" y="0" width="1920" height="1440" fill="black"/>
<circle cx="1044" cy="750" r="12" class="c0"/>
<circle cx="1198" cy="724" r="12" class="c0"/>
<circle cx="1282" cy="762" r="12" class="c0"/>
<circle cx="1344" cy="784" r="12" class="c0"/>
<circle cx="1304" cy="710" r="12" class="c0"/>
<circle cx="1036" cy="516" r="12" class="c0"/>
<circle cx="858" cy="390" r="12" class="c0"/>
<circle cx="1076" cy="704" r="12" class="c0"/>
<circle cx="1368" cy="768" r="12" class="c0"/>
<circle cx="740" cy="700" r="12" class="c0"/>
<circle cx="956" cy="412" r="12" class="c0"/>
<circle cx="1420" cy="754" r="12" class="c0"/>
<circle cx="1060" cy="606" r="12" class="c0"/>
<circle cx="1254" cy="724" r="12" class="c0"/>
<circle cx="1078" cy="738" r="12" class="c0"/>
<circle cx="930" cy="698" r="12" class="c0"/>
<circle cx="832" cy="702" r="10" class="c0"/>
<circle cx="1022" cy="740" r="10" class="c0"/>
<circle cx="1264" cy="680" r="10" class="c0"/>
<circle cx="1020" cy="460" r="10" class="c0"/>
<circle cx="1054" cy="688" r="10" class="c0"/>
<circle cx="950" cy="744" r="10" class="c0"/>
<circle cx="1036" cy="608" r="10" class="c0"/>
<circle cx="1018" cy="548" r="10" class="c0"/>
<circle cx="886" cy="680" r="10" class="c0"/>
<circle cx="1382" cy="752" r="10" class="c0"/>
<circle cx="1310" cy="768" r="10" class="c0"/>
<circle cx="974" cy="542" r="10" class="c0"/>
<circle cx="996" cy="388" r="10" class="c0"/>
<circle cx="932" cy="392" r="10" class="c0"/>
<circle cx="1164" cy="716" r="10" class="c0"/>
<circle cx="1012" cy="642" r="10" class="c0"/>
<circle cx="842" cy="418" r="10" class="c0"/>
<circle cx="938" cy="436" r="10" class="c0"/>
<circle cx="1308" cy="744" r="10" class="c0"/>
<circle cx="962" cy="590" r="10" class="c0"/>
<circle cx="982" cy="562" r="10" class="c0"/>
<circle cx="918" cy="468" r="10" class="c0"/>
<circle cx="1008" cy="598" r="10" class="c0"/>
<circle cx="1146" cy="676" r="10" class="c0"/>
<circle cx="896" cy="442" r="10" class="c0"/>
<circle cx="1328" cy="700" r="10" class="c0"/>
<circle cx="962" cy="498" r="10" class="c0"/>
<circle cx="1346" cy="690" r="10" class="c0"/>
<circle cx="1056" cy="484" r="10" class="c0"/>
<circle cx="1278" cy="700" r="10" class="c0"/>
<circle cx="1332" cy="752" r="10" class="c0"/>
<circle cx="672" cy="692" r="10" class="c0"/>
<circle cx="944" cy="462" r="10" class="c0"/>
<circle cx="1120" cy="722" r="10" class="c0"/>
<circle cx="994" cy="520" r="10" class="c0"/>
<circle cx="866" cy="416" r="10" class="c0"/>
<circle cx="1034" cy="670" r="10" class="c0"/>
<circle cx="1380" cy="706" r="10" class="c0"/>
<circle cx="972" cy="654" r="10" class="c0"/>
<circle cx="1092" cy="752" r="10" class="c0"/>
<circle cx="966" cy="724" r="10" class="c0"/>
<circle cx="928" cy="548" r="10" class="c0"/>
<circle cx="1090" cy="536" r="10" class="c0"/>
<circle cx="1252" cy="668" r="10" class="c0"/>
<circle cx="642" cy="690" r="10" class="c0"/>
<circle cx="1014" cy="678" r="10" class="c0"/>
<circle cx="1176" cy="736" r="10" class="c0"/>
<circle cx="1010" cy="568" r="10" class="c0"/>
<circle cx="1042" cy="638" r="10" class="c0"/>
<circle cx="1228" cy="760" r="10" class="c0"/>
<circle cx="1180" cy="686" r="10" class="c0"/>
<circle cx="582" cy="690" r="10" class="c0"/>
<circle cx="1076" cy="678" r="10" class="c0"/>
<circle cx="992" cy="674" r="10" class="c0"/>
<circle cx="722" cy="726" r="10" class="c0"/>
<circle cx="1046" cy="542" r="10" class="c0"/>
<circle cx="954" cy="382" r="10" class="c0"/>
<circle cx="970" cy="458" r="10" class="c0"/>
<circle cx="896" cy="502" r="10" class="c0"/>
<circle cx="964" cy="694" r="10" class="c0"/>
<circle cx="800" cy="706" r="10" class="c0"/>
<circle cx="622" cy="700" r="10" class="c0"/>
<circle cx="1082" cy="630" r="10" class="c0"/>
<circle cx="952" cy="680" r="10" class="c0"/>
<circle cx="982" cy="372" r="8" class="c0"/>
<circle cx="982" cy="432" r="8" class="c0"/>
<circle cx="1208" cy="682" r="8" class="c0"/>
<circle cx="994" cy="544" r="8" class="c0"/>
<circle cx="896" cy="528" r="8" class="c0"/>
<circle cx="870" cy="694" r="8" class="c0"/>
<circle cx="692" cy="694" r="8" class="c0"/>
<circle cx="990" cy="698" r="8" class="c0"/>
<circle cx="1010" cy="704" r="8" class="c0"/>
<circle cx="1200" cy="766" r="8" class="c0"/>
<circle cx="1108" cy="672" r="8" class="c0"/>
<circle cx="988" cy="490" r="8" class="c0"/>
<circle cx="1362" cy="670" r="8" class="c0"/>
<circle cx="902" cy="412" r="8" class="c0"/>
<circle cx="896" cy="698" r="8" class="c0"/>
<circle cx="1142" cy="722" r="8" class="c0"/>
<circle cx="1364" cy="726" r="8" class="c0"/>
<circle cx="1394" cy="764" r="8" class="c0"/>
<circle cx="1156" cy="692" r="8" class="c0"/>
<circle cx="1054" cy="504" r="8" class="c0"/>
<circle cx="916" cy="636" r="8" class="c0"/>
<circle cx="1028" cy="720" r="8" class="c0"/>
<circle cx="980" cy="602" r="8" class="c0"/>
<circle cx="694" cy="720" r="8" class="c0"/>
<circle cx="1052" cy="400" r="8" class="c0"/>
<circle cx="1176" cy="760" r="8" class="c0"/>
<circle cx="560" cy="678" r="8" class="c0"/>
<circle cx="1320" cy="658" r="8" class="c0"/>
<circle cx="926" cy="618" r="8" class="c0"/>
<circle cx="998" cy="718" r="8" class="c0"/>
<circle cx="988" cy="630" r="8" class="c0"/>
<circle cx="1004" cy="502" r="8" class="c0"/>
<circle cx="1356" cy="804" r="8" class="c0"/>
<circle cx="1416" cy="710" r="8" class="c0"/>
<circle cx="928" cy="582" r="8" class="c0"/>
<circle cx="772" cy="696" r="8" class="c0"/>
<circle cx="1074" cy="656" r="8" class="c0"/>
<circle cx="956" cy="528" r="8" class="c0"/>
<circle cx="1340" cy="724" r="8" class="c0"/>
<circle cx="882" cy="406" r="8" class="c0"/>
<circle cx="908" cy="716" r="8" class="c0"/>
<circle cx="602" cy="694" r="8" class="c0"/>
<circle cx="1078" cy="580" r="8" class="c0"/>
<circle cx="1306" cy="672" r="8" class="c0"/>
<circle cx="1354" cy="712" r="8" class="c0"/>
<circle cx="1216" cy="744" r="8" class="c0"/>
<circle cx="1108" cy="742" r="8" class="c0"/>
<circle cx="1014" cy="522" r="8" class="c0"/>
<circle cx="1054" cy="786" r="8" class="c0"/>
<circle cx="1000" cy="478" r="8" class="c0"/>
<circle cx="1126" cy="700" r="8" class="c0"/>
<circle cx="1388" cy="728" r="8" class="c0"/>
<circle cx="1192" cy="750" r="8" class="c0"/>
<circle cx="738" cy="742" r="8" class="c0"/>
<circle cx="1242" cy="698" r="8" class="c0"/>
<circle cx="1218" cy="672" r="8" class="c0"/>
<circle cx="1094" cy="690" r="8" class="c0"/>
<circle cx="984" cy="582" r="8" class="c0"/>
<circle cx="1034" cy="492" r="8" class="c0"/>
<circle cx="1082" cy="800" r="8" class="c0"/>
<circle cx="1278" cy="660" r="8" class="c0"/>
<circle cx="1056" cy="720" r="8" class="c0"/>
<circle cx="916" cy="444" r="8" class="c0"/>
<circle cx="1102" cy="514" r="8" class="c0"/>
<circle cx="1042" cy="706" r="8" class="c0"/>
<circle cx="1016" cy="376" r="8" class="c0"/>
<circle cx="1416" cy="732" r="8" class="c0"/>
<circle cx="678" cy="712" r="8" class="c0"/>
<circle cx="932" cy="414" r="8" class="c0"/>
<circle cx="876" cy="432" r="8" class="c0"/>
<circle cx="1068" cy="526" r="8" class="c0"/>
<circle cx="1194" cy="700" r="8" class="c0"/>
<circle cx="1034" cy="386" r="8" class="c0"/>
<circle cx="1280" cy="722" r="8" class="c0"/>
<circle cx="990" cy="734" r="8" class="c0"/>
<circle cx="1146" cy="644" r="8" class="c0"/>
<circle cx="1248" cy="758" r="8" class="c0"/>
<circle cx="906" cy="652" r="8" class="c0"/>
<circle cx="1034" cy="782" r="8" class="c0"/>
<circle cx="996" cy="446" r="8" class="c0"/>
<circle cx="870" cy="716" r="8" class="c0"/>
<circle cx="1220" cy="722" r="8" class="c0"/>
<circle cx="1236" cy="678" r="8" class="c0"/>
<circle cx="1042" cy="460" r="8" class="c0"/>
<circle cx="978" cy="406" r="8" class="c0"/>
<circle cx="630" cy="718" r="8" class="c0"/>
<circle cx="1128" cy="750" r="8" class="c0"/>
<circle cx="1232" cy="736" r="8" class="c0"/>
<circle cx="1400" cy="744" r="8" class="c0"/>
<circle cx="1066" cy="762" r="8" class="c0"/>
<circle cx="1168" cy="674" r="8" class="c0"/>
<circle cx="1262" cy="748" r="8" class="c0"/>
<circle cx="920" cy="736" r="8" class="c0"/>
<circle cx="1060" cy="646" r="8" class="c0"/>
<circle cx="1084" cy="508" r="8" class="c0"/>
<circle cx="1430" cy="722" r="8" class="c0"/>
<circle cx="840" cy="378" r="8" class="c0"/>
<circle cx="1368" cy="694" r="8" class="c0"/>
<circle cx="1332" cy="670" r="8" class="c0"/>
<circle cx="1010" cy="622" r="8" class="c0"/>
<circle cx="952" cy="556" r="8" class="c0"/>
<circle cx="936" cy="484" r="8" class="c0"/>
<circle cx="884" cy="516" r="8" class="c0"/>
<circle cx="1294" cy="684" r="8" class="c0"/>
<circle cx="946" cy="578" r="8" class="c0"/>
<circle cx="656" cy="702" r="8" class="c0"/>
<circle cx="1222" cy="694" r="8" class="c0"/>
<circle cx="1052" cy="662" r="8" class="c0"/>
<circle cx="1108" cy="706" r="8" class="c0"/>
<circle cx="1074" cy="496" r="8" class="c0"/>
<circle cx="1316" cy="790" r="8" class="c0"/>
<circle cx="1018" cy="484" r="8" class="c0"/>
<circle cx="760" cy="760" r="8" class="c0"/>
<circle cx="824" cy="404" r="8" class="c0"/>
<circle cx="1114" cy="526" r="8" class="c0"/>
<circle cx="1350" cy="738" r="8" class="c0"/>
<circle cx="1120" cy="636" r="8" class="c0"/>
<circle cx="614" cy="678" r="8" class="c0"/>
<circle cx="1152" cy="740" r="8" class="c0"/>
<circle cx="1000" cy="654" r="8" class="c0"/>
<circle cx="1092" cy="722" r="8" class="c0"/>
<circle cx="1384" cy="686" r="8" class="c0"/>
<circle cx="910" cy="748" r="8" class="c0"/>
<circle cx="1000" cy="368" r="8" class="c0"/>
<circle cx="1094" cy="660" r="8" class="c0"/>
<circle cx="974" cy="516" r="8" class="c0"/>
<circle cx="1296" cy="658" r="8" class="c0"/>
<circle cx="944" cy="722" r="8" class="c0"/>
<circle cx="980" cy="712" r="8" class="c0"/>
<circle cx="914" cy="560" r="8" class="c0"/>
<circle cx="980" cy="746" r="8" class="c0"/>
<circle cx="1386" cy="788" r="8" class="c0"/>
<circle cx="1082" cy="604" r="8" class="c0"/>
<circle cx="1026" cy="586" r="8" class="c0"/>
<circle cx="1072" cy="788" r="8" class="c0"/>
<circle cx="1056" cy="584" r="8" class="c0"/>
<circle cx="992" cy="422" r="8" class="c0"/>
<circle cx="1004" cy="748" r="8" class="c0"/>
<circle cx="1146" cy="702" r="8" class="c0"/>
<circle cx="762" cy="708" r="8" class="c0"/>
<circle cx="936" cy="602" r="8" class="c0"/>
<circle cx="1080" cy="772" r="8" class="c0"/>
<circle cx="912" cy="538" r="8" class="c0"/>
<circle cx="980" cy="474" r="8" class="c0"/>
<circle cx="1434" cy="740" r="8" class="c0"/>
<circle cx="704" cy="710" r="8" class="c0"/>
<circle cx="854" cy="706" r="8" class="c0"/>
<circle cx="1058" cy="628" r="8" class="c0"/>
<circle cx="930" cy="750" r="8" class="c0"/>
<circle cx="878" cy="492" r="6" class="c0"/>
<circle cx="868" cy="508" r="6" class="c0"/>
<circle cx="1240" cy="772" r="6" class="c0"/>
<circle cx="1404" cy="722" r="6" class="c0"/>
<circle cx="952" cy="512" r="6" class="c0"/>
<circle cx="1394" cy="696" r="6" class="c0"/>
<circle cx="960" cy="444" r="6" class="c0"/>
<circle cx="1212" cy="704" r="6" class="c0"/>
<circle cx="1264" cy="772" r="6" class="c0"/>
<circle cx="1316" cy="728" r="6" class="c0"/>
<circle cx="1070" cy="470" r="6" class="c0"/>
<circle cx="902" cy="672" r="6" class="c0"/>
<circle cx="1030" cy="474" r="6" class="c0"/>
<circle cx="1322" cy="682" r="6" class="c0"/>
<circle cx="1120" cy="682" r="6" class="c0"/>
<circle cx="1130" cy="646" r="6" class="c0"/>
<circle cx="910" cy="426" r="6" class="c0"/>
<circle cx="890" cy="422" r="6" class="c0"/>
<circle cx="1354" cy="756" r="6" class="c0"/>
<circle cx="1260" cy="702" r="6" class="c0"/>
<circle cx="1232" cy="710" r="6" class="c0"/>
<circle cx="944" cy="368" r="6" class="c0"/>
<circle cx="964" cy="362" r="6" class="c0"/>
<circle cx="918" cy="406" r="6" class="c0"/>
<circle cx="962" cy="566" r="6" class="c0"/>
<circle cx="992" cy="462" r="6" class="c0"/>
<circle cx="1182" cy="712" r="6" class="c0"/>
<circle cx="1028" cy="694" r="6" class="c0"/>
<circle cx="880" cy="706" r="6" class="c0"/>
<circle cx="1290" cy="738" r="6" class="c0"/>
<circle cx="946" cy="540" r="6" class="c0"/>
<circle cx="972" cy="390" r="6" class="c0"/>
<circle cx="1396" cy="714" r="6" class="c0"/>
<circle cx="1332" cy="800" r="6" class="c0"/>
<circle cx="1066" cy="546" r="6" class="c0"/>
<circle cx="1100" cy="636" r="6" class="c0"/>
<circle cx="1324" cy="718" r="6" class="c0"/>
<circle cx="708" cy="692" r="6" class="c0"/>
<circle cx="1170" cy="640" r="6" class="c0"/>
<circle cx="1192" cy="642" r="6" class="c0"/>
<circle cx="550" cy="688" r="6" class="c0"/>
<circle cx="1024" cy="502" r="6" class="c0"/>
<circle cx="960" cy="472" r="6" class="c0"/>
<circle cx="1112" cy="760" r="6" class="c0"/>
<circle cx="564" cy="694" r="6" class="c0"/>
<circle cx="544" cy="674" r="6" class="c0"/>
<circle cx="888" cy="716" r="6" class="c0"/>
<circle cx="1044" cy="804" r="6" class="c0"/>
<circle cx="594" cy="678" r="6" class="c0"/>
<circle cx="1362" cy="748" r="6" class="c0"/>
<circle cx="1066" cy="570" r="6" class="c0"/>
<circle cx="936" cy="568" r="6" class="c0"/>
<circle cx="1138" cy="658" r="6" class="c0"/>
<circle cx="1030" cy="626" r="6" class="c0"/>
<circle cx="950" cy="706" r="6" class="c0"/>
<circle cx="998" cy="612" r="6" class="c0"/>
<circle cx="1344" cy="660" r="6" class="c0"/>
<circle cx="818" cy="712" r="6" class="c0"/>
<circle cx="1366" cy="792" r="6" class="c0"/>
<circle cx="966" cy="428" r="6" class="c0"/>
<circle cx="1410" cy="772" r="6" class="c0"/>
<circle cx="1274" cy="738" r="6" class="c0"/>
<circle cx="976" cy="682" r="6" class="c0"/>
<circle cx="720" cy="702" r="6" class="c0"/>
<circle cx="1020" cy="658" r="6" class="c0"/>
<circle cx="1312" cy="690" r="6" class="c0"/>
<circle cx="1298" cy="784" r="6" class="c0"/>
<circle cx="924" cy="718" r="6" class="c0"/>
<circle cx="906" cy="688" r="6" class="c0"/>
<circle cx="1008" cy="730" r="6" class="c0"/>
<circle cx="910" cy="394" r="6" class="c0"/>
<circle cx="1328" cy="772" r="6" class="c0"/>
<circle cx="1052" cy="770" r="6" class="c0"/>
<circle cx="858" cy="432" r="6" class="c0"/>
<circle cx="1028" cy="534" r="6" class="c0"/>
<circle cx="1274" cy="780" r="6" class="c0"/>
<circle cx="1160" cy="754" r="6" class="c0"/>
<circle cx="1330" cy="734" r="6" class="c0"/>
<circle cx="970" cy="574" r="6" class="c0"/>
<circle cx="1112" cy="690" r="6" class="c0"/>
<circle cx="968" cy="672" r="6" class="c0"/>
<circle cx="1136" cy="690" r="6" class="c0"/>
<circle cx="1194" cy="670" r="6" class="c0"/>
<circle cx="978" cy="618" r="6" class="c0"/>
<circle cx="1078" cy="562" r="6" class="c0"/>
<circle cx="930" cy="372" r="6" class="c0"/>
<circle cx="814" cy="696" r="6" class="c0"/>
<circle cx="1032" cy="764" r="6" class="c0"/>
<circle cx="782" cy="712" r="6" class="c0"/>
<circle cx="930" cy="452" r="6" class="c0"/>
<circle cx="840" cy="398" r="6" class="c0"/>
<circle cx="1028" cy="650" r="6" class="c0"/>
<circle cx="640" cy="708" r="6" class="c0"/>
<circle cx="1058" cy="464" r="6" class="c0"/>
<circle cx="1132" cy="734" r="6" class="c0"/>
<circle cx="1422" cy="780" r="6" class="c0"/>
<circle cx="704" cy="732" r="6" class="c0"/>
<circle cx="1436" cy="776" r="6" class="c0"/>
<circle cx="864" cy="370" r="6" class="c0"/>
<circle cx="1158" cy="664" r="6" class="c0"/>
<circle cx="658" cy="682" r="6" class="c0"/>
<circle cx="938" cy="532" r="6" class="c0"/>
<circle cx="1042" cy="728" r="6" class="c0"/>
<circle cx="1298" cy="730" r="6" class="c0"/>
<circle cx="1046" cy="594" r="6" class="c0"/>
<circle cx="920" cy="486" r="6" class="c0"/>
<circle cx="952" cy="482" r="6" class="c0"/>
<circle cx="1004" cy="534" r="6" class="c0"/>
<circle cx="906" cy="456" r="6" class="c0"/>
<circle cx="918" cy="592" r="6" class="c0"/>
<circle cx="1374" cy="736" r="6" class="c0"/>
<circle cx="1058" cy="736" r="6" class="c0"/>
<circle cx="576" cy="672" r="6" class="c0"/>
<circle cx="724" cy="688" r="6" class="c0"/>
</svg>
