<?xml version="1.0" encoding="utf-8"?>
<svg xmlns="http://www.w3.org/2000/svg"
     xmlns:xlink="http://www.w3.org/1999/xlink" width="1920" height="1440" >

            <defs>
            <style type="text/css"><![CDATA[
circle {stroke: none;}
.c0 {fill: #FFFFFF;}
]]></style>
            </defs>
<rect x="0" y="0" width="1920" height="1440" fill="black"/>
<circle cx="1350" cy="688" r="12" class="c0"/>
<circle cx="978" cy="672" r="12" class="c0"/>
<circle cx="1396" cy="746" r="12" class="c0"/>
<circle cx="994" cy="494" r="12" class="c0"/>
<circle cx="1140" cy="734" r="12" class="c0"/>
<circle cx="976" cy="740" r="12" class="c0"/>
<circle cx="1174" cy="726" r="12" class="c0"/>
<circle cx="682" cy="710" r="12" class="c0"/>
<circle cx="1070" cy="714" r="12" class="c0"/>
<circle cx="974" cy="584" r="12" class="c0"/>
<circle cx="930" cy="710" r="12" class="c0"/>
<circle cx="1334" cy="770" r="12" class="c0"/>
<circle cx="1060" cy="652" r="12" class="c0"/>
<circle cx="650" cy="702" r="12" class="c0"/>
<circle cx="1330" cy="720" r="12" class="c0"/>
<circle cx="996" cy="638" r="12" class="c0"/>
<circle cx="926" cy="388" r="12" class="c0"/>
<circle cx="1136" cy="692" r="12" class="c0"/>
<circle cx="1044" cy="542" r="12" class="c0"/>
<circle cx="940" cy="458" r="12" class="c0"/>
<circle cx="1110" cy="702" r="12" class="c0"/>
<circle cx="1058" cy="782" r="12" class="c0"/>
<circle cx="986" cy="418" r="10" class="c0"/>
<circle cx="1248" cy="734" r="10" class="c0"/>
<circle cx="842" cy="422" r="10" class="c0"/>
<circle cx="1052" cy="696" r="10" class="c0"/>
<circle cx="990" cy="542" r="10" class="c0"/>
<circle cx="1356" cy="794" r="10" class="c0"/>
<circle cx="1070" cy="752" r="10" class="c0"/>
<circle cx="1002" cy="576" r="10" class="c0"/>
<circle cx="1088" cy="762" r="10" class="c0"/>
<circle cx="1256" cy="694" r="10" class="c0"/>
<circle cx="1078" cy="532" r="10" class="c0"/>
<circle cx="1018" cy="724" r="10" class="c0"/>
<circle cx="960" cy="516" r="10" class="c0"/>
<circle cx="702" cy="722" r="10" class="c0"/>
<circle cx="724" cy="736" r="10" class="c0"/>
<circle cx="1014" cy="596" r="10" class="c0"/>
<circle cx="984" cy="618" r="10" class="c0"/>
<circle cx="1218" cy="716" r="10" class="c0"/>
<circle cx="942" cy="748" r="10" class="c0"/>
<circle cx="902" cy="702" r="10" class="c0"/>
<circle cx="1016" cy="382" r="10" class="c0"/>
<circle cx="924" cy="620" r="10" class="c0"/>
<circle cx="1040" cy="512" r="10" class="c0"/>
<circle cx="974" cy="386" r="10" class="c0"/>
<circle cx="992" cy="714" r="10" class="c0"/>
<circle cx="912" cy="424" r="10" class="c0"/>
<circle cx="960" cy="470" r="10" class="c0"/>
<circle cx="618" cy="686" r="10" class="c0"/>
<circle cx="1368" cy="714" r="10" class="c0"/>
<circle cx="956" cy="376" r="10" class="c0"/>
<circle cx="1294" cy="668" r="10" class="c0"/>
<circle cx="1366" cy="772" r="10" class="c0"/>
<circle cx="1036" cy="628" r="10" class="c0"/>
<circle cx="1366" cy="736" r="10" class="c0"/>
<circle cx="810" cy="706" r="10" class="c0"/>
<circle cx="1022" cy="748" r="10" class="c0"/>
<circle cx="1326" cy="676" r="10" class="c0"/>
<circle cx="1168" cy="696" r="10" class="c0"/>
<circle cx="978" cy="702" r="10" class="c0"/>
<circle cx="944" cy="428" r="10" class="c0"/>
<circle cx="1014" cy="690" r="10" class="c0"/>
<circle cx="1218" cy="748" r="10" class="c0"/>
<circle cx="1152" cy="716" r="10" class="c0"/>
<circle cx="1314" cy="786" r="10" class="c0"/>
<circle cx="1286" cy="754" r="10" class="c0"/>
<circle cx="1084" cy="640" r="10" class="c0"/>
<circle cx="934" cy="602" r="10" class="c0"/>
<circle cx="918" cy="476" r="10" class="c0"/>
<circle cx="1294" cy="702" r="10" class="c0"/>
<circle cx="1040" cy="482" r="10" class="c0"/>
<circle cx="1080" cy="692" r="10" class="c0"/>
<circle cx="972" cy="446" r="10" class="c0"/>
<circle cx="1270" cy="776" r="10" class="c0"/>
<circle cx="922" cy="732" r="10" class="c0"/>
<circle cx="724" cy="706" r="10" class="c0"/>
<circle cx="1198" cy="688" r="10" class="c0"/>
<circle cx="1006" cy="670" r="10" class="c0"/>
<circle cx="1194" cy="764" r="10" class="c0"/>
<circle cx="846" cy="384" r="10" class="c0"/>
<circle cx="896" cy="504" r="10" class="c0"/>
<circle cx="1306" cy="724" r="10" class="c0"/>
<circle cx="1416" cy="722" r="10" class="c0"/>
<circle cx="988" cy="460" r="10" class="c0"/>
<circle cx="1426" cy="770" r="10" class="c0"/>
<circle cx="962" cy="688" r="10" class="c0"/>
<circle cx="1014" cy="626" r="8" class="c0"/>
<circle cx="974" cy="528" r="8" class="c0"/>
<circle cx="1062" cy="622" r="8" class="c0"/>
<circle cx="1244" cy="714" r="8" class="c0"/>
<circle cx="1276" cy="712" r="8" class="c0"/>
<circle cx="856" cy="714" r="8" class="c0"/>
<circle cx="1060" cy="502" r="8" class="c0"/>
<circle cx="880" cy="692" r="8" class="c0"/>
<circle cx="592" cy="682" r="8" class="c0"/>
<circle cx="958" cy="564" r="8" class="c0"/>
<circle cx="1150" cy="676" r="8" class="c0"/>
<circle cx="1066" cy="476" r="8" class="c0"/>
<circle cx="964" cy="408" r="8" class="c0"/>
<circle cx="1224" cy="676" r="8" class="c0"/>
<circle cx="1052" cy="402" r="8" class="c0"/>
<circle cx="1020" cy="534" r="8" class="c0"/>
<circle cx="1390" cy="700" r="8" class="c0"/>
<circle cx="1054" cy="742" r="8" class="c0"/>
<circle cx="1036" cy="778" r="8" class="c0"/>
<circle cx="1068" cy="574" r="8" class="c0"/>
<circle cx="1108" cy="728" r="8" class="c0"/>
<circle cx="1106" cy="752" r="8" class="c0"/>
<circle cx="978" cy="554" r="8" class="c0"/>
<circle cx="1240" cy="752" r="8" class="c0"/>
<circle cx="1020" cy="470" r="8" class="c0"/>
<circle cx="616" cy="708" r="8" class="c0"/>
<circle cx="890" cy="420" r="8" class="c0"/>
<circle cx="1346" cy="734" r="8" class="c0"/>
<circle cx="754" cy="708" r="8" class="c0"/>
<circle cx="918" cy="574" r="8" class="c0"/>
<circle cx="1126" cy="754" r="8" class="c0"/>
<circle cx="948" cy="674" r="8" class="c0"/>
<circle cx="942" cy="580" r="8" class="c0"/>
<circle cx="874" cy="412" r="8" class="c0"/>
<circle cx="1108" cy="534" r="8" class="c0"/>
<circle cx="854" cy="408" r="8" class="c0"/>
<circle cx="1258" cy="672" r="8" class="c0"/>
<circle cx="882" cy="442" r="8" class="c0"/>
<circle cx="1106" cy="678" r="8" class="c0"/>
<circle cx="604" cy="698" r="8" class="c0"/>
<circle cx="1348" cy="752" r="8" class="c0"/>
<circle cx="1198" cy="732" r="8" class="c0"/>
<circle cx="948" cy="490" r="8" class="c0"/>
<circle cx="1034" cy="706" r="8" class="c0"/>
<circle cx="996" cy="606" r="8" class="c0"/>
<circle cx="1272" cy="662" r="8" class="c0"/>
<circle cx="1314" cy="748" r="8" class="c0"/>
<circle cx="1280" cy="690" r="8" class="c0"/>
<circle cx="906" cy="454" r="8" class="c0"/>
<circle cx="1066" cy="592" r="8" class="c0"/>
<circle cx="1020" cy="510" r="8" class="c0"/>
<circle cx="938" cy="688" r="8" class="c0"/>
<circle cx="1032" cy="606" r="8" class="c0"/>
<circle cx="1386" cy="774" r="8" class="c0"/>
<circle cx="1230" cy="764" r="8" class="c0"/>
<circle cx="876" cy="714" r="8" class="c0"/>
<circle cx="1372" cy="692" r="8" class="c0"/>
<circle cx="1034" cy="670" r="8" class="c0"/>
<circle cx="946" cy="398" r="8" class="c0"/>
<circle cx="1164" cy="748" r="8" class="c0"/>
<circle cx="1134" cy="662" r="8" class="c0"/>
<circle cx="1184" cy="706" r="8" class="c0"/>
<circle cx="1262" cy="722" r="8" class="c0"/>
<circle cx="944" cy="552" r="8" class="c0"/>
<circle cx="1000" cy="438" r="8" class="c0"/>
<circle cx="1116" cy="636" r="8" class="c0"/>
<circle cx="1258" cy="750" r="8" class="c0"/>
<circle cx="1036" cy="800" r="8" class="c0"/>
<circle cx="992" cy="522" r="8" class="c0"/>
<circle cx="876" cy="516" r="8" class="c0"/>
<circle cx="740" cy="748" r="8" class="c0"/>
<circle cx="1422" cy="750" r="8" class="c0"/>
<circle cx="1080" cy="792" r="8" class="c0"/>
<circle cx="992" cy="396" r="8" class="c0"/>
<circle cx="1056" cy="522" r="8" class="c0"/>
<circle cx="1388" cy="720" r="8" class="c0"/>
<circle cx="994" cy="684" r="8" class="c0"/>
<circle cx="1080" cy="620" r="8" class="c0"/>
<circle cx="1322" cy="698" r="8" class="c0"/>
<circle cx="1226" cy="696" r="8" class="c0"/>
<circle cx="1084" cy="664" r="8" class="c0"/>
<circle cx="1046" cy="462" r="8" class="c0"/>
<circle cx="896" cy="676" r="8" class="c0"/>
<circle cx="1432" cy="732" r="8" class="c0"/>
<circle cx="1374" cy="674" r="8" class="c0"/>
<circle cx="1348" cy="664" r="8" class="c0"/>
<circle cx="924" cy="446" r="8" class="c0"/>
<circle cx="782" cy="704" r="8" class="c0"/>
<circle cx="1334" cy="794" r="8" class="c0"/>
<circle cx="1376" cy="756" r="8" class="c0"/>
<circle cx="920" cy="550" r="8" class="c0"/>
<circle cx="916" cy="638" r="8" class="c0"/>
<circle cx="942" cy="528" r="8" class="c0"/>
<circle cx="546" cy="680" r="8" class="c0"/>
<circle cx="700" cy="692" r="8" class="c0"/>
<circle cx="1020" cy="646" r="8" class="c0"/>
<circle cx="866" cy="396" r="8" class="c0"/>
<circle cx="836" cy="716" r="8" class="c0"/>
<circle cx="1008" cy="552" r="8" class="c0"/>
<circle cx="888" cy="526" r="8" class="c0"/>
<circle cx="1050" cy="604" r="8" class="c0"/>
<circle cx="970" cy="488" r="8" class="c0"/>
<circle cx="860" cy="434" r="8" class="c0"/>
<circle cx="954" cy="720" r="8" class="c0"/>
<circle cx="1082" cy="584" r="8" class="c0"/>
<circle cx="1000" cy="744" r="8" class="c0"/>
<circle cx="568" cy="678" r="8" class="c0"/>
<circle cx="1088" cy="726" r="8" class="c0"/>
<circle cx="582" cy="692" r="8" class="c0"/>
<circle cx="1302" cy="766" r="8" class="c0"/>
<circle cx="988" cy="372" r="8" class="c0"/>
<circle cx="1024" cy="576" r="8" class="c0"/>
<circle cx="958" cy="542" r="8" class="c0"/>
<circle cx="1050" cy="762" r="8" class="c0"/>
<circle cx="968" cy="426" r="8" class="c0"/>
<circle cx="900" cy="536" r="8" class="c0"/>
<circle cx="918" cy="752" r="8" class="c0"/>
<circle cx="1044" cy="730" r="8" class="c0"/>
<circle cx="1282" cy="732" r="8" class="c0"/>
<circle cx="1202" cy="666" r="8" class="c0"/>
<circle cx="956" cy="600" r="8" class="c0"/>
<circle cx="902" cy="658" r="8" class="c0"/>
<circle cx="1292" cy="780" r="8" class="c0"/>
<circle cx="906" cy="722" r="8" class="c0"/>
<circle cx="1092" cy="520" r="8" class="c0"/>
<circle cx="1070" cy="674" r="8" class="c0"/>
<circle cx="1034" cy="394" r="8" class="c0"/>
<circle cx="928" cy="410" r="8" class="c0"/>
<circle cx="744" cy="696" r="8" class="c0"/>
<circle cx="1128" cy="712" r="8" class="c0"/>
<circle cx="758" cy="762" r="8" class="c0"/>
<circle cx="1170" cy="676" r="8" class="c0"/>
<circle cx="1184" cy="748" r="8" class="c0"/>
<circle cx="1306" cy="690" r="8" class="c0"/>
<circle cx="1174" cy="758" r="8" class="c0"/>
<circle cx="1240" cy="684" r="8" class="c0"/>
<circle cx="1096" cy="544" r="8" class="c0"/>
<circle cx="1038" cy="648" r="8" class="c0"/>
<circle cx="1016" cy="490" r="8" class="c0"/>
<circle cx="1072" cy="512" r="8" class="c0"/>
<circle cx="1002" cy="474" r="8" class="c0"/>
<circle cx="976" cy="650" r="8" class="c0"/>
<circle cx="932" cy="564" r="8" class="c0"/>
<circle cx="1314" cy="662" r="8" class="c0"/>
<circle cx="1144" cy="646" r="8" class="c0"/>
<circle cx="1406" cy="768" r="8" class="c0"/>
<circle cx="1376" cy="800" r="8" class="c0"/>
<circle cx="1066" cy="548" r="8" class="c0"/>
<circle cx="1014" cy="448" r="6" class="c0"/>
<circle cx="982" cy="510" r="6" class="c0"/>
<circle cx="900" cy="438" r="6" class="c0"/>
<circle cx="672" cy="686" r="6" class="c0"/>
<circle cx="900" cy="406" r="6" class="c0"/>
<circle cx="974" cy="720" r="6" class="c0"/>
<circle cx="1408" cy="706" r="6" class="c0"/>
<circle cx="970" cy="366" r="6" class="c0"/>
<circle cx="1348" cy="712" r="6" class="c0"/>
<circle cx="1400" cy="784" r="6" class="c0"/>
<circle cx="1050" cy="672" r="6" class="c0"/>
<circle cx="972" cy="606" r="6" class="c0"/>
<circle cx="888" cy="724" r="6" class="c0"/>
<circle cx="826" cy="410" r="6" class="c0"/>
<circle cx="1024" cy="554" r="6" class="c0"/>
<circle cx="1076" cy="774" r="6" class="c0"/>
<circle cx="1250" cy="772" r="6" class="c0"/>
<circle cx="1076" cy="604" r="6" class="c0"/>
<circle cx="1188" cy="648" r="6" class="c0"/>
<circle cx="944" cy="730" r="6" class="c0"/>
<circle cx="1438" cy="758" r="6" class="c0"/>
<circle cx="874" cy="500" r="6" class="c0"/>
<circle cx="1332" cy="742" r="6" class="c0"/>
<circle cx="1124" cy="652" r="6" class="c0"/>
<circle cx="960" cy="754" r="6" class="c0"/>
<circle cx="1118" cy="738" r="6" class="c0"/>
<circle cx="938" cy="374" r="6" class="c0"/>
<circle cx="792" cy="716" r="6" class="c0"/>
<circle cx="1200" cy="714" r="6" class="c0"/>
<circle cx="634" cy="712" r="6" class="c0"/>
<circle cx="1086" cy="742" r="6" class="c0"/>
<circle cx="952" cy="702" r="6" class="c0"/>
<circle cx="624" cy="724" r="6" class="c0"/>
<circle cx="1036" cy="688" r="6" class="c0"/>
<circle cx="1004" cy="512" r="6" class="c0"/>
<circle cx="658" cy="684" r="6" class="c0"/>
<circle cx="638" cy="684" r="6" class="c0"/>
<circle cx="564" cy="694" r="6" class="c0"/>
<circle cx="1330" cy="658" r="6" class="c0"/>
<circle cx="838" cy="400" r="6" class="c0"/>
<circle cx="1068" cy="412" r="6" class="c0"/>
<circle cx="1214" cy="766" r="6" class="c0"/>
<circle cx="992" cy="562" r="6" class="c0"/>
<circle cx="1004" cy="532" r="6" class="c0"/>
<circle cx="992" cy="658" r="6" class="c0"/>
<circle cx="1164" cy="646" r="6" class="c0"/>
<circle cx="1364" cy="662" r="6" class="c0"/>
<circle cx="1070" cy="804" r="6" class="c0"/>
<circle cx="842" cy="700" r="6" class="c0"/>
<circle cx="1298" cy="742" r="6" class="c0"/>
<circle cx="772" cy="770" r="6" class="c0"/>
<circle cx="772" cy="714" r="6" class="c0"/>
<circle cx="1122" cy="680" r="6" class="c0"/>
<circle cx="834" cy="372" r="6" class="c0"/>
<circle cx="1238" cy="666" r="6" class="c0"/>
<circle cx="630" cy="698" r="6" class="c0"/>
<circle cx="1228" cy="734" r="6" class="c0"/>
<circle cx="1078" cy="562" r="6" class="c0"/>
<circle cx="1068" cy="734" r="6" class="c0"/>
<circle cx="1030" cy="456" r="6" class="c0"/>
<circle cx="1104" cy="646" r="6" class="c0"/>
<circle cx="982" cy="478" r="6" class="c0"/>
<circle cx="766" cy="696" r="6" class="c0"/>
<circle cx="1100" cy="632" r="6" class="c0"/>
<circle cx="1116" cy="764" r="6" class="c0"/>
<circle cx="918" cy="694" r="6" class="c0"/>
<circle cx="1034" cy="760" r="6" class="c0"/>
<circle cx="1006" cy="458" r="6" class="c0"/>
<circle cx="1388" cy="790" r="6" class="c0"/>
<circle cx="1090" cy="706" r="6" class="c0"/>
<circle cx="864" cy="700" r="6" class="c0"/>
<circle cx="1272" cy="742" r="6" class="c0"/>
<circle cx="890" cy="456" r="6" class="c0"/>
<circle cx="1414" cy="782" r="6" class="c0"/>
<circle cx="868" cy="378" r="6" class="c0"/>
<circle cx="922" cy="590" r="6" class="c0"/>
<circle cx="910" cy="560" r="6" class="c0"/>
<circle cx="912" cy="400" r="6" class="c0"/>
<circle cx="1208" cy="702" r="6" class="c0"/>
<circle cx="928" cy="492" r="6" class="c0"/>
<circle cx="1004" cy="370" r="6" class="c0"/>
<circle cx="1010" cy="708" r="6" class="c0"/>
<circle cx="936" cy="480" r="6" class="c0"/>
<circle cx="954" cy="444" r="6" class="c0"/>
<circle cx="1034" cy="590" r="6" class="c0"/>
<circle cx="1002" cy="408" r="6" class="c0"/>
<circle cx="908" cy="742" r="6" class="c0"/>
<circle cx="1338" cy="702" r="6" class="c0"/>
<circle cx="962" cy="662" r="6" class="c0"/>
<circle cx="1048" cy="714" r="6" class="c0"/>
<circle cx="1070" cy="492" r="6" class="c0"/>
<circle cx="1098" cy="716" r="6" class="c0"/>
<circle cx="956" cy="738" r="6" class="c0"/>
<circle cx="1030" cy="498" r="6" class="c0"/>
<circle cx="1148" cy="752" r="6" class="c0"/>
<circle cx="1188" cy="674" r="6" class="c0"/>
</svg>
