<?xml version="1.0" encoding="utf-8"?>
<svg xmlns="http://www.w3.org/2000/svg"
     xmlns:xlink="http://www.w3.org/1999/xlink" width="1920" height="1440" >

            <defs>
            <style type="text/css"><![CDATA[
circle {stroke: none;}
.c0 {fill: #FFFFFF;}
]]></style>
            </defs>
<rect x="0" y="0" width="1920" height="1440" fill="black"/>
<circle cx="1240" cy="744" r="14" class="c0"/>
<circle cx="1370" cy="712" r="12" class="c0"/>
<circle cx="608" cy="692" r="12" class="c0"/>
<circle cx="1050" cy="742" r="12" class="c0"/>
<circle cx="1076" cy="750" r="12" class="c0"/>
<circle cx="960" cy="564" r="12" class="c0"/>
<circle cx="1284" cy="750" r="12" class="c0"/>
<circle cx="894" cy="718" r="12" class="c0"/>
<circle cx="1272" cy="680" r="12" class="c0"/>
<circle cx="1360" cy="792" r="12" class="c0"/>
<circle cx="930" cy="430" r="12" class="c0"/>
<circle cx="1048" cy="772" r="12" class="c0"/>
<circle cx="1316" cy="776" r="12" class="c0"/>
<circle cx="980" cy="414" r="12" class="c0"/>
<circle cx="1308" cy="694" r="12" class="c0"/>
<circle cx="998" cy="472" r="12" class="c0"/>
<circle cx="1326" cy="674" r="12" class="c0"/>
<circle cx="930" cy="392" r="12" class="c0"/>
<circle cx="1352" cy="692" r="12" class="c0"/>
<circle cx="1424" cy="748" r="12" class="c0"/>
<circle cx="992" cy="688" r="12" class="c0"/>
<circle cx="962" cy="508" r="10" class="c0"/>
<circle cx="1060" cy="474" r="10" class="c0"/>
<circle cx="1060" cy="504" r="10" class="c0"/>
<circle cx="674" cy="714" r="10" class="c0"/>
<circle cx="1112" cy="722" r="10" class="c0"/>
<circle cx="960" cy="676" r="10" class="c0"/>
<circle cx="1398" cy="744" r="10" class="c0"/>
<circle cx="1346" cy="738" r="10" class="c0"/>
<circle cx="1038" cy="658" r="10" class="c0"/>
<circle cx="1240" cy="684" r="10" class="c0"/>
<circle cx="1178" cy="696" r="10" class="c0"/>
<circle cx="952" cy="696" r="10" class="c0"/>
<circle cx="870" cy="422" r="10" class="c0"/>
<circle cx="944" cy="462" r="10" class="c0"/>
<circle cx="1080" cy="692" r="10" class="c0"/>
<circle cx="1272" cy="726" r="10" class="c0"/>
<circle cx="1086" cy="544" r="10" class="c0"/>
<circle cx="1076" cy="616" r="10" class="c0"/>
<circle cx="1088" cy="770" r="10" class="c0"/>
<circle cx="1016" cy="686" r="10" class="c0"/>
<circle cx="910" cy="418" r="10" class="c0"/>
<circle cx="736" cy="720" r="10" class="c0"/>
<circle cx="1034" cy="626" r="10" class="c0"/>
<circle cx="1088" cy="718" r="10" class="c0"/>
<circle cx="970" cy="714" r="10" class="c0"/>
<circle cx="908" cy="468" r="10" class="c0"/>
<circle cx="976" cy="490" r="10" class="c0"/>
<circle cx="896" cy="692" r="10" class="c0"/>
<circle cx="1216" cy="708" r="10" class="c0"/>
<circle cx="1020" cy="708" r="10" class="c0"/>
<circle cx="1196" cy="732" r="10" class="c0"/>
<circle cx="1028" cy="504" r="10" class="c0"/>
<circle cx="880" cy="524" r="10" class="c0"/>
<circle cx="954" cy="416" r="10" class="c0"/>
<circle cx="994" cy="446" r="10" class="c0"/>
<circle cx="1398" cy="714" r="10" class="c0"/>
<circle cx="1006" cy="636" r="10" class="c0"/>
<circle cx="1028" cy="478" r="10" class="c0"/>
<circle cx="630" cy="714" r="10" class="c0"/>
<circle cx="850" cy="386" r="10" class="c0"/>
<circle cx="1366" cy="676" r="10" class="c0"/>
<circle cx="1068" cy="526" r="10" class="c0"/>
<circle cx="934" cy="732" r="10" class="c0"/>
<circle cx="1288" cy="714" r="10" class="c0"/>
<circle cx="1078" cy="584" r="10" class="c0"/>
<circle cx="1020" cy="748" r="10" class="c0"/>
<circle cx="1172" cy="764" r="10" class="c0"/>
<circle cx="930" cy="704" r="10" class="c0"/>
<circle cx="992" cy="552" r="10" class="c0"/>
<circle cx="1342" cy="714" r="10" class="c0"/>
<circle cx="1076" cy="782" r="10" class="c0"/>
<circle cx="996" cy="516" r="10" class="c0"/>
<circle cx="1020" cy="594" r="10" class="c0"/>
<circle cx="1094" cy="668" r="10" class="c0"/>
<circle cx="976" cy="658" r="10" class="c0"/>
<circle cx="1062" cy="636" r="10" class="c0"/>
<circle cx="1028" cy="542" r="10" class="c0"/>
<circle cx="1230" cy="770" r="10" class="c0"/>
<circle cx="1044" cy="518" r="10" class="c0"/>
<circle cx="1144" cy="690" r="10" class="c0"/>
<circle cx="826" cy="714" r="10" class="c0"/>
<circle cx="1158" cy="730" r="10" class="c0"/>
<circle cx="976" cy="390" r="10" class="c0"/>
<circle cx="1040" cy="798" r="10" class="c0"/>
<circle cx="940" cy="490" r="10" class="c0"/>
<circle cx="922" cy="582" r="10" class="c0"/>
<circle cx="1002" cy="378" r="10" class="c0"/>
<circle cx="1332" cy="754" r="10" class="c0"/>
<circle cx="944" cy="752" r="10" class="c0"/>
<circle cx="1184" cy="748" r="10" class="c0"/>
<circle cx="1130" cy="734" r="10" class="c0"/>
<circle cx="1042" cy="682" r="10" class="c0"/>
<circle cx="694" cy="722" r="10" class="c0"/>
<circle cx="976" cy="438" r="8" class="c0"/>
<circle cx="1206" cy="670" r="8" class="c0"/>
<circle cx="1128" cy="658" r="8" class="c0"/>
<circle cx="850" cy="416" r="8" class="c0"/>
<circle cx="1298" cy="764" r="8" class="c0"/>
<circle cx="1046" cy="720" r="8" class="c0"/>
<circle cx="960" cy="732" r="8" class="c0"/>
<circle cx="988" cy="726" r="8" class="c0"/>
<circle cx="1330" cy="726" r="8" class="c0"/>
<circle cx="970" cy="456" r="8" class="c0"/>
<circle cx="1062" cy="668" r="8" class="c0"/>
<circle cx="976" cy="576" r="8" class="c0"/>
<circle cx="1056" cy="604" r="8" class="c0"/>
<circle cx="952" cy="440" r="8" class="c0"/>
<circle cx="1018" cy="524" r="8" class="c0"/>
<circle cx="704" cy="700" r="8" class="c0"/>
<circle cx="1004" cy="402" r="8" class="c0"/>
<circle cx="1104" cy="700" r="8" class="c0"/>
<circle cx="752" cy="710" r="8" class="c0"/>
<circle cx="1288" cy="774" r="8" class="c0"/>
<circle cx="1140" cy="710" r="8" class="c0"/>
<circle cx="998" cy="590" r="8" class="c0"/>
<circle cx="996" cy="752" r="8" class="c0"/>
<circle cx="1124" cy="696" r="8" class="c0"/>
<circle cx="804" cy="716" r="8" class="c0"/>
<circle cx="1256" cy="696" r="8" class="c0"/>
<circle cx="772" cy="714" r="8" class="c0"/>
<circle cx="908" cy="732" r="8" class="c0"/>
<circle cx="872" cy="394" r="8" class="c0"/>
<circle cx="980" cy="616" r="8" class="c0"/>
<circle cx="912" cy="654" r="8" class="c0"/>
<circle cx="1106" cy="536" r="8" class="c0"/>
<circle cx="1064" cy="546" r="8" class="c0"/>
<circle cx="564" cy="694" r="8" class="c0"/>
<circle cx="1402" cy="776" r="8" class="c0"/>
<circle cx="928" cy="618" r="8" class="c0"/>
<circle cx="1160" cy="680" r="8" class="c0"/>
<circle cx="1334" cy="798" r="8" class="c0"/>
<circle cx="1262" cy="776" r="8" class="c0"/>
<circle cx="968" cy="752" r="8" class="c0"/>
<circle cx="868" cy="722" r="8" class="c0"/>
<circle cx="1008" cy="736" r="8" class="c0"/>
<circle cx="1386" cy="698" r="8" class="c0"/>
<circle cx="1014" cy="454" r="8" class="c0"/>
<circle cx="1200" cy="772" r="8" class="c0"/>
<circle cx="1330" cy="702" r="8" class="c0"/>
<circle cx="918" cy="746" r="8" class="c0"/>
<circle cx="686" cy="696" r="8" class="c0"/>
<circle cx="1126" cy="758" r="8" class="c0"/>
<circle cx="1110" cy="742" r="8" class="c0"/>
<circle cx="1302" cy="790" r="8" class="c0"/>
<circle cx="1058" cy="710" r="8" class="c0"/>
<circle cx="978" cy="598" r="8" class="c0"/>
<circle cx="1074" cy="658" r="8" class="c0"/>
<circle cx="666" cy="696" r="8" class="c0"/>
<circle cx="946" cy="592" r="8" class="c0"/>
<circle cx="1016" cy="556" r="8" class="c0"/>
<circle cx="948" cy="546" r="8" class="c0"/>
<circle cx="1020" cy="392" r="8" class="c0"/>
<circle cx="1008" cy="540" r="8" class="c0"/>
<circle cx="958" cy="380" r="8" class="c0"/>
<circle cx="898" cy="444" r="8" class="c0"/>
<circle cx="1144" cy="748" r="8" class="c0"/>
<circle cx="1314" cy="736" r="8" class="c0"/>
<circle cx="1116" cy="648" r="8" class="c0"/>
<circle cx="1114" cy="680" r="8" class="c0"/>
<circle cx="1368" cy="740" r="8" class="c0"/>
<circle cx="976" cy="540" r="8" class="c0"/>
<circle cx="1166" cy="710" r="8" class="c0"/>
<circle cx="1092" cy="638" r="8" class="c0"/>
<circle cx="1382" cy="780" r="8" class="c0"/>
<circle cx="1198" cy="698" r="8" class="c0"/>
<circle cx="718" cy="734" r="8" class="c0"/>
<circle cx="1010" cy="574" r="8" class="c0"/>
<circle cx="830" cy="408" r="8" class="c0"/>
<circle cx="1356" cy="762" r="8" class="c0"/>
<circle cx="890" cy="420" r="8" class="c0"/>
<circle cx="1010" cy="612" r="8" class="c0"/>
<circle cx="652" cy="714" r="8" class="c0"/>
<circle cx="1010" cy="662" r="8" class="c0"/>
<circle cx="1204" cy="754" r="8" class="c0"/>
<circle cx="1034" cy="730" r="8" class="c0"/>
<circle cx="1236" cy="710" r="8" class="c0"/>
<circle cx="1040" cy="556" r="8" class="c0"/>
<circle cx="890" cy="508" r="8" class="c0"/>
<circle cx="856" cy="712" r="8" class="c0"/>
<circle cx="904" cy="672" r="8" class="c0"/>
<circle cx="1072" cy="804" r="8" class="c0"/>
<circle cx="738" cy="700" r="8" class="c0"/>
<circle cx="1220" cy="730" r="8" class="c0"/>
<circle cx="1220" cy="688" r="8" class="c0"/>
<circle cx="960" cy="528" r="8" class="c0"/>
<circle cx="1392" cy="764" r="8" class="c0"/>
<circle cx="718" cy="712" r="8" class="c0"/>
<circle cx="1410" cy="728" r="8" class="c0"/>
<circle cx="990" cy="626" r="8" class="c0"/>
<circle cx="1182" cy="720" r="8" class="c0"/>
<circle cx="1048" cy="538" r="8" class="c0"/>
<circle cx="920" cy="450" r="8" class="c0"/>
<circle cx="924" cy="640" r="8" class="c0"/>
<circle cx="1068" cy="728" r="8" class="c0"/>
<circle cx="1108" cy="766" r="8" class="c0"/>
<circle cx="1042" cy="466" r="8" class="c0"/>
<circle cx="1010" cy="494" r="8" class="c0"/>
<circle cx="742" cy="748" r="8" class="c0"/>
<circle cx="1042" cy="490" r="8" class="c0"/>
<circle cx="878" cy="700" r="8" class="c0"/>
<circle cx="1272" cy="704" r="8" class="c0"/>
<circle cx="860" cy="406" r="8" class="c0"/>
<circle cx="1000" cy="716" r="8" class="c0"/>
<circle cx="786" cy="704" r="8" class="c0"/>
<circle cx="586" cy="700" r="8" class="c0"/>
<circle cx="1432" cy="728" r="8" class="c0"/>
<circle cx="1082" cy="564" r="8" class="c0"/>
<circle cx="900" cy="542" r="8" class="c0"/>
<circle cx="1020" cy="650" r="8" class="c0"/>
<circle cx="1426" cy="788" r="8" class="c0"/>
<circle cx="1060" cy="792" r="8" class="c0"/>
<circle cx="910" cy="554" r="8" class="c0"/>
<circle cx="1390" cy="796" r="8" class="c0"/>
<circle cx="1048" cy="410" r="8" class="c0"/>
<circle cx="1386" cy="728" r="8" class="c0"/>
<circle cx="882" cy="436" r="8" class="c0"/>
<circle cx="1084" cy="516" r="8" class="c0"/>
<circle cx="960" cy="474" r="8" class="c0"/>
<circle cx="978" cy="736" r="8" class="c0"/>
<circle cx="1298" cy="674" r="8" class="c0"/>
<circle cx="930" cy="600" r="8" class="c0"/>
<circle cx="920" cy="484" r="8" class="c0"/>
<circle cx="774" cy="766" r="8" class="c0"/>
<circle cx="928" cy="562" r="8" class="c0"/>
<circle cx="918" cy="720" r="8" class="c0"/>
<circle cx="1144" cy="668" r="8" class="c0"/>
<circle cx="582" cy="682" r="8" class="c0"/>
<circle cx="966" cy="586" r="8" class="c0"/>
<circle cx="646" cy="696" r="8" class="c0"/>
<circle cx="1314" cy="716" r="8" class="c0"/>
<circle cx="1250" cy="766" r="8" class="c0"/>
<circle cx="1376" cy="756" r="8" class="c0"/>
<circle cx="1302" cy="726" r="8" class="c0"/>
<circle cx="1036" cy="604" r="8" class="c0"/>
<circle cx="994" cy="668" r="6" class="c0"/>
<circle cx="836" cy="374" r="6" class="c0"/>
<circle cx="1278" cy="788" r="6" class="c0"/>
<circle cx="992" cy="606" r="6" class="c0"/>
<circle cx="1354" cy="814" r="6" class="c0"/>
<circle cx="1074" cy="484" r="6" class="c0"/>
<circle cx="546" cy="684" r="6" class="c0"/>
<circle cx="1034" cy="402" r="6" class="c0"/>
<circle cx="1192" cy="678" r="6" class="c0"/>
<circle cx="1336" cy="780" r="6" class="c0"/>
<circle cx="1018" cy="726" r="6" class="c0"/>
<circle cx="1160" cy="750" r="6" class="c0"/>
<circle cx="1040" cy="704" r="6" class="c0"/>
<circle cx="978" cy="470" r="6" class="c0"/>
<circle cx="1264" cy="752" r="6" class="c0"/>
<circle cx="980" cy="370" r="6" class="c0"/>
<circle cx="1104" cy="552" r="6" class="c0"/>
<circle cx="942" cy="574" r="6" class="c0"/>
<circle cx="1144" cy="646" r="6" class="c0"/>
<circle cx="612" cy="712" r="6" class="c0"/>
<circle cx="852" cy="432" r="6" class="c0"/>
<circle cx="1352" cy="666" r="6" class="c0"/>
<circle cx="872" cy="446" r="6" class="c0"/>
<circle cx="1286" cy="696" r="6" class="c0"/>
<circle cx="1086" cy="602" r="6" class="c0"/>
<circle cx="1286" cy="664" r="6" class="c0"/>
<circle cx="910" cy="704" r="6" class="c0"/>
<circle cx="1254" cy="716" r="6" class="c0"/>
<circle cx="1408" cy="758" r="6" class="c0"/>
<circle cx="952" cy="718" r="6" class="c0"/>
<circle cx="1000" cy="424" r="6" class="c0"/>
<circle cx="1060" cy="686" r="6" class="c0"/>
<circle cx="1160" cy="650" r="6" class="c0"/>
<circle cx="1372" cy="812" r="6" class="c0"/>
<circle cx="978" cy="524" r="6" class="c0"/>
<circle cx="1316" cy="798" r="6" class="c0"/>
<circle cx="1094" cy="740" r="6" class="c0"/>
<circle cx="886" cy="454" r="6" class="c0"/>
<circle cx="1420" cy="772" r="6" class="c0"/>
<circle cx="986" cy="644" r="6" class="c0"/>
<circle cx="926" cy="762" r="6" class="c0"/>
<circle cx="1094" cy="526" r="6" class="c0"/>
<circle cx="956" cy="398" r="6" class="c0"/>
<circle cx="1064" cy="566" r="6" class="c0"/>
<circle cx="930" cy="472" r="6" class="c0"/>
<circle cx="720" cy="696" r="6" class="c0"/>
<circle cx="860" cy="440" r="6" class="c0"/>
<circle cx="1308" cy="662" r="6" class="c0"/>
<circle cx="1190" cy="656" r="6" class="c0"/>
<circle cx="758" cy="758" r="6" class="c0"/>
<circle cx="630" cy="690" r="6" class="c0"/>
<circle cx="1434" cy="768" r="6" class="c0"/>
<circle cx="1220" cy="756" r="6" class="c0"/>
<circle cx="838" cy="428" r="6" class="c0"/>
<circle cx="992" cy="572" r="6" class="c0"/>
<circle cx="1228" cy="672" r="6" class="c0"/>
<circle cx="1038" cy="756" r="6" class="c0"/>
<circle cx="970" cy="690" r="6" class="c0"/>
<circle cx="964" cy="606" r="6" class="c0"/>
<circle cx="994" cy="496" r="6" class="c0"/>
<circle cx="872" cy="508" r="6" class="c0"/>
<circle cx="846" cy="722" r="6" class="c0"/>
<circle cx="1256" cy="670" r="6" class="c0"/>
<circle cx="1308" cy="754" r="6" class="c0"/>
<circle cx="904" cy="520" r="6" class="c0"/>
<circle cx="998" cy="652" r="6" class="c0"/>
<circle cx="1096" cy="754" r="6" class="c0"/>
<circle cx="1060" cy="588" r="6" class="c0"/>
<circle cx="944" cy="612" r="6" class="c0"/>
<circle cx="1094" cy="614" r="6" class="c0"/>
<circle cx="1344" cy="772" r="6" class="c0"/>
<circle cx="940" cy="376" r="6" class="c0"/>
<circle cx="1026" cy="670" r="6" class="c0"/>
<circle cx="1272" cy="764" r="6" class="c0"/>
<circle cx="1054" cy="620" r="6" class="c0"/>
<circle cx="1064" cy="414" r="6" class="c0"/>
<circle cx="1356" cy="724" r="6" class="c0"/>
<circle cx="1174" cy="656" r="6" class="c0"/>
<circle cx="1030" cy="764" r="6" class="c0"/>
<circle cx="1044" cy="640" r="6" class="c0"/>
<circle cx="966" cy="428" r="6" class="c0"/>
<circle cx="1042" cy="816" r="6" class="c0"/>
<circle cx="1420" cy="718" r="6" class="c0"/>
<circle cx="1108" cy="634" r="6" class="c0"/>
<circle cx="1132" cy="678" r="6" class="c0"/>
<circle cx="1442" cy="756" r="6" class="c0"/>
<circle cx="762" cy="700" r="6" class="c0"/>
<circle cx="1086" cy="796" r="6" class="c0"/>
<circle cx="1130" cy="640" r="6" class="c0"/>
<circle cx="1366" cy="772" r="6" class="c0"/>
</svg>
