<?xml version="1.0" encoding="utf-8"?>
<svg xmlns="http://www.w3.org/2000/svg"
     xmlns:xlink="http://www.w3.org/1999/xlink" width="1920" height="1440" >

            <defs>
            <style type="text/css"><![CDATA[
circle {stroke: none;}
.c0 {fill: #FFFFFF;}
]]></style>
            </defs>
<rect x="0" y="0" width="1920" height="1440" fill="black"/>
<circle cx="986" cy="734" r="14" class="c0"/>
<circle cx="1242" cy="766" r="12" class="c0"/>
<circle cx="1026" cy="540" r="12" class="c0"/>
<circle cx="1392" cy="776" r="12" class="c0"/>
<circle cx="1306" cy="784" r="12" class="c0"/>
<circle cx="1022" cy="720" r="12" class="c0"/>
<circle cx="950" cy="592" r="12" class="c0"/>
<circle cx="1318" cy="764" r="12" class="c0"/>
<circle cx="720" cy="728" r="12" class="c0"/>
<circle cx="1072" cy="654" r="12" class="c0"/>
<circle cx="860" cy="414" r="12" class="c0"/>
<circle cx="1222" cy="710" r="12" class="c0"/>
<circle cx="1212" cy="740" r="12" class="c0"/>
<circle cx="962" cy="382" r="12" class="c0"/>
<circle cx="620" cy="698" r="12" class="c0"/>
<circle cx="1292" cy="714" r="12" class="c0"/>
<circle cx="1234" cy="730" r="12" class="c0"/>
<circle cx="970" cy="426" r="12" class="c0"/>
<circle cx="944" cy="712" r="12" class="c0"/>
<circle cx="996" cy="592" r="12" class="c0"/>
<circle cx="986" cy="518" r="12" class="c0"/>
<circle cx="1362" cy="808" r="12" class="c0"/>
<circle cx="1130" cy="658" r="12" class="c0"/>
<circle cx="890" cy="508" r="12" class="c0"/>
<circle cx="1044" cy="798" r="12" class="c0"/>
<circle cx="1040" cy="488" r="12" class="c0"/>
<circle cx="1416" cy="768" r="12" class="c0"/>
<circle cx="1018" cy="498" r="12" class="c0"/>
<circle cx="1088" cy="602" r="10" class="c0"/>
<circle cx="1022" cy="596" r="10" class="c0"/>
<circle cx="1350" cy="752" r="10" class="c0"/>
<circle cx="978" cy="466" r="10" class="c0"/>
<circle cx="1366" cy="738" r="10" class="c0"/>
<circle cx="982" cy="696" r="10" class="c0"/>
<circle cx="1072" cy="804" r="10" class="c0"/>
<circle cx="1006" cy="690" r="10" class="c0"/>
<circle cx="1076" cy="584" r="10" class="c0"/>
<circle cx="1148" cy="716" r="10" class="c0"/>
<circle cx="946" cy="488" r="10" class="c0"/>
<circle cx="1370" cy="766" r="10" class="c0"/>
<circle cx="998" cy="410" r="10" class="c0"/>
<circle cx="1300" cy="674" r="10" class="c0"/>
<circle cx="1094" cy="752" r="10" class="c0"/>
<circle cx="926" cy="402" r="10" class="c0"/>
<circle cx="1096" cy="648" r="10" class="c0"/>
<circle cx="1050" cy="710" r="10" class="c0"/>
<circle cx="1002" cy="552" r="10" class="c0"/>
<circle cx="1092" cy="690" r="10" class="c0"/>
<circle cx="1132" cy="692" r="10" class="c0"/>
<circle cx="1364" cy="694" r="10" class="c0"/>
<circle cx="1216" cy="684" r="10" class="c0"/>
<circle cx="980" cy="660" r="10" class="c0"/>
<circle cx="1178" cy="698" r="10" class="c0"/>
<circle cx="896" cy="448" r="10" class="c0"/>
<circle cx="928" cy="604" r="10" class="c0"/>
<circle cx="894" cy="710" r="10" class="c0"/>
<circle cx="1044" cy="640" r="10" class="c0"/>
<circle cx="1100" cy="710" r="10" class="c0"/>
<circle cx="1078" cy="550" r="10" class="c0"/>
<circle cx="890" cy="424" r="10" class="c0"/>
<circle cx="1166" cy="686" r="10" class="c0"/>
<circle cx="994" cy="642" r="10" class="c0"/>
<circle cx="1148" cy="744" r="10" class="c0"/>
<circle cx="964" cy="566" r="10" class="c0"/>
<circle cx="948" cy="440" r="10" class="c0"/>
<circle cx="1112" cy="680" r="10" class="c0"/>
<circle cx="1004" cy="456" r="10" class="c0"/>
<circle cx="572" cy="686" r="10" class="c0"/>
<circle cx="1288" cy="738" r="10" class="c0"/>
<circle cx="1420" cy="744" r="10" class="c0"/>
<circle cx="850" cy="390" r="10" class="c0"/>
<circle cx="858" cy="720" r="10" class="c0"/>
<circle cx="830" cy="414" r="10" class="c0"/>
<circle cx="1000" cy="380" r="10" class="c0"/>
<circle cx="994" cy="494" r="10" class="c0"/>
<circle cx="730" cy="708" r="10" class="c0"/>
<circle cx="1162" cy="758" r="10" class="c0"/>
<circle cx="1262" cy="710" r="10" class="c0"/>
<circle cx="930" cy="732" r="10" class="c0"/>
<circle cx="1034" cy="398" r="10" class="c0"/>
<circle cx="1260" cy="736" r="10" class="c0"/>
<circle cx="1278" cy="756" r="10" class="c0"/>
<circle cx="1068" cy="506" r="10" class="c0"/>
<circle cx="1348" cy="794" r="10" class="c0"/>
<circle cx="972" cy="532" r="8" class="c0"/>
<circle cx="1062" cy="738" r="8" class="c0"/>
<circle cx="906" cy="666" r="8" class="c0"/>
<circle cx="968" cy="682" r="8" class="c0"/>
<circle cx="1082" cy="768" r="8" class="c0"/>
<circle cx="1200" cy="702" r="8" class="c0"/>
<circle cx="744" cy="742" r="8" class="c0"/>
<circle cx="926" cy="480" r="8" class="c0"/>
<circle cx="1272" cy="676" r="8" class="c0"/>
<circle cx="1320" cy="728" r="8" class="c0"/>
<circle cx="984" cy="610" r="8" class="c0"/>
<circle cx="1388" cy="698" r="8" class="c0"/>
<circle cx="1064" cy="616" r="8" class="c0"/>
<circle cx="1108" cy="554" r="8" class="c0"/>
<circle cx="1050" cy="522" r="8" class="c0"/>
<circle cx="618" cy="720" r="8" class="c0"/>
<circle cx="900" cy="538" r="8" class="c0"/>
<circle cx="1052" cy="758" r="8" class="c0"/>
<circle cx="1286" cy="688" r="8" class="c0"/>
<circle cx="678" cy="698" r="8" class="c0"/>
<circle cx="956" cy="408" r="8" class="c0"/>
<circle cx="1096" cy="528" r="8" class="c0"/>
<circle cx="1054" cy="676" r="8" class="c0"/>
<circle cx="1022" cy="624" r="8" class="c0"/>
<circle cx="918" cy="568" r="8" class="c0"/>
<circle cx="1340" cy="688" r="8" class="c0"/>
<circle cx="1326" cy="792" r="8" class="c0"/>
<circle cx="952" cy="544" r="8" class="c0"/>
<circle cx="1314" cy="696" r="8" class="c0"/>
<circle cx="660" cy="700" r="8" class="c0"/>
<circle cx="1000" cy="618" r="8" class="c0"/>
<circle cx="924" cy="446" r="8" class="c0"/>
<circle cx="1024" cy="658" r="8" class="c0"/>
<circle cx="936" cy="384" r="8" class="c0"/>
<circle cx="1328" cy="672" r="8" class="c0"/>
<circle cx="948" cy="742" r="8" class="c0"/>
<circle cx="670" cy="714" r="8" class="c0"/>
<circle cx="1070" cy="716" r="8" class="c0"/>
<circle cx="988" cy="392" r="8" class="c0"/>
<circle cx="1184" cy="738" r="8" class="c0"/>
<circle cx="920" cy="428" r="8" class="c0"/>
<circle cx="924" cy="636" r="8" class="c0"/>
<circle cx="870" cy="444" r="8" class="c0"/>
<circle cx="960" cy="732" r="8" class="c0"/>
<circle cx="690" cy="724" r="8" class="c0"/>
<circle cx="1036" cy="692" r="8" class="c0"/>
<circle cx="1388" cy="740" r="8" class="c0"/>
<circle cx="762" cy="716" r="8" class="c0"/>
<circle cx="1332" cy="718" r="8" class="c0"/>
<circle cx="924" cy="760" r="8" class="c0"/>
<circle cx="792" cy="716" r="8" class="c0"/>
<circle cx="972" cy="490" r="8" class="c0"/>
<circle cx="950" cy="466" r="8" class="c0"/>
<circle cx="1202" cy="760" r="8" class="c0"/>
<circle cx="934" cy="556" r="8" class="c0"/>
<circle cx="1238" cy="692" r="8" class="c0"/>
<circle cx="918" cy="464" r="8" class="c0"/>
<circle cx="1074" cy="698" r="8" class="c0"/>
<circle cx="1016" cy="756" r="8" class="c0"/>
<circle cx="968" cy="708" r="8" class="c0"/>
<circle cx="1042" cy="734" r="8" class="c0"/>
<circle cx="1284" cy="788" r="8" class="c0"/>
<circle cx="822" cy="712" r="8" class="c0"/>
<circle cx="1012" cy="568" r="8" class="c0"/>
<circle cx="1394" cy="722" r="8" class="c0"/>
<circle cx="1352" cy="722" r="8" class="c0"/>
<circle cx="1112" cy="728" r="8" class="c0"/>
<circle cx="1130" cy="760" r="8" class="c0"/>
<circle cx="1340" cy="772" r="8" class="c0"/>
<circle cx="1196" cy="728" r="8" class="c0"/>
<circle cx="1018" cy="472" r="8" class="c0"/>
<circle cx="970" cy="750" r="8" class="c0"/>
<circle cx="968" cy="602" r="8" class="c0"/>
<circle cx="996" cy="474" r="8" class="c0"/>
<circle cx="920" cy="712" r="8" class="c0"/>
<circle cx="1014" cy="672" r="8" class="c0"/>
<circle cx="708" cy="712" r="8" class="c0"/>
<circle cx="950" cy="688" r="8" class="c0"/>
<circle cx="1336" cy="736" r="8" class="c0"/>
<circle cx="1250" cy="680" r="8" class="c0"/>
<circle cx="910" cy="726" r="8" class="c0"/>
<circle cx="900" cy="686" r="8" class="c0"/>
<circle cx="1126" cy="714" r="8" class="c0"/>
<circle cx="1266" cy="774" r="8" class="c0"/>
<circle cx="1070" cy="528" r="8" class="c0"/>
<circle cx="984" cy="576" r="8" class="c0"/>
<circle cx="1170" cy="726" r="8" class="c0"/>
<circle cx="1150" cy="670" r="8" class="c0"/>
<circle cx="1056" cy="472" r="8" class="c0"/>
<circle cx="962" cy="454" r="8" class="c0"/>
<circle cx="776" cy="704" r="8" class="c0"/>
<circle cx="640" cy="718" r="8" class="c0"/>
<circle cx="910" cy="416" r="8" class="c0"/>
<circle cx="962" cy="508" r="8" class="c0"/>
<circle cx="1036" cy="614" r="8" class="c0"/>
<circle cx="1430" cy="728" r="8" class="c0"/>
<circle cx="1082" cy="738" r="8" class="c0"/>
<circle cx="1074" cy="628" r="8" class="c0"/>
<circle cx="1220" cy="770" r="8" class="c0"/>
<circle cx="878" cy="526" r="8" class="c0"/>
<circle cx="880" cy="728" r="8" class="c0"/>
<circle cx="1038" cy="464" r="8" class="c0"/>
<circle cx="698" cy="698" r="8" class="c0"/>
<circle cx="1356" cy="674" r="8" class="c0"/>
<circle cx="878" cy="386" r="8" class="c0"/>
<circle cx="994" cy="710" r="8" class="c0"/>
<circle cx="1308" cy="740" r="8" class="c0"/>
<circle cx="1006" cy="654" r="8" class="c0"/>
<circle cx="1004" cy="528" r="8" class="c0"/>
<circle cx="592" cy="688" r="8" class="c0"/>
<circle cx="1126" cy="742" r="8" class="c0"/>
<circle cx="982" cy="554" r="8" class="c0"/>
<circle cx="870" cy="706" r="8" class="c0"/>
<circle cx="996" cy="438" r="8" class="c0"/>
<circle cx="938" cy="418" r="8" class="c0"/>
<circle cx="918" cy="654" r="8" class="c0"/>
<circle cx="1032" cy="514" r="8" class="c0"/>
<circle cx="1372" cy="788" r="8" class="c0"/>
<circle cx="1434" cy="758" r="8" class="c0"/>
<circle cx="1088" cy="668" r="8" class="c0"/>
<circle cx="1058" cy="596" r="8" class="c0"/>
<circle cx="1058" cy="552" r="8" class="c0"/>
<circle cx="1060" cy="776" r="8" class="c0"/>
<circle cx="850" cy="432" r="8" class="c0"/>
<circle cx="1006" cy="746" r="8" class="c0"/>
<circle cx="1038" cy="768" r="8" class="c0"/>
<circle cx="936" cy="576" r="8" class="c0"/>
<circle cx="560" cy="700" r="8" class="c0"/>
<circle cx="1402" cy="754" r="8" class="c0"/>
<circle cx="1058" cy="412" r="8" class="c0"/>
<circle cx="1066" cy="482" r="8" class="c0"/>
<circle cx="994" cy="674" r="8" class="c0"/>
<circle cx="1294" cy="768" r="8" class="c0"/>
<circle cx="882" cy="696" r="8" class="c0"/>
<circle cx="1390" cy="798" r="8" class="c0"/>
<circle cx="1116" cy="538" r="8" class="c0"/>
<circle cx="1184" cy="768" r="8" class="c0"/>
<circle cx="642" cy="692" r="8" class="c0"/>
<circle cx="1374" cy="716" r="8" class="c0"/>
<circle cx="1192" cy="658" r="8" class="c0"/>
<circle cx="804" cy="706" r="8" class="c0"/>
<circle cx="1274" cy="724" r="8" class="c0"/>
<circle cx="772" cy="764" r="8" class="c0"/>
<circle cx="548" cy="686" r="8" class="c0"/>
<circle cx="1070" cy="754" r="8" class="c0"/>
<circle cx="1334" cy="808" r="8" class="c0"/>
<circle cx="1196" cy="676" r="8" class="c0"/>
<circle cx="1042" cy="554" r="6" class="c0"/>
<circle cx="1346" cy="706" r="6" class="c0"/>
<circle cx="1150" cy="694" r="6" class="c0"/>
<circle cx="1092" cy="620" r="6" class="c0"/>
<circle cx="1426" cy="784" r="6" class="c0"/>
<circle cx="1032" cy="744" r="6" class="c0"/>
<circle cx="954" cy="760" r="6" class="c0"/>
<circle cx="1100" cy="628" r="6" class="c0"/>
<circle cx="978" cy="446" r="6" class="c0"/>
<circle cx="1020" cy="382" r="6" class="c0"/>
<circle cx="754" cy="756" r="6" class="c0"/>
<circle cx="868" cy="396" r="6" class="c0"/>
<circle cx="600" cy="704" r="6" class="c0"/>
<circle cx="1114" cy="636" r="6" class="c0"/>
<circle cx="1186" cy="714" r="6" class="c0"/>
<circle cx="1142" cy="644" r="6" class="c0"/>
<circle cx="1040" cy="668" r="6" class="c0"/>
<circle cx="1312" cy="712" r="6" class="c0"/>
<circle cx="1088" cy="566" r="6" class="c0"/>
<circle cx="748" cy="704" r="6" class="c0"/>
<circle cx="940" cy="616" r="6" class="c0"/>
<circle cx="1244" cy="712" r="6" class="c0"/>
<circle cx="1330" cy="700" r="6" class="c0"/>
<circle cx="582" cy="704" r="6" class="c0"/>
<circle cx="1096" cy="582" r="6" class="c0"/>
<circle cx="1404" cy="732" r="6" class="c0"/>
<circle cx="1262" cy="690" r="6" class="c0"/>
<circle cx="912" cy="552" r="6" class="c0"/>
<circle cx="990" cy="756" r="6" class="c0"/>
<circle cx="1158" cy="702" r="6" class="c0"/>
<circle cx="976" cy="402" r="6" class="c0"/>
<circle cx="1356" cy="776" r="6" class="c0"/>
<circle cx="1016" cy="642" r="6" class="c0"/>
<circle cx="1374" cy="676" r="6" class="c0"/>
<circle cx="1064" cy="688" r="6" class="c0"/>
<circle cx="1276" cy="698" r="6" class="c0"/>
<circle cx="838" cy="376" r="6" class="c0"/>
<circle cx="912" cy="742" r="6" class="c0"/>
<circle cx="920" cy="584" r="6" class="c0"/>
<circle cx="910" cy="438" r="6" class="c0"/>
<circle cx="928" cy="496" r="6" class="c0"/>
<circle cx="954" cy="524" r="6" class="c0"/>
<circle cx="844" cy="708" r="6" class="c0"/>
<circle cx="1052" cy="660" r="6" class="c0"/>
<circle cx="1014" cy="518" r="6" class="c0"/>
<circle cx="1086" cy="722" r="6" class="c0"/>
<circle cx="980" cy="372" r="6" class="c0"/>
<circle cx="1252" cy="784" r="6" class="c0"/>
<circle cx="1156" cy="650" r="6" class="c0"/>
<circle cx="1114" cy="752" r="6" class="c0"/>
<circle cx="880" cy="408" r="6" class="c0"/>
<circle cx="1284" cy="666" r="6" class="c0"/>
<circle cx="1004" cy="510" r="6" class="c0"/>
<circle cx="972" cy="620" r="6" class="c0"/>
<circle cx="1080" cy="788" r="6" class="c0"/>
<circle cx="934" cy="458" r="6" class="c0"/>
<circle cx="962" cy="478" r="6" class="c0"/>
<circle cx="980" cy="632" r="6" class="c0"/>
<circle cx="1072" cy="676" r="6" class="c0"/>
<circle cx="1026" cy="576" r="6" class="c0"/>
<circle cx="990" cy="540" r="6" class="c0"/>
<circle cx="1172" cy="652" r="6" class="c0"/>
<circle cx="1204" cy="776" r="6" class="c0"/>
<circle cx="1258" cy="756" r="6" class="c0"/>
<circle cx="870" cy="512" r="6" class="c0"/>
<circle cx="1386" cy="756" r="6" class="c0"/>
<circle cx="836" cy="720" r="6" class="c0"/>
<circle cx="872" cy="428" r="6" class="c0"/>
<circle cx="908" cy="756" r="6" class="c0"/>
<circle cx="1114" cy="700" r="6" class="c0"/>
<circle cx="1404" cy="712" r="6" class="c0"/>
<circle cx="1098" cy="544" r="6" class="c0"/>
<circle cx="948" cy="394" r="6" class="c0"/>
<circle cx="1104" cy="664" r="6" class="c0"/>
<circle cx="1020" cy="700" r="6" class="c0"/>
<circle cx="1136" cy="732" r="6" class="c0"/>
<circle cx="746" cy="724" r="6" class="c0"/>
<circle cx="1024" cy="682" r="6" class="c0"/>
<circle cx="1412" cy="722" r="6" class="c0"/>
<circle cx="1012" cy="392" r="6" class="c0"/>
<circle cx="968" cy="584" r="6" class="c0"/>
<circle cx="1048" cy="538" r="6" class="c0"/>
<circle cx="1408" cy="786" r="6" class="c0"/>
<circle cx="1230" cy="780" r="6" class="c0"/>
<circle cx="1008" cy="632" r="6" class="c0"/>
<circle cx="1246" cy="746" r="6" class="c0"/>
<circle cx="1080" cy="518" r="6" class="c0"/>
<circle cx="1096" cy="730" r="6" class="c0"/>
<circle cx="934" cy="696" r="6" class="c0"/>
<circle cx="1326" cy="746" r="6" class="c0"/>
<circle cx="716" cy="698" r="6" class="c0"/>
<circle cx="940" cy="758" r="6" class="c0"/>
<circle cx="1062" cy="638" r="6" class="c0"/>
<circle cx="1234" cy="674" r="6" class="c0"/>
<circle cx="1166" cy="710" r="6" class="c0"/>
<circle cx="1042" cy="818" r="6" class="c0"/>
<circle cx="1054" cy="626" r="6" class="c0"/>
<circle cx="904" cy="522" r="6" class="c0"/>
<circle cx="1048" cy="506" r="6" class="c0"/>
<circle cx="688" cy="708" r="6" class="c0"/>
<circle cx="1226" cy="752" r="6" class="c0"/>
<circle cx="1298" cy="752" r="6" class="c0"/>
<circle cx="632" cy="732" r="6" class="c0"/>
<circle cx="1010" cy="608" r="6" class="c0"/>
<circle cx="810" cy="722" r="6" class="c0"/>
</svg>
