<?xml version="1.0" encoding="utf-8"?>
<svg xmlns="http://www.w3.org/2000/svg"
     xmlns:xlink="http://www.w3.org/1999/xlink" width="1920" height="1440" >

            <defs>
            <style type="text/css"><![CDATA[
circle {stroke: none;}
.c0 {fill: #FFFFFF;}
]]></style>
            </defs>
<rect x="0" y="0" width="1920" height="1440" fill="black"/>
<circle cx="1078" cy="590" r="12" class="c0"/>
<circle cx="930" cy="710" r="12" class="c0"/>
<circle cx="1278" cy="758" r="12" class="c0"/>
<circle cx="766" cy="712" r="12" class="c0"/>
<circle cx="1358" cy="798" r="12" class="c0"/>
<circle cx="1314" cy="686" r="12" class="c0"/>
<circle cx="1348" cy="738" r="12" class="c0"/>
<circle cx="974" cy="564" r="12" class="c0"/>
<circle cx="1040" cy="766" r="12" class="c0"/>
<circle cx="1348" cy="710" r="12" class="c0"/>
<circle cx="794" cy="714" r="12" class="c0"/>
<circle cx="964" cy="728" r="12" class="c0"/>
<circle cx="1050" cy="522" r="12" class="c0"/>
<circle cx="676" cy="704" r="12" class="c0"/>
<circle cx="1002" cy="474" r="12" class="c0"/>
<circle cx="984" cy="410" r="12" class="c0"/>
<circle cx="618" cy="694" r="12" class="c0"/>
<circle cx="1276" cy="700" r="12" class="c0"/>
<circle cx="1104" cy="634" r="12" class="c0"/>
<circle cx="984" cy="534" r="12" class="c0"/>
<circle cx="1040" cy="490" r="12" class="c0"/>
<circle cx="1210" cy="748" r="12" class="c0"/>
<circle cx="894" cy="424" r="10" class="c0"/>
<circle cx="1012" cy="754" r="10" class="c0"/>
<circle cx="1306" cy="790" r="10" class="c0"/>
<circle cx="1004" cy="706" r="10" class="c0"/>
<circle cx="1052" cy="626" r="10" class="c0"/>
<circle cx="990" cy="654" r="10" class="c0"/>
<circle cx="1236" cy="758" r="10" class="c0"/>
<circle cx="940" cy="560" r="10" class="c0"/>
<circle cx="1014" cy="632" r="10" class="c0"/>
<circle cx="946" cy="420" r="10" class="c0"/>
<circle cx="1028" cy="616" r="10" class="c0"/>
<circle cx="822" cy="716" r="10" class="c0"/>
<circle cx="1130" cy="686" r="10" class="c0"/>
<circle cx="960" cy="680" r="10" class="c0"/>
<circle cx="1074" cy="742" r="10" class="c0"/>
<circle cx="954" cy="448" r="10" class="c0"/>
<circle cx="1182" cy="718" r="10" class="c0"/>
<circle cx="888" cy="716" r="10" class="c0"/>
<circle cx="1012" cy="522" r="10" class="c0"/>
<circle cx="1060" cy="478" r="10" class="c0"/>
<circle cx="1102" cy="724" r="10" class="c0"/>
<circle cx="906" cy="730" r="10" class="c0"/>
<circle cx="996" cy="432" r="10" class="c0"/>
<circle cx="1054" cy="660" r="10" class="c0"/>
<circle cx="894" cy="506" r="10" class="c0"/>
<circle cx="1218" cy="702" r="10" class="c0"/>
<circle cx="880" cy="406" r="10" class="c0"/>
<circle cx="996" cy="384" r="10" class="c0"/>
<circle cx="1076" cy="552" r="10" class="c0"/>
<circle cx="1002" cy="588" r="10" class="c0"/>
<circle cx="1340" cy="774" r="10" class="c0"/>
<circle cx="1400" cy="776" r="10" class="c0"/>
<circle cx="1404" cy="746" r="10" class="c0"/>
<circle cx="722" cy="730" r="10" class="c0"/>
<circle cx="624" cy="718" r="10" class="c0"/>
<circle cx="992" cy="616" r="10" class="c0"/>
<circle cx="1028" cy="696" r="10" class="c0"/>
<circle cx="904" cy="442" r="10" class="c0"/>
<circle cx="946" cy="490" r="10" class="c0"/>
<circle cx="1324" cy="758" r="10" class="c0"/>
<circle cx="1120" cy="706" r="10" class="c0"/>
<circle cx="710" cy="716" r="10" class="c0"/>
<circle cx="976" cy="490" r="10" class="c0"/>
<circle cx="930" cy="578" r="10" class="c0"/>
<circle cx="1180" cy="754" r="10" class="c0"/>
<circle cx="1078" cy="636" r="10" class="c0"/>
<circle cx="918" cy="646" r="10" class="c0"/>
<circle cx="874" cy="442" r="10" class="c0"/>
<circle cx="988" cy="452" r="10" class="c0"/>
<circle cx="1168" cy="706" r="10" class="c0"/>
<circle cx="934" cy="396" r="10" class="c0"/>
<circle cx="940" cy="464" r="10" class="c0"/>
<circle cx="1148" cy="754" r="10" class="c0"/>
<circle cx="1028" cy="510" r="10" class="c0"/>
<circle cx="1046" cy="798" r="10" class="c0"/>
<circle cx="924" cy="422" r="10" class="c0"/>
<circle cx="966" cy="598" r="10" class="c0"/>
<circle cx="1372" cy="708" r="10" class="c0"/>
<circle cx="1000" cy="550" r="10" class="c0"/>
<circle cx="1142" cy="708" r="10" class="c0"/>
<circle cx="1076" cy="698" r="10" class="c0"/>
<circle cx="926" cy="476" r="10" class="c0"/>
<circle cx="1070" cy="766" r="10" class="c0"/>
<circle cx="1088" cy="680" r="10" class="c0"/>
<circle cx="968" cy="514" r="10" class="c0"/>
<circle cx="1286" cy="674" r="10" class="c0"/>
<circle cx="970" cy="756" r="10" class="c0"/>
<circle cx="926" cy="444" r="8" class="c0"/>
<circle cx="1332" cy="698" r="8" class="c0"/>
<circle cx="1020" cy="552" r="8" class="c0"/>
<circle cx="952" cy="384" r="8" class="c0"/>
<circle cx="1186" cy="686" r="8" class="c0"/>
<circle cx="852" cy="430" r="8" class="c0"/>
<circle cx="1132" cy="736" r="8" class="c0"/>
<circle cx="1318" cy="738" r="8" class="c0"/>
<circle cx="998" cy="732" r="8" class="c0"/>
<circle cx="872" cy="388" r="8" class="c0"/>
<circle cx="1012" cy="684" r="8" class="c0"/>
<circle cx="948" cy="754" r="8" class="c0"/>
<circle cx="1378" cy="780" r="8" class="c0"/>
<circle cx="1012" cy="660" r="8" class="c0"/>
<circle cx="978" cy="698" r="8" class="c0"/>
<circle cx="1116" cy="550" r="8" class="c0"/>
<circle cx="1270" cy="734" r="8" class="c0"/>
<circle cx="1114" cy="748" r="8" class="c0"/>
<circle cx="1020" cy="716" r="8" class="c0"/>
<circle cx="902" cy="678" r="8" class="c0"/>
<circle cx="1332" cy="670" r="8" class="c0"/>
<circle cx="1250" cy="744" r="8" class="c0"/>
<circle cx="1164" cy="740" r="8" class="c0"/>
<circle cx="1244" cy="686" r="8" class="c0"/>
<circle cx="1128" cy="652" r="8" class="c0"/>
<circle cx="1194" cy="732" r="8" class="c0"/>
<circle cx="886" cy="532" r="8" class="c0"/>
<circle cx="1048" cy="688" r="8" class="c0"/>
<circle cx="1280" cy="722" r="8" class="c0"/>
<circle cx="1044" cy="402" r="8" class="c0"/>
<circle cx="1332" cy="804" r="8" class="c0"/>
<circle cx="1026" cy="670" r="8" class="c0"/>
<circle cx="1258" cy="676" r="8" class="c0"/>
<circle cx="1028" cy="394" r="8" class="c0"/>
<circle cx="1224" cy="778" r="8" class="c0"/>
<circle cx="1300" cy="710" r="8" class="c0"/>
<circle cx="1090" cy="538" r="8" class="c0"/>
<circle cx="1080" cy="792" r="8" class="c0"/>
<circle cx="1094" cy="652" r="8" class="c0"/>
<circle cx="1038" cy="720" r="8" class="c0"/>
<circle cx="1024" cy="472" r="8" class="c0"/>
<circle cx="950" cy="580" r="8" class="c0"/>
<circle cx="1424" cy="770" r="8" class="c0"/>
<circle cx="1110" cy="684" r="8" class="c0"/>
<circle cx="1096" cy="520" r="8" class="c0"/>
<circle cx="1056" cy="708" r="8" class="c0"/>
<circle cx="1160" cy="686" r="8" class="c0"/>
<circle cx="1286" cy="784" r="8" class="c0"/>
<circle cx="1070" cy="806" r="8" class="c0"/>
<circle cx="590" cy="696" r="8" class="c0"/>
<circle cx="1298" cy="746" r="8" class="c0"/>
<circle cx="986" cy="744" r="8" class="c0"/>
<circle cx="1386" cy="694" r="8" class="c0"/>
<circle cx="1232" cy="728" r="8" class="c0"/>
<circle cx="1000" cy="498" r="8" class="c0"/>
<circle cx="1236" cy="710" r="8" class="c0"/>
<circle cx="730" cy="712" r="8" class="c0"/>
<circle cx="966" cy="436" r="8" class="c0"/>
<circle cx="1366" cy="756" r="8" class="c0"/>
<circle cx="840" cy="414" r="8" class="c0"/>
<circle cx="1030" cy="746" r="8" class="c0"/>
<circle cx="1376" cy="742" r="8" class="c0"/>
<circle cx="1036" cy="638" r="8" class="c0"/>
<circle cx="956" cy="530" r="8" class="c0"/>
<circle cx="980" cy="676" r="8" class="c0"/>
<circle cx="856" cy="720" r="8" class="c0"/>
<circle cx="968" cy="466" r="8" class="c0"/>
<circle cx="1094" cy="570" r="8" class="c0"/>
<circle cx="1032" cy="536" r="8" class="c0"/>
<circle cx="690" cy="726" r="8" class="c0"/>
<circle cx="1392" cy="720" r="8" class="c0"/>
<circle cx="1350" cy="672" r="8" class="c0"/>
<circle cx="928" cy="740" r="8" class="c0"/>
<circle cx="1416" cy="728" r="8" class="c0"/>
<circle cx="910" cy="542" r="8" class="c0"/>
<circle cx="1000" cy="670" r="8" class="c0"/>
<circle cx="1026" cy="582" r="8" class="c0"/>
<circle cx="742" cy="742" r="8" class="c0"/>
<circle cx="1070" cy="718" r="8" class="c0"/>
<circle cx="1424" cy="744" r="8" class="c0"/>
<circle cx="1152" cy="728" r="8" class="c0"/>
<circle cx="970" cy="390" r="8" class="c0"/>
<circle cx="1090" cy="752" r="8" class="c0"/>
<circle cx="1242" cy="782" r="8" class="c0"/>
<circle cx="914" cy="756" r="8" class="c0"/>
<circle cx="1072" cy="612" r="8" class="c0"/>
<circle cx="862" cy="418" r="8" class="c0"/>
<circle cx="844" cy="376" r="8" class="c0"/>
<circle cx="1296" cy="774" r="8" class="c0"/>
<circle cx="914" cy="460" r="8" class="c0"/>
<circle cx="1192" cy="768" r="8" class="c0"/>
<circle cx="1068" cy="678" r="8" class="c0"/>
<circle cx="1054" cy="752" r="8" class="c0"/>
<circle cx="950" cy="700" r="8" class="c0"/>
<circle cx="1092" cy="604" r="8" class="c0"/>
<circle cx="1204" cy="716" r="8" class="c0"/>
<circle cx="1068" cy="498" r="8" class="c0"/>
<circle cx="776" cy="762" r="8" class="c0"/>
<circle cx="1264" cy="772" r="8" class="c0"/>
<circle cx="650" cy="698" r="8" class="c0"/>
<circle cx="1254" cy="698" r="8" class="c0"/>
<circle cx="1056" cy="414" r="8" class="c0"/>
<circle cx="946" cy="602" r="8" class="c0"/>
<circle cx="1262" cy="716" r="8" class="c0"/>
<circle cx="1148" cy="644" r="8" class="c0"/>
<circle cx="914" cy="560" r="8" class="c0"/>
<circle cx="936" cy="620" r="8" class="c0"/>
<circle cx="662" cy="720" r="8" class="c0"/>
<circle cx="1024" cy="648" r="8" class="c0"/>
<circle cx="564" cy="696" r="8" class="c0"/>
<circle cx="1018" cy="600" r="8" class="c0"/>
<circle cx="888" cy="454" r="8" class="c0"/>
<circle cx="1012" cy="572" r="8" class="c0"/>
<circle cx="908" cy="708" r="8" class="c0"/>
<circle cx="928" cy="604" r="8" class="c0"/>
<circle cx="1224" cy="682" r="8" class="c0"/>
<circle cx="1060" cy="728" r="8" class="c0"/>
<circle cx="1038" cy="600" r="8" class="c0"/>
<circle cx="1150" cy="670" r="8" class="c0"/>
<circle cx="1328" cy="722" r="8" class="c0"/>
<circle cx="1376" cy="682" r="8" class="c0"/>
<circle cx="1078" cy="522" r="8" class="c0"/>
<circle cx="986" cy="716" r="8" class="c0"/>
<circle cx="1008" cy="400" r="8" class="c0"/>
<circle cx="1434" cy="734" r="8" class="c0"/>
<circle cx="1358" cy="688" r="8" class="c0"/>
<circle cx="1088" cy="710" r="8" class="c0"/>
<circle cx="1436" cy="756" r="8" class="c0"/>
<circle cx="1390" cy="760" r="8" class="c0"/>
<circle cx="1056" cy="550" r="8" class="c0"/>
<circle cx="550" cy="686" r="8" class="c0"/>
<circle cx="1078" cy="662" r="8" class="c0"/>
<circle cx="982" cy="634" r="8" class="c0"/>
<circle cx="854" cy="392" r="8" class="c0"/>
<circle cx="962" cy="408" r="8" class="c0"/>
<circle cx="1198" cy="696" r="8" class="c0"/>
<circle cx="884" cy="696" r="8" class="c0"/>
<circle cx="1380" cy="800" r="8" class="c0"/>
<circle cx="1054" cy="780" r="8" class="c0"/>
<circle cx="756" cy="752" r="8" class="c0"/>
<circle cx="940" cy="730" r="8" class="c0"/>
<circle cx="1322" cy="776" r="6" class="c0"/>
<circle cx="1028" cy="730" r="6" class="c0"/>
<circle cx="702" cy="698" r="6" class="c0"/>
<circle cx="640" cy="710" r="6" class="c0"/>
<circle cx="964" cy="548" r="6" class="c0"/>
<circle cx="902" cy="522" r="6" class="c0"/>
<circle cx="988" cy="514" r="6" class="c0"/>
<circle cx="1056" cy="604" r="6" class="c0"/>
<circle cx="1106" cy="540" r="6" class="c0"/>
<circle cx="1362" cy="776" r="6" class="c0"/>
<circle cx="1042" cy="466" r="6" class="c0"/>
<circle cx="874" cy="518" r="6" class="c0"/>
<circle cx="636" cy="730" r="6" class="c0"/>
<circle cx="1190" cy="652" r="6" class="c0"/>
<circle cx="932" cy="756" r="6" class="c0"/>
<circle cx="1086" cy="812" r="6" class="c0"/>
<circle cx="1040" cy="736" r="6" class="c0"/>
<circle cx="1130" cy="756" r="6" class="c0"/>
<circle cx="970" cy="664" r="6" class="c0"/>
<circle cx="916" cy="588" r="6" class="c0"/>
<circle cx="1062" cy="644" r="6" class="c0"/>
<circle cx="1206" cy="680" r="6" class="c0"/>
<circle cx="1296" cy="728" r="6" class="c0"/>
<circle cx="1310" cy="724" r="6" class="c0"/>
<circle cx="1098" cy="698" r="6" class="c0"/>
<circle cx="994" cy="572" r="6" class="c0"/>
<circle cx="906" cy="410" r="6" class="c0"/>
<circle cx="1014" cy="382" r="6" class="c0"/>
<circle cx="1104" cy="666" r="6" class="c0"/>
<circle cx="966" cy="374" r="6" class="c0"/>
<circle cx="1340" cy="684" r="6" class="c0"/>
<circle cx="840" cy="712" r="6" class="c0"/>
<circle cx="984" cy="586" r="6" class="c0"/>
<circle cx="1166" cy="764" r="6" class="c0"/>
<circle cx="1014" cy="734" r="6" class="c0"/>
<circle cx="1206" cy="776" r="6" class="c0"/>
<circle cx="600" cy="708" r="6" class="c0"/>
<circle cx="994" cy="690" r="6" class="c0"/>
<circle cx="1104" cy="760" r="6" class="c0"/>
<circle cx="1010" cy="454" r="6" class="c0"/>
<circle cx="1268" cy="788" r="6" class="c0"/>
<circle cx="972" cy="618" r="6" class="c0"/>
<circle cx="946" cy="542" r="6" class="c0"/>
<circle cx="1422" cy="786" r="6" class="c0"/>
<circle cx="748" cy="704" r="6" class="c0"/>
<circle cx="870" cy="712" r="6" class="c0"/>
<circle cx="1436" cy="784" r="6" class="c0"/>
<circle cx="1304" cy="666" r="6" class="c0"/>
<circle cx="574" cy="684" r="6" class="c0"/>
<circle cx="1214" cy="726" r="6" class="c0"/>
<circle cx="1370" cy="726" r="6" class="c0"/>
<circle cx="950" cy="508" r="6" class="c0"/>
<circle cx="1014" cy="490" r="6" class="c0"/>
<circle cx="752" cy="724" r="6" class="c0"/>
<circle cx="898" cy="464" r="6" class="c0"/>
<circle cx="900" cy="694" r="6" class="c0"/>
<circle cx="1064" cy="790" r="6" class="c0"/>
<circle cx="1318" cy="706" r="6" class="c0"/>
<circle cx="1170" cy="674" r="6" class="c0"/>
<circle cx="872" cy="728" r="6" class="c0"/>
<circle cx="1066" cy="532" r="6" class="c0"/>
<circle cx="1078" cy="484" r="6" class="c0"/>
<circle cx="1042" cy="818" r="6" class="c0"/>
<circle cx="918" cy="404" r="6" class="c0"/>
<circle cx="1042" cy="672" r="6" class="c0"/>
<circle cx="928" cy="498" r="6" class="c0"/>
<circle cx="1350" cy="758" r="6" class="c0"/>
<circle cx="1176" cy="650" r="6" class="c0"/>
<circle cx="910" cy="664" r="6" class="c0"/>
<circle cx="1306" cy="764" r="6" class="c0"/>
<circle cx="720" cy="700" r="6" class="c0"/>
<circle cx="980" cy="376" r="6" class="c0"/>
<circle cx="1328" cy="788" r="6" class="c0"/>
<circle cx="1124" cy="636" r="6" class="c0"/>
<circle cx="646" cy="722" r="6" class="c0"/>
<circle cx="1088" cy="620" r="6" class="c0"/>
<circle cx="966" cy="708" r="6" class="c0"/>
<circle cx="1098" cy="552" r="6" class="c0"/>
<circle cx="704" cy="734" r="6" class="c0"/>
<circle cx="994" cy="758" r="6" class="c0"/>
<circle cx="1246" cy="720" r="6" class="c0"/>
<circle cx="956" cy="476" r="6" class="c0"/>
<circle cx="936" cy="434" r="6" class="c0"/>
<circle cx="1122" cy="724" r="6" class="c0"/>
<circle cx="1414" cy="760" r="6" class="c0"/>
<circle cx="600" cy="686" r="6" class="c0"/>
<circle cx="1036" cy="658" r="6" class="c0"/>
<circle cx="1084" cy="728" r="6" class="c0"/>
<circle cx="1294" cy="692" r="6" class="c0"/>
<circle cx="1098" cy="586" r="6" class="c0"/>
<circle cx="1366" cy="816" r="6" class="c0"/>
<circle cx="1390" cy="790" r="6" class="c0"/>
<circle cx="1254" cy="760" r="6" class="c0"/>
<circle cx="1118" cy="670" r="6" class="c0"/>
<circle cx="578" cy="706" r="6" class="c0"/>
<circle cx="932" cy="636" r="6" class="c0"/>
<circle cx="1214" cy="768" r="6" class="c0"/>
<circle cx="1402" cy="710" r="6" class="c0"/>
<circle cx="1288" cy="736" r="6" class="c0"/>
<circle cx="1010" cy="614" r="6" class="c0"/>
</svg>
