<?xml version="1.0" encoding="utf-8"?>
<svg xmlns="http://www.w3.org/2000/svg"
     xmlns:xlink="http://www.w3.org/1999/xlink" width="1920" height="1440" >

            <defs>
            <style type="text/css"><![CDATA[
circle {stroke: none;}
.c0 {fill: #FFFFFF;}
]]></style>
            </defs>
<rect x="0" y="0" width="1920" height="1440" fill="black"/>
<circle cx="1038" cy="686" r="14" class="c0"/>
<circle cx="1238" cy="762" r="14" class="c0"/>
<circle cx="926" cy="462" r="12" class="c0"/>
<circle cx="882" cy="408" r="12" class="c0"/>
<circle cx="936" cy="736" r="12" class="c0"/>
<circle cx="1250" cy="692" r="12" class="c0"/>
<circle cx="858" cy="388" r="12" class="c0"/>
<circle cx="910" cy="424" r="12" class="c0"/>
<circle cx="1018" cy="742" r="12" class="c0"/>
<circle cx="1034" cy="724" r="12" class="c0"/>
<circle cx="1144" cy="684" r="12" class="c0"/>
<circle cx="1064" cy="606" r="12" class="c0"/>
<circle cx="1316" cy="782" r="12" class="c0"/>
<circle cx="1320" cy="676" r="12" class="c0"/>
<circle cx="1234" cy="726" r="12" class="c0"/>
<circle cx="1068" cy="756" r="12" class="c0"/>
<circle cx="1126" cy="714" r="12" class="c0"/>
<circle cx="1014" cy="488" r="12" class="c0"/>
<circle cx="1326" cy="718" r="12" class="c0"/>
<circle cx="932" cy="398" r="12" class="c0"/>
<circle cx="956" cy="504" r="12" class="c0"/>
<circle cx="1386" cy="746" r="12" class="c0"/>
<circle cx="978" cy="380" r="12" class="c0"/>
<circle cx="1106" cy="744" r="12" class="c0"/>
<circle cx="974" cy="436" r="12" class="c0"/>
<circle cx="982" cy="534" r="12" class="c0"/>
<circle cx="986" cy="404" r="12" class="c0"/>
<circle cx="1180" cy="702" r="12" class="c0"/>
<circle cx="1050" cy="810" r="10" class="c0"/>
<circle cx="1194" cy="730" r="10" class="c0"/>
<circle cx="1274" cy="738" r="10" class="c0"/>
<circle cx="918" cy="562" r="10" class="c0"/>
<circle cx="1232" cy="680" r="10" class="c0"/>
<circle cx="992" cy="742" r="10" class="c0"/>
<circle cx="950" cy="544" r="10" class="c0"/>
<circle cx="876" cy="524" r="10" class="c0"/>
<circle cx="976" cy="700" r="10" class="c0"/>
<circle cx="1156" cy="758" r="10" class="c0"/>
<circle cx="1058" cy="788" r="10" class="c0"/>
<circle cx="776" cy="710" r="10" class="c0"/>
<circle cx="1000" cy="508" r="10" class="c0"/>
<circle cx="1066" cy="488" r="10" class="c0"/>
<circle cx="962" cy="738" r="10" class="c0"/>
<circle cx="1056" cy="732" r="10" class="c0"/>
<circle cx="1044" cy="636" r="10" class="c0"/>
<circle cx="1344" cy="784" r="10" class="c0"/>
<circle cx="990" cy="470" r="10" class="c0"/>
<circle cx="958" cy="470" r="10" class="c0"/>
<circle cx="1114" cy="540" r="10" class="c0"/>
<circle cx="888" cy="704" r="10" class="c0"/>
<circle cx="1026" cy="536" r="10" class="c0"/>
<circle cx="1206" cy="742" r="10" class="c0"/>
<circle cx="1024" cy="624" r="10" class="c0"/>
<circle cx="900" cy="522" r="10" class="c0"/>
<circle cx="984" cy="628" r="10" class="c0"/>
<circle cx="1012" cy="392" r="10" class="c0"/>
<circle cx="1380" cy="798" r="10" class="c0"/>
<circle cx="1016" cy="460" r="10" class="c0"/>
<circle cx="1162" cy="716" r="10" class="c0"/>
<circle cx="1018" cy="558" r="10" class="c0"/>
<circle cx="1354" cy="678" r="10" class="c0"/>
<circle cx="958" cy="716" r="10" class="c0"/>
<circle cx="1210" cy="684" r="10" class="c0"/>
<circle cx="1158" cy="666" r="10" class="c0"/>
<circle cx="1078" cy="582" r="10" class="c0"/>
<circle cx="944" cy="580" r="10" class="c0"/>
<circle cx="1086" cy="712" r="10" class="c0"/>
<circle cx="1092" cy="672" r="10" class="c0"/>
<circle cx="1084" cy="644" r="10" class="c0"/>
<circle cx="1356" cy="770" r="10" class="c0"/>
<circle cx="1022" cy="588" r="10" class="c0"/>
<circle cx="1394" cy="776" r="10" class="c0"/>
<circle cx="1410" cy="744" r="10" class="c0"/>
<circle cx="840" cy="422" r="10" class="c0"/>
<circle cx="676" cy="698" r="10" class="c0"/>
<circle cx="1260" cy="722" r="10" class="c0"/>
<circle cx="572" cy="694" r="10" class="c0"/>
<circle cx="922" cy="754" r="10" class="c0"/>
<circle cx="1054" cy="528" r="10" class="c0"/>
<circle cx="1012" cy="642" r="10" class="c0"/>
<circle cx="992" cy="686" r="10" class="c0"/>
<circle cx="1046" cy="764" r="10" class="c0"/>
<circle cx="1142" cy="644" r="10" class="c0"/>
<circle cx="1178" cy="764" r="10" class="c0"/>
<circle cx="1102" cy="700" r="10" class="c0"/>
<circle cx="888" cy="446" r="10" class="c0"/>
<circle cx="932" cy="634" r="10" class="c0"/>
<circle cx="940" cy="424" r="8" class="c0"/>
<circle cx="1302" cy="754" r="8" class="c0"/>
<circle cx="1000" cy="568" r="8" class="c0"/>
<circle cx="1040" cy="406" r="8" class="c0"/>
<circle cx="956" cy="376" r="8" class="c0"/>
<circle cx="1072" cy="692" r="8" class="c0"/>
<circle cx="1284" cy="690" r="8" class="c0"/>
<circle cx="1080" cy="546" r="8" class="c0"/>
<circle cx="946" cy="608" r="8" class="c0"/>
<circle cx="1050" cy="666" r="8" class="c0"/>
<circle cx="674" cy="718" r="8" class="c0"/>
<circle cx="1026" cy="656" r="8" class="c0"/>
<circle cx="834" cy="718" r="8" class="c0"/>
<circle cx="1334" cy="694" r="8" class="c0"/>
<circle cx="1082" cy="526" r="8" class="c0"/>
<circle cx="1302" cy="692" r="8" class="c0"/>
<circle cx="640" cy="716" r="8" class="c0"/>
<circle cx="808" cy="708" r="8" class="c0"/>
<circle cx="1362" cy="808" r="8" class="c0"/>
<circle cx="1438" cy="754" r="8" class="c0"/>
<circle cx="1416" cy="724" r="8" class="c0"/>
<circle cx="1210" cy="716" r="8" class="c0"/>
<circle cx="1014" cy="692" r="8" class="c0"/>
<circle cx="968" cy="588" r="8" class="c0"/>
<circle cx="976" cy="562" r="8" class="c0"/>
<circle cx="1368" cy="700" r="8" class="c0"/>
<circle cx="1294" cy="736" r="8" class="c0"/>
<circle cx="862" cy="428" r="8" class="c0"/>
<circle cx="1080" cy="736" r="8" class="c0"/>
<circle cx="1040" cy="476" r="8" class="c0"/>
<circle cx="892" cy="726" r="8" class="c0"/>
<circle cx="1098" cy="604" r="8" class="c0"/>
<circle cx="638" cy="694" r="8" class="c0"/>
<circle cx="980" cy="600" r="8" class="c0"/>
<circle cx="924" cy="494" r="8" class="c0"/>
<circle cx="1088" cy="616" r="8" class="c0"/>
<circle cx="998" cy="422" r="8" class="c0"/>
<circle cx="944" cy="760" r="8" class="c0"/>
<circle cx="992" cy="552" r="8" class="c0"/>
<circle cx="720" cy="712" r="8" class="c0"/>
<circle cx="1068" cy="664" r="8" class="c0"/>
<circle cx="1384" cy="690" r="8" class="c0"/>
<circle cx="1290" cy="718" r="8" class="c0"/>
<circle cx="1010" cy="524" r="8" class="c0"/>
<circle cx="910" cy="716" r="8" class="c0"/>
<circle cx="1172" cy="744" r="8" class="c0"/>
<circle cx="1330" cy="798" r="8" class="c0"/>
<circle cx="1326" cy="762" r="8" class="c0"/>
<circle cx="1032" cy="512" r="8" class="c0"/>
<circle cx="1006" cy="720" r="8" class="c0"/>
<circle cx="998" cy="450" r="8" class="c0"/>
<circle cx="982" cy="664" r="8" class="c0"/>
<circle cx="924" cy="704" r="8" class="c0"/>
<circle cx="938" cy="478" r="8" class="c0"/>
<circle cx="952" cy="444" r="8" class="c0"/>
<circle cx="1072" cy="512" r="8" class="c0"/>
<circle cx="1360" cy="716" r="8" class="c0"/>
<circle cx="1338" cy="748" r="8" class="c0"/>
<circle cx="1084" cy="812" r="8" class="c0"/>
<circle cx="750" cy="744" r="8" class="c0"/>
<circle cx="946" cy="698" r="8" class="c0"/>
<circle cx="1282" cy="788" r="8" class="c0"/>
<circle cx="960" cy="526" r="8" class="c0"/>
<circle cx="740" cy="704" r="8" class="c0"/>
<circle cx="1436" cy="734" r="8" class="c0"/>
<circle cx="1144" cy="740" r="8" class="c0"/>
<circle cx="970" cy="488" r="8" class="c0"/>
<circle cx="1060" cy="704" r="8" class="c0"/>
<circle cx="1396" cy="704" r="8" class="c0"/>
<circle cx="1052" cy="508" r="8" class="c0"/>
<circle cx="1428" cy="772" r="8" class="c0"/>
<circle cx="598" cy="700" r="8" class="c0"/>
<circle cx="970" cy="614" r="8" class="c0"/>
<circle cx="1004" cy="602" r="8" class="c0"/>
<circle cx="1114" cy="640" r="8" class="c0"/>
<circle cx="696" cy="714" r="8" class="c0"/>
<circle cx="974" cy="514" r="8" class="c0"/>
<circle cx="950" cy="414" r="8" class="c0"/>
<circle cx="1268" cy="674" r="8" class="c0"/>
<circle cx="1122" cy="682" r="8" class="c0"/>
<circle cx="1100" cy="630" r="8" class="c0"/>
<circle cx="1254" cy="744" r="8" class="c0"/>
<circle cx="890" cy="506" r="8" class="c0"/>
<circle cx="1298" cy="670" r="8" class="c0"/>
<circle cx="1384" cy="718" r="8" class="c0"/>
<circle cx="858" cy="724" r="8" class="c0"/>
<circle cx="1016" cy="670" r="8" class="c0"/>
<circle cx="1312" cy="702" r="8" class="c0"/>
<circle cx="992" cy="588" r="8" class="c0"/>
<circle cx="1376" cy="766" r="8" class="c0"/>
<circle cx="1280" cy="764" r="8" class="c0"/>
<circle cx="904" cy="672" r="8" class="c0"/>
<circle cx="928" cy="438" r="8" class="c0"/>
<circle cx="1312" cy="744" r="8" class="c0"/>
<circle cx="1276" cy="708" r="8" class="c0"/>
<circle cx="974" cy="756" r="8" class="c0"/>
<circle cx="622" cy="718" r="8" class="c0"/>
<circle cx="926" cy="598" r="8" class="c0"/>
<circle cx="908" cy="544" r="8" class="c0"/>
<circle cx="1222" cy="696" r="8" class="c0"/>
<circle cx="708" cy="700" r="8" class="c0"/>
<circle cx="1210" cy="776" r="8" class="c0"/>
<circle cx="1176" cy="676" r="8" class="c0"/>
<circle cx="1074" cy="628" r="8" class="c0"/>
<circle cx="1364" cy="752" r="8" class="c0"/>
<circle cx="1064" cy="558" r="8" class="c0"/>
<circle cx="962" cy="680" r="8" class="c0"/>
<circle cx="1080" cy="778" r="8" class="c0"/>
<circle cx="620" cy="696" r="8" class="c0"/>
<circle cx="874" cy="716" r="8" class="c0"/>
<circle cx="914" cy="662" r="8" class="c0"/>
<circle cx="1000" cy="658" r="8" class="c0"/>
<circle cx="1016" cy="710" r="8" class="c0"/>
<circle cx="550" cy="688" r="8" class="c0"/>
<circle cx="1368" cy="784" r="8" class="c0"/>
<circle cx="912" cy="734" r="8" class="c0"/>
<circle cx="1256" cy="780" r="8" class="c0"/>
<circle cx="754" cy="718" r="8" class="c0"/>
<circle cx="726" cy="740" r="8" class="c0"/>
<circle cx="1062" cy="416" r="8" class="c0"/>
<circle cx="882" cy="384" r="8" class="c0"/>
<circle cx="958" cy="396" r="8" class="c0"/>
<circle cx="978" cy="458" r="8" class="c0"/>
<circle cx="1348" cy="732" r="8" class="c0"/>
<circle cx="1168" cy="646" r="8" class="c0"/>
<circle cx="1004" cy="542" r="8" class="c0"/>
<circle cx="1100" cy="556" r="8" class="c0"/>
<circle cx="1004" cy="756" r="8" class="c0"/>
<circle cx="980" cy="726" r="8" class="c0"/>
<circle cx="846" cy="372" r="8" class="c0"/>
<circle cx="656" cy="704" r="8" class="c0"/>
<circle cx="736" cy="726" r="8" class="c0"/>
<circle cx="982" cy="498" r="8" class="c0"/>
<circle cx="990" cy="648" r="8" class="c0"/>
<circle cx="1098" cy="518" r="8" class="c0"/>
<circle cx="1038" cy="608" r="8" class="c0"/>
<circle cx="956" cy="564" r="8" class="c0"/>
<circle cx="1410" cy="766" r="8" class="c0"/>
<circle cx="1000" cy="378" r="8" class="c0"/>
<circle cx="1370" cy="730" r="8" class="c0"/>
<circle cx="1070" cy="800" r="8" class="c0"/>
<circle cx="900" cy="692" r="8" class="c0"/>
<circle cx="850" cy="710" r="6" class="c0"/>
<circle cx="710" cy="732" r="6" class="c0"/>
<circle cx="1122" cy="754" r="6" class="c0"/>
<circle cx="908" cy="446" r="6" class="c0"/>
<circle cx="872" cy="438" r="6" class="c0"/>
<circle cx="1346" cy="704" r="6" class="c0"/>
<circle cx="1028" cy="760" r="6" class="c0"/>
<circle cx="1038" cy="496" r="6" class="c0"/>
<circle cx="990" cy="712" r="6" class="c0"/>
<circle cx="1296" cy="770" r="6" class="c0"/>
<circle cx="1398" cy="726" r="6" class="c0"/>
<circle cx="1068" cy="718" r="6" class="c0"/>
<circle cx="1096" cy="534" r="6" class="c0"/>
<circle cx="794" cy="718" r="6" class="c0"/>
<circle cx="1042" cy="544" r="6" class="c0"/>
<circle cx="994" cy="614" r="6" class="c0"/>
<circle cx="1422" cy="756" r="6" class="c0"/>
<circle cx="1192" cy="686" r="6" class="c0"/>
<circle cx="982" cy="578" r="6" class="c0"/>
<circle cx="1094" cy="574" r="6" class="c0"/>
<circle cx="1090" cy="756" r="6" class="c0"/>
<circle cx="970" cy="416" r="6" class="c0"/>
<circle cx="1062" cy="640" r="6" class="c0"/>
<circle cx="1036" cy="750" r="6" class="c0"/>
<circle cx="1166" cy="686" r="6" class="c0"/>
<circle cx="1002" cy="702" r="6" class="c0"/>
<circle cx="1200" cy="650" r="6" class="c0"/>
<circle cx="1144" cy="722" r="6" class="c0"/>
<circle cx="1124" cy="650" r="6" class="c0"/>
<circle cx="922" cy="582" r="6" class="c0"/>
<circle cx="1196" cy="756" r="6" class="c0"/>
<circle cx="1004" cy="626" r="6" class="c0"/>
<circle cx="1430" cy="792" r="6" class="c0"/>
<circle cx="1024" cy="404" r="6" class="c0"/>
<circle cx="1306" cy="726" r="6" class="c0"/>
<circle cx="916" cy="642" r="6" class="c0"/>
<circle cx="588" cy="686" r="6" class="c0"/>
<circle cx="780" cy="760" r="6" class="c0"/>
<circle cx="934" cy="714" r="6" class="c0"/>
<circle cx="1376" cy="674" r="6" class="c0"/>
<circle cx="1262" cy="760" r="6" class="c0"/>
<circle cx="1216" cy="758" r="6" class="c0"/>
<circle cx="1104" cy="720" r="6" class="c0"/>
<circle cx="1038" cy="788" r="6" class="c0"/>
<circle cx="1150" cy="704" r="6" class="c0"/>
<circle cx="900" cy="458" r="6" class="c0"/>
<circle cx="768" cy="754" r="6" class="c0"/>
<circle cx="1128" cy="742" r="6" class="c0"/>
<circle cx="1008" cy="410" r="6" class="c0"/>
<circle cx="860" cy="412" r="6" class="c0"/>
<circle cx="1300" cy="792" r="6" class="c0"/>
<circle cx="1060" cy="682" r="6" class="c0"/>
<circle cx="1200" cy="706" r="6" class="c0"/>
<circle cx="960" cy="424" r="6" class="c0"/>
<circle cx="688" cy="728" r="6" class="c0"/>
<circle cx="1418" cy="784" r="6" class="c0"/>
<circle cx="880" cy="428" r="6" class="c0"/>
<circle cx="1340" cy="668" r="6" class="c0"/>
<circle cx="1070" cy="536" r="6" class="c0"/>
<circle cx="1086" cy="796" r="6" class="c0"/>
<circle cx="1272" cy="778" r="6" class="c0"/>
<circle cx="1346" cy="802" r="6" class="c0"/>
<circle cx="610" cy="686" r="6" class="c0"/>
<circle cx="956" cy="598" r="6" class="c0"/>
<circle cx="1226" cy="744" r="6" class="c0"/>
<circle cx="940" cy="562" r="6" class="c0"/>
<circle cx="1058" cy="626" r="6" class="c0"/>
<circle cx="924" cy="652" r="6" class="c0"/>
<circle cx="1050" cy="714" r="6" class="c0"/>
<circle cx="888" cy="536" r="6" class="c0"/>
<circle cx="1188" cy="748" r="6" class="c0"/>
<circle cx="758" cy="702" r="6" class="c0"/>
<circle cx="1230" cy="782" r="6" class="c0"/>
<circle cx="992" cy="488" r="6" class="c0"/>
<circle cx="930" cy="614" r="6" class="c0"/>
<circle cx="1094" cy="728" r="6" class="c0"/>
<circle cx="914" cy="482" r="6" class="c0"/>
<circle cx="1176" cy="726" r="6" class="c0"/>
<circle cx="1246" cy="712" r="6" class="c0"/>
<circle cx="968" cy="546" r="6" class="c0"/>
<circle cx="1194" cy="774" r="6" class="c0"/>
<circle cx="828" cy="410" r="6" class="c0"/>
<circle cx="1112" cy="672" r="6" class="c0"/>
<circle cx="816" cy="722" r="6" class="c0"/>
<circle cx="1232" cy="706" r="6" class="c0"/>
<circle cx="1056" cy="474" r="6" class="c0"/>
<circle cx="1020" cy="606" r="6" class="c0"/>
<circle cx="658" cy="720" r="6" class="c0"/>
<circle cx="1158" cy="696" r="6" class="c0"/>
<circle cx="632" cy="732" r="6" class="c0"/>
<circle cx="1406" cy="790" r="6" class="c0"/>
<circle cx="1184" cy="650" r="6" class="c0"/>
<circle cx="1050" cy="618" r="6" class="c0"/>
<circle cx="946" cy="386" r="6" class="c0"/>
<circle cx="1032" cy="392" r="6" class="c0"/>
<circle cx="1160" cy="734" r="6" class="c0"/>
<circle cx="1328" cy="738" r="6" class="c0"/>
<circle cx="1088" cy="690" r="6" class="c0"/>
<circle cx="1054" cy="650" r="6" class="c0"/>
<circle cx="1096" cy="588" r="6" class="c0"/>
</svg>
