<?xml version="1.0" encoding="utf-8"?>
<svg xmlns="http://www.w3.org/2000/svg"
     xmlns:xlink="http://www.w3.org/1999/xlink" width="1920" height="1440" >

            <defs>
            <style type="text/css"><![CDATA[
circle {stroke: none;}
.c0 {fill: #FFFFFF;}
]]></style>
            </defs>
<rect x="0" y="0" width="1920" height="1440" fill="black"/>
<circle cx="1060" cy="670" r="14" class="c0"/>
<circle cx="1000" cy="678" r="12" class="c0"/>
<circle cx="1320" cy="734" r="12" class="c0"/>
<circle cx="1002" cy="614" r="12" class="c0"/>
<circle cx="1120" cy="732" r="12" class="c0"/>
<circle cx="982" cy="594" r="12" class="c0"/>
<circle cx="1404" cy="760" r="12" class="c0"/>
<circle cx="1118" cy="692" r="12" class="c0"/>
<circle cx="1262" cy="712" r="12" class="c0"/>
<circle cx="946" cy="482" r="12" class="c0"/>
<circle cx="1356" cy="760" r="12" class="c0"/>
<circle cx="1198" cy="752" r="12" class="c0"/>
<circle cx="1226" cy="684" r="12" class="c0"/>
<circle cx="854" cy="378" r="12" class="c0"/>
<circle cx="1022" cy="730" r="12" class="c0"/>
<circle cx="1350" cy="706" r="12" class="c0"/>
<circle cx="1242" cy="762" r="12" class="c0"/>
<circle cx="1226" cy="728" r="12" class="c0"/>
<circle cx="1100" cy="526" r="12" class="c0"/>
<circle cx="1032" cy="706" r="12" class="c0"/>
<circle cx="878" cy="440" r="12" class="c0"/>
<circle cx="740" cy="706" r="12" class="c0"/>
<circle cx="1084" cy="586" r="12" class="c0"/>
<circle cx="1082" cy="754" r="12" class="c0"/>
<circle cx="1260" cy="778" r="10" class="c0"/>
<circle cx="1044" cy="758" r="10" class="c0"/>
<circle cx="1172" cy="724" r="10" class="c0"/>
<circle cx="1198" cy="726" r="10" class="c0"/>
<circle cx="1064" cy="702" r="10" class="c0"/>
<circle cx="990" cy="560" r="10" class="c0"/>
<circle cx="944" cy="422" r="10" class="c0"/>
<circle cx="884" cy="516" r="10" class="c0"/>
<circle cx="1002" cy="506" r="10" class="c0"/>
<circle cx="1378" cy="786" r="10" class="c0"/>
<circle cx="718" cy="732" r="10" class="c0"/>
<circle cx="1046" cy="638" r="10" class="c0"/>
<circle cx="896" cy="718" r="10" class="c0"/>
<circle cx="1052" cy="808" r="10" class="c0"/>
<circle cx="952" cy="694" r="10" class="c0"/>
<circle cx="1026" cy="658" r="10" class="c0"/>
<circle cx="980" cy="446" r="10" class="c0"/>
<circle cx="942" cy="750" r="10" class="c0"/>
<circle cx="922" cy="406" r="10" class="c0"/>
<circle cx="674" cy="708" r="10" class="c0"/>
<circle cx="1010" cy="528" r="10" class="c0"/>
<circle cx="1058" cy="734" r="10" class="c0"/>
<circle cx="1140" cy="748" r="10" class="c0"/>
<circle cx="904" cy="440" r="10" class="c0"/>
<circle cx="998" cy="432" r="10" class="c0"/>
<circle cx="638" cy="708" r="10" class="c0"/>
<circle cx="992" cy="726" r="10" class="c0"/>
<circle cx="650" cy="696" r="10" class="c0"/>
<circle cx="1322" cy="780" r="10" class="c0"/>
<circle cx="1060" cy="786" r="10" class="c0"/>
<circle cx="1140" cy="716" r="10" class="c0"/>
<circle cx="1042" cy="518" r="10" class="c0"/>
<circle cx="1304" cy="748" r="10" class="c0"/>
<circle cx="972" cy="702" r="10" class="c0"/>
<circle cx="1004" cy="404" r="10" class="c0"/>
<circle cx="1392" cy="724" r="10" class="c0"/>
<circle cx="1078" cy="724" r="10" class="c0"/>
<circle cx="928" cy="722" r="10" class="c0"/>
<circle cx="962" cy="510" r="10" class="c0"/>
<circle cx="1066" cy="608" r="10" class="c0"/>
<circle cx="1082" cy="628" r="10" class="c0"/>
<circle cx="1036" cy="682" r="10" class="c0"/>
<circle cx="596" cy="698" r="10" class="c0"/>
<circle cx="1152" cy="652" r="10" class="c0"/>
<circle cx="572" cy="692" r="10" class="c0"/>
<circle cx="1016" cy="640" r="10" class="c0"/>
<circle cx="928" cy="468" r="10" class="c0"/>
<circle cx="1108" cy="750" r="10" class="c0"/>
<circle cx="620" cy="696" r="10" class="c0"/>
<circle cx="1038" cy="490" r="10" class="c0"/>
<circle cx="980" cy="744" r="10" class="c0"/>
<circle cx="850" cy="424" r="10" class="c0"/>
<circle cx="1090" cy="702" r="10" class="c0"/>
<circle cx="968" cy="460" r="10" class="c0"/>
<circle cx="1036" cy="542" r="10" class="c0"/>
<circle cx="976" cy="484" r="10" class="c0"/>
<circle cx="940" cy="454" r="10" class="c0"/>
<circle cx="1420" cy="736" r="10" class="c0"/>
<circle cx="1294" cy="670" r="8" class="c0"/>
<circle cx="1038" cy="616" r="8" class="c0"/>
<circle cx="1434" cy="784" r="8" class="c0"/>
<circle cx="1076" cy="530" r="8" class="c0"/>
<circle cx="970" cy="538" r="8" class="c0"/>
<circle cx="1004" cy="380" r="8" class="c0"/>
<circle cx="944" cy="578" r="8" class="c0"/>
<circle cx="766" cy="716" r="8" class="c0"/>
<circle cx="958" cy="562" r="8" class="c0"/>
<circle cx="1348" cy="672" r="8" class="c0"/>
<circle cx="982" cy="628" r="8" class="c0"/>
<circle cx="880" cy="388" r="8" class="c0"/>
<circle cx="922" cy="644" r="8" class="c0"/>
<circle cx="860" cy="714" r="8" class="c0"/>
<circle cx="1410" cy="716" r="8" class="c0"/>
<circle cx="1206" cy="776" r="8" class="c0"/>
<circle cx="810" cy="712" r="8" class="c0"/>
<circle cx="904" cy="686" r="8" class="c0"/>
<circle cx="1030" cy="392" r="8" class="c0"/>
<circle cx="1022" cy="516" r="8" class="c0"/>
<circle cx="1278" cy="732" r="8" class="c0"/>
<circle cx="1334" cy="752" r="8" class="c0"/>
<circle cx="1166" cy="752" r="8" class="c0"/>
<circle cx="992" cy="472" r="8" class="c0"/>
<circle cx="1190" cy="648" r="8" class="c0"/>
<circle cx="916" cy="758" r="8" class="c0"/>
<circle cx="1364" cy="730" r="8" class="c0"/>
<circle cx="1296" cy="766" r="8" class="c0"/>
<circle cx="1378" cy="742" r="8" class="c0"/>
<circle cx="882" cy="418" r="8" class="c0"/>
<circle cx="1012" cy="586" r="8" class="c0"/>
<circle cx="1334" cy="794" r="8" class="c0"/>
<circle cx="1012" cy="480" r="8" class="c0"/>
<circle cx="1084" cy="656" r="8" class="c0"/>
<circle cx="1074" cy="554" r="8" class="c0"/>
<circle cx="1018" cy="692" r="8" class="c0"/>
<circle cx="1138" cy="684" r="8" class="c0"/>
<circle cx="1298" cy="692" r="8" class="c0"/>
<circle cx="1304" cy="718" r="8" class="c0"/>
<circle cx="998" cy="702" r="8" class="c0"/>
<circle cx="1224" cy="752" r="8" class="c0"/>
<circle cx="1190" cy="692" r="8" class="c0"/>
<circle cx="1298" cy="790" r="8" class="c0"/>
<circle cx="688" cy="720" r="8" class="c0"/>
<circle cx="1128" cy="646" r="8" class="c0"/>
<circle cx="1328" cy="680" r="8" class="c0"/>
<circle cx="1338" cy="690" r="8" class="c0"/>
<circle cx="1082" cy="678" r="8" class="c0"/>
<circle cx="842" cy="712" r="8" class="c0"/>
<circle cx="1258" cy="738" r="8" class="c0"/>
<circle cx="972" cy="414" r="8" class="c0"/>
<circle cx="950" cy="538" r="8" class="c0"/>
<circle cx="1054" cy="480" r="8" class="c0"/>
<circle cx="1018" cy="458" r="8" class="c0"/>
<circle cx="934" cy="562" r="8" class="c0"/>
<circle cx="1054" cy="414" r="8" class="c0"/>
<circle cx="1386" cy="692" r="8" class="c0"/>
<circle cx="906" cy="536" r="8" class="c0"/>
<circle cx="1068" cy="506" r="8" class="c0"/>
<circle cx="1278" cy="678" r="8" class="c0"/>
<circle cx="1040" cy="788" r="8" class="c0"/>
<circle cx="866" cy="398" r="8" class="c0"/>
<circle cx="1354" cy="796" r="8" class="c0"/>
<circle cx="1210" cy="698" r="8" class="c0"/>
<circle cx="952" cy="384" r="8" class="c0"/>
<circle cx="1090" cy="810" r="8" class="c0"/>
<circle cx="940" cy="706" r="8" class="c0"/>
<circle cx="1246" cy="698" r="8" class="c0"/>
<circle cx="1280" cy="758" r="8" class="c0"/>
<circle cx="1314" cy="708" r="8" class="c0"/>
<circle cx="878" cy="706" r="8" class="c0"/>
<circle cx="1072" cy="484" r="8" class="c0"/>
<circle cx="1280" cy="780" r="8" class="c0"/>
<circle cx="698" cy="730" r="8" class="c0"/>
<circle cx="1072" cy="802" r="8" class="c0"/>
<circle cx="716" cy="712" r="8" class="c0"/>
<circle cx="1162" cy="694" r="8" class="c0"/>
<circle cx="1000" cy="654" r="8" class="c0"/>
<circle cx="956" cy="438" r="8" class="c0"/>
<circle cx="954" cy="596" r="8" class="c0"/>
<circle cx="958" cy="404" r="8" class="c0"/>
<circle cx="960" cy="740" r="8" class="c0"/>
<circle cx="942" cy="396" r="8" class="c0"/>
<circle cx="976" cy="392" r="8" class="c0"/>
<circle cx="922" cy="580" r="8" class="c0"/>
<circle cx="964" cy="758" r="8" class="c0"/>
<circle cx="1106" cy="712" r="8" class="c0"/>
<circle cx="918" cy="706" r="8" class="c0"/>
<circle cx="1284" cy="706" r="8" class="c0"/>
<circle cx="1106" cy="632" r="8" class="c0"/>
<circle cx="924" cy="444" r="8" class="c0"/>
<circle cx="900" cy="502" r="8" class="c0"/>
<circle cx="1256" cy="682" r="8" class="c0"/>
<circle cx="980" cy="518" r="8" class="c0"/>
<circle cx="938" cy="620" r="8" class="c0"/>
<circle cx="742" cy="744" r="8" class="c0"/>
<circle cx="1376" cy="710" r="8" class="c0"/>
<circle cx="894" cy="698" r="8" class="c0"/>
<circle cx="1416" cy="778" r="8" class="c0"/>
<circle cx="926" cy="598" r="8" class="c0"/>
<circle cx="1156" cy="736" r="8" class="c0"/>
<circle cx="1170" cy="666" r="8" class="c0"/>
<circle cx="910" cy="420" r="8" class="c0"/>
<circle cx="1344" cy="740" r="8" class="c0"/>
<circle cx="1180" cy="764" r="8" class="c0"/>
<circle cx="1382" cy="764" r="8" class="c0"/>
<circle cx="1014" cy="558" r="8" class="c0"/>
<circle cx="1228" cy="706" r="8" class="c0"/>
<circle cx="968" cy="576" r="8" class="c0"/>
<circle cx="1094" cy="616" r="8" class="c0"/>
<circle cx="834" cy="412" r="8" class="c0"/>
<circle cx="1056" cy="546" r="8" class="c0"/>
<circle cx="916" cy="552" r="8" class="c0"/>
<circle cx="1082" cy="782" r="8" class="c0"/>
<circle cx="776" cy="756" r="8" class="c0"/>
<circle cx="1028" cy="470" r="8" class="c0"/>
<circle cx="1366" cy="814" r="8" class="c0"/>
<circle cx="1366" cy="684" r="8" class="c0"/>
<circle cx="1120" cy="538" r="8" class="c0"/>
<circle cx="976" cy="680" r="8" class="c0"/>
<circle cx="1102" cy="678" r="8" class="c0"/>
<circle cx="1104" cy="554" r="8" class="c0"/>
<circle cx="1028" cy="600" r="8" class="c0"/>
<circle cx="960" cy="714" r="8" class="c0"/>
<circle cx="912" cy="664" r="8" class="c0"/>
<circle cx="1086" cy="542" r="8" class="c0"/>
<circle cx="874" cy="724" r="8" class="c0"/>
<circle cx="984" cy="662" r="8" class="c0"/>
<circle cx="1058" cy="528" r="6" class="c0"/>
<circle cx="1040" cy="738" r="6" class="c0"/>
<circle cx="970" cy="730" r="6" class="c0"/>
<circle cx="1002" cy="454" r="6" class="c0"/>
<circle cx="1094" cy="646" r="6" class="c0"/>
<circle cx="1152" cy="760" r="6" class="c0"/>
<circle cx="1396" cy="782" r="6" class="c0"/>
<circle cx="1184" cy="736" r="6" class="c0"/>
<circle cx="1004" cy="752" r="6" class="c0"/>
<circle cx="1186" cy="670" r="6" class="c0"/>
<circle cx="790" cy="708" r="6" class="c0"/>
<circle cx="1204" cy="682" r="6" class="c0"/>
<circle cx="990" cy="642" r="6" class="c0"/>
<circle cx="1296" cy="732" r="6" class="c0"/>
<circle cx="904" cy="460" r="6" class="c0"/>
<circle cx="924" cy="490" r="6" class="c0"/>
<circle cx="1020" cy="756" r="6" class="c0"/>
<circle cx="972" cy="610" r="6" class="c0"/>
<circle cx="1048" cy="694" r="6" class="c0"/>
<circle cx="1156" cy="676" r="6" class="c0"/>
<circle cx="988" cy="376" r="6" class="c0"/>
<circle cx="1064" cy="634" r="6" class="c0"/>
<circle cx="1174" cy="706" r="6" class="c0"/>
<circle cx="1424" cy="758" r="6" class="c0"/>
<circle cx="698" cy="702" r="6" class="c0"/>
<circle cx="658" cy="720" r="6" class="c0"/>
<circle cx="1238" cy="782" r="6" class="c0"/>
<circle cx="1012" cy="710" r="6" class="c0"/>
<circle cx="994" cy="538" r="6" class="c0"/>
<circle cx="1314" cy="668" r="6" class="c0"/>
<circle cx="1158" cy="712" r="6" class="c0"/>
<circle cx="966" cy="374" r="6" class="c0"/>
<circle cx="1246" cy="722" r="6" class="c0"/>
<circle cx="1226" cy="776" r="6" class="c0"/>
<circle cx="1440" cy="756" r="6" class="c0"/>
<circle cx="828" cy="722" r="6" class="c0"/>
<circle cx="1028" cy="580" r="6" class="c0"/>
<circle cx="1068" cy="770" r="6" class="c0"/>
<circle cx="626" cy="722" r="6" class="c0"/>
<circle cx="946" cy="730" r="6" class="c0"/>
<circle cx="1016" cy="496" r="6" class="c0"/>
<circle cx="758" cy="748" r="6" class="c0"/>
<circle cx="888" cy="534" r="6" class="c0"/>
<circle cx="1330" cy="710" r="6" class="c0"/>
<circle cx="1020" cy="622" r="6" class="c0"/>
<circle cx="554" cy="686" r="6" class="c0"/>
<circle cx="1040" cy="404" r="6" class="c0"/>
<circle cx="902" cy="520" r="6" class="c0"/>
<circle cx="1214" cy="742" r="6" class="c0"/>
<circle cx="1094" cy="732" r="6" class="c0"/>
<circle cx="1176" cy="684" r="6" class="c0"/>
<circle cx="1338" cy="810" r="6" class="c0"/>
<circle cx="1044" cy="656" r="6" class="c0"/>
<circle cx="1288" cy="722" r="6" class="c0"/>
<circle cx="1046" cy="718" r="6" class="c0"/>
<circle cx="960" cy="528" r="6" class="c0"/>
<circle cx="914" cy="734" r="6" class="c0"/>
<circle cx="936" cy="498" r="6" class="c0"/>
<circle cx="1196" cy="708" r="6" class="c0"/>
<circle cx="1000" cy="576" r="6" class="c0"/>
<circle cx="1308" cy="682" r="6" class="c0"/>
<circle cx="922" cy="742" r="6" class="c0"/>
<circle cx="1376" cy="674" r="6" class="c0"/>
<circle cx="994" cy="390" r="6" class="c0"/>
<circle cx="1058" cy="496" r="6" class="c0"/>
<circle cx="1170" cy="646" r="6" class="c0"/>
<circle cx="1396" cy="706" r="6" class="c0"/>
<circle cx="1390" cy="802" r="6" class="c0"/>
<circle cx="1270" cy="694" r="6" class="c0"/>
<circle cx="1432" cy="748" r="6" class="c0"/>
<circle cx="1320" cy="762" r="6" class="c0"/>
<circle cx="1072" cy="420" r="6" class="c0"/>
<circle cx="1336" cy="722" r="6" class="c0"/>
<circle cx="1086" cy="510" r="6" class="c0"/>
<circle cx="1316" cy="690" r="6" class="c0"/>
<circle cx="896" cy="410" r="6" class="c0"/>
<circle cx="1264" cy="754" r="6" class="c0"/>
<circle cx="1358" cy="780" r="6" class="c0"/>
<circle cx="1096" cy="600" r="6" class="c0"/>
<circle cx="1062" cy="752" r="6" class="c0"/>
<circle cx="986" cy="402" r="6" class="c0"/>
<circle cx="986" cy="692" r="6" class="c0"/>
<circle cx="982" cy="502" r="6" class="c0"/>
<circle cx="1068" cy="650" r="6" class="c0"/>
<circle cx="1190" cy="774" r="6" class="c0"/>
<circle cx="782" cy="722" r="6" class="c0"/>
<circle cx="1336" cy="768" r="6" class="c0"/>
<circle cx="1432" cy="724" r="6" class="c0"/>
<circle cx="638" cy="728" r="6" class="c0"/>
<circle cx="1316" cy="798" r="6" class="c0"/>
<circle cx="866" cy="416" r="6" class="c0"/>
<circle cx="960" cy="676" r="6" class="c0"/>
<circle cx="1344" cy="778" r="6" class="c0"/>
<circle cx="990" cy="416" r="6" class="c0"/>
<circle cx="1214" cy="714" r="6" class="c0"/>
<circle cx="750" cy="726" r="6" class="c0"/>
<circle cx="972" cy="554" r="6" class="c0"/>
<circle cx="1020" cy="382" r="6" class="c0"/>
<circle cx="1402" cy="738" r="6" class="c0"/>
<circle cx="926" cy="424" r="6" class="c0"/>
<circle cx="994" cy="488" r="6" class="c0"/>
<circle cx="890" cy="454" r="6" class="c0"/>
<circle cx="1214" cy="762" r="6" class="c0"/>
<circle cx="1054" cy="620" r="6" class="c0"/>
<circle cx="1004" cy="546" r="6" class="c0"/>
<circle cx="992" cy="758" r="6" class="c0"/>
<circle cx="1238" cy="742" r="6" class="c0"/>
<circle cx="1030" cy="630" r="6" class="c0"/>
<circle cx="776" cy="704" r="6" class="c0"/>
<circle cx="1044" cy="466" r="6" class="c0"/>
<circle cx="892" cy="428" r="6" class="c0"/>
<circle cx="1030" cy="748" r="6" class="c0"/>
<circle cx="998" cy="634" r="6" class="c0"/>
<circle cx="970" cy="430" r="6" class="c0"/>
<circle cx="1324" cy="698" r="6" class="c0"/>
<circle cx="1048" cy="606" r="6" class="c0"/>
<circle cx="1242" cy="674" r="6" class="c0"/>
<circle cx="826" cy="708" r="6" class="c0"/>
<circle cx="618" cy="714" r="6" class="c0"/>
<circle cx="800" cy="722" r="6" class="c0"/>
<circle cx="1206" cy="650" r="6" class="c0"/>
<circle cx="982" cy="424" r="6" class="c0"/>
<circle cx="1064" cy="590" r="6" class="c0"/>
<circle cx="1146" cy="698" r="6" class="c0"/>
<circle cx="686" cy="696" r="6" class="c0"/>
<circle cx="916" cy="480" r="6" class="c0"/>
</svg>
