<?xml version="1.0" encoding="utf-8"?>
<svg xmlns="http://www.w3.org/2000/svg"
     xmlns:xlink="http://www.w3.org/1999/xlink" width="1920" height="1440" >

            <defs>
            <style type="text/css"><![CDATA[
circle {stroke: none;}
.c0 {fill: #000000;}
]]></style>
            </defs>
<rect x="0" y="0" width="1920" height="1440" fill="white"/>
<circle cx="1014" cy="664" r="14" class="c0"/>
<circle cx="1202" cy="486" r="12" class="c0"/>
<circle cx="936" cy="504" r="12" class="c0"/>
<circle cx="1104" cy="556" r="12" class="c0"/>
<circle cx="792" cy="558" r="12" class="c0"/>
<circle cx="1146" cy="350" r="12" class="c0"/>
<circle cx="1010" cy="850" r="12" class="c0"/>
<circle cx="1004" cy="536" r="12" class="c0"/>
<circle cx="1352" cy="304" r="12" class="c0"/>
<circle cx="918" cy="444" r="12" class="c0"/>
<circle cx="930" cy="552" r="12" class="c0"/>
<circle cx="1012" cy="320" r="12" class="c0"/>
<circle cx="970" cy="664" r="12" class="c0"/>
<circle cx="608" cy="788" r="12" class="c0"/>
<circle cx="908" cy="748" r="12" class="c0"/>
<circle cx="1344" cy="278" r="12" class="c0"/>
<circle cx="1008" cy="496" r="12" class="c0"/>
<circle cx="856" cy="546" r="12" class="c0"/>
<circle cx="790" cy="674" r="12" class="c0"/>
<circle cx="738" cy="718" r="12" class="c0"/>
<circle cx="684" cy="756" r="12" class="c0"/>
<circle cx="1088" cy="806" r="12" class="c0"/>
<circle cx="1002" cy="468" r="12" class="c0"/>
<circle cx="1162" cy="776" r="12" class="c0"/>
<circle cx="756" cy="684" r="12" class="c0"/>
<circle cx="1160" cy="892" r="12" class="c0"/>
<circle cx="984" cy="128" r="12" class="c0"/>
<circle cx="926" cy="822" r="12" class="c0"/>
<circle cx="1202" cy="798" r="12" class="c0"/>
<circle cx="1296" cy="268" r="12" class="c0"/>
<circle cx="998" cy="702" r="12" class="c0"/>
<circle cx="902" cy="124" r="12" class="c0"/>
<circle cx="1164" cy="838" r="12" class="c0"/>
<circle cx="674" cy="734" r="12" class="c0"/>
<circle cx="1004" cy="220" r="12" class="c0"/>
<circle cx="884" cy="228" r="12" class="c0"/>
<circle cx="856" cy="768" r="12" class="c0"/>
<circle cx="914" cy="476" r="12" class="c0"/>
<circle cx="1124" cy="722" r="12" class="c0"/>
<circle cx="954" cy="352" r="12" class="c0"/>
<circle cx="1054" cy="544" r="12" class="c0"/>
<circle cx="966" cy="730" r="12" class="c0"/>
<circle cx="1124" cy="540" r="12" class="c0"/>
<circle cx="882" cy="498" r="12" class="c0"/>
<circle cx="1052" cy="734" r="12" class="c0"/>
<circle cx="1204" cy="458" r="12" class="c0"/>
<circle cx="1108" cy="680" r="12" class="c0"/>
<circle cx="1230" cy="406" r="12" class="c0"/>
<circle cx="966" cy="504" r="12" class="c0"/>
<circle cx="894" cy="310" r="12" class="c0"/>
<circle cx="1094" cy="696" r="12" class="c0"/>
<circle cx="1342" cy="206" r="12" class="c0"/>
<circle cx="1370" cy="172" r="12" class="c0"/>
<circle cx="1076" cy="260" r="12" class="c0"/>
<circle cx="922" cy="710" r="12" class="c0"/>
<circle cx="950" cy="80" r="12" class="c0"/>
<circle cx="852" cy="742" r="12" class="c0"/>
<circle cx="1136" cy="930" r="12" class="c0"/>
<circle cx="994" cy="338" r="12" class="c0"/>
<circle cx="1166" cy="232" r="12" class="c0"/>
<circle cx="1150" cy="252" r="12" class="c0"/>
<circle cx="1162" cy="440" r="12" class="c0"/>
<circle cx="1204" cy="878" r="12" class="c0"/>
<circle cx="1302" cy="602" r="12" class="c0"/>
<circle cx="938" cy="36" r="12" class="c0"/>
<circle cx="1224" cy="292" r="12" class="c0"/>
<circle cx="974" cy="824" r="12" class="c0"/>
<circle cx="1218" cy="242" r="12" class="c0"/>
<circle cx="1020" cy="636" r="12" class="c0"/>
<circle cx="1102" cy="452" r="12" class="c0"/>
<circle cx="836" cy="814" r="12" class="c0"/>
<circle cx="994" cy="744" r="12" class="c0"/>
<circle cx="1070" cy="88" r="12" class="c0"/>
<circle cx="1106" cy="270" r="12" class="c0"/>
<circle cx="704" cy="700" r="12" class="c0"/>
<circle cx="874" cy="108" r="12" class="c0"/>
<circle cx="1280" cy="414" r="12" class="c0"/>
<circle cx="1086" cy="668" r="12" class="c0"/>
<circle cx="1138" cy="608" r="12" class="c0"/>
<circle cx="1118" cy="768" r="12" class="c0"/>
<circle cx="1252" cy="624" r="12" class="c0"/>
<circle cx="1274" cy="334" r="12" class="c0"/>
<circle cx="874" cy="14" r="12" class="c0"/>
<circle cx="1076" cy="12" r="12" class="c0"/>
<circle cx="1256" cy="214" r="10" class="c0"/>
<circle cx="868" cy="54" r="10" class="c0"/>
<circle cx="1010" cy="176" r="10" class="c0"/>
<circle cx="984" cy="628" r="10" class="c0"/>
<circle cx="908" cy="296" r="10" class="c0"/>
<circle cx="1234" cy="562" r="10" class="c0"/>
<circle cx="1206" cy="382" r="10" class="c0"/>
<circle cx="740" cy="620" r="10" class="c0"/>
<circle cx="1274" cy="772" r="10" class="c0"/>
<circle cx="832" cy="770" r="10" class="c0"/>
<circle cx="818" cy="612" r="10" class="c0"/>
<circle cx="1210" cy="358" r="10" class="c0"/>
<circle cx="1184" cy="692" r="10" class="c0"/>
<circle cx="1172" cy="648" r="10" class="c0"/>
<circle cx="1088" cy="600" r="10" class="c0"/>
<circle cx="1190" cy="560" r="10" class="c0"/>
<circle cx="1082" cy="236" r="10" class="c0"/>
<circle cx="908" cy="792" r="10" class="c0"/>
<circle cx="1332" cy="162" r="10" class="c0"/>
<circle cx="1074" cy="130" r="10" class="c0"/>
<circle cx="932" cy="420" r="10" class="c0"/>
<circle cx="750" cy="742" r="10" class="c0"/>
<circle cx="902" cy="268" r="10" class="c0"/>
<circle cx="1048" cy="30" r="10" class="c0"/>
<circle cx="1078" cy="352" r="10" class="c0"/>
<circle cx="1266" cy="236" r="10" class="c0"/>
<circle cx="1040" cy="68" r="10" class="c0"/>
<circle cx="1230" cy="840" r="10" class="c0"/>
<circle cx="1354" cy="256" r="10" class="c0"/>
<circle cx="958" cy="164" r="10" class="c0"/>
<circle cx="998" cy="274" r="10" class="c0"/>
<circle cx="1000" cy="774" r="10" class="c0"/>
<circle cx="1254" cy="184" r="10" class="c0"/>
<circle cx="878" cy="554" r="10" class="c0"/>
<circle cx="810" cy="856" r="10" class="c0"/>
<circle cx="854" cy="594" r="10" class="c0"/>
<circle cx="1100" cy="918" r="10" class="c0"/>
<circle cx="994" cy="16" r="10" class="c0"/>
<circle cx="1380" cy="250" r="10" class="c0"/>
<circle cx="980" cy="92" r="10" class="c0"/>
<circle cx="1000" cy="812" r="10" class="c0"/>
<circle cx="1268" cy="560" r="10" class="c0"/>
<circle cx="1148" cy="570" r="10" class="c0"/>
<circle cx="1086" cy="478" r="10" class="c0"/>
<circle cx="656" cy="768" r="10" class="c0"/>
<circle cx="1190" cy="864" r="10" class="c0"/>
<circle cx="1202" cy="906" r="10" class="c0"/>
<circle cx="1064" cy="278" r="10" class="c0"/>
<circle cx="1050" cy="224" r="10" class="c0"/>
<circle cx="1134" cy="198" r="10" class="c0"/>
<circle cx="1182" cy="380" r="10" class="c0"/>
<circle cx="1206" cy="188" r="10" class="c0"/>
<circle cx="1168" cy="364" r="10" class="c0"/>
<circle cx="758" cy="562" r="10" class="c0"/>
<circle cx="1014" cy="726" r="10" class="c0"/>
<circle cx="1110" cy="302" r="10" class="c0"/>
<circle cx="896" cy="196" r="10" class="c0"/>
<circle cx="1150" cy="458" r="10" class="c0"/>
<circle cx="1002" cy="364" r="10" class="c0"/>
<circle cx="1080" cy="64" r="10" class="c0"/>
<circle cx="940" cy="276" r="10" class="c0"/>
<circle cx="1048" cy="196" r="10" class="c0"/>
<circle cx="1282" cy="172" r="10" class="c0"/>
<circle cx="928" cy="204" r="10" class="c0"/>
<circle cx="1288" cy="350" r="10" class="c0"/>
<circle cx="914" cy="398" r="10" class="c0"/>
<circle cx="892" cy="60" r="10" class="c0"/>
<circle cx="1046" cy="764" r="10" class="c0"/>
<circle cx="1148" cy="860" r="10" class="c0"/>
<circle cx="1044" cy="504" r="10" class="c0"/>
<circle cx="1200" cy="516" r="10" class="c0"/>
<circle cx="1122" cy="586" r="10" class="c0"/>
<circle cx="884" cy="764" r="10" class="c0"/>
<circle cx="1044" cy="616" r="10" class="c0"/>
<circle cx="1084" cy="288" r="10" class="c0"/>
<circle cx="1028" cy="412" r="10" class="c0"/>
<circle cx="1130" cy="750" r="10" class="c0"/>
<circle cx="634" cy="794" r="10" class="c0"/>
<circle cx="1082" cy="742" r="10" class="c0"/>
<circle cx="1182" cy="822" r="10" class="c0"/>
<circle cx="912" cy="836" r="10" class="c0"/>
<circle cx="1030" cy="440" r="10" class="c0"/>
<circle cx="580" cy="776" r="10" class="c0"/>
<circle cx="1184" cy="584" r="10" class="c0"/>
<circle cx="1054" cy="356" r="10" class="c0"/>
<circle cx="972" cy="408" r="10" class="c0"/>
<circle cx="1224" cy="602" r="10" class="c0"/>
<circle cx="762" cy="600" r="10" class="c0"/>
<circle cx="1074" cy="210" r="10" class="c0"/>
<circle cx="1244" cy="586" r="10" class="c0"/>
<circle cx="946" cy="392" r="10" class="c0"/>
<circle cx="908" cy="536" r="10" class="c0"/>
<circle cx="1270" cy="284" r="10" class="c0"/>
<circle cx="948" cy="676" r="10" class="c0"/>
<circle cx="892" cy="804" r="10" class="c0"/>
<circle cx="1020" cy="794" r="10" class="c0"/>
<circle cx="732" cy="666" r="10" class="c0"/>
<circle cx="998" cy="40" r="10" class="c0"/>
<circle cx="1314" cy="202" r="10" class="c0"/>
<circle cx="902" cy="352" r="10" class="c0"/>
<circle cx="1096" cy="782" r="10" class="c0"/>
<circle cx="1104" cy="44" r="10" class="c0"/>
<circle cx="1102" cy="356" r="10" class="c0"/>
<circle cx="1088" cy="888" r="10" class="c0"/>
<circle cx="1366" cy="220" r="10" class="c0"/>
<circle cx="1010" cy="424" r="10" class="c0"/>
<circle cx="1234" cy="170" r="10" class="c0"/>
<circle cx="1150" cy="164" r="10" class="c0"/>
<circle cx="892" cy="446" r="10" class="c0"/>
<circle cx="1140" cy="680" r="10" class="c0"/>
<circle cx="948" cy="750" r="10" class="c0"/>
<circle cx="962" cy="542" r="10" class="c0"/>
<circle cx="1268" cy="198" r="10" class="c0"/>
<circle cx="762" cy="758" r="10" class="c0"/>
<circle cx="1136" cy="634" r="10" class="c0"/>
<circle cx="880" cy="74" r="10" class="c0"/>
<circle cx="1222" cy="202" r="10" class="c0"/>
<circle cx="1172" cy="804" r="10" class="c0"/>
<circle cx="702" cy="776" r="10" class="c0"/>
<circle cx="874" cy="414" r="10" class="c0"/>
<circle cx="1064" cy="866" r="10" class="c0"/>
<circle cx="1132" cy="444" r="10" class="c0"/>
<circle cx="1330" cy="224" r="10" class="c0"/>
<circle cx="856" cy="94" r="10" class="c0"/>
<circle cx="1240" cy="868" r="10" class="c0"/>
<circle cx="836" cy="576" r="10" class="c0"/>
<circle cx="1068" cy="762" r="10" class="c0"/>
<circle cx="1152" cy="406" r="10" class="c0"/>
<circle cx="926" cy="142" r="10" class="c0"/>
<circle cx="1194" cy="324" r="10" class="c0"/>
<circle cx="1064" cy="634" r="10" class="c0"/>
<circle cx="1318" cy="252" r="10" class="c0"/>
<circle cx="1098" cy="860" r="10" class="c0"/>
<circle cx="1100" cy="18" r="10" class="c0"/>
<circle cx="1012" cy="82" r="10" class="c0"/>
<circle cx="1160" cy="330" r="10" class="c0"/>
<circle cx="934" cy="314" r="10" class="c0"/>
<circle cx="1014" cy="112" r="10" class="c0"/>
<circle cx="1084" cy="392" r="10" class="c0"/>
<circle cx="920" cy="244" r="10" class="c0"/>
<circle cx="1046" cy="894" r="10" class="c0"/>
<circle cx="976" cy="68" r="10" class="c0"/>
<circle cx="836" cy="520" r="10" class="c0"/>
<circle cx="1374" cy="198" r="10" class="c0"/>
<circle cx="1050" cy="424" r="10" class="c0"/>
<circle cx="1396" cy="216" r="10" class="c0"/>
<circle cx="1078" cy="512" r="10" class="c0"/>
<circle cx="1090" cy="642" r="10" class="c0"/>
<circle cx="1276" cy="612" r="10" class="c0"/>
<circle cx="1060" cy="118" r="10" class="c0"/>
<circle cx="1020" cy="564" r="10" class="c0"/>
<circle cx="1126" cy="910" r="10" class="c0"/>
<circle cx="1114" cy="324" r="10" class="c0"/>
<circle cx="1106" cy="398" r="10" class="c0"/>
<circle cx="914" cy="368" r="10" class="c0"/>
<circle cx="1288" cy="580" r="10" class="c0"/>
<circle cx="1230" cy="808" r="10" class="c0"/>
<circle cx="1134" cy="304" r="10" class="c0"/>
<circle cx="1208" cy="424" r="10" class="c0"/>
<circle cx="1132" cy="494" r="10" class="c0"/>
<circle cx="1094" cy="426" r="10" class="c0"/>
<circle cx="1228" cy="886" r="10" class="c0"/>
<circle cx="1058" cy="310" r="10" class="c0"/>
<circle cx="1062" cy="676" r="10" class="c0"/>
<circle cx="1254" cy="438" r="10" class="c0"/>
<circle cx="986" cy="680" r="10" class="c0"/>
<circle cx="1176" cy="256" r="10" class="c0"/>
<circle cx="1282" cy="214" r="10" class="c0"/>
<circle cx="1208" cy="672" r="10" class="c0"/>
<circle cx="1032" cy="16" r="10" class="c0"/>
<circle cx="1032" cy="880" r="10" class="c0"/>
<circle cx="1192" cy="208" r="10" class="c0"/>
<circle cx="1288" cy="306" r="10" class="c0"/>
<circle cx="1302" cy="390" r="10" class="c0"/>
<circle cx="894" cy="160" r="10" class="c0"/>
<circle cx="974" cy="364" r="10" class="c0"/>
<circle cx="938" cy="772" r="10" class="c0"/>
<circle cx="1074" cy="170" r="10" class="c0"/>
<circle cx="1162" cy="594" r="10" class="c0"/>
<circle cx="1186" cy="930" r="10" class="c0"/>
<circle cx="1046" cy="698" r="10" class="c0"/>
<circle cx="812" cy="534" r="10" class="c0"/>
<circle cx="1104" cy="622" r="10" class="c0"/>
<circle cx="1218" cy="440" r="8" class="c0"/>
<circle cx="976" cy="196" r="8" class="c0"/>
<circle cx="900" cy="88" r="8" class="c0"/>
<circle cx="1180" cy="752" r="8" class="c0"/>
<circle cx="938" cy="128" r="8" class="c0"/>
<circle cx="1184" cy="300" r="8" class="c0"/>
<circle cx="954" cy="486" r="8" class="c0"/>
<circle cx="976" cy="526" r="8" class="c0"/>
<circle cx="546" cy="792" r="8" class="c0"/>
<circle cx="1064" cy="150" r="8" class="c0"/>
<circle cx="944" cy="810" r="8" class="c0"/>
<circle cx="1124" cy="840" r="8" class="c0"/>
<circle cx="1256" cy="374" r="8" class="c0"/>
<circle cx="1038" cy="820" r="8" class="c0"/>
<circle cx="1256" cy="828" r="8" class="c0"/>
<circle cx="1050" cy="398" r="8" class="c0"/>
<circle cx="906" cy="424" r="8" class="c0"/>
<circle cx="1152" cy="658" r="8" class="c0"/>
<circle cx="980" cy="790" r="8" class="c0"/>
<circle cx="1236" cy="272" r="8" class="c0"/>
<circle cx="964" cy="384" r="8" class="c0"/>
<circle cx="876" cy="784" r="8" class="c0"/>
<circle cx="970" cy="774" r="8" class="c0"/>
<circle cx="1176" cy="426" r="8" class="c0"/>
<circle cx="1060" cy="494" r="8" class="c0"/>
<circle cx="1012" cy="138" r="8" class="c0"/>
<circle cx="1304" cy="296" r="8" class="c0"/>
<circle cx="804" cy="636" r="8" class="c0"/>
<circle cx="1064" cy="444" r="8" class="c0"/>
<circle cx="1024" cy="484" r="8" class="c0"/>
<circle cx="1158" cy="490" r="8" class="c0"/>
<circle cx="1062" cy="844" r="8" class="c0"/>
<circle cx="1324" cy="320" r="8" class="c0"/>
<circle cx="1258" cy="800" r="8" class="c0"/>
<circle cx="1152" cy="822" r="8" class="c0"/>
<circle cx="864" cy="142" r="8" class="c0"/>
<circle cx="1052" cy="790" r="8" class="c0"/>
<circle cx="1094" cy="502" r="8" class="c0"/>
<circle cx="1032" cy="462" r="8" class="c0"/>
<circle cx="898" cy="728" r="8" class="c0"/>
<circle cx="944" cy="468" r="8" class="c0"/>
<circle cx="718" cy="744" r="8" class="c0"/>
<circle cx="922" cy="110" r="8" class="c0"/>
<circle cx="1322" cy="580" r="8" class="c0"/>
<circle cx="990" cy="394" r="8" class="c0"/>
<circle cx="1172" cy="528" r="8" class="c0"/>
<circle cx="906" cy="40" r="8" class="c0"/>
<circle cx="972" cy="696" r="8" class="c0"/>
<circle cx="1184" cy="474" r="8" class="c0"/>
<circle cx="1036" cy="656" r="8" class="c0"/>
<circle cx="1018" cy="196" r="8" class="c0"/>
<circle cx="950" cy="440" r="8" class="c0"/>
<circle cx="1232" cy="456" r="8" class="c0"/>
<circle cx="778" cy="646" r="8" class="c0"/>
<circle cx="906" cy="574" r="8" class="c0"/>
<circle cx="928" cy="292" r="8" class="c0"/>
<circle cx="1304" cy="156" r="8" class="c0"/>
<circle cx="1156" cy="184" r="8" class="c0"/>
<circle cx="730" cy="694" r="8" class="c0"/>
<circle cx="962" cy="32" r="8" class="c0"/>
<circle cx="1024" cy="606" r="8" class="c0"/>
<circle cx="1024" cy="510" r="8" class="c0"/>
<circle cx="960" cy="54" r="8" class="c0"/>
<circle cx="1148" cy="538" r="8" class="c0"/>
<circle cx="1186" cy="610" r="8" class="c0"/>
<circle cx="1222" cy="152" r="8" class="c0"/>
<circle cx="1100" cy="106" r="8" class="c0"/>
<circle cx="1010" cy="246" r="8" class="c0"/>
<circle cx="752" cy="642" r="8" class="c0"/>
<circle cx="1116" cy="214" r="8" class="c0"/>
<circle cx="1070" cy="566" r="8" class="c0"/>
<circle cx="1128" cy="660" r="8" class="c0"/>
<circle cx="850" cy="40" r="8" class="c0"/>
<circle cx="1072" cy="788" r="8" class="c0"/>
<circle cx="882" cy="376" r="8" class="c0"/>
<circle cx="1106" cy="246" r="8" class="c0"/>
<circle cx="1062" cy="182" r="8" class="c0"/>
<circle cx="782" cy="576" r="8" class="c0"/>
<circle cx="820" cy="836" r="8" class="c0"/>
<circle cx="894" cy="516" r="8" class="c0"/>
<circle cx="1162" cy="716" r="8" class="c0"/>
<circle cx="984" cy="300" r="8" class="c0"/>
<circle cx="952" cy="330" r="8" class="c0"/>
<circle cx="1366" cy="148" r="8" class="c0"/>
<circle cx="954" cy="838" r="8" class="c0"/>
<circle cx="880" cy="526" r="8" class="c0"/>
<circle cx="1264" cy="598" r="8" class="c0"/>
<circle cx="962" cy="8" r="8" class="c0"/>
<circle cx="1110" cy="876" r="8" class="c0"/>
<circle cx="982" cy="450" r="8" class="c0"/>
<circle cx="1034" cy="304" r="8" class="c0"/>
<circle cx="994" cy="154" r="8" class="c0"/>
<circle cx="1108" cy="376" r="8" class="c0"/>
<circle cx="1032" cy="538" r="8" class="c0"/>
<circle cx="858" cy="842" r="8" class="c0"/>
<circle cx="1174" cy="906" r="8" class="c0"/>
<circle cx="1130" cy="414" r="8" class="c0"/>
<circle cx="922" cy="18" r="8" class="c0"/>
<circle cx="928" cy="524" r="8" class="c0"/>
<circle cx="782" cy="618" r="8" class="c0"/>
<circle cx="1034" cy="746" r="8" class="c0"/>
<circle cx="1086" cy="716" r="8" class="c0"/>
<circle cx="968" cy="638" r="8" class="c0"/>
<circle cx="1166" cy="556" r="8" class="c0"/>
<circle cx="882" cy="582" r="8" class="c0"/>
<circle cx="1234" cy="356" r="8" class="c0"/>
<circle cx="1290" cy="376" r="8" class="c0"/>
<circle cx="964" cy="186" r="8" class="c0"/>
<circle cx="1040" cy="166" r="8" class="c0"/>
<circle cx="850" cy="504" r="8" class="c0"/>
<circle cx="928" cy="798" r="8" class="c0"/>
<circle cx="1218" cy="650" r="8" class="c0"/>
<circle cx="876" cy="204" r="8" class="c0"/>
<circle cx="824" cy="588" r="8" class="c0"/>
<circle cx="728" cy="756" r="8" class="c0"/>
<circle cx="910" cy="508" r="8" class="c0"/>
<circle cx="1128" cy="698" r="8" class="c0"/>
<circle cx="998" cy="562" r="8" class="c0"/>
<circle cx="1112" cy="472" r="8" class="c0"/>
<circle cx="898" cy="10" r="8" class="c0"/>
<circle cx="990" cy="434" r="8" class="c0"/>
<circle cx="1058" cy="474" r="8" class="c0"/>
<circle cx="1014" cy="754" r="8" class="c0"/>
<circle cx="1058" cy="584" r="8" class="c0"/>
<circle cx="1342" cy="146" r="8" class="c0"/>
<circle cx="1116" cy="798" r="8" class="c0"/>
<circle cx="1028" cy="224" r="8" class="c0"/>
<circle cx="1252" cy="338" r="8" class="c0"/>
<circle cx="870" cy="828" r="8" class="c0"/>
<circle cx="1306" cy="224" r="8" class="c0"/>
<circle cx="796" cy="840" r="8" class="c0"/>
<circle cx="1092" cy="82" r="8" class="c0"/>
<circle cx="1016" cy="396" r="8" class="c0"/>
<circle cx="1214" cy="584" r="8" class="c0"/>
<circle cx="1188" cy="410" r="8" class="c0"/>
<circle cx="674" cy="778" r="8" class="c0"/>
<circle cx="738" cy="772" r="8" class="c0"/>
<circle cx="1296" cy="194" r="8" class="c0"/>
<circle cx="1086" cy="184" r="8" class="c0"/>
<circle cx="1184" cy="344" r="8" class="c0"/>
<circle cx="1152" cy="798" r="8" class="c0"/>
<circle cx="1170" cy="394" r="8" class="c0"/>
<circle cx="1168" cy="738" r="8" class="c0"/>
<circle cx="908" cy="328" r="8" class="c0"/>
<circle cx="1278" cy="256" r="8" class="c0"/>
<circle cx="1074" cy="328" r="8" class="c0"/>
<circle cx="1140" cy="520" r="8" class="c0"/>
<circle cx="1066" cy="900" r="8" class="c0"/>
<circle cx="934" cy="456" r="8" class="c0"/>
<circle cx="808" cy="784" r="8" class="c0"/>
<circle cx="1000" cy="446" r="8" class="c0"/>
<circle cx="1034" cy="90" r="8" class="c0"/>
<circle cx="1194" cy="234" r="8" class="c0"/>
<circle cx="1102" cy="728" r="8" class="c0"/>
<circle cx="1058" cy="814" r="8" class="c0"/>
<circle cx="986" cy="514" r="8" class="c0"/>
<circle cx="1086" cy="830" r="8" class="c0"/>
<circle cx="1064" cy="54" r="8" class="c0"/>
<circle cx="1054" cy="246" r="8" class="c0"/>
<circle cx="824" cy="552" r="8" class="c0"/>
<circle cx="1104" cy="490" r="8" class="c0"/>
<circle cx="978" cy="714" r="8" class="c0"/>
<circle cx="1000" cy="404" r="8" class="c0"/>
<circle cx="1142" cy="738" r="8" class="c0"/>
<circle cx="938" cy="694" r="8" class="c0"/>
<circle cx="870" cy="172" r="8" class="c0"/>
<circle cx="884" cy="332" r="8" class="c0"/>
<circle cx="1000" cy="194" r="8" class="c0"/>
<circle cx="958" cy="284" r="8" class="c0"/>
<circle cx="1330" cy="298" r="8" class="c0"/>
<circle cx="910" cy="226" r="8" class="c0"/>
<circle cx="1254" cy="314" r="8" class="c0"/>
<circle cx="1034" cy="386" r="8" class="c0"/>
<circle cx="1232" cy="326" r="8" class="c0"/>
<circle cx="884" cy="258" r="8" class="c0"/>
<circle cx="1020" cy="692" r="8" class="c0"/>
<circle cx="1340" cy="242" r="8" class="c0"/>
<circle cx="1222" cy="916" r="8" class="c0"/>
<circle cx="766" cy="714" r="8" class="c0"/>
<circle cx="1238" cy="376" r="8" class="c0"/>
<circle cx="1034" cy="144" r="8" class="c0"/>
<circle cx="1038" cy="48" r="8" class="c0"/>
<circle cx="1208" cy="620" r="8" class="c0"/>
<circle cx="966" cy="462" r="8" class="c0"/>
<circle cx="934" cy="730" r="8" class="c0"/>
<circle cx="1306" cy="332" r="8" class="c0"/>
<circle cx="1078" cy="912" r="8" class="c0"/>
<circle cx="968" cy="614" r="8" class="c0"/>
<circle cx="1258" cy="408" r="8" class="c0"/>
<circle cx="1152" cy="754" r="8" class="c0"/>
<circle cx="1168" cy="626" r="8" class="c0"/>
<circle cx="862" cy="574" r="8" class="c0"/>
<circle cx="1066" cy="368" r="8" class="c0"/>
<circle cx="572" cy="796" r="8" class="c0"/>
<circle cx="1138" cy="472" r="8" class="c0"/>
<circle cx="1162" cy="294" r="8" class="c0"/>
<circle cx="1116" cy="644" r="8" class="c0"/>
<circle cx="1308" cy="570" r="8" class="c0"/>
<circle cx="1046" cy="374" r="8" class="c0"/>
<circle cx="536" cy="776" r="8" class="c0"/>
<circle cx="1220" cy="340" r="8" class="c0"/>
<circle cx="994" cy="108" r="8" class="c0"/>
<circle cx="934" cy="378" r="8" class="c0"/>
<circle cx="1310" cy="352" r="8" class="c0"/>
<circle cx="928" cy="348" r="8" class="c0"/>
<circle cx="1200" cy="600" r="8" class="c0"/>
<circle cx="1130" cy="260" r="8" class="c0"/>
<circle cx="1196" cy="286" r="8" class="c0"/>
<circle cx="1010" cy="596" r="8" class="c0"/>
<circle cx="1024" cy="288" r="8" class="c0"/>
<circle cx="1166" cy="146" r="8" class="c0"/>
<circle cx="792" cy="586" r="8" class="c0"/>
<circle cx="976" cy="846" r="8" class="c0"/>
<circle cx="918" cy="82" r="8" class="c0"/>
<circle cx="778" cy="704" r="8" class="c0"/>
<circle cx="980" cy="242" r="8" class="c0"/>
<circle cx="1026" cy="830" r="8" class="c0"/>
<circle cx="890" cy="280" r="8" class="c0"/>
<circle cx="1176" cy="502" r="8" class="c0"/>
<circle cx="624" cy="776" r="8" class="c0"/>
<circle cx="558" cy="778" r="8" class="c0"/>
<circle cx="1078" cy="550" r="8" class="c0"/>
<circle cx="984" cy="168" r="8" class="c0"/>
<circle cx="1212" cy="272" r="8" class="c0"/>
<circle cx="1166" cy="926" r="8" class="c0"/>
<circle cx="1168" cy="864" r="8" class="c0"/>
<circle cx="556" cy="806" r="8" class="c0"/>
<circle cx="1264" cy="358" r="8" class="c0"/>
<circle cx="980" cy="220" r="8" class="c0"/>
<circle cx="1320" cy="288" r="8" class="c0"/>
<circle cx="852" cy="72" r="8" class="c0"/>
<circle cx="1220" cy="866" r="8" class="c0"/>
<circle cx="974" cy="322" r="8" class="c0"/>
<circle cx="1124" cy="32" r="8" class="c0"/>
<circle cx="1180" cy="884" r="8" class="c0"/>
<circle cx="966" cy="262" r="8" class="c0"/>
<circle cx="1244" cy="248" r="8" class="c0"/>
<circle cx="946" cy="190" r="8" class="c0"/>
<circle cx="890" cy="836" r="8" class="c0"/>
<circle cx="984" cy="550" r="8" class="c0"/>
<circle cx="1202" cy="846" r="8" class="c0"/>
<circle cx="1030" cy="338" r="8" class="c0"/>
<circle cx="798" cy="814" r="8" class="c0"/>
<circle cx="1168" cy="466" r="8" class="c0"/>
<circle cx="728" cy="782" r="8" class="c0"/>
<circle cx="1326" cy="186" r="8" class="c0"/>
<circle cx="1022" cy="38" r="8" class="c0"/>
<circle cx="1066" cy="718" r="8" class="c0"/>
<circle cx="1094" cy="322" r="8" class="c0"/>
<circle cx="1050" cy="568" r="8" class="c0"/>
<circle cx="896" cy="776" r="8" class="c0"/>
<circle cx="1050" cy="332" r="8" class="c0"/>
<circle cx="956" cy="126" r="8" class="c0"/>
<circle cx="924" cy="264" r="8" class="c0"/>
<circle cx="1152" cy="380" r="8" class="c0"/>
<circle cx="1148" cy="316" r="8" class="c0"/>
<circle cx="852" cy="794" r="8" class="c0"/>
<circle cx="1126" cy="10" r="8" class="c0"/>
<circle cx="1146" cy="284" r="8" class="c0"/>
<circle cx="1232" cy="224" r="8" class="c0"/>
<circle cx="596" cy="756" r="8" class="c0"/>
<circle cx="1044" cy="640" r="8" class="c0"/>
<circle cx="768" cy="668" r="8" class="c0"/>
<circle cx="1184" cy="778" r="8" class="c0"/>
<circle cx="930" cy="92" r="8" class="c0"/>
<circle cx="912" cy="100" r="8" class="c0"/>
<circle cx="1138" cy="232" r="8" class="c0"/>
<circle cx="924" cy="164" r="8" class="c0"/>
<circle cx="1212" cy="504" r="8" class="c0"/>
<circle cx="1268" cy="304" r="8" class="c0"/>
<circle cx="1136" cy="876" r="8" class="c0"/>
<circle cx="1138" cy="176" r="8" class="c0"/>
<circle cx="1078" cy="44" r="8" class="c0"/>
<circle cx="1292" cy="236" r="8" class="c0"/>
<circle cx="898" cy="244" r="8" class="c0"/>
<circle cx="1024" cy="154" r="8" class="c0"/>
<circle cx="1074" cy="456" r="8" class="c0"/>
<circle cx="952" cy="792" r="8" class="c0"/>
<circle cx="700" cy="738" r="8" class="c0"/>
<circle cx="834" cy="854" r="8" class="c0"/>
<circle cx="1082" cy="622" r="8" class="c0"/>
<circle cx="1006" cy="296" r="8" class="c0"/>
<circle cx="946" cy="244" r="8" class="c0"/>
<circle cx="998" cy="610" r="8" class="c0"/>
<circle cx="972" cy="436" r="8" class="c0"/>
<circle cx="1068" cy="656" r="8" class="c0"/>
<circle cx="946" cy="152" r="8" class="c0"/>
<circle cx="1108" cy="828" r="8" class="c0"/>
<circle cx="960" cy="308" r="8" class="c0"/>
<circle cx="1098" cy="128" r="8" class="c0"/>
<circle cx="1042" cy="854" r="8" class="c0"/>
<circle cx="1090" cy="528" r="8" class="c0"/>
<circle cx="900" cy="822" r="8" class="c0"/>
<circle cx="1118" cy="818" r="8" class="c0"/>
<circle cx="1150" cy="696" r="8" class="c0"/>
<circle cx="1216" cy="820" r="8" class="c0"/>
<circle cx="1190" cy="268" r="8" class="c0"/>
<circle cx="882" cy="34" r="8" class="c0"/>
<circle cx="742" cy="592" r="8" class="c0"/>
<circle cx="1208" cy="310" r="8" class="c0"/>
<circle cx="992" cy="648" r="8" class="c0"/>
<circle cx="1044" cy="594" r="8" class="c0"/>
<circle cx="1270" cy="638" r="8" class="c0"/>
<circle cx="1132" cy="372" r="8" class="c0"/>
<circle cx="1024" cy="368" r="8" class="c0"/>
<circle cx="1198" cy="652" r="8" class="c0"/>
<circle cx="1130" cy="334" r="8" class="c0"/>
<circle cx="1254" cy="268" r="8" class="c0"/>
<circle cx="1086" cy="118" r="8" class="c0"/>
<circle cx="1018" cy="62" r="8" class="c0"/>
<circle cx="848" cy="18" r="8" class="c0"/>
<circle cx="1096" cy="208" r="8" class="c0"/>
<circle cx="888" cy="474" r="8" class="c0"/>
<circle cx="1116" cy="520" r="8" class="c0"/>
<circle cx="884" cy="140" r="8" class="c0"/>
<circle cx="1138" cy="782" r="8" class="c0"/>
<circle cx="942" cy="110" r="8" class="c0"/>
<circle cx="882" cy="184" r="8" class="c0"/>
<circle cx="808" cy="596" r="8" class="c0"/>
<circle cx="948" cy="220" r="8" class="c0"/>
<circle cx="972" cy="752" r="8" class="c0"/>
<circle cx="1146" cy="912" r="8" class="c0"/>
<circle cx="1088" cy="158" r="8" class="c0"/>
<circle cx="1236" cy="666" r="8" class="c0"/>
<circle cx="1236" cy="904" r="8" class="c0"/>
<circle cx="812" cy="570" r="8" class="c0"/>
<circle cx="1038" cy="556" r="8" class="c0"/>
<circle cx="716" cy="684" r="8" class="c0"/>
<circle cx="1052" cy="456" r="8" class="c0"/>
<circle cx="814" cy="806" r="8" class="c0"/>
<circle cx="1186" cy="634" r="8" class="c0"/>
<circle cx="1354" cy="184" r="8" class="c0"/>
<circle cx="1052" cy="136" r="8" class="c0"/>
<circle cx="1288" cy="554" r="8" class="c0"/>
<circle cx="1174" cy="672" r="8" class="c0"/>
<circle cx="960" cy="424" r="8" class="c0"/>
<circle cx="1370" cy="276" r="8" class="c0"/>
<circle cx="862" cy="808" r="8" class="c0"/>
<circle cx="1038" cy="718" r="8" class="c0"/>
<circle cx="1080" cy="308" r="8" class="c0"/>
<circle cx="1014" cy="348" r="8" class="c0"/>
<circle cx="1070" cy="610" r="8" class="c0"/>
<circle cx="1298" cy="764" r="8" class="c0"/>
<circle cx="942" cy="10" r="8" class="c0"/>
<circle cx="1234" cy="642" r="8" class="c0"/>
<circle cx="1246" cy="790" r="8" class="c0"/>
<circle cx="1040" cy="122" r="8" class="c0"/>
<circle cx="886" cy="400" r="8" class="c0"/>
<circle cx="1202" cy="574" r="8" class="c0"/>
<circle cx="1266" cy="162" r="8" class="c0"/>
<circle cx="1270" cy="394" r="8" class="c0"/>
<circle cx="882" cy="354" r="8" class="c0"/>
<circle cx="1114" cy="896" r="8" class="c0"/>
<circle cx="1038" cy="678" r="8" class="c0"/>
<circle cx="906" cy="148" r="8" class="c0"/>
<circle cx="1198" cy="538" r="8" class="c0"/>
<circle cx="1162" cy="684" r="8" class="c0"/>
<circle cx="1028" cy="586" r="8" class="c0"/>
<circle cx="1048" cy="106" r="8" class="c0"/>
<circle cx="972" cy="110" r="8" class="c0"/>
<circle cx="1250" cy="392" r="8" class="c0"/>
<circle cx="1118" cy="426" r="8" class="c0"/>
<circle cx="1102" cy="654" r="8" class="c0"/>
<circle cx="880" cy="744" r="8" class="c0"/>
<circle cx="1220" cy="134" r="8" class="c0"/>
<circle cx="1208" cy="930" r="8" class="c0"/>
<circle cx="934" cy="60" r="8" class="c0"/>
<circle cx="1026" cy="772" r="8" class="c0"/>
<circle cx="980" cy="28" r="8" class="c0"/>
<circle cx="1334" cy="332" r="8" class="c0"/>
<circle cx="1226" cy="622" r="8" class="c0"/>
<circle cx="976" cy="484" r="8" class="c0"/>
<circle cx="1246" cy="154" r="8" class="c0"/>
<circle cx="1092" cy="576" r="8" class="c0"/>
<circle cx="714" cy="720" r="8" class="c0"/>
<circle cx="986" cy="494" r="8" class="c0"/>
<circle cx="1242" cy="304" r="8" class="c0"/>
<circle cx="1120" cy="864" r="8" class="c0"/>
<circle cx="1126" cy="566" r="8" class="c0"/>
<circle cx="1104" cy="228" r="8" class="c0"/>
<circle cx="868" cy="392" r="8" class="c0"/>
<circle cx="1254" cy="652" r="8" class="c0"/>
<circle cx="1324" cy="380" r="8" class="c0"/>
<circle cx="990" cy="254" r="8" class="c0"/>
<circle cx="954" cy="710" r="8" class="c0"/>
<circle cx="1354" cy="232" r="8" class="c0"/>
<circle cx="1188" cy="440" r="8" class="c0"/>
<circle cx="730" cy="636" r="8" class="c0"/>
<circle cx="1110" cy="746" r="8" class="c0"/>
<circle cx="1122" cy="352" r="8" class="c0"/>
<circle cx="856" cy="522" r="8" class="c0"/>
<circle cx="1078" cy="416" r="8" class="c0"/>
<circle cx="996" cy="64" r="8" class="c0"/>
<circle cx="976" cy="276" r="8" class="c0"/>
<circle cx="964" cy="206" r="8" class="c0"/>
<circle cx="924" cy="850" r="8" class="c0"/>
<circle cx="1150" cy="510" r="8" class="c0"/>
<circle cx="770" cy="628" r="8" class="c0"/>
<circle cx="1206" cy="220" r="8" class="c0"/>
<circle cx="970" cy="144" r="8" class="c0"/>
<circle cx="1168" cy="116" r="8" class="c0"/>
<circle cx="876" cy="846" r="8" class="c0"/>
<circle cx="592" cy="802" r="8" class="c0"/>
<circle cx="1158" cy="204" r="8" class="c0"/>
<circle cx="992" cy="838" r="8" class="c0"/>
<circle cx="1126" cy="278" r="8" class="c0"/>
<circle cx="808" cy="658" r="8" class="c0"/>
<circle cx="930" cy="224" r="8" class="c0"/>
<circle cx="876" cy="434" r="8" class="c0"/>
<circle cx="1070" cy="694" r="6" class="c0"/>
<circle cx="1098" cy="840" r="6" class="c0"/>
<circle cx="1228" cy="386" r="6" class="c0"/>
<circle cx="1022" cy="864" r="6" class="c0"/>
<circle cx="1190" cy="666" r="6" class="c0"/>
<circle cx="926" cy="186" r="6" class="c0"/>
<circle cx="1048" cy="834" r="6" class="c0"/>
<circle cx="1046" cy="486" r="6" class="c0"/>
<circle cx="896" cy="410" r="6" class="c0"/>
<circle cx="830" cy="794" r="6" class="c0"/>
<circle cx="1140" cy="838" r="6" class="c0"/>
<circle cx="782" cy="540" r="6" class="c0"/>
<circle cx="1262" cy="580" r="6" class="c0"/>
<circle cx="1162" cy="268" r="6" class="c0"/>
<circle cx="578" cy="756" r="6" class="c0"/>
<circle cx="1012" cy="12" r="6" class="c0"/>
<circle cx="1028" cy="180" r="6" class="c0"/>
<circle cx="1232" cy="428" r="6" class="c0"/>
<circle cx="900" cy="488" r="6" class="c0"/>
<circle cx="860" cy="120" r="6" class="c0"/>
<circle cx="548" cy="766" r="6" class="c0"/>
<circle cx="1224" cy="482" r="6" class="c0"/>
<circle cx="1250" cy="554" r="6" class="c0"/>
<circle cx="992" cy="316" r="6" class="c0"/>
<circle cx="834" cy="750" r="6" class="c0"/>
<circle cx="1092" cy="342" r="6" class="c0"/>
<circle cx="1154" cy="940" r="6" class="c0"/>
<circle cx="1038" cy="802" r="6" class="c0"/>
<circle cx="1148" cy="214" r="6" class="c0"/>
<circle cx="1176" cy="322" r="6" class="c0"/>
<circle cx="1036" cy="322" r="6" class="c0"/>
<circle cx="1246" cy="816" r="6" class="c0"/>
<circle cx="952" cy="374" r="6" class="c0"/>
<circle cx="1146" cy="712" r="6" class="c0"/>
<circle cx="880" cy="726" r="6" class="c0"/>
<circle cx="962" cy="246" r="6" class="c0"/>
<circle cx="1110" cy="708" r="6" class="c0"/>
<circle cx="1138" cy="812" r="6" class="c0"/>
<circle cx="968" cy="800" r="6" class="c0"/>
<circle cx="1194" cy="366" r="6" class="c0"/>
<circle cx="1214" cy="564" r="6" class="c0"/>
<circle cx="1252" cy="846" r="6" class="c0"/>
<circle cx="916" cy="280" r="6" class="c0"/>
<circle cx="618" cy="804" r="6" class="c0"/>
<circle cx="1226" cy="678" r="6" class="c0"/>
<circle cx="1178" cy="544" r="6" class="c0"/>
<circle cx="1082" cy="850" r="6" class="c0"/>
<circle cx="748" cy="658" r="6" class="c0"/>
<circle cx="1052" cy="12" r="6" class="c0"/>
<circle cx="896" cy="710" r="6" class="c0"/>
<circle cx="912" cy="174" r="6" class="c0"/>
<circle cx="792" cy="604" r="6" class="c0"/>
<circle cx="770" cy="738" r="6" class="c0"/>
<circle cx="964" cy="226" r="6" class="c0"/>
<circle cx="1302" cy="316" r="6" class="c0"/>
<circle cx="1074" cy="432" r="6" class="c0"/>
<circle cx="930" cy="332" r="6" class="c0"/>
<circle cx="1150" cy="144" r="6" class="c0"/>
<circle cx="1066" cy="28" r="6" class="c0"/>
<circle cx="652" cy="786" r="6" class="c0"/>
<circle cx="1308" cy="176" r="6" class="c0"/>
<circle cx="562" cy="760" r="6" class="c0"/>
<circle cx="1056" cy="520" r="6" class="c0"/>
<circle cx="686" cy="712" r="6" class="c0"/>
<circle cx="1234" cy="190" r="6" class="c0"/>
<circle cx="1172" cy="704" r="6" class="c0"/>
<circle cx="898" cy="380" r="6" class="c0"/>
<circle cx="1138" cy="388" r="6" class="c0"/>
<circle cx="1106" cy="532" r="6" class="c0"/>
<circle cx="1102" cy="590" r="6" class="c0"/>
<circle cx="842" cy="838" r="6" class="c0"/>
<circle cx="852" cy="858" r="6" class="c0"/>
<circle cx="1240" cy="204" r="6" class="c0"/>
<circle cx="1016" cy="454" r="6" class="c0"/>
<circle cx="1020" cy="272" r="6" class="c0"/>
<circle cx="840" cy="558" r="6" class="c0"/>
<circle cx="1076" cy="586" r="6" class="c0"/>
<circle cx="1310" cy="370" r="6" class="c0"/>
<circle cx="1102" cy="70" r="6" class="c0"/>
<circle cx="1144" cy="588" r="6" class="c0"/>
<circle cx="868" cy="754" r="6" class="c0"/>
<circle cx="1052" cy="264" r="6" class="c0"/>
<circle cx="912" cy="62" r="6" class="c0"/>
<circle cx="1272" cy="376" r="6" class="c0"/>
<circle cx="1126" cy="398" r="6" class="c0"/>
<circle cx="1168" cy="310" r="6" class="c0"/>
<circle cx="1248" cy="288" r="6" class="c0"/>
<circle cx="1136" cy="556" r="6" class="c0"/>
<circle cx="1090" cy="34" r="6" class="c0"/>
<circle cx="1184" cy="840" r="6" class="c0"/>
<circle cx="1292" cy="620" r="6" class="c0"/>
<circle cx="1056" cy="910" r="6" class="c0"/>
<circle cx="1094" cy="754" r="6" class="c0"/>
<circle cx="1322" cy="144" r="6" class="c0"/>
<circle cx="1174" cy="484" r="6" class="c0"/>
<circle cx="756" cy="580" r="6" class="c0"/>
<circle cx="912" cy="774" r="6" class="c0"/>
<circle cx="1182" cy="458" r="6" class="c0"/>
<circle cx="954" cy="650" r="6" class="c0"/>
<circle cx="958" cy="98" r="6" class="c0"/>
<circle cx="976" cy="46" r="6" class="c0"/>
<circle cx="1086" cy="142" r="6" class="c0"/>
<circle cx="912" cy="694" r="6" class="c0"/>
<circle cx="1052" cy="654" r="6" class="c0"/>
<circle cx="1240" cy="610" r="6" class="c0"/>
<circle cx="712" cy="660" r="6" class="c0"/>
<circle cx="1034" cy="242" r="6" class="c0"/>
<circle cx="1206" cy="402" r="6" class="c0"/>
<circle cx="1144" cy="428" r="6" class="c0"/>
<circle cx="1204" cy="830" r="6" class="c0"/>
<circle cx="664" cy="792" r="6" class="c0"/>
<circle cx="1092" cy="408" r="6" class="c0"/>
<circle cx="800" cy="618" r="6" class="c0"/>
<circle cx="952" cy="520" r="6" class="c0"/>
<circle cx="1008" cy="830" r="6" class="c0"/>
<circle cx="1124" cy="620" r="6" class="c0"/>
<circle cx="1380" cy="132" r="6" class="c0"/>
<circle cx="754" cy="776" r="6" class="c0"/>
<circle cx="1008" cy="26" r="6" class="c0"/>
<circle cx="620" cy="760" r="6" class="c0"/>
<circle cx="1224" cy="262" r="6" class="c0"/>
<circle cx="1064" cy="384" r="6" class="c0"/>
<circle cx="1066" cy="530" r="6" class="c0"/>
<circle cx="1134" cy="894" r="6" class="c0"/>
<circle cx="1394" cy="240" r="6" class="c0"/>
<circle cx="1120" cy="386" r="6" class="c0"/>
<circle cx="1044" cy="526" r="6" class="c0"/>
<circle cx="1122" cy="234" r="6" class="c0"/>
<circle cx="1034" cy="358" r="6" class="c0"/>
<circle cx="946" cy="296" r="6" class="c0"/>
<circle cx="866" cy="510" r="6" class="c0"/>
<circle cx="656" cy="748" r="6" class="c0"/>
<circle cx="1092" cy="374" r="6" class="c0"/>
<circle cx="770" cy="550" r="6" class="c0"/>
<circle cx="760" cy="618" r="6" class="c0"/>
<circle cx="906" cy="458" r="6" class="c0"/>
<circle cx="838" cy="604" r="6" class="c0"/>
<circle cx="1396" cy="156" r="6" class="c0"/>
<circle cx="1314" cy="308" r="6" class="c0"/>
<circle cx="1066" cy="406" r="6" class="c0"/>
<circle cx="934" cy="840" r="6" class="c0"/>
<circle cx="1084" cy="100" r="6" class="c0"/>
<circle cx="1008" cy="622" r="6" class="c0"/>
<circle cx="1048" cy="152" r="6" class="c0"/>
<circle cx="1270" cy="142" r="6" class="c0"/>
<circle cx="706" cy="672" r="6" class="c0"/>
<circle cx="1126" cy="462" r="6" class="c0"/>
<circle cx="1326" cy="346" r="6" class="c0"/>
<circle cx="1112" cy="342" r="6" class="c0"/>
<circle cx="842" cy="784" r="6" class="c0"/>
<circle cx="1174" cy="274" r="6" class="c0"/>
<circle cx="1310" cy="554" r="6" class="c0"/>
<circle cx="720" cy="646" r="6" class="c0"/>
<circle cx="1022" cy="128" r="6" class="c0"/>
<circle cx="1378" cy="232" r="6" class="c0"/>
<circle cx="938" cy="362" r="6" class="c0"/>
<circle cx="1156" cy="132" r="6" class="c0"/>
<circle cx="864" cy="728" r="6" class="c0"/>
<circle cx="938" cy="174" r="6" class="c0"/>
<circle cx="980" cy="382" r="6" class="c0"/>
<circle cx="796" cy="798" r="6" class="c0"/>
<circle cx="922" cy="570" r="6" class="c0"/>
<circle cx="926" cy="756" r="6" class="c0"/>
<circle cx="718" cy="766" r="6" class="c0"/>
<circle cx="1086" cy="442" r="6" class="c0"/>
<circle cx="636" cy="762" r="6" class="c0"/>
<circle cx="968" cy="338" r="6" class="c0"/>
<circle cx="1156" cy="640" r="6" class="c0"/>
<circle cx="908" cy="210" r="6" class="c0"/>
<circle cx="1074" cy="108" r="6" class="c0"/>
<circle cx="1216" cy="472" r="6" class="c0"/>
<circle cx="1082" cy="772" r="6" class="c0"/>
<circle cx="890" cy="566" r="6" class="c0"/>
<circle cx="1036" cy="782" r="6" class="c0"/>
<circle cx="1064" cy="342" r="6" class="c0"/>
<circle cx="1212" cy="162" r="6" class="c0"/>
<circle cx="1156" cy="616" r="6" class="c0"/>
<circle cx="996" cy="792" r="6" class="c0"/>
<circle cx="1350" cy="160" r="6" class="c0"/>
<circle cx="942" cy="850" r="6" class="c0"/>
<circle cx="1114" cy="936" r="6" class="c0"/>
<circle cx="1248" cy="418" r="6" class="c0"/>
<circle cx="958" cy="628" r="6" class="c0"/>
<circle cx="1316" cy="234" r="6" class="c0"/>
<circle cx="1004" cy="386" r="6" class="c0"/>
<circle cx="898" cy="550" r="6" class="c0"/>
<circle cx="1254" cy="570" r="6" class="c0"/>
<circle cx="834" cy="540" r="6" class="c0"/>
<circle cx="796" cy="526" r="6" class="c0"/>
<circle cx="1012" cy="378" r="6" class="c0"/>
<circle cx="1174" cy="212" r="6" class="c0"/>
<circle cx="922" cy="782" r="6" class="c0"/>
<circle cx="1126" cy="886" r="6" class="c0"/>
<circle cx="920" cy="50" r="6" class="c0"/>
<circle cx="866" cy="36" r="6" class="c0"/>
<circle cx="1400" cy="192" r="6" class="c0"/>
<circle cx="1114" cy="602" r="6" class="c0"/>
<circle cx="996" cy="722" r="6" class="c0"/>
<circle cx="876" cy="156" r="6" class="c0"/>
<circle cx="794" cy="648" r="6" class="c0"/>
<circle cx="1110" cy="62" r="6" class="c0"/>
<circle cx="982" cy="604" r="6" class="c0"/>
<circle cx="810" cy="824" r="6" class="c0"/>
<circle cx="940" cy="536" r="6" class="c0"/>
<circle cx="1274" cy="798" r="6" class="c0"/>
<circle cx="1194" cy="252" r="6" class="c0"/>
<circle cx="950" cy="410" r="6" class="c0"/>
<circle cx="706" cy="754" r="6" class="c0"/>
<circle cx="1068" cy="296" r="6" class="c0"/>
<circle cx="1008" cy="580" r="6" class="c0"/>
<circle cx="884" cy="92" r="6" class="c0"/>
<circle cx="1266" cy="426" r="6" class="c0"/>
<circle cx="1166" cy="574" r="6" class="c0"/>
<circle cx="820" cy="630" r="6" class="c0"/>
<circle cx="962" cy="686" r="6" class="c0"/>
<circle cx="1062" cy="70" r="6" class="c0"/>
<circle cx="916" cy="312" r="6" class="c0"/>
<circle cx="816" cy="516" r="6" class="c0"/>
<circle cx="1202" cy="636" r="6" class="c0"/>
<circle cx="1210" cy="690" r="6" class="c0"/>
<circle cx="1256" cy="780" r="6" class="c0"/>
<circle cx="960" cy="812" r="6" class="c0"/>
<circle cx="1184" cy="224" r="6" class="c0"/>
<circle cx="934" cy="254" r="6" class="c0"/>
<circle cx="1334" cy="260" r="6" class="c0"/>
<circle cx="1040" cy="258" r="6" class="c0"/>
<circle cx="1004" cy="98" r="6" class="c0"/>
<circle cx="1166" cy="416" r="6" class="c0"/>
<circle cx="1202" cy="340" r="6" class="c0"/>
<circle cx="910" cy="812" r="6" class="c0"/>
<circle cx="1318" cy="272" r="6" class="c0"/>
<circle cx="866" cy="856" r="6" class="c0"/>
<circle cx="1020" cy="526" r="6" class="c0"/>
<circle cx="1142" cy="766" r="6" class="c0"/>
<circle cx="1068" cy="824" r="6" class="c0"/>
<circle cx="992" cy="418" r="6" class="c0"/>
<circle cx="1180" cy="712" r="6" class="c0"/>
<circle cx="986" cy="186" r="6" class="c0"/>
<circle cx="994" cy="80" r="6" class="c0"/>
<circle cx="642" cy="778" r="6" class="c0"/>
<circle cx="860" cy="492" r="6" class="c0"/>
<circle cx="988" cy="206" r="6" class="c0"/>
<circle cx="1356" cy="134" r="6" class="c0"/>
<circle cx="1178" cy="728" r="6" class="c0"/>
<circle cx="890" cy="538" r="6" class="c0"/>
<circle cx="1052" cy="290" r="6" class="c0"/>
<circle cx="1076" cy="492" r="6" class="c0"/>
<circle cx="1222" cy="374" r="6" class="c0"/>
<circle cx="1076" cy="706" r="6" class="c0"/>
<circle cx="728" cy="734" r="6" class="c0"/>
<circle cx="1292" cy="324" r="6" class="c0"/>
<circle cx="1110" cy="848" r="6" class="c0"/>
<circle cx="894" cy="104" r="6" class="c0"/>
<circle cx="872" cy="128" r="6" class="c0"/>
<circle cx="1266" cy="814" r="6" class="c0"/>
<circle cx="898" cy="178" r="6" class="c0"/>
<circle cx="980" cy="6" r="6" class="c0"/>
<circle cx="854" cy="824" r="6" class="c0"/>
<circle cx="936" cy="482" r="6" class="c0"/>
<circle cx="698" cy="722" r="6" class="c0"/>
<circle cx="1134" cy="826" r="6" class="c0"/>
<circle cx="846" cy="56" r="6" class="c0"/>
<circle cx="872" cy="364" r="6" class="c0"/>
<circle cx="976" cy="346" r="6" class="c0"/>
<circle cx="956" cy="854" r="6" class="c0"/>
<circle cx="780" cy="596" r="6" class="c0"/>
<circle cx="1108" cy="416" r="6" class="c0"/>
<circle cx="1192" cy="394" r="6" class="c0"/>
<circle cx="534" cy="804" r="6" class="c0"/>
<circle cx="1166" cy="512" r="6" class="c0"/>
<circle cx="1114" cy="500" r="6" class="c0"/>
<circle cx="944" cy="720" r="6" class="c0"/>
<circle cx="884" cy="820" r="6" class="c0"/>
<circle cx="1034" cy="206" r="6" class="c0"/>
<circle cx="1022" cy="708" r="6" class="c0"/>
<circle cx="744" cy="788" r="6" class="c0"/>
<circle cx="948" cy="260" r="6" class="c0"/>
<circle cx="750" cy="704" r="6" class="c0"/>
<circle cx="910" cy="558" r="6" class="c0"/>
<circle cx="890" cy="422" r="6" class="c0"/>
<circle cx="606" cy="768" r="6" class="c0"/>
<circle cx="1052" cy="80" r="6" class="c0"/>
<circle cx="1388" cy="164" r="6" class="c0"/>
<circle cx="762" cy="652" r="6" class="c0"/>
<circle cx="990" cy="854" r="6" class="c0"/>
<circle cx="914" cy="192" r="6" class="c0"/>
<circle cx="1012" cy="262" r="6" class="c0"/>
<circle cx="880" cy="458" r="6" class="c0"/>
<circle cx="986" cy="54" r="6" class="c0"/>
<circle cx="1228" cy="790" r="6" class="c0"/>
<circle cx="1212" cy="326" r="6" class="c0"/>
<circle cx="1084" cy="928" r="6" class="c0"/>
<circle cx="1068" cy="594" r="6" class="c0"/>
<circle cx="762" cy="730" r="6" class="c0"/>
<circle cx="1068" cy="804" r="6" class="c0"/>
<circle cx="952" cy="22" r="6" class="c0"/>
<circle cx="1006" cy="684" r="6" class="c0"/>
<circle cx="1072" cy="192" r="6" class="c0"/>
<circle cx="690" cy="788" r="6" class="c0"/>
<circle cx="1264" cy="542" r="6" class="c0"/>
<circle cx="776" cy="688" r="6" class="c0"/>
<circle cx="1068" cy="884" r="6" class="c0"/>
<circle cx="958" cy="764" r="6" class="c0"/>
<circle cx="1050" cy="876" r="6" class="c0"/>
<circle cx="1290" cy="288" r="6" class="c0"/>
<circle cx="1190" cy="894" r="6" class="c0"/>
<circle cx="984" cy="762" r="6" class="c0"/>
<circle cx="874" cy="596" r="6" class="c0"/>
<circle cx="1078" cy="686" r="6" class="c0"/>
<circle cx="1314" cy="136" r="6" class="c0"/>
<circle cx="888" cy="718" r="6" class="c0"/>
<circle cx="1016" cy="820" r="6" class="c0"/>
<circle cx="644" cy="754" r="6" class="c0"/>
<circle cx="1248" cy="232" r="6" class="c0"/>
<circle cx="1284" cy="628" r="6" class="c0"/>
<circle cx="904" cy="72" r="6" class="c0"/>
<circle cx="1056" cy="164" r="6" class="c0"/>
<circle cx="1082" cy="868" r="6" class="c0"/>
<circle cx="786" cy="824" r="6" class="c0"/>
<circle cx="896" cy="26" r="6" class="c0"/>
<circle cx="1204" cy="170" r="6" class="c0"/>
<circle cx="1152" cy="726" r="6" class="c0"/>
<circle cx="772" cy="586" r="6" class="c0"/>
<circle cx="1132" cy="216" r="6" class="c0"/>
<circle cx="822" cy="870" r="6" class="c0"/>
<circle cx="1364" cy="242" r="6" class="c0"/>
<circle cx="792" cy="858" r="6" class="c0"/>
<circle cx="1032" cy="108" r="6" class="c0"/>
<circle cx="918" cy="732" r="6" class="c0"/>
<circle cx="1216" cy="634" r="6" class="c0"/>
<circle cx="776" cy="726" r="6" class="c0"/>
<circle cx="788" cy="694" r="6" class="c0"/>
<circle cx="918" cy="338" r="6" class="c0"/>
<circle cx="982" cy="806" r="6" class="c0"/>
<circle cx="996" cy="238" r="6" class="c0"/>
<circle cx="1344" cy="322" r="6" class="c0"/>
<circle cx="1134" cy="850" r="6" class="c0"/>
<circle cx="862" cy="158" r="6" class="c0"/>
<circle cx="1300" cy="362" r="6" class="c0"/>
<circle cx="1028" cy="810" r="6" class="c0"/>
<circle cx="1182" cy="518" r="6" class="c0"/>
<circle cx="1238" cy="824" r="6" class="c0"/>
<circle cx="1002" cy="516" r="6" class="c0"/>
<circle cx="1280" cy="366" r="6" class="c0"/>
<circle cx="788" cy="634" r="6" class="c0"/>
<circle cx="988" cy="374" r="6" class="c0"/>
<circle cx="1134" cy="798" r="6" class="c0"/>
<circle cx="956" cy="234" r="6" class="c0"/>
<circle cx="1064" cy="234" r="6" class="c0"/>
<circle cx="882" cy="296" r="6" class="c0"/>
<circle cx="892" cy="366" r="6" class="c0"/>
<circle cx="950" cy="554" r="6" class="c0"/>
<circle cx="968" cy="294" r="6" class="c0"/>
<circle cx="1366" cy="292" r="6" class="c0"/>
<circle cx="1178" cy="852" r="6" class="c0"/>
<circle cx="1100" cy="518" r="6" class="c0"/>
</svg>
