<?xml version="1.0" encoding="utf-8"?>
<svg xmlns="http://www.w3.org/2000/svg"
     xmlns:xlink="http://www.w3.org/1999/xlink" width="1920" height="1440" >

            <defs>
            <style type="text/css"><![CDATA[
circle {stroke: none;}
.c0 {fill: #000000;}
]]></style>
            </defs>
<rect x="0" y="0" width="1920" height="1440" fill="white"/>
<circle cx="1152" cy="394" r="12" class="c0"/>
<circle cx="1242" cy="130" r="12" class="c0"/>
<circle cx="994" cy="422" r="12" class="c0"/>
<circle cx="1032" cy="400" r="12" class="c0"/>
<circle cx="1298" cy="244" r="12" class="c0"/>
<circle cx="1116" cy="476" r="12" class="c0"/>
<circle cx="1134" cy="832" r="12" class="c0"/>
<circle cx="1260" cy="838" r="12" class="c0"/>
<circle cx="894" cy="144" r="12" class="c0"/>
<circle cx="1050" cy="60" r="12" class="c0"/>
<circle cx="1116" cy="920" r="12" class="c0"/>
<circle cx="1010" cy="528" r="12" class="c0"/>
<circle cx="1168" cy="480" r="12" class="c0"/>
<circle cx="1214" cy="602" r="12" class="c0"/>
<circle cx="982" cy="334" r="12" class="c0"/>
<circle cx="1166" cy="886" r="12" class="c0"/>
<circle cx="576" cy="830" r="12" class="c0"/>
<circle cx="854" cy="866" r="12" class="c0"/>
<circle cx="1188" cy="598" r="12" class="c0"/>
<circle cx="882" cy="326" r="12" class="c0"/>
<circle cx="1276" cy="214" r="12" class="c0"/>
<circle cx="662" cy="798" r="12" class="c0"/>
<circle cx="1082" cy="562" r="12" class="c0"/>
<circle cx="1344" cy="292" r="12" class="c0"/>
<circle cx="1118" cy="206" r="12" class="c0"/>
<circle cx="1018" cy="586" r="12" class="c0"/>
<circle cx="1150" cy="872" r="12" class="c0"/>
<circle cx="910" cy="734" r="12" class="c0"/>
<circle cx="1266" cy="284" r="12" class="c0"/>
<circle cx="554" cy="858" r="12" class="c0"/>
<circle cx="1074" cy="878" r="12" class="c0"/>
<circle cx="1164" cy="318" r="12" class="c0"/>
<circle cx="908" cy="300" r="12" class="c0"/>
<circle cx="966" cy="808" r="12" class="c0"/>
<circle cx="1276" cy="590" r="12" class="c0"/>
<circle cx="1260" cy="388" r="12" class="c0"/>
<circle cx="1250" cy="606" r="12" class="c0"/>
<circle cx="1020" cy="734" r="12" class="c0"/>
<circle cx="1124" cy="880" r="12" class="c0"/>
<circle cx="1100" cy="294" r="12" class="c0"/>
<circle cx="1188" cy="426" r="12" class="c0"/>
<circle cx="812" cy="832" r="12" class="c0"/>
<circle cx="538" cy="824" r="12" class="c0"/>
<circle cx="1132" cy="330" r="12" class="c0"/>
<circle cx="1044" cy="886" r="12" class="c0"/>
<circle cx="994" cy="810" r="12" class="c0"/>
<circle cx="930" cy="98" r="12" class="c0"/>
<circle cx="1006" cy="356" r="12" class="c0"/>
<circle cx="958" cy="710" r="12" class="c0"/>
<circle cx="1106" cy="508" r="12" class="c0"/>
<circle cx="1322" cy="272" r="12" class="c0"/>
<circle cx="942" cy="58" r="12" class="c0"/>
<circle cx="1070" cy="318" r="12" class="c0"/>
<circle cx="1136" cy="742" r="12" class="c0"/>
<circle cx="998" cy="482" r="12" class="c0"/>
<circle cx="1128" cy="444" r="12" class="c0"/>
<circle cx="1144" cy="926" r="12" class="c0"/>
<circle cx="1098" cy="362" r="12" class="c0"/>
<circle cx="1120" cy="384" r="12" class="c0"/>
<circle cx="920" cy="450" r="12" class="c0"/>
<circle cx="988" cy="256" r="12" class="c0"/>
<circle cx="956" cy="88" r="12" class="c0"/>
<circle cx="1242" cy="162" r="10" class="c0"/>
<circle cx="1230" cy="574" r="10" class="c0"/>
<circle cx="986" cy="34" r="10" class="c0"/>
<circle cx="980" cy="768" r="10" class="c0"/>
<circle cx="1132" cy="410" r="10" class="c0"/>
<circle cx="1062" cy="614" r="10" class="c0"/>
<circle cx="764" cy="678" r="10" class="c0"/>
<circle cx="992" cy="678" r="10" class="c0"/>
<circle cx="942" cy="818" r="10" class="c0"/>
<circle cx="1288" cy="378" r="10" class="c0"/>
<circle cx="780" cy="564" r="10" class="c0"/>
<circle cx="1156" cy="268" r="10" class="c0"/>
<circle cx="1128" cy="146" r="10" class="c0"/>
<circle cx="1002" cy="390" r="10" class="c0"/>
<circle cx="1230" cy="408" r="10" class="c0"/>
<circle cx="1144" cy="798" r="10" class="c0"/>
<circle cx="1362" cy="244" r="10" class="c0"/>
<circle cx="940" cy="258" r="10" class="c0"/>
<circle cx="1152" cy="242" r="10" class="c0"/>
<circle cx="1052" cy="552" r="10" class="c0"/>
<circle cx="978" cy="276" r="10" class="c0"/>
<circle cx="1082" cy="686" r="10" class="c0"/>
<circle cx="998" cy="632" r="10" class="c0"/>
<circle cx="1224" cy="298" r="10" class="c0"/>
<circle cx="1054" cy="264" r="10" class="c0"/>
<circle cx="796" cy="622" r="10" class="c0"/>
<circle cx="1194" cy="260" r="10" class="c0"/>
<circle cx="846" cy="816" r="10" class="c0"/>
<circle cx="926" cy="186" r="10" class="c0"/>
<circle cx="1236" cy="212" r="10" class="c0"/>
<circle cx="1070" cy="760" r="10" class="c0"/>
<circle cx="796" cy="576" r="10" class="c0"/>
<circle cx="912" cy="32" r="10" class="c0"/>
<circle cx="860" cy="838" r="10" class="c0"/>
<circle cx="926" cy="334" r="10" class="c0"/>
<circle cx="1180" cy="540" r="10" class="c0"/>
<circle cx="1226" cy="366" r="10" class="c0"/>
<circle cx="1076" cy="268" r="10" class="c0"/>
<circle cx="1120" cy="548" r="10" class="c0"/>
<circle cx="878" cy="858" r="10" class="c0"/>
<circle cx="1082" cy="80" r="10" class="c0"/>
<circle cx="1112" cy="626" r="10" class="c0"/>
<circle cx="1006" cy="218" r="10" class="c0"/>
<circle cx="1238" cy="864" r="10" class="c0"/>
<circle cx="1302" cy="300" r="10" class="c0"/>
<circle cx="1110" cy="64" r="10" class="c0"/>
<circle cx="1068" cy="248" r="10" class="c0"/>
<circle cx="1298" cy="546" r="10" class="c0"/>
<circle cx="1194" cy="146" r="10" class="c0"/>
<circle cx="920" cy="830" r="10" class="c0"/>
<circle cx="1086" cy="18" r="10" class="c0"/>
<circle cx="982" cy="182" r="10" class="c0"/>
<circle cx="1268" cy="416" r="10" class="c0"/>
<circle cx="1118" cy="24" r="10" class="c0"/>
<circle cx="732" cy="686" r="10" class="c0"/>
<circle cx="1022" cy="460" r="10" class="c0"/>
<circle cx="856" cy="52" r="10" class="c0"/>
<circle cx="900" cy="240" r="10" class="c0"/>
<circle cx="1184" cy="760" r="10" class="c0"/>
<circle cx="776" cy="596" r="10" class="c0"/>
<circle cx="942" cy="538" r="10" class="c0"/>
<circle cx="1046" cy="124" r="10" class="c0"/>
<circle cx="1196" cy="918" r="10" class="c0"/>
<circle cx="1182" cy="246" r="10" class="c0"/>
<circle cx="944" cy="474" r="10" class="c0"/>
<circle cx="858" cy="26" r="10" class="c0"/>
<circle cx="872" cy="12" r="10" class="c0"/>
<circle cx="1338" cy="154" r="10" class="c0"/>
<circle cx="1170" cy="748" r="10" class="c0"/>
<circle cx="1106" cy="818" r="10" class="c0"/>
<circle cx="1246" cy="246" r="10" class="c0"/>
<circle cx="1222" cy="814" r="10" class="c0"/>
<circle cx="1010" cy="852" r="10" class="c0"/>
<circle cx="978" cy="116" r="10" class="c0"/>
<circle cx="950" cy="34" r="10" class="c0"/>
<circle cx="1124" cy="786" r="10" class="c0"/>
<circle cx="858" cy="790" r="10" class="c0"/>
<circle cx="838" cy="846" r="10" class="c0"/>
<circle cx="1082" cy="514" r="10" class="c0"/>
<circle cx="918" cy="272" r="10" class="c0"/>
<circle cx="916" cy="386" r="10" class="c0"/>
<circle cx="1200" cy="402" r="10" class="c0"/>
<circle cx="1102" cy="334" r="10" class="c0"/>
<circle cx="846" cy="550" r="10" class="c0"/>
<circle cx="1054" cy="856" r="10" class="c0"/>
<circle cx="1048" cy="688" r="10" class="c0"/>
<circle cx="880" cy="532" r="10" class="c0"/>
<circle cx="944" cy="232" r="10" class="c0"/>
<circle cx="1176" cy="858" r="10" class="c0"/>
<circle cx="734" cy="604" r="10" class="c0"/>
<circle cx="1032" cy="800" r="10" class="c0"/>
<circle cx="1148" cy="300" r="10" class="c0"/>
<circle cx="954" cy="510" r="10" class="c0"/>
<circle cx="970" cy="14" r="10" class="c0"/>
<circle cx="622" cy="830" r="10" class="c0"/>
<circle cx="1006" cy="660" r="10" class="c0"/>
<circle cx="1038" cy="636" r="10" class="c0"/>
<circle cx="1274" cy="330" r="10" class="c0"/>
<circle cx="970" cy="526" r="10" class="c0"/>
<circle cx="1162" cy="374" r="10" class="c0"/>
<circle cx="1306" cy="332" r="10" class="c0"/>
<circle cx="930" cy="356" r="10" class="c0"/>
<circle cx="1014" cy="72" r="10" class="c0"/>
<circle cx="1166" cy="632" r="10" class="c0"/>
<circle cx="1194" cy="172" r="10" class="c0"/>
<circle cx="872" cy="500" r="10" class="c0"/>
<circle cx="1104" cy="708" r="10" class="c0"/>
<circle cx="1164" cy="774" r="10" class="c0"/>
<circle cx="1348" cy="188" r="10" class="c0"/>
<circle cx="716" cy="650" r="10" class="c0"/>
<circle cx="950" cy="338" r="10" class="c0"/>
<circle cx="1110" cy="864" r="10" class="c0"/>
<circle cx="1088" cy="446" r="10" class="c0"/>
<circle cx="1090" cy="606" r="10" class="c0"/>
<circle cx="1166" cy="436" r="10" class="c0"/>
<circle cx="1020" cy="100" r="10" class="c0"/>
<circle cx="690" cy="766" r="10" class="c0"/>
<circle cx="1008" cy="758" r="10" class="c0"/>
<circle cx="982" cy="158" r="10" class="c0"/>
<circle cx="972" cy="444" r="10" class="c0"/>
<circle cx="824" cy="544" r="10" class="c0"/>
<circle cx="1252" cy="580" r="10" class="c0"/>
<circle cx="992" cy="732" r="10" class="c0"/>
<circle cx="688" cy="804" r="10" class="c0"/>
<circle cx="1042" cy="152" r="10" class="c0"/>
<circle cx="1212" cy="222" r="10" class="c0"/>
<circle cx="874" cy="384" r="10" class="c0"/>
<circle cx="1156" cy="588" r="10" class="c0"/>
<circle cx="1190" cy="558" r="10" class="c0"/>
<circle cx="1360" cy="128" r="10" class="c0"/>
<circle cx="1300" cy="166" r="10" class="c0"/>
<circle cx="908" cy="570" r="10" class="c0"/>
<circle cx="1056" cy="448" r="10" class="c0"/>
<circle cx="1398" cy="178" r="10" class="c0"/>
<circle cx="964" cy="656" r="10" class="c0"/>
<circle cx="1112" cy="96" r="10" class="c0"/>
<circle cx="922" cy="808" r="10" class="c0"/>
<circle cx="846" cy="520" r="10" class="c0"/>
<circle cx="908" cy="764" r="10" class="c0"/>
<circle cx="1174" cy="576" r="10" class="c0"/>
<circle cx="1224" cy="846" r="10" class="c0"/>
<circle cx="1094" cy="740" r="10" class="c0"/>
<circle cx="968" cy="550" r="10" class="c0"/>
<circle cx="734" cy="726" r="10" class="c0"/>
<circle cx="968" cy="70" r="10" class="c0"/>
<circle cx="1026" cy="308" r="10" class="c0"/>
<circle cx="1136" cy="368" r="10" class="c0"/>
<circle cx="1154" cy="508" r="10" class="c0"/>
<circle cx="1254" cy="894" r="10" class="c0"/>
<circle cx="686" cy="736" r="10" class="c0"/>
<circle cx="1034" cy="428" r="10" class="c0"/>
<circle cx="1202" cy="352" r="10" class="c0"/>
<circle cx="1100" cy="134" r="10" class="c0"/>
<circle cx="888" cy="792" r="10" class="c0"/>
<circle cx="892" cy="352" r="10" class="c0"/>
<circle cx="968" cy="308" r="10" class="c0"/>
<circle cx="1026" cy="170" r="10" class="c0"/>
<circle cx="1020" cy="16" r="10" class="c0"/>
<circle cx="1214" cy="472" r="10" class="c0"/>
<circle cx="956" cy="400" r="10" class="c0"/>
<circle cx="1164" cy="810" r="10" class="c0"/>
<circle cx="1132" cy="106" r="10" class="c0"/>
<circle cx="830" cy="872" r="10" class="c0"/>
<circle cx="972" cy="234" r="10" class="c0"/>
<circle cx="1030" cy="510" r="10" class="c0"/>
<circle cx="1014" cy="290" r="10" class="c0"/>
<circle cx="1210" cy="434" r="10" class="c0"/>
<circle cx="900" cy="518" r="10" class="c0"/>
<circle cx="1096" cy="646" r="10" class="c0"/>
<circle cx="1178" cy="348" r="10" class="c0"/>
<circle cx="1192" cy="372" r="10" class="c0"/>
<circle cx="1234" cy="274" r="10" class="c0"/>
<circle cx="1124" cy="168" r="10" class="c0"/>
<circle cx="924" cy="152" r="10" class="c0"/>
<circle cx="894" cy="374" r="10" class="c0"/>
<circle cx="1206" cy="274" r="10" class="c0"/>
<circle cx="990" cy="92" r="10" class="c0"/>
<circle cx="1044" cy="782" r="10" class="c0"/>
<circle cx="758" cy="620" r="10" class="c0"/>
<circle cx="1102" cy="792" r="10" class="c0"/>
<circle cx="1152" cy="650" r="10" class="c0"/>
<circle cx="1254" cy="790" r="10" class="c0"/>
<circle cx="888" cy="70" r="10" class="c0"/>
<circle cx="1214" cy="670" r="10" class="c0"/>
<circle cx="942" cy="788" r="10" class="c0"/>
<circle cx="962" cy="680" r="10" class="c0"/>
<circle cx="1236" cy="326" r="10" class="c0"/>
<circle cx="878" cy="766" r="10" class="c0"/>
<circle cx="1044" cy="338" r="10" class="c0"/>
<circle cx="1142" cy="574" r="10" class="c0"/>
<circle cx="710" cy="796" r="10" class="c0"/>
<circle cx="744" cy="700" r="8" class="c0"/>
<circle cx="1228" cy="646" r="8" class="c0"/>
<circle cx="1154" cy="534" r="8" class="c0"/>
<circle cx="1076" cy="706" r="8" class="c0"/>
<circle cx="690" cy="690" r="8" class="c0"/>
<circle cx="898" cy="10" r="8" class="c0"/>
<circle cx="892" cy="818" r="8" class="c0"/>
<circle cx="1006" cy="156" r="8" class="c0"/>
<circle cx="1252" cy="634" r="8" class="c0"/>
<circle cx="886" cy="418" r="8" class="c0"/>
<circle cx="990" cy="452" r="8" class="c0"/>
<circle cx="1234" cy="434" r="8" class="c0"/>
<circle cx="1376" cy="198" r="8" class="c0"/>
<circle cx="1126" cy="242" r="8" class="c0"/>
<circle cx="1038" cy="290" r="8" class="c0"/>
<circle cx="880" cy="454" r="8" class="c0"/>
<circle cx="1184" cy="284" r="8" class="c0"/>
<circle cx="1054" cy="650" r="8" class="c0"/>
<circle cx="912" cy="130" r="8" class="c0"/>
<circle cx="1190" cy="316" r="8" class="c0"/>
<circle cx="1062" cy="592" r="8" class="c0"/>
<circle cx="956" cy="244" r="8" class="c0"/>
<circle cx="934" cy="128" r="8" class="c0"/>
<circle cx="1054" cy="506" r="8" class="c0"/>
<circle cx="1088" cy="904" r="8" class="c0"/>
<circle cx="976" cy="358" r="8" class="c0"/>
<circle cx="1284" cy="796" r="8" class="c0"/>
<circle cx="1024" cy="344" r="8" class="c0"/>
<circle cx="580" cy="854" r="8" class="c0"/>
<circle cx="1218" cy="794" r="8" class="c0"/>
<circle cx="1276" cy="178" r="8" class="c0"/>
<circle cx="1060" cy="376" r="8" class="c0"/>
<circle cx="870" cy="80" r="8" class="c0"/>
<circle cx="958" cy="456" r="8" class="c0"/>
<circle cx="874" cy="578" r="8" class="c0"/>
<circle cx="1038" cy="36" r="8" class="c0"/>
<circle cx="836" cy="772" r="8" class="c0"/>
<circle cx="1068" cy="466" r="8" class="c0"/>
<circle cx="1126" cy="720" r="8" class="c0"/>
<circle cx="1094" cy="384" r="8" class="c0"/>
<circle cx="1140" cy="766" r="8" class="c0"/>
<circle cx="1048" cy="486" r="8" class="c0"/>
<circle cx="836" cy="578" r="8" class="c0"/>
<circle cx="1144" cy="690" r="8" class="c0"/>
<circle cx="878" cy="38" r="8" class="c0"/>
<circle cx="1106" cy="842" r="8" class="c0"/>
<circle cx="1028" cy="820" r="8" class="c0"/>
<circle cx="1034" cy="750" r="8" class="c0"/>
<circle cx="930" cy="746" r="8" class="c0"/>
<circle cx="714" cy="608" r="8" class="c0"/>
<circle cx="872" cy="810" r="8" class="c0"/>
<circle cx="928" cy="508" r="8" class="c0"/>
<circle cx="1090" cy="774" r="8" class="c0"/>
<circle cx="1210" cy="830" r="8" class="c0"/>
<circle cx="1080" cy="838" r="8" class="c0"/>
<circle cx="904" cy="544" r="8" class="c0"/>
<circle cx="1196" cy="652" r="8" class="c0"/>
<circle cx="1084" cy="188" r="8" class="c0"/>
<circle cx="1332" cy="316" r="8" class="c0"/>
<circle cx="638" cy="808" r="8" class="c0"/>
<circle cx="1070" cy="210" r="8" class="c0"/>
<circle cx="1108" cy="766" r="8" class="c0"/>
<circle cx="986" cy="846" r="8" class="c0"/>
<circle cx="1312" cy="222" r="8" class="c0"/>
<circle cx="1080" cy="140" r="8" class="c0"/>
<circle cx="1158" cy="836" r="8" class="c0"/>
<circle cx="896" cy="110" r="8" class="c0"/>
<circle cx="1234" cy="186" r="8" class="c0"/>
<circle cx="1280" cy="156" r="8" class="c0"/>
<circle cx="1074" cy="398" r="8" class="c0"/>
<circle cx="1070" cy="344" r="8" class="c0"/>
<circle cx="844" cy="14" r="8" class="c0"/>
<circle cx="1068" cy="174" r="8" class="c0"/>
<circle cx="1024" cy="774" r="8" class="c0"/>
<circle cx="1136" cy="190" r="8" class="c0"/>
<circle cx="1296" cy="598" r="8" class="c0"/>
<circle cx="946" cy="440" r="8" class="c0"/>
<circle cx="1044" cy="364" r="8" class="c0"/>
<circle cx="1090" cy="98" r="8" class="c0"/>
<circle cx="1308" cy="564" r="8" class="c0"/>
<circle cx="930" cy="296" r="8" class="c0"/>
<circle cx="1236" cy="384" r="8" class="c0"/>
<circle cx="968" cy="484" r="8" class="c0"/>
<circle cx="1142" cy="474" r="8" class="c0"/>
<circle cx="1092" cy="856" r="8" class="c0"/>
<circle cx="988" cy="54" r="8" class="c0"/>
<circle cx="1068" cy="900" r="8" class="c0"/>
<circle cx="694" cy="668" r="8" class="c0"/>
<circle cx="710" cy="714" r="8" class="c0"/>
<circle cx="1062" cy="736" r="8" class="c0"/>
<circle cx="952" cy="754" r="8" class="c0"/>
<circle cx="1132" cy="598" r="8" class="c0"/>
<circle cx="976" cy="620" r="8" class="c0"/>
<circle cx="1116" cy="654" r="8" class="c0"/>
<circle cx="950" cy="198" r="8" class="c0"/>
<circle cx="1052" cy="420" r="8" class="c0"/>
<circle cx="876" cy="124" r="8" class="c0"/>
<circle cx="1060" cy="716" r="8" class="c0"/>
<circle cx="886" cy="738" r="8" class="c0"/>
<circle cx="1168" cy="720" r="8" class="c0"/>
<circle cx="600" cy="844" r="8" class="c0"/>
<circle cx="938" cy="278" r="8" class="c0"/>
<circle cx="906" cy="180" r="8" class="c0"/>
<circle cx="666" cy="738" r="8" class="c0"/>
<circle cx="1054" cy="22" r="8" class="c0"/>
<circle cx="860" cy="150" r="8" class="c0"/>
<circle cx="716" cy="772" r="8" class="c0"/>
<circle cx="1120" cy="756" r="8" class="c0"/>
<circle cx="992" cy="780" r="8" class="c0"/>
<circle cx="1008" cy="560" r="8" class="c0"/>
<circle cx="1180" cy="396" r="8" class="c0"/>
<circle cx="678" cy="708" r="8" class="c0"/>
<circle cx="1198" cy="798" r="8" class="c0"/>
<circle cx="1020" cy="672" r="8" class="c0"/>
<circle cx="820" cy="612" r="8" class="c0"/>
<circle cx="944" cy="308" r="8" class="c0"/>
<circle cx="1278" cy="814" r="8" class="c0"/>
<circle cx="806" cy="808" r="8" class="c0"/>
<circle cx="714" cy="678" r="8" class="c0"/>
<circle cx="1262" cy="188" r="8" class="c0"/>
<circle cx="1066" cy="154" r="8" class="c0"/>
<circle cx="840" cy="602" r="8" class="c0"/>
<circle cx="1044" cy="576" r="8" class="c0"/>
<circle cx="1202" cy="492" r="8" class="c0"/>
<circle cx="1260" cy="546" r="8" class="c0"/>
<circle cx="1004" cy="692" r="8" class="c0"/>
<circle cx="1038" cy="660" r="8" class="c0"/>
<circle cx="962" cy="854" r="8" class="c0"/>
<circle cx="1100" cy="532" r="8" class="c0"/>
<circle cx="876" cy="192" r="8" class="c0"/>
<circle cx="1320" cy="368" r="8" class="c0"/>
<circle cx="1204" cy="870" r="8" class="c0"/>
<circle cx="1192" cy="622" r="8" class="c0"/>
<circle cx="1186" cy="206" r="8" class="c0"/>
<circle cx="1236" cy="664" r="8" class="c0"/>
<circle cx="944" cy="378" r="8" class="c0"/>
<circle cx="724" cy="744" r="8" class="c0"/>
<circle cx="1076" cy="644" r="8" class="c0"/>
<circle cx="934" cy="852" r="8" class="c0"/>
<circle cx="814" cy="568" r="8" class="c0"/>
<circle cx="1068" cy="796" r="8" class="c0"/>
<circle cx="1230" cy="900" r="8" class="c0"/>
<circle cx="922" cy="490" r="8" class="c0"/>
<circle cx="820" cy="524" r="8" class="c0"/>
<circle cx="994" cy="514" r="8" class="c0"/>
<circle cx="1240" cy="346" r="8" class="c0"/>
<circle cx="948" cy="422" r="8" class="c0"/>
<circle cx="754" cy="718" r="8" class="c0"/>
<circle cx="1242" cy="822" r="8" class="c0"/>
<circle cx="994" cy="194" r="8" class="c0"/>
<circle cx="1064" cy="430" r="8" class="c0"/>
<circle cx="1080" cy="228" r="8" class="c0"/>
<circle cx="1280" cy="254" r="8" class="c0"/>
<circle cx="1168" cy="232" r="8" class="c0"/>
<circle cx="970" cy="214" r="8" class="c0"/>
<circle cx="1136" cy="226" r="8" class="c0"/>
<circle cx="1176" cy="460" r="8" class="c0"/>
<circle cx="870" cy="550" r="8" class="c0"/>
<circle cx="906" cy="212" r="8" class="c0"/>
<circle cx="882" cy="560" r="8" class="c0"/>
<circle cx="1128" cy="698" r="8" class="c0"/>
<circle cx="850" cy="756" r="8" class="c0"/>
<circle cx="908" cy="424" r="8" class="c0"/>
<circle cx="894" cy="496" r="8" class="c0"/>
<circle cx="860" cy="100" r="8" class="c0"/>
<circle cx="804" cy="542" r="8" class="c0"/>
<circle cx="760" cy="646" r="8" class="c0"/>
<circle cx="962" cy="736" r="8" class="c0"/>
<circle cx="1110" cy="268" r="8" class="c0"/>
<circle cx="1144" cy="280" r="8" class="c0"/>
<circle cx="1036" cy="606" r="8" class="c0"/>
<circle cx="964" cy="786" r="8" class="c0"/>
<circle cx="978" cy="642" r="8" class="c0"/>
<circle cx="1134" cy="628" r="8" class="c0"/>
<circle cx="1318" cy="200" r="8" class="c0"/>
<circle cx="1186" cy="684" r="8" class="c0"/>
<circle cx="1028" cy="714" r="8" class="c0"/>
<circle cx="1088" cy="206" r="8" class="c0"/>
<circle cx="1098" cy="30" r="8" class="c0"/>
<circle cx="1248" cy="302" r="8" class="c0"/>
<circle cx="1110" cy="604" r="8" class="c0"/>
<circle cx="886" cy="270" r="8" class="c0"/>
<circle cx="742" cy="576" r="8" class="c0"/>
<circle cx="1178" cy="654" r="8" class="c0"/>
<circle cx="1110" cy="582" r="8" class="c0"/>
<circle cx="976" cy="394" r="8" class="c0"/>
<circle cx="1190" cy="820" r="8" class="c0"/>
<circle cx="650" cy="774" r="8" class="c0"/>
<circle cx="1098" cy="226" r="8" class="c0"/>
<circle cx="926" cy="18" r="8" class="c0"/>
<circle cx="926" cy="562" r="8" class="c0"/>
<circle cx="1088" cy="488" r="8" class="c0"/>
<circle cx="1190" cy="524" r="8" class="c0"/>
<circle cx="1210" cy="642" r="8" class="c0"/>
<circle cx="740" cy="660" r="8" class="c0"/>
<circle cx="1032" cy="558" r="8" class="c0"/>
<circle cx="908" cy="362" r="8" class="c0"/>
<circle cx="900" cy="838" r="8" class="c0"/>
<circle cx="1120" cy="282" r="8" class="c0"/>
<circle cx="1054" cy="82" r="8" class="c0"/>
<circle cx="1032" cy="860" r="8" class="c0"/>
<circle cx="1366" cy="154" r="8" class="c0"/>
<circle cx="1194" cy="234" r="8" class="c0"/>
<circle cx="652" cy="822" r="8" class="c0"/>
<circle cx="1158" cy="454" r="8" class="c0"/>
<circle cx="878" cy="242" r="8" class="c0"/>
<circle cx="1018" cy="646" r="8" class="c0"/>
<circle cx="636" cy="842" r="8" class="c0"/>
<circle cx="1064" cy="828" r="8" class="c0"/>
<circle cx="1096" cy="50" r="8" class="c0"/>
<circle cx="1016" cy="702" r="8" class="c0"/>
<circle cx="1292" cy="348" r="8" class="c0"/>
<circle cx="1316" cy="156" r="8" class="c0"/>
<circle cx="1054" cy="818" r="8" class="c0"/>
<circle cx="1114" cy="118" r="8" class="c0"/>
<circle cx="816" cy="586" r="8" class="c0"/>
<circle cx="1108" cy="892" r="8" class="c0"/>
<circle cx="1090" cy="422" r="8" class="c0"/>
<circle cx="996" cy="300" r="8" class="c0"/>
<circle cx="1010" cy="334" r="8" class="c0"/>
<circle cx="936" cy="402" r="8" class="c0"/>
<circle cx="1292" cy="192" r="8" class="c0"/>
<circle cx="1072" cy="122" r="8" class="c0"/>
<circle cx="1246" cy="420" r="8" class="c0"/>
<circle cx="1176" cy="194" r="8" class="c0"/>
<circle cx="1084" cy="814" r="8" class="c0"/>
<circle cx="714" cy="734" r="8" class="c0"/>
<circle cx="1006" cy="612" r="8" class="c0"/>
<circle cx="1210" cy="932" r="8" class="c0"/>
<circle cx="1180" cy="932" r="8" class="c0"/>
<circle cx="1216" cy="168" r="8" class="c0"/>
<circle cx="792" cy="644" r="8" class="c0"/>
<circle cx="924" cy="530" r="8" class="c0"/>
<circle cx="604" cy="812" r="8" class="c0"/>
<circle cx="948" cy="116" r="8" class="c0"/>
<circle cx="1104" cy="166" r="8" class="c0"/>
<circle cx="1292" cy="574" r="8" class="c0"/>
<circle cx="1010" cy="246" r="8" class="c0"/>
<circle cx="1310" cy="356" r="8" class="c0"/>
<circle cx="1014" cy="830" r="8" class="c0"/>
<circle cx="1270" cy="368" r="8" class="c0"/>
<circle cx="1116" cy="346" r="8" class="c0"/>
<circle cx="1160" cy="670" r="8" class="c0"/>
<circle cx="520" cy="854" r="8" class="c0"/>
<circle cx="862" cy="566" r="8" class="c0"/>
<circle cx="1266" cy="618" r="8" class="c0"/>
<circle cx="908" cy="68" r="8" class="c0"/>
<circle cx="954" cy="176" r="8" class="c0"/>
<circle cx="1170" cy="912" r="8" class="c0"/>
<circle cx="672" cy="818" r="8" class="c0"/>
<circle cx="750" cy="736" r="8" class="c0"/>
<circle cx="1340" cy="238" r="8" class="c0"/>
<circle cx="1334" cy="208" r="8" class="c0"/>
<circle cx="1272" cy="776" r="8" class="c0"/>
<circle cx="888" cy="166" r="8" class="c0"/>
<circle cx="712" cy="630" r="8" class="c0"/>
<circle cx="1006" cy="52" r="8" class="c0"/>
<circle cx="1022" cy="376" r="8" class="c0"/>
<circle cx="1034" cy="190" r="8" class="c0"/>
<circle cx="1184" cy="494" r="8" class="c0"/>
<circle cx="944" cy="148" r="8" class="c0"/>
<circle cx="1126" cy="302" r="8" class="c0"/>
<circle cx="668" cy="772" r="8" class="c0"/>
<circle cx="906" cy="100" r="8" class="c0"/>
<circle cx="1240" cy="550" r="8" class="c0"/>
<circle cx="1190" cy="844" r="8" class="c0"/>
<circle cx="1262" cy="314" r="8" class="c0"/>
<circle cx="900" cy="44" r="8" class="c0"/>
<circle cx="824" cy="816" r="8" class="c0"/>
<circle cx="908" cy="468" r="8" class="c0"/>
<circle cx="1250" cy="560" r="8" class="c0"/>
<circle cx="1256" cy="230" r="8" class="c0"/>
<circle cx="900" cy="400" r="8" class="c0"/>
<circle cx="870" cy="602" r="8" class="c0"/>
<circle cx="1194" cy="456" r="8" class="c0"/>
<circle cx="926" cy="412" r="8" class="c0"/>
<circle cx="1296" cy="142" r="8" class="c0"/>
<circle cx="1056" cy="194" r="8" class="c0"/>
<circle cx="964" cy="376" r="8" class="c0"/>
<circle cx="1058" cy="288" r="8" class="c0"/>
<circle cx="1070" cy="366" r="8" class="c0"/>
<circle cx="1146" cy="716" r="8" class="c0"/>
<circle cx="1284" cy="610" r="8" class="c0"/>
<circle cx="1262" cy="872" r="8" class="c0"/>
<circle cx="714" cy="820" r="8" class="c0"/>
<circle cx="1234" cy="234" r="8" class="c0"/>
<circle cx="730" cy="782" r="8" class="c0"/>
<circle cx="1356" cy="222" r="8" class="c0"/>
<circle cx="1236" cy="456" r="8" class="c0"/>
<circle cx="922" cy="228" r="8" class="c0"/>
<circle cx="1012" cy="444" r="8" class="c0"/>
<circle cx="1326" cy="184" r="8" class="c0"/>
<circle cx="1394" cy="204" r="8" class="c0"/>
<circle cx="1012" cy="502" r="8" class="c0"/>
<circle cx="884" cy="212" r="8" class="c0"/>
<circle cx="1212" cy="248" r="8" class="c0"/>
<circle cx="858" cy="592" r="8" class="c0"/>
<circle cx="1188" cy="900" r="8" class="c0"/>
<circle cx="808" cy="862" r="8" class="c0"/>
<circle cx="1264" cy="346" r="8" class="c0"/>
<circle cx="1044" cy="730" r="8" class="c0"/>
<circle cx="902" cy="336" r="8" class="c0"/>
<circle cx="952" cy="292" r="8" class="c0"/>
<circle cx="856" cy="130" r="8" class="c0"/>
<circle cx="1012" cy="412" r="8" class="c0"/>
<circle cx="1058" cy="228" r="8" class="c0"/>
<circle cx="924" cy="774" r="8" class="c0"/>
<circle cx="1168" cy="294" r="8" class="c0"/>
<circle cx="1208" cy="184" r="8" class="c0"/>
<circle cx="984" cy="378" r="8" class="c0"/>
<circle cx="1222" cy="196" r="8" class="c0"/>
<circle cx="1010" cy="120" r="8" class="c0"/>
<circle cx="840" cy="40" r="8" class="c0"/>
<circle cx="1348" cy="268" r="8" class="c0"/>
<circle cx="932" cy="700" r="8" class="c0"/>
<circle cx="1210" cy="564" r="8" class="c0"/>
<circle cx="1050" cy="762" r="8" class="c0"/>
<circle cx="1232" cy="622" r="8" class="c0"/>
<circle cx="1274" cy="556" r="8" class="c0"/>
<circle cx="1136" cy="524" r="8" class="c0"/>
<circle cx="884" cy="436" r="8" class="c0"/>
<circle cx="974" cy="746" r="8" class="c0"/>
<circle cx="1220" cy="140" r="8" class="c0"/>
<circle cx="1060" cy="100" r="8" class="c0"/>
<circle cx="990" cy="130" r="8" class="c0"/>
<circle cx="1146" cy="848" r="8" class="c0"/>
<circle cx="1212" cy="312" r="8" class="c0"/>
<circle cx="1144" cy="900" r="8" class="c0"/>
<circle cx="1100" cy="676" r="8" class="c0"/>
<circle cx="938" cy="208" r="8" class="c0"/>
<circle cx="894" cy="190" r="8" class="c0"/>
<circle cx="1020" cy="142" r="8" class="c0"/>
<circle cx="836" cy="798" r="8" class="c0"/>
<circle cx="1064" cy="12" r="8" class="c0"/>
<circle cx="1164" cy="524" r="8" class="c0"/>
<circle cx="996" cy="14" r="8" class="c0"/>
<circle cx="1176" cy="694" r="8" class="c0"/>
<circle cx="984" cy="538" r="8" class="c0"/>
<circle cx="1326" cy="568" r="8" class="c0"/>
<circle cx="954" cy="838" r="8" class="c0"/>
<circle cx="1124" cy="80" r="8" class="c0"/>
<circle cx="982" cy="706" r="8" class="c0"/>
<circle cx="1076" cy="292" r="8" class="c0"/>
<circle cx="1166" cy="414" r="8" class="c0"/>
<circle cx="1038" cy="842" r="8" class="c0"/>
<circle cx="800" cy="600" r="8" class="c0"/>
<circle cx="1100" cy="408" r="8" class="c0"/>
<circle cx="1058" cy="354" r="8" class="c0"/>
<circle cx="1222" cy="922" r="8" class="c0"/>
<circle cx="1290" cy="280" r="8" class="c0"/>
<circle cx="1040" cy="468" r="8" class="c0"/>
<circle cx="1090" cy="466" r="8" class="c0"/>
<circle cx="1068" cy="534" r="8" class="c0"/>
<circle cx="1116" cy="734" r="8" class="c0"/>
<circle cx="1120" cy="422" r="8" class="c0"/>
<circle cx="1146" cy="552" r="8" class="c0"/>
<circle cx="1204" cy="776" r="8" class="c0"/>
<circle cx="1202" cy="128" r="8" class="c0"/>
<circle cx="1056" cy="394" r="8" class="c0"/>
<circle cx="1144" cy="132" r="8" class="c0"/>
<circle cx="1252" cy="200" r="8" class="c0"/>
<circle cx="866" cy="748" r="8" class="c0"/>
<circle cx="966" cy="144" r="8" class="c0"/>
<circle cx="1028" cy="278" r="8" class="c0"/>
<circle cx="1018" cy="266" r="8" class="c0"/>
<circle cx="970" cy="50" r="8" class="c0"/>
<circle cx="708" cy="752" r="8" class="c0"/>
<circle cx="870" cy="172" r="8" class="c0"/>
<circle cx="1068" cy="672" r="8" class="c0"/>
<circle cx="1160" cy="610" r="8" class="c0"/>
<circle cx="822" cy="788" r="8" class="c0"/>
<circle cx="1096" cy="254" r="8" class="c0"/>
<circle cx="1070" cy="494" r="8" class="c0"/>
<circle cx="880" cy="102" r="8" class="c0"/>
<circle cx="1376" cy="178" r="8" class="c0"/>
<circle cx="754" cy="594" r="8" class="c0"/>
<circle cx="1004" cy="792" r="8" class="c0"/>
<circle cx="1306" cy="766" r="8" class="c0"/>
<circle cx="1190" cy="738" r="8" class="c0"/>
<circle cx="1026" cy="52" r="8" class="c0"/>
<circle cx="1216" cy="890" r="8" class="c0"/>
<circle cx="1310" cy="588" r="8" class="c0"/>
<circle cx="980" cy="498" r="8" class="c0"/>
<circle cx="738" cy="632" r="8" class="c0"/>
<circle cx="1070" cy="50" r="8" class="c0"/>
<circle cx="764" cy="574" r="8" class="c0"/>
<circle cx="1212" cy="332" r="8" class="c0"/>
<circle cx="1288" cy="400" r="8" class="c0"/>
<circle cx="732" cy="760" r="8" class="c0"/>
<circle cx="656" cy="754" r="8" class="c0"/>
<circle cx="528" cy="872" r="8" class="c0"/>
<circle cx="888" cy="590" r="8" class="c0"/>
<circle cx="1150" cy="340" r="8" class="c0"/>
<circle cx="890" cy="478" r="8" class="c0"/>
<circle cx="1382" cy="220" r="8" class="c0"/>
<circle cx="944" cy="8" r="8" class="c0"/>
<circle cx="1140" cy="664" r="8" class="c0"/>
<circle cx="1120" cy="806" r="8" class="c0"/>
<circle cx="1066" cy="574" r="8" class="c0"/>
<circle cx="778" cy="630" r="8" class="c0"/>
<circle cx="1320" cy="240" r="8" class="c0"/>
<circle cx="1326" cy="132" r="8" class="c0"/>
<circle cx="1040" cy="92" r="8" class="c0"/>
<circle cx="874" cy="360" r="8" class="c0"/>
<circle cx="930" cy="430" r="8" class="c0"/>
<circle cx="1046" cy="306" r="8" class="c0"/>
<circle cx="852" cy="82" r="8" class="c0"/>
<circle cx="1286" cy="312" r="8" class="c0"/>
<circle cx="1246" cy="370" r="8" class="c0"/>
<circle cx="1086" cy="662" r="8" class="c0"/>
<circle cx="1008" cy="184" r="8" class="c0"/>
<circle cx="1174" cy="504" r="8" class="c0"/>
<circle cx="954" cy="364" r="8" class="c0"/>
<circle cx="1316" cy="752" r="8" class="c0"/>
<circle cx="886" cy="298" r="8" class="c0"/>
<circle cx="1164" cy="560" r="8" class="c0"/>
<circle cx="1270" cy="636" r="8" class="c0"/>
<circle cx="976" cy="668" r="8" class="c0"/>
<circle cx="1126" cy="498" r="8" class="c0"/>
<circle cx="842" cy="68" r="8" class="c0"/>
<circle cx="1182" cy="784" r="8" class="c0"/>
<circle cx="728" cy="806" r="8" class="c0"/>
<circle cx="1138" cy="254" r="8" class="c0"/>
<circle cx="1190" cy="882" r="8" class="c0"/>
<circle cx="1152" cy="218" r="8" class="c0"/>
<circle cx="1246" cy="912" r="8" class="c0"/>
<circle cx="1236" cy="802" r="8" class="c0"/>
<circle cx="1022" cy="622" r="8" class="c0"/>
<circle cx="1158" cy="732" r="8" class="c0"/>
<circle cx="880" cy="828" r="8" class="c0"/>
<circle cx="966" cy="260" r="8" class="c0"/>
<circle cx="1084" cy="628" r="8" class="c0"/>
<circle cx="1128" cy="264" r="8" class="c0"/>
<circle cx="1084" cy="724" r="8" class="c0"/>
<circle cx="1198" cy="196" r="8" class="c0"/>
<circle cx="762" cy="702" r="8" class="c0"/>
<circle cx="954" cy="776" r="8" class="c0"/>
<circle cx="1144" cy="156" r="8" class="c0"/>
<circle cx="1106" cy="188" r="8" class="c0"/>
<circle cx="980" cy="826" r="8" class="c0"/>
<circle cx="700" cy="640" r="8" class="c0"/>
<circle cx="1270" cy="244" r="8" class="c0"/>
<circle cx="1274" cy="534" r="8" class="c0"/>
<circle cx="1124" cy="50" r="8" class="c0"/>
<circle cx="974" cy="412" r="8" class="c0"/>
<circle cx="1100" cy="108" r="8" class="c0"/>
<circle cx="1150" cy="622" r="6" class="c0"/>
<circle cx="1260" cy="264" r="6" class="c0"/>
<circle cx="966" cy="192" r="6" class="c0"/>
<circle cx="918" cy="714" r="6" class="c0"/>
<circle cx="906" cy="260" r="6" class="c0"/>
<circle cx="876" cy="56" r="6" class="c0"/>
<circle cx="1254" cy="650" r="6" class="c0"/>
<circle cx="1152" cy="752" r="6" class="c0"/>
<circle cx="1152" cy="358" r="6" class="c0"/>
<circle cx="1142" cy="494" r="6" class="c0"/>
<circle cx="1130" cy="938" r="6" class="c0"/>
<circle cx="1050" cy="670" r="6" class="c0"/>
<circle cx="940" cy="168" r="6" class="c0"/>
<circle cx="618" cy="850" r="6" class="c0"/>
<circle cx="1190" cy="476" r="6" class="c0"/>
<circle cx="920" cy="48" r="6" class="c0"/>
<circle cx="1118" cy="684" r="6" class="c0"/>
<circle cx="858" cy="532" r="6" class="c0"/>
<circle cx="930" cy="74" r="6" class="c0"/>
<circle cx="1092" cy="582" r="6" class="c0"/>
<circle cx="1002" cy="712" r="6" class="c0"/>
<circle cx="1096" cy="314" r="6" class="c0"/>
<circle cx="1230" cy="256" r="6" class="c0"/>
<circle cx="998" cy="234" r="6" class="c0"/>
<circle cx="780" cy="664" r="6" class="c0"/>
<circle cx="994" cy="552" r="6" class="c0"/>
<circle cx="698" cy="724" r="6" class="c0"/>
<circle cx="916" cy="112" r="6" class="c0"/>
<circle cx="1188" cy="638" r="6" class="c0"/>
<circle cx="888" cy="28" r="6" class="c0"/>
<circle cx="1040" cy="532" r="6" class="c0"/>
<circle cx="942" cy="688" r="6" class="c0"/>
<circle cx="964" cy="166" r="6" class="c0"/>
<circle cx="1150" cy="424" r="6" class="c0"/>
<circle cx="1030" cy="682" r="6" class="c0"/>
<circle cx="1194" cy="702" r="6" class="c0"/>
<circle cx="1200" cy="292" r="6" class="c0"/>
<circle cx="908" cy="788" r="6" class="c0"/>
<circle cx="1046" cy="170" r="6" class="c0"/>
<circle cx="1132" cy="464" r="6" class="c0"/>
<circle cx="1382" cy="248" r="6" class="c0"/>
<circle cx="1300" cy="390" r="6" class="c0"/>
<circle cx="636" cy="782" r="6" class="c0"/>
<circle cx="1110" cy="236" r="6" class="c0"/>
<circle cx="830" cy="562" r="6" class="c0"/>
<circle cx="1130" cy="124" r="6" class="c0"/>
<circle cx="1100" cy="878" r="6" class="c0"/>
<circle cx="982" cy="204" r="6" class="c0"/>
<circle cx="896" cy="854" r="6" class="c0"/>
<circle cx="874" cy="222" r="6" class="c0"/>
<circle cx="1084" cy="330" r="6" class="c0"/>
<circle cx="1000" cy="324" r="6" class="c0"/>
<circle cx="1392" cy="134" r="6" class="c0"/>
<circle cx="1298" cy="212" r="6" class="c0"/>
<circle cx="1106" cy="438" r="6" class="c0"/>
<circle cx="1208" cy="692" r="6" class="c0"/>
<circle cx="1258" cy="810" r="6" class="c0"/>
<circle cx="1358" cy="174" r="6" class="c0"/>
<circle cx="1174" cy="264" r="6" class="c0"/>
<circle cx="702" cy="700" r="6" class="c0"/>
<circle cx="942" cy="726" r="6" class="c0"/>
<circle cx="1072" cy="30" r="6" class="c0"/>
<circle cx="1216" cy="452" r="6" class="c0"/>
<circle cx="978" cy="468" r="6" class="c0"/>
<circle cx="1000" cy="272" r="6" class="c0"/>
<circle cx="1142" cy="174" r="6" class="c0"/>
<circle cx="1212" cy="908" r="6" class="c0"/>
<circle cx="1010" cy="316" r="6" class="c0"/>
<circle cx="724" cy="618" r="6" class="c0"/>
<circle cx="1100" cy="554" r="6" class="c0"/>
<circle cx="1086" cy="164" r="6" class="c0"/>
<circle cx="1342" cy="130" r="6" class="c0"/>
<circle cx="1292" cy="776" r="6" class="c0"/>
<circle cx="1206" cy="584" r="6" class="c0"/>
<circle cx="954" cy="272" r="6" class="c0"/>
<circle cx="1162" cy="208" r="6" class="c0"/>
<circle cx="960" cy="324" r="6" class="c0"/>
<circle cx="888" cy="228" r="6" class="c0"/>
<circle cx="868" cy="416" r="6" class="c0"/>
<circle cx="900" cy="446" r="6" class="c0"/>
<circle cx="568" cy="870" r="6" class="c0"/>
<circle cx="696" cy="822" r="6" class="c0"/>
<circle cx="1006" cy="34" r="6" class="c0"/>
<circle cx="918" cy="244" r="6" class="c0"/>
<circle cx="1058" cy="38" r="6" class="c0"/>
<circle cx="860" cy="770" r="6" class="c0"/>
<circle cx="1032" cy="112" r="6" class="c0"/>
<circle cx="930" cy="720" r="6" class="c0"/>
<circle cx="1160" cy="940" r="6" class="c0"/>
<circle cx="1030" cy="82" r="6" class="c0"/>
<circle cx="1064" cy="696" r="6" class="c0"/>
<circle cx="866" cy="522" r="6" class="c0"/>
<circle cx="1142" cy="208" r="6" class="c0"/>
<circle cx="1274" cy="302" r="6" class="c0"/>
<circle cx="1202" cy="854" r="6" class="c0"/>
<circle cx="1200" cy="542" r="6" class="c0"/>
<circle cx="1248" cy="404" r="6" class="c0"/>
<circle cx="1020" cy="480" r="6" class="c0"/>
<circle cx="1316" cy="310" r="6" class="c0"/>
<circle cx="978" cy="794" r="6" class="c0"/>
<circle cx="752" cy="564" r="6" class="c0"/>
<circle cx="1110" cy="316" r="6" class="c0"/>
<circle cx="1338" cy="174" r="6" class="c0"/>
<circle cx="902" cy="804" r="6" class="c0"/>
<circle cx="1202" cy="512" r="6" class="c0"/>
<circle cx="698" cy="782" r="6" class="c0"/>
<circle cx="1284" cy="766" r="6" class="c0"/>
<circle cx="1278" cy="270" r="6" class="c0"/>
<circle cx="1166" cy="704" r="6" class="c0"/>
<circle cx="866" cy="206" r="6" class="c0"/>
<circle cx="1092" cy="828" r="6" class="c0"/>
<circle cx="894" cy="774" r="6" class="c0"/>
<circle cx="672" cy="756" r="6" class="c0"/>
<circle cx="952" cy="216" r="6" class="c0"/>
<circle cx="1122" cy="670" r="6" class="c0"/>
<circle cx="1338" cy="256" r="6" class="c0"/>
<circle cx="1324" cy="302" r="6" class="c0"/>
<circle cx="1214" cy="388" r="6" class="c0"/>
<circle cx="1350" cy="206" r="6" class="c0"/>
<circle cx="856" cy="610" r="6" class="c0"/>
<circle cx="1092" cy="66" r="6" class="c0"/>
<circle cx="1264" cy="168" r="6" class="c0"/>
<circle cx="1232" cy="592" r="6" class="c0"/>
<circle cx="836" cy="620" r="6" class="c0"/>
<circle cx="1172" cy="794" r="6" class="c0"/>
<circle cx="998" cy="832" r="6" class="c0"/>
<circle cx="1102" cy="10" r="6" class="c0"/>
<circle cx="1054" cy="140" r="6" class="c0"/>
<circle cx="1000" cy="106" r="6" class="c0"/>
<circle cx="524" cy="836" r="6" class="c0"/>
<circle cx="916" cy="318" r="6" class="c0"/>
<circle cx="1088" cy="926" r="6" class="c0"/>
<circle cx="1084" cy="794" r="6" class="c0"/>
<circle cx="1250" cy="336" r="6" class="c0"/>
<circle cx="1184" cy="222" r="6" class="c0"/>
<circle cx="1372" cy="260" r="6" class="c0"/>
<circle cx="1186" cy="332" r="6" class="c0"/>
<circle cx="1210" cy="374" r="6" class="c0"/>
<circle cx="1384" cy="152" r="6" class="c0"/>
<circle cx="1094" cy="152" r="6" class="c0"/>
<circle cx="596" cy="826" r="6" class="c0"/>
<circle cx="850" cy="112" r="6" class="c0"/>
<circle cx="1116" cy="524" r="6" class="c0"/>
<circle cx="1092" cy="886" r="6" class="c0"/>
<circle cx="942" cy="766" r="6" class="c0"/>
<circle cx="1052" cy="798" r="6" class="c0"/>
<circle cx="1066" cy="634" r="6" class="c0"/>
<circle cx="1066" cy="412" r="6" class="c0"/>
<circle cx="914" cy="8" r="6" class="c0"/>
<circle cx="896" cy="280" r="6" class="c0"/>
<circle cx="786" cy="544" r="6" class="c0"/>
<circle cx="776" cy="650" r="6" class="c0"/>
<circle cx="1042" cy="6" r="6" class="c0"/>
<circle cx="1084" cy="306" r="6" class="c0"/>
<circle cx="726" cy="582" r="6" class="c0"/>
<circle cx="1026" cy="126" r="6" class="c0"/>
<circle cx="1028" cy="488" r="6" class="c0"/>
<circle cx="1266" cy="570" r="6" class="c0"/>
<circle cx="938" cy="492" r="6" class="c0"/>
<circle cx="1214" cy="860" r="6" class="c0"/>
<circle cx="1174" cy="838" r="6" class="c0"/>
<circle cx="890" cy="254" r="6" class="c0"/>
<circle cx="908" cy="164" r="6" class="c0"/>
<circle cx="802" cy="558" r="6" class="c0"/>
<circle cx="718" cy="696" r="6" class="c0"/>
<circle cx="1248" cy="442" r="6" class="c0"/>
<circle cx="622" cy="806" r="6" class="c0"/>
<circle cx="944" cy="862" r="6" class="c0"/>
<circle cx="1256" cy="432" r="6" class="c0"/>
<circle cx="1152" cy="104" r="6" class="c0"/>
<circle cx="922" cy="206" r="6" class="c0"/>
<circle cx="1332" cy="224" r="6" class="c0"/>
<circle cx="1194" cy="668" r="6" class="c0"/>
<circle cx="1100" cy="572" r="6" class="c0"/>
<circle cx="1374" cy="116" r="6" class="c0"/>
<circle cx="914" cy="852" r="6" class="c0"/>
<circle cx="978" cy="862" r="6" class="c0"/>
<circle cx="1128" cy="8" r="6" class="c0"/>
<circle cx="1206" cy="528" r="6" class="c0"/>
<circle cx="854" cy="502" r="6" class="c0"/>
<circle cx="1040" cy="380" r="6" class="c0"/>
<circle cx="890" cy="90" r="6" class="c0"/>
<circle cx="630" cy="794" r="6" class="c0"/>
<circle cx="1308" cy="260" r="6" class="c0"/>
<circle cx="1108" cy="562" r="6" class="c0"/>
<circle cx="966" cy="426" r="6" class="c0"/>
<circle cx="1268" cy="802" r="6" class="c0"/>
<circle cx="898" cy="750" r="6" class="c0"/>
<circle cx="912" cy="504" r="6" class="c0"/>
<circle cx="668" cy="720" r="6" class="c0"/>
<circle cx="798" cy="846" r="6" class="c0"/>
<circle cx="1110" cy="452" r="6" class="c0"/>
<circle cx="556" cy="836" r="6" class="c0"/>
<circle cx="946" cy="558" r="6" class="c0"/>
<circle cx="1120" cy="572" r="6" class="c0"/>
<circle cx="1000" cy="462" r="6" class="c0"/>
<circle cx="1112" cy="252" r="6" class="c0"/>
<circle cx="1074" cy="780" r="6" class="c0"/>
<circle cx="1198" cy="574" r="6" class="c0"/>
<circle cx="1308" cy="378" r="6" class="c0"/>
<circle cx="1038" cy="452" r="6" class="c0"/>
<circle cx="1024" cy="326" r="6" class="c0"/>
<circle cx="1190" cy="118" r="6" class="c0"/>
<circle cx="878" cy="402" r="6" class="c0"/>
<circle cx="1176" cy="674" r="6" class="c0"/>
<circle cx="996" cy="68" r="6" class="c0"/>
<circle cx="684" cy="784" r="6" class="c0"/>
<circle cx="1366" cy="274" r="6" class="c0"/>
<circle cx="1182" cy="804" r="6" class="c0"/>
<circle cx="808" cy="880" r="6" class="c0"/>
<circle cx="1130" cy="644" r="6" class="c0"/>
<circle cx="902" cy="84" r="6" class="c0"/>
<circle cx="1084" cy="374" r="6" class="c0"/>
<circle cx="1084" cy="542" r="6" class="c0"/>
<circle cx="1028" cy="538" r="6" class="c0"/>
<circle cx="1048" cy="524" r="6" class="c0"/>
<circle cx="540" cy="846" r="6" class="c0"/>
<circle cx="1100" cy="82" r="6" class="c0"/>
<circle cx="1376" cy="142" r="6" class="c0"/>
<circle cx="1308" cy="186" r="6" class="c0"/>
<circle cx="1128" cy="854" r="6" class="c0"/>
<circle cx="1184" cy="712" r="6" class="c0"/>
<circle cx="1014" cy="808" r="6" class="c0"/>
<circle cx="1372" cy="230" r="6" class="c0"/>
<circle cx="914" cy="346" r="6" class="c0"/>
<circle cx="608" cy="858" r="6" class="c0"/>
<circle cx="974" cy="724" r="6" class="c0"/>
<circle cx="1148" cy="440" r="6" class="c0"/>
<circle cx="968" cy="102" r="6" class="c0"/>
<circle cx="972" cy="696" r="6" class="c0"/>
<circle cx="928" cy="374" r="6" class="c0"/>
<circle cx="1134" cy="910" r="6" class="c0"/>
<circle cx="1018" cy="196" r="6" class="c0"/>
<circle cx="918" cy="80" r="6" class="c0"/>
<circle cx="716" cy="592" r="6" class="c0"/>
<circle cx="964" cy="348" r="6" class="c0"/>
<circle cx="1216" cy="626" r="6" class="c0"/>
<circle cx="1004" cy="140" r="6" class="c0"/>
<circle cx="1046" cy="708" r="6" class="c0"/>
<circle cx="900" cy="318" r="6" class="c0"/>
<circle cx="962" cy="628" r="6" class="c0"/>
<circle cx="1366" cy="210" r="6" class="c0"/>
<circle cx="932" cy="42" r="6" class="c0"/>
<circle cx="1050" cy="246" r="6" class="c0"/>
<circle cx="954" cy="158" r="6" class="c0"/>
<circle cx="986" cy="220" r="6" class="c0"/>
<circle cx="1222" cy="874" r="6" class="c0"/>
<circle cx="874" cy="142" r="6" class="c0"/>
<circle cx="1252" cy="178" r="6" class="c0"/>
<circle cx="1162" cy="686" r="6" class="c0"/>
<circle cx="952" cy="134" r="6" class="c0"/>
<circle cx="1132" cy="64" r="6" class="c0"/>
<circle cx="1232" cy="882" r="6" class="c0"/>
<circle cx="1198" cy="108" r="6" class="c0"/>
<circle cx="938" cy="518" r="6" class="c0"/>
<circle cx="1212" cy="414" r="6" class="c0"/>
<circle cx="1300" cy="366" r="6" class="c0"/>
<circle cx="1078" cy="476" r="6" class="c0"/>
<circle cx="1028" cy="876" r="6" class="c0"/>
<circle cx="1018" cy="546" r="6" class="c0"/>
<circle cx="980" cy="296" r="6" class="c0"/>
<circle cx="822" cy="628" r="6" class="c0"/>
<circle cx="1322" cy="340" r="6" class="c0"/>
<circle cx="1128" cy="564" r="6" class="c0"/>
<circle cx="1286" cy="230" r="6" class="c0"/>
<circle cx="1090" cy="278" r="6" class="c0"/>
<circle cx="1176" cy="616" r="6" class="c0"/>
<circle cx="1076" cy="918" r="6" class="c0"/>
<circle cx="726" cy="708" r="6" class="c0"/>
<circle cx="1212" cy="502" r="6" class="c0"/>
<circle cx="1018" cy="868" r="6" class="c0"/>
<circle cx="988" cy="652" r="6" class="c0"/>
<circle cx="1222" cy="342" r="6" class="c0"/>
<circle cx="1078" cy="588" r="6" class="c0"/>
<circle cx="566" cy="814" r="6" class="c0"/>
<circle cx="996" cy="170" r="6" class="c0"/>
<circle cx="1092" cy="758" r="6" class="c0"/>
<circle cx="990" cy="316" r="6" class="c0"/>
<circle cx="1308" cy="132" r="6" class="c0"/>
<circle cx="1280" cy="358" r="6" class="c0"/>
<circle cx="990" cy="610" r="6" class="c0"/>
<circle cx="964" cy="828" r="6" class="c0"/>
<circle cx="1272" cy="854" r="6" class="c0"/>
<circle cx="906" cy="484" r="6" class="c0"/>
<circle cx="1086" cy="346" r="6" class="c0"/>
<circle cx="1034" cy="698" r="6" class="c0"/>
<circle cx="1080" cy="38" r="6" class="c0"/>
<circle cx="544" cy="874" r="6" class="c0"/>
<circle cx="1166" cy="254" r="6" class="c0"/>
<circle cx="724" cy="666" r="6" class="c0"/>
<circle cx="876" cy="156" r="6" class="c0"/>
<circle cx="1060" cy="774" r="6" class="c0"/>
<circle cx="1154" cy="180" r="6" class="c0"/>
<circle cx="1046" cy="594" r="6" class="c0"/>
<circle cx="1146" cy="818" r="6" class="c0"/>
<circle cx="868" cy="64" r="6" class="c0"/>
<circle cx="1220" cy="554" r="6" class="c0"/>
<circle cx="1064" cy="518" r="6" class="c0"/>
<circle cx="1178" cy="306" r="6" class="c0"/>
<circle cx="1068" cy="70" r="6" class="c0"/>
<circle cx="968" cy="32" r="6" class="c0"/>
<circle cx="590" cy="864" r="6" class="c0"/>
<circle cx="1138" cy="350" r="6" class="c0"/>
<circle cx="950" cy="668" r="6" class="c0"/>
<circle cx="1124" cy="902" r="6" class="c0"/>
<circle cx="1154" cy="910" r="6" class="c0"/>
<circle cx="1096" cy="918" r="6" class="c0"/>
<circle cx="872" cy="342" r="6" class="c0"/>
<circle cx="994" cy="284" r="6" class="c0"/>
<circle cx="1230" cy="150" r="6" class="c0"/>
<circle cx="952" cy="490" r="6" class="c0"/>
<circle cx="1072" cy="852" r="6" class="c0"/>
<circle cx="1108" cy="150" r="6" class="c0"/>
<circle cx="1076" cy="106" r="6" class="c0"/>
<circle cx="1322" cy="552" r="6" class="c0"/>
<circle cx="926" cy="470" r="6" class="c0"/>
<circle cx="890" cy="574" r="6" class="c0"/>
<circle cx="1118" cy="364" r="6" class="c0"/>
<circle cx="1132" cy="678" r="6" class="c0"/>
<circle cx="1014" cy="428" r="6" class="c0"/>
<circle cx="962" cy="126" r="6" class="c0"/>
<circle cx="1074" cy="420" r="6" class="c0"/>
<circle cx="1184" cy="446" r="6" class="c0"/>
<circle cx="1102" cy="932" r="6" class="c0"/>
<circle cx="742" cy="750" r="6" class="c0"/>
<circle cx="1314" cy="120" r="6" class="c0"/>
<circle cx="920" cy="546" r="6" class="c0"/>
<circle cx="694" cy="710" r="6" class="c0"/>
<circle cx="1034" cy="354" r="6" class="c0"/>
<circle cx="1100" cy="592" r="6" class="c0"/>
<circle cx="990" cy="752" r="6" class="c0"/>
<circle cx="820" cy="850" r="6" class="c0"/>
<circle cx="1088" cy="120" r="6" class="c0"/>
<circle cx="756" cy="662" r="6" class="c0"/>
<circle cx="1110" cy="42" r="6" class="c0"/>
<circle cx="558" cy="822" r="6" class="c0"/>
<circle cx="1170" cy="216" r="6" class="c0"/>
<circle cx="762" cy="556" r="6" class="c0"/>
<circle cx="1146" cy="116" r="6" class="c0"/>
<circle cx="1192" cy="300" r="6" class="c0"/>
<circle cx="1080" cy="60" r="6" class="c0"/>
<circle cx="1142" cy="456" r="6" class="c0"/>
<circle cx="1140" cy="612" r="6" class="c0"/>
<circle cx="834" cy="24" r="6" class="c0"/>
<circle cx="1246" cy="286" r="6" class="c0"/>
<circle cx="896" cy="722" r="6" class="c0"/>
<circle cx="780" cy="614" r="6" class="c0"/>
<circle cx="1294" cy="264" r="6" class="c0"/>
<circle cx="834" cy="828" r="6" class="c0"/>
<circle cx="1252" cy="272" r="6" class="c0"/>
<circle cx="504" cy="852" r="6" class="c0"/>
<circle cx="1094" cy="176" r="6" class="c0"/>
<circle cx="970" cy="840" r="6" class="c0"/>
<circle cx="1224" cy="444" r="6" class="c0"/>
<circle cx="930" cy="316" r="6" class="c0"/>
<circle cx="940" cy="324" r="6" class="c0"/>
<circle cx="1076" cy="382" r="6" class="c0"/>
<circle cx="1352" cy="144" r="6" class="c0"/>
<circle cx="1052" cy="210" r="6" class="c0"/>
<circle cx="1160" cy="350" r="6" class="c0"/>
<circle cx="1194" cy="940" r="6" class="c0"/>
<circle cx="1038" cy="74" r="6" class="c0"/>
<circle cx="1124" cy="614" r="6" class="c0"/>
<circle cx="940" cy="456" r="6" class="c0"/>
<circle cx="702" cy="620" r="6" class="c0"/>
<circle cx="1254" cy="356" r="6" class="c0"/>
<circle cx="1038" cy="320" r="6" class="c0"/>
<circle cx="1086" cy="244" r="6" class="c0"/>
<circle cx="1118" cy="228" r="6" class="c0"/>
<circle cx="1058" cy="476" r="6" class="c0"/>
</svg>
