<?xml version="1.0" encoding="utf-8"?>
<svg xmlns="http://www.w3.org/2000/svg"
     xmlns:xlink="http://www.w3.org/1999/xlink" width="1920" height="1440" >

            <defs>
            <style type="text/css"><![CDATA[
circle {stroke: none;}
.c0 {fill: #FFFFFF;}
]]></style>
            </defs>
<rect x="0" y="0" width="1920" height="1440" fill="black"/>
<circle cx="984" cy="488" r="12" class="c0"/>
<circle cx="696" cy="704" r="12" class="c0"/>
<circle cx="920" cy="456" r="12" class="c0"/>
<circle cx="1000" cy="624" r="12" class="c0"/>
<circle cx="1318" cy="698" r="12" class="c0"/>
<circle cx="1022" cy="716" r="12" class="c0"/>
<circle cx="1006" cy="654" r="12" class="c0"/>
<circle cx="996" cy="742" r="12" class="c0"/>
<circle cx="1010" cy="552" r="12" class="c0"/>
<circle cx="894" cy="404" r="12" class="c0"/>
<circle cx="858" cy="426" r="12" class="c0"/>
<circle cx="1316" cy="736" r="12" class="c0"/>
<circle cx="1282" cy="722" r="12" class="c0"/>
<circle cx="1058" cy="502" r="12" class="c0"/>
<circle cx="1216" cy="714" r="12" class="c0"/>
<circle cx="1070" cy="744" r="12" class="c0"/>
<circle cx="1112" cy="692" r="12" class="c0"/>
<circle cx="642" cy="718" r="12" class="c0"/>
<circle cx="1350" cy="720" r="12" class="c0"/>
<circle cx="1260" cy="762" r="12" class="c0"/>
<circle cx="1092" cy="708" r="12" class="c0"/>
<circle cx="968" cy="716" r="12" class="c0"/>
<circle cx="1440" cy="754" r="12" class="c0"/>
<circle cx="1022" cy="598" r="12" class="c0"/>
<circle cx="1072" cy="594" r="10" class="c0"/>
<circle cx="1048" cy="660" r="10" class="c0"/>
<circle cx="918" cy="548" r="10" class="c0"/>
<circle cx="734" cy="712" r="10" class="c0"/>
<circle cx="1092" cy="524" r="10" class="c0"/>
<circle cx="1034" cy="394" r="10" class="c0"/>
<circle cx="982" cy="434" r="10" class="c0"/>
<circle cx="954" cy="746" r="10" class="c0"/>
<circle cx="902" cy="514" r="10" class="c0"/>
<circle cx="992" cy="416" r="10" class="c0"/>
<circle cx="1154" cy="730" r="10" class="c0"/>
<circle cx="1180" cy="680" r="10" class="c0"/>
<circle cx="1376" cy="720" r="10" class="c0"/>
<circle cx="1178" cy="736" r="10" class="c0"/>
<circle cx="902" cy="690" r="10" class="c0"/>
<circle cx="990" cy="592" r="10" class="c0"/>
<circle cx="1284" cy="676" r="10" class="c0"/>
<circle cx="958" cy="438" r="10" class="c0"/>
<circle cx="1096" cy="580" r="10" class="c0"/>
<circle cx="582" cy="696" r="10" class="c0"/>
<circle cx="1136" cy="714" r="10" class="c0"/>
<circle cx="808" cy="712" r="10" class="c0"/>
<circle cx="1112" cy="514" r="10" class="c0"/>
<circle cx="942" cy="422" r="10" class="c0"/>
<circle cx="998" cy="458" r="10" class="c0"/>
<circle cx="956" cy="562" r="10" class="c0"/>
<circle cx="928" cy="572" r="10" class="c0"/>
<circle cx="1164" cy="654" r="10" class="c0"/>
<circle cx="916" cy="714" r="10" class="c0"/>
<circle cx="1322" cy="674" r="10" class="c0"/>
<circle cx="1086" cy="606" r="10" class="c0"/>
<circle cx="1380" cy="788" r="10" class="c0"/>
<circle cx="626" cy="700" r="10" class="c0"/>
<circle cx="1050" cy="702" r="10" class="c0"/>
<circle cx="1348" cy="760" r="10" class="c0"/>
<circle cx="1158" cy="702" r="10" class="c0"/>
<circle cx="954" cy="694" r="10" class="c0"/>
<circle cx="946" cy="586" r="10" class="c0"/>
<circle cx="1066" cy="716" r="10" class="c0"/>
<circle cx="1038" cy="680" r="10" class="c0"/>
<circle cx="1048" cy="614" r="10" class="c0"/>
<circle cx="1172" cy="758" r="10" class="c0"/>
<circle cx="1204" cy="750" r="10" class="c0"/>
<circle cx="1088" cy="638" r="10" class="c0"/>
<circle cx="966" cy="474" r="10" class="c0"/>
<circle cx="1074" cy="674" r="10" class="c0"/>
<circle cx="1318" cy="776" r="10" class="c0"/>
<circle cx="1404" cy="746" r="10" class="c0"/>
<circle cx="1226" cy="748" r="10" class="c0"/>
<circle cx="988" cy="374" r="10" class="c0"/>
<circle cx="1206" cy="678" r="10" class="c0"/>
<circle cx="1006" cy="390" r="10" class="c0"/>
<circle cx="770" cy="712" r="10" class="c0"/>
<circle cx="664" cy="710" r="10" class="c0"/>
<circle cx="890" cy="440" r="10" class="c0"/>
<circle cx="1020" cy="512" r="10" class="c0"/>
<circle cx="934" cy="476" r="10" class="c0"/>
<circle cx="920" cy="420" r="10" class="c0"/>
<circle cx="1102" cy="662" r="10" class="c0"/>
<circle cx="1236" cy="770" r="10" class="c0"/>
<circle cx="1262" cy="696" r="10" class="c0"/>
<circle cx="1414" cy="770" r="10" class="c0"/>
<circle cx="1372" cy="674" r="10" class="c0"/>
<circle cx="986" cy="704" r="10" class="c0"/>
<circle cx="998" cy="508" r="10" class="c0"/>
<circle cx="1044" cy="530" r="8" class="c0"/>
<circle cx="1020" cy="478" r="8" class="c0"/>
<circle cx="1082" cy="776" r="8" class="c0"/>
<circle cx="1180" cy="710" r="8" class="c0"/>
<circle cx="980" cy="678" r="8" class="c0"/>
<circle cx="1364" cy="700" r="8" class="c0"/>
<circle cx="1278" cy="752" r="8" class="c0"/>
<circle cx="1248" cy="740" r="8" class="c0"/>
<circle cx="1278" cy="778" r="8" class="c0"/>
<circle cx="1394" cy="710" r="8" class="c0"/>
<circle cx="1326" cy="754" r="8" class="c0"/>
<circle cx="878" cy="514" r="8" class="c0"/>
<circle cx="1066" cy="788" r="8" class="c0"/>
<circle cx="1106" cy="746" r="8" class="c0"/>
<circle cx="720" cy="730" r="8" class="c0"/>
<circle cx="1018" cy="674" r="8" class="c0"/>
<circle cx="934" cy="618" r="8" class="c0"/>
<circle cx="1038" cy="470" r="8" class="c0"/>
<circle cx="1300" cy="666" r="8" class="c0"/>
<circle cx="1048" cy="732" r="8" class="c0"/>
<circle cx="1242" cy="684" r="8" class="c0"/>
<circle cx="1020" cy="574" r="8" class="c0"/>
<circle cx="1074" cy="534" r="8" class="c0"/>
<circle cx="872" cy="372" r="8" class="c0"/>
<circle cx="1120" cy="540" r="8" class="c0"/>
<circle cx="1244" cy="712" r="8" class="c0"/>
<circle cx="1018" cy="634" r="8" class="c0"/>
<circle cx="1088" cy="802" r="8" class="c0"/>
<circle cx="908" cy="670" r="8" class="c0"/>
<circle cx="1294" cy="700" r="8" class="c0"/>
<circle cx="1052" cy="480" r="8" class="c0"/>
<circle cx="1124" cy="734" r="8" class="c0"/>
<circle cx="1144" cy="650" r="8" class="c0"/>
<circle cx="1072" cy="480" r="8" class="c0"/>
<circle cx="1224" cy="686" r="8" class="c0"/>
<circle cx="1348" cy="678" r="8" class="c0"/>
<circle cx="1428" cy="734" r="8" class="c0"/>
<circle cx="886" cy="724" r="8" class="c0"/>
<circle cx="870" cy="404" r="8" class="c0"/>
<circle cx="920" cy="756" r="8" class="c0"/>
<circle cx="1388" cy="770" r="8" class="c0"/>
<circle cx="1024" cy="750" r="8" class="c0"/>
<circle cx="1300" cy="764" r="8" class="c0"/>
<circle cx="1368" cy="770" r="8" class="c0"/>
<circle cx="1034" cy="626" r="8" class="c0"/>
<circle cx="1044" cy="778" r="8" class="c0"/>
<circle cx="838" cy="410" r="8" class="c0"/>
<circle cx="1196" cy="700" r="8" class="c0"/>
<circle cx="1190" cy="650" r="8" class="c0"/>
<circle cx="978" cy="556" r="8" class="c0"/>
<circle cx="1048" cy="814" r="8" class="c0"/>
<circle cx="1058" cy="408" r="8" class="c0"/>
<circle cx="1076" cy="514" r="8" class="c0"/>
<circle cx="884" cy="706" r="8" class="c0"/>
<circle cx="976" cy="576" r="8" class="c0"/>
<circle cx="1092" cy="734" r="8" class="c0"/>
<circle cx="980" cy="520" r="8" class="c0"/>
<circle cx="1350" cy="792" r="8" class="c0"/>
<circle cx="1114" cy="634" r="8" class="c0"/>
<circle cx="916" cy="654" r="8" class="c0"/>
<circle cx="960" cy="394" r="8" class="c0"/>
<circle cx="978" cy="390" r="8" class="c0"/>
<circle cx="936" cy="720" r="8" class="c0"/>
<circle cx="1064" cy="524" r="8" class="c0"/>
<circle cx="1374" cy="750" r="8" class="c0"/>
<circle cx="844" cy="716" r="8" class="c0"/>
<circle cx="994" cy="564" r="8" class="c0"/>
<circle cx="1400" cy="784" r="8" class="c0"/>
<circle cx="1156" cy="678" r="8" class="c0"/>
<circle cx="1330" cy="798" r="8" class="c0"/>
<circle cx="754" cy="740" r="8" class="c0"/>
<circle cx="926" cy="640" r="8" class="c0"/>
<circle cx="1408" cy="724" r="8" class="c0"/>
<circle cx="962" cy="374" r="8" class="c0"/>
<circle cx="1110" cy="724" r="8" class="c0"/>
<circle cx="966" cy="508" r="8" class="c0"/>
<circle cx="1064" cy="644" r="8" class="c0"/>
<circle cx="1338" cy="778" r="8" class="c0"/>
<circle cx="600" cy="686" r="8" class="c0"/>
<circle cx="1068" cy="624" r="8" class="c0"/>
<circle cx="972" cy="418" r="8" class="c0"/>
<circle cx="976" cy="606" r="8" class="c0"/>
<circle cx="1006" cy="436" r="8" class="c0"/>
<circle cx="930" cy="740" r="8" class="c0"/>
<circle cx="556" cy="686" r="8" class="c0"/>
<circle cx="1048" cy="752" r="8" class="c0"/>
<circle cx="648" cy="690" r="8" class="c0"/>
<circle cx="1362" cy="738" r="8" class="c0"/>
<circle cx="1388" cy="732" r="8" class="c0"/>
<circle cx="1008" cy="694" r="8" class="c0"/>
<circle cx="934" cy="398" r="8" class="c0"/>
<circle cx="1034" cy="488" r="8" class="c0"/>
<circle cx="884" cy="384" r="8" class="c0"/>
<circle cx="966" cy="542" r="8" class="c0"/>
<circle cx="1056" cy="542" r="8" class="c0"/>
<circle cx="948" cy="494" r="8" class="c0"/>
<circle cx="948" cy="458" r="8" class="c0"/>
<circle cx="1134" cy="746" r="8" class="c0"/>
<circle cx="1260" cy="674" r="8" class="c0"/>
<circle cx="1196" cy="724" r="8" class="c0"/>
<circle cx="930" cy="596" r="8" class="c0"/>
<circle cx="1138" cy="688" r="8" class="c0"/>
<circle cx="984" cy="538" r="8" class="c0"/>
<circle cx="750" cy="722" r="8" class="c0"/>
<circle cx="1084" cy="498" r="8" class="c0"/>
<circle cx="1384" cy="690" r="8" class="c0"/>
<circle cx="1028" cy="664" r="8" class="c0"/>
<circle cx="1126" cy="674" r="8" class="c0"/>
<circle cx="1200" cy="772" r="8" class="c0"/>
<circle cx="1090" cy="756" r="8" class="c0"/>
<circle cx="1338" cy="742" r="8" class="c0"/>
<circle cx="880" cy="424" r="8" class="c0"/>
<circle cx="1008" cy="526" r="8" class="c0"/>
<circle cx="870" cy="716" r="8" class="c0"/>
<circle cx="1364" cy="804" r="8" class="c0"/>
<circle cx="774" cy="748" r="8" class="c0"/>
<circle cx="720" cy="698" r="8" class="c0"/>
<circle cx="1268" cy="740" r="8" class="c0"/>
<circle cx="1026" cy="532" r="8" class="c0"/>
<circle cx="1032" cy="644" r="8" class="c0"/>
<circle cx="1008" cy="488" r="8" class="c0"/>
<circle cx="1342" cy="700" r="8" class="c0"/>
<circle cx="1238" cy="730" r="8" class="c0"/>
<circle cx="1018" cy="454" r="8" class="c0"/>
<circle cx="682" cy="718" r="8" class="c0"/>
<circle cx="982" cy="658" r="8" class="c0"/>
<circle cx="1036" cy="546" r="8" class="c0"/>
<circle cx="862" cy="360" r="8" class="c0"/>
<circle cx="972" cy="454" r="8" class="c0"/>
<circle cx="752" cy="702" r="8" class="c0"/>
<circle cx="1094" cy="682" r="8" class="c0"/>
<circle cx="1102" cy="618" r="8" class="c0"/>
<circle cx="944" cy="608" r="8" class="c0"/>
<circle cx="1302" cy="790" r="8" class="c0"/>
<circle cx="1052" cy="634" r="8" class="c0"/>
<circle cx="1018" cy="378" r="8" class="c0"/>
<circle cx="678" cy="694" r="8" class="c0"/>
<circle cx="998" cy="674" r="8" class="c0"/>
<circle cx="976" cy="752" r="8" class="c0"/>
<circle cx="888" cy="526" r="8" class="c0"/>
<circle cx="1064" cy="770" r="8" class="c0"/>
<circle cx="890" cy="500" r="8" class="c0"/>
<circle cx="828" cy="708" r="8" class="c0"/>
<circle cx="1018" cy="404" r="8" class="c0"/>
<circle cx="1070" cy="694" r="8" class="c0"/>
<circle cx="1328" cy="716" r="6" class="c0"/>
<circle cx="1216" cy="764" r="6" class="c0"/>
<circle cx="966" cy="590" r="6" class="c0"/>
<circle cx="1304" cy="722" r="6" class="c0"/>
<circle cx="950" cy="728" r="6" class="c0"/>
<circle cx="908" cy="532" r="6" class="c0"/>
<circle cx="900" cy="424" r="6" class="c0"/>
<circle cx="932" cy="438" r="6" class="c0"/>
<circle cx="702" cy="724" r="6" class="c0"/>
<circle cx="996" cy="720" r="6" class="c0"/>
<circle cx="1294" cy="738" r="6" class="c0"/>
<circle cx="1152" cy="754" r="6" class="c0"/>
<circle cx="1088" cy="544" r="6" class="c0"/>
<circle cx="1302" cy="684" r="6" class="c0"/>
<circle cx="788" cy="716" r="6" class="c0"/>
<circle cx="914" cy="736" r="6" class="c0"/>
<circle cx="1044" cy="796" r="6" class="c0"/>
<circle cx="1058" cy="802" r="6" class="c0"/>
<circle cx="1080" cy="656" r="6" class="c0"/>
<circle cx="1428" cy="780" r="6" class="c0"/>
<circle cx="1028" cy="560" r="6" class="c0"/>
<circle cx="1058" cy="682" r="6" class="c0"/>
<circle cx="1302" cy="748" r="6" class="c0"/>
<circle cx="1132" cy="636" r="6" class="c0"/>
<circle cx="946" cy="546" r="6" class="c0"/>
<circle cx="938" cy="760" r="6" class="c0"/>
<circle cx="992" cy="642" r="6" class="c0"/>
<circle cx="980" cy="730" r="6" class="c0"/>
<circle cx="1002" cy="604" r="6" class="c0"/>
<circle cx="912" cy="438" r="6" class="c0"/>
<circle cx="948" cy="384" r="6" class="c0"/>
<circle cx="1104" cy="542" r="6" class="c0"/>
<circle cx="960" cy="526" r="6" class="c0"/>
<circle cx="862" cy="382" r="6" class="c0"/>
<circle cx="1154" cy="640" r="6" class="c0"/>
<circle cx="872" cy="438" r="6" class="c0"/>
<circle cx="952" cy="408" r="6" class="c0"/>
<circle cx="1258" cy="724" r="6" class="c0"/>
<circle cx="1060" cy="466" r="6" class="c0"/>
<circle cx="1070" cy="418" r="6" class="c0"/>
<circle cx="1124" cy="644" r="6" class="c0"/>
<circle cx="784" cy="702" r="6" class="c0"/>
<circle cx="1034" cy="582" r="6" class="c0"/>
<circle cx="1104" cy="598" r="6" class="c0"/>
<circle cx="1214" cy="736" r="6" class="c0"/>
<circle cx="602" cy="702" r="6" class="c0"/>
<circle cx="982" cy="466" r="6" class="c0"/>
<circle cx="964" cy="492" r="6" class="c0"/>
<circle cx="1032" cy="698" r="6" class="c0"/>
<circle cx="738" cy="734" r="6" class="c0"/>
<circle cx="1132" cy="528" r="6" class="c0"/>
<circle cx="1190" cy="762" r="6" class="c0"/>
<circle cx="1338" cy="666" r="6" class="c0"/>
<circle cx="1262" cy="782" r="6" class="c0"/>
<circle cx="1042" cy="512" r="6" class="c0"/>
<circle cx="898" cy="456" r="6" class="c0"/>
<circle cx="1006" cy="582" r="6" class="c0"/>
<circle cx="1334" cy="686" r="6" class="c0"/>
<circle cx="1038" cy="762" r="6" class="c0"/>
<circle cx="1014" cy="734" r="6" class="c0"/>
<circle cx="1048" cy="460" r="6" class="c0"/>
<circle cx="1078" cy="552" r="6" class="c0"/>
<circle cx="1034" cy="740" r="6" class="c0"/>
<circle cx="710" cy="716" r="6" class="c0"/>
<circle cx="1442" cy="778" r="6" class="c0"/>
<circle cx="1220" cy="778" r="6" class="c0"/>
<circle cx="1012" cy="420" r="6" class="c0"/>
<circle cx="1166" cy="718" r="6" class="c0"/>
<circle cx="972" cy="692" r="6" class="c0"/>
<circle cx="618" cy="684" r="6" class="c0"/>
<circle cx="1234" cy="698" r="6" class="c0"/>
<circle cx="572" cy="680" r="6" class="c0"/>
<circle cx="1208" cy="648" r="6" class="c0"/>
<circle cx="1020" cy="618" r="6" class="c0"/>
<circle cx="904" cy="728" r="6" class="c0"/>
<circle cx="1024" cy="690" r="6" class="c0"/>
<circle cx="958" cy="598" r="6" class="c0"/>
<circle cx="900" cy="378" r="6" class="c0"/>
<circle cx="1386" cy="806" r="6" class="c0"/>
<circle cx="1418" cy="714" r="6" class="c0"/>
<circle cx="1192" cy="666" r="6" class="c0"/>
<circle cx="1120" cy="754" r="6" class="c0"/>
<circle cx="854" cy="406" r="6" class="c0"/>
<circle cx="938" cy="558" r="6" class="c0"/>
<circle cx="1092" cy="786" r="6" class="c0"/>
<circle cx="946" cy="710" r="6" class="c0"/>
<circle cx="790" cy="750" r="6" class="c0"/>
<circle cx="1042" cy="596" r="6" class="c0"/>
<circle cx="1082" cy="724" r="6" class="c0"/>
</svg>
