<?xml version="1.0" encoding="utf-8"?>
<svg xmlns="http://www.w3.org/2000/svg"
     xmlns:xlink="http://www.w3.org/1999/xlink" width="1920" height="1440" >

            <defs>
            <style type="text/css"><![CDATA[
circle {stroke: none;}
.c0 {fill: #FFFFFF;}
]]></style>
            </defs>
<rect x="0" y="0" width="1920" height="1440" fill="black"/>
<circle cx="990" cy="434" r="12" class="c0"/>
<circle cx="1262" cy="758" r="12" class="c0"/>
<circle cx="962" cy="592" r="12" class="c0"/>
<circle cx="714" cy="706" r="12" class="c0"/>
<circle cx="1034" cy="596" r="12" class="c0"/>
<circle cx="1298" cy="694" r="12" class="c0"/>
<circle cx="1388" cy="686" r="12" class="c0"/>
<circle cx="1112" cy="714" r="12" class="c0"/>
<circle cx="1006" cy="744" r="12" class="c0"/>
<circle cx="894" cy="708" r="12" class="c0"/>
<circle cx="1086" cy="724" r="12" class="c0"/>
<circle cx="936" cy="454" r="12" class="c0"/>
<circle cx="1374" cy="738" r="12" class="c0"/>
<circle cx="1062" cy="528" r="12" class="c0"/>
<circle cx="1036" cy="668" r="12" class="c0"/>
<circle cx="942" cy="742" r="12" class="c0"/>
<circle cx="1198" cy="754" r="10" class="c0"/>
<circle cx="1306" cy="746" r="10" class="c0"/>
<circle cx="1434" cy="744" r="10" class="c0"/>
<circle cx="1318" cy="708" r="10" class="c0"/>
<circle cx="832" cy="714" r="10" class="c0"/>
<circle cx="1046" cy="756" r="10" class="c0"/>
<circle cx="916" cy="420" r="10" class="c0"/>
<circle cx="1162" cy="726" r="10" class="c0"/>
<circle cx="1008" cy="486" r="10" class="c0"/>
<circle cx="1342" cy="674" r="10" class="c0"/>
<circle cx="912" cy="672" r="10" class="c0"/>
<circle cx="1126" cy="518" r="10" class="c0"/>
<circle cx="974" cy="540" r="10" class="c0"/>
<circle cx="1140" cy="650" r="10" class="c0"/>
<circle cx="1054" cy="686" r="10" class="c0"/>
<circle cx="986" cy="562" r="10" class="c0"/>
<circle cx="1004" cy="666" r="10" class="c0"/>
<circle cx="1036" cy="472" r="10" class="c0"/>
<circle cx="982" cy="468" r="10" class="c0"/>
<circle cx="966" cy="718" r="10" class="c0"/>
<circle cx="1292" cy="768" r="10" class="c0"/>
<circle cx="1228" cy="678" r="10" class="c0"/>
<circle cx="1410" cy="746" r="10" class="c0"/>
<circle cx="996" cy="374" r="10" class="c0"/>
<circle cx="970" cy="744" r="10" class="c0"/>
<circle cx="1336" cy="748" r="10" class="c0"/>
<circle cx="880" cy="414" r="10" class="c0"/>
<circle cx="1018" cy="646" r="10" class="c0"/>
<circle cx="1080" cy="676" r="10" class="c0"/>
<circle cx="1010" cy="570" r="10" class="c0"/>
<circle cx="1040" cy="392" r="10" class="c0"/>
<circle cx="1026" cy="506" r="10" class="c0"/>
<circle cx="992" cy="716" r="10" class="c0"/>
<circle cx="942" cy="608" r="10" class="c0"/>
<circle cx="974" cy="504" r="10" class="c0"/>
<circle cx="962" cy="404" r="10" class="c0"/>
<circle cx="942" cy="484" r="10" class="c0"/>
<circle cx="1362" cy="798" r="10" class="c0"/>
<circle cx="1096" cy="690" r="10" class="c0"/>
<circle cx="632" cy="704" r="10" class="c0"/>
<circle cx="736" cy="724" r="10" class="c0"/>
<circle cx="1180" cy="704" r="10" class="c0"/>
<circle cx="1238" cy="720" r="10" class="c0"/>
<circle cx="1358" cy="722" r="10" class="c0"/>
<circle cx="1238" cy="696" r="10" class="c0"/>
<circle cx="994" cy="526" r="10" class="c0"/>
<circle cx="1028" cy="528" r="10" class="c0"/>
<circle cx="1100" cy="626" r="10" class="c0"/>
<circle cx="1362" cy="700" r="10" class="c0"/>
<circle cx="1276" cy="738" r="10" class="c0"/>
<circle cx="1352" cy="770" r="10" class="c0"/>
<circle cx="1078" cy="644" r="10" class="c0"/>
<circle cx="1178" cy="680" r="10" class="c0"/>
<circle cx="850" cy="412" r="10" class="c0"/>
<circle cx="1060" cy="470" r="10" class="c0"/>
<circle cx="688" cy="696" r="10" class="c0"/>
<circle cx="1130" cy="670" r="10" class="c0"/>
<circle cx="976" cy="416" r="10" class="c0"/>
<circle cx="1198" cy="730" r="10" class="c0"/>
<circle cx="1012" cy="408" r="10" class="c0"/>
<circle cx="1148" cy="688" r="10" class="c0"/>
<circle cx="924" cy="720" r="10" class="c0"/>
<circle cx="1382" cy="766" r="10" class="c0"/>
<circle cx="870" cy="362" r="10" class="c0"/>
<circle cx="756" cy="720" r="8" class="c0"/>
<circle cx="1052" cy="796" r="8" class="c0"/>
<circle cx="768" cy="700" r="8" class="c0"/>
<circle cx="948" cy="422" r="8" class="c0"/>
<circle cx="656" cy="694" r="8" class="c0"/>
<circle cx="980" cy="394" r="8" class="c0"/>
<circle cx="956" cy="698" r="8" class="c0"/>
<circle cx="876" cy="718" r="8" class="c0"/>
<circle cx="1012" cy="692" r="8" class="c0"/>
<circle cx="1398" cy="728" r="8" class="c0"/>
<circle cx="1322" cy="732" r="8" class="c0"/>
<circle cx="984" cy="680" r="8" class="c0"/>
<circle cx="1320" cy="668" r="8" class="c0"/>
<circle cx="1078" cy="482" r="8" class="c0"/>
<circle cx="1252" cy="738" r="8" class="c0"/>
<circle cx="1240" cy="772" r="8" class="c0"/>
<circle cx="1320" cy="774" r="8" class="c0"/>
<circle cx="1044" cy="616" r="8" class="c0"/>
<circle cx="1068" cy="744" r="8" class="c0"/>
<circle cx="946" cy="578" r="8" class="c0"/>
<circle cx="998" cy="624" r="8" class="c0"/>
<circle cx="806" cy="708" r="8" class="c0"/>
<circle cx="788" cy="704" r="8" class="c0"/>
<circle cx="1110" cy="658" r="8" class="c0"/>
<circle cx="900" cy="522" r="8" class="c0"/>
<circle cx="1050" cy="634" r="8" class="c0"/>
<circle cx="1084" cy="514" r="8" class="c0"/>
<circle cx="650" cy="714" r="8" class="c0"/>
<circle cx="1088" cy="786" r="8" class="c0"/>
<circle cx="570" cy="696" r="8" class="c0"/>
<circle cx="1102" cy="506" r="8" class="c0"/>
<circle cx="1136" cy="708" r="8" class="c0"/>
<circle cx="1032" cy="736" r="8" class="c0"/>
<circle cx="1224" cy="732" r="8" class="c0"/>
<circle cx="1080" cy="702" r="8" class="c0"/>
<circle cx="966" cy="564" r="8" class="c0"/>
<circle cx="1018" cy="612" r="8" class="c0"/>
<circle cx="988" cy="600" r="8" class="c0"/>
<circle cx="1250" cy="708" r="8" class="c0"/>
<circle cx="1380" cy="716" r="8" class="c0"/>
<circle cx="930" cy="560" r="8" class="c0"/>
<circle cx="1136" cy="736" r="8" class="c0"/>
<circle cx="1302" cy="666" r="8" class="c0"/>
<circle cx="986" cy="654" r="8" class="c0"/>
<circle cx="1090" cy="750" r="8" class="c0"/>
<circle cx="1016" cy="724" r="8" class="c0"/>
<circle cx="1274" cy="684" r="8" class="c0"/>
<circle cx="1178" cy="750" r="8" class="c0"/>
<circle cx="956" cy="496" r="8" class="c0"/>
<circle cx="892" cy="434" r="8" class="c0"/>
<circle cx="1398" cy="704" r="8" class="c0"/>
<circle cx="1416" cy="724" r="8" class="c0"/>
<circle cx="954" cy="384" r="8" class="c0"/>
<circle cx="1048" cy="652" r="8" class="c0"/>
<circle cx="1092" cy="580" r="8" class="c0"/>
<circle cx="1208" cy="668" r="8" class="c0"/>
<circle cx="1092" cy="600" r="8" class="c0"/>
<circle cx="1046" cy="712" r="8" class="c0"/>
<circle cx="1410" cy="768" r="8" class="c0"/>
<circle cx="1220" cy="710" r="8" class="c0"/>
<circle cx="1228" cy="760" r="8" class="c0"/>
<circle cx="972" cy="690" r="8" class="c0"/>
<circle cx="1210" cy="698" r="8" class="c0"/>
<circle cx="1172" cy="660" r="8" class="c0"/>
<circle cx="590" cy="698" r="8" class="c0"/>
<circle cx="614" cy="692" r="8" class="c0"/>
<circle cx="1126" cy="694" r="8" class="c0"/>
<circle cx="1304" cy="720" r="8" class="c0"/>
<circle cx="1028" cy="626" r="8" class="c0"/>
<circle cx="1080" cy="622" r="8" class="c0"/>
<circle cx="1278" cy="704" r="8" class="c0"/>
<circle cx="1064" cy="596" r="8" class="c0"/>
<circle cx="940" cy="400" r="8" class="c0"/>
<circle cx="1066" cy="502" r="8" class="c0"/>
<circle cx="1120" cy="640" r="8" class="c0"/>
<circle cx="1112" cy="744" r="8" class="c0"/>
<circle cx="1256" cy="686" r="8" class="c0"/>
<circle cx="968" cy="440" r="8" class="c0"/>
<circle cx="1022" cy="548" r="8" class="c0"/>
<circle cx="1322" cy="686" r="8" class="c0"/>
<circle cx="928" cy="648" r="8" class="c0"/>
<circle cx="1014" cy="448" r="8" class="c0"/>
<circle cx="680" cy="714" r="8" class="c0"/>
<circle cx="1162" cy="644" r="8" class="c0"/>
<circle cx="1000" cy="590" r="8" class="c0"/>
<circle cx="1066" cy="662" r="8" class="c0"/>
<circle cx="1108" cy="532" r="8" class="c0"/>
<circle cx="1338" cy="794" r="8" class="c0"/>
<circle cx="956" cy="552" r="8" class="c0"/>
<circle cx="1294" cy="730" r="8" class="c0"/>
<circle cx="996" cy="506" r="8" class="c0"/>
<circle cx="560" cy="680" r="8" class="c0"/>
<circle cx="1266" cy="722" r="8" class="c0"/>
<circle cx="1338" cy="694" r="8" class="c0"/>
<circle cx="1048" cy="494" r="8" class="c0"/>
<circle cx="920" cy="540" r="8" class="c0"/>
<circle cx="940" cy="710" r="8" class="c0"/>
<circle cx="880" cy="388" r="8" class="c0"/>
<circle cx="1182" cy="644" r="8" class="c0"/>
<circle cx="1370" cy="778" r="8" class="c0"/>
<circle cx="750" cy="698" r="8" class="c0"/>
<circle cx="936" cy="630" r="8" class="c0"/>
<circle cx="964" cy="522" r="8" class="c0"/>
<circle cx="1082" cy="540" r="8" class="c0"/>
<circle cx="916" cy="700" r="8" class="c0"/>
<circle cx="1050" cy="778" r="8" class="c0"/>
<circle cx="966" cy="482" r="8" class="c0"/>
<circle cx="1238" cy="748" r="8" class="c0"/>
<circle cx="1430" cy="766" r="8" class="c0"/>
<circle cx="1062" cy="704" r="8" class="c0"/>
<circle cx="900" cy="502" r="8" class="c0"/>
<circle cx="1212" cy="768" r="8" class="c0"/>
<circle cx="1058" cy="400" r="8" class="c0"/>
<circle cx="930" cy="588" r="8" class="c0"/>
<circle cx="886" cy="512" r="8" class="c0"/>
<circle cx="1018" cy="374" r="8" class="c0"/>
<circle cx="1092" cy="664" r="8" class="c0"/>
<circle cx="1394" cy="778" r="8" class="c0"/>
<circle cx="1072" cy="798" r="8" class="c0"/>
<circle cx="1060" cy="768" r="8" class="c0"/>
<circle cx="1062" cy="624" r="8" class="c0"/>
<circle cx="998" cy="458" r="8" class="c0"/>
<circle cx="1200" cy="684" r="8" class="c0"/>
<circle cx="1308" cy="784" r="8" class="c0"/>
<circle cx="1004" cy="542" r="8" class="c0"/>
<circle cx="1388" cy="798" r="8" class="c0"/>
<circle cx="1050" cy="730" r="8" class="c0"/>
<circle cx="1100" cy="648" r="8" class="c0"/>
<circle cx="640" cy="686" r="8" class="c0"/>
<circle cx="1032" cy="452" r="8" class="c0"/>
<circle cx="986" cy="492" r="8" class="c0"/>
<circle cx="904" cy="408" r="8" class="c0"/>
<circle cx="922" cy="440" r="8" class="c0"/>
<circle cx="1190" cy="666" r="8" class="c0"/>
<circle cx="786" cy="746" r="8" class="c0"/>
<circle cx="1108" cy="590" r="8" class="c0"/>
<circle cx="1044" cy="518" r="8" class="c0"/>
<circle cx="1338" cy="724" r="8" class="c0"/>
<circle cx="1378" cy="808" r="8" class="c0"/>
<circle cx="1070" cy="780" r="8" class="c0"/>
<circle cx="968" cy="372" r="8" class="c0"/>
<circle cx="1206" cy="644" r="8" class="c0"/>
<circle cx="1370" cy="670" r="8" class="c0"/>
<circle cx="1214" cy="744" r="8" class="c0"/>
<circle cx="992" cy="406" r="8" class="c0"/>
<circle cx="888" cy="372" r="8" class="c0"/>
<circle cx="1092" cy="804" r="8" class="c0"/>
<circle cx="762" cy="738" r="8" class="c0"/>
<circle cx="960" cy="462" r="8" class="c0"/>
<circle cx="1078" cy="762" r="8" class="c0"/>
<circle cx="702" cy="720" r="6" class="c0"/>
<circle cx="900" cy="684" r="6" class="c0"/>
<circle cx="1182" cy="766" r="6" class="c0"/>
<circle cx="1080" cy="590" r="6" class="c0"/>
<circle cx="1354" cy="744" r="6" class="c0"/>
<circle cx="918" cy="750" r="6" class="c0"/>
<circle cx="1004" cy="392" r="6" class="c0"/>
<circle cx="624" cy="682" r="6" class="c0"/>
<circle cx="638" cy="724" r="6" class="c0"/>
<circle cx="1128" cy="538" r="6" class="c0"/>
<circle cx="906" cy="724" r="6" class="c0"/>
<circle cx="718" cy="726" r="6" class="c0"/>
<circle cx="1162" cy="702" r="6" class="c0"/>
<circle cx="1158" cy="668" r="6" class="c0"/>
<circle cx="594" cy="682" r="6" class="c0"/>
<circle cx="982" cy="618" r="6" class="c0"/>
<circle cx="1428" cy="786" r="6" class="c0"/>
<circle cx="976" cy="666" r="6" class="c0"/>
<circle cx="836" cy="400" r="6" class="c0"/>
<circle cx="1036" cy="576" r="6" class="c0"/>
<circle cx="922" cy="466" r="6" class="c0"/>
<circle cx="1180" cy="728" r="6" class="c0"/>
<circle cx="1008" cy="516" r="6" class="c0"/>
<circle cx="1018" cy="708" r="6" class="c0"/>
<circle cx="1278" cy="668" r="6" class="c0"/>
<circle cx="1028" cy="700" r="6" class="c0"/>
<circle cx="868" cy="428" r="6" class="c0"/>
<circle cx="1264" cy="666" r="6" class="c0"/>
<circle cx="1160" cy="744" r="6" class="c0"/>
<circle cx="988" cy="580" r="6" class="c0"/>
<circle cx="1392" cy="748" r="6" class="c0"/>
<circle cx="1016" cy="588" r="6" class="c0"/>
<circle cx="1048" cy="458" r="6" class="c0"/>
<circle cx="1106" cy="570" r="6" class="c0"/>
<circle cx="1274" cy="778" r="6" class="c0"/>
<circle cx="1362" cy="754" r="6" class="c0"/>
<circle cx="1112" cy="676" r="6" class="c0"/>
<circle cx="998" cy="642" r="6" class="c0"/>
<circle cx="904" cy="448" r="6" class="c0"/>
<circle cx="1320" cy="794" r="6" class="c0"/>
<circle cx="1022" cy="756" r="6" class="c0"/>
<circle cx="858" cy="716" r="6" class="c0"/>
<circle cx="1102" cy="734" r="6" class="c0"/>
<circle cx="1434" cy="722" r="6" class="c0"/>
<circle cx="1076" cy="410" r="6" class="c0"/>
<circle cx="986" cy="736" r="6" class="c0"/>
<circle cx="1288" cy="714" r="6" class="c0"/>
<circle cx="1248" cy="670" r="6" class="c0"/>
<circle cx="666" cy="706" r="6" class="c0"/>
<circle cx="938" cy="434" r="6" class="c0"/>
<circle cx="850" cy="708" r="6" class="c0"/>
<circle cx="1020" cy="464" r="6" class="c0"/>
<circle cx="1286" cy="786" r="6" class="c0"/>
<circle cx="1046" cy="538" r="6" class="c0"/>
<circle cx="912" cy="456" r="6" class="c0"/>
<circle cx="1198" cy="710" r="6" class="c0"/>
<circle cx="956" cy="754" r="6" class="c0"/>
<circle cx="1088" cy="498" r="6" class="c0"/>
<circle cx="1030" cy="564" r="6" class="c0"/>
<circle cx="1060" cy="720" r="6" class="c0"/>
<circle cx="1070" cy="550" r="6" class="c0"/>
<circle cx="914" cy="734" r="6" class="c0"/>
<circle cx="984" cy="700" r="6" class="c0"/>
<circle cx="952" cy="438" r="6" class="c0"/>
<circle cx="1020" cy="678" r="6" class="c0"/>
<circle cx="1054" cy="606" r="6" class="c0"/>
<circle cx="1012" cy="432" r="6" class="c0"/>
<circle cx="1146" cy="718" r="6" class="c0"/>
<circle cx="732" cy="696" r="6" class="c0"/>
<circle cx="866" cy="704" r="6" class="c0"/>
<circle cx="866" cy="380" r="6" class="c0"/>
<circle cx="1288" cy="750" r="6" class="c0"/>
<circle cx="1030" cy="716" r="6" class="c0"/>
<circle cx="870" cy="400" r="6" class="c0"/>
<circle cx="1050" cy="812" r="6" class="c0"/>
<circle cx="974" cy="608" r="6" class="c0"/>
<circle cx="896" cy="386" r="6" class="c0"/>
<circle cx="1334" cy="766" r="6" class="c0"/>
<circle cx="1440" cy="776" r="6" class="c0"/>
<circle cx="1162" cy="758" r="6" class="c0"/>
<circle cx="994" cy="690" r="6" class="c0"/>
<circle cx="986" cy="754" r="6" class="c0"/>
<circle cx="924" cy="402" r="6" class="c0"/>
<circle cx="1146" cy="748" r="6" class="c0"/>
<circle cx="1346" cy="808" r="6" class="c0"/>
<circle cx="578" cy="680" r="6" class="c0"/>
<circle cx="890" cy="398" r="6" class="c0"/>
<circle cx="928" cy="758" r="6" class="c0"/>
<circle cx="1036" cy="642" r="6" class="c0"/>
<circle cx="1254" cy="780" r="6" class="c0"/>
<circle cx="1130" cy="630" r="6" class="c0"/>
<circle cx="1406" cy="788" r="6" class="c0"/>
<circle cx="1106" cy="608" r="6" class="c0"/>
<circle cx="1288" cy="676" r="6" class="c0"/>
<circle cx="1444" cy="758" r="6" class="c0"/>
<circle cx="1094" cy="524" r="6" class="c0"/>
<circle cx="910" cy="512" r="6" class="c0"/>
<circle cx="1320" cy="756" r="6" class="c0"/>
<circle cx="1154" cy="710" r="6" class="c0"/>
<circle cx="1152" cy="634" r="6" class="c0"/>
<circle cx="1414" cy="708" r="6" class="c0"/>
<circle cx="1420" cy="778" r="6" class="c0"/>
<circle cx="904" cy="376" r="6" class="c0"/>
<circle cx="1076" cy="606" r="6" class="c0"/>
<circle cx="1034" cy="688" r="6" class="c0"/>
<circle cx="1020" cy="392" r="6" class="c0"/>
<circle cx="978" cy="450" r="6" class="c0"/>
<circle cx="1360" cy="680" r="6" class="c0"/>
<circle cx="1118" cy="624" r="6" class="c0"/>
<circle cx="1002" cy="608" r="6" class="c0"/>
<circle cx="884" cy="350" r="6" class="c0"/>
<circle cx="776" cy="716" r="6" class="c0"/>
<circle cx="1028" cy="488" r="6" class="c0"/>
<circle cx="922" cy="574" r="6" class="c0"/>
<circle cx="1346" cy="710" r="6" class="c0"/>
<circle cx="1002" cy="702" r="6" class="c0"/>
<circle cx="1126" cy="726" r="6" class="c0"/>
</svg>
