<?xml version="1.0" encoding="utf-8"?>
<svg xmlns="http://www.w3.org/2000/svg"
     xmlns:xlink="http://www.w3.org/1999/xlink" width="1920" height="1440" >

            <defs>
            <style type="text/css"><![CDATA[
circle {stroke: none;}
.c0 {fill: #FFFFFF;}
]]></style>
            </defs>
<rect x="0" y="0" width="1920" height="1440" fill="black"/>
<circle cx="1388" cy="706" r="14" class="c0"/>
<circle cx="1138" cy="668" r="12" class="c0"/>
<circle cx="1076" cy="724" r="12" class="c0"/>
<circle cx="1060" cy="534" r="12" class="c0"/>
<circle cx="956" cy="494" r="12" class="c0"/>
<circle cx="1042" cy="608" r="12" class="c0"/>
<circle cx="868" cy="366" r="12" class="c0"/>
<circle cx="806" cy="704" r="12" class="c0"/>
<circle cx="1238" cy="756" r="12" class="c0"/>
<circle cx="1030" cy="452" r="12" class="c0"/>
<circle cx="1082" cy="658" r="12" class="c0"/>
<circle cx="1320" cy="744" r="12" class="c0"/>
<circle cx="1046" cy="744" r="12" class="c0"/>
<circle cx="1230" cy="708" r="12" class="c0"/>
<circle cx="1336" cy="776" r="12" class="c0"/>
<circle cx="1210" cy="754" r="12" class="c0"/>
<circle cx="1104" cy="684" r="12" class="c0"/>
<circle cx="1278" cy="698" r="12" class="c0"/>
<circle cx="1344" cy="724" r="12" class="c0"/>
<circle cx="1030" cy="638" r="12" class="c0"/>
<circle cx="1006" cy="620" r="12" class="c0"/>
<circle cx="1318" cy="712" r="12" class="c0"/>
<circle cx="1430" cy="758" r="12" class="c0"/>
<circle cx="992" cy="674" r="12" class="c0"/>
<circle cx="926" cy="552" r="12" class="c0"/>
<circle cx="1110" cy="632" r="10" class="c0"/>
<circle cx="968" cy="534" r="10" class="c0"/>
<circle cx="890" cy="510" r="10" class="c0"/>
<circle cx="1180" cy="750" r="10" class="c0"/>
<circle cx="1274" cy="766" r="10" class="c0"/>
<circle cx="684" cy="702" r="10" class="c0"/>
<circle cx="732" cy="716" r="10" class="c0"/>
<circle cx="980" cy="502" r="10" class="c0"/>
<circle cx="1008" cy="480" r="10" class="c0"/>
<circle cx="1420" cy="724" r="10" class="c0"/>
<circle cx="1108" cy="594" r="10" class="c0"/>
<circle cx="1080" cy="760" r="10" class="c0"/>
<circle cx="830" cy="712" r="10" class="c0"/>
<circle cx="1142" cy="702" r="10" class="c0"/>
<circle cx="892" cy="694" r="10" class="c0"/>
<circle cx="1006" cy="552" r="10" class="c0"/>
<circle cx="1026" cy="582" r="10" class="c0"/>
<circle cx="966" cy="428" r="10" class="c0"/>
<circle cx="1002" cy="516" r="10" class="c0"/>
<circle cx="866" cy="408" r="10" class="c0"/>
<circle cx="1086" cy="784" r="10" class="c0"/>
<circle cx="950" cy="732" r="10" class="c0"/>
<circle cx="992" cy="536" r="10" class="c0"/>
<circle cx="890" cy="434" r="10" class="c0"/>
<circle cx="1158" cy="638" r="10" class="c0"/>
<circle cx="1056" cy="484" r="10" class="c0"/>
<circle cx="1058" cy="688" r="10" class="c0"/>
<circle cx="1116" cy="710" r="10" class="c0"/>
<circle cx="1258" cy="722" r="10" class="c0"/>
<circle cx="572" cy="682" r="10" class="c0"/>
<circle cx="962" cy="386" r="10" class="c0"/>
<circle cx="1298" cy="734" r="10" class="c0"/>
<circle cx="1342" cy="674" r="10" class="c0"/>
<circle cx="948" cy="454" r="10" class="c0"/>
<circle cx="930" cy="406" r="10" class="c0"/>
<circle cx="1366" cy="792" r="10" class="c0"/>
<circle cx="1356" cy="686" r="10" class="c0"/>
<circle cx="1000" cy="590" r="10" class="c0"/>
<circle cx="1040" cy="660" r="10" class="c0"/>
<circle cx="1382" cy="734" r="10" class="c0"/>
<circle cx="1034" cy="480" r="10" class="c0"/>
<circle cx="1198" cy="736" r="10" class="c0"/>
<circle cx="1402" cy="776" r="10" class="c0"/>
<circle cx="1086" cy="508" r="10" class="c0"/>
<circle cx="1312" cy="778" r="10" class="c0"/>
<circle cx="970" cy="682" r="10" class="c0"/>
<circle cx="992" cy="378" r="10" class="c0"/>
<circle cx="704" cy="714" r="10" class="c0"/>
<circle cx="948" cy="576" r="10" class="c0"/>
<circle cx="1124" cy="730" r="10" class="c0"/>
<circle cx="938" cy="618" r="10" class="c0"/>
<circle cx="1162" cy="670" r="10" class="c0"/>
<circle cx="1110" cy="660" r="10" class="c0"/>
<circle cx="1170" cy="692" r="10" class="c0"/>
<circle cx="1018" cy="732" r="10" class="c0"/>
<circle cx="1098" cy="734" r="10" class="c0"/>
<circle cx="1062" cy="774" r="10" class="c0"/>
<circle cx="990" cy="738" r="10" class="c0"/>
<circle cx="1032" cy="690" r="10" class="c0"/>
<circle cx="1148" cy="726" r="10" class="c0"/>
<circle cx="892" cy="396" r="10" class="c0"/>
<circle cx="968" cy="470" r="10" class="c0"/>
<circle cx="1122" cy="512" r="10" class="c0"/>
<circle cx="942" cy="424" r="8" class="c0"/>
<circle cx="896" cy="376" r="8" class="c0"/>
<circle cx="1250" cy="688" r="8" class="c0"/>
<circle cx="756" cy="696" r="8" class="c0"/>
<circle cx="1058" cy="460" r="8" class="c0"/>
<circle cx="976" cy="562" r="8" class="c0"/>
<circle cx="1078" cy="484" r="8" class="c0"/>
<circle cx="1390" cy="756" r="8" class="c0"/>
<circle cx="1184" cy="720" r="8" class="c0"/>
<circle cx="1312" cy="674" r="8" class="c0"/>
<circle cx="906" cy="500" r="8" class="c0"/>
<circle cx="1038" cy="380" r="8" class="c0"/>
<circle cx="1072" cy="700" r="8" class="c0"/>
<circle cx="1012" cy="664" r="8" class="c0"/>
<circle cx="1192" cy="678" r="8" class="c0"/>
<circle cx="1062" cy="650" r="8" class="c0"/>
<circle cx="664" cy="706" r="8" class="c0"/>
<circle cx="912" cy="414" r="8" class="c0"/>
<circle cx="1192" cy="700" r="8" class="c0"/>
<circle cx="864" cy="710" r="8" class="c0"/>
<circle cx="1276" cy="746" r="8" class="c0"/>
<circle cx="966" cy="742" r="8" class="c0"/>
<circle cx="1026" cy="714" r="8" class="c0"/>
<circle cx="1206" cy="710" r="8" class="c0"/>
<circle cx="1368" cy="666" r="8" class="c0"/>
<circle cx="608" cy="696" r="8" class="c0"/>
<circle cx="980" cy="600" r="8" class="c0"/>
<circle cx="964" cy="714" r="8" class="c0"/>
<circle cx="1048" cy="708" r="8" class="c0"/>
<circle cx="1034" cy="534" r="8" class="c0"/>
<circle cx="982" cy="704" r="8" class="c0"/>
<circle cx="992" cy="446" r="8" class="c0"/>
<circle cx="950" cy="600" r="8" class="c0"/>
<circle cx="1294" cy="710" r="8" class="c0"/>
<circle cx="926" cy="708" r="8" class="c0"/>
<circle cx="1006" cy="708" r="8" class="c0"/>
<circle cx="764" cy="732" r="8" class="c0"/>
<circle cx="1176" cy="648" r="8" class="c0"/>
<circle cx="952" cy="546" r="8" class="c0"/>
<circle cx="884" cy="716" r="8" class="c0"/>
<circle cx="1066" cy="670" r="8" class="c0"/>
<circle cx="1064" cy="612" r="8" class="c0"/>
<circle cx="1390" cy="676" r="8" class="c0"/>
<circle cx="1052" cy="512" r="8" class="c0"/>
<circle cx="924" cy="740" r="8" class="c0"/>
<circle cx="1010" cy="646" r="8" class="c0"/>
<circle cx="1012" cy="396" r="8" class="c0"/>
<circle cx="1408" cy="736" r="8" class="c0"/>
<circle cx="1364" cy="750" r="8" class="c0"/>
<circle cx="930" cy="638" r="8" class="c0"/>
<circle cx="1002" cy="414" r="8" class="c0"/>
<circle cx="912" cy="522" r="8" class="c0"/>
<circle cx="906" cy="712" r="8" class="c0"/>
<circle cx="1202" cy="666" r="8" class="c0"/>
<circle cx="1084" cy="536" r="8" class="c0"/>
<circle cx="780" cy="704" r="8" class="c0"/>
<circle cx="1224" cy="684" r="8" class="c0"/>
<circle cx="1016" cy="600" r="8" class="c0"/>
<circle cx="1086" cy="588" r="8" class="c0"/>
<circle cx="1136" cy="634" r="8" class="c0"/>
<circle cx="636" cy="684" r="8" class="c0"/>
<circle cx="632" cy="712" r="8" class="c0"/>
<circle cx="1378" cy="780" r="8" class="c0"/>
<circle cx="846" cy="398" r="8" class="c0"/>
<circle cx="1022" cy="562" r="8" class="c0"/>
<circle cx="908" cy="672" r="8" class="c0"/>
<circle cx="1260" cy="670" r="8" class="c0"/>
<circle cx="1062" cy="796" r="8" class="c0"/>
<circle cx="1352" cy="760" r="8" class="c0"/>
<circle cx="1294" cy="770" r="8" class="c0"/>
<circle cx="992" cy="404" r="8" class="c0"/>
<circle cx="1300" cy="664" r="8" class="c0"/>
<circle cx="1202" cy="690" r="8" class="c0"/>
<circle cx="928" cy="464" r="8" class="c0"/>
<circle cx="1068" cy="496" r="8" class="c0"/>
<circle cx="940" cy="752" r="8" class="c0"/>
<circle cx="990" cy="472" r="8" class="c0"/>
<circle cx="1066" cy="400" r="8" class="c0"/>
<circle cx="1246" cy="736" r="8" class="c0"/>
<circle cx="918" cy="658" r="8" class="c0"/>
<circle cx="1024" cy="752" r="8" class="c0"/>
<circle cx="974" cy="726" r="8" class="c0"/>
<circle cx="1102" cy="526" r="8" class="c0"/>
<circle cx="968" cy="586" r="8" class="c0"/>
<circle cx="1358" cy="710" r="8" class="c0"/>
<circle cx="942" cy="480" r="8" class="c0"/>
<circle cx="908" cy="448" r="8" class="c0"/>
<circle cx="920" cy="438" r="8" class="c0"/>
<circle cx="648" cy="720" r="8" class="c0"/>
<circle cx="1228" cy="734" r="8" class="c0"/>
<circle cx="1014" cy="438" r="8" class="c0"/>
<circle cx="970" cy="404" r="8" class="c0"/>
<circle cx="1442" cy="722" r="8" class="c0"/>
<circle cx="1414" cy="704" r="8" class="c0"/>
<circle cx="1166" cy="712" r="8" class="c0"/>
<circle cx="588" cy="692" r="8" class="c0"/>
<circle cx="1340" cy="698" r="8" class="c0"/>
<circle cx="996" cy="718" r="8" class="c0"/>
<circle cx="714" cy="696" r="8" class="c0"/>
<circle cx="1170" cy="734" r="8" class="c0"/>
<circle cx="1104" cy="568" r="8" class="c0"/>
<circle cx="1040" cy="502" r="8" class="c0"/>
<circle cx="1112" cy="496" r="8" class="c0"/>
<circle cx="1024" cy="518" r="8" class="c0"/>
<circle cx="1390" cy="792" r="8" class="c0"/>
<circle cx="886" cy="352" r="8" class="c0"/>
<circle cx="950" cy="398" r="8" class="c0"/>
<circle cx="980" cy="456" r="8" class="c0"/>
<circle cx="1282" cy="720" r="8" class="c0"/>
<circle cx="1368" cy="768" r="8" class="c0"/>
<circle cx="668" cy="688" r="8" class="c0"/>
<circle cx="1096" cy="612" r="8" class="c0"/>
<circle cx="1322" cy="686" r="8" class="c0"/>
<circle cx="1206" cy="644" r="8" class="c0"/>
<circle cx="744" cy="728" r="8" class="c0"/>
<circle cx="1094" cy="708" r="8" class="c0"/>
<circle cx="1152" cy="748" r="8" class="c0"/>
<circle cx="1254" cy="768" r="8" class="c0"/>
<circle cx="982" cy="394" r="8" class="c0"/>
<circle cx="1286" cy="674" r="8" class="c0"/>
<circle cx="1126" cy="644" r="8" class="c0"/>
<circle cx="1082" cy="632" r="8" class="c0"/>
<circle cx="1068" cy="746" r="8" class="c0"/>
<circle cx="986" cy="424" r="8" class="c0"/>
<circle cx="1000" cy="462" r="8" class="c0"/>
<circle cx="934" cy="592" r="8" class="c0"/>
<circle cx="756" cy="714" r="6" class="c0"/>
<circle cx="740" cy="700" r="6" class="c0"/>
<circle cx="1018" cy="498" r="6" class="c0"/>
<circle cx="954" cy="700" r="6" class="c0"/>
<circle cx="1084" cy="410" r="6" class="c0"/>
<circle cx="960" cy="564" r="6" class="c0"/>
<circle cx="964" cy="514" r="6" class="c0"/>
<circle cx="1256" cy="746" r="6" class="c0"/>
<circle cx="992" cy="650" r="6" class="c0"/>
<circle cx="1008" cy="686" r="6" class="c0"/>
<circle cx="946" cy="710" r="6" class="c0"/>
<circle cx="1434" cy="738" r="6" class="c0"/>
<circle cx="1052" cy="810" r="6" class="c0"/>
<circle cx="1070" cy="586" r="6" class="c0"/>
<circle cx="1038" cy="570" r="6" class="c0"/>
<circle cx="1090" cy="474" r="6" class="c0"/>
<circle cx="1084" cy="688" r="6" class="c0"/>
<circle cx="998" cy="498" r="6" class="c0"/>
<circle cx="1138" cy="526" r="6" class="c0"/>
<circle cx="1056" cy="630" r="6" class="c0"/>
<circle cx="606" cy="680" r="6" class="c0"/>
<circle cx="1012" cy="376" r="6" class="c0"/>
<circle cx="1070" cy="518" r="6" class="c0"/>
<circle cx="1072" cy="468" r="6" class="c0"/>
<circle cx="1016" cy="422" r="6" class="c0"/>
<circle cx="1220" cy="770" r="6" class="c0"/>
<circle cx="1242" cy="668" r="6" class="c0"/>
<circle cx="1048" cy="784" r="6" class="c0"/>
<circle cx="1292" cy="752" r="6" class="c0"/>
<circle cx="1096" cy="492" r="6" class="c0"/>
<circle cx="1094" cy="804" r="6" class="c0"/>
<circle cx="972" cy="368" r="6" class="c0"/>
<circle cx="1120" cy="530" r="6" class="c0"/>
<circle cx="1050" cy="396" r="6" class="c0"/>
<circle cx="1374" cy="688" r="6" class="c0"/>
<circle cx="1352" cy="660" r="6" class="c0"/>
<circle cx="1128" cy="690" r="6" class="c0"/>
<circle cx="1436" cy="782" r="6" class="c0"/>
<circle cx="848" cy="706" r="6" class="c0"/>
<circle cx="1190" cy="764" r="6" class="c0"/>
<circle cx="1100" cy="646" r="6" class="c0"/>
<circle cx="780" cy="742" r="6" class="c0"/>
<circle cx="884" cy="416" r="6" class="c0"/>
<circle cx="1028" cy="392" r="6" class="c0"/>
<circle cx="876" cy="384" r="6" class="c0"/>
<circle cx="940" cy="384" r="6" class="c0"/>
<circle cx="1038" cy="724" r="6" class="c0"/>
<circle cx="1368" cy="720" r="6" class="c0"/>
<circle cx="954" cy="414" r="6" class="c0"/>
<circle cx="1350" cy="800" r="6" class="c0"/>
<circle cx="620" cy="678" r="6" class="c0"/>
<circle cx="1024" cy="546" r="6" class="c0"/>
<circle cx="984" cy="580" r="6" class="c0"/>
<circle cx="1340" cy="748" r="6" class="c0"/>
<circle cx="650" cy="696" r="6" class="c0"/>
<circle cx="1138" cy="502" r="6" class="c0"/>
<circle cx="1356" cy="778" r="6" class="c0"/>
<circle cx="1300" cy="684" r="6" class="c0"/>
<circle cx="1016" cy="698" r="6" class="c0"/>
<circle cx="1400" cy="688" r="6" class="c0"/>
<circle cx="1080" cy="610" r="6" class="c0"/>
<circle cx="1150" cy="682" r="6" class="c0"/>
<circle cx="1322" cy="764" r="6" class="c0"/>
<circle cx="996" cy="566" r="6" class="c0"/>
<circle cx="934" cy="724" r="6" class="c0"/>
<circle cx="1054" cy="726" r="6" class="c0"/>
<circle cx="794" cy="744" r="6" class="c0"/>
<circle cx="914" cy="696" r="6" class="c0"/>
<circle cx="1306" cy="698" r="6" class="c0"/>
<circle cx="918" cy="724" r="6" class="c0"/>
<circle cx="1212" cy="726" r="6" class="c0"/>
<circle cx="1080" cy="802" r="6" class="c0"/>
<circle cx="1322" cy="792" r="6" class="c0"/>
<circle cx="1326" cy="666" r="6" class="c0"/>
<circle cx="874" cy="426" r="6" class="c0"/>
<circle cx="986" cy="616" r="6" class="c0"/>
<circle cx="1006" cy="746" r="6" class="c0"/>
<circle cx="970" cy="446" r="6" class="c0"/>
<circle cx="1448" cy="746" r="6" class="c0"/>
<circle cx="1374" cy="810" r="6" class="c0"/>
<circle cx="1192" cy="636" r="6" class="c0"/>
<circle cx="592" cy="676" r="6" class="c0"/>
<circle cx="936" cy="440" r="6" class="c0"/>
<circle cx="980" cy="482" r="6" class="c0"/>
<circle cx="1012" cy="534" r="6" class="c0"/>
<circle cx="1184" cy="664" r="6" class="c0"/>
<circle cx="626" cy="696" r="6" class="c0"/>
<circle cx="1306" cy="760" r="6" class="c0"/>
<circle cx="1114" cy="612" r="6" class="c0"/>
<circle cx="956" cy="758" r="6" class="c0"/>
<circle cx="996" cy="696" r="6" class="c0"/>
<circle cx="1022" cy="674" r="6" class="c0"/>
<circle cx="1010" cy="572" r="6" class="c0"/>
<circle cx="1044" cy="588" r="6" class="c0"/>
<circle cx="1420" cy="774" r="6" class="c0"/>
<circle cx="926" cy="574" r="6" class="c0"/>
<circle cx="994" cy="636" r="6" class="c0"/>
<circle cx="982" cy="520" r="6" class="c0"/>
<circle cx="1088" cy="570" r="6" class="c0"/>
<circle cx="1410" cy="752" r="6" class="c0"/>
<circle cx="1360" cy="734" r="6" class="c0"/>
<circle cx="732" cy="692" r="6" class="c0"/>
<circle cx="976" cy="754" r="6" class="c0"/>
<circle cx="1398" cy="726" r="6" class="c0"/>
<circle cx="1448" cy="776" r="6" class="c0"/>
<circle cx="694" cy="688" r="6" class="c0"/>
<circle cx="1334" cy="798" r="6" class="c0"/>
<circle cx="1276" cy="664" r="6" class="c0"/>
<circle cx="1016" cy="464" r="6" class="c0"/>
<circle cx="1254" cy="704" r="6" class="c0"/>
<circle cx="1026" cy="618" r="6" class="c0"/>
<circle cx="1152" cy="656" r="6" class="c0"/>
<circle cx="1284" cy="780" r="6" class="c0"/>
<circle cx="556" cy="674" r="6" class="c0"/>
<circle cx="1062" cy="596" r="6" class="c0"/>
<circle cx="1046" cy="798" r="6" class="c0"/>
<circle cx="1192" cy="656" r="6" class="c0"/>
<circle cx="1122" cy="620" r="6" class="c0"/>
<circle cx="790" cy="714" r="6" class="c0"/>
<circle cx="1138" cy="740" r="6" class="c0"/>
<circle cx="1038" cy="550" r="6" class="c0"/>
<circle cx="1076" cy="680" r="6" class="c0"/>
<circle cx="1270" cy="680" r="6" class="c0"/>
<circle cx="1178" cy="632" r="6" class="c0"/>
<circle cx="922" cy="532" r="6" class="c0"/>
<circle cx="1104" cy="510" r="6" class="c0"/>
</svg>
