<?xml version="1.0" encoding="utf-8"?>
<svg xmlns="http://www.w3.org/2000/svg"
     xmlns:xlink="http://www.w3.org/1999/xlink" width="1920" height="1440" >

            <defs>
            <style type="text/css"><![CDATA[
circle {stroke: none;}
.c0 {fill: #FFFFFF;}
]]></style>
            </defs>
<rect x="0" y="0" width="1920" height="1440" fill="black"/>
<circle cx="958" cy="422" r="14" class="c0"/>
<circle cx="1300" cy="696" r="12" class="c0"/>
<circle cx="1046" cy="486" r="12" class="c0"/>
<circle cx="984" cy="734" r="12" class="c0"/>
<circle cx="912" cy="512" r="12" class="c0"/>
<circle cx="1068" cy="724" r="12" class="c0"/>
<circle cx="1010" cy="722" r="12" class="c0"/>
<circle cx="1234" cy="682" r="12" class="c0"/>
<circle cx="1052" cy="668" r="12" class="c0"/>
<circle cx="1042" cy="376" r="12" class="c0"/>
<circle cx="1176" cy="704" r="12" class="c0"/>
<circle cx="932" cy="720" r="12" class="c0"/>
<circle cx="680" cy="680" r="12" class="c0"/>
<circle cx="1102" cy="600" r="12" class="c0"/>
<circle cx="1402" cy="716" r="12" class="c0"/>
<circle cx="1272" cy="676" r="12" class="c0"/>
<circle cx="974" cy="442" r="12" class="c0"/>
<circle cx="1330" cy="732" r="12" class="c0"/>
<circle cx="894" cy="364" r="12" class="c0"/>
<circle cx="984" cy="686" r="12" class="c0"/>
<circle cx="1114" cy="676" r="10" class="c0"/>
<circle cx="1104" cy="486" r="10" class="c0"/>
<circle cx="916" cy="408" r="10" class="c0"/>
<circle cx="962" cy="474" r="10" class="c0"/>
<circle cx="1216" cy="730" r="10" class="c0"/>
<circle cx="1078" cy="760" r="10" class="c0"/>
<circle cx="980" cy="408" r="10" class="c0"/>
<circle cx="1334" cy="692" r="10" class="c0"/>
<circle cx="1286" cy="764" r="10" class="c0"/>
<circle cx="1330" cy="668" r="10" class="c0"/>
<circle cx="968" cy="364" r="10" class="c0"/>
<circle cx="996" cy="484" r="10" class="c0"/>
<circle cx="1262" cy="746" r="10" class="c0"/>
<circle cx="1064" cy="788" r="10" class="c0"/>
<circle cx="1186" cy="664" r="10" class="c0"/>
<circle cx="992" cy="664" r="10" class="c0"/>
<circle cx="1316" cy="764" r="10" class="c0"/>
<circle cx="1116" cy="506" r="10" class="c0"/>
<circle cx="1036" cy="584" r="10" class="c0"/>
<circle cx="938" cy="468" r="10" class="c0"/>
<circle cx="994" cy="386" r="10" class="c0"/>
<circle cx="958" cy="700" r="10" class="c0"/>
<circle cx="1412" cy="738" r="10" class="c0"/>
<circle cx="948" cy="606" r="10" class="c0"/>
<circle cx="994" cy="594" r="10" class="c0"/>
<circle cx="1372" cy="752" r="10" class="c0"/>
<circle cx="1048" cy="450" r="10" class="c0"/>
<circle cx="1092" cy="662" r="10" class="c0"/>
<circle cx="860" cy="400" r="10" class="c0"/>
<circle cx="1000" cy="702" r="10" class="c0"/>
<circle cx="1088" cy="514" r="10" class="c0"/>
<circle cx="1076" cy="486" r="10" class="c0"/>
<circle cx="1084" cy="710" r="10" class="c0"/>
<circle cx="1388" cy="778" r="10" class="c0"/>
<circle cx="1136" cy="670" r="10" class="c0"/>
<circle cx="1062" cy="526" r="10" class="c0"/>
<circle cx="748" cy="686" r="10" class="c0"/>
<circle cx="1272" cy="716" r="10" class="c0"/>
<circle cx="788" cy="692" r="10" class="c0"/>
<circle cx="922" cy="432" r="10" class="c0"/>
<circle cx="1206" cy="748" r="10" class="c0"/>
<circle cx="1034" cy="534" r="10" class="c0"/>
<circle cx="956" cy="572" r="10" class="c0"/>
<circle cx="1076" cy="594" r="10" class="c0"/>
<circle cx="1006" cy="516" r="10" class="c0"/>
<circle cx="1404" cy="688" r="10" class="c0"/>
<circle cx="968" cy="526" r="10" class="c0"/>
<circle cx="1298" cy="726" r="10" class="c0"/>
<circle cx="1078" cy="644" r="10" class="c0"/>
<circle cx="726" cy="704" r="10" class="c0"/>
<circle cx="1160" cy="628" r="10" class="c0"/>
<circle cx="1020" cy="572" r="10" class="c0"/>
<circle cx="1092" cy="778" r="10" class="c0"/>
<circle cx="1072" cy="692" r="10" class="c0"/>
<circle cx="1108" cy="706" r="10" class="c0"/>
<circle cx="1018" cy="678" r="8" class="c0"/>
<circle cx="988" cy="550" r="8" class="c0"/>
<circle cx="1216" cy="702" r="8" class="c0"/>
<circle cx="1364" cy="698" r="8" class="c0"/>
<circle cx="1054" cy="744" r="8" class="c0"/>
<circle cx="866" cy="350" r="8" class="c0"/>
<circle cx="1362" cy="668" r="8" class="c0"/>
<circle cx="1012" cy="640" r="8" class="c0"/>
<circle cx="1108" cy="560" r="8" class="c0"/>
<circle cx="1000" cy="406" r="8" class="c0"/>
<circle cx="1078" cy="618" r="8" class="c0"/>
<circle cx="1022" cy="494" r="8" class="c0"/>
<circle cx="1300" cy="752" r="8" class="c0"/>
<circle cx="696" cy="698" r="8" class="c0"/>
<circle cx="1222" cy="664" r="8" class="c0"/>
<circle cx="1044" cy="706" r="8" class="c0"/>
<circle cx="1084" cy="738" r="8" class="c0"/>
<circle cx="1106" cy="646" r="8" class="c0"/>
<circle cx="858" cy="704" r="8" class="c0"/>
<circle cx="1372" cy="788" r="8" class="c0"/>
<circle cx="1050" cy="614" r="8" class="c0"/>
<circle cx="1014" cy="372" r="8" class="c0"/>
<circle cx="936" cy="446" r="8" class="c0"/>
<circle cx="1096" cy="722" r="8" class="c0"/>
<circle cx="1024" cy="700" r="8" class="c0"/>
<circle cx="1418" cy="702" r="8" class="c0"/>
<circle cx="872" cy="386" r="8" class="c0"/>
<circle cx="1170" cy="728" r="8" class="c0"/>
<circle cx="888" cy="698" r="8" class="c0"/>
<circle cx="654" cy="700" r="8" class="c0"/>
<circle cx="1138" cy="712" r="8" class="c0"/>
<circle cx="982" cy="568" r="8" class="c0"/>
<circle cx="1454" cy="766" r="8" class="c0"/>
<circle cx="1014" cy="392" r="8" class="c0"/>
<circle cx="1028" cy="732" r="8" class="c0"/>
<circle cx="1040" cy="510" r="8" class="c0"/>
<circle cx="1020" cy="474" r="8" class="c0"/>
<circle cx="962" cy="396" r="8" class="c0"/>
<circle cx="968" cy="670" r="8" class="c0"/>
<circle cx="1180" cy="634" r="8" class="c0"/>
<circle cx="934" cy="552" r="8" class="c0"/>
<circle cx="1064" cy="462" r="8" class="c0"/>
<circle cx="1192" cy="720" r="8" class="c0"/>
<circle cx="716" cy="686" r="8" class="c0"/>
<circle cx="1008" cy="538" r="8" class="c0"/>
<circle cx="1010" cy="420" r="8" class="c0"/>
<circle cx="626" cy="676" r="8" class="c0"/>
<circle cx="912" cy="708" r="8" class="c0"/>
<circle cx="1404" cy="766" r="8" class="c0"/>
<circle cx="1018" cy="606" r="8" class="c0"/>
<circle cx="1358" cy="726" r="8" class="c0"/>
<circle cx="1306" cy="652" r="8" class="c0"/>
<circle cx="1024" cy="654" r="8" class="c0"/>
<circle cx="810" cy="694" r="8" class="c0"/>
<circle cx="1138" cy="692" r="8" class="c0"/>
<circle cx="1392" cy="664" r="8" class="c0"/>
<circle cx="986" cy="506" r="8" class="c0"/>
<circle cx="596" cy="684" r="8" class="c0"/>
<circle cx="1426" cy="754" r="8" class="c0"/>
<circle cx="1186" cy="740" r="8" class="c0"/>
<circle cx="944" cy="406" r="8" class="c0"/>
<circle cx="888" cy="398" r="8" class="c0"/>
<circle cx="840" cy="690" r="8" class="c0"/>
<circle cx="968" cy="556" r="8" class="c0"/>
<circle cx="944" cy="738" r="8" class="c0"/>
<circle cx="998" cy="458" r="8" class="c0"/>
<circle cx="1372" cy="654" r="8" class="c0"/>
<circle cx="928" cy="530" r="8" class="c0"/>
<circle cx="1020" cy="432" r="8" class="c0"/>
<circle cx="1118" cy="618" r="8" class="c0"/>
<circle cx="1310" cy="676" r="8" class="c0"/>
<circle cx="968" cy="586" r="8" class="c0"/>
<circle cx="918" cy="690" r="8" class="c0"/>
<circle cx="1382" cy="732" r="8" class="c0"/>
<circle cx="878" cy="410" r="8" class="c0"/>
<circle cx="1434" cy="714" r="8" class="c0"/>
<circle cx="1336" cy="774" r="8" class="c0"/>
<circle cx="1032" cy="556" r="8" class="c0"/>
<circle cx="782" cy="742" r="8" class="c0"/>
<circle cx="906" cy="678" r="8" class="c0"/>
<circle cx="898" cy="424" r="8" class="c0"/>
<circle cx="768" cy="688" r="8" class="c0"/>
<circle cx="1380" cy="684" r="8" class="c0"/>
<circle cx="940" cy="692" r="8" class="c0"/>
<circle cx="1156" cy="680" r="8" class="c0"/>
<circle cx="1054" cy="596" r="8" class="c0"/>
<circle cx="644" cy="680" r="8" class="c0"/>
<circle cx="1208" cy="674" r="8" class="c0"/>
<circle cx="1250" cy="720" r="8" class="c0"/>
<circle cx="1230" cy="750" r="8" class="c0"/>
<circle cx="938" cy="630" r="8" class="c0"/>
<circle cx="750" cy="728" r="8" class="c0"/>
<circle cx="1044" cy="640" r="8" class="c0"/>
<circle cx="1030" cy="630" r="8" class="c0"/>
<circle cx="1026" cy="452" r="8" class="c0"/>
<circle cx="1122" cy="722" r="8" class="c0"/>
<circle cx="1348" cy="758" r="8" class="c0"/>
<circle cx="1360" cy="768" r="8" class="c0"/>
<circle cx="1318" cy="706" r="8" class="c0"/>
<circle cx="1092" cy="628" r="8" class="c0"/>
<circle cx="1446" cy="730" r="8" class="c0"/>
<circle cx="952" cy="386" r="8" class="c0"/>
<circle cx="898" cy="496" r="8" class="c0"/>
<circle cx="1068" cy="506" r="8" class="c0"/>
<circle cx="988" cy="528" r="8" class="c0"/>
<circle cx="1344" cy="654" r="8" class="c0"/>
<circle cx="1064" cy="390" r="8" class="c0"/>
<circle cx="1452" cy="712" r="8" class="c0"/>
<circle cx="1090" cy="472" r="8" class="c0"/>
<circle cx="916" cy="664" r="8" class="c0"/>
<circle cx="998" cy="360" r="8" class="c0"/>
<circle cx="1248" cy="666" r="8" class="c0"/>
<circle cx="1054" cy="764" r="8" class="c0"/>
<circle cx="1348" cy="678" r="8" class="c0"/>
<circle cx="1286" cy="654" r="8" class="c0"/>
<circle cx="1142" cy="506" r="8" class="c0"/>
<circle cx="1228" cy="714" r="8" class="c0"/>
<circle cx="1198" cy="700" r="8" class="c0"/>
<circle cx="976" cy="710" r="8" class="c0"/>
<circle cx="990" cy="428" r="8" class="c0"/>
<circle cx="1254" cy="694" r="8" class="c0"/>
<circle cx="1094" cy="686" r="8" class="c0"/>
<circle cx="1096" cy="752" r="8" class="c0"/>
<circle cx="1114" cy="578" r="8" class="c0"/>
<circle cx="980" cy="466" r="8" class="c0"/>
<circle cx="1284" cy="742" r="8" class="c0"/>
<circle cx="956" cy="546" r="8" class="c0"/>
<circle cx="1372" cy="716" r="8" class="c0"/>
<circle cx="1382" cy="706" r="8" class="c0"/>
<circle cx="962" cy="728" r="8" class="c0"/>
<circle cx="1352" cy="784" r="8" class="c0"/>
<circle cx="1064" cy="632" r="8" class="c0"/>
<circle cx="1028" cy="362" r="8" class="c0"/>
<circle cx="1100" cy="526" r="8" class="c0"/>
<circle cx="1008" cy="446" r="8" class="c0"/>
<circle cx="1008" cy="618" r="8" class="c0"/>
<circle cx="954" cy="456" r="8" class="c0"/>
<circle cx="1242" cy="740" r="8" class="c0"/>
<circle cx="1140" cy="620" r="8" class="c0"/>
<circle cx="1204" cy="646" r="8" class="c0"/>
<circle cx="1176" cy="680" r="8" class="c0"/>
<circle cx="672" cy="702" r="8" class="c0"/>
<circle cx="1042" cy="688" r="8" class="c0"/>
<circle cx="580" cy="676" r="8" class="c0"/>
<circle cx="1424" cy="724" r="8" class="c0"/>
<circle cx="1088" cy="536" r="8" class="c0"/>
<circle cx="1382" cy="800" r="8" class="c0"/>
<circle cx="724" cy="722" r="6" class="c0"/>
<circle cx="1038" cy="466" r="6" class="c0"/>
<circle cx="1126" cy="702" r="6" class="c0"/>
<circle cx="1046" cy="564" r="6" class="c0"/>
<circle cx="930" cy="644" r="6" class="c0"/>
<circle cx="1032" cy="716" r="6" class="c0"/>
<circle cx="1390" cy="758" r="6" class="c0"/>
<circle cx="1100" cy="794" r="6" class="c0"/>
<circle cx="920" cy="490" r="6" class="c0"/>
<circle cx="1082" cy="458" r="6" class="c0"/>
<circle cx="1154" cy="710" r="6" class="c0"/>
<circle cx="1078" cy="398" r="6" class="c0"/>
<circle cx="998" cy="564" r="6" class="c0"/>
<circle cx="1398" cy="748" r="6" class="c0"/>
<circle cx="1088" cy="572" r="6" class="c0"/>
<circle cx="1026" cy="518" r="6" class="c0"/>
<circle cx="874" cy="706" r="6" class="c0"/>
<circle cx="976" cy="384" r="6" class="c0"/>
<circle cx="830" cy="702" r="6" class="c0"/>
<circle cx="802" cy="744" r="6" class="c0"/>
<circle cx="1148" cy="732" r="6" class="c0"/>
<circle cx="660" cy="674" r="6" class="c0"/>
<circle cx="1312" cy="742" r="6" class="c0"/>
<circle cx="1128" cy="518" r="6" class="c0"/>
<circle cx="1454" cy="744" r="6" class="c0"/>
<circle cx="1132" cy="496" r="6" class="c0"/>
<circle cx="1012" cy="556" r="6" class="c0"/>
<circle cx="650" cy="716" r="6" class="c0"/>
<circle cx="902" cy="390" r="6" class="c0"/>
<circle cx="1280" cy="694" r="6" class="c0"/>
<circle cx="872" cy="368" r="6" class="c0"/>
<circle cx="594" cy="668" r="6" class="c0"/>
<circle cx="636" cy="698" r="6" class="c0"/>
<circle cx="976" cy="486" r="6" class="c0"/>
<circle cx="1032" cy="670" r="6" class="c0"/>
<circle cx="1248" cy="762" r="6" class="c0"/>
<circle cx="884" cy="346" r="6" class="c0"/>
<circle cx="986" cy="370" r="6" class="c0"/>
<circle cx="1406" cy="784" r="6" class="c0"/>
<circle cx="1160" cy="662" r="6" class="c0"/>
<circle cx="954" cy="682" r="6" class="c0"/>
<circle cx="1342" cy="714" r="6" class="c0"/>
<circle cx="1300" cy="774" r="6" class="c0"/>
<circle cx="936" cy="420" r="6" class="c0"/>
<circle cx="930" cy="396" r="6" class="c0"/>
<circle cx="1356" cy="742" r="6" class="c0"/>
<circle cx="1122" cy="654" r="6" class="c0"/>
<circle cx="1328" cy="752" r="6" class="c0"/>
<circle cx="568" cy="666" r="6" class="c0"/>
<circle cx="1044" cy="728" r="6" class="c0"/>
<circle cx="1122" cy="488" r="6" class="c0"/>
<circle cx="938" cy="568" r="6" class="c0"/>
<circle cx="708" cy="708" r="6" class="c0"/>
<circle cx="1064" cy="654" r="6" class="c0"/>
<circle cx="1072" cy="664" r="6" class="c0"/>
<circle cx="994" cy="644" r="6" class="c0"/>
<circle cx="978" cy="540" r="6" class="c0"/>
<circle cx="1008" cy="584" r="6" class="c0"/>
<circle cx="908" cy="484" r="6" class="c0"/>
<circle cx="1092" cy="400" r="6" class="c0"/>
<circle cx="1240" cy="702" r="6" class="c0"/>
<circle cx="1264" cy="656" r="6" class="c0"/>
<circle cx="1438" cy="770" r="6" class="c0"/>
<circle cx="1298" cy="666" r="6" class="c0"/>
<circle cx="1158" cy="696" r="6" class="c0"/>
<circle cx="942" cy="582" r="6" class="c0"/>
<circle cx="1324" cy="648" r="6" class="c0"/>
<circle cx="1440" cy="746" r="6" class="c0"/>
<circle cx="616" cy="688" r="6" class="c0"/>
<circle cx="1200" cy="624" r="6" class="c0"/>
<circle cx="868" cy="694" r="6" class="c0"/>
<circle cx="702" cy="678" r="6" class="c0"/>
<circle cx="1030" cy="394" r="6" class="c0"/>
<circle cx="1020" cy="408" r="6" class="c0"/>
<circle cx="1034" cy="608" r="6" class="c0"/>
<circle cx="606" cy="674" r="6" class="c0"/>
<circle cx="1266" cy="766" r="6" class="c0"/>
<circle cx="1214" cy="626" r="6" class="c0"/>
<circle cx="850" cy="384" r="6" class="c0"/>
<circle cx="1350" cy="706" r="6" class="c0"/>
<circle cx="1188" cy="690" r="6" class="c0"/>
<circle cx="958" cy="746" r="6" class="c0"/>
<circle cx="1292" cy="678" r="6" class="c0"/>
<circle cx="758" cy="700" r="6" class="c0"/>
<circle cx="764" cy="738" r="6" class="c0"/>
<circle cx="1422" cy="770" r="6" class="c0"/>
<circle cx="952" cy="718" r="6" class="c0"/>
<circle cx="1436" cy="698" r="6" class="c0"/>
<circle cx="1066" cy="608" r="6" class="c0"/>
<circle cx="1008" cy="656" r="6" class="c0"/>
<circle cx="896" cy="712" r="6" class="c0"/>
<circle cx="1096" cy="580" r="6" class="c0"/>
<circle cx="1038" cy="742" r="6" class="c0"/>
<circle cx="1082" cy="676" r="6" class="c0"/>
<circle cx="1160" cy="738" r="6" class="c0"/>
<circle cx="1022" cy="546" r="6" class="c0"/>
<circle cx="928" cy="740" r="6" class="c0"/>
<circle cx="1218" cy="760" r="6" class="c0"/>
<circle cx="1108" cy="630" r="6" class="c0"/>
<circle cx="1090" cy="496" r="6" class="c0"/>
<circle cx="1432" cy="738" r="6" class="c0"/>
<circle cx="1060" cy="704" r="6" class="c0"/>
</svg>
