<?xml version="1.0" encoding="utf-8"?>
<svg xmlns="http://www.w3.org/2000/svg"
     xmlns:xlink="http://www.w3.org/1999/xlink" width="1920" height="1440" >

            <defs>
            <style type="text/css"><![CDATA[
circle {stroke: none;}
.c0 {fill: #FFFFFF;}
]]></style>
            </defs>
<rect x="0" y="0" width="1920" height="1440" fill="black"/>
<circle cx="1076" cy="718" r="12" class="c0"/>
<circle cx="1226" cy="690" r="12" class="c0"/>
<circle cx="1354" cy="760" r="12" class="c0"/>
<circle cx="1042" cy="728" r="12" class="c0"/>
<circle cx="1068" cy="774" r="12" class="c0"/>
<circle cx="1104" cy="716" r="12" class="c0"/>
<circle cx="1268" cy="688" r="12" class="c0"/>
<circle cx="994" cy="656" r="12" class="c0"/>
<circle cx="1248" cy="676" r="12" class="c0"/>
<circle cx="952" cy="448" r="12" class="c0"/>
<circle cx="1054" cy="490" r="12" class="c0"/>
<circle cx="1406" cy="730" r="12" class="c0"/>
<circle cx="994" cy="470" r="12" class="c0"/>
<circle cx="938" cy="690" r="12" class="c0"/>
<circle cx="586" cy="672" r="12" class="c0"/>
<circle cx="1242" cy="746" r="12" class="c0"/>
<circle cx="1032" cy="660" r="12" class="c0"/>
<circle cx="960" cy="374" r="12" class="c0"/>
<circle cx="988" cy="520" r="12" class="c0"/>
<circle cx="1086" cy="500" r="12" class="c0"/>
<circle cx="914" cy="692" r="10" class="c0"/>
<circle cx="786" cy="690" r="10" class="c0"/>
<circle cx="1000" cy="592" r="10" class="c0"/>
<circle cx="1014" cy="426" r="10" class="c0"/>
<circle cx="1000" cy="546" r="10" class="c0"/>
<circle cx="1268" cy="742" r="10" class="c0"/>
<circle cx="1292" cy="662" r="10" class="c0"/>
<circle cx="1356" cy="652" r="10" class="c0"/>
<circle cx="1314" cy="716" r="10" class="c0"/>
<circle cx="1046" cy="704" r="10" class="c0"/>
<circle cx="1182" cy="636" r="10" class="c0"/>
<circle cx="1030" cy="592" r="10" class="c0"/>
<circle cx="1236" cy="720" r="10" class="c0"/>
<circle cx="1266" cy="720" r="10" class="c0"/>
<circle cx="1018" cy="608" r="10" class="c0"/>
<circle cx="996" cy="384" r="10" class="c0"/>
<circle cx="1398" cy="656" r="10" class="c0"/>
<circle cx="912" cy="430" r="10" class="c0"/>
<circle cx="1100" cy="786" r="10" class="c0"/>
<circle cx="980" cy="450" r="10" class="c0"/>
<circle cx="1132" cy="504" r="10" class="c0"/>
<circle cx="1086" cy="676" r="10" class="c0"/>
<circle cx="1068" cy="688" r="10" class="c0"/>
<circle cx="1342" cy="722" r="10" class="c0"/>
<circle cx="1324" cy="666" r="10" class="c0"/>
<circle cx="948" cy="412" r="10" class="c0"/>
<circle cx="1220" cy="738" r="10" class="c0"/>
<circle cx="1074" cy="618" r="10" class="c0"/>
<circle cx="940" cy="392" r="10" class="c0"/>
<circle cx="1292" cy="750" r="10" class="c0"/>
<circle cx="1392" cy="748" r="10" class="c0"/>
<circle cx="1450" cy="740" r="10" class="c0"/>
<circle cx="1330" cy="744" r="10" class="c0"/>
<circle cx="1066" cy="598" r="10" class="c0"/>
<circle cx="1184" cy="688" r="10" class="c0"/>
<circle cx="1426" cy="714" r="10" class="c0"/>
<circle cx="1162" cy="724" r="10" class="c0"/>
<circle cx="1014" cy="504" r="10" class="c0"/>
<circle cx="1028" cy="464" r="10" class="c0"/>
<circle cx="1054" cy="634" r="10" class="c0"/>
<circle cx="1452" cy="706" r="10" class="c0"/>
<circle cx="1318" cy="756" r="10" class="c0"/>
<circle cx="1382" cy="722" r="10" class="c0"/>
<circle cx="878" cy="406" r="10" class="c0"/>
<circle cx="988" cy="722" r="10" class="c0"/>
<circle cx="894" cy="372" r="10" class="c0"/>
<circle cx="1090" cy="650" r="10" class="c0"/>
<circle cx="1096" cy="476" r="10" class="c0"/>
<circle cx="1162" cy="692" r="10" class="c0"/>
<circle cx="1118" cy="692" r="10" class="c0"/>
<circle cx="978" cy="570" r="10" class="c0"/>
<circle cx="1352" cy="680" r="10" class="c0"/>
<circle cx="1102" cy="740" r="10" class="c0"/>
<circle cx="938" cy="736" r="8" class="c0"/>
<circle cx="974" cy="674" r="8" class="c0"/>
<circle cx="818" cy="690" r="8" class="c0"/>
<circle cx="992" cy="694" r="8" class="c0"/>
<circle cx="1206" cy="722" r="8" class="c0"/>
<circle cx="994" cy="418" r="8" class="c0"/>
<circle cx="1148" cy="710" r="8" class="c0"/>
<circle cx="1064" cy="462" r="8" class="c0"/>
<circle cx="1146" cy="668" r="8" class="c0"/>
<circle cx="652" cy="708" r="8" class="c0"/>
<circle cx="1100" cy="558" r="8" class="c0"/>
<circle cx="1008" cy="676" r="8" class="c0"/>
<circle cx="1248" cy="706" r="8" class="c0"/>
<circle cx="1182" cy="726" r="8" class="c0"/>
<circle cx="1044" cy="680" r="8" class="c0"/>
<circle cx="1064" cy="740" r="8" class="c0"/>
<circle cx="974" cy="394" r="8" class="c0"/>
<circle cx="1410" cy="680" r="8" class="c0"/>
<circle cx="1028" cy="438" r="8" class="c0"/>
<circle cx="1376" cy="658" r="8" class="c0"/>
<circle cx="1376" cy="774" r="8" class="c0"/>
<circle cx="1160" cy="624" r="8" class="c0"/>
<circle cx="640" cy="668" r="8" class="c0"/>
<circle cx="934" cy="436" r="8" class="c0"/>
<circle cx="1066" cy="510" r="8" class="c0"/>
<circle cx="904" cy="396" r="8" class="c0"/>
<circle cx="1086" cy="700" r="8" class="c0"/>
<circle cx="1106" cy="620" r="8" class="c0"/>
<circle cx="1008" cy="704" r="8" class="c0"/>
<circle cx="1128" cy="712" r="8" class="c0"/>
<circle cx="956" cy="716" r="8" class="c0"/>
<circle cx="924" cy="508" r="8" class="c0"/>
<circle cx="1028" cy="564" r="8" class="c0"/>
<circle cx="956" cy="574" r="8" class="c0"/>
<circle cx="724" cy="690" r="8" class="c0"/>
<circle cx="1380" cy="678" r="8" class="c0"/>
<circle cx="722" cy="708" r="8" class="c0"/>
<circle cx="1038" cy="368" r="8" class="c0"/>
<circle cx="1178" cy="668" r="8" class="c0"/>
<circle cx="1294" cy="718" r="8" class="c0"/>
<circle cx="658" cy="678" r="8" class="c0"/>
<circle cx="1258" cy="658" r="8" class="c0"/>
<circle cx="1336" cy="776" r="8" class="c0"/>
<circle cx="1204" cy="668" r="8" class="c0"/>
<circle cx="1002" cy="448" r="8" class="c0"/>
<circle cx="1068" cy="646" r="8" class="c0"/>
<circle cx="1174" cy="708" r="8" class="c0"/>
<circle cx="908" cy="482" r="8" class="c0"/>
<circle cx="1200" cy="742" r="8" class="c0"/>
<circle cx="1202" cy="640" r="8" class="c0"/>
<circle cx="1322" cy="688" r="8" class="c0"/>
<circle cx="988" cy="362" r="8" class="c0"/>
<circle cx="640" cy="690" r="8" class="c0"/>
<circle cx="952" cy="550" r="8" class="c0"/>
<circle cx="1090" cy="758" r="8" class="c0"/>
<circle cx="900" cy="418" r="8" class="c0"/>
<circle cx="1040" cy="618" r="8" class="c0"/>
<circle cx="740" cy="722" r="8" class="c0"/>
<circle cx="1140" cy="620" r="8" class="c0"/>
<circle cx="692" cy="674" r="8" class="c0"/>
<circle cx="1358" cy="712" r="8" class="c0"/>
<circle cx="902" cy="680" r="8" class="c0"/>
<circle cx="878" cy="342" r="8" class="c0"/>
<circle cx="746" cy="686" r="8" class="c0"/>
<circle cx="938" cy="618" r="8" class="c0"/>
<circle cx="1010" cy="530" r="8" class="c0"/>
<circle cx="1358" cy="732" r="8" class="c0"/>
<circle cx="1374" cy="696" r="8" class="c0"/>
<circle cx="1026" cy="522" r="8" class="c0"/>
<circle cx="1052" cy="584" r="8" class="c0"/>
<circle cx="964" cy="534" r="8" class="c0"/>
<circle cx="1392" cy="786" r="8" class="c0"/>
<circle cx="1106" cy="670" r="8" class="c0"/>
<circle cx="1028" cy="540" r="8" class="c0"/>
<circle cx="838" cy="696" r="8" class="c0"/>
<circle cx="974" cy="544" r="8" class="c0"/>
<circle cx="970" cy="480" r="8" class="c0"/>
<circle cx="1026" cy="638" r="8" class="c0"/>
<circle cx="1028" cy="394" r="8" class="c0"/>
<circle cx="1006" cy="636" r="8" class="c0"/>
<circle cx="968" cy="432" r="8" class="c0"/>
<circle cx="960" cy="696" r="8" class="c0"/>
<circle cx="1020" cy="688" r="8" class="c0"/>
<circle cx="630" cy="678" r="8" class="c0"/>
<circle cx="1436" cy="754" r="8" class="c0"/>
<circle cx="1406" cy="706" r="8" class="c0"/>
<circle cx="1110" cy="602" r="8" class="c0"/>
<circle cx="866" cy="694" r="8" class="c0"/>
<circle cx="1012" cy="724" r="8" class="c0"/>
<circle cx="1114" cy="488" r="8" class="c0"/>
<circle cx="1298" cy="686" r="8" class="c0"/>
<circle cx="1012" cy="580" r="8" class="c0"/>
<circle cx="1086" cy="582" r="8" class="c0"/>
<circle cx="1074" cy="450" r="8" class="c0"/>
<circle cx="1366" cy="784" r="8" class="c0"/>
<circle cx="1096" cy="522" r="8" class="c0"/>
<circle cx="1058" cy="374" r="8" class="c0"/>
<circle cx="1112" cy="506" r="8" class="c0"/>
<circle cx="1112" cy="580" r="8" class="c0"/>
<circle cx="1406" cy="768" r="8" class="c0"/>
<circle cx="1044" cy="508" r="8" class="c0"/>
<circle cx="864" cy="352" r="8" class="c0"/>
<circle cx="898" cy="702" r="8" class="c0"/>
<circle cx="1074" cy="482" r="8" class="c0"/>
<circle cx="1204" cy="694" r="8" class="c0"/>
<circle cx="1044" cy="530" r="8" class="c0"/>
<circle cx="956" cy="600" r="8" class="c0"/>
<circle cx="1080" cy="530" r="8" class="c0"/>
<circle cx="1306" cy="650" r="8" class="c0"/>
<circle cx="610" cy="684" r="8" class="c0"/>
<circle cx="1330" cy="646" r="8" class="c0"/>
<circle cx="676" cy="690" r="8" class="c0"/>
<circle cx="1002" cy="490" r="8" class="c0"/>
<circle cx="912" cy="666" r="8" class="c0"/>
<circle cx="1044" cy="446" r="8" class="c0"/>
<circle cx="868" cy="390" r="8" class="c0"/>
<circle cx="1046" cy="566" r="8" class="c0"/>
<circle cx="1084" cy="460" r="8" class="c0"/>
<circle cx="1010" cy="356" r="8" class="c0"/>
<circle cx="706" cy="686" r="8" class="c0"/>
<circle cx="1138" cy="700" r="8" class="c0"/>
<circle cx="1062" cy="666" r="8" class="c0"/>
<circle cx="1090" cy="602" r="8" class="c0"/>
<circle cx="924" cy="654" r="8" class="c0"/>
<circle cx="1116" cy="652" r="8" class="c0"/>
<circle cx="1308" cy="738" r="8" class="c0"/>
<circle cx="968" cy="728" r="8" class="c0"/>
<circle cx="764" cy="692" r="8" class="c0"/>
<circle cx="880" cy="360" r="8" class="c0"/>
<circle cx="1074" cy="386" r="8" class="c0"/>
<circle cx="948" cy="470" r="8" class="c0"/>
<circle cx="1426" cy="766" r="8" class="c0"/>
<circle cx="1340" cy="692" r="8" class="c0"/>
<circle cx="1132" cy="680" r="8" class="c0"/>
<circle cx="1016" cy="406" r="8" class="c0"/>
<circle cx="982" cy="496" r="8" class="c0"/>
<circle cx="1366" cy="668" r="8" class="c0"/>
<circle cx="892" cy="490" r="8" class="c0"/>
<circle cx="1224" cy="666" r="8" class="c0"/>
<circle cx="1136" cy="734" r="8" class="c0"/>
<circle cx="1080" cy="748" r="8" class="c0"/>
<circle cx="1012" cy="374" r="8" class="c0"/>
<circle cx="612" cy="664" r="8" class="c0"/>
<circle cx="1042" cy="548" r="6" class="c0"/>
<circle cx="1284" cy="700" r="6" class="c0"/>
<circle cx="760" cy="732" r="6" class="c0"/>
<circle cx="934" cy="532" r="6" class="c0"/>
<circle cx="1014" cy="480" r="6" class="c0"/>
<circle cx="926" cy="414" r="6" class="c0"/>
<circle cx="926" cy="708" r="6" class="c0"/>
<circle cx="1000" cy="734" r="6" class="c0"/>
<circle cx="1030" cy="488" r="6" class="c0"/>
<circle cx="700" cy="704" r="6" class="c0"/>
<circle cx="1374" cy="752" r="6" class="c0"/>
<circle cx="972" cy="708" r="6" class="c0"/>
<circle cx="1000" cy="402" r="6" class="c0"/>
<circle cx="1090" cy="394" r="6" class="c0"/>
<circle cx="772" cy="738" r="6" class="c0"/>
<circle cx="928" cy="636" r="6" class="c0"/>
<circle cx="1214" cy="650" r="6" class="c0"/>
<circle cx="1418" cy="744" r="6" class="c0"/>
<circle cx="1024" cy="710" r="6" class="c0"/>
<circle cx="1038" cy="478" r="6" class="c0"/>
<circle cx="1116" cy="730" r="6" class="c0"/>
<circle cx="920" cy="386" r="6" class="c0"/>
<circle cx="1080" cy="636" r="6" class="c0"/>
<circle cx="1420" cy="694" r="6" class="c0"/>
<circle cx="1204" cy="624" r="6" class="c0"/>
<circle cx="1218" cy="628" r="6" class="c0"/>
<circle cx="1426" cy="736" r="6" class="c0"/>
<circle cx="1280" cy="674" r="6" class="c0"/>
<circle cx="1330" cy="706" r="6" class="c0"/>
<circle cx="888" cy="688" r="6" class="c0"/>
<circle cx="1278" cy="650" r="6" class="c0"/>
<circle cx="1126" cy="612" r="6" class="c0"/>
<circle cx="988" cy="434" r="6" class="c0"/>
<circle cx="1016" cy="650" r="6" class="c0"/>
<circle cx="852" cy="386" r="6" class="c0"/>
<circle cx="1062" cy="528" r="6" class="c0"/>
<circle cx="976" cy="412" r="6" class="c0"/>
<circle cx="956" cy="676" r="6" class="c0"/>
<circle cx="784" cy="744" r="6" class="c0"/>
<circle cx="1302" cy="766" r="6" class="c0"/>
<circle cx="938" cy="562" r="6" class="c0"/>
<circle cx="1218" cy="708" r="6" class="c0"/>
<circle cx="1002" cy="564" r="6" class="c0"/>
<circle cx="718" cy="674" r="6" class="c0"/>
<circle cx="934" cy="548" r="6" class="c0"/>
<circle cx="1192" cy="706" r="6" class="c0"/>
<circle cx="1392" cy="698" r="6" class="c0"/>
<circle cx="1128" cy="662" r="6" class="c0"/>
<circle cx="1058" cy="756" r="6" class="c0"/>
<circle cx="926" cy="524" r="6" class="c0"/>
<circle cx="1182" cy="744" r="6" class="c0"/>
<circle cx="1054" cy="610" r="6" class="c0"/>
<circle cx="1140" cy="520" r="6" class="c0"/>
<circle cx="908" cy="500" r="6" class="c0"/>
<circle cx="1046" cy="466" r="6" class="c0"/>
<circle cx="1022" cy="734" r="6" class="c0"/>
<circle cx="1096" cy="690" r="6" class="c0"/>
<circle cx="1094" cy="632" r="6" class="c0"/>
<circle cx="1300" cy="702" r="6" class="c0"/>
<circle cx="968" cy="462" r="6" class="c0"/>
<circle cx="924" cy="678" r="6" class="c0"/>
<circle cx="1272" cy="760" r="6" class="c0"/>
<circle cx="1106" cy="638" r="6" class="c0"/>
<circle cx="1342" cy="662" r="6" class="c0"/>
<circle cx="804" cy="682" r="6" class="c0"/>
<circle cx="1310" cy="676" r="6" class="c0"/>
<circle cx="884" cy="386" r="6" class="c0"/>
<circle cx="1440" cy="726" r="6" class="c0"/>
<circle cx="940" cy="710" r="6" class="c0"/>
<circle cx="570" cy="660" r="6" class="c0"/>
<circle cx="1094" cy="538" r="6" class="c0"/>
<circle cx="914" cy="408" r="6" class="c0"/>
<circle cx="964" cy="560" r="6" class="c0"/>
<circle cx="734" cy="676" r="6" class="c0"/>
<circle cx="1108" cy="766" r="6" class="c0"/>
<circle cx="1258" cy="758" r="6" class="c0"/>
<circle cx="956" cy="738" r="6" class="c0"/>
<circle cx="968" cy="518" r="6" class="c0"/>
<circle cx="970" cy="358" r="6" class="c0"/>
<circle cx="924" cy="400" r="6" class="c0"/>
<circle cx="906" cy="356" r="6" class="c0"/>
<circle cx="1410" cy="752" r="6" class="c0"/>
<circle cx="1254" cy="732" r="6" class="c0"/>
<circle cx="804" cy="700" r="6" class="c0"/>
<circle cx="1040" cy="384" r="6" class="c0"/>
<circle cx="1284" cy="728" r="6" class="c0"/>
<circle cx="1116" cy="560" r="6" class="c0"/>
<circle cx="1192" cy="658" r="6" class="c0"/>
<circle cx="1052" cy="656" r="6" class="c0"/>
<circle cx="1058" cy="790" r="6" class="c0"/>
<circle cx="1018" cy="550" r="6" class="c0"/>
<circle cx="990" cy="678" r="6" class="c0"/>
<circle cx="1212" cy="754" r="6" class="c0"/>
<circle cx="686" cy="700" r="6" class="c0"/>
<circle cx="1450" cy="764" r="6" class="c0"/>
<circle cx="1162" cy="664" r="6" class="c0"/>
<circle cx="666" cy="700" r="6" class="c0"/>
<circle cx="924" cy="488" r="6" class="c0"/>
<circle cx="1400" cy="690" r="6" class="c0"/>
<circle cx="976" cy="690" r="6" class="c0"/>
<circle cx="850" cy="686" r="6" class="c0"/>
<circle cx="880" cy="702" r="6" class="c0"/>
<circle cx="978" cy="740" r="6" class="c0"/>
<circle cx="942" cy="634" r="6" class="c0"/>
<circle cx="958" cy="398" r="6" class="c0"/>
<circle cx="676" cy="670" r="6" class="c0"/>
<circle cx="1272" cy="666" r="6" class="c0"/>
<circle cx="1238" cy="658" r="6" class="c0"/>
<circle cx="1390" cy="766" r="6" class="c0"/>
<circle cx="1382" cy="796" r="6" class="c0"/>
<circle cx="798" cy="750" r="6" class="c0"/>
<circle cx="1044" cy="602" r="6" class="c0"/>
<circle cx="1002" cy="616" r="6" class="c0"/>
<circle cx="1100" cy="592" r="6" class="c0"/>
<circle cx="966" cy="586" r="6" class="c0"/>
<circle cx="1018" cy="450" r="6" class="c0"/>
<circle cx="942" cy="540" r="6" class="c0"/>
<circle cx="898" cy="508" r="6" class="c0"/>
<circle cx="1436" cy="698" r="6" class="c0"/>
<circle cx="984" cy="404" r="6" class="c0"/>
<circle cx="1226" cy="756" r="6" class="c0"/>
<circle cx="894" cy="350" r="6" class="c0"/>
<circle cx="1348" cy="786" r="6" class="c0"/>
<circle cx="1084" cy="566" r="6" class="c0"/>
<circle cx="936" cy="460" r="6" class="c0"/>
<circle cx="1114" cy="522" r="6" class="c0"/>
<circle cx="1148" cy="512" r="6" class="c0"/>
<circle cx="1028" cy="356" r="6" class="c0"/>
<circle cx="1054" cy="520" r="6" class="c0"/>
<circle cx="1016" cy="626" r="6" class="c0"/>
</svg>
