<?xml version="1.0" encoding="utf-8"?>
<svg xmlns="http://www.w3.org/2000/svg"
     xmlns:xlink="http://www.w3.org/1999/xlink" width="1920" height="1440" >

            <defs>
            <style type="text/css"><![CDATA[
circle {stroke: none;}
.c0 {fill: #FFFFFF;}
]]></style>
            </defs>
<rect x="0" y="0" width="1920" height="1440" fill="black"/>
<circle cx="914" cy="500" r="12" class="c0"/>
<circle cx="1380" cy="674" r="12" class="c0"/>
<circle cx="1308" cy="738" r="12" class="c0"/>
<circle cx="1024" cy="554" r="12" class="c0"/>
<circle cx="1138" cy="730" r="12" class="c0"/>
<circle cx="1010" cy="642" r="12" class="c0"/>
<circle cx="1322" cy="760" r="12" class="c0"/>
<circle cx="820" cy="690" r="12" class="c0"/>
<circle cx="1090" cy="692" r="12" class="c0"/>
<circle cx="1348" cy="764" r="12" class="c0"/>
<circle cx="980" cy="552" r="12" class="c0"/>
<circle cx="1024" cy="372" r="12" class="c0"/>
<circle cx="1218" cy="724" r="12" class="c0"/>
<circle cx="1280" cy="698" r="12" class="c0"/>
<circle cx="1320" cy="652" r="12" class="c0"/>
<circle cx="938" cy="696" r="12" class="c0"/>
<circle cx="1188" cy="690" r="12" class="c0"/>
<circle cx="654" cy="692" r="12" class="c0"/>
<circle cx="1116" cy="514" r="12" class="c0"/>
<circle cx="1050" cy="570" r="12" class="c0"/>
<circle cx="1094" cy="624" r="12" class="c0"/>
<circle cx="902" cy="400" r="10" class="c0"/>
<circle cx="702" cy="684" r="10" class="c0"/>
<circle cx="756" cy="726" r="10" class="c0"/>
<circle cx="984" cy="456" r="10" class="c0"/>
<circle cx="1056" cy="612" r="10" class="c0"/>
<circle cx="1428" cy="690" r="10" class="c0"/>
<circle cx="1082" cy="642" r="10" class="c0"/>
<circle cx="962" cy="418" r="10" class="c0"/>
<circle cx="1226" cy="680" r="10" class="c0"/>
<circle cx="1074" cy="458" r="10" class="c0"/>
<circle cx="1046" cy="462" r="10" class="c0"/>
<circle cx="958" cy="466" r="10" class="c0"/>
<circle cx="1270" cy="736" r="10" class="c0"/>
<circle cx="1352" cy="660" r="10" class="c0"/>
<circle cx="1008" cy="572" r="10" class="c0"/>
<circle cx="986" cy="680" r="10" class="c0"/>
<circle cx="1042" cy="668" r="10" class="c0"/>
<circle cx="1312" cy="712" r="10" class="c0"/>
<circle cx="1018" cy="714" r="10" class="c0"/>
<circle cx="1234" cy="740" r="10" class="c0"/>
<circle cx="874" cy="382" r="10" class="c0"/>
<circle cx="1376" cy="714" r="10" class="c0"/>
<circle cx="1078" cy="500" r="10" class="c0"/>
<circle cx="610" cy="662" r="10" class="c0"/>
<circle cx="1188" cy="736" r="10" class="c0"/>
<circle cx="736" cy="708" r="10" class="c0"/>
<circle cx="1088" cy="574" r="10" class="c0"/>
<circle cx="1362" cy="694" r="10" class="c0"/>
<circle cx="884" cy="344" r="10" class="c0"/>
<circle cx="966" cy="700" r="10" class="c0"/>
<circle cx="1278" cy="674" r="10" class="c0"/>
<circle cx="1448" cy="720" r="10" class="c0"/>
<circle cx="914" cy="700" r="10" class="c0"/>
<circle cx="968" cy="394" r="10" class="c0"/>
<circle cx="1018" cy="486" r="10" class="c0"/>
<circle cx="1364" cy="648" r="10" class="c0"/>
<circle cx="1010" cy="454" r="10" class="c0"/>
<circle cx="1068" cy="680" r="10" class="c0"/>
<circle cx="1096" cy="658" r="10" class="c0"/>
<circle cx="1002" cy="420" r="10" class="c0"/>
<circle cx="996" cy="488" r="10" class="c0"/>
<circle cx="1426" cy="744" r="10" class="c0"/>
<circle cx="956" cy="376" r="10" class="c0"/>
<circle cx="1330" cy="728" r="10" class="c0"/>
<circle cx="1066" cy="786" r="10" class="c0"/>
<circle cx="1074" cy="752" r="10" class="c0"/>
<circle cx="1014" cy="608" r="10" class="c0"/>
<circle cx="1366" cy="738" r="10" class="c0"/>
<circle cx="940" cy="532" r="10" class="c0"/>
<circle cx="1394" cy="764" r="10" class="c0"/>
<circle cx="1064" cy="478" r="10" class="c0"/>
<circle cx="716" cy="700" r="10" class="c0"/>
<circle cx="1072" cy="380" r="10" class="c0"/>
<circle cx="1132" cy="670" r="10" class="c0"/>
<circle cx="1198" cy="670" r="10" class="c0"/>
<circle cx="1104" cy="726" r="10" class="c0"/>
<circle cx="1044" cy="624" r="10" class="c0"/>
<circle cx="1094" cy="472" r="10" class="c0"/>
<circle cx="1028" cy="688" r="10" class="c0"/>
<circle cx="1058" cy="650" r="10" class="c0"/>
<circle cx="1144" cy="702" r="10" class="c0"/>
<circle cx="1426" cy="712" r="10" class="c0"/>
<circle cx="1028" cy="422" r="10" class="c0"/>
<circle cx="998" cy="376" r="10" class="c0"/>
<circle cx="946" cy="436" r="10" class="c0"/>
<circle cx="1056" cy="506" r="10" class="c0"/>
<circle cx="1038" cy="528" r="10" class="c0"/>
<circle cx="1328" cy="680" r="10" class="c0"/>
<circle cx="1204" cy="702" r="8" class="c0"/>
<circle cx="1260" cy="716" r="8" class="c0"/>
<circle cx="682" cy="670" r="8" class="c0"/>
<circle cx="1118" cy="600" r="8" class="c0"/>
<circle cx="1294" cy="724" r="8" class="c0"/>
<circle cx="582" cy="664" r="8" class="c0"/>
<circle cx="996" cy="656" r="8" class="c0"/>
<circle cx="1172" cy="704" r="8" class="c0"/>
<circle cx="970" cy="570" r="8" class="c0"/>
<circle cx="1012" cy="396" r="8" class="c0"/>
<circle cx="1028" cy="654" r="8" class="c0"/>
<circle cx="1214" cy="658" r="8" class="c0"/>
<circle cx="1046" cy="730" r="8" class="c0"/>
<circle cx="1228" cy="706" r="8" class="c0"/>
<circle cx="1072" cy="596" r="8" class="c0"/>
<circle cx="1160" cy="622" r="8" class="c0"/>
<circle cx="1042" cy="594" r="8" class="c0"/>
<circle cx="936" cy="414" r="8" class="c0"/>
<circle cx="996" cy="526" r="8" class="c0"/>
<circle cx="976" cy="718" r="8" class="c0"/>
<circle cx="988" cy="576" r="8" class="c0"/>
<circle cx="1262" cy="652" r="8" class="c0"/>
<circle cx="1050" cy="366" r="8" class="c0"/>
<circle cx="1056" cy="718" r="8" class="c0"/>
<circle cx="1160" cy="676" r="8" class="c0"/>
<circle cx="932" cy="634" r="8" class="c0"/>
<circle cx="1036" cy="494" r="8" class="c0"/>
<circle cx="986" cy="508" r="8" class="c0"/>
<circle cx="1066" cy="522" r="8" class="c0"/>
<circle cx="862" cy="690" r="8" class="c0"/>
<circle cx="924" cy="426" r="8" class="c0"/>
<circle cx="904" cy="684" r="8" class="c0"/>
<circle cx="938" cy="728" r="8" class="c0"/>
<circle cx="728" cy="672" r="8" class="c0"/>
<circle cx="956" cy="594" r="8" class="c0"/>
<circle cx="1122" cy="718" r="8" class="c0"/>
<circle cx="940" cy="392" r="8" class="c0"/>
<circle cx="924" cy="476" r="8" class="c0"/>
<circle cx="1084" cy="736" r="8" class="c0"/>
<circle cx="1102" cy="758" r="8" class="c0"/>
<circle cx="630" cy="668" r="8" class="c0"/>
<circle cx="1002" cy="592" r="8" class="c0"/>
<circle cx="906" cy="378" r="8" class="c0"/>
<circle cx="1156" cy="720" r="8" class="c0"/>
<circle cx="906" cy="354" r="8" class="c0"/>
<circle cx="1184" cy="628" r="8" class="c0"/>
<circle cx="994" cy="716" r="8" class="c0"/>
<circle cx="1246" cy="686" r="8" class="c0"/>
<circle cx="1014" cy="516" r="8" class="c0"/>
<circle cx="918" cy="660" r="8" class="c0"/>
<circle cx="1112" cy="672" r="8" class="c0"/>
<circle cx="980" cy="428" r="8" class="c0"/>
<circle cx="1136" cy="620" r="8" class="c0"/>
<circle cx="890" cy="368" r="8" class="c0"/>
<circle cx="1402" cy="696" r="8" class="c0"/>
<circle cx="1110" cy="570" r="8" class="c0"/>
<circle cx="1064" cy="702" r="8" class="c0"/>
<circle cx="1040" cy="706" r="8" class="c0"/>
<circle cx="662" cy="672" r="8" class="c0"/>
<circle cx="1396" cy="660" r="8" class="c0"/>
<circle cx="780" cy="686" r="8" class="c0"/>
<circle cx="948" cy="718" r="8" class="c0"/>
<circle cx="1112" cy="708" r="8" class="c0"/>
<circle cx="1134" cy="504" r="8" class="c0"/>
<circle cx="1004" cy="356" r="8" class="c0"/>
<circle cx="1350" cy="710" r="8" class="c0"/>
<circle cx="1294" cy="658" r="8" class="c0"/>
<circle cx="966" cy="442" r="8" class="c0"/>
<circle cx="886" cy="692" r="8" class="c0"/>
<circle cx="1110" cy="640" r="8" class="c0"/>
<circle cx="758" cy="688" r="8" class="c0"/>
<circle cx="966" cy="666" r="8" class="c0"/>
<circle cx="1026" cy="464" r="8" class="c0"/>
<circle cx="1008" cy="542" r="8" class="c0"/>
<circle cx="950" cy="576" r="8" class="c0"/>
<circle cx="952" cy="546" r="8" class="c0"/>
<circle cx="1008" cy="674" r="8" class="c0"/>
<circle cx="980" cy="358" r="8" class="c0"/>
<circle cx="1410" cy="680" r="8" class="c0"/>
<circle cx="994" cy="402" r="8" class="c0"/>
<circle cx="1402" cy="738" r="8" class="c0"/>
<circle cx="802" cy="680" r="8" class="c0"/>
<circle cx="1366" cy="780" r="8" class="c0"/>
<circle cx="1106" cy="490" r="8" class="c0"/>
<circle cx="1084" cy="768" r="8" class="c0"/>
<circle cx="1094" cy="550" r="8" class="c0"/>
<circle cx="842" cy="686" r="8" class="c0"/>
<circle cx="1412" cy="726" r="8" class="c0"/>
<circle cx="1094" cy="516" r="8" class="c0"/>
<circle cx="1244" cy="666" r="8" class="c0"/>
<circle cx="1044" cy="438" r="8" class="c0"/>
<circle cx="1342" cy="692" r="8" class="c0"/>
<circle cx="1022" cy="588" r="8" class="c0"/>
<circle cx="904" cy="480" r="8" class="c0"/>
<circle cx="1102" cy="778" r="8" class="c0"/>
<circle cx="922" cy="404" r="8" class="c0"/>
<circle cx="944" cy="616" r="8" class="c0"/>
<circle cx="1096" cy="392" r="8" class="c0"/>
<circle cx="1296" cy="756" r="8" class="c0"/>
<circle cx="1052" cy="692" r="8" class="c0"/>
<circle cx="1122" cy="686" r="8" class="c0"/>
<circle cx="1076" cy="716" r="8" class="c0"/>
<circle cx="1124" cy="488" r="8" class="c0"/>
<circle cx="1246" cy="728" r="8" class="c0"/>
<circle cx="1000" cy="694" r="8" class="c0"/>
<circle cx="746" cy="674" r="8" class="c0"/>
<circle cx="978" cy="476" r="8" class="c0"/>
<circle cx="878" cy="406" r="8" class="c0"/>
<circle cx="1414" cy="762" r="8" class="c0"/>
<circle cx="786" cy="742" r="8" class="c0"/>
<circle cx="974" cy="530" r="8" class="c0"/>
<circle cx="1370" cy="760" r="8" class="c0"/>
<circle cx="1092" cy="600" r="8" class="c0"/>
<circle cx="952" cy="680" r="8" class="c0"/>
<circle cx="1174" cy="722" r="8" class="c0"/>
<circle cx="1102" cy="588" r="8" class="c0"/>
<circle cx="1446" cy="742" r="8" class="c0"/>
<circle cx="930" cy="674" r="8" class="c0"/>
<circle cx="1258" cy="696" r="8" class="c0"/>
<circle cx="1114" cy="550" r="8" class="c0"/>
<circle cx="1336" cy="640" r="8" class="c0"/>
<circle cx="1282" cy="648" r="8" class="c0"/>
<circle cx="1392" cy="728" r="8" class="c0"/>
<circle cx="1194" cy="638" r="8" class="c0"/>
<circle cx="1066" cy="628" r="8" class="c0"/>
<circle cx="964" cy="734" r="8" class="c0"/>
<circle cx="1304" cy="670" r="8" class="c0"/>
<circle cx="1260" cy="752" r="8" class="c0"/>
<circle cx="1062" cy="740" r="8" class="c0"/>
<circle cx="682" cy="690" r="8" class="c0"/>
<circle cx="1024" cy="626" r="8" class="c0"/>
<circle cx="1026" cy="506" r="8" class="c0"/>
<circle cx="1444" cy="700" r="8" class="c0"/>
<circle cx="1310" cy="688" r="8" class="c0"/>
<circle cx="652" cy="662" r="8" class="c0"/>
<circle cx="1062" cy="586" r="8" class="c0"/>
<circle cx="1046" cy="548" r="8" class="c0"/>
<circle cx="640" cy="678" r="8" class="c0"/>
<circle cx="1030" cy="398" r="8" class="c0"/>
<circle cx="1126" cy="650" r="8" class="c0"/>
<circle cx="1386" cy="746" r="8" class="c0"/>
<circle cx="1086" cy="532" r="8" class="c0"/>
<circle cx="1458" cy="752" r="8" class="c0"/>
<circle cx="1170" cy="664" r="8" class="c0"/>
<circle cx="904" cy="420" r="8" class="c0"/>
<circle cx="1064" cy="442" r="8" class="c0"/>
<circle cx="930" cy="514" r="8" class="c0"/>
<circle cx="1004" cy="726" r="8" class="c0"/>
<circle cx="1034" cy="448" r="8" class="c0"/>
<circle cx="1388" cy="784" r="8" class="c0"/>
<circle cx="1036" cy="356" r="8" class="c0"/>
<circle cx="1194" cy="716" r="8" class="c0"/>
<circle cx="1204" cy="648" r="8" class="c0"/>
<circle cx="620" cy="678" r="8" class="c0"/>
<circle cx="996" cy="442" r="8" class="c0"/>
<circle cx="1232" cy="654" r="8" class="c0"/>
<circle cx="1386" cy="646" r="8" class="c0"/>
<circle cx="594" cy="674" r="8" class="c0"/>
<circle cx="1020" cy="352" r="6" class="c0"/>
<circle cx="1148" cy="658" r="6" class="c0"/>
<circle cx="1092" cy="714" r="6" class="c0"/>
<circle cx="1120" cy="618" r="6" class="c0"/>
<circle cx="1460" cy="706" r="6" class="c0"/>
<circle cx="984" cy="704" r="6" class="c0"/>
<circle cx="1336" cy="748" r="6" class="c0"/>
<circle cx="1346" cy="738" r="6" class="c0"/>
<circle cx="1034" cy="610" r="6" class="c0"/>
<circle cx="1212" cy="746" r="6" class="c0"/>
<circle cx="1354" cy="726" r="6" class="c0"/>
<circle cx="1244" cy="712" r="6" class="c0"/>
<circle cx="984" cy="386" r="6" class="c0"/>
<circle cx="738" cy="690" r="6" class="c0"/>
<circle cx="1074" cy="662" r="6" class="c0"/>
<circle cx="768" cy="738" r="6" class="c0"/>
<circle cx="894" cy="490" r="6" class="c0"/>
<circle cx="1136" cy="520" r="6" class="c0"/>
<circle cx="1260" cy="678" r="6" class="c0"/>
<circle cx="990" cy="734" r="6" class="c0"/>
<circle cx="1218" cy="628" r="6" class="c0"/>
<circle cx="1020" cy="532" r="6" class="c0"/>
<circle cx="872" cy="358" r="6" class="c0"/>
<circle cx="1436" cy="758" r="6" class="c0"/>
<circle cx="1208" cy="686" r="6" class="c0"/>
<circle cx="1328" cy="700" r="6" class="c0"/>
<circle cx="928" cy="650" r="6" class="c0"/>
<circle cx="1042" cy="380" r="6" class="c0"/>
<circle cx="1300" cy="700" r="6" class="c0"/>
<circle cx="1448" cy="764" r="6" class="c0"/>
<circle cx="1402" cy="716" r="6" class="c0"/>
<circle cx="1046" cy="484" r="6" class="c0"/>
<circle cx="892" cy="386" r="6" class="c0"/>
<circle cx="1174" cy="638" r="6" class="c0"/>
<circle cx="766" cy="674" r="6" class="c0"/>
<circle cx="1120" cy="584" r="6" class="c0"/>
<circle cx="1074" cy="614" r="6" class="c0"/>
<circle cx="1278" cy="754" r="6" class="c0"/>
<circle cx="924" cy="384" r="6" class="c0"/>
<circle cx="1160" cy="694" r="6" class="c0"/>
<circle cx="856" cy="386" r="6" class="c0"/>
<circle cx="998" cy="468" r="6" class="c0"/>
<circle cx="940" cy="556" r="6" class="c0"/>
<circle cx="1106" cy="610" r="6" class="c0"/>
<circle cx="1038" cy="642" r="6" class="c0"/>
<circle cx="1024" cy="670" r="6" class="c0"/>
<circle cx="1278" cy="718" r="6" class="c0"/>
<circle cx="1288" cy="742" r="6" class="c0"/>
<circle cx="1020" cy="440" r="6" class="c0"/>
<circle cx="940" cy="456" r="6" class="c0"/>
<circle cx="1292" cy="684" r="6" class="c0"/>
<circle cx="1406" cy="778" r="6" class="c0"/>
<circle cx="1386" cy="700" r="6" class="c0"/>
<circle cx="1202" cy="624" r="6" class="c0"/>
<circle cx="978" cy="654" r="6" class="c0"/>
<circle cx="980" cy="410" r="6" class="c0"/>
<circle cx="1084" cy="672" r="6" class="c0"/>
<circle cx="1030" cy="726" r="6" class="c0"/>
<circle cx="1304" cy="642" r="6" class="c0"/>
<circle cx="990" cy="348" r="6" class="c0"/>
<circle cx="978" cy="494" r="6" class="c0"/>
<circle cx="1062" cy="766" r="6" class="c0"/>
<circle cx="968" cy="682" r="6" class="c0"/>
<circle cx="1464" cy="728" r="6" class="c0"/>
<circle cx="1152" cy="504" r="6" class="c0"/>
<circle cx="866" cy="346" r="6" class="c0"/>
<circle cx="976" cy="376" r="6" class="c0"/>
<circle cx="1144" cy="682" r="6" class="c0"/>
<circle cx="1034" cy="478" r="6" class="c0"/>
<circle cx="1354" cy="678" r="6" class="c0"/>
<circle cx="964" cy="360" r="6" class="c0"/>
<circle cx="1000" cy="556" r="6" class="c0"/>
<circle cx="796" cy="752" r="6" class="c0"/>
<circle cx="1030" cy="574" r="6" class="c0"/>
<circle cx="950" cy="402" r="6" class="c0"/>
<circle cx="712" cy="670" r="6" class="c0"/>
<circle cx="1112" cy="742" r="6" class="c0"/>
<circle cx="1092" cy="454" r="6" class="c0"/>
<circle cx="794" cy="694" r="6" class="c0"/>
<circle cx="970" cy="512" r="6" class="c0"/>
<circle cx="1006" cy="502" r="6" class="c0"/>
<circle cx="1056" cy="532" r="6" class="c0"/>
<circle cx="1146" cy="630" r="6" class="c0"/>
<circle cx="896" cy="702" r="6" class="c0"/>
<circle cx="960" cy="560" r="6" class="c0"/>
</svg>
