<?xml version="1.0" encoding="utf-8"?>
<svg xmlns="http://www.w3.org/2000/svg"
     xmlns:xlink="http://www.w3.org/1999/xlink" width="1920" height="1440" >

            <defs>
            <style type="text/css"><![CDATA[
circle {stroke: none;}
.c0 {fill: #FFFFFF;}
]]></style>
            </defs>
<rect x="0" y="0" width="1920" height="1440" fill="black"/>
<circle cx="896" cy="348" r="14" class="c0"/>
<circle cx="1106" cy="644" r="12" class="c0"/>
<circle cx="1010" cy="442" r="12" class="c0"/>
<circle cx="1034" cy="450" r="12" class="c0"/>
<circle cx="1366" cy="670" r="12" class="c0"/>
<circle cx="646" cy="642" r="12" class="c0"/>
<circle cx="1058" cy="528" r="12" class="c0"/>
<circle cx="1180" cy="646" r="12" class="c0"/>
<circle cx="1200" cy="668" r="12" class="c0"/>
<circle cx="964" cy="426" r="12" class="c0"/>
<circle cx="1018" cy="554" r="12" class="c0"/>
<circle cx="1382" cy="750" r="12" class="c0"/>
<circle cx="1392" cy="678" r="12" class="c0"/>
<circle cx="976" cy="690" r="12" class="c0"/>
<circle cx="1028" cy="622" r="12" class="c0"/>
<circle cx="1004" cy="404" r="12" class="c0"/>
<circle cx="1148" cy="632" r="12" class="c0"/>
<circle cx="1252" cy="702" r="12" class="c0"/>
<circle cx="596" cy="638" r="12" class="c0"/>
<circle cx="922" cy="374" r="12" class="c0"/>
<circle cx="1344" cy="642" r="12" class="c0"/>
<circle cx="990" cy="666" r="12" class="c0"/>
<circle cx="1146" cy="690" r="12" class="c0"/>
<circle cx="1048" cy="470" r="12" class="c0"/>
<circle cx="1298" cy="706" r="12" class="c0"/>
<circle cx="1120" cy="596" r="12" class="c0"/>
<circle cx="1136" cy="508" r="12" class="c0"/>
<circle cx="1282" cy="650" r="10" class="c0"/>
<circle cx="990" cy="386" r="10" class="c0"/>
<circle cx="1086" cy="490" r="10" class="c0"/>
<circle cx="1072" cy="474" r="10" class="c0"/>
<circle cx="1338" cy="688" r="10" class="c0"/>
<circle cx="950" cy="380" r="10" class="c0"/>
<circle cx="1312" cy="660" r="10" class="c0"/>
<circle cx="1188" cy="690" r="10" class="c0"/>
<circle cx="1466" cy="694" r="10" class="c0"/>
<circle cx="952" cy="666" r="10" class="c0"/>
<circle cx="1040" cy="598" r="10" class="c0"/>
<circle cx="1428" cy="708" r="10" class="c0"/>
<circle cx="1402" cy="650" r="10" class="c0"/>
<circle cx="1226" cy="680" r="10" class="c0"/>
<circle cx="1104" cy="506" r="10" class="c0"/>
<circle cx="692" cy="652" r="10" class="c0"/>
<circle cx="1162" cy="672" r="10" class="c0"/>
<circle cx="820" cy="666" r="10" class="c0"/>
<circle cx="1034" cy="682" r="10" class="c0"/>
<circle cx="1322" cy="622" r="10" class="c0"/>
<circle cx="1028" cy="352" r="10" class="c0"/>
<circle cx="852" cy="668" r="10" class="c0"/>
<circle cx="1124" cy="746" r="10" class="c0"/>
<circle cx="1230" cy="644" r="10" class="c0"/>
<circle cx="1390" cy="714" r="10" class="c0"/>
<circle cx="1112" cy="724" r="10" class="c0"/>
<circle cx="1092" cy="680" r="10" class="c0"/>
<circle cx="1358" cy="746" r="10" class="c0"/>
<circle cx="1004" cy="650" r="10" class="c0"/>
<circle cx="1124" cy="566" r="10" class="c0"/>
<circle cx="1068" cy="710" r="10" class="c0"/>
<circle cx="924" cy="454" r="10" class="c0"/>
<circle cx="1082" cy="660" r="10" class="c0"/>
<circle cx="1294" cy="626" r="10" class="c0"/>
<circle cx="974" cy="652" r="10" class="c0"/>
<circle cx="1202" cy="636" r="10" class="c0"/>
<circle cx="1104" cy="698" r="10" class="c0"/>
<circle cx="1202" cy="704" r="10" class="c0"/>
<circle cx="994" cy="508" r="10" class="c0"/>
<circle cx="974" cy="556" r="10" class="c0"/>
<circle cx="1360" cy="704" r="10" class="c0"/>
<circle cx="1028" cy="380" r="10" class="c0"/>
<circle cx="1070" cy="564" r="10" class="c0"/>
<circle cx="1326" cy="730" r="10" class="c0"/>
<circle cx="1170" cy="610" r="10" class="c0"/>
<circle cx="1100" cy="584" r="10" class="c0"/>
<circle cx="1340" cy="666" r="10" class="c0"/>
<circle cx="1078" cy="602" r="10" class="c0"/>
<circle cx="1008" cy="484" r="10" class="c0"/>
<circle cx="1040" cy="510" r="10" class="c0"/>
<circle cx="1124" cy="670" r="10" class="c0"/>
<circle cx="890" cy="378" r="10" class="c0"/>
<circle cx="1098" cy="454" r="10" class="c0"/>
<circle cx="1442" cy="722" r="10" class="c0"/>
<circle cx="1452" cy="682" r="10" class="c0"/>
<circle cx="1100" cy="548" r="10" class="c0"/>
<circle cx="1060" cy="588" r="10" class="c0"/>
<circle cx="1126" cy="532" r="10" class="c0"/>
<circle cx="1028" cy="654" r="10" class="c0"/>
<circle cx="922" cy="666" r="10" class="c0"/>
<circle cx="962" cy="538" r="10" class="c0"/>
<circle cx="1240" cy="722" r="10" class="c0"/>
<circle cx="1418" cy="634" r="10" class="c0"/>
<circle cx="1116" cy="490" r="10" class="c0"/>
<circle cx="1276" cy="716" r="10" class="c0"/>
<circle cx="1376" cy="626" r="10" class="c0"/>
<circle cx="1028" cy="586" r="10" class="c0"/>
<circle cx="982" cy="342" r="10" class="c0"/>
<circle cx="1070" cy="350" r="10" class="c0"/>
<circle cx="1410" cy="736" r="10" class="c0"/>
<circle cx="1418" cy="690" r="10" class="c0"/>
<circle cx="1054" cy="664" r="10" class="c0"/>
<circle cx="1062" cy="442" r="10" class="c0"/>
<circle cx="1254" cy="664" r="10" class="c0"/>
<circle cx="1060" cy="630" r="10" class="c0"/>
<circle cx="1018" cy="466" r="10" class="c0"/>
<circle cx="1078" cy="426" r="8" class="c0"/>
<circle cx="1096" cy="626" r="8" class="c0"/>
<circle cx="1092" cy="718" r="8" class="c0"/>
<circle cx="868" cy="658" r="8" class="c0"/>
<circle cx="1034" cy="530" r="8" class="c0"/>
<circle cx="1002" cy="528" r="8" class="c0"/>
<circle cx="1422" cy="750" r="8" class="c0"/>
<circle cx="922" cy="400" r="8" class="c0"/>
<circle cx="774" cy="654" r="8" class="c0"/>
<circle cx="1084" cy="740" r="8" class="c0"/>
<circle cx="988" cy="640" r="8" class="c0"/>
<circle cx="1040" cy="702" r="8" class="c0"/>
<circle cx="1152" cy="656" r="8" class="c0"/>
<circle cx="1040" cy="574" r="8" class="c0"/>
<circle cx="1022" cy="328" r="8" class="c0"/>
<circle cx="1412" cy="670" r="8" class="c0"/>
<circle cx="1008" cy="344" r="8" class="c0"/>
<circle cx="1270" cy="634" r="8" class="c0"/>
<circle cx="1274" cy="670" r="8" class="c0"/>
<circle cx="956" cy="510" r="8" class="c0"/>
<circle cx="958" cy="598" r="8" class="c0"/>
<circle cx="668" cy="654" r="8" class="c0"/>
<circle cx="1060" cy="498" r="8" class="c0"/>
<circle cx="976" cy="406" r="8" class="c0"/>
<circle cx="1044" cy="544" r="8" class="c0"/>
<circle cx="624" cy="646" r="8" class="c0"/>
<circle cx="1012" cy="668" r="8" class="c0"/>
<circle cx="1288" cy="732" r="8" class="c0"/>
<circle cx="768" cy="694" r="8" class="c0"/>
<circle cx="1032" cy="484" r="8" class="c0"/>
<circle cx="980" cy="528" r="8" class="c0"/>
<circle cx="1010" cy="362" r="8" class="c0"/>
<circle cx="946" cy="482" r="8" class="c0"/>
<circle cx="716" cy="654" r="8" class="c0"/>
<circle cx="1294" cy="668" r="8" class="c0"/>
<circle cx="1226" cy="706" r="8" class="c0"/>
<circle cx="1050" cy="336" r="8" class="c0"/>
<circle cx="926" cy="644" r="8" class="c0"/>
<circle cx="1046" cy="370" r="8" class="c0"/>
<circle cx="670" cy="674" r="8" class="c0"/>
<circle cx="792" cy="704" r="8" class="c0"/>
<circle cx="784" cy="664" r="8" class="c0"/>
<circle cx="1004" cy="698" r="8" class="c0"/>
<circle cx="1102" cy="750" r="8" class="c0"/>
<circle cx="1126" cy="622" r="8" class="c0"/>
<circle cx="752" cy="662" r="8" class="c0"/>
<circle cx="950" cy="402" r="8" class="c0"/>
<circle cx="970" cy="388" r="8" class="c0"/>
<circle cx="888" cy="672" r="8" class="c0"/>
<circle cx="744" cy="680" r="8" class="c0"/>
<circle cx="1424" cy="656" r="8" class="c0"/>
<circle cx="1160" cy="592" r="8" class="c0"/>
<circle cx="1040" cy="422" r="8" class="c0"/>
<circle cx="1342" cy="718" r="8" class="c0"/>
<circle cx="1462" cy="718" r="8" class="c0"/>
<circle cx="964" cy="578" r="8" class="c0"/>
<circle cx="1066" cy="682" r="8" class="c0"/>
<circle cx="1448" cy="702" r="8" class="c0"/>
<circle cx="1144" cy="486" r="8" class="c0"/>
<circle cx="1020" cy="514" r="8" class="c0"/>
<circle cx="946" cy="620" r="8" class="c0"/>
<circle cx="1124" cy="704" r="8" class="c0"/>
<circle cx="1102" cy="474" r="8" class="c0"/>
<circle cx="920" cy="352" r="8" class="c0"/>
<circle cx="1380" cy="652" r="8" class="c0"/>
<circle cx="1352" cy="616" r="8" class="c0"/>
<circle cx="986" cy="452" r="8" class="c0"/>
<circle cx="1078" cy="510" r="8" class="c0"/>
<circle cx="1052" cy="410" r="8" class="c0"/>
<circle cx="1406" cy="764" r="8" class="c0"/>
<circle cx="1132" cy="646" r="8" class="c0"/>
<circle cx="810" cy="722" r="8" class="c0"/>
<circle cx="1076" cy="692" r="8" class="c0"/>
<circle cx="1096" cy="368" r="8" class="c0"/>
<circle cx="976" cy="442" r="8" class="c0"/>
<circle cx="940" cy="464" r="8" class="c0"/>
<circle cx="1250" cy="634" r="8" class="c0"/>
<circle cx="1028" cy="406" r="8" class="c0"/>
<circle cx="1084" cy="636" r="8" class="c0"/>
<circle cx="1230" cy="608" r="8" class="c0"/>
<circle cx="1320" cy="680" r="8" class="c0"/>
<circle cx="1264" cy="682" r="8" class="c0"/>
<circle cx="1050" cy="562" r="8" class="c0"/>
<circle cx="958" cy="704" r="8" class="c0"/>
<circle cx="1022" cy="700" r="8" class="c0"/>
<circle cx="914" cy="332" r="8" class="c0"/>
<circle cx="988" cy="416" r="8" class="c0"/>
<circle cx="1430" cy="734" r="8" class="c0"/>
<circle cx="1138" cy="586" r="8" class="c0"/>
<circle cx="1196" cy="600" r="8" class="c0"/>
<circle cx="1370" cy="734" r="8" class="c0"/>
<circle cx="718" cy="674" r="8" class="c0"/>
<circle cx="838" cy="656" r="8" class="c0"/>
<circle cx="1460" cy="738" r="8" class="c0"/>
<circle cx="964" cy="366" r="8" class="c0"/>
<circle cx="1044" cy="644" r="8" class="c0"/>
<circle cx="912" cy="466" r="8" class="c0"/>
<circle cx="1320" cy="708" r="8" class="c0"/>
<circle cx="946" cy="360" r="8" class="c0"/>
<circle cx="1176" cy="704" r="8" class="c0"/>
<circle cx="1080" cy="760" r="8" class="c0"/>
<circle cx="1396" cy="624" r="8" class="c0"/>
<circle cx="988" cy="362" r="8" class="c0"/>
<circle cx="1090" cy="566" r="8" class="c0"/>
<circle cx="1290" cy="686" r="8" class="c0"/>
<circle cx="1004" cy="624" r="8" class="c0"/>
<circle cx="1056" cy="610" r="8" class="c0"/>
<circle cx="656" cy="664" r="8" class="c0"/>
<circle cx="1260" cy="644" r="8" class="c0"/>
<circle cx="994" cy="708" r="8" class="c0"/>
<circle cx="706" cy="664" r="8" class="c0"/>
<circle cx="1044" cy="392" r="8" class="c0"/>
<circle cx="992" cy="544" r="8" class="c0"/>
<circle cx="1302" cy="644" r="8" class="c0"/>
<circle cx="998" cy="468" r="8" class="c0"/>
<circle cx="1106" cy="612" r="8" class="c0"/>
<circle cx="996" cy="330" r="8" class="c0"/>
<circle cx="1432" cy="674" r="8" class="c0"/>
<circle cx="1190" cy="620" r="8" class="c0"/>
<circle cx="1278" cy="696" r="8" class="c0"/>
<circle cx="728" cy="664" r="8" class="c0"/>
<circle cx="1402" cy="700" r="8" class="c0"/>
<circle cx="922" cy="476" r="8" class="c0"/>
<circle cx="1212" cy="652" r="8" class="c0"/>
<circle cx="1088" cy="438" r="8" class="c0"/>
<circle cx="900" cy="662" r="8" class="c0"/>
<circle cx="1020" cy="424" r="8" class="c0"/>
<circle cx="936" cy="632" r="8" class="c0"/>
<circle cx="738" cy="648" r="8" class="c0"/>
<circle cx="1378" cy="692" r="8" class="c0"/>
<circle cx="1306" cy="726" r="8" class="c0"/>
<circle cx="934" cy="390" r="8" class="c0"/>
<circle cx="948" cy="688" r="8" class="c0"/>
<circle cx="1214" cy="716" r="8" class="c0"/>
<circle cx="1260" cy="726" r="8" class="c0"/>
<circle cx="794" cy="654" r="8" class="c0"/>
<circle cx="1156" cy="706" r="6" class="c0"/>
<circle cx="1114" cy="684" r="6" class="c0"/>
<circle cx="972" cy="514" r="6" class="c0"/>
<circle cx="1006" cy="378" r="6" class="c0"/>
<circle cx="1080" cy="620" r="6" class="c0"/>
<circle cx="1062" cy="548" r="6" class="c0"/>
<circle cx="688" cy="670" r="6" class="c0"/>
<circle cx="1072" cy="646" r="6" class="c0"/>
<circle cx="940" cy="654" r="6" class="c0"/>
<circle cx="1150" cy="604" r="6" class="c0"/>
<circle cx="1076" cy="456" r="6" class="c0"/>
<circle cx="610" cy="654" r="6" class="c0"/>
<circle cx="876" cy="366" r="6" class="c0"/>
<circle cx="888" cy="328" r="6" class="c0"/>
<circle cx="1392" cy="734" r="6" class="c0"/>
<circle cx="1410" cy="714" r="6" class="c0"/>
<circle cx="1180" cy="594" r="6" class="c0"/>
<circle cx="1108" cy="378" r="6" class="c0"/>
<circle cx="1108" cy="438" r="6" class="c0"/>
<circle cx="1320" cy="644" r="6" class="c0"/>
<circle cx="1104" cy="664" r="6" class="c0"/>
<circle cx="1002" cy="682" r="6" class="c0"/>
<circle cx="1098" cy="428" r="6" class="c0"/>
<circle cx="1114" cy="520" r="6" class="c0"/>
<circle cx="910" cy="390" r="6" class="c0"/>
<circle cx="670" cy="638" r="6" class="c0"/>
<circle cx="1052" cy="354" r="6" class="c0"/>
<circle cx="982" cy="496" r="6" class="c0"/>
<circle cx="870" cy="674" r="6" class="c0"/>
<circle cx="1060" cy="424" r="6" class="c0"/>
<circle cx="1340" cy="740" r="6" class="c0"/>
<circle cx="1120" cy="472" r="6" class="c0"/>
<circle cx="972" cy="712" r="6" class="c0"/>
<circle cx="938" cy="676" r="6" class="c0"/>
<circle cx="1144" cy="670" r="6" class="c0"/>
<circle cx="1022" cy="494" r="6" class="c0"/>
<circle cx="1364" cy="640" r="6" class="c0"/>
<circle cx="1470" cy="674" r="6" class="c0"/>
<circle cx="1080" cy="366" r="6" class="c0"/>
<circle cx="1080" cy="582" r="6" class="c0"/>
<circle cx="1074" cy="728" r="6" class="c0"/>
<circle cx="1236" cy="662" r="6" class="c0"/>
<circle cx="1050" cy="692" r="6" class="c0"/>
<circle cx="908" cy="676" r="6" class="c0"/>
<circle cx="988" cy="480" r="6" class="c0"/>
<circle cx="1020" cy="602" r="6" class="c0"/>
<circle cx="1116" cy="448" r="6" class="c0"/>
<circle cx="1132" cy="550" r="6" class="c0"/>
<circle cx="1214" cy="692" r="6" class="c0"/>
<circle cx="1244" cy="682" r="6" class="c0"/>
<circle cx="940" cy="412" r="6" class="c0"/>
<circle cx="1086" cy="702" r="6" class="c0"/>
<circle cx="1310" cy="692" r="6" class="c0"/>
<circle cx="1168" cy="690" r="6" class="c0"/>
<circle cx="1112" cy="760" r="6" class="c0"/>
<circle cx="1360" cy="724" r="6" class="c0"/>
<circle cx="1372" cy="716" r="6" class="c0"/>
<circle cx="1018" cy="532" r="6" class="c0"/>
<circle cx="956" cy="492" r="6" class="c0"/>
<circle cx="1436" cy="692" r="6" class="c0"/>
<circle cx="1172" cy="628" r="6" class="c0"/>
<circle cx="1016" cy="638" r="6" class="c0"/>
<circle cx="1180" cy="670" r="6" class="c0"/>
<circle cx="802" cy="670" r="6" class="c0"/>
<circle cx="1068" cy="414" r="6" class="c0"/>
<circle cx="994" cy="432" r="6" class="c0"/>
<circle cx="1480" cy="712" r="6" class="c0"/>
<circle cx="1016" cy="684" r="6" class="c0"/>
<circle cx="1388" cy="638" r="6" class="c0"/>
<circle cx="1304" cy="678" r="6" class="c0"/>
<circle cx="1112" cy="464" r="6" class="c0"/>
<circle cx="1016" cy="574" r="6" class="c0"/>
<circle cx="634" cy="656" r="6" class="c0"/>
<circle cx="970" cy="670" r="6" class="c0"/>
<circle cx="1442" cy="662" r="6" class="c0"/>
<circle cx="978" cy="374" r="6" class="c0"/>
<circle cx="1328" cy="652" r="6" class="c0"/>
<circle cx="1356" cy="686" r="6" class="c0"/>
<circle cx="1212" cy="602" r="6" class="c0"/>
<circle cx="810" cy="652" r="6" class="c0"/>
<circle cx="1118" cy="386" r="6" class="c0"/>
<circle cx="1140" cy="710" r="6" class="c0"/>
<circle cx="1002" cy="424" r="6" class="c0"/>
<circle cx="946" cy="500" r="6" class="c0"/>
</svg>
