<?xml version="1.0" encoding="utf-8"?>
<svg xmlns="http://www.w3.org/2000/svg"
     xmlns:xlink="http://www.w3.org/1999/xlink" width="1920" height="1440" >

            <defs>
            <style type="text/css"><![CDATA[
circle {stroke: none;}
.c0 {fill: #FFFFFF;}
]]></style>
            </defs>
<rect x="0" y="0" width="1920" height="1440" fill="black"/>
<circle cx="1404" cy="730" r="12" class="c0"/>
<circle cx="1374" cy="736" r="12" class="c0"/>
<circle cx="1310" cy="620" r="12" class="c0"/>
<circle cx="1432" cy="700" r="12" class="c0"/>
<circle cx="1088" cy="748" r="12" class="c0"/>
<circle cx="1040" cy="524" r="12" class="c0"/>
<circle cx="1248" cy="630" r="12" class="c0"/>
<circle cx="1112" cy="552" r="12" class="c0"/>
<circle cx="1080" cy="574" r="12" class="c0"/>
<circle cx="1204" cy="658" r="12" class="c0"/>
<circle cx="1024" cy="334" r="12" class="c0"/>
<circle cx="972" cy="656" r="12" class="c0"/>
<circle cx="1106" cy="730" r="12" class="c0"/>
<circle cx="1058" cy="554" r="12" class="c0"/>
<circle cx="996" cy="520" r="12" class="c0"/>
<circle cx="1352" cy="626" r="12" class="c0"/>
<circle cx="996" cy="492" r="12" class="c0"/>
<circle cx="1058" cy="630" r="12" class="c0"/>
<circle cx="1276" cy="676" r="12" class="c0"/>
<circle cx="1156" cy="654" r="12" class="c0"/>
<circle cx="642" cy="646" r="12" class="c0"/>
<circle cx="1024" cy="426" r="12" class="c0"/>
<circle cx="1002" cy="360" r="12" class="c0"/>
<circle cx="1096" cy="644" r="10" class="c0"/>
<circle cx="1382" cy="672" r="10" class="c0"/>
<circle cx="1412" cy="660" r="10" class="c0"/>
<circle cx="908" cy="668" r="10" class="c0"/>
<circle cx="1354" cy="698" r="10" class="c0"/>
<circle cx="1090" cy="498" r="10" class="c0"/>
<circle cx="1048" cy="364" r="10" class="c0"/>
<circle cx="1400" cy="684" r="10" class="c0"/>
<circle cx="1124" cy="624" r="10" class="c0"/>
<circle cx="1274" cy="642" r="10" class="c0"/>
<circle cx="1068" cy="422" r="10" class="c0"/>
<circle cx="1086" cy="358" r="10" class="c0"/>
<circle cx="1334" cy="674" r="10" class="c0"/>
<circle cx="950" cy="682" r="10" class="c0"/>
<circle cx="998" cy="452" r="10" class="c0"/>
<circle cx="1184" cy="682" r="10" class="c0"/>
<circle cx="1028" cy="566" r="10" class="c0"/>
<circle cx="1228" cy="704" r="10" class="c0"/>
<circle cx="1018" cy="380" r="10" class="c0"/>
<circle cx="1014" cy="476" r="10" class="c0"/>
<circle cx="1332" cy="716" r="10" class="c0"/>
<circle cx="966" cy="528" r="10" class="c0"/>
<circle cx="1064" cy="684" r="10" class="c0"/>
<circle cx="1112" cy="672" r="10" class="c0"/>
<circle cx="1192" cy="596" r="10" class="c0"/>
<circle cx="1140" cy="694" r="10" class="c0"/>
<circle cx="1310" cy="728" r="10" class="c0"/>
<circle cx="1088" cy="664" r="10" class="c0"/>
<circle cx="956" cy="494" r="10" class="c0"/>
<circle cx="982" cy="338" r="10" class="c0"/>
<circle cx="1024" cy="498" r="10" class="c0"/>
<circle cx="812" cy="658" r="10" class="c0"/>
<circle cx="1112" cy="514" r="10" class="c0"/>
<circle cx="978" cy="704" r="10" class="c0"/>
<circle cx="1110" cy="606" r="10" class="c0"/>
<circle cx="966" cy="418" r="10" class="c0"/>
<circle cx="1468" cy="728" r="10" class="c0"/>
<circle cx="616" cy="642" r="10" class="c0"/>
<circle cx="1328" cy="648" r="10" class="c0"/>
<circle cx="734" cy="644" r="10" class="c0"/>
<circle cx="1102" cy="436" r="10" class="c0"/>
<circle cx="726" cy="670" r="10" class="c0"/>
<circle cx="1188" cy="640" r="10" class="c0"/>
<circle cx="1020" cy="652" r="10" class="c0"/>
<circle cx="1102" cy="704" r="10" class="c0"/>
<circle cx="1042" cy="596" r="10" class="c0"/>
<circle cx="1214" cy="688" r="10" class="c0"/>
<circle cx="1432" cy="726" r="10" class="c0"/>
<circle cx="1424" cy="642" r="10" class="c0"/>
<circle cx="868" cy="660" r="10" class="c0"/>
<circle cx="1372" cy="654" r="10" class="c0"/>
<circle cx="702" cy="650" r="10" class="c0"/>
<circle cx="1054" cy="470" r="10" class="c0"/>
<circle cx="998" cy="668" r="10" class="c0"/>
<circle cx="1096" cy="470" r="10" class="c0"/>
<circle cx="972" cy="366" r="10" class="c0"/>
<circle cx="1470" cy="688" r="10" class="c0"/>
<circle cx="1038" cy="390" r="10" class="c0"/>
<circle cx="1124" cy="594" r="10" class="c0"/>
<circle cx="962" cy="584" r="10" class="c0"/>
<circle cx="960" cy="392" r="10" class="c0"/>
<circle cx="932" cy="456" r="10" class="c0"/>
<circle cx="1248" cy="688" r="10" class="c0"/>
<circle cx="1024" cy="682" r="10" class="c0"/>
<circle cx="1124" cy="528" r="10" class="c0"/>
<circle cx="1130" cy="662" r="10" class="c0"/>
<circle cx="1062" cy="338" r="10" class="c0"/>
<circle cx="778" cy="648" r="10" class="c0"/>
<circle cx="1396" cy="638" r="10" class="c0"/>
<circle cx="1446" cy="674" r="8" class="c0"/>
<circle cx="664" cy="636" r="8" class="c0"/>
<circle cx="892" cy="330" r="8" class="c0"/>
<circle cx="1280" cy="718" r="8" class="c0"/>
<circle cx="908" cy="368" r="8" class="c0"/>
<circle cx="1388" cy="620" r="8" class="c0"/>
<circle cx="1074" cy="710" r="8" class="c0"/>
<circle cx="936" cy="382" r="8" class="c0"/>
<circle cx="946" cy="660" r="8" class="c0"/>
<circle cx="1092" cy="596" r="8" class="c0"/>
<circle cx="754" cy="654" r="8" class="c0"/>
<circle cx="1374" cy="696" r="8" class="c0"/>
<circle cx="928" cy="364" r="8" class="c0"/>
<circle cx="1162" cy="588" r="8" class="c0"/>
<circle cx="1352" cy="726" r="8" class="c0"/>
<circle cx="986" cy="550" r="8" class="c0"/>
<circle cx="1116" cy="748" r="8" class="c0"/>
<circle cx="1054" cy="654" r="8" class="c0"/>
<circle cx="1406" cy="754" r="8" class="c0"/>
<circle cx="1008" cy="396" r="8" class="c0"/>
<circle cx="1042" cy="410" r="8" class="c0"/>
<circle cx="984" cy="684" r="8" class="c0"/>
<circle cx="1004" cy="548" r="8" class="c0"/>
<circle cx="1074" cy="510" r="8" class="c0"/>
<circle cx="1164" cy="684" r="8" class="c0"/>
<circle cx="668" cy="670" r="8" class="c0"/>
<circle cx="1046" cy="488" r="8" class="c0"/>
<circle cx="1050" cy="698" r="8" class="c0"/>
<circle cx="886" cy="352" r="8" class="c0"/>
<circle cx="1042" cy="668" r="8" class="c0"/>
<circle cx="904" cy="340" r="8" class="c0"/>
<circle cx="1058" cy="584" r="8" class="c0"/>
<circle cx="1304" cy="702" r="8" class="c0"/>
<circle cx="984" cy="432" r="8" class="c0"/>
<circle cx="1258" cy="664" r="8" class="c0"/>
<circle cx="1034" cy="624" r="8" class="c0"/>
<circle cx="596" cy="636" r="8" class="c0"/>
<circle cx="1072" cy="610" r="8" class="c0"/>
<circle cx="1376" cy="632" r="8" class="c0"/>
<circle cx="1136" cy="510" r="8" class="c0"/>
<circle cx="1002" cy="624" r="8" class="c0"/>
<circle cx="810" cy="712" r="8" class="c0"/>
<circle cx="924" cy="394" r="8" class="c0"/>
<circle cx="920" cy="348" r="8" class="c0"/>
<circle cx="1130" cy="490" r="8" class="c0"/>
<circle cx="1134" cy="546" r="8" class="c0"/>
<circle cx="1212" cy="638" r="8" class="c0"/>
<circle cx="982" cy="506" r="8" class="c0"/>
<circle cx="1296" cy="654" r="8" class="c0"/>
<circle cx="1302" cy="680" r="8" class="c0"/>
<circle cx="998" cy="382" r="8" class="c0"/>
<circle cx="1226" cy="660" r="8" class="c0"/>
<circle cx="922" cy="656" r="8" class="c0"/>
<circle cx="1004" cy="416" r="8" class="c0"/>
<circle cx="1230" cy="640" r="8" class="c0"/>
<circle cx="1082" cy="434" r="8" class="c0"/>
<circle cx="1048" cy="434" r="8" class="c0"/>
<circle cx="1154" cy="506" r="8" class="c0"/>
<circle cx="1040" cy="458" r="8" class="c0"/>
<circle cx="1196" cy="706" r="8" class="c0"/>
<circle cx="974" cy="566" r="8" class="c0"/>
<circle cx="1068" cy="534" r="8" class="c0"/>
<circle cx="1242" cy="720" r="8" class="c0"/>
<circle cx="1462" cy="708" r="8" class="c0"/>
<circle cx="1174" cy="702" r="8" class="c0"/>
<circle cx="690" cy="662" r="8" class="c0"/>
<circle cx="676" cy="648" r="8" class="c0"/>
<circle cx="1070" cy="460" r="8" class="c0"/>
<circle cx="994" cy="406" r="8" class="c0"/>
<circle cx="1332" cy="614" r="8" class="c0"/>
<circle cx="1116" cy="574" r="8" class="c0"/>
<circle cx="952" cy="374" r="8" class="c0"/>
<circle cx="888" cy="666" r="8" class="c0"/>
<circle cx="1026" cy="358" r="8" class="c0"/>
<circle cx="1074" cy="484" r="8" class="c0"/>
<circle cx="976" cy="402" r="8" class="c0"/>
<circle cx="1386" cy="710" r="8" class="c0"/>
<circle cx="954" cy="606" r="8" class="c0"/>
<circle cx="1098" cy="622" r="8" class="c0"/>
<circle cx="846" cy="660" r="8" class="c0"/>
<circle cx="1322" cy="690" r="8" class="c0"/>
<circle cx="784" cy="692" r="8" class="c0"/>
<circle cx="1016" cy="614" r="8" class="c0"/>
<circle cx="1016" cy="536" r="8" class="c0"/>
<circle cx="1016" cy="702" r="8" class="c0"/>
<circle cx="1362" cy="716" r="8" class="c0"/>
<circle cx="942" cy="478" r="8" class="c0"/>
<circle cx="1060" cy="500" r="8" class="c0"/>
<circle cx="1154" cy="624" r="8" class="c0"/>
<circle cx="1284" cy="626" r="8" class="c0"/>
<circle cx="1116" cy="464" r="8" class="c0"/>
<circle cx="946" cy="404" r="8" class="c0"/>
<circle cx="958" cy="702" r="8" class="c0"/>
<circle cx="1406" cy="704" r="8" class="c0"/>
<circle cx="938" cy="636" r="8" class="c0"/>
<circle cx="1362" cy="670" r="8" class="c0"/>
<circle cx="1136" cy="640" r="8" class="c0"/>
<circle cx="1082" cy="550" r="8" class="c0"/>
<circle cx="1020" cy="450" r="8" class="c0"/>
<circle cx="1082" cy="630" r="8" class="c0"/>
<circle cx="1176" cy="608" r="8" class="c0"/>
<circle cx="1138" cy="576" r="8" class="c0"/>
<circle cx="1002" cy="644" r="8" class="c0"/>
<circle cx="1072" cy="646" r="8" class="c0"/>
<circle cx="1202" cy="620" r="8" class="c0"/>
<circle cx="1268" cy="696" r="8" class="c0"/>
<circle cx="1342" cy="738" r="8" class="c0"/>
<circle cx="1060" cy="444" r="8" class="c0"/>
<circle cx="1414" cy="626" r="8" class="c0"/>
<circle cx="1172" cy="666" r="8" class="c0"/>
<circle cx="1110" cy="486" r="8" class="c0"/>
<circle cx="1436" cy="654" r="8" class="c0"/>
<circle cx="1086" cy="722" r="8" class="c0"/>
<circle cx="1316" cy="666" r="8" class="c0"/>
<circle cx="1420" cy="744" r="8" class="c0"/>
<circle cx="1104" cy="586" r="8" class="c0"/>
<circle cx="756" cy="676" r="8" class="c0"/>
<circle cx="1248" cy="654" r="8" class="c0"/>
<circle cx="1130" cy="710" r="8" class="c0"/>
<circle cx="1036" cy="546" r="8" class="c0"/>
<circle cx="1236" cy="676" r="8" class="c0"/>
<circle cx="1000" cy="326" r="8" class="c0"/>
<circle cx="1290" cy="692" r="8" class="c0"/>
<circle cx="1128" cy="738" r="8" class="c0"/>
<circle cx="1088" cy="692" r="8" class="c0"/>
<circle cx="1424" cy="678" r="8" class="c0"/>
<circle cx="1042" cy="644" r="8" class="c0"/>
<circle cx="932" cy="672" r="8" class="c0"/>
<circle cx="1142" cy="674" r="8" class="c0"/>
<circle cx="890" cy="370" r="8" class="c0"/>
<circle cx="1306" cy="642" r="8" class="c0"/>
<circle cx="1348" cy="660" r="8" class="c0"/>
<circle cx="1262" cy="716" r="8" class="c0"/>
<circle cx="690" cy="638" r="8" class="c0"/>
<circle cx="1238" cy="602" r="8" class="c0"/>
<circle cx="980" cy="384" r="8" class="c0"/>
<circle cx="1000" cy="694" r="8" class="c0"/>
<circle cx="1066" cy="664" r="8" class="c0"/>
<circle cx="950" cy="356" r="8" class="c0"/>
<circle cx="1114" cy="652" r="8" class="c0"/>
<circle cx="1104" cy="372" r="8" class="c0"/>
<circle cx="1116" cy="692" r="8" class="c0"/>
<circle cx="990" cy="634" r="8" class="c0"/>
<circle cx="1034" cy="478" r="8" class="c0"/>
<circle cx="1376" cy="758" r="8" class="c0"/>
<circle cx="1046" cy="328" r="8" class="c0"/>
<circle cx="658" cy="660" r="8" class="c0"/>
<circle cx="1054" cy="400" r="8" class="c0"/>
<circle cx="916" cy="330" r="8" class="c0"/>
<circle cx="1164" cy="634" r="8" class="c0"/>
<circle cx="1466" cy="668" r="6" class="c0"/>
<circle cx="1390" cy="748" r="6" class="c0"/>
<circle cx="1090" cy="420" r="6" class="c0"/>
<circle cx="1126" cy="564" r="6" class="c0"/>
<circle cx="1120" cy="442" r="6" class="c0"/>
<circle cx="1140" cy="616" r="6" class="c0"/>
<circle cx="768" cy="662" r="6" class="c0"/>
<circle cx="1368" cy="614" r="6" class="c0"/>
<circle cx="796" cy="646" r="6" class="c0"/>
<circle cx="1394" cy="658" r="6" class="c0"/>
<circle cx="1046" cy="346" r="6" class="c0"/>
<circle cx="708" cy="668" r="6" class="c0"/>
<circle cx="1416" cy="714" r="6" class="c0"/>
<circle cx="1452" cy="696" r="6" class="c0"/>
<circle cx="968" cy="546" r="6" class="c0"/>
<circle cx="1356" cy="646" r="6" class="c0"/>
<circle cx="714" cy="638" r="6" class="c0"/>
<circle cx="1060" cy="600" r="6" class="c0"/>
<circle cx="794" cy="702" r="6" class="c0"/>
<circle cx="830" cy="650" r="6" class="c0"/>
<circle cx="1024" cy="598" r="6" class="c0"/>
<circle cx="1478" cy="712" r="6" class="c0"/>
<circle cx="944" cy="616" r="6" class="c0"/>
<circle cx="1016" cy="634" r="6" class="c0"/>
<circle cx="922" cy="470" r="6" class="c0"/>
<circle cx="1212" cy="712" r="6" class="c0"/>
<circle cx="1100" cy="568" r="6" class="c0"/>
<circle cx="630" cy="632" r="6" class="c0"/>
<circle cx="1156" cy="702" r="6" class="c0"/>
<circle cx="968" cy="676" r="6" class="c0"/>
<circle cx="1088" cy="454" r="6" class="c0"/>
<circle cx="1132" cy="474" r="6" class="c0"/>
<circle cx="972" cy="444" r="6" class="c0"/>
<circle cx="1112" cy="636" r="6" class="c0"/>
<circle cx="1046" cy="572" r="6" class="c0"/>
<circle cx="1268" cy="622" r="6" class="c0"/>
<circle cx="1032" cy="700" r="6" class="c0"/>
<circle cx="1026" cy="584" r="6" class="c0"/>
<circle cx="1076" cy="594" r="6" class="c0"/>
<circle cx="788" cy="664" r="6" class="c0"/>
<circle cx="1020" cy="406" r="6" class="c0"/>
<circle cx="1450" cy="732" r="6" class="c0"/>
<circle cx="1052" cy="610" r="6" class="c0"/>
<circle cx="920" cy="378" r="6" class="c0"/>
<circle cx="1148" cy="488" r="6" class="c0"/>
<circle cx="1252" cy="706" r="6" class="c0"/>
<circle cx="1088" cy="612" r="6" class="c0"/>
<circle cx="1142" cy="592" r="6" class="c0"/>
<circle cx="1218" cy="598" r="6" class="c0"/>
<circle cx="1128" cy="682" r="6" class="c0"/>
<circle cx="1010" cy="438" r="6" class="c0"/>
<circle cx="828" cy="666" r="6" class="c0"/>
<circle cx="1034" cy="442" r="6" class="c0"/>
<circle cx="1060" cy="520" r="6" class="c0"/>
<circle cx="1352" cy="680" r="6" class="c0"/>
<circle cx="1448" cy="716" r="6" class="c0"/>
<circle cx="1008" cy="506" r="6" class="c0"/>
<circle cx="914" cy="462" r="6" class="c0"/>
<circle cx="1016" cy="514" r="6" class="c0"/>
<circle cx="1068" cy="356" r="6" class="c0"/>
<circle cx="910" cy="386" r="6" class="c0"/>
<circle cx="1106" cy="454" r="6" class="c0"/>
<circle cx="1290" cy="730" r="6" class="c0"/>
<circle cx="1044" cy="504" r="6" class="c0"/>
<circle cx="740" cy="680" r="6" class="c0"/>
<circle cx="964" cy="510" r="6" class="c0"/>
<circle cx="1360" cy="748" r="6" class="c0"/>
<circle cx="944" cy="444" r="6" class="c0"/>
<circle cx="1330" cy="630" r="6" class="c0"/>
<circle cx="1114" cy="382" r="6" class="c0"/>
<circle cx="1106" cy="532" r="6" class="c0"/>
<circle cx="952" cy="644" r="6" class="c0"/>
<circle cx="766" cy="688" r="6" class="c0"/>
<circle cx="898" cy="654" r="6" class="c0"/>
<circle cx="1326" cy="736" r="6" class="c0"/>
<circle cx="1098" cy="682" r="6" class="c0"/>
<circle cx="984" cy="534" r="6" class="c0"/>
<circle cx="1296" cy="716" r="6" class="c0"/>
<circle cx="968" cy="348" r="6" class="c0"/>
<circle cx="1092" cy="560" r="6" class="c0"/>
<circle cx="744" cy="666" r="6" class="c0"/>
<circle cx="606" cy="626" r="6" class="c0"/>
</svg>
