<?xml version="1.0" encoding="utf-8"?>
<svg xmlns="http://www.w3.org/2000/svg"
     xmlns:xlink="http://www.w3.org/1999/xlink" width="1920" height="1440" >

            <defs>
            <style type="text/css"><![CDATA[
circle {stroke: none;}
.c0 {fill: #FFFFFF;}
]]></style>
            </defs>
<rect x="0" y="0" width="1920" height="1440" fill="black"/>
<circle cx="1072" cy="458" r="12" class="c0"/>
<circle cx="1286" cy="616" r="12" class="c0"/>
<circle cx="1120" cy="668" r="12" class="c0"/>
<circle cx="1388" cy="694" r="12" class="c0"/>
<circle cx="1050" cy="562" r="12" class="c0"/>
<circle cx="1138" cy="552" r="12" class="c0"/>
<circle cx="1144" cy="480" r="12" class="c0"/>
<circle cx="1010" cy="504" r="12" class="c0"/>
<circle cx="1124" cy="506" r="12" class="c0"/>
<circle cx="922" cy="328" r="12" class="c0"/>
<circle cx="974" cy="490" r="12" class="c0"/>
<circle cx="1012" cy="472" r="12" class="c0"/>
<circle cx="1102" cy="586" r="12" class="c0"/>
<circle cx="1028" cy="624" r="12" class="c0"/>
<circle cx="1418" cy="646" r="12" class="c0"/>
<circle cx="1036" cy="320" r="10" class="c0"/>
<circle cx="1406" cy="714" r="10" class="c0"/>
<circle cx="1250" cy="694" r="10" class="c0"/>
<circle cx="806" cy="642" r="10" class="c0"/>
<circle cx="874" cy="646" r="10" class="c0"/>
<circle cx="950" cy="310" r="10" class="c0"/>
<circle cx="1122" cy="464" r="10" class="c0"/>
<circle cx="1038" cy="478" r="10" class="c0"/>
<circle cx="656" cy="630" r="10" class="c0"/>
<circle cx="984" cy="358" r="10" class="c0"/>
<circle cx="946" cy="632" r="10" class="c0"/>
<circle cx="1030" cy="436" r="10" class="c0"/>
<circle cx="1030" cy="648" r="10" class="c0"/>
<circle cx="968" cy="402" r="10" class="c0"/>
<circle cx="1080" cy="426" r="10" class="c0"/>
<circle cx="1102" cy="448" r="10" class="c0"/>
<circle cx="1048" cy="454" r="10" class="c0"/>
<circle cx="1152" cy="614" r="10" class="c0"/>
<circle cx="1278" cy="648" r="10" class="c0"/>
<circle cx="1344" cy="698" r="10" class="c0"/>
<circle cx="1030" cy="386" r="10" class="c0"/>
<circle cx="1060" cy="338" r="10" class="c0"/>
<circle cx="1370" cy="728" r="10" class="c0"/>
<circle cx="1334" cy="658" r="10" class="c0"/>
<circle cx="1478" cy="666" r="10" class="c0"/>
<circle cx="1116" cy="620" r="10" class="c0"/>
<circle cx="1474" cy="702" r="10" class="c0"/>
<circle cx="1206" cy="652" r="10" class="c0"/>
<circle cx="1152" cy="646" r="10" class="c0"/>
<circle cx="1120" cy="730" r="10" class="c0"/>
<circle cx="998" cy="412" r="10" class="c0"/>
<circle cx="1088" cy="548" r="10" class="c0"/>
<circle cx="938" cy="656" r="10" class="c0"/>
<circle cx="1270" cy="670" r="10" class="c0"/>
<circle cx="988" cy="540" r="10" class="c0"/>
<circle cx="1064" cy="400" r="10" class="c0"/>
<circle cx="1052" cy="518" r="10" class="c0"/>
<circle cx="1120" cy="700" r="10" class="c0"/>
<circle cx="1030" cy="540" r="10" class="c0"/>
<circle cx="1222" cy="696" r="10" class="c0"/>
<circle cx="852" cy="650" r="10" class="c0"/>
<circle cx="1062" cy="630" r="10" class="c0"/>
<circle cx="1000" cy="346" r="10" class="c0"/>
<circle cx="1072" cy="678" r="10" class="c0"/>
<circle cx="986" cy="682" r="10" class="c0"/>
<circle cx="1316" cy="676" r="10" class="c0"/>
<circle cx="974" cy="644" r="10" class="c0"/>
<circle cx="994" cy="386" r="10" class="c0"/>
<circle cx="1028" cy="342" r="10" class="c0"/>
<circle cx="1152" cy="506" r="10" class="c0"/>
<circle cx="930" cy="358" r="10" class="c0"/>
<circle cx="734" cy="648" r="10" class="c0"/>
<circle cx="1372" cy="636" r="10" class="c0"/>
<circle cx="1188" cy="678" r="10" class="c0"/>
<circle cx="1066" cy="490" r="10" class="c0"/>
<circle cx="1078" cy="608" r="10" class="c0"/>
<circle cx="1008" cy="326" r="10" class="c0"/>
<circle cx="1272" cy="708" r="10" class="c0"/>
<circle cx="1032" cy="596" r="10" class="c0"/>
<circle cx="1096" cy="722" r="10" class="c0"/>
<circle cx="952" cy="380" r="10" class="c0"/>
<circle cx="1120" cy="422" r="10" class="c0"/>
<circle cx="1396" cy="620" r="10" class="c0"/>
<circle cx="1360" cy="602" r="10" class="c0"/>
<circle cx="1238" cy="628" r="8" class="c0"/>
<circle cx="1188" cy="586" r="8" class="c0"/>
<circle cx="902" cy="350" r="8" class="c0"/>
<circle cx="1216" cy="674" r="8" class="c0"/>
<circle cx="1112" cy="540" r="8" class="c0"/>
<circle cx="1048" cy="672" r="8" class="c0"/>
<circle cx="1022" cy="520" r="8" class="c0"/>
<circle cx="762" cy="642" r="8" class="c0"/>
<circle cx="612" cy="624" r="8" class="c0"/>
<circle cx="1008" cy="682" r="8" class="c0"/>
<circle cx="1292" cy="662" r="8" class="c0"/>
<circle cx="1342" cy="630" r="8" class="c0"/>
<circle cx="898" cy="330" r="8" class="c0"/>
<circle cx="1316" cy="708" r="8" class="c0"/>
<circle cx="938" cy="432" r="8" class="c0"/>
<circle cx="678" cy="632" r="8" class="c0"/>
<circle cx="1078" cy="510" r="8" class="c0"/>
<circle cx="1418" cy="734" r="8" class="c0"/>
<circle cx="1130" cy="582" r="8" class="c0"/>
<circle cx="704" cy="636" r="8" class="c0"/>
<circle cx="1420" cy="688" r="8" class="c0"/>
<circle cx="1164" cy="664" r="8" class="c0"/>
<circle cx="1304" cy="644" r="8" class="c0"/>
<circle cx="1206" cy="630" r="8" class="c0"/>
<circle cx="1100" cy="680" r="8" class="c0"/>
<circle cx="1004" cy="526" r="8" class="c0"/>
<circle cx="1394" cy="648" r="8" class="c0"/>
<circle cx="1302" cy="694" r="8" class="c0"/>
<circle cx="960" cy="358" r="8" class="c0"/>
<circle cx="984" cy="428" r="8" class="c0"/>
<circle cx="830" cy="694" r="8" class="c0"/>
<circle cx="1394" cy="730" r="8" class="c0"/>
<circle cx="1148" cy="576" r="8" class="c0"/>
<circle cx="1056" cy="372" r="8" class="c0"/>
<circle cx="1116" cy="560" r="8" class="c0"/>
<circle cx="1028" cy="414" r="8" class="c0"/>
<circle cx="1136" cy="688" r="8" class="c0"/>
<circle cx="970" cy="576" r="8" class="c0"/>
<circle cx="1314" cy="632" r="8" class="c0"/>
<circle cx="786" cy="676" r="8" class="c0"/>
<circle cx="1060" cy="420" r="8" class="c0"/>
<circle cx="1060" cy="656" r="8" class="c0"/>
<circle cx="966" cy="686" r="8" class="c0"/>
<circle cx="1444" cy="722" r="8" class="c0"/>
<circle cx="1208" cy="604" r="8" class="c0"/>
<circle cx="1106" cy="644" r="8" class="c0"/>
<circle cx="1074" cy="564" r="8" class="c0"/>
<circle cx="1254" cy="646" r="8" class="c0"/>
<circle cx="1440" cy="704" r="8" class="c0"/>
<circle cx="940" cy="458" r="8" class="c0"/>
<circle cx="1096" cy="616" r="8" class="c0"/>
<circle cx="1456" cy="664" r="8" class="c0"/>
<circle cx="1152" cy="674" r="8" class="c0"/>
<circle cx="1006" cy="650" r="8" class="c0"/>
<circle cx="682" cy="658" r="8" class="c0"/>
<circle cx="1090" cy="410" r="8" class="c0"/>
<circle cx="1328" cy="608" r="8" class="c0"/>
<circle cx="1336" cy="716" r="8" class="c0"/>
<circle cx="1048" cy="610" r="8" class="c0"/>
<circle cx="1242" cy="676" r="8" class="c0"/>
<circle cx="1170" cy="576" r="8" class="c0"/>
<circle cx="1428" cy="672" r="8" class="c0"/>
<circle cx="1088" cy="640" r="8" class="c0"/>
<circle cx="1100" cy="492" r="8" class="c0"/>
<circle cx="1070" cy="536" r="8" class="c0"/>
<circle cx="1374" cy="678" r="8" class="c0"/>
<circle cx="906" cy="300" r="8" class="c0"/>
<circle cx="1364" cy="662" r="8" class="c0"/>
<circle cx="900" cy="648" r="8" class="c0"/>
<circle cx="960" cy="658" r="8" class="c0"/>
<circle cx="1090" cy="666" r="8" class="c0"/>
<circle cx="1310" cy="614" r="8" class="c0"/>
<circle cx="1140" cy="660" r="8" class="c0"/>
<circle cx="1186" cy="632" r="8" class="c0"/>
<circle cx="1260" cy="612" r="8" class="c0"/>
<circle cx="976" cy="516" r="8" class="c0"/>
<circle cx="996" cy="628" r="8" class="c0"/>
<circle cx="1404" cy="672" r="8" class="c0"/>
<circle cx="1098" cy="472" r="8" class="c0"/>
<circle cx="1148" cy="528" r="8" class="c0"/>
<circle cx="960" cy="594" r="8" class="c0"/>
<circle cx="810" cy="686" r="8" class="c0"/>
<circle cx="1166" cy="492" r="8" class="c0"/>
<circle cx="1408" cy="746" r="8" class="c0"/>
<circle cx="1086" cy="332" r="8" class="c0"/>
<circle cx="1410" cy="606" r="8" class="c0"/>
<circle cx="1164" cy="690" r="8" class="c0"/>
<circle cx="1440" cy="640" r="8" class="c0"/>
<circle cx="1266" cy="634" r="8" class="c0"/>
<circle cx="1058" cy="588" r="8" class="c0"/>
<circle cx="1046" cy="352" r="8" class="c0"/>
<circle cx="978" cy="560" r="8" class="c0"/>
<circle cx="1024" cy="672" r="8" class="c0"/>
<circle cx="1228" cy="644" r="8" class="c0"/>
<circle cx="1226" cy="664" r="8" class="c0"/>
<circle cx="972" cy="378" r="8" class="c0"/>
<circle cx="1004" cy="366" r="8" class="c0"/>
<circle cx="986" cy="334" r="8" class="c0"/>
<circle cx="824" cy="650" r="8" class="c0"/>
<circle cx="1010" cy="432" r="8" class="c0"/>
<circle cx="1138" cy="628" r="8" class="c0"/>
<circle cx="1202" cy="690" r="8" class="c0"/>
<circle cx="1030" cy="362" r="8" class="c0"/>
<circle cx="1282" cy="690" r="8" class="c0"/>
<circle cx="952" cy="444" r="8" class="c0"/>
<circle cx="1128" cy="646" r="8" class="c0"/>
<circle cx="1106" cy="348" r="8" class="c0"/>
<circle cx="1064" cy="318" r="8" class="c0"/>
<circle cx="634" cy="622" r="8" class="c0"/>
<circle cx="1226" cy="610" r="8" class="c0"/>
<circle cx="1444" cy="684" r="8" class="c0"/>
<circle cx="928" cy="446" r="8" class="c0"/>
<circle cx="780" cy="644" r="8" class="c0"/>
<circle cx="962" cy="474" r="8" class="c0"/>
<circle cx="1366" cy="700" r="8" class="c0"/>
<circle cx="1182" cy="654" r="8" class="c0"/>
<circle cx="926" cy="642" r="8" class="c0"/>
<circle cx="1354" cy="718" r="8" class="c0"/>
<circle cx="1140" cy="738" r="8" class="c0"/>
<circle cx="1428" cy="618" r="8" class="c0"/>
<circle cx="1038" cy="682" r="8" class="c0"/>
<circle cx="1040" cy="404" r="8" class="c0"/>
<circle cx="1464" cy="680" r="8" class="c0"/>
<circle cx="1168" cy="630" r="8" class="c0"/>
<circle cx="1348" cy="670" r="8" class="c0"/>
<circle cx="1238" cy="654" r="8" class="c0"/>
<circle cx="1172" cy="594" r="8" class="c0"/>
<circle cx="692" cy="646" r="8" class="c0"/>
<circle cx="764" cy="660" r="8" class="c0"/>
<circle cx="1088" cy="692" r="8" class="c0"/>
<circle cx="834" cy="640" r="8" class="c0"/>
<circle cx="1176" cy="614" r="8" class="c0"/>
<circle cx="1032" cy="508" r="8" class="c0"/>
<circle cx="792" cy="656" r="8" class="c0"/>
<circle cx="1094" cy="742" r="8" class="c0"/>
<circle cx="1098" cy="702" r="8" class="c0"/>
<circle cx="1008" cy="616" r="8" class="c0"/>
<circle cx="1122" cy="600" r="8" class="c0"/>
<circle cx="1058" cy="438" r="8" class="c0"/>
<circle cx="948" cy="338" r="8" class="c0"/>
<circle cx="1126" cy="530" r="8" class="c0"/>
<circle cx="1374" cy="614" r="8" class="c0"/>
<circle cx="1012" cy="400" r="8" class="c0"/>
<circle cx="1352" cy="642" r="8" class="c0"/>
<circle cx="1384" cy="716" r="8" class="c0"/>
<circle cx="1122" cy="442" r="8" class="c0"/>
<circle cx="1080" cy="584" r="8" class="c0"/>
<circle cx="1476" cy="724" r="8" class="c0"/>
<circle cx="1112" cy="482" r="8" class="c0"/>
<circle cx="1158" cy="566" r="8" class="c0"/>
<circle cx="982" cy="662" r="8" class="c0"/>
<circle cx="1020" cy="452" r="8" class="c0"/>
<circle cx="1298" cy="714" r="8" class="c0"/>
<circle cx="1042" cy="424" r="8" class="c0"/>
<circle cx="1486" cy="688" r="8" class="c0"/>
<circle cx="752" cy="632" r="8" class="c0"/>
<circle cx="1226" cy="584" r="6" class="c0"/>
<circle cx="1382" cy="664" r="6" class="c0"/>
<circle cx="1084" cy="494" r="6" class="c0"/>
<circle cx="1134" cy="716" r="6" class="c0"/>
<circle cx="1314" cy="656" r="6" class="c0"/>
<circle cx="1454" cy="712" r="6" class="c0"/>
<circle cx="1138" cy="602" r="6" class="c0"/>
<circle cx="1240" cy="590" r="6" class="c0"/>
<circle cx="1298" cy="678" r="6" class="c0"/>
<circle cx="1056" cy="470" r="6" class="c0"/>
<circle cx="964" cy="342" r="6" class="c0"/>
<circle cx="746" cy="660" r="6" class="c0"/>
<circle cx="1434" cy="656" r="6" class="c0"/>
<circle cx="732" cy="628" r="6" class="c0"/>
<circle cx="1118" cy="358" r="6" class="c0"/>
<circle cx="1044" cy="636" r="6" class="c0"/>
<circle cx="1090" cy="570" r="6" class="c0"/>
<circle cx="1428" cy="716" r="6" class="c0"/>
<circle cx="1080" cy="626" r="6" class="c0"/>
<circle cx="716" cy="646" r="6" class="c0"/>
<circle cx="1012" cy="634" r="6" class="c0"/>
<circle cx="1356" cy="686" r="6" class="c0"/>
<circle cx="1046" cy="494" r="6" class="c0"/>
<circle cx="994" cy="514" r="6" class="c0"/>
<circle cx="1106" cy="412" r="6" class="c0"/>
<circle cx="1326" cy="694" r="6" class="c0"/>
<circle cx="956" cy="618" r="6" class="c0"/>
<circle cx="1078" cy="654" r="6" class="c0"/>
<circle cx="1100" cy="430" r="6" class="c0"/>
<circle cx="1080" cy="526" r="6" class="c0"/>
<circle cx="1194" cy="618" r="6" class="c0"/>
<circle cx="1204" cy="584" r="6" class="c0"/>
<circle cx="994" cy="480" r="6" class="c0"/>
<circle cx="1024" cy="490" r="6" class="c0"/>
<circle cx="1454" cy="696" r="6" class="c0"/>
<circle cx="718" cy="626" r="6" class="c0"/>
<circle cx="626" cy="636" r="6" class="c0"/>
<circle cx="932" cy="306" r="6" class="c0"/>
<circle cx="1358" cy="622" r="6" class="c0"/>
<circle cx="1382" cy="742" r="6" class="c0"/>
<circle cx="916" cy="656" r="6" class="c0"/>
<circle cx="1042" cy="582" r="6" class="c0"/>
<circle cx="1016" cy="376" r="6" class="c0"/>
<circle cx="696" cy="622" r="6" class="c0"/>
<circle cx="1082" cy="396" r="6" class="c0"/>
<circle cx="1016" cy="354" r="6" class="c0"/>
<circle cx="1252" cy="664" r="6" class="c0"/>
<circle cx="1434" cy="736" r="6" class="c0"/>
<circle cx="1082" cy="478" r="6" class="c0"/>
<circle cx="1106" cy="606" r="6" class="c0"/>
<circle cx="1390" cy="602" r="6" class="c0"/>
<circle cx="1324" cy="642" r="6" class="c0"/>
<circle cx="1050" cy="390" r="6" class="c0"/>
<circle cx="1070" cy="646" r="6" class="c0"/>
<circle cx="668" cy="644" r="6" class="c0"/>
<circle cx="1052" cy="538" r="6" class="c0"/>
<circle cx="960" cy="458" r="6" class="c0"/>
<circle cx="1130" cy="372" r="6" class="c0"/>
<circle cx="1018" cy="606" r="6" class="c0"/>
<circle cx="1338" cy="680" r="6" class="c0"/>
<circle cx="986" cy="506" r="6" class="c0"/>
<circle cx="934" cy="378" r="6" class="c0"/>
<circle cx="1062" cy="692" r="6" class="c0"/>
<circle cx="1344" cy="614" r="6" class="c0"/>
<circle cx="1414" cy="626" r="6" class="c0"/>
<circle cx="1084" cy="444" r="6" class="c0"/>
<circle cx="1216" cy="620" r="6" class="c0"/>
<circle cx="1000" cy="668" r="6" class="c0"/>
<circle cx="912" cy="362" r="6" class="c0"/>
<circle cx="772" cy="630" r="6" class="c0"/>
<circle cx="1030" cy="462" r="6" class="c0"/>
<circle cx="1028" cy="558" r="6" class="c0"/>
<circle cx="1342" cy="600" r="6" class="c0"/>
<circle cx="1018" cy="312" r="6" class="c0"/>
<circle cx="1024" cy="690" r="6" class="c0"/>
<circle cx="1290" cy="636" r="6" class="c0"/>
<circle cx="1060" cy="546" r="6" class="c0"/>
<circle cx="668" cy="618" r="6" class="c0"/>
<circle cx="792" cy="632" r="6" class="c0"/>
<circle cx="954" cy="428" r="6" class="c0"/>
<circle cx="998" cy="694" r="6" class="c0"/>
<circle cx="1238" cy="708" r="6" class="c0"/>
<circle cx="1140" cy="460" r="6" class="c0"/>
<circle cx="1456" cy="644" r="6" class="c0"/>
<circle cx="1146" cy="594" r="6" class="c0"/>
<circle cx="1100" cy="400" r="6" class="c0"/>
<circle cx="1100" cy="562" r="6" class="c0"/>
<circle cx="1064" cy="356" r="6" class="c0"/>
<circle cx="1138" cy="518" r="6" class="c0"/>
<circle cx="600" cy="614" r="6" class="c0"/>
<circle cx="1254" cy="594" r="6" class="c0"/>
<circle cx="1242" cy="612" r="6" class="c0"/>
</svg>
