<?xml version="1.0" encoding="utf-8"?>
<svg xmlns="http://www.w3.org/2000/svg"
     xmlns:xlink="http://www.w3.org/1999/xlink" width="1920" height="1440" >

            <defs>
            <style type="text/css"><![CDATA[
circle {stroke: none;}
.c0 {fill: #FFFFFF;}
]]></style>
            </defs>
<rect x="0" y="0" width="1920" height="1440" fill="black"/>
<circle cx="1004" cy="654" r="14" class="c0"/>
<circle cx="1042" cy="452" r="12" class="c0"/>
<circle cx="1092" cy="440" r="12" class="c0"/>
<circle cx="1052" cy="526" r="12" class="c0"/>
<circle cx="1058" cy="572" r="12" class="c0"/>
<circle cx="1000" cy="376" r="12" class="c0"/>
<circle cx="1150" cy="446" r="12" class="c0"/>
<circle cx="1028" cy="468" r="12" class="c0"/>
<circle cx="1376" cy="688" r="12" class="c0"/>
<circle cx="980" cy="564" r="12" class="c0"/>
<circle cx="1220" cy="666" r="12" class="c0"/>
<circle cx="1466" cy="664" r="12" class="c0"/>
<circle cx="1050" cy="426" r="12" class="c0"/>
<circle cx="1136" cy="724" r="12" class="c0"/>
<circle cx="1150" cy="506" r="12" class="c0"/>
<circle cx="1004" cy="346" r="12" class="c0"/>
<circle cx="1084" cy="328" r="12" class="c0"/>
<circle cx="1356" cy="600" r="12" class="c0"/>
<circle cx="1412" cy="712" r="12" class="c0"/>
<circle cx="1274" cy="682" r="12" class="c0"/>
<circle cx="1154" cy="554" r="10" class="c0"/>
<circle cx="1378" cy="622" r="10" class="c0"/>
<circle cx="990" cy="508" r="10" class="c0"/>
<circle cx="1126" cy="472" r="10" class="c0"/>
<circle cx="728" cy="626" r="10" class="c0"/>
<circle cx="1046" cy="362" r="10" class="c0"/>
<circle cx="1186" cy="664" r="10" class="c0"/>
<circle cx="1480" cy="694" r="10" class="c0"/>
<circle cx="1086" cy="526" r="10" class="c0"/>
<circle cx="1126" cy="544" r="10" class="c0"/>
<circle cx="1092" cy="588" r="10" class="c0"/>
<circle cx="1358" cy="630" r="10" class="c0"/>
<circle cx="1148" cy="470" r="10" class="c0"/>
<circle cx="1204" cy="630" r="10" class="c0"/>
<circle cx="626" cy="618" r="10" class="c0"/>
<circle cx="998" cy="478" r="10" class="c0"/>
<circle cx="1114" cy="706" r="10" class="c0"/>
<circle cx="1390" cy="598" r="10" class="c0"/>
<circle cx="1042" cy="558" r="10" class="c0"/>
<circle cx="1026" cy="390" r="10" class="c0"/>
<circle cx="1112" cy="428" r="10" class="c0"/>
<circle cx="1084" cy="638" r="10" class="c0"/>
<circle cx="1112" cy="628" r="10" class="c0"/>
<circle cx="1402" cy="620" r="10" class="c0"/>
<circle cx="1058" cy="402" r="10" class="c0"/>
<circle cx="974" cy="470" r="10" class="c0"/>
<circle cx="1178" cy="622" r="10" class="c0"/>
<circle cx="1034" cy="678" r="10" class="c0"/>
<circle cx="1366" cy="712" r="10" class="c0"/>
<circle cx="1324" cy="614" r="10" class="c0"/>
<circle cx="1268" cy="632" r="10" class="c0"/>
<circle cx="1014" cy="490" r="10" class="c0"/>
<circle cx="1266" cy="610" r="10" class="c0"/>
<circle cx="1376" cy="646" r="10" class="c0"/>
<circle cx="1350" cy="650" r="10" class="c0"/>
<circle cx="1052" cy="324" r="10" class="c0"/>
<circle cx="948" cy="302" r="10" class="c0"/>
<circle cx="1090" cy="556" r="10" class="c0"/>
<circle cx="1108" cy="454" r="10" class="c0"/>
<circle cx="1058" cy="600" r="10" class="c0"/>
<circle cx="1290" cy="628" r="10" class="c0"/>
<circle cx="920" cy="334" r="10" class="c0"/>
<circle cx="1142" cy="644" r="10" class="c0"/>
<circle cx="1406" cy="688" r="10" class="c0"/>
<circle cx="954" cy="642" r="10" class="c0"/>
<circle cx="1214" cy="604" r="10" class="c0"/>
<circle cx="956" cy="348" r="10" class="c0"/>
<circle cx="1048" cy="660" r="10" class="c0"/>
<circle cx="1064" cy="494" r="10" class="c0"/>
<circle cx="1304" cy="704" r="10" class="c0"/>
<circle cx="1062" cy="678" r="10" class="c0"/>
<circle cx="1192" cy="584" r="10" class="c0"/>
<circle cx="978" cy="338" r="10" class="c0"/>
<circle cx="1436" cy="720" r="10" class="c0"/>
<circle cx="1076" cy="618" r="10" class="c0"/>
<circle cx="1428" cy="686" r="10" class="c0"/>
<circle cx="1454" cy="694" r="10" class="c0"/>
<circle cx="1302" cy="676" r="10" class="c0"/>
<circle cx="1068" cy="442" r="10" class="c0"/>
<circle cx="1080" cy="462" r="10" class="c0"/>
<circle cx="708" cy="636" r="10" class="c0"/>
<circle cx="1316" cy="664" r="10" class="c0"/>
<circle cx="1096" cy="610" r="10" class="c0"/>
<circle cx="1022" cy="310" r="10" class="c0"/>
<circle cx="1016" cy="430" r="10" class="c0"/>
<circle cx="1414" cy="600" r="10" class="c0"/>
<circle cx="990" cy="542" r="10" class="c0"/>
<circle cx="952" cy="436" r="10" class="c0"/>
<circle cx="1150" cy="610" r="10" class="c0"/>
<circle cx="1324" cy="642" r="8" class="c0"/>
<circle cx="1248" cy="690" r="8" class="c0"/>
<circle cx="758" cy="628" r="8" class="c0"/>
<circle cx="896" cy="640" r="8" class="c0"/>
<circle cx="1030" cy="350" r="8" class="c0"/>
<circle cx="656" cy="630" r="8" class="c0"/>
<circle cx="686" cy="632" r="8" class="c0"/>
<circle cx="1108" cy="328" r="8" class="c0"/>
<circle cx="1100" cy="652" r="8" class="c0"/>
<circle cx="1156" cy="590" r="8" class="c0"/>
<circle cx="1096" cy="478" r="8" class="c0"/>
<circle cx="1344" cy="684" r="8" class="c0"/>
<circle cx="1254" cy="668" r="8" class="c0"/>
<circle cx="1130" cy="608" r="8" class="c0"/>
<circle cx="1108" cy="684" r="8" class="c0"/>
<circle cx="1026" cy="626" r="8" class="c0"/>
<circle cx="1132" cy="568" r="8" class="c0"/>
<circle cx="1032" cy="604" r="8" class="c0"/>
<circle cx="668" cy="618" r="8" class="c0"/>
<circle cx="1068" cy="544" r="8" class="c0"/>
<circle cx="1436" cy="646" r="8" class="c0"/>
<circle cx="1270" cy="658" r="8" class="c0"/>
<circle cx="696" cy="620" r="8" class="c0"/>
<circle cx="978" cy="378" r="8" class="c0"/>
<circle cx="1130" cy="408" r="8" class="c0"/>
<circle cx="1450" cy="632" r="8" class="c0"/>
<circle cx="936" cy="314" r="8" class="c0"/>
<circle cx="1030" cy="502" r="8" class="c0"/>
<circle cx="1062" cy="350" r="8" class="c0"/>
<circle cx="918" cy="638" r="8" class="c0"/>
<circle cx="972" cy="682" r="8" class="c0"/>
<circle cx="990" cy="686" r="8" class="c0"/>
<circle cx="1024" cy="368" r="8" class="c0"/>
<circle cx="1342" cy="712" r="8" class="c0"/>
<circle cx="1082" cy="670" r="8" class="c0"/>
<circle cx="1380" cy="666" r="8" class="c0"/>
<circle cx="1066" cy="370" r="8" class="c0"/>
<circle cx="938" cy="282" r="8" class="c0"/>
<circle cx="1062" cy="634" r="8" class="c0"/>
<circle cx="1218" cy="690" r="8" class="c0"/>
<circle cx="1334" cy="598" r="8" class="c0"/>
<circle cx="1404" cy="664" r="8" class="c0"/>
<circle cx="804" cy="662" r="8" class="c0"/>
<circle cx="946" cy="330" r="8" class="c0"/>
<circle cx="1130" cy="680" r="8" class="c0"/>
<circle cx="1056" cy="382" r="8" class="c0"/>
<circle cx="968" cy="288" r="8" class="c0"/>
<circle cx="970" cy="664" r="8" class="c0"/>
<circle cx="1074" cy="514" r="8" class="c0"/>
<circle cx="1166" cy="654" r="8" class="c0"/>
<circle cx="1118" cy="580" r="8" class="c0"/>
<circle cx="970" cy="588" r="8" class="c0"/>
<circle cx="1402" cy="732" r="8" class="c0"/>
<circle cx="1150" cy="666" r="8" class="c0"/>
<circle cx="1222" cy="638" r="8" class="c0"/>
<circle cx="754" cy="646" r="8" class="c0"/>
<circle cx="1326" cy="700" r="8" class="c0"/>
<circle cx="1022" cy="526" r="8" class="c0"/>
<circle cx="1004" cy="410" r="8" class="c0"/>
<circle cx="1122" cy="520" r="8" class="c0"/>
<circle cx="1150" cy="534" r="8" class="c0"/>
<circle cx="1026" cy="332" r="8" class="c0"/>
<circle cx="1216" cy="572" r="8" class="c0"/>
<circle cx="1118" cy="658" r="8" class="c0"/>
<circle cx="862" cy="632" r="8" class="c0"/>
<circle cx="966" cy="368" r="8" class="c0"/>
<circle cx="1206" cy="650" r="8" class="c0"/>
<circle cx="778" cy="648" r="8" class="c0"/>
<circle cx="1018" cy="450" r="8" class="c0"/>
<circle cx="1494" cy="656" r="8" class="c0"/>
<circle cx="1384" cy="720" r="8" class="c0"/>
<circle cx="1238" cy="602" r="8" class="c0"/>
<circle cx="826" cy="632" r="8" class="c0"/>
<circle cx="984" cy="402" r="8" class="c0"/>
<circle cx="1180" cy="474" r="8" class="c0"/>
<circle cx="1206" cy="680" r="8" class="c0"/>
<circle cx="1246" cy="640" r="8" class="c0"/>
<circle cx="1106" cy="726" r="8" class="c0"/>
<circle cx="1182" cy="600" r="8" class="c0"/>
<circle cx="1008" cy="628" r="8" class="c0"/>
<circle cx="1440" cy="666" r="8" class="c0"/>
<circle cx="1104" cy="534" r="8" class="c0"/>
<circle cx="942" cy="628" r="8" class="c0"/>
<circle cx="1038" cy="408" r="8" class="c0"/>
<circle cx="1082" cy="386" r="8" class="c0"/>
<circle cx="1044" cy="614" r="8" class="c0"/>
<circle cx="1172" cy="570" r="8" class="c0"/>
<circle cx="1304" cy="650" r="8" class="c0"/>
<circle cx="904" cy="322" r="8" class="c0"/>
<circle cx="1426" cy="632" r="8" class="c0"/>
<circle cx="1304" cy="608" r="8" class="c0"/>
<circle cx="1088" cy="404" r="8" class="c0"/>
<circle cx="802" cy="628" r="8" class="c0"/>
<circle cx="928" cy="650" r="8" class="c0"/>
<circle cx="1184" cy="644" r="8" class="c0"/>
<circle cx="1070" cy="314" r="8" class="c0"/>
<circle cx="1038" cy="582" r="8" class="c0"/>
<circle cx="1138" cy="696" r="8" class="c0"/>
<circle cx="1362" cy="664" r="8" class="c0"/>
<circle cx="814" cy="642" r="8" class="c0"/>
<circle cx="1096" cy="694" r="8" class="c0"/>
<circle cx="1114" cy="560" r="8" class="c0"/>
<circle cx="1434" cy="606" r="8" class="c0"/>
<circle cx="1164" cy="636" r="8" class="c0"/>
<circle cx="956" cy="616" r="8" class="c0"/>
<circle cx="1416" cy="644" r="8" class="c0"/>
<circle cx="1136" cy="426" r="8" class="c0"/>
<circle cx="1062" cy="472" r="8" class="c0"/>
<circle cx="976" cy="490" r="8" class="c0"/>
<circle cx="1160" cy="484" r="8" class="c0"/>
<circle cx="1168" cy="676" r="8" class="c0"/>
<circle cx="1076" cy="422" r="8" class="c0"/>
<circle cx="1166" cy="460" r="8" class="c0"/>
<circle cx="1100" cy="416" r="8" class="c0"/>
<circle cx="1242" cy="658" r="8" class="c0"/>
<circle cx="1282" cy="702" r="8" class="c0"/>
<circle cx="850" cy="642" r="8" class="c0"/>
<circle cx="1230" cy="618" r="8" class="c0"/>
<circle cx="1010" cy="516" r="8" class="c0"/>
<circle cx="980" cy="648" r="8" class="c0"/>
<circle cx="1102" cy="394" r="8" class="c0"/>
<circle cx="1248" cy="622" r="8" class="c0"/>
<circle cx="822" cy="670" r="8" class="c0"/>
<circle cx="1292" cy="692" r="8" class="c0"/>
<circle cx="1068" cy="658" r="8" class="c0"/>
<circle cx="1478" cy="716" r="8" class="c0"/>
<circle cx="696" cy="650" r="8" class="c0"/>
<circle cx="998" cy="322" r="8" class="c0"/>
<circle cx="1488" cy="674" r="8" class="c0"/>
<circle cx="972" cy="428" r="8" class="c0"/>
<circle cx="1134" cy="350" r="8" class="c0"/>
<circle cx="876" cy="646" r="8" class="c0"/>
<circle cx="1136" cy="588" r="8" class="c0"/>
<circle cx="1028" cy="652" r="8" class="c0"/>
<circle cx="1096" cy="716" r="8" class="c0"/>
<circle cx="1110" cy="598" r="8" class="c0"/>
<circle cx="1014" cy="680" r="8" class="c0"/>
<circle cx="648" cy="614" r="8" class="c0"/>
<circle cx="1282" cy="646" r="8" class="c0"/>
<circle cx="1258" cy="580" r="8" class="c0"/>
<circle cx="1096" cy="740" r="8" class="c0"/>
<circle cx="1456" cy="714" r="8" class="c0"/>
<circle cx="1198" cy="566" r="6" class="c0"/>
<circle cx="1080" cy="484" r="6" class="c0"/>
<circle cx="964" cy="450" r="6" class="c0"/>
<circle cx="1262" cy="702" r="6" class="c0"/>
<circle cx="842" cy="628" r="6" class="c0"/>
<circle cx="1046" cy="504" r="6" class="c0"/>
<circle cx="1312" cy="628" r="6" class="c0"/>
<circle cx="1340" cy="636" r="6" class="c0"/>
<circle cx="1400" cy="640" r="6" class="c0"/>
<circle cx="1044" cy="308" r="6" class="c0"/>
<circle cx="1260" cy="648" r="6" class="c0"/>
<circle cx="732" cy="648" r="6" class="c0"/>
<circle cx="1476" cy="648" r="6" class="c0"/>
<circle cx="960" cy="598" r="6" class="c0"/>
<circle cx="1134" cy="456" r="6" class="c0"/>
<circle cx="1336" cy="660" r="6" class="c0"/>
<circle cx="1032" cy="544" r="6" class="c0"/>
<circle cx="1420" cy="662" r="6" class="c0"/>
<circle cx="1346" cy="668" r="6" class="c0"/>
<circle cx="1286" cy="604" r="6" class="c0"/>
<circle cx="778" cy="624" r="6" class="c0"/>
<circle cx="1126" cy="446" r="6" class="c0"/>
<circle cx="1234" cy="576" r="6" class="c0"/>
<circle cx="928" cy="350" r="6" class="c0"/>
<circle cx="1040" cy="492" r="6" class="c0"/>
<circle cx="1044" cy="638" r="6" class="c0"/>
<circle cx="902" cy="306" r="6" class="c0"/>
<circle cx="1354" cy="700" r="6" class="c0"/>
<circle cx="1424" cy="732" r="6" class="c0"/>
<circle cx="1156" cy="572" r="6" class="c0"/>
<circle cx="1288" cy="664" r="6" class="c0"/>
<circle cx="986" cy="420" r="6" class="c0"/>
<circle cx="1316" cy="686" r="6" class="c0"/>
<circle cx="1070" cy="586" r="6" class="c0"/>
<circle cx="1132" cy="628" r="6" class="c0"/>
<circle cx="1424" cy="616" r="6" class="c0"/>
<circle cx="936" cy="446" r="6" class="c0"/>
<circle cx="1134" cy="488" r="6" class="c0"/>
<circle cx="950" cy="272" r="6" class="c0"/>
<circle cx="1392" cy="700" r="6" class="c0"/>
<circle cx="1120" cy="340" r="6" class="c0"/>
<circle cx="988" cy="362" r="6" class="c0"/>
<circle cx="1028" cy="418" r="6" class="c0"/>
<circle cx="1436" cy="622" r="6" class="c0"/>
<circle cx="1016" cy="608" r="6" class="c0"/>
<circle cx="1454" cy="648" r="6" class="c0"/>
<circle cx="1000" cy="528" r="6" class="c0"/>
<circle cx="1160" cy="522" r="6" class="c0"/>
<circle cx="988" cy="670" r="6" class="c0"/>
<circle cx="1112" cy="406" r="6" class="c0"/>
<circle cx="1134" cy="662" r="6" class="c0"/>
<circle cx="1098" cy="674" r="6" class="c0"/>
<circle cx="1232" cy="648" r="6" class="c0"/>
<circle cx="1438" cy="702" r="6" class="c0"/>
<circle cx="1124" cy="642" r="6" class="c0"/>
<circle cx="1344" cy="614" r="6" class="c0"/>
<circle cx="1080" cy="686" r="6" class="c0"/>
<circle cx="1334" cy="674" r="6" class="c0"/>
<circle cx="1392" cy="654" r="6" class="c0"/>
<circle cx="948" cy="366" r="6" class="c0"/>
<circle cx="1138" cy="524" r="6" class="c0"/>
<circle cx="1234" cy="680" r="6" class="c0"/>
<circle cx="1048" cy="482" r="6" class="c0"/>
<circle cx="838" cy="674" r="6" class="c0"/>
<circle cx="1112" cy="486" r="6" class="c0"/>
<circle cx="1082" cy="572" r="6" class="c0"/>
<circle cx="794" cy="642" r="6" class="c0"/>
<circle cx="1130" cy="504" r="6" class="c0"/>
<circle cx="990" cy="634" r="6" class="c0"/>
<circle cx="1008" cy="460" r="6" class="c0"/>
<circle cx="1314" cy="598" r="6" class="c0"/>
<circle cx="950" cy="454" r="6" class="c0"/>
<circle cx="936" cy="342" r="6" class="c0"/>
<circle cx="638" cy="630" r="6" class="c0"/>
<circle cx="1082" cy="498" r="6" class="c0"/>
<circle cx="1008" cy="394" r="6" class="c0"/>
<circle cx="1018" cy="640" r="6" class="c0"/>
<circle cx="1078" cy="600" r="6" class="c0"/>
<circle cx="1412" cy="742" r="6" class="c0"/>
<circle cx="1104" cy="570" r="6" class="c0"/>
<circle cx="1194" cy="612" r="6" class="c0"/>
<circle cx="740" cy="638" r="6" class="c0"/>
<circle cx="960" cy="384" r="6" class="c0"/>
<circle cx="976" cy="356" r="6" class="c0"/>
<circle cx="610" cy="610" r="6" class="c0"/>
<circle cx="958" cy="418" r="6" class="c0"/>
<circle cx="1048" cy="342" r="6" class="c0"/>
<circle cx="1166" cy="602" r="6" class="c0"/>
<circle cx="1394" cy="674" r="6" class="c0"/>
<circle cx="786" cy="634" r="6" class="c0"/>
<circle cx="908" cy="650" r="6" class="c0"/>
<circle cx="1464" cy="640" r="6" class="c0"/>
<circle cx="970" cy="392" r="6" class="c0"/>
<circle cx="938" cy="358" r="6" class="c0"/>
<circle cx="1224" cy="586" r="6" class="c0"/>
<circle cx="1040" cy="380" r="6" class="c0"/>
<circle cx="1120" cy="398" r="6" class="c0"/>
<circle cx="1072" cy="560" r="6" class="c0"/>
<circle cx="768" cy="638" r="6" class="c0"/>
<circle cx="934" cy="432" r="6" class="c0"/>
<circle cx="788" cy="660" r="6" class="c0"/>
<circle cx="980" cy="522" r="6" class="c0"/>
<circle cx="712" cy="618" r="6" class="c0"/>
<circle cx="1372" cy="590" r="6" class="c0"/>
<circle cx="1452" cy="676" r="6" class="c0"/>
<circle cx="1020" cy="408" r="6" class="c0"/>
</svg>
