<?xml version="1.0" encoding="utf-8"?>
<svg xmlns="http://www.w3.org/2000/svg"
     xmlns:xlink="http://www.w3.org/1999/xlink" width="1920" height="1440" >

            <defs>
            <style type="text/css"><![CDATA[
circle {stroke: none;}
.c0 {fill: #FFFFFF;}
]]></style>
            </defs>
<rect x="0" y="0" width="1920" height="1440" fill="black"/>
<circle cx="1020" cy="480" r="12" class="c0"/>
<circle cx="1092" cy="596" r="12" class="c0"/>
<circle cx="1036" cy="664" r="12" class="c0"/>
<circle cx="948" cy="630" r="12" class="c0"/>
<circle cx="1132" cy="458" r="12" class="c0"/>
<circle cx="692" cy="632" r="12" class="c0"/>
<circle cx="1172" cy="432" r="12" class="c0"/>
<circle cx="1006" cy="616" r="12" class="c0"/>
<circle cx="1336" cy="608" r="12" class="c0"/>
<circle cx="1032" cy="330" r="12" class="c0"/>
<circle cx="1082" cy="524" r="12" class="c0"/>
<circle cx="1062" cy="624" r="12" class="c0"/>
<circle cx="1138" cy="508" r="12" class="c0"/>
<circle cx="1392" cy="652" r="12" class="c0"/>
<circle cx="1188" cy="634" r="12" class="c0"/>
<circle cx="1024" cy="422" r="12" class="c0"/>
<circle cx="996" cy="652" r="12" class="c0"/>
<circle cx="1226" cy="600" r="12" class="c0"/>
<circle cx="1076" cy="332" r="12" class="c0"/>
<circle cx="1468" cy="644" r="12" class="c0"/>
<circle cx="1210" cy="618" r="12" class="c0"/>
<circle cx="1030" cy="396" r="10" class="c0"/>
<circle cx="812" cy="626" r="10" class="c0"/>
<circle cx="1092" cy="490" r="10" class="c0"/>
<circle cx="1122" cy="532" r="10" class="c0"/>
<circle cx="774" cy="626" r="10" class="c0"/>
<circle cx="642" cy="612" r="10" class="c0"/>
<circle cx="944" cy="316" r="10" class="c0"/>
<circle cx="1288" cy="670" r="10" class="c0"/>
<circle cx="1152" cy="622" r="10" class="c0"/>
<circle cx="1240" cy="622" r="10" class="c0"/>
<circle cx="904" cy="632" r="10" class="c0"/>
<circle cx="1314" cy="658" r="10" class="c0"/>
<circle cx="1070" cy="360" r="10" class="c0"/>
<circle cx="986" cy="420" r="10" class="c0"/>
<circle cx="1192" cy="554" r="10" class="c0"/>
<circle cx="1290" cy="622" r="10" class="c0"/>
<circle cx="1372" cy="666" r="10" class="c0"/>
<circle cx="1248" cy="556" r="10" class="c0"/>
<circle cx="856" cy="632" r="10" class="c0"/>
<circle cx="1136" cy="648" r="10" class="c0"/>
<circle cx="1054" cy="402" r="10" class="c0"/>
<circle cx="1312" cy="596" r="10" class="c0"/>
<circle cx="1382" cy="712" r="10" class="c0"/>
<circle cx="1446" cy="616" r="10" class="c0"/>
<circle cx="1154" cy="582" r="10" class="c0"/>
<circle cx="1152" cy="522" r="10" class="c0"/>
<circle cx="1062" cy="492" r="10" class="c0"/>
<circle cx="952" cy="344" r="10" class="c0"/>
<circle cx="1054" cy="308" r="10" class="c0"/>
<circle cx="958" cy="432" r="10" class="c0"/>
<circle cx="1000" cy="544" r="10" class="c0"/>
<circle cx="676" cy="610" r="10" class="c0"/>
<circle cx="1276" cy="682" r="10" class="c0"/>
<circle cx="1080" cy="550" r="10" class="c0"/>
<circle cx="1116" cy="700" r="10" class="c0"/>
<circle cx="1486" cy="658" r="10" class="c0"/>
<circle cx="1420" cy="590" r="10" class="c0"/>
<circle cx="1224" cy="556" r="10" class="c0"/>
<circle cx="1064" cy="426" r="10" class="c0"/>
<circle cx="1396" cy="592" r="10" class="c0"/>
<circle cx="1252" cy="648" r="10" class="c0"/>
<circle cx="1464" cy="672" r="10" class="c0"/>
<circle cx="1014" cy="348" r="10" class="c0"/>
<circle cx="1404" cy="628" r="10" class="c0"/>
<circle cx="1350" cy="702" r="10" class="c0"/>
<circle cx="1054" cy="348" r="10" class="c0"/>
<circle cx="1126" cy="588" r="10" class="c0"/>
<circle cx="1164" cy="506" r="10" class="c0"/>
<circle cx="952" cy="288" r="10" class="c0"/>
<circle cx="1228" cy="670" r="10" class="c0"/>
<circle cx="1348" cy="626" r="10" class="c0"/>
<circle cx="1078" cy="414" r="10" class="c0"/>
<circle cx="1118" cy="442" r="10" class="c0"/>
<circle cx="1122" cy="676" r="10" class="c0"/>
<circle cx="1012" cy="386" r="10" class="c0"/>
<circle cx="1416" cy="642" r="10" class="c0"/>
<circle cx="1010" cy="666" r="10" class="c0"/>
<circle cx="748" cy="624" r="10" class="c0"/>
<circle cx="1042" cy="448" r="10" class="c0"/>
<circle cx="1070" cy="458" r="10" class="c0"/>
<circle cx="982" cy="442" r="10" class="c0"/>
<circle cx="1364" cy="606" r="10" class="c0"/>
<circle cx="1108" cy="722" r="10" class="c0"/>
<circle cx="1374" cy="688" r="10" class="c0"/>
<circle cx="1396" cy="696" r="10" class="c0"/>
<circle cx="1422" cy="612" r="10" class="c0"/>
<circle cx="1096" cy="538" r="10" class="c0"/>
<circle cx="1060" cy="588" r="10" class="c0"/>
<circle cx="1230" cy="646" r="10" class="c0"/>
<circle cx="1094" cy="668" r="10" class="c0"/>
<circle cx="1036" cy="632" r="10" class="c0"/>
<circle cx="1144" cy="700" r="10" class="c0"/>
<circle cx="1084" cy="438" r="10" class="c0"/>
<circle cx="1048" cy="376" r="10" class="c0"/>
<circle cx="1196" cy="594" r="10" class="c0"/>
<circle cx="1044" cy="602" r="10" class="c0"/>
<circle cx="1100" cy="562" r="10" class="c0"/>
<circle cx="716" cy="624" r="10" class="c0"/>
<circle cx="1090" cy="638" r="8" class="c0"/>
<circle cx="832" cy="624" r="8" class="c0"/>
<circle cx="1306" cy="678" r="8" class="c0"/>
<circle cx="1146" cy="434" r="8" class="c0"/>
<circle cx="1114" cy="602" r="8" class="c0"/>
<circle cx="964" cy="356" r="8" class="c0"/>
<circle cx="1106" cy="624" r="8" class="c0"/>
<circle cx="1024" cy="604" r="8" class="c0"/>
<circle cx="1130" cy="418" r="8" class="c0"/>
<circle cx="1000" cy="490" r="8" class="c0"/>
<circle cx="1430" cy="690" r="8" class="c0"/>
<circle cx="1184" cy="414" r="8" class="c0"/>
<circle cx="1054" cy="518" r="8" class="c0"/>
<circle cx="1324" cy="632" r="8" class="c0"/>
<circle cx="992" cy="348" r="8" class="c0"/>
<circle cx="1274" cy="646" r="8" class="c0"/>
<circle cx="926" cy="636" r="8" class="c0"/>
<circle cx="970" cy="588" r="8" class="c0"/>
<circle cx="1124" cy="612" r="8" class="c0"/>
<circle cx="1432" cy="664" r="8" class="c0"/>
<circle cx="1156" cy="546" r="8" class="c0"/>
<circle cx="1036" cy="364" r="8" class="c0"/>
<circle cx="1142" cy="724" r="8" class="c0"/>
<circle cx="1128" cy="330" r="8" class="c0"/>
<circle cx="1198" cy="654" r="8" class="c0"/>
<circle cx="1262" cy="626" r="8" class="c0"/>
<circle cx="1370" cy="642" r="8" class="c0"/>
<circle cx="1060" cy="562" r="8" class="c0"/>
<circle cx="968" cy="412" r="8" class="c0"/>
<circle cx="1082" cy="616" r="8" class="c0"/>
<circle cx="1416" cy="714" r="8" class="c0"/>
<circle cx="1142" cy="672" r="8" class="c0"/>
<circle cx="1244" cy="680" r="8" class="c0"/>
<circle cx="1500" cy="674" r="8" class="c0"/>
<circle cx="1004" cy="368" r="8" class="c0"/>
<circle cx="1342" cy="676" r="8" class="c0"/>
<circle cx="1436" cy="636" r="8" class="c0"/>
<circle cx="1094" cy="388" r="8" class="c0"/>
<circle cx="1300" cy="696" r="8" class="c0"/>
<circle cx="1048" cy="476" r="8" class="c0"/>
<circle cx="1040" cy="500" r="8" class="c0"/>
<circle cx="1274" cy="606" r="8" class="c0"/>
<circle cx="1012" cy="460" r="8" class="c0"/>
<circle cx="1100" cy="410" r="8" class="c0"/>
<circle cx="1106" cy="324" r="8" class="c0"/>
<circle cx="1072" cy="386" r="8" class="c0"/>
<circle cx="976" cy="628" r="8" class="c0"/>
<circle cx="1314" cy="618" r="8" class="c0"/>
<circle cx="1370" cy="586" r="8" class="c0"/>
<circle cx="1020" cy="312" r="8" class="c0"/>
<circle cx="1174" cy="650" r="8" class="c0"/>
<circle cx="1176" cy="614" r="8" class="c0"/>
<circle cx="1450" cy="708" r="8" class="c0"/>
<circle cx="1082" cy="572" r="8" class="c0"/>
<circle cx="1092" cy="306" r="8" class="c0"/>
<circle cx="1166" cy="594" r="8" class="c0"/>
<circle cx="820" cy="656" r="8" class="c0"/>
<circle cx="1108" cy="472" r="8" class="c0"/>
<circle cx="1392" cy="616" r="8" class="c0"/>
<circle cx="1000" cy="404" r="8" class="c0"/>
<circle cx="1018" cy="520" r="8" class="c0"/>
<circle cx="1248" cy="594" r="8" class="c0"/>
<circle cx="934" cy="334" r="8" class="c0"/>
<circle cx="986" cy="574" r="8" class="c0"/>
<circle cx="994" cy="464" r="8" class="c0"/>
<circle cx="990" cy="386" r="8" class="c0"/>
<circle cx="1104" cy="688" r="8" class="c0"/>
<circle cx="960" cy="270" r="8" class="c0"/>
<circle cx="1000" cy="510" r="8" class="c0"/>
<circle cx="1116" cy="400" r="8" class="c0"/>
<circle cx="1066" cy="666" r="8" class="c0"/>
<circle cx="1332" cy="694" r="8" class="c0"/>
<circle cx="1390" cy="674" r="8" class="c0"/>
<circle cx="700" cy="608" r="8" class="c0"/>
<circle cx="1144" cy="602" r="8" class="c0"/>
<circle cx="976" cy="374" r="8" class="c0"/>
<circle cx="1152" cy="484" r="8" class="c0"/>
<circle cx="1054" cy="648" r="8" class="c0"/>
<circle cx="1120" cy="568" r="8" class="c0"/>
<circle cx="1410" cy="684" r="8" class="c0"/>
<circle cx="1292" cy="650" r="8" class="c0"/>
<circle cx="1444" cy="676" r="8" class="c0"/>
<circle cx="974" cy="346" r="8" class="c0"/>
<circle cx="1134" cy="546" r="8" class="c0"/>
<circle cx="1336" cy="642" r="8" class="c0"/>
<circle cx="620" cy="602" r="8" class="c0"/>
<circle cx="964" cy="330" r="8" class="c0"/>
<circle cx="1414" cy="662" r="8" class="c0"/>
<circle cx="1038" cy="526" r="8" class="c0"/>
<circle cx="1356" cy="654" r="8" class="c0"/>
<circle cx="1004" cy="320" r="8" class="c0"/>
<circle cx="918" cy="302" r="8" class="c0"/>
<circle cx="1264" cy="662" r="8" class="c0"/>
<circle cx="1162" cy="640" r="8" class="c0"/>
<circle cx="1486" cy="700" r="8" class="c0"/>
<circle cx="1246" cy="576" r="8" class="c0"/>
<circle cx="1208" cy="644" r="8" class="c0"/>
<circle cx="1120" cy="636" r="8" class="c0"/>
<circle cx="978" cy="278" r="8" class="c0"/>
<circle cx="1352" cy="592" r="8" class="c0"/>
<circle cx="1106" cy="646" r="8" class="c0"/>
<circle cx="1110" cy="424" r="8" class="c0"/>
<circle cx="1500" cy="642" r="8" class="c0"/>
<circle cx="966" cy="616" r="8" class="c0"/>
<circle cx="1426" cy="728" r="8" class="c0"/>
<circle cx="1064" cy="540" r="8" class="c0"/>
<circle cx="660" cy="620" r="8" class="c0"/>
<circle cx="798" cy="638" r="8" class="c0"/>
<circle cx="1258" cy="690" r="8" class="c0"/>
<circle cx="972" cy="652" r="8" class="c0"/>
<circle cx="1034" cy="466" r="8" class="c0"/>
<circle cx="1146" cy="558" r="8" class="c0"/>
<circle cx="1156" cy="418" r="8" class="c0"/>
<circle cx="1014" cy="638" r="8" class="c0"/>
<circle cx="988" cy="328" r="8" class="c0"/>
<circle cx="1086" cy="470" r="8" class="c0"/>
<circle cx="880" cy="632" r="8" class="c0"/>
<circle cx="1096" cy="458" r="8" class="c0"/>
<circle cx="1050" cy="572" r="8" class="c0"/>
<circle cx="1082" cy="376" r="8" class="c0"/>
<circle cx="1022" cy="444" r="8" class="c0"/>
<circle cx="1194" cy="442" r="8" class="c0"/>
<circle cx="1440" cy="594" r="8" class="c0"/>
<circle cx="990" cy="676" r="8" class="c0"/>
<circle cx="758" cy="642" r="8" class="c0"/>
<circle cx="730" cy="612" r="8" class="c0"/>
<circle cx="1024" cy="648" r="8" class="c0"/>
<circle cx="1374" cy="622" r="8" class="c0"/>
<circle cx="1030" cy="300" r="8" class="c0"/>
<circle cx="1482" cy="682" r="8" class="c0"/>
<circle cx="788" cy="648" r="8" class="c0"/>
<circle cx="962" cy="304" r="8" class="c0"/>
<circle cx="1302" cy="636" r="8" class="c0"/>
<circle cx="1460" cy="692" r="8" class="c0"/>
<circle cx="1076" cy="652" r="8" class="c0"/>
<circle cx="1110" cy="578" r="8" class="c0"/>
<circle cx="1156" cy="444" r="8" class="c0"/>
<circle cx="1284" cy="596" r="8" class="c0"/>
<circle cx="1050" cy="552" r="8" class="c0"/>
<circle cx="1070" cy="604" r="6" class="c0"/>
<circle cx="1136" cy="570" r="6" class="c0"/>
<circle cx="1298" cy="606" r="6" class="c0"/>
<circle cx="1470" cy="702" r="6" class="c0"/>
<circle cx="658" cy="602" r="6" class="c0"/>
<circle cx="732" cy="638" r="6" class="c0"/>
<circle cx="1484" cy="632" r="6" class="c0"/>
<circle cx="1156" cy="658" r="6" class="c0"/>
<circle cx="1116" cy="550" r="6" class="c0"/>
<circle cx="1070" cy="300" r="6" class="c0"/>
<circle cx="838" cy="662" r="6" class="c0"/>
<circle cx="1448" cy="646" r="6" class="c0"/>
<circle cx="1046" cy="424" r="6" class="c0"/>
<circle cx="762" cy="614" r="6" class="c0"/>
<circle cx="1032" cy="590" r="6" class="c0"/>
<circle cx="1146" cy="334" r="6" class="c0"/>
<circle cx="1170" cy="556" r="6" class="c0"/>
<circle cx="1076" cy="480" r="6" class="c0"/>
<circle cx="1112" cy="662" r="6" class="c0"/>
<circle cx="1316" cy="688" r="6" class="c0"/>
<circle cx="710" cy="642" r="6" class="c0"/>
<circle cx="1074" cy="504" r="6" class="c0"/>
<circle cx="1056" cy="330" r="6" class="c0"/>
<circle cx="1022" cy="500" r="6" class="c0"/>
<circle cx="958" cy="602" r="6" class="c0"/>
<circle cx="1264" cy="572" r="6" class="c0"/>
<circle cx="1332" cy="666" r="6" class="c0"/>
<circle cx="1360" cy="678" r="6" class="c0"/>
<circle cx="1026" cy="374" r="6" class="c0"/>
<circle cx="1210" cy="668" r="6" class="c0"/>
<circle cx="1384" cy="634" r="6" class="c0"/>
<circle cx="1440" cy="718" r="6" class="c0"/>
<circle cx="1130" cy="710" r="6" class="c0"/>
<circle cx="1166" cy="532" r="6" class="c0"/>
<circle cx="1138" cy="404" r="6" class="c0"/>
<circle cx="1030" cy="510" r="6" class="c0"/>
<circle cx="1398" cy="726" r="6" class="c0"/>
<circle cx="1318" cy="702" r="6" class="c0"/>
<circle cx="1096" cy="508" r="6" class="c0"/>
<circle cx="852" cy="668" r="6" class="c0"/>
<circle cx="1256" cy="608" r="6" class="c0"/>
<circle cx="984" cy="558" r="6" class="c0"/>
<circle cx="924" cy="318" r="6" class="c0"/>
<circle cx="1104" cy="518" r="6" class="c0"/>
<circle cx="1114" cy="384" r="6" class="c0"/>
<circle cx="1324" cy="678" r="6" class="c0"/>
<circle cx="794" cy="618" r="6" class="c0"/>
<circle cx="1198" cy="426" r="6" class="c0"/>
<circle cx="992" cy="630" r="6" class="c0"/>
<circle cx="980" cy="666" r="6" class="c0"/>
<circle cx="1182" cy="582" r="6" class="c0"/>
<circle cx="1048" cy="536" r="6" class="c0"/>
<circle cx="1134" cy="624" r="6" class="c0"/>
<circle cx="1340" cy="658" r="6" class="c0"/>
<circle cx="1432" cy="710" r="6" class="c0"/>
<circle cx="1328" cy="588" r="6" class="c0"/>
<circle cx="1124" cy="476" r="6" class="c0"/>
<circle cx="804" cy="654" r="6" class="c0"/>
<circle cx="1002" cy="336" r="6" class="c0"/>
<circle cx="982" cy="400" r="6" class="c0"/>
<circle cx="942" cy="266" r="6" class="c0"/>
<circle cx="962" cy="642" r="6" class="c0"/>
<circle cx="1462" cy="624" r="6" class="c0"/>
<circle cx="1272" cy="550" r="6" class="c0"/>
<circle cx="990" cy="480" r="6" class="c0"/>
<circle cx="1078" cy="676" r="6" class="c0"/>
<circle cx="1264" cy="596" r="6" class="c0"/>
<circle cx="1498" cy="690" r="6" class="c0"/>
<circle cx="1452" cy="660" r="6" class="c0"/>
<circle cx="1022" cy="680" r="6" class="c0"/>
<circle cx="1060" cy="444" r="6" class="c0"/>
<circle cx="870" cy="622" r="6" class="c0"/>
<circle cx="1382" cy="604" r="6" class="c0"/>
<circle cx="986" cy="364" r="6" class="c0"/>
<circle cx="1154" cy="714" r="6" class="c0"/>
<circle cx="1040" cy="412" r="6" class="c0"/>
<circle cx="1454" cy="632" r="6" class="c0"/>
<circle cx="950" cy="610" r="6" class="c0"/>
<circle cx="1174" cy="542" r="6" class="c0"/>
<circle cx="996" cy="564" r="6" class="c0"/>
<circle cx="1002" cy="526" r="6" class="c0"/>
<circle cx="1162" cy="564" r="6" class="c0"/>
</svg>
