<?xml version="1.0" encoding="utf-8"?>
<svg xmlns="http://www.w3.org/2000/svg"
     xmlns:xlink="http://www.w3.org/1999/xlink" width="1920" height="1440" >

            <defs>
            <style type="text/css"><![CDATA[
circle {stroke: none;}
.c0 {fill: #FFFFFF;}
]]></style>
            </defs>
<rect x="0" y="0" width="1920" height="1440" fill="black"/>
<circle cx="1062" cy="534" r="12" class="c0"/>
<circle cx="1134" cy="410" r="12" class="c0"/>
<circle cx="1138" cy="526" r="12" class="c0"/>
<circle cx="1122" cy="652" r="12" class="c0"/>
<circle cx="1180" cy="624" r="12" class="c0"/>
<circle cx="1424" cy="664" r="12" class="c0"/>
<circle cx="1444" cy="686" r="12" class="c0"/>
<circle cx="1104" cy="676" r="12" class="c0"/>
<circle cx="1096" cy="638" r="12" class="c0"/>
<circle cx="1070" cy="632" r="12" class="c0"/>
<circle cx="1000" cy="332" r="12" class="c0"/>
<circle cx="1222" cy="606" r="12" class="c0"/>
<circle cx="1286" cy="620" r="12" class="c0"/>
<circle cx="1066" cy="312" r="12" class="c0"/>
<circle cx="1036" cy="366" r="12" class="c0"/>
<circle cx="1044" cy="586" r="12" class="c0"/>
<circle cx="928" cy="312" r="12" class="c0"/>
<circle cx="1376" cy="678" r="10" class="c0"/>
<circle cx="1022" cy="492" r="10" class="c0"/>
<circle cx="1048" cy="490" r="10" class="c0"/>
<circle cx="1078" cy="432" r="10" class="c0"/>
<circle cx="694" cy="614" r="10" class="c0"/>
<circle cx="1186" cy="436" r="10" class="c0"/>
<circle cx="708" cy="630" r="10" class="c0"/>
<circle cx="1044" cy="624" r="10" class="c0"/>
<circle cx="1156" cy="594" r="10" class="c0"/>
<circle cx="1078" cy="496" r="10" class="c0"/>
<circle cx="988" cy="384" r="10" class="c0"/>
<circle cx="1000" cy="484" r="10" class="c0"/>
<circle cx="950" cy="298" r="10" class="c0"/>
<circle cx="1388" cy="694" r="10" class="c0"/>
<circle cx="1020" cy="672" r="10" class="c0"/>
<circle cx="1060" cy="346" r="10" class="c0"/>
<circle cx="1012" cy="466" r="10" class="c0"/>
<circle cx="1364" cy="692" r="10" class="c0"/>
<circle cx="1104" cy="610" r="10" class="c0"/>
<circle cx="1388" cy="614" r="10" class="c0"/>
<circle cx="1066" cy="392" r="10" class="c0"/>
<circle cx="1010" cy="622" r="10" class="c0"/>
<circle cx="1164" cy="418" r="10" class="c0"/>
<circle cx="1142" cy="664" r="10" class="c0"/>
<circle cx="1220" cy="644" r="10" class="c0"/>
<circle cx="1400" cy="680" r="10" class="c0"/>
<circle cx="964" cy="342" r="10" class="c0"/>
<circle cx="978" cy="632" r="10" class="c0"/>
<circle cx="1470" cy="684" r="10" class="c0"/>
<circle cx="1038" cy="466" r="10" class="c0"/>
<circle cx="1108" cy="588" r="10" class="c0"/>
<circle cx="1164" cy="548" r="10" class="c0"/>
<circle cx="1314" cy="624" r="10" class="c0"/>
<circle cx="1132" cy="612" r="10" class="c0"/>
<circle cx="960" cy="280" r="10" class="c0"/>
<circle cx="1010" cy="392" r="10" class="c0"/>
<circle cx="1150" cy="562" r="10" class="c0"/>
<circle cx="1262" cy="622" r="10" class="c0"/>
<circle cx="1242" cy="662" r="10" class="c0"/>
<circle cx="1126" cy="454" r="10" class="c0"/>
<circle cx="1272" cy="670" r="10" class="c0"/>
<circle cx="1030" cy="646" r="10" class="c0"/>
<circle cx="1118" cy="570" r="10" class="c0"/>
<circle cx="1434" cy="594" r="10" class="c0"/>
<circle cx="1420" cy="620" r="10" class="c0"/>
<circle cx="768" cy="618" r="10" class="c0"/>
<circle cx="1442" cy="716" r="10" class="c0"/>
<circle cx="1030" cy="410" r="10" class="c0"/>
<circle cx="838" cy="626" r="10" class="c0"/>
<circle cx="974" cy="420" r="10" class="c0"/>
<circle cx="1160" cy="636" r="10" class="c0"/>
<circle cx="1296" cy="662" r="10" class="c0"/>
<circle cx="1400" cy="710" r="10" class="c0"/>
<circle cx="1402" cy="656" r="10" class="c0"/>
<circle cx="806" cy="624" r="10" class="c0"/>
<circle cx="978" cy="584" r="10" class="c0"/>
<circle cx="1254" cy="600" r="10" class="c0"/>
<circle cx="1106" cy="524" r="10" class="c0"/>
<circle cx="1470" cy="640" r="10" class="c0"/>
<circle cx="1326" cy="592" r="10" class="c0"/>
<circle cx="926" cy="634" r="10" class="c0"/>
<circle cx="956" cy="610" r="10" class="c0"/>
<circle cx="1066" cy="658" r="10" class="c0"/>
<circle cx="1236" cy="626" r="10" class="c0"/>
<circle cx="1362" cy="638" r="8" class="c0"/>
<circle cx="1142" cy="468" r="8" class="c0"/>
<circle cx="1066" cy="594" r="8" class="c0"/>
<circle cx="1272" cy="640" r="8" class="c0"/>
<circle cx="1330" cy="656" r="8" class="c0"/>
<circle cx="1090" cy="558" r="8" class="c0"/>
<circle cx="980" cy="364" r="8" class="c0"/>
<circle cx="1142" cy="714" r="8" class="c0"/>
<circle cx="1076" cy="520" r="8" class="c0"/>
<circle cx="1076" cy="584" r="8" class="c0"/>
<circle cx="978" cy="330" r="8" class="c0"/>
<circle cx="1098" cy="320" r="8" class="c0"/>
<circle cx="860" cy="626" r="8" class="c0"/>
<circle cx="1200" cy="646" r="8" class="c0"/>
<circle cx="902" cy="634" r="8" class="c0"/>
<circle cx="1084" cy="612" r="8" class="c0"/>
<circle cx="1100" cy="420" r="8" class="c0"/>
<circle cx="1150" cy="620" r="8" class="c0"/>
<circle cx="1356" cy="584" r="8" class="c0"/>
<circle cx="1340" cy="622" r="8" class="c0"/>
<circle cx="1244" cy="556" r="8" class="c0"/>
<circle cx="1100" cy="388" r="8" class="c0"/>
<circle cx="1046" cy="328" r="8" class="c0"/>
<circle cx="1070" cy="470" r="8" class="c0"/>
<circle cx="986" cy="450" r="8" class="c0"/>
<circle cx="1316" cy="688" r="8" class="c0"/>
<circle cx="816" cy="658" r="8" class="c0"/>
<circle cx="1422" cy="694" r="8" class="c0"/>
<circle cx="1112" cy="438" r="8" class="c0"/>
<circle cx="1446" cy="618" r="8" class="c0"/>
<circle cx="1132" cy="554" r="8" class="c0"/>
<circle cx="1120" cy="704" r="8" class="c0"/>
<circle cx="1010" cy="506" r="8" class="c0"/>
<circle cx="1080" cy="544" r="8" class="c0"/>
<circle cx="1410" cy="594" r="8" class="c0"/>
<circle cx="1152" cy="500" r="8" class="c0"/>
<circle cx="1118" cy="478" r="8" class="c0"/>
<circle cx="1380" cy="640" r="8" class="c0"/>
<circle cx="1142" cy="440" r="8" class="c0"/>
<circle cx="1440" cy="650" r="8" class="c0"/>
<circle cx="652" cy="618" r="8" class="c0"/>
<circle cx="784" cy="642" r="8" class="c0"/>
<circle cx="1132" cy="686" r="8" class="c0"/>
<circle cx="1042" cy="434" r="8" class="c0"/>
<circle cx="1020" cy="322" r="8" class="c0"/>
<circle cx="1130" cy="582" r="8" class="c0"/>
<circle cx="1032" cy="302" r="8" class="c0"/>
<circle cx="1260" cy="686" r="8" class="c0"/>
<circle cx="1424" cy="640" r="8" class="c0"/>
<circle cx="1274" cy="604" r="8" class="c0"/>
<circle cx="1302" cy="602" r="8" class="c0"/>
<circle cx="998" cy="360" r="8" class="c0"/>
<circle cx="1088" cy="456" r="8" class="c0"/>
<circle cx="1368" cy="612" r="8" class="c0"/>
<circle cx="1056" cy="562" r="8" class="c0"/>
<circle cx="990" cy="556" r="8" class="c0"/>
<circle cx="1040" cy="668" r="8" class="c0"/>
<circle cx="1024" cy="340" r="8" class="c0"/>
<circle cx="1038" cy="522" r="8" class="c0"/>
<circle cx="1168" cy="654" r="8" class="c0"/>
<circle cx="1074" cy="374" r="8" class="c0"/>
<circle cx="1336" cy="700" r="8" class="c0"/>
<circle cx="1202" cy="598" r="8" class="c0"/>
<circle cx="1288" cy="688" r="8" class="c0"/>
<circle cx="946" cy="628" r="8" class="c0"/>
<circle cx="1108" cy="732" r="8" class="c0"/>
<circle cx="956" cy="322" r="8" class="c0"/>
<circle cx="942" cy="332" r="8" class="c0"/>
<circle cx="1404" cy="636" r="8" class="c0"/>
<circle cx="754" cy="634" r="8" class="c0"/>
<circle cx="1040" cy="390" r="8" class="c0"/>
<circle cx="1348" cy="650" r="8" class="c0"/>
<circle cx="1076" cy="330" r="8" class="c0"/>
<circle cx="1198" cy="560" r="8" class="c0"/>
<circle cx="1058" cy="446" r="8" class="c0"/>
<circle cx="994" cy="656" r="8" class="c0"/>
<circle cx="1152" cy="452" r="8" class="c0"/>
<circle cx="996" cy="410" r="8" class="c0"/>
<circle cx="1346" cy="602" r="8" class="c0"/>
<circle cx="1356" cy="672" r="8" class="c0"/>
<circle cx="1088" cy="476" r="8" class="c0"/>
<circle cx="1420" cy="714" r="8" class="c0"/>
<circle cx="1086" cy="404" r="8" class="c0"/>
<circle cx="1138" cy="634" r="8" class="c0"/>
<circle cx="1058" cy="610" r="8" class="c0"/>
<circle cx="1476" cy="660" r="8" class="c0"/>
<circle cx="1108" cy="544" r="8" class="c0"/>
<circle cx="1024" cy="432" r="8" class="c0"/>
<circle cx="878" cy="624" r="8" class="c0"/>
<circle cx="1150" cy="696" r="8" class="c0"/>
<circle cx="1306" cy="678" r="8" class="c0"/>
<circle cx="1228" cy="678" r="8" class="c0"/>
<circle cx="1486" cy="630" r="8" class="c0"/>
<circle cx="1250" cy="642" r="8" class="c0"/>
<circle cx="718" cy="614" r="8" class="c0"/>
<circle cx="1026" cy="454" r="8" class="c0"/>
<circle cx="736" cy="624" r="8" class="c0"/>
<circle cx="1066" cy="572" r="8" class="c0"/>
<circle cx="746" cy="614" r="8" class="c0"/>
<circle cx="1090" cy="534" r="8" class="c0"/>
<circle cx="1332" cy="678" r="8" class="c0"/>
<circle cx="1166" cy="438" r="8" class="c0"/>
<circle cx="1066" cy="510" r="8" class="c0"/>
<circle cx="1302" cy="640" r="8" class="c0"/>
<circle cx="1054" cy="416" r="8" class="c0"/>
<circle cx="1496" cy="672" r="8" class="c0"/>
<circle cx="1284" cy="650" r="8" class="c0"/>
<circle cx="1116" cy="622" r="8" class="c0"/>
<circle cx="1122" cy="330" r="8" class="c0"/>
<circle cx="1020" cy="604" r="8" class="c0"/>
<circle cx="1006" cy="544" r="8" class="c0"/>
<circle cx="1178" cy="588" r="8" class="c0"/>
<circle cx="1116" cy="398" r="8" class="c0"/>
<circle cx="1188" cy="416" r="8" class="c0"/>
<circle cx="640" cy="606" r="8" class="c0"/>
<circle cx="958" cy="642" r="8" class="c0"/>
<circle cx="1494" cy="646" r="8" class="c0"/>
<circle cx="1094" cy="508" r="8" class="c0"/>
<circle cx="1462" cy="702" r="8" class="c0"/>
<circle cx="672" cy="606" r="8" class="c0"/>
<circle cx="1378" cy="598" r="8" class="c0"/>
<circle cx="1020" cy="518" r="8" class="c0"/>
<circle cx="940" cy="282" r="8" class="c0"/>
<circle cx="1092" cy="660" r="8" class="c0"/>
<circle cx="1012" cy="420" r="8" class="c0"/>
<circle cx="1100" cy="466" r="8" class="c0"/>
<circle cx="1216" cy="562" r="8" class="c0"/>
<circle cx="1208" cy="628" r="8" class="c0"/>
<circle cx="988" cy="674" r="8" class="c0"/>
<circle cx="1214" cy="668" r="8" class="c0"/>
<circle cx="964" cy="436" r="8" class="c0"/>
<circle cx="1008" cy="646" r="8" class="c0"/>
<circle cx="1326" cy="636" r="8" class="c0"/>
<circle cx="1008" cy="310" r="8" class="c0"/>
<circle cx="1486" cy="696" r="8" class="c0"/>
<circle cx="1328" cy="612" r="8" class="c0"/>
<circle cx="1132" cy="506" r="6" class="c0"/>
<circle cx="1144" cy="336" r="6" class="c0"/>
<circle cx="1062" cy="364" r="6" class="c0"/>
<circle cx="952" cy="354" r="6" class="c0"/>
<circle cx="1122" cy="536" r="6" class="c0"/>
<circle cx="1192" cy="660" r="6" class="c0"/>
<circle cx="1042" cy="312" r="6" class="c0"/>
<circle cx="1164" cy="510" r="6" class="c0"/>
<circle cx="926" cy="334" r="6" class="c0"/>
<circle cx="1076" cy="676" r="6" class="c0"/>
<circle cx="620" cy="602" r="6" class="c0"/>
<circle cx="1160" cy="526" r="6" class="c0"/>
<circle cx="1102" cy="702" r="6" class="c0"/>
<circle cx="1370" cy="710" r="6" class="c0"/>
<circle cx="1264" cy="562" r="6" class="c0"/>
<circle cx="1352" cy="706" r="6" class="c0"/>
<circle cx="1168" cy="606" r="6" class="c0"/>
<circle cx="886" cy="638" r="6" class="c0"/>
<circle cx="1146" cy="544" r="6" class="c0"/>
<circle cx="1124" cy="672" r="6" class="c0"/>
<circle cx="1016" cy="374" r="6" class="c0"/>
<circle cx="1120" cy="600" r="6" class="c0"/>
<circle cx="1078" cy="352" r="6" class="c0"/>
<circle cx="1450" cy="640" r="6" class="c0"/>
<circle cx="1002" cy="524" r="6" class="c0"/>
<circle cx="1316" cy="648" r="6" class="c0"/>
<circle cx="914" cy="300" r="6" class="c0"/>
<circle cx="1378" cy="660" r="6" class="c0"/>
<circle cx="788" cy="626" r="6" class="c0"/>
<circle cx="1020" cy="356" r="6" class="c0"/>
<circle cx="1050" cy="648" r="6" class="c0"/>
<circle cx="1346" cy="688" r="6" class="c0"/>
<circle cx="988" cy="434" r="6" class="c0"/>
<circle cx="1456" cy="656" r="6" class="c0"/>
<circle cx="1186" cy="602" r="6" class="c0"/>
<circle cx="702" cy="648" r="6" class="c0"/>
<circle cx="1166" cy="492" r="6" class="c0"/>
<circle cx="1092" cy="596" r="6" class="c0"/>
<circle cx="1466" cy="622" r="6" class="c0"/>
<circle cx="1388" cy="582" r="6" class="c0"/>
<circle cx="988" cy="350" r="6" class="c0"/>
<circle cx="1204" cy="432" r="6" class="c0"/>
<circle cx="970" cy="600" r="6" class="c0"/>
<circle cx="1072" cy="454" r="6" class="c0"/>
<circle cx="1086" cy="304" r="6" class="c0"/>
<circle cx="1040" cy="344" r="6" class="c0"/>
<circle cx="1090" cy="576" r="6" class="c0"/>
<circle cx="1102" cy="484" r="6" class="c0"/>
<circle cx="978" cy="276" r="6" class="c0"/>
<circle cx="1184" cy="648" r="6" class="c0"/>
<circle cx="1438" cy="632" r="6" class="c0"/>
<circle cx="1502" cy="694" r="6" class="c0"/>
<circle cx="1234" cy="566" r="6" class="c0"/>
<circle cx="1286" cy="594" r="6" class="c0"/>
<circle cx="1152" cy="430" r="6" class="c0"/>
<circle cx="800" cy="652" r="6" class="c0"/>
<circle cx="1116" cy="418" r="6" class="c0"/>
<circle cx="1200" cy="614" r="6" class="c0"/>
<circle cx="994" cy="464" r="6" class="c0"/>
<circle cx="1260" cy="656" r="6" class="c0"/>
<circle cx="852" cy="666" r="6" class="c0"/>
<circle cx="1460" cy="670" r="6" class="c0"/>
<circle cx="1180" cy="556" r="6" class="c0"/>
<circle cx="1030" cy="614" r="6" class="c0"/>
<circle cx="1034" cy="506" r="6" class="c0"/>
<circle cx="1446" cy="666" r="6" class="c0"/>
<circle cx="768" cy="646" r="6" class="c0"/>
<circle cx="1118" cy="720" r="6" class="c0"/>
<circle cx="1026" cy="382" r="6" class="c0"/>
<circle cx="1302" cy="698" r="6" class="c0"/>
<circle cx="1076" cy="414" r="6" class="c0"/>
<circle cx="968" cy="374" r="6" class="c0"/>
<circle cx="1050" cy="512" r="6" class="c0"/>
<circle cx="1098" cy="446" r="6" class="c0"/>
<circle cx="1154" cy="726" r="6" class="c0"/>
<circle cx="994" cy="502" r="6" class="c0"/>
<circle cx="962" cy="362" r="6" class="c0"/>
<circle cx="992" cy="572" r="6" class="c0"/>
<circle cx="820" cy="636" r="6" class="c0"/>
<circle cx="1050" cy="302" r="6" class="c0"/>
<circle cx="1252" cy="572" r="6" class="c0"/>
<circle cx="1244" cy="684" r="6" class="c0"/>
<circle cx="978" cy="652" r="6" class="c0"/>
<circle cx="954" cy="422" r="6" class="c0"/>
<circle cx="834" cy="662" r="6" class="c0"/>
<circle cx="1082" cy="650" r="6" class="c0"/>
<circle cx="726" cy="634" r="6" class="c0"/>
<circle cx="1160" cy="576" r="6" class="c0"/>
<circle cx="1052" cy="380" r="6" class="c0"/>
<circle cx="1124" cy="428" r="6" class="c0"/>
<circle cx="1318" cy="666" r="6" class="c0"/>
<circle cx="1042" cy="606" r="6" class="c0"/>
<circle cx="1090" cy="376" r="6" class="c0"/>
<circle cx="1056" cy="462" r="6" class="c0"/>
<circle cx="1122" cy="514" r="6" class="c0"/>
<circle cx="1364" cy="654" r="6" class="c0"/>
<circle cx="1236" cy="590" r="6" class="c0"/>
<circle cx="1104" cy="716" r="6" class="c0"/>
<circle cx="684" cy="630" r="6" class="c0"/>
<circle cx="1070" cy="554" r="6" class="c0"/>
<circle cx="948" cy="268" r="6" class="c0"/>
<circle cx="1048" cy="546" r="6" class="c0"/>
<circle cx="670" cy="622" r="6" class="c0"/>
<circle cx="940" cy="644" r="6" class="c0"/>
<circle cx="850" cy="638" r="6" class="c0"/>
<circle cx="1056" cy="672" r="6" class="c0"/>
<circle cx="1140" cy="488" r="6" class="c0"/>
<circle cx="998" cy="636" r="6" class="c0"/>
<circle cx="1100" cy="568" r="6" class="c0"/>
<circle cx="990" cy="620" r="6" class="c0"/>
<circle cx="1226" cy="552" r="6" class="c0"/>
<circle cx="1406" cy="610" r="6" class="c0"/>
<circle cx="1420" cy="584" r="6" class="c0"/>
<circle cx="1358" cy="622" r="6" class="c0"/>
<circle cx="1428" cy="728" r="6" class="c0"/>
<circle cx="1146" cy="580" r="6" class="c0"/>
<circle cx="1272" cy="552" r="6" class="c0"/>
<circle cx="656" cy="602" r="6" class="c0"/>
<circle cx="692" cy="638" r="6" class="c0"/>
<circle cx="870" cy="638" r="6" class="c0"/>
<circle cx="1008" cy="350" r="6" class="c0"/>
<circle cx="1384" cy="718" r="6" class="c0"/>
<circle cx="1050" cy="400" r="6" class="c0"/>
<circle cx="1114" cy="316" r="6" class="c0"/>
<circle cx="630" cy="616" r="6" class="c0"/>
<circle cx="982" cy="402" r="6" class="c0"/>
<circle cx="1394" cy="596" r="6" class="c0"/>
<circle cx="738" cy="640" r="6" class="c0"/>
</svg>
