<?xml version="1.0" encoding="utf-8"?>
<svg xmlns="http://www.w3.org/2000/svg"
     xmlns:xlink="http://www.w3.org/1999/xlink" width="1920" height="1440" >

            <defs>
            <style type="text/css"><![CDATA[
circle {stroke: none;}
.c0 {fill: #FFFFFF;}
]]></style>
            </defs>
<rect x="0" y="0" width="1920" height="1440" fill="black"/>
<circle cx="1496" cy="722" r="14" class="c0"/>
<circle cx="1180" cy="528" r="14" class="c0"/>
<circle cx="1510" cy="636" r="12" class="c0"/>
<circle cx="1456" cy="588" r="12" class="c0"/>
<circle cx="1102" cy="628" r="12" class="c0"/>
<circle cx="1334" cy="680" r="12" class="c0"/>
<circle cx="1364" cy="616" r="12" class="c0"/>
<circle cx="1426" cy="694" r="12" class="c0"/>
<circle cx="1532" cy="678" r="12" class="c0"/>
<circle cx="1120" cy="598" r="12" class="c0"/>
<circle cx="1540" cy="624" r="12" class="c0"/>
<circle cx="1114" cy="404" r="12" class="c0"/>
<circle cx="1122" cy="672" r="12" class="c0"/>
<circle cx="984" cy="634" r="12" class="c0"/>
<circle cx="1142" cy="640" r="12" class="c0"/>
<circle cx="1182" cy="636" r="12" class="c0"/>
<circle cx="718" cy="610" r="12" class="c0"/>
<circle cx="1184" cy="580" r="12" class="c0"/>
<circle cx="996" cy="314" r="12" class="c0"/>
<circle cx="1438" cy="664" r="12" class="c0"/>
<circle cx="1070" cy="414" r="12" class="c0"/>
<circle cx="968" cy="284" r="12" class="c0"/>
<circle cx="1486" cy="678" r="12" class="c0"/>
<circle cx="1136" cy="544" r="12" class="c0"/>
<circle cx="1240" cy="430" r="12" class="c0"/>
<circle cx="1286" cy="652" r="12" class="c0"/>
<circle cx="1044" cy="356" r="12" class="c0"/>
<circle cx="1582" cy="646" r="12" class="c0"/>
<circle cx="1158" cy="384" r="12" class="c0"/>
<circle cx="1044" cy="432" r="12" class="c0"/>
<circle cx="1160" cy="566" r="12" class="c0"/>
<circle cx="1576" cy="690" r="10" class="c0"/>
<circle cx="1240" cy="656" r="10" class="c0"/>
<circle cx="1116" cy="456" r="10" class="c0"/>
<circle cx="1474" cy="614" r="10" class="c0"/>
<circle cx="1128" cy="494" r="10" class="c0"/>
<circle cx="1098" cy="474" r="10" class="c0"/>
<circle cx="1556" cy="700" r="10" class="c0"/>
<circle cx="896" cy="634" r="10" class="c0"/>
<circle cx="1090" cy="666" r="10" class="c0"/>
<circle cx="1092" cy="336" r="10" class="c0"/>
<circle cx="1470" cy="638" r="10" class="c0"/>
<circle cx="1132" cy="470" r="10" class="c0"/>
<circle cx="1218" cy="438" r="10" class="c0"/>
<circle cx="1152" cy="596" r="10" class="c0"/>
<circle cx="840" cy="642" r="10" class="c0"/>
<circle cx="1034" cy="618" r="10" class="c0"/>
<circle cx="1338" cy="628" r="10" class="c0"/>
<circle cx="1404" cy="638" r="10" class="c0"/>
<circle cx="1194" cy="402" r="10" class="c0"/>
<circle cx="738" cy="640" r="10" class="c0"/>
<circle cx="1086" cy="602" r="10" class="c0"/>
<circle cx="1262" cy="612" r="10" class="c0"/>
<circle cx="1170" cy="416" r="10" class="c0"/>
<circle cx="1144" cy="304" r="10" class="c0"/>
<circle cx="1456" cy="712" r="10" class="c0"/>
<circle cx="1092" cy="312" r="10" class="c0"/>
<circle cx="1020" cy="604" r="10" class="c0"/>
<circle cx="1078" cy="446" r="10" class="c0"/>
<circle cx="1464" cy="690" r="10" class="c0"/>
<circle cx="1142" cy="508" r="10" class="c0"/>
<circle cx="1374" cy="694" r="10" class="c0"/>
<circle cx="1176" cy="716" r="10" class="c0"/>
<circle cx="1234" cy="610" r="10" class="c0"/>
<circle cx="1048" cy="320" r="10" class="c0"/>
<circle cx="1010" cy="642" r="10" class="c0"/>
<circle cx="1412" cy="680" r="10" class="c0"/>
<circle cx="1176" cy="476" r="10" class="c0"/>
<circle cx="1064" cy="484" r="10" class="c0"/>
<circle cx="1158" cy="442" r="10" class="c0"/>
<circle cx="1154" cy="524" r="10" class="c0"/>
<circle cx="1078" cy="294" r="10" class="c0"/>
<circle cx="1298" cy="618" r="10" class="c0"/>
<circle cx="1088" cy="360" r="10" class="c0"/>
<circle cx="1050" cy="496" r="10" class="c0"/>
<circle cx="1160" cy="464" r="10" class="c0"/>
<circle cx="1078" cy="526" r="10" class="c0"/>
<circle cx="1108" cy="536" r="10" class="c0"/>
<circle cx="1378" cy="646" r="10" class="c0"/>
<circle cx="1034" cy="578" r="10" class="c0"/>
<circle cx="1220" cy="504" r="10" class="c0"/>
<circle cx="1080" cy="380" r="10" class="c0"/>
<circle cx="1208" cy="708" r="10" class="c0"/>
<circle cx="1206" cy="460" r="10" class="c0"/>
<circle cx="1322" cy="570" r="10" class="c0"/>
<circle cx="1424" cy="596" r="10" class="c0"/>
<circle cx="1176" cy="690" r="10" class="c0"/>
<circle cx="1168" cy="496" r="10" class="c0"/>
<circle cx="1120" cy="282" r="10" class="c0"/>
<circle cx="1222" cy="666" r="10" class="c0"/>
<circle cx="808" cy="636" r="10" class="c0"/>
<circle cx="1132" cy="422" r="10" class="c0"/>
<circle cx="1316" cy="650" r="10" class="c0"/>
<circle cx="864" cy="652" r="10" class="c0"/>
<circle cx="1498" cy="594" r="10" class="c0"/>
<circle cx="1188" cy="664" r="10" class="c0"/>
<circle cx="1164" cy="668" r="8" class="c0"/>
<circle cx="1210" cy="682" r="8" class="c0"/>
<circle cx="988" cy="334" r="8" class="c0"/>
<circle cx="1010" cy="332" r="8" class="c0"/>
<circle cx="1118" cy="558" r="8" class="c0"/>
<circle cx="930" cy="636" r="8" class="c0"/>
<circle cx="1312" cy="682" r="8" class="c0"/>
<circle cx="1446" cy="636" r="8" class="c0"/>
<circle cx="1068" cy="618" r="8" class="c0"/>
<circle cx="1134" cy="576" r="8" class="c0"/>
<circle cx="1116" cy="648" r="8" class="c0"/>
<circle cx="1418" cy="626" r="8" class="c0"/>
<circle cx="1124" cy="350" r="8" class="c0"/>
<circle cx="1226" cy="560" r="8" class="c0"/>
<circle cx="1122" cy="308" r="8" class="c0"/>
<circle cx="1054" cy="298" r="8" class="c0"/>
<circle cx="1048" cy="660" r="8" class="c0"/>
<circle cx="1176" cy="600" r="8" class="c0"/>
<circle cx="1268" cy="638" r="8" class="c0"/>
<circle cx="1266" cy="670" r="8" class="c0"/>
<circle cx="1046" cy="564" r="8" class="c0"/>
<circle cx="1220" cy="592" r="8" class="c0"/>
<circle cx="1130" cy="390" r="8" class="c0"/>
<circle cx="1104" cy="434" r="8" class="c0"/>
<circle cx="994" cy="278" r="8" class="c0"/>
<circle cx="1510" cy="608" r="8" class="c0"/>
<circle cx="1214" cy="640" r="8" class="c0"/>
<circle cx="1408" cy="606" r="8" class="c0"/>
<circle cx="856" cy="628" r="8" class="c0"/>
<circle cx="1244" cy="636" r="8" class="c0"/>
<circle cx="1194" cy="612" r="8" class="c0"/>
<circle cx="1286" cy="678" r="8" class="c0"/>
<circle cx="1046" cy="406" r="8" class="c0"/>
<circle cx="1270" cy="560" r="8" class="c0"/>
<circle cx="1210" cy="540" r="8" class="c0"/>
<circle cx="770" cy="616" r="8" class="c0"/>
<circle cx="1290" cy="560" r="8" class="c0"/>
<circle cx="1068" cy="464" r="8" class="c0"/>
<circle cx="1126" cy="624" r="8" class="c0"/>
<circle cx="1348" cy="646" r="8" class="c0"/>
<circle cx="1198" cy="488" r="8" class="c0"/>
<circle cx="1126" cy="522" r="8" class="c0"/>
<circle cx="1092" cy="392" r="8" class="c0"/>
<circle cx="1032" cy="640" r="8" class="c0"/>
<circle cx="1490" cy="628" r="8" class="c0"/>
<circle cx="1108" cy="500" r="8" class="c0"/>
<circle cx="1206" cy="570" r="8" class="c0"/>
<circle cx="1510" cy="694" r="8" class="c0"/>
<circle cx="1340" cy="590" r="8" class="c0"/>
<circle cx="974" cy="322" r="8" class="c0"/>
<circle cx="748" cy="614" r="8" class="c0"/>
<circle cx="1456" cy="654" r="8" class="c0"/>
<circle cx="1070" cy="318" r="8" class="c0"/>
<circle cx="1020" cy="426" r="8" class="c0"/>
<circle cx="680" cy="606" r="8" class="c0"/>
<circle cx="1206" cy="522" r="8" class="c0"/>
<circle cx="1216" cy="482" r="8" class="c0"/>
<circle cx="900" cy="674" r="8" class="c0"/>
<circle cx="1388" cy="682" r="8" class="c0"/>
<circle cx="1058" cy="682" r="8" class="c0"/>
<circle cx="1010" cy="356" r="8" class="c0"/>
<circle cx="1178" cy="740" r="8" class="c0"/>
<circle cx="1060" cy="392" r="8" class="c0"/>
<circle cx="1048" cy="632" r="8" class="c0"/>
<circle cx="1488" cy="648" r="8" class="c0"/>
<circle cx="1204" cy="652" r="8" class="c0"/>
<circle cx="1242" cy="552" r="8" class="c0"/>
<circle cx="1026" cy="374" r="8" class="c0"/>
<circle cx="1148" cy="676" r="8" class="c0"/>
<circle cx="1100" cy="582" r="8" class="c0"/>
<circle cx="1392" cy="704" r="8" class="c0"/>
<circle cx="1348" cy="694" r="8" class="c0"/>
<circle cx="1196" cy="426" r="8" class="c0"/>
<circle cx="1318" cy="602" r="8" class="c0"/>
<circle cx="1080" cy="636" r="8" class="c0"/>
<circle cx="1106" cy="300" r="8" class="c0"/>
<circle cx="806" cy="616" r="8" class="c0"/>
<circle cx="1420" cy="654" r="8" class="c0"/>
<circle cx="1056" cy="544" r="8" class="c0"/>
<circle cx="1142" cy="400" r="8" class="c0"/>
<circle cx="1134" cy="444" r="8" class="c0"/>
<circle cx="788" cy="634" r="8" class="c0"/>
<circle cx="1286" cy="604" r="8" class="c0"/>
<circle cx="1112" cy="364" r="8" class="c0"/>
<circle cx="1366" cy="672" r="8" class="c0"/>
<circle cx="1036" cy="674" r="8" class="c0"/>
<circle cx="1540" cy="654" r="8" class="c0"/>
<circle cx="1380" cy="602" r="8" class="c0"/>
<circle cx="1524" cy="716" r="8" class="c0"/>
<circle cx="1318" cy="622" r="8" class="c0"/>
<circle cx="1020" cy="342" r="8" class="c0"/>
<circle cx="1070" cy="648" r="8" class="c0"/>
<circle cx="1070" cy="344" r="8" class="c0"/>
<circle cx="1600" cy="664" r="8" class="c0"/>
<circle cx="1174" cy="552" r="8" class="c0"/>
<circle cx="1524" cy="590" r="8" class="c0"/>
<circle cx="1078" cy="504" r="8" class="c0"/>
<circle cx="1222" cy="624" r="8" class="c0"/>
<circle cx="1164" cy="704" r="8" class="c0"/>
<circle cx="1210" cy="728" r="8" class="c0"/>
<circle cx="1470" cy="664" r="8" class="c0"/>
<circle cx="1062" cy="368" r="8" class="c0"/>
<circle cx="1092" cy="416" r="8" class="c0"/>
<circle cx="1160" cy="626" r="8" class="c0"/>
<circle cx="1202" cy="322" r="8" class="c0"/>
<circle cx="1174" cy="310" r="8" class="c0"/>
<circle cx="1036" cy="396" r="8" class="c0"/>
<circle cx="962" cy="638" r="8" class="c0"/>
<circle cx="1386" cy="620" r="8" class="c0"/>
<circle cx="1216" cy="412" r="8" class="c0"/>
<circle cx="1142" cy="368" r="8" class="c0"/>
<circle cx="760" cy="630" r="8" class="c0"/>
<circle cx="1398" cy="666" r="8" class="c0"/>
<circle cx="1242" cy="452" r="8" class="c0"/>
<circle cx="1300" cy="666" r="8" class="c0"/>
<circle cx="1204" cy="628" r="8" class="c0"/>
<circle cx="1434" cy="616" r="8" class="c0"/>
<circle cx="874" cy="626" r="8" class="c0"/>
<circle cx="1560" cy="656" r="8" class="c0"/>
<circle cx="1518" cy="662" r="8" class="c0"/>
<circle cx="1430" cy="644" r="8" class="c0"/>
<circle cx="1144" cy="482" r="8" class="c0"/>
<circle cx="1096" cy="518" r="8" class="c0"/>
<circle cx="1112" cy="320" r="8" class="c0"/>
<circle cx="756" cy="648" r="8" class="c0"/>
<circle cx="1184" cy="384" r="8" class="c0"/>
<circle cx="1198" cy="692" r="8" class="c0"/>
<circle cx="1012" cy="406" r="8" class="c0"/>
<circle cx="958" cy="312" r="8" class="c0"/>
<circle cx="1178" cy="446" r="8" class="c0"/>
<circle cx="1336" cy="658" r="8" class="c0"/>
<circle cx="1556" cy="638" r="8" class="c0"/>
<circle cx="1336" cy="558" r="8" class="c0"/>
<circle cx="1098" cy="282" r="8" class="c0"/>
<circle cx="1454" cy="610" r="8" class="c0"/>
<circle cx="1102" cy="374" r="8" class="c0"/>
<circle cx="1196" cy="554" r="8" class="c0"/>
<circle cx="1048" cy="470" r="8" class="c0"/>
<circle cx="1230" cy="532" r="8" class="c0"/>
<circle cx="1350" cy="602" r="8" class="c0"/>
<circle cx="1056" cy="524" r="8" class="c0"/>
<circle cx="1050" cy="382" r="8" class="c0"/>
<circle cx="1128" cy="330" r="8" class="c0"/>
<circle cx="1192" cy="726" r="8" class="c0"/>
<circle cx="1008" cy="622" r="8" class="c0"/>
<circle cx="826" cy="618" r="8" class="c0"/>
<circle cx="1086" cy="486" r="8" class="c0"/>
<circle cx="702" cy="622" r="8" class="c0"/>
<circle cx="1238" cy="586" r="8" class="c0"/>
<circle cx="1328" cy="612" r="8" class="c0"/>
<circle cx="1166" cy="650" r="8" class="c0"/>
<circle cx="1192" cy="508" r="8" class="c0"/>
<circle cx="1480" cy="700" r="8" class="c0"/>
<circle cx="1578" cy="668" r="8" class="c0"/>
<circle cx="1402" cy="588" r="8" class="c0"/>
<circle cx="1054" cy="450" r="8" class="c0"/>
<circle cx="1478" cy="590" r="8" class="c0"/>
<circle cx="1068" cy="672" r="8" class="c0"/>
<circle cx="1022" cy="656" r="8" class="c0"/>
<circle cx="980" cy="300" r="8" class="c0"/>
<circle cx="1558" cy="676" r="8" class="c0"/>
<circle cx="976" cy="344" r="8" class="c0"/>
<circle cx="1144" cy="616" r="8" class="c0"/>
<circle cx="1112" cy="340" r="8" class="c0"/>
<circle cx="1368" cy="592" r="8" class="c0"/>
<circle cx="1302" cy="638" r="8" class="c0"/>
<circle cx="1034" cy="332" r="8" class="c0"/>
<circle cx="1198" cy="594" r="8" class="c0"/>
<circle cx="1188" cy="702" r="8" class="c0"/>
<circle cx="1000" cy="344" r="8" class="c0"/>
<circle cx="952" cy="628" r="8" class="c0"/>
<circle cx="1022" cy="318" r="8" class="c0"/>
<circle cx="1174" cy="396" r="8" class="c0"/>
<circle cx="822" cy="650" r="8" class="c0"/>
<circle cx="1536" cy="602" r="8" class="c0"/>
<circle cx="1120" cy="380" r="8" class="c0"/>
<circle cx="662" cy="612" r="6" class="c0"/>
<circle cx="1194" cy="444" r="6" class="c0"/>
<circle cx="1472" cy="726" r="6" class="c0"/>
<circle cx="1158" cy="546" r="6" class="c0"/>
<circle cx="1152" cy="424" r="6" class="c0"/>
<circle cx="1030" cy="416" r="6" class="c0"/>
<circle cx="1516" cy="736" r="6" class="c0"/>
<circle cx="1446" cy="684" r="6" class="c0"/>
<circle cx="990" cy="354" r="6" class="c0"/>
<circle cx="1138" cy="662" r="6" class="c0"/>
<circle cx="1592" cy="698" r="6" class="c0"/>
<circle cx="836" cy="660" r="6" class="c0"/>
<circle cx="1540" cy="718" r="6" class="c0"/>
<circle cx="1264" cy="654" r="6" class="c0"/>
<circle cx="1360" cy="636" r="6" class="c0"/>
<circle cx="1058" cy="334" r="6" class="c0"/>
<circle cx="786" cy="614" r="6" class="c0"/>
<circle cx="1166" cy="610" r="6" class="c0"/>
<circle cx="1092" cy="648" r="6" class="c0"/>
<circle cx="1280" cy="570" r="6" class="c0"/>
<circle cx="1250" cy="674" r="6" class="c0"/>
<circle cx="1350" cy="666" r="6" class="c0"/>
<circle cx="1166" cy="730" r="6" class="c0"/>
<circle cx="1498" cy="660" r="6" class="c0"/>
<circle cx="914" cy="626" r="6" class="c0"/>
<circle cx="1284" cy="630" r="6" class="c0"/>
<circle cx="1306" cy="558" r="6" class="c0"/>
<circle cx="880" cy="668" r="6" class="c0"/>
<circle cx="1456" cy="672" r="6" class="c0"/>
<circle cx="1212" cy="614" r="6" class="c0"/>
<circle cx="1536" cy="702" r="6" class="c0"/>
<circle cx="1160" cy="296" r="6" class="c0"/>
<circle cx="1416" cy="710" r="6" class="c0"/>
<circle cx="1304" cy="572" r="6" class="c0"/>
<circle cx="1442" cy="600" r="6" class="c0"/>
<circle cx="1508" cy="676" r="6" class="c0"/>
<circle cx="1174" cy="374" r="6" class="c0"/>
<circle cx="998" cy="294" r="6" class="c0"/>
<circle cx="730" cy="624" r="6" class="c0"/>
<circle cx="1494" cy="612" r="6" class="c0"/>
<circle cx="1260" cy="594" r="6" class="c0"/>
<circle cx="1436" cy="710" r="6" class="c0"/>
<circle cx="1526" cy="646" r="6" class="c0"/>
<circle cx="1158" cy="314" r="6" class="c0"/>
<circle cx="960" cy="332" r="6" class="c0"/>
<circle cx="852" cy="664" r="6" class="c0"/>
<circle cx="1184" cy="320" r="6" class="c0"/>
<circle cx="1102" cy="678" r="6" class="c0"/>
<circle cx="1222" cy="576" r="6" class="c0"/>
<circle cx="1358" cy="658" r="6" class="c0"/>
<circle cx="1098" cy="454" r="6" class="c0"/>
<circle cx="982" cy="266" r="6" class="c0"/>
<circle cx="770" cy="640" r="6" class="c0"/>
<circle cx="1438" cy="580" r="6" class="c0"/>
<circle cx="696" cy="604" r="6" class="c0"/>
<circle cx="1254" cy="562" r="6" class="c0"/>
<circle cx="1140" cy="284" r="6" class="c0"/>
<circle cx="844" cy="618" r="6" class="c0"/>
<circle cx="1114" cy="574" r="6" class="c0"/>
<circle cx="684" cy="622" r="6" class="c0"/>
<circle cx="1574" cy="628" r="6" class="c0"/>
<circle cx="1520" cy="618" r="6" class="c0"/>
<circle cx="1116" cy="480" r="6" class="c0"/>
<circle cx="1596" cy="684" r="6" class="c0"/>
<circle cx="1062" cy="508" r="6" class="c0"/>
<circle cx="1144" cy="454" r="6" class="c0"/>
<circle cx="1086" cy="462" r="6" class="c0"/>
<circle cx="1186" cy="460" r="6" class="c0"/>
<circle cx="1402" cy="694" r="6" class="c0"/>
<circle cx="1510" cy="580" r="6" class="c0"/>
<circle cx="1036" cy="596" r="6" class="c0"/>
<circle cx="1158" cy="688" r="6" class="c0"/>
<circle cx="1276" cy="622" r="6" class="c0"/>
<circle cx="1022" cy="630" r="6" class="c0"/>
<circle cx="1258" cy="440" r="6" class="c0"/>
<circle cx="1222" cy="718" r="6" class="c0"/>
<circle cx="1058" cy="608" r="6" class="c0"/>
<circle cx="1320" cy="668" r="6" class="c0"/>
<circle cx="1078" cy="682" r="6" class="c0"/>
<circle cx="1322" cy="694" r="6" class="c0"/>
<circle cx="1302" cy="600" r="6" class="c0"/>
<circle cx="1488" cy="580" r="6" class="c0"/>
<circle cx="866" cy="670" r="6" class="c0"/>
<circle cx="912" cy="642" r="6" class="c0"/>
<circle cx="1296" cy="688" r="6" class="c0"/>
<circle cx="1104" cy="608" r="6" class="c0"/>
<circle cx="1088" cy="432" r="6" class="c0"/>
<circle cx="1380" cy="664" r="6" class="c0"/>
<circle cx="1254" cy="646" r="6" class="c0"/>
<circle cx="1178" cy="616" r="6" class="c0"/>
<circle cx="1106" cy="658" r="6" class="c0"/>
<circle cx="1224" cy="456" r="6" class="c0"/>
<circle cx="1120" cy="436" r="6" class="c0"/>
<circle cx="1152" cy="658" r="6" class="c0"/>
<circle cx="1456" cy="626" r="6" class="c0"/>
<circle cx="1180" cy="430" r="6" class="c0"/>
<circle cx="1260" cy="550" r="6" class="c0"/>
<circle cx="1248" cy="600" r="6" class="c0"/>
<circle cx="1236" cy="676" r="6" class="c0"/>
<circle cx="1102" cy="350" r="6" class="c0"/>
<circle cx="1084" cy="620" r="6" class="c0"/>
</svg>
