<?xml version="1.0" encoding="utf-8"?>
<svg xmlns="http://www.w3.org/2000/svg"
     xmlns:xlink="http://www.w3.org/1999/xlink" width="1920" height="1440" >

            <defs>
            <style type="text/css"><![CDATA[
circle {stroke: none;}
.c0 {fill: #FFFFFF;}
]]></style>
            </defs>
<rect x="0" y="0" width="1920" height="1440" fill="black"/>
<circle cx="1752" cy="706" r="14" class="c0"/>
<circle cx="1662" cy="738" r="12" class="c0"/>
<circle cx="1582" cy="718" r="12" class="c0"/>
<circle cx="1264" cy="698" r="12" class="c0"/>
<circle cx="1196" cy="508" r="12" class="c0"/>
<circle cx="1562" cy="670" r="12" class="c0"/>
<circle cx="1690" cy="594" r="12" class="c0"/>
<circle cx="1066" cy="342" r="12" class="c0"/>
<circle cx="1666" cy="648" r="12" class="c0"/>
<circle cx="1344" cy="664" r="12" class="c0"/>
<circle cx="1722" cy="618" r="12" class="c0"/>
<circle cx="1438" cy="696" r="12" class="c0"/>
<circle cx="1208" cy="328" r="12" class="c0"/>
<circle cx="1512" cy="620" r="12" class="c0"/>
<circle cx="968" cy="646" r="12" class="c0"/>
<circle cx="1374" cy="498" r="12" class="c0"/>
<circle cx="1394" cy="636" r="12" class="c0"/>
<circle cx="1176" cy="654" r="12" class="c0"/>
<circle cx="1302" cy="614" r="12" class="c0"/>
<circle cx="1550" cy="644" r="12" class="c0"/>
<circle cx="1252" cy="604" r="12" class="c0"/>
<circle cx="1696" cy="698" r="12" class="c0"/>
<circle cx="1554" cy="608" r="12" class="c0"/>
<circle cx="1462" cy="608" r="12" class="c0"/>
<circle cx="1320" cy="596" r="12" class="c0"/>
<circle cx="1248" cy="330" r="12" class="c0"/>
<circle cx="1634" cy="660" r="12" class="c0"/>
<circle cx="1242" cy="390" r="10" class="c0"/>
<circle cx="1128" cy="332" r="10" class="c0"/>
<circle cx="1352" cy="596" r="10" class="c0"/>
<circle cx="1374" cy="526" r="10" class="c0"/>
<circle cx="1692" cy="726" r="10" class="c0"/>
<circle cx="1776" cy="666" r="10" class="c0"/>
<circle cx="1634" cy="596" r="10" class="c0"/>
<circle cx="1360" cy="680" r="10" class="c0"/>
<circle cx="1204" cy="422" r="10" class="c0"/>
<circle cx="1444" cy="594" r="10" class="c0"/>
<circle cx="1222" cy="366" r="10" class="c0"/>
<circle cx="1142" cy="312" r="10" class="c0"/>
<circle cx="1338" cy="534" r="10" class="c0"/>
<circle cx="1488" cy="642" r="10" class="c0"/>
<circle cx="1422" cy="654" r="10" class="c0"/>
<circle cx="1616" cy="630" r="10" class="c0"/>
<circle cx="1134" cy="364" r="10" class="c0"/>
<circle cx="1368" cy="570" r="10" class="c0"/>
<circle cx="1318" cy="646" r="10" class="c0"/>
<circle cx="1218" cy="648" r="10" class="c0"/>
<circle cx="1646" cy="720" r="10" class="c0"/>
<circle cx="1610" cy="654" r="10" class="c0"/>
<circle cx="1168" cy="694" r="10" class="c0"/>
<circle cx="1146" cy="664" r="10" class="c0"/>
<circle cx="1108" cy="358" r="10" class="c0"/>
<circle cx="1644" cy="690" r="10" class="c0"/>
<circle cx="886" cy="656" r="10" class="c0"/>
<circle cx="1358" cy="630" r="10" class="c0"/>
<circle cx="1306" cy="350" r="10" class="c0"/>
<circle cx="1248" cy="284" r="10" class="c0"/>
<circle cx="1168" cy="380" r="10" class="c0"/>
<circle cx="1300" cy="682" r="10" class="c0"/>
<circle cx="1388" cy="604" r="10" class="c0"/>
<circle cx="1246" cy="672" r="10" class="c0"/>
<circle cx="1696" cy="754" r="10" class="c0"/>
<circle cx="1460" cy="676" r="10" class="c0"/>
<circle cx="1716" cy="688" r="10" class="c0"/>
<circle cx="1162" cy="414" r="10" class="c0"/>
<circle cx="1182" cy="314" r="10" class="c0"/>
<circle cx="1230" cy="504" r="10" class="c0"/>
<circle cx="1716" cy="654" r="10" class="c0"/>
<circle cx="1258" cy="354" r="10" class="c0"/>
<circle cx="1212" cy="284" r="10" class="c0"/>
<circle cx="1178" cy="268" r="10" class="c0"/>
<circle cx="802" cy="626" r="10" class="c0"/>
<circle cx="1154" cy="610" r="10" class="c0"/>
<circle cx="1340" cy="366" r="10" class="c0"/>
<circle cx="1620" cy="686" r="10" class="c0"/>
<circle cx="1262" cy="422" r="10" class="c0"/>
<circle cx="1104" cy="652" r="10" class="c0"/>
<circle cx="1240" cy="524" r="10" class="c0"/>
<circle cx="1610" cy="602" r="10" class="c0"/>
<circle cx="1166" cy="474" r="10" class="c0"/>
<circle cx="1274" cy="338" r="10" class="c0"/>
<circle cx="1668" cy="676" r="10" class="c0"/>
<circle cx="1300" cy="712" r="10" class="c0"/>
<circle cx="1306" cy="580" r="10" class="c0"/>
<circle cx="1250" cy="560" r="10" class="c0"/>
<circle cx="1288" cy="422" r="10" class="c0"/>
<circle cx="1516" cy="654" r="10" class="c0"/>
<circle cx="984" cy="662" r="10" class="c0"/>
<circle cx="1742" cy="738" r="10" class="c0"/>
<circle cx="1082" cy="292" r="10" class="c0"/>
<circle cx="1314" cy="742" r="10" class="c0"/>
<circle cx="1278" cy="572" r="10" class="c0"/>
<circle cx="1218" cy="394" r="10" class="c0"/>
<circle cx="926" cy="656" r="10" class="c0"/>
<circle cx="1354" cy="486" r="10" class="c0"/>
<circle cx="1414" cy="688" r="10" class="c0"/>
<circle cx="1688" cy="632" r="10" class="c0"/>
<circle cx="1276" cy="272" r="10" class="c0"/>
<circle cx="1170" cy="332" r="10" class="c0"/>
<circle cx="1748" cy="644" r="10" class="c0"/>
<circle cx="1310" cy="554" r="10" class="c0"/>
<circle cx="1488" cy="666" r="10" class="c0"/>
<circle cx="1288" cy="550" r="10" class="c0"/>
<circle cx="1320" cy="418" r="10" class="c0"/>
<circle cx="1242" cy="644" r="10" class="c0"/>
<circle cx="1108" cy="312" r="10" class="c0"/>
<circle cx="1230" cy="464" r="10" class="c0"/>
<circle cx="1158" cy="572" r="10" class="c0"/>
<circle cx="1418" cy="556" r="10" class="c0"/>
<circle cx="1578" cy="622" r="10" class="c0"/>
<circle cx="772" cy="624" r="10" class="c0"/>
<circle cx="1226" cy="252" r="10" class="c0"/>
<circle cx="1460" cy="640" r="10" class="c0"/>
<circle cx="1196" cy="696" r="10" class="c0"/>
<circle cx="854" cy="636" r="10" class="c0"/>
<circle cx="1168" cy="354" r="10" class="c0"/>
<circle cx="1394" cy="550" r="8" class="c0"/>
<circle cx="1380" cy="664" r="8" class="c0"/>
<circle cx="1586" cy="676" r="8" class="c0"/>
<circle cx="1344" cy="400" r="8" class="c0"/>
<circle cx="1520" cy="682" r="8" class="c0"/>
<circle cx="1344" cy="514" r="8" class="c0"/>
<circle cx="1074" cy="650" r="8" class="c0"/>
<circle cx="1224" cy="414" r="8" class="c0"/>
<circle cx="1476" cy="688" r="8" class="c0"/>
<circle cx="1636" cy="744" r="8" class="c0"/>
<circle cx="1252" cy="506" r="8" class="c0"/>
<circle cx="1534" cy="724" r="8" class="c0"/>
<circle cx="1150" cy="426" r="8" class="c0"/>
<circle cx="1784" cy="696" r="8" class="c0"/>
<circle cx="1278" cy="662" r="8" class="c0"/>
<circle cx="1362" cy="464" r="8" class="c0"/>
<circle cx="1512" cy="702" r="8" class="c0"/>
<circle cx="1350" cy="744" r="8" class="c0"/>
<circle cx="1490" cy="712" r="8" class="c0"/>
<circle cx="1768" cy="684" r="8" class="c0"/>
<circle cx="1176" cy="552" r="8" class="c0"/>
<circle cx="1274" cy="512" r="8" class="c0"/>
<circle cx="1136" cy="416" r="8" class="c0"/>
<circle cx="1328" cy="440" r="8" class="c0"/>
<circle cx="1234" cy="594" r="8" class="c0"/>
<circle cx="1194" cy="364" r="8" class="c0"/>
<circle cx="1186" cy="400" r="8" class="c0"/>
<circle cx="1292" cy="648" r="8" class="c0"/>
<circle cx="1338" cy="722" r="8" class="c0"/>
<circle cx="1268" cy="590" r="8" class="c0"/>
<circle cx="1474" cy="654" r="8" class="c0"/>
<circle cx="1204" cy="620" r="8" class="c0"/>
<circle cx="1238" cy="348" r="8" class="c0"/>
<circle cx="1162" cy="298" r="8" class="c0"/>
<circle cx="1310" cy="290" r="8" class="c0"/>
<circle cx="1602" cy="698" r="8" class="c0"/>
<circle cx="1536" cy="626" r="8" class="c0"/>
<circle cx="1230" cy="434" r="8" class="c0"/>
<circle cx="1218" cy="518" r="8" class="c0"/>
<circle cx="1664" cy="698" r="8" class="c0"/>
<circle cx="1794" cy="654" r="8" class="c0"/>
<circle cx="1164" cy="594" r="8" class="c0"/>
<circle cx="1262" cy="650" r="8" class="c0"/>
<circle cx="1488" cy="616" r="8" class="c0"/>
<circle cx="1260" cy="474" r="8" class="c0"/>
<circle cx="1498" cy="686" r="8" class="c0"/>
<circle cx="822" cy="648" r="8" class="c0"/>
<circle cx="1128" cy="614" r="8" class="c0"/>
<circle cx="1282" cy="626" r="8" class="c0"/>
<circle cx="1178" cy="460" r="8" class="c0"/>
<circle cx="1260" cy="442" r="8" class="c0"/>
<circle cx="1212" cy="488" r="8" class="c0"/>
<circle cx="1200" cy="264" r="8" class="c0"/>
<circle cx="1290" cy="370" r="8" class="c0"/>
<circle cx="822" cy="628" r="8" class="c0"/>
<circle cx="1366" cy="438" r="8" class="c0"/>
<circle cx="1638" cy="634" r="8" class="c0"/>
<circle cx="1260" cy="400" r="8" class="c0"/>
<circle cx="1290" cy="286" r="8" class="c0"/>
<circle cx="1662" cy="588" r="8" class="c0"/>
<circle cx="1672" cy="622" r="8" class="c0"/>
<circle cx="1284" cy="492" r="8" class="c0"/>
<circle cx="1368" cy="614" r="8" class="c0"/>
<circle cx="1398" cy="676" r="8" class="c0"/>
<circle cx="1146" cy="636" r="8" class="c0"/>
<circle cx="1418" cy="626" r="8" class="c0"/>
<circle cx="1298" cy="386" r="8" class="c0"/>
<circle cx="988" cy="684" r="8" class="c0"/>
<circle cx="1222" cy="614" r="8" class="c0"/>
<circle cx="1508" cy="724" r="8" class="c0"/>
<circle cx="1196" cy="452" r="8" class="c0"/>
<circle cx="1004" cy="646" r="8" class="c0"/>
<circle cx="1016" cy="658" r="8" class="c0"/>
<circle cx="1194" cy="484" r="8" class="c0"/>
<circle cx="1332" cy="346" r="8" class="c0"/>
<circle cx="1178" cy="496" r="8" class="c0"/>
<circle cx="1340" cy="762" r="8" class="c0"/>
<circle cx="1770" cy="720" r="8" class="c0"/>
<circle cx="1600" cy="736" r="8" class="c0"/>
<circle cx="1208" cy="666" r="8" class="c0"/>
<circle cx="1274" cy="388" r="8" class="c0"/>
<circle cx="1406" cy="594" r="8" class="c0"/>
<circle cx="1100" cy="332" r="8" class="c0"/>
<circle cx="1716" cy="594" r="8" class="c0"/>
<circle cx="1736" cy="656" r="8" class="c0"/>
<circle cx="1192" cy="344" r="8" class="c0"/>
<circle cx="1290" cy="402" r="8" class="c0"/>
<circle cx="1654" cy="608" r="8" class="c0"/>
<circle cx="1252" cy="628" r="8" class="c0"/>
<circle cx="1194" cy="292" r="8" class="c0"/>
<circle cx="1688" cy="654" r="8" class="c0"/>
<circle cx="912" cy="636" r="8" class="c0"/>
<circle cx="1040" cy="646" r="8" class="c0"/>
<circle cx="1312" cy="528" r="8" class="c0"/>
<circle cx="860" cy="664" r="8" class="c0"/>
<circle cx="1566" cy="700" r="8" class="c0"/>
<circle cx="1324" cy="386" r="8" class="c0"/>
<circle cx="1344" cy="420" r="8" class="c0"/>
<circle cx="1312" cy="370" r="8" class="c0"/>
<circle cx="1332" cy="692" r="8" class="c0"/>
<circle cx="1184" cy="676" r="8" class="c0"/>
<circle cx="1322" cy="702" r="8" class="c0"/>
<circle cx="1256" cy="378" r="8" class="c0"/>
<circle cx="1180" cy="438" r="8" class="c0"/>
<circle cx="1288" cy="696" r="8" class="c0"/>
<circle cx="1156" cy="444" r="8" class="c0"/>
<circle cx="1586" cy="600" r="8" class="c0"/>
<circle cx="1220" cy="684" r="8" class="c0"/>
<circle cx="1574" cy="646" r="8" class="c0"/>
<circle cx="1736" cy="684" r="8" class="c0"/>
<circle cx="1180" cy="570" r="8" class="c0"/>
<circle cx="1256" cy="580" r="8" class="c0"/>
<circle cx="1316" cy="762" r="8" class="c0"/>
<circle cx="1438" cy="664" r="8" class="c0"/>
<circle cx="1052" cy="660" r="8" class="c0"/>
<circle cx="1714" cy="726" r="8" class="c0"/>
<circle cx="1278" cy="608" r="8" class="c0"/>
<circle cx="1060" cy="276" r="8" class="c0"/>
<circle cx="1444" cy="620" r="8" class="c0"/>
<circle cx="1468" cy="708" r="8" class="c0"/>
<circle cx="1320" cy="676" r="8" class="c0"/>
<circle cx="1190" cy="640" r="8" class="c0"/>
<circle cx="1806" cy="692" r="8" class="c0"/>
<circle cx="1090" cy="350" r="8" class="c0"/>
<circle cx="1700" cy="672" r="8" class="c0"/>
<circle cx="1290" cy="526" r="8" class="c0"/>
<circle cx="1110" cy="632" r="8" class="c0"/>
<circle cx="1126" cy="640" r="8" class="c0"/>
<circle cx="1374" cy="644" r="8" class="c0"/>
<circle cx="1350" cy="448" r="8" class="c0"/>
<circle cx="1546" cy="688" r="8" class="c0"/>
<circle cx="1620" cy="714" r="8" class="c0"/>
<circle cx="1430" cy="568" r="8" class="c0"/>
<circle cx="1068" cy="306" r="8" class="c0"/>
<circle cx="1252" cy="536" r="8" class="c0"/>
<circle cx="1222" cy="540" r="8" class="c0"/>
<circle cx="1236" cy="698" r="8" class="c0"/>
<circle cx="1224" cy="306" r="8" class="c0"/>
<circle cx="1188" cy="538" r="8" class="c0"/>
<circle cx="1530" cy="670" r="8" class="c0"/>
<circle cx="1166" cy="280" r="8" class="c0"/>
<circle cx="1216" cy="446" r="8" class="c0"/>
<circle cx="1598" cy="614" r="8" class="c0"/>
<circle cx="1548" cy="706" r="8" class="c0"/>
<circle cx="1558" cy="716" r="8" class="c0"/>
<circle cx="1238" cy="264" r="8" class="c0"/>
<circle cx="1526" cy="636" r="8" class="c0"/>
<circle cx="1596" cy="634" r="8" class="c0"/>
<circle cx="1424" cy="598" r="8" class="c0"/>
<circle cx="1372" cy="550" r="8" class="c0"/>
<circle cx="1604" cy="674" r="8" class="c0"/>
<circle cx="1368" cy="418" r="8" class="c0"/>
<circle cx="1324" cy="506" r="8" class="c0"/>
<circle cx="1132" cy="398" r="8" class="c0"/>
<circle cx="1342" cy="554" r="8" class="c0"/>
<circle cx="1726" cy="710" r="8" class="c0"/>
<circle cx="1058" cy="294" r="8" class="c0"/>
<circle cx="1148" cy="350" r="8" class="c0"/>
<circle cx="1084" cy="322" r="8" class="c0"/>
<circle cx="1322" cy="568" r="8" class="c0"/>
<circle cx="1342" cy="576" r="8" class="c0"/>
<circle cx="1230" cy="568" r="8" class="c0"/>
<circle cx="838" cy="658" r="8" class="c0"/>
<circle cx="1708" cy="768" r="8" class="c0"/>
<circle cx="962" cy="674" r="8" class="c0"/>
<circle cx="1334" cy="616" r="8" class="c0"/>
<circle cx="1388" cy="692" r="8" class="c0"/>
<circle cx="1298" cy="506" r="8" class="c0"/>
<circle cx="1242" cy="308" r="8" class="c0"/>
<circle cx="1244" cy="412" r="8" class="c0"/>
<circle cx="1792" cy="676" r="8" class="c0"/>
<circle cx="1324" cy="626" r="8" class="c0"/>
<circle cx="1746" cy="674" r="8" class="c0"/>
<circle cx="1772" cy="644" r="8" class="c0"/>
<circle cx="1230" cy="632" r="8" class="c0"/>
<circle cx="1198" cy="382" r="8" class="c0"/>
<circle cx="1258" cy="256" r="8" class="c0"/>
<circle cx="1266" cy="496" r="8" class="c0"/>
<circle cx="1046" cy="334" r="8" class="c0"/>
<circle cx="1526" cy="602" r="8" class="c0"/>
<circle cx="1338" cy="476" r="8" class="c0"/>
<circle cx="1220" cy="344" r="8" class="c0"/>
<circle cx="1618" cy="734" r="8" class="c0"/>
<circle cx="1086" cy="660" r="8" class="c0"/>
<circle cx="874" cy="632" r="8" class="c0"/>
<circle cx="1248" cy="452" r="8" class="c0"/>
<circle cx="942" cy="670" r="8" class="c0"/>
<circle cx="1288" cy="592" r="8" class="c0"/>
<circle cx="1012" cy="690" r="8" class="c0"/>
<circle cx="1720" cy="748" r="8" class="c0"/>
<circle cx="1524" cy="714" r="8" class="c0"/>
<circle cx="1674" cy="712" r="8" class="c0"/>
<circle cx="1530" cy="696" r="8" class="c0"/>
<circle cx="1272" cy="368" r="8" class="c0"/>
<circle cx="1282" cy="474" r="8" class="c0"/>
<circle cx="1240" cy="488" r="8" class="c0"/>
<circle cx="1346" cy="642" r="8" class="c0"/>
<circle cx="1598" cy="590" r="8" class="c0"/>
<circle cx="1216" cy="596" r="8" class="c0"/>
<circle cx="1302" cy="658" r="8" class="c0"/>
<circle cx="1320" cy="720" r="8" class="c0"/>
<circle cx="1272" cy="640" r="8" class="c0"/>
<circle cx="1480" cy="600" r="6" class="c0"/>
<circle cx="1644" cy="582" r="6" class="c0"/>
<circle cx="1402" cy="570" r="6" class="c0"/>
<circle cx="1270" cy="528" r="6" class="c0"/>
<circle cx="946" cy="636" r="6" class="c0"/>
<circle cx="1210" cy="470" r="6" class="c0"/>
<circle cx="1302" cy="636" r="6" class="c0"/>
<circle cx="1364" cy="402" r="6" class="c0"/>
<circle cx="1406" cy="662" r="6" class="c0"/>
<circle cx="1150" cy="394" r="6" class="c0"/>
<circle cx="1118" cy="662" r="6" class="c0"/>
<circle cx="1354" cy="526" r="6" class="c0"/>
<circle cx="1452" cy="710" r="6" class="c0"/>
<circle cx="1650" cy="754" r="6" class="c0"/>
<circle cx="1510" cy="672" r="6" class="c0"/>
<circle cx="1442" cy="644" r="6" class="c0"/>
<circle cx="1204" cy="540" r="6" class="c0"/>
<circle cx="1686" cy="614" r="6" class="c0"/>
<circle cx="1490" cy="556" r="6" class="c0"/>
<circle cx="930" cy="638" r="6" class="c0"/>
<circle cx="1570" cy="594" r="6" class="c0"/>
<circle cx="788" cy="642" r="6" class="c0"/>
<circle cx="1420" cy="580" r="6" class="c0"/>
<circle cx="1364" cy="658" r="6" class="c0"/>
<circle cx="1142" cy="380" r="6" class="c0"/>
<circle cx="1566" cy="732" r="6" class="c0"/>
<circle cx="1148" cy="688" r="6" class="c0"/>
<circle cx="1294" cy="336" r="6" class="c0"/>
<circle cx="1404" cy="614" r="6" class="c0"/>
<circle cx="1348" cy="702" r="6" class="c0"/>
<circle cx="1434" cy="608" r="6" class="c0"/>
<circle cx="1134" cy="432" r="6" class="c0"/>
<circle cx="1022" cy="640" r="6" class="c0"/>
<circle cx="1146" cy="702" r="6" class="c0"/>
<circle cx="1306" cy="400" r="6" class="c0"/>
<circle cx="1280" cy="680" r="6" class="c0"/>
<circle cx="890" cy="636" r="6" class="c0"/>
<circle cx="1360" cy="510" r="6" class="c0"/>
<circle cx="1678" cy="748" r="6" class="c0"/>
<circle cx="1656" cy="628" r="6" class="c0"/>
<circle cx="1746" cy="626" r="6" class="c0"/>
<circle cx="1270" cy="458" r="6" class="c0"/>
<circle cx="1560" cy="628" r="6" class="c0"/>
<circle cx="1182" cy="706" r="6" class="c0"/>
<circle cx="1780" cy="730" r="6" class="c0"/>
<circle cx="1432" cy="634" r="6" class="c0"/>
<circle cx="1232" cy="662" r="6" class="c0"/>
<circle cx="1216" cy="700" r="6" class="c0"/>
<circle cx="1472" cy="558" r="6" class="c0"/>
<circle cx="1164" cy="674" r="6" class="c0"/>
<circle cx="1700" cy="612" r="6" class="c0"/>
<circle cx="908" cy="658" r="6" class="c0"/>
<circle cx="950" cy="656" r="6" class="c0"/>
<circle cx="1448" cy="554" r="6" class="c0"/>
<circle cx="1340" cy="498" r="6" class="c0"/>
<circle cx="1790" cy="718" r="6" class="c0"/>
<circle cx="1286" cy="352" r="6" class="c0"/>
<circle cx="1168" cy="506" r="6" class="c0"/>
<circle cx="1630" cy="618" r="6" class="c0"/>
<circle cx="1332" cy="748" r="6" class="c0"/>
<circle cx="1590" cy="652" r="6" class="c0"/>
<circle cx="1616" cy="582" r="6" class="c0"/>
<circle cx="1382" cy="432" r="6" class="c0"/>
<circle cx="840" cy="626" r="6" class="c0"/>
<circle cx="1326" cy="546" r="6" class="c0"/>
<circle cx="1264" cy="546" r="6" class="c0"/>
<circle cx="1758" cy="664" r="6" class="c0"/>
<circle cx="1380" cy="448" r="6" class="c0"/>
<circle cx="1204" cy="308" r="6" class="c0"/>
<circle cx="1148" cy="330" r="6" class="c0"/>
<circle cx="1328" cy="490" r="6" class="c0"/>
<circle cx="1302" cy="538" r="6" class="c0"/>
<circle cx="1074" cy="266" r="6" class="c0"/>
<circle cx="1088" cy="642" r="6" class="c0"/>
<circle cx="1702" cy="644" r="6" class="c0"/>
<circle cx="1634" cy="704" r="6" class="c0"/>
<circle cx="1450" cy="654" r="6" class="c0"/>
<circle cx="1162" cy="316" r="6" class="c0"/>
<circle cx="1726" cy="674" r="6" class="c0"/>
<circle cx="1266" cy="618" r="6" class="c0"/>
<circle cx="1228" cy="276" r="6" class="c0"/>
<circle cx="1176" cy="526" r="6" class="c0"/>
<circle cx="1430" cy="678" r="6" class="c0"/>
<circle cx="1102" cy="294" r="6" class="c0"/>
<circle cx="1362" cy="540" r="6" class="c0"/>
<circle cx="1386" cy="586" r="6" class="c0"/>
<circle cx="1192" cy="468" r="6" class="c0"/>
<circle cx="1662" cy="760" r="6" class="c0"/>
<circle cx="1474" cy="630" r="6" class="c0"/>
<circle cx="900" cy="646" r="6" class="c0"/>
<circle cx="1376" cy="628" r="6" class="c0"/>
<circle cx="1242" cy="366" r="6" class="c0"/>
<circle cx="1710" cy="634" r="6" class="c0"/>
<circle cx="1388" cy="566" r="6" class="c0"/>
<circle cx="1328" cy="774" r="6" class="c0"/>
<circle cx="1458" cy="694" r="6" class="c0"/>
<circle cx="1142" cy="594" r="6" class="c0"/>
<circle cx="1060" cy="642" r="6" class="c0"/>
<circle cx="1160" cy="494" r="6" class="c0"/>
<circle cx="1170" cy="398" r="6" class="c0"/>
<circle cx="1200" cy="650" r="6" class="c0"/>
<circle cx="1540" cy="660" r="6" class="c0"/>
<circle cx="1310" cy="432" r="6" class="c0"/>
<circle cx="1296" cy="566" r="6" class="c0"/>
<circle cx="1264" cy="674" r="6" class="c0"/>
<circle cx="1738" cy="720" r="6" class="c0"/>
<circle cx="1796" cy="732" r="6" class="c0"/>
<circle cx="1574" cy="686" r="6" class="c0"/>
<circle cx="1148" cy="290" r="6" class="c0"/>
<circle cx="1122" cy="426" r="6" class="c0"/>
<circle cx="1460" cy="586" r="6" class="c0"/>
<circle cx="1584" cy="694" r="6" class="c0"/>
<circle cx="760" cy="636" r="6" class="c0"/>
<circle cx="1676" cy="768" r="6" class="c0"/>
<circle cx="1240" cy="618" r="6" class="c0"/>
<circle cx="1678" cy="580" r="6" class="c0"/>
<circle cx="1350" cy="614" r="6" class="c0"/>
<circle cx="990" cy="638" r="6" class="c0"/>
<circle cx="1202" cy="404" r="6" class="c0"/>
<circle cx="1604" cy="716" r="6" class="c0"/>
<circle cx="868" cy="650" r="6" class="c0"/>
<circle cx="1372" cy="590" r="6" class="c0"/>
<circle cx="1798" cy="706" r="6" class="c0"/>
<circle cx="1670" cy="606" r="6" class="c0"/>
<circle cx="1178" cy="290" r="6" class="c0"/>
<circle cx="1076" cy="360" r="6" class="c0"/>
<circle cx="1730" cy="638" r="6" class="c0"/>
<circle cx="1278" cy="536" r="6" class="c0"/>
<circle cx="1542" cy="594" r="6" class="c0"/>
<circle cx="1654" cy="662" r="6" class="c0"/>
<circle cx="774" cy="644" r="6" class="c0"/>
<circle cx="1246" cy="430" r="6" class="c0"/>
<circle cx="1378" cy="682" r="6" class="c0"/>
<circle cx="1762" cy="634" r="6" class="c0"/>
<circle cx="1206" cy="352" r="6" class="c0"/>
<circle cx="1300" cy="758" r="6" class="c0"/>
<circle cx="1152" cy="366" r="6" class="c0"/>
<circle cx="1196" cy="556" r="6" class="c0"/>
<circle cx="1228" cy="324" r="6" class="c0"/>
<circle cx="1706" cy="584" r="6" class="c0"/>
<circle cx="1230" cy="290" r="6" class="c0"/>
<circle cx="1260" cy="520" r="6" class="c0"/>
<circle cx="1296" cy="732" r="6" class="c0"/>
<circle cx="1234" cy="552" r="6" class="c0"/>
<circle cx="1508" cy="600" r="6" class="c0"/>
<circle cx="834" cy="638" r="6" class="c0"/>
<circle cx="1502" cy="562" r="6" class="c0"/>
<circle cx="1188" cy="254" r="6" class="c0"/>
<circle cx="1130" cy="656" r="6" class="c0"/>
<circle cx="1680" cy="688" r="6" class="c0"/>
<circle cx="1704" cy="738" r="6" class="c0"/>
<circle cx="1128" cy="670" r="6" class="c0"/>
<circle cx="1036" cy="662" r="6" class="c0"/>
<circle cx="1216" cy="266" r="6" class="c0"/>
<circle cx="1274" cy="434" r="6" class="c0"/>
<circle cx="1156" cy="648" r="6" class="c0"/>
<circle cx="804" cy="644" r="6" class="c0"/>
<circle cx="1550" cy="730" r="6" class="c0"/>
<circle cx="1322" cy="360" r="6" class="c0"/>
<circle cx="754" cy="620" r="6" class="c0"/>
<circle cx="1756" cy="728" r="6" class="c0"/>
<circle cx="1328" cy="402" r="6" class="c0"/>
<circle cx="1274" cy="408" r="6" class="c0"/>
<circle cx="1472" cy="592" r="6" class="c0"/>
<circle cx="1240" cy="578" r="6" class="c0"/>
<circle cx="1206" cy="636" r="6" class="c0"/>
<circle cx="846" cy="672" r="6" class="c0"/>
<circle cx="1184" cy="416" r="6" class="c0"/>
<circle cx="1506" cy="640" r="6" class="c0"/>
<circle cx="1198" cy="528" r="6" class="c0"/>
<circle cx="1208" cy="250" r="6" class="c0"/>
</svg>
