<?xml version="1.0" encoding="utf-8"?>
<svg xmlns="http://www.w3.org/2000/svg"
     xmlns:xlink="http://www.w3.org/1999/xlink" width="1920" height="1440" >

            <defs>
            <style type="text/css"><![CDATA[
circle {stroke: none;}
.c0 {fill: #FFFFFF;}
]]></style>
            </defs>
<rect x="0" y="0" width="1920" height="1440" fill="black"/>
<circle cx="1434" cy="400" r="12" class="c0"/>
<circle cx="1420" cy="506" r="12" class="c0"/>
<circle cx="1358" cy="366" r="12" class="c0"/>
<circle cx="1718" cy="628" r="12" class="c0"/>
<circle cx="1128" cy="346" r="12" class="c0"/>
<circle cx="1812" cy="686" r="12" class="c0"/>
<circle cx="1008" cy="680" r="12" class="c0"/>
<circle cx="1282" cy="300" r="12" class="c0"/>
<circle cx="1388" cy="370" r="12" class="c0"/>
<circle cx="1648" cy="664" r="12" class="c0"/>
<circle cx="1622" cy="724" r="12" class="c0"/>
<circle cx="1238" cy="658" r="12" class="c0"/>
<circle cx="1342" cy="336" r="12" class="c0"/>
<circle cx="1440" cy="538" r="12" class="c0"/>
<circle cx="1530" cy="668" r="12" class="c0"/>
<circle cx="1310" cy="460" r="12" class="c0"/>
<circle cx="1752" cy="614" r="12" class="c0"/>
<circle cx="1476" cy="608" r="12" class="c0"/>
<circle cx="1404" cy="670" r="12" class="c0"/>
<circle cx="1418" cy="602" r="12" class="c0"/>
<circle cx="1228" cy="694" r="12" class="c0"/>
<circle cx="1266" cy="510" r="12" class="c0"/>
<circle cx="1806" cy="642" r="12" class="c0"/>
<circle cx="1234" cy="308" r="12" class="c0"/>
<circle cx="1394" cy="406" r="12" class="c0"/>
<circle cx="1228" cy="272" r="12" class="c0"/>
<circle cx="1580" cy="734" r="12" class="c0"/>
<circle cx="1308" cy="692" r="12" class="c0"/>
<circle cx="1782" cy="728" r="12" class="c0"/>
<circle cx="1274" cy="472" r="12" class="c0"/>
<circle cx="1332" cy="608" r="12" class="c0"/>
<circle cx="1292" cy="498" r="12" class="c0"/>
<circle cx="1300" cy="566" r="12" class="c0"/>
<circle cx="1350" cy="412" r="12" class="c0"/>
<circle cx="1224" cy="348" r="12" class="c0"/>
<circle cx="862" cy="650" r="12" class="c0"/>
<circle cx="1268" cy="668" r="12" class="c0"/>
<circle cx="1590" cy="614" r="12" class="c0"/>
<circle cx="1180" cy="344" r="10" class="c0"/>
<circle cx="1792" cy="618" r="10" class="c0"/>
<circle cx="1270" cy="378" r="10" class="c0"/>
<circle cx="1814" cy="728" r="10" class="c0"/>
<circle cx="1128" cy="304" r="10" class="c0"/>
<circle cx="1278" cy="694" r="10" class="c0"/>
<circle cx="1838" cy="656" r="10" class="c0"/>
<circle cx="1664" cy="696" r="10" class="c0"/>
<circle cx="1658" cy="618" r="10" class="c0"/>
<circle cx="1734" cy="734" r="10" class="c0"/>
<circle cx="1496" cy="674" r="10" class="c0"/>
<circle cx="1228" cy="404" r="10" class="c0"/>
<circle cx="1876" cy="716" r="10" class="c0"/>
<circle cx="1254" cy="538" r="10" class="c0"/>
<circle cx="1280" cy="404" r="10" class="c0"/>
<circle cx="1074" cy="662" r="10" class="c0"/>
<circle cx="1318" cy="438" r="10" class="c0"/>
<circle cx="1540" cy="694" r="10" class="c0"/>
<circle cx="1686" cy="726" r="10" class="c0"/>
<circle cx="1326" cy="572" r="10" class="c0"/>
<circle cx="1658" cy="740" r="10" class="c0"/>
<circle cx="1266" cy="438" r="10" class="c0"/>
<circle cx="1212" cy="664" r="10" class="c0"/>
<circle cx="1202" cy="294" r="10" class="c0"/>
<circle cx="1404" cy="622" r="10" class="c0"/>
<circle cx="1430" cy="680" r="10" class="c0"/>
<circle cx="1550" cy="648" r="10" class="c0"/>
<circle cx="1530" cy="630" r="10" class="c0"/>
<circle cx="1222" cy="718" r="10" class="c0"/>
<circle cx="1184" cy="306" r="10" class="c0"/>
<circle cx="1506" cy="558" r="10" class="c0"/>
<circle cx="1378" cy="660" r="10" class="c0"/>
<circle cx="1396" cy="730" r="10" class="c0"/>
<circle cx="1186" cy="656" r="10" class="c0"/>
<circle cx="1156" cy="338" r="10" class="c0"/>
<circle cx="1612" cy="628" r="10" class="c0"/>
<circle cx="1702" cy="678" r="10" class="c0"/>
<circle cx="1862" cy="730" r="10" class="c0"/>
<circle cx="1246" cy="362" r="10" class="c0"/>
<circle cx="1900" cy="692" r="10" class="c0"/>
<circle cx="1742" cy="654" r="10" class="c0"/>
<circle cx="1306" cy="326" r="10" class="c0"/>
<circle cx="1200" cy="420" r="10" class="c0"/>
<circle cx="1380" cy="538" r="10" class="c0"/>
<circle cx="1044" cy="690" r="10" class="c0"/>
<circle cx="1618" cy="676" r="10" class="c0"/>
<circle cx="1314" cy="490" r="10" class="c0"/>
<circle cx="1356" cy="574" r="10" class="c0"/>
<circle cx="1488" cy="654" r="10" class="c0"/>
<circle cx="1404" cy="546" r="10" class="c0"/>
<circle cx="1734" cy="704" r="10" class="c0"/>
<circle cx="1234" cy="382" r="10" class="c0"/>
<circle cx="1710" cy="754" r="10" class="c0"/>
<circle cx="1444" cy="640" r="10" class="c0"/>
<circle cx="1294" cy="364" r="10" class="c0"/>
<circle cx="902" cy="644" r="10" class="c0"/>
<circle cx="1344" cy="686" r="10" class="c0"/>
<circle cx="1290" cy="386" r="10" class="c0"/>
<circle cx="1834" cy="702" r="10" class="c0"/>
<circle cx="1464" cy="402" r="10" class="c0"/>
<circle cx="1244" cy="484" r="10" class="c0"/>
<circle cx="896" cy="672" r="10" class="c0"/>
<circle cx="1796" cy="762" r="10" class="c0"/>
<circle cx="1360" cy="642" r="10" class="c0"/>
<circle cx="976" cy="656" r="10" class="c0"/>
<circle cx="1316" cy="630" r="10" class="c0"/>
<circle cx="1280" cy="620" r="10" class="c0"/>
<circle cx="1468" cy="554" r="10" class="c0"/>
<circle cx="1752" cy="692" r="10" class="c0"/>
<circle cx="1840" cy="754" r="10" class="c0"/>
<circle cx="1580" cy="634" r="10" class="c0"/>
<circle cx="1320" cy="532" r="10" class="c0"/>
<circle cx="1276" cy="534" r="10" class="c0"/>
<circle cx="1354" cy="530" r="10" class="c0"/>
<circle cx="1250" cy="406" r="10" class="c0"/>
<circle cx="1250" cy="458" r="10" class="c0"/>
<circle cx="1314" cy="372" r="10" class="c0"/>
<circle cx="1214" cy="452" r="10" class="c0"/>
<circle cx="1764" cy="666" r="10" class="c0"/>
<circle cx="1582" cy="696" r="10" class="c0"/>
<circle cx="1260" cy="642" r="10" class="c0"/>
<circle cx="1522" cy="582" r="10" class="c0"/>
<circle cx="1876" cy="672" r="10" class="c0"/>
<circle cx="1424" cy="566" r="10" class="c0"/>
<circle cx="1774" cy="602" r="10" class="c0"/>
<circle cx="1328" cy="668" r="10" class="c0"/>
<circle cx="1502" cy="714" r="10" class="c0"/>
<circle cx="1472" cy="688" r="10" class="c0"/>
<circle cx="1706" cy="714" r="10" class="c0"/>
<circle cx="1690" cy="644" r="10" class="c0"/>
<circle cx="1260" cy="278" r="10" class="c0"/>
<circle cx="1448" cy="376" r="10" class="c0"/>
<circle cx="1450" cy="512" r="10" class="c0"/>
<circle cx="1236" cy="526" r="10" class="c0"/>
<circle cx="1322" cy="262" r="10" class="c0"/>
<circle cx="1702" cy="598" r="10" class="c0"/>
<circle cx="1640" cy="604" r="10" class="c0"/>
<circle cx="1500" cy="600" r="10" class="c0"/>
<circle cx="1128" cy="668" r="10" class="c0"/>
<circle cx="1716" cy="690" r="10" class="c0"/>
<circle cx="840" cy="642" r="10" class="c0"/>
<circle cx="1348" cy="630" r="10" class="c0"/>
<circle cx="1688" cy="610" r="10" class="c0"/>
<circle cx="1332" cy="506" r="10" class="c0"/>
<circle cx="1362" cy="604" r="10" class="c0"/>
<circle cx="1204" cy="398" r="10" class="c0"/>
<circle cx="1322" cy="392" r="8" class="c0"/>
<circle cx="1262" cy="314" r="8" class="c0"/>
<circle cx="1344" cy="384" r="8" class="c0"/>
<circle cx="1332" cy="712" r="8" class="c0"/>
<circle cx="1220" cy="324" r="8" class="c0"/>
<circle cx="1556" cy="668" r="8" class="c0"/>
<circle cx="1222" cy="512" r="8" class="c0"/>
<circle cx="1180" cy="636" r="8" class="c0"/>
<circle cx="1858" cy="686" r="8" class="c0"/>
<circle cx="1306" cy="646" r="8" class="c0"/>
<circle cx="1064" cy="680" r="8" class="c0"/>
<circle cx="1364" cy="274" r="8" class="c0"/>
<circle cx="1456" cy="626" r="8" class="c0"/>
<circle cx="1668" cy="598" r="8" class="c0"/>
<circle cx="1618" cy="654" r="8" class="c0"/>
<circle cx="1258" cy="696" r="8" class="c0"/>
<circle cx="1110" cy="334" r="8" class="c0"/>
<circle cx="1280" cy="336" r="8" class="c0"/>
<circle cx="1300" cy="416" r="8" class="c0"/>
<circle cx="1034" cy="674" r="8" class="c0"/>
<circle cx="1868" cy="652" r="8" class="c0"/>
<circle cx="1322" cy="418" r="8" class="c0"/>
<circle cx="1602" cy="686" r="8" class="c0"/>
<circle cx="1728" cy="678" r="8" class="c0"/>
<circle cx="1314" cy="716" r="8" class="c0"/>
<circle cx="818" cy="644" r="8" class="c0"/>
<circle cx="1674" cy="634" r="8" class="c0"/>
<circle cx="1552" cy="714" r="8" class="c0"/>
<circle cx="1302" cy="594" r="8" class="c0"/>
<circle cx="1282" cy="244" r="8" class="c0"/>
<circle cx="1544" cy="610" r="8" class="c0"/>
<circle cx="1106" cy="290" r="8" class="c0"/>
<circle cx="1048" cy="656" r="8" class="c0"/>
<circle cx="886" cy="656" r="8" class="c0"/>
<circle cx="1414" cy="352" r="8" class="c0"/>
<circle cx="1244" cy="248" r="8" class="c0"/>
<circle cx="1556" cy="596" r="8" class="c0"/>
<circle cx="1374" cy="704" r="8" class="c0"/>
<circle cx="930" cy="654" r="8" class="c0"/>
<circle cx="1236" cy="560" r="8" class="c0"/>
<circle cx="1784" cy="656" r="8" class="c0"/>
<circle cx="1354" cy="264" r="8" class="c0"/>
<circle cx="1306" cy="246" r="8" class="c0"/>
<circle cx="1334" cy="370" r="8" class="c0"/>
<circle cx="1736" cy="758" r="8" class="c0"/>
<circle cx="1784" cy="704" r="8" class="c0"/>
<circle cx="1212" cy="614" r="8" class="c0"/>
<circle cx="1758" cy="718" r="8" class="c0"/>
<circle cx="800" cy="636" r="8" class="c0"/>
<circle cx="1474" cy="666" r="8" class="c0"/>
<circle cx="1408" cy="696" r="8" class="c0"/>
<circle cx="986" cy="674" r="8" class="c0"/>
<circle cx="1200" cy="330" r="8" class="c0"/>
<circle cx="1644" cy="698" r="8" class="c0"/>
<circle cx="1746" cy="772" r="8" class="c0"/>
<circle cx="1818" cy="664" r="8" class="c0"/>
<circle cx="1570" cy="606" r="8" class="c0"/>
<circle cx="1302" cy="398" r="8" class="c0"/>
<circle cx="1196" cy="354" r="8" class="c0"/>
<circle cx="1404" cy="482" r="8" class="c0"/>
<circle cx="1354" cy="504" r="8" class="c0"/>
<circle cx="1380" cy="516" r="8" class="c0"/>
<circle cx="1518" cy="642" r="8" class="c0"/>
<circle cx="1158" cy="674" r="8" class="c0"/>
<circle cx="1420" cy="382" r="8" class="c0"/>
<circle cx="1418" cy="530" r="8" class="c0"/>
<circle cx="1386" cy="602" r="8" class="c0"/>
<circle cx="1152" cy="370" r="8" class="c0"/>
<circle cx="1394" cy="582" r="8" class="c0"/>
<circle cx="1270" cy="348" r="8" class="c0"/>
<circle cx="1020" cy="660" r="8" class="c0"/>
<circle cx="1392" cy="790" r="8" class="c0"/>
<circle cx="1454" cy="604" r="8" class="c0"/>
<circle cx="1252" cy="720" r="8" class="c0"/>
<circle cx="1656" cy="640" r="8" class="c0"/>
<circle cx="1188" cy="370" r="8" class="c0"/>
<circle cx="1446" cy="666" r="8" class="c0"/>
<circle cx="1512" cy="688" r="8" class="c0"/>
<circle cx="1356" cy="674" r="8" class="c0"/>
<circle cx="1366" cy="552" r="8" class="c0"/>
<circle cx="1600" cy="658" r="8" class="c0"/>
<circle cx="1248" cy="682" r="8" class="c0"/>
<circle cx="1426" cy="628" r="8" class="c0"/>
<circle cx="1384" cy="492" r="8" class="c0"/>
<circle cx="1384" cy="750" r="8" class="c0"/>
<circle cx="1636" cy="644" r="8" class="c0"/>
<circle cx="1222" cy="478" r="8" class="c0"/>
<circle cx="1404" cy="774" r="8" class="c0"/>
<circle cx="1370" cy="348" r="8" class="c0"/>
<circle cx="1294" cy="676" r="8" class="c0"/>
<circle cx="962" cy="668" r="8" class="c0"/>
<circle cx="1572" cy="676" r="8" class="c0"/>
<circle cx="1332" cy="468" r="8" class="c0"/>
<circle cx="1798" cy="740" r="8" class="c0"/>
<circle cx="1778" cy="634" r="8" class="c0"/>
<circle cx="1406" cy="520" r="8" class="c0"/>
<circle cx="1604" cy="738" r="8" class="c0"/>
<circle cx="1202" cy="628" r="8" class="c0"/>
<circle cx="1284" cy="266" r="8" class="c0"/>
<circle cx="1180" cy="432" r="8" class="c0"/>
<circle cx="1094" cy="346" r="8" class="c0"/>
<circle cx="1448" cy="566" r="8" class="c0"/>
<circle cx="1624" cy="696" r="8" class="c0"/>
<circle cx="1410" cy="644" r="8" class="c0"/>
<circle cx="1222" cy="596" r="8" class="c0"/>
<circle cx="1176" cy="676" r="8" class="c0"/>
<circle cx="1760" cy="738" r="8" class="c0"/>
<circle cx="1376" cy="390" r="8" class="c0"/>
<circle cx="1386" cy="690" r="8" class="c0"/>
<circle cx="1434" cy="588" r="8" class="c0"/>
<circle cx="1100" cy="660" r="8" class="c0"/>
<circle cx="1282" cy="426" r="8" class="c0"/>
<circle cx="1394" cy="708" r="8" class="c0"/>
<circle cx="1730" cy="608" r="8" class="c0"/>
<circle cx="1526" cy="714" r="8" class="c0"/>
<circle cx="1594" cy="712" r="8" class="c0"/>
<circle cx="1342" cy="586" r="8" class="c0"/>
<circle cx="1776" cy="770" r="8" class="c0"/>
<circle cx="1512" cy="616" r="8" class="c0"/>
<circle cx="1330" cy="642" r="8" class="c0"/>
<circle cx="1220" cy="570" r="8" class="c0"/>
<circle cx="1374" cy="782" r="8" class="c0"/>
<circle cx="1696" cy="698" r="8" class="c0"/>
<circle cx="1246" cy="570" r="8" class="c0"/>
<circle cx="1214" cy="366" r="8" class="c0"/>
<circle cx="1826" cy="624" r="8" class="c0"/>
<circle cx="1672" cy="662" r="8" class="c0"/>
<circle cx="1672" cy="714" r="8" class="c0"/>
<circle cx="1364" cy="726" r="8" class="c0"/>
<circle cx="1426" cy="652" r="8" class="c0"/>
<circle cx="1758" cy="782" r="8" class="c0"/>
<circle cx="942" cy="678" r="8" class="c0"/>
<circle cx="1560" cy="628" r="8" class="c0"/>
<circle cx="1484" cy="572" r="8" class="c0"/>
<circle cx="1234" cy="586" r="8" class="c0"/>
<circle cx="1204" cy="700" r="8" class="c0"/>
<circle cx="1482" cy="630" r="8" class="c0"/>
<circle cx="1344" cy="558" r="8" class="c0"/>
<circle cx="1452" cy="690" r="8" class="c0"/>
<circle cx="1352" cy="710" r="8" class="c0"/>
<circle cx="1842" cy="636" r="8" class="c0"/>
<circle cx="1846" cy="674" r="8" class="c0"/>
<circle cx="1676" cy="754" r="8" class="c0"/>
<circle cx="1138" cy="322" r="8" class="c0"/>
<circle cx="1592" cy="674" r="8" class="c0"/>
<circle cx="1366" cy="686" r="8" class="c0"/>
<circle cx="1580" cy="660" r="8" class="c0"/>
<circle cx="1292" cy="546" r="8" class="c0"/>
<circle cx="1298" cy="276" r="8" class="c0"/>
<circle cx="1252" cy="298" r="8" class="c0"/>
<circle cx="1296" cy="440" r="8" class="c0"/>
<circle cx="1162" cy="360" r="8" class="c0"/>
<circle cx="1470" cy="644" r="8" class="c0"/>
<circle cx="1854" cy="704" r="8" class="c0"/>
<circle cx="1806" cy="606" r="8" class="c0"/>
<circle cx="950" cy="650" r="8" class="c0"/>
<circle cx="1638" cy="624" r="8" class="c0"/>
<circle cx="1194" cy="710" r="8" class="c0"/>
<circle cx="1384" cy="770" r="8" class="c0"/>
<circle cx="1790" cy="784" r="8" class="c0"/>
<circle cx="1484" cy="702" r="8" class="c0"/>
<circle cx="1282" cy="644" r="8" class="c0"/>
<circle cx="1680" cy="686" r="8" class="c0"/>
<circle cx="1736" cy="590" r="8" class="c0"/>
<circle cx="1240" cy="506" r="8" class="c0"/>
<circle cx="1886" cy="742" r="8" class="c0"/>
<circle cx="1304" cy="522" r="8" class="c0"/>
<circle cx="1790" cy="684" r="8" class="c0"/>
<circle cx="1374" cy="628" r="8" class="c0"/>
<circle cx="1378" cy="418" r="8" class="c0"/>
<circle cx="1436" cy="612" r="8" class="c0"/>
<circle cx="1286" cy="452" r="8" class="c0"/>
<circle cx="1762" cy="644" r="8" class="c0"/>
<circle cx="1346" cy="660" r="8" class="c0"/>
<circle cx="1804" cy="706" r="8" class="c0"/>
<circle cx="1562" cy="690" r="8" class="c0"/>
<circle cx="1376" cy="564" r="8" class="c0"/>
<circle cx="1390" cy="640" r="8" class="c0"/>
<circle cx="1090" cy="672" r="8" class="c0"/>
<circle cx="1538" cy="730" r="8" class="c0"/>
<circle cx="1308" cy="664" r="8" class="c0"/>
<circle cx="1202" cy="680" r="8" class="c0"/>
<circle cx="1314" cy="348" r="8" class="c0"/>
<circle cx="1814" cy="772" r="8" class="c0"/>
<circle cx="1410" cy="422" r="8" class="c0"/>
<circle cx="1808" cy="750" r="8" class="c0"/>
<circle cx="1148" cy="662" r="8" class="c0"/>
<circle cx="1610" cy="606" r="8" class="c0"/>
<circle cx="1372" cy="586" r="8" class="c0"/>
<circle cx="1362" cy="432" r="8" class="c0"/>
<circle cx="1746" cy="748" r="8" class="c0"/>
<circle cx="1790" cy="590" r="8" class="c0"/>
<circle cx="1292" cy="712" r="8" class="c0"/>
<circle cx="876" cy="670" r="8" class="c0"/>
<circle cx="1204" cy="272" r="8" class="c0"/>
<circle cx="1630" cy="746" r="8" class="c0"/>
<circle cx="1230" cy="462" r="8" class="c0"/>
<circle cx="1318" cy="552" r="8" class="c0"/>
<circle cx="1184" cy="410" r="8" class="c0"/>
<circle cx="1716" cy="658" r="8" class="c0"/>
<circle cx="1652" cy="720" r="8" class="c0"/>
<circle cx="1834" cy="734" r="8" class="c0"/>
<circle cx="1246" cy="434" r="8" class="c0"/>
<circle cx="1384" cy="718" r="8" class="c0"/>
<circle cx="1166" cy="652" r="8" class="c0"/>
<circle cx="1762" cy="760" r="8" class="c0"/>
<circle cx="1456" cy="656" r="8" class="c0"/>
<circle cx="922" cy="672" r="8" class="c0"/>
<circle cx="1844" cy="720" r="8" class="c0"/>
<circle cx="1430" cy="366" r="8" class="c0"/>
<circle cx="1394" cy="506" r="8" class="c0"/>
<circle cx="1508" cy="662" r="8" class="c0"/>
<circle cx="1164" cy="312" r="8" class="c0"/>
<circle cx="1436" cy="494" r="8" class="c0"/>
<circle cx="1342" cy="488" r="8" class="c0"/>
<circle cx="1110" cy="356" r="8" class="c0"/>
<circle cx="1268" cy="416" r="8" class="c0"/>
<circle cx="1236" cy="332" r="8" class="c0"/>
<circle cx="1550" cy="556" r="8" class="c0"/>
<circle cx="1296" cy="474" r="8" class="c0"/>
<circle cx="1304" cy="616" r="8" class="c0"/>
<circle cx="974" cy="684" r="8" class="c0"/>
<circle cx="1386" cy="340" r="8" class="c0"/>
<circle cx="912" cy="660" r="8" class="c0"/>
<circle cx="1554" cy="732" r="6" class="c0"/>
<circle cx="1898" cy="660" r="6" class="c0"/>
<circle cx="1770" cy="688" r="6" class="c0"/>
<circle cx="1760" cy="586" r="6" class="c0"/>
<circle cx="1292" cy="584" r="6" class="c0"/>
<circle cx="1222" cy="434" r="6" class="c0"/>
<circle cx="844" cy="666" r="6" class="c0"/>
<circle cx="1600" cy="640" r="6" class="c0"/>
<circle cx="1408" cy="758" r="6" class="c0"/>
<circle cx="994" cy="652" r="6" class="c0"/>
<circle cx="1114" cy="276" r="6" class="c0"/>
<circle cx="1744" cy="676" r="6" class="c0"/>
<circle cx="1372" cy="760" r="6" class="c0"/>
<circle cx="1062" cy="698" r="6" class="c0"/>
<circle cx="1202" cy="438" r="6" class="c0"/>
<circle cx="1722" cy="722" r="6" class="c0"/>
<circle cx="1170" cy="374" r="6" class="c0"/>
<circle cx="1526" cy="552" r="6" class="c0"/>
<circle cx="1304" cy="302" r="6" class="c0"/>
<circle cx="1406" cy="564" r="6" class="c0"/>
<circle cx="1274" cy="714" r="6" class="c0"/>
<circle cx="1212" cy="310" r="6" class="c0"/>
<circle cx="1516" cy="726" r="6" class="c0"/>
<circle cx="1738" cy="636" r="6" class="c0"/>
<circle cx="1278" cy="600" r="6" class="c0"/>
<circle cx="1886" cy="644" r="6" class="c0"/>
<circle cx="1262" cy="488" r="6" class="c0"/>
<circle cx="1800" cy="668" r="6" class="c0"/>
<circle cx="1404" cy="384" r="6" class="c0"/>
<circle cx="1500" cy="628" r="6" class="c0"/>
<circle cx="1396" cy="530" r="6" class="c0"/>
<circle cx="1778" cy="748" r="6" class="c0"/>
<circle cx="1710" cy="732" r="6" class="c0"/>
<circle cx="1526" cy="608" r="6" class="c0"/>
<circle cx="822" cy="660" r="6" class="c0"/>
<circle cx="1206" cy="646" r="6" class="c0"/>
<circle cx="1260" cy="242" r="6" class="c0"/>
<circle cx="1718" cy="588" r="6" class="c0"/>
<circle cx="1112" cy="312" r="6" class="c0"/>
<circle cx="1024" cy="690" r="6" class="c0"/>
<circle cx="1256" cy="260" r="6" class="c0"/>
<circle cx="1368" cy="744" r="6" class="c0"/>
<circle cx="1256" cy="336" r="6" class="c0"/>
<circle cx="1892" cy="726" r="6" class="c0"/>
<circle cx="1240" cy="710" r="6" class="c0"/>
<circle cx="1168" cy="422" r="6" class="c0"/>
<circle cx="1540" cy="590" r="6" class="c0"/>
<circle cx="886" cy="688" r="6" class="c0"/>
<circle cx="1176" cy="324" r="6" class="c0"/>
<circle cx="1698" cy="742" r="6" class="c0"/>
<circle cx="1634" cy="684" r="6" class="c0"/>
<circle cx="1366" cy="332" r="6" class="c0"/>
<circle cx="1828" cy="676" r="6" class="c0"/>
<circle cx="1452" cy="414" r="6" class="c0"/>
<circle cx="1502" cy="576" r="6" class="c0"/>
<circle cx="1692" cy="664" r="6" class="c0"/>
<circle cx="1414" cy="470" r="6" class="c0"/>
<circle cx="1288" cy="518" r="6" class="c0"/>
<circle cx="1240" cy="634" r="6" class="c0"/>
<circle cx="1332" cy="354" r="6" class="c0"/>
<circle cx="1894" cy="710" r="6" class="c0"/>
<circle cx="1324" cy="590" r="6" class="c0"/>
<circle cx="910" cy="688" r="6" class="c0"/>
<circle cx="1110" cy="678" r="6" class="c0"/>
<circle cx="1640" cy="736" r="6" class="c0"/>
<circle cx="1292" cy="632" r="6" class="c0"/>
<circle cx="1660" cy="678" r="6" class="c0"/>
<circle cx="1292" cy="654" r="6" class="c0"/>
<circle cx="1340" cy="430" r="6" class="c0"/>
<circle cx="1294" cy="344" r="6" class="c0"/>
<circle cx="1242" cy="284" r="6" class="c0"/>
<circle cx="1290" cy="606" r="6" class="c0"/>
<circle cx="1288" cy="320" r="6" class="c0"/>
<circle cx="1824" cy="744" r="6" class="c0"/>
<circle cx="1908" cy="712" r="6" class="c0"/>
<circle cx="1408" cy="368" r="6" class="c0"/>
<circle cx="1420" cy="484" r="6" class="c0"/>
<circle cx="1396" cy="352" r="6" class="c0"/>
<circle cx="1214" cy="492" r="6" class="c0"/>
<circle cx="1562" cy="724" r="6" class="c0"/>
<circle cx="1130" cy="366" r="6" class="c0"/>
<circle cx="1684" cy="590" r="6" class="c0"/>
<circle cx="1360" cy="396" r="6" class="c0"/>
<circle cx="1340" cy="256" r="6" class="c0"/>
<circle cx="882" cy="638" r="6" class="c0"/>
<circle cx="1882" cy="690" r="6" class="c0"/>
<circle cx="1212" cy="586" r="6" class="c0"/>
<circle cx="1312" cy="508" r="6" class="c0"/>
<circle cx="1806" cy="588" r="6" class="c0"/>
<circle cx="1220" cy="290" r="6" class="c0"/>
<circle cx="1212" cy="382" r="6" class="c0"/>
<circle cx="1768" cy="706" r="6" class="c0"/>
<circle cx="1204" cy="720" r="6" class="c0"/>
<circle cx="1312" cy="582" r="6" class="c0"/>
<circle cx="1272" cy="254" r="6" class="c0"/>
<circle cx="1230" cy="444" r="6" class="c0"/>
<circle cx="1572" cy="716" r="6" class="c0"/>
<circle cx="1334" cy="546" r="6" class="c0"/>
<circle cx="1610" cy="710" r="6" class="c0"/>
<circle cx="1296" cy="256" r="6" class="c0"/>
<circle cx="1454" cy="494" r="6" class="c0"/>
<circle cx="1258" cy="622" r="6" class="c0"/>
<circle cx="1488" cy="554" r="6" class="c0"/>
<circle cx="1384" cy="280" r="6" class="c0"/>
<circle cx="1570" cy="650" r="6" class="c0"/>
<circle cx="992" cy="690" r="6" class="c0"/>
<circle cx="1262" cy="394" r="6" class="c0"/>
<circle cx="1412" cy="396" r="6" class="c0"/>
<circle cx="1392" cy="558" r="6" class="c0"/>
<circle cx="1272" cy="554" r="6" class="c0"/>
<circle cx="1328" cy="452" r="6" class="c0"/>
<circle cx="1852" cy="646" r="6" class="c0"/>
<circle cx="1566" cy="552" r="6" class="c0"/>
<circle cx="1692" cy="760" r="6" class="c0"/>
<circle cx="1410" cy="580" r="6" class="c0"/>
<circle cx="1896" cy="674" r="6" class="c0"/>
<circle cx="1516" cy="704" r="6" class="c0"/>
<circle cx="1634" cy="710" r="6" class="c0"/>
<circle cx="1008" cy="650" r="6" class="c0"/>
<circle cx="1856" cy="662" r="6" class="c0"/>
<circle cx="1438" cy="420" r="6" class="c0"/>
<circle cx="1228" cy="494" r="6" class="c0"/>
<circle cx="1116" cy="656" r="6" class="c0"/>
<circle cx="1256" cy="558" r="6" class="c0"/>
<circle cx="1336" cy="400" r="6" class="c0"/>
<circle cx="1232" cy="544" r="6" class="c0"/>
<circle cx="1328" cy="696" r="6" class="c0"/>
<circle cx="1720" cy="768" r="6" class="c0"/>
<circle cx="1338" cy="270" r="6" class="c0"/>
<circle cx="1196" cy="612" r="6" class="c0"/>
<circle cx="1384" cy="618" r="6" class="c0"/>
<circle cx="1226" cy="674" r="6" class="c0"/>
<circle cx="1280" cy="562" r="6" class="c0"/>
<circle cx="1614" cy="748" r="6" class="c0"/>
<circle cx="1460" cy="676" r="6" class="c0"/>
<circle cx="1192" cy="690" r="6" class="c0"/>
<circle cx="1874" cy="698" r="6" class="c0"/>
<circle cx="1646" cy="752" r="6" class="c0"/>
<circle cx="1452" cy="588" r="6" class="c0"/>
<circle cx="1322" cy="334" r="6" class="c0"/>
<circle cx="1466" cy="384" r="6" class="c0"/>
<circle cx="1214" cy="260" r="6" class="c0"/>
<circle cx="1836" cy="684" r="6" class="c0"/>
<circle cx="1206" cy="598" r="6" class="c0"/>
<circle cx="1420" cy="412" r="6" class="c0"/>
<circle cx="1336" cy="524" r="6" class="c0"/>
<circle cx="1394" cy="760" r="6" class="c0"/>
<circle cx="1400" cy="748" r="6" class="c0"/>
<circle cx="1248" cy="322" r="6" class="c0"/>
<circle cx="1728" cy="644" r="6" class="c0"/>
<circle cx="1296" cy="312" r="6" class="c0"/>
<circle cx="1266" cy="608" r="6" class="c0"/>
<circle cx="1252" cy="386" r="6" class="c0"/>
<circle cx="1780" cy="674" r="6" class="c0"/>
<circle cx="1502" cy="644" r="6" class="c0"/>
<circle cx="1494" cy="692" r="6" class="c0"/>
<circle cx="1422" cy="548" r="6" class="c0"/>
<circle cx="1144" cy="356" r="6" class="c0"/>
<circle cx="1248" cy="344" r="6" class="c0"/>
<circle cx="1376" cy="736" r="6" class="c0"/>
<circle cx="1368" cy="404" r="6" class="c0"/>
<circle cx="1220" cy="420" r="6" class="c0"/>
<circle cx="1768" cy="624" r="6" class="c0"/>
<circle cx="1432" cy="520" r="6" class="c0"/>
<circle cx="1050" cy="672" r="6" class="c0"/>
<circle cx="1140" cy="680" r="6" class="c0"/>
<circle cx="1626" cy="614" r="6" class="c0"/>
<circle cx="920" cy="642" r="6" class="c0"/>
<circle cx="1696" cy="626" r="6" class="c0"/>
<circle cx="1492" cy="618" r="6" class="c0"/>
<circle cx="1198" cy="380" r="6" class="c0"/>
<circle cx="1826" cy="644" r="6" class="c0"/>
<circle cx="1810" cy="622" r="6" class="c0"/>
<circle cx="1590" cy="648" r="6" class="c0"/>
<circle cx="1090" cy="292" r="6" class="c0"/>
</svg>
