<?xml version="1.0" encoding="utf-8"?>
<svg xmlns="http://www.w3.org/2000/svg"
     xmlns:xlink="http://www.w3.org/1999/xlink" width="1920" height="1440" >

            <defs>
            <style type="text/css"><![CDATA[
circle {stroke: none;}
.c0 {fill: #000000;}
]]></style>
            </defs>
<rect x="0" y="0" width="1920" height="1440" fill="white"/>
<circle cx="922" cy="478" r="14" class="c0"/>
<circle cx="976" cy="568" r="14" class="c0"/>
<circle cx="1032" cy="804" r="14" class="c0"/>
<circle cx="856" cy="540" r="12" class="c0"/>
<circle cx="858" cy="456" r="12" class="c0"/>
<circle cx="912" cy="764" r="12" class="c0"/>
<circle cx="1042" cy="636" r="12" class="c0"/>
<circle cx="816" cy="612" r="12" class="c0"/>
<circle cx="904" cy="730" r="12" class="c0"/>
<circle cx="914" cy="794" r="12" class="c0"/>
<circle cx="1118" cy="510" r="12" class="c0"/>
<circle cx="1900" cy="308" r="12" class="c0"/>
<circle cx="1168" cy="642" r="12" class="c0"/>
<circle cx="960" cy="784" r="12" class="c0"/>
<circle cx="1010" cy="654" r="12" class="c0"/>
<circle cx="814" cy="650" r="12" class="c0"/>
<circle cx="1904" cy="1084" r="12" class="c0"/>
<circle cx="1058" cy="526" r="12" class="c0"/>
<circle cx="824" cy="572" r="12" class="c0"/>
<circle cx="1028" cy="766" r="12" class="c0"/>
<circle cx="1052" cy="482" r="12" class="c0"/>
<circle cx="1104" cy="672" r="12" class="c0"/>
<circle cx="864" cy="580" r="12" class="c0"/>
<circle cx="964" cy="686" r="12" class="c0"/>
<circle cx="1008" cy="576" r="12" class="c0"/>
<circle cx="1092" cy="626" r="12" class="c0"/>
<circle cx="992" cy="510" r="12" class="c0"/>
<circle cx="1142" cy="498" r="12" class="c0"/>
<circle cx="940" cy="518" r="12" class="c0"/>
<circle cx="840" cy="684" r="12" class="c0"/>
<circle cx="1086" cy="510" r="12" class="c0"/>
<circle cx="974" cy="720" r="12" class="c0"/>
<circle cx="902" cy="652" r="10" class="c0"/>
<circle cx="1902" cy="786" r="10" class="c0"/>
<circle cx="1898" cy="1162" r="10" class="c0"/>
<circle cx="1908" cy="1264" r="10" class="c0"/>
<circle cx="1904" cy="38" r="10" class="c0"/>
<circle cx="996" cy="632" r="10" class="c0"/>
<circle cx="836" cy="510" r="10" class="c0"/>
<circle cx="904" cy="498" r="10" class="c0"/>
<circle cx="1882" cy="394" r="10" class="c0"/>
<circle cx="1070" cy="792" r="10" class="c0"/>
<circle cx="974" cy="634" r="10" class="c0"/>
<circle cx="938" cy="742" r="10" class="c0"/>
<circle cx="1136" cy="716" r="10" class="c0"/>
<circle cx="888" cy="684" r="10" class="c0"/>
<circle cx="992" cy="750" r="10" class="c0"/>
<circle cx="900" cy="590" r="10" class="c0"/>
<circle cx="1016" cy="696" r="10" class="c0"/>
<circle cx="936" cy="714" r="10" class="c0"/>
<circle cx="1072" cy="574" r="10" class="c0"/>
<circle cx="832" cy="596" r="10" class="c0"/>
<circle cx="1120" cy="584" r="10" class="c0"/>
<circle cx="1906" cy="466" r="10" class="c0"/>
<circle cx="876" cy="528" r="10" class="c0"/>
<circle cx="1908" cy="74" r="10" class="c0"/>
<circle cx="942" cy="640" r="10" class="c0"/>
<circle cx="1902" cy="1198" r="10" class="c0"/>
<circle cx="976" cy="810" r="10" class="c0"/>
<circle cx="880" cy="780" r="10" class="c0"/>
<circle cx="1900" cy="898" r="10" class="c0"/>
<circle cx="1036" cy="518" r="10" class="c0"/>
<circle cx="990" cy="484" r="10" class="c0"/>
<circle cx="876" cy="476" r="10" class="c0"/>
<circle cx="1906" cy="724" r="10" class="c0"/>
<circle cx="1902" cy="1012" r="10" class="c0"/>
<circle cx="798" cy="668" r="10" class="c0"/>
<circle cx="798" cy="536" r="10" class="c0"/>
<circle cx="1060" cy="816" r="10" class="c0"/>
<circle cx="1884" cy="578" r="10" class="c0"/>
<circle cx="950" cy="486" r="10" class="c0"/>
<circle cx="1100" cy="574" r="10" class="c0"/>
<circle cx="1058" cy="710" r="10" class="c0"/>
<circle cx="1900" cy="218" r="10" class="c0"/>
<circle cx="1126" cy="752" r="10" class="c0"/>
<circle cx="1028" cy="670" r="10" class="c0"/>
<circle cx="882" cy="738" r="10" class="c0"/>
<circle cx="850" cy="626" r="10" class="c0"/>
<circle cx="1008" cy="608" r="10" class="c0"/>
<circle cx="1896" cy="1282" r="10" class="c0"/>
<circle cx="1162" cy="614" r="10" class="c0"/>
<circle cx="926" cy="548" r="10" class="c0"/>
<circle cx="878" cy="626" r="10" class="c0"/>
<circle cx="1120" cy="560" r="10" class="c0"/>
<circle cx="928" cy="612" r="10" class="c0"/>
<circle cx="1004" cy="726" r="10" class="c0"/>
<circle cx="1040" cy="558" r="10" class="c0"/>
<circle cx="980" cy="608" r="10" class="c0"/>
<circle cx="966" cy="502" r="10" class="c0"/>
<circle cx="868" cy="666" r="10" class="c0"/>
<circle cx="1900" cy="336" r="10" class="c0"/>
<circle cx="962" cy="588" r="10" class="c0"/>
<circle cx="1098" cy="758" r="10" class="c0"/>
<circle cx="876" cy="502" r="10" class="c0"/>
<circle cx="836" cy="638" r="10" class="c0"/>
<circle cx="1900" cy="272" r="10" class="c0"/>
<circle cx="918" cy="686" r="10" class="c0"/>
<circle cx="862" cy="604" r="10" class="c0"/>
<circle cx="1900" cy="956" r="10" class="c0"/>
<circle cx="1908" cy="986" r="10" class="c0"/>
<circle cx="860" cy="694" r="10" class="c0"/>
<circle cx="830" cy="710" r="10" class="c0"/>
<circle cx="1902" cy="814" r="10" class="c0"/>
<circle cx="810" cy="514" r="10" class="c0"/>
<circle cx="1076" cy="738" r="10" class="c0"/>
<circle cx="1900" cy="550" r="10" class="c0"/>
<circle cx="868" cy="716" r="10" class="c0"/>
<circle cx="1152" cy="558" r="10" class="c0"/>
<circle cx="1098" cy="714" r="10" class="c0"/>
<circle cx="852" cy="756" r="10" class="c0"/>
<circle cx="1906" cy="160" r="10" class="c0"/>
<circle cx="1900" cy="688" r="10" class="c0"/>
<circle cx="1024" cy="594" r="10" class="c0"/>
<circle cx="1128" cy="624" r="10" class="c0"/>
<circle cx="1908" cy="10" r="10" class="c0"/>
<circle cx="1894" cy="1378" r="10" class="c0"/>
<circle cx="1094" cy="552" r="10" class="c0"/>
<circle cx="1888" cy="642" r="10" class="c0"/>
<circle cx="1896" cy="118" r="10" class="c0"/>
<circle cx="1066" cy="690" r="10" class="c0"/>
<circle cx="946" cy="460" r="10" class="c0"/>
<circle cx="1908" cy="1356" r="10" class="c0"/>
<circle cx="902" cy="702" r="8" class="c0"/>
<circle cx="1118" cy="640" r="8" class="c0"/>
<circle cx="922" cy="452" r="8" class="c0"/>
<circle cx="1896" cy="928" r="8" class="c0"/>
<circle cx="798" cy="622" r="8" class="c0"/>
<circle cx="948" cy="562" r="8" class="c0"/>
<circle cx="1900" cy="1140" r="8" class="c0"/>
<circle cx="792" cy="578" r="8" class="c0"/>
<circle cx="860" cy="648" r="8" class="c0"/>
<circle cx="940" cy="768" r="8" class="c0"/>
<circle cx="1028" cy="726" r="8" class="c0"/>
<circle cx="840" cy="738" r="8" class="c0"/>
<circle cx="1148" cy="678" r="8" class="c0"/>
<circle cx="1156" cy="700" r="8" class="c0"/>
<circle cx="982" cy="696" r="8" class="c0"/>
<circle cx="966" cy="544" r="8" class="c0"/>
<circle cx="818" cy="488" r="8" class="c0"/>
<circle cx="884" cy="446" r="8" class="c0"/>
<circle cx="1020" cy="620" r="8" class="c0"/>
<circle cx="988" cy="776" r="8" class="c0"/>
<circle cx="1888" cy="1220" r="8" class="c0"/>
<circle cx="1100" cy="530" r="8" class="c0"/>
<circle cx="1010" cy="822" r="8" class="c0"/>
<circle cx="1022" cy="494" r="8" class="c0"/>
<circle cx="1904" cy="140" r="8" class="c0"/>
<circle cx="822" cy="746" r="8" class="c0"/>
<circle cx="1078" cy="480" r="8" class="c0"/>
<circle cx="900" cy="548" r="8" class="c0"/>
<circle cx="902" cy="622" r="8" class="c0"/>
<circle cx="1068" cy="622" r="8" class="c0"/>
<circle cx="814" cy="554" r="8" class="c0"/>
<circle cx="1162" cy="518" r="8" class="c0"/>
<circle cx="994" cy="464" r="8" class="c0"/>
<circle cx="1010" cy="784" r="8" class="c0"/>
<circle cx="1910" cy="1320" r="8" class="c0"/>
<circle cx="844" cy="492" r="8" class="c0"/>
<circle cx="988" cy="676" r="8" class="c0"/>
<circle cx="1064" cy="650" r="8" class="c0"/>
<circle cx="1014" cy="452" r="8" class="c0"/>
<circle cx="1036" cy="582" r="8" class="c0"/>
<circle cx="1898" cy="658" r="8" class="c0"/>
<circle cx="826" cy="532" r="8" class="c0"/>
<circle cx="818" cy="692" r="8" class="c0"/>
<circle cx="1902" cy="192" r="8" class="c0"/>
<circle cx="1898" cy="1416" r="8" class="c0"/>
<circle cx="914" cy="536" r="8" class="c0"/>
<circle cx="926" cy="654" r="8" class="c0"/>
<circle cx="1126" cy="700" r="8" class="c0"/>
<circle cx="1010" cy="552" r="8" class="c0"/>
<circle cx="1092" cy="592" r="8" class="c0"/>
<circle cx="924" cy="570" r="8" class="c0"/>
<circle cx="964" cy="750" r="8" class="c0"/>
<circle cx="956" cy="732" r="8" class="c0"/>
<circle cx="1098" cy="780" r="8" class="c0"/>
<circle cx="914" cy="560" r="8" class="c0"/>
<circle cx="1896" cy="490" r="8" class="c0"/>
<circle cx="1056" cy="766" r="8" class="c0"/>
<circle cx="964" cy="448" r="8" class="c0"/>
<circle cx="1910" cy="416" r="8" class="c0"/>
<circle cx="890" cy="608" r="8" class="c0"/>
<circle cx="1144" cy="538" r="8" class="c0"/>
<circle cx="920" cy="592" r="8" class="c0"/>
<circle cx="1164" cy="540" r="8" class="c0"/>
<circle cx="1002" cy="532" r="8" class="c0"/>
<circle cx="1044" cy="658" r="8" class="c0"/>
<circle cx="836" cy="556" r="8" class="c0"/>
<circle cx="1088" cy="694" r="8" class="c0"/>
<circle cx="1906" cy="238" r="8" class="c0"/>
<circle cx="964" cy="468" r="8" class="c0"/>
<circle cx="882" cy="800" r="8" class="c0"/>
<circle cx="990" cy="798" r="8" class="c0"/>
<circle cx="938" cy="584" r="8" class="c0"/>
<circle cx="1898" cy="600" r="8" class="c0"/>
<circle cx="814" cy="720" r="8" class="c0"/>
<circle cx="1142" cy="600" r="8" class="c0"/>
<circle cx="1134" cy="666" r="8" class="c0"/>
<circle cx="1888" cy="1030" r="8" class="c0"/>
<circle cx="1074" cy="600" r="8" class="c0"/>
<circle cx="1898" cy="870" r="8" class="c0"/>
<circle cx="1908" cy="1058" r="8" class="c0"/>
<circle cx="896" cy="568" r="8" class="c0"/>
<circle cx="1888" cy="12" r="8" class="c0"/>
<circle cx="1900" cy="756" r="8" class="c0"/>
<circle cx="1106" cy="740" r="8" class="c0"/>
<circle cx="812" cy="588" r="8" class="c0"/>
<circle cx="1052" cy="608" r="8" class="c0"/>
<circle cx="1892" cy="254" r="8" class="c0"/>
<circle cx="828" cy="472" r="8" class="c0"/>
<circle cx="840" cy="770" r="8" class="c0"/>
<circle cx="1054" cy="678" r="8" class="c0"/>
<circle cx="916" cy="640" r="8" class="c0"/>
<circle cx="1908" cy="364" r="8" class="c0"/>
<circle cx="1902" cy="98" r="8" class="c0"/>
<circle cx="1124" cy="488" r="8" class="c0"/>
<circle cx="1162" cy="586" r="8" class="c0"/>
<circle cx="858" cy="518" r="8" class="c0"/>
<circle cx="934" cy="812" r="8" class="c0"/>
<circle cx="1106" cy="602" r="8" class="c0"/>
<circle cx="1884" cy="416" r="8" class="c0"/>
<circle cx="1174" cy="560" r="8" class="c0"/>
<circle cx="1042" cy="538" r="8" class="c0"/>
<circle cx="1910" cy="1116" r="8" class="c0"/>
<circle cx="914" cy="514" r="8" class="c0"/>
<circle cx="1036" cy="708" r="8" class="c0"/>
<circle cx="896" cy="522" r="8" class="c0"/>
<circle cx="1060" cy="588" r="8" class="c0"/>
<circle cx="948" cy="800" r="8" class="c0"/>
<circle cx="862" cy="490" r="8" class="c0"/>
<circle cx="1894" cy="1104" r="8" class="c0"/>
<circle cx="1084" cy="806" r="8" class="c0"/>
<circle cx="826" cy="666" r="8" class="c0"/>
<circle cx="1038" cy="688" r="8" class="c0"/>
<circle cx="1140" cy="636" r="8" class="c0"/>
<circle cx="802" cy="700" r="8" class="c0"/>
<circle cx="1900" cy="1334" r="8" class="c0"/>
<circle cx="1906" cy="442" r="8" class="c0"/>
<circle cx="1140" cy="736" r="8" class="c0"/>
<circle cx="1008" cy="476" r="8" class="c0"/>
<circle cx="900" cy="814" r="8" class="c0"/>
<circle cx="982" cy="534" r="8" class="c0"/>
<circle cx="1900" cy="1244" r="8" class="c0"/>
<circle cx="1050" cy="790" r="8" class="c0"/>
<circle cx="862" cy="792" r="8" class="c0"/>
<circle cx="1110" cy="542" r="8" class="c0"/>
<circle cx="1038" cy="746" r="8" class="c0"/>
<circle cx="940" cy="680" r="8" class="c0"/>
<circle cx="1062" cy="556" r="8" class="c0"/>
<circle cx="1906" cy="628" r="8" class="c0"/>
<circle cx="1098" cy="488" r="8" class="c0"/>
<circle cx="1904" cy="844" r="8" class="c0"/>
<circle cx="896" cy="468" r="8" class="c0"/>
<circle cx="1072" cy="670" r="8" class="c0"/>
<circle cx="1138" cy="572" r="8" class="c0"/>
<circle cx="1910" cy="382" r="8" class="c0"/>
<circle cx="1060" cy="502" r="8" class="c0"/>
<circle cx="1042" cy="460" r="8" class="c0"/>
<circle cx="948" cy="538" r="8" class="c0"/>
<circle cx="1884" cy="508" r="8" class="c0"/>
<circle cx="1002" cy="436" r="8" class="c0"/>
<circle cx="1894" cy="432" r="8" class="c0"/>
<circle cx="1910" cy="1224" r="8" class="c0"/>
<circle cx="1888" cy="1354" r="8" class="c0"/>
<circle cx="1910" cy="1296" r="8" class="c0"/>
<circle cx="972" cy="524" r="8" class="c0"/>
<circle cx="982" cy="454" r="8" class="c0"/>
<circle cx="1910" cy="506" r="8" class="c0"/>
<circle cx="1072" cy="540" r="8" class="c0"/>
<circle cx="952" cy="656" r="8" class="c0"/>
<circle cx="1014" cy="516" r="8" class="c0"/>
<circle cx="1888" cy="1180" r="8" class="c0"/>
<circle cx="1092" cy="470" r="8" class="c0"/>
<circle cx="1090" cy="656" r="8" class="c0"/>
<circle cx="876" cy="550" r="8" class="c0"/>
<circle cx="1898" cy="520" r="8" class="c0"/>
<circle cx="790" cy="602" r="8" class="c0"/>
<circle cx="1888" cy="1400" r="8" class="c0"/>
<circle cx="1026" cy="472" r="8" class="c0"/>
<circle cx="1080" cy="768" r="8" class="c0"/>
<circle cx="998" cy="706" r="8" class="c0"/>
<circle cx="948" cy="604" r="8" class="c0"/>
<circle cx="1116" cy="730" r="8" class="c0"/>
<circle cx="1138" cy="688" r="8" class="c0"/>
<circle cx="880" cy="704" r="8" class="c0"/>
<circle cx="1910" cy="590" r="8" class="c0"/>
<circle cx="1888" cy="366" r="8" class="c0"/>
<circle cx="1080" cy="642" r="8" class="c0"/>
<circle cx="1894" cy="176" r="8" class="c0"/>
<circle cx="1180" cy="600" r="8" class="c0"/>
<circle cx="1908" cy="532" r="8" class="c0"/>
<circle cx="1906" cy="1034" r="8" class="c0"/>
<circle cx="996" cy="380" r="8" class="c0"/>
<circle cx="1888" cy="1310" r="8" class="c0"/>
<circle cx="958" cy="614" r="8" class="c0"/>
<circle cx="844" cy="662" r="8" class="c0"/>
<circle cx="1158" cy="664" r="8" class="c0"/>
<circle cx="1022" cy="542" r="8" class="c0"/>
<circle cx="896" cy="752" r="8" class="c0"/>
<circle cx="1110" cy="770" r="8" class="c0"/>
<circle cx="996" cy="596" r="8" class="c0"/>
<circle cx="848" cy="474" r="8" class="c0"/>
<circle cx="992" cy="550" r="8" class="c0"/>
<circle cx="902" cy="450" r="8" class="c0"/>
<circle cx="1012" cy="744" r="8" class="c0"/>
<circle cx="950" cy="702" r="8" class="c0"/>
<circle cx="1112" cy="478" r="8" class="c0"/>
<circle cx="1894" cy="54" r="8" class="c0"/>
<circle cx="1046" cy="728" r="8" class="c0"/>
<circle cx="998" cy="406" r="8" class="c0"/>
<circle cx="1888" cy="998" r="8" class="c0"/>
<circle cx="970" cy="664" r="8" class="c0"/>
<circle cx="1910" cy="766" r="8" class="c0"/>
<circle cx="1006" cy="764" r="8" class="c0"/>
<circle cx="790" cy="650" r="8" class="c0"/>
<circle cx="1884" cy="832" r="8" class="c0"/>
<circle cx="1912" cy="968" r="6" class="c0"/>
<circle cx="874" cy="760" r="6" class="c0"/>
<circle cx="1066" cy="460" r="6" class="c0"/>
<circle cx="1880" cy="698" r="6" class="c0"/>
<circle cx="968" cy="484" r="6" class="c0"/>
<circle cx="956" cy="814" r="6" class="c0"/>
<circle cx="1908" cy="290" r="6" class="c0"/>
<circle cx="1890" cy="70" r="6" class="c0"/>
<circle cx="1896" cy="1046" r="6" class="c0"/>
<circle cx="1042" cy="500" r="6" class="c0"/>
<circle cx="1900" cy="398" r="6" class="c0"/>
<circle cx="1106" cy="696" r="6" class="c0"/>
<circle cx="1910" cy="572" r="6" class="c0"/>
<circle cx="972" cy="766" r="6" class="c0"/>
<circle cx="860" cy="734" r="6" class="c0"/>
<circle cx="850" cy="564" r="6" class="c0"/>
<circle cx="836" cy="616" r="6" class="c0"/>
<circle cx="992" cy="824" r="6" class="c0"/>
<circle cx="1908" cy="670" r="6" class="c0"/>
<circle cx="1020" cy="562" r="6" class="c0"/>
<circle cx="1102" cy="642" r="6" class="c0"/>
<circle cx="924" cy="726" r="6" class="c0"/>
<circle cx="1038" cy="826" r="6" class="c0"/>
<circle cx="1056" cy="746" r="6" class="c0"/>
<circle cx="1096" cy="796" r="6" class="c0"/>
<circle cx="1004" cy="494" r="6" class="c0"/>
<circle cx="898" cy="782" r="6" class="c0"/>
<circle cx="1888" cy="150" r="6" class="c0"/>
<circle cx="1912" cy="1150" r="6" class="c0"/>
<circle cx="880" cy="654" r="6" class="c0"/>
<circle cx="912" cy="668" r="6" class="c0"/>
<circle cx="1004" cy="674" r="6" class="c0"/>
<circle cx="1006" cy="802" r="6" class="c0"/>
<circle cx="920" cy="744" r="6" class="c0"/>
<circle cx="1912" cy="922" r="6" class="c0"/>
<circle cx="1910" cy="256" r="6" class="c0"/>
<circle cx="1070" cy="756" r="6" class="c0"/>
<circle cx="1140" cy="522" r="6" class="c0"/>
<circle cx="1120" cy="682" r="6" class="c0"/>
<circle cx="1908" cy="1406" r="6" class="c0"/>
<circle cx="1890" cy="1120" r="6" class="c0"/>
<circle cx="1890" cy="1430" r="6" class="c0"/>
<circle cx="1912" cy="860" r="6" class="c0"/>
<circle cx="850" cy="708" r="6" class="c0"/>
<circle cx="926" cy="778" r="6" class="c0"/>
<circle cx="798" cy="556" r="6" class="c0"/>
<circle cx="1078" cy="712" r="6" class="c0"/>
<circle cx="1912" cy="1386" r="6" class="c0"/>
<circle cx="1126" cy="536" r="6" class="c0"/>
<circle cx="934" cy="498" r="6" class="c0"/>
<circle cx="1178" cy="584" r="6" class="c0"/>
<circle cx="934" cy="696" r="6" class="c0"/>
<circle cx="1908" cy="1426" r="6" class="c0"/>
<circle cx="1912" cy="884" r="6" class="c0"/>
<circle cx="1912" cy="56" r="6" class="c0"/>
<circle cx="1904" cy="706" r="6" class="c0"/>
<circle cx="984" cy="650" r="6" class="c0"/>
<circle cx="1020" cy="638" r="6" class="c0"/>
<circle cx="1050" cy="572" r="6" class="c0"/>
<circle cx="880" cy="594" r="6" class="c0"/>
<circle cx="912" cy="712" r="6" class="c0"/>
<circle cx="832" cy="756" r="6" class="c0"/>
<circle cx="1912" cy="348" r="6" class="c0"/>
<circle cx="1912" cy="744" r="6" class="c0"/>
<circle cx="1894" cy="616" r="6" class="c0"/>
<circle cx="1880" cy="1070" r="6" class="c0"/>
<circle cx="1912" cy="830" r="6" class="c0"/>
<circle cx="894" cy="484" r="6" class="c0"/>
<circle cx="998" cy="812" r="6" class="c0"/>
<circle cx="888" cy="662" r="6" class="c0"/>
<circle cx="910" cy="608" r="6" class="c0"/>
<circle cx="1042" cy="598" r="6" class="c0"/>
<circle cx="904" cy="676" r="6" class="c0"/>
<circle cx="1880" cy="1244" r="6" class="c0"/>
<circle cx="1126" cy="604" r="6" class="c0"/>
<circle cx="1890" cy="1060" r="6" class="c0"/>
<circle cx="1878" cy="624" r="6" class="c0"/>
<circle cx="1906" cy="1178" r="6" class="c0"/>
<circle cx="994" cy="422" r="6" class="c0"/>
<circle cx="978" cy="740" r="6" class="c0"/>
<circle cx="786" cy="562" r="6" class="c0"/>
<circle cx="934" cy="790" r="6" class="c0"/>
<circle cx="1910" cy="936" r="6" class="c0"/>
<circle cx="1110" cy="618" r="6" class="c0"/>
<circle cx="956" cy="630" r="6" class="c0"/>
<circle cx="786" cy="632" r="6" class="c0"/>
<circle cx="848" cy="722" r="6" class="c0"/>
<circle cx="1882" cy="268" r="6" class="c0"/>
<circle cx="1912" cy="110" r="6" class="c0"/>
<circle cx="6" cy="612" r="6" class="c0"/>
<circle cx="936" cy="444" r="6" class="c0"/>
<circle cx="1166" cy="680" r="6" class="c0"/>
<circle cx="998" cy="688" r="6" class="c0"/>
<circle cx="1880" cy="764" r="6" class="c0"/>
<circle cx="916" cy="816" r="6" class="c0"/>
<circle cx="1888" cy="942" r="6" class="c0"/>
<circle cx="1036" cy="612" r="6" class="c0"/>
<circle cx="1132" cy="548" r="6" class="c0"/>
<circle cx="860" cy="772" r="6" class="c0"/>
<circle cx="1118" cy="714" r="6" class="c0"/>
<circle cx="1114" cy="656" r="6" class="c0"/>
<circle cx="1896" cy="738" r="6" class="c0"/>
<circle cx="1910" cy="612" r="6" class="c0"/>
<circle cx="1888" cy="534" r="6" class="c0"/>
<circle cx="1912" cy="646" r="6" class="c0"/>
<circle cx="1890" cy="970" r="6" class="c0"/>
<circle cx="1888" cy="714" r="6" class="c0"/>
<circle cx="1130" cy="650" r="6" class="c0"/>
<circle cx="1880" cy="806" r="6" class="c0"/>
<circle cx="1912" cy="324" r="6" class="c0"/>
<circle cx="880" cy="570" r="6" class="c0"/>
<circle cx="892" cy="636" r="6" class="c0"/>
<circle cx="890" cy="716" r="6" class="c0"/>
<circle cx="1878" cy="660" r="6" class="c0"/>
<circle cx="1040" cy="780" r="6" class="c0"/>
<circle cx="846" cy="786" r="6" class="c0"/>
<circle cx="950" cy="758" r="6" class="c0"/>
<circle cx="1018" cy="716" r="6" class="c0"/>
<circle cx="866" cy="746" r="6" class="c0"/>
<circle cx="1144" cy="654" r="6" class="c0"/>
<circle cx="922" cy="704" r="6" class="c0"/>
<circle cx="828" cy="728" r="6" class="c0"/>
<circle cx="842" cy="528" r="6" class="c0"/>
<circle cx="804" cy="568" r="6" class="c0"/>
<circle cx="1150" cy="626" r="6" class="c0"/>
<circle cx="1894" cy="84" r="6" class="c0"/>
<circle cx="1082" cy="530" r="6" class="c0"/>
<circle cx="800" cy="638" r="6" class="c0"/>
<circle cx="1880" cy="554" r="6" class="c0"/>
<circle cx="1888" cy="1254" r="6" class="c0"/>
<circle cx="1912" cy="126" r="6" class="c0"/>
<circle cx="1030" cy="650" r="6" class="c0"/>
<circle cx="1880" cy="734" r="6" class="c0"/>
<circle cx="936" cy="664" r="6" class="c0"/>
<circle cx="926" cy="630" r="6" class="c0"/>
<circle cx="866" cy="560" r="6" class="c0"/>
<circle cx="1912" cy="206" r="6" class="c0"/>
<circle cx="1890" cy="856" r="6" class="c0"/>
<circle cx="814" cy="676" r="6" class="c0"/>
<circle cx="1912" cy="800" r="6" class="c0"/>
<circle cx="1912" cy="484" r="6" class="c0"/>
<circle cx="1892" cy="456" r="6" class="c0"/>
<circle cx="1892" cy="202" r="6" class="c0"/>
<circle cx="1880" cy="956" r="6" class="c0"/>
<circle cx="844" cy="608" r="6" class="c0"/>
<circle cx="1910" cy="178" r="6" class="c0"/>
<circle cx="892" cy="768" r="6" class="c0"/>
<circle cx="838" cy="462" r="6" class="c0"/>
<circle cx="844" cy="582" r="6" class="c0"/>
<circle cx="1878" cy="44" r="6" class="c0"/>
<circle cx="1176" cy="624" r="6" class="c0"/>
<circle cx="944" cy="622" r="6" class="c0"/>
<circle cx="1888" cy="134" r="6" class="c0"/>
<circle cx="1164" cy="570" r="6" class="c0"/>
<circle cx="1880" cy="476" r="6" class="c0"/>
<circle cx="890" cy="538" r="6" class="c0"/>
<circle cx="1880" cy="1112" r="6" class="c0"/>
</svg>
