<?xml version="1.0" encoding="utf-8"?>
<svg xmlns="http://www.w3.org/2000/svg"
     xmlns:xlink="http://www.w3.org/1999/xlink" width="1920" height="1440" >

            <defs>
            <style type="text/css"><![CDATA[
circle {stroke: none;}
.c0 {fill: #FFFFFF;}
]]></style>
            </defs>
<rect x="0" y="0" width="1920" height="1440" fill="black"/>
<circle cx="1472" cy="548" r="14" class="c0"/>
<circle cx="1694" cy="618" r="12" class="c0"/>
<circle cx="1334" cy="608" r="12" class="c0"/>
<circle cx="1638" cy="676" r="12" class="c0"/>
<circle cx="1256" cy="342" r="12" class="c0"/>
<circle cx="1294" cy="650" r="12" class="c0"/>
<circle cx="1570" cy="676" r="12" class="c0"/>
<circle cx="1240" cy="678" r="12" class="c0"/>
<circle cx="1380" cy="548" r="12" class="c0"/>
<circle cx="1280" cy="366" r="12" class="c0"/>
<circle cx="930" cy="686" r="12" class="c0"/>
<circle cx="1464" cy="674" r="12" class="c0"/>
<circle cx="1638" cy="722" r="12" class="c0"/>
<circle cx="1240" cy="422" r="12" class="c0"/>
<circle cx="1530" cy="666" r="12" class="c0"/>
<circle cx="1016" cy="690" r="12" class="c0"/>
<circle cx="1408" cy="528" r="12" class="c0"/>
<circle cx="1356" cy="252" r="12" class="c0"/>
<circle cx="1328" cy="490" r="12" class="c0"/>
<circle cx="1818" cy="644" r="12" class="c0"/>
<circle cx="1454" cy="616" r="12" class="c0"/>
<circle cx="1434" cy="404" r="12" class="c0"/>
<circle cx="1662" cy="640" r="12" class="c0"/>
<circle cx="1340" cy="402" r="12" class="c0"/>
<circle cx="1776" cy="692" r="12" class="c0"/>
<circle cx="1298" cy="540" r="12" class="c0"/>
<circle cx="1522" cy="708" r="12" class="c0"/>
<circle cx="1074" cy="710" r="12" class="c0"/>
<circle cx="1222" cy="338" r="12" class="c0"/>
<circle cx="1836" cy="626" r="12" class="c0"/>
<circle cx="1902" cy="640" r="12" class="c0"/>
<circle cx="1606" cy="686" r="12" class="c0"/>
<circle cx="1840" cy="740" r="12" class="c0"/>
<circle cx="1514" cy="366" r="12" class="c0"/>
<circle cx="1266" cy="446" r="12" class="c0"/>
<circle cx="1320" cy="522" r="12" class="c0"/>
<circle cx="1746" cy="658" r="12" class="c0"/>
<circle cx="1500" cy="662" r="10" class="c0"/>
<circle cx="1588" cy="628" r="10" class="c0"/>
<circle cx="1270" cy="304" r="10" class="c0"/>
<circle cx="1342" cy="432" r="10" class="c0"/>
<circle cx="1160" cy="352" r="10" class="c0"/>
<circle cx="1380" cy="648" r="10" class="c0"/>
<circle cx="1734" cy="620" r="10" class="c0"/>
<circle cx="1714" cy="676" r="10" class="c0"/>
<circle cx="1158" cy="318" r="10" class="c0"/>
<circle cx="1292" cy="446" r="10" class="c0"/>
<circle cx="1780" cy="626" r="10" class="c0"/>
<circle cx="1758" cy="678" r="10" class="c0"/>
<circle cx="1896" cy="682" r="10" class="c0"/>
<circle cx="1368" cy="528" r="10" class="c0"/>
<circle cx="1576" cy="564" r="10" class="c0"/>
<circle cx="1276" cy="496" r="10" class="c0"/>
<circle cx="1436" cy="808" r="10" class="c0"/>
<circle cx="1610" cy="752" r="10" class="c0"/>
<circle cx="1302" cy="690" r="10" class="c0"/>
<circle cx="1412" cy="640" r="10" class="c0"/>
<circle cx="1406" cy="402" r="10" class="c0"/>
<circle cx="1536" cy="634" r="10" class="c0"/>
<circle cx="1484" cy="644" r="10" class="c0"/>
<circle cx="1382" cy="348" r="10" class="c0"/>
<circle cx="1316" cy="284" r="10" class="c0"/>
<circle cx="1838" cy="776" r="10" class="c0"/>
<circle cx="1828" cy="680" r="10" class="c0"/>
<circle cx="1286" cy="414" r="10" class="c0"/>
<circle cx="1862" cy="702" r="10" class="c0"/>
<circle cx="1034" cy="672" r="10" class="c0"/>
<circle cx="1874" cy="596" r="10" class="c0"/>
<circle cx="1274" cy="684" r="10" class="c0"/>
<circle cx="1246" cy="624" r="10" class="c0"/>
<circle cx="1360" cy="598" r="10" class="c0"/>
<circle cx="1336" cy="566" r="10" class="c0"/>
<circle cx="1682" cy="692" r="10" class="c0"/>
<circle cx="1576" cy="718" r="10" class="c0"/>
<circle cx="1314" cy="734" r="10" class="c0"/>
<circle cx="1860" cy="772" r="10" class="c0"/>
<circle cx="1372" cy="670" r="10" class="c0"/>
<circle cx="1268" cy="710" r="10" class="c0"/>
<circle cx="870" cy="670" r="10" class="c0"/>
<circle cx="1320" cy="426" r="10" class="c0"/>
<circle cx="1810" cy="610" r="10" class="c0"/>
<circle cx="1308" cy="360" r="10" class="c0"/>
<circle cx="1310" cy="474" r="10" class="c0"/>
<circle cx="1268" cy="266" r="10" class="c0"/>
<circle cx="1444" cy="752" r="10" class="c0"/>
<circle cx="1464" cy="348" r="10" class="c0"/>
<circle cx="1554" cy="620" r="10" class="c0"/>
<circle cx="1686" cy="764" r="10" class="c0"/>
<circle cx="1542" cy="688" r="10" class="c0"/>
<circle cx="1482" cy="602" r="10" class="c0"/>
<circle cx="1198" cy="692" r="10" class="c0"/>
<circle cx="1186" cy="334" r="10" class="c0"/>
<circle cx="890" cy="658" r="10" class="c0"/>
<circle cx="1392" cy="378" r="10" class="c0"/>
<circle cx="1750" cy="634" r="10" class="c0"/>
<circle cx="1440" cy="670" r="10" class="c0"/>
<circle cx="1506" cy="542" r="10" class="c0"/>
<circle cx="1780" cy="736" r="10" class="c0"/>
<circle cx="1384" cy="254" r="10" class="c0"/>
<circle cx="1422" cy="780" r="10" class="c0"/>
<circle cx="1744" cy="766" r="10" class="c0"/>
<circle cx="994" cy="672" r="10" class="c0"/>
<circle cx="1364" cy="374" r="10" class="c0"/>
<circle cx="1714" cy="736" r="10" class="c0"/>
<circle cx="1322" cy="384" r="10" class="c0"/>
<circle cx="1356" cy="624" r="10" class="c0"/>
<circle cx="1340" cy="540" r="10" class="c0"/>
<circle cx="1446" cy="510" r="10" class="c0"/>
<circle cx="1114" cy="680" r="10" class="c0"/>
<circle cx="1420" cy="722" r="10" class="c0"/>
<circle cx="1446" cy="370" r="10" class="c0"/>
<circle cx="1792" cy="666" r="10" class="c0"/>
<circle cx="1404" cy="618" r="10" class="c0"/>
<circle cx="1262" cy="598" r="10" class="c0"/>
<circle cx="1202" cy="348" r="10" class="c0"/>
<circle cx="1046" cy="698" r="10" class="c0"/>
<circle cx="1606" cy="652" r="10" class="c0"/>
<circle cx="1412" cy="742" r="10" class="c0"/>
<circle cx="1410" cy="366" r="10" class="c0"/>
<circle cx="1498" cy="580" r="10" class="c0"/>
<circle cx="1302" cy="252" r="10" class="c0"/>
<circle cx="1396" cy="576" r="10" class="c0"/>
<circle cx="1352" cy="694" r="10" class="c0"/>
<circle cx="1726" cy="700" r="10" class="c0"/>
<circle cx="1340" cy="714" r="10" class="c0"/>
<circle cx="1408" cy="560" r="10" class="c0"/>
<circle cx="1700" cy="710" r="10" class="c0"/>
<circle cx="1414" cy="674" r="10" class="c0"/>
<circle cx="1220" cy="666" r="10" class="c0"/>
<circle cx="1380" cy="492" r="10" class="c0"/>
<circle cx="1088" cy="694" r="10" class="c0"/>
<circle cx="1412" cy="432" r="10" class="c0"/>
<circle cx="1370" cy="436" r="10" class="c0"/>
<circle cx="1610" cy="720" r="10" class="c0"/>
<circle cx="1220" cy="372" r="10" class="c0"/>
<circle cx="1384" cy="400" r="10" class="c0"/>
<circle cx="1854" cy="650" r="10" class="c0"/>
<circle cx="1490" cy="528" r="10" class="c0"/>
<circle cx="1508" cy="628" r="10" class="c0"/>
<circle cx="1634" cy="640" r="10" class="c0"/>
<circle cx="1386" cy="448" r="10" class="c0"/>
<circle cx="1796" cy="706" r="10" class="c0"/>
<circle cx="1294" cy="394" r="8" class="c0"/>
<circle cx="1676" cy="730" r="8" class="c0"/>
<circle cx="1448" cy="478" r="8" class="c0"/>
<circle cx="1894" cy="762" r="8" class="c0"/>
<circle cx="1220" cy="690" r="8" class="c0"/>
<circle cx="1736" cy="720" r="8" class="c0"/>
<circle cx="1578" cy="652" r="8" class="c0"/>
<circle cx="1204" cy="314" r="8" class="c0"/>
<circle cx="1326" cy="314" r="8" class="c0"/>
<circle cx="964" cy="670" r="8" class="c0"/>
<circle cx="1452" cy="592" r="8" class="c0"/>
<circle cx="1900" cy="782" r="8" class="c0"/>
<circle cx="1818" cy="762" r="8" class="c0"/>
<circle cx="1352" cy="320" r="8" class="c0"/>
<circle cx="1466" cy="382" r="8" class="c0"/>
<circle cx="1340" cy="658" r="8" class="c0"/>
<circle cx="1292" cy="568" r="8" class="c0"/>
<circle cx="1354" cy="728" r="8" class="c0"/>
<circle cx="1662" cy="750" r="8" class="c0"/>
<circle cx="1580" cy="694" r="8" class="c0"/>
<circle cx="1252" cy="400" r="8" class="c0"/>
<circle cx="1890" cy="712" r="8" class="c0"/>
<circle cx="1458" cy="650" r="8" class="c0"/>
<circle cx="1184" cy="356" r="8" class="c0"/>
<circle cx="1256" cy="728" r="8" class="c0"/>
<circle cx="1876" cy="724" r="8" class="c0"/>
<circle cx="1694" cy="666" r="8" class="c0"/>
<circle cx="1424" cy="614" r="8" class="c0"/>
<circle cx="1662" cy="712" r="8" class="c0"/>
<circle cx="1444" cy="422" r="8" class="c0"/>
<circle cx="1548" cy="708" r="8" class="c0"/>
<circle cx="1752" cy="604" r="8" class="c0"/>
<circle cx="1588" cy="734" r="8" class="c0"/>
<circle cx="1872" cy="754" r="8" class="c0"/>
<circle cx="1458" cy="776" r="8" class="c0"/>
<circle cx="1714" cy="654" r="8" class="c0"/>
<circle cx="1328" cy="454" r="8" class="c0"/>
<circle cx="1144" cy="330" r="8" class="c0"/>
<circle cx="1394" cy="422" r="8" class="c0"/>
<circle cx="978" cy="694" r="8" class="c0"/>
<circle cx="1882" cy="780" r="8" class="c0"/>
<circle cx="1318" cy="238" r="8" class="c0"/>
<circle cx="1728" cy="748" r="8" class="c0"/>
<circle cx="1288" cy="598" r="8" class="c0"/>
<circle cx="1380" cy="708" r="8" class="c0"/>
<circle cx="1288" cy="712" r="8" class="c0"/>
<circle cx="1562" cy="730" r="8" class="c0"/>
<circle cx="1296" cy="330" r="8" class="c0"/>
<circle cx="1632" cy="588" r="8" class="c0"/>
<circle cx="1288" cy="736" r="8" class="c0"/>
<circle cx="1500" cy="610" r="8" class="c0"/>
<circle cx="1542" cy="562" r="8" class="c0"/>
<circle cx="1392" cy="604" r="8" class="c0"/>
<circle cx="1856" cy="796" r="8" class="c0"/>
<circle cx="1772" cy="652" r="8" class="c0"/>
<circle cx="1292" cy="510" r="8" class="c0"/>
<circle cx="1824" cy="704" r="8" class="c0"/>
<circle cx="1884" cy="660" r="8" class="c0"/>
<circle cx="1812" cy="796" r="8" class="c0"/>
<circle cx="1338" cy="472" r="8" class="c0"/>
<circle cx="1270" cy="388" r="8" class="c0"/>
<circle cx="1424" cy="582" r="8" class="c0"/>
<circle cx="1852" cy="600" r="8" class="c0"/>
<circle cx="914" cy="656" r="8" class="c0"/>
<circle cx="954" cy="692" r="8" class="c0"/>
<circle cx="1386" cy="514" r="8" class="c0"/>
<circle cx="1436" cy="440" r="8" class="c0"/>
<circle cx="1354" cy="452" r="8" class="c0"/>
<circle cx="1490" cy="690" r="8" class="c0"/>
<circle cx="1324" cy="342" r="8" class="c0"/>
<circle cx="1510" cy="684" r="8" class="c0"/>
<circle cx="1450" cy="726" r="8" class="c0"/>
<circle cx="1396" cy="666" r="8" class="c0"/>
<circle cx="1434" cy="524" r="8" class="c0"/>
<circle cx="1180" cy="680" r="8" class="c0"/>
<circle cx="1102" cy="710" r="8" class="c0"/>
<circle cx="1876" cy="642" r="8" class="c0"/>
<circle cx="1526" cy="382" r="8" class="c0"/>
<circle cx="1242" cy="296" r="8" class="c0"/>
<circle cx="1068" cy="678" r="8" class="c0"/>
<circle cx="1366" cy="718" r="8" class="c0"/>
<circle cx="1842" cy="698" r="8" class="c0"/>
<circle cx="1376" cy="464" r="8" class="c0"/>
<circle cx="1578" cy="746" r="8" class="c0"/>
<circle cx="1238" cy="362" r="8" class="c0"/>
<circle cx="1802" cy="784" r="8" class="c0"/>
<circle cx="1474" cy="364" r="8" class="c0"/>
<circle cx="1434" cy="640" r="8" class="c0"/>
<circle cx="1552" cy="656" r="8" class="c0"/>
<circle cx="1600" cy="582" r="8" class="c0"/>
<circle cx="1156" cy="680" r="8" class="c0"/>
<circle cx="1704" cy="756" r="8" class="c0"/>
<circle cx="1510" cy="566" r="8" class="c0"/>
<circle cx="1166" cy="692" r="8" class="c0"/>
<circle cx="1496" cy="508" r="8" class="c0"/>
<circle cx="1278" cy="528" r="8" class="c0"/>
<circle cx="1908" cy="740" r="8" class="c0"/>
<circle cx="1258" cy="504" r="8" class="c0"/>
<circle cx="1456" cy="796" r="8" class="c0"/>
<circle cx="1486" cy="708" r="8" class="c0"/>
<circle cx="1388" cy="734" r="8" class="c0"/>
<circle cx="1442" cy="700" r="8" class="c0"/>
<circle cx="1498" cy="344" r="8" class="c0"/>
<circle cx="1352" cy="342" r="8" class="c0"/>
<circle cx="1284" cy="468" r="8" class="c0"/>
<circle cx="1244" cy="382" r="8" class="c0"/>
<circle cx="1144" cy="306" r="8" class="c0"/>
<circle cx="1694" cy="734" r="8" class="c0"/>
<circle cx="1850" cy="722" r="8" class="c0"/>
<circle cx="1400" cy="712" r="8" class="c0"/>
<circle cx="1308" cy="668" r="8" class="c0"/>
<circle cx="1632" cy="750" r="8" class="c0"/>
<circle cx="1234" cy="322" r="8" class="c0"/>
<circle cx="1476" cy="572" r="8" class="c0"/>
<circle cx="1426" cy="504" r="8" class="c0"/>
<circle cx="1358" cy="500" r="8" class="c0"/>
<circle cx="1672" cy="614" r="8" class="c0"/>
<circle cx="1754" cy="728" r="8" class="c0"/>
<circle cx="1800" cy="630" r="8" class="c0"/>
<circle cx="1416" cy="700" r="8" class="c0"/>
<circle cx="1792" cy="602" r="8" class="c0"/>
<circle cx="1290" cy="308" r="8" class="c0"/>
<circle cx="1834" cy="714" r="8" class="c0"/>
<circle cx="1350" cy="674" r="8" class="c0"/>
<circle cx="1898" cy="730" r="8" class="c0"/>
<circle cx="1480" cy="622" r="8" class="c0"/>
<circle cx="1764" cy="776" r="8" class="c0"/>
<circle cx="1288" cy="286" r="8" class="c0"/>
<circle cx="1802" cy="730" r="8" class="c0"/>
<circle cx="1320" cy="700" r="8" class="c0"/>
<circle cx="934" cy="662" r="8" class="c0"/>
<circle cx="1342" cy="290" r="8" class="c0"/>
<circle cx="1338" cy="236" r="8" class="c0"/>
<circle cx="1558" cy="698" r="8" class="c0"/>
<circle cx="1350" cy="516" r="8" class="c0"/>
<circle cx="1388" cy="688" r="8" class="c0"/>
<circle cx="1762" cy="618" r="8" class="c0"/>
<circle cx="1686" cy="642" r="8" class="c0"/>
<circle cx="1466" cy="416" r="8" class="c0"/>
<circle cx="1418" cy="386" r="8" class="c0"/>
<circle cx="1170" cy="670" r="8" class="c0"/>
<circle cx="1622" cy="626" r="8" class="c0"/>
<circle cx="1452" cy="530" r="8" class="c0"/>
<circle cx="1324" cy="262" r="8" class="c0"/>
<circle cx="1854" cy="672" r="8" class="c0"/>
<circle cx="1628" cy="702" r="8" class="c0"/>
<circle cx="1304" cy="498" r="8" class="c0"/>
<circle cx="1656" cy="690" r="8" class="c0"/>
<circle cx="1486" cy="398" r="8" class="c0"/>
<circle cx="1864" cy="614" r="8" class="c0"/>
<circle cx="908" cy="680" r="8" class="c0"/>
<circle cx="1402" cy="264" r="8" class="c0"/>
<circle cx="1330" cy="676" r="8" class="c0"/>
<circle cx="1216" cy="432" r="8" class="c0"/>
<circle cx="1374" cy="614" r="8" class="c0"/>
<circle cx="1126" cy="696" r="8" class="c0"/>
<circle cx="1298" cy="376" r="8" class="c0"/>
<circle cx="1708" cy="634" r="8" class="c0"/>
<circle cx="1318" cy="650" r="8" class="c0"/>
<circle cx="1446" cy="566" r="8" class="c0"/>
<circle cx="1812" cy="668" r="8" class="c0"/>
<circle cx="1424" cy="548" r="8" class="c0"/>
<circle cx="1764" cy="714" r="8" class="c0"/>
<circle cx="1366" cy="570" r="8" class="c0"/>
<circle cx="1314" cy="554" r="8" class="c0"/>
<circle cx="1454" cy="396" r="8" class="c0"/>
<circle cx="1872" cy="686" r="8" class="c0"/>
<circle cx="1484" cy="378" r="8" class="c0"/>
<circle cx="1234" cy="636" r="8" class="c0"/>
<circle cx="1792" cy="770" r="8" class="c0"/>
<circle cx="1426" cy="352" r="8" class="c0"/>
<circle cx="1350" cy="648" r="8" class="c0"/>
<circle cx="1466" cy="514" r="8" class="c0"/>
<circle cx="1328" cy="636" r="8" class="c0"/>
<circle cx="1540" cy="728" r="8" class="c0"/>
<circle cx="1342" cy="362" r="8" class="c0"/>
<circle cx="1600" cy="602" r="8" class="c0"/>
<circle cx="1284" cy="342" r="8" class="c0"/>
<circle cx="1440" cy="788" r="8" class="c0"/>
<circle cx="1308" cy="636" r="8" class="c0"/>
<circle cx="1502" cy="382" r="8" class="c0"/>
<circle cx="1198" cy="370" r="8" class="c0"/>
<circle cx="1278" cy="578" r="8" class="c0"/>
<circle cx="1266" cy="418" r="8" class="c0"/>
<circle cx="1436" cy="602" r="8" class="c0"/>
<circle cx="1908" cy="710" r="8" class="c0"/>
<circle cx="1256" cy="694" r="8" class="c0"/>
<circle cx="1272" cy="324" r="8" class="c0"/>
<circle cx="1404" cy="594" r="8" class="c0"/>
<circle cx="1566" cy="580" r="8" class="c0"/>
<circle cx="1000" cy="704" r="8" class="c0"/>
<circle cx="1868" cy="808" r="8" class="c0"/>
<circle cx="1228" cy="442" r="8" class="c0"/>
<circle cx="1258" cy="368" r="8" class="c0"/>
<circle cx="1034" cy="712" r="8" class="c0"/>
<circle cx="1772" cy="756" r="8" class="c0"/>
<circle cx="1430" cy="270" r="8" class="c0"/>
<circle cx="1716" cy="606" r="8" class="c0"/>
<circle cx="1250" cy="648" r="8" class="c0"/>
<circle cx="1266" cy="620" r="8" class="c0"/>
<circle cx="1814" cy="714" r="8" class="c0"/>
<circle cx="1566" cy="642" r="8" class="c0"/>
<circle cx="1882" cy="618" r="8" class="c0"/>
<circle cx="1366" cy="412" r="8" class="c0"/>
<circle cx="1644" cy="620" r="8" class="c0"/>
<circle cx="1468" cy="632" r="8" class="c0"/>
<circle cx="1752" cy="700" r="8" class="c0"/>
<circle cx="1614" cy="558" r="8" class="c0"/>
<circle cx="1622" cy="664" r="8" class="c0"/>
<circle cx="1308" cy="712" r="8" class="c0"/>
<circle cx="1222" cy="304" r="8" class="c0"/>
<circle cx="1378" cy="590" r="8" class="c0"/>
<circle cx="1662" cy="672" r="8" class="c0"/>
<circle cx="1816" cy="742" r="8" class="c0"/>
<circle cx="1340" cy="378" r="6" class="c0"/>
<circle cx="1360" cy="392" r="6" class="c0"/>
<circle cx="1352" cy="302" r="6" class="c0"/>
<circle cx="1666" cy="766" r="6" class="c0"/>
<circle cx="1854" cy="754" r="6" class="c0"/>
<circle cx="1480" cy="506" r="6" class="c0"/>
<circle cx="1428" cy="686" r="6" class="c0"/>
<circle cx="1594" cy="556" r="6" class="c0"/>
<circle cx="1488" cy="562" r="6" class="c0"/>
<circle cx="1870" cy="670" r="6" class="c0"/>
<circle cx="1262" cy="636" r="6" class="c0"/>
<circle cx="850" cy="664" r="6" class="c0"/>
<circle cx="1282" cy="432" r="6" class="c0"/>
<circle cx="1728" cy="638" r="6" class="c0"/>
<circle cx="1372" cy="632" r="6" class="c0"/>
<circle cx="1898" cy="620" r="6" class="c0"/>
<circle cx="1534" cy="368" r="6" class="c0"/>
<circle cx="1438" cy="492" r="6" class="c0"/>
<circle cx="1800" cy="754" r="6" class="c0"/>
<circle cx="1454" cy="440" r="6" class="c0"/>
<circle cx="1460" cy="738" r="6" class="c0"/>
<circle cx="1532" cy="576" r="6" class="c0"/>
<circle cx="1552" cy="572" r="6" class="c0"/>
<circle cx="1426" cy="422" r="6" class="c0"/>
<circle cx="1484" cy="354" r="6" class="c0"/>
<circle cx="1596" cy="666" r="6" class="c0"/>
<circle cx="1012" cy="666" r="6" class="c0"/>
<circle cx="1352" cy="484" r="6" class="c0"/>
<circle cx="1404" cy="340" r="6" class="c0"/>
<circle cx="1862" cy="740" r="6" class="c0"/>
<circle cx="1466" cy="710" r="6" class="c0"/>
<circle cx="1712" cy="770" r="6" class="c0"/>
<circle cx="1366" cy="740" r="6" class="c0"/>
<circle cx="1580" cy="610" r="6" class="c0"/>
<circle cx="1794" cy="684" r="6" class="c0"/>
<circle cx="1830" cy="596" r="6" class="c0"/>
<circle cx="1356" cy="580" r="6" class="c0"/>
<circle cx="1054" cy="670" r="6" class="c0"/>
<circle cx="1492" cy="364" r="6" class="c0"/>
<circle cx="1238" cy="736" r="6" class="c0"/>
<circle cx="1370" cy="332" r="6" class="c0"/>
<circle cx="1436" cy="734" r="6" class="c0"/>
<circle cx="1892" cy="746" r="6" class="c0"/>
<circle cx="1252" cy="282" r="6" class="c0"/>
<circle cx="1512" cy="522" r="6" class="c0"/>
<circle cx="1278" cy="664" r="6" class="c0"/>
<circle cx="1756" cy="744" r="6" class="c0"/>
<circle cx="1536" cy="612" r="6" class="c0"/>
<circle cx="944" cy="674" r="6" class="c0"/>
<circle cx="1304" cy="418" r="6" class="c0"/>
<circle cx="1882" cy="698" r="6" class="c0"/>
<circle cx="1092" cy="674" r="6" class="c0"/>
<circle cx="1658" cy="732" r="6" class="c0"/>
<circle cx="1256" cy="746" r="6" class="c0"/>
<circle cx="1308" cy="404" r="6" class="c0"/>
<circle cx="1368" cy="480" r="6" class="c0"/>
<circle cx="1266" cy="476" r="6" class="c0"/>
<circle cx="1340" cy="270" r="6" class="c0"/>
<circle cx="1466" cy="582" r="6" class="c0"/>
<circle cx="1410" cy="456" r="6" class="c0"/>
<circle cx="1528" cy="348" r="6" class="c0"/>
<circle cx="1146" cy="696" r="6" class="c0"/>
<circle cx="1342" cy="584" r="6" class="c0"/>
<circle cx="1136" cy="350" r="6" class="c0"/>
<circle cx="1616" cy="578" r="6" class="c0"/>
<circle cx="1294" cy="268" r="6" class="c0"/>
<circle cx="1302" cy="432" r="6" class="c0"/>
<circle cx="1236" cy="658" r="6" class="c0"/>
<circle cx="860" cy="654" r="6" class="c0"/>
<circle cx="1420" cy="760" r="6" class="c0"/>
<circle cx="1362" cy="356" r="6" class="c0"/>
<circle cx="1740" cy="690" r="6" class="c0"/>
<circle cx="1300" cy="582" r="6" class="c0"/>
<circle cx="1282" cy="552" r="6" class="c0"/>
<circle cx="1252" cy="316" r="6" class="c0"/>
<circle cx="1238" cy="716" r="6" class="c0"/>
<circle cx="1442" cy="770" r="6" class="c0"/>
<circle cx="1340" cy="330" r="6" class="c0"/>
<circle cx="1390" cy="634" r="6" class="c0"/>
<circle cx="1678" cy="714" r="6" class="c0"/>
<circle cx="1442" cy="540" r="6" class="c0"/>
<circle cx="1334" cy="692" r="6" class="c0"/>
<circle cx="1274" cy="744" r="6" class="c0"/>
<circle cx="1646" cy="654" r="6" class="c0"/>
<circle cx="1906" cy="666" r="6" class="c0"/>
<circle cx="1646" cy="740" r="6" class="c0"/>
<circle cx="1340" cy="736" r="6" class="c0"/>
<circle cx="1776" cy="596" r="6" class="c0"/>
<circle cx="1604" cy="618" r="6" class="c0"/>
<circle cx="1396" cy="500" r="6" class="c0"/>
<circle cx="1512" cy="650" r="6" class="c0"/>
<circle cx="1808" cy="692" r="6" class="c0"/>
<circle cx="1404" cy="690" r="6" class="c0"/>
<circle cx="1242" cy="450" r="6" class="c0"/>
<circle cx="1450" cy="636" r="6" class="c0"/>
<circle cx="1836" cy="794" r="6" class="c0"/>
<circle cx="1458" cy="496" r="6" class="c0"/>
<circle cx="1678" cy="668" r="6" class="c0"/>
<circle cx="1214" cy="706" r="6" class="c0"/>
<circle cx="1352" cy="558" r="6" class="c0"/>
<circle cx="1468" cy="694" r="6" class="c0"/>
<circle cx="1308" cy="302" r="6" class="c0"/>
<circle cx="1260" cy="672" r="6" class="c0"/>
<circle cx="1308" cy="340" r="6" class="c0"/>
<circle cx="1228" cy="406" r="6" class="c0"/>
<circle cx="940" cy="708" r="6" class="c0"/>
<circle cx="1372" cy="690" r="6" class="c0"/>
<circle cx="1426" cy="660" r="6" class="c0"/>
<circle cx="1450" cy="550" r="6" class="c0"/>
<circle cx="1834" cy="660" r="6" class="c0"/>
<circle cx="1132" cy="320" r="6" class="c0"/>
<circle cx="1428" cy="564" r="6" class="c0"/>
<circle cx="1262" cy="522" r="6" class="c0"/>
<circle cx="1730" cy="776" r="6" class="c0"/>
<circle cx="1852" cy="688" r="6" class="c0"/>
<circle cx="1370" cy="266" r="6" class="c0"/>
<circle cx="1782" cy="716" r="6" class="c0"/>
<circle cx="1278" cy="726" r="6" class="c0"/>
<circle cx="1502" cy="706" r="6" class="c0"/>
<circle cx="1230" cy="702" r="6" class="c0"/>
<circle cx="1446" cy="350" r="6" class="c0"/>
<circle cx="1820" cy="782" r="6" class="c0"/>
<circle cx="1312" cy="324" r="6" class="c0"/>
<circle cx="1138" cy="684" r="6" class="c0"/>
<circle cx="1202" cy="674" r="6" class="c0"/>
<circle cx="1216" cy="414" r="6" class="c0"/>
<circle cx="888" cy="676" r="6" class="c0"/>
<circle cx="1312" cy="456" r="6" class="c0"/>
<circle cx="1526" cy="556" r="6" class="c0"/>
<circle cx="1798" cy="648" r="6" class="c0"/>
<circle cx="1910" cy="764" r="6" class="c0"/>
<circle cx="1314" cy="620" r="6" class="c0"/>
<circle cx="1594" cy="708" r="6" class="c0"/>
<circle cx="1732" cy="678" r="6" class="c0"/>
<circle cx="1782" cy="780" r="6" class="c0"/>
<circle cx="1816" cy="592" r="6" class="c0"/>
<circle cx="1280" cy="612" r="6" class="c0"/>
<circle cx="1386" cy="330" r="6" class="c0"/>
<circle cx="1276" cy="248" r="6" class="c0"/>
<circle cx="1292" cy="670" r="6" class="c0"/>
<circle cx="1704" cy="690" r="6" class="c0"/>
<circle cx="1052" cy="716" r="6" class="c0"/>
<circle cx="1358" cy="468" r="6" class="c0"/>
<circle cx="1512" cy="500" r="6" class="c0"/>
<circle cx="1294" cy="482" r="6" class="c0"/>
<circle cx="1676" cy="654" r="6" class="c0"/>
<circle cx="1622" cy="740" r="6" class="c0"/>
<circle cx="1608" cy="634" r="6" class="c0"/>
<circle cx="1480" cy="664" r="6" class="c0"/>
<circle cx="1092" cy="720" r="6" class="c0"/>
<circle cx="1858" cy="632" r="6" class="c0"/>
<circle cx="1720" cy="718" r="6" class="c0"/>
<circle cx="1910" cy="692" r="6" class="c0"/>
<circle cx="1524" cy="618" r="6" class="c0"/>
<circle cx="1340" cy="504" r="6" class="c0"/>
<circle cx="1582" cy="584" r="6" class="c0"/>
<circle cx="1244" cy="704" r="6" class="c0"/>
<circle cx="1328" cy="298" r="6" class="c0"/>
<circle cx="1682" cy="746" r="6" class="c0"/>
<circle cx="1428" cy="372" r="6" class="c0"/>
<circle cx="1298" cy="726" r="6" class="c0"/>
<circle cx="1258" cy="484" r="6" class="c0"/>
<circle cx="1370" cy="510" r="6" class="c0"/>
<circle cx="1388" cy="474" r="6" class="c0"/>
<circle cx="1168" cy="332" r="6" class="c0"/>
<circle cx="1454" cy="812" r="6" class="c0"/>
<circle cx="1824" cy="728" r="6" class="c0"/>
<circle cx="1352" cy="276" r="6" class="c0"/>
<circle cx="1358" cy="542" r="6" class="c0"/>
<circle cx="1450" cy="686" r="6" class="c0"/>
<circle cx="1426" cy="486" r="6" class="c0"/>
<circle cx="1284" cy="258" r="6" class="c0"/>
<circle cx="1414" cy="604" r="6" class="c0"/>
<circle cx="1650" cy="764" r="6" class="c0"/>
<circle cx="1488" cy="674" r="6" class="c0"/>
<circle cx="1738" cy="736" r="6" class="c0"/>
<circle cx="1326" cy="364" r="6" class="c0"/>
<circle cx="1288" cy="242" r="6" class="c0"/>
<circle cx="1440" cy="716" r="6" class="c0"/>
<circle cx="1736" cy="596" r="6" class="c0"/>
<circle cx="978" cy="662" r="6" class="c0"/>
<circle cx="1304" cy="316" r="6" class="c0"/>
<circle cx="1880" cy="798" r="6" class="c0"/>
<circle cx="1520" cy="642" r="6" class="c0"/>
<circle cx="1774" cy="668" r="6" class="c0"/>
<circle cx="1270" cy="514" r="6" class="c0"/>
<circle cx="918" cy="700" r="6" class="c0"/>
<circle cx="1790" cy="640" r="6" class="c0"/>
<circle cx="1224" cy="648" r="6" class="c0"/>
<circle cx="1726" cy="664" r="6" class="c0"/>
<circle cx="1260" cy="290" r="6" class="c0"/>
<circle cx="1258" cy="468" r="6" class="c0"/>
<circle cx="1176" cy="320" r="6" class="c0"/>
<circle cx="1132" cy="672" r="6" class="c0"/>
<circle cx="952" cy="660" r="6" class="c0"/>
<circle cx="1884" cy="738" r="6" class="c0"/>
<circle cx="1572" cy="618" r="6" class="c0"/>
<circle cx="1838" cy="818" r="6" class="c0"/>
<circle cx="1550" cy="672" r="6" class="c0"/>
<circle cx="1462" cy="758" r="6" class="c0"/>
<circle cx="1182" cy="700" r="6" class="c0"/>
<circle cx="1442" cy="582" r="6" class="c0"/>
<circle cx="1310" cy="442" r="6" class="c0"/>
<circle cx="1720" cy="762" r="6" class="c0"/>
<circle cx="1458" cy="702" r="6" class="c0"/>
<circle cx="1170" cy="366" r="6" class="c0"/>
<circle cx="1436" cy="624" r="6" class="c0"/>
<circle cx="1482" cy="338" r="6" class="c0"/>
<circle cx="1252" cy="664" r="6" class="c0"/>
</svg>
