<?xml version="1.0" encoding="utf-8"?>
<svg xmlns="http://www.w3.org/2000/svg"
     xmlns:xlink="http://www.w3.org/1999/xlink" width="1920" height="1440" >

            <defs>
            <style type="text/css"><![CDATA[
circle {stroke: none;}
.c0 {fill: #FFFFFF;}
]]></style>
            </defs>
<rect x="0" y="0" width="1920" height="1440" fill="black"/>
<circle cx="1442" cy="382" r="12" class="c0"/>
<circle cx="1812" cy="784" r="12" class="c0"/>
<circle cx="1386" cy="260" r="12" class="c0"/>
<circle cx="1876" cy="790" r="12" class="c0"/>
<circle cx="1350" cy="490" r="12" class="c0"/>
<circle cx="1472" cy="608" r="12" class="c0"/>
<circle cx="1804" cy="664" r="12" class="c0"/>
<circle cx="1396" cy="744" r="12" class="c0"/>
<circle cx="1740" cy="656" r="12" class="c0"/>
<circle cx="1386" cy="298" r="12" class="c0"/>
<circle cx="1152" cy="716" r="12" class="c0"/>
<circle cx="968" cy="708" r="12" class="c0"/>
<circle cx="1476" cy="384" r="12" class="c0"/>
<circle cx="1766" cy="766" r="12" class="c0"/>
<circle cx="1852" cy="802" r="12" class="c0"/>
<circle cx="1542" cy="678" r="12" class="c0"/>
<circle cx="1358" cy="446" r="12" class="c0"/>
<circle cx="1302" cy="376" r="12" class="c0"/>
<circle cx="1850" cy="716" r="12" class="c0"/>
<circle cx="1388" cy="582" r="12" class="c0"/>
<circle cx="1872" cy="730" r="12" class="c0"/>
<circle cx="1436" cy="696" r="12" class="c0"/>
<circle cx="1430" cy="470" r="12" class="c0"/>
<circle cx="1230" cy="346" r="12" class="c0"/>
<circle cx="1356" cy="340" r="12" class="c0"/>
<circle cx="1122" cy="766" r="12" class="c0"/>
<circle cx="1566" cy="690" r="12" class="c0"/>
<circle cx="1448" cy="734" r="12" class="c0"/>
<circle cx="1336" cy="738" r="12" class="c0"/>
<circle cx="1524" cy="700" r="12" class="c0"/>
<circle cx="1486" cy="698" r="12" class="c0"/>
<circle cx="1390" cy="654" r="12" class="c0"/>
<circle cx="1378" cy="362" r="12" class="c0"/>
<circle cx="1784" cy="702" r="12" class="c0"/>
<circle cx="1134" cy="742" r="12" class="c0"/>
<circle cx="1654" cy="678" r="12" class="c0"/>
<circle cx="1788" cy="626" r="12" class="c0"/>
<circle cx="1404" cy="418" r="12" class="c0"/>
<circle cx="1464" cy="788" r="12" class="c0"/>
<circle cx="1408" cy="624" r="12" class="c0"/>
<circle cx="1288" cy="450" r="12" class="c0"/>
<circle cx="1358" cy="610" r="12" class="c0"/>
<circle cx="1662" cy="740" r="12" class="c0"/>
<circle cx="1458" cy="474" r="12" class="c0"/>
<circle cx="1888" cy="816" r="10" class="c0"/>
<circle cx="1770" cy="670" r="10" class="c0"/>
<circle cx="1704" cy="718" r="10" class="c0"/>
<circle cx="998" cy="712" r="10" class="c0"/>
<circle cx="1478" cy="732" r="10" class="c0"/>
<circle cx="1292" cy="780" r="10" class="c0"/>
<circle cx="1728" cy="746" r="10" class="c0"/>
<circle cx="1322" cy="720" r="10" class="c0"/>
<circle cx="1372" cy="284" r="10" class="c0"/>
<circle cx="1118" cy="720" r="10" class="c0"/>
<circle cx="1360" cy="686" r="10" class="c0"/>
<circle cx="1830" cy="644" r="10" class="c0"/>
<circle cx="1504" cy="780" r="10" class="c0"/>
<circle cx="1402" cy="686" r="10" class="c0"/>
<circle cx="1408" cy="778" r="10" class="c0"/>
<circle cx="1564" cy="760" r="10" class="c0"/>
<circle cx="1200" cy="726" r="10" class="c0"/>
<circle cx="1742" cy="680" r="10" class="c0"/>
<circle cx="1406" cy="564" r="10" class="c0"/>
<circle cx="1398" cy="494" r="10" class="c0"/>
<circle cx="1796" cy="758" r="10" class="c0"/>
<circle cx="1654" cy="712" r="10" class="c0"/>
<circle cx="1470" cy="658" r="10" class="c0"/>
<circle cx="1908" cy="694" r="10" class="c0"/>
<circle cx="1544" cy="398" r="10" class="c0"/>
<circle cx="1476" cy="758" r="10" class="c0"/>
<circle cx="1366" cy="718" r="10" class="c0"/>
<circle cx="1430" cy="578" r="10" class="c0"/>
<circle cx="1436" cy="776" r="10" class="c0"/>
<circle cx="1386" cy="518" r="10" class="c0"/>
<circle cx="1448" cy="422" r="10" class="c0"/>
<circle cx="1326" cy="408" r="10" class="c0"/>
<circle cx="1288" cy="324" r="10" class="c0"/>
<circle cx="1372" cy="550" r="10" class="c0"/>
<circle cx="1542" cy="530" r="10" class="c0"/>
<circle cx="1622" cy="748" r="10" class="c0"/>
<circle cx="1384" cy="392" r="10" class="c0"/>
<circle cx="1306" cy="664" r="10" class="c0"/>
<circle cx="1832" cy="744" r="10" class="c0"/>
<circle cx="1312" cy="526" r="10" class="c0"/>
<circle cx="1876" cy="644" r="10" class="c0"/>
<circle cx="1514" cy="378" r="10" class="c0"/>
<circle cx="1826" cy="810" r="10" class="c0"/>
<circle cx="1488" cy="456" r="10" class="c0"/>
<circle cx="1530" cy="604" r="10" class="c0"/>
<circle cx="1668" cy="692" r="10" class="c0"/>
<circle cx="1836" cy="780" r="10" class="c0"/>
<circle cx="1168" cy="730" r="10" class="c0"/>
<circle cx="1896" cy="616" r="10" class="c0"/>
<circle cx="1812" cy="730" r="10" class="c0"/>
<circle cx="1636" cy="794" r="10" class="c0"/>
<circle cx="1354" cy="372" r="10" class="c0"/>
<circle cx="1254" cy="326" r="10" class="c0"/>
<circle cx="1234" cy="736" r="10" class="c0"/>
<circle cx="1432" cy="536" r="10" class="c0"/>
<circle cx="1494" cy="848" r="10" class="c0"/>
<circle cx="1428" cy="652" r="10" class="c0"/>
<circle cx="1312" cy="322" r="10" class="c0"/>
<circle cx="1682" cy="800" r="10" class="c0"/>
<circle cx="1504" cy="586" r="10" class="c0"/>
<circle cx="1578" cy="742" r="10" class="c0"/>
<circle cx="1702" cy="784" r="10" class="c0"/>
<circle cx="1618" cy="772" r="10" class="c0"/>
<circle cx="1328" cy="698" r="10" class="c0"/>
<circle cx="1598" cy="698" r="10" class="c0"/>
<circle cx="1354" cy="266" r="10" class="c0"/>
<circle cx="1344" cy="536" r="10" class="c0"/>
<circle cx="1450" cy="710" r="10" class="c0"/>
<circle cx="1252" cy="354" r="10" class="c0"/>
<circle cx="1404" cy="600" r="10" class="c0"/>
<circle cx="1384" cy="612" r="10" class="c0"/>
<circle cx="1312" cy="354" r="10" class="c0"/>
<circle cx="1414" cy="516" r="10" class="c0"/>
<circle cx="1534" cy="740" r="10" class="c0"/>
<circle cx="1264" cy="724" r="10" class="c0"/>
<circle cx="1644" cy="606" r="10" class="c0"/>
<circle cx="1520" cy="558" r="10" class="c0"/>
<circle cx="1840" cy="620" r="10" class="c0"/>
<circle cx="1410" cy="258" r="10" class="c0"/>
<circle cx="1470" cy="816" r="10" class="c0"/>
<circle cx="1428" cy="500" r="10" class="c0"/>
<circle cx="1436" cy="270" r="10" class="c0"/>
<circle cx="1888" cy="670" r="10" class="c0"/>
<circle cx="1378" cy="476" r="10" class="c0"/>
<circle cx="1490" cy="482" r="10" class="c0"/>
<circle cx="1778" cy="730" r="10" class="c0"/>
<circle cx="1502" cy="430" r="10" class="c0"/>
<circle cx="1512" cy="654" r="10" class="c0"/>
<circle cx="1078" cy="728" r="10" class="c0"/>
<circle cx="1412" cy="704" r="10" class="c0"/>
<circle cx="1500" cy="622" r="10" class="c0"/>
<circle cx="1416" cy="668" r="10" class="c0"/>
<circle cx="1468" cy="558" r="10" class="c0"/>
<circle cx="1544" cy="568" r="10" class="c0"/>
<circle cx="1154" cy="784" r="10" class="c0"/>
<circle cx="1342" cy="394" r="10" class="c0"/>
<circle cx="1882" cy="698" r="10" class="c0"/>
<circle cx="1706" cy="674" r="10" class="c0"/>
<circle cx="1330" cy="430" r="10" class="c0"/>
<circle cx="1380" cy="730" r="10" class="c0"/>
<circle cx="1688" cy="764" r="10" class="c0"/>
<circle cx="1326" cy="496" r="10" class="c0"/>
<circle cx="1340" cy="304" r="10" class="c0"/>
<circle cx="1468" cy="280" r="10" class="c0"/>
<circle cx="1492" cy="652" r="8" class="c0"/>
<circle cx="1306" cy="434" r="8" class="c0"/>
<circle cx="1448" cy="644" r="8" class="c0"/>
<circle cx="1550" cy="548" r="8" class="c0"/>
<circle cx="1464" cy="582" r="8" class="c0"/>
<circle cx="1332" cy="280" r="8" class="c0"/>
<circle cx="1522" cy="424" r="8" class="c0"/>
<circle cx="1410" cy="366" r="8" class="c0"/>
<circle cx="1764" cy="798" r="8" class="c0"/>
<circle cx="1382" cy="678" r="8" class="c0"/>
<circle cx="1758" cy="694" r="8" class="c0"/>
<circle cx="1608" cy="614" r="8" class="c0"/>
<circle cx="1586" cy="770" r="8" class="c0"/>
<circle cx="1532" cy="438" r="8" class="c0"/>
<circle cx="1506" cy="674" r="8" class="c0"/>
<circle cx="1784" cy="794" r="8" class="c0"/>
<circle cx="1366" cy="570" r="8" class="c0"/>
<circle cx="1620" cy="660" r="8" class="c0"/>
<circle cx="1434" cy="556" r="8" class="c0"/>
<circle cx="1724" cy="634" r="8" class="c0"/>
<circle cx="1484" cy="362" r="8" class="c0"/>
<circle cx="1262" cy="374" r="8" class="c0"/>
<circle cx="1854" cy="672" r="8" class="c0"/>
<circle cx="1618" cy="718" r="8" class="c0"/>
<circle cx="1674" cy="722" r="8" class="c0"/>
<circle cx="1466" cy="840" r="8" class="c0"/>
<circle cx="1478" cy="426" r="8" class="c0"/>
<circle cx="1758" cy="734" r="8" class="c0"/>
<circle cx="1908" cy="650" r="8" class="c0"/>
<circle cx="1296" cy="470" r="8" class="c0"/>
<circle cx="1674" cy="658" r="8" class="c0"/>
<circle cx="1506" cy="820" r="8" class="c0"/>
<circle cx="1324" cy="460" r="8" class="c0"/>
<circle cx="1288" cy="710" r="8" class="c0"/>
<circle cx="1492" cy="806" r="8" class="c0"/>
<circle cx="1406" cy="458" r="8" class="c0"/>
<circle cx="1280" cy="352" r="8" class="c0"/>
<circle cx="1508" cy="732" r="8" class="c0"/>
<circle cx="1564" cy="660" r="8" class="c0"/>
<circle cx="1622" cy="624" r="8" class="c0"/>
<circle cx="1752" cy="634" r="8" class="c0"/>
<circle cx="1450" cy="616" r="8" class="c0"/>
<circle cx="1818" cy="828" r="8" class="c0"/>
<circle cx="1538" cy="716" r="8" class="c0"/>
<circle cx="1490" cy="414" r="8" class="c0"/>
<circle cx="1566" cy="596" r="8" class="c0"/>
<circle cx="1790" cy="820" r="8" class="c0"/>
<circle cx="1376" cy="632" r="8" class="c0"/>
<circle cx="1374" cy="244" r="8" class="c0"/>
<circle cx="1686" cy="634" r="8" class="c0"/>
<circle cx="1304" cy="690" r="8" class="c0"/>
<circle cx="1604" cy="732" r="8" class="c0"/>
<circle cx="1262" cy="704" r="8" class="c0"/>
<circle cx="1010" cy="740" r="8" class="c0"/>
<circle cx="1566" cy="716" r="8" class="c0"/>
<circle cx="1454" cy="514" r="8" class="c0"/>
<circle cx="1484" cy="588" r="8" class="c0"/>
<circle cx="1822" cy="674" r="8" class="c0"/>
<circle cx="1572" cy="424" r="8" class="c0"/>
<circle cx="1714" cy="796" r="8" class="c0"/>
<circle cx="1540" cy="418" r="8" class="c0"/>
<circle cx="1466" cy="440" r="8" class="c0"/>
<circle cx="1428" cy="612" r="8" class="c0"/>
<circle cx="1500" cy="394" r="8" class="c0"/>
<circle cx="1220" cy="366" r="8" class="c0"/>
<circle cx="1620" cy="686" r="8" class="c0"/>
<circle cx="1496" cy="558" r="8" class="c0"/>
<circle cx="1176" cy="358" r="8" class="c0"/>
<circle cx="1692" cy="688" r="8" class="c0"/>
<circle cx="1824" cy="694" r="8" class="c0"/>
<circle cx="1424" cy="428" r="8" class="c0"/>
<circle cx="1586" cy="604" r="8" class="c0"/>
<circle cx="1640" cy="774" r="8" class="c0"/>
<circle cx="1270" cy="462" r="8" class="c0"/>
<circle cx="1874" cy="612" r="8" class="c0"/>
<circle cx="1272" cy="384" r="8" class="c0"/>
<circle cx="1808" cy="818" r="8" class="c0"/>
<circle cx="1712" cy="758" r="8" class="c0"/>
<circle cx="1064" cy="704" r="8" class="c0"/>
<circle cx="1324" cy="644" r="8" class="c0"/>
<circle cx="1356" cy="660" r="8" class="c0"/>
<circle cx="1806" cy="688" r="8" class="c0"/>
<circle cx="1044" cy="730" r="8" class="c0"/>
<circle cx="1384" cy="538" r="8" class="c0"/>
<circle cx="1422" cy="400" r="8" class="c0"/>
<circle cx="1584" cy="680" r="8" class="c0"/>
<circle cx="1204" cy="356" r="8" class="c0"/>
<circle cx="1402" cy="332" r="8" class="c0"/>
<circle cx="1016" cy="704" r="8" class="c0"/>
<circle cx="1372" cy="502" r="8" class="c0"/>
<circle cx="1450" cy="592" r="8" class="c0"/>
<circle cx="1906" cy="852" r="8" class="c0"/>
<circle cx="1902" cy="794" r="8" class="c0"/>
<circle cx="1428" cy="744" r="8" class="c0"/>
<circle cx="1498" cy="754" r="8" class="c0"/>
<circle cx="1428" cy="716" r="8" class="c0"/>
<circle cx="1338" cy="682" r="8" class="c0"/>
<circle cx="1762" cy="652" r="8" class="c0"/>
<circle cx="1840" cy="660" r="8" class="c0"/>
<circle cx="1906" cy="746" r="8" class="c0"/>
<circle cx="1780" cy="654" r="8" class="c0"/>
<circle cx="1344" cy="466" r="8" class="c0"/>
<circle cx="1856" cy="756" r="8" class="c0"/>
<circle cx="1742" cy="802" r="8" class="c0"/>
<circle cx="1384" cy="454" r="8" class="c0"/>
<circle cx="1324" cy="384" r="8" class="c0"/>
<circle cx="1460" cy="688" r="8" class="c0"/>
<circle cx="1860" cy="634" r="8" class="c0"/>
<circle cx="1540" cy="654" r="8" class="c0"/>
<circle cx="1522" cy="756" r="8" class="c0"/>
<circle cx="1740" cy="766" r="8" class="c0"/>
<circle cx="1094" cy="744" r="8" class="c0"/>
<circle cx="1458" cy="360" r="8" class="c0"/>
<circle cx="1600" cy="670" r="8" class="c0"/>
<circle cx="1276" cy="744" r="8" class="c0"/>
<circle cx="1660" cy="786" r="8" class="c0"/>
<circle cx="1770" cy="818" r="8" class="c0"/>
<circle cx="1364" cy="526" r="8" class="c0"/>
<circle cx="1884" cy="750" r="8" class="c0"/>
<circle cx="1718" cy="730" r="8" class="c0"/>
<circle cx="1296" cy="728" r="8" class="c0"/>
<circle cx="1564" cy="536" r="8" class="c0"/>
<circle cx="1750" cy="780" r="8" class="c0"/>
<circle cx="1684" cy="744" r="8" class="c0"/>
<circle cx="1466" cy="636" r="8" class="c0"/>
<circle cx="1304" cy="498" r="8" class="c0"/>
<circle cx="1726" cy="782" r="8" class="c0"/>
<circle cx="1764" cy="624" r="8" class="c0"/>
<circle cx="1334" cy="616" r="8" class="c0"/>
<circle cx="1368" cy="410" r="8" class="c0"/>
<circle cx="1556" cy="728" r="8" class="c0"/>
<circle cx="1740" cy="702" r="8" class="c0"/>
<circle cx="1350" cy="288" r="8" class="c0"/>
<circle cx="1364" cy="768" r="8" class="c0"/>
<circle cx="1392" cy="708" r="8" class="c0"/>
<circle cx="1182" cy="716" r="8" class="c0"/>
<circle cx="1350" cy="514" r="8" class="c0"/>
<circle cx="1306" cy="300" r="8" class="c0"/>
<circle cx="1862" cy="656" r="8" class="c0"/>
<circle cx="1330" cy="336" r="8" class="c0"/>
<circle cx="1906" cy="722" r="8" class="c0"/>
<circle cx="1816" cy="628" r="8" class="c0"/>
<circle cx="1720" cy="692" r="8" class="c0"/>
<circle cx="1316" cy="272" r="8" class="c0"/>
<circle cx="1522" cy="400" r="8" class="c0"/>
<circle cx="1302" cy="556" r="8" class="c0"/>
<circle cx="1354" cy="752" r="8" class="c0"/>
<circle cx="1360" cy="588" r="8" class="c0"/>
<circle cx="1096" cy="718" r="8" class="c0"/>
<circle cx="1634" cy="710" r="8" class="c0"/>
<circle cx="1668" cy="632" r="8" class="c0"/>
<circle cx="1862" cy="830" r="8" class="c0"/>
<circle cx="1326" cy="780" r="8" class="c0"/>
<circle cx="1370" cy="312" r="8" class="c0"/>
<circle cx="1466" cy="414" r="8" class="c0"/>
<circle cx="1400" cy="276" r="8" class="c0"/>
<circle cx="1384" cy="326" r="8" class="c0"/>
<circle cx="1530" cy="580" r="8" class="c0"/>
<circle cx="1380" cy="436" r="8" class="c0"/>
<circle cx="1910" cy="830" r="8" class="c0"/>
<circle cx="1564" cy="558" r="8" class="c0"/>
<circle cx="1198" cy="318" r="8" class="c0"/>
<circle cx="1402" cy="384" r="8" class="c0"/>
<circle cx="1440" cy="450" r="8" class="c0"/>
<circle cx="1704" cy="806" r="8" class="c0"/>
<circle cx="1390" cy="766" r="8" class="c0"/>
<circle cx="1318" cy="548" r="8" class="c0"/>
<circle cx="1344" cy="716" r="8" class="c0"/>
<circle cx="1054" cy="718" r="8" class="c0"/>
<circle cx="1506" cy="862" r="8" class="c0"/>
<circle cx="1450" cy="572" r="8" class="c0"/>
<circle cx="1880" cy="846" r="8" class="c0"/>
<circle cx="1440" cy="354" r="8" class="c0"/>
<circle cx="1628" cy="728" r="8" class="c0"/>
<circle cx="1022" cy="726" r="8" class="c0"/>
<circle cx="1806" cy="638" r="8" class="c0"/>
<circle cx="1410" cy="540" r="8" class="c0"/>
<circle cx="1552" cy="704" r="8" class="c0"/>
<circle cx="1798" cy="804" r="8" class="c0"/>
<circle cx="1588" cy="722" r="8" class="c0"/>
<circle cx="1332" cy="524" r="8" class="c0"/>
<circle cx="1540" cy="768" r="8" class="c0"/>
<circle cx="1626" cy="596" r="8" class="c0"/>
<circle cx="1894" cy="770" r="8" class="c0"/>
<circle cx="1360" cy="298" r="8" class="c0"/>
<circle cx="1312" cy="396" r="8" class="c0"/>
<circle cx="1550" cy="588" r="8" class="c0"/>
<circle cx="1518" cy="722" r="8" class="c0"/>
<circle cx="1452" cy="762" r="8" class="c0"/>
<circle cx="1524" cy="828" r="8" class="c0"/>
<circle cx="1740" cy="722" r="8" class="c0"/>
<circle cx="1318" cy="748" r="8" class="c0"/>
<circle cx="942" cy="708" r="8" class="c0"/>
<circle cx="1300" cy="412" r="8" class="c0"/>
<circle cx="1522" cy="638" r="8" class="c0"/>
<circle cx="1702" cy="652" r="8" class="c0"/>
<circle cx="1648" cy="634" r="8" class="c0"/>
<circle cx="1684" cy="670" r="8" class="c0"/>
<circle cx="1328" cy="758" r="8" class="c0"/>
<circle cx="1446" cy="662" r="8" class="c0"/>
<circle cx="1390" cy="344" r="8" class="c0"/>
<circle cx="1070" cy="748" r="8" class="c0"/>
<circle cx="1270" cy="340" r="8" class="c0"/>
<circle cx="1518" cy="802" r="8" class="c0"/>
<circle cx="1342" cy="770" r="8" class="c0"/>
<circle cx="1556" cy="436" r="8" class="c0"/>
<circle cx="1598" cy="750" r="8" class="c0"/>
<circle cx="1450" cy="812" r="8" class="c0"/>
<circle cx="1834" cy="704" r="8" class="c0"/>
<circle cx="1270" cy="314" r="8" class="c0"/>
<circle cx="1222" cy="714" r="8" class="c0"/>
<circle cx="1416" cy="344" r="8" class="c0"/>
<circle cx="1340" cy="356" r="8" class="c0"/>
<circle cx="1860" cy="776" r="8" class="c0"/>
<circle cx="1462" cy="532" r="8" class="c0"/>
<circle cx="1520" cy="536" r="8" class="c0"/>
<circle cx="1296" cy="756" r="8" class="c0"/>
<circle cx="1414" cy="726" r="8" class="c0"/>
<circle cx="1554" cy="610" r="8" class="c0"/>
<circle cx="1820" cy="762" r="8" class="c0"/>
<circle cx="1872" cy="764" r="8" class="c0"/>
<circle cx="1288" cy="394" r="8" class="c0"/>
<circle cx="1842" cy="830" r="8" class="c0"/>
<circle cx="1646" cy="752" r="8" class="c0"/>
<circle cx="1484" cy="568" r="8" class="c0"/>
<circle cx="1724" cy="710" r="8" class="c0"/>
<circle cx="984" cy="726" r="8" class="c0"/>
<circle cx="1514" cy="454" r="8" class="c0"/>
<circle cx="1344" cy="626" r="8" class="c0"/>
<circle cx="1686" cy="708" r="8" class="c0"/>
<circle cx="1242" cy="718" r="8" class="c0"/>
<circle cx="1314" cy="474" r="8" class="c0"/>
<circle cx="1896" cy="712" r="8" class="c0"/>
<circle cx="1212" cy="738" r="8" class="c0"/>
<circle cx="1306" cy="738" r="8" class="c0"/>
<circle cx="1340" cy="326" r="8" class="c0"/>
<circle cx="1282" cy="688" r="8" class="c0"/>
<circle cx="1342" cy="254" r="8" class="c0"/>
<circle cx="1352" cy="424" r="8" class="c0"/>
<circle cx="1708" cy="740" r="8" class="c0"/>
<circle cx="1240" cy="366" r="8" class="c0"/>
<circle cx="1502" cy="714" r="8" class="c0"/>
<circle cx="1422" cy="448" r="8" class="c0"/>
<circle cx="1810" cy="706" r="8" class="c0"/>
<circle cx="1326" cy="366" r="8" class="c0"/>
<circle cx="1034" cy="744" r="8" class="c0"/>
<circle cx="1288" cy="424" r="8" class="c0"/>
<circle cx="1346" cy="562" r="8" class="c0"/>
<circle cx="1272" cy="434" r="8" class="c0"/>
<circle cx="1432" cy="410" r="8" class="c0"/>
<circle cx="1910" cy="672" r="8" class="c0"/>
<circle cx="1584" cy="658" r="8" class="c0"/>
<circle cx="1300" cy="342" r="8" class="c0"/>
<circle cx="1846" cy="694" r="8" class="c0"/>
<circle cx="1394" cy="548" r="8" class="c0"/>
<circle cx="952" cy="720" r="8" class="c0"/>
<circle cx="1328" cy="670" r="8" class="c0"/>
<circle cx="1418" cy="758" r="8" class="c0"/>
<circle cx="1216" cy="332" r="8" class="c0"/>
<circle cx="1676" cy="778" r="8" class="c0"/>
<circle cx="1788" cy="678" r="8" class="c0"/>
<circle cx="1562" cy="406" r="8" class="c0"/>
<circle cx="1396" cy="242" r="6" class="c0"/>
<circle cx="1086" cy="758" r="6" class="c0"/>
<circle cx="1906" cy="634" r="6" class="c0"/>
<circle cx="1038" cy="704" r="6" class="c0"/>
<circle cx="1310" cy="706" r="6" class="c0"/>
<circle cx="1400" cy="354" r="6" class="c0"/>
<circle cx="1838" cy="762" r="6" class="c0"/>
<circle cx="1310" cy="784" r="6" class="c0"/>
<circle cx="1314" cy="770" r="6" class="c0"/>
<circle cx="1664" cy="802" r="6" class="c0"/>
<circle cx="1588" cy="620" r="6" class="c0"/>
<circle cx="1298" cy="538" r="6" class="c0"/>
<circle cx="1664" cy="760" r="6" class="c0"/>
<circle cx="1892" cy="734" r="6" class="c0"/>
<circle cx="1864" cy="696" r="6" class="c0"/>
<circle cx="1392" cy="374" r="6" class="c0"/>
<circle cx="1114" cy="746" r="6" class="c0"/>
<circle cx="1366" cy="648" r="6" class="c0"/>
<circle cx="1286" cy="306" r="6" class="c0"/>
<circle cx="1358" cy="246" r="6" class="c0"/>
<circle cx="1728" cy="814" r="6" class="c0"/>
<circle cx="1866" cy="814" r="6" class="c0"/>
<circle cx="1760" cy="716" r="6" class="c0"/>
<circle cx="1440" cy="630" r="6" class="c0"/>
<circle cx="1410" cy="478" r="6" class="c0"/>
<circle cx="1642" cy="662" r="6" class="c0"/>
<circle cx="1596" cy="594" r="6" class="c0"/>
<circle cx="1870" cy="682" r="6" class="c0"/>
<circle cx="1646" cy="730" r="6" class="c0"/>
<circle cx="1726" cy="670" r="6" class="c0"/>
<circle cx="1906" cy="810" r="6" class="c0"/>
<circle cx="1406" cy="302" r="6" class="c0"/>
<circle cx="1348" cy="578" r="6" class="c0"/>
<circle cx="1514" cy="848" r="6" class="c0"/>
<circle cx="952" cy="698" r="6" class="c0"/>
<circle cx="1458" cy="400" r="6" class="c0"/>
<circle cx="1104" cy="758" r="6" class="c0"/>
<circle cx="1384" cy="412" r="6" class="c0"/>
<circle cx="1848" cy="646" r="6" class="c0"/>
<circle cx="1748" cy="752" r="6" class="c0"/>
<circle cx="1314" cy="508" r="6" class="c0"/>
<circle cx="1498" cy="500" r="6" class="c0"/>
<circle cx="1546" cy="446" r="6" class="c0"/>
<circle cx="1462" cy="746" r="6" class="c0"/>
<circle cx="1428" cy="370" r="6" class="c0"/>
<circle cx="1476" cy="676" r="6" class="c0"/>
<circle cx="1912" cy="776" r="6" class="c0"/>
<circle cx="1434" cy="518" r="6" class="c0"/>
<circle cx="1852" cy="608" r="6" class="c0"/>
<circle cx="1456" cy="828" r="6" class="c0"/>
<circle cx="1322" cy="626" r="6" class="c0"/>
<circle cx="1324" cy="294" r="6" class="c0"/>
<circle cx="1886" cy="630" r="6" class="c0"/>
<circle cx="1192" cy="302" r="6" class="c0"/>
<circle cx="1374" cy="750" r="6" class="c0"/>
<circle cx="1346" cy="696" r="6" class="c0"/>
<circle cx="1414" cy="586" r="6" class="c0"/>
<circle cx="1718" cy="654" r="6" class="c0"/>
<circle cx="1364" cy="388" r="6" class="c0"/>
<circle cx="1372" cy="664" r="6" class="c0"/>
<circle cx="1454" cy="548" r="6" class="c0"/>
<circle cx="1480" cy="628" r="6" class="c0"/>
<circle cx="1448" cy="678" r="6" class="c0"/>
<circle cx="1464" cy="722" r="6" class="c0"/>
<circle cx="1060" cy="734" r="6" class="c0"/>
<circle cx="1780" cy="748" r="6" class="c0"/>
<circle cx="1642" cy="696" r="6" class="c0"/>
<circle cx="1374" cy="598" r="6" class="c0"/>
<circle cx="1378" cy="778" r="6" class="c0"/>
<circle cx="1434" cy="674" r="6" class="c0"/>
<circle cx="1522" cy="680" r="6" class="c0"/>
<circle cx="1658" cy="590" r="6" class="c0"/>
<circle cx="1894" cy="838" r="6" class="c0"/>
<circle cx="1338" cy="600" r="6" class="c0"/>
<circle cx="1352" cy="782" r="6" class="c0"/>
<circle cx="1512" cy="410" r="6" class="c0"/>
<circle cx="1334" cy="478" r="6" class="c0"/>
<circle cx="1446" cy="492" r="6" class="c0"/>
<circle cx="1356" cy="732" r="6" class="c0"/>
<circle cx="1420" cy="384" r="6" class="c0"/>
<circle cx="1522" cy="774" r="6" class="c0"/>
<circle cx="1650" cy="650" r="6" class="c0"/>
<circle cx="1800" cy="716" r="6" class="c0"/>
<circle cx="1482" cy="832" r="6" class="c0"/>
<circle cx="1376" cy="704" r="6" class="c0"/>
<circle cx="1336" cy="552" r="6" class="c0"/>
<circle cx="1658" cy="620" r="6" class="c0"/>
<circle cx="1752" cy="814" r="6" class="c0"/>
<circle cx="1426" cy="596" r="6" class="c0"/>
<circle cx="1850" cy="738" r="6" class="c0"/>
<circle cx="1000" cy="730" r="6" class="c0"/>
<circle cx="1708" cy="636" r="6" class="c0"/>
<circle cx="1902" cy="868" r="6" class="c0"/>
<circle cx="1836" cy="684" r="6" class="c0"/>
<circle cx="1782" cy="776" r="6" class="c0"/>
<circle cx="1400" cy="316" r="6" class="c0"/>
<circle cx="1282" cy="372" r="6" class="c0"/>
<circle cx="1818" cy="612" r="6" class="c0"/>
<circle cx="1484" cy="774" r="6" class="c0"/>
<circle cx="1502" cy="366" r="6" class="c0"/>
<circle cx="1032" cy="716" r="6" class="c0"/>
<circle cx="1314" cy="450" r="6" class="c0"/>
<circle cx="1192" cy="346" r="6" class="c0"/>
<circle cx="1470" cy="858" r="6" class="c0"/>
<circle cx="1488" cy="668" r="6" class="c0"/>
<circle cx="1630" cy="674" r="6" class="c0"/>
<circle cx="1256" cy="744" r="6" class="c0"/>
<circle cx="1426" cy="634" r="6" class="c0"/>
<circle cx="1356" cy="704" r="6" class="c0"/>
<circle cx="1598" cy="780" r="6" class="c0"/>
<circle cx="1384" cy="694" r="6" class="c0"/>
<circle cx="1522" cy="858" r="6" class="c0"/>
<circle cx="1582" cy="706" r="6" class="c0"/>
<circle cx="1438" cy="602" r="6" class="c0"/>
<circle cx="1134" cy="780" r="6" class="c0"/>
<circle cx="1566" cy="574" r="6" class="c0"/>
<circle cx="1354" cy="314" r="6" class="c0"/>
<circle cx="1476" cy="714" r="6" class="c0"/>
<circle cx="1336" cy="448" r="6" class="c0"/>
<circle cx="1834" cy="726" r="6" class="c0"/>
<circle cx="1184" cy="738" r="6" class="c0"/>
<circle cx="1794" cy="738" r="6" class="c0"/>
<circle cx="1616" cy="702" r="6" class="c0"/>
<circle cx="1408" cy="646" r="6" class="c0"/>
<circle cx="1082" cy="708" r="6" class="c0"/>
<circle cx="1610" cy="592" r="6" class="c0"/>
<circle cx="1692" cy="730" r="6" class="c0"/>
<circle cx="1484" cy="792" r="6" class="c0"/>
<circle cx="1360" cy="468" r="6" class="c0"/>
<circle cx="1398" cy="440" r="6" class="c0"/>
<circle cx="1552" cy="746" r="6" class="c0"/>
<circle cx="1534" cy="546" r="6" class="c0"/>
<circle cx="1494" cy="376" r="6" class="c0"/>
<circle cx="1444" cy="794" r="6" class="c0"/>
<circle cx="1290" cy="362" r="6" class="c0"/>
<circle cx="1702" cy="698" r="6" class="c0"/>
<circle cx="1448" cy="282" r="6" class="c0"/>
<circle cx="1528" cy="666" r="6" class="c0"/>
<circle cx="1804" cy="616" r="6" class="c0"/>
<circle cx="1468" cy="706" r="6" class="c0"/>
<circle cx="1468" cy="458" r="6" class="c0"/>
<circle cx="1314" cy="420" r="6" class="c0"/>
<circle cx="986" cy="700" r="6" class="c0"/>
<circle cx="1656" cy="770" r="6" class="c0"/>
<circle cx="1008" cy="756" r="6" class="c0"/>
<circle cx="1576" cy="614" r="6" class="c0"/>
<circle cx="1508" cy="836" r="6" class="c0"/>
<circle cx="1502" cy="542" r="6" class="c0"/>
<circle cx="1456" cy="452" r="6" class="c0"/>
<circle cx="1572" cy="520" r="6" class="c0"/>
<circle cx="1894" cy="640" r="6" class="c0"/>
<circle cx="1292" cy="676" r="6" class="c0"/>
<circle cx="1392" cy="634" r="6" class="c0"/>
<circle cx="1494" cy="600" r="6" class="c0"/>
<circle cx="1306" cy="458" r="6" class="c0"/>
<circle cx="1508" cy="470" r="6" class="c0"/>
<circle cx="1366" cy="740" r="6" class="c0"/>
<circle cx="1104" cy="732" r="6" class="c0"/>
<circle cx="1412" cy="438" r="6" class="c0"/>
<circle cx="1418" cy="486" r="6" class="c0"/>
<circle cx="1326" cy="262" r="6" class="c0"/>
<circle cx="1910" cy="762" r="6" class="c0"/>
<circle cx="1300" cy="514" r="6" class="c0"/>
<circle cx="1506" cy="568" r="6" class="c0"/>
<circle cx="1480" cy="404" r="6" class="c0"/>
<circle cx="1616" cy="792" r="6" class="c0"/>
<circle cx="1418" cy="276" r="6" class="c0"/>
<circle cx="1278" cy="476" r="6" class="c0"/>
<circle cx="1496" cy="830" r="6" class="c0"/>
<circle cx="1774" cy="784" r="6" class="c0"/>
<circle cx="1394" cy="468" r="6" class="c0"/>
<circle cx="1478" cy="470" r="6" class="c0"/>
<circle cx="1262" cy="446" r="6" class="c0"/>
<circle cx="1304" cy="284" r="6" class="c0"/>
<circle cx="1674" cy="616" r="6" class="c0"/>
<circle cx="1400" cy="528" r="6" class="c0"/>
<circle cx="1544" cy="620" r="6" class="c0"/>
<circle cx="1106" cy="706" r="6" class="c0"/>
<circle cx="1810" cy="748" r="6" class="c0"/>
<circle cx="1638" cy="738" r="6" class="c0"/>
<circle cx="1488" cy="636" r="6" class="c0"/>
<circle cx="1556" cy="646" r="6" class="c0"/>
<circle cx="1852" cy="840" r="6" class="c0"/>
<circle cx="1574" cy="670" r="6" class="c0"/>
<circle cx="1574" cy="546" r="6" class="c0"/>
<circle cx="1486" cy="282" r="6" class="c0"/>
<circle cx="1460" cy="494" r="6" class="c0"/>
<circle cx="1316" cy="680" r="6" class="c0"/>
<circle cx="1504" cy="690" r="6" class="c0"/>
<circle cx="1890" cy="856" r="6" class="c0"/>
<circle cx="1132" cy="710" r="6" class="c0"/>
<circle cx="1912" cy="608" r="6" class="c0"/>
<circle cx="1370" cy="426" r="6" class="c0"/>
<circle cx="1184" cy="310" r="6" class="c0"/>
<circle cx="1826" cy="718" r="6" class="c0"/>
<circle cx="1556" cy="520" r="6" class="c0"/>
<circle cx="1774" cy="638" r="6" class="c0"/>
<circle cx="1538" cy="636" r="6" class="c0"/>
<circle cx="1322" cy="308" r="6" class="c0"/>
<circle cx="1502" cy="640" r="6" class="c0"/>
<circle cx="1484" cy="862" r="6" class="c0"/>
<circle cx="1438" cy="754" r="6" class="c0"/>
<circle cx="1398" cy="724" r="6" class="c0"/>
<circle cx="1384" cy="562" r="6" class="c0"/>
<circle cx="1870" cy="710" r="6" class="c0"/>
<circle cx="1340" cy="642" r="6" class="c0"/>
</svg>
