<?xml version="1.0" encoding="utf-8"?>
<svg xmlns="http://www.w3.org/2000/svg"
     xmlns:xlink="http://www.w3.org/1999/xlink" width="1920" height="1440" >

            <defs>
            <style type="text/css"><![CDATA[
circle {stroke: none;}
.c0 {fill: #FFFFFF;}
]]></style>
            </defs>
<rect x="0" y="0" width="1920" height="1440" fill="black"/>
<circle cx="1376" cy="620" r="14" class="c0"/>
<circle cx="1296" cy="730" r="12" class="c0"/>
<circle cx="1382" cy="670" r="12" class="c0"/>
<circle cx="1848" cy="704" r="12" class="c0"/>
<circle cx="1724" cy="806" r="12" class="c0"/>
<circle cx="1446" cy="376" r="12" class="c0"/>
<circle cx="1302" cy="386" r="12" class="c0"/>
<circle cx="1382" cy="384" r="12" class="c0"/>
<circle cx="1680" cy="674" r="12" class="c0"/>
<circle cx="1320" cy="530" r="12" class="c0"/>
<circle cx="1722" cy="662" r="12" class="c0"/>
<circle cx="1220" cy="348" r="12" class="c0"/>
<circle cx="1490" cy="444" r="12" class="c0"/>
<circle cx="1374" cy="264" r="12" class="c0"/>
<circle cx="1444" cy="590" r="12" class="c0"/>
<circle cx="1132" cy="730" r="12" class="c0"/>
<circle cx="1346" cy="502" r="12" class="c0"/>
<circle cx="1418" cy="428" r="12" class="c0"/>
<circle cx="1406" cy="394" r="12" class="c0"/>
<circle cx="1590" cy="752" r="12" class="c0"/>
<circle cx="1750" cy="782" r="12" class="c0"/>
<circle cx="1334" cy="456" r="12" class="c0"/>
<circle cx="1420" cy="736" r="12" class="c0"/>
<circle cx="1464" cy="852" r="12" class="c0"/>
<circle cx="1480" cy="718" r="12" class="c0"/>
<circle cx="1770" cy="660" r="12" class="c0"/>
<circle cx="1134" cy="762" r="12" class="c0"/>
<circle cx="1386" cy="292" r="12" class="c0"/>
<circle cx="1352" cy="776" r="12" class="c0"/>
<circle cx="1486" cy="600" r="12" class="c0"/>
<circle cx="1270" cy="346" r="12" class="c0"/>
<circle cx="1416" cy="626" r="12" class="c0"/>
<circle cx="1222" cy="736" r="12" class="c0"/>
<circle cx="1484" cy="662" r="12" class="c0"/>
<circle cx="1370" cy="456" r="12" class="c0"/>
<circle cx="1478" cy="770" r="12" class="c0"/>
<circle cx="1246" cy="360" r="12" class="c0"/>
<circle cx="1396" cy="522" r="12" class="c0"/>
<circle cx="1464" cy="752" r="12" class="c0"/>
<circle cx="1318" cy="484" r="12" class="c0"/>
<circle cx="1408" cy="342" r="12" class="c0"/>
<circle cx="1002" cy="728" r="12" class="c0"/>
<circle cx="1820" cy="822" r="12" class="c0"/>
<circle cx="1754" cy="704" r="12" class="c0"/>
<circle cx="1876" cy="624" r="10" class="c0"/>
<circle cx="1588" cy="726" r="10" class="c0"/>
<circle cx="1546" cy="734" r="10" class="c0"/>
<circle cx="1504" cy="804" r="10" class="c0"/>
<circle cx="1468" cy="616" r="10" class="c0"/>
<circle cx="1624" cy="678" r="10" class="c0"/>
<circle cx="1638" cy="648" r="10" class="c0"/>
<circle cx="1848" cy="646" r="10" class="c0"/>
<circle cx="1666" cy="688" r="10" class="c0"/>
<circle cx="1658" cy="798" r="10" class="c0"/>
<circle cx="1104" cy="730" r="10" class="c0"/>
<circle cx="1880" cy="708" r="10" class="c0"/>
<circle cx="1832" cy="634" r="10" class="c0"/>
<circle cx="1332" cy="684" r="10" class="c0"/>
<circle cx="1312" cy="784" r="10" class="c0"/>
<circle cx="1532" cy="764" r="10" class="c0"/>
<circle cx="1370" cy="548" r="10" class="c0"/>
<circle cx="1774" cy="770" r="10" class="c0"/>
<circle cx="1776" cy="818" r="10" class="c0"/>
<circle cx="1662" cy="746" r="10" class="c0"/>
<circle cx="1484" cy="374" r="10" class="c0"/>
<circle cx="1334" cy="384" r="10" class="c0"/>
<circle cx="1512" cy="382" r="10" class="c0"/>
<circle cx="1456" cy="282" r="10" class="c0"/>
<circle cx="1446" cy="718" r="10" class="c0"/>
<circle cx="1600" cy="696" r="10" class="c0"/>
<circle cx="1304" cy="562" r="10" class="c0"/>
<circle cx="1480" cy="576" r="10" class="c0"/>
<circle cx="1650" cy="710" r="10" class="c0"/>
<circle cx="1872" cy="842" r="10" class="c0"/>
<circle cx="1698" cy="776" r="10" class="c0"/>
<circle cx="1908" cy="732" r="10" class="c0"/>
<circle cx="1550" cy="556" r="10" class="c0"/>
<circle cx="1862" cy="814" r="10" class="c0"/>
<circle cx="1608" cy="786" r="10" class="c0"/>
<circle cx="1380" cy="768" r="10" class="c0"/>
<circle cx="1548" cy="584" r="10" class="c0"/>
<circle cx="1054" cy="724" r="10" class="c0"/>
<circle cx="1828" cy="844" r="10" class="c0"/>
<circle cx="1368" cy="414" r="10" class="c0"/>
<circle cx="1328" cy="278" r="10" class="c0"/>
<circle cx="1322" cy="710" r="10" class="c0"/>
<circle cx="1318" cy="328" r="10" class="c0"/>
<circle cx="1690" cy="732" r="10" class="c0"/>
<circle cx="1346" cy="302" r="10" class="c0"/>
<circle cx="1808" cy="662" r="10" class="c0"/>
<circle cx="1906" cy="628" r="10" class="c0"/>
<circle cx="1338" cy="410" r="10" class="c0"/>
<circle cx="1466" cy="644" r="10" class="c0"/>
<circle cx="1870" cy="660" r="10" class="c0"/>
<circle cx="1084" cy="720" r="10" class="c0"/>
<circle cx="1586" cy="682" r="10" class="c0"/>
<circle cx="1450" cy="694" r="10" class="c0"/>
<circle cx="1562" cy="716" r="10" class="c0"/>
<circle cx="1474" cy="404" r="10" class="c0"/>
<circle cx="1882" cy="794" r="10" class="c0"/>
<circle cx="1830" cy="794" r="10" class="c0"/>
<circle cx="1336" cy="350" r="10" class="c0"/>
<circle cx="1662" cy="650" r="10" class="c0"/>
<circle cx="1342" cy="754" r="10" class="c0"/>
<circle cx="1450" cy="444" r="10" class="c0"/>
<circle cx="1836" cy="726" r="10" class="c0"/>
<circle cx="1356" cy="598" r="10" class="c0"/>
<circle cx="1872" cy="754" r="10" class="c0"/>
<circle cx="1582" cy="612" r="10" class="c0"/>
<circle cx="1420" cy="656" r="10" class="c0"/>
<circle cx="1440" cy="466" r="10" class="c0"/>
<circle cx="1676" cy="810" r="10" class="c0"/>
<circle cx="1536" cy="462" r="10" class="c0"/>
<circle cx="1432" cy="764" r="10" class="c0"/>
<circle cx="1484" cy="842" r="10" class="c0"/>
<circle cx="1544" cy="426" r="10" class="c0"/>
<circle cx="1428" cy="698" r="10" class="c0"/>
<circle cx="1710" cy="722" r="10" class="c0"/>
<circle cx="1510" cy="574" r="10" class="c0"/>
<circle cx="1104" cy="760" r="10" class="c0"/>
<circle cx="1556" cy="450" r="10" class="c0"/>
<circle cx="1318" cy="752" r="10" class="c0"/>
<circle cx="1838" cy="678" r="10" class="c0"/>
<circle cx="1308" cy="306" r="10" class="c0"/>
<circle cx="1534" cy="680" r="10" class="c0"/>
<circle cx="1826" cy="760" r="10" class="c0"/>
<circle cx="1856" cy="766" r="10" class="c0"/>
<circle cx="1438" cy="554" r="10" class="c0"/>
<circle cx="1898" cy="678" r="10" class="c0"/>
<circle cx="1592" cy="630" r="10" class="c0"/>
<circle cx="1396" cy="580" r="10" class="c0"/>
<circle cx="1324" cy="364" r="10" class="c0"/>
<circle cx="1534" cy="544" r="10" class="c0"/>
<circle cx="1790" cy="796" r="10" class="c0"/>
<circle cx="1630" cy="748" r="10" class="c0"/>
<circle cx="1366" cy="348" r="10" class="c0"/>
<circle cx="1422" cy="532" r="10" class="c0"/>
<circle cx="1902" cy="836" r="10" class="c0"/>
<circle cx="1536" cy="716" r="10" class="c0"/>
<circle cx="1364" cy="734" r="10" class="c0"/>
<circle cx="1454" cy="630" r="10" class="c0"/>
<circle cx="1298" cy="766" r="10" class="c0"/>
<circle cx="1426" cy="576" r="10" class="c0"/>
<circle cx="1416" cy="556" r="10" class="c0"/>
<circle cx="1634" cy="798" r="10" class="c0"/>
<circle cx="1450" cy="666" r="10" class="c0"/>
<circle cx="1466" cy="562" r="10" class="c0"/>
<circle cx="1356" cy="690" r="10" class="c0"/>
<circle cx="1288" cy="792" r="10" class="c0"/>
<circle cx="1788" cy="756" r="10" class="c0"/>
<circle cx="1294" cy="696" r="10" class="c0"/>
<circle cx="1644" cy="770" r="10" class="c0"/>
<circle cx="1406" cy="262" r="10" class="c0"/>
<circle cx="1380" cy="492" r="10" class="c0"/>
<circle cx="1390" cy="328" r="10" class="c0"/>
<circle cx="1730" cy="688" r="10" class="c0"/>
<circle cx="1652" cy="670" r="10" class="c0"/>
<circle cx="1374" cy="574" r="10" class="c0"/>
<circle cx="1334" cy="644" r="10" class="c0"/>
<circle cx="1524" cy="434" r="10" class="c0"/>
<circle cx="1462" cy="826" r="10" class="c0"/>
<circle cx="1414" cy="502" r="10" class="c0"/>
<circle cx="1324" cy="422" r="10" class="c0"/>
<circle cx="1302" cy="464" r="10" class="c0"/>
<circle cx="1430" cy="396" r="10" class="c0"/>
<circle cx="1508" cy="552" r="10" class="c0"/>
<circle cx="1786" cy="680" r="8" class="c0"/>
<circle cx="1570" cy="742" r="8" class="c0"/>
<circle cx="1306" cy="348" r="8" class="c0"/>
<circle cx="1278" cy="448" r="8" class="c0"/>
<circle cx="1492" cy="636" r="8" class="c0"/>
<circle cx="1282" cy="744" r="8" class="c0"/>
<circle cx="1798" cy="836" r="8" class="c0"/>
<circle cx="1474" cy="802" r="8" class="c0"/>
<circle cx="1554" cy="662" r="8" class="c0"/>
<circle cx="1414" cy="460" r="8" class="c0"/>
<circle cx="1878" cy="728" r="8" class="c0"/>
<circle cx="1808" cy="706" r="8" class="c0"/>
<circle cx="1516" cy="860" r="8" class="c0"/>
<circle cx="1472" cy="694" r="8" class="c0"/>
<circle cx="1440" cy="512" r="8" class="c0"/>
<circle cx="1296" cy="434" r="8" class="c0"/>
<circle cx="1488" cy="480" r="8" class="c0"/>
<circle cx="1406" cy="696" r="8" class="c0"/>
<circle cx="1450" cy="774" r="8" class="c0"/>
<circle cx="1864" cy="680" r="8" class="c0"/>
<circle cx="1350" cy="528" r="8" class="c0"/>
<circle cx="1488" cy="686" r="8" class="c0"/>
<circle cx="1206" cy="370" r="8" class="c0"/>
<circle cx="1508" cy="828" r="8" class="c0"/>
<circle cx="1500" cy="878" r="8" class="c0"/>
<circle cx="1692" cy="648" r="8" class="c0"/>
<circle cx="1798" cy="738" r="8" class="c0"/>
<circle cx="1314" cy="444" r="8" class="c0"/>
<circle cx="1432" cy="272" r="8" class="c0"/>
<circle cx="1850" cy="802" r="8" class="c0"/>
<circle cx="1758" cy="732" r="8" class="c0"/>
<circle cx="1146" cy="792" r="8" class="c0"/>
<circle cx="1500" cy="674" r="8" class="c0"/>
<circle cx="1032" cy="732" r="8" class="c0"/>
<circle cx="1368" cy="314" r="8" class="c0"/>
<circle cx="1820" cy="690" r="8" class="c0"/>
<circle cx="1444" cy="614" r="8" class="c0"/>
<circle cx="1546" cy="700" r="8" class="c0"/>
<circle cx="1294" cy="358" r="8" class="c0"/>
<circle cx="1254" cy="748" r="8" class="c0"/>
<circle cx="1398" cy="716" r="8" class="c0"/>
<circle cx="1600" cy="670" r="8" class="c0"/>
<circle cx="1510" cy="766" r="8" class="c0"/>
<circle cx="1376" cy="694" r="8" class="c0"/>
<circle cx="1416" cy="600" r="8" class="c0"/>
<circle cx="1760" cy="808" r="8" class="c0"/>
<circle cx="1440" cy="802" r="8" class="c0"/>
<circle cx="1400" cy="640" r="8" class="c0"/>
<circle cx="1282" cy="712" r="8" class="c0"/>
<circle cx="1908" cy="650" r="8" class="c0"/>
<circle cx="1902" cy="752" r="8" class="c0"/>
<circle cx="1508" cy="414" r="8" class="c0"/>
<circle cx="1378" cy="720" r="8" class="c0"/>
<circle cx="1670" cy="780" r="8" class="c0"/>
<circle cx="1882" cy="826" r="8" class="c0"/>
<circle cx="1428" cy="478" r="8" class="c0"/>
<circle cx="1728" cy="768" r="8" class="c0"/>
<circle cx="1676" cy="762" r="8" class="c0"/>
<circle cx="1522" cy="614" r="8" class="c0"/>
<circle cx="1534" cy="568" r="8" class="c0"/>
<circle cx="1908" cy="698" r="8" class="c0"/>
<circle cx="1366" cy="756" r="8" class="c0"/>
<circle cx="1516" cy="726" r="8" class="c0"/>
<circle cx="1266" cy="728" r="8" class="c0"/>
<circle cx="1410" cy="756" r="8" class="c0"/>
<circle cx="1282" cy="394" r="8" class="c0"/>
<circle cx="1498" cy="780" r="8" class="c0"/>
<circle cx="1514" cy="694" r="8" class="c0"/>
<circle cx="1120" cy="746" r="8" class="c0"/>
<circle cx="1414" cy="374" r="8" class="c0"/>
<circle cx="1470" cy="676" r="8" class="c0"/>
<circle cx="1692" cy="704" r="8" class="c0"/>
<circle cx="1804" cy="810" r="8" class="c0"/>
<circle cx="974" cy="716" r="8" class="c0"/>
<circle cx="1398" cy="780" r="8" class="c0"/>
<circle cx="1758" cy="754" r="8" class="c0"/>
<circle cx="1348" cy="264" r="8" class="c0"/>
<circle cx="1854" cy="832" r="8" class="c0"/>
<circle cx="1292" cy="482" r="8" class="c0"/>
<circle cx="1586" cy="782" r="8" class="c0"/>
<circle cx="1718" cy="754" r="8" class="c0"/>
<circle cx="1346" cy="624" r="8" class="c0"/>
<circle cx="1558" cy="764" r="8" class="c0"/>
<circle cx="1448" cy="838" r="8" class="c0"/>
<circle cx="1904" cy="776" r="8" class="c0"/>
<circle cx="1890" cy="766" r="8" class="c0"/>
<circle cx="1454" cy="478" r="8" class="c0"/>
<circle cx="1544" cy="610" r="8" class="c0"/>
<circle cx="1578" cy="706" r="8" class="c0"/>
<circle cx="1392" cy="452" r="8" class="c0"/>
<circle cx="1762" cy="632" r="8" class="c0"/>
<circle cx="1732" cy="720" r="8" class="c0"/>
<circle cx="1460" cy="362" r="8" class="c0"/>
<circle cx="1570" cy="550" r="8" class="c0"/>
<circle cx="1526" cy="652" r="8" class="c0"/>
<circle cx="1426" cy="360" r="8" class="c0"/>
<circle cx="1388" cy="250" r="8" class="c0"/>
<circle cx="1358" cy="252" r="8" class="c0"/>
<circle cx="1354" cy="666" r="8" class="c0"/>
<circle cx="1372" cy="526" r="8" class="c0"/>
<circle cx="1258" cy="328" r="8" class="c0"/>
<circle cx="1470" cy="458" r="8" class="c0"/>
<circle cx="1244" cy="728" r="8" class="c0"/>
<circle cx="1774" cy="718" r="8" class="c0"/>
<circle cx="1430" cy="786" r="8" class="c0"/>
<circle cx="1838" cy="776" r="8" class="c0"/>
<circle cx="1340" cy="546" r="8" class="c0"/>
<circle cx="1742" cy="652" r="8" class="c0"/>
<circle cx="1500" cy="468" r="8" class="c0"/>
<circle cx="1396" cy="740" r="8" class="c0"/>
<circle cx="1892" cy="642" r="8" class="c0"/>
<circle cx="1748" cy="822" r="8" class="c0"/>
<circle cx="1086" cy="750" r="8" class="c0"/>
<circle cx="1468" cy="384" r="8" class="c0"/>
<circle cx="1162" cy="734" r="8" class="c0"/>
<circle cx="1856" cy="618" r="8" class="c0"/>
<circle cx="1690" cy="798" r="8" class="c0"/>
<circle cx="1352" cy="710" r="8" class="c0"/>
<circle cx="1368" cy="656" r="8" class="c0"/>
<circle cx="1402" cy="480" r="8" class="c0"/>
<circle cx="1364" cy="374" r="8" class="c0"/>
<circle cx="1890" cy="742" r="8" class="c0"/>
<circle cx="1190" cy="742" r="8" class="c0"/>
<circle cx="1348" cy="332" r="8" class="c0"/>
<circle cx="1792" cy="644" r="8" class="c0"/>
<circle cx="1382" cy="440" r="8" class="c0"/>
<circle cx="1506" cy="850" r="8" class="c0"/>
<circle cx="1394" cy="550" r="8" class="c0"/>
<circle cx="1276" cy="376" r="8" class="c0"/>
<circle cx="1456" cy="396" r="8" class="c0"/>
<circle cx="1708" cy="676" r="8" class="c0"/>
<circle cx="1306" cy="502" r="8" class="c0"/>
<circle cx="1566" cy="676" r="8" class="c0"/>
<circle cx="1254" cy="380" r="8" class="c0"/>
<circle cx="1284" cy="332" r="8" class="c0"/>
<circle cx="1046" cy="748" r="8" class="c0"/>
<circle cx="1416" cy="682" r="8" class="c0"/>
<circle cx="1442" cy="418" r="8" class="c0"/>
<circle cx="1020" cy="762" r="8" class="c0"/>
<circle cx="1514" cy="458" r="8" class="c0"/>
<circle cx="1304" cy="410" r="8" class="c0"/>
<circle cx="1560" cy="536" r="8" class="c0"/>
<circle cx="1514" cy="484" r="8" class="c0"/>
<circle cx="1730" cy="640" r="8" class="c0"/>
<circle cx="1906" cy="866" r="8" class="c0"/>
<circle cx="1856" cy="854" r="8" class="c0"/>
<circle cx="1236" cy="750" r="8" class="c0"/>
<circle cx="1698" cy="814" r="8" class="c0"/>
<circle cx="1612" cy="734" r="8" class="c0"/>
<circle cx="1812" cy="776" r="8" class="c0"/>
<circle cx="1748" cy="680" r="8" class="c0"/>
<circle cx="1294" cy="320" r="8" class="c0"/>
<circle cx="1628" cy="610" r="8" class="c0"/>
<circle cx="1618" cy="708" r="8" class="c0"/>
<circle cx="1490" cy="736" r="8" class="c0"/>
<circle cx="1516" cy="638" r="8" class="c0"/>
<circle cx="1604" cy="616" r="8" class="c0"/>
<circle cx="1786" cy="624" r="8" class="c0"/>
<circle cx="1350" cy="472" r="8" class="c0"/>
<circle cx="1346" cy="434" r="8" class="c0"/>
<circle cx="1438" cy="648" r="8" class="c0"/>
<circle cx="1730" cy="742" r="8" class="c0"/>
<circle cx="1614" cy="758" r="8" class="c0"/>
<circle cx="1384" cy="598" r="8" class="c0"/>
<circle cx="1330" cy="664" r="8" class="c0"/>
<circle cx="1324" cy="772" r="8" class="c0"/>
<circle cx="1498" cy="754" r="8" class="c0"/>
<circle cx="1394" cy="410" r="8" class="c0"/>
<circle cx="1520" cy="790" r="8" class="c0"/>
<circle cx="1810" cy="632" r="8" class="c0"/>
<circle cx="1462" cy="428" r="8" class="c0"/>
<circle cx="1278" cy="472" r="8" class="c0"/>
<circle cx="1308" cy="672" r="8" class="c0"/>
<circle cx="1618" cy="638" r="8" class="c0"/>
<circle cx="1390" cy="470" r="8" class="c0"/>
<circle cx="1486" cy="792" r="8" class="c0"/>
<circle cx="1820" cy="648" r="8" class="c0"/>
<circle cx="1644" cy="736" r="8" class="c0"/>
<circle cx="1406" cy="304" r="8" class="c0"/>
<circle cx="1518" cy="668" r="8" class="c0"/>
<circle cx="1900" cy="810" r="8" class="c0"/>
<circle cx="1354" cy="396" r="8" class="c0"/>
<circle cx="1522" cy="838" r="8" class="c0"/>
<circle cx="1848" cy="744" r="8" class="c0"/>
<circle cx="1668" cy="718" r="8" class="c0"/>
<circle cx="1332" cy="730" r="8" class="c0"/>
<circle cx="1348" cy="568" r="8" class="c0"/>
<circle cx="1364" cy="286" r="8" class="c0"/>
<circle cx="1354" cy="640" r="8" class="c0"/>
<circle cx="1198" cy="320" r="8" class="c0"/>
<circle cx="1502" cy="706" r="8" class="c0"/>
<circle cx="1336" cy="790" r="8" class="c0"/>
<circle cx="1442" cy="738" r="8" class="c0"/>
<circle cx="1398" cy="362" r="8" class="c0"/>
<circle cx="1392" cy="428" r="8" class="c0"/>
<circle cx="1630" cy="720" r="8" class="c0"/>
<circle cx="1576" cy="666" r="8" class="c0"/>
<circle cx="1484" cy="422" r="8" class="c0"/>
<circle cx="1324" cy="508" r="8" class="c0"/>
<circle cx="1510" cy="600" r="8" class="c0"/>
<circle cx="1184" cy="360" r="8" class="c0"/>
<circle cx="1446" cy="534" r="8" class="c0"/>
<circle cx="1066" cy="736" r="8" class="c0"/>
<circle cx="1644" cy="690" r="8" class="c0"/>
<circle cx="1880" cy="862" r="8" class="c0"/>
<circle cx="1452" cy="498" r="8" class="c0"/>
<circle cx="1462" cy="790" r="8" class="c0"/>
<circle cx="1368" cy="478" r="8" class="c0"/>
<circle cx="1560" cy="618" r="8" class="c0"/>
<circle cx="1714" cy="702" r="8" class="c0"/>
<circle cx="1016" cy="744" r="8" class="c0"/>
<circle cx="1242" cy="336" r="8" class="c0"/>
<circle cx="1302" cy="542" r="8" class="c0"/>
<circle cx="1164" cy="802" r="8" class="c0"/>
<circle cx="1496" cy="860" r="8" class="c0"/>
<circle cx="1700" cy="756" r="8" class="c0"/>
<circle cx="1320" cy="398" r="8" class="c0"/>
<circle cx="1226" cy="374" r="8" class="c0"/>
<circle cx="1860" cy="788" r="8" class="c0"/>
<circle cx="1808" cy="748" r="8" class="c0"/>
<circle cx="1368" cy="506" r="8" class="c0"/>
<circle cx="1532" cy="596" r="8" class="c0"/>
<circle cx="1576" cy="768" r="8" class="c0"/>
<circle cx="1520" cy="744" r="8" class="c0"/>
<circle cx="1770" cy="690" r="8" class="c0"/>
<circle cx="1406" cy="284" r="8" class="c0"/>
<circle cx="1524" cy="820" r="8" class="c0"/>
<circle cx="1862" cy="720" r="8" class="c0"/>
<circle cx="1624" cy="768" r="8" class="c0"/>
<circle cx="1352" cy="360" r="8" class="c0"/>
<circle cx="1032" cy="712" r="8" class="c0"/>
<circle cx="1568" cy="578" r="8" class="c0"/>
<circle cx="1178" cy="724" r="8" class="c0"/>
<circle cx="1650" cy="602" r="8" class="c0"/>
<circle cx="1882" cy="688" r="8" class="c0"/>
<circle cx="1404" cy="668" r="8" class="c0"/>
<circle cx="1430" cy="450" r="8" class="c0"/>
<circle cx="1566" cy="600" r="8" class="c0"/>
<circle cx="1774" cy="742" r="8" class="c0"/>
<circle cx="1814" cy="724" r="8" class="c0"/>
<circle cx="1826" cy="710" r="8" class="c0"/>
<circle cx="1400" cy="614" r="8" class="c0"/>
<circle cx="1466" cy="592" r="8" class="c0"/>
<circle cx="1784" cy="702" r="8" class="c0"/>
<circle cx="1842" cy="818" r="8" class="c0"/>
<circle cx="1770" cy="792" r="8" class="c0"/>
<circle cx="1696" cy="686" r="8" class="c0"/>
<circle cx="1522" cy="586" r="8" class="c0"/>
<circle cx="1484" cy="818" r="8" class="c0"/>
<circle cx="1850" cy="666" r="8" class="c0"/>
<circle cx="1302" cy="520" r="8" class="c0"/>
<circle cx="1338" cy="320" r="8" class="c0"/>
<circle cx="1462" cy="730" r="8" class="c0"/>
<circle cx="1438" cy="678" r="8" class="c0"/>
<circle cx="1568" cy="694" r="8" class="c0"/>
<circle cx="1874" cy="774" r="8" class="c0"/>
<circle cx="1388" cy="352" r="8" class="c0"/>
<circle cx="1496" cy="392" r="8" class="c0"/>
<circle cx="1056" cy="760" r="8" class="c0"/>
<circle cx="1894" cy="718" r="6" class="c0"/>
<circle cx="1386" cy="792" r="6" class="c0"/>
<circle cx="1720" cy="784" r="6" class="c0"/>
<circle cx="1012" cy="706" r="6" class="c0"/>
<circle cx="1312" cy="688" r="6" class="c0"/>
<circle cx="1568" cy="782" r="6" class="c0"/>
<circle cx="1362" cy="436" r="6" class="c0"/>
<circle cx="1574" cy="526" r="6" class="c0"/>
<circle cx="1380" cy="642" r="6" class="c0"/>
<circle cx="1708" cy="644" r="6" class="c0"/>
<circle cx="1474" cy="286" r="6" class="c0"/>
<circle cx="1436" cy="632" r="6" class="c0"/>
<circle cx="1550" cy="780" r="6" class="c0"/>
<circle cx="1382" cy="748" r="6" class="c0"/>
<circle cx="1312" cy="286" r="6" class="c0"/>
<circle cx="1444" cy="818" r="6" class="c0"/>
<circle cx="1114" cy="774" r="6" class="c0"/>
<circle cx="1550" cy="628" r="6" class="c0"/>
<circle cx="1866" cy="640" r="6" class="c0"/>
<circle cx="1336" cy="520" r="6" class="c0"/>
<circle cx="1148" cy="744" r="6" class="c0"/>
<circle cx="1432" cy="496" r="6" class="c0"/>
<circle cx="1504" cy="654" r="6" class="c0"/>
<circle cx="1602" cy="600" r="6" class="c0"/>
<circle cx="1616" cy="802" r="6" class="c0"/>
<circle cx="1370" cy="784" r="6" class="c0"/>
<circle cx="1796" cy="774" r="6" class="c0"/>
<circle cx="1910" cy="714" r="6" class="c0"/>
<circle cx="1118" cy="718" r="6" class="c0"/>
<circle cx="1790" cy="664" r="6" class="c0"/>
<circle cx="1524" cy="474" r="6" class="c0"/>
<circle cx="1494" cy="566" r="6" class="c0"/>
<circle cx="1204" cy="724" r="6" class="c0"/>
<circle cx="1340" cy="482" r="6" class="c0"/>
<circle cx="1706" cy="794" r="6" class="c0"/>
<circle cx="1634" cy="700" r="6" class="c0"/>
<circle cx="1488" cy="620" r="6" class="c0"/>
<circle cx="1894" cy="852" r="6" class="c0"/>
<circle cx="1538" cy="444" r="6" class="c0"/>
<circle cx="1744" cy="802" r="6" class="c0"/>
<circle cx="1422" cy="716" r="6" class="c0"/>
<circle cx="1412" cy="788" r="6" class="c0"/>
<circle cx="1702" cy="658" r="6" class="c0"/>
<circle cx="1346" cy="280" r="6" class="c0"/>
<circle cx="1392" cy="688" r="6" class="c0"/>
<circle cx="1386" cy="704" r="6" class="c0"/>
<circle cx="1800" cy="688" r="6" class="c0"/>
<circle cx="1912" cy="820" r="6" class="c0"/>
<circle cx="1420" cy="776" r="6" class="c0"/>
<circle cx="1378" cy="364" r="6" class="c0"/>
<circle cx="1522" cy="396" r="6" class="c0"/>
<circle cx="1212" cy="328" r="6" class="c0"/>
<circle cx="1796" cy="718" r="6" class="c0"/>
<circle cx="1486" cy="496" r="6" class="c0"/>
<circle cx="1506" cy="430" r="6" class="c0"/>
<circle cx="1810" cy="794" r="6" class="c0"/>
<circle cx="1500" cy="722" r="6" class="c0"/>
<circle cx="1894" cy="658" r="6" class="c0"/>
<circle cx="976" cy="732" r="6" class="c0"/>
<circle cx="1866" cy="696" r="6" class="c0"/>
<circle cx="1326" cy="304" r="6" class="c0"/>
<circle cx="1504" cy="626" r="6" class="c0"/>
<circle cx="1910" cy="794" r="6" class="c0"/>
<circle cx="1206" cy="746" r="6" class="c0"/>
<circle cx="1764" cy="830" r="6" class="c0"/>
<circle cx="1328" cy="626" r="6" class="c0"/>
<circle cx="1820" cy="622" r="6" class="c0"/>
<circle cx="1706" cy="740" r="6" class="c0"/>
<circle cx="1428" cy="610" r="6" class="c0"/>
<circle cx="1270" cy="756" r="6" class="c0"/>
<circle cx="1456" cy="808" r="6" class="c0"/>
<circle cx="1752" cy="642" r="6" class="c0"/>
<circle cx="1518" cy="878" r="6" class="c0"/>
<circle cx="1272" cy="318" r="6" class="c0"/>
<circle cx="1322" cy="556" r="6" class="c0"/>
<circle cx="1448" cy="568" r="6" class="c0"/>
<circle cx="1742" cy="758" r="6" class="c0"/>
<circle cx="1342" cy="720" r="6" class="c0"/>
<circle cx="1126" cy="780" r="6" class="c0"/>
<circle cx="1742" cy="730" r="6" class="c0"/>
<circle cx="1404" cy="442" r="6" class="c0"/>
<circle cx="1892" cy="616" r="6" class="c0"/>
<circle cx="1368" cy="708" r="6" class="c0"/>
<circle cx="992" cy="710" r="6" class="c0"/>
<circle cx="1070" cy="752" r="6" class="c0"/>
<circle cx="1384" cy="536" r="6" class="c0"/>
<circle cx="1364" cy="330" r="6" class="c0"/>
<circle cx="1864" cy="738" r="6" class="c0"/>
<circle cx="1836" cy="658" r="6" class="c0"/>
<circle cx="1388" cy="650" r="6" class="c0"/>
<circle cx="1318" cy="654" r="6" class="c0"/>
<circle cx="1840" cy="614" r="6" class="c0"/>
<circle cx="1784" cy="730" r="6" class="c0"/>
<circle cx="1338" cy="702" r="6" class="c0"/>
<circle cx="1470" cy="476" r="6" class="c0"/>
<circle cx="1744" cy="630" r="6" class="c0"/>
<circle cx="1552" cy="684" r="6" class="c0"/>
<circle cx="1174" cy="746" r="6" class="c0"/>
<circle cx="958" cy="708" r="6" class="c0"/>
<circle cx="1458" cy="412" r="6" class="c0"/>
<circle cx="1456" cy="576" r="6" class="c0"/>
<circle cx="1518" cy="710" r="6" class="c0"/>
<circle cx="1574" cy="462" r="6" class="c0"/>
<circle cx="1716" cy="824" r="6" class="c0"/>
<circle cx="1548" cy="754" r="6" class="c0"/>
<circle cx="1604" cy="718" r="6" class="c0"/>
<circle cx="1462" cy="710" r="6" class="c0"/>
<circle cx="1890" cy="872" r="6" class="c0"/>
<circle cx="1316" cy="732" r="6" class="c0"/>
<circle cx="1912" cy="668" r="6" class="c0"/>
<circle cx="1456" cy="544" r="6" class="c0"/>
<circle cx="1152" cy="720" r="6" class="c0"/>
<circle cx="1810" cy="680" r="6" class="c0"/>
<circle cx="1464" cy="488" r="6" class="c0"/>
<circle cx="964" cy="726" r="6" class="c0"/>
<circle cx="1602" cy="768" r="6" class="c0"/>
<circle cx="1280" cy="432" r="6" class="c0"/>
<circle cx="1912" cy="762" r="6" class="c0"/>
<circle cx="1394" cy="502" r="6" class="c0"/>
<circle cx="1406" cy="540" r="6" class="c0"/>
<circle cx="1394" cy="758" r="6" class="c0"/>
<circle cx="1022" cy="722" r="6" class="c0"/>
<circle cx="1268" cy="460" r="6" class="c0"/>
<circle cx="1322" cy="798" r="6" class="c0"/>
<circle cx="1392" cy="272" r="6" class="c0"/>
<circle cx="1624" cy="658" r="6" class="c0"/>
<circle cx="1794" cy="820" r="6" class="c0"/>
<circle cx="1264" cy="390" r="6" class="c0"/>
<circle cx="1646" cy="810" r="6" class="c0"/>
<circle cx="1828" cy="742" r="6" class="c0"/>
<circle cx="1912" cy="850" r="6" class="c0"/>
<circle cx="1498" cy="586" r="6" class="c0"/>
<circle cx="990" cy="742" r="6" class="c0"/>
<circle cx="1732" cy="826" r="6" class="c0"/>
<circle cx="1456" cy="604" r="6" class="c0"/>
<circle cx="1776" cy="640" r="6" class="c0"/>
<circle cx="1676" cy="702" r="6" class="c0"/>
<circle cx="1266" cy="366" r="6" class="c0"/>
<circle cx="1544" cy="530" r="6" class="c0"/>
<circle cx="1442" cy="356" r="6" class="c0"/>
<circle cx="1358" cy="488" r="6" class="c0"/>
<circle cx="1492" cy="408" r="6" class="c0"/>
<circle cx="1530" cy="386" r="6" class="c0"/>
<circle cx="1304" cy="712" r="6" class="c0"/>
<circle cx="1342" cy="608" r="6" class="c0"/>
<circle cx="1408" cy="320" r="6" class="c0"/>
<circle cx="1536" cy="662" r="6" class="c0"/>
<circle cx="1422" cy="254" r="6" class="c0"/>
<circle cx="1658" cy="728" r="6" class="c0"/>
<circle cx="1748" cy="744" r="6" class="c0"/>
<circle cx="1200" cy="354" r="6" class="c0"/>
<circle cx="1530" cy="698" r="6" class="c0"/>
<circle cx="1030" cy="752" r="6" class="c0"/>
<circle cx="1826" cy="666" r="6" class="c0"/>
<circle cx="1384" cy="560" r="6" class="c0"/>
</svg>
