<?xml version="1.0" encoding="utf-8"?>
<svg xmlns="http://www.w3.org/2000/svg"
     xmlns:xlink="http://www.w3.org/1999/xlink" width="1920" height="1440" >

            <defs>
            <style type="text/css"><![CDATA[
circle {stroke: none;}
.c0 {fill: #FFFFFF;}
]]></style>
            </defs>
<rect x="0" y="0" width="1920" height="1440" fill="black"/>
<circle cx="98" cy="1110" r="12" class="c0"/>
<circle cx="1390" cy="506" r="12" class="c0"/>
<circle cx="32" cy="1386" r="12" class="c0"/>
<circle cx="1300" cy="494" r="12" class="c0"/>
<circle cx="1646" cy="802" r="12" class="c0"/>
<circle cx="1520" cy="822" r="12" class="c0"/>
<circle cx="1356" cy="478" r="12" class="c0"/>
<circle cx="1476" cy="824" r="12" class="c0"/>
<circle cx="1802" cy="768" r="12" class="c0"/>
<circle cx="48" cy="1412" r="12" class="c0"/>
<circle cx="1492" cy="722" r="12" class="c0"/>
<circle cx="36" cy="1278" r="12" class="c0"/>
<circle cx="1406" cy="440" r="12" class="c0"/>
<circle cx="1328" cy="808" r="12" class="c0"/>
<circle cx="1454" cy="730" r="12" class="c0"/>
<circle cx="1378" cy="688" r="12" class="c0"/>
<circle cx="1342" cy="774" r="12" class="c0"/>
<circle cx="110" cy="1222" r="12" class="c0"/>
<circle cx="1298" cy="816" r="12" class="c0"/>
<circle cx="88" cy="1346" r="12" class="c0"/>
<circle cx="1292" cy="552" r="12" class="c0"/>
<circle cx="1436" cy="438" r="12" class="c0"/>
<circle cx="1656" cy="704" r="12" class="c0"/>
<circle cx="1614" cy="788" r="12" class="c0"/>
<circle cx="1628" cy="734" r="12" class="c0"/>
<circle cx="1808" cy="818" r="12" class="c0"/>
<circle cx="1774" cy="820" r="12" class="c0"/>
<circle cx="1354" cy="374" r="12" class="c0"/>
<circle cx="1370" cy="838" r="12" class="c0"/>
<circle cx="1762" cy="876" r="12" class="c0"/>
<circle cx="1542" cy="762" r="12" class="c0"/>
<circle cx="90" cy="1050" r="12" class="c0"/>
<circle cx="42" cy="1092" r="12" class="c0"/>
<circle cx="1636" cy="680" r="10" class="c0"/>
<circle cx="60" cy="1006" r="10" class="c0"/>
<circle cx="1360" cy="736" r="10" class="c0"/>
<circle cx="70" cy="1126" r="10" class="c0"/>
<circle cx="138" cy="1092" r="10" class="c0"/>
<circle cx="1616" cy="818" r="10" class="c0"/>
<circle cx="1798" cy="710" r="10" class="c0"/>
<circle cx="1490" cy="798" r="10" class="c0"/>
<circle cx="1576" cy="676" r="10" class="c0"/>
<circle cx="1786" cy="726" r="10" class="c0"/>
<circle cx="1834" cy="736" r="10" class="c0"/>
<circle cx="1568" cy="756" r="10" class="c0"/>
<circle cx="1558" cy="796" r="10" class="c0"/>
<circle cx="1506" cy="574" r="10" class="c0"/>
<circle cx="1380" cy="602" r="10" class="c0"/>
<circle cx="1776" cy="764" r="10" class="c0"/>
<circle cx="1468" cy="792" r="10" class="c0"/>
<circle cx="1712" cy="694" r="10" class="c0"/>
<circle cx="1454" cy="758" r="10" class="c0"/>
<circle cx="1470" cy="620" r="10" class="c0"/>
<circle cx="1416" cy="472" r="10" class="c0"/>
<circle cx="82" cy="1398" r="10" class="c0"/>
<circle cx="1728" cy="766" r="10" class="c0"/>
<circle cx="1268" cy="760" r="10" class="c0"/>
<circle cx="1482" cy="750" r="10" class="c0"/>
<circle cx="1292" cy="734" r="10" class="c0"/>
<circle cx="1332" cy="502" r="10" class="c0"/>
<circle cx="1266" cy="432" r="10" class="c0"/>
<circle cx="34" cy="1330" r="10" class="c0"/>
<circle cx="1330" cy="668" r="10" class="c0"/>
<circle cx="32" cy="1030" r="10" class="c0"/>
<circle cx="80" cy="1174" r="10" class="c0"/>
<circle cx="1270" cy="796" r="10" class="c0"/>
<circle cx="1680" cy="844" r="10" class="c0"/>
<circle cx="1784" cy="854" r="10" class="c0"/>
<circle cx="1412" cy="668" r="10" class="c0"/>
<circle cx="16" cy="1400" r="10" class="c0"/>
<circle cx="1430" cy="658" r="10" class="c0"/>
<circle cx="1336" cy="318" r="10" class="c0"/>
<circle cx="1332" cy="360" r="10" class="c0"/>
<circle cx="104" cy="1162" r="10" class="c0"/>
<circle cx="1322" cy="734" r="10" class="c0"/>
<circle cx="1456" cy="646" r="10" class="c0"/>
<circle cx="1584" cy="704" r="10" class="c0"/>
<circle cx="1636" cy="654" r="10" class="c0"/>
<circle cx="1308" cy="786" r="10" class="c0"/>
<circle cx="1382" cy="798" r="10" class="c0"/>
<circle cx="1292" cy="590" r="10" class="c0"/>
<circle cx="1366" cy="712" r="10" class="c0"/>
<circle cx="1352" cy="350" r="10" class="c0"/>
<circle cx="1676" cy="756" r="10" class="c0"/>
<circle cx="1246" cy="378" r="10" class="c0"/>
<circle cx="1686" cy="728" r="10" class="c0"/>
<circle cx="72" cy="1272" r="10" class="c0"/>
<circle cx="1498" cy="638" r="10" class="c0"/>
<circle cx="1724" cy="884" r="10" class="c0"/>
<circle cx="10" cy="1310" r="10" class="c0"/>
<circle cx="1772" cy="710" r="10" class="c0"/>
<circle cx="52" cy="1234" r="10" class="c0"/>
<circle cx="1464" cy="428" r="10" class="c0"/>
<circle cx="1338" cy="642" r="10" class="c0"/>
<circle cx="1142" cy="794" r="10" class="c0"/>
<circle cx="1414" cy="496" r="10" class="c0"/>
<circle cx="1570" cy="818" r="10" class="c0"/>
<circle cx="92" cy="1134" r="10" class="c0"/>
<circle cx="1418" cy="818" r="10" class="c0"/>
<circle cx="1474" cy="686" r="10" class="c0"/>
<circle cx="1148" cy="770" r="10" class="c0"/>
<circle cx="1296" cy="348" r="10" class="c0"/>
<circle cx="52" cy="1210" r="10" class="c0"/>
<circle cx="130" cy="1252" r="10" class="c0"/>
<circle cx="1860" cy="800" r="10" class="c0"/>
<circle cx="1598" cy="860" r="10" class="c0"/>
<circle cx="1528" cy="734" r="10" class="c0"/>
<circle cx="72" cy="1428" r="10" class="c0"/>
<circle cx="56" cy="1328" r="10" class="c0"/>
<circle cx="1390" cy="746" r="10" class="c0"/>
<circle cx="1382" cy="726" r="10" class="c0"/>
<circle cx="1726" cy="722" r="10" class="c0"/>
<circle cx="1474" cy="576" r="10" class="c0"/>
<circle cx="1646" cy="846" r="10" class="c0"/>
<circle cx="1458" cy="876" r="10" class="c0"/>
<circle cx="1320" cy="532" r="10" class="c0"/>
<circle cx="1310" cy="426" r="10" class="c0"/>
<circle cx="1760" cy="748" r="10" class="c0"/>
<circle cx="1762" cy="784" r="10" class="c0"/>
<circle cx="1324" cy="626" r="10" class="c0"/>
<circle cx="1682" cy="784" r="10" class="c0"/>
<circle cx="1272" cy="522" r="10" class="c0"/>
<circle cx="1290" cy="446" r="10" class="c0"/>
<circle cx="1348" cy="584" r="10" class="c0"/>
<circle cx="1612" cy="848" r="10" class="c0"/>
<circle cx="1324" cy="698" r="10" class="c0"/>
<circle cx="1566" cy="842" r="10" class="c0"/>
<circle cx="1642" cy="882" r="10" class="c0"/>
<circle cx="1794" cy="802" r="10" class="c0"/>
<circle cx="1734" cy="742" r="10" class="c0"/>
<circle cx="1458" cy="846" r="10" class="c0"/>
<circle cx="1628" cy="774" r="10" class="c0"/>
<circle cx="1318" cy="384" r="10" class="c0"/>
<circle cx="14" cy="1254" r="10" class="c0"/>
<circle cx="1276" cy="566" r="10" class="c0"/>
<circle cx="1378" cy="770" r="10" class="c0"/>
<circle cx="74" cy="1018" r="10" class="c0"/>
<circle cx="1308" cy="310" r="10" class="c0"/>
<circle cx="1404" cy="786" r="10" class="c0"/>
<circle cx="1454" cy="504" r="10" class="c0"/>
<circle cx="104" cy="1372" r="10" class="c0"/>
<circle cx="62" cy="1254" r="10" class="c0"/>
<circle cx="1288" cy="394" r="10" class="c0"/>
<circle cx="130" cy="1054" r="10" class="c0"/>
<circle cx="1408" cy="692" r="10" class="c0"/>
<circle cx="116" cy="1010" r="10" class="c0"/>
<circle cx="1434" cy="626" r="10" class="c0"/>
<circle cx="1370" cy="898" r="10" class="c0"/>
<circle cx="28" cy="1210" r="10" class="c0"/>
<circle cx="1112" cy="786" r="10" class="c0"/>
<circle cx="1090" cy="782" r="10" class="c0"/>
<circle cx="1744" cy="826" r="10" class="c0"/>
<circle cx="1610" cy="680" r="10" class="c0"/>
<circle cx="1284" cy="468" r="10" class="c0"/>
<circle cx="1584" cy="782" r="10" class="c0"/>
<circle cx="26" cy="1234" r="10" class="c0"/>
<circle cx="76" cy="1238" r="10" class="c0"/>
<circle cx="30" cy="1058" r="10" class="c0"/>
<circle cx="1714" cy="862" r="10" class="c0"/>
<circle cx="1316" cy="606" r="10" class="c0"/>
<circle cx="58" cy="1298" r="10" class="c0"/>
<circle cx="1450" cy="910" r="10" class="c0"/>
<circle cx="1438" cy="776" r="10" class="c0"/>
<circle cx="1754" cy="696" r="10" class="c0"/>
<circle cx="1174" cy="414" r="10" class="c0"/>
<circle cx="1364" cy="442" r="10" class="c0"/>
<circle cx="1292" cy="770" r="10" class="c0"/>
<circle cx="52" cy="1044" r="10" class="c0"/>
<circle cx="1262" cy="542" r="10" class="c0"/>
<circle cx="1326" cy="462" r="10" class="c0"/>
<circle cx="1706" cy="672" r="8" class="c0"/>
<circle cx="1220" cy="414" r="8" class="c0"/>
<circle cx="1326" cy="760" r="8" class="c0"/>
<circle cx="1174" cy="814" r="8" class="c0"/>
<circle cx="50" cy="1068" r="8" class="c0"/>
<circle cx="1426" cy="732" r="8" class="c0"/>
<circle cx="1350" cy="532" r="8" class="c0"/>
<circle cx="1296" cy="322" r="8" class="c0"/>
<circle cx="1806" cy="738" r="8" class="c0"/>
<circle cx="96" cy="1188" r="8" class="c0"/>
<circle cx="1698" cy="712" r="8" class="c0"/>
<circle cx="62" cy="1156" r="8" class="c0"/>
<circle cx="68" cy="1080" r="8" class="c0"/>
<circle cx="1408" cy="720" r="8" class="c0"/>
<circle cx="1372" cy="306" r="8" class="c0"/>
<circle cx="1820" cy="794" r="8" class="c0"/>
<circle cx="1234" cy="390" r="8" class="c0"/>
<circle cx="1100" cy="762" r="8" class="c0"/>
<circle cx="1732" cy="696" r="8" class="c0"/>
<circle cx="1736" cy="650" r="8" class="c0"/>
<circle cx="1442" cy="712" r="8" class="c0"/>
<circle cx="1654" cy="864" r="8" class="c0"/>
<circle cx="1746" cy="848" r="8" class="c0"/>
<circle cx="1456" cy="584" r="8" class="c0"/>
<circle cx="1224" cy="380" r="8" class="c0"/>
<circle cx="1838" cy="820" r="8" class="c0"/>
<circle cx="1660" cy="660" r="8" class="c0"/>
<circle cx="36" cy="1148" r="8" class="c0"/>
<circle cx="1304" cy="462" r="8" class="c0"/>
<circle cx="1792" cy="750" r="8" class="c0"/>
<circle cx="1686" cy="820" r="8" class="c0"/>
<circle cx="1176" cy="792" r="8" class="c0"/>
<circle cx="64" cy="974" r="8" class="c0"/>
<circle cx="1370" cy="462" r="8" class="c0"/>
<circle cx="1294" cy="414" r="8" class="c0"/>
<circle cx="1706" cy="810" r="8" class="c0"/>
<circle cx="1834" cy="778" r="8" class="c0"/>
<circle cx="1366" cy="574" r="8" class="c0"/>
<circle cx="1746" cy="796" r="8" class="c0"/>
<circle cx="1378" cy="554" r="8" class="c0"/>
<circle cx="1812" cy="866" r="8" class="c0"/>
<circle cx="1842" cy="856" r="8" class="c0"/>
<circle cx="1548" cy="854" r="8" class="c0"/>
<circle cx="24" cy="1366" r="8" class="c0"/>
<circle cx="70" cy="1062" r="8" class="c0"/>
<circle cx="1864" cy="776" r="8" class="c0"/>
<circle cx="42" cy="1118" r="8" class="c0"/>
<circle cx="1194" cy="780" r="8" class="c0"/>
<circle cx="1268" cy="820" r="8" class="c0"/>
<circle cx="1456" cy="468" r="8" class="c0"/>
<circle cx="1308" cy="520" r="8" class="c0"/>
<circle cx="1674" cy="804" r="8" class="c0"/>
<circle cx="1368" cy="544" r="8" class="c0"/>
<circle cx="1768" cy="682" r="8" class="c0"/>
<circle cx="1558" cy="734" r="8" class="c0"/>
<circle cx="1380" cy="452" r="8" class="c0"/>
<circle cx="8" cy="1278" r="8" class="c0"/>
<circle cx="1470" cy="482" r="8" class="c0"/>
<circle cx="1768" cy="656" r="8" class="c0"/>
<circle cx="1534" cy="792" r="8" class="c0"/>
<circle cx="1452" cy="818" r="8" class="c0"/>
<circle cx="84" cy="976" r="8" class="c0"/>
<circle cx="1566" cy="716" r="8" class="c0"/>
<circle cx="1232" cy="788" r="8" class="c0"/>
<circle cx="94" cy="1082" r="8" class="c0"/>
<circle cx="1350" cy="806" r="8" class="c0"/>
<circle cx="1592" cy="806" r="8" class="c0"/>
<circle cx="1280" cy="374" r="8" class="c0"/>
<circle cx="1046" cy="762" r="8" class="c0"/>
<circle cx="1508" cy="748" r="8" class="c0"/>
<circle cx="1310" cy="566" r="8" class="c0"/>
<circle cx="106" cy="1332" r="8" class="c0"/>
<circle cx="10" cy="1158" r="8" class="c0"/>
<circle cx="1434" cy="600" r="8" class="c0"/>
<circle cx="1306" cy="690" r="8" class="c0"/>
<circle cx="64" cy="1354" r="8" class="c0"/>
<circle cx="1712" cy="900" r="8" class="c0"/>
<circle cx="1166" cy="782" r="8" class="c0"/>
<circle cx="1512" cy="696" r="8" class="c0"/>
<circle cx="1306" cy="752" r="8" class="c0"/>
<circle cx="92" cy="1278" r="8" class="c0"/>
<circle cx="1538" cy="840" r="8" class="c0"/>
<circle cx="1504" cy="610" r="8" class="c0"/>
<circle cx="1214" cy="782" r="8" class="c0"/>
<circle cx="74" cy="1376" r="8" class="c0"/>
<circle cx="1418" cy="522" r="8" class="c0"/>
<circle cx="1328" cy="412" r="8" class="c0"/>
<circle cx="1124" cy="774" r="8" class="c0"/>
<circle cx="1728" cy="668" r="8" class="c0"/>
<circle cx="94" cy="1316" r="8" class="c0"/>
<circle cx="1640" cy="824" r="8" class="c0"/>
<circle cx="1826" cy="840" r="8" class="c0"/>
<circle cx="116" cy="1094" r="8" class="c0"/>
<circle cx="1694" cy="748" r="8" class="c0"/>
<circle cx="1714" cy="650" r="8" class="c0"/>
<circle cx="1480" cy="770" r="8" class="c0"/>
<circle cx="1372" cy="392" r="8" class="c0"/>
<circle cx="1368" cy="512" r="8" class="c0"/>
<circle cx="118" cy="1118" r="8" class="c0"/>
<circle cx="48" cy="1172" r="8" class="c0"/>
<circle cx="126" cy="1144" r="8" class="c0"/>
<circle cx="104" cy="1064" r="8" class="c0"/>
<circle cx="1264" cy="412" r="8" class="c0"/>
<circle cx="1250" cy="790" r="8" class="c0"/>
<circle cx="120" cy="1392" r="8" class="c0"/>
<circle cx="1342" cy="398" r="8" class="c0"/>
<circle cx="1346" cy="418" r="8" class="c0"/>
<circle cx="1398" cy="822" r="8" class="c0"/>
<circle cx="122" cy="1188" r="8" class="c0"/>
<circle cx="1516" cy="766" r="8" class="c0"/>
<circle cx="1442" cy="492" r="8" class="c0"/>
<circle cx="1350" cy="674" r="8" class="c0"/>
<circle cx="22" cy="1186" r="8" class="c0"/>
<circle cx="110" cy="1264" r="8" class="c0"/>
<circle cx="1260" cy="486" r="8" class="c0"/>
<circle cx="74" cy="1310" r="8" class="c0"/>
<circle cx="1532" cy="680" r="8" class="c0"/>
<circle cx="1472" cy="598" r="8" class="c0"/>
<circle cx="1412" cy="640" r="8" class="c0"/>
<circle cx="1240" cy="768" r="8" class="c0"/>
<circle cx="1786" cy="878" r="8" class="c0"/>
<circle cx="1380" cy="664" r="8" class="c0"/>
<circle cx="1584" cy="730" r="8" class="c0"/>
<circle cx="1450" cy="684" r="8" class="c0"/>
<circle cx="1622" cy="866" r="8" class="c0"/>
<circle cx="1818" cy="720" r="8" class="c0"/>
<circle cx="1372" cy="622" r="8" class="c0"/>
<circle cx="1656" cy="750" r="8" class="c0"/>
<circle cx="62" cy="1188" r="8" class="c0"/>
<circle cx="1658" cy="770" r="8" class="c0"/>
<circle cx="1380" cy="878" r="8" class="c0"/>
<circle cx="1414" cy="746" r="8" class="c0"/>
<circle cx="1394" cy="630" r="8" class="c0"/>
<circle cx="1254" cy="402" r="8" class="c0"/>
<circle cx="1660" cy="818" r="8" class="c0"/>
<circle cx="1344" cy="748" r="8" class="c0"/>
<circle cx="1820" cy="758" r="8" class="c0"/>
<circle cx="1606" cy="764" r="8" class="c0"/>
<circle cx="1716" cy="830" r="8" class="c0"/>
<circle cx="1506" cy="788" r="8" class="c0"/>
<circle cx="1586" cy="832" r="8" class="c0"/>
<circle cx="1620" cy="712" r="8" class="c0"/>
<circle cx="1592" cy="750" r="8" class="c0"/>
<circle cx="1694" cy="874" r="8" class="c0"/>
<circle cx="1714" cy="788" r="8" class="c0"/>
<circle cx="1670" cy="676" r="8" class="c0"/>
<circle cx="76" cy="1212" r="8" class="c0"/>
<circle cx="118" cy="1412" r="8" class="c0"/>
<circle cx="120" cy="1358" r="8" class="c0"/>
<circle cx="1470" cy="892" r="8" class="c0"/>
<circle cx="1320" cy="554" r="8" class="c0"/>
<circle cx="1546" cy="702" r="8" class="c0"/>
<circle cx="1338" cy="550" r="8" class="c0"/>
<circle cx="1388" cy="584" r="8" class="c0"/>
<circle cx="1268" cy="608" r="8" class="c0"/>
<circle cx="1312" cy="330" r="8" class="c0"/>
<circle cx="1384" cy="474" r="8" class="c0"/>
<circle cx="1636" cy="754" r="8" class="c0"/>
<circle cx="1342" cy="690" r="8" class="c0"/>
<circle cx="1374" cy="332" r="8" class="c0"/>
<circle cx="1666" cy="880" r="8" class="c0"/>
<circle cx="130" cy="1172" r="8" class="c0"/>
<circle cx="26" cy="1430" r="8" class="c0"/>
<circle cx="1286" cy="832" r="8" class="c0"/>
<circle cx="1066" cy="776" r="8" class="c0"/>
<circle cx="50" cy="1022" r="8" class="c0"/>
<circle cx="1392" cy="420" r="8" class="c0"/>
<circle cx="1446" cy="420" r="8" class="c0"/>
<circle cx="104" cy="1300" r="8" class="c0"/>
<circle cx="1370" cy="752" r="8" class="c0"/>
<circle cx="28" cy="1302" r="8" class="c0"/>
<circle cx="1490" cy="590" r="8" class="c0"/>
<circle cx="1680" cy="694" r="8" class="c0"/>
<circle cx="1668" cy="720" r="8" class="c0"/>
<circle cx="122" cy="1298" r="8" class="c0"/>
<circle cx="1342" cy="826" r="8" class="c0"/>
<circle cx="1440" cy="838" r="8" class="c0"/>
<circle cx="1460" cy="704" r="8" class="c0"/>
<circle cx="114" cy="1036" r="8" class="c0"/>
<circle cx="1454" cy="604" r="8" class="c0"/>
<circle cx="1344" cy="300" r="8" class="c0"/>
<circle cx="1382" cy="404" r="8" class="c0"/>
<circle cx="1428" cy="412" r="8" class="c0"/>
<circle cx="1748" cy="762" r="8" class="c0"/>
<circle cx="112" cy="1198" r="8" class="c0"/>
<circle cx="1064" cy="758" r="8" class="c0"/>
<circle cx="1364" cy="408" r="8" class="c0"/>
<circle cx="1326" cy="440" r="8" class="c0"/>
<circle cx="104" cy="1422" r="8" class="c0"/>
<circle cx="1264" cy="386" r="8" class="c0"/>
<circle cx="1320" cy="482" r="8" class="c0"/>
<circle cx="1254" cy="512" r="8" class="c0"/>
<circle cx="1194" cy="420" r="8" class="c0"/>
<circle cx="1290" cy="794" r="8" class="c0"/>
<circle cx="1786" cy="698" r="8" class="c0"/>
<circle cx="1364" cy="816" r="8" class="c0"/>
<circle cx="94" cy="1248" r="8" class="c0"/>
<circle cx="36" cy="1350" r="8" class="c0"/>
<circle cx="14" cy="1348" r="8" class="c0"/>
<circle cx="1734" cy="860" r="8" class="c0"/>
<circle cx="1486" cy="608" r="8" class="c0"/>
<circle cx="1676" cy="870" r="8" class="c0"/>
<circle cx="10" cy="1202" r="8" class="c0"/>
<circle cx="1358" cy="606" r="8" class="c0"/>
<circle cx="1744" cy="712" r="8" class="c0"/>
<circle cx="1490" cy="656" r="8" class="c0"/>
<circle cx="84" cy="1298" r="8" class="c0"/>
<circle cx="1410" cy="612" r="8" class="c0"/>
<circle cx="1418" cy="424" r="8" class="c0"/>
<circle cx="1396" cy="710" r="8" class="c0"/>
<circle cx="60" cy="1392" r="8" class="c0"/>
<circle cx="48" cy="1136" r="8" class="c0"/>
<circle cx="1526" cy="706" r="8" class="c0"/>
<circle cx="1274" cy="348" r="8" class="c0"/>
<circle cx="22" cy="1126" r="8" class="c0"/>
<circle cx="1436" cy="872" r="8" class="c0"/>
<circle cx="1356" cy="632" r="8" class="c0"/>
<circle cx="1430" cy="460" r="8" class="c0"/>
<circle cx="1178" cy="770" r="8" class="c0"/>
<circle cx="102" cy="1024" r="8" class="c0"/>
<circle cx="1344" cy="452" r="8" class="c0"/>
<circle cx="1554" cy="830" r="8" class="c0"/>
<circle cx="1428" cy="686" r="8" class="c0"/>
<circle cx="1694" cy="682" r="8" class="c0"/>
<circle cx="74" cy="1104" r="8" class="c0"/>
<circle cx="1382" cy="642" r="8" class="c0"/>
<circle cx="1358" cy="762" r="8" class="c0"/>
<circle cx="1516" cy="844" r="8" class="c0"/>
<circle cx="1710" cy="758" r="8" class="c0"/>
<circle cx="1444" cy="800" r="8" class="c0"/>
<circle cx="1610" cy="746" r="8" class="c0"/>
<circle cx="1310" cy="710" r="8" class="c0"/>
<circle cx="1322" cy="340" r="8" class="c0"/>
<circle cx="1370" cy="862" r="8" class="c0"/>
<circle cx="1728" cy="910" r="8" class="c0"/>
<circle cx="1762" cy="726" r="8" class="c0"/>
<circle cx="1334" cy="718" r="8" class="c0"/>
<circle cx="10" cy="1376" r="8" class="c0"/>
<circle cx="1230" cy="356" r="8" class="c0"/>
<circle cx="1748" cy="660" r="8" class="c0"/>
<circle cx="48" cy="1366" r="8" class="c0"/>
<circle cx="40" cy="1012" r="8" class="c0"/>
<circle cx="1308" cy="364" r="8" class="c0"/>
<circle cx="78" cy="998" r="8" class="c0"/>
<circle cx="46" cy="994" r="8" class="c0"/>
<circle cx="1606" cy="722" r="8" class="c0"/>
<circle cx="1364" cy="322" r="8" class="c0"/>
<circle cx="1498" cy="764" r="8" class="c0"/>
<circle cx="1330" cy="576" r="8" class="c0"/>
<circle cx="1794" cy="834" r="8" class="c0"/>
<circle cx="1380" cy="534" r="8" class="c0"/>
<circle cx="1358" cy="786" r="8" class="c0"/>
<circle cx="1658" cy="730" r="8" class="c0"/>
<circle cx="1298" cy="530" r="8" class="c0"/>
<circle cx="1240" cy="420" r="8" class="c0"/>
<circle cx="1732" cy="812" r="8" class="c0"/>
<circle cx="1850" cy="760" r="8" class="c0"/>
<circle cx="1358" cy="878" r="8" class="c0"/>
<circle cx="1422" cy="796" r="8" class="c0"/>
<circle cx="1804" cy="690" r="8" class="c0"/>
<circle cx="1246" cy="438" r="8" class="c0"/>
<circle cx="1370" cy="362" r="8" class="c0"/>
<circle cx="42" cy="1190" r="8" class="c0"/>
<circle cx="1774" cy="892" r="8" class="c0"/>
<circle cx="124" cy="1336" r="8" class="c0"/>
<circle cx="1692" cy="656" r="8" class="c0"/>
<circle cx="1424" cy="708" r="8" class="c0"/>
<circle cx="1266" cy="456" r="8" class="c0"/>
<circle cx="1422" cy="762" r="8" class="c0"/>
<circle cx="1384" cy="318" r="8" class="c0"/>
<circle cx="1364" cy="650" r="8" class="c0"/>
<circle cx="140" cy="1018" r="8" class="c0"/>
<circle cx="1438" cy="748" r="8" class="c0"/>
<circle cx="1562" cy="776" r="8" class="c0"/>
<circle cx="1500" cy="830" r="8" class="c0"/>
<circle cx="1540" cy="814" r="8" class="c0"/>
<circle cx="40" cy="1256" r="8" class="c0"/>
<circle cx="1354" cy="560" r="8" class="c0"/>
<circle cx="86" cy="1222" r="8" class="c0"/>
<circle cx="1698" cy="852" r="8" class="c0"/>
<circle cx="1480" cy="882" r="8" class="c0"/>
<circle cx="1394" cy="652" r="8" class="c0"/>
<circle cx="1336" cy="604" r="8" class="c0"/>
<circle cx="1550" cy="682" r="8" class="c0"/>
<circle cx="96" cy="1004" r="8" class="c0"/>
<circle cx="1272" cy="498" r="8" class="c0"/>
<circle cx="12" cy="1222" r="8" class="c0"/>
<circle cx="1194" cy="362" r="8" class="c0"/>
<circle cx="30" cy="1166" r="8" class="c0"/>
<circle cx="1302" cy="620" r="8" class="c0"/>
<circle cx="1212" cy="396" r="8" class="c0"/>
<circle cx="1336" cy="522" r="8" class="c0"/>
<circle cx="1344" cy="708" r="8" class="c0"/>
<circle cx="1754" cy="898" r="8" class="c0"/>
<circle cx="1480" cy="646" r="8" class="c0"/>
<circle cx="1486" cy="700" r="8" class="c0"/>
<circle cx="1610" cy="702" r="8" class="c0"/>
<circle cx="1440" cy="674" r="8" class="c0"/>
<circle cx="1432" cy="512" r="8" class="c0"/>
<circle cx="10" cy="1426" r="6" class="c0"/>
<circle cx="1460" cy="522" r="6" class="c0"/>
<circle cx="110" cy="1284" r="6" class="c0"/>
<circle cx="1264" cy="578" r="6" class="c0"/>
<circle cx="1448" cy="892" r="6" class="c0"/>
<circle cx="1642" cy="720" r="6" class="c0"/>
<circle cx="1840" cy="804" r="6" class="c0"/>
<circle cx="1568" cy="694" r="6" class="c0"/>
<circle cx="110" cy="1138" r="6" class="c0"/>
<circle cx="1118" cy="756" r="6" class="c0"/>
<circle cx="1310" cy="768" r="6" class="c0"/>
<circle cx="1788" cy="682" r="6" class="c0"/>
<circle cx="1188" cy="822" r="6" class="c0"/>
<circle cx="1374" cy="424" r="6" class="c0"/>
<circle cx="1254" cy="830" r="6" class="c0"/>
<circle cx="10" cy="1176" r="6" class="c0"/>
<circle cx="1342" cy="620" r="6" class="c0"/>
<circle cx="1696" cy="832" r="6" class="c0"/>
<circle cx="1272" cy="592" r="6" class="c0"/>
<circle cx="1662" cy="792" r="6" class="c0"/>
<circle cx="54" cy="1432" r="6" class="c0"/>
<circle cx="1664" cy="836" r="6" class="c0"/>
<circle cx="1728" cy="840" r="6" class="c0"/>
<circle cx="132" cy="1286" r="6" class="c0"/>
<circle cx="1596" cy="662" r="6" class="c0"/>
<circle cx="1396" cy="460" r="6" class="c0"/>
<circle cx="132" cy="1202" r="6" class="c0"/>
<circle cx="1312" cy="448" r="6" class="c0"/>
<circle cx="1804" cy="848" r="6" class="c0"/>
<circle cx="70" cy="1038" r="6" class="c0"/>
<circle cx="1594" cy="690" r="6" class="c0"/>
<circle cx="1352" cy="860" r="6" class="c0"/>
<circle cx="1364" cy="496" r="6" class="c0"/>
<circle cx="1444" cy="524" r="6" class="c0"/>
<circle cx="1514" cy="590" r="6" class="c0"/>
<circle cx="128" cy="1072" r="6" class="c0"/>
<circle cx="112" cy="1244" r="6" class="c0"/>
<circle cx="1622" cy="664" r="6" class="c0"/>
<circle cx="1406" cy="768" r="6" class="c0"/>
<circle cx="12" cy="1328" r="6" class="c0"/>
<circle cx="1314" cy="588" r="6" class="c0"/>
<circle cx="1408" cy="804" r="6" class="c0"/>
<circle cx="1282" cy="332" r="6" class="c0"/>
<circle cx="1772" cy="842" r="6" class="c0"/>
<circle cx="1738" cy="678" r="6" class="c0"/>
<circle cx="130" cy="1378" r="6" class="c0"/>
<circle cx="1710" cy="730" r="6" class="c0"/>
<circle cx="1636" cy="706" r="6" class="c0"/>
<circle cx="1402" cy="410" r="6" class="c0"/>
<circle cx="1368" cy="590" r="6" class="c0"/>
<circle cx="1474" cy="498" r="6" class="c0"/>
<circle cx="1262" cy="362" r="6" class="c0"/>
<circle cx="1742" cy="874" r="6" class="c0"/>
<circle cx="1294" cy="714" r="6" class="c0"/>
<circle cx="1312" cy="646" r="6" class="c0"/>
<circle cx="1446" cy="456" r="6" class="c0"/>
<circle cx="1388" cy="852" r="6" class="c0"/>
<circle cx="1198" cy="404" r="6" class="c0"/>
<circle cx="80" cy="1326" r="6" class="c0"/>
<circle cx="1620" cy="756" r="6" class="c0"/>
<circle cx="104" cy="1400" r="6" class="c0"/>
<circle cx="1152" cy="808" r="6" class="c0"/>
<circle cx="1510" cy="714" r="6" class="c0"/>
<circle cx="1352" cy="514" r="6" class="c0"/>
<circle cx="1432" cy="856" r="6" class="c0"/>
<circle cx="1470" cy="718" r="6" class="c0"/>
<circle cx="1832" cy="866" r="6" class="c0"/>
<circle cx="1732" cy="784" r="6" class="c0"/>
<circle cx="1548" cy="722" r="6" class="c0"/>
<circle cx="42" cy="1312" r="6" class="c0"/>
<circle cx="1328" cy="298" r="6" class="c0"/>
<circle cx="1514" cy="802" r="6" class="c0"/>
<circle cx="1840" cy="718" r="6" class="c0"/>
<circle cx="110" cy="1348" r="6" class="c0"/>
<circle cx="110" cy="984" r="6" class="c0"/>
<circle cx="1604" cy="832" r="6" class="c0"/>
<circle cx="86" cy="1152" r="6" class="c0"/>
<circle cx="1628" cy="698" r="6" class="c0"/>
<circle cx="1654" cy="682" r="6" class="c0"/>
<circle cx="1644" cy="782" r="6" class="c0"/>
<circle cx="1294" cy="572" r="6" class="c0"/>
<circle cx="122" cy="1432" r="6" class="c0"/>
<circle cx="1436" cy="900" r="6" class="c0"/>
<circle cx="1762" cy="852" r="6" class="c0"/>
<circle cx="58" cy="1112" r="6" class="c0"/>
<circle cx="136" cy="1406" r="6" class="c0"/>
<circle cx="6" cy="1138" r="6" class="c0"/>
<circle cx="1386" cy="436" r="6" class="c0"/>
<circle cx="1088" cy="802" r="6" class="c0"/>
<circle cx="1476" cy="856" r="6" class="c0"/>
<circle cx="1202" cy="764" r="6" class="c0"/>
<circle cx="1792" cy="894" r="6" class="c0"/>
<circle cx="1348" cy="434" r="6" class="c0"/>
<circle cx="1576" cy="860" r="6" class="c0"/>
<circle cx="132" cy="1230" r="6" class="c0"/>
<circle cx="1682" cy="710" r="6" class="c0"/>
<circle cx="1848" cy="840" r="6" class="c0"/>
<circle cx="1724" cy="798" r="6" class="c0"/>
<circle cx="1452" cy="622" r="6" class="c0"/>
<circle cx="1544" cy="742" r="6" class="c0"/>
<circle cx="1324" cy="832" r="6" class="c0"/>
<circle cx="1308" cy="398" r="6" class="c0"/>
<circle cx="1456" cy="778" r="6" class="c0"/>
<circle cx="1786" cy="784" r="6" class="c0"/>
<circle cx="1760" cy="834" r="6" class="c0"/>
<circle cx="1490" cy="566" r="6" class="c0"/>
<circle cx="88" cy="1420" r="6" class="c0"/>
<circle cx="1322" cy="776" r="6" class="c0"/>
<circle cx="1284" cy="510" r="6" class="c0"/>
<circle cx="1496" cy="690" r="6" class="c0"/>
<circle cx="1696" cy="800" r="6" class="c0"/>
<circle cx="146" cy="1210" r="6" class="c0"/>
<circle cx="1438" cy="474" r="6" class="c0"/>
<circle cx="1664" cy="852" r="6" class="c0"/>
<circle cx="1284" cy="426" r="6" class="c0"/>
<circle cx="1080" cy="760" r="6" class="c0"/>
<circle cx="1756" cy="808" r="6" class="c0"/>
<circle cx="78" cy="1192" r="6" class="c0"/>
<circle cx="1406" cy="336" r="6" class="c0"/>
<circle cx="1434" cy="810" r="6" class="c0"/>
<circle cx="1858" cy="848" r="6" class="c0"/>
<circle cx="1358" cy="694" r="6" class="c0"/>
<circle cx="1270" cy="836" r="6" class="c0"/>
<circle cx="1576" cy="798" r="6" class="c0"/>
<circle cx="1380" cy="820" r="6" class="c0"/>
<circle cx="50" cy="1266" r="6" class="c0"/>
<circle cx="140" cy="1162" r="6" class="c0"/>
<circle cx="1516" cy="560" r="6" class="c0"/>
<circle cx="1278" cy="780" r="6" class="c0"/>
<circle cx="1468" cy="908" r="6" class="c0"/>
<circle cx="1476" cy="664" r="6" class="c0"/>
<circle cx="82" cy="1258" r="6" class="c0"/>
<circle cx="1700" cy="770" r="6" class="c0"/>
<circle cx="1354" cy="332" r="6" class="c0"/>
<circle cx="92" cy="1206" r="6" class="c0"/>
<circle cx="20" cy="1144" r="6" class="c0"/>
<circle cx="1394" cy="328" r="6" class="c0"/>
<circle cx="1502" cy="810" r="6" class="c0"/>
<circle cx="84" cy="1092" r="6" class="c0"/>
<circle cx="1372" cy="488" r="6" class="c0"/>
<circle cx="1342" cy="732" r="6" class="c0"/>
<circle cx="1874" cy="812" r="6" class="c0"/>
<circle cx="1354" cy="312" r="6" class="c0"/>
<circle cx="1704" cy="886" r="6" class="c0"/>
<circle cx="136" cy="1112" r="6" class="c0"/>
<circle cx="1462" cy="674" r="6" class="c0"/>
<circle cx="1776" cy="740" r="6" class="c0"/>
<circle cx="1626" cy="832" r="6" class="c0"/>
<circle cx="1400" cy="482" r="6" class="c0"/>
<circle cx="1430" cy="482" r="6" class="c0"/>
<circle cx="1392" cy="674" r="6" class="c0"/>
<circle cx="1778" cy="792" r="6" class="c0"/>
<circle cx="1746" cy="728" r="6" class="c0"/>
<circle cx="120" cy="1318" r="6" class="c0"/>
<circle cx="1362" cy="296" r="6" class="c0"/>
<circle cx="1518" cy="632" r="6" class="c0"/>
<circle cx="1298" cy="376" r="6" class="c0"/>
<circle cx="1524" cy="752" r="6" class="c0"/>
<circle cx="1260" cy="778" r="6" class="c0"/>
<circle cx="132" cy="1128" r="6" class="c0"/>
<circle cx="1336" cy="480" r="6" class="c0"/>
<circle cx="1544" cy="782" r="6" class="c0"/>
<circle cx="6" cy="1238" r="6" class="c0"/>
<circle cx="1456" cy="448" r="6" class="c0"/>
<circle cx="1124" cy="798" r="6" class="c0"/>
<circle cx="1814" cy="702" r="6" class="c0"/>
<circle cx="1802" cy="886" r="6" class="c0"/>
<circle cx="1672" cy="738" r="6" class="c0"/>
<circle cx="1494" cy="508" r="6" class="c0"/>
<circle cx="96" cy="986" r="6" class="c0"/>
<circle cx="1206" cy="376" r="6" class="c0"/>
<circle cx="1216" cy="766" r="6" class="c0"/>
<circle cx="1822" cy="856" r="6" class="c0"/>
<circle cx="1744" cy="778" r="6" class="c0"/>
<circle cx="1336" cy="428" r="6" class="c0"/>
<circle cx="1390" cy="564" r="6" class="c0"/>
<circle cx="1350" cy="844" r="6" class="c0"/>
<circle cx="66" cy="1224" r="6" class="c0"/>
<circle cx="1782" cy="908" r="6" class="c0"/>
<circle cx="1274" cy="740" r="6" class="c0"/>
<circle cx="1338" cy="338" r="6" class="c0"/>
<circle cx="26" cy="1102" r="6" class="c0"/>
<circle cx="1440" cy="696" r="6" class="c0"/>
<circle cx="1530" cy="776" r="6" class="c0"/>
<circle cx="1288" cy="752" r="6" class="c0"/>
<circle cx="1132" cy="758" r="6" class="c0"/>
<circle cx="1392" cy="614" r="6" class="c0"/>
<circle cx="1258" cy="596" r="6" class="c0"/>
<circle cx="16" cy="1292" r="6" class="c0"/>
<circle cx="1684" cy="884" r="6" class="c0"/>
<circle cx="76" cy="1144" r="6" class="c0"/>
<circle cx="1674" cy="650" r="6" class="c0"/>
<circle cx="70" cy="1410" r="6" class="c0"/>
<circle cx="1340" cy="794" r="6" class="c0"/>
<circle cx="1510" cy="732" r="6" class="c0"/>
<circle cx="1314" cy="676" r="6" class="c0"/>
<circle cx="1282" cy="536" r="6" class="c0"/>
<circle cx="96" cy="1388" r="6" class="c0"/>
<circle cx="136" cy="1270" r="6" class="c0"/>
<circle cx="1844" cy="790" r="6" class="c0"/>
<circle cx="1770" cy="800" r="6" class="c0"/>
<circle cx="1254" cy="806" r="6" class="c0"/>
<circle cx="1162" cy="800" r="6" class="c0"/>
<circle cx="1090" cy="752" r="6" class="c0"/>
<circle cx="1632" cy="856" r="6" class="c0"/>
<circle cx="1398" cy="598" r="6" class="c0"/>
<circle cx="84" cy="1072" r="6" class="c0"/>
<circle cx="126" cy="1026" r="6" class="c0"/>
<circle cx="142" cy="1042" r="6" class="c0"/>
<circle cx="84" cy="1366" r="6" class="c0"/>
<circle cx="1420" cy="778" r="6" class="c0"/>
<circle cx="1614" cy="656" r="6" class="c0"/>
<circle cx="1830" cy="710" r="6" class="c0"/>
<circle cx="1292" cy="610" r="6" class="c0"/>
<circle cx="1752" cy="676" r="6" class="c0"/>
<circle cx="24" cy="1082" r="6" class="c0"/>
<circle cx="1862" cy="742" r="6" class="c0"/>
<circle cx="112" cy="1178" r="6" class="c0"/>
<circle cx="1448" cy="862" r="6" class="c0"/>
<circle cx="134" cy="1350" r="6" class="c0"/>
<circle cx="136" cy="1390" r="6" class="c0"/>
<circle cx="118" cy="992" r="6" class="c0"/>
<circle cx="94" cy="1432" r="6" class="c0"/>
<circle cx="72" cy="1336" r="6" class="c0"/>
<circle cx="1796" cy="868" r="6" class="c0"/>
<circle cx="1672" cy="828" r="6" class="c0"/>
<circle cx="1872" cy="760" r="6" class="c0"/>
<circle cx="1348" cy="656" r="6" class="c0"/>
<circle cx="120" cy="1274" r="6" class="c0"/>
<circle cx="96" cy="1408" r="6" class="c0"/>
<circle cx="28" cy="1414" r="6" class="c0"/>
<circle cx="1350" cy="498" r="6" class="c0"/>
<circle cx="134" cy="1316" r="6" class="c0"/>
<circle cx="1316" cy="824" r="6" class="c0"/>
<circle cx="156" cy="1046" r="6" class="c0"/>
<circle cx="1828" cy="810" r="6" class="c0"/>
<circle cx="1404" cy="736" r="6" class="c0"/>
<circle cx="1584" cy="850" r="6" class="c0"/>
<circle cx="1596" cy="822" r="6" class="c0"/>
<circle cx="1226" cy="340" r="6" class="c0"/>
<circle cx="114" cy="1078" r="6" class="c0"/>
<circle cx="1536" cy="716" r="6" class="c0"/>
<circle cx="1488" cy="624" r="6" class="c0"/>
<circle cx="1626" cy="804" r="6" class="c0"/>
<circle cx="1390" cy="836" r="6" class="c0"/>
</svg>
