<?xml version="1.0" encoding="utf-8"?>
<svg xmlns="http://www.w3.org/2000/svg"
     xmlns:xlink="http://www.w3.org/1999/xlink" width="1920" height="1440" >

            <defs>
            <style type="text/css"><![CDATA[
circle {stroke: none;}
.c0 {fill: #FFFFFF;}
]]></style>
            </defs>
<rect x="0" y="0" width="1920" height="1440" fill="black"/>
<circle cx="614" cy="1184" r="14" class="c0"/>
<circle cx="1318" cy="442" r="14" class="c0"/>
<circle cx="1376" cy="728" r="12" class="c0"/>
<circle cx="1312" cy="728" r="12" class="c0"/>
<circle cx="1442" cy="666" r="12" class="c0"/>
<circle cx="94" cy="1212" r="12" class="c0"/>
<circle cx="78" cy="1284" r="12" class="c0"/>
<circle cx="768" cy="1262" r="12" class="c0"/>
<circle cx="1216" cy="764" r="12" class="c0"/>
<circle cx="148" cy="1098" r="12" class="c0"/>
<circle cx="1340" cy="806" r="12" class="c0"/>
<circle cx="208" cy="1362" r="12" class="c0"/>
<circle cx="1410" cy="722" r="12" class="c0"/>
<circle cx="566" cy="1406" r="12" class="c0"/>
<circle cx="32" cy="1176" r="12" class="c0"/>
<circle cx="126" cy="1344" r="12" class="c0"/>
<circle cx="760" cy="1072" r="12" class="c0"/>
<circle cx="1300" cy="602" r="12" class="c0"/>
<circle cx="1200" cy="474" r="12" class="c0"/>
<circle cx="1240" cy="550" r="12" class="c0"/>
<circle cx="268" cy="1324" r="12" class="c0"/>
<circle cx="1424" cy="648" r="12" class="c0"/>
<circle cx="332" cy="1228" r="12" class="c0"/>
<circle cx="1260" cy="574" r="12" class="c0"/>
<circle cx="170" cy="1242" r="12" class="c0"/>
<circle cx="220" cy="992" r="12" class="c0"/>
<circle cx="304" cy="1248" r="12" class="c0"/>
<circle cx="42" cy="1394" r="12" class="c0"/>
<circle cx="598" cy="1352" r="12" class="c0"/>
<circle cx="246" cy="1186" r="12" class="c0"/>
<circle cx="680" cy="1212" r="12" class="c0"/>
<circle cx="626" cy="1290" r="12" class="c0"/>
<circle cx="1256" cy="654" r="12" class="c0"/>
<circle cx="198" cy="1200" r="12" class="c0"/>
<circle cx="690" cy="1302" r="12" class="c0"/>
<circle cx="112" cy="1266" r="12" class="c0"/>
<circle cx="1356" cy="578" r="12" class="c0"/>
<circle cx="772" cy="1152" r="12" class="c0"/>
<circle cx="234" cy="1034" r="12" class="c0"/>
<circle cx="1220" cy="726" r="12" class="c0"/>
<circle cx="82" cy="1182" r="12" class="c0"/>
<circle cx="638" cy="1358" r="12" class="c0"/>
<circle cx="354" cy="1206" r="12" class="c0"/>
<circle cx="202" cy="1248" r="12" class="c0"/>
<circle cx="506" cy="1286" r="12" class="c0"/>
<circle cx="264" cy="1420" r="12" class="c0"/>
<circle cx="96" cy="1138" r="12" class="c0"/>
<circle cx="590" cy="1290" r="12" class="c0"/>
<circle cx="142" cy="1304" r="12" class="c0"/>
<circle cx="1278" cy="552" r="12" class="c0"/>
<circle cx="1278" cy="432" r="12" class="c0"/>
<circle cx="1520" cy="662" r="12" class="c0"/>
<circle cx="452" cy="1230" r="12" class="c0"/>
<circle cx="274" cy="1350" r="12" class="c0"/>
<circle cx="324" cy="1168" r="12" class="c0"/>
<circle cx="530" cy="1314" r="12" class="c0"/>
<circle cx="528" cy="1394" r="12" class="c0"/>
<circle cx="482" cy="1232" r="12" class="c0"/>
<circle cx="432" cy="1352" r="12" class="c0"/>
<circle cx="1514" cy="756" r="12" class="c0"/>
<circle cx="24" cy="1306" r="12" class="c0"/>
<circle cx="1340" cy="640" r="12" class="c0"/>
<circle cx="180" cy="1216" r="12" class="c0"/>
<circle cx="104" cy="1074" r="12" class="c0"/>
<circle cx="414" cy="1398" r="12" class="c0"/>
<circle cx="338" cy="1426" r="12" class="c0"/>
<circle cx="34" cy="1336" r="12" class="c0"/>
<circle cx="1420" cy="696" r="12" class="c0"/>
<circle cx="1346" cy="422" r="12" class="c0"/>
<circle cx="160" cy="1016" r="12" class="c0"/>
<circle cx="1356" cy="714" r="12" class="c0"/>
<circle cx="24" cy="1278" r="12" class="c0"/>
<circle cx="658" cy="1324" r="10" class="c0"/>
<circle cx="48" cy="1280" r="10" class="c0"/>
<circle cx="1458" cy="754" r="10" class="c0"/>
<circle cx="424" cy="1420" r="10" class="c0"/>
<circle cx="1256" cy="456" r="10" class="c0"/>
<circle cx="170" cy="1312" r="10" class="c0"/>
<circle cx="288" cy="1164" r="10" class="c0"/>
<circle cx="220" cy="1144" r="10" class="c0"/>
<circle cx="1434" cy="732" r="10" class="c0"/>
<circle cx="210" cy="954" r="10" class="c0"/>
<circle cx="466" cy="1150" r="10" class="c0"/>
<circle cx="210" cy="914" r="10" class="c0"/>
<circle cx="740" cy="1126" r="10" class="c0"/>
<circle cx="146" cy="1410" r="10" class="c0"/>
<circle cx="1228" cy="676" r="10" class="c0"/>
<circle cx="1236" cy="604" r="10" class="c0"/>
<circle cx="1342" cy="740" r="10" class="c0"/>
<circle cx="654" cy="1378" r="10" class="c0"/>
<circle cx="266" cy="1002" r="10" class="c0"/>
<circle cx="1266" cy="322" r="10" class="c0"/>
<circle cx="124" cy="1418" r="10" class="c0"/>
<circle cx="144" cy="1220" r="10" class="c0"/>
<circle cx="728" cy="1162" r="10" class="c0"/>
<circle cx="166" cy="1174" r="10" class="c0"/>
<circle cx="84" cy="1426" r="10" class="c0"/>
<circle cx="732" cy="1030" r="10" class="c0"/>
<circle cx="164" cy="1114" r="10" class="c0"/>
<circle cx="368" cy="1424" r="10" class="c0"/>
<circle cx="708" cy="1250" r="10" class="c0"/>
<circle cx="194" cy="1406" r="10" class="c0"/>
<circle cx="370" cy="1258" r="10" class="c0"/>
<circle cx="100" cy="1162" r="10" class="c0"/>
<circle cx="546" cy="1220" r="10" class="c0"/>
<circle cx="1262" cy="490" r="10" class="c0"/>
<circle cx="124" cy="1318" r="10" class="c0"/>
<circle cx="1290" cy="720" r="10" class="c0"/>
<circle cx="698" cy="1424" r="10" class="c0"/>
<circle cx="624" cy="1338" r="10" class="c0"/>
<circle cx="154" cy="1202" r="10" class="c0"/>
<circle cx="578" cy="1208" r="10" class="c0"/>
<circle cx="324" cy="1392" r="10" class="c0"/>
<circle cx="204" cy="1330" r="10" class="c0"/>
<circle cx="352" cy="1076" r="10" class="c0"/>
<circle cx="476" cy="1428" r="10" class="c0"/>
<circle cx="1258" cy="610" r="10" class="c0"/>
<circle cx="546" cy="1142" r="10" class="c0"/>
<circle cx="316" cy="1310" r="10" class="c0"/>
<circle cx="328" cy="1278" r="10" class="c0"/>
<circle cx="652" cy="1236" r="10" class="c0"/>
<circle cx="1126" cy="420" r="10" class="c0"/>
<circle cx="598" cy="1144" r="10" class="c0"/>
<circle cx="1384" cy="678" r="10" class="c0"/>
<circle cx="246" cy="1368" r="10" class="c0"/>
<circle cx="388" cy="1294" r="10" class="c0"/>
<circle cx="270" cy="1054" r="10" class="c0"/>
<circle cx="1220" cy="338" r="10" class="c0"/>
<circle cx="386" cy="1230" r="10" class="c0"/>
<circle cx="776" cy="1428" r="10" class="c0"/>
<circle cx="112" cy="1120" r="10" class="c0"/>
<circle cx="434" cy="1138" r="10" class="c0"/>
<circle cx="1232" cy="708" r="10" class="c0"/>
<circle cx="1452" cy="638" r="10" class="c0"/>
<circle cx="264" cy="1278" r="10" class="c0"/>
<circle cx="342" cy="1266" r="10" class="c0"/>
<circle cx="200" cy="1056" r="10" class="c0"/>
<circle cx="698" cy="1336" r="10" class="c0"/>
<circle cx="1222" cy="370" r="10" class="c0"/>
<circle cx="510" cy="1346" r="10" class="c0"/>
<circle cx="130" cy="1164" r="10" class="c0"/>
<circle cx="1236" cy="312" r="10" class="c0"/>
<circle cx="206" cy="1124" r="10" class="c0"/>
<circle cx="162" cy="974" r="10" class="c0"/>
<circle cx="236" cy="1296" r="10" class="c0"/>
<circle cx="608" cy="1418" r="10" class="c0"/>
<circle cx="634" cy="1216" r="10" class="c0"/>
<circle cx="676" cy="1416" r="10" class="c0"/>
<circle cx="1316" cy="770" r="10" class="c0"/>
<circle cx="52" cy="1224" r="10" class="c0"/>
<circle cx="568" cy="1282" r="10" class="c0"/>
<circle cx="476" cy="1304" r="10" class="c0"/>
<circle cx="726" cy="1424" r="10" class="c0"/>
<circle cx="1262" cy="526" r="10" class="c0"/>
<circle cx="556" cy="1364" r="10" class="c0"/>
<circle cx="1200" cy="400" r="10" class="c0"/>
<circle cx="390" cy="1388" r="10" class="c0"/>
<circle cx="262" cy="1222" r="10" class="c0"/>
<circle cx="104" cy="1334" r="10" class="c0"/>
<circle cx="1372" cy="556" r="10" class="c0"/>
<circle cx="342" cy="1130" r="10" class="c0"/>
<circle cx="574" cy="1184" r="10" class="c0"/>
<circle cx="776" cy="1026" r="10" class="c0"/>
<circle cx="1308" cy="406" r="10" class="c0"/>
<circle cx="142" cy="1036" r="10" class="c0"/>
<circle cx="1230" cy="512" r="10" class="c0"/>
<circle cx="514" cy="1164" r="10" class="c0"/>
<circle cx="78" cy="1334" r="10" class="c0"/>
<circle cx="178" cy="954" r="10" class="c0"/>
<circle cx="1512" cy="728" r="10" class="c0"/>
<circle cx="630" cy="1152" r="10" class="c0"/>
<circle cx="748" cy="1314" r="10" class="c0"/>
<circle cx="116" cy="1196" r="10" class="c0"/>
<circle cx="246" cy="1014" r="10" class="c0"/>
<circle cx="530" cy="1270" r="10" class="c0"/>
<circle cx="1200" cy="438" r="10" class="c0"/>
<circle cx="178" cy="1394" r="10" class="c0"/>
<circle cx="212" cy="1096" r="10" class="c0"/>
<circle cx="732" cy="1376" r="10" class="c0"/>
<circle cx="592" cy="1248" r="10" class="c0"/>
<circle cx="184" cy="1340" r="10" class="c0"/>
<circle cx="1362" cy="656" r="10" class="c0"/>
<circle cx="218" cy="1342" r="10" class="c0"/>
<circle cx="320" cy="1342" r="10" class="c0"/>
<circle cx="370" cy="1170" r="10" class="c0"/>
<circle cx="112" cy="1398" r="10" class="c0"/>
<circle cx="1256" cy="364" r="10" class="c0"/>
<circle cx="738" cy="1254" r="10" class="c0"/>
<circle cx="468" cy="1332" r="10" class="c0"/>
<circle cx="1422" cy="776" r="10" class="c0"/>
<circle cx="450" cy="1398" r="10" class="c0"/>
<circle cx="218" cy="1072" r="10" class="c0"/>
<circle cx="330" cy="1196" r="10" class="c0"/>
<circle cx="428" cy="1228" r="10" class="c0"/>
<circle cx="430" cy="1200" r="10" class="c0"/>
<circle cx="254" cy="1148" r="10" class="c0"/>
<circle cx="494" cy="1362" r="10" class="c0"/>
<circle cx="136" cy="1118" r="10" class="c0"/>
<circle cx="466" cy="1200" r="10" class="c0"/>
<circle cx="402" cy="1354" r="10" class="c0"/>
<circle cx="736" cy="1342" r="10" class="c0"/>
<circle cx="474" cy="1270" r="10" class="c0"/>
<circle cx="254" cy="1394" r="10" class="c0"/>
<circle cx="12" cy="1208" r="10" class="c0"/>
<circle cx="410" cy="1138" r="10" class="c0"/>
<circle cx="200" cy="848" r="10" class="c0"/>
<circle cx="1456" cy="610" r="10" class="c0"/>
<circle cx="1442" cy="704" r="10" class="c0"/>
<circle cx="60" cy="1308" r="10" class="c0"/>
<circle cx="768" cy="1186" r="10" class="c0"/>
<circle cx="576" cy="1324" r="10" class="c0"/>
<circle cx="1208" cy="702" r="10" class="c0"/>
<circle cx="382" cy="1198" r="10" class="c0"/>
<circle cx="70" cy="1372" r="10" class="c0"/>
<circle cx="234" cy="1330" r="10" class="c0"/>
<circle cx="70" cy="1406" r="10" class="c0"/>
<circle cx="1276" cy="502" r="10" class="c0"/>
<circle cx="174" cy="1138" r="10" class="c0"/>
<circle cx="694" cy="1276" r="10" class="c0"/>
<circle cx="108" cy="1300" r="10" class="c0"/>
<circle cx="512" cy="1416" r="10" class="c0"/>
<circle cx="490" cy="1330" r="10" class="c0"/>
<circle cx="538" cy="1424" r="10" class="c0"/>
<circle cx="294" cy="1228" r="10" class="c0"/>
<circle cx="1414" cy="668" r="10" class="c0"/>
<circle cx="104" cy="1014" r="10" class="c0"/>
<circle cx="14" cy="1164" r="10" class="c0"/>
<circle cx="652" cy="1266" r="10" class="c0"/>
<circle cx="312" cy="1210" r="10" class="c0"/>
<circle cx="310" cy="1364" r="10" class="c0"/>
<circle cx="168" cy="1050" r="10" class="c0"/>
<circle cx="1224" cy="802" r="10" class="c0"/>
<circle cx="1322" cy="620" r="10" class="c0"/>
<circle cx="760" cy="1232" r="10" class="c0"/>
<circle cx="1294" cy="464" r="10" class="c0"/>
<circle cx="1296" cy="418" r="10" class="c0"/>
<circle cx="334" cy="1108" r="10" class="c0"/>
<circle cx="730" cy="1096" r="10" class="c0"/>
<circle cx="88" cy="1386" r="10" class="c0"/>
<circle cx="1494" cy="780" r="10" class="c0"/>
<circle cx="1472" cy="650" r="10" class="c0"/>
<circle cx="1366" cy="784" r="10" class="c0"/>
<circle cx="358" cy="1288" r="10" class="c0"/>
<circle cx="1220" cy="456" r="10" class="c0"/>
<circle cx="52" cy="1350" r="10" class="c0"/>
<circle cx="694" cy="1380" r="10" class="c0"/>
<circle cx="1158" cy="764" r="10" class="c0"/>
<circle cx="1222" cy="534" r="10" class="c0"/>
<circle cx="1178" cy="412" r="10" class="c0"/>
<circle cx="1232" cy="750" r="10" class="c0"/>
<circle cx="766" cy="1402" r="10" class="c0"/>
<circle cx="228" cy="1256" r="10" class="c0"/>
<circle cx="1300" cy="632" r="10" class="c0"/>
<circle cx="178" cy="1276" r="8" class="c0"/>
<circle cx="606" cy="1220" r="8" class="c0"/>
<circle cx="148" cy="1144" r="8" class="c0"/>
<circle cx="246" cy="1264" r="8" class="c0"/>
<circle cx="1320" cy="466" r="8" class="c0"/>
<circle cx="496" cy="1306" r="8" class="c0"/>
<circle cx="228" cy="1056" r="8" class="c0"/>
<circle cx="192" cy="1150" r="8" class="c0"/>
<circle cx="1180" cy="756" r="8" class="c0"/>
<circle cx="260" cy="1026" r="8" class="c0"/>
<circle cx="766" cy="1006" r="8" class="c0"/>
<circle cx="774" cy="1130" r="8" class="c0"/>
<circle cx="574" cy="1154" r="8" class="c0"/>
<circle cx="602" cy="1398" r="8" class="c0"/>
<circle cx="370" cy="1144" r="8" class="c0"/>
<circle cx="1242" cy="528" r="8" class="c0"/>
<circle cx="8" cy="1414" r="8" class="c0"/>
<circle cx="300" cy="1422" r="8" class="c0"/>
<circle cx="280" cy="1030" r="8" class="c0"/>
<circle cx="430" cy="1284" r="8" class="c0"/>
<circle cx="1434" cy="612" r="8" class="c0"/>
<circle cx="1322" cy="578" r="8" class="c0"/>
<circle cx="588" cy="1372" r="8" class="c0"/>
<circle cx="676" cy="1340" r="8" class="c0"/>
<circle cx="408" cy="1160" r="8" class="c0"/>
<circle cx="1192" cy="516" r="8" class="c0"/>
<circle cx="1416" cy="624" r="8" class="c0"/>
<circle cx="280" cy="1300" r="8" class="c0"/>
<circle cx="1254" cy="400" r="8" class="c0"/>
<circle cx="1352" cy="600" r="8" class="c0"/>
<circle cx="98" cy="1412" r="8" class="c0"/>
<circle cx="340" cy="1382" r="8" class="c0"/>
<circle cx="1302" cy="704" r="8" class="c0"/>
<circle cx="1334" cy="710" r="8" class="c0"/>
<circle cx="640" cy="1314" r="8" class="c0"/>
<circle cx="284" cy="1264" r="8" class="c0"/>
<circle cx="1260" cy="738" r="8" class="c0"/>
<circle cx="762" cy="1340" r="8" class="c0"/>
<circle cx="366" cy="1340" r="8" class="c0"/>
<circle cx="428" cy="1256" r="8" class="c0"/>
<circle cx="668" cy="1154" r="8" class="c0"/>
<circle cx="1476" cy="804" r="8" class="c0"/>
<circle cx="322" cy="1078" r="8" class="c0"/>
<circle cx="272" cy="1128" r="8" class="c0"/>
<circle cx="244" cy="1348" r="8" class="c0"/>
<circle cx="314" cy="1142" r="8" class="c0"/>
<circle cx="1276" cy="356" r="8" class="c0"/>
<circle cx="506" cy="1234" r="8" class="c0"/>
<circle cx="222" cy="970" r="8" class="c0"/>
<circle cx="1268" cy="386" r="8" class="c0"/>
<circle cx="190" cy="1038" r="8" class="c0"/>
<circle cx="1414" cy="746" r="8" class="c0"/>
<circle cx="1236" cy="390" r="8" class="c0"/>
<circle cx="554" cy="1332" r="8" class="c0"/>
<circle cx="700" cy="1202" r="8" class="c0"/>
<circle cx="188" cy="1008" r="8" class="c0"/>
<circle cx="456" cy="1288" r="8" class="c0"/>
<circle cx="390" cy="1416" r="8" class="c0"/>
<circle cx="638" cy="1426" r="8" class="c0"/>
<circle cx="296" cy="1196" r="8" class="c0"/>
<circle cx="1486" cy="718" r="8" class="c0"/>
<circle cx="238" cy="1404" r="8" class="c0"/>
<circle cx="1186" cy="714" r="8" class="c0"/>
<circle cx="290" cy="1098" r="8" class="c0"/>
<circle cx="1376" cy="634" r="8" class="c0"/>
<circle cx="1508" cy="692" r="8" class="c0"/>
<circle cx="698" cy="1222" r="8" class="c0"/>
<circle cx="172" cy="1090" r="8" class="c0"/>
<circle cx="166" cy="908" r="8" class="c0"/>
<circle cx="750" cy="1166" r="8" class="c0"/>
<circle cx="1130" cy="738" r="8" class="c0"/>
<circle cx="146" cy="1176" r="8" class="c0"/>
<circle cx="488" cy="1208" r="8" class="c0"/>
<circle cx="384" cy="1108" r="8" class="c0"/>
<circle cx="596" cy="1312" r="8" class="c0"/>
<circle cx="684" cy="1364" r="8" class="c0"/>
<circle cx="1244" cy="498" r="8" class="c0"/>
<circle cx="1322" cy="498" r="8" class="c0"/>
<circle cx="734" cy="1210" r="8" class="c0"/>
<circle cx="426" cy="1168" r="8" class="c0"/>
<circle cx="666" cy="1358" r="8" class="c0"/>
<circle cx="124" cy="1136" r="8" class="c0"/>
<circle cx="528" cy="1336" r="8" class="c0"/>
<circle cx="1298" cy="680" r="8" class="c0"/>
<circle cx="1332" cy="668" r="8" class="c0"/>
<circle cx="196" cy="902" r="8" class="c0"/>
<circle cx="486" cy="1382" r="8" class="c0"/>
<circle cx="660" cy="1290" r="8" class="c0"/>
<circle cx="726" cy="1226" r="8" class="c0"/>
<circle cx="290" cy="1016" r="8" class="c0"/>
<circle cx="1248" cy="434" r="8" class="c0"/>
<circle cx="350" cy="1178" r="8" class="c0"/>
<circle cx="202" cy="1294" r="8" class="c0"/>
<circle cx="1390" cy="798" r="8" class="c0"/>
<circle cx="1468" cy="734" r="8" class="c0"/>
<circle cx="712" cy="1324" r="8" class="c0"/>
<circle cx="1222" cy="430" r="8" class="c0"/>
<circle cx="1208" cy="670" r="8" class="c0"/>
<circle cx="1278" cy="670" r="8" class="c0"/>
<circle cx="556" cy="1302" r="8" class="c0"/>
<circle cx="108" cy="1364" r="8" class="c0"/>
<circle cx="360" cy="1236" r="8" class="c0"/>
<circle cx="544" cy="1172" r="8" class="c0"/>
<circle cx="534" cy="1190" r="8" class="c0"/>
<circle cx="642" cy="1396" r="8" class="c0"/>
<circle cx="674" cy="1386" r="8" class="c0"/>
<circle cx="1158" cy="714" r="8" class="c0"/>
<circle cx="88" cy="1350" r="8" class="c0"/>
<circle cx="504" cy="1398" r="8" class="c0"/>
<circle cx="276" cy="1084" r="8" class="c0"/>
<circle cx="144" cy="1268" r="8" class="c0"/>
<circle cx="708" cy="1398" r="8" class="c0"/>
<circle cx="486" cy="1180" r="8" class="c0"/>
<circle cx="16" cy="1346" r="8" class="c0"/>
<circle cx="754" cy="1360" r="8" class="c0"/>
<circle cx="1350" cy="684" r="8" class="c0"/>
<circle cx="750" cy="1044" r="8" class="c0"/>
<circle cx="462" cy="1180" r="8" class="c0"/>
<circle cx="340" cy="1152" r="8" class="c0"/>
<circle cx="1336" cy="844" r="8" class="c0"/>
<circle cx="278" cy="1246" r="8" class="c0"/>
<circle cx="758" cy="1108" r="8" class="c0"/>
<circle cx="116" cy="1054" r="8" class="c0"/>
<circle cx="238" cy="1430" r="8" class="c0"/>
<circle cx="1472" cy="702" r="8" class="c0"/>
<circle cx="1358" cy="758" r="8" class="c0"/>
<circle cx="528" cy="1230" r="8" class="c0"/>
<circle cx="726" cy="1064" r="8" class="c0"/>
<circle cx="362" cy="1374" r="8" class="c0"/>
<circle cx="370" cy="1056" r="8" class="c0"/>
<circle cx="778" cy="1366" r="8" class="c0"/>
<circle cx="1476" cy="622" r="8" class="c0"/>
<circle cx="10" cy="1254" r="8" class="c0"/>
<circle cx="538" cy="1352" r="8" class="c0"/>
<circle cx="128" cy="1184" r="8" class="c0"/>
<circle cx="1196" cy="736" r="8" class="c0"/>
<circle cx="442" cy="1266" r="8" class="c0"/>
<circle cx="104" cy="992" r="8" class="c0"/>
<circle cx="290" cy="1136" r="8" class="c0"/>
<circle cx="1170" cy="392" r="8" class="c0"/>
<circle cx="1466" cy="682" r="8" class="c0"/>
<circle cx="758" cy="1208" r="8" class="c0"/>
<circle cx="1390" cy="652" r="8" class="c0"/>
<circle cx="102" cy="1246" r="8" class="c0"/>
<circle cx="146" cy="1000" r="8" class="c0"/>
<circle cx="208" cy="1276" r="8" class="c0"/>
<circle cx="1280" cy="620" r="8" class="c0"/>
<circle cx="362" cy="1402" r="8" class="c0"/>
<circle cx="282" cy="990" r="8" class="c0"/>
<circle cx="1196" cy="560" r="8" class="c0"/>
<circle cx="392" cy="1314" r="8" class="c0"/>
<circle cx="66" cy="1204" r="8" class="c0"/>
<circle cx="1294" cy="526" r="8" class="c0"/>
<circle cx="1374" cy="604" r="8" class="c0"/>
<circle cx="302" cy="1178" r="8" class="c0"/>
<circle cx="274" cy="1400" r="8" class="c0"/>
<circle cx="122" cy="982" r="8" class="c0"/>
<circle cx="404" cy="1330" r="8" class="c0"/>
<circle cx="620" cy="1374" r="8" class="c0"/>
<circle cx="1404" cy="604" r="8" class="c0"/>
<circle cx="158" cy="1358" r="8" class="c0"/>
<circle cx="1426" cy="806" r="8" class="c0"/>
<circle cx="346" cy="1350" r="8" class="c0"/>
<circle cx="218" cy="1418" r="8" class="c0"/>
<circle cx="96" cy="1040" r="8" class="c0"/>
<circle cx="246" cy="1118" r="8" class="c0"/>
<circle cx="774" cy="1090" r="8" class="c0"/>
<circle cx="1218" cy="500" r="8" class="c0"/>
<circle cx="1244" cy="696" r="8" class="c0"/>
<circle cx="1496" cy="746" r="8" class="c0"/>
<circle cx="598" cy="1268" r="8" class="c0"/>
<circle cx="580" cy="1420" r="8" class="c0"/>
<circle cx="56" cy="1254" r="8" class="c0"/>
<circle cx="146" cy="1240" r="8" class="c0"/>
<circle cx="120" cy="1230" r="8" class="c0"/>
<circle cx="448" cy="1318" r="8" class="c0"/>
<circle cx="730" cy="1306" r="8" class="c0"/>
<circle cx="12" cy="1368" r="8" class="c0"/>
<circle cx="296" cy="1328" r="8" class="c0"/>
<circle cx="1278" cy="600" r="8" class="c0"/>
<circle cx="766" cy="1288" r="8" class="c0"/>
<circle cx="788" cy="1170" r="8" class="c0"/>
<circle cx="632" cy="1408" r="8" class="c0"/>
<circle cx="246" cy="1050" r="8" class="c0"/>
<circle cx="1282" cy="480" r="8" class="c0"/>
<circle cx="364" cy="1112" r="8" class="c0"/>
<circle cx="192" cy="970" r="8" class="c0"/>
<circle cx="746" cy="1002" r="8" class="c0"/>
<circle cx="1232" cy="416" r="8" class="c0"/>
<circle cx="124" cy="1380" r="8" class="c0"/>
<circle cx="1200" cy="540" r="8" class="c0"/>
<circle cx="732" cy="1278" r="8" class="c0"/>
<circle cx="782" cy="1206" r="8" class="c0"/>
<circle cx="388" cy="1088" r="8" class="c0"/>
<circle cx="1272" cy="404" r="8" class="c0"/>
<circle cx="1492" cy="634" r="8" class="c0"/>
<circle cx="724" cy="1192" r="8" class="c0"/>
<circle cx="380" cy="1366" r="8" class="c0"/>
<circle cx="660" cy="1170" r="8" class="c0"/>
<circle cx="114" cy="1100" r="8" class="c0"/>
<circle cx="286" cy="1066" r="8" class="c0"/>
<circle cx="558" cy="1248" r="8" class="c0"/>
<circle cx="366" cy="1092" r="8" class="c0"/>
<circle cx="390" cy="1252" r="8" class="c0"/>
<circle cx="1300" cy="562" r="8" class="c0"/>
<circle cx="334" cy="1302" r="8" class="c0"/>
<circle cx="142" cy="1376" r="8" class="c0"/>
<circle cx="292" cy="1406" r="8" class="c0"/>
<circle cx="1396" cy="780" r="8" class="c0"/>
<circle cx="408" cy="1234" r="8" class="c0"/>
<circle cx="160" cy="1290" r="8" class="c0"/>
<circle cx="176" cy="996" r="8" class="c0"/>
<circle cx="436" cy="1306" r="8" class="c0"/>
<circle cx="172" cy="1430" r="8" class="c0"/>
<circle cx="1234" cy="578" r="8" class="c0"/>
<circle cx="26" cy="1234" r="8" class="c0"/>
<circle cx="1260" cy="418" r="8" class="c0"/>
<circle cx="648" cy="1416" r="8" class="c0"/>
<circle cx="1280" cy="376" r="8" class="c0"/>
<circle cx="1234" cy="638" r="8" class="c0"/>
<circle cx="136" cy="1068" r="8" class="c0"/>
<circle cx="1396" cy="740" r="8" class="c0"/>
<circle cx="446" cy="1378" r="8" class="c0"/>
<circle cx="506" cy="1194" r="8" class="c0"/>
<circle cx="608" cy="1300" r="8" class="c0"/>
<circle cx="426" cy="1330" r="8" class="c0"/>
<circle cx="230" cy="1162" r="8" class="c0"/>
<circle cx="1232" cy="828" r="8" class="c0"/>
<circle cx="92" cy="1322" r="8" class="c0"/>
<circle cx="1280" cy="748" r="8" class="c0"/>
<circle cx="174" cy="1370" r="8" class="c0"/>
<circle cx="770" cy="1316" r="8" class="c0"/>
<circle cx="718" cy="1292" r="8" class="c0"/>
<circle cx="218" cy="1384" r="8" class="c0"/>
<circle cx="126" cy="1086" r="8" class="c0"/>
<circle cx="482" cy="1132" r="8" class="c0"/>
<circle cx="1244" cy="782" r="8" class="c0"/>
<circle cx="228" cy="1278" r="8" class="c0"/>
<circle cx="334" cy="1048" r="8" class="c0"/>
<circle cx="1142" cy="408" r="8" class="c0"/>
<circle cx="44" cy="1154" r="8" class="c0"/>
<circle cx="250" cy="1246" r="8" class="c0"/>
<circle cx="1458" cy="786" r="8" class="c0"/>
<circle cx="156" cy="1388" r="8" class="c0"/>
<circle cx="218" cy="1208" r="8" class="c0"/>
<circle cx="1172" cy="732" r="8" class="c0"/>
<circle cx="266" cy="1258" r="8" class="c0"/>
<circle cx="786" cy="1286" r="8" class="c0"/>
<circle cx="1172" cy="690" r="8" class="c0"/>
<circle cx="1196" cy="778" r="8" class="c0"/>
<circle cx="492" cy="1162" r="8" class="c0"/>
<circle cx="1490" cy="678" r="8" class="c0"/>
<circle cx="688" cy="1188" r="8" class="c0"/>
<circle cx="1224" cy="564" r="8" class="c0"/>
<circle cx="1332" cy="564" r="8" class="c0"/>
<circle cx="406" cy="1282" r="8" class="c0"/>
<circle cx="618" cy="1314" r="8" class="c0"/>
<circle cx="1468" cy="774" r="8" class="c0"/>
<circle cx="548" cy="1280" r="8" class="c0"/>
<circle cx="1276" cy="640" r="8" class="c0"/>
<circle cx="224" cy="1310" r="8" class="c0"/>
<circle cx="348" cy="1030" r="8" class="c0"/>
<circle cx="446" cy="1422" r="8" class="c0"/>
<circle cx="514" cy="1252" r="8" class="c0"/>
<circle cx="380" cy="1276" r="8" class="c0"/>
<circle cx="456" cy="1368" r="8" class="c0"/>
<circle cx="290" cy="1386" r="8" class="c0"/>
<circle cx="1246" cy="722" r="8" class="c0"/>
<circle cx="198" cy="1170" r="8" class="c0"/>
<circle cx="218" cy="1232" r="8" class="c0"/>
<circle cx="218" cy="1180" r="8" class="c0"/>
<circle cx="80" cy="1228" r="8" class="c0"/>
<circle cx="36" cy="1420" r="8" class="c0"/>
<circle cx="458" cy="1258" r="8" class="c0"/>
<circle cx="492" cy="1258" r="8" class="c0"/>
<circle cx="506" cy="1378" r="8" class="c0"/>
<circle cx="658" cy="1430" r="8" class="c0"/>
<circle cx="1274" cy="690" r="8" class="c0"/>
<circle cx="1234" cy="488" r="8" class="c0"/>
<circle cx="278" cy="1190" r="8" class="c0"/>
<circle cx="440" cy="1184" r="8" class="c0"/>
<circle cx="360" cy="1044" r="8" class="c0"/>
<circle cx="1210" cy="584" r="8" class="c0"/>
<circle cx="756" cy="1138" r="8" class="c0"/>
<circle cx="1224" cy="654" r="8" class="c0"/>
<circle cx="626" cy="1252" r="8" class="c0"/>
<circle cx="222" cy="942" r="8" class="c0"/>
<circle cx="46" cy="1194" r="8" class="c0"/>
<circle cx="216" cy="1014" r="8" class="c0"/>
<circle cx="682" cy="1250" r="8" class="c0"/>
<circle cx="160" cy="1332" r="8" class="c0"/>
<circle cx="394" cy="1186" r="8" class="c0"/>
<circle cx="124" cy="1020" r="8" class="c0"/>
<circle cx="622" cy="1398" r="8" class="c0"/>
<circle cx="1258" cy="770" r="8" class="c0"/>
<circle cx="1222" cy="624" r="8" class="c0"/>
<circle cx="528" cy="1208" r="8" class="c0"/>
<circle cx="188" cy="1100" r="8" class="c0"/>
<circle cx="236" cy="1090" r="8" class="c0"/>
<circle cx="776" cy="1112" r="8" class="c0"/>
<circle cx="738" cy="1396" r="8" class="c0"/>
<circle cx="208" cy="1032" r="8" class="c0"/>
<circle cx="190" cy="1380" r="8" class="c0"/>
<circle cx="1380" cy="768" r="8" class="c0"/>
<circle cx="556" cy="1194" r="8" class="c0"/>
<circle cx="1486" cy="762" r="8" class="c0"/>
<circle cx="56" cy="1176" r="8" class="c0"/>
<circle cx="590" cy="1194" r="8" class="c0"/>
<circle cx="180" cy="1024" r="8" class="c0"/>
<circle cx="1354" cy="832" r="8" class="c0"/>
<circle cx="248" cy="982" r="8" class="c0"/>
<circle cx="1320" cy="648" r="8" class="c0"/>
<circle cx="198" cy="1430" r="8" class="c0"/>
<circle cx="120" cy="1286" r="8" class="c0"/>
<circle cx="1324" cy="790" r="8" class="c0"/>
<circle cx="196" cy="876" r="8" class="c0"/>
<circle cx="134" cy="1256" r="8" class="c0"/>
<circle cx="664" cy="1254" r="8" class="c0"/>
<circle cx="266" cy="1370" r="8" class="c0"/>
<circle cx="16" cy="1396" r="8" class="c0"/>
<circle cx="396" cy="1150" r="8" class="c0"/>
<circle cx="160" cy="1072" r="8" class="c0"/>
<circle cx="1184" cy="532" r="8" class="c0"/>
<circle cx="352" cy="1326" r="8" class="c0"/>
<circle cx="656" cy="1210" r="8" class="c0"/>
<circle cx="236" cy="1236" r="8" class="c0"/>
<circle cx="490" cy="1416" r="8" class="c0"/>
<circle cx="584" cy="1392" r="8" class="c0"/>
<circle cx="418" cy="1270" r="8" class="c0"/>
<circle cx="568" cy="1384" r="8" class="c0"/>
<circle cx="482" cy="1350" r="8" class="c0"/>
<circle cx="1154" cy="744" r="8" class="c0"/>
<circle cx="186" cy="922" r="8" class="c0"/>
<circle cx="282" cy="1430" r="8" class="c0"/>
<circle cx="1318" cy="692" r="8" class="c0"/>
<circle cx="1296" cy="654" r="8" class="c0"/>
<circle cx="280" cy="1208" r="8" class="c0"/>
<circle cx="58" cy="1418" r="8" class="c0"/>
<circle cx="26" cy="1382" r="8" class="c0"/>
<circle cx="404" cy="1198" r="8" class="c0"/>
<circle cx="1436" cy="790" r="8" class="c0"/>
<circle cx="80" cy="1254" r="8" class="c0"/>
<circle cx="588" cy="1170" r="8" class="c0"/>
<circle cx="256" cy="1080" r="8" class="c0"/>
<circle cx="1160" cy="402" r="8" class="c0"/>
<circle cx="738" cy="1074" r="8" class="c0"/>
<circle cx="1342" cy="612" r="8" class="c0"/>
<circle cx="1396" cy="696" r="8" class="c0"/>
<circle cx="778" cy="1060" r="8" class="c0"/>
<circle cx="428" cy="1374" r="8" class="c0"/>
<circle cx="574" cy="1236" r="8" class="c0"/>
<circle cx="1368" cy="688" r="8" class="c0"/>
<circle cx="1184" cy="376" r="8" class="c0"/>
<circle cx="642" cy="1184" r="8" class="c0"/>
<circle cx="312" cy="1408" r="8" class="c0"/>
<circle cx="1236" cy="358" r="8" class="c0"/>
<circle cx="380" cy="1328" r="8" class="c0"/>
<circle cx="68" cy="1158" r="8" class="c0"/>
<circle cx="240" cy="1214" r="8" class="c0"/>
<circle cx="574" cy="1354" r="8" class="c0"/>
<circle cx="1390" cy="624" r="8" class="c0"/>
<circle cx="1362" cy="618" r="8" class="c0"/>
<circle cx="346" cy="1096" r="8" class="c0"/>
<circle cx="1286" cy="394" r="8" class="c0"/>
<circle cx="666" cy="1188" r="8" class="c0"/>
<circle cx="500" cy="1146" r="8" class="c0"/>
<circle cx="390" cy="1168" r="8" class="c0"/>
<circle cx="1254" cy="338" r="8" class="c0"/>
<circle cx="754" cy="1386" r="8" class="c0"/>
<circle cx="1312" cy="488" r="8" class="c0"/>
<circle cx="1338" cy="760" r="8" class="c0"/>
<circle cx="1412" cy="794" r="8" class="c0"/>
<circle cx="704" cy="1356" r="8" class="c0"/>
<circle cx="1292" cy="492" r="8" class="c0"/>
<circle cx="1270" cy="470" r="8" class="c0"/>
<circle cx="710" cy="1212" r="8" class="c0"/>
<circle cx="1328" cy="828" r="8" class="c0"/>
<circle cx="1534" cy="724" r="8" class="c0"/>
<circle cx="528" cy="1368" r="8" class="c0"/>
<circle cx="120" cy="1002" r="8" class="c0"/>
<circle cx="298" cy="1290" r="8" class="c0"/>
<circle cx="390" cy="1132" r="8" class="c0"/>
<circle cx="1330" cy="598" r="8" class="c0"/>
<circle cx="326" cy="1256" r="8" class="c0"/>
<circle cx="1314" cy="672" r="8" class="c0"/>
<circle cx="1336" cy="456" r="8" class="c0"/>
<circle cx="540" cy="1254" r="8" class="c0"/>
<circle cx="670" cy="1310" r="8" class="c0"/>
<circle cx="366" cy="1308" r="8" class="c0"/>
<circle cx="678" cy="1166" r="8" class="c0"/>
<circle cx="274" cy="1106" r="8" class="c0"/>
<circle cx="1402" cy="760" r="8" class="c0"/>
<circle cx="1242" cy="470" r="8" class="c0"/>
<circle cx="1382" cy="538" r="8" class="c0"/>
<circle cx="748" cy="1184" r="8" class="c0"/>
<circle cx="1242" cy="816" r="8" class="c0"/>
<circle cx="38" cy="1260" r="8" class="c0"/>
<circle cx="266" cy="1170" r="8" class="c0"/>
<circle cx="478" cy="1402" r="8" class="c0"/>
<circle cx="1438" cy="758" r="8" class="c0"/>
<circle cx="1288" cy="576" r="8" class="c0"/>
<circle cx="174" cy="932" r="8" class="c0"/>
<circle cx="202" cy="980" r="8" class="c0"/>
<circle cx="1270" cy="724" r="8" class="c0"/>
<circle cx="112" cy="1176" r="8" class="c0"/>
<circle cx="740" cy="1150" r="8" class="c0"/>
<circle cx="1302" cy="508" r="8" class="c0"/>
<circle cx="518" cy="1220" r="8" class="c0"/>
<circle cx="1454" cy="722" r="8" class="c0"/>
<circle cx="58" cy="1330" r="8" class="c0"/>
<circle cx="1210" cy="356" r="8" class="c0"/>
<circle cx="334" cy="1068" r="8" class="c0"/>
<circle cx="402" cy="1120" r="8" class="c0"/>
<circle cx="1132" cy="758" r="8" class="c0"/>
<circle cx="1246" cy="588" r="8" class="c0"/>
<circle cx="96" cy="1096" r="8" class="c0"/>
<circle cx="720" cy="1264" r="8" class="c0"/>
<circle cx="1504" cy="644" r="8" class="c0"/>
<circle cx="1212" cy="420" r="8" class="c0"/>
<circle cx="176" cy="1194" r="8" class="c0"/>
<circle cx="604" cy="1328" r="8" class="c0"/>
<circle cx="20" cy="1428" r="8" class="c0"/>
<circle cx="1324" cy="416" r="8" class="c0"/>
<circle cx="188" cy="1304" r="8" class="c0"/>
<circle cx="26" cy="1410" r="8" class="c0"/>
<circle cx="532" cy="1292" r="8" class="c0"/>
<circle cx="82" cy="1310" r="8" class="c0"/>
<circle cx="618" cy="1230" r="8" class="c0"/>
<circle cx="12" cy="1184" r="8" class="c0"/>
<circle cx="452" cy="1166" r="8" class="c0"/>
<circle cx="34" cy="1208" r="8" class="c0"/>
<circle cx="724" cy="1354" r="8" class="c0"/>
<circle cx="620" cy="1430" r="8" class="c0"/>
<circle cx="1254" cy="686" r="8" class="c0"/>
<circle cx="1280" cy="334" r="8" class="c0"/>
<circle cx="412" cy="1300" r="8" class="c0"/>
<circle cx="400" cy="1216" r="8" class="c0"/>
<circle cx="348" cy="1246" r="8" class="c0"/>
<circle cx="374" cy="1218" r="8" class="c0"/>
<circle cx="750" cy="1414" r="8" class="c0"/>
<circle cx="746" cy="1290" r="8" class="c0"/>
<circle cx="1144" cy="726" r="8" class="c0"/>
<circle cx="1344" cy="782" r="8" class="c0"/>
<circle cx="526" cy="1152" r="8" class="c0"/>
<circle cx="190" cy="1082" r="8" class="c0"/>
<circle cx="180" cy="1064" r="8" class="c0"/>
<circle cx="358" cy="1158" r="8" class="c0"/>
<circle cx="1356" cy="546" r="8" class="c0"/>
<circle cx="1116" cy="728" r="8" class="c0"/>
<circle cx="1292" cy="758" r="8" class="c0"/>
<circle cx="574" cy="1256" r="8" class="c0"/>
<circle cx="42" cy="1316" r="8" class="c0"/>
<circle cx="1386" cy="710" r="8" class="c0"/>
<circle cx="134" cy="1394" r="8" class="c0"/>
<circle cx="556" cy="1158" r="8" class="c0"/>
<circle cx="1264" cy="706" r="8" class="c0"/>
<circle cx="146" cy="1056" r="8" class="c0"/>
<circle cx="258" cy="1302" r="8" class="c0"/>
<circle cx="672" cy="1270" r="8" class="c0"/>
<circle cx="780" cy="1226" r="8" class="c0"/>
<circle cx="26" cy="1150" r="8" class="c0"/>
<circle cx="510" cy="1322" r="8" class="c0"/>
<circle cx="386" cy="1066" r="8" class="c0"/>
<circle cx="526" cy="1132" r="8" class="c0"/>
<circle cx="360" cy="1020" r="8" class="c0"/>
<circle cx="1246" cy="622" r="8" class="c0"/>
<circle cx="550" cy="1386" r="8" class="c0"/>
<circle cx="308" cy="1272" r="8" class="c0"/>
<circle cx="616" cy="1272" r="8" class="c0"/>
<circle cx="416" cy="1182" r="8" class="c0"/>
<circle cx="316" cy="1430" r="8" class="c0"/>
<circle cx="776" cy="1386" r="8" class="c0"/>
<circle cx="1338" cy="482" r="8" class="c0"/>
<circle cx="338" cy="1336" r="6" class="c0"/>
<circle cx="144" cy="984" r="6" class="c0"/>
<circle cx="602" cy="1162" r="6" class="c0"/>
<circle cx="644" cy="1200" r="6" class="c0"/>
<circle cx="1324" cy="752" r="6" class="c0"/>
<circle cx="230" cy="1128" r="6" class="c0"/>
<circle cx="228" cy="900" r="6" class="c0"/>
<circle cx="150" cy="1342" r="6" class="c0"/>
<circle cx="46" cy="1372" r="6" class="c0"/>
<circle cx="412" cy="1372" r="6" class="c0"/>
<circle cx="646" cy="1142" r="6" class="c0"/>
<circle cx="460" cy="1414" r="6" class="c0"/>
<circle cx="204" cy="1224" r="6" class="c0"/>
<circle cx="234" cy="1108" r="6" class="c0"/>
<circle cx="254" cy="1100" r="6" class="c0"/>
<circle cx="292" cy="1368" r="6" class="c0"/>
<circle cx="658" cy="1344" r="6" class="c0"/>
<circle cx="8" cy="1324" r="6" class="c0"/>
<circle cx="564" cy="1344" r="6" class="c0"/>
<circle cx="58" cy="1146" r="6" class="c0"/>
<circle cx="264" cy="980" r="6" class="c0"/>
<circle cx="262" cy="1202" r="6" class="c0"/>
<circle cx="1422" cy="602" r="6" class="c0"/>
<circle cx="754" cy="1092" r="6" class="c0"/>
<circle cx="342" cy="1366" r="6" class="c0"/>
<circle cx="184" cy="1360" r="6" class="c0"/>
<circle cx="160" cy="992" r="6" class="c0"/>
<circle cx="1498" cy="660" r="6" class="c0"/>
<circle cx="1236" cy="444" r="6" class="c0"/>
<circle cx="162" cy="1268" r="6" class="c0"/>
<circle cx="1220" cy="480" r="6" class="c0"/>
<circle cx="1490" cy="652" r="6" class="c0"/>
<circle cx="470" cy="1360" r="6" class="c0"/>
<circle cx="1496" cy="704" r="6" class="c0"/>
<circle cx="30" cy="1364" r="6" class="c0"/>
<circle cx="648" cy="1158" r="6" class="c0"/>
<circle cx="136" cy="1204" r="6" class="c0"/>
<circle cx="94" cy="1118" r="6" class="c0"/>
<circle cx="258" cy="1340" r="6" class="c0"/>
<circle cx="1430" cy="680" r="6" class="c0"/>
<circle cx="772" cy="1044" r="6" class="c0"/>
<circle cx="662" cy="1402" r="6" class="c0"/>
<circle cx="1526" cy="682" r="6" class="c0"/>
<circle cx="572" cy="1306" r="6" class="c0"/>
<circle cx="200" cy="934" r="6" class="c0"/>
<circle cx="242" cy="1134" r="6" class="c0"/>
<circle cx="186" cy="1322" r="6" class="c0"/>
<circle cx="1268" cy="760" r="6" class="c0"/>
<circle cx="336" cy="1404" r="6" class="c0"/>
<circle cx="578" cy="1138" r="6" class="c0"/>
<circle cx="1520" cy="710" r="6" class="c0"/>
<circle cx="686" cy="1232" r="6" class="c0"/>
<circle cx="192" cy="942" r="6" class="c0"/>
<circle cx="1400" cy="636" r="6" class="c0"/>
<circle cx="1214" cy="642" r="6" class="c0"/>
<circle cx="726" cy="1138" r="6" class="c0"/>
<circle cx="470" cy="1378" r="6" class="c0"/>
<circle cx="208" cy="1312" r="6" class="c0"/>
<circle cx="1198" cy="366" r="6" class="c0"/>
<circle cx="38" cy="1294" r="6" class="c0"/>
<circle cx="1434" cy="630" r="6" class="c0"/>
<circle cx="208" cy="1394" r="6" class="c0"/>
<circle cx="782" cy="1350" r="6" class="c0"/>
<circle cx="1246" cy="798" r="6" class="c0"/>
<circle cx="184" cy="1420" r="6" class="c0"/>
<circle cx="184" cy="1124" r="6" class="c0"/>
<circle cx="616" cy="1208" r="6" class="c0"/>
<circle cx="222" cy="1114" r="6" class="c0"/>
<circle cx="144" cy="1324" r="6" class="c0"/>
<circle cx="776" cy="1242" r="6" class="c0"/>
<circle cx="398" cy="1432" r="6" class="c0"/>
<circle cx="1216" cy="604" r="6" class="c0"/>
<circle cx="1182" cy="436" r="6" class="c0"/>
<circle cx="1304" cy="578" r="6" class="c0"/>
<circle cx="438" cy="1156" r="6" class="c0"/>
<circle cx="398" cy="1266" r="6" class="c0"/>
<circle cx="382" cy="1346" r="6" class="c0"/>
<circle cx="654" cy="1306" r="6" class="c0"/>
<circle cx="740" cy="1236" r="6" class="c0"/>
<circle cx="680" cy="1286" r="6" class="c0"/>
<circle cx="1244" cy="668" r="6" class="c0"/>
<circle cx="472" cy="1168" r="6" class="c0"/>
<circle cx="596" cy="1430" r="6" class="c0"/>
<circle cx="454" cy="1346" r="6" class="c0"/>
<circle cx="416" cy="1340" r="6" class="c0"/>
<circle cx="376" cy="1122" r="6" class="c0"/>
<circle cx="244" cy="1068" r="6" class="c0"/>
<circle cx="1224" cy="782" r="6" class="c0"/>
<circle cx="588" cy="1224" r="6" class="c0"/>
<circle cx="100" cy="1284" r="6" class="c0"/>
<circle cx="514" cy="1304" r="6" class="c0"/>
<circle cx="1296" cy="738" r="6" class="c0"/>
<circle cx="46" cy="1244" r="6" class="c0"/>
<circle cx="634" cy="1170" r="6" class="c0"/>
<circle cx="1294" cy="444" r="6" class="c0"/>
<circle cx="1282" cy="452" r="6" class="c0"/>
<circle cx="1342" cy="554" r="6" class="c0"/>
<circle cx="1190" cy="692" r="6" class="c0"/>
<circle cx="1212" cy="516" r="6" class="c0"/>
<circle cx="158" cy="1422" r="6" class="c0"/>
<circle cx="1198" cy="754" r="6" class="c0"/>
<circle cx="380" cy="1406" r="6" class="c0"/>
<circle cx="188" cy="1262" r="6" class="c0"/>
<circle cx="434" cy="1406" r="6" class="c0"/>
<circle cx="302" cy="1346" r="6" class="c0"/>
<circle cx="294" cy="1312" r="6" class="c0"/>
<circle cx="240" cy="968" r="6" class="c0"/>
<circle cx="680" cy="1322" r="6" class="c0"/>
<circle cx="684" cy="1398" r="6" class="c0"/>
<circle cx="1250" cy="382" r="6" class="c0"/>
<circle cx="1494" cy="800" r="6" class="c0"/>
<circle cx="440" cy="1246" r="6" class="c0"/>
<circle cx="1478" cy="748" r="6" class="c0"/>
<circle cx="444" cy="1212" r="6" class="c0"/>
<circle cx="1532" cy="766" r="6" class="c0"/>
<circle cx="610" cy="1250" r="6" class="c0"/>
<circle cx="90" cy="1368" r="6" class="c0"/>
<circle cx="1360" cy="742" r="6" class="c0"/>
<circle cx="1212" cy="550" r="6" class="c0"/>
<circle cx="1238" cy="332" r="6" class="c0"/>
<circle cx="232" cy="1198" r="6" class="c0"/>
<circle cx="272" cy="1152" r="6" class="c0"/>
<circle cx="748" cy="1020" r="6" class="c0"/>
<circle cx="1334" cy="688" r="6" class="c0"/>
<circle cx="410" cy="1250" r="6" class="c0"/>
<circle cx="330" cy="1328" r="6" class="c0"/>
<circle cx="642" cy="1334" r="6" class="c0"/>
<circle cx="500" cy="1432" r="6" class="c0"/>
<circle cx="414" cy="1320" r="6" class="c0"/>
<circle cx="1258" cy="634" r="6" class="c0"/>
<circle cx="644" cy="1282" r="6" class="c0"/>
<circle cx="104" cy="1228" r="6" class="c0"/>
<circle cx="180" cy="1162" r="6" class="c0"/>
<circle cx="1378" cy="750" r="6" class="c0"/>
<circle cx="566" cy="1430" r="6" class="c0"/>
<circle cx="352" cy="1412" r="6" class="c0"/>
<circle cx="1406" cy="812" r="6" class="c0"/>
<circle cx="142" cy="1430" r="6" class="c0"/>
<circle cx="366" cy="1188" r="6" class="c0"/>
<circle cx="422" cy="1150" r="6" class="c0"/>
<circle cx="164" cy="1156" r="6" class="c0"/>
<circle cx="788" cy="1076" r="6" class="c0"/>
<circle cx="1208" cy="746" r="6" class="c0"/>
<circle cx="330" cy="1358" r="6" class="c0"/>
<circle cx="1218" cy="388" r="6" class="c0"/>
<circle cx="66" cy="1238" r="6" class="c0"/>
<circle cx="150" cy="1128" r="6" class="c0"/>
<circle cx="498" cy="1220" r="6" class="c0"/>
<circle cx="1368" cy="416" r="6" class="c0"/>
<circle cx="284" cy="1116" r="6" class="c0"/>
<circle cx="740" cy="1056" r="6" class="c0"/>
<circle cx="444" cy="1338" r="6" class="c0"/>
<circle cx="756" cy="1276" r="6" class="c0"/>
<circle cx="212" cy="1160" r="6" class="c0"/>
<circle cx="1344" cy="700" r="6" class="c0"/>
<circle cx="786" cy="1328" r="6" class="c0"/>
<circle cx="744" cy="1220" r="6" class="c0"/>
<circle cx="556" cy="1422" r="6" class="c0"/>
<circle cx="566" cy="1222" r="6" class="c0"/>
<circle cx="236" cy="1382" r="6" class="c0"/>
<circle cx="452" cy="1136" r="6" class="c0"/>
<circle cx="90" cy="1270" r="6" class="c0"/>
<circle cx="306" cy="1384" r="6" class="c0"/>
<circle cx="1192" cy="498" r="6" class="c0"/>
<circle cx="296" cy="1050" r="6" class="c0"/>
<circle cx="630" cy="1198" r="6" class="c0"/>
<circle cx="1452" cy="690" r="6" class="c0"/>
<circle cx="230" cy="1360" r="6" class="c0"/>
<circle cx="338" cy="1318" r="6" class="c0"/>
<circle cx="62" cy="1390" r="6" class="c0"/>
<circle cx="1320" cy="810" r="6" class="c0"/>
<circle cx="778" cy="1336" r="6" class="c0"/>
<circle cx="1236" cy="768" r="6" class="c0"/>
<circle cx="248" cy="1312" r="6" class="c0"/>
<circle cx="1448" cy="776" r="6" class="c0"/>
<circle cx="332" cy="1088" r="6" class="c0"/>
<circle cx="466" cy="1242" r="6" class="c0"/>
<circle cx="166" cy="1406" r="6" class="c0"/>
<circle cx="1254" cy="310" r="6" class="c0"/>
<circle cx="312" cy="1088" r="6" class="c0"/>
<circle cx="722" cy="1044" r="6" class="c0"/>
<circle cx="716" cy="1340" r="6" class="c0"/>
<circle cx="1256" cy="508" r="6" class="c0"/>
<circle cx="1434" cy="830" r="6" class="c0"/>
<circle cx="1192" cy="678" r="6" class="c0"/>
<circle cx="672" cy="1238" r="6" class="c0"/>
<circle cx="6" cy="1292" r="6" class="c0"/>
<circle cx="176" cy="888" r="6" class="c0"/>
<circle cx="188" cy="1234" r="6" class="c0"/>
<circle cx="786" cy="1100" r="6" class="c0"/>
<circle cx="694" cy="1240" r="6" class="c0"/>
<circle cx="114" cy="1148" r="6" class="c0"/>
<circle cx="118" cy="1036" r="6" class="c0"/>
<circle cx="764" cy="1376" r="6" class="c0"/>
<circle cx="124" cy="1212" r="6" class="c0"/>
<circle cx="742" cy="1432" r="6" class="c0"/>
<circle cx="1178" cy="776" r="6" class="c0"/>
<circle cx="318" cy="1120" r="6" class="c0"/>
<circle cx="1364" cy="430" r="6" class="c0"/>
<circle cx="634" cy="1238" r="6" class="c0"/>
<circle cx="76" cy="1144" r="6" class="c0"/>
<circle cx="1548" cy="774" r="6" class="c0"/>
<circle cx="714" cy="1380" r="6" class="c0"/>
<circle cx="1488" cy="694" r="6" class="c0"/>
<circle cx="486" cy="1290" r="6" class="c0"/>
<circle cx="164" cy="944" r="6" class="c0"/>
<circle cx="176" cy="1292" r="6" class="c0"/>
<circle cx="582" cy="1270" r="6" class="c0"/>
<circle cx="214" cy="894" r="6" class="c0"/>
<circle cx="784" cy="1308" r="6" class="c0"/>
<circle cx="304" cy="1152" r="6" class="c0"/>
<circle cx="1298" cy="544" r="6" class="c0"/>
<circle cx="154" cy="956" r="6" class="c0"/>
<circle cx="1428" cy="714" r="6" class="c0"/>
<circle cx="156" cy="1256" r="6" class="c0"/>
<circle cx="262" cy="1116" r="6" class="c0"/>
<circle cx="466" cy="1130" r="6" class="c0"/>
<circle cx="646" cy="1298" r="6" class="c0"/>
<circle cx="1164" cy="782" r="6" class="c0"/>
<circle cx="10" cy="1236" r="6" class="c0"/>
<circle cx="46" cy="1432" r="6" class="c0"/>
<circle cx="758" cy="1430" r="6" class="c0"/>
<circle cx="618" cy="1140" r="6" class="c0"/>
<circle cx="202" cy="1000" r="6" class="c0"/>
<circle cx="1510" cy="790" r="6" class="c0"/>
<circle cx="524" cy="1180" r="6" class="c0"/>
<circle cx="198" cy="1022" r="6" class="c0"/>
<circle cx="1360" cy="808" r="6" class="c0"/>
<circle cx="370" cy="1074" r="6" class="c0"/>
<circle cx="110" cy="1430" r="6" class="c0"/>
<circle cx="360" cy="1128" r="6" class="c0"/>
<circle cx="406" cy="1424" r="6" class="c0"/>
<circle cx="368" cy="1356" r="6" class="c0"/>
<circle cx="546" cy="1408" r="6" class="c0"/>
<circle cx="220" cy="1402" r="6" class="c0"/>
<circle cx="632" cy="1384" r="6" class="c0"/>
<circle cx="732" cy="1322" r="6" class="c0"/>
<circle cx="558" cy="1266" r="6" class="c0"/>
<circle cx="136" cy="974" r="6" class="c0"/>
<circle cx="604" cy="1378" r="6" class="c0"/>
<circle cx="416" cy="1212" r="6" class="c0"/>
<circle cx="1348" cy="666" r="6" class="c0"/>
<circle cx="592" cy="1408" r="6" class="c0"/>
<circle cx="182" cy="980" r="6" class="c0"/>
<circle cx="1154" cy="418" r="6" class="c0"/>
<circle cx="1440" cy="814" r="6" class="c0"/>
<circle cx="378" cy="1042" r="6" class="c0"/>
<circle cx="1224" cy="402" r="6" class="c0"/>
<circle cx="1402" cy="680" r="6" class="c0"/>
<circle cx="722" cy="1390" r="6" class="c0"/>
<circle cx="138" cy="1284" r="6" class="c0"/>
<circle cx="64" cy="1272" r="6" class="c0"/>
<circle cx="470" cy="1218" r="6" class="c0"/>
<circle cx="788" cy="1050" r="6" class="c0"/>
<circle cx="380" cy="1154" r="6" class="c0"/>
<circle cx="1476" cy="670" r="6" class="c0"/>
<circle cx="372" cy="1384" r="6" class="c0"/>
<circle cx="326" cy="1374" r="6" class="c0"/>
<circle cx="1526" cy="742" r="6" class="c0"/>
<circle cx="1192" cy="454" r="6" class="c0"/>
<circle cx="784" cy="1408" r="6" class="c0"/>
<circle cx="320" cy="1096" r="6" class="c0"/>
<circle cx="312" cy="1188" r="6" class="c0"/>
<circle cx="720" cy="1120" r="6" class="c0"/>
<circle cx="1224" cy="592" r="6" class="c0"/>
<circle cx="508" cy="1210" r="6" class="c0"/>
<circle cx="232" cy="930" r="6" class="c0"/>
<circle cx="632" cy="1268" r="6" class="c0"/>
<circle cx="458" cy="1432" r="6" class="c0"/>
<circle cx="1304" cy="746" r="6" class="c0"/>
<circle cx="1204" cy="380" r="6" class="c0"/>
<circle cx="584" cy="1340" r="6" class="c0"/>
<circle cx="248" cy="1166" r="6" class="c0"/>
<circle cx="108" cy="972" r="6" class="c0"/>
<circle cx="1376" cy="574" r="6" class="c0"/>
<circle cx="186" cy="1184" r="6" class="c0"/>
<circle cx="710" cy="1306" r="6" class="c0"/>
<circle cx="124" cy="1246" r="6" class="c0"/>
<circle cx="90" cy="1002" r="6" class="c0"/>
<circle cx="1462" cy="664" r="6" class="c0"/>
<circle cx="520" cy="1432" r="6" class="c0"/>
<circle cx="618" cy="1356" r="6" class="c0"/>
<circle cx="84" cy="1110" r="6" class="c0"/>
<circle cx="232" cy="956" r="6" class="c0"/>
<circle cx="1250" cy="754" r="6" class="c0"/>
<circle cx="468" cy="1392" r="6" class="c0"/>
<circle cx="346" cy="1058" r="6" class="c0"/>
<circle cx="142" cy="1356" r="6" class="c0"/>
<circle cx="776" cy="1298" r="6" class="c0"/>
<circle cx="140" cy="1018" r="6" class="c0"/>
<circle cx="1486" cy="736" r="6" class="c0"/>
<circle cx="476" cy="1252" r="6" class="c0"/>
<circle cx="1360" cy="638" r="6" class="c0"/>
<circle cx="666" cy="1224" r="6" class="c0"/>
<circle cx="1190" cy="424" r="6" class="c0"/>
<circle cx="504" cy="1178" r="6" class="c0"/>
<circle cx="218" cy="1046" r="6" class="c0"/>
<circle cx="560" cy="1174" r="6" class="c0"/>
<circle cx="28" cy="1250" r="6" class="c0"/>
<circle cx="1286" cy="702" r="6" class="c0"/>
<circle cx="1542" cy="690" r="6" class="c0"/>
<circle cx="246" cy="1282" r="6" class="c0"/>
<circle cx="350" cy="1310" r="6" class="c0"/>
<circle cx="516" cy="1142" r="6" class="c0"/>
<circle cx="436" cy="1432" r="6" class="c0"/>
<circle cx="192" cy="1284" r="6" class="c0"/>
<circle cx="146" cy="966" r="6" class="c0"/>
<circle cx="600" cy="1204" r="6" class="c0"/>
<circle cx="548" cy="1238" r="6" class="c0"/>
<circle cx="130" cy="1364" r="6" class="c0"/>
<circle cx="88" cy="1022" r="6" class="c0"/>
<circle cx="230" cy="916" r="6" class="c0"/>
<circle cx="6" cy="1386" r="6" class="c0"/>
<circle cx="458" cy="1308" r="6" class="c0"/>
<circle cx="1456" cy="802" r="6" class="c0"/>
<circle cx="324" cy="1058" r="6" class="c0"/>
<circle cx="1504" cy="712" r="6" class="c0"/>
<circle cx="432" cy="1390" r="6" class="c0"/>
<circle cx="6" cy="1270" r="6" class="c0"/>
<circle cx="370" cy="1032" r="6" class="c0"/>
<circle cx="718" cy="1408" r="6" class="c0"/>
<circle cx="354" cy="1142" r="6" class="c0"/>
<circle cx="724" cy="1242" r="6" class="c0"/>
<circle cx="1202" cy="506" r="6" class="c0"/>
<circle cx="126" cy="1044" r="6" class="c0"/>
<circle cx="1242" cy="374" r="6" class="c0"/>
<circle cx="228" cy="1394" r="6" class="c0"/>
<circle cx="158" cy="930" r="6" class="c0"/>
<circle cx="150" cy="1160" r="6" class="c0"/>
<circle cx="1478" cy="788" r="6" class="c0"/>
<circle cx="312" cy="1104" r="6" class="c0"/>
<circle cx="612" cy="1154" r="6" class="c0"/>
<circle cx="228" cy="1374" r="6" class="c0"/>
<circle cx="704" cy="1186" r="6" class="c0"/>
<circle cx="66" cy="1432" r="6" class="c0"/>
<circle cx="102" cy="1186" r="6" class="c0"/>
<circle cx="784" cy="1250" r="6" class="c0"/>
<circle cx="788" cy="1142" r="6" class="c0"/>
<circle cx="1334" cy="406" r="6" class="c0"/>
<circle cx="350" cy="1392" r="6" class="c0"/>
<circle cx="84" cy="1152" r="6" class="c0"/>
<circle cx="612" cy="1388" r="6" class="c0"/>
<circle cx="560" cy="1210" r="6" class="c0"/>
<circle cx="484" cy="1148" r="6" class="c0"/>
</svg>
