<?xml version="1.0" encoding="utf-8"?>
<svg xmlns="http://www.w3.org/2000/svg"
     xmlns:xlink="http://www.w3.org/1999/xlink" width="1920" height="1440" >

            <defs>
            <style type="text/css"><![CDATA[
circle {stroke: none;}
.c0 {fill: #FFFFFF;}
]]></style>
            </defs>
<rect x="0" y="0" width="1920" height="1440" fill="black"/>
<circle cx="1682" cy="734" r="14" class="c0"/>
<circle cx="1466" cy="68" r="14" class="c0"/>
<circle cx="1690" cy="652" r="12" class="c0"/>
<circle cx="1694" cy="538" r="12" class="c0"/>
<circle cx="1582" cy="48" r="12" class="c0"/>
<circle cx="934" cy="800" r="12" class="c0"/>
<circle cx="916" cy="922" r="12" class="c0"/>
<circle cx="1372" cy="684" r="12" class="c0"/>
<circle cx="1710" cy="88" r="12" class="c0"/>
<circle cx="914" cy="782" r="12" class="c0"/>
<circle cx="1742" cy="728" r="12" class="c0"/>
<circle cx="1622" cy="678" r="12" class="c0"/>
<circle cx="1704" cy="42" r="12" class="c0"/>
<circle cx="1424" cy="694" r="12" class="c0"/>
<circle cx="1460" cy="736" r="12" class="c0"/>
<circle cx="1434" cy="734" r="12" class="c0"/>
<circle cx="1882" cy="28" r="12" class="c0"/>
<circle cx="1836" cy="508" r="12" class="c0"/>
<circle cx="1206" cy="682" r="12" class="c0"/>
<circle cx="1414" cy="42" r="12" class="c0"/>
<circle cx="1648" cy="30" r="12" class="c0"/>
<circle cx="1620" cy="638" r="12" class="c0"/>
<circle cx="1620" cy="736" r="12" class="c0"/>
<circle cx="1568" cy="714" r="12" class="c0"/>
<circle cx="1786" cy="696" r="12" class="c0"/>
<circle cx="1854" cy="698" r="12" class="c0"/>
<circle cx="1730" cy="522" r="12" class="c0"/>
<circle cx="1658" cy="486" r="12" class="c0"/>
<circle cx="1706" cy="710" r="12" class="c0"/>
<circle cx="1798" cy="76" r="12" class="c0"/>
<circle cx="1404" cy="744" r="12" class="c0"/>
<circle cx="904" cy="862" r="12" class="c0"/>
<circle cx="872" cy="712" r="12" class="c0"/>
<circle cx="1684" cy="68" r="12" class="c0"/>
<circle cx="970" cy="624" r="12" class="c0"/>
<circle cx="1108" cy="588" r="12" class="c0"/>
<circle cx="794" cy="616" r="12" class="c0"/>
<circle cx="1364" cy="818" r="12" class="c0"/>
<circle cx="848" cy="560" r="12" class="c0"/>
<circle cx="1558" cy="676" r="12" class="c0"/>
<circle cx="1280" cy="754" r="12" class="c0"/>
<circle cx="946" cy="658" r="12" class="c0"/>
<circle cx="1192" cy="652" r="12" class="c0"/>
<circle cx="964" cy="586" r="12" class="c0"/>
<circle cx="1808" cy="100" r="12" class="c0"/>
<circle cx="1256" cy="796" r="12" class="c0"/>
<circle cx="1618" cy="106" r="12" class="c0"/>
<circle cx="900" cy="796" r="12" class="c0"/>
<circle cx="1792" cy="36" r="12" class="c0"/>
<circle cx="1752" cy="566" r="12" class="c0"/>
<circle cx="1692" cy="438" r="12" class="c0"/>
<circle cx="1776" cy="578" r="12" class="c0"/>
<circle cx="1388" cy="724" r="12" class="c0"/>
<circle cx="1622" cy="46" r="12" class="c0"/>
<circle cx="898" cy="598" r="12" class="c0"/>
<circle cx="1048" cy="564" r="12" class="c0"/>
<circle cx="792" cy="648" r="12" class="c0"/>
<circle cx="892" cy="760" r="12" class="c0"/>
<circle cx="1784" cy="488" r="12" class="c0"/>
<circle cx="1504" cy="66" r="12" class="c0"/>
<circle cx="860" cy="954" r="12" class="c0"/>
<circle cx="1888" cy="606" r="12" class="c0"/>
<circle cx="992" cy="530" r="10" class="c0"/>
<circle cx="1654" cy="456" r="10" class="c0"/>
<circle cx="1548" cy="638" r="10" class="c0"/>
<circle cx="1806" cy="798" r="10" class="c0"/>
<circle cx="1420" cy="766" r="10" class="c0"/>
<circle cx="1640" cy="662" r="10" class="c0"/>
<circle cx="1760" cy="514" r="10" class="c0"/>
<circle cx="1634" cy="778" r="10" class="c0"/>
<circle cx="1348" cy="666" r="10" class="c0"/>
<circle cx="992" cy="582" r="10" class="c0"/>
<circle cx="1526" cy="76" r="10" class="c0"/>
<circle cx="1468" cy="10" r="10" class="c0"/>
<circle cx="1908" cy="452" r="10" class="c0"/>
<circle cx="1258" cy="828" r="10" class="c0"/>
<circle cx="1018" cy="586" r="10" class="c0"/>
<circle cx="1808" cy="624" r="10" class="c0"/>
<circle cx="1832" cy="806" r="10" class="c0"/>
<circle cx="1786" cy="758" r="10" class="c0"/>
<circle cx="1904" cy="522" r="10" class="c0"/>
<circle cx="920" cy="614" r="10" class="c0"/>
<circle cx="1602" cy="132" r="10" class="c0"/>
<circle cx="1772" cy="72" r="10" class="c0"/>
<circle cx="1592" cy="684" r="10" class="c0"/>
<circle cx="1864" cy="546" r="10" class="c0"/>
<circle cx="1820" cy="492" r="10" class="c0"/>
<circle cx="876" cy="916" r="10" class="c0"/>
<circle cx="1606" cy="72" r="10" class="c0"/>
<circle cx="1234" cy="820" r="10" class="c0"/>
<circle cx="1852" cy="524" r="10" class="c0"/>
<circle cx="1556" cy="762" r="10" class="c0"/>
<circle cx="1700" cy="124" r="10" class="c0"/>
<circle cx="1804" cy="724" r="10" class="c0"/>
<circle cx="1690" cy="690" r="10" class="c0"/>
<circle cx="1648" cy="554" r="10" class="c0"/>
<circle cx="1898" cy="492" r="10" class="c0"/>
<circle cx="1812" cy="546" r="10" class="c0"/>
<circle cx="1292" cy="652" r="10" class="c0"/>
<circle cx="944" cy="546" r="10" class="c0"/>
<circle cx="1434" cy="18" r="10" class="c0"/>
<circle cx="1900" cy="658" r="10" class="c0"/>
<circle cx="1178" cy="630" r="10" class="c0"/>
<circle cx="1638" cy="136" r="10" class="c0"/>
<circle cx="1504" cy="626" r="10" class="c0"/>
<circle cx="1546" cy="700" r="10" class="c0"/>
<circle cx="1010" cy="622" r="10" class="c0"/>
<circle cx="1524" cy="596" r="10" class="c0"/>
<circle cx="1552" cy="106" r="10" class="c0"/>
<circle cx="1488" cy="22" r="10" class="c0"/>
<circle cx="1248" cy="648" r="10" class="c0"/>
<circle cx="1602" cy="580" r="10" class="c0"/>
<circle cx="792" cy="772" r="10" class="c0"/>
<circle cx="778" cy="750" r="10" class="c0"/>
<circle cx="1242" cy="616" r="10" class="c0"/>
<circle cx="1506" cy="138" r="10" class="c0"/>
<circle cx="1348" cy="730" r="10" class="c0"/>
<circle cx="1382" cy="640" r="10" class="c0"/>
<circle cx="1172" cy="768" r="10" class="c0"/>
<circle cx="1590" cy="96" r="10" class="c0"/>
<circle cx="1842" cy="630" r="10" class="c0"/>
<circle cx="1706" cy="626" r="10" class="c0"/>
<circle cx="1846" cy="50" r="10" class="c0"/>
<circle cx="1590" cy="26" r="10" class="c0"/>
<circle cx="1822" cy="764" r="10" class="c0"/>
<circle cx="880" cy="782" r="10" class="c0"/>
<circle cx="1862" cy="654" r="10" class="c0"/>
<circle cx="854" cy="784" r="10" class="c0"/>
<circle cx="1214" cy="774" r="10" class="c0"/>
<circle cx="1712" cy="478" r="10" class="c0"/>
<circle cx="1762" cy="790" r="10" class="c0"/>
<circle cx="1868" cy="744" r="10" class="c0"/>
<circle cx="1526" cy="666" r="10" class="c0"/>
<circle cx="1390" cy="762" r="10" class="c0"/>
<circle cx="1208" cy="732" r="10" class="c0"/>
<circle cx="1874" cy="492" r="10" class="c0"/>
<circle cx="922" cy="684" r="10" class="c0"/>
<circle cx="888" cy="954" r="10" class="c0"/>
<circle cx="882" cy="842" r="10" class="c0"/>
<circle cx="1906" cy="34" r="10" class="c0"/>
<circle cx="1654" cy="770" r="10" class="c0"/>
<circle cx="1466" cy="118" r="10" class="c0"/>
<circle cx="1216" cy="644" r="10" class="c0"/>
<circle cx="916" cy="968" r="10" class="c0"/>
<circle cx="754" cy="656" r="10" class="c0"/>
<circle cx="1326" cy="762" r="10" class="c0"/>
<circle cx="790" cy="736" r="10" class="c0"/>
<circle cx="1616" cy="610" r="10" class="c0"/>
<circle cx="1778" cy="12" r="10" class="c0"/>
<circle cx="1828" cy="650" r="10" class="c0"/>
<circle cx="1430" cy="656" r="10" class="c0"/>
<circle cx="1438" cy="70" r="10" class="c0"/>
<circle cx="1544" cy="54" r="10" class="c0"/>
<circle cx="1532" cy="30" r="10" class="c0"/>
<circle cx="1768" cy="116" r="10" class="c0"/>
<circle cx="1400" cy="10" r="10" class="c0"/>
<circle cx="1886" cy="426" r="10" class="c0"/>
<circle cx="1116" cy="640" r="10" class="c0"/>
<circle cx="1464" cy="688" r="10" class="c0"/>
<circle cx="1588" cy="748" r="10" class="c0"/>
<circle cx="1572" cy="588" r="10" class="c0"/>
<circle cx="1884" cy="134" r="10" class="c0"/>
<circle cx="1676" cy="22" r="10" class="c0"/>
<circle cx="1872" cy="104" r="10" class="c0"/>
<circle cx="1314" cy="818" r="10" class="c0"/>
<circle cx="866" cy="824" r="10" class="c0"/>
<circle cx="920" cy="572" r="10" class="c0"/>
<circle cx="1880" cy="56" r="10" class="c0"/>
<circle cx="776" cy="680" r="10" class="c0"/>
<circle cx="1798" cy="124" r="10" class="c0"/>
<circle cx="1190" cy="698" r="10" class="c0"/>
<circle cx="1862" cy="434" r="10" class="c0"/>
<circle cx="1092" cy="530" r="10" class="c0"/>
<circle cx="1252" cy="748" r="10" class="c0"/>
<circle cx="1140" cy="668" r="10" class="c0"/>
<circle cx="742" cy="682" r="10" class="c0"/>
<circle cx="914" cy="898" r="10" class="c0"/>
<circle cx="1850" cy="764" r="10" class="c0"/>
<circle cx="948" cy="612" r="10" class="c0"/>
<circle cx="816" cy="652" r="10" class="c0"/>
<circle cx="1824" cy="26" r="10" class="c0"/>
<circle cx="924" cy="758" r="10" class="c0"/>
<circle cx="770" cy="718" r="10" class="c0"/>
<circle cx="1286" cy="692" r="10" class="c0"/>
<circle cx="1546" cy="572" r="10" class="c0"/>
<circle cx="1648" cy="594" r="10" class="c0"/>
<circle cx="1836" cy="122" r="10" class="c0"/>
<circle cx="1728" cy="132" r="10" class="c0"/>
<circle cx="1248" cy="774" r="10" class="c0"/>
<circle cx="1484" cy="714" r="10" class="c0"/>
<circle cx="1666" cy="54" r="10" class="c0"/>
<circle cx="1630" cy="468" r="10" class="c0"/>
<circle cx="1478" cy="750" r="10" class="c0"/>
<circle cx="1750" cy="536" r="10" class="c0"/>
<circle cx="1032" cy="610" r="10" class="c0"/>
<circle cx="880" cy="976" r="10" class="c0"/>
<circle cx="1766" cy="768" r="10" class="c0"/>
<circle cx="1580" cy="558" r="10" class="c0"/>
<circle cx="1138" cy="622" r="10" class="c0"/>
<circle cx="1904" cy="686" r="10" class="c0"/>
<circle cx="1498" cy="730" r="10" class="c0"/>
<circle cx="1648" cy="738" r="10" class="c0"/>
<circle cx="1768" cy="672" r="10" class="c0"/>
<circle cx="1214" cy="600" r="10" class="c0"/>
<circle cx="1130" cy="712" r="10" class="c0"/>
<circle cx="1874" cy="768" r="10" class="c0"/>
<circle cx="1874" cy="714" r="10" class="c0"/>
<circle cx="1732" cy="58" r="10" class="c0"/>
<circle cx="1752" cy="434" r="10" class="c0"/>
<circle cx="1476" cy="628" r="10" class="c0"/>
<circle cx="1862" cy="594" r="10" class="c0"/>
<circle cx="1834" cy="434" r="10" class="c0"/>
<circle cx="1090" cy="642" r="10" class="c0"/>
<circle cx="746" cy="714" r="10" class="c0"/>
<circle cx="1624" cy="518" r="10" class="c0"/>
<circle cx="1402" cy="790" r="10" class="c0"/>
<circle cx="1848" cy="734" r="10" class="c0"/>
<circle cx="1720" cy="444" r="10" class="c0"/>
<circle cx="1672" cy="128" r="10" class="c0"/>
<circle cx="1854" cy="132" r="10" class="c0"/>
<circle cx="1810" cy="452" r="10" class="c0"/>
<circle cx="1848" cy="74" r="10" class="c0"/>
<circle cx="850" cy="666" r="10" class="c0"/>
<circle cx="1512" cy="96" r="10" class="c0"/>
<circle cx="1908" cy="748" r="10" class="c0"/>
<circle cx="1740" cy="94" r="10" class="c0"/>
<circle cx="1568" cy="78" r="10" class="c0"/>
<circle cx="1640" cy="98" r="10" class="c0"/>
<circle cx="1752" cy="618" r="10" class="c0"/>
<circle cx="914" cy="538" r="10" class="c0"/>
<circle cx="1786" cy="654" r="10" class="c0"/>
<circle cx="1902" cy="114" r="10" class="c0"/>
<circle cx="1170" cy="588" r="10" class="c0"/>
<circle cx="1492" cy="652" r="10" class="c0"/>
<circle cx="1878" cy="670" r="10" class="c0"/>
<circle cx="1196" cy="746" r="10" class="c0"/>
<circle cx="1686" cy="514" r="10" class="c0"/>
<circle cx="1510" cy="24" r="10" class="c0"/>
<circle cx="1682" cy="602" r="10" class="c0"/>
<circle cx="1430" cy="628" r="10" class="c0"/>
<circle cx="1460" cy="794" r="10" class="c0"/>
<circle cx="1396" cy="700" r="10" class="c0"/>
<circle cx="1718" cy="592" r="10" class="c0"/>
<circle cx="1810" cy="746" r="10" class="c0"/>
<circle cx="712" cy="690" r="10" class="c0"/>
<circle cx="1896" cy="566" r="10" class="c0"/>
<circle cx="822" cy="602" r="10" class="c0"/>
<circle cx="1112" cy="562" r="10" class="c0"/>
<circle cx="1646" cy="506" r="10" class="c0"/>
<circle cx="880" cy="884" r="10" class="c0"/>
<circle cx="888" cy="564" r="10" class="c0"/>
<circle cx="1716" cy="748" r="10" class="c0"/>
<circle cx="1560" cy="36" r="10" class="c0"/>
<circle cx="1750" cy="74" r="10" class="c0"/>
<circle cx="1576" cy="130" r="10" class="c0"/>
<circle cx="1382" cy="782" r="10" class="c0"/>
<circle cx="802" cy="668" r="10" class="c0"/>
<circle cx="1252" cy="688" r="10" class="c0"/>
<circle cx="1858" cy="806" r="10" class="c0"/>
<circle cx="1758" cy="42" r="10" class="c0"/>
<circle cx="870" cy="800" r="10" class="c0"/>
<circle cx="1880" cy="578" r="10" class="c0"/>
<circle cx="1480" cy="670" r="10" class="c0"/>
<circle cx="1532" cy="712" r="10" class="c0"/>
<circle cx="1884" cy="632" r="8" class="c0"/>
<circle cx="1632" cy="76" r="8" class="c0"/>
<circle cx="884" cy="536" r="8" class="c0"/>
<circle cx="1676" cy="104" r="8" class="c0"/>
<circle cx="1766" cy="732" r="8" class="c0"/>
<circle cx="1742" cy="636" r="8" class="c0"/>
<circle cx="1226" cy="692" r="8" class="c0"/>
<circle cx="742" cy="618" r="8" class="c0"/>
<circle cx="1504" cy="766" r="8" class="c0"/>
<circle cx="1890" cy="170" r="8" class="c0"/>
<circle cx="1736" cy="654" r="8" class="c0"/>
<circle cx="1898" cy="10" r="8" class="c0"/>
<circle cx="1536" cy="136" r="8" class="c0"/>
<circle cx="968" cy="650" r="8" class="c0"/>
<circle cx="1072" cy="668" r="8" class="c0"/>
<circle cx="1774" cy="642" r="8" class="c0"/>
<circle cx="1702" cy="504" r="8" class="c0"/>
<circle cx="1714" cy="658" r="8" class="c0"/>
<circle cx="1670" cy="692" r="8" class="c0"/>
<circle cx="1472" cy="96" r="8" class="c0"/>
<circle cx="1830" cy="574" r="8" class="c0"/>
<circle cx="894" cy="822" r="8" class="c0"/>
<circle cx="1826" cy="140" r="8" class="c0"/>
<circle cx="1636" cy="754" r="8" class="c0"/>
<circle cx="1768" cy="712" r="8" class="c0"/>
<circle cx="1666" cy="436" r="8" class="c0"/>
<circle cx="1784" cy="626" r="8" class="c0"/>
<circle cx="936" cy="634" r="8" class="c0"/>
<circle cx="1292" cy="808" r="8" class="c0"/>
<circle cx="868" cy="756" r="8" class="c0"/>
<circle cx="1276" cy="634" r="8" class="c0"/>
<circle cx="1244" cy="716" r="8" class="c0"/>
<circle cx="1794" cy="532" r="8" class="c0"/>
<circle cx="848" cy="748" r="8" class="c0"/>
<circle cx="1096" cy="698" r="8" class="c0"/>
<circle cx="1070" cy="608" r="8" class="c0"/>
<circle cx="1826" cy="416" r="8" class="c0"/>
<circle cx="1900" cy="412" r="8" class="c0"/>
<circle cx="1818" cy="598" r="8" class="c0"/>
<circle cx="1414" cy="670" r="8" class="c0"/>
<circle cx="736" cy="756" r="8" class="c0"/>
<circle cx="1572" cy="14" r="8" class="c0"/>
<circle cx="1060" cy="506" r="8" class="c0"/>
<circle cx="1542" cy="734" r="8" class="c0"/>
<circle cx="1610" cy="554" r="8" class="c0"/>
<circle cx="1072" cy="626" r="8" class="c0"/>
<circle cx="766" cy="632" r="8" class="c0"/>
<circle cx="1910" cy="600" r="8" class="c0"/>
<circle cx="1600" cy="706" r="8" class="c0"/>
<circle cx="1018" cy="536" r="8" class="c0"/>
<circle cx="1216" cy="802" r="8" class="c0"/>
<circle cx="1650" cy="620" r="8" class="c0"/>
<circle cx="1282" cy="818" r="8" class="c0"/>
<circle cx="1694" cy="588" r="8" class="c0"/>
<circle cx="1598" cy="644" r="8" class="c0"/>
<circle cx="1306" cy="798" r="8" class="c0"/>
<circle cx="1536" cy="784" r="8" class="c0"/>
<circle cx="870" cy="608" r="8" class="c0"/>
<circle cx="1886" cy="466" r="8" class="c0"/>
<circle cx="954" cy="502" r="8" class="c0"/>
<circle cx="1278" cy="792" r="8" class="c0"/>
<circle cx="1492" cy="104" r="8" class="c0"/>
<circle cx="1820" cy="820" r="8" class="c0"/>
<circle cx="1316" cy="694" r="8" class="c0"/>
<circle cx="1306" cy="720" r="8" class="c0"/>
<circle cx="1752" cy="130" r="8" class="c0"/>
<circle cx="1838" cy="780" r="8" class="c0"/>
<circle cx="1468" cy="652" r="8" class="c0"/>
<circle cx="972" cy="538" r="8" class="c0"/>
<circle cx="1266" cy="710" r="8" class="c0"/>
<circle cx="1514" cy="756" r="8" class="c0"/>
<circle cx="1444" cy="712" r="8" class="c0"/>
<circle cx="942" cy="912" r="8" class="c0"/>
<circle cx="1360" cy="758" r="8" class="c0"/>
<circle cx="1802" cy="668" r="8" class="c0"/>
<circle cx="1770" cy="466" r="8" class="c0"/>
<circle cx="1880" cy="788" r="8" class="c0"/>
<circle cx="1722" cy="544" r="8" class="c0"/>
<circle cx="912" cy="818" r="8" class="c0"/>
<circle cx="1204" cy="792" r="8" class="c0"/>
<circle cx="1824" cy="672" r="8" class="c0"/>
<circle cx="934" cy="958" r="8" class="c0"/>
<circle cx="868" cy="630" r="8" class="c0"/>
<circle cx="1682" cy="468" r="8" class="c0"/>
<circle cx="1340" cy="826" r="8" class="c0"/>
<circle cx="1160" cy="730" r="8" class="c0"/>
<circle cx="1536" cy="684" r="8" class="c0"/>
<circle cx="1838" cy="536" r="8" class="c0"/>
<circle cx="1442" cy="614" r="8" class="c0"/>
<circle cx="856" cy="596" r="8" class="c0"/>
<circle cx="1044" cy="640" r="8" class="c0"/>
<circle cx="1478" cy="38" r="8" class="c0"/>
<circle cx="1720" cy="696" r="8" class="c0"/>
<circle cx="1216" cy="706" r="8" class="c0"/>
<circle cx="1148" cy="648" r="8" class="c0"/>
<circle cx="1838" cy="480" r="8" class="c0"/>
<circle cx="1724" cy="492" r="8" class="c0"/>
<circle cx="1840" cy="462" r="8" class="c0"/>
<circle cx="1732" cy="558" r="8" class="c0"/>
<circle cx="1056" cy="618" r="8" class="c0"/>
<circle cx="1798" cy="562" r="8" class="c0"/>
<circle cx="872" cy="858" r="8" class="c0"/>
<circle cx="1660" cy="792" r="8" class="c0"/>
<circle cx="1852" cy="576" r="8" class="c0"/>
<circle cx="1902" cy="68" r="8" class="c0"/>
<circle cx="1320" cy="666" r="8" class="c0"/>
<circle cx="1658" cy="706" r="8" class="c0"/>
<circle cx="1862" cy="20" r="8" class="c0"/>
<circle cx="1444" cy="806" r="8" class="c0"/>
<circle cx="1214" cy="624" r="8" class="c0"/>
<circle cx="1708" cy="678" r="8" class="c0"/>
<circle cx="736" cy="644" r="8" class="c0"/>
<circle cx="1516" cy="700" r="8" class="c0"/>
<circle cx="1150" cy="688" r="8" class="c0"/>
<circle cx="1798" cy="414" r="8" class="c0"/>
<circle cx="1192" cy="610" r="8" class="c0"/>
<circle cx="1562" cy="652" r="8" class="c0"/>
<circle cx="1910" cy="638" r="8" class="c0"/>
<circle cx="776" cy="592" r="8" class="c0"/>
<circle cx="982" cy="554" r="8" class="c0"/>
<circle cx="1142" cy="544" r="8" class="c0"/>
<circle cx="1774" cy="94" r="8" class="c0"/>
<circle cx="1312" cy="776" r="8" class="c0"/>
<circle cx="1740" cy="688" r="8" class="c0"/>
<circle cx="852" cy="808" r="8" class="c0"/>
<circle cx="924" cy="854" r="8" class="c0"/>
<circle cx="1678" cy="770" r="8" class="c0"/>
<circle cx="1282" cy="720" r="8" class="c0"/>
<circle cx="1664" cy="668" r="8" class="c0"/>
<circle cx="942" cy="730" r="8" class="c0"/>
<circle cx="1646" cy="682" r="8" class="c0"/>
<circle cx="1728" cy="624" r="8" class="c0"/>
<circle cx="1006" cy="554" r="8" class="c0"/>
<circle cx="1572" cy="534" r="8" class="c0"/>
<circle cx="1910" cy="432" r="8" class="c0"/>
<circle cx="1232" cy="744" r="8" class="c0"/>
<circle cx="1896" cy="722" r="8" class="c0"/>
<circle cx="1742" cy="772" r="8" class="c0"/>
<circle cx="1520" cy="724" r="8" class="c0"/>
<circle cx="838" cy="636" r="8" class="c0"/>
<circle cx="1548" cy="602" r="8" class="c0"/>
<circle cx="1712" cy="774" r="8" class="c0"/>
<circle cx="1696" cy="570" r="8" class="c0"/>
<circle cx="1856" cy="182" r="8" class="c0"/>
<circle cx="1478" cy="130" r="8" class="c0"/>
<circle cx="1354" cy="794" r="8" class="c0"/>
<circle cx="1760" cy="594" r="8" class="c0"/>
<circle cx="1442" cy="756" r="8" class="c0"/>
<circle cx="1672" cy="526" r="8" class="c0"/>
<circle cx="1332" cy="810" r="8" class="c0"/>
<circle cx="1152" cy="752" r="8" class="c0"/>
<circle cx="1302" cy="748" r="8" class="c0"/>
<circle cx="1266" cy="662" r="8" class="c0"/>
<circle cx="1552" cy="10" r="8" class="c0"/>
<circle cx="1842" cy="668" r="8" class="c0"/>
<circle cx="828" cy="574" r="8" class="c0"/>
<circle cx="1888" cy="88" r="8" class="c0"/>
<circle cx="1888" cy="702" r="8" class="c0"/>
<circle cx="1074" cy="560" r="8" class="c0"/>
<circle cx="1750" cy="20" r="8" class="c0"/>
<circle cx="914" cy="844" r="8" class="c0"/>
<circle cx="792" cy="700" r="8" class="c0"/>
<circle cx="1572" cy="632" r="8" class="c0"/>
<circle cx="1530" cy="748" r="8" class="c0"/>
<circle cx="1088" cy="604" r="8" class="c0"/>
<circle cx="1070" cy="530" r="8" class="c0"/>
<circle cx="1530" cy="620" r="8" class="c0"/>
<circle cx="1718" cy="418" r="8" class="c0"/>
<circle cx="712" cy="714" r="8" class="c0"/>
<circle cx="1172" cy="720" r="8" class="c0"/>
<circle cx="722" cy="670" r="8" class="c0"/>
<circle cx="824" cy="674" r="8" class="c0"/>
<circle cx="1064" cy="650" r="8" class="c0"/>
<circle cx="1104" cy="682" r="8" class="c0"/>
<circle cx="1628" cy="592" r="8" class="c0"/>
<circle cx="1586" cy="616" r="8" class="c0"/>
<circle cx="1678" cy="578" r="8" class="c0"/>
<circle cx="1140" cy="738" r="8" class="c0"/>
<circle cx="1802" cy="768" r="8" class="c0"/>
<circle cx="1350" cy="770" r="8" class="c0"/>
<circle cx="1658" cy="152" r="8" class="c0"/>
<circle cx="838" cy="692" r="8" class="c0"/>
<circle cx="848" cy="704" r="8" class="c0"/>
<circle cx="814" cy="632" r="8" class="c0"/>
<circle cx="1804" cy="12" r="8" class="c0"/>
<circle cx="1492" cy="596" r="8" class="c0"/>
<circle cx="1448" cy="54" r="8" class="c0"/>
<circle cx="1304" cy="836" r="8" class="c0"/>
<circle cx="1870" cy="152" r="8" class="c0"/>
<circle cx="1792" cy="468" r="8" class="c0"/>
<circle cx="1746" cy="466" r="8" class="c0"/>
<circle cx="1494" cy="788" r="8" class="c0"/>
<circle cx="858" cy="876" r="8" class="c0"/>
<circle cx="1754" cy="748" r="8" class="c0"/>
<circle cx="1144" cy="582" r="8" class="c0"/>
<circle cx="928" cy="526" r="8" class="c0"/>
<circle cx="944" cy="972" r="8" class="c0"/>
<circle cx="926" cy="834" r="8" class="c0"/>
<circle cx="856" cy="620" r="8" class="c0"/>
<circle cx="1382" cy="806" r="8" class="c0"/>
<circle cx="1736" cy="8" r="8" class="c0"/>
<circle cx="796" cy="588" r="8" class="c0"/>
<circle cx="726" cy="742" r="8" class="c0"/>
<circle cx="1908" cy="778" r="8" class="c0"/>
<circle cx="1592" cy="154" r="8" class="c0"/>
<circle cx="1590" cy="724" r="8" class="c0"/>
<circle cx="1026" cy="504" r="8" class="c0"/>
<circle cx="1704" cy="604" r="8" class="c0"/>
<circle cx="1232" cy="788" r="8" class="c0"/>
<circle cx="932" cy="882" r="8" class="c0"/>
<circle cx="1398" cy="822" r="8" class="c0"/>
<circle cx="1874" cy="528" r="8" class="c0"/>
<circle cx="1106" cy="622" r="8" class="c0"/>
<circle cx="1104" cy="662" r="8" class="c0"/>
<circle cx="960" cy="522" r="8" class="c0"/>
<circle cx="1040" cy="530" r="8" class="c0"/>
<circle cx="1522" cy="116" r="8" class="c0"/>
<circle cx="1126" cy="602" r="8" class="c0"/>
<circle cx="1424" cy="790" r="8" class="c0"/>
<circle cx="1870" cy="620" r="8" class="c0"/>
<circle cx="1842" cy="600" r="8" class="c0"/>
<circle cx="942" cy="686" r="8" class="c0"/>
<circle cx="962" cy="554" r="8" class="c0"/>
<circle cx="1828" cy="68" r="8" class="c0"/>
<circle cx="774" cy="658" r="8" class="c0"/>
<circle cx="1784" cy="788" r="8" class="c0"/>
<circle cx="1154" cy="606" r="8" class="c0"/>
<circle cx="1410" cy="650" r="8" class="c0"/>
<circle cx="846" cy="970" r="8" class="c0"/>
<circle cx="1232" cy="764" r="8" class="c0"/>
<circle cx="1874" cy="76" r="8" class="c0"/>
<circle cx="862" cy="848" r="8" class="c0"/>
<circle cx="902" cy="936" r="8" class="c0"/>
<circle cx="1800" cy="512" r="8" class="c0"/>
<circle cx="996" cy="508" r="8" class="c0"/>
<circle cx="1182" cy="734" r="8" class="c0"/>
<circle cx="1612" cy="774" r="8" class="c0"/>
<circle cx="1452" cy="632" r="8" class="c0"/>
<circle cx="1818" cy="46" r="8" class="c0"/>
<circle cx="1794" cy="816" r="8" class="c0"/>
<circle cx="1764" cy="632" r="8" class="c0"/>
<circle cx="1894" cy="152" r="8" class="c0"/>
<circle cx="1870" cy="454" r="8" class="c0"/>
<circle cx="878" cy="744" r="8" class="c0"/>
<circle cx="1696" cy="756" r="8" class="c0"/>
<circle cx="896" cy="906" r="8" class="c0"/>
<circle cx="1072" cy="584" r="8" class="c0"/>
<circle cx="1344" cy="700" r="8" class="c0"/>
<circle cx="1788" cy="440" r="8" class="c0"/>
<circle cx="1640" cy="534" r="8" class="c0"/>
<circle cx="936" cy="774" r="8" class="c0"/>
<circle cx="1906" cy="544" r="8" class="c0"/>
<circle cx="1500" cy="688" r="8" class="c0"/>
<circle cx="1782" cy="518" r="8" class="c0"/>
<circle cx="1834" cy="102" r="8" class="c0"/>
<circle cx="946" cy="572" r="8" class="c0"/>
<circle cx="1422" cy="718" r="8" class="c0"/>
<circle cx="1648" cy="644" r="8" class="c0"/>
<circle cx="1514" cy="642" r="8" class="c0"/>
<circle cx="1568" cy="740" r="8" class="c0"/>
<circle cx="1700" cy="790" r="8" class="c0"/>
<circle cx="1772" cy="808" r="8" class="c0"/>
<circle cx="1392" cy="666" r="8" class="c0"/>
<circle cx="1720" cy="724" r="8" class="c0"/>
<circle cx="1792" cy="592" r="8" class="c0"/>
<circle cx="1660" cy="724" r="8" class="c0"/>
<circle cx="1578" cy="664" r="8" class="c0"/>
<circle cx="1504" cy="114" r="8" class="c0"/>
<circle cx="1664" cy="542" r="8" class="c0"/>
<circle cx="1374" cy="740" r="8" class="c0"/>
<circle cx="1172" cy="610" r="8" class="c0"/>
<circle cx="1908" cy="140" r="8" class="c0"/>
<circle cx="1836" cy="8" r="8" class="c0"/>
<circle cx="1676" cy="560" r="8" class="c0"/>
<circle cx="948" cy="864" r="8" class="c0"/>
<circle cx="1170" cy="666" r="8" class="c0"/>
<circle cx="958" cy="896" r="8" class="c0"/>
<circle cx="1158" cy="706" r="8" class="c0"/>
<circle cx="1060" cy="546" r="8" class="c0"/>
<circle cx="1832" cy="704" r="8" class="c0"/>
<circle cx="1466" cy="604" r="8" class="c0"/>
<circle cx="1632" cy="156" r="8" class="c0"/>
<circle cx="1674" cy="620" r="8" class="c0"/>
<circle cx="1452" cy="770" r="8" class="c0"/>
<circle cx="1038" cy="588" r="8" class="c0"/>
<circle cx="896" cy="716" r="8" class="c0"/>
<circle cx="1748" cy="490" r="8" class="c0"/>
<circle cx="1086" cy="686" r="8" class="c0"/>
<circle cx="1008" cy="496" r="8" class="c0"/>
<circle cx="1392" cy="46" r="8" class="c0"/>
<circle cx="1776" cy="608" r="8" class="c0"/>
<circle cx="1728" cy="462" r="8" class="c0"/>
<circle cx="1374" cy="658" r="8" class="c0"/>
<circle cx="1132" cy="566" r="8" class="c0"/>
<circle cx="1642" cy="574" r="8" class="c0"/>
<circle cx="1238" cy="664" r="8" class="c0"/>
<circle cx="1576" cy="760" r="8" class="c0"/>
<circle cx="1094" cy="550" r="8" class="c0"/>
<circle cx="1772" cy="540" r="8" class="c0"/>
<circle cx="1794" cy="612" r="8" class="c0"/>
<circle cx="804" cy="688" r="8" class="c0"/>
<circle cx="852" cy="836" r="8" class="c0"/>
<circle cx="1628" cy="714" r="8" class="c0"/>
<circle cx="1594" cy="526" r="8" class="c0"/>
<circle cx="1710" cy="16" r="8" class="c0"/>
<circle cx="1442" cy="782" r="8" class="c0"/>
<circle cx="1648" cy="804" r="8" class="c0"/>
<circle cx="1524" cy="12" r="8" class="c0"/>
<circle cx="1540" cy="94" r="8" class="c0"/>
<circle cx="1402" cy="66" r="8" class="c0"/>
<circle cx="944" cy="942" r="8" class="c0"/>
<circle cx="1096" cy="572" r="8" class="c0"/>
<circle cx="864" cy="546" r="8" class="c0"/>
<circle cx="1644" cy="64" r="8" class="c0"/>
<circle cx="1484" cy="84" r="8" class="c0"/>
<circle cx="1862" cy="470" r="8" class="c0"/>
<circle cx="836" cy="618" r="8" class="c0"/>
<circle cx="1614" cy="534" r="8" class="c0"/>
<circle cx="1128" cy="688" r="8" class="c0"/>
<circle cx="762" cy="694" r="8" class="c0"/>
<circle cx="1900" cy="188" r="8" class="c0"/>
<circle cx="1600" cy="10" r="8" class="c0"/>
<circle cx="1656" cy="76" r="8" class="c0"/>
<circle cx="1384" cy="28" r="8" class="c0"/>
<circle cx="1114" cy="702" r="8" class="c0"/>
<circle cx="1730" cy="606" r="8" class="c0"/>
<circle cx="1556" cy="544" r="8" class="c0"/>
<circle cx="1692" cy="480" r="8" class="c0"/>
<circle cx="1730" cy="110" r="8" class="c0"/>
<circle cx="1720" cy="568" r="8" class="c0"/>
<circle cx="906" cy="704" r="8" class="c0"/>
<circle cx="1822" cy="524" r="8" class="c0"/>
<circle cx="902" cy="522" r="8" class="c0"/>
<circle cx="1820" cy="468" r="8" class="c0"/>
<circle cx="1184" cy="678" r="8" class="c0"/>
<circle cx="1322" cy="788" r="8" class="c0"/>
<circle cx="1766" cy="414" r="8" class="c0"/>
<circle cx="1256" cy="728" r="8" class="c0"/>
<circle cx="1670" cy="642" r="8" class="c0"/>
<circle cx="868" cy="576" r="8" class="c0"/>
<circle cx="1758" cy="702" r="8" class="c0"/>
<circle cx="1812" cy="694" r="8" class="c0"/>
<circle cx="868" cy="898" r="8" class="c0"/>
<circle cx="762" cy="602" r="8" class="c0"/>
<circle cx="958" cy="822" r="8" class="c0"/>
<circle cx="1830" cy="744" r="8" class="c0"/>
<circle cx="1890" cy="806" r="8" class="c0"/>
<circle cx="1862" cy="88" r="8" class="c0"/>
<circle cx="956" cy="638" r="8" class="c0"/>
<circle cx="846" cy="582" r="8" class="c0"/>
<circle cx="1624" cy="572" r="8" class="c0"/>
<circle cx="1274" cy="680" r="8" class="c0"/>
<circle cx="1844" cy="412" r="8" class="c0"/>
<circle cx="1504" cy="666" r="8" class="c0"/>
<circle cx="900" cy="576" r="8" class="c0"/>
<circle cx="1486" cy="146" r="8" class="c0"/>
<circle cx="1456" cy="666" r="8" class="c0"/>
<circle cx="1292" cy="738" r="8" class="c0"/>
<circle cx="1320" cy="738" r="8" class="c0"/>
<circle cx="860" cy="690" r="8" class="c0"/>
<circle cx="1444" cy="684" r="8" class="c0"/>
<circle cx="1902" cy="622" r="8" class="c0"/>
<circle cx="806" cy="786" r="8" class="c0"/>
<circle cx="1708" cy="556" r="8" class="c0"/>
<circle cx="936" cy="596" r="8" class="c0"/>
<circle cx="1402" cy="632" r="8" class="c0"/>
<circle cx="1292" cy="776" r="8" class="c0"/>
<circle cx="1732" cy="34" r="8" class="c0"/>
<circle cx="1484" cy="774" r="8" class="c0"/>
<circle cx="960" cy="680" r="8" class="c0"/>
<circle cx="1330" cy="710" r="8" class="c0"/>
<circle cx="1422" cy="808" r="8" class="c0"/>
<circle cx="1908" cy="708" r="8" class="c0"/>
<circle cx="1374" cy="708" r="8" class="c0"/>
<circle cx="1514" cy="46" r="8" class="c0"/>
<circle cx="1198" cy="586" r="8" class="c0"/>
<circle cx="1808" cy="478" r="8" class="c0"/>
<circle cx="1522" cy="154" r="8" class="c0"/>
<circle cx="1676" cy="496" r="8" class="c0"/>
<circle cx="728" cy="724" r="8" class="c0"/>
<circle cx="1694" cy="614" r="8" class="c0"/>
<circle cx="1910" cy="402" r="8" class="c0"/>
<circle cx="1450" cy="84" r="8" class="c0"/>
<circle cx="1808" cy="426" r="8" class="c0"/>
<circle cx="1734" cy="578" r="8" class="c0"/>
<circle cx="864" cy="648" r="8" class="c0"/>
<circle cx="1624" cy="10" r="8" class="c0"/>
<circle cx="1332" cy="678" r="8" class="c0"/>
<circle cx="1802" cy="582" r="8" class="c0"/>
<circle cx="980" cy="500" r="8" class="c0"/>
<circle cx="836" cy="654" r="8" class="c0"/>
<circle cx="1024" cy="558" r="8" class="c0"/>
<circle cx="1592" cy="598" r="8" class="c0"/>
<circle cx="1870" cy="410" r="8" class="c0"/>
<circle cx="880" cy="586" r="8" class="c0"/>
<circle cx="800" cy="568" r="8" class="c0"/>
<circle cx="1518" cy="576" r="8" class="c0"/>
<circle cx="1272" cy="774" r="8" class="c0"/>
<circle cx="1666" cy="750" r="8" class="c0"/>
<circle cx="1840" cy="560" r="8" class="c0"/>
<circle cx="954" cy="958" r="8" class="c0"/>
<circle cx="1754" cy="648" r="8" class="c0"/>
<circle cx="1276" cy="836" r="8" class="c0"/>
<circle cx="1888" cy="738" r="8" class="c0"/>
<circle cx="924" cy="944" r="8" class="c0"/>
<circle cx="1168" cy="690" r="8" class="c0"/>
<circle cx="1850" cy="452" r="8" class="c0"/>
<circle cx="940" cy="512" r="8" class="c0"/>
<circle cx="1876" cy="180" r="8" class="c0"/>
<circle cx="984" cy="610" r="8" class="c0"/>
<circle cx="932" cy="704" r="8" class="c0"/>
<circle cx="1852" cy="106" r="8" class="c0"/>
<circle cx="1190" cy="782" r="8" class="c0"/>
<circle cx="1228" cy="724" r="8" class="c0"/>
<circle cx="1548" cy="76" r="8" class="c0"/>
<circle cx="1568" cy="610" r="8" class="c0"/>
<circle cx="1884" cy="554" r="8" class="c0"/>
<circle cx="1904" cy="316" r="8" class="c0"/>
<circle cx="1622" cy="494" r="8" class="c0"/>
<circle cx="1686" cy="90" r="8" class="c0"/>
<circle cx="1670" cy="88" r="6" class="c0"/>
<circle cx="964" cy="742" r="6" class="c0"/>
<circle cx="1736" cy="478" r="6" class="c0"/>
<circle cx="1636" cy="608" r="6" class="c0"/>
<circle cx="942" cy="824" r="6" class="c0"/>
<circle cx="1738" cy="756" r="6" class="c0"/>
<circle cx="1764" cy="486" r="6" class="c0"/>
<circle cx="1612" cy="716" r="6" class="c0"/>
<circle cx="1680" cy="422" r="6" class="c0"/>
<circle cx="1730" cy="708" r="6" class="c0"/>
<circle cx="1644" cy="10" r="6" class="c0"/>
<circle cx="1804" cy="644" r="6" class="c0"/>
<circle cx="1782" cy="730" r="6" class="c0"/>
<circle cx="1706" cy="734" r="6" class="c0"/>
<circle cx="1148" cy="560" r="6" class="c0"/>
<circle cx="1622" cy="762" r="6" class="c0"/>
<circle cx="1688" cy="632" r="6" class="c0"/>
<circle cx="1306" cy="674" r="6" class="c0"/>
<circle cx="1872" cy="690" r="6" class="c0"/>
<circle cx="1288" cy="672" r="6" class="c0"/>
<circle cx="998" cy="602" r="6" class="c0"/>
<circle cx="1602" cy="50" r="6" class="c0"/>
<circle cx="858" cy="980" r="6" class="c0"/>
<circle cx="1658" cy="108" r="6" class="c0"/>
<circle cx="1462" cy="34" r="6" class="c0"/>
<circle cx="1890" cy="510" r="6" class="c0"/>
<circle cx="1910" cy="88" r="6" class="c0"/>
<circle cx="1640" cy="698" r="6" class="c0"/>
<circle cx="1502" cy="8" r="6" class="c0"/>
<circle cx="1862" cy="782" r="6" class="c0"/>
<circle cx="954" cy="926" r="6" class="c0"/>
<circle cx="1644" cy="720" r="6" class="c0"/>
<circle cx="1526" cy="56" r="6" class="c0"/>
<circle cx="1748" cy="410" r="6" class="c0"/>
<circle cx="964" cy="918" r="6" class="c0"/>
<circle cx="1728" cy="780" r="6" class="c0"/>
<circle cx="1452" cy="650" r="6" class="c0"/>
<circle cx="1846" cy="22" r="6" class="c0"/>
<circle cx="1114" cy="542" r="6" class="c0"/>
<circle cx="1760" cy="450" r="6" class="c0"/>
<circle cx="876" cy="936" r="6" class="c0"/>
<circle cx="1662" cy="12" r="6" class="c0"/>
<circle cx="1656" cy="520" r="6" class="c0"/>
<circle cx="1728" cy="674" r="6" class="c0"/>
<circle cx="1564" cy="58" r="6" class="c0"/>
<circle cx="898" cy="882" r="6" class="c0"/>
<circle cx="1684" cy="794" r="6" class="c0"/>
<circle cx="1518" cy="790" r="6" class="c0"/>
<circle cx="1484" cy="690" r="6" class="c0"/>
<circle cx="1750" cy="110" r="6" class="c0"/>
<circle cx="1784" cy="108" r="6" class="c0"/>
<circle cx="1700" cy="420" r="6" class="c0"/>
<circle cx="926" cy="554" r="6" class="c0"/>
<circle cx="1160" cy="626" r="6" class="c0"/>
<circle cx="1804" cy="56" r="6" class="c0"/>
<circle cx="1608" cy="754" r="6" class="c0"/>
<circle cx="1044" cy="504" r="6" class="c0"/>
<circle cx="1732" cy="426" r="6" class="c0"/>
<circle cx="1216" cy="752" r="6" class="c0"/>
<circle cx="946" cy="848" r="6" class="c0"/>
<circle cx="1826" cy="86" r="6" class="c0"/>
<circle cx="1310" cy="648" r="6" class="c0"/>
<circle cx="1056" cy="586" r="6" class="c0"/>
<circle cx="1898" cy="280" r="6" class="c0"/>
<circle cx="1912" cy="506" r="6" class="c0"/>
<circle cx="1848" cy="820" r="6" class="c0"/>
<circle cx="1772" cy="502" r="6" class="c0"/>
<circle cx="1610" cy="24" r="6" class="c0"/>
<circle cx="1436" cy="36" r="6" class="c0"/>
<circle cx="1622" cy="146" r="6" class="c0"/>
<circle cx="952" cy="778" r="6" class="c0"/>
<circle cx="948" cy="750" r="6" class="c0"/>
<circle cx="894" cy="740" r="6" class="c0"/>
<circle cx="1564" cy="566" r="6" class="c0"/>
<circle cx="988" cy="638" r="6" class="c0"/>
<circle cx="1598" cy="764" r="6" class="c0"/>
<circle cx="828" cy="556" r="6" class="c0"/>
<circle cx="1418" cy="62" r="6" class="c0"/>
<circle cx="1912" cy="482" r="6" class="c0"/>
<circle cx="1910" cy="294" r="6" class="c0"/>
<circle cx="906" cy="734" r="6" class="c0"/>
<circle cx="1674" cy="452" r="6" class="c0"/>
<circle cx="1534" cy="546" r="6" class="c0"/>
<circle cx="1682" cy="674" r="6" class="c0"/>
<circle cx="1910" cy="796" r="6" class="c0"/>
<circle cx="1500" cy="706" r="6" class="c0"/>
<circle cx="1674" cy="802" r="6" class="c0"/>
<circle cx="1864" cy="680" r="6" class="c0"/>
<circle cx="1872" cy="10" r="6" class="c0"/>
<circle cx="1900" cy="232" r="6" class="c0"/>
<circle cx="1708" cy="524" r="6" class="c0"/>
<circle cx="1198" cy="628" r="6" class="c0"/>
<circle cx="1772" cy="142" r="6" class="c0"/>
<circle cx="1560" cy="122" r="6" class="c0"/>
<circle cx="782" cy="630" r="6" class="c0"/>
<circle cx="1190" cy="718" r="6" class="c0"/>
<circle cx="1630" cy="556" r="6" class="c0"/>
<circle cx="1360" cy="716" r="6" class="c0"/>
<circle cx="1912" cy="162" r="6" class="c0"/>
<circle cx="1692" cy="14" r="6" class="c0"/>
<circle cx="1010" cy="518" r="6" class="c0"/>
<circle cx="1260" cy="630" r="6" class="c0"/>
<circle cx="1480" cy="802" r="6" class="c0"/>
<circle cx="1892" cy="766" r="6" class="c0"/>
<circle cx="1866" cy="46" r="6" class="c0"/>
<circle cx="1618" cy="700" r="6" class="c0"/>
<circle cx="1854" cy="490" r="6" class="c0"/>
<circle cx="1116" cy="672" r="6" class="c0"/>
<circle cx="1660" cy="574" r="6" class="c0"/>
<circle cx="1906" cy="826" r="6" class="c0"/>
<circle cx="1722" cy="640" r="6" class="c0"/>
<circle cx="1586" cy="1430" r="6" class="c0"/>
<circle cx="1800" cy="684" r="6" class="c0"/>
<circle cx="1726" cy="762" r="6" class="c0"/>
<circle cx="1756" cy="476" r="6" class="c0"/>
<circle cx="1088" cy="586" r="6" class="c0"/>
<circle cx="1622" cy="792" r="6" class="c0"/>
<circle cx="1888" cy="446" r="6" class="c0"/>
<circle cx="900" cy="982" r="6" class="c0"/>
<circle cx="1908" cy="212" r="6" class="c0"/>
<circle cx="1570" cy="112" r="6" class="c0"/>
<circle cx="1302" cy="702" r="6" class="c0"/>
<circle cx="1674" cy="714" r="6" class="c0"/>
<circle cx="1364" cy="648" r="6" class="c0"/>
<circle cx="1846" cy="794" r="6" class="c0"/>
<circle cx="806" cy="720" r="6" class="c0"/>
<circle cx="1522" cy="772" r="6" class="c0"/>
<circle cx="1584" cy="114" r="6" class="c0"/>
<circle cx="1344" cy="754" r="6" class="c0"/>
<circle cx="1910" cy="176" r="6" class="c0"/>
<circle cx="1780" cy="50" r="6" class="c0"/>
<circle cx="1168" cy="650" r="6" class="c0"/>
<circle cx="1796" cy="142" r="6" class="c0"/>
<circle cx="1530" cy="646" r="6" class="c0"/>
<circle cx="1468" cy="766" r="6" class="c0"/>
<circle cx="1718" cy="152" r="6" class="c0"/>
<circle cx="1160" cy="570" r="6" class="c0"/>
<circle cx="1844" cy="148" r="6" class="c0"/>
<circle cx="1822" cy="728" r="6" class="c0"/>
<circle cx="1700" cy="464" r="6" class="c0"/>
<circle cx="1180" cy="572" r="6" class="c0"/>
<circle cx="1090" cy="620" r="6" class="c0"/>
<circle cx="1336" cy="744" r="6" class="c0"/>
<circle cx="1432" cy="674" r="6" class="c0"/>
<circle cx="1862" cy="62" r="6" class="c0"/>
<circle cx="1662" cy="608" r="6" class="c0"/>
<circle cx="916" cy="590" r="6" class="c0"/>
<circle cx="924" cy="738" r="6" class="c0"/>
<circle cx="1780" cy="556" r="6" class="c0"/>
<circle cx="1236" cy="634" r="6" class="c0"/>
<circle cx="1566" cy="146" r="6" class="c0"/>
<circle cx="1126" cy="550" r="6" class="c0"/>
<circle cx="1150" cy="720" r="6" class="c0"/>
<circle cx="764" cy="740" r="6" class="c0"/>
<circle cx="1714" cy="60" r="6" class="c0"/>
<circle cx="1448" cy="28" r="6" class="c0"/>
<circle cx="1714" cy="112" r="6" class="c0"/>
<circle cx="880" cy="618" r="6" class="c0"/>
<circle cx="1824" cy="614" r="6" class="c0"/>
<circle cx="1664" cy="508" r="6" class="c0"/>
<circle cx="1788" cy="548" r="6" class="c0"/>
<circle cx="1854" cy="614" r="6" class="c0"/>
<circle cx="1048" cy="600" r="6" class="c0"/>
<circle cx="1690" cy="138" r="6" class="c0"/>
<circle cx="1224" cy="674" r="6" class="c0"/>
<circle cx="1496" cy="752" r="6" class="c0"/>
<circle cx="1498" cy="38" r="6" class="c0"/>
<circle cx="1510" cy="608" r="6" class="c0"/>
<circle cx="1586" cy="72" r="6" class="c0"/>
<circle cx="1604" cy="660" r="6" class="c0"/>
<circle cx="1212" cy="662" r="6" class="c0"/>
<circle cx="1886" cy="538" r="6" class="c0"/>
<circle cx="1488" cy="612" r="6" class="c0"/>
<circle cx="1168" cy="750" r="6" class="c0"/>
<circle cx="1866" cy="564" r="6" class="c0"/>
<circle cx="1636" cy="628" r="6" class="c0"/>
<circle cx="1906" cy="582" r="6" class="c0"/>
<circle cx="730" cy="702" r="6" class="c0"/>
<circle cx="1598" cy="544" r="6" class="c0"/>
<circle cx="720" cy="648" r="6" class="c0"/>
<circle cx="1454" cy="702" r="6" class="c0"/>
<circle cx="1814" cy="570" r="6" class="c0"/>
<circle cx="1860" cy="506" r="6" class="c0"/>
<circle cx="1582" cy="700" r="6" class="c0"/>
<circle cx="1780" cy="456" r="6" class="c0"/>
<circle cx="936" cy="928" r="6" class="c0"/>
<circle cx="930" cy="668" r="6" class="c0"/>
<circle cx="1552" cy="138" r="6" class="c0"/>
<circle cx="1552" cy="620" r="6" class="c0"/>
<circle cx="1450" cy="6" r="6" class="c0"/>
<circle cx="970" cy="510" r="6" class="c0"/>
<circle cx="1788" cy="676" r="6" class="c0"/>
<circle cx="1494" cy="126" r="6" class="c0"/>
<circle cx="960" cy="792" r="6" class="c0"/>
<circle cx="1744" cy="506" r="6" class="c0"/>
<circle cx="1080" cy="518" r="6" class="c0"/>
<circle cx="1884" cy="650" r="6" class="c0"/>
<circle cx="1632" cy="806" r="6" class="c0"/>
<circle cx="1540" cy="118" r="6" class="c0"/>
<circle cx="1820" cy="786" r="6" class="c0"/>
<circle cx="1538" cy="764" r="6" class="c0"/>
<circle cx="1032" cy="630" r="6" class="c0"/>
<circle cx="900" cy="550" r="6" class="c0"/>
<circle cx="1294" cy="710" r="6" class="c0"/>
<circle cx="1490" cy="52" r="6" class="c0"/>
<circle cx="750" cy="636" r="6" class="c0"/>
<circle cx="1780" cy="130" r="6" class="c0"/>
<circle cx="914" cy="986" r="6" class="c0"/>
<circle cx="1730" cy="78" r="6" class="c0"/>
<circle cx="808" cy="758" r="6" class="c0"/>
<circle cx="816" cy="562" r="6" class="c0"/>
<circle cx="1272" cy="808" r="6" class="c0"/>
<circle cx="1198" cy="766" r="6" class="c0"/>
<circle cx="976" cy="572" r="6" class="c0"/>
<circle cx="1854" cy="156" r="6" class="c0"/>
<circle cx="1324" cy="832" r="6" class="c0"/>
<circle cx="1742" cy="146" r="6" class="c0"/>
<circle cx="774" cy="614" r="6" class="c0"/>
<circle cx="970" cy="940" r="6" class="c0"/>
<circle cx="1910" cy="270" r="6" class="c0"/>
<circle cx="1684" cy="46" r="6" class="c0"/>
<circle cx="1584" cy="576" r="6" class="c0"/>
<circle cx="1460" cy="136" r="6" class="c0"/>
<circle cx="1882" cy="226" r="6" class="c0"/>
<circle cx="1650" cy="432" r="6" class="c0"/>
<circle cx="1742" cy="592" r="6" class="c0"/>
<circle cx="884" cy="812" r="6" class="c0"/>
<circle cx="1634" cy="116" r="6" class="c0"/>
<circle cx="1782" cy="412" r="6" class="c0"/>
<circle cx="1794" cy="738" r="6" class="c0"/>
<circle cx="1428" cy="86" r="6" class="c0"/>
<circle cx="1888" cy="244" r="6" class="c0"/>
<circle cx="1868" cy="122" r="6" class="c0"/>
<circle cx="1770" cy="28" r="6" class="c0"/>
<circle cx="1912" cy="54" r="6" class="c0"/>
<circle cx="1756" cy="684" r="6" class="c0"/>
<circle cx="890" cy="926" r="6" class="c0"/>
<circle cx="1778" cy="430" r="6" class="c0"/>
<circle cx="916" cy="876" r="6" class="c0"/>
<circle cx="1770" cy="442" r="6" class="c0"/>
<circle cx="1030" cy="574" r="6" class="c0"/>
<circle cx="1912" cy="250" r="6" class="c0"/>
<circle cx="1464" cy="710" r="6" class="c0"/>
<circle cx="1442" cy="642" r="6" class="c0"/>
<circle cx="1568" cy="774" r="6" class="c0"/>
<circle cx="1368" cy="772" r="6" class="c0"/>
<circle cx="1400" cy="30" r="6" class="c0"/>
<circle cx="1622" cy="128" r="6" class="c0"/>
<circle cx="1014" cy="568" r="6" class="c0"/>
<circle cx="1860" cy="634" r="6" class="c0"/>
<circle cx="994" cy="564" r="6" class="c0"/>
<circle cx="1786" cy="62" r="6" class="c0"/>
<circle cx="1240" cy="700" r="6" class="c0"/>
<circle cx="1234" cy="600" r="6" class="c0"/>
<circle cx="1642" cy="440" r="6" class="c0"/>
<circle cx="1750" cy="664" r="6" class="c0"/>
<circle cx="1132" cy="650" r="6" class="c0"/>
<circle cx="1606" cy="512" r="6" class="c0"/>
<circle cx="1552" cy="780" r="6" class="c0"/>
<circle cx="1836" cy="720" r="6" class="c0"/>
<circle cx="836" cy="592" r="6" class="c0"/>
<circle cx="1510" cy="782" r="6" class="c0"/>
<circle cx="1654" cy="122" r="6" class="c0"/>
<circle cx="1816" cy="130" r="6" class="c0"/>
<circle cx="1612" cy="158" r="6" class="c0"/>
<circle cx="1350" cy="684" r="6" class="c0"/>
<circle cx="1738" cy="450" r="6" class="c0"/>
<circle cx="1866" cy="168" r="6" class="c0"/>
<circle cx="738" cy="664" r="6" class="c0"/>
<circle cx="1856" cy="718" r="6" class="c0"/>
<circle cx="846" cy="608" r="6" class="c0"/>
<circle cx="1224" cy="614" r="6" class="c0"/>
<circle cx="1370" cy="796" r="6" class="c0"/>
<circle cx="850" cy="764" r="6" class="c0"/>
<circle cx="1812" cy="778" r="6" class="c0"/>
<circle cx="1086" cy="660" r="6" class="c0"/>
<circle cx="1696" cy="100" r="6" class="c0"/>
<circle cx="1124" cy="658" r="6" class="c0"/>
<circle cx="1718" cy="790" r="6" class="c0"/>
<circle cx="812" cy="578" r="6" class="c0"/>
<circle cx="1380" cy="828" r="6" class="c0"/>
<circle cx="1514" cy="680" r="6" class="c0"/>
<circle cx="1758" cy="92" r="6" class="c0"/>
<circle cx="1896" cy="340" r="6" class="c0"/>
<circle cx="888" cy="698" r="6" class="c0"/>
<circle cx="1802" cy="496" r="6" class="c0"/>
<circle cx="962" cy="760" r="6" class="c0"/>
<circle cx="974" cy="910" r="6" class="c0"/>
<circle cx="910" cy="748" r="6" class="c0"/>
<circle cx="1666" cy="590" r="6" class="c0"/>
<circle cx="1554" cy="152" r="6" class="c0"/>
<circle cx="1842" cy="164" r="6" class="c0"/>
<circle cx="918" cy="516" r="6" class="c0"/>
<circle cx="862" cy="934" r="6" class="c0"/>
<circle cx="1054" cy="522" r="6" class="c0"/>
<circle cx="912" cy="556" r="6" class="c0"/>
<circle cx="912" cy="720" r="6" class="c0"/>
<circle cx="1430" cy="54" r="6" class="c0"/>
<circle cx="908" cy="952" r="6" class="c0"/>
<circle cx="1686" cy="114" r="6" class="c0"/>
<circle cx="784" cy="576" r="6" class="c0"/>
<circle cx="1894" cy="46" r="6" class="c0"/>
<circle cx="1540" cy="656" r="6" class="c0"/>
<circle cx="1028" cy="520" r="6" class="c0"/>
<circle cx="1720" cy="6" r="6" class="c0"/>
<circle cx="1394" cy="682" r="6" class="c0"/>
<circle cx="1708" cy="428" r="6" class="c0"/>
<circle cx="1338" cy="790" r="6" class="c0"/>
<circle cx="1014" cy="604" r="6" class="c0"/>
<circle cx="1812" cy="658" r="6" class="c0"/>
<circle cx="1740" cy="120" r="6" class="c0"/>
<circle cx="1840" cy="684" r="6" class="c0"/>
<circle cx="954" cy="806" r="6" class="c0"/>
<circle cx="1570" cy="694" r="6" class="c0"/>
<circle cx="1600" cy="1432" r="6" class="c0"/>
<circle cx="1844" cy="92" r="6" class="c0"/>
<circle cx="1776" cy="744" r="6" class="c0"/>
<circle cx="1422" cy="6" r="6" class="c0"/>
<circle cx="1298" cy="628" r="6" class="c0"/>
<circle cx="936" cy="562" r="6" class="c0"/>
<circle cx="1896" cy="204" r="6" class="c0"/>
<circle cx="1898" cy="788" r="6" class="c0"/>
<circle cx="1708" cy="456" r="6" class="c0"/>
<circle cx="1602" cy="620" r="6" class="c0"/>
<circle cx="1890" cy="216" r="6" class="c0"/>
<circle cx="1816" cy="710" r="6" class="c0"/>
<circle cx="1820" cy="6" r="6" class="c0"/>
<circle cx="1432" cy="818" r="6" class="c0"/>
<circle cx="1412" cy="708" r="6" class="c0"/>
<circle cx="1906" cy="470" r="6" class="c0"/>
<circle cx="886" cy="726" r="6" class="c0"/>
<circle cx="1818" cy="78" r="6" class="c0"/>
<circle cx="1688" cy="780" r="6" class="c0"/>
<circle cx="1122" cy="576" r="6" class="c0"/>
<circle cx="1580" cy="648" r="6" class="c0"/>
<circle cx="1660" cy="630" r="6" class="c0"/>
<circle cx="1272" cy="732" r="6" class="c0"/>
<circle cx="934" cy="982" r="6" class="c0"/>
<circle cx="820" cy="710" r="6" class="c0"/>
<circle cx="904" cy="834" r="6" class="c0"/>
<circle cx="1440" cy="96" r="6" class="c0"/>
<circle cx="1856" cy="36" r="6" class="c0"/>
<circle cx="1852" cy="10" r="6" class="c0"/>
<circle cx="1034" cy="548" r="6" class="c0"/>
<circle cx="1822" cy="560" r="6" class="c0"/>
<circle cx="1822" cy="112" r="6" class="c0"/>
<circle cx="1618" cy="658" r="6" class="c0"/>
<circle cx="1872" cy="512" r="6" class="c0"/>
<circle cx="1360" cy="698" r="6" class="c0"/>
<circle cx="1784" cy="716" r="6" class="c0"/>
<circle cx="1734" cy="412" r="6" class="c0"/>
<circle cx="1742" cy="672" r="6" class="c0"/>
<circle cx="1354" cy="834" r="6" class="c0"/>
<circle cx="744" cy="736" r="6" class="c0"/>
<circle cx="1508" cy="586" r="6" class="c0"/>
<circle cx="1330" cy="728" r="6" class="c0"/>
<circle cx="1572" cy="1432" r="6" class="c0"/>
<circle cx="1516" cy="740" r="6" class="c0"/>
<circle cx="1302" cy="766" r="6" class="c0"/>
<circle cx="1830" cy="452" r="6" class="c0"/>
<circle cx="1758" cy="6" r="6" class="c0"/>
<circle cx="1912" cy="374" r="6" class="c0"/>
<circle cx="1888" cy="326" r="6" class="c0"/>
<circle cx="732" cy="628" r="6" class="c0"/>
<circle cx="792" cy="718" r="6" class="c0"/>
<circle cx="1762" cy="550" r="6" class="c0"/>
<circle cx="1608" cy="692" r="6" class="c0"/>
<circle cx="882" cy="638" r="6" class="c0"/>
<circle cx="1884" cy="402" r="6" class="c0"/>
<circle cx="1600" cy="114" r="6" class="c0"/>
<circle cx="758" cy="674" r="6" class="c0"/>
<circle cx="1622" cy="86" r="6" class="c0"/>
<circle cx="994" cy="922" r="6" class="c0"/>
<circle cx="1474" cy="784" r="6" class="c0"/>
<circle cx="978" cy="518" r="6" class="c0"/>
<circle cx="1636" cy="486" r="6" class="c0"/>
<circle cx="1264" cy="616" r="6" class="c0"/>
<circle cx="1552" cy="724" r="6" class="c0"/>
<circle cx="866" cy="772" r="6" class="c0"/>
<circle cx="1898" cy="590" r="6" class="c0"/>
<circle cx="1686" cy="708" r="6" class="c0"/>
<circle cx="942" cy="892" r="6" class="c0"/>
<circle cx="1624" cy="544" r="6" class="c0"/>
</svg>
