<?xml version="1.0" encoding="utf-8"?>
<svg xmlns="http://www.w3.org/2000/svg"
     xmlns:xlink="http://www.w3.org/1999/xlink" width="1920" height="1440" >

            <defs>
            <style type="text/css"><![CDATA[
circle {stroke: none;}
.c0 {fill: #FFFFFF;}
]]></style>
            </defs>
<rect x="0" y="0" width="1920" height="1440" fill="black"/>
<circle cx="992" cy="582" r="14" class="c0"/>
<circle cx="1700" cy="602" r="14" class="c0"/>
<circle cx="1132" cy="672" r="14" class="c0"/>
<circle cx="1714" cy="420" r="12" class="c0"/>
<circle cx="1484" cy="740" r="12" class="c0"/>
<circle cx="896" cy="982" r="12" class="c0"/>
<circle cx="1642" cy="74" r="12" class="c0"/>
<circle cx="1618" cy="590" r="12" class="c0"/>
<circle cx="1818" cy="468" r="12" class="c0"/>
<circle cx="842" cy="622" r="12" class="c0"/>
<circle cx="1538" cy="46" r="12" class="c0"/>
<circle cx="750" cy="692" r="12" class="c0"/>
<circle cx="1430" cy="796" r="12" class="c0"/>
<circle cx="898" cy="846" r="12" class="c0"/>
<circle cx="1230" cy="784" r="12" class="c0"/>
<circle cx="1586" cy="602" r="12" class="c0"/>
<circle cx="904" cy="944" r="12" class="c0"/>
<circle cx="1768" cy="514" r="12" class="c0"/>
<circle cx="1772" cy="48" r="12" class="c0"/>
<circle cx="1478" cy="628" r="12" class="c0"/>
<circle cx="1636" cy="564" r="12" class="c0"/>
<circle cx="1410" cy="718" r="12" class="c0"/>
<circle cx="1164" cy="676" r="12" class="c0"/>
<circle cx="1826" cy="684" r="12" class="c0"/>
<circle cx="1074" cy="662" r="12" class="c0"/>
<circle cx="1854" cy="672" r="12" class="c0"/>
<circle cx="1814" cy="38" r="12" class="c0"/>
<circle cx="800" cy="584" r="12" class="c0"/>
<circle cx="1078" cy="596" r="12" class="c0"/>
<circle cx="1066" cy="626" r="12" class="c0"/>
<circle cx="1824" cy="580" r="12" class="c0"/>
<circle cx="1554" cy="658" r="12" class="c0"/>
<circle cx="760" cy="644" r="12" class="c0"/>
<circle cx="988" cy="524" r="12" class="c0"/>
<circle cx="828" cy="816" r="12" class="c0"/>
<circle cx="1208" cy="798" r="12" class="c0"/>
<circle cx="1508" cy="702" r="12" class="c0"/>
<circle cx="880" cy="532" r="12" class="c0"/>
<circle cx="1640" cy="122" r="12" class="c0"/>
<circle cx="1712" cy="40" r="12" class="c0"/>
<circle cx="1432" cy="18" r="12" class="c0"/>
<circle cx="934" cy="972" r="12" class="c0"/>
<circle cx="1304" cy="668" r="12" class="c0"/>
<circle cx="1312" cy="784" r="12" class="c0"/>
<circle cx="860" cy="578" r="12" class="c0"/>
<circle cx="1790" cy="790" r="12" class="c0"/>
<circle cx="1574" cy="624" r="12" class="c0"/>
<circle cx="1612" cy="128" r="12" class="c0"/>
<circle cx="1086" cy="564" r="12" class="c0"/>
<circle cx="700" cy="694" r="12" class="c0"/>
<circle cx="812" cy="646" r="12" class="c0"/>
<circle cx="1668" cy="616" r="12" class="c0"/>
<circle cx="1562" cy="712" r="12" class="c0"/>
<circle cx="1826" cy="738" r="12" class="c0"/>
<circle cx="1686" cy="498" r="12" class="c0"/>
<circle cx="1642" cy="14" r="10" class="c0"/>
<circle cx="1448" cy="652" r="10" class="c0"/>
<circle cx="1250" cy="766" r="10" class="c0"/>
<circle cx="1870" cy="636" r="10" class="c0"/>
<circle cx="1790" cy="532" r="10" class="c0"/>
<circle cx="1908" cy="764" r="10" class="c0"/>
<circle cx="1534" cy="18" r="10" class="c0"/>
<circle cx="1738" cy="56" r="10" class="c0"/>
<circle cx="1748" cy="20" r="10" class="c0"/>
<circle cx="1556" cy="14" r="10" class="c0"/>
<circle cx="1628" cy="142" r="10" class="c0"/>
<circle cx="1646" cy="712" r="10" class="c0"/>
<circle cx="876" cy="916" r="10" class="c0"/>
<circle cx="1194" cy="740" r="10" class="c0"/>
<circle cx="1174" cy="646" r="10" class="c0"/>
<circle cx="1724" cy="96" r="10" class="c0"/>
<circle cx="1890" cy="562" r="10" class="c0"/>
<circle cx="1450" cy="624" r="10" class="c0"/>
<circle cx="1560" cy="104" r="10" class="c0"/>
<circle cx="1372" cy="686" r="10" class="c0"/>
<circle cx="1618" cy="646" r="10" class="c0"/>
<circle cx="1534" cy="730" r="10" class="c0"/>
<circle cx="1778" cy="748" r="10" class="c0"/>
<circle cx="1788" cy="434" r="10" class="c0"/>
<circle cx="1744" cy="756" r="10" class="c0"/>
<circle cx="1784" cy="556" r="10" class="c0"/>
<circle cx="1772" cy="648" r="10" class="c0"/>
<circle cx="726" cy="720" r="10" class="c0"/>
<circle cx="1750" cy="728" r="10" class="c0"/>
<circle cx="1450" cy="766" r="10" class="c0"/>
<circle cx="918" cy="592" r="10" class="c0"/>
<circle cx="844" cy="782" r="10" class="c0"/>
<circle cx="1442" cy="684" r="10" class="c0"/>
<circle cx="1840" cy="528" r="10" class="c0"/>
<circle cx="1398" cy="642" r="10" class="c0"/>
<circle cx="1882" cy="712" r="10" class="c0"/>
<circle cx="1386" cy="710" r="10" class="c0"/>
<circle cx="1340" cy="782" r="10" class="c0"/>
<circle cx="1800" cy="626" r="10" class="c0"/>
<circle cx="1480" cy="658" r="10" class="c0"/>
<circle cx="1020" cy="522" r="10" class="c0"/>
<circle cx="966" cy="596" r="10" class="c0"/>
<circle cx="1808" cy="712" r="10" class="c0"/>
<circle cx="1906" cy="598" r="10" class="c0"/>
<circle cx="1584" cy="686" r="10" class="c0"/>
<circle cx="1616" cy="702" r="10" class="c0"/>
<circle cx="1816" cy="660" r="10" class="c0"/>
<circle cx="1586" cy="724" r="10" class="c0"/>
<circle cx="1532" cy="758" r="10" class="c0"/>
<circle cx="928" cy="760" r="10" class="c0"/>
<circle cx="1742" cy="566" r="10" class="c0"/>
<circle cx="1836" cy="810" r="10" class="c0"/>
<circle cx="1652" cy="42" r="10" class="c0"/>
<circle cx="1710" cy="506" r="10" class="c0"/>
<circle cx="1702" cy="14" r="10" class="c0"/>
<circle cx="1822" cy="100" r="10" class="c0"/>
<circle cx="1134" cy="622" r="10" class="c0"/>
<circle cx="1666" cy="572" r="10" class="c0"/>
<circle cx="740" cy="738" r="10" class="c0"/>
<circle cx="1208" cy="612" r="10" class="c0"/>
<circle cx="1420" cy="680" r="10" class="c0"/>
<circle cx="1320" cy="714" r="10" class="c0"/>
<circle cx="1838" cy="564" r="10" class="c0"/>
<circle cx="1816" cy="62" r="10" class="c0"/>
<circle cx="1262" cy="802" r="10" class="c0"/>
<circle cx="1862" cy="524" r="10" class="c0"/>
<circle cx="1600" cy="668" r="10" class="c0"/>
<circle cx="1850" cy="600" r="10" class="c0"/>
<circle cx="1864" cy="466" r="10" class="c0"/>
<circle cx="1464" cy="712" r="10" class="c0"/>
<circle cx="1598" cy="78" r="10" class="c0"/>
<circle cx="1720" cy="668" r="10" class="c0"/>
<circle cx="906" cy="756" r="10" class="c0"/>
<circle cx="1612" cy="94" r="10" class="c0"/>
<circle cx="1148" cy="702" r="10" class="c0"/>
<circle cx="1026" cy="580" r="10" class="c0"/>
<circle cx="1794" cy="604" r="10" class="c0"/>
<circle cx="952" cy="570" r="10" class="c0"/>
<circle cx="726" cy="632" r="10" class="c0"/>
<circle cx="1588" cy="14" r="10" class="c0"/>
<circle cx="912" cy="534" r="10" class="c0"/>
<circle cx="802" cy="622" r="10" class="c0"/>
<circle cx="1500" cy="784" r="10" class="c0"/>
<circle cx="1262" cy="720" r="10" class="c0"/>
<circle cx="1530" cy="92" r="10" class="c0"/>
<circle cx="866" cy="762" r="10" class="c0"/>
<circle cx="862" cy="952" r="10" class="c0"/>
<circle cx="1878" cy="746" r="10" class="c0"/>
<circle cx="1248" cy="684" r="10" class="c0"/>
<circle cx="1598" cy="536" r="10" class="c0"/>
<circle cx="1322" cy="810" r="10" class="c0"/>
<circle cx="1302" cy="742" r="10" class="c0"/>
<circle cx="1526" cy="650" r="10" class="c0"/>
<circle cx="1286" cy="778" r="10" class="c0"/>
<circle cx="1784" cy="724" r="10" class="c0"/>
<circle cx="958" cy="634" r="10" class="c0"/>
<circle cx="1744" cy="438" r="10" class="c0"/>
<circle cx="1890" cy="484" r="10" class="c0"/>
<circle cx="1756" cy="632" r="10" class="c0"/>
<circle cx="1520" cy="112" r="10" class="c0"/>
<circle cx="930" cy="506" r="10" class="c0"/>
<circle cx="1754" cy="104" r="10" class="c0"/>
<circle cx="1036" cy="622" r="10" class="c0"/>
<circle cx="1792" cy="410" r="10" class="c0"/>
<circle cx="1276" cy="746" r="10" class="c0"/>
<circle cx="1846" cy="762" r="10" class="c0"/>
<circle cx="1784" cy="68" r="10" class="c0"/>
<circle cx="1652" cy="756" r="10" class="c0"/>
<circle cx="1690" cy="668" r="10" class="c0"/>
<circle cx="1764" cy="406" r="10" class="c0"/>
<circle cx="1864" cy="414" r="10" class="c0"/>
<circle cx="776" cy="676" r="10" class="c0"/>
<circle cx="764" cy="756" r="10" class="c0"/>
<circle cx="896" cy="796" r="10" class="c0"/>
<circle cx="916" cy="620" r="10" class="c0"/>
<circle cx="1674" cy="690" r="10" class="c0"/>
<circle cx="1482" cy="68" r="10" class="c0"/>
<circle cx="1696" cy="574" r="10" class="c0"/>
<circle cx="1768" cy="694" r="10" class="c0"/>
<circle cx="1860" cy="788" r="10" class="c0"/>
<circle cx="912" cy="686" r="10" class="c0"/>
<circle cx="1584" cy="750" r="10" class="c0"/>
<circle cx="1684" cy="38" r="10" class="c0"/>
<circle cx="1438" cy="730" r="10" class="c0"/>
<circle cx="1688" cy="752" r="10" class="c0"/>
<circle cx="710" cy="654" r="10" class="c0"/>
<circle cx="1382" cy="668" r="10" class="c0"/>
<circle cx="1810" cy="12" r="10" class="c0"/>
<circle cx="1704" cy="772" r="10" class="c0"/>
<circle cx="1882" cy="448" r="10" class="c0"/>
<circle cx="1810" cy="502" r="10" class="c0"/>
<circle cx="1886" cy="424" r="10" class="c0"/>
<circle cx="1692" cy="98" r="10" class="c0"/>
<circle cx="866" cy="820" r="10" class="c0"/>
<circle cx="738" cy="654" r="10" class="c0"/>
<circle cx="1506" cy="72" r="10" class="c0"/>
<circle cx="1480" cy="100" r="10" class="c0"/>
<circle cx="1652" cy="588" r="10" class="c0"/>
<circle cx="1778" cy="18" r="10" class="c0"/>
<circle cx="840" cy="756" r="10" class="c0"/>
<circle cx="1852" cy="44" r="10" class="c0"/>
<circle cx="1842" cy="724" r="10" class="c0"/>
<circle cx="1180" cy="720" r="10" class="c0"/>
<circle cx="828" cy="982" r="10" class="c0"/>
<circle cx="1600" cy="32" r="10" class="c0"/>
<circle cx="1392" cy="774" r="10" class="c0"/>
<circle cx="1492" cy="30" r="10" class="c0"/>
<circle cx="1896" cy="660" r="10" class="c0"/>
<circle cx="1906" cy="78" r="10" class="c0"/>
<circle cx="1670" cy="794" r="10" class="c0"/>
<circle cx="1222" cy="708" r="10" class="c0"/>
<circle cx="914" cy="782" r="10" class="c0"/>
<circle cx="876" cy="712" r="10" class="c0"/>
<circle cx="1736" cy="470" r="10" class="c0"/>
<circle cx="1336" cy="684" r="10" class="c0"/>
<circle cx="1082" cy="686" r="10" class="c0"/>
<circle cx="1468" cy="688" r="10" class="c0"/>
<circle cx="1604" cy="572" r="10" class="c0"/>
<circle cx="1120" cy="720" r="10" class="c0"/>
<circle cx="1652" cy="674" r="10" class="c0"/>
<circle cx="1886" cy="130" r="10" class="c0"/>
<circle cx="1198" cy="648" r="10" class="c0"/>
<circle cx="1102" cy="674" r="10" class="c0"/>
<circle cx="872" cy="554" r="10" class="c0"/>
<circle cx="1300" cy="698" r="10" class="c0"/>
<circle cx="1632" cy="540" r="10" class="c0"/>
<circle cx="1508" cy="10" r="10" class="c0"/>
<circle cx="960" cy="524" r="10" class="c0"/>
<circle cx="884" cy="610" r="10" class="c0"/>
<circle cx="830" cy="698" r="10" class="c0"/>
<circle cx="1034" cy="548" r="10" class="c0"/>
<circle cx="1366" cy="752" r="8" class="c0"/>
<circle cx="1574" cy="552" r="8" class="c0"/>
<circle cx="840" cy="590" r="8" class="c0"/>
<circle cx="892" cy="870" r="8" class="c0"/>
<circle cx="1858" cy="114" r="8" class="c0"/>
<circle cx="1710" cy="478" r="8" class="c0"/>
<circle cx="1620" cy="66" r="8" class="c0"/>
<circle cx="1354" cy="676" r="8" class="c0"/>
<circle cx="1682" cy="64" r="8" class="c0"/>
<circle cx="1502" cy="758" r="8" class="c0"/>
<circle cx="1842" cy="640" r="8" class="c0"/>
<circle cx="1406" cy="8" r="8" class="c0"/>
<circle cx="1548" cy="594" r="8" class="c0"/>
<circle cx="1698" cy="712" r="8" class="c0"/>
<circle cx="1676" cy="462" r="8" class="c0"/>
<circle cx="1744" cy="488" r="8" class="c0"/>
<circle cx="1708" cy="726" r="8" class="c0"/>
<circle cx="1904" cy="792" r="8" class="c0"/>
<circle cx="1412" cy="760" r="8" class="c0"/>
<circle cx="1236" cy="748" r="8" class="c0"/>
<circle cx="1812" cy="530" r="8" class="c0"/>
<circle cx="866" cy="872" r="8" class="c0"/>
<circle cx="724" cy="694" r="8" class="c0"/>
<circle cx="1510" cy="614" r="8" class="c0"/>
<circle cx="938" cy="602" r="8" class="c0"/>
<circle cx="1692" cy="632" r="8" class="c0"/>
<circle cx="770" cy="584" r="8" class="c0"/>
<circle cx="1908" cy="512" r="8" class="c0"/>
<circle cx="1226" cy="738" r="8" class="c0"/>
<circle cx="1676" cy="554" r="8" class="c0"/>
<circle cx="770" cy="780" r="8" class="c0"/>
<circle cx="1120" cy="596" r="8" class="c0"/>
<circle cx="1898" cy="542" r="8" class="c0"/>
<circle cx="1702" cy="452" r="8" class="c0"/>
<circle cx="1712" cy="700" r="8" class="c0"/>
<circle cx="932" cy="668" r="8" class="c0"/>
<circle cx="1116" cy="568" r="8" class="c0"/>
<circle cx="1790" cy="764" r="8" class="c0"/>
<circle cx="1842" cy="700" r="8" class="c0"/>
<circle cx="1154" cy="632" r="8" class="c0"/>
<circle cx="1882" cy="56" r="8" class="c0"/>
<circle cx="934" cy="632" r="8" class="c0"/>
<circle cx="1564" cy="604" r="8" class="c0"/>
<circle cx="1010" cy="568" r="8" class="c0"/>
<circle cx="1446" cy="68" r="8" class="c0"/>
<circle cx="1766" cy="608" r="8" class="c0"/>
<circle cx="1808" cy="448" r="8" class="c0"/>
<circle cx="1878" cy="110" r="8" class="c0"/>
<circle cx="1568" cy="68" r="8" class="c0"/>
<circle cx="1052" cy="598" r="8" class="c0"/>
<circle cx="1616" cy="754" r="8" class="c0"/>
<circle cx="780" cy="596" r="8" class="c0"/>
<circle cx="1490" cy="600" r="8" class="c0"/>
<circle cx="1632" cy="764" r="8" class="c0"/>
<circle cx="1484" cy="764" r="8" class="c0"/>
<circle cx="1102" cy="650" r="8" class="c0"/>
<circle cx="1354" cy="818" r="8" class="c0"/>
<circle cx="1132" cy="642" r="8" class="c0"/>
<circle cx="1190" cy="680" r="8" class="c0"/>
<circle cx="1198" cy="712" r="8" class="c0"/>
<circle cx="1644" cy="630" r="8" class="c0"/>
<circle cx="1650" cy="532" r="8" class="c0"/>
<circle cx="1900" cy="738" r="8" class="c0"/>
<circle cx="1790" cy="686" r="8" class="c0"/>
<circle cx="796" cy="562" r="8" class="c0"/>
<circle cx="902" cy="560" r="8" class="c0"/>
<circle cx="838" cy="544" r="8" class="c0"/>
<circle cx="1626" cy="666" r="8" class="c0"/>
<circle cx="1190" cy="776" r="8" class="c0"/>
<circle cx="1740" cy="674" r="8" class="c0"/>
<circle cx="1060" cy="528" r="8" class="c0"/>
<circle cx="1250" cy="662" r="8" class="c0"/>
<circle cx="898" cy="820" r="8" class="c0"/>
<circle cx="1630" cy="516" r="8" class="c0"/>
<circle cx="1004" cy="544" r="8" class="c0"/>
<circle cx="1508" cy="98" r="8" class="c0"/>
<circle cx="1550" cy="82" r="8" class="c0"/>
<circle cx="1876" cy="808" r="8" class="c0"/>
<circle cx="1868" cy="566" r="8" class="c0"/>
<circle cx="1024" cy="600" r="8" class="c0"/>
<circle cx="1350" cy="800" r="8" class="c0"/>
<circle cx="1456" cy="40" r="8" class="c0"/>
<circle cx="1574" cy="124" r="8" class="c0"/>
<circle cx="1612" cy="514" r="8" class="c0"/>
<circle cx="1292" cy="726" r="8" class="c0"/>
<circle cx="730" cy="676" r="8" class="c0"/>
<circle cx="1784" cy="472" r="8" class="c0"/>
<circle cx="1518" cy="742" r="8" class="c0"/>
<circle cx="1584" cy="646" r="8" class="c0"/>
<circle cx="1658" cy="500" r="8" class="c0"/>
<circle cx="1766" cy="670" r="8" class="c0"/>
<circle cx="1722" cy="442" r="8" class="c0"/>
<circle cx="1786" cy="90" r="8" class="c0"/>
<circle cx="878" cy="804" r="8" class="c0"/>
<circle cx="1298" cy="822" r="8" class="c0"/>
<circle cx="1408" cy="32" r="8" class="c0"/>
<circle cx="1368" cy="728" r="8" class="c0"/>
<circle cx="1812" cy="778" r="8" class="c0"/>
<circle cx="750" cy="616" r="8" class="c0"/>
<circle cx="1716" cy="584" r="8" class="c0"/>
<circle cx="1140" cy="734" r="8" class="c0"/>
<circle cx="1272" cy="620" r="8" class="c0"/>
<circle cx="1638" cy="100" r="8" class="c0"/>
<circle cx="1472" cy="28" r="8" class="c0"/>
<circle cx="1874" cy="30" r="8" class="c0"/>
<circle cx="1864" cy="12" r="8" class="c0"/>
<circle cx="1728" cy="634" r="8" class="c0"/>
<circle cx="856" cy="888" r="8" class="c0"/>
<circle cx="1620" cy="26" r="8" class="c0"/>
<circle cx="1716" cy="78" r="8" class="c0"/>
<circle cx="894" cy="888" r="8" class="c0"/>
<circle cx="1792" cy="116" r="8" class="c0"/>
<circle cx="1828" cy="622" r="8" class="c0"/>
<circle cx="1878" cy="614" r="8" class="c0"/>
<circle cx="1728" cy="732" r="8" class="c0"/>
<circle cx="828" cy="770" r="8" class="c0"/>
<circle cx="876" cy="860" r="8" class="c0"/>
<circle cx="830" cy="870" r="8" class="c0"/>
<circle cx="1896" cy="616" r="8" class="c0"/>
<circle cx="1428" cy="622" r="8" class="c0"/>
<circle cx="1826" cy="412" r="8" class="c0"/>
<circle cx="1366" cy="772" r="8" class="c0"/>
<circle cx="1500" cy="666" r="8" class="c0"/>
<circle cx="714" cy="756" r="8" class="c0"/>
<circle cx="1482" cy="12" r="8" class="c0"/>
<circle cx="1322" cy="752" r="8" class="c0"/>
<circle cx="1388" cy="806" r="8" class="c0"/>
<circle cx="1754" cy="530" r="8" class="c0"/>
<circle cx="1642" cy="782" r="8" class="c0"/>
<circle cx="1254" cy="638" r="8" class="c0"/>
<circle cx="758" cy="724" r="8" class="c0"/>
<circle cx="1062" cy="580" r="8" class="c0"/>
<circle cx="1722" cy="20" r="8" class="c0"/>
<circle cx="884" cy="582" r="8" class="c0"/>
<circle cx="1500" cy="640" r="8" class="c0"/>
<circle cx="1900" cy="52" r="8" class="c0"/>
<circle cx="1166" cy="614" r="8" class="c0"/>
<circle cx="1694" cy="532" r="8" class="c0"/>
<circle cx="1836" cy="116" r="8" class="c0"/>
<circle cx="1724" cy="780" r="8" class="c0"/>
<circle cx="1800" cy="816" r="8" class="c0"/>
<circle cx="1864" cy="546" r="8" class="c0"/>
<circle cx="1016" cy="630" r="8" class="c0"/>
<circle cx="1102" cy="546" r="8" class="c0"/>
<circle cx="1554" cy="686" r="8" class="c0"/>
<circle cx="1672" cy="658" r="8" class="c0"/>
<circle cx="1528" cy="588" r="8" class="c0"/>
<circle cx="1706" cy="682" r="8" class="c0"/>
<circle cx="1540" cy="704" r="8" class="c0"/>
<circle cx="1740" cy="518" r="8" class="c0"/>
<circle cx="1850" cy="494" r="8" class="c0"/>
<circle cx="1004" cy="612" r="8" class="c0"/>
<circle cx="1236" cy="722" r="8" class="c0"/>
<circle cx="1898" cy="112" r="8" class="c0"/>
<circle cx="1806" cy="754" r="8" class="c0"/>
<circle cx="1032" cy="510" r="8" class="c0"/>
<circle cx="1688" cy="422" r="8" class="c0"/>
<circle cx="1752" cy="598" r="8" class="c0"/>
<circle cx="1762" cy="430" r="8" class="c0"/>
<circle cx="976" cy="618" r="8" class="c0"/>
<circle cx="822" cy="674" r="8" class="c0"/>
<circle cx="1282" cy="642" r="8" class="c0"/>
<circle cx="960" cy="500" r="8" class="c0"/>
<circle cx="1584" cy="564" r="8" class="c0"/>
<circle cx="820" cy="600" r="8" class="c0"/>
<circle cx="696" cy="670" r="8" class="c0"/>
<circle cx="1762" cy="582" r="8" class="c0"/>
<circle cx="1810" cy="86" r="8" class="c0"/>
<circle cx="1742" cy="414" r="8" class="c0"/>
<circle cx="1330" cy="730" r="8" class="c0"/>
<circle cx="1174" cy="576" r="8" class="c0"/>
<circle cx="786" cy="658" r="8" class="c0"/>
<circle cx="1734" cy="500" r="8" class="c0"/>
<circle cx="1458" cy="8" r="8" class="c0"/>
<circle cx="1844" cy="430" r="8" class="c0"/>
<circle cx="848" cy="852" r="8" class="c0"/>
<circle cx="1402" cy="688" r="8" class="c0"/>
<circle cx="1768" cy="772" r="8" class="c0"/>
<circle cx="1106" cy="618" r="8" class="c0"/>
<circle cx="1346" cy="702" r="8" class="c0"/>
<circle cx="1498" cy="720" r="8" class="c0"/>
<circle cx="1680" cy="584" r="8" class="c0"/>
<circle cx="1832" cy="22" r="8" class="c0"/>
<circle cx="980" cy="494" r="8" class="c0"/>
<circle cx="826" cy="842" r="8" class="c0"/>
<circle cx="1770" cy="484" r="8" class="c0"/>
<circle cx="938" cy="538" r="8" class="c0"/>
<circle cx="1878" cy="78" r="8" class="c0"/>
<circle cx="1274" cy="676" r="8" class="c0"/>
<circle cx="1104" cy="696" r="8" class="c0"/>
<circle cx="1898" cy="700" r="8" class="c0"/>
<circle cx="1836" cy="780" r="8" class="c0"/>
<circle cx="926" cy="950" r="8" class="c0"/>
<circle cx="1868" cy="490" r="8" class="c0"/>
<circle cx="1808" cy="564" r="8" class="c0"/>
<circle cx="1250" cy="612" r="8" class="c0"/>
<circle cx="1068" cy="554" r="8" class="c0"/>
<circle cx="1012" cy="502" r="8" class="c0"/>
<circle cx="1228" cy="630" r="8" class="c0"/>
<circle cx="1822" cy="520" r="8" class="c0"/>
<circle cx="1676" cy="640" r="8" class="c0"/>
<circle cx="1196" cy="628" r="8" class="c0"/>
<circle cx="1456" cy="672" r="8" class="c0"/>
<circle cx="1848" cy="476" r="8" class="c0"/>
<circle cx="844" cy="908" r="8" class="c0"/>
<circle cx="1504" cy="122" r="8" class="c0"/>
<circle cx="1196" cy="600" r="8" class="c0"/>
<circle cx="1888" cy="516" r="8" class="c0"/>
<circle cx="1706" cy="648" r="8" class="c0"/>
<circle cx="776" cy="622" r="8" class="c0"/>
<circle cx="976" cy="556" r="8" class="c0"/>
<circle cx="1206" cy="668" r="8" class="c0"/>
<circle cx="850" cy="700" r="8" class="c0"/>
<circle cx="1540" cy="126" r="8" class="c0"/>
<circle cx="1626" cy="46" r="8" class="c0"/>
<circle cx="1666" cy="124" r="8" class="c0"/>
<circle cx="1176" cy="602" r="8" class="c0"/>
<circle cx="1340" cy="750" r="8" class="c0"/>
<circle cx="1292" cy="802" r="8" class="c0"/>
<circle cx="1406" cy="802" r="8" class="c0"/>
<circle cx="1824" cy="540" r="8" class="c0"/>
<circle cx="1708" cy="548" r="8" class="c0"/>
<circle cx="1904" cy="414" r="8" class="c0"/>
<circle cx="1622" cy="620" r="8" class="c0"/>
<circle cx="1854" cy="70" r="8" class="c0"/>
<circle cx="1674" cy="720" r="8" class="c0"/>
<circle cx="878" cy="782" r="8" class="c0"/>
<circle cx="1738" cy="84" r="8" class="c0"/>
<circle cx="1718" cy="618" r="8" class="c0"/>
<circle cx="1600" cy="626" r="8" class="c0"/>
<circle cx="1432" cy="700" r="8" class="c0"/>
<circle cx="904" cy="510" r="8" class="c0"/>
<circle cx="1418" cy="780" r="8" class="c0"/>
<circle cx="1864" cy="90" r="8" class="c0"/>
<circle cx="920" cy="570" r="8" class="c0"/>
<circle cx="1888" cy="14" r="8" class="c0"/>
<circle cx="816" cy="570" r="8" class="c0"/>
<circle cx="1798" cy="736" r="8" class="c0"/>
<circle cx="1550" cy="632" r="8" class="c0"/>
<circle cx="768" cy="736" r="8" class="c0"/>
<circle cx="1596" cy="700" r="8" class="c0"/>
<circle cx="1038" cy="642" r="8" class="c0"/>
<circle cx="1672" cy="768" r="8" class="c0"/>
<circle cx="1514" cy="770" r="8" class="c0"/>
<circle cx="1560" cy="40" r="8" class="c0"/>
<circle cx="1504" cy="50" r="8" class="c0"/>
<circle cx="1362" cy="654" r="8" class="c0"/>
<circle cx="1670" cy="90" r="8" class="c0"/>
<circle cx="1218" cy="762" r="8" class="c0"/>
<circle cx="716" cy="738" r="8" class="c0"/>
<circle cx="1710" cy="118" r="8" class="c0"/>
<circle cx="1906" cy="720" r="8" class="c0"/>
<circle cx="908" cy="922" r="8" class="c0"/>
<circle cx="1884" cy="594" r="8" class="c0"/>
<circle cx="1570" cy="28" r="8" class="c0"/>
<circle cx="856" cy="796" r="8" class="c0"/>
<circle cx="1896" cy="154" r="8" class="c0"/>
<circle cx="1494" cy="686" r="8" class="c0"/>
<circle cx="1768" cy="122" r="8" class="c0"/>
<circle cx="1238" cy="810" r="8" class="c0"/>
<circle cx="1692" cy="784" r="8" class="c0"/>
<circle cx="826" cy="554" r="8" class="c0"/>
<circle cx="1558" cy="134" r="8" class="c0"/>
<circle cx="1766" cy="564" r="8" class="c0"/>
<circle cx="1146" cy="608" r="8" class="c0"/>
<circle cx="1658" cy="646" r="8" class="c0"/>
<circle cx="1758" cy="66" r="8" class="c0"/>
<circle cx="1470" cy="600" r="8" class="c0"/>
<circle cx="1150" cy="724" r="8" class="c0"/>
<circle cx="1050" cy="558" r="8" class="c0"/>
<circle cx="1540" cy="68" r="8" class="c0"/>
<circle cx="1908" cy="572" r="8" class="c0"/>
<circle cx="1898" cy="640" r="8" class="c0"/>
<circle cx="1558" cy="774" r="8" class="c0"/>
<circle cx="1174" cy="766" r="8" class="c0"/>
<circle cx="1682" cy="444" r="8" class="c0"/>
<circle cx="910" cy="650" r="8" class="c0"/>
<circle cx="1138" cy="578" r="8" class="c0"/>
<circle cx="1278" cy="812" r="8" class="c0"/>
<circle cx="1482" cy="792" r="8" class="c0"/>
<circle cx="1390" cy="736" r="8" class="c0"/>
<circle cx="1630" cy="732" r="8" class="c0"/>
<circle cx="1664" cy="742" r="8" class="c0"/>
<circle cx="748" cy="592" r="8" class="c0"/>
<circle cx="876" cy="884" r="8" class="c0"/>
<circle cx="1714" cy="752" r="8" class="c0"/>
<circle cx="1514" cy="30" r="8" class="c0"/>
<circle cx="1892" cy="680" r="8" class="c0"/>
<circle cx="1578" cy="84" r="8" class="c0"/>
<circle cx="852" cy="558" r="8" class="c0"/>
<circle cx="1160" cy="744" r="8" class="c0"/>
<circle cx="1752" cy="456" r="8" class="c0"/>
<circle cx="1672" cy="522" r="8" class="c0"/>
<circle cx="1270" cy="654" r="8" class="c0"/>
<circle cx="894" cy="772" r="8" class="c0"/>
<circle cx="1906" cy="16" r="8" class="c0"/>
<circle cx="1462" cy="60" r="8" class="c0"/>
<circle cx="1810" cy="800" r="8" class="c0"/>
<circle cx="1888" cy="96" r="8" class="c0"/>
<circle cx="1856" cy="738" r="8" class="c0"/>
<circle cx="944" cy="646" r="8" class="c0"/>
<circle cx="1816" cy="430" r="8" class="c0"/>
<circle cx="858" cy="540" r="8" class="c0"/>
<circle cx="1908" cy="464" r="8" class="c0"/>
<circle cx="1550" cy="572" r="8" class="c0"/>
<circle cx="854" cy="718" r="8" class="c0"/>
<circle cx="768" cy="710" r="8" class="c0"/>
<circle cx="850" cy="926" r="8" class="c0"/>
<circle cx="870" cy="974" r="8" class="c0"/>
<circle cx="1554" cy="756" r="8" class="c0"/>
<circle cx="1422" cy="646" r="8" class="c0"/>
<circle cx="1564" cy="582" r="8" class="c0"/>
<circle cx="690" cy="730" r="8" class="c0"/>
<circle cx="1458" cy="800" r="8" class="c0"/>
<circle cx="1820" cy="604" r="8" class="c0"/>
<circle cx="1224" cy="648" r="8" class="c0"/>
<circle cx="930" cy="554" r="8" class="c0"/>
<circle cx="1608" cy="8" r="8" class="c0"/>
<circle cx="1080" cy="538" r="8" class="c0"/>
<circle cx="1592" cy="52" r="8" class="c0"/>
<circle cx="1772" cy="450" r="8" class="c0"/>
<circle cx="1670" cy="8" r="8" class="c0"/>
<circle cx="1742" cy="608" r="8" class="c0"/>
<circle cx="1862" cy="716" r="8" class="c0"/>
<circle cx="916" cy="836" r="8" class="c0"/>
<circle cx="1826" cy="442" r="8" class="c0"/>
<circle cx="1694" cy="128" r="8" class="c0"/>
<circle cx="1732" cy="702" r="8" class="c0"/>
<circle cx="844" cy="972" r="8" class="c0"/>
<circle cx="1466" cy="784" r="8" class="c0"/>
<circle cx="884" cy="936" r="8" class="c0"/>
<circle cx="1910" cy="438" r="8" class="c0"/>
<circle cx="1050" cy="658" r="8" class="c0"/>
<circle cx="1434" cy="50" r="8" class="c0"/>
<circle cx="1570" cy="50" r="8" class="c0"/>
<circle cx="1844" cy="12" r="8" class="c0"/>
<circle cx="1796" cy="486" r="8" class="c0"/>
<circle cx="1466" cy="750" r="8" class="c0"/>
<circle cx="1306" cy="646" r="8" class="c0"/>
<circle cx="910" cy="900" r="8" class="c0"/>
<circle cx="1834" cy="88" r="8" class="c0"/>
<circle cx="846" cy="830" r="8" class="c0"/>
<circle cx="1660" cy="472" r="8" class="c0"/>
<circle cx="1102" cy="586" r="8" class="c0"/>
<circle cx="1368" cy="794" r="8" class="c0"/>
<circle cx="874" cy="842" r="8" class="c0"/>
<circle cx="1746" cy="654" r="8" class="c0"/>
<circle cx="1832" cy="496" r="8" class="c0"/>
<circle cx="1726" cy="532" r="8" class="c0"/>
<circle cx="1854" cy="576" r="8" class="c0"/>
<circle cx="1776" cy="626" r="8" class="c0"/>
<circle cx="792" cy="788" r="8" class="c0"/>
<circle cx="1246" cy="734" r="8" class="c0"/>
<circle cx="1792" cy="654" r="8" class="c0"/>
<circle cx="1164" cy="592" r="8" class="c0"/>
<circle cx="892" cy="690" r="8" class="c0"/>
<circle cx="1848" cy="104" r="8" class="c0"/>
<circle cx="1832" cy="52" r="8" class="c0"/>
<circle cx="1660" cy="100" r="8" class="c0"/>
<circle cx="1884" cy="786" r="8" class="c0"/>
<circle cx="1908" cy="532" r="8" class="c0"/>
<circle cx="894" cy="592" r="8" class="c0"/>
<circle cx="1574" cy="666" r="8" class="c0"/>
<circle cx="904" cy="604" r="8" class="c0"/>
<circle cx="1522" cy="678" r="8" class="c0"/>
<circle cx="1890" cy="40" r="8" class="c0"/>
<circle cx="1660" cy="448" r="8" class="c0"/>
<circle cx="1080" cy="640" r="8" class="c0"/>
<circle cx="850" cy="600" r="8" class="c0"/>
<circle cx="1178" cy="694" r="8" class="c0"/>
<circle cx="1364" cy="704" r="8" class="c0"/>
<circle cx="1722" cy="712" r="8" class="c0"/>
<circle cx="1344" cy="660" r="8" class="c0"/>
<circle cx="1908" cy="626" r="8" class="c0"/>
<circle cx="1698" cy="56" r="8" class="c0"/>
<circle cx="1472" cy="50" r="8" class="c0"/>
<circle cx="1646" cy="612" r="8" class="c0"/>
<circle cx="1530" cy="138" r="8" class="c0"/>
<circle cx="1768" cy="80" r="8" class="c0"/>
<circle cx="1610" cy="734" r="8" class="c0"/>
<circle cx="1346" cy="722" r="8" class="c0"/>
<circle cx="1726" cy="594" r="8" class="c0"/>
<circle cx="1430" cy="764" r="8" class="c0"/>
<circle cx="1510" cy="594" r="8" class="c0"/>
<circle cx="1558" cy="736" r="8" class="c0"/>
<circle cx="1576" cy="532" r="8" class="c0"/>
<circle cx="1216" cy="682" r="8" class="c0"/>
<circle cx="1876" cy="670" r="8" class="c0"/>
<circle cx="1908" cy="142" r="8" class="c0"/>
<circle cx="1114" cy="686" r="8" class="c0"/>
<circle cx="1876" cy="768" r="8" class="c0"/>
<circle cx="1588" cy="112" r="8" class="c0"/>
<circle cx="838" cy="946" r="8" class="c0"/>
<circle cx="1768" cy="792" r="8" class="c0"/>
<circle cx="1662" cy="544" r="8" class="c0"/>
<circle cx="1720" cy="560" r="8" class="c0"/>
<circle cx="1856" cy="816" r="8" class="c0"/>
<circle cx="790" cy="606" r="8" class="c0"/>
<circle cx="734" cy="604" r="8" class="c0"/>
<circle cx="1654" cy="694" r="8" class="c0"/>
<circle cx="1328" cy="770" r="8" class="c0"/>
<circle cx="830" cy="580" r="8" class="c0"/>
<circle cx="1464" cy="642" r="8" class="c0"/>
<circle cx="1748" cy="780" r="8" class="c0"/>
<circle cx="1534" cy="606" r="8" class="c0"/>
<circle cx="1410" cy="658" r="6" class="c0"/>
<circle cx="1256" cy="702" r="6" class="c0"/>
<circle cx="970" cy="572" r="6" class="c0"/>
<circle cx="1322" cy="696" r="6" class="c0"/>
<circle cx="1434" cy="668" r="6" class="c0"/>
<circle cx="1828" cy="6" r="6" class="c0"/>
<circle cx="1268" cy="776" r="6" class="c0"/>
<circle cx="1692" cy="74" r="6" class="c0"/>
<circle cx="1184" cy="586" r="6" class="c0"/>
<circle cx="1890" cy="758" r="6" class="c0"/>
<circle cx="1692" cy="476" r="6" class="c0"/>
<circle cx="1688" cy="730" r="6" class="c0"/>
<circle cx="1186" cy="612" r="6" class="c0"/>
<circle cx="1424" cy="40" r="6" class="c0"/>
<circle cx="1516" cy="726" r="6" class="c0"/>
<circle cx="896" cy="720" r="6" class="c0"/>
<circle cx="780" cy="770" r="6" class="c0"/>
<circle cx="1748" cy="690" r="6" class="c0"/>
<circle cx="1636" cy="598" r="6" class="c0"/>
<circle cx="1132" cy="556" r="6" class="c0"/>
<circle cx="1524" cy="60" r="6" class="c0"/>
<circle cx="1152" cy="662" r="6" class="c0"/>
<circle cx="1212" cy="746" r="6" class="c0"/>
<circle cx="1442" cy="782" r="6" class="c0"/>
<circle cx="890" cy="906" r="6" class="c0"/>
<circle cx="1412" cy="632" r="6" class="c0"/>
<circle cx="1284" cy="688" r="6" class="c0"/>
<circle cx="1008" cy="596" r="6" class="c0"/>
<circle cx="1842" cy="448" r="6" class="c0"/>
<circle cx="1436" cy="638" r="6" class="c0"/>
<circle cx="1398" cy="750" r="6" class="c0"/>
<circle cx="976" cy="510" r="6" class="c0"/>
<circle cx="1232" cy="670" r="6" class="c0"/>
<circle cx="832" cy="962" r="6" class="c0"/>
<circle cx="1742" cy="588" r="6" class="c0"/>
<circle cx="1238" cy="640" r="6" class="c0"/>
<circle cx="1150" cy="564" r="6" class="c0"/>
<circle cx="1906" cy="496" r="6" class="c0"/>
<circle cx="1648" cy="656" r="6" class="c0"/>
<circle cx="832" cy="658" r="6" class="c0"/>
<circle cx="1852" cy="652" r="6" class="c0"/>
<circle cx="1326" cy="664" r="6" class="c0"/>
<circle cx="1330" cy="830" r="6" class="c0"/>
<circle cx="1282" cy="702" r="6" class="c0"/>
<circle cx="1402" cy="666" r="6" class="c0"/>
<circle cx="798" cy="672" r="6" class="c0"/>
<circle cx="1672" cy="50" r="6" class="c0"/>
<circle cx="1758" cy="548" r="6" class="c0"/>
<circle cx="1832" cy="70" r="6" class="c0"/>
<circle cx="1832" cy="652" r="6" class="c0"/>
<circle cx="1280" cy="716" r="6" class="c0"/>
<circle cx="1588" cy="134" r="6" class="c0"/>
<circle cx="904" cy="702" r="6" class="c0"/>
<circle cx="1542" cy="672" r="6" class="c0"/>
<circle cx="932" cy="582" r="6" class="c0"/>
<circle cx="1752" cy="708" r="6" class="c0"/>
<circle cx="1816" cy="118" r="6" class="c0"/>
<circle cx="1808" cy="642" r="6" class="c0"/>
<circle cx="1894" cy="402" r="6" class="c0"/>
<circle cx="1874" cy="690" r="6" class="c0"/>
<circle cx="1784" cy="810" r="6" class="c0"/>
<circle cx="1208" cy="590" r="6" class="c0"/>
<circle cx="1290" cy="758" r="6" class="c0"/>
<circle cx="1656" cy="726" r="6" class="c0"/>
<circle cx="906" cy="964" r="6" class="c0"/>
<circle cx="1600" cy="762" r="6" class="c0"/>
<circle cx="1804" cy="544" r="6" class="c0"/>
<circle cx="1484" cy="696" r="6" class="c0"/>
<circle cx="1876" cy="506" r="6" class="c0"/>
<circle cx="1552" cy="544" r="6" class="c0"/>
<circle cx="1594" cy="96" r="6" class="c0"/>
<circle cx="1910" cy="650" r="6" class="c0"/>
<circle cx="1898" cy="582" r="6" class="c0"/>
<circle cx="1350" cy="764" r="6" class="c0"/>
<circle cx="1420" cy="814" r="6" class="c0"/>
<circle cx="1490" cy="84" r="6" class="c0"/>
<circle cx="1602" cy="554" r="6" class="c0"/>
<circle cx="1684" cy="114" r="6" class="c0"/>
<circle cx="1554" cy="614" r="6" class="c0"/>
<circle cx="866" cy="932" r="6" class="c0"/>
<circle cx="1384" cy="754" r="6" class="c0"/>
<circle cx="1878" cy="654" r="6" class="c0"/>
<circle cx="896" cy="544" r="6" class="c0"/>
<circle cx="834" cy="890" r="6" class="c0"/>
<circle cx="1764" cy="466" r="6" class="c0"/>
<circle cx="1856" cy="626" r="6" class="c0"/>
<circle cx="1852" cy="510" r="6" class="c0"/>
<circle cx="864" cy="744" r="6" class="c0"/>
<circle cx="1398" cy="22" r="6" class="c0"/>
<circle cx="1210" cy="730" r="6" class="c0"/>
<circle cx="1860" cy="440" r="6" class="c0"/>
<circle cx="1782" cy="580" r="6" class="c0"/>
<circle cx="1298" cy="766" r="6" class="c0"/>
<circle cx="866" cy="608" r="6" class="c0"/>
<circle cx="1252" cy="822" r="6" class="c0"/>
<circle cx="1820" cy="764" r="6" class="c0"/>
<circle cx="1040" cy="526" r="6" class="c0"/>
<circle cx="708" cy="714" r="6" class="c0"/>
<circle cx="810" cy="696" r="6" class="c0"/>
<circle cx="1128" cy="698" r="6" class="c0"/>
<circle cx="1808" cy="692" r="6" class="c0"/>
<circle cx="928" cy="650" r="6" class="c0"/>
<circle cx="1458" cy="732" r="6" class="c0"/>
<circle cx="704" cy="634" r="6" class="c0"/>
<circle cx="1046" cy="576" r="6" class="c0"/>
<circle cx="1786" cy="706" r="6" class="c0"/>
<circle cx="1062" cy="646" r="6" class="c0"/>
<circle cx="824" cy="796" r="6" class="c0"/>
<circle cx="1048" cy="514" r="6" class="c0"/>
<circle cx="1726" cy="686" r="6" class="c0"/>
<circle cx="1522" cy="632" r="6" class="c0"/>
<circle cx="1540" cy="774" r="6" class="c0"/>
<circle cx="1452" cy="24" r="6" class="c0"/>
<circle cx="1802" cy="520" r="6" class="c0"/>
<circle cx="1256" cy="746" r="6" class="c0"/>
<circle cx="1670" cy="594" r="6" class="c0"/>
<circle cx="1588" cy="582" r="6" class="c0"/>
<circle cx="1204" cy="754" r="6" class="c0"/>
<circle cx="1798" cy="54" r="6" class="c0"/>
<circle cx="952" cy="612" r="6" class="c0"/>
<circle cx="696" cy="746" r="6" class="c0"/>
<circle cx="1806" cy="420" r="6" class="c0"/>
<circle cx="1204" cy="694" r="6" class="c0"/>
<circle cx="688" cy="712" r="6" class="c0"/>
<circle cx="974" cy="536" r="6" class="c0"/>
<circle cx="736" cy="706" r="6" class="c0"/>
<circle cx="1444" cy="710" r="6" class="c0"/>
<circle cx="1572" cy="764" r="6" class="c0"/>
<circle cx="1658" cy="64" r="6" class="c0"/>
<circle cx="1912" cy="684" r="6" class="c0"/>
<circle cx="1356" cy="738" r="6" class="c0"/>
<circle cx="1912" cy="160" r="6" class="c0"/>
<circle cx="940" cy="522" r="6" class="c0"/>
<circle cx="1416" cy="742" r="6" class="c0"/>
<circle cx="1666" cy="706" r="6" class="c0"/>
<circle cx="1824" cy="640" r="6" class="c0"/>
<circle cx="1292" cy="630" r="6" class="c0"/>
<circle cx="1868" cy="586" r="6" class="c0"/>
<circle cx="1790" cy="30" r="6" class="c0"/>
<circle cx="1498" cy="624" r="6" class="c0"/>
<circle cx="1802" cy="100" r="6" class="c0"/>
<circle cx="1648" cy="798" r="6" class="c0"/>
<circle cx="830" cy="636" r="6" class="c0"/>
<circle cx="1674" cy="484" r="6" class="c0"/>
<circle cx="1084" cy="618" r="6" class="c0"/>
<circle cx="1658" cy="22" r="6" class="c0"/>
<circle cx="842" cy="880" r="6" class="c0"/>
<circle cx="1732" cy="8" r="6" class="c0"/>
<circle cx="892" cy="958" r="6" class="c0"/>
<circle cx="1628" cy="684" r="6" class="c0"/>
<circle cx="1832" cy="710" r="6" class="c0"/>
<circle cx="1824" cy="792" r="6" class="c0"/>
<circle cx="1752" cy="130" r="6" class="c0"/>
<circle cx="1608" cy="684" r="6" class="c0"/>
<circle cx="1668" cy="74" r="6" class="c0"/>
<circle cx="1686" cy="650" r="6" class="c0"/>
<circle cx="1162" cy="714" r="6" class="c0"/>
<circle cx="1634" cy="696" r="6" class="c0"/>
<circle cx="1912" cy="32" r="6" class="c0"/>
<circle cx="1620" cy="554" r="6" class="c0"/>
<circle cx="1270" cy="828" r="6" class="c0"/>
<circle cx="996" cy="558" r="6" class="c0"/>
<circle cx="1156" cy="578" r="6" class="c0"/>
<circle cx="1452" cy="698" r="6" class="c0"/>
<circle cx="1290" cy="656" r="6" class="c0"/>
<circle cx="1668" cy="434" r="6" class="c0"/>
<circle cx="714" cy="674" r="6" class="c0"/>
<circle cx="1736" cy="34" r="6" class="c0"/>
<circle cx="1776" cy="594" r="6" class="c0"/>
<circle cx="1664" cy="140" r="6" class="c0"/>
<circle cx="1180" cy="750" r="6" class="c0"/>
<circle cx="1908" cy="122" r="6" class="c0"/>
<circle cx="1796" cy="670" r="6" class="c0"/>
<circle cx="716" cy="618" r="6" class="c0"/>
<circle cx="1640" cy="500" r="6" class="c0"/>
<circle cx="1708" cy="790" r="6" class="c0"/>
<circle cx="1636" cy="650" r="6" class="c0"/>
<circle cx="920" cy="810" r="6" class="c0"/>
<circle cx="1100" cy="602" r="6" class="c0"/>
<circle cx="1538" cy="622" r="6" class="c0"/>
<circle cx="1800" cy="76" r="6" class="c0"/>
<circle cx="1768" cy="732" r="6" class="c0"/>
<circle cx="1698" cy="436" r="6" class="c0"/>
<circle cx="880" cy="964" r="6" class="c0"/>
<circle cx="1754" cy="38" r="6" class="c0"/>
<circle cx="960" cy="554" r="6" class="c0"/>
<circle cx="1474" cy="118" r="6" class="c0"/>
<circle cx="1118" cy="652" r="6" class="c0"/>
<circle cx="886" cy="832" r="6" class="c0"/>
<circle cx="1524" cy="784" r="6" class="c0"/>
<circle cx="1700" cy="82" r="6" class="c0"/>
<circle cx="778" cy="570" r="6" class="c0"/>
<circle cx="758" cy="672" r="6" class="c0"/>
<circle cx="1602" cy="716" r="6" class="c0"/>
<circle cx="1608" cy="612" r="6" class="c0"/>
<circle cx="1652" cy="516" r="6" class="c0"/>
<circle cx="1660" cy="778" r="6" class="c0"/>
<circle cx="1762" cy="716" r="6" class="c0"/>
<circle cx="1878" cy="534" r="6" class="c0"/>
<circle cx="1566" cy="566" r="6" class="c0"/>
<circle cx="1374" cy="642" r="6" class="c0"/>
<circle cx="1488" cy="124" r="6" class="c0"/>
<circle cx="914" cy="858" r="6" class="c0"/>
<circle cx="1712" cy="462" r="6" class="c0"/>
<circle cx="1848" cy="404" r="6" class="c0"/>
<circle cx="1848" cy="550" r="6" class="c0"/>
<circle cx="990" cy="604" r="6" class="c0"/>
<circle cx="1694" cy="556" r="6" class="c0"/>
<circle cx="1736" cy="112" r="6" class="c0"/>
<circle cx="1798" cy="574" r="6" class="c0"/>
<circle cx="864" cy="728" r="6" class="c0"/>
<circle cx="1390" cy="6" r="6" class="c0"/>
<circle cx="1472" cy="82" r="6" class="c0"/>
<circle cx="1770" cy="534" r="6" class="c0"/>
<circle cx="1230" cy="604" r="6" class="c0"/>
<circle cx="1912" cy="102" r="6" class="c0"/>
<circle cx="746" cy="632" r="6" class="c0"/>
<circle cx="1784" cy="498" r="6" class="c0"/>
<circle cx="1210" cy="636" r="6" class="c0"/>
<circle cx="1892" cy="804" r="6" class="c0"/>
<circle cx="1738" cy="542" r="6" class="c0"/>
<circle cx="786" cy="632" r="6" class="c0"/>
<circle cx="1696" cy="516" r="6" class="c0"/>
<circle cx="1170" cy="734" r="6" class="c0"/>
<circle cx="882" cy="754" r="6" class="c0"/>
<circle cx="1820" cy="822" r="6" class="c0"/>
<circle cx="948" cy="512" r="6" class="c0"/>
<circle cx="1536" cy="688" r="6" class="c0"/>
<circle cx="1858" cy="692" r="6" class="c0"/>
<circle cx="1448" cy="746" r="6" class="c0"/>
<circle cx="1460" cy="610" r="6" class="c0"/>
<circle cx="1808" cy="676" r="6" class="c0"/>
<circle cx="1692" cy="692" r="6" class="c0"/>
<circle cx="1256" cy="784" r="6" class="c0"/>
<circle cx="896" cy="624" r="6" class="c0"/>
<circle cx="1398" cy="818" r="6" class="c0"/>
<circle cx="858" cy="986" r="6" class="c0"/>
<circle cx="1110" cy="634" r="6" class="c0"/>
<circle cx="1770" cy="96" r="6" class="c0"/>
<circle cx="914" cy="666" r="6" class="c0"/>
<circle cx="1158" cy="760" r="6" class="c0"/>
<circle cx="1726" cy="68" r="6" class="c0"/>
<circle cx="1432" cy="748" r="6" class="c0"/>
<circle cx="1766" cy="6" r="6" class="c0"/>
<circle cx="744" cy="716" r="6" class="c0"/>
<circle cx="1268" cy="696" r="6" class="c0"/>
<circle cx="1790" cy="454" r="6" class="c0"/>
<circle cx="868" cy="900" r="6" class="c0"/>
<circle cx="872" cy="594" r="6" class="c0"/>
<circle cx="712" cy="774" r="6" class="c0"/>
<circle cx="1908" cy="482" r="6" class="c0"/>
<circle cx="1640" cy="54" r="6" class="c0"/>
<circle cx="1020" cy="558" r="6" class="c0"/>
<circle cx="886" cy="566" r="6" class="c0"/>
<circle cx="1566" cy="644" r="6" class="c0"/>
<circle cx="1600" cy="142" r="6" class="c0"/>
<circle cx="1806" cy="592" r="6" class="c0"/>
<circle cx="1058" cy="544" r="6" class="c0"/>
<circle cx="1622" cy="110" r="6" class="c0"/>
<circle cx="840" cy="646" r="6" class="c0"/>
<circle cx="1754" cy="474" r="6" class="c0"/>
<circle cx="1094" cy="630" r="6" class="c0"/>
<circle cx="1892" cy="66" r="6" class="c0"/>
<circle cx="1724" cy="490" r="6" class="c0"/>
<circle cx="836" cy="564" r="6" class="c0"/>
<circle cx="1372" cy="824" r="6" class="c0"/>
<circle cx="1908" cy="554" r="6" class="c0"/>
<circle cx="1822" cy="556" r="6" class="c0"/>
<circle cx="1866" cy="700" r="6" class="c0"/>
<circle cx="986" cy="546" r="6" class="c0"/>
<circle cx="1548" cy="30" r="6" class="c0"/>
<circle cx="1234" cy="694" r="6" class="c0"/>
<circle cx="1732" cy="404" r="6" class="c0"/>
<circle cx="820" cy="626" r="6" class="c0"/>
<circle cx="994" cy="504" r="6" class="c0"/>
<circle cx="1880" cy="404" r="6" class="c0"/>
<circle cx="1782" cy="672" r="6" class="c0"/>
<circle cx="1740" cy="624" r="6" class="c0"/>
<circle cx="1900" cy="450" r="6" class="c0"/>
<circle cx="1246" cy="794" r="6" class="c0"/>
<circle cx="1378" cy="784" r="6" class="c0"/>
<circle cx="1454" cy="82" r="6" class="c0"/>
<circle cx="1222" cy="594" r="6" class="c0"/>
<circle cx="1542" cy="108" r="6" class="c0"/>
<circle cx="1886" cy="730" r="6" class="c0"/>
<circle cx="1150" cy="648" r="6" class="c0"/>
<circle cx="1314" cy="686" r="6" class="c0"/>
<circle cx="770" cy="694" r="6" class="c0"/>
<circle cx="1626" cy="6" r="6" class="c0"/>
<circle cx="1522" cy="714" r="6" class="c0"/>
<circle cx="1682" cy="20" r="6" class="c0"/>
<circle cx="1792" cy="6" r="6" class="c0"/>
<circle cx="1714" cy="62" r="6" class="c0"/>
<circle cx="1894" cy="774" r="6" class="c0"/>
<circle cx="1856" cy="26" r="6" class="c0"/>
<circle cx="1792" cy="510" r="6" class="c0"/>
<circle cx="1548" cy="144" r="6" class="c0"/>
<circle cx="1782" cy="106" r="6" class="c0"/>
<circle cx="1188" cy="758" r="6" class="c0"/>
<circle cx="1118" cy="550" r="6" class="c0"/>
<circle cx="1186" cy="664" r="6" class="c0"/>
<circle cx="1580" cy="38" r="6" class="c0"/>
<circle cx="1544" cy="746" r="6" class="c0"/>
<circle cx="1486" cy="710" r="6" class="c0"/>
<circle cx="1730" cy="550" r="6" class="c0"/>
<circle cx="1278" cy="794" r="6" class="c0"/>
<circle cx="1670" cy="28" r="6" class="c0"/>
<circle cx="1646" cy="734" r="6" class="c0"/>
<circle cx="1844" cy="618" r="6" class="c0"/>
<circle cx="686" cy="680" r="6" class="c0"/>
<circle cx="850" cy="812" r="6" class="c0"/>
<circle cx="1210" cy="776" r="6" class="c0"/>
<circle cx="1628" cy="714" r="6" class="c0"/>
<circle cx="1752" cy="502" r="6" class="c0"/>
<circle cx="1878" cy="576" r="6" class="c0"/>
<circle cx="1834" cy="666" r="6" class="c0"/>
<circle cx="768" cy="608" r="6" class="c0"/>
<circle cx="1866" cy="54" r="6" class="c0"/>
<circle cx="910" cy="880" r="6" class="c0"/>
<circle cx="1838" cy="462" r="6" class="c0"/>
<circle cx="1652" cy="554" r="6" class="c0"/>
<circle cx="1624" cy="82" r="6" class="c0"/>
<circle cx="1638" cy="32" r="6" class="c0"/>
<circle cx="1240" cy="706" r="6" class="c0"/>
<circle cx="1284" cy="830" r="6" class="c0"/>
<circle cx="1724" cy="516" r="6" class="c0"/>
<circle cx="1728" cy="652" r="6" class="c0"/>
<circle cx="878" cy="992" r="6" class="c0"/>
<circle cx="1600" cy="644" r="6" class="c0"/>
<circle cx="1808" cy="402" r="6" class="c0"/>
<circle cx="1620" cy="528" r="6" class="c0"/>
<circle cx="1762" cy="30" r="6" class="c0"/>
<circle cx="1610" cy="48" r="6" class="c0"/>
<circle cx="1784" cy="130" r="6" class="c0"/>
<circle cx="810" cy="550" r="6" class="c0"/>
<circle cx="944" cy="496" r="6" class="c0"/>
<circle cx="1314" cy="826" r="6" class="c0"/>
<circle cx="904" cy="576" r="6" class="c0"/>
<circle cx="806" cy="682" r="6" class="c0"/>
<circle cx="1910" cy="670" r="6" class="c0"/>
<circle cx="914" cy="974" r="6" class="c0"/>
<circle cx="1556" cy="58" r="6" class="c0"/>
<circle cx="1338" cy="822" r="6" class="c0"/>
<circle cx="950" cy="588" r="6" class="c0"/>
<circle cx="1862" cy="612" r="6" class="c0"/>
<circle cx="1788" cy="638" r="6" class="c0"/>
<circle cx="1882" cy="468" r="6" class="c0"/>
<circle cx="1728" cy="764" r="6" class="c0"/>
<circle cx="1710" cy="530" r="6" class="c0"/>
<circle cx="1136" cy="598" r="6" class="c0"/>
<circle cx="1176" cy="626" r="6" class="c0"/>
<circle cx="1864" cy="756" r="6" class="c0"/>
<circle cx="946" cy="552" r="6" class="c0"/>
<circle cx="1468" cy="768" r="6" class="c0"/>
<circle cx="1650" cy="142" r="6" class="c0"/>
<circle cx="1220" cy="812" r="6" class="c0"/>
<circle cx="1572" cy="6" r="6" class="c0"/>
<circle cx="1756" cy="682" r="6" class="c0"/>
<circle cx="1612" cy="546" r="6" class="c0"/>
<circle cx="1760" cy="494" r="6" class="c0"/>
<circle cx="1868" cy="432" r="6" class="c0"/>
<circle cx="1778" cy="420" r="6" class="c0"/>
<circle cx="1438" cy="612" r="6" class="c0"/>
<circle cx="926" cy="524" r="6" class="c0"/>
<circle cx="1560" cy="536" r="6" class="c0"/>
<circle cx="944" cy="620" r="6" class="c0"/>
<circle cx="1708" cy="628" r="6" class="c0"/>
<circle cx="842" cy="804" r="6" class="c0"/>
<circle cx="838" cy="714" r="6" class="c0"/>
</svg>
