<?xml version="1.0" encoding="utf-8"?>
<svg xmlns="http://www.w3.org/2000/svg"
     xmlns:xlink="http://www.w3.org/1999/xlink" width="1920" height="1440" >

            <defs>
            <style type="text/css"><![CDATA[
circle {stroke: none;}
.c0 {fill: #FFFFFF;}
]]></style>
            </defs>
<rect x="0" y="0" width="1920" height="1440" fill="black"/>
<circle cx="912" cy="594" r="12" class="c0"/>
<circle cx="1648" cy="566" r="12" class="c0"/>
<circle cx="1590" cy="696" r="12" class="c0"/>
<circle cx="1604" cy="748" r="12" class="c0"/>
<circle cx="1672" cy="646" r="12" class="c0"/>
<circle cx="1512" cy="16" r="12" class="c0"/>
<circle cx="1488" cy="108" r="12" class="c0"/>
<circle cx="1618" cy="624" r="12" class="c0"/>
<circle cx="1864" cy="438" r="12" class="c0"/>
<circle cx="864" cy="856" r="12" class="c0"/>
<circle cx="1638" cy="508" r="12" class="c0"/>
<circle cx="1676" cy="130" r="12" class="c0"/>
<circle cx="1830" cy="446" r="12" class="c0"/>
<circle cx="1830" cy="402" r="12" class="c0"/>
<circle cx="1646" cy="752" r="12" class="c0"/>
<circle cx="1840" cy="476" r="12" class="c0"/>
<circle cx="1568" cy="736" r="12" class="c0"/>
<circle cx="1718" cy="646" r="12" class="c0"/>
<circle cx="842" cy="562" r="12" class="c0"/>
<circle cx="820" cy="866" r="12" class="c0"/>
<circle cx="680" cy="728" r="12" class="c0"/>
<circle cx="1468" cy="784" r="12" class="c0"/>
<circle cx="1556" cy="44" r="12" class="c0"/>
<circle cx="1838" cy="600" r="12" class="c0"/>
<circle cx="1146" cy="710" r="12" class="c0"/>
<circle cx="1284" cy="808" r="12" class="c0"/>
<circle cx="1298" cy="692" r="12" class="c0"/>
<circle cx="1748" cy="532" r="12" class="c0"/>
<circle cx="1184" cy="758" r="12" class="c0"/>
<circle cx="1684" cy="624" r="12" class="c0"/>
<circle cx="1854" cy="810" r="12" class="c0"/>
<circle cx="1796" cy="768" r="12" class="c0"/>
<circle cx="1702" cy="716" r="12" class="c0"/>
<circle cx="1618" cy="56" r="12" class="c0"/>
<circle cx="1780" cy="110" r="12" class="c0"/>
<circle cx="1424" cy="672" r="12" class="c0"/>
<circle cx="984" cy="572" r="12" class="c0"/>
<circle cx="1344" cy="740" r="12" class="c0"/>
<circle cx="1664" cy="86" r="12" class="c0"/>
<circle cx="1846" cy="422" r="12" class="c0"/>
<circle cx="1082" cy="582" r="12" class="c0"/>
<circle cx="1808" cy="62" r="12" class="c0"/>
<circle cx="1226" cy="698" r="12" class="c0"/>
<circle cx="1122" cy="598" r="12" class="c0"/>
<circle cx="1700" cy="56" r="12" class="c0"/>
<circle cx="684" cy="682" r="12" class="c0"/>
<circle cx="1744" cy="746" r="12" class="c0"/>
<circle cx="1156" cy="606" r="12" class="c0"/>
<circle cx="1602" cy="602" r="12" class="c0"/>
<circle cx="1328" cy="664" r="12" class="c0"/>
<circle cx="1472" cy="48" r="12" class="c0"/>
<circle cx="1880" cy="736" r="12" class="c0"/>
<circle cx="1888" cy="430" r="12" class="c0"/>
<circle cx="1840" cy="44" r="12" class="c0"/>
<circle cx="1550" cy="702" r="12" class="c0"/>
<circle cx="1460" cy="628" r="12" class="c0"/>
<circle cx="1856" cy="780" r="12" class="c0"/>
<circle cx="1420" cy="626" r="10" class="c0"/>
<circle cx="824" cy="898" r="10" class="c0"/>
<circle cx="1900" cy="400" r="10" class="c0"/>
<circle cx="914" cy="640" r="10" class="c0"/>
<circle cx="1864" cy="404" r="10" class="c0"/>
<circle cx="1810" cy="706" r="10" class="c0"/>
<circle cx="804" cy="652" r="10" class="c0"/>
<circle cx="1774" cy="678" r="10" class="c0"/>
<circle cx="1354" cy="718" r="10" class="c0"/>
<circle cx="1636" cy="592" r="10" class="c0"/>
<circle cx="1812" cy="478" r="10" class="c0"/>
<circle cx="1782" cy="748" r="10" class="c0"/>
<circle cx="948" cy="618" r="10" class="c0"/>
<circle cx="1894" cy="670" r="10" class="c0"/>
<circle cx="1452" cy="706" r="10" class="c0"/>
<circle cx="1902" cy="784" r="10" class="c0"/>
<circle cx="1852" cy="574" r="10" class="c0"/>
<circle cx="1446" cy="768" r="10" class="c0"/>
<circle cx="896" cy="844" r="10" class="c0"/>
<circle cx="1874" cy="700" r="10" class="c0"/>
<circle cx="1780" cy="502" r="10" class="c0"/>
<circle cx="1254" cy="606" r="10" class="c0"/>
<circle cx="1720" cy="98" r="10" class="c0"/>
<circle cx="1440" cy="610" r="10" class="c0"/>
<circle cx="848" cy="956" r="10" class="c0"/>
<circle cx="1412" cy="744" r="10" class="c0"/>
<circle cx="836" cy="606" r="10" class="c0"/>
<circle cx="1878" cy="502" r="10" class="c0"/>
<circle cx="1648" cy="676" r="10" class="c0"/>
<circle cx="1842" cy="744" r="10" class="c0"/>
<circle cx="1722" cy="466" r="10" class="c0"/>
<circle cx="1850" cy="504" r="10" class="c0"/>
<circle cx="818" cy="806" r="10" class="c0"/>
<circle cx="1886" cy="14" r="10" class="c0"/>
<circle cx="1772" cy="450" r="10" class="c0"/>
<circle cx="1496" cy="724" r="10" class="c0"/>
<circle cx="1782" cy="478" r="10" class="c0"/>
<circle cx="708" cy="698" r="10" class="c0"/>
<circle cx="1714" cy="486" r="10" class="c0"/>
<circle cx="1586" cy="26" r="10" class="c0"/>
<circle cx="1682" cy="68" r="10" class="c0"/>
<circle cx="1818" cy="736" r="10" class="c0"/>
<circle cx="1284" cy="660" r="10" class="c0"/>
<circle cx="1212" cy="678" r="10" class="c0"/>
<circle cx="1710" cy="412" r="10" class="c0"/>
<circle cx="1590" cy="70" r="10" class="c0"/>
<circle cx="1830" cy="678" r="10" class="c0"/>
<circle cx="1708" cy="22" r="10" class="c0"/>
<circle cx="872" cy="798" r="10" class="c0"/>
<circle cx="1818" cy="96" r="10" class="c0"/>
<circle cx="1900" cy="464" r="10" class="c0"/>
<circle cx="760" cy="578" r="10" class="c0"/>
<circle cx="1866" cy="462" r="10" class="c0"/>
<circle cx="1100" cy="636" r="10" class="c0"/>
<circle cx="1754" cy="772" r="10" class="c0"/>
<circle cx="1072" cy="538" r="10" class="c0"/>
<circle cx="1098" cy="548" r="10" class="c0"/>
<circle cx="1382" cy="784" r="10" class="c0"/>
<circle cx="1864" cy="490" r="10" class="c0"/>
<circle cx="1338" cy="776" r="10" class="c0"/>
<circle cx="1620" cy="110" r="10" class="c0"/>
<circle cx="1528" cy="656" r="10" class="c0"/>
<circle cx="1906" cy="548" r="10" class="c0"/>
<circle cx="880" cy="600" r="10" class="c0"/>
<circle cx="1302" cy="778" r="10" class="c0"/>
<circle cx="904" cy="668" r="10" class="c0"/>
<circle cx="1488" cy="666" r="10" class="c0"/>
<circle cx="1170" cy="740" r="10" class="c0"/>
<circle cx="1274" cy="776" r="10" class="c0"/>
<circle cx="1804" cy="796" r="10" class="c0"/>
<circle cx="1760" cy="656" r="10" class="c0"/>
<circle cx="1788" cy="38" r="10" class="c0"/>
<circle cx="1668" cy="602" r="10" class="c0"/>
<circle cx="1860" cy="534" r="10" class="c0"/>
<circle cx="1682" cy="448" r="10" class="c0"/>
<circle cx="1624" cy="10" r="10" class="c0"/>
<circle cx="1802" cy="566" r="10" class="c0"/>
<circle cx="1506" cy="638" r="10" class="c0"/>
<circle cx="884" cy="622" r="10" class="c0"/>
<circle cx="1632" cy="654" r="10" class="c0"/>
<circle cx="1320" cy="720" r="10" class="c0"/>
<circle cx="1706" cy="112" r="10" class="c0"/>
<circle cx="1794" cy="722" r="10" class="c0"/>
<circle cx="1866" cy="60" r="10" class="c0"/>
<circle cx="1738" cy="30" r="10" class="c0"/>
<circle cx="1248" cy="806" r="10" class="c0"/>
<circle cx="1676" cy="516" r="10" class="c0"/>
<circle cx="1880" cy="578" r="10" class="c0"/>
<circle cx="1224" cy="776" r="10" class="c0"/>
<circle cx="1226" cy="658" r="10" class="c0"/>
<circle cx="1026" cy="588" r="10" class="c0"/>
<circle cx="1792" cy="600" r="10" class="c0"/>
<circle cx="1146" cy="568" r="10" class="c0"/>
<circle cx="1692" cy="492" r="10" class="c0"/>
<circle cx="1180" cy="704" r="10" class="c0"/>
<circle cx="1706" cy="524" r="10" class="c0"/>
<circle cx="876" cy="526" r="10" class="c0"/>
<circle cx="1762" cy="562" r="10" class="c0"/>
<circle cx="1902" cy="572" r="10" class="c0"/>
<circle cx="1618" cy="524" r="10" class="c0"/>
<circle cx="1016" cy="508" r="10" class="c0"/>
<circle cx="1694" cy="770" r="10" class="c0"/>
<circle cx="1782" cy="632" r="10" class="c0"/>
<circle cx="1784" cy="656" r="10" class="c0"/>
<circle cx="1444" cy="726" r="10" class="c0"/>
<circle cx="730" cy="716" r="10" class="c0"/>
<circle cx="1576" cy="676" r="10" class="c0"/>
<circle cx="1528" cy="630" r="10" class="c0"/>
<circle cx="1378" cy="714" r="10" class="c0"/>
<circle cx="1028" cy="634" r="10" class="c0"/>
<circle cx="1446" cy="660" r="10" class="c0"/>
<circle cx="1660" cy="500" r="10" class="c0"/>
<circle cx="1494" cy="608" r="10" class="c0"/>
<circle cx="1538" cy="748" r="10" class="c0"/>
<circle cx="1720" cy="594" r="10" class="c0"/>
<circle cx="1744" cy="680" r="10" class="c0"/>
<circle cx="870" cy="900" r="10" class="c0"/>
<circle cx="1752" cy="610" r="10" class="c0"/>
<circle cx="1882" cy="538" r="10" class="c0"/>
<circle cx="1542" cy="582" r="10" class="c0"/>
<circle cx="1804" cy="678" r="10" class="c0"/>
<circle cx="1476" cy="702" r="10" class="c0"/>
<circle cx="772" cy="788" r="10" class="c0"/>
<circle cx="816" cy="550" r="10" class="c0"/>
<circle cx="1736" cy="480" r="10" class="c0"/>
<circle cx="1908" cy="98" r="10" class="c0"/>
<circle cx="1574" cy="560" r="10" class="c0"/>
<circle cx="822" cy="950" r="10" class="c0"/>
<circle cx="1760" cy="466" r="10" class="c0"/>
<circle cx="1592" cy="572" r="10" class="c0"/>
<circle cx="1038" cy="566" r="10" class="c0"/>
<circle cx="1730" cy="768" r="10" class="c0"/>
<circle cx="1484" cy="14" r="10" class="c0"/>
<circle cx="1692" cy="602" r="10" class="c0"/>
<circle cx="1850" cy="702" r="10" class="c0"/>
<circle cx="1670" cy="482" r="10" class="c0"/>
<circle cx="1592" cy="94" r="10" class="c0"/>
<circle cx="760" cy="672" r="10" class="c0"/>
<circle cx="1592" cy="628" r="10" class="c0"/>
<circle cx="1520" cy="94" r="10" class="c0"/>
<circle cx="1322" cy="798" r="10" class="c0"/>
<circle cx="964" cy="536" r="10" class="c0"/>
<circle cx="1084" cy="612" r="10" class="c0"/>
<circle cx="1776" cy="524" r="10" class="c0"/>
<circle cx="1240" cy="620" r="10" class="c0"/>
<circle cx="954" cy="554" r="10" class="c0"/>
<circle cx="1796" cy="464" r="10" class="c0"/>
<circle cx="1216" cy="624" r="10" class="c0"/>
<circle cx="1500" cy="750" r="10" class="c0"/>
<circle cx="1442" cy="50" r="10" class="c0"/>
<circle cx="1644" cy="48" r="10" class="c0"/>
<circle cx="986" cy="512" r="10" class="c0"/>
<circle cx="744" cy="774" r="10" class="c0"/>
<circle cx="856" cy="828" r="10" class="c0"/>
<circle cx="1518" cy="720" r="10" class="c0"/>
<circle cx="1898" cy="696" r="10" class="c0"/>
<circle cx="1616" cy="132" r="10" class="c0"/>
<circle cx="1312" cy="748" r="10" class="c0"/>
<circle cx="1626" cy="692" r="10" class="c0"/>
<circle cx="1638" cy="94" r="10" class="c0"/>
<circle cx="1512" cy="124" r="10" class="c0"/>
<circle cx="1848" cy="546" r="10" class="c0"/>
<circle cx="1624" cy="728" r="10" class="c0"/>
<circle cx="1738" cy="68" r="10" class="c0"/>
<circle cx="1560" cy="660" r="10" class="c0"/>
<circle cx="1786" cy="700" r="10" class="c0"/>
<circle cx="1862" cy="618" r="10" class="c0"/>
<circle cx="1716" cy="618" r="10" class="c0"/>
<circle cx="834" cy="712" r="10" class="c0"/>
<circle cx="1418" cy="28" r="10" class="c0"/>
<circle cx="1556" cy="608" r="10" class="c0"/>
<circle cx="1750" cy="442" r="10" class="c0"/>
<circle cx="772" cy="564" r="10" class="c0"/>
<circle cx="1288" cy="754" r="10" class="c0"/>
<circle cx="1130" cy="686" r="10" class="c0"/>
<circle cx="1560" cy="16" r="8" class="c0"/>
<circle cx="1646" cy="702" r="8" class="c0"/>
<circle cx="1424" cy="780" r="8" class="c0"/>
<circle cx="1826" cy="506" r="8" class="c0"/>
<circle cx="704" cy="670" r="8" class="c0"/>
<circle cx="818" cy="840" r="8" class="c0"/>
<circle cx="1672" cy="744" r="8" class="c0"/>
<circle cx="940" cy="528" r="8" class="c0"/>
<circle cx="772" cy="642" r="8" class="c0"/>
<circle cx="1682" cy="730" r="8" class="c0"/>
<circle cx="1198" cy="722" r="8" class="c0"/>
<circle cx="1122" cy="656" r="8" class="c0"/>
<circle cx="1788" cy="398" r="8" class="c0"/>
<circle cx="846" cy="792" r="8" class="c0"/>
<circle cx="1500" cy="44" r="8" class="c0"/>
<circle cx="1376" cy="676" r="8" class="c0"/>
<circle cx="858" cy="722" r="8" class="c0"/>
<circle cx="1800" cy="410" r="8" class="c0"/>
<circle cx="1358" cy="770" r="8" class="c0"/>
<circle cx="1230" cy="726" r="8" class="c0"/>
<circle cx="1108" cy="674" r="8" class="c0"/>
<circle cx="1718" cy="556" r="8" class="c0"/>
<circle cx="1398" cy="662" r="8" class="c0"/>
<circle cx="1240" cy="754" r="8" class="c0"/>
<circle cx="1668" cy="786" r="8" class="c0"/>
<circle cx="1058" cy="626" r="8" class="c0"/>
<circle cx="862" cy="938" r="8" class="c0"/>
<circle cx="1910" cy="604" r="8" class="c0"/>
<circle cx="1078" cy="670" r="8" class="c0"/>
<circle cx="926" cy="608" r="8" class="c0"/>
<circle cx="1296" cy="726" r="8" class="c0"/>
<circle cx="1656" cy="18" r="8" class="c0"/>
<circle cx="872" cy="988" r="8" class="c0"/>
<circle cx="1782" cy="550" r="8" class="c0"/>
<circle cx="1606" cy="542" r="8" class="c0"/>
<circle cx="1018" cy="540" r="8" class="c0"/>
<circle cx="1758" cy="720" r="8" class="c0"/>
<circle cx="1022" cy="612" r="8" class="c0"/>
<circle cx="964" cy="502" r="8" class="c0"/>
<circle cx="1046" cy="524" r="8" class="c0"/>
<circle cx="1502" cy="698" r="8" class="c0"/>
<circle cx="1004" cy="582" r="8" class="c0"/>
<circle cx="1200" cy="594" r="8" class="c0"/>
<circle cx="1552" cy="116" r="8" class="c0"/>
<circle cx="1888" cy="638" r="8" class="c0"/>
<circle cx="1402" cy="796" r="8" class="c0"/>
<circle cx="1376" cy="762" r="8" class="c0"/>
<circle cx="1542" cy="132" r="8" class="c0"/>
<circle cx="1870" cy="644" r="8" class="c0"/>
<circle cx="692" cy="756" r="8" class="c0"/>
<circle cx="1226" cy="604" r="8" class="c0"/>
<circle cx="1264" cy="724" r="8" class="c0"/>
<circle cx="810" cy="590" r="8" class="c0"/>
<circle cx="1694" cy="740" r="8" class="c0"/>
<circle cx="1806" cy="616" r="8" class="c0"/>
<circle cx="850" cy="766" r="8" class="c0"/>
<circle cx="1466" cy="738" r="8" class="c0"/>
<circle cx="704" cy="728" r="8" class="c0"/>
<circle cx="1278" cy="632" r="8" class="c0"/>
<circle cx="870" cy="578" r="8" class="c0"/>
<circle cx="1880" cy="112" r="8" class="c0"/>
<circle cx="890" cy="762" r="8" class="c0"/>
<circle cx="1522" cy="690" r="8" class="c0"/>
<circle cx="1898" cy="44" r="8" class="c0"/>
<circle cx="1126" cy="622" r="8" class="c0"/>
<circle cx="1648" cy="790" r="8" class="c0"/>
<circle cx="836" cy="824" r="8" class="c0"/>
<circle cx="884" cy="942" r="8" class="c0"/>
<circle cx="1906" cy="66" r="8" class="c0"/>
<circle cx="810" cy="620" r="8" class="c0"/>
<circle cx="1584" cy="592" r="8" class="c0"/>
<circle cx="732" cy="668" r="8" class="c0"/>
<circle cx="768" cy="614" r="8" class="c0"/>
<circle cx="1690" cy="656" r="8" class="c0"/>
<circle cx="1666" cy="40" r="8" class="c0"/>
<circle cx="780" cy="626" r="8" class="c0"/>
<circle cx="1642" cy="626" r="8" class="c0"/>
<circle cx="1158" cy="726" r="8" class="c0"/>
<circle cx="1420" cy="648" r="8" class="c0"/>
<circle cx="1808" cy="588" r="8" class="c0"/>
<circle cx="1514" cy="614" r="8" class="c0"/>
<circle cx="1764" cy="40" r="8" class="c0"/>
<circle cx="732" cy="614" r="8" class="c0"/>
<circle cx="1046" cy="546" r="8" class="c0"/>
<circle cx="1256" cy="636" r="8" class="c0"/>
<circle cx="820" cy="918" r="8" class="c0"/>
<circle cx="1574" cy="58" r="8" class="c0"/>
<circle cx="1192" cy="664" r="8" class="c0"/>
<circle cx="1854" cy="652" r="8" class="c0"/>
<circle cx="1874" cy="678" r="8" class="c0"/>
<circle cx="1596" cy="552" r="8" class="c0"/>
<circle cx="1186" cy="642" r="8" class="c0"/>
<circle cx="1740" cy="598" r="8" class="c0"/>
<circle cx="1176" cy="594" r="8" class="c0"/>
<circle cx="814" cy="700" r="8" class="c0"/>
<circle cx="1392" cy="634" r="8" class="c0"/>
<circle cx="1908" cy="438" r="8" class="c0"/>
<circle cx="1900" cy="518" r="8" class="c0"/>
<circle cx="1076" cy="648" r="8" class="c0"/>
<circle cx="1696" cy="8" r="8" class="c0"/>
<circle cx="850" cy="898" r="8" class="c0"/>
<circle cx="732" cy="692" r="8" class="c0"/>
<circle cx="752" cy="624" r="8" class="c0"/>
<circle cx="1058" cy="602" r="8" class="c0"/>
<circle cx="884" cy="880" r="8" class="c0"/>
<circle cx="1496" cy="784" r="8" class="c0"/>
<circle cx="1424" cy="758" r="8" class="c0"/>
<circle cx="1744" cy="410" r="8" class="c0"/>
<circle cx="1874" cy="606" r="8" class="c0"/>
<circle cx="1354" cy="678" r="8" class="c0"/>
<circle cx="1062" cy="570" r="8" class="c0"/>
<circle cx="912" cy="760" r="8" class="c0"/>
<circle cx="1832" cy="636" r="8" class="c0"/>
<circle cx="1676" cy="568" r="8" class="c0"/>
<circle cx="700" cy="632" r="8" class="c0"/>
<circle cx="886" cy="918" r="8" class="c0"/>
<circle cx="1852" cy="676" r="8" class="c0"/>
<circle cx="1394" cy="682" r="8" class="c0"/>
<circle cx="1668" cy="690" r="8" class="c0"/>
<circle cx="812" cy="988" r="8" class="c0"/>
<circle cx="1626" cy="546" r="8" class="c0"/>
<circle cx="1746" cy="700" r="8" class="c0"/>
<circle cx="1834" cy="796" r="8" class="c0"/>
<circle cx="916" cy="538" r="8" class="c0"/>
<circle cx="1418" cy="720" r="8" class="c0"/>
<circle cx="1740" cy="10" r="8" class="c0"/>
<circle cx="1346" cy="654" r="8" class="c0"/>
<circle cx="1518" cy="758" r="8" class="c0"/>
<circle cx="742" cy="594" r="8" class="c0"/>
<circle cx="1212" cy="746" r="8" class="c0"/>
<circle cx="1808" cy="544" r="8" class="c0"/>
<circle cx="944" cy="594" r="8" class="c0"/>
<circle cx="1490" cy="82" r="8" class="c0"/>
<circle cx="1772" cy="86" r="8" class="c0"/>
<circle cx="1480" cy="70" r="8" class="c0"/>
<circle cx="1512" cy="670" r="8" class="c0"/>
<circle cx="1740" cy="638" r="8" class="c0"/>
<circle cx="1762" cy="394" r="8" class="c0"/>
<circle cx="1172" cy="664" r="8" class="c0"/>
<circle cx="1714" cy="434" r="8" class="c0"/>
<circle cx="832" cy="760" r="8" class="c0"/>
<circle cx="998" cy="556" r="8" class="c0"/>
<circle cx="1258" cy="676" r="8" class="c0"/>
<circle cx="898" cy="522" r="8" class="c0"/>
<circle cx="1518" cy="50" r="8" class="c0"/>
<circle cx="1574" cy="82" r="8" class="c0"/>
<circle cx="1538" cy="722" r="8" class="c0"/>
<circle cx="1800" cy="8" r="8" class="c0"/>
<circle cx="1394" cy="728" r="8" class="c0"/>
<circle cx="1206" cy="768" r="8" class="c0"/>
<circle cx="1358" cy="792" r="8" class="c0"/>
<circle cx="1818" cy="22" r="8" class="c0"/>
<circle cx="1192" cy="614" r="8" class="c0"/>
<circle cx="1270" cy="744" r="8" class="c0"/>
<circle cx="878" cy="818" r="8" class="c0"/>
<circle cx="856" cy="532" r="8" class="c0"/>
<circle cx="1802" cy="636" r="8" class="c0"/>
<circle cx="892" cy="586" r="8" class="c0"/>
<circle cx="822" cy="976" r="8" class="c0"/>
<circle cx="1248" cy="664" r="8" class="c0"/>
<circle cx="1142" cy="642" r="8" class="c0"/>
<circle cx="902" cy="964" r="8" class="c0"/>
<circle cx="1398" cy="756" r="8" class="c0"/>
<circle cx="1730" cy="500" r="8" class="c0"/>
<circle cx="720" cy="602" r="8" class="c0"/>
<circle cx="1002" cy="600" r="8" class="c0"/>
<circle cx="1138" cy="732" r="8" class="c0"/>
<circle cx="1662" cy="550" r="8" class="c0"/>
<circle cx="1620" cy="578" r="8" class="c0"/>
<circle cx="1166" cy="576" r="8" class="c0"/>
<circle cx="928" cy="514" r="8" class="c0"/>
<circle cx="934" cy="572" r="8" class="c0"/>
<circle cx="738" cy="736" r="8" class="c0"/>
<circle cx="878" cy="708" r="8" class="c0"/>
<circle cx="1480" cy="758" r="8" class="c0"/>
<circle cx="1832" cy="68" r="8" class="c0"/>
<circle cx="902" cy="698" r="8" class="c0"/>
<circle cx="900" cy="566" r="8" class="c0"/>
<circle cx="682" cy="650" r="8" class="c0"/>
<circle cx="834" cy="880" r="8" class="c0"/>
<circle cx="1864" cy="756" r="8" class="c0"/>
<circle cx="1428" cy="8" r="8" class="c0"/>
<circle cx="1834" cy="528" r="8" class="c0"/>
<circle cx="1718" cy="684" r="8" class="c0"/>
<circle cx="1438" cy="642" r="8" class="c0"/>
<circle cx="900" cy="774" r="8" class="c0"/>
<circle cx="1870" cy="82" r="8" class="c0"/>
<circle cx="1564" cy="640" r="8" class="c0"/>
<circle cx="1142" cy="662" r="8" class="c0"/>
<circle cx="1300" cy="644" r="8" class="c0"/>
<circle cx="1828" cy="716" r="8" class="c0"/>
<circle cx="1910" cy="628" r="8" class="c0"/>
<circle cx="1552" cy="66" r="8" class="c0"/>
<circle cx="1782" cy="570" r="8" class="c0"/>
<circle cx="1778" cy="412" r="8" class="c0"/>
<circle cx="834" cy="778" r="8" class="c0"/>
<circle cx="1516" cy="740" r="8" class="c0"/>
<circle cx="1670" cy="708" r="8" class="c0"/>
<circle cx="1610" cy="646" r="8" class="c0"/>
<circle cx="1678" cy="104" r="8" class="c0"/>
<circle cx="856" cy="876" r="8" class="c0"/>
<circle cx="1860" cy="106" r="8" class="c0"/>
<circle cx="1258" cy="654" r="8" class="c0"/>
<circle cx="1826" cy="812" r="8" class="c0"/>
<circle cx="1614" cy="678" r="8" class="c0"/>
<circle cx="1126" cy="558" r="8" class="c0"/>
<circle cx="1526" cy="598" r="8" class="c0"/>
<circle cx="1894" cy="488" r="8" class="c0"/>
<circle cx="1540" cy="14" r="8" class="c0"/>
<circle cx="1326" cy="764" r="8" class="c0"/>
<circle cx="1752" cy="86" r="8" class="c0"/>
<circle cx="852" cy="986" r="8" class="c0"/>
<circle cx="1174" cy="626" r="8" class="c0"/>
<circle cx="1906" cy="646" r="8" class="c0"/>
<circle cx="1746" cy="576" r="8" class="c0"/>
<circle cx="930" cy="554" r="8" class="c0"/>
<circle cx="1902" cy="118" r="8" class="c0"/>
<circle cx="1256" cy="694" r="8" class="c0"/>
<circle cx="1854" cy="20" r="8" class="c0"/>
<circle cx="1690" cy="690" r="8" class="c0"/>
<circle cx="1908" cy="10" r="8" class="c0"/>
<circle cx="1486" cy="34" r="8" class="c0"/>
<circle cx="1000" cy="532" r="8" class="c0"/>
<circle cx="1542" cy="680" r="8" class="c0"/>
<circle cx="1342" cy="818" r="8" class="c0"/>
<circle cx="796" cy="680" r="8" class="c0"/>
<circle cx="1162" cy="652" r="8" class="c0"/>
<circle cx="1756" cy="486" r="8" class="c0"/>
<circle cx="1580" cy="714" r="8" class="c0"/>
<circle cx="1768" cy="592" r="8" class="c0"/>
<circle cx="1798" cy="512" r="8" class="c0"/>
<circle cx="840" cy="540" r="8" class="c0"/>
<circle cx="1726" cy="520" r="8" class="c0"/>
<circle cx="1608" cy="20" r="8" class="c0"/>
<circle cx="1776" cy="16" r="8" class="c0"/>
<circle cx="970" cy="604" r="8" class="c0"/>
<circle cx="1254" cy="782" r="8" class="c0"/>
<circle cx="1112" cy="704" r="8" class="c0"/>
<circle cx="1202" cy="652" r="8" class="c0"/>
<circle cx="1892" cy="720" r="8" class="c0"/>
<circle cx="1680" cy="26" r="8" class="c0"/>
<circle cx="1626" cy="32" r="8" class="c0"/>
<circle cx="842" cy="934" r="8" class="c0"/>
<circle cx="1370" cy="696" r="8" class="c0"/>
<circle cx="780" cy="588" r="8" class="c0"/>
<circle cx="1888" cy="68" r="8" class="c0"/>
<circle cx="1716" cy="72" r="8" class="c0"/>
<circle cx="1768" cy="424" r="8" class="c0"/>
<circle cx="716" cy="642" r="8" class="c0"/>
<circle cx="794" cy="568" r="8" class="c0"/>
<circle cx="1424" cy="802" r="8" class="c0"/>
<circle cx="812" cy="770" r="8" class="c0"/>
<circle cx="1844" cy="92" r="8" class="c0"/>
<circle cx="1642" cy="116" r="8" class="c0"/>
<circle cx="1696" cy="582" r="8" class="c0"/>
<circle cx="1798" cy="432" r="8" class="c0"/>
<circle cx="1706" cy="786" r="8" class="c0"/>
<circle cx="1464" cy="676" r="8" class="c0"/>
<circle cx="954" cy="516" r="8" class="c0"/>
<circle cx="1518" cy="72" r="8" class="c0"/>
<circle cx="872" cy="956" r="8" class="c0"/>
<circle cx="1726" cy="46" r="8" class="c0"/>
<circle cx="856" cy="920" r="8" class="c0"/>
<circle cx="1908" cy="728" r="8" class="c0"/>
<circle cx="1786" cy="786" r="8" class="c0"/>
<circle cx="898" cy="982" r="8" class="c0"/>
<circle cx="1654" cy="66" r="8" class="c0"/>
<circle cx="1334" cy="694" r="8" class="c0"/>
<circle cx="1162" cy="688" r="8" class="c0"/>
<circle cx="1896" cy="592" r="8" class="c0"/>
<circle cx="1456" cy="70" r="8" class="c0"/>
<circle cx="1686" cy="540" r="8" class="c0"/>
<circle cx="1364" cy="816" r="8" class="c0"/>
<circle cx="924" cy="658" r="8" class="c0"/>
<circle cx="1596" cy="666" r="8" class="c0"/>
<circle cx="1728" cy="724" r="8" class="c0"/>
<circle cx="1698" cy="674" r="8" class="c0"/>
<circle cx="1910" cy="750" r="8" class="c0"/>
<circle cx="846" cy="748" r="8" class="c0"/>
<circle cx="744" cy="640" r="8" class="c0"/>
<circle cx="1438" cy="790" r="8" class="c0"/>
<circle cx="838" cy="844" r="8" class="c0"/>
<circle cx="1268" cy="622" r="8" class="c0"/>
<circle cx="1318" cy="684" r="8" class="c0"/>
<circle cx="1420" cy="696" r="8" class="c0"/>
<circle cx="858" cy="588" r="8" class="c0"/>
<circle cx="1212" cy="792" r="8" class="c0"/>
<circle cx="1576" cy="616" r="8" class="c0"/>
<circle cx="734" cy="756" r="8" class="c0"/>
<circle cx="1042" cy="654" r="8" class="c0"/>
<circle cx="1680" cy="680" r="8" class="c0"/>
<circle cx="1454" cy="20" r="8" class="c0"/>
<circle cx="1832" cy="570" r="8" class="c0"/>
<circle cx="1594" cy="522" r="8" class="c0"/>
<circle cx="1484" cy="642" r="8" class="c0"/>
<circle cx="1826" cy="762" r="8" class="c0"/>
<circle cx="1288" cy="710" r="8" class="c0"/>
<circle cx="1596" cy="10" r="8" class="c0"/>
<circle cx="1644" cy="720" r="8" class="c0"/>
<circle cx="888" cy="682" r="8" class="c0"/>
<circle cx="1608" cy="714" r="8" class="c0"/>
<circle cx="1544" cy="86" r="8" class="c0"/>
<circle cx="1878" cy="628" r="8" class="c0"/>
<circle cx="1482" cy="596" r="8" class="c0"/>
<circle cx="670" cy="710" r="8" class="c0"/>
<circle cx="982" cy="548" r="8" class="c0"/>
<circle cx="1374" cy="652" r="8" class="c0"/>
<circle cx="1868" cy="36" r="8" class="c0"/>
<circle cx="784" cy="656" r="8" class="c0"/>
<circle cx="954" cy="576" r="8" class="c0"/>
<circle cx="1878" cy="478" r="8" class="c0"/>
<circle cx="892" cy="548" r="8" class="c0"/>
<circle cx="1872" cy="792" r="8" class="c0"/>
<circle cx="882" cy="966" r="8" class="c0"/>
<circle cx="1656" cy="614" r="8" class="c0"/>
<circle cx="1566" cy="584" r="8" class="c0"/>
<circle cx="1874" cy="556" r="8" class="c0"/>
<circle cx="1304" cy="816" r="8" class="c0"/>
<circle cx="862" cy="612" r="8" class="c0"/>
<circle cx="1444" cy="686" r="8" class="c0"/>
<circle cx="924" cy="976" r="8" class="c0"/>
<circle cx="1510" cy="586" r="8" class="c0"/>
<circle cx="1756" cy="510" r="8" class="c0"/>
<circle cx="1482" cy="624" r="8" class="c0"/>
<circle cx="1472" cy="608" r="8" class="c0"/>
<circle cx="1774" cy="614" r="8" class="c0"/>
<circle cx="1728" cy="664" r="8" class="c0"/>
<circle cx="1856" cy="728" r="8" class="c0"/>
<circle cx="1564" cy="106" r="8" class="c0"/>
<circle cx="1802" cy="120" r="8" class="c0"/>
<circle cx="1566" cy="132" r="8" class="c0"/>
<circle cx="1758" cy="112" r="8" class="c0"/>
<circle cx="1196" cy="780" r="8" class="c0"/>
<circle cx="1652" cy="524" r="8" class="c0"/>
<circle cx="1188" cy="732" r="8" class="c0"/>
<circle cx="876" cy="556" r="8" class="c0"/>
<circle cx="1612" cy="560" r="8" class="c0"/>
<circle cx="1040" cy="608" r="8" class="c0"/>
<circle cx="1106" cy="610" r="8" class="c0"/>
<circle cx="1614" cy="88" r="8" class="c0"/>
<circle cx="1752" cy="56" r="8" class="c0"/>
<circle cx="1706" cy="752" r="8" class="c0"/>
<circle cx="1818" cy="656" r="8" class="c0"/>
<circle cx="1728" cy="572" r="8" class="c0"/>
<circle cx="1596" cy="122" r="8" class="c0"/>
<circle cx="1866" cy="718" r="8" class="c0"/>
<circle cx="1588" cy="648" r="8" class="c0"/>
<circle cx="1004" cy="620" r="8" class="c0"/>
<circle cx="1892" cy="88" r="8" class="c0"/>
<circle cx="1906" cy="500" r="8" class="c0"/>
<circle cx="1110" cy="566" r="8" class="c0"/>
<circle cx="1910" cy="480" r="8" class="c0"/>
<circle cx="694" cy="660" r="8" class="c0"/>
<circle cx="1730" cy="542" r="8" class="c0"/>
<circle cx="906" cy="618" r="8" class="c0"/>
<circle cx="1696" cy="96" r="8" class="c0"/>
<circle cx="1486" cy="686" r="8" class="c0"/>
<circle cx="1694" cy="468" r="8" class="c0"/>
<circle cx="1536" cy="58" r="8" class="c0"/>
<circle cx="1452" cy="748" r="8" class="c0"/>
<circle cx="1690" cy="424" r="8" class="c0"/>
<circle cx="790" cy="616" r="8" class="c0"/>
<circle cx="1798" cy="492" r="8" class="c0"/>
<circle cx="808" cy="826" r="8" class="c0"/>
<circle cx="1534" cy="106" r="8" class="c0"/>
<circle cx="1592" cy="728" r="8" class="c0"/>
<circle cx="814" cy="674" r="8" class="c0"/>
<circle cx="834" cy="582" r="8" class="c0"/>
<circle cx="1090" cy="692" r="8" class="c0"/>
<circle cx="1190" cy="684" r="8" class="c0"/>
<circle cx="1382" cy="810" r="8" class="c0"/>
<circle cx="1706" cy="86" r="8" class="c0"/>
<circle cx="1598" cy="38" r="8" class="c0"/>
<circle cx="936" cy="496" r="8" class="c0"/>
<circle cx="1302" cy="668" r="8" class="c0"/>
<circle cx="1784" cy="66" r="8" class="c0"/>
<circle cx="842" cy="730" r="8" class="c0"/>
<circle cx="1890" cy="764" r="8" class="c0"/>
<circle cx="1238" cy="676" r="8" class="c0"/>
<circle cx="934" cy="636" r="8" class="c0"/>
<circle cx="918" cy="500" r="8" class="c0"/>
<circle cx="1648" cy="134" r="8" class="c0"/>
<circle cx="1552" cy="628" r="8" class="c0"/>
<circle cx="1654" cy="106" r="8" class="c0"/>
<circle cx="1762" cy="626" r="8" class="c0"/>
<circle cx="1796" cy="530" r="8" class="c0"/>
<circle cx="1366" cy="750" r="8" class="c0"/>
<circle cx="1150" cy="742" r="8" class="c0"/>
<circle cx="1204" cy="704" r="8" class="c0"/>
<circle cx="872" cy="772" r="8" class="c0"/>
<circle cx="1668" cy="670" r="8" class="c0"/>
<circle cx="1822" cy="556" r="8" class="c0"/>
<circle cx="1408" cy="766" r="8" class="c0"/>
<circle cx="1564" cy="762" r="8" class="c0"/>
<circle cx="1572" cy="528" r="8" class="c0"/>
<circle cx="1706" cy="568" r="8" class="c0"/>
<circle cx="1720" cy="740" r="8" class="c0"/>
<circle cx="1584" cy="540" r="8" class="c0"/>
<circle cx="840" cy="910" r="8" class="c0"/>
<circle cx="1276" cy="700" r="8" class="c0"/>
<circle cx="800" cy="604" r="8" class="c0"/>
<circle cx="1822" cy="786" r="8" class="c0"/>
<circle cx="1154" cy="672" r="8" class="c0"/>
<circle cx="1634" cy="70" r="8" class="c0"/>
<circle cx="1532" cy="32" r="8" class="c0"/>
<circle cx="1838" cy="110" r="8" class="c0"/>
<circle cx="1708" cy="546" r="8" class="c0"/>
<circle cx="1578" cy="8" r="8" class="c0"/>
<circle cx="1650" cy="642" r="8" class="c0"/>
<circle cx="1884" cy="808" r="8" class="c0"/>
<circle cx="898" cy="806" r="8" class="c0"/>
<circle cx="1538" cy="770" r="8" class="c0"/>
<circle cx="876" cy="840" r="8" class="c0"/>
<circle cx="1654" cy="732" r="8" class="c0"/>
<circle cx="1470" cy="658" r="8" class="c0"/>
<circle cx="1696" cy="558" r="8" class="c0"/>
<circle cx="1880" cy="776" r="8" class="c0"/>
<circle cx="1544" cy="644" r="8" class="c0"/>
<circle cx="1522" cy="576" r="8" class="c0"/>
<circle cx="1014" cy="572" r="8" class="c0"/>
<circle cx="1726" cy="700" r="8" class="c0"/>
<circle cx="1028" cy="550" r="8" class="c0"/>
<circle cx="820" cy="640" r="8" class="c0"/>
<circle cx="886" cy="786" r="8" class="c0"/>
<circle cx="1768" cy="710" r="8" class="c0"/>
<circle cx="1896" cy="618" r="8" class="c0"/>
<circle cx="1056" cy="644" r="8" class="c0"/>
<circle cx="1816" cy="42" r="8" class="c0"/>
<circle cx="1388" cy="746" r="8" class="c0"/>
<circle cx="1666" cy="578" r="8" class="c0"/>
<circle cx="1582" cy="756" r="8" class="c0"/>
<circle cx="1508" cy="774" r="8" class="c0"/>
<circle cx="1726" cy="424" r="8" class="c0"/>
<circle cx="1404" cy="12" r="8" class="c0"/>
<circle cx="1704" cy="450" r="8" class="c0"/>
<circle cx="1070" cy="556" r="6" class="c0"/>
<circle cx="1140" cy="588" r="6" class="c0"/>
<circle cx="888" cy="860" r="6" class="c0"/>
<circle cx="1254" cy="714" r="6" class="c0"/>
<circle cx="748" cy="720" r="6" class="c0"/>
<circle cx="1814" cy="436" r="6" class="c0"/>
<circle cx="1646" cy="6" r="6" class="c0"/>
<circle cx="1776" cy="774" r="6" class="c0"/>
<circle cx="1764" cy="544" r="6" class="c0"/>
<circle cx="750" cy="754" r="6" class="c0"/>
<circle cx="1882" cy="46" r="6" class="c0"/>
<circle cx="862" cy="968" r="6" class="c0"/>
<circle cx="1184" cy="578" r="6" class="c0"/>
<circle cx="760" cy="600" r="6" class="c0"/>
<circle cx="1820" cy="608" r="6" class="c0"/>
<circle cx="1794" cy="88" r="6" class="c0"/>
<circle cx="1398" cy="708" r="6" class="c0"/>
<circle cx="1284" cy="680" r="6" class="c0"/>
<circle cx="1476" cy="722" r="6" class="c0"/>
<circle cx="1672" cy="462" r="6" class="c0"/>
<circle cx="1670" cy="6" r="6" class="c0"/>
<circle cx="1490" cy="56" r="6" class="c0"/>
<circle cx="1102" cy="656" r="6" class="c0"/>
<circle cx="1762" cy="692" r="6" class="c0"/>
<circle cx="858" cy="780" r="6" class="c0"/>
<circle cx="1866" cy="6" r="6" class="c0"/>
<circle cx="690" cy="706" r="6" class="c0"/>
<circle cx="918" cy="570" r="6" class="c0"/>
<circle cx="1828" cy="8" r="6" class="c0"/>
<circle cx="1490" cy="768" r="6" class="c0"/>
<circle cx="744" cy="706" r="6" class="c0"/>
<circle cx="1802" cy="654" r="6" class="c0"/>
<circle cx="1554" cy="772" r="6" class="c0"/>
<circle cx="1336" cy="710" r="6" class="c0"/>
<circle cx="688" cy="772" r="6" class="c0"/>
<circle cx="832" cy="990" r="6" class="c0"/>
<circle cx="1440" cy="30" r="6" class="c0"/>
<circle cx="966" cy="586" r="6" class="c0"/>
<circle cx="1230" cy="796" r="6" class="c0"/>
<circle cx="918" cy="680" r="6" class="c0"/>
<circle cx="1884" cy="654" r="6" class="c0"/>
<circle cx="1842" cy="766" r="6" class="c0"/>
<circle cx="750" cy="658" r="6" class="c0"/>
<circle cx="986" cy="602" r="6" class="c0"/>
<circle cx="870" cy="756" r="6" class="c0"/>
<circle cx="1350" cy="700" r="6" class="c0"/>
<circle cx="1644" cy="544" r="6" class="c0"/>
<circle cx="1536" cy="612" r="6" class="c0"/>
<circle cx="1912" cy="708" r="6" class="c0"/>
<circle cx="1158" cy="632" r="6" class="c0"/>
<circle cx="1800" cy="740" r="6" class="c0"/>
<circle cx="1456" cy="598" r="6" class="c0"/>
<circle cx="796" cy="704" r="6" class="c0"/>
<circle cx="1912" cy="528" r="6" class="c0"/>
<circle cx="1708" cy="664" r="6" class="c0"/>
<circle cx="1910" cy="420" r="6" class="c0"/>
<circle cx="1838" cy="660" r="6" class="c0"/>
<circle cx="1822" cy="694" r="6" class="c0"/>
<circle cx="1504" cy="62" r="6" class="c0"/>
<circle cx="1842" cy="6" r="6" class="c0"/>
<circle cx="1830" cy="618" r="6" class="c0"/>
<circle cx="1554" cy="570" r="6" class="c0"/>
<circle cx="1842" cy="626" r="6" class="c0"/>
<circle cx="716" cy="660" r="6" class="c0"/>
<circle cx="1432" cy="708" r="6" class="c0"/>
<circle cx="1760" cy="8" r="6" class="c0"/>
<circle cx="1910" cy="678" r="6" class="c0"/>
<circle cx="1502" cy="656" r="6" class="c0"/>
<circle cx="888" cy="994" r="6" class="c0"/>
<circle cx="1234" cy="642" r="6" class="c0"/>
<circle cx="1764" cy="736" r="6" class="c0"/>
<circle cx="808" cy="852" r="6" class="c0"/>
<circle cx="1126" cy="712" r="6" class="c0"/>
<circle cx="1062" cy="520" r="6" class="c0"/>
<circle cx="1632" cy="710" r="6" class="c0"/>
<circle cx="1530" cy="706" r="6" class="c0"/>
<circle cx="1728" cy="404" r="6" class="c0"/>
<circle cx="708" cy="614" r="6" class="c0"/>
<circle cx="1686" cy="86" r="6" class="c0"/>
<circle cx="874" cy="724" r="6" class="c0"/>
<circle cx="1888" cy="32" r="6" class="c0"/>
<circle cx="1104" cy="590" r="6" class="c0"/>
<circle cx="1582" cy="114" r="6" class="c0"/>
<circle cx="1670" cy="534" r="6" class="c0"/>
<circle cx="1884" cy="452" r="6" class="c0"/>
<circle cx="1736" cy="618" r="6" class="c0"/>
<circle cx="1878" cy="414" r="6" class="c0"/>
<circle cx="1340" cy="794" r="6" class="c0"/>
<circle cx="1200" cy="632" r="6" class="c0"/>
<circle cx="1820" cy="424" r="6" class="c0"/>
<circle cx="1658" cy="776" r="6" class="c0"/>
<circle cx="1636" cy="536" r="6" class="c0"/>
<circle cx="754" cy="732" r="6" class="c0"/>
<circle cx="1214" cy="714" r="6" class="c0"/>
<circle cx="1908" cy="30" r="6" class="c0"/>
<circle cx="892" cy="902" r="6" class="c0"/>
<circle cx="1806" cy="394" r="6" class="c0"/>
<circle cx="868" cy="696" r="6" class="c0"/>
<circle cx="1036" cy="514" r="6" class="c0"/>
<circle cx="1656" cy="590" r="6" class="c0"/>
<circle cx="1052" cy="664" r="6" class="c0"/>
<circle cx="828" cy="626" r="6" class="c0"/>
<circle cx="1264" cy="816" r="6" class="c0"/>
<circle cx="1248" cy="726" r="6" class="c0"/>
<circle cx="1456" cy="800" r="6" class="c0"/>
<circle cx="720" cy="626" r="6" class="c0"/>
<circle cx="896" cy="642" r="6" class="c0"/>
<circle cx="1080" cy="632" r="6" class="c0"/>
<circle cx="856" cy="706" r="6" class="c0"/>
<circle cx="1700" cy="636" r="6" class="c0"/>
<circle cx="810" cy="786" r="6" class="c0"/>
<circle cx="1722" cy="10" r="6" class="c0"/>
<circle cx="1912" cy="766" r="6" class="c0"/>
<circle cx="1732" cy="86" r="6" class="c0"/>
<circle cx="1294" cy="626" r="6" class="c0"/>
<circle cx="722" cy="678" r="6" class="c0"/>
<circle cx="1906" cy="138" r="6" class="c0"/>
<circle cx="1270" cy="796" r="6" class="c0"/>
<circle cx="1688" cy="788" r="6" class="c0"/>
<circle cx="1906" cy="804" r="6" class="c0"/>
<circle cx="1000" cy="496" r="6" class="c0"/>
<circle cx="1706" cy="694" r="6" class="c0"/>
<circle cx="790" cy="638" r="6" class="c0"/>
<circle cx="1260" cy="760" r="6" class="c0"/>
<circle cx="760" cy="764" r="6" class="c0"/>
<circle cx="810" cy="570" r="6" class="c0"/>
<circle cx="1216" cy="586" r="6" class="c0"/>
<circle cx="1402" cy="624" r="6" class="c0"/>
<circle cx="1814" cy="524" r="6" class="c0"/>
<circle cx="1766" cy="70" r="6" class="c0"/>
<circle cx="1852" cy="74" r="6" class="c0"/>
<circle cx="1252" cy="744" r="6" class="c0"/>
<circle cx="1320" cy="822" r="6" class="c0"/>
<circle cx="1696" cy="128" r="6" class="c0"/>
<circle cx="1862" cy="588" r="6" class="c0"/>
<circle cx="1838" cy="24" r="6" class="c0"/>
<circle cx="1436" cy="746" r="6" class="c0"/>
<circle cx="1672" cy="762" r="6" class="c0"/>
<circle cx="1404" cy="812" r="6" class="c0"/>
<circle cx="1724" cy="118" r="6" class="c0"/>
<circle cx="904" cy="946" r="6" class="c0"/>
<circle cx="734" cy="630" r="6" class="c0"/>
<circle cx="1524" cy="780" r="6" class="c0"/>
<circle cx="1088" cy="658" r="6" class="c0"/>
<circle cx="1640" cy="776" r="6" class="c0"/>
<circle cx="1818" cy="628" r="6" class="c0"/>
<circle cx="1562" cy="688" r="6" class="c0"/>
<circle cx="1820" cy="78" r="6" class="c0"/>
<circle cx="978" cy="494" r="6" class="c0"/>
<circle cx="1128" cy="578" r="6" class="c0"/>
<circle cx="1726" cy="448" r="6" class="c0"/>
<circle cx="1694" cy="36" r="6" class="c0"/>
<circle cx="1888" cy="128" r="6" class="c0"/>
<circle cx="1452" cy="36" r="6" class="c0"/>
<circle cx="1404" cy="694" r="6" class="c0"/>
<circle cx="1046" cy="590" r="6" class="c0"/>
<circle cx="778" cy="674" r="6" class="c0"/>
<circle cx="1312" cy="654" r="6" class="c0"/>
<circle cx="1386" cy="698" r="6" class="c0"/>
<circle cx="824" cy="572" r="6" class="c0"/>
<circle cx="1554" cy="96" r="6" class="c0"/>
<circle cx="746" cy="682" r="6" class="c0"/>
<circle cx="1742" cy="556" r="6" class="c0"/>
<circle cx="1828" cy="490" r="6" class="c0"/>
<circle cx="1806" cy="32" r="6" class="c0"/>
<circle cx="842" cy="866" r="6" class="c0"/>
<circle cx="1084" cy="562" r="6" class="c0"/>
<circle cx="1774" cy="56" r="6" class="c0"/>
<circle cx="1096" cy="598" r="6" class="c0"/>
<circle cx="1502" cy="680" r="6" class="c0"/>
<circle cx="1768" cy="126" r="6" class="c0"/>
<circle cx="900" cy="822" r="6" class="c0"/>
<circle cx="1862" cy="688" r="6" class="c0"/>
<circle cx="1372" cy="732" r="6" class="c0"/>
<circle cx="1864" cy="514" r="6" class="c0"/>
<circle cx="666" cy="690" r="6" class="c0"/>
<circle cx="846" cy="812" r="6" class="c0"/>
<circle cx="1482" cy="736" r="6" class="c0"/>
<circle cx="1704" cy="504" r="6" class="c0"/>
<circle cx="1812" cy="754" r="6" class="c0"/>
<circle cx="1736" cy="710" r="6" class="c0"/>
<circle cx="1746" cy="102" r="6" class="c0"/>
<circle cx="1628" cy="564" r="6" class="c0"/>
<circle cx="952" cy="492" r="6" class="c0"/>
<circle cx="1178" cy="722" r="6" class="c0"/>
<circle cx="1852" cy="634" r="6" class="c0"/>
<circle cx="886" cy="512" r="6" class="c0"/>
<circle cx="1570" cy="700" r="6" class="c0"/>
<circle cx="788" cy="696" r="6" class="c0"/>
<circle cx="842" cy="976" r="6" class="c0"/>
<circle cx="1680" cy="590" r="6" class="c0"/>
<circle cx="922" cy="624" r="6" class="c0"/>
<circle cx="1126" cy="640" r="6" class="c0"/>
<circle cx="864" cy="546" r="6" class="c0"/>
<circle cx="1028" cy="528" r="6" class="c0"/>
<circle cx="1462" cy="720" r="6" class="c0"/>
<circle cx="1798" cy="102" r="6" class="c0"/>
<circle cx="1684" cy="46" r="6" class="c0"/>
<circle cx="816" cy="716" r="6" class="c0"/>
<circle cx="1736" cy="110" r="6" class="c0"/>
<circle cx="1622" cy="604" r="6" class="c0"/>
<circle cx="1582" cy="44" r="6" class="c0"/>
<circle cx="1818" cy="460" r="6" class="c0"/>
<circle cx="1284" cy="616" r="6" class="c0"/>
<circle cx="1236" cy="594" r="6" class="c0"/>
<circle cx="1742" cy="654" r="6" class="c0"/>
<circle cx="1736" cy="456" r="6" class="c0"/>
<circle cx="1214" cy="642" r="6" class="c0"/>
<circle cx="1848" cy="454" r="6" class="c0"/>
<circle cx="812" cy="884" r="6" class="c0"/>
<circle cx="1686" cy="706" r="6" class="c0"/>
<circle cx="804" cy="974" r="6" class="c0"/>
<circle cx="752" cy="698" r="6" class="c0"/>
<circle cx="1228" cy="742" r="6" class="c0"/>
<circle cx="1878" cy="394" r="6" class="c0"/>
<circle cx="758" cy="650" r="6" class="c0"/>
<circle cx="1912" cy="662" r="6" class="c0"/>
<circle cx="1634" cy="612" r="6" class="c0"/>
<circle cx="1848" cy="394" r="6" class="c0"/>
<circle cx="1768" cy="762" r="6" class="c0"/>
<circle cx="1622" cy="756" r="6" class="c0"/>
<circle cx="1814" cy="496" r="6" class="c0"/>
<circle cx="1824" cy="584" r="6" class="c0"/>
<circle cx="1742" cy="426" r="6" class="c0"/>
<circle cx="1808" cy="448" r="6" class="c0"/>
<circle cx="1912" cy="586" r="6" class="c0"/>
<circle cx="1756" cy="22" r="6" class="c0"/>
<circle cx="1502" cy="92" r="6" class="c0"/>
<circle cx="726" cy="652" r="6" class="c0"/>
<circle cx="1464" cy="8" r="6" class="c0"/>
<circle cx="1866" cy="664" r="6" class="c0"/>
<circle cx="1746" cy="496" r="6" class="c0"/>
<circle cx="912" cy="556" r="6" class="c0"/>
<circle cx="892" cy="656" r="6" class="c0"/>
<circle cx="754" cy="790" r="6" class="c0"/>
<circle cx="1840" cy="726" r="6" class="c0"/>
<circle cx="836" cy="802" r="6" class="c0"/>
<circle cx="1310" cy="634" r="6" class="c0"/>
<circle cx="1668" cy="58" r="6" class="c0"/>
<circle cx="1312" cy="704" r="6" class="c0"/>
<circle cx="1840" cy="822" r="6" class="c0"/>
<circle cx="1062" cy="672" r="6" class="c0"/>
<circle cx="1144" cy="624" r="6" class="c0"/>
<circle cx="1682" cy="754" r="6" class="c0"/>
<circle cx="896" cy="932" r="6" class="c0"/>
<circle cx="872" cy="928" r="6" class="c0"/>
<circle cx="832" cy="966" r="6" class="c0"/>
<circle cx="1208" cy="608" r="6" class="c0"/>
<circle cx="902" cy="502" r="6" class="c0"/>
<circle cx="1464" cy="760" r="6" class="c0"/>
<circle cx="1322" cy="644" r="6" class="c0"/>
<circle cx="1662" cy="630" r="6" class="c0"/>
<circle cx="1788" cy="442" r="6" class="c0"/>
<circle cx="1494" cy="584" r="6" class="c0"/>
<circle cx="796" cy="552" r="6" class="c0"/>
<circle cx="1302" cy="800" r="6" class="c0"/>
<circle cx="1640" cy="20" r="6" class="c0"/>
<circle cx="694" cy="740" r="6" class="c0"/>
<circle cx="1364" cy="662" r="6" class="c0"/>
<circle cx="758" cy="746" r="6" class="c0"/>
<circle cx="1426" cy="734" r="6" class="c0"/>
<circle cx="896" cy="608" r="6" class="c0"/>
<circle cx="862" cy="564" r="6" class="c0"/>
<circle cx="1284" cy="736" r="6" class="c0"/>
<circle cx="1214" cy="730" r="6" class="c0"/>
<circle cx="1402" cy="646" r="6" class="c0"/>
<circle cx="1774" cy="728" r="6" class="c0"/>
<circle cx="1458" cy="648" r="6" class="c0"/>
<circle cx="1664" cy="116" r="6" class="c0"/>
<circle cx="818" cy="604" r="6" class="c0"/>
<circle cx="1768" cy="782" r="6" class="c0"/>
<circle cx="902" cy="790" r="6" class="c0"/>
<circle cx="1740" cy="512" r="6" class="c0"/>
<circle cx="1604" cy="512" r="6" class="c0"/>
<circle cx="1736" cy="396" r="6" class="c0"/>
<circle cx="1304" cy="712" r="6" class="c0"/>
<circle cx="1246" cy="704" r="6" class="c0"/>
<circle cx="1468" cy="28" r="6" class="c0"/>
<circle cx="1872" cy="522" r="6" class="c0"/>
<circle cx="1560" cy="718" r="6" class="c0"/>
<circle cx="966" cy="620" r="6" class="c0"/>
<circle cx="822" cy="660" r="6" class="c0"/>
<circle cx="1376" cy="636" r="6" class="c0"/>
<circle cx="1656" cy="658" r="6" class="c0"/>
<circle cx="824" cy="788" r="6" class="c0"/>
<circle cx="1222" cy="804" r="6" class="c0"/>
<circle cx="1726" cy="786" r="6" class="c0"/>
<circle cx="1360" cy="644" r="6" class="c0"/>
<circle cx="1238" cy="786" r="6" class="c0"/>
<circle cx="1286" cy="788" r="6" class="c0"/>
<circle cx="1064" cy="658" r="6" class="c0"/>
<circle cx="1534" cy="74" r="6" class="c0"/>
<circle cx="1578" cy="658" r="6" class="c0"/>
<circle cx="674" cy="666" r="6" class="c0"/>
<circle cx="1630" cy="674" r="6" class="c0"/>
<circle cx="778" cy="604" r="6" class="c0"/>
<circle cx="1462" cy="692" r="6" class="c0"/>
<circle cx="1162" cy="756" r="6" class="c0"/>
<circle cx="1136" cy="610" r="6" class="c0"/>
<circle cx="982" cy="530" r="6" class="c0"/>
<circle cx="1116" cy="546" r="6" class="c0"/>
<circle cx="1788" cy="422" r="6" class="c0"/>
<circle cx="1240" cy="736" r="6" class="c0"/>
<circle cx="740" cy="578" r="6" class="c0"/>
<circle cx="1762" cy="96" r="6" class="c0"/>
<circle cx="1548" cy="734" r="6" class="c0"/>
<circle cx="1244" cy="770" r="6" class="c0"/>
<circle cx="1824" cy="538" r="6" class="c0"/>
<circle cx="1894" cy="748" r="6" class="c0"/>
<circle cx="1688" cy="116" r="6" class="c0"/>
<circle cx="1222" cy="756" r="6" class="c0"/>
<circle cx="1612" cy="662" r="6" class="c0"/>
<circle cx="800" cy="630" r="6" class="c0"/>
<circle cx="1060" cy="586" r="6" class="c0"/>
<circle cx="1608" cy="72" r="6" class="c0"/>
<circle cx="1036" cy="536" r="6" class="c0"/>
<circle cx="1710" cy="40" r="6" class="c0"/>
<circle cx="1348" cy="802" r="6" class="c0"/>
<circle cx="1740" cy="782" r="6" class="c0"/>
<circle cx="1836" cy="778" r="6" class="c0"/>
<circle cx="1240" cy="716" r="6" class="c0"/>
<circle cx="1632" cy="140" r="6" class="c0"/>
<circle cx="972" cy="558" r="6" class="c0"/>
<circle cx="1892" cy="558" r="6" class="c0"/>
<circle cx="860" cy="810" r="6" class="c0"/>
<circle cx="1446" cy="6" r="6" class="c0"/>
<circle cx="1568" cy="30" r="6" class="c0"/>
<circle cx="750" cy="608" r="6" class="c0"/>
</svg>
