<?xml version="1.0" encoding="utf-8"?>
<svg xmlns="http://www.w3.org/2000/svg"
     xmlns:xlink="http://www.w3.org/1999/xlink" width="1920" height="1440" >

            <defs>
            <style type="text/css"><![CDATA[
circle {stroke: none;}
.c0 {fill: #FFFFFF;}
]]></style>
            </defs>
<rect x="0" y="0" width="1920" height="1440" fill="black"/>
<circle cx="1776" cy="572" r="14" class="c0"/>
<circle cx="1194" cy="760" r="14" class="c0"/>
<circle cx="1556" cy="710" r="14" class="c0"/>
<circle cx="1194" cy="718" r="12" class="c0"/>
<circle cx="1754" cy="666" r="12" class="c0"/>
<circle cx="1786" cy="32" r="12" class="c0"/>
<circle cx="1648" cy="748" r="12" class="c0"/>
<circle cx="1280" cy="634" r="12" class="c0"/>
<circle cx="1702" cy="782" r="12" class="c0"/>
<circle cx="1502" cy="32" r="12" class="c0"/>
<circle cx="1746" cy="14" r="12" class="c0"/>
<circle cx="1868" cy="468" r="12" class="c0"/>
<circle cx="1394" cy="652" r="12" class="c0"/>
<circle cx="1738" cy="582" r="12" class="c0"/>
<circle cx="1842" cy="450" r="12" class="c0"/>
<circle cx="780" cy="644" r="12" class="c0"/>
<circle cx="1824" cy="668" r="12" class="c0"/>
<circle cx="1368" cy="680" r="12" class="c0"/>
<circle cx="1700" cy="116" r="12" class="c0"/>
<circle cx="1444" cy="650" r="12" class="c0"/>
<circle cx="1820" cy="718" r="12" class="c0"/>
<circle cx="1806" cy="74" r="12" class="c0"/>
<circle cx="1836" cy="398" r="12" class="c0"/>
<circle cx="792" cy="586" r="12" class="c0"/>
<circle cx="1038" cy="604" r="12" class="c0"/>
<circle cx="1822" cy="802" r="12" class="c0"/>
<circle cx="1838" cy="788" r="12" class="c0"/>
<circle cx="1474" cy="630" r="12" class="c0"/>
<circle cx="1080" cy="572" r="12" class="c0"/>
<circle cx="1196" cy="654" r="12" class="c0"/>
<circle cx="872" cy="928" r="12" class="c0"/>
<circle cx="874" cy="572" r="12" class="c0"/>
<circle cx="1880" cy="438" r="12" class="c0"/>
<circle cx="1066" cy="528" r="12" class="c0"/>
<circle cx="1728" cy="536" r="12" class="c0"/>
<circle cx="850" cy="606" r="12" class="c0"/>
<circle cx="1842" cy="754" r="12" class="c0"/>
<circle cx="1418" cy="684" r="12" class="c0"/>
<circle cx="1126" cy="570" r="12" class="c0"/>
<circle cx="734" cy="682" r="12" class="c0"/>
<circle cx="1534" cy="670" r="12" class="c0"/>
<circle cx="1284" cy="730" r="12" class="c0"/>
<circle cx="1760" cy="628" r="12" class="c0"/>
<circle cx="1494" cy="680" r="12" class="c0"/>
<circle cx="1418" cy="756" r="12" class="c0"/>
<circle cx="1136" cy="618" r="12" class="c0"/>
<circle cx="1660" cy="644" r="12" class="c0"/>
<circle cx="1078" cy="676" r="12" class="c0"/>
<circle cx="1868" cy="396" r="12" class="c0"/>
<circle cx="1732" cy="482" r="12" class="c0"/>
<circle cx="1742" cy="518" r="12" class="c0"/>
<circle cx="1738" cy="648" r="12" class="c0"/>
<circle cx="1886" cy="80" r="12" class="c0"/>
<circle cx="956" cy="536" r="12" class="c0"/>
<circle cx="948" cy="506" r="12" class="c0"/>
<circle cx="1634" cy="540" r="10" class="c0"/>
<circle cx="1900" cy="634" r="10" class="c0"/>
<circle cx="1524" cy="740" r="10" class="c0"/>
<circle cx="1606" cy="96" r="10" class="c0"/>
<circle cx="1868" cy="746" r="10" class="c0"/>
<circle cx="1506" cy="586" r="10" class="c0"/>
<circle cx="686" cy="740" r="10" class="c0"/>
<circle cx="1082" cy="652" r="10" class="c0"/>
<circle cx="1598" cy="734" r="10" class="c0"/>
<circle cx="1696" cy="48" r="10" class="c0"/>
<circle cx="1732" cy="738" r="10" class="c0"/>
<circle cx="1486" cy="770" r="10" class="c0"/>
<circle cx="1232" cy="724" r="10" class="c0"/>
<circle cx="1448" cy="746" r="10" class="c0"/>
<circle cx="1834" cy="80" r="10" class="c0"/>
<circle cx="1286" cy="796" r="10" class="c0"/>
<circle cx="894" cy="596" r="10" class="c0"/>
<circle cx="1504" cy="636" r="10" class="c0"/>
<circle cx="1580" cy="12" r="10" class="c0"/>
<circle cx="842" cy="824" r="10" class="c0"/>
<circle cx="860" cy="880" r="10" class="c0"/>
<circle cx="1640" cy="114" r="10" class="c0"/>
<circle cx="1574" cy="732" r="10" class="c0"/>
<circle cx="1060" cy="614" r="10" class="c0"/>
<circle cx="708" cy="654" r="10" class="c0"/>
<circle cx="1688" cy="512" r="10" class="c0"/>
<circle cx="830" cy="876" r="10" class="c0"/>
<circle cx="864" cy="802" r="10" class="c0"/>
<circle cx="1606" cy="618" r="10" class="c0"/>
<circle cx="1782" cy="98" r="10" class="c0"/>
<circle cx="1248" cy="692" r="10" class="c0"/>
<circle cx="1708" cy="586" r="10" class="c0"/>
<circle cx="1276" cy="706" r="10" class="c0"/>
<circle cx="1542" cy="570" r="10" class="c0"/>
<circle cx="1112" cy="648" r="10" class="c0"/>
<circle cx="1552" cy="66" r="10" class="c0"/>
<circle cx="1682" cy="698" r="10" class="c0"/>
<circle cx="1526" cy="116" r="10" class="c0"/>
<circle cx="1562" cy="624" r="10" class="c0"/>
<circle cx="1694" cy="568" r="10" class="c0"/>
<circle cx="850" cy="564" r="10" class="c0"/>
<circle cx="744" cy="578" r="10" class="c0"/>
<circle cx="1842" cy="604" r="10" class="c0"/>
<circle cx="1274" cy="666" r="10" class="c0"/>
<circle cx="1104" cy="670" r="10" class="c0"/>
<circle cx="1326" cy="758" r="10" class="c0"/>
<circle cx="1558" cy="766" r="10" class="c0"/>
<circle cx="872" cy="718" r="10" class="c0"/>
<circle cx="846" cy="860" r="10" class="c0"/>
<circle cx="1306" cy="714" r="10" class="c0"/>
<circle cx="1586" cy="686" r="10" class="c0"/>
<circle cx="1600" cy="578" r="10" class="c0"/>
<circle cx="1500" cy="704" r="10" class="c0"/>
<circle cx="1842" cy="488" r="10" class="c0"/>
<circle cx="1690" cy="628" r="10" class="c0"/>
<circle cx="666" cy="718" r="10" class="c0"/>
<circle cx="1642" cy="82" r="10" class="c0"/>
<circle cx="1036" cy="544" r="10" class="c0"/>
<circle cx="1892" cy="688" r="10" class="c0"/>
<circle cx="1074" cy="626" r="10" class="c0"/>
<circle cx="1580" cy="562" r="10" class="c0"/>
<circle cx="696" cy="668" r="10" class="c0"/>
<circle cx="846" cy="942" r="10" class="c0"/>
<circle cx="1760" cy="726" r="10" class="c0"/>
<circle cx="928" cy="534" r="10" class="c0"/>
<circle cx="1222" cy="758" r="10" class="c0"/>
<circle cx="1460" cy="600" r="10" class="c0"/>
<circle cx="1580" cy="98" r="10" class="c0"/>
<circle cx="990" cy="582" r="10" class="c0"/>
<circle cx="768" cy="670" r="10" class="c0"/>
<circle cx="1698" cy="80" r="10" class="c0"/>
<circle cx="1564" cy="650" r="10" class="c0"/>
<circle cx="908" cy="630" r="10" class="c0"/>
<circle cx="1202" cy="694" r="10" class="c0"/>
<circle cx="1876" cy="504" r="10" class="c0"/>
<circle cx="828" cy="556" r="10" class="c0"/>
<circle cx="1428" cy="710" r="10" class="c0"/>
<circle cx="730" cy="742" r="10" class="c0"/>
<circle cx="1168" cy="652" r="10" class="c0"/>
<circle cx="1810" cy="460" r="10" class="c0"/>
<circle cx="1636" cy="576" r="10" class="c0"/>
<circle cx="1896" cy="402" r="10" class="c0"/>
<circle cx="1824" cy="578" r="10" class="c0"/>
<circle cx="1306" cy="654" r="10" class="c0"/>
<circle cx="1598" cy="758" r="10" class="c0"/>
<circle cx="868" cy="830" r="10" class="c0"/>
<circle cx="1386" cy="722" r="10" class="c0"/>
<circle cx="1730" cy="430" r="10" class="c0"/>
<circle cx="1092" cy="594" r="10" class="c0"/>
<circle cx="1036" cy="514" r="10" class="c0"/>
<circle cx="1214" cy="596" r="10" class="c0"/>
<circle cx="1564" cy="580" r="10" class="c0"/>
<circle cx="1752" cy="74" r="10" class="c0"/>
<circle cx="1448" cy="790" r="10" class="c0"/>
<circle cx="1658" cy="510" r="10" class="c0"/>
<circle cx="824" cy="956" r="10" class="c0"/>
<circle cx="1630" cy="660" r="10" class="c0"/>
<circle cx="1002" cy="568" r="10" class="c0"/>
<circle cx="808" cy="606" r="10" class="c0"/>
<circle cx="812" cy="774" r="10" class="c0"/>
<circle cx="1362" cy="772" r="10" class="c0"/>
<circle cx="1870" cy="534" r="10" class="c0"/>
<circle cx="1354" cy="798" r="10" class="c0"/>
<circle cx="1810" cy="538" r="10" class="c0"/>
<circle cx="864" cy="952" r="10" class="c0"/>
<circle cx="936" cy="572" r="10" class="c0"/>
<circle cx="1748" cy="96" r="10" class="c0"/>
<circle cx="1886" cy="736" r="10" class="c0"/>
<circle cx="1768" cy="514" r="10" class="c0"/>
<circle cx="1540" cy="598" r="10" class="c0"/>
<circle cx="1848" cy="640" r="10" class="c0"/>
<circle cx="1742" cy="716" r="10" class="c0"/>
<circle cx="1506" cy="76" r="10" class="c0"/>
<circle cx="688" cy="694" r="10" class="c0"/>
<circle cx="1234" cy="604" r="10" class="c0"/>
<circle cx="1714" cy="638" r="10" class="c0"/>
<circle cx="794" cy="678" r="10" class="c0"/>
<circle cx="918" cy="582" r="10" class="c0"/>
<circle cx="1646" cy="28" r="10" class="c0"/>
<circle cx="1658" cy="718" r="10" class="c0"/>
<circle cx="1560" cy="28" r="10" class="c0"/>
<circle cx="1640" cy="54" r="10" class="c0"/>
<circle cx="1244" cy="652" r="10" class="c0"/>
<circle cx="956" cy="620" r="10" class="c0"/>
<circle cx="1756" cy="492" r="10" class="c0"/>
<circle cx="1808" cy="438" r="10" class="c0"/>
<circle cx="1902" cy="528" r="10" class="c0"/>
<circle cx="1680" cy="16" r="10" class="c0"/>
<circle cx="1746" cy="462" r="10" class="c0"/>
<circle cx="1840" cy="730" r="10" class="c0"/>
<circle cx="1870" cy="672" r="10" class="c0"/>
<circle cx="1780" cy="530" r="10" class="c0"/>
<circle cx="1484" cy="654" r="10" class="c0"/>
<circle cx="1628" cy="686" r="10" class="c0"/>
<circle cx="1520" cy="764" r="10" class="c0"/>
<circle cx="870" cy="764" r="10" class="c0"/>
<circle cx="1672" cy="100" r="10" class="c0"/>
<circle cx="822" cy="722" r="10" class="c0"/>
<circle cx="928" cy="612" r="10" class="c0"/>
<circle cx="1248" cy="770" r="10" class="c0"/>
<circle cx="1016" cy="592" r="10" class="c0"/>
<circle cx="732" cy="650" r="10" class="c0"/>
<circle cx="1696" cy="460" r="10" class="c0"/>
<circle cx="728" cy="606" r="10" class="c0"/>
<circle cx="1470" cy="734" r="10" class="c0"/>
<circle cx="1330" cy="784" r="10" class="c0"/>
<circle cx="906" cy="562" r="10" class="c0"/>
<circle cx="1664" cy="762" r="10" class="c0"/>
<circle cx="1830" cy="510" r="10" class="c0"/>
<circle cx="1904" cy="756" r="10" class="c0"/>
<circle cx="1886" cy="38" r="10" class="c0"/>
<circle cx="1594" cy="544" r="10" class="c0"/>
<circle cx="1794" cy="630" r="10" class="c0"/>
<circle cx="1390" cy="762" r="10" class="c0"/>
<circle cx="884" cy="962" r="10" class="c0"/>
<circle cx="836" cy="576" r="10" class="c0"/>
<circle cx="816" cy="540" r="10" class="c0"/>
<circle cx="1540" cy="78" r="10" class="c0"/>
<circle cx="1454" cy="22" r="10" class="c0"/>
<circle cx="1204" cy="630" r="10" class="c0"/>
<circle cx="1852" cy="808" r="10" class="c0"/>
<circle cx="874" cy="892" r="10" class="c0"/>
<circle cx="1418" cy="796" r="10" class="c0"/>
<circle cx="1864" cy="56" r="10" class="c0"/>
<circle cx="1094" cy="550" r="10" class="c0"/>
<circle cx="1154" cy="590" r="10" class="c0"/>
<circle cx="1698" cy="726" r="10" class="c0"/>
<circle cx="1348" cy="744" r="10" class="c0"/>
<circle cx="1886" cy="710" r="10" class="c0"/>
<circle cx="804" cy="848" r="10" class="c0"/>
<circle cx="1656" cy="542" r="10" class="c0"/>
<circle cx="852" cy="918" r="10" class="c0"/>
<circle cx="1798" cy="510" r="10" class="c0"/>
<circle cx="1894" cy="478" r="10" class="c0"/>
<circle cx="1878" cy="772" r="10" class="c0"/>
<circle cx="1620" cy="14" r="10" class="c0"/>
<circle cx="1780" cy="698" r="10" class="c0"/>
<circle cx="1398" cy="788" r="10" class="c0"/>
<circle cx="844" cy="898" r="10" class="c0"/>
<circle cx="1676" cy="480" r="10" class="c0"/>
<circle cx="860" cy="530" r="10" class="c0"/>
<circle cx="1778" cy="746" r="10" class="c0"/>
<circle cx="754" cy="796" r="10" class="c0"/>
<circle cx="1842" cy="540" r="8" class="c0"/>
<circle cx="1868" cy="616" r="8" class="c0"/>
<circle cx="1716" cy="458" r="8" class="c0"/>
<circle cx="1050" cy="576" r="8" class="c0"/>
<circle cx="1858" cy="16" r="8" class="c0"/>
<circle cx="678" cy="654" r="8" class="c0"/>
<circle cx="1302" cy="630" r="8" class="c0"/>
<circle cx="888" cy="822" r="8" class="c0"/>
<circle cx="1856" cy="82" r="8" class="c0"/>
<circle cx="1834" cy="26" r="8" class="c0"/>
<circle cx="1196" cy="584" r="8" class="c0"/>
<circle cx="1656" cy="8" r="8" class="c0"/>
<circle cx="890" cy="984" r="8" class="c0"/>
<circle cx="1760" cy="444" r="8" class="c0"/>
<circle cx="1256" cy="618" r="8" class="c0"/>
<circle cx="804" cy="554" r="8" class="c0"/>
<circle cx="1584" cy="652" r="8" class="c0"/>
<circle cx="1704" cy="656" r="8" class="c0"/>
<circle cx="1668" cy="568" r="8" class="c0"/>
<circle cx="844" cy="770" r="8" class="c0"/>
<circle cx="1860" cy="102" r="8" class="c0"/>
<circle cx="1806" cy="790" r="8" class="c0"/>
<circle cx="798" cy="632" r="8" class="c0"/>
<circle cx="1448" cy="696" r="8" class="c0"/>
<circle cx="1820" cy="56" r="8" class="c0"/>
<circle cx="822" cy="858" r="8" class="c0"/>
<circle cx="1560" cy="604" r="8" class="c0"/>
<circle cx="1588" cy="610" r="8" class="c0"/>
<circle cx="1494" cy="748" r="8" class="c0"/>
<circle cx="1720" cy="610" r="8" class="c0"/>
<circle cx="1658" cy="128" r="8" class="c0"/>
<circle cx="1282" cy="754" r="8" class="c0"/>
<circle cx="1530" cy="96" r="8" class="c0"/>
<circle cx="1910" cy="30" r="8" class="c0"/>
<circle cx="1140" cy="688" r="8" class="c0"/>
<circle cx="1212" cy="788" r="8" class="c0"/>
<circle cx="1900" cy="50" r="8" class="c0"/>
<circle cx="1546" cy="734" r="8" class="c0"/>
<circle cx="1568" cy="118" r="8" class="c0"/>
<circle cx="1784" cy="598" r="8" class="c0"/>
<circle cx="1802" cy="398" r="8" class="c0"/>
<circle cx="1706" cy="756" r="8" class="c0"/>
<circle cx="1316" cy="802" r="8" class="c0"/>
<circle cx="1612" cy="58" r="8" class="c0"/>
<circle cx="1012" cy="550" r="8" class="c0"/>
<circle cx="1866" cy="692" r="8" class="c0"/>
<circle cx="1320" cy="642" r="8" class="c0"/>
<circle cx="730" cy="720" r="8" class="c0"/>
<circle cx="1710" cy="522" r="8" class="c0"/>
<circle cx="1668" cy="682" r="8" class="c0"/>
<circle cx="1172" cy="688" r="8" class="c0"/>
<circle cx="1340" cy="690" r="8" class="c0"/>
<circle cx="1108" cy="694" r="8" class="c0"/>
<circle cx="1304" cy="776" r="8" class="c0"/>
<circle cx="772" cy="570" r="8" class="c0"/>
<circle cx="1704" cy="412" r="8" class="c0"/>
<circle cx="1614" cy="534" r="8" class="c0"/>
<circle cx="1228" cy="640" r="8" class="c0"/>
<circle cx="1904" cy="610" r="8" class="c0"/>
<circle cx="890" cy="782" r="8" class="c0"/>
<circle cx="972" cy="592" r="8" class="c0"/>
<circle cx="1204" cy="738" r="8" class="c0"/>
<circle cx="1152" cy="672" r="8" class="c0"/>
<circle cx="1462" cy="716" r="8" class="c0"/>
<circle cx="1124" cy="708" r="8" class="c0"/>
<circle cx="1574" cy="72" r="8" class="c0"/>
<circle cx="940" cy="632" r="8" class="c0"/>
<circle cx="1384" cy="700" r="8" class="c0"/>
<circle cx="1666" cy="792" r="8" class="c0"/>
<circle cx="1702" cy="686" r="8" class="c0"/>
<circle cx="1736" cy="622" r="8" class="c0"/>
<circle cx="980" cy="512" r="8" class="c0"/>
<circle cx="712" cy="726" r="8" class="c0"/>
<circle cx="1788" cy="654" r="8" class="c0"/>
<circle cx="984" cy="602" r="8" class="c0"/>
<circle cx="900" cy="658" r="8" class="c0"/>
<circle cx="1332" cy="810" r="8" class="c0"/>
<circle cx="894" cy="508" r="8" class="c0"/>
<circle cx="1734" cy="760" r="8" class="c0"/>
<circle cx="908" cy="526" r="8" class="c0"/>
<circle cx="1528" cy="644" r="8" class="c0"/>
<circle cx="1596" cy="516" r="8" class="c0"/>
<circle cx="1590" cy="56" r="8" class="c0"/>
<circle cx="846" cy="974" r="8" class="c0"/>
<circle cx="738" cy="628" r="8" class="c0"/>
<circle cx="660" cy="690" r="8" class="c0"/>
<circle cx="1358" cy="708" r="8" class="c0"/>
<circle cx="1520" cy="698" r="8" class="c0"/>
<circle cx="1812" cy="756" r="8" class="c0"/>
<circle cx="1764" cy="402" r="8" class="c0"/>
<circle cx="1602" cy="42" r="8" class="c0"/>
<circle cx="1690" cy="594" r="8" class="c0"/>
<circle cx="890" cy="620" r="8" class="c0"/>
<circle cx="1908" cy="548" r="8" class="c0"/>
<circle cx="1704" cy="22" r="8" class="c0"/>
<circle cx="1168" cy="578" r="8" class="c0"/>
<circle cx="1724" cy="74" r="8" class="c0"/>
<circle cx="1822" cy="38" r="8" class="c0"/>
<circle cx="1490" cy="56" r="8" class="c0"/>
<circle cx="1806" cy="618" r="8" class="c0"/>
<circle cx="1718" cy="402" r="8" class="c0"/>
<circle cx="1624" cy="104" r="8" class="c0"/>
<circle cx="1650" cy="694" r="8" class="c0"/>
<circle cx="1634" cy="624" r="8" class="c0"/>
<circle cx="1152" cy="744" r="8" class="c0"/>
<circle cx="1664" cy="608" r="8" class="c0"/>
<circle cx="1676" cy="76" r="8" class="c0"/>
<circle cx="886" cy="672" r="8" class="c0"/>
<circle cx="1698" cy="494" r="8" class="c0"/>
<circle cx="1738" cy="556" r="8" class="c0"/>
<circle cx="1272" cy="778" r="8" class="c0"/>
<circle cx="1876" cy="22" r="8" class="c0"/>
<circle cx="852" cy="722" r="8" class="c0"/>
<circle cx="1800" cy="576" r="8" class="c0"/>
<circle cx="1530" cy="30" r="8" class="c0"/>
<circle cx="1048" cy="640" r="8" class="c0"/>
<circle cx="1808" cy="698" r="8" class="c0"/>
<circle cx="886" cy="546" r="8" class="c0"/>
<circle cx="814" cy="642" r="8" class="c0"/>
<circle cx="866" cy="996" r="8" class="c0"/>
<circle cx="1340" cy="662" r="8" class="c0"/>
<circle cx="746" cy="664" r="8" class="c0"/>
<circle cx="1722" cy="10" r="8" class="c0"/>
<circle cx="744" cy="730" r="8" class="c0"/>
<circle cx="692" cy="630" r="8" class="c0"/>
<circle cx="1476" cy="754" r="8" class="c0"/>
<circle cx="1366" cy="726" r="8" class="c0"/>
<circle cx="1906" cy="426" r="8" class="c0"/>
<circle cx="1326" cy="736" r="8" class="c0"/>
<circle cx="1752" cy="536" r="8" class="c0"/>
<circle cx="728" cy="774" r="8" class="c0"/>
<circle cx="832" cy="800" r="8" class="c0"/>
<circle cx="1860" cy="782" r="8" class="c0"/>
<circle cx="1606" cy="694" r="8" class="c0"/>
<circle cx="1514" cy="608" r="8" class="c0"/>
<circle cx="1888" cy="576" r="8" class="c0"/>
<circle cx="1612" cy="652" r="8" class="c0"/>
<circle cx="764" cy="608" r="8" class="c0"/>
<circle cx="1638" cy="502" r="8" class="c0"/>
<circle cx="1810" cy="598" r="8" class="c0"/>
<circle cx="1134" cy="592" r="8" class="c0"/>
<circle cx="1260" cy="750" r="8" class="c0"/>
<circle cx="1900" cy="804" r="8" class="c0"/>
<circle cx="1782" cy="430" r="8" class="c0"/>
<circle cx="1480" cy="606" r="8" class="c0"/>
<circle cx="878" cy="860" r="8" class="c0"/>
<circle cx="1778" cy="678" r="8" class="c0"/>
<circle cx="1548" cy="112" r="8" class="c0"/>
<circle cx="816" cy="700" r="8" class="c0"/>
<circle cx="1722" cy="770" r="8" class="c0"/>
<circle cx="1796" cy="418" r="8" class="c0"/>
<circle cx="1858" cy="594" r="8" class="c0"/>
<circle cx="1466" cy="674" r="8" class="c0"/>
<circle cx="1756" cy="760" r="8" class="c0"/>
<circle cx="1714" cy="92" r="8" class="c0"/>
<circle cx="1448" cy="620" r="8" class="c0"/>
<circle cx="1174" cy="608" r="8" class="c0"/>
<circle cx="1254" cy="800" r="8" class="c0"/>
<circle cx="1632" cy="598" r="8" class="c0"/>
<circle cx="1008" cy="514" r="8" class="c0"/>
<circle cx="1258" cy="714" r="8" class="c0"/>
<circle cx="1886" cy="606" r="8" class="c0"/>
<circle cx="814" cy="904" r="8" class="c0"/>
<circle cx="810" cy="572" r="8" class="c0"/>
<circle cx="1678" cy="774" r="8" class="c0"/>
<circle cx="718" cy="670" r="8" class="c0"/>
<circle cx="974" cy="494" r="8" class="c0"/>
<circle cx="1174" cy="710" r="8" class="c0"/>
<circle cx="1652" cy="618" r="8" class="c0"/>
<circle cx="824" cy="916" r="8" class="c0"/>
<circle cx="1846" cy="702" r="8" class="c0"/>
<circle cx="1542" cy="634" r="8" class="c0"/>
<circle cx="1906" cy="786" r="8" class="c0"/>
<circle cx="1376" cy="802" r="8" class="c0"/>
<circle cx="1756" cy="700" r="8" class="c0"/>
<circle cx="1430" cy="634" r="8" class="c0"/>
<circle cx="1596" cy="666" r="8" class="c0"/>
<circle cx="1024" cy="636" r="8" class="c0"/>
<circle cx="802" cy="794" r="8" class="c0"/>
<circle cx="1116" cy="628" r="8" class="c0"/>
<circle cx="1098" cy="626" r="8" class="c0"/>
<circle cx="1828" cy="692" r="8" class="c0"/>
<circle cx="1582" cy="32" r="8" class="c0"/>
<circle cx="1322" cy="696" r="8" class="c0"/>
<circle cx="1594" cy="634" r="8" class="c0"/>
<circle cx="1144" cy="656" r="8" class="c0"/>
<circle cx="1870" cy="642" r="8" class="c0"/>
<circle cx="1160" cy="722" r="8" class="c0"/>
<circle cx="1858" cy="514" r="8" class="c0"/>
<circle cx="1430" cy="8" r="8" class="c0"/>
<circle cx="1648" cy="562" r="8" class="c0"/>
<circle cx="1624" cy="520" r="8" class="c0"/>
<circle cx="1720" cy="666" r="8" class="c0"/>
<circle cx="1810" cy="490" r="8" class="c0"/>
<circle cx="752" cy="776" r="8" class="c0"/>
<circle cx="894" cy="702" r="8" class="c0"/>
<circle cx="1788" cy="716" r="8" class="c0"/>
<circle cx="1254" cy="668" r="8" class="c0"/>
<circle cx="1404" cy="708" r="8" class="c0"/>
<circle cx="1724" cy="32" r="8" class="c0"/>
<circle cx="1150" cy="638" r="8" class="c0"/>
<circle cx="1804" cy="678" r="8" class="c0"/>
<circle cx="856" cy="584" r="8" class="c0"/>
<circle cx="1890" cy="552" r="8" class="c0"/>
<circle cx="1778" cy="448" r="8" class="c0"/>
<circle cx="694" cy="722" r="8" class="c0"/>
<circle cx="1750" cy="426" r="8" class="c0"/>
<circle cx="806" cy="660" r="8" class="c0"/>
<circle cx="1904" cy="498" r="8" class="c0"/>
<circle cx="1908" cy="712" r="8" class="c0"/>
<circle cx="946" cy="602" r="8" class="c0"/>
<circle cx="1524" cy="718" r="8" class="c0"/>
<circle cx="1788" cy="54" r="8" class="c0"/>
<circle cx="872" cy="624" r="8" class="c0"/>
<circle cx="834" cy="710" r="8" class="c0"/>
<circle cx="828" cy="616" r="8" class="c0"/>
<circle cx="780" cy="618" r="8" class="c0"/>
<circle cx="1878" cy="562" r="8" class="c0"/>
<circle cx="1374" cy="640" r="8" class="c0"/>
<circle cx="1170" cy="628" r="8" class="c0"/>
<circle cx="1804" cy="96" r="8" class="c0"/>
<circle cx="1728" cy="106" r="8" class="c0"/>
<circle cx="992" cy="538" r="8" class="c0"/>
<circle cx="1468" cy="38" r="8" class="c0"/>
<circle cx="1026" cy="574" r="8" class="c0"/>
<circle cx="1108" cy="580" r="8" class="c0"/>
<circle cx="1268" cy="606" r="8" class="c0"/>
<circle cx="834" cy="996" r="8" class="c0"/>
<circle cx="1566" cy="682" r="8" class="c0"/>
<circle cx="942" cy="550" r="8" class="c0"/>
<circle cx="1482" cy="716" r="8" class="c0"/>
<circle cx="1306" cy="750" r="8" class="c0"/>
<circle cx="1904" cy="450" r="8" class="c0"/>
<circle cx="1506" cy="780" r="8" class="c0"/>
<circle cx="806" cy="828" r="8" class="c0"/>
<circle cx="1870" cy="794" r="8" class="c0"/>
<circle cx="1742" cy="408" r="8" class="c0"/>
<circle cx="1858" cy="566" r="8" class="c0"/>
<circle cx="1416" cy="644" r="8" class="c0"/>
<circle cx="714" cy="626" r="8" class="c0"/>
<circle cx="1570" cy="54" r="8" class="c0"/>
<circle cx="1298" cy="672" r="8" class="c0"/>
<circle cx="1880" cy="814" r="8" class="c0"/>
<circle cx="1288" cy="682" r="8" class="c0"/>
<circle cx="1860" cy="712" r="8" class="c0"/>
<circle cx="1502" cy="98" r="8" class="c0"/>
<circle cx="1706" cy="708" r="8" class="c0"/>
<circle cx="752" cy="646" r="8" class="c0"/>
<circle cx="1514" cy="52" r="8" class="c0"/>
<circle cx="1820" cy="420" r="8" class="c0"/>
<circle cx="1434" cy="772" r="8" class="c0"/>
<circle cx="1844" cy="424" r="8" class="c0"/>
<circle cx="1582" cy="528" r="8" class="c0"/>
<circle cx="844" cy="542" r="8" class="c0"/>
<circle cx="1218" cy="660" r="8" class="c0"/>
<circle cx="1676" cy="50" r="8" class="c0"/>
<circle cx="1792" cy="10" r="8" class="c0"/>
<circle cx="1662" cy="60" r="8" class="c0"/>
<circle cx="1148" cy="706" r="8" class="c0"/>
<circle cx="1700" cy="612" r="8" class="c0"/>
<circle cx="1058" cy="656" r="8" class="c0"/>
<circle cx="1718" cy="502" r="8" class="c0"/>
<circle cx="1174" cy="736" r="8" class="c0"/>
<circle cx="1056" cy="554" r="8" class="c0"/>
<circle cx="1746" cy="40" r="8" class="c0"/>
<circle cx="1346" cy="722" r="8" class="c0"/>
<circle cx="1408" cy="728" r="8" class="c0"/>
<circle cx="678" cy="758" r="8" class="c0"/>
<circle cx="1614" cy="76" r="8" class="c0"/>
<circle cx="1510" cy="664" r="8" class="c0"/>
<circle cx="1634" cy="724" r="8" class="c0"/>
<circle cx="1218" cy="682" r="8" class="c0"/>
<circle cx="1560" cy="88" r="8" class="c0"/>
<circle cx="1532" cy="778" r="8" class="c0"/>
<circle cx="1768" cy="608" r="8" class="c0"/>
<circle cx="1472" cy="62" r="8" class="c0"/>
<circle cx="1900" cy="96" r="8" class="c0"/>
<circle cx="786" cy="556" r="8" class="c0"/>
<circle cx="1800" cy="730" r="8" class="c0"/>
<circle cx="1762" cy="32" r="8" class="c0"/>
<circle cx="798" cy="988" r="8" class="c0"/>
<circle cx="1678" cy="744" r="8" class="c0"/>
<circle cx="1622" cy="746" r="8" class="c0"/>
<circle cx="1216" cy="714" r="8" class="c0"/>
<circle cx="1396" cy="674" r="8" class="c0"/>
<circle cx="1598" cy="598" r="8" class="c0"/>
<circle cx="1126" cy="672" r="8" class="c0"/>
<circle cx="1830" cy="558" r="8" class="c0"/>
<circle cx="1490" cy="10" r="8" class="c0"/>
<circle cx="872" cy="602" r="8" class="c0"/>
<circle cx="1786" cy="766" r="8" class="c0"/>
<circle cx="1906" cy="568" r="8" class="c0"/>
<circle cx="1670" cy="662" r="8" class="c0"/>
<circle cx="1540" cy="18" r="8" class="c0"/>
<circle cx="1336" cy="710" r="8" class="c0"/>
<circle cx="1142" cy="728" r="8" class="c0"/>
<circle cx="824" cy="760" r="8" class="c0"/>
<circle cx="1010" cy="612" r="8" class="c0"/>
<circle cx="1814" cy="18" r="8" class="c0"/>
<circle cx="1676" cy="726" r="8" class="c0"/>
<circle cx="1678" cy="538" r="8" class="c0"/>
<circle cx="836" cy="844" r="8" class="c0"/>
<circle cx="804" cy="714" r="8" class="c0"/>
<circle cx="916" cy="498" r="8" class="c0"/>
<circle cx="1548" cy="684" r="8" class="c0"/>
<circle cx="1246" cy="632" r="8" class="c0"/>
<circle cx="1236" cy="676" r="8" class="c0"/>
<circle cx="824" cy="832" r="8" class="c0"/>
<circle cx="1330" cy="676" r="8" class="c0"/>
<circle cx="1594" cy="110" r="8" class="c0"/>
<circle cx="1786" cy="470" r="8" class="c0"/>
<circle cx="1806" cy="558" r="8" class="c0"/>
<circle cx="1504" cy="728" r="8" class="c0"/>
<circle cx="1844" cy="50" r="8" class="c0"/>
<circle cx="1678" cy="124" r="8" class="c0"/>
<circle cx="1406" cy="624" r="8" class="c0"/>
<circle cx="1112" cy="610" r="8" class="c0"/>
<circle cx="1908" cy="70" r="8" class="c0"/>
<circle cx="1884" cy="660" r="8" class="c0"/>
<circle cx="1616" cy="588" r="8" class="c0"/>
<circle cx="1738" cy="58" r="8" class="c0"/>
<circle cx="1460" cy="770" r="8" class="c0"/>
<circle cx="1592" cy="82" r="8" class="c0"/>
<circle cx="1756" cy="52" r="8" class="c0"/>
<circle cx="1768" cy="462" r="8" class="c0"/>
<circle cx="1822" cy="626" r="8" class="c0"/>
<circle cx="1228" cy="696" r="8" class="c0"/>
<circle cx="762" cy="632" r="8" class="c0"/>
<circle cx="1784" cy="396" r="8" class="c0"/>
<circle cx="1600" cy="10" r="8" class="c0"/>
<circle cx="1904" cy="664" r="8" class="c0"/>
<circle cx="994" cy="498" r="8" class="c0"/>
<circle cx="1536" cy="48" r="8" class="c0"/>
<circle cx="1720" cy="690" r="8" class="c0"/>
<circle cx="1202" cy="610" r="8" class="c0"/>
<circle cx="1838" cy="682" r="8" class="c0"/>
<circle cx="802" cy="878" r="8" class="c0"/>
<circle cx="894" cy="764" r="8" class="c0"/>
<circle cx="1612" cy="562" r="8" class="c0"/>
<circle cx="1440" cy="674" r="8" class="c0"/>
<circle cx="1230" cy="782" r="8" class="c0"/>
<circle cx="792" cy="704" r="8" class="c0"/>
<circle cx="888" cy="528" r="8" class="c0"/>
<circle cx="856" cy="842" r="8" class="c0"/>
<circle cx="1770" cy="546" r="8" class="c0"/>
<circle cx="816" cy="936" r="8" class="c0"/>
<circle cx="1068" cy="588" r="8" class="c0"/>
<circle cx="1266" cy="684" r="8" class="c0"/>
<circle cx="1746" cy="782" r="8" class="c0"/>
<circle cx="1622" cy="712" r="8" class="c0"/>
<circle cx="1740" cy="686" r="8" class="c0"/>
<circle cx="1688" cy="674" r="8" class="c0"/>
<circle cx="1806" cy="648" r="8" class="c0"/>
<circle cx="1142" cy="556" r="8" class="c0"/>
<circle cx="1898" cy="10" r="8" class="c0"/>
<circle cx="1438" cy="730" r="8" class="c0"/>
<circle cx="1824" cy="106" r="8" class="c0"/>
<circle cx="1618" cy="634" r="8" class="c0"/>
<circle cx="1350" cy="652" r="8" class="c0"/>
<circle cx="1706" cy="430" r="8" class="c0"/>
<circle cx="1854" cy="36" r="8" class="c0"/>
<circle cx="672" cy="674" r="8" class="c0"/>
<circle cx="820" cy="986" r="8" class="c0"/>
<circle cx="1864" cy="492" r="8" class="c0"/>
<circle cx="848" cy="788" r="8" class="c0"/>
<circle cx="1470" cy="692" r="8" class="c0"/>
<circle cx="1720" cy="562" r="8" class="c0"/>
<circle cx="1908" cy="734" r="8" class="c0"/>
<circle cx="908" cy="608" r="8" class="c0"/>
<circle cx="1908" cy="592" r="8" class="c0"/>
<circle cx="964" cy="568" r="8" class="c0"/>
<circle cx="840" cy="732" r="8" class="c0"/>
<circle cx="1180" cy="640" r="8" class="c0"/>
<circle cx="1792" cy="488" r="8" class="c0"/>
<circle cx="1874" cy="586" r="8" class="c0"/>
<circle cx="1622" cy="38" r="8" class="c0"/>
<circle cx="1134" cy="646" r="8" class="c0"/>
<circle cx="1560" cy="746" r="8" class="c0"/>
<circle cx="1672" cy="592" r="8" class="c0"/>
<circle cx="1768" cy="84" r="8" class="c0"/>
<circle cx="1650" cy="664" r="8" class="c0"/>
<circle cx="706" cy="610" r="8" class="c0"/>
<circle cx="1690" cy="764" r="8" class="c0"/>
<circle cx="912" cy="676" r="8" class="c0"/>
<circle cx="1828" cy="768" r="8" class="c0"/>
<circle cx="1796" cy="780" r="8" class="c0"/>
<circle cx="714" cy="708" r="8" class="c0"/>
<circle cx="870" cy="696" r="8" class="c0"/>
<circle cx="1846" cy="576" r="8" class="c0"/>
<circle cx="1824" cy="742" r="8" class="c0"/>
<circle cx="1794" cy="112" r="8" class="c0"/>
<circle cx="1708" cy="478" r="8" class="c0"/>
<circle cx="1772" cy="10" r="8" class="c0"/>
<circle cx="1168" cy="754" r="8" class="c0"/>
<circle cx="1614" cy="118" r="8" class="c0"/>
<circle cx="800" cy="970" r="8" class="c0"/>
<circle cx="1242" cy="742" r="8" class="c0"/>
<circle cx="868" cy="550" r="8" class="c0"/>
<circle cx="1300" cy="810" r="8" class="c0"/>
<circle cx="1706" cy="542" r="8" class="c0"/>
<circle cx="892" cy="800" r="8" class="c0"/>
<circle cx="1372" cy="746" r="8" class="c0"/>
<circle cx="828" cy="596" r="8" class="c0"/>
<circle cx="1432" cy="26" r="8" class="c0"/>
<circle cx="1766" cy="772" r="8" class="c0"/>
<circle cx="1116" cy="552" r="8" class="c0"/>
<circle cx="1780" cy="500" r="8" class="c0"/>
<circle cx="1268" cy="812" r="8" class="c0"/>
<circle cx="1734" cy="84" r="8" class="c0"/>
<circle cx="1686" cy="64" r="8" class="c0"/>
<circle cx="1178" cy="670" r="8" class="c0"/>
<circle cx="1754" cy="564" r="8" class="c0"/>
<circle cx="1884" cy="414" r="8" class="c0"/>
<circle cx="1846" cy="666" r="8" class="c0"/>
<circle cx="1890" cy="794" r="8" class="c0"/>
<circle cx="1222" cy="620" r="8" class="c0"/>
<circle cx="980" cy="560" r="8" class="c0"/>
<circle cx="924" cy="642" r="8" class="c0"/>
<circle cx="1856" cy="434" r="8" class="c0"/>
<circle cx="1828" cy="470" r="8" class="c0"/>
<circle cx="1398" cy="740" r="8" class="c0"/>
<circle cx="1746" cy="750" r="8" class="c0"/>
<circle cx="1792" cy="546" r="8" class="c0"/>
<circle cx="1882" cy="626" r="8" class="c0"/>
<circle cx="1152" cy="608" r="6" class="c0"/>
<circle cx="1754" cy="596" r="6" class="c0"/>
<circle cx="1778" cy="644" r="6" class="c0"/>
<circle cx="1362" cy="814" r="6" class="c0"/>
<circle cx="1090" cy="612" r="6" class="c0"/>
<circle cx="1886" cy="520" r="6" class="c0"/>
<circle cx="930" cy="514" r="6" class="c0"/>
<circle cx="1556" cy="6" r="6" class="c0"/>
<circle cx="1344" cy="768" r="6" class="c0"/>
<circle cx="1854" cy="408" r="6" class="c0"/>
<circle cx="1712" cy="738" r="6" class="c0"/>
<circle cx="1432" cy="618" r="6" class="c0"/>
<circle cx="1298" cy="692" r="6" class="c0"/>
<circle cx="890" cy="842" r="6" class="c0"/>
<circle cx="1768" cy="652" r="6" class="c0"/>
<circle cx="1488" cy="588" r="6" class="c0"/>
<circle cx="1656" cy="588" r="6" class="c0"/>
<circle cx="1584" cy="590" r="6" class="c0"/>
<circle cx="1076" cy="604" r="6" class="c0"/>
<circle cx="878" cy="512" r="6" class="c0"/>
<circle cx="1584" cy="708" r="6" class="c0"/>
<circle cx="1514" cy="12" r="6" class="c0"/>
<circle cx="1530" cy="620" r="6" class="c0"/>
<circle cx="1470" cy="14" r="6" class="c0"/>
<circle cx="1910" cy="468" r="6" class="c0"/>
<circle cx="1658" cy="40" r="6" class="c0"/>
<circle cx="1600" cy="68" r="6" class="c0"/>
<circle cx="912" cy="542" r="6" class="c0"/>
<circle cx="1682" cy="580" r="6" class="c0"/>
<circle cx="834" cy="532" r="6" class="c0"/>
<circle cx="1612" cy="724" r="6" class="c0"/>
<circle cx="1750" cy="610" r="6" class="c0"/>
<circle cx="1152" cy="572" r="6" class="c0"/>
<circle cx="1686" cy="656" r="6" class="c0"/>
<circle cx="1628" cy="560" r="6" class="c0"/>
<circle cx="1392" cy="806" r="6" class="c0"/>
<circle cx="1536" cy="702" r="6" class="c0"/>
<circle cx="806" cy="810" r="6" class="c0"/>
<circle cx="764" cy="590" r="6" class="c0"/>
<circle cx="1250" cy="596" r="6" class="c0"/>
<circle cx="1910" cy="106" r="6" class="c0"/>
<circle cx="1672" cy="624" r="6" class="c0"/>
<circle cx="1542" cy="752" r="6" class="c0"/>
<circle cx="1264" cy="734" r="6" class="c0"/>
<circle cx="1524" cy="584" r="6" class="c0"/>
<circle cx="1780" cy="414" r="6" class="c0"/>
<circle cx="1680" cy="614" r="6" class="c0"/>
<circle cx="1648" cy="596" r="6" class="c0"/>
<circle cx="1376" cy="660" r="6" class="c0"/>
<circle cx="1850" cy="386" r="6" class="c0"/>
<circle cx="1826" cy="646" r="6" class="c0"/>
<circle cx="1696" cy="6" r="6" class="c0"/>
<circle cx="1716" cy="52" r="6" class="c0"/>
<circle cx="1010" cy="530" r="6" class="c0"/>
<circle cx="780" cy="688" r="6" class="c0"/>
<circle cx="744" cy="708" r="6" class="c0"/>
<circle cx="1912" cy="696" r="6" class="c0"/>
<circle cx="1894" cy="512" r="6" class="c0"/>
<circle cx="1296" cy="762" r="6" class="c0"/>
<circle cx="1628" cy="130" r="6" class="c0"/>
<circle cx="964" cy="516" r="6" class="c0"/>
<circle cx="1194" cy="678" r="6" class="c0"/>
<circle cx="710" cy="690" r="6" class="c0"/>
<circle cx="1830" cy="432" r="6" class="c0"/>
<circle cx="840" cy="752" r="6" class="c0"/>
<circle cx="1802" cy="42" r="6" class="c0"/>
<circle cx="900" cy="972" r="6" class="c0"/>
<circle cx="1752" cy="390" r="6" class="c0"/>
<circle cx="868" cy="978" r="6" class="c0"/>
<circle cx="1036" cy="626" r="6" class="c0"/>
<circle cx="1284" cy="818" r="6" class="c0"/>
<circle cx="950" cy="586" r="6" class="c0"/>
<circle cx="1468" cy="790" r="6" class="c0"/>
<circle cx="1780" cy="620" r="6" class="c0"/>
<circle cx="1688" cy="442" r="6" class="c0"/>
<circle cx="744" cy="758" r="6" class="c0"/>
<circle cx="956" cy="488" r="6" class="c0"/>
<circle cx="1576" cy="760" r="6" class="c0"/>
<circle cx="1178" cy="590" r="6" class="c0"/>
<circle cx="898" cy="686" r="6" class="c0"/>
<circle cx="888" cy="648" r="6" class="c0"/>
<circle cx="1288" cy="652" r="6" class="c0"/>
<circle cx="816" cy="802" r="6" class="c0"/>
<circle cx="1482" cy="26" r="6" class="c0"/>
<circle cx="1682" cy="554" r="6" class="c0"/>
<circle cx="1416" cy="776" r="6" class="c0"/>
<circle cx="1770" cy="60" r="6" class="c0"/>
<circle cx="1072" cy="550" r="6" class="c0"/>
<circle cx="1912" cy="390" r="6" class="c0"/>
<circle cx="1666" cy="494" r="6" class="c0"/>
<circle cx="1496" cy="602" r="6" class="c0"/>
<circle cx="1258" cy="642" r="6" class="c0"/>
<circle cx="1524" cy="62" r="6" class="c0"/>
<circle cx="1156" cy="690" r="6" class="c0"/>
<circle cx="1864" cy="448" r="6" class="c0"/>
<circle cx="1846" cy="524" r="6" class="c0"/>
<circle cx="1770" cy="712" r="6" class="c0"/>
<circle cx="1848" cy="556" r="6" class="c0"/>
<circle cx="662" cy="736" r="6" class="c0"/>
<circle cx="1892" cy="460" r="6" class="c0"/>
<circle cx="1646" cy="522" r="6" class="c0"/>
<circle cx="1428" cy="664" r="6" class="c0"/>
<circle cx="1814" cy="518" r="6" class="c0"/>
<circle cx="1640" cy="640" r="6" class="c0"/>
<circle cx="1086" cy="532" r="6" class="c0"/>
<circle cx="1290" cy="612" r="6" class="c0"/>
<circle cx="886" cy="1000" r="6" class="c0"/>
<circle cx="1436" cy="802" r="6" class="c0"/>
<circle cx="1730" cy="702" r="6" class="c0"/>
<circle cx="910" cy="984" r="6" class="c0"/>
<circle cx="830" cy="782" r="6" class="c0"/>
<circle cx="1412" cy="6" r="6" class="c0"/>
<circle cx="1542" cy="652" r="6" class="c0"/>
<circle cx="922" cy="552" r="6" class="c0"/>
<circle cx="1770" cy="482" r="6" class="c0"/>
<circle cx="856" cy="704" r="6" class="c0"/>
<circle cx="1184" cy="570" r="6" class="c0"/>
<circle cx="1766" cy="428" r="6" class="c0"/>
<circle cx="1238" cy="796" r="6" class="c0"/>
<circle cx="1224" cy="798" r="6" class="c0"/>
<circle cx="1654" cy="776" r="6" class="c0"/>
<circle cx="1866" cy="418" r="6" class="c0"/>
<circle cx="746" cy="596" r="6" class="c0"/>
<circle cx="1636" cy="704" r="6" class="c0"/>
<circle cx="1812" cy="384" r="6" class="c0"/>
<circle cx="1870" cy="6" r="6" class="c0"/>
<circle cx="1610" cy="676" r="6" class="c0"/>
<circle cx="806" cy="948" r="6" class="c0"/>
<circle cx="1212" cy="578" r="6" class="c0"/>
<circle cx="1610" cy="28" r="6" class="c0"/>
<circle cx="996" cy="620" r="6" class="c0"/>
<circle cx="1912" cy="86" r="6" class="c0"/>
<circle cx="682" cy="774" r="6" class="c0"/>
<circle cx="1736" cy="604" r="6" class="c0"/>
<circle cx="1518" cy="572" r="6" class="c0"/>
<circle cx="730" cy="702" r="6" class="c0"/>
<circle cx="882" cy="944" r="6" class="c0"/>
<circle cx="1498" cy="616" r="6" class="c0"/>
<circle cx="1786" cy="76" r="6" class="c0"/>
<circle cx="1870" cy="728" r="6" class="c0"/>
<circle cx="818" cy="888" r="6" class="c0"/>
<circle cx="1674" cy="34" r="6" class="c0"/>
<circle cx="1446" cy="712" r="6" class="c0"/>
<circle cx="872" cy="786" r="6" class="c0"/>
<circle cx="748" cy="614" r="6" class="c0"/>
<circle cx="824" cy="814" r="6" class="c0"/>
<circle cx="1722" cy="724" r="6" class="c0"/>
<circle cx="1410" cy="666" r="6" class="c0"/>
<circle cx="1350" cy="672" r="6" class="c0"/>
<circle cx="812" cy="624" r="6" class="c0"/>
<circle cx="1660" cy="80" r="6" class="c0"/>
<circle cx="1840" cy="100" r="6" class="c0"/>
<circle cx="1764" cy="686" r="6" class="c0"/>
<circle cx="884" cy="688" r="6" class="c0"/>
<circle cx="1318" cy="818" r="6" class="c0"/>
<circle cx="1796" cy="608" r="6" class="c0"/>
<circle cx="1820" cy="90" r="6" class="c0"/>
<circle cx="1090" cy="692" r="6" class="c0"/>
<circle cx="1866" cy="552" r="6" class="c0"/>
<circle cx="1736" cy="448" r="6" class="c0"/>
<circle cx="1858" cy="656" r="6" class="c0"/>
<circle cx="1724" cy="788" r="6" class="c0"/>
<circle cx="832" cy="932" r="6" class="c0"/>
<circle cx="738" cy="784" r="6" class="c0"/>
<circle cx="1840" cy="622" r="6" class="c0"/>
<circle cx="1038" cy="564" r="6" class="c0"/>
<circle cx="972" cy="526" r="6" class="c0"/>
<circle cx="726" cy="586" r="6" class="c0"/>
<circle cx="754" cy="680" r="6" class="c0"/>
<circle cx="1718" cy="442" r="6" class="c0"/>
<circle cx="1832" cy="8" r="6" class="c0"/>
<circle cx="1438" cy="606" r="6" class="c0"/>
<circle cx="1380" cy="782" r="6" class="c0"/>
<circle cx="1228" cy="586" r="6" class="c0"/>
<circle cx="1706" cy="64" r="6" class="c0"/>
<circle cx="1666" cy="526" r="6" class="c0"/>
<circle cx="684" cy="712" r="6" class="c0"/>
<circle cx="1116" cy="594" r="6" class="c0"/>
<circle cx="1390" cy="628" r="6" class="c0"/>
<circle cx="932" cy="494" r="6" class="c0"/>
<circle cx="936" cy="592" r="6" class="c0"/>
<circle cx="1484" cy="40" r="6" class="c0"/>
<circle cx="864" cy="906" r="6" class="c0"/>
<circle cx="1550" cy="660" r="6" class="c0"/>
<circle cx="1912" cy="410" r="6" class="c0"/>
<circle cx="1518" cy="626" r="6" class="c0"/>
<circle cx="1664" cy="24" r="6" class="c0"/>
<circle cx="1406" cy="808" r="6" class="c0"/>
<circle cx="1024" cy="526" r="6" class="c0"/>
<circle cx="776" cy="596" r="6" class="c0"/>
<circle cx="1206" cy="672" r="6" class="c0"/>
<circle cx="1488" cy="788" r="6" class="c0"/>
<circle cx="1876" cy="100" r="6" class="c0"/>
<circle cx="798" cy="762" r="6" class="c0"/>
<circle cx="1320" cy="664" r="6" class="c0"/>
<circle cx="1598" cy="712" r="6" class="c0"/>
<circle cx="1188" cy="620" r="6" class="c0"/>
<circle cx="1040" cy="654" r="6" class="c0"/>
<circle cx="968" cy="550" r="6" class="c0"/>
<circle cx="1330" cy="652" r="6" class="c0"/>
<circle cx="1488" cy="732" r="6" class="c0"/>
<circle cx="1814" cy="776" r="6" class="c0"/>
<circle cx="1442" cy="36" r="6" class="c0"/>
<circle cx="812" cy="588" r="6" class="c0"/>
<circle cx="1662" cy="736" r="6" class="c0"/>
<circle cx="1310" cy="682" r="6" class="c0"/>
<circle cx="1578" cy="668" r="6" class="c0"/>
<circle cx="1518" cy="680" r="6" class="c0"/>
<circle cx="1630" cy="70" r="6" class="c0"/>
<circle cx="1820" cy="610" r="6" class="c0"/>
<circle cx="1658" cy="110" r="6" class="c0"/>
<circle cx="1828" cy="528" r="6" class="c0"/>
<circle cx="1464" cy="656" r="6" class="c0"/>
<circle cx="1848" cy="6" r="6" class="c0"/>
<circle cx="1574" cy="636" r="6" class="c0"/>
<circle cx="1556" cy="130" r="6" class="c0"/>
<circle cx="1774" cy="386" r="6" class="c0"/>
<circle cx="1836" cy="816" r="6" class="c0"/>
<circle cx="1724" cy="594" r="6" class="c0"/>
<circle cx="1638" cy="8" r="6" class="c0"/>
<circle cx="1850" cy="772" r="6" class="c0"/>
<circle cx="842" cy="524" r="6" class="c0"/>
<circle cx="1184" cy="700" r="6" class="c0"/>
<circle cx="898" cy="578" r="6" class="c0"/>
<circle cx="1696" cy="532" r="6" class="c0"/>
<circle cx="1826" cy="596" r="6" class="c0"/>
<circle cx="1286" cy="770" r="6" class="c0"/>
<circle cx="1308" cy="732" r="6" class="c0"/>
<circle cx="1546" cy="38" r="6" class="c0"/>
<circle cx="1912" cy="680" r="6" class="c0"/>
<circle cx="1860" cy="762" r="6" class="c0"/>
<circle cx="922" cy="664" r="6" class="c0"/>
<circle cx="990" cy="522" r="6" class="c0"/>
<circle cx="1696" cy="746" r="6" class="c0"/>
<circle cx="1548" cy="614" r="6" class="c0"/>
<circle cx="1584" cy="122" r="6" class="c0"/>
<circle cx="1652" cy="98" r="6" class="c0"/>
<circle cx="766" cy="808" r="6" class="c0"/>
<circle cx="1584" cy="748" r="6" class="c0"/>
<circle cx="1324" cy="720" r="6" class="c0"/>
<circle cx="1884" cy="60" r="6" class="c0"/>
<circle cx="806" cy="690" r="6" class="c0"/>
<circle cx="1898" cy="724" r="6" class="c0"/>
<circle cx="1912" cy="650" r="6" class="c0"/>
<circle cx="1618" cy="606" r="6" class="c0"/>
<circle cx="822" cy="790" r="6" class="c0"/>
<circle cx="808" cy="998" r="6" class="c0"/>
<circle cx="970" cy="610" r="6" class="c0"/>
<circle cx="976" cy="542" r="6" class="c0"/>
<circle cx="882" cy="634" r="6" class="c0"/>
<circle cx="1190" cy="600" r="6" class="c0"/>
<circle cx="1162" cy="562" r="6" class="c0"/>
<circle cx="1456" cy="664" r="6" class="c0"/>
<circle cx="830" cy="976" r="6" class="c0"/>
<circle cx="1684" cy="794" r="6" class="c0"/>
<circle cx="1886" cy="644" r="6" class="c0"/>
<circle cx="1794" cy="688" r="6" class="c0"/>
<circle cx="1614" cy="510" r="6" class="c0"/>
<circle cx="1674" cy="502" r="6" class="c0"/>
<circle cx="1796" cy="450" r="6" class="c0"/>
<circle cx="1458" cy="50" r="6" class="c0"/>
<circle cx="1398" cy="690" r="6" class="c0"/>
<circle cx="856" cy="984" r="6" class="c0"/>
<circle cx="1506" cy="114" r="6" class="c0"/>
<circle cx="1554" cy="46" r="6" class="c0"/>
<circle cx="1502" cy="762" r="6" class="c0"/>
<circle cx="1220" cy="736" r="6" class="c0"/>
<circle cx="722" cy="758" r="6" class="c0"/>
<circle cx="1778" cy="116" r="6" class="c0"/>
<circle cx="1762" cy="588" r="6" class="c0"/>
<circle cx="1886" cy="388" r="6" class="c0"/>
<circle cx="1558" cy="562" r="6" class="c0"/>
<circle cx="1884" cy="754" r="6" class="c0"/>
<circle cx="1738" cy="392" r="6" class="c0"/>
<circle cx="1574" cy="698" r="6" class="c0"/>
<circle cx="1690" cy="98" r="6" class="c0"/>
<circle cx="1912" cy="122" r="6" class="c0"/>
<circle cx="902" cy="994" r="6" class="c0"/>
<circle cx="882" cy="876" r="6" class="c0"/>
<circle cx="1490" cy="88" r="6" class="c0"/>
<circle cx="850" cy="1000" r="6" class="c0"/>
<circle cx="1422" cy="736" r="6" class="c0"/>
<circle cx="1642" cy="608" r="6" class="c0"/>
<circle cx="1694" cy="646" r="6" class="c0"/>
<circle cx="1856" cy="682" r="6" class="c0"/>
<circle cx="1066" cy="642" r="6" class="c0"/>
<circle cx="1774" cy="46" r="6" class="c0"/>
<circle cx="1896" cy="774" r="6" class="c0"/>
<circle cx="1850" cy="66" r="6" class="c0"/>
<circle cx="878" cy="812" r="6" class="c0"/>
<circle cx="1680" cy="642" r="6" class="c0"/>
<circle cx="1822" cy="448" r="6" class="c0"/>
<circle cx="790" cy="608" r="6" class="c0"/>
<circle cx="1374" cy="710" r="6" class="c0"/>
<circle cx="812" cy="868" r="6" class="c0"/>
<circle cx="1160" cy="618" r="6" class="c0"/>
<circle cx="1008" cy="630" r="6" class="c0"/>
<circle cx="1348" cy="818" r="6" class="c0"/>
<circle cx="1474" cy="590" r="6" class="c0"/>
<circle cx="1266" cy="650" r="6" class="c0"/>
<circle cx="670" cy="700" r="6" class="c0"/>
<circle cx="1250" cy="728" r="6" class="c0"/>
<circle cx="1242" cy="710" r="6" class="c0"/>
<circle cx="1912" cy="514" r="6" class="c0"/>
<circle cx="1796" cy="752" r="6" class="c0"/>
<circle cx="756" cy="566" r="6" class="c0"/>
<circle cx="1810" cy="114" r="6" class="c0"/>
<circle cx="1418" cy="18" r="6" class="c0"/>
<circle cx="1576" cy="600" r="6" class="c0"/>
<circle cx="1848" cy="470" r="6" class="c0"/>
<circle cx="1558" cy="668" r="6" class="c0"/>
<circle cx="1778" cy="68" r="6" class="c0"/>
<circle cx="1020" cy="504" r="6" class="c0"/>
<circle cx="1530" cy="6" r="6" class="c0"/>
<circle cx="1106" cy="564" r="6" class="c0"/>
<circle cx="1652" cy="492" r="6" class="c0"/>
<circle cx="1912" cy="484" r="6" class="c0"/>
<circle cx="1306" cy="792" r="6" class="c0"/>
<circle cx="880" cy="910" r="6" class="c0"/>
<circle cx="804" cy="894" r="6" class="c0"/>
<circle cx="1446" cy="6" r="6" class="c0"/>
<circle cx="1000" cy="600" r="6" class="c0"/>
<circle cx="1690" cy="30" r="6" class="c0"/>
<circle cx="1046" cy="530" r="6" class="c0"/>
<circle cx="1836" cy="654" r="6" class="c0"/>
<circle cx="1864" cy="820" r="6" class="c0"/>
<circle cx="1510" cy="750" r="6" class="c0"/>
<circle cx="858" cy="778" r="6" class="c0"/>
</svg>
