<?xml version="1.0" encoding="utf-8"?>
<svg xmlns="http://www.w3.org/2000/svg"
     xmlns:xlink="http://www.w3.org/1999/xlink" width="1920" height="1440" >

            <defs>
            <style type="text/css"><![CDATA[
circle {stroke: none;}
.c0 {fill: #FFFFFF;}
]]></style>
            </defs>
<rect x="0" y="0" width="1920" height="1440" fill="black"/>
<circle cx="1890" cy="400" r="12" class="c0"/>
<circle cx="1672" cy="720" r="12" class="c0"/>
<circle cx="1232" cy="634" r="12" class="c0"/>
<circle cx="1900" cy="542" r="12" class="c0"/>
<circle cx="1406" cy="676" r="12" class="c0"/>
<circle cx="1734" cy="516" r="12" class="c0"/>
<circle cx="898" cy="892" r="12" class="c0"/>
<circle cx="1280" cy="644" r="12" class="c0"/>
<circle cx="1866" cy="578" r="12" class="c0"/>
<circle cx="1350" cy="758" r="12" class="c0"/>
<circle cx="1716" cy="582" r="12" class="c0"/>
<circle cx="1046" cy="504" r="12" class="c0"/>
<circle cx="794" cy="670" r="12" class="c0"/>
<circle cx="1834" cy="480" r="12" class="c0"/>
<circle cx="1826" cy="600" r="12" class="c0"/>
<circle cx="1526" cy="696" r="12" class="c0"/>
<circle cx="1214" cy="768" r="12" class="c0"/>
<circle cx="1434" cy="794" r="12" class="c0"/>
<circle cx="1156" cy="592" r="12" class="c0"/>
<circle cx="1204" cy="606" r="12" class="c0"/>
<circle cx="1856" cy="638" r="12" class="c0"/>
<circle cx="1850" cy="706" r="12" class="c0"/>
<circle cx="1300" cy="694" r="12" class="c0"/>
<circle cx="958" cy="636" r="12" class="c0"/>
<circle cx="1234" cy="690" r="12" class="c0"/>
<circle cx="1612" cy="22" r="12" class="c0"/>
<circle cx="1790" cy="790" r="12" class="c0"/>
<circle cx="850" cy="926" r="12" class="c0"/>
<circle cx="1748" cy="670" r="12" class="c0"/>
<circle cx="892" cy="578" r="12" class="c0"/>
<circle cx="1788" cy="670" r="12" class="c0"/>
<circle cx="956" cy="594" r="12" class="c0"/>
<circle cx="814" cy="576" r="12" class="c0"/>
<circle cx="1794" cy="584" r="12" class="c0"/>
<circle cx="1854" cy="374" r="12" class="c0"/>
<circle cx="1774" cy="470" r="12" class="c0"/>
<circle cx="1770" cy="696" r="12" class="c0"/>
<circle cx="1270" cy="714" r="12" class="c0"/>
<circle cx="1388" cy="758" r="12" class="c0"/>
<circle cx="1692" cy="64" r="12" class="c0"/>
<circle cx="1658" cy="670" r="12" class="c0"/>
<circle cx="1672" cy="536" r="12" class="c0"/>
<circle cx="1582" cy="604" r="12" class="c0"/>
<circle cx="1876" cy="716" r="12" class="c0"/>
<circle cx="1582" cy="38" r="12" class="c0"/>
<circle cx="1896" cy="42" r="12" class="c0"/>
<circle cx="1576" cy="764" r="12" class="c0"/>
<circle cx="1724" cy="492" r="12" class="c0"/>
<circle cx="1780" cy="740" r="12" class="c0"/>
<circle cx="1894" cy="14" r="12" class="c0"/>
<circle cx="1360" cy="816" r="12" class="c0"/>
<circle cx="808" cy="1014" r="12" class="c0"/>
<circle cx="1806" cy="556" r="12" class="c0"/>
<circle cx="1316" cy="676" r="12" class="c0"/>
<circle cx="1616" cy="770" r="12" class="c0"/>
<circle cx="1070" cy="630" r="12" class="c0"/>
<circle cx="1888" cy="656" r="12" class="c0"/>
<circle cx="1828" cy="452" r="12" class="c0"/>
<circle cx="936" cy="608" r="12" class="c0"/>
<circle cx="1230" cy="660" r="12" class="c0"/>
<circle cx="1840" cy="550" r="12" class="c0"/>
<circle cx="940" cy="656" r="12" class="c0"/>
<circle cx="1030" cy="590" r="12" class="c0"/>
<circle cx="1434" cy="738" r="12" class="c0"/>
<circle cx="1142" cy="652" r="12" class="c0"/>
<circle cx="1448" cy="636" r="10" class="c0"/>
<circle cx="1594" cy="726" r="10" class="c0"/>
<circle cx="936" cy="698" r="10" class="c0"/>
<circle cx="1070" cy="546" r="10" class="c0"/>
<circle cx="1904" cy="470" r="10" class="c0"/>
<circle cx="712" cy="772" r="10" class="c0"/>
<circle cx="830" cy="704" r="10" class="c0"/>
<circle cx="1488" cy="622" r="10" class="c0"/>
<circle cx="1196" cy="694" r="10" class="c0"/>
<circle cx="1364" cy="684" r="10" class="c0"/>
<circle cx="1260" cy="594" r="10" class="c0"/>
<circle cx="1752" cy="604" r="10" class="c0"/>
<circle cx="818" cy="990" r="10" class="c0"/>
<circle cx="1714" cy="728" r="10" class="c0"/>
<circle cx="820" cy="784" r="10" class="c0"/>
<circle cx="764" cy="600" r="10" class="c0"/>
<circle cx="1456" cy="762" r="10" class="c0"/>
<circle cx="1688" cy="636" r="10" class="c0"/>
<circle cx="736" cy="718" r="10" class="c0"/>
<circle cx="758" cy="760" r="10" class="c0"/>
<circle cx="1668" cy="592" r="10" class="c0"/>
<circle cx="1532" cy="756" r="10" class="c0"/>
<circle cx="1642" cy="698" r="10" class="c0"/>
<circle cx="1336" cy="774" r="10" class="c0"/>
<circle cx="836" cy="548" r="10" class="c0"/>
<circle cx="1450" cy="672" r="10" class="c0"/>
<circle cx="1278" cy="680" r="10" class="c0"/>
<circle cx="718" cy="662" r="10" class="c0"/>
<circle cx="846" cy="878" r="10" class="c0"/>
<circle cx="1720" cy="758" r="10" class="c0"/>
<circle cx="1466" cy="818" r="10" class="c0"/>
<circle cx="1694" cy="518" r="10" class="c0"/>
<circle cx="1614" cy="740" r="10" class="c0"/>
<circle cx="1420" cy="776" r="10" class="c0"/>
<circle cx="1420" cy="694" r="10" class="c0"/>
<circle cx="840" cy="952" r="10" class="c0"/>
<circle cx="738" cy="622" r="10" class="c0"/>
<circle cx="1276" cy="740" r="10" class="c0"/>
<circle cx="898" cy="738" r="10" class="c0"/>
<circle cx="1274" cy="764" r="10" class="c0"/>
<circle cx="866" cy="998" r="10" class="c0"/>
<circle cx="1754" cy="754" r="10" class="c0"/>
<circle cx="1566" cy="586" r="10" class="c0"/>
<circle cx="1644" cy="628" r="10" class="c0"/>
<circle cx="1306" cy="774" r="10" class="c0"/>
<circle cx="944" cy="550" r="10" class="c0"/>
<circle cx="1110" cy="570" r="10" class="c0"/>
<circle cx="1722" cy="672" r="10" class="c0"/>
<circle cx="1602" cy="76" r="10" class="c0"/>
<circle cx="1760" cy="644" r="10" class="c0"/>
<circle cx="1668" cy="566" r="10" class="c0"/>
<circle cx="1772" cy="770" r="10" class="c0"/>
<circle cx="932" cy="504" r="10" class="c0"/>
<circle cx="790" cy="590" r="10" class="c0"/>
<circle cx="1522" cy="650" r="10" class="c0"/>
<circle cx="1772" cy="628" r="10" class="c0"/>
<circle cx="1564" cy="792" r="10" class="c0"/>
<circle cx="784" cy="798" r="10" class="c0"/>
<circle cx="1536" cy="32" r="10" class="c0"/>
<circle cx="1634" cy="32" r="10" class="c0"/>
<circle cx="1488" cy="788" r="10" class="c0"/>
<circle cx="1546" cy="644" r="10" class="c0"/>
<circle cx="1478" cy="724" r="10" class="c0"/>
<circle cx="1654" cy="516" r="10" class="c0"/>
<circle cx="1810" cy="414" r="10" class="c0"/>
<circle cx="1178" cy="720" r="10" class="c0"/>
<circle cx="1608" cy="630" r="10" class="c0"/>
<circle cx="1280" cy="798" r="10" class="c0"/>
<circle cx="1512" cy="736" r="10" class="c0"/>
<circle cx="910" cy="984" r="10" class="c0"/>
<circle cx="852" cy="600" r="10" class="c0"/>
<circle cx="1902" cy="374" r="10" class="c0"/>
<circle cx="1682" cy="18" r="10" class="c0"/>
<circle cx="836" cy="634" r="10" class="c0"/>
<circle cx="990" cy="546" r="10" class="c0"/>
<circle cx="720" cy="730" r="10" class="c0"/>
<circle cx="868" cy="540" r="10" class="c0"/>
<circle cx="876" cy="806" r="10" class="c0"/>
<circle cx="1726" cy="18" r="10" class="c0"/>
<circle cx="1468" cy="698" r="10" class="c0"/>
<circle cx="1192" cy="586" r="10" class="c0"/>
<circle cx="1842" cy="400" r="10" class="c0"/>
<circle cx="1860" cy="410" r="10" class="c0"/>
<circle cx="872" cy="738" r="10" class="c0"/>
<circle cx="1580" cy="702" r="10" class="c0"/>
<circle cx="876" cy="832" r="10" class="c0"/>
<circle cx="902" cy="778" r="10" class="c0"/>
<circle cx="1510" cy="672" r="10" class="c0"/>
<circle cx="1346" cy="654" r="10" class="c0"/>
<circle cx="1312" cy="724" r="10" class="c0"/>
<circle cx="1492" cy="812" r="10" class="c0"/>
<circle cx="1706" cy="686" r="10" class="c0"/>
<circle cx="1256" cy="678" r="10" class="c0"/>
<circle cx="822" cy="818" r="10" class="c0"/>
<circle cx="1580" cy="640" r="10" class="c0"/>
<circle cx="822" cy="670" r="10" class="c0"/>
<circle cx="1036" cy="534" r="10" class="c0"/>
<circle cx="1008" cy="564" r="10" class="c0"/>
<circle cx="1234" cy="736" r="10" class="c0"/>
<circle cx="970" cy="564" r="10" class="c0"/>
<circle cx="1310" cy="798" r="10" class="c0"/>
<circle cx="988" cy="588" r="10" class="c0"/>
<circle cx="1002" cy="530" r="10" class="c0"/>
<circle cx="1556" cy="22" r="10" class="c0"/>
<circle cx="1872" cy="616" r="10" class="c0"/>
<circle cx="1688" cy="576" r="10" class="c0"/>
<circle cx="1668" cy="72" r="10" class="c0"/>
<circle cx="1338" cy="712" r="10" class="c0"/>
<circle cx="1710" cy="546" r="10" class="c0"/>
<circle cx="772" cy="682" r="10" class="c0"/>
<circle cx="1524" cy="802" r="10" class="c0"/>
<circle cx="1312" cy="828" r="10" class="c0"/>
<circle cx="848" cy="722" r="10" class="c0"/>
<circle cx="1520" cy="20" r="10" class="c0"/>
<circle cx="1868" cy="478" r="10" class="c0"/>
<circle cx="1802" cy="390" r="10" class="c0"/>
<circle cx="1648" cy="600" r="10" class="c0"/>
<circle cx="1766" cy="520" r="10" class="c0"/>
<circle cx="1128" cy="556" r="10" class="c0"/>
<circle cx="1158" cy="700" r="10" class="c0"/>
<circle cx="1780" cy="402" r="10" class="c0"/>
<circle cx="1560" cy="688" r="10" class="c0"/>
<circle cx="772" cy="746" r="10" class="c0"/>
<circle cx="860" cy="628" r="10" class="c0"/>
<circle cx="1610" cy="682" r="10" class="c0"/>
<circle cx="1176" cy="610" r="10" class="c0"/>
<circle cx="1728" cy="558" r="10" class="c0"/>
<circle cx="1564" cy="716" r="10" class="c0"/>
<circle cx="1834" cy="740" r="10" class="c0"/>
<circle cx="1750" cy="580" r="10" class="c0"/>
<circle cx="956" cy="514" r="10" class="c0"/>
<circle cx="1522" cy="626" r="10" class="c0"/>
<circle cx="1102" cy="652" r="10" class="c0"/>
<circle cx="876" cy="608" r="10" class="c0"/>
<circle cx="1868" cy="518" r="10" class="c0"/>
<circle cx="700" cy="690" r="10" class="c0"/>
<circle cx="894" cy="860" r="10" class="c0"/>
<circle cx="1058" cy="532" r="10" class="c0"/>
<circle cx="1842" cy="660" r="10" class="c0"/>
<circle cx="1392" cy="702" r="10" class="c0"/>
<circle cx="1812" cy="24" r="10" class="c0"/>
<circle cx="1886" cy="560" r="10" class="c0"/>
<circle cx="988" cy="634" r="10" class="c0"/>
<circle cx="1064" cy="598" r="10" class="c0"/>
<circle cx="1830" cy="378" r="10" class="c0"/>
<circle cx="830" cy="862" r="10" class="c0"/>
<circle cx="896" cy="816" r="10" class="c0"/>
<circle cx="1642" cy="772" r="10" class="c0"/>
<circle cx="1774" cy="58" r="10" class="c0"/>
<circle cx="1748" cy="732" r="10" class="c0"/>
<circle cx="1814" cy="638" r="10" class="c0"/>
<circle cx="1522" cy="774" r="10" class="c0"/>
<circle cx="1684" cy="684" r="10" class="c0"/>
<circle cx="860" cy="904" r="10" class="c0"/>
<circle cx="1736" cy="640" r="10" class="c0"/>
<circle cx="1090" cy="518" r="10" class="c0"/>
<circle cx="708" cy="718" r="10" class="c0"/>
<circle cx="1392" cy="802" r="10" class="c0"/>
<circle cx="1484" cy="648" r="10" class="c0"/>
<circle cx="1400" cy="734" r="10" class="c0"/>
<circle cx="1092" cy="560" r="10" class="c0"/>
<circle cx="1866" cy="16" r="10" class="c0"/>
<circle cx="1682" cy="762" r="10" class="c0"/>
<circle cx="914" cy="592" r="10" class="c0"/>
<circle cx="1668" cy="748" r="10" class="c0"/>
<circle cx="1708" cy="34" r="10" class="c0"/>
<circle cx="1110" cy="526" r="8" class="c0"/>
<circle cx="1778" cy="554" r="8" class="c0"/>
<circle cx="1910" cy="596" r="8" class="c0"/>
<circle cx="746" cy="736" r="8" class="c0"/>
<circle cx="686" cy="756" r="8" class="c0"/>
<circle cx="1620" cy="604" r="8" class="c0"/>
<circle cx="1824" cy="572" r="8" class="c0"/>
<circle cx="778" cy="718" r="8" class="c0"/>
<circle cx="740" cy="690" r="8" class="c0"/>
<circle cx="1732" cy="58" r="8" class="c0"/>
<circle cx="1164" cy="734" r="8" class="c0"/>
<circle cx="1862" cy="778" r="8" class="c0"/>
<circle cx="1318" cy="760" r="8" class="c0"/>
<circle cx="1006" cy="612" r="8" class="c0"/>
<circle cx="1794" cy="764" r="8" class="c0"/>
<circle cx="1628" cy="664" r="8" class="c0"/>
<circle cx="882" cy="946" r="8" class="c0"/>
<circle cx="1898" cy="626" r="8" class="c0"/>
<circle cx="926" cy="720" r="8" class="c0"/>
<circle cx="1890" cy="808" r="8" class="c0"/>
<circle cx="914" cy="802" r="8" class="c0"/>
<circle cx="892" cy="966" r="8" class="c0"/>
<circle cx="1794" cy="14" r="8" class="c0"/>
<circle cx="1044" cy="554" r="8" class="c0"/>
<circle cx="1552" cy="780" r="8" class="c0"/>
<circle cx="1438" cy="702" r="8" class="c0"/>
<circle cx="916" cy="618" r="8" class="c0"/>
<circle cx="822" cy="914" r="8" class="c0"/>
<circle cx="1624" cy="554" r="8" class="c0"/>
<circle cx="1634" cy="74" r="8" class="c0"/>
<circle cx="1608" cy="594" r="8" class="c0"/>
<circle cx="916" cy="690" r="8" class="c0"/>
<circle cx="1504" cy="604" r="8" class="c0"/>
<circle cx="1848" cy="52" r="8" class="c0"/>
<circle cx="1864" cy="668" r="8" class="c0"/>
<circle cx="760" cy="710" r="8" class="c0"/>
<circle cx="1122" cy="622" r="8" class="c0"/>
<circle cx="838" cy="1006" r="8" class="c0"/>
<circle cx="910" cy="510" r="8" class="c0"/>
<circle cx="1486" cy="758" r="8" class="c0"/>
<circle cx="1822" cy="40" r="8" class="c0"/>
<circle cx="1834" cy="510" r="8" class="c0"/>
<circle cx="1338" cy="688" r="8" class="c0"/>
<circle cx="1348" cy="626" r="8" class="c0"/>
<circle cx="1146" cy="676" r="8" class="c0"/>
<circle cx="1236" cy="770" r="8" class="c0"/>
<circle cx="1832" cy="716" r="8" class="c0"/>
<circle cx="1246" cy="758" r="8" class="c0"/>
<circle cx="1006" cy="488" r="8" class="c0"/>
<circle cx="1900" cy="686" r="8" class="c0"/>
<circle cx="1782" cy="36" r="8" class="c0"/>
<circle cx="1200" cy="744" r="8" class="c0"/>
<circle cx="910" cy="708" r="8" class="c0"/>
<circle cx="1884" cy="744" r="8" class="c0"/>
<circle cx="1812" cy="468" r="8" class="c0"/>
<circle cx="906" cy="530" r="8" class="c0"/>
<circle cx="1200" cy="668" r="8" class="c0"/>
<circle cx="930" cy="786" r="8" class="c0"/>
<circle cx="1310" cy="636" r="8" class="c0"/>
<circle cx="1908" cy="562" r="8" class="c0"/>
<circle cx="1186" cy="566" r="8" class="c0"/>
<circle cx="886" cy="532" r="8" class="c0"/>
<circle cx="1748" cy="38" r="8" class="c0"/>
<circle cx="1806" cy="448" r="8" class="c0"/>
<circle cx="1714" cy="626" r="8" class="c0"/>
<circle cx="1182" cy="746" r="8" class="c0"/>
<circle cx="1694" cy="746" r="8" class="c0"/>
<circle cx="1890" cy="786" r="8" class="c0"/>
<circle cx="1648" cy="570" r="8" class="c0"/>
<circle cx="1638" cy="54" r="8" class="c0"/>
<circle cx="1826" cy="764" r="8" class="c0"/>
<circle cx="912" cy="842" r="8" class="c0"/>
<circle cx="1798" cy="508" r="8" class="c0"/>
<circle cx="978" cy="510" r="8" class="c0"/>
<circle cx="1790" cy="612" r="8" class="c0"/>
<circle cx="1660" cy="22" r="8" class="c0"/>
<circle cx="918" cy="1024" r="8" class="c0"/>
<circle cx="1662" cy="48" r="8" class="c0"/>
<circle cx="1856" cy="70" r="8" class="c0"/>
<circle cx="1394" cy="658" r="8" class="c0"/>
<circle cx="1584" cy="16" r="8" class="c0"/>
<circle cx="1712" cy="708" r="8" class="c0"/>
<circle cx="1340" cy="800" r="8" class="c0"/>
<circle cx="1292" cy="620" r="8" class="c0"/>
<circle cx="1900" cy="608" r="8" class="c0"/>
<circle cx="1570" cy="656" r="8" class="c0"/>
<circle cx="1690" cy="598" r="8" class="c0"/>
<circle cx="1620" cy="48" r="8" class="c0"/>
<circle cx="1334" cy="666" r="8" class="c0"/>
<circle cx="748" cy="638" r="8" class="c0"/>
<circle cx="1744" cy="706" r="8" class="c0"/>
<circle cx="1900" cy="766" r="8" class="c0"/>
<circle cx="896" cy="520" r="8" class="c0"/>
<circle cx="1172" cy="660" r="8" class="c0"/>
<circle cx="1368" cy="648" r="8" class="c0"/>
<circle cx="1886" cy="438" r="8" class="c0"/>
<circle cx="1758" cy="502" r="8" class="c0"/>
<circle cx="1422" cy="816" r="8" class="c0"/>
<circle cx="1800" cy="626" r="8" class="c0"/>
<circle cx="1746" cy="808" r="8" class="c0"/>
<circle cx="1374" cy="710" r="8" class="c0"/>
<circle cx="788" cy="694" r="8" class="c0"/>
<circle cx="1824" cy="686" r="8" class="c0"/>
<circle cx="1874" cy="50" r="8" class="c0"/>
<circle cx="1748" cy="74" r="8" class="c0"/>
<circle cx="1848" cy="762" r="8" class="c0"/>
<circle cx="1844" cy="582" r="8" class="c0"/>
<circle cx="894" cy="548" r="8" class="c0"/>
<circle cx="1358" cy="732" r="8" class="c0"/>
<circle cx="1814" cy="746" r="8" class="c0"/>
<circle cx="722" cy="688" r="8" class="c0"/>
<circle cx="1550" cy="748" r="8" class="c0"/>
<circle cx="1612" cy="710" r="8" class="c0"/>
<circle cx="1904" cy="712" r="8" class="c0"/>
<circle cx="1898" cy="420" r="8" class="c0"/>
<circle cx="1104" cy="546" r="8" class="c0"/>
<circle cx="1256" cy="644" r="8" class="c0"/>
<circle cx="824" cy="934" r="8" class="c0"/>
<circle cx="982" cy="492" r="8" class="c0"/>
<circle cx="1770" cy="802" r="8" class="c0"/>
<circle cx="1578" cy="676" r="8" class="c0"/>
<circle cx="1810" cy="664" r="8" class="c0"/>
<circle cx="1158" cy="550" r="8" class="c0"/>
<circle cx="1606" cy="652" r="8" class="c0"/>
<circle cx="1190" cy="650" r="8" class="c0"/>
<circle cx="1754" cy="554" r="8" class="c0"/>
<circle cx="1398" cy="836" r="8" class="c0"/>
<circle cx="680" cy="710" r="8" class="c0"/>
<circle cx="1794" cy="726" r="8" class="c0"/>
<circle cx="1136" cy="698" r="8" class="c0"/>
<circle cx="754" cy="658" r="8" class="c0"/>
<circle cx="1806" cy="684" r="8" class="c0"/>
<circle cx="1052" cy="574" r="8" class="c0"/>
<circle cx="1802" cy="486" r="8" class="c0"/>
<circle cx="1732" cy="616" r="8" class="c0"/>
<circle cx="1332" cy="748" r="8" class="c0"/>
<circle cx="1854" cy="678" r="8" class="c0"/>
<circle cx="858" cy="568" r="8" class="c0"/>
<circle cx="1222" cy="706" r="8" class="c0"/>
<circle cx="1740" cy="774" r="8" class="c0"/>
<circle cx="1140" cy="604" r="8" class="c0"/>
<circle cx="1416" cy="752" r="8" class="c0"/>
<circle cx="1664" cy="614" r="8" class="c0"/>
<circle cx="1208" cy="644" r="8" class="c0"/>
<circle cx="864" cy="864" r="8" class="c0"/>
<circle cx="856" cy="820" r="8" class="c0"/>
<circle cx="1790" cy="636" r="8" class="c0"/>
<circle cx="1602" cy="574" r="8" class="c0"/>
<circle cx="1570" cy="76" r="8" class="c0"/>
<circle cx="938" cy="530" r="8" class="c0"/>
<circle cx="1890" cy="524" r="8" class="c0"/>
<circle cx="1836" cy="776" r="8" class="c0"/>
<circle cx="1350" cy="790" r="8" class="c0"/>
<circle cx="898" cy="934" r="8" class="c0"/>
<circle cx="1330" cy="636" r="8" class="c0"/>
<circle cx="1496" cy="696" r="8" class="c0"/>
<circle cx="1816" cy="702" r="8" class="c0"/>
<circle cx="1370" cy="774" r="8" class="c0"/>
<circle cx="1648" cy="750" r="8" class="c0"/>
<circle cx="1864" cy="458" r="8" class="c0"/>
<circle cx="1496" cy="660" r="8" class="c0"/>
<circle cx="808" cy="642" r="8" class="c0"/>
<circle cx="884" cy="988" r="8" class="c0"/>
<circle cx="1288" cy="602" r="8" class="c0"/>
<circle cx="1628" cy="580" r="8" class="c0"/>
<circle cx="1560" cy="62" r="8" class="c0"/>
<circle cx="1226" cy="584" r="8" class="c0"/>
<circle cx="1774" cy="426" r="8" class="c0"/>
<circle cx="882" cy="912" r="8" class="c0"/>
<circle cx="1906" cy="496" r="8" class="c0"/>
<circle cx="884" cy="558" r="8" class="c0"/>
<circle cx="1844" cy="520" r="8" class="c0"/>
<circle cx="736" cy="670" r="8" class="c0"/>
<circle cx="1782" cy="534" r="8" class="c0"/>
<circle cx="842" cy="834" r="8" class="c0"/>
<circle cx="1048" cy="616" r="8" class="c0"/>
<circle cx="1534" cy="730" r="8" class="c0"/>
<circle cx="1110" cy="600" r="8" class="c0"/>
<circle cx="810" cy="710" r="8" class="c0"/>
<circle cx="1548" cy="676" r="8" class="c0"/>
<circle cx="780" cy="624" r="8" class="c0"/>
<circle cx="852" cy="744" r="8" class="c0"/>
<circle cx="1738" cy="86" r="8" class="c0"/>
<circle cx="944" cy="572" r="8" class="c0"/>
<circle cx="1426" cy="714" r="8" class="c0"/>
<circle cx="1382" cy="672" r="8" class="c0"/>
<circle cx="822" cy="614" r="8" class="c0"/>
<circle cx="1118" cy="694" r="8" class="c0"/>
<circle cx="1256" cy="624" r="8" class="c0"/>
<circle cx="1772" cy="18" r="8" class="c0"/>
<circle cx="954" cy="684" r="8" class="c0"/>
<circle cx="1536" cy="604" r="8" class="c0"/>
<circle cx="1834" cy="642" r="8" class="c0"/>
<circle cx="916" cy="568" r="8" class="c0"/>
<circle cx="840" cy="800" r="8" class="c0"/>
<circle cx="872" cy="978" r="8" class="c0"/>
<circle cx="1740" cy="478" r="8" class="c0"/>
<circle cx="1762" cy="452" r="8" class="c0"/>
<circle cx="1198" cy="630" r="8" class="c0"/>
<circle cx="734" cy="648" r="8" class="c0"/>
<circle cx="1302" cy="744" r="8" class="c0"/>
<circle cx="1416" cy="646" r="8" class="c0"/>
<circle cx="1100" cy="610" r="8" class="c0"/>
<circle cx="1870" cy="754" r="8" class="c0"/>
<circle cx="1676" cy="660" r="8" class="c0"/>
<circle cx="1910" cy="450" r="8" class="c0"/>
<circle cx="798" cy="608" r="8" class="c0"/>
<circle cx="1198" cy="726" r="8" class="c0"/>
<circle cx="1630" cy="646" r="8" class="c0"/>
<circle cx="1838" cy="28" r="8" class="c0"/>
<circle cx="1876" cy="382" r="8" class="c0"/>
<circle cx="772" cy="646" r="8" class="c0"/>
<circle cx="1204" cy="574" r="8" class="c0"/>
<circle cx="1702" cy="608" r="8" class="c0"/>
<circle cx="1292" cy="818" r="8" class="c0"/>
<circle cx="1292" cy="662" r="8" class="c0"/>
<circle cx="1810" cy="614" r="8" class="c0"/>
<circle cx="1704" cy="662" r="8" class="c0"/>
<circle cx="832" cy="602" r="8" class="c0"/>
<circle cx="844" cy="782" r="8" class="c0"/>
<circle cx="904" cy="1008" r="8" class="c0"/>
<circle cx="1844" cy="432" r="8" class="c0"/>
<circle cx="1830" cy="622" r="8" class="c0"/>
<circle cx="1448" cy="808" r="8" class="c0"/>
<circle cx="1260" cy="806" r="8" class="c0"/>
<circle cx="1250" cy="794" r="8" class="c0"/>
<circle cx="1466" cy="658" r="8" class="c0"/>
<circle cx="1588" cy="784" r="8" class="c0"/>
<circle cx="772" cy="772" r="8" class="c0"/>
<circle cx="1178" cy="686" r="8" class="c0"/>
<circle cx="1814" cy="790" r="8" class="c0"/>
<circle cx="1876" cy="428" r="8" class="c0"/>
<circle cx="1092" cy="582" r="8" class="c0"/>
<circle cx="1908" cy="410" r="8" class="c0"/>
<circle cx="1854" cy="598" r="8" class="c0"/>
<circle cx="1796" cy="62" r="8" class="c0"/>
<circle cx="1714" cy="648" r="8" class="c0"/>
<circle cx="908" cy="634" r="8" class="c0"/>
<circle cx="976" cy="608" r="8" class="c0"/>
<circle cx="1794" cy="436" r="8" class="c0"/>
<circle cx="1384" cy="826" r="8" class="c0"/>
<circle cx="1804" cy="712" r="8" class="c0"/>
<circle cx="1242" cy="606" r="8" class="c0"/>
<circle cx="1908" cy="806" r="8" class="c0"/>
<circle cx="1632" cy="616" r="8" class="c0"/>
<circle cx="1552" cy="616" r="8" class="c0"/>
<circle cx="1820" cy="494" r="8" class="c0"/>
<circle cx="1146" cy="566" r="8" class="c0"/>
<circle cx="1144" cy="628" r="8" class="c0"/>
<circle cx="890" cy="1024" r="8" class="c0"/>
<circle cx="1154" cy="720" r="8" class="c0"/>
<circle cx="1486" cy="678" r="8" class="c0"/>
<circle cx="902" cy="606" r="8" class="c0"/>
<circle cx="1462" cy="782" r="8" class="c0"/>
<circle cx="1886" cy="486" r="8" class="c0"/>
<circle cx="1456" cy="740" r="8" class="c0"/>
<circle cx="1544" cy="806" r="8" class="c0"/>
<circle cx="1448" cy="716" r="8" class="c0"/>
<circle cx="1736" cy="798" r="8" class="c0"/>
<circle cx="1700" cy="498" r="8" class="c0"/>
<circle cx="714" cy="810" r="8" class="c0"/>
<circle cx="736" cy="752" r="8" class="c0"/>
<circle cx="1614" cy="88" r="8" class="c0"/>
<circle cx="1768" cy="718" r="8" class="c0"/>
<circle cx="850" cy="854" r="8" class="c0"/>
<circle cx="1038" cy="630" r="8" class="c0"/>
<circle cx="838" cy="570" r="8" class="c0"/>
<circle cx="800" cy="820" r="8" class="c0"/>
<circle cx="1780" cy="502" r="8" class="c0"/>
<circle cx="1118" cy="666" r="8" class="c0"/>
<circle cx="688" cy="732" r="8" class="c0"/>
<circle cx="960" cy="540" r="8" class="c0"/>
<circle cx="1094" cy="628" r="8" class="c0"/>
<circle cx="1664" cy="638" r="8" class="c0"/>
<circle cx="1704" cy="10" r="8" class="c0"/>
<circle cx="974" cy="648" r="8" class="c0"/>
<circle cx="1430" cy="668" r="8" class="c0"/>
<circle cx="1856" cy="494" r="8" class="c0"/>
<circle cx="1542" cy="66" r="8" class="c0"/>
<circle cx="1826" cy="536" r="8" class="c0"/>
<circle cx="1590" cy="746" r="8" class="c0"/>
<circle cx="1712" cy="72" r="8" class="c0"/>
<circle cx="1172" cy="640" r="8" class="c0"/>
<circle cx="1728" cy="38" r="8" class="c0"/>
<circle cx="1572" cy="736" r="8" class="c0"/>
<circle cx="882" cy="722" r="8" class="c0"/>
<circle cx="1126" cy="590" r="8" class="c0"/>
<circle cx="1768" cy="566" r="8" class="c0"/>
<circle cx="1844" cy="10" r="8" class="c0"/>
<circle cx="1672" cy="34" r="8" class="c0"/>
<circle cx="1600" cy="700" r="8" class="c0"/>
<circle cx="1316" cy="614" r="8" class="c0"/>
<circle cx="864" cy="1024" r="8" class="c0"/>
<circle cx="1428" cy="834" r="8" class="c0"/>
<circle cx="1830" cy="62" r="8" class="c0"/>
<circle cx="822" cy="886" r="8" class="c0"/>
<circle cx="1730" cy="716" r="8" class="c0"/>
<circle cx="1882" cy="680" r="8" class="c0"/>
<circle cx="1332" cy="832" r="8" class="c0"/>
<circle cx="1910" cy="642" r="8" class="c0"/>
<circle cx="1754" cy="436" r="8" class="c0"/>
<circle cx="1720" cy="88" r="8" class="c0"/>
<circle cx="1102" cy="676" r="8" class="c0"/>
<circle cx="1292" cy="786" r="8" class="c0"/>
<circle cx="878" cy="786" r="8" class="c0"/>
<circle cx="864" cy="756" r="8" class="c0"/>
<circle cx="1410" cy="826" r="8" class="c0"/>
<circle cx="1248" cy="580" r="8" class="c0"/>
<circle cx="824" cy="726" r="8" class="c0"/>
<circle cx="926" cy="580" r="8" class="c0"/>
<circle cx="1524" cy="720" r="8" class="c0"/>
<circle cx="1814" cy="518" r="8" class="c0"/>
<circle cx="1372" cy="744" r="8" class="c0"/>
<circle cx="876" cy="878" r="8" class="c0"/>
<circle cx="844" cy="660" r="8" class="c0"/>
<circle cx="1476" cy="668" r="8" class="c0"/>
<circle cx="1274" cy="614" r="8" class="c0"/>
<circle cx="1862" cy="438" r="8" class="c0"/>
<circle cx="1696" cy="88" r="8" class="c0"/>
<circle cx="848" cy="988" r="8" class="c0"/>
<circle cx="1816" cy="726" r="8" class="c0"/>
<circle cx="1870" cy="692" r="8" class="c0"/>
<circle cx="1024" cy="546" r="8" class="c0"/>
<circle cx="1748" cy="624" r="8" class="c0"/>
<circle cx="1172" cy="576" r="8" class="c0"/>
<circle cx="1542" cy="8" r="8" class="c0"/>
<circle cx="1694" cy="722" r="8" class="c0"/>
<circle cx="1632" cy="726" r="8" class="c0"/>
<circle cx="762" cy="626" r="8" class="c0"/>
<circle cx="1320" cy="654" r="8" class="c0"/>
<circle cx="916" cy="730" r="8" class="c0"/>
<circle cx="1074" cy="572" r="8" class="c0"/>
<circle cx="1082" cy="656" r="8" class="c0"/>
<circle cx="1554" cy="44" r="8" class="c0"/>
<circle cx="1736" cy="744" r="8" class="c0"/>
<circle cx="854" cy="772" r="8" class="c0"/>
<circle cx="1398" cy="782" r="8" class="c0"/>
<circle cx="754" cy="784" r="8" class="c0"/>
<circle cx="1890" cy="592" r="8" class="c0"/>
<circle cx="962" cy="658" r="8" class="c0"/>
<circle cx="1498" cy="714" r="8" class="c0"/>
<circle cx="1772" cy="598" r="8" class="c0"/>
<circle cx="1622" cy="694" r="8" class="c0"/>
<circle cx="1356" cy="840" r="8" class="c0"/>
<circle cx="1590" cy="64" r="8" class="c0"/>
<circle cx="1584" cy="572" r="8" class="c0"/>
<circle cx="1522" cy="594" r="8" class="c0"/>
<circle cx="1124" cy="640" r="8" class="c0"/>
<circle cx="930" cy="638" r="8" class="c0"/>
<circle cx="1082" cy="606" r="8" class="c0"/>
<circle cx="770" cy="812" r="8" class="c0"/>
<circle cx="842" cy="1024" r="8" class="c0"/>
<circle cx="1468" cy="624" r="8" class="c0"/>
<circle cx="1826" cy="12" r="8" class="c0"/>
<circle cx="1642" cy="14" r="8" class="c0"/>
<circle cx="1750" cy="462" r="8" class="c0"/>
<circle cx="1512" cy="758" r="8" class="c0"/>
<circle cx="1024" cy="502" r="8" class="c0"/>
<circle cx="920" cy="666" r="8" class="c0"/>
<circle cx="722" cy="792" r="8" class="c0"/>
<circle cx="1770" cy="492" r="8" class="c0"/>
<circle cx="1752" cy="536" r="8" class="c0"/>
<circle cx="1752" cy="20" r="8" class="c0"/>
<circle cx="828" cy="968" r="8" class="c0"/>
<circle cx="1476" cy="802" r="8" class="c0"/>
<circle cx="1142" cy="542" r="8" class="c0"/>
<circle cx="1910" cy="780" r="8" class="c0"/>
<circle cx="1388" cy="722" r="8" class="c0"/>
<circle cx="1242" cy="710" r="8" class="c0"/>
<circle cx="890" cy="624" r="8" class="c0"/>
<circle cx="1588" cy="664" r="8" class="c0"/>
<circle cx="1858" cy="730" r="8" class="c0"/>
<circle cx="1494" cy="738" r="6" class="c0"/>
<circle cx="1714" cy="512" r="6" class="c0"/>
<circle cx="812" cy="692" r="6" class="c0"/>
<circle cx="1858" cy="34" r="6" class="c0"/>
<circle cx="872" cy="956" r="6" class="c0"/>
<circle cx="1434" cy="650" r="6" class="c0"/>
<circle cx="1794" cy="694" r="6" class="c0"/>
<circle cx="702" cy="788" r="6" class="c0"/>
<circle cx="790" cy="634" r="6" class="c0"/>
<circle cx="1672" cy="512" r="6" class="c0"/>
<circle cx="1802" cy="534" r="6" class="c0"/>
<circle cx="1544" cy="704" r="6" class="c0"/>
<circle cx="1834" cy="418" r="6" class="c0"/>
<circle cx="1898" cy="736" r="6" class="c0"/>
<circle cx="868" cy="584" r="6" class="c0"/>
<circle cx="1692" cy="540" r="6" class="c0"/>
<circle cx="920" cy="1006" r="6" class="c0"/>
<circle cx="1054" cy="642" r="6" class="c0"/>
<circle cx="1288" cy="728" r="6" class="c0"/>
<circle cx="1750" cy="56" r="6" class="c0"/>
<circle cx="1868" cy="554" r="6" class="c0"/>
<circle cx="1884" cy="768" r="6" class="c0"/>
<circle cx="1608" cy="794" r="6" class="c0"/>
<circle cx="1872" cy="66" r="6" class="c0"/>
<circle cx="1766" cy="76" r="6" class="c0"/>
<circle cx="1854" cy="562" r="6" class="c0"/>
<circle cx="1436" cy="762" r="6" class="c0"/>
<circle cx="1256" cy="748" r="6" class="c0"/>
<circle cx="1650" cy="538" r="6" class="c0"/>
<circle cx="1878" cy="798" r="6" class="c0"/>
<circle cx="1908" cy="524" r="6" class="c0"/>
<circle cx="818" cy="844" r="6" class="c0"/>
<circle cx="1214" cy="684" r="6" class="c0"/>
<circle cx="1892" cy="458" r="6" class="c0"/>
<circle cx="1784" cy="446" r="6" class="c0"/>
<circle cx="834" cy="586" r="6" class="c0"/>
<circle cx="1644" cy="656" r="6" class="c0"/>
<circle cx="982" cy="530" r="6" class="c0"/>
<circle cx="1514" cy="710" r="6" class="c0"/>
<circle cx="1330" cy="816" r="6" class="c0"/>
<circle cx="1206" cy="712" r="6" class="c0"/>
<circle cx="1326" cy="790" r="6" class="c0"/>
<circle cx="1542" cy="588" r="6" class="c0"/>
<circle cx="1694" cy="44" r="6" class="c0"/>
<circle cx="1812" cy="372" r="6" class="c0"/>
<circle cx="836" cy="902" r="6" class="c0"/>
<circle cx="1266" cy="658" r="6" class="c0"/>
<circle cx="1064" cy="514" r="6" class="c0"/>
<circle cx="1036" cy="570" r="6" class="c0"/>
<circle cx="866" cy="938" r="6" class="c0"/>
<circle cx="1878" cy="500" r="6" class="c0"/>
<circle cx="1366" cy="666" r="6" class="c0"/>
<circle cx="916" cy="870" r="6" class="c0"/>
<circle cx="1904" cy="580" r="6" class="c0"/>
<circle cx="1334" cy="732" r="6" class="c0"/>
<circle cx="1912" cy="432" r="6" class="c0"/>
<circle cx="1878" cy="28" r="6" class="c0"/>
<circle cx="1670" cy="700" r="6" class="c0"/>
<circle cx="1012" cy="582" r="6" class="c0"/>
<circle cx="1704" cy="566" r="6" class="c0"/>
<circle cx="1818" cy="432" r="6" class="c0"/>
<circle cx="1734" cy="694" r="6" class="c0"/>
<circle cx="764" cy="726" r="6" class="c0"/>
<circle cx="1864" cy="392" r="6" class="c0"/>
<circle cx="776" cy="576" r="6" class="c0"/>
<circle cx="960" cy="614" r="6" class="c0"/>
<circle cx="1618" cy="68" r="6" class="c0"/>
<circle cx="910" cy="550" r="6" class="c0"/>
<circle cx="1156" cy="666" r="6" class="c0"/>
<circle cx="1640" cy="556" r="6" class="c0"/>
<circle cx="1154" cy="612" r="6" class="c0"/>
<circle cx="1212" cy="734" r="6" class="c0"/>
<circle cx="1792" cy="420" r="6" class="c0"/>
<circle cx="1798" cy="650" r="6" class="c0"/>
<circle cx="1128" cy="680" r="6" class="c0"/>
<circle cx="1844" cy="612" r="6" class="c0"/>
<circle cx="1728" cy="536" r="6" class="c0"/>
<circle cx="698" cy="660" r="6" class="c0"/>
<circle cx="1752" cy="788" r="6" class="c0"/>
<circle cx="962" cy="496" r="6" class="c0"/>
<circle cx="1176" cy="554" r="6" class="c0"/>
<circle cx="1256" cy="768" r="6" class="c0"/>
<circle cx="806" cy="624" r="6" class="c0"/>
<circle cx="1266" cy="692" r="6" class="c0"/>
<circle cx="1512" cy="816" r="6" class="c0"/>
<circle cx="1654" cy="554" r="6" class="c0"/>
<circle cx="1882" cy="468" r="6" class="c0"/>
<circle cx="1696" cy="556" r="6" class="c0"/>
<circle cx="724" cy="704" r="6" class="c0"/>
<circle cx="1830" cy="794" r="6" class="c0"/>
<circle cx="756" cy="800" r="6" class="c0"/>
<circle cx="936" cy="676" r="6" class="c0"/>
<circle cx="1602" cy="44" r="6" class="c0"/>
<circle cx="1876" cy="542" r="6" class="c0"/>
<circle cx="1882" cy="366" r="6" class="c0"/>
<circle cx="1446" cy="776" r="6" class="c0"/>
<circle cx="792" cy="568" r="6" class="c0"/>
<circle cx="1266" cy="788" r="6" class="c0"/>
<circle cx="1768" cy="666" r="6" class="c0"/>
<circle cx="1632" cy="746" r="6" class="c0"/>
<circle cx="1538" cy="660" r="6" class="c0"/>
<circle cx="1890" cy="696" r="6" class="c0"/>
<circle cx="902" cy="952" r="6" class="c0"/>
<circle cx="1792" cy="462" r="6" class="c0"/>
<circle cx="1460" cy="798" r="6" class="c0"/>
<circle cx="862" cy="792" r="6" class="c0"/>
<circle cx="1292" cy="712" r="6" class="c0"/>
<circle cx="1276" cy="822" r="6" class="c0"/>
<circle cx="1408" cy="794" r="6" class="c0"/>
<circle cx="1006" cy="594" r="6" class="c0"/>
<circle cx="1680" cy="618" r="6" class="c0"/>
<circle cx="1062" cy="562" r="6" class="c0"/>
<circle cx="1664" cy="768" r="6" class="c0"/>
<circle cx="1228" cy="788" r="6" class="c0"/>
<circle cx="1854" cy="746" r="6" class="c0"/>
<circle cx="810" cy="596" r="6" class="c0"/>
<circle cx="1570" cy="52" r="6" class="c0"/>
<circle cx="1410" cy="720" r="6" class="c0"/>
<circle cx="1280" cy="698" r="6" class="c0"/>
<circle cx="780" cy="822" r="6" class="c0"/>
<circle cx="1650" cy="70" r="6" class="c0"/>
<circle cx="860" cy="950" r="6" class="c0"/>
<circle cx="1602" cy="612" r="6" class="c0"/>
<circle cx="1788" cy="706" r="6" class="c0"/>
<circle cx="878" cy="930" r="6" class="c0"/>
<circle cx="1022" cy="616" r="6" class="c0"/>
<circle cx="810" cy="836" r="6" class="c0"/>
<circle cx="1220" cy="748" r="6" class="c0"/>
<circle cx="1850" cy="470" r="6" class="c0"/>
<circle cx="1306" cy="600" r="6" class="c0"/>
<circle cx="1716" cy="50" r="6" class="c0"/>
<circle cx="1670" cy="6" r="6" class="c0"/>
<circle cx="1906" cy="728" r="6" class="c0"/>
<circle cx="894" cy="836" r="6" class="c0"/>
<circle cx="770" cy="662" r="6" class="c0"/>
<circle cx="1822" cy="396" r="6" class="c0"/>
<circle cx="842" cy="676" r="6" class="c0"/>
<circle cx="1684" cy="736" r="6" class="c0"/>
<circle cx="1446" cy="832" r="6" class="c0"/>
<circle cx="1334" cy="618" r="6" class="c0"/>
<circle cx="878" cy="1010" r="6" class="c0"/>
<circle cx="1596" cy="766" r="6" class="c0"/>
<circle cx="1472" cy="750" r="6" class="c0"/>
<circle cx="1592" cy="620" r="6" class="c0"/>
<circle cx="1254" cy="724" r="6" class="c0"/>
<circle cx="1660" cy="690" r="6" class="c0"/>
<circle cx="1628" cy="784" r="6" class="c0"/>
<circle cx="862" cy="886" r="6" class="c0"/>
<circle cx="1560" cy="666" r="6" class="c0"/>
<circle cx="1504" cy="632" r="6" class="c0"/>
<circle cx="1000" cy="506" r="6" class="c0"/>
<circle cx="1474" cy="768" r="6" class="c0"/>
<circle cx="722" cy="632" r="6" class="c0"/>
<circle cx="922" cy="520" r="6" class="c0"/>
<circle cx="1658" cy="708" r="6" class="c0"/>
<circle cx="1784" cy="518" r="6" class="c0"/>
<circle cx="704" cy="756" r="6" class="c0"/>
<circle cx="710" cy="642" r="6" class="c0"/>
<circle cx="1382" cy="788" r="6" class="c0"/>
<circle cx="1730" cy="600" r="6" class="c0"/>
<circle cx="1810" cy="762" r="6" class="c0"/>
<circle cx="1740" cy="6" r="6" class="c0"/>
<circle cx="1848" cy="454" r="6" class="c0"/>
<circle cx="712" cy="746" r="6" class="c0"/>
<circle cx="1694" cy="704" r="6" class="c0"/>
<circle cx="1764" cy="410" r="6" class="c0"/>
<circle cx="1546" cy="718" r="6" class="c0"/>
<circle cx="924" cy="542" r="6" class="c0"/>
<circle cx="860" cy="844" r="6" class="c0"/>
<circle cx="1648" cy="732" r="6" class="c0"/>
<circle cx="822" cy="1028" r="6" class="c0"/>
<circle cx="1892" cy="504" r="6" class="c0"/>
<circle cx="1552" cy="596" r="6" class="c0"/>
<circle cx="678" cy="742" r="6" class="c0"/>
<circle cx="1564" cy="630" r="6" class="c0"/>
<circle cx="1684" cy="504" r="6" class="c0"/>
<circle cx="1786" cy="72" r="6" class="c0"/>
<circle cx="898" cy="796" r="6" class="c0"/>
<circle cx="1910" cy="676" r="6" class="c0"/>
<circle cx="990" cy="566" r="6" class="c0"/>
<circle cx="1758" cy="482" r="6" class="c0"/>
<circle cx="1604" cy="754" r="6" class="c0"/>
<circle cx="1322" cy="696" r="6" class="c0"/>
<circle cx="1884" cy="636" r="6" class="c0"/>
<circle cx="1860" cy="536" r="6" class="c0"/>
<circle cx="1722" cy="776" r="6" class="c0"/>
<circle cx="1164" cy="624" r="6" class="c0"/>
<circle cx="1632" cy="682" r="6" class="c0"/>
<circle cx="850" cy="972" r="6" class="c0"/>
<circle cx="1012" cy="512" r="6" class="c0"/>
<circle cx="920" cy="648" r="6" class="c0"/>
<circle cx="810" cy="658" r="6" class="c0"/>
<circle cx="1886" cy="62" r="6" class="c0"/>
<circle cx="918" cy="822" r="6" class="c0"/>
<circle cx="1798" cy="748" r="6" class="c0"/>
<circle cx="878" cy="852" r="6" class="c0"/>
<circle cx="902" cy="916" r="6" class="c0"/>
<circle cx="1120" cy="536" r="6" class="c0"/>
<circle cx="792" cy="650" r="6" class="c0"/>
<circle cx="1136" cy="578" r="6" class="c0"/>
<circle cx="1912" cy="388" r="6" class="c0"/>
<circle cx="1356" cy="706" r="6" class="c0"/>
<circle cx="1220" cy="722" r="6" class="c0"/>
<circle cx="1498" cy="772" r="6" class="c0"/>
<circle cx="1760" cy="6" r="6" class="c0"/>
<circle cx="1510" cy="790" r="6" class="c0"/>
<circle cx="1816" cy="774" r="6" class="c0"/>
<circle cx="878" cy="894" r="6" class="c0"/>
<circle cx="1812" cy="54" r="6" class="c0"/>
<circle cx="1766" cy="544" r="6" class="c0"/>
<circle cx="926" cy="558" r="6" class="c0"/>
<circle cx="1766" cy="42" r="6" class="c0"/>
<circle cx="1528" cy="670" r="6" class="c0"/>
<circle cx="1890" cy="728" r="6" class="c0"/>
<circle cx="834" cy="686" r="6" class="c0"/>
<circle cx="1846" cy="790" r="6" class="c0"/>
<circle cx="1912" cy="6" r="6" class="c0"/>
<circle cx="852" cy="1014" r="6" class="c0"/>
<circle cx="1912" cy="618" r="6" class="c0"/>
<circle cx="1756" cy="420" r="6" class="c0"/>
<circle cx="1092" cy="536" r="6" class="c0"/>
<circle cx="904" cy="1036" r="6" class="c0"/>
<circle cx="1508" cy="6" r="6" class="c0"/>
<circle cx="1910" cy="26" r="6" class="c0"/>
<circle cx="1776" cy="654" r="6" class="c0"/>
<circle cx="1066" cy="654" r="6" class="c0"/>
<circle cx="1904" cy="750" r="6" class="c0"/>
<circle cx="1224" cy="608" r="6" class="c0"/>
<circle cx="1072" cy="522" r="6" class="c0"/>
<circle cx="1612" cy="564" r="6" class="c0"/>
<circle cx="1912" cy="696" r="6" class="c0"/>
<circle cx="1910" cy="822" r="6" class="c0"/>
<circle cx="1708" cy="528" r="6" class="c0"/>
<circle cx="1798" cy="34" r="6" class="c0"/>
<circle cx="1376" cy="840" r="6" class="c0"/>
<circle cx="1902" cy="668" r="6" class="c0"/>
<circle cx="1680" cy="50" r="6" class="c0"/>
<circle cx="1814" cy="586" r="6" class="c0"/>
<circle cx="1452" cy="690" r="6" class="c0"/>
<circle cx="1552" cy="732" r="6" class="c0"/>
<circle cx="1162" cy="650" r="6" class="c0"/>
<circle cx="746" cy="598" r="6" class="c0"/>
<circle cx="1026" cy="562" r="6" class="c0"/>
<circle cx="1168" cy="676" r="6" class="c0"/>
<circle cx="1374" cy="796" r="6" class="c0"/>
<circle cx="844" cy="618" r="6" class="c0"/>
<circle cx="752" cy="612" r="6" class="c0"/>
<circle cx="750" cy="678" r="6" class="c0"/>
<circle cx="944" cy="492" r="6" class="c0"/>
<circle cx="1288" cy="754" r="6" class="c0"/>
<circle cx="862" cy="966" r="6" class="c0"/>
<circle cx="850" cy="536" r="6" class="c0"/>
<circle cx="704" cy="738" r="6" class="c0"/>
<circle cx="1910" cy="660" r="6" class="c0"/>
<circle cx="1566" cy="6" r="6" class="c0"/>
<circle cx="1792" cy="544" r="6" class="c0"/>
<circle cx="1358" cy="638" r="6" class="c0"/>
<circle cx="822" cy="650" r="6" class="c0"/>
<circle cx="880" cy="1034" r="6" class="c0"/>
<circle cx="1702" cy="762" r="6" class="c0"/>
<circle cx="1806" cy="598" r="6" class="c0"/>
<circle cx="1214" cy="622" r="6" class="c0"/>
<circle cx="1610" cy="58" r="6" class="c0"/>
<circle cx="898" cy="718" r="6" class="c0"/>
<circle cx="1598" cy="8" r="6" class="c0"/>
<circle cx="816" cy="556" r="6" class="c0"/>
<circle cx="1842" cy="688" r="6" class="c0"/>
<circle cx="1718" cy="606" r="6" class="c0"/>
<circle cx="1648" cy="716" r="6" class="c0"/>
<circle cx="1258" cy="700" r="6" class="c0"/>
<circle cx="1224" cy="568" r="6" class="c0"/>
<circle cx="1678" cy="86" r="6" class="c0"/>
<circle cx="1912" cy="740" r="6" class="c0"/>
<circle cx="990" cy="616" r="6" class="c0"/>
<circle cx="1542" cy="626" r="6" class="c0"/>
<circle cx="870" cy="922" r="6" class="c0"/>
<circle cx="1900" cy="514" r="6" class="c0"/>
<circle cx="826" cy="836" r="6" class="c0"/>
<circle cx="1156" cy="638" r="6" class="c0"/>
<circle cx="1770" cy="582" r="6" class="c0"/>
<circle cx="1908" cy="62" r="6" class="c0"/>
<circle cx="1032" cy="516" r="6" class="c0"/>
<circle cx="1590" cy="686" r="6" class="c0"/>
<circle cx="1826" cy="670" r="6" class="c0"/>
<circle cx="1350" cy="672" r="6" class="c0"/>
<circle cx="1874" cy="448" r="6" class="c0"/>
<circle cx="1434" cy="684" r="6" class="c0"/>
<circle cx="1738" cy="544" r="6" class="c0"/>
<circle cx="1538" cy="788" r="6" class="c0"/>
<circle cx="1652" cy="648" r="6" class="c0"/>
<circle cx="1438" cy="824" r="6" class="c0"/>
<circle cx="970" cy="524" r="6" class="c0"/>
<circle cx="1684" cy="550" r="6" class="c0"/>
<circle cx="812" cy="870" r="6" class="c0"/>
<circle cx="1792" cy="46" r="6" class="c0"/>
<circle cx="1182" cy="670" r="6" class="c0"/>
<circle cx="1300" cy="646" r="6" class="c0"/>
<circle cx="770" cy="788" r="6" class="c0"/>
<circle cx="1626" cy="10" r="6" class="c0"/>
<circle cx="854" cy="550" r="6" class="c0"/>
<circle cx="1484" cy="706" r="6" class="c0"/>
<circle cx="1194" cy="762" r="6" class="c0"/>
<circle cx="750" cy="700" r="6" class="c0"/>
<circle cx="1582" cy="800" r="6" class="c0"/>
<circle cx="782" cy="606" r="6" class="c0"/>
<circle cx="1592" cy="588" r="6" class="c0"/>
<circle cx="1570" cy="618" r="6" class="c0"/>
<circle cx="692" cy="672" r="6" class="c0"/>
<circle cx="972" cy="624" r="6" class="c0"/>
<circle cx="1750" cy="690" r="6" class="c0"/>
<circle cx="920" cy="776" r="6" class="c0"/>
<circle cx="836" cy="736" r="6" class="c0"/>
<circle cx="1016" cy="602" r="6" class="c0"/>
<circle cx="1784" cy="384" r="6" class="c0"/>
<circle cx="758" cy="692" r="6" class="c0"/>
<circle cx="1466" cy="640" r="6" class="c0"/>
<circle cx="1652" cy="38" r="6" class="c0"/>
<circle cx="1788" cy="564" r="6" class="c0"/>
<circle cx="818" cy="632" r="6" class="c0"/>
<circle cx="1732" cy="658" r="6" class="c0"/>
<circle cx="1738" cy="592" r="6" class="c0"/>
<circle cx="1480" cy="742" r="6" class="c0"/>
<circle cx="884" cy="750" r="6" class="c0"/>
<circle cx="1542" cy="770" r="6" class="c0"/>
</svg>
