<?xml version="1.0" encoding="utf-8"?>
<svg xmlns="http://www.w3.org/2000/svg"
     xmlns:xlink="http://www.w3.org/1999/xlink" width="1920" height="1440" >

            <defs>
            <style type="text/css"><![CDATA[
circle {stroke: none;}
.c0 {fill: #FFFFFF;}
]]></style>
            </defs>
<rect x="0" y="0" width="1920" height="1440" fill="black"/>
<circle cx="1224" cy="676" r="14" class="c0"/>
<circle cx="1758" cy="690" r="14" class="c0"/>
<circle cx="1316" cy="766" r="12" class="c0"/>
<circle cx="1850" cy="680" r="12" class="c0"/>
<circle cx="1726" cy="552" r="12" class="c0"/>
<circle cx="1630" cy="738" r="12" class="c0"/>
<circle cx="1694" cy="764" r="12" class="c0"/>
<circle cx="1906" cy="804" r="12" class="c0"/>
<circle cx="918" cy="770" r="12" class="c0"/>
<circle cx="998" cy="702" r="12" class="c0"/>
<circle cx="920" cy="846" r="12" class="c0"/>
<circle cx="1126" cy="636" r="12" class="c0"/>
<circle cx="1498" cy="842" r="12" class="c0"/>
<circle cx="1010" cy="594" r="12" class="c0"/>
<circle cx="880" cy="850" r="12" class="c0"/>
<circle cx="1828" cy="692" r="12" class="c0"/>
<circle cx="906" cy="968" r="12" class="c0"/>
<circle cx="1856" cy="540" r="12" class="c0"/>
<circle cx="1684" cy="576" r="12" class="c0"/>
<circle cx="1496" cy="698" r="12" class="c0"/>
<circle cx="1870" cy="560" r="12" class="c0"/>
<circle cx="1734" cy="770" r="12" class="c0"/>
<circle cx="886" cy="940" r="12" class="c0"/>
<circle cx="1188" cy="702" r="12" class="c0"/>
<circle cx="1614" cy="642" r="12" class="c0"/>
<circle cx="1406" cy="850" r="12" class="c0"/>
<circle cx="1212" cy="616" r="12" class="c0"/>
<circle cx="1254" cy="684" r="12" class="c0"/>
<circle cx="1488" cy="808" r="12" class="c0"/>
<circle cx="816" cy="816" r="12" class="c0"/>
<circle cx="940" cy="934" r="12" class="c0"/>
<circle cx="1244" cy="600" r="12" class="c0"/>
<circle cx="1294" cy="688" r="12" class="c0"/>
<circle cx="1014" cy="670" r="12" class="c0"/>
<circle cx="908" cy="556" r="12" class="c0"/>
<circle cx="1034" cy="570" r="12" class="c0"/>
<circle cx="1042" cy="622" r="12" class="c0"/>
<circle cx="1072" cy="614" r="12" class="c0"/>
<circle cx="1282" cy="760" r="12" class="c0"/>
<circle cx="808" cy="760" r="12" class="c0"/>
<circle cx="1860" cy="422" r="12" class="c0"/>
<circle cx="1762" cy="566" r="12" class="c0"/>
<circle cx="1632" cy="24" r="12" class="c0"/>
<circle cx="936" cy="756" r="12" class="c0"/>
<circle cx="1872" cy="632" r="12" class="c0"/>
<circle cx="1618" cy="668" r="12" class="c0"/>
<circle cx="1338" cy="680" r="12" class="c0"/>
<circle cx="1630" cy="792" r="12" class="c0"/>
<circle cx="1600" cy="766" r="12" class="c0"/>
<circle cx="1508" cy="754" r="12" class="c0"/>
<circle cx="1312" cy="646" r="12" class="c0"/>
<circle cx="1704" cy="718" r="12" class="c0"/>
<circle cx="1788" cy="686" r="12" class="c0"/>
<circle cx="898" cy="618" r="12" class="c0"/>
<circle cx="1586" cy="38" r="12" class="c0"/>
<circle cx="1110" cy="600" r="12" class="c0"/>
<circle cx="1684" cy="664" r="10" class="c0"/>
<circle cx="1778" cy="764" r="10" class="c0"/>
<circle cx="1338" cy="822" r="10" class="c0"/>
<circle cx="1006" cy="552" r="10" class="c0"/>
<circle cx="920" cy="808" r="10" class="c0"/>
<circle cx="1900" cy="632" r="10" class="c0"/>
<circle cx="1278" cy="798" r="10" class="c0"/>
<circle cx="1164" cy="586" r="10" class="c0"/>
<circle cx="1718" cy="670" r="10" class="c0"/>
<circle cx="1204" cy="576" r="10" class="c0"/>
<circle cx="1846" cy="624" r="10" class="c0"/>
<circle cx="944" cy="980" r="10" class="c0"/>
<circle cx="1594" cy="718" r="10" class="c0"/>
<circle cx="914" cy="1010" r="10" class="c0"/>
<circle cx="768" cy="746" r="10" class="c0"/>
<circle cx="1580" cy="742" r="10" class="c0"/>
<circle cx="914" cy="632" r="10" class="c0"/>
<circle cx="1048" cy="530" r="10" class="c0"/>
<circle cx="1752" cy="532" r="10" class="c0"/>
<circle cx="744" cy="688" r="10" class="c0"/>
<circle cx="1616" cy="46" r="10" class="c0"/>
<circle cx="1468" cy="686" r="10" class="c0"/>
<circle cx="1656" cy="752" r="10" class="c0"/>
<circle cx="1876" cy="746" r="10" class="c0"/>
<circle cx="1890" cy="584" r="10" class="c0"/>
<circle cx="856" cy="580" r="10" class="c0"/>
<circle cx="886" cy="812" r="10" class="c0"/>
<circle cx="1670" cy="706" r="10" class="c0"/>
<circle cx="1366" cy="708" r="10" class="c0"/>
<circle cx="1838" cy="806" r="10" class="c0"/>
<circle cx="1664" cy="682" r="10" class="c0"/>
<circle cx="1604" cy="600" r="10" class="c0"/>
<circle cx="1700" cy="30" r="10" class="c0"/>
<circle cx="1764" cy="650" r="10" class="c0"/>
<circle cx="820" cy="704" r="10" class="c0"/>
<circle cx="1688" cy="622" r="10" class="c0"/>
<circle cx="1674" cy="14" r="10" class="c0"/>
<circle cx="1700" cy="598" r="10" class="c0"/>
<circle cx="868" cy="616" r="10" class="c0"/>
<circle cx="934" cy="822" r="10" class="c0"/>
<circle cx="1566" cy="682" r="10" class="c0"/>
<circle cx="790" cy="656" r="10" class="c0"/>
<circle cx="1356" cy="732" r="10" class="c0"/>
<circle cx="798" cy="706" r="10" class="c0"/>
<circle cx="764" cy="794" r="10" class="c0"/>
<circle cx="1734" cy="606" r="10" class="c0"/>
<circle cx="1560" cy="822" r="10" class="c0"/>
<circle cx="1688" cy="736" r="10" class="c0"/>
<circle cx="938" cy="538" r="10" class="c0"/>
<circle cx="1242" cy="732" r="10" class="c0"/>
<circle cx="1074" cy="566" r="10" class="c0"/>
<circle cx="1146" cy="558" r="10" class="c0"/>
<circle cx="784" cy="764" r="10" class="c0"/>
<circle cx="1212" cy="740" r="10" class="c0"/>
<circle cx="1802" cy="524" r="10" class="c0"/>
<circle cx="1362" cy="628" r="10" class="c0"/>
<circle cx="1816" cy="492" r="10" class="c0"/>
<circle cx="1340" cy="656" r="10" class="c0"/>
<circle cx="1056" cy="600" r="10" class="c0"/>
<circle cx="1852" cy="516" r="10" class="c0"/>
<circle cx="1904" cy="386" r="10" class="c0"/>
<circle cx="1036" cy="506" r="10" class="c0"/>
<circle cx="1440" cy="768" r="10" class="c0"/>
<circle cx="868" cy="660" r="10" class="c0"/>
<circle cx="818" cy="618" r="10" class="c0"/>
<circle cx="758" cy="728" r="10" class="c0"/>
<circle cx="1074" cy="538" r="10" class="c0"/>
<circle cx="1822" cy="590" r="10" class="c0"/>
<circle cx="1320" cy="692" r="10" class="c0"/>
<circle cx="1178" cy="658" r="10" class="c0"/>
<circle cx="1698" cy="642" r="10" class="c0"/>
<circle cx="1442" cy="678" r="10" class="c0"/>
<circle cx="1624" cy="616" r="10" class="c0"/>
<circle cx="1898" cy="420" r="10" class="c0"/>
<circle cx="964" cy="886" r="10" class="c0"/>
<circle cx="1422" cy="800" r="10" class="c0"/>
<circle cx="1886" cy="492" r="10" class="c0"/>
<circle cx="1398" cy="668" r="10" class="c0"/>
<circle cx="1550" cy="636" r="10" class="c0"/>
<circle cx="1882" cy="672" r="10" class="c0"/>
<circle cx="884" cy="584" r="10" class="c0"/>
<circle cx="1392" cy="778" r="10" class="c0"/>
<circle cx="948" cy="636" r="10" class="c0"/>
<circle cx="1146" cy="608" r="10" class="c0"/>
<circle cx="1144" cy="668" r="10" class="c0"/>
<circle cx="1124" cy="556" r="10" class="c0"/>
<circle cx="880" cy="976" r="10" class="c0"/>
<circle cx="978" cy="716" r="10" class="c0"/>
<circle cx="1462" cy="726" r="10" class="c0"/>
<circle cx="1864" cy="782" r="10" class="c0"/>
<circle cx="1802" cy="582" r="10" class="c0"/>
<circle cx="1888" cy="548" r="10" class="c0"/>
<circle cx="1472" cy="766" r="10" class="c0"/>
<circle cx="1366" cy="770" r="10" class="c0"/>
<circle cx="1544" cy="762" r="10" class="c0"/>
<circle cx="1388" cy="642" r="10" class="c0"/>
<circle cx="1664" cy="802" r="10" class="c0"/>
<circle cx="1394" cy="744" r="10" class="c0"/>
<circle cx="1418" cy="746" r="10" class="c0"/>
<circle cx="1908" cy="452" r="10" class="c0"/>
<circle cx="860" cy="1036" r="10" class="c0"/>
<circle cx="962" cy="834" r="10" class="c0"/>
<circle cx="834" cy="640" r="10" class="c0"/>
<circle cx="942" cy="600" r="10" class="c0"/>
<circle cx="848" cy="674" r="10" class="c0"/>
<circle cx="1874" cy="714" r="10" class="c0"/>
<circle cx="894" cy="1050" r="10" class="c0"/>
<circle cx="882" cy="702" r="10" class="c0"/>
<circle cx="1298" cy="724" r="10" class="c0"/>
<circle cx="1266" cy="726" r="10" class="c0"/>
<circle cx="1556" cy="776" r="10" class="c0"/>
<circle cx="816" cy="682" r="10" class="c0"/>
<circle cx="1870" cy="16" r="10" class="c0"/>
<circle cx="872" cy="828" r="10" class="c0"/>
<circle cx="1508" cy="674" r="10" class="c0"/>
<circle cx="982" cy="670" r="10" class="c0"/>
<circle cx="1716" cy="14" r="10" class="c0"/>
<circle cx="1528" cy="706" r="10" class="c0"/>
<circle cx="834" cy="718" r="10" class="c0"/>
<circle cx="1484" cy="716" r="10" class="c0"/>
<circle cx="1148" cy="524" r="10" class="c0"/>
<circle cx="1868" cy="806" r="10" class="c0"/>
<circle cx="1380" cy="758" r="10" class="c0"/>
<circle cx="1378" cy="824" r="10" class="c0"/>
<circle cx="1132" cy="536" r="10" class="c0"/>
<circle cx="1168" cy="638" r="10" class="c0"/>
<circle cx="730" cy="734" r="10" class="c0"/>
<circle cx="982" cy="518" r="10" class="c0"/>
<circle cx="1458" cy="792" r="10" class="c0"/>
<circle cx="1674" cy="778" r="10" class="c0"/>
<circle cx="918" cy="1048" r="10" class="c0"/>
<circle cx="1726" cy="40" r="10" class="c0"/>
<circle cx="1824" cy="532" r="10" class="c0"/>
<circle cx="1250" cy="640" r="10" class="c0"/>
<circle cx="1540" cy="804" r="10" class="c0"/>
<circle cx="1786" cy="490" r="10" class="c0"/>
<circle cx="1530" cy="730" r="10" class="c0"/>
<circle cx="1868" cy="396" r="10" class="c0"/>
<circle cx="1758" cy="620" r="10" class="c0"/>
<circle cx="1588" cy="618" r="10" class="c0"/>
<circle cx="1006" cy="632" r="10" class="c0"/>
<circle cx="1902" cy="756" r="10" class="c0"/>
<circle cx="1000" cy="498" r="10" class="c0"/>
<circle cx="1316" cy="818" r="10" class="c0"/>
<circle cx="1292" cy="592" r="10" class="c0"/>
<circle cx="1818" cy="426" r="10" class="c0"/>
<circle cx="1338" cy="752" r="10" class="c0"/>
<circle cx="768" cy="824" r="10" class="c0"/>
<circle cx="766" cy="658" r="10" class="c0"/>
<circle cx="1092" cy="588" r="10" class="c0"/>
<circle cx="1298" cy="794" r="8" class="c0"/>
<circle cx="1814" cy="638" r="8" class="c0"/>
<circle cx="1872" cy="594" r="8" class="c0"/>
<circle cx="1342" cy="614" r="8" class="c0"/>
<circle cx="1824" cy="406" r="8" class="c0"/>
<circle cx="1282" cy="626" r="8" class="c0"/>
<circle cx="894" cy="746" r="8" class="c0"/>
<circle cx="930" cy="1026" r="8" class="c0"/>
<circle cx="876" cy="556" r="8" class="c0"/>
<circle cx="790" cy="624" r="8" class="c0"/>
<circle cx="1732" cy="686" r="8" class="c0"/>
<circle cx="1454" cy="850" r="8" class="c0"/>
<circle cx="1658" cy="728" r="8" class="c0"/>
<circle cx="1418" cy="724" r="8" class="c0"/>
<circle cx="1814" cy="32" r="8" class="c0"/>
<circle cx="1180" cy="678" r="8" class="c0"/>
<circle cx="1566" cy="792" r="8" class="c0"/>
<circle cx="1742" cy="516" r="8" class="c0"/>
<circle cx="1326" cy="726" r="8" class="c0"/>
<circle cx="784" cy="786" r="8" class="c0"/>
<circle cx="1306" cy="608" r="8" class="c0"/>
<circle cx="1834" cy="502" r="8" class="c0"/>
<circle cx="1690" cy="798" r="8" class="c0"/>
<circle cx="1768" cy="16" r="8" class="c0"/>
<circle cx="1382" cy="866" r="8" class="c0"/>
<circle cx="786" cy="736" r="8" class="c0"/>
<circle cx="930" cy="568" r="8" class="c0"/>
<circle cx="1516" cy="852" r="8" class="c0"/>
<circle cx="1340" cy="846" r="8" class="c0"/>
<circle cx="1758" cy="722" r="8" class="c0"/>
<circle cx="1830" cy="718" r="8" class="c0"/>
<circle cx="1522" cy="660" r="8" class="c0"/>
<circle cx="900" cy="594" r="8" class="c0"/>
<circle cx="952" cy="910" r="8" class="c0"/>
<circle cx="1894" cy="702" r="8" class="c0"/>
<circle cx="948" cy="1044" r="8" class="c0"/>
<circle cx="1900" cy="508" r="8" class="c0"/>
<circle cx="1830" cy="442" r="8" class="c0"/>
<circle cx="964" cy="810" r="8" class="c0"/>
<circle cx="1200" cy="544" r="8" class="c0"/>
<circle cx="1236" cy="572" r="8" class="c0"/>
<circle cx="1836" cy="746" r="8" class="c0"/>
<circle cx="830" cy="588" r="8" class="c0"/>
<circle cx="1830" cy="388" r="8" class="c0"/>
<circle cx="1394" cy="702" r="8" class="c0"/>
<circle cx="848" cy="598" r="8" class="c0"/>
<circle cx="1032" cy="660" r="8" class="c0"/>
<circle cx="1286" cy="652" r="8" class="c0"/>
<circle cx="808" cy="598" r="8" class="c0"/>
<circle cx="1004" cy="532" r="8" class="c0"/>
<circle cx="900" cy="646" r="8" class="c0"/>
<circle cx="1752" cy="504" r="8" class="c0"/>
<circle cx="1566" cy="724" r="8" class="c0"/>
<circle cx="966" cy="746" r="8" class="c0"/>
<circle cx="1382" cy="804" r="8" class="c0"/>
<circle cx="1432" cy="846" r="8" class="c0"/>
<circle cx="1842" cy="782" r="8" class="c0"/>
<circle cx="1784" cy="516" r="8" class="c0"/>
<circle cx="946" cy="808" r="8" class="c0"/>
<circle cx="944" cy="842" r="8" class="c0"/>
<circle cx="1538" cy="834" r="8" class="c0"/>
<circle cx="1856" cy="748" r="8" class="c0"/>
<circle cx="1818" cy="668" r="8" class="c0"/>
<circle cx="1350" cy="810" r="8" class="c0"/>
<circle cx="1888" cy="402" r="8" class="c0"/>
<circle cx="924" cy="616" r="8" class="c0"/>
<circle cx="1082" cy="496" r="8" class="c0"/>
<circle cx="870" cy="686" r="8" class="c0"/>
<circle cx="1766" cy="48" r="8" class="c0"/>
<circle cx="1262" cy="584" r="8" class="c0"/>
<circle cx="1646" cy="776" r="8" class="c0"/>
<circle cx="1090" cy="548" r="8" class="c0"/>
<circle cx="1900" cy="30" r="8" class="c0"/>
<circle cx="1794" cy="558" r="8" class="c0"/>
<circle cx="1808" cy="822" r="8" class="c0"/>
<circle cx="1794" cy="736" r="8" class="c0"/>
<circle cx="1772" cy="504" r="8" class="c0"/>
<circle cx="1102" cy="520" r="8" class="c0"/>
<circle cx="1864" cy="456" r="8" class="c0"/>
<circle cx="1516" cy="774" r="8" class="c0"/>
<circle cx="1104" cy="640" r="8" class="c0"/>
<circle cx="1466" cy="820" r="8" class="c0"/>
<circle cx="966" cy="590" r="8" class="c0"/>
<circle cx="1264" cy="704" r="8" class="c0"/>
<circle cx="878" cy="732" r="8" class="c0"/>
<circle cx="948" cy="1014" r="8" class="c0"/>
<circle cx="1822" cy="770" r="8" class="c0"/>
<circle cx="970" cy="656" r="8" class="c0"/>
<circle cx="1222" cy="704" r="8" class="c0"/>
<circle cx="1836" cy="472" r="8" class="c0"/>
<circle cx="930" cy="888" r="8" class="c0"/>
<circle cx="858" cy="706" r="8" class="c0"/>
<circle cx="950" cy="524" r="8" class="c0"/>
<circle cx="972" cy="554" r="8" class="c0"/>
<circle cx="1364" cy="846" r="8" class="c0"/>
<circle cx="1216" cy="592" r="8" class="c0"/>
<circle cx="880" cy="672" r="8" class="c0"/>
<circle cx="978" cy="634" r="8" class="c0"/>
<circle cx="1656" cy="640" r="8" class="c0"/>
<circle cx="1420" cy="866" r="8" class="c0"/>
<circle cx="958" cy="866" r="8" class="c0"/>
<circle cx="1750" cy="638" r="8" class="c0"/>
<circle cx="876" cy="914" r="8" class="c0"/>
<circle cx="1780" cy="594" r="8" class="c0"/>
<circle cx="1404" cy="766" r="8" class="c0"/>
<circle cx="1848" cy="728" r="8" class="c0"/>
<circle cx="1670" cy="650" r="8" class="c0"/>
<circle cx="950" cy="730" r="8" class="c0"/>
<circle cx="1590" cy="688" r="8" class="c0"/>
<circle cx="1876" cy="370" r="8" class="c0"/>
<circle cx="1498" cy="772" r="8" class="c0"/>
<circle cx="1150" cy="696" r="8" class="c0"/>
<circle cx="1724" cy="710" r="8" class="c0"/>
<circle cx="1104" cy="574" r="8" class="c0"/>
<circle cx="1788" cy="16" r="8" class="c0"/>
<circle cx="914" cy="904" r="8" class="c0"/>
<circle cx="1442" cy="738" r="8" class="c0"/>
<circle cx="1656" cy="24" r="8" class="c0"/>
<circle cx="1648" cy="670" r="8" class="c0"/>
<circle cx="1630" cy="696" r="8" class="c0"/>
<circle cx="1840" cy="430" r="8" class="c0"/>
<circle cx="1846" cy="402" r="8" class="c0"/>
<circle cx="930" cy="958" r="8" class="c0"/>
<circle cx="992" cy="732" r="8" class="c0"/>
<circle cx="1582" cy="836" r="8" class="c0"/>
<circle cx="1614" cy="804" r="8" class="c0"/>
<circle cx="1184" cy="628" r="8" class="c0"/>
<circle cx="1884" cy="792" r="8" class="c0"/>
<circle cx="1338" cy="776" r="8" class="c0"/>
<circle cx="812" cy="782" r="8" class="c0"/>
<circle cx="1636" cy="594" r="8" class="c0"/>
<circle cx="1592" cy="824" r="8" class="c0"/>
<circle cx="962" cy="542" r="8" class="c0"/>
<circle cx="826" cy="664" r="8" class="c0"/>
<circle cx="1024" cy="526" r="8" class="c0"/>
<circle cx="1876" cy="770" r="8" class="c0"/>
<circle cx="1448" cy="824" r="8" class="c0"/>
<circle cx="1772" cy="546" r="8" class="c0"/>
<circle cx="1290" cy="818" r="8" class="c0"/>
<circle cx="968" cy="1026" r="8" class="c0"/>
<circle cx="1216" cy="642" r="8" class="c0"/>
<circle cx="1660" cy="574" r="8" class="c0"/>
<circle cx="1690" cy="698" r="8" class="c0"/>
<circle cx="1906" cy="528" r="8" class="c0"/>
<circle cx="1132" cy="590" r="8" class="c0"/>
<circle cx="1668" cy="616" r="8" class="c0"/>
<circle cx="1708" cy="526" r="8" class="c0"/>
<circle cx="910" cy="870" r="8" class="c0"/>
<circle cx="1808" cy="620" r="8" class="c0"/>
<circle cx="1908" cy="732" r="8" class="c0"/>
<circle cx="880" cy="1018" r="8" class="c0"/>
<circle cx="972" cy="608" r="8" class="c0"/>
<circle cx="1578" cy="668" r="8" class="c0"/>
<circle cx="1032" cy="484" r="8" class="c0"/>
<circle cx="900" cy="914" r="8" class="c0"/>
<circle cx="1476" cy="846" r="8" class="c0"/>
<circle cx="1644" cy="630" r="8" class="c0"/>
<circle cx="988" cy="542" r="8" class="c0"/>
<circle cx="1308" cy="742" r="8" class="c0"/>
<circle cx="1900" cy="682" r="8" class="c0"/>
<circle cx="1750" cy="594" r="8" class="c0"/>
<circle cx="1608" cy="702" r="8" class="c0"/>
<circle cx="1714" cy="750" r="8" class="c0"/>
<circle cx="1826" cy="792" r="8" class="c0"/>
<circle cx="1888" cy="620" r="8" class="c0"/>
<circle cx="1834" cy="42" r="8" class="c0"/>
<circle cx="1182" cy="604" r="8" class="c0"/>
<circle cx="1166" cy="708" r="8" class="c0"/>
<circle cx="1518" cy="806" r="8" class="c0"/>
<circle cx="1604" cy="16" r="8" class="c0"/>
<circle cx="1428" cy="692" r="8" class="c0"/>
<circle cx="1738" cy="740" r="8" class="c0"/>
<circle cx="1860" cy="610" r="8" class="c0"/>
<circle cx="1440" cy="808" r="8" class="c0"/>
<circle cx="1050" cy="550" r="8" class="c0"/>
<circle cx="1444" cy="706" r="8" class="c0"/>
<circle cx="1562" cy="846" r="8" class="c0"/>
<circle cx="1410" cy="648" r="8" class="c0"/>
<circle cx="926" cy="988" r="8" class="c0"/>
<circle cx="1418" cy="674" r="8" class="c0"/>
<circle cx="1884" cy="692" r="8" class="c0"/>
<circle cx="748" cy="752" r="8" class="c0"/>
<circle cx="1812" cy="552" r="8" class="c0"/>
<circle cx="1884" cy="438" r="8" class="c0"/>
<circle cx="1718" cy="582" r="8" class="c0"/>
<circle cx="906" cy="1030" r="8" class="c0"/>
<circle cx="1486" cy="662" r="8" class="c0"/>
<circle cx="1592" cy="790" r="8" class="c0"/>
<circle cx="792" cy="682" r="8" class="c0"/>
<circle cx="1266" cy="786" r="8" class="c0"/>
<circle cx="728" cy="760" r="8" class="c0"/>
<circle cx="854" cy="838" r="8" class="c0"/>
<circle cx="940" cy="898" r="8" class="c0"/>
<circle cx="1000" cy="612" r="8" class="c0"/>
<circle cx="1148" cy="628" r="8" class="c0"/>
<circle cx="1262" cy="618" r="8" class="c0"/>
<circle cx="1668" cy="56" r="8" class="c0"/>
<circle cx="940" cy="558" r="8" class="c0"/>
<circle cx="1054" cy="578" r="8" class="c0"/>
<circle cx="734" cy="714" r="8" class="c0"/>
<circle cx="808" cy="728" r="8" class="c0"/>
<circle cx="1582" cy="810" r="8" class="c0"/>
<circle cx="1854" cy="488" r="8" class="c0"/>
<circle cx="1548" cy="672" r="8" class="c0"/>
<circle cx="1812" cy="470" r="8" class="c0"/>
<circle cx="1876" cy="530" r="8" class="c0"/>
<circle cx="1550" cy="710" r="8" class="c0"/>
<circle cx="922" cy="740" r="8" class="c0"/>
<circle cx="1358" cy="794" r="8" class="c0"/>
<circle cx="1792" cy="796" r="8" class="c0"/>
<circle cx="1844" cy="454" r="8" class="c0"/>
<circle cx="1248" cy="662" r="8" class="c0"/>
<circle cx="1792" cy="612" r="8" class="c0"/>
<circle cx="1796" cy="634" r="8" class="c0"/>
<circle cx="1726" cy="790" r="8" class="c0"/>
<circle cx="1890" cy="470" r="8" class="c0"/>
<circle cx="990" cy="562" r="8" class="c0"/>
<circle cx="1264" cy="652" r="8" class="c0"/>
<circle cx="1644" cy="8" r="8" class="c0"/>
<circle cx="1730" cy="642" r="8" class="c0"/>
<circle cx="1650" cy="60" r="8" class="c0"/>
<circle cx="948" cy="576" r="8" class="c0"/>
<circle cx="1412" cy="824" r="8" class="c0"/>
<circle cx="1616" cy="722" r="8" class="c0"/>
<circle cx="1770" cy="738" r="8" class="c0"/>
<circle cx="1500" cy="792" r="8" class="c0"/>
<circle cx="1322" cy="628" r="8" class="c0"/>
<circle cx="1832" cy="22" r="8" class="c0"/>
<circle cx="1798" cy="714" r="8" class="c0"/>
<circle cx="1834" cy="566" r="8" class="c0"/>
<circle cx="1804" cy="48" r="8" class="c0"/>
<circle cx="1258" cy="754" r="8" class="c0"/>
<circle cx="1766" cy="778" r="8" class="c0"/>
<circle cx="1336" cy="796" r="8" class="c0"/>
<circle cx="1050" cy="494" r="8" class="c0"/>
<circle cx="912" cy="932" r="8" class="c0"/>
<circle cx="836" cy="842" r="8" class="c0"/>
<circle cx="1910" cy="660" r="8" class="c0"/>
<circle cx="1316" cy="668" r="8" class="c0"/>
<circle cx="1380" cy="680" r="8" class="c0"/>
<circle cx="1574" cy="650" r="8" class="c0"/>
<circle cx="1018" cy="614" r="8" class="c0"/>
<circle cx="1014" cy="514" r="8" class="c0"/>
<circle cx="1806" cy="754" r="8" class="c0"/>
<circle cx="1360" cy="688" r="8" class="c0"/>
<circle cx="1780" cy="708" r="8" class="c0"/>
<circle cx="896" cy="834" r="8" class="c0"/>
<circle cx="1720" cy="630" r="8" class="c0"/>
<circle cx="1744" cy="656" r="8" class="c0"/>
<circle cx="1108" cy="658" r="8" class="c0"/>
<circle cx="862" cy="862" r="8" class="c0"/>
<circle cx="1322" cy="598" r="8" class="c0"/>
<circle cx="822" cy="746" r="8" class="c0"/>
<circle cx="1650" cy="702" r="8" class="c0"/>
<circle cx="1850" cy="28" r="8" class="c0"/>
<circle cx="1902" cy="8" r="8" class="c0"/>
<circle cx="936" cy="860" r="8" class="c0"/>
<circle cx="1230" cy="764" r="8" class="c0"/>
<circle cx="1070" cy="516" r="8" class="c0"/>
<circle cx="1630" cy="768" r="8" class="c0"/>
<circle cx="1726" cy="730" r="8" class="c0"/>
<circle cx="1850" cy="596" r="8" class="c0"/>
<circle cx="988" cy="584" r="8" class="c0"/>
<circle cx="1904" cy="712" r="8" class="c0"/>
<circle cx="1110" cy="504" r="8" class="c0"/>
<circle cx="982" cy="806" r="8" class="c0"/>
<circle cx="1576" cy="762" r="8" class="c0"/>
<circle cx="828" cy="800" r="8" class="c0"/>
<circle cx="846" cy="652" r="8" class="c0"/>
<circle cx="1364" cy="668" r="8" class="c0"/>
<circle cx="776" cy="674" r="8" class="c0"/>
<circle cx="964" cy="508" r="8" class="c0"/>
<circle cx="812" cy="644" r="8" class="c0"/>
<circle cx="1782" cy="574" r="8" class="c0"/>
<circle cx="914" cy="584" r="8" class="c0"/>
<circle cx="1164" cy="548" r="8" class="c0"/>
<circle cx="1108" cy="544" r="8" class="c0"/>
<circle cx="1272" cy="594" r="8" class="c0"/>
<circle cx="1284" cy="708" r="8" class="c0"/>
<circle cx="1752" cy="24" r="8" class="c0"/>
<circle cx="884" cy="632" r="8" class="c0"/>
<circle cx="770" cy="698" r="8" class="c0"/>
<circle cx="1246" cy="788" r="8" class="c0"/>
<circle cx="774" cy="640" r="8" class="c0"/>
<circle cx="870" cy="1008" r="8" class="c0"/>
<circle cx="1738" cy="14" r="8" class="c0"/>
<circle cx="1844" cy="378" r="8" class="c0"/>
<circle cx="1786" cy="536" r="8" class="c0"/>
<circle cx="1342" cy="716" r="8" class="c0"/>
<circle cx="1860" cy="580" r="8" class="c0"/>
<circle cx="1178" cy="572" r="8" class="c0"/>
<circle cx="1350" cy="836" r="8" class="c0"/>
<circle cx="1826" cy="824" r="8" class="c0"/>
<circle cx="1700" cy="682" r="8" class="c0"/>
<circle cx="1908" cy="610" r="8" class="c0"/>
<circle cx="838" cy="696" r="8" class="c0"/>
<circle cx="1852" cy="710" r="8" class="c0"/>
<circle cx="1220" cy="722" r="8" class="c0"/>
<circle cx="1404" cy="688" r="8" class="c0"/>
<circle cx="1464" cy="864" r="8" class="c0"/>
<circle cx="1910" cy="548" r="8" class="c0"/>
<circle cx="1756" cy="754" r="8" class="c0"/>
<circle cx="898" cy="680" r="8" class="c0"/>
<circle cx="990" cy="622" r="8" class="c0"/>
<circle cx="932" cy="1062" r="8" class="c0"/>
<circle cx="1640" cy="814" r="8" class="c0"/>
<circle cx="892" cy="880" r="8" class="c0"/>
<circle cx="1644" cy="40" r="8" class="c0"/>
<circle cx="1384" cy="848" r="8" class="c0"/>
<circle cx="1810" cy="8" r="8" class="c0"/>
<circle cx="1904" cy="480" r="8" class="c0"/>
<circle cx="1380" cy="724" r="8" class="c0"/>
<circle cx="1834" cy="610" r="8" class="c0"/>
<circle cx="1894" cy="774" r="8" class="c0"/>
<circle cx="1704" cy="556" r="8" class="c0"/>
<circle cx="1044" cy="588" r="8" class="c0"/>
<circle cx="1834" cy="660" r="8" class="c0"/>
<circle cx="1806" cy="784" r="8" class="c0"/>
<circle cx="1782" cy="36" r="8" class="c0"/>
<circle cx="1724" cy="508" r="8" class="c0"/>
<circle cx="1792" cy="660" r="8" class="c0"/>
<circle cx="760" cy="770" r="8" class="c0"/>
<circle cx="1244" cy="712" r="8" class="c0"/>
<circle cx="1846" cy="764" r="8" class="c0"/>
<circle cx="1714" cy="694" r="8" class="c0"/>
<circle cx="1128" cy="512" r="8" class="c0"/>
<circle cx="1910" cy="570" r="8" class="c0"/>
<circle cx="1200" cy="668" r="8" class="c0"/>
<circle cx="1820" cy="734" r="8" class="c0"/>
<circle cx="1198" cy="646" r="8" class="c0"/>
<circle cx="1650" cy="612" r="8" class="c0"/>
<circle cx="1096" cy="614" r="8" class="c0"/>
<circle cx="1458" cy="746" r="8" class="c0"/>
<circle cx="740" cy="772" r="8" class="c0"/>
<circle cx="848" cy="622" r="8" class="c0"/>
<circle cx="1516" cy="642" r="8" class="c0"/>
<circle cx="1190" cy="558" r="8" class="c0"/>
<circle cx="1666" cy="34" r="8" class="c0"/>
<circle cx="1688" cy="42" r="8" class="c0"/>
<circle cx="1570" cy="702" r="8" class="c0"/>
<circle cx="890" cy="996" r="8" class="c0"/>
<circle cx="1318" cy="846" r="8" class="c0"/>
<circle cx="858" cy="898" r="8" class="c0"/>
<circle cx="1616" cy="778" r="8" class="c0"/>
<circle cx="1808" cy="450" r="8" class="c0"/>
<circle cx="906" cy="792" r="8" class="c0"/>
<circle cx="1142" cy="578" r="8" class="c0"/>
<circle cx="1906" cy="360" r="8" class="c0"/>
<circle cx="1426" cy="780" r="8" class="c0"/>
<circle cx="1886" cy="518" r="8" class="c0"/>
<circle cx="1192" cy="726" r="8" class="c0"/>
<circle cx="1864" cy="654" r="8" class="c0"/>
<circle cx="1506" cy="726" r="8" class="c0"/>
<circle cx="866" cy="804" r="8" class="c0"/>
<circle cx="1618" cy="588" r="8" class="c0"/>
<circle cx="972" cy="794" r="8" class="c0"/>
<circle cx="1496" cy="650" r="8" class="c0"/>
<circle cx="1636" cy="716" r="8" class="c0"/>
<circle cx="1486" cy="738" r="8" class="c0"/>
<circle cx="1584" cy="16" r="8" class="c0"/>
<circle cx="1248" cy="768" r="8" class="c0"/>
<circle cx="1468" cy="664" r="8" class="c0"/>
<circle cx="1538" cy="682" r="8" class="c0"/>
<circle cx="882" cy="604" r="8" class="c0"/>
<circle cx="1714" cy="610" r="8" class="c0"/>
<circle cx="1000" cy="652" r="8" class="c0"/>
<circle cx="1558" cy="740" r="8" class="c0"/>
<circle cx="1590" cy="642" r="8" class="c0"/>
<circle cx="884" cy="792" r="8" class="c0"/>
<circle cx="1624" cy="824" r="8" class="c0"/>
<circle cx="1842" cy="644" r="8" class="c0"/>
<circle cx="1894" cy="652" r="8" class="c0"/>
<circle cx="1568" cy="620" r="8" class="c0"/>
<circle cx="1396" cy="816" r="8" class="c0"/>
<circle cx="1748" cy="58" r="8" class="c0"/>
<circle cx="1778" cy="622" r="8" class="c0"/>
<circle cx="1534" cy="648" r="8" class="c0"/>
<circle cx="1528" cy="792" r="8" class="c0"/>
<circle cx="1702" cy="786" r="8" class="c0"/>
<circle cx="1236" cy="622" r="8" class="c0"/>
<circle cx="1668" cy="596" r="8" class="c0"/>
<circle cx="938" cy="1004" r="8" class="c0"/>
<circle cx="890" cy="662" r="8" class="c0"/>
<circle cx="1272" cy="668" r="8" class="c0"/>
<circle cx="970" cy="1048" r="8" class="c0"/>
<circle cx="1582" cy="780" r="8" class="c0"/>
<circle cx="940" cy="878" r="8" class="c0"/>
<circle cx="778" cy="720" r="8" class="c0"/>
<circle cx="1168" cy="692" r="6" class="c0"/>
<circle cx="1082" cy="634" r="6" class="c0"/>
<circle cx="1118" cy="522" r="6" class="c0"/>
<circle cx="866" cy="720" r="6" class="c0"/>
<circle cx="866" cy="992" r="6" class="c0"/>
<circle cx="1380" cy="660" r="6" class="c0"/>
<circle cx="1408" cy="790" r="6" class="c0"/>
<circle cx="918" cy="534" r="6" class="c0"/>
<circle cx="1020" cy="650" r="6" class="c0"/>
<circle cx="1170" cy="532" r="6" class="c0"/>
<circle cx="1852" cy="816" r="6" class="c0"/>
<circle cx="1278" cy="578" r="6" class="c0"/>
<circle cx="860" cy="632" r="6" class="c0"/>
<circle cx="1898" cy="600" r="6" class="c0"/>
<circle cx="934" cy="796" r="6" class="c0"/>
<circle cx="1154" cy="654" r="6" class="c0"/>
<circle cx="1622" cy="6" r="6" class="c0"/>
<circle cx="1552" cy="654" r="6" class="c0"/>
<circle cx="1072" cy="586" r="6" class="c0"/>
<circle cx="1798" cy="768" r="6" class="c0"/>
<circle cx="868" cy="884" r="6" class="c0"/>
<circle cx="1360" cy="864" r="6" class="c0"/>
<circle cx="1300" cy="832" r="6" class="c0"/>
<circle cx="1840" cy="582" r="6" class="c0"/>
<circle cx="1304" cy="704" r="6" class="c0"/>
<circle cx="1134" cy="682" r="6" class="c0"/>
<circle cx="1236" cy="650" r="6" class="c0"/>
<circle cx="1894" cy="722" r="6" class="c0"/>
<circle cx="804" cy="796" r="6" class="c0"/>
<circle cx="1428" cy="658" r="6" class="c0"/>
<circle cx="1818" cy="510" r="6" class="c0"/>
<circle cx="1912" cy="408" r="6" class="c0"/>
<circle cx="1756" cy="668" r="6" class="c0"/>
<circle cx="1012" cy="572" r="6" class="c0"/>
<circle cx="978" cy="826" r="6" class="c0"/>
<circle cx="1120" cy="616" r="6" class="c0"/>
<circle cx="1740" cy="672" r="6" class="c0"/>
<circle cx="1122" cy="576" r="6" class="c0"/>
<circle cx="1864" cy="476" r="6" class="c0"/>
<circle cx="1698" cy="10" r="6" class="c0"/>
<circle cx="1404" cy="870" r="6" class="c0"/>
<circle cx="1522" cy="686" r="6" class="c0"/>
<circle cx="1372" cy="740" r="6" class="c0"/>
<circle cx="962" cy="568" r="6" class="c0"/>
<circle cx="1516" cy="834" r="6" class="c0"/>
<circle cx="1222" cy="564" r="6" class="c0"/>
<circle cx="1736" cy="586" r="6" class="c0"/>
<circle cx="1732" cy="530" r="6" class="c0"/>
<circle cx="1608" cy="684" r="6" class="c0"/>
<circle cx="1478" cy="784" r="6" class="c0"/>
<circle cx="1122" cy="672" r="6" class="c0"/>
<circle cx="1540" cy="744" r="6" class="c0"/>
<circle cx="1430" cy="818" r="6" class="c0"/>
<circle cx="1602" cy="834" r="6" class="c0"/>
<circle cx="840" cy="820" r="6" class="c0"/>
<circle cx="1534" cy="622" r="6" class="c0"/>
<circle cx="1802" cy="480" r="6" class="c0"/>
<circle cx="1868" cy="500" r="6" class="c0"/>
<circle cx="1892" cy="374" r="6" class="c0"/>
<circle cx="1256" cy="568" r="6" class="c0"/>
<circle cx="968" cy="856" r="6" class="c0"/>
<circle cx="1608" cy="820" r="6" class="c0"/>
<circle cx="894" cy="898" r="6" class="c0"/>
<circle cx="948" cy="960" r="6" class="c0"/>
<circle cx="904" cy="816" r="6" class="c0"/>
<circle cx="1610" cy="740" r="6" class="c0"/>
<circle cx="834" cy="784" r="6" class="c0"/>
<circle cx="1742" cy="720" r="6" class="c0"/>
<circle cx="1492" cy="862" r="6" class="c0"/>
<circle cx="960" cy="766" r="6" class="c0"/>
<circle cx="1912" cy="432" r="6" class="c0"/>
<circle cx="1770" cy="526" r="6" class="c0"/>
<circle cx="1606" cy="622" r="6" class="c0"/>
<circle cx="828" cy="770" r="6" class="c0"/>
<circle cx="958" cy="998" r="6" class="c0"/>
<circle cx="1160" cy="678" r="6" class="c0"/>
<circle cx="802" cy="672" r="6" class="c0"/>
<circle cx="1748" cy="782" r="6" class="c0"/>
<circle cx="1528" cy="750" r="6" class="c0"/>
<circle cx="1560" cy="662" r="6" class="c0"/>
<circle cx="1334" cy="638" r="6" class="c0"/>
<circle cx="1030" cy="602" r="6" class="c0"/>
<circle cx="924" cy="596" r="6" class="c0"/>
<circle cx="866" cy="598" r="6" class="c0"/>
<circle cx="1448" cy="870" r="6" class="c0"/>
<circle cx="1634" cy="578" r="6" class="c0"/>
<circle cx="1864" cy="698" r="6" class="c0"/>
<circle cx="1746" cy="554" r="6" class="c0"/>
<circle cx="1632" cy="652" r="6" class="c0"/>
<circle cx="1428" cy="714" r="6" class="c0"/>
<circle cx="1804" cy="650" r="6" class="c0"/>
<circle cx="1296" cy="668" r="6" class="c0"/>
<circle cx="1364" cy="646" r="6" class="c0"/>
<circle cx="1270" cy="744" r="6" class="c0"/>
<circle cx="1204" cy="712" r="6" class="c0"/>
<circle cx="754" cy="708" r="6" class="c0"/>
<circle cx="1808" cy="688" r="6" class="c0"/>
<circle cx="1786" cy="52" r="6" class="c0"/>
<circle cx="1318" cy="792" r="6" class="c0"/>
<circle cx="1698" cy="52" r="6" class="c0"/>
<circle cx="1772" cy="668" r="6" class="c0"/>
<circle cx="746" cy="790" r="6" class="c0"/>
<circle cx="1206" cy="694" r="6" class="c0"/>
<circle cx="836" cy="612" r="6" class="c0"/>
<circle cx="1866" cy="760" r="6" class="c0"/>
<circle cx="990" cy="602" r="6" class="c0"/>
<circle cx="922" cy="942" r="6" class="c0"/>
<circle cx="1594" cy="6" r="6" class="c0"/>
<circle cx="1414" cy="700" r="6" class="c0"/>
<circle cx="1350" cy="856" r="6" class="c0"/>
<circle cx="1054" cy="636" r="6" class="c0"/>
<circle cx="1682" cy="718" r="6" class="c0"/>
<circle cx="1712" cy="774" r="6" class="c0"/>
<circle cx="1554" cy="694" r="6" class="c0"/>
<circle cx="894" cy="722" r="6" class="c0"/>
<circle cx="1484" cy="678" r="6" class="c0"/>
<circle cx="1024" cy="634" r="6" class="c0"/>
<circle cx="1060" cy="484" r="6" class="c0"/>
<circle cx="1182" cy="538" r="6" class="c0"/>
<circle cx="1716" cy="650" r="6" class="c0"/>
<circle cx="1616" cy="754" r="6" class="c0"/>
<circle cx="912" cy="606" r="6" class="c0"/>
<circle cx="1578" cy="632" r="6" class="c0"/>
<circle cx="1040" cy="646" r="6" class="c0"/>
<circle cx="928" cy="912" r="6" class="c0"/>
<circle cx="954" cy="1064" r="6" class="c0"/>
<circle cx="1868" cy="440" r="6" class="c0"/>
<circle cx="1290" cy="742" r="6" class="c0"/>
<circle cx="1314" cy="714" r="6" class="c0"/>
<circle cx="874" cy="1050" r="6" class="c0"/>
<circle cx="1214" cy="556" r="6" class="c0"/>
<circle cx="1290" cy="778" r="6" class="c0"/>
<circle cx="1848" cy="10" r="6" class="c0"/>
<circle cx="1882" cy="816" r="6" class="c0"/>
<circle cx="1508" cy="816" r="6" class="c0"/>
<circle cx="848" cy="1048" r="6" class="c0"/>
<circle cx="800" cy="612" r="6" class="c0"/>
<circle cx="956" cy="620" r="6" class="c0"/>
<circle cx="1850" cy="568" r="6" class="c0"/>
<circle cx="1912" cy="494" r="6" class="c0"/>
<circle cx="1598" cy="808" r="6" class="c0"/>
<circle cx="1466" cy="706" r="6" class="c0"/>
<circle cx="1912" cy="644" r="6" class="c0"/>
<circle cx="1108" cy="624" r="6" class="c0"/>
<circle cx="1742" cy="704" r="6" class="c0"/>
<circle cx="1884" cy="604" r="6" class="c0"/>
<circle cx="1652" cy="588" r="6" class="c0"/>
<circle cx="1536" cy="850" r="6" class="c0"/>
<circle cx="1804" cy="504" r="6" class="c0"/>
<circle cx="878" cy="892" r="6" class="c0"/>
<circle cx="1524" cy="824" r="6" class="c0"/>
<circle cx="1912" cy="784" r="6" class="c0"/>
<circle cx="1060" cy="504" r="6" class="c0"/>
<circle cx="1598" cy="658" r="6" class="c0"/>
<circle cx="1366" cy="808" r="6" class="c0"/>
<circle cx="1824" cy="622" r="6" class="c0"/>
<circle cx="1830" cy="6" r="6" class="c0"/>
<circle cx="1438" cy="722" r="6" class="c0"/>
<circle cx="1790" cy="752" r="6" class="c0"/>
<circle cx="1812" cy="802" r="6" class="c0"/>
<circle cx="1706" cy="572" r="6" class="c0"/>
<circle cx="1022" cy="494" r="6" class="c0"/>
<circle cx="892" cy="544" r="6" class="c0"/>
<circle cx="1702" cy="662" r="6" class="c0"/>
<circle cx="1260" cy="804" r="6" class="c0"/>
<circle cx="1164" cy="610" r="6" class="c0"/>
<circle cx="1422" cy="764" r="6" class="c0"/>
<circle cx="894" cy="864" r="6" class="c0"/>
<circle cx="782" cy="814" r="6" class="c0"/>
<circle cx="896" cy="572" r="6" class="c0"/>
<circle cx="1422" cy="834" r="6" class="c0"/>
<circle cx="984" cy="688" r="6" class="c0"/>
<circle cx="1348" cy="698" r="6" class="c0"/>
<circle cx="1350" cy="640" r="6" class="c0"/>
<circle cx="1726" cy="60" r="6" class="c0"/>
<circle cx="828" cy="604" r="6" class="c0"/>
<circle cx="1578" cy="604" r="6" class="c0"/>
<circle cx="868" cy="950" r="6" class="c0"/>
<circle cx="1020" cy="542" r="6" class="c0"/>
<circle cx="1764" cy="586" r="6" class="c0"/>
<circle cx="1910" cy="694" r="6" class="c0"/>
<circle cx="1740" cy="568" r="6" class="c0"/>
<circle cx="912" cy="826" r="6" class="c0"/>
<circle cx="876" cy="870" r="6" class="c0"/>
<circle cx="1892" cy="736" r="6" class="c0"/>
<circle cx="1682" cy="684" r="6" class="c0"/>
<circle cx="1860" cy="368" r="6" class="c0"/>
<circle cx="1746" cy="40" r="6" class="c0"/>
<circle cx="1808" cy="602" r="6" class="c0"/>
<circle cx="868" cy="788" r="6" class="c0"/>
<circle cx="972" cy="696" r="6" class="c0"/>
<circle cx="1836" cy="544" r="6" class="c0"/>
<circle cx="1782" cy="646" r="6" class="c0"/>
<circle cx="1200" cy="598" r="6" class="c0"/>
<circle cx="1842" cy="826" r="6" class="c0"/>
<circle cx="1808" cy="724" r="6" class="c0"/>
<circle cx="1826" cy="458" r="6" class="c0"/>
<circle cx="1090" cy="510" r="6" class="c0"/>
<circle cx="914" cy="950" r="6" class="c0"/>
<circle cx="1598" cy="746" r="6" class="c0"/>
<circle cx="900" cy="852" r="6" class="c0"/>
<circle cx="868" cy="640" r="6" class="c0"/>
<circle cx="1400" cy="722" r="6" class="c0"/>
<circle cx="1092" cy="532" r="6" class="c0"/>
<circle cx="1768" cy="604" r="6" class="c0"/>
<circle cx="928" cy="524" r="6" class="c0"/>
<circle cx="1632" cy="680" r="6" class="c0"/>
<circle cx="1270" cy="636" r="6" class="c0"/>
<circle cx="1356" cy="756" r="6" class="c0"/>
<circle cx="974" cy="574" r="6" class="c0"/>
<circle cx="1870" cy="684" r="6" class="c0"/>
<circle cx="1234" cy="748" r="6" class="c0"/>
<circle cx="854" cy="1018" r="6" class="c0"/>
<circle cx="1674" cy="748" r="6" class="c0"/>
<circle cx="1440" cy="788" r="6" class="c0"/>
<circle cx="1282" cy="608" r="6" class="c0"/>
<circle cx="760" cy="680" r="6" class="c0"/>
<circle cx="1240" cy="696" r="6" class="c0"/>
<circle cx="1844" cy="554" r="6" class="c0"/>
<circle cx="1676" cy="634" r="6" class="c0"/>
<circle cx="896" cy="1014" r="6" class="c0"/>
<circle cx="890" cy="1028" r="6" class="c0"/>
<circle cx="976" cy="734" r="6" class="c0"/>
<circle cx="1480" cy="830" r="6" class="c0"/>
<circle cx="1812" cy="702" r="6" class="c0"/>
<circle cx="1536" cy="778" r="6" class="c0"/>
<circle cx="1864" cy="730" r="6" class="c0"/>
<circle cx="1378" cy="788" r="6" class="c0"/>
<circle cx="1300" cy="632" r="6" class="c0"/>
<circle cx="1032" cy="548" r="6" class="c0"/>
<circle cx="1656" cy="818" r="6" class="c0"/>
<circle cx="1380" cy="626" r="6" class="c0"/>
<circle cx="1740" cy="626" r="6" class="c0"/>
<circle cx="846" cy="852" r="6" class="c0"/>
<circle cx="946" cy="788" r="6" class="c0"/>
<circle cx="1548" cy="616" r="6" class="c0"/>
<circle cx="1188" cy="588" r="6" class="c0"/>
<circle cx="908" cy="1062" r="6" class="c0"/>
<circle cx="1854" cy="466" r="6" class="c0"/>
<circle cx="1200" cy="630" r="6" class="c0"/>
<circle cx="1762" cy="514" r="6" class="c0"/>
<circle cx="1680" cy="606" r="6" class="c0"/>
<circle cx="868" cy="932" r="6" class="c0"/>
<circle cx="1084" cy="524" r="6" class="c0"/>
<circle cx="1192" cy="614" r="6" class="c0"/>
<circle cx="1134" cy="654" r="6" class="c0"/>
<circle cx="1394" cy="834" r="6" class="c0"/>
<circle cx="982" cy="748" r="6" class="c0"/>
<circle cx="1178" cy="718" r="6" class="c0"/>
<circle cx="778" cy="838" r="6" class="c0"/>
<circle cx="908" cy="990" r="6" class="c0"/>
<circle cx="860" cy="732" r="6" class="c0"/>
<circle cx="1888" cy="454" r="6" class="c0"/>
<circle cx="1634" cy="58" r="6" class="c0"/>
<circle cx="1876" cy="412" r="6" class="c0"/>
<circle cx="1778" cy="724" r="6" class="c0"/>
<circle cx="1764" cy="488" r="6" class="c0"/>
<circle cx="1226" cy="632" r="6" class="c0"/>
<circle cx="1360" cy="826" r="6" class="c0"/>
<circle cx="840" cy="1038" r="6" class="c0"/>
<circle cx="1708" cy="802" r="6" class="c0"/>
<circle cx="1364" cy="748" r="6" class="c0"/>
<circle cx="1458" cy="834" r="6" class="c0"/>
<circle cx="1548" cy="728" r="6" class="c0"/>
<circle cx="1818" cy="572" r="6" class="c0"/>
<circle cx="1100" cy="494" r="6" class="c0"/>
<circle cx="1888" cy="20" r="6" class="c0"/>
<circle cx="752" cy="672" r="6" class="c0"/>
<circle cx="910" cy="888" r="6" class="c0"/>
<circle cx="932" cy="730" r="6" class="c0"/>
<circle cx="908" cy="732" r="6" class="c0"/>
<circle cx="1784" cy="782" r="6" class="c0"/>
<circle cx="1894" cy="566" r="6" class="c0"/>
<circle cx="802" cy="634" r="6" class="c0"/>
<circle cx="1292" cy="616" r="6" class="c0"/>
<circle cx="1162" cy="566" r="6" class="c0"/>
<circle cx="1274" cy="686" r="6" class="c0"/>
<circle cx="1476" cy="748" r="6" class="c0"/>
<circle cx="754" cy="810" r="6" class="c0"/>
<circle cx="1802" cy="674" r="6" class="c0"/>
<circle cx="1526" cy="764" r="6" class="c0"/>
<circle cx="1680" cy="810" r="6" class="c0"/>
<circle cx="1400" cy="798" r="6" class="c0"/>
<circle cx="1886" cy="6" r="6" class="c0"/>
<circle cx="978" cy="498" r="6" class="c0"/>
<circle cx="910" cy="752" r="6" class="c0"/>
<circle cx="1870" cy="514" r="6" class="c0"/>
<circle cx="1210" cy="658" r="6" class="c0"/>
<circle cx="1832" cy="634" r="6" class="c0"/>
<circle cx="1456" cy="810" r="6" class="c0"/>
<circle cx="1908" cy="586" r="6" class="c0"/>
<circle cx="1196" cy="684" r="6" class="c0"/>
<circle cx="1598" cy="52" r="6" class="c0"/>
<circle cx="1436" cy="864" r="6" class="c0"/>
<circle cx="1674" cy="726" r="6" class="c0"/>
<circle cx="1910" cy="40" r="6" class="c0"/>
<circle cx="882" cy="1036" r="6" class="c0"/>
<circle cx="1778" cy="6" r="6" class="c0"/>
<circle cx="1226" cy="582" r="6" class="c0"/>
<circle cx="1408" cy="714" r="6" class="c0"/>
<circle cx="1890" cy="44" r="6" class="c0"/>
<circle cx="966" cy="1010" r="6" class="c0"/>
<circle cx="1598" cy="674" r="6" class="c0"/>
<circle cx="940" cy="618" r="6" class="c0"/>
<circle cx="1798" cy="812" r="6" class="c0"/>
<circle cx="1328" cy="836" r="6" class="c0"/>
<circle cx="1824" cy="648" r="6" class="c0"/>
<circle cx="1754" cy="8" r="6" class="c0"/>
<circle cx="1874" cy="468" r="6" class="c0"/>
<circle cx="1660" cy="660" r="6" class="c0"/>
<circle cx="1214" cy="758" r="6" class="c0"/>
<circle cx="1016" cy="694" r="6" class="c0"/>
<circle cx="868" cy="742" r="6" class="c0"/>
<circle cx="1574" cy="6" r="6" class="c0"/>
<circle cx="1488" cy="756" r="6" class="c0"/>
<circle cx="888" cy="960" r="6" class="c0"/>
<circle cx="956" cy="796" r="6" class="c0"/>
<circle cx="1854" cy="442" r="6" class="c0"/>
<circle cx="934" cy="584" r="6" class="c0"/>
<circle cx="1884" cy="386" r="6" class="c0"/>
<circle cx="1912" cy="18" r="6" class="c0"/>
<circle cx="1308" cy="784" r="6" class="c0"/>
<circle cx="1798" cy="28" r="6" class="c0"/>
<circle cx="1100" cy="558" r="6" class="c0"/>
<circle cx="1886" cy="360" r="6" class="c0"/>
<circle cx="832" cy="736" r="6" class="c0"/>
<circle cx="922" cy="790" r="6" class="c0"/>
<circle cx="996" cy="680" r="6" class="c0"/>
<circle cx="1656" cy="786" r="6" class="c0"/>
<circle cx="1568" cy="28" r="6" class="c0"/>
<circle cx="1332" cy="704" r="6" class="c0"/>
<circle cx="1748" cy="578" r="6" class="c0"/>
</svg>
