<?xml version="1.0" encoding="utf-8"?>
<svg xmlns="http://www.w3.org/2000/svg"
     xmlns:xlink="http://www.w3.org/1999/xlink" width="1920" height="1440" >

            <defs>
            <style type="text/css"><![CDATA[
circle {stroke: none;}
.c0 {fill: #FFFFFF;}
]]></style>
            </defs>
<rect x="0" y="0" width="1920" height="1440" fill="black"/>
<circle cx="972" cy="1044" r="12" class="c0"/>
<circle cx="1170" cy="572" r="12" class="c0"/>
<circle cx="988" cy="760" r="12" class="c0"/>
<circle cx="812" cy="712" r="12" class="c0"/>
<circle cx="1660" cy="812" r="12" class="c0"/>
<circle cx="956" cy="880" r="12" class="c0"/>
<circle cx="1458" cy="842" r="12" class="c0"/>
<circle cx="1504" cy="858" r="12" class="c0"/>
<circle cx="1764" cy="758" r="12" class="c0"/>
<circle cx="1868" cy="760" r="12" class="c0"/>
<circle cx="1338" cy="638" r="12" class="c0"/>
<circle cx="1558" cy="680" r="12" class="c0"/>
<circle cx="870" cy="712" r="12" class="c0"/>
<circle cx="1828" cy="786" r="12" class="c0"/>
<circle cx="1408" cy="854" r="12" class="c0"/>
<circle cx="1772" cy="566" r="12" class="c0"/>
<circle cx="1436" cy="698" r="12" class="c0"/>
<circle cx="1526" cy="772" r="12" class="c0"/>
<circle cx="1792" cy="638" r="12" class="c0"/>
<circle cx="1332" cy="680" r="12" class="c0"/>
<circle cx="1722" cy="16" r="12" class="c0"/>
<circle cx="936" cy="856" r="12" class="c0"/>
<circle cx="1672" cy="640" r="12" class="c0"/>
<circle cx="1550" cy="788" r="12" class="c0"/>
<circle cx="1196" cy="584" r="12" class="c0"/>
<circle cx="1448" cy="812" r="12" class="c0"/>
<circle cx="1222" cy="664" r="12" class="c0"/>
<circle cx="1088" cy="586" r="12" class="c0"/>
<circle cx="1374" cy="644" r="12" class="c0"/>
<circle cx="1342" cy="764" r="12" class="c0"/>
<circle cx="1720" cy="660" r="12" class="c0"/>
<circle cx="852" cy="798" r="12" class="c0"/>
<circle cx="1826" cy="748" r="12" class="c0"/>
<circle cx="1742" cy="712" r="12" class="c0"/>
<circle cx="1876" cy="716" r="12" class="c0"/>
<circle cx="1176" cy="650" r="12" class="c0"/>
<circle cx="1812" cy="572" r="12" class="c0"/>
<circle cx="980" cy="870" r="12" class="c0"/>
<circle cx="1760" cy="586" r="12" class="c0"/>
<circle cx="972" cy="536" r="12" class="c0"/>
<circle cx="1566" cy="772" r="12" class="c0"/>
<circle cx="1022" cy="896" r="12" class="c0"/>
<circle cx="1720" cy="726" r="12" class="c0"/>
<circle cx="1680" cy="796" r="12" class="c0"/>
<circle cx="1064" cy="566" r="12" class="c0"/>
<circle cx="1626" cy="786" r="12" class="c0"/>
<circle cx="1870" cy="642" r="12" class="c0"/>
<circle cx="1888" cy="14" r="12" class="c0"/>
<circle cx="1880" cy="780" r="10" class="c0"/>
<circle cx="1630" cy="620" r="10" class="c0"/>
<circle cx="1118" cy="530" r="10" class="c0"/>
<circle cx="1188" cy="520" r="10" class="c0"/>
<circle cx="822" cy="668" r="10" class="c0"/>
<circle cx="1542" cy="696" r="10" class="c0"/>
<circle cx="1888" cy="484" r="10" class="c0"/>
<circle cx="1480" cy="696" r="10" class="c0"/>
<circle cx="1142" cy="630" r="10" class="c0"/>
<circle cx="950" cy="624" r="10" class="c0"/>
<circle cx="1740" cy="752" r="10" class="c0"/>
<circle cx="946" cy="956" r="10" class="c0"/>
<circle cx="1130" cy="492" r="10" class="c0"/>
<circle cx="1254" cy="676" r="10" class="c0"/>
<circle cx="1012" cy="978" r="10" class="c0"/>
<circle cx="1598" cy="848" r="10" class="c0"/>
<circle cx="938" cy="574" r="10" class="c0"/>
<circle cx="972" cy="814" r="10" class="c0"/>
<circle cx="1038" cy="1070" r="10" class="c0"/>
<circle cx="1492" cy="668" r="10" class="c0"/>
<circle cx="1582" cy="758" r="10" class="c0"/>
<circle cx="1556" cy="742" r="10" class="c0"/>
<circle cx="806" cy="750" r="10" class="c0"/>
<circle cx="1086" cy="520" r="10" class="c0"/>
<circle cx="1322" cy="812" r="10" class="c0"/>
<circle cx="858" cy="614" r="10" class="c0"/>
<circle cx="1018" cy="638" r="10" class="c0"/>
<circle cx="1590" cy="786" r="10" class="c0"/>
<circle cx="1850" cy="700" r="10" class="c0"/>
<circle cx="1908" cy="750" r="10" class="c0"/>
<circle cx="780" cy="788" r="10" class="c0"/>
<circle cx="1470" cy="662" r="10" class="c0"/>
<circle cx="1126" cy="568" r="10" class="c0"/>
<circle cx="834" cy="636" r="10" class="c0"/>
<circle cx="1000" cy="1002" r="10" class="c0"/>
<circle cx="1272" cy="658" r="10" class="c0"/>
<circle cx="1796" cy="554" r="10" class="c0"/>
<circle cx="962" cy="594" r="10" class="c0"/>
<circle cx="1794" cy="666" r="10" class="c0"/>
<circle cx="1448" cy="650" r="10" class="c0"/>
<circle cx="822" cy="798" r="10" class="c0"/>
<circle cx="1900" cy="640" r="10" class="c0"/>
<circle cx="1250" cy="586" r="10" class="c0"/>
<circle cx="1382" cy="690" r="10" class="c0"/>
<circle cx="926" cy="716" r="10" class="c0"/>
<circle cx="1606" cy="644" r="10" class="c0"/>
<circle cx="978" cy="634" r="10" class="c0"/>
<circle cx="986" cy="600" r="10" class="c0"/>
<circle cx="1194" cy="678" r="10" class="c0"/>
<circle cx="1406" cy="702" r="10" class="c0"/>
<circle cx="1742" cy="602" r="10" class="c0"/>
<circle cx="1748" cy="672" r="10" class="c0"/>
<circle cx="1362" cy="848" r="10" class="c0"/>
<circle cx="1302" cy="628" r="10" class="c0"/>
<circle cx="1898" cy="792" r="10" class="c0"/>
<circle cx="1490" cy="832" r="10" class="c0"/>
<circle cx="1434" cy="852" r="10" class="c0"/>
<circle cx="1064" cy="534" r="10" class="c0"/>
<circle cx="938" cy="902" r="10" class="c0"/>
<circle cx="1240" cy="538" r="10" class="c0"/>
<circle cx="1830" cy="516" r="10" class="c0"/>
<circle cx="1636" cy="706" r="10" class="c0"/>
<circle cx="1840" cy="600" r="10" class="c0"/>
<circle cx="1224" cy="584" r="10" class="c0"/>
<circle cx="892" cy="668" r="10" class="c0"/>
<circle cx="1132" cy="596" r="10" class="c0"/>
<circle cx="1370" cy="708" r="10" class="c0"/>
<circle cx="936" cy="1070" r="10" class="c0"/>
<circle cx="922" cy="830" r="10" class="c0"/>
<circle cx="1558" cy="874" r="10" class="c0"/>
<circle cx="1904" cy="728" r="10" class="c0"/>
<circle cx="1660" cy="708" r="10" class="c0"/>
<circle cx="1868" cy="578" r="10" class="c0"/>
<circle cx="1858" cy="610" r="10" class="c0"/>
<circle cx="1582" cy="734" r="10" class="c0"/>
<circle cx="950" cy="836" r="10" class="c0"/>
<circle cx="1820" cy="684" r="10" class="c0"/>
<circle cx="1898" cy="698" r="10" class="c0"/>
<circle cx="1454" cy="756" r="10" class="c0"/>
<circle cx="1302" cy="782" r="10" class="c0"/>
<circle cx="1186" cy="604" r="10" class="c0"/>
<circle cx="1786" cy="766" r="10" class="c0"/>
<circle cx="1204" cy="546" r="10" class="c0"/>
<circle cx="1846" cy="26" r="10" class="c0"/>
<circle cx="1808" cy="720" r="10" class="c0"/>
<circle cx="1068" cy="492" r="10" class="c0"/>
<circle cx="1612" cy="818" r="10" class="c0"/>
<circle cx="1758" cy="814" r="10" class="c0"/>
<circle cx="1696" cy="684" r="10" class="c0"/>
<circle cx="1390" cy="770" r="10" class="c0"/>
<circle cx="1162" cy="608" r="10" class="c0"/>
<circle cx="1058" cy="672" r="10" class="c0"/>
<circle cx="1428" cy="876" r="10" class="c0"/>
<circle cx="900" cy="648" r="10" class="c0"/>
<circle cx="908" cy="602" r="10" class="c0"/>
<circle cx="960" cy="764" r="10" class="c0"/>
<circle cx="1014" cy="874" r="10" class="c0"/>
<circle cx="1348" cy="588" r="10" class="c0"/>
<circle cx="990" cy="524" r="10" class="c0"/>
<circle cx="842" cy="656" r="10" class="c0"/>
<circle cx="1750" cy="776" r="10" class="c0"/>
<circle cx="1840" cy="488" r="10" class="c0"/>
<circle cx="1016" cy="1014" r="10" class="c0"/>
<circle cx="1154" cy="542" r="10" class="c0"/>
<circle cx="910" cy="858" r="10" class="c0"/>
<circle cx="1830" cy="558" r="10" class="c0"/>
<circle cx="1828" cy="710" r="10" class="c0"/>
<circle cx="1012" cy="952" r="10" class="c0"/>
<circle cx="1050" cy="724" r="10" class="c0"/>
<circle cx="964" cy="942" r="10" class="c0"/>
<circle cx="1032" cy="564" r="10" class="c0"/>
<circle cx="972" cy="918" r="10" class="c0"/>
<circle cx="1566" cy="850" r="10" class="c0"/>
<circle cx="1420" cy="788" r="10" class="c0"/>
<circle cx="934" cy="674" r="10" class="c0"/>
<circle cx="1000" cy="582" r="10" class="c0"/>
<circle cx="1482" cy="768" r="10" class="c0"/>
<circle cx="1290" cy="614" r="10" class="c0"/>
<circle cx="1548" cy="816" r="10" class="c0"/>
<circle cx="1668" cy="762" r="10" class="c0"/>
<circle cx="1276" cy="702" r="10" class="c0"/>
<circle cx="1398" cy="640" r="10" class="c0"/>
<circle cx="1712" cy="766" r="10" class="c0"/>
<circle cx="1222" cy="700" r="10" class="c0"/>
<circle cx="1384" cy="856" r="10" class="c0"/>
<circle cx="1674" cy="688" r="10" class="c0"/>
<circle cx="994" cy="936" r="10" class="c0"/>
<circle cx="1036" cy="590" r="10" class="c0"/>
<circle cx="1086" cy="630" r="10" class="c0"/>
<circle cx="788" cy="722" r="10" class="c0"/>
<circle cx="1474" cy="722" r="10" class="c0"/>
<circle cx="942" cy="752" r="10" class="c0"/>
<circle cx="970" cy="1076" r="10" class="c0"/>
<circle cx="922" cy="932" r="10" class="c0"/>
<circle cx="1676" cy="728" r="10" class="c0"/>
<circle cx="1046" cy="490" r="10" class="c0"/>
<circle cx="1318" cy="712" r="10" class="c0"/>
<circle cx="838" cy="726" r="10" class="c0"/>
<circle cx="930" cy="650" r="10" class="c0"/>
<circle cx="1426" cy="658" r="10" class="c0"/>
<circle cx="1272" cy="770" r="10" class="c0"/>
<circle cx="1008" cy="1064" r="10" class="c0"/>
<circle cx="1316" cy="586" r="10" class="c0"/>
<circle cx="1536" cy="878" r="10" class="c0"/>
<circle cx="1514" cy="740" r="10" class="c0"/>
<circle cx="1856" cy="538" r="10" class="c0"/>
<circle cx="1634" cy="852" r="10" class="c0"/>
<circle cx="1572" cy="826" r="10" class="c0"/>
<circle cx="1884" cy="674" r="10" class="c0"/>
<circle cx="1428" cy="822" r="10" class="c0"/>
<circle cx="872" cy="834" r="10" class="c0"/>
<circle cx="1602" cy="702" r="10" class="c0"/>
<circle cx="1650" cy="748" r="10" class="c0"/>
<circle cx="1028" cy="532" r="10" class="c0"/>
<circle cx="1528" cy="840" r="10" class="c0"/>
<circle cx="1880" cy="606" r="10" class="c0"/>
<circle cx="1630" cy="670" r="8" class="c0"/>
<circle cx="1868" cy="524" r="8" class="c0"/>
<circle cx="1896" cy="560" r="8" class="c0"/>
<circle cx="1036" cy="514" r="8" class="c0"/>
<circle cx="766" cy="750" r="8" class="c0"/>
<circle cx="1786" cy="740" r="8" class="c0"/>
<circle cx="1002" cy="1044" r="8" class="c0"/>
<circle cx="1222" cy="556" r="8" class="c0"/>
<circle cx="920" cy="588" r="8" class="c0"/>
<circle cx="1708" cy="624" r="8" class="c0"/>
<circle cx="1846" cy="670" r="8" class="c0"/>
<circle cx="1020" cy="832" r="8" class="c0"/>
<circle cx="1036" cy="700" r="8" class="c0"/>
<circle cx="1090" cy="540" r="8" class="c0"/>
<circle cx="1342" cy="726" r="8" class="c0"/>
<circle cx="980" cy="832" r="8" class="c0"/>
<circle cx="1196" cy="622" r="8" class="c0"/>
<circle cx="1320" cy="734" r="8" class="c0"/>
<circle cx="988" cy="548" r="8" class="c0"/>
<circle cx="1806" cy="622" r="8" class="c0"/>
<circle cx="1032" cy="732" r="8" class="c0"/>
<circle cx="1026" cy="764" r="8" class="c0"/>
<circle cx="1368" cy="598" r="8" class="c0"/>
<circle cx="1242" cy="726" r="8" class="c0"/>
<circle cx="1736" cy="808" r="8" class="c0"/>
<circle cx="1590" cy="808" r="8" class="c0"/>
<circle cx="938" cy="612" r="8" class="c0"/>
<circle cx="1890" cy="810" r="8" class="c0"/>
<circle cx="816" cy="690" r="8" class="c0"/>
<circle cx="1756" cy="650" r="8" class="c0"/>
<circle cx="1010" cy="600" r="8" class="c0"/>
<circle cx="844" cy="748" r="8" class="c0"/>
<circle cx="1666" cy="606" r="8" class="c0"/>
<circle cx="1178" cy="626" r="8" class="c0"/>
<circle cx="990" cy="966" r="8" class="c0"/>
<circle cx="1676" cy="666" r="8" class="c0"/>
<circle cx="1238" cy="652" r="8" class="c0"/>
<circle cx="1524" cy="866" r="8" class="c0"/>
<circle cx="1400" cy="616" r="8" class="c0"/>
<circle cx="962" cy="1018" r="8" class="c0"/>
<circle cx="1002" cy="1094" r="8" class="c0"/>
<circle cx="1104" cy="614" r="8" class="c0"/>
<circle cx="1852" cy="722" r="8" class="c0"/>
<circle cx="1756" cy="730" r="8" class="c0"/>
<circle cx="1290" cy="572" r="8" class="c0"/>
<circle cx="1510" cy="882" r="8" class="c0"/>
<circle cx="1784" cy="12" r="8" class="c0"/>
<circle cx="948" cy="544" r="8" class="c0"/>
<circle cx="1040" cy="632" r="8" class="c0"/>
<circle cx="1728" cy="616" r="8" class="c0"/>
<circle cx="806" cy="844" r="8" class="c0"/>
<circle cx="1778" cy="798" r="8" class="c0"/>
<circle cx="1078" cy="612" r="8" class="c0"/>
<circle cx="1384" cy="832" r="8" class="c0"/>
<circle cx="1028" cy="812" r="8" class="c0"/>
<circle cx="1724" cy="584" r="8" class="c0"/>
<circle cx="1716" cy="818" r="8" class="c0"/>
<circle cx="1710" cy="798" r="8" class="c0"/>
<circle cx="1446" cy="680" r="8" class="c0"/>
<circle cx="1886" cy="538" r="8" class="c0"/>
<circle cx="964" cy="566" r="8" class="c0"/>
<circle cx="1344" cy="804" r="8" class="c0"/>
<circle cx="1848" cy="632" r="8" class="c0"/>
<circle cx="1826" cy="8" r="8" class="c0"/>
<circle cx="1022" cy="1094" r="8" class="c0"/>
<circle cx="1346" cy="786" r="8" class="c0"/>
<circle cx="1908" cy="808" r="8" class="c0"/>
<circle cx="844" cy="686" r="8" class="c0"/>
<circle cx="1390" cy="662" r="8" class="c0"/>
<circle cx="1514" cy="814" r="8" class="c0"/>
<circle cx="1086" cy="482" r="8" class="c0"/>
<circle cx="938" cy="818" r="8" class="c0"/>
<circle cx="1682" cy="598" r="8" class="c0"/>
<circle cx="1582" cy="688" r="8" class="c0"/>
<circle cx="1034" cy="654" r="8" class="c0"/>
<circle cx="1774" cy="778" r="8" class="c0"/>
<circle cx="884" cy="624" r="8" class="c0"/>
<circle cx="916" cy="694" r="8" class="c0"/>
<circle cx="1792" cy="694" r="8" class="c0"/>
<circle cx="1584" cy="646" r="8" class="c0"/>
<circle cx="898" cy="580" r="8" class="c0"/>
<circle cx="1910" cy="478" r="8" class="c0"/>
<circle cx="1370" cy="814" r="8" class="c0"/>
<circle cx="1400" cy="732" r="8" class="c0"/>
<circle cx="1120" cy="626" r="8" class="c0"/>
<circle cx="1336" cy="616" r="8" class="c0"/>
<circle cx="1032" cy="610" r="8" class="c0"/>
<circle cx="1862" cy="662" r="8" class="c0"/>
<circle cx="1800" cy="794" r="8" class="c0"/>
<circle cx="978" cy="790" r="8" class="c0"/>
<circle cx="1554" cy="708" r="8" class="c0"/>
<circle cx="1906" cy="594" r="8" class="c0"/>
<circle cx="1452" cy="866" r="8" class="c0"/>
<circle cx="1636" cy="642" r="8" class="c0"/>
<circle cx="1006" cy="534" r="8" class="c0"/>
<circle cx="1338" cy="834" r="8" class="c0"/>
<circle cx="1290" cy="744" r="8" class="c0"/>
<circle cx="1294" cy="692" r="8" class="c0"/>
<circle cx="1152" cy="512" r="8" class="c0"/>
<circle cx="1262" cy="720" r="8" class="c0"/>
<circle cx="1830" cy="620" r="8" class="c0"/>
<circle cx="1208" cy="650" r="8" class="c0"/>
<circle cx="1008" cy="752" r="8" class="c0"/>
<circle cx="1312" cy="762" r="8" class="c0"/>
<circle cx="972" cy="964" r="8" class="c0"/>
<circle cx="1060" cy="630" r="8" class="c0"/>
<circle cx="1768" cy="712" r="8" class="c0"/>
<circle cx="1904" cy="454" r="8" class="c0"/>
<circle cx="1420" cy="758" r="8" class="c0"/>
<circle cx="1866" cy="32" r="8" class="c0"/>
<circle cx="1004" cy="858" r="8" class="c0"/>
<circle cx="1542" cy="760" r="8" class="c0"/>
<circle cx="794" cy="804" r="8" class="c0"/>
<circle cx="1744" cy="20" r="8" class="c0"/>
<circle cx="1804" cy="744" r="8" class="c0"/>
<circle cx="1078" cy="648" r="8" class="c0"/>
<circle cx="1360" cy="676" r="8" class="c0"/>
<circle cx="942" cy="980" r="8" class="c0"/>
<circle cx="1378" cy="782" r="8" class="c0"/>
<circle cx="1148" cy="582" r="8" class="c0"/>
<circle cx="1908" cy="510" r="8" class="c0"/>
<circle cx="1456" cy="706" r="8" class="c0"/>
<circle cx="1544" cy="726" r="8" class="c0"/>
<circle cx="836" cy="786" r="8" class="c0"/>
<circle cx="1014" cy="618" r="8" class="c0"/>
<circle cx="1858" cy="496" r="8" class="c0"/>
<circle cx="820" cy="772" r="8" class="c0"/>
<circle cx="1480" cy="798" r="8" class="c0"/>
<circle cx="1468" cy="784" r="8" class="c0"/>
<circle cx="1442" cy="772" r="8" class="c0"/>
<circle cx="1436" cy="746" r="8" class="c0"/>
<circle cx="1036" cy="750" r="8" class="c0"/>
<circle cx="866" cy="686" r="8" class="c0"/>
<circle cx="1160" cy="496" r="8" class="c0"/>
<circle cx="916" cy="1078" r="8" class="c0"/>
<circle cx="1688" cy="708" r="8" class="c0"/>
<circle cx="1620" cy="742" r="8" class="c0"/>
<circle cx="1400" cy="814" r="8" class="c0"/>
<circle cx="874" cy="736" r="8" class="c0"/>
<circle cx="1056" cy="1078" r="8" class="c0"/>
<circle cx="1060" cy="600" r="8" class="c0"/>
<circle cx="1302" cy="674" r="8" class="c0"/>
<circle cx="1260" cy="642" r="8" class="c0"/>
<circle cx="940" cy="1010" r="8" class="c0"/>
<circle cx="928" cy="628" r="8" class="c0"/>
<circle cx="1468" cy="820" r="8" class="c0"/>
<circle cx="1690" cy="768" r="8" class="c0"/>
<circle cx="1648" cy="726" r="8" class="c0"/>
<circle cx="1212" cy="600" r="8" class="c0"/>
<circle cx="1638" cy="830" r="8" class="c0"/>
<circle cx="856" cy="762" r="8" class="c0"/>
<circle cx="966" cy="848" r="8" class="c0"/>
<circle cx="1710" cy="600" r="8" class="c0"/>
<circle cx="1058" cy="508" r="8" class="c0"/>
<circle cx="1354" cy="656" r="8" class="c0"/>
<circle cx="1604" cy="772" r="8" class="c0"/>
<circle cx="1242" cy="616" r="8" class="c0"/>
<circle cx="1602" cy="726" r="8" class="c0"/>
<circle cx="1646" cy="770" r="8" class="c0"/>
<circle cx="932" cy="990" r="8" class="c0"/>
<circle cx="1374" cy="754" r="8" class="c0"/>
<circle cx="1840" cy="762" r="8" class="c0"/>
<circle cx="1492" cy="786" r="8" class="c0"/>
<circle cx="1698" cy="750" r="8" class="c0"/>
<circle cx="1260" cy="570" r="8" class="c0"/>
<circle cx="1578" cy="866" r="8" class="c0"/>
<circle cx="1528" cy="682" r="8" class="c0"/>
<circle cx="866" cy="632" r="8" class="c0"/>
<circle cx="1482" cy="740" r="8" class="c0"/>
<circle cx="1548" cy="838" r="8" class="c0"/>
<circle cx="836" cy="706" r="8" class="c0"/>
<circle cx="1904" cy="834" r="8" class="c0"/>
<circle cx="954" cy="1000" r="8" class="c0"/>
<circle cx="1272" cy="600" r="8" class="c0"/>
<circle cx="1066" cy="690" r="8" class="c0"/>
<circle cx="1896" cy="620" r="8" class="c0"/>
<circle cx="1790" cy="510" r="8" class="c0"/>
<circle cx="1740" cy="828" r="8" class="c0"/>
<circle cx="1802" cy="10" r="8" class="c0"/>
<circle cx="1738" cy="688" r="8" class="c0"/>
<circle cx="1572" cy="656" r="8" class="c0"/>
<circle cx="1510" cy="692" r="8" class="c0"/>
<circle cx="1020" cy="918" r="8" class="c0"/>
<circle cx="1818" cy="664" r="8" class="c0"/>
<circle cx="874" cy="794" r="8" class="c0"/>
<circle cx="1724" cy="634" r="8" class="c0"/>
<circle cx="1214" cy="528" r="8" class="c0"/>
<circle cx="1680" cy="848" r="8" class="c0"/>
<circle cx="1332" cy="576" r="8" class="c0"/>
<circle cx="1710" cy="698" r="8" class="c0"/>
<circle cx="898" cy="712" r="8" class="c0"/>
<circle cx="1652" cy="674" r="8" class="c0"/>
<circle cx="1742" cy="576" r="8" class="c0"/>
<circle cx="1896" cy="582" r="8" class="c0"/>
<circle cx="1476" cy="888" r="8" class="c0"/>
<circle cx="1078" cy="668" r="8" class="c0"/>
<circle cx="1480" cy="854" r="8" class="c0"/>
<circle cx="932" cy="1050" r="8" class="c0"/>
<circle cx="984" cy="572" r="8" class="c0"/>
<circle cx="992" cy="846" r="8" class="c0"/>
<circle cx="1668" cy="836" r="8" class="c0"/>
<circle cx="932" cy="968" r="8" class="c0"/>
<circle cx="822" cy="836" r="8" class="c0"/>
<circle cx="1498" cy="722" r="8" class="c0"/>
<circle cx="1850" cy="788" r="8" class="c0"/>
<circle cx="918" cy="734" r="8" class="c0"/>
<circle cx="1162" cy="664" r="8" class="c0"/>
<circle cx="1436" cy="722" r="8" class="c0"/>
<circle cx="1366" cy="730" r="8" class="c0"/>
<circle cx="1220" cy="640" r="8" class="c0"/>
<circle cx="1600" cy="744" r="8" class="c0"/>
<circle cx="1784" cy="720" r="8" class="c0"/>
<circle cx="918" cy="662" r="8" class="c0"/>
<circle cx="1758" cy="632" r="8" class="c0"/>
<circle cx="1596" cy="670" r="8" class="c0"/>
<circle cx="1174" cy="506" r="8" class="c0"/>
<circle cx="788" cy="690" r="8" class="c0"/>
<circle cx="1904" cy="770" r="8" class="c0"/>
<circle cx="1656" cy="788" r="8" class="c0"/>
<circle cx="1000" cy="890" r="8" class="c0"/>
<circle cx="1320" cy="792" r="8" class="c0"/>
<circle cx="998" cy="628" r="8" class="c0"/>
<circle cx="1844" cy="580" r="8" class="c0"/>
<circle cx="1910" cy="422" r="8" class="c0"/>
<circle cx="1274" cy="626" r="8" class="c0"/>
<circle cx="1304" cy="726" r="8" class="c0"/>
<circle cx="1792" cy="812" r="8" class="c0"/>
<circle cx="1012" cy="500" r="8" class="c0"/>
<circle cx="1884" cy="510" r="8" class="c0"/>
<circle cx="1426" cy="636" r="8" class="c0"/>
<circle cx="1622" cy="692" r="8" class="c0"/>
<circle cx="942" cy="1032" r="8" class="c0"/>
<circle cx="1000" cy="812" r="8" class="c0"/>
<circle cx="774" cy="766" r="8" class="c0"/>
<circle cx="854" cy="672" r="8" class="c0"/>
<circle cx="1852" cy="748" r="8" class="c0"/>
<circle cx="974" cy="894" r="8" class="c0"/>
<circle cx="1494" cy="812" r="8" class="c0"/>
<circle cx="1772" cy="684" r="8" class="c0"/>
<circle cx="1360" cy="774" r="8" class="c0"/>
<circle cx="1272" cy="742" r="8" class="c0"/>
<circle cx="1008" cy="772" r="8" class="c0"/>
<circle cx="1288" cy="592" r="8" class="c0"/>
<circle cx="1380" cy="616" r="8" class="c0"/>
<circle cx="1426" cy="734" r="8" class="c0"/>
<circle cx="1828" cy="644" r="8" class="c0"/>
<circle cx="988" cy="1084" r="8" class="c0"/>
<circle cx="1624" cy="724" r="8" class="c0"/>
<circle cx="1764" cy="608" r="8" class="c0"/>
<circle cx="1188" cy="560" r="8" class="c0"/>
<circle cx="994" cy="1028" r="8" class="c0"/>
<circle cx="918" cy="638" r="8" class="c0"/>
<circle cx="1646" cy="652" r="8" class="c0"/>
<circle cx="1522" cy="710" r="8" class="c0"/>
<circle cx="1814" cy="766" r="8" class="c0"/>
<circle cx="800" cy="776" r="8" class="c0"/>
<circle cx="1382" cy="804" r="8" class="c0"/>
<circle cx="1654" cy="846" r="8" class="c0"/>
<circle cx="1102" cy="506" r="8" class="c0"/>
<circle cx="1790" cy="594" r="8" class="c0"/>
<circle cx="796" cy="674" r="8" class="c0"/>
<circle cx="944" cy="698" r="8" class="c0"/>
<circle cx="850" cy="826" r="8" class="c0"/>
<circle cx="1608" cy="866" r="8" class="c0"/>
<circle cx="1238" cy="686" r="8" class="c0"/>
<circle cx="1818" cy="532" r="8" class="c0"/>
<circle cx="1636" cy="808" r="8" class="c0"/>
<circle cx="882" cy="592" r="8" class="c0"/>
<circle cx="1776" cy="626" r="8" class="c0"/>
<circle cx="1094" cy="560" r="8" class="c0"/>
<circle cx="1176" cy="544" r="8" class="c0"/>
<circle cx="1688" cy="616" r="8" class="c0"/>
<circle cx="1420" cy="678" r="8" class="c0"/>
<circle cx="1108" cy="578" r="8" class="c0"/>
<circle cx="924" cy="760" r="8" class="c0"/>
<circle cx="1356" cy="618" r="8" class="c0"/>
<circle cx="824" cy="740" r="8" class="c0"/>
<circle cx="1016" cy="544" r="8" class="c0"/>
<circle cx="1270" cy="548" r="8" class="c0"/>
<circle cx="1246" cy="706" r="8" class="c0"/>
<circle cx="1698" cy="636" r="8" class="c0"/>
<circle cx="1864" cy="478" r="8" class="c0"/>
<circle cx="940" cy="594" r="8" class="c0"/>
<circle cx="1880" cy="744" r="8" class="c0"/>
<circle cx="1816" cy="30" r="8" class="c0"/>
<circle cx="1250" cy="556" r="8" class="c0"/>
<circle cx="1890" cy="464" r="8" class="c0"/>
<circle cx="952" cy="926" r="8" class="c0"/>
<circle cx="1650" cy="628" r="8" class="c0"/>
<circle cx="1870" cy="558" r="8" class="c0"/>
<circle cx="1032" cy="866" r="8" class="c0"/>
<circle cx="1146" cy="652" r="8" class="c0"/>
<circle cx="934" cy="882" r="8" class="c0"/>
<circle cx="1748" cy="796" r="8" class="c0"/>
<circle cx="1866" cy="734" r="8" class="c0"/>
<circle cx="1718" cy="836" r="8" class="c0"/>
<circle cx="890" cy="870" r="8" class="c0"/>
<circle cx="980" cy="1004" r="8" class="c0"/>
<circle cx="1572" cy="714" r="8" class="c0"/>
<circle cx="1700" cy="782" r="8" class="c0"/>
<circle cx="872" cy="856" r="8" class="c0"/>
<circle cx="1812" cy="498" r="8" class="c0"/>
<circle cx="1300" cy="802" r="8" class="c0"/>
<circle cx="800" cy="822" r="8" class="c0"/>
<circle cx="1574" cy="800" r="8" class="c0"/>
<circle cx="1524" cy="796" r="8" class="c0"/>
<circle cx="1792" cy="532" r="8" class="c0"/>
<circle cx="1356" cy="828" r="8" class="c0"/>
<circle cx="1910" cy="532" r="8" class="c0"/>
<circle cx="1462" cy="876" r="8" class="c0"/>
<circle cx="1028" cy="1052" r="8" class="c0"/>
<circle cx="864" cy="814" r="8" class="c0"/>
<circle cx="968" cy="984" r="8" class="c0"/>
<circle cx="1414" cy="722" r="8" class="c0"/>
<circle cx="1812" cy="598" r="8" class="c0"/>
<circle cx="1692" cy="830" r="8" class="c0"/>
<circle cx="1346" cy="696" r="8" class="c0"/>
<circle cx="1908" cy="674" r="8" class="c0"/>
<circle cx="1042" cy="548" r="8" class="c0"/>
<circle cx="868" cy="658" r="8" class="c0"/>
<circle cx="1312" cy="612" r="8" class="c0"/>
<circle cx="1392" cy="794" r="8" class="c0"/>
<circle cx="1232" cy="606" r="8" class="c0"/>
<circle cx="904" cy="624" r="8" class="c0"/>
<circle cx="1694" cy="656" r="8" class="c0"/>
<circle cx="1606" cy="682" r="8" class="c0"/>
<circle cx="1862" cy="14" r="8" class="c0"/>
<circle cx="1302" cy="652" r="8" class="c0"/>
<circle cx="996" cy="914" r="8" class="c0"/>
<circle cx="1008" cy="562" r="8" class="c0"/>
<circle cx="1262" cy="610" r="8" class="c0"/>
<circle cx="1232" cy="628" r="8" class="c0"/>
<circle cx="1032" cy="1030" r="8" class="c0"/>
<circle cx="1332" cy="598" r="8" class="c0"/>
<circle cx="1756" cy="694" r="8" class="c0"/>
<circle cx="1484" cy="872" r="8" class="c0"/>
<circle cx="1852" cy="516" r="8" class="c0"/>
<circle cx="1456" cy="736" r="8" class="c0"/>
<circle cx="1384" cy="744" r="8" class="c0"/>
<circle cx="878" cy="648" r="8" class="c0"/>
<circle cx="1896" cy="660" r="8" class="c0"/>
<circle cx="1696" cy="730" r="8" class="c0"/>
<circle cx="1466" cy="682" r="8" class="c0"/>
<circle cx="974" cy="612" r="8" class="c0"/>
<circle cx="1052" cy="648" r="8" class="c0"/>
<circle cx="834" cy="762" r="8" class="c0"/>
<circle cx="884" cy="690" r="6" class="c0"/>
<circle cx="1540" cy="664" r="6" class="c0"/>
<circle cx="840" cy="616" r="6" class="c0"/>
<circle cx="948" cy="662" r="6" class="c0"/>
<circle cx="1308" cy="568" r="6" class="c0"/>
<circle cx="1912" cy="576" r="6" class="c0"/>
<circle cx="1034" cy="848" r="6" class="c0"/>
<circle cx="1492" cy="750" r="6" class="c0"/>
<circle cx="1544" cy="862" r="6" class="c0"/>
<circle cx="1400" cy="872" r="6" class="c0"/>
<circle cx="1232" cy="568" r="6" class="c0"/>
<circle cx="858" cy="646" r="6" class="c0"/>
<circle cx="1854" cy="562" r="6" class="c0"/>
<circle cx="1406" cy="666" r="6" class="c0"/>
<circle cx="1772" cy="664" r="6" class="c0"/>
<circle cx="1034" cy="716" r="6" class="c0"/>
<circle cx="1356" cy="746" r="6" class="c0"/>
<circle cx="1224" cy="728" r="6" class="c0"/>
<circle cx="824" cy="860" r="6" class="c0"/>
<circle cx="1808" cy="652" r="6" class="c0"/>
<circle cx="950" cy="1052" r="6" class="c0"/>
<circle cx="940" cy="732" r="6" class="c0"/>
<circle cx="1834" cy="660" r="6" class="c0"/>
<circle cx="1452" cy="632" r="6" class="c0"/>
<circle cx="992" cy="982" r="6" class="c0"/>
<circle cx="952" cy="648" r="6" class="c0"/>
<circle cx="1016" cy="520" r="6" class="c0"/>
<circle cx="1446" cy="890" r="6" class="c0"/>
<circle cx="990" cy="1066" r="6" class="c0"/>
<circle cx="1292" cy="662" r="6" class="c0"/>
<circle cx="1420" cy="618" r="6" class="c0"/>
<circle cx="960" cy="640" r="6" class="c0"/>
<circle cx="1282" cy="672" r="6" class="c0"/>
<circle cx="1510" cy="674" r="6" class="c0"/>
<circle cx="1080" cy="550" r="6" class="c0"/>
<circle cx="1726" cy="784" r="6" class="c0"/>
<circle cx="1130" cy="516" r="6" class="c0"/>
<circle cx="1106" cy="484" r="6" class="c0"/>
<circle cx="1434" cy="620" r="6" class="c0"/>
<circle cx="1320" cy="662" r="6" class="c0"/>
<circle cx="1246" cy="746" r="6" class="c0"/>
<circle cx="814" cy="648" r="6" class="c0"/>
<circle cx="1708" cy="646" r="6" class="c0"/>
<circle cx="888" cy="726" r="6" class="c0"/>
<circle cx="1046" cy="1054" r="6" class="c0"/>
<circle cx="1614" cy="662" r="6" class="c0"/>
<circle cx="1890" cy="760" r="6" class="c0"/>
<circle cx="1752" cy="6" r="6" class="c0"/>
<circle cx="1282" cy="722" r="6" class="c0"/>
<circle cx="1374" cy="668" r="6" class="c0"/>
<circle cx="1030" cy="676" r="6" class="c0"/>
<circle cx="1718" cy="746" r="6" class="c0"/>
<circle cx="908" cy="566" r="6" class="c0"/>
<circle cx="1346" cy="606" r="6" class="c0"/>
<circle cx="1842" cy="528" r="6" class="c0"/>
<circle cx="1844" cy="650" r="6" class="c0"/>
<circle cx="1040" cy="828" r="6" class="c0"/>
<circle cx="890" cy="842" r="6" class="c0"/>
<circle cx="1164" cy="636" r="6" class="c0"/>
<circle cx="768" cy="730" r="6" class="c0"/>
<circle cx="1304" cy="702" r="6" class="c0"/>
<circle cx="1536" cy="744" r="6" class="c0"/>
<circle cx="1410" cy="744" r="6" class="c0"/>
<circle cx="1388" cy="712" r="6" class="c0"/>
<circle cx="1646" cy="798" r="6" class="c0"/>
<circle cx="1866" cy="686" r="6" class="c0"/>
<circle cx="1204" cy="708" r="6" class="c0"/>
<circle cx="1112" cy="558" r="6" class="c0"/>
<circle cx="1816" cy="548" r="6" class="c0"/>
<circle cx="916" cy="876" r="6" class="c0"/>
<circle cx="1622" cy="840" r="6" class="c0"/>
<circle cx="1744" cy="640" r="6" class="c0"/>
<circle cx="1390" cy="604" r="6" class="c0"/>
<circle cx="1636" cy="760" r="6" class="c0"/>
<circle cx="1656" cy="690" r="6" class="c0"/>
<circle cx="1764" cy="16" r="6" class="c0"/>
<circle cx="928" cy="552" r="6" class="c0"/>
<circle cx="1610" cy="626" r="6" class="c0"/>
<circle cx="1778" cy="820" r="6" class="c0"/>
<circle cx="852" cy="700" r="6" class="c0"/>
<circle cx="918" cy="808" r="6" class="c0"/>
<circle cx="1286" cy="636" r="6" class="c0"/>
<circle cx="1134" cy="550" r="6" class="c0"/>
<circle cx="1302" cy="602" r="6" class="c0"/>
<circle cx="956" cy="1066" r="6" class="c0"/>
<circle cx="1510" cy="832" r="6" class="c0"/>
<circle cx="1408" cy="768" r="6" class="c0"/>
<circle cx="912" cy="678" r="6" class="c0"/>
<circle cx="1900" cy="496" r="6" class="c0"/>
<circle cx="922" cy="564" r="6" class="c0"/>
<circle cx="1726" cy="700" r="6" class="c0"/>
<circle cx="958" cy="904" r="6" class="c0"/>
<circle cx="1268" cy="686" r="6" class="c0"/>
<circle cx="1232" cy="714" r="6" class="c0"/>
<circle cx="864" cy="778" r="6" class="c0"/>
<circle cx="1458" cy="794" r="6" class="c0"/>
<circle cx="784" cy="750" r="6" class="c0"/>
<circle cx="1694" cy="586" r="6" class="c0"/>
<circle cx="1780" cy="520" r="6" class="c0"/>
<circle cx="1028" cy="488" r="6" class="c0"/>
<circle cx="1670" cy="780" r="6" class="c0"/>
<circle cx="1774" cy="598" r="6" class="c0"/>
<circle cx="974" cy="774" r="6" class="c0"/>
<circle cx="790" cy="764" r="6" class="c0"/>
<circle cx="926" cy="1088" r="6" class="c0"/>
<circle cx="1584" cy="838" r="6" class="c0"/>
<circle cx="1704" cy="8" r="6" class="c0"/>
<circle cx="1336" cy="742" r="6" class="c0"/>
<circle cx="818" cy="816" r="6" class="c0"/>
<circle cx="1400" cy="680" r="6" class="c0"/>
<circle cx="1324" cy="774" r="6" class="c0"/>
<circle cx="1838" cy="688" r="6" class="c0"/>
<circle cx="1170" cy="524" r="6" class="c0"/>
<circle cx="1502" cy="772" r="6" class="c0"/>
<circle cx="1912" cy="400" r="6" class="c0"/>
<circle cx="776" cy="740" r="6" class="c0"/>
<circle cx="1364" cy="794" r="6" class="c0"/>
<circle cx="1258" cy="754" r="6" class="c0"/>
<circle cx="1050" cy="612" r="6" class="c0"/>
<circle cx="1196" cy="640" r="6" class="c0"/>
<circle cx="1514" cy="786" r="6" class="c0"/>
<circle cx="946" cy="774" r="6" class="c0"/>
<circle cx="1056" cy="704" r="6" class="c0"/>
<circle cx="1152" cy="562" r="6" class="c0"/>
<circle cx="1306" cy="742" r="6" class="c0"/>
<circle cx="1284" cy="788" r="6" class="c0"/>
<circle cx="1114" cy="594" r="6" class="c0"/>
<circle cx="1880" cy="626" r="6" class="c0"/>
<circle cx="1212" cy="566" r="6" class="c0"/>
<circle cx="1494" cy="686" r="6" class="c0"/>
<circle cx="1438" cy="790" r="6" class="c0"/>
<circle cx="1214" cy="624" r="6" class="c0"/>
<circle cx="1022" cy="578" r="6" class="c0"/>
<circle cx="956" cy="806" r="6" class="c0"/>
<circle cx="1104" cy="638" r="6" class="c0"/>
<circle cx="870" cy="754" r="6" class="c0"/>
<circle cx="1682" cy="818" r="6" class="c0"/>
<circle cx="1088" cy="498" r="6" class="c0"/>
<circle cx="1506" cy="708" r="6" class="c0"/>
<circle cx="1838" cy="734" r="6" class="c0"/>
<circle cx="924" cy="912" r="6" class="c0"/>
<circle cx="1004" cy="514" r="6" class="c0"/>
<circle cx="1384" cy="726" r="6" class="c0"/>
<circle cx="1048" cy="690" r="6" class="c0"/>
<circle cx="900" cy="684" r="6" class="c0"/>
<circle cx="1680" cy="746" r="6" class="c0"/>
<circle cx="1912" cy="6" r="6" class="c0"/>
<circle cx="1816" cy="804" r="6" class="c0"/>
<circle cx="954" cy="1086" r="6" class="c0"/>
<circle cx="930" cy="948" r="6" class="c0"/>
<circle cx="1874" cy="798" r="6" class="c0"/>
<circle cx="1770" cy="642" r="6" class="c0"/>
<circle cx="1336" cy="708" r="6" class="c0"/>
<circle cx="1716" cy="682" r="6" class="c0"/>
<circle cx="1912" cy="438" r="6" class="c0"/>
<circle cx="1352" cy="716" r="6" class="c0"/>
<circle cx="1614" cy="714" r="6" class="c0"/>
<circle cx="1508" cy="760" r="6" class="c0"/>
<circle cx="1048" cy="578" r="6" class="c0"/>
<circle cx="920" cy="894" r="6" class="c0"/>
<circle cx="1400" cy="756" r="6" class="c0"/>
<circle cx="1598" cy="828" r="6" class="c0"/>
<circle cx="1190" cy="696" r="6" class="c0"/>
<circle cx="1258" cy="694" r="6" class="c0"/>
<circle cx="844" cy="772" r="6" class="c0"/>
<circle cx="1018" cy="848" r="6" class="c0"/>
<circle cx="976" cy="746" r="6" class="c0"/>
<circle cx="872" cy="604" r="6" class="c0"/>
<circle cx="856" cy="732" r="6" class="c0"/>
<circle cx="804" cy="792" r="6" class="c0"/>
<circle cx="1650" cy="862" r="6" class="c0"/>
<circle cx="1704" cy="844" r="6" class="c0"/>
<circle cx="1832" cy="540" r="6" class="c0"/>
<circle cx="1024" cy="996" r="6" class="c0"/>
<circle cx="1314" cy="690" r="6" class="c0"/>
<circle cx="768" cy="800" r="6" class="c0"/>
<circle cx="854" cy="842" r="6" class="c0"/>
<circle cx="1022" cy="664" r="6" class="c0"/>
<circle cx="1402" cy="782" r="6" class="c0"/>
<circle cx="1874" cy="494" r="6" class="c0"/>
<circle cx="1026" cy="934" r="6" class="c0"/>
<circle cx="1596" cy="876" r="6" class="c0"/>
<circle cx="1138" cy="530" r="6" class="c0"/>
<circle cx="1018" cy="1078" r="6" class="c0"/>
<circle cx="1748" cy="620" r="6" class="c0"/>
<circle cx="1686" cy="8" r="6" class="c0"/>
<circle cx="1740" cy="656" r="6" class="c0"/>
<circle cx="1048" cy="524" r="6" class="c0"/>
<circle cx="1794" cy="710" r="6" class="c0"/>
<circle cx="1912" cy="622" r="6" class="c0"/>
<circle cx="1416" cy="808" r="6" class="c0"/>
<circle cx="1780" cy="652" r="6" class="c0"/>
<circle cx="1644" cy="610" r="6" class="c0"/>
<circle cx="1414" cy="832" r="6" class="c0"/>
<circle cx="1642" cy="688" r="6" class="c0"/>
<circle cx="1808" cy="814" r="6" class="c0"/>
<circle cx="1004" cy="836" r="6" class="c0"/>
<circle cx="1828" cy="582" r="6" class="c0"/>
<circle cx="1692" cy="810" r="6" class="c0"/>
<circle cx="1792" cy="574" r="6" class="c0"/>
<circle cx="1794" cy="610" r="6" class="c0"/>
<circle cx="1322" cy="624" r="6" class="c0"/>
<circle cx="1610" cy="756" r="6" class="c0"/>
<circle cx="1288" cy="556" r="6" class="c0"/>
<circle cx="1804" cy="520" r="6" class="c0"/>
<circle cx="1912" cy="556" r="6" class="c0"/>
<circle cx="1624" cy="868" r="6" class="c0"/>
<circle cx="1494" cy="886" r="6" class="c0"/>
<circle cx="1118" cy="508" r="6" class="c0"/>
<circle cx="1524" cy="726" r="6" class="c0"/>
<circle cx="1058" cy="478" r="6" class="c0"/>
<circle cx="1912" cy="658" r="6" class="c0"/>
<circle cx="1604" cy="798" r="6" class="c0"/>
<circle cx="808" cy="732" r="6" class="c0"/>
<circle cx="1386" cy="874" r="6" class="c0"/>
<circle cx="1840" cy="800" r="6" class="c0"/>
<circle cx="1120" cy="548" r="6" class="c0"/>
<circle cx="1018" cy="742" r="6" class="c0"/>
<circle cx="908" cy="884" r="6" class="c0"/>
<circle cx="1704" cy="716" r="6" class="c0"/>
<circle cx="1000" cy="644" r="6" class="c0"/>
<circle cx="1400" cy="834" r="6" class="c0"/>
<circle cx="1210" cy="688" r="6" class="c0"/>
<circle cx="1290" cy="712" r="6" class="c0"/>
<circle cx="1064" cy="712" r="6" class="c0"/>
<circle cx="806" cy="660" r="6" class="c0"/>
<circle cx="1010" cy="928" r="6" class="c0"/>
<circle cx="1430" cy="802" r="6" class="c0"/>
<circle cx="1468" cy="644" r="6" class="c0"/>
<circle cx="910" cy="750" r="6" class="c0"/>
<circle cx="1068" cy="658" r="6" class="c0"/>
<circle cx="956" cy="972" r="6" class="c0"/>
<circle cx="1594" cy="632" r="6" class="c0"/>
<circle cx="1904" cy="24" r="6" class="c0"/>
<circle cx="1106" cy="542" r="6" class="c0"/>
<circle cx="1272" cy="582" r="6" class="c0"/>
<circle cx="1018" cy="1040" r="6" class="c0"/>
<circle cx="918" cy="1060" r="6" class="c0"/>
<circle cx="940" cy="1090" r="6" class="c0"/>
<circle cx="1508" cy="798" r="6" class="c0"/>
<circle cx="1708" cy="582" r="6" class="c0"/>
<circle cx="1090" cy="658" r="6" class="c0"/>
<circle cx="1556" cy="654" r="6" class="c0"/>
<circle cx="980" cy="950" r="6" class="c0"/>
<circle cx="1664" cy="858" r="6" class="c0"/>
<circle cx="1362" cy="692" r="6" class="c0"/>
<circle cx="1318" cy="640" r="6" class="c0"/>
<circle cx="1174" cy="676" r="6" class="c0"/>
<circle cx="1624" cy="654" r="6" class="c0"/>
<circle cx="1896" cy="520" r="6" class="c0"/>
<circle cx="1592" cy="716" r="6" class="c0"/>
<circle cx="1804" cy="776" r="6" class="c0"/>
<circle cx="776" cy="708" r="6" class="c0"/>
<circle cx="1292" cy="762" r="6" class="c0"/>
<circle cx="1660" cy="660" r="6" class="c0"/>
<circle cx="1424" cy="712" r="6" class="c0"/>
<circle cx="850" cy="714" r="6" class="c0"/>
<circle cx="1172" cy="592" r="6" class="c0"/>
<circle cx="1254" cy="736" r="6" class="c0"/>
<circle cx="1222" cy="616" r="6" class="c0"/>
<circle cx="1898" cy="434" r="6" class="c0"/>
<circle cx="1878" cy="694" r="6" class="c0"/>
<circle cx="1010" cy="822" r="6" class="c0"/>
<circle cx="1452" cy="782" r="6" class="c0"/>
<circle cx="1622" cy="766" r="6" class="c0"/>
<circle cx="1762" cy="788" r="6" class="c0"/>
<circle cx="1912" cy="710" r="6" class="c0"/>
<circle cx="1328" cy="750" r="6" class="c0"/>
<circle cx="1802" cy="682" r="6" class="c0"/>
<circle cx="1750" cy="562" r="6" class="c0"/>
<circle cx="1866" cy="790" r="6" class="c0"/>
<circle cx="1778" cy="702" r="6" class="c0"/>
<circle cx="938" cy="940" r="6" class="c0"/>
<circle cx="1780" cy="546" r="6" class="c0"/>
<circle cx="880" cy="816" r="6" class="c0"/>
<circle cx="1194" cy="658" r="6" class="c0"/>
<circle cx="1008" cy="652" r="6" class="c0"/>
<circle cx="1460" cy="892" r="6" class="c0"/>
<circle cx="1790" cy="784" r="6" class="c0"/>
<circle cx="936" cy="920" r="6" class="c0"/>
<circle cx="1578" cy="672" r="6" class="c0"/>
<circle cx="876" cy="676" r="6" class="c0"/>
<circle cx="992" cy="780" r="6" class="c0"/>
<circle cx="962" cy="782" r="6" class="c0"/>
<circle cx="1276" cy="564" r="6" class="c0"/>
<circle cx="1440" cy="834" r="6" class="c0"/>
<circle cx="1568" cy="696" r="6" class="c0"/>
<circle cx="1810" cy="698" r="6" class="c0"/>
<circle cx="1144" cy="612" r="6" class="c0"/>
<circle cx="1336" cy="658" r="6" class="c0"/>
<circle cx="1408" cy="800" r="6" class="c0"/>
<circle cx="886" cy="608" r="6" class="c0"/>
<circle cx="1410" cy="626" r="6" class="c0"/>
<circle cx="1214" cy="718" r="6" class="c0"/>
<circle cx="974" cy="1094" r="6" class="c0"/>
<circle cx="1728" cy="568" r="6" class="c0"/>
<circle cx="1854" cy="590" r="6" class="c0"/>
<circle cx="1530" cy="822" r="6" class="c0"/>
<circle cx="1874" cy="466" r="6" class="c0"/>
<circle cx="1232" cy="736" r="6" class="c0"/>
<circle cx="1256" cy="626" r="6" class="c0"/>
<circle cx="1814" cy="636" r="6" class="c0"/>
<circle cx="1026" cy="690" r="6" class="c0"/>
<circle cx="1732" cy="772" r="6" class="c0"/>
<circle cx="1130" cy="616" r="6" class="c0"/>
<circle cx="1484" cy="652" r="6" class="c0"/>
<circle cx="792" cy="740" r="6" class="c0"/>
</svg>
