<?xml version="1.0" encoding="utf-8"?>
<svg xmlns="http://www.w3.org/2000/svg"
     xmlns:xlink="http://www.w3.org/1999/xlink" width="1920" height="1440" >

            <defs>
            <style type="text/css"><![CDATA[
circle {stroke: none;}
.c0 {fill: #FFFFFF;}
]]></style>
            </defs>
<rect x="0" y="0" width="1920" height="1440" fill="black"/>
<circle cx="1066" cy="470" r="14" class="c0"/>
<circle cx="1050" cy="860" r="12" class="c0"/>
<circle cx="1816" cy="750" r="12" class="c0"/>
<circle cx="1772" cy="726" r="12" class="c0"/>
<circle cx="1346" cy="668" r="12" class="c0"/>
<circle cx="844" cy="608" r="12" class="c0"/>
<circle cx="1196" cy="616" r="12" class="c0"/>
<circle cx="1718" cy="828" r="12" class="c0"/>
<circle cx="862" cy="788" r="12" class="c0"/>
<circle cx="946" cy="826" r="12" class="c0"/>
<circle cx="1054" cy="520" r="12" class="c0"/>
<circle cx="1794" cy="676" r="12" class="c0"/>
<circle cx="912" cy="680" r="12" class="c0"/>
<circle cx="1246" cy="676" r="12" class="c0"/>
<circle cx="1324" cy="698" r="12" class="c0"/>
<circle cx="1554" cy="838" r="12" class="c0"/>
<circle cx="1802" cy="730" r="12" class="c0"/>
<circle cx="1660" cy="680" r="12" class="c0"/>
<circle cx="1386" cy="606" r="12" class="c0"/>
<circle cx="1028" cy="926" r="12" class="c0"/>
<circle cx="1812" cy="624" r="12" class="c0"/>
<circle cx="1012" cy="578" r="12" class="c0"/>
<circle cx="1538" cy="676" r="12" class="c0"/>
<circle cx="1696" cy="778" r="12" class="c0"/>
<circle cx="1010" cy="1066" r="12" class="c0"/>
<circle cx="1766" cy="574" r="12" class="c0"/>
<circle cx="1390" cy="766" r="12" class="c0"/>
<circle cx="1520" cy="862" r="12" class="c0"/>
<circle cx="1254" cy="638" r="12" class="c0"/>
<circle cx="1774" cy="612" r="12" class="c0"/>
<circle cx="840" cy="738" r="12" class="c0"/>
<circle cx="1022" cy="654" r="12" class="c0"/>
<circle cx="1164" cy="506" r="12" class="c0"/>
<circle cx="1604" cy="828" r="12" class="c0"/>
<circle cx="878" cy="602" r="12" class="c0"/>
<circle cx="1696" cy="716" r="12" class="c0"/>
<circle cx="870" cy="684" r="12" class="c0"/>
<circle cx="1692" cy="834" r="12" class="c0"/>
<circle cx="1752" cy="750" r="12" class="c0"/>
<circle cx="1498" cy="816" r="12" class="c0"/>
<circle cx="1346" cy="778" r="12" class="c0"/>
<circle cx="884" cy="644" r="12" class="c0"/>
<circle cx="1138" cy="484" r="12" class="c0"/>
<circle cx="1030" cy="1006" r="12" class="c0"/>
<circle cx="780" cy="766" r="12" class="c0"/>
<circle cx="1040" cy="882" r="10" class="c0"/>
<circle cx="1084" cy="528" r="10" class="c0"/>
<circle cx="852" cy="668" r="10" class="c0"/>
<circle cx="1408" cy="746" r="10" class="c0"/>
<circle cx="1120" cy="616" r="10" class="c0"/>
<circle cx="1132" cy="590" r="10" class="c0"/>
<circle cx="830" cy="664" r="10" class="c0"/>
<circle cx="940" cy="690" r="10" class="c0"/>
<circle cx="1148" cy="562" r="10" class="c0"/>
<circle cx="1674" cy="848" r="10" class="c0"/>
<circle cx="1416" cy="640" r="10" class="c0"/>
<circle cx="1360" cy="690" r="10" class="c0"/>
<circle cx="1876" cy="508" r="10" class="c0"/>
<circle cx="846" cy="642" r="10" class="c0"/>
<circle cx="930" cy="728" r="10" class="c0"/>
<circle cx="1790" cy="774" r="10" class="c0"/>
<circle cx="1138" cy="542" r="10" class="c0"/>
<circle cx="1064" cy="974" r="10" class="c0"/>
<circle cx="1042" cy="1100" r="10" class="c0"/>
<circle cx="1904" cy="792" r="10" class="c0"/>
<circle cx="1006" cy="1028" r="10" class="c0"/>
<circle cx="1724" cy="730" r="10" class="c0"/>
<circle cx="1060" cy="900" r="10" class="c0"/>
<circle cx="1060" cy="1026" r="10" class="c0"/>
<circle cx="986" cy="564" r="10" class="c0"/>
<circle cx="1052" cy="642" r="10" class="c0"/>
<circle cx="1242" cy="604" r="10" class="c0"/>
<circle cx="844" cy="764" r="10" class="c0"/>
<circle cx="996" cy="514" r="10" class="c0"/>
<circle cx="1412" cy="844" r="10" class="c0"/>
<circle cx="886" cy="720" r="10" class="c0"/>
<circle cx="1806" cy="568" r="10" class="c0"/>
<circle cx="1634" cy="762" r="10" class="c0"/>
<circle cx="1294" cy="552" r="10" class="c0"/>
<circle cx="1852" cy="764" r="10" class="c0"/>
<circle cx="1620" cy="798" r="10" class="c0"/>
<circle cx="1898" cy="590" r="10" class="c0"/>
<circle cx="1384" cy="810" r="10" class="c0"/>
<circle cx="880" cy="856" r="10" class="c0"/>
<circle cx="1828" cy="674" r="10" class="c0"/>
<circle cx="1414" cy="720" r="10" class="c0"/>
<circle cx="1280" cy="626" r="10" class="c0"/>
<circle cx="1476" cy="646" r="10" class="c0"/>
<circle cx="1796" cy="602" r="10" class="c0"/>
<circle cx="1750" cy="824" r="10" class="c0"/>
<circle cx="1710" cy="750" r="10" class="c0"/>
<circle cx="1174" cy="578" r="10" class="c0"/>
<circle cx="1332" cy="742" r="10" class="c0"/>
<circle cx="1036" cy="708" r="10" class="c0"/>
<circle cx="1106" cy="468" r="10" class="c0"/>
<circle cx="950" cy="642" r="10" class="c0"/>
<circle cx="1574" cy="848" r="10" class="c0"/>
<circle cx="1634" cy="642" r="10" class="c0"/>
<circle cx="1060" cy="594" r="10" class="c0"/>
<circle cx="826" cy="710" r="10" class="c0"/>
<circle cx="1744" cy="672" r="10" class="c0"/>
<circle cx="1622" cy="626" r="10" class="c0"/>
<circle cx="1822" cy="538" r="10" class="c0"/>
<circle cx="1024" cy="1050" r="10" class="c0"/>
<circle cx="1412" cy="786" r="10" class="c0"/>
<circle cx="986" cy="602" r="10" class="c0"/>
<circle cx="1002" cy="892" r="10" class="c0"/>
<circle cx="1686" cy="678" r="10" class="c0"/>
<circle cx="1474" cy="668" r="10" class="c0"/>
<circle cx="1484" cy="736" r="10" class="c0"/>
<circle cx="1764" cy="698" r="10" class="c0"/>
<circle cx="996" cy="748" r="10" class="c0"/>
<circle cx="812" cy="866" r="10" class="c0"/>
<circle cx="1450" cy="688" r="10" class="c0"/>
<circle cx="1588" cy="866" r="10" class="c0"/>
<circle cx="890" cy="874" r="10" class="c0"/>
<circle cx="844" cy="810" r="10" class="c0"/>
<circle cx="976" cy="886" r="10" class="c0"/>
<circle cx="1714" cy="668" r="10" class="c0"/>
<circle cx="1570" cy="824" r="10" class="c0"/>
<circle cx="1310" cy="598" r="10" class="c0"/>
<circle cx="1850" cy="672" r="10" class="c0"/>
<circle cx="1170" cy="604" r="10" class="c0"/>
<circle cx="1880" cy="744" r="10" class="c0"/>
<circle cx="1624" cy="736" r="10" class="c0"/>
<circle cx="1628" cy="826" r="10" class="c0"/>
<circle cx="1186" cy="646" r="10" class="c0"/>
<circle cx="1332" cy="638" r="10" class="c0"/>
<circle cx="1312" cy="566" r="10" class="c0"/>
<circle cx="1904" cy="644" r="10" class="c0"/>
<circle cx="1112" cy="528" r="10" class="c0"/>
<circle cx="820" cy="754" r="10" class="c0"/>
<circle cx="1302" cy="686" r="10" class="c0"/>
<circle cx="1046" cy="566" r="10" class="c0"/>
<circle cx="1536" cy="780" r="10" class="c0"/>
<circle cx="968" cy="574" r="10" class="c0"/>
<circle cx="1886" cy="478" r="10" class="c0"/>
<circle cx="1564" cy="738" r="10" class="c0"/>
<circle cx="1066" cy="498" r="10" class="c0"/>
<circle cx="1866" cy="728" r="10" class="c0"/>
<circle cx="1740" cy="576" r="10" class="c0"/>
<circle cx="1426" cy="862" r="10" class="c0"/>
<circle cx="1598" cy="680" r="10" class="c0"/>
<circle cx="864" cy="732" r="10" class="c0"/>
<circle cx="1222" cy="618" r="10" class="c0"/>
<circle cx="1020" cy="620" r="10" class="c0"/>
<circle cx="1024" cy="488" r="10" class="c0"/>
<circle cx="1872" cy="610" r="10" class="c0"/>
<circle cx="1186" cy="536" r="10" class="c0"/>
<circle cx="1472" cy="824" r="10" class="c0"/>
<circle cx="1020" cy="814" r="10" class="c0"/>
<circle cx="1362" cy="652" r="10" class="c0"/>
<circle cx="1390" cy="572" r="10" class="c0"/>
<circle cx="1006" cy="978" r="10" class="c0"/>
<circle cx="1780" cy="824" r="10" class="c0"/>
<circle cx="1344" cy="608" r="10" class="c0"/>
<circle cx="1640" cy="694" r="10" class="c0"/>
<circle cx="1296" cy="660" r="10" class="c0"/>
<circle cx="1822" cy="698" r="10" class="c0"/>
<circle cx="916" cy="652" r="10" class="c0"/>
<circle cx="1214" cy="642" r="10" class="c0"/>
<circle cx="764" cy="740" r="10" class="c0"/>
<circle cx="1444" cy="608" r="10" class="c0"/>
<circle cx="1444" cy="718" r="10" class="c0"/>
<circle cx="1588" cy="758" r="10" class="c0"/>
<circle cx="1568" cy="690" r="10" class="c0"/>
<circle cx="1104" cy="560" r="10" class="c0"/>
<circle cx="1840" cy="724" r="10" class="c0"/>
<circle cx="1600" cy="708" r="10" class="c0"/>
<circle cx="1664" cy="620" r="10" class="c0"/>
<circle cx="1098" cy="640" r="10" class="c0"/>
<circle cx="942" cy="714" r="10" class="c0"/>
<circle cx="1890" cy="722" r="10" class="c0"/>
<circle cx="990" cy="992" r="10" class="c0"/>
<circle cx="1372" cy="722" r="10" class="c0"/>
<circle cx="982" cy="862" r="10" class="c0"/>
<circle cx="1256" cy="568" r="10" class="c0"/>
<circle cx="1680" cy="642" r="10" class="c0"/>
<circle cx="1894" cy="670" r="10" class="c0"/>
<circle cx="1342" cy="560" r="10" class="c0"/>
<circle cx="1322" cy="724" r="10" class="c0"/>
<circle cx="1456" cy="760" r="10" class="c0"/>
<circle cx="1050" cy="1056" r="10" class="c0"/>
<circle cx="1404" cy="652" r="10" class="c0"/>
<circle cx="1228" cy="514" r="10" class="c0"/>
<circle cx="1866" cy="704" r="10" class="c0"/>
<circle cx="1084" cy="1086" r="10" class="c0"/>
<circle cx="1528" cy="806" r="10" class="c0"/>
<circle cx="1582" cy="650" r="10" class="c0"/>
<circle cx="1434" cy="792" r="10" class="c0"/>
<circle cx="1062" cy="660" r="10" class="c0"/>
<circle cx="1048" cy="616" r="10" class="c0"/>
<circle cx="1358" cy="588" r="10" class="c0"/>
<circle cx="796" cy="794" r="10" class="c0"/>
<circle cx="1764" cy="786" r="10" class="c0"/>
<circle cx="1318" cy="764" r="10" class="c0"/>
<circle cx="1228" cy="540" r="10" class="c0"/>
<circle cx="1362" cy="798" r="10" class="c0"/>
<circle cx="1464" cy="618" r="10" class="c0"/>
<circle cx="1004" cy="538" r="10" class="c0"/>
<circle cx="1550" cy="758" r="10" class="c0"/>
<circle cx="1850" cy="576" r="10" class="c0"/>
<circle cx="1500" cy="842" r="10" class="c0"/>
<circle cx="1712" cy="798" r="10" class="c0"/>
<circle cx="1724" cy="686" r="10" class="c0"/>
<circle cx="1228" cy="696" r="10" class="c0"/>
<circle cx="1000" cy="772" r="10" class="c0"/>
<circle cx="930" cy="592" r="10" class="c0"/>
<circle cx="910" cy="616" r="10" class="c0"/>
<circle cx="1772" cy="764" r="8" class="c0"/>
<circle cx="1694" cy="622" r="8" class="c0"/>
<circle cx="1750" cy="728" r="8" class="c0"/>
<circle cx="1060" cy="722" r="8" class="c0"/>
<circle cx="868" cy="844" r="8" class="c0"/>
<circle cx="1652" cy="718" r="8" class="c0"/>
<circle cx="1358" cy="710" r="8" class="c0"/>
<circle cx="944" cy="766" r="8" class="c0"/>
<circle cx="1706" cy="646" r="8" class="c0"/>
<circle cx="1828" cy="810" r="8" class="c0"/>
<circle cx="1288" cy="756" r="8" class="c0"/>
<circle cx="1064" cy="842" r="8" class="c0"/>
<circle cx="1072" cy="560" r="8" class="c0"/>
<circle cx="1432" cy="836" r="8" class="c0"/>
<circle cx="1434" cy="742" r="8" class="c0"/>
<circle cx="1392" cy="640" r="8" class="c0"/>
<circle cx="908" cy="702" r="8" class="c0"/>
<circle cx="1390" cy="840" r="8" class="c0"/>
<circle cx="1432" cy="664" r="8" class="c0"/>
<circle cx="962" cy="956" r="8" class="c0"/>
<circle cx="1188" cy="508" r="8" class="c0"/>
<circle cx="1358" cy="754" r="8" class="c0"/>
<circle cx="1498" cy="672" r="8" class="c0"/>
<circle cx="1268" cy="672" r="8" class="c0"/>
<circle cx="1590" cy="724" r="8" class="c0"/>
<circle cx="1382" cy="788" r="8" class="c0"/>
<circle cx="966" cy="604" r="8" class="c0"/>
<circle cx="1122" cy="1080" r="8" class="c0"/>
<circle cx="1454" cy="844" r="8" class="c0"/>
<circle cx="928" cy="560" r="8" class="c0"/>
<circle cx="1666" cy="786" r="8" class="c0"/>
<circle cx="1742" cy="610" r="8" class="c0"/>
<circle cx="1572" cy="668" r="8" class="c0"/>
<circle cx="1552" cy="816" r="8" class="c0"/>
<circle cx="1030" cy="766" r="8" class="c0"/>
<circle cx="1568" cy="768" r="8" class="c0"/>
<circle cx="1382" cy="696" r="8" class="c0"/>
<circle cx="1814" cy="652" r="8" class="c0"/>
<circle cx="1766" cy="658" r="8" class="c0"/>
<circle cx="968" cy="524" r="8" class="c0"/>
<circle cx="778" cy="718" r="8" class="c0"/>
<circle cx="1206" cy="548" r="8" class="c0"/>
<circle cx="1864" cy="780" r="8" class="c0"/>
<circle cx="1008" cy="602" r="8" class="c0"/>
<circle cx="1162" cy="636" r="8" class="c0"/>
<circle cx="1084" cy="610" r="8" class="c0"/>
<circle cx="1032" cy="984" r="8" class="c0"/>
<circle cx="1022" cy="1090" r="8" class="c0"/>
<circle cx="808" cy="718" r="8" class="c0"/>
<circle cx="1188" cy="596" r="8" class="c0"/>
<circle cx="970" cy="924" r="8" class="c0"/>
<circle cx="982" cy="934" r="8" class="c0"/>
<circle cx="1626" cy="680" r="8" class="c0"/>
<circle cx="1096" cy="516" r="8" class="c0"/>
<circle cx="1748" cy="644" r="8" class="c0"/>
<circle cx="962" cy="622" r="8" class="c0"/>
<circle cx="1440" cy="814" r="8" class="c0"/>
<circle cx="1510" cy="748" r="8" class="c0"/>
<circle cx="1608" cy="754" r="8" class="c0"/>
<circle cx="1786" cy="752" r="8" class="c0"/>
<circle cx="1478" cy="844" r="8" class="c0"/>
<circle cx="1526" cy="740" r="8" class="c0"/>
<circle cx="1720" cy="710" r="8" class="c0"/>
<circle cx="1400" cy="702" r="8" class="c0"/>
<circle cx="1364" cy="822" r="8" class="c0"/>
<circle cx="1522" cy="646" r="8" class="c0"/>
<circle cx="778" cy="680" r="8" class="c0"/>
<circle cx="1090" cy="1052" r="8" class="c0"/>
<circle cx="1544" cy="700" r="8" class="c0"/>
<circle cx="1524" cy="766" r="8" class="c0"/>
<circle cx="1802" cy="702" r="8" class="c0"/>
<circle cx="1606" cy="660" r="8" class="c0"/>
<circle cx="1052" cy="692" r="8" class="c0"/>
<circle cx="1264" cy="536" r="8" class="c0"/>
<circle cx="1556" cy="792" r="8" class="c0"/>
<circle cx="1220" cy="586" r="8" class="c0"/>
<circle cx="1880" cy="692" r="8" class="c0"/>
<circle cx="1708" cy="700" r="8" class="c0"/>
<circle cx="970" cy="640" r="8" class="c0"/>
<circle cx="1536" cy="878" r="8" class="c0"/>
<circle cx="1302" cy="716" r="8" class="c0"/>
<circle cx="1284" cy="592" r="8" class="c0"/>
<circle cx="1690" cy="602" r="8" class="c0"/>
<circle cx="1056" cy="812" r="8" class="c0"/>
<circle cx="800" cy="842" r="8" class="c0"/>
<circle cx="1614" cy="774" r="8" class="c0"/>
<circle cx="1908" cy="502" r="8" class="c0"/>
<circle cx="1902" cy="708" r="8" class="c0"/>
<circle cx="1594" cy="780" r="8" class="c0"/>
<circle cx="1036" cy="824" r="8" class="c0"/>
<circle cx="1064" cy="1098" r="8" class="c0"/>
<circle cx="1522" cy="718" r="8" class="c0"/>
<circle cx="1212" cy="526" r="8" class="c0"/>
<circle cx="1834" cy="784" r="8" class="c0"/>
<circle cx="1638" cy="616" r="8" class="c0"/>
<circle cx="1014" cy="906" r="8" class="c0"/>
<circle cx="796" cy="742" r="8" class="c0"/>
<circle cx="1210" cy="676" r="8" class="c0"/>
<circle cx="1002" cy="866" r="8" class="c0"/>
<circle cx="802" cy="644" r="8" class="c0"/>
<circle cx="1022" cy="874" r="8" class="c0"/>
<circle cx="1508" cy="624" r="8" class="c0"/>
<circle cx="1516" cy="790" r="8" class="c0"/>
<circle cx="1448" cy="872" r="8" class="c0"/>
<circle cx="804" cy="662" r="8" class="c0"/>
<circle cx="1320" cy="666" r="8" class="c0"/>
<circle cx="802" cy="764" r="8" class="c0"/>
<circle cx="1054" cy="920" r="8" class="c0"/>
<circle cx="1094" cy="480" r="8" class="c0"/>
<circle cx="1530" cy="836" r="8" class="c0"/>
<circle cx="1498" cy="698" r="8" class="c0"/>
<circle cx="984" cy="1086" r="8" class="c0"/>
<circle cx="1732" cy="814" r="8" class="c0"/>
<circle cx="1848" cy="644" r="8" class="c0"/>
<circle cx="966" cy="852" r="8" class="c0"/>
<circle cx="954" cy="876" r="8" class="c0"/>
<circle cx="1882" cy="566" r="8" class="c0"/>
<circle cx="1466" cy="700" r="8" class="c0"/>
<circle cx="860" cy="590" r="8" class="c0"/>
<circle cx="768" cy="782" r="8" class="c0"/>
<circle cx="1884" cy="774" r="8" class="c0"/>
<circle cx="860" cy="630" r="8" class="c0"/>
<circle cx="1280" cy="528" r="8" class="c0"/>
<circle cx="1416" cy="614" r="8" class="c0"/>
<circle cx="1776" cy="640" r="8" class="c0"/>
<circle cx="1498" cy="780" r="8" class="c0"/>
<circle cx="890" cy="672" r="8" class="c0"/>
<circle cx="890" cy="574" r="8" class="c0"/>
<circle cx="1104" cy="490" r="8" class="c0"/>
<circle cx="934" cy="666" r="8" class="c0"/>
<circle cx="1662" cy="754" r="8" class="c0"/>
<circle cx="1462" cy="598" r="8" class="c0"/>
<circle cx="1454" cy="648" r="8" class="c0"/>
<circle cx="986" cy="826" r="8" class="c0"/>
<circle cx="1482" cy="714" r="8" class="c0"/>
<circle cx="1016" cy="844" r="8" class="c0"/>
<circle cx="1402" cy="584" r="8" class="c0"/>
<circle cx="1192" cy="670" r="8" class="c0"/>
<circle cx="1684" cy="734" r="8" class="c0"/>
<circle cx="862" cy="706" r="8" class="c0"/>
<circle cx="1478" cy="782" r="8" class="c0"/>
<circle cx="1806" cy="810" r="8" class="c0"/>
<circle cx="1646" cy="802" r="8" class="c0"/>
<circle cx="946" cy="748" r="8" class="c0"/>
<circle cx="1024" cy="510" r="8" class="c0"/>
<circle cx="1614" cy="692" r="8" class="c0"/>
<circle cx="1042" cy="732" r="8" class="c0"/>
<circle cx="1060" cy="542" r="8" class="c0"/>
<circle cx="1468" cy="866" r="8" class="c0"/>
<circle cx="1860" cy="598" r="8" class="c0"/>
<circle cx="1038" cy="962" r="8" class="c0"/>
<circle cx="978" cy="908" r="8" class="c0"/>
<circle cx="1282" cy="698" r="8" class="c0"/>
<circle cx="1902" cy="466" r="8" class="c0"/>
<circle cx="942" cy="616" r="8" class="c0"/>
<circle cx="1856" cy="536" r="8" class="c0"/>
<circle cx="1378" cy="744" r="8" class="c0"/>
<circle cx="910" cy="558" r="8" class="c0"/>
<circle cx="1166" cy="484" r="8" class="c0"/>
<circle cx="1666" cy="704" r="8" class="c0"/>
<circle cx="1896" cy="526" r="8" class="c0"/>
<circle cx="1682" cy="810" r="8" class="c0"/>
<circle cx="986" cy="788" r="8" class="c0"/>
<circle cx="1272" cy="712" r="8" class="c0"/>
<circle cx="1008" cy="636" r="8" class="c0"/>
<circle cx="832" cy="782" r="8" class="c0"/>
<circle cx="1908" cy="614" r="8" class="c0"/>
<circle cx="1600" cy="640" r="8" class="c0"/>
<circle cx="1908" cy="536" r="8" class="c0"/>
<circle cx="1276" cy="566" r="8" class="c0"/>
<circle cx="1306" cy="540" r="8" class="c0"/>
<circle cx="1430" cy="588" r="8" class="c0"/>
<circle cx="1314" cy="648" r="8" class="c0"/>
<circle cx="990" cy="1048" r="8" class="c0"/>
<circle cx="1238" cy="580" r="8" class="c0"/>
<circle cx="1008" cy="940" r="8" class="c0"/>
<circle cx="1724" cy="642" r="8" class="c0"/>
<circle cx="870" cy="810" r="8" class="c0"/>
<circle cx="962" cy="900" r="8" class="c0"/>
<circle cx="1258" cy="660" r="8" class="c0"/>
<circle cx="1730" cy="774" r="8" class="c0"/>
<circle cx="912" cy="744" r="8" class="c0"/>
<circle cx="1032" cy="526" r="8" class="c0"/>
<circle cx="1410" cy="678" r="8" class="c0"/>
<circle cx="1072" cy="1070" r="8" class="c0"/>
<circle cx="810" cy="698" r="8" class="c0"/>
<circle cx="1374" cy="622" r="8" class="c0"/>
<circle cx="1710" cy="590" r="8" class="c0"/>
<circle cx="1492" cy="762" r="8" class="c0"/>
<circle cx="1206" cy="598" r="8" class="c0"/>
<circle cx="806" cy="814" r="8" class="c0"/>
<circle cx="1842" cy="608" r="8" class="c0"/>
<circle cx="956" cy="936" r="8" class="c0"/>
<circle cx="1714" cy="618" r="8" class="c0"/>
<circle cx="1078" cy="638" r="8" class="c0"/>
<circle cx="1024" cy="742" r="8" class="c0"/>
<circle cx="1116" cy="504" r="8" class="c0"/>
<circle cx="956" cy="592" r="8" class="c0"/>
<circle cx="1326" cy="546" r="8" class="c0"/>
<circle cx="1154" cy="584" r="8" class="c0"/>
<circle cx="1864" cy="660" r="8" class="c0"/>
<circle cx="1346" cy="808" r="8" class="c0"/>
<circle cx="1682" cy="752" r="8" class="c0"/>
<circle cx="800" cy="680" r="8" class="c0"/>
<circle cx="1652" cy="742" r="8" class="c0"/>
<circle cx="1624" cy="848" r="8" class="c0"/>
<circle cx="1088" cy="590" r="8" class="c0"/>
<circle cx="1542" cy="730" r="8" class="c0"/>
<circle cx="1564" cy="710" r="8" class="c0"/>
<circle cx="1414" cy="806" r="8" class="c0"/>
<circle cx="946" cy="546" r="8" class="c0"/>
<circle cx="1436" cy="766" r="8" class="c0"/>
<circle cx="1484" cy="626" r="8" class="c0"/>
<circle cx="1830" cy="636" r="8" class="c0"/>
<circle cx="1288" cy="736" r="8" class="c0"/>
<circle cx="1236" cy="656" r="8" class="c0"/>
<circle cx="890" cy="694" r="8" class="c0"/>
<circle cx="1056" cy="944" r="8" class="c0"/>
<circle cx="824" cy="616" r="8" class="c0"/>
<circle cx="1782" cy="590" r="8" class="c0"/>
<circle cx="824" cy="638" r="8" class="c0"/>
<circle cx="1892" cy="556" r="8" class="c0"/>
<circle cx="1872" cy="634" r="8" class="c0"/>
<circle cx="1302" cy="628" r="8" class="c0"/>
<circle cx="1006" cy="832" r="8" class="c0"/>
<circle cx="1758" cy="624" r="8" class="c0"/>
<circle cx="1046" cy="1076" r="8" class="c0"/>
<circle cx="1656" cy="650" r="8" class="c0"/>
<circle cx="1738" cy="712" r="8" class="c0"/>
<circle cx="1790" cy="626" r="8" class="c0"/>
<circle cx="978" cy="976" r="8" class="c0"/>
<circle cx="1048" cy="994" r="8" class="c0"/>
<circle cx="1242" cy="526" r="8" class="c0"/>
<circle cx="862" cy="752" r="8" class="c0"/>
<circle cx="1780" cy="800" r="8" class="c0"/>
<circle cx="840" cy="686" r="8" class="c0"/>
<circle cx="1080" cy="1034" r="8" class="c0"/>
<circle cx="1578" cy="806" r="8" class="c0"/>
<circle cx="984" cy="952" r="8" class="c0"/>
<circle cx="1070" cy="688" r="8" class="c0"/>
<circle cx="1264" cy="590" r="8" class="c0"/>
<circle cx="1788" cy="654" r="8" class="c0"/>
<circle cx="930" cy="536" r="8" class="c0"/>
<circle cx="1464" cy="802" r="8" class="c0"/>
<circle cx="1278" cy="746" r="8" class="c0"/>
<circle cx="1404" cy="626" r="8" class="c0"/>
<circle cx="1910" cy="738" r="8" class="c0"/>
<circle cx="1814" cy="778" r="8" class="c0"/>
<circle cx="752" cy="760" r="8" class="c0"/>
<circle cx="1754" cy="600" r="8" class="c0"/>
<circle cx="964" cy="770" r="8" class="c0"/>
<circle cx="1106" cy="592" r="8" class="c0"/>
<circle cx="1070" cy="996" r="8" class="c0"/>
<circle cx="1042" cy="678" r="8" class="c0"/>
<circle cx="1642" cy="782" r="8" class="c0"/>
<circle cx="1134" cy="508" r="8" class="c0"/>
<circle cx="1428" cy="628" r="8" class="c0"/>
<circle cx="1880" cy="544" r="8" class="c0"/>
<circle cx="1870" cy="802" r="8" class="c0"/>
<circle cx="1858" cy="486" r="8" class="c0"/>
<circle cx="1270" cy="730" r="8" class="c0"/>
<circle cx="1748" cy="776" r="8" class="c0"/>
<circle cx="1774" cy="554" r="8" class="c0"/>
<circle cx="1370" cy="672" r="8" class="c0"/>
<circle cx="1612" cy="866" r="8" class="c0"/>
<circle cx="1910" cy="760" r="8" class="c0"/>
<circle cx="982" cy="808" r="8" class="c0"/>
<circle cx="1034" cy="1034" r="8" class="c0"/>
<circle cx="1652" cy="822" r="8" class="c0"/>
<circle cx="1868" cy="556" r="8" class="c0"/>
<circle cx="1006" cy="1098" r="8" class="c0"/>
<circle cx="944" cy="568" r="8" class="c0"/>
<circle cx="1494" cy="864" r="8" class="c0"/>
<circle cx="1026" cy="552" r="8" class="c0"/>
<circle cx="1254" cy="706" r="8" class="c0"/>
<circle cx="1068" cy="1044" r="8" class="c0"/>
<circle cx="1326" cy="580" r="8" class="c0"/>
<circle cx="1150" cy="608" r="8" class="c0"/>
<circle cx="930" cy="628" r="8" class="c0"/>
<circle cx="966" cy="554" r="8" class="c0"/>
<circle cx="1098" cy="1074" r="8" class="c0"/>
<circle cx="1768" cy="810" r="8" class="c0"/>
<circle cx="1828" cy="584" r="8" class="c0"/>
<circle cx="1322" cy="786" r="8" class="c0"/>
<circle cx="1152" cy="522" r="8" class="c0"/>
<circle cx="1392" cy="732" r="8" class="c0"/>
<circle cx="1110" cy="1062" r="8" class="c0"/>
<circle cx="762" cy="804" r="8" class="c0"/>
<circle cx="1086" cy="572" r="8" class="c0"/>
<circle cx="1552" cy="654" r="8" class="c0"/>
<circle cx="1736" cy="796" r="8" class="c0"/>
<circle cx="1076" cy="1014" r="8" class="c0"/>
<circle cx="822" cy="688" r="8" class="c0"/>
<circle cx="984" cy="1106" r="8" class="c0"/>
<circle cx="1262" cy="618" r="8" class="c0"/>
<circle cx="1160" cy="540" r="8" class="c0"/>
<circle cx="1034" cy="598" r="8" class="c0"/>
<circle cx="1366" cy="564" r="8" class="c0"/>
<circle cx="974" cy="1096" r="8" class="c0"/>
<circle cx="752" cy="794" r="8" class="c0"/>
<circle cx="1382" cy="660" r="8" class="c0"/>
<circle cx="1850" cy="740" r="8" class="c0"/>
<circle cx="1662" cy="836" r="8" class="c0"/>
<circle cx="1728" cy="594" r="8" class="c0"/>
<circle cx="1040" cy="804" r="8" class="c0"/>
<circle cx="1424" cy="700" r="8" class="c0"/>
<circle cx="1086" cy="656" r="8" class="c0"/>
<circle cx="1044" cy="482" r="8" class="c0"/>
<circle cx="1842" cy="556" r="8" class="c0"/>
<circle cx="1906" cy="568" r="8" class="c0"/>
<circle cx="1484" cy="686" r="8" class="c0"/>
<circle cx="994" cy="920" r="8" class="c0"/>
<circle cx="1882" cy="658" r="8" class="c0"/>
<circle cx="1558" cy="874" r="8" class="c0"/>
<circle cx="1486" cy="800" r="8" class="c0"/>
<circle cx="984" cy="502" r="8" class="c0"/>
<circle cx="872" cy="576" r="8" class="c0"/>
<circle cx="1210" cy="572" r="8" class="c0"/>
<circle cx="1020" cy="952" r="8" class="c0"/>
<circle cx="1436" cy="646" r="8" class="c0"/>
<circle cx="1002" cy="806" r="8" class="c0"/>
<circle cx="792" cy="702" r="8" class="c0"/>
<circle cx="1800" cy="544" r="8" class="c0"/>
<circle cx="1240" cy="554" r="8" class="c0"/>
<circle cx="1096" cy="540" r="8" class="c0"/>
<circle cx="1520" cy="696" r="8" class="c0"/>
<circle cx="770" cy="696" r="8" class="c0"/>
<circle cx="788" cy="822" r="8" class="c0"/>
<circle cx="926" cy="762" r="8" class="c0"/>
<circle cx="1192" cy="570" r="8" class="c0"/>
<circle cx="986" cy="632" r="8" class="c0"/>
<circle cx="1816" cy="596" r="8" class="c0"/>
<circle cx="1356" cy="632" r="8" class="c0"/>
<circle cx="1172" cy="554" r="8" class="c0"/>
<circle cx="1652" cy="608" r="6" class="c0"/>
<circle cx="1468" cy="772" r="6" class="c0"/>
<circle cx="914" cy="634" r="6" class="c0"/>
<circle cx="1602" cy="734" r="6" class="c0"/>
<circle cx="1504" cy="644" r="6" class="c0"/>
<circle cx="1004" cy="488" r="6" class="c0"/>
<circle cx="1432" cy="684" r="6" class="c0"/>
<circle cx="1844" cy="690" r="6" class="c0"/>
<circle cx="1322" cy="620" r="6" class="c0"/>
<circle cx="1856" cy="618" r="6" class="c0"/>
<circle cx="1766" cy="838" r="6" class="c0"/>
<circle cx="1886" cy="790" r="6" class="c0"/>
<circle cx="1626" cy="662" r="6" class="c0"/>
<circle cx="1620" cy="714" r="6" class="c0"/>
<circle cx="1892" cy="610" r="6" class="c0"/>
<circle cx="898" cy="596" r="6" class="c0"/>
<circle cx="1728" cy="752" r="6" class="c0"/>
<circle cx="1454" cy="670" r="6" class="c0"/>
<circle cx="1226" cy="570" r="6" class="c0"/>
<circle cx="1066" cy="880" r="6" class="c0"/>
<circle cx="1344" cy="700" r="6" class="c0"/>
<circle cx="1186" cy="492" r="6" class="c0"/>
<circle cx="1140" cy="628" r="6" class="c0"/>
<circle cx="1782" cy="692" r="6" class="c0"/>
<circle cx="1350" cy="738" r="6" class="c0"/>
<circle cx="912" cy="590" r="6" class="c0"/>
<circle cx="1096" cy="1036" r="6" class="c0"/>
<circle cx="1702" cy="852" r="6" class="c0"/>
<circle cx="1894" cy="626" r="6" class="c0"/>
<circle cx="990" cy="1070" r="6" class="c0"/>
<circle cx="1648" cy="844" r="6" class="c0"/>
<circle cx="1692" cy="696" r="6" class="c0"/>
<circle cx="1284" cy="648" r="6" class="c0"/>
<circle cx="914" cy="574" r="6" class="c0"/>
<circle cx="1396" cy="668" r="6" class="c0"/>
<circle cx="954" cy="918" r="6" class="c0"/>
<circle cx="1362" cy="612" r="6" class="c0"/>
<circle cx="1030" cy="902" r="6" class="c0"/>
<circle cx="1502" cy="724" r="6" class="c0"/>
<circle cx="814" cy="784" r="6" class="c0"/>
<circle cx="974" cy="836" r="6" class="c0"/>
<circle cx="1476" cy="756" r="6" class="c0"/>
<circle cx="1878" cy="528" r="6" class="c0"/>
<circle cx="1066" cy="934" r="6" class="c0"/>
<circle cx="1572" cy="788" r="6" class="c0"/>
<circle cx="1294" cy="612" r="6" class="c0"/>
<circle cx="1466" cy="740" r="6" class="c0"/>
<circle cx="1398" cy="826" r="6" class="c0"/>
<circle cx="1220" cy="558" r="6" class="c0"/>
<circle cx="966" cy="814" r="6" class="c0"/>
<circle cx="1676" cy="770" r="6" class="c0"/>
<circle cx="970" cy="750" r="6" class="c0"/>
<circle cx="1126" cy="570" r="6" class="c0"/>
<circle cx="1596" cy="796" r="6" class="c0"/>
<circle cx="1296" cy="574" r="6" class="c0"/>
<circle cx="1040" cy="508" r="6" class="c0"/>
<circle cx="1704" cy="682" r="6" class="c0"/>
<circle cx="1034" cy="632" r="6" class="c0"/>
<circle cx="1740" cy="694" r="6" class="c0"/>
<circle cx="1450" cy="780" r="6" class="c0"/>
<circle cx="1700" cy="814" r="6" class="c0"/>
<circle cx="1652" cy="864" r="6" class="c0"/>
<circle cx="1540" cy="860" r="6" class="c0"/>
<circle cx="788" cy="668" r="6" class="c0"/>
<circle cx="852" cy="842" r="6" class="c0"/>
<circle cx="1016" cy="524" r="6" class="c0"/>
<circle cx="1044" cy="756" r="6" class="c0"/>
<circle cx="1418" cy="768" r="6" class="c0"/>
<circle cx="984" cy="582" r="6" class="c0"/>
<circle cx="1668" cy="802" r="6" class="c0"/>
<circle cx="1906" cy="484" r="6" class="c0"/>
<circle cx="1840" cy="750" r="6" class="c0"/>
<circle cx="1516" cy="678" r="6" class="c0"/>
<circle cx="818" cy="838" r="6" class="c0"/>
<circle cx="1796" cy="792" r="6" class="c0"/>
<circle cx="1734" cy="630" r="6" class="c0"/>
<circle cx="1668" cy="818" r="6" class="c0"/>
<circle cx="1824" cy="768" r="6" class="c0"/>
<circle cx="988" cy="1022" r="6" class="c0"/>
<circle cx="848" cy="720" r="6" class="c0"/>
<circle cx="1792" cy="712" r="6" class="c0"/>
<circle cx="854" cy="826" r="6" class="c0"/>
<circle cx="1852" cy="802" r="6" class="c0"/>
<circle cx="1230" cy="634" r="6" class="c0"/>
<circle cx="988" cy="530" r="6" class="c0"/>
<circle cx="1454" cy="732" r="6" class="c0"/>
<circle cx="824" cy="728" r="6" class="c0"/>
<circle cx="1070" cy="576" r="6" class="c0"/>
<circle cx="1508" cy="876" r="6" class="c0"/>
<circle cx="1818" cy="820" r="6" class="c0"/>
<circle cx="1880" cy="588" r="6" class="c0"/>
<circle cx="1120" cy="546" r="6" class="c0"/>
<circle cx="1728" cy="844" r="6" class="c0"/>
<circle cx="1068" cy="618" r="6" class="c0"/>
<circle cx="1692" cy="660" r="6" class="c0"/>
<circle cx="952" cy="660" r="6" class="c0"/>
<circle cx="1650" cy="634" r="6" class="c0"/>
<circle cx="1084" cy="504" r="6" class="c0"/>
<circle cx="1314" cy="740" r="6" class="c0"/>
<circle cx="1010" cy="556" r="6" class="c0"/>
<circle cx="1448" cy="630" r="6" class="c0"/>
<circle cx="1042" cy="660" r="6" class="c0"/>
<circle cx="1038" cy="846" r="6" class="c0"/>
<circle cx="866" cy="656" r="6" class="c0"/>
<circle cx="876" cy="826" r="6" class="c0"/>
<circle cx="1870" cy="580" r="6" class="c0"/>
<circle cx="1412" cy="598" r="6" class="c0"/>
<circle cx="1032" cy="472" r="6" class="c0"/>
<circle cx="1284" cy="680" r="6" class="c0"/>
<circle cx="1898" cy="690" r="6" class="c0"/>
<circle cx="1748" cy="806" r="6" class="c0"/>
<circle cx="820" cy="798" r="6" class="c0"/>
<circle cx="1038" cy="582" r="6" class="c0"/>
<circle cx="1344" cy="718" r="6" class="c0"/>
<circle cx="998" cy="614" r="6" class="c0"/>
<circle cx="904" cy="718" r="6" class="c0"/>
<circle cx="850" cy="696" r="6" class="c0"/>
<circle cx="1300" cy="746" r="6" class="c0"/>
<circle cx="946" cy="524" r="6" class="c0"/>
<circle cx="1366" cy="772" r="6" class="c0"/>
<circle cx="1516" cy="826" r="6" class="c0"/>
<circle cx="1634" cy="858" r="6" class="c0"/>
<circle cx="1240" cy="626" r="6" class="c0"/>
<circle cx="1824" cy="732" r="6" class="c0"/>
<circle cx="1512" cy="732" r="6" class="c0"/>
<circle cx="1454" cy="822" r="6" class="c0"/>
<circle cx="1444" cy="856" r="6" class="c0"/>
<circle cx="1202" cy="496" r="6" class="c0"/>
<circle cx="760" cy="720" r="6" class="c0"/>
<circle cx="1388" cy="712" r="6" class="c0"/>
<circle cx="1846" cy="704" r="6" class="c0"/>
<circle cx="1840" cy="540" r="6" class="c0"/>
<circle cx="1250" cy="544" r="6" class="c0"/>
<circle cx="1336" cy="796" r="6" class="c0"/>
<circle cx="1494" cy="636" r="6" class="c0"/>
<circle cx="1002" cy="956" r="6" class="c0"/>
<circle cx="1484" cy="876" r="6" class="c0"/>
<circle cx="882" cy="624" r="6" class="c0"/>
<circle cx="1084" cy="674" r="6" class="c0"/>
<circle cx="1014" cy="754" r="6" class="c0"/>
<circle cx="1818" cy="720" r="6" class="c0"/>
<circle cx="1470" cy="724" r="6" class="c0"/>
<circle cx="1508" cy="686" r="6" class="c0"/>
<circle cx="1634" cy="722" r="6" class="c0"/>
<circle cx="1132" cy="524" r="6" class="c0"/>
<circle cx="1044" cy="546" r="6" class="c0"/>
<circle cx="1802" cy="640" r="6" class="c0"/>
<circle cx="1494" cy="614" r="6" class="c0"/>
<circle cx="980" cy="540" r="6" class="c0"/>
<circle cx="1336" cy="762" r="6" class="c0"/>
<circle cx="1900" cy="748" r="6" class="c0"/>
<circle cx="1640" cy="670" r="6" class="c0"/>
<circle cx="978" cy="760" r="6" class="c0"/>
<circle cx="1018" cy="780" r="6" class="c0"/>
<circle cx="950" cy="676" r="6" class="c0"/>
<circle cx="1268" cy="650" r="6" class="c0"/>
<circle cx="1602" cy="876" r="6" class="c0"/>
<circle cx="1668" cy="724" r="6" class="c0"/>
<circle cx="1378" cy="830" r="6" class="c0"/>
<circle cx="1010" cy="998" r="6" class="c0"/>
<circle cx="1422" cy="820" r="6" class="c0"/>
<circle cx="1912" cy="698" r="6" class="c0"/>
<circle cx="1046" cy="834" r="6" class="c0"/>
<circle cx="1026" cy="834" r="6" class="c0"/>
<circle cx="1302" cy="772" r="6" class="c0"/>
<circle cx="1020" cy="890" r="6" class="c0"/>
<circle cx="1600" cy="848" r="6" class="c0"/>
<circle cx="1818" cy="796" r="6" class="c0"/>
<circle cx="1870" cy="680" r="6" class="c0"/>
<circle cx="1872" cy="760" r="6" class="c0"/>
<circle cx="1216" cy="660" r="6" class="c0"/>
<circle cx="1034" cy="1064" r="6" class="c0"/>
<circle cx="1094" cy="620" r="6" class="c0"/>
<circle cx="1706" cy="732" r="6" class="c0"/>
<circle cx="1160" cy="618" r="6" class="c0"/>
<circle cx="1026" cy="796" r="6" class="c0"/>
<circle cx="1208" cy="508" r="6" class="c0"/>
<circle cx="1494" cy="652" r="6" class="c0"/>
<circle cx="1174" cy="622" r="6" class="c0"/>
<circle cx="1800" cy="826" r="6" class="c0"/>
<circle cx="1086" cy="462" r="6" class="c0"/>
<circle cx="1032" cy="688" r="6" class="c0"/>
<circle cx="1070" cy="708" r="6" class="c0"/>
<circle cx="1538" cy="640" r="6" class="c0"/>
<circle cx="1912" cy="552" r="6" class="c0"/>
<circle cx="1610" cy="724" r="6" class="c0"/>
<circle cx="1082" cy="548" r="6" class="c0"/>
<circle cx="810" cy="830" r="6" class="c0"/>
<circle cx="1720" cy="764" r="6" class="c0"/>
<circle cx="944" cy="846" r="6" class="c0"/>
<circle cx="1068" cy="802" r="6" class="c0"/>
<circle cx="924" cy="708" r="6" class="c0"/>
<circle cx="1790" cy="576" r="6" class="c0"/>
<circle cx="1276" cy="546" r="6" class="c0"/>
<circle cx="1892" cy="756" r="6" class="c0"/>
<circle cx="812" cy="734" r="6" class="c0"/>
<circle cx="1050" cy="1012" r="6" class="c0"/>
<circle cx="1770" cy="674" r="6" class="c0"/>
<circle cx="1462" cy="716" r="6" class="c0"/>
<circle cx="1824" cy="560" r="6" class="c0"/>
<circle cx="982" cy="1010" r="6" class="c0"/>
<circle cx="954" cy="532" r="6" class="c0"/>
<circle cx="1378" cy="584" r="6" class="c0"/>
<circle cx="1026" cy="858" r="6" class="c0"/>
<circle cx="1868" cy="476" r="6" class="c0"/>
<circle cx="1394" cy="682" r="6" class="c0"/>
<circle cx="1118" cy="578" r="6" class="c0"/>
<circle cx="1716" cy="850" r="6" class="c0"/>
<circle cx="1892" cy="496" r="6" class="c0"/>
<circle cx="950" cy="860" r="6" class="c0"/>
<circle cx="998" cy="1010" r="6" class="c0"/>
<circle cx="1676" cy="664" r="6" class="c0"/>
<circle cx="1196" cy="522" r="6" class="c0"/>
<circle cx="902" cy="662" r="6" class="c0"/>
<circle cx="1590" cy="816" r="6" class="c0"/>
<circle cx="1054" cy="742" r="6" class="c0"/>
<circle cx="1642" cy="732" r="6" class="c0"/>
<circle cx="1844" cy="812" r="6" class="c0"/>
<circle cx="1670" cy="600" r="6" class="c0"/>
<circle cx="1732" cy="656" r="6" class="c0"/>
<circle cx="1810" cy="686" r="6" class="c0"/>
<circle cx="1574" cy="876" r="6" class="c0"/>
<circle cx="1552" cy="720" r="6" class="c0"/>
<circle cx="1580" cy="712" r="6" class="c0"/>
<circle cx="1202" cy="658" r="6" class="c0"/>
<circle cx="1242" cy="716" r="6" class="c0"/>
<circle cx="908" cy="888" r="6" class="c0"/>
<circle cx="1842" cy="626" r="6" class="c0"/>
<circle cx="1330" cy="656" r="6" class="c0"/>
<circle cx="1688" cy="858" r="6" class="c0"/>
<circle cx="1330" cy="678" r="6" class="c0"/>
<circle cx="992" cy="848" r="6" class="c0"/>
<circle cx="1874" cy="490" r="6" class="c0"/>
<circle cx="1524" cy="664" r="6" class="c0"/>
<circle cx="1742" cy="842" r="6" class="c0"/>
<circle cx="1508" cy="660" r="6" class="c0"/>
<circle cx="1532" cy="656" r="6" class="c0"/>
<circle cx="836" cy="628" r="6" class="c0"/>
<circle cx="1128" cy="466" r="6" class="c0"/>
<circle cx="1912" cy="520" r="6" class="c0"/>
<circle cx="1586" cy="740" r="6" class="c0"/>
<circle cx="876" cy="744" r="6" class="c0"/>
<circle cx="898" cy="628" r="6" class="c0"/>
<circle cx="1604" cy="806" r="6" class="c0"/>
<circle cx="1804" cy="586" r="6" class="c0"/>
<circle cx="1330" cy="598" r="6" class="c0"/>
<circle cx="1720" cy="576" r="6" class="c0"/>
<circle cx="1036" cy="946" r="6" class="c0"/>
<circle cx="1216" cy="500" r="6" class="c0"/>
<circle cx="1912" cy="682" r="6" class="c0"/>
<circle cx="1278" cy="608" r="6" class="c0"/>
<circle cx="1858" cy="516" r="6" class="c0"/>
<circle cx="1028" cy="568" r="6" class="c0"/>
<circle cx="1252" cy="726" r="6" class="c0"/>
<circle cx="1426" cy="604" r="6" class="c0"/>
<circle cx="1838" cy="800" r="6" class="c0"/>
<circle cx="1396" cy="796" r="6" class="c0"/>
<circle cx="1900" cy="772" r="6" class="c0"/>
<circle cx="1042" cy="910" r="6" class="c0"/>
<circle cx="992" cy="878" r="6" class="c0"/>
<circle cx="878" cy="704" r="6" class="c0"/>
<circle cx="1068" cy="826" r="6" class="c0"/>
<circle cx="1790" cy="560" r="6" class="c0"/>
<circle cx="1482" cy="606" r="6" class="c0"/>
<circle cx="868" cy="768" r="6" class="c0"/>
<circle cx="890" cy="616" r="6" class="c0"/>
<circle cx="1584" cy="698" r="6" class="c0"/>
<circle cx="822" cy="772" r="6" class="c0"/>
<circle cx="1338" cy="590" r="6" class="c0"/>
<circle cx="1508" cy="768" r="6" class="c0"/>
<circle cx="1278" cy="662" r="6" class="c0"/>
<circle cx="1832" cy="740" r="6" class="c0"/>
<circle cx="1286" cy="720" r="6" class="c0"/>
<circle cx="1832" cy="618" r="6" class="c0"/>
<circle cx="812" cy="628" r="6" class="c0"/>
<circle cx="1022" cy="970" r="6" class="c0"/>
<circle cx="750" cy="776" r="6" class="c0"/>
<circle cx="1262" cy="692" r="6" class="c0"/>
<circle cx="1838" cy="658" r="6" class="c0"/>
<circle cx="858" cy="854" r="6" class="c0"/>
<circle cx="1070" cy="914" r="6" class="c0"/>
<circle cx="1226" cy="672" r="6" class="c0"/>
<circle cx="1588" cy="838" r="6" class="c0"/>
<circle cx="1616" cy="648" r="6" class="c0"/>
<circle cx="996" cy="588" r="6" class="c0"/>
<circle cx="782" cy="806" r="6" class="c0"/>
<circle cx="1062" cy="1080" r="6" class="c0"/>
<circle cx="1680" cy="794" r="6" class="c0"/>
<circle cx="992" cy="966" r="6" class="c0"/>
<circle cx="1008" cy="502" r="6" class="c0"/>
<circle cx="1448" cy="590" r="6" class="c0"/>
<circle cx="1912" cy="660" r="6" class="c0"/>
<circle cx="1376" cy="642" r="6" class="c0"/>
<circle cx="1660" cy="770" r="6" class="c0"/>
<circle cx="1800" cy="760" r="6" class="c0"/>
<circle cx="1780" cy="706" r="6" class="c0"/>
<circle cx="1846" cy="526" r="6" class="c0"/>
<circle cx="920" cy="546" r="6" class="c0"/>
<circle cx="1752" cy="562" r="6" class="c0"/>
<circle cx="794" cy="726" r="6" class="c0"/>
<circle cx="1344" cy="578" r="6" class="c0"/>
<circle cx="1858" cy="688" r="6" class="c0"/>
<circle cx="1260" cy="520" r="6" class="c0"/>
<circle cx="782" cy="734" r="6" class="c0"/>
<circle cx="1424" cy="756" r="6" class="c0"/>
<circle cx="1628" cy="870" r="6" class="c0"/>
<circle cx="1616" cy="670" r="6" class="c0"/>
<circle cx="1832" cy="760" r="6" class="c0"/>
<circle cx="1338" cy="686" r="6" class="c0"/>
<circle cx="1066" cy="954" r="6" class="c0"/>
<circle cx="1510" cy="708" r="6" class="c0"/>
<circle cx="1168" cy="652" r="6" class="c0"/>
<circle cx="1692" cy="800" r="6" class="c0"/>
<circle cx="1676" cy="714" r="6" class="c0"/>
</svg>
