<?xml version="1.0" encoding="utf-8"?>
<svg xmlns="http://www.w3.org/2000/svg"
     xmlns:xlink="http://www.w3.org/1999/xlink" width="1920" height="1440" >

            <defs>
            <style type="text/css"><![CDATA[
circle {stroke: none;}
.c0 {fill: #FFFFFF;}
]]></style>
            </defs>
<rect x="0" y="0" width="1920" height="1440" fill="black"/>
<circle cx="1438" cy="744" r="14" class="c0"/>
<circle cx="1720" cy="818" r="12" class="c0"/>
<circle cx="1804" cy="710" r="12" class="c0"/>
<circle cx="1896" cy="784" r="12" class="c0"/>
<circle cx="972" cy="858" r="12" class="c0"/>
<circle cx="1276" cy="572" r="12" class="c0"/>
<circle cx="986" cy="814" r="12" class="c0"/>
<circle cx="1678" cy="792" r="12" class="c0"/>
<circle cx="1648" cy="694" r="12" class="c0"/>
<circle cx="1526" cy="768" r="12" class="c0"/>
<circle cx="926" cy="648" r="12" class="c0"/>
<circle cx="1050" cy="670" r="12" class="c0"/>
<circle cx="1492" cy="830" r="12" class="c0"/>
<circle cx="1002" cy="596" r="12" class="c0"/>
<circle cx="1384" cy="708" r="12" class="c0"/>
<circle cx="1642" cy="638" r="12" class="c0"/>
<circle cx="1322" cy="724" r="12" class="c0"/>
<circle cx="1040" cy="1048" r="12" class="c0"/>
<circle cx="1216" cy="588" r="12" class="c0"/>
<circle cx="1858" cy="644" r="12" class="c0"/>
<circle cx="1006" cy="1096" r="12" class="c0"/>
<circle cx="746" cy="750" r="12" class="c0"/>
<circle cx="1460" cy="616" r="12" class="c0"/>
<circle cx="1068" cy="984" r="12" class="c0"/>
<circle cx="822" cy="728" r="12" class="c0"/>
<circle cx="834" cy="638" r="12" class="c0"/>
<circle cx="1428" cy="714" r="12" class="c0"/>
<circle cx="1054" cy="800" r="12" class="c0"/>
<circle cx="1362" cy="554" r="12" class="c0"/>
<circle cx="1728" cy="656" r="12" class="c0"/>
<circle cx="1384" cy="754" r="12" class="c0"/>
<circle cx="1200" cy="604" r="12" class="c0"/>
<circle cx="916" cy="742" r="12" class="c0"/>
<circle cx="1838" cy="756" r="12" class="c0"/>
<circle cx="1306" cy="688" r="12" class="c0"/>
<circle cx="1812" cy="604" r="12" class="c0"/>
<circle cx="914" cy="704" r="12" class="c0"/>
<circle cx="1422" cy="832" r="12" class="c0"/>
<circle cx="1226" cy="642" r="12" class="c0"/>
<circle cx="1788" cy="736" r="12" class="c0"/>
<circle cx="990" cy="946" r="12" class="c0"/>
<circle cx="1854" cy="670" r="12" class="c0"/>
<circle cx="1104" cy="468" r="12" class="c0"/>
<circle cx="1596" cy="772" r="12" class="c0"/>
<circle cx="1078" cy="534" r="12" class="c0"/>
<circle cx="1770" cy="658" r="12" class="c0"/>
<circle cx="1044" cy="934" r="12" class="c0"/>
<circle cx="1452" cy="846" r="12" class="c0"/>
<circle cx="904" cy="558" r="12" class="c0"/>
<circle cx="1142" cy="592" r="12" class="c0"/>
<circle cx="1882" cy="562" r="12" class="c0"/>
<circle cx="1034" cy="552" r="12" class="c0"/>
<circle cx="846" cy="694" r="12" class="c0"/>
<circle cx="1482" cy="854" r="12" class="c0"/>
<circle cx="1848" cy="582" r="12" class="c0"/>
<circle cx="1360" cy="798" r="12" class="c0"/>
<circle cx="1096" cy="558" r="12" class="c0"/>
<circle cx="946" cy="522" r="12" class="c0"/>
<circle cx="1720" cy="750" r="12" class="c0"/>
<circle cx="842" cy="804" r="12" class="c0"/>
<circle cx="880" cy="858" r="12" class="c0"/>
<circle cx="854" cy="622" r="12" class="c0"/>
<circle cx="1308" cy="638" r="12" class="c0"/>
<circle cx="1440" cy="582" r="12" class="c0"/>
<circle cx="1412" cy="588" r="12" class="c0"/>
<circle cx="1028" cy="992" r="12" class="c0"/>
<circle cx="1818" cy="568" r="12" class="c0"/>
<circle cx="960" cy="604" r="12" class="c0"/>
<circle cx="1022" cy="758" r="12" class="c0"/>
<circle cx="1124" cy="514" r="10" class="c0"/>
<circle cx="1532" cy="734" r="10" class="c0"/>
<circle cx="1674" cy="656" r="10" class="c0"/>
<circle cx="840" cy="594" r="10" class="c0"/>
<circle cx="1222" cy="686" r="10" class="c0"/>
<circle cx="1426" cy="660" r="10" class="c0"/>
<circle cx="1752" cy="632" r="10" class="c0"/>
<circle cx="768" cy="758" r="10" class="c0"/>
<circle cx="1198" cy="646" r="10" class="c0"/>
<circle cx="1874" cy="518" r="10" class="c0"/>
<circle cx="1144" cy="540" r="10" class="c0"/>
<circle cx="1424" cy="804" r="10" class="c0"/>
<circle cx="1194" cy="502" r="10" class="c0"/>
<circle cx="1052" cy="524" r="10" class="c0"/>
<circle cx="996" cy="542" r="10" class="c0"/>
<circle cx="1540" cy="672" r="10" class="c0"/>
<circle cx="1026" cy="1022" r="10" class="c0"/>
<circle cx="1702" cy="784" r="10" class="c0"/>
<circle cx="974" cy="964" r="10" class="c0"/>
<circle cx="988" cy="568" r="10" class="c0"/>
<circle cx="1174" cy="490" r="10" class="c0"/>
<circle cx="880" cy="584" r="10" class="c0"/>
<circle cx="1024" cy="576" r="10" class="c0"/>
<circle cx="1518" cy="812" r="10" class="c0"/>
<circle cx="1164" cy="582" r="10" class="c0"/>
<circle cx="874" cy="684" r="10" class="c0"/>
<circle cx="1216" cy="618" r="10" class="c0"/>
<circle cx="1862" cy="598" r="10" class="c0"/>
<circle cx="800" cy="744" r="10" class="c0"/>
<circle cx="1048" cy="624" r="10" class="c0"/>
<circle cx="1844" cy="692" r="10" class="c0"/>
<circle cx="1614" cy="704" r="10" class="c0"/>
<circle cx="1250" cy="514" r="10" class="c0"/>
<circle cx="1346" cy="638" r="10" class="c0"/>
<circle cx="1330" cy="672" r="10" class="c0"/>
<circle cx="1868" cy="706" r="10" class="c0"/>
<circle cx="1420" cy="774" r="10" class="c0"/>
<circle cx="798" cy="700" r="10" class="c0"/>
<circle cx="1566" cy="782" r="10" class="c0"/>
<circle cx="1888" cy="504" r="10" class="c0"/>
<circle cx="908" cy="606" r="10" class="c0"/>
<circle cx="1228" cy="536" r="10" class="c0"/>
<circle cx="1058" cy="1098" r="10" class="c0"/>
<circle cx="956" cy="570" r="10" class="c0"/>
<circle cx="1704" cy="666" r="10" class="c0"/>
<circle cx="1312" cy="538" r="10" class="c0"/>
<circle cx="1450" cy="768" r="10" class="c0"/>
<circle cx="1012" cy="892" r="10" class="c0"/>
<circle cx="1296" cy="734" r="10" class="c0"/>
<circle cx="998" cy="1074" r="10" class="c0"/>
<circle cx="1820" cy="810" r="10" class="c0"/>
<circle cx="1098" cy="1084" r="10" class="c0"/>
<circle cx="1488" cy="780" r="10" class="c0"/>
<circle cx="1008" cy="960" r="10" class="c0"/>
<circle cx="1076" cy="610" r="10" class="c0"/>
<circle cx="1468" cy="588" r="10" class="c0"/>
<circle cx="1526" cy="850" r="10" class="c0"/>
<circle cx="948" cy="752" r="10" class="c0"/>
<circle cx="978" cy="914" r="10" class="c0"/>
<circle cx="1040" cy="818" r="10" class="c0"/>
<circle cx="1724" cy="706" r="10" class="c0"/>
<circle cx="1702" cy="840" r="10" class="c0"/>
<circle cx="1906" cy="586" r="10" class="c0"/>
<circle cx="1066" cy="484" r="10" class="c0"/>
<circle cx="1722" cy="626" r="10" class="c0"/>
<circle cx="1844" cy="530" r="10" class="c0"/>
<circle cx="1068" cy="1022" r="10" class="c0"/>
<circle cx="1284" cy="658" r="10" class="c0"/>
<circle cx="1470" cy="808" r="10" class="c0"/>
<circle cx="1456" cy="682" r="10" class="c0"/>
<circle cx="1770" cy="596" r="10" class="c0"/>
<circle cx="1342" cy="758" r="10" class="c0"/>
<circle cx="1620" cy="860" r="10" class="c0"/>
<circle cx="1438" cy="630" r="10" class="c0"/>
<circle cx="1482" cy="628" r="10" class="c0"/>
<circle cx="1446" cy="818" r="10" class="c0"/>
<circle cx="1422" cy="686" r="10" class="c0"/>
<circle cx="774" cy="720" r="10" class="c0"/>
<circle cx="1046" cy="720" r="10" class="c0"/>
<circle cx="1778" cy="618" r="10" class="c0"/>
<circle cx="1594" cy="800" r="10" class="c0"/>
<circle cx="990" cy="878" r="10" class="c0"/>
<circle cx="1398" cy="610" r="10" class="c0"/>
<circle cx="1512" cy="666" r="10" class="c0"/>
<circle cx="1280" cy="546" r="10" class="c0"/>
<circle cx="1786" cy="562" r="10" class="c0"/>
<circle cx="1192" cy="532" r="10" class="c0"/>
<circle cx="1830" cy="632" r="10" class="c0"/>
<circle cx="1472" cy="720" r="10" class="c0"/>
<circle cx="1006" cy="842" r="10" class="c0"/>
<circle cx="1036" cy="638" r="10" class="c0"/>
<circle cx="1574" cy="760" r="10" class="c0"/>
<circle cx="1034" cy="698" r="10" class="c0"/>
<circle cx="1848" cy="616" r="10" class="c0"/>
<circle cx="1792" cy="590" r="10" class="c0"/>
<circle cx="1260" cy="642" r="10" class="c0"/>
<circle cx="1032" cy="854" r="10" class="c0"/>
<circle cx="1628" cy="830" r="10" class="c0"/>
<circle cx="1372" cy="586" r="10" class="c0"/>
<circle cx="1054" cy="592" r="10" class="c0"/>
<circle cx="1800" cy="638" r="10" class="c0"/>
<circle cx="1848" cy="794" r="10" class="c0"/>
<circle cx="1464" cy="650" r="10" class="c0"/>
<circle cx="860" cy="788" r="10" class="c0"/>
<circle cx="792" cy="674" r="10" class="c0"/>
<circle cx="874" cy="724" r="10" class="c0"/>
<circle cx="1812" cy="756" r="10" class="c0"/>
<circle cx="1770" cy="784" r="10" class="c0"/>
<circle cx="1318" cy="658" r="10" class="c0"/>
<circle cx="1642" cy="726" r="10" class="c0"/>
<circle cx="1550" cy="754" r="10" class="c0"/>
<circle cx="908" cy="632" r="10" class="c0"/>
<circle cx="1240" cy="562" r="10" class="c0"/>
<circle cx="1644" cy="774" r="10" class="c0"/>
<circle cx="886" cy="668" r="10" class="c0"/>
<circle cx="1250" cy="608" r="10" class="c0"/>
<circle cx="1498" cy="746" r="10" class="c0"/>
<circle cx="788" cy="830" r="10" class="c0"/>
<circle cx="1256" cy="690" r="10" class="c0"/>
<circle cx="1798" cy="780" r="10" class="c0"/>
<circle cx="1586" cy="738" r="10" class="c0"/>
<circle cx="816" cy="668" r="10" class="c0"/>
<circle cx="1746" cy="596" r="10" class="c0"/>
<circle cx="1786" cy="818" r="10" class="c0"/>
<circle cx="1746" cy="788" r="10" class="c0"/>
<circle cx="1024" cy="516" r="10" class="c0"/>
<circle cx="850" cy="738" r="10" class="c0"/>
<circle cx="1904" cy="752" r="10" class="c0"/>
<circle cx="1270" cy="526" r="10" class="c0"/>
<circle cx="972" cy="586" r="10" class="c0"/>
<circle cx="1036" cy="604" r="10" class="c0"/>
<circle cx="1076" cy="660" r="10" class="c0"/>
<circle cx="784" cy="792" r="10" class="c0"/>
<circle cx="1800" cy="802" r="10" class="c0"/>
<circle cx="1542" cy="808" r="10" class="c0"/>
<circle cx="984" cy="770" r="10" class="c0"/>
<circle cx="1118" cy="536" r="10" class="c0"/>
<circle cx="1060" cy="892" r="10" class="c0"/>
<circle cx="1508" cy="622" r="10" class="c0"/>
<circle cx="1046" cy="1084" r="10" class="c0"/>
<circle cx="1540" cy="640" r="10" class="c0"/>
<circle cx="1682" cy="732" r="10" class="c0"/>
<circle cx="1090" cy="588" r="10" class="c0"/>
<circle cx="1834" cy="724" r="10" class="c0"/>
<circle cx="1270" cy="622" r="10" class="c0"/>
<circle cx="1672" cy="758" r="10" class="c0"/>
<circle cx="788" cy="648" r="10" class="c0"/>
<circle cx="826" cy="778" r="10" class="c0"/>
<circle cx="1716" cy="726" r="10" class="c0"/>
<circle cx="1156" cy="556" r="10" class="c0"/>
<circle cx="1890" cy="636" r="10" class="c0"/>
<circle cx="1164" cy="630" r="10" class="c0"/>
<circle cx="980" cy="628" r="10" class="c0"/>
<circle cx="1746" cy="570" r="10" class="c0"/>
<circle cx="1052" cy="842" r="10" class="c0"/>
<circle cx="756" cy="772" r="10" class="c0"/>
<circle cx="1344" cy="726" r="8" class="c0"/>
<circle cx="1700" cy="632" r="8" class="c0"/>
<circle cx="1090" cy="1046" r="8" class="c0"/>
<circle cx="1104" cy="602" r="8" class="c0"/>
<circle cx="1764" cy="806" r="8" class="c0"/>
<circle cx="958" cy="838" r="8" class="c0"/>
<circle cx="1274" cy="600" r="8" class="c0"/>
<circle cx="1654" cy="844" r="8" class="c0"/>
<circle cx="1538" cy="708" r="8" class="c0"/>
<circle cx="1832" cy="594" r="8" class="c0"/>
<circle cx="1070" cy="1070" r="8" class="c0"/>
<circle cx="1774" cy="720" r="8" class="c0"/>
<circle cx="1140" cy="468" r="8" class="c0"/>
<circle cx="1686" cy="622" r="8" class="c0"/>
<circle cx="1606" cy="812" r="8" class="c0"/>
<circle cx="1410" cy="742" r="8" class="c0"/>
<circle cx="1762" cy="748" r="8" class="c0"/>
<circle cx="902" cy="678" r="8" class="c0"/>
<circle cx="984" cy="512" r="8" class="c0"/>
<circle cx="926" cy="616" r="8" class="c0"/>
<circle cx="1716" cy="680" r="8" class="c0"/>
<circle cx="1898" cy="528" r="8" class="c0"/>
<circle cx="1504" cy="720" r="8" class="c0"/>
<circle cx="1566" cy="822" r="8" class="c0"/>
<circle cx="1856" cy="770" r="8" class="c0"/>
<circle cx="1110" cy="1060" r="8" class="c0"/>
<circle cx="1310" cy="758" r="8" class="c0"/>
<circle cx="1322" cy="606" r="8" class="c0"/>
<circle cx="1346" cy="782" r="8" class="c0"/>
<circle cx="862" cy="600" r="8" class="c0"/>
<circle cx="1060" cy="1060" r="8" class="c0"/>
<circle cx="1822" cy="654" r="8" class="c0"/>
<circle cx="1106" cy="624" r="8" class="c0"/>
<circle cx="920" cy="682" r="8" class="c0"/>
<circle cx="1558" cy="694" r="8" class="c0"/>
<circle cx="1442" cy="606" r="8" class="c0"/>
<circle cx="1680" cy="854" r="8" class="c0"/>
<circle cx="998" cy="992" r="8" class="c0"/>
<circle cx="1568" cy="858" r="8" class="c0"/>
<circle cx="1882" cy="798" r="8" class="c0"/>
<circle cx="1110" cy="580" r="8" class="c0"/>
<circle cx="1208" cy="522" r="8" class="c0"/>
<circle cx="1516" cy="692" r="8" class="c0"/>
<circle cx="1556" cy="838" r="8" class="c0"/>
<circle cx="1396" cy="820" r="8" class="c0"/>
<circle cx="1244" cy="652" r="8" class="c0"/>
<circle cx="1882" cy="734" r="8" class="c0"/>
<circle cx="798" cy="778" r="8" class="c0"/>
<circle cx="1354" cy="608" r="8" class="c0"/>
<circle cx="1828" cy="550" r="8" class="c0"/>
<circle cx="1038" cy="740" r="8" class="c0"/>
<circle cx="1600" cy="830" r="8" class="c0"/>
<circle cx="1632" cy="806" r="8" class="c0"/>
<circle cx="880" cy="638" r="8" class="c0"/>
<circle cx="914" cy="664" r="8" class="c0"/>
<circle cx="1908" cy="510" r="8" class="c0"/>
<circle cx="852" cy="846" r="8" class="c0"/>
<circle cx="1686" cy="682" r="8" class="c0"/>
<circle cx="1014" cy="820" r="8" class="c0"/>
<circle cx="1598" cy="866" r="8" class="c0"/>
<circle cx="1012" cy="504" r="8" class="c0"/>
<circle cx="758" cy="692" r="8" class="c0"/>
<circle cx="1106" cy="506" r="8" class="c0"/>
<circle cx="1306" cy="564" r="8" class="c0"/>
<circle cx="1194" cy="564" r="8" class="c0"/>
<circle cx="1564" cy="738" r="8" class="c0"/>
<circle cx="1582" cy="838" r="8" class="c0"/>
<circle cx="822" cy="602" r="8" class="c0"/>
<circle cx="1392" cy="800" r="8" class="c0"/>
<circle cx="1750" cy="718" r="8" class="c0"/>
<circle cx="812" cy="624" r="8" class="c0"/>
<circle cx="1582" cy="660" r="8" class="c0"/>
<circle cx="1132" cy="610" r="8" class="c0"/>
<circle cx="1884" cy="670" r="8" class="c0"/>
<circle cx="1492" cy="648" r="8" class="c0"/>
<circle cx="1288" cy="714" r="8" class="c0"/>
<circle cx="1860" cy="554" r="8" class="c0"/>
<circle cx="1896" cy="480" r="8" class="c0"/>
<circle cx="984" cy="1108" r="8" class="c0"/>
<circle cx="1604" cy="648" r="8" class="c0"/>
<circle cx="1304" cy="586" r="8" class="c0"/>
<circle cx="808" cy="788" r="8" class="c0"/>
<circle cx="1532" cy="828" r="8" class="c0"/>
<circle cx="1260" cy="718" r="8" class="c0"/>
<circle cx="1392" cy="676" r="8" class="c0"/>
<circle cx="1068" cy="868" r="8" class="c0"/>
<circle cx="1494" cy="708" r="8" class="c0"/>
<circle cx="1088" cy="636" r="8" class="c0"/>
<circle cx="1818" cy="540" r="8" class="c0"/>
<circle cx="1446" cy="704" r="8" class="c0"/>
<circle cx="1042" cy="502" r="8" class="c0"/>
<circle cx="1746" cy="694" r="8" class="c0"/>
<circle cx="1438" cy="786" r="8" class="c0"/>
<circle cx="1376" cy="660" r="8" class="c0"/>
<circle cx="1086" cy="504" r="8" class="c0"/>
<circle cx="1510" cy="872" r="8" class="c0"/>
<circle cx="1354" cy="676" r="8" class="c0"/>
<circle cx="1710" cy="614" r="8" class="c0"/>
<circle cx="872" cy="834" r="8" class="c0"/>
<circle cx="1592" cy="718" r="8" class="c0"/>
<circle cx="942" cy="680" r="8" class="c0"/>
<circle cx="1028" cy="912" r="8" class="c0"/>
<circle cx="1740" cy="768" r="8" class="c0"/>
<circle cx="1040" cy="874" r="8" class="c0"/>
<circle cx="1044" cy="1014" r="8" class="c0"/>
<circle cx="1010" cy="920" r="8" class="c0"/>
<circle cx="936" cy="600" r="8" class="c0"/>
<circle cx="1664" cy="818" r="8" class="c0"/>
<circle cx="1052" cy="472" r="8" class="c0"/>
<circle cx="1208" cy="544" r="8" class="c0"/>
<circle cx="1410" cy="628" r="8" class="c0"/>
<circle cx="1682" cy="710" r="8" class="c0"/>
<circle cx="826" cy="754" r="8" class="c0"/>
<circle cx="956" cy="632" r="8" class="c0"/>
<circle cx="1762" cy="680" r="8" class="c0"/>
<circle cx="968" cy="942" r="8" class="c0"/>
<circle cx="1722" cy="782" r="8" class="c0"/>
<circle cx="1664" cy="628" r="8" class="c0"/>
<circle cx="964" cy="542" r="8" class="c0"/>
<circle cx="1632" cy="678" r="8" class="c0"/>
<circle cx="854" cy="714" r="8" class="c0"/>
<circle cx="1816" cy="692" r="8" class="c0"/>
<circle cx="1570" cy="704" r="8" class="c0"/>
<circle cx="1362" cy="692" r="8" class="c0"/>
<circle cx="1658" cy="716" r="8" class="c0"/>
<circle cx="1686" cy="592" r="8" class="c0"/>
<circle cx="1896" cy="690" r="8" class="c0"/>
<circle cx="1870" cy="624" r="8" class="c0"/>
<circle cx="1144" cy="490" r="8" class="c0"/>
<circle cx="1700" cy="696" r="8" class="c0"/>
<circle cx="1880" cy="752" r="8" class="c0"/>
<circle cx="1536" cy="866" r="8" class="c0"/>
<circle cx="1218" cy="502" r="8" class="c0"/>
<circle cx="1302" cy="604" r="8" class="c0"/>
<circle cx="1060" cy="690" r="8" class="c0"/>
<circle cx="1806" cy="680" r="8" class="c0"/>
<circle cx="1058" cy="648" r="8" class="c0"/>
<circle cx="1004" cy="1028" r="8" class="c0"/>
<circle cx="1202" cy="666" r="8" class="c0"/>
<circle cx="1528" cy="620" r="8" class="c0"/>
<circle cx="1744" cy="674" r="8" class="c0"/>
<circle cx="874" cy="562" r="8" class="c0"/>
<circle cx="1080" cy="1096" r="8" class="c0"/>
<circle cx="1404" cy="566" r="8" class="c0"/>
<circle cx="1364" cy="720" r="8" class="c0"/>
<circle cx="1372" cy="640" r="8" class="c0"/>
<circle cx="998" cy="1052" r="8" class="c0"/>
<circle cx="1332" cy="572" r="8" class="c0"/>
<circle cx="1000" cy="1010" r="8" class="c0"/>
<circle cx="1682" cy="816" r="8" class="c0"/>
<circle cx="1802" cy="552" r="8" class="c0"/>
<circle cx="1592" cy="692" r="8" class="c0"/>
<circle cx="1156" cy="520" r="8" class="c0"/>
<circle cx="1066" cy="574" r="8" class="c0"/>
<circle cx="1788" cy="698" r="8" class="c0"/>
<circle cx="1594" cy="672" r="8" class="c0"/>
<circle cx="1016" cy="1050" r="8" class="c0"/>
<circle cx="856" cy="674" r="8" class="c0"/>
<circle cx="1372" cy="616" r="8" class="c0"/>
<circle cx="1176" cy="554" r="8" class="c0"/>
<circle cx="850" cy="656" r="8" class="c0"/>
<circle cx="802" cy="810" r="8" class="c0"/>
<circle cx="1008" cy="774" r="8" class="c0"/>
<circle cx="916" cy="578" r="8" class="c0"/>
<circle cx="1374" cy="730" r="8" class="c0"/>
<circle cx="828" cy="704" r="8" class="c0"/>
<circle cx="1766" cy="572" r="8" class="c0"/>
<circle cx="1738" cy="730" r="8" class="c0"/>
<circle cx="1590" cy="820" r="8" class="c0"/>
<circle cx="1824" cy="784" r="8" class="c0"/>
<circle cx="1616" cy="746" r="8" class="c0"/>
<circle cx="1184" cy="584" r="8" class="c0"/>
<circle cx="854" cy="760" r="8" class="c0"/>
<circle cx="768" cy="678" r="8" class="c0"/>
<circle cx="1742" cy="808" r="8" class="c0"/>
<circle cx="942" cy="558" r="8" class="c0"/>
<circle cx="1018" cy="484" r="8" class="c0"/>
<circle cx="1718" cy="588" r="8" class="c0"/>
<circle cx="1470" cy="700" r="8" class="c0"/>
<circle cx="1028" cy="658" r="8" class="c0"/>
<circle cx="1612" cy="784" r="8" class="c0"/>
<circle cx="930" cy="542" r="8" class="c0"/>
<circle cx="1652" cy="744" r="8" class="c0"/>
<circle cx="1654" cy="802" r="8" class="c0"/>
<circle cx="1122" cy="478" r="8" class="c0"/>
<circle cx="1118" cy="564" r="8" class="c0"/>
<circle cx="1332" cy="550" r="8" class="c0"/>
<circle cx="1362" cy="742" r="8" class="c0"/>
<circle cx="1624" cy="648" r="8" class="c0"/>
<circle cx="936" cy="716" r="8" class="c0"/>
<circle cx="1480" cy="762" r="8" class="c0"/>
<circle cx="1472" cy="746" r="8" class="c0"/>
<circle cx="1016" cy="630" r="8" class="c0"/>
<circle cx="892" cy="696" r="8" class="c0"/>
<circle cx="956" cy="896" r="8" class="c0"/>
<circle cx="1242" cy="584" r="8" class="c0"/>
<circle cx="892" cy="618" r="8" class="c0"/>
<circle cx="1612" cy="668" r="8" class="c0"/>
<circle cx="972" cy="526" r="8" class="c0"/>
<circle cx="1008" cy="738" r="8" class="c0"/>
<circle cx="1908" cy="614" r="8" class="c0"/>
<circle cx="1506" cy="846" r="8" class="c0"/>
<circle cx="1122" cy="1078" r="8" class="c0"/>
<circle cx="1580" cy="872" r="8" class="c0"/>
<circle cx="1406" cy="720" r="8" class="c0"/>
<circle cx="1884" cy="586" r="8" class="c0"/>
<circle cx="1910" cy="704" r="8" class="c0"/>
<circle cx="1394" cy="656" r="8" class="c0"/>
<circle cx="1862" cy="808" r="8" class="c0"/>
<circle cx="1048" cy="568" r="8" class="c0"/>
<circle cx="976" cy="552" r="8" class="c0"/>
<circle cx="1408" cy="646" r="8" class="c0"/>
<circle cx="1488" cy="596" r="8" class="c0"/>
<circle cx="1906" cy="560" r="8" class="c0"/>
<circle cx="1898" cy="604" r="8" class="c0"/>
<circle cx="948" cy="864" r="8" class="c0"/>
<circle cx="1694" cy="764" r="8" class="c0"/>
<circle cx="1904" cy="650" r="8" class="c0"/>
<circle cx="1180" cy="620" r="8" class="c0"/>
<circle cx="1468" cy="834" r="8" class="c0"/>
<circle cx="1070" cy="1044" r="8" class="c0"/>
<circle cx="1240" cy="678" r="8" class="c0"/>
<circle cx="1650" cy="610" r="8" class="c0"/>
<circle cx="1832" cy="672" r="8" class="c0"/>
<circle cx="1334" cy="694" r="8" class="c0"/>
<circle cx="966" cy="884" r="8" class="c0"/>
<circle cx="1766" cy="836" r="8" class="c0"/>
<circle cx="1496" cy="688" r="8" class="c0"/>
<circle cx="1322" cy="770" r="8" class="c0"/>
<circle cx="1622" cy="764" r="8" class="c0"/>
<circle cx="966" cy="506" r="8" class="c0"/>
<circle cx="962" cy="810" r="8" class="c0"/>
<circle cx="1264" cy="672" r="8" class="c0"/>
<circle cx="1520" cy="646" r="8" class="c0"/>
<circle cx="1056" cy="550" r="8" class="c0"/>
<circle cx="1864" cy="534" r="8" class="c0"/>
<circle cx="1164" cy="604" r="8" class="c0"/>
<circle cx="1554" cy="870" r="8" class="c0"/>
<circle cx="1056" cy="918" r="8" class="c0"/>
<circle cx="1780" cy="756" r="8" class="c0"/>
<circle cx="1080" cy="1004" r="8" class="c0"/>
<circle cx="996" cy="904" r="8" class="c0"/>
<circle cx="1456" cy="794" r="8" class="c0"/>
<circle cx="1672" cy="612" r="8" class="c0"/>
<circle cx="1698" cy="746" r="8" class="c0"/>
<circle cx="1236" cy="698" r="8" class="c0"/>
<circle cx="1008" cy="560" r="8" class="c0"/>
<circle cx="802" cy="720" r="8" class="c0"/>
<circle cx="894" cy="874" r="8" class="c0"/>
<circle cx="984" cy="606" r="8" class="c0"/>
<circle cx="1858" cy="734" r="8" class="c0"/>
<circle cx="744" cy="802" r="8" class="c0"/>
<circle cx="940" cy="662" r="8" class="c0"/>
<circle cx="1654" cy="672" r="8" class="c0"/>
<circle cx="1404" cy="790" r="8" class="c0"/>
<circle cx="928" cy="758" r="8" class="c0"/>
<circle cx="1562" cy="658" r="8" class="c0"/>
<circle cx="1018" cy="800" r="8" class="c0"/>
<circle cx="1574" cy="724" r="8" class="c0"/>
<circle cx="1360" cy="766" r="8" class="c0"/>
<circle cx="1884" cy="540" r="8" class="c0"/>
<circle cx="1888" cy="710" r="8" class="c0"/>
<circle cx="762" cy="734" r="8" class="c0"/>
<circle cx="940" cy="818" r="8" class="c0"/>
<circle cx="1000" cy="520" r="8" class="c0"/>
<circle cx="900" cy="720" r="8" class="c0"/>
<circle cx="1026" cy="1064" r="8" class="c0"/>
<circle cx="1098" cy="490" r="8" class="c0"/>
<circle cx="1346" cy="584" r="8" class="c0"/>
<circle cx="1722" cy="846" r="8" class="c0"/>
<circle cx="1034" cy="892" r="8" class="c0"/>
<circle cx="932" cy="694" r="8" class="c0"/>
<circle cx="950" cy="772" r="8" class="c0"/>
<circle cx="802" cy="862" r="8" class="c0"/>
<circle cx="1068" cy="506" r="8" class="c0"/>
<circle cx="1328" cy="746" r="8" class="c0"/>
<circle cx="1888" cy="614" r="8" class="c0"/>
<circle cx="1474" cy="668" r="8" class="c0"/>
<circle cx="1506" cy="794" r="8" class="c0"/>
<circle cx="994" cy="794" r="8" class="c0"/>
<circle cx="1794" cy="668" r="8" class="c0"/>
<circle cx="1518" cy="710" r="8" class="c0"/>
<circle cx="1006" cy="640" r="8" class="c0"/>
<circle cx="1636" cy="848" r="8" class="c0"/>
<circle cx="946" cy="622" r="8" class="c0"/>
<circle cx="840" cy="836" r="8" class="c0"/>
<circle cx="760" cy="792" r="8" class="c0"/>
<circle cx="1402" cy="692" r="8" class="c0"/>
<circle cx="1284" cy="684" r="8" class="c0"/>
<circle cx="1572" cy="684" r="8" class="c0"/>
<circle cx="1560" cy="714" r="8" class="c0"/>
<circle cx="870" cy="704" r="8" class="c0"/>
<circle cx="1148" cy="618" r="8" class="c0"/>
<circle cx="786" cy="768" r="8" class="c0"/>
<circle cx="1766" cy="700" r="8" class="c0"/>
<circle cx="1750" cy="758" r="8" class="c0"/>
<circle cx="988" cy="494" r="8" class="c0"/>
<circle cx="986" cy="844" r="8" class="c0"/>
<circle cx="1432" cy="854" r="8" class="c0"/>
<circle cx="1900" cy="730" r="8" class="c0"/>
<circle cx="1380" cy="564" r="8" class="c0"/>
<circle cx="1026" cy="724" r="8" class="c0"/>
<circle cx="1588" cy="856" r="8" class="c0"/>
<circle cx="1034" cy="474" r="8" class="c0"/>
<circle cx="1230" cy="664" r="8" class="c0"/>
<circle cx="1874" cy="774" r="8" class="c0"/>
<circle cx="1386" cy="778" r="8" class="c0"/>
<circle cx="1636" cy="752" r="8" class="c0"/>
<circle cx="1348" cy="658" r="8" class="c0"/>
<circle cx="1172" cy="530" r="8" class="c0"/>
<circle cx="776" cy="810" r="8" class="c0"/>
<circle cx="854" cy="580" r="8" class="c0"/>
<circle cx="988" cy="750" r="8" class="c0"/>
<circle cx="1614" cy="638" r="8" class="c0"/>
<circle cx="1270" cy="702" r="8" class="c0"/>
<circle cx="1324" cy="588" r="8" class="c0"/>
<circle cx="1840" cy="812" r="8" class="c0"/>
<circle cx="1018" cy="870" r="8" class="c0"/>
<circle cx="1460" cy="736" r="8" class="c0"/>
<circle cx="1094" cy="1028" r="8" class="c0"/>
<circle cx="1698" cy="604" r="8" class="c0"/>
<circle cx="1908" cy="464" r="8" class="c0"/>
<circle cx="1348" cy="704" r="8" class="c0"/>
<circle cx="1064" cy="830" r="8" class="c0"/>
<circle cx="1608" cy="726" r="8" class="c0"/>
<circle cx="982" cy="982" r="8" class="c0"/>
<circle cx="896" cy="652" r="8" class="c0"/>
<circle cx="874" cy="614" r="8" class="c0"/>
<circle cx="1082" cy="464" r="8" class="c0"/>
<circle cx="1408" cy="760" r="8" class="c0"/>
<circle cx="892" cy="596" r="8" class="c0"/>
<circle cx="1066" cy="950" r="8" class="c0"/>
<circle cx="1482" cy="736" r="8" class="c0"/>
<circle cx="926" cy="568" r="8" class="c0"/>
<circle cx="1050" cy="862" r="8" class="c0"/>
<circle cx="1070" cy="634" r="8" class="c0"/>
<circle cx="1256" cy="540" r="8" class="c0"/>
<circle cx="862" cy="816" r="8" class="c0"/>
<circle cx="1392" cy="634" r="8" class="c0"/>
<circle cx="1760" cy="730" r="8" class="c0"/>
<circle cx="964" cy="762" r="8" class="c0"/>
<circle cx="1016" cy="610" r="8" class="c0"/>
<circle cx="1132" cy="552" r="8" class="c0"/>
<circle cx="954" cy="914" r="8" class="c0"/>
<circle cx="1242" cy="630" r="8" class="c0"/>
<circle cx="1016" cy="940" r="8" class="c0"/>
<circle cx="1910" cy="676" r="8" class="c0"/>
<circle cx="836" cy="672" r="8" class="c0"/>
<circle cx="1910" cy="540" r="8" class="c0"/>
<circle cx="1218" cy="554" r="8" class="c0"/>
<circle cx="1042" cy="970" r="8" class="c0"/>
<circle cx="816" cy="692" r="8" class="c0"/>
<circle cx="1668" cy="684" r="8" class="c0"/>
<circle cx="1142" cy="568" r="8" class="c0"/>
<circle cx="1164" cy="472" r="8" class="c0"/>
<circle cx="1422" cy="616" r="8" class="c0"/>
<circle cx="1448" cy="660" r="8" class="c0"/>
<circle cx="806" cy="842" r="8" class="c0"/>
<circle cx="970" cy="828" r="8" class="c0"/>
<circle cx="1686" cy="644" r="8" class="c0"/>
<circle cx="1826" cy="706" r="8" class="c0"/>
<circle cx="1176" cy="644" r="8" class="c0"/>
<circle cx="1386" cy="598" r="8" class="c0"/>
<circle cx="1880" cy="652" r="8" class="c0"/>
<circle cx="1816" cy="732" r="8" class="c0"/>
<circle cx="1652" cy="864" r="8" class="c0"/>
<circle cx="1732" cy="610" r="8" class="c0"/>
<circle cx="1624" cy="628" r="8" class="c0"/>
<circle cx="1336" cy="616" r="8" class="c0"/>
<circle cx="1096" cy="516" r="8" class="c0"/>
<circle cx="748" cy="718" r="8" class="c0"/>
<circle cx="1018" cy="536" r="8" class="c0"/>
<circle cx="1876" cy="688" r="8" class="c0"/>
<circle cx="1754" cy="818" r="8" class="c0"/>
<circle cx="1742" cy="828" r="8" class="c0"/>
<circle cx="832" cy="612" r="8" class="c0"/>
<circle cx="1004" cy="620" r="8" class="c0"/>
<circle cx="948" cy="588" r="8" class="c0"/>
<circle cx="1022" cy="1084" r="8" class="c0"/>
<circle cx="780" cy="742" r="8" class="c0"/>
<circle cx="1072" cy="908" r="8" class="c0"/>
<circle cx="1438" cy="674" r="8" class="c0"/>
<circle cx="1852" cy="716" r="8" class="c0"/>
<circle cx="1264" cy="590" r="8" class="c0"/>
<circle cx="1046" cy="908" r="8" class="c0"/>
<circle cx="1286" cy="612" r="8" class="c0"/>
<circle cx="1072" cy="680" r="8" class="c0"/>
<circle cx="1026" cy="834" r="8" class="c0"/>
<circle cx="1682" cy="836" r="8" class="c0"/>
<circle cx="1806" cy="824" r="8" class="c0"/>
<circle cx="1252" cy="574" r="8" class="c0"/>
<circle cx="1712" cy="642" r="8" class="c0"/>
<circle cx="1030" cy="956" r="8" class="c0"/>
<circle cx="1632" cy="786" r="8" class="c0"/>
<circle cx="872" cy="656" r="8" class="c0"/>
<circle cx="1782" cy="678" r="8" class="c0"/>
<circle cx="1526" cy="792" r="8" class="c0"/>
<circle cx="1356" cy="624" r="6" class="c0"/>
<circle cx="1766" cy="766" r="6" class="c0"/>
<circle cx="1172" cy="512" r="6" class="c0"/>
<circle cx="996" cy="974" r="6" class="c0"/>
<circle cx="976" cy="896" r="6" class="c0"/>
<circle cx="1038" cy="1100" r="6" class="c0"/>
<circle cx="1030" cy="674" r="6" class="c0"/>
<circle cx="1406" cy="668" r="6" class="c0"/>
<circle cx="1562" cy="806" r="6" class="c0"/>
<circle cx="1064" cy="456" r="6" class="c0"/>
<circle cx="790" cy="730" r="6" class="c0"/>
<circle cx="966" cy="926" r="6" class="c0"/>
<circle cx="1548" cy="852" r="6" class="c0"/>
<circle cx="1092" cy="1064" r="6" class="c0"/>
<circle cx="1070" cy="558" r="6" class="c0"/>
<circle cx="1278" cy="730" r="6" class="c0"/>
<circle cx="1574" cy="798" r="6" class="c0"/>
<circle cx="1912" cy="768" r="6" class="c0"/>
<circle cx="1392" cy="734" r="6" class="c0"/>
<circle cx="1782" cy="798" r="6" class="c0"/>
<circle cx="1478" cy="606" r="6" class="c0"/>
<circle cx="1232" cy="600" r="6" class="c0"/>
<circle cx="1154" cy="502" r="6" class="c0"/>
<circle cx="1298" cy="526" r="6" class="c0"/>
<circle cx="938" cy="732" r="6" class="c0"/>
<circle cx="1560" cy="638" r="6" class="c0"/>
<circle cx="1306" cy="712" r="6" class="c0"/>
<circle cx="984" cy="1088" r="6" class="c0"/>
<circle cx="866" cy="746" r="6" class="c0"/>
<circle cx="1640" cy="658" r="6" class="c0"/>
<circle cx="1494" cy="806" r="6" class="c0"/>
<circle cx="1548" cy="776" r="6" class="c0"/>
<circle cx="1646" cy="828" r="6" class="c0"/>
<circle cx="1624" cy="732" r="6" class="c0"/>
<circle cx="806" cy="644" r="6" class="c0"/>
<circle cx="1518" cy="750" r="6" class="c0"/>
<circle cx="1498" cy="608" r="6" class="c0"/>
<circle cx="1734" cy="584" r="6" class="c0"/>
<circle cx="1000" cy="484" r="6" class="c0"/>
<circle cx="1614" cy="842" r="6" class="c0"/>
<circle cx="812" cy="766" r="6" class="c0"/>
<circle cx="1888" cy="766" r="6" class="c0"/>
<circle cx="1098" cy="532" r="6" class="c0"/>
<circle cx="1840" cy="562" r="6" class="c0"/>
<circle cx="1380" cy="686" r="6" class="c0"/>
<circle cx="1700" cy="820" r="6" class="c0"/>
<circle cx="1290" cy="630" r="6" class="c0"/>
<circle cx="1864" cy="750" r="6" class="c0"/>
<circle cx="1880" cy="476" r="6" class="c0"/>
<circle cx="1326" cy="630" r="6" class="c0"/>
<circle cx="860" cy="642" r="6" class="c0"/>
<circle cx="736" cy="770" r="6" class="c0"/>
<circle cx="1694" cy="720" r="6" class="c0"/>
<circle cx="1706" cy="712" r="6" class="c0"/>
<circle cx="1064" cy="932" r="6" class="c0"/>
<circle cx="1486" cy="678" r="6" class="c0"/>
<circle cx="1806" cy="658" r="6" class="c0"/>
<circle cx="1062" cy="710" r="6" class="c0"/>
<circle cx="1728" cy="800" r="6" class="c0"/>
<circle cx="1468" cy="866" r="6" class="c0"/>
<circle cx="1872" cy="724" r="6" class="c0"/>
<circle cx="838" cy="766" r="6" class="c0"/>
<circle cx="1348" cy="542" r="6" class="c0"/>
<circle cx="1910" cy="490" r="6" class="c0"/>
<circle cx="1474" cy="790" r="6" class="c0"/>
<circle cx="1230" cy="514" r="6" class="c0"/>
<circle cx="1420" cy="568" r="6" class="c0"/>
<circle cx="1130" cy="578" r="6" class="c0"/>
<circle cx="1376" cy="810" r="6" class="c0"/>
<circle cx="1330" cy="784" r="6" class="c0"/>
<circle cx="776" cy="700" r="6" class="c0"/>
<circle cx="1208" cy="492" r="6" class="c0"/>
<circle cx="1616" cy="684" r="6" class="c0"/>
<circle cx="1478" cy="874" r="6" class="c0"/>
<circle cx="1260" cy="558" r="6" class="c0"/>
<circle cx="1294" cy="672" r="6" class="c0"/>
<circle cx="1712" cy="798" r="6" class="c0"/>
<circle cx="1552" cy="794" r="6" class="c0"/>
<circle cx="1508" cy="760" r="6" class="c0"/>
<circle cx="1776" cy="636" r="6" class="c0"/>
<circle cx="910" cy="538" r="6" class="c0"/>
<circle cx="1508" cy="778" r="6" class="c0"/>
<circle cx="1248" cy="708" r="6" class="c0"/>
<circle cx="1558" cy="674" r="6" class="c0"/>
<circle cx="1022" cy="594" r="6" class="c0"/>
<circle cx="1120" cy="496" r="6" class="c0"/>
<circle cx="1310" cy="618" r="6" class="c0"/>
<circle cx="942" cy="848" r="6" class="c0"/>
<circle cx="1398" cy="836" r="6" class="c0"/>
<circle cx="1870" cy="576" r="6" class="c0"/>
<circle cx="1202" cy="628" r="6" class="c0"/>
<circle cx="1694" cy="804" r="6" class="c0"/>
<circle cx="968" cy="778" r="6" class="c0"/>
<circle cx="1910" cy="796" r="6" class="c0"/>
<circle cx="1668" cy="776" r="6" class="c0"/>
<circle cx="1054" cy="1034" r="6" class="c0"/>
<circle cx="1022" cy="972" r="6" class="c0"/>
<circle cx="1728" cy="572" r="6" class="c0"/>
<circle cx="1492" cy="666" r="6" class="c0"/>
<circle cx="1588" cy="644" r="6" class="c0"/>
<circle cx="1760" cy="556" r="6" class="c0"/>
<circle cx="1668" cy="702" r="6" class="c0"/>
<circle cx="1334" cy="650" r="6" class="c0"/>
<circle cx="1632" cy="712" r="6" class="c0"/>
<circle cx="1552" cy="728" r="6" class="c0"/>
<circle cx="946" cy="646" r="6" class="c0"/>
<circle cx="1756" cy="614" r="6" class="c0"/>
<circle cx="1142" cy="510" r="6" class="c0"/>
<circle cx="1192" cy="484" r="6" class="c0"/>
<circle cx="1532" cy="656" r="6" class="c0"/>
<circle cx="932" cy="584" r="6" class="c0"/>
<circle cx="1338" cy="598" r="6" class="c0"/>
<circle cx="1056" cy="1004" r="6" class="c0"/>
<circle cx="1464" cy="780" r="6" class="c0"/>
<circle cx="1390" cy="580" r="6" class="c0"/>
<circle cx="1784" cy="646" r="6" class="c0"/>
<circle cx="1868" cy="790" r="6" class="c0"/>
<circle cx="1372" cy="676" r="6" class="c0"/>
<circle cx="1028" cy="620" r="6" class="c0"/>
<circle cx="1094" cy="612" r="6" class="c0"/>
<circle cx="1116" cy="612" r="6" class="c0"/>
<circle cx="1838" cy="650" r="6" class="c0"/>
<circle cx="802" cy="658" r="6" class="c0"/>
<circle cx="1082" cy="572" r="6" class="c0"/>
<circle cx="1748" cy="654" r="6" class="c0"/>
<circle cx="1320" cy="702" r="6" class="c0"/>
<circle cx="1658" cy="648" r="6" class="c0"/>
<circle cx="1450" cy="722" r="6" class="c0"/>
<circle cx="1658" cy="784" r="6" class="c0"/>
<circle cx="1122" cy="598" r="6" class="c0"/>
<circle cx="1028" cy="494" r="6" class="c0"/>
<circle cx="1008" cy="980" r="6" class="c0"/>
<circle cx="1912" cy="720" r="6" class="c0"/>
<circle cx="1912" cy="630" r="6" class="c0"/>
<circle cx="1048" cy="988" r="6" class="c0"/>
<circle cx="1598" cy="846" r="6" class="c0"/>
<circle cx="1826" cy="742" r="6" class="c0"/>
<circle cx="1058" cy="966" r="6" class="c0"/>
<circle cx="1002" cy="864" r="6" class="c0"/>
<circle cx="1016" cy="1008" r="6" class="c0"/>
<circle cx="1572" cy="648" r="6" class="c0"/>
<circle cx="1384" cy="830" r="6" class="c0"/>
<circle cx="1342" cy="560" r="6" class="c0"/>
<circle cx="1634" cy="616" r="6" class="c0"/>
<circle cx="1740" cy="748" r="6" class="c0"/>
<circle cx="1606" cy="756" r="6" class="c0"/>
<circle cx="1238" cy="502" r="6" class="c0"/>
<circle cx="1288" cy="590" r="6" class="c0"/>
<circle cx="1444" cy="864" r="6" class="c0"/>
<circle cx="848" cy="776" r="6" class="c0"/>
<circle cx="796" cy="630" r="6" class="c0"/>
<circle cx="946" cy="886" r="6" class="c0"/>
<circle cx="1066" cy="852" r="6" class="c0"/>
<circle cx="1122" cy="460" r="6" class="c0"/>
<circle cx="900" cy="580" r="6" class="c0"/>
<circle cx="1422" cy="638" r="6" class="c0"/>
<circle cx="812" cy="710" r="6" class="c0"/>
<circle cx="776" cy="664" r="6" class="c0"/>
<circle cx="1298" cy="548" r="6" class="c0"/>
<circle cx="1634" cy="870" r="6" class="c0"/>
<circle cx="792" cy="850" r="6" class="c0"/>
<circle cx="1828" cy="614" r="6" class="c0"/>
<circle cx="1702" cy="582" r="6" class="c0"/>
<circle cx="1812" cy="626" r="6" class="c0"/>
<circle cx="1798" cy="618" r="6" class="c0"/>
<circle cx="740" cy="786" r="6" class="c0"/>
<circle cx="1480" cy="690" r="6" class="c0"/>
<circle cx="1494" cy="870" r="6" class="c0"/>
<circle cx="1254" cy="662" r="6" class="c0"/>
<circle cx="1050" cy="954" r="6" class="c0"/>
<circle cx="1732" cy="684" r="6" class="c0"/>
<circle cx="1516" cy="832" r="6" class="c0"/>
<circle cx="1486" cy="798" r="6" class="c0"/>
<circle cx="1322" cy="560" r="6" class="c0"/>
<circle cx="1900" cy="666" r="6" class="c0"/>
<circle cx="860" cy="862" r="6" class="c0"/>
<circle cx="1234" cy="616" r="6" class="c0"/>
<circle cx="988" cy="1020" r="6" class="c0"/>
<circle cx="1542" cy="692" r="6" class="c0"/>
<circle cx="1408" cy="846" r="6" class="c0"/>
<circle cx="1134" cy="500" r="6" class="c0"/>
<circle cx="1412" cy="816" r="6" class="c0"/>
<circle cx="1840" cy="776" r="6" class="c0"/>
<circle cx="1228" cy="574" r="6" class="c0"/>
<circle cx="1280" cy="638" r="6" class="c0"/>
<circle cx="1748" cy="740" r="6" class="c0"/>
<circle cx="1358" cy="574" r="6" class="c0"/>
<circle cx="998" cy="760" r="6" class="c0"/>
<circle cx="1084" cy="480" r="6" class="c0"/>
<circle cx="1514" cy="736" r="6" class="c0"/>
<circle cx="1394" cy="556" r="6" class="c0"/>
<circle cx="994" cy="922" r="6" class="c0"/>
<circle cx="818" cy="650" r="6" class="c0"/>
<circle cx="1106" cy="1044" r="6" class="c0"/>
<circle cx="1782" cy="772" r="6" class="c0"/>
<circle cx="1080" cy="1056" r="6" class="c0"/>
<circle cx="1186" cy="658" r="6" class="c0"/>
<circle cx="1710" cy="768" r="6" class="c0"/>
<circle cx="1756" cy="774" r="6" class="c0"/>
<circle cx="850" cy="826" r="6" class="c0"/>
<circle cx="1412" cy="702" r="6" class="c0"/>
<circle cx="886" cy="712" r="6" class="c0"/>
<circle cx="1616" cy="802" r="6" class="c0"/>
<circle cx="1462" cy="756" r="6" class="c0"/>
<circle cx="1070" cy="814" r="6" class="c0"/>
<circle cx="1654" cy="760" r="6" class="c0"/>
<circle cx="1662" cy="732" r="6" class="c0"/>
<circle cx="782" cy="688" r="6" class="c0"/>
<circle cx="1330" cy="534" r="6" class="c0"/>
<circle cx="1750" cy="842" r="6" class="c0"/>
<circle cx="1526" cy="878" r="6" class="c0"/>
<circle cx="1312" cy="742" r="6" class="c0"/>
<circle cx="1036" cy="532" r="6" class="c0"/>
<circle cx="968" cy="746" r="6" class="c0"/>
<circle cx="1540" cy="784" r="6" class="c0"/>
<circle cx="984" cy="1000" r="6" class="c0"/>
<circle cx="1180" cy="602" r="6" class="c0"/>
<circle cx="1576" cy="812" r="6" class="c0"/>
<circle cx="1526" cy="682" r="6" class="c0"/>
<circle cx="1584" cy="786" r="6" class="c0"/>
<circle cx="1044" cy="486" r="6" class="c0"/>
<circle cx="762" cy="708" r="6" class="c0"/>
<circle cx="1072" cy="590" r="6" class="c0"/>
<circle cx="1214" cy="656" r="6" class="c0"/>
<circle cx="1368" cy="818" r="6" class="c0"/>
<circle cx="1004" cy="576" r="6" class="c0"/>
<circle cx="1034" cy="794" r="6" class="c0"/>
<circle cx="1362" cy="650" r="6" class="c0"/>
<circle cx="1204" cy="574" r="6" class="c0"/>
<circle cx="1092" cy="652" r="6" class="c0"/>
<circle cx="892" cy="572" r="6" class="c0"/>
<circle cx="1316" cy="574" r="6" class="c0"/>
<circle cx="1896" cy="550" r="6" class="c0"/>
<circle cx="1370" cy="776" r="6" class="c0"/>
<circle cx="838" cy="716" r="6" class="c0"/>
<circle cx="1070" cy="700" r="6" class="c0"/>
<circle cx="1290" cy="560" r="6" class="c0"/>
<circle cx="1376" cy="788" r="6" class="c0"/>
<circle cx="1428" cy="598" r="6" class="c0"/>
<circle cx="1420" cy="732" r="6" class="c0"/>
<circle cx="826" cy="682" r="6" class="c0"/>
<circle cx="1500" cy="768" r="6" class="c0"/>
<circle cx="1452" cy="596" r="6" class="c0"/>
<circle cx="808" cy="826" r="6" class="c0"/>
<circle cx="920" cy="594" r="6" class="c0"/>
<circle cx="1666" cy="834" r="6" class="c0"/>
<circle cx="1816" cy="670" r="6" class="c0"/>
<circle cx="774" cy="778" r="6" class="c0"/>
<circle cx="936" cy="632" r="6" class="c0"/>
<circle cx="1294" cy="752" r="6" class="c0"/>
<circle cx="926" cy="726" r="6" class="c0"/>
</svg>
