<?xml version="1.0" encoding="utf-8"?>
<svg xmlns="http://www.w3.org/2000/svg"
     xmlns:xlink="http://www.w3.org/1999/xlink" width="1920" height="1440" >

            <defs>
            <style type="text/css"><![CDATA[
circle {stroke: none;}
.c0 {fill: #FFFFFF;}
]]></style>
            </defs>
<rect x="0" y="0" width="1920" height="1440" fill="black"/>
<circle cx="1866" cy="568" r="12" class="c0"/>
<circle cx="1810" cy="692" r="12" class="c0"/>
<circle cx="1008" cy="944" r="12" class="c0"/>
<circle cx="1436" cy="706" r="12" class="c0"/>
<circle cx="1892" cy="574" r="12" class="c0"/>
<circle cx="1130" cy="574" r="12" class="c0"/>
<circle cx="1000" cy="540" r="12" class="c0"/>
<circle cx="1390" cy="744" r="12" class="c0"/>
<circle cx="1718" cy="706" r="12" class="c0"/>
<circle cx="976" cy="558" r="12" class="c0"/>
<circle cx="1702" cy="830" r="12" class="c0"/>
<circle cx="906" cy="726" r="12" class="c0"/>
<circle cx="1616" cy="658" r="12" class="c0"/>
<circle cx="1578" cy="718" r="12" class="c0"/>
<circle cx="1392" cy="596" r="12" class="c0"/>
<circle cx="918" cy="684" r="12" class="c0"/>
<circle cx="1792" cy="618" r="12" class="c0"/>
<circle cx="814" cy="722" r="12" class="c0"/>
<circle cx="1624" cy="748" r="12" class="c0"/>
<circle cx="1330" cy="566" r="12" class="c0"/>
<circle cx="1822" cy="618" r="12" class="c0"/>
<circle cx="752" cy="724" r="12" class="c0"/>
<circle cx="1496" cy="724" r="12" class="c0"/>
<circle cx="1786" cy="722" r="12" class="c0"/>
<circle cx="1056" cy="1096" r="12" class="c0"/>
<circle cx="1672" cy="758" r="12" class="c0"/>
<circle cx="786" cy="680" r="12" class="c0"/>
<circle cx="900" cy="594" r="12" class="c0"/>
<circle cx="1790" cy="752" r="12" class="c0"/>
<circle cx="1048" cy="608" r="12" class="c0"/>
<circle cx="1880" cy="770" r="12" class="c0"/>
<circle cx="1016" cy="628" r="12" class="c0"/>
<circle cx="1056" cy="470" r="12" class="c0"/>
<circle cx="1446" cy="760" r="12" class="c0"/>
<circle cx="1372" cy="562" r="12" class="c0"/>
<circle cx="1024" cy="1020" r="12" class="c0"/>
<circle cx="1594" cy="806" r="12" class="c0"/>
<circle cx="768" cy="770" r="12" class="c0"/>
<circle cx="1552" cy="720" r="12" class="c0"/>
<circle cx="1376" cy="658" r="12" class="c0"/>
<circle cx="1302" cy="672" r="12" class="c0"/>
<circle cx="1740" cy="732" r="12" class="c0"/>
<circle cx="1766" cy="626" r="12" class="c0"/>
<circle cx="810" cy="642" r="12" class="c0"/>
<circle cx="1208" cy="654" r="12" class="c0"/>
<circle cx="1256" cy="686" r="12" class="c0"/>
<circle cx="1278" cy="630" r="12" class="c0"/>
<circle cx="828" cy="760" r="12" class="c0"/>
<circle cx="834" cy="808" r="12" class="c0"/>
<circle cx="754" cy="666" r="12" class="c0"/>
<circle cx="1020" cy="800" r="12" class="c0"/>
<circle cx="1008" cy="982" r="12" class="c0"/>
<circle cx="1550" cy="838" r="12" class="c0"/>
<circle cx="976" cy="888" r="12" class="c0"/>
<circle cx="1722" cy="776" r="12" class="c0"/>
<circle cx="1422" cy="684" r="12" class="c0"/>
<circle cx="948" cy="602" r="12" class="c0"/>
<circle cx="1826" cy="654" r="12" class="c0"/>
<circle cx="1806" cy="788" r="12" class="c0"/>
<circle cx="1498" cy="852" r="12" class="c0"/>
<circle cx="1474" cy="800" r="10" class="c0"/>
<circle cx="1854" cy="666" r="10" class="c0"/>
<circle cx="1482" cy="618" r="10" class="c0"/>
<circle cx="1056" cy="912" r="10" class="c0"/>
<circle cx="1320" cy="704" r="10" class="c0"/>
<circle cx="1640" cy="684" r="10" class="c0"/>
<circle cx="1098" cy="594" r="10" class="c0"/>
<circle cx="1300" cy="522" r="10" class="c0"/>
<circle cx="1716" cy="582" r="10" class="c0"/>
<circle cx="1118" cy="460" r="10" class="c0"/>
<circle cx="1532" cy="730" r="10" class="c0"/>
<circle cx="1144" cy="534" r="10" class="c0"/>
<circle cx="1068" cy="542" r="10" class="c0"/>
<circle cx="958" cy="830" r="10" class="c0"/>
<circle cx="1840" cy="540" r="10" class="c0"/>
<circle cx="1360" cy="630" r="10" class="c0"/>
<circle cx="1030" cy="466" r="10" class="c0"/>
<circle cx="1538" cy="774" r="10" class="c0"/>
<circle cx="1396" cy="644" r="10" class="c0"/>
<circle cx="1092" cy="500" r="10" class="c0"/>
<circle cx="1880" cy="532" r="10" class="c0"/>
<circle cx="1616" cy="818" r="10" class="c0"/>
<circle cx="1462" cy="692" r="10" class="c0"/>
<circle cx="1682" cy="850" r="10" class="c0"/>
<circle cx="964" cy="960" r="10" class="c0"/>
<circle cx="1832" cy="578" r="10" class="c0"/>
<circle cx="840" cy="734" r="10" class="c0"/>
<circle cx="1024" cy="728" r="10" class="c0"/>
<circle cx="1698" cy="680" r="10" class="c0"/>
<circle cx="1282" cy="598" r="10" class="c0"/>
<circle cx="1742" cy="676" r="10" class="c0"/>
<circle cx="1584" cy="640" r="10" class="c0"/>
<circle cx="1440" cy="566" r="10" class="c0"/>
<circle cx="1874" cy="708" r="10" class="c0"/>
<circle cx="1010" cy="1088" r="10" class="c0"/>
<circle cx="1022" cy="868" r="10" class="c0"/>
<circle cx="1046" cy="860" r="10" class="c0"/>
<circle cx="1822" cy="710" r="10" class="c0"/>
<circle cx="1212" cy="576" r="10" class="c0"/>
<circle cx="1238" cy="600" r="10" class="c0"/>
<circle cx="1338" cy="626" r="10" class="c0"/>
<circle cx="1730" cy="834" r="10" class="c0"/>
<circle cx="1088" cy="560" r="10" class="c0"/>
<circle cx="1508" cy="606" r="10" class="c0"/>
<circle cx="1492" cy="674" r="10" class="c0"/>
<circle cx="814" cy="594" r="10" class="c0"/>
<circle cx="1022" cy="930" r="10" class="c0"/>
<circle cx="1146" cy="466" r="10" class="c0"/>
<circle cx="936" cy="746" r="10" class="c0"/>
<circle cx="1332" cy="728" r="10" class="c0"/>
<circle cx="1888" cy="690" r="10" class="c0"/>
<circle cx="1056" cy="1058" r="10" class="c0"/>
<circle cx="900" cy="664" r="10" class="c0"/>
<circle cx="1036" cy="976" r="10" class="c0"/>
<circle cx="1650" cy="612" r="10" class="c0"/>
<circle cx="1842" cy="698" r="10" class="c0"/>
<circle cx="1788" cy="666" r="10" class="c0"/>
<circle cx="1904" cy="776" r="10" class="c0"/>
<circle cx="944" cy="534" r="10" class="c0"/>
<circle cx="1482" cy="756" r="10" class="c0"/>
<circle cx="916" cy="536" r="10" class="c0"/>
<circle cx="1900" cy="706" r="10" class="c0"/>
<circle cx="1884" cy="652" r="10" class="c0"/>
<circle cx="972" cy="604" r="10" class="c0"/>
<circle cx="1382" cy="718" r="10" class="c0"/>
<circle cx="1234" cy="652" r="10" class="c0"/>
<circle cx="1740" cy="572" r="10" class="c0"/>
<circle cx="1002" cy="480" r="10" class="c0"/>
<circle cx="850" cy="606" r="10" class="c0"/>
<circle cx="758" cy="700" r="10" class="c0"/>
<circle cx="1032" cy="562" r="10" class="c0"/>
<circle cx="1024" cy="506" r="10" class="c0"/>
<circle cx="1050" cy="1032" r="10" class="c0"/>
<circle cx="860" cy="650" r="10" class="c0"/>
<circle cx="838" cy="584" r="10" class="c0"/>
<circle cx="1232" cy="500" r="10" class="c0"/>
<circle cx="1688" cy="612" r="10" class="c0"/>
<circle cx="1756" cy="804" r="10" class="c0"/>
<circle cx="1404" cy="616" r="10" class="c0"/>
<circle cx="1566" cy="698" r="10" class="c0"/>
<circle cx="1878" cy="794" r="10" class="c0"/>
<circle cx="948" cy="900" r="10" class="c0"/>
<circle cx="872" cy="856" r="10" class="c0"/>
<circle cx="1604" cy="850" r="10" class="c0"/>
<circle cx="1890" cy="740" r="10" class="c0"/>
<circle cx="1250" cy="616" r="10" class="c0"/>
<circle cx="1566" cy="784" r="10" class="c0"/>
<circle cx="1362" cy="604" r="10" class="c0"/>
<circle cx="1092" cy="470" r="10" class="c0"/>
<circle cx="1598" cy="748" r="10" class="c0"/>
<circle cx="1546" cy="812" r="10" class="c0"/>
<circle cx="1662" cy="726" r="10" class="c0"/>
<circle cx="1694" cy="800" r="10" class="c0"/>
<circle cx="982" cy="970" r="10" class="c0"/>
<circle cx="1172" cy="502" r="10" class="c0"/>
<circle cx="1412" cy="752" r="10" class="c0"/>
<circle cx="1880" cy="600" r="10" class="c0"/>
<circle cx="780" cy="796" r="10" class="c0"/>
<circle cx="1796" cy="548" r="10" class="c0"/>
<circle cx="1756" cy="712" r="10" class="c0"/>
<circle cx="1518" cy="666" r="10" class="c0"/>
<circle cx="1500" cy="772" r="10" class="c0"/>
<circle cx="782" cy="652" r="10" class="c0"/>
<circle cx="1750" cy="606" r="10" class="c0"/>
<circle cx="790" cy="728" r="10" class="c0"/>
<circle cx="1308" cy="720" r="10" class="c0"/>
<circle cx="1006" cy="880" r="10" class="c0"/>
<circle cx="1186" cy="604" r="10" class="c0"/>
<circle cx="970" cy="774" r="10" class="c0"/>
<circle cx="1382" cy="794" r="10" class="c0"/>
<circle cx="966" cy="1090" r="10" class="c0"/>
<circle cx="1816" cy="556" r="10" class="c0"/>
<circle cx="928" cy="562" r="10" class="c0"/>
<circle cx="1664" cy="814" r="10" class="c0"/>
<circle cx="1000" cy="574" r="10" class="c0"/>
<circle cx="1718" cy="622" r="10" class="c0"/>
<circle cx="1688" cy="774" r="10" class="c0"/>
<circle cx="924" cy="624" r="10" class="c0"/>
<circle cx="1678" cy="640" r="10" class="c0"/>
<circle cx="1908" cy="466" r="10" class="c0"/>
<circle cx="864" cy="594" r="10" class="c0"/>
<circle cx="938" cy="820" r="10" class="c0"/>
<circle cx="968" cy="580" r="10" class="c0"/>
<circle cx="988" cy="802" r="10" class="c0"/>
<circle cx="1336" cy="666" r="10" class="c0"/>
<circle cx="1062" cy="578" r="10" class="c0"/>
<circle cx="1266" cy="542" r="10" class="c0"/>
<circle cx="1336" cy="534" r="10" class="c0"/>
<circle cx="884" cy="608" r="10" class="c0"/>
<circle cx="1816" cy="736" r="10" class="c0"/>
<circle cx="1008" cy="518" r="10" class="c0"/>
<circle cx="1026" cy="892" r="10" class="c0"/>
<circle cx="1438" cy="818" r="10" class="c0"/>
<circle cx="782" cy="706" r="10" class="c0"/>
<circle cx="990" cy="830" r="10" class="c0"/>
<circle cx="1852" cy="634" r="10" class="c0"/>
<circle cx="776" cy="626" r="10" class="c0"/>
<circle cx="1608" cy="684" r="10" class="c0"/>
<circle cx="1072" cy="1074" r="10" class="c0"/>
<circle cx="926" cy="646" r="10" class="c0"/>
<circle cx="1784" cy="588" r="10" class="c0"/>
<circle cx="1516" cy="712" r="10" class="c0"/>
<circle cx="1296" cy="568" r="10" class="c0"/>
<circle cx="1572" cy="756" r="10" class="c0"/>
<circle cx="1624" cy="710" r="10" class="c0"/>
<circle cx="1184" cy="546" r="10" class="c0"/>
<circle cx="844" cy="696" r="10" class="c0"/>
<circle cx="1458" cy="606" r="10" class="c0"/>
<circle cx="1642" cy="824" r="10" class="c0"/>
<circle cx="1468" cy="846" r="10" class="c0"/>
<circle cx="1056" cy="652" r="10" class="c0"/>
<circle cx="876" cy="564" r="10" class="c0"/>
<circle cx="1676" cy="662" r="10" class="c0"/>
<circle cx="1320" cy="748" r="10" class="c0"/>
<circle cx="1390" cy="696" r="10" class="c0"/>
<circle cx="986" cy="590" r="10" class="c0"/>
<circle cx="1100" cy="546" r="10" class="c0"/>
<circle cx="1452" cy="726" r="10" class="c0"/>
<circle cx="1054" cy="524" r="10" class="c0"/>
<circle cx="1264" cy="520" r="10" class="c0"/>
<circle cx="886" cy="682" r="10" class="c0"/>
<circle cx="1468" cy="770" r="10" class="c0"/>
<circle cx="1830" cy="796" r="10" class="c0"/>
<circle cx="1344" cy="708" r="10" class="c0"/>
<circle cx="984" cy="502" r="10" class="c0"/>
<circle cx="1028" cy="670" r="10" class="c0"/>
<circle cx="948" cy="762" r="10" class="c0"/>
<circle cx="1398" cy="560" r="10" class="c0"/>
<circle cx="1438" cy="598" r="10" class="c0"/>
<circle cx="1412" cy="822" r="10" class="c0"/>
<circle cx="1846" cy="760" r="10" class="c0"/>
<circle cx="1088" cy="522" r="10" class="c0"/>
<circle cx="1362" cy="772" r="10" class="c0"/>
<circle cx="1420" cy="726" r="10" class="c0"/>
<circle cx="894" cy="544" r="10" class="c0"/>
<circle cx="986" cy="856" r="10" class="c0"/>
<circle cx="1108" cy="1066" r="10" class="c0"/>
<circle cx="1710" cy="746" r="10" class="c0"/>
<circle cx="1036" cy="642" r="10" class="c0"/>
<circle cx="1712" cy="658" r="8" class="c0"/>
<circle cx="1200" cy="498" r="8" class="c0"/>
<circle cx="838" cy="676" r="8" class="c0"/>
<circle cx="970" cy="916" r="8" class="c0"/>
<circle cx="1500" cy="748" r="8" class="c0"/>
<circle cx="1010" cy="1056" r="8" class="c0"/>
<circle cx="1044" cy="996" r="8" class="c0"/>
<circle cx="1242" cy="516" r="8" class="c0"/>
<circle cx="1732" cy="644" r="8" class="c0"/>
<circle cx="1844" cy="720" r="8" class="c0"/>
<circle cx="1450" cy="798" r="8" class="c0"/>
<circle cx="718" cy="750" r="8" class="c0"/>
<circle cx="1018" cy="836" r="8" class="c0"/>
<circle cx="908" cy="560" r="8" class="c0"/>
<circle cx="1678" cy="692" r="8" class="c0"/>
<circle cx="778" cy="824" r="8" class="c0"/>
<circle cx="1476" cy="594" r="8" class="c0"/>
<circle cx="1024" cy="530" r="8" class="c0"/>
<circle cx="1782" cy="560" r="8" class="c0"/>
<circle cx="1170" cy="476" r="8" class="c0"/>
<circle cx="966" cy="746" r="8" class="c0"/>
<circle cx="1628" cy="858" r="8" class="c0"/>
<circle cx="1728" cy="814" r="8" class="c0"/>
<circle cx="1046" cy="790" r="8" class="c0"/>
<circle cx="1764" cy="688" r="8" class="c0"/>
<circle cx="1316" cy="608" r="8" class="c0"/>
<circle cx="1064" cy="976" r="8" class="c0"/>
<circle cx="1502" cy="636" r="8" class="c0"/>
<circle cx="834" cy="638" r="8" class="c0"/>
<circle cx="1284" cy="698" r="8" class="c0"/>
<circle cx="1176" cy="526" r="8" class="c0"/>
<circle cx="842" cy="830" r="8" class="c0"/>
<circle cx="1044" cy="838" r="8" class="c0"/>
<circle cx="1858" cy="776" r="8" class="c0"/>
<circle cx="1756" cy="754" r="8" class="c0"/>
<circle cx="1626" cy="838" r="8" class="c0"/>
<circle cx="1560" cy="642" r="8" class="c0"/>
<circle cx="1526" cy="760" r="8" class="c0"/>
<circle cx="1434" cy="788" r="8" class="c0"/>
<circle cx="1696" cy="716" r="8" class="c0"/>
<circle cx="1000" cy="606" r="8" class="c0"/>
<circle cx="1042" cy="488" r="8" class="c0"/>
<circle cx="942" cy="860" r="8" class="c0"/>
<circle cx="1308" cy="556" r="8" class="c0"/>
<circle cx="1258" cy="664" r="8" class="c0"/>
<circle cx="1546" cy="756" r="8" class="c0"/>
<circle cx="1532" cy="632" r="8" class="c0"/>
<circle cx="1328" cy="644" r="8" class="c0"/>
<circle cx="1662" cy="650" r="8" class="c0"/>
<circle cx="866" cy="622" r="8" class="c0"/>
<circle cx="1300" cy="638" r="8" class="c0"/>
<circle cx="818" cy="672" r="8" class="c0"/>
<circle cx="962" cy="806" r="8" class="c0"/>
<circle cx="1434" cy="740" r="8" class="c0"/>
<circle cx="1336" cy="594" r="8" class="c0"/>
<circle cx="1462" cy="584" r="8" class="c0"/>
<circle cx="982" cy="1070" r="8" class="c0"/>
<circle cx="1578" cy="862" r="8" class="c0"/>
<circle cx="1010" cy="820" r="8" class="c0"/>
<circle cx="1230" cy="680" r="8" class="c0"/>
<circle cx="1080" cy="1054" r="8" class="c0"/>
<circle cx="1166" cy="600" r="8" class="c0"/>
<circle cx="1514" cy="788" r="8" class="c0"/>
<circle cx="1590" cy="784" r="8" class="c0"/>
<circle cx="982" cy="994" r="8" class="c0"/>
<circle cx="1018" cy="550" r="8" class="c0"/>
<circle cx="1906" cy="602" r="8" class="c0"/>
<circle cx="1772" cy="572" r="8" class="c0"/>
<circle cx="860" cy="838" r="8" class="c0"/>
<circle cx="1198" cy="480" r="8" class="c0"/>
<circle cx="1780" cy="818" r="8" class="c0"/>
<circle cx="1524" cy="852" r="8" class="c0"/>
<circle cx="1646" cy="792" r="8" class="c0"/>
<circle cx="1660" cy="688" r="8" class="c0"/>
<circle cx="1020" cy="966" r="8" class="c0"/>
<circle cx="1522" cy="692" r="8" class="c0"/>
<circle cx="1070" cy="492" r="8" class="c0"/>
<circle cx="998" cy="728" r="8" class="c0"/>
<circle cx="846" cy="852" r="8" class="c0"/>
<circle cx="1188" cy="638" r="8" class="c0"/>
<circle cx="940" cy="880" r="8" class="c0"/>
<circle cx="1108" cy="524" r="8" class="c0"/>
<circle cx="1030" cy="1080" r="8" class="c0"/>
<circle cx="1216" cy="520" r="8" class="c0"/>
<circle cx="1046" cy="820" r="8" class="c0"/>
<circle cx="1236" cy="566" r="8" class="c0"/>
<circle cx="1148" cy="486" r="8" class="c0"/>
<circle cx="1054" cy="694" r="8" class="c0"/>
<circle cx="1478" cy="576" r="8" class="c0"/>
<circle cx="1520" cy="810" r="8" class="c0"/>
<circle cx="1838" cy="598" r="8" class="c0"/>
<circle cx="818" cy="782" r="8" class="c0"/>
<circle cx="1082" cy="1030" r="8" class="c0"/>
<circle cx="1910" cy="738" r="8" class="c0"/>
<circle cx="1044" cy="934" r="8" class="c0"/>
<circle cx="1554" cy="672" r="8" class="c0"/>
<circle cx="1906" cy="636" r="8" class="c0"/>
<circle cx="1798" cy="824" r="8" class="c0"/>
<circle cx="1320" cy="546" r="8" class="c0"/>
<circle cx="1146" cy="598" r="8" class="c0"/>
<circle cx="978" cy="1016" r="8" class="c0"/>
<circle cx="806" cy="754" r="8" class="c0"/>
<circle cx="1776" cy="784" r="8" class="c0"/>
<circle cx="1014" cy="744" r="8" class="c0"/>
<circle cx="1078" cy="610" r="8" class="c0"/>
<circle cx="1882" cy="512" r="8" class="c0"/>
<circle cx="1350" cy="688" r="8" class="c0"/>
<circle cx="1444" cy="660" r="8" class="c0"/>
<circle cx="1062" cy="946" r="8" class="c0"/>
<circle cx="1048" cy="672" r="8" class="c0"/>
<circle cx="1580" cy="842" r="8" class="c0"/>
<circle cx="1084" cy="648" r="8" class="c0"/>
<circle cx="1742" cy="788" r="8" class="c0"/>
<circle cx="1746" cy="766" r="8" class="c0"/>
<circle cx="1066" cy="624" r="8" class="c0"/>
<circle cx="1200" cy="562" r="8" class="c0"/>
<circle cx="1418" cy="776" r="8" class="c0"/>
<circle cx="1000" cy="1008" r="8" class="c0"/>
<circle cx="1768" cy="734" r="8" class="c0"/>
<circle cx="964" cy="938" r="8" class="c0"/>
<circle cx="1036" cy="1044" r="8" class="c0"/>
<circle cx="1666" cy="792" r="8" class="c0"/>
<circle cx="1168" cy="570" r="8" class="c0"/>
<circle cx="1354" cy="572" r="8" class="c0"/>
<circle cx="1030" cy="692" r="8" class="c0"/>
<circle cx="1764" cy="654" r="8" class="c0"/>
<circle cx="1596" cy="828" r="8" class="c0"/>
<circle cx="818" cy="694" r="8" class="c0"/>
<circle cx="964" cy="866" r="8" class="c0"/>
<circle cx="1060" cy="808" r="8" class="c0"/>
<circle cx="1362" cy="722" r="8" class="c0"/>
<circle cx="1226" cy="552" r="8" class="c0"/>
<circle cx="1636" cy="780" r="8" class="c0"/>
<circle cx="1648" cy="766" r="8" class="c0"/>
<circle cx="1390" cy="816" r="8" class="c0"/>
<circle cx="1648" cy="660" r="8" class="c0"/>
<circle cx="1908" cy="660" r="8" class="c0"/>
<circle cx="1698" cy="734" r="8" class="c0"/>
<circle cx="1862" cy="746" r="8" class="c0"/>
<circle cx="1000" cy="760" r="8" class="c0"/>
<circle cx="1488" cy="650" r="8" class="c0"/>
<circle cx="1646" cy="634" r="8" class="c0"/>
<circle cx="1202" cy="614" r="8" class="c0"/>
<circle cx="1600" cy="716" r="8" class="c0"/>
<circle cx="1854" cy="798" r="8" class="c0"/>
<circle cx="860" cy="706" r="8" class="c0"/>
<circle cx="1492" cy="822" r="8" class="c0"/>
<circle cx="798" cy="626" r="8" class="c0"/>
<circle cx="1614" cy="782" r="8" class="c0"/>
<circle cx="898" cy="698" r="8" class="c0"/>
<circle cx="1812" cy="638" r="8" class="c0"/>
<circle cx="1414" cy="660" r="8" class="c0"/>
<circle cx="1356" cy="650" r="8" class="c0"/>
<circle cx="1418" cy="588" r="8" class="c0"/>
<circle cx="1656" cy="846" r="8" class="c0"/>
<circle cx="1790" cy="808" r="8" class="c0"/>
<circle cx="1120" cy="600" r="8" class="c0"/>
<circle cx="1824" cy="816" r="8" class="c0"/>
<circle cx="1722" cy="682" r="8" class="c0"/>
<circle cx="1510" cy="820" r="8" class="c0"/>
<circle cx="1462" cy="658" r="8" class="c0"/>
<circle cx="1628" cy="626" r="8" class="c0"/>
<circle cx="1006" cy="848" r="8" class="c0"/>
<circle cx="996" cy="900" r="8" class="c0"/>
<circle cx="1350" cy="548" r="8" class="c0"/>
<circle cx="738" cy="762" r="8" class="c0"/>
<circle cx="1026" cy="992" r="8" class="c0"/>
<circle cx="1134" cy="510" r="8" class="c0"/>
<circle cx="1408" cy="800" r="8" class="c0"/>
<circle cx="1862" cy="724" r="8" class="c0"/>
<circle cx="1282" cy="720" r="8" class="c0"/>
<circle cx="848" cy="768" r="8" class="c0"/>
<circle cx="1074" cy="460" r="8" class="c0"/>
<circle cx="1568" cy="806" r="8" class="c0"/>
<circle cx="1338" cy="772" r="8" class="c0"/>
<circle cx="1652" cy="710" r="8" class="c0"/>
<circle cx="868" cy="674" r="8" class="c0"/>
<circle cx="1124" cy="482" r="8" class="c0"/>
<circle cx="1206" cy="532" r="8" class="c0"/>
<circle cx="1570" cy="628" r="8" class="c0"/>
<circle cx="1824" cy="758" r="8" class="c0"/>
<circle cx="1586" cy="668" r="8" class="c0"/>
<circle cx="934" cy="588" r="8" class="c0"/>
<circle cx="854" cy="560" r="8" class="c0"/>
<circle cx="1460" cy="744" r="8" class="c0"/>
<circle cx="956" cy="508" r="8" class="c0"/>
<circle cx="754" cy="792" r="8" class="c0"/>
<circle cx="1278" cy="576" r="8" class="c0"/>
<circle cx="1248" cy="552" r="8" class="c0"/>
<circle cx="1198" cy="588" r="8" class="c0"/>
<circle cx="1412" cy="706" r="8" class="c0"/>
<circle cx="1874" cy="632" r="8" class="c0"/>
<circle cx="1900" cy="798" r="8" class="c0"/>
<circle cx="1492" cy="586" r="8" class="c0"/>
<circle cx="1170" cy="618" r="8" class="c0"/>
<circle cx="724" cy="774" r="8" class="c0"/>
<circle cx="1484" cy="704" r="8" class="c0"/>
<circle cx="1466" cy="640" r="8" class="c0"/>
<circle cx="1396" cy="666" r="8" class="c0"/>
<circle cx="1414" cy="634" r="8" class="c0"/>
<circle cx="1758" cy="584" r="8" class="c0"/>
<circle cx="1472" cy="724" r="8" class="c0"/>
<circle cx="1888" cy="550" r="8" class="c0"/>
<circle cx="1050" cy="554" r="8" class="c0"/>
<circle cx="986" cy="1094" r="8" class="c0"/>
<circle cx="1568" cy="852" r="8" class="c0"/>
<circle cx="1352" cy="746" r="8" class="c0"/>
<circle cx="1040" cy="542" r="8" class="c0"/>
<circle cx="1560" cy="868" r="8" class="c0"/>
<circle cx="1428" cy="840" r="8" class="c0"/>
<circle cx="1322" cy="680" r="8" class="c0"/>
<circle cx="1358" cy="792" r="8" class="c0"/>
<circle cx="1310" cy="588" r="8" class="c0"/>
<circle cx="736" cy="704" r="8" class="c0"/>
<circle cx="1002" cy="922" r="8" class="c0"/>
<circle cx="1274" cy="656" r="8" class="c0"/>
<circle cx="1046" cy="958" r="8" class="c0"/>
<circle cx="722" cy="724" r="8" class="c0"/>
<circle cx="930" cy="706" r="8" class="c0"/>
<circle cx="1568" cy="658" r="8" class="c0"/>
<circle cx="1462" cy="816" r="8" class="c0"/>
<circle cx="1530" cy="822" r="8" class="c0"/>
<circle cx="1864" cy="618" r="8" class="c0"/>
<circle cx="988" cy="1042" r="8" class="c0"/>
<circle cx="1786" cy="694" r="8" class="c0"/>
<circle cx="1242" cy="634" r="8" class="c0"/>
<circle cx="1672" cy="710" r="8" class="c0"/>
<circle cx="1220" cy="616" r="8" class="c0"/>
<circle cx="1068" cy="668" r="8" class="c0"/>
<circle cx="1838" cy="678" r="8" class="c0"/>
<circle cx="1068" cy="1018" r="8" class="c0"/>
<circle cx="1298" cy="614" r="8" class="c0"/>
<circle cx="1864" cy="522" r="8" class="c0"/>
<circle cx="1760" cy="830" r="8" class="c0"/>
<circle cx="1536" cy="658" r="8" class="c0"/>
<circle cx="1022" cy="596" r="8" class="c0"/>
<circle cx="1252" cy="582" r="8" class="c0"/>
<circle cx="1810" cy="598" r="8" class="c0"/>
<circle cx="1444" cy="634" r="8" class="c0"/>
<circle cx="1590" cy="694" r="8" class="c0"/>
<circle cx="788" cy="612" r="8" class="c0"/>
<circle cx="1098" cy="1082" r="8" class="c0"/>
<circle cx="986" cy="618" r="8" class="c0"/>
<circle cx="1244" cy="534" r="8" class="c0"/>
<circle cx="1740" cy="696" r="8" class="c0"/>
<circle cx="974" cy="522" r="8" class="c0"/>
<circle cx="952" cy="564" r="8" class="c0"/>
<circle cx="850" cy="666" r="8" class="c0"/>
<circle cx="1534" cy="866" r="8" class="c0"/>
<circle cx="1254" cy="646" r="8" class="c0"/>
<circle cx="1904" cy="524" r="8" class="c0"/>
<circle cx="1216" cy="490" r="8" class="c0"/>
<circle cx="1706" cy="640" r="8" class="c0"/>
<circle cx="1056" cy="884" r="8" class="c0"/>
<circle cx="1000" cy="1028" r="8" class="c0"/>
<circle cx="1428" cy="618" r="8" class="c0"/>
<circle cx="1106" cy="618" r="8" class="c0"/>
<circle cx="790" cy="774" r="8" class="c0"/>
<circle cx="1528" cy="608" r="8" class="c0"/>
<circle cx="1634" cy="806" r="8" class="c0"/>
<circle cx="944" cy="920" r="8" class="c0"/>
<circle cx="1360" cy="676" r="8" class="c0"/>
<circle cx="782" cy="846" r="8" class="c0"/>
<circle cx="852" cy="820" r="8" class="c0"/>
<circle cx="1068" cy="996" r="8" class="c0"/>
<circle cx="1772" cy="604" r="8" class="c0"/>
<circle cx="782" cy="746" r="8" class="c0"/>
<circle cx="884" cy="644" r="8" class="c0"/>
<circle cx="1152" cy="516" r="8" class="c0"/>
<circle cx="1222" cy="640" r="8" class="c0"/>
<circle cx="1100" cy="572" r="8" class="c0"/>
<circle cx="964" cy="538" r="8" class="c0"/>
<circle cx="1608" cy="636" r="8" class="c0"/>
<circle cx="1038" cy="710" r="8" class="c0"/>
<circle cx="1764" cy="770" r="8" class="c0"/>
<circle cx="1862" cy="692" r="8" class="c0"/>
<circle cx="1310" cy="628" r="8" class="c0"/>
<circle cx="1636" cy="650" r="8" class="c0"/>
<circle cx="1556" cy="766" r="8" class="c0"/>
<circle cx="1858" cy="592" r="8" class="c0"/>
<circle cx="914" cy="580" r="8" class="c0"/>
<circle cx="1058" cy="1006" r="8" class="c0"/>
<circle cx="1134" cy="550" r="8" class="c0"/>
<circle cx="904" cy="616" r="8" class="c0"/>
<circle cx="1290" cy="736" r="8" class="c0"/>
<circle cx="734" cy="736" r="8" class="c0"/>
<circle cx="1450" cy="854" r="8" class="c0"/>
<circle cx="1252" cy="504" r="8" class="c0"/>
<circle cx="832" cy="620" r="8" class="c0"/>
<circle cx="968" cy="492" r="8" class="c0"/>
<circle cx="1426" cy="804" r="8" class="c0"/>
<circle cx="1034" cy="582" r="8" class="c0"/>
<circle cx="1886" cy="620" r="8" class="c0"/>
<circle cx="1910" cy="688" r="8" class="c0"/>
<circle cx="1532" cy="678" r="8" class="c0"/>
<circle cx="1124" cy="540" r="8" class="c0"/>
<circle cx="1844" cy="560" r="8" class="c0"/>
<circle cx="1078" cy="588" r="8" class="c0"/>
<circle cx="1696" cy="594" r="8" class="c0"/>
<circle cx="1152" cy="552" r="8" class="c0"/>
<circle cx="1058" cy="504" r="8" class="c0"/>
<circle cx="1480" cy="862" r="8" class="c0"/>
<circle cx="934" cy="724" r="8" class="c0"/>
<circle cx="1758" cy="560" r="8" class="c0"/>
<circle cx="738" cy="682" r="8" class="c0"/>
<circle cx="1750" cy="840" r="8" class="c0"/>
<circle cx="1906" cy="560" r="8" class="c0"/>
<circle cx="1810" cy="668" r="8" class="c0"/>
<circle cx="1084" cy="1092" r="8" class="c0"/>
<circle cx="1484" cy="784" r="8" class="c0"/>
<circle cx="904" cy="640" r="8" class="c0"/>
<circle cx="980" cy="926" r="8" class="c0"/>
<circle cx="828" cy="662" r="8" class="c0"/>
<circle cx="1786" cy="774" r="8" class="c0"/>
<circle cx="1910" cy="498" r="8" class="c0"/>
<circle cx="1264" cy="712" r="8" class="c0"/>
<circle cx="932" cy="848" r="8" class="c0"/>
<circle cx="1504" cy="798" r="8" class="c0"/>
<circle cx="1714" cy="798" r="8" class="c0"/>
<circle cx="1714" cy="850" r="8" class="c0"/>
<circle cx="1608" cy="732" r="8" class="c0"/>
<circle cx="762" cy="644" r="8" class="c0"/>
<circle cx="1286" cy="546" r="8" class="c0"/>
<circle cx="1900" cy="756" r="8" class="c0"/>
<circle cx="1844" cy="816" r="8" class="c0"/>
<circle cx="1530" cy="798" r="8" class="c0"/>
<circle cx="1276" cy="674" r="8" class="c0"/>
<circle cx="1812" cy="576" r="8" class="c0"/>
<circle cx="1376" cy="758" r="8" class="c0"/>
<circle cx="930" cy="668" r="8" class="c0"/>
<circle cx="970" cy="626" r="8" class="c0"/>
<circle cx="1634" cy="728" r="8" class="c0"/>
<circle cx="848" cy="788" r="8" class="c0"/>
<circle cx="968" cy="984" r="8" class="c0"/>
<circle cx="1030" cy="912" r="8" class="c0"/>
<circle cx="1426" cy="648" r="8" class="c0"/>
<circle cx="1210" cy="630" r="8" class="c0"/>
<circle cx="1844" cy="740" r="8" class="c0"/>
<circle cx="1482" cy="832" r="8" class="c0"/>
<circle cx="1152" cy="620" r="8" class="c0"/>
<circle cx="1720" cy="602" r="8" class="c0"/>
<circle cx="1776" cy="704" r="8" class="c0"/>
<circle cx="1514" cy="864" r="8" class="c0"/>
<circle cx="1822" cy="776" r="8" class="c0"/>
<circle cx="1428" cy="578" r="8" class="c0"/>
<circle cx="982" cy="948" r="8" class="c0"/>
<circle cx="1898" cy="674" r="8" class="c0"/>
<circle cx="926" cy="604" r="8" class="c0"/>
<circle cx="1110" cy="562" r="8" class="c0"/>
<circle cx="894" cy="628" r="8" class="c0"/>
<circle cx="1452" cy="836" r="8" class="c0"/>
<circle cx="1096" cy="628" r="8" class="c0"/>
<circle cx="1384" cy="624" r="8" class="c0"/>
<circle cx="1392" cy="778" r="8" class="c0"/>
<circle cx="1668" cy="604" r="8" class="c0"/>
<circle cx="1864" cy="544" r="8" class="c0"/>
<circle cx="880" cy="662" r="8" class="c0"/>
<circle cx="1792" cy="642" r="8" class="c0"/>
<circle cx="1370" cy="688" r="8" class="c0"/>
<circle cx="1422" cy="558" r="8" class="c0"/>
<circle cx="1698" cy="758" r="8" class="c0"/>
<circle cx="950" cy="948" r="8" class="c0"/>
<circle cx="948" cy="626" r="8" class="c0"/>
<circle cx="800" cy="696" r="8" class="c0"/>
<circle cx="898" cy="570" r="8" class="c0"/>
<circle cx="1264" cy="564" r="8" class="c0"/>
<circle cx="800" cy="660" r="8" class="c0"/>
<circle cx="1112" cy="506" r="8" class="c0"/>
<circle cx="1100" cy="452" r="8" class="c0"/>
<circle cx="1662" cy="626" r="8" class="c0"/>
<circle cx="1542" cy="698" r="8" class="c0"/>
<circle cx="1502" cy="694" r="8" class="c0"/>
<circle cx="1332" cy="690" r="8" class="c0"/>
<circle cx="1104" cy="482" r="8" class="c0"/>
<circle cx="924" cy="516" r="8" class="c0"/>
<circle cx="1646" cy="740" r="8" class="c0"/>
<circle cx="1212" cy="600" r="8" class="c0"/>
<circle cx="884" cy="582" r="8" class="c0"/>
<circle cx="1744" cy="656" r="8" class="c0"/>
<circle cx="1696" cy="650" r="8" class="c0"/>
<circle cx="1518" cy="644" r="8" class="c0"/>
<circle cx="1752" cy="640" r="8" class="c0"/>
<circle cx="1548" cy="616" r="8" class="c0"/>
<circle cx="1872" cy="678" r="8" class="c0"/>
<circle cx="1190" cy="514" r="8" class="c0"/>
<circle cx="984" cy="752" r="8" class="c0"/>
<circle cx="1556" cy="744" r="8" class="c0"/>
<circle cx="822" cy="576" r="6" class="c0"/>
<circle cx="1092" cy="1042" r="6" class="c0"/>
<circle cx="852" cy="630" r="6" class="c0"/>
<circle cx="1372" cy="588" r="6" class="c0"/>
<circle cx="1218" cy="670" r="6" class="c0"/>
<circle cx="1074" cy="512" r="6" class="c0"/>
<circle cx="1720" cy="728" r="6" class="c0"/>
<circle cx="1278" cy="530" r="6" class="c0"/>
<circle cx="888" cy="714" r="6" class="c0"/>
<circle cx="764" cy="750" r="6" class="c0"/>
<circle cx="1450" cy="678" r="6" class="c0"/>
<circle cx="920" cy="738" r="6" class="c0"/>
<circle cx="1572" cy="676" r="6" class="c0"/>
<circle cx="1520" cy="622" r="6" class="c0"/>
<circle cx="1402" cy="724" r="6" class="c0"/>
<circle cx="1010" cy="496" r="6" class="c0"/>
<circle cx="1910" cy="584" r="6" class="c0"/>
<circle cx="848" cy="718" r="6" class="c0"/>
<circle cx="952" cy="848" r="6" class="c0"/>
<circle cx="1866" cy="646" r="6" class="c0"/>
<circle cx="1594" cy="870" r="6" class="c0"/>
<circle cx="1776" cy="644" r="6" class="c0"/>
<circle cx="1410" cy="574" r="6" class="c0"/>
<circle cx="1846" cy="616" r="6" class="c0"/>
<circle cx="982" cy="484" r="6" class="c0"/>
<circle cx="1136" cy="608" r="6" class="c0"/>
<circle cx="1814" cy="826" r="6" class="c0"/>
<circle cx="974" cy="818" r="6" class="c0"/>
<circle cx="1156" cy="588" r="6" class="c0"/>
<circle cx="1378" cy="540" r="6" class="c0"/>
<circle cx="1030" cy="848" r="6" class="c0"/>
<circle cx="1820" cy="532" r="6" class="c0"/>
<circle cx="976" cy="1054" r="6" class="c0"/>
<circle cx="1600" cy="774" r="6" class="c0"/>
<circle cx="1570" cy="828" r="6" class="c0"/>
<circle cx="1372" cy="736" r="6" class="c0"/>
<circle cx="828" cy="708" r="6" class="c0"/>
<circle cx="1292" cy="656" r="6" class="c0"/>
<circle cx="1026" cy="822" r="6" class="c0"/>
<circle cx="1150" cy="572" r="6" class="c0"/>
<circle cx="868" cy="546" r="6" class="c0"/>
<circle cx="1012" cy="912" r="6" class="c0"/>
<circle cx="1520" cy="744" r="6" class="c0"/>
<circle cx="1046" cy="898" r="6" class="c0"/>
<circle cx="1804" cy="766" r="6" class="c0"/>
<circle cx="1660" cy="862" r="6" class="c0"/>
<circle cx="1906" cy="540" r="6" class="c0"/>
<circle cx="766" cy="814" r="6" class="c0"/>
<circle cx="1316" cy="656" r="6" class="c0"/>
<circle cx="1546" cy="792" r="6" class="c0"/>
<circle cx="1240" cy="670" r="6" class="c0"/>
<circle cx="1864" cy="812" r="6" class="c0"/>
<circle cx="1738" cy="624" r="6" class="c0"/>
<circle cx="788" cy="814" r="6" class="c0"/>
<circle cx="1026" cy="612" r="6" class="c0"/>
<circle cx="1172" cy="634" r="6" class="c0"/>
<circle cx="754" cy="758" r="6" class="c0"/>
<circle cx="1734" cy="592" r="6" class="c0"/>
<circle cx="1614" cy="870" r="6" class="c0"/>
<circle cx="1050" cy="724" r="6" class="c0"/>
<circle cx="952" cy="734" r="6" class="c0"/>
<circle cx="1032" cy="1102" r="6" class="c0"/>
<circle cx="1224" cy="536" r="6" class="c0"/>
<circle cx="1034" cy="1060" r="6" class="c0"/>
<circle cx="974" cy="1108" r="6" class="c0"/>
<circle cx="1794" cy="570" r="6" class="c0"/>
<circle cx="1622" cy="796" r="6" class="c0"/>
<circle cx="1674" cy="828" r="6" class="c0"/>
<circle cx="770" cy="736" r="6" class="c0"/>
<circle cx="1450" cy="780" r="6" class="c0"/>
<circle cx="976" cy="734" r="6" class="c0"/>
<circle cx="1268" cy="610" r="6" class="c0"/>
<circle cx="1476" cy="682" r="6" class="c0"/>
<circle cx="1052" cy="1076" r="6" class="c0"/>
<circle cx="1064" cy="596" r="6" class="c0"/>
<circle cx="1680" cy="740" r="6" class="c0"/>
<circle cx="1806" cy="720" r="6" class="c0"/>
<circle cx="966" cy="850" r="6" class="c0"/>
<circle cx="1744" cy="820" r="6" class="c0"/>
<circle cx="992" cy="1058" r="6" class="c0"/>
<circle cx="1012" cy="586" r="6" class="c0"/>
<circle cx="1036" cy="520" r="6" class="c0"/>
<circle cx="872" cy="694" r="6" class="c0"/>
<circle cx="1186" cy="572" r="6" class="c0"/>
<circle cx="836" cy="778" r="6" class="c0"/>
<circle cx="862" cy="574" r="6" class="c0"/>
<circle cx="1610" cy="766" r="6" class="c0"/>
<circle cx="1300" cy="704" r="6" class="c0"/>
<circle cx="1626" cy="674" r="6" class="c0"/>
<circle cx="810" cy="614" r="6" class="c0"/>
<circle cx="1736" cy="752" r="6" class="c0"/>
<circle cx="950" cy="582" r="6" class="c0"/>
<circle cx="996" cy="960" r="6" class="c0"/>
<circle cx="808" cy="772" r="6" class="c0"/>
<circle cx="1418" cy="606" r="6" class="c0"/>
<circle cx="1516" cy="836" r="6" class="c0"/>
<circle cx="1024" cy="484" r="6" class="c0"/>
<circle cx="1766" cy="670" r="6" class="c0"/>
<circle cx="1580" cy="740" r="6" class="c0"/>
<circle cx="1308" cy="692" r="6" class="c0"/>
<circle cx="1018" cy="572" r="6" class="c0"/>
<circle cx="1694" cy="630" r="6" class="c0"/>
<circle cx="1854" cy="608" r="6" class="c0"/>
<circle cx="1582" cy="770" r="6" class="c0"/>
<circle cx="914" cy="704" r="6" class="c0"/>
<circle cx="998" cy="636" r="6" class="c0"/>
<circle cx="1032" cy="944" r="6" class="c0"/>
<circle cx="1380" cy="580" r="6" class="c0"/>
<circle cx="1226" cy="586" r="6" class="c0"/>
<circle cx="804" cy="738" r="6" class="c0"/>
<circle cx="1458" cy="626" r="6" class="c0"/>
<circle cx="1284" cy="514" r="6" class="c0"/>
<circle cx="1264" cy="592" r="6" class="c0"/>
<circle cx="1626" cy="770" r="6" class="c0"/>
<circle cx="766" cy="682" r="6" class="c0"/>
<circle cx="1348" cy="782" r="6" class="c0"/>
<circle cx="822" cy="822" r="6" class="c0"/>
<circle cx="882" cy="702" r="6" class="c0"/>
<circle cx="1070" cy="640" r="6" class="c0"/>
<circle cx="1460" cy="710" r="6" class="c0"/>
<circle cx="1338" cy="754" r="6" class="c0"/>
<circle cx="856" cy="804" r="6" class="c0"/>
<circle cx="1002" cy="792" r="6" class="c0"/>
<circle cx="912" cy="750" r="6" class="c0"/>
<circle cx="1892" cy="722" r="6" class="c0"/>
<circle cx="1760" cy="786" r="6" class="c0"/>
<circle cx="1210" cy="548" r="6" class="c0"/>
<circle cx="940" cy="514" r="6" class="c0"/>
<circle cx="1684" cy="820" r="6" class="c0"/>
<circle cx="1010" cy="716" r="6" class="c0"/>
<circle cx="1578" cy="820" r="6" class="c0"/>
<circle cx="1176" cy="586" r="6" class="c0"/>
<circle cx="1796" cy="706" r="6" class="c0"/>
<circle cx="828" cy="604" r="6" class="c0"/>
<circle cx="1704" cy="784" r="6" class="c0"/>
<circle cx="1472" cy="668" r="6" class="c0"/>
<circle cx="816" cy="800" r="6" class="c0"/>
<circle cx="1040" cy="880" r="6" class="c0"/>
<circle cx="1596" cy="656" r="6" class="c0"/>
<circle cx="1666" cy="836" r="6" class="c0"/>
<circle cx="1018" cy="650" r="6" class="c0"/>
<circle cx="792" cy="836" r="6" class="c0"/>
<circle cx="1694" cy="700" r="6" class="c0"/>
<circle cx="974" cy="1032" r="6" class="c0"/>
<circle cx="1016" cy="1038" r="6" class="c0"/>
<circle cx="1318" cy="524" r="6" class="c0"/>
<circle cx="1112" cy="582" r="6" class="c0"/>
<circle cx="1776" cy="678" r="6" class="c0"/>
<circle cx="1878" cy="726" r="6" class="c0"/>
<circle cx="1366" cy="704" r="6" class="c0"/>
<circle cx="1902" cy="618" r="6" class="c0"/>
<circle cx="990" cy="524" r="6" class="c0"/>
<circle cx="1020" cy="1070" r="6" class="c0"/>
<circle cx="1070" cy="684" r="6" class="c0"/>
<circle cx="1786" cy="834" r="6" class="c0"/>
<circle cx="1580" cy="794" r="6" class="c0"/>
<circle cx="818" cy="744" r="6" class="c0"/>
<circle cx="1774" cy="802" r="6" class="c0"/>
<circle cx="1834" cy="636" r="6" class="c0"/>
<circle cx="856" cy="684" r="6" class="c0"/>
<circle cx="1548" cy="858" r="6" class="c0"/>
<circle cx="1898" cy="508" r="6" class="c0"/>
<circle cx="1658" cy="672" r="6" class="c0"/>
<circle cx="1090" cy="1064" r="6" class="c0"/>
<circle cx="1382" cy="678" r="6" class="c0"/>
<circle cx="1042" cy="508" r="6" class="c0"/>
<circle cx="976" cy="840" r="6" class="c0"/>
<circle cx="1294" cy="586" r="6" class="c0"/>
<circle cx="968" cy="1002" r="6" class="c0"/>
<circle cx="942" cy="838" r="6" class="c0"/>
<circle cx="1844" cy="522" r="6" class="c0"/>
<circle cx="1664" cy="776" r="6" class="c0"/>
<circle cx="1016" cy="1002" r="6" class="c0"/>
<circle cx="1400" cy="682" r="6" class="c0"/>
<circle cx="796" cy="596" r="6" class="c0"/>
<circle cx="1502" cy="658" r="6" class="c0"/>
<circle cx="1550" cy="632" r="6" class="c0"/>
<circle cx="1020" cy="704" r="6" class="c0"/>
<circle cx="1644" cy="864" r="6" class="c0"/>
<circle cx="1078" cy="1008" r="6" class="c0"/>
<circle cx="1036" cy="622" r="6" class="c0"/>
<circle cx="1838" cy="778" r="6" class="c0"/>
<circle cx="1066" cy="560" r="6" class="c0"/>
<circle cx="1162" cy="536" r="6" class="c0"/>
<circle cx="1068" cy="1042" r="6" class="c0"/>
<circle cx="1348" cy="762" r="6" class="c0"/>
<circle cx="1484" cy="738" r="6" class="c0"/>
<circle cx="1682" cy="726" r="6" class="c0"/>
<circle cx="808" cy="682" r="6" class="c0"/>
<circle cx="1402" cy="768" r="6" class="c0"/>
<circle cx="772" cy="720" r="6" class="c0"/>
<circle cx="974" cy="792" r="6" class="c0"/>
<circle cx="1360" cy="538" r="6" class="c0"/>
<circle cx="1000" cy="1068" r="6" class="c0"/>
<circle cx="946" cy="802" r="6" class="c0"/>
<circle cx="994" cy="1080" r="6" class="c0"/>
<circle cx="988" cy="874" r="6" class="c0"/>
<circle cx="998" cy="1104" r="6" class="c0"/>
<circle cx="1304" cy="540" r="6" class="c0"/>
<circle cx="1426" cy="762" r="6" class="c0"/>
<circle cx="1808" cy="808" r="6" class="c0"/>
<circle cx="954" cy="548" r="6" class="c0"/>
<circle cx="1018" cy="764" r="6" class="c0"/>
<circle cx="1054" cy="986" r="6" class="c0"/>
<circle cx="1912" cy="718" r="6" class="c0"/>
<circle cx="1512" cy="734" r="6" class="c0"/>
<circle cx="1542" cy="642" r="6" class="c0"/>
<circle cx="1802" cy="652" r="6" class="c0"/>
<circle cx="1032" cy="744" r="6" class="c0"/>
<circle cx="1042" cy="1068" r="6" class="c0"/>
<circle cx="1062" cy="792" r="6" class="c0"/>
<circle cx="1044" cy="1014" r="6" class="c0"/>
<circle cx="882" cy="870" r="6" class="c0"/>
<circle cx="1036" cy="810" r="6" class="c0"/>
<circle cx="1184" cy="488" r="6" class="c0"/>
<circle cx="1048" cy="630" r="6" class="c0"/>
<circle cx="1640" cy="848" r="6" class="c0"/>
<circle cx="1446" cy="618" r="6" class="c0"/>
<circle cx="1732" cy="798" r="6" class="c0"/>
<circle cx="1728" cy="660" r="6" class="c0"/>
<circle cx="1678" cy="594" r="6" class="c0"/>
<circle cx="768" cy="834" r="6" class="c0"/>
<circle cx="1060" cy="850" r="6" class="c0"/>
<circle cx="1080" cy="632" r="6" class="c0"/>
<circle cx="1386" cy="548" r="6" class="c0"/>
<circle cx="1084" cy="450" r="6" class="c0"/>
<circle cx="1062" cy="450" r="6" class="c0"/>
<circle cx="836" cy="566" r="6" class="c0"/>
<circle cx="1442" cy="686" r="6" class="c0"/>
<circle cx="1056" cy="710" r="6" class="c0"/>
<circle cx="1126" cy="524" r="6" class="c0"/>
<circle cx="842" cy="652" r="6" class="c0"/>
<circle cx="1510" cy="588" r="6" class="c0"/>
<circle cx="1080" cy="482" r="6" class="c0"/>
<circle cx="862" cy="728" r="6" class="c0"/>
<circle cx="1352" cy="590" r="6" class="c0"/>
<circle cx="1060" cy="834" r="6" class="c0"/>
<circle cx="1306" cy="738" r="6" class="c0"/>
<circle cx="1460" cy="568" r="6" class="c0"/>
<circle cx="1068" cy="894" r="6" class="c0"/>
<circle cx="904" cy="524" r="6" class="c0"/>
<circle cx="1460" cy="788" r="6" class="c0"/>
<circle cx="1344" cy="608" r="6" class="c0"/>
<circle cx="1566" cy="732" r="6" class="c0"/>
<circle cx="1100" cy="1050" r="6" class="c0"/>
<circle cx="1042" cy="732" r="6" class="c0"/>
<circle cx="1552" cy="688" r="6" class="c0"/>
<circle cx="956" cy="882" r="6" class="c0"/>
<circle cx="1044" cy="456" r="6" class="c0"/>
<circle cx="1580" cy="684" r="6" class="c0"/>
<circle cx="942" cy="574" r="6" class="c0"/>
<circle cx="926" cy="808" r="6" class="c0"/>
<circle cx="1592" cy="730" r="6" class="c0"/>
<circle cx="1510" cy="758" r="6" class="c0"/>
<circle cx="1490" cy="602" r="6" class="c0"/>
<circle cx="1274" cy="506" r="6" class="c0"/>
<circle cx="1834" cy="730" r="6" class="c0"/>
<circle cx="1676" cy="802" r="6" class="c0"/>
<circle cx="846" cy="752" r="6" class="c0"/>
<circle cx="1688" cy="748" r="6" class="c0"/>
<circle cx="1552" cy="656" r="6" class="c0"/>
<circle cx="960" cy="616" r="6" class="c0"/>
<circle cx="1368" cy="804" r="6" class="c0"/>
<circle cx="1706" cy="610" r="6" class="c0"/>
<circle cx="1434" cy="670" r="6" class="c0"/>
<circle cx="986" cy="910" r="6" class="c0"/>
<circle cx="1854" cy="710" r="6" class="c0"/>
<circle cx="746" cy="746" r="6" class="c0"/>
</svg>
