<?xml version="1.0" encoding="utf-8"?>
<svg xmlns="http://www.w3.org/2000/svg"
     xmlns:xlink="http://www.w3.org/1999/xlink" width="1920" height="1440" >

            <defs>
            <style type="text/css"><![CDATA[
circle {stroke: none;}
.c0 {fill: #FFFFFF;}
]]></style>
            </defs>
<rect x="0" y="0" width="1920" height="1440" fill="black"/>
<circle cx="832" cy="696" r="14" class="c0"/>
<circle cx="1496" cy="710" r="14" class="c0"/>
<circle cx="1678" cy="646" r="14" class="c0"/>
<circle cx="1540" cy="814" r="12" class="c0"/>
<circle cx="1046" cy="1078" r="12" class="c0"/>
<circle cx="928" cy="918" r="12" class="c0"/>
<circle cx="1672" cy="812" r="12" class="c0"/>
<circle cx="1576" cy="672" r="12" class="c0"/>
<circle cx="998" cy="876" r="12" class="c0"/>
<circle cx="1506" cy="672" r="12" class="c0"/>
<circle cx="1008" cy="962" r="12" class="c0"/>
<circle cx="1340" cy="574" r="12" class="c0"/>
<circle cx="1868" cy="634" r="12" class="c0"/>
<circle cx="1618" cy="744" r="12" class="c0"/>
<circle cx="828" cy="600" r="12" class="c0"/>
<circle cx="796" cy="588" r="12" class="c0"/>
<circle cx="1636" cy="826" r="12" class="c0"/>
<circle cx="1206" cy="632" r="12" class="c0"/>
<circle cx="834" cy="644" r="12" class="c0"/>
<circle cx="1888" cy="798" r="12" class="c0"/>
<circle cx="1842" cy="780" r="12" class="c0"/>
<circle cx="880" cy="628" r="12" class="c0"/>
<circle cx="1828" cy="716" r="12" class="c0"/>
<circle cx="1498" cy="842" r="12" class="c0"/>
<circle cx="1782" cy="582" r="12" class="c0"/>
<circle cx="968" cy="1026" r="12" class="c0"/>
<circle cx="942" cy="734" r="12" class="c0"/>
<circle cx="1784" cy="630" r="12" class="c0"/>
<circle cx="1318" cy="692" r="12" class="c0"/>
<circle cx="938" cy="612" r="12" class="c0"/>
<circle cx="1452" cy="736" r="12" class="c0"/>
<circle cx="1764" cy="724" r="12" class="c0"/>
<circle cx="1362" cy="728" r="12" class="c0"/>
<circle cx="1692" cy="682" r="12" class="c0"/>
<circle cx="1624" cy="770" r="12" class="c0"/>
<circle cx="1384" cy="570" r="12" class="c0"/>
<circle cx="1370" cy="542" r="12" class="c0"/>
<circle cx="1410" cy="670" r="12" class="c0"/>
<circle cx="1568" cy="624" r="12" class="c0"/>
<circle cx="732" cy="662" r="12" class="c0"/>
<circle cx="1742" cy="710" r="12" class="c0"/>
<circle cx="950" cy="558" r="12" class="c0"/>
<circle cx="1624" cy="648" r="12" class="c0"/>
<circle cx="1550" cy="658" r="12" class="c0"/>
<circle cx="1282" cy="638" r="12" class="c0"/>
<circle cx="1704" cy="622" r="12" class="c0"/>
<circle cx="1178" cy="562" r="12" class="c0"/>
<circle cx="1410" cy="782" r="12" class="c0"/>
<circle cx="1124" cy="458" r="12" class="c0"/>
<circle cx="918" cy="556" r="12" class="c0"/>
<circle cx="852" cy="536" r="12" class="c0"/>
<circle cx="960" cy="484" r="12" class="c0"/>
<circle cx="910" cy="812" r="12" class="c0"/>
<circle cx="1900" cy="730" r="12" class="c0"/>
<circle cx="982" cy="568" r="12" class="c0"/>
<circle cx="1256" cy="544" r="12" class="c0"/>
<circle cx="1186" cy="476" r="12" class="c0"/>
<circle cx="1434" cy="642" r="12" class="c0"/>
<circle cx="1400" cy="724" r="12" class="c0"/>
<circle cx="976" cy="974" r="12" class="c0"/>
<circle cx="1382" cy="768" r="10" class="c0"/>
<circle cx="886" cy="558" r="10" class="c0"/>
<circle cx="1834" cy="674" r="10" class="c0"/>
<circle cx="856" cy="636" r="10" class="c0"/>
<circle cx="1902" cy="648" r="10" class="c0"/>
<circle cx="1666" cy="694" r="10" class="c0"/>
<circle cx="1442" cy="822" r="10" class="c0"/>
<circle cx="1300" cy="610" r="10" class="c0"/>
<circle cx="1076" cy="454" r="10" class="c0"/>
<circle cx="1070" cy="488" r="10" class="c0"/>
<circle cx="1528" cy="620" r="10" class="c0"/>
<circle cx="1600" cy="802" r="10" class="c0"/>
<circle cx="800" cy="660" r="10" class="c0"/>
<circle cx="1768" cy="564" r="10" class="c0"/>
<circle cx="1034" cy="814" r="10" class="c0"/>
<circle cx="1704" cy="752" r="10" class="c0"/>
<circle cx="1866" cy="786" r="10" class="c0"/>
<circle cx="1896" cy="520" r="10" class="c0"/>
<circle cx="1446" cy="586" r="10" class="c0"/>
<circle cx="1842" cy="594" r="10" class="c0"/>
<circle cx="754" cy="698" r="10" class="c0"/>
<circle cx="1146" cy="520" r="10" class="c0"/>
<circle cx="1846" cy="544" r="10" class="c0"/>
<circle cx="1266" cy="592" r="10" class="c0"/>
<circle cx="1886" cy="554" r="10" class="c0"/>
<circle cx="1786" cy="680" r="10" class="c0"/>
<circle cx="1588" cy="834" r="10" class="c0"/>
<circle cx="1660" cy="832" r="10" class="c0"/>
<circle cx="1384" cy="702" r="10" class="c0"/>
<circle cx="1850" cy="708" r="10" class="c0"/>
<circle cx="1458" cy="666" r="10" class="c0"/>
<circle cx="1026" cy="1036" r="10" class="c0"/>
<circle cx="1900" cy="612" r="10" class="c0"/>
<circle cx="908" cy="838" r="10" class="c0"/>
<circle cx="1184" cy="506" r="10" class="c0"/>
<circle cx="1006" cy="1080" r="10" class="c0"/>
<circle cx="1380" cy="594" r="10" class="c0"/>
<circle cx="1436" cy="674" r="10" class="c0"/>
<circle cx="960" cy="824" r="10" class="c0"/>
<circle cx="1662" cy="748" r="10" class="c0"/>
<circle cx="764" cy="614" r="10" class="c0"/>
<circle cx="1114" cy="572" r="10" class="c0"/>
<circle cx="1188" cy="584" r="10" class="c0"/>
<circle cx="950" cy="1056" r="10" class="c0"/>
<circle cx="816" cy="818" r="10" class="c0"/>
<circle cx="1094" cy="514" r="10" class="c0"/>
<circle cx="976" cy="926" r="10" class="c0"/>
<circle cx="1002" cy="512" r="10" class="c0"/>
<circle cx="1052" cy="658" r="10" class="c0"/>
<circle cx="1792" cy="796" r="10" class="c0"/>
<circle cx="1524" cy="726" r="10" class="c0"/>
<circle cx="786" cy="734" r="10" class="c0"/>
<circle cx="1004" cy="598" r="10" class="c0"/>
<circle cx="802" cy="700" r="10" class="c0"/>
<circle cx="1652" cy="616" r="10" class="c0"/>
<circle cx="1340" cy="534" r="10" class="c0"/>
<circle cx="1650" cy="774" r="10" class="c0"/>
<circle cx="1320" cy="642" r="10" class="c0"/>
<circle cx="1604" cy="704" r="10" class="c0"/>
<circle cx="1228" cy="568" r="10" class="c0"/>
<circle cx="1316" cy="576" r="10" class="c0"/>
<circle cx="1442" cy="698" r="10" class="c0"/>
<circle cx="1712" cy="664" r="10" class="c0"/>
<circle cx="1862" cy="658" r="10" class="c0"/>
<circle cx="1580" cy="754" r="10" class="c0"/>
<circle cx="1424" cy="604" r="10" class="c0"/>
<circle cx="1278" cy="668" r="10" class="c0"/>
<circle cx="810" cy="790" r="10" class="c0"/>
<circle cx="1690" cy="716" r="10" class="c0"/>
<circle cx="1018" cy="802" r="10" class="c0"/>
<circle cx="982" cy="538" r="10" class="c0"/>
<circle cx="1022" cy="524" r="10" class="c0"/>
<circle cx="1688" cy="596" r="10" class="c0"/>
<circle cx="1734" cy="780" r="10" class="c0"/>
<circle cx="1004" cy="1008" r="10" class="c0"/>
<circle cx="756" cy="644" r="10" class="c0"/>
<circle cx="1012" cy="722" r="10" class="c0"/>
<circle cx="1566" cy="824" r="10" class="c0"/>
<circle cx="1088" cy="612" r="10" class="c0"/>
<circle cx="1488" cy="750" r="10" class="c0"/>
<circle cx="802" cy="630" r="10" class="c0"/>
<circle cx="1876" cy="702" r="10" class="c0"/>
<circle cx="998" cy="484" r="10" class="c0"/>
<circle cx="944" cy="936" r="10" class="c0"/>
<circle cx="1856" cy="754" r="10" class="c0"/>
<circle cx="1900" cy="678" r="10" class="c0"/>
<circle cx="1040" cy="608" r="10" class="c0"/>
<circle cx="1804" cy="810" r="10" class="c0"/>
<circle cx="1606" cy="858" r="10" class="c0"/>
<circle cx="1808" cy="750" r="10" class="c0"/>
<circle cx="920" cy="630" r="10" class="c0"/>
<circle cx="1516" cy="778" r="10" class="c0"/>
<circle cx="878" cy="592" r="10" class="c0"/>
<circle cx="1718" cy="694" r="10" class="c0"/>
<circle cx="1550" cy="746" r="10" class="c0"/>
<circle cx="1388" cy="660" r="10" class="c0"/>
<circle cx="824" cy="670" r="10" class="c0"/>
<circle cx="982" cy="860" r="10" class="c0"/>
<circle cx="1150" cy="460" r="10" class="c0"/>
<circle cx="1498" cy="578" r="10" class="c0"/>
<circle cx="964" cy="1068" r="10" class="c0"/>
<circle cx="936" cy="868" r="10" class="c0"/>
<circle cx="1540" cy="856" r="10" class="c0"/>
<circle cx="1624" cy="696" r="10" class="c0"/>
<circle cx="1196" cy="526" r="10" class="c0"/>
<circle cx="1868" cy="724" r="10" class="c0"/>
<circle cx="1100" cy="556" r="10" class="c0"/>
<circle cx="1260" cy="520" r="10" class="c0"/>
<circle cx="1370" cy="638" r="10" class="c0"/>
<circle cx="1140" cy="548" r="10" class="c0"/>
<circle cx="972" cy="838" r="10" class="c0"/>
<circle cx="892" cy="712" r="10" class="c0"/>
<circle cx="1764" cy="784" r="10" class="c0"/>
<circle cx="734" cy="736" r="10" class="c0"/>
<circle cx="1228" cy="670" r="10" class="c0"/>
<circle cx="1068" cy="554" r="10" class="c0"/>
<circle cx="1362" cy="694" r="10" class="c0"/>
<circle cx="950" cy="898" r="10" class="c0"/>
<circle cx="958" cy="536" r="10" class="c0"/>
<circle cx="1740" cy="686" r="10" class="c0"/>
<circle cx="1680" cy="786" r="10" class="c0"/>
<circle cx="1006" cy="912" r="10" class="c0"/>
<circle cx="1728" cy="730" r="10" class="c0"/>
<circle cx="1068" cy="526" r="10" class="c0"/>
<circle cx="860" cy="606" r="10" class="c0"/>
<circle cx="1324" cy="602" r="10" class="c0"/>
<circle cx="1008" cy="1058" r="10" class="c0"/>
<circle cx="1480" cy="796" r="10" class="c0"/>
<circle cx="798" cy="722" r="10" class="c0"/>
<circle cx="1884" cy="758" r="10" class="c0"/>
<circle cx="1028" cy="470" r="10" class="c0"/>
<circle cx="1876" cy="576" r="10" class="c0"/>
<circle cx="1746" cy="590" r="10" class="c0"/>
<circle cx="1036" cy="546" r="10" class="c0"/>
<circle cx="1640" cy="662" r="10" class="c0"/>
<circle cx="1012" cy="842" r="10" class="c0"/>
<circle cx="1842" cy="812" r="10" class="c0"/>
<circle cx="1574" cy="858" r="10" class="c0"/>
<circle cx="1522" cy="658" r="10" class="c0"/>
<circle cx="1362" cy="754" r="10" class="c0"/>
<circle cx="1554" cy="840" r="10" class="c0"/>
<circle cx="806" cy="758" r="10" class="c0"/>
<circle cx="934" cy="1036" r="10" class="c0"/>
<circle cx="1044" cy="1046" r="10" class="c0"/>
<circle cx="944" cy="984" r="10" class="c0"/>
<circle cx="846" cy="562" r="10" class="c0"/>
<circle cx="1774" cy="704" r="10" class="c0"/>
<circle cx="1434" cy="566" r="10" class="c0"/>
<circle cx="1898" cy="578" r="10" class="c0"/>
<circle cx="1118" cy="520" r="10" class="c0"/>
<circle cx="1562" cy="766" r="10" class="c0"/>
<circle cx="1392" cy="682" r="10" class="c0"/>
<circle cx="900" cy="512" r="10" class="c0"/>
<circle cx="744" cy="756" r="10" class="c0"/>
<circle cx="1726" cy="830" r="10" class="c0"/>
<circle cx="1392" cy="748" r="10" class="c0"/>
<circle cx="1518" cy="690" r="10" class="c0"/>
<circle cx="698" cy="726" r="10" class="c0"/>
<circle cx="1218" cy="504" r="10" class="c0"/>
<circle cx="1196" cy="608" r="10" class="c0"/>
<circle cx="1588" cy="784" r="10" class="c0"/>
<circle cx="1840" cy="616" r="10" class="c0"/>
<circle cx="1474" cy="574" r="10" class="c0"/>
<circle cx="1150" cy="576" r="10" class="c0"/>
<circle cx="748" cy="676" r="10" class="c0"/>
<circle cx="1738" cy="626" r="10" class="c0"/>
<circle cx="1276" cy="534" r="10" class="c0"/>
<circle cx="1054" cy="512" r="10" class="c0"/>
<circle cx="1122" cy="486" r="10" class="c0"/>
<circle cx="772" cy="666" r="10" class="c0"/>
<circle cx="1290" cy="566" r="10" class="c0"/>
<circle cx="780" cy="638" r="10" class="c0"/>
<circle cx="1130" cy="596" r="10" class="c0"/>
<circle cx="1398" cy="626" r="10" class="c0"/>
<circle cx="1470" cy="836" r="8" class="c0"/>
<circle cx="1764" cy="678" r="8" class="c0"/>
<circle cx="1904" cy="704" r="8" class="c0"/>
<circle cx="898" cy="692" r="8" class="c0"/>
<circle cx="1574" cy="726" r="8" class="c0"/>
<circle cx="1332" cy="758" r="8" class="c0"/>
<circle cx="1264" cy="622" r="8" class="c0"/>
<circle cx="1702" cy="796" r="8" class="c0"/>
<circle cx="1782" cy="660" r="8" class="c0"/>
<circle cx="750" cy="802" r="8" class="c0"/>
<circle cx="976" cy="810" r="8" class="c0"/>
<circle cx="966" cy="750" r="8" class="c0"/>
<circle cx="852" cy="586" r="8" class="c0"/>
<circle cx="1440" cy="802" r="8" class="c0"/>
<circle cx="1178" cy="620" r="8" class="c0"/>
<circle cx="884" cy="530" r="8" class="c0"/>
<circle cx="1542" cy="596" r="8" class="c0"/>
<circle cx="966" cy="956" r="8" class="c0"/>
<circle cx="916" cy="702" r="8" class="c0"/>
<circle cx="1040" cy="574" r="8" class="c0"/>
<circle cx="1006" cy="624" r="8" class="c0"/>
<circle cx="1020" cy="982" r="8" class="c0"/>
<circle cx="1816" cy="686" r="8" class="c0"/>
<circle cx="1408" cy="584" r="8" class="c0"/>
<circle cx="1422" cy="688" r="8" class="c0"/>
<circle cx="1290" cy="706" r="8" class="c0"/>
<circle cx="734" cy="704" r="8" class="c0"/>
<circle cx="904" cy="590" r="8" class="c0"/>
<circle cx="1558" cy="804" r="8" class="c0"/>
<circle cx="998" cy="938" r="8" class="c0"/>
<circle cx="1334" cy="712" r="8" class="c0"/>
<circle cx="1772" cy="832" r="8" class="c0"/>
<circle cx="968" cy="784" r="8" class="c0"/>
<circle cx="1676" cy="764" r="8" class="c0"/>
<circle cx="1024" cy="868" r="8" class="c0"/>
<circle cx="836" cy="838" r="8" class="c0"/>
<circle cx="1846" cy="686" r="8" class="c0"/>
<circle cx="1090" cy="540" r="8" class="c0"/>
<circle cx="1608" cy="660" r="8" class="c0"/>
<circle cx="1722" cy="794" r="8" class="c0"/>
<circle cx="1726" cy="640" r="8" class="c0"/>
<circle cx="936" cy="802" r="8" class="c0"/>
<circle cx="784" cy="604" r="8" class="c0"/>
<circle cx="774" cy="718" r="8" class="c0"/>
<circle cx="1472" cy="616" r="8" class="c0"/>
<circle cx="714" cy="688" r="8" class="c0"/>
<circle cx="1016" cy="676" r="8" class="c0"/>
<circle cx="1654" cy="710" r="8" class="c0"/>
<circle cx="1862" cy="522" r="8" class="c0"/>
<circle cx="810" cy="574" r="8" class="c0"/>
<circle cx="1002" cy="816" r="8" class="c0"/>
<circle cx="1234" cy="516" r="8" class="c0"/>
<circle cx="1360" cy="562" r="8" class="c0"/>
<circle cx="914" cy="904" r="8" class="c0"/>
<circle cx="950" cy="776" r="8" class="c0"/>
<circle cx="1286" cy="596" r="8" class="c0"/>
<circle cx="1422" cy="818" r="8" class="c0"/>
<circle cx="982" cy="1040" r="8" class="c0"/>
<circle cx="1436" cy="718" r="8" class="c0"/>
<circle cx="1788" cy="730" r="8" class="c0"/>
<circle cx="1816" cy="650" r="8" class="c0"/>
<circle cx="1356" cy="674" r="8" class="c0"/>
<circle cx="1030" cy="886" r="8" class="c0"/>
<circle cx="1778" cy="808" r="8" class="c0"/>
<circle cx="1036" cy="1010" r="8" class="c0"/>
<circle cx="1800" cy="540" r="8" class="c0"/>
<circle cx="1220" cy="480" r="8" class="c0"/>
<circle cx="1460" cy="776" r="8" class="c0"/>
<circle cx="1480" cy="652" r="8" class="c0"/>
<circle cx="1522" cy="754" r="8" class="c0"/>
<circle cx="1758" cy="804" r="8" class="c0"/>
<circle cx="1088" cy="474" r="8" class="c0"/>
<circle cx="1216" cy="594" r="8" class="c0"/>
<circle cx="994" cy="1092" r="8" class="c0"/>
<circle cx="924" cy="956" r="8" class="c0"/>
<circle cx="1586" cy="712" r="8" class="c0"/>
<circle cx="1766" cy="594" r="8" class="c0"/>
<circle cx="1290" cy="516" r="8" class="c0"/>
<circle cx="762" cy="594" r="8" class="c0"/>
<circle cx="1886" cy="660" r="8" class="c0"/>
<circle cx="1440" cy="756" r="8" class="c0"/>
<circle cx="1746" cy="794" r="8" class="c0"/>
<circle cx="1802" cy="608" r="8" class="c0"/>
<circle cx="1708" cy="846" r="8" class="c0"/>
<circle cx="992" cy="720" r="8" class="c0"/>
<circle cx="1262" cy="568" r="8" class="c0"/>
<circle cx="928" cy="518" r="8" class="c0"/>
<circle cx="1514" cy="636" r="8" class="c0"/>
<circle cx="1748" cy="738" r="8" class="c0"/>
<circle cx="1744" cy="566" r="8" class="c0"/>
<circle cx="832" cy="576" r="8" class="c0"/>
<circle cx="1064" cy="600" r="8" class="c0"/>
<circle cx="1444" cy="622" r="8" class="c0"/>
<circle cx="1902" cy="768" r="8" class="c0"/>
<circle cx="1712" cy="600" r="8" class="c0"/>
<circle cx="1908" cy="786" r="8" class="c0"/>
<circle cx="1780" cy="552" r="8" class="c0"/>
<circle cx="942" cy="962" r="8" class="c0"/>
<circle cx="1302" cy="554" r="8" class="c0"/>
<circle cx="778" cy="692" r="8" class="c0"/>
<circle cx="996" cy="1026" r="8" class="c0"/>
<circle cx="1412" cy="640" r="8" class="c0"/>
<circle cx="1504" cy="648" r="8" class="c0"/>
<circle cx="918" cy="878" r="8" class="c0"/>
<circle cx="1164" cy="606" r="8" class="c0"/>
<circle cx="1144" cy="484" r="8" class="c0"/>
<circle cx="986" cy="948" r="8" class="c0"/>
<circle cx="1136" cy="500" r="8" class="c0"/>
<circle cx="1854" cy="576" r="8" class="c0"/>
<circle cx="922" cy="1076" r="8" class="c0"/>
<circle cx="1820" cy="772" r="8" class="c0"/>
<circle cx="1016" cy="646" r="8" class="c0"/>
<circle cx="1074" cy="640" r="8" class="c0"/>
<circle cx="1350" cy="640" r="8" class="c0"/>
<circle cx="1332" cy="674" r="8" class="c0"/>
<circle cx="1542" cy="768" r="8" class="c0"/>
<circle cx="1086" cy="590" r="8" class="c0"/>
<circle cx="1364" cy="618" r="8" class="c0"/>
<circle cx="1468" cy="596" r="8" class="c0"/>
<circle cx="1842" cy="648" r="8" class="c0"/>
<circle cx="1400" cy="552" r="8" class="c0"/>
<circle cx="1594" cy="628" r="8" class="c0"/>
<circle cx="1516" cy="820" r="8" class="c0"/>
<circle cx="1004" cy="536" r="8" class="c0"/>
<circle cx="1036" cy="668" r="8" class="c0"/>
<circle cx="1304" cy="590" r="8" class="c0"/>
<circle cx="1356" cy="586" r="8" class="c0"/>
<circle cx="1246" cy="576" r="8" class="c0"/>
<circle cx="1750" cy="756" r="8" class="c0"/>
<circle cx="1220" cy="542" r="8" class="c0"/>
<circle cx="982" cy="608" r="8" class="c0"/>
<circle cx="1474" cy="764" r="8" class="c0"/>
<circle cx="884" cy="678" r="8" class="c0"/>
<circle cx="1056" cy="1060" r="8" class="c0"/>
<circle cx="1682" cy="738" r="8" class="c0"/>
<circle cx="1628" cy="806" r="8" class="c0"/>
<circle cx="1738" cy="660" r="8" class="c0"/>
<circle cx="1274" cy="502" r="8" class="c0"/>
<circle cx="1018" cy="576" r="8" class="c0"/>
<circle cx="1456" cy="640" r="8" class="c0"/>
<circle cx="980" cy="512" r="8" class="c0"/>
<circle cx="906" cy="616" r="8" class="c0"/>
<circle cx="1466" cy="696" r="8" class="c0"/>
<circle cx="1000" cy="782" r="8" class="c0"/>
<circle cx="912" cy="650" r="8" class="c0"/>
<circle cx="1732" cy="760" r="8" class="c0"/>
<circle cx="1764" cy="654" r="8" class="c0"/>
<circle cx="1316" cy="528" r="8" class="c0"/>
<circle cx="1170" cy="492" r="8" class="c0"/>
<circle cx="810" cy="554" r="8" class="c0"/>
<circle cx="1030" cy="586" r="8" class="c0"/>
<circle cx="1812" cy="628" r="8" class="c0"/>
<circle cx="792" cy="778" r="8" class="c0"/>
<circle cx="1166" cy="544" r="8" class="c0"/>
<circle cx="1218" cy="652" r="8" class="c0"/>
<circle cx="1478" cy="686" r="8" class="c0"/>
<circle cx="1602" cy="680" r="8" class="c0"/>
<circle cx="1054" cy="590" r="8" class="c0"/>
<circle cx="1230" cy="630" r="8" class="c0"/>
<circle cx="1824" cy="558" r="8" class="c0"/>
<circle cx="1530" cy="704" r="8" class="c0"/>
<circle cx="1250" cy="606" r="8" class="c0"/>
<circle cx="1558" cy="684" r="8" class="c0"/>
<circle cx="916" cy="668" r="8" class="c0"/>
<circle cx="1410" cy="564" r="8" class="c0"/>
<circle cx="1056" cy="540" r="8" class="c0"/>
<circle cx="1776" cy="758" r="8" class="c0"/>
<circle cx="830" cy="802" r="8" class="c0"/>
<circle cx="1512" cy="740" r="8" class="c0"/>
<circle cx="1264" cy="652" r="8" class="c0"/>
<circle cx="1830" cy="578" r="8" class="c0"/>
<circle cx="946" cy="592" r="8" class="c0"/>
<circle cx="1744" cy="840" r="8" class="c0"/>
<circle cx="1502" cy="612" r="8" class="c0"/>
<circle cx="938" cy="838" r="8" class="c0"/>
<circle cx="1298" cy="676" r="8" class="c0"/>
<circle cx="1526" cy="582" r="8" class="c0"/>
<circle cx="850" cy="656" r="8" class="c0"/>
<circle cx="1598" cy="726" r="8" class="c0"/>
<circle cx="1426" cy="708" r="8" class="c0"/>
<circle cx="1054" cy="466" r="8" class="c0"/>
<circle cx="1626" cy="674" r="8" class="c0"/>
<circle cx="1486" cy="602" r="8" class="c0"/>
<circle cx="1324" cy="738" r="8" class="c0"/>
<circle cx="1072" cy="580" r="8" class="c0"/>
<circle cx="1632" cy="626" r="8" class="c0"/>
<circle cx="730" cy="632" r="8" class="c0"/>
<circle cx="1576" cy="700" r="8" class="c0"/>
<circle cx="1018" cy="924" r="8" class="c0"/>
<circle cx="766" cy="764" r="8" class="c0"/>
<circle cx="952" cy="854" r="8" class="c0"/>
<circle cx="1878" cy="614" r="8" class="c0"/>
<circle cx="1424" cy="736" r="8" class="c0"/>
<circle cx="1026" cy="1000" r="8" class="c0"/>
<circle cx="924" cy="854" r="8" class="c0"/>
<circle cx="1816" cy="596" r="8" class="c0"/>
<circle cx="1040" cy="482" r="8" class="c0"/>
<circle cx="1608" cy="824" r="8" class="c0"/>
<circle cx="1866" cy="560" r="8" class="c0"/>
<circle cx="868" cy="570" r="8" class="c0"/>
<circle cx="988" cy="896" r="8" class="c0"/>
<circle cx="966" cy="992" r="8" class="c0"/>
<circle cx="720" cy="724" r="8" class="c0"/>
<circle cx="752" cy="778" r="8" class="c0"/>
<circle cx="948" cy="1016" r="8" class="c0"/>
<circle cx="1372" cy="788" r="8" class="c0"/>
<circle cx="1348" cy="602" r="8" class="c0"/>
<circle cx="1236" cy="650" r="8" class="c0"/>
<circle cx="1668" cy="670" r="8" class="c0"/>
<circle cx="1614" cy="630" r="8" class="c0"/>
<circle cx="1030" cy="630" r="8" class="c0"/>
<circle cx="1904" cy="546" r="8" class="c0"/>
<circle cx="1014" cy="550" r="8" class="c0"/>
<circle cx="1568" cy="648" r="8" class="c0"/>
<circle cx="1706" cy="644" r="8" class="c0"/>
<circle cx="1392" cy="536" r="8" class="c0"/>
<circle cx="928" cy="892" r="8" class="c0"/>
<circle cx="1460" cy="556" r="8" class="c0"/>
<circle cx="970" cy="596" r="8" class="c0"/>
<circle cx="1024" cy="692" r="8" class="c0"/>
<circle cx="1394" cy="800" r="8" class="c0"/>
<circle cx="928" cy="714" r="8" class="c0"/>
<circle cx="1302" cy="652" r="8" class="c0"/>
<circle cx="1252" cy="676" r="8" class="c0"/>
<circle cx="890" cy="604" r="8" class="c0"/>
<circle cx="1798" cy="716" r="8" class="c0"/>
<circle cx="1502" cy="790" r="8" class="c0"/>
<circle cx="894" cy="540" r="8" class="c0"/>
<circle cx="996" cy="700" r="8" class="c0"/>
<circle cx="1484" cy="776" r="8" class="c0"/>
<circle cx="1462" cy="808" r="8" class="c0"/>
<circle cx="1910" cy="630" r="8" class="c0"/>
<circle cx="1332" cy="620" r="8" class="c0"/>
<circle cx="1466" cy="718" r="8" class="c0"/>
<circle cx="808" cy="738" r="8" class="c0"/>
<circle cx="950" cy="514" r="8" class="c0"/>
<circle cx="1420" cy="754" r="8" class="c0"/>
<circle cx="916" cy="734" r="8" class="c0"/>
<circle cx="1200" cy="550" r="8" class="c0"/>
<circle cx="1552" cy="726" r="8" class="c0"/>
<circle cx="1096" cy="492" r="8" class="c0"/>
<circle cx="998" cy="738" r="8" class="c0"/>
<circle cx="1522" cy="846" r="8" class="c0"/>
<circle cx="1716" cy="578" r="8" class="c0"/>
<circle cx="812" cy="614" r="8" class="c0"/>
<circle cx="954" cy="1086" r="8" class="c0"/>
<circle cx="1538" cy="680" r="8" class="c0"/>
<circle cx="700" cy="704" r="8" class="c0"/>
<circle cx="710" cy="670" r="8" class="c0"/>
<circle cx="1864" cy="592" r="8" class="c0"/>
<circle cx="1708" cy="818" r="8" class="c0"/>
<circle cx="1030" cy="496" r="8" class="c0"/>
<circle cx="1810" cy="704" r="8" class="c0"/>
<circle cx="1628" cy="726" r="8" class="c0"/>
<circle cx="918" cy="790" r="8" class="c0"/>
<circle cx="972" cy="1050" r="8" class="c0"/>
<circle cx="1246" cy="504" r="8" class="c0"/>
<circle cx="1786" cy="748" r="8" class="c0"/>
<circle cx="1830" cy="754" r="8" class="c0"/>
<circle cx="928" cy="590" r="8" class="c0"/>
<circle cx="1504" cy="808" r="8" class="c0"/>
<circle cx="1034" cy="784" r="8" class="c0"/>
<circle cx="1326" cy="546" r="8" class="c0"/>
<circle cx="1676" cy="610" r="8" class="c0"/>
<circle cx="1100" cy="450" r="8" class="c0"/>
<circle cx="1760" cy="614" r="8" class="c0"/>
<circle cx="960" cy="578" r="8" class="c0"/>
<circle cx="964" cy="870" r="8" class="c0"/>
<circle cx="1504" cy="766" r="8" class="c0"/>
<circle cx="756" cy="734" r="8" class="c0"/>
<circle cx="1578" cy="800" r="8" class="c0"/>
<circle cx="1644" cy="736" r="8" class="c0"/>
<circle cx="914" cy="938" r="8" class="c0"/>
<circle cx="1804" cy="568" r="8" class="c0"/>
<circle cx="1516" cy="602" r="8" class="c0"/>
<circle cx="890" cy="654" r="8" class="c0"/>
<circle cx="1340" cy="652" r="8" class="c0"/>
<circle cx="1826" cy="540" r="8" class="c0"/>
<circle cx="1742" cy="820" r="8" class="c0"/>
<circle cx="1598" cy="766" r="8" class="c0"/>
<circle cx="920" cy="498" r="8" class="c0"/>
<circle cx="1638" cy="754" r="8" class="c0"/>
<circle cx="918" cy="532" r="8" class="c0"/>
<circle cx="1272" cy="700" r="8" class="c0"/>
<circle cx="746" cy="724" r="8" class="c0"/>
<circle cx="1676" cy="846" r="8" class="c0"/>
<circle cx="1024" cy="942" r="8" class="c0"/>
<circle cx="962" cy="720" r="8" class="c0"/>
<circle cx="1108" cy="600" r="8" class="c0"/>
<circle cx="1650" cy="678" r="8" class="c0"/>
<circle cx="1844" cy="734" r="8" class="c0"/>
<circle cx="1876" cy="538" r="8" class="c0"/>
<circle cx="1168" cy="520" r="8" class="c0"/>
<circle cx="1302" cy="716" r="8" class="c0"/>
<circle cx="1230" cy="490" r="8" class="c0"/>
<circle cx="1586" cy="650" r="8" class="c0"/>
<circle cx="832" cy="550" r="8" class="c0"/>
<circle cx="1582" cy="610" r="8" class="c0"/>
<circle cx="1866" cy="812" r="8" class="c0"/>
<circle cx="1488" cy="824" r="8" class="c0"/>
<circle cx="1792" cy="824" r="8" class="c0"/>
<circle cx="1712" cy="714" r="8" class="c0"/>
<circle cx="986" cy="1062" r="8" class="c0"/>
<circle cx="1534" cy="790" r="8" class="c0"/>
<circle cx="872" cy="694" r="8" class="c0"/>
<circle cx="1794" cy="766" r="8" class="c0"/>
<circle cx="1274" cy="610" r="8" class="c0"/>
<circle cx="984" cy="994" r="8" class="c0"/>
<circle cx="826" cy="762" r="8" class="c0"/>
<circle cx="1808" cy="782" r="8" class="c0"/>
<circle cx="1096" cy="580" r="8" class="c0"/>
<circle cx="774" cy="584" r="8" class="c0"/>
<circle cx="1532" cy="834" r="8" class="c0"/>
<circle cx="1492" cy="622" r="8" class="c0"/>
<circle cx="874" cy="520" r="8" class="c0"/>
<circle cx="1844" cy="524" r="8" class="c0"/>
<circle cx="1592" cy="692" r="8" class="c0"/>
<circle cx="1534" cy="640" r="8" class="c0"/>
<circle cx="938" cy="538" r="8" class="c0"/>
<circle cx="1710" cy="774" r="8" class="c0"/>
<circle cx="928" cy="974" r="8" class="c0"/>
<circle cx="1780" cy="604" r="8" class="c0"/>
<circle cx="1822" cy="796" r="8" class="c0"/>
<circle cx="982" cy="710" r="8" class="c0"/>
<circle cx="996" cy="552" r="8" class="c0"/>
<circle cx="1668" cy="724" r="8" class="c0"/>
<circle cx="956" cy="918" r="8" class="c0"/>
<circle cx="1428" cy="772" r="8" class="c0"/>
<circle cx="1218" cy="616" r="8" class="c0"/>
<circle cx="1040" cy="452" r="8" class="c0"/>
<circle cx="1120" cy="540" r="8" class="c0"/>
<circle cx="746" cy="624" r="8" class="c0"/>
<circle cx="1202" cy="568" r="8" class="c0"/>
<circle cx="1020" cy="1094" r="8" class="c0"/>
<circle cx="1686" cy="836" r="8" class="c0"/>
<circle cx="916" cy="602" r="8" class="c0"/>
<circle cx="1796" cy="650" r="8" class="c0"/>
<circle cx="826" cy="726" r="8" class="c0"/>
<circle cx="1414" cy="542" r="8" class="c0"/>
<circle cx="1588" cy="736" r="8" class="c0"/>
<circle cx="960" cy="610" r="8" class="c0"/>
<circle cx="852" cy="848" r="8" class="c0"/>
<circle cx="870" cy="650" r="8" class="c0"/>
<circle cx="1872" cy="674" r="8" class="c0"/>
<circle cx="1732" cy="606" r="8" class="c0"/>
<circle cx="846" cy="676" r="8" class="c0"/>
<circle cx="984" cy="1080" r="8" class="c0"/>
<circle cx="1054" cy="634" r="8" class="c0"/>
<circle cx="930" cy="1058" r="8" class="c0"/>
<circle cx="1648" cy="860" r="8" class="c0"/>
<circle cx="1754" cy="668" r="8" class="c0"/>
<circle cx="1028" cy="1066" r="8" class="c0"/>
<circle cx="1628" cy="858" r="8" class="c0"/>
<circle cx="846" cy="618" r="8" class="c0"/>
<circle cx="1382" cy="616" r="8" class="c0"/>
<circle cx="968" cy="908" r="8" class="c0"/>
<circle cx="940" cy="820" r="8" class="c0"/>
<circle cx="1318" cy="664" r="8" class="c0"/>
<circle cx="864" cy="674" r="8" class="c0"/>
<circle cx="814" cy="712" r="8" class="c0"/>
<circle cx="732" cy="768" r="8" class="c0"/>
<circle cx="1758" cy="632" r="8" class="c0"/>
<circle cx="790" cy="678" r="8" class="c0"/>
<circle cx="1702" cy="704" r="8" class="c0"/>
<circle cx="1804" cy="668" r="8" class="c0"/>
<circle cx="970" cy="550" r="8" class="c0"/>
<circle cx="1058" cy="570" r="8" class="c0"/>
<circle cx="1032" cy="960" r="8" class="c0"/>
<circle cx="1026" cy="906" r="8" class="c0"/>
<circle cx="1886" cy="506" r="6" class="c0"/>
<circle cx="724" cy="750" r="6" class="c0"/>
<circle cx="940" cy="1094" r="6" class="c0"/>
<circle cx="706" cy="750" r="6" class="c0"/>
<circle cx="1454" cy="604" r="6" class="c0"/>
<circle cx="1358" cy="524" r="6" class="c0"/>
<circle cx="1360" cy="654" r="6" class="c0"/>
<circle cx="1230" cy="532" r="6" class="c0"/>
<circle cx="936" cy="490" r="6" class="c0"/>
<circle cx="980" cy="472" r="6" class="c0"/>
<circle cx="1474" cy="634" r="6" class="c0"/>
<circle cx="900" cy="664" r="6" class="c0"/>
<circle cx="1012" cy="702" r="6" class="c0"/>
<circle cx="1862" cy="610" r="6" class="c0"/>
<circle cx="1422" cy="628" r="6" class="c0"/>
<circle cx="1614" cy="790" r="6" class="c0"/>
<circle cx="1724" cy="848" r="6" class="c0"/>
<circle cx="958" cy="804" r="6" class="c0"/>
<circle cx="1108" cy="476" r="6" class="c0"/>
<circle cx="1076" cy="1064" r="6" class="c0"/>
<circle cx="904" cy="724" r="6" class="c0"/>
<circle cx="1012" cy="890" r="6" class="c0"/>
<circle cx="1450" cy="842" r="6" class="c0"/>
<circle cx="868" cy="552" r="6" class="c0"/>
<circle cx="1132" cy="574" r="6" class="c0"/>
<circle cx="934" cy="784" r="6" class="c0"/>
<circle cx="814" cy="646" r="6" class="c0"/>
<circle cx="840" cy="822" r="6" class="c0"/>
<circle cx="1156" cy="506" r="6" class="c0"/>
<circle cx="1166" cy="468" r="6" class="c0"/>
<circle cx="766" cy="744" r="6" class="c0"/>
<circle cx="1668" cy="860" r="6" class="c0"/>
<circle cx="980" cy="736" r="6" class="c0"/>
<circle cx="734" cy="784" r="6" class="c0"/>
<circle cx="1818" cy="732" r="6" class="c0"/>
<circle cx="1024" cy="710" r="6" class="c0"/>
<circle cx="1552" cy="782" r="6" class="c0"/>
<circle cx="1496" cy="734" r="6" class="c0"/>
<circle cx="1142" cy="608" r="6" class="c0"/>
<circle cx="1344" cy="744" r="6" class="c0"/>
<circle cx="1002" cy="984" r="6" class="c0"/>
<circle cx="1560" cy="868" r="6" class="c0"/>
<circle cx="1558" cy="604" r="6" class="c0"/>
<circle cx="892" cy="580" r="6" class="c0"/>
<circle cx="1040" cy="528" r="6" class="c0"/>
<circle cx="1344" cy="698" r="6" class="c0"/>
<circle cx="1650" cy="648" r="6" class="c0"/>
<circle cx="1546" cy="706" r="6" class="c0"/>
<circle cx="1172" cy="592" r="6" class="c0"/>
<circle cx="1314" cy="726" r="6" class="c0"/>
<circle cx="784" cy="570" r="6" class="c0"/>
<circle cx="1240" cy="596" r="6" class="c0"/>
<circle cx="1020" cy="1018" r="6" class="c0"/>
<circle cx="1356" cy="776" r="6" class="c0"/>
<circle cx="694" cy="744" r="6" class="c0"/>
<circle cx="1700" cy="734" r="6" class="c0"/>
<circle cx="982" cy="794" r="6" class="c0"/>
<circle cx="1326" cy="516" r="6" class="c0"/>
<circle cx="992" cy="586" r="6" class="c0"/>
<circle cx="1186" cy="640" r="6" class="c0"/>
<circle cx="1728" cy="672" r="6" class="c0"/>
<circle cx="1444" cy="548" r="6" class="c0"/>
<circle cx="1874" cy="744" r="6" class="c0"/>
<circle cx="1524" cy="804" r="6" class="c0"/>
<circle cx="1076" cy="506" r="6" class="c0"/>
<circle cx="1658" cy="794" r="6" class="c0"/>
<circle cx="736" cy="688" r="6" class="c0"/>
<circle cx="940" cy="576" r="6" class="c0"/>
<circle cx="1546" cy="628" r="6" class="c0"/>
<circle cx="946" cy="756" r="6" class="c0"/>
<circle cx="992" cy="804" r="6" class="c0"/>
<circle cx="1038" cy="990" r="6" class="c0"/>
<circle cx="874" cy="710" r="6" class="c0"/>
<circle cx="1082" cy="566" r="6" class="c0"/>
<circle cx="986" cy="826" r="6" class="c0"/>
<circle cx="1806" cy="586" r="6" class="c0"/>
<circle cx="932" cy="1086" r="6" class="c0"/>
<circle cx="942" cy="1076" r="6" class="c0"/>
<circle cx="1842" cy="562" r="6" class="c0"/>
<circle cx="1722" cy="750" r="6" class="c0"/>
<circle cx="1642" cy="698" r="6" class="c0"/>
<circle cx="1260" cy="690" r="6" class="c0"/>
<circle cx="1588" cy="868" r="6" class="c0"/>
<circle cx="1040" cy="686" r="6" class="c0"/>
<circle cx="898" cy="794" r="6" class="c0"/>
<circle cx="1646" cy="842" r="6" class="c0"/>
<circle cx="808" cy="678" r="6" class="c0"/>
<circle cx="1178" cy="534" r="6" class="c0"/>
<circle cx="902" cy="566" r="6" class="c0"/>
<circle cx="1200" cy="498" r="6" class="c0"/>
<circle cx="736" cy="614" r="6" class="c0"/>
<circle cx="1908" cy="562" r="6" class="c0"/>
<circle cx="1724" cy="812" r="6" class="c0"/>
<circle cx="1058" cy="616" r="6" class="c0"/>
<circle cx="1760" cy="694" r="6" class="c0"/>
<circle cx="1638" cy="712" r="6" class="c0"/>
<circle cx="1694" cy="776" r="6" class="c0"/>
<circle cx="1734" cy="578" r="6" class="c0"/>
<circle cx="1828" cy="632" r="6" class="c0"/>
<circle cx="1564" cy="736" r="6" class="c0"/>
<circle cx="1232" cy="604" r="6" class="c0"/>
<circle cx="904" cy="858" r="6" class="c0"/>
<circle cx="1566" cy="710" r="6" class="c0"/>
<circle cx="1018" cy="822" r="6" class="c0"/>
<circle cx="1618" cy="842" r="6" class="c0"/>
<circle cx="1016" cy="784" r="6" class="c0"/>
<circle cx="1238" cy="554" r="6" class="c0"/>
<circle cx="974" cy="1092" r="6" class="c0"/>
<circle cx="1306" cy="628" r="6" class="c0"/>
<circle cx="1554" cy="636" r="6" class="c0"/>
<circle cx="958" cy="1006" r="6" class="c0"/>
<circle cx="1490" cy="662" r="6" class="c0"/>
<circle cx="1006" cy="666" r="6" class="c0"/>
<circle cx="718" cy="648" r="6" class="c0"/>
<circle cx="1008" cy="466" r="6" class="c0"/>
<circle cx="1382" cy="734" r="6" class="c0"/>
<circle cx="822" cy="778" r="6" class="c0"/>
<circle cx="1066" cy="1048" r="6" class="c0"/>
<circle cx="1152" cy="596" r="6" class="c0"/>
<circle cx="1826" cy="696" r="6" class="c0"/>
<circle cx="1402" cy="764" r="6" class="c0"/>
<circle cx="1692" cy="852" r="6" class="c0"/>
<circle cx="1216" cy="522" r="6" class="c0"/>
<circle cx="1748" cy="642" r="6" class="c0"/>
<circle cx="1248" cy="660" r="6" class="c0"/>
<circle cx="1000" cy="854" r="6" class="c0"/>
<circle cx="916" cy="576" r="6" class="c0"/>
<circle cx="1910" cy="748" r="6" class="c0"/>
<circle cx="1514" cy="864" r="6" class="c0"/>
<circle cx="1350" cy="552" r="6" class="c0"/>
<circle cx="1454" cy="684" r="6" class="c0"/>
<circle cx="1646" cy="808" r="6" class="c0"/>
<circle cx="1824" cy="826" r="6" class="c0"/>
<circle cx="1904" cy="498" r="6" class="c0"/>
<circle cx="1276" cy="556" r="6" class="c0"/>
<circle cx="1058" cy="446" r="6" class="c0"/>
<circle cx="782" cy="620" r="6" class="c0"/>
<circle cx="1254" cy="638" r="6" class="c0"/>
<circle cx="1482" cy="724" r="6" class="c0"/>
<circle cx="978" cy="884" r="6" class="c0"/>
<circle cx="1460" cy="756" r="6" class="c0"/>
<circle cx="1422" cy="800" r="6" class="c0"/>
<circle cx="788" cy="760" r="6" class="c0"/>
<circle cx="1482" cy="670" r="6" class="c0"/>
<circle cx="1374" cy="674" r="6" class="c0"/>
<circle cx="1862" cy="692" r="6" class="c0"/>
<circle cx="1406" cy="704" r="6" class="c0"/>
<circle cx="1350" cy="714" r="6" class="c0"/>
<circle cx="952" cy="880" r="6" class="c0"/>
<circle cx="982" cy="1014" r="6" class="c0"/>
<circle cx="1888" cy="690" r="6" class="c0"/>
<circle cx="1074" cy="622" r="6" class="c0"/>
<circle cx="1856" cy="802" r="6" class="c0"/>
<circle cx="764" cy="814" r="6" class="c0"/>
<circle cx="1476" cy="854" r="6" class="c0"/>
<circle cx="1550" cy="614" r="6" class="c0"/>
<circle cx="1402" cy="608" r="6" class="c0"/>
<circle cx="964" cy="888" r="6" class="c0"/>
<circle cx="1132" cy="530" r="6" class="c0"/>
<circle cx="934" cy="1002" r="6" class="c0"/>
<circle cx="1638" cy="786" r="6" class="c0"/>
<circle cx="1892" cy="630" r="6" class="c0"/>
<circle cx="1022" cy="600" r="6" class="c0"/>
<circle cx="1762" cy="822" r="6" class="c0"/>
<circle cx="746" cy="606" r="6" class="c0"/>
<circle cx="1104" cy="530" r="6" class="c0"/>
<circle cx="928" cy="748" r="6" class="c0"/>
<circle cx="1444" cy="778" r="6" class="c0"/>
<circle cx="1762" cy="766" r="6" class="c0"/>
<circle cx="1050" cy="1018" r="6" class="c0"/>
<circle cx="1086" cy="440" r="6" class="c0"/>
<circle cx="1402" cy="650" r="6" class="c0"/>
<circle cx="1028" cy="832" r="6" class="c0"/>
<circle cx="796" cy="562" r="6" class="c0"/>
<circle cx="898" cy="638" r="6" class="c0"/>
<circle cx="1666" cy="600" r="6" class="c0"/>
<circle cx="768" cy="782" r="6" class="c0"/>
<circle cx="1692" cy="806" r="6" class="c0"/>
<circle cx="982" cy="496" r="6" class="c0"/>
<circle cx="970" cy="502" r="6" class="c0"/>
<circle cx="1912" cy="506" r="6" class="c0"/>
<circle cx="1666" cy="628" r="6" class="c0"/>
<circle cx="1488" cy="564" r="6" class="c0"/>
<circle cx="1474" cy="740" r="6" class="c0"/>
<circle cx="1658" cy="658" r="6" class="c0"/>
<circle cx="1450" cy="792" r="6" class="c0"/>
<circle cx="1598" cy="746" r="6" class="c0"/>
<circle cx="1212" cy="578" r="6" class="c0"/>
<circle cx="1282" cy="688" r="6" class="c0"/>
<circle cx="1428" cy="584" r="6" class="c0"/>
<circle cx="1856" cy="676" r="6" class="c0"/>
<circle cx="796" cy="800" r="6" class="c0"/>
<circle cx="1314" cy="620" r="6" class="c0"/>
<circle cx="1478" cy="814" r="6" class="c0"/>
<circle cx="1798" cy="694" r="6" class="c0"/>
<circle cx="1124" cy="556" r="6" class="c0"/>
<circle cx="694" cy="688" r="6" class="c0"/>
<circle cx="1156" cy="534" r="6" class="c0"/>
<circle cx="988" cy="914" r="6" class="c0"/>
<circle cx="1490" cy="860" r="6" class="c0"/>
<circle cx="1296" cy="536" r="6" class="c0"/>
<circle cx="906" cy="678" r="6" class="c0"/>
<circle cx="1380" cy="720" r="6" class="c0"/>
<circle cx="1174" cy="460" r="6" class="c0"/>
<circle cx="820" cy="564" r="6" class="c0"/>
<circle cx="1006" cy="688" r="6" class="c0"/>
<circle cx="1034" cy="854" r="6" class="c0"/>
<circle cx="966" cy="520" r="6" class="c0"/>
<circle cx="932" cy="568" r="6" class="c0"/>
<circle cx="1912" cy="590" r="6" class="c0"/>
<circle cx="902" cy="874" r="6" class="c0"/>
<circle cx="1756" cy="576" r="6" class="c0"/>
<circle cx="1208" cy="490" r="6" class="c0"/>
<circle cx="1890" cy="596" r="6" class="c0"/>
<circle cx="950" cy="794" r="6" class="c0"/>
<circle cx="1112" cy="502" r="6" class="c0"/>
<circle cx="1286" cy="722" r="6" class="c0"/>
<circle cx="1026" cy="560" r="6" class="c0"/>
<circle cx="1306" cy="736" r="6" class="c0"/>
<circle cx="1006" cy="1040" r="6" class="c0"/>
<circle cx="1884" cy="778" r="6" class="c0"/>
<circle cx="822" cy="626" r="6" class="c0"/>
<circle cx="1238" cy="616" r="6" class="c0"/>
<circle cx="1460" cy="824" r="6" class="c0"/>
<circle cx="1692" cy="660" r="6" class="c0"/>
<circle cx="1154" cy="616" r="6" class="c0"/>
<circle cx="1156" cy="558" r="6" class="c0"/>
<circle cx="1202" cy="654" r="6" class="c0"/>
<circle cx="1886" cy="716" r="6" class="c0"/>
<circle cx="990" cy="622" r="6" class="c0"/>
<circle cx="1784" cy="776" r="6" class="c0"/>
<circle cx="1582" cy="816" r="6" class="c0"/>
<circle cx="1016" cy="488" r="6" class="c0"/>
<circle cx="1050" cy="556" r="6" class="c0"/>
<circle cx="830" cy="742" r="6" class="c0"/>
<circle cx="1642" cy="638" r="6" class="c0"/>
<circle cx="1422" cy="656" r="6" class="c0"/>
<circle cx="1214" cy="558" r="6" class="c0"/>
<circle cx="992" cy="842" r="6" class="c0"/>
<circle cx="768" cy="800" r="6" class="c0"/>
<circle cx="1532" cy="742" r="6" class="c0"/>
<circle cx="1038" cy="644" r="6" class="c0"/>
<circle cx="1244" cy="528" r="6" class="c0"/>
<circle cx="1390" cy="642" r="6" class="c0"/>
<circle cx="1020" cy="614" r="6" class="c0"/>
<circle cx="1276" cy="576" r="6" class="c0"/>
<circle cx="1490" cy="640" r="6" class="c0"/>
<circle cx="1050" cy="492" r="6" class="c0"/>
<circle cx="926" cy="828" r="6" class="c0"/>
<circle cx="1764" cy="748" r="6" class="c0"/>
<circle cx="1404" cy="812" r="6" class="c0"/>
<circle cx="1036" cy="514" r="6" class="c0"/>
<circle cx="1056" cy="1032" r="6" class="c0"/>
<circle cx="1288" cy="546" r="6" class="c0"/>
<circle cx="1040" cy="1026" r="6" class="c0"/>
<circle cx="1618" cy="714" r="6" class="c0"/>
<circle cx="1308" cy="510" r="6" class="c0"/>
<circle cx="1158" cy="476" r="6" class="c0"/>
<circle cx="952" cy="1038" r="6" class="c0"/>
<circle cx="1700" cy="582" r="6" class="c0"/>
<circle cx="1868" cy="768" r="6" class="c0"/>
<circle cx="948" cy="498" r="6" class="c0"/>
<circle cx="1368" cy="662" r="6" class="c0"/>
<circle cx="1656" cy="636" r="6" class="c0"/>
<circle cx="1348" cy="766" r="6" class="c0"/>
<circle cx="1732" cy="804" r="6" class="c0"/>
<circle cx="760" cy="792" r="6" class="c0"/>
<circle cx="992" cy="466" r="6" class="c0"/>
<circle cx="1872" cy="510" r="6" class="c0"/>
<circle cx="1006" cy="566" r="6" class="c0"/>
<circle cx="982" cy="752" r="6" class="c0"/>
<circle cx="1658" cy="850" r="6" class="c0"/>
<circle cx="956" cy="972" r="6" class="c0"/>
<circle cx="1822" cy="618" r="6" class="c0"/>
<circle cx="932" cy="1018" r="6" class="c0"/>
<circle cx="1050" cy="676" r="6" class="c0"/>
<circle cx="1848" cy="632" r="6" class="c0"/>
<circle cx="1604" cy="640" r="6" class="c0"/>
<circle cx="1910" cy="664" r="6" class="c0"/>
<circle cx="1248" cy="624" r="6" class="c0"/>
<circle cx="1040" cy="702" r="6" class="c0"/>
<circle cx="794" cy="614" r="6" class="c0"/>
<circle cx="1690" cy="820" r="6" class="c0"/>
<circle cx="1256" cy="494" r="6" class="c0"/>
<circle cx="1726" cy="588" r="6" class="c0"/>
<circle cx="1390" cy="784" r="6" class="c0"/>
<circle cx="1180" cy="600" r="6" class="c0"/>
<circle cx="1910" cy="802" r="6" class="c0"/>
<circle cx="716" cy="708" r="6" class="c0"/>
<circle cx="1026" cy="658" r="6" class="c0"/>
<circle cx="1342" cy="684" r="6" class="c0"/>
<circle cx="1912" cy="528" r="6" class="c0"/>
<circle cx="1000" cy="578" r="6" class="c0"/>
<circle cx="1020" cy="506" r="6" class="c0"/>
<circle cx="1754" cy="830" r="6" class="c0"/>
<circle cx="908" cy="920" r="6" class="c0"/>
<circle cx="1016" cy="458" r="6" class="c0"/>
<circle cx="1566" cy="786" r="6" class="c0"/>
<circle cx="984" cy="778" r="6" class="c0"/>
<circle cx="1430" cy="790" r="6" class="c0"/>
<circle cx="1134" cy="474" r="6" class="c0"/>
<circle cx="1342" cy="730" r="6" class="c0"/>
<circle cx="1494" cy="688" r="6" class="c0"/>
<circle cx="964" cy="940" r="6" class="c0"/>
<circle cx="1066" cy="1076" r="6" class="c0"/>
<circle cx="1186" cy="542" r="6" class="c0"/>
<circle cx="1162" cy="624" r="6" class="c0"/>
<circle cx="1686" cy="754" r="6" class="c0"/>
<circle cx="784" cy="708" r="6" class="c0"/>
<circle cx="1232" cy="588" r="6" class="c0"/>
<circle cx="906" cy="890" r="6" class="c0"/>
<circle cx="1912" cy="690" r="6" class="c0"/>
<circle cx="1410" cy="744" r="6" class="c0"/>
<circle cx="1808" cy="828" r="6" class="c0"/>
<circle cx="1430" cy="546" r="6" class="c0"/>
<circle cx="1412" cy="616" r="6" class="c0"/>
<circle cx="1268" cy="682" r="6" class="c0"/>
<circle cx="876" cy="544" r="6" class="c0"/>
<circle cx="1606" cy="780" r="6" class="c0"/>
</svg>
