<?xml version="1.0" encoding="utf-8"?>
<svg xmlns="http://www.w3.org/2000/svg"
     xmlns:xlink="http://www.w3.org/1999/xlink" width="1920" height="1440" >

            <defs>
            <style type="text/css"><![CDATA[
circle {stroke: none;}
.c0 {fill: #FFFFFF;}
]]></style>
            </defs>
<rect x="0" y="0" width="1920" height="1440" fill="black"/>
<circle cx="708" cy="616" r="14" class="c0"/>
<circle cx="1852" cy="658" r="14" class="c0"/>
<circle cx="1008" cy="834" r="14" class="c0"/>
<circle cx="1458" cy="780" r="12" class="c0"/>
<circle cx="1714" cy="698" r="12" class="c0"/>
<circle cx="986" cy="874" r="12" class="c0"/>
<circle cx="1464" cy="832" r="12" class="c0"/>
<circle cx="1636" cy="720" r="12" class="c0"/>
<circle cx="1344" cy="580" r="12" class="c0"/>
<circle cx="932" cy="550" r="12" class="c0"/>
<circle cx="702" cy="708" r="12" class="c0"/>
<circle cx="1546" cy="706" r="12" class="c0"/>
<circle cx="1712" cy="666" r="12" class="c0"/>
<circle cx="1762" cy="808" r="12" class="c0"/>
<circle cx="974" cy="574" r="12" class="c0"/>
<circle cx="1010" cy="1028" r="12" class="c0"/>
<circle cx="1864" cy="712" r="12" class="c0"/>
<circle cx="728" cy="734" r="12" class="c0"/>
<circle cx="1270" cy="592" r="12" class="c0"/>
<circle cx="1194" cy="484" r="12" class="c0"/>
<circle cx="980" cy="996" r="12" class="c0"/>
<circle cx="1048" cy="506" r="12" class="c0"/>
<circle cx="1214" cy="612" r="12" class="c0"/>
<circle cx="1548" cy="654" r="12" class="c0"/>
<circle cx="1874" cy="770" r="12" class="c0"/>
<circle cx="1454" cy="622" r="12" class="c0"/>
<circle cx="804" cy="562" r="12" class="c0"/>
<circle cx="1780" cy="584" r="12" class="c0"/>
<circle cx="830" cy="626" r="12" class="c0"/>
<circle cx="926" cy="860" r="12" class="c0"/>
<circle cx="1364" cy="528" r="12" class="c0"/>
<circle cx="1826" cy="680" r="12" class="c0"/>
<circle cx="1006" cy="556" r="12" class="c0"/>
<circle cx="1626" cy="644" r="12" class="c0"/>
<circle cx="862" cy="518" r="12" class="c0"/>
<circle cx="1306" cy="670" r="12" class="c0"/>
<circle cx="920" cy="800" r="12" class="c0"/>
<circle cx="1408" cy="548" r="12" class="c0"/>
<circle cx="992" cy="1066" r="12" class="c0"/>
<circle cx="1806" cy="712" r="12" class="c0"/>
<circle cx="1600" cy="624" r="12" class="c0"/>
<circle cx="760" cy="600" r="12" class="c0"/>
<circle cx="738" cy="576" r="12" class="c0"/>
<circle cx="1676" cy="694" r="12" class="c0"/>
<circle cx="1856" cy="630" r="12" class="c0"/>
<circle cx="1332" cy="546" r="12" class="c0"/>
<circle cx="1688" cy="784" r="12" class="c0"/>
<circle cx="1670" cy="842" r="12" class="c0"/>
<circle cx="1604" cy="758" r="12" class="c0"/>
<circle cx="1716" cy="620" r="12" class="c0"/>
<circle cx="1390" cy="646" r="12" class="c0"/>
<circle cx="1390" cy="738" r="12" class="c0"/>
<circle cx="1490" cy="678" r="12" class="c0"/>
<circle cx="726" cy="700" r="12" class="c0"/>
<circle cx="952" cy="992" r="12" class="c0"/>
<circle cx="884" cy="678" r="12" class="c0"/>
<circle cx="1480" cy="620" r="12" class="c0"/>
<circle cx="1642" cy="760" r="12" class="c0"/>
<circle cx="1766" cy="722" r="12" class="c0"/>
<circle cx="1600" cy="712" r="12" class="c0"/>
<circle cx="1486" cy="750" r="12" class="c0"/>
<circle cx="888" cy="706" r="12" class="c0"/>
<circle cx="1824" cy="574" r="12" class="c0"/>
<circle cx="1284" cy="616" r="12" class="c0"/>
<circle cx="1530" cy="784" r="12" class="c0"/>
<circle cx="1344" cy="696" r="12" class="c0"/>
<circle cx="1748" cy="708" r="12" class="c0"/>
<circle cx="1190" cy="630" r="12" class="c0"/>
<circle cx="954" cy="834" r="12" class="c0"/>
<circle cx="1252" cy="624" r="12" class="c0"/>
<circle cx="1744" cy="660" r="10" class="c0"/>
<circle cx="1304" cy="516" r="10" class="c0"/>
<circle cx="1630" cy="680" r="10" class="c0"/>
<circle cx="1048" cy="462" r="10" class="c0"/>
<circle cx="1750" cy="636" r="10" class="c0"/>
<circle cx="1634" cy="788" r="10" class="c0"/>
<circle cx="876" cy="576" r="10" class="c0"/>
<circle cx="1850" cy="686" r="10" class="c0"/>
<circle cx="1258" cy="672" r="10" class="c0"/>
<circle cx="1038" cy="598" r="10" class="c0"/>
<circle cx="1546" cy="622" r="10" class="c0"/>
<circle cx="1228" cy="520" r="10" class="c0"/>
<circle cx="1142" cy="574" r="10" class="c0"/>
<circle cx="1870" cy="610" r="10" class="c0"/>
<circle cx="1736" cy="840" r="10" class="c0"/>
<circle cx="1612" cy="666" r="10" class="c0"/>
<circle cx="780" cy="758" r="10" class="c0"/>
<circle cx="804" cy="618" r="10" class="c0"/>
<circle cx="1514" cy="848" r="10" class="c0"/>
<circle cx="1888" cy="572" r="10" class="c0"/>
<circle cx="1802" cy="794" r="10" class="c0"/>
<circle cx="1698" cy="820" r="10" class="c0"/>
<circle cx="1592" cy="780" r="10" class="c0"/>
<circle cx="1426" cy="652" r="10" class="c0"/>
<circle cx="1310" cy="714" r="10" class="c0"/>
<circle cx="1432" cy="686" r="10" class="c0"/>
<circle cx="888" cy="548" r="10" class="c0"/>
<circle cx="964" cy="900" r="10" class="c0"/>
<circle cx="1500" cy="722" r="10" class="c0"/>
<circle cx="860" cy="652" r="10" class="c0"/>
<circle cx="1908" cy="748" r="10" class="c0"/>
<circle cx="1754" cy="574" r="10" class="c0"/>
<circle cx="1618" cy="700" r="10" class="c0"/>
<circle cx="1456" cy="700" r="10" class="c0"/>
<circle cx="1406" cy="610" r="10" class="c0"/>
<circle cx="1726" cy="748" r="10" class="c0"/>
<circle cx="1018" cy="630" r="10" class="c0"/>
<circle cx="1468" cy="556" r="10" class="c0"/>
<circle cx="1824" cy="810" r="10" class="c0"/>
<circle cx="1590" cy="686" r="10" class="c0"/>
<circle cx="1390" cy="676" r="10" class="c0"/>
<circle cx="1026" cy="542" r="10" class="c0"/>
<circle cx="1864" cy="564" r="10" class="c0"/>
<circle cx="944" cy="956" r="10" class="c0"/>
<circle cx="1844" cy="762" r="10" class="c0"/>
<circle cx="1108" cy="470" r="10" class="c0"/>
<circle cx="892" cy="640" r="10" class="c0"/>
<circle cx="912" cy="488" r="10" class="c0"/>
<circle cx="1434" cy="724" r="10" class="c0"/>
<circle cx="1208" cy="548" r="10" class="c0"/>
<circle cx="848" cy="612" r="10" class="c0"/>
<circle cx="1562" cy="584" r="10" class="c0"/>
<circle cx="1196" cy="578" r="10" class="c0"/>
<circle cx="1026" cy="478" r="10" class="c0"/>
<circle cx="1174" cy="466" r="10" class="c0"/>
<circle cx="940" cy="738" r="10" class="c0"/>
<circle cx="1100" cy="442" r="10" class="c0"/>
<circle cx="1260" cy="560" r="10" class="c0"/>
<circle cx="1170" cy="586" r="10" class="c0"/>
<circle cx="994" cy="958" r="10" class="c0"/>
<circle cx="1366" cy="756" r="10" class="c0"/>
<circle cx="1596" cy="650" r="10" class="c0"/>
<circle cx="1716" cy="726" r="10" class="c0"/>
<circle cx="954" cy="514" r="10" class="c0"/>
<circle cx="1006" cy="800" r="10" class="c0"/>
<circle cx="1526" cy="816" r="10" class="c0"/>
<circle cx="1002" cy="770" r="10" class="c0"/>
<circle cx="1756" cy="604" r="10" class="c0"/>
<circle cx="1440" cy="598" r="10" class="c0"/>
<circle cx="768" cy="636" r="10" class="c0"/>
<circle cx="1782" cy="778" r="10" class="c0"/>
<circle cx="1794" cy="652" r="10" class="c0"/>
<circle cx="1568" cy="748" r="10" class="c0"/>
<circle cx="1492" cy="582" r="10" class="c0"/>
<circle cx="1658" cy="646" r="10" class="c0"/>
<circle cx="1524" cy="686" r="10" class="c0"/>
<circle cx="974" cy="852" r="10" class="c0"/>
<circle cx="1814" cy="774" r="10" class="c0"/>
<circle cx="1038" cy="1064" r="10" class="c0"/>
<circle cx="1000" cy="648" r="10" class="c0"/>
<circle cx="1678" cy="630" r="10" class="c0"/>
<circle cx="1072" cy="578" r="10" class="c0"/>
<circle cx="940" cy="490" r="10" class="c0"/>
<circle cx="1296" cy="692" r="10" class="c0"/>
<circle cx="1580" cy="832" r="10" class="c0"/>
<circle cx="1568" cy="614" r="10" class="c0"/>
<circle cx="1078" cy="518" r="10" class="c0"/>
<circle cx="1494" cy="774" r="10" class="c0"/>
<circle cx="1872" cy="678" r="10" class="c0"/>
<circle cx="1412" cy="700" r="10" class="c0"/>
<circle cx="1296" cy="536" r="10" class="c0"/>
<circle cx="1524" cy="720" r="10" class="c0"/>
<circle cx="1178" cy="540" r="10" class="c0"/>
<circle cx="886" cy="604" r="10" class="c0"/>
<circle cx="1444" cy="754" r="10" class="c0"/>
<circle cx="1306" cy="564" r="10" class="c0"/>
<circle cx="1534" cy="744" r="10" class="c0"/>
<circle cx="990" cy="600" r="10" class="c0"/>
<circle cx="1410" cy="762" r="10" class="c0"/>
<circle cx="1790" cy="746" r="10" class="c0"/>
<circle cx="1208" cy="502" r="10" class="c0"/>
<circle cx="918" cy="534" r="10" class="c0"/>
<circle cx="994" cy="700" r="10" class="c0"/>
<circle cx="844" cy="542" r="10" class="c0"/>
<circle cx="1374" cy="614" r="10" class="c0"/>
<circle cx="1494" cy="654" r="10" class="c0"/>
<circle cx="1648" cy="668" r="10" class="c0"/>
<circle cx="1894" cy="686" r="10" class="c0"/>
<circle cx="1278" cy="646" r="10" class="c0"/>
<circle cx="1074" cy="456" r="10" class="c0"/>
<circle cx="922" cy="908" r="10" class="c0"/>
<circle cx="1432" cy="630" r="10" class="c0"/>
<circle cx="984" cy="504" r="10" class="c0"/>
<circle cx="938" cy="934" r="10" class="c0"/>
<circle cx="836" cy="582" r="10" class="c0"/>
<circle cx="1900" cy="552" r="10" class="c0"/>
<circle cx="928" cy="582" r="10" class="c0"/>
<circle cx="1888" cy="650" r="10" class="c0"/>
<circle cx="1694" cy="680" r="10" class="c0"/>
<circle cx="1314" cy="612" r="10" class="c0"/>
<circle cx="1784" cy="628" r="10" class="c0"/>
<circle cx="1296" cy="598" r="10" class="c0"/>
<circle cx="1578" cy="724" r="10" class="c0"/>
<circle cx="1524" cy="598" r="10" class="c0"/>
<circle cx="1116" cy="510" r="10" class="c0"/>
<circle cx="798" cy="670" r="10" class="c0"/>
<circle cx="966" cy="480" r="10" class="c0"/>
<circle cx="1650" cy="616" r="10" class="c0"/>
<circle cx="1020" cy="788" r="10" class="c0"/>
<circle cx="984" cy="798" r="10" class="c0"/>
<circle cx="1282" cy="566" r="10" class="c0"/>
<circle cx="1894" cy="710" r="10" class="c0"/>
<circle cx="1018" cy="876" r="10" class="c0"/>
<circle cx="1168" cy="492" r="10" class="c0"/>
<circle cx="916" cy="832" r="10" class="c0"/>
<circle cx="890" cy="868" r="10" class="c0"/>
<circle cx="1454" cy="542" r="10" class="c0"/>
<circle cx="1064" cy="544" r="10" class="c0"/>
<circle cx="730" cy="630" r="10" class="c0"/>
<circle cx="1828" cy="704" r="10" class="c0"/>
<circle cx="1488" cy="810" r="10" class="c0"/>
<circle cx="1504" cy="794" r="10" class="c0"/>
<circle cx="1480" cy="698" r="10" class="c0"/>
<circle cx="962" cy="768" r="10" class="c0"/>
<circle cx="1702" cy="588" r="10" class="c0"/>
<circle cx="1158" cy="608" r="10" class="c0"/>
<circle cx="1756" cy="684" r="10" class="c0"/>
<circle cx="912" cy="730" r="10" class="c0"/>
<circle cx="1736" cy="592" r="10" class="c0"/>
<circle cx="1714" cy="782" r="10" class="c0"/>
<circle cx="1790" cy="814" r="10" class="c0"/>
<circle cx="996" cy="466" r="10" class="c0"/>
<circle cx="1060" cy="1032" r="10" class="c0"/>
<circle cx="1386" cy="574" r="10" class="c0"/>
<circle cx="1318" cy="530" r="10" class="c0"/>
<circle cx="1906" cy="798" r="10" class="c0"/>
<circle cx="1826" cy="726" r="10" class="c0"/>
<circle cx="972" cy="1032" r="10" class="c0"/>
<circle cx="1014" cy="660" r="10" class="c0"/>
<circle cx="1372" cy="554" r="10" class="c0"/>
<circle cx="972" cy="820" r="10" class="c0"/>
<circle cx="1028" cy="852" r="10" class="c0"/>
<circle cx="1368" cy="682" r="10" class="c0"/>
<circle cx="792" cy="736" r="10" class="c0"/>
<circle cx="1744" cy="758" r="10" class="c0"/>
<circle cx="774" cy="542" r="10" class="c0"/>
<circle cx="1516" cy="572" r="10" class="c0"/>
<circle cx="702" cy="648" r="10" class="c0"/>
<circle cx="1130" cy="562" r="10" class="c0"/>
<circle cx="1344" cy="666" r="8" class="c0"/>
<circle cx="1906" cy="582" r="8" class="c0"/>
<circle cx="1378" cy="770" r="8" class="c0"/>
<circle cx="1382" cy="708" r="8" class="c0"/>
<circle cx="1502" cy="554" r="8" class="c0"/>
<circle cx="1910" cy="524" r="8" class="c0"/>
<circle cx="1406" cy="634" r="8" class="c0"/>
<circle cx="1822" cy="652" r="8" class="c0"/>
<circle cx="722" cy="770" r="8" class="c0"/>
<circle cx="1512" cy="610" r="8" class="c0"/>
<circle cx="976" cy="928" r="8" class="c0"/>
<circle cx="996" cy="676" r="8" class="c0"/>
<circle cx="1436" cy="816" r="8" class="c0"/>
<circle cx="1764" cy="770" r="8" class="c0"/>
<circle cx="1062" cy="608" r="8" class="c0"/>
<circle cx="1424" cy="740" r="8" class="c0"/>
<circle cx="1368" cy="724" r="8" class="c0"/>
<circle cx="1588" cy="602" r="8" class="c0"/>
<circle cx="1012" cy="918" r="8" class="c0"/>
<circle cx="1640" cy="850" r="8" class="c0"/>
<circle cx="1446" cy="574" r="8" class="c0"/>
<circle cx="1000" cy="616" r="8" class="c0"/>
<circle cx="972" cy="1078" r="8" class="c0"/>
<circle cx="976" cy="460" r="8" class="c0"/>
<circle cx="1470" cy="738" r="8" class="c0"/>
<circle cx="1554" cy="818" r="8" class="c0"/>
<circle cx="726" cy="656" r="8" class="c0"/>
<circle cx="1322" cy="692" r="8" class="c0"/>
<circle cx="1036" cy="972" r="8" class="c0"/>
<circle cx="1116" cy="538" r="8" class="c0"/>
<circle cx="1536" cy="574" r="8" class="c0"/>
<circle cx="1014" cy="516" r="8" class="c0"/>
<circle cx="934" cy="1076" r="8" class="c0"/>
<circle cx="1476" cy="664" r="8" class="c0"/>
<circle cx="704" cy="744" r="8" class="c0"/>
<circle cx="1008" cy="978" r="8" class="c0"/>
<circle cx="1248" cy="492" r="8" class="c0"/>
<circle cx="1382" cy="538" r="8" class="c0"/>
<circle cx="1414" cy="574" r="8" class="c0"/>
<circle cx="962" cy="1048" r="8" class="c0"/>
<circle cx="1780" cy="696" r="8" class="c0"/>
<circle cx="1680" cy="806" r="8" class="c0"/>
<circle cx="1268" cy="542" r="8" class="c0"/>
<circle cx="1100" cy="558" r="8" class="c0"/>
<circle cx="1838" cy="526" r="8" class="c0"/>
<circle cx="1692" cy="736" r="8" class="c0"/>
<circle cx="964" cy="958" r="8" class="c0"/>
<circle cx="1324" cy="636" r="8" class="c0"/>
<circle cx="1700" cy="768" r="8" class="c0"/>
<circle cx="994" cy="520" r="8" class="c0"/>
<circle cx="908" cy="564" r="8" class="c0"/>
<circle cx="1784" cy="560" r="8" class="c0"/>
<circle cx="1004" cy="894" r="8" class="c0"/>
<circle cx="1426" cy="804" r="8" class="c0"/>
<circle cx="760" cy="666" r="8" class="c0"/>
<circle cx="670" cy="684" r="8" class="c0"/>
<circle cx="914" cy="886" r="8" class="c0"/>
<circle cx="804" cy="796" r="8" class="c0"/>
<circle cx="1524" cy="664" r="8" class="c0"/>
<circle cx="1320" cy="656" r="8" class="c0"/>
<circle cx="1772" cy="670" r="8" class="c0"/>
<circle cx="1020" cy="590" r="8" class="c0"/>
<circle cx="1152" cy="546" r="8" class="c0"/>
<circle cx="1736" cy="788" r="8" class="c0"/>
<circle cx="1022" cy="1000" r="8" class="c0"/>
<circle cx="1210" cy="528" r="8" class="c0"/>
<circle cx="1032" cy="648" r="8" class="c0"/>
<circle cx="1066" cy="484" r="8" class="c0"/>
<circle cx="1506" cy="694" r="8" class="c0"/>
<circle cx="1152" cy="452" r="8" class="c0"/>
<circle cx="1668" cy="666" r="8" class="c0"/>
<circle cx="1344" cy="734" r="8" class="c0"/>
<circle cx="1606" cy="828" r="8" class="c0"/>
<circle cx="1450" cy="802" r="8" class="c0"/>
<circle cx="958" cy="540" r="8" class="c0"/>
<circle cx="956" cy="714" r="8" class="c0"/>
<circle cx="948" cy="858" r="8" class="c0"/>
<circle cx="1844" cy="806" r="8" class="c0"/>
<circle cx="898" cy="532" r="8" class="c0"/>
<circle cx="1560" cy="858" r="8" class="c0"/>
<circle cx="1882" cy="750" r="8" class="c0"/>
<circle cx="866" cy="694" r="8" class="c0"/>
<circle cx="1180" cy="504" r="8" class="c0"/>
<circle cx="1812" cy="604" r="8" class="c0"/>
<circle cx="802" cy="530" r="8" class="c0"/>
<circle cx="936" cy="776" r="8" class="c0"/>
<circle cx="1884" cy="804" r="8" class="c0"/>
<circle cx="750" cy="552" r="8" class="c0"/>
<circle cx="962" cy="938" r="8" class="c0"/>
<circle cx="1028" cy="770" r="8" class="c0"/>
<circle cx="774" cy="680" r="8" class="c0"/>
<circle cx="1848" cy="610" r="8" class="c0"/>
<circle cx="1140" cy="594" r="8" class="c0"/>
<circle cx="1138" cy="470" r="8" class="c0"/>
<circle cx="1174" cy="618" r="8" class="c0"/>
<circle cx="1166" cy="556" r="8" class="c0"/>
<circle cx="768" cy="564" r="8" class="c0"/>
<circle cx="822" cy="646" r="8" class="c0"/>
<circle cx="1056" cy="440" r="8" class="c0"/>
<circle cx="1528" cy="836" r="8" class="c0"/>
<circle cx="1550" cy="792" r="8" class="c0"/>
<circle cx="1500" cy="600" r="8" class="c0"/>
<circle cx="920" cy="710" r="8" class="c0"/>
<circle cx="1720" cy="824" r="8" class="c0"/>
<circle cx="1558" cy="688" r="8" class="c0"/>
<circle cx="1800" cy="592" r="8" class="c0"/>
<circle cx="1048" cy="1010" r="8" class="c0"/>
<circle cx="1808" cy="628" r="8" class="c0"/>
<circle cx="1156" cy="510" r="8" class="c0"/>
<circle cx="1686" cy="606" r="8" class="c0"/>
<circle cx="1606" cy="798" r="8" class="c0"/>
<circle cx="1548" cy="844" r="8" class="c0"/>
<circle cx="1406" cy="782" r="8" class="c0"/>
<circle cx="1590" cy="858" r="8" class="c0"/>
<circle cx="1706" cy="644" r="8" class="c0"/>
<circle cx="746" cy="678" r="8" class="c0"/>
<circle cx="970" cy="786" r="8" class="c0"/>
<circle cx="1218" cy="484" r="8" class="c0"/>
<circle cx="1622" cy="814" r="8" class="c0"/>
<circle cx="704" cy="678" r="8" class="c0"/>
<circle cx="756" cy="696" r="8" class="c0"/>
<circle cx="1794" cy="544" r="8" class="c0"/>
<circle cx="900" cy="792" r="8" class="c0"/>
<circle cx="1424" cy="584" r="8" class="c0"/>
<circle cx="1458" cy="666" r="8" class="c0"/>
<circle cx="1490" cy="842" r="8" class="c0"/>
<circle cx="1574" cy="644" r="8" class="c0"/>
<circle cx="744" cy="658" r="8" class="c0"/>
<circle cx="1024" cy="1084" r="8" class="c0"/>
<circle cx="1168" cy="522" r="8" class="c0"/>
<circle cx="1338" cy="604" r="8" class="c0"/>
<circle cx="1234" cy="592" r="8" class="c0"/>
<circle cx="930" cy="818" r="8" class="c0"/>
<circle cx="1138" cy="504" r="8" class="c0"/>
<circle cx="1260" cy="514" r="8" class="c0"/>
<circle cx="768" cy="706" r="8" class="c0"/>
<circle cx="1098" cy="498" r="8" class="c0"/>
<circle cx="1078" cy="1052" r="8" class="c0"/>
<circle cx="834" cy="518" r="8" class="c0"/>
<circle cx="1026" cy="812" r="8" class="c0"/>
<circle cx="1110" cy="586" r="8" class="c0"/>
<circle cx="1680" cy="652" r="8" class="c0"/>
<circle cx="1676" cy="746" r="8" class="c0"/>
<circle cx="1058" cy="626" r="8" class="c0"/>
<circle cx="1044" cy="578" r="8" class="c0"/>
<circle cx="910" cy="514" r="8" class="c0"/>
<circle cx="682" cy="670" r="8" class="c0"/>
<circle cx="1342" cy="646" r="8" class="c0"/>
<circle cx="976" cy="548" r="8" class="c0"/>
<circle cx="1668" cy="770" r="8" class="c0"/>
<circle cx="1236" cy="548" r="8" class="c0"/>
<circle cx="1130" cy="442" r="8" class="c0"/>
<circle cx="796" cy="768" r="8" class="c0"/>
<circle cx="1740" cy="732" r="8" class="c0"/>
<circle cx="878" cy="506" r="8" class="c0"/>
<circle cx="950" cy="1058" r="8" class="c0"/>
<circle cx="1482" cy="598" r="8" class="c0"/>
<circle cx="690" cy="630" r="8" class="c0"/>
<circle cx="1300" cy="632" r="8" class="c0"/>
<circle cx="1874" cy="584" r="8" class="c0"/>
<circle cx="1662" cy="708" r="8" class="c0"/>
<circle cx="1890" cy="732" r="8" class="c0"/>
<circle cx="1542" cy="764" r="8" class="c0"/>
<circle cx="1248" cy="532" r="8" class="c0"/>
<circle cx="1624" cy="740" r="8" class="c0"/>
<circle cx="670" cy="660" r="8" class="c0"/>
<circle cx="1092" cy="594" r="8" class="c0"/>
<circle cx="856" cy="678" r="8" class="c0"/>
<circle cx="1372" cy="592" r="8" class="c0"/>
<circle cx="1436" cy="782" r="8" class="c0"/>
<circle cx="1854" cy="796" r="8" class="c0"/>
<circle cx="782" cy="654" r="8" class="c0"/>
<circle cx="952" cy="802" r="8" class="c0"/>
<circle cx="1148" cy="494" r="8" class="c0"/>
<circle cx="970" cy="698" r="8" class="c0"/>
<circle cx="944" cy="908" r="8" class="c0"/>
<circle cx="1706" cy="840" r="8" class="c0"/>
<circle cx="1042" cy="618" r="8" class="c0"/>
<circle cx="1224" cy="632" r="8" class="c0"/>
<circle cx="1718" cy="802" r="8" class="c0"/>
<circle cx="764" cy="748" r="8" class="c0"/>
<circle cx="798" cy="710" r="8" class="c0"/>
<circle cx="954" cy="884" r="8" class="c0"/>
<circle cx="1024" cy="930" r="8" class="c0"/>
<circle cx="766" cy="726" r="8" class="c0"/>
<circle cx="1034" cy="1020" r="8" class="c0"/>
<circle cx="1898" cy="612" r="8" class="c0"/>
<circle cx="1232" cy="656" r="8" class="c0"/>
<circle cx="1466" cy="582" r="8" class="c0"/>
<circle cx="1846" cy="572" r="8" class="c0"/>
<circle cx="1410" cy="672" r="8" class="c0"/>
<circle cx="1322" cy="730" r="8" class="c0"/>
<circle cx="810" cy="588" r="8" class="c0"/>
<circle cx="890" cy="488" r="8" class="c0"/>
<circle cx="1334" cy="508" r="8" class="c0"/>
<circle cx="780" cy="580" r="8" class="c0"/>
<circle cx="1048" cy="1044" r="8" class="c0"/>
<circle cx="1642" cy="696" r="8" class="c0"/>
<circle cx="1548" cy="598" r="8" class="c0"/>
<circle cx="1814" cy="752" r="8" class="c0"/>
<circle cx="928" cy="518" r="8" class="c0"/>
<circle cx="1910" cy="664" r="8" class="c0"/>
<circle cx="1754" cy="786" r="8" class="c0"/>
<circle cx="756" cy="648" r="8" class="c0"/>
<circle cx="1732" cy="770" r="8" class="c0"/>
<circle cx="1354" cy="630" r="8" class="c0"/>
<circle cx="1656" cy="802" r="8" class="c0"/>
<circle cx="1144" cy="528" r="8" class="c0"/>
<circle cx="1864" cy="518" r="8" class="c0"/>
<circle cx="1042" cy="554" r="8" class="c0"/>
<circle cx="1280" cy="668" r="8" class="c0"/>
<circle cx="1524" cy="636" r="8" class="c0"/>
<circle cx="986" cy="1018" r="8" class="c0"/>
<circle cx="1762" cy="832" r="8" class="c0"/>
<circle cx="1366" cy="660" r="8" class="c0"/>
<circle cx="918" cy="940" r="8" class="c0"/>
<circle cx="1004" cy="500" r="8" class="c0"/>
<circle cx="940" cy="1024" r="8" class="c0"/>
<circle cx="1724" cy="646" r="8" class="c0"/>
<circle cx="1794" cy="570" r="8" class="c0"/>
<circle cx="1838" cy="620" r="8" class="c0"/>
<circle cx="1702" cy="750" r="8" class="c0"/>
<circle cx="1496" cy="634" r="8" class="c0"/>
<circle cx="1364" cy="642" r="8" class="c0"/>
<circle cx="830" cy="560" r="8" class="c0"/>
<circle cx="1248" cy="580" r="8" class="c0"/>
<circle cx="1908" cy="600" r="8" class="c0"/>
<circle cx="716" cy="582" r="8" class="c0"/>
<circle cx="1122" cy="458" r="8" class="c0"/>
<circle cx="1860" cy="594" r="8" class="c0"/>
<circle cx="1910" cy="724" r="8" class="c0"/>
<circle cx="1476" cy="798" r="8" class="c0"/>
<circle cx="1812" cy="558" r="8" class="c0"/>
<circle cx="1820" cy="538" r="8" class="c0"/>
<circle cx="1764" cy="746" r="8" class="c0"/>
<circle cx="1678" cy="726" r="8" class="c0"/>
<circle cx="1516" cy="768" r="8" class="c0"/>
<circle cx="1802" cy="734" r="8" class="c0"/>
<circle cx="1058" cy="1060" r="8" class="c0"/>
<circle cx="1690" cy="716" r="8" class="c0"/>
<circle cx="1076" cy="494" r="8" class="c0"/>
<circle cx="1032" cy="670" r="8" class="c0"/>
<circle cx="1282" cy="508" r="8" class="c0"/>
<circle cx="978" cy="968" r="8" class="c0"/>
<circle cx="1574" cy="664" r="8" class="c0"/>
<circle cx="1858" cy="746" r="8" class="c0"/>
<circle cx="960" cy="1016" r="8" class="c0"/>
<circle cx="728" cy="676" r="8" class="c0"/>
<circle cx="1002" cy="1084" r="8" class="c0"/>
<circle cx="892" cy="838" r="8" class="c0"/>
<circle cx="1086" cy="472" r="8" class="c0"/>
<circle cx="1076" cy="558" r="8" class="c0"/>
<circle cx="1886" cy="622" r="8" class="c0"/>
<circle cx="1044" cy="530" r="8" class="c0"/>
<circle cx="980" cy="714" r="8" class="c0"/>
<circle cx="998" cy="928" r="8" class="c0"/>
<circle cx="1890" cy="514" r="8" class="c0"/>
<circle cx="864" cy="628" r="8" class="c0"/>
<circle cx="1032" cy="904" r="8" class="c0"/>
<circle cx="1614" cy="844" r="8" class="c0"/>
<circle cx="1646" cy="738" r="8" class="c0"/>
<circle cx="1008" cy="688" r="8" class="c0"/>
<circle cx="1272" cy="688" r="8" class="c0"/>
<circle cx="1864" cy="542" r="8" class="c0"/>
<circle cx="1624" cy="770" r="8" class="c0"/>
<circle cx="1010" cy="606" r="8" class="c0"/>
<circle cx="1344" cy="518" r="8" class="c0"/>
<circle cx="1832" cy="600" r="8" class="c0"/>
<circle cx="1456" cy="646" r="8" class="c0"/>
<circle cx="1782" cy="834" r="8" class="c0"/>
<circle cx="726" cy="598" r="8" class="c0"/>
<circle cx="1194" cy="520" r="8" class="c0"/>
<circle cx="1404" cy="724" r="8" class="c0"/>
<circle cx="982" cy="688" r="8" class="c0"/>
<circle cx="1190" cy="602" r="8" class="c0"/>
<circle cx="1016" cy="454" r="8" class="c0"/>
<circle cx="1724" cy="580" r="8" class="c0"/>
<circle cx="682" cy="694" r="8" class="c0"/>
<circle cx="1122" cy="488" r="8" class="c0"/>
<circle cx="860" cy="566" r="8" class="c0"/>
<circle cx="1838" cy="786" r="8" class="c0"/>
<circle cx="856" cy="594" r="8" class="c0"/>
<circle cx="756" cy="622" r="8" class="c0"/>
<circle cx="802" cy="642" r="8" class="c0"/>
<circle cx="898" cy="586" r="8" class="c0"/>
<circle cx="1004" cy="998" r="8" class="c0"/>
<circle cx="1212" cy="642" r="8" class="c0"/>
<circle cx="1730" cy="678" r="8" class="c0"/>
<circle cx="796" cy="600" r="8" class="c0"/>
<circle cx="1654" cy="780" r="8" class="c0"/>
<circle cx="1228" cy="494" r="8" class="c0"/>
<circle cx="1626" cy="860" r="8" class="c0"/>
<circle cx="1582" cy="760" r="8" class="c0"/>
<circle cx="1650" cy="834" r="8" class="c0"/>
<circle cx="1826" cy="632" r="8" class="c0"/>
<circle cx="1910" cy="638" r="8" class="c0"/>
<circle cx="1322" cy="590" r="8" class="c0"/>
<circle cx="1000" cy="856" r="8" class="c0"/>
<circle cx="676" cy="640" r="8" class="c0"/>
<circle cx="1238" cy="568" r="8" class="c0"/>
<circle cx="1564" cy="780" r="8" class="c0"/>
<circle cx="938" cy="1048" r="8" class="c0"/>
<circle cx="1804" cy="678" r="8" class="c0"/>
<circle cx="984" cy="910" r="8" class="c0"/>
<circle cx="1438" cy="552" r="8" class="c0"/>
<circle cx="1054" cy="588" r="8" class="c0"/>
<circle cx="1012" cy="1056" r="8" class="c0"/>
<circle cx="1810" cy="824" r="8" class="c0"/>
<circle cx="960" cy="588" r="8" class="c0"/>
<circle cx="1420" cy="532" r="8" class="c0"/>
<circle cx="954" cy="566" r="8" class="c0"/>
<circle cx="1220" cy="582" r="8" class="c0"/>
<circle cx="1504" cy="830" r="8" class="c0"/>
<circle cx="1742" cy="816" r="8" class="c0"/>
<circle cx="1272" cy="498" r="8" class="c0"/>
<circle cx="888" cy="808" r="8" class="c0"/>
<circle cx="970" cy="528" r="8" class="c0"/>
<circle cx="1396" cy="524" r="8" class="c0"/>
<circle cx="828" cy="600" r="8" class="c0"/>
<circle cx="960" cy="920" r="8" class="c0"/>
<circle cx="1026" cy="500" r="8" class="c0"/>
<circle cx="1026" cy="564" r="8" class="c0"/>
<circle cx="1086" cy="546" r="8" class="c0"/>
<circle cx="966" cy="724" r="8" class="c0"/>
<circle cx="936" cy="978" r="8" class="c0"/>
<circle cx="1326" cy="570" r="8" class="c0"/>
<circle cx="1466" cy="682" r="8" class="c0"/>
<circle cx="778" cy="620" r="8" class="c0"/>
<circle cx="1770" cy="644" r="8" class="c0"/>
<circle cx="1904" cy="504" r="8" class="c0"/>
<circle cx="1572" cy="702" r="8" class="c0"/>
<circle cx="1358" cy="710" r="8" class="c0"/>
<circle cx="1668" cy="608" r="8" class="c0"/>
<circle cx="898" cy="618" r="8" class="c0"/>
<circle cx="1888" cy="596" r="8" class="c0"/>
<circle cx="1468" cy="714" r="8" class="c0"/>
<circle cx="1510" cy="738" r="8" class="c0"/>
<circle cx="1090" cy="568" r="8" class="c0"/>
<circle cx="1464" cy="758" r="8" class="c0"/>
<circle cx="812" cy="656" r="8" class="c0"/>
<circle cx="790" cy="688" r="8" class="c0"/>
<circle cx="782" cy="718" r="8" class="c0"/>
<circle cx="1586" cy="808" r="8" class="c0"/>
<circle cx="1550" cy="732" r="8" class="c0"/>
<circle cx="1014" cy="490" r="8" class="c0"/>
<circle cx="1632" cy="824" r="8" class="c0"/>
<circle cx="804" cy="748" r="8" class="c0"/>
<circle cx="976" cy="948" r="8" class="c0"/>
<circle cx="1880" cy="534" r="8" class="c0"/>
<circle cx="922" cy="960" r="8" class="c0"/>
<circle cx="816" cy="516" r="8" class="c0"/>
<circle cx="1840" cy="740" r="8" class="c0"/>
<circle cx="1786" cy="608" r="8" class="c0"/>
<circle cx="1844" cy="548" r="8" class="c0"/>
<circle cx="900" cy="504" r="8" class="c0"/>
<circle cx="998" cy="578" r="8" class="c0"/>
<circle cx="1018" cy="952" r="8" class="c0"/>
<circle cx="992" cy="1040" r="8" class="c0"/>
<circle cx="782" cy="784" r="8" class="c0"/>
<circle cx="1082" cy="610" r="8" class="c0"/>
<circle cx="1256" cy="652" r="8" class="c0"/>
<circle cx="1394" cy="592" r="6" class="c0"/>
<circle cx="1386" cy="626" r="6" class="c0"/>
<circle cx="1476" cy="640" r="6" class="c0"/>
<circle cx="938" cy="878" r="6" class="c0"/>
<circle cx="1026" cy="444" r="6" class="c0"/>
<circle cx="1196" cy="464" r="6" class="c0"/>
<circle cx="1718" cy="600" r="6" class="c0"/>
<circle cx="1348" cy="558" r="6" class="c0"/>
<circle cx="898" cy="910" r="6" class="c0"/>
<circle cx="1538" cy="854" r="6" class="c0"/>
<circle cx="932" cy="840" r="6" class="c0"/>
<circle cx="844" cy="508" r="6" class="c0"/>
<circle cx="818" cy="544" r="6" class="c0"/>
<circle cx="866" cy="546" r="6" class="c0"/>
<circle cx="1612" cy="606" r="6" class="c0"/>
<circle cx="1688" cy="850" r="6" class="c0"/>
<circle cx="1902" cy="770" r="6" class="c0"/>
<circle cx="1482" cy="566" r="6" class="c0"/>
<circle cx="1506" cy="758" r="6" class="c0"/>
<circle cx="882" cy="522" r="6" class="c0"/>
<circle cx="986" cy="484" r="6" class="c0"/>
<circle cx="1484" cy="548" r="6" class="c0"/>
<circle cx="942" cy="534" r="6" class="c0"/>
<circle cx="858" cy="496" r="6" class="c0"/>
<circle cx="1038" cy="880" r="6" class="c0"/>
<circle cx="1408" cy="590" r="6" class="c0"/>
<circle cx="898" cy="888" r="6" class="c0"/>
<circle cx="1094" cy="530" r="6" class="c0"/>
<circle cx="1874" cy="696" r="6" class="c0"/>
<circle cx="1442" cy="672" r="6" class="c0"/>
<circle cx="976" cy="1056" r="6" class="c0"/>
<circle cx="882" cy="788" r="6" class="c0"/>
<circle cx="1282" cy="706" r="6" class="c0"/>
<circle cx="1292" cy="496" r="6" class="c0"/>
<circle cx="944" cy="1086" r="6" class="c0"/>
<circle cx="1662" cy="754" r="6" class="c0"/>
<circle cx="1912" cy="698" r="6" class="c0"/>
<circle cx="1662" cy="822" r="6" class="c0"/>
<circle cx="1030" cy="1048" r="6" class="c0"/>
<circle cx="838" cy="652" r="6" class="c0"/>
<circle cx="924" cy="746" r="6" class="c0"/>
<circle cx="908" cy="600" r="6" class="c0"/>
<circle cx="704" cy="594" r="6" class="c0"/>
<circle cx="1134" cy="542" r="6" class="c0"/>
<circle cx="1862" cy="816" r="6" class="c0"/>
<circle cx="1234" cy="478" r="6" class="c0"/>
<circle cx="934" cy="894" r="6" class="c0"/>
<circle cx="880" cy="654" r="6" class="c0"/>
<circle cx="906" cy="918" r="6" class="c0"/>
<circle cx="736" cy="612" r="6" class="c0"/>
<circle cx="1240" cy="670" r="6" class="c0"/>
<circle cx="780" cy="602" r="6" class="c0"/>
<circle cx="926" cy="502" r="6" class="c0"/>
<circle cx="1464" cy="600" r="6" class="c0"/>
<circle cx="936" cy="472" r="6" class="c0"/>
<circle cx="1720" cy="848" r="6" class="c0"/>
<circle cx="1696" cy="618" r="6" class="c0"/>
<circle cx="1842" cy="716" r="6" class="c0"/>
<circle cx="1602" cy="734" r="6" class="c0"/>
<circle cx="1766" cy="552" r="6" class="c0"/>
<circle cx="1762" cy="658" r="6" class="c0"/>
<circle cx="1156" cy="474" r="6" class="c0"/>
<circle cx="848" cy="634" r="6" class="c0"/>
<circle cx="1640" cy="810" r="6" class="c0"/>
<circle cx="790" cy="550" r="6" class="c0"/>
<circle cx="1180" cy="568" r="6" class="c0"/>
<circle cx="1874" cy="638" r="6" class="c0"/>
<circle cx="1772" cy="792" r="6" class="c0"/>
<circle cx="1212" cy="566" r="6" class="c0"/>
<circle cx="1354" cy="596" r="6" class="c0"/>
<circle cx="1766" cy="620" r="6" class="c0"/>
<circle cx="806" cy="780" r="6" class="c0"/>
<circle cx="1078" cy="436" r="6" class="c0"/>
<circle cx="910" cy="870" r="6" class="c0"/>
<circle cx="950" cy="1034" r="6" class="c0"/>
<circle cx="990" cy="818" r="6" class="c0"/>
<circle cx="1894" cy="786" r="6" class="c0"/>
<circle cx="1468" cy="812" r="6" class="c0"/>
<circle cx="984" cy="776" r="6" class="c0"/>
<circle cx="1006" cy="530" r="6" class="c0"/>
<circle cx="1622" cy="624" r="6" class="c0"/>
<circle cx="1430" cy="706" r="6" class="c0"/>
<circle cx="1452" cy="738" r="6" class="c0"/>
<circle cx="1032" cy="834" r="6" class="c0"/>
<circle cx="1734" cy="694" r="6" class="c0"/>
<circle cx="870" cy="612" r="6" class="c0"/>
<circle cx="1024" cy="982" r="6" class="c0"/>
<circle cx="1428" cy="612" r="6" class="c0"/>
<circle cx="1912" cy="778" r="6" class="c0"/>
<circle cx="1244" cy="512" r="6" class="c0"/>
<circle cx="1588" cy="744" r="6" class="c0"/>
<circle cx="848" cy="664" r="6" class="c0"/>
<circle cx="1272" cy="526" r="6" class="c0"/>
<circle cx="1038" cy="784" r="6" class="c0"/>
<circle cx="1512" cy="674" r="6" class="c0"/>
<circle cx="1738" cy="622" r="6" class="c0"/>
<circle cx="970" cy="600" r="6" class="c0"/>
<circle cx="1726" cy="712" r="6" class="c0"/>
<circle cx="1856" cy="778" r="6" class="c0"/>
<circle cx="1690" cy="662" r="6" class="c0"/>
<circle cx="1642" cy="632" r="6" class="c0"/>
<circle cx="1880" cy="504" r="6" class="c0"/>
<circle cx="698" cy="728" r="6" class="c0"/>
<circle cx="1014" cy="1072" r="6" class="c0"/>
<circle cx="1354" cy="546" r="6" class="c0"/>
<circle cx="934" cy="1006" r="6" class="c0"/>
<circle cx="1328" cy="672" r="6" class="c0"/>
<circle cx="902" cy="856" r="6" class="c0"/>
<circle cx="968" cy="978" r="6" class="c0"/>
<circle cx="1580" cy="626" r="6" class="c0"/>
<circle cx="1302" cy="650" r="6" class="c0"/>
<circle cx="962" cy="870" r="6" class="c0"/>
<circle cx="1578" cy="790" r="6" class="c0"/>
<circle cx="786" cy="634" r="6" class="c0"/>
<circle cx="1786" cy="726" r="6" class="c0"/>
<circle cx="1292" cy="658" r="6" class="c0"/>
<circle cx="808" cy="812" r="6" class="c0"/>
<circle cx="1206" cy="592" r="6" class="c0"/>
<circle cx="1408" cy="800" r="6" class="c0"/>
<circle cx="1512" cy="646" r="6" class="c0"/>
<circle cx="1736" cy="568" r="6" class="c0"/>
<circle cx="1332" cy="622" r="6" class="c0"/>
<circle cx="1048" cy="636" r="6" class="c0"/>
<circle cx="1056" cy="562" r="6" class="c0"/>
<circle cx="826" cy="536" r="6" class="c0"/>
<circle cx="1564" cy="802" r="6" class="c0"/>
<circle cx="910" cy="776" r="6" class="c0"/>
<circle cx="738" cy="714" r="6" class="c0"/>
<circle cx="1526" cy="620" r="6" class="c0"/>
<circle cx="1714" cy="760" r="6" class="c0"/>
<circle cx="1544" cy="808" r="6" class="c0"/>
<circle cx="1334" cy="714" r="6" class="c0"/>
<circle cx="994" cy="540" r="6" class="c0"/>
<circle cx="1390" cy="784" r="6" class="c0"/>
<circle cx="1780" cy="760" r="6" class="c0"/>
<circle cx="936" cy="718" r="6" class="c0"/>
<circle cx="1870" cy="736" r="6" class="c0"/>
<circle cx="900" cy="688" r="6" class="c0"/>
<circle cx="1126" cy="526" r="6" class="c0"/>
<circle cx="1796" cy="692" r="6" class="c0"/>
<circle cx="1544" cy="828" r="6" class="c0"/>
<circle cx="1662" cy="682" r="6" class="c0"/>
<circle cx="1892" cy="760" r="6" class="c0"/>
<circle cx="908" cy="700" r="6" class="c0"/>
<circle cx="1042" cy="990" r="6" class="c0"/>
<circle cx="1226" cy="558" r="6" class="c0"/>
<circle cx="1460" cy="728" r="6" class="c0"/>
<circle cx="1346" cy="752" r="6" class="c0"/>
<circle cx="890" cy="728" r="6" class="c0"/>
<circle cx="1578" cy="592" r="6" class="c0"/>
<circle cx="1356" cy="612" r="6" class="c0"/>
<circle cx="1226" cy="538" r="6" class="c0"/>
<circle cx="918" cy="1082" r="6" class="c0"/>
<circle cx="958" cy="740" r="6" class="c0"/>
<circle cx="1444" cy="656" r="6" class="c0"/>
<circle cx="1244" cy="642" r="6" class="c0"/>
<circle cx="958" cy="464" r="6" class="c0"/>
<circle cx="1360" cy="566" r="6" class="c0"/>
<circle cx="1190" cy="552" r="6" class="c0"/>
<circle cx="1304" cy="582" r="6" class="c0"/>
<circle cx="1560" cy="632" r="6" class="c0"/>
<circle cx="1686" cy="832" r="6" class="c0"/>
<circle cx="1516" cy="704" r="6" class="c0"/>
<circle cx="1050" cy="480" r="6" class="c0"/>
<circle cx="1850" cy="728" r="6" class="c0"/>
<circle cx="1102" cy="522" r="6" class="c0"/>
<circle cx="902" cy="818" r="6" class="c0"/>
<circle cx="1908" cy="622" r="6" class="c0"/>
<circle cx="1788" cy="680" r="6" class="c0"/>
<circle cx="924" cy="1064" r="6" class="c0"/>
<circle cx="1428" cy="764" r="6" class="c0"/>
<circle cx="1308" cy="498" r="6" class="c0"/>
<circle cx="1666" cy="736" r="6" class="c0"/>
<circle cx="950" cy="784" r="6" class="c0"/>
<circle cx="1800" cy="760" r="6" class="c0"/>
<circle cx="1686" cy="760" r="6" class="c0"/>
<circle cx="718" cy="754" r="6" class="c0"/>
<circle cx="988" cy="938" r="6" class="c0"/>
<circle cx="1426" cy="562" r="6" class="c0"/>
<circle cx="966" cy="502" r="6" class="c0"/>
<circle cx="1844" cy="590" r="6" class="c0"/>
<circle cx="1022" cy="680" r="6" class="c0"/>
<circle cx="1540" cy="674" r="6" class="c0"/>
<circle cx="1242" cy="606" r="6" class="c0"/>
<circle cx="1610" cy="862" r="6" class="c0"/>
<circle cx="1110" cy="568" r="6" class="c0"/>
<circle cx="1030" cy="888" r="6" class="c0"/>
<circle cx="1478" cy="724" r="6" class="c0"/>
<circle cx="1882" cy="554" r="6" class="c0"/>
<circle cx="1026" cy="612" r="6" class="c0"/>
<circle cx="818" cy="574" r="6" class="c0"/>
<circle cx="1060" cy="524" r="6" class="c0"/>
<circle cx="1592" cy="668" r="6" class="c0"/>
<circle cx="1074" cy="596" r="6" class="c0"/>
<circle cx="1616" cy="786" r="6" class="c0"/>
<circle cx="1656" cy="726" r="6" class="c0"/>
<circle cx="1668" cy="792" r="6" class="c0"/>
<circle cx="1870" cy="794" r="6" class="c0"/>
<circle cx="1030" cy="518" r="6" class="c0"/>
<circle cx="882" cy="624" r="6" class="c0"/>
<circle cx="672" cy="706" r="6" class="c0"/>
<circle cx="1008" cy="938" r="6" class="c0"/>
<circle cx="1386" cy="602" r="6" class="c0"/>
<circle cx="808" cy="692" r="6" class="c0"/>
<circle cx="1036" cy="800" r="6" class="c0"/>
<circle cx="992" cy="980" r="6" class="c0"/>
<circle cx="946" cy="580" r="6" class="c0"/>
<circle cx="1732" cy="610" r="6" class="c0"/>
<circle cx="876" cy="536" r="6" class="c0"/>
<circle cx="758" cy="580" r="6" class="c0"/>
<circle cx="1896" cy="532" r="6" class="c0"/>
<circle cx="1052" cy="1076" r="6" class="c0"/>
<circle cx="956" cy="1080" r="6" class="c0"/>
<circle cx="784" cy="526" r="6" class="c0"/>
<circle cx="874" cy="638" r="6" class="c0"/>
<circle cx="1360" cy="738" r="6" class="c0"/>
<circle cx="954" cy="970" r="6" class="c0"/>
<circle cx="1890" cy="668" r="6" class="c0"/>
<circle cx="1912" cy="682" r="6" class="c0"/>
<circle cx="1508" cy="814" r="6" class="c0"/>
<circle cx="1854" cy="530" r="6" class="c0"/>
<circle cx="1912" cy="540" r="6" class="c0"/>
<circle cx="952" cy="752" r="6" class="c0"/>
<circle cx="1256" cy="604" r="6" class="c0"/>
<circle cx="1208" cy="470" r="6" class="c0"/>
<circle cx="1784" cy="712" r="6" class="c0"/>
<circle cx="1700" cy="798" r="6" class="c0"/>
<circle cx="1560" cy="672" r="6" class="c0"/>
<circle cx="714" cy="722" r="6" class="c0"/>
<circle cx="1476" cy="768" r="6" class="c0"/>
<circle cx="1676" cy="594" r="6" class="c0"/>
<circle cx="1744" cy="560" r="6" class="c0"/>
<circle cx="986" cy="832" r="6" class="c0"/>
<circle cx="1562" cy="716" r="6" class="c0"/>
<circle cx="1648" cy="818" r="6" class="c0"/>
<circle cx="1514" cy="626" r="6" class="c0"/>
<circle cx="1388" cy="760" r="6" class="c0"/>
<circle cx="1390" cy="556" r="6" class="c0"/>
<circle cx="1034" cy="956" r="6" class="c0"/>
<circle cx="1518" cy="752" r="6" class="c0"/>
<circle cx="1874" cy="660" r="6" class="c0"/>
<circle cx="1840" cy="640" r="6" class="c0"/>
<circle cx="1654" cy="858" r="6" class="c0"/>
<circle cx="1394" cy="696" r="6" class="c0"/>
<circle cx="1780" cy="800" r="6" class="c0"/>
<circle cx="1560" cy="834" r="6" class="c0"/>
<circle cx="1196" cy="536" r="6" class="c0"/>
<circle cx="1040" cy="488" r="6" class="c0"/>
<circle cx="1630" cy="614" r="6" class="c0"/>
<circle cx="940" cy="792" r="6" class="c0"/>
<circle cx="1318" cy="506" r="6" class="c0"/>
<circle cx="1576" cy="850" r="6" class="c0"/>
<circle cx="1572" cy="680" r="6" class="c0"/>
<circle cx="986" cy="558" r="6" class="c0"/>
<circle cx="868" cy="668" r="6" class="c0"/>
<circle cx="1808" cy="662" r="6" class="c0"/>
<circle cx="772" cy="774" r="6" class="c0"/>
<circle cx="1014" cy="574" r="6" class="c0"/>
<circle cx="1310" cy="546" r="6" class="c0"/>
<circle cx="1406" cy="656" r="6" class="c0"/>
<circle cx="1416" cy="792" r="6" class="c0"/>
<circle cx="1596" cy="842" r="6" class="c0"/>
<circle cx="1822" cy="614" r="6" class="c0"/>
<circle cx="1912" cy="564" r="6" class="c0"/>
<circle cx="1696" cy="634" r="6" class="c0"/>
<circle cx="1436" cy="534" r="6" class="c0"/>
<circle cx="1812" cy="692" r="6" class="c0"/>
<circle cx="1820" cy="792" r="6" class="c0"/>
<circle cx="1128" cy="584" r="6" class="c0"/>
<circle cx="1570" cy="814" r="6" class="c0"/>
<circle cx="1614" cy="724" r="6" class="c0"/>
<circle cx="906" cy="900" r="6" class="c0"/>
<circle cx="1420" cy="600" r="6" class="c0"/>
<circle cx="706" cy="760" r="6" class="c0"/>
<circle cx="714" cy="666" r="6" class="c0"/>
<circle cx="1450" cy="680" r="6" class="c0"/>
<circle cx="1284" cy="548" r="6" class="c0"/>
<circle cx="1040" cy="446" r="6" class="c0"/>
<circle cx="1838" cy="822" r="6" class="c0"/>
<circle cx="1160" cy="572" r="6" class="c0"/>
<circle cx="1234" cy="614" r="6" class="c0"/>
<circle cx="1334" cy="744" r="6" class="c0"/>
<circle cx="1834" cy="558" r="6" class="c0"/>
<circle cx="892" cy="566" r="6" class="c0"/>
<circle cx="982" cy="762" r="6" class="c0"/>
<circle cx="982" cy="894" r="6" class="c0"/>
<circle cx="1608" cy="684" r="6" class="c0"/>
<circle cx="1560" cy="764" r="6" class="c0"/>
<circle cx="1630" cy="840" r="6" class="c0"/>
<circle cx="1040" cy="1082" r="6" class="c0"/>
<circle cx="1096" cy="482" r="6" class="c0"/>
<circle cx="1478" cy="782" r="6" class="c0"/>
<circle cx="962" cy="1068" r="6" class="c0"/>
<circle cx="1368" cy="576" r="6" class="c0"/>
<circle cx="1040" cy="864" r="6" class="c0"/>
<circle cx="1596" cy="818" r="6" class="c0"/>
<circle cx="1378" cy="516" r="6" class="c0"/>
<circle cx="1880" cy="722" r="6" class="c0"/>
<circle cx="1452" cy="718" r="6" class="c0"/>
<circle cx="1120" cy="576" r="6" class="c0"/>
<circle cx="1798" cy="618" r="6" class="c0"/>
<circle cx="1830" cy="750" r="6" class="c0"/>
<circle cx="938" cy="704" r="6" class="c0"/>
<circle cx="874" cy="558" r="6" class="c0"/>
<circle cx="906" cy="546" r="6" class="c0"/>
</svg>
