<?xml version="1.0" encoding="utf-8"?>
<svg xmlns="http://www.w3.org/2000/svg"
     xmlns:xlink="http://www.w3.org/1999/xlink" width="1920" height="1440" >

            <defs>
            <style type="text/css"><![CDATA[
circle {stroke: none;}
.c0 {fill: #FFFFFF;}
]]></style>
            </defs>
<rect x="0" y="0" width="1920" height="1440" fill="black"/>
<circle cx="1322" cy="426" r="14" class="c0"/>
<circle cx="974" cy="294" r="14" class="c0"/>
<circle cx="1584" cy="518" r="12" class="c0"/>
<circle cx="822" cy="1216" r="12" class="c0"/>
<circle cx="1686" cy="624" r="12" class="c0"/>
<circle cx="970" cy="418" r="12" class="c0"/>
<circle cx="1464" cy="544" r="12" class="c0"/>
<circle cx="890" cy="1114" r="12" class="c0"/>
<circle cx="790" cy="1112" r="12" class="c0"/>
<circle cx="1424" cy="598" r="12" class="c0"/>
<circle cx="1208" cy="462" r="12" class="c0"/>
<circle cx="974" cy="380" r="12" class="c0"/>
<circle cx="692" cy="338" r="12" class="c0"/>
<circle cx="970" cy="1338" r="12" class="c0"/>
<circle cx="1358" cy="422" r="12" class="c0"/>
<circle cx="1718" cy="516" r="12" class="c0"/>
<circle cx="896" cy="1162" r="12" class="c0"/>
<circle cx="1628" cy="578" r="12" class="c0"/>
<circle cx="1818" cy="574" r="12" class="c0"/>
<circle cx="1346" cy="372" r="12" class="c0"/>
<circle cx="1106" cy="416" r="12" class="c0"/>
<circle cx="1460" cy="364" r="12" class="c0"/>
<circle cx="1840" cy="500" r="12" class="c0"/>
<circle cx="1694" cy="594" r="12" class="c0"/>
<circle cx="1728" cy="436" r="12" class="c0"/>
<circle cx="1614" cy="400" r="12" class="c0"/>
<circle cx="1118" cy="346" r="12" class="c0"/>
<circle cx="1602" cy="474" r="12" class="c0"/>
<circle cx="1458" cy="408" r="12" class="c0"/>
<circle cx="1278" cy="370" r="12" class="c0"/>
<circle cx="1080" cy="342" r="12" class="c0"/>
<circle cx="898" cy="1358" r="12" class="c0"/>
<circle cx="776" cy="364" r="12" class="c0"/>
<circle cx="1654" cy="550" r="12" class="c0"/>
<circle cx="1824" cy="612" r="12" class="c0"/>
<circle cx="866" cy="1164" r="12" class="c0"/>
<circle cx="802" cy="510" r="12" class="c0"/>
<circle cx="1702" cy="550" r="12" class="c0"/>
<circle cx="1760" cy="696" r="12" class="c0"/>
<circle cx="1856" cy="650" r="12" class="c0"/>
<circle cx="1726" cy="700" r="12" class="c0"/>
<circle cx="1882" cy="390" r="12" class="c0"/>
<circle cx="1752" cy="460" r="12" class="c0"/>
<circle cx="1676" cy="568" r="12" class="c0"/>
<circle cx="1510" cy="574" r="12" class="c0"/>
<circle cx="1494" cy="622" r="12" class="c0"/>
<circle cx="756" cy="502" r="12" class="c0"/>
<circle cx="772" cy="328" r="12" class="c0"/>
<circle cx="1056" cy="374" r="12" class="c0"/>
<circle cx="1698" cy="406" r="12" class="c0"/>
<circle cx="1250" cy="438" r="12" class="c0"/>
<circle cx="1882" cy="716" r="12" class="c0"/>
<circle cx="848" cy="1248" r="12" class="c0"/>
<circle cx="910" cy="302" r="12" class="c0"/>
<circle cx="1808" cy="520" r="12" class="c0"/>
<circle cx="858" cy="1114" r="12" class="c0"/>
<circle cx="1808" cy="678" r="12" class="c0"/>
<circle cx="1394" cy="496" r="12" class="c0"/>
<circle cx="848" cy="1276" r="12" class="c0"/>
<circle cx="1886" cy="586" r="12" class="c0"/>
<circle cx="1696" cy="664" r="12" class="c0"/>
<circle cx="838" cy="1134" r="12" class="c0"/>
<circle cx="1508" cy="488" r="12" class="c0"/>
<circle cx="1514" cy="418" r="12" class="c0"/>
<circle cx="1812" cy="420" r="12" class="c0"/>
<circle cx="726" cy="402" r="12" class="c0"/>
<circle cx="1398" cy="544" r="12" class="c0"/>
<circle cx="1460" cy="482" r="12" class="c0"/>
<circle cx="856" cy="354" r="10" class="c0"/>
<circle cx="1194" cy="322" r="10" class="c0"/>
<circle cx="1008" cy="304" r="10" class="c0"/>
<circle cx="672" cy="422" r="10" class="c0"/>
<circle cx="1902" cy="378" r="10" class="c0"/>
<circle cx="1758" cy="652" r="10" class="c0"/>
<circle cx="1230" cy="416" r="10" class="c0"/>
<circle cx="1634" cy="476" r="10" class="c0"/>
<circle cx="1392" cy="588" r="10" class="c0"/>
<circle cx="1812" cy="452" r="10" class="c0"/>
<circle cx="1714" cy="578" r="10" class="c0"/>
<circle cx="744" cy="424" r="10" class="c0"/>
<circle cx="1670" cy="418" r="10" class="c0"/>
<circle cx="884" cy="1204" r="10" class="c0"/>
<circle cx="888" cy="316" r="10" class="c0"/>
<circle cx="1116" cy="458" r="10" class="c0"/>
<circle cx="1896" cy="522" r="10" class="c0"/>
<circle cx="1174" cy="458" r="10" class="c0"/>
<circle cx="1648" cy="672" r="10" class="c0"/>
<circle cx="912" cy="406" r="10" class="c0"/>
<circle cx="1536" cy="600" r="10" class="c0"/>
<circle cx="1058" cy="304" r="10" class="c0"/>
<circle cx="910" cy="1312" r="10" class="c0"/>
<circle cx="1576" cy="666" r="10" class="c0"/>
<circle cx="860" cy="392" r="10" class="c0"/>
<circle cx="766" cy="1094" r="10" class="c0"/>
<circle cx="864" cy="1224" r="10" class="c0"/>
<circle cx="724" cy="364" r="10" class="c0"/>
<circle cx="1138" cy="404" r="10" class="c0"/>
<circle cx="1740" cy="610" r="10" class="c0"/>
<circle cx="1112" cy="390" r="10" class="c0"/>
<circle cx="896" cy="356" r="10" class="c0"/>
<circle cx="1908" cy="540" r="10" class="c0"/>
<circle cx="1848" cy="396" r="10" class="c0"/>
<circle cx="1574" cy="546" r="10" class="c0"/>
<circle cx="656" cy="468" r="10" class="c0"/>
<circle cx="1208" cy="408" r="10" class="c0"/>
<circle cx="1420" cy="420" r="10" class="c0"/>
<circle cx="832" cy="288" r="10" class="c0"/>
<circle cx="970" cy="1286" r="10" class="c0"/>
<circle cx="750" cy="346" r="10" class="c0"/>
<circle cx="942" cy="1304" r="10" class="c0"/>
<circle cx="920" cy="1192" r="10" class="c0"/>
<circle cx="1748" cy="580" r="10" class="c0"/>
<circle cx="1612" cy="630" r="10" class="c0"/>
<circle cx="740" cy="470" r="10" class="c0"/>
<circle cx="1770" cy="514" r="10" class="c0"/>
<circle cx="1868" cy="426" r="10" class="c0"/>
<circle cx="1026" cy="390" r="10" class="c0"/>
<circle cx="1384" cy="408" r="10" class="c0"/>
<circle cx="1904" cy="630" r="10" class="c0"/>
<circle cx="882" cy="1376" r="10" class="c0"/>
<circle cx="1862" cy="598" r="10" class="c0"/>
<circle cx="1826" cy="434" r="10" class="c0"/>
<circle cx="1136" cy="306" r="10" class="c0"/>
<circle cx="1570" cy="390" r="10" class="c0"/>
<circle cx="1806" cy="556" r="10" class="c0"/>
<circle cx="894" cy="1250" r="10" class="c0"/>
<circle cx="908" cy="1288" r="10" class="c0"/>
<circle cx="1884" cy="544" r="10" class="c0"/>
<circle cx="1312" cy="350" r="10" class="c0"/>
<circle cx="1596" cy="590" r="10" class="c0"/>
<circle cx="874" cy="1048" r="10" class="c0"/>
<circle cx="1022" cy="412" r="10" class="c0"/>
<circle cx="1710" cy="472" r="10" class="c0"/>
<circle cx="752" cy="314" r="10" class="c0"/>
<circle cx="1780" cy="584" r="10" class="c0"/>
<circle cx="1052" cy="350" r="10" class="c0"/>
<circle cx="1678" cy="508" r="10" class="c0"/>
<circle cx="832" cy="1086" r="10" class="c0"/>
<circle cx="816" cy="318" r="10" class="c0"/>
<circle cx="1712" cy="646" r="10" class="c0"/>
<circle cx="818" cy="1186" r="10" class="c0"/>
<circle cx="766" cy="388" r="10" class="c0"/>
<circle cx="666" cy="362" r="10" class="c0"/>
<circle cx="1820" cy="644" r="10" class="c0"/>
<circle cx="1442" cy="582" r="10" class="c0"/>
<circle cx="928" cy="1376" r="10" class="c0"/>
<circle cx="820" cy="1114" r="10" class="c0"/>
<circle cx="880" cy="1334" r="10" class="c0"/>
<circle cx="804" cy="466" r="10" class="c0"/>
<circle cx="1020" cy="452" r="10" class="c0"/>
<circle cx="1316" cy="376" r="10" class="c0"/>
<circle cx="1522" cy="516" r="10" class="c0"/>
<circle cx="1380" cy="476" r="10" class="c0"/>
<circle cx="1082" cy="452" r="10" class="c0"/>
<circle cx="654" cy="446" r="10" class="c0"/>
<circle cx="1590" cy="430" r="10" class="c0"/>
<circle cx="1444" cy="500" r="10" class="c0"/>
<circle cx="1106" cy="476" r="10" class="c0"/>
<circle cx="1666" cy="494" r="10" class="c0"/>
<circle cx="1774" cy="606" r="10" class="c0"/>
<circle cx="1668" cy="394" r="10" class="c0"/>
<circle cx="1898" cy="448" r="10" class="c0"/>
<circle cx="1656" cy="466" r="10" class="c0"/>
<circle cx="890" cy="1078" r="10" class="c0"/>
<circle cx="914" cy="382" r="10" class="c0"/>
<circle cx="1202" cy="378" r="10" class="c0"/>
<circle cx="902" cy="1136" r="10" class="c0"/>
<circle cx="1336" cy="392" r="10" class="c0"/>
<circle cx="1542" cy="554" r="10" class="c0"/>
<circle cx="1550" cy="626" r="10" class="c0"/>
<circle cx="1626" cy="704" r="10" class="c0"/>
<circle cx="1286" cy="490" r="10" class="c0"/>
<circle cx="1756" cy="432" r="10" class="c0"/>
<circle cx="1336" cy="456" r="10" class="c0"/>
<circle cx="1474" cy="496" r="10" class="c0"/>
<circle cx="1618" cy="522" r="10" class="c0"/>
<circle cx="1478" cy="384" r="10" class="c0"/>
<circle cx="1120" cy="370" r="10" class="c0"/>
<circle cx="1342" cy="516" r="10" class="c0"/>
<circle cx="1188" cy="390" r="10" class="c0"/>
<circle cx="1730" cy="498" r="10" class="c0"/>
<circle cx="930" cy="1324" r="10" class="c0"/>
<circle cx="824" cy="474" r="10" class="c0"/>
<circle cx="1832" cy="730" r="10" class="c0"/>
<circle cx="1266" cy="418" r="10" class="c0"/>
<circle cx="1558" cy="450" r="10" class="c0"/>
<circle cx="1646" cy="604" r="10" class="c0"/>
<circle cx="1272" cy="472" r="10" class="c0"/>
<circle cx="832" cy="370" r="10" class="c0"/>
<circle cx="1536" cy="644" r="10" class="c0"/>
<circle cx="1624" cy="500" r="10" class="c0"/>
<circle cx="788" cy="382" r="10" class="c0"/>
<circle cx="1718" cy="416" r="10" class="c0"/>
<circle cx="1486" cy="558" r="10" class="c0"/>
<circle cx="1132" cy="426" r="10" class="c0"/>
<circle cx="1894" cy="666" r="10" class="c0"/>
<circle cx="1570" cy="482" r="10" class="c0"/>
<circle cx="1868" cy="490" r="10" class="c0"/>
<circle cx="1532" cy="476" r="10" class="c0"/>
<circle cx="1522" cy="664" r="10" class="c0"/>
<circle cx="1506" cy="548" r="10" class="c0"/>
<circle cx="1508" cy="646" r="10" class="c0"/>
<circle cx="1744" cy="542" r="10" class="c0"/>
<circle cx="734" cy="546" r="10" class="c0"/>
<circle cx="908" cy="1222" r="10" class="c0"/>
<circle cx="1442" cy="610" r="10" class="c0"/>
<circle cx="1368" cy="548" r="10" class="c0"/>
<circle cx="924" cy="1274" r="10" class="c0"/>
<circle cx="1540" cy="364" r="10" class="c0"/>
<circle cx="1836" cy="554" r="10" class="c0"/>
<circle cx="1772" cy="480" r="10" class="c0"/>
<circle cx="1368" cy="494" r="10" class="c0"/>
<circle cx="1174" cy="430" r="10" class="c0"/>
<circle cx="712" cy="320" r="10" class="c0"/>
<circle cx="1494" cy="594" r="10" class="c0"/>
<circle cx="1630" cy="382" r="10" class="c0"/>
<circle cx="1304" cy="452" r="10" class="c0"/>
<circle cx="1502" cy="450" r="10" class="c0"/>
<circle cx="1380" cy="566" r="10" class="c0"/>
<circle cx="1366" cy="448" r="10" class="c0"/>
<circle cx="1032" cy="300" r="10" class="c0"/>
<circle cx="838" cy="1194" r="10" class="c0"/>
<circle cx="1466" cy="436" r="10" class="c0"/>
<circle cx="772" cy="454" r="10" class="c0"/>
<circle cx="1466" cy="624" r="10" class="c0"/>
<circle cx="1240" cy="394" r="10" class="c0"/>
<circle cx="1626" cy="544" r="10" class="c0"/>
<circle cx="1634" cy="448" r="10" class="c0"/>
<circle cx="1420" cy="358" r="10" class="c0"/>
<circle cx="1626" cy="618" r="10" class="c0"/>
<circle cx="1082" cy="410" r="10" class="c0"/>
<circle cx="902" cy="1384" r="10" class="c0"/>
<circle cx="938" cy="412" r="10" class="c0"/>
<circle cx="1044" cy="324" r="10" class="c0"/>
<circle cx="882" cy="400" r="10" class="c0"/>
<circle cx="920" cy="344" r="10" class="c0"/>
<circle cx="1228" cy="334" r="10" class="c0"/>
<circle cx="850" cy="306" r="10" class="c0"/>
<circle cx="1258" cy="326" r="10" class="c0"/>
<circle cx="766" cy="300" r="10" class="c0"/>
<circle cx="1312" cy="474" r="10" class="c0"/>
<circle cx="820" cy="404" r="10" class="c0"/>
<circle cx="1610" cy="604" r="10" class="c0"/>
<circle cx="884" cy="1268" r="10" class="c0"/>
<circle cx="874" cy="330" r="10" class="c0"/>
<circle cx="1588" cy="688" r="10" class="c0"/>
<circle cx="1778" cy="438" r="10" class="c0"/>
<circle cx="698" cy="388" r="10" class="c0"/>
<circle cx="1008" cy="346" r="10" class="c0"/>
<circle cx="1610" cy="666" r="10" class="c0"/>
<circle cx="1334" cy="354" r="10" class="c0"/>
<circle cx="802" cy="438" r="10" class="c0"/>
<circle cx="1444" cy="464" r="8" class="c0"/>
<circle cx="1724" cy="600" r="8" class="c0"/>
<circle cx="842" cy="1224" r="8" class="c0"/>
<circle cx="1842" cy="664" r="8" class="c0"/>
<circle cx="1864" cy="466" r="8" class="c0"/>
<circle cx="1686" cy="490" r="8" class="c0"/>
<circle cx="934" cy="356" r="8" class="c0"/>
<circle cx="1298" cy="384" r="8" class="c0"/>
<circle cx="1344" cy="536" r="8" class="c0"/>
<circle cx="1300" cy="330" r="8" class="c0"/>
<circle cx="1686" cy="532" r="8" class="c0"/>
<circle cx="1030" cy="518" r="8" class="c0"/>
<circle cx="1088" cy="308" r="8" class="c0"/>
<circle cx="1032" cy="440" r="8" class="c0"/>
<circle cx="1634" cy="724" r="8" class="c0"/>
<circle cx="816" cy="1152" r="8" class="c0"/>
<circle cx="806" cy="1068" r="8" class="c0"/>
<circle cx="1052" cy="406" r="8" class="c0"/>
<circle cx="1414" cy="566" r="8" class="c0"/>
<circle cx="796" cy="1152" r="8" class="c0"/>
<circle cx="958" cy="338" r="8" class="c0"/>
<circle cx="1910" cy="590" r="8" class="c0"/>
<circle cx="1272" cy="394" r="8" class="c0"/>
<circle cx="932" cy="1348" r="8" class="c0"/>
<circle cx="1626" cy="654" r="8" class="c0"/>
<circle cx="790" cy="310" r="8" class="c0"/>
<circle cx="798" cy="410" r="8" class="c0"/>
<circle cx="1208" cy="438" r="8" class="c0"/>
<circle cx="782" cy="1080" r="8" class="c0"/>
<circle cx="934" cy="322" r="8" class="c0"/>
<circle cx="1854" cy="524" r="8" class="c0"/>
<circle cx="1158" cy="350" r="8" class="c0"/>
<circle cx="876" cy="1098" r="8" class="c0"/>
<circle cx="1526" cy="444" r="8" class="c0"/>
<circle cx="1050" cy="472" r="8" class="c0"/>
<circle cx="852" cy="1092" r="8" class="c0"/>
<circle cx="1658" cy="718" r="8" class="c0"/>
<circle cx="1054" cy="446" r="8" class="c0"/>
<circle cx="1488" cy="424" r="8" class="c0"/>
<circle cx="1762" cy="626" r="8" class="c0"/>
<circle cx="1710" cy="624" r="8" class="c0"/>
<circle cx="1908" cy="696" r="8" class="c0"/>
<circle cx="850" cy="1062" r="8" class="c0"/>
<circle cx="944" cy="1360" r="8" class="c0"/>
<circle cx="842" cy="1160" r="8" class="c0"/>
<circle cx="1084" cy="378" r="8" class="c0"/>
<circle cx="748" cy="374" r="8" class="c0"/>
<circle cx="1568" cy="420" r="8" class="c0"/>
<circle cx="1732" cy="570" r="8" class="c0"/>
<circle cx="1502" cy="510" r="8" class="c0"/>
<circle cx="1876" cy="658" r="8" class="c0"/>
<circle cx="1436" cy="534" r="8" class="c0"/>
<circle cx="1788" cy="492" r="8" class="c0"/>
<circle cx="1876" cy="514" r="8" class="c0"/>
<circle cx="1402" cy="400" r="8" class="c0"/>
<circle cx="1636" cy="426" r="8" class="c0"/>
<circle cx="638" cy="384" r="8" class="c0"/>
<circle cx="784" cy="1164" r="8" class="c0"/>
<circle cx="1562" cy="580" r="8" class="c0"/>
<circle cx="1266" cy="346" r="8" class="c0"/>
<circle cx="1852" cy="674" r="8" class="c0"/>
<circle cx="864" cy="1298" r="8" class="c0"/>
<circle cx="808" cy="358" r="8" class="c0"/>
<circle cx="1034" cy="340" r="8" class="c0"/>
<circle cx="1414" cy="482" r="8" class="c0"/>
<circle cx="1102" cy="330" r="8" class="c0"/>
<circle cx="1460" cy="510" r="8" class="c0"/>
<circle cx="1682" cy="680" r="8" class="c0"/>
<circle cx="1488" cy="466" r="8" class="c0"/>
<circle cx="1282" cy="436" r="8" class="c0"/>
<circle cx="1818" cy="538" r="8" class="c0"/>
<circle cx="1546" cy="502" r="8" class="c0"/>
<circle cx="1786" cy="416" r="8" class="c0"/>
<circle cx="1044" cy="430" r="8" class="c0"/>
<circle cx="1696" cy="518" r="8" class="c0"/>
<circle cx="726" cy="526" r="8" class="c0"/>
<circle cx="1792" cy="696" r="8" class="c0"/>
<circle cx="1160" cy="446" r="8" class="c0"/>
<circle cx="1784" cy="628" r="8" class="c0"/>
<circle cx="1770" cy="724" r="8" class="c0"/>
<circle cx="1194" cy="344" r="8" class="c0"/>
<circle cx="1102" cy="444" r="8" class="c0"/>
<circle cx="948" cy="310" r="8" class="c0"/>
<circle cx="896" cy="1192" r="8" class="c0"/>
<circle cx="1458" cy="454" r="8" class="c0"/>
<circle cx="1434" cy="440" r="8" class="c0"/>
<circle cx="1180" cy="300" r="8" class="c0"/>
<circle cx="866" cy="1140" r="8" class="c0"/>
<circle cx="1508" cy="370" r="8" class="c0"/>
<circle cx="1376" cy="344" r="8" class="c0"/>
<circle cx="1908" cy="412" r="8" class="c0"/>
<circle cx="1006" cy="432" r="8" class="c0"/>
<circle cx="1170" cy="310" r="8" class="c0"/>
<circle cx="762" cy="416" r="8" class="c0"/>
<circle cx="1750" cy="510" r="8" class="c0"/>
<circle cx="1492" cy="404" r="8" class="c0"/>
<circle cx="1192" cy="362" r="8" class="c0"/>
<circle cx="1354" cy="350" r="8" class="c0"/>
<circle cx="1344" cy="438" r="8" class="c0"/>
<circle cx="1514" cy="392" r="8" class="c0"/>
<circle cx="1568" cy="644" r="8" class="c0"/>
<circle cx="1140" cy="450" r="8" class="c0"/>
<circle cx="1480" cy="644" r="8" class="c0"/>
<circle cx="1074" cy="364" r="8" class="c0"/>
<circle cx="914" cy="1242" r="8" class="c0"/>
<circle cx="1478" cy="450" r="8" class="c0"/>
<circle cx="686" cy="364" r="8" class="c0"/>
<circle cx="864" cy="1318" r="8" class="c0"/>
<circle cx="1702" cy="500" r="8" class="c0"/>
<circle cx="1782" cy="460" r="8" class="c0"/>
<circle cx="1516" cy="598" r="8" class="c0"/>
<circle cx="1780" cy="648" r="8" class="c0"/>
<circle cx="1770" cy="550" r="8" class="c0"/>
<circle cx="1172" cy="366" r="8" class="c0"/>
<circle cx="1790" cy="538" r="8" class="c0"/>
<circle cx="1692" cy="744" r="8" class="c0"/>
<circle cx="1822" cy="474" r="8" class="c0"/>
<circle cx="1802" cy="636" r="8" class="c0"/>
<circle cx="1612" cy="444" r="8" class="c0"/>
<circle cx="1908" cy="498" r="8" class="c0"/>
<circle cx="1434" cy="482" r="8" class="c0"/>
<circle cx="1162" cy="390" r="8" class="c0"/>
<circle cx="1452" cy="384" r="8" class="c0"/>
<circle cx="750" cy="446" r="8" class="c0"/>
<circle cx="692" cy="438" r="8" class="c0"/>
<circle cx="1600" cy="546" r="8" class="c0"/>
<circle cx="1552" cy="406" r="8" class="c0"/>
<circle cx="980" cy="1308" r="8" class="c0"/>
<circle cx="1702" cy="428" r="8" class="c0"/>
<circle cx="1316" cy="538" r="8" class="c0"/>
<circle cx="1540" cy="430" r="8" class="c0"/>
<circle cx="824" cy="1054" r="8" class="c0"/>
<circle cx="1436" cy="556" r="8" class="c0"/>
<circle cx="1142" cy="358" r="8" class="c0"/>
<circle cx="992" cy="326" r="8" class="c0"/>
<circle cx="1170" cy="478" r="8" class="c0"/>
<circle cx="954" cy="366" r="8" class="c0"/>
<circle cx="912" cy="1120" r="8" class="c0"/>
<circle cx="1210" cy="310" r="8" class="c0"/>
<circle cx="872" cy="1244" r="8" class="c0"/>
<circle cx="1650" cy="406" r="8" class="c0"/>
<circle cx="1848" cy="476" r="8" class="c0"/>
<circle cx="862" cy="1196" r="8" class="c0"/>
<circle cx="1226" cy="444" r="8" class="c0"/>
<circle cx="1242" cy="488" r="8" class="c0"/>
<circle cx="1008" cy="382" r="8" class="c0"/>
<circle cx="940" cy="294" r="8" class="c0"/>
<circle cx="1294" cy="508" r="8" class="c0"/>
<circle cx="1672" cy="606" r="8" class="c0"/>
<circle cx="1832" cy="678" r="8" class="c0"/>
<circle cx="1404" cy="446" r="8" class="c0"/>
<circle cx="1268" cy="520" r="8" class="c0"/>
<circle cx="1734" cy="474" r="8" class="c0"/>
<circle cx="1014" cy="542" r="8" class="c0"/>
<circle cx="1868" cy="632" r="8" class="c0"/>
<circle cx="1566" cy="616" r="8" class="c0"/>
<circle cx="1022" cy="488" r="8" class="c0"/>
<circle cx="998" cy="406" r="8" class="c0"/>
<circle cx="1064" cy="394" r="8" class="c0"/>
<circle cx="1000" cy="1328" r="8" class="c0"/>
<circle cx="916" cy="432" r="8" class="c0"/>
<circle cx="726" cy="336" r="8" class="c0"/>
<circle cx="944" cy="382" r="8" class="c0"/>
<circle cx="1680" cy="444" r="8" class="c0"/>
<circle cx="1608" cy="690" r="8" class="c0"/>
<circle cx="1224" cy="474" r="8" class="c0"/>
<circle cx="882" cy="1398" r="8" class="c0"/>
<circle cx="1384" cy="372" r="8" class="c0"/>
<circle cx="938" cy="1240" r="8" class="c0"/>
<circle cx="1628" cy="684" r="8" class="c0"/>
<circle cx="702" cy="410" r="8" class="c0"/>
<circle cx="874" cy="286" r="8" class="c0"/>
<circle cx="1828" cy="706" r="8" class="c0"/>
<circle cx="974" cy="354" r="8" class="c0"/>
<circle cx="1696" cy="458" r="8" class="c0"/>
<circle cx="1722" cy="730" r="8" class="c0"/>
<circle cx="1758" cy="562" r="8" class="c0"/>
<circle cx="782" cy="432" r="8" class="c0"/>
<circle cx="806" cy="1094" r="8" class="c0"/>
<circle cx="1588" cy="616" r="8" class="c0"/>
<circle cx="1580" cy="410" r="8" class="c0"/>
<circle cx="1850" cy="578" r="8" class="c0"/>
<circle cx="1678" cy="724" r="8" class="c0"/>
<circle cx="1698" cy="696" r="8" class="c0"/>
<circle cx="796" cy="486" r="8" class="c0"/>
<circle cx="1278" cy="328" r="8" class="c0"/>
<circle cx="952" cy="398" r="8" class="c0"/>
<circle cx="968" cy="328" r="8" class="c0"/>
<circle cx="1604" cy="564" r="8" class="c0"/>
<circle cx="1892" cy="686" r="8" class="c0"/>
<circle cx="1334" cy="484" r="8" class="c0"/>
<circle cx="840" cy="390" r="8" class="c0"/>
<circle cx="780" cy="478" r="8" class="c0"/>
<circle cx="1250" cy="462" r="8" class="c0"/>
<circle cx="668" cy="396" r="8" class="c0"/>
<circle cx="806" cy="1174" r="8" class="c0"/>
<circle cx="840" cy="328" r="8" class="c0"/>
<circle cx="996" cy="366" r="8" class="c0"/>
<circle cx="654" cy="374" r="8" class="c0"/>
<circle cx="1760" cy="594" r="8" class="c0"/>
<circle cx="836" cy="438" r="8" class="c0"/>
<circle cx="1124" cy="324" r="8" class="c0"/>
<circle cx="1436" cy="406" r="8" class="c0"/>
<circle cx="806" cy="1142" r="8" class="c0"/>
<circle cx="1802" cy="476" r="8" class="c0"/>
<circle cx="808" cy="534" r="8" class="c0"/>
<circle cx="1270" cy="500" r="8" class="c0"/>
<circle cx="1732" cy="670" r="8" class="c0"/>
<circle cx="1782" cy="560" r="8" class="c0"/>
<circle cx="1418" cy="380" r="8" class="c0"/>
<circle cx="832" cy="1260" r="8" class="c0"/>
<circle cx="1492" cy="670" r="8" class="c0"/>
<circle cx="1582" cy="452" r="8" class="c0"/>
<circle cx="1668" cy="642" r="8" class="c0"/>
<circle cx="1400" cy="348" r="8" class="c0"/>
<circle cx="1564" cy="504" r="8" class="c0"/>
<circle cx="820" cy="454" r="8" class="c0"/>
<circle cx="1158" cy="420" r="8" class="c0"/>
<circle cx="1876" cy="448" r="8" class="c0"/>
<circle cx="1544" cy="672" r="8" class="c0"/>
<circle cx="1560" cy="372" r="8" class="c0"/>
<circle cx="1426" cy="458" r="8" class="c0"/>
<circle cx="868" cy="416" r="8" class="c0"/>
<circle cx="1046" cy="496" r="8" class="c0"/>
<circle cx="1594" cy="390" r="8" class="c0"/>
<circle cx="1586" cy="650" r="8" class="c0"/>
<circle cx="1370" cy="392" r="8" class="c0"/>
<circle cx="1656" cy="442" r="8" class="c0"/>
<circle cx="1644" cy="634" r="8" class="c0"/>
<circle cx="1794" cy="618" r="8" class="c0"/>
<circle cx="1732" cy="530" r="8" class="c0"/>
<circle cx="1806" cy="590" r="8" class="c0"/>
<circle cx="1354" cy="472" r="8" class="c0"/>
<circle cx="934" cy="1218" r="8" class="c0"/>
<circle cx="1308" cy="406" r="8" class="c0"/>
<circle cx="1758" cy="674" r="8" class="c0"/>
<circle cx="1590" cy="368" r="8" class="c0"/>
<circle cx="1904" cy="570" r="8" class="c0"/>
<circle cx="1246" cy="514" r="8" class="c0"/>
<circle cx="730" cy="494" r="8" class="c0"/>
<circle cx="1844" cy="444" r="8" class="c0"/>
<circle cx="1030" cy="360" r="8" class="c0"/>
<circle cx="1096" cy="366" r="8" class="c0"/>
<circle cx="896" cy="1054" r="8" class="c0"/>
<circle cx="852" cy="1044" r="8" class="c0"/>
<circle cx="1676" cy="468" r="8" class="c0"/>
<circle cx="1850" cy="618" r="8" class="c0"/>
<circle cx="1022" cy="284" r="8" class="c0"/>
<circle cx="1536" cy="532" r="8" class="c0"/>
<circle cx="780" cy="1144" r="8" class="c0"/>
<circle cx="1836" cy="588" r="8" class="c0"/>
<circle cx="988" cy="460" r="8" class="c0"/>
<circle cx="1778" cy="686" r="8" class="c0"/>
<circle cx="1518" cy="622" r="8" class="c0"/>
<circle cx="1438" cy="350" r="8" class="c0"/>
<circle cx="1708" cy="712" r="8" class="c0"/>
<circle cx="808" cy="392" r="8" class="c0"/>
<circle cx="1390" cy="460" r="8" class="c0"/>
<circle cx="824" cy="498" r="8" class="c0"/>
<circle cx="1088" cy="484" r="8" class="c0"/>
<circle cx="872" cy="1358" r="8" class="c0"/>
<circle cx="862" cy="1074" r="8" class="c0"/>
<circle cx="1668" cy="694" r="8" class="c0"/>
<circle cx="1610" cy="424" r="8" class="c0"/>
<circle cx="1652" cy="508" r="8" class="c0"/>
<circle cx="1298" cy="428" r="8" class="c0"/>
<circle cx="1410" cy="522" r="8" class="c0"/>
<circle cx="818" cy="344" r="8" class="c0"/>
<circle cx="1286" cy="410" r="8" class="c0"/>
<circle cx="1662" cy="528" r="8" class="c0"/>
<circle cx="1234" cy="362" r="8" class="c0"/>
<circle cx="1468" cy="570" r="8" class="c0"/>
<circle cx="1878" cy="620" r="8" class="c0"/>
<circle cx="1246" cy="352" r="8" class="c0"/>
<circle cx="1602" cy="498" r="8" class="c0"/>
<circle cx="1836" cy="532" r="8" class="c0"/>
<circle cx="1910" cy="462" r="8" class="c0"/>
<circle cx="1484" cy="518" r="8" class="c0"/>
<circle cx="918" cy="1338" r="8" class="c0"/>
<circle cx="846" cy="412" r="8" class="c0"/>
<circle cx="1178" cy="406" r="8" class="c0"/>
<circle cx="1710" cy="686" r="8" class="c0"/>
<circle cx="1518" cy="358" r="8" class="c0"/>
<circle cx="884" cy="1292" r="8" class="c0"/>
<circle cx="1458" cy="600" r="8" class="c0"/>
<circle cx="1300" cy="364" r="8" class="c0"/>
<circle cx="1812" cy="494" r="8" class="c0"/>
<circle cx="828" cy="1240" r="8" class="c0"/>
<circle cx="1222" cy="496" r="8" class="c0"/>
<circle cx="1150" cy="320" r="8" class="c0"/>
<circle cx="1888" cy="416" r="8" class="c0"/>
<circle cx="1156" cy="298" r="8" class="c0"/>
<circle cx="870" cy="366" r="8" class="c0"/>
<circle cx="680" cy="450" r="8" class="c0"/>
<circle cx="796" cy="338" r="8" class="c0"/>
<circle cx="1204" cy="488" r="8" class="c0"/>
<circle cx="824" cy="424" r="8" class="c0"/>
<circle cx="740" cy="568" r="8" class="c0"/>
<circle cx="1066" cy="484" r="8" class="c0"/>
<circle cx="1646" cy="702" r="8" class="c0"/>
<circle cx="1306" cy="526" r="8" class="c0"/>
<circle cx="1750" cy="730" r="8" class="c0"/>
<circle cx="1662" cy="588" r="8" class="c0"/>
<circle cx="1872" cy="556" r="8" class="c0"/>
<circle cx="1562" cy="688" r="8" class="c0"/>
<circle cx="1846" cy="416" r="8" class="c0"/>
<circle cx="1794" cy="664" r="8" class="c0"/>
<circle cx="1438" cy="630" r="8" class="c0"/>
<circle cx="908" cy="328" r="8" class="c0"/>
<circle cx="1490" cy="364" r="8" class="c0"/>
<circle cx="1646" cy="742" r="8" class="c0"/>
<circle cx="744" cy="530" r="8" class="c0"/>
<circle cx="1290" cy="352" r="8" class="c0"/>
<circle cx="1544" cy="574" r="8" class="c0"/>
<circle cx="796" cy="1190" r="8" class="c0"/>
<circle cx="1850" cy="706" r="8" class="c0"/>
<circle cx="1278" cy="552" r="8" class="c0"/>
<circle cx="1316" cy="564" r="8" class="c0"/>
<circle cx="1092" cy="290" r="8" class="c0"/>
<circle cx="1424" cy="498" r="8" class="c0"/>
<circle cx="826" cy="542" r="8" class="c0"/>
<circle cx="1330" cy="548" r="8" class="c0"/>
<circle cx="1394" cy="432" r="8" class="c0"/>
<circle cx="1556" cy="532" r="8" class="c0"/>
<circle cx="878" cy="1184" r="8" class="c0"/>
<circle cx="806" cy="300" r="8" class="c0"/>
<circle cx="1868" cy="698" r="8" class="c0"/>
<circle cx="1606" cy="376" r="8" class="c0"/>
<circle cx="1910" cy="656" r="8" class="c0"/>
<circle cx="1190" cy="418" r="8" class="c0"/>
<circle cx="1078" cy="432" r="8" class="c0"/>
<circle cx="1174" cy="332" r="8" class="c0"/>
<circle cx="1112" cy="294" r="8" class="c0"/>
<circle cx="1446" cy="426" r="8" class="c0"/>
<circle cx="1018" cy="560" r="8" class="c0"/>
<circle cx="1374" cy="518" r="8" class="c0"/>
<circle cx="894" cy="378" r="8" class="c0"/>
<circle cx="1528" cy="376" r="8" class="c0"/>
<circle cx="936" cy="1258" r="8" class="c0"/>
<circle cx="1876" cy="678" r="8" class="c0"/>
<circle cx="1144" cy="338" r="8" class="c0"/>
<circle cx="1750" cy="488" r="8" class="c0"/>
<circle cx="1018" cy="330" r="8" class="c0"/>
<circle cx="1320" cy="510" r="8" class="c0"/>
<circle cx="1018" cy="372" r="8" class="c0"/>
<circle cx="1344" cy="338" r="8" class="c0"/>
<circle cx="1012" cy="512" r="8" class="c0"/>
<circle cx="1834" cy="630" r="8" class="c0"/>
<circle cx="1792" cy="720" r="8" class="c0"/>
<circle cx="1888" cy="608" r="8" class="c0"/>
<circle cx="988" cy="428" r="8" class="c0"/>
<circle cx="1254" cy="382" r="8" class="c0"/>
<circle cx="836" cy="350" r="8" class="c0"/>
<circle cx="1888" cy="470" r="8" class="c0"/>
<circle cx="1746" cy="638" r="8" class="c0"/>
<circle cx="1452" cy="640" r="8" class="c0"/>
<circle cx="1144" cy="378" r="8" class="c0"/>
<circle cx="1638" cy="528" r="8" class="c0"/>
<circle cx="942" cy="1338" r="8" class="c0"/>
<circle cx="1668" cy="662" r="8" class="c0"/>
<circle cx="888" cy="1310" r="8" class="c0"/>
<circle cx="1294" cy="544" r="8" class="c0"/>
<circle cx="1890" cy="646" r="8" class="c0"/>
<circle cx="852" cy="1212" r="8" class="c0"/>
<circle cx="876" cy="304" r="8" class="c0"/>
<circle cx="884" cy="1144" r="8" class="c0"/>
<circle cx="802" cy="1016" r="8" class="c0"/>
<circle cx="960" cy="1268" r="8" class="c0"/>
<circle cx="1702" cy="730" r="8" class="c0"/>
<circle cx="1706" cy="446" r="8" class="c0"/>
<circle cx="1906" cy="430" r="8" class="c0"/>
<circle cx="1432" cy="370" r="8" class="c0"/>
<circle cx="904" cy="1096" r="8" class="c0"/>
<circle cx="1310" cy="498" r="8" class="c0"/>
<circle cx="1890" cy="488" r="8" class="c0"/>
<circle cx="952" cy="1326" r="8" class="c0"/>
<circle cx="646" cy="406" r="8" class="c0"/>
<circle cx="916" cy="1148" r="8" class="c0"/>
<circle cx="1346" cy="564" r="8" class="c0"/>
<circle cx="752" cy="404" r="8" class="c0"/>
<circle cx="1554" cy="660" r="8" class="c0"/>
<circle cx="1216" cy="366" r="8" class="c0"/>
<circle cx="922" cy="284" r="8" class="c0"/>
<circle cx="894" cy="288" r="8" class="c0"/>
<circle cx="1550" cy="382" r="8" class="c0"/>
<circle cx="1556" cy="604" r="8" class="c0"/>
<circle cx="1854" cy="454" r="8" class="c0"/>
<circle cx="642" cy="434" r="8" class="c0"/>
<circle cx="1464" cy="660" r="8" class="c0"/>
<circle cx="1910" cy="676" r="8" class="c0"/>
<circle cx="944" cy="1278" r="8" class="c0"/>
<circle cx="1546" cy="462" r="8" class="c0"/>
<circle cx="704" cy="366" r="8" class="c0"/>
<circle cx="1726" cy="552" r="8" class="c0"/>
<circle cx="856" cy="284" r="8" class="c0"/>
<circle cx="1644" cy="492" r="8" class="c0"/>
<circle cx="1564" cy="712" r="8" class="c0"/>
<circle cx="1536" cy="392" r="8" class="c0"/>
<circle cx="1650" cy="576" r="8" class="c0"/>
<circle cx="1150" cy="436" r="8" class="c0"/>
<circle cx="772" cy="1124" r="8" class="c0"/>
<circle cx="1572" cy="592" r="8" class="c0"/>
<circle cx="1582" cy="568" r="8" class="c0"/>
<circle cx="1450" cy="524" r="8" class="c0"/>
<circle cx="1678" cy="704" r="8" class="c0"/>
<circle cx="820" cy="520" r="8" class="c0"/>
<circle cx="1650" cy="652" r="8" class="c0"/>
<circle cx="976" cy="1360" r="8" class="c0"/>
<circle cx="780" cy="406" r="8" class="c0"/>
<circle cx="1092" cy="394" r="8" class="c0"/>
<circle cx="1188" cy="446" r="8" class="c0"/>
<circle cx="990" cy="308" r="6" class="c0"/>
<circle cx="1484" cy="536" r="6" class="c0"/>
<circle cx="1622" cy="460" r="6" class="c0"/>
<circle cx="1772" cy="662" r="6" class="c0"/>
<circle cx="1220" cy="382" r="6" class="c0"/>
<circle cx="680" cy="382" r="6" class="c0"/>
<circle cx="898" cy="1332" r="6" class="c0"/>
<circle cx="1890" cy="432" r="6" class="c0"/>
<circle cx="1828" cy="518" r="6" class="c0"/>
<circle cx="1908" cy="608" r="6" class="c0"/>
<circle cx="1856" cy="560" r="6" class="c0"/>
<circle cx="1858" cy="740" r="6" class="c0"/>
<circle cx="1032" cy="546" r="6" class="c0"/>
<circle cx="1364" cy="598" r="6" class="c0"/>
<circle cx="1052" cy="286" r="6" class="c0"/>
<circle cx="1114" cy="434" r="6" class="c0"/>
<circle cx="1912" cy="362" r="6" class="c0"/>
<circle cx="1742" cy="716" r="6" class="c0"/>
<circle cx="1410" cy="582" r="6" class="c0"/>
<circle cx="1830" cy="410" r="6" class="c0"/>
<circle cx="908" cy="1180" r="6" class="c0"/>
<circle cx="982" cy="402" r="6" class="c0"/>
<circle cx="764" cy="474" r="6" class="c0"/>
<circle cx="834" cy="1064" r="6" class="c0"/>
<circle cx="808" cy="1044" r="6" class="c0"/>
<circle cx="1868" cy="572" r="6" class="c0"/>
<circle cx="740" cy="328" r="6" class="c0"/>
<circle cx="1030" cy="468" r="6" class="c0"/>
<circle cx="804" cy="1124" r="6" class="c0"/>
<circle cx="922" cy="1166" r="6" class="c0"/>
<circle cx="1808" cy="744" r="6" class="c0"/>
<circle cx="1386" cy="388" r="6" class="c0"/>
<circle cx="1486" cy="484" r="6" class="c0"/>
<circle cx="1064" cy="424" r="6" class="c0"/>
<circle cx="1576" cy="628" r="6" class="c0"/>
<circle cx="1660" cy="626" r="6" class="c0"/>
<circle cx="960" cy="1378" r="6" class="c0"/>
<circle cx="1482" cy="580" r="6" class="c0"/>
<circle cx="1678" cy="548" r="6" class="c0"/>
<circle cx="794" cy="1132" r="6" class="c0"/>
<circle cx="798" cy="1208" r="6" class="c0"/>
<circle cx="1218" cy="428" r="6" class="c0"/>
<circle cx="1156" cy="492" r="6" class="c0"/>
<circle cx="1776" cy="756" r="6" class="c0"/>
<circle cx="1402" cy="378" r="6" class="c0"/>
<circle cx="800" cy="994" r="6" class="c0"/>
<circle cx="1508" cy="526" r="6" class="c0"/>
<circle cx="1808" cy="716" r="6" class="c0"/>
<circle cx="1338" cy="410" r="6" class="c0"/>
<circle cx="722" cy="508" r="6" class="c0"/>
<circle cx="1506" cy="468" r="6" class="c0"/>
<circle cx="686" cy="404" r="6" class="c0"/>
<circle cx="926" cy="370" r="6" class="c0"/>
<circle cx="1734" cy="590" r="6" class="c0"/>
<circle cx="1754" cy="528" r="6" class="c0"/>
<circle cx="1726" cy="620" r="6" class="c0"/>
<circle cx="1070" cy="322" r="6" class="c0"/>
<circle cx="1268" cy="446" r="6" class="c0"/>
<circle cx="1226" cy="314" r="6" class="c0"/>
<circle cx="1428" cy="518" r="6" class="c0"/>
<circle cx="1420" cy="400" r="6" class="c0"/>
<circle cx="652" cy="424" r="6" class="c0"/>
<circle cx="1258" cy="482" r="6" class="c0"/>
<circle cx="826" cy="1162" r="6" class="c0"/>
<circle cx="1134" cy="288" r="6" class="c0"/>
<circle cx="1796" cy="442" r="6" class="c0"/>
<circle cx="1448" cy="666" r="6" class="c0"/>
<circle cx="1052" cy="512" r="6" class="c0"/>
<circle cx="1788" cy="522" r="6" class="c0"/>
<circle cx="1558" cy="562" r="6" class="c0"/>
<circle cx="1386" cy="356" r="6" class="c0"/>
<circle cx="1114" cy="312" r="6" class="c0"/>
<circle cx="982" cy="316" r="6" class="c0"/>
<circle cx="1422" cy="544" r="6" class="c0"/>
<circle cx="664" cy="484" r="6" class="c0"/>
<circle cx="734" cy="306" r="6" class="c0"/>
<circle cx="1744" cy="420" r="6" class="c0"/>
<circle cx="964" cy="1310" r="6" class="c0"/>
<circle cx="1570" cy="730" r="6" class="c0"/>
<circle cx="1328" cy="528" r="6" class="c0"/>
<circle cx="854" cy="428" r="6" class="c0"/>
<circle cx="1548" cy="486" r="6" class="c0"/>
<circle cx="1684" cy="428" r="6" class="c0"/>
<circle cx="1860" cy="544" r="6" class="c0"/>
<circle cx="1424" cy="576" r="6" class="c0"/>
<circle cx="1842" cy="690" r="6" class="c0"/>
<circle cx="992" cy="390" r="6" class="c0"/>
<circle cx="916" cy="362" r="6" class="c0"/>
<circle cx="806" cy="1226" r="6" class="c0"/>
<circle cx="1016" cy="1326" r="6" class="c0"/>
<circle cx="1378" cy="604" r="6" class="c0"/>
<circle cx="878" cy="1066" r="6" class="c0"/>
<circle cx="1552" cy="698" r="6" class="c0"/>
<circle cx="1584" cy="706" r="6" class="c0"/>
<circle cx="1472" cy="468" r="6" class="c0"/>
<circle cx="834" cy="1176" r="6" class="c0"/>
<circle cx="792" cy="292" r="6" class="c0"/>
<circle cx="1350" cy="500" r="6" class="c0"/>
<circle cx="1286" cy="528" r="6" class="c0"/>
<circle cx="710" cy="346" r="6" class="c0"/>
<circle cx="1518" cy="462" r="6" class="c0"/>
<circle cx="1498" cy="384" r="6" class="c0"/>
<circle cx="1216" cy="348" r="6" class="c0"/>
<circle cx="1596" cy="640" r="6" class="c0"/>
<circle cx="732" cy="380" r="6" class="c0"/>
<circle cx="1248" cy="410" r="6" class="c0"/>
<circle cx="1004" cy="466" r="6" class="c0"/>
<circle cx="868" cy="1282" r="6" class="c0"/>
<circle cx="1832" cy="462" r="6" class="c0"/>
<circle cx="910" cy="1258" r="6" class="c0"/>
<circle cx="1324" cy="338" r="6" class="c0"/>
<circle cx="786" cy="1180" r="6" class="c0"/>
<circle cx="716" cy="386" r="6" class="c0"/>
<circle cx="836" cy="486" r="6" class="c0"/>
<circle cx="1404" cy="472" r="6" class="c0"/>
<circle cx="1790" cy="598" r="6" class="c0"/>
<circle cx="952" cy="1252" r="6" class="c0"/>
<circle cx="1478" cy="414" r="6" class="c0"/>
<circle cx="1862" cy="382" r="6" class="c0"/>
<circle cx="974" cy="440" r="6" class="c0"/>
<circle cx="734" cy="452" r="6" class="c0"/>
<circle cx="1626" cy="416" r="6" class="c0"/>
<circle cx="828" cy="306" r="6" class="c0"/>
<circle cx="924" cy="1230" r="6" class="c0"/>
<circle cx="996" cy="1348" r="6" class="c0"/>
<circle cx="1696" cy="572" r="6" class="c0"/>
<circle cx="1384" cy="528" r="6" class="c0"/>
<circle cx="1208" cy="332" r="6" class="c0"/>
<circle cx="1740" cy="684" r="6" class="c0"/>
<circle cx="846" cy="448" r="6" class="c0"/>
<circle cx="904" cy="1270" r="6" class="c0"/>
<circle cx="1360" cy="530" r="6" class="c0"/>
<circle cx="1734" cy="628" r="6" class="c0"/>
<circle cx="876" cy="350" r="6" class="c0"/>
<circle cx="1814" cy="698" r="6" class="c0"/>
<circle cx="892" cy="1038" r="6" class="c0"/>
<circle cx="1724" cy="460" r="6" class="c0"/>
<circle cx="1526" cy="562" r="6" class="c0"/>
<circle cx="1616" cy="724" r="6" class="c0"/>
<circle cx="1598" cy="410" r="6" class="c0"/>
<circle cx="1288" cy="460" r="6" class="c0"/>
<circle cx="1860" cy="408" r="6" class="c0"/>
<circle cx="1152" cy="464" r="6" class="c0"/>
<circle cx="1794" cy="572" r="6" class="c0"/>
<circle cx="1912" cy="482" r="6" class="c0"/>
<circle cx="1500" cy="354" r="6" class="c0"/>
<circle cx="1240" cy="320" r="6" class="c0"/>
<circle cx="732" cy="320" r="6" class="c0"/>
<circle cx="804" cy="374" r="6" class="c0"/>
<circle cx="1068" cy="284" r="6" class="c0"/>
<circle cx="1600" cy="528" r="6" class="c0"/>
<circle cx="930" cy="390" r="6" class="c0"/>
<circle cx="930" cy="306" r="6" class="c0"/>
<circle cx="886" cy="342" r="6" class="c0"/>
<circle cx="838" cy="458" r="6" class="c0"/>
<circle cx="1780" cy="706" r="6" class="c0"/>
<circle cx="1730" cy="642" r="6" class="c0"/>
<circle cx="1258" cy="364" r="6" class="c0"/>
<circle cx="1598" cy="454" r="6" class="c0"/>
<circle cx="710" cy="426" r="6" class="c0"/>
<circle cx="1570" cy="362" r="6" class="c0"/>
<circle cx="1478" cy="608" r="6" class="c0"/>
<circle cx="1762" cy="536" r="6" class="c0"/>
<circle cx="946" cy="430" r="6" class="c0"/>
<circle cx="816" cy="1078" r="6" class="c0"/>
<circle cx="1370" cy="360" r="6" class="c0"/>
<circle cx="1694" cy="642" r="6" class="c0"/>
<circle cx="1586" cy="494" r="6" class="c0"/>
<circle cx="1004" cy="530" r="6" class="c0"/>
<circle cx="1818" cy="400" r="6" class="c0"/>
<circle cx="1434" cy="390" r="6" class="c0"/>
<circle cx="1650" cy="384" r="6" class="c0"/>
<circle cx="1236" cy="454" r="6" class="c0"/>
<circle cx="998" cy="446" r="6" class="c0"/>
<circle cx="852" cy="1178" r="6" class="c0"/>
<circle cx="842" cy="1102" r="6" class="c0"/>
<circle cx="1036" cy="376" r="6" class="c0"/>
<circle cx="1430" cy="646" r="6" class="c0"/>
<circle cx="1640" cy="396" r="6" class="c0"/>
<circle cx="940" cy="338" r="6" class="c0"/>
<circle cx="1076" cy="294" r="6" class="c0"/>
<circle cx="1802" cy="404" r="6" class="c0"/>
<circle cx="1094" cy="430" r="6" class="c0"/>
<circle cx="1000" cy="286" r="6" class="c0"/>
<circle cx="1538" cy="414" r="6" class="c0"/>
<circle cx="1652" cy="422" r="6" class="c0"/>
<circle cx="1608" cy="710" r="6" class="c0"/>
<circle cx="1476" cy="350" r="6" class="c0"/>
<circle cx="1806" cy="654" r="6" class="c0"/>
<circle cx="756" cy="544" r="6" class="c0"/>
<circle cx="1450" cy="566" r="6" class="c0"/>
<circle cx="1680" cy="652" r="6" class="c0"/>
<circle cx="1472" cy="592" r="6" class="c0"/>
<circle cx="924" cy="1298" r="6" class="c0"/>
<circle cx="954" cy="284" r="6" class="c0"/>
<circle cx="1044" cy="456" r="6" class="c0"/>
<circle cx="854" cy="374" r="6" class="c0"/>
<circle cx="884" cy="1232" r="6" class="c0"/>
<circle cx="1890" cy="562" r="6" class="c0"/>
<circle cx="1068" cy="464" r="6" class="c0"/>
<circle cx="1506" cy="608" r="6" class="c0"/>
<circle cx="1394" cy="608" r="6" class="c0"/>
<circle cx="1516" cy="534" r="6" class="c0"/>
<circle cx="986" cy="342" r="6" class="c0"/>
<circle cx="1542" cy="688" r="6" class="c0"/>
<circle cx="996" cy="1312" r="6" class="c0"/>
<circle cx="670" cy="344" r="6" class="c0"/>
<circle cx="1822" cy="690" r="6" class="c0"/>
<circle cx="764" cy="438" r="6" class="c0"/>
<circle cx="1868" cy="532" r="6" class="c0"/>
<circle cx="1362" cy="570" r="6" class="c0"/>
<circle cx="1360" cy="510" r="6" class="c0"/>
<circle cx="752" cy="482" r="6" class="c0"/>
<circle cx="960" cy="1354" r="6" class="c0"/>
<circle cx="1570" cy="462" r="6" class="c0"/>
<circle cx="862" cy="1264" r="6" class="c0"/>
<circle cx="1376" cy="432" r="6" class="c0"/>
<circle cx="1558" cy="430" r="6" class="c0"/>
<circle cx="1822" cy="662" r="6" class="c0"/>
<circle cx="808" cy="420" r="6" class="c0"/>
<circle cx="864" cy="1382" r="6" class="c0"/>
<circle cx="1366" cy="374" r="6" class="c0"/>
<circle cx="790" cy="450" r="6" class="c0"/>
<circle cx="1078" cy="472" r="6" class="c0"/>
<circle cx="984" cy="1326" r="6" class="c0"/>
<circle cx="1178" cy="348" r="6" class="c0"/>
<circle cx="1534" cy="618" r="6" class="c0"/>
<circle cx="1640" cy="564" r="6" class="c0"/>
<circle cx="1554" cy="516" r="6" class="c0"/>
<circle cx="1740" cy="656" r="6" class="c0"/>
<circle cx="1898" cy="554" r="6" class="c0"/>
<circle cx="1596" cy="740" r="6" class="c0"/>
<circle cx="728" cy="434" r="6" class="c0"/>
<circle cx="722" cy="468" r="6" class="c0"/>
<circle cx="822" cy="384" r="6" class="c0"/>
<circle cx="1706" cy="530" r="6" class="c0"/>
<circle cx="1768" cy="418" r="6" class="c0"/>
<circle cx="1556" cy="472" r="6" class="c0"/>
<circle cx="1360" cy="402" r="6" class="c0"/>
<circle cx="1760" cy="756" r="6" class="c0"/>
<circle cx="1572" cy="438" r="6" class="c0"/>
<circle cx="1506" cy="680" r="6" class="c0"/>
<circle cx="1722" cy="660" r="6" class="c0"/>
<circle cx="1522" cy="704" r="6" class="c0"/>
<circle cx="1038" cy="532" r="6" class="c0"/>
<circle cx="1720" cy="774" r="6" class="c0"/>
<circle cx="1598" cy="702" r="6" class="c0"/>
<circle cx="1398" cy="568" r="6" class="c0"/>
<circle cx="886" cy="432" r="6" class="c0"/>
<circle cx="1492" cy="500" r="6" class="c0"/>
<circle cx="1318" cy="394" r="6" class="c0"/>
<circle cx="1098" cy="350" r="6" class="c0"/>
<circle cx="1526" cy="586" r="6" class="c0"/>
<circle cx="814" cy="488" r="6" class="c0"/>
<circle cx="1860" cy="506" r="6" class="c0"/>
<circle cx="1062" cy="332" r="6" class="c0"/>
<circle cx="1012" cy="1340" r="6" class="c0"/>
<circle cx="852" cy="1148" r="6" class="c0"/>
<circle cx="1316" cy="328" r="6" class="c0"/>
<circle cx="1614" cy="742" r="6" class="c0"/>
<circle cx="1530" cy="498" r="6" class="c0"/>
<circle cx="736" cy="516" r="6" class="c0"/>
<circle cx="1692" cy="714" r="6" class="c0"/>
<circle cx="878" cy="382" r="6" class="c0"/>
<circle cx="1910" cy="396" r="6" class="c0"/>
<circle cx="1264" cy="538" r="6" class="c0"/>
<circle cx="1798" cy="502" r="6" class="c0"/>
<circle cx="1194" cy="478" r="6" class="c0"/>
<circle cx="1628" cy="638" r="6" class="c0"/>
<circle cx="854" cy="336" r="6" class="c0"/>
<circle cx="1892" cy="504" r="6" class="c0"/>
<circle cx="1256" cy="402" r="6" class="c0"/>
<circle cx="1384" cy="444" r="6" class="c0"/>
<circle cx="1844" cy="602" r="6" class="c0"/>
<circle cx="1524" cy="542" r="6" class="c0"/>
<circle cx="652" cy="496" r="6" class="c0"/>
<circle cx="866" cy="314" r="6" class="c0"/>
<circle cx="740" cy="388" r="6" class="c0"/>
<circle cx="948" cy="348" r="6" class="c0"/>
<circle cx="1044" cy="392" r="6" class="c0"/>
<circle cx="1016" cy="472" r="6" class="c0"/>
<circle cx="1244" cy="372" r="6" class="c0"/>
<circle cx="1276" cy="454" r="6" class="c0"/>
<circle cx="1526" cy="682" r="6" class="c0"/>
<circle cx="876" cy="1126" r="6" class="c0"/>
<circle cx="934" cy="1288" r="6" class="c0"/>
<circle cx="814" cy="286" r="6" class="c0"/>
<circle cx="1622" cy="434" r="6" class="c0"/>
<circle cx="1666" cy="452" r="6" class="c0"/>
<circle cx="942" cy="1390" r="6" class="c0"/>
<circle cx="1692" cy="474" r="6" class="c0"/>
<circle cx="1402" cy="418" r="6" class="c0"/>
<circle cx="1854" cy="722" r="6" class="c0"/>
<circle cx="1596" cy="724" r="6" class="c0"/>
<circle cx="1392" cy="518" r="6" class="c0"/>
<circle cx="1022" cy="314" r="6" class="c0"/>
<circle cx="1222" cy="396" r="6" class="c0"/>
<circle cx="1888" cy="368" r="6" class="c0"/>
<circle cx="1736" cy="750" r="6" class="c0"/>
<circle cx="1834" cy="748" r="6" class="c0"/>
<circle cx="1154" cy="368" r="6" class="c0"/>
<circle cx="1098" cy="460" r="6" class="c0"/>
<circle cx="1526" cy="404" r="6" class="c0"/>
<circle cx="1354" cy="390" r="6" class="c0"/>
<circle cx="1664" cy="736" r="6" class="c0"/>
<circle cx="1760" cy="498" r="6" class="c0"/>
<circle cx="1416" cy="624" r="6" class="c0"/>
<circle cx="816" cy="1132" r="6" class="c0"/>
<circle cx="790" cy="1066" r="6" class="c0"/>
<circle cx="1708" cy="608" r="6" class="c0"/>
<circle cx="1804" cy="608" r="6" class="c0"/>
<circle cx="734" cy="586" r="6" class="c0"/>
<circle cx="786" cy="348" r="6" class="c0"/>
<circle cx="1240" cy="472" r="6" class="c0"/>
<circle cx="1636" cy="512" r="6" class="c0"/>
<circle cx="1332" cy="500" r="6" class="c0"/>
<circle cx="1226" cy="520" r="6" class="c0"/>
<circle cx="1896" cy="402" r="6" class="c0"/>
<circle cx="1196" cy="302" r="6" class="c0"/>
<circle cx="920" cy="1360" r="6" class="c0"/>
<circle cx="1404" cy="600" r="6" class="c0"/>
<circle cx="690" cy="420" r="6" class="c0"/>
<circle cx="1354" cy="586" r="6" class="c0"/>
<circle cx="1400" cy="626" r="6" class="c0"/>
<circle cx="756" cy="462" r="6" class="c0"/>
<circle cx="1370" cy="580" r="6" class="c0"/>
<circle cx="1912" cy="514" r="6" class="c0"/>
<circle cx="1236" cy="504" r="6" class="c0"/>
<circle cx="906" cy="1202" r="6" class="c0"/>
<circle cx="1604" cy="648" r="6" class="c0"/>
<circle cx="1714" cy="754" r="6" class="c0"/>
<circle cx="1134" cy="468" r="6" class="c0"/>
<circle cx="1572" cy="698" r="6" class="c0"/>
<circle cx="1294" cy="472" r="6" class="c0"/>
<circle cx="1718" cy="538" r="6" class="c0"/>
<circle cx="920" cy="1392" r="6" class="c0"/>
<circle cx="1582" cy="470" r="6" class="c0"/>
</svg>
