<?xml version="1.0" encoding="utf-8"?>
<svg xmlns="http://www.w3.org/2000/svg"
     xmlns:xlink="http://www.w3.org/1999/xlink" width="1920" height="1440" >

            <defs>
            <style type="text/css"><![CDATA[
circle {stroke: none;}
.c0 {fill: #FFFFFF;}
]]></style>
            </defs>
<rect x="0" y="0" width="1920" height="1440" fill="black"/>
<circle cx="1790" cy="388" r="14" class="c0"/>
<circle cx="740" cy="256" r="12" class="c0"/>
<circle cx="1648" cy="272" r="12" class="c0"/>
<circle cx="950" cy="1274" r="12" class="c0"/>
<circle cx="1884" cy="468" r="12" class="c0"/>
<circle cx="1762" cy="340" r="12" class="c0"/>
<circle cx="1818" cy="428" r="12" class="c0"/>
<circle cx="812" cy="1038" r="12" class="c0"/>
<circle cx="1856" cy="552" r="12" class="c0"/>
<circle cx="1730" cy="370" r="12" class="c0"/>
<circle cx="852" cy="276" r="12" class="c0"/>
<circle cx="1762" cy="434" r="12" class="c0"/>
<circle cx="862" cy="1284" r="12" class="c0"/>
<circle cx="1014" cy="192" r="12" class="c0"/>
<circle cx="738" cy="428" r="12" class="c0"/>
<circle cx="1050" cy="194" r="12" class="c0"/>
<circle cx="744" cy="210" r="12" class="c0"/>
<circle cx="1656" cy="304" r="12" class="c0"/>
<circle cx="1750" cy="454" r="12" class="c0"/>
<circle cx="1396" cy="334" r="12" class="c0"/>
<circle cx="1816" cy="504" r="12" class="c0"/>
<circle cx="1092" cy="334" r="12" class="c0"/>
<circle cx="1680" cy="336" r="12" class="c0"/>
<circle cx="1528" cy="472" r="12" class="c0"/>
<circle cx="828" cy="1148" r="12" class="c0"/>
<circle cx="912" cy="1262" r="12" class="c0"/>
<circle cx="668" cy="302" r="12" class="c0"/>
<circle cx="1670" cy="584" r="12" class="c0"/>
<circle cx="1554" cy="234" r="12" class="c0"/>
<circle cx="1424" cy="342" r="12" class="c0"/>
<circle cx="872" cy="218" r="12" class="c0"/>
<circle cx="1600" cy="552" r="12" class="c0"/>
<circle cx="1716" cy="494" r="12" class="c0"/>
<circle cx="1418" cy="228" r="12" class="c0"/>
<circle cx="1704" cy="394" r="12" class="c0"/>
<circle cx="1328" cy="222" r="12" class="c0"/>
<circle cx="1340" cy="278" r="12" class="c0"/>
<circle cx="1486" cy="272" r="12" class="c0"/>
<circle cx="1490" cy="406" r="12" class="c0"/>
<circle cx="768" cy="1162" r="12" class="c0"/>
<circle cx="1282" cy="404" r="12" class="c0"/>
<circle cx="852" cy="1044" r="12" class="c0"/>
<circle cx="1484" cy="316" r="12" class="c0"/>
<circle cx="762" cy="1038" r="12" class="c0"/>
<circle cx="1036" cy="314" r="12" class="c0"/>
<circle cx="1274" cy="350" r="12" class="c0"/>
<circle cx="1602" cy="414" r="12" class="c0"/>
<circle cx="1174" cy="246" r="12" class="c0"/>
<circle cx="1596" cy="290" r="12" class="c0"/>
<circle cx="1852" cy="420" r="12" class="c0"/>
<circle cx="1740" cy="578" r="12" class="c0"/>
<circle cx="706" cy="276" r="12" class="c0"/>
<circle cx="1566" cy="410" r="12" class="c0"/>
<circle cx="820" cy="406" r="12" class="c0"/>
<circle cx="1646" cy="472" r="12" class="c0"/>
<circle cx="824" cy="246" r="12" class="c0"/>
<circle cx="1654" cy="400" r="12" class="c0"/>
<circle cx="1384" cy="224" r="12" class="c0"/>
<circle cx="1476" cy="344" r="10" class="c0"/>
<circle cx="1456" cy="264" r="10" class="c0"/>
<circle cx="1332" cy="406" r="10" class="c0"/>
<circle cx="1446" cy="480" r="10" class="c0"/>
<circle cx="1386" cy="250" r="10" class="c0"/>
<circle cx="1026" cy="222" r="10" class="c0"/>
<circle cx="1286" cy="244" r="10" class="c0"/>
<circle cx="1642" cy="348" r="10" class="c0"/>
<circle cx="842" cy="1222" r="10" class="c0"/>
<circle cx="1196" cy="200" r="10" class="c0"/>
<circle cx="1874" cy="238" r="10" class="c0"/>
<circle cx="796" cy="338" r="10" class="c0"/>
<circle cx="1118" cy="326" r="10" class="c0"/>
<circle cx="1708" cy="448" r="10" class="c0"/>
<circle cx="1262" cy="218" r="10" class="c0"/>
<circle cx="1888" cy="340" r="10" class="c0"/>
<circle cx="936" cy="286" r="10" class="c0"/>
<circle cx="1236" cy="248" r="10" class="c0"/>
<circle cx="1900" cy="524" r="10" class="c0"/>
<circle cx="1366" cy="410" r="10" class="c0"/>
<circle cx="852" cy="204" r="10" class="c0"/>
<circle cx="796" cy="1180" r="10" class="c0"/>
<circle cx="1358" cy="262" r="10" class="c0"/>
<circle cx="1820" cy="378" r="10" class="c0"/>
<circle cx="1654" cy="552" r="10" class="c0"/>
<circle cx="942" cy="228" r="10" class="c0"/>
<circle cx="1080" cy="276" r="10" class="c0"/>
<circle cx="1856" cy="292" r="10" class="c0"/>
<circle cx="872" cy="1134" r="10" class="c0"/>
<circle cx="1628" cy="444" r="10" class="c0"/>
<circle cx="928" cy="210" r="10" class="c0"/>
<circle cx="868" cy="1200" r="10" class="c0"/>
<circle cx="748" cy="1090" r="10" class="c0"/>
<circle cx="1002" cy="274" r="10" class="c0"/>
<circle cx="1678" cy="454" r="10" class="c0"/>
<circle cx="1668" cy="284" r="10" class="c0"/>
<circle cx="1770" cy="534" r="10" class="c0"/>
<circle cx="1778" cy="496" r="10" class="c0"/>
<circle cx="1416" cy="426" r="10" class="c0"/>
<circle cx="1016" cy="454" r="10" class="c0"/>
<circle cx="1032" cy="424" r="10" class="c0"/>
<circle cx="1568" cy="516" r="10" class="c0"/>
<circle cx="862" cy="1356" r="10" class="c0"/>
<circle cx="1508" cy="394" r="10" class="c0"/>
<circle cx="738" cy="396" r="10" class="c0"/>
<circle cx="1812" cy="464" r="10" class="c0"/>
<circle cx="940" cy="184" r="10" class="c0"/>
<circle cx="898" cy="1336" r="10" class="c0"/>
<circle cx="764" cy="382" r="10" class="c0"/>
<circle cx="1792" cy="338" r="10" class="c0"/>
<circle cx="1618" cy="482" r="10" class="c0"/>
<circle cx="1582" cy="468" r="10" class="c0"/>
<circle cx="1834" cy="326" r="10" class="c0"/>
<circle cx="836" cy="188" r="10" class="c0"/>
<circle cx="828" cy="362" r="10" class="c0"/>
<circle cx="990" cy="316" r="10" class="c0"/>
<circle cx="1690" cy="264" r="10" class="c0"/>
<circle cx="1538" cy="506" r="10" class="c0"/>
<circle cx="1792" cy="304" r="10" class="c0"/>
<circle cx="1844" cy="506" r="10" class="c0"/>
<circle cx="1586" cy="236" r="10" class="c0"/>
<circle cx="960" cy="218" r="10" class="c0"/>
<circle cx="850" cy="1312" r="10" class="c0"/>
<circle cx="1076" cy="370" r="10" class="c0"/>
<circle cx="902" cy="1220" r="10" class="c0"/>
<circle cx="1318" cy="246" r="10" class="c0"/>
<circle cx="694" cy="234" r="10" class="c0"/>
<circle cx="1704" cy="524" r="10" class="c0"/>
<circle cx="1698" cy="308" r="10" class="c0"/>
<circle cx="1628" cy="288" r="10" class="c0"/>
<circle cx="1316" cy="322" r="10" class="c0"/>
<circle cx="760" cy="1076" r="10" class="c0"/>
<circle cx="1704" cy="472" r="10" class="c0"/>
<circle cx="1646" cy="528" r="10" class="c0"/>
<circle cx="822" cy="1096" r="10" class="c0"/>
<circle cx="946" cy="264" r="10" class="c0"/>
<circle cx="1108" cy="278" r="10" class="c0"/>
<circle cx="1274" cy="314" r="10" class="c0"/>
<circle cx="1164" cy="306" r="10" class="c0"/>
<circle cx="876" cy="1332" r="10" class="c0"/>
<circle cx="1362" cy="378" r="10" class="c0"/>
<circle cx="1826" cy="292" r="10" class="c0"/>
<circle cx="1716" cy="416" r="10" class="c0"/>
<circle cx="1640" cy="376" r="10" class="c0"/>
<circle cx="1234" cy="208" r="10" class="c0"/>
<circle cx="870" cy="1112" r="10" class="c0"/>
<circle cx="1454" cy="228" r="10" class="c0"/>
<circle cx="790" cy="264" r="10" class="c0"/>
<circle cx="1340" cy="360" r="10" class="c0"/>
<circle cx="1168" cy="332" r="10" class="c0"/>
<circle cx="1846" cy="530" r="10" class="c0"/>
<circle cx="1352" cy="334" r="10" class="c0"/>
<circle cx="1808" cy="402" r="10" class="c0"/>
<circle cx="1612" cy="386" r="10" class="c0"/>
<circle cx="1520" cy="290" r="10" class="c0"/>
<circle cx="782" cy="1116" r="10" class="c0"/>
<circle cx="1206" cy="332" r="10" class="c0"/>
<circle cx="1028" cy="290" r="10" class="c0"/>
<circle cx="1742" cy="510" r="10" class="c0"/>
<circle cx="1680" cy="390" r="10" class="c0"/>
<circle cx="1218" cy="228" r="10" class="c0"/>
<circle cx="1862" cy="354" r="10" class="c0"/>
<circle cx="830" cy="1012" r="10" class="c0"/>
<circle cx="1156" cy="272" r="10" class="c0"/>
<circle cx="1010" cy="338" r="10" class="c0"/>
<circle cx="1842" cy="262" r="10" class="c0"/>
<circle cx="794" cy="1018" r="10" class="c0"/>
<circle cx="1290" cy="214" r="10" class="c0"/>
<circle cx="1058" cy="232" r="10" class="c0"/>
<circle cx="1494" cy="486" r="10" class="c0"/>
<circle cx="1180" cy="220" r="10" class="c0"/>
<circle cx="1894" cy="282" r="10" class="c0"/>
<circle cx="1082" cy="250" r="10" class="c0"/>
<circle cx="1248" cy="348" r="10" class="c0"/>
<circle cx="782" cy="1082" r="10" class="c0"/>
<circle cx="1352" cy="306" r="10" class="c0"/>
<circle cx="936" cy="1312" r="10" class="c0"/>
<circle cx="1780" cy="454" r="10" class="c0"/>
<circle cx="1512" cy="310" r="10" class="c0"/>
<circle cx="1624" cy="264" r="10" class="c0"/>
<circle cx="1306" cy="390" r="10" class="c0"/>
<circle cx="1674" cy="484" r="10" class="c0"/>
<circle cx="1038" cy="352" r="10" class="c0"/>
<circle cx="1520" cy="252" r="10" class="c0"/>
<circle cx="1724" cy="300" r="10" class="c0"/>
<circle cx="1466" cy="302" r="10" class="c0"/>
<circle cx="1438" cy="380" r="10" class="c0"/>
<circle cx="1596" cy="356" r="10" class="c0"/>
<circle cx="1542" cy="532" r="10" class="c0"/>
<circle cx="870" cy="1258" r="10" class="c0"/>
<circle cx="1220" cy="350" r="10" class="c0"/>
<circle cx="866" cy="1084" r="10" class="c0"/>
<circle cx="1392" cy="380" r="10" class="c0"/>
<circle cx="992" cy="206" r="10" class="c0"/>
<circle cx="1408" cy="446" r="10" class="c0"/>
<circle cx="1636" cy="422" r="10" class="c0"/>
<circle cx="898" cy="182" r="10" class="c0"/>
<circle cx="1544" cy="348" r="10" class="c0"/>
<circle cx="974" cy="1298" r="10" class="c0"/>
<circle cx="1522" cy="444" r="10" class="c0"/>
<circle cx="1906" cy="428" r="10" class="c0"/>
<circle cx="1608" cy="458" r="10" class="c0"/>
<circle cx="740" cy="326" r="10" class="c0"/>
<circle cx="726" cy="234" r="10" class="c0"/>
<circle cx="1716" cy="554" r="10" class="c0"/>
<circle cx="1634" cy="516" r="10" class="c0"/>
<circle cx="834" cy="1190" r="10" class="c0"/>
<circle cx="1752" cy="390" r="10" class="c0"/>
<circle cx="1884" cy="438" r="10" class="c0"/>
<circle cx="838" cy="292" r="10" class="c0"/>
<circle cx="700" cy="314" r="10" class="c0"/>
<circle cx="1118" cy="254" r="10" class="c0"/>
<circle cx="1170" cy="196" r="10" class="c0"/>
<circle cx="834" cy="1250" r="10" class="c0"/>
<circle cx="1422" cy="278" r="10" class="c0"/>
<circle cx="1566" cy="294" r="10" class="c0"/>
<circle cx="1518" cy="544" r="10" class="c0"/>
<circle cx="686" cy="358" r="10" class="c0"/>
<circle cx="788" cy="226" r="10" class="c0"/>
<circle cx="1268" cy="376" r="10" class="c0"/>
<circle cx="1800" cy="280" r="10" class="c0"/>
<circle cx="1700" cy="354" r="10" class="c0"/>
<circle cx="1694" cy="286" r="10" class="c0"/>
<circle cx="820" cy="1068" r="8" class="c0"/>
<circle cx="1804" cy="544" r="8" class="c0"/>
<circle cx="1422" cy="466" r="8" class="c0"/>
<circle cx="1144" cy="246" r="8" class="c0"/>
<circle cx="1874" cy="368" r="8" class="c0"/>
<circle cx="1374" cy="444" r="8" class="c0"/>
<circle cx="1302" cy="230" r="8" class="c0"/>
<circle cx="1342" cy="236" r="8" class="c0"/>
<circle cx="852" cy="1130" r="8" class="c0"/>
<circle cx="1906" cy="268" r="8" class="c0"/>
<circle cx="1518" cy="494" r="8" class="c0"/>
<circle cx="1494" cy="336" r="8" class="c0"/>
<circle cx="1128" cy="202" r="8" class="c0"/>
<circle cx="1242" cy="286" r="8" class="c0"/>
<circle cx="1066" cy="296" r="8" class="c0"/>
<circle cx="1544" cy="282" r="8" class="c0"/>
<circle cx="894" cy="1274" r="8" class="c0"/>
<circle cx="1894" cy="488" r="8" class="c0"/>
<circle cx="1406" cy="392" r="8" class="c0"/>
<circle cx="1894" cy="360" r="8" class="c0"/>
<circle cx="1586" cy="492" r="8" class="c0"/>
<circle cx="1810" cy="360" r="8" class="c0"/>
<circle cx="1572" cy="260" r="8" class="c0"/>
<circle cx="782" cy="198" r="8" class="c0"/>
<circle cx="1518" cy="372" r="8" class="c0"/>
<circle cx="1620" cy="330" r="8" class="c0"/>
<circle cx="1624" cy="242" r="8" class="c0"/>
<circle cx="1798" cy="564" r="8" class="c0"/>
<circle cx="1604" cy="268" r="8" class="c0"/>
<circle cx="960" cy="304" r="8" class="c0"/>
<circle cx="1840" cy="382" r="8" class="c0"/>
<circle cx="1712" cy="574" r="8" class="c0"/>
<circle cx="1848" cy="482" r="8" class="c0"/>
<circle cx="1562" cy="384" r="8" class="c0"/>
<circle cx="986" cy="1278" r="8" class="c0"/>
<circle cx="1088" cy="188" r="8" class="c0"/>
<circle cx="718" cy="258" r="8" class="c0"/>
<circle cx="1792" cy="434" r="8" class="c0"/>
<circle cx="690" cy="262" r="8" class="c0"/>
<circle cx="1224" cy="308" r="8" class="c0"/>
<circle cx="1520" cy="418" r="8" class="c0"/>
<circle cx="1006" cy="224" r="8" class="c0"/>
<circle cx="962" cy="238" r="8" class="c0"/>
<circle cx="1756" cy="476" r="8" class="c0"/>
<circle cx="1758" cy="364" r="8" class="c0"/>
<circle cx="982" cy="226" r="8" class="c0"/>
<circle cx="818" cy="288" r="8" class="c0"/>
<circle cx="1788" cy="524" r="8" class="c0"/>
<circle cx="728" cy="374" r="8" class="c0"/>
<circle cx="1462" cy="368" r="8" class="c0"/>
<circle cx="1560" cy="314" r="8" class="c0"/>
<circle cx="856" cy="240" r="8" class="c0"/>
<circle cx="1596" cy="522" r="8" class="c0"/>
<circle cx="1442" cy="414" r="8" class="c0"/>
<circle cx="1494" cy="518" r="8" class="c0"/>
<circle cx="776" cy="310" r="8" class="c0"/>
<circle cx="984" cy="288" r="8" class="c0"/>
<circle cx="1898" cy="242" r="8" class="c0"/>
<circle cx="1632" cy="554" r="8" class="c0"/>
<circle cx="1472" cy="468" r="8" class="c0"/>
<circle cx="1434" cy="266" r="8" class="c0"/>
<circle cx="674" cy="272" r="8" class="c0"/>
<circle cx="1014" cy="404" r="8" class="c0"/>
<circle cx="1220" cy="278" r="8" class="c0"/>
<circle cx="1180" cy="318" r="8" class="c0"/>
<circle cx="810" cy="378" r="8" class="c0"/>
<circle cx="1440" cy="248" r="8" class="c0"/>
<circle cx="1082" cy="308" r="8" class="c0"/>
<circle cx="882" cy="1228" r="8" class="c0"/>
<circle cx="1632" cy="496" r="8" class="c0"/>
<circle cx="1462" cy="440" r="8" class="c0"/>
<circle cx="1102" cy="240" r="8" class="c0"/>
<circle cx="1666" cy="420" r="8" class="c0"/>
<circle cx="1130" cy="338" r="8" class="c0"/>
<circle cx="1320" cy="352" r="8" class="c0"/>
<circle cx="1594" cy="376" r="8" class="c0"/>
<circle cx="1252" cy="296" r="8" class="c0"/>
<circle cx="1516" cy="334" r="8" class="c0"/>
<circle cx="1732" cy="466" r="8" class="c0"/>
<circle cx="782" cy="1058" r="8" class="c0"/>
<circle cx="760" cy="1116" r="8" class="c0"/>
<circle cx="1814" cy="334" r="8" class="c0"/>
<circle cx="860" cy="1150" r="8" class="c0"/>
<circle cx="656" cy="388" r="8" class="c0"/>
<circle cx="838" cy="260" r="8" class="c0"/>
<circle cx="796" cy="244" r="8" class="c0"/>
<circle cx="892" cy="1186" r="8" class="c0"/>
<circle cx="1596" cy="576" r="8" class="c0"/>
<circle cx="948" cy="318" r="8" class="c0"/>
<circle cx="1906" cy="386" r="8" class="c0"/>
<circle cx="1552" cy="464" r="8" class="c0"/>
<circle cx="820" cy="208" r="8" class="c0"/>
<circle cx="846" cy="1096" r="8" class="c0"/>
<circle cx="1442" cy="356" r="8" class="c0"/>
<circle cx="1778" cy="316" r="8" class="c0"/>
<circle cx="1204" cy="296" r="8" class="c0"/>
<circle cx="1760" cy="408" r="8" class="c0"/>
<circle cx="1738" cy="414" r="8" class="c0"/>
<circle cx="1700" cy="544" r="8" class="c0"/>
<circle cx="962" cy="198" r="8" class="c0"/>
<circle cx="1838" cy="348" r="8" class="c0"/>
<circle cx="1308" cy="290" r="8" class="c0"/>
<circle cx="1578" cy="336" r="8" class="c0"/>
<circle cx="1416" cy="362" r="8" class="c0"/>
<circle cx="924" cy="1286" r="8" class="c0"/>
<circle cx="848" cy="332" r="8" class="c0"/>
<circle cx="880" cy="1156" r="8" class="c0"/>
<circle cx="1464" cy="390" r="8" class="c0"/>
<circle cx="1780" cy="358" r="8" class="c0"/>
<circle cx="662" cy="262" r="8" class="c0"/>
<circle cx="1826" cy="486" r="8" class="c0"/>
<circle cx="740" cy="462" r="8" class="c0"/>
<circle cx="860" cy="306" r="8" class="c0"/>
<circle cx="914" cy="198" r="8" class="c0"/>
<circle cx="1468" cy="488" r="8" class="c0"/>
<circle cx="1296" cy="330" r="8" class="c0"/>
<circle cx="766" cy="294" r="8" class="c0"/>
<circle cx="1350" cy="452" r="8" class="c0"/>
<circle cx="916" cy="246" r="8" class="c0"/>
<circle cx="1862" cy="402" r="8" class="c0"/>
<circle cx="1676" cy="522" r="8" class="c0"/>
<circle cx="1864" cy="436" r="8" class="c0"/>
<circle cx="902" cy="278" r="8" class="c0"/>
<circle cx="764" cy="342" r="8" class="c0"/>
<circle cx="1688" cy="504" r="8" class="c0"/>
<circle cx="1574" cy="432" r="8" class="c0"/>
<circle cx="1548" cy="258" r="8" class="c0"/>
<circle cx="1450" cy="322" r="8" class="c0"/>
<circle cx="756" cy="416" r="8" class="c0"/>
<circle cx="800" cy="1206" r="8" class="c0"/>
<circle cx="1652" cy="364" r="8" class="c0"/>
<circle cx="1048" cy="272" r="8" class="c0"/>
<circle cx="1500" cy="286" r="8" class="c0"/>
<circle cx="1376" cy="360" r="8" class="c0"/>
<circle cx="1690" cy="438" r="8" class="c0"/>
<circle cx="654" cy="284" r="8" class="c0"/>
<circle cx="1130" cy="314" r="8" class="c0"/>
<circle cx="1540" cy="316" r="8" class="c0"/>
<circle cx="1572" cy="540" r="8" class="c0"/>
<circle cx="792" cy="1152" r="8" class="c0"/>
<circle cx="1132" cy="292" r="8" class="c0"/>
<circle cx="1888" cy="408" r="8" class="c0"/>
<circle cx="772" cy="1018" r="8" class="c0"/>
<circle cx="1900" cy="224" r="8" class="c0"/>
<circle cx="1468" cy="422" r="8" class="c0"/>
<circle cx="936" cy="1234" r="8" class="c0"/>
<circle cx="1150" cy="324" r="8" class="c0"/>
<circle cx="1412" cy="492" r="8" class="c0"/>
<circle cx="1178" cy="284" r="8" class="c0"/>
<circle cx="1090" cy="206" r="8" class="c0"/>
<circle cx="1118" cy="360" r="8" class="c0"/>
<circle cx="1036" cy="388" r="8" class="c0"/>
<circle cx="1264" cy="278" r="8" class="c0"/>
<circle cx="1882" cy="266" r="8" class="c0"/>
<circle cx="900" cy="1292" r="8" class="c0"/>
<circle cx="996" cy="242" r="8" class="c0"/>
<circle cx="1900" cy="304" r="8" class="c0"/>
<circle cx="1726" cy="334" r="8" class="c0"/>
<circle cx="1874" cy="390" r="8" class="c0"/>
<circle cx="1620" cy="540" r="8" class="c0"/>
<circle cx="1058" cy="356" r="8" class="c0"/>
<circle cx="1684" cy="370" r="8" class="c0"/>
<circle cx="1216" cy="258" r="8" class="c0"/>
<circle cx="766" cy="268" r="8" class="c0"/>
<circle cx="816" cy="434" r="8" class="c0"/>
<circle cx="722" cy="214" r="8" class="c0"/>
<circle cx="1532" cy="386" r="8" class="c0"/>
<circle cx="1032" cy="258" r="8" class="c0"/>
<circle cx="852" cy="1334" r="8" class="c0"/>
<circle cx="1014" cy="384" r="8" class="c0"/>
<circle cx="1626" cy="362" r="8" class="c0"/>
<circle cx="1752" cy="292" r="8" class="c0"/>
<circle cx="792" cy="1098" r="8" class="c0"/>
<circle cx="1848" cy="456" r="8" class="c0"/>
<circle cx="1310" cy="418" r="8" class="c0"/>
<circle cx="942" cy="1252" r="8" class="c0"/>
<circle cx="830" cy="310" r="8" class="c0"/>
<circle cx="1852" cy="312" r="8" class="c0"/>
<circle cx="1666" cy="508" r="8" class="c0"/>
<circle cx="736" cy="1054" r="8" class="c0"/>
<circle cx="1486" cy="370" r="8" class="c0"/>
<circle cx="1674" cy="544" r="8" class="c0"/>
<circle cx="1114" cy="186" r="8" class="c0"/>
<circle cx="1716" cy="322" r="8" class="c0"/>
<circle cx="808" cy="1226" r="8" class="c0"/>
<circle cx="682" cy="326" r="8" class="c0"/>
<circle cx="802" cy="396" r="8" class="c0"/>
<circle cx="752" cy="310" r="8" class="c0"/>
<circle cx="1804" cy="444" r="8" class="c0"/>
<circle cx="1398" cy="274" r="8" class="c0"/>
<circle cx="1006" cy="300" r="8" class="c0"/>
<circle cx="808" cy="228" r="8" class="c0"/>
<circle cx="724" cy="288" r="8" class="c0"/>
<circle cx="1372" cy="316" r="8" class="c0"/>
<circle cx="1826" cy="570" r="8" class="c0"/>
<circle cx="1116" cy="304" r="8" class="c0"/>
<circle cx="746" cy="232" r="8" class="c0"/>
<circle cx="1882" cy="512" r="8" class="c0"/>
<circle cx="768" cy="960" r="8" class="c0"/>
<circle cx="1460" cy="520" r="8" class="c0"/>
<circle cx="844" cy="1000" r="8" class="c0"/>
<circle cx="1636" cy="252" r="8" class="c0"/>
<circle cx="842" cy="1164" r="8" class="c0"/>
<circle cx="924" cy="316" r="8" class="c0"/>
<circle cx="1820" cy="258" r="8" class="c0"/>
<circle cx="688" cy="290" r="8" class="c0"/>
<circle cx="1436" cy="292" r="8" class="c0"/>
<circle cx="856" cy="1234" r="8" class="c0"/>
<circle cx="866" cy="262" r="8" class="c0"/>
<circle cx="1748" cy="326" r="8" class="c0"/>
<circle cx="1446" cy="280" r="8" class="c0"/>
<circle cx="832" cy="218" r="8" class="c0"/>
<circle cx="1132" cy="270" r="8" class="c0"/>
<circle cx="1564" cy="350" r="8" class="c0"/>
<circle cx="1298" cy="354" r="8" class="c0"/>
<circle cx="794" cy="292" r="8" class="c0"/>
<circle cx="766" cy="238" r="8" class="c0"/>
<circle cx="972" cy="266" r="8" class="c0"/>
<circle cx="786" cy="354" r="8" class="c0"/>
<circle cx="1478" cy="228" r="8" class="c0"/>
<circle cx="880" cy="284" r="8" class="c0"/>
<circle cx="870" cy="194" r="8" class="c0"/>
<circle cx="1598" cy="504" r="8" class="c0"/>
<circle cx="798" cy="1134" r="8" class="c0"/>
<circle cx="832" cy="1054" r="8" class="c0"/>
<circle cx="1542" cy="402" r="8" class="c0"/>
<circle cx="1560" cy="488" r="8" class="c0"/>
<circle cx="800" cy="312" r="8" class="c0"/>
<circle cx="1722" cy="516" r="8" class="c0"/>
<circle cx="1754" cy="564" r="8" class="c0"/>
<circle cx="1726" cy="436" r="8" class="c0"/>
<circle cx="878" cy="1296" r="8" class="c0"/>
<circle cx="1126" cy="230" r="8" class="c0"/>
<circle cx="1594" cy="314" r="8" class="c0"/>
<circle cx="1060" cy="332" r="8" class="c0"/>
<circle cx="804" cy="1078" r="8" class="c0"/>
<circle cx="1162" cy="228" r="8" class="c0"/>
<circle cx="894" cy="232" r="8" class="c0"/>
<circle cx="1428" cy="396" r="8" class="c0"/>
<circle cx="1498" cy="246" r="8" class="c0"/>
<circle cx="1388" cy="420" r="8" class="c0"/>
<circle cx="1484" cy="458" r="8" class="c0"/>
<circle cx="810" cy="268" r="8" class="c0"/>
<circle cx="658" cy="346" r="8" class="c0"/>
<circle cx="1296" cy="274" r="8" class="c0"/>
<circle cx="1344" cy="390" r="8" class="c0"/>
<circle cx="1662" cy="440" r="8" class="c0"/>
<circle cx="1638" cy="320" r="8" class="c0"/>
<circle cx="1388" cy="288" r="8" class="c0"/>
<circle cx="1406" cy="352" r="8" class="c0"/>
<circle cx="904" cy="1198" r="8" class="c0"/>
<circle cx="1398" cy="462" r="8" class="c0"/>
<circle cx="1872" cy="526" r="8" class="c0"/>
<circle cx="1826" cy="548" r="8" class="c0"/>
<circle cx="640" cy="300" r="8" class="c0"/>
<circle cx="1330" cy="260" r="8" class="c0"/>
<circle cx="1184" cy="348" r="8" class="c0"/>
<circle cx="1290" cy="292" r="8" class="c0"/>
<circle cx="1194" cy="266" r="8" class="c0"/>
<circle cx="1348" cy="420" r="8" class="c0"/>
<circle cx="1368" cy="278" r="8" class="c0"/>
<circle cx="820" cy="1236" r="8" class="c0"/>
<circle cx="1024" cy="364" r="8" class="c0"/>
<circle cx="726" cy="306" r="8" class="c0"/>
<circle cx="1412" cy="304" r="8" class="c0"/>
<circle cx="1502" cy="454" r="8" class="c0"/>
<circle cx="1778" cy="474" r="8" class="c0"/>
<circle cx="1328" cy="372" r="8" class="c0"/>
<circle cx="834" cy="1120" r="8" class="c0"/>
<circle cx="996" cy="178" r="8" class="c0"/>
<circle cx="758" cy="362" r="8" class="c0"/>
<circle cx="914" cy="266" r="8" class="c0"/>
<circle cx="1104" cy="216" r="8" class="c0"/>
<circle cx="730" cy="356" r="8" class="c0"/>
<circle cx="1256" cy="388" r="8" class="c0"/>
<circle cx="1196" cy="230" r="8" class="c0"/>
<circle cx="1906" cy="476" r="8" class="c0"/>
<circle cx="1688" cy="556" r="8" class="c0"/>
<circle cx="1238" cy="320" r="8" class="c0"/>
<circle cx="1332" cy="430" r="8" class="c0"/>
<circle cx="1576" cy="360" r="8" class="c0"/>
<circle cx="1072" cy="210" r="8" class="c0"/>
<circle cx="1600" cy="438" r="8" class="c0"/>
<circle cx="1028" cy="466" r="8" class="c0"/>
<circle cx="904" cy="298" r="8" class="c0"/>
<circle cx="1860" cy="254" r="8" class="c0"/>
<circle cx="1286" cy="366" r="8" class="c0"/>
<circle cx="1552" cy="444" r="8" class="c0"/>
<circle cx="1730" cy="602" r="8" class="c0"/>
<circle cx="1910" cy="332" r="8" class="c0"/>
<circle cx="1802" cy="322" r="8" class="c0"/>
<circle cx="890" cy="264" r="8" class="c0"/>
<circle cx="1630" cy="600" r="8" class="c0"/>
<circle cx="1260" cy="238" r="8" class="c0"/>
<circle cx="750" cy="446" r="8" class="c0"/>
<circle cx="1146" cy="350" r="8" class="c0"/>
<circle cx="1058" cy="382" r="8" class="c0"/>
<circle cx="1446" cy="454" r="8" class="c0"/>
<circle cx="764" cy="322" r="8" class="c0"/>
<circle cx="1616" cy="566" r="8" class="c0"/>
<circle cx="1070" cy="186" r="8" class="c0"/>
<circle cx="1586" cy="270" r="8" class="c0"/>
<circle cx="1742" cy="542" r="8" class="c0"/>
<circle cx="1656" cy="498" r="8" class="c0"/>
<circle cx="1278" cy="266" r="8" class="c0"/>
<circle cx="818" cy="338" r="8" class="c0"/>
<circle cx="1110" cy="344" r="8" class="c0"/>
<circle cx="800" cy="364" r="8" class="c0"/>
<circle cx="1522" cy="354" r="8" class="c0"/>
<circle cx="1042" cy="246" r="8" class="c0"/>
<circle cx="1432" cy="440" r="8" class="c0"/>
<circle cx="802" cy="1108" r="8" class="c0"/>
<circle cx="644" cy="318" r="8" class="c0"/>
<circle cx="874" cy="242" r="8" class="c0"/>
<circle cx="1308" cy="340" r="8" class="c0"/>
<circle cx="1048" cy="216" r="8" class="c0"/>
<circle cx="1732" cy="532" r="8" class="c0"/>
<circle cx="1804" cy="488" r="8" class="c0"/>
<circle cx="1418" cy="256" r="8" class="c0"/>
<circle cx="1374" cy="336" r="8" class="c0"/>
<circle cx="890" cy="204" r="8" class="c0"/>
<circle cx="1002" cy="356" r="8" class="c0"/>
<circle cx="1150" cy="294" r="8" class="c0"/>
<circle cx="1870" cy="502" r="8" class="c0"/>
<circle cx="818" cy="1130" r="8" class="c0"/>
<circle cx="1496" cy="360" r="8" class="c0"/>
<circle cx="1092" cy="358" r="8" class="c0"/>
<circle cx="972" cy="180" r="8" class="c0"/>
<circle cx="1304" cy="310" r="8" class="c0"/>
<circle cx="1836" cy="402" r="8" class="c0"/>
<circle cx="930" cy="1334" r="8" class="c0"/>
<circle cx="780" cy="1198" r="8" class="c0"/>
<circle cx="1668" cy="320" r="8" class="c0"/>
<circle cx="866" cy="1220" r="8" class="c0"/>
<circle cx="1872" cy="282" r="8" class="c0"/>
<circle cx="736" cy="1074" r="8" class="c0"/>
<circle cx="804" cy="1058" r="8" class="c0"/>
<circle cx="1718" cy="272" r="8" class="c0"/>
<circle cx="1558" cy="578" r="8" class="c0"/>
<circle cx="1248" cy="264" r="8" class="c0"/>
<circle cx="664" cy="364" r="8" class="c0"/>
<circle cx="1102" cy="314" r="8" class="c0"/>
<circle cx="1552" cy="424" r="8" class="c0"/>
<circle cx="1886" cy="536" r="8" class="c0"/>
<circle cx="962" cy="286" r="8" class="c0"/>
<circle cx="844" cy="1072" r="8" class="c0"/>
<circle cx="1536" cy="558" r="8" class="c0"/>
<circle cx="1692" cy="420" r="8" class="c0"/>
<circle cx="828" cy="274" r="8" class="c0"/>
<circle cx="1908" cy="350" r="8" class="c0"/>
<circle cx="796" cy="208" r="8" class="c0"/>
<circle cx="1762" cy="516" r="8" class="c0"/>
<circle cx="1872" cy="322" r="8" class="c0"/>
<circle cx="1730" cy="394" r="8" class="c0"/>
<circle cx="1580" cy="396" r="8" class="c0"/>
<circle cx="1142" cy="190" r="8" class="c0"/>
<circle cx="1494" cy="430" r="8" class="c0"/>
<circle cx="762" cy="196" r="8" class="c0"/>
<circle cx="1854" cy="372" r="8" class="c0"/>
<circle cx="778" cy="1136" r="8" class="c0"/>
<circle cx="970" cy="314" r="8" class="c0"/>
<circle cx="700" cy="338" r="8" class="c0"/>
<circle cx="820" cy="1212" r="8" class="c0"/>
<circle cx="916" cy="1308" r="8" class="c0"/>
<circle cx="1782" cy="412" r="8" class="c0"/>
<circle cx="860" cy="1064" r="8" class="c0"/>
<circle cx="1814" cy="306" r="8" class="c0"/>
<circle cx="866" cy="1168" r="8" class="c0"/>
<circle cx="880" cy="1096" r="8" class="c0"/>
<circle cx="1092" cy="392" r="8" class="c0"/>
<circle cx="1644" cy="570" r="8" class="c0"/>
<circle cx="894" cy="1244" r="8" class="c0"/>
<circle cx="772" cy="216" r="8" class="c0"/>
<circle cx="1426" cy="314" r="8" class="c0"/>
<circle cx="892" cy="1310" r="8" class="c0"/>
<circle cx="1772" cy="274" r="8" class="c0"/>
<circle cx="856" cy="1014" r="8" class="c0"/>
<circle cx="1368" cy="240" r="8" class="c0"/>
<circle cx="1226" cy="382" r="8" class="c0"/>
<circle cx="1386" cy="306" r="8" class="c0"/>
<circle cx="898" cy="1162" r="8" class="c0"/>
<circle cx="1058" cy="256" r="8" class="c0"/>
<circle cx="980" cy="250" r="8" class="c0"/>
<circle cx="750" cy="1136" r="8" class="c0"/>
<circle cx="918" cy="1236" r="8" class="c0"/>
<circle cx="822" cy="1170" r="8" class="c0"/>
<circle cx="1620" cy="308" r="8" class="c0"/>
<circle cx="786" cy="322" r="8" class="c0"/>
<circle cx="1788" cy="554" r="8" class="c0"/>
<circle cx="1194" cy="368" r="8" class="c0"/>
<circle cx="1816" cy="534" r="8" class="c0"/>
<circle cx="706" cy="248" r="8" class="c0"/>
<circle cx="1496" cy="382" r="8" class="c0"/>
<circle cx="800" cy="418" r="8" class="c0"/>
<circle cx="890" cy="322" r="8" class="c0"/>
<circle cx="1190" cy="306" r="8" class="c0"/>
<circle cx="1086" cy="230" r="8" class="c0"/>
<circle cx="1762" cy="302" r="8" class="c0"/>
<circle cx="910" cy="218" r="8" class="c0"/>
<circle cx="1652" cy="332" r="8" class="c0"/>
<circle cx="1604" cy="246" r="8" class="c0"/>
<circle cx="1246" cy="372" r="8" class="c0"/>
<circle cx="1024" cy="242" r="8" class="c0"/>
<circle cx="1836" cy="470" r="8" class="c0"/>
<circle cx="1430" cy="500" r="8" class="c0"/>
<circle cx="1550" cy="374" r="8" class="c0"/>
<circle cx="836" cy="1272" r="8" class="c0"/>
<circle cx="1900" cy="448" r="8" class="c0"/>
<circle cx="1454" cy="404" r="8" class="c0"/>
<circle cx="1906" cy="504" r="8" class="c0"/>
<circle cx="808" cy="186" r="8" class="c0"/>
<circle cx="1472" cy="510" r="8" class="c0"/>
<circle cx="1296" cy="428" r="8" class="c0"/>
<circle cx="1562" cy="270" r="8" class="c0"/>
<circle cx="1474" cy="252" r="8" class="c0"/>
<circle cx="1664" cy="354" r="8" class="c0"/>
<circle cx="1534" cy="270" r="8" class="c0"/>
<circle cx="1524" cy="524" r="8" class="c0"/>
<circle cx="1364" cy="430" r="8" class="c0"/>
<circle cx="678" cy="246" r="8" class="c0"/>
<circle cx="1614" cy="512" r="8" class="c0"/>
<circle cx="1890" cy="320" r="6" class="c0"/>
<circle cx="954" cy="1302" r="6" class="c0"/>
<circle cx="1896" cy="548" r="6" class="c0"/>
<circle cx="1628" cy="400" r="6" class="c0"/>
<circle cx="1768" cy="374" r="6" class="c0"/>
<circle cx="1520" cy="226" r="6" class="c0"/>
<circle cx="1878" cy="552" r="6" class="c0"/>
<circle cx="814" cy="304" r="6" class="c0"/>
<circle cx="792" cy="386" r="6" class="c0"/>
<circle cx="1174" cy="368" r="6" class="c0"/>
<circle cx="1382" cy="394" r="6" class="c0"/>
<circle cx="1568" cy="556" r="6" class="c0"/>
<circle cx="1772" cy="578" r="6" class="c0"/>
<circle cx="706" cy="218" r="6" class="c0"/>
<circle cx="1854" cy="238" r="6" class="c0"/>
<circle cx="1072" cy="320" r="6" class="c0"/>
<circle cx="970" cy="1272" r="6" class="c0"/>
<circle cx="1838" cy="432" r="6" class="c0"/>
<circle cx="878" cy="306" r="6" class="c0"/>
<circle cx="1750" cy="526" r="6" class="c0"/>
<circle cx="1872" cy="454" r="6" class="c0"/>
<circle cx="1650" cy="452" r="6" class="c0"/>
<circle cx="1006" cy="422" r="6" class="c0"/>
<circle cx="1102" cy="296" r="6" class="c0"/>
<circle cx="1896" cy="576" r="6" class="c0"/>
<circle cx="848" cy="224" r="6" class="c0"/>
<circle cx="1130" cy="178" r="6" class="c0"/>
<circle cx="1624" cy="346" r="6" class="c0"/>
<circle cx="916" cy="1326" r="6" class="c0"/>
<circle cx="790" cy="1042" r="6" class="c0"/>
<circle cx="1504" cy="224" r="6" class="c0"/>
<circle cx="1050" cy="404" r="6" class="c0"/>
<circle cx="1604" cy="340" r="6" class="c0"/>
<circle cx="926" cy="1220" r="6" class="c0"/>
<circle cx="874" cy="178" r="6" class="c0"/>
<circle cx="774" cy="1100" r="6" class="c0"/>
<circle cx="1018" cy="266" r="6" class="c0"/>
<circle cx="1202" cy="280" r="6" class="c0"/>
<circle cx="1530" cy="234" r="6" class="c0"/>
<circle cx="1334" cy="326" r="6" class="c0"/>
<circle cx="834" cy="1036" r="6" class="c0"/>
<circle cx="1830" cy="448" r="6" class="c0"/>
<circle cx="1036" cy="406" r="6" class="c0"/>
<circle cx="1550" cy="304" r="6" class="c0"/>
<circle cx="886" cy="1212" r="6" class="c0"/>
<circle cx="1766" cy="552" r="6" class="c0"/>
<circle cx="914" cy="1208" r="6" class="c0"/>
<circle cx="814" cy="1194" r="6" class="c0"/>
<circle cx="1034" cy="178" r="6" class="c0"/>
<circle cx="1508" cy="474" r="6" class="c0"/>
<circle cx="1262" cy="256" r="6" class="c0"/>
<circle cx="1552" cy="548" r="6" class="c0"/>
<circle cx="1134" cy="362" r="6" class="c0"/>
<circle cx="752" cy="284" r="6" class="c0"/>
<circle cx="1698" cy="566" r="6" class="c0"/>
<circle cx="828" cy="444" r="6" class="c0"/>
<circle cx="1480" cy="440" r="6" class="c0"/>
<circle cx="1742" cy="278" r="6" class="c0"/>
<circle cx="1314" cy="436" r="6" class="c0"/>
<circle cx="1390" cy="438" r="6" class="c0"/>
<circle cx="1008" cy="256" r="6" class="c0"/>
<circle cx="1034" cy="204" r="6" class="c0"/>
<circle cx="1476" cy="528" r="6" class="c0"/>
<circle cx="1676" cy="430" r="6" class="c0"/>
<circle cx="1878" cy="300" r="6" class="c0"/>
<circle cx="768" cy="990" r="6" class="c0"/>
<circle cx="1494" cy="538" r="6" class="c0"/>
<circle cx="720" cy="326" r="6" class="c0"/>
<circle cx="1746" cy="308" r="6" class="c0"/>
<circle cx="1854" cy="274" r="6" class="c0"/>
<circle cx="844" cy="1204" r="6" class="c0"/>
<circle cx="1624" cy="580" r="6" class="c0"/>
<circle cx="1326" cy="300" r="6" class="c0"/>
<circle cx="958" cy="1256" r="6" class="c0"/>
<circle cx="1228" cy="366" r="6" class="c0"/>
<circle cx="808" cy="1006" r="6" class="c0"/>
<circle cx="1744" cy="492" r="6" class="c0"/>
<circle cx="1364" cy="220" r="6" class="c0"/>
<circle cx="1048" cy="300" r="6" class="c0"/>
<circle cx="986" cy="344" r="6" class="c0"/>
<circle cx="1700" cy="592" r="6" class="c0"/>
<circle cx="846" cy="314" r="6" class="c0"/>
<circle cx="1508" cy="508" r="6" class="c0"/>
<circle cx="820" cy="462" r="6" class="c0"/>
<circle cx="918" cy="180" r="6" class="c0"/>
<circle cx="832" cy="380" r="6" class="c0"/>
<circle cx="1652" cy="246" r="6" class="c0"/>
<circle cx="1356" cy="288" r="6" class="c0"/>
<circle cx="1010" cy="316" r="6" class="c0"/>
<circle cx="846" cy="364" r="6" class="c0"/>
<circle cx="1720" cy="590" r="6" class="c0"/>
<circle cx="1212" cy="192" r="6" class="c0"/>
<circle cx="1150" cy="218" r="6" class="c0"/>
<circle cx="842" cy="350" r="6" class="c0"/>
<circle cx="1888" cy="380" r="6" class="c0"/>
<circle cx="1672" cy="256" r="6" class="c0"/>
<circle cx="1832" cy="366" r="6" class="c0"/>
<circle cx="774" cy="366" r="6" class="c0"/>
<circle cx="1760" cy="584" r="6" class="c0"/>
<circle cx="1096" cy="174" r="6" class="c0"/>
<circle cx="1232" cy="336" r="6" class="c0"/>
<circle cx="1444" cy="340" r="6" class="c0"/>
<circle cx="832" cy="1082" r="6" class="c0"/>
<circle cx="724" cy="444" r="6" class="c0"/>
<circle cx="1246" cy="228" r="6" class="c0"/>
<circle cx="776" cy="280" r="6" class="c0"/>
<circle cx="736" cy="278" r="6" class="c0"/>
<circle cx="1860" cy="514" r="6" class="c0"/>
<circle cx="1532" cy="302" r="6" class="c0"/>
<circle cx="1852" cy="338" r="6" class="c0"/>
<circle cx="722" cy="406" r="6" class="c0"/>
<circle cx="1576" cy="310" r="6" class="c0"/>
<circle cx="874" cy="1312" r="6" class="c0"/>
<circle cx="1384" cy="454" r="6" class="c0"/>
<circle cx="1794" cy="508" r="6" class="c0"/>
<circle cx="1456" cy="464" r="6" class="c0"/>
<circle cx="1256" cy="320" r="6" class="c0"/>
<circle cx="1458" cy="336" r="6" class="c0"/>
<circle cx="1866" cy="476" r="6" class="c0"/>
<circle cx="974" cy="208" r="6" class="c0"/>
<circle cx="792" cy="188" r="6" class="c0"/>
<circle cx="894" cy="1126" r="6" class="c0"/>
<circle cx="1734" cy="482" r="6" class="c0"/>
<circle cx="662" cy="244" r="6" class="c0"/>
<circle cx="1284" cy="384" r="6" class="c0"/>
<circle cx="1732" cy="350" r="6" class="c0"/>
<circle cx="1910" cy="292" r="6" class="c0"/>
<circle cx="1540" cy="454" r="6" class="c0"/>
<circle cx="1674" cy="564" r="6" class="c0"/>
<circle cx="1768" cy="594" r="6" class="c0"/>
<circle cx="1298" cy="256" r="6" class="c0"/>
<circle cx="1628" cy="464" r="6" class="c0"/>
<circle cx="710" cy="298" r="6" class="c0"/>
<circle cx="1792" cy="580" r="6" class="c0"/>
<circle cx="1368" cy="470" r="6" class="c0"/>
<circle cx="1610" cy="530" r="6" class="c0"/>
<circle cx="884" cy="1356" r="6" class="c0"/>
<circle cx="842" cy="1296" r="6" class="c0"/>
<circle cx="1310" cy="368" r="6" class="c0"/>
<circle cx="1102" cy="196" r="6" class="c0"/>
<circle cx="1438" cy="220" r="6" class="c0"/>
<circle cx="1838" cy="304" r="6" class="c0"/>
<circle cx="1560" cy="334" r="6" class="c0"/>
<circle cx="1758" cy="498" r="6" class="c0"/>
<circle cx="1040" cy="442" r="6" class="c0"/>
<circle cx="1044" cy="374" r="6" class="c0"/>
<circle cx="1704" cy="430" r="6" class="c0"/>
<circle cx="1666" cy="376" r="6" class="c0"/>
<circle cx="674" cy="340" r="6" class="c0"/>
<circle cx="926" cy="256" r="6" class="c0"/>
<circle cx="1790" cy="266" r="6" class="c0"/>
<circle cx="1580" cy="448" r="6" class="c0"/>
<circle cx="1818" cy="276" r="6" class="c0"/>
<circle cx="800" cy="448" r="6" class="c0"/>
<circle cx="806" cy="1164" r="6" class="c0"/>
<circle cx="856" cy="184" r="6" class="c0"/>
<circle cx="1260" cy="408" r="6" class="c0"/>
<circle cx="1774" cy="292" r="6" class="c0"/>
<circle cx="660" cy="330" r="6" class="c0"/>
<circle cx="844" cy="1350" r="6" class="c0"/>
<circle cx="1210" cy="366" r="6" class="c0"/>
<circle cx="1446" cy="430" r="6" class="c0"/>
<circle cx="1310" cy="212" r="6" class="c0"/>
<circle cx="1682" cy="300" r="6" class="c0"/>
<circle cx="1452" cy="502" r="6" class="c0"/>
<circle cx="1816" cy="560" r="6" class="c0"/>
<circle cx="992" cy="260" r="6" class="c0"/>
<circle cx="938" cy="248" r="6" class="c0"/>
<circle cx="986" cy="188" r="6" class="c0"/>
<circle cx="1482" cy="498" r="6" class="c0"/>
<circle cx="1348" cy="214" r="6" class="c0"/>
<circle cx="748" cy="344" r="6" class="c0"/>
<circle cx="1796" cy="474" r="6" class="c0"/>
<circle cx="1486" cy="294" r="6" class="c0"/>
<circle cx="1408" cy="320" r="6" class="c0"/>
<circle cx="866" cy="1024" r="6" class="c0"/>
<circle cx="1458" cy="352" r="6" class="c0"/>
<circle cx="1532" cy="336" r="6" class="c0"/>
<circle cx="644" cy="272" r="6" class="c0"/>
<circle cx="1374" cy="296" r="6" class="c0"/>
<circle cx="742" cy="1118" r="6" class="c0"/>
<circle cx="1596" cy="330" r="6" class="c0"/>
<circle cx="1262" cy="336" r="6" class="c0"/>
<circle cx="852" cy="1252" r="6" class="c0"/>
<circle cx="1582" cy="564" r="6" class="c0"/>
<circle cx="888" cy="1114" r="6" class="c0"/>
<circle cx="1072" cy="348" r="6" class="c0"/>
<circle cx="1452" cy="534" r="6" class="c0"/>
<circle cx="1908" cy="252" r="6" class="c0"/>
<circle cx="946" cy="204" r="6" class="c0"/>
<circle cx="1614" cy="430" r="6" class="c0"/>
<circle cx="1396" cy="362" r="6" class="c0"/>
<circle cx="1316" cy="460" r="6" class="c0"/>
<circle cx="1826" cy="522" r="6" class="c0"/>
<circle cx="1232" cy="268" r="6" class="c0"/>
<circle cx="1470" cy="284" r="6" class="c0"/>
<circle cx="1106" cy="376" r="6" class="c0"/>
<circle cx="854" cy="1266" r="6" class="c0"/>
<circle cx="1536" cy="432" r="6" class="c0"/>
<circle cx="1474" cy="544" r="6" class="c0"/>
<circle cx="1794" cy="366" r="6" class="c0"/>
<circle cx="1816" cy="586" r="6" class="c0"/>
<circle cx="1734" cy="314" r="6" class="c0"/>
<circle cx="1874" cy="574" r="6" class="c0"/>
<circle cx="1030" cy="336" r="6" class="c0"/>
<circle cx="1748" cy="354" r="6" class="c0"/>
<circle cx="1448" cy="306" r="6" class="c0"/>
<circle cx="1402" cy="408" r="6" class="c0"/>
<circle cx="928" cy="336" r="6" class="c0"/>
<circle cx="1206" cy="382" r="6" class="c0"/>
<circle cx="1426" cy="412" r="6" class="c0"/>
<circle cx="1836" cy="598" r="6" class="c0"/>
<circle cx="750" cy="1062" r="6" class="c0"/>
<circle cx="1004" cy="438" r="6" class="c0"/>
<circle cx="1426" cy="484" r="6" class="c0"/>
<circle cx="1508" cy="266" r="6" class="c0"/>
<circle cx="1874" cy="418" r="6" class="c0"/>
<circle cx="1610" cy="592" r="6" class="c0"/>
<circle cx="868" cy="322" r="6" class="c0"/>
<circle cx="1904" cy="404" r="6" class="c0"/>
<circle cx="846" cy="1024" r="6" class="c0"/>
<circle cx="848" cy="1112" r="6" class="c0"/>
<circle cx="944" cy="302" r="6" class="c0"/>
<circle cx="854" cy="1180" r="6" class="c0"/>
<circle cx="1588" cy="538" r="6" class="c0"/>
<circle cx="1852" cy="392" r="6" class="c0"/>
<circle cx="1610" cy="368" r="6" class="c0"/>
<circle cx="918" cy="284" r="6" class="c0"/>
<circle cx="1408" cy="476" r="6" class="c0"/>
<circle cx="1570" cy="244" r="6" class="c0"/>
<circle cx="1316" cy="268" r="6" class="c0"/>
<circle cx="1706" cy="374" r="6" class="c0"/>
<circle cx="1646" cy="590" r="6" class="c0"/>
<circle cx="776" cy="1180" r="6" class="c0"/>
<circle cx="680" cy="376" r="6" class="c0"/>
<circle cx="904" cy="256" r="6" class="c0"/>
<circle cx="1700" cy="334" r="6" class="c0"/>
<circle cx="1358" cy="352" r="6" class="c0"/>
<circle cx="1912" cy="536" r="6" class="c0"/>
<circle cx="1734" cy="286" r="6" class="c0"/>
<circle cx="1254" cy="202" r="6" class="c0"/>
<circle cx="1408" cy="246" r="6" class="c0"/>
<circle cx="1570" cy="498" r="6" class="c0"/>
<circle cx="1056" cy="424" r="6" class="c0"/>
<circle cx="932" cy="1264" r="6" class="c0"/>
<circle cx="1204" cy="248" r="6" class="c0"/>
<circle cx="1696" cy="488" r="6" class="c0"/>
<circle cx="792" cy="1068" r="6" class="c0"/>
<circle cx="878" cy="1178" r="6" class="c0"/>
<circle cx="648" cy="358" r="6" class="c0"/>
<circle cx="1176" cy="266" r="6" class="c0"/>
<circle cx="1382" cy="270" r="6" class="c0"/>
<circle cx="1512" cy="236" r="6" class="c0"/>
<circle cx="812" cy="322" r="6" class="c0"/>
<circle cx="1910" cy="460" r="6" class="c0"/>
<circle cx="942" cy="1294" r="6" class="c0"/>
<circle cx="1214" cy="208" r="6" class="c0"/>
<circle cx="1842" cy="586" r="6" class="c0"/>
<circle cx="980" cy="330" r="6" class="c0"/>
<circle cx="1538" cy="248" r="6" class="c0"/>
<circle cx="746" cy="378" r="6" class="c0"/>
<circle cx="1200" cy="350" r="6" class="c0"/>
<circle cx="716" cy="344" r="6" class="c0"/>
<circle cx="736" cy="1102" r="6" class="c0"/>
<circle cx="1268" cy="294" r="6" class="c0"/>
<circle cx="778" cy="248" r="6" class="c0"/>
<circle cx="1406" cy="288" r="6" class="c0"/>
<circle cx="1504" cy="346" r="6" class="c0"/>
<circle cx="1136" cy="220" r="6" class="c0"/>
<circle cx="1058" cy="174" r="6" class="c0"/>
<circle cx="1330" cy="340" r="6" class="c0"/>
<circle cx="1838" cy="280" r="6" class="c0"/>
<circle cx="720" cy="1050" r="6" class="c0"/>
<circle cx="1062" cy="312" r="6" class="c0"/>
<circle cx="744" cy="292" r="6" class="c0"/>
<circle cx="1426" cy="520" r="6" class="c0"/>
<circle cx="1534" cy="366" r="6" class="c0"/>
<circle cx="1646" cy="436" r="6" class="c0"/>
<circle cx="764" cy="1004" r="6" class="c0"/>
<circle cx="1158" cy="180" r="6" class="c0"/>
<circle cx="1204" cy="314" r="6" class="c0"/>
<circle cx="1204" cy="216" r="6" class="c0"/>
<circle cx="1742" cy="342" r="6" class="c0"/>
<circle cx="1682" cy="408" r="6" class="c0"/>
<circle cx="1162" cy="358" r="6" class="c0"/>
<circle cx="872" cy="1238" r="6" class="c0"/>
<circle cx="896" cy="248" r="6" class="c0"/>
<circle cx="644" cy="336" r="6" class="c0"/>
<circle cx="834" cy="342" r="6" class="c0"/>
<circle cx="1398" cy="238" r="6" class="c0"/>
<circle cx="1780" cy="568" r="6" class="c0"/>
<circle cx="728" cy="270" r="6" class="c0"/>
<circle cx="1716" cy="344" r="6" class="c0"/>
<circle cx="1542" cy="486" r="6" class="c0"/>
<circle cx="1144" cy="206" r="6" class="c0"/>
<circle cx="846" cy="1364" r="6" class="c0"/>
<circle cx="1590" cy="602" r="6" class="c0"/>
<circle cx="1912" cy="368" r="6" class="c0"/>
<circle cx="1906" cy="564" r="6" class="c0"/>
<circle cx="1588" cy="254" r="6" class="c0"/>
<circle cx="840" cy="234" r="6" class="c0"/>
<circle cx="1766" cy="464" r="6" class="c0"/>
<circle cx="1798" cy="416" r="6" class="c0"/>
<circle cx="1324" cy="388" r="6" class="c0"/>
<circle cx="1418" cy="380" r="6" class="c0"/>
<circle cx="1090" cy="290" r="6" class="c0"/>
<circle cx="1322" cy="444" r="6" class="c0"/>
<circle cx="912" cy="1346" r="6" class="c0"/>
<circle cx="962" cy="256" r="6" class="c0"/>
<circle cx="1658" cy="598" r="6" class="c0"/>
<circle cx="1614" cy="278" r="6" class="c0"/>
<circle cx="1056" cy="286" r="6" class="c0"/>
<circle cx="782" cy="378" r="6" class="c0"/>
<circle cx="1578" cy="378" r="6" class="c0"/>
<circle cx="924" cy="232" r="6" class="c0"/>
<circle cx="1272" cy="204" r="6" class="c0"/>
<circle cx="1402" cy="258" r="6" class="c0"/>
<circle cx="1496" cy="302" r="6" class="c0"/>
<circle cx="782" cy="1030" r="6" class="c0"/>
<circle cx="972" cy="338" r="6" class="c0"/>
<circle cx="1804" cy="520" r="6" class="c0"/>
<circle cx="810" cy="354" r="6" class="c0"/>
<circle cx="1562" cy="454" r="6" class="c0"/>
<circle cx="1882" cy="566" r="6" class="c0"/>
<circle cx="1584" cy="422" r="6" class="c0"/>
<circle cx="1458" cy="246" r="6" class="c0"/>
<circle cx="1782" cy="284" r="6" class="c0"/>
<circle cx="1526" cy="324" r="6" class="c0"/>
<circle cx="1098" cy="262" r="6" class="c0"/>
<circle cx="1858" cy="468" r="6" class="c0"/>
<circle cx="1664" cy="534" r="6" class="c0"/>
<circle cx="650" cy="372" r="6" class="c0"/>
<circle cx="832" cy="326" r="6" class="c0"/>
<circle cx="1504" cy="558" r="6" class="c0"/>
<circle cx="1692" cy="580" r="6" class="c0"/>
<circle cx="1394" cy="502" r="6" class="c0"/>
<circle cx="742" cy="1036" r="6" class="c0"/>
<circle cx="1268" cy="418" r="6" class="c0"/>
<circle cx="1444" cy="526" r="6" class="c0"/>
<circle cx="1276" cy="228" r="6" class="c0"/>
<circle cx="994" cy="1294" r="6" class="c0"/>
<circle cx="812" cy="454" r="6" class="c0"/>
<circle cx="1222" cy="324" r="6" class="c0"/>
<circle cx="856" cy="348" r="6" class="c0"/>
<circle cx="1510" cy="432" r="6" class="c0"/>
<circle cx="1912" cy="552" r="6" class="c0"/>
<circle cx="1820" cy="350" r="6" class="c0"/>
<circle cx="1600" cy="476" r="6" class="c0"/>
<circle cx="922" cy="300" r="6" class="c0"/>
<circle cx="790" cy="406" r="6" class="c0"/>
<circle cx="808" cy="1150" r="6" class="c0"/>
<circle cx="1712" cy="288" r="6" class="c0"/>
<circle cx="1148" cy="366" r="6" class="c0"/>
<circle cx="760" cy="982" r="6" class="c0"/>
<circle cx="1844" cy="570" r="6" class="c0"/>
<circle cx="732" cy="476" r="6" class="c0"/>
<circle cx="942" cy="340" r="6" class="c0"/>
<circle cx="1384" cy="492" r="6" class="c0"/>
</svg>
