<?xml version="1.0" encoding="utf-8"?>
<svg xmlns="http://www.w3.org/2000/svg"
     xmlns:xlink="http://www.w3.org/1999/xlink" width="1920" height="1440" >

            <defs>
            <style type="text/css"><![CDATA[
circle {stroke: none;}
.c0 {fill: #FFFFFF;}
]]></style>
            </defs>
<rect x="0" y="0" width="1920" height="1440" fill="black"/>
<circle cx="752" cy="852" r="14" class="c0"/>
<circle cx="718" cy="806" r="12" class="c0"/>
<circle cx="648" cy="832" r="12" class="c0"/>
<circle cx="802" cy="884" r="12" class="c0"/>
<circle cx="810" cy="844" r="12" class="c0"/>
<circle cx="870" cy="936" r="12" class="c0"/>
<circle cx="776" cy="840" r="12" class="c0"/>
<circle cx="840" cy="814" r="12" class="c0"/>
<circle cx="708" cy="852" r="12" class="c0"/>
<circle cx="662" cy="786" r="12" class="c0"/>
<circle cx="836" cy="900" r="12" class="c0"/>
<circle cx="696" cy="790" r="12" class="c0"/>
<circle cx="888" cy="820" r="12" class="c0"/>
<circle cx="806" cy="804" r="10" class="c0"/>
<circle cx="852" cy="872" r="10" class="c0"/>
<circle cx="616" cy="756" r="10" class="c0"/>
<circle cx="738" cy="872" r="10" class="c0"/>
<circle cx="924" cy="808" r="10" class="c0"/>
<circle cx="892" cy="880" r="10" class="c0"/>
<circle cx="918" cy="834" r="10" class="c0"/>
<circle cx="876" cy="840" r="10" class="c0"/>
<circle cx="760" cy="822" r="10" class="c0"/>
<circle cx="696" cy="752" r="10" class="c0"/>
<circle cx="652" cy="764" r="10" class="c0"/>
<circle cx="826" cy="874" r="10" class="c0"/>
<circle cx="678" cy="842" r="10" class="c0"/>
<circle cx="906" cy="864" r="10" class="c0"/>
<circle cx="758" cy="770" r="10" class="c0"/>
<circle cx="674" cy="758" r="10" class="c0"/>
<circle cx="896" cy="946" r="10" class="c0"/>
<circle cx="704" cy="826" r="10" class="c0"/>
<circle cx="740" cy="790" r="10" class="c0"/>
<circle cx="826" cy="930" r="10" class="c0"/>
<circle cx="622" cy="840" r="8" class="c0"/>
<circle cx="698" cy="874" r="8" class="c0"/>
<circle cx="680" cy="868" r="8" class="c0"/>
<circle cx="884" cy="794" r="8" class="c0"/>
<circle cx="658" cy="734" r="8" class="c0"/>
<circle cx="794" cy="828" r="8" class="c0"/>
<circle cx="724" cy="766" r="8" class="c0"/>
<circle cx="610" cy="788" r="8" class="c0"/>
<circle cx="738" cy="830" r="8" class="c0"/>
<circle cx="832" cy="850" r="8" class="c0"/>
<circle cx="688" cy="810" r="8" class="c0"/>
<circle cx="914" cy="888" r="8" class="c0"/>
<circle cx="860" cy="850" r="8" class="c0"/>
<circle cx="632" cy="732" r="8" class="c0"/>
<circle cx="848" cy="942" r="8" class="c0"/>
<circle cx="682" cy="734" r="8" class="c0"/>
<circle cx="756" cy="892" r="8" class="c0"/>
<circle cx="866" cy="908" r="8" class="c0"/>
<circle cx="618" cy="810" r="8" class="c0"/>
<circle cx="910" cy="796" r="8" class="c0"/>
<circle cx="602" cy="770" r="8" class="c0"/>
<circle cx="772" cy="784" r="8" class="c0"/>
<circle cx="664" cy="856" r="8" class="c0"/>
<circle cx="662" cy="812" r="8" class="c0"/>
<circle cx="780" cy="802" r="8" class="c0"/>
<circle cx="750" cy="806" r="8" class="c0"/>
<circle cx="860" cy="960" r="8" class="c0"/>
<circle cx="778" cy="884" r="8" class="c0"/>
<circle cx="906" cy="918" r="8" class="c0"/>
<circle cx="644" cy="796" r="8" class="c0"/>
<circle cx="898" cy="838" r="8" class="c0"/>
<circle cx="778" cy="862" r="8" class="c0"/>
<circle cx="596" cy="800" r="8" class="c0"/>
<circle cx="858" cy="982" r="8" class="c0"/>
<circle cx="712" cy="778" r="8" class="c0"/>
<circle cx="868" cy="884" r="8" class="c0"/>
<circle cx="882" cy="860" r="8" class="c0"/>
<circle cx="628" cy="782" r="8" class="c0"/>
<circle cx="890" cy="926" r="8" class="c0"/>
<circle cx="896" cy="902" r="8" class="c0"/>
<circle cx="604" cy="824" r="8" class="c0"/>
<circle cx="864" cy="826" r="8" class="c0"/>
<circle cx="800" cy="908" r="8" class="c0"/>
<circle cx="776" cy="904" r="8" class="c0"/>
<circle cx="864" cy="802" r="8" class="c0"/>
<circle cx="630" cy="822" r="8" class="c0"/>
<circle cx="850" cy="918" r="8" class="c0"/>
<circle cx="646" cy="854" r="8" class="c0"/>
<circle cx="718" cy="888" r="8" class="c0"/>
<circle cx="686" cy="770" r="8" class="c0"/>
<circle cx="886" cy="962" r="8" class="c0"/>
<circle cx="638" cy="750" r="8" class="c0"/>
<circle cx="820" cy="822" r="8" class="c0"/>
<circle cx="846" cy="838" r="8" class="c0"/>
<circle cx="764" cy="872" r="8" class="c0"/>
<circle cx="724" cy="840" r="8" class="c0"/>
<circle cx="720" cy="748" r="8" class="c0"/>
<circle cx="926" cy="856" r="8" class="c0"/>
<circle cx="762" cy="794" r="8" class="c0"/>
<circle cx="842" cy="962" r="8" class="c0"/>
<circle cx="814" cy="918" r="8" class="c0"/>
<circle cx="678" cy="820" r="8" class="c0"/>
<circle cx="678" cy="800" r="8" class="c0"/>
<circle cx="798" cy="862" r="8" class="c0"/>
<circle cx="878" cy="894" r="8" class="c0"/>
<circle cx="792" cy="792" r="8" class="c0"/>
<circle cx="816" cy="902" r="6" class="c0"/>
<circle cx="632" cy="766" r="6" class="c0"/>
<circle cx="740" cy="768" r="6" class="c0"/>
<circle cx="908" cy="816" r="6" class="c0"/>
<circle cx="826" cy="802" r="6" class="c0"/>
<circle cx="868" cy="786" r="6" class="c0"/>
<circle cx="920" cy="786" r="6" class="c0"/>
<circle cx="848" cy="794" r="6" class="c0"/>
<circle cx="882" cy="912" r="6" class="c0"/>
<circle cx="718" cy="868" r="6" class="c0"/>
<circle cx="640" cy="812" r="6" class="c0"/>
<circle cx="736" cy="814" r="6" class="c0"/>
<circle cx="856" cy="896" r="6" class="c0"/>
<circle cx="916" cy="904" r="6" class="c0"/>
<circle cx="830" cy="832" r="6" class="c0"/>
<circle cx="738" cy="892" r="6" class="c0"/>
<circle cx="788" cy="872" r="6" class="c0"/>
<circle cx="790" cy="812" r="6" class="c0"/>
<circle cx="590" cy="816" r="6" class="c0"/>
<circle cx="728" cy="858" r="6" class="c0"/>
<circle cx="780" cy="820" r="6" class="c0"/>
<circle cx="910" cy="934" r="6" class="c0"/>
<circle cx="900" cy="806" r="6" class="c0"/>
<circle cx="648" cy="724" r="6" class="c0"/>
<circle cx="698" cy="732" r="6" class="c0"/>
<circle cx="628" cy="800" r="6" class="c0"/>
</svg>
