<?xml version="1.0" encoding="utf-8"?>
<svg xmlns="http://www.w3.org/2000/svg"
     xmlns:xlink="http://www.w3.org/1999/xlink" width="1920" height="1440" >

            <defs>
            <style type="text/css"><![CDATA[
circle {stroke: none;}
.c0 {fill: #FFFFFF;}
]]></style>
            </defs>
<rect x="0" y="0" width="1920" height="1440" fill="black"/>
<circle cx="886" cy="704" r="12" class="c0"/>
<circle cx="800" cy="646" r="12" class="c0"/>
<circle cx="836" cy="690" r="12" class="c0"/>
<circle cx="726" cy="552" r="12" class="c0"/>
<circle cx="810" cy="424" r="12" class="c0"/>
<circle cx="766" cy="516" r="12" class="c0"/>
<circle cx="850" cy="618" r="12" class="c0"/>
<circle cx="740" cy="416" r="12" class="c0"/>
<circle cx="724" cy="452" r="12" class="c0"/>
<circle cx="758" cy="728" r="12" class="c0"/>
<circle cx="744" cy="536" r="12" class="c0"/>
<circle cx="784" cy="432" r="12" class="c0"/>
<circle cx="756" cy="588" r="12" class="c0"/>
<circle cx="856" cy="676" r="12" class="c0"/>
<circle cx="696" cy="486" r="12" class="c0"/>
<circle cx="722" cy="482" r="12" class="c0"/>
<circle cx="776" cy="472" r="12" class="c0"/>
<circle cx="652" cy="464" r="10" class="c0"/>
<circle cx="808" cy="496" r="10" class="c0"/>
<circle cx="766" cy="552" r="10" class="c0"/>
<circle cx="810" cy="612" r="10" class="c0"/>
<circle cx="808" cy="534" r="10" class="c0"/>
<circle cx="762" cy="670" r="10" class="c0"/>
<circle cx="798" cy="594" r="10" class="c0"/>
<circle cx="774" cy="706" r="10" class="c0"/>
<circle cx="700" cy="448" r="10" class="c0"/>
<circle cx="844" cy="718" r="10" class="c0"/>
<circle cx="714" cy="506" r="10" class="c0"/>
<circle cx="824" cy="626" r="10" class="c0"/>
<circle cx="800" cy="678" r="10" class="c0"/>
<circle cx="842" cy="646" r="10" class="c0"/>
<circle cx="784" cy="738" r="10" class="c0"/>
<circle cx="676" cy="452" r="10" class="c0"/>
<circle cx="804" cy="458" r="10" class="c0"/>
<circle cx="820" cy="656" r="10" class="c0"/>
<circle cx="714" cy="426" r="10" class="c0"/>
<circle cx="824" cy="732" r="10" class="c0"/>
<circle cx="740" cy="506" r="10" class="c0"/>
<circle cx="776" cy="576" r="8" class="c0"/>
<circle cx="764" cy="624" r="8" class="c0"/>
<circle cx="864" cy="642" r="8" class="c0"/>
<circle cx="808" cy="750" r="8" class="c0"/>
<circle cx="860" cy="700" r="8" class="c0"/>
<circle cx="784" cy="494" r="8" class="c0"/>
<circle cx="846" cy="740" r="8" class="c0"/>
<circle cx="794" cy="514" r="8" class="c0"/>
<circle cx="826" cy="570" r="8" class="c0"/>
<circle cx="892" cy="670" r="8" class="c0"/>
<circle cx="798" cy="726" r="8" class="c0"/>
<circle cx="778" cy="638" r="8" class="c0"/>
<circle cx="856" cy="764" r="8" class="c0"/>
<circle cx="756" cy="464" r="8" class="c0"/>
<circle cx="790" cy="696" r="8" class="c0"/>
<circle cx="758" cy="486" r="8" class="c0"/>
<circle cx="784" cy="536" r="8" class="c0"/>
<circle cx="810" cy="714" r="8" class="c0"/>
<circle cx="698" cy="524" r="8" class="c0"/>
<circle cx="732" cy="580" r="8" class="c0"/>
<circle cx="758" cy="690" r="8" class="c0"/>
<circle cx="662" cy="492" r="8" class="c0"/>
<circle cx="714" cy="532" r="8" class="c0"/>
<circle cx="760" cy="642" r="8" class="c0"/>
<circle cx="784" cy="614" r="8" class="c0"/>
<circle cx="670" cy="476" r="8" class="c0"/>
<circle cx="788" cy="556" r="8" class="c0"/>
<circle cx="682" cy="504" r="8" class="c0"/>
<circle cx="814" cy="474" r="8" class="c0"/>
<circle cx="778" cy="684" r="8" class="c0"/>
<circle cx="754" cy="610" r="8" class="c0"/>
<circle cx="764" cy="752" r="8" class="c0"/>
<circle cx="872" cy="658" r="8" class="c0"/>
<circle cx="772" cy="448" r="8" class="c0"/>
<circle cx="900" cy="688" r="8" class="c0"/>
<circle cx="738" cy="466" r="8" class="c0"/>
<circle cx="840" cy="596" r="8" class="c0"/>
<circle cx="768" cy="418" r="8" class="c0"/>
<circle cx="816" cy="554" r="8" class="c0"/>
<circle cx="750" cy="436" r="8" class="c0"/>
<circle cx="780" cy="660" r="8" class="c0"/>
<circle cx="866" cy="718" r="8" class="c0"/>
<circle cx="772" cy="600" r="8" class="c0"/>
<circle cx="744" cy="562" r="8" class="c0"/>
<circle cx="806" cy="566" r="8" class="c0"/>
<circle cx="748" cy="652" r="8" class="c0"/>
<circle cx="880" cy="682" r="8" class="c0"/>
<circle cx="634" cy="480" r="8" class="c0"/>
<circle cx="868" cy="776" r="8" class="c0"/>
<circle cx="832" cy="668" r="8" class="c0"/>
<circle cx="790" cy="408" r="8" class="c0"/>
<circle cx="822" cy="592" r="8" class="c0"/>
<circle cx="846" cy="784" r="8" class="c0"/>
<circle cx="746" cy="704" r="8" class="c0"/>
<circle cx="820" cy="704" r="8" class="c0"/>
<circle cx="708" cy="466" r="8" class="c0"/>
<circle cx="726" cy="522" r="8" class="c0"/>
<circle cx="794" cy="482" r="8" class="c0"/>
<circle cx="688" cy="466" r="8" class="c0"/>
<circle cx="758" cy="406" r="8" class="c0"/>
<circle cx="810" cy="694" r="8" class="c0"/>
<circle cx="746" cy="626" r="8" class="c0"/>
<circle cx="796" cy="624" r="8" class="c0"/>
<circle cx="650" cy="482" r="6" class="c0"/>
<circle cx="736" cy="596" r="6" class="c0"/>
<circle cx="822" cy="442" r="6" class="c0"/>
<circle cx="782" cy="756" r="6" class="c0"/>
<circle cx="738" cy="612" r="6" class="c0"/>
<circle cx="746" cy="452" r="6" class="c0"/>
<circle cx="820" cy="678" r="6" class="c0"/>
<circle cx="836" cy="580" r="6" class="c0"/>
<circle cx="812" cy="516" r="6" class="c0"/>
<circle cx="742" cy="484" r="6" class="c0"/>
<circle cx="746" cy="680" r="6" class="c0"/>
<circle cx="856" cy="796" r="6" class="c0"/>
<circle cx="794" cy="576" r="6" class="c0"/>
<circle cx="830" cy="606" r="6" class="c0"/>
<circle cx="810" cy="582" r="6" class="c0"/>
<circle cx="788" cy="716" r="6" class="c0"/>
<circle cx="910" cy="698" r="6" class="c0"/>
<circle cx="732" cy="434" r="6" class="c0"/>
<circle cx="830" cy="750" r="6" class="c0"/>
<circle cx="856" cy="730" r="6" class="c0"/>
<circle cx="786" cy="456" r="6" class="c0"/>
<circle cx="768" cy="496" r="6" class="c0"/>
<circle cx="774" cy="402" r="6" class="c0"/>
</svg>
