<?xml version="1.0" encoding="utf-8"?>
<svg xmlns="http://www.w3.org/2000/svg"
     xmlns:xlink="http://www.w3.org/1999/xlink" width="1920" height="1440" >

            <defs>
            <style type="text/css"><![CDATA[
circle {stroke: none;}
.c0 {fill: #FFFFFF;}
]]></style>
            </defs>
<rect x="0" y="0" width="1920" height="1440" fill="black"/>
<circle cx="742" cy="410" r="12" class="c0"/>
<circle cx="946" cy="464" r="12" class="c0"/>
<circle cx="868" cy="470" r="12" class="c0"/>
<circle cx="942" cy="490" r="12" class="c0"/>
<circle cx="832" cy="482" r="12" class="c0"/>
<circle cx="904" cy="472" r="12" class="c0"/>
<circle cx="986" cy="400" r="12" class="c0"/>
<circle cx="796" cy="464" r="12" class="c0"/>
<circle cx="718" cy="398" r="12" class="c0"/>
<circle cx="1002" cy="440" r="10" class="c0"/>
<circle cx="844" cy="460" r="10" class="c0"/>
<circle cx="884" cy="440" r="10" class="c0"/>
<circle cx="910" cy="398" r="10" class="c0"/>
<circle cx="742" cy="488" r="10" class="c0"/>
<circle cx="718" cy="478" r="10" class="c0"/>
<circle cx="732" cy="430" r="10" class="c0"/>
<circle cx="922" cy="376" r="10" class="c0"/>
<circle cx="766" cy="468" r="10" class="c0"/>
<circle cx="918" cy="446" r="10" class="c0"/>
<circle cx="692" cy="514" r="10" class="c0"/>
<circle cx="780" cy="422" r="10" class="c0"/>
<circle cx="774" cy="530" r="10" class="c0"/>
<circle cx="970" cy="456" r="10" class="c0"/>
<circle cx="816" cy="432" r="10" class="c0"/>
<circle cx="752" cy="442" r="10" class="c0"/>
<circle cx="962" cy="386" r="10" class="c0"/>
<circle cx="882" cy="408" r="10" class="c0"/>
<circle cx="970" cy="492" r="10" class="c0"/>
<circle cx="940" cy="398" r="10" class="c0"/>
<circle cx="704" cy="466" r="10" class="c0"/>
<circle cx="948" cy="430" r="10" class="c0"/>
<circle cx="740" cy="538" r="10" class="c0"/>
<circle cx="992" cy="472" r="10" class="c0"/>
<circle cx="830" cy="448" r="10" class="c0"/>
<circle cx="960" cy="360" r="10" class="c0"/>
<circle cx="994" cy="500" r="10" class="c0"/>
<circle cx="842" cy="422" r="10" class="c0"/>
<circle cx="884" cy="388" r="8" class="c0"/>
<circle cx="906" cy="422" r="8" class="c0"/>
<circle cx="720" cy="516" r="8" class="c0"/>
<circle cx="742" cy="516" r="8" class="c0"/>
<circle cx="1006" cy="376" r="8" class="c0"/>
<circle cx="840" cy="402" r="8" class="c0"/>
<circle cx="784" cy="496" r="8" class="c0"/>
<circle cx="712" cy="536" r="8" class="c0"/>
<circle cx="730" cy="458" r="8" class="c0"/>
<circle cx="764" cy="548" r="8" class="c0"/>
<circle cx="920" cy="486" r="8" class="c0"/>
<circle cx="790" cy="516" r="8" class="c0"/>
<circle cx="902" cy="380" r="8" class="c0"/>
<circle cx="966" cy="422" r="8" class="c0"/>
<circle cx="682" cy="486" r="8" class="c0"/>
<circle cx="712" cy="500" r="8" class="c0"/>
<circle cx="702" cy="422" r="8" class="c0"/>
<circle cx="864" cy="498" r="8" class="c0"/>
<circle cx="776" cy="398" r="8" class="c0"/>
<circle cx="820" cy="464" r="8" class="c0"/>
<circle cx="1000" cy="416" r="8" class="c0"/>
<circle cx="1018" cy="460" r="8" class="c0"/>
<circle cx="806" cy="508" r="8" class="c0"/>
<circle cx="928" cy="422" r="8" class="c0"/>
<circle cx="766" cy="492" r="8" class="c0"/>
<circle cx="804" cy="412" r="8" class="c0"/>
<circle cx="858" cy="394" r="8" class="c0"/>
<circle cx="890" cy="486" r="8" class="c0"/>
<circle cx="952" cy="410" r="8" class="c0"/>
<circle cx="1008" cy="484" r="8" class="c0"/>
<circle cx="762" cy="510" r="8" class="c0"/>
<circle cx="980" cy="434" r="8" class="c0"/>
<circle cx="862" cy="442" r="8" class="c0"/>
<circle cx="808" cy="486" r="8" class="c0"/>
<circle cx="1044" cy="410" r="8" class="c0"/>
<circle cx="1018" cy="412" r="8" class="c0"/>
<circle cx="714" cy="448" r="8" class="c0"/>
<circle cx="978" cy="368" r="8" class="c0"/>
<circle cx="862" cy="414" r="8" class="c0"/>
<circle cx="790" cy="438" r="8" class="c0"/>
<circle cx="854" cy="484" r="8" class="c0"/>
<circle cx="694" cy="440" r="8" class="c0"/>
<circle cx="1010" cy="394" r="8" class="c0"/>
<circle cx="752" cy="390" r="8" class="c0"/>
<circle cx="690" cy="534" r="8" class="c0"/>
<circle cx="900" cy="500" r="8" class="c0"/>
<circle cx="760" cy="420" r="8" class="c0"/>
<circle cx="940" cy="364" r="8" class="c0"/>
<circle cx="774" cy="446" r="8" class="c0"/>
<circle cx="994" cy="360" r="8" class="c0"/>
<circle cx="990" cy="452" r="6" class="c0"/>
<circle cx="824" cy="414" r="6" class="c0"/>
<circle cx="918" cy="502" r="6" class="c0"/>
<circle cx="810" cy="450" r="6" class="c0"/>
<circle cx="746" cy="462" r="6" class="c0"/>
<circle cx="822" cy="400" r="6" class="c0"/>
<circle cx="888" cy="458" r="6" class="c0"/>
<circle cx="938" cy="444" r="6" class="c0"/>
<circle cx="922" cy="464" r="6" class="c0"/>
<circle cx="960" cy="476" r="6" class="c0"/>
<circle cx="686" cy="462" r="6" class="c0"/>
<circle cx="930" cy="476" r="6" class="c0"/>
<circle cx="694" cy="496" r="6" class="c0"/>
<circle cx="822" cy="500" r="6" class="c0"/>
<circle cx="780" cy="478" r="6" class="c0"/>
<circle cx="712" cy="432" r="6" class="c0"/>
<circle cx="680" cy="502" r="6" class="c0"/>
<circle cx="722" cy="546" r="6" class="c0"/>
<circle cx="1032" cy="430" r="6" class="c0"/>
<circle cx="880" cy="496" r="6" class="c0"/>
<circle cx="702" cy="486" r="6" class="c0"/>
<circle cx="830" cy="392" r="6" class="c0"/>
<circle cx="900" cy="450" r="6" class="c0"/>
<circle cx="720" cy="418" r="6" class="c0"/>
<circle cx="728" cy="502" r="6" class="c0"/>
<circle cx="942" cy="380" r="6" class="c0"/>
<circle cx="736" cy="388" r="6" class="c0"/>
<circle cx="874" cy="426" r="6" class="c0"/>
<circle cx="964" cy="438" r="6" class="c0"/>
<circle cx="756" cy="526" r="6" class="c0"/>
<circle cx="990" cy="380" r="6" class="c0"/>
<circle cx="1022" cy="442" r="6" class="c0"/>
<circle cx="1022" cy="476" r="6" class="c0"/>
<circle cx="956" cy="502" r="6" class="c0"/>
<circle cx="968" cy="512" r="6" class="c0"/>
<circle cx="846" cy="440" r="6" class="c0"/>
<circle cx="974" cy="474" r="6" class="c0"/>
<circle cx="868" cy="384" r="6" class="c0"/>
<circle cx="844" cy="496" r="6" class="c0"/>
<circle cx="702" cy="546" r="6" class="c0"/>
<circle cx="1016" cy="428" r="6" class="c0"/>
<circle cx="942" cy="514" r="6" class="c0"/>
<circle cx="956" cy="446" r="6" class="c0"/>
</svg>
