<?xml version="1.0" encoding="utf-8"?>
<svg xmlns="http://www.w3.org/2000/svg"
     xmlns:xlink="http://www.w3.org/1999/xlink" width="1920" height="1440" >

            <defs>
            <style type="text/css"><![CDATA[
circle {stroke: none;}
.c0 {fill: #FFFFFF;}
]]></style>
            </defs>
<rect x="0" y="0" width="1920" height="1440" fill="black"/>
<circle cx="90" cy="1340" r="12" class="c0"/>
<circle cx="858" cy="438" r="12" class="c0"/>
<circle cx="62" cy="1320" r="12" class="c0"/>
<circle cx="824" cy="384" r="12" class="c0"/>
<circle cx="98" cy="1414" r="12" class="c0"/>
<circle cx="798" cy="458" r="12" class="c0"/>
<circle cx="962" cy="422" r="12" class="c0"/>
<circle cx="736" cy="476" r="12" class="c0"/>
<circle cx="916" cy="390" r="12" class="c0"/>
<circle cx="1016" cy="432" r="12" class="c0"/>
<circle cx="996" cy="368" r="12" class="c0"/>
<circle cx="138" cy="1320" r="12" class="c0"/>
<circle cx="754" cy="526" r="12" class="c0"/>
<circle cx="868" cy="356" r="12" class="c0"/>
<circle cx="104" cy="1362" r="12" class="c0"/>
<circle cx="930" cy="454" r="12" class="c0"/>
<circle cx="14" cy="1394" r="10" class="c0"/>
<circle cx="754" cy="462" r="10" class="c0"/>
<circle cx="18" cy="1366" r="10" class="c0"/>
<circle cx="850" cy="404" r="10" class="c0"/>
<circle cx="918" cy="348" r="10" class="c0"/>
<circle cx="834" cy="430" r="10" class="c0"/>
<circle cx="44" cy="1408" r="10" class="c0"/>
<circle cx="838" cy="478" r="10" class="c0"/>
<circle cx="814" cy="486" r="10" class="c0"/>
<circle cx="712" cy="492" r="10" class="c0"/>
<circle cx="888" cy="428" r="10" class="c0"/>
<circle cx="1030" cy="388" r="10" class="c0"/>
<circle cx="904" cy="416" r="10" class="c0"/>
<circle cx="796" cy="522" r="10" class="c0"/>
<circle cx="28" cy="1330" r="10" class="c0"/>
<circle cx="148" cy="1390" r="10" class="c0"/>
<circle cx="968" cy="310" r="10" class="c0"/>
<circle cx="184" cy="1394" r="10" class="c0"/>
<circle cx="78" cy="1392" r="10" class="c0"/>
<circle cx="36" cy="1350" r="10" class="c0"/>
<circle cx="148" cy="1418" r="10" class="c0"/>
<circle cx="890" cy="388" r="10" class="c0"/>
<circle cx="946" cy="338" r="10" class="c0"/>
<circle cx="174" cy="1372" r="10" class="c0"/>
<circle cx="62" cy="1418" r="10" class="c0"/>
<circle cx="950" cy="378" r="10" class="c0"/>
<circle cx="766" cy="500" r="10" class="c0"/>
<circle cx="736" cy="450" r="10" class="c0"/>
<circle cx="796" cy="552" r="10" class="c0"/>
<circle cx="812" cy="510" r="10" class="c0"/>
<circle cx="920" cy="428" r="10" class="c0"/>
<circle cx="1022" cy="334" r="10" class="c0"/>
<circle cx="728" cy="526" r="10" class="c0"/>
<circle cx="712" cy="448" r="10" class="c0"/>
<circle cx="980" cy="408" r="10" class="c0"/>
<circle cx="874" cy="454" r="10" class="c0"/>
<circle cx="784" cy="426" r="10" class="c0"/>
<circle cx="56" cy="1284" r="10" class="c0"/>
<circle cx="818" cy="442" r="10" class="c0"/>
<circle cx="844" cy="374" r="10" class="c0"/>
<circle cx="828" cy="408" r="10" class="c0"/>
<circle cx="988" cy="328" r="10" class="c0"/>
<circle cx="768" cy="410" r="10" class="c0"/>
<circle cx="826" cy="466" r="10" class="c0"/>
<circle cx="276" cy="1410" r="10" class="c0"/>
<circle cx="106" cy="1320" r="10" class="c0"/>
<circle cx="214" cy="1418" r="10" class="c0"/>
<circle cx="906" cy="370" r="10" class="c0"/>
<circle cx="192" cy="1358" r="10" class="c0"/>
<circle cx="230" cy="1384" r="10" class="c0"/>
<circle cx="78" cy="1364" r="8" class="c0"/>
<circle cx="1004" cy="302" r="8" class="c0"/>
<circle cx="722" cy="416" r="8" class="c0"/>
<circle cx="858" cy="472" r="8" class="c0"/>
<circle cx="804" cy="428" r="8" class="c0"/>
<circle cx="996" cy="444" r="8" class="c0"/>
<circle cx="914" cy="326" r="8" class="c0"/>
<circle cx="38" cy="1236" r="8" class="c0"/>
<circle cx="1018" cy="376" r="8" class="c0"/>
<circle cx="246" cy="1408" r="8" class="c0"/>
<circle cx="828" cy="500" r="8" class="c0"/>
<circle cx="744" cy="546" r="8" class="c0"/>
<circle cx="116" cy="1424" r="8" class="c0"/>
<circle cx="118" cy="1376" r="8" class="c0"/>
<circle cx="932" cy="312" r="8" class="c0"/>
<circle cx="808" cy="536" r="8" class="c0"/>
<circle cx="1002" cy="412" r="8" class="c0"/>
<circle cx="978" cy="354" r="8" class="c0"/>
<circle cx="874" cy="412" r="8" class="c0"/>
<circle cx="254" cy="1430" r="8" class="c0"/>
<circle cx="8" cy="1414" r="8" class="c0"/>
<circle cx="952" cy="404" r="8" class="c0"/>
<circle cx="876" cy="376" r="8" class="c0"/>
<circle cx="956" cy="450" r="8" class="c0"/>
<circle cx="942" cy="360" r="8" class="c0"/>
<circle cx="898" cy="462" r="8" class="c0"/>
<circle cx="750" cy="434" r="8" class="c0"/>
<circle cx="910" cy="444" r="8" class="c0"/>
<circle cx="946" cy="438" r="8" class="c0"/>
<circle cx="796" cy="410" r="8" class="c0"/>
<circle cx="124" cy="1302" r="8" class="c0"/>
<circle cx="250" cy="1360" r="8" class="c0"/>
<circle cx="150" cy="1340" r="8" class="c0"/>
<circle cx="20" cy="1238" r="8" class="c0"/>
<circle cx="40" cy="1370" r="8" class="c0"/>
<circle cx="1018" cy="400" r="8" class="c0"/>
<circle cx="966" cy="334" r="8" class="c0"/>
<circle cx="928" cy="374" r="8" class="c0"/>
<circle cx="12" cy="1346" r="8" class="c0"/>
<circle cx="196" cy="1428" r="8" class="c0"/>
<circle cx="962" cy="392" r="8" class="c0"/>
<circle cx="898" cy="350" r="8" class="c0"/>
<circle cx="742" cy="504" r="8" class="c0"/>
<circle cx="20" cy="1312" r="8" class="c0"/>
<circle cx="778" cy="530" r="8" class="c0"/>
<circle cx="176" cy="1428" r="8" class="c0"/>
<circle cx="34" cy="1260" r="8" class="c0"/>
<circle cx="784" cy="482" r="8" class="c0"/>
<circle cx="1008" cy="390" r="8" class="c0"/>
<circle cx="962" cy="364" r="8" class="c0"/>
<circle cx="48" cy="1334" r="8" class="c0"/>
<circle cx="106" cy="1282" r="8" class="c0"/>
<circle cx="774" cy="456" r="8" class="c0"/>
<circle cx="768" cy="542" r="8" class="c0"/>
<circle cx="58" cy="1366" r="8" class="c0"/>
<circle cx="978" cy="438" r="8" class="c0"/>
<circle cx="320" cy="1414" r="8" class="c0"/>
<circle cx="170" cy="1306" r="8" class="c0"/>
<circle cx="54" cy="1386" r="8" class="c0"/>
<circle cx="166" cy="1408" r="8" class="c0"/>
<circle cx="836" cy="450" r="8" class="c0"/>
<circle cx="128" cy="1408" r="8" class="c0"/>
<circle cx="882" cy="338" r="8" class="c0"/>
<circle cx="70" cy="1254" r="8" class="c0"/>
<circle cx="198" cy="1378" r="8" class="c0"/>
<circle cx="110" cy="1392" r="8" class="c0"/>
<circle cx="224" cy="1338" r="8" class="c0"/>
<circle cx="296" cy="1380" r="8" class="c0"/>
<circle cx="956" cy="294" r="8" class="c0"/>
<circle cx="80" cy="1306" r="8" class="c0"/>
<circle cx="16" cy="1272" r="8" class="c0"/>
<circle cx="934" cy="406" r="8" class="c0"/>
<circle cx="734" cy="426" r="8" class="c0"/>
<circle cx="1036" cy="412" r="8" class="c0"/>
<circle cx="24" cy="1422" r="8" class="c0"/>
<circle cx="706" cy="472" r="8" class="c0"/>
<circle cx="1016" cy="356" r="8" class="c0"/>
<circle cx="30" cy="1380" r="8" class="c0"/>
<circle cx="268" cy="1390" r="8" class="c0"/>
<circle cx="90" cy="1274" r="8" class="c0"/>
<circle cx="24" cy="1292" r="8" class="c0"/>
<circle cx="792" cy="502" r="8" class="c0"/>
<circle cx="986" cy="388" r="8" class="c0"/>
<circle cx="82" cy="1426" r="8" class="c0"/>
<circle cx="242" cy="1330" r="8" class="c0"/>
<circle cx="134" cy="1356" r="8" class="c0"/>
<circle cx="288" cy="1398" r="8" class="c0"/>
<circle cx="724" cy="506" r="8" class="c0"/>
<circle cx="988" cy="426" r="8" class="c0"/>
<circle cx="1006" cy="320" r="8" class="c0"/>
<circle cx="116" cy="1346" r="8" class="c0"/>
<circle cx="42" cy="1428" r="8" class="c0"/>
<circle cx="196" cy="1406" r="8" class="c0"/>
<circle cx="866" cy="386" r="8" class="c0"/>
<circle cx="950" cy="318" r="8" class="c0"/>
<circle cx="306" cy="1424" r="8" class="c0"/>
<circle cx="162" cy="1324" r="8" class="c0"/>
<circle cx="974" cy="376" r="8" class="c0"/>
<circle cx="40" cy="1312" r="8" class="c0"/>
<circle cx="764" cy="478" r="8" class="c0"/>
<circle cx="746" cy="408" r="8" class="c0"/>
<circle cx="706" cy="516" r="8" class="c0"/>
<circle cx="810" cy="398" r="8" class="c0"/>
<circle cx="314" cy="1390" r="8" class="c0"/>
<circle cx="1000" cy="346" r="8" class="c0"/>
<circle cx="284" cy="1430" r="8" class="c0"/>
<circle cx="90" cy="1378" r="8" class="c0"/>
<circle cx="204" cy="1294" r="8" class="c0"/>
<circle cx="68" cy="1350" r="8" class="c0"/>
<circle cx="124" cy="1280" r="8" class="c0"/>
<circle cx="280" cy="1358" r="8" class="c0"/>
<circle cx="220" cy="1366" r="8" class="c0"/>
<circle cx="212" cy="1398" r="8" class="c0"/>
<circle cx="162" cy="1360" r="8" class="c0"/>
<circle cx="762" cy="444" r="8" class="c0"/>
<circle cx="212" cy="1326" r="8" class="c0"/>
<circle cx="780" cy="512" r="8" class="c0"/>
<circle cx="236" cy="1424" r="8" class="c0"/>
<circle cx="324" cy="1376" r="8" class="c0"/>
<circle cx="270" cy="1280" r="6" class="c0"/>
<circle cx="1048" cy="332" r="6" class="c0"/>
<circle cx="380" cy="1402" r="6" class="c0"/>
<circle cx="1036" cy="346" r="6" class="c0"/>
<circle cx="32" cy="1208" r="6" class="c0"/>
<circle cx="6" cy="1294" r="6" class="c0"/>
<circle cx="898" cy="332" r="6" class="c0"/>
<circle cx="182" cy="1336" r="6" class="c0"/>
<circle cx="48" cy="1206" r="6" class="c0"/>
<circle cx="248" cy="1390" r="6" class="c0"/>
<circle cx="728" cy="400" r="6" class="c0"/>
<circle cx="80" cy="1286" r="6" class="c0"/>
<circle cx="100" cy="1300" r="6" class="c0"/>
<circle cx="402" cy="1418" r="6" class="c0"/>
<circle cx="888" cy="364" r="6" class="c0"/>
<circle cx="880" cy="472" r="6" class="c0"/>
<circle cx="356" cy="1402" r="6" class="c0"/>
<circle cx="134" cy="1380" r="6" class="c0"/>
<circle cx="6" cy="1250" r="6" class="c0"/>
<circle cx="8" cy="1324" r="6" class="c0"/>
<circle cx="8" cy="1432" r="6" class="c0"/>
<circle cx="752" cy="490" r="6" class="c0"/>
<circle cx="130" cy="1254" r="6" class="c0"/>
<circle cx="134" cy="1432" r="6" class="c0"/>
<circle cx="710" cy="428" r="6" class="c0"/>
<circle cx="890" cy="446" r="6" class="c0"/>
<circle cx="938" cy="390" r="6" class="c0"/>
<circle cx="988" cy="304" r="6" class="c0"/>
<circle cx="62" cy="1214" r="6" class="c0"/>
<circle cx="38" cy="1276" r="6" class="c0"/>
<circle cx="814" cy="418" r="6" class="c0"/>
<circle cx="930" cy="328" r="6" class="c0"/>
<circle cx="938" cy="422" r="6" class="c0"/>
<circle cx="52" cy="1264" r="6" class="c0"/>
<circle cx="848" cy="462" r="6" class="c0"/>
<circle cx="300" cy="1360" r="6" class="c0"/>
<circle cx="52" cy="1226" r="6" class="c0"/>
<circle cx="1030" cy="444" r="6" class="c0"/>
<circle cx="786" cy="444" r="6" class="c0"/>
<circle cx="336" cy="1430" r="6" class="c0"/>
<circle cx="724" cy="462" r="6" class="c0"/>
<circle cx="184" cy="1314" r="6" class="c0"/>
<circle cx="766" cy="428" r="6" class="c0"/>
<circle cx="146" cy="1370" r="6" class="c0"/>
<circle cx="186" cy="1292" r="6" class="c0"/>
<circle cx="194" cy="1304" r="6" class="c0"/>
<circle cx="254" cy="1378" r="6" class="c0"/>
<circle cx="174" cy="1346" r="6" class="c0"/>
<circle cx="150" cy="1266" r="6" class="c0"/>
<circle cx="914" cy="466" r="6" class="c0"/>
<circle cx="210" cy="1350" r="6" class="c0"/>
<circle cx="298" cy="1408" r="6" class="c0"/>
<circle cx="172" cy="1282" r="6" class="c0"/>
<circle cx="88" cy="1238" r="6" class="c0"/>
<circle cx="72" cy="1272" r="6" class="c0"/>
<circle cx="26" cy="1406" r="6" class="c0"/>
<circle cx="724" cy="436" r="6" class="c0"/>
<circle cx="100" cy="1250" r="6" class="c0"/>
<circle cx="942" cy="302" r="6" class="c0"/>
<circle cx="390" cy="1412" r="6" class="c0"/>
<circle cx="846" cy="356" r="6" class="c0"/>
<circle cx="6" cy="1378" r="6" class="c0"/>
<circle cx="346" cy="1382" r="6" class="c0"/>
<circle cx="258" cy="1332" r="6" class="c0"/>
<circle cx="68" cy="1378" r="6" class="c0"/>
<circle cx="202" cy="1312" r="6" class="c0"/>
<circle cx="44" cy="1296" r="6" class="c0"/>
<circle cx="426" cy="1430" r="6" class="c0"/>
<circle cx="1062" cy="328" r="6" class="c0"/>
<circle cx="92" cy="1292" r="6" class="c0"/>
</svg>
