<?xml version="1.0" encoding="utf-8"?>
<svg xmlns="http://www.w3.org/2000/svg"
     xmlns:xlink="http://www.w3.org/1999/xlink" width="1920" height="1440" >

            <defs>
            <style type="text/css"><![CDATA[
circle {stroke: none;}
.c0 {fill: #000000;}
]]></style>
            </defs>
<rect x="0" y="0" width="1920" height="1440" fill="white"/>
<circle cx="1038" cy="352" r="12" class="c0"/>
<circle cx="1032" cy="320" r="12" class="c0"/>
<circle cx="1098" cy="336" r="12" class="c0"/>
<circle cx="988" cy="150" r="12" class="c0"/>
<circle cx="966" cy="128" r="12" class="c0"/>
<circle cx="1030" cy="188" r="12" class="c0"/>
<circle cx="978" cy="236" r="12" class="c0"/>
<circle cx="992" cy="114" r="12" class="c0"/>
<circle cx="964" cy="218" r="12" class="c0"/>
<circle cx="952" cy="92" r="12" class="c0"/>
<circle cx="874" cy="158" r="12" class="c0"/>
<circle cx="1088" cy="388" r="12" class="c0"/>
<circle cx="1128" cy="366" r="10" class="c0"/>
<circle cx="1136" cy="326" r="10" class="c0"/>
<circle cx="930" cy="102" r="10" class="c0"/>
<circle cx="1038" cy="216" r="10" class="c0"/>
<circle cx="922" cy="228" r="10" class="c0"/>
<circle cx="1046" cy="278" r="10" class="c0"/>
<circle cx="1104" cy="292" r="10" class="c0"/>
<circle cx="1062" cy="290" r="10" class="c0"/>
<circle cx="892" cy="122" r="10" class="c0"/>
<circle cx="992" cy="298" r="10" class="c0"/>
<circle cx="1044" cy="396" r="10" class="c0"/>
<circle cx="1174" cy="302" r="10" class="c0"/>
<circle cx="1098" cy="362" r="10" class="c0"/>
<circle cx="1074" cy="406" r="10" class="c0"/>
<circle cx="1176" cy="338" r="10" class="c0"/>
<circle cx="1014" cy="206" r="10" class="c0"/>
<circle cx="1062" cy="318" r="10" class="c0"/>
<circle cx="966" cy="282" r="10" class="c0"/>
<circle cx="1142" cy="300" r="10" class="c0"/>
<circle cx="1092" cy="264" r="10" class="c0"/>
<circle cx="1014" cy="286" r="10" class="c0"/>
<circle cx="1072" cy="336" r="10" class="c0"/>
<circle cx="960" cy="250" r="10" class="c0"/>
<circle cx="1070" cy="256" r="10" class="c0"/>
<circle cx="926" cy="172" r="10" class="c0"/>
<circle cx="876" cy="184" r="10" class="c0"/>
<circle cx="1054" cy="368" r="10" class="c0"/>
<circle cx="956" cy="192" r="10" class="c0"/>
<circle cx="1062" cy="212" r="10" class="c0"/>
<circle cx="948" cy="272" r="10" class="c0"/>
<circle cx="980" cy="194" r="8" class="c0"/>
<circle cx="1070" cy="436" r="8" class="c0"/>
<circle cx="898" cy="192" r="8" class="c0"/>
<circle cx="1122" cy="340" r="8" class="c0"/>
<circle cx="1096" cy="418" r="8" class="c0"/>
<circle cx="1032" cy="160" r="8" class="c0"/>
<circle cx="1052" cy="416" r="8" class="c0"/>
<circle cx="934" cy="140" r="8" class="c0"/>
<circle cx="908" cy="90" r="8" class="c0"/>
<circle cx="958" cy="170" r="8" class="c0"/>
<circle cx="908" cy="132" r="8" class="c0"/>
<circle cx="1084" cy="350" r="8" class="c0"/>
<circle cx="1014" cy="174" r="8" class="c0"/>
<circle cx="1036" cy="260" r="8" class="c0"/>
<circle cx="916" cy="150" r="8" class="c0"/>
<circle cx="910" cy="182" r="8" class="c0"/>
<circle cx="1030" cy="236" r="8" class="c0"/>
<circle cx="924" cy="196" r="8" class="c0"/>
<circle cx="1158" cy="312" r="8" class="c0"/>
<circle cx="862" cy="134" r="8" class="c0"/>
<circle cx="1122" cy="394" r="8" class="c0"/>
<circle cx="886" cy="142" r="8" class="c0"/>
<circle cx="1084" cy="282" r="8" class="c0"/>
<circle cx="896" cy="164" r="8" class="c0"/>
<circle cx="1156" cy="344" r="8" class="c0"/>
<circle cx="946" cy="114" r="8" class="c0"/>
<circle cx="1094" cy="314" r="8" class="c0"/>
<circle cx="986" cy="264" r="8" class="c0"/>
<circle cx="1006" cy="260" r="8" class="c0"/>
<circle cx="904" cy="110" r="8" class="c0"/>
<circle cx="988" cy="218" r="8" class="c0"/>
<circle cx="1116" cy="322" r="8" class="c0"/>
<circle cx="1010" cy="230" r="8" class="c0"/>
<circle cx="1014" cy="138" r="8" class="c0"/>
<circle cx="1126" cy="280" r="8" class="c0"/>
<circle cx="1054" cy="234" r="8" class="c0"/>
<circle cx="1114" cy="414" r="8" class="c0"/>
<circle cx="1004" cy="326" r="8" class="c0"/>
<circle cx="1022" cy="340" r="8" class="c0"/>
<circle cx="1078" cy="300" r="8" class="c0"/>
<circle cx="1050" cy="198" r="8" class="c0"/>
<circle cx="1076" cy="236" r="8" class="c0"/>
<circle cx="890" cy="98" r="8" class="c0"/>
<circle cx="968" cy="80" r="8" class="c0"/>
<circle cx="998" cy="192" r="8" class="c0"/>
<circle cx="996" cy="92" r="8" class="c0"/>
<circle cx="958" cy="150" r="8" class="c0"/>
<circle cx="900" cy="214" r="8" class="c0"/>
<circle cx="972" cy="106" r="8" class="c0"/>
<circle cx="988" cy="174" r="8" class="c0"/>
<circle cx="1144" cy="356" r="8" class="c0"/>
<circle cx="1048" cy="304" r="8" class="c0"/>
<circle cx="934" cy="78" r="8" class="c0"/>
<circle cx="1116" cy="270" r="8" class="c0"/>
<circle cx="1190" cy="320" r="8" class="c0"/>
<circle cx="1004" cy="164" r="8" class="c0"/>
<circle cx="1032" cy="382" r="8" class="c0"/>
<circle cx="942" cy="236" r="8" class="c0"/>
<circle cx="916" cy="210" r="6" class="c0"/>
<circle cx="1154" cy="284" r="6" class="c0"/>
<circle cx="878" cy="112" r="6" class="c0"/>
<circle cx="1074" cy="362" r="6" class="c0"/>
<circle cx="940" cy="208" r="6" class="c0"/>
<circle cx="1066" cy="382" r="6" class="c0"/>
<circle cx="1032" cy="412" r="6" class="c0"/>
<circle cx="1132" cy="264" r="6" class="c0"/>
<circle cx="1016" cy="246" r="6" class="c0"/>
<circle cx="1050" cy="336" r="6" class="c0"/>
<circle cx="978" cy="90" r="6" class="c0"/>
<circle cx="1086" cy="434" r="6" class="c0"/>
<circle cx="1042" cy="438" r="6" class="c0"/>
<circle cx="920" cy="116" r="6" class="c0"/>
<circle cx="930" cy="252" r="6" class="c0"/>
<circle cx="950" cy="70" r="6" class="c0"/>
<circle cx="1124" cy="304" r="6" class="c0"/>
<circle cx="998" cy="134" r="6" class="c0"/>
<circle cx="1194" cy="296" r="6" class="c0"/>
<circle cx="936" cy="156" r="6" class="c0"/>
<circle cx="932" cy="122" r="6" class="c0"/>
<circle cx="1050" cy="180" r="6" class="c0"/>
<circle cx="1026" cy="366" r="6" class="c0"/>
<circle cx="1112" cy="382" r="6" class="c0"/>
<circle cx="1060" cy="350" r="6" class="c0"/>
<circle cx="1020" cy="268" r="6" class="c0"/>
<circle cx="1140" cy="380" r="6" class="c0"/>
<circle cx="1156" cy="366" r="6" class="c0"/>
<circle cx="972" cy="180" r="6" class="c0"/>
<circle cx="888" cy="202" r="6" class="c0"/>
<circle cx="1028" cy="298" r="6" class="c0"/>
<circle cx="1010" cy="308" r="6" class="c0"/>
<circle cx="1002" cy="244" r="6" class="c0"/>
<circle cx="1114" cy="354" r="6" class="c0"/>
<circle cx="1204" cy="288" r="6" class="c0"/>
<circle cx="974" cy="164" r="6" class="c0"/>
<circle cx="1046" cy="250" r="6" class="c0"/>
<circle cx="944" cy="178" r="6" class="c0"/>
<circle cx="996" cy="278" r="6" class="c0"/>
<circle cx="870" cy="120" r="6" class="c0"/>
<circle cx="1106" cy="396" r="6" class="c0"/>
<circle cx="1140" cy="272" r="6" class="c0"/>
</svg>
