<?xml version="1.0" encoding="utf-8"?>
<svg xmlns="http://www.w3.org/2000/svg"
     xmlns:xlink="http://www.w3.org/1999/xlink" width="1920" height="1440" >

            <defs>
            <style type="text/css"><![CDATA[
circle {stroke: none;}
.c0 {fill: #000000;}
]]></style>
            </defs>
<rect x="0" y="0" width="1920" height="1440" fill="white"/>
<circle cx="1074" cy="152" r="14" class="c0"/>
<circle cx="1256" cy="246" r="12" class="c0"/>
<circle cx="940" cy="250" r="12" class="c0"/>
<circle cx="906" cy="146" r="12" class="c0"/>
<circle cx="1000" cy="206" r="12" class="c0"/>
<circle cx="1102" cy="116" r="12" class="c0"/>
<circle cx="1060" cy="122" r="12" class="c0"/>
<circle cx="986" cy="124" r="12" class="c0"/>
<circle cx="970" cy="190" r="12" class="c0"/>
<circle cx="946" cy="172" r="12" class="c0"/>
<circle cx="1272" cy="182" r="12" class="c0"/>
<circle cx="1166" cy="210" r="12" class="c0"/>
<circle cx="930" cy="212" r="12" class="c0"/>
<circle cx="1142" cy="114" r="12" class="c0"/>
<circle cx="1156" cy="188" r="12" class="c0"/>
<circle cx="1276" cy="82" r="12" class="c0"/>
<circle cx="1126" cy="180" r="10" class="c0"/>
<circle cx="1190" cy="82" r="10" class="c0"/>
<circle cx="976" cy="276" r="10" class="c0"/>
<circle cx="1248" cy="178" r="10" class="c0"/>
<circle cx="1036" cy="224" r="10" class="c0"/>
<circle cx="1260" cy="218" r="10" class="c0"/>
<circle cx="1264" cy="138" r="10" class="c0"/>
<circle cx="1242" cy="38" r="10" class="c0"/>
<circle cx="1260" cy="60" r="10" class="c0"/>
<circle cx="1208" cy="122" r="10" class="c0"/>
<circle cx="928" cy="138" r="10" class="c0"/>
<circle cx="1170" cy="130" r="10" class="c0"/>
<circle cx="914" cy="190" r="10" class="c0"/>
<circle cx="1036" cy="132" r="10" class="c0"/>
<circle cx="1200" cy="30" r="10" class="c0"/>
<circle cx="1282" cy="216" r="10" class="c0"/>
<circle cx="1004" cy="176" r="10" class="c0"/>
<circle cx="1216" cy="196" r="10" class="c0"/>
<circle cx="1028" cy="190" r="10" class="c0"/>
<circle cx="898" cy="214" r="10" class="c0"/>
<circle cx="1062" cy="204" r="10" class="c0"/>
<circle cx="976" cy="230" r="10" class="c0"/>
<circle cx="1060" cy="180" r="10" class="c0"/>
<circle cx="1196" cy="54" r="10" class="c0"/>
<circle cx="1084" cy="180" r="10" class="c0"/>
<circle cx="1130" cy="210" r="10" class="c0"/>
<circle cx="1250" cy="110" r="10" class="c0"/>
<circle cx="1190" cy="186" r="10" class="c0"/>
<circle cx="912" cy="236" r="10" class="c0"/>
<circle cx="1202" cy="208" r="10" class="c0"/>
<circle cx="1192" cy="158" r="10" class="c0"/>
<circle cx="920" cy="162" r="10" class="c0"/>
<circle cx="1004" cy="142" r="10" class="c0"/>
<circle cx="1094" cy="218" r="10" class="c0"/>
<circle cx="1128" cy="128" r="10" class="c0"/>
<circle cx="1238" cy="82" r="10" class="c0"/>
<circle cx="952" cy="228" r="8" class="c0"/>
<circle cx="1146" cy="84" r="8" class="c0"/>
<circle cx="970" cy="136" r="8" class="c0"/>
<circle cx="1240" cy="196" r="8" class="c0"/>
<circle cx="1214" cy="144" r="8" class="c0"/>
<circle cx="964" cy="212" r="8" class="c0"/>
<circle cx="920" cy="120" r="8" class="c0"/>
<circle cx="1016" cy="234" r="8" class="c0"/>
<circle cx="1040" cy="174" r="8" class="c0"/>
<circle cx="1228" cy="154" r="8" class="c0"/>
<circle cx="1110" cy="142" r="8" class="c0"/>
<circle cx="1158" cy="74" r="8" class="c0"/>
<circle cx="1186" cy="218" r="8" class="c0"/>
<circle cx="1280" cy="124" r="8" class="c0"/>
<circle cx="1154" cy="156" r="8" class="c0"/>
<circle cx="1162" cy="54" r="8" class="c0"/>
<circle cx="1068" cy="230" r="8" class="c0"/>
<circle cx="1210" cy="68" r="8" class="c0"/>
<circle cx="1014" cy="254" r="8" class="c0"/>
<circle cx="952" cy="134" r="8" class="c0"/>
<circle cx="964" cy="156" r="8" class="c0"/>
<circle cx="1216" cy="10" r="8" class="c0"/>
<circle cx="986" cy="150" r="8" class="c0"/>
<circle cx="1114" cy="220" r="8" class="c0"/>
<circle cx="1218" cy="164" r="8" class="c0"/>
<circle cx="952" cy="266" r="8" class="c0"/>
<circle cx="1218" cy="232" r="8" class="c0"/>
<circle cx="1222" cy="94" r="8" class="c0"/>
<circle cx="1270" cy="114" r="8" class="c0"/>
<circle cx="1108" cy="172" r="8" class="c0"/>
<circle cx="1230" cy="120" r="8" class="c0"/>
<circle cx="1160" cy="102" r="8" class="c0"/>
<circle cx="992" cy="254" r="8" class="c0"/>
<circle cx="1182" cy="40" r="8" class="c0"/>
<circle cx="1230" cy="220" r="8" class="c0"/>
<circle cx="1220" cy="50" r="8" class="c0"/>
<circle cx="950" cy="202" r="8" class="c0"/>
<circle cx="1230" cy="248" r="8" class="c0"/>
<circle cx="1020" cy="154" r="8" class="c0"/>
<circle cx="1140" cy="140" r="8" class="c0"/>
<circle cx="984" cy="172" r="8" class="c0"/>
<circle cx="1182" cy="102" r="8" class="c0"/>
<circle cx="962" cy="248" r="8" class="c0"/>
<circle cx="1024" cy="210" r="8" class="c0"/>
<circle cx="1250" cy="156" r="8" class="c0"/>
<circle cx="1136" cy="158" r="8" class="c0"/>
<circle cx="1174" cy="174" r="8" class="c0"/>
<circle cx="1026" cy="244" r="8" class="c0"/>
<circle cx="888" cy="184" r="8" class="c0"/>
<circle cx="938" cy="116" r="8" class="c0"/>
<circle cx="1282" cy="238" r="8" class="c0"/>
<circle cx="1234" cy="60" r="8" class="c0"/>
<circle cx="1102" cy="198" r="8" class="c0"/>
<circle cx="1276" cy="152" r="8" class="c0"/>
<circle cx="1196" cy="238" r="8" class="c0"/>
<circle cx="1224" cy="28" r="8" class="c0"/>
<circle cx="890" cy="160" r="8" class="c0"/>
<circle cx="900" cy="170" r="8" class="c0"/>
<circle cx="1082" cy="128" r="8" class="c0"/>
<circle cx="1244" cy="136" r="8" class="c0"/>
<circle cx="1170" cy="90" r="8" class="c0"/>
<circle cx="1172" cy="152" r="8" class="c0"/>
<circle cx="940" cy="150" r="8" class="c0"/>
<circle cx="1018" cy="118" r="8" class="c0"/>
<circle cx="1098" cy="154" r="8" class="c0"/>
<circle cx="1256" cy="26" r="8" class="c0"/>
<circle cx="1174" cy="64" r="8" class="c0"/>
<circle cx="1204" cy="96" r="8" class="c0"/>
<circle cx="1292" cy="196" r="8" class="c0"/>
<circle cx="1242" cy="232" r="8" class="c0"/>
<circle cx="1044" cy="156" r="8" class="c0"/>
<circle cx="880" cy="200" r="8" class="c0"/>
<circle cx="1082" cy="202" r="8" class="c0"/>
<circle cx="1182" cy="142" r="8" class="c0"/>
<circle cx="1208" cy="178" r="8" class="c0"/>
<circle cx="1052" cy="140" r="6" class="c0"/>
<circle cx="1144" cy="226" r="6" class="c0"/>
<circle cx="1000" cy="230" r="6" class="c0"/>
<circle cx="1160" cy="230" r="6" class="c0"/>
<circle cx="1284" cy="100" r="6" class="c0"/>
<circle cx="1192" cy="14" r="6" class="c0"/>
<circle cx="892" cy="134" r="6" class="c0"/>
<circle cx="1254" cy="90" r="6" class="c0"/>
<circle cx="1220" cy="78" r="6" class="c0"/>
<circle cx="966" cy="116" r="6" class="c0"/>
<circle cx="1122" cy="102" r="6" class="c0"/>
<circle cx="920" cy="252" r="6" class="c0"/>
<circle cx="1284" cy="166" r="6" class="c0"/>
<circle cx="1118" cy="158" r="6" class="c0"/>
<circle cx="1054" cy="222" r="6" class="c0"/>
<circle cx="1226" cy="180" r="6" class="c0"/>
<circle cx="928" cy="180" r="6" class="c0"/>
<circle cx="1040" cy="202" r="6" class="c0"/>
<circle cx="1146" cy="172" r="6" class="c0"/>
<circle cx="1092" cy="138" r="6" class="c0"/>
<circle cx="1268" cy="202" r="6" class="c0"/>
<circle cx="930" cy="266" r="6" class="c0"/>
<circle cx="1188" cy="118" r="6" class="c0"/>
<circle cx="1048" cy="238" r="6" class="c0"/>
<circle cx="1236" cy="16" r="6" class="c0"/>
<circle cx="1272" cy="48" r="6" class="c0"/>
<circle cx="1192" cy="132" r="6" class="c0"/>
<circle cx="894" cy="232" r="6" class="c0"/>
<circle cx="1030" cy="164" r="6" class="c0"/>
<circle cx="930" cy="234" r="6" class="c0"/>
<circle cx="1300" cy="178" r="6" class="c0"/>
<circle cx="904" cy="126" r="6" class="c0"/>
<circle cx="1132" cy="94" r="6" class="c0"/>
<circle cx="1048" cy="192" r="6" class="c0"/>
<circle cx="906" cy="254" r="6" class="c0"/>
<circle cx="980" cy="210" r="6" class="c0"/>
<circle cx="938" cy="192" r="6" class="c0"/>
<circle cx="1126" cy="148" r="6" class="c0"/>
<circle cx="1180" cy="22" r="6" class="c0"/>
<circle cx="1086" cy="236" r="6" class="c0"/>
<circle cx="1022" cy="172" r="6" class="c0"/>
<circle cx="992" cy="188" r="6" class="c0"/>
<circle cx="1266" cy="98" r="6" class="c0"/>
<circle cx="1258" cy="194" r="6" class="c0"/>
<circle cx="1196" cy="110" r="6" class="c0"/>
<circle cx="1164" cy="34" r="6" class="c0"/>
<circle cx="972" cy="258" r="6" class="c0"/>
<circle cx="1004" cy="244" r="6" class="c0"/>
<circle cx="1232" cy="104" r="6" class="c0"/>
<circle cx="1118" cy="196" r="6" class="c0"/>
<circle cx="1002" cy="266" r="6" class="c0"/>
<circle cx="1262" cy="272" r="6" class="c0"/>
<circle cx="1148" cy="64" r="6" class="c0"/>
<circle cx="1264" cy="164" r="6" class="c0"/>
<circle cx="996" cy="160" r="6" class="c0"/>
<circle cx="1272" cy="260" r="6" class="c0"/>
<circle cx="1034" cy="114" r="6" class="c0"/>
<circle cx="1104" cy="232" r="6" class="c0"/>
<circle cx="1172" cy="112" r="6" class="c0"/>
<circle cx="1280" cy="60" r="6" class="c0"/>
<circle cx="1220" cy="110" r="6" class="c0"/>
</svg>
