<?xml version="1.0" encoding="utf-8"?>
<svg xmlns="http://www.w3.org/2000/svg"
     xmlns:xlink="http://www.w3.org/1999/xlink" width="1920" height="1440" >

            <defs>
            <style type="text/css"><![CDATA[
circle {stroke: none;}
.c0 {fill: #000000;}
]]></style>
            </defs>
<rect x="0" y="0" width="1920" height="1440" fill="white"/>
<circle cx="960" cy="196" r="12" class="c0"/>
<circle cx="1088" cy="86" r="12" class="c0"/>
<circle cx="1064" cy="112" r="12" class="c0"/>
<circle cx="1214" cy="114" r="12" class="c0"/>
<circle cx="1048" cy="196" r="12" class="c0"/>
<circle cx="1224" cy="86" r="12" class="c0"/>
<circle cx="1104" cy="158" r="12" class="c0"/>
<circle cx="1048" cy="154" r="12" class="c0"/>
<circle cx="1084" cy="226" r="12" class="c0"/>
<circle cx="1252" cy="88" r="12" class="c0"/>
<circle cx="1202" cy="64" r="12" class="c0"/>
<circle cx="1214" cy="24" r="12" class="c0"/>
<circle cx="1132" cy="70" r="10" class="c0"/>
<circle cx="1016" cy="252" r="10" class="c0"/>
<circle cx="1270" cy="74" r="10" class="c0"/>
<circle cx="1178" cy="142" r="10" class="c0"/>
<circle cx="1020" cy="208" r="10" class="c0"/>
<circle cx="1162" cy="70" r="10" class="c0"/>
<circle cx="1136" cy="130" r="10" class="c0"/>
<circle cx="1062" cy="292" r="10" class="c0"/>
<circle cx="1088" cy="172" r="10" class="c0"/>
<circle cx="986" cy="172" r="10" class="c0"/>
<circle cx="1154" cy="16" r="10" class="c0"/>
<circle cx="1028" cy="230" r="10" class="c0"/>
<circle cx="1170" cy="108" r="10" class="c0"/>
<circle cx="1338" cy="90" r="10" class="c0"/>
<circle cx="1182" cy="44" r="10" class="c0"/>
<circle cx="1108" cy="104" r="10" class="c0"/>
<circle cx="1104" cy="194" r="10" class="c0"/>
<circle cx="1256" cy="28" r="10" class="c0"/>
<circle cx="1312" cy="22" r="10" class="c0"/>
<circle cx="1070" cy="270" r="10" class="c0"/>
<circle cx="1086" cy="250" r="10" class="c0"/>
<circle cx="1142" cy="176" r="10" class="c0"/>
<circle cx="1314" cy="60" r="10" class="c0"/>
<circle cx="1040" cy="124" r="10" class="c0"/>
<circle cx="1040" cy="272" r="10" class="c0"/>
<circle cx="1332" cy="40" r="10" class="c0"/>
<circle cx="976" cy="276" r="8" class="c0"/>
<circle cx="1298" cy="38" r="8" class="c0"/>
<circle cx="1224" cy="58" r="8" class="c0"/>
<circle cx="1140" cy="106" r="8" class="c0"/>
<circle cx="1300" cy="78" r="8" class="c0"/>
<circle cx="1022" cy="176" r="8" class="c0"/>
<circle cx="1004" cy="236" r="8" class="c0"/>
<circle cx="1150" cy="146" r="8" class="c0"/>
<circle cx="1252" cy="52" r="8" class="c0"/>
<circle cx="1296" cy="8" r="8" class="c0"/>
<circle cx="1062" cy="222" r="8" class="c0"/>
<circle cx="1194" cy="96" r="8" class="c0"/>
<circle cx="1330" cy="12" r="8" class="c0"/>
<circle cx="1020" cy="274" r="8" class="c0"/>
<circle cx="1110" cy="68" r="8" class="c0"/>
<circle cx="984" cy="148" r="8" class="c0"/>
<circle cx="1278" cy="22" r="8" class="c0"/>
<circle cx="1116" cy="124" r="8" class="c0"/>
<circle cx="976" cy="246" r="8" class="c0"/>
<circle cx="1236" cy="22" r="8" class="c0"/>
<circle cx="1148" cy="88" r="8" class="c0"/>
<circle cx="1198" cy="126" r="8" class="c0"/>
<circle cx="988" cy="222" r="8" class="c0"/>
<circle cx="1154" cy="122" r="8" class="c0"/>
<circle cx="1042" cy="250" r="8" class="c0"/>
<circle cx="1346" cy="54" r="8" class="c0"/>
<circle cx="1040" cy="298" r="8" class="c0"/>
<circle cx="936" cy="188" r="8" class="c0"/>
<circle cx="1288" cy="50" r="8" class="c0"/>
<circle cx="1066" cy="138" r="8" class="c0"/>
<circle cx="1140" cy="46" r="8" class="c0"/>
<circle cx="992" cy="200" r="8" class="c0"/>
<circle cx="1178" cy="82" r="8" class="c0"/>
<circle cx="1254" cy="114" r="8" class="c0"/>
<circle cx="1268" cy="8" r="8" class="c0"/>
<circle cx="1010" cy="286" r="8" class="c0"/>
<circle cx="1182" cy="10" r="8" class="c0"/>
<circle cx="1120" cy="210" r="8" class="c0"/>
<circle cx="1110" cy="250" r="8" class="c0"/>
<circle cx="938" cy="210" r="8" class="c0"/>
<circle cx="1214" cy="48" r="8" class="c0"/>
<circle cx="1158" cy="48" r="8" class="c0"/>
<circle cx="962" cy="174" r="8" class="c0"/>
<circle cx="1004" cy="164" r="8" class="c0"/>
<circle cx="1124" cy="168" r="8" class="c0"/>
<circle cx="1124" cy="92" r="8" class="c0"/>
<circle cx="1080" cy="192" r="8" class="c0"/>
<circle cx="1010" cy="140" r="8" class="c0"/>
<circle cx="1072" cy="162" r="8" class="c0"/>
<circle cx="1168" cy="174" r="6" class="c0"/>
<circle cx="1114" cy="142" r="6" class="c0"/>
<circle cx="1316" cy="82" r="6" class="c0"/>
<circle cx="1084" cy="130" r="6" class="c0"/>
<circle cx="998" cy="266" r="6" class="c0"/>
<circle cx="1336" cy="66" r="6" class="c0"/>
<circle cx="968" cy="150" r="6" class="c0"/>
<circle cx="1062" cy="184" r="6" class="c0"/>
<circle cx="1192" cy="28" r="6" class="c0"/>
<circle cx="1088" cy="268" r="6" class="c0"/>
<circle cx="1002" cy="180" r="6" class="c0"/>
<circle cx="1124" cy="192" r="6" class="c0"/>
<circle cx="1238" cy="44" r="6" class="c0"/>
<circle cx="1060" cy="310" r="6" class="c0"/>
<circle cx="1138" cy="8" r="6" class="c0"/>
<circle cx="1016" cy="124" r="6" class="c0"/>
<circle cx="1100" cy="132" r="6" class="c0"/>
<circle cx="1144" cy="198" r="6" class="c0"/>
<circle cx="980" cy="190" r="6" class="c0"/>
<circle cx="1060" cy="250" r="6" class="c0"/>
<circle cx="1156" cy="162" r="6" class="c0"/>
<circle cx="1350" cy="72" r="6" class="c0"/>
<circle cx="1348" cy="24" r="6" class="c0"/>
<circle cx="1266" cy="104" r="6" class="c0"/>
<circle cx="1272" cy="48" r="6" class="c0"/>
<circle cx="1084" cy="150" r="6" class="c0"/>
<circle cx="1080" cy="296" r="6" class="c0"/>
<circle cx="1124" cy="50" r="6" class="c0"/>
<circle cx="1070" cy="202" r="6" class="c0"/>
<circle cx="1236" cy="122" r="6" class="c0"/>
<circle cx="1026" cy="134" r="6" class="c0"/>
<circle cx="958" cy="236" r="6" class="c0"/>
<circle cx="954" cy="216" r="6" class="c0"/>
<circle cx="1092" cy="140" r="6" class="c0"/>
<circle cx="1102" cy="218" r="6" class="c0"/>
<circle cx="1134" cy="148" r="6" class="c0"/>
<circle cx="990" cy="254" r="6" class="c0"/>
<circle cx="1040" cy="218" r="6" class="c0"/>
<circle cx="1086" cy="110" r="6" class="c0"/>
<circle cx="1280" cy="98" r="6" class="c0"/>
<circle cx="946" cy="176" r="6" class="c0"/>
<circle cx="1010" cy="192" r="6" class="c0"/>
<circle cx="1240" cy="62" r="6" class="c0"/>
<circle cx="1108" cy="230" r="6" class="c0"/>
<circle cx="1224" cy="8" r="6" class="c0"/>
<circle cx="1246" cy="6" r="6" class="c0"/>
<circle cx="1066" cy="238" r="6" class="c0"/>
<circle cx="1024" cy="150" r="6" class="c0"/>
<circle cx="1200" cy="12" r="6" class="c0"/>
<circle cx="1132" cy="32" r="6" class="c0"/>
<circle cx="1096" cy="278" r="6" class="c0"/>
<circle cx="976" cy="208" r="6" class="c0"/>
<circle cx="946" cy="290" r="6" class="c0"/>
<circle cx="1034" cy="142" r="6" class="c0"/>
<circle cx="1046" cy="174" r="6" class="c0"/>
</svg>
