<?xml version="1.0" encoding="utf-8"?>
<svg xmlns="http://www.w3.org/2000/svg"
     xmlns:xlink="http://www.w3.org/1999/xlink" width="1920" height="1440" >

            <defs>
            <style type="text/css"><![CDATA[
circle {stroke: none;}
.c0 {fill: #000000;}
]]></style>
            </defs>
<rect x="0" y="0" width="1920" height="1440" fill="white"/>
<circle cx="1032" cy="170" r="12" class="c0"/>
<circle cx="1118" cy="184" r="12" class="c0"/>
<circle cx="1190" cy="148" r="12" class="c0"/>
<circle cx="1104" cy="248" r="12" class="c0"/>
<circle cx="1076" cy="186" r="12" class="c0"/>
<circle cx="1080" cy="214" r="12" class="c0"/>
<circle cx="1192" cy="22" r="10" class="c0"/>
<circle cx="1164" cy="212" r="10" class="c0"/>
<circle cx="1126" cy="70" r="10" class="c0"/>
<circle cx="1020" cy="228" r="10" class="c0"/>
<circle cx="1104" cy="146" r="10" class="c0"/>
<circle cx="1142" cy="98" r="10" class="c0"/>
<circle cx="1078" cy="146" r="10" class="c0"/>
<circle cx="1236" cy="46" r="10" class="c0"/>
<circle cx="1226" cy="92" r="10" class="c0"/>
<circle cx="1144" cy="160" r="10" class="c0"/>
<circle cx="1136" cy="46" r="10" class="c0"/>
<circle cx="1168" cy="134" r="10" class="c0"/>
<circle cx="1140" cy="214" r="10" class="c0"/>
<circle cx="1182" cy="120" r="10" class="c0"/>
<circle cx="1246" cy="72" r="10" class="c0"/>
<circle cx="1120" cy="286" r="10" class="c0"/>
<circle cx="1180" cy="84" r="10" class="c0"/>
<circle cx="1248" cy="22" r="10" class="c0"/>
<circle cx="1110" cy="104" r="10" class="c0"/>
<circle cx="1056" cy="160" r="10" class="c0"/>
<circle cx="1178" cy="168" r="10" class="c0"/>
<circle cx="1138" cy="22" r="10" class="c0"/>
<circle cx="1076" cy="110" r="10" class="c0"/>
<circle cx="1008" cy="188" r="10" class="c0"/>
<circle cx="1048" cy="224" r="10" class="c0"/>
<circle cx="1208" cy="68" r="10" class="c0"/>
<circle cx="1052" cy="202" r="10" class="c0"/>
<circle cx="1162" cy="50" r="10" class="c0"/>
<circle cx="1102" cy="210" r="8" class="c0"/>
<circle cx="1132" cy="258" r="8" class="c0"/>
<circle cx="1192" cy="44" r="8" class="c0"/>
<circle cx="1122" cy="92" r="8" class="c0"/>
<circle cx="1278" cy="14" r="8" class="c0"/>
<circle cx="1154" cy="272" r="8" class="c0"/>
<circle cx="1028" cy="142" r="8" class="c0"/>
<circle cx="1092" cy="290" r="8" class="c0"/>
<circle cx="1058" cy="280" r="8" class="c0"/>
<circle cx="1268" cy="38" r="8" class="c0"/>
<circle cx="1302" cy="18" r="8" class="c0"/>
<circle cx="1162" cy="180" r="8" class="c0"/>
<circle cx="1036" cy="274" r="8" class="c0"/>
<circle cx="1128" cy="146" r="8" class="c0"/>
<circle cx="1262" cy="58" r="8" class="c0"/>
<circle cx="1206" cy="98" r="8" class="c0"/>
<circle cx="1088" cy="166" r="8" class="c0"/>
<circle cx="1132" cy="298" r="8" class="c0"/>
<circle cx="1052" cy="250" r="8" class="c0"/>
<circle cx="1134" cy="124" r="8" class="c0"/>
<circle cx="1068" cy="234" r="8" class="c0"/>
<circle cx="1220" cy="30" r="8" class="c0"/>
<circle cx="1206" cy="118" r="8" class="c0"/>
<circle cx="1092" cy="82" r="8" class="c0"/>
<circle cx="996" cy="232" r="8" class="c0"/>
<circle cx="1066" cy="130" r="8" class="c0"/>
<circle cx="1124" cy="226" r="8" class="c0"/>
<circle cx="1154" cy="292" r="8" class="c0"/>
<circle cx="1166" cy="12" r="8" class="c0"/>
<circle cx="1098" cy="120" r="8" class="c0"/>
<circle cx="1072" cy="262" r="8" class="c0"/>
<circle cx="1150" cy="62" r="8" class="c0"/>
<circle cx="1028" cy="334" r="8" class="c0"/>
<circle cx="1150" cy="190" r="8" class="c0"/>
<circle cx="1004" cy="168" r="8" class="c0"/>
<circle cx="1008" cy="214" r="8" class="c0"/>
<circle cx="1102" cy="72" r="8" class="c0"/>
<circle cx="992" cy="198" r="8" class="c0"/>
<circle cx="1028" cy="198" r="8" class="c0"/>
<circle cx="1216" cy="48" r="8" class="c0"/>
<circle cx="1160" cy="78" r="8" class="c0"/>
<circle cx="1082" cy="278" r="8" class="c0"/>
<circle cx="1170" cy="102" r="8" class="c0"/>
<circle cx="1178" cy="64" r="8" class="c0"/>
<circle cx="1118" cy="158" r="8" class="c0"/>
<circle cx="1046" cy="292" r="8" class="c0"/>
<circle cx="1120" cy="208" r="8" class="c0"/>
<circle cx="1160" cy="254" r="8" class="c0"/>
<circle cx="1034" cy="248" r="8" class="c0"/>
<circle cx="984" cy="218" r="8" class="c0"/>
<circle cx="1054" cy="120" r="8" class="c0"/>
<circle cx="1222" cy="10" r="8" class="c0"/>
<circle cx="1100" cy="274" r="8" class="c0"/>
<circle cx="1162" cy="232" r="8" class="c0"/>
<circle cx="1082" cy="252" r="8" class="c0"/>
<circle cx="1070" cy="290" r="8" class="c0"/>
<circle cx="1116" cy="132" r="8" class="c0"/>
<circle cx="1054" cy="140" r="8" class="c0"/>
<circle cx="1330" cy="6" r="6" class="c0"/>
<circle cx="1146" cy="246" r="6" class="c0"/>
<circle cx="1294" cy="42" r="6" class="c0"/>
<circle cx="1088" cy="132" r="6" class="c0"/>
<circle cx="1202" cy="6" r="6" class="c0"/>
<circle cx="1174" cy="30" r="6" class="c0"/>
<circle cx="1140" cy="180" r="6" class="c0"/>
<circle cx="1158" cy="120" r="6" class="c0"/>
<circle cx="1286" cy="34" r="6" class="c0"/>
<circle cx="1090" cy="230" r="6" class="c0"/>
<circle cx="1110" cy="300" r="6" class="c0"/>
<circle cx="1008" cy="242" r="6" class="c0"/>
<circle cx="1138" cy="234" r="6" class="c0"/>
<circle cx="1106" cy="168" r="6" class="c0"/>
<circle cx="1016" cy="156" r="6" class="c0"/>
<circle cx="1036" cy="318" r="6" class="c0"/>
<circle cx="1172" cy="194" r="6" class="c0"/>
<circle cx="1162" cy="156" r="6" class="c0"/>
<circle cx="1226" cy="66" r="6" class="c0"/>
<circle cx="1116" cy="262" r="6" class="c0"/>
<circle cx="1156" cy="26" r="6" class="c0"/>
<circle cx="1116" cy="52" r="6" class="c0"/>
<circle cx="1150" cy="140" r="6" class="c0"/>
<circle cx="1016" cy="258" r="6" class="c0"/>
<circle cx="1206" cy="136" r="6" class="c0"/>
<circle cx="1222" cy="110" r="6" class="c0"/>
<circle cx="1124" cy="34" r="6" class="c0"/>
<circle cx="1130" cy="198" r="6" class="c0"/>
<circle cx="1188" cy="102" r="6" class="c0"/>
<circle cx="1010" cy="330" r="6" class="c0"/>
<circle cx="1316" cy="10" r="6" class="c0"/>
<circle cx="1082" cy="92" r="6" class="c0"/>
<circle cx="1040" cy="132" r="6" class="c0"/>
<circle cx="1150" cy="8" r="6" class="c0"/>
<circle cx="1292" cy="6" r="6" class="c0"/>
<circle cx="1024" cy="310" r="6" class="c0"/>
<circle cx="1048" cy="180" r="6" class="c0"/>
<circle cx="1126" cy="242" r="6" class="c0"/>
<circle cx="1238" cy="8" r="6" class="c0"/>
<circle cx="974" cy="208" r="6" class="c0"/>
<circle cx="1032" cy="214" r="6" class="c0"/>
<circle cx="1098" cy="178" r="6" class="c0"/>
<circle cx="1138" cy="278" r="6" class="c0"/>
<circle cx="1204" cy="34" r="6" class="c0"/>
<circle cx="1092" cy="198" r="6" class="c0"/>
<circle cx="1216" cy="128" r="6" class="c0"/>
<circle cx="1186" cy="184" r="6" class="c0"/>
<circle cx="1130" cy="170" r="6" class="c0"/>
<circle cx="1092" cy="100" r="6" class="c0"/>
<circle cx="1108" cy="228" r="6" class="c0"/>
</svg>
