<?xml version="1.0" encoding="utf-8"?>
<svg xmlns="http://www.w3.org/2000/svg"
     xmlns:xlink="http://www.w3.org/1999/xlink" width="1920" height="1440" >

            <defs>
            <style type="text/css"><![CDATA[
circle {stroke: none;}
.c0 {fill: #000000;}
]]></style>
            </defs>
<rect x="0" y="0" width="1920" height="1440" fill="white"/>
<circle cx="1322" cy="54" r="12" class="c0"/>
<circle cx="1386" cy="172" r="12" class="c0"/>
<circle cx="1246" cy="66" r="12" class="c0"/>
<circle cx="1286" cy="90" r="12" class="c0"/>
<circle cx="1280" cy="128" r="12" class="c0"/>
<circle cx="1216" cy="120" r="12" class="c0"/>
<circle cx="1246" cy="192" r="12" class="c0"/>
<circle cx="1246" cy="220" r="12" class="c0"/>
<circle cx="1224" cy="204" r="12" class="c0"/>
<circle cx="1268" cy="184" r="10" class="c0"/>
<circle cx="1306" cy="206" r="10" class="c0"/>
<circle cx="1332" cy="146" r="10" class="c0"/>
<circle cx="1284" cy="10" r="10" class="c0"/>
<circle cx="1328" cy="94" r="10" class="c0"/>
<circle cx="1226" cy="52" r="10" class="c0"/>
<circle cx="1330" cy="210" r="10" class="c0"/>
<circle cx="1206" cy="14" r="10" class="c0"/>
<circle cx="1372" cy="140" r="10" class="c0"/>
<circle cx="1332" cy="180" r="10" class="c0"/>
<circle cx="1184" cy="210" r="10" class="c0"/>
<circle cx="1244" cy="18" r="10" class="c0"/>
<circle cx="1258" cy="30" r="10" class="c0"/>
<circle cx="1234" cy="158" r="10" class="c0"/>
<circle cx="1220" cy="170" r="10" class="c0"/>
<circle cx="1314" cy="228" r="10" class="c0"/>
<circle cx="1224" cy="236" r="10" class="c0"/>
<circle cx="1262" cy="92" r="10" class="c0"/>
<circle cx="1336" cy="120" r="10" class="c0"/>
<circle cx="1320" cy="158" r="10" class="c0"/>
<circle cx="1192" cy="86" r="10" class="c0"/>
<circle cx="1196" cy="168" r="10" class="c0"/>
<circle cx="1274" cy="42" r="10" class="c0"/>
<circle cx="1252" cy="118" r="10" class="c0"/>
<circle cx="1324" cy="12" r="10" class="c0"/>
<circle cx="1180" cy="154" r="10" class="c0"/>
<circle cx="1274" cy="68" r="10" class="c0"/>
<circle cx="1180" cy="180" r="10" class="c0"/>
<circle cx="1354" cy="188" r="10" class="c0"/>
<circle cx="1296" cy="40" r="10" class="c0"/>
<circle cx="1216" cy="150" r="8" class="c0"/>
<circle cx="1236" cy="92" r="8" class="c0"/>
<circle cx="1256" cy="170" r="8" class="c0"/>
<circle cx="1206" cy="50" r="8" class="c0"/>
<circle cx="1222" cy="76" r="8" class="c0"/>
<circle cx="1200" cy="194" r="8" class="c0"/>
<circle cx="1186" cy="66" r="8" class="c0"/>
<circle cx="1352" cy="150" r="8" class="c0"/>
<circle cx="1286" cy="172" r="8" class="c0"/>
<circle cx="1182" cy="102" r="8" class="c0"/>
<circle cx="1312" cy="138" r="8" class="c0"/>
<circle cx="1230" cy="138" r="8" class="c0"/>
<circle cx="1280" cy="198" r="8" class="c0"/>
<circle cx="1292" cy="224" r="8" class="c0"/>
<circle cx="1294" cy="62" r="8" class="c0"/>
<circle cx="1218" cy="28" r="8" class="c0"/>
<circle cx="1370" cy="160" r="8" class="c0"/>
<circle cx="1312" cy="296" r="8" class="c0"/>
<circle cx="1268" cy="234" r="8" class="c0"/>
<circle cx="1210" cy="222" r="8" class="c0"/>
<circle cx="1304" cy="100" r="8" class="c0"/>
<circle cx="1196" cy="144" r="8" class="c0"/>
<circle cx="1246" cy="146" r="8" class="c0"/>
<circle cx="1208" cy="98" r="8" class="c0"/>
<circle cx="1292" cy="270" r="8" class="c0"/>
<circle cx="1184" cy="134" r="8" class="c0"/>
<circle cx="1190" cy="42" r="8" class="c0"/>
<circle cx="1308" cy="182" r="8" class="c0"/>
<circle cx="1266" cy="150" r="8" class="c0"/>
<circle cx="1354" cy="96" r="8" class="c0"/>
<circle cx="1194" cy="114" r="8" class="c0"/>
<circle cx="1368" cy="120" r="8" class="c0"/>
<circle cx="1244" cy="42" r="8" class="c0"/>
<circle cx="1306" cy="72" r="8" class="c0"/>
<circle cx="1286" cy="152" r="8" class="c0"/>
<circle cx="1192" cy="234" r="8" class="c0"/>
<circle cx="1300" cy="20" r="8" class="c0"/>
<circle cx="1288" cy="246" r="8" class="c0"/>
<circle cx="1204" cy="74" r="8" class="c0"/>
<circle cx="1346" cy="54" r="8" class="c0"/>
<circle cx="1330" cy="34" r="8" class="c0"/>
<circle cx="1264" cy="208" r="8" class="c0"/>
<circle cx="1314" cy="118" r="8" class="c0"/>
<circle cx="1312" cy="30" r="8" class="c0"/>
<circle cx="1414" cy="170" r="8" class="c0"/>
<circle cx="1342" cy="164" r="8" class="c0"/>
<circle cx="1186" cy="16" r="8" class="c0"/>
<circle cx="1356" cy="76" r="8" class="c0"/>
<circle cx="1392" cy="150" r="8" class="c0"/>
<circle cx="1316" cy="274" r="8" class="c0"/>
<circle cx="1376" cy="198" r="8" class="c0"/>
<circle cx="1262" cy="8" r="8" class="c0"/>
<circle cx="1172" cy="198" r="8" class="c0"/>
<circle cx="1338" cy="284" r="8" class="c0"/>
<circle cx="1226" cy="10" r="8" class="c0"/>
<circle cx="1350" cy="132" r="8" class="c0"/>
<circle cx="1226" cy="102" r="8" class="c0"/>
<circle cx="1290" cy="112" r="6" class="c0"/>
<circle cx="1328" cy="74" r="6" class="c0"/>
<circle cx="1234" cy="32" r="6" class="c0"/>
<circle cx="1296" cy="192" r="6" class="c0"/>
<circle cx="1168" cy="140" r="6" class="c0"/>
<circle cx="1336" cy="66" r="6" class="c0"/>
<circle cx="1252" cy="240" r="6" class="c0"/>
<circle cx="1360" cy="170" r="6" class="c0"/>
<circle cx="1302" cy="160" r="6" class="c0"/>
<circle cx="1270" cy="112" r="6" class="c0"/>
<circle cx="1304" cy="260" r="6" class="c0"/>
<circle cx="1320" cy="194" r="6" class="c0"/>
<circle cx="1292" cy="302" r="6" class="c0"/>
<circle cx="1298" cy="120" r="6" class="c0"/>
<circle cx="1296" cy="142" r="6" class="c0"/>
<circle cx="1202" cy="32" r="6" class="c0"/>
<circle cx="1354" cy="208" r="6" class="c0"/>
<circle cx="1282" cy="214" r="6" class="c0"/>
<circle cx="1388" cy="132" r="6" class="c0"/>
<circle cx="1340" cy="82" r="6" class="c0"/>
<circle cx="1260" cy="52" r="6" class="c0"/>
<circle cx="1352" cy="112" r="6" class="c0"/>
<circle cx="1176" cy="118" r="6" class="c0"/>
<circle cx="1286" cy="286" r="6" class="c0"/>
<circle cx="1260" cy="134" r="6" class="c0"/>
<circle cx="1316" cy="82" r="6" class="c0"/>
<circle cx="1380" cy="100" r="6" class="c0"/>
<circle cx="1276" cy="162" r="6" class="c0"/>
<circle cx="1168" cy="238" r="6" class="c0"/>
<circle cx="1210" cy="184" r="6" class="c0"/>
<circle cx="1160" cy="160" r="6" class="c0"/>
</svg>
