<?xml version="1.0" encoding="utf-8"?>
<svg xmlns="http://www.w3.org/2000/svg"
     xmlns:xlink="http://www.w3.org/1999/xlink" width="1920" height="1440" >

            <defs>
            <style type="text/css"><![CDATA[
circle {stroke: none;}
.c0 {fill: #000000;}
]]></style>
            </defs>
<rect x="0" y="0" width="1920" height="1440" fill="white"/>
<circle cx="1250" cy="44" r="12" class="c0"/>
<circle cx="1076" cy="80" r="12" class="c0"/>
<circle cx="1098" cy="156" r="12" class="c0"/>
<circle cx="1294" cy="16" r="12" class="c0"/>
<circle cx="1216" cy="174" r="12" class="c0"/>
<circle cx="1160" cy="44" r="12" class="c0"/>
<circle cx="1130" cy="88" r="10" class="c0"/>
<circle cx="1156" cy="78" r="10" class="c0"/>
<circle cx="1130" cy="194" r="10" class="c0"/>
<circle cx="1292" cy="56" r="10" class="c0"/>
<circle cx="1324" cy="28" r="10" class="c0"/>
<circle cx="1084" cy="20" r="10" class="c0"/>
<circle cx="1242" cy="16" r="10" class="c0"/>
<circle cx="1122" cy="134" r="10" class="c0"/>
<circle cx="1248" cy="112" r="10" class="c0"/>
<circle cx="1158" cy="208" r="10" class="c0"/>
<circle cx="1160" cy="132" r="10" class="c0"/>
<circle cx="1202" cy="84" r="10" class="c0"/>
<circle cx="1250" cy="176" r="10" class="c0"/>
<circle cx="1186" cy="204" r="10" class="c0"/>
<circle cx="1266" cy="14" r="10" class="c0"/>
<circle cx="1178" cy="158" r="10" class="c0"/>
<circle cx="1160" cy="184" r="10" class="c0"/>
<circle cx="1152" cy="18" r="10" class="c0"/>
<circle cx="1100" cy="64" r="10" class="c0"/>
<circle cx="1182" cy="52" r="10" class="c0"/>
<circle cx="1352" cy="16" r="10" class="c0"/>
<circle cx="1218" cy="28" r="8" class="c0"/>
<circle cx="1100" cy="120" r="8" class="c0"/>
<circle cx="1198" cy="122" r="8" class="c0"/>
<circle cx="1144" cy="172" r="8" class="c0"/>
<circle cx="1254" cy="66" r="8" class="c0"/>
<circle cx="1170" cy="26" r="8" class="c0"/>
<circle cx="1234" cy="98" r="8" class="c0"/>
<circle cx="1120" cy="160" r="8" class="c0"/>
<circle cx="1178" cy="112" r="8" class="c0"/>
<circle cx="1216" cy="216" r="8" class="c0"/>
<circle cx="1238" cy="154" r="8" class="c0"/>
<circle cx="1136" cy="112" r="8" class="c0"/>
<circle cx="1082" cy="142" r="8" class="c0"/>
<circle cx="1078" cy="122" r="8" class="c0"/>
<circle cx="1120" cy="50" r="8" class="c0"/>
<circle cx="1168" cy="96" r="8" class="c0"/>
<circle cx="1126" cy="68" r="8" class="c0"/>
<circle cx="1102" cy="36" r="8" class="c0"/>
<circle cx="1260" cy="134" r="8" class="c0"/>
<circle cx="1196" cy="140" r="8" class="c0"/>
<circle cx="1208" cy="12" r="8" class="c0"/>
<circle cx="1052" cy="62" r="8" class="c0"/>
<circle cx="1108" cy="86" r="8" class="c0"/>
<circle cx="1224" cy="62" r="8" class="c0"/>
<circle cx="1114" cy="26" r="8" class="c0"/>
<circle cx="1136" cy="42" r="8" class="c0"/>
<circle cx="1268" cy="34" r="8" class="c0"/>
<circle cx="1204" cy="40" r="8" class="c0"/>
<circle cx="1056" cy="30" r="8" class="c0"/>
<circle cx="1216" cy="110" r="8" class="c0"/>
<circle cx="1246" cy="82" r="8" class="c0"/>
<circle cx="1138" cy="144" r="8" class="c0"/>
<circle cx="1230" cy="190" r="8" class="c0"/>
<circle cx="1156" cy="106" r="8" class="c0"/>
<circle cx="1112" cy="178" r="8" class="c0"/>
<circle cx="1326" cy="48" r="8" class="c0"/>
<circle cx="1080" cy="102" r="8" class="c0"/>
<circle cx="1194" cy="176" r="8" class="c0"/>
<circle cx="1182" cy="82" r="8" class="c0"/>
<circle cx="1214" cy="198" r="8" class="c0"/>
<circle cx="1274" cy="78" r="8" class="c0"/>
<circle cx="1206" cy="150" r="8" class="c0"/>
<circle cx="1198" cy="220" r="8" class="c0"/>
<circle cx="1376" cy="8" r="8" class="c0"/>
<circle cx="1070" cy="50" r="8" class="c0"/>
<circle cx="1136" cy="8" r="8" class="c0"/>
<circle cx="1268" cy="96" r="8" class="c0"/>
<circle cx="1154" cy="158" r="8" class="c0"/>
<circle cx="1266" cy="56" r="8" class="c0"/>
<circle cx="1194" cy="30" r="8" class="c0"/>
<circle cx="1306" cy="68" r="8" class="c0"/>
<circle cx="1188" cy="12" r="8" class="c0"/>
<circle cx="1062" cy="112" r="8" class="c0"/>
<circle cx="1228" cy="42" r="8" class="c0"/>
<circle cx="1222" cy="132" r="8" class="c0"/>
<circle cx="1118" cy="106" r="8" class="c0"/>
<circle cx="1192" cy="102" r="8" class="c0"/>
<circle cx="1328" cy="8" r="6" class="c0"/>
<circle cx="1242" cy="132" r="6" class="c0"/>
<circle cx="1284" cy="92" r="6" class="c0"/>
<circle cx="1172" cy="10" r="6" class="c0"/>
<circle cx="1270" cy="114" r="6" class="c0"/>
<circle cx="1308" cy="40" r="6" class="c0"/>
<circle cx="1142" cy="128" r="6" class="c0"/>
<circle cx="1198" cy="192" r="6" class="c0"/>
<circle cx="1142" cy="62" r="6" class="c0"/>
<circle cx="1094" cy="94" r="6" class="c0"/>
<circle cx="1222" cy="234" r="6" class="c0"/>
<circle cx="1236" cy="216" r="6" class="c0"/>
<circle cx="1224" cy="82" r="6" class="c0"/>
<circle cx="1232" cy="120" r="6" class="c0"/>
<circle cx="1082" cy="38" r="6" class="c0"/>
<circle cx="1042" cy="50" r="6" class="c0"/>
<circle cx="1284" cy="38" r="6" class="c0"/>
<circle cx="1060" cy="90" r="6" class="c0"/>
<circle cx="1132" cy="26" r="6" class="c0"/>
<circle cx="1224" cy="6" r="6" class="c0"/>
<circle cx="1112" cy="6" r="6" class="c0"/>
<circle cx="1298" cy="84" r="6" class="c0"/>
<circle cx="1344" cy="34" r="6" class="c0"/>
<circle cx="1314" cy="14" r="6" class="c0"/>
<circle cx="1214" cy="50" r="6" class="c0"/>
<circle cx="1180" cy="138" r="6" class="c0"/>
<circle cx="1180" cy="186" r="6" class="c0"/>
<circle cx="1290" cy="74" r="6" class="c0"/>
<circle cx="1196" cy="160" r="6" class="c0"/>
<circle cx="1092" cy="46" r="6" class="c0"/>
<circle cx="1054" cy="78" r="6" class="c0"/>
<circle cx="1196" cy="62" r="6" class="c0"/>
<circle cx="1254" cy="156" r="6" class="c0"/>
<circle cx="1172" cy="70" r="6" class="c0"/>
<circle cx="1038" cy="28" r="6" class="c0"/>
<circle cx="1052" cy="98" r="6" class="c0"/>
<circle cx="1182" cy="224" r="6" class="c0"/>
<circle cx="1080" cy="60" r="6" class="c0"/>
<circle cx="1236" cy="72" r="6" class="c0"/>
<circle cx="1058" cy="14" r="6" class="c0"/>
<circle cx="1128" cy="174" r="6" class="c0"/>
<circle cx="1066" cy="132" r="6" class="c0"/>
<circle cx="1398" cy="8" r="6" class="c0"/>
<circle cx="1168" cy="222" r="6" class="c0"/>
<circle cx="1228" cy="206" r="6" class="c0"/>
<circle cx="1146" cy="96" r="6" class="c0"/>
<circle cx="1316" cy="58" r="6" class="c0"/>
<circle cx="1100" cy="12" r="6" class="c0"/>
<circle cx="1104" cy="136" r="6" class="c0"/>
<circle cx="1096" cy="176" r="6" class="c0"/>
<circle cx="1102" cy="102" r="6" class="c0"/>
<circle cx="1218" cy="94" r="6" class="c0"/>
<circle cx="1282" cy="120" r="6" class="c0"/>
<circle cx="1222" cy="152" r="6" class="c0"/>
</svg>
