<?xml version="1.0" encoding="utf-8"?>
<svg xmlns="http://www.w3.org/2000/svg"
     xmlns:xlink="http://www.w3.org/1999/xlink" width="1920" height="1440" >

            <defs>
            <style type="text/css"><![CDATA[
circle {stroke: none;}
.c0 {fill: #000000;}
]]></style>
            </defs>
<rect x="0" y="0" width="1920" height="1440" fill="white"/>
<circle cx="1238" cy="706" r="12" class="c0"/>
<circle cx="1194" cy="1012" r="12" class="c0"/>
<circle cx="1342" cy="600" r="12" class="c0"/>
<circle cx="1336" cy="890" r="12" class="c0"/>
<circle cx="1356" cy="790" r="12" class="c0"/>
<circle cx="1158" cy="1236" r="12" class="c0"/>
<circle cx="1198" cy="786" r="12" class="c0"/>
<circle cx="1232" cy="1008" r="12" class="c0"/>
<circle cx="1286" cy="880" r="12" class="c0"/>
<circle cx="1308" cy="1216" r="12" class="c0"/>
<circle cx="1302" cy="1122" r="12" class="c0"/>
<circle cx="1350" cy="978" r="12" class="c0"/>
<circle cx="1232" cy="1212" r="12" class="c0"/>
<circle cx="1332" cy="798" r="12" class="c0"/>
<circle cx="1330" cy="918" r="12" class="c0"/>
<circle cx="1318" cy="980" r="12" class="c0"/>
<circle cx="1374" cy="964" r="12" class="c0"/>
<circle cx="1250" cy="620" r="12" class="c0"/>
<circle cx="1366" cy="1246" r="12" class="c0"/>
<circle cx="1338" cy="956" r="12" class="c0"/>
<circle cx="1354" cy="1118" r="12" class="c0"/>
<circle cx="1304" cy="1026" r="12" class="c0"/>
<circle cx="1386" cy="816" r="12" class="c0"/>
<circle cx="1266" cy="1024" r="12" class="c0"/>
<circle cx="1394" cy="1158" r="12" class="c0"/>
<circle cx="1220" cy="758" r="12" class="c0"/>
<circle cx="1240" cy="932" r="12" class="c0"/>
<circle cx="1248" cy="1252" r="12" class="c0"/>
<circle cx="1324" cy="1270" r="12" class="c0"/>
<circle cx="1346" cy="668" r="12" class="c0"/>
<circle cx="1110" cy="592" r="12" class="c0"/>
<circle cx="1198" cy="1160" r="12" class="c0"/>
<circle cx="1200" cy="1066" r="12" class="c0"/>
<circle cx="1308" cy="730" r="12" class="c0"/>
<circle cx="1252" cy="754" r="12" class="c0"/>
<circle cx="1246" cy="1042" r="10" class="c0"/>
<circle cx="1346" cy="1096" r="10" class="c0"/>
<circle cx="1242" cy="590" r="10" class="c0"/>
<circle cx="1436" cy="742" r="10" class="c0"/>
<circle cx="1286" cy="940" r="10" class="c0"/>
<circle cx="1262" cy="1126" r="10" class="c0"/>
<circle cx="1346" cy="758" r="10" class="c0"/>
<circle cx="1280" cy="1224" r="10" class="c0"/>
<circle cx="1314" cy="1148" r="10" class="c0"/>
<circle cx="1308" cy="646" r="10" class="c0"/>
<circle cx="1366" cy="888" r="10" class="c0"/>
<circle cx="1476" cy="636" r="10" class="c0"/>
<circle cx="1400" cy="736" r="10" class="c0"/>
<circle cx="1310" cy="778" r="10" class="c0"/>
<circle cx="1242" cy="838" r="10" class="c0"/>
<circle cx="1276" cy="782" r="10" class="c0"/>
<circle cx="1418" cy="1246" r="10" class="c0"/>
<circle cx="1378" cy="620" r="10" class="c0"/>
<circle cx="1450" cy="652" r="10" class="c0"/>
<circle cx="1272" cy="1082" r="10" class="c0"/>
<circle cx="1396" cy="900" r="10" class="c0"/>
<circle cx="1184" cy="1194" r="10" class="c0"/>
<circle cx="1186" cy="694" r="10" class="c0"/>
<circle cx="1332" cy="1052" r="10" class="c0"/>
<circle cx="1162" cy="1146" r="10" class="c0"/>
<circle cx="1266" cy="726" r="10" class="c0"/>
<circle cx="1178" cy="732" r="10" class="c0"/>
<circle cx="1288" cy="678" r="10" class="c0"/>
<circle cx="1338" cy="1246" r="10" class="c0"/>
<circle cx="1246" cy="962" r="10" class="c0"/>
<circle cx="1502" cy="624" r="10" class="c0"/>
<circle cx="1238" cy="872" r="10" class="c0"/>
<circle cx="1288" cy="706" r="10" class="c0"/>
<circle cx="1426" cy="718" r="10" class="c0"/>
<circle cx="1486" cy="598" r="10" class="c0"/>
<circle cx="1392" cy="660" r="10" class="c0"/>
<circle cx="1202" cy="946" r="10" class="c0"/>
<circle cx="1422" cy="1202" r="10" class="c0"/>
<circle cx="1260" cy="1192" r="10" class="c0"/>
<circle cx="1286" cy="648" r="10" class="c0"/>
<circle cx="1198" cy="852" r="10" class="c0"/>
<circle cx="1376" cy="1106" r="10" class="c0"/>
<circle cx="1366" cy="706" r="10" class="c0"/>
<circle cx="1396" cy="1188" r="10" class="c0"/>
<circle cx="1310" cy="928" r="10" class="c0"/>
<circle cx="1226" cy="910" r="10" class="c0"/>
<circle cx="1192" cy="622" r="10" class="c0"/>
<circle cx="1200" cy="1120" r="10" class="c0"/>
<circle cx="1124" cy="632" r="10" class="c0"/>
<circle cx="1222" cy="1100" r="10" class="c0"/>
<circle cx="1412" cy="690" r="10" class="c0"/>
<circle cx="1366" cy="1074" r="10" class="c0"/>
<circle cx="1240" cy="736" r="10" class="c0"/>
<circle cx="1208" cy="1268" r="10" class="c0"/>
<circle cx="1410" cy="1120" r="10" class="c0"/>
<circle cx="1246" cy="1168" r="10" class="c0"/>
<circle cx="1142" cy="642" r="10" class="c0"/>
<circle cx="1188" cy="1240" r="10" class="c0"/>
<circle cx="1394" cy="768" r="10" class="c0"/>
<circle cx="1186" cy="668" r="10" class="c0"/>
<circle cx="1146" cy="1180" r="10" class="c0"/>
<circle cx="1296" cy="916" r="10" class="c0"/>
<circle cx="1208" cy="1220" r="10" class="c0"/>
<circle cx="1232" cy="1140" r="10" class="c0"/>
<circle cx="1336" cy="1074" r="10" class="c0"/>
<circle cx="1218" cy="670" r="10" class="c0"/>
<circle cx="1264" cy="812" r="10" class="c0"/>
<circle cx="1348" cy="1206" r="10" class="c0"/>
<circle cx="1364" cy="938" r="10" class="c0"/>
<circle cx="1328" cy="714" r="10" class="c0"/>
<circle cx="1346" cy="1164" r="10" class="c0"/>
<circle cx="1292" cy="1146" r="10" class="c0"/>
<circle cx="1160" cy="616" r="10" class="c0"/>
<circle cx="1426" cy="664" r="10" class="c0"/>
<circle cx="1466" cy="676" r="10" class="c0"/>
<circle cx="1404" cy="1230" r="10" class="c0"/>
<circle cx="1212" cy="824" r="10" class="c0"/>
<circle cx="1392" cy="950" r="10" class="c0"/>
<circle cx="1256" cy="1064" r="10" class="c0"/>
<circle cx="1418" cy="620" r="10" class="c0"/>
<circle cx="1342" cy="1026" r="10" class="c0"/>
<circle cx="1466" cy="708" r="10" class="c0"/>
<circle cx="1408" cy="858" r="10" class="c0"/>
<circle cx="1236" cy="794" r="10" class="c0"/>
<circle cx="1290" cy="1256" r="10" class="c0"/>
<circle cx="1302" cy="616" r="10" class="c0"/>
<circle cx="1262" cy="878" r="10" class="c0"/>
<circle cx="1380" cy="1000" r="10" class="c0"/>
<circle cx="1146" cy="1122" r="10" class="c0"/>
<circle cx="1204" cy="600" r="10" class="c0"/>
<circle cx="1288" cy="1294" r="10" class="c0"/>
<circle cx="1440" cy="628" r="10" class="c0"/>
<circle cx="1308" cy="1176" r="10" class="c0"/>
<circle cx="1378" cy="780" r="10" class="c0"/>
<circle cx="1206" cy="990" r="10" class="c0"/>
<circle cx="1358" cy="738" r="10" class="c0"/>
<circle cx="1220" cy="616" r="10" class="c0"/>
<circle cx="1320" cy="864" r="10" class="c0"/>
<circle cx="1204" cy="708" r="10" class="c0"/>
<circle cx="1412" cy="646" r="10" class="c0"/>
<circle cx="1376" cy="1226" r="10" class="c0"/>
<circle cx="1092" cy="650" r="10" class="c0"/>
<circle cx="1354" cy="622" r="10" class="c0"/>
<circle cx="1212" cy="886" r="10" class="c0"/>
<circle cx="1216" cy="862" r="10" class="c0"/>
<circle cx="1298" cy="814" r="10" class="c0"/>
<circle cx="1214" cy="726" r="8" class="c0"/>
<circle cx="1390" cy="1020" r="8" class="c0"/>
<circle cx="1190" cy="810" r="8" class="c0"/>
<circle cx="1392" cy="1134" r="8" class="c0"/>
<circle cx="1308" cy="694" r="8" class="c0"/>
<circle cx="1252" cy="668" r="8" class="c0"/>
<circle cx="1154" cy="688" r="8" class="c0"/>
<circle cx="1344" cy="840" r="8" class="c0"/>
<circle cx="1328" cy="1132" r="8" class="c0"/>
<circle cx="1460" cy="624" r="8" class="c0"/>
<circle cx="1198" cy="682" r="8" class="c0"/>
<circle cx="1418" cy="776" r="8" class="c0"/>
<circle cx="1416" cy="822" r="8" class="c0"/>
<circle cx="1372" cy="1144" r="8" class="c0"/>
<circle cx="1144" cy="1204" r="8" class="c0"/>
<circle cx="1164" cy="1072" r="8" class="c0"/>
<circle cx="1356" cy="854" r="8" class="c0"/>
<circle cx="1276" cy="1244" r="8" class="c0"/>
<circle cx="1224" cy="1046" r="8" class="c0"/>
<circle cx="1362" cy="832" r="8" class="c0"/>
<circle cx="1302" cy="1078" r="8" class="c0"/>
<circle cx="1238" cy="1072" r="8" class="c0"/>
<circle cx="1196" cy="760" r="8" class="c0"/>
<circle cx="1364" cy="1188" r="8" class="c0"/>
<circle cx="1272" cy="664" r="8" class="c0"/>
<circle cx="1364" cy="768" r="8" class="c0"/>
<circle cx="1280" cy="622" r="8" class="c0"/>
<circle cx="1310" cy="802" r="8" class="c0"/>
<circle cx="1104" cy="638" r="8" class="c0"/>
<circle cx="1432" cy="762" r="8" class="c0"/>
<circle cx="1208" cy="650" r="8" class="c0"/>
<circle cx="1348" cy="690" r="8" class="c0"/>
<circle cx="1310" cy="828" r="8" class="c0"/>
<circle cx="1326" cy="844" r="8" class="c0"/>
<circle cx="1258" cy="1308" r="8" class="c0"/>
<circle cx="1356" cy="918" r="8" class="c0"/>
<circle cx="1344" cy="1142" r="8" class="c0"/>
<circle cx="1262" cy="978" r="8" class="c0"/>
<circle cx="1284" cy="594" r="8" class="c0"/>
<circle cx="1128" cy="654" r="8" class="c0"/>
<circle cx="1174" cy="634" r="8" class="c0"/>
<circle cx="1242" cy="1112" r="8" class="c0"/>
<circle cx="1284" cy="1366" r="8" class="c0"/>
<circle cx="1290" cy="1090" r="8" class="c0"/>
<circle cx="1300" cy="1318" r="8" class="c0"/>
<circle cx="1108" cy="618" r="8" class="c0"/>
<circle cx="1396" cy="1098" r="8" class="c0"/>
<circle cx="1116" cy="682" r="8" class="c0"/>
<circle cx="1252" cy="780" r="8" class="c0"/>
<circle cx="1398" cy="790" r="8" class="c0"/>
<circle cx="1342" cy="1004" r="8" class="c0"/>
<circle cx="1268" cy="1160" r="8" class="c0"/>
<circle cx="1286" cy="736" r="8" class="c0"/>
<circle cx="1226" cy="948" r="8" class="c0"/>
<circle cx="1330" cy="682" r="8" class="c0"/>
<circle cx="1282" cy="1042" r="8" class="c0"/>
<circle cx="1388" cy="1248" r="8" class="c0"/>
<circle cx="1262" cy="1290" r="8" class="c0"/>
<circle cx="1394" cy="838" r="8" class="c0"/>
<circle cx="1162" cy="1202" r="8" class="c0"/>
<circle cx="1368" cy="650" r="8" class="c0"/>
<circle cx="1224" cy="1192" r="8" class="c0"/>
<circle cx="1396" cy="1052" r="8" class="c0"/>
<circle cx="1262" cy="588" r="8" class="c0"/>
<circle cx="1162" cy="644" r="8" class="c0"/>
<circle cx="1138" cy="1148" r="8" class="c0"/>
<circle cx="1314" cy="1252" r="8" class="c0"/>
<circle cx="1170" cy="1112" r="8" class="c0"/>
<circle cx="1498" cy="658" r="8" class="c0"/>
<circle cx="1380" cy="722" r="8" class="c0"/>
<circle cx="1430" cy="798" r="8" class="c0"/>
<circle cx="1280" cy="1200" r="8" class="c0"/>
<circle cx="1226" cy="970" r="8" class="c0"/>
<circle cx="1326" cy="1226" r="8" class="c0"/>
<circle cx="1324" cy="942" r="8" class="c0"/>
<circle cx="1350" cy="872" r="8" class="c0"/>
<circle cx="1156" cy="720" r="8" class="c0"/>
<circle cx="1420" cy="1176" r="8" class="c0"/>
<circle cx="1168" cy="1258" r="8" class="c0"/>
<circle cx="1330" cy="620" r="8" class="c0"/>
<circle cx="1174" cy="656" r="8" class="c0"/>
<circle cx="1150" cy="660" r="8" class="c0"/>
<circle cx="1348" cy="814" r="8" class="c0"/>
<circle cx="1440" cy="678" r="8" class="c0"/>
<circle cx="1176" cy="1054" r="8" class="c0"/>
<circle cx="1214" cy="924" r="8" class="c0"/>
<circle cx="1384" cy="856" r="8" class="c0"/>
<circle cx="1456" cy="746" r="8" class="c0"/>
<circle cx="1306" cy="948" r="8" class="c0"/>
<circle cx="1384" cy="1268" r="8" class="c0"/>
<circle cx="1320" cy="670" r="8" class="c0"/>
<circle cx="1270" cy="996" r="8" class="c0"/>
<circle cx="1304" cy="1240" r="8" class="c0"/>
<circle cx="1222" cy="1124" r="8" class="c0"/>
<circle cx="1208" cy="1028" r="8" class="c0"/>
<circle cx="1284" cy="758" r="8" class="c0"/>
<circle cx="1252" cy="1094" r="8" class="c0"/>
<circle cx="1276" cy="836" r="8" class="c0"/>
<circle cx="1368" cy="1038" r="8" class="c0"/>
<circle cx="1338" cy="732" r="8" class="c0"/>
<circle cx="1322" cy="1192" r="8" class="c0"/>
<circle cx="1268" cy="684" r="8" class="c0"/>
<circle cx="1438" cy="1228" r="8" class="c0"/>
<circle cx="1180" cy="1126" r="8" class="c0"/>
<circle cx="1320" cy="1096" r="8" class="c0"/>
<circle cx="1404" cy="602" r="8" class="c0"/>
<circle cx="1284" cy="1014" r="8" class="c0"/>
<circle cx="1308" cy="852" r="8" class="c0"/>
<circle cx="1352" cy="1302" r="8" class="c0"/>
<circle cx="1178" cy="1270" r="8" class="c0"/>
<circle cx="1426" cy="594" r="8" class="c0"/>
<circle cx="1268" cy="918" r="8" class="c0"/>
<circle cx="1186" cy="992" r="8" class="c0"/>
<circle cx="1288" cy="1180" r="8" class="c0"/>
<circle cx="1382" cy="1086" r="8" class="c0"/>
<circle cx="1374" cy="1056" r="8" class="c0"/>
<circle cx="1294" cy="794" r="8" class="c0"/>
<circle cx="1266" cy="958" r="8" class="c0"/>
<circle cx="1160" cy="740" r="8" class="c0"/>
<circle cx="1188" cy="1090" r="8" class="c0"/>
<circle cx="1186" cy="1032" r="8" class="c0"/>
<circle cx="1136" cy="706" r="8" class="c0"/>
<circle cx="1396" cy="980" r="8" class="c0"/>
<circle cx="1182" cy="604" r="8" class="c0"/>
<circle cx="1446" cy="702" r="8" class="c0"/>
<circle cx="1220" cy="1074" r="8" class="c0"/>
<circle cx="1384" cy="928" r="8" class="c0"/>
<circle cx="1366" cy="680" r="8" class="c0"/>
<circle cx="1164" cy="1092" r="8" class="c0"/>
<circle cx="1266" cy="1266" r="8" class="c0"/>
<circle cx="1258" cy="856" r="8" class="c0"/>
<circle cx="1244" cy="1288" r="8" class="c0"/>
<circle cx="1138" cy="678" r="8" class="c0"/>
<circle cx="1330" cy="820" r="8" class="c0"/>
<circle cx="1306" cy="1286" r="8" class="c0"/>
<circle cx="1282" cy="966" r="8" class="c0"/>
<circle cx="1302" cy="1048" r="8" class="c0"/>
<circle cx="1110" cy="662" r="8" class="c0"/>
<circle cx="1374" cy="916" r="8" class="c0"/>
<circle cx="1438" cy="1262" r="8" class="c0"/>
<circle cx="1348" cy="1280" r="8" class="c0"/>
<circle cx="1224" cy="1258" r="8" class="c0"/>
<circle cx="1250" cy="908" r="8" class="c0"/>
<circle cx="1392" cy="634" r="8" class="c0"/>
<circle cx="1240" cy="658" r="8" class="c0"/>
<circle cx="1370" cy="750" r="8" class="c0"/>
<circle cx="1366" cy="1170" r="8" class="c0"/>
<circle cx="1182" cy="1220" r="8" class="c0"/>
<circle cx="1314" cy="900" r="8" class="c0"/>
<circle cx="1168" cy="704" r="8" class="c0"/>
<circle cx="1404" cy="1008" r="8" class="c0"/>
<circle cx="1462" cy="784" r="8" class="c0"/>
<circle cx="1288" cy="846" r="8" class="c0"/>
<circle cx="1176" cy="1176" r="8" class="c0"/>
<circle cx="1128" cy="604" r="8" class="c0"/>
<circle cx="1380" cy="582" r="8" class="c0"/>
<circle cx="1172" cy="768" r="8" class="c0"/>
<circle cx="1478" cy="664" r="8" class="c0"/>
<circle cx="1368" cy="604" r="8" class="c0"/>
<circle cx="1198" cy="916" r="8" class="c0"/>
<circle cx="1294" cy="1000" r="8" class="c0"/>
<circle cx="1344" cy="638" r="8" class="c0"/>
<circle cx="1250" cy="686" r="8" class="c0"/>
<circle cx="1198" cy="970" r="8" class="c0"/>
<circle cx="1314" cy="758" r="8" class="c0"/>
<circle cx="1276" cy="1276" r="8" class="c0"/>
<circle cx="1378" cy="694" r="8" class="c0"/>
<circle cx="1314" cy="1060" r="8" class="c0"/>
<circle cx="1414" cy="750" r="8" class="c0"/>
<circle cx="1088" cy="626" r="8" class="c0"/>
<circle cx="1246" cy="990" r="8" class="c0"/>
<circle cx="1190" cy="648" r="8" class="c0"/>
<circle cx="1498" cy="704" r="8" class="c0"/>
<circle cx="1326" cy="1016" r="8" class="c0"/>
<circle cx="1398" cy="1208" r="8" class="c0"/>
<circle cx="1266" cy="938" r="8" class="c0"/>
<circle cx="1332" cy="1176" r="8" class="c0"/>
<circle cx="1366" cy="1270" r="8" class="c0"/>
<circle cx="1218" cy="802" r="8" class="c0"/>
<circle cx="1286" cy="1330" r="8" class="c0"/>
<circle cx="1198" cy="736" r="8" class="c0"/>
<circle cx="1390" cy="704" r="8" class="c0"/>
<circle cx="1304" cy="966" r="8" class="c0"/>
<circle cx="1136" cy="1266" r="8" class="c0"/>
<circle cx="1346" cy="1228" r="8" class="c0"/>
<circle cx="1322" cy="1304" r="8" class="c0"/>
<circle cx="1228" cy="1280" r="8" class="c0"/>
<circle cx="1334" cy="1152" r="8" class="c0"/>
<circle cx="1368" cy="1208" r="8" class="c0"/>
<circle cx="1210" cy="1182" r="8" class="c0"/>
<circle cx="1226" cy="1238" r="8" class="c0"/>
<circle cx="1278" cy="1114" r="8" class="c0"/>
<circle cx="1234" cy="814" r="8" class="c0"/>
<circle cx="1462" cy="600" r="8" class="c0"/>
<circle cx="1454" cy="1212" r="8" class="c0"/>
<circle cx="1162" cy="1044" r="8" class="c0"/>
<circle cx="1366" cy="864" r="8" class="c0"/>
<circle cx="1238" cy="1270" r="8" class="c0"/>
<circle cx="1170" cy="582" r="8" class="c0"/>
<circle cx="1222" cy="1168" r="8" class="c0"/>
<circle cx="1240" cy="898" r="8" class="c0"/>
<circle cx="1334" cy="1110" r="8" class="c0"/>
<circle cx="1438" cy="582" r="8" class="c0"/>
<circle cx="1264" cy="898" r="8" class="c0"/>
<circle cx="1166" cy="676" r="8" class="c0"/>
<circle cx="1266" cy="632" r="8" class="c0"/>
<circle cx="1254" cy="1226" r="8" class="c0"/>
<circle cx="1374" cy="844" r="8" class="c0"/>
<circle cx="1394" cy="1074" r="8" class="c0"/>
<circle cx="1488" cy="648" r="8" class="c0"/>
<circle cx="1444" cy="604" r="8" class="c0"/>
<circle cx="1256" cy="642" r="8" class="c0"/>
<circle cx="1218" cy="586" r="8" class="c0"/>
<circle cx="1316" cy="602" r="8" class="c0"/>
<circle cx="1286" cy="826" r="8" class="c0"/>
<circle cx="1398" cy="918" r="6" class="c0"/>
<circle cx="1222" cy="694" r="6" class="c0"/>
<circle cx="1178" cy="1080" r="6" class="c0"/>
<circle cx="1350" cy="1262" r="6" class="c0"/>
<circle cx="1376" cy="874" r="6" class="c0"/>
<circle cx="1312" cy="1006" r="6" class="c0"/>
<circle cx="1254" cy="1152" r="6" class="c0"/>
<circle cx="1224" cy="640" r="6" class="c0"/>
<circle cx="1336" cy="776" r="6" class="c0"/>
<circle cx="1198" cy="1046" r="6" class="c0"/>
<circle cx="1282" cy="906" r="6" class="c0"/>
<circle cx="1344" cy="1186" r="6" class="c0"/>
<circle cx="1380" cy="672" r="6" class="c0"/>
<circle cx="1186" cy="830" r="6" class="c0"/>
<circle cx="1092" cy="606" r="6" class="c0"/>
<circle cx="1332" cy="992" r="6" class="c0"/>
<circle cx="1270" cy="1100" r="6" class="c0"/>
<circle cx="1330" cy="750" r="6" class="c0"/>
<circle cx="1504" cy="674" r="6" class="c0"/>
<circle cx="1280" cy="1066" r="6" class="c0"/>
<circle cx="1236" cy="676" r="6" class="c0"/>
<circle cx="1264" cy="1046" r="6" class="c0"/>
<circle cx="1404" cy="1084" r="6" class="c0"/>
<circle cx="1394" cy="868" r="6" class="c0"/>
<circle cx="1380" cy="1198" r="6" class="c0"/>
<circle cx="1328" cy="766" r="6" class="c0"/>
<circle cx="1304" cy="1098" r="6" class="c0"/>
<circle cx="1350" cy="902" r="6" class="c0"/>
<circle cx="1442" cy="786" r="6" class="c0"/>
<circle cx="1292" cy="1060" r="6" class="c0"/>
<circle cx="1268" cy="706" r="6" class="c0"/>
<circle cx="1210" cy="1088" r="6" class="c0"/>
<circle cx="1136" cy="1108" r="6" class="c0"/>
<circle cx="1214" cy="1148" r="6" class="c0"/>
<circle cx="1322" cy="634" r="6" class="c0"/>
<circle cx="1148" cy="1220" r="6" class="c0"/>
<circle cx="1190" cy="1142" r="6" class="c0"/>
<circle cx="1364" cy="992" r="6" class="c0"/>
<circle cx="1348" cy="1060" r="6" class="c0"/>
<circle cx="1180" cy="754" r="6" class="c0"/>
<circle cx="1140" cy="622" r="6" class="c0"/>
<circle cx="1240" cy="770" r="6" class="c0"/>
<circle cx="1294" cy="768" r="6" class="c0"/>
<circle cx="1226" cy="848" r="6" class="c0"/>
<circle cx="1306" cy="884" r="6" class="c0"/>
<circle cx="1242" cy="1186" r="6" class="c0"/>
<circle cx="1264" cy="770" r="6" class="c0"/>
<circle cx="1428" cy="698" r="6" class="c0"/>
<circle cx="1402" cy="1268" r="6" class="c0"/>
<circle cx="1272" cy="1144" r="6" class="c0"/>
<circle cx="1376" cy="798" r="6" class="c0"/>
<circle cx="1298" cy="866" r="6" class="c0"/>
<circle cx="1192" cy="720" r="6" class="c0"/>
<circle cx="1206" cy="1238" r="6" class="c0"/>
<circle cx="1152" cy="1260" r="6" class="c0"/>
<circle cx="1408" cy="586" r="6" class="c0"/>
<circle cx="1448" cy="768" r="6" class="c0"/>
<circle cx="1266" cy="604" r="6" class="c0"/>
<circle cx="1224" cy="988" r="6" class="c0"/>
<circle cx="1372" cy="984" r="6" class="c0"/>
<circle cx="1392" cy="686" r="6" class="c0"/>
<circle cx="1344" cy="930" r="6" class="c0"/>
<circle cx="1326" cy="1208" r="6" class="c0"/>
<circle cx="1364" cy="1014" r="6" class="c0"/>
<circle cx="1376" cy="1128" r="6" class="c0"/>
<circle cx="1472" cy="614" r="6" class="c0"/>
<circle cx="1254" cy="1010" r="6" class="c0"/>
<circle cx="1324" cy="1032" r="6" class="c0"/>
<circle cx="1200" cy="1252" r="6" class="c0"/>
<circle cx="1388" cy="750" r="6" class="c0"/>
<circle cx="1234" cy="1302" r="6" class="c0"/>
<circle cx="1462" cy="726" r="6" class="c0"/>
<circle cx="1418" cy="1140" r="6" class="c0"/>
<circle cx="1282" cy="806" r="6" class="c0"/>
<circle cx="1296" cy="1164" r="6" class="c0"/>
<circle cx="1298" cy="982" r="6" class="c0"/>
<circle cx="1516" cy="660" r="6" class="c0"/>
<circle cx="1164" cy="1128" r="6" class="c0"/>
<circle cx="1212" cy="1286" r="6" class="c0"/>
<circle cx="1410" cy="708" r="6" class="c0"/>
<circle cx="1188" cy="1260" r="6" class="c0"/>
<circle cx="1324" cy="1162" r="6" class="c0"/>
<circle cx="1400" cy="676" r="6" class="c0"/>
<circle cx="1410" cy="804" r="6" class="c0"/>
<circle cx="1124" cy="1180" r="6" class="c0"/>
<circle cx="1440" cy="812" r="6" class="c0"/>
<circle cx="1284" cy="986" r="6" class="c0"/>
<circle cx="1156" cy="598" r="6" class="c0"/>
<circle cx="1360" cy="1154" r="6" class="c0"/>
<circle cx="1194" cy="1208" r="6" class="c0"/>
<circle cx="1164" cy="1186" r="6" class="c0"/>
<circle cx="1272" cy="1056" r="6" class="c0"/>
<circle cx="1348" cy="716" r="6" class="c0"/>
<circle cx="1340" cy="856" r="6" class="c0"/>
<circle cx="1476" cy="690" r="6" class="c0"/>
<circle cx="1330" cy="648" r="6" class="c0"/>
<circle cx="1366" cy="808" r="6" class="c0"/>
<circle cx="1188" cy="746" r="6" class="c0"/>
<circle cx="1210" cy="634" r="6" class="c0"/>
<circle cx="1136" cy="1238" r="6" class="c0"/>
<circle cx="1394" cy="1036" r="6" class="c0"/>
<circle cx="1402" cy="936" r="6" class="c0"/>
<circle cx="1240" cy="638" r="6" class="c0"/>
<circle cx="1410" cy="890" r="6" class="c0"/>
<circle cx="1354" cy="1046" r="6" class="c0"/>
<circle cx="1246" cy="1022" r="6" class="c0"/>
<circle cx="1422" cy="844" r="6" class="c0"/>
<circle cx="1410" cy="912" r="6" class="c0"/>
<circle cx="1216" cy="778" r="6" class="c0"/>
<circle cx="1418" cy="1220" r="6" class="c0"/>
<circle cx="1188" cy="1108" r="6" class="c0"/>
<circle cx="1194" cy="1180" r="6" class="c0"/>
<circle cx="1192" cy="882" r="6" class="c0"/>
<circle cx="1154" cy="1106" r="6" class="c0"/>
<circle cx="1412" cy="968" r="6" class="c0"/>
<circle cx="1422" cy="1154" r="6" class="c0"/>
<circle cx="1388" cy="1118" r="6" class="c0"/>
<circle cx="1404" cy="878" r="6" class="c0"/>
<circle cx="1276" cy="860" r="6" class="c0"/>
<circle cx="1298" cy="1190" r="6" class="c0"/>
<circle cx="1298" cy="750" r="6" class="c0"/>
<circle cx="1204" cy="1200" r="6" class="c0"/>
<circle cx="1282" cy="1350" r="6" class="c0"/>
<circle cx="1178" cy="1154" r="6" class="c0"/>
<circle cx="1148" cy="1160" r="6" class="c0"/>
<circle cx="1162" cy="1168" r="6" class="c0"/>
<circle cx="1382" cy="738" r="6" class="c0"/>
<circle cx="1274" cy="1316" r="6" class="c0"/>
<circle cx="1384" cy="882" r="6" class="c0"/>
<circle cx="1252" cy="1210" r="6" class="c0"/>
<circle cx="1272" cy="1178" r="6" class="c0"/>
<circle cx="1214" cy="1248" r="6" class="c0"/>
<circle cx="1384" cy="1176" r="6" class="c0"/>
<circle cx="1204" cy="1140" r="6" class="c0"/>
<circle cx="1256" cy="948" r="6" class="c0"/>
<circle cx="1268" cy="744" r="6" class="c0"/>
<circle cx="1298" cy="894" r="6" class="c0"/>
<circle cx="1430" cy="856" r="6" class="c0"/>
<circle cx="1508" cy="648" r="6" class="c0"/>
<circle cx="1160" cy="1274" r="6" class="c0"/>
<circle cx="1236" cy="1088" r="6" class="c0"/>
<circle cx="1398" cy="718" r="6" class="c0"/>
<circle cx="1318" cy="1076" r="6" class="c0"/>
<circle cx="1254" cy="826" r="6" class="c0"/>
<circle cx="1386" cy="604" r="6" class="c0"/>
<circle cx="1216" cy="958" r="6" class="c0"/>
<circle cx="1396" cy="618" r="6" class="c0"/>
<circle cx="1202" cy="1100" r="6" class="c0"/>
<circle cx="1256" cy="796" r="6" class="c0"/>
<circle cx="1200" cy="872" r="6" class="c0"/>
<circle cx="1228" cy="1030" r="6" class="c0"/>
<circle cx="1488" cy="676" r="6" class="c0"/>
<circle cx="1456" cy="690" r="6" class="c0"/>
<circle cx="1492" cy="720" r="6" class="c0"/>
<circle cx="1304" cy="1266" r="6" class="c0"/>
<circle cx="1138" cy="592" r="6" class="c0"/>
<circle cx="1176" cy="1020" r="6" class="c0"/>
<circle cx="1180" cy="714" r="6" class="c0"/>
<circle cx="1280" cy="1132" r="6" class="c0"/>
<circle cx="1430" cy="644" r="6" class="c0"/>
<circle cx="1296" cy="662" r="6" class="c0"/>
<circle cx="1406" cy="990" r="6" class="c0"/>
<circle cx="1132" cy="1194" r="6" class="c0"/>
<circle cx="1232" cy="630" r="6" class="c0"/>
<circle cx="1306" cy="710" r="6" class="c0"/>
<circle cx="1468" cy="654" r="6" class="c0"/>
<circle cx="1268" cy="1210" r="6" class="c0"/>
<circle cx="1438" cy="1210" r="6" class="c0"/>
<circle cx="1074" cy="610" r="6" class="c0"/>
<circle cx="1120" cy="1206" r="6" class="c0"/>
<circle cx="1372" cy="1022" r="6" class="c0"/>
<circle cx="1236" cy="980" r="6" class="c0"/>
<circle cx="1126" cy="1230" r="6" class="c0"/>
<circle cx="1234" cy="1056" r="6" class="c0"/>
<circle cx="1132" cy="1170" r="6" class="c0"/>
<circle cx="1470" cy="736" r="6" class="c0"/>
<circle cx="1260" cy="840" r="6" class="c0"/>
<circle cx="1232" cy="1178" r="6" class="c0"/>
<circle cx="1296" cy="1276" r="6" class="c0"/>
<circle cx="1132" cy="1218" r="6" class="c0"/>
<circle cx="1366" cy="634" r="6" class="c0"/>
<circle cx="1250" cy="1138" r="6" class="c0"/>
<circle cx="1192" cy="1282" r="6" class="c0"/>
<circle cx="1292" cy="1106" r="6" class="c0"/>
<circle cx="1324" cy="1000" r="6" class="c0"/>
<circle cx="1268" cy="1356" r="6" class="c0"/>
<circle cx="1166" cy="1218" r="6" class="c0"/>
<circle cx="1316" cy="1040" r="6" class="c0"/>
<circle cx="1376" cy="1282" r="6" class="c0"/>
<circle cx="1094" cy="668" r="6" class="c0"/>
<circle cx="1334" cy="1290" r="6" class="c0"/>
<circle cx="1198" cy="896" r="6" class="c0"/>
<circle cx="1154" cy="1060" r="6" class="c0"/>
<circle cx="1434" cy="1188" r="6" class="c0"/>
<circle cx="1304" cy="1302" r="6" class="c0"/>
<circle cx="1184" cy="934" r="6" class="c0"/>
<circle cx="1432" cy="826" r="6" class="c0"/>
<circle cx="1408" cy="668" r="6" class="c0"/>
<circle cx="1450" cy="720" r="6" class="c0"/>
<circle cx="1254" cy="1276" r="6" class="c0"/>
<circle cx="1410" cy="946" r="6" class="c0"/>
<circle cx="1368" cy="1290" r="6" class="c0"/>
<circle cx="1214" cy="842" r="6" class="c0"/>
<circle cx="1126" cy="692" r="6" class="c0"/>
<circle cx="1422" cy="1108" r="6" class="c0"/>
<circle cx="1182" cy="972" r="6" class="c0"/>
<circle cx="1262" cy="1336" r="6" class="c0"/>
<circle cx="1150" cy="586" r="6" class="c0"/>
<circle cx="1236" cy="608" r="6" class="c0"/>
<circle cx="1438" cy="844" r="6" class="c0"/>
<circle cx="1318" cy="958" r="6" class="c0"/>
<circle cx="1364" cy="1092" r="6" class="c0"/>
<circle cx="1078" cy="640" r="6" class="c0"/>
<circle cx="1230" cy="888" r="6" class="c0"/>
<circle cx="1174" cy="1002" r="6" class="c0"/>
</svg>
