<?xml version="1.0" encoding="utf-8"?>
<svg xmlns="http://www.w3.org/2000/svg"
     xmlns:xlink="http://www.w3.org/1999/xlink" width="1920" height="1440" >

            <defs>
            <style type="text/css"><![CDATA[
circle {stroke: none;}
.c0 {fill: #000000;}
]]></style>
            </defs>
<rect x="0" y="0" width="1920" height="1440" fill="white"/>
<circle cx="1050" cy="648" r="12" class="c0"/>
<circle cx="1184" cy="936" r="12" class="c0"/>
<circle cx="968" cy="512" r="12" class="c0"/>
<circle cx="1348" cy="882" r="12" class="c0"/>
<circle cx="1328" cy="864" r="12" class="c0"/>
<circle cx="986" cy="458" r="12" class="c0"/>
<circle cx="1008" cy="484" r="12" class="c0"/>
<circle cx="1168" cy="604" r="12" class="c0"/>
<circle cx="968" cy="560" r="12" class="c0"/>
<circle cx="1232" cy="762" r="12" class="c0"/>
<circle cx="1154" cy="546" r="12" class="c0"/>
<circle cx="1130" cy="678" r="12" class="c0"/>
<circle cx="1092" cy="450" r="12" class="c0"/>
<circle cx="1196" cy="344" r="12" class="c0"/>
<circle cx="1234" cy="962" r="12" class="c0"/>
<circle cx="1048" cy="562" r="12" class="c0"/>
<circle cx="1294" cy="716" r="12" class="c0"/>
<circle cx="1448" cy="884" r="12" class="c0"/>
<circle cx="1098" cy="732" r="12" class="c0"/>
<circle cx="1022" cy="594" r="12" class="c0"/>
<circle cx="1202" cy="592" r="12" class="c0"/>
<circle cx="1124" cy="620" r="12" class="c0"/>
<circle cx="1278" cy="960" r="12" class="c0"/>
<circle cx="1350" cy="776" r="12" class="c0"/>
<circle cx="1236" cy="1040" r="12" class="c0"/>
<circle cx="1094" cy="690" r="12" class="c0"/>
<circle cx="1390" cy="1026" r="12" class="c0"/>
<circle cx="1224" cy="836" r="12" class="c0"/>
<circle cx="1108" cy="336" r="12" class="c0"/>
<circle cx="1176" cy="748" r="12" class="c0"/>
<circle cx="1146" cy="738" r="12" class="c0"/>
<circle cx="1424" cy="830" r="12" class="c0"/>
<circle cx="1220" cy="890" r="12" class="c0"/>
<circle cx="1200" cy="1002" r="12" class="c0"/>
<circle cx="1242" cy="996" r="12" class="c0"/>
<circle cx="1280" cy="1022" r="12" class="c0"/>
<circle cx="1228" cy="928" r="12" class="c0"/>
<circle cx="1328" cy="910" r="12" class="c0"/>
<circle cx="1172" cy="578" r="12" class="c0"/>
<circle cx="1066" cy="468" r="12" class="c0"/>
<circle cx="888" cy="472" r="12" class="c0"/>
<circle cx="1192" cy="558" r="12" class="c0"/>
<circle cx="1048" cy="402" r="12" class="c0"/>
<circle cx="1292" cy="804" r="12" class="c0"/>
<circle cx="1248" cy="638" r="10" class="c0"/>
<circle cx="1402" cy="818" r="10" class="c0"/>
<circle cx="1214" cy="1054" r="10" class="c0"/>
<circle cx="990" cy="434" r="10" class="c0"/>
<circle cx="1270" cy="936" r="10" class="c0"/>
<circle cx="1200" cy="670" r="10" class="c0"/>
<circle cx="1192" cy="466" r="10" class="c0"/>
<circle cx="920" cy="572" r="10" class="c0"/>
<circle cx="1006" cy="418" r="10" class="c0"/>
<circle cx="936" cy="522" r="10" class="c0"/>
<circle cx="1246" cy="662" r="10" class="c0"/>
<circle cx="1076" cy="570" r="10" class="c0"/>
<circle cx="1198" cy="804" r="10" class="c0"/>
<circle cx="1154" cy="520" r="10" class="c0"/>
<circle cx="888" cy="544" r="10" class="c0"/>
<circle cx="1168" cy="794" r="10" class="c0"/>
<circle cx="1240" cy="860" r="10" class="c0"/>
<circle cx="1142" cy="596" r="10" class="c0"/>
<circle cx="1212" cy="780" r="10" class="c0"/>
<circle cx="1226" cy="686" r="10" class="c0"/>
<circle cx="1234" cy="596" r="10" class="c0"/>
<circle cx="976" cy="410" r="10" class="c0"/>
<circle cx="1354" cy="996" r="10" class="c0"/>
<circle cx="1128" cy="452" r="10" class="c0"/>
<circle cx="1152" cy="482" r="10" class="c0"/>
<circle cx="854" cy="522" r="10" class="c0"/>
<circle cx="1004" cy="640" r="10" class="c0"/>
<circle cx="1050" cy="368" r="10" class="c0"/>
<circle cx="1106" cy="364" r="10" class="c0"/>
<circle cx="1384" cy="982" r="10" class="c0"/>
<circle cx="1188" cy="616" r="10" class="c0"/>
<circle cx="1174" cy="452" r="10" class="c0"/>
<circle cx="1080" cy="366" r="10" class="c0"/>
<circle cx="1348" cy="832" r="10" class="c0"/>
<circle cx="1146" cy="698" r="10" class="c0"/>
<circle cx="1028" cy="516" r="10" class="c0"/>
<circle cx="1188" cy="862" r="10" class="c0"/>
<circle cx="1376" cy="814" r="10" class="c0"/>
<circle cx="1172" cy="700" r="10" class="c0"/>
<circle cx="1196" cy="698" r="10" class="c0"/>
<circle cx="1122" cy="700" r="10" class="c0"/>
<circle cx="1148" cy="842" r="10" class="c0"/>
<circle cx="1212" cy="912" r="10" class="c0"/>
<circle cx="922" cy="506" r="10" class="c0"/>
<circle cx="1136" cy="794" r="10" class="c0"/>
<circle cx="1124" cy="546" r="10" class="c0"/>
<circle cx="1328" cy="820" r="10" class="c0"/>
<circle cx="1284" cy="848" r="10" class="c0"/>
<circle cx="1114" cy="524" r="10" class="c0"/>
<circle cx="1206" cy="718" r="10" class="c0"/>
<circle cx="1122" cy="486" r="10" class="c0"/>
<circle cx="950" cy="428" r="10" class="c0"/>
<circle cx="1274" cy="994" r="10" class="c0"/>
<circle cx="1216" cy="642" r="10" class="c0"/>
<circle cx="882" cy="504" r="10" class="c0"/>
<circle cx="1280" cy="886" r="10" class="c0"/>
<circle cx="932" cy="558" r="10" class="c0"/>
<circle cx="1334" cy="950" r="10" class="c0"/>
<circle cx="1122" cy="416" r="10" class="c0"/>
<circle cx="1166" cy="636" r="10" class="c0"/>
<circle cx="1190" cy="906" r="10" class="c0"/>
<circle cx="1264" cy="706" r="10" class="c0"/>
<circle cx="1068" cy="504" r="10" class="c0"/>
<circle cx="868" cy="484" r="10" class="c0"/>
<circle cx="1256" cy="890" r="10" class="c0"/>
<circle cx="1380" cy="858" r="10" class="c0"/>
<circle cx="1170" cy="504" r="10" class="c0"/>
<circle cx="1152" cy="348" r="10" class="c0"/>
<circle cx="1164" cy="902" r="10" class="c0"/>
<circle cx="1252" cy="742" r="10" class="c0"/>
<circle cx="898" cy="564" r="10" class="c0"/>
<circle cx="1132" cy="644" r="10" class="c0"/>
<circle cx="1058" cy="522" r="10" class="c0"/>
<circle cx="1346" cy="928" r="10" class="c0"/>
<circle cx="1212" cy="970" r="10" class="c0"/>
<circle cx="1016" cy="460" r="10" class="c0"/>
<circle cx="1422" cy="1072" r="10" class="c0"/>
<circle cx="1208" cy="448" r="10" class="c0"/>
<circle cx="1402" cy="860" r="10" class="c0"/>
<circle cx="1306" cy="974" r="10" class="c0"/>
<circle cx="1038" cy="620" r="10" class="c0"/>
<circle cx="978" cy="482" r="10" class="c0"/>
<circle cx="1140" cy="436" r="10" class="c0"/>
<circle cx="1188" cy="730" r="10" class="c0"/>
<circle cx="1086" cy="618" r="10" class="c0"/>
<circle cx="1206" cy="758" r="10" class="c0"/>
<circle cx="1338" cy="802" r="10" class="c0"/>
<circle cx="1092" cy="650" r="10" class="c0"/>
<circle cx="1390" cy="920" r="10" class="c0"/>
<circle cx="1156" cy="780" r="10" class="c0"/>
<circle cx="1178" cy="838" r="10" class="c0"/>
<circle cx="1142" cy="382" r="10" class="c0"/>
<circle cx="990" cy="602" r="10" class="c0"/>
<circle cx="1200" cy="498" r="10" class="c0"/>
<circle cx="1222" cy="734" r="10" class="c0"/>
<circle cx="1440" cy="848" r="8" class="c0"/>
<circle cx="1238" cy="710" r="8" class="c0"/>
<circle cx="1256" cy="952" r="8" class="c0"/>
<circle cx="1276" cy="672" r="8" class="c0"/>
<circle cx="950" cy="494" r="8" class="c0"/>
<circle cx="1226" cy="578" r="8" class="c0"/>
<circle cx="1150" cy="576" r="8" class="c0"/>
<circle cx="1154" cy="414" r="8" class="c0"/>
<circle cx="1302" cy="872" r="8" class="c0"/>
<circle cx="1190" cy="640" r="8" class="c0"/>
<circle cx="1220" cy="990" r="8" class="c0"/>
<circle cx="1238" cy="786" r="8" class="c0"/>
<circle cx="1314" cy="840" r="8" class="c0"/>
<circle cx="1290" cy="920" r="8" class="c0"/>
<circle cx="1080" cy="406" r="8" class="c0"/>
<circle cx="1272" cy="792" r="8" class="c0"/>
<circle cx="1392" cy="876" r="8" class="c0"/>
<circle cx="1286" cy="686" r="8" class="c0"/>
<circle cx="1194" cy="398" r="8" class="c0"/>
<circle cx="906" cy="520" r="8" class="c0"/>
<circle cx="1160" cy="976" r="8" class="c0"/>
<circle cx="1106" cy="664" r="8" class="c0"/>
<circle cx="1170" cy="960" r="8" class="c0"/>
<circle cx="1106" cy="474" r="8" class="c0"/>
<circle cx="1366" cy="788" r="8" class="c0"/>
<circle cx="1366" cy="904" r="8" class="c0"/>
<circle cx="1116" cy="440" r="8" class="c0"/>
<circle cx="1298" cy="904" r="8" class="c0"/>
<circle cx="1374" cy="946" r="8" class="c0"/>
<circle cx="1334" cy="744" r="8" class="c0"/>
<circle cx="1170" cy="372" r="8" class="c0"/>
<circle cx="852" cy="502" r="8" class="c0"/>
<circle cx="1032" cy="540" r="8" class="c0"/>
<circle cx="1172" cy="390" r="8" class="c0"/>
<circle cx="1314" cy="778" r="8" class="c0"/>
<circle cx="1122" cy="762" r="8" class="c0"/>
<circle cx="1044" cy="464" r="8" class="c0"/>
<circle cx="1210" cy="1022" r="8" class="c0"/>
<circle cx="966" cy="588" r="8" class="c0"/>
<circle cx="1030" cy="430" r="8" class="c0"/>
<circle cx="1022" cy="382" r="8" class="c0"/>
<circle cx="1024" cy="408" r="8" class="c0"/>
<circle cx="1300" cy="930" r="8" class="c0"/>
<circle cx="1368" cy="966" r="8" class="c0"/>
<circle cx="1158" cy="712" r="8" class="c0"/>
<circle cx="976" cy="536" r="8" class="c0"/>
<circle cx="1092" cy="490" r="8" class="c0"/>
<circle cx="1068" cy="392" r="8" class="c0"/>
<circle cx="1124" cy="394" r="8" class="c0"/>
<circle cx="1118" cy="580" r="8" class="c0"/>
<circle cx="1130" cy="822" r="8" class="c0"/>
<circle cx="1062" cy="428" r="8" class="c0"/>
<circle cx="1240" cy="822" r="8" class="c0"/>
<circle cx="1082" cy="674" r="8" class="c0"/>
<circle cx="1080" cy="530" r="8" class="c0"/>
<circle cx="1174" cy="874" r="8" class="c0"/>
<circle cx="1430" cy="918" r="8" class="c0"/>
<circle cx="1412" cy="884" r="8" class="c0"/>
<circle cx="1174" cy="528" r="8" class="c0"/>
<circle cx="908" cy="494" r="8" class="c0"/>
<circle cx="998" cy="548" r="8" class="c0"/>
<circle cx="1386" cy="832" r="8" class="c0"/>
<circle cx="1412" cy="924" r="8" class="c0"/>
<circle cx="1206" cy="626" r="8" class="c0"/>
<circle cx="1132" cy="564" r="8" class="c0"/>
<circle cx="1100" cy="398" r="8" class="c0"/>
<circle cx="1144" cy="628" r="8" class="c0"/>
<circle cx="1070" cy="700" r="8" class="c0"/>
<circle cx="958" cy="532" r="8" class="c0"/>
<circle cx="1350" cy="854" r="8" class="c0"/>
<circle cx="1264" cy="826" r="8" class="c0"/>
<circle cx="1226" cy="626" r="8" class="c0"/>
<circle cx="1250" cy="688" r="8" class="c0"/>
<circle cx="990" cy="564" r="8" class="c0"/>
<circle cx="1220" cy="706" r="8" class="c0"/>
<circle cx="1062" cy="664" r="8" class="c0"/>
<circle cx="1264" cy="758" r="8" class="c0"/>
<circle cx="1318" cy="722" r="8" class="c0"/>
<circle cx="1130" cy="722" r="8" class="c0"/>
<circle cx="1250" cy="976" r="8" class="c0"/>
<circle cx="996" cy="500" r="8" class="c0"/>
<circle cx="1376" cy="1000" r="8" class="c0"/>
<circle cx="1152" cy="656" r="8" class="c0"/>
<circle cx="1304" cy="764" r="8" class="c0"/>
<circle cx="840" cy="538" r="8" class="c0"/>
<circle cx="1426" cy="866" r="8" class="c0"/>
<circle cx="1220" cy="664" r="8" class="c0"/>
<circle cx="1184" cy="972" r="8" class="c0"/>
<circle cx="1106" cy="602" r="8" class="c0"/>
<circle cx="1002" cy="380" r="8" class="c0"/>
<circle cx="1068" cy="540" r="8" class="c0"/>
<circle cx="1088" cy="550" r="8" class="c0"/>
<circle cx="1194" cy="436" r="8" class="c0"/>
<circle cx="1058" cy="602" r="8" class="c0"/>
<circle cx="1320" cy="932" r="8" class="c0"/>
<circle cx="1406" cy="902" r="8" class="c0"/>
<circle cx="1284" cy="768" r="8" class="c0"/>
<circle cx="1054" cy="684" r="8" class="c0"/>
<circle cx="1164" cy="860" r="8" class="c0"/>
<circle cx="1464" cy="862" r="8" class="c0"/>
<circle cx="1370" cy="876" r="8" class="c0"/>
<circle cx="1126" cy="352" r="8" class="c0"/>
<circle cx="1260" cy="844" r="8" class="c0"/>
<circle cx="1160" cy="824" r="8" class="c0"/>
<circle cx="1154" cy="462" r="8" class="c0"/>
<circle cx="1018" cy="562" r="8" class="c0"/>
<circle cx="1174" cy="678" r="8" class="c0"/>
<circle cx="944" cy="588" r="8" class="c0"/>
<circle cx="1040" cy="482" r="8" class="c0"/>
<circle cx="1152" cy="914" r="8" class="c0"/>
<circle cx="1262" cy="806" r="8" class="c0"/>
<circle cx="1176" cy="656" r="8" class="c0"/>
<circle cx="1410" cy="1060" r="8" class="c0"/>
<circle cx="936" cy="472" r="8" class="c0"/>
<circle cx="1348" cy="972" r="8" class="c0"/>
<circle cx="1018" cy="440" r="8" class="c0"/>
<circle cx="1094" cy="584" r="8" class="c0"/>
<circle cx="1138" cy="504" r="8" class="c0"/>
<circle cx="1208" cy="950" r="8" class="c0"/>
<circle cx="1200" cy="850" r="8" class="c0"/>
<circle cx="1258" cy="868" r="8" class="c0"/>
<circle cx="1214" cy="554" r="8" class="c0"/>
<circle cx="1172" cy="430" r="8" class="c0"/>
<circle cx="1082" cy="338" r="8" class="c0"/>
<circle cx="1190" cy="826" r="8" class="c0"/>
<circle cx="1180" cy="774" r="8" class="c0"/>
<circle cx="1228" cy="1014" r="8" class="c0"/>
<circle cx="1162" cy="668" r="8" class="c0"/>
<circle cx="1432" cy="1092" r="8" class="c0"/>
<circle cx="1472" cy="878" r="8" class="c0"/>
<circle cx="1098" cy="420" r="8" class="c0"/>
<circle cx="1310" cy="952" r="8" class="c0"/>
<circle cx="1030" cy="638" r="8" class="c0"/>
<circle cx="1304" cy="824" r="8" class="c0"/>
<circle cx="1062" cy="328" r="8" class="c0"/>
<circle cx="1060" cy="584" r="8" class="c0"/>
<circle cx="1044" cy="444" r="8" class="c0"/>
<circle cx="1264" cy="910" r="8" class="c0"/>
<circle cx="1100" cy="536" r="8" class="c0"/>
<circle cx="862" cy="560" r="8" class="c0"/>
<circle cx="960" cy="468" r="8" class="c0"/>
<circle cx="1208" cy="822" r="8" class="c0"/>
<circle cx="1248" cy="918" r="8" class="c0"/>
<circle cx="1012" cy="396" r="8" class="c0"/>
<circle cx="1286" cy="744" r="8" class="c0"/>
<circle cx="1102" cy="564" r="8" class="c0"/>
<circle cx="1204" cy="386" r="8" class="c0"/>
<circle cx="1006" cy="516" r="8" class="c0"/>
<circle cx="1312" cy="894" r="8" class="c0"/>
<circle cx="1210" cy="520" r="8" class="c0"/>
<circle cx="1322" cy="990" r="8" class="c0"/>
<circle cx="1096" cy="510" r="8" class="c0"/>
<circle cx="1250" cy="1018" r="8" class="c0"/>
<circle cx="1264" cy="652" r="8" class="c0"/>
<circle cx="912" cy="460" r="8" class="c0"/>
<circle cx="954" cy="574" r="8" class="c0"/>
<circle cx="1112" cy="716" r="8" class="c0"/>
<circle cx="1074" cy="636" r="8" class="c0"/>
<circle cx="1230" cy="536" r="8" class="c0"/>
<circle cx="998" cy="620" r="8" class="c0"/>
<circle cx="1312" cy="740" r="8" class="c0"/>
<circle cx="1154" cy="944" r="8" class="c0"/>
<circle cx="1294" cy="782" r="8" class="c0"/>
<circle cx="1312" cy="704" r="8" class="c0"/>
<circle cx="830" cy="548" r="8" class="c0"/>
<circle cx="1200" cy="882" r="8" class="c0"/>
<circle cx="1144" cy="402" r="8" class="c0"/>
<circle cx="1174" cy="328" r="8" class="c0"/>
<circle cx="1190" cy="786" r="8" class="c0"/>
<circle cx="1290" cy="1040" r="8" class="c0"/>
<circle cx="1488" cy="888" r="8" class="c0"/>
<circle cx="1218" cy="864" r="8" class="c0"/>
<circle cx="1182" cy="490" r="8" class="c0"/>
<circle cx="1208" cy="478" r="8" class="c0"/>
<circle cx="1368" cy="844" r="8" class="c0"/>
<circle cx="1316" cy="798" r="8" class="c0"/>
<circle cx="1406" cy="1088" r="8" class="c0"/>
<circle cx="1082" cy="432" r="8" class="c0"/>
<circle cx="1030" cy="356" r="8" class="c0"/>
<circle cx="1234" cy="510" r="8" class="c0"/>
<circle cx="1152" cy="878" r="8" class="c0"/>
<circle cx="1458" cy="914" r="8" class="c0"/>
<circle cx="1058" cy="628" r="8" class="c0"/>
<circle cx="1244" cy="940" r="8" class="c0"/>
<circle cx="1240" cy="902" r="8" class="c0"/>
<circle cx="1272" cy="1050" r="8" class="c0"/>
<circle cx="1218" cy="606" r="8" class="c0"/>
<circle cx="1220" cy="812" r="8" class="c0"/>
<circle cx="1138" cy="470" r="8" class="c0"/>
<circle cx="870" cy="536" r="8" class="c0"/>
<circle cx="1000" cy="586" r="8" class="c0"/>
<circle cx="956" cy="450" r="8" class="c0"/>
<circle cx="1064" cy="352" r="8" class="c0"/>
<circle cx="1468" cy="900" r="8" class="c0"/>
<circle cx="1150" cy="322" r="8" class="c0"/>
<circle cx="1262" cy="622" r="8" class="c0"/>
<circle cx="1330" cy="768" r="8" class="c0"/>
<circle cx="1148" cy="812" r="8" class="c0"/>
<circle cx="1142" cy="864" r="8" class="c0"/>
<circle cx="1428" cy="1046" r="8" class="c0"/>
<circle cx="1088" cy="388" r="8" class="c0"/>
<circle cx="1172" cy="350" r="8" class="c0"/>
<circle cx="1086" cy="714" r="8" class="c0"/>
<circle cx="1248" cy="776" r="8" class="c0"/>
<circle cx="1406" cy="1040" r="8" class="c0"/>
<circle cx="1362" cy="1016" r="8" class="c0"/>
<circle cx="1034" cy="576" r="8" class="c0"/>
<circle cx="1326" cy="972" r="8" class="c0"/>
<circle cx="1294" cy="990" r="8" class="c0"/>
<circle cx="1110" cy="784" r="8" class="c0"/>
<circle cx="1244" cy="804" r="8" class="c0"/>
<circle cx="1042" cy="500" r="8" class="c0"/>
<circle cx="1224" cy="1070" r="8" class="c0"/>
<circle cx="1138" cy="534" r="8" class="c0"/>
<circle cx="1240" cy="616" r="8" class="c0"/>
<circle cx="1414" cy="848" r="8" class="c0"/>
<circle cx="1104" cy="628" r="8" class="c0"/>
<circle cx="1110" cy="752" r="8" class="c0"/>
<circle cx="1034" cy="668" r="8" class="c0"/>
<circle cx="1014" cy="534" r="8" class="c0"/>
<circle cx="994" cy="526" r="8" class="c0"/>
<circle cx="1012" cy="368" r="8" class="c0"/>
<circle cx="1252" cy="720" r="8" class="c0"/>
<circle cx="1260" cy="1006" r="8" class="c0"/>
<circle cx="1434" cy="900" r="8" class="c0"/>
<circle cx="922" cy="540" r="8" class="c0"/>
<circle cx="1270" cy="734" r="6" class="c0"/>
<circle cx="1132" cy="750" r="6" class="c0"/>
<circle cx="1190" cy="366" r="6" class="c0"/>
<circle cx="1206" cy="368" r="6" class="c0"/>
<circle cx="1194" cy="962" r="6" class="c0"/>
<circle cx="1060" cy="488" r="6" class="c0"/>
<circle cx="950" cy="552" r="6" class="c0"/>
<circle cx="1176" cy="548" r="6" class="c0"/>
<circle cx="1168" cy="924" r="6" class="c0"/>
<circle cx="1382" cy="1048" r="6" class="c0"/>
<circle cx="1302" cy="692" r="6" class="c0"/>
<circle cx="1120" cy="376" r="6" class="c0"/>
<circle cx="1168" cy="998" r="6" class="c0"/>
<circle cx="1396" cy="960" r="6" class="c0"/>
<circle cx="1148" cy="758" r="6" class="c0"/>
<circle cx="1106" cy="498" r="6" class="c0"/>
<circle cx="1402" cy="938" r="6" class="c0"/>
<circle cx="1378" cy="894" r="6" class="c0"/>
<circle cx="1354" cy="950" r="6" class="c0"/>
<circle cx="1034" cy="454" r="6" class="c0"/>
<circle cx="1204" cy="538" r="6" class="c0"/>
<circle cx="1194" cy="516" r="6" class="c0"/>
<circle cx="1452" cy="1056" r="6" class="c0"/>
<circle cx="1442" cy="864" r="6" class="c0"/>
<circle cx="1294" cy="950" r="6" class="c0"/>
<circle cx="1368" cy="928" r="6" class="c0"/>
<circle cx="1172" cy="408" r="6" class="c0"/>
<circle cx="1168" cy="470" r="6" class="c0"/>
<circle cx="1332" cy="784" r="6" class="c0"/>
<circle cx="1322" cy="884" r="6" class="c0"/>
<circle cx="1160" cy="442" r="6" class="c0"/>
<circle cx="994" cy="404" r="6" class="c0"/>
<circle cx="1080" cy="592" r="6" class="c0"/>
<circle cx="1118" cy="654" r="6" class="c0"/>
<circle cx="1052" cy="542" r="6" class="c0"/>
<circle cx="1122" cy="600" r="6" class="c0"/>
<circle cx="832" cy="524" r="6" class="c0"/>
<circle cx="1390" cy="1064" r="6" class="c0"/>
<circle cx="1166" cy="728" r="6" class="c0"/>
<circle cx="1018" cy="502" r="6" class="c0"/>
<circle cx="1320" cy="754" r="6" class="c0"/>
<circle cx="1358" cy="804" r="6" class="c0"/>
<circle cx="1190" cy="530" r="6" class="c0"/>
<circle cx="1044" cy="588" r="6" class="c0"/>
<circle cx="1156" cy="618" r="6" class="c0"/>
<circle cx="1018" cy="620" r="6" class="c0"/>
<circle cx="1394" cy="794" r="6" class="c0"/>
<circle cx="1190" cy="1018" r="6" class="c0"/>
<circle cx="924" cy="484" r="6" class="c0"/>
<circle cx="978" cy="578" r="6" class="c0"/>
<circle cx="854" cy="546" r="6" class="c0"/>
<circle cx="1076" cy="484" r="6" class="c0"/>
<circle cx="1306" cy="854" r="6" class="c0"/>
<circle cx="982" cy="390" r="6" class="c0"/>
<circle cx="1390" cy="900" r="6" class="c0"/>
<circle cx="1128" cy="838" r="6" class="c0"/>
<circle cx="962" cy="604" r="6" class="c0"/>
<circle cx="906" cy="546" r="6" class="c0"/>
<circle cx="1122" cy="736" r="6" class="c0"/>
<circle cx="1208" cy="414" r="6" class="c0"/>
<circle cx="886" cy="526" r="6" class="c0"/>
<circle cx="1288" cy="662" r="6" class="c0"/>
<circle cx="982" cy="618" r="6" class="c0"/>
<circle cx="1284" cy="980" r="6" class="c0"/>
<circle cx="1074" cy="604" r="6" class="c0"/>
<circle cx="1130" cy="324" r="6" class="c0"/>
<circle cx="1136" cy="770" r="6" class="c0"/>
<circle cx="1164" cy="764" r="6" class="c0"/>
<circle cx="1266" cy="776" r="6" class="c0"/>
<circle cx="1176" cy="988" r="6" class="c0"/>
<circle cx="1144" cy="364" r="6" class="c0"/>
<circle cx="1224" cy="796" r="6" class="c0"/>
<circle cx="970" cy="436" r="6" class="c0"/>
<circle cx="1094" cy="348" r="6" class="c0"/>
<circle cx="1060" cy="446" r="6" class="c0"/>
<circle cx="1308" cy="916" r="6" class="c0"/>
<circle cx="826" cy="510" r="6" class="c0"/>
<circle cx="1260" cy="1038" r="6" class="c0"/>
<circle cx="1238" cy="880" r="6" class="c0"/>
<circle cx="1128" cy="778" r="6" class="c0"/>
<circle cx="1180" cy="816" r="6" class="c0"/>
<circle cx="1184" cy="886" r="6" class="c0"/>
<circle cx="1286" cy="824" r="6" class="c0"/>
<circle cx="1420" cy="1102" r="6" class="c0"/>
<circle cx="940" cy="540" r="6" class="c0"/>
<circle cx="1256" cy="602" r="6" class="c0"/>
<circle cx="1086" cy="472" r="6" class="c0"/>
<circle cx="1010" cy="608" r="6" class="c0"/>
<circle cx="1186" cy="414" r="6" class="c0"/>
<circle cx="1348" cy="906" r="6" class="c0"/>
<circle cx="1002" cy="446" r="6" class="c0"/>
<circle cx="938" cy="448" r="6" class="c0"/>
<circle cx="910" cy="476" r="6" class="c0"/>
<circle cx="1382" cy="786" r="6" class="c0"/>
<circle cx="1102" cy="766" r="6" class="c0"/>
<circle cx="1308" cy="1014" r="6" class="c0"/>
<circle cx="1174" cy="720" r="6" class="c0"/>
<circle cx="1218" cy="490" r="6" class="c0"/>
<circle cx="1244" cy="842" r="6" class="c0"/>
<circle cx="1260" cy="674" r="6" class="c0"/>
<circle cx="880" cy="560" r="6" class="c0"/>
<circle cx="1044" cy="338" r="6" class="c0"/>
<circle cx="1138" cy="334" r="6" class="c0"/>
<circle cx="834" cy="490" r="6" class="c0"/>
<circle cx="1020" cy="650" r="6" class="c0"/>
<circle cx="1294" cy="1010" r="6" class="c0"/>
<circle cx="1208" cy="572" r="6" class="c0"/>
<circle cx="1186" cy="380" r="6" class="c0"/>
<circle cx="1274" cy="864" r="6" class="c0"/>
<circle cx="1198" cy="982" r="6" class="c0"/>
<circle cx="1274" cy="816" r="6" class="c0"/>
<circle cx="1282" cy="650" r="6" class="c0"/>
<circle cx="1402" cy="838" r="6" class="c0"/>
<circle cx="1122" cy="804" r="6" class="c0"/>
<circle cx="1320" cy="1006" r="6" class="c0"/>
<circle cx="1206" cy="932" r="6" class="c0"/>
<circle cx="1234" cy="648" r="6" class="c0"/>
<circle cx="1200" cy="650" r="6" class="c0"/>
<circle cx="1072" cy="684" r="6" class="c0"/>
<circle cx="1360" cy="864" r="6" class="c0"/>
<circle cx="1152" cy="960" r="6" class="c0"/>
<circle cx="954" cy="406" r="6" class="c0"/>
<circle cx="1090" cy="600" r="6" class="c0"/>
<circle cx="1110" cy="646" r="6" class="c0"/>
<circle cx="1218" cy="348" r="6" class="c0"/>
<circle cx="986" cy="372" r="6" class="c0"/>
<circle cx="1026" cy="492" r="6" class="c0"/>
<circle cx="1480" cy="864" r="6" class="c0"/>
<circle cx="1186" cy="712" r="6" class="c0"/>
<circle cx="1330" cy="838" r="6" class="c0"/>
<circle cx="1428" cy="882" r="6" class="c0"/>
<circle cx="1406" cy="952" r="6" class="c0"/>
<circle cx="1296" cy="674" r="6" class="c0"/>
<circle cx="1362" cy="756" r="6" class="c0"/>
<circle cx="1202" cy="1038" r="6" class="c0"/>
<circle cx="1040" cy="420" r="6" class="c0"/>
<circle cx="1336" cy="982" r="6" class="c0"/>
<circle cx="962" cy="394" r="6" class="c0"/>
<circle cx="1110" cy="458" r="6" class="c0"/>
<circle cx="1152" cy="678" r="6" class="c0"/>
<circle cx="1142" cy="900" r="6" class="c0"/>
<circle cx="1110" cy="386" r="6" class="c0"/>
<circle cx="1180" cy="1006" r="6" class="c0"/>
<circle cx="1068" cy="616" r="6" class="c0"/>
<circle cx="1072" cy="654" r="6" class="c0"/>
<circle cx="1128" cy="368" r="6" class="c0"/>
<circle cx="1366" cy="1042" r="6" class="c0"/>
<circle cx="1268" cy="686" r="6" class="c0"/>
<circle cx="872" cy="518" r="6" class="c0"/>
<circle cx="1028" cy="472" r="6" class="c0"/>
<circle cx="1202" cy="740" r="6" class="c0"/>
<circle cx="818" cy="534" r="6" class="c0"/>
<circle cx="1430" cy="1112" r="6" class="c0"/>
<circle cx="1422" cy="936" r="6" class="c0"/>
<circle cx="1270" cy="636" r="6" class="c0"/>
<circle cx="1064" cy="412" r="6" class="c0"/>
<circle cx="1156" cy="392" r="6" class="c0"/>
<circle cx="1032" cy="392" r="6" class="c0"/>
<circle cx="1198" cy="922" r="6" class="c0"/>
<circle cx="1366" cy="828" r="6" class="c0"/>
<circle cx="1120" cy="504" r="6" class="c0"/>
<circle cx="1442" cy="1066" r="6" class="c0"/>
<circle cx="1350" cy="814" r="6" class="c0"/>
<circle cx="1278" cy="726" r="6" class="c0"/>
<circle cx="1038" cy="380" r="6" class="c0"/>
<circle cx="1040" cy="602" r="6" class="c0"/>
<circle cx="1176" cy="916" r="6" class="c0"/>
<circle cx="934" cy="492" r="6" class="c0"/>
<circle cx="1254" cy="792" r="6" class="c0"/>
<circle cx="1448" cy="944" r="6" class="c0"/>
<circle cx="1280" cy="908" r="6" class="c0"/>
<circle cx="1330" cy="1018" r="6" class="c0"/>
<circle cx="1160" cy="688" r="6" class="c0"/>
<circle cx="1482" cy="908" r="6" class="c0"/>
<circle cx="1240" cy="730" r="6" class="c0"/>
<circle cx="1398" cy="1074" r="6" class="c0"/>
<circle cx="1066" cy="376" r="6" class="c0"/>
<circle cx="1228" cy="562" r="6" class="c0"/>
<circle cx="946" cy="460" r="6" class="c0"/>
<circle cx="1334" cy="1004" r="6" class="c0"/>
<circle cx="1078" cy="734" r="6" class="c0"/>
<circle cx="1448" cy="928" r="6" class="c0"/>
<circle cx="1294" cy="834" r="6" class="c0"/>
<circle cx="848" cy="484" r="6" class="c0"/>
<circle cx="940" cy="504" r="6" class="c0"/>
<circle cx="1396" cy="1052" r="6" class="c0"/>
<circle cx="1110" cy="680" r="6" class="c0"/>
<circle cx="924" cy="450" r="6" class="c0"/>
<circle cx="1306" cy="1000" r="6" class="c0"/>
<circle cx="1266" cy="978" r="6" class="c0"/>
<circle cx="926" cy="432" r="6" class="c0"/>
<circle cx="1356" cy="914" r="6" class="c0"/>
<circle cx="914" cy="554" r="6" class="c0"/>
<circle cx="974" cy="610" r="6" class="c0"/>
<circle cx="1370" cy="770" r="6" class="c0"/>
<circle cx="1392" cy="946" r="6" class="c0"/>
<circle cx="1008" cy="572" r="6" class="c0"/>
<circle cx="1120" cy="316" r="6" class="c0"/>
</svg>
