<?xml version="1.0" encoding="utf-8"?>
<svg xmlns="http://www.w3.org/2000/svg"
     xmlns:xlink="http://www.w3.org/1999/xlink" width="1920" height="1440" >

            <defs>
            <style type="text/css"><![CDATA[
circle {stroke: none;}
.c0 {fill: #000000;}
]]></style>
            </defs>
<rect x="0" y="0" width="1920" height="1440" fill="white"/>
<circle cx="1158" cy="716" r="14" class="c0"/>
<circle cx="986" cy="652" r="12" class="c0"/>
<circle cx="898" cy="556" r="12" class="c0"/>
<circle cx="852" cy="480" r="12" class="c0"/>
<circle cx="958" cy="478" r="12" class="c0"/>
<circle cx="942" cy="540" r="12" class="c0"/>
<circle cx="1236" cy="750" r="12" class="c0"/>
<circle cx="894" cy="520" r="12" class="c0"/>
<circle cx="968" cy="700" r="12" class="c0"/>
<circle cx="742" cy="622" r="12" class="c0"/>
<circle cx="1024" cy="552" r="12" class="c0"/>
<circle cx="924" cy="580" r="12" class="c0"/>
<circle cx="928" cy="656" r="12" class="c0"/>
<circle cx="1118" cy="656" r="12" class="c0"/>
<circle cx="1294" cy="820" r="12" class="c0"/>
<circle cx="868" cy="496" r="12" class="c0"/>
<circle cx="880" cy="362" r="12" class="c0"/>
<circle cx="898" cy="404" r="12" class="c0"/>
<circle cx="800" cy="444" r="12" class="c0"/>
<circle cx="1008" cy="624" r="12" class="c0"/>
<circle cx="1148" cy="842" r="12" class="c0"/>
<circle cx="914" cy="500" r="12" class="c0"/>
<circle cx="944" cy="632" r="12" class="c0"/>
<circle cx="1066" cy="600" r="12" class="c0"/>
<circle cx="1202" cy="680" r="12" class="c0"/>
<circle cx="786" cy="586" r="12" class="c0"/>
<circle cx="728" cy="658" r="12" class="c0"/>
<circle cx="1156" cy="746" r="12" class="c0"/>
<circle cx="938" cy="464" r="12" class="c0"/>
<circle cx="772" cy="480" r="12" class="c0"/>
<circle cx="710" cy="604" r="12" class="c0"/>
<circle cx="742" cy="684" r="12" class="c0"/>
<circle cx="1116" cy="628" r="12" class="c0"/>
<circle cx="1266" cy="748" r="12" class="c0"/>
<circle cx="1284" cy="618" r="12" class="c0"/>
<circle cx="862" cy="612" r="12" class="c0"/>
<circle cx="1148" cy="672" r="12" class="c0"/>
<circle cx="1288" cy="658" r="10" class="c0"/>
<circle cx="940" cy="434" r="10" class="c0"/>
<circle cx="680" cy="632" r="10" class="c0"/>
<circle cx="696" cy="654" r="10" class="c0"/>
<circle cx="700" cy="692" r="10" class="c0"/>
<circle cx="876" cy="630" r="10" class="c0"/>
<circle cx="832" cy="588" r="10" class="c0"/>
<circle cx="844" cy="378" r="10" class="c0"/>
<circle cx="1028" cy="640" r="10" class="c0"/>
<circle cx="1250" cy="668" r="10" class="c0"/>
<circle cx="792" cy="510" r="10" class="c0"/>
<circle cx="834" cy="450" r="10" class="c0"/>
<circle cx="1044" cy="678" r="10" class="c0"/>
<circle cx="1172" cy="608" r="10" class="c0"/>
<circle cx="1060" cy="646" r="10" class="c0"/>
<circle cx="818" cy="384" r="10" class="c0"/>
<circle cx="910" cy="442" r="10" class="c0"/>
<circle cx="1370" cy="792" r="10" class="c0"/>
<circle cx="1222" cy="654" r="10" class="c0"/>
<circle cx="1098" cy="716" r="10" class="c0"/>
<circle cx="1122" cy="748" r="10" class="c0"/>
<circle cx="1138" cy="776" r="10" class="c0"/>
<circle cx="1090" cy="598" r="10" class="c0"/>
<circle cx="986" cy="510" r="10" class="c0"/>
<circle cx="1004" cy="720" r="10" class="c0"/>
<circle cx="894" cy="640" r="10" class="c0"/>
<circle cx="1376" cy="702" r="10" class="c0"/>
<circle cx="1110" cy="556" r="10" class="c0"/>
<circle cx="844" cy="566" r="10" class="c0"/>
<circle cx="774" cy="664" r="10" class="c0"/>
<circle cx="904" cy="606" r="10" class="c0"/>
<circle cx="810" cy="598" r="10" class="c0"/>
<circle cx="1126" cy="710" r="10" class="c0"/>
<circle cx="1234" cy="846" r="10" class="c0"/>
<circle cx="1070" cy="752" r="10" class="c0"/>
<circle cx="1030" cy="604" r="10" class="c0"/>
<circle cx="1330" cy="666" r="10" class="c0"/>
<circle cx="1156" cy="640" r="10" class="c0"/>
<circle cx="1246" cy="712" r="10" class="c0"/>
<circle cx="1348" cy="760" r="10" class="c0"/>
<circle cx="1292" cy="866" r="10" class="c0"/>
<circle cx="708" cy="578" r="10" class="c0"/>
<circle cx="1132" cy="688" r="10" class="c0"/>
<circle cx="1262" cy="692" r="10" class="c0"/>
<circle cx="1026" cy="668" r="10" class="c0"/>
<circle cx="994" cy="480" r="10" class="c0"/>
<circle cx="1038" cy="712" r="10" class="c0"/>
<circle cx="1026" cy="522" r="10" class="c0"/>
<circle cx="1074" cy="776" r="10" class="c0"/>
<circle cx="1332" cy="742" r="10" class="c0"/>
<circle cx="1200" cy="614" r="10" class="c0"/>
<circle cx="1056" cy="692" r="10" class="c0"/>
<circle cx="838" cy="416" r="10" class="c0"/>
<circle cx="740" cy="560" r="10" class="c0"/>
<circle cx="1152" cy="596" r="10" class="c0"/>
<circle cx="1098" cy="544" r="10" class="c0"/>
<circle cx="966" cy="444" r="10" class="c0"/>
<circle cx="1294" cy="710" r="10" class="c0"/>
<circle cx="782" cy="460" r="10" class="c0"/>
<circle cx="1330" cy="820" r="10" class="c0"/>
<circle cx="866" cy="658" r="10" class="c0"/>
<circle cx="1396" cy="654" r="10" class="c0"/>
<circle cx="1276" cy="772" r="10" class="c0"/>
<circle cx="1266" cy="638" r="10" class="c0"/>
<circle cx="890" cy="586" r="10" class="c0"/>
<circle cx="1328" cy="630" r="10" class="c0"/>
<circle cx="874" cy="446" r="10" class="c0"/>
<circle cx="1198" cy="718" r="10" class="c0"/>
<circle cx="726" cy="590" r="10" class="c0"/>
<circle cx="1174" cy="772" r="10" class="c0"/>
<circle cx="974" cy="544" r="10" class="c0"/>
<circle cx="1448" cy="820" r="10" class="c0"/>
<circle cx="814" cy="656" r="10" class="c0"/>
<circle cx="766" cy="414" r="10" class="c0"/>
<circle cx="1190" cy="654" r="10" class="c0"/>
<circle cx="990" cy="590" r="10" class="c0"/>
<circle cx="1226" cy="870" r="10" class="c0"/>
<circle cx="1186" cy="750" r="10" class="c0"/>
<circle cx="1264" cy="896" r="10" class="c0"/>
<circle cx="888" cy="470" r="10" class="c0"/>
<circle cx="750" cy="516" r="10" class="c0"/>
<circle cx="1050" cy="624" r="10" class="c0"/>
<circle cx="1106" cy="802" r="10" class="c0"/>
<circle cx="1284" cy="684" r="10" class="c0"/>
<circle cx="1214" cy="802" r="10" class="c0"/>
<circle cx="1262" cy="932" r="10" class="c0"/>
<circle cx="1126" cy="594" r="10" class="c0"/>
<circle cx="1196" cy="870" r="10" class="c0"/>
<circle cx="992" cy="696" r="10" class="c0"/>
<circle cx="1482" cy="846" r="10" class="c0"/>
<circle cx="988" cy="568" r="10" class="c0"/>
<circle cx="1072" cy="706" r="10" class="c0"/>
<circle cx="782" cy="624" r="10" class="c0"/>
<circle cx="1384" cy="778" r="10" class="c0"/>
<circle cx="1164" cy="794" r="10" class="c0"/>
<circle cx="1320" cy="780" r="10" class="c0"/>
<circle cx="722" cy="540" r="10" class="c0"/>
<circle cx="1348" cy="712" r="10" class="c0"/>
<circle cx="1176" cy="678" r="10" class="c0"/>
<circle cx="960" cy="590" r="10" class="c0"/>
<circle cx="1298" cy="768" r="10" class="c0"/>
<circle cx="980" cy="680" r="10" class="c0"/>
<circle cx="852" cy="428" r="10" class="c0"/>
<circle cx="838" cy="634" r="10" class="c0"/>
<circle cx="856" cy="524" r="10" class="c0"/>
<circle cx="1214" cy="770" r="10" class="c0"/>
<circle cx="872" cy="400" r="10" class="c0"/>
<circle cx="752" cy="428" r="10" class="c0"/>
<circle cx="1146" cy="570" r="8" class="c0"/>
<circle cx="1340" cy="650" r="8" class="c0"/>
<circle cx="1314" cy="656" r="8" class="c0"/>
<circle cx="840" cy="608" r="8" class="c0"/>
<circle cx="804" cy="550" r="8" class="c0"/>
<circle cx="1058" cy="740" r="8" class="c0"/>
<circle cx="1308" cy="638" r="8" class="c0"/>
<circle cx="914" cy="632" r="8" class="c0"/>
<circle cx="1322" cy="720" r="8" class="c0"/>
<circle cx="1080" cy="536" r="8" class="c0"/>
<circle cx="974" cy="604" r="8" class="c0"/>
<circle cx="1014" cy="586" r="8" class="c0"/>
<circle cx="996" cy="530" r="8" class="c0"/>
<circle cx="746" cy="456" r="8" class="c0"/>
<circle cx="1070" cy="662" r="8" class="c0"/>
<circle cx="662" cy="692" r="8" class="c0"/>
<circle cx="1310" cy="614" r="8" class="c0"/>
<circle cx="1242" cy="806" r="8" class="c0"/>
<circle cx="700" cy="538" r="8" class="c0"/>
<circle cx="1110" cy="682" r="8" class="c0"/>
<circle cx="1164" cy="822" r="8" class="c0"/>
<circle cx="784" cy="646" r="8" class="c0"/>
<circle cx="1430" cy="802" r="8" class="c0"/>
<circle cx="818" cy="462" r="8" class="c0"/>
<circle cx="976" cy="622" r="8" class="c0"/>
<circle cx="1252" cy="876" r="8" class="c0"/>
<circle cx="1000" cy="548" r="8" class="c0"/>
<circle cx="1238" cy="634" r="8" class="c0"/>
<circle cx="1214" cy="850" r="8" class="c0"/>
<circle cx="866" cy="568" r="8" class="c0"/>
<circle cx="964" cy="660" r="8" class="c0"/>
<circle cx="1260" cy="606" r="8" class="c0"/>
<circle cx="846" cy="542" r="8" class="c0"/>
<circle cx="1260" cy="802" r="8" class="c0"/>
<circle cx="1050" cy="550" r="8" class="c0"/>
<circle cx="1406" cy="788" r="8" class="c0"/>
<circle cx="920" cy="396" r="8" class="c0"/>
<circle cx="762" cy="558" r="8" class="c0"/>
<circle cx="1108" cy="732" r="8" class="c0"/>
<circle cx="930" cy="514" r="8" class="c0"/>
<circle cx="1350" cy="626" r="8" class="c0"/>
<circle cx="780" cy="550" r="8" class="c0"/>
<circle cx="864" cy="588" r="8" class="c0"/>
<circle cx="944" cy="502" r="8" class="c0"/>
<circle cx="1234" cy="824" r="8" class="c0"/>
<circle cx="1032" cy="744" r="8" class="c0"/>
<circle cx="758" cy="608" r="8" class="c0"/>
<circle cx="1310" cy="680" r="8" class="c0"/>
<circle cx="1178" cy="852" r="8" class="c0"/>
<circle cx="1302" cy="728" r="8" class="c0"/>
<circle cx="1010" cy="742" r="8" class="c0"/>
<circle cx="824" cy="430" r="8" class="c0"/>
<circle cx="784" cy="402" r="8" class="c0"/>
<circle cx="1102" cy="582" r="8" class="c0"/>
<circle cx="1284" cy="730" r="8" class="c0"/>
<circle cx="1252" cy="762" r="8" class="c0"/>
<circle cx="814" cy="508" r="8" class="c0"/>
<circle cx="1088" cy="560" r="8" class="c0"/>
<circle cx="1358" cy="682" r="8" class="c0"/>
<circle cx="1272" cy="844" r="8" class="c0"/>
<circle cx="1228" cy="604" r="8" class="c0"/>
<circle cx="960" cy="526" r="8" class="c0"/>
<circle cx="984" cy="714" r="8" class="c0"/>
<circle cx="772" cy="524" r="8" class="c0"/>
<circle cx="1044" cy="762" r="8" class="c0"/>
<circle cx="906" cy="682" r="8" class="c0"/>
<circle cx="684" cy="682" r="8" class="c0"/>
<circle cx="1066" cy="558" r="8" class="c0"/>
<circle cx="1334" cy="856" r="8" class="c0"/>
<circle cx="1088" cy="626" r="8" class="c0"/>
<circle cx="816" cy="410" r="8" class="c0"/>
<circle cx="1042" cy="654" r="8" class="c0"/>
<circle cx="958" cy="612" r="8" class="c0"/>
<circle cx="1156" cy="862" r="8" class="c0"/>
<circle cx="1062" cy="522" r="8" class="c0"/>
<circle cx="722" cy="478" r="8" class="c0"/>
<circle cx="748" cy="646" r="8" class="c0"/>
<circle cx="1186" cy="784" r="8" class="c0"/>
<circle cx="1402" cy="674" r="8" class="c0"/>
<circle cx="1028" cy="692" r="8" class="c0"/>
<circle cx="818" cy="488" r="8" class="c0"/>
<circle cx="940" cy="564" r="8" class="c0"/>
<circle cx="1000" cy="674" r="8" class="c0"/>
<circle cx="1102" cy="772" r="8" class="c0"/>
<circle cx="1302" cy="748" r="8" class="c0"/>
<circle cx="1204" cy="830" r="8" class="c0"/>
<circle cx="1322" cy="866" r="8" class="c0"/>
<circle cx="1016" cy="506" r="8" class="c0"/>
<circle cx="688" cy="564" r="8" class="c0"/>
<circle cx="878" cy="534" r="8" class="c0"/>
<circle cx="1214" cy="696" r="8" class="c0"/>
<circle cx="1054" cy="774" r="8" class="c0"/>
<circle cx="1360" cy="832" r="8" class="c0"/>
<circle cx="708" cy="626" r="8" class="c0"/>
<circle cx="914" cy="464" r="8" class="c0"/>
<circle cx="1232" cy="778" r="8" class="c0"/>
<circle cx="1274" cy="874" r="8" class="c0"/>
<circle cx="1114" cy="606" r="8" class="c0"/>
<circle cx="758" cy="576" r="8" class="c0"/>
<circle cx="1068" cy="730" r="8" class="c0"/>
<circle cx="972" cy="494" r="8" class="c0"/>
<circle cx="1212" cy="888" r="8" class="c0"/>
<circle cx="742" cy="490" r="8" class="c0"/>
<circle cx="818" cy="622" r="8" class="c0"/>
<circle cx="808" cy="474" r="8" class="c0"/>
<circle cx="816" cy="562" r="8" class="c0"/>
<circle cx="1370" cy="662" r="8" class="c0"/>
<circle cx="1006" cy="516" r="8" class="c0"/>
<circle cx="1376" cy="728" r="8" class="c0"/>
<circle cx="1088" cy="762" r="8" class="c0"/>
<circle cx="852" cy="672" r="8" class="c0"/>
<circle cx="1270" cy="712" r="8" class="c0"/>
<circle cx="1326" cy="840" r="8" class="c0"/>
<circle cx="880" cy="602" r="8" class="c0"/>
<circle cx="920" cy="544" r="8" class="c0"/>
<circle cx="1366" cy="634" r="8" class="c0"/>
<circle cx="1348" cy="784" r="8" class="c0"/>
<circle cx="1084" cy="694" r="8" class="c0"/>
<circle cx="1134" cy="728" r="8" class="c0"/>
<circle cx="1034" cy="584" r="8" class="c0"/>
<circle cx="894" cy="662" r="8" class="c0"/>
<circle cx="948" cy="684" r="8" class="c0"/>
<circle cx="1178" cy="630" r="8" class="c0"/>
<circle cx="938" cy="594" r="8" class="c0"/>
<circle cx="714" cy="674" r="8" class="c0"/>
<circle cx="1088" cy="660" r="8" class="c0"/>
<circle cx="1088" cy="790" r="8" class="c0"/>
<circle cx="834" cy="532" r="8" class="c0"/>
<circle cx="800" cy="492" r="8" class="c0"/>
<circle cx="1392" cy="622" r="8" class="c0"/>
<circle cx="1414" cy="632" r="8" class="c0"/>
<circle cx="1078" cy="570" r="8" class="c0"/>
<circle cx="1356" cy="804" r="8" class="c0"/>
<circle cx="1052" cy="510" r="8" class="c0"/>
<circle cx="680" cy="610" r="8" class="c0"/>
<circle cx="1270" cy="826" r="8" class="c0"/>
<circle cx="1462" cy="842" r="8" class="c0"/>
<circle cx="1446" cy="788" r="8" class="c0"/>
<circle cx="834" cy="498" r="8" class="c0"/>
<circle cx="1138" cy="822" r="8" class="c0"/>
<circle cx="830" cy="476" r="8" class="c0"/>
<circle cx="1232" cy="724" r="8" class="c0"/>
<circle cx="720" cy="500" r="8" class="c0"/>
<circle cx="1086" cy="732" r="8" class="c0"/>
<circle cx="1218" cy="634" r="8" class="c0"/>
<circle cx="674" cy="702" r="8" class="c0"/>
<circle cx="958" cy="422" r="8" class="c0"/>
<circle cx="764" cy="632" r="8" class="c0"/>
<circle cx="1012" cy="568" r="8" class="c0"/>
<circle cx="798" cy="530" r="8" class="c0"/>
<circle cx="928" cy="418" r="8" class="c0"/>
<circle cx="1370" cy="616" r="8" class="c0"/>
<circle cx="990" cy="612" r="8" class="c0"/>
<circle cx="964" cy="564" r="8" class="c0"/>
<circle cx="1394" cy="808" r="8" class="c0"/>
<circle cx="1018" cy="758" r="8" class="c0"/>
<circle cx="990" cy="734" r="8" class="c0"/>
<circle cx="1230" cy="672" r="8" class="c0"/>
<circle cx="1184" cy="812" r="8" class="c0"/>
<circle cx="760" cy="500" r="8" class="c0"/>
<circle cx="774" cy="434" r="8" class="c0"/>
<circle cx="668" cy="646" r="8" class="c0"/>
<circle cx="1284" cy="904" r="8" class="c0"/>
<circle cx="1008" cy="650" r="8" class="c0"/>
<circle cx="876" cy="558" r="8" class="c0"/>
<circle cx="1236" cy="906" r="8" class="c0"/>
<circle cx="1124" cy="572" r="8" class="c0"/>
<circle cx="886" cy="386" r="8" class="c0"/>
<circle cx="1360" cy="602" r="8" class="c0"/>
<circle cx="932" cy="612" r="8" class="c0"/>
<circle cx="1262" cy="856" r="8" class="c0"/>
<circle cx="1182" cy="700" r="8" class="c0"/>
<circle cx="1290" cy="792" r="8" class="c0"/>
<circle cx="1438" cy="836" r="8" class="c0"/>
<circle cx="962" cy="508" r="8" class="c0"/>
<circle cx="884" cy="422" r="8" class="c0"/>
<circle cx="718" cy="562" r="8" class="c0"/>
<circle cx="850" cy="404" r="8" class="c0"/>
<circle cx="1382" cy="756" r="8" class="c0"/>
<circle cx="1336" cy="694" r="8" class="c0"/>
<circle cx="864" cy="462" r="8" class="c0"/>
<circle cx="1378" cy="678" r="8" class="c0"/>
<circle cx="1144" cy="620" r="8" class="c0"/>
<circle cx="1372" cy="766" r="8" class="c0"/>
<circle cx="1182" cy="582" r="8" class="c0"/>
<circle cx="1102" cy="642" r="8" class="c0"/>
<circle cx="1128" cy="806" r="8" class="c0"/>
<circle cx="798" cy="614" r="8" class="c0"/>
<circle cx="1366" cy="814" r="8" class="c0"/>
<circle cx="1208" cy="734" r="8" class="c0"/>
<circle cx="1016" cy="704" r="8" class="c0"/>
<circle cx="1136" cy="646" r="8" class="c0"/>
<circle cx="708" cy="512" r="8" class="c0"/>
<circle cx="748" cy="540" r="8" class="c0"/>
<circle cx="802" cy="400" r="8" class="c0"/>
<circle cx="1114" cy="784" r="8" class="c0"/>
<circle cx="1080" cy="676" r="8" class="c0"/>
<circle cx="1328" cy="606" r="8" class="c0"/>
<circle cx="1248" cy="786" r="8" class="c0"/>
<circle cx="902" cy="348" r="8" class="c0"/>
<circle cx="1416" cy="824" r="8" class="c0"/>
<circle cx="1184" cy="832" r="8" class="c0"/>
<circle cx="1352" cy="734" r="8" class="c0"/>
<circle cx="1310" cy="852" r="8" class="c0"/>
<circle cx="1272" cy="672" r="8" class="c0"/>
<circle cx="1242" cy="886" r="8" class="c0"/>
<circle cx="1224" cy="708" r="8" class="c0"/>
<circle cx="1034" cy="502" r="8" class="c0"/>
<circle cx="796" cy="378" r="8" class="c0"/>
<circle cx="1366" cy="744" r="8" class="c0"/>
<circle cx="942" cy="400" r="8" class="c0"/>
<circle cx="1056" cy="578" r="8" class="c0"/>
<circle cx="1308" cy="804" r="8" class="c0"/>
<circle cx="1148" cy="806" r="8" class="c0"/>
<circle cx="800" cy="570" r="8" class="c0"/>
<circle cx="666" cy="670" r="8" class="c0"/>
<circle cx="832" cy="366" r="8" class="c0"/>
<circle cx="768" cy="598" r="8" class="c0"/>
<circle cx="840" cy="654" r="8" class="c0"/>
<circle cx="1350" cy="664" r="8" class="c0"/>
<circle cx="688" cy="584" r="8" class="c0"/>
<circle cx="934" cy="488" r="8" class="c0"/>
<circle cx="1246" cy="616" r="8" class="c0"/>
<circle cx="1318" cy="758" r="8" class="c0"/>
<circle cx="980" cy="462" r="8" class="c0"/>
<circle cx="1168" cy="652" r="8" class="c0"/>
<circle cx="804" cy="636" r="8" class="c0"/>
<circle cx="864" cy="382" r="8" class="c0"/>
<circle cx="1240" cy="688" r="8" class="c0"/>
<circle cx="736" cy="528" r="8" class="c0"/>
<circle cx="830" cy="396" r="8" class="c0"/>
<circle cx="1292" cy="844" r="8" class="c0"/>
<circle cx="744" cy="598" r="6" class="c0"/>
<circle cx="1336" cy="772" r="6" class="c0"/>
<circle cx="1258" cy="730" r="6" class="c0"/>
<circle cx="1038" cy="538" r="6" class="c0"/>
<circle cx="1228" cy="622" r="6" class="c0"/>
<circle cx="742" cy="580" r="6" class="c0"/>
<circle cx="728" cy="462" r="6" class="c0"/>
<circle cx="1086" cy="644" r="6" class="c0"/>
<circle cx="1470" cy="824" r="6" class="c0"/>
<circle cx="1252" cy="820" r="6" class="c0"/>
<circle cx="648" cy="718" r="6" class="c0"/>
<circle cx="1168" cy="838" r="6" class="c0"/>
<circle cx="904" cy="536" r="6" class="c0"/>
<circle cx="912" cy="380" r="6" class="c0"/>
<circle cx="898" cy="490" r="6" class="c0"/>
<circle cx="1158" cy="690" r="6" class="c0"/>
<circle cx="1122" cy="768" r="6" class="c0"/>
<circle cx="1326" cy="704" r="6" class="c0"/>
<circle cx="1206" cy="586" r="6" class="c0"/>
<circle cx="1272" cy="914" r="6" class="c0"/>
<circle cx="896" cy="376" r="6" class="c0"/>
<circle cx="818" cy="538" r="6" class="c0"/>
<circle cx="798" cy="674" r="6" class="c0"/>
<circle cx="694" cy="618" r="6" class="c0"/>
<circle cx="968" cy="636" r="6" class="c0"/>
<circle cx="1214" cy="596" r="6" class="c0"/>
<circle cx="680" cy="662" r="6" class="c0"/>
<circle cx="918" cy="480" r="6" class="c0"/>
<circle cx="852" cy="354" r="6" class="c0"/>
<circle cx="888" cy="618" r="6" class="c0"/>
<circle cx="1132" cy="550" r="6" class="c0"/>
<circle cx="1104" cy="756" r="6" class="c0"/>
<circle cx="1096" cy="742" r="6" class="c0"/>
<circle cx="1330" cy="800" r="6" class="c0"/>
<circle cx="794" cy="414" r="6" class="c0"/>
<circle cx="750" cy="474" r="6" class="c0"/>
<circle cx="1378" cy="644" r="6" class="c0"/>
<circle cx="974" cy="578" r="6" class="c0"/>
<circle cx="1178" cy="872" r="6" class="c0"/>
<circle cx="1302" cy="694" r="6" class="c0"/>
<circle cx="770" cy="540" r="6" class="c0"/>
<circle cx="856" cy="636" r="6" class="c0"/>
<circle cx="1200" cy="760" r="6" class="c0"/>
<circle cx="976" cy="524" r="6" class="c0"/>
<circle cx="1282" cy="806" r="6" class="c0"/>
<circle cx="950" cy="652" r="6" class="c0"/>
<circle cx="1176" cy="734" r="6" class="c0"/>
<circle cx="794" cy="660" r="6" class="c0"/>
<circle cx="1348" cy="844" r="6" class="c0"/>
<circle cx="1078" cy="616" r="6" class="c0"/>
<circle cx="1196" cy="844" r="6" class="c0"/>
<circle cx="1212" cy="750" r="6" class="c0"/>
<circle cx="1356" cy="646" r="6" class="c0"/>
<circle cx="852" cy="452" r="6" class="c0"/>
<circle cx="922" cy="678" r="6" class="c0"/>
<circle cx="1456" cy="802" r="6" class="c0"/>
<circle cx="1044" cy="594" r="6" class="c0"/>
<circle cx="830" cy="514" r="6" class="c0"/>
<circle cx="850" cy="598" r="6" class="c0"/>
<circle cx="1024" cy="492" r="6" class="c0"/>
<circle cx="782" cy="566" r="6" class="c0"/>
<circle cx="1248" cy="644" r="6" class="c0"/>
<circle cx="868" cy="420" r="6" class="c0"/>
<circle cx="1012" cy="686" r="6" class="c0"/>
<circle cx="1198" cy="634" r="6" class="c0"/>
<circle cx="1020" cy="730" r="6" class="c0"/>
<circle cx="1052" cy="532" r="6" class="c0"/>
<circle cx="678" cy="594" r="6" class="c0"/>
<circle cx="1298" cy="600" r="6" class="c0"/>
<circle cx="1204" cy="788" r="6" class="c0"/>
<circle cx="1396" cy="712" r="6" class="c0"/>
<circle cx="1166" cy="576" r="6" class="c0"/>
<circle cx="1286" cy="888" r="6" class="c0"/>
<circle cx="724" cy="692" r="6" class="c0"/>
<circle cx="914" cy="668" r="6" class="c0"/>
<circle cx="1042" cy="570" r="6" class="c0"/>
<circle cx="1192" cy="768" r="6" class="c0"/>
<circle cx="1048" cy="726" r="6" class="c0"/>
<circle cx="906" cy="424" r="6" class="c0"/>
<circle cx="1072" cy="630" r="6" class="c0"/>
<circle cx="1220" cy="832" r="6" class="c0"/>
<circle cx="922" cy="528" r="6" class="c0"/>
<circle cx="1012" cy="484" r="6" class="c0"/>
<circle cx="850" cy="506" r="6" class="c0"/>
<circle cx="866" cy="548" r="6" class="c0"/>
<circle cx="1392" cy="738" r="6" class="c0"/>
<circle cx="1128" cy="614" r="6" class="c0"/>
<circle cx="1008" cy="602" r="6" class="c0"/>
<circle cx="1254" cy="834" r="6" class="c0"/>
<circle cx="858" cy="366" r="6" class="c0"/>
<circle cx="814" cy="366" r="6" class="c0"/>
<circle cx="786" cy="424" r="6" class="c0"/>
<circle cx="906" cy="366" r="6" class="c0"/>
<circle cx="754" cy="666" r="6" class="c0"/>
<circle cx="1006" cy="496" r="6" class="c0"/>
<circle cx="1060" cy="540" r="6" class="c0"/>
<circle cx="1188" cy="598" r="6" class="c0"/>
<circle cx="938" cy="672" r="6" class="c0"/>
<circle cx="726" cy="636" r="6" class="c0"/>
<circle cx="830" cy="548" r="6" class="c0"/>
<circle cx="888" cy="500" r="6" class="c0"/>
<circle cx="1338" cy="616" r="6" class="c0"/>
<circle cx="1014" cy="534" r="6" class="c0"/>
<circle cx="1300" cy="670" r="6" class="c0"/>
<circle cx="960" cy="644" r="6" class="c0"/>
<circle cx="874" cy="516" r="6" class="c0"/>
<circle cx="762" cy="446" r="6" class="c0"/>
<circle cx="1196" cy="796" r="6" class="c0"/>
<circle cx="728" cy="572" r="6" class="c0"/>
<circle cx="722" cy="618" r="6" class="c0"/>
<circle cx="1350" cy="858" r="6" class="c0"/>
<circle cx="1106" cy="700" r="6" class="c0"/>
<circle cx="884" cy="672" r="6" class="c0"/>
<circle cx="1318" cy="696" r="6" class="c0"/>
<circle cx="922" cy="602" r="6" class="c0"/>
<circle cx="730" cy="608" r="6" class="c0"/>
<circle cx="658" cy="710" r="6" class="c0"/>
<circle cx="698" cy="672" r="6" class="c0"/>
<circle cx="1256" cy="912" r="6" class="c0"/>
<circle cx="1286" cy="752" r="6" class="c0"/>
<circle cx="1270" cy="792" r="6" class="c0"/>
<circle cx="1056" cy="716" r="6" class="c0"/>
<circle cx="1142" cy="702" r="6" class="c0"/>
<circle cx="1100" cy="614" r="6" class="c0"/>
<circle cx="778" cy="500" r="6" class="c0"/>
<circle cx="690" cy="600" r="6" class="c0"/>
<circle cx="1308" cy="834" r="6" class="c0"/>
<circle cx="808" cy="424" r="6" class="c0"/>
<circle cx="828" cy="666" r="6" class="c0"/>
<circle cx="1138" cy="796" r="6" class="c0"/>
<circle cx="1350" cy="820" r="6" class="c0"/>
<circle cx="934" cy="692" r="6" class="c0"/>
<circle cx="1032" cy="622" r="6" class="c0"/>
<circle cx="1394" cy="696" r="6" class="c0"/>
<circle cx="994" cy="454" r="6" class="c0"/>
<circle cx="1136" cy="758" r="6" class="c0"/>
<circle cx="732" cy="512" r="6" class="c0"/>
<circle cx="924" cy="452" r="6" class="c0"/>
<circle cx="896" cy="454" r="6" class="c0"/>
<circle cx="1312" cy="708" r="6" class="c0"/>
<circle cx="782" cy="534" r="6" class="c0"/>
<circle cx="772" cy="392" r="6" class="c0"/>
<circle cx="866" cy="346" r="6" class="c0"/>
<circle cx="1098" cy="670" r="6" class="c0"/>
<circle cx="1238" cy="590" r="6" class="c0"/>
<circle cx="1054" cy="664" r="6" class="c0"/>
<circle cx="1156" cy="778" r="6" class="c0"/>
<circle cx="1362" cy="848" r="6" class="c0"/>
<circle cx="894" cy="434" r="6" class="c0"/>
<circle cx="1246" cy="860" r="6" class="c0"/>
<circle cx="1306" cy="876" r="6" class="c0"/>
<circle cx="1288" cy="638" r="6" class="c0"/>
<circle cx="988" cy="632" r="6" class="c0"/>
<circle cx="946" cy="518" r="6" class="c0"/>
<circle cx="1314" cy="738" r="6" class="c0"/>
<circle cx="714" cy="646" r="6" class="c0"/>
<circle cx="1220" cy="902" r="6" class="c0"/>
<circle cx="1120" cy="542" r="6" class="c0"/>
<circle cx="1180" cy="720" r="6" class="c0"/>
<circle cx="764" cy="680" r="6" class="c0"/>
<circle cx="812" cy="580" r="6" class="c0"/>
<circle cx="1206" cy="644" r="6" class="c0"/>
<circle cx="762" cy="462" r="6" class="c0"/>
<circle cx="1418" cy="654" r="6" class="c0"/>
<circle cx="950" cy="576" r="6" class="c0"/>
<circle cx="1250" cy="738" r="6" class="c0"/>
<circle cx="1268" cy="656" r="6" class="c0"/>
<circle cx="1252" cy="592" r="6" class="c0"/>
<circle cx="836" cy="348" r="6" class="c0"/>
<circle cx="962" cy="676" r="6" class="c0"/>
<circle cx="698" cy="554" r="6" class="c0"/>
<circle cx="1326" cy="684" r="6" class="c0"/>
<circle cx="1240" cy="652" r="6" class="c0"/>
<circle cx="922" cy="358" r="6" class="c0"/>
<circle cx="1232" cy="796" r="6" class="c0"/>
<circle cx="1200" cy="814" r="6" class="c0"/>
<circle cx="890" cy="338" r="6" class="c0"/>
<circle cx="784" cy="606" r="6" class="c0"/>
<circle cx="922" cy="560" r="6" class="c0"/>
<circle cx="1044" cy="524" r="6" class="c0"/>
<circle cx="792" cy="478" r="6" class="c0"/>
<circle cx="1410" cy="806" r="6" class="c0"/>
<circle cx="1188" cy="886" r="6" class="c0"/>
<circle cx="1366" cy="716" r="6" class="c0"/>
<circle cx="922" cy="336" r="6" class="c0"/>
<circle cx="908" cy="652" r="6" class="c0"/>
<circle cx="722" cy="520" r="6" class="c0"/>
<circle cx="984" cy="446" r="6" class="c0"/>
<circle cx="1162" cy="622" r="6" class="c0"/>
<circle cx="710" cy="528" r="6" class="c0"/>
<circle cx="816" cy="524" r="6" class="c0"/>
<circle cx="764" cy="650" r="6" class="c0"/>
<circle cx="904" cy="478" r="6" class="c0"/>
<circle cx="1470" cy="808" r="6" class="c0"/>
</svg>
