<?xml version="1.0" encoding="utf-8"?>
<svg xmlns="http://www.w3.org/2000/svg"
     xmlns:xlink="http://www.w3.org/1999/xlink" width="1920" height="1440" >

            <defs>
            <style type="text/css"><![CDATA[
circle {stroke: none;}
.c0 {fill: #000000;}
]]></style>
            </defs>
<rect x="0" y="0" width="1920" height="1440" fill="white"/>
<circle cx="924" cy="570" r="14" class="c0"/>
<circle cx="598" cy="710" r="12" class="c0"/>
<circle cx="804" cy="600" r="12" class="c0"/>
<circle cx="802" cy="526" r="12" class="c0"/>
<circle cx="692" cy="796" r="12" class="c0"/>
<circle cx="868" cy="590" r="12" class="c0"/>
<circle cx="822" cy="678" r="12" class="c0"/>
<circle cx="914" cy="520" r="12" class="c0"/>
<circle cx="642" cy="852" r="12" class="c0"/>
<circle cx="1034" cy="556" r="12" class="c0"/>
<circle cx="802" cy="666" r="12" class="c0"/>
<circle cx="782" cy="546" r="12" class="c0"/>
<circle cx="606" cy="760" r="12" class="c0"/>
<circle cx="798" cy="626" r="12" class="c0"/>
<circle cx="826" cy="630" r="12" class="c0"/>
<circle cx="912" cy="614" r="12" class="c0"/>
<circle cx="896" cy="596" r="12" class="c0"/>
<circle cx="762" cy="562" r="12" class="c0"/>
<circle cx="768" cy="660" r="12" class="c0"/>
<circle cx="842" cy="576" r="12" class="c0"/>
<circle cx="578" cy="842" r="12" class="c0"/>
<circle cx="1058" cy="630" r="10" class="c0"/>
<circle cx="966" cy="486" r="10" class="c0"/>
<circle cx="1082" cy="552" r="10" class="c0"/>
<circle cx="560" cy="884" r="10" class="c0"/>
<circle cx="666" cy="688" r="10" class="c0"/>
<circle cx="814" cy="578" r="10" class="c0"/>
<circle cx="650" cy="786" r="10" class="c0"/>
<circle cx="1130" cy="550" r="10" class="c0"/>
<circle cx="940" cy="654" r="10" class="c0"/>
<circle cx="908" cy="458" r="10" class="c0"/>
<circle cx="708" cy="754" r="10" class="c0"/>
<circle cx="954" cy="472" r="10" class="c0"/>
<circle cx="866" cy="640" r="10" class="c0"/>
<circle cx="744" cy="704" r="10" class="c0"/>
<circle cx="1068" cy="566" r="10" class="c0"/>
<circle cx="762" cy="598" r="10" class="c0"/>
<circle cx="678" cy="634" r="10" class="c0"/>
<circle cx="696" cy="702" r="10" class="c0"/>
<circle cx="730" cy="686" r="10" class="c0"/>
<circle cx="600" cy="994" r="10" class="c0"/>
<circle cx="536" cy="798" r="10" class="c0"/>
<circle cx="942" cy="496" r="10" class="c0"/>
<circle cx="690" cy="670" r="10" class="c0"/>
<circle cx="556" cy="860" r="10" class="c0"/>
<circle cx="1122" cy="622" r="10" class="c0"/>
<circle cx="990" cy="644" r="10" class="c0"/>
<circle cx="906" cy="492" r="10" class="c0"/>
<circle cx="1058" cy="498" r="10" class="c0"/>
<circle cx="642" cy="692" r="10" class="c0"/>
<circle cx="592" cy="900" r="10" class="c0"/>
<circle cx="714" cy="572" r="10" class="c0"/>
<circle cx="762" cy="690" r="10" class="c0"/>
<circle cx="604" cy="852" r="10" class="c0"/>
<circle cx="1064" cy="524" r="10" class="c0"/>
<circle cx="1016" cy="568" r="10" class="c0"/>
<circle cx="622" cy="640" r="10" class="c0"/>
<circle cx="564" cy="806" r="10" class="c0"/>
<circle cx="1006" cy="496" r="10" class="c0"/>
<circle cx="984" cy="514" r="10" class="c0"/>
<circle cx="678" cy="836" r="10" class="c0"/>
<circle cx="926" cy="634" r="10" class="c0"/>
<circle cx="742" cy="734" r="10" class="c0"/>
<circle cx="668" cy="816" r="10" class="c0"/>
<circle cx="1026" cy="532" r="10" class="c0"/>
<circle cx="730" cy="650" r="10" class="c0"/>
<circle cx="1084" cy="506" r="10" class="c0"/>
<circle cx="694" cy="892" r="10" class="c0"/>
<circle cx="606" cy="658" r="10" class="c0"/>
<circle cx="872" cy="530" r="10" class="c0"/>
<circle cx="1150" cy="606" r="10" class="c0"/>
<circle cx="760" cy="718" r="10" class="c0"/>
<circle cx="586" cy="792" r="10" class="c0"/>
<circle cx="632" cy="900" r="10" class="c0"/>
<circle cx="560" cy="766" r="10" class="c0"/>
<circle cx="1016" cy="624" r="10" class="c0"/>
<circle cx="740" cy="758" r="10" class="c0"/>
<circle cx="798" cy="496" r="10" class="c0"/>
<circle cx="622" cy="704" r="10" class="c0"/>
<circle cx="632" cy="964" r="10" class="c0"/>
<circle cx="1002" cy="612" r="10" class="c0"/>
<circle cx="562" cy="744" r="8" class="c0"/>
<circle cx="760" cy="638" r="8" class="c0"/>
<circle cx="828" cy="546" r="8" class="c0"/>
<circle cx="836" cy="514" r="8" class="c0"/>
<circle cx="978" cy="582" r="8" class="c0"/>
<circle cx="734" cy="582" r="8" class="c0"/>
<circle cx="956" cy="522" r="8" class="c0"/>
<circle cx="662" cy="646" r="8" class="c0"/>
<circle cx="686" cy="856" r="8" class="c0"/>
<circle cx="742" cy="624" r="8" class="c0"/>
<circle cx="1018" cy="512" r="8" class="c0"/>
<circle cx="548" cy="914" r="8" class="c0"/>
<circle cx="640" cy="828" r="8" class="c0"/>
<circle cx="730" cy="716" r="8" class="c0"/>
<circle cx="702" cy="778" r="8" class="c0"/>
<circle cx="610" cy="788" r="8" class="c0"/>
<circle cx="672" cy="600" r="8" class="c0"/>
<circle cx="810" cy="548" r="8" class="c0"/>
<circle cx="970" cy="642" r="8" class="c0"/>
<circle cx="618" cy="732" r="8" class="c0"/>
<circle cx="666" cy="760" r="8" class="c0"/>
<circle cx="664" cy="938" r="8" class="c0"/>
<circle cx="516" cy="914" r="8" class="c0"/>
<circle cx="782" cy="592" r="8" class="c0"/>
<circle cx="950" cy="606" r="8" class="c0"/>
<circle cx="880" cy="508" r="8" class="c0"/>
<circle cx="826" cy="606" r="8" class="c0"/>
<circle cx="908" cy="556" r="8" class="c0"/>
<circle cx="1076" cy="654" r="8" class="c0"/>
<circle cx="1138" cy="568" r="8" class="c0"/>
<circle cx="1148" cy="526" r="8" class="c0"/>
<circle cx="1136" cy="592" r="8" class="c0"/>
<circle cx="622" cy="806" r="8" class="c0"/>
<circle cx="944" cy="548" r="8" class="c0"/>
<circle cx="1130" cy="514" r="8" class="c0"/>
<circle cx="1090" cy="618" r="8" class="c0"/>
<circle cx="622" cy="676" r="8" class="c0"/>
<circle cx="530" cy="886" r="8" class="c0"/>
<circle cx="1038" cy="506" r="8" class="c0"/>
<circle cx="638" cy="742" r="8" class="c0"/>
<circle cx="744" cy="548" r="8" class="c0"/>
<circle cx="964" cy="554" r="8" class="c0"/>
<circle cx="716" cy="706" r="8" class="c0"/>
<circle cx="586" cy="752" r="8" class="c0"/>
<circle cx="718" cy="734" r="8" class="c0"/>
<circle cx="1118" cy="590" r="8" class="c0"/>
<circle cx="676" cy="726" r="8" class="c0"/>
<circle cx="1030" cy="598" r="8" class="c0"/>
<circle cx="596" cy="830" r="8" class="c0"/>
<circle cx="576" cy="726" r="8" class="c0"/>
<circle cx="600" cy="686" r="8" class="c0"/>
<circle cx="1152" cy="584" r="8" class="c0"/>
<circle cx="1106" cy="532" r="8" class="c0"/>
<circle cx="1000" cy="534" r="8" class="c0"/>
<circle cx="668" cy="906" r="8" class="c0"/>
<circle cx="1004" cy="476" r="8" class="c0"/>
<circle cx="888" cy="456" r="8" class="c0"/>
<circle cx="582" cy="696" r="8" class="c0"/>
<circle cx="580" cy="998" r="8" class="c0"/>
<circle cx="1110" cy="610" r="8" class="c0"/>
<circle cx="580" cy="874" r="8" class="c0"/>
<circle cx="1052" cy="542" r="8" class="c0"/>
<circle cx="934" cy="478" r="8" class="c0"/>
<circle cx="980" cy="608" r="8" class="c0"/>
<circle cx="994" cy="570" r="8" class="c0"/>
<circle cx="644" cy="810" r="8" class="c0"/>
<circle cx="980" cy="536" r="8" class="c0"/>
<circle cx="890" cy="644" r="8" class="c0"/>
<circle cx="954" cy="586" r="8" class="c0"/>
<circle cx="714" cy="626" r="8" class="c0"/>
<circle cx="650" cy="634" r="8" class="c0"/>
<circle cx="556" cy="836" r="8" class="c0"/>
<circle cx="666" cy="866" r="8" class="c0"/>
<circle cx="1038" cy="644" r="8" class="c0"/>
<circle cx="692" cy="734" r="8" class="c0"/>
<circle cx="726" cy="608" r="8" class="c0"/>
<circle cx="612" cy="972" r="8" class="c0"/>
<circle cx="782" cy="612" r="8" class="c0"/>
<circle cx="848" cy="660" r="8" class="c0"/>
<circle cx="692" cy="822" r="8" class="c0"/>
<circle cx="1104" cy="648" r="8" class="c0"/>
<circle cx="706" cy="650" r="8" class="c0"/>
<circle cx="706" cy="724" r="8" class="c0"/>
<circle cx="1166" cy="558" r="8" class="c0"/>
<circle cx="928" cy="534" r="8" class="c0"/>
<circle cx="494" cy="930" r="8" class="c0"/>
<circle cx="1174" cy="598" r="8" class="c0"/>
<circle cx="616" cy="864" r="8" class="c0"/>
<circle cx="654" cy="612" r="8" class="c0"/>
<circle cx="696" cy="598" r="8" class="c0"/>
<circle cx="1062" cy="598" r="8" class="c0"/>
<circle cx="774" cy="494" r="8" class="c0"/>
<circle cx="852" cy="614" r="8" class="c0"/>
<circle cx="648" cy="662" r="8" class="c0"/>
<circle cx="662" cy="884" r="8" class="c0"/>
<circle cx="898" cy="574" r="8" class="c0"/>
<circle cx="1156" cy="546" r="8" class="c0"/>
<circle cx="658" cy="708" r="8" class="c0"/>
<circle cx="970" cy="598" r="8" class="c0"/>
<circle cx="1042" cy="484" r="8" class="c0"/>
<circle cx="822" cy="502" r="8" class="c0"/>
<circle cx="948" cy="636" r="8" class="c0"/>
<circle cx="604" cy="884" r="8" class="c0"/>
<circle cx="698" cy="866" r="8" class="c0"/>
<circle cx="548" cy="820" r="8" class="c0"/>
<circle cx="1102" cy="570" r="8" class="c0"/>
<circle cx="758" cy="536" r="8" class="c0"/>
<circle cx="660" cy="738" r="8" class="c0"/>
<circle cx="930" cy="600" r="8" class="c0"/>
<circle cx="870" cy="552" r="8" class="c0"/>
<circle cx="714" cy="798" r="8" class="c0"/>
<circle cx="1004" cy="592" r="8" class="c0"/>
<circle cx="632" cy="876" r="8" class="c0"/>
<circle cx="750" cy="494" r="8" class="c0"/>
<circle cx="796" cy="562" r="8" class="c0"/>
<circle cx="582" cy="814" r="8" class="c0"/>
<circle cx="684" cy="766" r="8" class="c0"/>
<circle cx="718" cy="670" r="8" class="c0"/>
<circle cx="604" cy="808" r="8" class="c0"/>
<circle cx="1046" cy="584" r="8" class="c0"/>
<circle cx="622" cy="840" r="8" class="c0"/>
<circle cx="886" cy="614" r="8" class="c0"/>
<circle cx="634" cy="774" r="8" class="c0"/>
<circle cx="652" cy="920" r="8" class="c0"/>
<circle cx="596" cy="738" r="8" class="c0"/>
<circle cx="686" cy="588" r="8" class="c0"/>
<circle cx="1100" cy="588" r="8" class="c0"/>
<circle cx="602" cy="1016" r="8" class="c0"/>
<circle cx="752" cy="674" r="8" class="c0"/>
<circle cx="732" cy="562" r="8" class="c0"/>
<circle cx="892" cy="534" r="8" class="c0"/>
<circle cx="910" cy="648" r="8" class="c0"/>
<circle cx="782" cy="646" r="8" class="c0"/>
<circle cx="692" cy="618" r="8" class="c0"/>
<circle cx="674" cy="786" r="8" class="c0"/>
<circle cx="778" cy="710" r="8" class="c0"/>
<circle cx="640" cy="938" r="8" class="c0"/>
<circle cx="554" cy="786" r="8" class="c0"/>
<circle cx="936" cy="516" r="8" class="c0"/>
<circle cx="1078" cy="632" r="8" class="c0"/>
<circle cx="642" cy="718" r="8" class="c0"/>
<circle cx="852" cy="550" r="8" class="c0"/>
<circle cx="706" cy="832" r="8" class="c0"/>
<circle cx="1028" cy="582" r="6" class="c0"/>
<circle cx="880" cy="570" r="6" class="c0"/>
<circle cx="664" cy="846" r="6" class="c0"/>
<circle cx="596" cy="974" r="6" class="c0"/>
<circle cx="820" cy="560" r="6" class="c0"/>
<circle cx="840" cy="536" r="6" class="c0"/>
<circle cx="682" cy="876" r="6" class="c0"/>
<circle cx="992" cy="550" r="6" class="c0"/>
<circle cx="814" cy="644" r="6" class="c0"/>
<circle cx="612" cy="900" r="6" class="c0"/>
<circle cx="1034" cy="622" r="6" class="c0"/>
<circle cx="1076" cy="606" r="6" class="c0"/>
<circle cx="708" cy="852" r="6" class="c0"/>
<circle cx="762" cy="738" r="6" class="c0"/>
<circle cx="990" cy="462" r="6" class="c0"/>
<circle cx="530" cy="816" r="6" class="c0"/>
<circle cx="526" cy="902" r="6" class="c0"/>
<circle cx="1050" cy="614" r="6" class="c0"/>
<circle cx="532" cy="922" r="6" class="c0"/>
<circle cx="1058" cy="658" r="6" class="c0"/>
<circle cx="722" cy="782" r="6" class="c0"/>
<circle cx="708" cy="876" r="6" class="c0"/>
<circle cx="832" cy="650" r="6" class="c0"/>
<circle cx="714" cy="900" r="6" class="c0"/>
<circle cx="788" cy="698" r="6" class="c0"/>
<circle cx="846" cy="644" r="6" class="c0"/>
<circle cx="938" cy="584" r="6" class="c0"/>
<circle cx="858" cy="566" r="6" class="c0"/>
<circle cx="506" cy="900" r="6" class="c0"/>
<circle cx="822" cy="522" r="6" class="c0"/>
<circle cx="1124" cy="532" r="6" class="c0"/>
<circle cx="576" cy="778" r="6" class="c0"/>
<circle cx="1012" cy="644" r="6" class="c0"/>
<circle cx="594" cy="776" r="6" class="c0"/>
<circle cx="788" cy="680" r="6" class="c0"/>
<circle cx="1008" cy="550" r="6" class="c0"/>
<circle cx="988" cy="478" r="6" class="c0"/>
<circle cx="1024" cy="494" r="6" class="c0"/>
<circle cx="762" cy="506" r="6" class="c0"/>
<circle cx="1022" cy="478" r="6" class="c0"/>
<circle cx="984" cy="494" r="6" class="c0"/>
<circle cx="622" cy="998" r="6" class="c0"/>
<circle cx="670" cy="664" r="6" class="c0"/>
<circle cx="566" cy="910" r="6" class="c0"/>
<circle cx="1168" cy="578" r="6" class="c0"/>
<circle cx="1082" cy="528" r="6" class="c0"/>
<circle cx="558" cy="728" r="6" class="c0"/>
<circle cx="1112" cy="516" r="6" class="c0"/>
<circle cx="686" cy="652" r="6" class="c0"/>
<circle cx="770" cy="622" r="6" class="c0"/>
<circle cx="656" cy="838" r="6" class="c0"/>
<circle cx="974" cy="564" r="6" class="c0"/>
<circle cx="902" cy="632" r="6" class="c0"/>
<circle cx="612" cy="826" r="6" class="c0"/>
<circle cx="1064" cy="478" r="6" class="c0"/>
<circle cx="638" cy="624" r="6" class="c0"/>
<circle cx="654" cy="898" r="6" class="c0"/>
<circle cx="922" cy="500" r="6" class="c0"/>
<circle cx="1142" cy="626" r="6" class="c0"/>
<circle cx="496" cy="914" r="6" class="c0"/>
<circle cx="676" cy="706" r="6" class="c0"/>
<circle cx="654" cy="956" r="6" class="c0"/>
<circle cx="716" cy="598" r="6" class="c0"/>
<circle cx="852" cy="524" r="6" class="c0"/>
<circle cx="752" cy="614" r="6" class="c0"/>
<circle cx="984" cy="626" r="6" class="c0"/>
<circle cx="518" cy="930" r="6" class="c0"/>
<circle cx="1110" cy="552" r="6" class="c0"/>
<circle cx="958" cy="624" r="6" class="c0"/>
<circle cx="892" cy="558" r="6" class="c0"/>
<circle cx="778" cy="514" r="6" class="c0"/>
<circle cx="542" cy="872" r="6" class="c0"/>
<circle cx="936" cy="462" r="6" class="c0"/>
<circle cx="696" cy="640" r="6" class="c0"/>
<circle cx="626" cy="790" r="6" class="c0"/>
<circle cx="1070" cy="618" r="6" class="c0"/>
<circle cx="744" cy="600" r="6" class="c0"/>
<circle cx="704" cy="910" r="6" class="c0"/>
<circle cx="750" cy="650" r="6" class="c0"/>
<circle cx="898" cy="508" r="6" class="c0"/>
<circle cx="808" cy="694" r="6" class="c0"/>
<circle cx="1088" cy="600" r="6" class="c0"/>
<circle cx="1164" cy="524" r="6" class="c0"/>
<circle cx="918" cy="546" r="6" class="c0"/>
<circle cx="792" cy="578" r="6" class="c0"/>
<circle cx="678" cy="748" r="6" class="c0"/>
<circle cx="540" cy="838" r="6" class="c0"/>
<circle cx="940" cy="616" r="6" class="c0"/>
<circle cx="648" cy="762" r="6" class="c0"/>
<circle cx="686" cy="716" r="6" class="c0"/>
<circle cx="542" cy="768" r="6" class="c0"/>
<circle cx="1090" cy="664" r="6" class="c0"/>
<circle cx="574" cy="896" r="6" class="c0"/>
<circle cx="650" cy="872" r="6" class="c0"/>
<circle cx="708" cy="686" r="6" class="c0"/>
<circle cx="638" cy="674" r="6" class="c0"/>
<circle cx="702" cy="812" r="6" class="c0"/>
<circle cx="1120" cy="572" r="6" class="c0"/>
<circle cx="868" cy="612" r="6" class="c0"/>
<circle cx="1100" cy="632" r="6" class="c0"/>
<circle cx="828" cy="588" r="6" class="c0"/>
<circle cx="1078" cy="580" r="6" class="c0"/>
<circle cx="946" cy="564" r="6" class="c0"/>
<circle cx="784" cy="484" r="6" class="c0"/>
<circle cx="620" cy="888" r="6" class="c0"/>
<circle cx="820" cy="658" r="6" class="c0"/>
<circle cx="960" cy="538" r="6" class="c0"/>
<circle cx="1176" cy="544" r="6" class="c0"/>
<circle cx="590" cy="670" r="6" class="c0"/>
<circle cx="618" cy="942" r="6" class="c0"/>
<circle cx="660" cy="800" r="6" class="c0"/>
<circle cx="664" cy="622" r="6" class="c0"/>
<circle cx="544" cy="896" r="6" class="c0"/>
<circle cx="842" cy="598" r="6" class="c0"/>
<circle cx="706" cy="588" r="6" class="c0"/>
<circle cx="800" cy="708" r="6" class="c0"/>
<circle cx="628" cy="660" r="6" class="c0"/>
<circle cx="816" cy="486" r="6" class="c0"/>
<circle cx="1120" cy="644" r="6" class="c0"/>
<circle cx="636" cy="982" r="6" class="c0"/>
<circle cx="880" cy="630" r="6" class="c0"/>
<circle cx="596" cy="868" r="6" class="c0"/>
<circle cx="1132" cy="638" r="6" class="c0"/>
<circle cx="860" cy="508" r="6" class="c0"/>
<circle cx="568" cy="824" r="6" class="c0"/>
<circle cx="634" cy="918" r="6" class="c0"/>
<circle cx="916" cy="476" r="6" class="c0"/>
<circle cx="1050" cy="568" r="6" class="c0"/>
<circle cx="720" cy="766" r="6" class="c0"/>
<circle cx="1150" cy="640" r="6" class="c0"/>
<circle cx="958" cy="570" r="6" class="c0"/>
<circle cx="1096" cy="542" r="6" class="c0"/>
<circle cx="616" cy="956" r="6" class="c0"/>
</svg>
