<?xml version="1.0" encoding="utf-8"?>
<svg xmlns="http://www.w3.org/2000/svg"
     xmlns:xlink="http://www.w3.org/1999/xlink" width="1920" height="1440" >

            <defs>
            <style type="text/css"><![CDATA[
circle {stroke: none;}
.c0 {fill: #000000;}
]]></style>
            </defs>
<rect x="0" y="0" width="1920" height="1440" fill="white"/>
<circle cx="588" cy="1076" r="12" class="c0"/>
<circle cx="726" cy="600" r="12" class="c0"/>
<circle cx="1012" cy="592" r="12" class="c0"/>
<circle cx="634" cy="654" r="12" class="c0"/>
<circle cx="636" cy="874" r="12" class="c0"/>
<circle cx="892" cy="584" r="12" class="c0"/>
<circle cx="674" cy="546" r="12" class="c0"/>
<circle cx="576" cy="794" r="12" class="c0"/>
<circle cx="934" cy="516" r="12" class="c0"/>
<circle cx="648" cy="804" r="12" class="c0"/>
<circle cx="676" cy="790" r="12" class="c0"/>
<circle cx="864" cy="582" r="12" class="c0"/>
<circle cx="872" cy="482" r="12" class="c0"/>
<circle cx="1036" cy="618" r="12" class="c0"/>
<circle cx="670" cy="630" r="12" class="c0"/>
<circle cx="718" cy="704" r="12" class="c0"/>
<circle cx="992" cy="626" r="10" class="c0"/>
<circle cx="718" cy="672" r="10" class="c0"/>
<circle cx="796" cy="602" r="10" class="c0"/>
<circle cx="804" cy="636" r="10" class="c0"/>
<circle cx="744" cy="542" r="10" class="c0"/>
<circle cx="870" cy="550" r="10" class="c0"/>
<circle cx="676" cy="688" r="10" class="c0"/>
<circle cx="708" cy="570" r="10" class="c0"/>
<circle cx="642" cy="586" r="10" class="c0"/>
<circle cx="524" cy="814" r="10" class="c0"/>
<circle cx="480" cy="982" r="10" class="c0"/>
<circle cx="512" cy="960" r="10" class="c0"/>
<circle cx="688" cy="654" r="10" class="c0"/>
<circle cx="826" cy="512" r="10" class="c0"/>
<circle cx="990" cy="512" r="10" class="c0"/>
<circle cx="594" cy="764" r="10" class="c0"/>
<circle cx="696" cy="718" r="10" class="c0"/>
<circle cx="754" cy="610" r="10" class="c0"/>
<circle cx="614" cy="726" r="10" class="c0"/>
<circle cx="684" cy="592" r="10" class="c0"/>
<circle cx="1048" cy="570" r="10" class="c0"/>
<circle cx="1020" cy="488" r="10" class="c0"/>
<circle cx="698" cy="520" r="10" class="c0"/>
<circle cx="1006" cy="536" r="10" class="c0"/>
<circle cx="604" cy="906" r="10" class="c0"/>
<circle cx="752" cy="644" r="10" class="c0"/>
<circle cx="978" cy="568" r="10" class="c0"/>
<circle cx="774" cy="534" r="10" class="c0"/>
<circle cx="586" cy="724" r="10" class="c0"/>
<circle cx="604" cy="1040" r="10" class="c0"/>
<circle cx="658" cy="752" r="10" class="c0"/>
<circle cx="768" cy="628" r="10" class="c0"/>
<circle cx="982" cy="602" r="10" class="c0"/>
<circle cx="1026" cy="576" r="10" class="c0"/>
<circle cx="652" cy="930" r="10" class="c0"/>
<circle cx="688" cy="614" r="10" class="c0"/>
<circle cx="938" cy="488" r="10" class="c0"/>
<circle cx="510" cy="788" r="10" class="c0"/>
<circle cx="630" cy="760" r="10" class="c0"/>
<circle cx="656" cy="830" r="10" class="c0"/>
<circle cx="838" cy="540" r="10" class="c0"/>
<circle cx="630" cy="786" r="10" class="c0"/>
<circle cx="604" cy="654" r="10" class="c0"/>
<circle cx="498" cy="816" r="10" class="c0"/>
<circle cx="512" cy="900" r="10" class="c0"/>
<circle cx="718" cy="550" r="10" class="c0"/>
<circle cx="804" cy="472" r="10" class="c0"/>
<circle cx="822" cy="624" r="10" class="c0"/>
<circle cx="830" cy="576" r="10" class="c0"/>
<circle cx="620" cy="636" r="10" class="c0"/>
<circle cx="548" cy="874" r="10" class="c0"/>
<circle cx="590" cy="828" r="10" class="c0"/>
<circle cx="744" cy="578" r="10" class="c0"/>
<circle cx="620" cy="1000" r="10" class="c0"/>
<circle cx="508" cy="864" r="10" class="c0"/>
<circle cx="708" cy="738" r="10" class="c0"/>
<circle cx="934" cy="560" r="10" class="c0"/>
<circle cx="632" cy="614" r="10" class="c0"/>
<circle cx="894" cy="532" r="10" class="c0"/>
<circle cx="908" cy="566" r="10" class="c0"/>
<circle cx="764" cy="560" r="10" class="c0"/>
<circle cx="736" cy="622" r="10" class="c0"/>
<circle cx="670" cy="724" r="10" class="c0"/>
<circle cx="556" cy="896" r="10" class="c0"/>
<circle cx="598" cy="876" r="10" class="c0"/>
<circle cx="526" cy="976" r="8" class="c0"/>
<circle cx="558" cy="762" r="8" class="c0"/>
<circle cx="564" cy="818" r="8" class="c0"/>
<circle cx="880" cy="520" r="8" class="c0"/>
<circle cx="778" cy="594" r="8" class="c0"/>
<circle cx="586" cy="848" r="8" class="c0"/>
<circle cx="856" cy="620" r="8" class="c0"/>
<circle cx="654" cy="690" r="8" class="c0"/>
<circle cx="908" cy="598" r="8" class="c0"/>
<circle cx="662" cy="524" r="8" class="c0"/>
<circle cx="638" cy="896" r="8" class="c0"/>
<circle cx="828" cy="484" r="8" class="c0"/>
<circle cx="616" cy="814" r="8" class="c0"/>
<circle cx="594" cy="700" r="8" class="c0"/>
<circle cx="878" cy="622" r="8" class="c0"/>
<circle cx="932" cy="596" r="8" class="c0"/>
<circle cx="628" cy="966" r="8" class="c0"/>
<circle cx="644" cy="716" r="8" class="c0"/>
<circle cx="584" cy="1048" r="8" class="c0"/>
<circle cx="614" cy="852" r="8" class="c0"/>
<circle cx="634" cy="820" r="8" class="c0"/>
<circle cx="666" cy="584" r="8" class="c0"/>
<circle cx="682" cy="956" r="8" class="c0"/>
<circle cx="816" cy="460" r="8" class="c0"/>
<circle cx="562" cy="860" r="8" class="c0"/>
<circle cx="962" cy="626" r="8" class="c0"/>
<circle cx="642" cy="852" r="8" class="c0"/>
<circle cx="954" cy="584" r="8" class="c0"/>
<circle cx="624" cy="922" r="8" class="c0"/>
<circle cx="548" cy="804" r="8" class="c0"/>
<circle cx="954" cy="502" r="8" class="c0"/>
<circle cx="528" cy="780" r="8" class="c0"/>
<circle cx="1022" cy="524" r="8" class="c0"/>
<circle cx="534" cy="946" r="8" class="c0"/>
<circle cx="782" cy="470" r="8" class="c0"/>
<circle cx="852" cy="598" r="8" class="c0"/>
<circle cx="928" cy="634" r="8" class="c0"/>
<circle cx="1046" cy="540" r="8" class="c0"/>
<circle cx="1054" cy="502" r="8" class="c0"/>
<circle cx="696" cy="760" r="8" class="c0"/>
<circle cx="584" cy="950" r="8" class="c0"/>
<circle cx="1040" cy="492" r="8" class="c0"/>
<circle cx="522" cy="936" r="8" class="c0"/>
<circle cx="648" cy="952" r="8" class="c0"/>
<circle cx="798" cy="578" r="8" class="c0"/>
<circle cx="474" cy="1006" r="8" class="c0"/>
<circle cx="980" cy="490" r="8" class="c0"/>
<circle cx="958" cy="480" r="8" class="c0"/>
<circle cx="482" cy="902" r="8" class="c0"/>
<circle cx="600" cy="960" r="8" class="c0"/>
<circle cx="802" cy="534" r="8" class="c0"/>
<circle cx="974" cy="544" r="8" class="c0"/>
<circle cx="456" cy="990" r="8" class="c0"/>
<circle cx="846" cy="520" r="8" class="c0"/>
<circle cx="642" cy="632" r="8" class="c0"/>
<circle cx="892" cy="552" r="8" class="c0"/>
<circle cx="862" cy="512" r="8" class="c0"/>
<circle cx="814" cy="586" r="8" class="c0"/>
<circle cx="890" cy="510" r="8" class="c0"/>
<circle cx="618" cy="678" r="8" class="c0"/>
<circle cx="698" cy="670" r="8" class="c0"/>
<circle cx="540" cy="846" r="8" class="c0"/>
<circle cx="638" cy="736" r="8" class="c0"/>
<circle cx="680" cy="570" r="8" class="c0"/>
<circle cx="612" cy="888" r="8" class="c0"/>
<circle cx="582" cy="908" r="8" class="c0"/>
<circle cx="562" cy="724" r="8" class="c0"/>
<circle cx="668" cy="946" r="8" class="c0"/>
<circle cx="844" cy="496" r="8" class="c0"/>
<circle cx="960" cy="602" r="8" class="c0"/>
<circle cx="644" cy="678" r="8" class="c0"/>
<circle cx="588" cy="678" r="8" class="c0"/>
<circle cx="820" cy="560" r="8" class="c0"/>
<circle cx="924" cy="580" r="8" class="c0"/>
<circle cx="594" cy="934" r="8" class="c0"/>
<circle cx="738" cy="678" r="8" class="c0"/>
<circle cx="918" cy="618" r="8" class="c0"/>
<circle cx="604" cy="688" r="8" class="c0"/>
<circle cx="538" cy="768" r="8" class="c0"/>
<circle cx="490" cy="872" r="8" class="c0"/>
<circle cx="944" cy="612" r="8" class="c0"/>
<circle cx="712" cy="616" r="8" class="c0"/>
<circle cx="782" cy="648" r="8" class="c0"/>
<circle cx="818" cy="604" r="8" class="c0"/>
<circle cx="952" cy="528" r="8" class="c0"/>
<circle cx="630" cy="942" r="8" class="c0"/>
<circle cx="1008" cy="568" r="8" class="c0"/>
<circle cx="516" cy="988" r="8" class="c0"/>
<circle cx="754" cy="688" r="8" class="c0"/>
<circle cx="600" cy="784" r="8" class="c0"/>
<circle cx="476" cy="862" r="8" class="c0"/>
<circle cx="650" cy="770" r="8" class="c0"/>
<circle cx="788" cy="560" r="8" class="c0"/>
<circle cx="488" cy="834" r="8" class="c0"/>
<circle cx="522" cy="838" r="8" class="c0"/>
<circle cx="1010" cy="506" r="8" class="c0"/>
<circle cx="686" cy="750" r="8" class="c0"/>
<circle cx="696" cy="558" r="8" class="c0"/>
<circle cx="768" cy="584" r="8" class="c0"/>
<circle cx="624" cy="708" r="8" class="c0"/>
<circle cx="624" cy="1044" r="8" class="c0"/>
<circle cx="656" cy="900" r="8" class="c0"/>
<circle cx="576" cy="752" r="8" class="c0"/>
<circle cx="1036" cy="514" r="8" class="c0"/>
<circle cx="596" cy="742" r="8" class="c0"/>
<circle cx="568" cy="878" r="8" class="c0"/>
<circle cx="1028" cy="548" r="8" class="c0"/>
<circle cx="472" cy="880" r="8" class="c0"/>
<circle cx="788" cy="622" r="8" class="c0"/>
<circle cx="912" cy="500" r="8" class="c0"/>
<circle cx="540" cy="928" r="8" class="c0"/>
<circle cx="550" cy="742" r="8" class="c0"/>
<circle cx="896" cy="478" r="8" class="c0"/>
<circle cx="610" cy="970" r="8" class="c0"/>
<circle cx="922" cy="542" r="8" class="c0"/>
<circle cx="672" cy="764" r="8" class="c0"/>
<circle cx="612" cy="1072" r="8" class="c0"/>
<circle cx="696" cy="634" r="8" class="c0"/>
<circle cx="560" cy="780" r="8" class="c0"/>
<circle cx="536" cy="892" r="8" class="c0"/>
<circle cx="660" cy="964" r="8" class="c0"/>
<circle cx="764" cy="658" r="8" class="c0"/>
<circle cx="528" cy="758" r="8" class="c0"/>
<circle cx="602" cy="1062" r="8" class="c0"/>
<circle cx="492" cy="854" r="8" class="c0"/>
<circle cx="702" cy="602" r="8" class="c0"/>
<circle cx="742" cy="660" r="8" class="c0"/>
<circle cx="994" cy="548" r="8" class="c0"/>
<circle cx="668" cy="656" r="8" class="c0"/>
<circle cx="700" cy="782" r="8" class="c0"/>
<circle cx="900" cy="628" r="8" class="c0"/>
<circle cx="646" cy="976" r="8" class="c0"/>
<circle cx="714" cy="758" r="8" class="c0"/>
<circle cx="610" cy="754" r="8" class="c0"/>
<circle cx="518" cy="880" r="8" class="c0"/>
<circle cx="626" cy="1024" r="8" class="c0"/>
<circle cx="648" cy="534" r="8" class="c0"/>
<circle cx="604" cy="842" r="8" class="c0"/>
<circle cx="666" cy="856" r="8" class="c0"/>
<circle cx="894" cy="608" r="8" class="c0"/>
<circle cx="502" cy="844" r="8" class="c0"/>
<circle cx="848" cy="568" r="8" class="c0"/>
<circle cx="580" cy="888" r="8" class="c0"/>
<circle cx="818" cy="494" r="8" class="c0"/>
<circle cx="732" cy="724" r="8" class="c0"/>
<circle cx="622" cy="592" r="8" class="c0"/>
<circle cx="668" cy="816" r="8" class="c0"/>
<circle cx="778" cy="668" r="8" class="c0"/>
<circle cx="492" cy="968" r="8" class="c0"/>
<circle cx="652" cy="618" r="8" class="c0"/>
<circle cx="998" cy="494" r="8" class="c0"/>
<circle cx="542" cy="910" r="8" class="c0"/>
<circle cx="610" cy="944" r="8" class="c0"/>
<circle cx="618" cy="774" r="8" class="c0"/>
<circle cx="722" cy="652" r="8" class="c0"/>
<circle cx="722" cy="524" r="8" class="c0"/>
<circle cx="926" cy="476" r="8" class="c0"/>
<circle cx="954" cy="558" r="8" class="c0"/>
<circle cx="868" cy="608" r="8" class="c0"/>
<circle cx="976" cy="524" r="8" class="c0"/>
<circle cx="492" cy="888" r="6" class="c0"/>
<circle cx="716" cy="636" r="6" class="c0"/>
<circle cx="680" cy="522" r="6" class="c0"/>
<circle cx="596" cy="802" r="6" class="c0"/>
<circle cx="566" cy="842" r="6" class="c0"/>
<circle cx="680" cy="710" r="6" class="c0"/>
<circle cx="974" cy="642" r="6" class="c0"/>
<circle cx="664" cy="702" r="6" class="c0"/>
<circle cx="672" cy="922" r="6" class="c0"/>
<circle cx="574" cy="712" r="6" class="c0"/>
<circle cx="1014" cy="624" r="6" class="c0"/>
<circle cx="706" cy="538" r="6" class="c0"/>
<circle cx="572" cy="692" r="6" class="c0"/>
<circle cx="632" cy="688" r="6" class="c0"/>
<circle cx="722" cy="580" r="6" class="c0"/>
<circle cx="636" cy="546" r="6" class="c0"/>
<circle cx="1062" cy="532" r="6" class="c0"/>
<circle cx="532" cy="866" r="6" class="c0"/>
<circle cx="596" cy="1022" r="6" class="c0"/>
<circle cx="454" cy="1008" r="6" class="c0"/>
<circle cx="582" cy="868" r="6" class="c0"/>
<circle cx="668" cy="602" r="6" class="c0"/>
<circle cx="838" cy="612" r="6" class="c0"/>
<circle cx="886" cy="494" r="6" class="c0"/>
<circle cx="1060" cy="586" r="6" class="c0"/>
<circle cx="536" cy="964" r="6" class="c0"/>
<circle cx="706" cy="644" r="6" class="c0"/>
<circle cx="864" cy="530" r="6" class="c0"/>
<circle cx="464" cy="898" r="6" class="c0"/>
<circle cx="550" cy="828" r="6" class="c0"/>
<circle cx="854" cy="470" r="6" class="c0"/>
<circle cx="678" cy="826" r="6" class="c0"/>
<circle cx="990" cy="584" r="6" class="c0"/>
<circle cx="1054" cy="522" r="6" class="c0"/>
<circle cx="566" cy="1076" r="6" class="c0"/>
<circle cx="534" cy="828" r="6" class="c0"/>
<circle cx="608" cy="988" r="6" class="c0"/>
<circle cx="734" cy="560" r="6" class="c0"/>
<circle cx="822" cy="532" r="6" class="c0"/>
<circle cx="654" cy="668" r="6" class="c0"/>
<circle cx="572" cy="924" r="6" class="c0"/>
<circle cx="592" cy="918" r="6" class="c0"/>
<circle cx="596" cy="858" r="6" class="c0"/>
<circle cx="654" cy="570" r="6" class="c0"/>
<circle cx="580" cy="972" r="6" class="c0"/>
<circle cx="564" cy="914" r="6" class="c0"/>
<circle cx="708" cy="686" r="6" class="c0"/>
<circle cx="1046" cy="590" r="6" class="c0"/>
<circle cx="602" cy="1004" r="6" class="c0"/>
<circle cx="1058" cy="556" r="6" class="c0"/>
<circle cx="490" cy="996" r="6" class="c0"/>
<circle cx="734" cy="642" r="6" class="c0"/>
<circle cx="506" cy="998" r="6" class="c0"/>
<circle cx="678" cy="936" r="6" class="c0"/>
<circle cx="630" cy="982" r="6" class="c0"/>
<circle cx="624" cy="838" r="6" class="c0"/>
<circle cx="972" cy="504" r="6" class="c0"/>
<circle cx="538" cy="790" r="6" class="c0"/>
<circle cx="666" cy="882" r="6" class="c0"/>
<circle cx="576" cy="772" r="6" class="c0"/>
<circle cx="500" cy="986" r="6" class="c0"/>
<circle cx="768" cy="680" r="6" class="c0"/>
<circle cx="950" cy="466" r="6" class="c0"/>
<circle cx="938" cy="538" r="6" class="c0"/>
<circle cx="954" cy="642" r="6" class="c0"/>
<circle cx="792" cy="544" r="6" class="c0"/>
<circle cx="846" cy="478" r="6" class="c0"/>
<circle cx="740" cy="710" r="6" class="c0"/>
<circle cx="518" cy="768" r="6" class="c0"/>
<circle cx="574" cy="1090" r="6" class="c0"/>
<circle cx="690" cy="700" r="6" class="c0"/>
<circle cx="746" cy="520" r="6" class="c0"/>
<circle cx="610" cy="1014" r="6" class="c0"/>
<circle cx="1032" cy="594" r="6" class="c0"/>
<circle cx="520" cy="916" r="6" class="c0"/>
<circle cx="834" cy="468" r="6" class="c0"/>
<circle cx="564" cy="704" r="6" class="c0"/>
<circle cx="910" cy="520" r="6" class="c0"/>
<circle cx="804" cy="562" r="6" class="c0"/>
<circle cx="658" cy="644" r="6" class="c0"/>
<circle cx="688" cy="812" r="6" class="c0"/>
<circle cx="644" cy="914" r="6" class="c0"/>
<circle cx="1006" cy="478" r="6" class="c0"/>
<circle cx="970" cy="590" r="6" class="c0"/>
<circle cx="848" cy="634" r="6" class="c0"/>
<circle cx="736" cy="696" r="6" class="c0"/>
<circle cx="752" cy="670" r="6" class="c0"/>
<circle cx="864" cy="634" r="6" class="c0"/>
<circle cx="616" cy="872" r="6" class="c0"/>
<circle cx="812" cy="546" r="6" class="c0"/>
<circle cx="498" cy="912" r="6" class="c0"/>
<circle cx="1002" cy="610" r="6" class="c0"/>
<circle cx="670" cy="974" r="6" class="c0"/>
<circle cx="524" cy="854" r="6" class="c0"/>
<circle cx="762" cy="522" r="6" class="c0"/>
<circle cx="910" cy="470" r="6" class="c0"/>
<circle cx="626" cy="804" r="6" class="c0"/>
<circle cx="686" cy="732" r="6" class="c0"/>
<circle cx="966" cy="466" r="6" class="c0"/>
<circle cx="672" cy="742" r="6" class="c0"/>
<circle cx="622" cy="904" r="6" class="c0"/>
<circle cx="652" cy="884" r="6" class="c0"/>
<circle cx="572" cy="1064" r="6" class="c0"/>
<circle cx="944" cy="632" r="6" class="c0"/>
<circle cx="792" cy="524" r="6" class="c0"/>
<circle cx="794" cy="458" r="6" class="c0"/>
<circle cx="610" cy="798" r="6" class="c0"/>
<circle cx="944" cy="574" r="6" class="c0"/>
<circle cx="640" cy="992" r="6" class="c0"/>
<circle cx="832" cy="594" r="6" class="c0"/>
<circle cx="782" cy="576" r="6" class="c0"/>
<circle cx="1074" cy="540" r="6" class="c0"/>
<circle cx="656" cy="868" r="6" class="c0"/>
<circle cx="686" cy="772" r="6" class="c0"/>
<circle cx="964" cy="512" r="6" class="c0"/>
<circle cx="880" cy="566" r="6" class="c0"/>
</svg>
