<?xml version="1.0" encoding="utf-8"?>
<svg xmlns="http://www.w3.org/2000/svg"
     xmlns:xlink="http://www.w3.org/1999/xlink" width="1920" height="1440" >

            <defs>
            <style type="text/css"><![CDATA[
circle {stroke: none;}
.c0 {fill: #000000;}
]]></style>
            </defs>
<rect x="0" y="0" width="1920" height="1440" fill="white"/>
<circle cx="590" cy="566" r="14" class="c0"/>
<circle cx="726" cy="618" r="12" class="c0"/>
<circle cx="550" cy="1154" r="12" class="c0"/>
<circle cx="702" cy="666" r="12" class="c0"/>
<circle cx="530" cy="932" r="12" class="c0"/>
<circle cx="888" cy="480" r="12" class="c0"/>
<circle cx="576" cy="792" r="12" class="c0"/>
<circle cx="878" cy="556" r="12" class="c0"/>
<circle cx="670" cy="548" r="12" class="c0"/>
<circle cx="542" cy="1048" r="12" class="c0"/>
<circle cx="902" cy="454" r="12" class="c0"/>
<circle cx="516" cy="966" r="12" class="c0"/>
<circle cx="598" cy="760" r="12" class="c0"/>
<circle cx="836" cy="588" r="12" class="c0"/>
<circle cx="928" cy="544" r="12" class="c0"/>
<circle cx="612" cy="592" r="12" class="c0"/>
<circle cx="450" cy="1100" r="12" class="c0"/>
<circle cx="632" cy="628" r="12" class="c0"/>
<circle cx="620" cy="682" r="12" class="c0"/>
<circle cx="518" cy="580" r="12" class="c0"/>
<circle cx="568" cy="1092" r="12" class="c0"/>
<circle cx="624" cy="830" r="12" class="c0"/>
<circle cx="636" cy="794" r="12" class="c0"/>
<circle cx="472" cy="842" r="12" class="c0"/>
<circle cx="462" cy="1034" r="12" class="c0"/>
<circle cx="564" cy="818" r="12" class="c0"/>
<circle cx="844" cy="564" r="12" class="c0"/>
<circle cx="636" cy="554" r="12" class="c0"/>
<circle cx="792" cy="632" r="10" class="c0"/>
<circle cx="862" cy="458" r="10" class="c0"/>
<circle cx="526" cy="730" r="10" class="c0"/>
<circle cx="554" cy="738" r="10" class="c0"/>
<circle cx="574" cy="994" r="10" class="c0"/>
<circle cx="900" cy="510" r="10" class="c0"/>
<circle cx="694" cy="538" r="10" class="c0"/>
<circle cx="630" cy="604" r="10" class="c0"/>
<circle cx="820" cy="606" r="10" class="c0"/>
<circle cx="468" cy="1084" r="10" class="c0"/>
<circle cx="758" cy="590" r="10" class="c0"/>
<circle cx="678" cy="624" r="10" class="c0"/>
<circle cx="598" cy="820" r="10" class="c0"/>
<circle cx="676" cy="648" r="10" class="c0"/>
<circle cx="544" cy="856" r="10" class="c0"/>
<circle cx="808" cy="464" r="10" class="c0"/>
<circle cx="620" cy="734" r="10" class="c0"/>
<circle cx="620" cy="1018" r="10" class="c0"/>
<circle cx="848" cy="526" r="10" class="c0"/>
<circle cx="580" cy="1022" r="10" class="c0"/>
<circle cx="408" cy="1020" r="10" class="c0"/>
<circle cx="608" cy="912" r="10" class="c0"/>
<circle cx="706" cy="558" r="10" class="c0"/>
<circle cx="486" cy="796" r="10" class="c0"/>
<circle cx="732" cy="582" r="10" class="c0"/>
<circle cx="442" cy="1056" r="10" class="c0"/>
<circle cx="502" cy="828" r="10" class="c0"/>
<circle cx="444" cy="1016" r="10" class="c0"/>
<circle cx="776" cy="536" r="10" class="c0"/>
<circle cx="604" cy="638" r="10" class="c0"/>
<circle cx="426" cy="946" r="10" class="c0"/>
<circle cx="580" cy="734" r="10" class="c0"/>
<circle cx="568" cy="916" r="10" class="c0"/>
<circle cx="666" cy="718" r="10" class="c0"/>
<circle cx="756" cy="620" r="10" class="c0"/>
<circle cx="904" cy="558" r="10" class="c0"/>
<circle cx="652" cy="730" r="10" class="c0"/>
<circle cx="618" cy="856" r="10" class="c0"/>
<circle cx="546" cy="984" r="10" class="c0"/>
<circle cx="426" cy="996" r="10" class="c0"/>
<circle cx="724" cy="534" r="10" class="c0"/>
<circle cx="766" cy="512" r="10" class="c0"/>
<circle cx="682" cy="584" r="10" class="c0"/>
<circle cx="412" cy="1102" r="10" class="c0"/>
<circle cx="440" cy="930" r="10" class="c0"/>
<circle cx="436" cy="964" r="10" class="c0"/>
<circle cx="568" cy="952" r="10" class="c0"/>
<circle cx="642" cy="662" r="10" class="c0"/>
<circle cx="524" cy="1000" r="10" class="c0"/>
<circle cx="792" cy="516" r="10" class="c0"/>
<circle cx="584" cy="684" r="10" class="c0"/>
<circle cx="680" cy="516" r="10" class="c0"/>
<circle cx="664" cy="686" r="10" class="c0"/>
<circle cx="500" cy="892" r="10" class="c0"/>
<circle cx="546" cy="888" r="10" class="c0"/>
<circle cx="902" cy="592" r="10" class="c0"/>
<circle cx="492" cy="980" r="10" class="c0"/>
<circle cx="814" cy="544" r="10" class="c0"/>
<circle cx="500" cy="866" r="10" class="c0"/>
<circle cx="602" cy="886" r="10" class="c0"/>
<circle cx="596" cy="1038" r="10" class="c0"/>
<circle cx="526" cy="778" r="10" class="c0"/>
<circle cx="548" cy="676" r="10" class="c0"/>
<circle cx="474" cy="870" r="10" class="c0"/>
<circle cx="602" cy="938" r="10" class="c0"/>
<circle cx="586" cy="604" r="10" class="c0"/>
<circle cx="886" cy="534" r="10" class="c0"/>
<circle cx="504" cy="762" r="10" class="c0"/>
<circle cx="478" cy="1000" r="10" class="c0"/>
<circle cx="532" cy="558" r="10" class="c0"/>
<circle cx="442" cy="896" r="10" class="c0"/>
<circle cx="528" cy="1024" r="10" class="c0"/>
<circle cx="588" cy="900" r="10" class="c0"/>
<circle cx="694" cy="706" r="10" class="c0"/>
<circle cx="596" cy="982" r="10" class="c0"/>
<circle cx="544" cy="958" r="10" class="c0"/>
<circle cx="554" cy="784" r="10" class="c0"/>
<circle cx="784" cy="606" r="10" class="c0"/>
<circle cx="620" cy="540" r="10" class="c0"/>
<circle cx="558" cy="1114" r="10" class="c0"/>
<circle cx="716" cy="512" r="10" class="c0"/>
<circle cx="568" cy="696" r="10" class="c0"/>
<circle cx="930" cy="498" r="10" class="c0"/>
<circle cx="436" cy="1082" r="8" class="c0"/>
<circle cx="634" cy="582" r="8" class="c0"/>
<circle cx="414" cy="974" r="8" class="c0"/>
<circle cx="472" cy="970" r="8" class="c0"/>
<circle cx="796" cy="496" r="8" class="c0"/>
<circle cx="466" cy="912" r="8" class="c0"/>
<circle cx="594" cy="1060" r="8" class="c0"/>
<circle cx="568" cy="1130" r="8" class="c0"/>
<circle cx="572" cy="1046" r="8" class="c0"/>
<circle cx="612" cy="712" r="8" class="c0"/>
<circle cx="606" cy="784" r="8" class="c0"/>
<circle cx="508" cy="942" r="8" class="c0"/>
<circle cx="730" cy="562" r="8" class="c0"/>
<circle cx="912" cy="480" r="8" class="c0"/>
<circle cx="542" cy="1178" r="8" class="c0"/>
<circle cx="734" cy="640" r="8" class="c0"/>
<circle cx="624" cy="1042" r="8" class="c0"/>
<circle cx="654" cy="606" r="8" class="c0"/>
<circle cx="522" cy="814" r="8" class="c0"/>
<circle cx="574" cy="618" r="8" class="c0"/>
<circle cx="570" cy="972" r="8" class="c0"/>
<circle cx="862" cy="576" r="8" class="c0"/>
<circle cx="580" cy="1074" r="8" class="c0"/>
<circle cx="730" cy="668" r="8" class="c0"/>
<circle cx="592" cy="846" r="8" class="c0"/>
<circle cx="856" cy="482" r="8" class="c0"/>
<circle cx="494" cy="932" r="8" class="c0"/>
<circle cx="828" cy="502" r="8" class="c0"/>
<circle cx="564" cy="594" r="8" class="c0"/>
<circle cx="402" cy="1120" r="8" class="c0"/>
<circle cx="736" cy="516" r="8" class="c0"/>
<circle cx="550" cy="582" r="8" class="c0"/>
<circle cx="800" cy="558" r="8" class="c0"/>
<circle cx="600" cy="1006" r="8" class="c0"/>
<circle cx="756" cy="528" r="8" class="c0"/>
<circle cx="532" cy="876" r="8" class="c0"/>
<circle cx="530" cy="844" r="8" class="c0"/>
<circle cx="602" cy="694" r="8" class="c0"/>
<circle cx="780" cy="570" r="8" class="c0"/>
<circle cx="556" cy="564" r="8" class="c0"/>
<circle cx="598" cy="962" r="8" class="c0"/>
<circle cx="462" cy="1058" r="8" class="c0"/>
<circle cx="894" cy="574" r="8" class="c0"/>
<circle cx="828" cy="480" r="8" class="c0"/>
<circle cx="638" cy="756" r="8" class="c0"/>
<circle cx="650" cy="528" r="8" class="c0"/>
<circle cx="652" cy="584" r="8" class="c0"/>
<circle cx="704" cy="628" r="8" class="c0"/>
<circle cx="574" cy="762" r="8" class="c0"/>
<circle cx="534" cy="604" r="8" class="c0"/>
<circle cx="530" cy="702" r="8" class="c0"/>
<circle cx="550" cy="710" r="8" class="c0"/>
<circle cx="872" cy="496" r="8" class="c0"/>
<circle cx="750" cy="550" r="8" class="c0"/>
<circle cx="704" cy="586" r="8" class="c0"/>
<circle cx="490" cy="958" r="8" class="c0"/>
<circle cx="540" cy="760" r="8" class="c0"/>
<circle cx="858" cy="600" r="8" class="c0"/>
<circle cx="946" cy="518" r="8" class="c0"/>
<circle cx="616" cy="806" r="8" class="c0"/>
<circle cx="510" cy="918" r="8" class="c0"/>
<circle cx="622" cy="650" r="8" class="c0"/>
<circle cx="560" cy="874" r="8" class="c0"/>
<circle cx="484" cy="1020" r="8" class="c0"/>
<circle cx="596" cy="656" r="8" class="c0"/>
<circle cx="524" cy="904" r="8" class="c0"/>
<circle cx="568" cy="842" r="8" class="c0"/>
<circle cx="814" cy="518" r="8" class="c0"/>
<circle cx="642" cy="692" r="8" class="c0"/>
<circle cx="538" cy="1076" r="8" class="c0"/>
<circle cx="922" cy="518" r="8" class="c0"/>
<circle cx="626" cy="776" r="8" class="c0"/>
<circle cx="648" cy="778" r="8" class="c0"/>
<circle cx="876" cy="588" r="8" class="c0"/>
<circle cx="622" cy="1068" r="8" class="c0"/>
<circle cx="568" cy="658" r="8" class="c0"/>
<circle cx="436" cy="1116" r="8" class="c0"/>
<circle cx="468" cy="934" r="8" class="c0"/>
<circle cx="588" cy="926" r="8" class="c0"/>
<circle cx="578" cy="858" r="8" class="c0"/>
<circle cx="472" cy="890" r="8" class="c0"/>
<circle cx="534" cy="826" r="8" class="c0"/>
<circle cx="480" cy="818" r="8" class="c0"/>
<circle cx="584" cy="628" r="8" class="c0"/>
<circle cx="812" cy="574" r="8" class="c0"/>
<circle cx="846" cy="496" r="8" class="c0"/>
<circle cx="842" cy="454" r="8" class="c0"/>
<circle cx="748" cy="650" r="8" class="c0"/>
<circle cx="788" cy="586" r="8" class="c0"/>
<circle cx="452" cy="942" r="8" class="c0"/>
<circle cx="694" cy="638" r="8" class="c0"/>
<circle cx="664" cy="570" r="8" class="c0"/>
<circle cx="556" cy="1030" r="8" class="c0"/>
<circle cx="546" cy="1010" r="8" class="c0"/>
<circle cx="768" cy="638" r="8" class="c0"/>
<circle cx="716" cy="650" r="8" class="c0"/>
<circle cx="458" cy="986" r="8" class="c0"/>
<circle cx="528" cy="1158" r="8" class="c0"/>
<circle cx="634" cy="710" r="8" class="c0"/>
<circle cx="454" cy="878" r="8" class="c0"/>
<circle cx="822" cy="562" r="8" class="c0"/>
<circle cx="714" cy="600" r="8" class="c0"/>
<circle cx="498" cy="1010" r="8" class="c0"/>
<circle cx="540" cy="1132" r="8" class="c0"/>
<circle cx="664" cy="664" r="8" class="c0"/>
<circle cx="552" cy="936" r="8" class="c0"/>
<circle cx="604" cy="1078" r="8" class="c0"/>
<circle cx="546" cy="804" r="8" class="c0"/>
<circle cx="460" cy="960" r="8" class="c0"/>
<circle cx="658" cy="634" r="8" class="c0"/>
<circle cx="514" cy="852" r="8" class="c0"/>
<circle cx="768" cy="554" r="8" class="c0"/>
<circle cx="616" cy="954" r="8" class="c0"/>
<circle cx="672" cy="604" r="8" class="c0"/>
<circle cx="546" cy="916" r="8" class="c0"/>
<circle cx="580" cy="832" r="8" class="c0"/>
<circle cx="716" cy="684" r="8" class="c0"/>
<circle cx="432" cy="1030" r="8" class="c0"/>
<circle cx="830" cy="534" r="8" class="c0"/>
<circle cx="602" cy="618" r="8" class="c0"/>
<circle cx="404" cy="994" r="8" class="c0"/>
<circle cx="930" cy="570" r="8" class="c0"/>
<circle cx="518" cy="750" r="8" class="c0"/>
<circle cx="750" cy="570" r="8" class="c0"/>
<circle cx="566" cy="1064" r="8" class="c0"/>
<circle cx="566" cy="720" r="8" class="c0"/>
<circle cx="486" cy="906" r="8" class="c0"/>
<circle cx="686" cy="688" r="8" class="c0"/>
<circle cx="658" cy="750" r="8" class="c0"/>
<circle cx="574" cy="580" r="8" class="c0"/>
<circle cx="922" cy="468" r="8" class="c0"/>
<circle cx="600" cy="726" r="8" class="c0"/>
<circle cx="500" cy="782" r="8" class="c0"/>
<circle cx="810" cy="484" r="8" class="c0"/>
<circle cx="592" cy="706" r="8" class="c0"/>
<circle cx="692" cy="600" r="8" class="c0"/>
<circle cx="620" cy="570" r="8" class="c0"/>
<circle cx="610" cy="996" r="8" class="c0"/>
<circle cx="802" cy="616" r="8" class="c0"/>
<circle cx="578" cy="1118" r="8" class="c0"/>
<circle cx="864" cy="514" r="8" class="c0"/>
<circle cx="622" cy="884" r="8" class="c0"/>
<circle cx="590" cy="868" r="8" class="c0"/>
<circle cx="686" cy="564" r="8" class="c0"/>
<circle cx="908" cy="530" r="8" class="c0"/>
<circle cx="862" cy="540" r="8" class="c0"/>
<circle cx="556" cy="904" r="8" class="c0"/>
<circle cx="572" cy="888" r="8" class="c0"/>
<circle cx="458" cy="856" r="8" class="c0"/>
<circle cx="550" cy="612" r="8" class="c0"/>
<circle cx="560" cy="1172" r="8" class="c0"/>
<circle cx="548" cy="836" r="8" class="c0"/>
<circle cx="582" cy="646" r="8" class="c0"/>
<circle cx="878" cy="448" r="8" class="c0"/>
<circle cx="510" cy="800" r="8" class="c0"/>
<circle cx="776" cy="494" r="8" class="c0"/>
<circle cx="572" cy="1152" r="8" class="c0"/>
<circle cx="510" cy="988" r="8" class="c0"/>
<circle cx="670" cy="738" r="8" class="c0"/>
<circle cx="792" cy="474" r="8" class="c0"/>
<circle cx="596" cy="800" r="8" class="c0"/>
<circle cx="740" cy="604" r="8" class="c0"/>
<circle cx="676" cy="698" r="6" class="c0"/>
<circle cx="526" cy="982" r="6" class="c0"/>
<circle cx="600" cy="674" r="6" class="c0"/>
<circle cx="618" cy="752" r="6" class="c0"/>
<circle cx="430" cy="914" r="6" class="c0"/>
<circle cx="634" cy="848" r="6" class="c0"/>
<circle cx="804" cy="594" r="6" class="c0"/>
<circle cx="490" cy="852" r="6" class="c0"/>
<circle cx="494" cy="586" r="6" class="c0"/>
<circle cx="480" cy="944" r="6" class="c0"/>
<circle cx="792" cy="544" r="6" class="c0"/>
<circle cx="570" cy="556" r="6" class="c0"/>
<circle cx="824" cy="456" r="6" class="c0"/>
<circle cx="504" cy="742" r="6" class="c0"/>
<circle cx="842" cy="608" r="6" class="c0"/>
<circle cx="420" cy="1120" r="6" class="c0"/>
<circle cx="476" cy="1068" r="6" class="c0"/>
<circle cx="818" cy="626" r="6" class="c0"/>
<circle cx="538" cy="622" r="6" class="c0"/>
<circle cx="882" cy="508" r="6" class="c0"/>
<circle cx="518" cy="888" r="6" class="c0"/>
<circle cx="612" cy="970" r="6" class="c0"/>
<circle cx="914" cy="572" r="6" class="c0"/>
<circle cx="804" cy="530" r="6" class="c0"/>
<circle cx="706" cy="526" r="6" class="c0"/>
<circle cx="698" cy="510" r="6" class="c0"/>
<circle cx="610" cy="1056" r="6" class="c0"/>
<circle cx="680" cy="728" r="6" class="c0"/>
<circle cx="704" cy="610" r="6" class="c0"/>
<circle cx="680" cy="672" r="6" class="c0"/>
<circle cx="426" cy="1070" r="6" class="c0"/>
<circle cx="456" cy="922" r="6" class="c0"/>
<circle cx="518" cy="868" r="6" class="c0"/>
<circle cx="604" cy="552" r="6" class="c0"/>
<circle cx="394" cy="1098" r="6" class="c0"/>
<circle cx="452" cy="1076" r="6" class="c0"/>
<circle cx="654" cy="706" r="6" class="c0"/>
<circle cx="460" cy="1002" r="6" class="c0"/>
<circle cx="664" cy="508" r="6" class="c0"/>
<circle cx="478" cy="1048" r="6" class="c0"/>
<circle cx="534" cy="794" r="6" class="c0"/>
<circle cx="484" cy="922" r="6" class="c0"/>
<circle cx="412" cy="1080" r="6" class="c0"/>
<circle cx="556" cy="758" r="6" class="c0"/>
<circle cx="440" cy="982" r="6" class="c0"/>
<circle cx="536" cy="744" r="6" class="c0"/>
<circle cx="566" cy="1012" r="6" class="c0"/>
<circle cx="518" cy="714" r="6" class="c0"/>
<circle cx="612" cy="662" r="6" class="c0"/>
<circle cx="952" cy="502" r="6" class="c0"/>
<circle cx="520" cy="834" r="6" class="c0"/>
<circle cx="554" cy="1078" r="6" class="c0"/>
<circle cx="706" cy="694" r="6" class="c0"/>
<circle cx="834" cy="618" r="6" class="c0"/>
<circle cx="644" cy="642" r="6" class="c0"/>
<circle cx="584" cy="944" r="6" class="c0"/>
<circle cx="584" cy="810" r="6" class="c0"/>
<circle cx="390" cy="1028" r="6" class="c0"/>
<circle cx="648" cy="568" r="6" class="c0"/>
<circle cx="632" cy="1056" r="6" class="c0"/>
<circle cx="920" cy="590" r="6" class="c0"/>
<circle cx="846" cy="544" r="6" class="c0"/>
<circle cx="572" cy="934" r="6" class="c0"/>
<circle cx="748" cy="506" r="6" class="c0"/>
<circle cx="884" cy="602" r="6" class="c0"/>
<circle cx="644" cy="812" r="6" class="c0"/>
<circle cx="498" cy="810" r="6" class="c0"/>
<circle cx="812" cy="500" r="6" class="c0"/>
<circle cx="668" cy="528" r="6" class="c0"/>
<circle cx="776" cy="622" r="6" class="c0"/>
<circle cx="632" cy="870" r="6" class="c0"/>
<circle cx="430" cy="1098" r="6" class="c0"/>
<circle cx="490" cy="772" r="6" class="c0"/>
<circle cx="402" cy="1088" r="6" class="c0"/>
<circle cx="448" cy="996" r="6" class="c0"/>
<circle cx="714" cy="576" r="6" class="c0"/>
<circle cx="840" cy="470" r="6" class="c0"/>
<circle cx="508" cy="1020" r="6" class="c0"/>
<circle cx="468" cy="1014" r="6" class="c0"/>
<circle cx="590" cy="780" r="6" class="c0"/>
<circle cx="386" cy="1116" r="6" class="c0"/>
<circle cx="566" cy="674" r="6" class="c0"/>
<circle cx="654" cy="650" r="6" class="c0"/>
<circle cx="832" cy="518" r="6" class="c0"/>
<circle cx="618" cy="930" r="6" class="c0"/>
<circle cx="590" cy="1090" r="6" class="c0"/>
<circle cx="488" cy="880" r="6" class="c0"/>
<circle cx="852" cy="444" r="6" class="c0"/>
<circle cx="942" cy="480" r="6" class="c0"/>
<circle cx="902" cy="492" r="6" class="c0"/>
<circle cx="418" cy="1038" r="6" class="c0"/>
<circle cx="540" cy="692" r="6" class="c0"/>
<circle cx="608" cy="490" r="6" class="c0"/>
<circle cx="742" cy="536" r="6" class="c0"/>
<circle cx="540" cy="720" r="6" class="c0"/>
<circle cx="608" cy="840" r="6" class="c0"/>
<circle cx="582" cy="716" r="6" class="c0"/>
<circle cx="620" cy="900" r="6" class="c0"/>
<circle cx="658" cy="768" r="6" class="c0"/>
<circle cx="556" cy="998" r="6" class="c0"/>
<circle cx="448" cy="914" r="6" class="c0"/>
<circle cx="586" cy="666" r="6" class="c0"/>
<circle cx="618" cy="616" r="6" class="c0"/>
<circle cx="832" cy="550" r="6" class="c0"/>
<circle cx="784" cy="552" r="6" class="c0"/>
<circle cx="470" cy="1102" r="6" class="c0"/>
</svg>
