<?xml version="1.0" encoding="utf-8"?>
<svg xmlns="http://www.w3.org/2000/svg"
     xmlns:xlink="http://www.w3.org/1999/xlink" width="1920" height="1440" >

            <defs>
            <style type="text/css"><![CDATA[
circle {stroke: none;}
.c0 {fill: #000000;}
]]></style>
            </defs>
<rect x="0" y="0" width="1920" height="1440" fill="white"/>
<circle cx="624" cy="770" r="12" class="c0"/>
<circle cx="436" cy="1110" r="12" class="c0"/>
<circle cx="642" cy="568" r="12" class="c0"/>
<circle cx="754" cy="554" r="12" class="c0"/>
<circle cx="608" cy="820" r="12" class="c0"/>
<circle cx="666" cy="686" r="12" class="c0"/>
<circle cx="500" cy="938" r="12" class="c0"/>
<circle cx="468" cy="914" r="12" class="c0"/>
<circle cx="574" cy="1100" r="12" class="c0"/>
<circle cx="564" cy="750" r="12" class="c0"/>
<circle cx="584" cy="980" r="12" class="c0"/>
<circle cx="642" cy="668" r="12" class="c0"/>
<circle cx="472" cy="964" r="12" class="c0"/>
<circle cx="484" cy="660" r="12" class="c0"/>
<circle cx="548" cy="998" r="12" class="c0"/>
<circle cx="536" cy="882" r="12" class="c0"/>
<circle cx="652" cy="604" r="12" class="c0"/>
<circle cx="826" cy="462" r="12" class="c0"/>
<circle cx="408" cy="1206" r="12" class="c0"/>
<circle cx="426" cy="1020" r="12" class="c0"/>
<circle cx="480" cy="878" r="12" class="c0"/>
<circle cx="526" cy="904" r="12" class="c0"/>
<circle cx="626" cy="696" r="12" class="c0"/>
<circle cx="550" cy="700" r="12" class="c0"/>
<circle cx="392" cy="1138" r="10" class="c0"/>
<circle cx="408" cy="1124" r="10" class="c0"/>
<circle cx="506" cy="884" r="10" class="c0"/>
<circle cx="518" cy="650" r="10" class="c0"/>
<circle cx="632" cy="632" r="10" class="c0"/>
<circle cx="616" cy="646" r="10" class="c0"/>
<circle cx="538" cy="1064" r="10" class="c0"/>
<circle cx="590" cy="1130" r="10" class="c0"/>
<circle cx="588" cy="742" r="10" class="c0"/>
<circle cx="710" cy="628" r="10" class="c0"/>
<circle cx="666" cy="532" r="10" class="c0"/>
<circle cx="780" cy="564" r="10" class="c0"/>
<circle cx="466" cy="1052" r="10" class="c0"/>
<circle cx="690" cy="682" r="10" class="c0"/>
<circle cx="448" cy="1010" r="10" class="c0"/>
<circle cx="584" cy="1060" r="10" class="c0"/>
<circle cx="472" cy="840" r="10" class="c0"/>
<circle cx="418" cy="1186" r="10" class="c0"/>
<circle cx="606" cy="852" r="10" class="c0"/>
<circle cx="594" cy="888" r="10" class="c0"/>
<circle cx="554" cy="1040" r="10" class="c0"/>
<circle cx="558" cy="836" r="10" class="c0"/>
<circle cx="728" cy="416" r="10" class="c0"/>
<circle cx="556" cy="930" r="10" class="c0"/>
<circle cx="530" cy="1034" r="10" class="c0"/>
<circle cx="592" cy="664" r="10" class="c0"/>
<circle cx="772" cy="484" r="10" class="c0"/>
<circle cx="692" cy="536" r="10" class="c0"/>
<circle cx="508" cy="1086" r="10" class="c0"/>
<circle cx="496" cy="1058" r="10" class="c0"/>
<circle cx="564" cy="776" r="10" class="c0"/>
<circle cx="490" cy="616" r="10" class="c0"/>
<circle cx="578" cy="1162" r="10" class="c0"/>
<circle cx="488" cy="794" r="10" class="c0"/>
<circle cx="588" cy="834" r="10" class="c0"/>
<circle cx="432" cy="1160" r="10" class="c0"/>
<circle cx="536" cy="666" r="10" class="c0"/>
<circle cx="674" cy="586" r="10" class="c0"/>
<circle cx="814" cy="536" r="10" class="c0"/>
<circle cx="544" cy="860" r="10" class="c0"/>
<circle cx="566" cy="892" r="10" class="c0"/>
<circle cx="566" cy="616" r="10" class="c0"/>
<circle cx="694" cy="478" r="10" class="c0"/>
<circle cx="640" cy="536" r="10" class="c0"/>
<circle cx="552" cy="1092" r="10" class="c0"/>
<circle cx="484" cy="1076" r="10" class="c0"/>
<circle cx="708" cy="564" r="10" class="c0"/>
<circle cx="542" cy="804" r="10" class="c0"/>
<circle cx="608" cy="600" r="10" class="c0"/>
<circle cx="710" cy="496" r="10" class="c0"/>
<circle cx="510" cy="812" r="10" class="c0"/>
<circle cx="390" cy="1104" r="10" class="c0"/>
<circle cx="576" cy="802" r="10" class="c0"/>
<circle cx="774" cy="586" r="10" class="c0"/>
<circle cx="730" cy="480" r="10" class="c0"/>
<circle cx="740" cy="514" r="10" class="c0"/>
<circle cx="550" cy="1158" r="10" class="c0"/>
<circle cx="430" cy="1086" r="10" class="c0"/>
<circle cx="506" cy="992" r="10" class="c0"/>
<circle cx="468" cy="1000" r="10" class="c0"/>
<circle cx="580" cy="1024" r="10" class="c0"/>
<circle cx="672" cy="556" r="10" class="c0"/>
<circle cx="518" cy="972" r="10" class="c0"/>
<circle cx="506" cy="766" r="10" class="c0"/>
<circle cx="412" cy="1050" r="10" class="c0"/>
<circle cx="742" cy="430" r="10" class="c0"/>
<circle cx="806" cy="428" r="10" class="c0"/>
<circle cx="608" cy="576" r="10" class="c0"/>
<circle cx="468" cy="604" r="10" class="c0"/>
<circle cx="688" cy="602" r="10" class="c0"/>
<circle cx="488" cy="1102" r="10" class="c0"/>
<circle cx="816" cy="492" r="10" class="c0"/>
<circle cx="534" cy="1182" r="10" class="c0"/>
<circle cx="722" cy="578" r="10" class="c0"/>
<circle cx="668" cy="716" r="10" class="c0"/>
<circle cx="516" cy="866" r="10" class="c0"/>
<circle cx="454" cy="656" r="10" class="c0"/>
<circle cx="498" cy="962" r="10" class="c0"/>
<circle cx="514" cy="734" r="10" class="c0"/>
<circle cx="530" cy="634" r="10" class="c0"/>
<circle cx="480" cy="820" r="10" class="c0"/>
<circle cx="456" cy="852" r="10" class="c0"/>
<circle cx="532" cy="946" r="8" class="c0"/>
<circle cx="782" cy="540" r="8" class="c0"/>
<circle cx="442" cy="636" r="8" class="c0"/>
<circle cx="532" cy="1136" r="8" class="c0"/>
<circle cx="524" cy="1238" r="8" class="c0"/>
<circle cx="782" cy="446" r="8" class="c0"/>
<circle cx="572" cy="714" r="8" class="c0"/>
<circle cx="626" cy="548" r="8" class="c0"/>
<circle cx="502" cy="1030" r="8" class="c0"/>
<circle cx="672" cy="630" r="8" class="c0"/>
<circle cx="512" cy="594" r="8" class="c0"/>
<circle cx="568" cy="962" r="8" class="c0"/>
<circle cx="520" cy="790" r="8" class="c0"/>
<circle cx="584" cy="1082" r="8" class="c0"/>
<circle cx="510" cy="622" r="8" class="c0"/>
<circle cx="674" cy="666" r="8" class="c0"/>
<circle cx="778" cy="512" r="8" class="c0"/>
<circle cx="618" cy="746" r="8" class="c0"/>
<circle cx="436" cy="956" r="8" class="c0"/>
<circle cx="682" cy="518" r="8" class="c0"/>
<circle cx="516" cy="1128" r="8" class="c0"/>
<circle cx="372" cy="1114" r="8" class="c0"/>
<circle cx="826" cy="514" r="8" class="c0"/>
<circle cx="578" cy="592" r="8" class="c0"/>
<circle cx="400" cy="1086" r="8" class="c0"/>
<circle cx="572" cy="862" r="8" class="c0"/>
<circle cx="538" cy="754" r="8" class="c0"/>
<circle cx="592" cy="614" r="8" class="c0"/>
<circle cx="712" cy="532" r="8" class="c0"/>
<circle cx="730" cy="546" r="8" class="c0"/>
<circle cx="450" cy="1062" r="8" class="c0"/>
<circle cx="688" cy="572" r="8" class="c0"/>
<circle cx="558" cy="814" r="8" class="c0"/>
<circle cx="392" cy="1180" r="8" class="c0"/>
<circle cx="424" cy="626" r="8" class="c0"/>
<circle cx="522" cy="1012" r="8" class="c0"/>
<circle cx="392" cy="1062" r="8" class="c0"/>
<circle cx="664" cy="648" r="8" class="c0"/>
<circle cx="608" cy="796" r="8" class="c0"/>
<circle cx="592" cy="942" r="8" class="c0"/>
<circle cx="438" cy="908" r="8" class="c0"/>
<circle cx="448" cy="986" r="8" class="c0"/>
<circle cx="550" cy="628" r="8" class="c0"/>
<circle cx="486" cy="852" r="8" class="c0"/>
<circle cx="396" cy="1026" r="8" class="c0"/>
<circle cx="558" cy="1120" r="8" class="c0"/>
<circle cx="734" cy="618" r="8" class="c0"/>
<circle cx="524" cy="700" r="8" class="c0"/>
<circle cx="432" cy="1044" r="8" class="c0"/>
<circle cx="794" cy="492" r="8" class="c0"/>
<circle cx="452" cy="884" r="8" class="c0"/>
<circle cx="468" cy="644" r="8" class="c0"/>
<circle cx="798" cy="460" r="8" class="c0"/>
<circle cx="616" cy="674" r="8" class="c0"/>
<circle cx="610" cy="708" r="8" class="c0"/>
<circle cx="602" cy="768" r="8" class="c0"/>
<circle cx="708" cy="456" r="8" class="c0"/>
<circle cx="524" cy="928" r="8" class="c0"/>
<circle cx="546" cy="732" r="8" class="c0"/>
<circle cx="590" cy="782" r="8" class="c0"/>
<circle cx="486" cy="1022" r="8" class="c0"/>
<circle cx="544" cy="1200" r="8" class="c0"/>
<circle cx="760" cy="420" r="8" class="c0"/>
<circle cx="602" cy="910" r="8" class="c0"/>
<circle cx="752" cy="596" r="8" class="c0"/>
<circle cx="630" cy="584" r="8" class="c0"/>
<circle cx="566" cy="1146" r="8" class="c0"/>
<circle cx="498" cy="840" r="8" class="c0"/>
<circle cx="376" cy="1210" r="8" class="c0"/>
<circle cx="472" cy="938" r="8" class="c0"/>
<circle cx="602" cy="1144" r="8" class="c0"/>
<circle cx="442" cy="1032" r="8" class="c0"/>
<circle cx="576" cy="932" r="8" class="c0"/>
<circle cx="568" cy="1072" r="8" class="c0"/>
<circle cx="658" cy="746" r="8" class="c0"/>
<circle cx="662" cy="504" r="8" class="c0"/>
<circle cx="610" cy="624" r="8" class="c0"/>
<circle cx="524" cy="1104" r="8" class="c0"/>
<circle cx="526" cy="720" r="8" class="c0"/>
<circle cx="686" cy="640" r="8" class="c0"/>
<circle cx="578" cy="1002" r="8" class="c0"/>
<circle cx="516" cy="1048" r="8" class="c0"/>
<circle cx="600" cy="692" r="8" class="c0"/>
<circle cx="734" cy="594" r="8" class="c0"/>
<circle cx="742" cy="536" r="8" class="c0"/>
<circle cx="768" cy="460" r="8" class="c0"/>
<circle cx="428" cy="926" r="8" class="c0"/>
<circle cx="458" cy="950" r="8" class="c0"/>
<circle cx="566" cy="678" r="8" class="c0"/>
<circle cx="578" cy="642" r="8" class="c0"/>
<circle cx="506" cy="1234" r="8" class="c0"/>
<circle cx="622" cy="718" r="8" class="c0"/>
<circle cx="750" cy="478" r="8" class="c0"/>
<circle cx="428" cy="994" r="8" class="c0"/>
<circle cx="762" cy="502" r="8" class="c0"/>
<circle cx="530" cy="842" r="8" class="c0"/>
<circle cx="806" cy="512" r="8" class="c0"/>
<circle cx="498" cy="1012" r="8" class="c0"/>
<circle cx="492" cy="746" r="8" class="c0"/>
<circle cx="500" cy="642" r="8" class="c0"/>
<circle cx="700" cy="662" r="8" class="c0"/>
<circle cx="794" cy="526" r="8" class="c0"/>
<circle cx="476" cy="1032" r="8" class="c0"/>
<circle cx="442" cy="610" r="8" class="c0"/>
<circle cx="458" cy="1080" r="8" class="c0"/>
<circle cx="628" cy="800" r="8" class="c0"/>
<circle cx="722" cy="438" r="8" class="c0"/>
<circle cx="452" cy="626" r="8" class="c0"/>
<circle cx="794" cy="552" r="8" class="c0"/>
<circle cx="466" cy="1020" r="8" class="c0"/>
<circle cx="568" cy="652" r="8" class="c0"/>
<circle cx="602" cy="730" r="8" class="c0"/>
<circle cx="634" cy="728" r="8" class="c0"/>
<circle cx="546" cy="1234" r="8" class="c0"/>
<circle cx="486" cy="768" r="8" class="c0"/>
<circle cx="546" cy="646" r="8" class="c0"/>
<circle cx="450" cy="930" r="8" class="c0"/>
<circle cx="738" cy="450" r="8" class="c0"/>
<circle cx="766" cy="532" r="8" class="c0"/>
<circle cx="448" cy="1094" r="8" class="c0"/>
<circle cx="434" cy="660" r="8" class="c0"/>
<circle cx="686" cy="498" r="8" class="c0"/>
<circle cx="444" cy="1134" r="8" class="c0"/>
<circle cx="648" cy="758" r="8" class="c0"/>
<circle cx="680" cy="700" r="8" class="c0"/>
<circle cx="444" cy="1184" r="8" class="c0"/>
<circle cx="584" cy="904" r="8" class="c0"/>
<circle cx="834" cy="544" r="8" class="c0"/>
<circle cx="470" cy="1090" r="8" class="c0"/>
<circle cx="516" cy="1148" r="8" class="c0"/>
<circle cx="508" cy="914" r="8" class="c0"/>
<circle cx="646" cy="714" r="8" class="c0"/>
<circle cx="408" cy="988" r="8" class="c0"/>
<circle cx="560" cy="1016" r="8" class="c0"/>
<circle cx="540" cy="918" r="8" class="c0"/>
<circle cx="760" cy="444" r="8" class="c0"/>
<circle cx="486" cy="984" r="8" class="c0"/>
<circle cx="538" cy="974" r="8" class="c0"/>
<circle cx="848" cy="508" r="8" class="c0"/>
<circle cx="818" cy="442" r="8" class="c0"/>
<circle cx="534" cy="822" r="8" class="c0"/>
<circle cx="528" cy="1082" r="8" class="c0"/>
<circle cx="600" cy="1112" r="8" class="c0"/>
<circle cx="378" cy="1080" r="8" class="c0"/>
<circle cx="420" cy="968" r="8" class="c0"/>
<circle cx="524" cy="1164" r="8" class="c0"/>
<circle cx="414" cy="1072" r="8" class="c0"/>
<circle cx="406" cy="1008" r="8" class="c0"/>
<circle cx="720" cy="654" r="8" class="c0"/>
<circle cx="540" cy="1114" r="8" class="c0"/>
<circle cx="422" cy="1136" r="8" class="c0"/>
<circle cx="516" cy="1068" r="8" class="c0"/>
<circle cx="414" cy="1096" r="8" class="c0"/>
<circle cx="466" cy="808" r="8" class="c0"/>
<circle cx="522" cy="610" r="8" class="c0"/>
<circle cx="742" cy="574" r="8" class="c0"/>
<circle cx="594" cy="866" r="8" class="c0"/>
<circle cx="538" cy="780" r="8" class="c0"/>
<circle cx="600" cy="962" r="8" class="c0"/>
<circle cx="504" cy="1112" r="8" class="c0"/>
<circle cx="772" cy="430" r="8" class="c0"/>
<circle cx="652" cy="638" r="8" class="c0"/>
<circle cx="528" cy="1212" r="8" class="c0"/>
<circle cx="682" cy="458" r="8" class="c0"/>
<circle cx="654" cy="520" r="8" class="c0"/>
<circle cx="478" cy="634" r="8" class="c0"/>
<circle cx="366" cy="1194" r="8" class="c0"/>
<circle cx="578" cy="690" r="8" class="c0"/>
<circle cx="446" cy="966" r="8" class="c0"/>
<circle cx="612" cy="874" r="8" class="c0"/>
<circle cx="656" cy="704" r="8" class="c0"/>
<circle cx="518" cy="830" r="8" class="c0"/>
<circle cx="482" cy="900" r="8" class="c0"/>
<circle cx="574" cy="1044" r="8" class="c0"/>
<circle cx="408" cy="1148" r="8" class="c0"/>
<circle cx="476" cy="778" r="8" class="c0"/>
<circle cx="692" cy="448" r="8" class="c0"/>
<circle cx="390" cy="1044" r="8" class="c0"/>
<circle cx="710" cy="606" r="8" class="c0"/>
<circle cx="526" cy="764" r="8" class="c0"/>
<circle cx="416" cy="642" r="8" class="c0"/>
<circle cx="586" cy="922" r="8" class="c0"/>
<circle cx="470" cy="1110" r="8" class="c0"/>
<circle cx="420" cy="944" r="8" class="c0"/>
<circle cx="578" cy="952" r="8" class="c0"/>
<circle cx="508" cy="714" r="8" class="c0"/>
<circle cx="404" cy="1170" r="8" class="c0"/>
<circle cx="712" cy="428" r="8" class="c0"/>
<circle cx="598" cy="634" r="6" class="c0"/>
<circle cx="512" cy="848" r="6" class="c0"/>
<circle cx="548" cy="1216" r="6" class="c0"/>
<circle cx="576" cy="846" r="6" class="c0"/>
<circle cx="432" cy="1196" r="6" class="c0"/>
<circle cx="622" cy="842" r="6" class="c0"/>
<circle cx="560" cy="984" r="6" class="c0"/>
<circle cx="594" cy="806" r="6" class="c0"/>
<circle cx="782" cy="468" r="6" class="c0"/>
<circle cx="652" cy="552" r="6" class="c0"/>
<circle cx="564" cy="1172" r="6" class="c0"/>
<circle cx="620" cy="614" r="6" class="c0"/>
<circle cx="548" cy="956" r="6" class="c0"/>
<circle cx="548" cy="1130" r="6" class="c0"/>
<circle cx="592" cy="716" r="6" class="c0"/>
<circle cx="464" cy="670" r="6" class="c0"/>
<circle cx="512" cy="1218" r="6" class="c0"/>
<circle cx="594" cy="1092" r="6" class="c0"/>
<circle cx="594" cy="1010" r="6" class="c0"/>
<circle cx="452" cy="1042" r="6" class="c0"/>
<circle cx="388" cy="1196" r="6" class="c0"/>
<circle cx="514" cy="954" r="6" class="c0"/>
<circle cx="782" cy="420" r="6" class="c0"/>
<circle cx="760" cy="576" r="6" class="c0"/>
<circle cx="670" cy="612" r="6" class="c0"/>
<circle cx="554" cy="1180" r="6" class="c0"/>
<circle cx="578" cy="820" r="6" class="c0"/>
<circle cx="528" cy="986" r="6" class="c0"/>
<circle cx="834" cy="500" r="6" class="c0"/>
<circle cx="492" cy="910" r="6" class="c0"/>
<circle cx="702" cy="512" r="6" class="c0"/>
<circle cx="646" cy="694" r="6" class="c0"/>
<circle cx="432" cy="1068" r="6" class="c0"/>
<circle cx="544" cy="1020" r="6" class="c0"/>
<circle cx="726" cy="638" r="6" class="c0"/>
<circle cx="654" cy="584" r="6" class="c0"/>
<circle cx="808" cy="470" r="6" class="c0"/>
<circle cx="556" cy="910" r="6" class="c0"/>
<circle cx="690" cy="554" r="6" class="c0"/>
<circle cx="402" cy="652" r="6" class="c0"/>
<circle cx="362" cy="1220" r="6" class="c0"/>
<circle cx="524" cy="678" r="6" class="c0"/>
<circle cx="580" cy="766" r="6" class="c0"/>
<circle cx="516" cy="1198" r="6" class="c0"/>
<circle cx="756" cy="522" r="6" class="c0"/>
<circle cx="448" cy="868" r="6" class="c0"/>
<circle cx="836" cy="482" r="6" class="c0"/>
<circle cx="732" cy="564" r="6" class="c0"/>
<circle cx="702" cy="592" r="6" class="c0"/>
<circle cx="642" cy="742" r="6" class="c0"/>
<circle cx="370" cy="1130" r="6" class="c0"/>
<circle cx="546" cy="612" r="6" class="c0"/>
<circle cx="492" cy="596" r="6" class="c0"/>
<circle cx="598" cy="1160" r="6" class="c0"/>
<circle cx="528" cy="744" r="6" class="c0"/>
<circle cx="564" cy="1054" r="6" class="c0"/>
<circle cx="434" cy="978" r="6" class="c0"/>
<circle cx="552" cy="790" r="6" class="c0"/>
<circle cx="564" cy="728" r="6" class="c0"/>
<circle cx="514" cy="1248" r="6" class="c0"/>
<circle cx="610" cy="896" r="6" class="c0"/>
<circle cx="450" cy="1158" r="6" class="c0"/>
<circle cx="696" cy="618" r="6" class="c0"/>
<circle cx="598" cy="994" r="6" class="c0"/>
<circle cx="460" cy="828" r="6" class="c0"/>
<circle cx="446" cy="672" r="6" class="c0"/>
<circle cx="556" cy="668" r="6" class="c0"/>
<circle cx="534" cy="688" r="6" class="c0"/>
<circle cx="504" cy="784" r="6" class="c0"/>
<circle cx="508" cy="664" r="6" class="c0"/>
<circle cx="562" cy="874" r="6" class="c0"/>
<circle cx="790" cy="476" r="6" class="c0"/>
<circle cx="392" cy="1218" r="6" class="c0"/>
<circle cx="594" cy="1042" r="6" class="c0"/>
<circle cx="636" cy="614" r="6" class="c0"/>
<circle cx="622" cy="564" r="6" class="c0"/>
<circle cx="604" cy="926" r="6" class="c0"/>
<circle cx="746" cy="496" r="6" class="c0"/>
<circle cx="586" cy="578" r="6" class="c0"/>
<circle cx="576" cy="878" r="6" class="c0"/>
<circle cx="548" cy="764" r="6" class="c0"/>
<circle cx="722" cy="518" r="6" class="c0"/>
<circle cx="702" cy="438" r="6" class="c0"/>
<circle cx="650" cy="732" r="6" class="c0"/>
<circle cx="676" cy="484" r="6" class="c0"/>
<circle cx="492" cy="1040" r="6" class="c0"/>
<circle cx="718" cy="468" r="6" class="c0"/>
<circle cx="574" cy="1122" r="6" class="c0"/>
<circle cx="486" cy="926" r="6" class="c0"/>
<circle cx="662" cy="572" r="6" class="c0"/>
<circle cx="570" cy="912" r="6" class="c0"/>
<circle cx="728" cy="498" r="6" class="c0"/>
<circle cx="548" cy="678" r="6" class="c0"/>
<circle cx="706" cy="646" r="6" class="c0"/>
<circle cx="494" cy="866" r="6" class="c0"/>
<circle cx="748" cy="410" r="6" class="c0"/>
<circle cx="752" cy="616" r="6" class="c0"/>
<circle cx="584" cy="724" r="6" class="c0"/>
<circle cx="560" cy="638" r="6" class="c0"/>
<circle cx="482" cy="948" r="6" class="c0"/>
<circle cx="752" cy="458" r="6" class="c0"/>
<circle cx="670" cy="734" r="6" class="c0"/>
<circle cx="370" cy="1096" r="6" class="c0"/>
<circle cx="466" cy="866" r="6" class="c0"/>
<circle cx="466" cy="894" r="6" class="c0"/>
<circle cx="452" cy="1120" r="6" class="c0"/>
<circle cx="556" cy="1062" r="6" class="c0"/>
<circle cx="430" cy="1210" r="6" class="c0"/>
<circle cx="560" cy="948" r="6" class="c0"/>
<circle cx="546" cy="898" r="6" class="c0"/>
<circle cx="580" cy="626" r="6" class="c0"/>
<circle cx="594" cy="588" r="6" class="c0"/>
<circle cx="632" cy="600" r="6" class="c0"/>
<circle cx="486" cy="1002" r="6" class="c0"/>
<circle cx="464" cy="982" r="6" class="c0"/>
<circle cx="454" cy="902" r="6" class="c0"/>
<circle cx="376" cy="1184" r="6" class="c0"/>
<circle cx="684" cy="656" r="6" class="c0"/>
<circle cx="840" cy="450" r="6" class="c0"/>
<circle cx="662" cy="620" r="6" class="c0"/>
<circle cx="702" cy="418" r="6" class="c0"/>
<circle cx="844" cy="524" r="6" class="c0"/>
<circle cx="634" cy="750" r="6" class="c0"/>
<circle cx="496" cy="730" r="6" class="c0"/>
<circle cx="440" cy="940" r="6" class="c0"/>
<circle cx="588" cy="702" r="6" class="c0"/>
<circle cx="502" cy="856" r="6" class="c0"/>
<circle cx="536" cy="1248" r="6" class="c0"/>
<circle cx="554" cy="972" r="6" class="c0"/>
<circle cx="556" cy="720" r="6" class="c0"/>
<circle cx="634" cy="650" r="6" class="c0"/>
<circle cx="568" cy="992" r="6" class="c0"/>
</svg>
