<?xml version="1.0" encoding="utf-8"?>
<svg xmlns="http://www.w3.org/2000/svg"
     xmlns:xlink="http://www.w3.org/1999/xlink" width="1920" height="1440" >

            <defs>
            <style type="text/css"><![CDATA[
circle {stroke: none;}
.c0 {fill: #000000;}
]]></style>
            </defs>
<rect x="0" y="0" width="1920" height="1440" fill="white"/>
<circle cx="484" cy="1050" r="14" class="c0"/>
<circle cx="564" cy="972" r="12" class="c0"/>
<circle cx="376" cy="1144" r="12" class="c0"/>
<circle cx="438" cy="1214" r="12" class="c0"/>
<circle cx="410" cy="1256" r="12" class="c0"/>
<circle cx="552" cy="1146" r="12" class="c0"/>
<circle cx="316" cy="750" r="12" class="c0"/>
<circle cx="420" cy="1080" r="12" class="c0"/>
<circle cx="492" cy="1156" r="12" class="c0"/>
<circle cx="338" cy="738" r="12" class="c0"/>
<circle cx="364" cy="1316" r="12" class="c0"/>
<circle cx="596" cy="610" r="12" class="c0"/>
<circle cx="658" cy="654" r="12" class="c0"/>
<circle cx="446" cy="896" r="12" class="c0"/>
<circle cx="500" cy="1108" r="12" class="c0"/>
<circle cx="502" cy="832" r="12" class="c0"/>
<circle cx="516" cy="874" r="12" class="c0"/>
<circle cx="598" cy="560" r="12" class="c0"/>
<circle cx="466" cy="1140" r="12" class="c0"/>
<circle cx="392" cy="732" r="12" class="c0"/>
<circle cx="502" cy="970" r="12" class="c0"/>
<circle cx="556" cy="896" r="12" class="c0"/>
<circle cx="446" cy="778" r="12" class="c0"/>
<circle cx="476" cy="834" r="12" class="c0"/>
<circle cx="490" cy="702" r="12" class="c0"/>
<circle cx="564" cy="1266" r="12" class="c0"/>
<circle cx="590" cy="838" r="12" class="c0"/>
<circle cx="482" cy="1094" r="12" class="c0"/>
<circle cx="442" cy="1154" r="12" class="c0"/>
<circle cx="438" cy="1120" r="12" class="c0"/>
<circle cx="518" cy="996" r="12" class="c0"/>
<circle cx="528" cy="780" r="12" class="c0"/>
<circle cx="472" cy="922" r="12" class="c0"/>
<circle cx="534" cy="618" r="10" class="c0"/>
<circle cx="544" cy="502" r="10" class="c0"/>
<circle cx="638" cy="620" r="10" class="c0"/>
<circle cx="646" cy="476" r="10" class="c0"/>
<circle cx="418" cy="1296" r="10" class="c0"/>
<circle cx="514" cy="1274" r="10" class="c0"/>
<circle cx="470" cy="796" r="10" class="c0"/>
<circle cx="520" cy="1240" r="10" class="c0"/>
<circle cx="504" cy="920" r="10" class="c0"/>
<circle cx="598" cy="706" r="10" class="c0"/>
<circle cx="636" cy="540" r="10" class="c0"/>
<circle cx="564" cy="1172" r="10" class="c0"/>
<circle cx="608" cy="534" r="10" class="c0"/>
<circle cx="402" cy="1172" r="10" class="c0"/>
<circle cx="568" cy="560" r="10" class="c0"/>
<circle cx="552" cy="436" r="10" class="c0"/>
<circle cx="516" cy="1136" r="10" class="c0"/>
<circle cx="366" cy="1190" r="10" class="c0"/>
<circle cx="490" cy="742" r="10" class="c0"/>
<circle cx="666" cy="516" r="10" class="c0"/>
<circle cx="364" cy="1260" r="10" class="c0"/>
<circle cx="430" cy="722" r="10" class="c0"/>
<circle cx="404" cy="1210" r="10" class="c0"/>
<circle cx="592" cy="644" r="10" class="c0"/>
<circle cx="522" cy="848" r="10" class="c0"/>
<circle cx="488" cy="666" r="10" class="c0"/>
<circle cx="520" cy="1178" r="10" class="c0"/>
<circle cx="584" cy="440" r="10" class="c0"/>
<circle cx="460" cy="1168" r="10" class="c0"/>
<circle cx="548" cy="470" r="10" class="c0"/>
<circle cx="542" cy="1026" r="10" class="c0"/>
<circle cx="502" cy="1222" r="10" class="c0"/>
<circle cx="464" cy="688" r="10" class="c0"/>
<circle cx="544" cy="852" r="10" class="c0"/>
<circle cx="528" cy="1324" r="10" class="c0"/>
<circle cx="478" cy="964" r="10" class="c0"/>
<circle cx="558" cy="744" r="10" class="c0"/>
<circle cx="342" cy="778" r="10" class="c0"/>
<circle cx="484" cy="1208" r="10" class="c0"/>
<circle cx="416" cy="988" r="10" class="c0"/>
<circle cx="396" cy="1126" r="10" class="c0"/>
<circle cx="572" cy="520" r="10" class="c0"/>
<circle cx="540" cy="654" r="10" class="c0"/>
<circle cx="434" cy="700" r="10" class="c0"/>
<circle cx="494" cy="808" r="10" class="c0"/>
<circle cx="612" cy="724" r="10" class="c0"/>
<circle cx="570" cy="670" r="10" class="c0"/>
<circle cx="516" cy="904" r="10" class="c0"/>
<circle cx="384" cy="702" r="10" class="c0"/>
<circle cx="534" cy="678" r="10" class="c0"/>
<circle cx="560" cy="612" r="10" class="c0"/>
<circle cx="576" cy="582" r="10" class="c0"/>
<circle cx="350" cy="1344" r="10" class="c0"/>
<circle cx="604" cy="506" r="10" class="c0"/>
<circle cx="416" cy="1152" r="10" class="c0"/>
<circle cx="386" cy="1304" r="10" class="c0"/>
<circle cx="552" cy="1050" r="10" class="c0"/>
<circle cx="560" cy="710" r="10" class="c0"/>
<circle cx="494" cy="778" r="10" class="c0"/>
<circle cx="490" cy="996" r="10" class="c0"/>
<circle cx="542" cy="1304" r="10" class="c0"/>
<circle cx="506" cy="1200" r="10" class="c0"/>
<circle cx="456" cy="716" r="10" class="c0"/>
<circle cx="522" cy="698" r="10" class="c0"/>
<circle cx="602" cy="666" r="10" class="c0"/>
<circle cx="628" cy="576" r="10" class="c0"/>
<circle cx="476" cy="1188" r="10" class="c0"/>
<circle cx="476" cy="644" r="10" class="c0"/>
<circle cx="516" cy="556" r="10" class="c0"/>
<circle cx="588" cy="980" r="10" class="c0"/>
<circle cx="608" cy="484" r="10" class="c0"/>
<circle cx="514" cy="726" r="10" class="c0"/>
<circle cx="576" cy="732" r="10" class="c0"/>
<circle cx="588" cy="806" r="10" class="c0"/>
<circle cx="568" cy="824" r="10" class="c0"/>
<circle cx="666" cy="626" r="10" class="c0"/>
<circle cx="464" cy="854" r="10" class="c0"/>
<circle cx="566" cy="866" r="10" class="c0"/>
<circle cx="498" cy="1322" r="10" class="c0"/>
<circle cx="422" cy="746" r="10" class="c0"/>
<circle cx="536" cy="920" r="10" class="c0"/>
<circle cx="466" cy="992" r="10" class="c0"/>
<circle cx="688" cy="510" r="10" class="c0"/>
<circle cx="528" cy="1152" r="10" class="c0"/>
<circle cx="528" cy="1100" r="10" class="c0"/>
<circle cx="610" cy="690" r="10" class="c0"/>
<circle cx="354" cy="1240" r="10" class="c0"/>
<circle cx="628" cy="496" r="10" class="c0"/>
<circle cx="496" cy="480" r="10" class="c0"/>
<circle cx="346" cy="1276" r="10" class="c0"/>
<circle cx="666" cy="486" r="8" class="c0"/>
<circle cx="646" cy="708" r="8" class="c0"/>
<circle cx="554" cy="592" r="8" class="c0"/>
<circle cx="582" cy="1104" r="8" class="c0"/>
<circle cx="540" cy="1276" r="8" class="c0"/>
<circle cx="550" cy="1070" r="8" class="c0"/>
<circle cx="450" cy="1028" r="8" class="c0"/>
<circle cx="506" cy="596" r="8" class="c0"/>
<circle cx="420" cy="1180" r="8" class="c0"/>
<circle cx="574" cy="1014" r="8" class="c0"/>
<circle cx="576" cy="478" r="8" class="c0"/>
<circle cx="378" cy="1102" r="8" class="c0"/>
<circle cx="518" cy="668" r="8" class="c0"/>
<circle cx="398" cy="1060" r="8" class="c0"/>
<circle cx="626" cy="736" r="8" class="c0"/>
<circle cx="548" cy="958" r="8" class="c0"/>
<circle cx="580" cy="768" r="8" class="c0"/>
<circle cx="532" cy="572" r="8" class="c0"/>
<circle cx="532" cy="542" r="8" class="c0"/>
<circle cx="580" cy="496" r="8" class="c0"/>
<circle cx="574" cy="1036" r="8" class="c0"/>
<circle cx="368" cy="1282" r="8" class="c0"/>
<circle cx="640" cy="516" r="8" class="c0"/>
<circle cx="618" cy="594" r="8" class="c0"/>
<circle cx="544" cy="1208" r="8" class="c0"/>
<circle cx="604" cy="758" r="8" class="c0"/>
<circle cx="374" cy="1210" r="8" class="c0"/>
<circle cx="528" cy="828" r="8" class="c0"/>
<circle cx="454" cy="818" r="8" class="c0"/>
<circle cx="584" cy="1078" r="8" class="c0"/>
<circle cx="500" cy="684" r="8" class="c0"/>
<circle cx="544" cy="720" r="8" class="c0"/>
<circle cx="406" cy="1280" r="8" class="c0"/>
<circle cx="578" cy="1222" r="8" class="c0"/>
<circle cx="550" cy="1238" r="8" class="c0"/>
<circle cx="598" cy="464" r="8" class="c0"/>
<circle cx="456" cy="1106" r="8" class="c0"/>
<circle cx="588" cy="882" r="8" class="c0"/>
<circle cx="460" cy="1014" r="8" class="c0"/>
<circle cx="494" cy="884" r="8" class="c0"/>
<circle cx="542" cy="700" r="8" class="c0"/>
<circle cx="660" cy="536" r="8" class="c0"/>
<circle cx="516" cy="508" r="8" class="c0"/>
<circle cx="470" cy="1220" r="8" class="c0"/>
<circle cx="436" cy="1046" r="8" class="c0"/>
<circle cx="552" cy="1190" r="8" class="c0"/>
<circle cx="440" cy="976" r="8" class="c0"/>
<circle cx="520" cy="446" r="8" class="c0"/>
<circle cx="470" cy="772" r="8" class="c0"/>
<circle cx="572" cy="646" r="8" class="c0"/>
<circle cx="480" cy="1122" r="8" class="c0"/>
<circle cx="566" cy="784" r="8" class="c0"/>
<circle cx="446" cy="1188" r="8" class="c0"/>
<circle cx="640" cy="678" r="8" class="c0"/>
<circle cx="526" cy="740" r="8" class="c0"/>
<circle cx="646" cy="450" r="8" class="c0"/>
<circle cx="524" cy="810" r="8" class="c0"/>
<circle cx="526" cy="518" r="8" class="c0"/>
<circle cx="440" cy="1094" r="8" class="c0"/>
<circle cx="382" cy="1334" r="8" class="c0"/>
<circle cx="386" cy="754" r="8" class="c0"/>
<circle cx="398" cy="1030" r="8" class="c0"/>
<circle cx="386" cy="1196" r="8" class="c0"/>
<circle cx="372" cy="1232" r="8" class="c0"/>
<circle cx="416" cy="1226" r="8" class="c0"/>
<circle cx="520" cy="646" r="8" class="c0"/>
<circle cx="498" cy="644" r="8" class="c0"/>
<circle cx="366" cy="736" r="8" class="c0"/>
<circle cx="498" cy="946" r="8" class="c0"/>
<circle cx="588" cy="934" r="8" class="c0"/>
<circle cx="350" cy="704" r="8" class="c0"/>
<circle cx="520" cy="1306" r="8" class="c0"/>
<circle cx="558" cy="1098" r="8" class="c0"/>
<circle cx="524" cy="962" r="8" class="c0"/>
<circle cx="618" cy="464" r="8" class="c0"/>
<circle cx="578" cy="906" r="8" class="c0"/>
<circle cx="504" cy="1078" r="8" class="c0"/>
<circle cx="518" cy="1352" r="8" class="c0"/>
<circle cx="684" cy="532" r="8" class="c0"/>
<circle cx="476" cy="886" r="8" class="c0"/>
<circle cx="402" cy="1104" r="8" class="c0"/>
<circle cx="546" cy="982" r="8" class="c0"/>
<circle cx="622" cy="438" r="8" class="c0"/>
<circle cx="422" cy="956" r="8" class="c0"/>
<circle cx="450" cy="676" r="8" class="c0"/>
<circle cx="586" cy="540" r="8" class="c0"/>
<circle cx="582" cy="1196" r="8" class="c0"/>
<circle cx="648" cy="600" r="8" class="c0"/>
<circle cx="554" cy="546" r="8" class="c0"/>
<circle cx="576" cy="1156" r="8" class="c0"/>
<circle cx="438" cy="1018" r="8" class="c0"/>
<circle cx="450" cy="954" r="8" class="c0"/>
<circle cx="508" cy="428" r="8" class="c0"/>
<circle cx="552" cy="634" r="8" class="c0"/>
<circle cx="416" cy="1124" r="8" class="c0"/>
<circle cx="468" cy="1072" r="8" class="c0"/>
<circle cx="426" cy="1006" r="8" class="c0"/>
<circle cx="548" cy="822" r="8" class="c0"/>
<circle cx="520" cy="944" r="8" class="c0"/>
<circle cx="636" cy="460" r="8" class="c0"/>
<circle cx="490" cy="622" r="8" class="c0"/>
<circle cx="586" cy="958" r="8" class="c0"/>
<circle cx="618" cy="654" r="8" class="c0"/>
<circle cx="570" cy="930" r="8" class="c0"/>
<circle cx="506" cy="1018" r="8" class="c0"/>
<circle cx="582" cy="1278" r="8" class="c0"/>
<circle cx="548" cy="1110" r="8" class="c0"/>
<circle cx="666" cy="454" r="8" class="c0"/>
<circle cx="516" cy="762" r="8" class="c0"/>
<circle cx="592" cy="862" r="8" class="c0"/>
<circle cx="524" cy="598" r="8" class="c0"/>
<circle cx="450" cy="1070" r="8" class="c0"/>
<circle cx="432" cy="930" r="8" class="c0"/>
<circle cx="632" cy="694" r="8" class="c0"/>
<circle cx="394" cy="1232" r="8" class="c0"/>
<circle cx="482" cy="1026" r="8" class="c0"/>
<circle cx="514" cy="488" r="8" class="c0"/>
<circle cx="476" cy="728" r="8" class="c0"/>
<circle cx="364" cy="760" r="8" class="c0"/>
<circle cx="362" cy="1166" r="8" class="c0"/>
<circle cx="460" cy="940" r="8" class="c0"/>
<circle cx="568" cy="1116" r="8" class="c0"/>
<circle cx="532" cy="1046" r="8" class="c0"/>
<circle cx="550" cy="936" r="8" class="c0"/>
<circle cx="456" cy="1052" r="8" class="c0"/>
<circle cx="542" cy="1254" r="8" class="c0"/>
<circle cx="426" cy="1236" r="8" class="c0"/>
<circle cx="586" cy="686" r="8" class="c0"/>
<circle cx="598" cy="588" r="8" class="c0"/>
<circle cx="634" cy="756" r="8" class="c0"/>
<circle cx="550" cy="792" r="8" class="c0"/>
<circle cx="572" cy="996" r="8" class="c0"/>
<circle cx="468" cy="752" r="8" class="c0"/>
<circle cx="412" cy="1324" r="8" class="c0"/>
<circle cx="636" cy="648" r="8" class="c0"/>
<circle cx="528" cy="1218" r="8" class="c0"/>
<circle cx="400" cy="1338" r="8" class="c0"/>
<circle cx="528" cy="1196" r="8" class="c0"/>
<circle cx="544" cy="1168" r="8" class="c0"/>
<circle cx="488" cy="1338" r="8" class="c0"/>
<circle cx="562" cy="1080" r="8" class="c0"/>
<circle cx="530" cy="1064" r="8" class="c0"/>
<circle cx="496" cy="454" r="8" class="c0"/>
<circle cx="586" cy="1250" r="8" class="c0"/>
<circle cx="506" cy="1294" r="8" class="c0"/>
<circle cx="614" cy="746" r="8" class="c0"/>
<circle cx="572" cy="1064" r="8" class="c0"/>
<circle cx="548" cy="768" r="8" class="c0"/>
<circle cx="572" cy="456" r="8" class="c0"/>
<circle cx="426" cy="1034" r="8" class="c0"/>
<circle cx="610" cy="630" r="8" class="c0"/>
<circle cx="482" cy="468" r="8" class="c0"/>
<circle cx="368" cy="1352" r="8" class="c0"/>
<circle cx="448" cy="870" r="8" class="c0"/>
<circle cx="560" cy="1288" r="8" class="c0"/>
<circle cx="352" cy="1208" r="8" class="c0"/>
<circle cx="578" cy="1134" r="8" class="c0"/>
<circle cx="596" cy="734" r="8" class="c0"/>
<circle cx="508" cy="1036" r="8" class="c0"/>
<circle cx="490" cy="858" r="8" class="c0"/>
<circle cx="540" cy="884" r="8" class="c0"/>
<circle cx="396" cy="1082" r="8" class="c0"/>
<circle cx="390" cy="1268" r="8" class="c0"/>
<circle cx="540" cy="1126" r="8" class="c0"/>
<circle cx="402" cy="710" r="8" class="c0"/>
<circle cx="306" cy="768" r="8" class="c0"/>
<circle cx="504" cy="1258" r="8" class="c0"/>
<circle cx="456" cy="738" r="8" class="c0"/>
<circle cx="630" cy="666" r="8" class="c0"/>
<circle cx="442" cy="920" r="8" class="c0"/>
<circle cx="366" cy="716" r="8" class="c0"/>
<circle cx="540" cy="1084" r="8" class="c0"/>
<circle cx="464" cy="1202" r="8" class="c0"/>
<circle cx="512" cy="620" r="8" class="c0"/>
<circle cx="536" cy="758" r="8" class="c0"/>
<circle cx="654" cy="554" r="8" class="c0"/>
<circle cx="636" cy="724" r="8" class="c0"/>
<circle cx="466" cy="662" r="8" class="c0"/>
<circle cx="648" cy="636" r="8" class="c0"/>
<circle cx="420" cy="1056" r="8" class="c0"/>
<circle cx="674" cy="470" r="8" class="c0"/>
<circle cx="556" cy="490" r="8" class="c0"/>
<circle cx="378" cy="770" r="8" class="c0"/>
<circle cx="486" cy="908" r="8" class="c0"/>
<circle cx="624" cy="712" r="8" class="c0"/>
<circle cx="652" cy="498" r="8" class="c0"/>
<circle cx="622" cy="612" r="6" class="c0"/>
<circle cx="560" cy="1022" r="6" class="c0"/>
<circle cx="644" cy="742" r="6" class="c0"/>
<circle cx="518" cy="470" r="6" class="c0"/>
<circle cx="558" cy="1220" r="6" class="c0"/>
<circle cx="512" cy="1336" r="6" class="c0"/>
<circle cx="510" cy="578" r="6" class="c0"/>
<circle cx="628" cy="556" r="6" class="c0"/>
<circle cx="382" cy="1244" r="6" class="c0"/>
<circle cx="526" cy="1018" r="6" class="c0"/>
<circle cx="536" cy="900" r="6" class="c0"/>
<circle cx="562" cy="686" r="6" class="c0"/>
<circle cx="380" cy="1170" r="6" class="c0"/>
<circle cx="560" cy="808" r="6" class="c0"/>
<circle cx="578" cy="620" r="6" class="c0"/>
<circle cx="586" cy="1048" r="6" class="c0"/>
<circle cx="546" cy="1004" r="6" class="c0"/>
<circle cx="514" cy="796" r="6" class="c0"/>
<circle cx="458" cy="1122" r="6" class="c0"/>
<circle cx="470" cy="706" r="6" class="c0"/>
<circle cx="594" cy="918" r="6" class="c0"/>
<circle cx="594" cy="902" r="6" class="c0"/>
<circle cx="626" cy="478" r="6" class="c0"/>
<circle cx="584" cy="752" r="6" class="c0"/>
<circle cx="334" cy="760" r="6" class="c0"/>
<circle cx="406" cy="1008" r="6" class="c0"/>
<circle cx="438" cy="992" r="6" class="c0"/>
<circle cx="518" cy="1054" r="6" class="c0"/>
<circle cx="484" cy="1234" r="6" class="c0"/>
<circle cx="564" cy="536" r="6" class="c0"/>
<circle cx="530" cy="436" r="6" class="c0"/>
<circle cx="618" cy="516" r="6" class="c0"/>
<circle cx="530" cy="1342" r="6" class="c0"/>
<circle cx="448" cy="836" r="6" class="c0"/>
<circle cx="566" cy="1212" r="6" class="c0"/>
<circle cx="332" cy="716" r="6" class="c0"/>
<circle cx="508" cy="748" r="6" class="c0"/>
<circle cx="524" cy="1032" r="6" class="c0"/>
<circle cx="494" cy="1176" r="6" class="c0"/>
<circle cx="544" cy="526" r="6" class="c0"/>
<circle cx="506" cy="658" r="6" class="c0"/>
<circle cx="482" cy="684" r="6" class="c0"/>
<circle cx="494" cy="436" r="6" class="c0"/>
<circle cx="546" cy="562" r="6" class="c0"/>
<circle cx="544" cy="604" r="6" class="c0"/>
<circle cx="588" cy="720" r="6" class="c0"/>
<circle cx="688" cy="620" r="6" class="c0"/>
<circle cx="414" cy="1024" r="6" class="c0"/>
<circle cx="554" cy="918" r="6" class="c0"/>
<circle cx="572" cy="694" r="6" class="c0"/>
<circle cx="420" cy="690" r="6" class="c0"/>
<circle cx="530" cy="476" r="6" class="c0"/>
<circle cx="372" cy="1118" r="6" class="c0"/>
<circle cx="564" cy="950" r="6" class="c0"/>
<circle cx="594" cy="782" r="6" class="c0"/>
<circle cx="530" cy="1290" r="6" class="c0"/>
<circle cx="640" cy="562" r="6" class="c0"/>
<circle cx="468" cy="902" r="6" class="c0"/>
<circle cx="342" cy="1258" r="6" class="c0"/>
<circle cx="578" cy="854" r="6" class="c0"/>
<circle cx="478" cy="1008" r="6" class="c0"/>
<circle cx="450" cy="1000" r="6" class="c0"/>
<circle cx="500" cy="1240" r="6" class="c0"/>
<circle cx="428" cy="1140" r="6" class="c0"/>
<circle cx="408" cy="1046" r="6" class="c0"/>
<circle cx="588" cy="1026" r="6" class="c0"/>
<circle cx="394" cy="1154" r="6" class="c0"/>
<circle cx="524" cy="1260" r="6" class="c0"/>
<circle cx="598" cy="430" r="6" class="c0"/>
<circle cx="636" cy="430" r="6" class="c0"/>
<circle cx="434" cy="1064" r="6" class="c0"/>
<circle cx="540" cy="806" r="6" class="c0"/>
<circle cx="608" cy="450" r="6" class="c0"/>
<circle cx="464" cy="1036" r="6" class="c0"/>
<circle cx="458" cy="1090" r="6" class="c0"/>
<circle cx="570" cy="1246" r="6" class="c0"/>
<circle cx="514" cy="530" r="6" class="c0"/>
<circle cx="576" cy="794" r="6" class="c0"/>
<circle cx="584" cy="1172" r="6" class="c0"/>
<circle cx="324" cy="772" r="6" class="c0"/>
<circle cx="504" cy="1344" r="6" class="c0"/>
<circle cx="450" cy="1228" r="6" class="c0"/>
<circle cx="520" cy="1080" r="6" class="c0"/>
<circle cx="492" cy="1134" r="6" class="c0"/>
<circle cx="484" cy="1074" r="6" class="c0"/>
<circle cx="544" cy="582" r="6" class="c0"/>
<circle cx="648" cy="576" r="6" class="c0"/>
<circle cx="342" cy="1324" r="6" class="c0"/>
<circle cx="486" cy="1354" r="6" class="c0"/>
<circle cx="652" cy="692" r="6" class="c0"/>
<circle cx="528" cy="978" r="6" class="c0"/>
<circle cx="510" cy="1164" r="6" class="c0"/>
<circle cx="408" cy="758" r="6" class="c0"/>
<circle cx="564" cy="762" r="6" class="c0"/>
<circle cx="430" cy="1170" r="6" class="c0"/>
<circle cx="682" cy="492" r="6" class="c0"/>
<circle cx="532" cy="456" r="6" class="c0"/>
<circle cx="580" cy="422" r="6" class="c0"/>
<circle cx="424" cy="1100" r="6" class="c0"/>
<circle cx="678" cy="606" r="6" class="c0"/>
<circle cx="496" cy="724" r="6" class="c0"/>
<circle cx="428" cy="1198" r="6" class="c0"/>
<circle cx="456" cy="972" r="6" class="c0"/>
<circle cx="412" cy="726" r="6" class="c0"/>
<circle cx="524" cy="1120" r="6" class="c0"/>
<circle cx="482" cy="938" r="6" class="c0"/>
<circle cx="424" cy="972" r="6" class="c0"/>
<circle cx="496" cy="760" r="6" class="c0"/>
<circle cx="390" cy="1348" r="6" class="c0"/>
<circle cx="554" cy="678" r="6" class="c0"/>
<circle cx="548" cy="870" r="6" class="c0"/>
<circle cx="480" cy="1170" r="6" class="c0"/>
<circle cx="578" cy="708" r="6" class="c0"/>
<circle cx="560" cy="840" r="6" class="c0"/>
<circle cx="388" cy="1284" r="6" class="c0"/>
<circle cx="404" cy="1308" r="6" class="c0"/>
<circle cx="536" cy="946" r="6" class="c0"/>
<circle cx="590" cy="1004" r="6" class="c0"/>
<circle cx="404" cy="1190" r="6" class="c0"/>
<circle cx="556" cy="574" r="6" class="c0"/>
<circle cx="424" cy="1314" r="6" class="c0"/>
<circle cx="472" cy="870" r="6" class="c0"/>
<circle cx="506" cy="1060" r="6" class="c0"/>
<circle cx="436" cy="946" r="6" class="c0"/>
<circle cx="470" cy="478" r="6" class="c0"/>
<circle cx="532" cy="490" r="6" class="c0"/>
<circle cx="528" cy="716" r="6" class="c0"/>
<circle cx="494" cy="420" r="6" class="c0"/>
<circle cx="572" cy="600" r="6" class="c0"/>
<circle cx="700" cy="498" r="6" class="c0"/>
<circle cx="566" cy="424" r="6" class="c0"/>
<circle cx="664" cy="602" r="6" class="c0"/>
<circle cx="362" cy="1220" r="6" class="c0"/>
<circle cx="554" cy="518" r="6" class="c0"/>
<circle cx="392" cy="1322" r="6" class="c0"/>
<circle cx="562" cy="506" r="6" class="c0"/>
<circle cx="446" cy="850" r="6" class="c0"/>
<circle cx="458" cy="880" r="6" class="c0"/>
<circle cx="676" cy="640" r="6" class="c0"/>
<circle cx="366" cy="1336" r="6" class="c0"/>
<circle cx="480" cy="762" r="6" class="c0"/>
<circle cx="584" cy="660" r="6" class="c0"/>
<circle cx="560" cy="656" r="6" class="c0"/>
<circle cx="368" cy="694" r="6" class="c0"/>
<circle cx="412" cy="700" r="6" class="c0"/>
<circle cx="628" cy="634" r="6" class="c0"/>
<circle cx="626" cy="524" r="6" class="c0"/>
<circle cx="590" cy="524" r="6" class="c0"/>
<circle cx="440" cy="740" r="6" class="c0"/>
<circle cx="348" cy="720" r="6" class="c0"/>
<circle cx="348" cy="754" r="6" class="c0"/>
<circle cx="556" cy="992" r="6" class="c0"/>
<circle cx="522" cy="630" r="6" class="c0"/>
<circle cx="320" cy="730" r="6" class="c0"/>
<circle cx="570" cy="884" r="6" class="c0"/>
<circle cx="384" cy="1220" r="6" class="c0"/>
<circle cx="570" cy="628" r="6" class="c0"/>
<circle cx="574" cy="1090" r="6" class="c0"/>
<circle cx="534" cy="1010" r="6" class="c0"/>
<circle cx="620" cy="548" r="6" class="c0"/>
<circle cx="600" cy="820" r="6" class="c0"/>
<circle cx="532" cy="864" r="6" class="c0"/>
<circle cx="490" cy="930" r="6" class="c0"/>
<circle cx="430" cy="910" r="6" class="c0"/>
<circle cx="538" cy="1228" r="6" class="c0"/>
<circle cx="454" cy="760" r="6" class="c0"/>
<circle cx="656" cy="676" r="6" class="c0"/>
<circle cx="612" cy="428" r="6" class="c0"/>
<circle cx="474" cy="814" r="6" class="c0"/>
<circle cx="380" cy="1084" r="6" class="c0"/>
<circle cx="630" cy="604" r="6" class="c0"/>
<circle cx="336" cy="1246" r="6" class="c0"/>
<circle cx="344" cy="1226" r="6" class="c0"/>
<circle cx="360" cy="776" r="6" class="c0"/>
<circle cx="458" cy="910" r="6" class="c0"/>
<circle cx="536" cy="636" r="6" class="c0"/>
<circle cx="650" cy="434" r="6" class="c0"/>
<circle cx="332" cy="1266" r="6" class="c0"/>
<circle cx="568" cy="1232" r="6" class="c0"/>
<circle cx="506" cy="464" r="6" class="c0"/>
<circle cx="404" cy="692" r="6" class="c0"/>
<circle cx="578" cy="944" r="6" class="c0"/>
<circle cx="428" cy="794" r="6" class="c0"/>
<circle cx="556" cy="454" r="6" class="c0"/>
<circle cx="674" cy="500" r="6" class="c0"/>
<circle cx="506" cy="856" r="6" class="c0"/>
<circle cx="608" cy="578" r="6" class="c0"/>
<circle cx="560" cy="1006" r="6" class="c0"/>
</svg>
