<?xml version="1.0" encoding="utf-8"?>
<svg xmlns="http://www.w3.org/2000/svg"
     xmlns:xlink="http://www.w3.org/1999/xlink" width="1920" height="1440" >

            <defs>
            <style type="text/css"><![CDATA[
circle {stroke: none;}
.c0 {fill: #000000;}
]]></style>
            </defs>
<rect x="0" y="0" width="1920" height="1440" fill="white"/>
<circle cx="514" cy="1134" r="12" class="c0"/>
<circle cx="388" cy="1124" r="12" class="c0"/>
<circle cx="428" cy="904" r="12" class="c0"/>
<circle cx="426" cy="460" r="12" class="c0"/>
<circle cx="332" cy="1216" r="12" class="c0"/>
<circle cx="386" cy="832" r="12" class="c0"/>
<circle cx="342" cy="1314" r="12" class="c0"/>
<circle cx="504" cy="1264" r="12" class="c0"/>
<circle cx="432" cy="636" r="12" class="c0"/>
<circle cx="394" cy="450" r="12" class="c0"/>
<circle cx="450" cy="1164" r="12" class="c0"/>
<circle cx="442" cy="414" r="12" class="c0"/>
<circle cx="496" cy="482" r="12" class="c0"/>
<circle cx="532" cy="1206" r="12" class="c0"/>
<circle cx="376" cy="588" r="12" class="c0"/>
<circle cx="384" cy="790" r="12" class="c0"/>
<circle cx="464" cy="556" r="12" class="c0"/>
<circle cx="480" cy="1230" r="12" class="c0"/>
<circle cx="480" cy="842" r="12" class="c0"/>
<circle cx="458" cy="816" r="12" class="c0"/>
<circle cx="458" cy="642" r="12" class="c0"/>
<circle cx="388" cy="682" r="12" class="c0"/>
<circle cx="424" cy="1236" r="12" class="c0"/>
<circle cx="492" cy="662" r="12" class="c0"/>
<circle cx="480" cy="776" r="12" class="c0"/>
<circle cx="490" cy="580" r="12" class="c0"/>
<circle cx="490" cy="906" r="12" class="c0"/>
<circle cx="488" cy="694" r="12" class="c0"/>
<circle cx="390" cy="880" r="12" class="c0"/>
<circle cx="388" cy="1000" r="12" class="c0"/>
<circle cx="374" cy="910" r="12" class="c0"/>
<circle cx="316" cy="862" r="12" class="c0"/>
<circle cx="532" cy="728" r="12" class="c0"/>
<circle cx="342" cy="1156" r="12" class="c0"/>
<circle cx="372" cy="490" r="12" class="c0"/>
<circle cx="464" cy="682" r="12" class="c0"/>
<circle cx="380" cy="1074" r="12" class="c0"/>
<circle cx="562" cy="716" r="10" class="c0"/>
<circle cx="326" cy="782" r="10" class="c0"/>
<circle cx="412" cy="1040" r="10" class="c0"/>
<circle cx="454" cy="1082" r="10" class="c0"/>
<circle cx="486" cy="986" r="10" class="c0"/>
<circle cx="326" cy="1380" r="10" class="c0"/>
<circle cx="296" cy="1282" r="10" class="c0"/>
<circle cx="526" cy="1070" r="10" class="c0"/>
<circle cx="424" cy="880" r="10" class="c0"/>
<circle cx="498" cy="608" r="10" class="c0"/>
<circle cx="376" cy="1038" r="10" class="c0"/>
<circle cx="506" cy="1240" r="10" class="c0"/>
<circle cx="340" cy="1100" r="10" class="c0"/>
<circle cx="376" cy="1174" r="10" class="c0"/>
<circle cx="428" cy="1092" r="10" class="c0"/>
<circle cx="392" cy="936" r="10" class="c0"/>
<circle cx="350" cy="1000" r="10" class="c0"/>
<circle cx="544" cy="620" r="10" class="c0"/>
<circle cx="344" cy="926" r="10" class="c0"/>
<circle cx="380" cy="638" r="10" class="c0"/>
<circle cx="500" cy="1008" r="10" class="c0"/>
<circle cx="448" cy="572" r="10" class="c0"/>
<circle cx="450" cy="924" r="10" class="c0"/>
<circle cx="364" cy="852" r="10" class="c0"/>
<circle cx="344" cy="1198" r="10" class="c0"/>
<circle cx="402" cy="1196" r="10" class="c0"/>
<circle cx="342" cy="822" r="10" class="c0"/>
<circle cx="372" cy="556" r="10" class="c0"/>
<circle cx="496" cy="738" r="10" class="c0"/>
<circle cx="398" cy="722" r="10" class="c0"/>
<circle cx="416" cy="684" r="10" class="c0"/>
<circle cx="398" cy="1240" r="10" class="c0"/>
<circle cx="364" cy="520" r="10" class="c0"/>
<circle cx="460" cy="968" r="10" class="c0"/>
<circle cx="442" cy="1212" r="10" class="c0"/>
<circle cx="444" cy="1004" r="10" class="c0"/>
<circle cx="338" cy="652" r="10" class="c0"/>
<circle cx="522" cy="1290" r="10" class="c0"/>
<circle cx="498" cy="1216" r="10" class="c0"/>
<circle cx="488" cy="1074" r="10" class="c0"/>
<circle cx="418" cy="1154" r="10" class="c0"/>
<circle cx="360" cy="944" r="10" class="c0"/>
<circle cx="478" cy="718" r="10" class="c0"/>
<circle cx="340" cy="1244" r="10" class="c0"/>
<circle cx="344" cy="1348" r="10" class="c0"/>
<circle cx="498" cy="1192" r="10" class="c0"/>
<circle cx="482" cy="872" r="10" class="c0"/>
<circle cx="336" cy="986" r="10" class="c0"/>
<circle cx="400" cy="550" r="10" class="c0"/>
<circle cx="356" cy="796" r="10" class="c0"/>
<circle cx="546" cy="1230" r="10" class="c0"/>
<circle cx="374" cy="752" r="10" class="c0"/>
<circle cx="408" cy="490" r="10" class="c0"/>
<circle cx="456" cy="504" r="10" class="c0"/>
<circle cx="532" cy="636" r="10" class="c0"/>
<circle cx="492" cy="812" r="10" class="c0"/>
<circle cx="516" cy="686" r="10" class="c0"/>
<circle cx="374" cy="958" r="10" class="c0"/>
<circle cx="474" cy="604" r="10" class="c0"/>
<circle cx="436" cy="1180" r="10" class="c0"/>
<circle cx="454" cy="474" r="10" class="c0"/>
<circle cx="334" cy="760" r="10" class="c0"/>
<circle cx="520" cy="1092" r="10" class="c0"/>
<circle cx="568" cy="1298" r="10" class="c0"/>
<circle cx="422" cy="938" r="10" class="c0"/>
<circle cx="420" cy="398" r="10" class="c0"/>
<circle cx="280" cy="858" r="10" class="c0"/>
<circle cx="508" cy="1110" r="10" class="c0"/>
<circle cx="412" cy="578" r="10" class="c0"/>
<circle cx="376" cy="1218" r="10" class="c0"/>
<circle cx="422" cy="424" r="10" class="c0"/>
<circle cx="412" cy="520" r="10" class="c0"/>
<circle cx="318" cy="1148" r="10" class="c0"/>
<circle cx="506" cy="1168" r="10" class="c0"/>
<circle cx="448" cy="664" r="10" class="c0"/>
<circle cx="482" cy="530" r="10" class="c0"/>
<circle cx="424" cy="536" r="10" class="c0"/>
<circle cx="442" cy="1038" r="10" class="c0"/>
<circle cx="484" cy="1040" r="10" class="c0"/>
<circle cx="466" cy="740" r="10" class="c0"/>
<circle cx="406" cy="600" r="10" class="c0"/>
<circle cx="478" cy="1152" r="10" class="c0"/>
<circle cx="370" cy="1340" r="10" class="c0"/>
<circle cx="422" cy="970" r="10" class="c0"/>
<circle cx="372" cy="458" r="10" class="c0"/>
<circle cx="348" cy="886" r="10" class="c0"/>
<circle cx="360" cy="718" r="10" class="c0"/>
<circle cx="444" cy="602" r="10" class="c0"/>
<circle cx="420" cy="778" r="10" class="c0"/>
<circle cx="492" cy="1126" r="10" class="c0"/>
<circle cx="406" cy="954" r="10" class="c0"/>
<circle cx="348" cy="706" r="10" class="c0"/>
<circle cx="556" cy="694" r="10" class="c0"/>
<circle cx="402" cy="978" r="10" class="c0"/>
<circle cx="364" cy="1370" r="10" class="c0"/>
<circle cx="378" cy="1252" r="10" class="c0"/>
<circle cx="330" cy="844" r="10" class="c0"/>
<circle cx="530" cy="1018" r="10" class="c0"/>
<circle cx="510" cy="1376" r="10" class="c0"/>
<circle cx="392" cy="510" r="10" class="c0"/>
<circle cx="536" cy="1184" r="8" class="c0"/>
<circle cx="474" cy="1092" r="8" class="c0"/>
<circle cx="476" cy="1194" r="8" class="c0"/>
<circle cx="412" cy="892" r="8" class="c0"/>
<circle cx="504" cy="1032" r="8" class="c0"/>
<circle cx="534" cy="706" r="8" class="c0"/>
<circle cx="394" cy="762" r="8" class="c0"/>
<circle cx="442" cy="832" r="8" class="c0"/>
<circle cx="396" cy="624" r="8" class="c0"/>
<circle cx="438" cy="808" r="8" class="c0"/>
<circle cx="330" cy="1036" r="8" class="c0"/>
<circle cx="458" cy="1244" r="8" class="c0"/>
<circle cx="292" cy="830" r="8" class="c0"/>
<circle cx="484" cy="1104" r="8" class="c0"/>
<circle cx="494" cy="1286" r="8" class="c0"/>
<circle cx="414" cy="836" r="8" class="c0"/>
<circle cx="532" cy="596" r="8" class="c0"/>
<circle cx="464" cy="946" r="8" class="c0"/>
<circle cx="498" cy="1346" r="8" class="c0"/>
<circle cx="540" cy="684" r="8" class="c0"/>
<circle cx="416" cy="1002" r="8" class="c0"/>
<circle cx="346" cy="1044" r="8" class="c0"/>
<circle cx="318" cy="1300" r="8" class="c0"/>
<circle cx="354" cy="424" r="8" class="c0"/>
<circle cx="478" cy="448" r="8" class="c0"/>
<circle cx="524" cy="1364" r="8" class="c0"/>
<circle cx="344" cy="968" r="8" class="c0"/>
<circle cx="364" cy="1092" r="8" class="c0"/>
<circle cx="536" cy="660" r="8" class="c0"/>
<circle cx="332" cy="680" r="8" class="c0"/>
<circle cx="416" cy="804" r="8" class="c0"/>
<circle cx="294" cy="1312" r="8" class="c0"/>
<circle cx="296" cy="1256" r="8" class="c0"/>
<circle cx="400" cy="698" r="8" class="c0"/>
<circle cx="484" cy="420" r="8" class="c0"/>
<circle cx="504" cy="456" r="8" class="c0"/>
<circle cx="502" cy="946" r="8" class="c0"/>
<circle cx="502" cy="716" r="8" class="c0"/>
<circle cx="442" cy="890" r="8" class="c0"/>
<circle cx="510" cy="872" r="8" class="c0"/>
<circle cx="340" cy="612" r="8" class="c0"/>
<circle cx="496" cy="436" r="8" class="c0"/>
<circle cx="456" cy="768" r="8" class="c0"/>
<circle cx="566" cy="1260" r="8" class="c0"/>
<circle cx="424" cy="1068" r="8" class="c0"/>
<circle cx="546" cy="1280" r="8" class="c0"/>
<circle cx="420" cy="664" r="8" class="c0"/>
<circle cx="344" cy="442" r="8" class="c0"/>
<circle cx="524" cy="1314" r="8" class="c0"/>
<circle cx="438" cy="1146" r="8" class="c0"/>
<circle cx="406" cy="914" r="8" class="c0"/>
<circle cx="432" cy="694" r="8" class="c0"/>
<circle cx="398" cy="1146" r="8" class="c0"/>
<circle cx="410" cy="1118" r="8" class="c0"/>
<circle cx="530" cy="1254" r="8" class="c0"/>
<circle cx="310" cy="1202" r="8" class="c0"/>
<circle cx="458" cy="844" r="8" class="c0"/>
<circle cx="306" cy="1220" r="8" class="c0"/>
<circle cx="350" cy="1284" r="8" class="c0"/>
<circle cx="398" cy="408" r="8" class="c0"/>
<circle cx="530" cy="1044" r="8" class="c0"/>
<circle cx="442" cy="708" r="8" class="c0"/>
<circle cx="522" cy="984" r="8" class="c0"/>
<circle cx="420" cy="752" r="8" class="c0"/>
<circle cx="314" cy="1236" r="8" class="c0"/>
<circle cx="370" cy="1146" r="8" class="c0"/>
<circle cx="468" cy="898" r="8" class="c0"/>
<circle cx="312" cy="1264" r="8" class="c0"/>
<circle cx="466" cy="1004" r="8" class="c0"/>
<circle cx="462" cy="868" r="8" class="c0"/>
<circle cx="322" cy="1192" r="8" class="c0"/>
<circle cx="358" cy="638" r="8" class="c0"/>
<circle cx="520" cy="624" r="8" class="c0"/>
<circle cx="472" cy="400" r="8" class="c0"/>
<circle cx="474" cy="926" r="8" class="c0"/>
<circle cx="402" cy="666" r="8" class="c0"/>
<circle cx="474" cy="802" r="8" class="c0"/>
<circle cx="534" cy="1144" r="8" class="c0"/>
<circle cx="516" cy="584" r="8" class="c0"/>
<circle cx="500" cy="858" r="8" class="c0"/>
<circle cx="360" cy="770" r="8" class="c0"/>
<circle cx="408" cy="856" r="8" class="c0"/>
<circle cx="434" cy="586" r="8" class="c0"/>
<circle cx="434" cy="854" r="8" class="c0"/>
<circle cx="338" cy="1130" r="8" class="c0"/>
<circle cx="386" cy="536" r="8" class="c0"/>
<circle cx="500" cy="924" r="8" class="c0"/>
<circle cx="448" cy="786" r="8" class="c0"/>
<circle cx="482" cy="750" r="8" class="c0"/>
<circle cx="428" cy="990" r="8" class="c0"/>
<circle cx="488" cy="1368" r="8" class="c0"/>
<circle cx="442" cy="754" r="8" class="c0"/>
<circle cx="462" cy="524" r="8" class="c0"/>
<circle cx="342" cy="1026" r="8" class="c0"/>
<circle cx="346" cy="860" r="8" class="c0"/>
<circle cx="328" cy="728" r="8" class="c0"/>
<circle cx="444" cy="448" r="8" class="c0"/>
<circle cx="312" cy="828" r="8" class="c0"/>
<circle cx="456" cy="1018" r="8" class="c0"/>
<circle cx="434" cy="1118" r="8" class="c0"/>
<circle cx="346" cy="746" r="8" class="c0"/>
<circle cx="376" cy="814" r="8" class="c0"/>
<circle cx="282" cy="816" r="8" class="c0"/>
<circle cx="554" cy="646" r="8" class="c0"/>
<circle cx="570" cy="614" r="8" class="c0"/>
<circle cx="414" cy="1020" r="8" class="c0"/>
<circle cx="362" cy="574" r="8" class="c0"/>
<circle cx="324" cy="1058" r="8" class="c0"/>
<circle cx="366" cy="620" r="8" class="c0"/>
<circle cx="380" cy="428" r="8" class="c0"/>
<circle cx="428" cy="488" r="8" class="c0"/>
<circle cx="376" cy="398" r="8" class="c0"/>
<circle cx="512" cy="654" r="8" class="c0"/>
<circle cx="308" cy="770" r="8" class="c0"/>
<circle cx="362" cy="1056" r="8" class="c0"/>
<circle cx="304" cy="792" r="8" class="c0"/>
<circle cx="326" cy="1086" r="8" class="c0"/>
<circle cx="484" cy="942" r="8" class="c0"/>
<circle cx="398" cy="1168" r="8" class="c0"/>
<circle cx="342" cy="492" r="8" class="c0"/>
<circle cx="362" cy="970" r="8" class="c0"/>
<circle cx="468" cy="1176" r="8" class="c0"/>
<circle cx="362" cy="738" r="8" class="c0"/>
<circle cx="406" cy="1076" r="8" class="c0"/>
<circle cx="382" cy="1102" r="8" class="c0"/>
<circle cx="376" cy="864" r="8" class="c0"/>
<circle cx="510" cy="966" r="8" class="c0"/>
<circle cx="378" cy="700" r="8" class="c0"/>
<circle cx="374" cy="662" r="8" class="c0"/>
<circle cx="552" cy="1172" r="8" class="c0"/>
<circle cx="452" cy="392" r="8" class="c0"/>
<circle cx="446" cy="1058" r="8" class="c0"/>
<circle cx="366" cy="878" r="8" class="c0"/>
<circle cx="448" cy="1192" r="8" class="c0"/>
<circle cx="332" cy="1282" r="8" class="c0"/>
<circle cx="556" cy="1248" r="8" class="c0"/>
<circle cx="310" cy="1114" r="8" class="c0"/>
<circle cx="454" cy="1106" r="8" class="c0"/>
<circle cx="290" cy="880" r="8" class="c0"/>
<circle cx="358" cy="1328" r="8" class="c0"/>
<circle cx="322" cy="1168" r="8" class="c0"/>
<circle cx="402" cy="642" r="8" class="c0"/>
<circle cx="438" cy="734" r="8" class="c0"/>
<circle cx="464" cy="1116" r="8" class="c0"/>
<circle cx="562" cy="738" r="8" class="c0"/>
<circle cx="502" cy="1302" r="8" class="c0"/>
<circle cx="426" cy="720" r="8" class="c0"/>
<circle cx="264" cy="846" r="8" class="c0"/>
<circle cx="506" cy="1322" r="8" class="c0"/>
<circle cx="520" cy="1222" r="8" class="c0"/>
<circle cx="370" cy="1276" r="8" class="c0"/>
<circle cx="358" cy="1226" r="8" class="c0"/>
<circle cx="356" cy="1114" r="8" class="c0"/>
<circle cx="352" cy="462" r="8" class="c0"/>
<circle cx="274" cy="892" r="8" class="c0"/>
<circle cx="406" cy="742" r="8" class="c0"/>
<circle cx="308" cy="1178" r="8" class="c0"/>
<circle cx="360" cy="1302" r="8" class="c0"/>
<circle cx="400" cy="1218" r="8" class="c0"/>
<circle cx="366" cy="686" r="8" class="c0"/>
<circle cx="336" cy="800" r="8" class="c0"/>
<circle cx="462" cy="430" r="8" class="c0"/>
<circle cx="354" cy="1138" r="8" class="c0"/>
<circle cx="370" cy="986" r="8" class="c0"/>
<circle cx="444" cy="958" r="8" class="c0"/>
<circle cx="502" cy="512" r="8" class="c0"/>
<circle cx="520" cy="1342" r="8" class="c0"/>
<circle cx="544" cy="1298" r="8" class="c0"/>
<circle cx="396" cy="902" r="8" class="c0"/>
<circle cx="466" cy="584" r="8" class="c0"/>
<circle cx="432" cy="506" r="8" class="c0"/>
<circle cx="548" cy="1134" r="8" class="c0"/>
<circle cx="486" cy="504" r="8" class="c0"/>
<circle cx="360" cy="1188" r="8" class="c0"/>
<circle cx="464" cy="1060" r="8" class="c0"/>
<circle cx="392" cy="654" r="8" class="c0"/>
<circle cx="330" cy="424" r="8" class="c0"/>
<circle cx="502" cy="640" r="8" class="c0"/>
<circle cx="480" cy="966" r="8" class="c0"/>
<circle cx="486" cy="624" r="8" class="c0"/>
<circle cx="454" cy="1136" r="8" class="c0"/>
<circle cx="300" cy="810" r="8" class="c0"/>
<circle cx="364" cy="408" r="8" class="c0"/>
<circle cx="542" cy="1162" r="8" class="c0"/>
<circle cx="338" cy="950" r="8" class="c0"/>
<circle cx="534" cy="1120" r="8" class="c0"/>
<circle cx="364" cy="1206" r="8" class="c0"/>
<circle cx="504" cy="566" r="8" class="c0"/>
<circle cx="356" cy="1076" r="8" class="c0"/>
<circle cx="422" cy="558" r="8" class="c0"/>
<circle cx="440" cy="546" r="8" class="c0"/>
<circle cx="556" cy="1194" r="8" class="c0"/>
<circle cx="486" cy="1180" r="8" class="c0"/>
<circle cx="506" cy="536" r="8" class="c0"/>
<circle cx="386" cy="740" r="8" class="c0"/>
<circle cx="330" cy="1016" r="8" class="c0"/>
<circle cx="424" cy="826" r="8" class="c0"/>
<circle cx="500" cy="834" r="8" class="c0"/>
<circle cx="378" cy="1320" r="8" class="c0"/>
<circle cx="504" cy="892" r="8" class="c0"/>
<circle cx="506" cy="1060" r="8" class="c0"/>
<circle cx="412" cy="440" r="8" class="c0"/>
<circle cx="478" cy="1378" r="8" class="c0"/>
<circle cx="472" cy="466" r="8" class="c0"/>
<circle cx="508" cy="1078" r="8" class="c0"/>
<circle cx="386" cy="568" r="8" class="c0"/>
<circle cx="406" cy="1100" r="8" class="c0"/>
<circle cx="434" cy="438" r="8" class="c0"/>
<circle cx="564" cy="1218" r="8" class="c0"/>
<circle cx="402" cy="814" r="8" class="c0"/>
<circle cx="512" cy="994" r="8" class="c0"/>
<circle cx="440" cy="524" r="8" class="c0"/>
<circle cx="496" cy="1094" r="8" class="c0"/>
<circle cx="296" cy="1230" r="8" class="c0"/>
<circle cx="462" cy="1216" r="8" class="c0"/>
<circle cx="336" cy="1074" r="8" class="c0"/>
<circle cx="448" cy="622" r="8" class="c0"/>
<circle cx="414" cy="710" r="8" class="c0"/>
<circle cx="564" cy="632" r="8" class="c0"/>
<circle cx="396" cy="388" r="6" class="c0"/>
<circle cx="364" cy="830" r="6" class="c0"/>
<circle cx="350" cy="668" r="6" class="c0"/>
<circle cx="320" cy="886" r="6" class="c0"/>
<circle cx="522" cy="1154" r="6" class="c0"/>
<circle cx="474" cy="1250" r="6" class="c0"/>
<circle cx="574" cy="1274" r="6" class="c0"/>
<circle cx="316" cy="1098" r="6" class="c0"/>
<circle cx="536" cy="1270" r="6" class="c0"/>
<circle cx="370" cy="1008" r="6" class="c0"/>
<circle cx="384" cy="612" r="6" class="c0"/>
<circle cx="430" cy="612" r="6" class="c0"/>
<circle cx="482" cy="1258" r="6" class="c0"/>
<circle cx="350" cy="622" r="6" class="c0"/>
<circle cx="304" cy="848" r="6" class="c0"/>
<circle cx="448" cy="984" r="6" class="c0"/>
<circle cx="386" cy="1024" r="6" class="c0"/>
<circle cx="286" cy="906" r="6" class="c0"/>
<circle cx="354" cy="838" r="6" class="c0"/>
<circle cx="276" cy="834" r="6" class="c0"/>
<circle cx="380" cy="716" r="6" class="c0"/>
<circle cx="296" cy="918" r="6" class="c0"/>
<circle cx="468" cy="988" r="6" class="c0"/>
<circle cx="486" cy="1022" r="6" class="c0"/>
<circle cx="466" cy="1038" r="6" class="c0"/>
<circle cx="440" cy="976" r="6" class="c0"/>
<circle cx="378" cy="1198" r="6" class="c0"/>
<circle cx="506" cy="424" r="6" class="c0"/>
<circle cx="452" cy="1226" r="6" class="c0"/>
<circle cx="350" cy="598" r="6" class="c0"/>
<circle cx="524" cy="1172" r="6" class="c0"/>
<circle cx="420" cy="1216" r="6" class="c0"/>
<circle cx="416" cy="1172" r="6" class="c0"/>
<circle cx="546" cy="1260" r="6" class="c0"/>
<circle cx="430" cy="764" r="6" class="c0"/>
<circle cx="444" cy="1256" r="6" class="c0"/>
<circle cx="360" cy="898" r="6" class="c0"/>
<circle cx="326" cy="696" r="6" class="c0"/>
<circle cx="322" cy="818" r="6" class="c0"/>
<circle cx="412" cy="1134" r="6" class="c0"/>
<circle cx="332" cy="878" r="6" class="c0"/>
<circle cx="398" cy="1056" r="6" class="c0"/>
<circle cx="484" cy="558" r="6" class="c0"/>
<circle cx="336" cy="906" r="6" class="c0"/>
<circle cx="480" cy="386" r="6" class="c0"/>
<circle cx="328" cy="1112" r="6" class="c0"/>
<circle cx="470" cy="486" r="6" class="c0"/>
<circle cx="408" cy="1254" r="6" class="c0"/>
<circle cx="322" cy="746" r="6" class="c0"/>
<circle cx="538" cy="1102" r="6" class="c0"/>
<circle cx="516" cy="604" r="6" class="c0"/>
<circle cx="516" cy="1196" r="6" class="c0"/>
<circle cx="546" cy="742" r="6" class="c0"/>
<circle cx="408" cy="470" r="6" class="c0"/>
<circle cx="556" cy="606" r="6" class="c0"/>
<circle cx="492" cy="1312" r="6" class="c0"/>
<circle cx="518" cy="926" r="6" class="c0"/>
<circle cx="454" cy="728" r="6" class="c0"/>
<circle cx="502" cy="1148" r="6" class="c0"/>
<circle cx="306" cy="1130" r="6" class="c0"/>
<circle cx="402" cy="776" r="6" class="c0"/>
<circle cx="468" cy="660" r="6" class="c0"/>
<circle cx="332" cy="1178" r="6" class="c0"/>
<circle cx="378" cy="770" r="6" class="c0"/>
<circle cx="364" cy="604" r="6" class="c0"/>
<circle cx="462" cy="706" r="6" class="c0"/>
<circle cx="390" cy="482" r="6" class="c0"/>
<circle cx="426" cy="1198" r="6" class="c0"/>
<circle cx="412" cy="632" r="6" class="c0"/>
<circle cx="350" cy="1264" r="6" class="c0"/>
<circle cx="348" cy="684" r="6" class="c0"/>
<circle cx="360" cy="1020" r="6" class="c0"/>
<circle cx="498" cy="550" r="6" class="c0"/>
<circle cx="466" cy="624" r="6" class="c0"/>
<circle cx="472" cy="376" r="6" class="c0"/>
<circle cx="364" cy="1242" r="6" class="c0"/>
<circle cx="494" cy="408" r="6" class="c0"/>
<circle cx="458" cy="884" r="6" class="c0"/>
<circle cx="310" cy="1316" r="6" class="c0"/>
<circle cx="488" cy="460" r="6" class="c0"/>
<circle cx="360" cy="1256" r="6" class="c0"/>
<circle cx="488" cy="794" r="6" class="c0"/>
<circle cx="356" cy="500" r="6" class="c0"/>
<circle cx="514" cy="472" r="6" class="c0"/>
<circle cx="354" cy="912" r="6" class="c0"/>
<circle cx="512" cy="442" r="6" class="c0"/>
<circle cx="340" cy="630" r="6" class="c0"/>
<circle cx="444" cy="870" r="6" class="c0"/>
<circle cx="452" cy="534" r="6" class="c0"/>
<circle cx="322" cy="1250" r="6" class="c0"/>
<circle cx="318" cy="804" r="6" class="c0"/>
<circle cx="378" cy="1016" r="6" class="c0"/>
<circle cx="482" cy="640" r="6" class="c0"/>
<circle cx="508" cy="804" r="6" class="c0"/>
<circle cx="354" cy="478" r="6" class="c0"/>
<circle cx="314" cy="1074" r="6" class="c0"/>
<circle cx="512" cy="910" r="6" class="c0"/>
<circle cx="382" cy="1156" r="6" class="c0"/>
<circle cx="320" cy="1128" r="6" class="c0"/>
<circle cx="476" cy="1134" r="6" class="c0"/>
<circle cx="552" cy="1150" r="6" class="c0"/>
<circle cx="380" cy="976" r="6" class="c0"/>
<circle cx="454" cy="906" r="6" class="c0"/>
<circle cx="520" cy="944" r="6" class="c0"/>
<circle cx="498" cy="786" r="6" class="c0"/>
<circle cx="328" cy="1262" r="6" class="c0"/>
<circle cx="416" cy="730" r="6" class="c0"/>
<circle cx="508" cy="1356" r="6" class="c0"/>
<circle cx="396" cy="426" r="6" class="c0"/>
<circle cx="304" cy="1162" r="6" class="c0"/>
<circle cx="348" cy="510" r="6" class="c0"/>
<circle cx="570" cy="1240" r="6" class="c0"/>
<circle cx="438" cy="772" r="6" class="c0"/>
<circle cx="358" cy="658" r="6" class="c0"/>
<circle cx="284" cy="1302" r="6" class="c0"/>
<circle cx="344" cy="1370" r="6" class="c0"/>
<circle cx="386" cy="1188" r="6" class="c0"/>
<circle cx="416" cy="618" r="6" class="c0"/>
<circle cx="362" cy="1160" r="6" class="c0"/>
<circle cx="490" cy="1248" r="6" class="c0"/>
<circle cx="434" cy="388" r="6" class="c0"/>
<circle cx="392" cy="1092" r="6" class="c0"/>
<circle cx="434" cy="1022" r="6" class="c0"/>
<circle cx="298" cy="1190" r="6" class="c0"/>
<circle cx="554" cy="664" r="6" class="c0"/>
<circle cx="320" cy="1362" r="6" class="c0"/>
<circle cx="424" cy="1128" r="6" class="c0"/>
<circle cx="464" cy="792" r="6" class="c0"/>
<circle cx="366" cy="436" r="6" class="c0"/>
<circle cx="406" cy="790" r="6" class="c0"/>
<circle cx="398" cy="1018" r="6" class="c0"/>
<circle cx="436" cy="676" r="6" class="c0"/>
<circle cx="344" cy="784" r="6" class="c0"/>
<circle cx="472" cy="514" r="6" class="c0"/>
<circle cx="450" cy="694" r="6" class="c0"/>
<circle cx="392" cy="852" r="6" class="c0"/>
<circle cx="350" cy="1174" r="6" class="c0"/>
<circle cx="498" cy="764" r="6" class="c0"/>
<circle cx="428" cy="1256" r="6" class="c0"/>
<circle cx="426" cy="1050" r="6" class="c0"/>
<circle cx="478" cy="1210" r="6" class="c0"/>
<circle cx="432" cy="792" r="6" class="c0"/>
<circle cx="476" cy="1014" r="6" class="c0"/>
<circle cx="362" cy="540" r="6" class="c0"/>
<circle cx="418" cy="1186" r="6" class="c0"/>
<circle cx="374" cy="932" r="6" class="c0"/>
<circle cx="528" cy="1236" r="6" class="c0"/>
<circle cx="374" cy="1292" r="6" class="c0"/>
<circle cx="442" cy="942" r="6" class="c0"/>
<circle cx="410" cy="764" r="6" class="c0"/>
<circle cx="388" cy="1206" r="6" class="c0"/>
<circle cx="548" cy="598" r="6" class="c0"/>
<circle cx="518" cy="710" r="6" class="c0"/>
<circle cx="526" cy="672" r="6" class="c0"/>
<circle cx="346" cy="1064" r="6" class="c0"/>
<circle cx="536" cy="1084" r="6" class="c0"/>
<circle cx="306" cy="882" r="6" class="c0"/>
<circle cx="514" cy="1042" r="6" class="c0"/>
<circle cx="462" cy="452" r="6" class="c0"/>
<circle cx="364" cy="1128" r="6" class="c0"/>
<circle cx="476" cy="652" r="6" class="c0"/>
<circle cx="414" cy="1058" r="6" class="c0"/>
<circle cx="324" cy="1000" r="6" class="c0"/>
<circle cx="450" cy="858" r="6" class="c0"/>
<circle cx="358" cy="1034" r="6" class="c0"/>
<circle cx="528" cy="1000" r="6" class="c0"/>
<circle cx="372" cy="1112" r="6" class="c0"/>
<circle cx="494" cy="1384" r="6" class="c0"/>
<circle cx="290" cy="800" r="6" class="c0"/>
<circle cx="396" cy="1032" r="6" class="c0"/>
<circle cx="376" cy="730" r="6" class="c0"/>
<circle cx="490" cy="1332" r="6" class="c0"/>
<circle cx="512" cy="730" r="6" class="c0"/>
<circle cx="386" cy="468" r="6" class="c0"/>
<circle cx="462" cy="412" r="6" class="c0"/>
<circle cx="424" cy="596" r="6" class="c0"/>
<circle cx="526" cy="956" r="6" class="c0"/>
<circle cx="396" cy="586" r="6" class="c0"/>
<circle cx="510" cy="848" r="6" class="c0"/>
<circle cx="444" cy="1234" r="6" class="c0"/>
<circle cx="344" cy="726" r="6" class="c0"/>
<circle cx="580" cy="624" r="6" class="c0"/>
<circle cx="482" cy="1350" r="6" class="c0"/>
<circle cx="328" cy="636" r="6" class="c0"/>
<circle cx="330" cy="894" r="6" class="c0"/>
<circle cx="328" cy="970" r="6" class="c0"/>
<circle cx="390" cy="966" r="6" class="c0"/>
<circle cx="346" cy="1384" r="6" class="c0"/>
<circle cx="330" cy="712" r="6" class="c0"/>
<circle cx="480" cy="1058" r="6" class="c0"/>
<circle cx="446" cy="490" r="6" class="c0"/>
<circle cx="478" cy="822" r="6" class="c0"/>
<circle cx="488" cy="394" r="6" class="c0"/>
<circle cx="378" cy="1356" r="6" class="c0"/>
<circle cx="418" cy="648" r="6" class="c0"/>
<circle cx="326" cy="664" r="6" class="c0"/>
<circle cx="278" cy="914" r="6" class="c0"/>
<circle cx="314" cy="754" r="6" class="c0"/>
<circle cx="546" cy="1110" r="6" class="c0"/>
<circle cx="468" cy="758" r="6" class="c0"/>
<circle cx="362" cy="924" r="6" class="c0"/>
<circle cx="580" cy="1286" r="6" class="c0"/>
<circle cx="500" cy="976" r="6" class="c0"/>
<circle cx="316" cy="1284" r="6" class="c0"/>
<circle cx="296" cy="1210" r="6" class="c0"/>
<circle cx="360" cy="816" r="6" class="c0"/>
<circle cx="464" cy="914" r="6" class="c0"/>
<circle cx="426" cy="1030" r="6" class="c0"/>
<circle cx="390" cy="1048" r="6" class="c0"/>
</svg>
