<?xml version="1.0" encoding="utf-8"?>
<svg xmlns="http://www.w3.org/2000/svg"
     xmlns:xlink="http://www.w3.org/1999/xlink" width="1920" height="1440" >

            <defs>
            <style type="text/css"><![CDATA[
circle {stroke: none;}
.c0 {fill: #000000;}
]]></style>
            </defs>
<rect x="0" y="0" width="1920" height="1440" fill="white"/>
<circle cx="364" cy="988" r="12" class="c0"/>
<circle cx="346" cy="932" r="12" class="c0"/>
<circle cx="548" cy="664" r="12" class="c0"/>
<circle cx="410" cy="754" r="12" class="c0"/>
<circle cx="428" cy="1100" r="12" class="c0"/>
<circle cx="558" cy="1238" r="12" class="c0"/>
<circle cx="304" cy="804" r="12" class="c0"/>
<circle cx="510" cy="856" r="12" class="c0"/>
<circle cx="378" cy="262" r="12" class="c0"/>
<circle cx="506" cy="1156" r="12" class="c0"/>
<circle cx="384" cy="1152" r="12" class="c0"/>
<circle cx="582" cy="528" r="12" class="c0"/>
<circle cx="424" cy="1284" r="12" class="c0"/>
<circle cx="332" cy="794" r="12" class="c0"/>
<circle cx="400" cy="670" r="12" class="c0"/>
<circle cx="390" cy="1088" r="12" class="c0"/>
<circle cx="366" cy="1348" r="12" class="c0"/>
<circle cx="552" cy="1112" r="12" class="c0"/>
<circle cx="348" cy="626" r="12" class="c0"/>
<circle cx="372" cy="694" r="12" class="c0"/>
<circle cx="316" cy="646" r="12" class="c0"/>
<circle cx="264" cy="892" r="12" class="c0"/>
<circle cx="460" cy="902" r="12" class="c0"/>
<circle cx="508" cy="1234" r="12" class="c0"/>
<circle cx="414" cy="804" r="12" class="c0"/>
<circle cx="374" cy="766" r="12" class="c0"/>
<circle cx="440" cy="642" r="12" class="c0"/>
<circle cx="310" cy="968" r="12" class="c0"/>
<circle cx="480" cy="1126" r="12" class="c0"/>
<circle cx="222" cy="802" r="12" class="c0"/>
<circle cx="358" cy="1198" r="12" class="c0"/>
<circle cx="426" cy="432" r="12" class="c0"/>
<circle cx="468" cy="674" r="12" class="c0"/>
<circle cx="324" cy="368" r="12" class="c0"/>
<circle cx="548" cy="1334" r="12" class="c0"/>
<circle cx="302" cy="1358" r="12" class="c0"/>
<circle cx="354" cy="414" r="12" class="c0"/>
<circle cx="460" cy="300" r="12" class="c0"/>
<circle cx="304" cy="1096" r="12" class="c0"/>
<circle cx="432" cy="396" r="12" class="c0"/>
<circle cx="504" cy="956" r="12" class="c0"/>
<circle cx="566" cy="560" r="12" class="c0"/>
<circle cx="240" cy="764" r="12" class="c0"/>
<circle cx="530" cy="1358" r="12" class="c0"/>
<circle cx="316" cy="1146" r="12" class="c0"/>
<circle cx="432" cy="776" r="12" class="c0"/>
<circle cx="454" cy="1158" r="12" class="c0"/>
<circle cx="534" cy="626" r="12" class="c0"/>
<circle cx="476" cy="1346" r="12" class="c0"/>
<circle cx="362" cy="664" r="12" class="c0"/>
<circle cx="366" cy="1382" r="12" class="c0"/>
<circle cx="420" cy="496" r="12" class="c0"/>
<circle cx="442" cy="592" r="12" class="c0"/>
<circle cx="480" cy="276" r="12" class="c0"/>
<circle cx="366" cy="804" r="12" class="c0"/>
<circle cx="400" cy="482" r="12" class="c0"/>
<circle cx="294" cy="828" r="12" class="c0"/>
<circle cx="314" cy="1022" r="12" class="c0"/>
<circle cx="520" cy="486" r="12" class="c0"/>
<circle cx="344" cy="1128" r="12" class="c0"/>
<circle cx="360" cy="348" r="12" class="c0"/>
<circle cx="208" cy="868" r="12" class="c0"/>
<circle cx="454" cy="326" r="12" class="c0"/>
<circle cx="466" cy="512" r="12" class="c0"/>
<circle cx="472" cy="986" r="10" class="c0"/>
<circle cx="382" cy="406" r="10" class="c0"/>
<circle cx="484" cy="246" r="10" class="c0"/>
<circle cx="406" cy="1370" r="10" class="c0"/>
<circle cx="332" cy="430" r="10" class="c0"/>
<circle cx="392" cy="540" r="10" class="c0"/>
<circle cx="526" cy="1130" r="10" class="c0"/>
<circle cx="448" cy="1368" r="10" class="c0"/>
<circle cx="364" cy="880" r="10" class="c0"/>
<circle cx="444" cy="720" r="10" class="c0"/>
<circle cx="312" cy="844" r="10" class="c0"/>
<circle cx="486" cy="1098" r="10" class="c0"/>
<circle cx="526" cy="536" r="10" class="c0"/>
<circle cx="464" cy="1294" r="10" class="c0"/>
<circle cx="308" cy="752" r="10" class="c0"/>
<circle cx="340" cy="1028" r="10" class="c0"/>
<circle cx="394" cy="784" r="10" class="c0"/>
<circle cx="356" cy="780" r="10" class="c0"/>
<circle cx="284" cy="736" r="10" class="c0"/>
<circle cx="588" cy="568" r="10" class="c0"/>
<circle cx="370" cy="610" r="10" class="c0"/>
<circle cx="522" cy="1322" r="10" class="c0"/>
<circle cx="356" cy="572" r="10" class="c0"/>
<circle cx="586" cy="1362" r="10" class="c0"/>
<circle cx="388" cy="1060" r="10" class="c0"/>
<circle cx="346" cy="480" r="10" class="c0"/>
<circle cx="388" cy="1126" r="10" class="c0"/>
<circle cx="324" cy="1246" r="10" class="c0"/>
<circle cx="436" cy="1130" r="10" class="c0"/>
<circle cx="520" cy="374" r="10" class="c0"/>
<circle cx="464" cy="1090" r="10" class="c0"/>
<circle cx="510" cy="1336" r="10" class="c0"/>
<circle cx="582" cy="628" r="10" class="c0"/>
<circle cx="412" cy="412" r="10" class="c0"/>
<circle cx="428" cy="832" r="10" class="c0"/>
<circle cx="500" cy="306" r="10" class="c0"/>
<circle cx="344" cy="1088" r="10" class="c0"/>
<circle cx="508" cy="764" r="10" class="c0"/>
<circle cx="358" cy="296" r="10" class="c0"/>
<circle cx="562" cy="1148" r="10" class="c0"/>
<circle cx="508" cy="616" r="10" class="c0"/>
<circle cx="506" cy="1294" r="10" class="c0"/>
<circle cx="368" cy="440" r="10" class="c0"/>
<circle cx="542" cy="1202" r="10" class="c0"/>
<circle cx="476" cy="1380" r="10" class="c0"/>
<circle cx="326" cy="604" r="10" class="c0"/>
<circle cx="452" cy="558" r="10" class="c0"/>
<circle cx="328" cy="1316" r="10" class="c0"/>
<circle cx="470" cy="860" r="10" class="c0"/>
<circle cx="426" cy="556" r="10" class="c0"/>
<circle cx="512" cy="1376" r="10" class="c0"/>
<circle cx="362" cy="514" r="10" class="c0"/>
<circle cx="476" cy="828" r="10" class="c0"/>
<circle cx="346" cy="728" r="10" class="c0"/>
<circle cx="420" cy="966" r="10" class="c0"/>
<circle cx="374" cy="932" r="10" class="c0"/>
<circle cx="316" cy="908" r="10" class="c0"/>
<circle cx="410" cy="254" r="10" class="c0"/>
<circle cx="316" cy="292" r="10" class="c0"/>
<circle cx="490" cy="368" r="10" class="c0"/>
<circle cx="422" cy="918" r="10" class="c0"/>
<circle cx="438" cy="310" r="10" class="c0"/>
<circle cx="436" cy="1170" r="10" class="c0"/>
<circle cx="476" cy="388" r="10" class="c0"/>
<circle cx="408" cy="374" r="10" class="c0"/>
<circle cx="406" cy="600" r="10" class="c0"/>
<circle cx="336" cy="308" r="10" class="c0"/>
<circle cx="450" cy="982" r="10" class="c0"/>
<circle cx="544" cy="1422" r="10" class="c0"/>
<circle cx="432" cy="282" r="10" class="c0"/>
<circle cx="380" cy="558" r="10" class="c0"/>
<circle cx="492" cy="532" r="10" class="c0"/>
<circle cx="412" cy="1228" r="10" class="c0"/>
<circle cx="408" cy="1072" r="10" class="c0"/>
<circle cx="496" cy="1186" r="10" class="c0"/>
<circle cx="314" cy="704" r="10" class="c0"/>
<circle cx="460" cy="1254" r="10" class="c0"/>
<circle cx="304" cy="330" r="10" class="c0"/>
<circle cx="316" cy="936" r="10" class="c0"/>
<circle cx="512" cy="1112" r="10" class="c0"/>
<circle cx="494" cy="676" r="10" class="c0"/>
<circle cx="452" cy="366" r="10" class="c0"/>
<circle cx="364" cy="1426" r="10" class="c0"/>
<circle cx="524" cy="1268" r="10" class="c0"/>
<circle cx="400" cy="880" r="10" class="c0"/>
<circle cx="386" cy="504" r="10" class="c0"/>
<circle cx="478" cy="608" r="10" class="c0"/>
<circle cx="346" cy="1372" r="10" class="c0"/>
<circle cx="556" cy="1296" r="10" class="c0"/>
<circle cx="356" cy="1248" r="10" class="c0"/>
<circle cx="456" cy="816" r="10" class="c0"/>
<circle cx="546" cy="344" r="10" class="c0"/>
<circle cx="464" cy="456" r="10" class="c0"/>
<circle cx="322" cy="520" r="10" class="c0"/>
<circle cx="498" cy="988" r="10" class="c0"/>
<circle cx="348" cy="1308" r="10" class="c0"/>
<circle cx="396" cy="1272" r="10" class="c0"/>
<circle cx="510" cy="918" r="10" class="c0"/>
<circle cx="402" cy="1036" r="10" class="c0"/>
<circle cx="288" cy="694" r="10" class="c0"/>
<circle cx="340" cy="338" r="10" class="c0"/>
<circle cx="322" cy="1422" r="10" class="c0"/>
<circle cx="474" cy="346" r="10" class="c0"/>
<circle cx="396" cy="936" r="10" class="c0"/>
<circle cx="522" cy="996" r="10" class="c0"/>
<circle cx="422" cy="682" r="10" class="c0"/>
<circle cx="472" cy="1064" r="10" class="c0"/>
<circle cx="520" cy="1072" r="10" class="c0"/>
<circle cx="346" cy="532" r="10" class="c0"/>
<circle cx="336" cy="1164" r="10" class="c0"/>
<circle cx="612" cy="636" r="10" class="c0"/>
<circle cx="580" cy="656" r="10" class="c0"/>
<circle cx="424" cy="996" r="10" class="c0"/>
<circle cx="250" cy="804" r="10" class="c0"/>
<circle cx="310" cy="546" r="10" class="c0"/>
<circle cx="486" cy="974" r="10" class="c0"/>
<circle cx="336" cy="828" r="10" class="c0"/>
<circle cx="390" cy="1414" r="10" class="c0"/>
<circle cx="490" cy="742" r="10" class="c0"/>
<circle cx="490" cy="1022" r="10" class="c0"/>
<circle cx="374" cy="330" r="10" class="c0"/>
<circle cx="500" cy="1262" r="10" class="c0"/>
<circle cx="314" cy="1076" r="10" class="c0"/>
<circle cx="466" cy="1018" r="10" class="c0"/>
<circle cx="572" cy="1256" r="10" class="c0"/>
<circle cx="426" cy="460" r="10" class="c0"/>
<circle cx="384" cy="974" r="10" class="c0"/>
<circle cx="496" cy="574" r="10" class="c0"/>
<circle cx="508" cy="650" r="10" class="c0"/>
<circle cx="324" cy="498" r="10" class="c0"/>
<circle cx="330" cy="452" r="10" class="c0"/>
<circle cx="342" cy="1066" r="10" class="c0"/>
<circle cx="334" cy="1400" r="10" class="c0"/>
<circle cx="362" cy="960" r="10" class="c0"/>
<circle cx="564" cy="1214" r="10" class="c0"/>
<circle cx="476" cy="708" r="10" class="c0"/>
<circle cx="500" cy="808" r="10" class="c0"/>
<circle cx="430" cy="702" r="10" class="c0"/>
<circle cx="510" cy="340" r="10" class="c0"/>
<circle cx="382" cy="1248" r="10" class="c0"/>
<circle cx="502" cy="830" r="10" class="c0"/>
<circle cx="358" cy="1284" r="10" class="c0"/>
<circle cx="298" cy="572" r="10" class="c0"/>
<circle cx="308" cy="1326" r="10" class="c0"/>
<circle cx="378" cy="1294" r="10" class="c0"/>
<circle cx="472" cy="644" r="10" class="c0"/>
<circle cx="404" cy="708" r="10" class="c0"/>
<circle cx="320" cy="1190" r="10" class="c0"/>
<circle cx="544" cy="1090" r="8" class="c0"/>
<circle cx="506" cy="1088" r="8" class="c0"/>
<circle cx="380" cy="630" r="8" class="c0"/>
<circle cx="528" cy="576" r="8" class="c0"/>
<circle cx="428" cy="340" r="8" class="c0"/>
<circle cx="446" cy="260" r="8" class="c0"/>
<circle cx="554" cy="1386" r="8" class="c0"/>
<circle cx="190" cy="850" r="8" class="c0"/>
<circle cx="552" cy="1074" r="8" class="c0"/>
<circle cx="346" cy="976" r="8" class="c0"/>
<circle cx="344" cy="282" r="8" class="c0"/>
<circle cx="442" cy="498" r="8" class="c0"/>
<circle cx="512" cy="740" r="8" class="c0"/>
<circle cx="330" cy="884" r="8" class="c0"/>
<circle cx="310" cy="684" r="8" class="c0"/>
<circle cx="404" cy="570" r="8" class="c0"/>
<circle cx="196" cy="832" r="8" class="c0"/>
<circle cx="384" cy="354" r="8" class="c0"/>
<circle cx="390" cy="588" r="8" class="c0"/>
<circle cx="470" cy="936" r="8" class="c0"/>
<circle cx="330" cy="1296" r="8" class="c0"/>
<circle cx="380" cy="304" r="8" class="c0"/>
<circle cx="428" cy="1346" r="8" class="c0"/>
<circle cx="310" cy="618" r="8" class="c0"/>
<circle cx="614" cy="674" r="8" class="c0"/>
<circle cx="456" cy="422" r="8" class="c0"/>
<circle cx="444" cy="668" r="8" class="c0"/>
<circle cx="460" cy="1204" r="8" class="c0"/>
<circle cx="476" cy="918" r="8" class="c0"/>
<circle cx="484" cy="492" r="8" class="c0"/>
<circle cx="282" cy="358" r="8" class="c0"/>
<circle cx="418" cy="1120" r="8" class="c0"/>
<circle cx="508" cy="420" r="8" class="c0"/>
<circle cx="582" cy="678" r="8" class="c0"/>
<circle cx="372" cy="1112" r="8" class="c0"/>
<circle cx="382" cy="1022" r="8" class="c0"/>
<circle cx="464" cy="1320" r="8" class="c0"/>
<circle cx="492" cy="332" r="8" class="c0"/>
<circle cx="344" cy="764" r="8" class="c0"/>
<circle cx="326" cy="276" r="8" class="c0"/>
<circle cx="536" cy="1248" r="8" class="c0"/>
<circle cx="354" cy="552" r="8" class="c0"/>
<circle cx="414" cy="726" r="8" class="c0"/>
<circle cx="382" cy="460" r="8" class="c0"/>
<circle cx="478" cy="554" r="8" class="c0"/>
<circle cx="558" cy="530" r="8" class="c0"/>
<circle cx="234" cy="860" r="8" class="c0"/>
<circle cx="400" cy="1002" r="8" class="c0"/>
<circle cx="286" cy="778" r="8" class="c0"/>
<circle cx="454" cy="624" r="8" class="c0"/>
<circle cx="352" cy="1414" r="8" class="c0"/>
<circle cx="446" cy="1242" r="8" class="c0"/>
<circle cx="468" cy="960" r="8" class="c0"/>
<circle cx="426" cy="604" r="8" class="c0"/>
<circle cx="424" cy="658" r="8" class="c0"/>
<circle cx="406" cy="456" r="8" class="c0"/>
<circle cx="564" cy="1360" r="8" class="c0"/>
<circle cx="492" cy="640" r="8" class="c0"/>
<circle cx="540" cy="1026" r="8" class="c0"/>
<circle cx="398" cy="854" r="8" class="c0"/>
<circle cx="444" cy="472" r="8" class="c0"/>
<circle cx="384" cy="286" r="8" class="c0"/>
<circle cx="540" cy="1164" r="8" class="c0"/>
<circle cx="320" cy="1286" r="8" class="c0"/>
<circle cx="452" cy="1186" r="8" class="c0"/>
<circle cx="496" cy="1042" r="8" class="c0"/>
<circle cx="620" cy="656" r="8" class="c0"/>
<circle cx="294" cy="292" r="8" class="c0"/>
<circle cx="520" cy="410" r="8" class="c0"/>
<circle cx="436" cy="1028" r="8" class="c0"/>
<circle cx="446" cy="1306" r="8" class="c0"/>
<circle cx="430" cy="860" r="8" class="c0"/>
<circle cx="418" cy="1330" r="8" class="c0"/>
<circle cx="390" cy="818" r="8" class="c0"/>
<circle cx="412" cy="1160" r="8" class="c0"/>
<circle cx="490" cy="1406" r="8" class="c0"/>
<circle cx="304" cy="376" r="8" class="c0"/>
<circle cx="388" cy="892" r="8" class="c0"/>
<circle cx="472" cy="1238" r="8" class="c0"/>
<circle cx="284" cy="638" r="8" class="c0"/>
<circle cx="410" cy="1248" r="8" class="c0"/>
<circle cx="446" cy="1340" r="8" class="c0"/>
<circle cx="568" cy="596" r="8" class="c0"/>
<circle cx="538" cy="1054" r="8" class="c0"/>
<circle cx="306" cy="1394" r="8" class="c0"/>
<circle cx="312" cy="590" r="8" class="c0"/>
<circle cx="420" cy="894" r="8" class="c0"/>
<circle cx="296" cy="864" r="8" class="c0"/>
<circle cx="380" cy="912" r="8" class="c0"/>
<circle cx="526" cy="1412" r="8" class="c0"/>
<circle cx="482" cy="1280" r="8" class="c0"/>
<circle cx="458" cy="750" r="8" class="c0"/>
<circle cx="300" cy="1044" r="8" class="c0"/>
<circle cx="586" cy="1338" r="8" class="c0"/>
<circle cx="352" cy="594" r="8" class="c0"/>
<circle cx="318" cy="1372" r="8" class="c0"/>
<circle cx="310" cy="1270" r="8" class="c0"/>
<circle cx="528" cy="774" r="8" class="c0"/>
<circle cx="334" cy="694" r="8" class="c0"/>
<circle cx="218" cy="850" r="8" class="c0"/>
<circle cx="556" cy="508" r="8" class="c0"/>
<circle cx="490" cy="1224" r="8" class="c0"/>
<circle cx="508" cy="520" r="8" class="c0"/>
<circle cx="354" cy="1146" r="8" class="c0"/>
<circle cx="520" cy="814" r="8" class="c0"/>
<circle cx="342" cy="1426" r="8" class="c0"/>
<circle cx="366" cy="1012" r="8" class="c0"/>
<circle cx="522" cy="1206" r="8" class="c0"/>
<circle cx="496" cy="464" r="8" class="c0"/>
<circle cx="292" cy="654" r="8" class="c0"/>
<circle cx="282" cy="664" r="8" class="c0"/>
<circle cx="452" cy="940" r="8" class="c0"/>
<circle cx="266" cy="864" r="8" class="c0"/>
<circle cx="372" cy="1036" r="8" class="c0"/>
<circle cx="514" cy="552" r="8" class="c0"/>
<circle cx="290" cy="1212" r="8" class="c0"/>
<circle cx="388" cy="1198" r="8" class="c0"/>
<circle cx="480" cy="790" r="8" class="c0"/>
<circle cx="540" cy="388" r="8" class="c0"/>
<circle cx="530" cy="936" r="8" class="c0"/>
<circle cx="438" cy="1048" r="8" class="c0"/>
<circle cx="408" cy="530" r="8" class="c0"/>
<circle cx="528" cy="506" r="8" class="c0"/>
<circle cx="370" cy="1316" r="8" class="c0"/>
<circle cx="610" cy="532" r="8" class="c0"/>
<circle cx="488" cy="1206" r="8" class="c0"/>
<circle cx="364" cy="1172" r="8" class="c0"/>
<circle cx="368" cy="244" r="8" class="c0"/>
<circle cx="492" cy="1364" r="8" class="c0"/>
<circle cx="420" cy="1020" r="8" class="c0"/>
<circle cx="338" cy="1228" r="8" class="c0"/>
<circle cx="382" cy="1330" r="8" class="c0"/>
<circle cx="296" cy="1160" r="8" class="c0"/>
<circle cx="358" cy="846" r="8" class="c0"/>
<circle cx="396" cy="620" r="8" class="c0"/>
<circle cx="438" cy="538" r="8" class="c0"/>
<circle cx="444" cy="614" r="8" class="c0"/>
<circle cx="494" cy="1314" r="8" class="c0"/>
<circle cx="562" cy="1276" r="8" class="c0"/>
<circle cx="404" cy="284" r="8" class="c0"/>
<circle cx="378" cy="864" r="8" class="c0"/>
<circle cx="562" cy="646" r="8" class="c0"/>
<circle cx="404" cy="308" r="8" class="c0"/>
<circle cx="578" cy="584" r="8" class="c0"/>
<circle cx="376" cy="372" r="8" class="c0"/>
<circle cx="262" cy="828" r="8" class="c0"/>
<circle cx="464" cy="588" r="8" class="c0"/>
<circle cx="354" cy="1106" r="8" class="c0"/>
<circle cx="546" cy="544" r="8" class="c0"/>
<circle cx="286" cy="606" r="8" class="c0"/>
<circle cx="346" cy="1266" r="8" class="c0"/>
<circle cx="324" cy="476" r="8" class="c0"/>
<circle cx="468" cy="480" r="8" class="c0"/>
<circle cx="456" cy="1036" r="8" class="c0"/>
<circle cx="522" cy="882" r="8" class="c0"/>
<circle cx="594" cy="688" r="8" class="c0"/>
<circle cx="532" cy="1290" r="8" class="c0"/>
<circle cx="444" cy="878" r="8" class="c0"/>
<circle cx="538" cy="604" r="8" class="c0"/>
<circle cx="278" cy="804" r="8" class="c0"/>
<circle cx="348" cy="684" r="8" class="c0"/>
<circle cx="288" cy="1176" r="8" class="c0"/>
<circle cx="368" cy="1078" r="8" class="c0"/>
<circle cx="264" cy="284" r="8" class="c0"/>
<circle cx="322" cy="346" r="8" class="c0"/>
<circle cx="280" cy="876" r="8" class="c0"/>
<circle cx="486" cy="416" r="8" class="c0"/>
<circle cx="404" cy="1136" r="8" class="c0"/>
<circle cx="506" cy="710" r="8" class="c0"/>
<circle cx="438" cy="1226" r="8" class="c0"/>
<circle cx="342" cy="866" r="8" class="c0"/>
<circle cx="442" cy="742" r="8" class="c0"/>
<circle cx="400" cy="336" r="8" class="c0"/>
<circle cx="448" cy="444" r="8" class="c0"/>
<circle cx="498" cy="596" r="8" class="c0"/>
<circle cx="398" cy="1180" r="8" class="c0"/>
<circle cx="502" cy="438" r="8" class="c0"/>
<circle cx="476" cy="1170" r="8" class="c0"/>
<circle cx="568" cy="1170" r="8" class="c0"/>
<circle cx="334" cy="548" r="8" class="c0"/>
<circle cx="250" cy="848" r="8" class="c0"/>
<circle cx="470" cy="884" r="8" class="c0"/>
<circle cx="510" cy="1052" r="8" class="c0"/>
<circle cx="570" cy="1424" r="8" class="c0"/>
<circle cx="356" cy="1044" r="8" class="c0"/>
<circle cx="238" cy="884" r="8" class="c0"/>
<circle cx="456" cy="1274" r="8" class="c0"/>
<circle cx="396" cy="1314" r="8" class="c0"/>
<circle cx="496" cy="1076" r="8" class="c0"/>
<circle cx="414" cy="638" r="8" class="c0"/>
<circle cx="564" cy="358" r="8" class="c0"/>
<circle cx="438" cy="1074" r="8" class="c0"/>
<circle cx="456" cy="1224" r="8" class="c0"/>
<circle cx="336" cy="996" r="8" class="c0"/>
<circle cx="302" cy="1424" r="8" class="c0"/>
<circle cx="386" cy="726" r="8" class="c0"/>
<circle cx="390" cy="1386" r="8" class="c0"/>
<circle cx="334" cy="740" r="8" class="c0"/>
<circle cx="578" cy="506" r="8" class="c0"/>
<circle cx="520" cy="1022" r="8" class="c0"/>
<circle cx="534" cy="1310" r="8" class="c0"/>
<circle cx="512" cy="286" r="8" class="c0"/>
<circle cx="282" cy="326" r="8" class="c0"/>
<circle cx="492" cy="1428" r="8" class="c0"/>
<circle cx="456" cy="790" r="8" class="c0"/>
<circle cx="314" cy="868" r="8" class="c0"/>
<circle cx="332" cy="1210" r="8" class="c0"/>
<circle cx="512" cy="1196" r="8" class="c0"/>
<circle cx="546" cy="494" r="8" class="c0"/>
<circle cx="394" cy="648" r="8" class="c0"/>
<circle cx="532" cy="910" r="8" class="c0"/>
<circle cx="310" cy="728" r="8" class="c0"/>
<circle cx="380" cy="836" r="8" class="c0"/>
<circle cx="520" cy="598" r="8" class="c0"/>
<circle cx="290" cy="1380" r="8" class="c0"/>
<circle cx="466" cy="772" r="8" class="c0"/>
<circle cx="294" cy="1074" r="8" class="c0"/>
<circle cx="330" cy="1046" r="8" class="c0"/>
<circle cx="296" cy="1192" r="8" class="c0"/>
<circle cx="580" cy="1300" r="8" class="c0"/>
<circle cx="292" cy="1336" r="8" class="c0"/>
<circle cx="478" cy="312" r="8" class="c0"/>
<circle cx="588" cy="1386" r="8" class="c0"/>
<circle cx="372" cy="534" r="8" class="c0"/>
<circle cx="258" cy="744" r="8" class="c0"/>
<circle cx="554" cy="1184" r="8" class="c0"/>
<circle cx="266" cy="784" r="8" class="c0"/>
<circle cx="346" cy="362" r="8" class="c0"/>
<circle cx="456" cy="398" r="8" class="c0"/>
<circle cx="328" cy="400" r="8" class="c0"/>
<circle cx="478" cy="1196" r="8" class="c0"/>
<circle cx="360" cy="1226" r="8" class="c0"/>
<circle cx="492" cy="894" r="8" class="c0"/>
<circle cx="526" cy="1040" r="8" class="c0"/>
<circle cx="508" cy="1402" r="8" class="c0"/>
<circle cx="350" cy="702" r="8" class="c0"/>
<circle cx="340" cy="1346" r="8" class="c0"/>
<circle cx="454" cy="656" r="8" class="c0"/>
<circle cx="378" cy="1184" r="8" class="c0"/>
<circle cx="284" cy="1296" r="8" class="c0"/>
<circle cx="454" cy="688" r="8" class="c0"/>
<circle cx="410" cy="1200" r="8" class="c0"/>
<circle cx="486" cy="844" r="8" class="c0"/>
<circle cx="516" cy="670" r="8" class="c0"/>
<circle cx="420" cy="356" r="8" class="c0"/>
<circle cx="228" cy="824" r="8" class="c0"/>
<circle cx="366" cy="736" r="8" class="c0"/>
<circle cx="396" cy="1354" r="8" class="c0"/>
<circle cx="476" cy="432" r="8" class="c0"/>
<circle cx="298" cy="1132" r="8" class="c0"/>
<circle cx="514" cy="796" r="8" class="c0"/>
<circle cx="354" cy="324" r="8" class="c0"/>
<circle cx="308" cy="1122" r="8" class="c0"/>
<circle cx="484" cy="762" r="8" class="c0"/>
<circle cx="374" cy="1266" r="8" class="c0"/>
<circle cx="444" cy="914" r="8" class="c0"/>
<circle cx="400" cy="428" r="8" class="c0"/>
<circle cx="304" cy="308" r="8" class="c0"/>
<circle cx="420" cy="1190" r="8" class="c0"/>
<circle cx="372" cy="470" r="8" class="c0"/>
<circle cx="428" cy="1254" r="8" class="c0"/>
<circle cx="570" cy="614" r="8" class="c0"/>
<circle cx="528" cy="310" r="8" class="c0"/>
<circle cx="314" cy="1228" r="8" class="c0"/>
<circle cx="506" cy="388" r="8" class="c0"/>
<circle cx="330" cy="668" r="8" class="c0"/>
<circle cx="456" cy="840" r="8" class="c0"/>
<circle cx="466" cy="544" r="8" class="c0"/>
<circle cx="416" cy="326" r="8" class="c0"/>
<circle cx="520" cy="972" r="8" class="c0"/>
<circle cx="338" cy="256" r="8" class="c0"/>
<circle cx="498" cy="404" r="8" class="c0"/>
<circle cx="396" cy="392" r="8" class="c0"/>
<circle cx="328" cy="856" r="8" class="c0"/>
<circle cx="348" cy="898" r="8" class="c0"/>
<circle cx="456" cy="706" r="8" class="c0"/>
<circle cx="308" cy="1172" r="8" class="c0"/>
<circle cx="358" cy="824" r="8" class="c0"/>
<circle cx="348" cy="390" r="8" class="c0"/>
<circle cx="284" cy="308" r="8" class="c0"/>
<circle cx="342" cy="1184" r="8" class="c0"/>
<circle cx="562" cy="1402" r="8" class="c0"/>
<circle cx="574" cy="1348" r="8" class="c0"/>
<circle cx="252" cy="874" r="8" class="c0"/>
<circle cx="406" cy="1296" r="8" class="c0"/>
<circle cx="330" cy="1336" r="8" class="c0"/>
<circle cx="392" cy="1220" r="8" class="c0"/>
<circle cx="422" cy="242" r="8" class="c0"/>
<circle cx="598" cy="1422" r="8" class="c0"/>
<circle cx="356" cy="454" r="8" class="c0"/>
<circle cx="328" cy="570" r="8" class="c0"/>
<circle cx="320" cy="776" r="8" class="c0"/>
<circle cx="288" cy="556" r="8" class="c0"/>
<circle cx="522" cy="1180" r="8" class="c0"/>
<circle cx="326" cy="326" r="8" class="c0"/>
<circle cx="442" cy="518" r="8" class="c0"/>
<circle cx="294" cy="1404" r="8" class="c0"/>
<circle cx="304" cy="1250" r="8" class="c0"/>
<circle cx="524" cy="1096" r="8" class="c0"/>
<circle cx="542" cy="1144" r="8" class="c0"/>
<circle cx="294" cy="1240" r="8" class="c0"/>
<circle cx="286" cy="756" r="8" class="c0"/>
<circle cx="546" cy="570" r="8" class="c0"/>
<circle cx="312" cy="990" r="8" class="c0"/>
<circle cx="422" cy="1148" r="8" class="c0"/>
<circle cx="414" cy="1052" r="8" class="c0"/>
<circle cx="542" cy="974" r="8" class="c0"/>
<circle cx="372" cy="1214" r="8" class="c0"/>
<circle cx="354" cy="752" r="8" class="c0"/>
<circle cx="206" cy="818" r="8" class="c0"/>
<circle cx="404" cy="984" r="8" class="c0"/>
<circle cx="464" cy="258" r="8" class="c0"/>
<circle cx="398" cy="910" r="8" class="c0"/>
<circle cx="462" cy="728" r="8" class="c0"/>
<circle cx="286" cy="1270" r="8" class="c0"/>
<circle cx="532" cy="1394" r="8" class="c0"/>
<circle cx="406" cy="1108" r="8" class="c0"/>
<circle cx="396" cy="446" r="8" class="c0"/>
<circle cx="350" cy="500" r="8" class="c0"/>
<circle cx="448" cy="764" r="8" class="c0"/>
<circle cx="348" cy="1010" r="8" class="c0"/>
<circle cx="326" cy="954" r="8" class="c0"/>
<circle cx="532" cy="648" r="8" class="c0"/>
<circle cx="450" cy="1004" r="8" class="c0"/>
<circle cx="586" cy="1410" r="8" class="c0"/>
<circle cx="282" cy="278" r="8" class="c0"/>
<circle cx="334" cy="1276" r="8" class="c0"/>
<circle cx="368" cy="492" r="8" class="c0"/>
<circle cx="216" cy="888" r="8" class="c0"/>
<circle cx="404" cy="512" r="8" class="c0"/>
<circle cx="496" cy="936" r="8" class="c0"/>
<circle cx="416" cy="1312" r="8" class="c0"/>
<circle cx="498" cy="1390" r="8" class="c0"/>
<circle cx="322" cy="814" r="8" class="c0"/>
<circle cx="438" cy="354" r="8" class="c0"/>
<circle cx="282" cy="714" r="8" class="c0"/>
<circle cx="516" cy="1430" r="8" class="c0"/>
<circle cx="568" cy="1316" r="8" class="c0"/>
<circle cx="402" cy="834" r="8" class="c0"/>
<circle cx="452" cy="1060" r="8" class="c0"/>
<circle cx="296" cy="1310" r="8" class="c0"/>
<circle cx="548" cy="592" r="8" class="c0"/>
<circle cx="278" cy="840" r="8" class="c0"/>
<circle cx="440" cy="570" r="8" class="c0"/>
<circle cx="556" cy="628" r="8" class="c0"/>
<circle cx="544" cy="1222" r="8" class="c0"/>
<circle cx="490" cy="864" r="8" class="c0"/>
<circle cx="440" cy="1200" r="8" class="c0"/>
<circle cx="286" cy="584" r="8" class="c0"/>
<circle cx="432" cy="948" r="8" class="c0"/>
<circle cx="306" cy="1202" r="8" class="c0"/>
<circle cx="420" cy="586" r="8" class="c0"/>
<circle cx="368" cy="586" r="8" class="c0"/>
<circle cx="426" cy="1364" r="8" class="c0"/>
<circle cx="308" cy="888" r="8" class="c0"/>
<circle cx="492" cy="722" r="8" class="c0"/>
<circle cx="336" cy="912" r="8" class="c0"/>
<circle cx="552" cy="368" r="8" class="c0"/>
<circle cx="598" cy="548" r="8" class="c0"/>
<circle cx="542" cy="1002" r="8" class="c0"/>
<circle cx="498" cy="788" r="8" class="c0"/>
<circle cx="414" cy="846" r="8" class="c0"/>
<circle cx="526" cy="1224" r="8" class="c0"/>
<circle cx="566" cy="1194" r="8" class="c0"/>
<circle cx="228" cy="898" r="8" class="c0"/>
<circle cx="378" cy="1400" r="8" class="c0"/>
<circle cx="382" cy="1000" r="8" class="c0"/>
<circle cx="402" cy="1400" r="8" class="c0"/>
<circle cx="484" cy="448" r="8" class="c0"/>
<circle cx="310" cy="1054" r="8" class="c0"/>
<circle cx="348" cy="814" r="8" class="c0"/>
<circle cx="298" cy="1282" r="8" class="c0"/>
<circle cx="600" cy="658" r="8" class="c0"/>
<circle cx="468" cy="568" r="8" class="c0"/>
<circle cx="502" cy="882" r="8" class="c0"/>
<circle cx="526" cy="836" r="8" class="c0"/>
<circle cx="552" cy="1264" r="8" class="c0"/>
<circle cx="532" cy="360" r="8" class="c0"/>
<circle cx="354" cy="264" r="8" class="c0"/>
<circle cx="384" cy="744" r="8" class="c0"/>
<circle cx="290" cy="894" r="8" class="c0"/>
<circle cx="438" cy="808" r="8" class="c0"/>
<circle cx="456" cy="1108" r="8" class="c0"/>
<circle cx="468" cy="408" r="8" class="c0"/>
<circle cx="448" cy="856" r="8" class="c0"/>
<circle cx="374" cy="716" r="6" class="c0"/>
<circle cx="352" cy="648" r="6" class="c0"/>
<circle cx="566" cy="1376" r="6" class="c0"/>
<circle cx="504" cy="1008" r="6" class="c0"/>
<circle cx="594" cy="642" r="6" class="c0"/>
<circle cx="266" cy="716" r="6" class="c0"/>
<circle cx="528" cy="954" r="6" class="c0"/>
<circle cx="476" cy="1422" r="6" class="c0"/>
<circle cx="576" cy="1284" r="6" class="c0"/>
<circle cx="448" cy="962" r="6" class="c0"/>
<circle cx="294" cy="538" r="6" class="c0"/>
<circle cx="284" cy="1250" r="6" class="c0"/>
<circle cx="492" cy="1058" r="6" class="c0"/>
<circle cx="262" cy="268" r="6" class="c0"/>
<circle cx="340" cy="580" r="6" class="c0"/>
<circle cx="326" cy="1110" r="6" class="c0"/>
<circle cx="426" cy="524" r="6" class="c0"/>
<circle cx="456" cy="532" r="6" class="c0"/>
<circle cx="568" cy="342" r="6" class="c0"/>
<circle cx="364" cy="640" r="6" class="c0"/>
<circle cx="298" cy="360" r="6" class="c0"/>
<circle cx="494" cy="348" r="6" class="c0"/>
<circle cx="458" cy="1124" r="6" class="c0"/>
<circle cx="404" cy="1338" r="6" class="c0"/>
<circle cx="316" cy="1212" r="6" class="c0"/>
<circle cx="480" cy="1324" r="6" class="c0"/>
<circle cx="324" cy="1126" r="6" class="c0"/>
<circle cx="516" cy="634" r="6" class="c0"/>
<circle cx="432" cy="372" r="6" class="c0"/>
<circle cx="436" cy="416" r="6" class="c0"/>
<circle cx="352" cy="1396" r="6" class="c0"/>
<circle cx="426" cy="1064" r="6" class="c0"/>
<circle cx="418" cy="872" r="6" class="c0"/>
<circle cx="578" cy="1228" r="6" class="c0"/>
<circle cx="500" cy="480" r="6" class="c0"/>
<circle cx="314" cy="386" r="6" class="c0"/>
<circle cx="468" cy="804" r="6" class="c0"/>
<circle cx="482" cy="226" r="6" class="c0"/>
<circle cx="566" cy="682" r="6" class="c0"/>
<circle cx="416" cy="616" r="6" class="c0"/>
<circle cx="322" cy="1352" r="6" class="c0"/>
<circle cx="554" cy="1046" r="6" class="c0"/>
<circle cx="442" cy="1262" r="6" class="c0"/>
<circle cx="486" cy="624" r="6" class="c0"/>
<circle cx="426" cy="738" r="6" class="c0"/>
<circle cx="332" cy="712" r="6" class="c0"/>
<circle cx="328" cy="980" r="6" class="c0"/>
<circle cx="432" cy="1314" r="6" class="c0"/>
<circle cx="326" cy="624" r="6" class="c0"/>
<circle cx="476" cy="1264" r="6" class="c0"/>
<circle cx="402" cy="554" r="6" class="c0"/>
<circle cx="304" cy="664" r="6" class="c0"/>
<circle cx="400" cy="960" r="6" class="c0"/>
<circle cx="216" cy="834" r="6" class="c0"/>
<circle cx="296" cy="1008" r="6" class="c0"/>
<circle cx="224" cy="778" r="6" class="c0"/>
<circle cx="472" cy="1400" r="6" class="c0"/>
<circle cx="412" cy="780" r="6" class="c0"/>
<circle cx="530" cy="554" r="6" class="c0"/>
<circle cx="508" cy="268" r="6" class="c0"/>
<circle cx="298" cy="718" r="6" class="c0"/>
<circle cx="476" cy="1216" r="6" class="c0"/>
<circle cx="418" cy="298" r="6" class="c0"/>
<circle cx="420" cy="270" r="6" class="c0"/>
<circle cx="430" cy="622" r="6" class="c0"/>
<circle cx="430" cy="256" r="6" class="c0"/>
<circle cx="432" cy="980" r="6" class="c0"/>
<circle cx="540" cy="518" r="6" class="c0"/>
<circle cx="532" cy="1012" r="6" class="c0"/>
<circle cx="286" cy="1430" r="6" class="c0"/>
<circle cx="448" cy="384" r="6" class="c0"/>
<circle cx="528" cy="338" r="6" class="c0"/>
<circle cx="382" cy="1430" r="6" class="c0"/>
<circle cx="382" cy="1362" r="6" class="c0"/>
<circle cx="418" cy="938" r="6" class="c0"/>
<circle cx="464" cy="1360" r="6" class="c0"/>
<circle cx="410" cy="1432" r="6" class="c0"/>
<circle cx="396" cy="270" r="6" class="c0"/>
<circle cx="326" cy="1006" r="6" class="c0"/>
<circle cx="600" cy="1400" r="6" class="c0"/>
<circle cx="290" cy="1112" r="6" class="c0"/>
<circle cx="370" cy="1052" r="6" class="c0"/>
<circle cx="364" cy="1094" r="6" class="c0"/>
<circle cx="362" cy="918" r="6" class="c0"/>
<circle cx="438" cy="898" r="6" class="c0"/>
<circle cx="282" cy="1394" r="6" class="c0"/>
<circle cx="382" cy="678" r="6" class="c0"/>
<circle cx="244" cy="828" r="6" class="c0"/>
<circle cx="250" cy="780" r="6" class="c0"/>
<circle cx="474" cy="752" r="6" class="c0"/>
<circle cx="466" cy="1142" r="6" class="c0"/>
<circle cx="280" cy="856" r="6" class="c0"/>
<circle cx="506" cy="1356" r="6" class="c0"/>
<circle cx="598" cy="618" r="6" class="c0"/>
<circle cx="490" cy="1332" r="6" class="c0"/>
<circle cx="588" cy="1314" r="6" class="c0"/>
<circle cx="478" cy="1044" r="6" class="c0"/>
<circle cx="570" cy="1332" r="6" class="c0"/>
<circle cx="402" cy="736" r="6" class="c0"/>
<circle cx="378" cy="388" r="6" class="c0"/>
<circle cx="260" cy="760" r="6" class="c0"/>
<circle cx="534" cy="326" r="6" class="c0"/>
<circle cx="410" cy="864" r="6" class="c0"/>
<circle cx="482" cy="946" r="6" class="c0"/>
<circle cx="356" cy="1330" r="6" class="c0"/>
<circle cx="584" cy="604" r="6" class="c0"/>
<circle cx="392" cy="320" r="6" class="c0"/>
<circle cx="518" cy="320" r="6" class="c0"/>
<circle cx="360" cy="378" r="6" class="c0"/>
<circle cx="390" cy="242" r="6" class="c0"/>
<circle cx="456" cy="924" r="6" class="c0"/>
<circle cx="554" cy="1132" r="6" class="c0"/>
<circle cx="306" cy="352" r="6" class="c0"/>
<circle cx="508" cy="358" r="6" class="c0"/>
<circle cx="448" cy="244" r="6" class="c0"/>
<circle cx="486" cy="508" r="6" class="c0"/>
<circle cx="482" cy="1146" r="6" class="c0"/>
<circle cx="492" cy="290" r="6" class="c0"/>
<circle cx="322" cy="1388" r="6" class="c0"/>
<circle cx="522" cy="392" r="6" class="c0"/>
<circle cx="358" cy="716" r="6" class="c0"/>
<circle cx="368" cy="396" r="6" class="c0"/>
<circle cx="584" cy="1272" r="6" class="c0"/>
<circle cx="452" cy="346" r="6" class="c0"/>
<circle cx="304" cy="924" r="6" class="c0"/>
<circle cx="238" cy="786" r="6" class="c0"/>
<circle cx="370" cy="1136" r="6" class="c0"/>
<circle cx="546" cy="1372" r="6" class="c0"/>
<circle cx="526" cy="1154" r="6" class="c0"/>
<circle cx="514" cy="896" r="6" class="c0"/>
<circle cx="296" cy="674" r="6" class="c0"/>
<circle cx="310" cy="1302" r="6" class="c0"/>
<circle cx="300" cy="950" r="6" class="c0"/>
<circle cx="380" cy="954" r="6" class="c0"/>
<circle cx="410" cy="948" r="6" class="c0"/>
<circle cx="496" cy="694" r="6" class="c0"/>
<circle cx="532" cy="852" r="6" class="c0"/>
<circle cx="342" cy="1326" r="6" class="c0"/>
<circle cx="406" cy="690" r="6" class="c0"/>
<circle cx="446" cy="1092" r="6" class="c0"/>
<circle cx="486" cy="1000" r="6" class="c0"/>
<circle cx="326" cy="724" r="6" class="c0"/>
<circle cx="488" cy="1298" r="6" class="c0"/>
<circle cx="484" cy="586" r="6" class="c0"/>
<circle cx="302" cy="530" r="6" class="c0"/>
<circle cx="338" cy="380" r="6" class="c0"/>
<circle cx="344" cy="954" r="6" class="c0"/>
<circle cx="498" cy="1348" r="6" class="c0"/>
<circle cx="326" cy="1090" r="6" class="c0"/>
<circle cx="306" cy="278" r="6" class="c0"/>
<circle cx="294" cy="626" r="6" class="c0"/>
<circle cx="388" cy="802" r="6" class="c0"/>
<circle cx="378" cy="1230" r="6" class="c0"/>
<circle cx="492" cy="262" r="6" class="c0"/>
<circle cx="338" cy="642" r="6" class="c0"/>
<circle cx="542" cy="1404" r="6" class="c0"/>
<circle cx="450" cy="276" r="6" class="c0"/>
<circle cx="300" cy="770" r="6" class="c0"/>
<circle cx="562" cy="1096" r="6" class="c0"/>
<circle cx="440" cy="930" r="6" class="c0"/>
<circle cx="288" cy="1146" r="6" class="c0"/>
<circle cx="476" cy="1306" r="6" class="c0"/>
<circle cx="390" cy="522" r="6" class="c0"/>
<circle cx="266" cy="348" r="6" class="c0"/>
<circle cx="514" cy="940" r="6" class="c0"/>
<circle cx="514" cy="466" r="6" class="c0"/>
<circle cx="470" cy="370" r="6" class="c0"/>
<circle cx="446" cy="830" r="6" class="c0"/>
<circle cx="366" cy="278" r="6" class="c0"/>
<circle cx="542" cy="952" r="6" class="c0"/>
<circle cx="244" cy="900" r="6" class="c0"/>
<circle cx="472" cy="738" r="6" class="c0"/>
<circle cx="422" cy="1210" r="6" class="c0"/>
<circle cx="430" cy="480" r="6" class="c0"/>
<circle cx="506" cy="252" r="6" class="c0"/>
<circle cx="486" cy="474" r="6" class="c0"/>
<circle cx="438" cy="1326" r="6" class="c0"/>
<circle cx="234" cy="840" r="6" class="c0"/>
<circle cx="506" cy="498" r="6" class="c0"/>
<circle cx="488" cy="1248" r="6" class="c0"/>
<circle cx="480" cy="874" r="6" class="c0"/>
<circle cx="498" cy="1136" r="6" class="c0"/>
<circle cx="272" cy="704" r="6" class="c0"/>
<circle cx="402" cy="352" r="6" class="c0"/>
<circle cx="382" cy="660" r="6" class="c0"/>
<circle cx="510" cy="584" r="6" class="c0"/>
<circle cx="278" cy="1420" r="6" class="c0"/>
<circle cx="286" cy="1320" r="6" class="c0"/>
<circle cx="274" cy="768" r="6" class="c0"/>
<circle cx="326" cy="754" r="6" class="c0"/>
<circle cx="384" cy="430" r="6" class="c0"/>
<circle cx="364" cy="900" r="6" class="c0"/>
<circle cx="348" cy="1214" r="6" class="c0"/>
<circle cx="306" cy="784" r="6" class="c0"/>
<circle cx="486" cy="1160" r="6" class="c0"/>
<circle cx="282" cy="1350" r="6" class="c0"/>
<circle cx="288" cy="374" r="6" class="c0"/>
<circle cx="316" cy="462" r="6" class="c0"/>
<circle cx="290" cy="342" r="6" class="c0"/>
<circle cx="302" cy="634" r="6" class="c0"/>
<circle cx="430" cy="752" r="6" class="c0"/>
<circle cx="362" cy="1404" r="6" class="c0"/>
<circle cx="396" cy="1238" r="6" class="c0"/>
<circle cx="256" cy="728" r="6" class="c0"/>
<circle cx="302" cy="602" r="6" class="c0"/>
<circle cx="340" cy="514" r="6" class="c0"/>
<circle cx="508" cy="1032" r="6" class="c0"/>
<circle cx="534" cy="872" r="6" class="c0"/>
<circle cx="388" cy="604" r="6" class="c0"/>
<circle cx="468" cy="1184" r="6" class="c0"/>
<circle cx="516" cy="1252" r="6" class="c0"/>
<circle cx="482" cy="688" r="6" class="c0"/>
<circle cx="278" cy="680" r="6" class="c0"/>
<circle cx="586" cy="1432" r="6" class="c0"/>
<circle cx="480" cy="1080" r="6" class="c0"/>
<circle cx="372" cy="422" r="6" class="c0"/>
<circle cx="378" cy="646" r="6" class="c0"/>
<circle cx="350" cy="438" r="6" class="c0"/>
<circle cx="378" cy="576" r="6" class="c0"/>
<circle cx="452" cy="1138" r="6" class="c0"/>
<circle cx="490" cy="658" r="6" class="c0"/>
<circle cx="504" cy="1418" r="6" class="c0"/>
<circle cx="360" cy="1062" r="6" class="c0"/>
<circle cx="470" cy="626" r="6" class="c0"/>
<circle cx="460" cy="874" r="6" class="c0"/>
<circle cx="454" cy="1076" r="6" class="c0"/>
<circle cx="390" cy="686" r="6" class="c0"/>
<circle cx="414" cy="1354" r="6" class="c0"/>
<circle cx="474" cy="1154" r="6" class="c0"/>
<circle cx="348" cy="246" r="6" class="c0"/>
<circle cx="598" cy="518" r="6" class="c0"/>
<circle cx="444" cy="1290" r="6" class="c0"/>
<circle cx="276" cy="820" r="6" class="c0"/>
<circle cx="360" cy="862" r="6" class="c0"/>
<circle cx="410" cy="546" r="6" class="c0"/>
<circle cx="494" cy="552" r="6" class="c0"/>
<circle cx="342" cy="656" r="6" class="c0"/>
<circle cx="490" cy="910" r="6" class="c0"/>
<circle cx="434" cy="1012" r="6" class="c0"/>
<circle cx="546" cy="1282" r="6" class="c0"/>
<circle cx="552" cy="612" r="6" class="c0"/>
<circle cx="446" cy="408" r="6" class="c0"/>
<circle cx="562" cy="580" r="6" class="c0"/>
<circle cx="514" cy="724" r="6" class="c0"/>
<circle cx="428" cy="880" r="6" class="c0"/>
<circle cx="410" cy="1090" r="6" class="c0"/>
<circle cx="532" cy="1110" r="6" class="c0"/>
<circle cx="338" cy="846" r="6" class="c0"/>
<circle cx="534" cy="894" r="6" class="c0"/>
<circle cx="478" cy="466" r="6" class="c0"/>
<circle cx="332" cy="1360" r="6" class="c0"/>
<circle cx="320" cy="416" r="6" class="c0"/>
<circle cx="394" cy="296" r="6" class="c0"/>
<circle cx="482" cy="810" r="6" class="c0"/>
<circle cx="580" cy="548" r="6" class="c0"/>
<circle cx="572" cy="1392" r="6" class="c0"/>
<circle cx="530" cy="400" r="6" class="c0"/>
<circle cx="462" cy="216" r="6" class="c0"/>
<circle cx="292" cy="1058" r="6" class="c0"/>
<circle cx="540" cy="478" r="6" class="c0"/>
<circle cx="454" cy="488" r="6" class="c0"/>
<circle cx="508" cy="686" r="6" class="c0"/>
<circle cx="424" cy="1038" r="6" class="c0"/>
<circle cx="550" cy="1016" r="6" class="c0"/>
<circle cx="296" cy="986" r="6" class="c0"/>
<circle cx="506" cy="1212" r="6" class="c0"/>
<circle cx="358" cy="1026" r="6" class="c0"/>
<circle cx="414" cy="1268" r="6" class="c0"/>
<circle cx="568" cy="668" r="6" class="c0"/>
<circle cx="314" cy="1344" r="6" class="c0"/>
<circle cx="384" cy="708" r="6" class="c0"/>
<circle cx="458" cy="606" r="6" class="c0"/>
<circle cx="274" cy="294" r="6" class="c0"/>
<circle cx="364" cy="314" r="6" class="c0"/>
<circle cx="346" cy="882" r="6" class="c0"/>
<circle cx="316" cy="1404" r="6" class="c0"/>
<circle cx="274" cy="340" r="6" class="c0"/>
<circle cx="318" cy="440" r="6" class="c0"/>
<circle cx="334" cy="1102" r="6" class="c0"/>
<circle cx="552" cy="1314" r="6" class="c0"/>
<circle cx="376" cy="788" r="6" class="c0"/>
<circle cx="476" cy="328" r="6" class="c0"/>
<circle cx="566" cy="496" r="6" class="c0"/>
<circle cx="566" cy="1126" r="6" class="c0"/>
<circle cx="336" cy="964" r="6" class="c0"/>
<circle cx="412" cy="824" r="6" class="c0"/>
<circle cx="404" cy="1018" r="6" class="c0"/>
<circle cx="396" cy="766" r="6" class="c0"/>
<circle cx="494" cy="1114" r="6" class="c0"/>
<circle cx="456" cy="1350" r="6" class="c0"/>
<circle cx="294" cy="1024" r="6" class="c0"/>
<circle cx="394" cy="364" r="6" class="c0"/>
<circle cx="568" cy="540" r="6" class="c0"/>
<circle cx="506" cy="454" r="6" class="c0"/>
<circle cx="438" cy="846" r="6" class="c0"/>
<circle cx="292" cy="848" r="6" class="c0"/>
<circle cx="280" cy="622" r="6" class="c0"/>
<circle cx="284" cy="1228" r="6" class="c0"/>
<circle cx="282" cy="1366" r="6" class="c0"/>
<circle cx="426" cy="1238" r="6" class="c0"/>
<circle cx="546" cy="640" r="6" class="c0"/>
<circle cx="324" cy="1062" r="6" class="c0"/>
<circle cx="326" cy="922" r="6" class="c0"/>
<circle cx="288" cy="794" r="6" class="c0"/>
<circle cx="560" cy="332" r="6" class="c0"/>
<circle cx="534" cy="1378" r="6" class="c0"/>
</svg>
