<?xml version="1.0" encoding="utf-8"?>
<svg xmlns="http://www.w3.org/2000/svg"
     xmlns:xlink="http://www.w3.org/1999/xlink" width="1920" height="1440" >

            <defs>
            <style type="text/css"><![CDATA[
circle {stroke: none;}
.c0 {fill: #000000;}
]]></style>
            </defs>
<rect x="0" y="0" width="1920" height="1440" fill="white"/>
<circle cx="590" cy="1310" r="12" class="c0"/>
<circle cx="392" cy="968" r="12" class="c0"/>
<circle cx="454" cy="960" r="12" class="c0"/>
<circle cx="414" cy="688" r="12" class="c0"/>
<circle cx="462" cy="1298" r="12" class="c0"/>
<circle cx="280" cy="732" r="12" class="c0"/>
<circle cx="412" cy="428" r="12" class="c0"/>
<circle cx="362" cy="1378" r="12" class="c0"/>
<circle cx="520" cy="952" r="12" class="c0"/>
<circle cx="344" cy="532" r="12" class="c0"/>
<circle cx="432" cy="1086" r="12" class="c0"/>
<circle cx="432" cy="778" r="12" class="c0"/>
<circle cx="404" cy="906" r="12" class="c0"/>
<circle cx="550" cy="326" r="12" class="c0"/>
<circle cx="546" cy="1292" r="12" class="c0"/>
<circle cx="518" cy="392" r="12" class="c0"/>
<circle cx="460" cy="366" r="12" class="c0"/>
<circle cx="322" cy="332" r="12" class="c0"/>
<circle cx="406" cy="510" r="12" class="c0"/>
<circle cx="360" cy="1320" r="12" class="c0"/>
<circle cx="498" cy="434" r="12" class="c0"/>
<circle cx="384" cy="332" r="12" class="c0"/>
<circle cx="306" cy="364" r="12" class="c0"/>
<circle cx="512" cy="1320" r="12" class="c0"/>
<circle cx="390" cy="358" r="12" class="c0"/>
<circle cx="382" cy="814" r="12" class="c0"/>
<circle cx="376" cy="572" r="12" class="c0"/>
<circle cx="366" cy="1426" r="12" class="c0"/>
<circle cx="418" cy="1296" r="12" class="c0"/>
<circle cx="272" cy="800" r="12" class="c0"/>
<circle cx="480" cy="708" r="12" class="c0"/>
<circle cx="506" cy="1286" r="12" class="c0"/>
<circle cx="524" cy="1100" r="12" class="c0"/>
<circle cx="454" cy="718" r="12" class="c0"/>
<circle cx="292" cy="270" r="12" class="c0"/>
<circle cx="336" cy="1096" r="12" class="c0"/>
<circle cx="432" cy="410" r="12" class="c0"/>
<circle cx="454" cy="684" r="12" class="c0"/>
<circle cx="478" cy="414" r="12" class="c0"/>
<circle cx="354" cy="500" r="12" class="c0"/>
<circle cx="396" cy="1338" r="12" class="c0"/>
<circle cx="430" cy="496" r="12" class="c0"/>
<circle cx="338" cy="884" r="12" class="c0"/>
<circle cx="328" cy="810" r="12" class="c0"/>
<circle cx="374" cy="724" r="12" class="c0"/>
<circle cx="372" cy="888" r="12" class="c0"/>
<circle cx="412" cy="1202" r="12" class="c0"/>
<circle cx="524" cy="1054" r="12" class="c0"/>
<circle cx="356" cy="278" r="12" class="c0"/>
<circle cx="428" cy="1000" r="12" class="c0"/>
<circle cx="326" cy="922" r="12" class="c0"/>
<circle cx="294" cy="1392" r="12" class="c0"/>
<circle cx="436" cy="1024" r="12" class="c0"/>
<circle cx="502" cy="576" r="12" class="c0"/>
<circle cx="464" cy="1060" r="12" class="c0"/>
<circle cx="258" cy="850" r="12" class="c0"/>
<circle cx="330" cy="632" r="12" class="c0"/>
<circle cx="490" cy="370" r="10" class="c0"/>
<circle cx="354" cy="362" r="10" class="c0"/>
<circle cx="378" cy="1296" r="10" class="c0"/>
<circle cx="496" cy="912" r="10" class="c0"/>
<circle cx="380" cy="1248" r="10" class="c0"/>
<circle cx="584" cy="1406" r="10" class="c0"/>
<circle cx="392" cy="644" r="10" class="c0"/>
<circle cx="592" cy="596" r="10" class="c0"/>
<circle cx="308" cy="1058" r="10" class="c0"/>
<circle cx="310" cy="592" r="10" class="c0"/>
<circle cx="414" cy="240" r="10" class="c0"/>
<circle cx="398" cy="1418" r="10" class="c0"/>
<circle cx="516" cy="794" r="10" class="c0"/>
<circle cx="352" cy="980" r="10" class="c0"/>
<circle cx="226" cy="788" r="10" class="c0"/>
<circle cx="430" cy="632" r="10" class="c0"/>
<circle cx="316" cy="1124" r="10" class="c0"/>
<circle cx="464" cy="332" r="10" class="c0"/>
<circle cx="476" cy="1094" r="10" class="c0"/>
<circle cx="310" cy="1016" r="10" class="c0"/>
<circle cx="356" cy="938" r="10" class="c0"/>
<circle cx="430" cy="1048" r="10" class="c0"/>
<circle cx="438" cy="324" r="10" class="c0"/>
<circle cx="436" cy="920" r="10" class="c0"/>
<circle cx="296" cy="338" r="10" class="c0"/>
<circle cx="366" cy="626" r="10" class="c0"/>
<circle cx="366" cy="524" r="10" class="c0"/>
<circle cx="510" cy="704" r="10" class="c0"/>
<circle cx="500" cy="294" r="10" class="c0"/>
<circle cx="566" cy="1360" r="10" class="c0"/>
<circle cx="470" cy="918" r="10" class="c0"/>
<circle cx="464" cy="1144" r="10" class="c0"/>
<circle cx="510" cy="1392" r="10" class="c0"/>
<circle cx="318" cy="872" r="10" class="c0"/>
<circle cx="498" cy="778" r="10" class="c0"/>
<circle cx="372" cy="1126" r="10" class="c0"/>
<circle cx="580" cy="642" r="10" class="c0"/>
<circle cx="458" cy="934" r="10" class="c0"/>
<circle cx="284" cy="782" r="10" class="c0"/>
<circle cx="562" cy="1398" r="10" class="c0"/>
<circle cx="286" cy="628" r="10" class="c0"/>
<circle cx="580" cy="562" r="10" class="c0"/>
<circle cx="372" cy="1208" r="10" class="c0"/>
<circle cx="272" cy="764" r="10" class="c0"/>
<circle cx="498" cy="544" r="10" class="c0"/>
<circle cx="444" cy="582" r="10" class="c0"/>
<circle cx="368" cy="766" r="10" class="c0"/>
<circle cx="504" cy="618" r="10" class="c0"/>
<circle cx="350" cy="336" r="10" class="c0"/>
<circle cx="382" cy="868" r="10" class="c0"/>
<circle cx="300" cy="766" r="10" class="c0"/>
<circle cx="570" cy="586" r="10" class="c0"/>
<circle cx="394" cy="840" r="10" class="c0"/>
<circle cx="232" cy="852" r="10" class="c0"/>
<circle cx="308" cy="1176" r="10" class="c0"/>
<circle cx="394" cy="1128" r="10" class="c0"/>
<circle cx="330" cy="778" r="10" class="c0"/>
<circle cx="514" cy="356" r="10" class="c0"/>
<circle cx="296" cy="850" r="10" class="c0"/>
<circle cx="516" cy="754" r="10" class="c0"/>
<circle cx="534" cy="560" r="10" class="c0"/>
<circle cx="242" cy="828" r="10" class="c0"/>
<circle cx="432" cy="470" r="10" class="c0"/>
<circle cx="606" cy="646" r="10" class="c0"/>
<circle cx="498" cy="738" r="10" class="c0"/>
<circle cx="538" cy="1000" r="10" class="c0"/>
<circle cx="440" cy="610" r="10" class="c0"/>
<circle cx="528" cy="1158" r="10" class="c0"/>
<circle cx="478" cy="844" r="10" class="c0"/>
<circle cx="332" cy="836" r="10" class="c0"/>
<circle cx="494" cy="1062" r="10" class="c0"/>
<circle cx="558" cy="354" r="10" class="c0"/>
<circle cx="572" cy="516" r="10" class="c0"/>
<circle cx="414" cy="372" r="10" class="c0"/>
<circle cx="622" cy="666" r="10" class="c0"/>
<circle cx="502" cy="1228" r="10" class="c0"/>
<circle cx="532" cy="652" r="10" class="c0"/>
<circle cx="556" cy="614" r="10" class="c0"/>
<circle cx="326" cy="952" r="10" class="c0"/>
<circle cx="394" cy="584" r="10" class="c0"/>
<circle cx="458" cy="504" r="10" class="c0"/>
<circle cx="368" cy="1342" r="10" class="c0"/>
<circle cx="336" cy="1030" r="10" class="c0"/>
<circle cx="314" cy="980" r="10" class="c0"/>
<circle cx="262" cy="890" r="10" class="c0"/>
<circle cx="328" cy="1354" r="10" class="c0"/>
<circle cx="542" cy="1118" r="10" class="c0"/>
<circle cx="386" cy="552" r="10" class="c0"/>
<circle cx="356" cy="420" r="10" class="c0"/>
<circle cx="472" cy="640" r="10" class="c0"/>
<circle cx="404" cy="472" r="10" class="c0"/>
<circle cx="478" cy="678" r="10" class="c0"/>
<circle cx="468" cy="764" r="10" class="c0"/>
<circle cx="452" cy="862" r="10" class="c0"/>
<circle cx="332" cy="726" r="10" class="c0"/>
<circle cx="514" cy="726" r="10" class="c0"/>
<circle cx="470" cy="1362" r="10" class="c0"/>
<circle cx="356" cy="458" r="10" class="c0"/>
<circle cx="408" cy="1146" r="10" class="c0"/>
<circle cx="438" cy="1118" r="10" class="c0"/>
<circle cx="342" cy="586" r="10" class="c0"/>
<circle cx="536" cy="844" r="10" class="c0"/>
<circle cx="498" cy="1144" r="10" class="c0"/>
<circle cx="380" cy="910" r="10" class="c0"/>
<circle cx="366" cy="1026" r="10" class="c0"/>
<circle cx="392" cy="1266" r="10" class="c0"/>
<circle cx="202" cy="816" r="10" class="c0"/>
<circle cx="406" cy="1384" r="10" class="c0"/>
<circle cx="518" cy="1210" r="10" class="c0"/>
<circle cx="522" cy="1414" r="10" class="c0"/>
<circle cx="558" cy="484" r="10" class="c0"/>
<circle cx="418" cy="712" r="10" class="c0"/>
<circle cx="316" cy="1378" r="10" class="c0"/>
<circle cx="562" cy="1082" r="10" class="c0"/>
<circle cx="574" cy="1178" r="10" class="c0"/>
<circle cx="526" cy="870" r="10" class="c0"/>
<circle cx="538" cy="922" r="10" class="c0"/>
<circle cx="454" cy="436" r="10" class="c0"/>
<circle cx="426" cy="262" r="10" class="c0"/>
<circle cx="366" cy="1168" r="10" class="c0"/>
<circle cx="540" cy="590" r="10" class="c0"/>
<circle cx="346" cy="1144" r="10" class="c0"/>
<circle cx="474" cy="484" r="10" class="c0"/>
<circle cx="610" cy="540" r="10" class="c0"/>
<circle cx="586" cy="686" r="10" class="c0"/>
<circle cx="534" cy="972" r="10" class="c0"/>
<circle cx="460" cy="900" r="10" class="c0"/>
<circle cx="330" cy="658" r="10" class="c0"/>
<circle cx="352" cy="1194" r="10" class="c0"/>
<circle cx="220" cy="830" r="10" class="c0"/>
<circle cx="318" cy="554" r="10" class="c0"/>
<circle cx="508" cy="1034" r="10" class="c0"/>
<circle cx="312" cy="668" r="10" class="c0"/>
<circle cx="456" cy="1214" r="10" class="c0"/>
<circle cx="324" cy="1302" r="10" class="c0"/>
<circle cx="400" cy="1076" r="10" class="c0"/>
<circle cx="528" cy="620" r="10" class="c0"/>
<circle cx="440" cy="1168" r="10" class="c0"/>
<circle cx="296" cy="1340" r="10" class="c0"/>
<circle cx="320" cy="1202" r="10" class="c0"/>
<circle cx="340" cy="318" r="10" class="c0"/>
<circle cx="482" cy="1216" r="10" class="c0"/>
<circle cx="518" cy="466" r="10" class="c0"/>
<circle cx="472" cy="984" r="10" class="c0"/>
<circle cx="224" cy="878" r="10" class="c0"/>
<circle cx="448" cy="276" r="10" class="c0"/>
<circle cx="540" cy="1184" r="10" class="c0"/>
<circle cx="486" cy="958" r="10" class="c0"/>
<circle cx="372" cy="400" r="10" class="c0"/>
<circle cx="482" cy="526" r="10" class="c0"/>
<circle cx="326" cy="1230" r="10" class="c0"/>
<circle cx="476" cy="594" r="10" class="c0"/>
<circle cx="592" cy="1386" r="10" class="c0"/>
<circle cx="482" cy="1350" r="10" class="c0"/>
<circle cx="440" cy="1378" r="10" class="c0"/>
<circle cx="482" cy="884" r="10" class="c0"/>
<circle cx="314" cy="794" r="10" class="c0"/>
<circle cx="426" cy="442" r="10" class="c0"/>
<circle cx="546" cy="1242" r="10" class="c0"/>
<circle cx="452" cy="1256" r="10" class="c0"/>
<circle cx="536" cy="1032" r="10" class="c0"/>
<circle cx="512" cy="514" r="10" class="c0"/>
<circle cx="352" cy="818" r="8" class="c0"/>
<circle cx="372" cy="1066" r="8" class="c0"/>
<circle cx="486" cy="334" r="8" class="c0"/>
<circle cx="420" cy="592" r="8" class="c0"/>
<circle cx="512" cy="654" r="8" class="c0"/>
<circle cx="508" cy="274" r="8" class="c0"/>
<circle cx="274" cy="826" r="8" class="c0"/>
<circle cx="366" cy="1284" r="8" class="c0"/>
<circle cx="466" cy="1390" r="8" class="c0"/>
<circle cx="512" cy="1080" r="8" class="c0"/>
<circle cx="394" cy="606" r="8" class="c0"/>
<circle cx="424" cy="1134" r="8" class="c0"/>
<circle cx="390" cy="792" r="8" class="c0"/>
<circle cx="328" cy="1152" r="8" class="c0"/>
<circle cx="554" cy="652" r="8" class="c0"/>
<circle cx="302" cy="1284" r="8" class="c0"/>
<circle cx="432" cy="808" r="8" class="c0"/>
<circle cx="488" cy="394" r="8" class="c0"/>
<circle cx="474" cy="1184" r="8" class="c0"/>
<circle cx="588" cy="1246" r="8" class="c0"/>
<circle cx="392" cy="1098" r="8" class="c0"/>
<circle cx="550" cy="518" r="8" class="c0"/>
<circle cx="456" cy="746" r="8" class="c0"/>
<circle cx="444" cy="1284" r="8" class="c0"/>
<circle cx="338" cy="404" r="8" class="c0"/>
<circle cx="348" cy="1410" r="8" class="c0"/>
<circle cx="518" cy="330" r="8" class="c0"/>
<circle cx="350" cy="1296" r="8" class="c0"/>
<circle cx="366" cy="682" r="8" class="c0"/>
<circle cx="438" cy="516" r="8" class="c0"/>
<circle cx="356" cy="1110" r="8" class="c0"/>
<circle cx="584" cy="1208" r="8" class="c0"/>
<circle cx="530" cy="1270" r="8" class="c0"/>
<circle cx="410" cy="1236" r="8" class="c0"/>
<circle cx="532" cy="346" r="8" class="c0"/>
<circle cx="484" cy="1018" r="8" class="c0"/>
<circle cx="366" cy="1146" r="8" class="c0"/>
<circle cx="418" cy="1254" r="8" class="c0"/>
<circle cx="420" cy="930" r="8" class="c0"/>
<circle cx="526" cy="822" r="8" class="c0"/>
<circle cx="334" cy="748" r="8" class="c0"/>
<circle cx="516" cy="984" r="8" class="c0"/>
<circle cx="570" cy="1276" r="8" class="c0"/>
<circle cx="322" cy="1268" r="8" class="c0"/>
<circle cx="416" cy="534" r="8" class="c0"/>
<circle cx="546" cy="1138" r="8" class="c0"/>
<circle cx="448" cy="538" r="8" class="c0"/>
<circle cx="336" cy="684" r="8" class="c0"/>
<circle cx="442" cy="1326" r="8" class="c0"/>
<circle cx="376" cy="1084" r="8" class="c0"/>
<circle cx="470" cy="618" r="8" class="c0"/>
<circle cx="520" cy="422" r="8" class="c0"/>
<circle cx="504" cy="842" r="8" class="c0"/>
<circle cx="378" cy="256" r="8" class="c0"/>
<circle cx="526" cy="1382" r="8" class="c0"/>
<circle cx="526" cy="778" r="8" class="c0"/>
<circle cx="290" cy="876" r="8" class="c0"/>
<circle cx="484" cy="564" r="8" class="c0"/>
<circle cx="522" cy="902" r="8" class="c0"/>
<circle cx="490" cy="1406" r="8" class="c0"/>
<circle cx="516" cy="1124" r="8" class="c0"/>
<circle cx="514" cy="920" r="8" class="c0"/>
<circle cx="416" cy="342" r="8" class="c0"/>
<circle cx="412" cy="1058" r="8" class="c0"/>
<circle cx="562" cy="1126" r="8" class="c0"/>
<circle cx="448" cy="766" r="8" class="c0"/>
<circle cx="482" cy="1380" r="8" class="c0"/>
<circle cx="472" cy="1332" r="8" class="c0"/>
<circle cx="590" cy="1340" r="8" class="c0"/>
<circle cx="350" cy="1256" r="8" class="c0"/>
<circle cx="430" cy="724" r="8" class="c0"/>
<circle cx="296" cy="1206" r="8" class="c0"/>
<circle cx="568" cy="1254" r="8" class="c0"/>
<circle cx="298" cy="1428" r="8" class="c0"/>
<circle cx="428" cy="658" r="8" class="c0"/>
<circle cx="350" cy="734" r="8" class="c0"/>
<circle cx="330" cy="360" r="8" class="c0"/>
<circle cx="296" cy="712" r="8" class="c0"/>
<circle cx="354" cy="598" r="8" class="c0"/>
<circle cx="454" cy="1042" r="8" class="c0"/>
<circle cx="348" cy="1224" r="8" class="c0"/>
<circle cx="574" cy="664" r="8" class="c0"/>
<circle cx="494" cy="1178" r="8" class="c0"/>
<circle cx="416" cy="1358" r="8" class="c0"/>
<circle cx="540" cy="1084" r="8" class="c0"/>
<circle cx="548" cy="390" r="8" class="c0"/>
<circle cx="514" cy="1352" r="8" class="c0"/>
<circle cx="362" cy="1240" r="8" class="c0"/>
<circle cx="546" cy="1372" r="8" class="c0"/>
<circle cx="252" cy="750" r="8" class="c0"/>
<circle cx="392" cy="414" r="8" class="c0"/>
<circle cx="434" cy="1232" r="8" class="c0"/>
<circle cx="370" cy="314" r="8" class="c0"/>
<circle cx="558" cy="1020" r="8" class="c0"/>
<circle cx="436" cy="1346" r="8" class="c0"/>
<circle cx="454" cy="1000" r="8" class="c0"/>
<circle cx="326" cy="1066" r="8" class="c0"/>
<circle cx="302" cy="690" r="8" class="c0"/>
<circle cx="592" cy="1226" r="8" class="c0"/>
<circle cx="434" cy="1204" r="8" class="c0"/>
<circle cx="402" cy="400" r="8" class="c0"/>
<circle cx="246" cy="786" r="8" class="c0"/>
<circle cx="408" cy="742" r="8" class="c0"/>
<circle cx="420" cy="1272" r="8" class="c0"/>
<circle cx="242" cy="766" r="8" class="c0"/>
<circle cx="294" cy="314" r="8" class="c0"/>
<circle cx="584" cy="536" r="8" class="c0"/>
<circle cx="336" cy="608" r="8" class="c0"/>
<circle cx="462" cy="396" r="8" class="c0"/>
<circle cx="294" cy="1312" r="8" class="c0"/>
<circle cx="540" cy="1220" r="8" class="c0"/>
<circle cx="426" cy="954" r="8" class="c0"/>
<circle cx="576" cy="1144" r="8" class="c0"/>
<circle cx="324" cy="508" r="8" class="c0"/>
<circle cx="558" cy="548" r="8" class="c0"/>
<circle cx="392" cy="758" r="8" class="c0"/>
<circle cx="338" cy="1424" r="8" class="c0"/>
<circle cx="616" cy="622" r="8" class="c0"/>
<circle cx="388" cy="996" r="8" class="c0"/>
<circle cx="388" cy="244" r="8" class="c0"/>
<circle cx="484" cy="252" r="8" class="c0"/>
<circle cx="370" cy="470" r="8" class="c0"/>
<circle cx="450" cy="296" r="8" class="c0"/>
<circle cx="212" cy="848" r="8" class="c0"/>
<circle cx="506" cy="882" r="8" class="c0"/>
<circle cx="592" cy="1360" r="8" class="c0"/>
<circle cx="462" cy="1274" r="8" class="c0"/>
<circle cx="464" cy="264" r="8" class="c0"/>
<circle cx="362" cy="798" r="8" class="c0"/>
<circle cx="408" cy="946" r="8" class="c0"/>
<circle cx="332" cy="478" r="8" class="c0"/>
<circle cx="544" cy="942" r="8" class="c0"/>
<circle cx="480" cy="800" r="8" class="c0"/>
<circle cx="442" cy="832" r="8" class="c0"/>
<circle cx="382" cy="1158" r="8" class="c0"/>
<circle cx="536" cy="764" r="8" class="c0"/>
<circle cx="608" cy="1406" r="8" class="c0"/>
<circle cx="298" cy="550" r="8" class="c0"/>
<circle cx="462" cy="244" r="8" class="c0"/>
<circle cx="312" cy="524" r="8" class="c0"/>
<circle cx="404" cy="1010" r="8" class="c0"/>
<circle cx="532" cy="1362" r="8" class="c0"/>
<circle cx="512" cy="1190" r="8" class="c0"/>
<circle cx="344" cy="702" r="8" class="c0"/>
<circle cx="562" cy="1056" r="8" class="c0"/>
<circle cx="418" cy="1036" r="8" class="c0"/>
<circle cx="520" cy="1012" r="8" class="c0"/>
<circle cx="362" cy="246" r="8" class="c0"/>
<circle cx="376" cy="946" r="8" class="c0"/>
<circle cx="254" cy="872" r="8" class="c0"/>
<circle cx="508" cy="254" r="8" class="c0"/>
<circle cx="334" cy="1280" r="8" class="c0"/>
<circle cx="388" cy="678" r="8" class="c0"/>
<circle cx="432" cy="870" r="8" class="c0"/>
<circle cx="354" cy="858" r="8" class="c0"/>
<circle cx="412" cy="322" r="8" class="c0"/>
<circle cx="300" cy="1226" r="8" class="c0"/>
<circle cx="458" cy="470" r="8" class="c0"/>
<circle cx="364" cy="438" r="8" class="c0"/>
<circle cx="424" cy="286" r="8" class="c0"/>
<circle cx="304" cy="298" r="8" class="c0"/>
<circle cx="318" cy="1400" r="8" class="c0"/>
<circle cx="310" cy="746" r="8" class="c0"/>
<circle cx="404" cy="1174" r="8" class="c0"/>
<circle cx="418" cy="888" r="8" class="c0"/>
<circle cx="490" cy="652" r="8" class="c0"/>
<circle cx="458" cy="556" r="8" class="c0"/>
<circle cx="494" cy="998" r="8" class="c0"/>
<circle cx="314" cy="938" r="8" class="c0"/>
<circle cx="392" cy="1316" r="8" class="c0"/>
<circle cx="326" cy="298" r="8" class="c0"/>
<circle cx="608" cy="1370" r="8" class="c0"/>
<circle cx="530" cy="738" r="8" class="c0"/>
<circle cx="404" cy="656" r="8" class="c0"/>
<circle cx="486" cy="270" r="8" class="c0"/>
<circle cx="560" cy="1420" r="8" class="c0"/>
<circle cx="380" cy="486" r="8" class="c0"/>
<circle cx="390" cy="1218" r="8" class="c0"/>
<circle cx="310" cy="618" r="8" class="c0"/>
<circle cx="428" cy="1156" r="8" class="c0"/>
<circle cx="384" cy="1392" r="8" class="c0"/>
<circle cx="560" cy="1320" r="8" class="c0"/>
<circle cx="448" cy="1186" r="8" class="c0"/>
<circle cx="486" cy="1260" r="8" class="c0"/>
<circle cx="358" cy="1082" r="8" class="c0"/>
<circle cx="390" cy="308" r="8" class="c0"/>
<circle cx="470" cy="288" r="8" class="c0"/>
<circle cx="320" cy="702" r="8" class="c0"/>
<circle cx="596" cy="1282" r="8" class="c0"/>
<circle cx="376" cy="380" r="8" class="c0"/>
<circle cx="376" cy="1008" r="8" class="c0"/>
<circle cx="480" cy="1236" r="8" class="c0"/>
<circle cx="482" cy="308" r="8" class="c0"/>
<circle cx="412" cy="860" r="8" class="c0"/>
<circle cx="370" cy="836" r="8" class="c0"/>
<circle cx="348" cy="1070" r="8" class="c0"/>
<circle cx="494" cy="862" r="8" class="c0"/>
<circle cx="582" cy="334" r="8" class="c0"/>
<circle cx="382" cy="1368" r="8" class="c0"/>
<circle cx="526" cy="1302" r="8" class="c0"/>
<circle cx="242" cy="886" r="8" class="c0"/>
<circle cx="556" cy="1148" r="8" class="c0"/>
<circle cx="440" cy="850" r="8" class="c0"/>
<circle cx="442" cy="242" r="8" class="c0"/>
<circle cx="520" cy="492" r="8" class="c0"/>
<circle cx="346" cy="380" r="8" class="c0"/>
<circle cx="402" cy="806" r="8" class="c0"/>
<circle cx="546" cy="1344" r="8" class="c0"/>
<circle cx="300" cy="1254" r="8" class="c0"/>
<circle cx="550" cy="1264" r="8" class="c0"/>
<circle cx="414" cy="618" r="8" class="c0"/>
<circle cx="334" cy="1184" r="8" class="c0"/>
<circle cx="524" cy="538" r="8" class="c0"/>
<circle cx="494" cy="1308" r="8" class="c0"/>
<circle cx="448" cy="456" r="8" class="c0"/>
<circle cx="320" cy="1336" r="8" class="c0"/>
<circle cx="338" cy="1052" r="8" class="c0"/>
<circle cx="544" cy="1066" r="8" class="c0"/>
<circle cx="294" cy="650" r="8" class="c0"/>
<circle cx="348" cy="770" r="8" class="c0"/>
<circle cx="492" cy="1200" r="8" class="c0"/>
<circle cx="520" cy="446" r="8" class="c0"/>
<circle cx="396" cy="722" r="8" class="c0"/>
<circle cx="398" cy="264" r="8" class="c0"/>
<circle cx="408" cy="988" r="8" class="c0"/>
<circle cx="498" cy="1114" r="8" class="c0"/>
<circle cx="416" cy="570" r="8" class="c0"/>
<circle cx="454" cy="822" r="8" class="c0"/>
<circle cx="404" cy="876" r="8" class="c0"/>
<circle cx="626" cy="640" r="8" class="c0"/>
<circle cx="342" cy="262" r="8" class="c0"/>
<circle cx="350" cy="1354" r="8" class="c0"/>
<circle cx="484" cy="1124" r="8" class="c0"/>
<circle cx="436" cy="748" r="8" class="c0"/>
<circle cx="572" cy="1296" r="8" class="c0"/>
<circle cx="496" cy="472" r="8" class="c0"/>
<circle cx="242" cy="804" r="8" class="c0"/>
<circle cx="500" cy="686" r="8" class="c0"/>
<circle cx="300" cy="576" r="8" class="c0"/>
<circle cx="344" cy="848" r="8" class="c0"/>
<circle cx="346" cy="958" r="8" class="c0"/>
<circle cx="490" cy="932" r="8" class="c0"/>
<circle cx="550" cy="1046" r="8" class="c0"/>
<circle cx="426" cy="840" r="8" class="c0"/>
<circle cx="394" cy="456" r="8" class="c0"/>
<circle cx="574" cy="1230" r="8" class="c0"/>
<circle cx="606" cy="566" r="8" class="c0"/>
<circle cx="368" cy="1048" r="8" class="c0"/>
<circle cx="484" cy="506" r="8" class="c0"/>
<circle cx="336" cy="434" r="8" class="c0"/>
<circle cx="306" cy="814" r="8" class="c0"/>
<circle cx="366" cy="658" r="8" class="c0"/>
<circle cx="222" cy="810" r="8" class="c0"/>
<circle cx="536" cy="1428" r="8" class="c0"/>
<circle cx="422" cy="304" r="8" class="c0"/>
<circle cx="414" cy="1108" r="8" class="c0"/>
<circle cx="442" cy="344" r="8" class="c0"/>
<circle cx="396" cy="1042" r="8" class="c0"/>
<circle cx="426" cy="1180" r="8" class="c0"/>
<circle cx="430" cy="1312" r="8" class="c0"/>
<circle cx="396" cy="698" r="8" class="c0"/>
<circle cx="602" cy="674" r="8" class="c0"/>
<circle cx="380" cy="290" r="8" class="c0"/>
<circle cx="484" cy="454" r="8" class="c0"/>
<circle cx="472" cy="736" r="8" class="c0"/>
<circle cx="448" cy="386" r="8" class="c0"/>
<circle cx="354" cy="550" r="8" class="c0"/>
<circle cx="560" cy="1002" r="8" class="c0"/>
<circle cx="594" cy="510" r="8" class="c0"/>
<circle cx="384" cy="442" r="8" class="c0"/>
<circle cx="364" cy="966" r="8" class="c0"/>
<circle cx="322" cy="376" r="8" class="c0"/>
<circle cx="424" cy="388" r="8" class="c0"/>
<circle cx="546" cy="1408" r="8" class="c0"/>
<circle cx="512" cy="234" r="8" class="c0"/>
<circle cx="502" cy="1092" r="8" class="c0"/>
<circle cx="348" cy="646" r="8" class="c0"/>
<circle cx="348" cy="1004" r="8" class="c0"/>
<circle cx="504" cy="1366" r="8" class="c0"/>
<circle cx="310" cy="1098" r="8" class="c0"/>
<circle cx="284" cy="838" r="8" class="c0"/>
<circle cx="482" cy="820" r="8" class="c0"/>
<circle cx="438" cy="364" r="8" class="c0"/>
<circle cx="334" cy="1318" r="8" class="c0"/>
<circle cx="582" cy="498" r="8" class="c0"/>
<circle cx="348" cy="904" r="8" class="c0"/>
<circle cx="546" cy="902" r="8" class="c0"/>
<circle cx="578" cy="352" r="8" class="c0"/>
<circle cx="344" cy="1170" r="8" class="c0"/>
<circle cx="472" cy="386" r="8" class="c0"/>
<circle cx="364" cy="1400" r="8" class="c0"/>
<circle cx="456" cy="1090" r="8" class="c0"/>
<circle cx="330" cy="1002" r="8" class="c0"/>
<circle cx="580" cy="612" r="8" class="c0"/>
<circle cx="290" cy="598" r="8" class="c0"/>
<circle cx="414" cy="828" r="8" class="c0"/>
<circle cx="506" cy="820" r="8" class="c0"/>
<circle cx="512" cy="1254" r="8" class="c0"/>
<circle cx="538" cy="308" r="8" class="c0"/>
<circle cx="458" cy="788" r="8" class="c0"/>
<circle cx="500" cy="410" r="8" class="c0"/>
<circle cx="308" cy="1360" r="8" class="c0"/>
<circle cx="398" cy="932" r="8" class="c0"/>
<circle cx="310" cy="1150" r="8" class="c0"/>
<circle cx="426" cy="558" r="8" class="c0"/>
<circle cx="308" cy="638" r="8" class="c0"/>
<circle cx="480" cy="1278" r="8" class="c0"/>
<circle cx="468" cy="660" r="8" class="c0"/>
<circle cx="418" cy="644" r="8" class="c0"/>
<circle cx="388" cy="274" r="8" class="c0"/>
<circle cx="414" cy="454" r="8" class="c0"/>
<circle cx="436" cy="890" r="8" class="c0"/>
<circle cx="450" cy="642" r="8" class="c0"/>
<circle cx="496" cy="494" r="8" class="c0"/>
<circle cx="418" cy="1398" r="8" class="c0"/>
<circle cx="386" cy="1032" r="8" class="c0"/>
<circle cx="532" cy="288" r="8" class="c0"/>
<circle cx="516" cy="590" r="8" class="c0"/>
<circle cx="548" cy="1164" r="8" class="c0"/>
<circle cx="438" cy="548" r="8" class="c0"/>
<circle cx="404" cy="632" r="8" class="c0"/>
<circle cx="404" cy="288" r="8" class="c0"/>
<circle cx="462" cy="312" r="8" class="c0"/>
<circle cx="312" cy="838" r="8" class="c0"/>
<circle cx="594" cy="576" r="8" class="c0"/>
<circle cx="456" cy="1344" r="8" class="c0"/>
<circle cx="386" cy="708" r="8" class="c0"/>
<circle cx="476" cy="1034" r="8" class="c0"/>
<circle cx="538" cy="1324" r="8" class="c0"/>
<circle cx="316" cy="1040" r="8" class="c0"/>
<circle cx="446" cy="1070" r="8" class="c0"/>
<circle cx="374" cy="1104" r="8" class="c0"/>
<circle cx="416" cy="1330" r="8" class="c0"/>
<circle cx="572" cy="1430" r="8" class="c0"/>
<circle cx="564" cy="676" r="8" class="c0"/>
<circle cx="596" cy="626" r="8" class="c0"/>
<circle cx="554" cy="1196" r="8" class="c0"/>
<circle cx="376" cy="234" r="8" class="c0"/>
<circle cx="270" cy="266" r="8" class="c0"/>
<circle cx="320" cy="758" r="8" class="c0"/>
<circle cx="592" cy="662" r="8" class="c0"/>
<circle cx="464" cy="1196" r="8" class="c0"/>
<circle cx="442" cy="978" r="8" class="c0"/>
<circle cx="334" cy="1386" r="8" class="c0"/>
<circle cx="368" cy="1260" r="8" class="c0"/>
<circle cx="284" cy="898" r="8" class="c0"/>
<circle cx="462" cy="528" r="8" class="c0"/>
<circle cx="524" cy="1336" r="8" class="c0"/>
<circle cx="352" cy="568" r="8" class="c0"/>
<circle cx="538" cy="504" r="8" class="c0"/>
<circle cx="578" cy="1330" r="8" class="c0"/>
<circle cx="516" cy="1172" r="8" class="c0"/>
<circle cx="360" cy="914" r="8" class="c0"/>
<circle cx="522" cy="300" r="8" class="c0"/>
<circle cx="502" cy="642" r="8" class="c0"/>
<circle cx="310" cy="1244" r="8" class="c0"/>
<circle cx="628" cy="530" r="8" class="c0"/>
<circle cx="314" cy="1418" r="8" class="c0"/>
<circle cx="596" cy="1262" r="8" class="c0"/>
<circle cx="284" cy="816" r="8" class="c0"/>
<circle cx="358" cy="304" r="8" class="c0"/>
<circle cx="350" cy="666" r="8" class="c0"/>
<circle cx="410" cy="782" r="8" class="c0"/>
<circle cx="392" cy="530" r="8" class="c0"/>
<circle cx="570" cy="1108" r="8" class="c0"/>
<circle cx="386" cy="1188" r="8" class="c0"/>
<circle cx="462" cy="1118" r="8" class="c0"/>
<circle cx="310" cy="724" r="8" class="c0"/>
<circle cx="572" cy="1382" r="8" class="c0"/>
<circle cx="308" cy="888" r="8" class="c0"/>
<circle cx="542" cy="368" r="8" class="c0"/>
<circle cx="332" cy="274" r="8" class="c0"/>
<circle cx="538" cy="792" r="8" class="c0"/>
<circle cx="464" cy="832" r="8" class="c0"/>
<circle cx="444" cy="1138" r="8" class="c0"/>
<circle cx="530" cy="680" r="8" class="c0"/>
<circle cx="320" cy="900" r="8" class="c0"/>
<circle cx="468" cy="1248" r="6" class="c0"/>
<circle cx="530" cy="408" r="6" class="c0"/>
<circle cx="400" cy="1282" r="6" class="c0"/>
<circle cx="446" cy="1308" r="6" class="c0"/>
<circle cx="492" cy="218" r="6" class="c0"/>
<circle cx="614" cy="1428" r="6" class="c0"/>
<circle cx="544" cy="882" r="6" class="c0"/>
<circle cx="404" cy="546" r="6" class="c0"/>
<circle cx="464" cy="454" r="6" class="c0"/>
<circle cx="314" cy="1082" r="6" class="c0"/>
<circle cx="502" cy="966" r="6" class="c0"/>
<circle cx="282" cy="350" r="6" class="c0"/>
<circle cx="380" cy="1408" r="6" class="c0"/>
<circle cx="346" cy="294" r="6" class="c0"/>
<circle cx="508" cy="320" r="6" class="c0"/>
<circle cx="498" cy="1332" r="6" class="c0"/>
<circle cx="416" cy="974" r="6" class="c0"/>
<circle cx="540" cy="812" r="6" class="c0"/>
<circle cx="342" cy="1338" r="6" class="c0"/>
<circle cx="372" cy="594" r="6" class="c0"/>
<circle cx="410" cy="490" r="6" class="c0"/>
<circle cx="390" cy="622" r="6" class="c0"/>
<circle cx="364" cy="608" r="6" class="c0"/>
<circle cx="290" cy="752" r="6" class="c0"/>
<circle cx="276" cy="868" r="6" class="c0"/>
<circle cx="506" cy="1162" r="6" class="c0"/>
<circle cx="510" cy="1002" r="6" class="c0"/>
<circle cx="298" cy="1132" r="6" class="c0"/>
<circle cx="308" cy="1322" r="6" class="c0"/>
<circle cx="470" cy="574" r="6" class="c0"/>
<circle cx="544" cy="538" r="6" class="c0"/>
<circle cx="460" cy="1176" r="6" class="c0"/>
<circle cx="300" cy="1086" r="6" class="c0"/>
<circle cx="412" cy="272" r="6" class="c0"/>
<circle cx="370" cy="700" r="6" class="c0"/>
<circle cx="384" cy="660" r="6" class="c0"/>
<circle cx="606" cy="1344" r="6" class="c0"/>
<circle cx="374" cy="642" r="6" class="c0"/>
<circle cx="330" cy="1410" r="6" class="c0"/>
<circle cx="446" cy="880" r="6" class="c0"/>
<circle cx="508" cy="1432" r="6" class="c0"/>
<circle cx="484" cy="1322" r="6" class="c0"/>
<circle cx="422" cy="1068" r="6" class="c0"/>
<circle cx="596" cy="1430" r="6" class="c0"/>
<circle cx="318" cy="284" r="6" class="c0"/>
<circle cx="434" cy="680" r="6" class="c0"/>
<circle cx="474" cy="554" r="6" class="c0"/>
<circle cx="194" cy="836" r="6" class="c0"/>
<circle cx="330" cy="1248" r="6" class="c0"/>
<circle cx="504" cy="668" r="6" class="c0"/>
<circle cx="560" cy="528" r="6" class="c0"/>
<circle cx="402" cy="1366" r="6" class="c0"/>
<circle cx="334" cy="498" r="6" class="c0"/>
<circle cx="564" cy="1216" r="6" class="c0"/>
<circle cx="574" cy="1198" r="6" class="c0"/>
<circle cx="338" cy="940" r="6" class="c0"/>
<circle cx="618" cy="690" r="6" class="c0"/>
<circle cx="526" cy="1242" r="6" class="c0"/>
<circle cx="556" cy="570" r="6" class="c0"/>
<circle cx="448" cy="664" r="6" class="c0"/>
<circle cx="348" cy="618" r="6" class="c0"/>
<circle cx="290" cy="1240" r="6" class="c0"/>
<circle cx="286" cy="664" r="6" class="c0"/>
<circle cx="558" cy="982" r="6" class="c0"/>
<circle cx="400" cy="382" r="6" class="c0"/>
<circle cx="514" cy="556" r="6" class="c0"/>
<circle cx="322" cy="572" r="6" class="c0"/>
<circle cx="456" cy="1318" r="6" class="c0"/>
<circle cx="372" cy="350" r="6" class="c0"/>
<circle cx="400" cy="562" r="6" class="c0"/>
<circle cx="456" cy="412" r="6" class="c0"/>
<circle cx="496" cy="240" r="6" class="c0"/>
<circle cx="440" cy="942" r="6" class="c0"/>
<circle cx="486" cy="1044" r="6" class="c0"/>
<circle cx="472" cy="1168" r="6" class="c0"/>
<circle cx="544" cy="668" r="6" class="c0"/>
<circle cx="444" cy="1100" r="6" class="c0"/>
<circle cx="296" cy="1162" r="6" class="c0"/>
<circle cx="528" cy="318" r="6" class="c0"/>
<circle cx="344" cy="790" r="6" class="c0"/>
<circle cx="502" cy="598" r="6" class="c0"/>
<circle cx="466" cy="1010" r="6" class="c0"/>
<circle cx="560" cy="374" r="6" class="c0"/>
<circle cx="374" cy="982" r="6" class="c0"/>
<circle cx="284" cy="326" r="6" class="c0"/>
<circle cx="332" cy="970" r="6" class="c0"/>
<circle cx="554" cy="952" r="6" class="c0"/>
<circle cx="470" cy="946" r="6" class="c0"/>
<circle cx="452" cy="1156" r="6" class="c0"/>
<circle cx="542" cy="826" r="6" class="c0"/>
<circle cx="360" cy="388" r="6" class="c0"/>
<circle cx="542" cy="472" r="6" class="c0"/>
<circle cx="380" cy="780" r="6" class="c0"/>
<circle cx="286" cy="1410" r="6" class="c0"/>
<circle cx="400" cy="1248" r="6" class="c0"/>
<circle cx="498" cy="312" r="6" class="c0"/>
<circle cx="292" cy="1272" r="6" class="c0"/>
<circle cx="450" cy="802" r="6" class="c0"/>
<circle cx="458" cy="1376" r="6" class="c0"/>
<circle cx="368" cy="542" r="6" class="c0"/>
<circle cx="458" cy="600" r="6" class="c0"/>
<circle cx="366" cy="990" r="6" class="c0"/>
<circle cx="528" cy="522" r="6" class="c0"/>
<circle cx="328" cy="394" r="6" class="c0"/>
<circle cx="360" cy="746" r="6" class="c0"/>
<circle cx="352" cy="1272" r="6" class="c0"/>
<circle cx="536" cy="1394" r="6" class="c0"/>
<circle cx="308" cy="960" r="6" class="c0"/>
<circle cx="518" cy="638" r="6" class="c0"/>
<circle cx="336" cy="550" r="6" class="c0"/>
<circle cx="448" cy="482" r="6" class="c0"/>
<circle cx="338" cy="1118" r="6" class="c0"/>
<circle cx="534" cy="1254" r="6" class="c0"/>
<circle cx="420" cy="758" r="6" class="c0"/>
<circle cx="464" cy="1024" r="6" class="c0"/>
<circle cx="546" cy="860" r="6" class="c0"/>
<circle cx="606" cy="612" r="6" class="c0"/>
<circle cx="340" cy="1208" r="6" class="c0"/>
<circle cx="378" cy="850" r="6" class="c0"/>
<circle cx="536" cy="890" r="6" class="c0"/>
<circle cx="460" cy="1240" r="6" class="c0"/>
<circle cx="408" cy="766" r="6" class="c0"/>
<circle cx="468" cy="812" r="6" class="c0"/>
<circle cx="516" cy="1146" r="6" class="c0"/>
<circle cx="504" cy="338" r="6" class="c0"/>
<circle cx="292" cy="1358" r="6" class="c0"/>
<circle cx="386" cy="1432" r="6" class="c0"/>
<circle cx="276" cy="336" r="6" class="c0"/>
<circle cx="440" cy="306" r="6" class="c0"/>
<circle cx="330" cy="1134" r="6" class="c0"/>
<circle cx="352" cy="476" r="6" class="c0"/>
<circle cx="258" cy="812" r="6" class="c0"/>
<circle cx="308" cy="540" r="6" class="c0"/>
<circle cx="638" cy="658" r="6" class="c0"/>
<circle cx="502" cy="942" r="6" class="c0"/>
<circle cx="550" cy="1098" r="6" class="c0"/>
<circle cx="398" cy="1300" r="6" class="c0"/>
<circle cx="476" cy="1314" r="6" class="c0"/>
<circle cx="380" cy="424" r="6" class="c0"/>
<circle cx="586" cy="1166" r="6" class="c0"/>
<circle cx="328" cy="452" r="6" class="c0"/>
<circle cx="548" cy="1388" r="6" class="c0"/>
<circle cx="596" cy="552" r="6" class="c0"/>
<circle cx="482" cy="1296" r="6" class="c0"/>
<circle cx="292" cy="1190" r="6" class="c0"/>
<circle cx="372" cy="1228" r="6" class="c0"/>
<circle cx="292" cy="680" r="6" class="c0"/>
<circle cx="426" cy="906" r="6" class="c0"/>
<circle cx="306" cy="996" r="6" class="c0"/>
<circle cx="504" cy="454" r="6" class="c0"/>
<circle cx="562" cy="632" r="6" class="c0"/>
<circle cx="534" cy="382" r="6" class="c0"/>
<circle cx="484" cy="748" r="6" class="c0"/>
<circle cx="480" cy="780" r="6" class="c0"/>
<circle cx="300" cy="608" r="6" class="c0"/>
<circle cx="500" cy="980" r="6" class="c0"/>
<circle cx="496" cy="798" r="6" class="c0"/>
<circle cx="408" cy="1026" r="6" class="c0"/>
<circle cx="400" cy="230" r="6" class="c0"/>
<circle cx="476" cy="434" r="6" class="c0"/>
<circle cx="488" cy="1160" r="6" class="c0"/>
<circle cx="462" cy="878" r="6" class="c0"/>
<circle cx="570" cy="1034" r="6" class="c0"/>
<circle cx="588" cy="1192" r="6" class="c0"/>
<circle cx="570" cy="1160" r="6" class="c0"/>
<circle cx="602" cy="1324" r="6" class="c0"/>
<circle cx="476" cy="864" r="6" class="c0"/>
<circle cx="382" cy="746" r="6" class="c0"/>
<circle cx="542" cy="632" r="6" class="c0"/>
<circle cx="478" cy="1076" r="6" class="c0"/>
<circle cx="264" cy="782" r="6" class="c0"/>
<circle cx="378" cy="510" r="6" class="c0"/>
<circle cx="560" cy="968" r="6" class="c0"/>
<circle cx="524" cy="252" r="6" class="c0"/>
<circle cx="350" cy="1126" r="6" class="c0"/>
<circle cx="310" cy="1216" r="6" class="c0"/>
<circle cx="486" cy="352" r="6" class="c0"/>
<circle cx="290" cy="1372" r="6" class="c0"/>
<circle cx="310" cy="316" r="6" class="c0"/>
<circle cx="296" cy="796" r="6" class="c0"/>
<circle cx="580" cy="1120" r="6" class="c0"/>
<circle cx="476" cy="344" r="6" class="c0"/>
<circle cx="354" cy="1040" r="6" class="c0"/>
<circle cx="492" cy="606" r="6" class="c0"/>
<circle cx="410" cy="1430" r="6" class="c0"/>
<circle cx="494" cy="756" r="6" class="c0"/>
<circle cx="528" cy="272" r="6" class="c0"/>
<circle cx="580" cy="1264" r="6" class="c0"/>
<circle cx="312" cy="272" r="6" class="c0"/>
<circle cx="452" cy="624" r="6" class="c0"/>
<circle cx="612" cy="518" r="6" class="c0"/>
<circle cx="450" cy="1364" r="6" class="c0"/>
<circle cx="432" cy="1362" r="6" class="c0"/>
<circle cx="564" cy="1342" r="6" class="c0"/>
<circle cx="346" cy="444" r="6" class="c0"/>
<circle cx="378" cy="930" r="6" class="c0"/>
<circle cx="394" cy="1358" r="6" class="c0"/>
<circle cx="514" cy="858" r="6" class="c0"/>
<circle cx="538" cy="1204" r="6" class="c0"/>
<circle cx="418" cy="800" r="6" class="c0"/>
<circle cx="416" cy="668" r="6" class="c0"/>
<circle cx="440" cy="698" r="6" class="c0"/>
<circle cx="582" cy="1372" r="6" class="c0"/>
<circle cx="610" cy="1390" r="6" class="c0"/>
<circle cx="260" cy="736" r="6" class="c0"/>
<circle cx="286" cy="292" r="6" class="c0"/>
<circle cx="502" cy="1016" r="6" class="c0"/>
<circle cx="494" cy="1244" r="6" class="c0"/>
<circle cx="420" cy="1222" r="6" class="c0"/>
<circle cx="328" cy="856" r="6" class="c0"/>
<circle cx="492" cy="632" r="6" class="c0"/>
<circle cx="380" cy="614" r="6" class="c0"/>
<circle cx="436" cy="1264" r="6" class="c0"/>
<circle cx="446" cy="258" r="6" class="c0"/>
<circle cx="334" cy="566" r="6" class="c0"/>
<circle cx="390" cy="390" r="6" class="c0"/>
<circle cx="298" cy="830" r="6" class="c0"/>
<circle cx="210" cy="800" r="6" class="c0"/>
<circle cx="298" cy="1116" r="6" class="c0"/>
<circle cx="416" cy="1414" r="6" class="c0"/>
<circle cx="388" cy="1062" r="6" class="c0"/>
<circle cx="436" cy="1248" r="6" class="c0"/>
<circle cx="338" cy="1368" r="6" class="c0"/>
<circle cx="276" cy="642" r="6" class="c0"/>
<circle cx="502" cy="1418" r="6" class="c0"/>
<circle cx="394" cy="888" r="6" class="c0"/>
<circle cx="352" cy="718" r="6" class="c0"/>
<circle cx="322" cy="536" r="6" class="c0"/>
<circle cx="446" cy="736" r="6" class="c0"/>
<circle cx="390" cy="498" r="6" class="c0"/>
<circle cx="292" cy="1296" r="6" class="c0"/>
<circle cx="572" cy="324" r="6" class="c0"/>
<circle cx="528" cy="1196" r="6" class="c0"/>
<circle cx="502" cy="1264" r="6" class="c0"/>
<circle cx="520" cy="690" r="6" class="c0"/>
<circle cx="210" cy="866" r="6" class="c0"/>
<circle cx="472" cy="540" r="6" class="c0"/>
<circle cx="410" cy="1092" r="6" class="c0"/>
<circle cx="424" cy="356" r="6" class="c0"/>
<circle cx="560" cy="504" r="6" class="c0"/>
<circle cx="532" cy="480" r="6" class="c0"/>
<circle cx="492" cy="830" r="6" class="c0"/>
<circle cx="578" cy="1092" r="6" class="c0"/>
<circle cx="520" cy="668" r="6" class="c0"/>
<circle cx="410" cy="602" r="6" class="c0"/>
<circle cx="336" cy="462" r="6" class="c0"/>
<circle cx="556" cy="928" r="6" class="c0"/>
<circle cx="492" cy="1080" r="6" class="c0"/>
<circle cx="504" cy="380" r="6" class="c0"/>
<circle cx="396" cy="858" r="6" class="c0"/>
<circle cx="350" cy="754" r="6" class="c0"/>
<circle cx="524" cy="576" r="6" class="c0"/>
<circle cx="544" cy="406" r="6" class="c0"/>
<circle cx="522" cy="1228" r="6" class="c0"/>
<circle cx="572" cy="1068" r="6" class="c0"/>
<circle cx="408" cy="1312" r="6" class="c0"/>
<circle cx="328" cy="420" r="6" class="c0"/>
<circle cx="480" cy="1152" r="6" class="c0"/>
<circle cx="414" cy="1164" r="6" class="c0"/>
<circle cx="524" cy="932" r="6" class="c0"/>
<circle cx="442" cy="564" r="6" class="c0"/>
<circle cx="350" cy="1392" r="6" class="c0"/>
<circle cx="324" cy="1432" r="6" class="c0"/>
<circle cx="332" cy="986" r="6" class="c0"/>
<circle cx="342" cy="1242" r="6" class="c0"/>
<circle cx="490" cy="1426" r="6" class="c0"/>
<circle cx="276" cy="282" r="6" class="c0"/>
<circle cx="364" cy="870" r="6" class="c0"/>
<circle cx="522" cy="372" r="6" class="c0"/>
<circle cx="498" cy="716" r="6" class="c0"/>
<circle cx="384" cy="1114" r="6" class="c0"/>
<circle cx="452" cy="1232" r="6" class="c0"/>
<circle cx="422" cy="1374" r="6" class="c0"/>
<circle cx="418" cy="482" r="6" class="c0"/>
<circle cx="336" cy="864" r="6" class="c0"/>
<circle cx="478" cy="1002" r="6" class="c0"/>
<circle cx="442" cy="794" r="6" class="c0"/>
<circle cx="474" cy="464" r="6" class="c0"/>
<circle cx="468" cy="1226" r="6" class="c0"/>
<circle cx="526" cy="602" r="6" class="c0"/>
<circle cx="354" cy="402" r="6" class="c0"/>
<circle cx="476" cy="212" r="6" class="c0"/>
<circle cx="392" cy="738" r="6" class="c0"/>
<circle cx="340" cy="350" r="6" class="c0"/>
<circle cx="462" cy="584" r="6" class="c0"/>
<circle cx="362" cy="584" r="6" class="c0"/>
<circle cx="340" cy="512" r="6" class="c0"/>
<circle cx="622" cy="1416" r="6" class="c0"/>
<circle cx="486" cy="766" r="6" class="c0"/>
<circle cx="394" cy="774" r="6" class="c0"/>
<circle cx="604" cy="694" r="6" class="c0"/>
<circle cx="358" cy="1058" r="6" class="c0"/>
<circle cx="454" cy="842" r="6" class="c0"/>
<circle cx="546" cy="960" r="6" class="c0"/>
<circle cx="518" cy="264" r="6" class="c0"/>
<circle cx="526" cy="1136" r="6" class="c0"/>
<circle cx="380" cy="692" r="6" class="c0"/>
<circle cx="486" cy="620" r="6" class="c0"/>
<circle cx="394" cy="1234" r="6" class="c0"/>
<circle cx="374" cy="454" r="6" class="c0"/>
<circle cx="370" cy="1186" r="6" class="c0"/>
<circle cx="326" cy="1170" r="6" class="c0"/>
<circle cx="598" cy="526" r="6" class="c0"/>
<circle cx="432" cy="532" r="6" class="c0"/>
<circle cx="360" cy="710" r="6" class="c0"/>
<circle cx="526" cy="714" r="6" class="c0"/>
<circle cx="492" cy="1390" r="6" class="c0"/>
<circle cx="268" cy="746" r="6" class="c0"/>
<circle cx="516" cy="832" r="6" class="c0"/>
<circle cx="376" cy="1274" r="6" class="c0"/>
<circle cx="566" cy="338" r="6" class="c0"/>
<circle cx="598" cy="1416" r="6" class="c0"/>
<circle cx="376" cy="668" r="6" class="c0"/>
<circle cx="510" cy="482" r="6" class="c0"/>
<circle cx="452" cy="1108" r="6" class="c0"/>
<circle cx="432" cy="232" r="6" class="c0"/>
<circle cx="356" cy="692" r="6" class="c0"/>
<circle cx="294" cy="1148" r="6" class="c0"/>
<circle cx="320" cy="606" r="6" class="c0"/>
<circle cx="412" cy="1124" r="6" class="c0"/>
<circle cx="406" cy="306" r="6" class="c0"/>
<circle cx="358" cy="780" r="6" class="c0"/>
<circle cx="480" cy="904" r="6" class="c0"/>
<circle cx="580" cy="1350" r="6" class="c0"/>
<circle cx="346" cy="924" r="6" class="c0"/>
<circle cx="512" cy="676" r="6" class="c0"/>
<circle cx="278" cy="854" r="6" class="c0"/>
<circle cx="304" cy="1302" r="6" class="c0"/>
</svg>
