<?xml version="1.0" encoding="utf-8"?>
<svg xmlns="http://www.w3.org/2000/svg"
     xmlns:xlink="http://www.w3.org/1999/xlink" width="1920" height="1440" >

            <defs>
            <style type="text/css"><![CDATA[
circle {stroke: none;}
.c0 {fill: #000000;}
]]></style>
            </defs>
<rect x="0" y="0" width="1920" height="1440" fill="white"/>
<circle cx="452" cy="474" r="12" class="c0"/>
<circle cx="420" cy="510" r="12" class="c0"/>
<circle cx="422" cy="570" r="12" class="c0"/>
<circle cx="570" cy="1364" r="12" class="c0"/>
<circle cx="480" cy="520" r="12" class="c0"/>
<circle cx="518" cy="1056" r="12" class="c0"/>
<circle cx="448" cy="772" r="12" class="c0"/>
<circle cx="404" cy="1380" r="12" class="c0"/>
<circle cx="548" cy="948" r="12" class="c0"/>
<circle cx="616" cy="1120" r="12" class="c0"/>
<circle cx="424" cy="1046" r="12" class="c0"/>
<circle cx="428" cy="756" r="12" class="c0"/>
<circle cx="524" cy="370" r="12" class="c0"/>
<circle cx="392" cy="1302" r="12" class="c0"/>
<circle cx="366" cy="874" r="12" class="c0"/>
<circle cx="612" cy="1274" r="12" class="c0"/>
<circle cx="400" cy="1032" r="12" class="c0"/>
<circle cx="434" cy="652" r="12" class="c0"/>
<circle cx="540" cy="1404" r="12" class="c0"/>
<circle cx="402" cy="320" r="12" class="c0"/>
<circle cx="510" cy="1232" r="12" class="c0"/>
<circle cx="456" cy="1012" r="12" class="c0"/>
<circle cx="340" cy="1044" r="12" class="c0"/>
<circle cx="342" cy="732" r="12" class="c0"/>
<circle cx="452" cy="1078" r="12" class="c0"/>
<circle cx="394" cy="478" r="12" class="c0"/>
<circle cx="404" cy="410" r="12" class="c0"/>
<circle cx="454" cy="740" r="12" class="c0"/>
<circle cx="324" cy="1132" r="12" class="c0"/>
<circle cx="350" cy="338" r="12" class="c0"/>
<circle cx="582" cy="832" r="12" class="c0"/>
<circle cx="592" cy="1172" r="12" class="c0"/>
<circle cx="298" cy="800" r="12" class="c0"/>
<circle cx="314" cy="1280" r="12" class="c0"/>
<circle cx="234" cy="856" r="12" class="c0"/>
<circle cx="502" cy="242" r="12" class="c0"/>
<circle cx="506" cy="904" r="12" class="c0"/>
<circle cx="358" cy="992" r="12" class="c0"/>
<circle cx="402" cy="276" r="12" class="c0"/>
<circle cx="560" cy="1322" r="12" class="c0"/>
<circle cx="536" cy="518" r="10" class="c0"/>
<circle cx="524" cy="692" r="10" class="c0"/>
<circle cx="396" cy="940" r="10" class="c0"/>
<circle cx="424" cy="888" r="10" class="c0"/>
<circle cx="638" cy="1408" r="10" class="c0"/>
<circle cx="490" cy="464" r="10" class="c0"/>
<circle cx="588" cy="866" r="10" class="c0"/>
<circle cx="324" cy="1400" r="10" class="c0"/>
<circle cx="492" cy="858" r="10" class="c0"/>
<circle cx="554" cy="868" r="10" class="c0"/>
<circle cx="434" cy="1136" r="10" class="c0"/>
<circle cx="532" cy="712" r="10" class="c0"/>
<circle cx="376" cy="532" r="10" class="c0"/>
<circle cx="528" cy="1192" r="10" class="c0"/>
<circle cx="532" cy="1292" r="10" class="c0"/>
<circle cx="412" cy="1066" r="10" class="c0"/>
<circle cx="462" cy="588" r="10" class="c0"/>
<circle cx="372" cy="668" r="10" class="c0"/>
<circle cx="614" cy="1202" r="10" class="c0"/>
<circle cx="296" cy="892" r="10" class="c0"/>
<circle cx="454" cy="984" r="10" class="c0"/>
<circle cx="350" cy="914" r="10" class="c0"/>
<circle cx="470" cy="920" r="10" class="c0"/>
<circle cx="632" cy="598" r="10" class="c0"/>
<circle cx="620" cy="648" r="10" class="c0"/>
<circle cx="636" cy="1310" r="10" class="c0"/>
<circle cx="480" cy="1124" r="10" class="c0"/>
<circle cx="446" cy="398" r="10" class="c0"/>
<circle cx="536" cy="740" r="10" class="c0"/>
<circle cx="602" cy="1038" r="10" class="c0"/>
<circle cx="436" cy="1162" r="10" class="c0"/>
<circle cx="332" cy="706" r="10" class="c0"/>
<circle cx="510" cy="674" r="10" class="c0"/>
<circle cx="478" cy="962" r="10" class="c0"/>
<circle cx="268" cy="750" r="10" class="c0"/>
<circle cx="536" cy="606" r="10" class="c0"/>
<circle cx="536" cy="1226" r="10" class="c0"/>
<circle cx="584" cy="954" r="10" class="c0"/>
<circle cx="512" cy="394" r="10" class="c0"/>
<circle cx="378" cy="1126" r="10" class="c0"/>
<circle cx="360" cy="296" r="10" class="c0"/>
<circle cx="404" cy="1212" r="10" class="c0"/>
<circle cx="372" cy="1268" r="10" class="c0"/>
<circle cx="602" cy="506" r="10" class="c0"/>
<circle cx="348" cy="684" r="10" class="c0"/>
<circle cx="400" cy="818" r="10" class="c0"/>
<circle cx="344" cy="642" r="10" class="c0"/>
<circle cx="422" cy="632" r="10" class="c0"/>
<circle cx="550" cy="908" r="10" class="c0"/>
<circle cx="658" cy="630" r="10" class="c0"/>
<circle cx="442" cy="608" r="10" class="c0"/>
<circle cx="410" cy="988" r="10" class="c0"/>
<circle cx="380" cy="696" r="10" class="c0"/>
<circle cx="308" cy="870" r="10" class="c0"/>
<circle cx="614" cy="616" r="10" class="c0"/>
<circle cx="446" cy="516" r="10" class="c0"/>
<circle cx="422" cy="1394" r="10" class="c0"/>
<circle cx="498" cy="1178" r="10" class="c0"/>
<circle cx="478" cy="654" r="10" class="c0"/>
<circle cx="558" cy="1160" r="10" class="c0"/>
<circle cx="480" cy="692" r="10" class="c0"/>
<circle cx="512" cy="1132" r="10" class="c0"/>
<circle cx="388" cy="1240" r="10" class="c0"/>
<circle cx="540" cy="478" r="10" class="c0"/>
<circle cx="356" cy="1366" r="10" class="c0"/>
<circle cx="502" cy="964" r="10" class="c0"/>
<circle cx="472" cy="542" r="10" class="c0"/>
<circle cx="616" cy="1148" r="10" class="c0"/>
<circle cx="590" cy="932" r="10" class="c0"/>
<circle cx="292" cy="726" r="10" class="c0"/>
<circle cx="592" cy="1292" r="10" class="c0"/>
<circle cx="386" cy="1338" r="10" class="c0"/>
<circle cx="316" cy="1308" r="10" class="c0"/>
<circle cx="582" cy="1396" r="10" class="c0"/>
<circle cx="518" cy="750" r="10" class="c0"/>
<circle cx="312" cy="622" r="10" class="c0"/>
<circle cx="400" cy="904" r="10" class="c0"/>
<circle cx="314" cy="742" r="10" class="c0"/>
<circle cx="320" cy="1184" r="10" class="c0"/>
<circle cx="516" cy="488" r="10" class="c0"/>
<circle cx="562" cy="268" r="10" class="c0"/>
<circle cx="478" cy="494" r="10" class="c0"/>
<circle cx="502" cy="1278" r="10" class="c0"/>
<circle cx="434" cy="812" r="10" class="c0"/>
<circle cx="530" cy="852" r="10" class="c0"/>
<circle cx="598" cy="596" r="10" class="c0"/>
<circle cx="468" cy="418" r="10" class="c0"/>
<circle cx="490" cy="306" r="10" class="c0"/>
<circle cx="558" cy="528" r="10" class="c0"/>
<circle cx="564" cy="1416" r="10" class="c0"/>
<circle cx="466" cy="1294" r="10" class="c0"/>
<circle cx="624" cy="562" r="10" class="c0"/>
<circle cx="466" cy="680" r="10" class="c0"/>
<circle cx="566" cy="608" r="10" class="c0"/>
<circle cx="346" cy="830" r="10" class="c0"/>
<circle cx="638" cy="536" r="10" class="c0"/>
<circle cx="550" cy="302" r="10" class="c0"/>
<circle cx="266" cy="790" r="10" class="c0"/>
<circle cx="332" cy="1232" r="10" class="c0"/>
<circle cx="606" cy="1416" r="10" class="c0"/>
<circle cx="390" cy="626" r="10" class="c0"/>
<circle cx="552" cy="424" r="10" class="c0"/>
<circle cx="450" cy="356" r="10" class="c0"/>
<circle cx="430" cy="220" r="10" class="c0"/>
<circle cx="356" cy="1080" r="10" class="c0"/>
<circle cx="306" cy="770" r="10" class="c0"/>
<circle cx="428" cy="354" r="10" class="c0"/>
<circle cx="442" cy="326" r="10" class="c0"/>
<circle cx="482" cy="430" r="10" class="c0"/>
<circle cx="380" cy="258" r="10" class="c0"/>
<circle cx="584" cy="650" r="10" class="c0"/>
<circle cx="562" cy="1016" r="10" class="c0"/>
<circle cx="540" cy="1044" r="10" class="c0"/>
<circle cx="356" cy="546" r="10" class="c0"/>
<circle cx="418" cy="678" r="10" class="c0"/>
<circle cx="334" cy="606" r="10" class="c0"/>
<circle cx="494" cy="1084" r="10" class="c0"/>
<circle cx="282" cy="846" r="10" class="c0"/>
<circle cx="582" cy="628" r="10" class="c0"/>
<circle cx="328" cy="580" r="10" class="c0"/>
<circle cx="538" cy="1132" r="10" class="c0"/>
<circle cx="474" cy="1176" r="10" class="c0"/>
<circle cx="554" cy="506" r="10" class="c0"/>
<circle cx="534" cy="1162" r="10" class="c0"/>
<circle cx="398" cy="1084" r="10" class="c0"/>
<circle cx="370" cy="1224" r="10" class="c0"/>
<circle cx="394" cy="1146" r="10" class="c0"/>
<circle cx="398" cy="670" r="10" class="c0"/>
<circle cx="488" cy="1372" r="10" class="c0"/>
<circle cx="460" cy="1272" r="10" class="c0"/>
<circle cx="338" cy="526" r="10" class="c0"/>
<circle cx="428" cy="534" r="10" class="c0"/>
<circle cx="528" cy="1108" r="10" class="c0"/>
<circle cx="330" cy="266" r="10" class="c0"/>
<circle cx="564" cy="338" r="10" class="c0"/>
<circle cx="558" cy="1390" r="10" class="c0"/>
<circle cx="350" cy="1274" r="10" class="c0"/>
<circle cx="540" cy="334" r="10" class="c0"/>
<circle cx="456" cy="1248" r="10" class="c0"/>
<circle cx="374" cy="1160" r="10" class="c0"/>
<circle cx="364" cy="446" r="10" class="c0"/>
<circle cx="256" cy="844" r="10" class="c0"/>
<circle cx="598" cy="470" r="10" class="c0"/>
<circle cx="404" cy="768" r="10" class="c0"/>
<circle cx="526" cy="1356" r="10" class="c0"/>
<circle cx="642" cy="1382" r="10" class="c0"/>
<circle cx="360" cy="750" r="10" class="c0"/>
<circle cx="404" cy="524" r="10" class="c0"/>
<circle cx="504" cy="280" r="10" class="c0"/>
<circle cx="560" cy="1246" r="10" class="c0"/>
<circle cx="444" cy="950" r="10" class="c0"/>
<circle cx="368" cy="1296" r="10" class="c0"/>
<circle cx="500" cy="406" r="10" class="c0"/>
<circle cx="458" cy="906" r="10" class="c0"/>
<circle cx="586" cy="566" r="10" class="c0"/>
<circle cx="222" cy="810" r="10" class="c0"/>
<circle cx="460" cy="338" r="10" class="c0"/>
<circle cx="398" cy="970" r="10" class="c0"/>
<circle cx="456" cy="1224" r="10" class="c0"/>
<circle cx="424" cy="712" r="10" class="c0"/>
<circle cx="498" cy="622" r="10" class="c0"/>
<circle cx="528" cy="580" r="10" class="c0"/>
<circle cx="502" cy="212" r="10" class="c0"/>
<circle cx="398" cy="210" r="10" class="c0"/>
<circle cx="486" cy="1048" r="10" class="c0"/>
<circle cx="336" cy="288" r="10" class="c0"/>
<circle cx="498" cy="1112" r="10" class="c0"/>
<circle cx="346" cy="1312" r="10" class="c0"/>
<circle cx="462" cy="370" r="10" class="c0"/>
<circle cx="574" cy="366" r="10" class="c0"/>
<circle cx="428" cy="1286" r="10" class="c0"/>
<circle cx="546" cy="564" r="10" class="c0"/>
<circle cx="540" cy="880" r="10" class="c0"/>
<circle cx="382" cy="650" r="10" class="c0"/>
<circle cx="516" cy="324" r="10" class="c0"/>
<circle cx="416" cy="236" r="10" class="c0"/>
<circle cx="592" cy="1064" r="10" class="c0"/>
<circle cx="332" cy="1066" r="10" class="c0"/>
<circle cx="450" cy="240" r="10" class="c0"/>
<circle cx="372" cy="1388" r="10" class="c0"/>
<circle cx="640" cy="618" r="10" class="c0"/>
<circle cx="472" cy="450" r="10" class="c0"/>
<circle cx="378" cy="1198" r="10" class="c0"/>
<circle cx="422" cy="830" r="10" class="c0"/>
<circle cx="484" cy="586" r="10" class="c0"/>
<circle cx="362" cy="1250" r="10" class="c0"/>
<circle cx="420" cy="434" r="10" class="c0"/>
<circle cx="438" cy="1200" r="10" class="c0"/>
<circle cx="410" cy="646" r="10" class="c0"/>
<circle cx="548" cy="828" r="8" class="c0"/>
<circle cx="364" cy="1110" r="8" class="c0"/>
<circle cx="590" cy="974" r="8" class="c0"/>
<circle cx="332" cy="658" r="8" class="c0"/>
<circle cx="444" cy="270" r="8" class="c0"/>
<circle cx="360" cy="1420" r="8" class="c0"/>
<circle cx="412" cy="1332" r="8" class="c0"/>
<circle cx="352" cy="1060" r="8" class="c0"/>
<circle cx="454" cy="436" r="8" class="c0"/>
<circle cx="426" cy="312" r="8" class="c0"/>
<circle cx="624" cy="1392" r="8" class="c0"/>
<circle cx="386" cy="1430" r="8" class="c0"/>
<circle cx="480" cy="324" r="8" class="c0"/>
<circle cx="358" cy="630" r="8" class="c0"/>
<circle cx="338" cy="798" r="8" class="c0"/>
<circle cx="292" cy="826" r="8" class="c0"/>
<circle cx="428" cy="996" r="8" class="c0"/>
<circle cx="546" cy="400" r="8" class="c0"/>
<circle cx="448" cy="1384" r="8" class="c0"/>
<circle cx="362" cy="362" r="8" class="c0"/>
<circle cx="468" cy="726" r="8" class="c0"/>
<circle cx="620" cy="1330" r="8" class="c0"/>
<circle cx="632" cy="1346" r="8" class="c0"/>
<circle cx="566" cy="1196" r="8" class="c0"/>
<circle cx="462" cy="872" r="8" class="c0"/>
<circle cx="396" cy="840" r="8" class="c0"/>
<circle cx="390" cy="748" r="8" class="c0"/>
<circle cx="552" cy="686" r="8" class="c0"/>
<circle cx="420" cy="1414" r="8" class="c0"/>
<circle cx="502" cy="1308" r="8" class="c0"/>
<circle cx="436" cy="556" r="8" class="c0"/>
<circle cx="412" cy="1260" r="8" class="c0"/>
<circle cx="572" cy="744" r="8" class="c0"/>
<circle cx="436" cy="912" r="8" class="c0"/>
<circle cx="564" cy="1042" r="8" class="c0"/>
<circle cx="460" cy="294" r="8" class="c0"/>
<circle cx="570" cy="1108" r="8" class="c0"/>
<circle cx="522" cy="892" r="8" class="c0"/>
<circle cx="580" cy="1034" r="8" class="c0"/>
<circle cx="380" cy="912" r="8" class="c0"/>
<circle cx="532" cy="1430" r="8" class="c0"/>
<circle cx="464" cy="1394" r="8" class="c0"/>
<circle cx="620" cy="312" r="8" class="c0"/>
<circle cx="534" cy="1074" r="8" class="c0"/>
<circle cx="534" cy="546" r="8" class="c0"/>
<circle cx="488" cy="372" r="8" class="c0"/>
<circle cx="404" cy="1128" r="8" class="c0"/>
<circle cx="352" cy="774" r="8" class="c0"/>
<circle cx="314" cy="814" r="8" class="c0"/>
<circle cx="486" cy="1146" r="8" class="c0"/>
<circle cx="532" cy="1314" r="8" class="c0"/>
<circle cx="544" cy="654" r="8" class="c0"/>
<circle cx="584" cy="1084" r="8" class="c0"/>
<circle cx="346" cy="1408" r="8" class="c0"/>
<circle cx="568" cy="994" r="8" class="c0"/>
<circle cx="500" cy="1254" r="8" class="c0"/>
<circle cx="306" cy="1342" r="8" class="c0"/>
<circle cx="608" cy="668" r="8" class="c0"/>
<circle cx="542" cy="632" r="8" class="c0"/>
<circle cx="524" cy="300" r="8" class="c0"/>
<circle cx="408" cy="342" r="8" class="c0"/>
<circle cx="330" cy="310" r="8" class="c0"/>
<circle cx="560" cy="484" r="8" class="c0"/>
<circle cx="370" cy="928" r="8" class="c0"/>
<circle cx="616" cy="1240" r="8" class="c0"/>
<circle cx="584" cy="1418" r="8" class="c0"/>
<circle cx="490" cy="730" r="8" class="c0"/>
<circle cx="506" cy="540" r="8" class="c0"/>
<circle cx="458" cy="1342" r="8" class="c0"/>
<circle cx="422" cy="1092" r="8" class="c0"/>
<circle cx="628" cy="498" r="8" class="c0"/>
<circle cx="416" cy="292" r="8" class="c0"/>
<circle cx="472" cy="232" r="8" class="c0"/>
<circle cx="450" cy="884" r="8" class="c0"/>
<circle cx="530" cy="664" r="8" class="c0"/>
<circle cx="320" cy="1210" r="8" class="c0"/>
<circle cx="482" cy="1408" r="8" class="c0"/>
<circle cx="336" cy="1294" r="8" class="c0"/>
<circle cx="336" cy="760" r="8" class="c0"/>
<circle cx="522" cy="1388" r="8" class="c0"/>
<circle cx="498" cy="990" r="8" class="c0"/>
<circle cx="400" cy="880" r="8" class="c0"/>
<circle cx="368" cy="786" r="8" class="c0"/>
<circle cx="564" cy="930" r="8" class="c0"/>
<circle cx="298" cy="700" r="8" class="c0"/>
<circle cx="510" cy="720" r="8" class="c0"/>
<circle cx="532" cy="766" r="8" class="c0"/>
<circle cx="632" cy="1290" r="8" class="c0"/>
<circle cx="574" cy="550" r="8" class="c0"/>
<circle cx="378" cy="762" r="8" class="c0"/>
<circle cx="342" cy="968" r="8" class="c0"/>
<circle cx="480" cy="1072" r="8" class="c0"/>
<circle cx="372" cy="400" r="8" class="c0"/>
<circle cx="584" cy="1262" r="8" class="c0"/>
<circle cx="518" cy="840" r="8" class="c0"/>
<circle cx="476" cy="1102" r="8" class="c0"/>
<circle cx="422" cy="1344" r="8" class="c0"/>
<circle cx="594" cy="546" r="8" class="c0"/>
<circle cx="406" cy="702" r="8" class="c0"/>
<circle cx="338" cy="1200" r="8" class="c0"/>
<circle cx="608" cy="300" r="8" class="c0"/>
<circle cx="512" cy="862" r="8" class="c0"/>
<circle cx="482" cy="758" r="8" class="c0"/>
<circle cx="546" cy="374" r="8" class="c0"/>
<circle cx="490" cy="1324" r="8" class="c0"/>
<circle cx="422" cy="1148" r="8" class="c0"/>
<circle cx="408" cy="798" r="8" class="c0"/>
<circle cx="320" cy="646" r="8" class="c0"/>
<circle cx="598" cy="1108" r="8" class="c0"/>
<circle cx="496" cy="332" r="8" class="c0"/>
<circle cx="382" cy="346" r="8" class="c0"/>
<circle cx="506" cy="1346" r="8" class="c0"/>
<circle cx="308" cy="662" r="8" class="c0"/>
<circle cx="484" cy="1240" r="8" class="c0"/>
<circle cx="316" cy="248" r="8" class="c0"/>
<circle cx="648" cy="554" r="8" class="c0"/>
<circle cx="528" cy="788" r="8" class="c0"/>
<circle cx="374" cy="1028" r="8" class="c0"/>
<circle cx="446" cy="1354" r="8" class="c0"/>
<circle cx="372" cy="324" r="8" class="c0"/>
<circle cx="372" cy="568" r="8" class="c0"/>
<circle cx="322" cy="1380" r="8" class="c0"/>
<circle cx="508" cy="344" r="8" class="c0"/>
<circle cx="488" cy="1016" r="8" class="c0"/>
<circle cx="388" cy="454" r="8" class="c0"/>
<circle cx="534" cy="1264" r="8" class="c0"/>
<circle cx="364" cy="492" r="8" class="c0"/>
<circle cx="376" cy="1354" r="8" class="c0"/>
<circle cx="648" cy="674" r="8" class="c0"/>
<circle cx="574" cy="1228" r="8" class="c0"/>
<circle cx="520" cy="804" r="8" class="c0"/>
<circle cx="390" cy="586" r="8" class="c0"/>
<circle cx="462" cy="1056" r="8" class="c0"/>
<circle cx="456" cy="622" r="8" class="c0"/>
<circle cx="546" cy="252" r="8" class="c0"/>
<circle cx="364" cy="958" r="8" class="c0"/>
<circle cx="240" cy="794" r="8" class="c0"/>
<circle cx="554" cy="846" r="8" class="c0"/>
<circle cx="576" cy="308" r="8" class="c0"/>
<circle cx="580" cy="494" r="8" class="c0"/>
<circle cx="526" cy="252" r="8" class="c0"/>
<circle cx="544" cy="228" r="8" class="c0"/>
<circle cx="468" cy="1326" r="8" class="c0"/>
<circle cx="472" cy="390" r="8" class="c0"/>
<circle cx="462" cy="504" r="8" class="c0"/>
<circle cx="426" cy="1316" r="8" class="c0"/>
<circle cx="454" cy="696" r="8" class="c0"/>
<circle cx="468" cy="1032" r="8" class="c0"/>
<circle cx="602" cy="986" r="8" class="c0"/>
<circle cx="568" cy="882" r="8" class="c0"/>
<circle cx="430" cy="1024" r="8" class="c0"/>
<circle cx="422" cy="854" r="8" class="c0"/>
<circle cx="344" cy="858" r="8" class="c0"/>
<circle cx="386" cy="988" r="8" class="c0"/>
<circle cx="510" cy="1000" r="8" class="c0"/>
<circle cx="478" cy="716" r="8" class="c0"/>
<circle cx="558" cy="782" r="8" class="c0"/>
<circle cx="568" cy="1290" r="8" class="c0"/>
<circle cx="548" cy="1090" r="8" class="c0"/>
<circle cx="464" cy="272" r="8" class="c0"/>
<circle cx="510" cy="928" r="8" class="c0"/>
<circle cx="618" cy="1364" r="8" class="c0"/>
<circle cx="462" cy="214" r="8" class="c0"/>
<circle cx="540" cy="1006" r="8" class="c0"/>
<circle cx="562" cy="676" r="8" class="c0"/>
<circle cx="422" cy="964" r="8" class="c0"/>
<circle cx="580" cy="910" r="8" class="c0"/>
<circle cx="380" cy="1410" r="8" class="c0"/>
<circle cx="480" cy="210" r="8" class="c0"/>
<circle cx="488" cy="638" r="8" class="c0"/>
<circle cx="392" cy="386" r="8" class="c0"/>
<circle cx="604" cy="1090" r="8" class="c0"/>
<circle cx="482" cy="348" r="8" class="c0"/>
<circle cx="548" cy="586" r="8" class="c0"/>
<circle cx="378" cy="608" r="8" class="c0"/>
<circle cx="622" cy="1168" r="8" class="c0"/>
<circle cx="430" cy="1114" r="8" class="c0"/>
<circle cx="522" cy="986" r="8" class="c0"/>
<circle cx="430" cy="482" r="8" class="c0"/>
<circle cx="448" cy="544" r="8" class="c0"/>
<circle cx="374" cy="830" r="8" class="c0"/>
<circle cx="482" cy="608" r="8" class="c0"/>
<circle cx="482" cy="900" r="8" class="c0"/>
<circle cx="480" cy="1344" r="8" class="c0"/>
<circle cx="454" cy="838" r="8" class="c0"/>
<circle cx="572" cy="768" r="8" class="c0"/>
<circle cx="336" cy="1350" r="8" class="c0"/>
<circle cx="654" cy="1428" r="8" class="c0"/>
<circle cx="582" cy="1308" r="8" class="c0"/>
<circle cx="572" cy="664" r="8" class="c0"/>
<circle cx="408" cy="462" r="8" class="c0"/>
<circle cx="334" cy="846" r="8" class="c0"/>
<circle cx="474" cy="260" r="8" class="c0"/>
<circle cx="550" cy="752" r="8" class="c0"/>
<circle cx="342" cy="1122" r="8" class="c0"/>
<circle cx="530" cy="826" r="8" class="c0"/>
<circle cx="576" cy="464" r="8" class="c0"/>
<circle cx="494" cy="776" r="8" class="c0"/>
<circle cx="358" cy="1018" r="8" class="c0"/>
<circle cx="312" cy="598" r="8" class="c0"/>
<circle cx="632" cy="1260" r="8" class="c0"/>
<circle cx="554" cy="800" r="8" class="c0"/>
<circle cx="338" cy="1102" r="8" class="c0"/>
<circle cx="466" cy="706" r="8" class="c0"/>
<circle cx="476" cy="790" r="8" class="c0"/>
<circle cx="336" cy="1170" r="8" class="c0"/>
<circle cx="578" cy="1340" r="8" class="c0"/>
<circle cx="348" cy="1388" r="8" class="c0"/>
<circle cx="320" cy="326" r="8" class="c0"/>
<circle cx="482" cy="1306" r="8" class="c0"/>
<circle cx="452" cy="1118" r="8" class="c0"/>
<circle cx="630" cy="516" r="8" class="c0"/>
<circle cx="602" cy="528" r="8" class="c0"/>
<circle cx="536" cy="264" r="8" class="c0"/>
<circle cx="652" cy="518" r="8" class="c0"/>
<circle cx="506" cy="816" r="8" class="c0"/>
<circle cx="416" cy="1014" r="8" class="c0"/>
<circle cx="282" cy="768" r="8" class="c0"/>
<circle cx="500" cy="572" r="8" class="c0"/>
<circle cx="644" cy="1334" r="8" class="c0"/>
<circle cx="520" cy="642" r="8" class="c0"/>
<circle cx="370" cy="852" r="8" class="c0"/>
<circle cx="386" cy="558" r="8" class="c0"/>
<circle cx="554" cy="1274" r="8" class="c0"/>
<circle cx="354" cy="714" r="8" class="c0"/>
<circle cx="438" cy="372" r="8" class="c0"/>
<circle cx="410" cy="362" r="8" class="c0"/>
<circle cx="508" cy="1364" r="8" class="c0"/>
<circle cx="478" cy="816" r="8" class="c0"/>
<circle cx="548" cy="984" r="8" class="c0"/>
<circle cx="518" cy="618" r="8" class="c0"/>
<circle cx="366" cy="424" r="8" class="c0"/>
<circle cx="450" cy="716" r="8" class="c0"/>
<circle cx="514" cy="556" r="8" class="c0"/>
<circle cx="366" cy="1316" r="8" class="c0"/>
<circle cx="594" cy="1212" r="8" class="c0"/>
<circle cx="490" cy="804" r="8" class="c0"/>
<circle cx="508" cy="792" r="8" class="c0"/>
<circle cx="612" cy="576" r="8" class="c0"/>
<circle cx="612" cy="538" r="8" class="c0"/>
<circle cx="528" cy="500" r="8" class="c0"/>
<circle cx="456" cy="1368" r="8" class="c0"/>
<circle cx="546" cy="450" r="8" class="c0"/>
<circle cx="276" cy="878" r="8" class="c0"/>
<circle cx="314" cy="1420" r="8" class="c0"/>
<circle cx="630" cy="1212" r="8" class="c0"/>
<circle cx="508" cy="1030" r="8" class="c0"/>
<circle cx="350" cy="936" r="8" class="c0"/>
<circle cx="392" cy="1108" r="8" class="c0"/>
<circle cx="326" cy="826" r="8" class="c0"/>
<circle cx="568" cy="706" r="8" class="c0"/>
<circle cx="578" cy="1142" r="8" class="c0"/>
<circle cx="524" cy="442" r="8" class="c0"/>
<circle cx="592" cy="1378" r="8" class="c0"/>
<circle cx="346" cy="1336" r="8" class="c0"/>
<circle cx="424" cy="942" r="8" class="c0"/>
<circle cx="494" cy="1392" r="8" class="c0"/>
<circle cx="500" cy="648" r="8" class="c0"/>
<circle cx="250" cy="818" r="8" class="c0"/>
<circle cx="488" cy="1208" r="8" class="c0"/>
<circle cx="296" cy="252" r="8" class="c0"/>
<circle cx="308" cy="714" r="8" class="c0"/>
<circle cx="524" cy="1014" r="8" class="c0"/>
<circle cx="508" cy="882" r="8" class="c0"/>
<circle cx="490" cy="554" r="8" class="c0"/>
<circle cx="424" cy="260" r="8" class="c0"/>
<circle cx="560" cy="1060" r="8" class="c0"/>
<circle cx="384" cy="802" r="8" class="c0"/>
<circle cx="540" cy="810" r="8" class="c0"/>
<circle cx="658" cy="664" r="8" class="c0"/>
<circle cx="426" cy="1234" r="8" class="c0"/>
<circle cx="464" cy="850" r="8" class="c0"/>
<circle cx="388" cy="426" r="8" class="c0"/>
<circle cx="358" cy="582" r="8" class="c0"/>
<circle cx="480" cy="940" r="8" class="c0"/>
<circle cx="412" cy="550" r="8" class="c0"/>
<circle cx="444" cy="928" r="8" class="c0"/>
<circle cx="404" cy="736" r="8" class="c0"/>
<circle cx="414" cy="1170" r="8" class="c0"/>
<circle cx="436" cy="1264" r="8" class="c0"/>
<circle cx="672" cy="520" r="8" class="c0"/>
<circle cx="440" cy="422" r="8" class="c0"/>
<circle cx="348" cy="1184" r="8" class="c0"/>
<circle cx="588" cy="332" r="8" class="c0"/>
<circle cx="512" cy="522" r="8" class="c0"/>
<circle cx="466" cy="1208" r="8" class="c0"/>
<circle cx="592" cy="1002" r="8" class="c0"/>
<circle cx="598" cy="320" r="8" class="c0"/>
<circle cx="352" cy="810" r="8" class="c0"/>
<circle cx="268" cy="862" r="8" class="c0"/>
<circle cx="332" cy="1368" r="8" class="c0"/>
<circle cx="386" cy="236" r="8" class="c0"/>
<circle cx="546" cy="1304" r="8" class="c0"/>
<circle cx="324" cy="544" r="8" class="c0"/>
<circle cx="628" cy="1190" r="8" class="c0"/>
<circle cx="584" cy="518" r="8" class="c0"/>
<circle cx="604" cy="1306" r="8" class="c0"/>
<circle cx="490" cy="928" r="8" class="c0"/>
<circle cx="376" cy="374" r="8" class="c0"/>
<circle cx="490" cy="836" r="8" class="c0"/>
<circle cx="450" cy="666" r="8" class="c0"/>
<circle cx="532" cy="216" r="8" class="c0"/>
<circle cx="504" cy="428" r="8" class="c0"/>
<circle cx="526" cy="278" r="8" class="c0"/>
<circle cx="354" cy="514" r="8" class="c0"/>
<circle cx="416" cy="610" r="8" class="c0"/>
<circle cx="350" cy="1144" r="8" class="c0"/>
<circle cx="430" cy="1428" r="8" class="c0"/>
<circle cx="440" cy="288" r="8" class="c0"/>
<circle cx="662" cy="532" r="8" class="c0"/>
<circle cx="532" cy="1376" r="8" class="c0"/>
<circle cx="562" cy="962" r="8" class="c0"/>
<circle cx="432" cy="784" r="8" class="c0"/>
<circle cx="456" cy="1100" r="8" class="c0"/>
<circle cx="332" cy="1262" r="8" class="c0"/>
<circle cx="352" cy="1234" r="8" class="c0"/>
<circle cx="520" cy="954" r="8" class="c0"/>
<circle cx="460" cy="530" r="8" class="c0"/>
<circle cx="320" cy="676" r="8" class="c0"/>
<circle cx="380" cy="1006" r="8" class="c0"/>
<circle cx="374" cy="278" r="8" class="c0"/>
<circle cx="554" cy="1352" r="8" class="c0"/>
<circle cx="518" cy="464" r="8" class="c0"/>
<circle cx="378" cy="1050" r="8" class="c0"/>
<circle cx="304" cy="1408" r="8" class="c0"/>
<circle cx="360" cy="474" r="8" class="c0"/>
<circle cx="380" cy="510" r="8" class="c0"/>
<circle cx="374" cy="728" r="8" class="c0"/>
<circle cx="466" cy="636" r="8" class="c0"/>
<circle cx="392" cy="358" r="8" class="c0"/>
<circle cx="396" cy="1178" r="8" class="c0"/>
<circle cx="438" cy="460" r="8" class="c0"/>
<circle cx="392" cy="1272" r="8" class="c0"/>
<circle cx="368" cy="1180" r="8" class="c0"/>
<circle cx="510" cy="1328" r="8" class="c0"/>
<circle cx="558" cy="734" r="8" class="c0"/>
<circle cx="458" cy="562" r="8" class="c0"/>
<circle cx="396" cy="1054" r="8" class="c0"/>
<circle cx="412" cy="924" r="8" class="c0"/>
<circle cx="450" cy="1046" r="8" class="c0"/>
<circle cx="498" cy="706" r="8" class="c0"/>
<circle cx="374" cy="464" r="8" class="c0"/>
<circle cx="480" cy="1282" r="8" class="c0"/>
<circle cx="322" cy="1332" r="8" class="c0"/>
<circle cx="580" cy="288" r="8" class="c0"/>
<circle cx="550" cy="1184" r="8" class="c0"/>
<circle cx="520" cy="1086" r="8" class="c0"/>
<circle cx="600" cy="1252" r="8" class="c0"/>
<circle cx="606" cy="1354" r="8" class="c0"/>
<circle cx="386" cy="1070" r="8" class="c0"/>
<circle cx="456" cy="818" r="8" class="c0"/>
<circle cx="474" cy="282" r="8" class="c0"/>
<circle cx="374" cy="970" r="8" class="c0"/>
<circle cx="324" cy="856" r="8" class="c0"/>
<circle cx="352" cy="1210" r="8" class="c0"/>
<circle cx="504" cy="1406" r="8" class="c0"/>
<circle cx="542" cy="676" r="8" class="c0"/>
<circle cx="544" cy="356" r="8" class="c0"/>
<circle cx="332" cy="1020" r="8" class="c0"/>
<circle cx="456" cy="1136" r="8" class="c0"/>
<circle cx="314" cy="844" r="8" class="c0"/>
<circle cx="406" cy="1404" r="8" class="c0"/>
<circle cx="562" cy="816" r="8" class="c0"/>
<circle cx="364" cy="268" r="8" class="c0"/>
<circle cx="274" cy="810" r="8" class="c0"/>
<circle cx="252" cy="884" r="8" class="c0"/>
<circle cx="400" cy="436" r="8" class="c0"/>
<circle cx="432" cy="1376" r="8" class="c0"/>
<circle cx="648" cy="654" r="8" class="c0"/>
<circle cx="556" cy="1124" r="8" class="c0"/>
<circle cx="378" cy="890" r="8" class="c0"/>
<circle cx="560" cy="644" r="8" class="c0"/>
<circle cx="566" cy="570" r="8" class="c0"/>
<circle cx="594" cy="1020" r="8" class="c0"/>
<circle cx="596" cy="1146" r="8" class="c0"/>
<circle cx="554" cy="1206" r="8" class="c0"/>
<circle cx="428" cy="596" r="8" class="c0"/>
<circle cx="534" cy="1338" r="8" class="c0"/>
<circle cx="520" cy="1304" r="8" class="c0"/>
<circle cx="626" cy="1424" r="8" class="c0"/>
<circle cx="500" cy="510" r="8" class="c0"/>
<circle cx="458" cy="796" r="8" class="c0"/>
<circle cx="508" cy="602" r="8" class="c0"/>
<circle cx="348" cy="618" r="8" class="c0"/>
<circle cx="514" cy="772" r="8" class="c0"/>
<circle cx="626" cy="680" r="8" class="c0"/>
<circle cx="450" cy="1306" r="8" class="c0"/>
<circle cx="456" cy="314" r="8" class="c0"/>
<circle cx="344" cy="368" r="6" class="c0"/>
<circle cx="444" cy="852" r="6" class="c0"/>
<circle cx="592" cy="298" r="6" class="c0"/>
<circle cx="572" cy="1170" r="6" class="c0"/>
<circle cx="310" cy="1256" r="6" class="c0"/>
<circle cx="386" cy="296" r="6" class="c0"/>
<circle cx="316" cy="1362" r="6" class="c0"/>
<circle cx="510" cy="1204" r="6" class="c0"/>
<circle cx="422" cy="384" r="6" class="c0"/>
<circle cx="362" cy="902" r="6" class="c0"/>
<circle cx="256" cy="774" r="6" class="c0"/>
<circle cx="478" cy="1220" r="6" class="c0"/>
<circle cx="270" cy="834" r="6" class="c0"/>
<circle cx="522" cy="1214" r="6" class="c0"/>
<circle cx="532" cy="906" r="6" class="c0"/>
<circle cx="566" cy="400" r="6" class="c0"/>
<circle cx="398" cy="1006" r="6" class="c0"/>
<circle cx="344" cy="318" r="6" class="c0"/>
<circle cx="392" cy="784" r="6" class="c0"/>
<circle cx="324" cy="562" r="6" class="c0"/>
<circle cx="506" cy="1150" r="6" class="c0"/>
<circle cx="396" cy="1324" r="6" class="c0"/>
<circle cx="522" cy="426" r="6" class="c0"/>
<circle cx="534" cy="416" r="6" class="c0"/>
<circle cx="320" cy="886" r="6" class="c0"/>
<circle cx="218" cy="842" r="6" class="c0"/>
<circle cx="422" cy="334" r="6" class="c0"/>
<circle cx="472" cy="574" r="6" class="c0"/>
<circle cx="408" cy="1190" r="6" class="c0"/>
<circle cx="576" cy="534" r="6" class="c0"/>
<circle cx="590" cy="1230" r="6" class="c0"/>
<circle cx="336" cy="1426" r="6" class="c0"/>
<circle cx="442" cy="682" r="6" class="c0"/>
<circle cx="498" cy="946" r="6" class="c0"/>
<circle cx="338" cy="1000" r="6" class="c0"/>
<circle cx="440" cy="1332" r="6" class="c0"/>
<circle cx="524" cy="406" r="6" class="c0"/>
<circle cx="436" cy="864" r="6" class="c0"/>
<circle cx="380" cy="308" r="6" class="c0"/>
<circle cx="364" cy="1336" r="6" class="c0"/>
<circle cx="386" cy="1372" r="6" class="c0"/>
<circle cx="574" cy="592" r="6" class="c0"/>
<circle cx="610" cy="1180" r="6" class="c0"/>
<circle cx="506" cy="180" r="6" class="c0"/>
<circle cx="306" cy="1392" r="6" class="c0"/>
<circle cx="580" cy="1120" r="6" class="c0"/>
<circle cx="544" cy="280" r="6" class="c0"/>
<circle cx="498" cy="1060" r="6" class="c0"/>
<circle cx="360" cy="656" r="6" class="c0"/>
<circle cx="348" cy="496" r="6" class="c0"/>
<circle cx="550" cy="1028" r="6" class="c0"/>
<circle cx="352" cy="258" r="6" class="c0"/>
<circle cx="388" cy="714" r="6" class="c0"/>
<circle cx="408" cy="590" r="6" class="c0"/>
<circle cx="564" cy="1082" r="6" class="c0"/>
<circle cx="606" cy="634" r="6" class="c0"/>
<circle cx="408" cy="1352" r="6" class="c0"/>
<circle cx="440" cy="972" r="6" class="c0"/>
<circle cx="584" cy="788" r="6" class="c0"/>
<circle cx="380" cy="214" r="6" class="c0"/>
<circle cx="490" cy="676" r="6" class="c0"/>
<circle cx="410" cy="1424" r="6" class="c0"/>
<circle cx="490" cy="882" r="6" class="c0"/>
<circle cx="502" cy="740" r="6" class="c0"/>
<circle cx="570" cy="978" r="6" class="c0"/>
<circle cx="576" cy="1054" r="6" class="c0"/>
<circle cx="610" cy="488" r="6" class="c0"/>
<circle cx="410" cy="1310" r="6" class="c0"/>
<circle cx="348" cy="594" r="6" class="c0"/>
<circle cx="436" cy="1064" r="6" class="c0"/>
<circle cx="538" cy="966" r="6" class="c0"/>
<circle cx="452" cy="1404" r="6" class="c0"/>
<circle cx="302" cy="270" r="6" class="c0"/>
<circle cx="596" cy="896" r="6" class="c0"/>
<circle cx="424" cy="1250" r="6" class="c0"/>
<circle cx="318" cy="788" r="6" class="c0"/>
<circle cx="526" cy="926" r="6" class="c0"/>
<circle cx="518" cy="228" r="6" class="c0"/>
<circle cx="558" cy="466" r="6" class="c0"/>
<circle cx="542" cy="1364" r="6" class="c0"/>
<circle cx="596" cy="1126" r="6" class="c0"/>
<circle cx="300" cy="684" r="6" class="c0"/>
<circle cx="460" cy="1188" r="6" class="c0"/>
<circle cx="296" cy="856" r="6" class="c0"/>
<circle cx="574" cy="726" r="6" class="c0"/>
<circle cx="594" cy="1344" r="6" class="c0"/>
<circle cx="432" cy="244" r="6" class="c0"/>
<circle cx="362" cy="1046" r="6" class="c0"/>
<circle cx="396" cy="570" r="6" class="c0"/>
<circle cx="590" cy="358" r="6" class="c0"/>
<circle cx="362" cy="246" r="6" class="c0"/>
<circle cx="546" cy="702" r="6" class="c0"/>
<circle cx="472" cy="1256" r="6" class="c0"/>
<circle cx="326" cy="342" r="6" class="c0"/>
<circle cx="314" cy="898" r="6" class="c0"/>
<circle cx="616" cy="334" r="6" class="c0"/>
<circle cx="268" cy="894" r="6" class="c0"/>
<circle cx="444" cy="574" r="6" class="c0"/>
<circle cx="410" cy="1236" r="6" class="c0"/>
<circle cx="584" cy="886" r="6" class="c0"/>
<circle cx="490" cy="388" r="6" class="c0"/>
<circle cx="448" cy="1288" r="6" class="c0"/>
<circle cx="630" cy="580" r="6" class="c0"/>
<circle cx="500" cy="760" r="6" class="c0"/>
<circle cx="366" cy="232" r="6" class="c0"/>
<circle cx="352" cy="566" r="6" class="c0"/>
<circle cx="604" cy="1398" r="6" class="c0"/>
<circle cx="440" cy="1182" r="6" class="c0"/>
<circle cx="442" cy="204" r="6" class="c0"/>
<circle cx="636" cy="1240" r="6" class="c0"/>
<circle cx="462" cy="1164" r="6" class="c0"/>
<circle cx="584" cy="1192" r="6" class="c0"/>
<circle cx="402" cy="856" r="6" class="c0"/>
<circle cx="626" cy="1230" r="6" class="c0"/>
<circle cx="578" cy="1278" r="6" class="c0"/>
<circle cx="422" cy="1362" r="6" class="c0"/>
<circle cx="404" cy="252" r="6" class="c0"/>
<circle cx="370" cy="1068" r="6" class="c0"/>
<circle cx="426" cy="404" r="6" class="c0"/>
<circle cx="372" cy="812" r="6" class="c0"/>
<circle cx="308" cy="1370" r="6" class="c0"/>
<circle cx="554" cy="620" r="6" class="c0"/>
<circle cx="472" cy="1364" r="6" class="c0"/>
<circle cx="570" cy="854" r="6" class="c0"/>
<circle cx="672" cy="642" r="6" class="c0"/>
<circle cx="308" cy="1236" r="6" class="c0"/>
<circle cx="564" cy="386" r="6" class="c0"/>
<circle cx="396" cy="1196" r="6" class="c0"/>
<circle cx="440" cy="1398" r="6" class="c0"/>
<circle cx="334" cy="352" r="6" class="c0"/>
<circle cx="604" cy="342" r="6" class="c0"/>
<circle cx="344" cy="558" r="6" class="c0"/>
<circle cx="648" cy="498" r="6" class="c0"/>
<circle cx="502" cy="476" r="6" class="c0"/>
<circle cx="412" cy="866" r="6" class="c0"/>
<circle cx="436" cy="1220" r="6" class="c0"/>
<circle cx="580" cy="806" r="6" class="c0"/>
<circle cx="422" cy="732" r="6" class="c0"/>
<circle cx="418" cy="472" r="6" class="c0"/>
<circle cx="312" cy="306" r="6" class="c0"/>
<circle cx="390" cy="868" r="6" class="c0"/>
<circle cx="480" cy="846" r="6" class="c0"/>
<circle cx="594" cy="1428" r="6" class="c0"/>
<circle cx="330" cy="628" r="6" class="c0"/>
<circle cx="532" cy="192" r="6" class="c0"/>
<circle cx="286" cy="866" r="6" class="c0"/>
<circle cx="372" cy="592" r="6" class="c0"/>
<circle cx="638" cy="640" r="6" class="c0"/>
<circle cx="524" cy="184" r="6" class="c0"/>
<circle cx="500" cy="450" r="6" class="c0"/>
<circle cx="486" cy="1262" r="6" class="c0"/>
<circle cx="386" cy="850" r="6" class="c0"/>
<circle cx="400" cy="602" r="6" class="c0"/>
<circle cx="472" cy="748" r="6" class="c0"/>
<circle cx="496" cy="358" r="6" class="c0"/>
<circle cx="492" cy="226" r="6" class="c0"/>
<circle cx="516" cy="262" r="6" class="c0"/>
<circle cx="376" cy="946" r="6" class="c0"/>
<circle cx="610" cy="1224" r="6" class="c0"/>
<circle cx="634" cy="1362" r="6" class="c0"/>
<circle cx="356" cy="1326" r="6" class="c0"/>
<circle cx="540" cy="202" r="6" class="c0"/>
<circle cx="472" cy="310" r="6" class="c0"/>
<circle cx="634" cy="662" r="6" class="c0"/>
<circle cx="604" cy="1332" r="6" class="c0"/>
<circle cx="352" cy="376" r="6" class="c0"/>
<circle cx="588" cy="454" r="6" class="c0"/>
<circle cx="524" cy="342" r="6" class="c0"/>
<circle cx="546" cy="1148" r="6" class="c0"/>
<circle cx="562" cy="438" r="6" class="c0"/>
<circle cx="350" cy="664" r="6" class="c0"/>
<circle cx="454" cy="646" r="6" class="c0"/>
<circle cx="550" cy="1432" r="6" class="c0"/>
<circle cx="344" cy="882" r="6" class="c0"/>
<circle cx="496" cy="490" r="6" class="c0"/>
<circle cx="526" cy="1248" r="6" class="c0"/>
<circle cx="316" cy="1152" r="6" class="c0"/>
<circle cx="394" cy="1354" r="6" class="c0"/>
<circle cx="610" cy="1070" r="6" class="c0"/>
<circle cx="304" cy="330" r="6" class="c0"/>
<circle cx="320" cy="694" r="6" class="c0"/>
<circle cx="462" cy="758" r="6" class="c0"/>
<circle cx="348" cy="952" r="6" class="c0"/>
<circle cx="536" cy="432" r="6" class="c0"/>
<circle cx="430" cy="278" r="6" class="c0"/>
<circle cx="360" cy="696" r="6" class="c0"/>
<circle cx="618" cy="1098" r="6" class="c0"/>
<circle cx="554" cy="1140" r="6" class="c0"/>
<circle cx="556" cy="1228" r="6" class="c0"/>
<circle cx="324" cy="722" r="6" class="c0"/>
<circle cx="460" cy="958" r="6" class="c0"/>
<circle cx="422" cy="1192" r="6" class="c0"/>
<circle cx="602" cy="956" r="6" class="c0"/>
<circle cx="532" cy="938" r="6" class="c0"/>
<circle cx="330" cy="778" r="6" class="c0"/>
<circle cx="440" cy="1096" r="6" class="c0"/>
<circle cx="304" cy="640" r="6" class="c0"/>
<circle cx="358" cy="1194" r="6" class="c0"/>
<circle cx="372" cy="1090" r="6" class="c0"/>
<circle cx="468" cy="774" r="6" class="c0"/>
<circle cx="568" cy="900" r="6" class="c0"/>
<circle cx="572" cy="1432" r="6" class="c0"/>
<circle cx="422" cy="1218" r="6" class="c0"/>
<circle cx="302" cy="608" r="6" class="c0"/>
<circle cx="472" cy="982" r="6" class="c0"/>
<circle cx="402" cy="376" r="6" class="c0"/>
<circle cx="284" cy="784" r="6" class="c0"/>
<circle cx="466" cy="610" r="6" class="c0"/>
<circle cx="322" cy="1086" r="6" class="c0"/>
<circle cx="388" cy="1396" r="6" class="c0"/>
<circle cx="468" cy="888" r="6" class="c0"/>
<circle cx="492" cy="258" r="6" class="c0"/>
<circle cx="564" cy="286" r="6" class="c0"/>
<circle cx="364" cy="1404" r="6" class="c0"/>
<circle cx="550" cy="1072" r="6" class="c0"/>
<circle cx="304" cy="1296" r="6" class="c0"/>
<circle cx="340" cy="252" r="6" class="c0"/>
<circle cx="292" cy="754" r="6" class="c0"/>
<circle cx="310" cy="1220" r="6" class="c0"/>
<circle cx="550" cy="544" r="6" class="c0"/>
<circle cx="640" cy="570" r="6" class="c0"/>
<circle cx="438" cy="728" r="6" class="c0"/>
<circle cx="518" cy="1170" r="6" class="c0"/>
<circle cx="526" cy="1146" r="6" class="c0"/>
<circle cx="300" cy="1378" r="6" class="c0"/>
<circle cx="408" cy="956" r="6" class="c0"/>
<circle cx="410" cy="1108" r="6" class="c0"/>
<circle cx="350" cy="1432" r="6" class="c0"/>
<circle cx="570" cy="252" r="6" class="c0"/>
<circle cx="592" cy="666" r="6" class="c0"/>
<circle cx="476" cy="1002" r="6" class="c0"/>
<circle cx="612" cy="1382" r="6" class="c0"/>
<circle cx="580" cy="1324" r="6" class="c0"/>
<circle cx="446" cy="304" r="6" class="c0"/>
<circle cx="348" cy="272" r="6" class="c0"/>
<circle cx="612" cy="1056" r="6" class="c0"/>
<circle cx="412" cy="488" r="6" class="c0"/>
<circle cx="446" cy="1028" r="6" class="c0"/>
<circle cx="364" cy="1136" r="6" class="c0"/>
<circle cx="642" cy="1276" r="6" class="c0"/>
<circle cx="558" cy="238" r="6" class="c0"/>
<circle cx="230" cy="826" r="6" class="c0"/>
<circle cx="410" cy="1294" r="6" class="c0"/>
<circle cx="516" cy="1262" r="6" class="c0"/>
<circle cx="652" cy="1398" r="6" class="c0"/>
<circle cx="528" cy="1030" r="6" class="c0"/>
<circle cx="306" cy="1324" r="6" class="c0"/>
<circle cx="520" cy="1408" r="6" class="c0"/>
<circle cx="536" cy="242" r="6" class="c0"/>
<circle cx="412" cy="844" r="6" class="c0"/>
<circle cx="526" cy="870" r="6" class="c0"/>
<circle cx="332" cy="986" r="6" class="c0"/>
<circle cx="428" cy="450" r="6" class="c0"/>
<circle cx="318" cy="1166" r="6" class="c0"/>
<circle cx="568" cy="1266" r="6" class="c0"/>
<circle cx="622" cy="482" r="6" class="c0"/>
<circle cx="482" cy="874" r="6" class="c0"/>
<circle cx="466" cy="1146" r="6" class="c0"/>
<circle cx="552" cy="214" r="6" class="c0"/>
<circle cx="414" cy="1276" r="6" class="c0"/>
<circle cx="436" cy="844" r="6" class="c0"/>
<circle cx="536" cy="312" r="6" class="c0"/>
<circle cx="282" cy="712" r="6" class="c0"/>
<circle cx="650" cy="1362" r="6" class="c0"/>
<circle cx="570" cy="1070" r="6" class="c0"/>
<circle cx="466" cy="1090" r="6" class="c0"/>
<circle cx="508" cy="302" r="6" class="c0"/>
<circle cx="422" cy="204" r="6" class="c0"/>
<circle cx="578" cy="1206" r="6" class="c0"/>
<circle cx="542" cy="778" r="6" class="c0"/>
<circle cx="428" cy="692" r="6" class="c0"/>
<circle cx="480" cy="564" r="6" class="c0"/>
<circle cx="490" cy="1292" r="6" class="c0"/>
<circle cx="548" cy="724" r="6" class="c0"/>
<circle cx="506" cy="1096" r="6" class="c0"/>
<circle cx="352" cy="890" r="6" class="c0"/>
<circle cx="616" cy="1296" r="6" class="c0"/>
<circle cx="478" cy="626" r="6" class="c0"/>
<circle cx="588" cy="610" r="6" class="c0"/>
<circle cx="544" cy="926" r="6" class="c0"/>
<circle cx="466" cy="1378" r="6" class="c0"/>
<circle cx="522" cy="536" r="6" class="c0"/>
<circle cx="440" cy="626" r="6" class="c0"/>
<circle cx="274" cy="732" r="6" class="c0"/>
<circle cx="446" cy="496" r="6" class="c0"/>
<circle cx="530" cy="392" r="6" class="c0"/>
<circle cx="606" cy="556" r="6" class="c0"/>
<circle cx="324" cy="1110" r="6" class="c0"/>
<circle cx="588" cy="1356" r="6" class="c0"/>
<circle cx="402" cy="1282" r="6" class="c0"/>
<circle cx="550" cy="1372" r="6" class="c0"/>
<circle cx="364" cy="384" r="6" class="c0"/>
<circle cx="396" cy="546" r="6" class="c0"/>
<circle cx="560" cy="316" r="6" class="c0"/>
<circle cx="452" cy="966" r="6" class="c0"/>
<circle cx="494" cy="1160" r="6" class="c0"/>
<circle cx="430" cy="980" r="6" class="c0"/>
<circle cx="600" cy="1190" r="6" class="c0"/>
<circle cx="502" cy="380" r="6" class="c0"/>
<circle cx="430" cy="1076" r="6" class="c0"/>
<circle cx="410" cy="390" r="6" class="c0"/>
<circle cx="354" cy="1160" r="6" class="c0"/>
<circle cx="406" cy="720" r="6" class="c0"/>
<circle cx="606" cy="1010" r="6" class="c0"/>
<circle cx="320" cy="1246" r="6" class="c0"/>
<circle cx="442" cy="828" r="6" class="c0"/>
<circle cx="558" cy="552" r="6" class="c0"/>
<circle cx="356" cy="844" r="6" class="c0"/>
<circle cx="320" cy="298" r="6" class="c0"/>
<circle cx="360" cy="608" r="6" class="c0"/>
<circle cx="594" cy="1320" r="6" class="c0"/>
<circle cx="368" cy="618" r="6" class="c0"/>
<circle cx="396" cy="500" r="6" class="c0"/>
<circle cx="400" cy="300" r="6" class="c0"/>
<circle cx="336" cy="814" r="6" class="c0"/>
<circle cx="564" cy="452" r="6" class="c0"/>
<circle cx="498" cy="688" r="6" class="c0"/>
<circle cx="300" cy="1362" r="6" class="c0"/>
<circle cx="572" cy="794" r="6" class="c0"/>
<circle cx="626" cy="628" r="6" class="c0"/>
<circle cx="370" cy="712" r="6" class="c0"/>
<circle cx="486" cy="980" r="6" class="c0"/>
<circle cx="326" cy="872" r="6" class="c0"/>
<circle cx="418" cy="906" r="6" class="c0"/>
<circle cx="596" cy="914" r="6" class="c0"/>
<circle cx="546" cy="1114" r="6" class="c0"/>
<circle cx="348" cy="1008" r="6" class="c0"/>
<circle cx="582" cy="1244" r="6" class="c0"/>
<circle cx="442" cy="794" r="6" class="c0"/>
<circle cx="384" cy="958" r="6" class="c0"/>
<circle cx="460" cy="938" r="6" class="c0"/>
<circle cx="452" cy="862" r="6" class="c0"/>
<circle cx="478" cy="1194" r="6" class="c0"/>
<circle cx="662" cy="506" r="6" class="c0"/>
<circle cx="370" cy="1432" r="6" class="c0"/>
<circle cx="340" cy="1248" r="6" class="c0"/>
<circle cx="522" cy="202" r="6" class="c0"/>
<circle cx="396" cy="1416" r="6" class="c0"/>
<circle cx="506" cy="1072" r="6" class="c0"/>
<circle cx="498" cy="1218" r="6" class="c0"/>
<circle cx="444" cy="1236" r="6" class="c0"/>
<circle cx="450" cy="1324" r="6" class="c0"/>
<circle cx="294" cy="628" r="6" class="c0"/>
<circle cx="300" cy="1428" r="6" class="c0"/>
<circle cx="212" cy="824" r="6" class="c0"/>
<circle cx="474" cy="834" r="6" class="c0"/>
<circle cx="484" cy="272" r="6" class="c0"/>
<circle cx="506" cy="1380" r="6" class="c0"/>
<circle cx="382" cy="1282" r="6" class="c0"/>
<circle cx="440" cy="1414" r="6" class="c0"/>
<circle cx="334" cy="1148" r="6" class="c0"/>
<circle cx="312" cy="340" r="6" class="c0"/>
<circle cx="436" cy="582" r="6" class="c0"/>
<circle cx="468" cy="806" r="6" class="c0"/>
<circle cx="362" cy="820" r="6" class="c0"/>
<circle cx="242" cy="778" r="6" class="c0"/>
<circle cx="452" cy="1176" r="6" class="c0"/>
<circle cx="282" cy="740" r="6" class="c0"/>
<circle cx="576" cy="1184" r="6" class="c0"/>
<circle cx="240" cy="834" r="6" class="c0"/>
<circle cx="480" cy="740" r="6" class="c0"/>
<circle cx="390" cy="1222" r="6" class="c0"/>
<circle cx="596" cy="618" r="6" class="c0"/>
<circle cx="254" cy="802" r="6" class="c0"/>
<circle cx="656" cy="1412" r="6" class="c0"/>
<circle cx="542" cy="1244" r="6" class="c0"/>
<circle cx="396" cy="1256" r="6" class="c0"/>
<circle cx="584" cy="584" r="6" class="c0"/>
<circle cx="592" cy="848" r="6" class="c0"/>
<circle cx="358" cy="316" r="6" class="c0"/>
<circle cx="392" cy="336" r="6" class="c0"/>
<circle cx="494" cy="748" r="6" class="c0"/>
<circle cx="516" cy="414" r="6" class="c0"/>
<circle cx="452" cy="1152" r="6" class="c0"/>
<circle cx="564" cy="1216" r="6" class="c0"/>
<circle cx="448" cy="222" r="6" class="c0"/>
<circle cx="502" cy="1196" r="6" class="c0"/>
<circle cx="572" cy="508" r="6" class="c0"/>
<circle cx="454" cy="258" r="6" class="c0"/>
<circle cx="582" cy="348" r="6" class="c0"/>
<circle cx="324" cy="1432" r="6" class="c0"/>
<circle cx="338" cy="506" r="6" class="c0"/>
<circle cx="394" cy="726" r="6" class="c0"/>
</svg>
